<?xml version="1.0" encoding="UTF-8" standalone="no"?>
<svg xmlns:xlink="http://www.w3.org/1999/xlink" height="531.5px" width="460.6px" xmlns="http://www.w3.org/2000/svg">
  <g transform="matrix(1.0, 0.0, 0.0, 1.0, 193.65, 334.05)">
    <use height="47.5" transform="matrix(1.2341, 0.0, 0.0, 1.2341, -79.3006, -43.59)" width="121.0" xlink:href="#shape0"/>
  </g>
  <defs>
    <g id="shape0" transform="matrix(1.0, 0.0, 0.0, 1.0, 59.6, 22.6)">
      <path d="M27.3 -5.45 L25.15 -3.9 25.1 -3.9 Q22.05 -1.7 19.25 0.9 L19.0 1.1 18.9 1.1 Q18.05 1.05 17.75 -0.4 19.45 -4.5 21.55 -7.25 22.75 -6.65 23.8 -5.1 L22.25 -8.15 24.35 -10.2 24.4 -10.25 25.4 -10.55 26.55 -10.25 29.8 -7.75 27.7 -5.8 27.45 -5.55 27.3 -5.45 M2.0 -7.1 Q3.05 -9.05 4.7 -10.1 L6.75 -10.15 Q10.65 -7.05 13.4 -0.35 13.1 1.2 12.15 1.15 8.2 -2.5 3.7 -5.4 L2.85 -6.4 2.0 -7.1" fill="#000000" fill-rule="evenodd" stroke="none"/>
      <path d="M24.65 -12.2 L25.85 -12.35 26.8 -11.6 27.95 -10.65 29.3 -9.1 30.0 -8.15 Q31.4 -6.2 31.0 -2.05 L30.95 -1.7 30.95 -0.95 30.45 -0.1 Q29.85 0.5 28.7 0.7 L28.5 -1.15 28.5 -1.2 28.3 -2.1 28.3 -2.2 28.25 -2.25 27.9 -3.6 27.45 -5.1 27.3 -5.45 27.45 -5.55 27.7 -5.8 29.8 -7.75 26.55 -10.25 25.4 -10.55 24.4 -10.25 24.35 -10.2 23.2 -10.5 Q23.3 -11.35 24.05 -11.85 L24.35 -11.85 24.65 -12.2 M-0.35 -11.55 L0.55 -12.25 Q1.2 -12.75 2.6 -11.9 L3.05 -11.35 3.15 -11.35 3.4 -10.1 3.35 -10.1 -0.1 -7.55 1.45 -6.4 0.85 -6.05 Q-0.1 -5.35 -0.1 -4.5 L-0.1 -4.25 0.0 -2.45 Q0.1 -1.3 -1.6 0.7 L-1.7 0.85 -2.8 0.55 Q-3.65 0.2 -3.95 -0.6 L-4.05 -1.4 -1.75 -4.25 -1.0 -5.75 0.1 -9.05 Q0.45 -10.45 -0.35 -11.55 M33.2 7.8 L33.2 7.7 33.25 7.7 33.2 7.8" fill="#b4b4b4" fill-rule="evenodd" stroke="none"/>
      <path d="M39.6 -12.65 L41.65 -13.0 Q51.25 -14.35 55.55 -11.9 L55.5 -11.9 54.0 -11.55 Q57.5 -9.7 58.2 -5.05 55.35 -9.7 52.9 -10.9 49.45 -9.35 47.15 -5.4 L48.6 -9.25 48.6 -9.3 48.65 -9.4 Q45.55 -9.6 42.5 -6.8 L41.9 -6.8 41.45 -8.5 41.1 -9.45 39.6 -12.65 M-54.05 -10.5 L-53.7 -10.85 -52.3 -11.9 Q-51.15 -12.55 -49.55 -12.95 L-46.95 -13.35 -43.55 -13.45 -40.5 -13.25 -38.4 -13.0 -38.15 -12.95 -22.35 -9.95 Q-22.25 -9.1 -22.3 -8.1 L-23.35 -7.95 -23.7 -7.95 -25.15 -5.55 -26.6 -5.55 Q-28.65 -7.4 -30.7 -7.95 L-32.75 -8.15 -32.7 -8.05 -31.25 -4.15 Q-33.5 -8.05 -36.85 -9.55 L-44.25 -10.9 -46.95 -11.05 -54.05 -10.5" fill="#e06e60" fill-rule="evenodd" stroke="none"/>
      <path d="M38.25 3.65 L37.0 -0.1 Q38.15 -1.6 39.7 -0.4 39.9 0.85 39.7 2.4 L39.6 2.75 38.8 5.45 38.25 3.65 M43.9 1.6 Q44.3 2.8 44.15 3.85 L44.1 4.05 44.05 4.2 43.1 7.3 42.45 4.85 42.15 1.85 43.9 1.6 M51.1 1.3 L51.7 3.85 51.7 3.9 51.65 3.85 50.5 2.9 48.3 0.25 Q49.0 -0.95 50.6 -0.95 L51.1 1.3 M34.45 7.75 Q37.45 7.7 39.3 5.85 L39.9 6.3 Q39.0 7.85 37.2 9.2 35.65 9.0 34.45 7.75 M-34.65 0.3 Q-33.05 0.3 -32.35 1.5 L-34.55 4.15 -35.75 5.15 -35.15 2.55 -34.65 0.3 M-23.75 0.85 Q-22.2 -0.35 -21.05 1.15 L-22.3 4.9 -22.85 6.7 -23.65 4.0 -23.75 3.65 Q-23.95 2.1 -23.75 0.85 M-18.5 9.0 Q-19.7 10.25 -21.25 10.45 -23.05 9.1 -23.95 7.55 L-23.35 7.1 Q-21.5 8.95 -18.5 9.0 M-26.5 6.1 L-27.15 8.55 -28.1 5.45 -28.15 5.3 Q-28.4 4.15 -27.95 2.85 L-26.2 3.1 -26.5 6.1" fill="#171717" fill-rule="evenodd" stroke="none"/>
      <path d="M42.8 12.1 Q37.55 14.85 34.25 14.35 36.85 12.6 38.15 10.1 L42.85 12.05 42.8 12.1 M-18.3 15.6 Q-21.25 16.05 -25.7 13.95 L-26.8 13.4 -26.85 13.35 -26.4 13.2 Q-26.3 13.1 -25.7 12.9 L-22.2 11.35 Q-20.9 13.85 -18.3 15.6 M-26.8 13.4 L-26.4 13.2 -26.8 13.4" fill="#695050" fill-rule="evenodd" stroke="none"/>
      <path d="M39.7 2.6 L39.6 2.75 39.7 2.4 39.7 2.6 M-23.75 3.65 L-23.65 4.0 -23.75 3.85 -23.75 3.65" fill="#bd0505" fill-rule="evenodd" stroke="none"/>
      <path d="M-53.7 -10.85 Q-53.65 -11.75 -54.0 -12.3 L-50.0 -13.85 -49.55 -12.95 Q-51.15 -12.55 -52.3 -11.9 L-53.7 -10.85" fill="#822424" fill-rule="evenodd" stroke="none"/>
      <path d="M-54.0 -12.3 L-58.15 -10.0 Q-60.5 -12.9 -57.75 -14.4 L-58.35 -14.9 -50.7 -18.6 -50.2 -17.05 Q-55.55 -14.7 -56.75 -13.65 L-57.4 -14.1 Q-59.15 -12.65 -58.0 -10.8 L-54.4 -12.8 Q-53.4 -13.05 -52.2 -13.6 L-50.1 -14.6 -49.05 -15.05 -48.95 -14.3 Q-49.45 -14.05 -50.0 -13.85 L-54.0 -12.3 M-57.75 -14.4 L-57.4 -14.1 -57.75 -14.4" fill="#931111" fill-rule="evenodd" stroke="none"/>
      <path d="M7.55 -14.6 Q12.55 -15.8 19.45 -14.5 L19.45 -14.3 19.65 -14.4 Q22.05 -11.5 24.05 -11.85 23.3 -11.35 23.2 -10.5 L24.35 -10.2 22.25 -8.15 23.8 -5.1 Q22.75 -6.65 21.55 -7.25 19.45 -4.5 17.75 -0.4 18.05 1.05 18.9 1.1 20.7 3.2 22.5 3.4 L23.5 3.3 Q21.7 3.0 21.8 2.4 24.85 1.1 25.15 -0.75 L25.2 -3.5 25.15 -3.9 27.3 -5.45 27.45 -5.1 27.9 -3.6 28.25 -2.25 28.3 -2.2 28.3 -2.1 28.5 -1.2 28.5 -1.15 28.7 0.7 28.45 1.55 27.25 5.7 27.3 5.55 27.25 5.75 26.55 8.15 26.45 8.6 27.3 4.2 25.05 8.15 23.4 7.55 21.75 10.0 17.3 7.1 14.1 11.05 10.9 7.1 7.25 9.55 4.15 6.5 2.5 8.4 2.3 8.0 Q1.3 6.15 0.0 4.9 L-1.25 3.75 -1.35 3.55 -1.5 3.55 -2.8 0.55 -1.7 0.85 -1.6 0.7 Q0.1 -1.3 0.0 -2.45 L-0.1 -4.25 -0.1 -4.5 Q-0.1 -5.35 0.85 -6.05 L1.45 -6.4 -0.1 -7.55 3.35 -10.1 3.4 -10.1 3.15 -11.35 Q9.75 -12.1 7.9 -14.45 L7.55 -14.6 M2.0 -7.1 L2.85 -6.4 3.7 -5.4 Q8.2 -2.5 12.15 1.15 13.1 1.2 13.4 -0.35 10.65 -7.05 6.75 -10.15 L4.7 -10.1 Q3.05 -9.05 2.0 -7.1 M4.45 -4.0 L4.4 -3.55 Q4.2 -2.25 4.4 -0.65 4.7 1.2 7.7 2.5 L7.6 2.85 6.8 3.25 6.0 3.4 6.15 3.45 Q8.6 3.9 11.15 0.45 7.85 -2.9 4.45 -4.05 L4.45 -4.0 M17.35 -8.45 L17.9 -9.6 15.65 -10.8 13.35 -9.85 13.95 -8.5 17.35 -8.45 20.2 -8.35 17.9 -9.6 19.3 -12.2 15.65 -10.8 12.05 -12.75 13.35 -9.85 10.0 -8.6 13.95 -8.5 15.5 -5.05 17.35 -8.45 15.5 -5.05 13.95 -8.5 10.0 -8.6 13.35 -9.85 12.05 -12.75 15.65 -10.8 19.3 -12.2 17.9 -9.6 20.2 -8.35 17.35 -8.45 13.95 -8.5 13.35 -9.85 15.65 -10.8 17.9 -9.6 17.35 -8.45 M27.0 5.15 L26.9 5.45 26.85 5.6 27.0 5.15" fill="url(#gradient0)" fill-rule="evenodd" stroke="none"/>
      <path d="M31.1 -1.7 L34.65 -2.3 37.8 -3.25 38.55 -3.55 38.65 -3.55 Q40.6 -4.3 41.35 -5.3 L41.75 -6.0 41.9 -6.8 42.5 -6.8 43.8 -6.8 45.6 -5.7 49.1 -3.5 Q49.9 -2.4 50.55 -1.95 51.2 -1.5 50.6 -0.95 49.0 -0.95 48.3 0.25 L50.5 2.9 48.35 3.55 Q47.25 1.2 45.0 -0.3 L43.9 -0.95 43.9 -0.65 Q44.4 1.25 43.9 1.6 L42.15 1.85 42.45 4.85 Q41.3 5.1 40.05 4.45 L39.7 2.6 39.7 2.4 Q39.9 0.85 39.7 -0.4 38.15 -1.6 37.0 -0.1 L38.25 3.65 35.6 3.6 35.0 2.65 34.75 2.25 Q33.75 0.7 31.1 -1.65 L31.1 -1.7 M38.65 -3.55 Q39.6 -2.6 40.15 -1.05 40.2 -0.25 39.7 -0.4 40.2 -0.25 40.15 -1.05 39.6 -2.6 38.65 -3.55 M43.9 -0.95 L43.9 -3.45 41.75 -6.0 43.9 -3.45 43.9 -0.95" fill="url(#gradient1)" fill-rule="evenodd" stroke="none"/>
      <path d="M55.55 -11.9 Q56.7 -11.25 57.45 -10.35 58.85 -8.65 59.7 -6.75 61.75 -2.2 60.65 3.7 L60.3 5.15 59.7 6.65 Q58.0 10.3 53.9 12.15 L53.6 12.3 53.25 12.45 52.7 12.65 51.1 13.2 50.9 13.25 Q46.6 14.25 42.8 12.1 L42.85 12.05 38.15 10.1 39.7 8.4 Q40.3 7.0 39.9 6.3 L39.3 5.85 Q37.45 7.7 34.45 7.75 L33.25 7.7 33.2 7.7 33.2 7.8 33.15 7.85 32.8 8.65 32.5 9.45 Q31.3 12.4 29.55 14.2 L28.2 15.35 Q27.65 14.95 28.3 12.85 29.0 9.7 29.1 5.8 L29.1 5.55 29.1 5.5 28.75 2.75 28.5 1.7 28.45 1.55 28.7 0.7 Q29.85 0.5 30.45 -0.1 L30.95 -0.95 30.95 -1.7 31.1 -1.7 31.1 -1.65 Q33.75 0.7 34.75 2.25 L35.0 2.65 35.6 3.6 38.25 3.65 38.8 5.45 39.6 2.75 39.7 2.6 40.05 4.45 Q41.3 5.1 42.45 4.85 L43.1 7.3 44.05 4.2 44.1 4.05 44.15 3.85 Q44.3 2.8 43.9 1.6 44.4 1.25 43.9 -0.65 L43.9 -0.95 45.0 -0.3 Q47.25 1.2 48.35 3.55 L50.5 2.9 51.65 3.85 51.7 3.9 51.7 3.85 51.1 1.3 Q52.8 0.65 54.15 1.75 52.8 0.65 51.1 1.3 L50.6 -0.95 Q51.2 -1.5 50.55 -1.95 49.9 -2.4 49.1 -3.5 L45.6 -5.7 43.8 -6.8 42.5 -6.8 Q45.55 -9.6 48.65 -9.4 L48.6 -9.3 48.6 -9.25 47.15 -5.4 Q49.45 -9.35 52.9 -10.9 55.35 -9.7 58.2 -5.05 57.5 -9.7 54.0 -11.55 L55.5 -11.9 55.55 -11.9 M-26.8 13.4 Q-28.45 14.15 -30.7 14.45 -37.45 15.35 -49.55 12.6 L-50.0 12.45 -50.35 12.3 -50.65 12.15 Q-53.0 11.05 -54.55 9.45 -56.75 7.1 -57.4 3.7 -58.75 -3.45 -55.45 -8.6 L-54.7 -9.7 -54.55 -9.9 -54.2 -10.35 -54.05 -10.5 -46.95 -11.05 -44.25 -10.9 -36.85 -9.55 Q-33.5 -8.05 -31.25 -4.15 L-32.7 -8.05 Q-31.7 -7.55 -30.7 -6.15 L-29.65 -4.45 -33.15 -2.25 -34.6 -0.7 Q-35.25 -0.25 -34.65 0.3 L-35.15 2.55 -35.75 5.15 -34.55 4.15 -32.4 4.8 Q-31.75 3.45 -30.7 2.4 L-29.05 1.0 -27.95 0.3 -27.95 0.6 Q-28.45 2.5 -27.95 2.85 -28.4 4.15 -28.15 5.3 L-28.1 5.45 -27.15 8.55 -26.5 6.1 -25.7 6.2 Q-24.9 6.15 -24.1 5.7 -24.2 6.6 -23.35 7.1 L-23.95 7.55 Q-24.35 8.25 -23.75 9.65 L-22.2 11.35 -25.7 12.9 Q-26.3 13.1 -26.4 13.2 L-26.85 13.35 -26.8 13.4 M47.0 7.75 Q46.0 5.05 44.1 4.05 46.0 5.05 47.0 7.75 M45.6 -5.7 Q47.1 -8.5 48.6 -9.25 47.1 -8.5 45.6 -5.7 M49.35 8.2 L49.25 6.75 Q49.05 5.15 48.5 3.85 L48.35 3.55 48.5 3.85 Q49.05 5.15 49.25 6.75 L49.35 8.2 M32.6 5.55 L33.1 6.4 Q33.35 7.0 33.2 7.7 33.35 7.0 33.1 6.4 L32.6 5.55 M31.7 4.75 L32.25 5.15 31.7 4.75 M35.0 2.65 L35.45 3.85 Q35.85 5.95 33.25 7.7 35.85 5.95 35.45 3.85 L35.0 2.65 M-42.55 -1.05 Q-41.9 -1.55 -41.2 -1.7 -41.9 -1.55 -42.55 -1.05 M-31.05 9.0 L-30.7 8.2 Q-29.75 6.15 -28.15 5.3 -29.75 6.15 -30.7 8.2 L-31.05 9.0 M-33.4 9.45 L-33.3 8.0 Q-33.1 6.25 -32.4 4.8 -33.1 6.25 -33.3 8.0 L-33.4 9.45 M-36.85 2.35 L-35.8 2.4 -35.15 2.55 -35.8 2.4 -36.85 2.35" fill="url(#gradient2)" fill-rule="evenodd" stroke="none"/>
      <path d="M34.25 14.35 L33.95 14.65 Q31.15 16.6 29.85 14.65 L29.55 14.2 Q31.3 12.4 32.5 9.45 L32.8 8.65 33.15 7.85 33.2 7.8 33.25 7.7 34.45 7.75 Q35.65 9.0 37.2 9.2 39.0 7.85 39.9 6.3 40.3 7.0 39.7 8.4 L38.15 10.1 Q36.85 12.6 34.25 14.35" fill="url(#gradient3)" fill-rule="evenodd" stroke="none"/>
      <path d="M28.2 15.35 L26.65 16.15 26.1 16.35 25.5 16.55 Q25.5 13.9 26.0 11.0 26.2 9.6 26.55 8.15 L27.25 5.75 27.3 5.55 27.25 5.7 28.45 1.55 28.5 1.7 28.75 2.75 29.1 5.5 29.1 5.55 29.1 5.8 Q29.0 9.7 28.3 12.85 27.65 14.95 28.2 15.35 M-1.5 3.55 L-1.35 3.55 -1.25 3.75 -1.45 3.6 -1.5 3.55 M-1.45 3.6 L-1.25 3.75 -1.2 3.85 -1.45 3.6" fill="url(#gradient4)" fill-rule="evenodd" stroke="none"/>
      <path d="M-2.95 19.05 L-4.35 18.75 -10.7 17.4 -11.5 17.0 -13.6 15.45 Q-15.35 13.65 -16.55 10.65 L-16.85 9.9 -17.2 9.1 -17.25 8.95 -18.5 9.0 Q-21.5 8.95 -23.35 7.1 -24.2 6.6 -24.1 5.7 L-23.75 3.85 -23.65 4.0 -22.85 6.7 -22.3 4.9 -19.65 4.85 Q-17.9 2.05 -15.15 -0.4 L-14.1 -3.45 -13.8 -3.75 Q-13.0 -3.2 -11.65 -2.8 L-11.3 -2.7 -10.4 -2.4 -6.85 -1.65 -6.3 -0.75 -5.7 1.1 -4.55 3.1 -3.3 5.25 Q-2.15 7.65 -1.95 9.25 L-1.95 13.4 -2.05 16.9 -2.95 19.05 M-22.35 -9.95 Q-20.5 -9.05 -19.75 -6.7 L-21.4 -8.2 -22.3 -8.1 Q-22.25 -9.1 -22.35 -9.95 M-32.7 -8.05 L-32.75 -8.15 -30.7 -7.95 Q-28.65 -7.4 -26.6 -5.55 L-27.85 -5.55 -29.65 -4.45 -30.7 -6.15 Q-31.7 -7.55 -32.7 -8.05 M-11.1 1.15 Q-12.65 -0.6 -15.15 -0.4 -12.65 -0.6 -11.1 1.15 M-12.7 10.3 Q-14.85 10.75 -16.8 9.3 L-17.25 8.95 Q-19.95 7.65 -19.65 4.85 -19.95 7.65 -17.25 8.95 L-16.8 9.3 Q-14.85 10.75 -12.7 10.3" fill="url(#gradient5)" fill-rule="evenodd" stroke="none"/>
      <path d="M-19.75 -6.7 L-18.55 -5.65 -16.7 -7.45 -14.75 -7.7 -14.85 -7.55 Q-15.65 -5.9 -14.8 -4.7 L-13.8 -3.75 -14.1 -3.45 -15.15 -0.4 Q-17.9 2.05 -19.65 4.85 L-22.3 4.9 -21.05 1.15 Q-22.2 -0.35 -23.75 0.85 -23.95 2.1 -23.75 3.65 L-23.75 3.85 -24.1 5.7 Q-24.9 6.15 -25.7 6.2 L-26.5 6.1 -26.2 3.1 -27.95 2.85 Q-28.45 2.5 -27.95 0.6 L-27.95 0.3 -29.05 1.0 -30.7 2.4 Q-31.75 3.45 -32.4 4.8 L-34.55 4.15 -32.35 1.5 Q-33.05 0.3 -34.65 0.3 -35.25 -0.25 -34.6 -0.7 L-33.15 -2.25 -29.65 -4.45 -27.85 -5.55 -26.6 -5.55 -25.15 -5.55 -23.7 -7.95 -23.35 -7.95 -22.3 -8.1 -21.4 -8.2 -19.75 -6.7 M-25.15 -5.55 L-27.95 -2.2 -27.95 0.3 -27.95 -2.2 -25.15 -5.55 M-23.75 0.85 Q-24.25 1.0 -24.2 0.2 -23.4 -2.0 -21.8 -3.05 L-18.55 -5.65 -21.8 -3.05 Q-23.4 -2.0 -24.2 0.2 -24.25 1.0 -23.75 0.85" fill="url(#gradient6)" fill-rule="evenodd" stroke="none"/>
      <path d="M-13.6 15.45 L-13.9 15.9 Q-15.2 17.85 -18.0 15.9 L-18.3 15.6 Q-20.9 13.85 -22.2 11.35 L-23.75 9.65 Q-24.35 8.25 -23.95 7.55 -23.05 9.1 -21.25 10.45 -19.7 10.25 -18.5 9.0 L-17.25 8.95 -17.2 9.1 -16.85 9.9 -16.55 10.65 Q-15.35 13.65 -13.6 15.45" fill="url(#gradient7)" fill-rule="evenodd" stroke="none"/>
      <path d="M25.15 -3.9 L25.2 -3.5 25.15 -0.75 Q24.85 1.1 21.8 2.4 21.7 3.0 23.5 3.3 L22.5 3.4 Q20.7 3.2 18.9 1.1 L19.0 1.1 19.25 0.9 22.0 1.25 Q24.1 0.05 24.8 -1.95 L25.1 -3.55 25.1 -3.9 25.15 -3.9 M11.15 0.45 Q8.6 3.9 6.15 3.45 L6.0 3.4 6.8 3.25 7.6 2.85 7.7 2.5 Q4.7 1.2 4.4 -0.65 4.2 -2.25 4.4 -3.55 L4.45 -4.0 4.5 -3.5 Q4.65 -0.3 7.5 1.35 L9.45 1.2 11.15 0.45" fill="#968873" fill-rule="evenodd" stroke="none"/>
      <path d="M25.4 17.45 L25.8 17.7 25.45 18.95 Q24.7 22.2 21.2 23.85 L20.35 24.2 20.0 24.3 19.55 24.25 19.35 24.45 Q14.95 25.05 9.2 24.3 L9.2 24.35 Q5.55 24.05 3.65 21.95 2.8 20.95 2.35 19.65 L2.3 19.6 1.65 17.85 1.9 17.65 Q2.4 15.75 4.15 14.75 L4.6 16.1 5.95 20.55 10.8 19.15 15.0 21.3 19.9 18.15 23.0 19.8 Q23.6 18.05 23.65 16.75 L23.7 14.45 Q24.9 15.4 25.4 17.45" fill="url(#gradient8)" fill-rule="evenodd" stroke="none"/>
      <path d="M2.35 19.65 L0.7 19.55 -1.05 19.35 -2.95 19.05 -2.05 16.9 -1.95 13.4 -1.95 9.25 Q-2.15 7.65 -3.3 5.25 L-4.55 3.1 -5.7 1.1 -6.3 -0.75 -6.85 -1.65 -6.8 -1.65 -4.05 -1.4 -3.95 -0.6 Q-3.65 0.2 -2.8 0.55 L-1.5 3.55 -1.45 3.6 -1.2 3.85 -1.25 3.75 0.0 4.9 Q2.05 11.65 1.9 17.65 L1.65 17.85 2.3 19.6 2.35 19.65" fill="url(#gradient9)" fill-rule="evenodd" stroke="none"/>
      <path d="M25.5 16.55 L25.4 17.45 Q24.9 15.4 23.7 14.45 L23.65 16.75 Q19.65 13.8 12.75 16.15 9.3 15.3 4.6 16.1 L4.15 14.75 Q2.4 15.75 1.9 17.65 2.05 11.65 0.0 4.9 1.3 6.15 2.3 8.0 L2.5 8.4 4.15 6.5 7.25 9.55 10.9 7.1 14.1 11.05 17.3 7.1 21.75 10.0 23.4 7.55 25.05 8.15 27.3 4.2 26.45 8.6 26.0 11.0 Q25.5 13.9 25.5 16.55 M27.0 5.15 L26.85 5.6 26.9 5.45 27.0 5.15 27.3 4.2 27.0 5.15" fill="url(#gradient10)" fill-rule="evenodd" stroke="none"/>
      <path d="M22.05 16.65 Q21.55 16.3 21.05 16.35 L20.7 16.7 Q19.05 15.4 17.0 16.35 L16.65 16.75 Q19.6 17.85 22.95 17.85 L23.15 17.65 Q22.75 17.0 22.05 16.65 M23.65 16.75 Q23.6 18.05 23.0 19.8 L19.9 18.15 15.0 21.3 10.8 19.15 5.95 20.55 4.6 16.1 Q9.3 15.3 12.75 16.15 14.75 16.6 16.15 18.0 14.75 16.6 12.75 16.15 19.65 13.8 23.65 16.75 M10.1 18.4 L16.15 18.85 Q15.6 17.9 14.45 17.7 13.35 17.5 12.35 17.1 L12.25 17.1 Q10.55 16.3 8.65 16.5 7.25 16.4 6.0 17.25 7.55 18.6 10.1 18.4" fill="#6a0101" fill-rule="evenodd" stroke="none"/>
      <path d="M-50.2 -17.05 L-50.1 -17.05 -49.1 -17.1 Q-48.3 -17.25 -48.0 -16.4 -47.7 -15.65 -49.05 -15.05 L-50.1 -14.6 -52.2 -13.6 Q-53.4 -13.05 -54.4 -12.8 L-55.85 -12.4 Q-56.9 -12.2 -57.1 -13.1 L-56.75 -13.65 Q-55.55 -14.7 -50.2 -17.05" fill="#560c0c" fill-rule="evenodd" stroke="none"/>
      <path d="M19.65 -14.4 Q26.05 -17.95 22.7 -21.25 22.05 -22.05 22.95 -22.25 23.3 -22.6 24.95 -21.1 28.55 -17.3 24.65 -12.2 L24.35 -11.85 24.05 -11.85 Q22.05 -11.5 19.65 -14.4 M26.8 -11.6 L31.1 -14.25 Q30.05 -16.45 29.75 -19.7 29.65 -22.0 31.0 -21.4 36.1 -19.15 39.6 -12.65 L41.1 -9.45 41.45 -8.5 41.9 -6.8 41.75 -6.0 41.35 -5.3 Q40.6 -4.3 38.65 -3.55 L38.55 -3.55 37.8 -3.25 34.65 -2.3 31.1 -1.7 30.95 -1.7 31.0 -2.05 Q31.4 -6.2 30.0 -8.15 L29.3 -9.1 27.95 -10.65 26.8 -11.6 M34.65 -8.65 L33.95 -9.55 Q32.7 -11.15 31.1 -14.25 32.7 -11.15 33.95 -9.55 L34.65 -8.65" fill="url(#gradient11)" fill-rule="evenodd" stroke="none"/>
      <path d="M-14.75 -7.7 L-14.25 -9.15 Q-10.9 -18.0 -5.0 -21.05 -3.65 -21.7 -3.6 -19.4 -3.8 -16.15 -4.75 -13.9 L-0.35 -11.55 Q0.45 -10.45 0.1 -9.05 L-1.0 -5.75 -1.75 -4.25 -4.05 -1.4 -6.8 -1.65 -6.85 -1.65 -10.4 -2.4 -11.3 -2.7 -11.65 -2.8 Q-13.0 -3.2 -13.8 -3.75 L-14.8 -4.7 Q-15.65 -5.9 -14.85 -7.55 L-14.75 -7.7 M2.6 -11.9 Q-1.05 -16.8 2.45 -20.6 4.1 -22.1 4.45 -21.75 5.3 -21.55 4.65 -20.75 1.35 -17.45 7.55 -14.6 L7.9 -14.45 Q9.75 -12.1 3.15 -11.35 L3.05 -11.35 2.6 -11.9 M-6.6 -8.7 L-6.45 -8.95 Q-5.25 -11.75 -4.75 -13.9 -5.25 -11.75 -6.45 -8.95 L-6.6 -8.7" fill="url(#gradient12)" fill-rule="evenodd" stroke="none"/>
      <path d="M22.05 16.65 Q22.75 17.0 23.15 17.65 L22.95 17.85 Q19.6 17.85 16.65 16.75 L17.0 16.35 Q19.05 15.4 20.7 16.7 L21.05 16.35 Q21.55 16.3 22.05 16.65 M10.1 18.4 Q7.55 18.6 6.0 17.25 7.25 16.4 8.65 16.5 10.55 16.3 12.25 17.1 L12.35 17.1 Q13.35 17.5 14.45 17.7 15.6 17.9 16.15 18.85 L10.1 18.4" fill="#870e0e" fill-rule="evenodd" stroke="none"/>
      <path d="M19.45 -14.3 L19.65 -14.4" fill="none" stroke="#ffffff" stroke-linecap="round" stroke-linejoin="round" stroke-opacity="0.4" stroke-width="0.7000000000000001"/>
      <path d="M24.65 -12.2 L25.85 -12.35 26.8 -11.6 M39.6 -12.65 L41.65 -13.0 Q51.25 -14.35 55.55 -11.9 56.7 -11.25 57.45 -10.35 58.85 -8.65 59.7 -6.75 61.75 -2.2 60.65 3.7 L60.3 5.15 59.7 6.65 Q58.0 10.3 53.9 12.15 M53.6 12.3 L53.25 12.45 52.7 12.65 51.1 13.2 50.9 13.25 Q46.6 14.25 42.8 12.1 37.55 14.85 34.25 14.35 M29.55 14.2 L28.2 15.35 26.65 16.15 26.1 16.35 25.5 16.55 M2.35 19.65 L0.7 19.55 -1.05 19.35 -2.95 19.05 -4.35 18.75 -10.7 17.4 -11.5 17.0 -13.6 15.45 M-18.3 15.6 Q-21.25 16.05 -25.7 13.95 L-26.8 13.4 Q-28.45 14.15 -30.7 14.45 -37.45 15.35 -49.55 12.6 L-50.0 12.45 -50.35 12.3 M-50.65 12.15 Q-53.0 11.05 -54.55 9.45 -56.75 7.1 -57.4 3.7 -58.75 -3.45 -55.45 -8.6 L-54.7 -9.7 -54.55 -9.9 -54.2 -10.35 -54.05 -10.5 -53.7 -10.85 Q-53.65 -11.75 -54.0 -12.3 L-58.15 -10.0 Q-60.5 -12.9 -57.75 -14.4 L-58.35 -14.9 -50.7 -18.6 -50.2 -17.05 -50.1 -17.05 -49.1 -17.1 Q-48.3 -17.25 -48.0 -16.4 -47.7 -15.65 -49.05 -15.05 L-48.95 -14.3 Q-49.45 -14.05 -50.0 -13.85 L-49.55 -12.95 -46.95 -13.35 -43.55 -13.45 -40.5 -13.25 -38.4 -13.0 -38.15 -12.95 -22.35 -9.95 Q-20.5 -9.05 -19.75 -6.7 M-0.35 -11.55 L0.55 -12.25 Q1.2 -12.75 2.6 -11.9 M7.55 -14.6 Q12.55 -15.8 19.45 -14.5 L19.45 -14.3 M-1.6 0.7 L-1.7 0.85 -2.8 0.55 Q-3.65 0.2 -3.95 -0.6 L-4.05 -1.4 M30.95 -1.7 L30.95 -0.95 30.45 -0.1 Q29.85 0.5 28.7 0.7 M-54.4 -12.8 Q-53.4 -13.05 -52.2 -13.6 L-50.1 -14.6 -49.05 -15.05 M-56.75 -13.65 L-57.4 -14.1 Q-59.15 -12.65 -58.0 -10.8 L-54.4 -12.8 -55.85 -12.4 Q-56.9 -12.2 -57.1 -13.1 L-56.75 -13.65 Q-55.55 -14.7 -50.2 -17.05 M-57.4 -14.1 L-57.75 -14.4 M-49.55 -12.95 Q-51.15 -12.55 -52.3 -11.9 L-53.7 -10.85 M-50.0 -13.85 L-54.0 -12.3 M-26.8 13.4 L-26.85 13.35 M-26.4 13.2 L-26.8 13.4" fill="none" stroke="#000000" stroke-linecap="round" stroke-linejoin="round" stroke-opacity="0.4" stroke-width="0.7000000000000001"/>
      <path d="M19.45 -14.5 L19.65 -14.4 M3.15 -11.35 L3.4 -10.1 M0.0 -2.45 Q0.1 -1.3 -1.6 0.7 M28.7 0.7 L28.5 -1.15 M28.3 -2.1 L28.3 -2.2 M28.25 -2.25 L27.9 -3.6 27.45 -5.1 27.3 -5.45 25.15 -3.9 25.1 -3.9 M18.9 1.1 Q18.05 1.05 17.75 -0.4 19.45 -4.5 21.55 -7.25 22.75 -6.65 23.8 -5.1 L22.25 -8.15 24.35 -10.2 24.4 -10.25 25.4 -10.55 26.55 -10.25 29.8 -7.75 27.7 -5.8 27.45 -5.55 27.3 -5.45 M23.2 -10.5 Q23.3 -11.35 24.05 -11.85 M2.0 -7.1 Q3.05 -9.05 4.7 -10.1 L6.75 -10.15 Q10.65 -7.05 13.4 -0.35 13.1 1.2 12.15 1.15 8.2 -2.5 3.7 -5.4 L2.85 -6.4 2.0 -7.1 M19.25 0.9 L19.0 1.1 18.9 1.1 M44.1 4.05 Q46.0 5.05 47.0 7.75 M48.6 -9.25 Q47.1 -8.5 45.6 -5.7 M51.1 1.3 Q52.8 0.65 54.15 1.75 M48.35 3.55 L48.5 3.85 Q49.05 5.15 49.25 6.75 L49.35 8.2 M39.7 2.6 L39.6 2.75 38.8 5.45 38.25 3.65 M42.8 12.1 L42.85 12.05 38.15 10.1 M39.7 2.4 L39.6 2.75 M32.25 5.15 L31.7 4.75 M33.2 7.7 Q33.35 7.0 33.1 6.4 L32.6 5.55 M33.25 7.7 L33.2 7.7 33.2 7.8 M33.25 7.7 Q35.85 5.95 35.45 3.85 L35.0 2.65 M-22.3 -8.1 Q-22.25 -9.1 -22.35 -9.95 M-41.2 -1.7 Q-41.9 -1.55 -42.55 -1.05 M-32.7 -8.05 Q-31.7 -7.55 -30.7 -6.15 L-29.65 -4.45 M-15.15 -0.4 Q-12.65 -0.6 -11.1 1.15 M-19.65 4.85 Q-19.95 7.65 -17.25 8.95 L-16.8 9.3 Q-14.85 10.75 -12.7 10.3 M-23.65 4.0 L-23.75 3.85 M-24.1 5.7 Q-24.2 6.6 -23.35 7.1 M-35.15 2.55 L-35.8 2.4 -36.85 2.35 M-32.4 4.8 Q-33.1 6.25 -33.3 8.0 L-33.4 9.45 M-28.15 5.3 Q-29.75 6.15 -30.7 8.2 L-31.05 9.0 M-26.85 13.35 L-26.4 13.2 Q-26.3 13.1 -25.7 12.9 L-22.2 11.35" fill="none" stroke="#000000" stroke-linecap="round" stroke-linejoin="round" stroke-opacity="0.2" stroke-width="0.4"/>
      <path d="M53.9 12.15 L53.6 12.3 M25.8 17.7 L25.45 18.95 Q24.7 22.2 21.2 23.85 L20.35 24.2 20.0 24.3 M19.35 24.45 Q14.95 25.05 9.2 24.3 M9.2 24.35 Q5.55 24.05 3.65 21.95 2.8 20.95 2.35 19.65 L2.3 19.6 1.65 17.85 M-50.35 12.3 L-50.65 12.15 M-2.8 0.55 L-1.5 3.55 -1.45 3.6 -1.2 3.85 -1.25 3.75 -1.35 3.55 M26.45 8.6 L26.55 8.15 27.25 5.75 27.3 5.55 M27.25 5.7 L28.45 1.55 28.7 0.7 M12.75 16.15 Q14.75 16.6 16.15 18.0 M12.75 16.15 Q9.3 15.3 4.6 16.1 M23.65 16.75 Q19.65 13.8 12.75 16.15" fill="none" stroke="#000000" stroke-linecap="round" stroke-linejoin="round" stroke-opacity="0.4" stroke-width="0.4"/>
      <path d="M19.65 -14.4 Q26.05 -17.95 22.7 -21.25 22.05 -22.05 22.95 -22.25 23.3 -22.6 24.95 -21.1 28.55 -17.3 24.65 -12.2 L24.35 -11.85 24.05 -11.85 Q22.05 -11.5 19.65 -14.4 M26.8 -11.6 L31.1 -14.25 Q30.05 -16.45 29.75 -19.7 29.65 -22.0 31.0 -21.4 36.1 -19.15 39.6 -12.65 L41.1 -9.45 41.45 -8.5 41.9 -6.8 41.75 -6.0 43.9 -3.45 43.9 -0.95 43.9 -0.65 Q44.4 1.25 43.9 1.6 44.3 2.8 44.15 3.85 L44.1 4.05 44.05 4.2 43.1 7.3 42.45 4.85 Q41.3 5.1 40.05 4.45 L39.7 2.6 39.7 2.4 Q39.9 0.85 39.7 -0.4 40.2 -0.25 40.15 -1.05 39.6 -2.6 38.65 -3.55 40.6 -4.3 41.35 -5.3 L41.75 -6.0 M34.25 14.35 L33.95 14.65 Q31.15 16.6 29.85 14.65 L29.55 14.2 Q31.3 12.4 32.5 9.45 L32.8 8.65 33.15 7.85 33.2 7.8 33.25 7.7 34.45 7.75 Q37.45 7.7 39.3 5.85 L39.9 6.3 Q40.3 7.0 39.7 8.4 L38.15 10.1 Q36.85 12.6 34.25 14.35 M25.5 16.55 L25.4 17.45 25.8 17.7 M-13.6 15.45 L-13.9 15.9 Q-15.2 17.85 -18.0 15.9 L-18.3 15.6 Q-20.9 13.85 -22.2 11.35 L-23.75 9.65 Q-24.35 8.25 -23.95 7.55 L-23.35 7.1 Q-21.5 8.95 -18.5 9.0 -19.7 10.25 -21.25 10.45 -23.05 9.1 -23.95 7.55 M-19.75 -6.7 L-18.55 -5.65 -16.7 -7.45 -14.75 -7.7 -14.25 -9.15 Q-10.9 -18.0 -5.0 -21.05 -3.65 -21.7 -3.6 -19.4 -3.8 -16.15 -4.75 -13.9 L-0.35 -11.55 Q0.45 -10.45 0.1 -9.05 L-1.0 -5.75 -1.75 -4.25 -4.05 -1.4 -6.8 -1.65 -6.85 -1.65 -10.4 -2.4 -11.3 -2.7 -11.65 -2.8 Q-13.0 -3.2 -13.8 -3.75 L-14.1 -3.45 -15.15 -0.4 Q-17.9 2.05 -19.65 4.85 L-22.3 4.9 -21.05 1.15 Q-22.2 -0.35 -23.75 0.85 -23.95 2.1 -23.75 3.65 L-23.65 4.0 -22.85 6.7 -22.3 4.9 M2.6 -11.9 Q-1.05 -16.8 2.45 -20.6 4.1 -22.1 4.45 -21.75 5.3 -21.55 4.65 -20.75 1.35 -17.45 7.55 -14.6 L7.9 -14.45 Q9.75 -12.1 3.15 -11.35 L3.05 -11.35 2.6 -11.9 M-1.25 3.75 L0.0 4.9 Q1.3 6.15 2.3 8.0 L2.5 8.4 4.15 6.5 7.25 9.55 10.9 7.1 14.1 11.05 17.3 7.1 21.75 10.0 23.4 7.55 25.05 8.15 27.3 4.2 26.45 8.6 26.0 11.0 Q25.5 13.9 25.5 16.55 M26.8 -11.6 L27.95 -10.65 29.3 -9.1 30.0 -8.15 Q31.4 -6.2 31.0 -2.05 L30.95 -1.7 31.1 -1.7 34.65 -2.3 37.8 -3.25 38.55 -3.55 38.65 -3.55 M31.1 -14.25 Q32.7 -11.15 33.95 -9.55 L34.65 -8.65 M31.1 -1.7 L31.1 -1.65 Q33.75 0.7 34.75 2.25 L35.0 2.65 35.6 3.6 38.25 3.65 37.0 -0.1 Q38.15 -1.6 39.7 -0.4 M50.6 -0.95 Q51.2 -1.5 50.55 -1.95 49.9 -2.4 49.1 -3.5 L45.6 -5.7 43.8 -6.8 42.5 -6.8 41.9 -6.8 M48.35 3.55 Q47.25 1.2 45.0 -0.3 L43.9 -0.95 M51.1 1.3 L51.7 3.85 51.7 3.9 51.65 3.85 50.5 2.9 48.35 3.55 M50.5 2.9 L48.3 0.25 Q49.0 -0.95 50.6 -0.95 L51.1 1.3 M42.45 4.85 L42.15 1.85 43.9 1.6 M39.9 6.3 Q39.0 7.85 37.2 9.2 35.65 9.0 34.45 7.75 M27.0 5.15 L26.9 5.45 26.85 5.6 27.0 5.15 27.3 4.2 M26.0 11.0 Q26.2 9.6 26.55 8.15 M25.4 17.45 Q24.9 15.4 23.7 14.45 L23.65 16.75 Q23.6 18.05 23.0 19.8 L19.9 18.15 15.0 21.3 10.8 19.15 5.95 20.55 4.6 16.1 4.15 14.75 Q2.4 15.75 1.9 17.65 L1.65 17.85 M0.0 4.9 Q2.05 11.65 1.9 17.65 M-26.6 -5.55 L-25.15 -5.55 -23.7 -7.95 -23.35 -7.95 -22.3 -8.1 -21.4 -8.2 -19.75 -6.7 M-29.65 -4.45 L-27.85 -5.55 -26.6 -5.55 M-29.65 -4.45 L-33.15 -2.25 -34.6 -0.7 Q-35.25 -0.25 -34.65 0.3 -33.05 0.3 -32.35 1.5 L-34.55 4.15 -32.4 4.8 Q-31.75 3.45 -30.7 2.4 L-29.05 1.0 -27.95 0.3 -27.95 -2.2 -25.15 -5.55 M-14.75 -7.7 L-14.85 -7.55 Q-15.65 -5.9 -14.8 -4.7 L-13.8 -3.75 M-4.75 -13.9 Q-5.25 -11.75 -6.45 -8.95 L-6.6 -8.7 M-18.55 -5.65 L-21.8 -3.05 Q-23.4 -2.0 -24.2 0.2 -24.25 1.0 -23.75 0.85 M-1.25 3.75 L-1.45 3.6 M-13.6 15.45 Q-15.35 13.65 -16.55 10.65 L-16.85 9.9 -17.2 9.1 -17.25 8.95 -18.5 9.0 M-23.75 3.85 L-24.1 5.7 Q-24.9 6.15 -25.7 6.2 L-26.5 6.1 -26.2 3.1 -27.95 2.85 Q-28.45 2.5 -27.95 0.6 L-27.95 0.3 M-23.75 3.85 L-23.75 3.65 M-27.95 2.85 Q-28.4 4.15 -28.15 5.3 L-28.1 5.45 -27.15 8.55 -26.5 6.1 M-34.65 0.3 L-35.15 2.55 -35.75 5.15 -34.55 4.15" fill="none" stroke="#000000" stroke-linecap="round" stroke-linejoin="round" stroke-opacity="0.5019608" stroke-width="0.6000000000000001"/>
      <path d="M17.35 -8.45 L15.5 -5.05 13.95 -8.5 10.0 -8.6 13.35 -9.85 12.05 -12.75 15.65 -10.8 19.3 -12.2 17.9 -9.6 20.2 -8.35 17.35 -8.45 13.95 -8.5 13.35 -9.85 15.65 -10.8 17.9 -9.6 17.35 -8.45" fill="none" stroke="#ff0000" stroke-linecap="round" stroke-linejoin="round" stroke-width="0.6000000000000001"/>
      <path d="M15.6 -6.7 Q19.1 -1.45 19.1 3.55 19.1 8.6 15.6 10.45 12.05 12.25 7.0 9.85 2.05 7.45 -1.5 2.2 -5.05 -3.05 -5.05 -8.05 -5.05 -13.1 -1.5 -14.95 2.05 -16.75 7.0 -14.35 12.05 -11.95 15.6 -6.7" fill="url(#gradient13)" fill-rule="evenodd" stroke="none"/>
      <path d="M4.45 -4.05 Q7.85 -2.9 11.15 0.45 L9.45 1.2 7.5 1.35 Q4.65 -0.3 4.5 -3.5 L4.45 -4.0 4.45 -4.05" fill="url(#gradient14)" fill-rule="evenodd" stroke="none"/>
      <path d="M4.45 -4.05 Q7.85 -2.9 11.15 0.45 L9.45 1.2 7.5 1.35 Q4.65 -0.3 4.5 -3.5 L4.45 -4.0 4.45 -4.05 Z" fill="none" stroke="#000000" stroke-linecap="round" stroke-linejoin="round" stroke-opacity="0.7019608" stroke-width="0.7000000000000001"/>
      <path d="M13.85 -6.85 Q17.45 -11.95 22.55 -14.05 27.6 -16.1 31.2 -14.0 34.8 -11.9 34.8 -6.75 34.8 -1.65 31.2 3.4 27.6 8.45 22.55 10.55 17.45 12.65 13.85 10.55 10.25 8.45 10.25 3.3 10.25 -1.8 13.85 -6.85" fill="url(#gradient15)" fill-rule="evenodd" stroke="none"/>
      <path d="M24.8 -1.95 Q24.1 0.05 22.0 1.25 L19.25 0.9 Q22.05 -1.7 25.1 -3.9 L25.1 -3.55 24.8 -1.95" fill="url(#gradient16)" fill-rule="evenodd" stroke="none"/>
      <path d="M24.8 -1.95 Q24.1 0.05 22.0 1.25 L19.25 0.9 Q22.05 -1.7 25.1 -3.9 L25.1 -3.55 24.8 -1.95 Z" fill="none" stroke="#000000" stroke-linecap="round" stroke-linejoin="round" stroke-opacity="0.7019608" stroke-width="0.7000000000000001"/>
    </g>
    <linearGradient gradientTransform="matrix(0.0, 0.0412, -0.0198, 1.0E-4, 13.35, -3.7)" gradientUnits="userSpaceOnUse" id="gradient0" spreadMethod="pad" x1="-819.2" x2="819.2">
      <stop offset="0.49411764705882355" stop-color="#b4b4b4"/>
      <stop offset="1.0" stop-color="#e0a449"/>
    </linearGradient>
    <linearGradient gradientTransform="matrix(0.0, 0.0087, -0.0063, 0.0, -43.85, 1.2)" gradientUnits="userSpaceOnUse" id="gradient1" spreadMethod="pad" x1="-819.2" x2="819.2">
      <stop offset="0.027450980392156862" stop-color="#b49494"/>
      <stop offset="0.8470588235294118" stop-color="#696969"/>
    </linearGradient>
    <linearGradient gradientTransform="matrix(0.0, 0.05, -0.0197, 0.0, 1.6, 19.8)" gradientUnits="userSpaceOnUse" id="gradient2" spreadMethod="pad" x1="-819.2" x2="819.2">
      <stop offset="0.0" stop-color="#d37e7e"/>
      <stop offset="0.32941176470588235" stop-color="#bd0505"/>
      <stop offset="1.0" stop-color="#6a0101"/>
    </linearGradient>
    <linearGradient gradientTransform="matrix(-0.0064, 4.0E-4, -4.0E-4, -0.0057, 34.8, 10.95)" gradientUnits="userSpaceOnUse" id="gradient3" spreadMethod="pad" x1="-819.2" x2="819.2">
      <stop offset="0.13333333333333333" stop-color="#b48e8e"/>
      <stop offset="0.8470588235294118" stop-color="#696969"/>
    </linearGradient>
    <linearGradient gradientTransform="matrix(0.0158, -0.0042, 0.0051, 0.019, -1.8, 2.35)" gradientUnits="userSpaceOnUse" id="gradient4" spreadMethod="pad" x1="-819.2" x2="819.2">
      <stop offset="0.0" stop-color="#ac0404"/>
      <stop offset="0.7686274509803922" stop-color="#6a0101"/>
    </linearGradient>
    <linearGradient gradientTransform="matrix(0.0, 0.05, -0.0197, 0.0, 14.3, 21.05)" gradientUnits="userSpaceOnUse" id="gradient5" spreadMethod="pad" x1="-819.2" x2="819.2">
      <stop offset="0.0" stop-color="#d37e7e"/>
      <stop offset="0.32941176470588235" stop-color="#bd0505"/>
      <stop offset="1.0" stop-color="#6a0101"/>
    </linearGradient>
    <linearGradient gradientTransform="matrix(0.0, 0.0087, -0.0063, 0.0, -31.15, 2.45)" gradientUnits="userSpaceOnUse" id="gradient6" spreadMethod="pad" x1="-819.2" x2="819.2">
      <stop offset="0.027450980392156862" stop-color="#b49494"/>
      <stop offset="0.8470588235294118" stop-color="#696969"/>
    </linearGradient>
    <linearGradient gradientTransform="matrix(0.0064, 0.0, 0.0, 0.0057, -18.85, 12.2)" gradientUnits="userSpaceOnUse" id="gradient7" spreadMethod="pad" x1="-819.2" x2="819.2">
      <stop offset="0.027450980392156862" stop-color="#b49999"/>
      <stop offset="0.8470588235294118" stop-color="#696969"/>
    </linearGradient>
    <linearGradient gradientTransform="matrix(0.0, 0.0412, -0.0198, 1.0E-4, 13.35, 3.1)" gradientUnits="userSpaceOnUse" id="gradient8" spreadMethod="pad" x1="-819.2" x2="819.2">
      <stop offset="0.49411764705882355" stop-color="#b4b4b4"/>
      <stop offset="1.0" stop-color="#e0a449"/>
    </linearGradient>
    <linearGradient gradientTransform="matrix(0.0, 0.05, -0.0197, 0.0, 14.3, 21.05)" gradientUnits="userSpaceOnUse" id="gradient9" spreadMethod="pad" x1="-819.2" x2="819.2">
      <stop offset="0.0" stop-color="#ac0404"/>
      <stop offset="0.7686274509803922" stop-color="#6a0101"/>
    </linearGradient>
    <linearGradient gradientTransform="matrix(0.0253, -0.0023, 0.001, 0.0104, 21.65, 13.3)" gradientUnits="userSpaceOnUse" id="gradient10" spreadMethod="pad" x1="-819.2" x2="819.2">
      <stop offset="0.0" stop-color="#000000"/>
      <stop offset="1.0" stop-color="#666666"/>
    </linearGradient>
    <linearGradient gradientTransform="matrix(-0.0029, -0.0169, 0.0119, -0.0019, 34.0, -18.0)" gradientUnits="userSpaceOnUse" id="gradient11" spreadMethod="pad" x1="-819.2" x2="819.2">
      <stop offset="0.0" stop-color="#cc2323"/>
      <stop offset="0.2823529411764706" stop-color="#ff8c00"/>
      <stop offset="0.4745098039215686" stop-color="#ffd200"/>
      <stop offset="0.6627450980392157" stop-color="#ffea8c"/>
      <stop offset="1.0" stop-color="#ffffff"/>
    </linearGradient>
    <linearGradient gradientTransform="matrix(0.004, -0.0148, 0.0116, 0.003, -63.75, -32.2)" gradientUnits="userSpaceOnUse" id="gradient12" spreadMethod="pad" x1="-819.2" x2="819.2">
      <stop offset="0.0" stop-color="#cc2323"/>
      <stop offset="0.2823529411764706" stop-color="#ff8c00"/>
      <stop offset="0.4745098039215686" stop-color="#ffd200"/>
      <stop offset="0.6392156862745098" stop-color="#ffefa6"/>
      <stop offset="0.8117647058823529" stop-color="#ffffff"/>
    </linearGradient>
    <radialGradient cx="0" cy="0" gradientTransform="matrix(0.0149, 0.0072, 0.0, 0.0149, 7.05, -2.25)" gradientUnits="userSpaceOnUse" id="gradient13" r="819.2" spreadMethod="pad">
      <stop offset="0.0" stop-color="#ff9900" stop-opacity="0.6509804"/>
      <stop offset="1.0" stop-color="#ff6600" stop-opacity="0.0"/>
    </radialGradient>
    <linearGradient gradientTransform="matrix(0.0, 0.0131, -0.0061, 0.0, 15.5, 6.1)" gradientUnits="userSpaceOnUse" id="gradient14" spreadMethod="pad" x1="-819.2" x2="819.2">
      <stop offset="0.17254901960784313" stop-color="#ffff00"/>
      <stop offset="0.36470588235294116" stop-color="#ff9a00"/>
    </linearGradient>
    <radialGradient cx="0" cy="0" gradientTransform="matrix(-0.0151, 0.0062, 0.0, 0.0151, 22.5, -1.7)" gradientUnits="userSpaceOnUse" id="gradient15" r="819.2" spreadMethod="pad">
      <stop offset="0.0" stop-color="#ff9900" stop-opacity="0.6509804"/>
      <stop offset="1.0" stop-color="#ff6600" stop-opacity="0.0"/>
    </radialGradient>
    <linearGradient gradientTransform="matrix(0.0, 0.0131, -0.0061, 0.0, 15.5, 6.1)" gradientUnits="userSpaceOnUse" id="gradient16" spreadMethod="pad" x1="-819.2" x2="819.2">
      <stop offset="0.17254901960784313" stop-color="#ffff00"/>
      <stop offset="0.36470588235294116" stop-color="#ff9a00"/>
    </linearGradient>
  </defs>
</svg>
