<?xml version="1.0" encoding="UTF-8" standalone="no"?>
<svg xmlns:xlink="http://www.w3.org/1999/xlink" height="531.5px" width="460.6px" xmlns="http://www.w3.org/2000/svg">
  <g transform="matrix(1.0, 0.0, 0.0, 1.0, 193.65, 334.05)">
    <use height="69.9" transform="matrix(1.0, 0.0, 0.0, 1.0, -55.2, -70.4)" width="103.6" xlink:href="#shape0"/>
  </g>
  <defs>
    <g id="shape0" transform="matrix(1.0, 0.0, 0.0, 1.0, 55.2, 70.4)">
      <path d="M-8.3 -66.3 L-8.3 -66.45 -6.7 -66.65 -6.6 -65.95 -8.3 -66.3 M-11.45 -58.7 L-9.95 -59.25 -9.8 -57.25 -11.45 -58.7 M-6.1 -40.2 L-9.7 -40.8 -10.2 -42.3 -10.65 -43.95 Q-12.7 -45.3 -13.95 -47.55 -12.8 -50.05 -10.3 -51.0 L-9.55 -53.4 -7.95 -53.6 -7.8 -53.6 -0.2 -53.85 9.25 -53.0 9.6 -53.0 10.2 -50.65 Q12.6 -49.5 13.7 -47.0 12.35 -44.65 10.1 -43.3 L9.75 -41.4 9.5 -40.65 4.0 -40.3 2.4 -40.1 0.0 -40.3 -6.1 -40.2 M-10.7 -49.55 L-10.3 -51.0 -10.7 -49.55 M-10.8 -46.0 L-10.65 -43.95 -10.8 -46.0 M10.25 -49.05 L10.2 -50.65 10.25 -49.05 M10.35 -45.45 L10.1 -43.3 10.35 -45.45" fill="#c4b1a0" fill-rule="evenodd" stroke="none"/>
      <path d="M11.35 -62.3 L11.3 -63.55 13.2 -62.2 12.1 -62.2 11.35 -62.3 12.1 -62.2 13.2 -62.2 14.3 -60.8 Q13.1 -61.45 12.1 -62.2 L11.35 -61.8 11.35 -62.3 M9.5 -40.65 L9.45 -40.35 7.0 -39.95 4.0 -40.3 9.5 -40.65" fill="#f5dcc4" fill-rule="evenodd" stroke="none"/>
      <path d="M-30.35 -65.8 Q-26.1 -66.95 -21.5 -67.2 L-8.3 -66.3 -6.6 -65.95 -4.6 -65.55 -3.1 -65.05 -2.85 -64.95 Q4.1 -62.6 11.35 -62.3 L11.35 -61.8 Q7.0 -59.35 3.0 -59.95 -1.35 -60.6 -4.45 -63.2 L-5.85 -61.95 Q-7.8 -60.25 -9.95 -59.25 L-11.45 -58.7 -13.8 -58.2 Q-18.5 -59.1 -20.9 -61.55 L-22.15 -63.1 -22.75 -60.7 Q-24.7 -54.65 -28.85 -52.25 -30.2 -53.85 -30.85 -55.4 -31.85 -57.6 -31.85 -59.75 -31.85 -62.55 -30.35 -65.8" fill="#f0e4bb" fill-rule="evenodd" stroke="none"/>
      <path d="M42.15 -59.75 Q43.9 -57.35 45.3 -53.85 51.25 -28.6 44.05 -13.7 L42.65 -11.6 Q40.3 -16.4 35.35 -18.05 33.75 -17.4 32.6 -16.55 30.4 -14.95 29.75 -12.85 L26.9 -14.55 27.35 -14.85 Q39.35 -23.25 39.35 -34.25 39.35 -40.05 34.35 -48.65 L33.0 -50.9 Q38.05 -52.9 42.15 -59.75 M-47.65 -11.55 L-49.0 -13.35 Q-63.2 -41.95 -42.8 -59.75 -39.4 -54.85 -33.45 -53.0 -40.9 -45.15 -40.9 -33.45 -40.9 -26.4 -37.65 -22.55 L-35.45 -20.5 Q-43.65 -17.55 -47.65 -11.55 M-22.75 -60.7 L-22.15 -63.1 -20.9 -61.55 -22.75 -60.7 M24.25 -59.25 L25.15 -59.75 25.75 -58.5 24.25 -59.25" fill="#780f41" fill-rule="evenodd" stroke="none"/>
      <path d="M13.2 -62.2 L24.25 -63.1 31.0 -64.8 Q34.25 -65.45 36.95 -64.3 36.0 -57.5 32.0 -52.25 L31.45 -51.6 Q27.6 -54.6 25.75 -58.5 L25.15 -59.75 24.25 -59.25 Q22.55 -58.6 19.8 -58.35 16.65 -59.35 14.3 -60.8 L13.2 -62.2 M38.3 -7.75 Q34.1 -5.2 28.0 -4.4 -1.7 0.0 -33.7 -4.75 -34.2 -6.7 -34.2 -8.75 -34.2 -14.05 -31.2 -16.8 L-30.6 -17.2 -30.1 -17.65 -28.95 -16.4 Q-27.0 -13.95 -25.6 -11.05 -23.9 -12.3 -22.0 -13.1 -18.3 -14.85 -13.9 -15.55 -6.55 -13.1 -2.7 -7.85 1.9 -11.7 8.7 -14.45 14.05 -12.6 17.7 -9.7 L18.3 -9.2 19.3 -10.35 20.4 -11.45 Q22.8 -13.7 26.15 -14.95 L26.9 -14.55 29.75 -12.85 Q30.4 -14.95 32.6 -16.55 L34.6 -15.2 Q38.35 -12.45 38.35 -8.85 L38.3 -7.75 M32.85 -10.45 L29.75 -12.85 32.85 -10.45" fill="#f0e6c7" fill-rule="evenodd" stroke="none"/>
      <path d="M36.95 -64.3 Q39.8 -63.05 42.15 -59.75 38.05 -52.9 33.0 -50.9 L32.5 -50.75 31.45 -51.6 32.0 -52.25 Q36.0 -57.5 36.95 -64.3 M42.65 -11.6 Q40.8 -9.35 38.3 -7.75 L38.35 -8.85 Q38.35 -12.45 34.6 -15.2 L32.6 -16.55 Q33.75 -17.4 35.35 -18.05 40.3 -16.4 42.65 -11.6 M-33.7 -4.75 L-35.55 -5.1 Q-43.15 -6.2 -47.65 -11.55 -43.65 -17.55 -35.45 -20.5 L-34.05 -21.0 -31.2 -18.7 -30.1 -17.65 -30.6 -17.2 -31.2 -16.8 Q-34.2 -14.05 -34.2 -8.75 -34.2 -6.7 -33.7 -4.75 M-42.8 -59.75 L-40.55 -61.6 Q-35.8 -64.45 -30.35 -65.8 -31.85 -62.55 -31.85 -59.75 -31.85 -57.6 -30.85 -55.4 -30.2 -53.85 -28.85 -52.25 L-29.1 -52.15 -33.45 -53.0 Q-39.4 -54.85 -42.8 -59.75" fill="#d6ccb1" fill-rule="evenodd" stroke="none"/>
      <path d="M-31.2 -18.7 Q-22.6 -36.95 -10.2 -38.6 L-8.05 -38.85 2.4 -40.1 5.95 -39.85 9.45 -39.6 7.0 -39.95 9.45 -40.35 9.5 -40.65 Q20.95 -40.9 27.15 -35.85 32.45 -30.35 23.55 -26.9 18.55 -26.15 15.85 -24.9 10.5 -22.5 14.05 -18.15 L20.4 -11.45 19.3 -10.35 18.3 -9.2 17.7 -9.7 Q14.05 -12.6 8.7 -14.45 1.9 -11.7 -2.7 -7.85 -6.55 -13.1 -13.9 -15.55 -18.3 -14.85 -22.0 -13.1 -23.9 -12.3 -25.6 -11.05 -27.0 -13.95 -28.95 -16.4 L-30.1 -17.65 -31.2 -18.7 M21.3 -34.45 Q18.55 -38.1 9.45 -39.6 18.55 -38.1 21.3 -34.45 M6.1 -21.05 L15.85 -24.9 6.1 -21.05" fill="url(#gradient0)" fill-rule="evenodd" stroke="none"/>
      <path d="M-9.95 -59.25 Q-7.8 -60.25 -5.85 -61.95 L-4.45 -63.2 Q-1.35 -60.6 3.0 -59.95 7.0 -59.35 11.35 -61.8 L12.1 -62.2 Q13.1 -61.45 14.3 -60.8 L14.6 -59.95 Q13.2 -57.6 11.05 -56.45 L10.1 -53.15 9.25 -53.0 -0.2 -53.85 -7.8 -53.6 -9.05 -53.85 Q-9.65 -55.5 -9.8 -57.25 L-9.95 -59.25 M-10.2 -38.6 L-9.8 -39.85 -8.2 -40.05 -6.1 -40.2 0.0 -40.3 2.4 -40.1 4.0 -40.3 7.0 -39.95 5.95 -39.85 2.4 -40.1 -8.05 -38.85 -10.2 -38.6 M11.3 -58.25 L11.05 -56.45 11.3 -58.25" fill="#a69588" fill-rule="evenodd" stroke="none"/>
      <path d="M-28.85 -52.25 Q-24.7 -54.65 -22.75 -60.7 L-20.9 -61.55 Q-18.5 -59.1 -13.8 -58.2 L-11.45 -58.7 -9.8 -57.25 Q-9.65 -55.5 -9.05 -53.85 L-7.8 -53.6 -7.95 -53.6 -9.55 -53.4 -10.3 -51.0 Q-12.8 -50.05 -13.95 -47.55 -12.7 -45.3 -10.65 -43.95 L-10.2 -42.3 -9.7 -40.8 -6.1 -40.2 -8.2 -40.05 -9.8 -39.85 -10.2 -38.6 Q-22.6 -36.95 -31.2 -18.7 L-34.05 -21.0 -35.45 -20.5 -37.65 -22.55 Q-40.9 -26.4 -40.9 -33.45 -40.9 -45.15 -33.45 -53.0 L-29.1 -52.15 -28.85 -52.25 M14.3 -60.8 Q16.65 -59.35 19.8 -58.35 22.55 -58.6 24.25 -59.25 L25.75 -58.5 Q27.6 -54.6 31.45 -51.6 L32.5 -50.75 33.0 -50.9 34.35 -48.65 Q39.35 -40.05 39.35 -34.25 39.35 -23.25 27.35 -14.85 L26.9 -14.55 26.15 -14.95 Q22.8 -13.7 20.4 -11.45 L14.05 -18.15 Q10.5 -22.5 15.85 -24.9 18.55 -26.15 23.55 -26.9 32.45 -30.35 27.15 -35.85 20.95 -40.9 9.5 -40.65 L9.75 -41.4 10.1 -43.3 Q12.35 -44.65 13.7 -47.0 12.6 -49.5 10.2 -50.65 L9.6 -53.0 9.25 -53.0 10.1 -53.15 11.05 -56.45 Q13.2 -57.6 14.6 -59.95 L14.3 -60.8" fill="url(#gradient1)" fill-rule="evenodd" stroke="none"/>
      <path d="M-30.35 -65.8 Q-26.1 -66.95 -21.5 -67.2 L-8.3 -66.3 -6.6 -65.95 -4.6 -65.55 -3.1 -65.05 -2.85 -64.95 Q4.1 -62.6 11.35 -62.3 L12.1 -62.2 13.2 -62.2 14.3 -60.8 Q16.65 -59.35 19.8 -58.35 22.55 -58.6 24.25 -59.25 L25.15 -59.75 25.75 -58.5 Q27.6 -54.6 31.45 -51.6 L32.5 -50.75 33.0 -50.9 Q38.05 -52.9 42.15 -59.75 43.9 -57.35 45.3 -53.85 51.25 -28.6 44.05 -13.7 L42.65 -11.6 Q40.8 -9.35 38.3 -7.75 34.1 -5.2 28.0 -4.4 -1.7 0.0 -33.7 -4.75 L-35.55 -5.1 Q-43.15 -6.2 -47.65 -11.55 L-49.0 -13.35 Q-63.2 -41.95 -42.8 -59.75 L-40.55 -61.6 Q-35.8 -64.45 -30.35 -65.8 M13.2 -62.2 L24.25 -63.1 31.0 -64.8 Q34.25 -65.45 36.95 -64.3 39.8 -63.05 42.15 -59.75 M-28.85 -52.25 Q-24.7 -54.65 -22.75 -60.7 L-22.15 -63.1 -20.9 -61.55 Q-18.5 -59.1 -13.8 -58.2 L-11.45 -58.7 -9.95 -59.25 Q-7.8 -60.25 -5.85 -61.95 L-4.45 -63.2 Q-1.35 -60.6 3.0 -59.95 7.0 -59.35 11.35 -61.8 L11.35 -62.3 M-28.85 -52.25 L-29.1 -52.15 -33.45 -53.0 Q-39.4 -54.85 -42.8 -59.75 M-35.45 -20.5 L-34.05 -21.0 -31.2 -18.7 Q-22.6 -36.95 -10.2 -38.6 L-9.8 -39.85 -8.2 -40.05 -6.1 -40.2 -9.7 -40.8 -10.2 -42.3 -10.65 -43.95 Q-12.7 -45.3 -13.95 -47.55 -12.8 -50.05 -10.3 -51.0 L-9.55 -53.4 -7.95 -53.6 -7.8 -53.6 -9.05 -53.85 Q-9.65 -55.5 -9.8 -57.25 L-11.45 -58.7 M-51.45 -58.85 Q-43.55 -68.2 -34.05 -70.05 M-9.95 -59.25 L-9.8 -57.25 M-10.65 -43.95 L-10.8 -46.0 M-10.3 -51.0 L-10.7 -49.55 M12.1 -62.2 L11.35 -61.8 M14.3 -60.8 L14.6 -59.95 Q13.2 -57.6 11.05 -56.45 L10.1 -53.15 9.25 -53.0 9.6 -53.0 10.2 -50.65 Q12.6 -49.5 13.7 -47.0 12.35 -44.65 10.1 -43.3 L9.75 -41.4 9.5 -40.65 Q20.95 -40.9 27.15 -35.85 32.45 -30.35 23.55 -26.9 18.55 -26.15 15.85 -24.9 10.5 -22.5 14.05 -18.15 L20.4 -11.45 Q22.8 -13.7 26.15 -14.95 L26.9 -14.55 29.75 -12.85 32.85 -10.45 M14.3 -60.8 Q13.1 -61.45 12.1 -62.2 M11.05 -56.45 L11.3 -58.25 M10.1 -43.3 L10.35 -45.45 M10.2 -50.65 L10.25 -49.05 M-7.8 -53.6 L-0.2 -53.85 9.25 -53.0 M29.15 -68.9 Q36.7 -69.7 40.85 -66.05 M-30.1 -17.65 L-28.95 -16.4 Q-27.0 -13.95 -25.6 -11.05 -23.9 -12.3 -22.0 -13.1 -18.3 -14.85 -13.9 -15.55 -6.55 -13.1 -2.7 -7.85 1.9 -11.7 8.7 -14.45 14.05 -12.6 17.7 -9.7 L18.3 -9.2 19.3 -10.35 20.4 -11.45 M42.65 -11.6 Q40.3 -16.4 35.35 -18.05 33.75 -17.4 32.6 -16.55 30.4 -14.95 29.75 -12.85 M7.0 -39.95 L9.45 -40.35 9.5 -40.65 4.0 -40.3 7.0 -39.95 9.45 -39.6 Q18.55 -38.1 21.3 -34.45 M2.4 -40.1 L5.95 -39.85 7.0 -39.95 M-6.1 -40.2 L0.0 -40.3 2.4 -40.1 4.0 -40.3 M5.95 -39.85 L9.45 -39.6 M-10.2 -38.6 L-8.05 -38.85 2.4 -40.1 M15.85 -24.9 L6.1 -21.05 M35.85 -0.85 Q44.9 -2.65 48.05 -9.85 M-52.25 -9.7 Q-49.0 -4.9 -42.25 -3.0 M-30.1 -17.65 L-31.2 -18.7 M-35.45 -20.5 Q-43.65 -17.55 -47.65 -11.55" fill="none" stroke="#000000" stroke-linecap="round" stroke-linejoin="round" stroke-opacity="0.5019608" stroke-width="0.7000000000000001"/>
    </g>
    <linearGradient gradientTransform="matrix(-0.0011, 0.0118, -0.0199, -0.0017, -1.1, -24.25)" gradientUnits="userSpaceOnUse" id="gradient0" spreadMethod="pad" x1="-819.2" x2="819.2">
      <stop offset="0.0" stop-color="#cc1c68"/>
      <stop offset="1.0" stop-color="#8f003d"/>
    </linearGradient>
    <radialGradient cx="0" cy="0" gradientTransform="matrix(0.0435, 0.0, 0.0, 0.0435, 0.05, -39.85)" gradientUnits="userSpaceOnUse" id="gradient1" r="819.2" spreadMethod="pad">
      <stop offset="0.0" stop-color="#290414"/>
      <stop offset="1.0" stop-color="#4d0928"/>
    </radialGradient>
  </defs>
</svg>
