<?xml version="1.0" encoding="UTF-8" standalone="no"?>
<svg xmlns:xlink="http://www.w3.org/1999/xlink" height="531.5px" width="460.6px" xmlns="http://www.w3.org/2000/svg">
  <g transform="matrix(1.0, 0.0, 0.0, 1.0, 193.65, 334.05)">
    <use height="38.25" transform="matrix(1.0, 0.0, 0.0, 1.0, -79.5, -36.8)" width="147.45" xlink:href="#shape0"/>
  </g>
  <defs>
    <g id="shape0" transform="matrix(1.0, 0.0, 0.0, 1.0, 79.5, 36.8)">
      <path d="M56.8 -4.85 L-74.3 -4.85 Q-77.4 -15.9 -74.3 -27.0 L56.8 -27.0 Q60.2 -17.65 56.8 -4.85" fill="url(#gradient0)" fill-rule="evenodd" stroke="none"/>
      <path d="M56.8 -4.85 L-74.3 -4.85 Q-77.4 -15.9 -74.3 -27.0 L56.8 -27.0 Q60.2 -17.65 56.8 -4.85 Z" fill="none" stroke="#000000" stroke-linecap="round" stroke-linejoin="round" stroke-opacity="0.4" stroke-width="1.0"/>
      <path d="M39.2 -14.3 Q39.05 -21.7 39.8 -29.2 L39.95 -30.2 Q40.6 -23.9 41.75 -16.1 53.0 -13.8 65.5 -16.25 L65.55 -12.9 Q53.3 -11.15 39.25 -13.35 L39.2 -13.35 39.2 -14.3 39.25 -13.35 39.2 -14.3" fill="#f28400" fill-rule="evenodd" stroke="none"/>
      <path d="M39.95 -30.2 L41.55 -30.6 42.85 -30.9 Q53.25 -33.55 63.95 -32.25 68.85 -24.75 66.9 -16.55 L65.5 -16.25 Q53.0 -13.8 41.75 -16.1 40.6 -23.9 39.95 -30.2 M65.55 -12.9 Q65.55 -8.45 64.8 -4.0 52.0 -0.7 39.95 -3.5 39.4 -8.45 39.25 -13.35 53.3 -11.15 65.55 -12.9" fill="#ffcc00" fill-rule="evenodd" stroke="none"/>
      <path d="M39.2 -14.3 Q39.05 -21.7 39.8 -29.2 L39.95 -30.2 41.55 -30.6 42.85 -30.9 Q53.25 -33.55 63.95 -32.25 68.85 -24.75 66.9 -16.55 L65.5 -16.25 65.55 -12.9 Q65.55 -8.45 64.8 -4.0 52.0 -0.7 39.95 -3.5 39.4 -8.45 39.25 -13.35 L39.2 -14.3 M65.5 -16.25 Q53.0 -13.8 41.75 -16.1 40.6 -23.9 39.95 -30.2" fill="none" stroke="#000000" stroke-linecap="round" stroke-linejoin="round" stroke-opacity="0.5019608" stroke-width="1.0"/>
      <path d="M60.1 -17.25 Q60.95 -17.25 61.55 -17.9 62.2 -18.5 62.2 -19.35 62.2 -20.2 61.55 -20.85 60.95 -21.45 60.1 -21.45 59.25 -21.45 58.6 -20.85 58.0 -20.2 58.0 -19.35 58.0 -18.5 58.6 -17.9 59.25 -17.25 60.1 -17.25" fill="#cccccc" fill-rule="evenodd" stroke="none"/>
      <path d="M60.1 -17.25 Q60.95 -17.25 61.55 -17.9 62.2 -18.5 62.2 -19.35 62.2 -20.2 61.55 -20.85 60.95 -21.45 60.1 -21.45 59.25 -21.45 58.6 -20.85 58.0 -20.2 58.0 -19.35 58.0 -18.5 58.6 -17.9 59.25 -17.25 60.1 -17.25 Z" fill="none" stroke="#000000" stroke-linecap="round" stroke-linejoin="round" stroke-opacity="0.5019608" stroke-width="1.0"/>
      <path d="M25.55 -27.85 Q33.5 -23.0 33.5 -16.3 33.5 -9.55 25.55 -4.8 17.65 0.0 6.35 0.0 -4.85 0.0 -12.9 -4.8 -20.85 -9.55 -20.85 -16.3 -20.85 -23.0 -12.9 -27.85 -4.85 -32.6 6.35 -32.6 17.65 -32.6 25.55 -27.85" fill="#000000" fill-rule="evenodd" stroke="none"/>
      <path d="M10.1 -29.6 Q10.1 -28.0 10.5 -26.35 10.9 -24.7 12.55 -23.2 14.15 -21.8 15.9 -21.8 17.75 -21.8 18.75 -23.35 19.9 -24.9 19.65 -27.15 L19.7 -27.25 22.3 -25.85 Q28.95 -21.9 28.95 -16.3 28.95 -10.75 22.3 -6.8 20.25 -5.55 17.95 -4.65 18.55 -6.35 18.5 -7.8 18.35 -9.9 16.7 -9.9 15.7 -9.9 14.4 -8.95 13.7 -10.85 12.2 -10.85 10.6 -10.85 8.95 -8.75 7.3 -6.65 6.7 -3.7 L6.5 -2.8 6.35 -2.8 6.15 -3.7 Q5.55 -6.65 3.9 -8.75 2.2 -10.85 0.65 -10.85 -0.85 -10.85 -1.55 -8.95 -2.85 -9.9 -3.85 -9.9 -5.5 -9.9 -5.65 -7.8 -5.7 -6.45 -5.1 -4.75 -7.4 -5.55 -9.45 -6.8 -16.0 -10.75 -16.0 -16.3 -16.0 -21.9 -9.45 -25.85 L-6.8 -27.15 Q-7.0 -24.9 -5.9 -23.3 -4.85 -21.7 -3.05 -21.7 -1.3 -21.7 0.3 -23.3 1.8 -24.85 2.45 -26.55 3.15 -28.25 2.75 -29.55 3.1 -28.65 3.65 -28.0 4.8 -26.5 6.4 -26.5 8.05 -26.5 9.2 -28.0 L10.1 -29.6" fill="#000000" fill-rule="evenodd" stroke="none"/>
      <path d="M21.1 -7.7 Q15.05 -4.1 6.5 -4.1 -2.0 -4.1 -8.05 -7.7 -14.05 -11.3 -14.05 -16.4 -14.05 -21.55 -8.05 -25.15 -2.0 -28.75 6.5 -28.75 15.05 -28.75 21.1 -25.15 27.05 -21.55 27.05 -16.4 27.05 -11.3 21.1 -7.7" fill="#ffcc00" fill-rule="evenodd" stroke="none"/>
      <path d="M21.1 -7.7 Q15.05 -4.1 6.5 -4.1 -2.0 -4.1 -8.05 -7.7 -14.05 -11.3 -14.05 -16.4 -14.05 -21.55 -8.05 -25.15 -2.0 -28.75 6.5 -28.75 15.05 -28.75 21.1 -25.15 27.05 -21.55 27.05 -16.4 27.05 -11.3 21.1 -7.7 Z" fill="none" stroke="#000000" stroke-linecap="round" stroke-linejoin="round" stroke-width="1.0"/>
      <path d="M9.3 -26.5 Q9.3 -25.25 9.6 -24.0 9.95 -22.75 11.15 -21.65 12.35 -20.55 13.7 -20.55 15.1 -20.55 15.85 -21.75 16.75 -22.9 16.55 -24.65 L16.6 -24.7 18.55 -23.65 Q23.55 -20.65 23.55 -16.4 23.55 -12.2 18.55 -9.2 17.0 -8.25 15.25 -7.6 15.7 -8.9 15.65 -9.95 15.55 -11.55 14.3 -11.55 13.55 -11.55 12.55 -10.85 12.05 -12.3 10.9 -12.3 9.65 -12.3 8.45 -10.7 7.2 -9.1 6.75 -6.85 L6.55 -6.2 6.45 -6.2 6.3 -6.85 Q5.85 -9.1 4.6 -10.7 3.3 -12.3 2.15 -12.3 1.0 -12.3 0.5 -10.85 -0.5 -11.55 -1.25 -11.55 -2.5 -11.55 -2.6 -9.95 -2.65 -8.95 -2.2 -7.65 -3.95 -8.25 -5.5 -9.2 -10.45 -12.2 -10.45 -16.4 -10.45 -20.65 -5.5 -23.65 L-3.5 -24.65 Q-3.65 -22.9 -2.8 -21.7 -2.0 -20.5 -0.65 -20.5 0.7 -20.5 1.9 -21.7 3.0 -22.85 3.55 -24.15 4.05 -25.45 3.75 -26.45 L4.4 -25.25 Q5.3 -24.1 6.5 -24.1 7.75 -24.1 8.65 -25.25 L9.3 -26.5" fill="#000000" fill-rule="evenodd" stroke="none"/>
      <path d="M30.05 -30.85 L31.8 -31.35 33.2 -31.7 Q44.25 -34.45 55.8 -33.05 61.0 -25.0 58.9 -16.25 L57.4 -15.9 Q44.0 -13.25 31.95 -15.75 30.7 -24.1 30.05 -30.85 M57.45 -12.3 Q57.45 -7.55 56.65 -2.75 42.9 0.75 30.05 -2.25 29.45 -7.55 29.3 -12.8 44.35 -10.45 57.45 -12.3" fill="#ffcc00" fill-rule="evenodd" stroke="none"/>
      <path d="M57.4 -15.9 L57.45 -12.3 Q44.35 -10.45 29.3 -12.8 L29.2 -12.8 29.2 -13.8 Q29.05 -21.75 29.9 -29.8 L30.05 -30.85 Q30.7 -24.1 31.95 -15.75 44.0 -13.25 57.4 -15.9 M29.3 -12.8 L29.2 -13.8 29.3 -12.8" fill="#f28400" fill-rule="evenodd" stroke="none"/>
      <path d="M30.05 -30.85 L31.8 -31.35 33.2 -31.7 Q44.25 -34.45 55.8 -33.05 61.0 -25.0 58.9 -16.25 L57.4 -15.9 57.45 -12.3 Q57.45 -7.55 56.65 -2.75 42.9 0.75 30.05 -2.25 29.45 -7.55 29.3 -12.8 L29.2 -13.8 Q29.05 -21.75 29.9 -29.8 L30.05 -30.85 Q30.7 -24.1 31.95 -15.75 44.0 -13.25 57.4 -15.9" fill="none" stroke="#000000" stroke-linecap="round" stroke-linejoin="round" stroke-opacity="0.5019608" stroke-width="1.0"/>
      <path d="M45.6 -17.55 Q46.3 -16.9 47.2 -16.9 48.1 -16.9 48.8 -17.55 49.45 -18.25 49.45 -19.15 49.45 -20.05 48.8 -20.75 48.1 -21.4 47.2 -21.4 46.3 -21.4 45.6 -20.75 44.95 -20.05 44.95 -19.15 44.95 -18.25 45.6 -17.55" fill="#cccccc" fill-rule="evenodd" stroke="none"/>
      <path d="M45.6 -17.55 Q46.3 -16.9 47.2 -16.9 48.1 -16.9 48.8 -17.55 49.45 -18.25 49.45 -19.15 49.45 -20.05 48.8 -20.75 48.1 -21.4 47.2 -21.4 46.3 -21.4 45.6 -20.75 44.95 -20.05 44.95 -19.15 44.95 -18.25 45.6 -17.55 Z" fill="none" stroke="#000000" stroke-linecap="round" stroke-linejoin="round" stroke-opacity="0.5019608" stroke-width="1.0"/>
      <path d="M-45.5 -13.3 Q-45.65 -7.45 -46.35 -1.6 -60.65 1.75 -75.95 -2.15 -76.85 -7.45 -76.85 -12.7 -62.25 -10.7 -45.5 -13.3" fill="#ffcc00" fill-rule="evenodd" stroke="none"/>
      <path d="M-76.85 -12.7 Q-76.95 -22.9 -73.85 -33.35 -59.7 -37.45 -46.35 -33.35 L-46.15 -32.2 Q-45.25 -23.25 -45.4 -14.35 L-45.4 -13.3 -45.5 -13.3 Q-62.25 -10.7 -76.85 -12.7 M-45.4 -14.35 L-45.5 -13.3 -45.4 -14.35" fill="#f28400" fill-rule="evenodd" stroke="none"/>
      <path d="M-76.85 -12.7 Q-76.95 -22.9 -73.85 -33.35 -59.7 -37.45 -46.35 -33.35 L-46.15 -32.2 Q-45.25 -23.25 -45.4 -14.35 L-45.5 -13.3 Q-45.65 -7.45 -46.35 -1.6 -60.65 1.75 -75.95 -2.15 -76.85 -7.45 -76.85 -12.7 Z" fill="none" stroke="#000000" stroke-linecap="round" stroke-linejoin="round" stroke-opacity="0.5019608" stroke-width="1.0"/>
      <path d="M-46.2 -33.35 Q-47.0 -25.85 -48.4 -16.55 -62.55 -13.65 -78.35 -17.15 -80.6 -26.85 -74.8 -35.8 -60.25 -37.55 -46.2 -33.35" fill="#ffcc00" fill-rule="evenodd" stroke="none"/>
      <path d="M-46.2 -33.35 Q-47.0 -25.85 -48.4 -16.55 -62.55 -13.65 -78.35 -17.15 -80.6 -26.85 -74.8 -35.8 -60.25 -37.55 -46.2 -33.35 Z" fill="none" stroke="#000000" stroke-linecap="round" stroke-linejoin="round" stroke-opacity="0.5019608" stroke-width="1.0"/>
      <path d="M-63.75 -18.65 Q-64.5 -17.9 -65.5 -17.9 -66.5 -17.9 -67.25 -18.65 -68.0 -19.4 -68.0 -20.4 -68.0 -21.4 -67.25 -22.15 -66.5 -22.9 -65.5 -22.9 -64.5 -22.9 -63.75 -22.15 -63.0 -21.4 -63.0 -20.4 -63.0 -19.4 -63.75 -18.65" fill="#cccccc" fill-rule="evenodd" stroke="none"/>
      <path d="M-63.75 -18.65 Q-64.5 -17.9 -65.5 -17.9 -66.5 -17.9 -67.25 -18.65 -68.0 -19.4 -68.0 -20.4 -68.0 -21.4 -67.25 -22.15 -66.5 -22.9 -65.5 -22.9 -64.5 -22.9 -63.75 -22.15 -63.0 -21.4 -63.0 -20.4 -63.0 -19.4 -63.75 -18.65 Z" fill="none" stroke="#000000" stroke-linecap="round" stroke-linejoin="round" stroke-opacity="0.5019608" stroke-width="1.0"/>
      <path d="M-17.85 -12.3 Q-18.0 -6.45 -18.7 -0.6 -33.0 2.75 -48.3 -1.15 -49.2 -6.45 -49.2 -11.7 -34.6 -9.7 -17.85 -12.3" fill="#ffcc00" fill-rule="evenodd" stroke="none"/>
      <path d="M-49.2 -11.7 Q-49.3 -21.9 -46.2 -32.35 -32.05 -36.45 -18.7 -32.35 L-18.5 -31.2 Q-17.6 -22.25 -17.75 -13.35 L-17.75 -12.3 -17.85 -12.3 -17.75 -13.35 -17.85 -12.3 Q-34.6 -9.7 -49.2 -11.7" fill="#f28400" fill-rule="evenodd" stroke="none"/>
      <path d="M-17.85 -12.3 Q-18.0 -6.45 -18.7 -0.6 -33.0 2.75 -48.3 -1.15 -49.2 -6.45 -49.2 -11.7 -49.3 -21.9 -46.2 -32.35 -32.05 -36.45 -18.7 -32.35 L-18.5 -31.2 Q-17.6 -22.25 -17.75 -13.35 L-17.85 -12.3 Z" fill="none" stroke="#000000" stroke-linecap="round" stroke-linejoin="round" stroke-opacity="0.5019608" stroke-width="1.0"/>
      <path d="M-18.65 -32.35 Q-19.4 -24.85 -20.8 -15.55 -34.95 -12.65 -50.75 -16.15 -53.0 -25.85 -47.25 -34.8 -32.7 -36.55 -18.65 -32.35" fill="#ffcc00" fill-rule="evenodd" stroke="none"/>
      <path d="M-18.65 -32.35 Q-19.4 -24.85 -20.8 -15.55 -34.95 -12.65 -50.75 -16.15 -53.0 -25.85 -47.25 -34.8 -32.7 -36.55 -18.65 -32.35 Z" fill="none" stroke="#000000" stroke-linecap="round" stroke-linejoin="round" stroke-opacity="0.5019608" stroke-width="1.0"/>
      <path d="M-36.1 -17.65 Q-36.85 -16.9 -37.85 -16.9 -38.85 -16.9 -39.6 -17.65 -40.35 -18.4 -40.35 -19.4 -40.35 -20.4 -39.6 -21.15 -38.85 -21.9 -37.85 -21.9 -36.85 -21.9 -36.1 -21.15 -35.35 -20.4 -35.35 -19.4 -35.35 -18.4 -36.1 -17.65" fill="#cccccc" fill-rule="evenodd" stroke="none"/>
      <path d="M-36.1 -17.65 Q-36.85 -16.9 -37.85 -16.9 -38.85 -16.9 -39.6 -17.65 -40.35 -18.4 -40.35 -19.4 -40.35 -20.4 -39.6 -21.15 -38.85 -21.9 -37.85 -21.9 -36.85 -21.9 -36.1 -21.15 -35.35 -20.4 -35.35 -19.4 -35.35 -18.4 -36.1 -17.65 Z" fill="none" stroke="#000000" stroke-linecap="round" stroke-linejoin="round" stroke-opacity="0.5019608" stroke-width="1.0"/>
    </g>
    <linearGradient gradientTransform="matrix(0.08, 0.0, 0.0, 0.0135, -8.75, -15.9)" gradientUnits="userSpaceOnUse" id="gradient0" spreadMethod="pad" x1="-819.2" x2="819.2">
      <stop offset="0.0" stop-color="#333333"/>
      <stop offset="1.0" stop-color="#1c1c1c"/>
    </linearGradient>
  </defs>
</svg>
