<?xml version="1.0" encoding="UTF-8" standalone="no"?>
<svg xmlns:xlink="http://www.w3.org/1999/xlink" height="531.5px" width="460.6px" xmlns="http://www.w3.org/2000/svg">
  <g transform="matrix(1.0, 0.0, 0.0, 1.0, 193.65, 334.05)">
    <use height="27.75" transform="matrix(1.0, 0.0, 0.0, 1.0, -71.7, -27.7)" width="135.15" xlink:href="#shape0"/>
  </g>
  <defs>
    <g id="shape0" transform="matrix(1.0, 0.0, 0.0, 1.0, 71.7, 27.7)">
      <path d="M-69.65 -22.2 L61.25 -22.2 Q64.7 -15.4 61.25 -6.0 L-69.65 -6.0 Q-72.75 -14.1 -69.65 -22.2" fill="url(#gradient0)" fill-rule="evenodd" stroke="none"/>
      <path d="M-69.65 -22.2 L61.25 -22.2 Q64.7 -15.4 61.25 -6.0 L-69.65 -6.0 Q-72.75 -14.1 -69.65 -22.2 Z" fill="none" stroke="#000000" stroke-linecap="round" stroke-linejoin="round" stroke-opacity="0.4" stroke-width="1.0"/>
      <path d="M-7.0 -22.2 L-10.75 -18.35 -14.65 -22.2 -7.0 -22.2" fill="#cccccc" fill-rule="evenodd" stroke="none"/>
      <path d="M-7.0 -22.2 L-7.0 -14.55 -10.75 -18.35 -7.0 -22.2 M-14.65 -14.55 L-14.65 -22.2 -10.75 -18.35 -14.65 -14.55" fill="#999999" fill-rule="evenodd" stroke="none"/>
      <path d="M-10.75 -18.35 L-7.0 -14.55 -14.65 -14.55 -10.75 -18.35" fill="#333333" fill-rule="evenodd" stroke="none"/>
      <path d="M-7.0 -14.55 L-7.0 -22.2 -14.65 -22.2 -14.65 -14.55 -7.0 -14.55" fill="none" stroke="#000000" stroke-linecap="round" stroke-linejoin="round" stroke-opacity="0.4" stroke-width="1.0"/>
      <path d="M-7.0 -22.2 L-10.75 -18.35 -7.0 -14.55 M-10.75 -18.35 L-14.65 -14.55 M-14.65 -22.2 L-10.75 -18.35" fill="none" stroke="#000000" stroke-linecap="round" stroke-linejoin="round" stroke-opacity="0.2" stroke-width="0.5"/>
      <path d="M-7.0 -13.45 L-10.75 -9.6 -14.65 -13.45 -7.0 -13.45" fill="#cccccc" fill-rule="evenodd" stroke="none"/>
      <path d="M-7.0 -5.8 L-10.75 -9.6 -14.65 -5.8 -14.65 -13.45 -10.75 -9.6 -7.0 -13.45 -7.0 -5.8" fill="#999999" fill-rule="evenodd" stroke="none"/>
      <path d="M-14.65 -5.8 L-10.75 -9.6 -7.0 -5.8 -14.65 -5.8" fill="#333333" fill-rule="evenodd" stroke="none"/>
      <path d="M-14.65 -5.8 L-7.0 -5.8 -7.0 -13.45 -14.65 -13.45 -14.65 -5.8" fill="none" stroke="#000000" stroke-linecap="round" stroke-linejoin="round" stroke-opacity="0.4" stroke-width="1.0"/>
      <path d="M-7.0 -5.8 L-10.75 -9.6 -14.65 -5.8 M-7.0 -13.45 L-10.75 -9.6 -14.65 -13.45" fill="none" stroke="#000000" stroke-linecap="round" stroke-linejoin="round" stroke-opacity="0.2" stroke-width="0.5"/>
      <path d="M5.9 -7.75 L6.1 -6.95 Q14.45 -5.5 22.55 -6.95 L22.9 -9.3 Q25.3 -10.25 27.7 -11.55 L30.0 -12.8 Q29.95 -7.2 28.9 -1.7 14.7 0.85 -0.1 -1.7 -1.5 -6.35 -1.75 -11.25 1.6 -8.7 5.9 -7.75" fill="#969696" fill-rule="evenodd" stroke="none"/>
      <path d="M5.9 -7.75 Q1.6 -8.7 -1.75 -11.25 -2.25 -18.5 -0.1 -26.25 14.1 -28.15 28.9 -26.25 30.1 -19.55 30.0 -12.8 L27.7 -11.55 Q25.3 -10.25 22.9 -9.3 23.55 -15.05 22.55 -20.85 14.1 -21.95 6.1 -20.85 4.1 -13.85 5.9 -7.75" fill="url(#gradient1)" fill-rule="evenodd" stroke="none"/>
      <path d="M22.9 -9.3 L22.55 -6.95 Q14.45 -5.5 6.1 -6.95 L5.9 -7.75 Q4.1 -13.85 6.1 -20.85 14.1 -21.95 22.55 -20.85 23.55 -15.05 22.9 -9.3 M-1.75 -11.25 Q-1.5 -6.35 -0.1 -1.7 14.7 0.85 28.9 -1.7 29.95 -7.2 30.0 -12.8 30.1 -19.55 28.9 -26.25 14.1 -28.15 -0.1 -26.25 -2.25 -18.5 -1.75 -11.25" fill="none" stroke="#000000" stroke-linecap="round" stroke-linejoin="round" stroke-opacity="0.4" stroke-width="1.0"/>
      <path d="M16.7 -11.35 Q15.85 -10.35 14.6 -10.35 13.4 -10.35 12.55 -11.35 11.7 -12.45 11.7 -13.9 11.7 -15.45 12.55 -16.45 13.4 -17.5 14.6 -17.5 15.85 -17.5 16.7 -16.45 17.55 -15.45 17.55 -13.9 17.55 -12.45 16.7 -11.35" fill="#000000" fill-rule="evenodd" stroke="none"/>
      <path d="M16.7 -11.35 Q15.85 -10.35 14.6 -10.35 13.4 -10.35 12.55 -11.35 11.7 -12.45 11.7 -13.9 11.7 -15.45 12.55 -16.45 13.4 -17.5 14.6 -17.5 15.85 -17.5 16.7 -16.45 17.55 -15.45 17.55 -13.9 17.55 -12.45 16.7 -11.35 Z" fill="none" stroke="#000000" stroke-linecap="round" stroke-linejoin="round" stroke-opacity="0.4" stroke-width="1.0"/>
      <path d="M26.25 -13.5 L25.6 -13.4 15.3 -12.4 13.15 -12.45 Q12.7 -14.5 13.65 -16.8 19.95 -18.15 25.85 -16.8 26.3 -15.25 26.25 -13.5 M21.1 -14.45 L22.9 -14.45 Q24.55 -14.5 24.55 -15.3 24.55 -16.1 22.2 -16.1 19.9 -16.1 19.9 -15.3 19.9 -14.5 21.1 -14.45" fill="#cccccc" fill-rule="evenodd" stroke="none"/>
      <path d="M13.15 -12.45 L15.3 -12.4 25.6 -13.4 26.25 -13.5 25.85 -10.95 Q18.65 -9.95 13.65 -10.95 13.25 -11.65 13.15 -12.45" fill="#a8a8a8" fill-rule="evenodd" stroke="none"/>
      <path d="M21.1 -14.45 Q19.9 -14.5 19.9 -15.3 19.9 -16.1 22.2 -16.1 24.55 -16.1 24.55 -15.3 24.55 -14.5 22.9 -14.45 L21.1 -14.45" fill="#e8e8e8" fill-rule="evenodd" stroke="none"/>
      <path d="M26.25 -13.5 Q26.3 -15.25 25.85 -16.8 19.95 -18.15 13.65 -16.8 12.7 -14.5 13.15 -12.45 13.25 -11.65 13.65 -10.95 18.65 -9.95 25.85 -10.95 L26.25 -13.5 Z" fill="none" stroke="#000000" stroke-linecap="round" stroke-linejoin="round" stroke-opacity="0.4" stroke-width="1.0"/>
      <path d="M-16.55 -22.2 L-20.3 -18.35 -24.2 -22.2 -16.55 -22.2" fill="#cccccc" fill-rule="evenodd" stroke="none"/>
      <path d="M-16.55 -14.55 L-20.3 -18.35 -24.2 -14.55 -24.2 -22.2 -20.3 -18.35 -16.55 -22.2 -16.55 -14.55" fill="#999999" fill-rule="evenodd" stroke="none"/>
      <path d="M-24.2 -14.55 L-20.3 -18.35 -16.55 -14.55 -24.2 -14.55" fill="#333333" fill-rule="evenodd" stroke="none"/>
      <path d="M-24.2 -14.55 L-16.55 -14.55 -16.55 -22.2 -24.2 -22.2 -24.2 -14.55" fill="none" stroke="#000000" stroke-linecap="round" stroke-linejoin="round" stroke-opacity="0.4" stroke-width="1.0"/>
      <path d="M-16.55 -14.55 L-20.3 -18.35 -24.2 -14.55 M-16.55 -22.2 L-20.3 -18.35 -24.2 -22.2" fill="none" stroke="#000000" stroke-linecap="round" stroke-linejoin="round" stroke-opacity="0.2" stroke-width="0.5"/>
      <path d="M-16.55 -13.45 L-20.3 -9.6 -24.2 -13.45 -16.55 -13.45" fill="#cccccc" fill-rule="evenodd" stroke="none"/>
      <path d="M-16.55 -13.45 L-16.55 -5.8 -20.3 -9.6 -16.55 -13.45 M-24.2 -5.8 L-24.2 -13.45 -20.3 -9.6 -24.2 -5.8" fill="#999999" fill-rule="evenodd" stroke="none"/>
      <path d="M-20.3 -9.6 L-16.55 -5.8 -24.2 -5.8 -20.3 -9.6" fill="#333333" fill-rule="evenodd" stroke="none"/>
      <path d="M-16.55 -5.8 L-16.55 -13.45 -24.2 -13.45 -24.2 -5.8 -16.55 -5.8" fill="none" stroke="#000000" stroke-linecap="round" stroke-linejoin="round" stroke-opacity="0.4" stroke-width="1.0"/>
      <path d="M-16.55 -13.45 L-20.3 -9.6 -16.55 -5.8 M-20.3 -9.6 L-24.2 -5.8 M-24.2 -13.45 L-20.3 -9.6" fill="none" stroke="#000000" stroke-linecap="round" stroke-linejoin="round" stroke-opacity="0.2" stroke-width="0.5"/>
      <path d="M-26.15 -22.2 L-29.9 -18.35 -33.8 -22.2 -26.15 -22.2" fill="#cccccc" fill-rule="evenodd" stroke="none"/>
      <path d="M-26.15 -22.2 L-26.15 -14.55 -29.9 -18.35 -26.15 -22.2 M-33.8 -14.55 L-33.8 -22.2 -29.9 -18.35 -33.8 -14.55" fill="#999999" fill-rule="evenodd" stroke="none"/>
      <path d="M-29.9 -18.35 L-26.15 -14.55 -33.8 -14.55 -29.9 -18.35" fill="#333333" fill-rule="evenodd" stroke="none"/>
      <path d="M-26.15 -14.55 L-26.15 -22.2 -33.8 -22.2 -33.8 -14.55 -26.15 -14.55" fill="none" stroke="#000000" stroke-linecap="round" stroke-linejoin="round" stroke-opacity="0.4" stroke-width="1.0"/>
      <path d="M-26.15 -22.2 L-29.9 -18.35 -26.15 -14.55 M-29.9 -18.35 L-33.8 -14.55 M-33.8 -22.2 L-29.9 -18.35" fill="none" stroke="#000000" stroke-linecap="round" stroke-linejoin="round" stroke-opacity="0.2" stroke-width="0.5"/>
      <path d="M-26.15 -13.45 L-29.9 -9.6 -33.8 -13.45 -26.15 -13.45" fill="#cccccc" fill-rule="evenodd" stroke="none"/>
      <path d="M-26.15 -5.8 L-29.9 -9.6 -33.8 -5.8 -33.8 -13.45 -29.9 -9.6 -26.15 -13.45 -26.15 -5.8" fill="#999999" fill-rule="evenodd" stroke="none"/>
      <path d="M-33.8 -5.8 L-29.9 -9.6 -26.15 -5.8 -33.8 -5.8" fill="#333333" fill-rule="evenodd" stroke="none"/>
      <path d="M-33.8 -5.8 L-26.15 -5.8 -26.15 -13.45 -33.8 -13.45 -33.8 -5.8" fill="none" stroke="#000000" stroke-linecap="round" stroke-linejoin="round" stroke-opacity="0.4" stroke-width="1.0"/>
      <path d="M-26.15 -5.8 L-29.9 -9.6 -33.8 -5.8 M-26.15 -13.45 L-29.9 -9.6 -33.8 -13.45" fill="none" stroke="#000000" stroke-linecap="round" stroke-linejoin="round" stroke-opacity="0.2" stroke-width="0.5"/>
      <path d="M-35.75 -22.2 L-39.5 -18.35 -43.4 -22.2 -35.75 -22.2" fill="#cccccc" fill-rule="evenodd" stroke="none"/>
      <path d="M-35.75 -14.55 L-39.5 -18.35 -43.4 -14.55 -43.4 -22.2 -39.5 -18.35 -35.75 -22.2 -35.75 -14.55" fill="#999999" fill-rule="evenodd" stroke="none"/>
      <path d="M-43.4 -14.55 L-39.5 -18.35 -35.75 -14.55 -43.4 -14.55" fill="#333333" fill-rule="evenodd" stroke="none"/>
      <path d="M-43.4 -14.55 L-35.75 -14.55 -35.75 -22.2 -43.4 -22.2 -43.4 -14.55" fill="none" stroke="#000000" stroke-linecap="round" stroke-linejoin="round" stroke-opacity="0.4" stroke-width="1.0"/>
      <path d="M-35.75 -14.55 L-39.5 -18.35 -43.4 -14.55 M-35.75 -22.2 L-39.5 -18.35 -43.4 -22.2" fill="none" stroke="#000000" stroke-linecap="round" stroke-linejoin="round" stroke-opacity="0.2" stroke-width="0.5"/>
      <path d="M-35.75 -13.45 L-39.5 -9.6 -43.4 -13.45 -35.75 -13.45" fill="#cccccc" fill-rule="evenodd" stroke="none"/>
      <path d="M-35.75 -13.45 L-35.75 -5.8 -39.5 -9.6 -35.75 -13.45 M-43.4 -5.8 L-43.4 -13.45 -39.5 -9.6 -43.4 -5.8" fill="#999999" fill-rule="evenodd" stroke="none"/>
      <path d="M-39.5 -9.6 L-35.75 -5.8 -43.4 -5.8 -39.5 -9.6" fill="#333333" fill-rule="evenodd" stroke="none"/>
      <path d="M-35.75 -5.8 L-35.75 -13.45 -43.4 -13.45 -43.4 -5.8 -35.75 -5.8" fill="none" stroke="#000000" stroke-linecap="round" stroke-linejoin="round" stroke-opacity="0.4" stroke-width="1.0"/>
      <path d="M-35.75 -13.45 L-39.5 -9.6 -35.75 -5.8 M-39.5 -9.6 L-43.4 -5.8 M-43.4 -13.45 L-39.5 -9.6" fill="none" stroke="#000000" stroke-linecap="round" stroke-linejoin="round" stroke-opacity="0.2" stroke-width="0.5"/>
      <path d="M-45.2 -22.2 L-48.95 -18.35 -52.85 -22.2 -45.2 -22.2" fill="#cccccc" fill-rule="evenodd" stroke="none"/>
      <path d="M-45.2 -22.2 L-45.2 -14.55 -48.95 -18.35 -45.2 -22.2 M-52.85 -14.55 L-52.85 -22.2 -48.95 -18.35 -52.85 -14.55" fill="#999999" fill-rule="evenodd" stroke="none"/>
      <path d="M-48.95 -18.35 L-45.2 -14.55 -52.85 -14.55 -48.95 -18.35" fill="#333333" fill-rule="evenodd" stroke="none"/>
      <path d="M-45.2 -14.55 L-45.2 -22.2 -52.85 -22.2 -52.85 -14.55 -45.2 -14.55" fill="none" stroke="#000000" stroke-linecap="round" stroke-linejoin="round" stroke-opacity="0.4" stroke-width="1.0"/>
      <path d="M-45.2 -22.2 L-48.95 -18.35 -45.2 -14.55 M-48.95 -18.35 L-52.85 -14.55 M-52.85 -22.2 L-48.95 -18.35" fill="none" stroke="#000000" stroke-linecap="round" stroke-linejoin="round" stroke-opacity="0.2" stroke-width="0.5"/>
      <path d="M-45.2 -13.45 L-48.95 -9.6 -52.85 -13.45 -45.2 -13.45" fill="#cccccc" fill-rule="evenodd" stroke="none"/>
      <path d="M-45.2 -5.8 L-48.95 -9.6 -52.85 -5.8 -52.85 -13.45 -48.95 -9.6 -45.2 -13.45 -45.2 -5.8" fill="#999999" fill-rule="evenodd" stroke="none"/>
      <path d="M-52.85 -5.8 L-48.95 -9.6 -45.2 -5.8 -52.85 -5.8" fill="#333333" fill-rule="evenodd" stroke="none"/>
      <path d="M-52.85 -5.8 L-45.2 -5.8 -45.2 -13.45 -52.85 -13.45 -52.85 -5.8" fill="none" stroke="#000000" stroke-linecap="round" stroke-linejoin="round" stroke-opacity="0.4" stroke-width="1.0"/>
      <path d="M-45.2 -5.8 L-48.95 -9.6 -52.85 -5.8 M-45.2 -13.45 L-48.95 -9.6 -52.85 -13.45" fill="none" stroke="#000000" stroke-linecap="round" stroke-linejoin="round" stroke-opacity="0.2" stroke-width="0.5"/>
      <path d="M-54.85 -22.2 L-58.6 -18.35 -62.5 -22.2 -54.85 -22.2" fill="#cccccc" fill-rule="evenodd" stroke="none"/>
      <path d="M-54.85 -14.55 L-58.6 -18.35 -62.5 -14.55 -62.5 -22.2 -58.6 -18.35 -54.85 -22.2 -54.85 -14.55" fill="#999999" fill-rule="evenodd" stroke="none"/>
      <path d="M-62.5 -14.55 L-58.6 -18.35 -54.85 -14.55 -62.5 -14.55" fill="#333333" fill-rule="evenodd" stroke="none"/>
      <path d="M-62.5 -14.55 L-54.85 -14.55 -54.85 -22.2 -62.5 -22.2 -62.5 -14.55" fill="none" stroke="#000000" stroke-linecap="round" stroke-linejoin="round" stroke-opacity="0.4" stroke-width="1.0"/>
      <path d="M-54.85 -14.55 L-58.6 -18.35 -62.5 -14.55 M-54.85 -22.2 L-58.6 -18.35 -62.5 -22.2" fill="none" stroke="#000000" stroke-linecap="round" stroke-linejoin="round" stroke-opacity="0.2" stroke-width="0.5"/>
      <path d="M-54.85 -13.45 L-58.6 -9.6 -62.5 -13.45 -54.85 -13.45" fill="#cccccc" fill-rule="evenodd" stroke="none"/>
      <path d="M-54.85 -13.45 L-54.85 -5.8 -58.6 -9.6 -54.85 -13.45 M-62.5 -5.8 L-62.5 -13.45 -58.6 -9.6 -62.5 -5.8" fill="#999999" fill-rule="evenodd" stroke="none"/>
      <path d="M-58.6 -9.6 L-54.85 -5.8 -62.5 -5.8 -58.6 -9.6" fill="#333333" fill-rule="evenodd" stroke="none"/>
      <path d="M-54.85 -5.8 L-54.85 -13.45 -62.5 -13.45 -62.5 -5.8 -54.85 -5.8" fill="none" stroke="#000000" stroke-linecap="round" stroke-linejoin="round" stroke-opacity="0.4" stroke-width="1.0"/>
      <path d="M-54.85 -13.45 L-58.6 -9.6 -54.85 -5.8 M-58.6 -9.6 L-62.5 -5.8 M-62.5 -13.45 L-58.6 -9.6" fill="none" stroke="#000000" stroke-linecap="round" stroke-linejoin="round" stroke-opacity="0.2" stroke-width="0.5"/>
      <path d="M-64.25 -22.2 L-67.0 -18.35 -69.8 -22.2 -64.25 -22.2" fill="#cccccc" fill-rule="evenodd" stroke="none"/>
      <path d="M-64.25 -22.2 L-64.25 -14.55 -67.0 -18.35 -64.25 -22.2 M-69.8 -14.55 L-69.8 -22.2 -67.0 -18.35 -69.8 -14.55" fill="#999999" fill-rule="evenodd" stroke="none"/>
      <path d="M-67.0 -18.35 L-64.25 -14.55 -69.8 -14.55 -67.0 -18.35" fill="#333333" fill-rule="evenodd" stroke="none"/>
      <path d="M-64.25 -14.55 L-64.25 -22.2 -69.8 -22.2 -69.8 -14.55 -64.25 -14.55" fill="none" stroke="#000000" stroke-linecap="round" stroke-linejoin="round" stroke-opacity="0.4" stroke-width="1.0"/>
      <path d="M-64.25 -22.2 L-67.0 -18.35 -64.25 -14.55 M-67.0 -18.35 L-69.8 -14.55 M-69.8 -22.2 L-67.0 -18.35" fill="none" stroke="#000000" stroke-linecap="round" stroke-linejoin="round" stroke-opacity="0.2" stroke-width="0.5"/>
      <path d="M-64.25 -13.45 L-67.0 -9.6 -69.8 -13.45 -64.25 -13.45" fill="#cccccc" fill-rule="evenodd" stroke="none"/>
      <path d="M-64.25 -5.8 L-67.0 -9.6 -69.8 -5.8 -69.8 -13.45 -67.0 -9.6 -64.25 -13.45 -64.25 -5.8" fill="#999999" fill-rule="evenodd" stroke="none"/>
      <path d="M-69.8 -5.8 L-67.0 -9.6 -64.25 -5.8 -69.8 -5.8" fill="#333333" fill-rule="evenodd" stroke="none"/>
      <path d="M-69.8 -5.8 L-64.25 -5.8 -64.25 -13.45 -69.8 -13.45 -69.8 -5.8" fill="none" stroke="#000000" stroke-linecap="round" stroke-linejoin="round" stroke-opacity="0.4" stroke-width="1.0"/>
      <path d="M-64.25 -5.8 L-67.0 -9.6 -69.8 -5.8 M-64.25 -13.45 L-67.0 -9.6 -69.8 -13.45" fill="none" stroke="#000000" stroke-linecap="round" stroke-linejoin="round" stroke-opacity="0.2" stroke-width="0.5"/>
      <path d="M61.45 -22.2 L58.15 -18.35 54.75 -22.2 61.45 -22.2" fill="#cccccc" fill-rule="evenodd" stroke="none"/>
      <path d="M61.45 -22.2 L61.45 -14.55 58.15 -18.35 61.45 -22.2 M54.75 -14.55 L54.75 -22.2 58.15 -18.35 54.75 -14.55" fill="#999999" fill-rule="evenodd" stroke="none"/>
      <path d="M58.15 -18.35 L61.45 -14.55 54.75 -14.55 58.15 -18.35" fill="#333333" fill-rule="evenodd" stroke="none"/>
      <path d="M61.45 -14.55 L61.45 -22.2 54.75 -22.2 54.75 -14.55 61.45 -14.55" fill="none" stroke="#000000" stroke-linecap="round" stroke-linejoin="round" stroke-opacity="0.4" stroke-width="1.0"/>
      <path d="M61.45 -22.2 L58.15 -18.35 61.45 -14.55 M58.15 -18.35 L54.75 -14.55 M54.75 -22.2 L58.15 -18.35" fill="none" stroke="#000000" stroke-linecap="round" stroke-linejoin="round" stroke-opacity="0.2" stroke-width="0.5"/>
      <path d="M61.45 -13.45 L58.15 -9.6 54.75 -13.45 61.45 -13.45" fill="#cccccc" fill-rule="evenodd" stroke="none"/>
      <path d="M61.45 -5.8 L58.15 -9.6 54.75 -5.8 54.75 -13.45 58.15 -9.6 61.45 -13.45 61.45 -5.8" fill="#999999" fill-rule="evenodd" stroke="none"/>
      <path d="M54.75 -5.8 L58.15 -9.6 61.45 -5.8 54.75 -5.8" fill="#333333" fill-rule="evenodd" stroke="none"/>
      <path d="M54.75 -5.8 L61.45 -5.8 61.45 -13.45 54.75 -13.45 54.75 -5.8" fill="none" stroke="#000000" stroke-linecap="round" stroke-linejoin="round" stroke-opacity="0.4" stroke-width="1.0"/>
      <path d="M61.45 -5.8 L58.15 -9.6 54.75 -5.8 M61.45 -13.45 L58.15 -9.6 54.75 -13.45" fill="none" stroke="#000000" stroke-linecap="round" stroke-linejoin="round" stroke-opacity="0.2" stroke-width="0.5"/>
      <path d="M52.95 -22.2 L49.2 -18.35 45.3 -22.2 52.95 -22.2" fill="#cccccc" fill-rule="evenodd" stroke="none"/>
      <path d="M52.95 -14.55 L49.2 -18.35 45.3 -14.55 45.3 -22.2 49.2 -18.35 52.95 -22.2 52.95 -14.55" fill="#999999" fill-rule="evenodd" stroke="none"/>
      <path d="M45.3 -14.55 L49.2 -18.35 52.95 -14.55 45.3 -14.55" fill="#333333" fill-rule="evenodd" stroke="none"/>
      <path d="M45.3 -14.55 L52.95 -14.55 52.95 -22.2 45.3 -22.2 45.3 -14.55" fill="none" stroke="#000000" stroke-linecap="round" stroke-linejoin="round" stroke-opacity="0.4" stroke-width="1.0"/>
      <path d="M52.95 -14.55 L49.2 -18.35 45.3 -14.55 M52.95 -22.2 L49.2 -18.35 45.3 -22.2" fill="none" stroke="#000000" stroke-linecap="round" stroke-linejoin="round" stroke-opacity="0.2" stroke-width="0.5"/>
      <path d="M52.95 -13.45 L49.2 -9.6 45.3 -13.45 52.95 -13.45" fill="#cccccc" fill-rule="evenodd" stroke="none"/>
      <path d="M52.95 -13.45 L52.95 -5.8 49.2 -9.6 52.95 -13.45 M45.3 -5.8 L45.3 -13.45 49.2 -9.6 45.3 -5.8" fill="#999999" fill-rule="evenodd" stroke="none"/>
      <path d="M49.2 -9.6 L52.95 -5.8 45.3 -5.8 49.2 -9.6" fill="#333333" fill-rule="evenodd" stroke="none"/>
      <path d="M52.95 -5.8 L52.95 -13.45 45.3 -13.45 45.3 -5.8 52.95 -5.8" fill="none" stroke="#000000" stroke-linecap="round" stroke-linejoin="round" stroke-opacity="0.4" stroke-width="1.0"/>
      <path d="M52.95 -13.45 L49.2 -9.6 52.95 -5.8 M49.2 -9.6 L45.3 -5.8 M45.3 -13.45 L49.2 -9.6" fill="none" stroke="#000000" stroke-linecap="round" stroke-linejoin="round" stroke-opacity="0.2" stroke-width="0.5"/>
      <path d="M43.25 -22.2 L39.5 -18.35 35.6 -22.2 43.25 -22.2" fill="#cccccc" fill-rule="evenodd" stroke="none"/>
      <path d="M43.25 -22.2 L43.25 -14.55 39.5 -18.35 43.25 -22.2 M35.6 -14.55 L35.6 -22.2 39.5 -18.35 35.6 -14.55" fill="#999999" fill-rule="evenodd" stroke="none"/>
      <path d="M39.5 -18.35 L43.25 -14.55 35.6 -14.55 39.5 -18.35" fill="#333333" fill-rule="evenodd" stroke="none"/>
      <path d="M43.25 -14.55 L43.25 -22.2 35.6 -22.2 35.6 -14.55 43.25 -14.55" fill="none" stroke="#000000" stroke-linecap="round" stroke-linejoin="round" stroke-opacity="0.4" stroke-width="1.0"/>
      <path d="M43.25 -22.2 L39.5 -18.35 43.25 -14.55 M39.5 -18.35 L35.6 -14.55 M35.6 -22.2 L39.5 -18.35" fill="none" stroke="#000000" stroke-linecap="round" stroke-linejoin="round" stroke-opacity="0.2" stroke-width="0.5"/>
      <path d="M43.25 -13.45 L39.5 -9.6 35.6 -13.45 43.25 -13.45" fill="#cccccc" fill-rule="evenodd" stroke="none"/>
      <path d="M43.25 -5.8 L39.5 -9.6 35.6 -5.8 35.6 -13.45 39.5 -9.6 43.25 -13.45 43.25 -5.8" fill="#999999" fill-rule="evenodd" stroke="none"/>
      <path d="M35.6 -5.8 L39.5 -9.6 43.25 -5.8 35.6 -5.8" fill="#333333" fill-rule="evenodd" stroke="none"/>
      <path d="M35.6 -5.8 L43.25 -5.8 43.25 -13.45 35.6 -13.45 35.6 -5.8" fill="none" stroke="#000000" stroke-linecap="round" stroke-linejoin="round" stroke-opacity="0.4" stroke-width="1.0"/>
      <path d="M43.25 -5.8 L39.5 -9.6 35.6 -5.8 M43.25 -13.45 L39.5 -9.6 35.6 -13.45" fill="none" stroke="#000000" stroke-linecap="round" stroke-linejoin="round" stroke-opacity="0.2" stroke-width="0.5"/>
    </g>
    <linearGradient gradientTransform="matrix(0.0799, 0.0, 0.0, 0.0099, -4.15, -14.1)" gradientUnits="userSpaceOnUse" id="gradient0" spreadMethod="pad" x1="-819.2" x2="819.2">
      <stop offset="0.0" stop-color="#333333"/>
      <stop offset="1.0" stop-color="#1c1c1c"/>
    </linearGradient>
    <linearGradient gradientTransform="matrix(4.0E-4, -0.0111, 0.0119, 4.0E-4, 14.7, -19.8)" gradientUnits="userSpaceOnUse" id="gradient1" spreadMethod="pad" x1="-819.2" x2="819.2">
      <stop offset="0.0" stop-color="#cccccc"/>
      <stop offset="1.0" stop-color="#999999"/>
    </linearGradient>
  </defs>
</svg>
