<?xml version="1.0" encoding="UTF-8" standalone="no"?>
<svg xmlns:xlink="http://www.w3.org/1999/xlink" height="531.5px" width="460.6px" xmlns="http://www.w3.org/2000/svg">
  <g transform="matrix(1.0, 0.0, 0.0, 1.0, 193.65, 334.05)">
    <use height="27.75" transform="matrix(1.0, 0.0, 0.0, 1.0, -70.75, -26.75)" width="135.2" xlink:href="#shape0"/>
  </g>
  <defs>
    <g id="shape0" transform="matrix(1.0, 0.0, 0.0, 1.0, 70.75, 26.75)">
      <path d="M63.1 -6.7 L62.25 -3.8 -68.7 -3.8 -69.45 -6.7 63.1 -6.7" fill="#990099" fill-rule="evenodd" stroke="none"/>
      <path d="M-70.05 -10.15 L-70.0 -10.15 63.7 -10.15 63.25 -7.65 63.1 -6.7 63.25 -7.65 63.7 -10.15 63.8 -10.15 63.25 -6.7 63.1 -6.7 -69.45 -6.7 -69.65 -6.7 -70.05 -10.15 M-70.0 -10.15 L-69.65 -7.65 -69.45 -6.7 -69.65 -7.65 -70.0 -10.15" fill="#0066cc" fill-rule="evenodd" stroke="none"/>
      <path d="M-70.25 -13.6 L63.95 -13.6 63.8 -10.9 63.7 -10.15 63.8 -10.9 63.8 -10.15 63.7 -10.15 -70.0 -10.15 -70.05 -10.15 -70.25 -13.6 -70.05 -10.9 -70.0 -10.15 -70.05 -10.9 -70.25 -13.6" fill="#009933" fill-rule="evenodd" stroke="none"/>
      <path d="M63.85 -17.05 L63.95 -14.9 63.95 -14.2 63.95 -13.6 -70.25 -13.6 -70.25 -13.85 -70.25 -14.2 -70.0 -17.05 63.85 -17.05" fill="#ffcc00" fill-rule="evenodd" stroke="none"/>
      <path d="M63.25 -20.5 L63.85 -17.05 -70.0 -17.05 -70.0 -17.45 -69.45 -20.5 63.25 -20.5" fill="#ff6600" fill-rule="evenodd" stroke="none"/>
      <path d="M62.25 -23.75 L63.25 -20.5 -69.45 -20.5 -69.45 -20.65 -68.7 -23.75 62.25 -23.75" fill="#ff0000" fill-rule="evenodd" stroke="none"/>
      <path d="M63.95 -14.9 L63.85 -17.45 63.25 -20.65 62.25 -23.75 -68.7 -23.75 -69.45 -20.65 -69.45 -20.5 -70.0 -17.45 -70.25 -14.2 -70.25 -13.85 -70.25 -13.6 -70.05 -10.9 -70.0 -10.15 -69.65 -7.65 -69.45 -6.7 -68.7 -3.8 62.25 -3.8 63.1 -6.7 63.25 -7.65 63.7 -10.15 63.8 -10.9 63.95 -13.6 63.95 -14.2 63.95 -14.9 Z" fill="none" stroke="#000000" stroke-linecap="round" stroke-linejoin="round" stroke-opacity="0.4" stroke-width="1.0"/>
      <path d="M6.9 -6.8 L7.1 -6.0 Q15.45 -4.55 23.55 -6.0 L23.9 -8.35 Q26.3 -9.3 28.7 -10.6 L31.0 -11.85 Q30.95 -6.25 29.9 -0.75 15.7 1.8 0.9 -0.75 -0.5 -5.4 -0.75 -10.3 2.6 -7.75 6.9 -6.8" fill="#969696" fill-rule="evenodd" stroke="none"/>
      <path d="M6.9 -6.8 Q2.6 -7.75 -0.75 -10.3 -1.25 -17.55 0.9 -25.3 15.1 -27.2 29.9 -25.3 31.1 -18.6 31.0 -11.85 L28.7 -10.6 Q26.3 -9.3 23.9 -8.35 24.55 -14.1 23.55 -19.9 15.1 -21.0 7.1 -19.9 5.1 -12.9 6.9 -6.8" fill="url(#gradient0)" fill-rule="evenodd" stroke="none"/>
      <path d="M23.9 -8.35 L23.55 -6.0 Q15.45 -4.55 7.1 -6.0 L6.9 -6.8 Q5.1 -12.9 7.1 -19.9 15.1 -21.0 23.55 -19.9 24.55 -14.1 23.9 -8.35 M-0.75 -10.3 Q-0.5 -5.4 0.9 -0.75 15.7 1.8 29.9 -0.75 30.95 -6.25 31.0 -11.85 31.1 -18.6 29.9 -25.3 15.1 -27.2 0.9 -25.3 -1.25 -17.55 -0.75 -10.3" fill="none" stroke="#000000" stroke-linecap="round" stroke-linejoin="round" stroke-opacity="0.4" stroke-width="1.0"/>
      <path d="M17.55 -10.4 Q16.7 -9.4 15.45 -9.4 14.25 -9.4 13.4 -10.4 12.55 -11.5 12.55 -12.95 12.55 -14.5 13.4 -15.5 14.25 -16.55 15.45 -16.55 16.7 -16.55 17.55 -15.5 18.4 -14.5 18.4 -12.95 18.4 -11.5 17.55 -10.4" fill="#000000" fill-rule="evenodd" stroke="none"/>
      <path d="M17.55 -10.4 Q16.7 -9.4 15.45 -9.4 14.25 -9.4 13.4 -10.4 12.55 -11.5 12.55 -12.95 12.55 -14.5 13.4 -15.5 14.25 -16.55 15.45 -16.55 16.7 -16.55 17.55 -15.5 18.4 -14.5 18.4 -12.95 18.4 -11.5 17.55 -10.4 Z" fill="none" stroke="#000000" stroke-linecap="round" stroke-linejoin="round" stroke-opacity="0.4" stroke-width="1.0"/>
      <path d="M27.25 -12.5 L26.6 -12.4 16.3 -11.4 14.15 -11.45 Q13.7 -13.5 14.65 -15.8 20.95 -17.15 26.85 -15.8 27.3 -14.25 27.25 -12.5 M22.1 -13.45 L23.9 -13.45 Q25.55 -13.5 25.55 -14.3 25.55 -15.1 23.2 -15.1 20.9 -15.1 20.9 -14.3 20.9 -13.5 22.1 -13.45" fill="#cccccc" fill-rule="evenodd" stroke="none"/>
      <path d="M14.15 -11.45 L16.3 -11.4 26.6 -12.4 27.25 -12.5 26.85 -9.95 Q19.65 -8.95 14.65 -9.95 14.25 -10.65 14.15 -11.45" fill="#a8a8a8" fill-rule="evenodd" stroke="none"/>
      <path d="M22.1 -13.45 Q20.9 -13.5 20.9 -14.3 20.9 -15.1 23.2 -15.1 25.55 -15.1 25.55 -14.3 25.55 -13.5 23.9 -13.45 L22.1 -13.45" fill="#e8e8e8" fill-rule="evenodd" stroke="none"/>
      <path d="M27.25 -12.5 Q27.3 -14.25 26.85 -15.8 20.95 -17.15 14.65 -15.8 13.7 -13.5 14.15 -11.45 14.25 -10.65 14.65 -9.95 19.65 -8.95 26.85 -9.95 L27.25 -12.5 Z" fill="none" stroke="#000000" stroke-linecap="round" stroke-linejoin="round" stroke-opacity="0.4" stroke-width="1.0"/>
    </g>
    <linearGradient gradientTransform="matrix(4.0E-4, -0.0111, 0.0119, 4.0E-4, 15.7, -18.85)" gradientUnits="userSpaceOnUse" id="gradient0" spreadMethod="pad" x1="-819.2" x2="819.2">
      <stop offset="0.0" stop-color="#cccccc"/>
      <stop offset="1.0" stop-color="#999999"/>
    </linearGradient>
  </defs>
</svg>
