<?xml version="1.0" encoding="UTF-8" standalone="no"?>
<svg xmlns:xlink="http://www.w3.org/1999/xlink" height="531.5px" width="460.6px" xmlns="http://www.w3.org/2000/svg">
  <g transform="matrix(1.0, 0.0, 0.0, 1.0, 193.65, 334.05)">
    <use height="54.95" transform="matrix(1.0, 0.0, 0.0, 1.0, -39.35, -227.5)" width="72.2" xlink:href="#shape0"/>
  </g>
  <defs>
    <g id="shape0" transform="matrix(1.0, 0.0, 0.0, 1.0, 39.35, 227.5)">
      <path d="M22.4 -224.6 L30.85 -223.65 29.85 -211.35 28.9 -199.0 27.3 -199.75 28.9 -199.0 27.6 -182.05 26.65 -181.4 27.6 -182.05 27.15 -175.3 26.15 -174.95 27.15 -175.3 26.9 -172.8 12.65 -172.8 12.95 -176.75 16.05 -217.55 16.6 -225.35 22.4 -224.6 22.15 -223.25 22.4 -224.6 M19.4 -200.55 L17.95 -202.8 19.4 -200.55 M18.6 -215.85 L16.05 -217.55 18.6 -215.85 M27.95 -210.85 L29.85 -211.35 27.95 -210.85 M24.05 -188.65 L25.7 -192.2 24.05 -188.65 M19.1 -180.1 L19.25 -184.15 19.1 -180.1" fill="url(#gradient0)" fill-rule="evenodd" stroke="none"/>
      <path d="M11.1 -224.7 L16.6 -225.35 16.05 -217.55 13.8 -219.05 16.05 -217.55 12.95 -176.75 12.65 -172.8 Q5.35 -176.55 -4.1 -179.8 L-2.55 -177.4 Q-21.15 -180.75 -39.1 -172.8 -33.6 -186.95 -25.35 -198.4 -21.55 -203.75 -17.1 -208.45 L-15.45 -210.1 -15.35 -210.1 -13.1 -198.6 -12.7 -209.1 -12.55 -212.8 Q-8.65 -216.15 -4.55 -218.65 L-4.4 -218.75 Q3.0 -223.25 11.1 -224.7 L10.4 -221.65 11.1 -224.7 M11.2 -178.5 L12.95 -176.75 11.2 -178.5 M0.6 -188.95 L0.1 -193.15 0.6 -188.95 M-24.05 -182.85 L-27.6 -184.45 -24.05 -182.85 M-8.25 -183.95 L-9.4 -185.4 -8.25 -183.95 M-24.2 -196.85 L-25.35 -198.4 -24.2 -196.85" fill="url(#gradient1)" fill-rule="evenodd" stroke="none"/>
      <path d="M-12.7 -209.1 L-13.1 -198.6 -15.35 -210.1 -12.7 -209.1" fill="#002b00" fill-rule="evenodd" stroke="none"/>
      <path d="M22.65 -226.8 L22.4 -224.6 30.85 -223.65 29.85 -211.35 32.6 -211.95 M22.4 -224.6 L22.15 -223.25 M16.6 -225.35 L11.1 -224.7 10.4 -221.65 M11.1 -224.7 L11.7 -227.25 M17.95 -202.8 L19.4 -200.55 M13.8 -219.05 L16.05 -217.55 16.6 -225.35 22.4 -224.6 M16.05 -217.55 L18.6 -215.85 M28.9 -199.0 L29.85 -211.35 27.95 -210.85 M28.9 -199.0 L30.05 -198.6 M27.3 -199.75 L28.9 -199.0 27.6 -182.05 29.05 -183.15 M25.7 -192.2 L24.05 -188.65 M27.6 -182.05 L26.65 -181.4 M27.15 -175.3 L27.6 -182.05 M27.15 -175.3 L30.5 -176.75 M26.15 -174.95 L27.15 -175.3 26.9 -172.8 12.65 -172.8 Q5.35 -176.55 -4.1 -179.8 L-2.55 -177.4 Q-21.15 -180.75 -39.1 -172.8 -33.6 -186.95 -25.35 -198.4 L-26.6 -200.25 M19.25 -184.15 L19.1 -180.1 M0.1 -193.15 L0.6 -188.95 M12.95 -176.75 L11.2 -178.5 M12.65 -172.8 L12.95 -176.75 16.05 -217.55 M-4.4 -218.75 L-4.75 -220.35 M-12.7 -209.1 L-12.55 -212.8 Q-8.65 -216.15 -4.55 -218.65 L-4.4 -218.75 Q3.0 -223.25 11.1 -224.7 M-15.35 -210.1 L-13.1 -198.6 -12.7 -209.1 -15.35 -210.1 -15.45 -210.1 -17.1 -208.45 Q-21.55 -203.75 -25.35 -198.4 L-24.2 -196.85 M-9.4 -185.4 L-8.25 -183.95 M-27.6 -184.45 L-24.05 -182.85" fill="none" stroke="#000000" stroke-linecap="round" stroke-linejoin="round" stroke-opacity="0.4" stroke-width="0.5"/>
    </g>
    <linearGradient gradientTransform="matrix(-0.0037, 0.0251, -0.0317, -0.0046, 21.8, -196.55)" gradientUnits="userSpaceOnUse" id="gradient0" spreadMethod="pad" x1="-819.2" x2="819.2">
      <stop offset="0.0" stop-color="#21a621"/>
      <stop offset="1.0" stop-color="#036903"/>
    </linearGradient>
    <linearGradient gradientTransform="matrix(0.0, 0.0271, -1.6092, 0.0, 87.4, -192.35)" gradientUnits="userSpaceOnUse" id="gradient1" spreadMethod="pad" x1="-819.2" x2="819.2">
      <stop offset="0.0" stop-color="#0c660c"/>
      <stop offset="1.0" stop-color="#004d00"/>
    </linearGradient>
  </defs>
</svg>
