<?xml version="1.0" encoding="UTF-8" standalone="no"?>
<svg xmlns:xlink="http://www.w3.org/1999/xlink" height="531.5px" width="460.6px" xmlns="http://www.w3.org/2000/svg">
  <g transform="matrix(1.0, 0.0, 0.0, 1.0, 193.65, 334.05)">
    <use height="61.1" transform="matrix(1.0137, 0.0, 0.0, 1.0099, -47.1082, -167.402)" width="103.4" xlink:href="#shape0"/>
  </g>
  <defs>
    <g id="shape0" transform="matrix(1.0, 0.0, 0.0, 1.0, 0.6, 0.2)">
      <path d="M79.2 21.65 L80.8 21.1 83.7 19.8 Q86.85 18.15 88.95 15.7 L89.0 15.65 91.0 12.5 Q92.15 10.35 93.0 7.3 L93.2 6.4 95.4 11.2 95.7 13.85 95.9 15.65 96.25 19.35 96.55 29.2 96.55 30.05 96.55 30.85 96.5 34.8 95.9 41.6 95.9 41.8 Q95.25 46.4 94.2 49.7 92.95 53.7 91.1 55.95 88.95 58.2 86.45 58.7 L84.35 58.5 81.6 57.75 Q80.8 57.4 80.05 57.2 L78.2 56.7 Q75.7 55.95 73.25 55.7 L70.75 55.35 70.25 55.25 69.65 55.2 Q65.2 54.8 60.6 55.2 L58.4 55.25 57.45 55.3 57.0 53.95 56.85 55.35 56.25 55.4 52.95 55.75 Q49.25 56.15 45.55 57.1 L44.2 57.25 43.95 57.3 44.0 57.25 43.4 57.45 42.9 57.6 36.8 58.95 35.05 59.45 30.5 60.05 29.4 60.3 28.4 60.25 28.1 60.05 27.8 59.8 27.7 59.65 27.4 59.5 26.8 58.8 25.9 59.6 25.35 60.05 Q22.1 59.65 18.9 58.7 L15.05 57.05 14.05 56.45 12.65 55.4 12.4 55.25 12.35 54.45 12.25 53.75 12.15 52.25 11.45 54.2 11.4 54.35 11.3 54.35 11.35 54.3 Q9.2 52.4 7.5 49.9 5.55 47.3 4.25 44.2 L3.85 43.0 3.8 42.9 3.05 40.85 Q1.55 36.4 0.8 31.1 L0.55 29.3 Q0.1 25.5 0.05 21.35 L0.0 20.6 Q-0.1 14.8 0.5 8.15 L0.8 5.55 1.1 4.2 1.1 4.1 1.15 3.95 0.95 7.5 1.45 6.1 1.85 5.3 1.95 3.5 2.1 1.3 2.1 1.25 2.45 0.6 3.0 1.95 3.55 3.15 4.85 5.45 6.85 8.5 7.15 8.9 Q8.55 10.8 10.3 12.45 L12.25 14.2 12.85 14.7 14.05 15.6 16.0 16.9 Q17.9 18.05 20.1 19.1 23.1 20.55 26.7 21.5 L32.35 22.9 36.7 23.45 44.1 23.75 46.2 23.55 56.25 23.05 62.65 23.25 69.7 23.15 70.75 23.1 71.75 23.0 73.6 22.8 77.4 22.1 78.6 21.8 79.05 22.8 79.2 21.65 M5.05 11.0 L5.25 15.95 5.4 17.6 5.45 18.5 Q5.7 17.45 6.05 16.7 L6.1 16.65 6.5 15.7 6.35 13.85 6.35 13.5 6.2 9.2 Q5.55 9.9 5.05 11.0 M14.7 26.6 L12.0 31.85 11.8 33.2 12.5 32.45 15.35 28.9 14.7 26.6" fill="#000000" fill-rule="evenodd" stroke="none"/>
      <path d="M95.9 41.8 L95.9 41.6 96.1 42.0 95.9 41.8 M14.7 26.6 L15.35 28.9 12.5 32.45 11.8 33.2 12.0 31.85 14.7 26.6" fill="#fff9eb" fill-rule="evenodd" stroke="none"/>
      <path d="M79.2 21.65 L79.05 22.8 78.6 21.8 79.2 21.65 M7.15 8.9 L6.85 8.5 7.1 8.3 7.15 8.9 M2.1 1.25 L2.1 1.3 1.95 3.5 1.85 5.3 1.45 6.1 0.95 7.5 1.15 3.95 1.15 3.9 1.4 1.45 Q1.8 0.55 2.25 0.0 L2.1 1.25 M11.4 54.35 L11.45 54.2 12.15 52.25 12.25 53.75 12.35 54.45 12.4 55.25 11.4 54.35 M25.35 60.05 L25.9 59.6 26.8 58.8 27.4 59.5 27.7 59.65 27.8 59.8 28.1 60.05 28.4 60.25 28.2 60.25 25.8 60.1 25.85 59.85 25.9 59.6 25.85 59.85 25.8 60.1 25.35 60.05 M56.85 55.35 L57.0 53.95 57.45 55.3 56.85 55.35 M5.05 11.0 Q5.55 9.9 6.2 9.2 L6.35 13.5 6.35 13.85 6.5 15.7 6.1 16.65 6.05 16.7 Q5.7 17.45 5.45 18.5 L5.4 17.6 5.25 15.95 5.05 11.0" fill="#e0ca9e" fill-rule="evenodd" stroke="none"/>
      <path d="M12.4 55.25 L12.65 55.4 12.5 55.7 12.4 55.25" fill="#ffe7b5" fill-rule="evenodd" stroke="none"/>
      <path d="M0.95 7.5 L1.15 3.95 1.15 3.9 1.4 1.45 Q1.8 0.55 2.25 0.0 M11.35 54.3 L11.3 54.35 M11.4 54.35 L11.45 54.2 M44.0 57.25 L43.95 57.3 M95.9 41.6 L96.1 42.0 M102.6 49.8 L102.0 51.95 M32.35 22.9 L32.3 22.35 M7.1 8.3 L6.85 8.5 M25.35 60.05 L24.6 60.65" fill="none" stroke="#000000" stroke-linecap="round" stroke-linejoin="round" stroke-opacity="0.34901962" stroke-width="0.4"/>
      <path d="M100.65 45.65 L100.5 45.35 99.85 43.8 99.6 43.15 M102.6 49.8 L102.2 49.0 M14.25 9.5 L14.5 10.95 M2.1 1.25 L2.25 0.0 M7.1 8.3 L7.15 8.9 M25.9 59.6 L25.85 59.85 25.8 60.1 M12.5 55.7 L12.65 55.4" fill="none" stroke="#000000" stroke-linecap="round" stroke-linejoin="round" stroke-opacity="0.14901961" stroke-width="0.4"/>
      <path d="M2.1 1.25 L2.45 0.6 3.0 1.95 3.55 3.15 3.0 3.55 Q2.85 3.45 2.8 3.75 L2.75 3.8 2.55 3.95 1.85 5.3 1.95 3.5 2.1 1.3 2.1 1.25" fill="#e0ca9e" fill-rule="evenodd" stroke="none"/>
      <path d="M1.85 5.3 L2.55 3.95 2.75 3.8 2.8 3.75 Q2.85 3.45 3.0 3.55 L3.55 3.15 4.85 5.45 6.85 8.5 Q6.5 8.7 6.2 9.2 5.55 9.9 5.05 11.0 L5.25 15.95 3.7 18.75 3.45 19.85 5.4 17.6 5.45 18.5 5.45 18.55 5.4 18.6 Q3.05 21.5 2.75 21.1 1.5 18.9 1.1 15.0 L0.85 12.0 0.95 7.5 1.45 6.1 1.85 5.3 Q1.65 9.05 2.0 11.6 1.65 9.05 1.85 5.3 M2.7 6.4 L2.75 3.8 2.7 6.4" fill="#ffe7b5" fill-rule="evenodd" stroke="none"/>
      <path d="M5.25 15.95 L5.4 17.6 3.45 19.85 3.7 18.75 5.25 15.95" fill="#fff9eb" fill-rule="evenodd" stroke="none"/>
      <path d="M2.1 1.25 L2.1 1.3 1.95 3.5 1.85 5.3 Q1.65 9.05 2.0 11.6 M2.75 3.8 L2.7 6.4" fill="none" stroke="#000000" stroke-linecap="round" stroke-linejoin="round" stroke-opacity="0.14901961" stroke-width="0.4"/>
      <path d="M5.45 18.55 L5.4 18.6 Q3.05 21.5 2.75 21.1 1.5 18.9 1.1 15.0 L0.85 12.0 0.95 7.5" fill="none" stroke="#000000" stroke-linecap="round" stroke-linejoin="round" stroke-opacity="0.34901962" stroke-width="0.4"/>
      <path d="M6.5 15.7 L6.35 13.85 6.35 13.5 6.2 9.2 Q6.5 8.7 6.85 8.5 L7.15 8.9 Q8.55 10.8 10.3 12.45 L8.9 12.8 8.25 13.1 8.0 13.35 7.7 13.6 7.65 13.7 7.4 13.95 Q7.0 14.45 6.5 15.7 M7.15 9.35 L7.15 8.9 7.15 9.35" fill="#e0ca9e" fill-rule="evenodd" stroke="none"/>
      <path d="M5.45 18.5 Q5.7 17.45 6.05 16.7 L6.1 16.65 6.5 15.7 Q7.0 14.45 7.4 13.95 L7.65 13.7 7.7 13.6 8.0 13.35 8.25 13.1 8.9 12.8 10.3 12.45 12.25 14.2 Q13.0 19.4 14.05 24.05 L14.7 26.6 12.0 31.85 11.8 33.2 12.5 32.45 15.35 28.9 15.7 30.1 14.6 31.4 13.1 33.2 Q11.3 35.25 10.9 34.9 L9.95 33.65 Q8.25 31.3 7.15 27.65 L6.2 24.05 5.45 18.55 5.45 18.5 M8.1 16.9 L7.85 15.25 7.7 14.1 7.65 13.7 7.7 14.1 7.85 15.25 8.1 16.9 M6.5 15.7 L6.55 16.0 6.65 17.0 Q7.05 20.8 7.95 23.4 7.05 20.8 6.65 17.0 L6.55 16.0 6.5 15.7" fill="#ffe7b5" fill-rule="evenodd" stroke="none"/>
      <path d="M14.7 26.6 L15.35 28.9 12.5 32.45 11.8 33.2 12.0 31.85 14.7 26.6" fill="#fff9eb" fill-rule="evenodd" stroke="none"/>
      <path d="M6.2 9.2 Q5.55 9.9 5.05 11.0 L5.25 15.95 5.4 17.6 5.45 18.5 5.45 18.55 6.2 24.05 7.15 27.65 Q8.25 31.3 9.95 33.65 L10.9 34.9 Q11.3 35.25 13.1 33.2 L14.6 31.4 15.7 30.1 M6.2 9.2 Q6.5 8.7 6.85 8.5" fill="none" stroke="#000000" stroke-linecap="round" stroke-linejoin="round" stroke-opacity="0.34901962" stroke-width="0.4"/>
      <path d="M6.5 15.7 L6.35 13.85 6.35 13.5 6.2 9.2 M7.15 8.9 L7.15 9.35 M7.65 13.7 L7.7 14.1 7.85 15.25 8.1 16.9 M7.95 23.4 Q7.05 20.8 6.65 17.0 L6.55 16.0 6.5 15.7" fill="none" stroke="#000000" stroke-linecap="round" stroke-linejoin="round" stroke-opacity="0.14901961" stroke-width="0.4"/>
      <path d="M0.8 31.1 Q2.65 29.5 4.55 28.75 5.2 28.55 6.9 33.9 L7.4 35.65 6.55 36.5 Q5.8 33.45 4.7 30.75 L4.4 32.2 5.05 38.15 3.3 40.4 3.05 40.85 Q1.55 36.4 0.8 31.1" fill="#ffe7b5" fill-rule="evenodd" stroke="none"/>
      <path d="M6.55 36.5 L5.7 37.4 5.05 38.15 4.4 32.2 4.7 30.75 Q5.8 33.45 6.55 36.5" fill="#fff9eb" fill-rule="evenodd" stroke="none"/>
      <path d="M0.8 31.1 Q2.65 29.5 4.55 28.75 5.2 28.55 6.9 33.9 L7.4 35.65" fill="none" stroke="#000000" stroke-linecap="round" stroke-linejoin="round" stroke-opacity="0.34901962" stroke-width="0.4"/>
      <path d="M9.95 33.65 L10.9 34.9 Q11.3 35.25 13.1 33.2 L14.5 37.75 15.65 43.4 15.75 44.6 14.75 46.4 14.45 42.75 Q13.8 38.3 12.5 34.45 L12.1 35.9 12.55 43.25 Q12.3 45.7 12.5 47.8 L12.75 47.75 14.05 47.85 12.15 52.25 11.45 54.2 11.35 54.3 Q9.2 52.4 7.5 49.9 5.55 47.3 4.25 44.2 L3.85 43.0 3.8 42.9 3.05 40.85 3.3 40.4 5.05 38.15 5.7 37.4 6.55 36.5 7.4 35.65 9.95 33.65 M3.8 42.9 L4.7 41.95 3.8 42.9" fill="#ffe7b5" fill-rule="evenodd" stroke="none"/>
      <path d="M14.75 46.4 L14.65 46.5 14.05 47.85 12.75 47.75 12.5 47.8 Q12.3 45.7 12.55 43.25 L12.1 35.9 12.5 34.45 Q13.8 38.3 14.45 42.75 L14.75 46.4" fill="#fff9eb" fill-rule="evenodd" stroke="none"/>
      <path d="M13.1 33.2 L14.5 37.75 15.65 43.4 15.75 44.6 M12.15 52.25 L11.45 54.2 11.35 54.3 M3.05 40.85 L3.3 40.4 5.05 38.15 5.7 37.4 6.55 36.5 7.4 35.65 9.95 33.65" fill="none" stroke="#000000" stroke-linecap="round" stroke-linejoin="round" stroke-opacity="0.34901962" stroke-width="0.4"/>
      <path d="M4.7 41.95 L3.8 42.9" fill="none" stroke="#000000" stroke-linecap="round" stroke-linejoin="round" stroke-opacity="0.14901961" stroke-width="0.4"/>
      <path d="M12.15 52.25 L14.05 47.85 14.65 46.5 14.75 46.4 15.75 44.6 16.75 42.85 Q18.0 40.85 19.35 39.45 21.5 43.7 24.15 46.1 L24.6 46.0 25.0 47.9 Q25.15 50.2 25.6 52.2 L25.75 52.8 26.0 52.6 Q26.85 52.85 27.85 52.25 L27.95 51.3 27.25 48.15 27.0 47.05 26.05 44.25 26.75 43.1 28.1 46.6 28.45 47.55 Q29.45 51.4 28.45 56.85 L28.3 57.5 27.7 59.65 27.4 59.5 26.8 58.8 25.9 59.6 25.35 60.05 Q22.1 59.65 18.9 58.7 L15.05 57.05 14.05 56.45 12.65 55.4 12.4 55.25 12.35 54.45 12.25 53.75 12.15 52.25 M14.65 55.0 L14.05 56.45 14.65 55.0 M12.65 55.4 L13.65 52.85 14.85 50.35 16.4 47.85 14.85 50.35 13.65 52.85 12.65 55.4" fill="#ffe7b5" fill-rule="evenodd" stroke="none"/>
      <path d="M24.6 46.0 L26.05 44.25 27.0 47.05 27.25 48.15 27.95 51.3 27.85 52.25 Q26.85 52.85 26.0 52.6 L25.75 52.8 25.6 52.2 Q25.15 50.2 25.0 47.9 L24.6 46.0" fill="#fff9eb" fill-rule="evenodd" stroke="none"/>
      <path d="M12.15 52.25 L14.05 47.85 14.65 46.5 14.75 46.4 15.75 44.6 16.75 42.85 Q18.0 40.85 19.35 39.45 M26.75 43.1 L28.1 46.6 28.45 47.55 Q29.45 51.4 28.45 56.85 M25.9 59.6 L25.35 60.05" fill="none" stroke="#000000" stroke-linecap="round" stroke-linejoin="round" stroke-opacity="0.34901962" stroke-width="0.4"/>
      <path d="M28.45 56.85 L28.3 57.5 27.7 59.65 M16.4 47.85 L14.85 50.35 13.65 52.85 12.65 55.4 M14.05 56.45 L14.65 55.0" fill="none" stroke="#000000" stroke-linecap="round" stroke-linejoin="round" stroke-opacity="0.14901961" stroke-width="0.4"/>
      <path d="M16.0 16.9 Q17.9 18.05 20.1 19.1 23.1 20.55 26.7 21.5 L32.35 22.9 Q32.6 25.75 32.45 28.25 L32.05 31.55 31.25 34.25 Q30.05 37.2 28.15 40.6 L26.75 43.1 26.05 44.25 24.6 46.0 24.15 46.1 Q21.5 43.7 19.35 39.45 L18.0 36.5 Q17.0 34.3 16.15 31.6 L15.7 30.1 15.35 28.9 14.7 26.6 14.05 24.05 14.5 21.4 14.85 19.9 15.85 23.9 16.75 26.7 17.2 28.05 18.2 30.4 17.2 28.05 16.75 26.7 15.85 23.9 14.85 19.9 Q15.25 18.05 15.7 17.35 L15.95 16.95 16.0 16.9 M17.15 21.35 L15.95 16.95 17.15 21.35 M31.25 29.6 L31.25 28.45 30.1 27.65 29.25 27.45 28.95 27.3 Q28.15 29.7 27.6 32.8 L24.95 41.5 24.9 41.6 24.9 43.6 25.5 42.75 26.15 41.65 Q28.05 38.35 29.6 34.45 L31.15 29.9 31.25 29.6" fill="#ffe7b5" fill-rule="evenodd" stroke="none"/>
      <path d="M16.0 16.9 L15.95 16.95 15.7 17.35 Q15.25 18.05 14.85 19.9 L14.5 21.4 14.05 24.05 Q13.0 19.4 12.25 14.2 L12.85 14.7 14.05 15.6 14.3 16.8 14.85 19.9 14.3 16.8 14.05 15.6 16.0 16.9" fill="#e0ca9e" fill-rule="evenodd" stroke="none"/>
      <path d="M31.25 29.6 L31.15 29.9 29.6 34.45 Q28.05 38.35 26.15 41.65 L25.5 42.75 24.9 43.6 24.9 41.6 24.95 41.5 27.6 32.8 Q28.15 29.7 28.95 27.3 L29.25 27.45 30.1 27.65 31.25 28.45 31.25 29.6" fill="#fff9eb" fill-rule="evenodd" stroke="none"/>
      <path d="M15.95 16.95 L17.15 21.35 M14.85 19.9 L14.3 16.8 14.05 15.6 M18.2 30.4 L17.2 28.05 16.75 26.7 15.85 23.9 14.85 19.9" fill="none" stroke="#000000" stroke-linecap="round" stroke-linejoin="round" stroke-opacity="0.14901961" stroke-width="0.4"/>
      <path d="M12.25 14.2 Q13.0 19.4 14.05 24.05 L14.7 26.6 15.35 28.9 15.7 30.1 16.15 31.6 Q17.0 34.3 18.0 36.5 L19.35 39.45 Q21.5 43.7 24.15 46.1 L24.6 46.0 26.05 44.25 26.75 43.1 28.15 40.6 Q30.05 37.2 31.25 34.25 L32.05 31.55 32.45 28.25 Q32.6 25.75 32.35 22.9" fill="none" stroke="#000000" stroke-linecap="round" stroke-linejoin="round" stroke-opacity="0.34901962" stroke-width="0.4"/>
      <path d="M32.45 28.25 Q32.6 25.75 32.35 22.9 L36.7 23.45 44.1 23.75 46.2 23.55 Q46.65 27.35 45.75 30.3 L43.35 35.65 42.35 37.6 Q40.7 40.65 40.15 40.5 36.7 38.8 33.8 34.45 L32.05 31.55 32.45 28.25 33.5 29.8 32.45 28.25 M43.25 33.4 L44.25 30.75 45.35 26.75 45.2 25.95 Q44.25 25.35 43.35 25.55 L43.1 25.45 Q42.45 27.4 42.3 29.9 L40.45 37.05 40.6 38.5 41.75 36.5 43.25 33.4" fill="#ffe7b5" fill-rule="evenodd" stroke="none"/>
      <path d="M43.25 33.4 L41.75 36.5 40.6 38.5 40.45 37.05 42.3 29.9 Q42.45 27.4 43.1 25.45 L43.35 25.55 Q44.25 25.35 45.2 25.95 L45.35 26.75 44.25 30.75 43.25 33.4" fill="#fff9eb" fill-rule="evenodd" stroke="none"/>
      <path d="M32.05 31.55 L33.8 34.45 Q36.7 38.8 40.15 40.5 40.7 40.65 42.35 37.6 L43.35 35.65 45.75 30.3 Q46.65 27.35 46.2 23.55" fill="none" stroke="#000000" stroke-linecap="round" stroke-linejoin="round" stroke-opacity="0.34901962" stroke-width="0.4"/>
      <path d="M32.45 28.25 L33.5 29.8" fill="none" stroke="#000000" stroke-linecap="round" stroke-linejoin="round" stroke-opacity="0.14901961" stroke-width="0.4"/>
      <path d="M56.05 51.5 Q56.55 50.2 57.65 48.55 58.8 46.9 61.5 45.55 64.2 44.2 65.95 46.35 67.2 47.9 68.2 50.2 L68.9 52.1 69.1 52.75 69.65 55.2 Q65.2 54.8 60.6 55.2 L58.4 55.25 57.45 55.3 57.0 53.95 56.95 53.75 56.05 51.5 M67.65 51.15 L67.35 50.45 Q65.7 47.4 63.8 46.65 L65.7 51.2 66.35 53.4 66.8 54.5 67.05 54.45 67.95 54.4 68.65 54.05 68.65 53.35 67.65 51.15 M56.95 53.75 L58.1 51.75 56.95 53.75" fill="#ffe7b5" fill-rule="evenodd" stroke="none"/>
      <path d="M67.65 51.15 L68.65 53.35 68.65 54.05 67.95 54.4 67.05 54.45 66.8 54.5 66.35 53.4 65.7 51.2 63.8 46.65 Q65.7 47.4 67.35 50.45 L67.65 51.15" fill="#fff9eb" fill-rule="evenodd" stroke="none"/>
      <path d="M56.05 51.5 Q56.55 50.2 57.65 48.55 58.8 46.9 61.5 45.55 64.2 44.2 65.95 46.35 67.2 47.9 68.2 50.2 L68.9 52.1 69.1 52.75 69.65 55.2 M57.45 55.3 L57.0 53.95" fill="none" stroke="#000000" stroke-linecap="round" stroke-linejoin="round" stroke-opacity="0.34901962" stroke-width="0.4"/>
      <path d="M58.1 51.75 L56.95 53.75" fill="none" stroke="#000000" stroke-linecap="round" stroke-linejoin="round" stroke-opacity="0.14901961" stroke-width="0.4"/>
      <path d="M44.4 51.4 L44.65 50.7 Q45.55 48.7 46.95 46.85 48.3 45.05 49.75 44.75 51.2 44.45 52.9 46.45 54.55 48.45 55.4 50.1 L56.05 51.5 56.95 53.75 57.0 53.95 56.85 55.35 56.25 55.4 52.95 55.75 Q49.25 56.15 45.55 57.1 L44.2 57.25 44.15 57.1 45.25 56.15 Q45.2 53.5 44.4 51.4 M55.4 53.5 L56.2 55.35 56.25 55.4 56.2 55.35 55.4 53.5 55.5 53.45 55.55 52.85 55.55 52.8 54.35 49.85 Q52.85 46.8 51.3 46.65 52.2 49.25 52.95 50.6 53.3 52.45 53.9 53.9 L54.1 53.85 55.3 53.6 55.4 53.5" fill="#ffe7b5" fill-rule="evenodd" stroke="none"/>
      <path d="M55.4 53.5 L55.3 53.6 54.1 53.85 53.9 53.9 Q53.3 52.45 52.95 50.6 52.2 49.25 51.3 46.65 52.85 46.8 54.35 49.85 L55.55 52.8 55.55 52.85 55.5 53.45 55.4 53.5" fill="#fff9eb" fill-rule="evenodd" stroke="none"/>
      <path d="M57.0 53.95 L56.95 53.75 56.05 51.5 55.4 50.1 Q54.55 48.45 52.9 46.45 51.2 44.45 49.75 44.75 48.3 45.05 46.95 46.85 45.55 48.7 44.65 50.7 L44.4 51.4 M44.15 57.1 L44.2 57.25" fill="none" stroke="#000000" stroke-linecap="round" stroke-linejoin="round" stroke-opacity="0.34901962" stroke-width="0.4"/>
      <path d="M56.25 55.4 L56.2 55.35 55.4 53.5" fill="none" stroke="#000000" stroke-linecap="round" stroke-linejoin="round" stroke-opacity="0.14901961" stroke-width="0.4"/>
      <path d="M28.1 46.6 Q30.25 42.95 33.45 41.1 34.25 40.75 38.5 44.5 L42.75 48.5 Q43.8 49.75 44.4 51.4 45.2 53.5 45.25 56.15 L44.15 57.1 44.0 57.25 43.4 57.45 42.9 57.6 36.8 58.95 35.05 59.45 30.5 60.05 29.4 60.3 28.4 60.25 28.1 60.05 27.8 59.8 27.7 59.65 28.3 57.5 28.45 56.85 Q29.45 51.4 28.45 47.55 L28.1 46.6 M34.55 42.65 L34.8 43.9 38.8 49.5 Q39.75 51.4 40.95 52.95 L41.25 52.85 Q42.35 52.85 43.35 52.2 L43.25 51.55 40.9 48.4 Q38.0 45.15 34.55 42.65" fill="#ffe7b5" fill-rule="evenodd" stroke="none"/>
      <path d="M34.55 42.65 Q38.0 45.15 40.9 48.4 L43.25 51.55 43.35 52.2 Q42.35 52.85 41.25 52.85 L40.95 52.95 Q39.75 51.4 38.8 49.5 L34.8 43.9 34.55 42.65" fill="#fff9eb" fill-rule="evenodd" stroke="none"/>
      <path d="M28.1 46.6 Q30.25 42.95 33.45 41.1 34.25 40.75 38.5 44.5 L42.75 48.5 Q43.8 49.75 44.4 51.4 45.2 53.5 45.25 56.15 L44.15 57.1 44.0 57.25" fill="none" stroke="#000000" stroke-linecap="round" stroke-linejoin="round" stroke-opacity="0.34901962" stroke-width="0.4"/>
      <path d="M56.25 23.05 L57.45 24.15 Q58.05 27.2 56.65 32.4 55.85 35.25 54.85 37.55 L52.95 41.05 Q50.8 44.35 47.5 42.6 44.2 40.8 42.85 38.45 L42.35 37.6 43.35 35.65 45.75 30.3 Q46.65 27.35 46.2 23.55 L56.25 23.05 M52.75 33.8 L52.7 33.95 50.35 40.7 Q52.25 39.7 54.05 36.25 L54.7 34.9 56.35 30.45 56.3 29.5 Q55.35 28.85 54.4 29.05 L54.1 28.95 Q53.3 31.15 52.75 33.8" fill="#ffe7b5" fill-rule="evenodd" stroke="none"/>
      <path d="M52.75 33.8 Q53.3 31.15 54.1 28.95 L54.4 29.05 Q55.35 28.85 56.3 29.5 L56.35 30.45 54.7 34.9 54.05 36.25 Q52.25 39.7 50.35 40.7 L52.7 33.95 52.75 33.8" fill="#fff9eb" fill-rule="evenodd" stroke="none"/>
      <path d="M42.35 37.6 L42.85 38.45 Q44.2 40.8 47.5 42.6 50.8 44.35 52.95 41.05 L54.85 37.55 Q55.85 35.25 56.65 32.4 58.05 27.2 57.45 24.15 L56.25 23.05" fill="none" stroke="#000000" stroke-linecap="round" stroke-linejoin="round" stroke-opacity="0.34901962" stroke-width="0.4"/>
      <path d="M54.85 37.55 Q55.85 35.25 56.65 32.4 58.05 27.2 57.45 24.15 L56.25 23.05 62.65 23.25 69.7 23.15 70.75 23.1 71.15 24.75 71.5 25.95 71.85 28.25 69.4 34.05 67.5 37.1 65.5 39.65 Q62.9 42.75 60.65 42.4 58.4 42.1 56.35 39.55 L54.85 37.55 M67.1 28.55 Q66.15 30.85 65.55 33.55 L65.25 34.15 Q64.25 36.1 63.0 39.55 64.9 39.2 66.8 36.15 L67.7 34.5 69.55 30.05 69.55 29.1 69.4 29.05 Q68.45 28.45 67.4 28.65 L67.1 28.55 M71.15 24.75 L69.4 29.05 71.15 24.75 M68.65 25.55 L69.7 23.15 68.65 25.55" fill="#ffe7b5" fill-rule="evenodd" stroke="none"/>
      <path d="M70.75 23.1 L71.75 23.0 73.6 22.8 71.85 28.25 71.5 25.95 71.15 24.75 70.75 23.1 M71.15 24.75 L71.75 23.0 71.15 24.75" fill="#e0ca9e" fill-rule="evenodd" stroke="none"/>
      <path d="M67.1 28.55 L67.4 28.65 Q68.45 28.45 69.4 29.05 L69.55 29.1 69.55 30.05 67.7 34.5 66.8 36.15 Q64.9 39.2 63.0 39.55 64.25 36.1 65.25 34.15 L65.55 33.55 Q66.15 30.85 67.1 28.55" fill="#fff9eb" fill-rule="evenodd" stroke="none"/>
      <path d="M73.6 22.8 L71.85 28.25 69.4 34.05 67.5 37.1 65.5 39.65 Q62.9 42.75 60.65 42.4 58.4 42.1 56.35 39.55 L54.85 37.55" fill="none" stroke="#000000" stroke-linecap="round" stroke-linejoin="round" stroke-opacity="0.34901962" stroke-width="0.4"/>
      <path d="M69.4 29.05 L71.15 24.75 71.75 23.0 M69.7 23.15 L68.65 25.55" fill="none" stroke="#000000" stroke-linecap="round" stroke-linejoin="round" stroke-opacity="0.14901961" stroke-width="0.4"/>
      <path d="M79.2 21.65 L80.8 21.1 80.2 25.8 79.5 23.8 79.05 22.8 79.2 21.65" fill="#e0ca9e" fill-rule="evenodd" stroke="none"/>
      <path d="M80.2 25.8 L78.95 31.35 77.8 34.7 77.65 35.05 Q75.75 39.75 72.7 42.1 72.0 42.45 68.35 38.05 L67.5 37.1 69.4 34.05 71.85 28.25 73.6 22.8 77.4 22.1 78.6 21.8 79.05 22.8 79.5 23.8 80.2 25.8 M77.0 23.85 L77.4 22.1 77.0 23.85 M78.1 27.35 L79.05 22.8 78.1 27.35 77.1 27.4 76.95 27.45 76.7 27.45 76.0 30.6 75.85 31.4 74.1 37.75 74.15 38.95 Q75.75 36.2 77.0 33.05 L77.5 31.75 78.55 28.1 78.5 27.5 78.1 27.35" fill="#ffe7b5" fill-rule="evenodd" stroke="none"/>
      <path d="M78.1 27.35 L78.5 27.5 78.55 28.1 77.5 31.75 77.0 33.05 Q75.75 36.2 74.15 38.95 L74.1 37.75 75.85 31.4 76.0 30.6 76.7 27.45 76.95 27.45 77.1 27.4 78.1 27.35" fill="#fff9eb" fill-rule="evenodd" stroke="none"/>
      <path d="M79.05 22.8 L79.2 21.65 M77.4 22.1 L77.0 23.85 M79.05 22.8 L78.1 27.35" fill="none" stroke="#000000" stroke-linecap="round" stroke-linejoin="round" stroke-opacity="0.14901961" stroke-width="0.4"/>
      <path d="M80.8 21.1 L80.2 25.8 78.95 31.35 77.8 34.7 77.65 35.05 Q75.75 39.75 72.7 42.1 72.0 42.45 68.35 38.05 L67.5 37.1" fill="none" stroke="#000000" stroke-linecap="round" stroke-linejoin="round" stroke-opacity="0.34901962" stroke-width="0.4"/>
      <path d="M83.4 54.45 L82.15 51.0 82.05 50.8 80.75 48.3 77.7 43.7 77.55 45.1 79.9 51.55 80.3 53.7 80.9 55.65 81.25 55.55 81.6 55.6 83.3 55.15 83.4 54.45 M68.2 50.2 Q69.1 48.7 70.1 47.5 73.25 43.5 77.1 41.95 77.9 41.7 80.85 46.35 L80.95 46.45 Q82.75 49.0 83.75 51.2 85.1 54.3 84.35 58.5 L81.6 57.75 Q80.8 57.4 80.05 57.2 L78.2 56.7 Q75.7 55.95 73.25 55.7 L70.75 55.35 70.25 55.25 69.65 55.2 69.1 52.75 68.9 52.1 68.2 50.2 M69.1 52.75 L69.95 51.7 69.1 52.75" fill="#ffe7b5" fill-rule="evenodd" stroke="none"/>
      <path d="M83.4 54.45 L83.3 55.15 81.6 55.6 81.25 55.55 80.9 55.65 80.3 53.7 79.9 51.55 77.55 45.1 77.7 43.7 80.75 48.3 82.05 50.8 82.15 51.0 83.4 54.45" fill="#fff9eb" fill-rule="evenodd" stroke="none"/>
      <path d="M68.2 50.2 Q69.1 48.7 70.1 47.5 73.25 43.5 77.1 41.95 77.9 41.7 80.85 46.35 L80.95 46.45 Q82.75 49.0 83.75 51.2 85.1 54.3 84.35 58.5" fill="none" stroke="#000000" stroke-linecap="round" stroke-linejoin="round" stroke-opacity="0.34901962" stroke-width="0.4"/>
      <path d="M69.95 51.7 L69.1 52.75" fill="none" stroke="#000000" stroke-linecap="round" stroke-linejoin="round" stroke-opacity="0.14901961" stroke-width="0.4"/>
      <path d="M95.0 39.3 Q93.8 38.35 92.6 37.55 L93.15 38.75 95.9 41.8 Q95.25 46.4 94.2 49.7 93.5 46.25 92.25 43.8 L90.25 40.7 Q90.55 38.1 91.5 36.35 91.75 35.95 94.5 37.95 L94.75 38.65 95.0 39.3" fill="#ffe7b5" fill-rule="evenodd" stroke="none"/>
      <path d="M95.0 39.3 L95.9 41.6 95.9 41.8 93.15 38.75 92.6 37.55 Q93.8 38.35 95.0 39.3" fill="#fff9eb" fill-rule="evenodd" stroke="none"/>
      <path d="M90.25 40.7 Q90.55 38.1 91.5 36.35 91.75 35.95 94.5 37.95" fill="none" stroke="#000000" stroke-linecap="round" stroke-linejoin="round" stroke-opacity="0.34901962" stroke-width="0.4"/>
      <path d="M95.9 41.6 L95.0 39.3 94.75 38.65 94.5 37.95 93.85 35.6 Q92.9 31.6 93.95 28.75 94.15 28.45 96.55 29.2 L96.55 30.05 95.35 29.7 96.25 30.65 96.55 30.85 96.5 34.8 95.9 41.6" fill="#ffe7b5" fill-rule="evenodd" stroke="none"/>
      <path d="M96.55 30.05 L96.55 30.85 96.25 30.65 95.35 29.7 96.55 30.05" fill="#fff9eb" fill-rule="evenodd" stroke="none"/>
      <path d="M95.9 41.6 L95.0 39.3 94.75 38.65 94.5 37.95 93.85 35.6 Q92.9 31.6 93.95 28.75 94.15 28.45 96.55 29.2" fill="none" stroke="#000000" stroke-linecap="round" stroke-linejoin="round" stroke-opacity="0.34901962" stroke-width="0.4"/>
      <path d="M86.6 39.45 L87.1 38.25 90.1 42.55 90.9 43.85 92.9 47.85 93.05 48.85 92.0 49.9 91.6 50.0 91.4 50.2 90.5 48.2 89.55 45.55 86.6 39.45" fill="#fff9eb" fill-rule="evenodd" stroke="none"/>
      <path d="M87.1 38.25 L87.5 37.15 87.55 37.05 88.8 38.75 90.25 40.7 92.25 43.8 Q93.5 46.25 94.2 49.7 92.95 53.7 91.1 55.95 88.95 58.2 86.45 58.7 L84.35 58.5 Q85.1 54.3 83.75 51.2 82.75 49.0 80.95 46.45 L81.4 43.8 81.95 41.45 84.15 43.65 Q84.75 43.85 86.6 39.45 L89.55 45.55 90.5 48.2 91.4 50.2 91.6 50.0 92.0 49.9 93.05 48.85 92.9 47.85 90.9 43.85 90.1 42.55 87.1 38.25" fill="#ffe7b5" fill-rule="evenodd" stroke="none"/>
      <path d="M87.55 37.05 L88.8 38.75 90.25 40.7 92.25 43.8 Q93.5 46.25 94.2 49.7 M80.95 46.45 L81.4 43.8 81.95 41.45" fill="none" stroke="#000000" stroke-linecap="round" stroke-linejoin="round" stroke-opacity="0.34901962" stroke-width="0.4"/>
      <path d="M77.8 34.7 L78.95 31.35 80.2 25.8 80.8 21.1 83.7 19.8 Q86.85 18.15 88.95 15.7 L89.0 15.65 90.1 17.0 Q90.7 20.6 90.7 23.75 90.75 27.1 90.05 29.9 L87.55 37.05 87.5 37.15 87.1 38.25 86.6 39.45 Q84.75 43.85 84.15 43.65 L81.95 41.45 Q79.75 38.85 77.8 34.7 M87.3 22.85 Q86.75 25.6 86.5 29.0 L84.5 38.75 84.7 40.85 86.0 37.9 86.25 37.2 86.7 36.05 88.5 30.35 89.7 24.85 89.6 23.65 Q88.5 22.85 87.65 22.95 L87.3 22.85" fill="#ffe7b5" fill-rule="evenodd" stroke="none"/>
      <path d="M87.3 22.85 L87.65 22.95 Q88.5 22.85 89.6 23.65 L89.7 24.85 88.5 30.35 86.7 36.05 86.25 37.2 86.0 37.9 84.7 40.85 84.5 38.75 86.5 29.0 Q86.75 25.6 87.3 22.85" fill="#fff9eb" fill-rule="evenodd" stroke="none"/>
      <path d="M77.8 34.7 Q79.75 38.85 81.95 41.45 L84.15 43.65 Q84.75 43.85 86.6 39.45 L87.1 38.25 87.5 37.15 87.55 37.05 90.05 29.9 Q90.75 27.1 90.7 23.75 90.7 20.6 90.1 17.0 L89.0 15.65" fill="none" stroke="#000000" stroke-linecap="round" stroke-linejoin="round" stroke-opacity="0.34901962" stroke-width="0.4"/>
      <path d="M93.85 11.35 L94.15 11.95 94.15 15.45 Q93.95 19.25 93.15 22.75 L92.75 21.6 92.55 15.45 Q92.2 13.45 92.2 11.65 L92.45 11.6 Q93.0 11.25 93.85 11.35" fill="#fff9eb" fill-rule="evenodd" stroke="none"/>
      <path d="M93.0 7.3 L93.2 7.4 Q95.2 11.25 95.1 14.7 L94.55 19.65 Q93.8 24.45 93.25 24.5 92.0 24.35 90.7 23.75 90.7 20.6 90.1 17.0 L89.0 15.65 91.0 12.5 Q92.15 10.35 93.0 7.3 M93.85 11.35 Q93.0 11.25 92.45 11.6 L92.2 11.65 Q92.2 13.45 92.55 15.45 L92.75 21.6 93.15 22.75 Q93.95 19.25 94.15 15.45 L94.15 11.95 93.85 11.35" fill="#ffe7b5" fill-rule="evenodd" stroke="none"/>
      <path d="M90.7 23.75 Q92.0 24.35 93.25 24.5 93.8 24.45 94.55 19.65 L95.1 14.7 Q95.2 11.25 93.2 7.4 L93.0 7.3" fill="none" stroke="#000000" stroke-linecap="round" stroke-linejoin="round" stroke-opacity="0.34901962" stroke-width="0.4"/>
      <path d="M93.0 7.3 Q92.15 10.35 91.0 12.5 L89.0 15.65 88.95 15.7 Q86.85 18.15 83.7 19.8 L80.8 21.1 79.2 21.65 78.6 21.8 77.4 22.1 73.6 22.8 71.75 23.0 70.75 23.1 69.7 23.15 62.65 23.25 56.25 23.05 46.2 23.55 44.1 23.75 36.7 23.45 32.35 22.9 26.7 21.5 Q23.1 20.55 20.1 19.1 17.9 18.05 16.0 16.9 L14.05 15.6 12.85 14.7 12.25 14.2 10.3 12.45 Q8.55 10.8 7.15 8.9 L6.85 8.5 4.85 5.45 3.55 3.15 3.0 1.95 2.45 0.6 2.1 1.25 Q1.5 2.5 1.15 3.9 L1.1 4.1 1.1 4.2 0.8 5.55 0.5 8.15 Q-0.1 14.8 0.0 20.6 L0.05 21.35 Q0.1 25.5 0.55 29.3 L0.8 31.1 Q1.55 36.4 3.05 40.85 L3.8 42.9 3.85 43.0 4.25 44.2 Q5.55 47.3 7.5 49.9 9.2 52.4 11.35 54.3 L11.4 54.35 12.4 55.25 12.65 55.4 14.05 56.45 15.05 57.05 18.9 58.7 Q22.1 59.65 25.35 60.05 L25.8 60.1 28.2 60.25 28.4 60.25 29.4 60.3 30.5 60.05 35.05 59.45 36.8 58.95 42.9 57.6 43.4 57.45 44.0 57.25 44.2 57.25 45.55 57.1 Q49.25 56.15 52.95 55.75 L56.25 55.4 56.85 55.35 57.45 55.3 58.4 55.25 60.6 55.2 Q65.2 54.8 69.65 55.2 L70.25 55.25 70.75 55.35 73.25 55.7 Q75.7 55.95 78.2 56.7 L80.05 57.2 Q80.8 57.4 81.6 57.75 L84.35 58.5 86.45 58.7 Q88.95 58.2 91.1 55.95 92.95 53.7 94.2 49.7 95.25 46.4 95.9 41.8 L95.9 41.6 96.5 34.8 96.55 30.85 96.55 30.05 96.55 29.2 96.25 19.35 95.9 15.65 95.7 13.85 95.4 11.2 93.2 6.4 93.0 7.3 Z" fill="none" stroke="#000000" stroke-linecap="round" stroke-linejoin="round" stroke-opacity="0.5372549" stroke-width="1.2000000000000002"/>
    </g>
  </defs>
</svg>
