<?xml version="1.0" encoding="UTF-8" standalone="no"?>
<svg xmlns:xlink="http://www.w3.org/1999/xlink" height="531.5px" width="460.6px" xmlns="http://www.w3.org/2000/svg">
  <g transform="matrix(1.0, 0.0, 0.0, 1.0, 193.65, 334.05)">
    <use height="55.5" transform="matrix(0.873, 0.0, 0.0, 0.873, -61.6192, -188.0559)" width="135.15" xlink:href="#shape0"/>
  </g>
  <defs>
    <g id="shape0" transform="matrix(1.0, 0.0, 0.0, 1.0, 67.55, 27.9)">
      <path d="M61.5 -7.6 Q64.4 -4.5 64.75 1.25 66.85 5.6 67.25 11.05 67.3 11.8 66.6 12.2 61.55 12.55 56.7 11.05 L56.7 -7.6 61.5 -7.6" fill="#000000" fill-rule="evenodd" stroke="none"/>
      <path d="M61.5 -7.6 L56.7 -7.6 56.7 11.05 Q61.55 12.55 66.6 12.2 67.3 11.8 67.25 11.05 66.85 5.6 64.75 1.25 64.4 -4.5 61.5 -7.6 Z" fill="none" stroke="#000000" stroke-linecap="round" stroke-linejoin="round" stroke-opacity="0.3019608" stroke-width="0.7000000000000001"/>
      <path d="M46.3 19.55 L42.9 19.55 40.5 19.5 Q34.6 19.05 30.25 14.35 25.5 9.2 25.5 1.9 25.5 -5.45 30.25 -10.65 34.65 -15.35 40.7 -15.7 L42.95 -15.7 44.3 -15.55 Q39.15 -14.8 35.25 -10.65 30.5 -5.45 30.5 1.9 30.5 9.2 35.25 14.35 39.15 18.55 44.3 19.4 L46.3 19.55 M44.3 19.4 L42.9 19.55 44.3 19.4" fill="#000000" fill-rule="evenodd" stroke="none"/>
      <path d="M46.35 -15.75 L46.8 -15.75 47.25 -15.75 Q53.75 -15.6 58.3 -10.65 63.1 -5.45 63.1 1.9 63.1 9.2 58.3 14.35 53.95 19.15 47.8 19.55 L47.3 19.55 46.8 19.55 46.3 19.55 44.3 19.4 Q39.15 18.55 35.25 14.35 30.5 9.2 30.5 1.9 30.5 -5.45 35.25 -10.65 39.15 -14.8 44.3 -15.55 L46.35 -15.75 M53.95 -5.85 Q51.0 -9.1 46.8 -9.1 42.6 -9.1 39.6 -5.85 36.7 -2.65 36.7 1.9 36.7 6.45 39.6 9.6 42.6 12.85 46.8 12.85 51.0 12.85 53.95 9.6 56.95 6.45 56.95 1.9 56.95 -2.65 53.95 -5.85" fill="#0c0c0c" fill-rule="evenodd" stroke="none"/>
      <path d="M53.95 -5.85 Q56.95 -2.65 56.95 1.9 56.95 6.45 53.95 9.6 51.0 12.85 46.8 12.85 42.6 12.85 39.6 9.6 36.7 6.45 36.7 1.9 36.7 -2.65 39.6 -5.85 42.6 -9.1 46.8 -9.1 51.0 -9.1 53.95 -5.85" fill="#ff0000" fill-rule="evenodd" stroke="none"/>
      <path d="M46.35 -15.75 L46.8 -15.75 47.25 -15.75 Q53.75 -15.6 58.3 -10.65 63.1 -5.45 63.1 1.9 63.1 9.2 58.3 14.35 53.95 19.15 47.8 19.55 L47.3 19.55 46.8 19.55 46.3 19.55 42.9 19.55 41.8 19.55 40.5 19.5 Q34.6 19.05 30.25 14.35 25.5 9.2 25.5 1.9 25.5 -5.45 30.25 -10.65 34.65 -15.35 40.7 -15.7 L41.8 -15.75 42.95 -15.7 46.35 -15.75 44.3 -15.55 Q39.15 -14.8 35.25 -10.65 30.5 -5.45 30.5 1.9 30.5 9.2 35.25 14.35 39.15 18.55 44.3 19.4 L46.3 19.55 M40.7 -15.7 L42.95 -15.7 44.3 -15.55 M53.95 -5.85 Q56.95 -2.65 56.95 1.9 56.95 6.45 53.95 9.6 51.0 12.85 46.8 12.85 42.6 12.85 39.6 9.6 36.7 6.45 36.7 1.9 36.7 -2.65 39.6 -5.85 42.6 -9.1 46.8 -9.1 51.0 -9.1 53.95 -5.85 M40.5 19.5 L42.9 19.55 44.3 19.4" fill="none" stroke="#000000" stroke-linecap="round" stroke-linejoin="round" stroke-opacity="0.3019608" stroke-width="0.7000000000000001"/>
      <path d="M48.3 -4.8 Q49.05 -6.0 50.45 -6.0 51.8 -6.0 53.05 -4.8 54.3 -3.55 54.6 -1.85 54.95 -0.15 54.2 1.05 53.4 2.3 52.05 2.3 50.65 2.3 49.45 1.05 48.25 -0.15 47.9 -1.85 47.6 -3.55 48.3 -4.8" fill="#ff3f3f" fill-rule="evenodd" stroke="none"/>
      <path d="M36.7 -10.55 Q36.45 -18.65 39.75 -24.45 48.7 -27.15 59.1 -27.55 L60.1 -26.15 Q52.3 -23.3 45.25 -19.05 43.7 -16.25 44.05 -12.2 L36.7 -10.55" fill="#0c0c0c" fill-rule="evenodd" stroke="none"/>
      <path d="M44.05 -12.2 Q43.7 -16.25 45.25 -19.05 52.3 -23.3 60.1 -26.15 L59.1 -27.55 Q48.7 -27.15 39.75 -24.45 36.45 -18.65 36.7 -10.55" fill="none" stroke="#000000" stroke-linecap="round" stroke-linejoin="round" stroke-opacity="0.3019608" stroke-width="0.7000000000000001"/>
      <path d="M-13.9 -4.3 Q6.85 -6.6 27.55 -4.3 29.2 -1.4 29.2 1.05 29.25 4.75 27.55 6.95 7.9 -0.85 -13.9 6.95 L-13.9 -4.3" fill="url(#gradient0)" fill-rule="evenodd" stroke="none"/>
      <path d="M-13.9 -4.3 Q6.85 -6.6 27.55 -4.3 29.2 -1.4 29.2 1.05 29.25 4.75 27.55 6.95 7.9 -0.85 -13.9 6.95 L-13.9 -4.3 Z" fill="none" stroke="#000000" stroke-linecap="round" stroke-linejoin="round" stroke-opacity="0.3019608" stroke-width="0.7000000000000001"/>
      <path d="M-54.85 -7.65 L-44.65 -7.65 -44.65 11.0 -65.85 12.15 Q-67.3 11.75 -67.2 11.0 -66.35 5.55 -61.8 1.2 -61.1 -4.55 -54.85 -7.65" fill="#000000" fill-rule="evenodd" stroke="none"/>
      <path d="M-54.85 -7.65 L-44.65 -7.65 -44.65 11.0 -65.85 12.15 Q-67.3 11.75 -67.2 11.0 -66.35 5.55 -61.8 1.2 -61.1 -4.55 -54.85 -7.65 Z" fill="none" stroke="#000000" stroke-linecap="round" stroke-linejoin="round" stroke-opacity="0.3019608" stroke-width="0.7000000000000001"/>
      <path d="M-30.8 19.5 L-32.3 19.55 Q-39.05 19.55 -43.85 14.35 -48.6 9.2 -48.6 1.9 -48.6 -5.45 -43.85 -10.65 -39.05 -15.75 -32.3 -15.75 L-30.8 -15.65 Q-37.1 -15.2 -41.7 -10.65 -46.85 -5.45 -46.85 1.9 -46.85 9.2 -41.7 14.35 -37.1 18.95 -30.8 19.5" fill="#000000" fill-rule="evenodd" stroke="none"/>
      <path d="M-21.45 -5.85 Q-24.65 -9.1 -29.2 -9.1 -33.75 -9.1 -37.0 -5.85 -40.15 -2.65 -40.15 1.9 -40.15 6.45 -37.0 9.6 -33.75 12.85 -29.2 12.85 -24.65 12.85 -21.45 9.6 -18.2 6.45 -18.2 1.9 -18.2 -2.65 -21.45 -5.85 M-30.8 -15.65 L-29.2 -15.75 Q-21.85 -15.75 -16.75 -10.65 -11.55 -5.45 -11.55 1.9 -11.55 9.2 -16.75 14.35 -21.85 19.55 -29.2 19.55 L-30.8 19.5 Q-37.1 18.95 -41.7 14.35 -46.85 9.2 -46.85 1.9 -46.85 -5.45 -41.7 -10.65 -37.1 -15.2 -30.8 -15.65" fill="#0c0c0c" fill-rule="evenodd" stroke="none"/>
      <path d="M-21.45 -5.85 Q-18.2 -2.65 -18.2 1.9 -18.2 6.45 -21.45 9.6 -24.65 12.85 -29.2 12.85 -33.75 12.85 -37.0 9.6 -40.15 6.45 -40.15 1.9 -40.15 -2.65 -37.0 -5.85 -33.75 -9.1 -29.2 -9.1 -24.65 -9.1 -21.45 -5.85" fill="#ff0000" fill-rule="evenodd" stroke="none"/>
      <path d="M-21.45 -5.85 Q-18.2 -2.65 -18.2 1.9 -18.2 6.45 -21.45 9.6 -24.65 12.85 -29.2 12.85 -33.75 12.85 -37.0 9.6 -40.15 6.45 -40.15 1.9 -40.15 -2.65 -37.0 -5.85 -33.75 -9.1 -29.2 -9.1 -24.65 -9.1 -21.45 -5.85 M-30.8 -15.65 L-29.2 -15.75 Q-21.85 -15.75 -16.75 -10.65 -11.55 -5.45 -11.55 1.9 -11.55 9.2 -16.75 14.35 -21.85 19.55 -29.2 19.55 L-30.8 19.5 -32.3 19.55 Q-39.05 19.55 -43.85 14.35 -48.6 9.2 -48.6 1.9 -48.6 -5.45 -43.85 -10.65 -39.05 -15.75 -32.3 -15.75 L-30.8 -15.65 Q-37.1 -15.2 -41.7 -10.65 -46.85 -5.45 -46.85 1.9 -46.85 9.2 -41.7 14.35 -37.1 18.95 -30.8 19.5" fill="none" stroke="#000000" stroke-linecap="round" stroke-linejoin="round" stroke-opacity="0.3019608" stroke-width="0.7000000000000001"/>
      <path d="M-25.1 -6.0 Q-23.75 -6.0 -22.5 -4.8 -21.25 -3.55 -20.95 -1.85 -20.6 -0.15 -21.35 1.05 -22.15 2.3 -23.5 2.3 -24.9 2.3 -26.1 1.05 -27.3 -0.15 -27.65 -1.85 -27.95 -3.55 -27.25 -4.8 -26.5 -6.0 -25.1 -6.0" fill="#ff3f3f" fill-rule="evenodd" stroke="none"/>
      <path d="M-26.85 -12.2 L-19.5 -10.55 Q-19.25 -18.65 -22.55 -24.45 -31.5 -27.15 -41.9 -27.55 L-42.9 -26.15 Q-35.1 -23.3 -28.05 -19.05 -26.5 -16.25 -26.85 -12.2" fill="#0c0c0c" fill-rule="evenodd" stroke="none"/>
      <path d="M-26.85 -12.2 Q-26.5 -16.25 -28.05 -19.05 -35.1 -23.3 -42.9 -26.15 L-41.9 -27.55 Q-31.5 -27.15 -22.55 -24.45 -19.25 -18.65 -19.5 -10.55" fill="none" stroke="#000000" stroke-linecap="round" stroke-linejoin="round" stroke-opacity="0.3019608" stroke-width="0.7000000000000001"/>
      <path d="M58.85 -9.05 Q65.15 -2.75 65.15 6.15 65.15 15.1 58.85 21.3 52.6 27.6 43.7 27.6 34.75 27.6 28.45 21.3 22.25 15.1 22.25 6.15 22.25 -2.75 28.45 -9.05 34.75 -15.3 43.7 -15.3 52.6 -15.3 58.85 -9.05" fill="url(#gradient1)" fill-rule="evenodd" stroke="none"/>
      <path d="M-13.25 -13.75 Q-6.15 -6.65 -6.15 3.3 -6.15 13.35 -13.25 20.3 -20.25 27.35 -30.2 27.35 -40.25 27.35 -47.3 20.3 -54.25 13.35 -54.25 3.3 -54.25 -6.65 -47.3 -13.75 -40.25 -20.75 -30.2 -20.75 -20.25 -20.75 -13.25 -13.75" fill="url(#gradient2)" fill-rule="evenodd" stroke="none"/>
    </g>
    <linearGradient gradientTransform="matrix(0.0, 0.0037, -0.0076, 0.0, 8.55, -2.85)" gradientUnits="userSpaceOnUse" id="gradient0" spreadMethod="pad" x1="-819.2" x2="819.2">
      <stop offset="0.0" stop-color="#141414"/>
      <stop offset="1.0" stop-color="#000000"/>
    </linearGradient>
    <radialGradient cx="0" cy="0" gradientTransform="matrix(0.0264, 0.0, 0.0, 0.0264, 43.7, 6.15)" gradientUnits="userSpaceOnUse" id="gradient1" r="819.2" spreadMethod="pad">
      <stop offset="0.0" stop-color="#ff0000" stop-opacity="0.7019608"/>
      <stop offset="1.0" stop-color="#ff0000" stop-opacity="0.0"/>
    </radialGradient>
    <radialGradient cx="0" cy="0" gradientTransform="matrix(0.0296, 0.0, 0.0, 0.0296, -30.2, 3.3)" gradientUnits="userSpaceOnUse" id="gradient2" r="819.2" spreadMethod="pad">
      <stop offset="0.0" stop-color="#ff0000" stop-opacity="0.7019608"/>
      <stop offset="1.0" stop-color="#ff0000" stop-opacity="0.0"/>
    </radialGradient>
  </defs>
</svg>
