<?xml version="1.0" encoding="UTF-8" standalone="no"?>
<svg xmlns:xlink="http://www.w3.org/1999/xlink" height="531.5px" width="460.6px" xmlns="http://www.w3.org/2000/svg">
  <g transform="matrix(1.0, 0.0, 0.0, 1.0, 193.65, 334.05)">
    <use height="245.05" transform="matrix(0.3939, 0.0, 0.0, 0.3939, -65.1123, -105.1053)" width="311.8" xlink:href="#shape0"/>
  </g>
  <defs>
    <g id="shape0" transform="matrix(1.0, 0.0, 0.0, 1.0, 155.9, 122.5)">
      <path d="M-35.05 -69.55 L-28.5 -67.5 Q-6.1 -59.7 12.35 -42.2 4.1 -17.55 -13.1 1.9 -36.05 -3.65 -55.5 -20.75 L-58.6 -23.7 -60.5 -25.45 Q-52.0 -50.85 -35.05 -69.55 M-12.95 -17.0 Q-5.55 -23.05 -4.05 -32.4 -19.05 -43.85 -35.3 -50.45 -42.7 -44.75 -44.2 -35.05 -28.9 -23.15 -12.95 -17.0" fill="#ffcc00" fill-rule="evenodd" stroke="none"/>
      <path d="M-60.5 -25.45 L-63.6 -28.45 Q-55.6 -52.95 -39.2 -70.75 L-35.05 -69.55 Q-52.0 -50.85 -60.5 -25.45" fill="#ff9900" fill-rule="evenodd" stroke="none"/>
      <path d="M-35.05 -69.55 L-28.5 -67.5 Q-6.1 -59.7 12.35 -42.2 4.1 -17.55 -13.1 1.9 -36.05 -3.65 -55.5 -20.75 L-58.6 -23.7 -60.5 -25.45 -63.6 -28.45 Q-55.6 -52.95 -39.2 -70.75 L-35.05 -69.55 Q-52.0 -50.85 -60.5 -25.45 M-12.95 -17.0 Q-28.9 -23.15 -44.2 -35.05 -42.7 -44.75 -35.3 -50.45 -19.05 -43.85 -4.05 -32.4 -5.55 -23.05 -12.95 -17.0" fill="none" stroke="#000000" stroke-linecap="round" stroke-linejoin="round" stroke-opacity="0.5019608" stroke-width="1.0"/>
      <path d="M-101.05 -115.55 L-94.5 -113.5 Q-72.1 -105.7 -53.65 -88.2 -61.9 -63.55 -79.1 -44.1 -102.05 -49.65 -121.5 -66.75 L-124.6 -69.7 -126.5 -71.45 Q-118.0 -96.85 -101.05 -115.55 M-124.6 -69.7 L-126.5 -71.45 -124.6 -69.7 M-101.3 -96.45 Q-108.7 -90.75 -110.2 -81.05 -94.9 -69.15 -78.95 -63.0 -71.55 -69.05 -70.05 -78.4 -85.05 -89.85 -101.3 -96.45" fill="#ffcc00" fill-rule="evenodd" stroke="none"/>
      <path d="M-126.5 -71.45 L-129.6 -74.45 Q-121.6 -98.95 -105.2 -116.75 L-101.05 -115.55 Q-118.0 -96.85 -126.5 -71.45" fill="#ff9900" fill-rule="evenodd" stroke="none"/>
      <path d="M-101.05 -115.55 L-94.5 -113.5 Q-72.1 -105.7 -53.65 -88.2 -61.9 -63.55 -79.1 -44.1 -102.05 -49.65 -121.5 -66.75 L-124.6 -69.7 -126.5 -71.45 -129.6 -74.45 Q-121.6 -98.95 -105.2 -116.75 L-101.05 -115.55 Q-118.0 -96.85 -126.5 -71.45 L-124.6 -69.7 M-101.3 -96.45 Q-85.05 -89.85 -70.05 -78.4 -71.55 -69.05 -78.95 -63.0 -94.9 -69.15 -110.2 -81.05 -108.7 -90.75 -101.3 -96.45" fill="none" stroke="#000000" stroke-linecap="round" stroke-linejoin="round" stroke-opacity="0.5019608" stroke-width="1.0"/>
      <path d="M-143.8 -122.0 Q-118.55 -113.2 -97.9 -99.6 -96.45 -84.3 -109.5 -75.8 -134.45 -81.6 -155.4 -98.2 -155.25 -112.45 -143.8 -122.0" fill="url(#gradient0)" fill-rule="evenodd" stroke="none"/>
      <path d="M-143.8 -122.0 Q-118.55 -113.2 -97.9 -99.6 -96.45 -84.3 -109.5 -75.8 -134.45 -81.6 -155.4 -98.2 -155.25 -112.45 -143.8 -122.0 Z" fill="none" stroke="#000000" stroke-linecap="round" stroke-linejoin="round" stroke-opacity="0.5019608" stroke-width="1.0"/>
      <path d="M-29.65 -49.6 Q-29.35 -34.35 -42.25 -29.35 -65.35 -41.1 -83.95 -62.3 -82.85 -76.15 -71.35 -82.55 -48.15 -67.85 -29.65 -49.6" fill="url(#gradient1)" fill-rule="evenodd" stroke="none"/>
      <path d="M-29.65 -49.6 Q-29.35 -34.35 -42.25 -29.35 -65.35 -41.1 -83.95 -62.3 -82.85 -76.15 -71.35 -82.55 -48.15 -67.85 -29.65 -49.6 Z" fill="none" stroke="#000000" stroke-linecap="round" stroke-linejoin="round" stroke-opacity="0.5019608" stroke-width="1.0"/>
      <path d="M131.8 -90.9 L132.2 -92.8 Q133.9 -99.3 139.05 -104.3 147.9 -101.15 155.4 -95.45 154.5 -88.7 149.55 -83.4 L148.7 -82.55 148.15 -82.05 Q139.0 -85.3 131.8 -90.9 M148.7 -82.55 L148.15 -82.05 148.7 -82.55 M138.4 -90.3 Q140.65 -87.95 144.1 -87.2 147.5 -91.45 148.9 -96.05 146.5 -98.4 143.2 -99.15 139.9 -94.95 138.4 -90.3" fill="#ffcc00" fill-rule="evenodd" stroke="none"/>
      <path d="M148.15 -82.05 L147.25 -81.2 Q138.45 -84.3 131.6 -89.7 L131.8 -90.9 Q139.0 -85.3 148.15 -82.05" fill="#ff9900" fill-rule="evenodd" stroke="none"/>
      <path d="M131.8 -90.9 L132.2 -92.8 Q133.9 -99.3 139.05 -104.3 147.9 -101.15 155.4 -95.45 154.5 -88.7 149.55 -83.4 L148.7 -82.55 148.15 -82.05 147.25 -81.2 Q138.45 -84.3 131.6 -89.7 L131.8 -90.9 Q139.0 -85.3 148.15 -82.05 L148.7 -82.55 M138.4 -90.3 Q139.9 -94.95 143.2 -99.15 146.5 -98.4 148.9 -96.05 147.5 -91.45 144.1 -87.2 140.65 -87.95 138.4 -90.3" fill="none" stroke="#000000" stroke-linecap="round" stroke-linejoin="round" stroke-opacity="0.5019608" stroke-width="1.0"/>
      <path d="M105.55 -66.2 L107.5 -69.45 Q114.55 -80.45 126.25 -88.05 138.35 -80.45 146.55 -68.8 140.65 -57.2 129.0 -49.05 L127.05 -47.7 125.85 -46.95 Q113.4 -54.75 105.55 -66.2 M127.05 -47.7 L125.85 -46.95 127.05 -47.7 M115.7 -63.6 Q117.85 -58.9 122.8 -56.85 131.15 -63.55 136.5 -71.25 134.2 -76.0 129.4 -78.0 121.35 -71.45 115.7 -63.6" fill="#ffcc00" fill-rule="evenodd" stroke="none"/>
      <path d="M125.85 -46.95 L123.9 -45.65 Q111.8 -53.1 104.45 -64.15 L105.55 -66.2 Q113.4 -54.75 125.85 -46.95" fill="#ff9900" fill-rule="evenodd" stroke="none"/>
      <path d="M105.55 -66.2 L107.5 -69.45 Q114.55 -80.45 126.25 -88.05 138.35 -80.45 146.55 -68.8 140.65 -57.2 129.0 -49.05 L127.05 -47.7 125.85 -46.95 123.9 -45.65 Q111.8 -53.1 104.45 -64.15 L105.55 -66.2 Q113.4 -54.75 125.85 -46.95 L127.05 -47.7 M115.7 -63.6 Q121.35 -71.45 129.4 -78.0 134.2 -76.0 136.5 -71.25 131.15 -63.55 122.8 -56.85 117.85 -58.9 115.7 -63.6" fill="none" stroke="#000000" stroke-linecap="round" stroke-linejoin="round" stroke-opacity="0.5019608" stroke-width="1.0"/>
      <path d="M73.35 -36.85 L76.35 -40.75 Q87.05 -53.85 103.3 -61.8 117.7 -50.25 126.5 -34.0 117.15 -20.05 100.95 -11.25 L98.2 -9.85 96.55 -9.05 Q81.7 -21.0 73.35 -36.85 M98.2 -9.85 L96.55 -9.05 98.2 -9.85 M86.05 -32.0 Q88.05 -25.7 94.15 -22.3 105.9 -29.6 113.9 -38.75 111.7 -45.15 105.8 -48.45 94.45 -41.25 86.05 -32.0" fill="#ffcc00" fill-rule="evenodd" stroke="none"/>
      <path d="M96.55 -9.05 L93.8 -7.7 Q79.4 -19.1 71.55 -34.4 L73.35 -36.85 Q81.7 -21.0 96.55 -9.05" fill="#ff9900" fill-rule="evenodd" stroke="none"/>
      <path d="M73.35 -36.85 L76.35 -40.75 Q87.05 -53.85 103.3 -61.8 117.7 -50.25 126.5 -34.0 117.15 -20.05 100.95 -11.25 L98.2 -9.85 96.55 -9.05 93.8 -7.7 Q79.4 -19.1 71.55 -34.4 L73.35 -36.85 Q81.7 -21.0 96.55 -9.05 L98.2 -9.85 M86.05 -32.0 Q94.45 -41.25 105.8 -48.45 111.7 -45.15 113.9 -38.75 105.9 -29.6 94.15 -22.3 88.05 -25.7 86.05 -32.0" fill="none" stroke="#000000" stroke-linecap="round" stroke-linejoin="round" stroke-opacity="0.5019608" stroke-width="1.0"/>
      <path d="M21.2 -33.3 L27.1 -34.6 Q47.7 -38.6 69.5 -33.3 74.05 -10.85 69.5 11.6 49.5 17.45 27.1 12.95 L23.45 12.1 21.2 11.6 Q16.55 -11.55 21.2 -33.3 M23.45 12.1 L21.2 11.6 23.45 12.1 M29.4 -18.6 Q26.3 -11.05 29.4 -2.95 46.35 -0.6 61.3 -2.95 64.3 -10.8 61.3 -18.6 44.8 -20.75 29.4 -18.6" fill="#ffcc00" fill-rule="evenodd" stroke="none"/>
      <path d="M21.2 11.6 L17.55 10.7 Q12.85 -11.55 17.55 -32.4 L21.2 -33.3 Q16.55 -11.55 21.2 11.6" fill="#ff9900" fill-rule="evenodd" stroke="none"/>
      <path d="M21.2 -33.3 L27.1 -34.6 Q47.7 -38.6 69.5 -33.3 74.05 -10.85 69.5 11.6 49.5 17.45 27.1 12.95 L23.45 12.1 21.2 11.6 17.55 10.7 Q12.85 -11.55 17.55 -32.4 L21.2 -33.3 Q16.55 -11.55 21.2 11.6 L23.45 12.1 M29.4 -18.6 Q44.8 -20.75 61.3 -18.6 64.3 -10.8 61.3 -2.95 46.35 -0.6 29.4 -2.95 26.3 -11.05 29.4 -18.6" fill="none" stroke="#000000" stroke-linecap="round" stroke-linejoin="round" stroke-opacity="0.5019608" stroke-width="1.0"/>
      <path d="M30.85 -1.4 Q6.95 -4.2 -14.85 -15.95 -16.95 -27.35 -7.85 -35.8 16.8 -30.6 37.85 -21.25 41.55 -9.1 30.85 -1.4" fill="url(#gradient2)" fill-rule="evenodd" stroke="none"/>
      <path d="M30.85 -1.4 Q6.95 -4.2 -14.85 -15.95 -16.95 -27.35 -7.85 -35.8 16.8 -30.6 37.85 -21.25 41.55 -9.1 30.85 -1.4 Z" fill="none" stroke="#000000" stroke-linecap="round" stroke-linejoin="round" stroke-opacity="0.5019608" stroke-width="1.0"/>
      <path d="M66.8 1.9 Q57.85 -1.25 55.7 -10.9 69.4 -25.3 86.5 -34.9 99.1 -29.45 98.3 -19.1 87.9 -4.95 66.8 1.9" fill="url(#gradient3)" fill-rule="evenodd" stroke="none"/>
      <path d="M66.8 1.9 Q87.9 -4.95 98.3 -19.1 99.1 -29.45 86.5 -34.9 69.4 -25.3 55.7 -10.9 57.85 -1.25 66.8 1.9 Z" fill="none" stroke="#000000" stroke-linecap="round" stroke-linejoin="round" stroke-opacity="0.5019608" stroke-width="1.0"/>
      <path d="M98.35 -44.4 Q105.75 -57.65 116.45 -67.85 126.7 -65.95 128.0 -58.05 122.95 -45.55 109.9 -36.3 101.65 -37.5 98.35 -44.4" fill="url(#gradient4)" fill-rule="evenodd" stroke="none"/>
      <path d="M98.35 -44.4 Q101.65 -37.5 109.9 -36.3 122.95 -45.55 128.0 -58.05 126.7 -65.95 116.45 -67.85 105.75 -57.65 98.35 -44.4 Z" fill="none" stroke="#000000" stroke-linecap="round" stroke-linejoin="round" stroke-opacity="0.5019608" stroke-width="1.0"/>
      <path d="M138.9 -92.65 Q146.9 -91.15 147.95 -84.95 144.0 -75.1 133.75 -67.85 127.3 -68.8 124.65 -74.2 130.5 -84.65 138.9 -92.65" fill="url(#gradient5)" fill-rule="evenodd" stroke="none"/>
      <path d="M138.9 -92.65 Q130.5 -84.65 124.65 -74.2 127.3 -68.8 133.75 -67.85 144.0 -75.1 147.95 -84.95 146.9 -91.15 138.9 -92.65 Z" fill="none" stroke="#000000" stroke-linecap="round" stroke-linejoin="round" stroke-opacity="0.5019608" stroke-width="1.0"/>
      <path d="M141.55 -97.5 Q141.0 -102.35 143.65 -106.1 150.6 -105.4 154.4 -102.5 156.15 -97.9 151.7 -94.55 146.25 -94.95 141.55 -97.5" fill="#ffcc00" fill-rule="evenodd" stroke="none"/>
      <path d="M141.55 -97.5 Q146.25 -94.95 151.7 -94.55 156.15 -97.9 154.4 -102.5 150.6 -105.4 143.65 -106.1 141.0 -102.35 141.55 -97.5 Z" fill="none" stroke="#000000" stroke-linecap="round" stroke-linejoin="round" stroke-opacity="0.5019608" stroke-width="1.0"/>
      <path d="M74.9 33.15 L19.7 33.15 19.7 28.35 74.9 28.35 74.9 33.15" fill="#c17400" fill-rule="evenodd" stroke="none"/>
      <path d="M74.9 33.15 L19.7 33.15 19.7 28.35 74.9 28.35 74.9 33.15 Z" fill="none" stroke="#000000" stroke-linecap="round" stroke-linejoin="round" stroke-opacity="0.5019608" stroke-width="1.0"/>
      <path d="M87.2 43.45 Q87.8 36.75 88.0 29.2 L100.85 30.5 93.65 44.1 87.2 43.45 M-18.6 5.85 L-12.15 27.4 7.5 23.0 0.3 36.6 -19.35 41.0 -25.95 18.95 -18.6 5.85" fill="#ff9900" fill-rule="evenodd" stroke="none"/>
      <path d="M100.85 30.5 L88.0 29.2 Q87.8 36.75 87.2 43.45 84.55 74.35 73.9 88.0 66.65 97.3 55.75 98.6 L56.0 108.45 42.7 103.7 42.3 98.6 Q14.85 95.7 8.4 33.05 L8.35 32.5 7.5 23.0 -12.15 27.4 -18.6 5.85 -18.75 5.35 24.7 -1.4 Q27.7 68.65 40.05 77.55 L40.5 77.85 40.5 77.6 39.2 62.75 55.2 65.1 55.35 77.65 57.15 76.35 Q68.85 65.95 70.1 11.9 L103.1 11.9 100.85 30.5" fill="url(#gradient6)" fill-rule="evenodd" stroke="none"/>
      <path d="M70.1 11.9 Q68.85 65.95 57.15 76.35 62.1 59.6 62.9 25.5 L70.1 11.9 M7.5 23.0 L8.35 32.5 8.4 33.05 Q14.85 95.7 42.3 98.6 L42.7 103.7 56.0 108.45 55.75 98.6 Q66.65 97.3 73.9 88.0 67.4 105.9 54.85 110.7 L48.8 122.05 35.5 117.3 35.1 112.2 Q7.65 109.3 1.2 46.65 L1.15 46.1 0.3 36.6 7.5 23.0 M42.7 103.7 L35.5 117.3 42.7 103.7 M56.0 108.45 L54.85 110.7 56.0 108.45" fill="url(#gradient7)" fill-rule="evenodd" stroke="none"/>
      <path d="M40.5 77.6 L40.5 77.85 40.05 77.55 40.5 77.6" fill="#ffcc00" fill-rule="evenodd" stroke="none"/>
      <path d="M87.2 43.45 Q87.8 36.75 88.0 29.2 L100.85 30.5 103.1 11.9 70.1 11.9 Q68.85 65.95 57.15 76.35 L55.35 77.65 55.2 65.1 39.2 62.75 40.5 77.6 40.5 77.85 40.05 77.55 Q27.7 68.65 24.7 -1.4 L-18.75 5.35 -18.6 5.85 -12.15 27.4 7.5 23.0 8.35 32.5 8.4 33.05 Q14.85 95.7 42.3 98.6 L42.7 103.7 56.0 108.45 55.75 98.6 Q66.65 97.3 73.9 88.0 84.55 74.35 87.2 43.45 L93.65 44.1 100.85 30.5 M70.1 11.9 L62.9 25.5 Q62.1 59.6 57.15 76.35 M0.3 36.6 L7.5 23.0 M0.3 36.6 L1.15 46.1 1.2 46.65 Q7.65 109.3 35.1 112.2 L35.5 117.3 42.7 103.7 M40.5 77.6 L40.05 77.55 M35.5 117.3 L48.8 122.05 54.85 110.7 56.0 108.45 M54.85 110.7 Q67.4 105.9 73.9 88.0 M-18.6 5.85 L-25.95 18.95 -19.35 41.0 0.3 36.6" fill="none" stroke="#000000" stroke-linecap="round" stroke-linejoin="round" stroke-opacity="0.5019608" stroke-width="1.0"/>
      <path d="M51.3 36.5 Q42.85 41.25 34.05 36.75 32.1 17.35 36.1 -1.55 48.7 -7.65 56.15 -0.45 60.1 16.35 51.3 36.5" fill="#ffcc00" fill-rule="evenodd" stroke="none"/>
      <path d="M51.3 36.5 Q60.1 16.35 56.15 -0.45 48.7 -7.65 36.1 -1.55 32.1 17.35 34.05 36.75 42.85 41.25 51.3 36.5 Z" fill="none" stroke="#000000" stroke-linecap="round" stroke-linejoin="round" stroke-opacity="0.5019608" stroke-width="1.0"/>
    </g>
    <linearGradient gradientTransform="matrix(0.0082, -0.0095, 0.0143, 0.0124, -120.5, -104.7)" gradientUnits="userSpaceOnUse" id="gradient0" spreadMethod="pad" x1="-819.2" x2="819.2">
      <stop offset="0.0" stop-color="#ffbb00"/>
      <stop offset="0.9725490196078431" stop-color="#ffff00"/>
    </linearGradient>
    <linearGradient gradientTransform="matrix(0.0063, -0.0108, 0.0281, 0.0162, -53.1, -61.1)" gradientUnits="userSpaceOnUse" id="gradient1" spreadMethod="pad" x1="-819.2" x2="819.2">
      <stop offset="0.0" stop-color="#ffbb00"/>
      <stop offset="0.9725490196078431" stop-color="#ffff00"/>
    </linearGradient>
    <linearGradient gradientTransform="matrix(0.0029, -0.0108, 0.0203, 0.0054, 11.5, -26.5)" gradientUnits="userSpaceOnUse" id="gradient2" spreadMethod="pad" x1="-819.2" x2="819.2">
      <stop offset="0.0" stop-color="#ffbb00"/>
      <stop offset="0.9725490196078431" stop-color="#ffff00"/>
    </linearGradient>
    <linearGradient gradientTransform="matrix(0.0, -0.0131, 0.0225, 0.0, 76.5, -23.25)" gradientUnits="userSpaceOnUse" id="gradient3" spreadMethod="pad" x1="-819.2" x2="819.2">
      <stop offset="0.0" stop-color="#ffbb00"/>
      <stop offset="0.9725490196078431" stop-color="#ffff00"/>
    </linearGradient>
    <linearGradient gradientTransform="matrix(-0.0034, -0.0059, 0.0167, -0.0096, 112.0, -55.7)" gradientUnits="userSpaceOnUse" id="gradient4" spreadMethod="pad" x1="-819.2" x2="819.2">
      <stop offset="0.0" stop-color="#ffbb00"/>
      <stop offset="0.9725490196078431" stop-color="#ffff00"/>
    </linearGradient>
    <linearGradient gradientTransform="matrix(-0.0023, -0.0047, 0.0128, -0.0076, -118.85, 65.95)" gradientUnits="userSpaceOnUse" id="gradient5" spreadMethod="pad" x1="-819.2" x2="819.2">
      <stop offset="0.0196078431372549" stop-color="#ffbb00"/>
      <stop offset="0.9725490196078431" stop-color="#ffff00"/>
    </linearGradient>
    <linearGradient gradientTransform="matrix(0.0, 0.0411, -0.067, 0.0, 46.05, 59.95)" gradientUnits="userSpaceOnUse" id="gradient6" spreadMethod="pad" x1="-819.2" x2="819.2">
      <stop offset="0.0" stop-color="#ffcc00"/>
      <stop offset="1.0" stop-color="#ff9900"/>
    </linearGradient>
    <linearGradient gradientTransform="matrix(0.0024, -0.0258, 0.0573, 0.0053, 23.75, 58.6)" gradientUnits="userSpaceOnUse" id="gradient7" spreadMethod="pad" x1="-819.2" x2="819.2">
      <stop offset="0.0" stop-color="#b76e00"/>
      <stop offset="1.0" stop-color="#ff9900"/>
    </linearGradient>
  </defs>
</svg>
