<?xml version="1.0" encoding="UTF-8" standalone="no"?>
<svg xmlns:xlink="http://www.w3.org/1999/xlink" height="531.5px" width="460.6px" xmlns="http://www.w3.org/2000/svg">
  <g transform="matrix(1.0, 0.0, 0.0, 1.0, 193.65, 334.05)">
    <use height="22.15" transform="matrix(1.0, 0.0, 0.0, 1.0, -60.0, -171.3)" width="114.2" xlink:href="#shape0"/>
  </g>
  <defs>
    <g id="shape0" transform="matrix(1.0, 0.0, 0.0, 1.0, 60.0, 171.3)">
      <path d="M-59.3 -162.05 Q-58.8 -167.3 -56.45 -170.6 -0.6 -171.55 52.5 -168.1 54.35 -166.45 53.3 -164.35 L20.6 -165.2 18.25 -165.25 9.15 -165.5 6.75 -165.55 -2.25 -165.8 -5.35 -165.85 -8.05 -165.95 -12.3 -166.05 -39.45 -166.8 -39.75 -155.0 -40.65 -155.1 -46.2 -155.55 Q-49.7 -156.1 -52.2 -157.45 L-52.25 -157.45 -53.45 -158.15 -58.7 -161.55 -59.3 -162.05 M-45.15 -166.95 L-39.45 -166.8 -45.15 -166.95" fill="#ffffff" fill-rule="evenodd" stroke="none"/>
      <path d="M20.6 -165.2 Q20.25 -164.4 20.25 -163.65 L20.25 -163.6 Q20.2 -162.7 20.85 -161.75 L18.1 -162.0 18.1 -163.65 18.1 -163.7 18.25 -165.25 20.6 -165.2 M9.15 -165.5 L9.15 -163.95 9.15 -163.9 9.1 -162.3 6.35 -162.35 Q6.95 -163.15 7.05 -163.9 L7.05 -163.95 6.75 -165.55 9.15 -165.5" fill="#737373" fill-rule="evenodd" stroke="none"/>
      <path d="M20.85 -161.75 L22.0 -160.65 Q23.8 -159.0 23.8 -158.05 23.75 -157.25 22.8 -156.8 L21.05 -156.55 Q19.0 -156.55 18.3 -159.25 L18.1 -162.0 20.85 -161.75 M9.1 -162.3 Q9.0 -160.45 8.7 -159.5 7.95 -156.9 5.85 -156.95 L4.05 -157.25 Q3.2 -157.75 3.2 -158.55 3.25 -159.55 5.1 -161.05 L6.35 -162.35 9.1 -162.3" fill="#999999" fill-rule="evenodd" stroke="none"/>
      <path d="M-5.75 -149.7 L-20.85 -150.15 -21.3 -150.55 Q-22.05 -151.65 -22.1 -152.25 -22.05 -153.8 -18.5 -157.05 L-11.75 -162.75 -8.05 -165.95 -5.35 -165.85 -5.75 -149.7 M-36.55 -150.5 L-39.9 -150.6 -39.75 -155.0 -39.45 -166.8 -12.3 -166.05 Q-16.4 -162.25 -18.5 -160.55 -22.9 -156.95 -24.4 -157.0 -25.0 -157.0 -25.5 -157.35 -25.9 -157.7 -26.25 -157.7 -27.4 -157.8 -32.35 -153.85 L-36.55 -150.5" fill="#baffff" fill-opacity="0.6" fill-rule="evenodd" stroke="none"/>
      <path d="M-20.85 -150.15 L-36.55 -150.5 -32.35 -153.85 Q-27.4 -157.8 -26.25 -157.7 -25.9 -157.7 -25.5 -157.35 -25.0 -157.0 -24.4 -157.0 -22.9 -156.95 -18.5 -160.55 -16.4 -162.25 -12.3 -166.05 L-8.05 -165.95 -11.75 -162.75 -18.5 -157.05 Q-22.05 -153.8 -22.1 -152.25 -22.05 -151.65 -21.3 -150.55 L-20.85 -150.15" fill="#ffffff" fill-opacity="0.6901961" fill-rule="evenodd" stroke="none"/>
      <path d="M-39.9 -150.6 L-58.8 -151.1 Q-59.85 -157.3 -59.3 -162.05 L-58.7 -161.55 -53.45 -158.15 -52.25 -157.45 -52.25 -157.4 -52.2 -157.45 Q-49.7 -156.1 -46.2 -155.55 L-40.65 -155.1 -39.75 -155.0 -39.9 -150.6" fill="#e6e6e6" fill-rule="evenodd" stroke="none"/>
      <path d="M-2.25 -165.8 L-2.7 -149.65 -5.75 -149.7 -5.35 -165.85 -2.25 -165.8" fill="#009191" fill-opacity="0.6" fill-rule="evenodd" stroke="none"/>
      <path d="M-59.3 -162.05 Q-58.8 -167.3 -56.45 -170.6 -0.6 -171.55 52.5 -168.1 54.35 -166.45 53.3 -164.35 L20.6 -165.2 Q20.25 -164.4 20.25 -163.65 L20.25 -163.6 Q20.2 -162.7 20.85 -161.75 L22.0 -160.65 Q23.8 -159.0 23.8 -158.05 23.75 -157.25 22.8 -156.8 L21.05 -156.55 Q19.0 -156.55 18.3 -159.25 L18.1 -162.0 18.1 -163.65 18.1 -163.7 18.25 -165.25 9.15 -165.5 9.15 -163.95 9.15 -163.9 9.1 -162.3 Q9.0 -160.45 8.7 -159.5 7.95 -156.9 5.85 -156.95 L4.05 -157.25 Q3.2 -157.75 3.2 -158.55 3.25 -159.55 5.1 -161.05 L6.35 -162.35 Q6.95 -163.15 7.05 -163.9 L7.05 -163.95 6.75 -165.55 -2.25 -165.8 -2.7 -149.65 -5.75 -149.7 -20.85 -150.15 -36.55 -150.5 -39.9 -150.6 -58.8 -151.1 Q-59.85 -157.3 -59.3 -162.05 M-39.75 -155.0 L-39.45 -166.8 -45.15 -166.95 M9.15 -165.5 L6.75 -165.55 M20.6 -165.2 L18.25 -165.25 M-39.75 -155.0 L-39.9 -150.6 M-12.3 -166.05 L-39.45 -166.8 M-8.05 -165.95 L-5.35 -165.85 -2.25 -165.8 M-12.3 -166.05 L-8.05 -165.95" fill="none" stroke="#000000" stroke-linecap="round" stroke-linejoin="round" stroke-opacity="0.6627451" stroke-width="1.0"/>
      <path d="M-5.75 -149.7 L-5.35 -165.85" fill="none" stroke="#000000" stroke-linecap="round" stroke-linejoin="round" stroke-opacity="0.17254902" stroke-width="1.0"/>
      <path d="M-51.85 -157.85 Q-51.85 -159.5 -50.7 -160.65 -49.55 -161.65 -47.85 -161.55 -46.25 -161.55 -45.25 -160.5 -44.1 -159.3 -44.15 -157.65 -44.15 -156.05 -45.35 -154.95 -46.45 -153.8 -48.15 -153.8 -49.75 -153.9 -50.8 -155.1 -51.95 -156.25 -51.85 -157.85 M-46.35 -159.4 Q-46.9 -160.05 -47.95 -160.1 -48.85 -160.15 -49.55 -159.5 -50.2 -158.75 -50.25 -157.8 -50.25 -156.8 -49.65 -156.2 -48.95 -155.5 -48.05 -155.45 -47.0 -155.45 -46.45 -156.1 -45.65 -156.75 -45.65 -157.75 -45.6 -158.7 -46.35 -159.4" fill="#333333" fill-rule="evenodd" stroke="none"/>
      <path d="M-46.35 -159.4 Q-45.6 -158.7 -45.65 -157.75 -45.65 -156.75 -46.45 -156.1 -47.0 -155.45 -48.05 -155.45 -48.95 -155.5 -49.65 -156.2 -50.25 -156.8 -50.25 -157.8 -50.2 -158.75 -49.55 -159.5 -48.85 -160.15 -47.95 -160.1 -46.9 -160.05 -46.35 -159.4 M-47.15 -158.5 Q-47.1 -159.15 -47.55 -159.45 -47.8 -159.9 -48.45 -159.9 -49.0 -159.9 -49.4 -159.5 L-49.8 -158.6 -49.5 -157.55 Q-49.1 -157.2 -48.6 -157.15 -47.9 -157.15 -47.65 -157.5 -47.15 -157.95 -47.15 -158.5" fill="#1a1a1a" fill-rule="evenodd" stroke="none"/>
      <path d="M-47.15 -158.5 Q-47.15 -157.95 -47.65 -157.5 -47.9 -157.15 -48.6 -157.15 -49.1 -157.2 -49.5 -157.55 L-49.8 -158.6 -49.4 -159.5 Q-49.0 -159.9 -48.45 -159.9 -47.8 -159.9 -47.55 -159.45 -47.1 -159.15 -47.15 -158.5" fill="#cccccc" fill-rule="evenodd" stroke="none"/>
      <path d="M-51.85 -157.85 Q-51.85 -159.5 -50.7 -160.65 -49.55 -161.65 -47.85 -161.55 -46.25 -161.55 -45.25 -160.5 -44.1 -159.3 -44.15 -157.65 -44.15 -156.05 -45.35 -154.95 -46.45 -153.8 -48.15 -153.8 -49.75 -153.9 -50.8 -155.1 -51.95 -156.25 -51.85 -157.85" fill="none" stroke="#000000" stroke-linecap="round" stroke-linejoin="round" stroke-opacity="0.6627451" stroke-width="1.0"/>
      <path d="M-46.35 -159.4 Q-45.6 -158.7 -45.65 -157.75 -45.65 -156.75 -46.45 -156.1 -47.0 -155.45 -48.05 -155.45 -48.95 -155.5 -49.65 -156.2 -50.25 -156.8 -50.25 -157.8 -50.2 -158.75 -49.55 -159.5 -48.85 -160.15 -47.95 -160.1 -46.9 -160.05 -46.35 -159.4" fill="none" stroke="#000000" stroke-linecap="round" stroke-linejoin="round" stroke-opacity="0.6627451" stroke-width="0.25"/>
    </g>
  </defs>
</svg>
