<?xml version="1.0" encoding="UTF-8" standalone="no"?>
<svg xmlns:xlink="http://www.w3.org/1999/xlink" height="531.5px" width="460.6px" xmlns="http://www.w3.org/2000/svg">
  <g transform="matrix(1.0, 0.0, 0.0, 1.0, 193.65, 334.05)">
    <use height="79.85" transform="matrix(0.5456, 0.0, 0.0, 0.5456, -69.669, -187.8728)" width="228.6" xlink:href="#shape0"/>
  </g>
  <defs>
    <g id="shape0" transform="matrix(1.0, 0.0, 0.0, 1.0, 49.25, 0.5)">
      <path d="M33.2 19.1 L33.2 19.2 33.05 19.2 33.2 19.1" fill="#999999" fill-rule="evenodd" stroke="none"/>
      <path d="M42.95 13.85 L43.15 13.55 43.05 14.2 42.95 13.85" fill="#339933" fill-rule="evenodd" stroke="none"/>
      <path d="M53.3 14.6 L53.1 15.75 53.1 15.8 53.0 15.75 53.25 14.5 53.3 14.6" fill="#32852b" fill-rule="evenodd" stroke="none"/>
      <path d="M32.85 2.4 L32.9 2.4 33.65 3.55 33.6 2.05 35.45 1.15 Q36.75 0.55 37.75 0.2 L37.95 0.25 38.15 0.3 Q39.95 5.85 40.8 11.55 L41.15 11.5 Q41.85 11.5 42.45 12.65 L42.95 13.85 43.05 14.2 Q42.6 15.55 41.45 16.35 39.95 17.55 37.35 17.55 35.55 17.55 34.75 15.8 L33.45 11.9 31.2 8.2 29.35 5.6 Q29.35 4.4 31.75 3.0 L32.85 2.4 M47.1 9.6 Q49.2 8.1 50.85 8.1 53.8 8.1 55.0 9.05 L55.85 10.3 56.15 10.85 56.2 11.0 56.7 12.5 56.75 13.85 Q56.75 17.1 52.3 17.25 L53.1 15.8 53.1 15.75 53.3 14.6 53.3 14.25 Q53.3 12.0 51.8 10.8 50.35 9.6 47.7 9.6 L47.1 9.6 M56.5 10.4 Q57.0 9.8 57.8 9.35 59.05 8.7 60.2 8.7 61.65 8.7 62.25 9.25 62.65 9.65 63.3 11.2 63.05 10.95 62.65 10.85 L61.55 10.65 Q60.75 10.65 59.8 11.15 59.45 11.3 58.75 12.0 L58.55 11.75 Q57.85 11.1 56.5 10.4 M37.95 13.15 Q39.5 11.7 40.8 11.55 39.5 11.7 37.95 13.15" fill="#53ba25" fill-rule="evenodd" stroke="none"/>
      <path d="M29.35 12.25 Q27.45 9.65 25.25 7.85 26.1 3.55 29.25 0.9 L31.55 0.3 32.85 2.4 31.75 3.0 Q29.35 4.4 29.35 5.6 L31.2 8.2 33.45 11.9 34.75 15.8 Q35.55 17.55 37.35 17.55 39.95 17.55 41.45 16.35 42.6 15.55 43.05 14.2 L43.15 13.55 Q44.1 12.3 45.3 11.2 L47.1 9.6 47.7 9.6 Q50.35 9.6 51.8 10.8 53.3 12.0 53.3 14.25 L53.3 14.6 53.25 14.5 Q53.25 13.4 52.1 12.55 51.2 11.85 50.1 11.7 L49.55 11.7 Q48.1 11.75 46.9 13.6 45.65 15.45 44.9 17.5 L43.75 17.5 43.2 17.55 42.55 17.6 41.4 17.8 40.7 17.9 38.8 18.4 Q37.1 18.95 35.4 19.8 L33.2 19.2 33.2 19.1 32.1 16.7 30.6 14.1 29.35 12.25 M33.6 2.05 L33.55 0.05 37.75 0.2 Q36.75 0.55 35.45 1.15 L33.6 2.05 M56.15 10.85 L56.5 10.4 Q57.85 11.1 58.55 11.75 L58.75 12.0 56.75 13.85 56.7 12.5 56.2 11.0 56.15 10.85 M43.05 14.2 L43.15 15.75 Q43.15 16.35 42.55 17.6 43.15 16.35 43.15 15.75 L43.05 14.2" fill="#398f12" fill-rule="evenodd" stroke="none"/>
      <path d="M52.3 17.25 L52.0 17.25 50.5 16.8 49.9 16.35 Q48.95 15.45 48.95 14.25 48.95 13.65 50.1 11.7 51.2 11.85 52.1 12.55 53.25 13.4 53.25 14.5 L53.0 15.75 53.1 15.8 52.3 17.25 M52.5 16.15 L53.0 15.75 52.5 16.15" fill="#30780f" fill-rule="evenodd" stroke="none"/>
      <path d="M25.75 19.2 L25.45 18.8 Q24.55 17.7 24.55 16.45 L24.8 15.25 23.1 13.45 Q22.2 12.85 20.3 12.85 L18.85 12.85 Q22.55 10.45 26.05 12.6 L26.8 13.1 Q28.0 12.35 29.35 12.25 L30.6 14.1 29.7 14.1 28.85 14.6 28.75 14.65 Q28.3 14.9 28.0 15.25 27.3 16.05 27.3 16.95 27.3 17.9 27.95 18.85 L25.75 19.2 M24.8 15.25 Q25.15 14.35 26.15 13.6 L26.8 13.1 26.15 13.6 Q25.15 14.35 24.8 15.25" fill="#256309" fill-rule="evenodd" stroke="none"/>
      <path d="M27.95 18.85 Q27.3 17.9 27.3 16.95 27.3 16.05 28.0 15.25 28.3 14.9 28.75 14.65 L28.85 14.6 29.7 14.1 30.6 14.1 32.1 16.7 31.05 17.1 Q30.7 17.2 30.45 17.35 30.35 18.05 29.6 18.8 L28.9 18.8 27.95 18.85 M30.2 16.05 L30.45 17.2 30.45 17.35 30.45 17.2 30.2 16.05" fill="#1d4d07" fill-rule="evenodd" stroke="none"/>
      <path d="M66.25 23.85 L66.55 24.4 66.55 24.45 Q67.9 26.95 70.9 34.15 71.85 36.4 73.1 42.85 74.7 50.6 74.75 55.9 74.9 61.95 72.6 67.5 L70.7 71.4 70.65 71.4 70.15 71.4 Q64.75 71.05 63.45 63.65 62.9 56.4 61.95 51.4 63.05 63.4 61.25 76.35 L59.05 77.1 Q48.15 76.4 42.9 65.6 38.75 57.1 38.75 44.4 38.75 33.1 39.95 27.6 41.65 19.3 43.75 17.5 L44.9 17.5 47.0 17.65 Q50.05 18.1 52.9 19.8 60.9 18.7 66.25 23.85 M35.4 19.8 L36.5 53.15 35.9 55.4 Q34.15 61.15 32.25 61.15 29.35 61.15 27.7 53.2 26.4 46.95 26.4 39.75 26.4 32.65 27.15 27.3 27.65 23.85 28.9 18.8 L29.6 18.8 32.5 19.05 33.05 19.2 33.2 19.2 35.4 19.8 M52.9 19.8 Q60.3 34.7 61.95 51.4 60.3 34.7 52.9 19.8" fill="#ff9900" fill-opacity="0.7019608" fill-rule="evenodd" stroke="none"/>
      <path d="M59.05 77.1 Q48.25 80.55 37.25 77.2 L36.5 53.15 35.4 19.8 Q37.1 18.95 38.8 18.4 L40.7 17.9 41.4 17.8 42.55 17.6 43.2 17.55 43.75 17.5 Q41.65 19.3 39.95 27.6 38.75 33.1 38.75 44.4 38.75 57.1 42.9 65.6 48.15 76.4 59.05 77.1" fill="url(#gradient0)" fill-rule="evenodd" stroke="none"/>
      <path d="M37.25 77.2 Q22.65 80.75 13.5 74.55 5.95 45.9 15.3 26.1 19.9 20.45 25.75 19.2 L27.95 18.85 28.9 18.8 Q27.65 23.85 27.15 27.3 26.4 32.65 26.4 39.75 26.4 46.95 27.7 53.2 29.35 61.15 32.25 61.15 34.15 61.15 35.9 55.4 L36.5 53.15 37.25 77.2" fill="url(#gradient1)" fill-rule="evenodd" stroke="none"/>
      <path d="M70.7 71.4 L69.3 73.75 68.3 74.35 67.7 74.7 Q64.35 76.65 61.25 76.35 63.05 63.4 61.95 51.4 62.9 56.4 63.45 63.65 64.75 71.05 70.15 71.4 L70.65 71.4 70.7 71.4" fill="url(#gradient2)" fill-rule="evenodd" stroke="none"/>
      <path d="M66.25 23.85 L66.85 24.4 Q69.4 27.1 71.3 31.35 80.0 50.75 74.5 67.8 74.0 69.35 72.7 70.9 L69.3 73.75 70.7 71.4 72.6 67.5 Q74.9 61.95 74.75 55.9 74.7 50.6 73.1 42.85 71.85 36.4 70.9 34.15 67.9 26.95 66.55 24.45 L66.55 24.4 66.25 23.85" fill="#ffcc00" fill-opacity="0.7019608" fill-rule="evenodd" stroke="none"/>
      <path d="M13.5 74.55 Q0.3 73.65 0.0 52.05 -0.3 30.35 15.3 26.1 5.95 45.9 13.5 74.55" fill="#c96000" fill-opacity="0.7019608" fill-rule="evenodd" stroke="none"/>
      <path d="M69.3 73.75 L72.7 70.9 Q74.0 69.35 74.5 67.8 80.0 50.75 71.3 31.35 69.4 27.1 66.85 24.4 L66.25 23.85 Q60.9 18.7 52.9 19.8 50.05 18.1 47.0 17.65 L44.9 17.5 43.75 17.5 43.2 17.55 42.55 17.6 41.4 17.8 40.7 17.9 38.8 18.4 Q37.1 18.95 35.4 19.8 L33.2 19.2 33.05 19.2 32.5 19.05 29.6 18.8 Q30.35 18.05 30.45 17.35 L30.45 17.2 30.2 16.05 M69.3 73.75 L68.3 74.35 67.7 74.7 Q64.35 76.65 61.25 76.35 L59.05 77.1 Q48.25 80.55 37.25 77.2 22.65 80.75 13.5 74.55 0.3 73.65 0.0 52.05 -0.3 30.35 15.3 26.1 19.9 20.45 25.75 19.2 L25.45 18.8 Q24.55 17.7 24.55 16.45 L24.8 15.25 23.1 13.45 Q22.2 12.85 20.3 12.85 L18.85 12.85 Q22.55 10.45 26.05 12.6 L26.8 13.1 Q28.0 12.35 29.35 12.25 27.45 9.65 25.25 7.85 26.1 3.55 29.25 0.9 L31.55 0.3 32.85 2.4 32.9 2.4 33.65 3.55 33.6 2.05 33.55 0.05 37.75 0.2 37.95 0.25 38.15 0.3 Q39.95 5.85 40.8 11.55 L41.15 11.5 Q41.85 11.5 42.45 12.65 L42.95 13.85 43.15 13.55 Q44.1 12.3 45.3 11.2 L47.1 9.6 Q49.2 8.1 50.85 8.1 53.8 8.1 55.0 9.05 L55.85 10.3 56.15 10.85 56.5 10.4 Q57.0 9.8 57.8 9.35 59.05 8.7 60.2 8.7 61.65 8.7 62.25 9.25 62.65 9.65 63.3 11.2 63.05 10.95 62.65 10.85 L61.55 10.65 Q60.75 10.65 59.8 11.15 59.45 11.3 58.75 12.0 L56.75 13.85 Q56.75 17.1 52.3 17.25 L52.0 17.25 50.5 16.8 49.9 16.35 Q48.95 15.45 48.95 14.25 48.95 13.65 50.1 11.7 L49.55 11.7 Q48.1 11.75 46.9 13.6 45.65 15.45 44.9 17.5 M56.15 10.85 L56.2 11.0 56.7 12.5 56.75 13.85 M42.55 17.6 Q43.15 16.35 43.15 15.75 L43.05 14.2 42.95 13.85 M53.25 14.5 L53.0 15.75 52.5 16.15 M53.25 14.5 Q53.25 13.4 52.1 12.55 51.2 11.85 50.1 11.7 M26.8 13.1 L26.15 13.6 Q25.15 14.35 24.8 15.25 M27.95 18.85 Q27.3 17.9 27.3 16.95 27.3 16.05 28.0 15.25 28.3 14.9 28.75 14.65 L28.85 14.6 29.7 14.1 30.6 14.1 29.35 12.25 M25.75 19.2 L27.95 18.85 28.9 18.8 29.6 18.8 M30.6 14.1 L32.1 16.7 33.2 19.1 33.2 19.2 M32.1 16.7 L31.05 17.1 Q30.7 17.2 30.45 17.35 M40.8 11.55 Q39.5 11.7 37.95 13.15" fill="none" stroke="#000000" stroke-linecap="round" stroke-linejoin="round" stroke-opacity="0.5019608" stroke-width="1.0"/>
      <path d="M35.4 19.8 L36.5 53.15 37.25 77.2 M61.95 51.4 Q63.05 63.4 61.25 76.35 M61.95 51.4 Q60.3 34.7 52.9 19.8 M15.3 26.1 Q5.95 45.9 13.5 74.55" fill="none" stroke="#000000" stroke-linecap="round" stroke-linejoin="round" stroke-opacity="0.3019608" stroke-width="1.0"/>
      <path d="M2.35 48.8 Q4.6 51.5 2.35 54.85 L-35.35 60.1 Q-41.35 65.5 -41.6 74.55 L-48.75 76.95 Q-48.0 67.35 -43.4 60.15 -39.05 53.4 -30.35 52.45 L2.35 48.8" fill="#6d0000" fill-rule="evenodd" stroke="none"/>
      <path d="M2.35 48.8 L-30.35 52.45 Q-39.05 53.4 -43.4 60.15 -48.0 67.35 -48.75 76.95 L-41.6 74.55 Q-41.35 65.5 -35.35 60.1 L2.35 54.85 Q4.6 51.5 2.35 48.8 Z" fill="none" stroke="#000000" stroke-linecap="round" stroke-linejoin="round" stroke-opacity="0.4" stroke-width="1.0"/>
      <path d="M135.4 19.1 L135.4 19.2 135.25 19.2 135.4 19.1" fill="#999999" fill-rule="evenodd" stroke="none"/>
      <path d="M145.35 13.55 L145.25 14.2 145.15 13.85 145.35 13.55" fill="#339933" fill-rule="evenodd" stroke="none"/>
      <path d="M155.5 14.6 L155.3 15.75 155.3 15.8 155.2 15.75 155.45 14.5 155.5 14.6" fill="#32852b" fill-rule="evenodd" stroke="none"/>
      <path d="M158.7 10.4 Q159.2 9.8 160.0 9.35 161.25 8.7 162.4 8.7 163.85 8.7 164.45 9.25 164.85 9.65 165.5 11.2 165.25 10.95 164.85 10.85 L163.75 10.65 Q162.95 10.65 162.0 11.15 L160.95 12.0 160.75 11.75 Q160.05 11.1 158.7 10.4 M158.95 13.85 Q158.95 17.1 154.5 17.25 L155.3 15.8 155.3 15.75 155.5 14.6 155.5 14.25 Q155.5 12.0 154.0 10.8 152.55 9.6 149.9 9.6 L149.3 9.6 Q151.4 8.1 153.05 8.1 156.0 8.1 157.2 9.05 L158.05 10.3 158.35 10.85 158.4 11.0 158.9 12.5 158.95 13.85 M143.0 11.55 L143.35 11.5 Q144.05 11.5 144.65 12.65 L145.15 13.85 145.25 14.2 Q144.8 15.55 143.65 16.35 142.15 17.55 139.55 17.55 137.75 17.55 136.95 15.8 L135.65 11.9 133.4 8.2 131.55 5.6 Q131.55 4.4 133.95 3.0 134.45 2.65 135.05 2.4 L135.1 2.4 135.85 3.55 135.8 2.05 137.65 1.15 139.95 0.2 140.15 0.25 140.35 0.3 Q142.15 5.85 143.0 11.55 141.7 11.7 140.15 13.15 141.7 11.7 143.0 11.55" fill="#53ba25" fill-rule="evenodd" stroke="none"/>
      <path d="M158.7 10.4 Q160.05 11.1 160.75 11.75 L160.95 12.0 158.95 13.85 158.9 12.5 158.4 11.0 158.35 10.85 158.7 10.4 M152.3 11.7 L151.75 11.7 Q150.3 11.75 149.1 13.6 147.85 15.45 147.1 17.5 L145.95 17.5 145.4 17.55 144.75 17.6 143.6 17.8 142.9 17.9 141.0 18.4 Q139.3 18.95 137.6 19.8 L135.4 19.2 135.4 19.1 134.3 16.7 132.8 14.1 131.55 12.25 Q129.65 9.65 127.45 7.85 128.3 3.55 131.45 0.9 L133.75 0.3 135.05 2.4 Q134.45 2.65 133.95 3.0 131.55 4.4 131.55 5.6 L133.4 8.2 135.65 11.9 136.95 15.8 Q137.75 17.55 139.55 17.55 142.15 17.55 143.65 16.35 144.8 15.55 145.25 14.2 L145.35 13.55 147.5 11.2 149.3 9.6 149.9 9.6 Q152.55 9.6 154.0 10.8 155.5 12.0 155.5 14.25 L155.5 14.6 155.45 14.5 Q155.45 13.4 154.3 12.55 153.4 11.85 152.3 11.7 M144.75 17.6 Q145.35 16.35 145.35 15.75 L145.25 14.2 145.35 15.75 Q145.35 16.35 144.75 17.6 M139.95 0.2 L137.65 1.15 135.8 2.05 135.75 0.05 139.95 0.2" fill="#398f12" fill-rule="evenodd" stroke="none"/>
      <path d="M154.5 17.25 L154.2 17.25 Q153.4 17.25 152.7 16.8 L152.1 16.35 Q151.15 15.45 151.15 14.25 151.15 13.65 152.3 11.7 153.4 11.85 154.3 12.55 155.45 13.4 155.45 14.5 L155.2 15.75 155.3 15.8 154.5 17.25 M154.7 16.15 L155.2 15.75 154.7 16.15" fill="#30780f" fill-rule="evenodd" stroke="none"/>
      <path d="M131.55 12.25 L132.8 14.1 131.9 14.1 131.05 14.6 130.95 14.65 Q130.5 14.9 130.2 15.25 129.5 16.05 129.5 16.95 129.5 17.9 130.15 18.85 L127.95 19.2 127.65 18.8 Q126.75 17.7 126.75 16.45 L127.0 15.25 125.3 13.45 Q124.4 12.85 122.5 12.85 L121.05 12.85 Q124.75 10.45 128.25 12.6 L129.0 13.1 Q130.2 12.35 131.55 12.25 M127.0 15.25 Q127.35 14.35 128.35 13.6 L129.0 13.1 128.35 13.6 Q127.35 14.35 127.0 15.25" fill="#256309" fill-rule="evenodd" stroke="none"/>
      <path d="M132.8 14.1 L134.3 16.7 133.25 17.1 132.65 17.35 131.8 18.8 131.1 18.8 130.15 18.85 Q129.5 17.9 129.5 16.95 129.5 16.05 130.2 15.25 130.5 14.9 130.95 14.65 L131.05 14.6 131.9 14.1 132.8 14.1 M132.4 16.05 L132.65 17.2 132.65 17.35 132.65 17.2 132.4 16.05" fill="#1d4d07" fill-rule="evenodd" stroke="none"/>
      <path d="M168.45 23.85 L168.75 24.4 168.75 24.45 Q170.1 26.95 173.1 34.15 174.05 36.4 175.3 42.85 176.9 50.6 176.95 55.9 177.1 61.95 174.8 67.5 L172.9 71.4 172.85 71.4 172.35 71.4 Q166.95 71.05 165.65 63.65 165.1 56.4 164.15 51.4 162.5 34.7 155.1 19.8 162.5 34.7 164.15 51.4 165.25 63.4 163.45 76.35 L161.25 77.1 Q150.35 76.4 145.1 65.6 140.95 57.1 140.95 44.4 140.95 33.1 142.15 27.6 143.85 19.3 145.95 17.5 L147.1 17.5 149.2 17.65 Q152.25 18.1 155.1 19.8 163.1 18.7 168.45 23.85 M137.6 19.8 L138.7 53.15 138.1 55.4 Q136.35 61.15 134.45 61.15 131.55 61.15 129.9 53.2 128.6 46.95 128.6 39.75 128.6 32.65 129.35 27.3 129.85 23.85 131.1 18.8 L131.8 18.8 134.7 19.05 135.25 19.2 135.4 19.2 137.6 19.8" fill="#ff9900" fill-opacity="0.7019608" fill-rule="evenodd" stroke="none"/>
      <path d="M144.75 17.6 L145.4 17.55 145.95 17.5 Q143.85 19.3 142.15 27.6 140.95 33.1 140.95 44.4 140.95 57.1 145.1 65.6 150.35 76.4 161.25 77.1 150.45 80.55 139.45 77.2 L138.7 53.15 137.6 19.8 Q139.3 18.95 141.0 18.4 L142.9 17.9 143.6 17.8 144.75 17.6" fill="url(#gradient3)" fill-rule="evenodd" stroke="none"/>
      <path d="M138.7 53.15 L139.45 77.2 Q124.85 80.75 115.7 74.55 108.15 45.9 117.5 26.1 122.1 20.45 127.95 19.2 L130.15 18.85 131.1 18.8 Q129.85 23.85 129.35 27.3 128.6 32.65 128.6 39.75 128.6 46.95 129.9 53.2 131.55 61.15 134.45 61.15 136.35 61.15 138.1 55.4 L138.7 53.15" fill="url(#gradient4)" fill-rule="evenodd" stroke="none"/>
      <path d="M164.15 51.4 Q165.1 56.4 165.65 63.65 166.95 71.05 172.35 71.4 L172.85 71.4 172.9 71.4 171.5 73.75 170.5 74.35 169.9 74.7 Q166.55 76.65 163.45 76.35 165.25 63.4 164.15 51.4" fill="url(#gradient5)" fill-rule="evenodd" stroke="none"/>
      <path d="M172.9 71.4 L174.8 67.5 Q177.1 61.95 176.95 55.9 176.9 50.6 175.3 42.85 174.05 36.4 173.1 34.15 170.1 26.95 168.75 24.45 L168.75 24.4 168.45 23.85 169.05 24.4 Q171.6 27.1 173.5 31.35 182.2 50.75 176.7 67.8 176.2 69.35 174.9 70.9 173.6 72.3 171.5 73.75 L172.9 71.4" fill="#ffcc00" fill-opacity="0.7019608" fill-rule="evenodd" stroke="none"/>
      <path d="M115.7 74.55 Q102.5 73.65 102.2 52.05 101.9 30.35 117.5 26.1 108.15 45.9 115.7 74.55" fill="#c96000" fill-opacity="0.7019608" fill-rule="evenodd" stroke="none"/>
      <path d="M168.45 23.85 Q163.1 18.7 155.1 19.8 152.25 18.1 149.2 17.65 L147.1 17.5 Q147.85 15.45 149.1 13.6 150.3 11.75 151.75 11.7 L152.3 11.7 Q151.15 13.65 151.15 14.25 151.15 15.45 152.1 16.35 L152.7 16.8 Q153.4 17.25 154.2 17.25 L154.5 17.25 Q158.95 17.1 158.95 13.85 L160.95 12.0 162.0 11.15 Q162.95 10.65 163.75 10.65 L164.85 10.85 Q165.25 10.95 165.5 11.2 164.85 9.65 164.45 9.25 163.85 8.7 162.4 8.7 161.25 8.7 160.0 9.35 159.2 9.8 158.7 10.4 L158.35 10.85 158.4 11.0 158.9 12.5 158.95 13.85 M171.5 73.75 Q173.6 72.3 174.9 70.9 176.2 69.35 176.7 67.8 182.2 50.75 173.5 31.35 171.6 27.1 169.05 24.4 L168.45 23.85 M149.3 9.6 Q151.4 8.1 153.05 8.1 156.0 8.1 157.2 9.05 L158.05 10.3 158.35 10.85 M145.35 13.55 L147.5 11.2 149.3 9.6 M145.15 13.85 L144.65 12.65 Q144.05 11.5 143.35 11.5 L143.0 11.55 Q141.7 11.7 140.15 13.15 M145.25 14.2 L145.35 15.75 Q145.35 16.35 144.75 17.6 L145.4 17.55 145.95 17.5 147.1 17.5 M144.75 17.6 L143.6 17.8 142.9 17.9 141.0 18.4 Q139.3 18.95 137.6 19.8 L135.4 19.2 135.25 19.2 134.7 19.05 131.8 18.8 132.65 17.35 132.65 17.2 132.4 16.05 M139.45 77.2 Q150.45 80.55 161.25 77.1 L163.45 76.35 Q166.55 76.65 169.9 74.7 L170.5 74.35 171.5 73.75 M145.15 13.85 L145.35 13.55 M145.25 14.2 L145.15 13.85 M135.05 2.4 L133.75 0.3 131.45 0.9 Q128.3 3.55 127.45 7.85 129.65 9.65 131.55 12.25 L132.8 14.1 134.3 16.7 135.4 19.1 135.4 19.2 M155.45 14.5 L155.2 15.75 154.7 16.15 M155.45 14.5 Q155.45 13.4 154.3 12.55 153.4 11.85 152.3 11.7 M143.0 11.55 Q142.15 5.85 140.35 0.3 L140.15 0.25 139.95 0.2 135.75 0.05 135.8 2.05 135.85 3.55 135.1 2.4 135.05 2.4 M130.15 18.85 Q129.5 17.9 129.5 16.95 129.5 16.05 130.2 15.25 130.5 14.9 130.95 14.65 L131.05 14.6 131.9 14.1 132.8 14.1 M129.0 13.1 L128.35 13.6 Q127.35 14.35 127.0 15.25 L126.75 16.45 Q126.75 17.7 127.65 18.8 L127.95 19.2 130.15 18.85 131.1 18.8 131.8 18.8 M127.0 15.25 L125.3 13.45 Q124.4 12.85 122.5 12.85 L121.05 12.85 Q124.75 10.45 128.25 12.6 L129.0 13.1 Q130.2 12.35 131.55 12.25 M132.65 17.35 L133.25 17.1 134.3 16.7 M117.5 26.1 Q122.1 20.45 127.95 19.2 M115.7 74.55 Q102.5 73.65 102.2 52.05 101.9 30.35 117.5 26.1 M115.7 74.55 Q124.85 80.75 139.45 77.2" fill="none" stroke="#000000" stroke-linecap="round" stroke-linejoin="round" stroke-opacity="0.5019608" stroke-width="1.0"/>
      <path d="M155.1 19.8 Q162.5 34.7 164.15 51.4 165.25 63.4 163.45 76.35 M137.6 19.8 L138.7 53.15 139.45 77.2 M117.5 26.1 Q108.15 45.9 115.7 74.55" fill="none" stroke="#000000" stroke-linecap="round" stroke-linejoin="round" stroke-opacity="0.3019608" stroke-width="1.0"/>
      <path d="M104.85 55.15 Q88.0 48.15 71.1 55.15 68.1 51.75 71.1 46.85 87.3 38.4 104.85 46.85 107.15 51.0 104.85 55.15" fill="#6d0000" fill-rule="evenodd" stroke="none"/>
      <path d="M104.85 55.15 Q88.0 48.15 71.1 55.15 68.1 51.75 71.1 46.85 87.3 38.4 104.85 46.85 107.15 51.0 104.85 55.15 Z" fill="none" stroke="#000000" stroke-linecap="round" stroke-linejoin="round" stroke-opacity="0.4" stroke-width="1.0"/>
    </g>
    <linearGradient gradientTransform="matrix(0.0055, -0.0207, 0.0361, 0.0096, 47.35, 43.0)" gradientUnits="userSpaceOnUse" id="gradient0" spreadMethod="pad" x1="-819.2" x2="819.2">
      <stop offset="0.0" stop-color="#db7800" stop-opacity="0.7019608"/>
      <stop offset="0.9882352941176471" stop-color="#ff9900" stop-opacity="0.7019608"/>
    </linearGradient>
    <linearGradient gradientTransform="matrix(0.0165, 0.0, 0.0, 0.0364, 23.7, 48.65)" gradientUnits="userSpaceOnUse" id="gradient1" spreadMethod="pad" x1="-819.2" x2="819.2">
      <stop offset="0.0" stop-color="#db7800" stop-opacity="0.7019608"/>
      <stop offset="0.9882352941176471" stop-color="#ff9900" stop-opacity="0.7019608"/>
    </linearGradient>
    <linearGradient gradientTransform="matrix(0.0058, 0.0, 0.0, 0.0153, 65.95, 63.9)" gradientUnits="userSpaceOnUse" id="gradient2" spreadMethod="pad" x1="-819.2" x2="819.2">
      <stop offset="0.0" stop-color="#db7800" stop-opacity="0.7019608"/>
      <stop offset="0.9686274509803922" stop-color="#ff9900" stop-opacity="0.7019608"/>
    </linearGradient>
    <linearGradient gradientTransform="matrix(0.0055, -0.0207, 0.0361, 0.0096, 149.55, 43.0)" gradientUnits="userSpaceOnUse" id="gradient3" spreadMethod="pad" x1="-819.2" x2="819.2">
      <stop offset="0.0" stop-color="#db7800" stop-opacity="0.7019608"/>
      <stop offset="0.9882352941176471" stop-color="#ff9900" stop-opacity="0.7019608"/>
    </linearGradient>
    <linearGradient gradientTransform="matrix(0.0165, 0.0, 0.0, 0.0364, 125.9, 48.65)" gradientUnits="userSpaceOnUse" id="gradient4" spreadMethod="pad" x1="-819.2" x2="819.2">
      <stop offset="0.0" stop-color="#db7800" stop-opacity="0.7019608"/>
      <stop offset="0.9882352941176471" stop-color="#ff9900" stop-opacity="0.7019608"/>
    </linearGradient>
    <linearGradient gradientTransform="matrix(0.0058, 0.0, 0.0, 0.0153, 168.15, 63.9)" gradientUnits="userSpaceOnUse" id="gradient5" spreadMethod="pad" x1="-819.2" x2="819.2">
      <stop offset="0.0" stop-color="#db7800" stop-opacity="0.7019608"/>
      <stop offset="0.9686274509803922" stop-color="#ff9900" stop-opacity="0.7019608"/>
    </linearGradient>
  </defs>
</svg>
