<?xml version="1.0" encoding="UTF-8" standalone="no"?>
<svg xmlns:xlink="http://www.w3.org/1999/xlink" height="531.5px" width="460.6px" xmlns="http://www.w3.org/2000/svg">
  <g transform="matrix(1.0, 0.0, 0.0, 1.0, 193.65, 334.05)">
    <use height="34.65" transform="matrix(1.0, 0.0, 0.0, 1.0, -36.5, -175.15)" width="83.8" xlink:href="#shape0"/>
  </g>
  <defs>
    <g id="shape0" transform="matrix(1.0, 0.0, 0.0, 1.0, 36.5, 175.15)">
      <path d="M24.7 -165.35 L23.9 -165.45 25.2 -167.4 28.25 -170.1 29.85 -171.05 Q31.35 -171.9 35.75 -170.95 40.05 -170.0 42.05 -168.35 44.05 -166.7 44.85 -165.7 L45.85 -163.85 46.55 -161.55 Q47.0 -160.05 46.9 -158.85 L46.8 -158.8 46.75 -158.8 46.55 -158.8 46.4 -158.85 41.95 -160.6 Q38.1 -161.95 34.3 -162.9 L33.6 -163.2 24.7 -165.35 M42.3 -162.4 Q38.45 -164.55 34.0 -164.9 38.45 -164.55 42.3 -162.4" fill="url(#gradient0)" fill-rule="evenodd" stroke="none"/>
      <path d="M41.95 -160.6 L40.75 -156.95 Q39.1 -155.0 37.05 -155.05 34.9 -155.15 33.85 -157.15 32.8 -159.05 34.3 -162.9 38.1 -161.95 41.95 -160.6 M-30.65 -163.0 Q-24.75 -164.75 -19.95 -165.35 -17.35 -158.25 -21.75 -156.35 -26.35 -154.55 -28.6 -157.4 -30.9 -160.35 -30.65 -163.0" fill="#000000" fill-rule="evenodd" stroke="none"/>
      <path d="M46.4 -158.85 Q45.25 -152.4 41.35 -150.05 L40.25 -150.25 39.75 -151.1 Q39.2 -151.7 38.85 -151.2 L39.4 -150.65 40.0 -150.05 40.15 -150.05 40.4 -149.55 40.15 -149.45 32.8 -149.9 Q29.95 -150.4 28.5 -151.1 L28.05 -151.1 Q26.4 -151.8 24.75 -154.35 23.2 -156.9 23.2 -159.2 L23.2 -160.25 23.2 -160.35 23.3 -162.05 23.75 -163.6 Q24.1 -164.65 24.7 -165.35 L33.6 -163.2 34.3 -162.9 Q32.8 -159.05 33.85 -157.15 34.9 -155.15 37.05 -155.05 39.1 -155.0 40.75 -156.95 L41.95 -160.6 46.4 -158.85 M27.0 -159.8 L27.3 -159.9 27.3 -160.15 27.1 -160.25 26.65 -160.25 26.05 -160.25 25.8 -160.7 Q25.35 -160.95 24.6 -160.7 L23.9 -160.25 Q23.8 -160.05 24.1 -160.0 L24.7 -160.15 25.3 -160.25 25.65 -160.05 25.65 -159.9 26.4 -158.6 26.6 -158.5 26.6 -158.6 26.4 -159.55 26.25 -159.8 26.4 -159.75 27.0 -159.8" fill="url(#gradient1)" fill-rule="evenodd" stroke="none"/>
      <path d="M41.35 -150.05 L40.5 -149.55 40.25 -149.35 40.15 -149.45 40.4 -149.55 40.15 -150.05 40.25 -150.25 41.35 -150.05 M-9.3 -154.2 L-10.1 -153.0 -10.35 -152.8 -10.5 -153.0 -10.5 -153.4 -11.2 -153.7 -11.2 -153.75 -11.05 -153.85 -9.3 -154.2" fill="#fc6e62" fill-rule="evenodd" stroke="none"/>
      <path d="M40.15 -150.05 L40.0 -150.05 39.4 -150.65 38.85 -151.2 Q39.2 -151.7 39.75 -151.1 L40.25 -150.25 40.15 -150.05 M27.0 -159.8 L26.4 -159.75 26.25 -159.8 26.4 -159.55 26.6 -158.6 26.6 -158.5 26.4 -158.6 25.65 -159.9 25.65 -160.05 25.3 -160.25 24.7 -160.15 24.1 -160.0 Q23.8 -160.05 23.9 -160.25 L24.6 -160.7 Q25.35 -160.95 25.8 -160.7 L26.05 -160.25 26.65 -160.25 27.1 -160.25 27.3 -160.15 27.3 -159.9 27.0 -159.8 M-10.5 -153.0 L-10.7 -152.9 -11.35 -153.4 Q-12.0 -153.85 -12.5 -153.7 -12.95 -153.75 -13.25 -154.3 L-13.95 -155.15 -13.25 -155.0 -12.75 -154.35 -11.55 -153.75 -11.2 -153.7 -10.5 -153.4 -10.5 -153.0 M-11.2 -153.75 L-11.8 -154.55 -11.8 -154.7 Q-11.35 -154.8 -11.2 -154.45 L-11.05 -153.85 -11.2 -153.75" fill="#990000" fill-rule="evenodd" stroke="none"/>
      <path d="M-34.1 -168.2 L-34.1 -168.3 -34.0 -168.35 -34.1 -168.2" fill="#999999" fill-rule="evenodd" stroke="none"/>
      <path d="M-34.0 -168.35 L-33.95 -168.55 -31.6 -171.2 Q-29.55 -173.2 -24.1 -174.3 L-15.8 -174.0 Q-12.85 -172.5 -11.45 -171.3 -10.15 -170.0 -9.45 -168.55 -8.45 -167.15 -8.1 -165.0 L-19.95 -165.35 Q-24.75 -164.75 -30.65 -163.0 L-35.5 -161.9 -36.1 -161.8 -36.0 -163.55 Q-35.6 -165.95 -34.35 -167.85 L-34.1 -168.2 -34.0 -168.35 M-16.65 -167.85 Q-21.9 -168.7 -28.85 -165.75 -21.9 -168.7 -16.65 -167.85" fill="url(#gradient2)" fill-rule="evenodd" stroke="none"/>
      <path d="M-8.1 -165.0 Q-8.85 -164.9 -8.8 -164.55 L-8.5 -163.6 -8.35 -162.85 Q-7.5 -157.5 -9.3 -154.2 L-11.05 -153.85 -11.2 -154.45 Q-11.35 -154.8 -11.8 -154.7 L-11.8 -154.55 -11.2 -153.75 -11.2 -153.7 -11.55 -153.75 -12.75 -154.35 -13.25 -155.0 -13.95 -155.15 -13.25 -154.3 Q-12.95 -153.75 -12.5 -153.7 -12.0 -153.85 -11.35 -153.4 L-10.7 -152.9 -10.5 -153.0 -10.35 -152.8 Q-12.0 -150.65 -14.3 -149.6 -20.45 -147.45 -28.3 -149.1 -29.0 -149.3 -29.7 -149.8 L-29.8 -149.8 -31.85 -151.5 -31.85 -151.6 -32.05 -151.8 Q-34.55 -154.45 -35.25 -158.25 L-35.5 -161.9 -30.65 -163.0 Q-30.9 -160.35 -28.6 -157.4 -26.35 -154.55 -21.75 -156.35 -17.35 -158.25 -19.95 -165.35 L-8.1 -165.0" fill="url(#gradient3)" fill-rule="evenodd" stroke="none"/>
      <path d="M24.7 -165.35 L23.9 -165.45 25.2 -167.4 28.25 -170.1 29.85 -171.05 Q31.35 -171.9 35.75 -170.95 40.05 -170.0 42.05 -168.35 44.05 -166.7 44.85 -165.7 L45.85 -163.85 46.55 -161.55 Q47.0 -160.05 46.9 -158.85 L46.8 -158.8 46.75 -158.8 46.55 -158.8 46.4 -158.85 Q45.25 -152.4 41.35 -150.05 L40.5 -149.55 40.25 -149.35 45.25 -150.05 M41.95 -160.6 L46.4 -158.85 M34.3 -162.9 Q32.8 -159.05 33.85 -157.15 34.9 -155.15 37.05 -155.05 39.1 -155.0 40.75 -156.95 L41.95 -160.6 Q38.1 -161.95 34.3 -162.9 L33.6 -163.2 24.7 -165.35 Q24.1 -164.65 23.75 -163.6 L23.3 -162.05 23.2 -160.35 23.2 -160.25 23.2 -159.2 Q23.2 -156.9 24.75 -154.35 26.4 -151.8 28.05 -151.1 L28.5 -151.1 Q29.95 -150.4 32.8 -149.9 L40.15 -149.45 40.25 -149.35 M21.2 -152.9 L24.35 -153.0 Q26.3 -151.7 28.05 -151.1 M31.95 -146.6 Q36.55 -145.3 41.2 -146.7 M35.5 -143.5 Q37.9 -142.7 40.6 -144.35 M34.0 -164.9 Q38.45 -164.55 42.3 -162.4 M-34.1 -168.2 L-34.1 -168.3 -34.0 -168.35 -33.95 -168.55 -31.6 -171.2 Q-29.55 -173.2 -24.1 -174.3 L-15.8 -174.0 Q-12.85 -172.5 -11.45 -171.3 -10.15 -170.0 -9.45 -168.55 -8.45 -167.15 -8.1 -165.0 -8.85 -164.9 -8.8 -164.55 L-8.5 -163.6 -8.35 -162.85 Q-7.5 -157.5 -9.3 -154.2 L-10.1 -153.0 -10.35 -152.8 Q-12.0 -150.65 -14.3 -149.6 L-9.65 -151.35 Q-7.85 -151.5 -7.4 -150.75 M-34.0 -168.35 L-34.1 -168.2 -34.35 -167.85 Q-35.6 -165.95 -36.0 -163.55 L-36.1 -161.8 -35.5 -161.9 -30.65 -163.0 Q-24.75 -164.75 -19.95 -165.35 L-8.1 -165.0 M-28.3 -149.1 Q-29.0 -149.3 -29.7 -149.8 L-29.8 -149.8 -31.85 -151.5 -31.85 -151.6 -32.05 -151.8 Q-34.55 -154.45 -35.25 -158.25 L-35.5 -161.9 M-33.5 -148.25 Q-33.6 -150.15 -29.95 -149.35 L-29.85 -149.35 -28.3 -149.1 Q-20.45 -147.45 -14.3 -149.6 M-30.65 -163.0 Q-30.9 -160.35 -28.6 -157.4 -26.35 -154.55 -21.75 -156.35 -17.35 -158.25 -19.95 -165.35 M-28.85 -165.75 Q-21.9 -168.7 -16.65 -167.85 M-30.55 -146.5 Q-25.45 -142.1 -17.4 -144.55 M-28.9 -142.55 Q-26.25 -140.45 -21.65 -141.05" fill="none" stroke="#000000" stroke-linecap="round" stroke-linejoin="round" stroke-opacity="0.4" stroke-width="0.8"/>
    </g>
    <linearGradient gradientTransform="matrix(0.0013, -0.0048, 0.0076, 0.002, 44.5, -162.15)" gradientUnits="userSpaceOnUse" id="gradient0" spreadMethod="pad" x1="-819.2" x2="819.2">
      <stop offset="0.0" stop-color="#646464"/>
      <stop offset="1.0" stop-color="#999999"/>
    </linearGradient>
    <radialGradient cx="0" cy="0" gradientTransform="matrix(0.015, 0.0, 0.0, 0.0149, 35.05, -158.6)" gradientUnits="userSpaceOnUse" id="gradient1" r="819.2" spreadMethod="pad">
      <stop offset="0.0" stop-color="#fcb3ad"/>
      <stop offset="1.0" stop-color="#fc6e62"/>
    </radialGradient>
    <linearGradient gradientTransform="matrix(-0.0016, -0.006, 0.0156, -0.0042, -21.4, -166.7)" gradientUnits="userSpaceOnUse" id="gradient2" spreadMethod="pad" x1="-819.2" x2="819.2">
      <stop offset="0.0" stop-color="#646464"/>
      <stop offset="1.0" stop-color="#999999"/>
    </linearGradient>
    <radialGradient cx="0" cy="0" gradientTransform="matrix(0.0159, 0.0, 0.0, 0.0158, -21.05, -158.15)" gradientUnits="userSpaceOnUse" id="gradient3" r="819.2" spreadMethod="pad">
      <stop offset="0.0" stop-color="#fcb3ad"/>
      <stop offset="1.0" stop-color="#fc6e62"/>
    </radialGradient>
  </defs>
</svg>
