<?xml version="1.0" encoding="UTF-8" standalone="no"?>
<svg xmlns:xlink="http://www.w3.org/1999/xlink" height="531.5px" width="460.6px" xmlns="http://www.w3.org/2000/svg">
  <g transform="matrix(1.0, 0.0, 0.0, 1.0, 193.65, 334.05)">
    <use height="40.75" transform="matrix(1.5874, 0.0, 0.0, 1.5874, -66.7381, -222.8881)" width="83.65" xlink:href="#shape0"/>
  </g>
  <defs>
    <g id="shape0" transform="matrix(1.0, 0.0, 0.0, 1.0, 0.15, 0.15)">
      <path d="M75.25 38.3 Q75.15 40.25 73.9 40.45 72.6 40.6 70.5 37.5 68.4 34.35 64.25 32.45 60.05 30.55 60.6 29.45 61.15 28.35 62.6 28.4 69.05 25.95 72.5 20.45 76.95 12.65 75.2 2.5 74.7 0.35 76.15 1.85 84.0 10.7 83.3 22.5 83.0 30.0 75.25 38.3" fill="url(#gradient0)" fill-rule="evenodd" stroke="none"/>
      <path d="M75.25 38.3 Q83.0 30.0 83.3 22.5 84.0 10.7 76.15 1.85 74.7 0.35 75.2 2.5 76.95 12.65 72.5 20.45 69.05 25.95 62.6 28.4 61.15 28.35 60.6 29.45 60.05 30.55 64.25 32.45 68.4 34.35 70.5 37.5 72.6 40.6 73.9 40.45 75.15 40.25 75.25 38.3 Z" fill="none" stroke="#000000" stroke-linecap="round" stroke-linejoin="round" stroke-opacity="0.4" stroke-width="0.30000000000000004"/>
      <path d="M80.75 12.05 L80.95 12.5 80.6 12.95 81.4 13.95 81.55 14.8 81.25 15.5 Q80.9 16.25 80.9 16.5 L81.3 17.2 Q81.65 17.8 81.65 18.35 L81.5 19.3 Q81.35 19.75 81.35 20.4 L81.1 22.4 79.75 26.4 80.0 27.25 79.55 27.95 79.35 28.05 Q79.35 28.35 79.7 28.9 79.7 29.55 78.8 29.75 L78.8 30.55 77.75 31.25 77.8 31.75 Q77.8 32.45 76.85 33.4 L75.65 34.25 75.85 35.05 Q75.85 35.85 74.8 35.8 L74.85 36.0 Q74.85 36.6 73.9 37.35 73.15 37.35 72.35 36.05 71.65 34.95 71.65 34.65 71.65 34.05 72.25 33.85 72.55 33.7 72.9 33.65 L73.8 33.45 74.05 32.9 Q74.3 32.55 75.35 32.65 L76.25 31.55 76.05 30.9 Q76.05 30.4 76.55 30.1 76.8 29.95 77.3 29.7 77.15 28.85 77.95 28.6 77.8 28.4 77.8 28.0 77.8 27.55 78.3 27.15 L78.75 26.65 Q78.75 26.35 79.4 25.35 L79.7 24.1 80.1 21.6 Q80.1 20.55 80.35 19.5 L80.6 18.3 80.25 17.6 79.9 16.85 Q79.9 16.2 80.5 15.45 L81.1 14.45 80.65 13.6 80.15 12.95 80.4 12.75 Q80.6 12.6 80.6 12.05 L80.75 12.05" fill="#ffcc00" fill-opacity="0.3019608" fill-rule="evenodd" stroke="none"/>
      <path d="M65.7 33.25 Q38.8 23.8 15.8 32.85 L15.8 29.15 Q37.75 18.75 63.3 29.25 66.1 31.45 65.7 33.25" fill="#000000" fill-rule="evenodd" stroke="none"/>
      <path d="M65.7 33.25 Q38.8 23.8 15.8 32.85 L15.8 29.15 Q37.75 18.75 63.3 29.25 66.1 31.45 65.7 33.25 Z" fill="none" stroke="#000000" stroke-linecap="round" stroke-linejoin="round" stroke-opacity="0.4" stroke-width="0.30000000000000004"/>
      <path d="M20.35 27.15 Q21.8 27.1 22.3 28.15 22.75 29.3 21.4 30.1 15.85 33.65 10.55 38.45 9.7 39.4 8.4 39.2 7.1 39.0 7.1 37.05 -0.15 28.75 0.0 21.25 0.05 9.45 8.4 0.6 9.95 -0.9 9.3 1.25 6.95 11.4 10.95 19.2 14.05 24.7 20.35 27.15" fill="url(#gradient1)" fill-rule="evenodd" stroke="none"/>
      <path d="M20.35 27.15 Q21.8 27.1 22.3 28.15 22.75 29.3 21.4 30.1 15.85 33.65 10.55 38.45 9.7 39.4 8.4 39.2 7.1 39.0 7.1 37.05 -0.15 28.75 0.0 21.25 0.05 9.45 8.4 0.6 9.95 -0.9 9.3 1.25 6.95 11.4 10.95 19.2 14.05 24.7 20.35 27.15 Z" fill="none" stroke="#000000" stroke-linecap="round" stroke-linejoin="round" stroke-opacity="0.4" stroke-width="0.30000000000000004"/>
      <path d="M5.1 10.15 L4.75 9.9 4.75 9.75 Q4.75 9.35 5.1 9.35 5.4 9.3 5.4 9.75 5.4 10.15 5.1 10.15 M5.1 8.85 L5.6 7.55 5.85 7.65 5.45 8.7 Q5.2 8.7 5.1 8.85 M4.6 10.45 L4.65 10.7 4.8 11.0 4.75 11.2 5.1 12.3 4.75 13.65 4.45 15.05 4.65 15.15 5.0 15.7 5.1 16.3 4.95 16.7 4.8 17.1 5.05 17.6 5.25 18.3 4.95 19.6 5.3 20.1 5.35 20.55 5.8 21.05 5.9 21.5 5.75 22.05 5.35 22.8 5.25 23.35 4.6 23.8 Q3.65 23.8 3.65 22.9 3.65 22.4 3.95 22.05 3.1 21.8 3.1 21.15 L3.3 20.85 3.45 20.45 3.4 19.7 3.6 18.85 3.8 18.3 3.6 17.95 3.4 17.5 3.5 17.25 3.75 16.75 3.9 16.1 3.75 15.65 3.55 15.25 Q3.55 14.1 3.9 13.3 L4.3 11.35 4.6 10.45 M11.5 30.75 Q11.5 31.2 10.4 31.95 L10.3 32.0 Q10.65 32.05 10.8 32.25 L11.0 32.5 11.65 32.05 Q11.8 31.9 12.15 31.9 12.6 31.9 12.6 32.2 L12.0 33.25 11.2 34.05 9.9 35.45 9.25 35.75 Q8.7 35.75 8.6 35.25 L8.55 34.75 8.6 34.3 Q8.65 34.1 9.05 33.8 L9.05 33.75 Q8.15 33.7 7.95 33.2 L7.9 32.55 Q7.9 31.65 7.45 31.2 L6.6 30.65 6.4 29.95 6.2 29.3 Q6.2 28.9 6.35 28.7 L6.35 28.65 5.8 28.8 Q5.3 28.8 5.1 28.45 L5.05 28.1 5.65 27.35 Q5.1 26.65 5.1 26.0 5.1 25.5 5.4 25.1 4.6 25.05 4.6 24.4 4.6 23.8 5.3 23.7 5.9 23.65 5.95 24.45 6.35 24.2 6.65 24.45 L6.9 25.15 6.5 26.05 Q6.5 26.3 6.85 26.4 L7.4 26.8 7.7 27.55 7.9 28.4 7.85 29.15 8.25 29.65 Q8.7 29.9 8.95 30.45 L9.75 30.15 10.65 29.95 Q11.55 29.95 11.5 30.75" fill="#ffcc00" fill-opacity="0.3019608" fill-rule="evenodd" stroke="none"/>
    </g>
    <linearGradient gradientTransform="matrix(-0.014, 0.0, 0.0, 0.024, 71.9, 20.85)" gradientUnits="userSpaceOnUse" id="gradient0" spreadMethod="pad" x1="-819.2" x2="819.2">
      <stop offset="0.0" stop-color="#cc0000"/>
      <stop offset="1.0" stop-color="#6d0000"/>
    </linearGradient>
    <linearGradient gradientTransform="matrix(0.014, 0.0, -0.0014, 0.024, 11.5, 19.6)" gradientUnits="userSpaceOnUse" id="gradient1" spreadMethod="pad" x1="-819.2" x2="819.2">
      <stop offset="0.0" stop-color="#cc0000"/>
      <stop offset="1.0" stop-color="#6d0000"/>
    </linearGradient>
  </defs>
</svg>
