<?xml version="1.0" encoding="UTF-8" standalone="no"?>
<svg xmlns:xlink="http://www.w3.org/1999/xlink" height="531.5px" width="460.6px" xmlns="http://www.w3.org/2000/svg">
  <g transform="matrix(1.0, 0.0, 0.0, 1.0, 193.65, 334.05)">
    <use height="52.15" transform="matrix(1.0, 0.0, 0.0, 1.0, -57.4, -194.9)" width="109.05" xlink:href="#shape0"/>
  </g>
  <defs>
    <g id="shape0" transform="matrix(1.0, 0.0, 0.0, 1.0, 57.4, 194.9)">
      <path d="M43.3 -171.6 L43.7 -170.9 44.0 -169.9 Q44.0 -169.0 43.6 -168.1 L43.3 -167.8 43.3 -167.7 41.9 -166.8 41.25 -166.8 40.4 -166.8 40.3 -166.8 Q39.7 -166.8 39.3 -167.2 L39.15 -167.3 39.05 -167.35 38.6 -167.8 38.2 -168.3 Q37.9 -168.8 37.9 -169.4 L37.9 -169.9 36.7 -172.0 39.3 -172.1 Q39.5 -172.5 40.7 -172.6 L41.7 -172.6 Q42.35 -172.5 42.9 -172.0 L43.2 -171.9 43.3 -171.65 43.3 -171.6 M25.9 -178.0 Q26.7 -178.9 27.9 -179.0 L28.9 -178.9 Q29.6 -178.9 30.0 -178.35 L30.1 -178.35 30.9 -177.4 31.2 -176.4 31.2 -176.3 33.0 -173.75 30.2 -173.95 Q29.5 -173.2 28.5 -173.1 L27.4 -173.2 Q26.9 -173.3 26.3 -173.7 L26.25 -173.7 25.4 -174.85 Q25.2 -175.2 25.15 -175.7 25.15 -177.05 25.9 -178.0 M35.85 -181.25 L35.9 -181.25 36.8 -181.45 37.45 -181.45 37.8 -181.45 39.05 -180.8 39.3 -180.6 39.7 -180.15 39.8 -179.8 40.15 -178.9 Q40.25 -177.6 39.3 -176.7 38.5 -175.7 37.3 -175.5 L37.0 -175.5 35.2 -174.5 34.3 -177.5 34.1 -178.15 Q34.0 -179.5 34.85 -180.35 L34.9 -180.45 35.85 -181.25 M28.6 -168.3 Q29.45 -169.3 30.6 -169.4 L31.3 -169.4 33.9 -170.8 33.8 -167.35 33.8 -166.8 Q33.9 -165.5 33.1 -164.5 L32.1 -163.7 31.2 -163.4 31.1 -163.4 30.2 -163.5 30.0 -163.5 29.2 -164.0 28.9 -164.1 Q28.4 -164.6 28.25 -165.15 L27.8 -166.1 27.8 -166.35 Q27.9 -167.45 28.6 -168.3 M-16.3 -176.15 Q-15.5 -175.2 -15.5 -173.95 -15.5 -172.65 -16.3 -171.75 L-17.05 -171.2 Q-17.7 -170.9 -18.5 -170.9 L-25.4 -170.9 -25.45 -163.8 Q-25.45 -163.0 -25.75 -162.4 -26.0 -161.9 -26.4 -161.6 -27.2 -160.7 -28.5 -160.7 -29.75 -160.7 -30.7 -161.6 L-31.15 -162.4 Q-31.6 -163.0 -31.6 -163.8 L-31.5 -170.8 -38.75 -170.9 -40.1 -171.1 -40.85 -171.6 Q-41.75 -172.5 -41.75 -173.75 -41.75 -175.05 -40.85 -175.95 L-40.1 -176.6 -38.75 -176.9 -31.8 -176.95 -31.7 -184.1 -31.4 -185.4 Q-31.05 -185.65 -30.85 -186.2 -29.85 -186.95 -28.6 -186.95 -27.4 -186.95 -26.5 -186.2 L-25.9 -185.4 Q-25.45 -184.65 -25.45 -184.1 L-25.55 -177.05 -18.5 -176.95 -17.05 -176.7 -16.3 -176.15" fill="#d8ff00" fill-rule="evenodd" stroke="none"/>
      <path d="M50.1 -156.8 L49.3 -157.4 48.7 -157.8 Q48.7 -157.4 48.3 -157.1 47.9 -156.8 47.4 -156.8 L46.4 -157.0 Q46.0 -157.4 46.0 -157.9 45.9 -158.5 46.3 -158.75 46.65 -159.2 47.3 -159.2 L46.0 -160.1 Q49.1 -164.8 49.2 -171.1 49.5 -175.6 45.0 -184.75 52.4 -175.3 50.1 -156.8 M18.65 -172.85 Q18.0 -175.05 16.35 -175.85 16.2 -174.2 14.8 -174.5 12.15 -175.6 10.95 -177.7 16.8 -185.2 23.4 -185.95 19.0 -180.8 18.65 -173.2 L18.65 -172.85 M41.8 -153.1 Q42.5 -153.1 43.1 -152.6 43.6 -152.1 43.6 -151.5 43.7 -150.8 43.3 -150.3 42.8 -149.9 42.0 -149.9 41.4 -149.8 40.8 -150.3 40.4 -150.7 40.3 -151.5 40.3 -152.0 40.6 -152.5 41.25 -153.0 41.8 -153.1 M46.2 -155.9 L46.65 -155.4 47.6 -155.7 Q48.7 -155.7 49.4 -155.0 50.2 -154.4 50.2 -153.45 50.3 -152.4 49.6 -151.8 49.0 -151.0 47.9 -151.0 47.0 -151.0 46.2 -151.7 45.3 -152.35 45.2 -153.3 L45.3 -153.9 Q44.8 -153.9 44.55 -154.2 44.1 -154.55 44.0 -154.9 44.0 -155.55 44.4 -155.9 44.7 -156.3 45.3 -156.3 45.8 -156.3 46.2 -155.9 M7.75 -174.5 Q8.3 -174.5 8.85 -174.1 9.4 -173.6 9.4 -173.1 L9.4 -173.0 9.7 -172.65 10.6 -172.1 10.95 -171.1 10.95 -170.5 10.7 -169.8 11.2 -169.4 11.3 -169.1 11.3 -168.45 10.95 -167.9 10.05 -167.8 9.5 -168.1 9.3 -168.2 9.0 -168.9 Q8.7 -168.7 8.2 -168.9 L7.6 -169.1 6.9 -169.8 6.5 -170.65 6.65 -171.4 6.9 -172.2 6.5 -173.0 Q6.5 -173.6 6.85 -174.1 7.2 -174.5 7.75 -174.5 M0.7 -175.7 Q1.35 -176.3 2.2 -176.3 3.0 -176.3 3.6 -175.7 4.2 -175.05 4.2 -174.4 4.2 -173.6 3.9 -173.3 L4.9 -172.5 Q6.1 -171.5 6.1 -169.9 6.2 -168.3 5.0 -167.2 3.8 -166.0 2.1 -166.0 0.4 -165.9 -0.75 -167.0 -1.95 -168.2 -1.95 -169.7 -2.1 -171.3 -0.95 -172.3 -0.3 -173.0 0.4 -173.3 0.15 -173.6 0.15 -174.3 0.15 -174.95 0.7 -175.7 M15.2 -173.85 Q16.35 -173.85 17.2 -173.3 17.9 -172.5 17.9 -171.5 18.0 -170.5 17.55 -169.8 16.7 -169.0 15.6 -169.0 14.5 -169.0 13.8 -169.7 12.9 -170.4 12.9 -171.4 12.8 -172.3 13.5 -173.1 14.25 -173.85 15.2 -173.85 M14.1 -165.5 L14.35 -166.25 14.9 -166.5 15.6 -166.25 15.9 -165.5 Q16.0 -165.25 15.7 -165.1 15.45 -164.8 15.0 -164.8 L14.4 -165.0 14.1 -165.5 M-18.05 -188.6 L-3.6 -179.6 Q-3.9 -177.4 -6.6 -175.85 -8.25 -175.7 -8.8 -177.5 -10.8 -176.6 -10.9 -173.75 L-11.0 -174.4 Q-12.3 -183.0 -18.05 -188.6 M-41.4 -158.1 L-42.4 -157.75 -43.75 -159.85 Q-44.7 -161.3 -45.8 -161.3 -46.9 -161.3 -46.8 -159.2 -46.7 -157.2 -47.6 -156.8 L-49.9 -155.2 -55.5 -155.0 Q-51.65 -173.5 -43.05 -186.3 -47.05 -175.7 -46.35 -170.55 -45.5 -163.3 -41.4 -158.1 M-7.15 -175.2 Q-5.9 -175.3 -5.05 -174.5 -4.15 -173.7 -4.15 -172.5 -4.15 -171.4 -5.0 -170.65 -5.8 -169.8 -7.1 -169.7 -8.25 -169.7 -9.3 -170.55 -10.2 -171.3 -10.2 -172.4 -10.2 -173.6 -9.3 -174.4 -8.35 -175.2 -7.15 -175.2 M-6.0 -167.6 Q-5.15 -167.7 -4.7 -167.3 -4.05 -166.7 -4.05 -165.9 -3.95 -165.15 -4.6 -164.7 -5.15 -164.1 -5.9 -164.1 -6.7 -164.1 -7.25 -164.7 -7.9 -165.15 -7.9 -165.8 -7.9 -166.6 -7.35 -167.2 -6.8 -167.6 -6.0 -167.6 M-53.2 -150.7 L-51.35 -150.4 -50.9 -151.25 Q-50.2 -152.0 -49.25 -152.0 -48.35 -152.0 -47.7 -151.4 -47.0 -150.8 -47.0 -149.9 -46.9 -149.15 -47.6 -148.4 -48.15 -147.95 -49.0 -147.95 L-48.9 -146.85 Q-48.8 -145.2 -50.0 -144.0 -51.2 -142.75 -52.85 -142.75 -54.75 -142.75 -56.2 -143.9 -57.4 -145.1 -57.4 -146.7 -57.4 -148.3 -56.3 -149.4 -54.95 -150.6 -53.2 -150.7 M-44.4 -154.8 Q-44.8 -154.4 -45.5 -154.4 -46.05 -154.4 -46.6 -154.7 -47.05 -155.2 -47.05 -155.8 L-46.6 -156.9 Q-46.15 -157.3 -45.6 -157.3 -44.85 -157.3 -44.4 -156.9 -43.85 -156.4 -43.85 -155.9 -43.85 -155.3 -44.4 -154.8 M-42.6 -152.1 Q-41.65 -152.1 -41.1 -151.6 -40.5 -151.1 -40.5 -150.4 -40.5 -149.6 -40.95 -149.15 -41.65 -148.4 -42.5 -148.4 -43.2 -148.4 -43.75 -149.05 -44.4 -149.5 -44.4 -150.3 -44.4 -151.0 -43.85 -151.6 L-42.6 -152.1" fill="#449900" fill-rule="evenodd" stroke="none"/>
      <path d="M43.3 -171.6 L43.8 -170.9 44.1 -170.0 Q44.1 -169.0 43.6 -168.1 44.1 -169.0 44.1 -170.0 L43.8 -170.9 43.3 -171.6 43.3 -171.65 43.2 -171.9 42.9 -172.0 Q42.35 -172.5 41.7 -172.6 L40.7 -172.6 Q39.5 -172.5 39.3 -172.1 L36.7 -172.0 37.9 -169.9 37.9 -169.4 Q37.9 -168.8 38.2 -168.3 L38.6 -167.8 39.05 -167.35 39.15 -167.3 39.3 -167.2 Q39.7 -166.8 40.3 -166.8 L41.25 -166.8 40.3 -166.8 40.4 -166.8 41.25 -166.8 41.9 -166.8 43.3 -167.7 43.3 -167.8 43.6 -168.1 Q44.0 -169.0 44.0 -169.9 L43.7 -170.9 43.3 -171.6 M43.3 -167.7 L43.6 -168.1 43.3 -167.7 M46.0 -160.1 L44.55 -158.1 Q39.9 -152.9 33.65 -153.3 27.25 -153.9 22.7 -159.6 19.0 -164.5 18.65 -170.55 L18.65 -172.65 18.65 -172.85 18.65 -173.2 Q19.0 -180.8 23.4 -185.95 L23.6 -186.2 Q28.25 -191.25 34.5 -190.95 40.7 -190.5 45.0 -184.75 49.5 -175.6 49.2 -171.1 49.1 -164.8 46.0 -160.1 M25.9 -178.0 Q25.15 -177.05 25.15 -175.7 25.2 -175.2 25.4 -174.85 L26.25 -173.7 26.3 -173.7 Q26.9 -173.3 27.4 -173.2 L28.5 -173.1 Q29.5 -173.2 30.2 -173.95 L33.0 -173.75 31.2 -176.3 31.2 -176.4 30.9 -177.4 30.1 -178.35 30.0 -178.35 Q29.6 -178.9 28.9 -178.9 L27.9 -179.0 Q26.7 -178.9 25.9 -178.0 M35.85 -181.25 L36.8 -181.55 37.45 -181.45 36.8 -181.55 35.85 -181.25 34.9 -180.45 34.85 -180.35 Q34.0 -179.5 34.1 -178.15 L34.3 -177.5 35.2 -174.5 37.0 -175.5 37.3 -175.5 Q38.5 -175.7 39.3 -176.7 40.0 -177.15 40.15 -177.8 L40.25 -178.8 Q40.15 -179.6 39.7 -180.15 40.15 -179.6 40.25 -178.8 L40.15 -177.8 Q40.0 -177.15 39.3 -176.7 40.25 -177.6 40.15 -178.9 L39.8 -179.8 39.7 -180.15 39.3 -180.6 39.05 -180.8 37.8 -181.45 37.45 -181.45 36.8 -181.45 35.9 -181.25 35.85 -181.25 M39.3 -180.6 L39.05 -180.9 Q38.4 -181.35 37.8 -181.45 38.4 -181.35 39.05 -180.9 L39.3 -180.6 M27.8 -166.35 L27.8 -166.1 28.25 -165.15 Q28.4 -164.6 28.9 -164.1 L29.2 -164.0 30.0 -163.5 30.2 -163.5 31.1 -163.4 31.2 -163.4 32.1 -163.7 33.1 -164.5 Q33.9 -165.5 33.8 -166.8 L33.8 -167.35 33.9 -170.8 31.3 -169.4 30.6 -169.4 Q29.45 -169.3 28.6 -168.3 28.0 -167.8 27.9 -167.1 L27.8 -166.35 27.9 -167.1 Q28.0 -167.8 28.6 -168.3 27.9 -167.45 27.8 -166.35" fill="url(#gradient0)" fill-rule="evenodd" stroke="none"/>
      <path d="M-43.05 -186.3 Q-39.25 -192.2 -33.05 -193.5 L-31.5 -193.8 -26.45 -193.5 Q-22.15 -192.5 -18.4 -188.85 L-18.05 -188.6 Q-12.3 -183.0 -11.0 -174.4 L-10.9 -173.75 Q-10.65 -172.6 -10.65 -171.3 -10.45 -164.5 -14.1 -158.7 -18.8 -152.0 -26.1 -151.0 -33.35 -150.25 -39.3 -155.9 L-41.4 -158.1 Q-45.5 -163.3 -46.35 -170.55 -47.05 -175.7 -43.05 -186.3 M-16.3 -176.15 L-17.05 -176.7 -18.5 -176.95 -25.55 -177.05 -25.45 -184.1 Q-25.45 -184.65 -25.9 -185.4 L-26.5 -186.2 Q-27.4 -186.95 -28.6 -186.95 -29.85 -186.95 -30.85 -186.2 -31.05 -185.65 -31.4 -185.4 L-31.7 -184.1 -31.8 -176.95 -38.75 -176.9 -40.1 -176.6 -40.85 -175.95 Q-41.75 -175.05 -41.75 -173.75 -41.75 -172.5 -40.85 -171.6 L-40.1 -171.1 -38.75 -170.9 -31.5 -170.8 -31.6 -163.8 Q-31.6 -163.0 -31.15 -162.4 L-30.7 -161.6 Q-29.75 -160.7 -28.5 -160.7 -27.2 -160.7 -26.4 -161.6 -26.0 -161.9 -25.75 -162.4 -25.45 -163.0 -25.45 -163.8 L-25.4 -170.9 -18.5 -170.9 Q-17.7 -170.9 -17.05 -171.2 L-16.3 -171.75 Q-15.5 -172.65 -15.5 -173.95 -15.5 -175.2 -16.3 -176.15" fill="url(#gradient1)" fill-rule="evenodd" stroke="none"/>
      <path d="M43.6 -168.1 Q44.1 -169.0 44.1 -170.0 L43.8 -170.9 43.3 -171.6 43.7 -170.9 44.0 -169.9 Q44.0 -169.0 43.6 -168.1 L43.3 -167.7 41.9 -166.8 41.25 -166.8 40.3 -166.8 Q39.7 -166.8 39.3 -167.2 L39.15 -167.3 39.05 -167.35 38.6 -167.8 38.2 -168.3 Q37.9 -168.8 37.9 -169.4 L37.9 -169.9 36.7 -172.0 39.3 -172.1 Q39.5 -172.5 40.7 -172.6 L41.7 -172.6 Q42.35 -172.5 42.9 -172.0 L43.2 -171.9 43.3 -171.65 43.3 -171.6 M43.3 -167.7 L43.3 -167.8 43.6 -168.1 M25.9 -178.0 Q26.7 -178.9 27.9 -179.0 L28.9 -178.9 Q29.6 -178.9 30.0 -178.35 L30.1 -178.35 30.9 -177.4 31.2 -176.4 31.2 -176.3 33.0 -173.75 30.2 -173.95 Q29.5 -173.2 28.5 -173.1 L27.4 -173.2 Q26.9 -173.3 26.3 -173.7 L26.25 -173.7 25.4 -174.85 Q25.2 -175.2 25.15 -175.7 25.15 -177.05 25.9 -178.0 M37.45 -181.45 L36.8 -181.55 35.85 -181.25 35.9 -181.25 36.8 -181.45 37.45 -181.45 37.8 -181.45 Q38.4 -181.35 39.05 -180.9 L39.3 -180.6 39.7 -180.15 Q40.15 -179.6 40.25 -178.8 L40.15 -177.8 Q40.0 -177.15 39.3 -176.7 38.5 -175.7 37.3 -175.5 L37.0 -175.5 35.2 -174.5 34.3 -177.5 34.1 -178.15 Q34.0 -179.5 34.85 -180.35 L34.9 -180.45 35.85 -181.25 M39.3 -180.6 L39.05 -180.8 37.8 -181.45 M39.3 -176.7 Q40.25 -177.6 40.15 -178.9 L39.8 -179.8 39.7 -180.15 M28.6 -168.3 Q29.45 -169.3 30.6 -169.4 L31.3 -169.4 33.9 -170.8 33.8 -167.35 33.8 -166.8 Q33.9 -165.5 33.1 -164.5 L32.1 -163.7 31.2 -163.4 31.1 -163.4 30.2 -163.5 30.0 -163.5 29.2 -164.0 28.9 -164.1 Q28.4 -164.6 28.25 -165.15 L27.8 -166.1 27.8 -166.35 27.9 -167.1 Q28.0 -167.8 28.6 -168.3 27.9 -167.45 27.8 -166.35 M40.3 -166.8 L40.4 -166.8 41.25 -166.8 M-16.3 -176.15 Q-15.5 -175.2 -15.5 -173.95 -15.5 -172.65 -16.3 -171.75 L-17.05 -171.2 Q-17.7 -170.9 -18.5 -170.9 L-25.4 -170.9 -25.45 -163.8 Q-25.45 -163.0 -25.75 -162.4 -26.0 -161.9 -26.4 -161.6 -27.2 -160.7 -28.5 -160.7 -29.75 -160.7 -30.7 -161.6 L-31.15 -162.4 Q-31.6 -163.0 -31.6 -163.8 L-31.5 -170.8 -38.75 -170.9 -40.1 -171.1 -40.85 -171.6 Q-41.75 -172.5 -41.75 -173.75 -41.75 -175.05 -40.85 -175.95 L-40.1 -176.6 -38.75 -176.9 -31.8 -176.95 -31.7 -184.1 -31.4 -185.4 Q-31.05 -185.65 -30.85 -186.2 -29.85 -186.95 -28.6 -186.95 -27.4 -186.95 -26.5 -186.2 L-25.9 -185.4 Q-25.45 -184.65 -25.45 -184.1 L-25.55 -177.05 -18.5 -176.95 -17.05 -176.7 -16.3 -176.15" fill="none" stroke="#99ff00" stroke-linecap="round" stroke-linejoin="round" stroke-opacity="0.9882353" stroke-width="0.75"/>
      <path d="M46.0 -160.1 L44.55 -158.1 Q39.9 -152.9 33.65 -153.3 27.25 -153.9 22.7 -159.6 19.0 -164.5 18.65 -170.55 L18.65 -172.65 18.65 -172.85 18.65 -173.2 Q19.0 -180.8 23.4 -185.95 M46.0 -160.1 Q49.1 -164.8 49.2 -171.1 49.5 -175.6 45.0 -184.75 M-10.9 -173.75 Q-10.65 -172.6 -10.65 -171.3 -10.45 -164.5 -14.1 -158.7 -18.8 -152.0 -26.1 -151.0 -33.35 -150.25 -39.3 -155.9 L-41.4 -158.1 Q-45.5 -163.3 -46.35 -170.55 -47.05 -175.7 -43.05 -186.3 M-18.05 -188.6 Q-12.3 -183.0 -11.0 -174.4 L-10.9 -173.75" fill="none" stroke="#000000" stroke-linecap="round" stroke-linejoin="round" stroke-opacity="0.4" stroke-width="1.0"/>
      <path d="M10.95 -177.7 Q16.8 -185.2 23.4 -185.95 L23.6 -186.2 Q28.25 -191.25 34.5 -190.95 40.7 -190.5 45.0 -184.75 52.4 -175.3 50.1 -156.8 M-43.05 -186.3 Q-39.25 -192.2 -33.05 -193.5 L-31.5 -193.8 -26.45 -193.5 Q-22.15 -192.5 -18.4 -188.85 L-18.05 -188.6 -3.6 -179.6 M-55.5 -155.0 Q-51.65 -173.5 -43.05 -186.3" fill="none" stroke="#000000" stroke-linecap="round" stroke-linejoin="round" stroke-opacity="0.6" stroke-width="2.0"/>
    </g>
    <radialGradient cx="0" cy="0" gradientTransform="matrix(0.0191, 0.0, 0.0, 0.0232, 34.1, -173.4)" gradientUnits="userSpaceOnUse" id="gradient0" r="819.2" spreadMethod="pad">
      <stop offset="0.8313725490196079" stop-color="#ff5000"/>
      <stop offset="1.0" stop-color="#a62701"/>
    </radialGradient>
    <radialGradient cx="0" cy="0" gradientTransform="matrix(0.0228, 0.0, 0.0, 0.0253, -27.85, -173.75)" gradientUnits="userSpaceOnUse" id="gradient1" r="819.2" spreadMethod="pad">
      <stop offset="0.8313725490196079" stop-color="#ff5000"/>
      <stop offset="1.0" stop-color="#a62701"/>
    </radialGradient>
  </defs>
</svg>
