<?xml version="1.0" encoding="UTF-8" standalone="no"?>
<svg xmlns:xlink="http://www.w3.org/1999/xlink" height="531.5px" width="460.6px" xmlns="http://www.w3.org/2000/svg">
  <g transform="matrix(1.0, 0.0, 0.0, 1.0, 193.65, 334.05)">
    <use height="108.85" transform="matrix(1.0, 0.0, 0.0, 1.0, -80.85, -248.3)" width="151.6" xlink:href="#shape0"/>
  </g>
  <defs>
    <g id="shape0" transform="matrix(1.0, 0.0, 0.0, 1.0, 80.85, 248.3)">
      <path d="M-53.9 -224.95 Q-54.15 -225.55 -54.95 -226.3 -55.95 -227.4 -58.0 -228.7 -61.7 -231.15 -63.1 -231.15 -65.15 -231.15 -70.4 -215.85 -75.65 -200.55 -73.65 -188.5 -71.65 -176.45 -66.3 -161.5 L-63.35 -162.1 Q-62.95 -162.1 -60.05 -164.25 L-55.75 -167.75 -54.1 -169.05 Q-49.3 -172.7 -45.55 -175.8 -33.45 -186.4 -33.35 -191.8 L-33.5 -192.95 Q-33.95 -197.05 -35.45 -201.05 -36.6 -204.25 -38.45 -207.4 -43.55 -216.35 -53.9 -224.95 M-40.65 -219.7 Q-22.65 -203.9 -21.4 -193.6 -12.7 -186.15 -14.95 -179.65 -46.75 -178.55 -62.05 -139.95 -99.9 -198.05 -59.55 -247.8 -54.85 -231.5 -40.65 -219.7" fill="#333333" fill-rule="evenodd" stroke="none"/>
      <path d="M15.4 -193.6 Q15.9 -203.9 31.7 -219.7 34.7 -222.55 37.2 -225.55 45.15 -235.35 47.65 -247.8 88.55 -198.05 55.35 -140.2 52.45 -174.15 17.9 -178.9 L10.35 -179.65 Q7.7 -186.15 15.4 -193.6 27.75 -199.8 40.05 -193.2 27.75 -199.8 15.4 -193.6" fill="url(#gradient0)" fill-rule="evenodd" stroke="none"/>
      <path d="M-60.05 -164.25 Q-62.95 -162.1 -63.35 -162.1 L-66.3 -161.5 Q-71.65 -176.45 -73.65 -188.5 -75.65 -200.55 -70.4 -215.85 -65.15 -231.15 -63.1 -231.15 -61.7 -231.15 -58.0 -228.7 -55.95 -227.4 -54.95 -226.3 -54.15 -225.55 -53.9 -224.95 -43.55 -216.35 -38.45 -207.4 -36.6 -204.25 -35.45 -201.05 -43.4 -206.9 -52.6 -207.3 L-43.2 -196.55 -54.9 -193.25 -61.1 -191.5 -45.5 -186.5 -56.7 -174.2 -45.55 -175.8 Q-49.3 -172.7 -54.1 -169.05 L-55.75 -167.75 -60.05 -164.25" fill="url(#gradient1)" fill-rule="evenodd" stroke="none"/>
      <path d="M-54.9 -193.25 L-43.2 -196.55 -52.6 -207.3 Q-43.4 -206.9 -35.45 -201.05 -33.95 -197.05 -33.5 -192.95 L-33.35 -191.8 -38.45 -192.95 -48.75 -193.55 -54.9 -193.25" fill="#66401b" fill-rule="evenodd" stroke="none"/>
      <path d="M-45.55 -175.8 L-56.7 -174.2 -45.5 -186.5 -61.1 -191.5 -54.9 -193.25 -48.75 -193.55 -38.45 -192.95 -33.35 -191.8 Q-33.45 -186.4 -45.55 -175.8" fill="#47290f" fill-rule="evenodd" stroke="none"/>
      <path d="M15.4 -193.6 Q7.7 -186.15 10.35 -179.65 L17.9 -178.9 Q52.45 -174.15 55.35 -140.2 88.55 -198.05 47.65 -247.8 45.15 -235.35 37.2 -225.55 34.7 -222.55 31.7 -219.7 15.9 -203.9 15.4 -193.6 27.75 -199.8 40.05 -193.2 M-60.05 -164.25 L-55.75 -167.75 -54.1 -169.05 Q-49.3 -172.7 -45.55 -175.8 L-56.7 -174.2 -45.5 -186.5 -61.1 -191.5 -54.9 -193.25 -43.2 -196.55 -52.6 -207.3 Q-43.4 -206.9 -35.45 -201.05 -36.6 -204.25 -38.45 -207.4 -43.55 -216.35 -53.9 -224.95 M-40.65 -219.7 Q-22.65 -203.9 -21.4 -193.6 -12.7 -186.15 -14.95 -179.65 -46.75 -178.55 -62.05 -139.95 -99.9 -198.05 -59.55 -247.8 -54.85 -231.5 -40.65 -219.7 M-33.35 -191.8 L-33.5 -192.95 Q-33.95 -197.05 -35.45 -201.05 M-45.55 -175.8 Q-33.45 -186.4 -33.35 -191.8" fill="none" stroke="#000000" stroke-linecap="round" stroke-linejoin="round" stroke-opacity="0.5019608" stroke-width="1.0"/>
    </g>
    <linearGradient gradientTransform="matrix(-0.0261, 0.0261, -0.0464, -0.0464, 40.05, -193.85)" gradientUnits="userSpaceOnUse" id="gradient0" spreadMethod="pad" x1="-819.2" x2="819.2">
      <stop offset="0.0" stop-color="#333333"/>
      <stop offset="0.9725490196078431" stop-color="#666666"/>
    </linearGradient>
    <linearGradient gradientTransform="matrix(0.0173, 0.0046, -0.011, 0.0411, -57.35, -197.35)" gradientUnits="userSpaceOnUse" id="gradient1" spreadMethod="pad" x1="-819.2" x2="819.2">
      <stop offset="0.0" stop-color="#333333"/>
      <stop offset="0.9882352941176471" stop-color="#ff9485"/>
    </linearGradient>
  </defs>
</svg>
