<?xml version="1.0" encoding="UTF-8" standalone="no"?>
<svg xmlns:xlink="http://www.w3.org/1999/xlink" height="531.5px" width="460.6px" xmlns="http://www.w3.org/2000/svg">
  <g transform="matrix(1.0, 0.0, 0.0, 1.0, 193.65, 334.05)">
    <use height="35.8" transform="matrix(1.0, 0.0, 0.0, 1.0, -23.0, -61.7)" width="59.0" xlink:href="#shape0"/>
  </g>
  <defs>
    <g id="shape0" transform="matrix(1.0, 0.0, 0.0, 1.0, 23.0, 61.7)">
      <path d="M27.15 -56.1 Q35.5 -51.05 35.5 -43.75 35.5 -36.55 27.15 -31.5 18.6 -26.4 6.5 -26.4 -5.45 -26.4 -14.0 -31.5 -22.5 -36.55 -22.5 -43.75 -22.5 -51.05 -14.0 -56.1 -5.45 -61.2 6.5 -61.2 18.6 -61.2 27.15 -56.1" fill="#ffcc00" fill-rule="evenodd" stroke="none"/>
      <path d="M27.15 -56.1 Q35.5 -51.05 35.5 -43.75 35.5 -36.55 27.15 -31.5 18.6 -26.4 6.5 -26.4 -5.45 -26.4 -14.0 -31.5 -22.5 -36.55 -22.5 -43.75 -22.5 -51.05 -14.0 -56.1 -5.45 -61.2 6.5 -61.2 18.6 -61.2 27.15 -56.1 Z" fill="none" stroke="#000000" stroke-linecap="round" stroke-linejoin="round" stroke-width="1.0"/>
      <path d="M2.35 -54.9 Q3.05 -56.75 2.65 -58.15 L3.55 -56.45 Q4.85 -54.85 6.5 -54.85 8.3 -54.85 9.55 -56.45 10.1 -57.25 10.45 -58.2 10.45 -56.45 10.9 -54.7 11.4 -52.95 13.1 -51.4 14.8 -49.85 16.7 -49.85 18.65 -49.85 19.7 -51.5 21.0 -53.15 20.7 -55.6 L20.8 -55.7 23.55 -54.2 Q30.6 -49.95 30.6 -43.95 30.6 -38.05 23.55 -33.8 21.35 -32.45 18.85 -31.55 19.5 -33.4 19.45 -34.85 19.3 -37.1 17.55 -37.1 16.45 -37.1 15.05 -36.15 14.35 -38.2 12.75 -38.2 10.95 -38.2 9.25 -35.95 7.5 -33.65 6.9 -30.5 L6.6 -29.6 6.45 -29.6 6.25 -30.5 Q5.6 -33.65 3.85 -35.95 2.0 -38.2 0.4 -38.2 -1.25 -38.2 -1.95 -36.15 -3.35 -37.1 -4.4 -37.1 -6.2 -37.1 -6.3 -34.85 -6.4 -33.45 -5.75 -31.6 -8.2 -32.45 -10.4 -33.8 -17.4 -38.05 -17.4 -43.95 -17.4 -49.95 -10.4 -54.2 L-7.6 -55.6 Q-7.8 -53.15 -6.6 -51.45 -5.45 -49.75 -3.55 -49.75 -1.65 -49.75 0.05 -51.45 1.6 -53.05 2.35 -54.9" fill="#000000" fill-rule="evenodd" stroke="none"/>
    </g>
  </defs>
</svg>
