<?xml version="1.0" encoding="UTF-8" standalone="no"?>
<svg xmlns:xlink="http://www.w3.org/1999/xlink" height="531.5px" width="460.6px" xmlns="http://www.w3.org/2000/svg">
  <g transform="matrix(1.0, 0.0, 0.0, 1.0, 193.65, 334.05)">
    <use height="36.35" transform="matrix(1.0, 0.0, 0.0, 1.0, -66.95, -184.3)" width="128.45" xlink:href="#shape0"/>
  </g>
  <defs>
    <g id="shape0" transform="matrix(1.0, 0.0, 0.0, 1.0, 64.25, 18.2)">
      <path d="M57.45 -10.9 Q58.7 -8.75 59.1 -6.2 59.5 -3.5 58.95 -0.65 L58.75 1.35 Q57.55 10.95 51.65 13.35 45.1 15.9 37.0 15.4 L57.45 -10.9 M18.05 0.45 Q17.7 -2.75 17.8 -6.65 18.1 -13.55 21.2 -14.75 33.45 -15.15 45.7 -14.3 L24.35 13.0 23.2 12.65 Q18.95 8.9 18.05 0.45 M-30.3 13.3 Q-34.45 11.55 -36.3 6.45 -37.55 3.0 -37.75 -2.05 -38.35 -11.4 -32.95 -13.55 L-23.2 -14.35 -10.5 -14.85 -30.3 13.3 M3.0 -13.7 Q4.8 -11.75 5.05 -6.65 5.35 3.2 2.5 8.75 1.25 11.1 -0.55 12.65 -10.25 15.55 -18.3 15.45 L3.0 -13.7" fill="#333333" fill-rule="evenodd" stroke="none"/>
      <path d="M37.0 15.4 Q45.1 15.9 51.65 13.35 57.55 10.95 58.75 1.35 62.3 -1.65 62.85 -9.65 L63.65 -5.65 63.85 -0.65 Q63.65 4.65 61.6 8.65 59.75 12.25 56.35 14.75 L52.35 16.2 Q41.25 19.45 24.7 16.2 L20.5 15.25 Q17.35 14.5 16.2 4.55 L18.05 0.45 Q18.95 8.9 23.2 12.65 L24.35 13.0 Q27.7 14.0 30.85 14.6 L37.0 15.4 M19.0 -17.8 Q17.65 -9.65 11.35 -3.15 8.5 -2.55 6.85 3.5 5.65 14.45 2.25 15.25 3.15 12.0 2.5 8.75 3.15 12.0 2.25 15.25 L-2.15 16.2 Q-22.6 20.05 -35.0 14.75 -41.55 10.05 -42.55 1.6 -42.95 -1.45 -42.6 -4.95 L-50.3 -5.05 Q-43.7 -7.95 -42.65 -11.65 L-40.9 -11.9 Q-39.45 -16.05 -34.4 -16.25 L-6.9 -17.55 11.3 -17.85 11.8 -17.85 19.0 -17.8 M-60.1 1.85 Q-59.9 5.65 -61.0 6.05 -63.05 7.5 -63.8 4.95 L-63.9 -2.25 -63.5 -4.7 Q-62.95 -0.1 -60.1 1.85 M-59.6 -8.75 L-57.1 -9.35 -44.65 -11.3 Q-52.65 -6.5 -59.6 -8.75 M-10.5 -14.85 L-23.2 -14.35 -32.95 -13.55 Q-38.35 -11.4 -37.75 -2.05 -37.55 3.0 -36.3 6.45 -34.45 11.55 -30.3 13.3 L-30.1 13.35 Q-24.7 15.35 -18.3 15.45 -10.25 15.55 -0.55 12.65 1.25 11.1 2.5 8.75 5.35 3.2 5.05 -6.65 4.8 -11.75 3.0 -13.7 2.35 -14.45 1.5 -14.75 L-10.5 -14.85 M-41.2 -10.95 L-40.9 -11.9 -41.2 -10.95 M-42.55 1.6 Q-39.45 5.0 -36.3 6.45 -39.45 5.0 -42.55 1.6 M11.4 -15.6 L7.1 -15.25 Q6.85 -8.8 11.35 -8.05 L11.65 -8.0 Q16.05 -8.7 15.8 -15.25 L11.5 -15.6 11.4 -15.6 M-23.2 -14.35 Q-12.5 -15.8 -6.9 -17.55 -12.5 -15.8 -23.2 -14.35 M26.0 16.05 Q27.25 15.1 30.85 14.6 27.25 15.1 26.0 16.05 M52.35 16.2 Q55.85 11.45 61.6 8.65 55.85 11.45 52.35 16.2" fill="#844f1b" fill-rule="evenodd" stroke="none"/>
      <path d="M-60.1 1.85 Q-62.95 -0.1 -63.5 -4.7 -62.6 -7.6 -59.6 -8.75 -52.65 -6.5 -44.65 -11.3 L-44.35 -11.35 -42.65 -11.65 Q-43.7 -7.95 -50.3 -5.05 L-54.9 -5.15 Q-60.6 -4.1 -60.15 0.75 L-60.1 1.85" fill="#9b5d22" fill-rule="evenodd" stroke="none"/>
      <path d="M58.75 1.35 L58.95 -0.65 Q59.5 -3.5 59.1 -6.2 58.7 -8.75 57.45 -10.9 L57.0 -11.65 Q55.95 -12.9 54.4 -13.55 L45.7 -14.3 Q33.45 -15.15 21.2 -14.75 18.1 -13.55 17.8 -6.65 17.7 -2.75 18.05 0.45 L16.2 4.55 16.05 3.5 Q14.4 -2.9 11.65 -3.2 L11.35 -3.15 Q17.65 -9.65 19.0 -17.8 L55.8 -16.25 Q60.65 -16.05 62.05 -11.9 L62.15 -11.65 62.85 -9.65 Q62.3 -1.65 58.75 1.35" fill="#84621b" fill-rule="evenodd" stroke="none"/>
      <path d="M57.45 -10.9 L37.0 15.4 30.85 14.6 Q27.7 14.0 24.35 13.0 L45.7 -14.3 54.4 -13.55 Q55.95 -12.9 57.0 -11.65 L57.45 -10.9 M-30.3 13.3 L-10.5 -14.85 1.5 -14.75 Q2.35 -14.45 3.0 -13.7 L-18.3 15.45 Q-24.7 15.35 -30.1 13.35 L-30.3 13.3" fill="url(#gradient0)" fill-rule="evenodd" stroke="none"/>
      <path d="M58.75 1.35 L58.95 -0.65 Q59.5 -3.5 59.1 -6.2 58.7 -8.75 57.45 -10.9 L57.0 -11.65 Q55.95 -12.9 54.4 -13.55 L45.7 -14.3 Q33.45 -15.15 21.2 -14.75 18.1 -13.55 17.8 -6.65 17.7 -2.75 18.05 0.45 18.95 8.9 23.2 12.65 L24.35 13.0 Q27.7 14.0 30.85 14.6 L37.0 15.4 Q45.1 15.9 51.65 13.35 57.55 10.95 58.75 1.35 M62.85 -9.65 L62.15 -11.65 62.05 -11.9 Q60.65 -16.05 55.8 -16.25 L19.0 -17.8 11.8 -17.85 11.3 -17.85 -6.9 -17.55 -34.4 -16.25 Q-39.45 -16.05 -40.9 -11.9 L-41.2 -10.95 M11.35 -3.15 L11.65 -3.2 Q14.4 -2.9 16.05 3.5 L16.2 4.55 Q17.35 14.5 20.5 15.25 L24.7 16.2 Q41.25 19.45 52.35 16.2 L56.35 14.75 Q59.75 12.25 61.6 8.65 63.65 4.65 63.85 -0.65 L63.65 -5.65 62.85 -9.65 M-63.5 -4.7 L-63.9 -2.25 -63.8 4.95 Q-63.05 7.5 -61.0 6.05 -59.9 5.65 -60.1 1.85 L-60.15 0.75 Q-60.6 -4.1 -54.9 -5.15 L-50.3 -5.05 -42.6 -4.95 Q-42.95 -1.45 -42.55 1.6 -41.55 10.05 -35.0 14.75 -22.6 20.05 -2.15 16.2 L2.25 15.25 Q5.65 14.45 6.85 3.5 8.5 -2.55 11.35 -3.15 M-63.5 -4.7 Q-62.6 -7.6 -59.6 -8.75 L-57.1 -9.35 -44.65 -11.3 M-44.35 -11.35 L-42.65 -11.65 -40.9 -11.9 M-10.5 -14.85 L-23.2 -14.35 -32.95 -13.55 Q-38.35 -11.4 -37.75 -2.05 -37.55 3.0 -36.3 6.45 -34.45 11.55 -30.3 13.3 L-30.1 13.35 Q-24.7 15.35 -18.3 15.45 -10.25 15.55 -0.55 12.65 1.25 11.1 2.5 8.75 5.35 3.2 5.05 -6.65 4.8 -11.75 3.0 -13.7 2.35 -14.45 1.5 -14.75 L-10.5 -14.85 M11.4 -15.6 L7.1 -15.25 Q6.85 -8.8 11.35 -8.05 L11.65 -8.0 Q16.05 -8.7 15.8 -15.25 L11.5 -15.6 11.4 -15.6" fill="none" stroke="#000000" stroke-linecap="round" stroke-linejoin="round" stroke-opacity="0.4" stroke-width="0.7000000000000001"/>
      <path d="M58.75 1.35 Q62.3 -1.65 62.85 -9.65 M19.0 -17.8 Q17.65 -9.65 11.35 -3.15 L11.2 -2.85 M16.2 4.55 L18.05 0.45 M-60.1 1.85 Q-62.95 -0.1 -63.5 -4.7 M-44.65 -11.3 L-44.35 -11.35 M2.5 8.75 Q3.15 12.0 2.25 15.25 M-50.3 -5.05 Q-43.7 -7.95 -42.65 -11.65 M-59.6 -8.75 Q-52.65 -6.5 -44.65 -11.3 M-36.3 6.45 Q-39.45 5.0 -42.55 1.6 M-6.9 -17.55 Q-12.5 -15.8 -23.2 -14.35 M30.85 14.6 Q27.25 15.1 26.0 16.05 M61.6 8.65 Q55.85 11.45 52.35 16.2" fill="none" stroke="#000000" stroke-linecap="round" stroke-linejoin="round" stroke-opacity="0.2" stroke-width="0.30000000000000004"/>
    </g>
    <linearGradient gradientTransform="matrix(0.0, 0.0188, -0.0181, 0.0, 41.45, -2.2)" gradientUnits="userSpaceOnUse" id="gradient0" spreadMethod="pad" x1="-819.2" x2="819.2">
      <stop offset="0.0" stop-color="#adadad"/>
      <stop offset="1.0" stop-color="#333333"/>
    </linearGradient>
  </defs>
</svg>
