<?xml version="1.0" encoding="UTF-8" standalone="no"?>
<svg xmlns:xlink="http://www.w3.org/1999/xlink" height="531.5px" width="460.6px" xmlns="http://www.w3.org/2000/svg">
  <g transform="matrix(1.0, 0.0, 0.0, 1.0, 193.65, 334.05)">
    <use height="84.9" transform="matrix(1.0, 0.0, 0.0, 1.0, -106.85, -199.15)" width="182.1" xlink:href="#shape0"/>
  </g>
  <defs>
    <g id="shape0" transform="matrix(1.0, 0.0, 0.0, 1.0, 106.85, 199.15)">
      <path d="M41.05 -198.25 Q44.65 -199.3 49.1 -199.05 55.65 -198.5 60.4 -193.9 63.65 -189.65 64.3 -186.2 L61.45 -181.45 Q58.9 -184.0 55.15 -183.5 53.75 -189.15 50.8 -192.5 47.05 -197.1 41.05 -198.25 M53.75 -192.6 Q53.35 -192.6 53.35 -192.25 53.25 -191.85 53.85 -191.7 L55.65 -191.2 57.6 -190.55 59.4 -189.4 Q60.05 -188.9 60.4 -189.4 60.8 -189.95 60.05 -190.45 57.6 -192.6 54.65 -192.75 L53.75 -192.6 M60.4 -183.75 L59.4 -184.3 57.85 -184.9 57.35 -184.65 Q56.95 -184.4 57.35 -184.15 L57.75 -183.75 59.4 -183.25 60.95 -183.15 60.4 -183.75" fill="url(#gradient0)" fill-rule="evenodd" stroke="none"/>
      <path d="M60.4 -193.9 Q65.8 -188.9 68.65 -178.65 69.4 -175.3 69.4 -172.1 68.5 -169.15 66.95 -168.0 66.05 -173.5 63.1 -179.0 65.2 -182.1 64.3 -186.2 63.65 -189.65 60.4 -193.9 M65.05 -176.35 L65.3 -175.8 65.8 -175.05 66.35 -173.5 66.85 -173.1 Q67.1 -172.75 67.25 -173.0 67.5 -173.25 67.25 -173.5 L66.7 -175.05 66.2 -175.95 65.8 -176.6 65.3 -176.7 65.05 -176.7 65.05 -176.35" fill="#5f0000" fill-rule="evenodd" stroke="none"/>
      <path d="M65.05 -176.35 L65.05 -176.7 65.3 -176.7 65.8 -176.6 66.2 -175.95 66.7 -175.05 67.25 -173.5 Q67.5 -173.25 67.25 -173.0 67.1 -172.75 66.85 -173.1 L66.35 -173.5 65.8 -175.05 65.3 -175.8 65.05 -176.35 M53.75 -192.6 L54.65 -192.75 Q57.6 -192.6 60.05 -190.45 60.8 -189.95 60.4 -189.4 60.05 -188.9 59.4 -189.4 L57.6 -190.55 55.65 -191.2 53.85 -191.7 Q53.25 -191.85 53.35 -192.25 53.35 -192.6 53.75 -192.6 M43.6 -190.2 Q45.0 -191.2 47.05 -191.45 L47.45 -191.45 47.45 -190.95 Q47.3 -190.3 45.8 -189.65 44.75 -189.3 43.75 -188.25 L41.95 -186.2 Q41.55 -185.95 41.4 -185.95 41.05 -185.7 40.65 -185.95 40.4 -186.35 41.05 -187.1 L43.6 -190.2 M52.6 -184.0 L52.45 -184.0 Q51.8 -183.5 50.15 -183.15 L47.95 -182.1 Q47.6 -181.85 47.3 -181.95 46.95 -182.1 47.05 -182.6 L47.45 -183.25 Q48.35 -184.0 49.9 -184.4 L52.35 -185.05 52.45 -185.05 53.0 -185.05 Q53.25 -184.65 53.0 -184.3 L52.6 -184.0 M41.4 -176.7 L41.65 -176.85 42.2 -176.95 Q42.3 -176.85 42.45 -176.85 42.7 -176.35 42.3 -175.7 L41.95 -174.9 41.3 -173.5 Q41.15 -173.25 40.75 -173.25 40.5 -173.25 40.4 -173.4 40.25 -173.5 40.25 -173.9 L40.65 -175.3 Q40.75 -175.8 41.4 -176.7 M60.4 -183.75 L60.95 -183.15 59.4 -183.25 57.75 -183.75 57.35 -184.15 Q56.95 -184.4 57.35 -184.65 L57.85 -184.9 59.4 -184.3 60.4 -183.75 M72.5 -148.75 L71.85 -145.15 71.35 -145.05 71.1 -145.3 70.95 -145.8 71.2 -149.15 Q71.2 -149.65 71.45 -149.75 L72.0 -150.05 72.25 -149.65 72.5 -148.75 M35.9 -180.3 L35.4 -179.3 35.1 -178.65 34.6 -178.0 34.35 -176.85 33.85 -176.7 33.7 -176.95 33.7 -177.5 34.35 -179.8 Q34.85 -180.8 35.25 -180.95 35.9 -181.2 35.9 -180.8 L35.9 -180.3 M-51.55 -183.55 L-50.25 -182.65 -49.0 -181.85 -47.85 -180.95 -46.7 -180.2 -46.8 -180.2 -48.35 -180.35 -49.65 -181.1 -53.85 -182.75 -56.55 -183.55 -58.0 -183.65 -58.6 -183.8 Q-59.0 -183.8 -59.0 -184.3 L-58.75 -184.8 -58.0 -184.8 -54.4 -184.7 -52.85 -184.05 -51.55 -183.55 M-54.4 -177.65 L-52.35 -177.1 Q-50.25 -176.35 -49.75 -175.45 -51.3 -175.6 -54.5 -177.0 L-54.75 -177.25 Q-54.75 -177.65 -54.4 -177.65 M-68.9 -186.35 L-76.45 -186.1 -77.0 -186.1 -77.35 -186.35 Q-77.5 -186.6 -77.1 -187.0 L-76.6 -187.25 -74.15 -187.75 -72.6 -187.9 -71.45 -187.9 -67.5 -187.75 Q-66.7 -187.5 -66.7 -187.75 L-66.05 -187.15 Q-65.95 -186.85 -66.45 -186.5 L-67.1 -186.35 -68.9 -186.35 M-74.55 -178.55 Q-72.9 -179.2 -70.8 -179.2 L-70.2 -179.2 Q-69.8 -178.8 -69.9 -178.55 -69.9 -178.15 -70.7 -178.0 L-74.95 -177.65 -75.2 -178.0 -74.55 -178.55 M-61.2 -150.7 L-60.8 -150.7 Q-59.8 -150.45 -59.0 -149.95 L-58.75 -149.65 Q-58.35 -149.05 -59.0 -148.9 -59.15 -148.75 -59.65 -148.9 L-60.8 -149.55 Q-61.3 -149.55 -61.45 -149.8 -61.7 -150.05 -61.45 -150.45 L-61.2 -150.7 M-54.5 -146.35 L-53.75 -145.3 -52.85 -144.3 -52.95 -143.75 -53.25 -143.65 Q-53.5 -143.5 -53.85 -143.9 L-56.05 -146.45 Q-56.55 -147.0 -56.45 -147.25 L-56.05 -147.35 -55.55 -147.25 -54.5 -146.35 M-92.15 -178.15 Q-92.25 -179.2 -91.0 -180.45 L-89.7 -181.35 Q-88.05 -182.75 -85.85 -182.9 -86.35 -182.15 -87.25 -181.35 L-88.95 -180.35 -91.35 -178.0 Q-91.65 -177.65 -92.0 -177.65 -92.25 -177.75 -92.15 -178.15 M-83.65 -173.65 Q-83.65 -173.0 -84.2 -172.65 L-85.1 -172.1 Q-86.0 -171.75 -86.35 -171.2 L-86.9 -170.85 Q-87.15 -170.45 -87.5 -170.7 -87.75 -170.85 -87.65 -171.2 L-87.25 -171.85 -85.85 -173.3 -83.65 -173.65 M-101.5 -163.25 Q-101.4 -164.55 -100.75 -166.2 -100.5 -167.4 -99.45 -169.15 L-98.2 -170.85 Q-97.8 -171.1 -97.4 -170.85 -97.3 -170.7 -97.55 -170.2 L-99.7 -166.2 Q-100.6 -164.8 -100.75 -163.55 L-100.85 -163.15 Q-101.4 -162.75 -101.5 -163.0 L-101.5 -163.25 M-92.9 -153.25 L-93.05 -150.85 -93.15 -150.45 Q-93.3 -150.05 -93.7 -150.3 L-93.8 -150.55 -93.95 -153.15 -93.8 -153.8 -93.3 -154.05 -92.9 -153.8 -92.9 -153.25 M-92.9 -142.6 L-92.4 -142.25 Q-92.15 -142.0 -92.15 -141.35 -92.0 -140.3 -91.5 -139.4 -91.25 -139.05 -91.35 -138.9 L-91.35 -138.5 -91.9 -138.5 -92.15 -138.75 Q-92.8 -139.4 -93.05 -140.95 L-93.15 -142.0 -93.15 -142.6 -92.9 -142.6 M-88.95 -134.4 Q-87.65 -132.6 -84.2 -129.9 -83.65 -129.65 -83.8 -129.4 -83.9 -128.75 -84.55 -129.3 -88.05 -130.45 -89.7 -133.65 L-89.85 -134.3 -89.55 -134.65 -88.95 -134.4" fill="#c63434" fill-rule="evenodd" stroke="none"/>
      <path d="M66.95 -160.4 Q65.3 -156.45 62.85 -152.7 L60.05 -148.75 Q58.1 -148.0 56.7 -149.4 55.8 -150.15 55.3 -151.45 56.3 -154.5 57.2 -156.2 57.45 -157.1 57.75 -157.35 L59.4 -161.3 59.9 -162.85 Q60.8 -165.4 61.05 -168.1 61.45 -174.15 59.9 -175.95 58.25 -176.85 56.45 -176.6 54.25 -175.95 52.2 -173.5 49.65 -177.5 46.7 -180.2 49.65 -177.5 52.2 -173.5 L50.4 -169.9 48.75 -166.45 Q44.5 -168.35 40.75 -170.15 41.95 -174.4 44.75 -178.1 L36.9 -186.2 Q42.2 -184.55 46.7 -180.2 49.5 -182.85 52.7 -183.4 L52.6 -184.0 53.0 -184.3 Q53.25 -184.65 53.0 -185.05 L52.45 -185.05 50.8 -192.5 Q53.75 -189.15 55.15 -183.5 58.9 -184.0 61.45 -181.45 L64.3 -186.2 Q65.2 -182.1 63.1 -179.0 61.85 -177.35 59.9 -175.95 61.85 -177.35 63.1 -179.0 66.05 -173.5 66.95 -168.0 64.65 -166.2 61.05 -168.1 64.65 -166.2 66.95 -168.0 L66.95 -160.4 59.9 -162.85 66.95 -160.4 M67.25 -135.55 Q60.8 -130.15 57.2 -134.25 L53.35 -145.3 Q54.4 -143.35 57.35 -143.25 L61.6 -143.75 63.4 -144.9 64.55 -145.65 66.35 -147.2 68.4 -149.75 Q67.25 -147.6 66.85 -145.65 L69.4 -142.45 Q67.85 -142.1 66.95 -142.7 65.7 -143.5 64.55 -145.65 65.7 -143.5 66.95 -142.7 63.25 -137.2 67.25 -135.55 56.95 -135.0 57.35 -143.25 56.95 -135.0 67.25 -135.55 M55.15 -183.5 L56.45 -176.6 55.15 -183.5 M62.85 -152.7 Q61.6 -158.0 57.75 -157.35 61.6 -158.0 62.85 -152.7" fill="#4a0000" fill-rule="evenodd" stroke="none"/>
      <path d="M28.05 -187.5 Q32.55 -196.1 41.05 -198.25 47.05 -197.1 50.8 -192.5 L52.45 -185.05 52.35 -185.05 49.9 -184.4 Q48.35 -184.0 47.45 -183.25 L47.05 -182.6 Q46.95 -182.1 47.3 -181.95 47.6 -181.85 47.95 -182.1 L50.15 -183.15 Q51.8 -183.5 52.45 -184.0 L52.6 -184.0 52.7 -183.4 Q49.5 -182.85 46.7 -180.2 42.2 -184.55 36.9 -186.2 32.8 -187.75 28.05 -187.5 M43.6 -190.2 L41.05 -187.1 Q40.4 -186.35 40.65 -185.95 41.05 -185.7 41.4 -185.95 41.55 -185.95 41.95 -186.2 L43.75 -188.25 Q44.75 -189.3 45.8 -189.65 47.3 -190.3 47.45 -190.95 L47.45 -191.45 47.05 -191.45 Q45.0 -191.2 43.6 -190.2" fill="url(#gradient1)" fill-rule="evenodd" stroke="none"/>
      <path d="M40.75 -170.15 Q32.95 -173.75 27.15 -175.8 L25.0 -176.7 Q26.0 -181.05 26.9 -184.0 L28.05 -187.5 Q32.8 -187.75 36.9 -186.2 L44.75 -178.1 Q41.95 -174.4 40.75 -170.15 M41.4 -176.7 Q40.75 -175.8 40.65 -175.3 L40.25 -173.9 Q40.25 -173.5 40.4 -173.4 40.5 -173.25 40.75 -173.25 41.15 -173.25 41.3 -173.5 L41.95 -174.9 42.3 -175.7 Q42.7 -176.35 42.45 -176.85 42.3 -176.85 42.2 -176.95 L41.65 -176.85 41.4 -176.7 M35.9 -180.3 L35.9 -180.8 Q35.9 -181.2 35.25 -180.95 34.85 -180.8 34.35 -179.8 L33.7 -177.5 33.7 -176.95 33.85 -176.7 34.35 -176.85 34.6 -178.0 35.1 -178.65 35.4 -179.3 35.9 -180.3" fill="url(#gradient2)" fill-rule="evenodd" stroke="none"/>
      <path d="M53.0 -154.0 Q52.45 -159.4 48.75 -166.45 L50.4 -169.9 52.2 -173.5 Q54.25 -175.95 56.45 -176.6 58.25 -176.85 59.9 -175.95 L57.45 -172.75 58.1 -169.65 Q57.85 -168.75 57.75 -167.5 59.25 -165.05 61.05 -168.1 60.8 -165.4 59.9 -162.85 L59.4 -161.3 Q56.7 -159.5 56.55 -162.1 L57.2 -164.0 57.75 -167.5 57.2 -164.0 56.55 -162.1 Q56.7 -159.5 59.4 -161.3 L57.75 -157.35 Q57.45 -157.1 57.2 -156.2 54.25 -154.25 54.25 -156.95 L53.0 -154.0 M61.05 -168.1 Q59.25 -165.05 57.75 -167.5 57.85 -168.75 58.1 -169.65 L57.45 -172.75 59.9 -175.95 Q61.45 -174.15 61.05 -168.1 M58.1 -169.65 Q56.05 -173.75 52.2 -173.5 56.05 -173.75 58.1 -169.65 M54.25 -156.95 L55.15 -159.4 56.55 -162.1 55.15 -159.4 54.25 -156.95 M57.2 -164.0 Q54.9 -170.45 50.4 -169.9 54.9 -170.45 57.2 -164.0 M55.15 -159.4 Q54.15 -163.35 48.75 -166.45 54.15 -163.35 55.15 -159.4 M-69.4 -169.05 L-61.7 -168.55 Q-59.0 -168.15 -56.05 -166.75 L-50.4 -163.65 Q-55.4 -159.05 -60.7 -157.35 L-61.95 -158.25 -64.15 -158.8 -68.0 -158.15 Q-70.2 -163.55 -69.4 -169.05 -70.2 -163.55 -68.0 -158.15 L-70.55 -157.1 -73.15 -155.55 Q-82.75 -158.4 -82.75 -162.65 -82.75 -158.4 -73.15 -155.55 L-75.3 -153.8 Q-76.1 -153.0 -76.1 -153.15 L-77.5 -150.05 Q-83.65 -148.0 -87.5 -151.1 L-87.0 -154.15 Q-86.75 -155.7 -86.1 -157.1 L-84.3 -160.6 -82.75 -162.65 -80.7 -164.95 -78.25 -166.2 -75.45 -167.5 Q-77.1 -161.75 -70.55 -157.1 -77.1 -161.75 -75.45 -167.5 -72.5 -168.65 -69.4 -169.05 M-61.7 -168.55 Q-66.7 -165.2 -64.15 -158.8 -66.7 -165.2 -61.7 -168.55 M-61.95 -158.25 Q-61.7 -165.6 -56.05 -166.75 -61.7 -165.6 -61.95 -158.25 M-76.1 -153.15 Q-83.3 -152.35 -86.1 -157.1 -83.3 -152.35 -76.1 -153.15" fill="#330000" fill-rule="evenodd" stroke="none"/>
      <path d="M53.35 -145.3 L53.35 -147.1 53.25 -151.95 53.1 -153.9 53.0 -154.0 54.25 -156.95 Q54.25 -154.25 57.2 -156.2 56.3 -154.5 55.3 -151.45 55.8 -150.15 56.7 -149.4 58.1 -148.0 60.05 -148.75 61.05 -146.2 57.35 -143.25 54.4 -143.35 53.35 -145.3 M55.3 -151.45 L53.25 -151.95 55.3 -151.45 M56.7 -149.4 Q56.05 -146.55 53.35 -147.1 56.05 -146.55 56.7 -149.4 M-78.15 -141.45 Q-77.5 -139.55 -76.2 -138.0 -75.05 -136.35 -73.4 -135.2 L-71.35 -133.75 Q-68.4 -132.25 -68.9 -129.4 L-72.35 -129.55 -75.7 -130.15 Q-72.6 -131.7 -73.4 -135.2 -72.6 -131.7 -75.7 -130.15 -77.0 -130.7 -78.4 -131.05 -80.35 -131.95 -81.75 -133.4 -83.65 -135.05 -84.95 -137.5 -80.7 -137.85 -78.15 -141.45 M-76.2 -138.0 Q-76.45 -133.9 -81.75 -133.4 -76.45 -133.9 -76.2 -138.0" fill="#410000" fill-rule="evenodd" stroke="none"/>
      <path d="M69.4 -172.1 Q69.15 -166.2 66.95 -160.4 L66.95 -168.0 Q68.5 -169.15 69.4 -172.1 M73.9 -145.3 Q72.9 -142.45 71.2 -139.75 69.4 -137.2 67.25 -135.55 63.25 -137.2 66.95 -142.7 67.85 -142.1 69.4 -142.45 71.35 -142.85 73.9 -145.3 M-80.35 -128.65 L-80.2 -128.65 Q-74.95 -125.7 -71.7 -125.7 L-71.6 -124.9 Q-73.5 -124.0 -82.1 -125.05 L-81.75 -125.95 -80.45 -128.5 -80.35 -128.5 -80.35 -128.65" fill="#4f0000" fill-rule="evenodd" stroke="none"/>
      <path d="M70.55 -158.25 L70.85 -159.4 Q71.2 -164.15 72.9 -162.85 74.3 -159.8 74.8 -156.95 74.05 -156.05 73.0 -155.95 71.85 -156.05 70.55 -158.25" fill="url(#gradient3)" fill-rule="evenodd" stroke="none"/>
      <path d="M70.2 -156.55 L70.55 -158.25 Q71.85 -156.05 73.0 -155.95 71.85 -155.65 70.2 -156.55 M68.75 -151.45 L69.4 -153.9 Q70.55 -151.3 72.5 -150.55 70.95 -150.3 68.75 -151.45" fill="#380000" fill-rule="evenodd" stroke="none"/>
      <path d="M69.4 -155.05 L69.55 -155.15 Q69.65 -155.95 70.2 -156.55 71.85 -155.65 73.0 -155.95 74.05 -156.05 74.8 -156.95 75.2 -155.05 75.2 -153.0 74.3 -150.95 72.5 -150.55 70.55 -151.3 69.4 -153.9 L69.4 -155.05" fill="url(#gradient4)" fill-rule="evenodd" stroke="none"/>
      <path d="M75.2 -153.0 Q75.2 -149.25 73.9 -145.3 71.35 -142.85 69.4 -142.45 L66.85 -145.65 Q67.25 -147.6 68.4 -149.75 L68.5 -150.05 68.75 -151.45 Q70.95 -150.3 72.5 -150.55 74.3 -150.95 75.2 -153.0 M72.5 -148.75 L72.25 -149.65 72.0 -150.05 71.45 -149.75 Q71.2 -149.65 71.2 -149.15 L70.95 -145.8 71.1 -145.3 71.35 -145.05 71.85 -145.15 72.5 -148.75" fill="url(#gradient5)" fill-rule="evenodd" stroke="none"/>
      <path d="M64.0 -149.65 Q65.2 -150.15 66.2 -150.95 68.25 -152.35 69.4 -155.05 L69.4 -153.9 68.75 -151.45 68.5 -150.05 68.4 -149.75 66.35 -147.2 64.55 -145.65 63.4 -144.9 Q65.7 -147.6 64.0 -149.65 M66.2 -150.95 Q67.85 -150.4 66.35 -147.2 67.85 -150.4 66.2 -150.95 M-62.45 -135.3 Q-61.6 -136.45 -60.95 -138.4 L-60.7 -139.8 Q-60.7 -137.5 -60.95 -135.55 -61.45 -133.75 -62.35 -132.5 L-63.0 -135.05 Q-62.6 -135.2 -62.45 -135.3 L-60.95 -135.55 -62.45 -135.3" fill="#230000" fill-rule="evenodd" stroke="none"/>
      <path d="M60.05 -148.75 L64.0 -149.65 Q65.7 -147.6 63.4 -144.9 L61.6 -143.75 57.35 -143.25 Q61.05 -146.2 60.05 -148.75 M-71.35 -133.75 Q-65.8 -131.85 -63.0 -135.05 L-62.35 -132.5 Q-64.55 -129.65 -68.9 -129.4 -68.4 -132.25 -71.35 -133.75" fill="#2c0000" fill-rule="evenodd" stroke="none"/>
      <path d="M-54.4 -177.65 Q-54.75 -177.65 -54.75 -177.25 L-54.5 -177.0 Q-51.3 -175.6 -49.75 -175.45 -50.25 -176.35 -52.35 -177.1 L-54.4 -177.65 M-51.55 -183.55 L-52.85 -184.05 -54.4 -184.7 -58.0 -184.8 -58.75 -184.8 -59.0 -184.3 Q-59.0 -183.8 -58.6 -183.8 L-58.0 -183.65 -56.55 -183.55 -53.85 -182.75 -49.65 -181.1 -48.35 -180.35 -46.8 -180.2 -46.7 -180.2 -47.85 -180.95 -49.0 -181.85 -50.25 -182.65 -51.55 -183.55 M-45.0 -170.05 L-62.2 -177.0 Q-64.25 -180.7 -62.6 -184.8 -58.75 -189.8 -53.5 -188.55 -47.05 -186.1 -37.8 -178.4 -39.85 -175.05 -45.0 -170.05" fill="url(#gradient6)" fill-rule="evenodd" stroke="none"/>
      <path d="M-74.55 -178.55 L-75.2 -178.0 -74.95 -177.65 -70.7 -178.0 Q-69.9 -178.15 -69.9 -178.55 -69.8 -178.8 -70.2 -179.2 L-70.8 -179.2 Q-72.9 -179.2 -74.55 -178.55 M-68.9 -186.35 L-67.1 -186.35 -66.45 -186.5 Q-65.95 -186.85 -66.05 -187.15 L-66.7 -187.75 Q-66.7 -187.5 -67.5 -187.75 L-71.45 -187.9 -72.6 -187.9 -74.15 -187.75 -76.6 -187.25 -77.1 -187.0 Q-77.5 -186.6 -77.35 -186.35 L-77.0 -186.1 -76.45 -186.1 -68.9 -186.35 M-62.6 -184.8 Q-64.9 -182.15 -67.75 -174.95 -73.25 -175.6 -78.65 -174.95 -81.75 -178.8 -82.0 -183.4 -81.35 -187.5 -78.4 -190.45 -66.05 -193.3 -53.5 -188.55 -58.75 -189.8 -62.6 -184.8" fill="url(#gradient7)" fill-rule="evenodd" stroke="none"/>
      <path d="M-62.6 -184.8 Q-64.25 -180.7 -62.2 -177.0 L-45.0 -170.05 Q-46.8 -167.0 -50.4 -163.65 L-56.05 -166.75 Q-59.0 -168.15 -61.7 -168.55 L-69.4 -169.05 -67.75 -174.95 -69.4 -169.05 Q-72.5 -168.65 -75.45 -167.5 L-78.25 -166.2 -80.7 -164.95 -82.75 -162.65 -84.3 -160.6 -86.1 -157.1 Q-86.75 -155.7 -87.0 -154.15 L-92.15 -155.05 -87.0 -154.15 -87.5 -151.1 -87.5 -147.1 -87.0 -144.05 -87.0 -143.65 Q-86.35 -140.05 -84.95 -137.5 -83.65 -135.05 -81.75 -133.4 -80.35 -131.95 -78.4 -131.05 L-80.35 -128.65 -78.4 -131.05 Q-77.0 -130.7 -75.7 -130.15 L-72.35 -129.55 -68.9 -129.4 Q-64.55 -129.65 -62.35 -132.5 -61.45 -133.75 -60.95 -135.55 L-58.1 -133.75 -55.3 -132.6 -58.1 -133.75 -60.95 -135.55 Q-60.7 -137.5 -60.7 -139.8 L-60.7 -140.3 Q-60.7 -143.25 -62.45 -147.0 L-61.3 -147.0 -59.0 -142.35 Q-57.2 -140.2 -54.4 -140.7 -55.65 -140.2 -57.85 -139.8 L-56.55 -136.2 Q-55.15 -133.25 -51.8 -133.4 -53.25 -132.6 -55.3 -132.6 L-55.55 -128.1 Q-55.4 -126.05 -52.95 -124.8 -51.8 -125.05 -50.4 -125.7 -52.2 -122.75 -55.4 -119.9 -66.35 -112.2 -80.2 -115.05 -88.8 -117.6 -95.6 -125.05 L-99.2 -129.55 Q-102.55 -135.55 -104.6 -141.85 L-105.9 -146.85 Q-107.4 -153.9 -106.4 -160.45 -106.4 -149.65 -101.25 -143.75 -98.95 -136.05 -93.7 -132.25 -93.8 -131.6 -86.75 -126.95 -84.45 -125.3 -82.1 -125.05 -73.5 -124.0 -71.6 -124.9 L-71.7 -125.7 Q-74.95 -125.7 -80.2 -128.65 L-80.35 -128.65 -80.35 -128.5 -80.45 -128.5 -81.75 -125.95 -82.0 -130.15 -88.05 -136.45 -84.95 -137.5 -88.05 -136.45 Q-89.85 -135.8 -91.25 -134.55 -89.55 -136.35 -88.95 -138.75 L-92.15 -146.45 -94.95 -145.8 -92.15 -147.9 Q-92.9 -151.35 -92.15 -155.05 L-97.8 -156.45 Q-94.45 -155.7 -91.9 -157.5 -91.35 -161.35 -89.3 -165.3 -91.65 -168.15 -92.9 -170.7 -90.6 -167.65 -87.9 -167.5 -85.2 -170.95 -81.1 -173.65 -82.75 -179.3 -82.0 -183.4 -81.75 -178.8 -78.65 -174.95 -73.25 -175.6 -67.75 -174.95 -64.9 -182.15 -62.6 -184.8 M-57.85 -139.8 Q-59.15 -139.65 -60.7 -139.8 -59.15 -139.65 -57.85 -139.8 M-52.95 -124.8 L-54.4 -124.55 Q-58.1 -124.8 -61.3 -129.55 L-62.2 -131.2 -62.35 -132.5 -62.2 -131.2 -61.3 -129.55 Q-58.1 -124.8 -54.4 -124.55 L-52.95 -124.8 M-71.7 -125.7 L-72.25 -127.5 -72.35 -129.55 -72.25 -127.5 -71.7 -125.7 M-95.6 -125.05 Q-95.5 -129.4 -93.7 -132.25 -95.5 -129.4 -95.6 -125.05 M-63.5 -116.85 Q-69.65 -116.3 -71.6 -124.9 -69.65 -116.3 -63.5 -116.85 M-89.3 -165.3 L-84.3 -160.6 -89.3 -165.3 M-92.15 -146.45 L-87.5 -147.1 -92.15 -146.45 M-104.6 -141.85 L-101.25 -143.75 -104.6 -141.85 M-81.1 -173.65 Q-80.2 -170.2 -78.25 -166.2 -80.2 -170.2 -81.1 -173.65 M-82.1 -125.05 Q-83.65 -120.05 -80.2 -115.05 -83.65 -120.05 -82.1 -125.05" fill="#4d0000" fill-rule="evenodd" stroke="none"/>
      <path d="M-62.45 -147.0 L-65.45 -151.35 Q-59.9 -152.9 -55.8 -151.35 -55.4 -148.15 -59.9 -147.1 L-61.3 -147.0 -62.45 -147.0 M-61.2 -150.7 L-61.45 -150.45 Q-61.7 -150.05 -61.45 -149.8 -61.3 -149.55 -60.8 -149.55 L-59.65 -148.9 Q-59.15 -148.75 -59.0 -148.9 -58.35 -149.05 -58.75 -149.65 L-59.0 -149.95 Q-59.8 -150.45 -60.8 -150.7 L-61.2 -150.7" fill="url(#gradient8)" fill-rule="evenodd" stroke="none"/>
      <path d="M-55.8 -151.35 Q-52.85 -149.95 -50.65 -146.35 -50.9 -142.35 -54.4 -140.7 -57.2 -140.2 -59.0 -142.35 L-61.3 -147.0 -59.9 -147.1 Q-55.4 -148.15 -55.8 -151.35 M-54.5 -146.35 L-55.55 -147.25 -56.05 -147.35 -56.45 -147.25 Q-56.55 -147.0 -56.05 -146.45 L-53.85 -143.9 Q-53.5 -143.5 -53.25 -143.65 L-52.95 -143.75 -52.85 -144.3 -53.75 -145.3 -54.5 -146.35" fill="url(#gradient9)" fill-rule="evenodd" stroke="none"/>
      <path d="M-50.65 -146.35 Q-48.75 -143.0 -47.7 -137.6 -49.25 -134.55 -51.8 -133.4 -55.15 -133.25 -56.55 -136.2 L-57.85 -139.8 Q-55.65 -140.2 -54.4 -140.7 -50.9 -142.35 -50.65 -146.35" fill="url(#gradient10)" fill-rule="evenodd" stroke="none"/>
      <path d="M-47.7 -137.6 Q-46.95 -131.05 -50.4 -125.7 -51.8 -125.05 -52.95 -124.8 -55.4 -126.05 -55.55 -128.1 L-55.3 -132.6 Q-53.25 -132.6 -51.8 -133.4 -49.25 -134.55 -47.7 -137.6" fill="url(#gradient11)" fill-rule="evenodd" stroke="none"/>
      <path d="M-78.25 -146.6 Q-78.8 -143.9 -78.15 -141.45 -80.7 -137.85 -84.95 -137.5 -86.35 -140.05 -87.0 -143.65 -83.0 -142.35 -78.25 -146.6" fill="#430000" fill-rule="evenodd" stroke="none"/>
      <path d="M-77.5 -150.05 L-78.25 -146.6 Q-83.0 -142.35 -87.0 -143.65 L-87.0 -144.05 -87.5 -147.1 -87.5 -151.1 Q-83.65 -148.0 -77.5 -150.05" fill="#3a0000" fill-rule="evenodd" stroke="none"/>
      <path d="M-94.05 -181.75 Q-89.55 -185.45 -83.8 -188.95 L-78.4 -190.45 Q-81.35 -187.5 -82.0 -183.4 -82.75 -179.3 -81.1 -173.65 -85.2 -170.95 -87.9 -167.5 -90.6 -167.65 -92.9 -170.7 -96.1 -176.6 -94.05 -181.75 M-83.65 -173.65 L-85.85 -173.3 -87.25 -171.85 -87.65 -171.2 Q-87.75 -170.85 -87.5 -170.7 -87.15 -170.45 -86.9 -170.85 L-86.35 -171.2 Q-86.0 -171.75 -85.1 -172.1 L-84.2 -172.65 Q-83.65 -173.0 -83.65 -173.65 M-92.15 -178.15 Q-92.25 -177.75 -92.0 -177.65 -91.65 -177.65 -91.35 -178.0 L-88.95 -180.35 -87.25 -181.35 Q-86.35 -182.15 -85.85 -182.9 -88.05 -182.75 -89.7 -181.35 L-91.0 -180.45 Q-92.25 -179.2 -92.15 -178.15" fill="url(#gradient12)" fill-rule="evenodd" stroke="none"/>
      <path d="M-106.4 -160.45 Q-104.6 -172.5 -94.05 -181.75 -96.1 -176.6 -92.9 -170.7 -91.65 -168.15 -89.3 -165.3 -91.35 -161.35 -91.9 -157.5 -94.45 -155.7 -97.8 -156.45 -104.35 -158.25 -106.4 -160.45 M-101.5 -163.25 L-101.5 -163.0 Q-101.4 -162.75 -100.85 -163.15 L-100.75 -163.55 Q-100.6 -164.8 -99.7 -166.2 L-97.55 -170.2 Q-97.3 -170.7 -97.4 -170.85 -97.8 -171.1 -98.2 -170.85 L-99.45 -169.15 Q-100.5 -167.4 -100.75 -166.2 -101.4 -164.55 -101.5 -163.25" fill="url(#gradient13)" fill-rule="evenodd" stroke="none"/>
      <path d="M-92.9 -153.25 L-92.9 -153.8 -93.3 -154.05 -93.8 -153.8 -93.95 -153.15 -93.8 -150.55 -93.7 -150.3 Q-93.3 -150.05 -93.15 -150.45 L-93.05 -150.85 -92.9 -153.25 M-97.8 -156.45 L-92.15 -155.05 Q-92.9 -151.35 -92.15 -147.9 L-94.95 -145.8 Q-98.45 -145.2 -101.25 -143.75 -106.4 -149.65 -106.4 -160.45 -104.35 -158.25 -97.8 -156.45" fill="url(#gradient14)" fill-rule="evenodd" stroke="none"/>
      <path d="M-92.15 -146.45 L-88.95 -138.75 Q-89.55 -136.35 -91.25 -134.55 L-91.5 -134.3 -91.65 -134.3 -91.9 -134.15 Q-92.9 -133.4 -93.7 -132.25 -98.95 -136.05 -101.25 -143.75 -98.45 -145.2 -94.95 -145.8 L-92.15 -146.45 M-92.9 -142.6 L-93.15 -142.6 -93.15 -142.0 -93.05 -140.95 Q-92.8 -139.4 -92.15 -138.75 L-91.9 -138.5 -91.35 -138.5 -91.35 -138.9 Q-91.25 -139.05 -91.5 -139.4 -92.0 -140.3 -92.15 -141.35 -92.15 -142.0 -92.4 -142.25 L-92.9 -142.6" fill="url(#gradient15)" fill-rule="evenodd" stroke="none"/>
      <path d="M-81.75 -125.95 L-82.1 -125.05 Q-84.45 -125.3 -86.75 -126.95 -93.8 -131.6 -93.7 -132.25 -92.9 -133.4 -91.9 -134.15 L-91.65 -134.3 -91.5 -134.3 -91.25 -134.55 Q-89.85 -135.8 -88.05 -136.45 L-82.0 -130.15 -81.75 -125.95 M-88.95 -134.4 L-89.55 -134.65 -89.85 -134.3 -89.7 -133.65 Q-88.05 -130.45 -84.55 -129.3 -83.9 -128.75 -83.8 -129.4 -83.65 -129.65 -84.2 -129.9 -87.65 -132.6 -88.95 -134.4" fill="url(#gradient16)" fill-rule="evenodd" stroke="none"/>
      <path d="M41.05 -198.25 Q44.65 -199.3 49.1 -199.05 55.65 -198.5 60.4 -193.9 65.8 -188.9 68.65 -178.65 69.4 -175.3 69.4 -172.1 69.15 -166.2 66.95 -160.4 65.3 -156.45 62.85 -152.7 L60.05 -148.75 64.0 -149.65 Q65.2 -150.15 66.2 -150.95 68.25 -152.35 69.4 -155.05 L69.55 -155.15 Q69.65 -155.95 70.2 -156.55 L70.55 -158.25 70.85 -159.4 Q71.2 -164.15 72.9 -162.85 74.3 -159.8 74.8 -156.95 75.2 -155.05 75.2 -153.0 75.2 -149.25 73.9 -145.3 72.9 -142.45 71.2 -139.75 69.4 -137.2 67.25 -135.55 60.8 -130.15 57.2 -134.25 L53.35 -145.3 53.35 -147.1 53.25 -151.95 53.1 -153.9 53.0 -154.0 Q52.45 -159.4 48.75 -166.45 44.5 -168.35 40.75 -170.15 32.95 -173.75 27.15 -175.8 L25.0 -176.7 Q26.0 -181.05 26.9 -184.0 L28.05 -187.5 Q32.55 -196.1 41.05 -198.25 47.05 -197.1 50.8 -192.5 53.75 -189.15 55.15 -183.5 L56.45 -176.6 Q58.25 -176.85 59.9 -175.95 61.85 -177.35 63.1 -179.0 65.2 -182.1 64.3 -186.2 63.65 -189.65 60.4 -193.9 M46.7 -180.2 Q49.65 -177.5 52.2 -173.5 54.25 -175.95 56.45 -176.6 M66.95 -168.0 Q68.5 -169.15 69.4 -172.1 M59.9 -175.95 L57.45 -172.75 58.1 -169.65 Q57.85 -168.75 57.75 -167.5 59.25 -165.05 61.05 -168.1 61.45 -174.15 59.9 -175.95 M59.4 -161.3 L59.9 -162.85 Q60.8 -165.4 61.05 -168.1 64.65 -166.2 66.95 -168.0 M66.95 -160.4 L59.9 -162.85 M57.75 -167.5 L57.2 -164.0 56.55 -162.1 Q56.7 -159.5 59.4 -161.3 L57.75 -157.35 Q61.6 -158.0 62.85 -152.7 M48.75 -166.45 L50.4 -169.9 52.2 -173.5 Q56.05 -173.75 58.1 -169.65 M57.2 -156.2 Q57.45 -157.1 57.75 -157.35 M56.55 -162.1 L55.15 -159.4 54.25 -156.95 Q54.25 -154.25 57.2 -156.2 56.3 -154.5 55.3 -151.45 55.8 -150.15 56.7 -149.4 58.1 -148.0 60.05 -148.75 61.05 -146.2 57.35 -143.25 L61.6 -143.75 63.4 -144.9 Q65.7 -147.6 64.0 -149.65 M53.25 -151.95 L55.3 -151.45 M54.25 -156.95 L53.0 -154.0 M48.75 -166.45 Q54.15 -163.35 55.15 -159.4 M50.4 -169.9 Q54.9 -170.45 57.2 -164.0 M69.4 -153.9 L68.75 -151.45 Q70.95 -150.3 72.5 -150.55 74.3 -150.95 75.2 -153.0 M69.4 -153.9 L69.4 -155.05 M68.75 -151.45 L68.5 -150.05 68.4 -149.75 66.35 -147.2 Q67.85 -150.4 66.2 -150.95 M69.4 -142.45 Q71.35 -142.85 73.9 -145.3 M73.0 -155.95 Q74.05 -156.05 74.8 -156.95 M70.2 -156.55 Q71.85 -155.65 73.0 -155.95 M36.9 -186.2 Q32.8 -187.75 28.05 -187.5 M63.4 -144.9 L64.55 -145.65 66.35 -147.2 M66.95 -142.7 Q67.85 -142.1 69.4 -142.45 M64.55 -145.65 Q65.7 -143.5 66.95 -142.7 M67.25 -135.55 Q56.95 -135.0 57.35 -143.25 54.4 -143.35 53.35 -145.3 M53.35 -147.1 Q56.05 -146.55 56.7 -149.4 M36.9 -186.2 Q42.2 -184.55 46.7 -180.2 M-62.6 -184.8 Q-64.9 -182.15 -67.75 -174.95 L-69.4 -169.05 -61.7 -168.55 Q-59.0 -168.15 -56.05 -166.75 L-50.4 -163.65 Q-46.8 -167.0 -45.0 -170.05 -39.85 -175.05 -37.8 -178.4 -47.05 -186.1 -53.5 -188.55 -58.75 -189.8 -62.6 -184.8 M-75.45 -167.5 L-78.25 -166.2 -80.7 -164.95 -82.75 -162.65 Q-82.75 -158.4 -73.15 -155.55 L-70.55 -157.1 Q-77.1 -161.75 -75.45 -167.5 -72.5 -168.65 -69.4 -169.05 -70.2 -163.55 -68.0 -158.15 L-64.15 -158.8 Q-66.7 -165.2 -61.7 -168.55 M-73.15 -155.55 L-75.3 -153.8 Q-76.1 -153.0 -76.1 -153.15 L-77.5 -150.05 -78.25 -146.6 Q-78.8 -143.9 -78.15 -141.45 -77.5 -139.55 -76.2 -138.0 -75.05 -136.35 -73.4 -135.2 L-71.35 -133.75 Q-65.8 -131.85 -63.0 -135.05 L-63.0 -135.3 -62.45 -135.3 Q-61.6 -136.45 -60.95 -138.4 L-60.7 -139.8 -60.7 -140.3 Q-60.7 -143.25 -62.45 -147.0 L-65.45 -151.35 Q-59.9 -152.9 -55.8 -151.35 -52.85 -149.95 -50.65 -146.35 -48.75 -143.0 -47.7 -137.6 -46.95 -131.05 -50.4 -125.7 -52.2 -122.75 -55.4 -119.9 -66.35 -112.2 -80.2 -115.05 -88.8 -117.6 -95.6 -125.05 L-99.2 -129.55 Q-102.55 -135.55 -104.6 -141.85 L-105.9 -146.85 Q-107.4 -153.9 -106.4 -160.45 -104.6 -172.5 -94.05 -181.75 -89.55 -185.45 -83.8 -188.95 L-78.4 -190.45 Q-66.05 -193.3 -53.5 -188.55 M-50.4 -163.65 Q-55.4 -159.05 -60.7 -157.35 L-61.95 -158.25 -64.15 -158.8 M-68.0 -158.15 L-70.55 -157.1 M-56.05 -166.75 Q-61.7 -165.6 -61.95 -158.25 M-60.7 -139.8 Q-59.15 -139.65 -57.85 -139.8 -55.65 -140.2 -54.4 -140.7 -50.9 -142.35 -50.65 -146.35 M-61.3 -147.0 L-62.45 -147.0 M-51.8 -133.4 Q-49.25 -134.55 -47.7 -137.6 M-55.3 -132.6 L-58.1 -133.75 -60.95 -135.55 Q-61.45 -133.75 -62.35 -132.5 L-62.2 -131.2 -61.3 -129.55 Q-58.1 -124.8 -54.4 -124.55 L-52.95 -124.8 Q-51.8 -125.05 -50.4 -125.7 M-55.3 -132.6 Q-53.25 -132.6 -51.8 -133.4 M-75.7 -130.15 Q-72.6 -131.7 -73.4 -135.2 M-80.35 -128.65 L-80.35 -128.5 -80.45 -128.5 -81.75 -125.95 -82.1 -125.05 Q-83.65 -120.05 -80.2 -115.05 M-93.7 -132.25 Q-95.5 -129.4 -95.6 -125.05 M-72.35 -129.55 L-72.25 -127.5 -71.7 -125.7 M-75.7 -130.15 L-72.35 -129.55 -68.9 -129.4 Q-68.4 -132.25 -71.35 -133.75 M-80.35 -128.65 L-78.4 -131.05 Q-80.35 -131.95 -81.75 -133.4 -83.65 -135.05 -84.95 -137.5 L-88.05 -136.45 Q-89.85 -135.8 -91.25 -134.55 L-91.5 -134.3 -91.65 -134.3 M-78.4 -131.05 Q-77.0 -130.7 -75.7 -130.15 M-62.35 -132.5 L-63.0 -135.05 Q-62.6 -135.2 -62.45 -135.3 L-60.95 -135.55 Q-60.7 -137.5 -60.7 -139.8 M-68.9 -129.4 Q-64.55 -129.65 -62.35 -132.5 M-61.3 -147.0 L-59.9 -147.1 Q-55.4 -148.15 -55.8 -151.35 M-71.6 -124.9 Q-69.65 -116.3 -63.5 -116.85 M-81.1 -173.65 Q-82.75 -179.3 -82.0 -183.4 -81.35 -187.5 -78.4 -190.45 M-89.3 -165.3 Q-91.65 -168.15 -92.9 -170.7 -96.1 -176.6 -94.05 -181.75 M-97.8 -156.45 L-92.15 -155.05 -87.0 -154.15 Q-86.75 -155.7 -86.1 -157.1 L-84.3 -160.6 -89.3 -165.3 M-87.0 -154.15 L-87.5 -151.1 Q-83.65 -148.0 -77.5 -150.05 M-82.75 -162.65 L-84.3 -160.6 M-106.4 -160.45 Q-104.35 -158.25 -97.8 -156.45 M-87.0 -143.65 L-87.0 -144.05 -87.5 -147.1 -92.15 -146.45 -94.95 -145.8 Q-98.45 -145.2 -101.25 -143.75 L-104.6 -141.85 M-84.95 -137.5 Q-86.35 -140.05 -87.0 -143.65 -83.0 -142.35 -78.25 -146.6 M-93.7 -132.25 Q-92.9 -133.4 -91.9 -134.15 M-87.5 -151.1 L-87.5 -147.1 M-78.25 -166.2 Q-80.2 -170.2 -81.1 -173.65 M-81.75 -133.4 Q-76.45 -133.9 -76.2 -138.0 M-84.95 -137.5 Q-80.7 -137.85 -78.15 -141.45 M-86.1 -157.1 Q-83.3 -152.35 -76.1 -153.15" fill="none" stroke="#000000" stroke-linecap="round" stroke-linejoin="round" stroke-opacity="0.4" stroke-width="0.1"/>
    </g>
    <linearGradient gradientTransform="matrix(0.006, 0.0018, -0.0034, 0.0141, 58.65, -187.6)" gradientUnits="userSpaceOnUse" id="gradient0" spreadMethod="pad" x1="-819.2" x2="819.2">
      <stop offset="0.00784313725490196" stop-color="#aa2118"/>
      <stop offset="1.0" stop-color="#660000"/>
    </linearGradient>
    <linearGradient gradientTransform="matrix(0.0026, 0.0028, -0.0075, 0.0081, 47.2, -187.0)" gradientUnits="userSpaceOnUse" id="gradient1" spreadMethod="pad" x1="-819.2" x2="819.2">
      <stop offset="0.00784313725490196" stop-color="#aa2118"/>
      <stop offset="1.0" stop-color="#660000"/>
    </linearGradient>
    <linearGradient gradientTransform="matrix(0.0063, 0.0018, -0.0029, 0.0116, 38.6, -178.1)" gradientUnits="userSpaceOnUse" id="gradient2" spreadMethod="pad" x1="-819.2" x2="819.2">
      <stop offset="0.00784313725490196" stop-color="#aa2118"/>
      <stop offset="1.0" stop-color="#660000"/>
    </linearGradient>
    <linearGradient gradientTransform="matrix(-5.0E-4, 0.0024, -0.0035, -0.001, 71.85, -156.3)" gradientUnits="userSpaceOnUse" id="gradient3" spreadMethod="pad" x1="-819.2" x2="819.2">
      <stop offset="0.00784313725490196" stop-color="#8e1c14"/>
      <stop offset="1.0" stop-color="#4f0000"/>
    </linearGradient>
    <linearGradient gradientTransform="matrix(-0.0011, 0.0022, -0.0041, -0.0025, 71.85, -152.1)" gradientUnits="userSpaceOnUse" id="gradient4" spreadMethod="pad" x1="-819.2" x2="819.2">
      <stop offset="0.00784313725490196" stop-color="#8e1c14"/>
      <stop offset="1.0" stop-color="#4f0000"/>
    </linearGradient>
    <linearGradient gradientTransform="matrix(-0.0011, 0.0022, -0.0066, -0.0042, 69.95, -145.95)" gradientUnits="userSpaceOnUse" id="gradient5" spreadMethod="pad" x1="-819.2" x2="819.2">
      <stop offset="0.00784313725490196" stop-color="#8e1c14"/>
      <stop offset="1.0" stop-color="#4f0000"/>
    </linearGradient>
    <linearGradient gradientTransform="matrix(-0.0105, 0.0023, -0.002, -0.0107, -58.1, -180.7)" gradientUnits="userSpaceOnUse" id="gradient6" spreadMethod="pad" x1="-819.2" x2="819.2">
      <stop offset="0.00784313725490196" stop-color="#b42219"/>
      <stop offset="1.0" stop-color="#6b0000"/>
    </linearGradient>
    <linearGradient gradientTransform="matrix(-0.0089, 0.0025, -0.0026, -0.0104, -73.65, -179.3)" gradientUnits="userSpaceOnUse" id="gradient7" spreadMethod="pad" x1="-819.2" x2="819.2">
      <stop offset="0.00784313725490196" stop-color="#b42219"/>
      <stop offset="1.0" stop-color="#6b0000"/>
    </linearGradient>
    <linearGradient gradientTransform="matrix(-2.0E-4, 0.0031, -0.0032, -2.0E-4, -60.7, -149.65)" gradientUnits="userSpaceOnUse" id="gradient8" spreadMethod="pad" x1="-819.2" x2="819.2">
      <stop offset="0.00784313725490196" stop-color="#981e16"/>
      <stop offset="1.0" stop-color="#560000"/>
    </linearGradient>
    <linearGradient gradientTransform="matrix(-6.0E-4, 0.0036, -0.0069, -0.001, -55.8, -144.4)" gradientUnits="userSpaceOnUse" id="gradient9" spreadMethod="pad" x1="-819.2" x2="819.2">
      <stop offset="0.00784313725490196" stop-color="#981e16"/>
      <stop offset="1.0" stop-color="#560000"/>
    </linearGradient>
    <linearGradient gradientTransform="matrix(-5.0E-4, 0.0036, -0.0083, -9.0E-4, -53.6, -136.85)" gradientUnits="userSpaceOnUse" id="gradient10" spreadMethod="pad" x1="-819.2" x2="819.2">
      <stop offset="0.00784313725490196" stop-color="#981e16"/>
      <stop offset="1.0" stop-color="#560000"/>
    </linearGradient>
    <linearGradient gradientTransform="matrix(-0.0026, 0.0059, -0.0041, -0.0016, -52.2, -127.85)" gradientUnits="userSpaceOnUse" id="gradient11" spreadMethod="pad" x1="-819.2" x2="819.2">
      <stop offset="0.00784313725490196" stop-color="#690300"/>
      <stop offset="1.0" stop-color="#380000"/>
    </linearGradient>
    <linearGradient gradientTransform="matrix(-0.0057, 0.0037, -0.0079, -0.0127, -88.05, -175.6)" gradientUnits="userSpaceOnUse" id="gradient12" spreadMethod="pad" x1="-819.2" x2="819.2">
      <stop offset="0.00784313725490196" stop-color="#b42219"/>
      <stop offset="1.0" stop-color="#6b0000"/>
    </linearGradient>
    <linearGradient gradientTransform="matrix(-0.0018, 0.0064, -0.0156, -0.0037, -97.15, -163.0)" gradientUnits="userSpaceOnUse" id="gradient13" spreadMethod="pad" x1="-819.2" x2="819.2">
      <stop offset="0.00784313725490196" stop-color="#870300"/>
      <stop offset="1.0" stop-color="#4d0000"/>
    </linearGradient>
    <linearGradient gradientTransform="matrix(-5.0E-4, 0.0059, -0.0101, -6.0E-4, -99.1, -148.65)" gradientUnits="userSpaceOnUse" id="gradient14" spreadMethod="pad" x1="-819.2" x2="819.2">
      <stop offset="0.00784313725490196" stop-color="#870300"/>
      <stop offset="1.0" stop-color="#4d0000"/>
    </linearGradient>
    <linearGradient gradientTransform="matrix(0.002, 0.004, -0.0078, 0.0042, -93.95, -137.5)" gradientUnits="userSpaceOnUse" id="gradient15" spreadMethod="pad" x1="-819.2" x2="819.2">
      <stop offset="0.00784313725490196" stop-color="#870300"/>
      <stop offset="1.0" stop-color="#4d0000"/>
    </linearGradient>
    <linearGradient gradientTransform="matrix(0.0042, 0.0028, -0.004, 0.0059, -85.6, -130.05)" gradientUnits="userSpaceOnUse" id="gradient16" spreadMethod="pad" x1="-819.2" x2="819.2">
      <stop offset="0.00784313725490196" stop-color="#870300"/>
      <stop offset="1.0" stop-color="#4d0000"/>
    </linearGradient>
  </defs>
</svg>
