<?xml version="1.0" encoding="UTF-8" standalone="no"?>
<svg xmlns:xlink="http://www.w3.org/1999/xlink" height="531.5px" width="460.6px" xmlns="http://www.w3.org/2000/svg">
  <g transform="matrix(1.0, 0.0, 0.0, 1.0, 193.65, 334.05)">
    <use height="35.45" transform="matrix(1.0, 0.0, 0.0, 1.0, -69.5, -179.1)" width="135.8" xlink:href="#shape0"/>
  </g>
  <defs>
    <g id="shape0" transform="matrix(1.0, 0.0, 0.0, 1.0, 69.5, 179.1)">
      <path d="M41.95 -167.25 Q51.3 -172.4 58.75 -173.8 65.75 -168.2 65.8 -162.65 L63.6 -162.65 Q63.95 -167.0 57.9 -171.2 49.6 -169.7 43.15 -164.6 40.3 -164.9 41.95 -167.25" fill="#666666" fill-rule="evenodd" stroke="none"/>
      <path d="M41.95 -167.25 Q40.3 -164.9 43.15 -164.6 49.6 -169.7 57.9 -171.2 63.95 -167.0 63.6 -162.65 L65.8 -162.65 Q65.75 -168.2 58.75 -173.8 51.3 -172.4 41.95 -167.25 Z" fill="none" stroke="#000000" stroke-linecap="round" stroke-linejoin="round" stroke-opacity="0.65882355" stroke-width="1.0"/>
      <path d="M35.3 -178.15 L35.75 -178.1 35.9 -178.1 37.8 -177.85 Q42.4 -176.95 45.9 -173.15 50.45 -168.15 50.45 -161.15 50.45 -154.1 45.9 -149.1 41.4 -144.3 35.3 -144.15 L34.65 -144.15 32.7 -144.25 30.7 -144.65 Q26.8 -145.75 23.7 -149.1 19.05 -154.1 19.05 -161.15 19.05 -168.15 23.7 -173.15 27.65 -177.45 32.95 -178.0 L34.8 -178.15 35.3 -178.15 M-7.65 -159.7 Q-8.1 -153.65 -12.6 -149.1 -17.4 -144.3 -24.1 -144.15 L-24.6 -144.15 -24.75 -144.15 -26.85 -144.25 -29.05 -144.65 Q-33.3 -145.75 -36.65 -149.1 -41.65 -154.1 -41.65 -161.15 -41.65 -168.15 -36.65 -173.15 -32.35 -177.45 -26.6 -178.0 L-24.6 -178.15 -24.4 -178.1 -24.15 -178.1 -24.05 -178.1 -23.45 -178.1 -21.35 -177.85 Q-16.4 -176.95 -12.6 -173.15 -9.45 -169.95 -8.25 -165.9 L-7.65 -162.75 -7.6 -161.15 -7.65 -159.7 M43.05 -166.95 L42.0 -165.2 Q40.6 -163.5 38.6 -163.5 36.6 -163.5 35.2 -165.2 33.8 -166.9 33.8 -169.2 33.8 -171.1 34.7 -172.6 31.0 -172.5 28.2 -169.3 25.5 -166.05 25.5 -161.45 25.5 -156.8 28.2 -153.55 31.05 -150.25 34.9 -150.25 38.7 -150.25 41.5 -153.55 44.25 -156.8 44.25 -161.45 44.25 -164.55 43.05 -166.95 M-25.7 -169.2 Q-25.7 -171.1 -24.7 -172.6 -28.75 -172.5 -31.75 -169.3 -34.65 -166.05 -34.65 -161.45 -34.65 -156.8 -31.75 -153.55 -28.7 -150.25 -24.5 -150.25 -20.35 -150.25 -17.35 -153.55 -14.35 -156.8 -14.35 -161.45 -14.35 -164.55 -15.65 -166.95 L-16.8 -165.2 Q-18.35 -163.5 -20.5 -163.5 -22.65 -163.5 -24.2 -165.2 -25.7 -166.9 -25.7 -169.2" fill="#d9ffff" fill-rule="evenodd" stroke="none"/>
      <path d="M43.05 -166.95 Q44.25 -164.55 44.25 -161.45 44.25 -156.8 41.5 -153.55 38.7 -150.25 34.9 -150.25 31.05 -150.25 28.2 -153.55 25.5 -156.8 25.5 -161.45 25.5 -166.05 28.2 -169.3 31.0 -172.5 34.7 -172.6 33.8 -171.1 33.8 -169.2 33.8 -166.9 35.2 -165.2 36.6 -163.5 38.6 -163.5 40.6 -163.5 42.0 -165.2 L43.05 -166.95 M-25.7 -169.2 Q-25.7 -166.9 -24.2 -165.2 -22.65 -163.5 -20.5 -163.5 -18.35 -163.5 -16.8 -165.2 L-15.65 -166.95 Q-14.35 -164.55 -14.35 -161.45 -14.35 -156.8 -17.35 -153.55 -20.35 -150.25 -24.5 -150.25 -28.7 -150.25 -31.75 -153.55 -34.65 -156.8 -34.65 -161.45 -34.65 -166.05 -31.75 -169.3 -28.75 -172.5 -24.7 -172.6 -25.7 -171.1 -25.7 -169.2" fill="#000000" fill-rule="evenodd" stroke="none"/>
      <path d="M32.7 -144.25 L28.25 -144.55 27.2 -144.6 Q21.75 -145.25 17.8 -149.55 13.95 -153.7 13.35 -159.15 L13.3 -159.45 14.2 -159.3 Q14.85 -160.95 14.9 -162.6 L14.45 -165.25 13.55 -165.45 Q14.5 -170.05 17.8 -173.6 22.4 -178.6 28.85 -178.6 L29.1 -178.6 29.35 -178.55 29.4 -178.55 29.6 -178.55 30.6 -178.5 34.8 -178.2 34.8 -178.15 32.95 -178.0 Q27.65 -177.45 23.7 -173.15 19.05 -168.15 19.05 -161.15 19.05 -154.1 23.7 -149.1 26.8 -145.75 30.7 -144.65 L32.7 -144.25 M-26.85 -144.25 L-31.7 -144.55 -32.85 -144.6 Q-38.7 -145.25 -43.05 -149.55 -48.05 -154.55 -48.05 -161.6 -48.05 -168.6 -43.05 -173.6 -38.05 -178.6 -31.05 -178.6 L-30.5 -178.55 -30.3 -178.55 -29.15 -178.5 -24.6 -178.2 -24.6 -178.15 -26.6 -178.0 Q-32.35 -177.45 -36.65 -173.15 -41.65 -168.15 -41.65 -161.15 -41.65 -154.1 -36.65 -149.1 -33.3 -145.75 -29.05 -144.65 L-26.85 -144.25" fill="#66ffff" fill-rule="evenodd" stroke="none"/>
      <path d="M9.9 -160.0 L9.7 -159.5 Q9.05 -158.25 7.7 -158.25 L5.75 -158.75 4.15 -159.7 1.25 -159.2 -1.4 -158.7 Q-2.0 -158.7 -2.6 -159.4 L-3.2 -160.3 -1.95 -160.4 -1.8 -160.45 -1.5 -161.2 Q-1.1 -162.55 -1.1 -163.6 L-1.1 -164.25 0.65 -164.35 9.05 -163.55 10.25 -163.4 10.25 -162.2 Q10.25 -160.9 9.9 -160.0 M6.0 -159.55 L4.7 -159.7 4.15 -159.7 4.7 -159.7 6.0 -159.55" fill="#e0b359" fill-rule="evenodd" stroke="none"/>
      <path d="M13.3 -159.45 L9.9 -160.0 Q10.25 -160.9 10.25 -162.2 L10.25 -163.4 14.9 -162.6 Q14.85 -160.95 14.2 -159.3 L13.3 -159.45 M-3.2 -160.3 L-7.65 -159.7 -7.6 -161.15 -7.65 -162.75 -4.05 -163.85 -1.1 -164.25 -1.1 -163.6 Q-1.1 -162.55 -1.5 -161.2 L-1.8 -160.45 -1.95 -160.4 -3.2 -160.3" fill="#4d4d4d" fill-rule="evenodd" stroke="none"/>
      <path d="M-8.25 -165.9 L-3.25 -166.75 -3.2 -166.75 -2.0 -166.9 -1.75 -166.3 -1.5 -165.75 -1.1 -164.25 -4.05 -163.85 -7.65 -162.75 -8.25 -165.9 M9.7 -166.35 L13.55 -165.45 14.45 -165.25 14.9 -162.6 10.25 -163.4 Q10.15 -165.1 9.7 -166.35" fill="#666666" fill-rule="evenodd" stroke="none"/>
      <path d="M3.45 -167.3 L4.3 -167.5 5.8 -167.65 8.0 -167.5 Q9.25 -167.6 9.55 -166.6 L9.7 -166.35 Q10.15 -165.1 10.25 -163.4 L9.05 -163.55 0.65 -164.35 -1.1 -164.25 -1.5 -165.75 -1.75 -166.3 -1.2 -166.2 0.9 -165.9 Q2.55 -165.9 3.45 -166.45 L4.15 -167.0 3.45 -167.3 M6.65 -165.9 Q5.8 -166.15 4.2 -166.95 L4.15 -167.0 4.2 -166.95 Q5.8 -166.15 6.65 -165.9" fill="#ffcc66" fill-rule="evenodd" stroke="none"/>
      <path d="M-3.2 -166.75 Q-3.2 -167.25 -2.8 -167.6 L-2.1 -167.85 -1.75 -167.8 -0.05 -168.2 Q1.8 -168.2 3.15 -167.5 L3.25 -167.45 3.45 -167.3 4.15 -167.0 3.45 -166.45 Q2.55 -165.9 0.9 -165.9 L-1.2 -166.2 -1.75 -166.3 -2.0 -166.9 -3.2 -166.75" fill="#ffedc7" fill-rule="evenodd" stroke="none"/>
      <path d="M35.3 -178.15 L35.75 -178.1 35.9 -178.1 37.8 -177.85 Q42.4 -176.95 45.9 -173.15 50.45 -168.15 50.45 -161.15 50.45 -154.1 45.9 -149.1 41.4 -144.3 35.3 -144.15 L34.65 -144.15 32.7 -144.25 28.25 -144.55 27.2 -144.6 Q21.75 -145.25 17.8 -149.55 13.95 -153.7 13.35 -159.15 L13.3 -159.45 9.9 -160.0 9.7 -159.5 Q9.05 -158.25 7.7 -158.25 L5.75 -158.75 4.15 -159.7 1.25 -159.2 -1.4 -158.7 Q-2.0 -158.7 -2.6 -159.4 L-3.2 -160.3 -7.65 -159.7 Q-8.1 -153.65 -12.6 -149.1 -17.4 -144.3 -24.1 -144.15 L-24.6 -144.15 -24.75 -144.15 -26.85 -144.25 -31.7 -144.55 -32.85 -144.6 Q-38.7 -145.25 -43.05 -149.55 -48.05 -154.55 -48.05 -161.6 -48.05 -168.6 -43.05 -173.6 -38.05 -178.6 -31.05 -178.6 L-30.5 -178.55 -30.3 -178.55 -29.15 -178.5 -24.6 -178.2 -24.55 -178.2 -24.4 -178.1 -24.15 -178.1 -24.05 -178.1 -23.45 -178.1 -21.35 -177.85 Q-16.4 -176.95 -12.6 -173.15 -9.45 -169.95 -8.25 -165.9 L-3.25 -166.75 -3.2 -166.75 Q-3.2 -167.25 -2.8 -167.6 L-2.1 -167.85 -1.75 -167.8 -0.05 -168.2 Q1.8 -168.2 3.15 -167.5 L3.25 -167.45 3.45 -167.3 4.3 -167.5 5.8 -167.65 8.0 -167.5 Q9.25 -167.6 9.55 -166.6 L9.7 -166.35 13.55 -165.45 Q14.5 -170.05 17.8 -173.6 22.4 -178.6 28.85 -178.6 L29.1 -178.6 29.35 -178.55 29.4 -178.55 29.6 -178.55 30.6 -178.5 34.8 -178.2 35.3 -178.15 34.8 -178.15 32.95 -178.0 Q27.65 -177.45 23.7 -173.15 19.05 -168.15 19.05 -161.15 19.05 -154.1 23.7 -149.1 26.8 -145.75 30.7 -144.65 L32.7 -144.25 M9.9 -160.0 Q10.25 -160.9 10.25 -162.2 L10.25 -163.4 Q10.15 -165.1 9.7 -166.35 M-1.1 -164.25 L-1.1 -163.6 Q-1.1 -162.55 -1.5 -161.2 L-1.8 -160.45 -1.95 -160.4 -3.2 -160.3 M14.9 -162.6 L14.45 -165.25 13.55 -165.45 M14.9 -162.6 Q14.85 -160.95 14.2 -159.3 L13.3 -159.45 M4.15 -167.0 L3.45 -167.3 M4.15 -167.0 L4.2 -166.95 Q5.8 -166.15 6.65 -165.9 M4.15 -159.7 L4.7 -159.7 6.0 -159.55 M-24.6 -178.15 L-24.4 -178.1 M-26.85 -144.25 L-29.05 -144.65 Q-33.3 -145.75 -36.65 -149.1 -41.65 -154.1 -41.65 -161.15 -41.65 -168.15 -36.65 -173.15 -32.35 -177.45 -26.6 -178.0 L-24.6 -178.15 M-8.25 -165.9 L-7.65 -162.75 -7.6 -161.15 -7.65 -159.7 M-1.1 -164.25 L-1.5 -165.75 -1.75 -166.3 -2.0 -166.9 -3.2 -166.75" fill="none" stroke="#000000" stroke-linecap="round" stroke-linejoin="round" stroke-opacity="0.65882355" stroke-width="1.0"/>
      <path d="M-46.35 -164.6 Q-52.8 -169.7 -61.1 -171.2 -67.15 -167.0 -66.8 -162.65 L-69.0 -162.65 Q-68.95 -168.2 -61.95 -173.8 -54.5 -172.4 -45.15 -167.25 -43.5 -164.9 -46.35 -164.6" fill="#666666" fill-rule="evenodd" stroke="none"/>
      <path d="M-46.35 -164.6 Q-52.8 -169.7 -61.1 -171.2 -67.15 -167.0 -66.8 -162.65 L-69.0 -162.65 Q-68.95 -168.2 -61.95 -173.8 -54.5 -172.4 -45.15 -167.25 -43.5 -164.9 -46.35 -164.6 Z" fill="none" stroke="#000000" stroke-linecap="round" stroke-linejoin="round" stroke-opacity="0.65882355" stroke-width="1.0"/>
    </g>
  </defs>
</svg>
