<?xml version="1.0" encoding="UTF-8" standalone="no"?>
<svg xmlns:xlink="http://www.w3.org/1999/xlink" height="531.5px" width="460.6px" xmlns="http://www.w3.org/2000/svg">
  <g transform="matrix(1.0, 0.0, 0.0, 1.0, 193.65, 334.05)">
    <use height="64.2" transform="matrix(1.0, 0.0, 0.0, 1.0, -65.7, -173.45)" width="126.65" xlink:href="#shape0"/>
  </g>
  <defs>
    <g id="shape0" transform="matrix(1.0, 0.0, 0.0, 1.0, 63.35, 32.1)">
      <path d="M-14.65 -7.15 Q-6.25 -0.45 -6.25 8.9 -6.25 18.3 -14.65 24.9 -23.0 31.55 -34.8 31.55 -46.6 31.55 -55.0 24.9 -63.35 18.3 -63.35 8.9 -63.35 -0.45 -55.0 -7.15 -46.6 -13.75 -34.8 -13.75 -23.0 -13.75 -14.65 -7.15" fill="url(#gradient0)" fill-rule="evenodd" stroke="none"/>
      <path d="M33.85 -27.05 Q44.9 -22.0 44.9 -14.9 44.9 -7.75 33.85 -2.75 22.9 2.3 7.45 2.3 -8.1 2.3 -19.1 -2.75 -30.0 -7.75 -30.0 -14.9 -30.0 -22.0 -19.1 -27.05 -8.1 -32.1 7.45 -32.1 22.9 -32.1 33.85 -27.05" fill="url(#gradient1)" fill-rule="evenodd" stroke="none"/>
      <path d="M58.9 -0.7 Q63.3 4.95 63.3 12.9 63.3 20.85 58.9 26.45 54.6 32.1 48.45 32.1 42.25 32.1 37.9 26.45 33.6 20.85 33.6 12.9 33.6 4.95 37.9 -0.7 42.25 -6.3 48.45 -6.3 54.6 -6.3 58.9 -0.7" fill="url(#gradient2)" fill-rule="evenodd" stroke="none"/>
      <path d="M14.65 -19.35 L16.4 -19.2 19.3 -19.1 Q25.45 -18.5 25.45 -15.55 25.45 -14.9 24.95 -14.55 24.45 -14.15 24.45 -13.75 24.45 -13.35 30.1 -12.4 35.75 -11.4 35.75 -10.2 35.75 -9.2 29.55 -8.9 L15.05 -8.55 -13.4 -7.65 Q-20.85 -7.65 -20.85 -10.5 -20.85 -12.0 -13.3 -13.2 L-3.95 -14.55 -3.95 -14.85 -7.05 -15.35 Q-9.45 -15.9 -9.45 -17.05 -9.45 -18.1 -6.15 -19.05 -2.6 -20.05 2.2 -20.05 L7.1 -19.75 12.6 -19.45 14.65 -19.35 6.15 -19.55 14.65 -19.35 M21.9 -15.5 Q22.75 -15.7 22.75 -16.4 22.75 -16.9 21.9 -17.4 L21.1 -17.9 20.25 -18.25 14.35 -18.25 14.35 -18.2 10.8 -17.65 Q8.75 -17.15 8.75 -16.15 8.75 -15.65 9.0 -15.45 L10.3 -14.95 16.1 -14.95 16.35 -15.0 18.85 -15.05 21.9 -15.5 M-28.9 2.45 L-27.45 2.65 Q-26.35 2.9 -26.35 3.35 L-26.45 4.25 -25.65 4.25 -24.35 3.8 -23.55 3.75 -21.75 4.15 Q-20.45 4.6 -20.45 5.1 -20.45 5.65 -27.7 10.3 -35.2 15.1 -38.95 16.75 L-45.4 19.65 Q-48.8 21.05 -51.0 21.05 L-52.35 20.95 Q-52.85 20.7 -52.85 19.85 -52.85 18.0 -48.05 15.35 -42.55 12.3 -41.95 11.45 L-42.05 11.35 Q-46.05 11.8 -46.05 10.6 -46.05 8.7 -40.4 6.0 -35.35 3.6 -31.35 3.0 -29.65 2.45 -28.9 2.45 M-23.8 6.75 Q-23.25 6.3 -23.25 5.85 -23.25 4.5 -24.75 4.95 -26.25 5.4 -26.25 6.25 -26.25 7.25 -25.25 7.25 -24.4 7.25 -23.8 6.75 M-37.8 8.45 L-32.7 7.0 -29.85 5.8 Q-28.65 5.2 -28.65 4.55 -28.65 3.15 -30.9 3.75 L-32.35 4.0 Q-33.2 4.15 -34.05 4.55 L-37.25 5.7 Q-39.25 6.55 -39.25 7.45 -39.25 8.45 -37.8 8.45 M48.4 5.9 L49.05 6.25 51.6 8.8 Q54.55 12.05 54.55 13.2 L54.5 13.55 53.95 13.85 Q55.9 15.45 57.05 17.3 58.15 19.1 58.15 20.45 58.15 21.05 57.55 21.05 56.3 21.05 53.05 18.9 L47.55 15.45 Q45.05 14.2 42.6 12.1 40.05 9.95 40.05 9.0 40.05 8.35 40.65 8.15 L42.25 7.95 Q43.2 7.95 44.2 8.4 L45.25 8.85 Q45.85 8.85 45.85 8.35 L45.35 7.35 Q44.85 6.55 44.85 6.1 44.85 5.15 45.75 5.15 46.8 5.15 48.4 5.9 M49.15 10.85 Q49.15 11.15 49.45 11.45 L50.35 12.25 51.2 13.0 Q51.9 13.55 52.45 13.55 53.45 13.55 53.45 12.55 53.45 12.05 52.9 11.6 L51.45 10.5 Q50.5 9.7 49.8 9.95 49.15 10.15 49.15 10.85" fill="#ffffcc" fill-rule="evenodd" stroke="none"/>
      <path d="M21.9 -15.5 L18.85 -15.05 16.35 -15.0 16.1 -14.95 10.3 -14.95 9.0 -15.45 Q8.75 -15.65 8.75 -16.15 8.75 -17.15 10.8 -17.65 L14.35 -18.2 14.35 -18.25 20.25 -18.25 21.1 -17.9 21.9 -17.4 Q22.75 -16.9 22.75 -16.4 22.75 -15.7 21.9 -15.5 M-37.8 8.45 Q-39.25 8.45 -39.25 7.45 -39.25 6.55 -37.25 5.7 L-34.05 4.55 Q-33.2 4.15 -32.35 4.0 L-30.9 3.75 Q-28.65 3.15 -28.65 4.55 -28.65 5.2 -29.85 5.8 L-32.7 7.0 -37.8 8.45 M-23.8 6.75 Q-24.4 7.25 -25.25 7.25 -26.25 7.25 -26.25 6.25 -26.25 5.4 -24.75 4.95 -23.25 4.5 -23.25 5.85 -23.25 6.3 -23.8 6.75 M49.15 10.85 Q49.15 10.15 49.8 9.95 50.5 9.7 51.45 10.5 L52.9 11.6 Q53.45 12.05 53.45 12.55 53.45 13.55 52.45 13.55 51.9 13.55 51.2 13.0 L50.35 12.25 49.45 11.45 Q49.15 11.15 49.15 10.85" fill="#ffffef" fill-rule="evenodd" stroke="none"/>
      <path d="M14.65 -19.35 L12.6 -19.45 7.1 -19.75 2.2 -20.05 Q-2.6 -20.05 -6.15 -19.05 -9.45 -18.1 -9.45 -17.05 -9.45 -15.9 -7.05 -15.35 L-3.95 -14.85 -3.95 -14.55 -13.3 -13.2 Q-20.85 -12.0 -20.85 -10.5 -20.85 -7.65 -13.4 -7.65 L15.05 -8.55 29.55 -8.9 Q35.75 -9.2 35.75 -10.2 35.75 -11.4 30.1 -12.4 24.45 -13.35 24.45 -13.75 24.45 -14.15 24.95 -14.55 25.45 -14.9 25.45 -15.55 25.45 -18.5 19.3 -19.1 L16.4 -19.2 14.65 -19.35 6.15 -19.55 M19.3 -19.1 L19.2 -19.1 14.65 -19.35 M-28.9 2.45 Q-29.65 2.45 -31.35 3.0 -35.35 3.6 -40.4 6.0 -46.05 8.7 -46.05 10.6 -46.05 11.8 -42.05 11.35 L-41.95 11.45 Q-42.55 12.3 -48.05 15.35 -52.85 18.0 -52.85 19.85 -52.85 20.7 -52.35 20.95 L-51.0 21.05 Q-48.8 21.05 -45.4 19.65 L-38.95 16.75 Q-35.2 15.1 -27.7 10.3 -20.45 5.65 -20.45 5.1 -20.45 4.6 -21.75 4.15 L-23.55 3.75 -24.35 3.8 -25.65 4.25 -26.45 4.25 -26.35 3.35 Q-26.35 2.9 -27.45 2.65 L-28.9 2.45 M48.4 5.9 Q46.8 5.15 45.75 5.15 44.85 5.15 44.85 6.1 44.85 6.55 45.35 7.35 L45.85 8.35 Q45.85 8.85 45.25 8.85 L44.2 8.4 Q43.2 7.95 42.25 7.95 L40.65 8.15 Q40.05 8.35 40.05 9.0 40.05 9.95 42.6 12.1 45.05 14.2 47.55 15.45 L53.05 18.9 Q56.3 21.05 57.55 21.05 58.15 21.05 58.15 20.45 58.15 19.1 57.05 17.3 55.9 15.45 53.95 13.85 L54.5 13.55 54.55 13.2 Q54.55 12.05 51.6 8.8 L49.05 6.25 48.4 5.9" fill="none" stroke="#000000" stroke-linecap="round" stroke-linejoin="round" stroke-opacity="0.101960786" stroke-width="1.0"/>
    </g>
    <radialGradient cx="0" cy="0" gradientTransform="matrix(0.0299, 0.0, 0.0, 0.0237, -34.8, 8.9)" gradientUnits="userSpaceOnUse" id="gradient0" r="819.2" spreadMethod="pad">
      <stop offset="0.0" stop-color="#e50000" stop-opacity="0.49019608"/>
      <stop offset="1.0" stop-color="#ff3333" stop-opacity="0.0"/>
    </radialGradient>
    <radialGradient cx="0" cy="0" gradientTransform="matrix(0.0392, 0.0, 0.0, 0.018, 7.45, -14.9)" gradientUnits="userSpaceOnUse" id="gradient1" r="819.2" spreadMethod="pad">
      <stop offset="0.0" stop-color="#e50000" stop-opacity="0.49019608"/>
      <stop offset="1.0" stop-color="#ff3f3f" stop-opacity="0.0"/>
    </radialGradient>
    <radialGradient cx="0" cy="0" gradientTransform="matrix(0.0155, 0.0, 0.0, 0.0201, 48.45, 12.9)" gradientUnits="userSpaceOnUse" id="gradient2" r="819.2" spreadMethod="pad">
      <stop offset="0.0" stop-color="#e50000" stop-opacity="0.49019608"/>
      <stop offset="1.0" stop-color="#ff2323" stop-opacity="0.0"/>
    </radialGradient>
  </defs>
</svg>
