<?xml version="1.0" encoding="UTF-8" standalone="no"?>
<svg xmlns:xlink="http://www.w3.org/1999/xlink" height="531.5px" width="460.6px" xmlns="http://www.w3.org/2000/svg">
  <g transform="matrix(1.0, 0.0, 0.0, 1.0, 193.65, 334.05)">
    <use height="58.7" transform="matrix(1.0, 0.0, 0.0, 1.0, -86.35, -238.1)" width="165.2" xlink:href="#shape0"/>
  </g>
  <defs>
    <g id="shape0" transform="matrix(1.0, 0.0, 0.0, 1.0, 86.35, 238.1)">
      <path d="M-2.75 -226.6 L0.1 -229.25 0.25 -229.35 Q2.15 -225.35 2.95 -221.0 L3.45 -217.2 3.35 -217.15 3.1 -217.05 0.9 -217.55 Q0.0 -222.5 -2.75 -226.6" fill="#472300" fill-rule="evenodd" stroke="none"/>
      <path d="M0.25 -229.35 L0.1 -229.25 -2.75 -226.6 Q-5.6 -230.75 -10.2 -234.1 L-5.35 -237.6 Q-1.9 -233.7 0.25 -229.35" fill="#663300" fill-rule="evenodd" stroke="none"/>
      <path d="M20.15 -218.2 Q19.8 -216.7 16.95 -214.85 13.65 -212.8 10.2 -212.8 7.85 -212.8 6.85 -213.6 5.85 -214.45 5.7 -216.15 L5.7 -216.7 Q5.7 -217.65 6.2 -218.45 10.6 -220.25 15.15 -219.95 18.05 -219.55 20.15 -218.2 M10.05 -214.7 L5.7 -216.15 10.05 -214.7" fill="#ff1c1c" fill-rule="evenodd" stroke="none"/>
      <path d="M0.9 -217.55 L3.1 -217.05 3.35 -217.15 3.45 -217.05 3.45 -216.95 5.7 -216.15 3.45 -216.95 3.45 -217.05 3.45 -217.2 6.2 -218.45 Q5.7 -217.65 5.7 -216.7 L5.7 -216.15 Q5.85 -214.45 6.85 -213.6 7.85 -212.8 10.2 -212.8 13.65 -212.8 16.95 -214.85 19.8 -216.7 20.15 -218.2 21.75 -217.2 22.8 -215.65 L24.15 -213.35 17.3 -212.05 16.9 -214.1 17.3 -212.05 17.95 -208.25 25.15 -209.75 Q25.5 -207.6 25.5 -205.0 25.4 -200.0 24.35 -195.75 19.05 -193.9 14.45 -193.9 1.1 -193.9 -6.1 -201.15 -11.95 -206.95 -11.95 -214.55 L-11.7 -217.95 0.9 -217.55 M19.0 -202.75 L17.95 -208.25 19.0 -202.75 M16.55 -202.4 L16.9 -203.85 16.55 -202.4" fill="#cc0000" fill-rule="evenodd" stroke="none"/>
      <path d="M17.3 -212.05 L24.15 -213.35 53.1 -219.15 55.1 -219.55 57.45 -218.2 55.75 -216.2 53.85 -215.8 25.15 -209.75 17.95 -208.25 17.3 -212.05 M-35.95 -197.05 L-48.35 -194.45 -54.75 -193.15 -53.45 -195.8 -55.75 -197.5 -49.75 -198.65 -34.55 -201.65 Q-35.8 -199.3 -35.95 -197.05" fill="#a36d37" fill-rule="evenodd" stroke="none"/>
      <path d="M53.85 -215.8 L55.75 -216.2 57.45 -218.2 78.35 -222.55 60.7 -205.95 53.85 -215.8" fill="#757575" fill-rule="evenodd" stroke="none"/>
      <path d="M57.45 -218.2 L55.1 -219.55 53.1 -219.15 53.4 -231.1 78.35 -222.55 57.45 -218.2" fill="#a8a8a8" fill-rule="evenodd" stroke="none"/>
      <path d="M24.35 -195.75 L22.9 -191.95 Q20.65 -187.05 16.55 -183.5 4.75 -178.15 -8.1 -180.7 -21.0 -184.85 -24.15 -195.55 -24.6 -197.55 -24.65 -199.4 -24.85 -201.65 -24.5 -203.65 -23.6 -210.95 -17.75 -216.05 -14.9 -217.4 -11.7 -217.95 L-11.95 -214.55 Q-11.95 -206.95 -6.1 -201.15 1.1 -193.9 14.45 -193.9 19.05 -193.9 24.35 -195.75 M-14.8 -207.95 L-14.05 -210.0 -14.8 -207.95 M-19.75 -206.95 L-19.3 -208.5 -19.75 -206.95 M-15.7 -210.85 L-12.7 -214.3 -15.7 -210.85" fill="#9e0000" fill-rule="evenodd" stroke="none"/>
      <path d="M-68.25 -192.15 L-85.85 -197.25 -59.85 -202.75 -49.75 -198.65 -55.75 -197.5 -53.45 -195.8 -68.25 -192.15" fill="#e3c488" fill-rule="evenodd" stroke="none"/>
      <path d="M-24.65 -199.4 L-35.95 -197.05 Q-35.8 -199.3 -34.55 -201.65 L-24.5 -203.65 Q-24.85 -201.65 -24.65 -199.4" fill="#754e27" fill-rule="evenodd" stroke="none"/>
      <path d="M-48.35 -194.45 L-54.45 -187.3 -82.45 -180.45 -68.25 -192.15 -53.45 -195.8 -54.75 -193.15 -48.35 -194.45" fill="#baa16f" fill-rule="evenodd" stroke="none"/>
      <path d="M-2.75 -226.6 Q0.0 -222.5 0.9 -217.55 L3.1 -217.05 3.35 -217.15 3.45 -217.2 2.95 -221.0 Q2.15 -225.35 0.25 -229.35 -1.9 -233.7 -5.35 -237.6 L-10.2 -234.1 Q-5.6 -230.75 -2.75 -226.6 M5.7 -216.15 L3.45 -216.95 3.45 -217.05 3.45 -217.2 6.2 -218.45 Q10.6 -220.25 15.15 -219.95 18.05 -219.55 20.15 -218.2 21.75 -217.2 22.8 -215.65 L24.15 -213.35 17.3 -212.05 17.95 -208.25 25.15 -209.75 53.85 -215.8 55.75 -216.2 57.45 -218.2 55.1 -219.55 53.1 -219.15 24.15 -213.35 M16.9 -214.1 L17.3 -212.05 M5.7 -216.15 L10.05 -214.7 M16.9 -203.85 L16.55 -202.4 M17.95 -208.25 L19.0 -202.75 M25.15 -209.75 Q25.5 -207.6 25.5 -205.0 25.4 -200.0 24.35 -195.75 L22.9 -191.95 Q20.65 -187.05 16.55 -183.5 4.75 -178.15 -8.1 -180.7 -21.0 -184.85 -24.15 -195.55 -24.6 -197.55 -24.65 -199.4 L-35.95 -197.05 -48.35 -194.45 -54.45 -187.3 -82.45 -180.45 -68.25 -192.15 -85.85 -197.25 -59.85 -202.75 -49.75 -198.65 -34.55 -201.65 -24.5 -203.65 Q-23.6 -210.95 -17.75 -216.05 -14.9 -217.4 -11.7 -217.95 L0.9 -217.55 M78.35 -222.55 L60.7 -205.95 53.85 -215.8 M53.1 -219.15 L53.4 -231.1 78.35 -222.55 M-24.5 -203.65 Q-24.85 -201.65 -24.65 -199.4 M-12.7 -214.3 L-15.7 -210.85 M-19.3 -208.5 L-19.75 -206.95 M-14.05 -210.0 L-14.8 -207.95 M-53.45 -195.8 L-68.25 -192.15 M-53.45 -195.8 L-55.75 -197.5 -49.75 -198.65 M-48.35 -194.45 L-54.75 -193.15 -53.45 -195.8" fill="none" stroke="#000000" stroke-linecap="round" stroke-linejoin="round" stroke-opacity="0.5019608" stroke-width="1.0"/>
    </g>
  </defs>
</svg>
