<?xml version="1.0" encoding="UTF-8" standalone="no"?>
<svg xmlns:xlink="http://www.w3.org/1999/xlink" height="531.5px" width="460.6px" xmlns="http://www.w3.org/2000/svg">
  <g transform="matrix(1.0, 0.0, 0.0, 1.0, 193.65, 334.05)">
    <use height="86.3" transform="matrix(1.0, 0.0, 0.0, 1.0, -76.85, -32.1)" width="142.7" xlink:href="#shape0"/>
  </g>
  <defs>
    <g id="shape0" transform="matrix(1.0, 0.0, 0.0, 1.0, 76.85, 32.1)">
      <path d="M64.4 -20.15 L64.05 -19.75 Q60.85 -16.1 55.1 -10.8 50.55 -6.55 43.9 -1.9 L37.95 2.15 37.95 2.3 Q39.25 1.6 42.35 1.3 45.3 0.4 49.75 -1.9 L55.35 -5.1 55.8 -5.35 41.65 5.05 Q36.4 8.7 33.9 11.1 L32.55 12.65 Q31.35 14.1 30.9 15.9 L29.45 24.0 25.4 44.5 Q21.35 37.6 18.5 29.25 L18.35 28.75 18.0 30.8 10.65 52.25 8.6 51.1 7.55 42.6 5.75 50.75 2.3 48.25 -2.3 39.25 -2.65 40.6 -2.25 31.4 -2.5 27.95 Q-2.75 25.4 -3.1 24.85 -4.55 26.85 -5.75 32.45 -7.25 39.3 -7.4 49.3 -9.1 48.35 -11.6 41.75 -15.4 31.05 -20.55 11.25 L-20.55 11.1 -20.65 10.9 -20.65 11.1 -20.65 11.25 Q-21.5 22.35 -23.0 29.95 -30.55 20.65 -39.25 11.25 L-39.4 11.1 -43.45 6.8 -44.35 6.25 -45.0 5.9 Q-46.55 4.2 -48.3 3.1 L-56.3 -2.45 Q-61.05 -6.05 -62.85 -7.85 -65.25 -10.15 -65.6 -11.9 -61.45 -9.9 -57.05 -8.55 L-51.4 -6.4 -49.05 -5.6 Q-48.7 -5.6 -48.65 -5.8 L-48.8 -5.8 -54.9 -9.55 Q-60.7 -13.1 -63.55 -15.75 L-68.1 -19.55 Q-70.35 -22.65 -70.35 -25.25 L-69.45 -28.7 -69.3 -29.3 Q-69.65 -26.45 -68.7 -24.1 -56.8 -19.05 -44.35 -15.1 -31.0 -11.05 -17.05 -8.3 -1.1 -5.25 15.75 -4.05 37.1 -5.35 58.0 -20.15 59.5 -23.15 59.5 -26.25 62.65 -23.1 64.4 -20.15 M3.55 14.6 L12.15 11.1 15.0 9.9 Q21.5 7.2 29.95 3.1 16.55 6.25 8.95 6.25 1.55 6.25 -7.05 4.7 L-8.35 4.45 -7.3 5.15 -11.7 3.75 -7.3 5.15 -5.6 6.35 Q-2.3 8.7 0.25 11.1 L3.55 14.6 -2.05 16.6 3.55 14.6 M-28.75 5.3 L-26.1 5.9 Q-21.95 6.7 -19.1 5.5 L-47.5 -5.2 -28.75 5.3" fill="url(#gradient0)" fill-rule="evenodd" stroke="none"/>
      <path d="M25.4 44.5 L29.45 24.0 30.9 15.9 Q31.35 14.1 32.55 12.65 L33.9 11.1 Q36.4 8.7 41.65 5.05 L55.8 -5.35 55.35 -5.1 49.75 -1.9 Q45.3 0.4 42.35 1.3 39.25 1.6 37.95 2.3 L37.95 2.15 43.9 -1.9 Q50.55 -6.55 55.1 -10.8 60.85 -16.1 64.05 -19.75 L64.4 -20.15 65.6 -17.65 Q64.4 -12.75 61.2 -9.9 63.7 -6.55 63.45 -3.9 57.75 4.9 47.6 10.15 L44.35 13.85 37.1 26.75 Q35.65 21.05 34.6 14.25 33.55 29.15 31.0 38.7 28.5 48.25 25.9 45.35 L25.4 44.5 M58.55 -7.6 L61.2 -9.9 58.55 -7.6 M15.0 9.9 L12.15 11.1 3.55 14.6 0.25 11.1 Q-2.3 8.7 -5.6 6.35 L-7.3 5.15 -8.35 4.45 -7.05 4.7 Q1.55 6.25 8.95 6.25 16.55 6.25 29.95 3.1 21.5 7.2 15.0 9.9 3.25 8.25 -7.3 5.15 3.25 8.25 15.0 9.9" fill="url(#gradient1)" fill-rule="evenodd" stroke="none"/>
      <path d="M-7.4 49.3 Q-7.25 39.3 -5.75 32.45 -4.55 26.85 -3.1 24.85 -2.75 25.4 -2.5 27.95 L-2.25 31.4 -2.65 40.6 Q-3.95 44.75 -5.7 48.35 -6.45 49.9 -7.4 49.3 M10.65 52.25 L18.0 30.8 14.05 53.95 10.65 52.25" fill="#6e451d" fill-rule="evenodd" stroke="none"/>
      <path d="M-69.3 -29.3 L-69.45 -28.7 -70.35 -25.25 Q-70.35 -22.65 -68.1 -19.55 L-63.55 -15.75 Q-60.7 -13.1 -54.9 -9.55 L-48.8 -5.8 -48.65 -5.8 Q-48.7 -5.6 -49.05 -5.6 L-51.4 -6.4 -57.05 -8.55 Q-61.45 -9.9 -65.6 -11.9 -65.25 -10.15 -62.85 -7.85 -61.05 -6.05 -56.3 -2.45 L-48.3 3.1 Q-46.55 4.2 -45.0 5.9 -56.05 -0.45 -70.95 -4.5 -73.7 -7.05 -74.7 -9.55 -75.05 -13.2 -73.1 -16.1 -75.75 -19.2 -76.6 -23.45 L-75.3 -25.65 Q-73.15 -28.85 -68.7 -31.85 L-69.3 -29.3 M-65.6 -11.9 L-73.1 -16.1 -65.6 -11.9 M-28.75 5.3 L-47.5 -5.2 -19.1 5.5 Q-21.95 6.7 -26.1 5.9 L-28.75 5.3" fill="#633b16" fill-rule="evenodd" stroke="none"/>
      <path d="M64.4 -20.15 Q62.65 -23.1 59.5 -26.25 59.5 -23.15 58.0 -20.15 37.1 -5.35 15.75 -4.05 -1.1 -5.25 -17.05 -8.3 -31.0 -11.05 -44.35 -15.1 -56.8 -19.05 -68.7 -24.1 -69.65 -26.45 -69.3 -29.3 L-68.7 -31.85 Q-73.15 -28.85 -75.3 -25.65 L-76.6 -23.45 Q-75.75 -19.2 -73.1 -16.1 L-65.6 -11.9 Q-61.45 -9.9 -57.05 -8.55 M-45.0 5.9 L-44.35 6.25 -43.45 6.8 -39.4 11.1 -39.25 11.25 Q-30.55 20.65 -23.0 29.95 -21.5 22.35 -20.65 11.25 L-20.65 11.1 -20.65 10.9 -20.55 11.1 -20.55 11.25 Q-15.4 31.05 -11.6 41.75 -9.1 48.35 -7.4 49.3 -6.45 49.9 -5.7 48.35 -3.95 44.75 -2.65 40.6 L-2.3 39.25 2.3 48.25 5.75 50.75 7.55 42.6 8.6 51.1 10.65 52.25 14.05 53.95 18.0 30.8 18.35 28.75 18.5 29.25 Q21.35 37.6 25.4 44.5 L25.9 45.35 Q28.5 48.25 31.0 38.7 33.55 29.15 34.6 14.25 35.65 21.05 37.1 26.75 L44.35 13.85 47.6 10.15 Q57.75 4.9 63.45 -3.9 63.7 -6.55 61.2 -9.9 L58.55 -7.6 M64.4 -20.15 L65.6 -17.65 Q64.4 -12.75 61.2 -9.9 M-45.0 5.9 Q-56.05 -0.45 -70.95 -4.5 -73.7 -7.05 -74.7 -9.55 -75.05 -13.2 -73.1 -16.1" fill="none" stroke="#000000" stroke-linecap="round" stroke-linejoin="round" stroke-opacity="0.4" stroke-width="0.5"/>
      <path d="M3.55 14.6 L12.15 11.1 15.0 9.9 Q3.25 8.25 -7.3 5.15 L-11.7 3.75 M3.55 14.6 L-2.05 16.6 M29.95 3.1 Q21.5 7.2 15.0 9.9" fill="none" stroke="#000000" stroke-linecap="round" stroke-linejoin="round" stroke-opacity="0.2" stroke-width="0.5"/>
    </g>
    <linearGradient gradientTransform="matrix(0.0822, 0.0, 0.0, 0.0498, -2.95, 11.45)" gradientUnits="userSpaceOnUse" id="gradient0" spreadMethod="pad" x1="-819.2" x2="819.2">
      <stop offset="0.0" stop-color="#734a21"/>
      <stop offset="1.0" stop-color="#8f5e2d"/>
    </linearGradient>
    <linearGradient gradientTransform="matrix(-0.0343, 0.0029, -0.0033, -0.0402, 37.95, 11.5)" gradientUnits="userSpaceOnUse" id="gradient1" spreadMethod="pad" x1="-819.2" x2="819.2">
      <stop offset="0.0" stop-color="#8f5e2d"/>
      <stop offset="1.0" stop-color="#6e451d"/>
    </linearGradient>
  </defs>
</svg>
