<?xml version="1.0" encoding="UTF-8" standalone="no"?>
<svg xmlns:xlink="http://www.w3.org/1999/xlink" height="531.5px" width="460.6px" xmlns="http://www.w3.org/2000/svg">
  <g transform="matrix(1.0, 0.0, 0.0, 1.0, 193.65, 334.05)">
    <use height="42.4" transform="matrix(1.665, 0.0, 0.0, 1.665, -70.3163, -44.5663)" width="80.75" xlink:href="#shape0"/>
  </g>
  <defs>
    <g id="shape0" transform="matrix(1.0, 0.0, 0.0, 1.0, 0.25, 0.25)">
      <path d="M0.5 14.7 Q-0.2 11.55 0.85 8.7 40.6 13.3 79.85 13.75 80.8 16.95 79.45 21.3 80.65 24.05 77.7 27.9 41.3 29.45 1.0 21.0 -0.75 18.15 0.5 14.7" fill="url(#gradient0)" fill-rule="evenodd" stroke="none"/>
      <path d="M0.5 14.7 Q-0.2 11.55 0.85 8.7 40.6 13.3 79.85 13.75 80.8 16.95 79.45 21.3 80.65 24.05 77.7 27.9 41.3 29.45 1.0 21.0 -0.75 18.15 0.5 14.7 Z" fill="none" stroke="#000000" stroke-linecap="round" stroke-linejoin="round" stroke-opacity="0.3019608" stroke-width="0.5"/>
      <path d="M26.5 10.3 Q25.75 7.65 23.9 5.9 25.65 2.55 29.7 2.05 L31.05 1.95 Q31.65 4.6 30.55 6.5 L29.9 6.55 Q27.4 7.0 26.5 10.3 M26.75 36.2 L26.75 37.1 Q24.7 37.85 22.65 36.7 L22.65 33.5 Q25.05 34.75 26.75 36.2 M33.4 9.05 Q35.5 8.2 36.2 5.2 37.45 7.55 37.75 11.55 35.9 12.75 34.05 12.1 L33.4 9.05" fill="#ff0000" fill-rule="evenodd" stroke="none"/>
      <path d="M26.2 18.5 Q24.8 15.35 22.65 14.55 L22.65 10.3 Q22.95 7.7 23.9 5.9 25.75 7.65 26.5 10.3 26.2 11.45 26.05 12.9 L26.2 18.5 M22.65 24.6 Q24.75 25.65 26.5 28.15 L26.75 36.2 Q25.05 34.75 22.65 33.5 L22.65 24.6 M30.55 6.5 Q31.65 4.6 31.05 1.95 34.5 2.0 36.2 5.2 35.5 8.2 33.4 9.05 32.45 6.45 30.55 6.5" fill="#ffffff" fill-rule="evenodd" stroke="none"/>
      <path d="M22.65 14.55 Q24.8 15.35 26.2 18.5 L26.5 28.15 Q24.75 25.65 22.65 24.6 L22.65 14.55" fill="#c10000" fill-rule="evenodd" stroke="none"/>
      <path d="M22.65 14.55 Q24.8 15.35 26.2 18.5 L26.05 12.9 Q26.2 11.45 26.5 10.3 25.75 7.65 23.9 5.9 22.95 7.7 22.65 10.3 L22.65 14.55 22.65 24.6 Q24.75 25.65 26.5 28.15 L26.2 18.5 M26.75 36.2 L26.75 37.1 Q24.7 37.85 22.65 36.7 L22.65 33.5 22.65 24.6 M26.5 28.15 L26.75 36.2 Q25.05 34.75 22.65 33.5 M26.5 10.3 Q27.4 7.0 29.9 6.55 L30.55 6.5 Q31.65 4.6 31.05 1.95 L29.7 2.05 Q25.65 2.55 23.9 5.9 M36.2 5.2 Q35.5 8.2 33.4 9.05 L34.05 12.1 Q35.9 12.75 37.75 11.55 37.45 7.55 36.2 5.2 34.5 2.0 31.05 1.95 M33.4 9.05 Q32.45 6.45 30.55 6.5" fill="none" stroke="#000000" stroke-linecap="round" stroke-linejoin="round" stroke-opacity="0.3019608" stroke-width="0.5"/>
      <path d="M12.0 8.85 Q10.95 6.25 8.95 4.7 10.35 1.2 14.3 0.3 L15.65 0.05 Q16.5 2.6 15.6 4.6 L14.95 4.7 Q12.5 5.45 12.0 8.85 M21.1 2.7 Q22.55 4.95 23.3 8.9 21.6 10.3 19.7 9.85 L18.7 6.85 Q20.75 5.8 21.1 2.7 M10.55 32.3 Q13.1 33.3 14.95 34.55 L15.05 35.45 Q13.05 36.4 10.9 35.5 L10.55 32.3" fill="#ff0000" fill-rule="evenodd" stroke="none"/>
      <path d="M8.6 13.45 L8.15 9.25 Q8.2 6.6 8.95 4.7 10.95 6.25 12.0 8.85 L11.8 11.5 12.55 17.0 Q10.8 14.0 8.6 13.45 M15.65 0.05 Q19.1 -0.25 21.1 2.7 20.75 5.8 18.7 6.85 17.5 4.35 15.6 4.6 16.5 2.6 15.65 0.05 M10.55 32.3 L9.65 23.45 Q11.85 24.25 13.85 26.6 L14.95 34.55 Q13.1 33.3 10.55 32.3" fill="#ffffff" fill-rule="evenodd" stroke="none"/>
      <path d="M8.6 13.45 Q10.8 14.0 12.55 17.0 L13.85 26.6 Q11.85 24.25 9.65 23.45 L8.6 13.45" fill="#c10000" fill-rule="evenodd" stroke="none"/>
      <path d="M8.95 4.7 Q8.2 6.6 8.15 9.25 L8.6 13.45 Q10.8 14.0 12.55 17.0 L11.8 11.5 12.0 8.85 Q10.95 6.25 8.95 4.7 10.35 1.2 14.3 0.3 L15.65 0.05 Q19.1 -0.25 21.1 2.7 22.55 4.95 23.3 8.9 21.6 10.3 19.7 9.85 L18.7 6.85 Q17.5 4.35 15.6 4.6 L14.95 4.7 Q12.5 5.45 12.0 8.85 M9.65 23.45 L10.55 32.3 Q13.1 33.3 14.95 34.55 L13.85 26.6 Q11.85 24.25 9.65 23.45 L8.6 13.45 M10.55 32.3 L10.9 35.5 Q13.05 36.4 15.05 35.45 L14.95 34.55 M13.85 26.6 L12.55 17.0 M21.1 2.7 Q20.75 5.8 18.7 6.85 M15.6 4.6 Q16.5 2.6 15.65 0.05" fill="none" stroke="#000000" stroke-linecap="round" stroke-linejoin="round" stroke-opacity="0.3019608" stroke-width="0.5"/>
      <path d="M74.45 9.7 Q75.45 7.1 77.4 5.6 76.15 2.1 72.4 1.15 L71.15 0.9 Q70.3 3.5 71.1 5.5 L71.75 5.65 Q74.0 6.35 74.45 9.7 M66.0 3.6 Q64.5 5.8 63.8 9.75 65.4 11.15 67.2 10.7 L68.15 7.7 Q66.3 6.65 66.0 3.6 M75.45 33.15 Q73.05 34.15 71.35 35.4 L71.25 36.3 Q73.05 37.3 75.05 36.35 L75.45 33.15" fill="#ff0000" fill-rule="evenodd" stroke="none"/>
      <path d="M77.6 14.35 L78.05 10.1 Q78.1 7.45 77.4 5.6 75.45 7.1 74.45 9.7 L74.6 12.35 73.85 17.9 Q75.5 14.9 77.6 14.35 M71.15 0.9 Q67.9 0.6 66.0 3.6 66.3 6.65 68.15 7.7 69.35 5.25 71.1 5.5 70.3 3.5 71.15 0.9 M75.45 33.15 L76.45 24.3 Q74.35 25.15 72.45 27.45 L71.35 35.4 Q73.05 34.15 75.45 33.15" fill="#ffffff" fill-rule="evenodd" stroke="none"/>
      <path d="M77.6 14.35 Q75.5 14.9 73.85 17.9 L72.45 27.45 Q74.35 25.15 76.45 24.3 L77.6 14.35" fill="#c10000" fill-rule="evenodd" stroke="none"/>
      <path d="M77.4 5.6 Q78.1 7.45 78.05 10.1 L77.6 14.35 Q75.5 14.9 73.85 17.9 L74.6 12.35 74.45 9.7 Q75.45 7.1 77.4 5.6 76.15 2.1 72.4 1.15 L71.15 0.9 Q67.9 0.6 66.0 3.6 64.5 5.8 63.8 9.75 65.4 11.15 67.2 10.7 L68.15 7.7 Q69.35 5.25 71.1 5.5 L71.75 5.65 Q74.0 6.35 74.45 9.7 M76.45 24.3 L75.45 33.15 Q73.05 34.15 71.35 35.4 L72.45 27.45 Q74.35 25.15 76.45 24.3 L77.6 14.35 M75.45 33.15 L75.05 36.35 Q73.05 37.3 71.25 36.3 L71.35 35.4 M72.45 27.45 L73.85 17.9 M68.15 7.7 Q66.3 6.65 66.0 3.6 M71.1 5.5 Q70.3 3.5 71.15 0.9" fill="none" stroke="#000000" stroke-linecap="round" stroke-linejoin="round" stroke-opacity="0.3019608" stroke-width="0.5"/>
      <path d="M71.55 23.85 L71.55 17.35 78.25 17.3 78.25 23.8 Q75.15 24.15 71.55 23.85" fill="#995600" fill-rule="evenodd" stroke="none"/>
      <path d="M71.55 17.35 L78.25 17.3 M78.25 23.8 Q75.15 24.15 71.55 23.85" fill="none" stroke="#000000" stroke-linecap="round" stroke-linejoin="round" stroke-opacity="0.3019608" stroke-width="0.5"/>
      <path d="M71.65 7.25 Q71.95 9.95 70.65 11.7 L70.0 11.7 Q67.45 11.85 66.2 15.05 65.75 12.35 64.1 10.4 66.2 7.25 70.3 7.2 L71.65 7.25 M73.15 14.55 Q75.35 13.95 76.4 11.0 77.4 13.5 77.25 17.55 L73.5 17.7 73.15 14.55 M63.65 40.85 L63.55 41.75 Q61.4 42.25 59.5 40.9 L59.85 37.7 Q62.1 39.2 63.65 40.85" fill="#ff0000" fill-rule="evenodd" stroke="none"/>
      <path d="M71.65 7.25 Q75.05 7.7 76.4 11.0 75.35 13.95 73.15 14.55 72.55 11.85 70.65 11.7 71.95 9.95 71.65 7.25 M64.1 10.4 Q65.75 12.35 66.2 15.05 65.75 16.2 65.45 17.6 L65.0 23.2 Q63.95 19.9 61.95 18.85 L62.4 14.65 Q62.95 12.1 64.1 10.4 M64.25 32.8 L63.65 40.85 Q62.1 39.2 59.85 37.7 L60.85 28.85 Q62.75 30.15 64.25 32.8" fill="#ffffff" fill-rule="evenodd" stroke="none"/>
      <path d="M65.0 23.2 L64.25 32.8 Q62.75 30.15 60.85 28.85 L61.95 18.85 Q63.95 19.9 65.0 23.2" fill="#c10000" fill-rule="evenodd" stroke="none"/>
      <path d="M76.4 11.0 Q75.05 7.7 71.65 7.25 71.95 9.95 70.65 11.7 72.55 11.85 73.15 14.55 75.35 13.95 76.4 11.0 77.4 13.5 77.25 17.55 L73.5 17.7 73.15 14.55 M66.2 15.05 Q67.45 11.85 70.0 11.7 L70.65 11.7 M71.65 7.25 L70.3 7.2 Q66.2 7.25 64.1 10.4 65.75 12.35 66.2 15.05 65.75 16.2 65.45 17.6 L65.0 23.2 64.25 32.8 63.65 40.85 63.55 41.75 Q61.4 42.25 59.5 40.9 L59.85 37.7 60.85 28.85 61.95 18.85 62.4 14.65 Q62.95 12.1 64.1 10.4 M61.95 18.85 Q63.95 19.9 65.0 23.2 M64.25 32.8 Q62.75 30.15 60.85 28.85 M59.85 37.7 Q62.1 39.2 63.65 40.85" fill="none" stroke="#000000" stroke-linecap="round" stroke-linejoin="round" stroke-opacity="0.3019608" stroke-width="0.5"/>
      <path d="M57.15 11.25 Q59.15 20.45 56.4 29.45 47.15 31.15 37.55 28.65 35.3 19.25 38.3 10.45 47.9 8.7 57.15 11.25 M53.6 14.4 Q47.75 12.8 41.7 13.9 39.85 19.45 41.25 25.4 47.3 26.95 53.15 25.9 54.85 20.2 53.6 14.4" fill="#ffcc00" fill-rule="evenodd" stroke="none"/>
      <path d="M57.15 11.25 Q59.15 20.45 56.4 29.45 47.15 31.15 37.55 28.65 35.3 19.25 38.3 10.45 47.9 8.7 57.15 11.25 M53.6 14.4 Q54.85 20.2 53.15 25.9 47.3 26.95 41.25 25.4 39.85 19.45 41.7 13.9 47.75 12.8 53.6 14.4" fill="none" stroke="#000000" stroke-linecap="round" stroke-linejoin="round" stroke-opacity="0.3019608" stroke-width="0.5"/>
      <path d="M55.4 21.85 Q50.8 22.75 46.2 21.15 45.65 19.05 46.5 17.1 51.15 16.5 55.7 17.8 56.05 19.9 55.4 21.85" fill="#ffb600" fill-rule="evenodd" stroke="none"/>
      <path d="M55.4 21.85 Q50.8 22.75 46.2 21.15 45.65 19.05 46.5 17.1 51.15 16.5 55.7 17.8 56.05 19.9 55.4 21.85 Z" fill="none" stroke="#000000" stroke-linecap="round" stroke-linejoin="round" stroke-opacity="0.3019608" stroke-width="0.5"/>
      <path d="M7.0 19.55 L7.4 13.05 14.05 13.5 13.65 20.0 7.0 19.55" fill="#995600" fill-rule="evenodd" stroke="none"/>
      <path d="M7.4 13.05 L14.05 13.5 M13.65 20.0 L7.0 19.55" fill="none" stroke="#000000" stroke-linecap="round" stroke-linejoin="round" stroke-opacity="0.3019608" stroke-width="0.5"/>
      <path d="M27.95 15.6 L27.15 22.05 20.55 21.2 21.35 14.75 27.95 15.6" fill="#995600" fill-rule="evenodd" stroke="none"/>
      <path d="M27.15 22.05 L20.55 21.2 M21.35 14.75 L27.95 15.6" fill="none" stroke="#000000" stroke-linecap="round" stroke-linejoin="round" stroke-opacity="0.3019608" stroke-width="0.5"/>
      <path d="M60.6 17.25 L67.2 18.1 66.4 24.55 59.8 23.7 60.6 17.25" fill="#995600" fill-rule="evenodd" stroke="none"/>
      <path d="M60.6 17.25 L67.2 18.1 M66.4 24.55 L59.8 23.7" fill="none" stroke="#000000" stroke-linecap="round" stroke-linejoin="round" stroke-opacity="0.3019608" stroke-width="0.5"/>
    </g>
    <linearGradient gradientTransform="matrix(-4.0E-4, 0.0047, -0.0118, -8.0E-4, 48.05, 24.75)" gradientUnits="userSpaceOnUse" id="gradient0" spreadMethod="pad" x1="-819.2" x2="819.2">
      <stop offset="0.011764705882352941" stop-color="#995600"/>
      <stop offset="1.0" stop-color="#754100"/>
    </linearGradient>
  </defs>
</svg>
