<?xml version="1.0" encoding="UTF-8" standalone="no"?>
<svg xmlns:xlink="http://www.w3.org/1999/xlink" height="531.5px" width="460.6px" xmlns="http://www.w3.org/2000/svg">
  <g transform="matrix(1.0, 0.0, 0.0, 1.0, 193.65, 334.05)">
    <use height="127.15" transform="matrix(1.0, 0.0, 0.0, 1.0, -85.85, -83.3)" width="72.45" xlink:href="#shape0"/>
  </g>
  <defs>
    <g id="shape0" transform="matrix(1.0, 0.0, 0.0, 1.0, 85.85, 83.3)">
      <path d="M-25.95 -7.85 Q-29.4 -81.4 -59.75 -82.65 -24.4 -86.5 -20.2 -1.95 -22.3 -1.95 -25.95 -7.85" fill="#53ba25" fill-rule="evenodd" stroke="none"/>
      <path d="M-25.95 -7.85 Q-22.3 -1.95 -20.2 -1.95 -24.4 -86.5 -59.75 -82.65 -29.4 -81.4 -25.95 -7.85 Z" fill="none" stroke="#000000" stroke-linecap="round" stroke-linejoin="round" stroke-opacity="0.5019608" stroke-width="1.0"/>
      <path d="M-52.2 -21.2 Q-53.65 -23.85 -55.4 -25.9 -54.05 -29.65 -50.7 -31.65 L-48.55 -31.9 -47.65 -29.8 -48.7 -29.4 Q-51.15 -28.45 -51.3 -27.4 L-49.95 -24.7 Q-48.55 -21.85 -48.4 -20.85 L-47.7 -17.2 Q-47.2 -15.35 -45.55 -15.1 -43.2 -14.75 -41.6 -15.7 -40.45 -16.25 -39.85 -17.45 L-40.0 -16.0 Q-40.1 -15.4 -40.75 -14.4 -40.1 -15.4 -40.0 -16.0 L-39.85 -17.45 -39.7 -18.1 -37.35 -19.95 -35.5 -21.1 -34.9 -21.05 Q-32.5 -20.7 -31.3 -19.35 -30.05 -18.1 -30.4 -16.0 L-30.4 -15.7 -30.5 -15.75 Q-30.3 -16.75 -31.3 -17.75 L-32.9 -18.75 -33.5 -18.85 Q-34.85 -19.0 -36.15 -17.5 -37.7 -16.0 -38.6 -14.15 L-39.7 -14.35 -40.2 -14.35 -40.75 -14.4 -41.85 -14.4 -42.6 -14.35 -44.3 -14.15 -47.7 -13.4 -49.65 -14.15 -49.65 -14.25 -50.4 -16.7 -51.3 -19.35 -52.2 -21.2 M-46.85 -30.05 L-46.7 -31.9 -42.8 -31.15 -45.05 -30.65 -46.85 -30.05 M-27.3 -18.7 L-26.9 -19.1 Q-25.7 -18.25 -25.15 -17.5 L-25.05 -17.35 -27.15 -15.95 -27.05 -17.1 -27.25 -18.6 -27.3 -18.7" fill="#398f12" fill-rule="evenodd" stroke="none"/>
      <path d="M-47.65 -29.8 L-47.05 -28.65 -46.85 -30.05 -45.05 -30.65 -42.8 -31.15 -42.6 -31.05 -42.45 -31.0 Q-41.6 -25.6 -41.6 -20.25 L-41.2 -20.2 Q-40.6 -20.1 -40.2 -18.95 L-39.95 -17.75 -39.85 -17.45 Q-40.45 -16.25 -41.6 -15.7 -43.2 -14.75 -45.55 -15.1 -47.2 -15.35 -47.7 -17.2 L-48.4 -20.85 Q-48.55 -21.85 -49.95 -24.7 L-51.3 -27.4 Q-51.15 -28.45 -48.7 -29.4 L-47.65 -29.8 M-35.5 -21.1 Q-33.35 -22.3 -31.75 -22.05 -29.05 -21.6 -28.15 -20.5 L-27.5 -19.35 -27.3 -18.7 -27.25 -18.6 -27.05 -17.1 -27.15 -15.95 Q-27.55 -12.85 -31.75 -13.4 L-31.05 -14.1 -30.8 -14.6 -30.55 -15.1 -30.4 -15.7 -30.4 -16.0 Q-30.05 -18.1 -31.3 -19.35 -32.5 -20.7 -34.9 -21.05 L-35.5 -21.1 M-26.9 -19.1 L-25.55 -19.85 -23.2 -20.1 Q-21.85 -19.95 -21.45 -19.35 -21.1 -18.95 -20.7 -17.45 -20.95 -17.7 -21.3 -17.75 L-22.3 -18.2 -23.95 -17.95 -25.05 -17.35 -25.15 -17.5 Q-25.7 -18.25 -26.9 -19.1 M-41.6 -20.25 Q-42.8 -20.25 -44.45 -19.1 -42.8 -20.25 -41.6 -20.25" fill="#53ba25" fill-rule="evenodd" stroke="none"/>
      <path d="M-49.65 -14.25 L-49.65 -14.15 -49.8 -14.25 -49.65 -14.25" fill="#999999" fill-rule="evenodd" stroke="none"/>
      <path d="M-38.6 -14.15 L-36.65 -13.65 Q-33.9 -12.85 -31.5 -11.0 -23.95 -10.85 -19.7 -5.3 L-19.55 -4.8 -19.55 -4.7 Q-18.7 -2.2 -16.95 4.8 -16.25 7.05 -16.0 13.15 -15.7 20.6 -16.35 25.45 -17.1 31.05 -19.95 35.9 -20.95 37.5 -22.3 39.15 L-22.4 39.15 -22.8 39.1 Q-27.75 38.1 -27.9 31.05 -27.4 24.3 -27.55 19.5 -28.25 30.75 -31.75 42.45 L-33.85 42.95 Q-43.8 40.7 -47.1 30.05 -49.8 21.6 -48.05 9.85 -46.45 -0.55 -44.6 -5.45 -41.85 -12.9 -39.7 -14.35 L-38.6 -14.15 M-49.65 -14.15 L-47.7 -13.4 -51.3 17.6 -52.2 19.5 Q-54.65 24.6 -56.4 24.35 -59.1 23.95 -59.4 16.45 -59.85 10.4 -58.85 3.8 -57.85 -2.7 -56.3 -7.5 -55.5 -10.75 -53.55 -15.15 L-52.9 -15.0 -50.3 -14.5 -49.8 -14.25 -49.65 -14.15 M-31.5 -11.0 Q-26.7 3.9 -27.55 19.5 -26.7 3.9 -31.5 -11.0" fill="#ff9900" fill-rule="evenodd" stroke="none"/>
      <path d="M-33.85 42.95 Q-44.3 44.5 -53.9 39.85 L-51.3 17.6 -47.7 -13.4 -44.3 -14.15 -42.6 -14.35 -41.85 -14.4 -40.75 -14.4 -40.2 -14.35 -39.7 -14.35 Q-41.85 -12.9 -44.6 -5.45 -46.45 -0.55 -48.05 9.85 -49.8 21.6 -47.1 30.05 -43.8 40.7 -33.85 42.95" fill="url(#gradient0)" fill-rule="evenodd" stroke="none"/>
      <path d="M-51.3 -19.35 L-50.4 -16.7 -51.3 -16.45 -51.9 -16.35 -51.95 -16.35 -51.95 -16.25 Q-52.15 -15.7 -52.9 -15.0 L-53.55 -15.15 -54.4 -15.25 Q-55.0 -16.2 -54.8 -17.1 -54.75 -17.95 -53.9 -18.6 L-53.15 -19.0 -53.05 -19.1 -52.15 -19.45 -51.3 -19.35 M-52.05 -17.5 Q-51.8 -16.95 -51.9 -16.45 L-51.9 -16.35 -51.9 -16.45 Q-51.8 -16.95 -52.05 -17.5" fill="#1d4d07" fill-rule="evenodd" stroke="none"/>
      <path d="M-56.55 -15.25 L-56.75 -15.6 Q-57.4 -16.85 -57.25 -18.0 L-56.8 -19.0 -58.15 -20.95 Q-58.9 -21.6 -60.65 -21.85 L-62.0 -22.05 Q-58.25 -23.7 -55.3 -21.3 L-54.75 -20.8 -52.2 -21.2 -51.3 -19.35 -52.15 -19.45 -53.05 -19.1 -53.15 -19.0 -53.9 -18.6 Q-54.75 -17.95 -54.8 -17.1 -55.0 -16.2 -54.4 -15.25 L-56.55 -15.25 M-56.8 -19.0 Q-56.4 -19.85 -55.3 -20.35 L-54.75 -20.8 -55.3 -20.35 Q-56.4 -19.85 -56.8 -19.0" fill="#256309" fill-rule="evenodd" stroke="none"/>
      <path d="M-53.9 39.85 Q-67.95 41.2 -75.55 34.15 -78.55 6.55 -67.1 -10.3 -62.1 -14.9 -56.55 -15.25 L-54.4 -15.25 -53.55 -15.15 Q-55.5 -10.75 -56.3 -7.5 -57.85 -2.7 -58.85 3.8 -59.85 10.4 -59.4 16.45 -59.1 23.95 -56.4 24.35 -54.65 24.6 -52.2 19.5 L-51.3 17.6 -53.9 39.85" fill="#db7800" fill-rule="evenodd" stroke="none"/>
      <path d="M-39.95 -17.75 L-39.7 -18.1 -39.85 -17.45 -39.95 -17.75" fill="#339933" fill-rule="evenodd" stroke="none"/>
      <path d="M-31.75 -13.4 L-32.05 -13.4 Q-32.85 -13.5 -33.35 -14.1 L-33.85 -14.6 Q-34.6 -15.5 -34.4 -16.5 -34.35 -17.1 -32.9 -18.75 L-31.3 -17.75 Q-30.3 -16.75 -30.5 -15.75 L-30.55 -15.1 -30.8 -14.6 -31.05 -14.1 -31.75 -13.4" fill="#30780f" fill-rule="evenodd" stroke="none"/>
      <path d="M-30.4 -15.7 L-30.55 -15.1 -30.5 -15.75 -30.4 -15.7" fill="#32852b" fill-rule="evenodd" stroke="none"/>
      <path d="M-19.7 -5.3 L-19.3 -4.7 Q-17.3 -1.9 -16.1 2.3 -10.75 21.45 -18.3 36.4 -18.85 37.85 -20.35 39.0 -21.7 40.1 -23.8 41.2 L-22.3 39.15 Q-20.95 37.5 -19.95 35.9 -17.1 31.05 -16.35 25.45 -15.7 20.6 -16.0 13.15 -16.25 7.05 -16.95 4.8 -18.7 -2.2 -19.55 -4.7 L-19.55 -4.8 -19.7 -5.3" fill="#ffcc00" fill-rule="evenodd" stroke="none"/>
      <path d="M-23.8 41.2 L-24.9 41.6 -25.45 41.85 Q-28.9 43.1 -31.75 42.45 -28.25 30.75 -27.55 19.5 -27.4 24.3 -27.9 31.05 -27.75 38.1 -22.8 39.1 L-22.4 39.15 -22.3 39.15 -23.8 41.2" fill="#f08b10" fill-rule="evenodd" stroke="none"/>
      <path d="M-75.55 34.15 Q-87.6 31.55 -84.85 11.4 -82.05 -8.55 -67.1 -10.3 -78.55 6.55 -75.55 34.15" fill="#c96000" fill-rule="evenodd" stroke="none"/>
      <path d="M-52.2 -21.2 Q-53.65 -23.85 -55.4 -25.9 -54.05 -29.65 -50.7 -31.65 L-48.55 -31.9 -47.65 -29.8 -47.05 -28.65 -46.85 -30.05 -46.7 -31.9 -42.8 -31.15 -42.6 -31.05 -42.45 -31.0 Q-41.6 -25.6 -41.6 -20.25 L-41.2 -20.2 Q-40.6 -20.1 -40.2 -18.95 L-39.95 -17.75 -39.7 -18.1 -37.35 -19.95 -35.5 -21.1 Q-33.35 -22.3 -31.75 -22.05 -29.05 -21.6 -28.15 -20.5 L-27.5 -19.35 -27.3 -18.7 -26.9 -19.1 -25.55 -19.85 -23.2 -20.1 Q-21.85 -19.95 -21.45 -19.35 -21.1 -18.95 -20.7 -17.45 -20.95 -17.7 -21.3 -17.75 L-22.3 -18.2 -23.95 -17.95 -25.05 -17.35 -27.15 -15.95 Q-27.55 -12.85 -31.75 -13.4 L-32.05 -13.4 Q-32.85 -13.5 -33.35 -14.1 L-33.85 -14.6 Q-34.6 -15.5 -34.4 -16.5 -34.35 -17.1 -32.9 -18.75 L-33.5 -18.85 Q-34.85 -19.0 -36.15 -17.5 -37.7 -16.0 -38.6 -14.15 L-36.65 -13.65 Q-33.9 -12.85 -31.5 -11.0 -23.95 -10.85 -19.7 -5.3 L-19.3 -4.7 Q-17.3 -1.9 -16.1 2.3 -10.75 21.45 -18.3 36.4 -18.85 37.85 -20.35 39.0 -21.7 40.1 -23.8 41.2 L-24.9 41.6 -25.45 41.85 Q-28.9 43.1 -31.75 42.45 L-33.85 42.95 Q-44.3 44.5 -53.9 39.85 -67.95 41.2 -75.55 34.15 -87.6 31.55 -84.85 11.4 -82.05 -8.55 -67.1 -10.3 -62.1 -14.9 -56.55 -15.25 L-56.75 -15.6 Q-57.4 -16.85 -57.25 -18.0 L-56.8 -19.0 -58.15 -20.95 Q-58.9 -21.6 -60.65 -21.85 L-62.0 -22.05 Q-58.25 -23.7 -55.3 -21.3 L-54.75 -20.8 -52.2 -21.2 -51.3 -19.35 -50.4 -16.7 -49.65 -14.25 -49.65 -14.15 -47.7 -13.4 -44.3 -14.15 -42.6 -14.35 -41.85 -14.4 -40.75 -14.4 Q-40.1 -15.4 -40.0 -16.0 L-39.85 -17.45 -39.95 -17.75 M-44.45 -19.1 Q-42.8 -20.25 -41.6 -20.25 M-52.9 -15.0 L-50.3 -14.5 -49.8 -14.25 -49.65 -14.15 M-51.3 -19.35 L-52.15 -19.45 -53.05 -19.1 -53.15 -19.0 -53.9 -18.6 Q-54.75 -17.95 -54.8 -17.1 -55.0 -16.2 -54.4 -15.25 L-53.55 -15.15 -52.9 -15.0 Q-52.15 -15.7 -51.95 -16.25 L-51.95 -16.35 -51.9 -16.35 -51.9 -16.45 Q-51.8 -16.95 -52.05 -17.5 M-54.75 -20.8 L-55.3 -20.35 Q-56.4 -19.85 -56.8 -19.0 M-51.95 -16.25 L-51.9 -16.35 -51.3 -16.45 -50.4 -16.7 M-56.55 -15.25 L-54.4 -15.25 M-51.3 17.6 L-47.7 -13.4 M-27.15 -15.95 L-27.05 -17.1 -27.25 -18.6 -27.3 -18.7 M-30.55 -15.1 L-30.8 -14.6 -31.05 -14.1 M-40.75 -14.4 L-40.2 -14.35 -39.7 -14.35 -38.6 -14.15 M-32.9 -18.75 L-31.3 -17.75 Q-30.3 -16.75 -30.5 -15.75 L-30.55 -15.1 M-31.75 42.45 Q-28.25 30.75 -27.55 19.5 -26.7 3.9 -31.5 -11.0 M-51.3 17.6 L-53.9 39.85 M-67.1 -10.3 Q-78.55 6.55 -75.55 34.15" fill="none" stroke="#000000" stroke-linecap="round" stroke-linejoin="round" stroke-opacity="0.5019608" stroke-width="1.0"/>
      <path d="M-37.8 30.1 Q-38.55 31.8 -39.6 33.05 -41.55 35.5 -43.8 35.1 -46.0 34.75 -47.1 31.75 -47.95 29.4 -47.65 26.5 -40.9 24.6 -37.8 30.1" fill="#990033" fill-rule="evenodd" stroke="none"/>
      <path d="M-47.65 26.5 L-47.45 25.1 Q-46.8 21.3 -44.85 18.85 -42.8 16.5 -40.6 16.85 -38.35 17.25 -37.35 20.15 -36.3 23.15 -36.95 26.95 -37.25 28.65 -37.8 30.1 -40.9 24.6 -47.65 26.5" fill="#333333" fill-rule="evenodd" stroke="none"/>
      <path d="M-47.65 26.5 L-47.45 25.1 Q-46.8 21.3 -44.85 18.85 -42.8 16.5 -40.6 16.85 -38.35 17.25 -37.35 20.15 -36.3 23.15 -36.95 26.95 -37.25 28.65 -37.8 30.1 -38.55 31.8 -39.6 33.05 -41.55 35.5 -43.8 35.1 -46.0 34.75 -47.1 31.75 -47.95 29.4 -47.65 26.5 -40.9 24.6 -37.8 30.1" fill="none" stroke="#000000" stroke-linecap="round" stroke-linejoin="round" stroke-opacity="0.5019608" stroke-width="1.0"/>
      <path d="M-49.85 4.4 L-49.5 4.8 Q-50.9 9.65 -57.75 12.1 -62.2 9.9 -64.1 3.3 -65.4 -3.1 -64.2 -8.0 L-64.1 -7.95 Q-64.65 -3.85 -63.7 1.15 -61.8 7.75 -57.35 9.9 -51.8 7.9 -49.85 4.4 M-19.8 -2.05 L-19.75 -2.05 Q-19.95 2.55 -22.25 7.8 -25.1 13.1 -28.85 13.9 -33.25 10.1 -33.15 5.5 L-32.8 5.2 Q-32.1 8.65 -28.65 11.7 -24.95 10.9 -22.1 5.65 -20.3 1.55 -19.8 -2.05" fill="#ad4a00" fill-rule="evenodd" stroke="none"/>
      <path d="M-49.85 4.4 Q-51.8 7.9 -57.35 9.9 -61.8 7.75 -63.7 1.15 -64.65 -3.85 -64.1 -7.95 -55.05 -2.25 -49.85 4.4 M-19.8 -2.05 Q-20.3 1.55 -22.1 5.65 -24.95 10.9 -28.65 11.7 -32.1 8.65 -32.8 5.2 -27.55 0.75 -19.8 -2.05" fill="#ffcc00" fill-rule="evenodd" stroke="none"/>
      <path d="M-64.1 -7.95 L-64.2 -8.0 Q-65.4 -3.1 -64.1 3.3 -62.2 9.9 -57.75 12.1 -50.9 9.65 -49.5 4.8 L-49.85 4.4 Q-55.05 -2.25 -64.1 -7.95 M-32.8 5.2 L-33.15 5.5 Q-33.25 10.1 -28.85 13.9 -25.1 13.1 -22.25 7.8 -19.95 2.55 -19.75 -2.05 L-19.8 -2.05 Q-27.55 0.75 -32.8 5.2" fill="none" stroke="#000000" stroke-linecap="round" stroke-linejoin="round" stroke-opacity="0.5019608" stroke-width="1.0"/>
      <path d="M-17.65 -0.55 Q-14.65 3.5 -15.4 8.5 -16.15 13.5 -20.2 16.45 -24.2 19.4 -29.2 18.65 -34.2 17.9 -37.2 13.9 -40.15 9.85 -39.4 4.85 -38.65 -0.15 -34.65 -3.1 -30.6 -6.1 -25.6 -5.35 -20.6 -4.6 -17.65 -0.55" fill="url(#gradient1)" fill-rule="evenodd" stroke="none"/>
      <path d="M-48.85 -4.1 Q-45.85 -0.05 -46.6 4.95 -47.35 9.95 -51.4 12.9 -55.4 15.85 -60.4 15.1 -65.4 14.35 -68.4 10.35 -71.35 6.3 -70.6 1.3 -69.85 -3.7 -65.85 -6.65 -61.8 -9.65 -56.8 -8.9 -51.8 -8.15 -48.85 -4.1" fill="url(#gradient2)" fill-rule="evenodd" stroke="none"/>
      <path d="M-28.1 10.75 Q-30.6 6.6 -27.0 3.35 -24.45 7.35 -28.1 10.75 M-57.85 8.4 Q-60.85 3.4 -56.5 -0.55 -53.45 4.2 -57.85 8.4" fill="#ffffff" fill-rule="evenodd" stroke="none"/>
    </g>
    <linearGradient gradientTransform="matrix(0.0079, -0.0183, 0.032, 0.0139, -39.85, 9.75)" gradientUnits="userSpaceOnUse" id="gradient0" spreadMethod="pad" x1="-819.2" x2="819.2">
      <stop offset="0.0" stop-color="#db7800"/>
      <stop offset="0.9882352941176471" stop-color="#ff9900"/>
    </linearGradient>
    <radialGradient cx="0" cy="0" gradientTransform="matrix(0.0153, 0.0023, -0.0023, 0.0153, -27.4, 6.65)" gradientUnits="userSpaceOnUse" id="gradient1" r="819.2" spreadMethod="pad">
      <stop offset="0.0" stop-color="#ffff00"/>
      <stop offset="1.0" stop-color="#ffff00" stop-opacity="0.0"/>
    </radialGradient>
    <radialGradient cx="0" cy="0" gradientTransform="matrix(0.0153, 0.0023, -0.0023, 0.0153, -58.6, 3.1)" gradientUnits="userSpaceOnUse" id="gradient2" r="819.2" spreadMethod="pad">
      <stop offset="0.0" stop-color="#ffff00"/>
      <stop offset="1.0" stop-color="#ffff00" stop-opacity="0.0"/>
    </radialGradient>
  </defs>
</svg>
