<?xml version="1.0" encoding="UTF-8" standalone="no"?>
<svg xmlns:xlink="http://www.w3.org/1999/xlink" height="531.5px" width="460.6px" xmlns="http://www.w3.org/2000/svg">
  <g transform="matrix(1.0, 0.0, 0.0, 1.0, 193.65, 334.05)">
    <use height="29.95" transform="matrix(1.0, 0.0, 0.0, 1.0, -3.15, -175.3)" width="29.95" xlink:href="#shape0"/>
  </g>
  <defs>
    <g id="shape0" transform="matrix(1.0, 0.0, 0.0, 1.0, 3.15, 175.3)">
      <path d="M10.6 -166.25 Q11.45 -164.25 13.65 -163.05 15.85 -161.7 18.0 -161.95 20.2 -162.25 21.15 -163.9 22.1 -165.5 21.2 -167.55 20.35 -169.6 18.15 -170.9 15.95 -172.1 13.8 -171.85 11.6 -171.55 10.65 -169.95 9.7 -168.25 10.6 -166.25 M25.35 -154.9 L23.3 -154.15 Q18.3 -152.4 14.45 -152.4 5.7 -152.4 1.85 -159.95 -0.05 -163.7 -0.45 -168.0 0.4 -169.35 1.55 -170.5 5.8 -174.8 11.85 -174.8 17.85 -174.8 22.1 -170.5 26.3 -166.3 26.3 -160.35 26.3 -157.45 25.35 -154.9" fill="#ff0000" fill-rule="evenodd" stroke="none"/>
      <path d="M10.6 -166.25 Q9.7 -168.25 10.65 -169.95 11.6 -171.55 13.8 -171.85 15.95 -172.1 18.15 -170.9 20.35 -169.6 21.2 -167.55 22.1 -165.5 21.15 -163.9 20.2 -162.25 18.0 -161.95 15.85 -161.7 13.65 -163.05 11.45 -164.25 10.6 -166.25" fill="#ff7070" fill-rule="evenodd" stroke="none"/>
      <path d="M-0.45 -168.0 Q-0.05 -163.7 1.85 -159.95 5.7 -152.4 14.45 -152.4 18.3 -152.4 23.3 -154.15 L25.35 -154.9 Q24.25 -152.25 22.1 -150.1 17.85 -145.85 11.85 -145.85 5.8 -145.85 1.55 -150.1 -1.25 -152.9 -2.2 -156.65 -2.65 -158.35 -2.65 -160.35 -2.65 -162.25 -2.2 -164.0 -1.7 -166.1 -0.45 -168.0" fill="#e30000" fill-rule="evenodd" stroke="none"/>
      <path d="M25.35 -154.9 Q26.3 -157.45 26.3 -160.35 26.3 -166.3 22.1 -170.5 17.85 -174.8 11.85 -174.8 5.8 -174.8 1.55 -170.5 0.4 -169.35 -0.45 -168.0 -1.7 -166.1 -2.2 -164.0 -2.65 -162.25 -2.65 -160.35 -2.65 -158.35 -2.2 -156.65 -1.25 -152.9 1.55 -150.1 5.8 -145.85 11.85 -145.85 17.85 -145.85 22.1 -150.1 24.25 -152.25 25.35 -154.9 Z" fill="none" stroke="#000000" stroke-linecap="round" stroke-linejoin="round" stroke-opacity="0.4" stroke-width="1.0"/>
    </g>
  </defs>
</svg>
