<?xml version="1.0" encoding="UTF-8" standalone="no"?>
<svg xmlns:xlink="http://www.w3.org/1999/xlink" height="531.5px" width="460.6px" xmlns="http://www.w3.org/2000/svg">
  <g transform="matrix(1.0, 0.0, 0.0, 1.0, 193.65, 334.05)">
    <use height="47.05" transform="matrix(1.0, 0.0, 0.0, 1.0, -22.15, -51.95)" width="46.8" xlink:href="#shape0"/>
  </g>
  <defs>
    <g id="shape0" transform="matrix(1.0, 0.0, 0.0, 1.0, 22.15, 51.95)">
      <path d="M24.65 -51.95 L24.65 -31.7 21.35 -31.7 21.35 -28.6 24.65 -28.6 24.65 -15.05 21.35 -15.05 21.35 -8.35 17.8 -8.35 17.8 -4.9 -15.0 -4.9 -15.0 -8.35 -18.7 -8.35 -18.7 -15.25 -22.15 -15.25 -22.15 -28.8 -18.8 -28.8 -18.8 -35.25 -15.4 -35.25 -15.4 -45.05 -18.8 -45.05 -18.8 -48.55 -15.25 -48.55 -15.25 -45.25 -11.9 -45.25 -11.9 -35.25 -15.25 -35.25 -15.25 -28.8 -18.6 -28.8 -18.6 -21.9 -15.45 -21.9 -15.45 -25.05 -11.65 -25.05 -11.65 -28.6 -1.8 -28.6 -1.8 -31.7 -5.4 -31.7 -5.4 -51.95 -1.9 -51.95 -1.9 -48.5 1.3 -48.5 1.3 -45.4 18.0 -45.4 18.0 -48.5 21.2 -48.5 21.2 -51.95 24.65 -51.95 M14.45 -38.4 L14.45 -35.25 18.0 -35.25 18.0 -38.4 14.45 -38.4 M1.3 -38.4 L1.3 -35.25 4.8 -35.25 4.8 -38.4 1.3 -38.4" fill="#000000" fill-rule="evenodd" stroke="none"/>
    </g>
  </defs>
</svg>
