<?xml version="1.0" encoding="UTF-8" standalone="no"?>
<svg xmlns:xlink="http://www.w3.org/1999/xlink" height="531.5px" width="460.6px" xmlns="http://www.w3.org/2000/svg">
  <g transform="matrix(1.0, 0.0, 0.0, 1.0, 193.65, 334.05)">
    <use height="57.1" transform="matrix(1.0, 0.0, 0.0, 1.0, -49.85, -147.0)" width="122.4" xlink:href="#shape0"/>
  </g>
  <defs>
    <g id="shape0" transform="matrix(1.0, 0.0, 0.0, 1.0, 49.85, 147.0)">
      <path d="M-34.4 -146.5 Q-29.4 -146.65 -25.55 -145.1 -17.7 -145.8 -13.95 -144.0 -12.75 -140.65 -16.25 -140.2 -19.8 -139.8 -22.6 -138.0 -26.3 -135.7 -27.05 -133.0 -27.55 -131.4 -27.05 -129.65 -26.2 -126.7 -22.6 -123.3 -20.35 -121.15 -17.0 -118.8 L-25.05 -118.8 Q-17.5 -110.5 -7.65 -104.25 L-2.3 -101.15 Q9.0 -95.0 23.2 -91.4 18.25 -90.45 13.15 -90.4 L9.15 -91.45 1.2 -94.35 0.05 -94.4 Q-1.4 -94.55 -1.7 -95.3 L-7.05 -97.15 Q-12.5 -98.9 -16.5 -101.25 L-24.45 -106.55 Q-31.65 -111.55 -35.5 -117.6 L-38.7 -123.35 -39.5 -125.25 -40.35 -127.6 Q-40.7 -128.45 -40.7 -130.2 L-40.7 -132.1 Q-40.7 -135.7 -40.0 -137.3 L-37.5 -142.45 Q-36.85 -144.0 -34.4 -146.5 M-17.25 -104.7 Q-18.45 -104.7 -19.8 -105.5 -18.45 -104.7 -17.25 -104.7 M-23.1 -109.7 L-24.8 -109.4 Q-26.65 -109.4 -28.05 -110.65 -29.4 -111.75 -29.65 -113.05 -29.4 -111.75 -28.05 -110.65 -26.65 -109.4 -24.8 -109.4 L-23.1 -109.7 M2.8 -94.4 L1.2 -94.35 2.8 -94.4 M49.8 -144.65 L52.45 -141.65 Q55.9 -138.05 58.15 -138.05 58.4 -138.05 59.65 -140.55 L61.05 -142.9 62.5 -142.3 Q82.15 -116.75 61.3 -98.5 55.15 -94.25 50.45 -92.75 L53.2 -96.1 Q56.65 -100.3 59.0 -104.1 63.5 -111.6 63.5 -117.45 63.5 -119.95 63.15 -122.3 62.6 -126.4 61.25 -126.4 59.3 -126.4 59.05 -127.25 58.9 -129.15 58.15 -131.25 56.7 -135.05 54.15 -137.75 52.1 -139.75 47.55 -142.15 L42.6 -144.8 Q46.2 -145.5 49.8 -144.65 M63.15 -105.8 Q60.9 -104.2 59.0 -104.1 60.9 -104.2 63.15 -105.8 M65.0 -117.9 Q66.25 -118.15 67.35 -118.95 68.2 -119.75 68.35 -120.35 68.2 -119.75 67.35 -118.95 66.25 -118.15 65.0 -117.9" fill="#666633" fill-rule="evenodd" stroke="none"/>
      <path d="M13.15 -90.4 Q-0.9 -90.4 -16.7 -96.9 -45.3 -113.5 -48.8 -127.6 -51.9 -139.9 -37.85 -146.25 L-34.4 -146.5 Q-36.85 -144.0 -37.5 -142.45 L-40.0 -137.3 Q-40.7 -135.7 -40.7 -132.1 L-40.7 -130.2 Q-40.7 -128.45 -40.35 -127.6 L-39.5 -125.25 -38.7 -123.35 -35.5 -117.6 Q-31.65 -111.55 -24.45 -106.55 L-16.5 -101.25 Q-12.5 -98.9 -7.05 -97.15 L-1.7 -95.3 Q-1.4 -94.55 0.05 -94.4 L1.2 -94.35 9.15 -91.45 13.15 -90.4 M-43.7 -129.6 Q-43.95 -128.5 -43.1 -127.15 -42.0 -125.4 -39.5 -125.25 -42.0 -125.4 -43.1 -127.15 -43.95 -128.5 -43.7 -129.6 M-42.0 -130.8 Q-42.85 -131.15 -43.25 -131.85 -43.7 -132.45 -43.5 -133.05 -43.7 -132.45 -43.25 -131.85 -42.85 -131.15 -42.0 -130.8 M61.05 -142.9 L59.65 -140.55 Q58.4 -138.05 58.15 -138.05 55.9 -138.05 52.45 -141.65 L49.8 -144.65 52.65 -143.75 Q56.8 -144.65 61.05 -142.9 M42.6 -144.8 L47.55 -142.15 Q52.1 -139.75 54.15 -137.75 56.7 -135.05 58.15 -131.25 58.9 -129.15 59.05 -127.25 59.3 -126.4 61.25 -126.4 62.6 -126.4 63.15 -122.3 63.5 -119.95 63.5 -117.45 63.5 -111.6 59.0 -104.1 56.65 -100.3 53.2 -96.1 L50.45 -92.75 46.95 -92.0 53.3 -102.35 56.4 -108.65 Q58.3 -112.45 59.65 -117.75 L59.9 -119.25 59.5 -121.4 Q56.4 -120.1 52.7 -121.4 53.7 -121.95 54.2 -123.3 55.2 -125.95 55.3 -127.55 55.3 -130.1 53.8 -132.25 L53.2 -133.05 51.05 -135.35 49.1 -137.0 45.7 -139.35 Q43.35 -140.7 40.6 -141.85 39.65 -143.05 40.6 -144.3 L42.6 -144.8 M58.5 -104.1 L59.0 -104.1 58.5 -104.1" fill="#525223" fill-rule="evenodd" stroke="none"/>
      <path d="M-22.6 -138.0 L-18.25 -133.75 -27.05 -133.0 Q-26.3 -135.7 -22.6 -138.0 M-27.05 -129.65 L-19.55 -128.05 -22.6 -123.3 Q-26.2 -126.7 -27.05 -129.65 M-7.65 -104.25 L1.45 -103.15 -2.3 -101.15 -7.65 -104.25 M55.3 -127.55 L48.3 -129.2 53.2 -133.05 53.8 -132.25 Q55.3 -130.1 55.3 -127.55 M51.05 -135.35 L42.95 -134.3 45.7 -139.35 49.1 -137.0 51.05 -135.35 M56.4 -108.65 L53.3 -102.35 49.8 -103.95 56.4 -108.65" fill="#8c764b" fill-rule="evenodd" stroke="none"/>
      <path d="M13.15 -90.4 Q-0.9 -90.4 -16.7 -96.9 -45.3 -113.5 -48.8 -127.6 -51.9 -139.9 -37.85 -146.25 L-34.4 -146.5 Q-29.4 -146.65 -25.55 -145.1 -17.7 -145.8 -13.95 -144.0 -12.75 -140.65 -16.25 -140.2 -19.8 -139.8 -22.6 -138.0 L-18.25 -133.75 -27.05 -133.0 Q-27.55 -131.4 -27.05 -129.65 L-19.55 -128.05 -22.6 -123.3 Q-20.35 -121.15 -17.0 -118.8 L-25.05 -118.8 Q-17.5 -110.5 -7.65 -104.25 L1.45 -103.15 -2.3 -101.15 Q9.0 -95.0 23.2 -91.4 18.25 -90.45 13.15 -90.4 M1.2 -94.35 L0.05 -94.4 Q-1.4 -94.55 -1.7 -95.3 M-39.5 -125.25 Q-42.0 -125.4 -43.1 -127.15 -43.95 -128.5 -43.7 -129.6 M-43.5 -133.05 Q-43.7 -132.45 -43.25 -131.85 -42.85 -131.15 -42.0 -130.8 M-27.05 -129.65 Q-26.2 -126.7 -22.6 -123.3 M-27.05 -133.0 Q-26.3 -135.7 -22.6 -138.0 M-29.65 -113.05 Q-29.4 -111.75 -28.05 -110.65 -26.65 -109.4 -24.8 -109.4 L-23.1 -109.7 M-19.8 -105.5 Q-18.45 -104.7 -17.25 -104.7 M-7.65 -104.25 L-2.3 -101.15 M1.2 -94.35 L2.8 -94.4 M49.8 -144.65 Q46.2 -145.5 42.6 -144.8 L40.6 -144.3 Q39.65 -143.05 40.6 -141.85 43.35 -140.7 45.7 -139.35 L49.1 -137.0 51.05 -135.35 42.95 -134.3 45.7 -139.35 M59.0 -104.1 Q60.9 -104.2 63.15 -105.8 M50.45 -92.75 Q55.15 -94.25 61.3 -98.5 82.15 -116.75 62.5 -142.3 L61.05 -142.9 Q56.8 -144.65 52.65 -143.75 L49.8 -144.65 M55.3 -127.55 L48.3 -129.2 53.2 -133.05 51.05 -135.35 M55.3 -127.55 Q55.2 -125.95 54.2 -123.3 53.7 -121.95 52.7 -121.4 56.4 -120.1 59.5 -121.4 L59.9 -119.25 59.65 -117.75 Q58.3 -112.45 56.4 -108.65 L53.3 -102.35 46.95 -92.0 50.45 -92.75 M59.0 -104.1 L58.5 -104.1 M53.2 -133.05 L53.8 -132.25 Q55.3 -130.1 55.3 -127.55 M68.35 -120.35 Q68.2 -119.75 67.35 -118.95 66.25 -118.15 65.0 -117.9 M56.4 -108.65 L49.8 -103.95 53.3 -102.35" fill="none" stroke="#000000" stroke-linecap="round" stroke-linejoin="round" stroke-opacity="0.5019608" stroke-width="1.0"/>
    </g>
  </defs>
</svg>
