<?xml version="1.0" encoding="UTF-8" standalone="no"?>
<svg xmlns:xlink="http://www.w3.org/1999/xlink" height="531.5px" width="460.6px" xmlns="http://www.w3.org/2000/svg">
  <g transform="matrix(1.0, 0.0, 0.0, 1.0, 193.65, 334.05)">
    <use height="55.15" transform="matrix(1.5874, 0.0, 0.0, 1.5874, -82.0881, -225.9144)" width="98.0" xlink:href="#shape0"/>
  </g>
  <defs>
    <g id="shape0" transform="matrix(1.0, 0.0, 0.0, 1.0, 0.15, 0.45)">
      <path d="M64.4 31.25 L64.15 31.3 64.2 31.1 64.4 31.25 M70.75 24.0 L70.5 23.85 70.5 23.75 70.75 24.0 M65.45 26.8 L65.65 27.85 65.35 27.8 65.25 27.6 65.45 26.8 M80.45 41.65 L80.4 41.4 80.45 41.3 80.45 41.65" fill="#999999" fill-rule="evenodd" stroke="none"/>
      <path d="M68.6 23.7 Q68.5 23.2 68.7 22.95 L69.75 23.0 Q70.6 23.3 71.45 24.15 L72.55 25.75 Q72.95 26.55 72.65 26.85 L71.95 27.0 72.15 26.8 Q72.1 25.65 71.65 24.9 L70.75 24.0 70.5 23.75 70.5 23.85 68.8 23.45 68.6 23.7 M58.55 32.5 L59.3 33.1 59.8 32.8 59.8 32.85 Q59.7 33.7 59.35 33.8 59.0 33.9 58.55 33.2 58.1 32.65 57.85 31.7 57.6 30.75 57.65 29.95 57.8 29.25 58.15 29.15 58.45 29.05 58.8 29.5 L58.2 29.85 Q57.8 31.55 58.55 32.5 M80.4 41.4 L79.45 39.85 79.25 39.85 Q79.5 39.45 79.8 39.45 L80.45 40.15 80.5 40.25 80.75 40.95 80.85 42.2 Q80.85 43.4 80.5 44.15 L80.45 44.3 79.8 45.0 Q79.5 45.0 79.3 44.65 L79.5 44.65 Q80.25 43.8 80.45 42.95 L80.45 41.65 80.45 41.3 80.4 41.4 M24.4 24.4 L24.55 24.55 24.95 24.95 26.4 24.4 Q27.9 23.55 28.25 21.5 L27.9 21.15 Q28.35 21.05 28.6 21.3 28.95 21.65 28.6 22.5 L27.4 24.3 Q26.55 25.15 25.65 25.45 24.8 25.8 24.45 25.45 24.15 25.15 24.4 24.4 M15.0 40.45 Q15.25 39.95 15.65 39.95 16.15 39.95 16.5 40.8 16.85 41.7 16.85 42.9 16.85 44.1 16.5 44.95 16.15 45.85 15.65 45.85 15.25 45.85 14.95 45.25 L15.15 45.25 15.7 45.25 16.35 43.8 Q16.75 42.15 15.6 40.45 L15.0 40.45" fill="#333333" fill-rule="evenodd" stroke="none"/>
      <path d="M76.7 23.2 L76.25 23.7 75.0 22.55 74.35 18.95 76.2 21.0 76.7 23.2 M85.65 44.65 L84.55 44.65 84.55 44.55 84.4 42.05 85.6 40.3 85.5 43.0 84.55 44.55 85.5 43.0 85.65 44.65 M75.45 44.65 L74.75 44.65 73.85 44.15 76.8 39.85 78.85 39.85 75.45 44.65 M70.95 28.0 L69.65 29.35 69.2 29.1 68.35 23.9 68.6 23.7 68.8 23.45 70.5 23.85 70.95 28.0 M53.9 35.85 L52.85 35.95 52.75 33.05 53.55 32.55 53.9 35.85 M51.45 25.0 L51.45 25.75 50.95 26.7 46.65 23.55 46.65 21.4 51.45 25.0 M30.75 24.05 L32.15 25.45 31.15 30.55 30.2 30.3 29.7 29.8 30.7 24.05 30.75 24.05 M23.85 44.75 L22.95 45.25 22.25 45.25 20.65 43.0 21.1 40.75 23.85 44.75 M22.55 22.55 L22.3 22.3 23.7 21.0 23.2 23.2 23.7 21.0 25.6 18.95 24.55 24.55 24.4 24.4 23.2 23.2 22.55 22.55 M51.45 12.3 L51.45 13.5 51.1 13.45 49.5 12.4 51.45 12.3 M48.4 13.45 L46.85 12.3 49.5 12.4 51.1 13.45 48.4 13.45 M60.15 28.7 L59.8 32.8 59.3 33.1 58.55 32.5 59.0 29.35 60.15 28.7 M14.95 45.25 L13.25 45.25 12.2 43.6 12.15 40.9 15.15 45.25 14.95 45.25" fill="#8e7575" fill-rule="evenodd" stroke="none"/>
      <path d="M84.1 39.85 L85.65 39.85 85.6 40.3 84.4 42.05 84.1 39.85 M72.4 43.25 L70.65 42.15 74.75 39.85 72.4 43.25 M50.05 28.2 L48.95 30.05 46.65 25.75 50.05 28.2 M33.6 26.9 L34.85 31.45 32.85 30.95 33.6 26.9 M22.95 40.45 L27.05 42.75 25.3 43.85 22.95 40.45 M12.1 40.45 L12.7 40.45 13.7 40.45 15.0 40.45 15.6 40.45 Q16.75 42.15 16.35 43.8 L13.7 40.45 16.35 43.8 15.7 45.25 15.15 45.25 12.15 40.9 12.1 40.45 M25.65 18.9 L26.45 19.7 26.9 20.15 26.4 24.4 24.95 24.95 24.55 24.55 25.6 18.95 25.65 18.9 M46.65 13.55 L46.65 12.3 46.85 12.3 48.4 13.45 46.65 13.55 M72.5 20.65 L73.0 20.15 74.3 18.9 74.35 18.95 75.0 22.55 73.1 21.1 72.5 20.65 M73.0 20.15 L73.1 21.1 73.0 20.15 M58.8 29.5 L59.0 29.35 58.55 32.5 Q57.8 31.55 58.2 29.85 L58.8 29.5 M66.9 25.35 L67.45 28.3 65.65 27.85 65.45 26.8 66.9 25.35" fill="#b7aaaa" fill-rule="evenodd" stroke="none"/>
      <path d="M79.6 20.25 L80.35 21.2 Q79.95 22.6 78.55 23.0 L77.65 22.3 76.2 21.0 74.35 18.95 74.3 18.9 73.7 18.15 Q74.2 16.95 75.5 16.35 L76.2 16.9 Q78.1 18.45 79.6 20.25 M85.65 39.85 L85.75 38.9 Q86.95 38.4 88.3 38.9 L88.4 39.85 Q88.6 42.3 88.4 44.65 L88.3 45.75 Q87.0 46.45 85.75 45.75 L85.65 44.65 85.5 43.0 85.6 40.3 85.65 39.85 M63.75 30.65 L64.15 31.55 Q63.65 32.3 62.8 32.45 L62.6 32.45 61.95 31.55 61.05 30.1 60.35 28.6 60.25 28.3 Q60.65 27.75 61.35 27.55 L61.8 27.4 61.95 27.6 63.75 30.65 M11.85 46.4 L9.4 46.35 9.3 45.25 Q9.1 42.9 9.3 40.45 L9.4 39.5 Q10.75 39.0 11.95 39.5 L12.1 40.45 12.15 40.9 12.2 43.6 12.1 45.25 11.95 46.35 11.85 46.4 M22.3 22.3 L21.35 23.0 Q19.95 22.6 19.55 21.2 L20.3 20.25 Q21.8 18.45 23.7 16.9 L24.4 16.35 Q25.7 16.95 26.2 18.15 L25.65 18.9 25.6 18.95 23.7 21.0 22.3 22.3 M46.65 12.3 L45.7 12.15 Q45.2 10.95 45.7 9.6 L46.65 9.5 Q49.1 9.3 51.45 9.5 L52.55 9.6 Q53.25 10.9 52.55 12.15 L51.45 12.3 49.5 12.4 46.85 12.3 46.65 12.3" fill="#756153" fill-rule="evenodd" stroke="none"/>
      <path d="M62.8 32.45 Q63.4 35.6 63.45 38.95 L63.1 40.45 Q62.4 40.35 61.9 39.6 61.3 38.8 61.35 37.9 L61.3 37.9 Q60.6 40.5 60.2 40.5 59.6 40.5 58.65 37.85 L57.85 35.1 57.85 35.7 57.5 37.65 Q57.35 38.4 56.95 38.4 56.35 38.4 54.25 32.95 L52.95 29.35 52.25 26.7 51.45 24.4 50.3 21.55 49.5 19.85 48.55 18.15 47.85 17.0 46.4 18.4 Q45.25 19.25 43.95 19.45 L43.25 19.35 43.05 18.75 Q42.5 16.65 42.95 15.0 L43.25 14.1 46.65 13.55 48.4 13.45 51.1 13.45 51.45 13.5 55.7 14.1 56.2 15.2 Q56.75 16.95 56.2 18.4 L56.75 19.15 Q59.7 23.15 61.35 27.55 60.65 27.75 60.25 28.3 L60.35 28.6 60.15 28.7 59.0 29.35 58.8 29.5 Q58.45 29.05 58.15 29.15 57.8 29.25 57.65 29.95 57.6 30.75 57.85 31.7 58.1 32.65 58.55 33.2 59.0 33.9 59.35 33.8 59.7 33.7 59.8 32.85 L59.8 32.8 60.95 32.1 61.95 31.55 62.6 32.45 62.8 32.45 M56.2 18.4 L55.05 16.95 56.2 18.4" fill="url(#gradient0)" fill-rule="evenodd" stroke="none"/>
      <path d="M76.25 23.7 Q82.6 29.9 84.1 39.85 L84.4 42.05 84.55 44.55 84.55 44.65 84.55 45.3 84.3 49.0 Q83.95 51.45 83.35 51.45 82.35 51.45 81.0 49.8 L80.35 50.2 Q79.2 50.2 78.0 48.05 L77.45 46.95 77.25 44.65 77.8 44.65 79.3 44.65 Q79.5 45.0 79.8 45.0 L80.45 44.3 80.5 44.15 Q80.85 43.4 80.85 42.2 L80.75 40.95 80.5 40.25 80.45 40.15 79.8 39.45 Q79.5 39.45 79.25 39.85 L78.85 39.85 76.8 39.85 76.55 39.85 Q75.55 35.25 73.65 31.65 L74.4 32.1 Q74.95 32.5 75.3 32.5 L75.3 31.9 74.35 29.45 Q74.35 29.2 75.5 28.75 76.65 28.3 76.65 28.05 76.65 27.6 75.05 27.6 73.95 27.6 73.55 26.45 72.85 24.25 72.15 23.2 L70.4 21.05 68.75 19.45 Q68.1 19.45 68.0 20.8 67.95 22.15 67.65 22.15 L66.9 21.65 66.15 21.05 66.05 21.55 66.4 23.0 66.55 23.35 65.55 22.65 65.35 21.5 63.55 21.55 Q60.5 19.95 56.75 19.15 L56.2 18.4 Q56.75 16.95 56.2 15.2 62.45 16.05 68.9 18.55 L72.5 20.65 73.1 21.1 75.0 22.55 76.25 23.7" fill="url(#gradient1)" fill-rule="evenodd" stroke="none"/>
      <path d="M37.85 20.1 L35.45 21.1 Q32.85 22.3 30.75 24.05 L30.7 24.05 28.25 26.3 27.3 27.4 Q25.65 29.3 24.4 31.7 L23.6 31.25 Q23.05 31.25 22.75 32.25 L22.2 33.25 Q21.75 33.25 20.85 31.75 19.95 30.25 19.55 30.25 19.25 30.25 19.05 30.7 L18.85 31.6 Q18.85 32.75 19.75 34.35 L20.65 35.9 Q20.65 36.45 19.65 36.9 L17.8 37.6 Q17.55 37.75 17.55 38.0 17.55 38.85 18.7 38.85 19.95 38.85 21.95 37.55 L21.15 40.45 21.1 40.75 20.65 43.0 20.3 45.25 19.9 49.5 19.1 51.1 Q17.65 53.65 16.45 53.65 15.95 53.65 15.5 52.65 15.05 51.65 15.15 51.05 L15.05 51.05 14.65 52.7 Q14.15 53.9 13.5 53.9 12.55 53.9 11.85 51.85 L11.6 51.0 Q11.65 48.6 11.85 46.4 L11.95 46.35 12.1 45.25 13.25 45.25 14.95 45.25 Q15.25 45.85 15.65 45.85 16.15 45.85 16.5 44.95 16.85 44.1 16.85 42.9 16.85 41.7 16.5 40.8 16.15 39.95 15.65 39.95 15.25 39.95 15.0 40.45 L13.7 40.45 12.7 40.45 Q13.2 37.95 14.0 35.75 L15.3 34.5 16.3 33.35 Q16.15 31.5 16.8 29.45 19.15 25.5 22.55 22.55 L23.2 23.2 24.4 24.4 Q24.15 25.15 24.45 25.45 24.8 25.8 25.65 25.45 26.55 25.15 27.4 24.3 L28.6 22.5 Q28.95 21.65 28.6 21.3 28.35 21.05 27.9 21.15 L26.9 20.15 26.45 19.7 28.5 18.55 Q34.9 16.1 41.15 15.25 L41.45 16.45 Q41.45 18.35 37.85 20.1 M21.65 29.65 L21.6 29.85 21.65 30.1 21.8 30.45 22.25 30.6 Q23.05 30.6 23.05 29.7 L22.8 29.25 22.35 29.05 Q22.05 29.05 21.8 29.4 L21.8 29.45 21.65 29.65" fill="url(#gradient2)" fill-rule="evenodd" stroke="none"/>
      <path d="M84.55 45.3 L84.35 51.15 Q84.35 53.65 77.55 49.75 L77.45 46.95 78.0 48.05 Q79.2 50.2 80.35 50.2 L81.0 49.8 Q82.35 51.45 83.35 51.45 83.95 51.45 84.3 49.0 L84.55 45.3 M63.1 40.45 Q62.2 42.0 59.1 41.85 54.1 41.6 54.05 38.85 L53.9 35.85 53.55 32.55 52.95 29.35 54.25 32.95 Q56.35 38.4 56.95 38.4 57.35 38.4 57.5 37.65 L57.85 35.7 57.85 35.1 58.65 37.85 Q59.6 40.5 60.2 40.5 60.6 40.5 61.3 37.9 L61.35 37.9 Q61.3 38.8 61.9 39.6 62.4 40.35 63.1 40.45 M19.9 49.5 L19.75 52.9 Q20.05 55.45 11.6 54.05 L11.6 51.0 11.85 51.85 Q12.55 53.9 13.5 53.9 14.15 53.9 14.65 52.7 L15.05 51.05 15.15 51.05 Q15.05 51.65 15.5 52.65 15.95 53.65 16.45 53.65 17.65 53.65 19.1 51.1 L19.9 49.5 M14.0 35.75 Q15.1 32.3 16.8 29.45 16.15 31.5 16.3 33.35 L15.3 34.5 14.0 35.75" fill="#564e37" fill-rule="evenodd" stroke="none"/>
      <path d="M73.65 31.65 L71.2 27.8 71.95 27.0 72.65 26.85 Q72.95 26.55 72.55 25.75 L71.45 24.15 Q70.6 23.3 69.75 23.0 L68.7 22.95 Q68.5 23.2 68.6 23.7 L68.35 23.9 67.9 24.4 66.55 23.35 66.4 23.0 66.05 21.55 66.15 21.05 66.9 21.65 67.65 22.15 Q67.95 22.15 68.0 20.8 68.1 19.45 68.75 19.45 L70.4 21.05 72.15 23.2 Q72.85 24.25 73.55 26.45 73.95 27.6 75.05 27.6 76.65 27.6 76.65 28.05 76.65 28.3 75.5 28.75 74.35 29.2 74.35 29.45 L75.3 31.9 75.3 32.5 Q74.95 32.5 74.4 32.1 L73.65 31.65 M24.4 31.7 Q22.95 34.35 21.95 37.55 19.95 38.85 18.7 38.85 17.55 38.85 17.55 38.0 17.55 37.75 17.8 37.6 L19.65 36.9 Q20.65 36.45 20.65 35.9 L19.75 34.35 Q18.85 32.75 18.85 31.6 L19.05 30.7 Q19.25 30.25 19.55 30.25 19.95 30.25 20.85 31.75 21.75 33.25 22.2 33.25 L22.75 32.25 Q23.05 31.25 23.6 31.25 L24.4 31.7 M21.65 29.65 L21.8 29.45 21.8 29.4 Q22.05 29.05 22.35 29.05 L22.8 29.25 23.05 29.7 Q23.05 30.6 22.25 30.6 L21.8 30.45 21.65 30.1 21.6 29.85 21.65 29.65" fill="#706c5c" fill-rule="evenodd" stroke="none"/>
      <path d="M9.3 45.25 L8.75 45.25 Q7.9 49.1 5.85 51.35 2.35 51.15 0.0 49.05 1.0 46.05 4.7 43.05 L4.7 41.8 Q1.6 39.45 0.15 35.2 2.15 33.45 5.55 33.55 8.0 37.5 8.75 40.45 L9.3 40.45 Q9.1 42.9 9.3 45.25" fill="url(#gradient3)" fill-rule="evenodd" stroke="none"/>
      <path d="M20.3 20.25 L20.05 20.0 Q16.7 22.15 13.7 22.35 11.3 19.7 11.15 16.55 13.95 15.15 18.7 15.6 L19.6 14.75 Q19.05 10.85 21.05 6.85 23.7 7.05 26.0 9.5 24.95 14.05 23.45 16.65 L23.7 16.9 Q21.8 18.45 20.3 20.25" fill="url(#gradient4)" fill-rule="evenodd" stroke="none"/>
      <path d="M46.65 9.5 L46.65 8.95 Q43.7 8.15 39.75 5.55 39.65 2.0 41.4 -0.15 45.65 1.4 48.0 4.65 L49.25 4.65 Q52.25 0.75 55.25 -0.3 57.35 2.2 57.55 5.9 55.3 8.05 51.45 8.95 L51.45 9.5 Q49.1 9.3 46.65 9.5" fill="url(#gradient5)" fill-rule="evenodd" stroke="none"/>
      <path d="M76.2 16.9 L76.45 16.65 Q74.95 14.05 73.9 9.5 76.2 7.05 78.85 6.85 80.85 10.85 80.3 14.75 L81.2 15.6 Q85.95 15.15 88.75 16.55 88.6 19.7 86.2 22.35 83.2 22.15 79.85 20.0 L79.6 20.25 Q78.1 18.45 76.2 16.9" fill="url(#gradient6)" fill-rule="evenodd" stroke="none"/>
      <path d="M88.4 39.85 L88.95 39.85 Q89.7 36.9 92.15 32.95 95.55 32.85 97.55 34.6 96.1 38.85 93.0 41.2 L93.0 42.45 Q96.7 45.45 97.7 48.45 95.35 50.55 91.85 50.75 89.8 48.5 88.95 44.65 L88.4 44.65 Q88.6 42.3 88.4 39.85" fill="url(#gradient7)" fill-rule="evenodd" stroke="none"/>
      <path d="M69.65 29.35 L70.25 29.8 Q69.55 31.85 67.5 33.2 65.9 32.65 64.4 31.25 L64.2 31.1 63.75 30.65 61.95 27.6 Q61.4 25.55 61.5 22.4 62.55 21.75 63.55 21.55 L65.35 21.5 65.55 22.65 Q65.75 25.05 64.9 27.05 L65.25 27.6 65.35 27.8 65.65 27.85 67.45 28.3 69.2 29.1 69.65 29.35" fill="url(#gradient8)" fill-rule="evenodd" stroke="none"/>
      <path d="M49.5 19.85 L50.3 21.55 48.25 19.85 49.5 19.85" fill="#7a5a5a" fill-rule="evenodd" stroke="none"/>
      <path d="M46.65 19.75 L43.95 19.45 Q45.25 19.25 46.4 18.4 L47.85 17.0 48.55 18.15 49.5 19.85 48.25 19.85 46.65 19.75 M43.05 18.75 Q40.3 19.2 37.85 20.1 41.45 18.35 41.45 16.45 L41.15 15.25 42.95 15.0 Q42.5 16.65 43.05 18.75" fill="#737573" fill-rule="evenodd" stroke="none"/>
      <path d="M73.85 44.15 L72.4 43.25 74.75 39.85 76.55 39.85 76.8 39.85 73.85 44.15 M52.85 35.95 L51.35 36.05 52.75 33.05 52.85 35.95 M50.95 26.7 L50.05 28.2 46.65 25.75 46.65 23.55 50.95 26.7 M32.15 25.45 L33.6 26.9 32.85 30.95 31.15 30.55 32.15 25.45 M21.15 40.45 L22.95 40.45 25.3 43.85 23.85 44.75 21.1 40.75 21.15 40.45 M67.9 24.4 L68.35 23.9 69.2 29.1 67.45 28.3 66.9 25.35 67.9 24.4 M27.9 21.15 L28.25 21.5 Q27.9 23.55 26.4 24.4 L26.9 20.15 27.9 21.15" fill="#a89090" fill-rule="evenodd" stroke="none"/>
      <path d="M77.65 22.3 L76.7 23.2 76.2 21.0 77.65 22.3 M77.25 44.65 L75.45 44.65 78.85 39.85 79.25 39.85 79.45 39.85 80.4 41.4 80.45 41.65 80.45 42.95 Q80.25 43.8 79.5 44.65 L79.3 44.65 77.8 44.65 77.25 44.65 M71.2 27.8 L70.95 28.0 70.5 23.85 70.75 24.0 71.65 24.9 Q72.1 25.65 72.15 26.8 L71.95 27.0 71.2 27.8 M51.45 24.4 L51.45 25.0 46.65 21.4 46.65 19.75 48.25 19.85 50.3 21.55 51.45 24.4 M29.7 29.8 L28.0 28.1 27.3 27.4 28.25 26.3 28.0 28.1 28.25 26.3 30.7 24.05 29.7 29.8 M22.25 45.25 L20.3 45.25 20.65 43.0 22.25 45.25 M60.35 28.6 L61.05 30.1 61.95 31.55 60.95 32.1 59.8 32.8 60.15 28.7 60.35 28.6 M61.05 30.1 L60.95 32.1 61.05 30.1 M77.8 44.65 L80.4 41.4 77.8 44.65 M13.25 45.25 L12.1 45.25 12.2 43.6 13.25 45.25" fill="#7c6161" fill-rule="evenodd" stroke="none"/>
      <path d="M76.2 16.9 L76.45 16.65 Q74.95 14.05 73.9 9.5 76.2 7.05 78.85 6.85 80.85 10.85 80.3 14.75 L81.2 15.6 Q85.95 15.15 88.75 16.55 88.6 19.7 86.2 22.35 83.2 22.15 79.85 20.0 L79.6 20.25 80.35 21.2 Q79.95 22.6 78.55 23.0 L77.65 22.3 76.7 23.2 76.25 23.7 Q82.6 29.9 84.1 39.85 L85.65 39.85 85.75 38.9 Q86.95 38.4 88.3 38.9 L88.4 39.85 88.95 39.85 Q89.7 36.9 92.15 32.95 95.55 32.85 97.55 34.6 96.1 38.85 93.0 41.2 L93.0 42.45 Q96.7 45.45 97.7 48.45 95.35 50.55 91.85 50.75 89.8 48.5 88.95 44.65 L88.4 44.65 88.3 45.75 Q87.0 46.45 85.75 45.75 L85.65 44.65 84.55 44.65 84.55 45.3 84.35 51.15 Q84.35 53.65 77.55 49.75 L77.45 46.95 77.25 44.65 75.45 44.65 74.75 44.65 73.85 44.15 72.4 43.25 70.65 42.15 74.75 39.85 76.55 39.85 Q75.55 35.25 73.65 31.65 L71.2 27.8 70.95 28.0 69.65 29.35 70.25 29.8 Q69.55 31.85 67.5 33.2 65.9 32.65 64.4 31.25 L64.15 31.3 64.2 31.1 63.75 30.65 64.15 31.55 Q63.65 32.3 62.8 32.45 63.4 35.6 63.45 38.95 L63.1 40.45 Q62.2 42.0 59.1 41.85 54.1 41.6 54.05 38.85 L53.9 35.85 52.85 35.95 51.35 36.05 52.75 33.05 53.55 32.55 52.95 29.35 52.25 26.7 51.45 24.4 51.45 25.0 51.45 25.75 50.95 26.7 50.05 28.2 48.95 30.05 46.65 25.75 46.65 23.55 46.65 21.4 46.65 19.75 43.95 19.45 43.25 19.35 43.05 18.75 Q40.3 19.2 37.85 20.1 L35.45 21.1 Q32.85 22.3 30.75 24.05 L32.15 25.45 33.6 26.9 34.85 31.45 32.85 30.95 31.15 30.55 30.2 30.3 29.7 29.8 28.0 28.1 27.3 27.4 Q25.65 29.3 24.4 31.7 22.95 34.35 21.95 37.55 L21.15 40.45 22.95 40.45 27.05 42.75 25.3 43.85 23.85 44.75 22.95 45.25 22.25 45.25 20.3 45.25 19.9 49.5 19.75 52.9 Q20.05 55.45 11.6 54.05 L11.6 51.0 Q11.65 48.6 11.85 46.4 L9.4 46.35 9.3 45.25 8.75 45.25 Q7.9 49.1 5.85 51.35 2.35 51.15 0.0 49.05 1.0 46.05 4.7 43.05 L4.7 41.8 Q1.6 39.45 0.15 35.2 2.15 33.45 5.55 33.55 8.0 37.5 8.75 40.45 L9.3 40.45 9.4 39.5 Q10.75 39.0 11.95 39.5 L12.1 40.45 12.7 40.45 Q13.2 37.95 14.0 35.75 15.1 32.3 16.8 29.45 19.15 25.5 22.55 22.55 L22.3 22.3 21.35 23.0 Q19.95 22.6 19.55 21.2 L20.3 20.25 20.05 20.0 Q16.7 22.15 13.7 22.35 11.3 19.7 11.15 16.55 13.95 15.15 18.7 15.6 L19.6 14.75 Q19.05 10.85 21.05 6.85 23.7 7.05 26.0 9.5 24.95 14.05 23.45 16.65 L23.7 16.9 24.4 16.35 Q25.7 16.95 26.2 18.15 L25.65 18.9 26.45 19.7 28.5 18.55 Q34.9 16.1 41.15 15.25 L42.95 15.0 43.25 14.1 46.65 13.55 46.65 12.3 45.7 12.15 Q45.2 10.95 45.7 9.6 L46.65 9.5 46.65 8.95 Q43.7 8.15 39.75 5.55 39.65 2.0 41.4 -0.15 45.65 1.4 48.0 4.65 L49.25 4.65 Q52.25 0.75 55.25 -0.3 57.35 2.2 57.55 5.9 55.3 8.05 51.45 8.95 L51.45 9.5 52.55 9.6 Q53.25 10.9 52.55 12.15 L51.45 12.3 51.45 13.5 55.7 14.1 56.2 15.2 Q62.45 16.05 68.9 18.55 L72.5 20.65 73.0 20.15 74.3 18.9 73.7 18.15 Q74.2 16.95 75.5 16.35 L76.2 16.9 Q78.1 18.45 79.6 20.25 M85.6 40.3 L85.65 39.85 M85.5 43.0 L85.6 40.3 84.4 42.05 84.55 44.55 85.5 43.0 85.65 44.65 M84.4 42.05 L84.1 39.85 M84.55 44.65 L84.55 44.55 M88.4 39.85 Q88.6 42.3 88.4 44.65 M61.95 27.6 Q61.4 25.55 61.5 22.4 62.55 21.75 63.55 21.55 60.5 19.95 56.75 19.15 59.7 23.15 61.35 27.55 L61.8 27.4 61.95 27.6 63.75 30.65 M63.55 21.55 L65.35 21.5 65.55 22.65 66.55 23.35 67.9 24.4 68.35 23.9 68.6 23.7 68.8 23.45 70.5 23.85 70.95 28.0 M71.95 27.0 L71.2 27.8 M70.75 24.0 L70.5 23.85 70.5 23.75 M70.75 24.0 L71.65 24.9 Q72.1 25.65 72.15 26.8 L71.95 27.0 M74.35 18.95 L75.0 22.55 76.25 23.7 M73.1 21.1 L73.0 20.15 M75.0 22.55 L73.1 21.1 72.5 20.65 M74.35 18.95 L74.3 18.9 M76.2 21.0 L76.7 23.2 M77.65 22.3 L76.2 21.0 74.35 18.95 M46.85 12.3 L46.65 12.3 M46.65 13.55 L48.4 13.45 46.85 12.3 49.5 12.4 51.45 12.3 M47.85 17.0 L48.55 18.15 49.5 19.85 50.3 21.55 51.45 24.4 M49.5 19.85 L48.25 19.85 50.3 21.55 M48.25 19.85 L46.65 19.75 M43.05 18.75 Q42.5 16.65 42.95 15.0 M51.1 13.45 L51.45 13.5 M55.05 16.95 L56.2 18.4 Q56.75 16.95 56.2 15.2 M56.2 18.4 L56.75 19.15 M51.1 13.45 L49.5 12.4 M46.65 9.5 Q49.1 9.3 51.45 9.5 M48.4 13.45 L51.1 13.45 M61.35 27.55 Q60.65 27.75 60.25 28.3 L60.35 28.6 61.05 30.1 61.95 31.55 62.6 32.45 62.8 32.45 M60.35 28.6 L60.15 28.7 59.8 32.8 60.95 32.1 61.05 30.1 M59.0 29.35 L60.15 28.7 M58.8 29.5 L59.0 29.35 58.55 32.5 59.3 33.1 59.8 32.8 59.8 32.85 M58.8 29.5 L58.2 29.85 Q57.8 31.55 58.55 32.5 M53.9 35.85 L53.55 32.55 M52.75 33.05 L52.85 35.95 M46.65 25.75 L50.05 28.2 M67.45 28.3 L69.2 29.1 68.35 23.9 M67.45 28.3 L66.9 25.35 65.45 26.8 65.65 27.85 67.45 28.3 M69.2 29.1 L69.65 29.35 M65.55 22.65 Q65.75 25.05 64.9 27.05 L65.25 27.6 65.45 26.8 M65.65 27.85 L65.35 27.8 65.25 27.6 M60.95 32.1 L61.95 31.55 M64.4 31.25 L64.2 31.1 M79.25 39.85 L78.85 39.85 75.45 44.65 M80.4 41.4 L79.45 39.85 79.25 39.85 M79.3 44.65 L77.8 44.65 77.25 44.65 M76.8 39.85 L76.55 39.85 M80.45 41.65 L80.4 41.4 77.8 44.65 M80.45 41.3 L80.4 41.4 M78.85 39.85 L76.8 39.85 73.85 44.15 M74.75 39.85 L72.4 43.25 M79.3 44.65 L79.5 44.65 Q80.25 43.8 80.45 42.95 M67.9 24.4 L66.9 25.35 M46.65 21.4 L51.45 25.0 M46.65 23.55 L50.95 26.7 M22.55 22.55 L23.2 23.2 23.7 21.0 22.3 22.3 M23.2 23.2 L24.4 24.4 24.55 24.55 25.6 18.95 23.7 21.0 M27.9 21.15 L28.25 21.5 Q27.9 23.55 26.4 24.4 L24.95 24.95 24.55 24.55 M25.6 18.95 L25.65 18.9 M26.9 20.15 L26.45 19.7 M26.9 20.15 L26.4 24.4 M27.9 21.15 L26.9 20.15 M23.7 16.9 Q21.8 18.45 20.3 20.25 M30.75 24.05 L30.7 24.05 29.7 29.8 M9.3 40.45 Q9.1 42.9 9.3 45.25 M14.95 45.25 L13.25 45.25 12.1 45.25 11.95 46.35 11.85 46.4 M15.0 40.45 L13.7 40.45 16.35 43.8 Q16.75 42.15 15.6 40.45 L15.0 40.45 M13.7 40.45 L12.7 40.45 M12.15 40.9 L12.1 40.45 M14.95 45.25 L15.15 45.25 12.15 40.9 12.2 43.6 13.25 45.25 M12.1 45.25 L12.2 43.6 M15.15 45.25 L15.7 45.25 16.35 43.8 M33.6 26.9 L32.85 30.95 M31.15 30.55 L32.15 25.45 M28.25 26.3 L28.0 28.1 M28.25 26.3 L27.3 27.4 M21.15 40.45 L21.1 40.75 23.85 44.75 M21.1 40.75 L20.65 43.0 22.25 45.25 M20.65 43.0 L20.3 45.25 M22.95 40.45 L25.3 43.85 M30.7 24.05 L28.25 26.3" fill="none" stroke="#000000" stroke-linecap="round" stroke-linejoin="round" stroke-opacity="0.4" stroke-width="0.30000000000000004"/>
    </g>
    <linearGradient gradientTransform="matrix(0.0, 0.0126, -0.0173, 0.0, 53.15, 27.65)" gradientUnits="userSpaceOnUse" id="gradient0" spreadMethod="pad" x1="-819.2" x2="819.2">
      <stop offset="0.0" stop-color="#949694"/>
      <stop offset="1.0" stop-color="#696d69"/>
    </linearGradient>
    <linearGradient gradientTransform="matrix(0.0122, 0.0122, -0.0159, 0.0159, 70.35, 33.65)" gradientUnits="userSpaceOnUse" id="gradient1" spreadMethod="pad" x1="-819.2" x2="819.2">
      <stop offset="0.0" stop-color="#949694"/>
      <stop offset="1.0" stop-color="#696d69"/>
    </linearGradient>
    <linearGradient gradientTransform="matrix(-0.0081, 0.0174, -0.0218, -0.0102, 27.3, 34.75)" gradientUnits="userSpaceOnUse" id="gradient2" spreadMethod="pad" x1="-819.2" x2="819.2">
      <stop offset="0.0" stop-color="#949694"/>
      <stop offset="1.0" stop-color="#696d69"/>
    </linearGradient>
    <linearGradient gradientTransform="matrix(0.0026, 0.0098, -0.0105, 0.0028, 4.65, 42.45)" gradientUnits="userSpaceOnUse" id="gradient3" spreadMethod="pad" x1="-819.2" x2="819.2">
      <stop offset="0.0" stop-color="#a08383"/>
      <stop offset="1.0" stop-color="#5e5145"/>
    </linearGradient>
    <linearGradient gradientTransform="matrix(0.0019, 0.0047, -0.0088, 0.0035, 19.75, 14.6)" gradientUnits="userSpaceOnUse" id="gradient4" spreadMethod="pad" x1="-819.2" x2="819.2">
      <stop offset="0.0" stop-color="#a08383"/>
      <stop offset="1.0" stop-color="#5e5145"/>
    </linearGradient>
    <linearGradient gradientTransform="matrix(0.0, 0.0044, -0.006, 0.0, 48.65, 4.6)" gradientUnits="userSpaceOnUse" id="gradient5" spreadMethod="pad" x1="-819.2" x2="819.2">
      <stop offset="0.0" stop-color="#a08383"/>
      <stop offset="1.0" stop-color="#5e5145"/>
    </linearGradient>
    <linearGradient gradientTransform="matrix(0.0, 0.0043, -0.0095, 0.0, 81.3, 14.6)" gradientUnits="userSpaceOnUse" id="gradient6" spreadMethod="pad" x1="-819.2" x2="819.2">
      <stop offset="0.0" stop-color="#a08383"/>
      <stop offset="1.0" stop-color="#5e5145"/>
    </linearGradient>
    <linearGradient gradientTransform="matrix(-0.0028, 0.0049, -0.0094, -0.0054, 93.1, 41.9)" gradientUnits="userSpaceOnUse" id="gradient7" spreadMethod="pad" x1="-819.2" x2="819.2">
      <stop offset="0.0" stop-color="#a08383"/>
      <stop offset="1.0" stop-color="#5e5145"/>
    </linearGradient>
    <linearGradient gradientTransform="matrix(-0.0014, 0.0052, -0.0069, -0.0019, 65.85, 27.3)" gradientUnits="userSpaceOnUse" id="gradient8" spreadMethod="pad" x1="-819.2" x2="819.2">
      <stop offset="0.0" stop-color="#a08383"/>
      <stop offset="1.0" stop-color="#5e5145"/>
    </linearGradient>
  </defs>
</svg>
