<?xml version="1.0" encoding="UTF-8" standalone="no"?>
<svg xmlns:xlink="http://www.w3.org/1999/xlink" height="531.5px" width="460.6px" xmlns="http://www.w3.org/2000/svg">
  <g transform="matrix(1.0, 0.0, 0.0, 1.0, 193.65, 334.05)">
    <use height="135.75" transform="matrix(1.0, 0.0, 0.0, 1.0, -86.85, -90.3)" width="76.0" xlink:href="#shape0"/>
  </g>
  <defs>
    <g id="shape0" transform="matrix(1.0, 0.0, 0.0, 1.0, 86.85, 90.3)">
      <path d="M-67.1 -2.15 Q-70.25 -5.35 -70.25 -9.8 -70.25 -14.2 -67.1 -17.4 -63.9 -20.55 -59.5 -20.55 -55.05 -20.55 -51.9 -17.4 -48.7 -14.2 -48.7 -9.8 -48.7 -5.35 -51.9 -2.15 -55.05 1.0 -59.5 1.0 -63.9 1.0 -67.1 -2.15" fill="#009900" fill-rule="evenodd" stroke="none"/>
      <path d="M-67.1 -2.15 Q-63.9 1.0 -59.5 1.0 -55.05 1.0 -51.9 -2.15 -48.7 -5.35 -48.7 -9.8 -48.7 -14.2 -51.9 -17.4 -55.05 -20.55 -59.5 -20.55 -63.9 -20.55 -67.1 -17.4 -70.25 -14.2 -70.25 -9.8 -70.25 -5.35 -67.1 -2.15 Z" fill="none" stroke="#00cc00" stroke-linecap="round" stroke-linejoin="round" stroke-width="1.0"/>
      <path d="M-49.75 -9.65 Q-51.35 -11.25 -51.35 -13.5 -51.35 -15.75 -49.75 -17.35 -48.15 -18.95 -45.9 -18.95 -43.7 -18.95 -42.1 -17.35 -40.5 -15.75 -40.5 -13.5 -40.5 -11.25 -42.1 -9.65 -43.7 -8.05 -45.9 -8.05 -48.15 -8.05 -49.75 -9.65" fill="#009900" fill-rule="evenodd" stroke="none"/>
      <path d="M-49.75 -9.65 Q-48.15 -8.05 -45.9 -8.05 -43.7 -8.05 -42.1 -9.65 -40.5 -11.25 -40.5 -13.5 -40.5 -15.75 -42.1 -17.35 -43.7 -18.95 -45.9 -18.95 -48.15 -18.95 -49.75 -17.35 -51.35 -15.75 -51.35 -13.5 -51.35 -11.25 -49.75 -9.65 Z" fill="none" stroke="#00cc00" stroke-linecap="round" stroke-linejoin="round" stroke-width="1.0"/>
      <path d="M-43.55 -11.0 Q-43.55 -13.25 -41.95 -14.85 -40.35 -16.45 -38.1 -16.45 -35.9 -16.45 -34.3 -14.85 -32.7 -13.25 -32.7 -11.0 -32.7 -8.75 -34.3 -7.15 -35.9 -5.55 -38.1 -5.55 -40.35 -5.55 -41.95 -7.15 -43.55 -8.75 -43.55 -11.0" fill="#009900" fill-rule="evenodd" stroke="none"/>
      <path d="M-43.55 -11.0 Q-43.55 -8.75 -41.95 -7.15 -40.35 -5.55 -38.1 -5.55 -35.9 -5.55 -34.3 -7.15 -32.7 -8.75 -32.7 -11.0 -32.7 -13.25 -34.3 -14.85 -35.9 -16.45 -38.1 -16.45 -40.35 -16.45 -41.95 -14.85 -43.55 -13.25 -43.55 -11.0 Z" fill="none" stroke="#00cc00" stroke-linecap="round" stroke-linejoin="round" stroke-width="1.0"/>
      <path d="M-30.95 -7.2 Q-27.6 -82.9 -57.6 -89.8 -22.25 -87.35 -25.75 0.05 -27.85 -0.45 -30.95 -7.2" fill="#999999" fill-rule="evenodd" stroke="none"/>
      <path d="M-30.95 -7.2 Q-27.85 -0.45 -25.75 0.05 -22.25 -87.35 -57.6 -89.8 -27.6 -82.9 -30.95 -7.2 Z" fill="none" stroke="#000000" stroke-linecap="round" stroke-linejoin="round" stroke-opacity="0.5019608" stroke-width="1.0"/>
      <path d="M-62.2 -0.15 Q-43.25 1.85 -24.85 1.45 -21.8 1.6 -19.5 -0.4 L-19.4 -0.5 Q-12.65 7.15 -12.65 16.75 -12.65 28.85 -23.4 37.05 -26.15 39.15 -29.1 40.75 L-35.2 40.9 -47.5 40.05 Q-55.85 38.75 -61.55 35.45 -71.15 30.05 -71.15 20.0 -71.15 11.15 -65.2 3.3 L-62.2 -0.15 M-43.8 39.25 L-47.5 40.05 -43.8 39.25 M-38.8 34.9 Q-39.65 35.65 -42.9 35.65 L-46.3 35.15 -42.9 35.65 Q-39.65 35.65 -38.8 34.9 M-33.95 39.4 Q-34.45 40.0 -37.8 40.15 L-40.45 39.9 -37.8 40.15 Q-34.45 40.0 -33.95 39.4 M-30.5 35.45 L-34.2 36.15 -30.5 35.45" fill="#333333" fill-rule="evenodd" stroke="none"/>
      <path d="M-62.2 -0.15 L-73.25 -1.55 Q-76.0 -1.75 -77.9 -3.75 L-78.25 -4.05 Q-80.25 -6.35 -80.0 -9.35 -79.85 -12.25 -77.65 -14.35 -75.35 -16.35 -72.3 -16.2 L-60.35 -14.95 Q-62.6 -13.2 -62.6 -10.75 -62.6 -7.5 -54.6 -4.5 -45.0 -0.75 -29.85 -0.75 -24.25 -0.75 -19.5 -1.75 L-18.05 -2.0 -19.4 -0.5 -19.5 -0.4 Q-21.8 1.6 -24.85 1.45 -43.25 1.85 -62.2 -0.15" fill="#4d4d4d" fill-rule="evenodd" stroke="none"/>
      <path d="M-77.9 -3.75 Q-76.0 -1.75 -73.25 -1.55 L-62.2 -0.15 -65.2 3.3 Q-71.15 11.15 -71.15 20.0 -71.15 30.05 -61.55 35.45 -55.85 38.75 -47.5 40.05 L-35.2 40.9 -29.1 40.75 Q-38.05 45.25 -49.5 44.9 -64.8 44.5 -75.6 35.55 -86.35 26.8 -86.35 14.65 -86.35 3.95 -77.9 -3.75 M-53.0 39.4 Q-50.9 40.15 -49.4 40.15 L-47.5 40.05 -49.4 40.15 Q-50.9 40.15 -53.0 39.4" fill="#2b2b2b" fill-rule="evenodd" stroke="none"/>
      <path d="M-18.05 -2.0 L-19.5 -1.75 Q-24.25 -0.75 -29.85 -0.75 -45.0 -0.75 -54.6 -4.5 -62.6 -7.5 -62.6 -10.75 -62.6 -13.2 -60.35 -14.95 L-23.9 -13.2 Q-20.9 -13.0 -18.9 -10.7 -16.8 -8.4 -16.95 -5.5 -17.15 -3.55 -18.05 -2.0" fill="#696969" fill-rule="evenodd" stroke="none"/>
      <path d="M-77.9 -3.75 Q-76.0 -1.75 -73.25 -1.55 L-62.2 -0.15 Q-43.25 1.85 -24.85 1.45 -21.8 1.6 -19.5 -0.4 L-19.4 -0.5 -18.05 -2.0 Q-17.15 -3.55 -16.95 -5.5 -16.8 -8.4 -18.9 -10.7 -20.9 -13.0 -23.9 -13.2 L-60.35 -14.95 -72.3 -16.2 Q-75.35 -16.35 -77.65 -14.35 -79.85 -12.25 -80.0 -9.35 -80.25 -6.35 -78.25 -4.05 L-77.9 -3.75 Q-86.35 3.95 -86.35 14.65 -86.35 26.8 -75.6 35.55 -64.8 44.5 -49.5 44.9 -38.05 45.25 -29.1 40.75 -26.15 39.15 -23.4 37.05 -12.65 28.85 -12.65 16.75 -12.65 7.15 -19.4 -0.5 M-47.5 40.05 L-49.4 40.15 Q-50.9 40.15 -53.0 39.4 M-47.5 40.05 L-43.8 39.25 M-40.45 39.9 L-37.8 40.15 Q-34.45 40.0 -33.95 39.4 M-46.3 35.15 L-42.9 35.65 Q-39.65 35.65 -38.8 34.9 M-34.2 36.15 L-30.5 35.45" fill="none" stroke="#000000" stroke-linecap="round" stroke-linejoin="round" stroke-opacity="0.5019608" stroke-width="1.0"/>
      <path d="M-58.85 4.6 Q-58.85 6.45 -60.2 7.7 -61.45 8.95 -63.3 8.95 -65.15 8.95 -66.4 7.7 -67.7 6.45 -67.7 4.6 -67.7 2.8 -66.4 1.45 -65.15 0.2 -63.3 0.2 -61.45 0.2 -60.2 1.45 -58.85 2.8 -58.85 4.6" fill="#969696" fill-rule="evenodd" stroke="none"/>
      <path d="M-58.85 4.6 Q-58.85 6.45 -60.2 7.7 -61.45 8.95 -63.3 8.95 -65.15 8.95 -66.4 7.7 -67.7 6.45 -67.7 4.6 -67.7 2.8 -66.4 1.45 -65.15 0.2 -63.3 0.2 -61.45 0.2 -60.2 1.45 -58.85 2.8 -58.85 4.6 Z" fill="none" stroke="#000000" stroke-linecap="round" stroke-linejoin="round" stroke-opacity="0.5019608" stroke-width="1.0"/>
      <path d="M-65.35 5.2 Q-9.8 53.85 -11.95 20.25" fill="none" stroke="#000000" stroke-linecap="round" stroke-linejoin="round" stroke-width="2.0"/>
      <path d="M-62.05 6.4 L-62.85 6.4 Q-67.8 6.4 -71.15 3.3 -73.25 1.3 -73.75 -0.8 -71.65 -2.8 -68.75 -2.8 -65.8 -2.8 -63.8 -0.8 -61.7 1.3 -61.7 4.2 -61.7 5.35 -62.05 6.4" fill="#cccccc" fill-rule="evenodd" stroke="none"/>
      <path d="M-62.05 6.4 Q-62.55 7.9 -63.8 9.15 -65.8 11.25 -68.75 11.25 -71.65 11.25 -73.75 9.15 -75.75 7.15 -75.75 4.2 -75.75 1.3 -73.75 -0.8 -73.25 1.3 -71.15 3.3 -67.8 6.4 -62.85 6.4 L-62.05 6.4" fill="#999999" fill-rule="evenodd" stroke="none"/>
      <path d="M-73.75 -0.8 Q-75.75 1.3 -75.75 4.2 -75.75 7.15 -73.75 9.15 -71.65 11.25 -68.75 11.25 -65.8 11.25 -63.8 9.15 -62.55 7.9 -62.05 6.4 -61.7 5.35 -61.7 4.2 -61.7 1.3 -63.8 -0.8 -65.8 -2.8 -68.75 -2.8 -71.65 -2.8 -73.75 -0.8 Z" fill="none" stroke="#000000" stroke-linecap="round" stroke-linejoin="round" stroke-opacity="0.5019608" stroke-width="1.0"/>
    </g>
  </defs>
</svg>
