<?xml version="1.0" encoding="UTF-8" standalone="no"?>
<svg xmlns:xlink="http://www.w3.org/1999/xlink" height="531.5px" width="460.6px" xmlns="http://www.w3.org/2000/svg">
  <g transform="matrix(1.0, 0.0, 0.0, 1.0, 193.65, 334.05)">
    <use height="51.3" transform="matrix(0.6993, 0.0, 0.0, 0.6993, -72.9996, -179.9996)" width="180.4" xlink:href="#shape0"/>
  </g>
  <defs>
    <g id="shape0" transform="matrix(1.0, 0.0, 0.0, 1.0, 0.5, 0.5)">
      <path d="M150.9 0.05 L157.25 0.45 Q166.7 2.0 171.65 8.0 176.55 14.05 178.55 23.9 180.15 32.0 178.65 39.05 L177.85 42.15 Q175.2 50.55 161.45 50.3 L161.1 50.3 Q147.65 50.0 141.95 42.4 L139.7 39.05 Q135.45 31.9 132.65 20.7 132.05 18.3 131.85 16.2 L131.7 13.25 Q131.9 6.7 136.6 3.75 137.45 3.2 138.5 2.75 143.55 0.7 148.65 0.2 L150.9 0.05 M116.0 16.15 L115.0 20.7 Q111.65 31.9 106.65 39.05 L103.95 42.4 Q97.05 50.1 80.65 50.3 L78.85 50.3 78.75 50.3 78.7 50.3 Q64.1 50.05 61.15 42.15 L60.2 39.05 Q58.4 32.0 60.3 23.9 62.65 14.05 68.55 8.0 74.4 2.0 85.65 0.45 L91.1 0.05 99.8 0.7 Q103.95 1.35 108.05 2.75 109.3 3.2 110.4 3.8 115.9 6.75 116.15 13.25 L116.0 16.15 M175.4 24.1 Q174.45 19.25 172.7 15.5 171.3 12.6 169.45 10.35 167.0 7.35 163.25 5.65 160.5 4.35 157.05 3.8 148.9 2.5 140.8 5.8 132.7 9.1 135.75 21.3 138.55 32.55 143.05 39.05 L143.75 40.1 Q145.15 41.95 147.1 43.3 152.1 46.8 160.65 46.9 L161.7 46.9 Q172.6 46.8 174.8 39.85 L175.05 39.05 Q177.05 32.15 175.4 24.1 M105.3 5.8 L101.95 4.8 Q94.0 2.7 85.95 3.8 76.2 5.15 71.15 10.35 66.05 15.55 64.05 24.1 62.15 32.15 64.45 39.05 L64.75 39.85 Q65.45 41.7 66.85 43.05 71.05 47.05 81.65 46.9 L84.3 46.85 Q96.35 46.05 101.75 40.1 L102.65 39.05 Q107.95 32.55 111.3 21.3 114.15 11.65 108.75 7.6 L105.3 5.8" fill="#999999" fill-rule="evenodd" stroke="none"/>
      <path d="M175.4 24.1 Q177.05 32.15 175.05 39.05 L174.8 39.85 Q172.6 46.8 161.7 46.9 L160.65 46.9 Q152.1 46.8 147.1 43.3 145.15 41.95 143.75 40.1 L143.05 39.05 Q138.55 32.55 135.75 21.3 132.7 9.1 140.8 5.8 148.9 2.5 157.05 3.8 160.5 4.35 163.25 5.65 167.0 7.35 169.45 10.35 171.3 12.6 172.7 15.5 174.45 19.25 175.4 24.1 M105.3 5.8 L108.75 7.6 Q114.15 11.65 111.3 21.3 107.95 32.55 102.65 39.05 L101.75 40.1 Q96.35 46.05 84.3 46.85 L81.65 46.9 Q71.05 47.05 66.85 43.05 65.45 41.7 64.75 39.85 L64.45 39.05 Q62.15 32.15 64.05 24.1 66.05 15.55 71.15 10.35 76.2 5.15 85.95 3.8 94.0 2.7 101.95 4.8 L105.3 5.8" fill="#161616" fill-opacity="0.72156864" fill-rule="evenodd" stroke="none"/>
      <path d="M161.1 50.3 L159.4 50.3 Q145.65 50.1 139.85 42.4 L137.65 39.05 Q133.4 31.9 130.6 20.7 130.0 18.3 129.75 16.2 L129.7 15.45 Q127.65 14.8 125.45 14.65 L124.7 14.65 123.9 14.6 123.0 14.65 Q119.6 14.85 116.0 16.15 L116.15 13.25 Q119.65 11.9 123.0 11.7 L124.5 11.65 Q127.15 11.7 129.7 12.5 130.1 6.55 134.55 3.75 L136.6 3.75 134.55 3.75 110.4 3.8 Q109.3 3.2 108.05 2.75 103.95 1.35 99.8 0.7 L146.55 0.2 148.65 0.2 Q143.55 0.7 138.5 2.75 137.45 3.2 136.6 3.75 131.9 6.7 131.7 13.25 L131.85 16.2 Q132.05 18.3 132.65 20.7 135.45 31.9 139.7 39.05 L141.95 42.4 Q147.65 50.0 161.1 50.3 M78.7 50.3 Q62.35 50.55 59.2 42.15 L58.25 39.05 Q56.45 32.0 58.35 23.9 59.25 20.2 60.65 17.0 L58.75 17.05 58.9 16.6 42.15 16.5 43.0 14.0 60.0 13.85 60.1 13.5 62.45 13.5 63.0 12.6 Q64.6 10.1 66.6 8.0 72.45 2.0 83.7 0.45 L91.1 0.05 85.65 0.45 Q74.4 2.0 68.55 8.0 62.65 14.05 60.3 23.9 58.4 32.0 60.2 39.05 L61.15 42.15 Q64.1 50.05 78.7 50.3 M131.7 13.25 L129.7 12.5 131.7 13.25 M129.7 15.45 L131.85 16.2 129.7 15.45 M58.9 16.6 L60.0 13.85 58.9 16.6 M62.45 13.5 L61.25 15.7 60.65 17.0 61.25 15.7 62.45 13.5" fill="#cccccc" fill-rule="evenodd" stroke="none"/>
      <path d="M42.15 16.5 L17.4 16.3 Q4.25 17.6 3.6 30.3 3.8 35.25 1.8 34.1 -0.2 32.95 0.05 31.4 2.5 14.1 18.1 14.15 L43.0 14.0 42.15 16.5" fill="#333333" fill-rule="evenodd" stroke="none"/>
      <path d="M150.9 0.05 L157.25 0.45 Q166.7 2.0 171.65 8.0 176.55 14.05 178.55 23.9 180.15 32.0 178.65 39.05 L177.85 42.15 Q175.2 50.55 161.45 50.3 L161.1 50.3 159.4 50.3 Q145.65 50.1 139.85 42.4 L137.65 39.05 Q133.4 31.9 130.6 20.7 130.0 18.3 129.75 16.2 L129.7 15.45 Q127.65 14.8 125.45 14.65 L124.7 14.65 123.9 14.6 123.0 14.65 Q119.6 14.85 116.0 16.15 L115.0 20.7 Q111.65 31.9 106.65 39.05 L103.95 42.4 Q97.05 50.1 80.65 50.3 L78.85 50.3 78.75 50.3 78.7 50.3 Q62.35 50.55 59.2 42.15 L58.25 39.05 Q56.45 32.0 58.35 23.9 59.25 20.2 60.65 17.0 L58.75 17.05 58.9 16.6 42.15 16.5 17.4 16.3 Q4.25 17.6 3.6 30.3 3.8 35.25 1.8 34.1 -0.2 32.95 0.05 31.4 2.5 14.1 18.1 14.15 L43.0 14.0 60.0 13.85 60.1 13.5 62.45 13.5 63.0 12.6 Q64.6 10.1 66.6 8.0 72.45 2.0 83.7 0.45 L91.1 0.05 99.8 0.7 146.55 0.2 150.9 0.05 148.65 0.2 Q143.55 0.7 138.5 2.75 137.45 3.2 136.6 3.75 131.9 6.7 131.7 13.25 L131.85 16.2 Q132.05 18.3 132.65 20.7 135.45 31.9 139.7 39.05 L141.95 42.4 Q147.65 50.0 161.1 50.3 M175.4 24.1 Q177.05 32.15 175.05 39.05 L174.8 39.85 Q172.6 46.8 161.7 46.9 L160.65 46.9 Q152.1 46.8 147.1 43.3 145.15 41.95 143.75 40.1 L143.05 39.05 Q138.55 32.55 135.75 21.3 132.7 9.1 140.8 5.8 148.9 2.5 157.05 3.8 160.5 4.35 163.25 5.65 167.0 7.35 169.45 10.35 171.3 12.6 172.7 15.5 174.45 19.25 175.4 24.1 M146.55 0.2 L148.65 0.2 M136.6 3.75 L134.55 3.75 Q130.1 6.55 129.7 12.5 L131.7 13.25 M116.15 13.25 Q119.65 11.9 123.0 11.7 L124.5 11.65 Q127.15 11.7 129.7 12.5 M131.85 16.2 L129.7 15.45 M99.8 0.7 Q103.95 1.35 108.05 2.75 109.3 3.2 110.4 3.8 L134.55 3.75 M116.15 13.25 L116.0 16.15 M110.4 3.8 Q115.9 6.75 116.15 13.25 M105.3 5.8 L101.95 4.8 Q94.0 2.7 85.95 3.8 76.2 5.15 71.15 10.35 66.05 15.55 64.05 24.1 62.15 32.15 64.45 39.05 L64.75 39.85 Q65.45 41.7 66.85 43.05 71.05 47.05 81.65 46.9 L84.3 46.85 Q96.35 46.05 101.75 40.1 L102.65 39.05 Q107.95 32.55 111.3 21.3 114.15 11.65 108.75 7.6 L105.3 5.8 M78.7 50.3 Q64.1 50.05 61.15 42.15 L60.2 39.05 Q58.4 32.0 60.3 23.9 62.65 14.05 68.55 8.0 74.4 2.0 85.65 0.45 L91.1 0.05 M60.65 17.0 L61.25 15.7 62.45 13.5 M60.0 13.85 L58.9 16.6" fill="none" stroke="#000000" stroke-linecap="round" stroke-linejoin="round" stroke-opacity="0.5019608" stroke-width="1.0"/>
      <path d="M172.7 15.5 Q160.4 28.35 161.7 46.9 L160.65 46.9 Q152.1 46.8 147.1 43.3 156.55 29.5 163.25 5.65 167.0 7.35 169.45 10.35 171.3 12.6 172.7 15.5" fill="url(#gradient0)" fill-rule="evenodd" stroke="none"/>
      <path d="M105.3 5.8 L108.75 7.6 Q92.2 27.65 84.3 46.85 L81.65 46.9 Q71.05 47.05 66.85 43.05 89.45 26.45 101.95 4.8 L105.3 5.8" fill="url(#gradient1)" fill-rule="evenodd" stroke="none"/>
    </g>
    <linearGradient gradientTransform="matrix(-0.0077, 0.019, -0.0234, -0.0094, 164.9, 21.7)" gradientUnits="userSpaceOnUse" id="gradient0" spreadMethod="pad" x1="-819.2" x2="819.2">
      <stop offset="0.11764705882352941" stop-color="#ffffff"/>
      <stop offset="1.0" stop-color="#ffffff" stop-opacity="0.0"/>
    </linearGradient>
    <linearGradient gradientTransform="matrix(-0.0066, 0.0247, -0.0248, -0.0067, 90.9, 21.4)" gradientUnits="userSpaceOnUse" id="gradient1" spreadMethod="pad" x1="-819.2" x2="819.2">
      <stop offset="0.11764705882352941" stop-color="#ffffff"/>
      <stop offset="1.0" stop-color="#ffffff" stop-opacity="0.0"/>
    </linearGradient>
  </defs>
</svg>
