<?xml version="1.0" encoding="UTF-8" standalone="no"?>
<svg xmlns:xlink="http://www.w3.org/1999/xlink" height="531.5px" width="460.6px" xmlns="http://www.w3.org/2000/svg">
  <g transform="matrix(1.0, 0.0, 0.0, 1.0, 193.65, 334.05)">
    <use height="41.8" transform="matrix(1.665, 0.0, 0.0, 1.665, -35.95, -169.0)" width="48.85" xlink:href="#shape0"/>
  </g>
  <defs>
    <g id="shape0" transform="matrix(1.0, 0.0, 0.0, 1.0, 0.0, 0.0)">
      <path d="M30.05 15.45 L31.6 17.4 34.3 20.75 37.2 24.4 39.75 27.65 40.6 28.7 42.1 28.55 Q44.8 28.55 46.7 30.45 48.6 32.35 48.6 35.05 48.6 37.75 46.7 39.65 44.8 41.55 42.1 41.55 39.4 41.55 37.5 39.65 35.6 37.75 35.6 35.05 35.6 33.6 36.15 32.4 L24.4 15.45 26.4 15.45 29.4 19.6 38.75 32.65 Q38.1 33.65 38.1 34.95 38.1 36.65 39.25 37.8 40.45 39.0 42.15 39.0 43.85 39.0 45.0 37.8 46.2 36.65 46.2 34.95 46.2 33.25 45.0 32.05 43.85 30.9 42.15 30.9 L40.7 31.15 35.9 25.1 37.2 24.4 35.9 25.1 31.3 19.3 30.25 18.0 28.2 15.45 30.05 15.45 M31.6 17.4 L30.25 18.0 31.6 17.4 M33.55 21.1 L34.3 20.75 33.55 21.1 M39.05 28.05 L39.75 27.65 39.05 28.05" fill="#69a1af" fill-opacity="0.8" fill-rule="evenodd" stroke="none"/>
      <path d="M35.9 25.1 L40.7 31.15 42.15 30.9 Q43.85 30.9 45.0 32.05 46.2 33.25 46.2 34.95 46.2 36.65 45.0 37.8 43.85 39.0 42.15 39.0 40.45 39.0 39.25 37.8 38.1 36.65 38.1 34.95 38.1 33.65 38.75 32.65 L29.4 19.6 31.3 19.3 35.9 25.1 35.25 25.45 35.9 25.1" fill="#dd0000" fill-rule="evenodd" stroke="none"/>
      <path d="M29.4 19.6 L26.4 15.45 28.2 15.45 30.25 18.0 29.85 18.15 30.25 18.0 31.3 19.3 29.4 19.6" fill="#73888e" fill-opacity="0.8" fill-rule="evenodd" stroke="none"/>
      <path d="M30.05 15.45 L31.6 17.4 34.3 20.75 37.2 24.4 39.75 27.65 40.6 28.7 42.1 28.55 Q44.8 28.55 46.7 30.45 48.6 32.35 48.6 35.05 48.6 37.75 46.7 39.65 44.8 41.55 42.1 41.55 39.4 41.55 37.5 39.65 35.6 37.75 35.6 35.05 35.6 33.6 36.15 32.4 L24.4 15.45 23.1 15.45 M35.9 25.1 L40.7 31.15 42.15 30.9 Q43.85 30.9 45.0 32.05 46.2 33.25 46.2 34.95 46.2 36.65 45.0 37.8 43.85 39.0 42.15 39.0 40.45 39.0 39.25 37.8 38.1 36.65 38.1 34.95 38.1 33.65 38.75 32.65 L29.4 19.6 26.4 15.45 24.4 15.45 M28.2 15.45 L30.05 15.45 31.7 15.45 M26.4 15.45 L28.2 15.45 30.25 18.0 31.6 17.4 M30.25 18.0 L29.85 18.15 M34.3 20.75 L33.55 21.1 M31.3 19.3 L30.25 18.0 M39.75 27.65 L39.05 28.05 M35.9 25.1 L35.25 25.45 M35.9 25.1 L37.2 24.4 M31.3 19.3 L35.9 25.1" fill="none" stroke="#000000" stroke-linecap="round" stroke-linejoin="round" stroke-opacity="0.3019608" stroke-width="0.5"/>
      <path d="M6.25 10.1 Q-0.05 8.0 0.0 5.45 0.05 2.85 6.45 1.3 12.85 -0.3 21.75 0.1 30.65 0.45 36.95 2.55 43.25 4.65 43.2 7.25 43.15 9.8 36.75 11.35 30.35 12.95 21.45 12.6 12.55 12.2 6.25 10.1" fill="url(#gradient0)" fill-rule="evenodd" stroke="none"/>
      <path d="M46.7 36.1 Q46.05 36.75 45.1 36.75 44.15 36.75 43.5 36.1 42.85 35.45 42.85 34.5 42.85 33.55 43.5 32.9 44.15 32.25 45.1 32.25 46.05 32.25 46.7 32.9 47.35 33.55 47.35 34.5 47.35 35.45 46.7 36.1" fill="#e7f3fc" fill-opacity="0.5019608" fill-rule="evenodd" stroke="none"/>
    </g>
    <radialGradient cx="0" cy="0" gradientTransform="matrix(0.0274, 0.0011, -2.0E-4, 0.0079, 21.6, 6.35)" gradientUnits="userSpaceOnUse" id="gradient0" r="819.2" spreadMethod="pad">
      <stop offset="0.0" stop-color="#ff0000" stop-opacity="0.23137255"/>
      <stop offset="1.0" stop-color="#ff0000" stop-opacity="0.0"/>
    </radialGradient>
  </defs>
</svg>
