<?xml version="1.0" encoding="UTF-8" standalone="no"?>
<svg xmlns:xlink="http://www.w3.org/1999/xlink" height="531.5px" width="460.6px" xmlns="http://www.w3.org/2000/svg">
  <g transform="matrix(1.0, 0.0, 0.0, 1.0, 193.65, 334.05)">
    <use height="41.7" transform="matrix(1.0, 0.0, 0.0, 1.0, -72.5, -193.65)" width="42.1" xlink:href="#shape0"/>
  </g>
  <defs>
    <g id="shape0" transform="matrix(1.0, 0.0, 0.0, 1.0, 72.5, 193.65)">
      <path d="M-34.6 -183.85 Q-35.05 -184.35 -36.2 -184.1 -37.25 -183.7 -38.3 -182.75 L-62.5 -160.3 -64.1 -158.25 Q-64.35 -157.2 -63.85 -156.75 L-62.5 -156.6 Q-61.35 -157.0 -60.3 -157.95 L-36.1 -180.4 Q-35.0 -181.35 -34.65 -182.4 -34.2 -183.45 -34.6 -183.85 M-30.95 -183.55 Q-30.95 -181.75 -32.15 -180.65 L-60.9 -154.1 Q-62.1 -153.05 -63.8 -153.1 -65.45 -153.2 -66.5 -154.35 -67.65 -155.55 -67.65 -157.2 -67.5 -158.9 -66.3 -159.95 L-37.55 -186.5 Q-36.35 -187.65 -34.8 -187.65 -33.05 -187.5 -31.9 -186.25 -30.9 -185.15 -30.95 -183.55" fill="#6e6e6e" fill-rule="evenodd" stroke="none"/>
      <path d="M-34.6 -183.85 Q-35.05 -184.35 -36.2 -184.1 -37.25 -183.7 -38.3 -182.75 L-62.5 -160.3 -64.1 -158.25 Q-64.35 -157.2 -63.85 -156.75 L-62.5 -156.6 Q-61.35 -157.0 -60.3 -157.95 L-36.1 -180.4 Q-35.0 -181.35 -34.65 -182.4 -34.2 -183.45 -34.6 -183.85 M-30.95 -183.55 Q-30.9 -185.15 -31.9 -186.25 -33.05 -187.5 -34.8 -187.65 -36.35 -187.65 -37.55 -186.5 L-66.3 -159.95 Q-67.5 -158.9 -67.65 -157.2 -67.65 -155.55 -66.5 -154.35 -65.45 -153.2 -63.8 -153.1 -62.1 -153.05 -60.9 -154.1 L-32.15 -180.65 Q-30.95 -181.75 -30.95 -183.55" fill="none" stroke="#000000" stroke-linecap="round" stroke-linejoin="round" stroke-opacity="0.4" stroke-width="1.0"/>
      <path d="M-40.05 -155.4 Q-43.1 -153.5 -49.95 -157.9 -51.65 -153.7 -55.8 -152.6 -60.1 -151.45 -60.25 -160.55 -63.55 -159.5 -67.75 -162.8 -72.0 -166.2 -72.0 -174.0 -72.05 -181.9 -66.45 -187.5 -64.25 -189.7 -61.75 -190.95 -57.75 -193.15 -52.85 -193.15 -44.9 -193.15 -38.9 -187.75 -33.05 -182.45 -36.05 -173.45 -30.45 -168.5 -30.95 -165.15 -31.35 -162.4 -37.55 -162.95 -37.15 -157.4 -40.05 -155.4 M-38.7 -170.6 L-36.05 -173.45 -38.7 -170.6 M-49.7 -173.75 Q-44.0 -167.4 -39.75 -174.9 -37.65 -184.2 -43.35 -187.35 -46.25 -180.1 -49.7 -173.75 M-57.5 -161.45 L-60.25 -160.55 -57.5 -161.45 M-63.3 -186.2 L-66.45 -187.5 -63.3 -186.2 -61.75 -190.95 -63.3 -186.2 -64.2 -183.55 -55.75 -185.35 -55.75 -182.75 -55.75 -185.35 -64.2 -183.55 -63.3 -186.2 M-59.1 -164.1 Q-50.45 -164.0 -53.1 -172.2 L-68.05 -173.45 Q-68.2 -167.0 -59.1 -164.1" fill="#fffff7" fill-rule="evenodd" stroke="none"/>
      <path d="M-49.7 -173.75 Q-46.25 -180.1 -43.35 -187.35 -37.65 -184.2 -39.75 -174.9 -44.0 -167.4 -49.7 -173.75 M-59.1 -164.1 Q-68.2 -167.0 -68.05 -173.45 L-53.1 -172.2 Q-50.45 -164.0 -59.1 -164.1" fill="#000000" fill-rule="evenodd" stroke="none"/>
      <path d="M-40.05 -155.4 Q-43.1 -153.5 -49.95 -157.9 -51.65 -153.7 -55.8 -152.6 -60.1 -151.45 -60.25 -160.55 -63.55 -159.5 -67.75 -162.8 -72.0 -166.2 -72.0 -174.0 -72.05 -181.9 -66.45 -187.5 -64.25 -189.7 -61.75 -190.95 -57.75 -193.15 -52.85 -193.15 -44.9 -193.15 -38.9 -187.75 -33.05 -182.45 -36.05 -173.45 -30.45 -168.5 -30.95 -165.15 -31.35 -162.4 -37.55 -162.95 -37.15 -157.4 -40.05 -155.4 M-36.05 -173.45 L-38.7 -170.6 M-49.7 -173.75 Q-44.0 -167.4 -39.75 -174.9 -37.65 -184.2 -43.35 -187.35 -46.25 -180.1 -49.7 -173.75 M-61.75 -190.95 L-63.3 -186.2 -64.2 -183.55 -55.75 -185.35 -55.75 -182.75 M-66.45 -187.5 L-63.3 -186.2 M-60.25 -160.55 L-57.5 -161.45 M-59.1 -164.1 Q-68.2 -167.0 -68.05 -173.45 L-53.1 -172.2 Q-50.45 -164.0 -59.1 -164.1" fill="none" stroke="#000000" stroke-linecap="round" stroke-linejoin="round" stroke-opacity="0.4" stroke-width="1.0"/>
    </g>
  </defs>
</svg>
