<?xml version="1.0" encoding="UTF-8" standalone="no"?>
<svg xmlns:xlink="http://www.w3.org/1999/xlink" height="531.5px" width="460.6px" xmlns="http://www.w3.org/2000/svg">
  <g transform="matrix(1.0, 0.0, 0.0, 1.0, 193.65, 334.05)">
    <use height="22.8" transform="matrix(1.9412, 0.0, 0.0, 1.9412, -87.8706, -189.3206)" width="85.0" xlink:href="#sprite0"/>
  </g>
  <defs>
    <g id="sprite0" transform="matrix(1.0, 0.0, 0.0, 1.0, 0.5, 0.5)">
      <use height="22.8" transform="matrix(1.0, 0.0, 0.0, 1.0, -0.5, -0.5)" width="85.0" xlink:href="#shape0"/>
    </g>
    <g id="shape0" transform="matrix(1.0, 0.0, 0.0, 1.0, 0.5, 0.5)">
      <path d="M70.25 15.45 Q70.1 14.4 70.25 13.5 78.1 8.45 81.75 3.3 84.75 -0.2 83.75 3.25 L83.3 4.6 82.8 4.35 Q82.25 4.35 80.45 6.1 78.7 7.75 78.45 8.35 L77.4 9.3 76.65 9.65 75.25 11.05 72.4 13.65 70.25 15.45 M2.25 4.45 L0.15 1.65 Q-0.6 -1.35 2.05 1.05 11.8 10.45 17.9 14.4 20.25 15.3 20.65 17.35 17.25 16.0 15.5 14.6 13.15 12.1 11.05 10.45 L6.85 6.6 Q3.8 3.75 3.1 3.75 2.5 3.75 2.35 4.05 L2.25 4.45" fill="#bdbdbd" fill-rule="evenodd" stroke="none"/>
      <path d="M83.3 4.6 Q82.05 7.65 78.8 12.2 L73.45 18.4 Q71.1 22.5 70.5 16.65 L70.25 15.45 72.4 13.65 75.25 11.05 76.65 9.65 77.4 9.3 78.45 8.35 Q78.7 7.75 80.45 6.1 82.25 4.35 82.8 4.35 L83.3 4.6 M72.75 16.85 Q73.15 15.6 72.2 14.95 L71.55 15.45 72.2 14.95 Q76.25 11.9 78.85 8.85 76.25 11.9 72.2 14.95 73.15 15.6 72.75 16.85 M20.65 17.35 Q20.9 18.75 20.35 20.65 L19.2 21.8 Q16.8 22.1 12.7 17.75 L12.05 17.05 11.15 16.15 10.95 16.05 11.2 15.95 11.3 15.85 11.35 15.8 11.8 15.4 11.9 15.1 11.55 14.4 11.05 13.95 10.2 13.95 9.45 14.2 2.25 4.45 2.35 4.05 Q2.5 3.75 3.1 3.75 3.8 3.75 6.85 6.6 L11.05 10.45 Q13.15 12.1 15.5 14.6 17.25 16.0 20.65 17.35 M17.45 19.75 Q16.4 18.35 17.8 17.25 L18.95 17.85 17.8 17.25 Q16.4 18.35 17.45 19.75 M17.8 17.25 Q11.8 13.95 8.05 9.35 11.8 13.95 17.8 17.25" fill="#989898" fill-rule="evenodd" stroke="none"/>
      <path d="M8.4 16.15 L8.5 15.55 8.7 14.95 9.2 15.25 Q10.35 15.85 11.0 15.85 L11.15 15.85 11.2 15.95 10.95 16.05 10.65 16.5 10.1 16.55 Q9.5 16.55 8.4 16.15" fill="#ffffff" fill-rule="evenodd" stroke="none"/>
      <path d="M12.7 17.75 Q11.6 18.5 10.75 18.5 9.8 18.5 9.15 18.0 8.4 17.4 8.4 16.3 L8.4 16.15 Q9.5 16.55 10.1 16.55 L10.65 16.5 10.55 16.95 12.05 17.05 12.7 17.75 M8.7 14.95 Q8.95 14.4 9.45 14.2 L10.2 13.95 11.05 13.95 11.55 14.4 11.9 15.1 11.8 15.4 11.35 15.8 11.3 15.85 11.2 15.95 11.15 15.85 11.0 15.85 Q10.35 15.85 9.2 15.25 L8.7 14.95" fill="#ffcc33" fill-rule="evenodd" stroke="none"/>
      <path d="M70.25 15.45 Q70.1 14.4 70.25 13.5 78.1 8.45 81.75 3.3 84.75 -0.2 83.75 3.25 L83.3 4.6 Q82.05 7.65 78.8 12.2 L73.45 18.4 Q71.1 22.5 70.5 16.65 L70.25 15.45 M71.55 15.45 L72.2 14.95 Q76.25 11.9 78.85 8.85 M72.2 14.95 Q73.15 15.6 72.75 16.85 M20.65 17.35 Q20.9 18.75 20.35 20.65 L19.2 21.8 Q16.8 22.1 12.7 17.75 11.6 18.5 10.75 18.5 9.8 18.5 9.15 18.0 8.4 17.4 8.4 16.3 L8.4 16.15 8.5 15.55 8.7 14.95 Q8.95 14.4 9.45 14.2 L2.25 4.45 0.15 1.65 Q-0.6 -1.35 2.05 1.05 11.8 10.45 17.9 14.4 20.25 15.3 20.65 17.35 M10.65 16.5 L10.95 16.05 11.2 15.95 11.3 15.85 11.35 15.8 M18.95 17.85 L17.8 17.25 Q16.4 18.35 17.45 19.75 M9.45 14.2 L10.2 13.95 11.05 13.95 11.55 14.4 11.9 15.1 11.8 15.4 M10.95 16.05 L11.15 16.15 12.05 17.05 12.7 17.75 M10.65 16.5 L10.55 16.95 12.05 17.05 M8.05 9.35 Q11.8 13.95 17.8 17.25" fill="none" stroke="#000000" stroke-linecap="round" stroke-linejoin="round" stroke-opacity="0.6627451" stroke-width="1.0"/>
    </g>
  </defs>
</svg>
