<?xml version="1.0" encoding="UTF-8" standalone="no"?>
<svg xmlns:xlink="http://www.w3.org/1999/xlink" height="531.5px" width="460.6px" xmlns="http://www.w3.org/2000/svg">
  <g transform="matrix(1.0, 0.0, 0.0, 1.0, 193.65, 334.05)">
    <use height="54.1" transform="matrix(0.9927, 0.0, 0.0, 0.9927, -69.8971, -114.5471)" width="135.8" xlink:href="#shape0"/>
  </g>
  <defs>
    <g id="shape0" transform="matrix(1.0, 0.0, 0.0, 1.0, 0.4, 0.4)">
      <path d="M135.0 10.6 L135.0 10.75 133.65 13.8 133.1 15.0 132.2 17.1 131.55 18.45 131.55 18.5 131.05 19.55 130.25 20.1 110.95 27.75 Q96.9 30.15 82.7 28.7 68.0 27.35 53.7 23.3 40.4 19.55 27.4 15.0 L4.4 6.6 2.1 5.8 3.1 3.1 Q3.8 1.4 4.4 0.6 L27.4 9.0 Q40.4 13.55 53.7 17.3 68.0 21.35 82.7 22.7 96.9 24.15 110.95 21.75 124.35 19.3 135.0 10.6" fill="#899bc5" fill-rule="evenodd" stroke="none"/>
      <path d="M127.9 12.3 L126.55 2.65 Q133.2 5.25 135.0 7.75 L135.0 10.6 Q124.35 19.3 110.95 21.75 96.9 24.15 82.7 22.7 68.0 21.35 53.7 17.3 40.4 13.55 27.4 9.0 L4.4 0.6 4.45 0.5 5.05 0.15 6.0 0.0 Q9.7 0.0 33.5 8.35 61.15 16.75 84.25 16.75 L116.85 15.25 Q123.2 14.3 127.9 12.3 L131.55 10.45 127.9 12.3" fill="#ad7fb1" fill-rule="evenodd" stroke="none"/>
      <path d="M2.1 5.8 L4.4 6.6 27.4 15.0 Q40.4 19.55 53.7 23.3 68.0 27.35 82.7 28.7 96.9 30.15 110.95 27.75 L130.25 20.1 130.85 19.7 131.05 19.6 131.75 19.1 Q132.8 22.55 132.45 25.6 L131.75 26.1 131.05 26.55 130.25 27.1 110.95 34.75 Q96.9 37.15 82.7 35.7 68.0 34.35 53.7 30.3 40.4 26.55 27.4 22.0 L4.4 13.6 1.4 13.6 3.9 10.7 Q2.0 6.95 2.0 6.25 L2.1 5.8 M4.95 12.7 L3.9 10.7 4.95 12.7" fill="#a8d8ed" fill-rule="evenodd" stroke="none"/>
      <path d="M130.25 20.1 L131.05 19.55 131.55 18.5 131.75 19.1 131.05 19.6 131.05 19.55 131.05 19.6 130.85 19.7 130.25 20.1" fill="url(#gradient0)" fill-rule="evenodd" stroke="none"/>
      <path d="M132.45 25.6 Q132.2 27.3 131.55 28.9 L127.7 32.4 124.05 36.35 110.95 41.5 Q96.9 43.9 82.7 42.45 68.0 41.1 53.7 37.05 40.4 33.3 27.4 28.75 L4.4 20.35 0.1 18.85 0.05 16.4 Q0.35 14.4 1.4 13.6 L4.4 13.6 27.4 22.0 Q40.4 26.55 53.7 30.3 68.0 34.35 82.7 35.7 96.9 37.15 110.95 34.75 L130.25 27.1 131.05 26.55 131.75 26.1 132.45 25.6" fill="#81c277" fill-rule="evenodd" stroke="none"/>
      <path d="M124.05 36.35 L120.75 39.35 112.05 44.75 Q107.8 46.45 99.55 49.0 L98.35 49.4 82.7 48.95 Q68.0 47.6 53.7 43.55 40.4 39.8 27.4 35.25 L10.1 28.95 Q5.4 25.95 1.55 22.75 0.35 20.8 0.1 18.85 L4.4 20.35 27.4 28.75 Q40.4 33.3 53.7 37.05 68.0 41.1 82.7 42.45 96.9 43.9 110.95 41.5 L124.05 36.35" fill="#f1e852" fill-rule="evenodd" stroke="none"/>
      <path d="M98.35 49.4 L92.55 51.1 84.1 53.0 81.0 53.3 Q70.05 53.3 52.3 47.7 L44.9 45.25 42.25 44.25 Q32.4 40.65 24.25 36.8 L16.85 32.95 10.1 28.95 27.4 35.25 Q40.4 39.8 53.7 43.55 68.0 47.6 82.7 48.95 L98.35 49.4" fill="#e76064" fill-rule="evenodd" stroke="none"/>
      <path d="M135.0 10.6 L135.0 7.75 Q133.2 5.25 126.55 2.65 L127.9 12.3 131.55 10.45 M131.55 18.5 L131.55 18.45 132.2 17.1 133.1 15.0 133.65 13.8 135.0 10.75 135.0 10.6 M4.4 0.6 Q3.8 1.4 3.1 3.1 L2.1 5.8 2.0 6.25 Q2.0 6.95 3.9 10.7 L4.95 12.7 M131.05 19.55 L131.55 18.5 131.75 19.1 Q132.8 22.55 132.45 25.6 132.2 27.3 131.55 28.9 L127.7 32.4 124.05 36.35 120.75 39.35 112.05 44.75 Q107.8 46.45 99.55 49.0 L98.35 49.4 92.55 51.1 84.1 53.0 81.0 53.3 Q70.05 53.3 52.3 47.7 L44.9 45.25 42.25 44.25 Q32.4 40.65 24.25 36.8 L16.85 32.95 10.1 28.95 Q5.4 25.95 1.55 22.75 0.35 20.8 0.1 18.85 L0.05 16.4 Q0.35 14.4 1.4 13.6 L3.9 10.7 M131.05 19.55 L131.05 19.6 130.85 19.7 M127.9 12.3 Q123.2 14.3 116.85 15.25 L84.25 16.75 Q61.15 16.75 33.5 8.35 9.7 0.0 6.0 0.0 L5.05 0.15 4.45 0.5 4.4 0.6" fill="none" stroke="#000000" stroke-linecap="round" stroke-linejoin="round" stroke-opacity="0.4" stroke-width="0.8"/>
    </g>
    <linearGradient gradientTransform="matrix(0.0017, -0.0238, 0.0271, 0.0028, 77.8, 39.9)" gradientUnits="userSpaceOnUse" id="gradient0" spreadMethod="pad" x1="-819.2" x2="819.2">
      <stop offset="0.0" stop-color="#000000"/>
      <stop offset="1.0" stop-color="#3f3f3f"/>
    </linearGradient>
  </defs>
</svg>
