<?xml version="1.0" encoding="UTF-8" standalone="no"?>
<svg xmlns:xlink="http://www.w3.org/1999/xlink" height="531.5px" width="460.6px" xmlns="http://www.w3.org/2000/svg">
  <g transform="matrix(1.0, 0.0, 0.0, 1.0, 193.65, 334.05)">
    <use height="106.1" transform="matrix(0.9713, 0.0, 0.0, 0.9713, -77.1353, -87.9249)" width="150.6" xlink:href="#shape0"/>
  </g>
  <defs>
    <g id="shape0" transform="matrix(1.0, 0.0, 0.0, 1.0, 75.3, 53.05)">
      <path d="M47.0 -23.85 Q58.3 -17.7 58.25 -1.2 57.0 -5.65 54.65 -10.5 50.5 -18.95 47.0 -23.85" fill="#ff6633" fill-rule="evenodd" stroke="none"/>
      <path d="M-2.3 -22.4 L0.1 -29.1 3.9 -28.7 Q2.15 -24.6 -1.45 -20.9 L-2.5 -21.85 -2.3 -22.4" fill="#752e17" fill-rule="evenodd" stroke="none"/>
      <path d="M36.05 -25.1 L36.6 -27.5 31.3 -50.1 Q33.6 -52.75 37.0 -50.5 L43.6 -27.9 47.0 -23.85 Q50.5 -18.95 54.65 -10.5 57.0 -5.65 58.25 -1.2 L58.85 1.45 58.15 3.25 Q56.8 6.25 54.85 9.05 L52.8 11.7 Q35.95 17.15 26.2 13.3 28.5 11.35 30.6 8.0 35.4 0.35 35.4 -8.5 35.4 -10.5 33.6 -15.6 L33.2 -15.6 31.95 -14.3 Q34.45 -19.2 36.05 -25.1 M15.15 5.7 L8.8 5.7 Q-1.5 15.35 -11.4 17.1 -16.15 15.2 -21.2 11.2 -32.6 2.15 -32.6 -10.3 L-32.15 -16.65 -31.6 -22.2 -31.3 -24.1 -24.45 -28.2 -29.8 -51.5 Q-27.2 -54.25 -23.0 -49.9 -21.7 -37.65 -15.8 -26.5 -8.45 -12.45 6.2 -0.1 L8.4 1.7 16.2 1.7 16.6 1.5 16.0 3.8 15.25 5.45 15.15 5.7 M-47.65 5.6 Q-56.25 5.95 -65.2 4.5 -65.1 3.05 -63.6 1.8 -64.2 0.25 -64.2 -1.3 L-48.55 -0.55 Q-47.95 0.95 -47.8 2.8 L-47.65 5.6 M4.4 6.5 L-1.5 8.0 4.4 6.5 M16.0 3.8 L13.0 3.65 3.2 4.1 13.0 3.65 16.0 3.8" fill="url(#gradient0)" fill-rule="evenodd" stroke="none"/>
      <path d="M58.15 3.25 L66.7 2.2 Q66.55 3.8 65.3 5.8 66.1 6.85 64.55 8.85 60.65 9.7 54.85 9.05 56.8 6.25 58.15 3.25" fill="#8cfe8c" fill-rule="evenodd" stroke="none"/>
      <path d="M-65.8 27.95 L-65.8 27.65 Q14.35 41.75 64.4 31.35 L64.5 31.45 63.85 32.9 63.6 32.95 64.25 33.05 64.7 33.25 63.55 34.4 63.5 34.4 63.55 34.45 63.5 36.15 63.45 37.8 Q44.85 40.5 24.8 42.0 20.05 47.25 11.85 51.8 4.15 53.9 -2.9 50.0 -11.15 45.55 -16.15 40.15 L-64.75 35.45 Q-65.95 33.5 -64.75 31.95 L-65.15 31.0 -65.1 31.0 -65.0 30.8 -65.2 30.8 Q-65.85 29.0 -65.8 27.95 -65.1 29.2 -64.65 30.9 -65.1 29.2 -65.8 27.95 M-5.55 41.55 L-16.15 40.15 -5.55 41.55" fill="url(#gradient1)" fill-rule="evenodd" stroke="none"/>
      <path d="M18.55 0.35 L18.35 -1.75 Q17.55 -14.75 27.45 -21.25 L31.0 -23.2 Q32.9 -24.1 35.1 -24.8 L36.05 -25.1 Q34.45 -19.2 31.95 -14.3 27.05 -5.05 18.55 0.35" fill="url(#gradient2)" fill-rule="evenodd" stroke="none"/>
      <path d="M-15.8 -26.5 Q-10.55 -26.3 -6.55 -24.4 -4.6 -23.5 -2.9 -22.2 L-2.75 -22.05 -2.5 -21.85 -1.45 -20.9 Q5.3 -14.35 6.2 -0.1 -8.45 -12.45 -15.8 -26.5" fill="url(#gradient3)" fill-rule="evenodd" stroke="none"/>
      <path d="M-6.55 -24.4 L-7.8 -25.4 Q-9.85 -27.25 -10.1 -29.3 -10.45 -32.75 -11.7 -35.1 -13.15 -37.9 -15.6 -38.3 L-13.1 -38.5 Q-7.55 -38.5 -5.05 -35.25 -2.45 -31.85 -2.3 -22.4 L-2.5 -21.85 -2.75 -22.05 -2.9 -22.2 Q-4.6 -23.5 -6.55 -24.4 M27.45 -21.25 L26.5 -22.2 Q25.8 -23.15 25.8 -24.5 25.8 -26.0 26.4 -28.3 27.0 -30.6 27.0 -31.5 L26.5 -33.7 25.85 -34.95 Q26.9 -34.15 32.5 -30.65 35.1 -29.0 35.1 -25.25 L35.1 -24.8 Q32.9 -24.1 31.0 -23.2 L31.0 -23.75 Q31.0 -25.2 30.4 -26.9 L29.4 -29.0 30.4 -26.9 Q31.0 -25.2 31.0 -23.75 L31.0 -23.2 27.45 -21.25 M-7.7 -31.6 Q-4.35 -28.3 -2.75 -22.05 -4.35 -28.3 -7.7 -31.6" fill="#52b23a" fill-rule="evenodd" stroke="none"/>
      <path d="M26.2 13.3 Q20.5 11.05 17.2 5.7 L15.15 5.7 15.25 5.45 16.0 3.8 16.6 1.5 18.55 0.35 Q27.05 -5.05 31.95 -14.3 L33.2 -15.6 33.6 -15.6 Q35.4 -10.5 35.4 -8.5 35.4 0.35 30.6 8.0 28.5 11.35 26.2 13.3 M-11.4 17.1 Q-25.0 19.5 -37.8 6.9 L-38.85 4.65 -41.2 -0.7 Q-43.75 -14.95 -31.3 -24.1 L-31.6 -22.2 -32.15 -16.65 -32.6 -10.3 Q-32.6 2.15 -21.2 11.2 -16.15 15.2 -11.4 17.1 M25.4 4.3 L16.0 3.8 25.4 4.3 M27.1 -0.2 L16.7 2.9 27.1 -0.2" fill="#51c14b" fill-rule="evenodd" stroke="none"/>
      <path d="M-38.85 4.65 L-47.65 5.6 -47.8 2.8 Q-47.95 0.95 -48.55 -0.55 -44.85 -0.55 -41.2 -0.7 L-38.85 4.65" fill="#46a841" fill-rule="evenodd" stroke="none"/>
      <path d="M36.05 -25.1 L36.6 -27.5 31.3 -50.1 Q33.6 -52.75 37.0 -50.5 L43.6 -27.9 47.0 -23.85 Q58.3 -17.7 58.25 -1.2 L58.85 1.45 58.15 3.25 66.7 2.2 Q66.55 3.8 65.3 5.8 66.1 6.85 64.55 8.85 60.65 9.7 54.85 9.05 L52.8 11.7 Q35.95 17.15 26.2 13.3 20.5 11.05 17.2 5.7 L15.15 5.7 8.8 5.7 Q-1.5 15.35 -11.4 17.1 -25.0 19.5 -37.8 6.9 L-38.85 4.65 -47.65 5.6 Q-56.25 5.95 -65.2 4.5 -65.1 3.05 -63.6 1.8 -64.2 0.25 -64.2 -1.3 L-48.55 -0.55 Q-44.85 -0.55 -41.2 -0.7 -43.75 -14.95 -31.3 -24.1 L-24.45 -28.2 -29.8 -51.5 Q-27.2 -54.25 -23.0 -49.9 -21.7 -37.65 -15.8 -26.5 -10.55 -26.3 -6.55 -24.4 L-7.8 -25.4 Q-9.85 -27.25 -10.1 -29.3 -10.45 -32.75 -11.7 -35.1 -13.15 -37.9 -15.6 -38.3 L-13.1 -38.5 Q-7.55 -38.5 -5.05 -35.25 -2.45 -31.85 -2.3 -22.4 L0.1 -29.1 3.9 -28.7 Q2.15 -24.6 -1.45 -20.9 5.3 -14.35 6.2 -0.1 L8.4 1.7 16.2 1.7 16.6 1.5 18.55 0.35 18.35 -1.75 Q17.55 -14.75 27.45 -21.25 L26.5 -22.2 Q25.8 -23.15 25.8 -24.5 25.8 -26.0 26.4 -28.3 27.0 -30.6 27.0 -31.5 L26.5 -33.7 25.85 -34.95 25.7 -35.1 25.8 -35.1 25.85 -34.95 Q26.9 -34.15 32.5 -30.65 35.1 -29.0 35.1 -25.25 L35.1 -24.8 36.05 -25.1 Q34.45 -19.2 31.95 -14.3 27.05 -5.05 18.55 0.35 M31.0 -23.2 L31.0 -23.75 Q31.0 -25.2 30.4 -26.9 L29.4 -29.0 M31.0 -23.2 Q32.9 -24.1 35.1 -24.8 M27.45 -21.25 L31.0 -23.2 M-16.15 40.15 Q-11.15 45.55 -2.9 50.0 4.15 53.9 11.85 51.8 20.05 47.25 24.8 42.0 44.85 40.5 63.45 37.8 L63.5 36.15 63.55 34.45 63.5 34.4 63.55 34.4 64.7 33.25 64.25 33.05 63.6 32.95 63.85 32.9 64.5 31.45 64.4 31.35 Q14.35 41.75 -65.8 27.65 L-65.8 27.95 Q-65.1 29.2 -64.65 30.9 M64.7 33.25 L64.9 33.25 67.1 33.0 64.85 32.85 64.7 33.25 M63.85 32.9 L64.65 32.85 64.85 32.85 Q65.0 32.15 64.5 31.45 65.8 28.75 67.8 27.1 70.25 25.1 72.75 25.1 74.8 25.1 74.8 26.8 74.8 29.5 70.9 31.55 68.85 32.6 67.1 33.0 69.0 33.2 70.6 33.9 73.55 35.05 73.55 37.25 73.55 39.0 72.1 39.0 70.45 39.0 67.9 37.95 65.75 37.0 64.75 36.0 L64.65 36.3 Q65.4 37.95 65.85 40.15 L66.65 45.55 66.7 46.05 66.7 46.1 66.7 46.2 66.7 46.05 M58.15 3.25 Q56.8 6.25 54.85 9.05 M47.0 -23.85 Q50.5 -18.95 54.65 -10.5 57.0 -5.65 58.25 -1.2 M63.45 37.8 L64.15 37.7 64.65 36.3 64.25 35.55 64.35 35.55 64.75 36.0 64.85 35.7 63.55 34.45 63.55 34.4 M62.8 45.9 L63.45 37.8 M-2.5 -21.85 L-2.75 -22.05 -2.9 -22.2 Q-4.6 -23.5 -6.55 -24.4 M-2.3 -22.4 L-2.5 -21.85 -1.45 -20.9 M-2.75 -22.05 Q-4.35 -28.3 -7.7 -31.6 M-66.9 42.6 L-66.1 37.15 -65.45 33.25 -65.5 32.85 Q-66.05 34.2 -67.35 35.5 -69.5 37.6 -71.95 37.6 -73.9 37.6 -73.9 35.3 -73.9 33.15 -71.95 31.85 -70.85 31.05 -69.4 30.75 L-71.55 29.8 Q-74.8 28.05 -74.8 25.8 -74.8 24.25 -72.45 24.25 -67.9 24.25 -65.8 27.95 -65.85 29.0 -65.2 30.8 L-65.0 30.8 -65.1 31.0 -65.15 31.0 -64.75 31.95 Q-65.95 33.5 -64.75 35.45 L-16.15 40.15 -5.55 41.55 M-67.1 30.5 L-69.4 30.75 -66.9 31.25 -65.15 31.0 -65.2 30.8 -65.85 30.7 -67.1 30.5 M-65.2 31.85 L-65.25 32.2 -65.45 33.25 -64.05 45.35 M-65.5 32.85 L-65.25 32.2 M16.0 3.8 L25.4 4.3 M3.2 4.1 L13.0 3.65 16.0 3.8 M-1.5 8.0 L4.4 6.5 M-38.85 4.65 L-41.2 -0.7 M-15.8 -26.5 Q-8.45 -12.45 6.2 -0.1 M16.7 2.9 L27.1 -0.2" fill="none" stroke="#000000" stroke-linecap="round" stroke-linejoin="round" stroke-opacity="0.4" stroke-width="1.0"/>
    </g>
    <linearGradient gradientTransform="matrix(0.0613, 0.0, 0.0, 0.0428, 8.6, -17.55)" gradientUnits="userSpaceOnUse" id="gradient0" spreadMethod="pad" x1="-819.2" x2="819.2">
      <stop offset="0.0" stop-color="#61e85a"/>
      <stop offset="1.0" stop-color="#8eff8e"/>
    </linearGradient>
    <linearGradient gradientTransform="matrix(0.0797, 0.0, 0.0, 0.0152, -0.6, 40.1)" gradientUnits="userSpaceOnUse" id="gradient1" spreadMethod="pad" x1="-819.2" x2="819.2">
      <stop offset="0.0" stop-color="#61e85a"/>
      <stop offset="1.0" stop-color="#8eff8e"/>
    </linearGradient>
    <radialGradient cx="0" cy="0" gradientTransform="matrix(0.0274, 0.0, 0.0, 0.0274, 35.2, -16.1)" gradientUnits="userSpaceOnUse" id="gradient2" r="819.2" spreadMethod="pad">
      <stop offset="0.0" stop-color="#ff9933"/>
      <stop offset="1.0" stop-color="#ff6633"/>
    </radialGradient>
    <radialGradient cx="0" cy="0" gradientTransform="matrix(0.0151, 0.0, 0.0, 0.0151, -4.8, -13.3)" gradientUnits="userSpaceOnUse" id="gradient3" r="819.2" spreadMethod="pad">
      <stop offset="0.0" stop-color="#ff9933"/>
      <stop offset="1.0" stop-color="#ff6633"/>
    </radialGradient>
  </defs>
</svg>
