<?xml version="1.0" encoding="UTF-8" standalone="no"?>
<svg xmlns:xlink="http://www.w3.org/1999/xlink" height="531.5px" width="460.6px" xmlns="http://www.w3.org/2000/svg">
  <g transform="matrix(1.0, 0.0, 0.0, 1.0, 193.65, 334.05)">
    <use height="43.8" transform="matrix(1.0, 0.0, 0.0, 1.0, -57.35, -225.0)" width="106.2" xlink:href="#shape0"/>
  </g>
  <defs>
    <g id="shape0" transform="matrix(1.0, 0.0, 0.0, 1.0, 57.35, 225.0)">
      <path d="M48.85 -203.1 Q48.85 -194.0 33.25 -187.65 17.75 -181.2 -4.25 -181.2 -26.25 -181.2 -41.85 -187.65 -57.35 -194.0 -57.35 -203.1 -57.35 -212.2 -41.85 -218.6 -26.25 -225.0 -4.25 -225.0 17.75 -225.0 33.25 -218.6 48.85 -212.2 48.85 -203.1" fill="url(#gradient0)" fill-rule="evenodd" stroke="none"/>
      <path d="M25.7 -206.55 L21.95 -205.05 15.65 -203.2 13.8 -202.8 9.85 -203.45 -4.0 -204.4 -12.0 -204.1 -17.55 -203.45 -21.5 -202.8 -23.35 -203.2 Q-26.65 -204.0 -29.65 -205.05 -31.65 -205.75 -33.35 -206.55 -24.1 -209.55 -12.2 -210.35 L-3.8 -210.6 Q13.3 -210.6 25.7 -206.55" fill="url(#gradient1)" fill-rule="evenodd" stroke="none"/>
      <path d="M13.8 -202.8 L15.65 -203.2 21.95 -205.05 25.7 -206.55 Q13.3 -210.6 -3.8 -210.6 L-12.2 -210.35 Q-11.85 -215.0 -10.75 -219.3 L-3.8 -219.45 Q14.45 -219.45 27.3 -214.85 39.85 -210.45 40.3 -204.15 L40.3 -200.15 40.3 -199.75 Q40.3 -198.5 39.8 -197.3 37.8 -192.35 27.3 -188.65 15.4 -184.35 -1.15 -184.05 L-3.9 -187.1 Q-9.95 -194.2 -11.6 -201.4 L-3.8 -201.2 Q5.9 -201.2 13.8 -202.8" fill="url(#gradient2)" fill-rule="evenodd" stroke="none"/>
      <path d="M-11.6 -201.4 Q-9.95 -194.2 -3.9 -187.1 L-1.15 -184.05 -3.8 -184.05 Q-22.1 -184.05 -35.05 -188.65 -45.5 -192.35 -47.4 -197.3 -47.9 -198.5 -47.9 -199.75 L-47.9 -200.15 -47.9 -204.15 Q-47.5 -210.45 -35.05 -214.85 -24.65 -218.55 -10.75 -219.3 -11.85 -215.0 -12.2 -210.35 -24.1 -209.55 -33.35 -206.55 -31.65 -205.75 -29.65 -205.05 -26.65 -204.0 -23.35 -203.2 L-21.5 -202.8 -11.6 -201.4" fill="url(#gradient3)" fill-rule="evenodd" stroke="none"/>
      <path d="M25.7 -206.55 L21.95 -205.05 15.65 -203.2 13.8 -202.8 Q5.9 -201.2 -3.8 -201.2 L-11.6 -201.4 -21.5 -202.8 -17.55 -203.45 -12.0 -204.1 -4.0 -204.4 9.85 -203.45 13.8 -202.8 M-1.15 -184.05 Q15.4 -184.35 27.3 -188.65 37.8 -192.35 39.8 -197.3 40.3 -198.5 40.3 -199.75 L40.3 -200.15 40.3 -204.15 Q39.85 -210.45 27.3 -214.85 14.45 -219.45 -3.8 -219.45 L-10.75 -219.3 Q-24.65 -218.55 -35.05 -214.85 -47.5 -210.45 -47.9 -204.15 L-47.9 -200.15 -47.9 -199.75 Q-47.9 -198.5 -47.4 -197.3 -45.5 -192.35 -35.05 -188.65 -22.1 -184.05 -3.8 -184.05 L-1.15 -184.05 M-21.5 -202.8 L-23.35 -203.2 Q-26.65 -204.0 -29.65 -205.05 -31.65 -205.75 -33.35 -206.55" fill="none" stroke="#000000" stroke-linecap="round" stroke-linejoin="round" stroke-opacity="0.2509804" stroke-width="1.0"/>
      <path d="M7.15 -198.6 Q11.45 -198.7 15.9 -199.9 21.15 -200.95 25.4 -203.25 29.65 -205.6 33.35 -207.7 32.7 -203.45 28.7 -201.0 24.75 -198.5 20.3 -197.3 L11.95 -196.25 2.7 -196.6 Q-2.35 -197.15 -7.45 -198.6 L-1.25 -198.45 7.15 -198.6 M29.15 -209.4 Q29.15 -210.6 30.95 -210.6 32.95 -210.6 32.95 -209.45 32.95 -209.0 32.45 -208.6 31.85 -208.1 30.8 -208.1 29.15 -208.1 29.15 -209.4" fill="#ffffff" fill-rule="evenodd" stroke="none"/>
    </g>
    <radialGradient cx="0" cy="0" gradientTransform="matrix(0.0652, 0.0, 0.0, 0.0269, -4.25, -203.1)" gradientUnits="userSpaceOnUse" id="gradient0" r="819.2" spreadMethod="pad">
      <stop offset="0.0" stop-color="#ffffff"/>
      <stop offset="1.0" stop-color="#ffffff" stop-opacity="0.0"/>
    </radialGradient>
    <linearGradient gradientTransform="matrix(0.0, -0.0032, 0.0048, 0.0, -2.55, -206.0)" gradientUnits="userSpaceOnUse" id="gradient1" spreadMethod="pad" x1="-819.2" x2="819.2">
      <stop offset="0.07058823529411765" stop-color="#d98100"/>
      <stop offset="1.0" stop-color="#ffcc00"/>
    </linearGradient>
    <linearGradient gradientTransform="matrix(0.0292, 0.0, 0.0, 0.0216, 23.2, -202.2)" gradientUnits="userSpaceOnUse" id="gradient2" spreadMethod="pad" x1="-819.2" x2="819.2">
      <stop offset="0.054901960784313725" stop-color="#ffcc00"/>
      <stop offset="1.0" stop-color="#ffffff"/>
    </linearGradient>
    <linearGradient gradientTransform="matrix(0.0157, -0.0091, 0.0108, 0.0186, -30.55, -198.2)" gradientUnits="userSpaceOnUse" id="gradient3" spreadMethod="pad" x1="-819.2" x2="819.2">
      <stop offset="0.07058823529411765" stop-color="#d98100"/>
      <stop offset="1.0" stop-color="#ffcc00"/>
    </linearGradient>
  </defs>
</svg>
