<?xml version="1.0" encoding="UTF-8" standalone="no"?>
<svg xmlns:xlink="http://www.w3.org/1999/xlink" height="531.5px" width="460.6px" xmlns="http://www.w3.org/2000/svg">
  <g transform="matrix(1.0, 0.0, 0.0, 1.0, 193.65, 334.05)">
    <use height="49.95" transform="matrix(1.0023, 0.0, 0.0, 1.0023, -79.3009, -111.7009)" width="151.85" xlink:href="#shape0"/>
  </g>
  <defs>
    <g id="shape0" transform="matrix(1.0, 0.0, 0.0, 1.0, 0.4, 0.4)">
      <path d="M136.9 10.3 L135.55 2.25 Q142.2 4.4 144.0 6.5 L144.0 9.0 142.65 11.55 142.1 12.55 141.2 14.3 139.9 16.55 138.4 16.25 Q137.25 14.7 135.6 14.35 133.7 14.0 132.25 15.4 130.75 16.75 130.65 19.05 130.45 21.35 131.65 23.2 132.85 25.0 134.7 25.35 L135.55 25.45 135.9 25.8 137.1 26.65 136.7 27.05 129.75 32.85 128.6 28.7 Q127.7 26.25 125.35 25.0 125.0 24.8 124.65 24.7 123.85 23.0 122.2 22.05 120.05 20.8 117.65 21.45 115.2 22.1 114.0 24.25 112.75 26.4 113.4 28.8 114.05 31.2 116.2 32.45 L116.95 32.85 Q118.0 34.85 120.65 37.0 L121.05 37.35 108.55 40.9 101.55 42.65 Q102.5 36.6 102.5 34.1 102.5 31.2 100.35 29.15 L99.6 28.5 Q99.2 27.0 98.05 25.85 96.3 24.1 93.8 24.1 91.3 24.1 89.55 25.85 87.8 27.6 87.8 30.1 87.8 31.4 88.3 32.5 L88.1 34.1 Q88.1 36.95 90.5 40.7 L93.1 44.25 90.0 44.5 Q79.05 44.5 61.3 39.8 L65.05 37.0 Q67.7 34.85 68.75 32.85 L69.5 32.45 Q71.65 31.2 72.3 28.8 72.95 26.4 71.7 24.25 70.5 22.1 68.05 21.45 65.65 20.8 63.5 22.05 61.85 23.0 61.1 24.7 L60.35 25.0 Q58.0 26.25 57.1 28.7 56.2 31.15 54.95 37.6 L54.9 38.05 51.25 36.95 Q41.4 33.95 33.25 30.7 L35.65 29.65 Q38.75 28.3 40.3 26.65 L42.25 26.4 Q44.65 25.75 45.9 23.65 47.15 21.5 46.5 19.1 45.9 16.65 43.7 15.45 41.55 14.15 39.1 14.8 37.35 15.35 36.2 16.7 L34.25 16.85 Q31.65 17.5 30.15 19.6 28.6 21.65 25.85 27.5 17.0 23.45 10.55 19.0 13.55 18.8 15.35 17.7 L16.35 17.9 Q18.55 18.15 20.3 16.8 22.1 15.45 22.35 13.2 22.7 10.95 21.25 9.25 19.85 7.4 17.6 7.15 15.55 6.95 13.95 8.1 L12.9 7.85 11.75 7.8 11.35 6.95 Q11.0 5.8 11.0 5.25 11.0 4.7 12.1 2.6 12.85 1.1 13.45 0.45 L14.05 0.15 15.0 0.0 Q18.7 0.0 42.5 7.0 70.15 14.0 93.25 14.0 L125.85 12.75 Q132.2 11.95 136.9 10.3 L140.55 8.75 136.9 10.3" fill="url(#gradient0)" fill-rule="evenodd" stroke="none"/>
      <path d="M144.05 20.05 L147.2 23.75 Q150.95 28.3 147.45 28.4 L140.75 27.85 Q138.55 27.5 137.1 26.65 L135.9 25.8 135.55 25.45 Q134.1 24.0 133.8 21.9 L133.75 21.05 Q133.7 19.35 134.75 18.0 135.2 17.35 135.8 16.95 136.75 16.3 138.0 16.25 L138.4 16.25 139.9 16.55 Q140.85 16.9 141.75 17.65 L142.9 18.75 144.05 20.05 M129.75 32.85 L130.75 37.6 Q131.95 44.05 127.85 41.85 124.0 39.75 121.05 37.35 L120.65 37.0 Q118.0 34.85 116.95 32.85 L116.55 31.95 Q115.7 29.7 116.65 27.65 L116.8 27.25 Q117.95 25.1 120.45 24.4 L120.6 24.4 124.65 24.7 Q125.0 24.8 125.35 25.0 127.7 26.25 128.6 28.7 L129.75 32.85 M101.55 42.65 L101.25 44.25 Q100.0 51.55 96.45 47.95 94.6 46.1 93.1 44.25 L90.5 40.7 Q88.1 36.95 88.1 34.1 L88.3 32.5 Q88.7 30.6 90.15 29.15 L90.35 29.0 Q92.25 27.3 94.8 27.2 L95.3 27.15 Q97.8 27.15 99.6 28.5 L100.35 29.15 Q102.5 31.2 102.5 34.1 102.5 36.6 101.55 42.65 M61.3 39.8 L57.85 41.85 Q53.9 44.0 54.9 38.05 L54.95 37.6 Q56.2 31.15 57.1 28.7 58.0 26.25 60.35 25.0 L61.1 24.7 Q62.85 23.95 64.7 24.3 L65.25 24.4 Q67.75 25.1 68.9 27.25 L69.0 27.45 Q70.0 29.6 69.15 31.95 L68.75 32.85 Q67.7 34.85 65.05 37.0 L61.3 39.8 M33.25 30.7 Q30.55 31.75 27.45 32.5 22.95 33.55 25.75 27.65 L25.85 27.5 Q28.6 21.65 30.15 19.6 31.65 17.5 34.25 16.85 L36.2 16.7 Q37.75 16.75 39.1 17.55 L39.8 18.0 Q41.5 19.25 41.95 21.25 L42.0 21.6 Q42.35 23.85 40.95 25.85 L40.3 26.65 Q38.75 28.3 35.65 29.65 L33.25 30.7 M10.55 19.0 L9.8 19.0 2.0 18.6 Q-2.1 18.0 2.2 14.0 6.6 10.0 8.6 8.75 10.0 7.85 11.65 7.8 L11.75 7.8 12.9 7.85 13.95 8.1 Q15.65 8.65 16.75 10.1 L17.0 10.45 Q18.2 12.15 17.9 14.15 L17.7 14.85 Q17.1 16.55 15.5 17.6 L15.35 17.7 Q13.55 18.8 10.55 19.0" fill="#cccccc" fill-rule="evenodd" stroke="none"/>
      <path d="M144.05 20.05 L142.9 18.75 141.75 17.5 Q140.5 16.55 140.5 15.75 L141.2 14.3 142.1 12.55 142.65 11.55 147.45 13.3 Q152.95 15.35 150.0 17.2 147.0 19.05 144.05 20.05" fill="#bababa" fill-rule="evenodd" stroke="none"/>
      <path d="M138.4 16.25 L138.0 16.25 Q136.75 16.3 135.8 16.95 135.2 17.35 134.75 18.0 133.7 19.35 133.75 21.05 L133.8 21.9 Q134.1 24.0 135.55 25.45 L134.7 25.35 Q132.85 25.0 131.65 23.2 130.45 21.35 130.65 19.05 130.75 16.75 132.25 15.4 133.7 14.0 135.6 14.35 137.25 14.7 138.4 16.25 M116.95 32.85 L116.2 32.45 Q114.05 31.2 113.4 28.8 112.75 26.4 114.0 24.25 115.2 22.1 117.65 21.45 120.05 20.8 122.2 22.05 123.85 23.0 124.65 24.7 L120.6 24.4 120.45 24.4 Q117.95 25.1 116.8 27.25 L116.65 27.65 Q115.7 29.7 116.55 31.95 L116.95 32.85 M99.6 28.5 Q97.8 27.15 95.3 27.15 L94.8 27.2 Q92.25 27.3 90.35 29.0 L90.15 29.15 Q88.7 30.6 88.3 32.5 87.8 31.4 87.8 30.1 87.8 27.6 89.55 25.85 91.3 24.1 93.8 24.1 96.3 24.1 98.05 25.85 99.2 27.0 99.6 28.5 M61.1 24.7 Q61.85 23.0 63.5 22.05 65.65 20.8 68.05 21.45 70.5 22.1 71.7 24.25 72.95 26.4 72.3 28.8 71.65 31.2 69.5 32.45 L68.75 32.85 69.15 31.95 Q70.0 29.6 69.0 27.45 L68.9 27.25 Q67.75 25.1 65.25 24.4 L64.7 24.3 Q62.85 23.95 61.1 24.7 M42.0 21.6 L41.95 21.25 Q41.5 19.25 39.8 18.0 L39.1 17.55 Q37.75 16.75 36.2 16.7 37.35 15.35 39.1 14.8 41.55 14.15 43.7 15.45 45.9 16.65 46.5 19.1 47.15 21.5 45.9 23.65 44.65 25.75 42.25 26.4 L40.3 26.65 40.95 25.85 Q42.35 23.85 42.0 21.6 M13.95 8.1 Q15.55 6.95 17.6 7.15 19.85 7.4 21.25 9.25 22.7 10.95 22.35 13.2 22.1 15.45 20.3 16.8 18.55 18.15 16.35 17.9 L15.35 17.7 15.5 17.6 Q17.1 16.55 17.7 14.85 L17.9 14.15 Q18.2 12.15 17.0 10.45 L16.75 10.1 Q15.65 8.65 13.95 8.1" fill="#999999" fill-rule="evenodd" stroke="none"/>
      <path d="M142.65 11.55 L144.0 9.0 144.0 6.5 Q142.2 4.4 135.55 2.25 L136.9 10.3 140.55 8.75 M144.05 20.05 L147.2 23.75 Q150.95 28.3 147.45 28.4 L140.75 27.85 Q138.55 27.5 137.1 26.65 L136.7 27.05 129.75 32.85 130.75 37.6 Q131.95 44.05 127.85 41.85 124.0 39.75 121.05 37.35 L108.55 40.9 101.55 42.65 101.25 44.25 Q100.0 51.55 96.45 47.95 94.6 46.1 93.1 44.25 L90.0 44.5 Q79.05 44.5 61.3 39.8 L57.85 41.85 Q53.9 44.0 54.9 38.05 L51.25 36.95 Q41.4 33.95 33.25 30.7 30.55 31.75 27.45 32.5 22.95 33.55 25.75 27.65 L25.85 27.5 Q17.0 23.45 10.55 19.0 L9.8 19.0 2.0 18.6 Q-2.1 18.0 2.2 14.0 6.6 10.0 8.6 8.75 10.0 7.85 11.65 7.8 L11.5 7.4 11.35 6.95 Q11.0 5.8 11.0 5.25 11.0 4.7 12.1 2.6 12.85 1.1 13.45 0.45 L14.05 0.15 15.0 0.0 Q18.7 0.0 42.5 7.0 70.15 14.0 93.25 14.0 L125.85 12.75 Q132.2 11.95 136.9 10.3 M142.9 18.75 L144.05 20.05 Q147.0 19.05 150.0 17.2 152.95 15.35 147.45 13.3 L142.65 11.55 142.1 12.55 141.2 14.3 140.5 15.75 Q140.5 16.55 141.75 17.5 L142.9 18.75 141.75 17.65 Q140.85 16.9 139.9 16.55 L138.4 16.25 138.0 16.25 Q136.75 16.3 135.8 16.95 M133.75 21.05 L133.8 21.9 Q134.1 24.0 135.55 25.45 L135.9 25.8 137.1 26.65 M116.95 32.85 L116.2 32.45 Q114.05 31.2 113.4 28.8 112.75 26.4 114.0 24.25 115.2 22.1 117.65 21.45 120.05 20.8 122.2 22.05 123.85 23.0 124.65 24.7 125.0 24.8 125.35 25.0 127.7 26.25 128.6 28.7 L129.75 32.85 M139.9 16.55 L141.2 14.3 M135.55 25.45 L134.7 25.35 Q132.85 25.0 131.65 23.2 130.45 21.35 130.65 19.05 130.75 16.75 132.25 15.4 133.7 14.0 135.6 14.35 137.25 14.7 138.4 16.25 M116.65 27.65 Q115.7 29.7 116.55 31.95 L116.95 32.85 Q118.0 34.85 120.65 37.0 L121.05 37.35 M101.55 42.65 Q102.5 36.6 102.5 34.1 102.5 31.2 100.35 29.15 L99.6 28.5 Q97.8 27.15 95.3 27.15 L94.8 27.2 M90.35 29.0 L90.15 29.15 Q88.7 30.6 88.3 32.5 L88.1 34.1 Q88.1 36.95 90.5 40.7 L93.1 44.25 M99.6 28.5 Q99.2 27.0 98.05 25.85 96.3 24.1 93.8 24.1 91.3 24.1 89.55 25.85 87.8 27.6 87.8 30.1 87.8 31.4 88.3 32.5 M124.65 24.7 L120.6 24.4 M61.1 24.7 Q61.85 23.0 63.5 22.05 65.65 20.8 68.05 21.45 70.5 22.1 71.7 24.25 72.95 26.4 72.3 28.8 71.65 31.2 69.5 32.45 L68.75 32.85 Q67.7 34.85 65.05 37.0 L61.3 39.8 M64.7 24.3 Q62.85 23.95 61.1 24.7 L60.35 25.0 Q58.0 26.25 57.1 28.7 56.2 31.15 54.95 37.6 L54.9 38.05 M42.0 21.6 Q42.35 23.85 40.95 25.85 L40.3 26.65 42.25 26.4 Q44.65 25.75 45.9 23.65 47.15 21.5 46.5 19.1 45.9 16.65 43.7 15.45 41.55 14.15 39.1 14.8 37.35 15.35 36.2 16.7 37.75 16.75 39.1 17.55 L39.8 18.0 M68.75 32.85 L69.15 31.95 Q70.0 29.6 69.0 27.45 M25.85 27.5 Q28.6 21.65 30.15 19.6 31.65 17.5 34.25 16.85 L36.2 16.7 M15.35 17.7 L16.35 17.9 Q18.55 18.15 20.3 16.8 22.1 15.45 22.35 13.2 22.7 10.95 21.25 9.25 19.85 7.4 17.6 7.15 15.55 6.95 13.95 8.1 15.65 8.65 16.75 10.1 L17.0 10.45 M17.7 14.85 Q17.1 16.55 15.5 17.6 L15.35 17.7 Q13.55 18.8 10.55 19.0 M11.65 7.8 L11.75 7.8 11.35 6.95 M11.75 7.8 L12.9 7.85 13.95 8.1 M40.3 26.65 Q38.75 28.3 35.65 29.65 L33.25 30.7" fill="none" stroke="#000000" stroke-linecap="round" stroke-linejoin="round" stroke-opacity="0.4" stroke-width="0.8"/>
      <path d="M126.15 30.4 Q125.3 31.25 124.1 31.25 122.9 31.25 122.05 30.4 121.2 29.55 121.2 28.35 121.2 27.15 122.05 26.3 122.9 25.45 124.1 25.45 125.3 25.45 126.15 26.3 127.0 27.15 127.0 28.35 127.0 29.55 126.15 30.4" fill="#ffffff" fill-rule="evenodd" stroke="none"/>
      <path d="M99.95 34.3 Q99.1 35.15 97.9 35.15 96.7 35.15 95.85 34.3 95.0 33.45 95.0 32.25 95.0 31.05 95.85 30.2 96.7 29.35 97.9 29.35 99.1 29.35 99.95 30.2 100.8 31.05 100.8 32.25 100.8 33.45 99.95 34.3" fill="#ffffff" fill-rule="evenodd" stroke="none"/>
      <path d="M67.7 32.6 Q66.85 33.45 65.65 33.45 64.45 33.45 63.6 32.6 62.75 31.75 62.75 30.55 62.75 29.35 63.6 28.5 64.45 27.65 65.65 27.65 66.85 27.65 67.7 28.5 68.55 29.35 68.55 30.55 68.55 31.75 67.7 32.6" fill="#ffffff" fill-rule="evenodd" stroke="none"/>
      <path d="M39.65 25.0 Q38.8 25.85 37.6 25.85 36.4 25.85 35.55 25.0 34.7 24.15 34.7 22.95 34.7 21.75 35.55 20.9 36.4 20.05 37.6 20.05 38.8 20.05 39.65 20.9 40.5 21.75 40.5 22.95 40.5 24.15 39.65 25.0" fill="#ffffff" fill-rule="evenodd" stroke="none"/>
      <path d="M16.3 15.85 Q15.45 16.7 14.25 16.7 13.05 16.7 12.2 15.85 11.35 15.0 11.35 13.8 11.35 12.6 12.2 11.75 13.05 10.9 14.25 10.9 15.45 10.9 16.3 11.75 17.15 12.6 17.15 13.8 17.15 15.0 16.3 15.85" fill="#ffffff" fill-rule="evenodd" stroke="none"/>
      <path d="M142.45 23.55 L140.0 23.7 Q138.8 23.7 137.95 22.85 137.1 22.0 137.1 20.8 137.1 19.6 137.95 18.75 138.8 17.9 140.0 17.9 141.2 17.9 142.45 19.45 143.65 20.95 143.65 22.15 143.65 23.35 142.45 23.55" fill="#ffffff" fill-rule="evenodd" stroke="none"/>
    </g>
    <linearGradient gradientTransform="matrix(0.0017, -0.0199, 0.0271, 0.0024, 86.8, 33.3)" gradientUnits="userSpaceOnUse" id="gradient0" spreadMethod="pad" x1="-819.2" x2="819.2">
      <stop offset="0.0" stop-color="#000000"/>
      <stop offset="1.0" stop-color="#3f3f3f"/>
    </linearGradient>
  </defs>
</svg>
