<?xml version="1.0" encoding="UTF-8" standalone="no"?>
<svg xmlns:xlink="http://www.w3.org/1999/xlink" height="531.5px" width="460.6px" xmlns="http://www.w3.org/2000/svg">
  <g transform="matrix(1.0, 0.0, 0.0, 1.0, 193.65, 334.05)">
    <use height="101.65" transform="matrix(1.0, 0.0, 0.0, 1.0, -70.35, -103.25)" width="137.8" xlink:href="#shape0"/>
  </g>
  <defs>
    <g id="shape0" transform="matrix(1.0, 0.0, 0.0, 1.0, 70.35, 103.25)">
      <path d="M61.6 -97.3 L62.75 -96.15 63.0 -95.9 63.1 -95.75 Q64.65 -94.0 65.65 -91.3 63.9 -91.7 62.25 -91.3 63.9 -91.7 65.65 -91.3 L66.15 -89.55 66.55 -88.15 67.05 -85.6 67.05 -83.05 66.9 -81.3 66.8 -80.55 Q66.3 -76.85 64.75 -74.3 L63.35 -72.4 Q60.45 -69.0 54.85 -68.5 L55.4 -67.2 Q56.15 -65.2 56.5 -63.05 L56.65 -62.25 56.65 -62.0 Q56.9 -60.1 56.65 -58.1 L56.15 -55.3 55.25 -53.75 54.75 -52.9 Q53.45 -51.25 51.3 -49.95 52.35 -47.95 52.7 -45.9 53.1 -44.4 52.95 -42.85 53.1 -41.85 52.85 -40.7 L52.1 -37.65 Q51.2 -35.25 49.65 -34.0 L47.15 -31.8 47.0 -31.8 Q45.75 -31.05 44.45 -30.95 44.6 -26.9 42.95 -23.6 L41.65 -21.3 31.4 -36.75 Q33.3 -37.3 35.35 -39.45 37.75 -42.1 38.25 -44.75 L38.35 -45.8 38.35 -46.15 40.55 -45.25 41.8 -47.8 40.55 -48.7 39.4 -49.45 Q37.25 -50.85 35.05 -51.6 L35.85 -52.75 Q38.9 -52.5 40.9 -51.0 40.9 -50.85 41.05 -50.85 42.05 -50.1 42.7 -48.8 44.2 -50.35 46.85 -51.35 L47.0 -51.5 48.25 -51.85 47.4 -52.75 46.85 -53.25 46.5 -53.5 Q44.7 -55.15 42.95 -55.95 L41.95 -56.45 41.4 -56.55 41.05 -56.7 40.0 -56.05 39.9 -56.05 Q40.0 -58.6 40.8 -61.0 L38.75 -61.25 36.7 -61.25 36.2 -61.4 33.95 -61.25 34.05 -61.5 34.3 -62.4 34.8 -62.5 37.1 -62.8 41.3 -62.65 42.2 -64.8 42.2 -64.95 42.8 -66.2 39.4 -66.95 37.35 -67.45 37.1 -67.45 37.5 -67.85 38.35 -68.6 38.5 -68.6 38.65 -68.6 Q40.0 -68.85 41.55 -68.6 42.8 -68.5 43.95 -67.85 L45.1 -69.0 45.35 -68.25 45.85 -66.6 46.25 -64.95 46.25 -64.7 46.25 -64.3 47.15 -64.8 Q48.5 -65.55 50.15 -65.7 L51.7 -65.55 52.85 -65.2 52.35 -66.45 52.2 -66.85 51.45 -69.0 49.05 -69.5 47.0 -69.65 45.25 -69.5 45.25 -69.65 Q44.7 -70.5 44.45 -71.4 46.1 -72.3 48.4 -71.8 L49.9 -71.4 50.7 -71.0 50.45 -72.4 Q50.45 -73.55 50.7 -74.45 L50.3 -74.7 Q48.9 -75.6 47.65 -76.1 45.75 -77.1 44.35 -77.1 L43.95 -77.0 44.45 -78.75 Q46.25 -78.75 47.75 -78.0 49.55 -77.1 51.05 -75.2 L51.45 -76.1 52.85 -78.4 51.2 -80.3 49.05 -82.05 Q47.75 -82.7 46.5 -82.95 L47.15 -83.95 Q48.5 -83.7 49.8 -83.05 51.45 -82.05 52.7 -80.05 L53.2 -79.0 53.45 -79.5 54.1 -80.65 54.35 -82.7 Q54.35 -84.45 53.85 -85.85 53.6 -86.1 53.45 -86.65 L52.6 -88.0 54.25 -88.3 54.6 -88.3 54.75 -86.35 Q55.5 -87.4 56.4 -88.15 L57.4 -89.05 59.8 -90.55 61.35 -91.05 62.25 -91.3 62.25 -92.95 62.5 -94.5 62.75 -95.75 62.1 -95.75 Q60.95 -95.75 59.55 -95.25 L58.05 -94.35 56.75 -93.35 Q55.1 -91.95 54.5 -89.9 L54.35 -90.3 Q55.1 -93.75 56.5 -95.5 57.55 -96.9 59.05 -97.3 60.2 -97.55 61.6 -97.3 M54.85 -85.85 L54.75 -86.35 54.85 -85.85 54.85 -84.35 54.75 -81.95 54.5 -80.3 54.5 -79.8 54.5 -79.65 54.5 -79.8 Q56.25 -81.45 58.05 -82.3 L59.95 -83.2 60.05 -83.45 Q61.2 -86.0 61.7 -88.4 L61.95 -89.4 60.6 -89.05 59.05 -88.55 Q57.4 -87.9 56.0 -86.9 L54.85 -85.85 M64.75 -74.3 L64.4 -74.6 55.1 -74.85 53.6 -74.2 53.6 -75.1 53.6 -74.2 55.1 -74.85 64.4 -74.6 64.75 -74.3 M67.05 -83.05 Q63.5 -84.6 59.95 -83.2 63.5 -84.6 67.05 -83.05 M54.0 -77.5 L53.6 -78.15 53.45 -78.65 53.2 -79.0 53.45 -78.65 53.6 -78.15 54.0 -77.5 53.6 -75.1 Q54.25 -75.45 54.75 -75.95 L56.15 -77.35 58.65 -80.9 57.3 -80.4 54.5 -79.65 54.0 -77.5 M53.6 -74.2 L53.35 -71.0 52.1 -73.7 51.05 -75.2 52.1 -73.7 53.35 -71.0 53.6 -74.2 M53.35 -71.0 L54.85 -68.5 53.2 -69.65 50.7 -71.0 53.2 -69.65 54.85 -68.5 53.35 -71.0 M54.0 -57.3 L54.25 -59.85 53.6 -63.4 51.05 -63.65 50.8 -63.65 50.55 -63.65 48.5 -63.4 47.4 -63.3 47.4 -63.4 47.0 -63.4 46.35 -63.4 46.25 -64.3 46.35 -63.4 46.35 -61.15 45.5 -61.5 Q43.45 -62.4 41.3 -62.65 43.45 -62.4 45.5 -61.5 L46.35 -61.15 46.25 -60.6 46.0 -59.35 46.85 -59.35 47.5 -59.35 49.55 -59.25 50.45 -59.1 Q52.35 -58.6 54.0 -57.3 L56.15 -55.3 54.0 -57.3 M56.5 -63.05 Q54.6 -64.55 52.85 -65.2 54.6 -64.55 56.5 -63.05 M43.95 -67.85 L45.85 -66.6 43.95 -67.85 M44.7 -58.7 Q45.35 -58.95 46.0 -59.35 45.35 -58.95 44.7 -58.7 L42.45 -57.6 43.45 -57.05 Q45.85 -55.95 47.75 -54.4 L47.9 -54.3 49.65 -52.5 51.95 -53.75 52.7 -54.55 53.35 -55.4 Q51.8 -56.7 49.8 -57.3 L49.05 -57.6 46.25 -58.35 44.7 -58.7 M52.95 -42.85 L52.1 -44.5 Q50.45 -47.05 47.4 -48.45 L51.3 -49.95 49.65 -52.5 51.3 -49.95 47.4 -48.45 Q50.45 -47.05 52.1 -44.5 L52.95 -42.85 M47.4 -48.45 L43.45 -46.8 42.7 -48.8 43.45 -46.8 47.4 -48.45 M42.45 -57.6 L41.05 -56.7 42.45 -57.6 M43.45 -46.8 L42.8 -43.75 40.55 -45.25 42.8 -43.75 43.45 -46.8 M42.45 -24.2 L42.95 -23.6 42.45 -24.2 M42.55 -33.35 L44.35 -33.1 44.45 -30.95 44.35 -33.1 42.55 -33.35 M43.05 -41.6 L42.8 -43.75 43.05 -41.6 44.35 -41.85 Q48.25 -42.85 50.45 -40.45 51.45 -39.45 52.1 -37.65 51.45 -39.45 50.45 -40.45 48.25 -42.85 44.35 -41.85 L43.05 -41.6 43.45 -39.45 44.1 -35.1 44.35 -33.1 Q46.75 -33.6 47.15 -32.1 L47.15 -31.8 47.15 -32.1 Q46.75 -33.6 44.35 -33.1 L44.1 -35.1 43.45 -39.45 43.05 -41.6 M40.3 -40.45 L43.45 -39.45 40.3 -40.45 M-64.4 -99.8 Q-63.65 -99.8 -62.75 -99.3 L-61.25 -98.15 -59.6 -96.4 -59.45 -96.15 -61.5 -96.9 -62.35 -97.3 -64.65 -97.9 -65.4 -97.9 -67.3 -97.65 -68.95 -97.05 -67.95 -99.05 Q-66.2 -100.2 -64.4 -99.8 M-43.1 -80.65 L-43.1 -80.05 -43.1 -79.15 -43.6 -79.0 -43.95 -79.0 -45.1 -78.65 -45.5 -78.5 -46.5 -78.15 -47.0 -77.85 -49.15 -76.75 -49.45 -72.05 Q-50.95 -70.9 -52.2 -68.85 -50.95 -70.9 -49.45 -72.05 -48.15 -73.2 -46.65 -73.55 L-45.1 -73.7 -44.6 -73.7 -44.5 -73.7 -43.45 -73.55 -42.85 -73.3 -42.7 -73.05 -42.7 -72.65 -42.7 -73.05 -42.85 -73.3 -43.2 -75.6 -43.2 -76.5 -43.1 -77.35 -43.1 -77.5 -42.7 -77.35 -42.05 -77.0 -43.2 -75.6 -42.05 -77.0 Q-40.8 -78.5 -39.15 -79.25 L-37.5 -79.8 -36.6 -80.05 -35.2 -79.5 Q-36.25 -79.4 -37.5 -78.65 L-38.0 -78.4 -39.4 -77.5 -40.8 -76.35 -40.4 -76.1 Q-38.65 -75.1 -37.1 -73.7 L-35.35 -74.45 -33.45 -75.1 -32.95 -75.2 -30.65 -75.6 -30.15 -74.95 -32.7 -74.6 -32.8 -74.45 -33.05 -74.45 Q-34.2 -74.05 -35.2 -73.45 L-36.25 -72.8 -35.7 -72.4 -35.1 -71.65 Q-33.95 -70.15 -33.3 -68.6 L-33.2 -68.25 Q-32.45 -69.25 -31.3 -69.65 L-30.9 -69.75 -28.5 -69.65 -28.5 -69.0 -30.5 -68.6 -30.65 -68.5 -31.3 -68.35 Q-32.45 -68.0 -33.05 -67.45 L-33.55 -67.75 -34.35 -67.85 -35.2 -68.0 -36.85 -68.35 -35.2 -68.0 -34.35 -67.85 -34.95 -67.45 -35.2 -67.35 -35.35 -67.35 -36.6 -66.45 -36.75 -66.35 -37.1 -65.8 -37.9 -64.95 Q-35.35 -64.55 -33.45 -62.8 -32.55 -64.05 -31.05 -65.05 L-30.15 -65.55 -29.15 -66.1 -29.0 -66.1 -27.85 -65.2 -28.1 -65.2 -28.25 -65.2 -28.5 -65.2 -28.25 -65.05 -30.25 -63.8 Q-31.3 -62.9 -32.15 -61.25 L-32.15 -61.15 -31.9 -60.75 -31.55 -60.1 -30.65 -58.2 -32.45 -56.3 -33.05 -55.4 -34.6 -58.1 Q-34.85 -60.75 -33.45 -62.8 -34.85 -60.75 -34.6 -58.1 L-33.05 -55.4 -32.45 -56.3 -30.65 -58.2 Q-29.0 -59.6 -26.85 -60.35 L-26.45 -60.6 -26.2 -60.6 -23.65 -61.25 -23.15 -61.4 -22.65 -60.75 -23.3 -60.6 -25.85 -59.85 -25.95 -59.85 -26.95 -59.35 Q-28.6 -58.45 -30.15 -56.95 L-29.75 -56.05 -29.25 -54.55 -29.0 -53.4 Q-30.65 -52.5 -32.3 -51.1 L-32.7 -53.25 -32.95 -55.3 -33.05 -55.4 -32.95 -55.3 -32.7 -53.25 -32.3 -51.1 Q-30.65 -52.5 -29.0 -53.4 -26.95 -54.4 -24.95 -54.8 L-24.2 -54.9 -23.9 -54.9 -21.0 -55.05 -19.6 -54.9 -19.35 -53.9 -20.75 -54.0 -21.5 -54.0 Q-21.5 -54.8 -23.65 -54.15 L-24.8 -53.65 -25.45 -53.5 -28.5 -52.0 -28.5 -51.75 -27.2 -48.3 -26.7 -46.65 -23.8 -47.05 -22.65 -47.05 -19.75 -46.55 -22.0 -46.55 Q-22.3 -46.4 -22.65 -46.4 L-23.4 -46.3 -26.2 -45.55 Q-25.45 -43.75 -24.7 -42.75 L-23.05 -40.85 -22.3 -41.2 -19.5 -42.25 -16.55 -42.85 -18.6 -41.7 -21.4 -39.7 Q-19.25 -38.55 -16.7 -38.55 L-16.55 -38.55 -15.15 -38.7 -15.05 -38.8 -14.8 -39.45 -14.55 -40.05 -14.15 -40.85 -13.9 -41.2 -12.25 -43.5 -10.35 -43.9 -12.25 -43.5 -15.55 -43.0 -16.05 -43.1 Q-17.2 -43.35 -17.95 -43.75 -19.1 -44.65 -19.25 -46.55 L-19.25 -47.05 -19.25 -47.3 -17.7 -47.55 -17.05 -49.35 Q-16.2 -51.0 -14.55 -52.25 L-12.9 -52.25 -13.15 -52.0 -13.25 -51.75 -14.8 -50.2 -15.05 -49.7 Q-15.7 -48.7 -15.95 -47.7 L-14.4 -47.8 -12.9 -47.8 -10.35 -47.55 -10.2 -47.55 -9.85 -47.45 -8.85 -47.3 Q-8.3 -48.45 -7.05 -49.45 L-5.4 -50.45 -3.25 -49.35 -4.4 -48.55 -5.9 -47.45 -6.65 -46.4 Q-5.0 -45.55 -3.5 -43.75 L-3.75 -43.1 -4.75 -43.6 -3.75 -43.1 -4.4 -41.95 -4.9 -40.45 -3.75 -40.2 -3.6 -39.95 -3.6 -39.8 -3.35 -39.7 0.8 -37.15 -2.85 -31.45 Q-3.1 -32.6 -3.9 -33.45 L-4.65 -34.1 Q-5.55 -34.85 -6.8 -35.4 -5.55 -34.85 -4.65 -34.1 L-3.9 -33.45 -5.4 -27.75 -7.7 -28.8 -9.6 -29.9 Q-12.1 -31.55 -11.75 -33.75 -11.85 -33.6 -12.25 -33.6 L-13.4 -33.2 -14.55 -32.95 Q-15.05 -33.85 -15.15 -34.75 L-15.4 -35.4 Q-15.55 -37.05 -15.05 -38.8 -15.55 -37.05 -15.4 -35.4 L-15.15 -34.75 Q-15.05 -33.85 -14.55 -32.95 L-15.3 -32.85 -16.55 -32.7 -17.85 -32.7 Q-20.65 -32.95 -23.9 -34.35 L-26.85 -36.5 Q-25.55 -39.2 -23.05 -40.85 -25.55 -39.2 -26.85 -36.5 -28.85 -38.7 -30.0 -41.7 L-30.5 -43.0 -31.15 -45.0 Q-29.65 -45.8 -28.25 -46.15 L-26.7 -46.65 -28.25 -46.15 Q-29.65 -45.8 -31.15 -45.0 L-30.5 -43.0 Q-31.9 -42.75 -33.45 -43.0 -34.95 -43.25 -36.35 -44.0 -37.65 -44.5 -38.65 -45.4 L-40.05 -46.8 Q-40.95 -47.8 -41.7 -49.35 L-42.6 -51.25 -42.6 -51.5 Q-42.3 -53.4 -41.45 -54.9 -40.55 -56.8 -38.9 -58.35 L-34.6 -58.1 -38.9 -58.35 Q-40.55 -56.8 -41.45 -54.9 -42.3 -53.4 -42.6 -51.5 -43.35 -53.65 -43.35 -56.05 L-43.1 -58.45 -45.1 -58.95 Q-47.9 -60.0 -49.45 -61.9 -48.65 -63.9 -47.4 -65.3 -48.65 -63.9 -49.45 -61.9 L-49.55 -62.0 -49.7 -62.15 -50.95 -64.3 Q-51.85 -66.45 -52.2 -68.85 -52.6 -71.65 -52.35 -74.45 -50.7 -76.85 -49.05 -78.25 -50.7 -76.85 -52.35 -74.45 L-51.6 -77.35 -52.35 -78.75 -51.6 -77.35 -51.45 -78.75 Q-51.2 -81.95 -49.8 -83.95 -51.2 -81.95 -51.45 -78.75 L-51.6 -77.35 -52.35 -74.45 -53.5 -74.2 -56.55 -74.05 -58.95 -74.2 Q-61.25 -74.7 -63.15 -76.2 L-63.9 -76.75 -62.9 -77.75 Q-61.25 -79.15 -58.95 -79.8 L-57.8 -80.05 -57.65 -80.05 -55.9 -80.3 -55.0 -80.3 -55.5 -80.05 -57.05 -79.0 -52.75 -78.75 -52.35 -78.75 -53.0 -80.3 -53.5 -81.3 -54.4 -83.2 Q-54.1 -86.1 -53.1 -88.0 -54.1 -86.1 -54.4 -83.2 L-55.5 -85.25 -56.15 -86.35 -57.3 -89.3 -55.5 -89.3 -53.1 -88.0 Q-52.45 -89.55 -51.2 -90.45 -50.7 -91.05 -49.8 -91.3 L-48.3 -90.3 -49.15 -89.8 -49.55 -89.8 Q-49.95 -89.55 -50.3 -89.4 L-50.95 -88.8 -51.85 -87.0 Q-50.8 -86.0 -50.2 -84.85 L-50.2 -84.7 -49.8 -83.95 -48.55 -85.75 -48.15 -86.1 Q-47.15 -86.9 -45.85 -87.4 L-45.5 -87.5 -44.25 -85.5 -45.35 -85.25 -47.5 -84.2 -48.05 -83.95 -49.45 -82.7 Q-49.05 -80.9 -49.05 -78.25 L-47.25 -79.65 -46.0 -80.3 -45.1 -80.55 -43.45 -80.65 -43.1 -80.65 M-36.85 -68.35 L-39.65 -68.75 -39.9 -68.75 -40.4 -68.75 -40.05 -68.6 -40.55 -68.35 -42.7 -67.35 -43.95 -66.45 -45.6 -64.7 -43.7 -64.55 -40.4 -64.95 Q-42.7 -61.9 -43.1 -58.45 -42.7 -61.9 -40.4 -64.95 L-39.65 -65.7 -38.65 -66.7 -37.35 -67.85 -36.85 -68.35 M-33.2 -68.25 L-33.55 -67.75 -33.2 -68.25 M-41.05 -68.85 L-40.8 -68.85 -40.4 -68.75 -40.8 -68.85 -41.05 -68.85 -41.2 -69.25 -41.95 -70.4 -41.95 -70.5 -42.7 -72.65 -42.85 -72.65 -42.85 -72.8 -43.2 -72.8 -44.1 -72.95 -44.25 -72.95 -45.35 -72.65 -46.5 -72.4 -46.5 -72.3 -49.45 -70.65 Q-49.3 -67.85 -48.55 -66.45 L-48.15 -65.95 -47.65 -65.55 -47.4 -65.3 -46.0 -66.45 -44.85 -67.2 Q-43.2 -68.35 -41.05 -68.85 M-32.7 -53.25 Q-39.8 -53.15 -40.05 -46.8 -39.8 -53.15 -32.7 -53.25 M-61.1 -92.7 L-59.3 -92.1 -57.95 -91.2 -57.65 -90.55 -59.6 -91.3 -60.85 -91.55 -60.95 -91.7 -63.75 -91.85 -65.05 -91.85 -67.55 -91.85 -68.85 -91.45 Q-68.1 -88.4 -66.05 -85.75 -63.9 -86.75 -61.1 -86.65 L-60.85 -86.5 -59.05 -86.25 -58.3 -86.1 -56.4 -85.5 -56.15 -85.35 -56.4 -85.35 -57.65 -85.35 -58.8 -85.35 -60.35 -85.35 -60.7 -85.35 -61.25 -85.25 Q-62.9 -84.85 -64.55 -83.85 L-63.65 -82.95 -62.1 -81.7 Q-60.45 -80.4 -58.95 -79.8 -61.25 -79.15 -62.9 -77.75 L-63.9 -76.75 Q-66.8 -79.25 -68.7 -84.1 L-69.45 -86.35 Q-69.85 -88.9 -69.85 -90.8 L-69.85 -92.2 -69.2 -92.6 Q-66.95 -93.75 -64.25 -93.5 L-61.35 -92.85 -61.1 -92.7 M-66.05 -85.75 Q-67.45 -85.25 -68.7 -84.1 -67.45 -85.25 -66.05 -85.75 M-8.85 -47.3 L-9.1 -46.55 Q-9.45 -45.4 -9.2 -44.15 -9.45 -45.4 -9.1 -46.55 L-8.85 -47.3 M-5.65 -43.9 L-9.2 -44.15 -10.35 -43.9 -10.75 -43.5 -11.25 -43.1 Q-12.25 -42.1 -12.5 -40.95 L-12.65 -40.05 -12.5 -39.45 Q-12.4 -39.45 -12.25 -39.55 L-11.25 -39.7 -7.3 -40.6 -6.65 -40.6 -5.25 -43.0 -5.15 -43.1 -4.75 -43.6 -5.65 -43.9 M-6.65 -40.6 Q-7.95 -37.8 -6.8 -35.4 L-9.1 -34.6 -11.75 -33.75 -9.1 -34.6 -6.8 -35.4 Q-7.95 -37.8 -6.65 -40.6 M-17.95 -43.75 L-17.95 -45.8 -17.85 -46.8 -17.7 -47.55 -17.85 -46.8 -17.95 -45.8 -17.95 -43.75 M-9.1 -34.6 L-7.7 -28.8 -9.1 -34.6 M-32.3 -51.1 L-31.4 -46.9 -31.15 -45.0 Q-33.8 -44.65 -33.45 -43.0 -33.8 -44.65 -31.15 -45.0 L-31.4 -46.9 -32.3 -51.1 M-38.9 -58.35 L-43.1 -58.45 -38.9 -58.35 M-37.1 -73.7 Q-39.8 -72.4 -41.95 -70.4 -39.8 -72.4 -37.1 -73.7" fill="#aa7908" fill-rule="evenodd" stroke="none"/>
      <path d="M61.6 -97.3 Q60.2 -97.55 59.05 -97.3 L58.55 -98.7 Q60.2 -98.3 61.6 -97.3 M56.5 -95.5 Q55.1 -93.75 54.35 -90.3 53.85 -93.75 52.7 -97.55 L52.6 -98.15 53.2 -98.3 55.4 -98.8 Q56.15 -97.3 56.5 -95.5 M54.5 -89.9 Q55.1 -91.95 56.75 -93.35 L56.75 -91.85 56.5 -89.15 56.4 -88.15 Q55.5 -87.4 54.75 -86.35 L54.6 -88.3 54.5 -89.55 54.5 -89.9 M59.55 -95.25 Q60.95 -95.75 62.1 -95.75 L62.75 -95.75 62.5 -94.5 62.25 -92.95 62.25 -91.3 61.35 -91.05 59.8 -90.55 59.95 -91.95 Q59.95 -93.35 59.55 -95.25 M31.4 -36.75 L30.65 -37.9 33.7 -49.45 35.05 -51.6 Q37.25 -50.85 39.4 -49.45 L40.55 -48.7 41.8 -47.8 40.55 -45.25 38.35 -46.15 38.35 -45.8 38.25 -44.75 Q37.75 -42.1 35.35 -39.45 33.3 -37.3 31.4 -36.75 M54.85 -85.85 L56.0 -86.9 55.75 -86.25 54.85 -84.35 54.85 -85.85 M59.05 -88.55 L60.6 -89.05 61.95 -89.4 61.7 -88.4 Q61.2 -86.0 60.05 -83.45 L59.95 -83.2 58.05 -82.3 Q56.25 -81.45 54.5 -79.8 L54.5 -80.3 Q57.8 -85.35 59.05 -88.55 M53.45 -86.65 Q53.6 -86.1 53.85 -85.85 54.35 -84.45 54.35 -82.7 L54.1 -80.65 53.45 -79.5 53.2 -79.0 52.7 -80.05 Q51.45 -82.05 49.8 -83.05 L53.45 -86.65 M54.0 -77.5 L54.5 -79.65 57.3 -80.4 58.65 -80.9 56.15 -77.35 54.75 -75.95 Q54.25 -75.45 53.6 -75.1 L54.0 -77.5 M49.05 -82.05 L51.2 -80.3 52.85 -78.4 51.45 -76.1 51.05 -75.2 Q49.55 -77.1 47.75 -78.0 47.9 -80.05 48.4 -81.15 L49.05 -82.05 M47.65 -76.1 Q48.9 -75.6 50.3 -74.7 L50.7 -74.45 Q50.45 -73.55 50.45 -72.4 L50.7 -71.0 49.9 -71.4 48.4 -71.8 48.0 -72.8 Q47.65 -74.6 47.65 -75.7 L47.65 -76.1 M44.1 -72.3 L44.45 -71.4 44.2 -71.4 44.45 -71.4 Q44.7 -70.5 45.25 -69.65 L45.25 -69.5 45.35 -69.35 47.15 -64.8 46.25 -64.3 46.25 -64.7 46.25 -64.95 45.85 -66.6 45.35 -68.25 45.1 -69.0 44.95 -69.35 44.7 -70.0 44.95 -69.35 45.1 -69.0 43.95 -67.85 Q42.8 -68.5 41.55 -68.6 42.95 -69.5 44.7 -70.0 L44.2 -71.4 44.2 -71.65 44.1 -72.3 M50.55 -63.65 L50.8 -63.65 51.05 -63.65 53.6 -63.4 54.25 -59.85 54.0 -57.3 Q52.35 -58.6 50.45 -59.1 L50.7 -62.25 50.7 -62.5 Q50.55 -63.05 50.55 -63.65 M52.85 -65.2 L51.7 -65.55 50.15 -65.7 49.15 -69.0 49.05 -69.5 51.45 -69.0 52.2 -66.85 52.35 -66.45 52.85 -65.2 M46.35 -63.4 L47.0 -63.4 47.4 -63.4 47.4 -63.3 47.4 -62.25 47.15 -59.75 46.85 -59.35 46.0 -59.35 46.25 -60.6 46.35 -61.15 46.35 -63.4 M39.4 -66.95 L42.8 -66.2 42.2 -64.95 42.2 -64.8 41.3 -62.65 37.1 -62.8 Q37.6 -64.55 38.5 -65.95 L39.4 -66.95 M44.7 -58.7 L46.25 -58.35 46.1 -58.35 Q45.5 -57.6 43.45 -57.05 L42.45 -57.6 44.7 -58.7 M49.8 -57.3 Q51.8 -56.7 53.35 -55.4 L52.7 -54.55 51.95 -53.75 49.65 -52.5 47.9 -54.3 47.75 -54.4 48.0 -54.65 48.4 -55.05 49.8 -57.2 49.8 -57.3 M41.4 -56.55 L40.0 -56.05 41.05 -56.7 41.4 -56.55 M39.9 -56.05 L39.4 -55.8 38.35 -55.05 37.6 -54.4 37.35 -54.15 35.85 -52.75 Q35.6 -52.75 35.35 -53.25 L37.1 -54.65 37.25 -54.65 37.1 -55.05 36.6 -56.95 36.45 -57.45 36.45 -58.7 Q36.45 -60.1 36.7 -61.25 L38.75 -61.25 40.8 -61.0 Q40.0 -58.6 39.9 -56.05 M40.9 -51.0 L42.55 -51.6 43.45 -52.0 Q45.25 -52.75 46.5 -53.5 L46.85 -53.25 47.4 -52.75 48.25 -51.85 47.0 -51.5 46.85 -51.35 Q44.2 -50.35 42.7 -48.8 42.05 -50.1 41.05 -50.85 40.9 -50.85 40.9 -51.0 M39.4 -55.8 Q38.1 -57.05 36.6 -56.95 38.1 -57.05 39.4 -55.8 M36.6 -46.55 L38.35 -46.15 36.6 -46.55 M0.45 -43.1 L2.2 -39.2 0.8 -37.15 -3.35 -39.7 -3.6 -39.8 -3.6 -39.95 -3.75 -40.2 -4.9 -40.45 -4.4 -41.95 -3.75 -43.1 -3.5 -43.75 Q-5.0 -45.55 -6.65 -46.4 L-5.9 -47.45 -4.4 -48.55 Q-1.45 -47.05 0.05 -43.9 L0.45 -43.1 M-61.25 -98.15 L-60.35 -102.85 -59.45 -102.85 -58.95 -96.4 -58.8 -95.75 -58.8 -95.0 -58.7 -94.6 -58.3 -92.95 -58.3 -92.6 -57.95 -91.2 -58.3 -92.6 -57.55 -92.7 -54.75 -92.35 Q-52.75 -91.85 -51.2 -90.45 -52.45 -89.55 -53.1 -88.0 L-55.5 -89.3 -57.3 -89.3 -57.65 -90.55 -57.3 -89.3 -56.15 -86.35 -55.5 -85.25 -56.15 -85.35 -55.5 -85.25 -54.4 -83.2 -53.5 -81.3 Q-55.25 -82.45 -56.65 -84.1 L-57.65 -85.35 -56.4 -85.35 -56.15 -85.35 -56.4 -85.5 -58.3 -86.1 -60.1 -89.55 -60.85 -91.55 -59.6 -91.3 -57.65 -90.55 -57.95 -91.2 -59.3 -92.1 -61.1 -92.7 -61.5 -96.25 -61.5 -96.75 -61.5 -96.9 -59.45 -96.15 -59.6 -96.4 -61.25 -98.15 M-64.0 -102.1 L-64.15 -101.45 -64.4 -99.8 Q-66.2 -100.2 -67.95 -99.05 -66.55 -101.1 -64.0 -102.1 M-68.95 -97.05 L-67.3 -97.65 -65.4 -97.9 -64.65 -97.9 -64.65 -96.9 -64.65 -96.15 -64.25 -93.5 Q-66.95 -93.75 -69.2 -92.6 L-69.85 -92.2 -69.6 -94.85 -69.35 -95.75 -68.95 -97.05 M-43.1 -80.05 L-41.55 -79.8 -41.45 -79.8 -39.15 -79.25 Q-40.8 -78.5 -42.05 -77.0 L-42.7 -77.35 -43.1 -77.5 -43.1 -77.35 -43.2 -76.5 -43.2 -75.6 -42.85 -73.3 -43.45 -73.55 -44.5 -73.7 -44.5 -73.8 -44.85 -75.2 -45.0 -77.1 -45.0 -77.25 -45.0 -77.6 -45.1 -78.65 -43.95 -79.0 -43.6 -79.0 -43.1 -79.15 -43.1 -80.05 M-28.6 -66.85 Q-28.75 -66.35 -29.0 -66.1 L-29.15 -66.1 -29.75 -66.45 -30.5 -66.7 -31.05 -66.95 -31.4 -66.95 -32.8 -67.1 -33.45 -67.1 -35.2 -67.35 -34.95 -67.45 -34.35 -67.85 -33.55 -67.75 -33.05 -67.45 -32.95 -67.45 -31.4 -67.1 -32.95 -67.45 -33.05 -67.45 Q-32.45 -68.0 -31.3 -68.35 L-31.4 -67.1 Q-31.3 -66.95 -31.05 -66.95 L-30.8 -66.95 -30.5 -66.95 -28.6 -66.85 M-27.85 -65.2 L-27.5 -64.95 -28.1 -65.2 -27.85 -65.2 M-24.2 -62.25 L-23.15 -61.4 -23.65 -61.25 -24.2 -62.25 M-22.65 -60.75 L-21.9 -59.75 -21.9 -59.6 Q-20.35 -57.45 -19.6 -54.9 L-21.0 -55.05 -21.65 -56.7 -22.4 -58.6 -22.55 -58.95 -23.3 -60.6 -22.65 -60.75 M-19.35 -53.9 L-19.0 -51.25 -19.1 -48.8 -17.05 -49.35 -17.7 -47.55 -19.25 -47.3 -19.25 -47.05 -19.5 -47.3 Q-19.85 -47.8 -20.0 -48.55 -20.35 -49.85 -20.5 -51.75 L-20.75 -54.0 -19.35 -53.9 M-1.85 -42.5 L-3.75 -43.1 -1.85 -42.5 M-37.5 -78.65 L-35.6 -77.75 -34.6 -77.0 -34.05 -76.5 -32.95 -75.2 -33.45 -75.1 -35.35 -74.45 -37.1 -73.7 Q-38.65 -75.1 -40.4 -76.1 L-40.8 -76.35 -39.4 -77.5 -38.0 -78.4 -37.5 -78.65 M-33.2 -68.25 L-33.3 -68.6 Q-33.95 -70.15 -35.1 -71.65 L-35.7 -72.4 -36.25 -72.8 -35.2 -73.45 Q-34.2 -74.05 -33.05 -74.45 L-32.8 -74.45 -32.7 -74.6 Q-31.9 -73.3 -31.55 -71.55 L-31.3 -69.65 Q-32.45 -69.25 -33.2 -68.25 M-37.1 -65.8 L-36.75 -65.8 -32.7 -65.95 -30.8 -65.7 -30.15 -65.55 -31.05 -65.05 Q-32.55 -64.05 -33.45 -62.8 -35.35 -64.55 -37.9 -64.95 L-37.1 -65.8 M-30.65 -58.2 L-31.55 -60.1 -31.9 -60.75 -32.15 -61.15 -32.15 -61.25 Q-31.3 -62.9 -30.25 -63.8 L-28.25 -65.05 -27.6 -63.8 -26.35 -60.75 -26.2 -60.6 -26.45 -60.6 -26.85 -60.35 Q-29.0 -59.6 -30.65 -58.2 M-39.65 -68.75 L-36.85 -68.35 -37.35 -67.85 -40.05 -68.6 -40.4 -68.75 -39.9 -68.75 -39.65 -68.75 M-44.85 -67.2 L-46.0 -66.45 -47.4 -65.3 -47.65 -65.55 -48.15 -65.95 -48.55 -66.45 Q-49.3 -67.85 -49.45 -70.65 L-46.5 -72.3 -46.5 -71.15 -46.4 -70.25 -45.85 -69.0 -45.6 -68.5 -44.85 -67.2 M-40.4 -64.95 L-43.7 -64.55 -45.6 -64.7 -43.95 -66.45 Q-43.6 -66.2 -43.1 -66.1 L-39.65 -65.7 -40.4 -64.95 M-29.0 -53.4 L-29.25 -54.55 -29.75 -56.05 -30.15 -56.95 Q-28.6 -58.45 -26.95 -59.35 L-25.95 -59.85 -25.95 -59.6 Q-25.45 -58.2 -25.2 -56.8 L-24.95 -54.8 Q-26.95 -54.4 -29.0 -53.4 M-26.7 -46.65 L-27.2 -48.3 -28.5 -51.75 -28.5 -52.0 -25.45 -53.5 -24.8 -53.65 -24.8 -51.5 Q-25.05 -49.35 -23.8 -47.05 L-26.7 -46.65 M-15.05 -49.7 L-14.55 -49.85 -12.75 -49.95 -12.5 -49.95 -12.25 -49.95 -10.1 -49.85 -8.95 -49.7 -8.85 -49.7 -7.05 -49.45 Q-8.3 -48.45 -8.85 -47.3 L-9.85 -47.45 -10.2 -47.55 -10.35 -47.55 -12.9 -47.8 -14.4 -47.8 -15.95 -47.7 Q-15.7 -48.7 -15.05 -49.7 M-46.0 -88.3 L-45.5 -87.5 -45.85 -87.4 -46.0 -88.3 M-44.25 -85.5 L-43.85 -84.45 -43.2 -81.8 -43.1 -80.9 -43.1 -80.65 -43.45 -80.65 -45.1 -80.55 -45.35 -83.95 -45.35 -85.25 -44.25 -85.5 M-47.25 -79.65 L-49.05 -78.25 Q-49.05 -80.9 -49.45 -82.7 L-48.05 -83.95 -47.25 -79.65 M-49.45 -72.05 L-49.15 -76.75 -47.0 -77.85 -46.65 -73.55 Q-48.15 -73.2 -49.45 -72.05 M-53.0 -80.3 L-52.35 -78.75 -52.75 -78.75 -57.05 -79.0 -55.5 -80.05 -55.0 -80.3 -53.0 -80.3 M-49.8 -83.95 L-50.2 -84.7 -50.2 -84.85 Q-50.8 -86.0 -51.85 -87.0 L-50.95 -88.8 -50.3 -89.4 -49.15 -87.5 -48.55 -85.75 -49.8 -83.95 M-60.35 -85.35 L-59.95 -84.85 -58.2 -82.45 -57.3 -81.55 -55.9 -80.3 -57.65 -80.05 -57.8 -80.05 -58.95 -79.8 Q-60.45 -80.4 -62.1 -81.7 L-63.65 -82.95 -64.55 -83.85 Q-62.9 -84.85 -61.25 -85.25 L-60.7 -85.35 -60.35 -85.35 M-43.1 -79.15 L-43.1 -77.5 -43.1 -79.15 M-66.05 -85.75 Q-68.1 -88.4 -68.85 -91.45 L-67.55 -91.85 -65.05 -91.85 -63.75 -91.85 Q-62.9 -89.3 -61.1 -86.65 -63.9 -86.75 -66.05 -85.75 M-44.25 -72.95 L-44.1 -72.95 -43.2 -72.8 -42.85 -72.8 -42.85 -72.65 -42.7 -72.65 -41.95 -70.5 -41.95 -70.4 -41.2 -69.25 Q-42.85 -70.15 -43.45 -71.4 L-43.7 -71.65 -44.25 -72.95 M-12.5 -40.95 L-11.0 -41.35 -9.35 -42.1 Q-7.8 -42.75 -5.25 -43.0 L-6.65 -40.6 -7.3 -40.6 -11.25 -39.7 -12.25 -39.55 Q-12.4 -39.45 -12.5 -39.45 L-12.65 -40.05 -12.5 -40.95 M-5.15 -43.1 L-5.65 -43.9 -4.75 -43.6 -5.15 -43.1 M-14.15 -40.85 L-14.55 -40.05 -14.8 -39.45 -15.05 -38.8 -15.15 -38.7 -16.55 -38.55 -16.7 -38.55 Q-19.25 -38.55 -21.4 -39.7 L-18.6 -41.7 Q-16.95 -40.95 -15.15 -40.85 L-14.8 -40.85 -14.55 -40.85 -14.15 -40.85 M-19.25 -47.3 L-19.1 -48.8 -19.25 -47.3 M-19.5 -42.25 L-22.3 -41.2 -23.05 -40.85 -24.7 -42.75 Q-25.45 -43.75 -26.2 -45.55 L-23.4 -46.3 -22.55 -45.15 -22.0 -44.5 Q-20.9 -43.1 -19.5 -42.25" fill="#e5b700" fill-rule="evenodd" stroke="none"/>
      <path d="M59.05 -97.3 Q57.55 -96.9 56.5 -95.5 56.15 -97.3 55.4 -98.8 L58.55 -98.7 59.05 -97.3 M56.75 -93.35 L58.05 -94.35 59.55 -95.25 Q59.95 -93.35 59.95 -91.95 L59.8 -90.55 57.4 -89.05 56.4 -88.15 56.5 -89.15 56.75 -91.85 56.75 -93.35 M56.0 -86.9 Q57.4 -87.9 59.05 -88.55 57.8 -85.35 54.5 -80.3 L54.75 -81.95 54.85 -84.35 55.75 -86.25 56.0 -86.9 M52.6 -88.0 L53.45 -86.65 49.8 -83.05 Q48.5 -83.7 47.15 -83.95 49.9 -87.25 52.6 -88.0 M46.5 -82.95 Q47.75 -82.7 49.05 -82.05 L48.4 -81.15 Q47.9 -80.05 47.75 -78.0 46.25 -78.75 44.45 -78.75 L45.85 -82.05 46.5 -82.95 M43.95 -77.0 L44.35 -77.1 Q45.75 -77.1 47.65 -76.1 L47.65 -75.7 Q47.65 -74.6 48.0 -72.8 L48.4 -71.8 Q46.1 -72.3 44.45 -71.4 L44.1 -72.3 43.85 -75.35 43.95 -76.6 43.95 -77.0 M50.15 -65.7 Q48.5 -65.55 47.15 -64.8 L45.35 -69.35 45.25 -69.5 47.0 -69.65 49.05 -69.5 49.15 -69.0 50.15 -65.7 M47.4 -63.3 L48.5 -63.4 50.55 -63.65 Q50.55 -63.05 50.7 -62.5 L50.7 -62.25 50.45 -59.1 49.55 -59.25 47.5 -59.35 46.85 -59.35 47.15 -59.75 47.4 -62.25 47.4 -63.3 M44.2 -71.4 L44.7 -70.0 Q42.95 -69.5 41.55 -68.6 40.0 -68.85 38.65 -68.6 L38.5 -68.6 Q41.05 -70.4 44.2 -71.4 M37.1 -67.45 L37.35 -67.45 39.4 -66.95 38.5 -65.95 Q37.6 -64.55 37.1 -62.8 L34.8 -62.5 34.3 -62.4 35.2 -65.45 37.1 -67.45 M46.25 -58.35 L49.05 -57.6 49.8 -57.3 49.8 -57.2 48.4 -55.05 48.0 -54.65 47.75 -54.4 Q45.85 -55.95 43.45 -57.05 45.5 -57.6 46.1 -58.35 L46.25 -58.35 M41.4 -56.55 L41.95 -56.45 42.95 -55.95 Q44.7 -55.15 46.5 -53.5 45.25 -52.75 43.45 -52.0 L42.55 -51.6 40.9 -51.0 Q38.9 -52.5 35.85 -52.75 L37.35 -54.15 37.6 -54.4 38.35 -55.05 39.4 -55.8 39.9 -56.05 40.0 -56.05 41.4 -56.55 M36.7 -61.25 Q36.45 -60.1 36.45 -58.7 L36.45 -57.45 36.6 -56.95 Q35.45 -56.8 34.2 -55.95 35.45 -56.8 36.6 -56.95 L37.1 -55.05 37.25 -54.65 37.1 -54.65 35.35 -53.25 34.55 -54.9 34.3 -55.65 34.2 -55.95 33.8 -57.7 33.8 -60.5 33.95 -61.25 36.2 -61.4 36.7 -61.25 M-61.25 -98.15 L-62.75 -99.3 Q-63.65 -99.8 -64.4 -99.8 L-64.15 -101.45 -64.0 -102.1 -63.15 -102.35 -60.35 -102.85 -61.25 -98.15 M-43.1 -80.65 L-41.05 -80.65 -40.95 -80.65 -37.25 -80.15 -36.6 -80.05 -37.5 -79.8 -39.15 -79.25 -41.45 -79.8 -41.55 -79.8 -43.1 -80.05 -43.1 -80.65 M-35.2 -79.5 L-34.85 -79.4 -32.55 -78.15 -30.65 -75.6 -32.95 -75.2 -34.05 -76.5 -34.6 -77.0 -35.6 -77.75 -37.5 -78.65 Q-36.25 -79.4 -35.2 -79.5 M-30.15 -74.95 Q-29.0 -73.05 -28.6 -71.4 L-28.5 -69.65 -30.9 -69.75 -31.3 -69.65 -31.55 -71.55 Q-31.9 -73.3 -32.7 -74.6 L-30.15 -74.95 M-28.5 -69.0 L-28.6 -66.85 -30.5 -66.95 -30.8 -66.95 -31.05 -66.95 -30.5 -66.7 -29.75 -66.45 -29.15 -66.1 -30.15 -65.55 -30.8 -65.7 -32.7 -65.95 -36.75 -65.8 -37.1 -65.8 -36.75 -66.35 -36.6 -66.45 -35.35 -67.35 -35.2 -67.35 -33.45 -67.1 -32.8 -67.1 -31.4 -66.95 -31.05 -66.95 Q-31.3 -66.95 -31.4 -67.1 L-31.3 -68.35 -30.65 -68.5 -30.5 -68.6 -28.5 -69.0 M-27.5 -64.95 L-26.95 -64.55 -24.7 -62.65 -24.2 -62.25 -23.65 -61.25 -26.2 -60.6 -26.35 -60.75 -27.6 -63.8 -28.25 -65.05 -28.5 -65.2 -28.25 -65.2 -28.1 -65.2 -27.5 -64.95 M-19.0 -51.25 Q-16.95 -52.1 -14.55 -52.25 -16.2 -51.0 -17.05 -49.35 L-19.1 -48.8 -19.0 -51.25 M-12.9 -52.25 L-12.1 -52.25 -11.5 -52.1 -9.95 -52.0 -7.95 -51.5 -7.8 -51.5 -5.4 -50.45 -7.05 -49.45 -8.85 -49.7 -8.95 -49.7 -10.1 -49.85 -12.25 -49.95 -12.5 -49.95 -12.75 -49.95 -14.55 -49.85 -15.05 -49.7 -14.8 -50.2 -13.25 -51.75 -13.15 -52.0 -12.9 -52.25 M-3.25 -49.35 L-1.6 -47.7 0.05 -43.9 Q-1.45 -47.05 -4.4 -48.55 L-3.25 -49.35 M-41.05 -68.85 Q-43.2 -68.35 -44.85 -67.2 L-45.6 -68.5 -45.85 -69.0 -46.4 -70.25 -46.5 -71.15 -46.5 -72.3 -46.5 -72.4 -45.35 -72.65 -44.25 -72.95 -43.7 -71.65 -43.45 -71.4 Q-42.85 -70.15 -41.2 -69.25 L-41.05 -68.85 M-43.95 -66.45 L-42.7 -67.35 -40.55 -68.35 -40.05 -68.6 -37.35 -67.85 -38.65 -66.7 -39.65 -65.7 -43.1 -66.1 Q-43.6 -66.2 -43.95 -66.45 M-25.95 -59.85 L-25.85 -59.85 -23.3 -60.6 -22.55 -58.95 -22.4 -58.6 -21.65 -56.7 -21.0 -55.05 -23.9 -54.9 -24.2 -54.9 -24.95 -54.8 -25.2 -56.8 Q-25.45 -58.2 -25.95 -59.6 L-25.95 -59.85 M-23.8 -47.05 Q-25.05 -49.35 -24.8 -51.5 L-24.8 -53.65 -23.65 -54.15 Q-21.5 -54.8 -21.5 -54.0 L-20.75 -54.0 -20.5 -51.75 Q-20.35 -49.85 -20.0 -48.55 -19.85 -47.8 -19.5 -47.3 L-19.25 -47.05 -19.25 -46.55 Q-19.1 -44.65 -17.95 -43.75 -17.2 -43.35 -16.05 -43.1 L-15.55 -43.0 -12.25 -43.5 -13.9 -41.2 -14.15 -40.85 -14.55 -40.85 -14.8 -40.85 -15.15 -40.85 Q-16.95 -40.95 -18.6 -41.7 L-16.55 -42.85 -19.5 -42.25 Q-20.9 -43.1 -22.0 -44.5 L-22.55 -45.15 -23.4 -46.3 -22.65 -46.4 Q-22.3 -46.4 -22.0 -46.55 L-19.75 -46.55 -22.65 -47.05 -23.8 -47.05 M-48.3 -90.3 L-48.05 -90.2 -47.9 -90.05 -46.0 -88.3 -45.85 -87.4 Q-47.15 -86.9 -48.15 -86.1 L-48.55 -85.75 -49.15 -87.5 -50.3 -89.4 Q-49.95 -89.55 -49.55 -89.8 L-49.15 -89.8 -48.3 -90.3 M-45.1 -80.55 L-46.0 -80.3 -47.25 -79.65 -48.05 -83.95 -47.5 -84.2 -45.35 -85.25 -45.35 -83.95 -45.1 -80.55 M-47.0 -77.85 L-46.5 -78.15 -45.5 -78.5 -45.1 -78.65 -45.0 -77.6 -45.0 -77.25 -45.0 -77.1 -44.85 -75.2 -44.5 -73.8 -44.5 -73.7 -44.6 -73.7 -45.1 -73.7 -46.65 -73.55 -47.0 -77.85 M-49.8 -91.3 Q-50.7 -91.05 -51.2 -90.45 -52.75 -91.85 -54.75 -92.35 L-57.55 -92.7 -58.3 -92.6 -58.3 -92.95 Q-56.65 -93.75 -54.5 -93.35 -52.35 -92.95 -49.8 -91.3 M-53.5 -81.3 L-53.0 -80.3 -55.0 -80.3 -55.9 -80.3 -57.3 -81.55 -58.2 -82.45 -59.95 -84.85 -60.35 -85.35 -58.8 -85.35 -57.65 -85.35 -56.65 -84.1 Q-55.25 -82.45 -53.5 -81.3 M-10.35 -43.9 L-9.2 -44.15 -5.65 -43.9 -5.15 -43.1 -5.25 -43.0 Q-7.8 -42.75 -9.35 -42.1 L-11.0 -41.35 -12.5 -40.95 Q-12.25 -42.1 -11.25 -43.1 L-10.75 -43.5 -10.35 -43.9 M-15.55 -43.0 L-16.55 -42.85 -15.55 -43.0" fill="#ffe377" fill-rule="evenodd" stroke="none"/>
      <path d="M-64.65 -97.9 L-62.35 -97.3 -61.5 -96.9 -61.5 -96.75 -61.5 -96.25 -61.1 -92.7 -61.35 -92.85 -64.25 -93.5 -64.65 -96.15 -64.65 -96.9 -64.65 -97.9 M-60.85 -91.55 L-60.1 -89.55 -58.3 -86.1 -59.05 -86.25 -60.85 -86.5 -61.1 -86.65 Q-62.9 -89.3 -63.75 -91.85 L-60.95 -91.7 -60.85 -91.55" fill="#fff9e2" fill-rule="evenodd" stroke="none"/>
      <path d="M65.65 -91.3 Q64.65 -94.0 63.1 -95.75 L63.0 -95.9 62.75 -96.15 61.6 -97.3 Q60.2 -97.55 59.05 -97.3 57.55 -96.9 56.5 -95.5 55.1 -93.75 54.35 -90.3 L54.5 -89.9 54.5 -89.55 54.6 -88.3 54.75 -86.35 54.85 -85.85 54.85 -84.35 54.75 -81.95 54.5 -80.3 54.5 -79.8 54.5 -79.65 54.0 -77.5 53.6 -78.15 53.45 -78.65 53.2 -79.0 52.7 -80.05 Q51.45 -82.05 49.8 -83.05 48.5 -83.7 47.15 -83.95 L46.5 -82.95 45.85 -82.05 44.45 -78.75 Q46.25 -78.75 47.75 -78.0 49.55 -77.1 51.05 -75.2 L52.1 -73.7 53.35 -71.0 53.6 -74.2 55.1 -74.85 64.4 -74.6 64.75 -74.3 63.35 -72.4 Q60.45 -69.0 54.85 -68.5 L55.4 -67.2 Q56.15 -65.2 56.5 -63.05 L56.65 -62.25 M62.25 -91.3 Q63.9 -91.7 65.65 -91.3 L66.15 -89.55 66.55 -88.15 67.05 -85.6 67.05 -83.05 66.9 -81.3 66.8 -80.55 Q66.3 -76.85 64.75 -74.3 M56.65 -62.0 Q56.9 -60.1 56.65 -58.1 L56.15 -55.3 55.25 -53.75 54.75 -52.9 Q53.45 -51.25 51.3 -49.95 52.35 -47.95 52.7 -45.9 53.1 -44.4 52.95 -42.85 53.1 -41.85 52.85 -40.7 L52.1 -37.65 Q51.2 -35.25 49.65 -34.0 L47.15 -31.8 47.0 -31.8 Q45.75 -31.05 44.45 -30.95 44.6 -26.9 42.95 -23.6 L41.65 -21.3 31.4 -36.75 30.65 -37.9 28.5 -29.8 M62.25 -91.3 L61.35 -91.05 59.8 -90.55 57.4 -89.05 56.4 -88.15 Q55.5 -87.4 54.75 -86.35 M59.95 -83.2 Q63.5 -84.6 67.05 -83.05 M53.6 -75.1 L53.6 -74.2 M58.55 -98.7 L55.4 -98.8 53.2 -98.3 52.6 -98.15 52.7 -97.55 Q53.85 -93.75 54.35 -90.3 M54.6 -88.3 L54.25 -88.3 52.6 -88.0 Q49.9 -87.25 47.15 -83.95 M44.45 -78.75 L43.95 -77.0 43.95 -76.6 43.85 -75.35 44.1 -72.3 44.2 -71.65 44.2 -71.4 44.7 -70.0 44.95 -69.35 45.1 -69.0 45.35 -68.25 45.85 -66.6 46.25 -64.95 M50.7 -71.0 L53.2 -69.65 54.85 -68.5 53.35 -71.0 M44.45 -71.4 Q46.1 -72.3 48.4 -71.8 L49.9 -71.4 50.7 -71.0 M59.95 -83.2 L58.05 -82.3 Q56.25 -81.45 54.5 -79.8 M53.6 -75.1 L54.0 -77.5 M54.0 -57.3 L56.15 -55.3 M52.85 -65.2 L51.7 -65.55 50.15 -65.7 Q48.5 -65.55 47.15 -64.8 L46.25 -64.3 46.35 -63.4 46.35 -61.15 45.5 -61.5 Q43.45 -62.4 41.3 -62.65 L37.1 -62.8 34.8 -62.5 34.3 -62.4 34.05 -61.5 33.95 -61.25 33.8 -60.5 33.8 -57.7 34.2 -55.95 Q35.45 -56.8 36.6 -56.95 38.1 -57.05 39.4 -55.8 L38.35 -55.05 37.6 -54.4 37.35 -54.15 35.85 -52.75 Q38.9 -52.5 40.9 -51.0 40.9 -50.85 41.05 -50.85 42.05 -50.1 42.7 -48.8 L43.45 -46.8 47.4 -48.45 Q50.45 -47.05 52.1 -44.5 L52.95 -42.85 M50.45 -59.1 Q52.35 -58.6 54.0 -57.3 M52.85 -65.2 Q54.6 -64.55 56.5 -63.05 M44.45 -71.4 L44.2 -71.4 Q41.05 -70.4 38.5 -68.6 L38.35 -68.6 37.5 -67.85 37.1 -67.45 35.2 -65.45 34.3 -62.4 M46.25 -64.7 L46.25 -64.3 M43.95 -67.85 Q42.8 -68.5 41.55 -68.6 40.0 -68.85 38.65 -68.6 L38.5 -68.6 M45.85 -66.6 L43.95 -67.85 M50.45 -59.1 L49.55 -59.25 47.5 -59.35 46.85 -59.35 46.0 -59.35 Q45.35 -58.95 44.7 -58.7 L42.45 -57.6 43.45 -57.05 Q45.85 -55.95 47.75 -54.4 L47.9 -54.3 49.65 -52.5 51.3 -49.95 47.4 -48.45 M46.0 -59.35 L46.25 -60.6 46.35 -61.15 M39.9 -56.05 L39.4 -55.8 M41.05 -56.7 L40.0 -56.05 M41.05 -56.7 L42.45 -57.6 M61.6 -97.3 Q60.2 -98.3 58.55 -98.7 M34.2 -55.95 L34.3 -55.65 34.55 -54.9 35.35 -53.25 Q35.6 -52.75 35.85 -52.75 L35.05 -51.6 33.7 -49.45 30.65 -37.9 25.7 -45.4 M40.55 -45.25 L42.8 -43.75 43.45 -46.8 M38.35 -46.15 L36.6 -46.55 M0.45 -43.1 L2.2 -39.2 4.5 -42.85 M0.8 -37.15 L2.2 -39.2 2.85 -37.4 M52.1 -37.65 Q51.45 -39.45 50.45 -40.45 48.25 -42.85 44.35 -41.85 L43.05 -41.6 43.45 -39.45 44.1 -35.1 44.35 -33.1 Q46.75 -33.6 47.15 -32.1 L47.15 -31.8 M42.8 -43.75 L43.05 -41.6 M44.45 -30.95 L44.35 -33.1 42.55 -33.35 M42.95 -23.6 L42.45 -24.2 M38.35 -46.15 L40.55 -45.25 M43.45 -39.45 L40.3 -40.45 M-64.4 -99.8 Q-63.65 -99.8 -62.75 -99.3 L-61.25 -98.15 -59.6 -96.4 -59.45 -96.15 M-60.35 -102.85 L-63.15 -102.35 -64.0 -102.1 Q-66.55 -101.1 -67.95 -99.05 L-68.95 -97.05 -69.35 -95.75 -69.6 -94.85 -69.85 -92.2 -69.85 -90.8 Q-69.85 -88.9 -69.45 -86.35 L-68.7 -84.1 Q-67.45 -85.25 -66.05 -85.75 -63.9 -86.75 -61.1 -86.65 L-60.85 -86.5 -59.05 -86.25 -58.3 -86.1 -56.4 -85.5 -56.15 -85.35 -55.5 -85.25 -56.15 -86.35 -57.3 -89.3 -57.65 -90.55 -57.95 -91.2 -58.3 -92.6 -58.3 -92.95 Q-56.65 -93.75 -54.5 -93.35 -52.35 -92.95 -49.8 -91.3 -50.7 -91.05 -51.2 -90.45 -52.45 -89.55 -53.1 -88.0 -54.1 -86.1 -54.4 -83.2 L-53.5 -81.3 -53.0 -80.3 -52.35 -78.75 -51.6 -77.35 -51.45 -78.75 Q-51.2 -81.95 -49.8 -83.95 L-48.55 -85.75 -48.15 -86.1 Q-47.15 -86.9 -45.85 -87.4 L-45.5 -87.5 -44.25 -85.5 -43.85 -84.45 -43.2 -81.8 -43.1 -80.9 -43.1 -80.65 -43.45 -80.65 -45.1 -80.55 -46.0 -80.3 -47.25 -79.65 -49.05 -78.25 Q-50.7 -76.85 -52.35 -74.45 -52.6 -71.65 -52.2 -68.85 -50.95 -70.9 -49.45 -72.05 -48.15 -73.2 -46.65 -73.55 L-45.1 -73.7 -44.6 -73.7 -44.5 -73.7 -43.45 -73.55 -42.85 -73.3 -42.7 -73.05 -42.7 -72.65 -41.95 -70.5 M-64.4 -99.8 Q-66.2 -100.2 -67.95 -99.05 M-58.3 -92.95 L-58.7 -94.6 -58.8 -95.0 -58.8 -95.75 -58.95 -96.4 -59.45 -102.85 -60.35 -102.85 M-36.6 -80.05 L-37.25 -80.15 -40.95 -80.65 -41.05 -80.65 -43.1 -80.65 -43.1 -80.05 -43.1 -79.15 -43.1 -77.5 -43.1 -77.35 -43.2 -76.5 -43.2 -75.6 -42.05 -77.0 Q-40.8 -78.5 -39.15 -79.25 L-37.5 -79.8 -36.6 -80.05 -35.2 -79.5 -34.85 -79.4 -32.55 -78.15 -30.65 -75.6 -30.15 -74.95 Q-29.0 -73.05 -28.6 -71.4 L-28.5 -69.65 -28.5 -69.0 -28.6 -66.85 Q-28.75 -66.35 -29.0 -66.1 L-27.85 -65.2 -27.5 -64.95 -26.95 -64.55 -24.7 -62.65 -24.2 -62.25 -23.15 -61.4 -22.65 -60.75 -21.9 -59.75 -21.9 -59.6 Q-20.35 -57.45 -19.6 -54.9 L-19.35 -53.9 -19.0 -51.25 Q-16.95 -52.1 -14.55 -52.25 L-12.9 -52.25 -12.1 -52.25 -11.5 -52.1 -9.95 -52.0 -7.95 -51.5 -7.8 -51.5 -5.4 -50.45 -3.25 -49.35 -1.6 -47.7 0.05 -43.9 M-3.75 -43.1 L-1.85 -42.5 M-37.1 -73.7 L-35.35 -74.45 -33.45 -75.1 -32.95 -75.2 -30.65 -75.6 M-33.2 -68.25 Q-32.45 -69.25 -31.3 -69.65 L-30.9 -69.75 -28.5 -69.65 M-30.15 -65.55 L-29.15 -66.1 -29.75 -66.45 -30.5 -66.7 -31.05 -66.95 Q-31.3 -66.95 -31.4 -67.1 L-32.95 -67.45 -33.05 -67.45 -33.55 -67.75 -33.2 -68.25 M-30.15 -65.55 L-31.05 -65.05 Q-32.55 -64.05 -33.45 -62.8 -34.85 -60.75 -34.6 -58.1 L-33.05 -55.4 -32.45 -56.3 -30.65 -58.2 Q-29.0 -59.6 -26.85 -60.35 L-26.45 -60.6 -26.2 -60.6 -23.65 -61.25 -23.15 -61.4 M-29.0 -66.1 L-29.15 -66.1 M-39.65 -68.75 L-36.85 -68.35 -35.2 -68.0 -34.35 -67.85 -33.55 -67.75 M-40.4 -68.75 L-39.9 -68.75 M-40.4 -68.75 L-40.8 -68.85 -41.05 -68.85 Q-43.2 -68.35 -44.85 -67.2 L-46.0 -66.45 -47.4 -65.3 Q-48.65 -63.9 -49.45 -61.9 -47.9 -60.0 -45.1 -58.95 L-43.1 -58.45 Q-42.7 -61.9 -40.4 -64.95 L-39.65 -65.7 -38.65 -66.7 -37.35 -67.85 -36.85 -68.35 M-33.05 -55.4 L-32.95 -55.3 -32.7 -53.25 -32.3 -51.1 Q-30.65 -52.5 -29.0 -53.4 -26.95 -54.4 -24.95 -54.8 L-24.2 -54.9 -23.9 -54.9 -21.0 -55.05 -19.6 -54.9 M-34.6 -58.1 L-38.9 -58.35 Q-40.55 -56.8 -41.45 -54.9 -42.3 -53.4 -42.6 -51.5 L-42.6 -51.25 -41.7 -49.35 Q-40.95 -47.8 -40.05 -46.8 -39.8 -53.15 -32.7 -53.25 M-26.7 -46.65 L-23.8 -47.05 -22.65 -47.05 -19.75 -46.55 M-8.85 -47.3 Q-8.3 -48.45 -7.05 -49.45 L-5.4 -50.45 M-48.3 -90.3 L-48.05 -90.2 -47.9 -90.05 -46.0 -88.3 -45.5 -87.5 M-48.3 -90.3 L-49.8 -91.3 M-61.1 -92.7 L-59.3 -92.1 -57.95 -91.2 M-54.4 -83.2 L-55.5 -85.25 M-58.95 -79.8 L-57.8 -80.05 -57.65 -80.05 -55.9 -80.3 -55.0 -80.3 -53.0 -80.3 M-52.35 -74.45 L-51.6 -77.35 M-61.1 -92.7 L-61.35 -92.85 -64.25 -93.5 Q-66.95 -93.75 -69.2 -92.6 L-69.85 -92.2 M-63.9 -76.75 L-62.9 -77.75 Q-61.25 -79.15 -58.95 -79.8 M-63.9 -76.75 L-63.15 -76.2 Q-61.25 -74.7 -58.95 -74.2 L-56.55 -74.05 -53.5 -74.2 -52.35 -74.45 M-68.7 -84.1 Q-66.8 -79.25 -63.9 -76.75 M-41.2 -69.25 L-41.95 -70.4 Q-39.8 -72.4 -37.1 -73.7 M-41.2 -69.25 L-41.05 -68.85 M-52.2 -68.85 Q-51.85 -66.45 -50.95 -64.3 L-49.7 -62.15 -49.55 -62.0 -49.45 -61.9 M-43.1 -58.45 L-43.35 -56.05 Q-43.35 -53.65 -42.6 -51.5 M-43.2 -75.6 L-42.85 -73.3 M-9.2 -44.15 Q-9.45 -45.4 -9.1 -46.55 L-8.85 -47.3 M-5.65 -43.9 L-9.2 -44.15 -10.35 -43.9 -12.25 -43.5 -13.9 -41.2 -14.15 -40.85 -14.55 -40.05 -14.8 -39.45 -15.05 -38.8 Q-15.55 -37.05 -15.4 -35.4 L-15.15 -34.75 Q-15.05 -33.85 -14.55 -32.95 L-13.4 -33.2 -12.25 -33.6 Q-11.85 -33.6 -11.75 -33.75 L-9.1 -34.6 -6.8 -35.4 Q-7.95 -37.8 -6.65 -40.6 L-5.25 -43.0 -5.15 -43.1 -4.75 -43.6 -3.75 -43.1 M-5.65 -43.9 L-4.75 -43.6 M0.8 -37.15 L-2.85 -31.45 -5.15 -27.75 -3.6 -27.5 -2.1 -27.75 M-17.7 -47.55 L-17.05 -49.35 Q-16.2 -51.0 -14.55 -52.25 M-19.1 -48.8 L-19.25 -47.3 -19.25 -47.05 -19.25 -46.55 Q-19.1 -44.65 -17.95 -43.75 -17.2 -43.35 -16.05 -43.1 L-15.55 -43.0 -12.25 -43.5 M-17.7 -47.55 L-17.85 -46.8 -17.95 -45.8 -17.95 -43.75 M-16.55 -42.85 L-19.5 -42.25 -22.3 -41.2 -23.05 -40.85 Q-25.55 -39.2 -26.85 -36.5 L-23.9 -34.35 Q-20.65 -32.95 -17.85 -32.7 L-16.55 -32.7 -15.3 -32.85 -14.55 -32.95 M-16.55 -42.85 L-15.55 -43.0 M-6.8 -35.4 Q-5.55 -34.85 -4.65 -34.1 L-3.9 -33.45 Q-3.1 -32.6 -2.85 -31.45 M-7.7 -28.8 L-5.4 -27.75 -3.9 -33.45 M-11.75 -33.75 Q-12.1 -31.55 -9.6 -29.9 L-7.7 -28.8 -9.1 -34.6 M-5.4 -27.75 L-5.15 -27.75 M-26.7 -46.65 L-28.25 -46.15 Q-29.65 -45.8 -31.15 -45.0 L-30.5 -43.0 -30.0 -41.7 Q-28.85 -38.7 -26.85 -36.5 M-33.45 -43.0 Q-33.8 -44.65 -31.15 -45.0 L-31.4 -46.9 -32.3 -51.1 M-30.5 -43.0 Q-31.9 -42.75 -33.45 -43.0 -34.95 -43.25 -36.35 -44.0 -37.65 -44.5 -38.65 -45.4 L-40.05 -46.8 M-43.1 -58.45 L-38.9 -58.35 M-19.1 -48.8 L-19.0 -51.25" fill="none" stroke="#000000" stroke-linecap="round" stroke-linejoin="round" stroke-opacity="0.4" stroke-width="0.8"/>
      <path d="M16.95 -64.55 L16.95 -63.55 15.4 -63.05 10.1 -63.4 10.1 -64.45 10.1 -69.5 16.8 -69.5 16.95 -64.55 M30.25 -55.55 L27.6 -52.5 Q22.9 -55.15 17.2 -55.15 8.2 -55.15 1.6 -48.7 -4.65 -42.25 -4.65 -33.1 -4.65 -26.25 -0.95 -20.8 L-3.75 -18.0 -3.9 -18.25 Q-8.7 -24.7 -8.7 -33.1 -8.7 -43.75 -1.1 -51.35 6.55 -58.95 17.2 -58.95 24.4 -58.95 30.25 -55.55" fill="#a8a8a8" fill-rule="evenodd" stroke="none"/>
      <path d="M10.1 -64.45 L10.1 -63.4 15.4 -63.05 16.95 -63.55 16.95 -64.55 19.45 -64.15 18.95 -63.55 Q18.45 -62.9 17.55 -62.5 16.7 -62.0 15.55 -61.9 14.4 -61.75 11.85 -61.9 9.3 -62.15 7.15 -63.9 L10.1 -64.45 M16.8 -69.5 L10.1 -69.5 4.35 -69.5 Q4.1 -70.5 4.75 -71.4 L9.7 -71.15 13.65 -71.3 22.0 -70.9 22.0 -71.55 Q23.0 -70.5 22.25 -69.5 L16.8 -69.5 M2.7 -60.0 L3.25 -60.1 Q3.85 -60.1 4.35 -59.6 L4.9 -58.95 4.9 -58.7 4.1 -57.2 Q3.1 -55.8 2.1 -55.8 1.2 -55.8 0.95 -56.45 L1.45 -56.3 Q2.35 -56.3 2.95 -57.05 3.6 -57.6 3.6 -58.45 L3.5 -58.95 2.95 -59.85 2.7 -60.0 M23.8 -64.05 L24.55 -63.15 26.95 -62.8 27.95 -62.9 27.6 -61.9 26.95 -61.0 24.8 -61.15 24.3 -61.4 23.25 -62.25 23.55 -63.3 23.8 -64.05 M-3.5 -53.25 L-3.25 -53.15 Q-2.6 -52.75 -2.6 -52.4 -2.6 -51.35 -3.25 -50.75 -3.9 -49.7 -5.15 -49.7 -6.15 -49.7 -6.4 -50.2 L-6.65 -50.75 -6.55 -51.1 -5.9 -51.0 -5.55 -51.0 Q-4.65 -51.0 -4.15 -51.6 -3.5 -52.1 -3.5 -53.0 L-3.5 -53.25 M-9.35 -47.3 L-7.95 -47.15 -7.8 -47.15 Q-7.55 -46.8 -7.55 -45.9 -7.55 -44.65 -8.05 -43.75 -8.55 -42.6 -9.85 -42.6 L-9.95 -42.6 Q-10.75 -42.75 -11.25 -43.35 L-11.85 -44.15 Q-11.35 -43.75 -10.75 -43.75 -9.95 -43.75 -9.35 -44.4 L-8.95 -44.75 -8.7 -45.4 -8.7 -45.9 Q-8.7 -46.65 -9.35 -47.3 M-10.85 -38.55 L-10.75 -38.55 -10.2 -38.3 Q-9.85 -37.9 -9.85 -36.9 -9.85 -35.25 -10.75 -34.75 L-11.6 -34.6 Q-12.5 -34.6 -13.15 -35.25 L-13.25 -35.4 -12.5 -35.25 Q-11.6 -35.25 -11.0 -35.75 L-10.85 -36.0 Q-10.35 -36.5 -10.35 -37.3 -10.35 -37.9 -10.75 -38.4 L-10.85 -38.55 M-13.25 -26.25 L-12.5 -26.0 Q-11.6 -26.0 -11.0 -26.6 -10.35 -27.25 -10.35 -28.0 L-10.6 -28.8 -10.35 -28.65 -9.95 -28.4 Q-9.35 -27.75 -9.35 -27.25 -9.35 -26.0 -9.85 -25.5 -10.5 -24.85 -11.6 -24.85 -13.15 -24.85 -13.25 -25.5 L-13.25 -26.25 M-7.2 -19.5 L-7.05 -19.4 Q-6.65 -19.0 -6.65 -18.1 -6.65 -16.85 -7.45 -16.6 L-8.2 -16.5 -9.1 -16.6 -9.2 -16.85 Q-8.45 -16.85 -7.8 -17.6 -7.2 -18.25 -7.2 -19.0 L-7.2 -19.5" fill="#ae7e0d" fill-rule="evenodd" stroke="none"/>
      <path d="M7.15 -63.9 Q9.3 -62.15 11.85 -61.9 14.4 -61.75 15.55 -61.9 16.7 -62.0 17.55 -62.5 18.45 -62.9 18.95 -63.55 L19.45 -64.15 23.55 -63.3 23.25 -62.25 24.3 -61.4 24.8 -61.15 26.95 -61.0 27.6 -61.9 30.15 -60.35 32.8 -58.6 Q34.55 -57.2 36.35 -55.4 L38.75 -52.75 38.9 -52.65 Q42.05 -48.7 43.7 -44.15 43.7 -43.9 43.85 -43.75 L44.6 -41.1 45.25 -37.3 45.5 -33.35 Q45.5 -20.3 36.35 -11.25 31.25 -6.35 25.3 -4.05 20.1 -2.0 14.15 -2.0 L10.1 -2.4 Q7.4 -2.65 4.9 -3.4 1.2 -4.4 -1.95 -6.45 -5.15 -8.35 -8.05 -11.25 L-8.2 -11.4 -9.35 -12.65 -10.6 -13.95 -12.5 -17.0 -13.25 -18.25 Q-15.3 -21.55 -16.2 -25.35 -16.8 -27.65 -16.95 -30.2 L-17.2 -33.35 Q-17.2 -39.3 -15.15 -44.5 -14.55 -46.55 -13.4 -48.3 L-10.6 -52.65 -8.05 -55.4 Q-1.45 -62.0 7.15 -63.9 M0.95 -56.45 Q1.2 -55.8 2.1 -55.8 3.1 -55.8 4.1 -57.2 L4.9 -58.7 4.9 -58.95 4.35 -59.6 Q3.85 -60.1 3.25 -60.1 L2.7 -60.0 Q2.2 -60.5 1.45 -60.5 0.55 -60.5 -0.05 -59.85 -0.6 -59.25 -0.6 -58.45 L-0.45 -57.85 Q-0.45 -57.3 -0.05 -57.05 0.45 -56.55 0.95 -56.45 M36.6 -50.2 L35.45 -51.35 Q32.9 -53.9 30.25 -55.55 24.4 -58.95 17.2 -58.95 6.55 -58.95 -1.1 -51.35 -8.7 -43.75 -8.7 -33.1 -8.7 -24.7 -3.9 -18.25 L-3.75 -18.0 -1.85 -15.6 -1.1 -14.95 1.2 -12.9 Q1.95 -12.3 2.7 -11.8 6.0 -9.5 9.7 -8.35 12.5 -7.6 15.55 -7.45 L17.2 -7.35 Q27.95 -7.35 35.45 -14.95 42.95 -22.45 42.95 -33.1 L42.95 -35.0 Q42.8 -36.0 42.8 -37.05 L41.65 -41.6 Q40.0 -46.3 36.6 -50.2 M-3.5 -53.25 L-3.75 -54.0 -4.15 -54.55 Q-4.65 -55.15 -5.55 -55.15 -6.4 -55.15 -7.05 -54.55 -7.7 -53.75 -7.7 -53.0 -7.7 -52.1 -7.05 -51.6 L-6.55 -51.1 -6.65 -50.75 -6.4 -50.2 Q-6.15 -49.7 -5.15 -49.7 -3.9 -49.7 -3.25 -50.75 -2.6 -51.35 -2.6 -52.4 -2.6 -52.75 -3.25 -53.15 L-3.5 -53.25 M-11.85 -44.15 L-11.25 -43.35 Q-10.75 -42.75 -9.95 -42.6 L-9.85 -42.6 Q-8.55 -42.6 -8.05 -43.75 -7.55 -44.65 -7.55 -45.9 -7.55 -46.8 -7.8 -47.15 L-7.95 -47.15 -9.35 -47.3 -9.6 -47.7 -10.75 -47.95 Q-11.5 -47.95 -12.1 -47.3 -12.75 -46.65 -12.75 -45.9 L-12.5 -45.0 Q-12.5 -44.65 -12.1 -44.4 L-11.85 -44.15 M-10.85 -38.55 L-11.0 -38.7 Q-11.6 -39.3 -12.5 -39.3 -13.25 -39.3 -13.9 -38.7 -14.55 -38.05 -14.55 -37.3 -14.55 -36.4 -13.9 -35.75 -13.65 -35.5 -13.25 -35.4 L-13.15 -35.25 Q-12.5 -34.6 -11.6 -34.6 L-10.75 -34.75 Q-9.85 -35.25 -9.85 -36.9 -9.85 -37.9 -10.2 -38.3 L-10.75 -38.55 -10.85 -38.55 M-13.25 -26.25 L-13.25 -25.5 Q-13.15 -24.85 -11.6 -24.85 -10.5 -24.85 -9.85 -25.5 -9.35 -26.0 -9.35 -27.25 -9.35 -27.75 -9.95 -28.4 L-10.35 -28.65 -10.6 -28.8 -11.0 -29.55 Q-11.6 -30.2 -12.5 -30.2 -13.25 -30.2 -13.9 -29.55 -14.55 -28.9 -14.55 -28.0 -14.55 -27.25 -13.9 -26.6 -13.65 -26.35 -13.25 -26.25 M-9.2 -16.85 L-9.1 -16.6 -8.2 -16.5 -7.45 -16.6 Q-6.65 -16.85 -6.65 -18.1 -6.65 -19.0 -7.05 -19.4 L-7.2 -19.5 -7.8 -20.55 Q-8.3 -20.9 -8.85 -21.05 L-9.2 -21.05 Q-10.1 -21.05 -10.75 -20.55 -11.35 -19.75 -11.35 -19.0 -11.35 -18.25 -10.75 -17.6 -10.1 -16.85 -9.2 -16.85 M-3.35 -13.55 Q-4.25 -13.55 -4.9 -12.9 -5.55 -12.3 -5.55 -11.65 L-5.55 -11.55 Q-5.55 -10.75 -4.9 -10.15 -4.25 -9.5 -3.35 -9.5 -2.6 -9.5 -1.95 -10.15 L-1.7 -10.4 Q-1.35 -10.9 -1.35 -11.55 -1.35 -12.3 -1.95 -12.9 L-2.75 -13.45 -1.95 -12.9 Q-1.35 -12.3 -1.35 -11.55 -1.35 -10.9 -1.7 -10.4 L-1.95 -10.15 Q-2.6 -9.5 -3.35 -9.5 -4.25 -9.5 -4.9 -10.15 -5.55 -10.75 -5.55 -11.55 L-5.55 -11.65 Q-5.55 -12.3 -4.9 -12.9 -4.25 -13.55 -3.35 -13.55" fill="url(#gradient0)" fill-rule="evenodd" stroke="none"/>
      <path d="M4.75 -71.4 Q5.4 -72.4 7.4 -73.2 L19.1 -73.2 Q21.1 -72.4 22.0 -71.55 L22.0 -70.9 13.65 -71.3 9.7 -71.15 4.75 -71.4" fill="url(#gradient1)" fill-rule="evenodd" stroke="none"/>
      <path d="M2.7 -60.0 L2.95 -59.85 3.5 -58.95 3.6 -58.45 Q3.6 -57.6 2.95 -57.05 2.35 -56.3 1.45 -56.3 L0.95 -56.45 Q0.45 -56.55 -0.05 -57.05 -0.45 -57.3 -0.45 -57.85 L-0.6 -58.45 Q-0.6 -59.25 -0.05 -59.85 0.55 -60.5 1.45 -60.5 2.2 -60.5 2.7 -60.0 M27.6 -52.5 Q30.4 -51.0 32.8 -48.7 L34.05 -47.3 Q37.35 -43.25 38.5 -38.3 39.15 -35.75 39.15 -33.1 L39.0 -30.95 39.0 -30.45 Q38.1 -23.05 32.8 -17.6 27.2 -12.05 19.6 -11.25 L17.2 -11.15 12.85 -11.65 Q10.85 -11.9 8.95 -12.65 7.05 -13.45 5.25 -14.55 3.35 -15.85 1.6 -17.6 L-0.95 -20.8 Q-4.65 -26.25 -4.65 -33.1 -4.65 -42.25 1.6 -48.7 8.2 -55.15 17.2 -55.15 22.9 -55.15 27.6 -52.5 M34.7 -26.0 L32.55 -26.9 34.7 -26.0 M36.35 -34.75 L33.3 -34.85 36.35 -34.75 M28.6 -49.2 L26.95 -46.8 28.6 -49.2 M34.2 -43.0 L31.9 -41.85 34.2 -43.0 M-0.05 -40.95 L-0.2 -38.7 Q-0.2 -34.6 2.7 -31.7 4.5 -29.8 6.8 -29.15 8.2 -28.65 9.85 -28.65 13.9 -28.65 16.8 -31.7 19.85 -34.6 19.85 -38.7 19.85 -40.95 19.1 -42.75 18.35 -44.4 16.8 -45.9 13.9 -48.8 9.85 -48.8 L8.2 -48.7 Q5.15 -48.3 2.7 -45.9 0.55 -43.75 -0.05 -40.95 L-1.35 -41.45 -0.05 -40.95 M7.05 -50.2 L8.2 -48.7 7.05 -50.2 M11.35 -17.35 Q12.75 -16.5 14.5 -16.5 16.7 -16.5 18.2 -18.1 19.85 -19.65 19.85 -21.8 19.85 -23.95 18.2 -25.6 17.3 -26.6 16.05 -27.0 L14.5 -27.15 Q12.35 -27.15 10.7 -25.6 9.2 -23.95 9.2 -21.8 9.2 -20.55 9.55 -19.5 9.95 -18.75 10.7 -18.1 L11.35 -17.35 10.2 -15.1 11.35 -17.35 M19.7 -16.85 L19.85 -13.3 19.7 -16.85 M3.6 -25.1 L1.45 -22.7 3.6 -25.1 M28.35 -17.6 L26.55 -19.9 28.35 -17.6 M18.95 -49.45 L18.7 -53.4 18.95 -49.45 M-6.55 -51.1 L-7.05 -51.6 Q-7.7 -52.1 -7.7 -53.0 -7.7 -53.75 -7.05 -54.55 -6.4 -55.15 -5.55 -55.15 -4.65 -55.15 -4.15 -54.55 L-3.75 -54.0 -3.5 -53.25 -3.5 -53.0 Q-3.5 -52.1 -4.15 -51.6 -4.65 -51.0 -5.55 -51.0 L-5.9 -51.0 -6.55 -51.1 M-11.85 -44.15 L-12.1 -44.4 Q-12.5 -44.65 -12.5 -45.0 L-12.75 -45.9 Q-12.75 -46.65 -12.1 -47.3 -11.5 -47.95 -10.75 -47.95 L-9.6 -47.7 -9.35 -47.3 Q-8.7 -46.65 -8.7 -45.9 L-8.7 -45.4 -8.95 -44.75 -9.35 -44.4 Q-9.95 -43.75 -10.75 -43.75 -11.35 -43.75 -11.85 -44.15 M-13.25 -35.4 Q-13.65 -35.5 -13.9 -35.75 -14.55 -36.4 -14.55 -37.3 -14.55 -38.05 -13.9 -38.7 -13.25 -39.3 -12.5 -39.3 -11.6 -39.3 -11.0 -38.7 L-10.85 -38.55 -10.75 -38.4 Q-10.35 -37.9 -10.35 -37.3 -10.35 -36.5 -10.85 -36.0 L-11.0 -35.75 Q-11.6 -35.25 -12.5 -35.25 L-13.25 -35.4 M-10.6 -28.8 L-10.35 -28.0 Q-10.35 -27.25 -11.0 -26.6 -11.6 -26.0 -12.5 -26.0 L-13.25 -26.25 Q-13.65 -26.35 -13.9 -26.6 -14.55 -27.25 -14.55 -28.0 -14.55 -28.9 -13.9 -29.55 -13.25 -30.2 -12.5 -30.2 -11.6 -30.2 -11.0 -29.55 L-10.6 -28.8 M-9.2 -16.85 Q-10.1 -16.85 -10.75 -17.6 -11.35 -18.25 -11.35 -19.0 -11.35 -19.75 -10.75 -20.55 -10.1 -21.05 -9.2 -21.05 L-8.85 -21.05 Q-8.3 -20.9 -7.8 -20.55 L-7.2 -19.5 -7.2 -19.0 Q-7.2 -18.25 -7.8 -17.6 -8.45 -16.85 -9.2 -16.85 M0.05 -31.8 L-3.0 -31.95 0.05 -31.8" fill="#eeeeee" fill-rule="evenodd" stroke="none"/>
      <path d="M27.95 -62.9 L26.95 -62.8 24.55 -63.15 23.8 -64.05 24.4 -65.95 Q27.35 -66.95 28.6 -64.55 L27.95 -62.9" fill="url(#gradient2)" fill-rule="evenodd" stroke="none"/>
      <path d="M27.6 -52.5 L30.25 -55.55 Q32.9 -53.9 35.45 -51.35 L36.6 -50.2 34.05 -47.3 32.8 -48.7 Q30.4 -51.0 27.6 -52.5 M-3.75 -18.0 L-0.95 -20.8 1.6 -17.6 Q3.35 -15.85 5.25 -14.55 L2.7 -11.8 Q1.95 -12.3 1.2 -12.9 L-1.1 -14.95 -1.85 -15.6 -3.75 -18.0 M38.5 -38.3 L41.65 -41.6 42.8 -37.05 Q42.8 -36.0 42.95 -35.0 L39.0 -30.95 39.15 -33.1 Q39.15 -35.75 38.5 -38.3 M19.6 -11.25 L15.55 -7.45 Q12.5 -7.6 9.7 -8.35 L12.85 -11.65 17.2 -11.15 19.6 -11.25" fill="#e0e0e0" fill-rule="evenodd" stroke="none"/>
      <path d="M34.05 -47.3 L36.6 -50.2 Q40.0 -46.3 41.65 -41.6 L38.5 -38.3 Q37.35 -43.25 34.05 -47.3 M19.6 -11.25 Q27.2 -12.05 32.8 -17.6 38.1 -23.05 39.0 -30.45 L39.0 -30.95 42.95 -35.0 42.95 -33.1 Q42.95 -22.45 35.45 -14.95 27.95 -7.35 17.2 -7.35 L15.55 -7.45 19.6 -11.25 M5.25 -14.55 Q7.05 -13.45 8.95 -12.65 10.85 -11.9 12.85 -11.65 L9.7 -8.35 Q6.0 -9.5 2.7 -11.8 L5.25 -14.55" fill="#8c8c8c" fill-rule="evenodd" stroke="none"/>
      <path d="M8.2 -48.7 L9.85 -48.8 Q13.9 -48.8 16.8 -45.9 18.35 -44.4 19.1 -42.75 19.85 -40.95 19.85 -38.7 19.85 -34.6 16.8 -31.7 13.9 -28.65 9.85 -28.65 8.2 -28.65 6.8 -29.15 4.5 -29.8 2.7 -31.7 -0.2 -34.6 -0.2 -38.7 L-0.05 -40.95 Q0.55 -43.75 2.7 -45.9 5.15 -48.3 8.2 -48.7 L9.7 -46.65 8.2 -48.7 M11.35 -17.35 L10.7 -18.1 Q9.95 -18.75 9.55 -19.5 9.2 -20.55 9.2 -21.8 9.2 -23.95 10.7 -25.6 12.35 -27.15 14.5 -27.15 L16.05 -27.0 Q17.3 -26.6 18.2 -25.6 19.85 -23.95 19.85 -21.8 19.85 -19.65 18.2 -18.1 16.7 -16.5 14.5 -16.5 12.75 -16.5 11.35 -17.35 L11.75 -18.1 11.35 -17.35 M1.45 -40.3 L-0.05 -40.95 1.45 -40.3" fill="#bfbfbf" fill-rule="evenodd" stroke="none"/>
      <path d="M16.95 -64.55 L16.95 -63.55 15.4 -63.05 10.1 -63.4 10.1 -64.45 7.15 -63.9 Q-1.45 -62.0 -8.05 -55.4 L-10.6 -52.65 -13.4 -48.3 Q-14.55 -46.55 -15.15 -44.5 -17.2 -39.3 -17.2 -33.35 L-16.95 -30.2 Q-16.8 -27.65 -16.2 -25.35 -15.3 -21.55 -13.25 -18.25 L-12.5 -17.0 -10.6 -13.95 -9.35 -12.65 -8.2 -11.4 -8.05 -11.25 Q-5.15 -8.35 -1.95 -6.45 1.2 -4.4 4.9 -3.4 7.4 -2.65 10.1 -2.4 L14.15 -2.0 Q20.1 -2.0 25.3 -4.05 31.25 -6.35 36.35 -11.25 45.5 -20.3 45.5 -33.35 L45.25 -37.3 44.6 -41.1 43.85 -43.75 Q43.7 -43.9 43.7 -44.15 42.05 -48.7 38.9 -52.65 L38.75 -52.75 36.35 -55.4 Q34.55 -57.2 32.8 -58.6 L30.15 -60.35 27.6 -61.9 27.95 -62.9 28.6 -64.55 Q27.35 -66.95 24.4 -65.95 L23.8 -64.05 23.55 -63.3 23.25 -62.25 24.3 -61.4 24.8 -61.15 26.95 -61.0 27.6 -61.9 M19.45 -64.15 L16.95 -64.55 16.8 -69.5 10.1 -69.5 10.1 -64.45 M4.75 -71.4 Q5.4 -72.4 7.4 -73.2 L19.1 -73.2 Q21.1 -72.4 22.0 -71.55 23.0 -70.5 22.25 -69.5 L16.8 -69.5 M10.1 -69.5 L4.35 -69.5 Q4.1 -70.5 4.75 -71.4 M2.7 -60.0 L2.95 -59.85 3.5 -58.95 3.6 -58.45 Q3.6 -57.6 2.95 -57.05 2.35 -56.3 1.45 -56.3 L0.95 -56.45 Q0.45 -56.55 -0.05 -57.05 -0.45 -57.3 -0.45 -57.85 L-0.6 -58.45 Q-0.6 -59.25 -0.05 -59.85 0.55 -60.5 1.45 -60.5 2.2 -60.5 2.7 -60.0 M36.6 -50.2 L35.45 -51.35 Q32.9 -53.9 30.25 -55.55 24.4 -58.95 17.2 -58.95 6.55 -58.95 -1.1 -51.35 -8.7 -43.75 -8.7 -33.1 -8.7 -24.7 -3.9 -18.25 L-3.75 -18.0 -1.85 -15.6 -1.1 -14.95 1.2 -12.9 Q1.95 -12.3 2.7 -11.8 6.0 -9.5 9.7 -8.35 12.5 -7.6 15.55 -7.45 L17.2 -7.35 Q27.95 -7.35 35.45 -14.95 42.95 -22.45 42.95 -33.1 L42.95 -35.0 Q42.8 -36.0 42.8 -37.05 L41.65 -41.6 Q40.0 -46.3 36.6 -50.2 M19.45 -64.15 L23.55 -63.3 M31.9 -41.85 L34.2 -43.0 M26.95 -46.8 L28.6 -49.2 M33.3 -34.85 L36.35 -34.75 M32.55 -26.9 L34.7 -26.0 M-0.05 -40.95 L-1.35 -41.45 M8.2 -48.7 L9.7 -46.65 M8.2 -48.7 L7.05 -50.2 M11.35 -17.35 L10.2 -15.1 M11.35 -17.35 L11.75 -18.1 M19.85 -13.3 L19.7 -16.85 M26.55 -19.9 L28.35 -17.6 M1.45 -22.7 L3.6 -25.1 M18.7 -53.4 L18.95 -49.45 M-6.55 -51.1 L-7.05 -51.6 Q-7.7 -52.1 -7.7 -53.0 -7.7 -53.75 -7.05 -54.55 -6.4 -55.15 -5.55 -55.15 -4.65 -55.15 -4.15 -54.55 L-3.75 -54.0 -3.5 -53.25 -3.5 -53.0 Q-3.5 -52.1 -4.15 -51.6 -4.65 -51.0 -5.55 -51.0 L-5.9 -51.0 -6.55 -51.1 M-11.85 -44.15 L-12.1 -44.4 Q-12.5 -44.65 -12.5 -45.0 L-12.75 -45.9 Q-12.75 -46.65 -12.1 -47.3 -11.5 -47.95 -10.75 -47.95 L-9.6 -47.7 M-9.35 -47.3 Q-8.7 -46.65 -8.7 -45.9 L-8.7 -45.4 M-8.95 -44.75 L-9.35 -44.4 Q-9.95 -43.75 -10.75 -43.75 -11.35 -43.75 -11.85 -44.15 M-13.25 -35.4 Q-13.65 -35.5 -13.9 -35.75 -14.55 -36.4 -14.55 -37.3 -14.55 -38.05 -13.9 -38.7 -13.25 -39.3 -12.5 -39.3 -11.6 -39.3 -11.0 -38.7 L-10.85 -38.55 -10.75 -38.4 Q-10.35 -37.9 -10.35 -37.3 -10.35 -36.5 -10.85 -36.0 L-11.0 -35.75 Q-11.6 -35.25 -12.5 -35.25 L-13.25 -35.4 M-10.6 -28.8 L-10.35 -28.0 Q-10.35 -27.25 -11.0 -26.6 -11.6 -26.0 -12.5 -26.0 L-13.25 -26.25 Q-13.65 -26.35 -13.9 -26.6 -14.55 -27.25 -14.55 -28.0 -14.55 -28.9 -13.9 -29.55 -13.25 -30.2 -12.5 -30.2 -11.6 -30.2 -11.0 -29.55 L-10.6 -28.8 M-9.2 -16.85 Q-10.1 -16.85 -10.75 -17.6 -11.35 -18.25 -11.35 -19.0 -11.35 -19.75 -10.75 -20.55 -10.1 -21.05 -9.2 -21.05 L-8.85 -21.05 Q-8.3 -20.9 -7.8 -20.55 L-7.2 -19.5 -7.2 -19.0 Q-7.2 -18.25 -7.8 -17.6 -8.45 -16.85 -9.2 -16.85 M-2.75 -13.45 L-1.95 -12.9 Q-1.35 -12.3 -1.35 -11.55 -1.35 -10.9 -1.7 -10.4 L-1.95 -10.15 Q-2.6 -9.5 -3.35 -9.5 -4.25 -9.5 -4.9 -10.15 -5.55 -10.75 -5.55 -11.55 L-5.55 -11.65 Q-5.55 -12.3 -4.9 -12.9 -4.25 -13.55 -3.35 -13.55 M-3.0 -31.95 L0.05 -31.8 M-0.05 -40.95 L1.45 -40.3" fill="none" stroke="#000000" stroke-linecap="round" stroke-linejoin="round" stroke-opacity="0.4" stroke-width="0.8"/>
      <path d="M26.45 -26.0 L24.65 -27.9 18.35 -31.55 Q17.8 -32.1 17.7 -32.7 17.55 -33.35 18.2 -33.6 18.85 -34.1 19.45 -33.6 L25.95 -29.9 28.35 -29.4 Q30.9 -28.4 31.65 -25.5 29.25 -24.7 26.45 -26.0" fill="#694c07" fill-rule="evenodd" stroke="none"/>
      <path d="M26.45 -26.0 L24.65 -27.9 18.35 -31.55 Q17.8 -32.1 17.7 -32.7 17.55 -33.35 18.2 -33.6 18.85 -34.1 19.45 -33.6 L25.95 -29.9 28.35 -29.4 Q30.9 -28.4 31.65 -25.5 29.25 -24.7 26.45 -26.0 Z" fill="none" stroke="#000000" stroke-linecap="round" stroke-linejoin="round" stroke-opacity="0.4" stroke-width="0.8"/>
      <path d="M19.1 -43.1 L20.35 -32.85 Q20.35 -31.8 19.85 -31.2 19.35 -30.55 18.45 -30.95 17.55 -31.3 17.45 -32.6 L16.3 -43.1 15.05 -46.15 Q14.15 -49.85 16.3 -53.25 18.95 -51.0 19.7 -46.65 L19.1 -43.1 M18.85 -33.35 Q18.6 -33.35 18.45 -33.1 L18.35 -32.6 18.6 -32.2 Q18.7 -31.95 18.95 -31.95 L19.35 -32.35 19.45 -32.7 19.2 -33.1 18.85 -33.35" fill="#664a07" fill-rule="evenodd" stroke="none"/>
      <path d="M19.1 -43.1 L20.35 -32.85 Q20.35 -31.8 19.85 -31.2 19.35 -30.55 18.45 -30.95 17.55 -31.3 17.45 -32.6 L16.3 -43.1 15.05 -46.15 Q14.15 -49.85 16.3 -53.25 18.95 -51.0 19.7 -46.65 L19.1 -43.1 M18.85 -33.35 L19.2 -33.1 19.45 -32.7 19.35 -32.35 18.95 -31.95 Q18.7 -31.95 18.6 -32.2 L18.35 -32.6 18.45 -33.1 Q18.6 -33.35 18.85 -33.35" fill="none" stroke="#000000" stroke-linecap="round" stroke-linejoin="round" stroke-opacity="0.4" stroke-width="0.8"/>
      <path d="M0.45 -18.9 Q-4.65 -24.95 -4.65 -33.1 -4.65 -42.25 1.6 -48.7 8.2 -55.15 17.2 -55.15 24.4 -55.15 29.85 -51.0 18.95 -39.7 7.8 -27.15 L0.45 -18.9 M32.65 -48.7 L32.8 -48.7 35.6 -45.4 Q29.35 -38.7 20.6 -28.8 L7.05 -13.55 Q4.9 -14.85 2.85 -16.5 L32.65 -48.7 M37.5 -41.85 L37.85 -40.95 Q38.9 -37.9 39.0 -34.75 L39.15 -33.1 Q39.15 -24.1 32.8 -17.6 26.3 -11.15 17.2 -11.15 L16.15 -11.15 Q13.25 -11.25 10.7 -12.05 L10.1 -12.3 Q24.05 -26.9 37.5 -41.85" fill="url(#gradient3)" fill-rule="evenodd" stroke="none"/>
      <path d="M29.85 -51.0 Q31.4 -50.1 32.65 -48.7 L2.85 -16.5 1.6 -17.6 0.45 -18.9 7.8 -27.15 Q18.95 -39.7 29.85 -51.0 M35.6 -45.4 L37.5 -41.85 Q24.05 -26.9 10.1 -12.3 8.45 -12.8 7.05 -13.55 L20.6 -28.8 Q29.35 -38.7 35.6 -45.4" fill="#ffffff" fill-opacity="0.5019608" fill-rule="evenodd" stroke="none"/>
      <path d="M0.45 -18.9 Q-4.65 -24.95 -4.65 -33.1 -4.65 -42.25 1.6 -48.7 8.2 -55.15 17.2 -55.15 24.4 -55.15 29.85 -51.0 31.4 -50.1 32.65 -48.7 L32.8 -48.7 35.6 -45.4 37.5 -41.85 37.85 -40.95 Q38.9 -37.9 39.0 -34.75 L39.15 -33.1 Q39.15 -24.1 32.8 -17.6 26.3 -11.15 17.2 -11.15 L16.15 -11.15 Q13.25 -11.25 10.7 -12.05 L10.1 -12.3 Q8.45 -12.8 7.05 -13.55 4.9 -14.85 2.85 -16.5 L1.6 -17.6 0.45 -18.9 Z" fill="none" stroke="#000000" stroke-linecap="round" stroke-linejoin="round" stroke-opacity="0.4" stroke-width="0.8"/>
    </g>
    <radialGradient cx="0" cy="0" gradientTransform="matrix(0.0707, 0.0, 0.0, 0.0706, 7.55, -58.95)" gradientUnits="userSpaceOnUse" id="gradient0" r="819.2" spreadMethod="pad">
      <stop offset="0.09803921568627451" stop-color="#e5b700"/>
      <stop offset="0.403921568627451" stop-color="#ffe377"/>
      <stop offset="0.9921568627450981" stop-color="#aa7908"/>
    </radialGradient>
    <radialGradient cx="0" cy="0" gradientTransform="matrix(0.019, 0.0, 0.0, 0.019, 9.95, -70.4)" gradientUnits="userSpaceOnUse" id="gradient1" r="819.2" spreadMethod="pad">
      <stop offset="0.09803921568627451" stop-color="#e5b700"/>
      <stop offset="0.403921568627451" stop-color="#ffe377"/>
      <stop offset="0.9921568627450981" stop-color="#aa7908"/>
    </radialGradient>
    <radialGradient cx="0" cy="0" gradientTransform="matrix(0.0164, 0.0, 0.0, 0.01, 25.45, -68.25)" gradientUnits="userSpaceOnUse" id="gradient2" r="819.2" spreadMethod="pad">
      <stop offset="0.09803921568627451" stop-color="#e5b700"/>
      <stop offset="0.403921568627451" stop-color="#ffe377"/>
      <stop offset="0.9921568627450981" stop-color="#aa7908"/>
    </radialGradient>
    <radialGradient cx="0" cy="0" gradientTransform="matrix(0.0284, 0.0, 0.0, 0.0283, 21.65, -37.9)" gradientUnits="userSpaceOnUse" id="gradient3" r="819.2" spreadMethod="pad">
      <stop offset="0.09019607843137255" stop-color="#f7f7f7" stop-opacity="0.6"/>
      <stop offset="0.9921568627450981" stop-color="#f7f7f7" stop-opacity="0.0"/>
    </radialGradient>
  </defs>
</svg>
