<?xml version="1.0" encoding="UTF-8" standalone="no"?>
<svg xmlns:xlink="http://www.w3.org/1999/xlink" height="531.5px" width="460.6px" xmlns="http://www.w3.org/2000/svg">
  <g transform="matrix(1.0, 0.0, 0.0, 1.0, 193.65, 334.05)">
    <use height="19.15" transform="matrix(1.9412, 0.0, 0.0, 1.9412, -78.2206, -180.4206)" width="75.7" xlink:href="#sprite0"/>
  </g>
  <defs>
    <g id="sprite0" transform="matrix(1.0, 0.0, 0.0, 1.0, 0.5, 0.5)">
      <use height="19.15" transform="matrix(1.0, 0.0, 0.0, 1.0, -0.5, -0.5)" width="75.7" xlink:href="#shape0"/>
    </g>
    <g id="shape0" transform="matrix(1.0, 0.0, 0.0, 1.0, 0.5, 0.5)">
      <path d="M66.15 11.65 L66.0 9.05 72.2 3.05 Q75.05 -0.35 74.65 3.15 L74.15 2.95 Q73.5 2.95 70.8 6.0 L69.7 7.2 Q67.1 10.1 66.15 11.65 M16.35 13.0 Q14.65 10.45 10.7 7.6 7.5 5.25 2.15 2.45 1.85 3.15 1.85 3.85 L1.9 4.5 0.3 1.5 Q-0.75 -1.05 1.95 0.75 L3.05 1.35 5.25 2.55 Q16.25 8.7 16.55 11.95 L16.35 13.0" fill="#bdbdbd" fill-rule="evenodd" stroke="none"/>
      <path d="M74.65 3.2 L74.5 4.2 71.3 11.05 Q69.5 15.6 66.4 17.0 L66.15 11.65 Q67.1 10.1 69.7 7.2 L70.8 6.0 Q73.5 2.95 74.15 2.95 L74.65 3.15 74.65 3.2 M68.15 10.9 L67.4 11.7 68.15 10.9 Q69.95 8.6 70.8 6.0 69.95 8.6 68.15 10.9 68.95 11.95 68.25 13.3 68.95 11.95 68.15 10.9 M1.9 4.5 L1.85 3.85 Q1.85 3.15 2.15 2.45 7.5 5.25 10.7 7.6 14.65 10.45 16.35 13.0 15.9 14.6 14.75 16.25 L14.35 17.35 Q11.0 20.3 7.0 12.65 5.75 8.9 2.35 5.25 L1.9 4.5 M11.95 15.05 Q11.1 13.35 12.4 11.85 9.4 9.55 4.25 4.35 9.4 9.55 12.4 11.85 L14.75 13.35 12.4 11.85 Q11.1 13.35 11.95 15.05" fill="#989898" fill-rule="evenodd" stroke="none"/>
      <path d="M74.65 3.2 L74.5 4.2 71.3 11.05 Q69.5 15.6 66.4 17.0 L66.15 11.65 66.0 9.05 72.2 3.05 Q75.05 -0.35 74.65 3.15 M70.8 6.0 Q69.95 8.6 68.15 10.9 68.95 11.95 68.25 13.3 M67.4 11.7 L68.15 10.9 M16.35 13.0 L16.55 11.95 Q16.25 8.7 5.25 2.55 L3.05 1.35 1.95 0.75 Q-0.75 -1.05 0.3 1.5 L1.9 4.5 2.35 5.25 Q5.75 8.9 7.0 12.65 11.0 20.3 14.35 17.35 L14.75 16.25 Q15.9 14.6 16.35 13.0 M4.25 4.35 Q9.4 9.55 12.4 11.85 L14.75 13.35 M12.4 11.85 Q11.1 13.35 11.95 15.05" fill="none" stroke="#000000" stroke-linecap="round" stroke-linejoin="round" stroke-opacity="0.6627451" stroke-width="1.0"/>
    </g>
  </defs>
</svg>
