<?xml version="1.0" encoding="UTF-8" standalone="no"?>
<svg xmlns:xlink="http://www.w3.org/1999/xlink" height="531.5px" width="460.6px" xmlns="http://www.w3.org/2000/svg">
  <g transform="matrix(1.0, 0.0, 0.0, 1.0, 193.65, 334.05)">
    <use height="145.3" transform="matrix(0.6901, 0.0, 0.0, 0.6901, -102.821, -232.1387)" width="214.8" xlink:href="#shape0"/>
  </g>
  <defs>
    <g id="shape0" transform="matrix(1.0, 0.0, 0.0, 1.0, 107.4, 72.65)">
      <path d="M62.4 -51.45 Q60.75 -51.45 59.2 -59.1 58.65 -62.0 58.6 -64.15 58.45 -68.1 60.05 -69.75 L60.5 -69.8 Q62.65 -67.5 63.55 -61.85 L64.05 -56.05 Q64.1 -52.7 62.4 -51.45" fill="#c4c4c4" fill-rule="evenodd" stroke="none"/>
      <path d="M62.4 -51.45 Q64.1 -52.7 64.05 -56.05 L63.55 -61.85 Q62.65 -67.5 60.5 -69.8 L65.75 -70.25 74.7 -69.3 Q83.75 -67.45 90.6 -62.35 91.5 -56.9 90.65 -51.95 89.6 -45.75 85.85 -40.3 L84.85 -41.95 Q80.05 -49.25 71.6 -51.25 L71.0 -51.3 Q66.55 -52.25 62.4 -51.45" fill="url(#gradient0)" fill-rule="evenodd" stroke="none"/>
      <path d="M82.45 6.55 L76.65 8.5 61.05 13.55 Q39.45 7.5 21.9 6.1 L59.4 -5.2 59.4 -5.1 60.1 -5.35 Q72.45 2.75 82.45 6.55 M-72.9 34.2 L-68.2 34.65 Q-45.45 37.15 -39.5 46.3 L-95.7 64.5 Q-92.45 63.0 -96.45 52.4 L-96.9 51.25 Q-99.7 45.05 -103.25 44.65 -101.5 42.75 -98.05 41.65 L-72.9 34.2" fill="url(#gradient1)" fill-rule="evenodd" stroke="none"/>
      <path d="M106.8 -27.9 Q106.65 -24.9 106.0 -21.85 102.65 -5.5 88.7 3.6 86.6 5.1 82.45 6.55 72.45 2.75 60.1 -5.35 L74.25 -9.45 Q76.5 -10.3 78.6 -11.7 82.1 -14.0 84.35 -17.1 100.95 -19.75 106.8 -27.9 M-24.3 20.7 Q-32.7 29.8 -35.55 45.05 L-39.5 46.3 Q-45.45 37.15 -68.2 34.65 L-72.9 34.2 -26.7 20.45 -24.3 20.7" fill="url(#gradient2)" fill-rule="evenodd" stroke="none"/>
      <path d="M90.6 -62.35 Q96.15 -58.2 100.2 -52.15 L100.2 -52.1 Q107.65 -40.8 106.8 -27.9 100.95 -19.75 84.35 -17.1 86.95 -20.8 88.0 -25.55 89.65 -33.45 85.85 -40.3 89.6 -45.75 90.65 -51.95 91.5 -56.9 90.6 -62.35" fill="url(#gradient3)" fill-rule="evenodd" stroke="none"/>
      <path d="M-26.7 20.45 L-23.05 19.4 -24.3 20.7 -26.7 20.45" fill="#ffffff" fill-rule="evenodd" stroke="none"/>
      <path d="M-95.7 64.5 Q-97.05 64.65 -98.45 63.55 -100.7 61.7 -103.2 56.5 -107.0 48.75 -103.25 44.65 -99.7 45.05 -96.9 51.25 L-96.45 52.4 Q-92.45 63.0 -95.7 64.5" fill="#8c0000" fill-rule="evenodd" stroke="none"/>
      <path d="M60.5 -69.8 L60.05 -69.75 Q58.45 -68.1 58.6 -64.15 58.65 -62.0 59.2 -59.1 60.75 -51.45 62.4 -51.45 66.55 -52.25 71.0 -51.3 L71.6 -51.25 Q80.05 -49.25 84.85 -41.95 L85.85 -40.3 Q89.65 -33.45 88.0 -25.55 86.95 -20.8 84.35 -17.1 82.1 -14.0 78.6 -11.7 76.5 -10.3 74.25 -9.45 L60.1 -5.35 59.4 -5.1 M60.5 -69.8 L65.75 -70.25 74.7 -69.3 Q83.75 -67.45 90.6 -62.35 96.15 -58.2 100.2 -52.15 L100.2 -52.1 Q107.65 -40.8 106.8 -27.9 106.65 -24.9 106.0 -21.85 102.65 -5.5 88.7 3.6 86.6 5.1 82.45 6.55 L76.65 8.5 61.05 13.55 65.7 14.9 M59.4 -5.2 L21.9 6.1 Q39.45 7.5 61.05 13.55 M18.95 5.9 L21.9 6.1 M-26.7 20.45 L-23.05 19.4 -20.3 16.9 M-39.5 46.3 L-35.55 45.05 Q-32.7 29.8 -24.3 20.7 L-26.7 20.45 -72.9 34.2 -98.05 41.65 Q-101.5 42.75 -103.25 44.65 -107.0 48.75 -103.2 56.5 -100.7 61.7 -98.45 63.55 -97.05 64.65 -95.7 64.5 L-39.5 46.3 M-24.3 20.7 L-23.05 19.4 M-36.05 47.9 L-35.55 45.05" fill="none" stroke="#000000" stroke-linecap="round" stroke-linejoin="round" stroke-opacity="0.4" stroke-width="1.0"/>
      <path d="M62.4 -51.45 Q64.1 -52.7 64.05 -56.05 L63.55 -61.85 Q62.65 -67.5 60.5 -69.8 M85.85 -40.3 Q89.6 -45.75 90.65 -51.95 91.5 -56.9 90.6 -62.35 M60.1 -5.35 Q72.45 2.75 82.45 6.55 M106.8 -27.9 Q100.95 -19.75 84.35 -17.1 M-72.9 34.2 L-68.2 34.65 Q-45.45 37.15 -39.5 46.3 M-103.25 44.65 Q-99.7 45.05 -96.9 51.25 L-96.45 52.4 Q-92.45 63.0 -95.7 64.5" fill="none" stroke="#000000" stroke-linecap="round" stroke-linejoin="round" stroke-opacity="0.2" stroke-width="0.7000000000000001"/>
      <path d="M58.0 -67.55 Q58.0 -69.6 60.4 -70.9 62.45 -71.95 65.65 -72.1 L68.75 -71.8 74.35 -71.85 Q80.15 -71.65 83.5 -69.35 L94.65 -61.65 Q100.25 -57.2 100.25 -53.8 L100.15 -51.75 99.25 -51.75 97.75 -52.75 96.05 -53.0 Q95.35 -53.0 94.5 -52.1 93.65 -51.2 92.4 -51.2 91.6 -51.2 90.65 -51.95 89.4 -53.0 87.8 -55.4 84.95 -59.6 82.05 -59.6 79.3 -59.6 78.4 -56.9 77.55 -54.2 76.55 -54.2 74.25 -54.2 72.1 -58.3 70.0 -62.4 66.6 -62.4 L63.8 -61.95 63.55 -61.85 61.65 -61.5 Q59.75 -61.5 58.8 -63.65 L58.6 -64.15 Q58.0 -65.65 58.0 -67.55" fill="#e8fffe" fill-opacity="0.34901962" fill-rule="evenodd" stroke="none"/>
      <path d="M58.0 -67.55 Q58.0 -65.65 58.6 -64.15 L58.8 -63.65 Q59.75 -61.5 61.65 -61.5 L63.55 -61.85 63.8 -61.95 66.6 -62.4 Q70.0 -62.4 72.1 -58.3 74.25 -54.2 76.55 -54.2 77.55 -54.2 78.4 -56.9 79.3 -59.6 82.05 -59.6 84.95 -59.6 87.8 -55.4 89.4 -53.0 90.65 -51.95 91.6 -51.2 92.4 -51.2 93.65 -51.2 94.5 -52.1 95.35 -53.0 96.05 -53.0 L97.75 -52.75 99.25 -51.75 100.15 -51.75 100.25 -53.8 Q100.25 -57.2 94.65 -61.65 L83.5 -69.35 Q80.15 -71.65 74.35 -71.85 L68.75 -71.8 65.65 -72.1 Q62.45 -71.95 60.4 -70.9 58.0 -69.6 58.0 -67.55 M68.75 -71.8 L66.9 -72.15 65.65 -72.1" fill="none" stroke="#ffffff" stroke-linecap="round" stroke-linejoin="round" stroke-opacity="0.2" stroke-width="1.0"/>
      <path d="M-76.9 32.85 L-75.1 32.05 Q-73.0 31.3 -70.3 31.3 L-68.25 31.7 Q-67.35 32.0 -67.1 32.5 L-67.0 32.9 Q-67.0 33.9 -68.2 34.65 L-69.25 35.15 -72.55 36.15 Q-76.2 37.55 -79.4 40.65 L-81.15 43.15 Q-82.4 45.0 -83.35 45.9 L-85.35 48.85 Q-86.85 51.0 -88.4 51.0 -89.4 51.0 -90.9 50.4 -92.4 49.75 -92.9 49.75 -94.8 49.75 -96.45 52.4 L-97.35 54.0 Q-99.1 57.65 -99.1 60.2 -99.1 61.45 -98.45 63.55 L-98.05 64.75 Q-97.0 67.65 -97.0 68.85 -97.0 70.3 -97.35 71.05 -97.9 72.15 -99.4 72.15 -102.0 72.15 -103.15 67.6 L-104.05 61.9 -106.1 56.3 Q-106.9 54.0 -106.9 50.45 -106.9 43.4 -99.2 39.95 -96.1 38.55 -89.3 36.5 L-76.9 32.85 Q-77.65 33.2 -78.25 33.7 -77.65 33.2 -76.9 32.85" fill="#e8fffe" fill-opacity="0.34901962" fill-rule="evenodd" stroke="none"/>
      <path d="M-76.9 32.85 L-89.3 36.5 Q-96.1 38.55 -99.2 39.95 -106.9 43.4 -106.9 50.45 -106.9 54.0 -106.1 56.3 L-104.05 61.9 -103.15 67.6 Q-102.0 72.15 -99.4 72.15 -97.9 72.15 -97.35 71.05 -97.0 70.3 -97.0 68.85 -97.0 67.65 -98.05 64.75 L-98.45 63.55 Q-99.1 61.45 -99.1 60.2 -99.1 57.65 -97.35 54.0 L-96.45 52.4 Q-94.8 49.75 -92.9 49.75 -92.4 49.75 -90.9 50.4 -89.4 51.0 -88.4 51.0 -86.85 51.0 -85.35 48.85 L-83.35 45.9 Q-82.4 45.0 -81.15 43.15 L-79.4 40.65 Q-76.2 37.55 -72.55 36.15 L-69.25 35.15 -68.2 34.65 Q-67.0 33.9 -67.0 32.9 L-67.1 32.5 Q-67.35 32.0 -68.25 31.7 L-70.3 31.3 Q-73.0 31.3 -75.1 32.05 L-76.9 32.85 Q-77.65 33.2 -78.25 33.7" fill="none" stroke="#ffffff" stroke-linecap="round" stroke-linejoin="round" stroke-opacity="0.2" stroke-width="1.0"/>
    </g>
    <linearGradient gradientTransform="matrix(0.0063, 0.0, 0.0, 0.0183, 83.45, -57.1)" gradientUnits="userSpaceOnUse" id="gradient0" spreadMethod="pad" x1="-819.2" x2="819.2">
      <stop offset="0.0" stop-color="#ffffff"/>
      <stop offset="1.0" stop-color="#cccccc"/>
    </linearGradient>
    <linearGradient gradientTransform="matrix(0.0028, 0.0104, -0.0179, 0.0048, -71.4, 49.35)" gradientUnits="userSpaceOnUse" id="gradient1" spreadMethod="pad" x1="-819.2" x2="819.2">
      <stop offset="0.0" stop-color="#cc0000"/>
      <stop offset="1.0" stop-color="#930000"/>
    </linearGradient>
    <linearGradient gradientTransform="matrix(0.0024, 0.0078, -0.0151, 0.0046, -45.4, 40.7)" gradientUnits="userSpaceOnUse" id="gradient2" spreadMethod="pad" x1="-819.2" x2="819.2">
      <stop offset="0.0" stop-color="#ffffff"/>
      <stop offset="1.0" stop-color="#cccccc"/>
    </linearGradient>
    <linearGradient gradientTransform="matrix(0.0069, 0.0119, -0.0239, 0.0138, 99.85, -32.55)" gradientUnits="userSpaceOnUse" id="gradient3" spreadMethod="pad" x1="-819.2" x2="819.2">
      <stop offset="0.0" stop-color="#cc0000"/>
      <stop offset="1.0" stop-color="#930000"/>
    </linearGradient>
  </defs>
</svg>
