<?xml version="1.0" encoding="UTF-8" standalone="no"?>
<svg xmlns:xlink="http://www.w3.org/1999/xlink" height="531.5px" width="460.6px" xmlns="http://www.w3.org/2000/svg">
  <g transform="matrix(1.0, 0.0, 0.0, 1.0, 193.65, 334.05)">
    <use height="24.75" transform="matrix(1.0, 0.0, 0.0, 1.0, -42.6, -160.55)" width="97.35" xlink:href="#shape0"/>
  </g>
  <defs>
    <g id="shape0" transform="matrix(1.0, 0.0, 0.0, 1.0, 42.6, 160.55)">
      <path d="M41.25 -151.1 L46.35 -151.35 Q47.15 -151.7 47.9 -152.3 50.2 -154.1 53.75 -150.3 L54.2 -148.7 Q54.55 -146.25 52.6 -145.6 50.6 -144.85 49.0 -145.25 52.75 -142.15 49.25 -139.35 45.75 -136.65 43.75 -140.25 41.9 -143.85 40.55 -143.9 L19.1 -150.7 Q18.55 -154.2 20.85 -156.95 L41.25 -151.1" fill="url(#gradient0)" fill-rule="evenodd" stroke="none"/>
      <path d="M9.45 -148.85 L-22.25 -142.75 Q-24.15 -142.85 -27.35 -138.55 -30.6 -134.3 -35.25 -138.05 -39.95 -141.9 -33.5 -146.25 L-39.35 -146.1 Q-42.95 -147.35 -41.8 -151.8 -37.85 -158.65 -33.85 -155.2 -29.9 -151.8 -24.05 -151.35 L7.8 -156.7 Q10.7 -153.1 9.45 -148.85" fill="url(#gradient1)" fill-rule="evenodd" stroke="none"/>
      <path d="M41.25 -151.1 L20.85 -156.95 Q18.55 -154.2 19.1 -150.7 L40.55 -143.9 Q41.9 -143.85 43.75 -140.25 45.75 -136.65 49.25 -139.35 52.75 -142.15 49.0 -145.25 50.6 -144.85 52.6 -145.6 54.55 -146.25 54.2 -148.7 L53.75 -150.3 Q50.2 -154.1 47.9 -152.3 47.15 -151.7 46.35 -151.35 L41.25 -151.1 M9.45 -148.85 L-22.25 -142.75 Q-24.15 -142.85 -27.35 -138.55 -30.6 -134.3 -35.25 -138.05 -39.95 -141.9 -33.5 -146.25 L-39.35 -146.1 Q-42.95 -147.35 -41.8 -151.8 -37.85 -158.65 -33.85 -155.2 -29.9 -151.8 -24.05 -151.35 L7.8 -156.7 Q10.7 -153.1 9.45 -148.85" fill="none" stroke="#000000" stroke-linecap="round" stroke-linejoin="round" stroke-opacity="0.5019608" stroke-width="1.0"/>
      <path d="M51.2 -147.2 Q49.85 -147.2 49.35 -148.0 49.0 -148.5 49.0 -149.0 49.0 -150.6 50.75 -150.35 52.5 -150.1 52.5 -148.5 52.5 -147.2 51.2 -147.2" fill="#ffffff" fill-rule="evenodd" stroke="none"/>
      <path d="M-35.1 -151.35 Q-38.8 -151.35 -38.8 -153.1 -38.8 -153.8 -38.2 -154.35 -37.45 -155.3 -36.1 -155.05 -33.25 -153.85 -33.25 -152.7 -33.25 -151.35 -35.1 -151.35" fill="#ffffff" fill-rule="evenodd" stroke="none"/>
      <path d="M20.8 -146.75 Q19.6 -147.2 18.6 -147.85 19.65 -149.25 18.4 -151.35 19.65 -155.05 18.05 -158.75 19.65 -155.05 18.4 -151.35 14.35 -154.8 8.0 -156.55 L7.7 -154.15 Q3.6 -151.9 -1.2 -151.4 -2.85 -156.9 0.6 -159.6 4.65 -160.45 8.05 -158.3 13.65 -160.9 18.05 -158.75 24.35 -161.35 26.35 -158.65 24.45 -151.6 20.8 -146.75 M8.05 -158.3 L8.0 -156.55 8.05 -158.3" fill="#9ead71" fill-rule="evenodd" stroke="none"/>
      <path d="M18.6 -147.85 Q13.85 -146.35 8.85 -148.1 7.6 -150.9 7.7 -154.15 L8.0 -156.55 Q14.35 -154.8 18.4 -151.35 19.65 -149.25 18.6 -147.85" fill="#818552" fill-rule="evenodd" stroke="none"/>
      <path d="M26.35 -158.65 L26.55 -158.25 27.0 -156.9 Q27.8 -152.6 26.2 -148.2 L25.55 -146.75 Q22.9 -146.3 20.8 -146.75 24.45 -151.6 26.35 -158.65 M8.85 -148.1 Q4.25 -144.55 0.4 -145.2 -1.75 -148.6 -1.2 -151.4 3.6 -151.9 7.7 -154.15 7.6 -150.9 8.85 -148.1" fill="#6f7548" fill-rule="evenodd" stroke="none"/>
      <path d="M26.35 -158.65 L26.55 -158.25 27.0 -156.9 Q27.8 -152.6 26.2 -148.2 L25.55 -146.75 Q22.9 -146.3 20.8 -146.75 19.6 -147.2 18.6 -147.85 13.85 -146.35 8.85 -148.1 4.25 -144.55 0.4 -145.2 -1.75 -148.6 -1.2 -151.4 -2.85 -156.9 0.6 -159.6 4.65 -160.45 8.05 -158.3 13.65 -160.9 18.05 -158.75 24.35 -161.35 26.35 -158.65 24.45 -151.6 20.8 -146.75 M18.4 -151.35 Q19.65 -149.25 18.6 -147.85 M18.05 -158.75 Q19.65 -155.05 18.4 -151.35 14.35 -154.8 8.0 -156.55 L7.7 -154.15 Q7.6 -150.9 8.85 -148.1 M8.0 -156.55 L8.05 -158.3 M-1.2 -151.4 Q3.6 -151.9 7.7 -154.15" fill="none" stroke="#000000" stroke-linecap="round" stroke-linejoin="round" stroke-opacity="0.5019608" stroke-width="1.0"/>
    </g>
    <linearGradient gradientTransform="matrix(-0.0208, 0.0056, -0.003, -0.0111, 36.65, -147.6)" gradientUnits="userSpaceOnUse" id="gradient0" spreadMethod="pad" x1="-819.2" x2="819.2">
      <stop offset="0.0" stop-color="#fff3d9"/>
      <stop offset="1.0" stop-color="#cfc1b0"/>
    </linearGradient>
    <linearGradient gradientTransform="matrix(0.0168, 0.0, 0.0, 0.0125, -21.9, -145.85)" gradientUnits="userSpaceOnUse" id="gradient1" spreadMethod="pad" x1="-819.2" x2="819.2">
      <stop offset="0.0" stop-color="#fff3d9"/>
      <stop offset="1.0" stop-color="#cfc1b0"/>
    </linearGradient>
  </defs>
</svg>
