<?xml version="1.0" encoding="UTF-8" standalone="no"?>
<svg xmlns:xlink="http://www.w3.org/1999/xlink" height="531.5px" width="460.6px" xmlns="http://www.w3.org/2000/svg">
  <g transform="matrix(1.0, 0.0, 0.0, 1.0, 193.65, 334.05)">
    <use height="30.05" transform="matrix(1.5091, 0.0, 0.0, 1.5091, -62.3046, -184.4027)" width="83.45" xlink:href="#shape0"/>
  </g>
  <defs>
    <g id="shape0" transform="matrix(1.0, 0.0, 0.0, 1.0, 0.5, 0.3)">
      <path d="M21.35 13.75 L21.15 17.45 19.9 17.85 1.0 17.0 0.0 9.85 20.1 13.5 21.35 13.75 M19.9 17.85 L20.1 13.5 19.9 17.85" fill="#703e0d" fill-rule="evenodd" stroke="none"/>
      <path d="M21.35 13.75 L21.15 17.45 19.9 17.85 1.0 17.0 0.0 9.85 20.1 13.5 21.35 13.75 M20.1 13.5 L19.9 17.85" fill="none" stroke="#000000" stroke-linecap="round" stroke-linejoin="round" stroke-opacity="0.4" stroke-width="1.0"/>
      <path d="M42.75 19.15 L42.75 16.6 42.8 16.6 Q48.35 14.9 53.85 16.95 L53.85 19.15 Q48.4 17.5 42.8 19.15 L42.75 19.15" fill="#703e0d" fill-rule="evenodd" stroke="none"/>
      <path d="M42.75 19.15 L41.6 19.15 41.6 16.95 42.75 16.6 42.75 19.15" fill="#3d2107" fill-rule="evenodd" stroke="none"/>
      <path d="M42.75 16.6 L41.6 16.95 41.6 19.15 42.75 19.15 42.75 16.6 M42.8 16.6 Q48.35 14.9 53.85 16.95 L53.85 19.15 Q48.4 17.5 42.8 19.15 L42.75 19.15" fill="none" stroke="#000000" stroke-linecap="round" stroke-linejoin="round" stroke-opacity="0.4" stroke-width="1.0"/>
      <path d="M52.0 10.5 Q59.75 6.1 64.15 0.0 L66.15 0.0 Q61.7 6.1 54.0 10.5 L52.0 10.5 M47.65 25.45 L55.0 20.55 54.9 20.55 55.35 20.35 57.0 20.55 49.65 25.45 47.65 25.45 M48.9 18.5 Q53.05 16.5 57.3 11.7 L59.2 11.75 Q55.15 16.45 50.9 18.5 L48.9 18.5" fill="#336600" fill-opacity="0.76862746" fill-rule="evenodd" stroke="none"/>
      <path d="M66.15 0.0 Q68.9 3.75 72.9 6.9 L78.35 10.5 Q76.4 11.95 73.1 11.75 L76.8 15.45 Q79.1 17.4 81.45 18.5 78.65 20.45 75.35 20.55 L82.65 25.45 Q75.8 29.05 66.55 29.45 L66.45 29.45 66.15 29.45 65.8 29.4 64.2 29.3 59.55 28.75 Q54.9 27.95 51.0 26.15 L49.65 25.45 57.0 20.55 55.35 20.35 Q52.95 19.95 50.9 18.5 55.15 16.45 59.2 11.75 L57.3 11.7 57.45 11.5 56.55 11.6 Q55.05 11.3 54.0 10.5 61.7 6.1 66.15 0.0" fill="#4d9b00" fill-opacity="0.49803922" fill-rule="evenodd" stroke="none"/>
      <path d="M64.2 29.3 L63.8 29.4 Q55.4 29.1 49.0 26.15 L47.65 25.45 49.65 25.45 51.0 26.15 Q54.9 27.95 59.55 28.75 L64.2 29.3 M54.9 20.55 Q51.6 20.4 48.9 18.5 L50.9 18.5 Q52.95 19.95 55.35 20.35 L54.9 20.55 M56.55 11.6 Q53.65 11.75 52.0 10.5 L54.0 10.5 Q55.05 11.3 56.55 11.6" fill="#214200" fill-opacity="0.76862746" fill-rule="evenodd" stroke="none"/>
      <path d="M52.0 10.5 Q59.75 6.1 64.15 0.0 L66.15 0.0 Q68.9 3.75 72.9 6.9 L78.35 10.5 Q76.4 11.95 73.1 11.75 L76.8 15.45 Q79.1 17.4 81.45 18.5 78.65 20.45 75.35 20.55 L82.65 25.45 Q75.8 29.05 66.55 29.45 L66.45 29.45 66.15 29.45 65.8 29.4 64.2 29.3 63.8 29.4 Q55.4 29.1 49.0 26.15 L47.65 25.45 55.0 20.55 54.9 20.55 Q51.6 20.4 48.9 18.5 53.05 16.5 57.3 11.7 L56.55 11.6 Q53.65 11.75 52.0 10.5 L54.0 10.5 Q61.7 6.1 66.15 0.0 M56.55 11.6 Q55.05 11.3 54.0 10.5 M50.9 18.5 Q55.15 16.45 59.2 11.75 L57.3 11.7 M49.65 25.45 L57.0 20.55 55.35 20.35 54.9 20.55 M55.35 20.35 Q52.95 19.95 50.9 18.5 L48.9 18.5 M64.2 29.3 L59.55 28.75 Q54.9 27.95 51.0 26.15 L49.65 25.45 47.65 25.45" fill="none" stroke="#000000" stroke-linecap="round" stroke-linejoin="round" stroke-opacity="0.2" stroke-width="0.6000000000000001"/>
      <path d="M73.0 11.7 Q74.8 13.8 76.65 15.35 L59.7 28.4 Q55.1 27.6 51.3 25.85 L50.0 25.2 57.2 20.35 55.6 20.15 72.8 6.95 Q75.25 8.85 78.15 10.5 76.25 11.9 73.0 11.7" fill="url(#gradient0)" fill-rule="evenodd" stroke="none"/>
      <path d="M31.15 0.0 Q33.85 3.75 37.9 6.9 L43.3 10.5 Q41.4 11.95 38.1 11.75 L41.8 15.45 Q44.1 17.4 46.45 18.5 43.65 20.45 40.35 20.55 L47.65 25.45 Q40.75 29.05 31.5 29.45 L31.4 29.45 31.15 29.45 30.8 29.4 29.2 29.3 24.55 28.75 Q19.9 27.95 15.95 26.15 L14.65 25.45 21.95 20.55 20.35 20.35 Q17.95 19.95 15.85 18.5 20.15 16.45 24.2 11.75 L22.25 11.7 22.45 11.5 21.55 11.6 Q20.05 11.3 19.0 10.5 26.7 6.1 31.15 0.0" fill="#4d9b00" fill-opacity="0.49803922" fill-rule="evenodd" stroke="none"/>
      <path d="M12.65 25.45 L20.0 20.55 19.9 20.55 20.35 20.35 21.95 20.55 14.65 25.45 12.65 25.45 M13.9 18.5 Q18.05 16.5 22.25 11.7 L24.2 11.75 Q20.15 16.45 15.85 18.5 L13.9 18.5 M17.0 10.5 Q24.7 6.1 29.15 0.0 L31.15 0.0 Q26.7 6.1 19.0 10.5 L17.0 10.5" fill="#336600" fill-opacity="0.76862746" fill-rule="evenodd" stroke="none"/>
      <path d="M29.2 29.3 L28.8 29.4 Q20.4 29.1 14.0 26.15 L12.65 25.45 14.65 25.45 15.95 26.15 Q19.9 27.95 24.55 28.75 L29.2 29.3 M19.9 20.55 Q16.6 20.4 13.9 18.5 L15.85 18.5 Q17.95 19.95 20.35 20.35 L19.9 20.55 M21.55 11.6 Q18.65 11.75 17.0 10.5 L19.0 10.5 Q20.05 11.3 21.55 11.6" fill="#214200" fill-opacity="0.76862746" fill-rule="evenodd" stroke="none"/>
      <path d="M31.15 0.0 Q33.85 3.75 37.9 6.9 L43.3 10.5 Q41.4 11.95 38.1 11.75 L41.8 15.45 Q44.1 17.4 46.45 18.5 43.65 20.45 40.35 20.55 L47.65 25.45 Q40.75 29.05 31.5 29.45 L31.4 29.45 31.15 29.45 30.8 29.4 29.2 29.3 28.8 29.4 Q20.4 29.1 14.0 26.15 L12.65 25.45 20.0 20.55 19.9 20.55 Q16.6 20.4 13.9 18.5 18.05 16.5 22.25 11.7 L21.55 11.6 Q18.65 11.75 17.0 10.5 24.7 6.1 29.15 0.0 L31.15 0.0 Q26.7 6.1 19.0 10.5 20.05 11.3 21.55 11.6 M22.25 11.7 L24.2 11.75 Q20.15 16.45 15.85 18.5 17.95 19.95 20.35 20.35 L21.95 20.55 14.65 25.45 15.95 26.15 Q19.9 27.95 24.55 28.75 L29.2 29.3 M19.0 10.5 L17.0 10.5 M15.85 18.5 L13.9 18.5 M12.65 25.45 L14.65 25.45 M20.35 20.35 L19.9 20.55" fill="none" stroke="#000000" stroke-linecap="round" stroke-linejoin="round" stroke-opacity="0.2" stroke-width="0.6000000000000001"/>
      <path d="M20.6 20.15 L37.8 6.95 43.1 10.5 Q41.25 11.9 38.0 11.7 39.8 13.8 41.65 15.35 L24.7 28.4 Q20.1 27.6 16.25 25.85 L15.0 25.2 22.15 20.35 20.6 20.15" fill="url(#gradient1)" fill-rule="evenodd" stroke="none"/>
      <path d="M42.95 19.15 Q42.5 19.65 41.8 19.65 41.15 19.65 40.65 19.15 40.15 18.7 40.15 18.0 40.15 17.35 40.65 16.85 41.15 16.35 41.8 16.35 42.5 16.35 42.95 16.85 43.45 17.35 43.45 18.0 43.45 18.7 42.95 19.15" fill="#4b7124" fill-rule="evenodd" stroke="none"/>
      <path d="M42.95 19.15 Q42.5 19.65 41.8 19.65 41.15 19.65 40.65 19.15 40.15 18.7 40.15 18.0 40.15 17.35 40.65 16.85 41.15 16.35 41.8 16.35 42.5 16.35 42.95 16.85 43.45 17.35 43.45 18.0 43.45 18.7 42.95 19.15 Z" fill="none" stroke="#000000" stroke-linecap="round" stroke-linejoin="round" stroke-opacity="0.28627452" stroke-width="0.6000000000000001"/>
      <path d="M55.95 19.15 Q55.5 19.65 54.8 19.65 54.15 19.65 53.65 19.15 53.15 18.7 53.15 18.0 53.15 17.35 53.65 16.85 54.15 16.35 54.8 16.35 55.5 16.35 55.95 16.85 56.45 17.35 56.45 18.0 56.45 18.7 55.95 19.15" fill="#4b7124" fill-rule="evenodd" stroke="none"/>
      <path d="M55.95 19.15 Q55.5 19.65 54.8 19.65 54.15 19.65 53.65 19.15 53.15 18.7 53.15 18.0 53.15 17.35 53.65 16.85 54.15 16.35 54.8 16.35 55.5 16.35 55.95 16.85 56.45 17.35 56.45 18.0 56.45 18.7 55.95 19.15 Z" fill="none" stroke="#000000" stroke-linecap="round" stroke-linejoin="round" stroke-opacity="0.28627452" stroke-width="0.6000000000000001"/>
      <path d="M42.85 18.15 L42.4 18.35 Q42.15 18.35 41.95 18.15 L41.75 17.7 41.95 17.25 Q42.15 17.05 42.4 17.05 L42.85 17.25 43.05 17.7 42.85 18.15" fill="#759356" fill-rule="evenodd" stroke="none"/>
      <path d="M55.75 17.95 L55.3 18.15 Q55.05 18.15 54.85 17.95 L54.65 17.5 54.85 17.05 Q55.05 16.85 55.3 16.85 L55.75 17.05 55.95 17.5 55.75 17.95" fill="#759356" fill-rule="evenodd" stroke="none"/>
    </g>
    <linearGradient gradientTransform="matrix(-0.0113, 0.0093, -0.0083, -0.0101, 67.1, 16.15)" gradientUnits="userSpaceOnUse" id="gradient0" spreadMethod="pad" x1="-819.2" x2="819.2">
      <stop offset="0.0" stop-color="#ffffff"/>
      <stop offset="1.0" stop-color="#ffffff" stop-opacity="0.0"/>
    </linearGradient>
    <linearGradient gradientTransform="matrix(-0.0113, 0.0093, -0.0083, -0.0101, 32.1, 16.15)" gradientUnits="userSpaceOnUse" id="gradient1" spreadMethod="pad" x1="-819.2" x2="819.2">
      <stop offset="0.0" stop-color="#ffffff"/>
      <stop offset="1.0" stop-color="#ffffff" stop-opacity="0.0"/>
    </linearGradient>
  </defs>
</svg>
