<?xml version="1.0" encoding="UTF-8" standalone="no"?>
<svg xmlns:xlink="http://www.w3.org/1999/xlink" height="531.5px" width="460.6px" xmlns="http://www.w3.org/2000/svg">
  <g transform="matrix(1.0, 0.0, 0.0, 1.0, 193.65, 334.05)">
    <use height="93.1" transform="matrix(0.43, 0.0, 0.0, 0.43, 25.3698, -176.8162)" width="82.7" xlink:href="#sprite0"/>
  </g>
  <defs>
    <g id="sprite0" transform="matrix(1.0, 0.0, 0.0, 1.0, 41.35, 46.55)">
      <use height="93.1" transform="matrix(1.0, 0.0, 0.0, 1.0, -41.35, -46.55)" width="82.7" xlink:href="#shape0"/>
    </g>
    <g id="shape0" transform="matrix(1.0, 0.0, 0.0, 1.0, 41.35, 46.55)">
      <path d="M-19.7 26.1 Q-24.5 23.5 -28.6 19.4 -39.6 8.4 -39.6 -7.2 -39.6 -22.8 -28.6 -33.8 -17.6 -44.8 -2.0 -44.8 9.35 -44.8 18.3 -38.95 L-19.7 26.1 M28.9 -28.75 Q30.6 -26.35 31.9 -23.7 28.4 -2.15 21.55 9.05 13.0 23.0 -4.85 30.05 L-5.35 30.25 -5.45 30.2 28.9 -28.75" fill="#bedff2" fill-opacity="0.44313726" fill-rule="evenodd" stroke="none"/>
      <path d="M31.9 -23.7 Q35.6 -16.25 35.6 -7.2 35.6 8.4 24.6 19.4 22.3 21.7 19.85 23.5 L16.6 25.6 16.05 25.95 15.15 26.4 14.5 24.5 14.35 24.1 14.25 23.95 Q13.15 24.55 12.0 25.1 L12.9 27.25 13.0 27.45 11.55 28.0 8.6 29.0 Q3.6 30.4 -2.0 30.4 L-2.5 30.4 -5.35 30.25 -4.85 30.05 Q13.0 23.0 21.55 9.05 28.4 -2.15 31.9 -23.7" fill="#92abba" fill-opacity="0.44313726" fill-rule="evenodd" stroke="none"/>
      <path d="M-5.45 30.25 L-7.35 30.05 Q-14.0 29.2 -19.7 26.1 L18.3 -38.95 Q21.6 -36.8 24.6 -33.8 L28.9 -28.75 -5.45 30.2 -5.45 30.25" fill="#ffffff" fill-opacity="0.44313726" fill-rule="evenodd" stroke="none"/>
      <path d="M15.15 26.4 L15.2 26.5 15.2 26.6 16.0 29.45 15.7 29.95 14.55 30.7 14.45 30.55 14.15 30.0 13.1 27.75 13.1 27.7 13.05 27.6 13.0 27.45 12.9 27.25 12.0 25.1 Q13.15 24.55 14.25 23.95 L14.35 24.1 14.5 24.5 15.15 26.4 M19.9 27.6 L20.1 27.75 20.25 27.9 Q21.6 29.2 21.6 31.0 21.6 32.6 20.55 33.85 L21.2 34.7 21.9 35.65 Q22.5 36.5 22.5 36.9 22.5 37.4 21.1 38.5 L19.8 37.2 18.45 35.3 16.6 35.6 Q15.1 35.6 13.95 34.9 16.4 33.4 18.05 31.15 19.3 29.4 19.9 27.6 M24.3 36.6 Q24.8 37.25 24.8 38.2 L24.75 38.9 25.3 39.55 25.95 40.15 Q26.6 40.6 27.3 40.7 L27.3 41.65 26.9 42.1 25.6 41.85 24.65 41.4 23.35 40.55 22.2 40.8 21.0 40.55 23.35 38.0 24.3 36.6 M29.55 38.45 Q30.6 38.55 31.4 39.3 L32.25 40.55 32.75 40.5 33.6 40.45 34.3 40.3 34.9 41.5 34.05 42.0 32.3 42.5 Q32.05 43.25 31.4 43.85 30.4 44.8 29.0 44.8 L28.4 44.75 29.25 41.35 29.55 38.45 M36.95 38.05 Q37.95 38.1 38.7 38.75 39.6 39.5 39.6 40.6 39.6 41.7 38.7 42.45 L37.15 43.2 37.2 41.0 36.95 38.05 M20.55 33.85 L20.1 34.25 Q19.35 34.95 18.45 35.3 19.35 34.95 20.1 34.25 L20.55 33.85 M24.75 38.9 L24.05 40.05 23.35 40.55 24.05 40.05 24.75 38.9 M32.3 42.5 L32.4 41.6 32.25 40.55 32.4 41.6 32.3 42.5" fill="#5e5e5e" fill-rule="evenodd" stroke="none"/>
      <path d="M15.2 26.6 L16.55 26.4 16.6 26.4 17.05 26.45 Q18.65 26.55 19.9 27.6 19.3 29.4 18.05 31.15 16.4 33.4 13.95 34.9 13.45 34.65 13.05 34.25 11.95 33.25 11.7 31.9 L11.6 31.0 Q11.6 30.25 11.85 29.65 12.15 28.6 13.05 27.75 L13.1 27.75 14.15 30.0 14.45 30.55 14.55 30.7 15.7 29.95 16.0 29.45 15.2 26.6 M21.9 35.65 L22.2 35.6 Q23.3 35.6 24.05 36.35 L24.3 36.6 23.35 38.0 21.0 40.55 20.35 40.05 Q19.6 39.3 19.6 38.2 L19.8 37.2 21.1 38.5 Q22.5 37.4 22.5 36.9 22.5 36.5 21.9 35.65 M25.95 40.15 L26.6 39.3 Q27.6 38.4 29.0 38.4 L29.55 38.45 29.25 41.35 28.4 44.75 Q27.35 44.6 26.6 43.85 25.7 43.05 25.6 41.85 L26.9 42.1 27.3 41.65 27.3 40.7 Q26.6 40.6 25.95 40.15 M33.6 40.45 Q33.65 39.45 34.45 38.75 35.35 38.0 36.6 38.0 L36.95 38.05 37.2 41.0 37.15 43.2 36.6 43.2 Q35.35 43.2 34.45 42.45 L34.05 42.0 34.9 41.5 34.3 40.3 33.6 40.45" fill="#919191" fill-rule="evenodd" stroke="none"/>
      <path d="M31.9 -23.7 Q35.6 -16.25 35.6 -7.2 35.6 8.4 24.6 19.4 22.3 21.7 19.85 23.5 L16.6 25.6 M13.0 27.45 L11.55 28.0 8.6 29.0 Q3.6 30.4 -2.0 30.4 L-2.5 30.4 -5.35 30.25 -5.45 30.25 -7.35 30.05 Q-14.0 29.2 -19.7 26.1 -24.5 23.5 -28.6 19.4 -39.6 8.4 -39.6 -7.2 -39.6 -22.8 -28.6 -33.8 -17.6 -44.8 -2.0 -44.8 9.35 -44.8 18.3 -38.95 21.6 -36.8 24.6 -33.8 L28.9 -28.75 Q30.6 -26.35 31.9 -23.7" fill="none" stroke="#495a61" stroke-linecap="round" stroke-linejoin="miter-clip" stroke-miterlimit="3.0" stroke-opacity="0.6627451" stroke-width="3.5"/>
      <path d="M16.6 25.6 L16.05 25.95 15.15 26.4 15.2 26.5 15.2 26.55 15.2 26.6 16.55 26.4 16.6 26.4 17.05 26.45 Q18.65 26.55 19.9 27.6 L20.1 27.75 20.25 27.9 Q21.6 29.2 21.6 31.0 21.6 32.6 20.55 33.85 L21.2 34.7 21.9 35.65 22.2 35.6 Q23.3 35.6 24.05 36.35 L24.3 36.6 Q24.8 37.25 24.8 38.2 L24.75 38.9 25.3 39.55 25.95 40.15 26.6 39.3 Q27.6 38.4 29.0 38.4 L29.55 38.45 Q30.6 38.55 31.4 39.3 L32.25 40.55 32.75 40.5 33.6 40.45 Q33.65 39.45 34.45 38.75 35.35 38.0 36.6 38.0 L36.95 38.05 Q37.95 38.1 38.7 38.75 39.6 39.5 39.6 40.6 39.6 41.7 38.7 42.45 L37.15 43.2 36.6 43.2 Q35.35 43.2 34.45 42.45 L34.05 42.0 32.3 42.5 Q32.05 43.25 31.4 43.85 30.4 44.8 29.0 44.8 L28.4 44.75 Q27.35 44.6 26.6 43.85 25.7 43.05 25.6 41.85 L24.65 41.4 23.35 40.55 22.2 40.8 21.0 40.55 20.35 40.05 Q19.6 39.3 19.6 38.2 L19.8 37.2 18.45 35.3 16.6 35.6 Q15.1 35.6 13.95 34.9 13.45 34.65 13.05 34.25 11.95 33.25 11.7 31.9 L11.6 31.0 Q11.6 30.25 11.85 29.65 12.15 28.6 13.05 27.75 L13.1 27.7 13.05 27.6 13.0 27.45 12.9 27.25 12.0 25.1 Q13.15 24.55 14.25 23.95 L14.35 24.1 14.5 24.5 15.15 26.4 M13.1 27.75 L14.15 30.0 14.45 30.55 14.55 30.7 15.7 29.95 16.0 29.45 15.2 26.6 M13.1 27.7 L13.1 27.75 M18.45 35.3 Q19.35 34.95 20.1 34.25 L20.55 33.85 M19.8 37.2 L21.1 38.5 Q22.5 37.4 22.5 36.9 22.5 36.5 21.9 35.65 M25.6 41.85 L26.9 42.1 27.3 41.65 27.3 40.7 Q26.6 40.6 25.95 40.15 M23.35 40.55 L24.05 40.05 24.75 38.9 M32.25 40.55 L32.4 41.6 32.3 42.5 M34.05 42.0 L34.9 41.5 34.3 40.3 33.6 40.45" fill="none" stroke="#000000" stroke-linecap="round" stroke-linejoin="miter-clip" stroke-miterlimit="3.0" stroke-opacity="0.6627451" stroke-width="3.5"/>
    </g>
  </defs>
</svg>
