<?xml version="1.0" encoding="UTF-8" standalone="no"?>
<svg xmlns:xlink="http://www.w3.org/1999/xlink" height="531.5px" width="460.6px" xmlns="http://www.w3.org/2000/svg">
  <g transform="matrix(1.0, 0.0, 0.0, 1.0, 193.65, 334.05)">
    <use height="21.15" transform="matrix(1.0, 0.0, 0.0, 1.0, -22.15, -153.5)" width="67.2" xlink:href="#shape0"/>
  </g>
  <defs>
    <g id="shape0" transform="matrix(1.0, 0.0, 0.0, 1.0, 22.15, 153.5)">
      <path d="M29.65 -142.7 L14.9 -141.6 11.25 -142.15 6.65 -142.8 8.2 -143.0 11.65 -143.3 13.8 -142.95 17.4 -142.65 21.55 -142.8 24.65 -143.5 27.65 -142.9 29.65 -142.7" fill="#910000" fill-rule="evenodd" stroke="none"/>
      <path d="M8.2 -153.5 L10.4 -151.2 Q12.05 -149.95 14.25 -149.4 16.4 -148.7 18.85 -148.7 22.0 -148.7 24.35 -150.4 L25.55 -151.2 Q26.8 -152.2 26.8 -152.65 L29.2 -151.25 35.6 -147.1 Q39.85 -144.3 42.75 -143.0 L45.05 -141.7 45.05 -141.6 45.0 -141.0 Q44.35 -140.1 41.55 -138.7 L40.8 -138.3 Q38.7 -137.25 36.65 -136.55 L33.75 -135.65 33.4 -135.55 Q29.65 -134.45 26.35 -133.7 L25.35 -133.5 19.2 -132.55 18.65 -132.5 15.25 -132.35 Q12.5 -132.35 7.6 -133.3 L6.7 -133.45 Q1.35 -134.55 -6.3 -136.65 L-6.5 -136.7 -6.55 -136.75 Q-19.1 -140.4 -21.75 -142.25 L-21.9 -142.4 -22.15 -142.85 -21.9 -143.3 -21.85 -143.3 -19.5 -144.15 7.5 -153.5 7.85 -153.4 8.2 -153.5 M29.65 -142.7 L27.65 -142.9 24.65 -143.5 21.55 -142.8 17.4 -142.65 13.8 -142.95 11.65 -143.3 8.2 -143.0 6.65 -142.8 11.25 -142.15 14.9 -141.6 29.65 -142.7" fill="url(#gradient0)" fill-rule="evenodd" stroke="none"/>
      <path d="M23.5 -138.4 Q28.75 -139.3 28.75 -137.1 28.75 -135.85 26.8 -134.95 24.9 -134.05 22.4 -134.05 20.05 -134.05 20.05 -135.75 20.05 -137.85 23.5 -138.4 M17.65 -134.05 Q16.7 -134.05 16.35 -134.8 L16.2 -135.45 Q16.2 -136.9 17.65 -136.8 19.1 -136.7 19.1 -135.35 19.1 -134.05 17.65 -134.05" fill="#ff534a" fill-rule="evenodd" stroke="none"/>
    </g>
    <linearGradient gradientTransform="matrix(0.0, 0.0069, -0.008, 0.0, 16.3, -140.95)" gradientUnits="userSpaceOnUse" id="gradient0" spreadMethod="pad" x1="-819.2" x2="819.2">
      <stop offset="0.0" stop-color="#f00000"/>
      <stop offset="1.0" stop-color="#c20000"/>
    </linearGradient>
  </defs>
</svg>
