<?xml version="1.0" encoding="UTF-8" standalone="no"?>
<svg xmlns:xlink="http://www.w3.org/1999/xlink" height="531.5px" width="460.6px" xmlns="http://www.w3.org/2000/svg">
  <g transform="matrix(1.0, 0.0, 0.0, 1.0, 193.65, 334.05)">
    <use height="45.9" transform="matrix(0.9881, 0.0, 0.0, 0.9881, -65.4173, -189.6754)" width="131.7" xlink:href="#shape0"/>
  </g>
  <defs>
    <g id="shape0" transform="matrix(1.0, 0.0, 0.0, 1.0, 65.85, 23.1)">
      <path d="M5.6 -13.8 L4.95 -19.35 9.05 -16.6 9.9 -16.05 Q10.3 -14.45 8.9 -12.9 7.7 -12.05 5.75 -12.45 L5.6 -13.8 M26.7 -15.55 L29.45 -18.3 29.05 -14.2 28.9 -12.45 28.65 -10.15 Q27.5 -10.05 26.0 -11.25 24.8 -12.7 24.85 -13.75 L26.7 -15.55 M42.65 -18.1 L47.05 -21.5 46.35 -15.8 46.25 -14.95 Q45.75 -13.9 43.45 -15.35 41.15 -16.95 42.0 -17.65 L42.65 -18.1 M60.55 -6.4 L65.15 -6.25 61.1 -2.45 61.05 -3.2 Q61.0 -4.8 60.55 -6.4 M18.4 1.2 L17.1 4.35 15.85 1.35 14.9 -0.85 Q14.75 -1.85 17.1 -1.8 19.4 -1.55 19.1 -0.65 L18.4 1.2 M-14.65 4.45 L-21.0 8.75 -20.2 1.7 -20.05 0.25 Q-18.25 -0.35 -16.3 0.65 -14.55 1.35 -13.45 3.6 L-14.65 4.45 M-61.4 -0.55 L-65.55 -1.9 -61.9 -3.7 -60.45 -4.5 Q-59.45 -3.95 -59.0 -2.25 -58.9 -0.7 -59.6 0.05 L-61.4 -0.55 M-62.9 -6.8 L-65.35 -9.5 -63.3 -10.0 Q-63.5 -8.3 -62.9 -6.8 M-53.05 -16.05 L-53.9 -21.7 -49.45 -18.2 -48.6 -17.6 Q-47.95 -16.6 -50.25 -15.35 L-52.95 -15.3 -53.05 -16.05 M-34.3 -18.6 L-29.7 -22.8 -29.7 -16.25 -29.7 -14.25 Q-30.75 -13.45 -33.5 -14.85 -35.65 -15.95 -35.9 -17.2 L-34.3 -18.6 M-14.55 -15.85 L-13.45 -22.25 -9.7 -16.55 -8.75 -15.1 Q-8.3 -13.75 -11.65 -13.2 -15.1 -12.85 -14.85 -14.25 L-14.55 -15.85 M44.8 -2.2 L42.35 -3.85 Q43.95 -7.75 47.4 -6.15 L46.95 -3.3 46.55 -1.05 44.8 -2.2 M-42.95 2.05 L-43.35 0.25 Q-43.25 -0.9 -40.6 -0.35 -37.95 0.4 -38.5 1.35 L-39.25 2.55 -41.9 6.75 -42.95 2.05" fill="#586638" fill-rule="evenodd" stroke="none"/>
      <path d="M9.05 -16.6 Q19.6 -22.15 26.45 -15.85 L26.7 -15.55 24.85 -13.75 Q24.8 -12.7 26.0 -11.25 27.5 -10.05 28.65 -10.15 L28.9 -12.45 30.85 -9.4 32.25 -7.0 Q36.6 -3.25 40.0 -5.7 L47.1 -9.75 48.8 -10.75 51.0 -11.5 55.05 -11.7 Q57.65 -11.25 59.65 -8.9 L60.55 -6.4 Q61.0 -4.8 61.05 -3.2 L61.1 -2.45 61.05 -1.8 Q58.5 1.5 54.6 4.2 L54.85 3.55 55.75 1.1 Q55.75 -0.05 55.1 -0.55 54.25 -1.2 53.8 -1.8 L55.55 -3.55 56.15 -4.35 54.85 -5.35 52.4 -6.2 51.9 -6.3 49.7 -4.85 48.95 -4.4 47.6 -3.65 46.95 -3.3 47.4 -6.15 Q43.95 -7.75 42.35 -3.85 L44.8 -2.2 41.7 -0.9 38.45 0.2 Q32.95 1.85 27.75 -5.35 L26.7 -6.8 25.2 -9.35 Q22.5 -13.3 19.05 -14.65 15.15 -16.4 5.95 -7.55 L3.5 -3.85 0.6 -0.1 Q-3.1 4.2 -11.6 4.7 L-14.65 4.45 -13.45 3.6 Q-14.55 1.35 -16.3 0.65 -18.25 -0.35 -20.05 0.25 L-20.2 1.7 Q-22.85 -0.3 -25.55 -3.65 L-28.45 -7.65 -29.15 -8.6 Q-33.7 -14.95 -43.05 -15.0 L-44.75 -14.8 -46.45 -14.35 Q-50.05 -12.75 -52.6 -10.05 -54.4 -8.15 -55.7 -5.6 L-56.95 -2.7 Q-57.7 -1.0 -54.25 1.85 L-54.2 2.3 Q-54.25 3.0 -55.25 3.3 L-56.8 3.5 Q-57.25 3.65 -57.25 4.7 L-57.25 4.9 Q-60.35 2.1 -61.4 -0.55 L-59.6 0.05 Q-58.9 -0.7 -59.0 -2.25 -59.45 -3.95 -60.45 -4.5 L-61.9 -3.7 -61.55 -4.6 Q-59.6 -9.2 -56.4 -12.85 L-53.05 -16.05 -52.95 -15.3 -50.25 -15.35 Q-47.95 -16.6 -48.6 -17.6 L-49.45 -18.2 -49.4 -18.25 -46.35 -19.15 Q-39.25 -20.15 -34.3 -18.6 L-35.9 -17.2 Q-35.65 -15.95 -33.5 -14.85 -30.75 -13.45 -29.7 -14.25 L-29.7 -16.25 -27.55 -14.2 -24.95 -10.35 -22.15 -6.95 Q-18.4 -2.75 -13.95 0.15 -9.75 2.15 -4.15 -2.2 -1.85 -4.55 -0.05 -6.8 L2.25 -9.8 2.55 -10.2 Q4.05 -12.3 5.6 -13.8 L5.75 -12.45 Q7.7 -12.05 8.9 -12.9 10.3 -14.45 9.9 -16.05 L9.05 -16.6 M53.1 -7.15 L51.9 -6.3 53.1 -7.15 M56.7 -3.4 L56.15 -4.35 56.7 -3.4" fill="#3c4939" fill-rule="evenodd" stroke="none"/>
      <path d="M29.05 -14.2 Q31.7 -17.55 37.7 -19.2 40.4 -19.15 42.65 -18.1 L42.0 -17.65 Q41.15 -16.95 43.45 -15.35 45.75 -13.9 46.25 -14.95 L46.35 -15.8 50.4 -12.25 Q53.15 -16.0 55.9 -18.05 L55.3 -20.9 58.8 -19.75 Q60.45 -20.5 62.15 -20.6 60.65 -19.05 65.55 -17.0 59.15 -16.55 55.05 -11.7 L51.0 -11.5 48.8 -10.75 47.1 -9.75 Q43.8 -14.05 38.35 -14.9 34.0 -13.2 30.85 -9.4 L28.9 -12.45 29.05 -14.2 M27.75 -5.35 Q26.25 -2.35 23.2 0.4 L18.4 1.2 19.1 -0.65 Q19.4 -1.55 17.1 -1.8 14.75 -1.85 14.9 -0.85 L15.85 1.35 13.35 1.3 Q7.55 0.65 3.5 -3.85 L5.95 -7.55 Q9.75 -3.15 17.25 -3.05 22.3 -2.95 25.2 -9.35 L26.7 -6.8 27.75 -5.35 M-25.55 -3.65 Q-28.6 -0.75 -32.15 1.05 -33.05 1.55 -34.05 1.9 L-34.35 2.0 -39.25 2.55 -38.5 1.35 Q-37.95 0.4 -40.6 -0.35 -43.25 -0.9 -43.35 0.25 L-42.95 2.05 -44.75 1.6 -48.0 -0.1 -48.15 -0.15 -48.9 -0.6 -52.65 -3.15 -54.6 -4.7 -55.7 -5.6 Q-54.4 -8.15 -52.6 -10.05 -48.1 -4.1 -39.85 -2.5 -37.4 -2.5 -35.05 -3.15 -32.8 -3.8 -31.0 -5.2 L-29.65 -6.3 -28.45 -7.65 -25.55 -3.65 M-61.55 -4.6 L-62.9 -6.8 Q-63.5 -8.3 -63.3 -10.0 L-63.05 -11.45 Q-59.9 -14.9 -56.4 -12.85 -59.6 -9.2 -61.55 -4.6 M-24.95 -10.35 Q-20.1 -14.4 -14.55 -15.85 L-14.85 -14.25 Q-15.1 -12.85 -11.65 -13.2 -8.3 -13.75 -8.75 -15.1 L-9.7 -16.55 Q-6.6 -16.55 -3.45 -15.3 0.3 -12.75 2.55 -10.2 L2.25 -9.8 -0.05 -6.8 Q-5.2 -11.15 -8.75 -11.9 -15.95 -10.85 -22.15 -6.95 L-24.95 -10.35 M50.4 -12.25 L51.0 -11.5 50.4 -12.25 M58.8 -19.75 L55.9 -18.05 58.8 -19.75 M54.85 -5.35 L56.15 -4.35 55.55 -3.55 54.85 -5.35 M-48.15 -1.1 L-48.0 -0.1 -48.15 -1.1" fill="#283325" fill-rule="evenodd" stroke="none"/>
      <path d="M51.85 5.9 Q51.65 13.4 50.7 13.4 49.75 13.4 49.55 6.0 49.35 -1.95 48.95 -4.4 L49.7 -4.85 51.9 -6.3 52.4 -6.2 52.15 -0.65 51.5 -0.25 51.25 6.2 51.85 5.9 M47.6 -3.65 L46.95 -2.2 Q46.25 -0.3 46.25 1.5 46.25 6.25 47.15 11.25 L48.05 16.2 Q48.05 17.95 47.35 19.4 46.55 21.0 45.3 21.0 44.95 21.0 44.4 20.15 43.85 19.35 43.75 18.7 43.55 17.8 43.45 15.7 L43.05 8.7 42.8 1.35 Q42.5 -0.15 41.7 -0.9 L44.8 -2.2 46.55 -1.05 46.95 -3.3 47.6 -3.65 M-34.05 1.9 L-34.4 3.0 Q-35.3 5.75 -35.4 7.4 L-35.6 11.25 Q-35.95 14.2 -37.35 14.2 -39.5 14.2 -40.15 11.45 -40.7 8.7 -41.4 8.7 -42.05 8.7 -42.7 12.6 -43.4 16.5 -45.05 16.5 -46.2 16.5 -46.9 14.6 -47.45 13.25 -47.65 11.35 L-47.75 6.3 -47.95 0.65 -48.0 -0.1 -44.75 1.6 -42.95 2.05 -41.9 6.75 -39.25 2.55 -34.35 2.0 -34.05 1.9 M-48.9 -0.6 L-48.9 0.85 -49.15 5.0 Q-49.3 22.8 -50.4 22.8 -51.7 22.8 -52.25 17.7 L-52.55 11.75 -52.45 8.5 -50.35 9.85 -50.55 4.45 -52.75 3.0 -52.75 -0.7 -52.65 -3.15 -48.9 -0.6 M35.85 12.35 Q35.85 11.15 36.1 9.9 L36.4 8.8 Q36.6 7.65 37.4 7.55 38.45 7.4 38.75 8.05 L38.85 10.15 Q38.7 15.5 37.6 15.5 36.9 15.5 36.35 14.5 35.85 13.55 35.85 12.35" fill="#990000" fill-rule="evenodd" stroke="none"/>
      <path d="M54.6 4.2 L51.85 5.9 51.25 6.2 51.5 -0.25 52.15 -0.65 53.8 -1.8 Q54.25 -1.2 55.1 -0.55 55.75 -0.05 55.75 1.1 L54.85 3.55 54.6 4.2 M-52.45 8.5 L-57.25 4.9 -57.25 4.7 Q-57.25 3.65 -56.8 3.5 L-55.25 3.3 Q-54.25 3.0 -54.2 2.3 L-54.25 1.85 -53.15 2.7 -52.75 3.0 -50.55 4.45 -50.35 9.85 -52.45 8.5" fill="#664500" fill-rule="evenodd" stroke="none"/>
      <path d="M62.15 -20.6 Q65.4 -19.95 65.55 -17.0 60.65 -19.05 62.15 -20.6" fill="#151c14" fill-rule="evenodd" stroke="none"/>
      <path d="M5.6 -13.8 L4.95 -19.35 9.05 -16.6 Q19.6 -22.15 26.45 -15.85 L26.7 -15.55 29.45 -18.3 29.05 -14.2 Q31.7 -17.55 37.7 -19.2 40.4 -19.15 42.65 -18.1 L47.05 -21.5 46.35 -15.8 50.4 -12.25 Q53.15 -16.0 55.9 -18.05 L55.3 -20.9 58.8 -19.75 Q60.45 -20.5 62.15 -20.6 65.4 -19.95 65.55 -17.0 59.15 -16.55 55.05 -11.7 57.65 -11.25 59.65 -8.9 L60.55 -6.4 65.15 -6.25 61.1 -2.45 61.05 -1.8 Q58.5 1.5 54.6 4.2 L51.85 5.9 51.25 6.2 M48.95 -4.4 L47.6 -3.65 46.95 -3.3 46.55 -1.05 44.8 -2.2 41.7 -0.9 38.45 0.2 Q32.95 1.85 27.75 -5.35 26.25 -2.35 23.2 0.4 L18.4 1.2 17.1 4.35 15.85 1.35 13.35 1.3 Q7.55 0.65 3.5 -3.85 L0.6 -0.1 Q-3.1 4.2 -11.6 4.7 L-14.65 4.45 -21.0 8.75 -20.2 1.7 Q-22.85 -0.3 -25.55 -3.65 -28.6 -0.75 -32.15 1.05 -33.05 1.55 -34.05 1.9 L-34.35 2.0 -39.25 2.55 -38.5 1.35 Q-37.95 0.4 -40.6 -0.35 -43.25 -0.9 -43.35 0.25 L-42.95 2.05 -41.9 6.75 -39.25 2.55 M-47.95 0.65 L-48.0 -0.1 -48.15 -0.15 -48.9 -0.6 -52.65 -3.15 -54.6 -4.7 -55.7 -5.6 -56.95 -2.7 Q-57.7 -1.0 -54.25 1.85 L-53.15 2.7 Q-55.05 -1.45 -54.6 -4.7 M-52.45 8.5 L-57.25 4.9 Q-60.35 2.1 -61.4 -0.55 L-65.55 -1.9 -61.9 -3.7 -61.55 -4.6 -62.9 -6.8 -65.35 -9.5 -63.3 -10.0 -63.05 -11.45 Q-59.9 -14.9 -56.4 -12.85 L-53.05 -16.05 -53.9 -21.7 -49.45 -18.2 -49.4 -18.25 -46.35 -19.15 Q-39.25 -20.15 -34.3 -18.6 L-29.7 -22.8 -29.7 -16.25 -27.55 -14.2 -24.95 -10.35 Q-20.1 -14.4 -14.55 -15.85 L-13.45 -22.25 -9.7 -16.55 Q-6.6 -16.55 -3.45 -15.3 0.3 -12.75 2.55 -10.2 4.05 -12.3 5.6 -13.8 L5.75 -12.45 Q7.7 -12.05 8.9 -12.9 10.3 -14.45 9.9 -16.05 L9.05 -16.6 M3.5 -3.85 L5.95 -7.55 Q15.15 -16.4 19.05 -14.65 22.5 -13.3 25.2 -9.35 L26.7 -6.8 27.75 -5.35 M2.55 -10.2 L2.25 -9.8 -0.05 -6.8 Q-1.85 -4.55 -4.15 -2.2 -9.75 2.15 -13.95 0.15 -18.4 -2.75 -22.15 -6.95 L-24.95 -10.35 M15.85 1.35 L14.9 -0.85 Q14.75 -1.85 17.1 -1.8 19.4 -1.55 19.1 -0.65 L18.4 1.2 M5.95 -7.55 Q9.75 -3.15 17.25 -3.05 22.3 -2.95 25.2 -9.35 M29.05 -14.2 L28.9 -12.45 30.85 -9.4 Q34.0 -13.2 38.35 -14.9 43.8 -14.05 47.1 -9.75 L48.8 -10.75 51.0 -11.5 50.4 -12.25 M28.9 -12.45 L28.65 -10.15 Q27.5 -10.05 26.0 -11.25 24.8 -12.7 24.85 -13.75 L26.7 -15.55 M30.85 -9.4 L32.25 -7.0 Q36.6 -3.25 40.0 -5.7 L47.1 -9.75 M55.9 -18.05 L58.8 -19.75 M46.35 -15.8 L46.25 -14.95 Q45.75 -13.9 43.45 -15.35 41.15 -16.95 42.0 -17.65 L42.65 -18.1 M44.8 -2.2 L42.35 -3.85 Q43.95 -7.75 47.4 -6.15 L46.95 -3.3 M48.95 -4.4 L49.7 -4.85 51.9 -6.3 53.1 -7.15 M51.0 -11.5 L55.05 -11.7 M51.9 -6.3 L52.4 -6.2 54.85 -5.35 56.15 -4.35 56.7 -3.4 M52.15 -0.65 L51.5 -0.25 M52.15 -0.65 L53.8 -1.8 55.55 -3.55 54.85 -5.35 M52.4 -6.2 L52.15 -0.65 M55.55 -3.55 L56.15 -4.35 M60.55 -6.4 Q61.0 -4.8 61.05 -3.2 L61.1 -2.45 M62.15 -20.6 Q60.65 -19.05 65.55 -17.0 M-63.3 -10.0 Q-63.5 -8.3 -62.9 -6.8 M-53.05 -16.05 L-52.95 -15.3 -50.25 -15.35 Q-47.95 -16.6 -48.6 -17.6 L-49.45 -18.2 M-52.6 -10.05 Q-50.05 -12.75 -46.45 -14.35 L-44.75 -14.8 -43.05 -15.0 Q-33.7 -14.95 -29.15 -8.6 L-28.45 -7.65 -25.55 -3.65 M-52.6 -10.05 Q-54.4 -8.15 -55.7 -5.6 M-61.4 -0.55 L-59.6 0.05 Q-58.9 -0.7 -59.0 -2.25 -59.45 -3.95 -60.45 -4.5 L-61.9 -3.7 M-48.0 -0.1 L-48.15 -1.1 M-61.55 -4.6 Q-59.6 -9.2 -56.4 -12.85 M-29.7 -16.25 L-29.7 -14.25 Q-30.75 -13.45 -33.5 -14.85 -35.65 -15.95 -35.9 -17.2 L-34.3 -18.6 M-28.45 -7.65 L-29.65 -6.3 -31.0 -5.2 Q-32.8 -3.8 -35.05 -3.15 -37.4 -2.5 -39.85 -2.5 -48.1 -4.1 -52.6 -10.05 M-9.7 -16.55 L-8.75 -15.1 Q-8.3 -13.75 -11.65 -13.2 -15.1 -12.85 -14.85 -14.25 L-14.55 -15.85 M-0.05 -6.8 Q-5.2 -11.15 -8.75 -11.9 -15.95 -10.85 -22.15 -6.95 M-20.2 1.7 L-20.05 0.25 Q-18.25 -0.35 -16.3 0.65 -14.55 1.35 -13.45 3.6 L-14.65 4.45 M-42.95 2.05 L-44.75 1.6 -48.0 -0.1 M-50.35 9.85 L-52.45 8.5 M-53.15 2.7 L-52.75 3.0 -50.55 4.45" fill="none" stroke="#000000" stroke-linecap="round" stroke-linejoin="round" stroke-opacity="0.4" stroke-width="0.6000000000000001"/>
    </g>
  </defs>
</svg>
