<?xml version="1.0" encoding="UTF-8" standalone="no"?>
<svg xmlns:xlink="http://www.w3.org/1999/xlink" height="531.5px" width="460.6px" xmlns="http://www.w3.org/2000/svg">
  <g transform="matrix(1.0, 0.0, 0.0, 1.0, 193.65, 334.05)">
    <use height="57.2" transform="matrix(0.4557, 0.0, 0.0, 0.4557, -67.8475, -28.3475)" width="283.4" xlink:href="#sprite0"/>
  </g>
  <defs>
    <g id="sprite0" transform="matrix(1.0, 0.0, 0.0, 1.0, 1.75, 1.75)">
      <use height="57.2" transform="matrix(1.0, 0.0, 0.0, 1.0, -1.75, -1.75)" width="283.4" xlink:href="#shape0"/>
      <use height="53.7" transform="matrix(1.0, 0.0, 0.0, 1.0, 0.0, 0.0)" width="279.9" xlink:href="#sprite1"/>
    </g>
    <g id="shape0" transform="matrix(1.0, 0.0, 0.0, 1.0, 1.75, 1.75)">
      <path d="M259.4 22.45 L260.2 22.35 265.0 21.55 277.0 21.55 276.6 38.85 276.3 48.95 276.5 48.95 276.3 49.0 268.9 49.4 267.1 49.5 259.5 50.2 259.4 22.45 M250.45 28.45 L250.45 30.75 246.45 30.75 235.0 30.75 235.0 35.3 235.0 36.35 250.5 36.35 250.5 45.5 232.6 45.6 223.5 45.65 205.7 45.7 205.7 38.75 205.6 20.95 214.4 20.9 223.45 20.85 250.4 20.75 250.45 28.45 M262.8 27.05 L263.05 26.6 262.6 26.35 262.8 27.05 M266.4 29.65 L262.8 30.15 Q263.3 32.35 263.45 34.8 L266.6 34.9 Q269.6 34.8 271.6 33.95 273.75 33.05 273.7 31.95 273.65 30.9 271.45 30.2 269.4 29.55 266.4 29.65 M172.15 21.8 L172.2 21.8 172.15 21.75 172.15 21.8 M172.2 33.9 Q175.05 33.1 175.1 31.75 175.2 30.4 172.4 29.3 169.7 28.25 165.75 28.05 161.75 27.9 158.9 28.7 156.15 29.55 156.05 30.9 156.0 32.25 158.7 33.3 161.45 34.4 165.45 34.55 L172.2 33.9 M194.6 21.8 L194.65 39.55 194.7 50.9 187.15 50.15 135.95 47.65 103.7 45.15 97.85 44.65 93.3 36.6 80.45 13.65 99.15 15.2 Q174.1 21.4 194.6 21.8 M90.35 43.9 L79.2 42.8 74.0 35.15 Q66.35 23.5 60.05 11.85 L73.85 13.05 81.95 28.25 90.35 43.9 M65.3 41.3 L39.0 38.2 6.0 33.75 4.95 33.6 4.6 30.2 Q3.4 18.3 3.4 15.95 3.4 7.85 5.85 6.35 7.15 5.55 15.7 7.25 L50.85 11.05 64.2 39.15 65.3 41.3 M124.7 29.1 Q124.8 27.85 121.95 26.8 119.2 25.7 115.2 25.4 L108.15 25.7 Q105.25 26.3 105.15 27.55 105.05 28.8 107.85 29.9 110.65 31.0 114.7 31.35 L121.65 31.0 Q124.6 30.35 124.7 29.1" fill="#000000" fill-rule="evenodd" stroke="none"/>
      <path d="M276.5 48.95 L276.3 48.95 276.6 38.85 277.0 21.55 265.0 21.55 260.2 22.35 259.4 22.45 259.35 15.9 260.35 15.9 263.6 15.9 267.0 15.9 278.3 15.8 Q279.85 16.85 279.9 19.45 L279.3 39.4 Q279.65 49.3 276.5 48.95 M77.1 7.45 L79.4 7.65 Q134.75 12.45 186.75 14.5 L194.55 14.75 194.6 21.8 Q174.1 21.4 99.15 15.2 L80.45 13.65 77.1 7.45 M4.95 33.6 L3.8 33.45 Q1.0 32.8 0.75 29.25 -0.75 19.05 0.7 8.75 L1.0 6.8 1.1 6.0 1.15 5.9 Q1.8 1.8 4.35 0.0 L41.75 4.1 47.85 4.7 50.85 11.05 15.7 7.25 Q7.15 5.55 5.85 6.35 3.4 7.85 3.4 15.95 3.4 18.3 4.6 30.2 L4.95 33.6 M56.75 5.6 L70.55 6.85 73.85 13.05 60.05 11.85 56.75 5.6" fill="#262626" fill-rule="evenodd" stroke="none"/>
      <path d="M259.35 15.9 L259.4 22.45 259.25 22.3 250.45 28.45 250.4 20.75 223.45 20.85 220.85 13.6 259.35 13.45 259.35 15.9 M250.45 30.75 L253.4 30.75 253.4 36.35 250.5 36.35 250.45 30.75 M246.45 30.75 Q241.05 33.65 235.65 35.1 L235.0 35.3 235.0 30.75 246.45 30.75 M214.4 20.9 L205.6 20.95 205.7 38.75 194.65 39.55 194.6 21.8 194.55 14.75 194.55 13.7 211.7 13.65 214.4 20.9" fill="#bbbbbb" fill-rule="evenodd" stroke="none"/>
      <path d="M259.4 22.45 L259.5 50.2 259.5 53.45 235.6 53.55 232.6 45.6 250.5 45.5 250.5 36.35 253.4 36.35 253.4 30.75 250.45 30.75 250.5 36.35 235.0 36.35 235.0 35.3 235.65 35.1 Q241.05 33.65 246.45 30.75 L250.45 30.75 250.45 28.45 259.25 22.3 259.4 22.45 M205.7 38.75 L205.7 45.7 223.5 45.65 226.4 53.6 194.7 53.7 194.7 50.9 194.65 39.55 205.7 38.75" fill="#848484" fill-rule="evenodd" stroke="none"/>
      <path d="M262.8 27.05 L262.6 26.35 263.05 26.6 262.8 27.05 M97.85 44.65 L90.35 43.9 81.95 28.25 73.85 13.05 70.55 6.85 77.1 7.45 80.45 13.65 93.3 36.6 97.85 44.65 M79.2 42.8 L76.45 42.5 65.3 41.3 64.2 39.15 50.85 11.05 47.85 4.7 56.75 5.6 60.05 11.85 Q66.35 23.5 74.0 35.15 L79.2 42.8" fill="#373737" fill-rule="evenodd" stroke="none"/>
      <path d="M266.4 29.65 Q269.4 29.55 271.45 30.2 273.65 30.9 273.7 31.95 273.75 33.05 271.6 33.95 269.6 34.8 266.6 34.9 L263.45 34.8 Q263.3 32.35 262.8 30.15 L266.4 29.65 M172.2 33.9 L165.45 34.55 Q161.45 34.4 158.7 33.3 156.0 32.25 156.05 30.9 156.15 29.55 158.9 28.7 161.75 27.9 165.75 28.05 169.7 28.25 172.4 29.3 175.2 30.4 175.1 31.75 175.05 33.1 172.2 33.9 M124.7 29.1 Q124.6 30.35 121.65 31.0 L114.7 31.35 Q110.65 31.0 107.85 29.9 105.05 28.8 105.15 27.55 105.25 26.3 108.15 25.7 L115.2 25.4 Q119.2 25.7 121.95 26.8 124.8 27.85 124.7 29.1" fill="#2f2f2f" fill-rule="evenodd" stroke="none"/>
      <path d="M232.6 45.6 L235.6 53.55 226.4 53.6 223.5 45.65 232.6 45.6 M223.45 20.85 L214.4 20.9 211.7 13.65 220.85 13.6 223.45 20.85" fill="#ffffff" fill-rule="evenodd" stroke="none"/>
      <path d="M172.15 21.8 L172.15 21.75 172.2 21.8 172.15 21.8" fill="#734910" fill-rule="evenodd" stroke="none"/>
      <path d="M259.4 22.45 L259.5 50.2 267.1 49.5 268.9 49.4 276.3 49.0 276.5 48.95 Q279.65 49.3 279.3 39.4 L279.9 19.45 Q279.85 16.85 278.3 15.8 L267.0 15.9 263.6 15.9 260.35 15.9 259.35 15.9 259.4 22.45 M250.45 28.45 L250.45 30.75 253.4 30.75 253.4 36.35 250.5 36.35 250.5 45.5 232.6 45.6 223.5 45.65 205.7 45.7 205.7 38.75 205.6 20.95 214.4 20.9 223.45 20.85 250.4 20.75 250.45 28.45 M235.6 53.55 L259.5 53.45 259.5 50.2 M220.85 13.6 L259.35 13.45 259.35 15.9 M250.5 36.35 L250.45 30.75 246.45 30.75 235.0 30.75 235.0 35.3 235.0 36.35 250.5 36.35 M266.4 29.65 L262.8 30.15 Q263.3 32.35 263.45 34.8 L266.6 34.9 Q269.6 34.8 271.6 33.95 273.75 33.05 273.7 31.95 273.65 30.9 271.45 30.2 269.4 29.55 266.4 29.65 M211.7 13.65 L220.85 13.6 M77.1 7.45 L79.4 7.65 Q134.75 12.45 186.75 14.5 L194.55 14.75 194.55 13.7 211.7 13.65 M194.6 21.8 L194.55 14.75 M172.2 33.9 L165.45 34.55 Q161.45 34.4 158.7 33.3 156.0 32.25 156.05 30.9 156.15 29.55 158.9 28.7 161.75 27.9 165.75 28.05 169.7 28.25 172.4 29.3 175.2 30.4 175.1 31.75 175.05 33.1 172.2 33.9 M194.6 21.8 L194.65 39.55 194.7 50.9 187.15 50.15 135.95 47.65 103.7 45.15 97.85 44.65 90.35 43.9 79.2 42.8 76.45 42.5 65.3 41.3 39.0 38.2 6.0 33.75 4.95 33.6 3.8 33.45 Q1.0 32.8 0.75 29.25 -0.75 19.05 0.7 8.75 L1.0 6.8 1.1 6.0 1.15 5.9 Q1.8 1.8 4.35 0.0 L41.75 4.1 47.85 4.7 56.75 5.6 70.55 6.85 77.1 7.45 M226.4 53.6 L194.7 53.7 194.7 50.9 M235.6 53.55 L226.4 53.6 M124.7 29.1 Q124.6 30.35 121.65 31.0 L114.7 31.35 Q110.65 31.0 107.85 29.9 105.05 28.8 105.15 27.55 105.25 26.3 108.15 25.7 L115.2 25.4 Q119.2 25.7 121.95 26.8 124.8 27.85 124.7 29.1" fill="none" stroke="#000000" stroke-linecap="round" stroke-linejoin="round" stroke-opacity="0.6627451" stroke-width="3.5"/>
    </g>
    <g id="sprite1" transform="matrix(1.0, 0.0, 0.0, 1.0, 0.0, 0.0)">
      <use height="53.7" transform="matrix(1.0, 0.0, 0.0, 1.0, 0.0, 0.0)" width="279.9" xlink:href="#shape1"/>
    </g>
    <g id="shape1" transform="matrix(1.0, 0.0, 0.0, 1.0, 0.0, 0.0)">
      <path d="M276.5 48.95 L276.3 49.0 276.3 48.95 276.5 48.95" fill="url(#gradient0)" fill-rule="evenodd" stroke="none"/>
      <path d="M172.2 21.8 L172.15 21.8 172.15 21.75 172.2 21.8" fill="url(#gradient1)" fill-rule="evenodd" stroke="none"/>
      <path d="M250.5 36.35 L250.5 45.5 205.7 45.7 205.6 20.95 250.4 20.75 250.45 30.75 235.0 30.75 235.0 36.35 250.5 36.35" fill="url(#gradient2)" fill-rule="evenodd" stroke="none"/>
      <path d="M259.5 50.2 L259.5 53.45 194.7 53.7 194.7 50.9 194.55 14.75 194.55 13.7 259.35 13.45 259.35 15.9 259.5 50.2 M250.5 36.35 L235.0 36.35 235.0 30.75 250.45 30.75 250.4 20.75 205.6 20.95 205.7 45.7 250.5 45.5 250.5 36.35" fill="url(#gradient3)" fill-rule="evenodd" stroke="none"/>
      <path d="M194.7 50.9 L187.15 50.15 135.95 47.65 103.7 45.15 97.85 44.65 90.35 43.9 79.2 42.8 76.45 42.5 65.3 41.3 39.0 38.2 6.0 33.75 4.95 33.6 3.8 33.45 Q1.0 32.8 0.75 29.25 -0.75 19.05 0.7 8.75 L1.0 6.8 1.1 6.0 1.15 5.9 Q1.8 1.8 4.35 0.0 L41.75 4.1 47.85 4.7 56.75 5.6 70.55 6.85 77.1 7.45 79.4 7.65 Q134.75 12.45 186.75 14.5 L194.55 14.75 194.7 50.9 M172.2 21.8 L172.15 21.75 172.15 21.8 172.2 21.8" fill="url(#gradient4)" fill-rule="evenodd" stroke="none"/>
      <path d="M259.35 15.9 L260.35 15.9 263.6 15.9 267.0 15.9 278.3 15.8 Q279.85 16.85 279.9 19.45 L279.3 39.4 Q279.65 49.3 276.5 48.95 L276.3 48.95 276.3 49.0 268.9 49.4 267.1 49.5 259.5 50.2 259.35 15.9" fill="url(#gradient5)" fill-rule="evenodd" stroke="none"/>
    </g>
    <linearGradient gradientTransform="matrix(1.0E-4, 0.0, 0.0, 0.0, 276.4, 48.95)" gradientUnits="userSpaceOnUse" id="gradient0" spreadMethod="pad" x1="-819.2" x2="819.2">
      <stop offset="0.0" stop-color="#000000"/>
      <stop offset="1.0" stop-color="#ffffff"/>
    </linearGradient>
    <linearGradient gradientTransform="matrix(0.0, 0.0, 0.0, 0.0, 172.15, 21.75)" gradientUnits="userSpaceOnUse" id="gradient1" spreadMethod="pad" x1="-819.2" x2="819.2">
      <stop offset="0.0" stop-color="#000000"/>
      <stop offset="1.0" stop-color="#ffffff"/>
    </linearGradient>
    <linearGradient gradientTransform="matrix(-0.0026, -0.025, 0.0151, -0.0016, 227.15, 24.0)" gradientUnits="userSpaceOnUse" id="gradient2" spreadMethod="pad" x1="-819.2" x2="819.2">
      <stop offset="0.0" stop-color="#000000"/>
      <stop offset="1.0" stop-color="#ffffff"/>
    </linearGradient>
    <linearGradient gradientTransform="matrix(-0.0033, -0.0228, 0.0243, -0.0035, 233.9, 40.2)" gradientUnits="userSpaceOnUse" id="gradient3" spreadMethod="pad" x1="-819.2" x2="819.2">
      <stop offset="0.0" stop-color="#000000"/>
      <stop offset="1.0" stop-color="#ffffff"/>
    </linearGradient>
    <linearGradient gradientTransform="matrix(-7.0E-4, -0.0401, 0.031, -6.0E-4, 95.85, 17.6)" gradientUnits="userSpaceOnUse" id="gradient4" spreadMethod="pad" x1="-819.2" x2="819.2">
      <stop offset="0.0" stop-color="#000000"/>
      <stop offset="1.0" stop-color="#ffffff"/>
    </linearGradient>
    <linearGradient gradientTransform="matrix(-0.0024, -0.0324, 0.0209, -0.0015, 266.3, 25.55)" gradientUnits="userSpaceOnUse" id="gradient5" spreadMethod="pad" x1="-819.2" x2="819.2">
      <stop offset="0.0" stop-color="#000000"/>
      <stop offset="1.0" stop-color="#ffffff"/>
    </linearGradient>
  </defs>
</svg>
