<?xml version="1.0" encoding="UTF-8" standalone="no"?>
<svg xmlns:xlink="http://www.w3.org/1999/xlink" height="531.5px" width="460.6px" xmlns="http://www.w3.org/2000/svg">
  <g transform="matrix(1.0, 0.0, 0.0, 1.0, 193.65, 334.05)">
    <use height="70.35" transform="matrix(0.9163, 0.0, 0.0, 0.9163, -99.4575, -23.9592)" width="206.65" xlink:href="#shape0"/>
  </g>
  <defs>
    <g id="shape0" transform="matrix(1.0, 0.0, 0.0, 1.0, 103.3, 35.15)">
      <path d="M75.8 -24.45 Q7.85 -18.35 -70.9 -25.8 L-69.95 -34.65 Q8.6 -28.2 74.0 -30.65 L75.8 -24.45" fill="#871b1b" fill-rule="evenodd" stroke="none"/>
      <path d="M86.5 -9.0 Q84.15 -7.8 83.55 -6.25 82.5 -3.5 80.8 -2.55 79.1 -1.5 76.35 -2.05 74.15 -2.35 71.1 -1.35 68.75 -0.5 66.55 0.75 65.55 1.4 63.15 4.75 L60.95 7.9 Q60.4 7.9 54.1 4.55 47.1 1.2 42.65 1.15 38.8 1.1 32.45 5.9 L27.95 9.25 Q25.7 10.75 24.35 10.7 L22.35 10.3 21.25 9.3 Q19.6 7.65 15.3 7.25 L9.6 6.5 5.5 6.25 Q1.05 6.2 -6.6 9.85 L-8.25 10.7 -10.1 9.85 -12.15 9.4 -14.4 9.2 -18.05 9.65 -21.45 10.05 Q-21.95 10.0 -23.3 7.85 -25.15 4.8 -26.65 3.05 -32.9 -3.95 -43.75 -4.05 -48.75 -4.1 -54.85 -2.25 L-60.6 -0.45 -66.25 -5.35 Q-72.55 -10.5 -75.45 -11.55 -77.15 -12.15 -78.0 -14.3 L-78.6 -15.5 -70.9 -25.8 Q7.85 -18.35 75.8 -24.45 L86.5 -9.0" fill="url(#gradient0)" fill-rule="evenodd" stroke="none"/>
      <path d="M-78.6 -15.5 L-78.0 -14.3 Q-77.15 -12.15 -75.45 -11.55 -72.55 -10.5 -66.25 -5.35 L-60.6 -0.45 -54.85 -2.25 Q-48.75 -4.1 -43.75 -4.05 -32.9 -3.95 -26.65 3.05 -25.15 4.8 -23.3 7.85 -21.95 10.0 -21.45 10.05 L-18.05 9.65 -14.4 9.2 -12.15 9.4 -10.1 9.85 -8.25 10.7 -6.6 9.85 Q1.05 6.2 5.5 6.25 L9.6 6.5 15.3 7.25 Q19.6 7.65 21.25 9.3 L22.35 10.3 24.35 10.7 Q25.7 10.75 27.95 9.25 L32.45 5.9 Q38.8 1.1 42.65 1.15 47.1 1.2 54.1 4.55 60.4 7.9 60.95 7.9 L63.15 4.75 Q65.55 1.4 66.55 0.75 68.75 -0.5 71.1 -1.35 74.15 -2.35 76.35 -2.05 79.1 -1.5 80.8 -2.55 82.5 -3.5 83.55 -6.25 84.15 -7.8 86.5 -9.0 L87.65 -9.55 90.1 -10.35 Q95.9 -10.65 98.7 -8.55 101.7 -6.3 101.7 -2.2 101.7 -1.15 100.95 0.0 100.25 1.15 100.25 1.4 L102.1 3.95 102.75 6.5 97.6 8.25 Q90.9 10.45 89.75 10.25 87.75 10.0 85.2 13.05 82.5 16.25 79.5 16.25 L77.7 15.8 74.75 15.5 71.85 15.0 69.5 14.5 Q68.35 14.5 65.1 16.25 L60.25 18.75 Q58.45 19.5 55.1 19.55 L50.5 19.75 Q48.2 20.3 46.05 21.8 43.8 23.3 42.0 23.75 L34.75 25.55 28.75 25.5 19.8 25.0 14.9 24.5 Q13.9 24.5 12.9 25.15 L10.75 26.5 Q7.15 28.5 0.0 28.5 -5.15 28.5 -10.95 26.9 L-15.75 25.25 -18.85 25.75 Q-24.25 25.75 -28.3 23.6 -32.35 21.4 -34.25 17.5 -42.55 21.75 -45.85 21.75 -49.1 21.75 -55.9 18.1 -62.3 14.65 -64.75 12.0 L-70.25 6.2 Q-73.45 3.1 -75.5 2.5 -86.1 -0.6 -90.85 -4.05 -97.25 -8.65 -97.25 -16.05 L-97.35 -18.2 -96.2 -18.95 Q-93.35 -20.35 -90.45 -20.35 L-85.25 -19.5 Q-81.6 -18.6 -80.6 -17.9 -79.5 -17.1 -78.6 -15.5 M-11.3 12.3 L-8.25 10.7 -11.3 12.3" fill="#ffffff" fill-rule="evenodd" stroke="none"/>
      <path d="M-97.35 -18.2 L-97.25 -16.05 Q-97.25 -8.65 -90.85 -4.05 -86.1 -0.6 -75.5 2.5 -73.45 3.1 -70.25 6.2 L-64.75 12.0 Q-62.3 14.65 -55.9 18.1 -49.1 21.75 -45.85 21.75 -42.55 21.75 -34.25 17.5 -32.35 21.4 -28.3 23.6 -24.25 25.75 -18.85 25.75 L-15.75 25.25 -10.95 26.9 Q-5.15 28.5 0.0 28.5 7.15 28.5 10.75 26.5 L12.9 25.15 Q13.9 24.5 14.9 24.5 L19.8 25.0 28.75 25.5 34.75 25.55 42.0 23.75 Q43.8 23.3 46.05 21.8 48.2 20.3 50.5 19.75 L55.1 19.55 Q58.45 19.5 60.25 18.75 L65.1 16.25 Q68.35 14.5 69.5 14.5 L71.85 15.0 74.75 15.5 77.7 15.8 79.5 16.25 Q82.5 16.25 85.2 13.05 87.75 10.0 89.75 10.25 90.9 10.45 97.6 8.25 L102.75 6.5 102.85 7.8 Q102.85 9.3 101.2 11.85 99.6 14.35 97.65 14.9 L95.95 15.15 94.2 15.15 Q93.55 15.2 92.95 16.1 L92.15 17.4 Q90.95 18.95 84.9 20.15 79.1 21.35 74.05 21.3 L70.1 20.55 67.3 19.8 Q65.35 19.75 63.4 21.45 L59.95 25.05 Q55.15 30.35 49.85 30.3 L43.5 29.9 37.7 29.4 Q37.25 29.65 36.75 30.0 L34.65 31.55 Q32.25 33.3 28.4 33.25 L18.75 31.4 Q15.65 30.85 10.25 29.05 L7.05 31.9 Q3.3 34.7 -0.25 34.7 -8.3 34.6 -14.0 31.4 L-17.25 29.15 -18.8 28.2 -20.25 28.65 -22.3 29.0 Q-26.05 29.0 -30.05 25.35 L-32.75 22.8 Q-34.1 21.7 -34.95 21.7 -35.25 21.7 -39.05 23.35 -43.15 25.05 -44.9 25.05 -55.15 24.95 -63.55 18.5 -66.35 16.35 -69.45 13.0 L-73.7 8.35 -77.05 9.95 Q-79.5 10.85 -81.75 10.85 -86.5 10.8 -89.3 9.45 -90.95 8.7 -95.35 5.3 L-95.85 4.95 Q-99.8 2.25 -100.9 0.85 -102.8 -1.5 -102.8 -5.75 -102.8 -7.85 -101.6 -10.0 -100.25 -12.45 -98.8 -12.0 L-98.8 -13.5 Q-99.35 -14.05 -99.35 -14.9 -99.35 -16.75 -97.35 -18.2 M37.7 29.4 L38.6 29.0 37.7 29.4" fill="url(#gradient1)" fill-rule="evenodd" stroke="none"/>
      <path d="M86.5 -9.0 L75.8 -24.45 74.0 -30.65 Q8.6 -28.2 -69.95 -34.65 L-70.9 -25.8 -78.6 -15.5" fill="none" stroke="#000000" stroke-linecap="round" stroke-linejoin="round" stroke-opacity="0.4" stroke-width="1.0"/>
      <path d="M-78.6 -15.5 L-78.0 -14.3 Q-77.15 -12.15 -75.45 -11.55 -72.55 -10.5 -66.25 -5.35 L-60.6 -0.45 -54.85 -2.25 Q-48.75 -4.1 -43.75 -4.05 -32.9 -3.95 -26.65 3.05 -25.15 4.8 -23.3 7.85 -21.95 10.0 -21.45 10.05 L-18.05 9.65 -14.4 9.2 -12.15 9.4 -10.1 9.85 -8.25 10.7 -6.6 9.85 Q1.05 6.2 5.5 6.25 L9.6 6.5 15.3 7.25 Q19.6 7.65 21.25 9.3 L22.35 10.3 24.35 10.7 Q25.7 10.75 27.95 9.25 L32.45 5.9 Q38.8 1.1 42.65 1.15 47.1 1.2 54.1 4.55 60.4 7.9 60.95 7.9 L63.15 4.75 Q65.55 1.4 66.55 0.75 68.75 -0.5 71.1 -1.35 74.15 -2.35 76.35 -2.05 79.1 -1.5 80.8 -2.55 82.5 -3.5 83.55 -6.25 84.15 -7.8 86.5 -9.0 L87.65 -9.55 90.1 -10.35 Q95.9 -10.65 98.7 -8.55 101.7 -6.3 101.7 -2.2 101.7 -1.15 100.95 0.0 100.25 1.15 100.25 1.4 L102.1 3.95 102.75 6.5 102.85 7.8 Q102.85 9.3 101.2 11.85 99.6 14.35 97.65 14.9 L95.95 15.15 94.2 15.15 Q93.55 15.2 92.95 16.1 L92.15 17.4 Q90.95 18.95 84.9 20.15 79.1 21.35 74.05 21.3 L70.1 20.55 67.3 19.8 Q65.35 19.75 63.4 21.45 L59.95 25.05 Q55.15 30.35 49.85 30.3 L43.5 29.9 37.7 29.4 Q37.25 29.65 36.75 30.0 L34.65 31.55 Q32.25 33.3 28.4 33.25 L18.75 31.4 Q15.65 30.85 10.25 29.05 L7.05 31.9 Q3.3 34.7 -0.25 34.7 -8.3 34.6 -14.0 31.4 L-17.25 29.15 -18.8 28.2 -20.25 28.65 -22.3 29.0 Q-26.05 29.0 -30.05 25.35 L-32.75 22.8 Q-34.1 21.7 -34.95 21.7 -35.25 21.7 -39.05 23.35 -43.15 25.05 -44.9 25.05 -55.15 24.95 -63.55 18.5 -66.35 16.35 -69.45 13.0 L-73.7 8.35 -77.05 9.95 Q-79.5 10.85 -81.75 10.85 -86.5 10.8 -89.3 9.45 -90.95 8.7 -95.35 5.3 L-95.85 4.95 Q-99.8 2.25 -100.9 0.85 -102.8 -1.5 -102.8 -5.75 -102.8 -7.85 -101.6 -10.0 -100.25 -12.45 -98.8 -12.0 L-98.8 -13.5 Q-99.35 -14.05 -99.35 -14.9 -99.35 -16.75 -97.35 -18.2 L-96.2 -18.95 Q-93.35 -20.35 -90.45 -20.35 L-85.25 -19.5 Q-81.6 -18.6 -80.6 -17.9 -79.5 -17.1 -78.6 -15.5 M38.6 29.0 L37.7 29.4 M-8.25 10.7 L-11.3 12.3" fill="none" stroke="#000000" stroke-linecap="round" stroke-linejoin="round" stroke-opacity="0.3019608" stroke-width="1.0"/>
      <path d="M75.8 -24.45 Q7.85 -18.35 -70.9 -25.8" fill="none" stroke="#000000" stroke-linecap="round" stroke-linejoin="round" stroke-opacity="0.2" stroke-width="0.7000000000000001"/>
    </g>
    <linearGradient gradientTransform="matrix(0.0, 0.0172, -0.0223, 0.0, 4.05, -4.45)" gradientUnits="userSpaceOnUse" id="gradient0" spreadMethod="pad" x1="-819.2" x2="819.2">
      <stop offset="0.0" stop-color="#cc2020"/>
      <stop offset="1.0" stop-color="#a00000"/>
    </linearGradient>
    <linearGradient gradientTransform="matrix(-0.0048, -0.0378, 0.0319, -0.0041, 2.75, 20.6)" gradientUnits="userSpaceOnUse" id="gradient1" spreadMethod="pad" x1="-819.2" x2="819.2">
      <stop offset="0.0" stop-color="#cccccc"/>
      <stop offset="1.0" stop-color="#ffffff"/>
    </linearGradient>
  </defs>
</svg>
