<?xml version="1.0" encoding="UTF-8" standalone="no"?>
<svg xmlns:xlink="http://www.w3.org/1999/xlink" height="531.5px" width="460.6px" xmlns="http://www.w3.org/2000/svg">
  <g transform="matrix(1.0, 0.0, 0.0, 1.0, 193.65, 334.05)">
    <use height="18.0" transform="matrix(2.0067, 0.0, 0.0, 2.0067, 7.2966, -37.0534)" width="13.8" xlink:href="#sprite0"/>
  </g>
  <defs>
    <g id="sprite0" transform="matrix(1.0, 0.0, 0.0, 1.0, 0.5, 0.5)">
      <use height="18.0" transform="matrix(1.0, 0.0, 0.0, 1.0, -0.5, -0.5)" width="13.8" xlink:href="#shape0"/>
    </g>
    <g id="shape0" transform="matrix(1.0, 0.0, 0.0, 1.0, 0.5, 0.5)">
      <path d="M5.8 6.45 L6.2 5.35 Q6.75 4.35 7.5 4.35 L7.95 4.55 Q8.3 4.8 8.5 5.35 L8.75 6.1 8.9 7.2 8.9 7.7 8.9 8.5 8.6 9.9 8.5 10.05 7.95 10.9 7.5 11.15 Q6.85 11.15 6.35 10.4 L6.2 10.2 5.75 8.9 5.7 7.8 5.75 7.25 5.8 6.45" fill="#000000" fill-rule="evenodd" stroke="none"/>
      <path d="M8.9 7.2 L12.3 7.1 12.8 2.3 M5.8 6.45 L6.2 5.35 Q6.75 4.35 7.5 4.35 L7.95 4.55 Q8.3 4.8 8.5 5.35 L8.75 6.1 11.1 5.3 9.7 0.3 M4.75 0.0 L2.75 4.5 5.8 6.45 5.75 7.25 5.7 7.8 5.75 8.9 6.2 10.2 6.35 10.4 Q6.85 11.15 7.5 11.15 L7.95 10.9 8.5 10.05 8.6 9.9 8.9 8.5 8.9 7.7 8.9 7.2 8.75 6.1 M5.75 7.25 L2.05 7.35 0.0 2.25 M5.75 8.9 L2.25 9.0 0.55 13.95 M6.35 10.4 L3.1 11.95 5.35 16.9 M8.9 8.5 L11.95 9.15 12.5 13.4 M8.6 9.9 L10.65 11.8 8.9 17.0" fill="none" stroke="#000000" stroke-linecap="round" stroke-linejoin="round" stroke-opacity="0.7529412" stroke-width="1.0"/>
    </g>
  </defs>
</svg>
