<?xml version="1.0" encoding="UTF-8" standalone="no"?>
<svg xmlns:xlink="http://www.w3.org/1999/xlink" height="531.5px" width="460.6px" xmlns="http://www.w3.org/2000/svg">
  <g transform="matrix(1.0, 0.0, 0.0, 1.0, 193.65, 334.05)">
    <use height="23.95" transform="matrix(1.9412, 0.0, 0.0, 1.9412, -58.0613, -192.8969)" width="69.3" xlink:href="#sprite0"/>
  </g>
  <defs>
    <g id="sprite0" transform="matrix(1.0, 0.0, 0.0, 1.0, 34.65, 11.95)">
      <use height="23.95" transform="matrix(1.0, 0.0, 0.0, 1.0, -34.65, -11.95)" width="69.3" xlink:href="#shape0"/>
      <use height="22.95" transform="matrix(1.0, 0.0, 0.0, 1.0, -34.15, -11.45)" width="68.3" xlink:href="#sprite1"/>
    </g>
    <g id="shape0" transform="matrix(1.0, 0.0, 0.0, 1.0, 34.65, 11.95)">
      <path d="M21.6 3.45 L16.4 9.65 16.55 7.2 17.15 3.1 17.4 1.5 15.85 4.7 15.8 -1.5 19.95 -3.75 19.85 0.75 Q19.8 2.1 20.3 2.15 L21.15 2.05 21.8 1.9 21.85 1.95 21.6 3.45 M-16.4 9.65 L-21.6 3.45 -21.85 1.95 -21.8 1.9 -21.15 2.05 -20.3 2.15 Q-19.8 2.1 -19.85 0.75 L-19.95 -3.75 -15.8 -1.5 -15.85 4.7 -17.4 1.5 -17.15 3.1 -16.55 7.2 -16.4 9.65" fill="#ebebeb" fill-rule="evenodd" stroke="none"/>
      <path d="M19.95 -3.75 L34.15 -11.45 21.6 3.45 21.85 1.95 21.8 1.9 21.15 2.05 20.3 2.15 Q19.8 2.1 19.85 0.75 L19.95 -3.75 M16.4 9.65 L14.85 11.5 1.85 8.35 1.85 8.8 1.8 9.4 1.55 9.7 1.3 9.4 1.2 8.8 1.25 8.2 0.0 7.9 -1.25 8.2 -1.2 8.8 -1.3 9.4 -1.55 9.7 -1.8 9.4 -1.85 8.8 -1.85 8.35 -14.85 11.5 -16.4 9.65 -16.55 7.2 -17.15 3.1 -17.4 1.5 -15.85 4.7 -15.8 -1.5 -2.05 5.95 2.05 5.95 15.8 -1.5 15.85 4.7 17.4 1.5 17.15 3.1 16.55 7.2 16.4 9.65 M-21.6 3.45 L-34.15 -11.45 -19.95 -3.75 -19.85 0.75 Q-19.8 2.1 -20.3 2.15 L-21.15 2.05 -21.8 1.9 -21.85 1.95 -21.6 3.45" fill="#171717" fill-rule="evenodd" stroke="none"/>
      <path d="M19.95 -3.75 L34.15 -11.45 21.6 3.45 16.4 9.65 14.85 11.5 1.85 8.35 1.85 8.8 1.8 9.4 1.55 9.7 1.3 9.4 1.2 8.8 1.25 8.2 0.0 7.9 -1.25 8.2 -1.2 8.8 -1.3 9.4 -1.55 9.7 -1.8 9.4 -1.85 8.8 -1.85 8.35 -14.85 11.5 -16.4 9.65 -21.6 3.45 -34.15 -11.45 -19.95 -3.75 -15.8 -1.5 -2.05 5.95 2.05 5.95 15.8 -1.5 19.95 -3.75 Z" fill="none" stroke="#000000" stroke-linecap="round" stroke-linejoin="round" stroke-opacity="0.6627451" stroke-width="1.0"/>
    </g>
    <g id="sprite1" transform="matrix(1.0, 0.0, 0.0, 1.0, 34.15, 11.45)">
      <use height="22.95" transform="matrix(1.0, 0.0, 0.0, 1.0, -34.15, -11.45)" width="68.3" xlink:href="#shape1"/>
    </g>
    <g id="shape1" transform="matrix(1.0, 0.0, 0.0, 1.0, 34.15, 11.45)">
      <path d="M1.85 8.8 L1.8 9.4 1.55 9.7 1.3 9.4 1.2 8.8 1.25 8.2 0.0 7.9 -1.25 8.2 -1.2 8.8 -1.3 9.4 -1.55 9.7 -1.8 9.4 -1.85 8.8 -1.85 8.35 -14.85 11.5 -34.15 -11.45 -2.05 5.95 2.05 5.95 34.15 -11.45 14.85 11.5 1.85 8.35 1.85 8.8" fill="url(#gradient0)" fill-rule="evenodd" stroke="none"/>
    </g>
    <linearGradient gradientTransform="matrix(-0.0269, -0.0154, 0.007, -0.0121, -8.05, 4.4)" gradientUnits="userSpaceOnUse" id="gradient0" spreadMethod="pad" x1="-819.2" x2="819.2">
      <stop offset="0.0" stop-color="#000000"/>
      <stop offset="1.0" stop-color="#ffffff"/>
    </linearGradient>
  </defs>
</svg>
