<?xml version="1.0" encoding="UTF-8" standalone="no"?>
<svg xmlns:xlink="http://www.w3.org/1999/xlink" height="531.5px" width="460.6px" xmlns="http://www.w3.org/2000/svg">
  <g transform="matrix(1.0, 0.0, 0.0, 1.0, 193.65, 334.05)">
    <use height="58.15" transform="matrix(1.0, 0.0, 0.0, 1.0, -73.35, -27.0)" width="141.1" xlink:href="#shape0"/>
  </g>
  <defs>
    <g id="shape0" transform="matrix(1.0, 0.0, 0.0, 1.0, 70.55, 29.05)">
      <path d="M-10.35 -21.4 L-3.45 -20.6 6.5 -19.8 21.8 -18.95 Q22.05 -9.25 19.1 -0.25 L4.35 -0.85 -11.45 -2.05 Q-11.9 -12.15 -10.35 -21.4 M64.65 -19.1 L64.65 -21.8 Q69.4 -18.45 70.05 -14.55 L66.85 -11.5 69.4 -6.6 Q67.55 -4.5 65.15 -2.75 L64.2 -2.1 62.25 -1.9 Q64.05 -6.5 63.35 -10.8 65.05 -14.85 64.65 -19.1 M6.5 -19.8 Q6.2 -10.3 4.35 -0.85 6.2 -10.3 6.5 -19.8" fill="#fff1c9" fill-rule="evenodd" stroke="none"/>
      <path d="M65.15 -2.75 Q68.0 9.4 69.5 21.9 64.15 25.5 57.4 26.2 32.5 28.45 7.25 28.5 L6.7 19.4 4.35 19.85 2.2 28.6 -36.3 23.25 Q-36.15 8.85 -32.9 -4.75 L-26.1 -3.75 -11.45 -2.05 4.35 -0.85 19.1 -0.25 34.6 -0.3 48.55 -0.85 62.25 -1.9 64.2 -2.1 65.15 -2.75 M14.2 18.0 L6.7 19.4 14.2 18.0 M-1.95 21.0 L4.35 19.85 -1.95 21.0" fill="url(#gradient0)" fill-rule="evenodd" stroke="none"/>
      <path d="M21.8 -18.95 Q29.85 -18.65 37.85 -18.6 L51.1 -18.7 64.65 -19.1 Q65.05 -14.85 63.35 -10.8 64.05 -6.5 62.25 -1.9 L48.55 -0.85 34.6 -0.3 19.1 -0.25 Q22.05 -9.25 21.8 -18.95 M37.85 -18.6 Q37.25 -9.25 34.6 -0.3 37.25 -9.25 37.85 -18.6 M51.1 -18.7 Q50.4 -9.25 48.55 -0.85 50.4 -9.25 51.1 -18.7" fill="#fff3d3" fill-rule="evenodd" stroke="none"/>
      <path d="M-65.55 -10.95 L-68.35 -11.6 Q-69.5 -13.9 -67.3 -16.75 -69.5 -18.3 -70.05 -21.4 -68.95 -24.3 -64.1 -28.55 L-63.75 -26.75 -59.25 -26.3 -49.7 -25.45 -38.05 -24.35 -25.0 -23.05 -10.35 -21.4 Q-11.9 -12.15 -11.45 -2.05 L-26.1 -3.75 -32.9 -4.75 -38.9 -5.7 -50.7 -7.8 -59.3 -9.55 Q-61.7 -14.15 -61.05 -18.0 -61.9 -22.55 -59.25 -26.3 -61.9 -22.55 -61.05 -18.0 -61.7 -14.15 -59.3 -9.55 L-65.55 -10.95 M-65.75 -15.5 L-67.3 -16.75 -65.75 -15.5 M-49.7 -25.45 Q-53.05 -16.45 -50.7 -7.8 -53.05 -16.45 -49.7 -25.45 M-38.9 -5.7 Q-41.05 -15.8 -38.05 -24.35 -41.05 -15.8 -38.9 -5.7 M-25.0 -23.05 Q-26.75 -13.4 -26.1 -3.75 -26.75 -13.4 -25.0 -23.05" fill="url(#gradient1)" fill-rule="evenodd" stroke="none"/>
      <path d="M-36.3 23.25 L-68.85 18.6 Q-67.7 4.3 -65.55 -10.95 L-59.3 -9.55 -50.7 -7.8 -38.9 -5.7 -32.9 -4.75 Q-36.15 8.85 -36.3 23.25" fill="url(#gradient2)" fill-rule="evenodd" stroke="none"/>
      <path d="M-10.35 -21.4 L-3.45 -20.6 6.5 -19.8 21.8 -18.95 Q29.85 -18.65 37.85 -18.6 L51.1 -18.7 64.65 -19.1 64.65 -21.8 Q69.4 -18.45 70.05 -14.55 L66.85 -11.5 69.4 -6.6 Q67.55 -4.5 65.15 -2.75 68.0 9.4 69.5 21.9 64.15 25.5 57.4 26.2 32.5 28.45 7.25 28.5 L6.7 19.4 4.35 19.85 2.2 28.6 -36.3 23.25 -68.85 18.6 Q-67.7 4.3 -65.55 -10.95 L-68.35 -11.6 Q-69.5 -13.9 -67.3 -16.75 -69.5 -18.3 -70.05 -21.4 -68.95 -24.3 -64.1 -28.55 L-63.75 -26.75 -59.25 -26.3 -49.7 -25.45 -38.05 -24.35 -25.0 -23.05 -10.35 -21.4 Q-11.9 -12.15 -11.45 -2.05 L4.35 -0.85 Q6.2 -10.3 6.5 -19.8 M19.1 -0.25 Q22.05 -9.25 21.8 -18.95 M19.1 -0.25 L34.6 -0.3 Q37.25 -9.25 37.85 -18.6 M4.35 -0.85 L19.1 -0.25 M48.55 -0.85 Q50.4 -9.25 51.1 -18.7 M62.25 -1.9 L64.2 -2.1 65.15 -2.75 M64.65 -19.1 Q65.05 -14.85 63.35 -10.8 64.05 -6.5 62.25 -1.9 L48.55 -0.85 34.6 -0.3 M6.7 19.4 L14.2 18.0 M-67.3 -16.75 L-65.75 -15.5 M-59.3 -9.55 L-50.7 -7.8 Q-53.05 -16.45 -49.7 -25.45 M-59.25 -26.3 Q-61.9 -22.55 -61.05 -18.0 -61.7 -14.15 -59.3 -9.55 L-65.55 -10.95 M-26.1 -3.75 Q-26.75 -13.4 -25.0 -23.05 M-38.05 -24.35 Q-41.05 -15.8 -38.9 -5.7 L-32.9 -4.75 -26.1 -3.75 -11.45 -2.05 M-38.9 -5.7 L-50.7 -7.8 M4.35 19.85 L-1.95 21.0" fill="none" stroke="#000000" stroke-linecap="round" stroke-linejoin="round" stroke-opacity="0.4" stroke-width="1.0"/>
      <path d="M-36.3 23.25 Q-36.15 8.85 -32.9 -4.75" fill="none" stroke="#000000" stroke-linecap="round" stroke-linejoin="round" stroke-opacity="0.2" stroke-width="1.0"/>
      <path d="M19.75 2.95 L18.15 4.5 12.45 -10.85 16.85 -13.2 22.65 0.1 21.4 1.3 19.75 2.95 21.4 1.3 24.95 6.6 22.15 8.9 19.75 2.95 M-8.3 2.95 L-10.0 1.3 -8.3 2.95 -10.75 8.9 -13.55 6.6 -10.0 1.3 -11.2 0.1 -5.4 -13.2 -1.0 -10.85 -6.7 4.5 -8.3 2.95" fill="#ffffff" fill-rule="evenodd" stroke="none"/>
      <path d="M21.4 1.3 L22.65 0.1 16.85 -13.2 12.45 -10.85 18.15 4.5 19.75 2.95 21.4 1.3 24.95 6.6 22.15 8.9 19.75 2.95 M-10.0 1.3 L-8.3 2.95 -6.7 4.5 -1.0 -10.85 -5.4 -13.2 -11.2 0.1 -10.0 1.3 -13.55 6.6 -10.75 8.9 -8.3 2.95 M-5.4 -13.2 L-7.95 -14.6 M12.45 -10.85 L9.45 -9.2 M-1.0 -10.85 L2.0 -9.2 M16.85 -13.2 L19.4 -14.6" fill="none" stroke="#000000" stroke-linecap="round" stroke-linejoin="round" stroke-opacity="0.4" stroke-width="1.0"/>
    </g>
    <linearGradient gradientTransform="matrix(0.0646, 0.0, 0.0, 0.0204, 16.6, 11.9)" gradientUnits="userSpaceOnUse" id="gradient0" spreadMethod="pad" x1="-819.2" x2="819.2">
      <stop offset="0.0" stop-color="#f25bbf"/>
      <stop offset="1.0" stop-color="#fc8dd6"/>
    </linearGradient>
    <linearGradient gradientTransform="matrix(-0.0238, -0.0064, 0.003, -0.0112, -48.05, -19.75)" gradientUnits="userSpaceOnUse" id="gradient1" spreadMethod="pad" x1="-819.2" x2="819.2">
      <stop offset="0.0" stop-color="#fff1c9"/>
      <stop offset="1.0" stop-color="#e2d2a2"/>
    </linearGradient>
    <linearGradient gradientTransform="matrix(-0.0219, 0.0, 0.0, -0.0209, -50.9, 6.15)" gradientUnits="userSpaceOnUse" id="gradient2" spreadMethod="pad" x1="-819.2" x2="819.2">
      <stop offset="0.0" stop-color="#7fffc7"/>
      <stop offset="1.0" stop-color="#80d3ae"/>
    </linearGradient>
  </defs>
</svg>
