<?xml version="1.0" encoding="UTF-8" standalone="no"?>
<svg xmlns:xlink="http://www.w3.org/1999/xlink" height="531.5px" width="460.6px" xmlns="http://www.w3.org/2000/svg">
  <g transform="matrix(1.0, 0.0, 0.0, 1.0, 193.65, 334.05)">
    <use height="42.4" transform="matrix(1.0, 0.0, 0.0, 1.0, -6.3, -181.45)" width="77.6" xlink:href="#shape0"/>
  </g>
  <defs>
    <g id="shape0" transform="matrix(1.0, 0.0, 0.0, 1.0, 6.3, 181.45)">
      <path d="M36.5 -165.95 L37.0 -163.85 36.5 -165.95 M37.0 -163.85 Q35.4 -163.55 34.05 -162.45 32.9 -161.35 32.5 -160.1 32.15 -159.25 32.15 -158.35 L32.25 -157.45 29.9 -157.0 Q25.9 -159.35 22.2 -160.35 L20.1 -160.85 Q20.85 -162.55 22.7 -164.6 L24.2 -164.9 24.45 -164.95 Q30.9 -166.4 40.6 -170.4 42.5 -171.25 44.45 -171.75 L46.2 -172.15 47.1 -172.3 50.3 -172.55 53.3 -172.4 54.8 -172.15 57.25 -171.5 Q62.1 -169.7 66.2 -165.2 79.55 -153.1 54.3 -140.8 50.8 -139.35 45.5 -139.55 48.55 -141.7 49.95 -143.45 52.2 -146.15 52.2 -150.25 52.2 -154.75 49.05 -156.7 47.6 -157.5 45.35 -157.95 L45.35 -158.35 Q45.35 -160.7 43.35 -162.45 L43.25 -162.55 Q41.35 -164.1 38.75 -164.1 L38.1 -164.05 37.0 -163.85 M44.25 -164.1 L43.25 -162.55 44.25 -164.1 M30.3 -161.35 L32.5 -160.1 30.3 -161.35 M19.5 -159.2 L19.45 -158.85 19.45 -159.0 19.5 -159.2" fill="#cccccc" fill-rule="evenodd" stroke="none"/>
      <path d="M37.0 -163.85 L38.1 -164.05 38.75 -164.1 Q41.35 -164.1 43.25 -162.55 L43.35 -162.45 Q45.35 -160.7 45.35 -158.35 L45.35 -157.95 Q45.2 -155.75 43.35 -154.25 L42.2 -153.4 Q40.35 -153.65 39.0 -154.95 37.1 -156.7 37.1 -159.45 L37.25 -161.3 37.4 -162.05 37.0 -163.85 M42.45 -161.2 L43.25 -162.55 42.45 -161.2 M24.2 -164.9 L22.7 -164.6 18.95 -164.2 18.1 -164.2 14.6 -164.1 Q14.25 -164.6 14.15 -165.3 14.0 -165.9 14.0 -166.7 L14.15 -168.15 14.5 -168.2 Q16.0 -168.4 17.35 -168.2 19.45 -168.15 21.2 -167.4 22.7 -166.7 23.6 -165.7 L24.2 -164.9 M50.3 -172.55 L49.85 -174.05 49.8 -174.3 49.7 -175.4 Q49.7 -176.6 50.05 -177.5 L50.2 -177.65 50.85 -177.75 Q52.55 -177.75 53.9 -177.15 L55.4 -176.25 56.3 -175.35 Q57.3 -174.05 57.3 -172.4 L57.25 -171.5 54.8 -172.15 53.3 -172.4 50.3 -172.55" fill="#669966" fill-rule="evenodd" stroke="none"/>
      <path d="M32.5 -160.1 Q32.9 -161.35 34.05 -162.45 35.4 -163.55 37.0 -163.85 L37.4 -162.05 37.25 -161.3 37.1 -159.45 Q37.1 -156.7 39.0 -154.95 40.35 -153.65 42.2 -153.4 40.65 -152.6 38.75 -152.6 36.1 -152.6 34.05 -154.25 32.5 -155.6 32.25 -157.45 L32.15 -158.35 Q32.15 -159.25 32.5 -160.1 L35.3 -158.5 32.5 -160.1 M44.45 -171.75 L44.35 -172.4 Q44.35 -174.65 46.2 -176.25 47.45 -177.25 49.05 -177.6 L50.2 -177.65 50.05 -177.5 Q49.7 -176.6 49.7 -175.4 L49.8 -174.3 49.85 -174.05 50.3 -172.55 47.1 -172.3 46.2 -172.15 44.45 -171.75 M14.15 -168.15 L14.0 -166.7 Q14.0 -165.9 14.15 -165.3 14.25 -164.6 14.6 -164.1 L11.25 -163.8 6.25 -162.8 Q6.3 -164.55 8.15 -165.95 9.4 -166.9 11.0 -167.45 L14.15 -168.15" fill="#427542" fill-rule="evenodd" stroke="none"/>
      <path d="M6.0 -147.4 Q2.3 -149.0 2.55 -150.5 2.8 -152.0 6.75 -152.75 10.75 -153.4 16.25 -152.65 21.6 -152.1 25.2 -150.5 28.9 -148.8 28.65 -147.3 28.45 -145.8 24.45 -145.15 20.45 -144.45 15.1 -145.15 9.65 -145.8 6.0 -147.4" fill="#172617" fill-rule="evenodd" stroke="none"/>
      <path d="M42.2 -153.4 L43.35 -154.25 Q45.2 -155.75 45.35 -157.95 47.6 -157.5 49.05 -156.7 52.2 -154.75 52.2 -150.25 52.2 -146.15 49.95 -143.45 48.55 -141.7 45.5 -139.55 38.15 -139.9 27.45 -143.45 13.4 -143.05 -5.8 -149.0 -4.9 -159.6 6.25 -162.8 L11.25 -163.8 14.6 -164.1 18.1 -164.2 18.95 -164.2 22.7 -164.6 Q20.85 -162.55 20.1 -160.85 L22.2 -160.35 Q25.9 -159.35 29.9 -157.0 L32.25 -157.45 Q32.5 -155.6 34.05 -154.25 36.1 -152.6 38.75 -152.6 40.65 -152.6 42.2 -153.4 M3.4 -157.7 Q5.65 -159.1 8.0 -159.95 13.75 -162.1 20.1 -160.85 13.75 -162.1 8.0 -159.95 5.65 -159.1 3.4 -157.7 M19.5 -159.2 L19.45 -159.0 19.45 -158.85 19.5 -159.2 M6.0 -147.4 Q9.65 -145.8 15.1 -145.15 20.45 -144.45 24.45 -145.15 28.45 -145.8 28.65 -147.3 28.9 -148.8 25.2 -150.5 21.6 -152.1 16.25 -152.65 10.75 -153.4 6.75 -152.75 2.8 -152.0 2.55 -150.5 2.3 -149.0 6.0 -147.4" fill="url(#gradient0)" fill-rule="evenodd" stroke="none"/>
      <path d="M37.0 -163.85 L36.5 -165.95 M32.5 -160.1 Q32.9 -161.35 34.05 -162.45 35.4 -163.55 37.0 -163.85 L38.1 -164.05 38.75 -164.1 Q41.35 -164.1 43.25 -162.55 L44.25 -164.1 M37.0 -163.85 L37.4 -162.05 M42.2 -153.4 L43.35 -154.25 Q45.2 -155.75 45.35 -157.95 L45.35 -158.35 Q45.35 -160.7 43.35 -162.45 L43.25 -162.55 42.45 -161.2 M24.2 -164.9 L24.45 -164.95 Q30.9 -166.4 40.6 -170.4 42.5 -171.25 44.45 -171.75 L44.35 -172.4 Q44.35 -174.65 46.2 -176.25 47.45 -177.25 49.05 -177.6 L48.35 -180.95 M22.7 -164.6 L24.2 -164.9 23.6 -165.7 Q22.7 -166.7 21.2 -167.4 19.45 -168.15 17.35 -168.2 16.0 -168.4 14.5 -168.2 L14.15 -168.15 11.0 -167.45 9.55 -170.4 M18.95 -164.2 L22.7 -164.6 M20.1 -160.85 L22.2 -160.35 Q25.9 -159.35 29.9 -157.0 M32.25 -157.45 L32.15 -158.35 Q32.15 -159.25 32.5 -160.1 L30.3 -161.35 M50.2 -177.65 L49.05 -177.6 M53.3 -172.4 L54.8 -172.15 57.25 -171.5 57.3 -172.4 Q57.3 -174.05 56.3 -175.35 L55.4 -176.25 53.9 -177.15 Q52.55 -177.75 50.85 -177.75 L50.2 -177.65 M44.45 -171.75 L46.2 -172.15 47.1 -172.3 M57.25 -171.5 Q62.1 -169.7 66.2 -165.2 79.55 -153.1 54.3 -140.8 50.8 -139.35 45.5 -139.55 38.15 -139.9 27.45 -143.45 13.4 -143.05 -5.8 -149.0 -4.9 -159.6 6.25 -162.8 6.3 -164.55 8.15 -165.95 9.4 -166.9 11.0 -167.45 M56.3 -175.35 L57.9 -176.4 M53.9 -177.15 L56.4 -180.25 M6.25 -162.8 L11.25 -163.8 M17.35 -168.2 L17.25 -170.05 M20.1 -160.85 Q13.75 -162.1 8.0 -159.95 5.65 -159.1 3.4 -157.7 M6.0 -147.4 Q2.3 -149.0 2.55 -150.5 2.8 -152.0 6.75 -152.75 10.75 -153.4 16.25 -152.65 21.6 -152.1 25.2 -150.5 28.9 -148.8 28.65 -147.3 28.45 -145.8 24.45 -145.15 20.45 -144.45 15.1 -145.15 9.65 -145.8 6.0 -147.4 M42.2 -153.4 Q40.65 -152.6 38.75 -152.6 36.1 -152.6 34.05 -154.25 32.5 -155.6 32.25 -157.45 M32.5 -160.1 L35.3 -158.5" fill="none" stroke="#000000" stroke-linecap="round" stroke-linejoin="round" stroke-opacity="0.5019608" stroke-width="1.0"/>
    </g>
    <linearGradient gradientTransform="matrix(-0.0342, 0.0092, -0.004, -0.0148, 14.35, -151.5)" gradientUnits="userSpaceOnUse" id="gradient0" spreadMethod="pad" x1="-819.2" x2="819.2">
      <stop offset="0.0" stop-color="#999999"/>
      <stop offset="1.0" stop-color="#666666"/>
    </linearGradient>
  </defs>
</svg>
