<?xml version="1.0" encoding="UTF-8" standalone="no"?>
<svg xmlns:xlink="http://www.w3.org/1999/xlink" height="531.5px" width="460.6px" xmlns="http://www.w3.org/2000/svg">
  <g transform="matrix(1.0, 0.0, 0.0, 1.0, 193.65, 334.05)">
    <use height="16.55" transform="matrix(1.0, 0.0, 0.0, 1.0, 14.1, -130.65)" width="20.45" xlink:href="#shape0"/>
  </g>
  <defs>
    <g id="shape0" transform="matrix(1.0, 0.0, 0.0, 1.0, -14.1, 130.65)">
      <path d="M24.5 -125.5 Q25.65 -125.1 26.15 -124.1 26.65 -123.05 26.25 -121.95 25.85 -120.8 24.85 -120.3 L22.7 -120.15 16.55 -122.25 Q15.4 -122.65 14.9 -123.7 14.4 -124.7 14.8 -125.85 15.2 -126.95 16.2 -127.5 L18.35 -127.6 24.5 -125.5" fill="#666666" fill-rule="evenodd" stroke="none"/>
      <path d="M24.5 -125.5 L18.35 -127.6 16.2 -127.5 Q15.2 -126.95 14.8 -125.85 14.4 -124.7 14.9 -123.7 15.4 -122.65 16.55 -122.25 L22.7 -120.15 24.85 -120.3 Q25.85 -120.8 26.25 -121.95 26.65 -123.05 26.15 -124.1 25.65 -125.1 24.5 -125.5 Z" fill="none" stroke="#000000" stroke-linecap="round" stroke-linejoin="round" stroke-opacity="0.44313726" stroke-width="1.0"/>
      <path d="M29.1 -126.55 Q28.2 -126.1 27.85 -125.1 27.55 -124.1 27.95 -123.2 28.45 -122.2 29.45 -121.9 L31.35 -122.05 Q32.3 -122.45 32.6 -123.45 32.95 -124.45 32.5 -125.4 32.1 -126.3 31.1 -126.65 L29.1 -126.55 M32.65 -117.85 Q30.05 -117.0 27.3 -117.9 24.2 -118.95 22.65 -122.05 21.15 -125.05 22.25 -128.25 L22.65 -129.25 22.85 -129.35 Q25.8 -130.7 28.75 -129.7 31.8 -128.65 33.2 -125.85 34.65 -122.85 33.65 -119.9 L32.65 -117.85" fill="#999999" fill-rule="evenodd" stroke="none"/>
      <path d="M29.1 -126.55 L31.1 -126.65 Q32.1 -126.3 32.5 -125.4 32.95 -124.45 32.6 -123.45 32.3 -122.45 31.35 -122.05 L29.45 -121.9 Q28.45 -122.2 27.95 -123.2 27.55 -124.1 27.85 -125.1 28.2 -126.1 29.1 -126.55" fill="#ffffff" fill-rule="evenodd" stroke="none"/>
      <path d="M22.65 -129.25 L22.25 -128.25 Q21.15 -125.05 22.65 -122.05 24.2 -118.95 27.3 -117.9 30.05 -117.0 32.65 -117.85 31.55 -116.3 29.7 -115.5 26.85 -114.0 23.8 -115.05 20.85 -116.05 19.35 -119.0 17.95 -121.85 19.0 -124.9 19.95 -127.8 22.65 -129.25" fill="#666666" fill-rule="evenodd" stroke="none"/>
      <path d="M22.65 -129.25 Q19.95 -127.8 19.0 -124.9 17.95 -121.85 19.35 -119.0 20.85 -116.05 23.8 -115.05 26.85 -114.0 29.7 -115.5 31.55 -116.3 32.65 -117.85 L33.65 -119.9 Q34.65 -122.85 33.2 -125.85 31.8 -128.65 28.75 -129.7 25.8 -130.7 22.85 -129.35 L22.65 -129.25 Z" fill="none" stroke="#000000" stroke-linecap="round" stroke-linejoin="round" stroke-opacity="0.4" stroke-width="1.0"/>
    </g>
  </defs>
</svg>
