<?xml version="1.0" encoding="UTF-8" standalone="no"?>
<svg xmlns:xlink="http://www.w3.org/1999/xlink" height="531.5px" width="460.6px" xmlns="http://www.w3.org/2000/svg">
  <g transform="matrix(1.0, 0.0, 0.0, 1.0, 193.65, 334.05)">
    <use height="101.55" transform="matrix(1.0, 0.0, 0.0, 1.0, -96.5, -88.05)" width="203.1" xlink:href="#shape0"/>
  </g>
  <defs>
    <g id="shape0" transform="matrix(1.0, 0.0, 0.0, 1.0, 96.5, 88.05)">
      <path d="M38.8 -44.85 L33.25 -51.1 Q27.6 -59.6 23.55 -67.95 30.85 -61.25 36.9 -53.65 42.85 -45.15 47.15 -37.2 L46.25 -37.9 Q42.5 -41.0 38.8 -44.85" fill="#720000" fill-rule="evenodd" stroke="none"/>
      <path d="M46.25 -37.9 L46.35 -36.9 46.0 -33.1 Q45.7 -29.65 45.7 -27.35 45.8 -17.2 44.1 -17.2 43.7 -17.2 43.1 -20.7 42.45 -24.25 41.9 -24.25 41.55 -24.25 41.1 -23.0 40.6 -21.8 40.2 -21.8 39.05 -21.8 39.05 -26.5 L39.35 -36.35 39.1 -42.9 38.8 -44.85 Q42.5 -41.0 46.25 -37.9 M1.1 -45.8 Q0.95 -44.25 0.3 -44.25 -0.4 -44.25 -1.85 -45.25 -3.35 -46.2 -3.75 -46.2 -4.95 -46.2 -5.95 -41.35 -7.1 -36.5 -8.1 -36.5 -10.4 -36.5 -11.15 -43.9 -11.85 -51.25 -12.9 -51.25 L-14.05 -50.6 Q-14.85 -50.0 -15.25 -50.0 -15.9 -50.0 -16.3 -54.85 L-16.75 -60.4 -11.2 -54.25 Q-5.5 -49.5 1.1 -45.8 M-32.25 -23.55 L-19.8 -26.55 -18.5 -26.95 -19.3 -24.05 Q-20.0 -20.3 -21.55 -20.3 -22.55 -20.3 -23.6 -21.5 -24.7 -22.7 -25.5 -22.7 -26.85 -22.7 -27.9 -20.15 -29.0 -17.6 -29.95 -17.6 -31.35 -17.6 -31.75 -19.85 -32.0 -22.3 -32.25 -22.85 L-32.25 -23.55 M-9.15 2.8 L-9.3 3.9 Q-9.6 5.4 -10.65 5.4 L-12.55 4.85 -14.55 4.3 Q-15.5 4.3 -16.05 5.55 -16.7 7.1 -17.65 7.5 -18.2 6.35 -18.45 3.85 L-18.6 0.5 -9.15 2.8" fill="#930707" fill-rule="evenodd" stroke="none"/>
      <path d="M-16.75 -60.4 Q-20.75 -65.0 -24.0 -69.75 -15.8 -66.5 -7.1 -59.9 0.05 -52.15 5.2 -43.65 3.1 -44.65 1.1 -45.8 -5.5 -49.5 -11.2 -54.25 L-16.75 -60.4 M-18.5 -26.95 L-19.8 -26.55 -32.25 -23.55 -34.65 -23.1 -32.3 -24.2 Q-27.15 -26.75 -20.65 -29.1 -12.9 -31.2 -5.8 -32.3 -12.1 -29.35 -18.5 -26.95 M-18.6 0.5 L-25.9 -1.9 Q-35.0 -6.4 -42.65 -11.65 -33.05 -9.6 -24.0 -6.0 -14.55 -1.65 -6.95 3.2 L-9.15 2.8 -18.6 0.5" fill="#490000" fill-rule="evenodd" stroke="none"/>
      <path d="M38.8 -44.85 L33.25 -51.1 Q27.6 -59.6 23.55 -67.95 30.85 -61.25 36.9 -53.65 42.85 -45.15 47.15 -37.2 L46.25 -37.9 M-16.75 -60.4 Q-20.75 -65.0 -24.0 -69.75 -15.8 -66.5 -7.1 -59.9 0.05 -52.15 5.2 -43.65 3.1 -44.65 1.1 -45.8 M-18.5 -26.95 Q-12.1 -29.35 -5.8 -32.3 -12.9 -31.2 -20.65 -29.1 -27.15 -26.75 -32.3 -24.2 L-34.65 -23.1 -32.25 -23.55 M-18.6 0.5 L-25.9 -1.9 Q-35.0 -6.4 -42.65 -11.65 -33.05 -9.6 -24.0 -6.0 -14.55 -1.65 -6.95 3.2 L-9.15 2.8" fill="none" stroke="#000000" stroke-linecap="round" stroke-linejoin="round" stroke-opacity="0.4" stroke-width="0.5"/>
      <path d="M24.6 -12.05 Q20.2 -2.6 15.4 5.0 16.85 -3.65 20.45 -13.9 25.0 -23.1 30.25 -30.75 28.1 -21.05 24.6 -12.05" fill="#490000" fill-rule="evenodd" stroke="none"/>
      <path d="M24.6 -12.05 Q20.2 -2.6 15.4 5.0 16.85 -3.65 20.45 -13.9 25.0 -23.1 30.25 -30.75 28.1 -21.05 24.6 -12.05 Z" fill="none" stroke="#000000" stroke-linecap="round" stroke-linejoin="round" stroke-opacity="0.4" stroke-width="0.5"/>
      <path d="M30.8 -3.05 L19.75 -5.6 18.95 -5.75 21.05 -9.95 28.0 -7.8 28.55 -7.0 30.8 -3.05" fill="#e1e1e1" fill-rule="evenodd" stroke="none"/>
      <path d="M24.45 -17.15 L25.65 -19.7 39.05 -14.25 Q37.6 -12.9 36.1 -12.25 L35.0 -12.7 Q32.8 -13.65 30.65 -14.85 30.25 -15.0 30.0 -15.25 L24.45 -17.15" fill="#404040" fill-rule="evenodd" stroke="none"/>
      <path d="M23.4 -15.0 L24.45 -17.15 30.0 -15.25 Q30.25 -15.0 30.65 -14.85 32.8 -13.65 35.0 -12.7 L36.1 -12.25 Q34.9 -11.75 33.65 -11.75 L32.0 -11.6 26.1 -10.95 23.4 -15.0 M46.35 -11.2 L49.2 -10.1 48.75 -8.6 48.1 -8.9 Q46.9 -9.95 46.35 -11.2" fill="#333333" fill-rule="evenodd" stroke="none"/>
      <path d="M21.05 -9.95 L23.4 -15.0 26.1 -10.95 28.0 -7.8 21.05 -9.95" fill="#666666" fill-rule="evenodd" stroke="none"/>
      <path d="M39.05 -14.25 L46.35 -11.2 Q46.9 -9.95 48.1 -8.9 L48.75 -8.6 46.65 -2.4 28.0 -7.8 26.1 -10.95 32.0 -11.6 33.65 -11.75 Q34.9 -11.75 36.1 -12.25 37.6 -12.9 39.05 -14.25" fill="#1e1e1e" fill-rule="evenodd" stroke="none"/>
      <path d="M45.7 0.45 L30.8 -3.05 28.55 -7.0 28.0 -7.8 46.65 -2.4 45.7 0.45" fill="#bbbbbb" fill-rule="evenodd" stroke="none"/>
      <path d="M55.5 -7.9 L56.05 -7.7 54.85 -5.75 55.95 -5.6 Q56.05 -5.5 56.2 -5.5 L54.5 -0.5 54.5 -0.6 Q53.55 -1.45 53.55 -2.3 L54.15 -3.65 Q54.15 -4.4 54.45 -5.0 L54.45 -5.1 54.6 -5.8 55.5 -7.9 M45.65 0.7 L45.7 0.45 46.65 -2.4 48.75 -8.6 49.3 -8.65 51.25 -8.75 Q52.0 -8.5 51.85 -7.55 51.75 -7.3 52.0 -7.0 L51.6 -6.3 50.95 -5.1 49.45 -2.15 48.25 -0.35 Q47.2 0.75 46.45 0.7 L45.65 0.7 M52.2 -6.85 L52.15 -6.9 52.0 -7.0 52.7 -8.45 52.2 -6.85 M57.85 -5.1 L58.95 -4.95 59.5 -4.8 58.25 1.55 56.5 0.85 57.85 -5.1 M64.3 -3.25 L61.75 3.1 59.7 2.3 61.5 -4.25 62.55 -4.0 64.3 -3.25 M63.8 3.8 L64.9 -3.05 66.85 -2.3 65.55 4.4 63.8 3.8 M68.75 -1.6 L69.15 -1.55 71.1 -0.8 69.15 5.6 68.5 5.45 67.0 5.05 66.85 5.0 68.75 -1.6 M81.25 3.15 L79.5 9.1 78.4 8.8 79.7 2.45 81.25 3.15 M79.05 2.2 L76.85 8.4 75.4 7.9 77.0 1.4 77.2 1.5 79.05 2.2 M73.8 7.35 Q73.35 7.05 72.6 6.8 L70.95 6.25 72.8 -0.2 74.75 0.6 73.8 7.35" fill="#cc9933" fill-rule="evenodd" stroke="none"/>
      <path d="M49.2 -10.1 L49.3 -10.25 Q51.65 -12.95 52.95 -9.45 L52.8 -8.75 52.7 -8.45 52.0 -7.0 Q51.75 -7.3 51.85 -7.55 52.0 -8.5 51.25 -8.75 L49.3 -8.65 48.75 -8.6 49.2 -10.1 M56.05 -7.7 L56.85 -7.5 56.2 -5.5 Q56.05 -5.5 55.95 -5.6 L54.85 -5.75 56.05 -7.7 M58.15 -7.0 L59.85 -6.45 59.5 -4.8 58.95 -4.95 57.85 -5.1 58.15 -7.0 M62.0 -5.8 L65.0 -4.85 64.3 -3.25 62.55 -4.0 61.5 -4.25 62.0 -5.8 M65.25 -4.85 L67.2 -4.15 66.85 -2.3 64.9 -3.05 65.25 -4.85 M69.3 -3.6 L71.75 -2.9 71.1 -0.8 69.15 -1.55 68.75 -1.6 69.3 -3.6 M73.4 -2.3 L75.15 -1.75 74.75 0.6 72.8 -0.2 73.4 -2.3 M77.55 -1.05 L80.0 -0.25 79.05 2.2 77.2 1.5 77.0 1.4 77.55 -1.05 M80.25 -0.2 L82.15 0.45 81.25 3.15 79.7 2.45 80.25 -0.2" fill="#daac69" fill-rule="evenodd" stroke="none"/>
      <path d="M78.4 13.15 L78.35 13.25 77.6 12.85 78.4 8.8 79.5 9.1 78.4 13.15 M75.5 12.1 L74.6 11.8 75.4 7.9 76.85 8.4 75.5 12.1 M73.35 11.25 L69.85 9.9 70.95 6.25 72.6 6.8 Q73.35 7.05 73.8 7.35 L73.35 11.25 M68.1 9.2 L65.85 8.4 66.85 5.0 67.0 5.05 68.5 5.45 69.15 5.6 68.1 9.2 M64.9 7.9 L63.25 7.2 63.8 3.8 65.55 4.4 64.9 7.9 M60.55 6.25 L58.75 5.55 59.7 2.3 61.75 3.1 60.55 6.25 M57.6 5.05 L55.8 4.35 56.5 0.85 58.25 1.55 57.6 5.05 M53.35 3.4 L51.45 2.6 54.45 -5.1 54.45 -5.0 Q54.15 -4.4 54.15 -3.65 L53.55 -2.3 Q53.55 -1.45 54.5 -0.6 L54.5 -0.5 53.35 3.4 M49.75 1.95 L49.5 2.9 Q46.6 5.0 45.3 1.8 L45.65 0.7 46.45 0.7 Q47.2 0.75 48.25 -0.35 L49.45 -2.15 50.95 -5.1 51.6 -6.3 52.0 -7.0 52.15 -6.9 52.2 -6.85 49.75 1.95" fill="#aa772b" fill-rule="evenodd" stroke="none"/>
      <path d="M56.85 -7.5 L58.15 -7.0 57.85 -5.1 56.2 -5.5 56.85 -7.5 M59.85 -6.45 L62.0 -5.8 61.5 -4.25 59.7 -4.8 59.5 -4.8 59.85 -6.45 M65.0 -4.85 L65.25 -4.85 64.9 -3.05 64.3 -3.25 65.0 -4.85 M67.2 -4.15 L69.3 -3.6 68.75 -1.6 66.85 -2.3 67.2 -4.15 M71.75 -2.9 L73.4 -2.3 72.8 -0.2 71.1 -0.8 71.75 -2.9 M75.15 -1.75 L77.55 -1.05 77.0 1.4 74.75 0.6 75.15 -1.75 M80.0 -0.25 L80.25 -0.2 79.7 2.45 79.05 2.2 80.0 -0.25 M82.15 0.45 L82.7 0.6 Q83.35 1.35 83.0 2.75 L82.8 3.65 82.3 3.45 81.25 3.15 82.15 0.45" fill="#aa912b" fill-rule="evenodd" stroke="none"/>
      <path d="M52.8 -8.75 L52.85 -8.65 55.5 -7.9 54.6 -5.8 53.35 -6.2 52.2 -6.85 52.7 -8.45 52.8 -8.75 M82.8 3.65 L81.2 9.5 80.65 9.35 79.5 9.1 81.25 3.15 82.3 3.45 82.8 3.65 M54.5 -0.5 L56.2 -5.5 57.85 -5.1 56.5 0.85 55.4 0.2 54.5 -0.5 M58.25 1.55 L59.5 -4.8 59.7 -4.8 61.5 -4.25 59.7 2.3 58.25 1.55 M64.3 -3.25 L64.9 -3.05 63.8 3.8 63.5 3.7 61.75 3.1 64.3 -3.25 M68.75 -1.6 L66.85 5.0 65.55 4.4 66.85 -2.3 68.75 -1.6 M69.15 5.6 L71.1 -0.8 72.8 -0.2 70.95 6.25 Q70.15 5.95 69.15 5.6 M79.05 2.2 L79.7 2.45 78.4 8.8 76.85 8.4 79.05 2.2 M77.0 1.4 L75.4 7.9 75.4 7.85 73.8 7.35 74.75 0.6 77.0 1.4" fill="#967e25" fill-rule="evenodd" stroke="none"/>
      <path d="M81.2 9.5 L80.65 11.25 Q79.75 12.6 78.4 13.15 L79.5 9.1 80.65 9.35 81.2 9.5 M77.6 12.85 L75.5 12.1 76.85 8.4 78.4 8.8 77.6 12.85 M74.6 11.8 L73.35 11.25 73.8 7.35 75.4 7.85 75.4 7.9 74.6 11.8 M69.85 9.9 L68.1 9.2 69.15 5.6 Q70.15 5.95 70.95 6.25 L69.85 9.9 M65.85 8.4 L64.9 7.9 65.55 4.4 66.85 5.0 65.85 8.4 M63.25 7.2 L60.55 6.25 61.75 3.1 63.5 3.7 63.8 3.8 63.25 7.2 M58.75 5.55 L57.6 5.05 58.25 1.55 59.7 2.3 58.75 5.55 M55.8 4.35 L53.35 3.4 54.5 -0.5 55.4 0.2 56.5 0.85 55.8 4.35 M51.45 2.6 L49.75 1.95 52.2 -6.85 53.35 -6.2 54.6 -5.8 54.45 -5.1 51.45 2.6" fill="#7a671f" fill-rule="evenodd" stroke="none"/>
      <path d="M30.8 -3.05 L19.75 -5.6 18.95 -5.75 M25.65 -19.7 L39.05 -14.25 46.35 -11.2 49.2 -10.1 49.3 -10.25 Q51.65 -12.95 52.95 -9.45 L52.8 -8.75 52.85 -8.65 55.5 -7.9 56.05 -7.7 56.85 -7.5 58.15 -7.0 59.85 -6.45 62.0 -5.8 65.0 -4.85 65.25 -4.85 67.2 -4.15 69.3 -3.6 71.75 -2.9 73.4 -2.3 75.15 -1.75 77.55 -1.05 80.0 -0.25 80.25 -0.2 82.15 0.45 82.7 0.6 Q83.35 1.35 83.0 2.75 L82.8 3.65 81.2 9.5 80.65 11.25 Q79.75 12.6 78.4 13.15 L78.35 13.25 77.6 12.85 75.5 12.1 74.6 11.8 73.35 11.25 69.85 9.9 68.1 9.2 65.85 8.4 64.9 7.9 63.25 7.2 60.55 6.25 58.75 5.55 57.6 5.05 55.8 4.35 53.35 3.4 51.45 2.6 49.75 1.95 49.5 2.9 Q46.6 5.0 45.3 1.8 L45.65 0.7 45.7 0.45 30.8 -3.05 M28.0 -7.8 L21.05 -9.95 M48.75 -8.6 L46.65 -2.4 45.7 0.45 M48.75 -8.6 L49.2 -10.1 M52.8 -8.75 L52.7 -8.45 52.2 -6.85 49.75 1.95 M28.0 -7.8 L46.65 -2.4 M81.25 3.15 L82.15 0.45 M81.25 3.15 L79.5 9.1 78.4 13.15" fill="none" stroke="#000000" stroke-linecap="round" stroke-linejoin="round" stroke-opacity="0.4" stroke-width="0.5"/>
      <path d="M72.6 -73.3 L71.1 -73.1 68.1 -75.6 67.4 -76.2 65.7 -77.4 65.1 -78.05 Q64.7 -78.5 64.3 -78.45 63.4 -78.65 62.8 -78.45 L61.25 -77.9 61.1 -77.8 58.25 -80.1 Q57.85 -82.0 60.0 -82.55 63.25 -81.2 65.0 -80.0 67.85 -78.2 70.3 -75.75 L72.15 -73.65 72.6 -73.3 M85.5 -77.7 L84.75 -79.05 92.6 -83.75 Q94.5 -84.8 96.45 -84.8 105.1 -84.0 106.2 -78.3 L104.6 -79.3 Q103.2 -80.2 101.6 -80.6 L94.7 -81.05 93.95 -80.95 92.55 -80.75 Q90.8 -80.4 89.15 -79.6 88.2 -79.3 87.4 -78.75 L85.5 -77.7" fill="#827468" fill-rule="evenodd" stroke="none"/>
      <path d="M61.1 -77.8 L61.25 -77.9 62.8 -78.45 Q63.4 -78.65 64.3 -78.45 64.7 -78.5 65.1 -78.05 L65.7 -77.4 67.4 -76.2 68.1 -75.6 71.1 -73.1 72.6 -73.3 74.9 -70.1 75.4 -69.45 75.0 -69.8 Q75.25 -67.8 75.8 -66.3 L76.5 -64.05 77.8 -61.2 Q78.25 -59.05 78.15 -57.4 L77.7 -55.9 Q77.2 -55.2 76.5 -55.35 L74.15 -55.75 74.15 -55.8 73.4 -58.05 71.75 -62.9 Q69.35 -69.0 65.85 -73.3 L61.1 -77.8 M85.5 -77.7 L87.4 -78.75 Q88.2 -79.3 89.15 -79.6 90.8 -80.4 92.55 -80.75 L93.95 -80.95 94.7 -81.05 101.6 -80.6 Q103.2 -80.2 104.6 -79.3 L106.2 -78.3 Q106.45 -77.1 106.25 -75.9 L103.4 -75.4 Q101.65 -75.25 100.25 -75.9 L96.45 -77.25 94.85 -77.25 94.05 -76.95 93.4 -75.95 Q92.95 -75.35 92.95 -74.85 92.85 -74.15 93.2 -73.35 L89.35 -71.85 85.5 -77.7" fill="#47392f" fill-rule="evenodd" stroke="none"/>
      <path d="M76.5 -73.05 L75.3 -74.6 79.05 -76.15 82.6 -77.8 83.25 -76.45 82.6 -77.8 84.75 -79.05 85.5 -77.7 83.25 -76.45 81.45 -75.25 80.15 -74.3 79.45 -74.05 78.8 -73.6 Q78.0 -73.1 77.2 -72.95 L76.5 -73.05 M80.15 -74.3 L79.05 -76.15 80.15 -74.3" fill="#602d17" fill-rule="evenodd" stroke="none"/>
      <path d="M72.6 -73.3 L72.15 -73.65 70.3 -75.75 Q72.85 -76.75 74.2 -76.3 L75.3 -74.6 76.5 -73.05 76.05 -73.05 Q75.0 -73.85 74.2 -74.0 73.8 -74.25 73.55 -73.6 L72.6 -73.3" fill="#f5df89" fill-rule="evenodd" stroke="none"/>
      <path d="M37.45 -49.0 L38.0 -49.3 40.0 -50.0 41.45 -50.4 42.8 -50.9 47.2 -49.4 48.8 -48.9 51.25 -48.45 48.0 -47.25 44.6 -46.15 42.45 -45.4 40.5 -44.85 37.45 -49.0" fill="#ffffff" fill-rule="evenodd" stroke="none"/>
      <path d="M42.8 -50.9 L41.45 -50.4 40.0 -50.0 38.0 -49.3 37.45 -49.0 32.95 -55.2 33.55 -54.8 Q37.0 -53.05 40.5 -51.75 L42.8 -50.9" fill="#eeeeee" fill-rule="evenodd" stroke="none"/>
      <path d="M42.8 -50.9 L40.5 -51.75 Q37.0 -53.05 33.55 -54.8 L32.95 -55.2 29.7 -59.45 Q37.2 -61.35 43.55 -63.45 53.25 -66.55 62.4 -71.45 L62.7 -70.35 61.5 -67.25 60.95 -66.05 58.1 -59.25 56.65 -56.05 45.85 -51.95 42.8 -50.9" fill="#999999" fill-rule="evenodd" stroke="none"/>
      <path d="M51.25 -48.45 L48.8 -48.9 47.2 -49.4 42.8 -50.9 45.85 -51.95 56.65 -56.05 55.0 -53.2 53.25 -50.35 55.3 -50.0 52.4 -48.85 51.25 -48.45" fill="#cccccc" fill-rule="evenodd" stroke="none"/>
      <path d="M65.85 -73.3 Q69.35 -69.0 71.75 -62.9 64.3 -59.3 56.9 -56.15 L56.65 -56.05 58.1 -59.25 60.95 -66.05 61.5 -67.25 62.7 -70.35 62.4 -71.45 65.85 -73.3" fill="#888888" fill-rule="evenodd" stroke="none"/>
      <path d="M71.75 -62.9 L73.4 -58.05 Q72.15 -57.25 70.7 -56.6 L61.85 -52.65 55.3 -50.0 53.25 -50.35 55.0 -53.2 56.65 -56.05 56.9 -56.15 Q64.3 -59.3 71.75 -62.9" fill="#bbbbbb" fill-rule="evenodd" stroke="none"/>
      <path d="M80.15 -74.3 L81.45 -75.25 83.25 -76.45 85.8 -70.2 83.25 -76.45 85.5 -77.7 89.35 -71.85 85.8 -70.2 85.1 -69.7 82.6 -70.2 82.3 -70.35 79.85 -70.95 78.25 -71.55 77.4 -71.7 76.5 -73.05 77.2 -72.95 Q78.0 -73.1 78.8 -73.6 L79.45 -74.05 80.15 -74.3 82.6 -70.2 80.15 -74.3" fill="#30190c" fill-rule="evenodd" stroke="none"/>
      <path d="M75.4 -69.45 L74.9 -70.1 72.6 -73.3 73.55 -73.6 Q73.8 -74.25 74.2 -74.0 75.0 -73.85 76.05 -73.05 L76.5 -73.05 77.4 -71.7 80.85 -66.6 81.45 -66.15 78.95 -67.25 Q78.25 -67.65 77.7 -68.1 L75.4 -69.45" fill="#edc423" fill-rule="evenodd" stroke="none"/>
      <path d="M82.6 -70.2 L85.1 -69.7 83.5 -68.65 82.6 -70.2 83.5 -68.65 83.25 -68.45 80.85 -66.6 77.4 -71.7 78.25 -71.55 79.85 -70.95 82.3 -70.35 82.6 -70.2" fill="#1c0d06" fill-rule="evenodd" stroke="none"/>
      <path d="M74.15 -55.75 L76.5 -55.35 Q77.2 -55.2 77.7 -55.9 L78.15 -57.4 Q78.25 -59.05 77.8 -61.2 L76.5 -64.05 75.8 -66.3 Q75.25 -67.8 75.0 -69.8 L75.4 -69.45 Q76.9 -67.3 78.1 -64.55 L79.7 -61.45 81.65 -56.35 Q82.15 -49.3 76.2 -52.0 75.0 -53.5 74.15 -55.75 M93.2 -73.35 Q92.85 -74.15 92.95 -74.85 92.95 -75.35 93.4 -75.95 L94.05 -76.95 94.85 -77.25 96.45 -77.25 100.25 -75.9 Q101.65 -75.25 103.4 -75.4 L106.25 -75.9 106.35 -75.2 Q105.1 -71.95 100.8 -72.3 L94.35 -74.0 93.2 -73.35" fill="#211914" fill-rule="evenodd" stroke="none"/>
      <path d="M75.4 -69.45 L77.7 -68.1 Q78.25 -67.65 78.95 -67.25 L81.45 -66.15 82.05 -65.0 Q82.45 -63.45 79.7 -61.45 L78.1 -64.55 Q76.9 -67.3 75.4 -69.45" fill="#96790c" fill-rule="evenodd" stroke="none"/>
      <path d="M72.6 -73.3 L72.15 -73.65 70.3 -75.75 Q67.85 -78.2 65.0 -80.0 63.25 -81.2 60.0 -82.55 57.85 -82.0 58.25 -80.1 L61.1 -77.8 65.85 -73.3 Q69.35 -69.0 71.75 -62.9 L73.4 -58.05 74.15 -55.8 74.15 -55.75 Q75.0 -53.5 76.2 -52.0 82.15 -49.3 81.65 -56.35 L79.7 -61.45 Q82.45 -63.45 82.05 -65.0 L81.45 -66.15 80.85 -66.6 83.25 -68.45 83.5 -68.65 85.1 -69.7 85.8 -70.2 83.25 -76.45 82.6 -77.8 79.05 -76.15 75.3 -74.6 74.2 -76.3 Q72.85 -76.75 70.3 -75.75 M75.4 -69.45 L74.9 -70.1 72.6 -73.3 M76.5 -73.05 L75.3 -74.6 M79.05 -76.15 L80.15 -74.3 82.6 -70.2 83.5 -68.65 M42.8 -50.9 L41.45 -50.4 40.0 -50.0 38.0 -49.3 37.45 -49.0 M40.5 -44.85 L42.45 -45.4 44.6 -46.15 48.0 -47.25 51.25 -48.45 52.4 -48.85 55.3 -50.0 61.85 -52.65 70.7 -56.6 Q72.15 -57.25 73.4 -58.05 M42.8 -50.9 L45.85 -51.95 56.65 -56.05 56.9 -56.15 Q64.3 -59.3 71.75 -62.9 M62.4 -71.45 Q53.25 -66.55 43.55 -63.45 37.2 -61.35 29.7 -59.45 M85.5 -77.7 L84.75 -79.05 82.6 -77.8 M76.5 -73.05 L77.4 -71.7 80.85 -66.6 M75.4 -69.45 Q76.9 -67.3 78.1 -64.55 L79.7 -61.45 M65.85 -73.3 L62.4 -71.45 M85.5 -77.7 L89.35 -71.85 93.2 -73.35 94.35 -74.0 100.8 -72.3 Q105.1 -71.95 106.35 -75.2 L106.25 -75.9 Q106.45 -77.1 106.2 -78.3 105.1 -84.0 96.45 -84.8 94.5 -84.8 92.6 -83.75 L84.75 -79.05 M85.8 -70.2 L89.35 -71.85" fill="none" stroke="#000000" stroke-linecap="round" stroke-linejoin="round" stroke-opacity="0.4" stroke-width="0.5"/>
      <path d="M-54.45 -53.2 Q-50.05 -62.65 -45.25 -70.25 -46.7 -61.6 -50.3 -51.35 -54.85 -42.15 -60.1 -34.5 -57.95 -44.2 -54.45 -53.2" fill="#720000" fill-rule="evenodd" stroke="none"/>
      <path d="M-54.45 -53.2 Q-50.05 -62.65 -45.25 -70.25 -46.7 -61.6 -50.3 -51.35 -54.85 -42.15 -60.1 -34.5 -57.95 -44.2 -54.45 -53.2 Z" fill="none" stroke="#000000" stroke-linecap="round" stroke-linejoin="round" stroke-opacity="0.4" stroke-width="0.5"/>
      <path d="M-94.75 -87.7 L-94.45 -87.8 Q-90.65 -85.1 -87.15 -81.55 -83.8 -78.2 -81.45 -74.3 -78.8 -70.4 -75.9 -67.1 L-75.1 -65.95 -79.55 -64.4 -80.55 -64.25 -80.7 -64.7 Q-82.05 -67.25 -83.65 -69.45 L-86.6 -72.95 Q-88.25 -74.7 -89.45 -76.6 -90.7 -78.65 -91.65 -80.95 -92.25 -82.15 -92.55 -83.5 -92.85 -84.45 -93.35 -84.85 L-94.75 -87.7" fill="#522614" fill-rule="evenodd" stroke="none"/>
      <path d="M-83.5 -59.4 L-82.6 -60.6 Q-82.3 -62.65 -83.4 -64.45 L-83.95 -65.4 -86.9 -68.85 -90.0 -72.5 -92.3 -76.15 -94.2 -80.1 Q-95.15 -82.1 -95.9 -84.45 L-96.25 -86.55 -96.05 -86.95 -95.8 -87.15 -94.75 -87.7 -93.35 -84.85 Q-92.85 -84.45 -92.55 -83.5 -92.25 -82.15 -91.65 -80.95 -90.7 -78.65 -89.45 -76.6 -88.25 -74.7 -86.6 -72.95 L-83.65 -69.45 Q-82.05 -67.25 -80.7 -64.7 L-80.55 -64.25 -79.55 -64.4 -75.1 -65.95 -73.95 -66.45 -72.8 -64.7 -73.2 -64.45 -76.6 -62.7 -83.5 -59.4" fill="#30160c" fill-rule="evenodd" stroke="none"/>
      <path d="M-94.45 -87.8 Q-91.75 -87.95 -89.15 -87.0 L-88.0 -86.6 -73.95 -66.45 -75.1 -65.95 -75.9 -67.1 Q-78.8 -70.4 -81.45 -74.3 -83.8 -78.2 -87.15 -81.55 -90.65 -85.1 -94.45 -87.8" fill="#9c4a27" fill-rule="evenodd" stroke="none"/>
      <path d="M-80.9 -54.15 L-81.85 -53.75 Q-86.85 -54.45 -83.95 -59.05 L-83.8 -59.15 -83.5 -59.4 -76.6 -62.7 Q-79.6 -60.35 -80.5 -56.7 -80.9 -55.4 -80.9 -54.15" fill="#7a7404" fill-rule="evenodd" stroke="none"/>
      <path d="M-78.0 -55.25 L-80.9 -54.15 Q-80.9 -55.4 -80.5 -56.7 -79.6 -60.35 -76.6 -62.7 L-73.2 -64.45 -71.9 -64.4 -71.75 -64.45 -71.5 -64.3 -70.7 -64.05 -70.0 -63.85 Q-68.95 -62.8 -69.15 -61.35 -69.2 -60.2 -69.55 -59.8 L-70.15 -59.4 -70.4 -59.3 -76.05 -56.35 -78.0 -55.25" fill="#bfb020" fill-rule="evenodd" stroke="none"/>
      <path d="M-72.8 -64.7 L-70.65 -65.8 Q-65.15 -64.6 -68.25 -60.25 L-69.55 -59.8 Q-69.2 -60.2 -69.15 -61.35 -68.95 -62.8 -70.0 -63.85 L-70.7 -64.05 -71.5 -64.3 -71.75 -64.45 -71.9 -64.4 -72.8 -64.7" fill="#e3d22d" fill-rule="evenodd" stroke="none"/>
      <path d="M-52.7 -51.15 L-54.9 -46.55 -55.25 -46.35 Q-63.2 -43.5 -69.15 -39.25 L-78.0 -55.25 -76.05 -56.35 Q-74.7 -53.6 -73.1 -51.6 L-72.55 -50.75 -70.0 -47.8 -69.55 -47.4 Q-68.8 -46.75 -67.8 -46.55 -66.45 -46.2 -65.25 -46.55 L-65.3 -46.7 Q-62.25 -48.5 -58.9 -49.6 -55.7 -50.75 -52.7 -51.15 M-38.0 -0.75 Q-33.95 -3.05 -30.55 -7.0 L-29.3 -8.2 -24.85 -6.15 Q-30.3 1.9 -39.05 4.1 L-38.8 3.0 -38.25 -0.4 -38.0 -0.75 M-62.15 6.0 Q-65.3 3.7 -68.0 0.55 -58.95 5.6 -44.9 1.95 -42.85 1.5 -41.05 0.7 L-42.15 2.85 Q-42.7 4.1 -43.55 5.05 -53.5 6.75 -62.15 6.0" fill="#bbbbbb" fill-rule="evenodd" stroke="none"/>
      <path d="M-69.55 -59.8 L-65.1 -53.65 -56.35 -57.65 -56.25 -57.65 -54.15 -58.45 -49.05 -59.0 -52.7 -51.15 Q-55.7 -50.75 -58.9 -49.6 -62.25 -48.5 -65.3 -46.7 L-65.25 -46.55 Q-66.45 -46.2 -67.8 -46.55 -68.8 -46.75 -69.55 -47.4 L-70.0 -47.8 -72.55 -50.75 -73.1 -51.6 Q-74.7 -53.6 -76.05 -56.35 L-70.4 -59.3 -70.15 -59.4 -69.55 -59.8 M-24.85 -6.15 L-19.05 -3.45 Q-23.8 3.1 -30.65 6.8 -33.9 8.7 -37.6 9.75 L-37.6 9.65 Q-38.95 7.6 -38.9 5.3 L-39.05 4.1 Q-30.3 1.9 -24.85 -6.15 M-46.9 10.7 L-49.45 10.45 Q-56.5 9.9 -62.15 6.0 -53.5 6.75 -43.55 5.05 L-46.9 10.7" fill="#a2a2a2" fill-rule="evenodd" stroke="none"/>
      <path d="M-41.05 0.7 L-38.2 -0.65 -38.0 -0.75 -38.25 -0.4 -38.8 3.0 -39.05 4.1 -40.3 4.4 -40.8 4.5 -43.55 5.05 Q-42.7 4.1 -42.15 2.85 L-41.05 0.7" fill="#eaeaea" fill-rule="evenodd" stroke="none"/>
      <path d="M-37.6 9.75 L-43.55 10.6 -46.9 10.7 -43.55 5.05 -40.8 4.5 -40.3 4.4 -39.05 4.1 -38.9 5.3 Q-38.95 7.6 -37.6 9.65 L-37.6 9.75" fill="#dddddd" fill-rule="evenodd" stroke="none"/>
      <path d="M-83.5 -59.4 L-82.6 -60.6 Q-82.3 -62.65 -83.4 -64.45 L-83.95 -65.4 -86.9 -68.85 -90.0 -72.5 -92.3 -76.15 -94.2 -80.1 Q-95.15 -82.1 -95.9 -84.45 L-96.25 -86.55 -96.05 -86.95 -95.8 -87.15 -94.75 -87.7 -94.45 -87.8 Q-91.75 -87.95 -89.15 -87.0 L-88.0 -86.6 -73.95 -66.45 -72.8 -64.7 -70.65 -65.8 Q-65.15 -64.6 -68.25 -60.25 L-69.55 -59.8 -65.1 -53.65 -56.35 -57.65 -56.25 -57.65 -54.15 -58.45 -49.05 -59.0 M-54.9 -46.55 L-55.25 -46.35 Q-63.2 -43.5 -69.15 -39.25 L-78.0 -55.25 -80.9 -54.15 -81.85 -53.75 Q-86.85 -54.45 -83.95 -59.05 L-83.5 -59.4 -76.6 -62.7 -73.2 -64.45 -72.8 -64.7 M-70.15 -59.4 L-70.4 -59.3 -76.05 -56.35 -78.0 -55.25 M-83.95 -59.05 L-83.8 -59.15 -83.5 -59.4 M-38.0 -0.75 Q-33.95 -3.05 -30.55 -7.0 L-29.3 -8.2 M-19.05 -3.45 Q-23.8 3.1 -30.65 6.8 -33.9 8.7 -37.6 9.75 L-43.55 10.6 -46.9 10.7 -49.45 10.45 Q-56.5 9.9 -62.15 6.0 -65.3 3.7 -68.0 0.55 -58.95 5.6 -44.9 1.95 -42.85 1.5 -41.05 0.7 L-38.2 -0.65 -38.0 -0.75" fill="none" stroke="#000000" stroke-linecap="round" stroke-linejoin="round" stroke-opacity="0.4" stroke-width="0.5"/>
    </g>
  </defs>
</svg>
