<?xml version="1.0" encoding="UTF-8" standalone="no"?>
<svg xmlns:xlink="http://www.w3.org/1999/xlink" height="531.5px" width="460.6px" xmlns="http://www.w3.org/2000/svg">
  <g transform="matrix(1.0, 0.0, 0.0, 1.0, 193.65, 334.05)">
    <use height="78.5" transform="matrix(1.2287, 0.0, 0.0, 1.2287, -12.7643, -93.7143)" width="40.65" xlink:href="#shape0"/>
  </g>
  <defs>
    <g id="shape0" transform="matrix(1.0, 0.0, 0.0, 1.0, 0.5, 0.5)">
      <path d="M25.1 21.55 L23.5 23.2 20.3 15.0 Q23.45 11.25 24.3 5.55 23.45 11.25 20.3 15.0 18.05 10.45 14.8 6.5 L12.05 3.4 Q14.15 1.5 16.65 0.0 21.25 2.0 24.3 5.55 27.35 9.1 28.85 14.2 27.95 18.25 25.1 21.55 M28.1 28.4 Q32.4 38.55 35.65 47.2 L34.45 46.5 30.95 45.4 30.1 45.3 26.35 45.15 24.4 43.85 22.95 42.9 Q20.8 41.75 18.45 42.4 16.75 44.85 17.05 48.3 17.55 49.75 19.05 50.4 L21.2 50.4 22.95 50.4 27.45 52.0 27.55 52.05 Q32.3 51.5 36.65 50.35 36.9 51.9 36.45 53.0 27.55 69.65 18.35 77.5 9.3 72.45 0.45 55.4 -0.2 54.05 0.05 52.1 1.45 48.4 4.25 43.65 7.65 38.0 10.05 35.3 11.6 33.5 14.15 32.15 16.05 31.05 18.5 30.2 L20.35 29.65 Q24.25 28.5 28.1 28.4 M20.65 31.1 L20.35 29.65 20.65 31.1 M24.35 61.6 L24.55 61.55 Q26.95 61.25 26.95 60.75 26.95 60.25 24.55 59.9 L19.2 59.6 18.85 59.6 13.1 59.9 Q10.75 60.25 10.75 60.75 10.75 61.25 13.1 61.55 L18.85 61.9 24.35 61.6" fill="#e2fdff" fill-rule="evenodd" stroke="none"/>
      <path d="M23.5 23.2 L25.1 21.55 28.1 28.4 Q24.25 28.5 20.35 29.65 L18.5 30.2 Q16.05 31.05 14.15 32.15 L16.55 25.2 14.15 32.15 Q11.6 33.5 10.05 35.3 7.65 38.0 4.25 43.65 1.45 48.4 0.05 52.1 0.2 50.7 0.8 48.95 4.8 37.65 12.45 22.65 L12.95 23.0 Q14.6 24.2 16.55 25.2 L19.15 26.4 21.4 24.95 23.5 23.2 M22.75 28.7 L21.4 24.95 22.75 28.7 M20.05 28.4 L20.35 29.65 20.05 28.4" fill="url(#gradient0)" fill-rule="evenodd" stroke="none"/>
      <path d="M23.5 23.2 L21.4 24.95 19.15 26.4 16.55 25.2 Q14.6 24.2 12.95 23.0 L12.45 22.65 10.5 21.0 Q6.8 17.6 4.95 13.0 7.6 7.35 12.05 3.4 L14.8 6.5 Q18.05 10.45 20.3 15.0 L23.5 23.2 M19.5 15.95 L20.3 15.0 19.5 15.95 M15.7 18.85 Q13.35 20.2 10.5 21.0 13.35 20.2 15.7 18.85" fill="url(#gradient1)" fill-rule="evenodd" stroke="none"/>
      <path d="M35.65 47.2 L39.65 49.6 36.65 50.35 Q32.3 51.5 27.55 52.05 L27.45 52.0 22.95 50.4 21.2 50.4 19.05 50.4 Q17.55 49.75 17.05 48.3 16.75 44.85 18.45 42.4 20.8 41.75 22.95 42.9 L24.4 43.85 26.35 45.15 30.1 45.3 29.9 46.8 30.0 47.65 29.9 46.8 30.1 45.3 30.95 45.4 34.45 46.5 35.65 47.2 M20.9 47.25 L20.75 48.45 Q20.75 49.3 21.2 50.4 20.75 49.3 20.75 48.45 L20.9 47.25 M23.8 47.45 L23.9 45.8 Q24.05 44.6 24.4 43.85 24.05 44.6 23.9 45.8 L23.8 47.45 M33.4 49.55 L33.25 48.75 33.3 48.25 33.25 48.75 33.4 49.55 M27.3 49.85 Q27.15 50.75 27.45 52.0 27.15 50.75 27.3 49.85" fill="#ff6600" fill-rule="evenodd" stroke="none"/>
      <path d="M19.2 59.6 L24.55 59.9 Q26.95 60.25 26.95 60.75 26.95 61.25 24.55 61.55 L24.35 61.6 Q23.45 60.4 21.8 59.95 L19.2 59.6" fill="#491717" fill-rule="evenodd" stroke="none"/>
      <path d="M19.2 59.6 L21.8 59.95 Q23.45 60.4 24.35 61.6 L18.85 61.9 13.1 61.55 Q10.75 61.25 10.75 60.75 10.75 60.25 13.1 59.9 L18.85 59.6 19.2 59.6" fill="#845c5c" fill-rule="evenodd" stroke="none"/>
      <path d="M25.1 21.55 L23.5 23.2 21.4 24.95 19.15 26.4 16.55 25.2 Q14.6 24.2 12.95 23.0 L12.45 22.65 10.5 21.0 Q6.8 17.6 4.95 13.0 7.6 7.35 12.05 3.4 14.15 1.5 16.65 0.0 21.25 2.0 24.3 5.55 27.35 9.1 28.85 14.2 27.95 18.25 25.1 21.55 M35.65 47.2 L39.65 49.6 36.65 50.35 Q32.3 51.5 27.55 52.05 L27.45 52.0 22.95 50.4 21.2 50.4 19.05 50.4 Q17.55 49.75 17.05 48.3 16.75 44.85 18.45 42.4 20.8 41.75 22.95 42.9 L24.4 43.85 26.35 45.15 30.1 45.3 30.95 45.4 34.45 46.5 35.65 47.2" fill="none" stroke="#000000" stroke-linecap="round" stroke-linejoin="round" stroke-opacity="0.3372549" stroke-width="1.0"/>
      <path d="M20.3 15.0 L19.5 15.95 M20.3 15.0 Q23.45 11.25 24.3 5.55 M10.5 21.0 Q13.35 20.2 15.7 18.85" fill="none" stroke="#000000" stroke-linecap="round" stroke-linejoin="round" stroke-opacity="0.2" stroke-width="0.6000000000000001"/>
      <path d="M21.4 24.95 L22.75 28.7 M20.35 29.65 L20.05 28.4 M16.55 25.2 L14.15 32.15 M21.2 50.4 Q20.75 49.3 20.75 48.45 L20.9 47.25 M20.35 29.65 L20.65 31.1 M24.4 43.85 Q24.05 44.6 23.9 45.8 L23.8 47.45 M30.1 45.3 L29.9 46.8 30.0 47.65 M33.3 48.25 L33.25 48.75 33.4 49.55 M24.35 61.6 L24.55 61.55 Q26.95 61.25 26.95 60.75 26.95 60.25 24.55 59.9 L19.2 59.6 18.85 59.6 13.1 59.9 Q10.75 60.25 10.75 60.75 10.75 61.25 13.1 61.55 L18.85 61.9 24.35 61.6 M27.45 52.0 Q27.15 50.75 27.3 49.85" fill="none" stroke="#000000" stroke-linecap="round" stroke-linejoin="round" stroke-opacity="0.2" stroke-width="1.0"/>
      <path d="M25.1 21.55 L28.1 28.4 Q32.4 38.55 35.65 47.2 M36.65 50.35 Q36.9 51.9 36.45 53.0 27.55 69.65 18.35 77.5 9.3 72.45 0.45 55.4 -0.2 54.05 0.05 52.1 0.2 50.7 0.8 48.95 4.8 37.65 12.45 22.65" fill="none" stroke="#000000" stroke-linecap="round" stroke-linejoin="round" stroke-opacity="0.40784314" stroke-width="1.0"/>
      <path d="M18.0 34.2 L18.0 34.25 16.95 36.15 18.0 37.9 Q18.0 38.55 17.5 39.05 17.0 39.55 16.3 39.55 15.6 39.55 15.1 39.05 14.6 38.55 14.6 37.85 L14.6 34.2 Q14.6 33.5 15.1 33.0 15.6 32.5 16.3 32.5 17.0 32.5 17.5 33.0 18.0 33.5 18.0 34.2" fill="url(#gradient2)" fill-rule="evenodd" stroke="none"/>
      <path d="M18.0 34.2 Q18.0 33.5 17.5 33.0 17.0 32.5 16.3 32.5 15.6 32.5 15.1 33.0 14.6 33.5 14.6 34.2 L14.6 37.85 Q14.6 38.55 15.1 39.05 15.6 39.55 16.3 39.55 17.0 39.55 17.5 39.05 18.0 38.55 18.0 37.9 L16.95 36.15 18.0 34.25 18.0 34.2 Z" fill="none" stroke="#000000" stroke-linecap="round" stroke-linejoin="round" stroke-opacity="0.3372549" stroke-width="1.0"/>
      <path d="M17.15 69.35 Q17.15 68.4 17.8 67.7 18.45 67.1 19.4 67.1 20.35 67.1 21.0 67.7 21.65 68.4 21.65 69.35 21.65 70.3 21.0 70.9 20.35 71.6 19.4 71.6 18.45 71.6 17.8 70.9 17.15 70.3 17.15 69.35" fill="url(#gradient3)" fill-rule="evenodd" stroke="none"/>
      <path d="M17.15 69.35 Q17.15 68.4 17.8 67.7 18.45 67.1 19.4 67.1 20.35 67.1 21.0 67.7 21.65 68.4 21.65 69.35 21.65 70.3 21.0 70.9 20.35 71.6 19.4 71.6 18.45 71.6 17.8 70.9 17.15 70.3 17.15 69.35 Z" fill="none" stroke="#000000" stroke-linecap="round" stroke-linejoin="round" stroke-opacity="0.3372549" stroke-width="1.0"/>
      <path d="M24.0 33.0 Q24.5 33.5 24.5 34.2 L24.5 34.25 23.45 36.15 24.5 37.9 Q24.5 38.55 24.0 39.05 23.5 39.55 22.8 39.55 22.1 39.55 21.6 39.05 21.1 38.55 21.1 37.85 L21.1 34.2 Q21.1 33.5 21.6 33.0 22.1 32.5 22.8 32.5 23.5 32.5 24.0 33.0" fill="url(#gradient4)" fill-rule="evenodd" stroke="none"/>
      <path d="M24.0 33.0 Q24.5 33.5 24.5 34.2 L24.5 34.25 23.45 36.15 24.5 37.9 Q24.5 38.55 24.0 39.05 23.5 39.55 22.8 39.55 22.1 39.55 21.6 39.05 21.1 38.55 21.1 37.85 L21.1 34.2 Q21.1 33.5 21.6 33.0 22.1 32.5 22.8 32.5 23.5 32.5 24.0 33.0 Z" fill="none" stroke="#000000" stroke-linecap="round" stroke-linejoin="round" stroke-opacity="0.3372549" stroke-width="1.0"/>
    </g>
    <linearGradient gradientTransform="matrix(6.0E-4, -0.0101, 0.0179, 0.0011, 13.75, 30.3)" gradientUnits="userSpaceOnUse" id="gradient0" spreadMethod="pad" x1="-819.2" x2="819.2">
      <stop offset="0.0" stop-color="#b8daea"/>
      <stop offset="1.0" stop-color="#72c3ea" stop-opacity="0.9882353"/>
    </linearGradient>
    <linearGradient gradientTransform="matrix(-0.0094, 0.0, 0.0, -0.0107, 10.25, 12.5)" gradientUnits="userSpaceOnUse" id="gradient1" spreadMethod="pad" x1="-819.2" x2="819.2">
      <stop offset="0.0" stop-color="#b8daea"/>
      <stop offset="1.0" stop-color="#72c3ea" stop-opacity="0.9882353"/>
    </linearGradient>
    <linearGradient gradientTransform="matrix(0.0015, -0.0015, 0.003, 0.003, 16.35, 35.7)" gradientUnits="userSpaceOnUse" id="gradient2" spreadMethod="pad" x1="-819.2" x2="819.2">
      <stop offset="0.0" stop-color="#000000"/>
      <stop offset="1.0" stop-color="#333333" stop-opacity="0.9882353"/>
    </linearGradient>
    <radialGradient cx="0" cy="0" gradientTransform="matrix(0.0025, 0.0, 0.0, 0.0025, 20.05, 68.4)" gradientUnits="userSpaceOnUse" id="gradient3" r="819.2" spreadMethod="pad">
      <stop offset="0.0" stop-color="#333333" stop-opacity="0.9882353"/>
      <stop offset="1.0" stop-color="#000000"/>
    </radialGradient>
    <linearGradient gradientTransform="matrix(0.001, -0.0018, 0.0037, 0.0022, 23.05, 35.2)" gradientUnits="userSpaceOnUse" id="gradient4" spreadMethod="pad" x1="-819.2" x2="819.2">
      <stop offset="0.0" stop-color="#000000"/>
      <stop offset="1.0" stop-color="#333333" stop-opacity="0.9882353"/>
    </linearGradient>
  </defs>
</svg>
