<?xml version="1.0" encoding="UTF-8" standalone="no"?>
<svg xmlns:xlink="http://www.w3.org/1999/xlink" height="531.5px" width="460.6px" xmlns="http://www.w3.org/2000/svg">
  <g transform="matrix(1.0, 0.0, 0.0, 1.0, 193.65, 334.05)">
    <use height="153.4" transform="matrix(0.3856, 0.0, 0.0, 0.3856, -70.4541, -44.7771)" width="345.65" xlink:href="#shape0"/>
  </g>
  <defs>
    <g id="shape0" transform="matrix(1.0, 0.0, 0.0, 1.0, 168.7, 76.7)">
      <path d="M109.25 32.2 L109.25 39.1 -121.15 39.1 -121.15 32.2 109.25 32.2 M-121.15 12.15 L-121.15 5.25 109.25 5.25 109.25 12.15 -121.15 12.15" fill="#cccccc" fill-rule="evenodd" stroke="none"/>
      <path d="M109.25 32.2 L-121.15 32.2 -121.15 12.15 109.25 12.15 109.25 32.2" fill="#79935f" fill-rule="evenodd" stroke="none"/>
      <path d="M-121.15 32.2 L-121.15 39.1 109.25 39.1 109.25 32.2 -121.15 32.2 -121.15 12.15 -121.15 5.25 109.25 5.25 109.25 12.15 -121.15 12.15" fill="none" stroke="#000000" stroke-linecap="round" stroke-linejoin="round" stroke-opacity="0.5019608" stroke-width="1.0"/>
      <path d="M-9.55 -2.6 Q25.0 -5.15 57.75 -2.15 63.3 23.6 57.75 49.25 24.15 53.2 -9.5 49.85 -14.75 23.65 -9.55 -2.6 M0.25 32.25 Q0.7 36.75 1.6 41.25 24.15 43.5 46.7 40.85 47.6 36.55 48.1 32.25 49.1 22.8 47.9 13.3 L46.7 6.4 Q24.75 4.4 1.55 6.1 0.85 9.7 0.45 13.3 -0.65 22.8 0.25 32.25" fill="#ffc500" fill-rule="evenodd" stroke="none"/>
      <path d="M-9.5 49.85 L-15.1 49.25 Q-20.7 23.6 -15.1 -2.15 L-9.55 -2.6 Q-14.75 23.65 -9.5 49.85" fill="#da8200" fill-rule="evenodd" stroke="none"/>
      <path d="M48.1 32.25 Q47.6 36.55 46.7 40.85 24.15 43.5 1.6 41.25 0.7 36.75 0.25 32.25 24.75 36.65 48.1 32.25 M0.45 13.3 Q0.85 9.7 1.55 6.1 24.75 4.4 46.7 6.4 L47.9 13.3 Q21.0 15.4 0.45 13.3" fill="#cccccc" fill-rule="evenodd" stroke="none"/>
      <path d="M48.1 32.25 Q24.75 36.65 0.25 32.25 -0.65 22.8 0.45 13.3 21.0 15.4 47.9 13.3 49.1 22.8 48.1 32.25" fill="#79935f" fill-rule="evenodd" stroke="none"/>
      <path d="M-9.5 49.85 L-15.1 49.25 Q-20.7 23.6 -15.1 -2.15 L-9.55 -2.6 Q25.0 -5.15 57.75 -2.15 63.3 23.6 57.75 49.25 24.15 53.2 -9.5 49.85 -14.75 23.65 -9.55 -2.6 M0.25 32.25 Q0.7 36.75 1.6 41.25 24.15 43.5 46.7 40.85 47.6 36.55 48.1 32.25 24.75 36.65 0.25 32.25 -0.65 22.8 0.45 13.3 0.85 9.7 1.55 6.1 24.75 4.4 46.7 6.4 L47.9 13.3 Q49.1 22.8 48.1 32.25 M0.45 13.3 Q21.0 15.4 47.9 13.3" fill="none" stroke="#000000" stroke-linecap="round" stroke-linejoin="round" stroke-opacity="0.5019608" stroke-width="1.0"/>
      <path d="M-162.5 -9.95 Q-164.75 -10.15 -166.4 -11.8 -168.2 -13.6 -168.2 -16.2 L-168.2 -16.25 Q-168.2 -18.85 -166.4 -20.7 -164.65 -22.4 -162.2 -22.5 L-161.95 -22.5 -101.5 -22.5 -101.15 -22.5 Q-98.8 -22.4 -97.1 -20.7 L-95.8 -18.95 Q-95.25 -17.7 -95.25 -16.25 L-95.25 -16.2 Q-95.25 -13.6 -97.1 -11.8 -98.7 -10.15 -100.95 -9.95 L-101.5 -9.95 -161.95 -9.95 -162.5 -9.95" fill="url(#gradient0)" fill-rule="evenodd" stroke="none"/>
      <path d="M-162.5 -5.7 L-162.5 -9.95 -161.95 -9.95 -101.5 -9.95 -100.95 -9.95 -100.95 -5.7 -162.5 -5.7 M-100.95 53.05 L-100.95 57.35 -101.5 57.3 -161.95 57.3 -162.5 57.35 -162.5 53.05 -100.95 53.05" fill="#232323" fill-rule="evenodd" stroke="none"/>
      <path d="M-136.6 -49.35 L-140.9 -49.8 Q-142.95 -60.35 -140.9 -71.8 -139.35 -73.55 -135.45 -72.0 -130.9 -70.25 -127.4 -71.6 -124.85 -73.4 -122.2 -70.85 -120.75 -60.5 -122.6 -49.8 L-126.8 -49.3 -129.1 -49.15 -131.75 -49.1 -134.25 -49.2 -136.6 -49.35 M-127.8 -65.25 Q-129.15 -66.65 -131.25 -66.65 -133.3 -66.65 -134.7 -65.25 -136.1 -63.8 -136.1 -61.75 -136.1 -59.7 -134.7 -58.35 -133.3 -56.9 -131.25 -56.9 -129.15 -56.9 -127.8 -58.35 -126.3 -59.7 -126.3 -61.75 -126.3 -63.8 -127.8 -65.25" fill="#f9eadb" fill-rule="evenodd" stroke="none"/>
      <path d="M-130.2 -62.75 Q-130.65 -63.15 -131.25 -63.15 -131.8 -63.15 -132.25 -62.75 -132.65 -62.3 -132.65 -61.75 -132.65 -61.15 -132.25 -60.75 -131.8 -60.35 -131.25 -60.35 -130.65 -60.35 -130.2 -60.75 -129.75 -61.15 -129.75 -61.75 -129.75 -62.3 -130.2 -62.75 M-127.8 -65.25 Q-126.3 -63.8 -126.3 -61.75 -126.3 -59.7 -127.8 -58.35 -129.15 -56.9 -131.25 -56.9 -133.3 -56.9 -134.7 -58.35 -136.1 -59.7 -136.1 -61.75 -136.1 -63.8 -134.7 -65.25 -133.3 -66.65 -131.25 -66.65 -129.15 -66.65 -127.8 -65.25" fill="#c9ab8e" fill-opacity="0.9019608" fill-rule="evenodd" stroke="none"/>
      <path d="M-130.2 -62.75 Q-129.75 -62.3 -129.75 -61.75 -129.75 -61.15 -130.2 -60.75 -130.65 -60.35 -131.25 -60.35 -131.8 -60.35 -132.25 -60.75 -132.65 -61.15 -132.65 -61.75 -132.65 -62.3 -132.25 -62.75 -131.8 -63.15 -131.25 -63.15 -130.65 -63.15 -130.2 -62.75" fill="#826e5b" fill-opacity="0.9019608" fill-rule="evenodd" stroke="none"/>
      <path d="M-136.6 -45.9 L-136.6 -49.35 -134.25 -49.2 -131.75 -49.1 -131.75 -46.15 -134.25 -46.1 -136.6 -45.9 M-126.8 -49.3 L-126.8 -45.9 -129.1 -46.1 -129.1 -49.15 -129.1 -46.1 -131.7 -46.15 -131.75 -46.15 -131.75 -49.1 -129.1 -49.15 -126.8 -49.3 M-134.25 -46.1 L-134.25 -49.2 -134.25 -46.1" fill="#9e7f61" fill-opacity="0.9019608" fill-rule="evenodd" stroke="none"/>
      <path d="M-153.1 -38.95 Q-146.0 -44.75 -136.6 -45.9 L-134.25 -46.1 -131.75 -46.15 -131.7 -46.15 -129.1 -46.1 -126.8 -45.9 Q-117.2 -44.7 -110.05 -38.8 -107.35 -36.5 -105.45 -33.95 -103.4 -31.2 -102.3 -28.15 -110.5 -24.15 -123.4 -24.15 -137.65 -24.15 -145.9 -29.35 -152.3 -33.4 -153.1 -38.95" fill="#cc66ff" fill-rule="evenodd" stroke="none"/>
      <path d="M-162.2 -22.5 Q-161.55 -31.9 -153.35 -38.8 L-153.1 -38.95 Q-152.3 -33.4 -145.9 -29.35 -137.65 -24.15 -123.4 -24.15 -110.5 -24.15 -102.3 -28.15 -101.35 -25.5 -101.15 -22.5 L-101.5 -22.5 -161.95 -22.5 -162.2 -22.5" fill="#973ec4" fill-rule="evenodd" stroke="none"/>
      <path d="M-100.95 -5.7 L-100.95 53.05 -162.5 53.05 -162.5 -5.7 -100.95 -5.7 M-152.4 38.05 L-152.55 38.1 -152.45 37.8 -153.7 37.4 Q-155.25 37.8 -155.55 38.6 L-154.75 39.15 -153.7 39.35 -152.95 38.75 -152.0 39.1 Q-151.55 38.95 -151.55 38.25 -151.9 37.9 -152.4 38.05 M-149.7 34.85 Q-148.85 34.85 -148.85 34.6 L-148.9 34.0 Q-148.65 32.7 -149.95 32.0 -150.85 31.45 -151.9 31.45 L-152.0 32.55 Q-152.0 33.15 -151.45 33.9 -150.75 34.85 -149.7 34.85 M-153.5 20.65 Q-154.1 20.75 -154.1 21.7 L-154.05 22.6 -153.85 22.8 Q-153.9 23.1 -152.55 23.1 -151.05 23.1 -150.75 22.05 L-151.2 21.45 -151.55 20.8 -153.5 20.65 M-147.7 6.6 L-147.7 6.45 Q-147.3 7.35 -148.05 9.35 L-148.05 7.05 -147.7 6.6 M-135.3 23.6 Q-134.85 24.1 -133.3 24.5 -132.6 24.15 -132.2 23.3 L-131.55 22.05 Q-133.5 19.95 -134.75 20.6 -135.7 21.1 -135.7 22.4 -135.7 23.2 -135.3 23.6 M-138.7 10.05 Q-136.15 7.0 -136.15 4.85 -136.15 2.2 -138.55 0.75 -140.8 -0.65 -143.8 -0.3 -147.0 0.0 -149.05 2.1 -151.45 4.5 -151.45 8.45 -151.45 10.65 -151.05 11.45 -149.95 13.75 -146.05 13.75 -141.85 13.75 -138.7 10.05 M-129.9 5.5 L-129.0 6.0 -128.45 6.15 -127.6 6.05 -127.3 5.75 Q-127.05 5.4 -127.05 4.5 L-127.15 3.05 Q-128.6 3.1 -129.25 3.9 L-129.9 5.5" fill="url(#gradient1)" fill-rule="evenodd" stroke="none"/>
      <path d="M-129.9 5.5 L-129.25 3.9 Q-128.6 3.1 -127.15 3.05 L-127.05 4.5 Q-127.05 5.4 -127.3 5.75 L-127.6 6.05 -128.45 6.15 -129.0 6.0 -129.9 5.5 M-138.7 10.05 Q-141.85 13.75 -146.05 13.75 -149.95 13.75 -151.05 11.45 -151.45 10.65 -151.45 8.45 -151.45 4.5 -149.05 2.1 -147.0 0.0 -143.8 -0.3 -140.8 -0.65 -138.55 0.75 -136.15 2.2 -136.15 4.85 -136.15 7.0 -138.7 10.05 M-135.3 23.6 Q-135.7 23.2 -135.7 22.4 -135.7 21.1 -134.75 20.6 -133.5 19.95 -131.55 22.05 L-132.2 23.3 Q-132.6 24.15 -133.3 24.5 -134.85 24.1 -135.3 23.6 M-147.7 6.6 L-148.05 7.05 -148.05 9.35 Q-147.3 7.35 -147.7 6.45 L-147.7 6.6 M-153.5 20.65 L-151.55 20.8 -151.2 21.45 -150.75 22.05 Q-151.05 23.1 -152.55 23.1 -153.9 23.1 -153.85 22.8 L-154.05 22.6 -154.1 21.7 Q-154.1 20.75 -153.5 20.65 M-149.7 34.85 Q-150.75 34.85 -151.45 33.9 -152.0 33.15 -152.0 32.55 L-151.9 31.45 Q-150.85 31.45 -149.95 32.0 -148.65 32.7 -148.9 34.0 L-148.85 34.6 Q-148.85 34.85 -149.7 34.85 M-152.4 38.05 Q-151.9 37.9 -151.55 38.25 -151.55 38.95 -152.0 39.1 L-152.95 38.75 -153.7 39.35 -154.75 39.15 -155.55 38.6 Q-155.25 37.8 -153.7 37.4 L-152.45 37.8 -152.55 38.1 -152.4 38.05" fill="#cc66ff" fill-opacity="0.9411765" fill-rule="evenodd" stroke="none"/>
      <path d="M-100.95 57.35 Q-98.7 57.5 -97.1 59.1 -95.25 60.95 -95.25 63.55 L-95.25 63.6 Q-95.25 66.2 -97.1 68.0 -98.9 69.85 -101.5 69.85 L-161.95 69.85 Q-164.55 69.85 -166.4 68.0 -168.2 66.2 -168.2 63.6 L-168.2 63.55 Q-168.2 60.95 -166.4 59.1 -164.75 57.5 -162.5 57.35 L-161.95 57.3 -101.5 57.3 -100.95 57.35" fill="url(#gradient2)" fill-rule="evenodd" stroke="none"/>
      <path d="M-162.5 -5.7 L-162.5 -9.95 Q-164.75 -10.15 -166.4 -11.8 -168.2 -13.6 -168.2 -16.2 L-168.2 -16.25 Q-168.2 -18.85 -166.4 -20.7 -164.65 -22.4 -162.2 -22.5 -161.55 -31.9 -153.35 -38.8 L-153.1 -38.95 Q-146.0 -44.75 -136.6 -45.9 L-136.6 -49.35 -140.9 -49.8 Q-142.95 -60.35 -140.9 -71.8 -139.35 -73.55 -135.45 -72.0 -130.9 -70.25 -127.4 -71.6 -124.85 -73.4 -122.2 -70.85 -120.75 -60.5 -122.6 -49.8 L-126.8 -49.3 -126.8 -45.9 Q-117.2 -44.7 -110.05 -38.8 -107.35 -36.5 -105.45 -33.95 -103.4 -31.2 -102.3 -28.15 -101.35 -25.5 -101.15 -22.5 -98.8 -22.4 -97.1 -20.7 L-95.8 -18.95 Q-95.25 -17.7 -95.25 -16.25 L-95.25 -16.2 Q-95.25 -13.6 -97.1 -11.8 -98.7 -10.15 -100.95 -9.95 L-100.95 -5.7 -100.95 53.05 -100.95 57.35 Q-98.7 57.5 -97.1 59.1 -95.25 60.95 -95.25 63.55 L-95.25 63.6 Q-95.25 66.2 -97.1 68.0 -98.9 69.85 -101.5 69.85 L-161.95 69.85 Q-164.55 69.85 -166.4 68.0 -168.2 66.2 -168.2 63.6 L-168.2 63.55 Q-168.2 60.95 -166.4 59.1 -164.75 57.5 -162.5 57.35 L-162.5 53.05 -162.5 -5.7 -100.95 -5.7 M-130.2 -62.75 Q-129.75 -62.3 -129.75 -61.75 -129.75 -61.15 -130.2 -60.75 -130.65 -60.35 -131.25 -60.35 -131.8 -60.35 -132.25 -60.75 -132.65 -61.15 -132.65 -61.75 -132.65 -62.3 -132.25 -62.75 -131.8 -63.15 -131.25 -63.15 -130.65 -63.15 -130.2 -62.75 M-127.8 -65.25 Q-126.3 -63.8 -126.3 -61.75 -126.3 -59.7 -127.8 -58.35 -129.15 -56.9 -131.25 -56.9 -133.3 -56.9 -134.7 -58.35 -136.1 -59.7 -136.1 -61.75 -136.1 -63.8 -134.7 -65.25 -133.3 -66.65 -131.25 -66.65 -129.15 -66.65 -127.8 -65.25 M-129.1 -46.1 L-126.8 -45.9 M-126.8 -49.3 L-129.1 -49.15 -129.1 -46.1 -131.7 -46.15 -131.75 -46.15 -134.25 -46.1 -136.6 -45.9 M-134.25 -49.2 L-134.25 -46.1 M-131.75 -46.15 L-131.75 -49.1 -134.25 -49.2 -136.6 -49.35 M-129.1 -49.15 L-131.75 -49.1 M-162.5 -9.95 L-161.95 -9.95 -101.5 -9.95 -100.95 -9.95 M-101.15 -22.5 L-101.5 -22.5 -161.95 -22.5 -162.2 -22.5 M-100.95 57.35 L-101.5 57.3 -161.95 57.3 -162.5 57.35 M-162.5 53.05 L-100.95 53.05" fill="none" stroke="#000000" stroke-linecap="round" stroke-linejoin="round" stroke-opacity="0.5019608" stroke-width="1.0"/>
      <path d="M-128.85 -63.35 Q-127.9 -61.6 -127.9 -60.55 -127.9 -59.25 -130.45 -58.45 -131.7 -58.0 -133.0 -57.85 -134.7 -57.85 -135.15 -60.7 -135.4 -62.1 -135.3 -63.7 -135.3 -64.3 -134.35 -64.95 -133.05 -65.85 -131.0 -65.5 -129.9 -65.3 -128.85 -63.35 M-124.25 -57.15 L-123.95 -56.55 -124.2 -55.65 -124.0 -55.45 -124.85 -55.3 -126.05 -55.45 -127.15 -55.6 -127.35 -56.3 -127.6 -57.2 Q-126.6 -57.85 -124.5 -57.75 L-124.25 -57.15" fill="#cc66ff" fill-opacity="0.9411765" fill-rule="evenodd" stroke="none"/>
      <path d="M-84.2 -67.9 Q-82.0 -67.9 -80.55 -66.45 -79.0 -64.9 -79.0 -62.75 -79.0 -60.6 -80.55 -59.15 -82.0 -57.6 -84.2 -57.6 -86.35 -57.6 -87.85 -59.15 -89.35 -60.6 -89.35 -62.75 -89.35 -64.9 -87.85 -66.45 -86.35 -67.9 -84.2 -67.9 M-84.2 -64.25 Q-84.8 -64.25 -85.25 -63.8 -85.7 -63.35 -85.7 -62.75 -85.7 -62.1 -85.25 -61.7 -84.8 -61.25 -84.2 -61.25 -83.55 -61.25 -83.1 -61.7 -82.65 -62.1 -82.65 -62.75 -82.65 -63.35 -83.1 -63.8 -83.55 -64.25 -84.2 -64.25" fill="#c9ab8e" fill-opacity="0.9019608" fill-rule="evenodd" stroke="none"/>
      <path d="M-84.2 -64.25 Q-83.55 -64.25 -83.1 -63.8 -82.65 -63.35 -82.65 -62.75 -82.65 -62.1 -83.1 -61.7 -83.55 -61.25 -84.2 -61.25 -84.8 -61.25 -85.25 -61.7 -85.7 -62.1 -85.7 -62.75 -85.7 -63.35 -85.25 -63.8 -84.8 -64.25 -84.2 -64.25" fill="#826e5b" fill-opacity="0.9019608" fill-rule="evenodd" stroke="none"/>
      <path d="M-84.2 -67.9 Q-86.35 -67.9 -87.85 -66.45 -89.35 -64.9 -89.35 -62.75 -89.35 -60.6 -87.85 -59.15 -86.35 -57.6 -84.2 -57.6 -82.0 -57.6 -80.55 -59.15 -79.0 -60.6 -79.0 -62.75 -79.0 -64.9 -80.55 -66.45 -82.0 -67.9 -84.2 -67.9 M-89.85 -49.65 L-94.4 -50.15 Q-96.55 -61.25 -94.4 -73.35 -92.75 -75.2 -88.65 -73.55 -83.85 -71.7 -80.15 -73.15 -77.45 -75.05 -74.65 -72.35 -73.1 -61.45 -75.05 -50.15 L-79.5 -49.6 -81.95 -49.45 -84.75 -49.4 -87.4 -49.5 -89.85 -49.65" fill="#f9eadb" fill-opacity="0.9019608" fill-rule="evenodd" stroke="none"/>
      <path d="M-52.45 -21.3 Q-49.95 -21.2 -48.15 -19.4 -47.3 -18.55 -46.8 -17.55 -46.2 -16.25 -46.2 -14.7 L-46.2 -14.65 Q-46.2 -11.9 -48.15 -10.0 -49.85 -8.25 -52.2 -8.05 L-52.8 -8.05 -116.6 -8.05 -117.2 -8.05 Q-119.55 -8.25 -121.3 -10.0 -123.2 -11.9 -123.2 -14.65 L-123.2 -14.7 Q-123.2 -17.45 -121.3 -19.4 -119.45 -21.2 -116.9 -21.3 L-116.6 -21.3 -52.8 -21.3 -52.45 -21.3" fill="url(#gradient3)" fill-rule="evenodd" stroke="none"/>
      <path d="M-79.5 -49.6 L-79.5 -46.0 -81.95 -46.2 -84.7 -46.3 -84.75 -46.3 -84.75 -49.4 -84.75 -46.3 -87.4 -46.2 -89.85 -46.0 -89.85 -49.65 -87.4 -49.5 -84.75 -49.4 -81.95 -49.45 -79.5 -49.6 M-81.95 -49.45 L-81.95 -46.2 -81.95 -49.45 M-87.4 -49.5 L-87.4 -46.2 -87.4 -49.5" fill="#9e7f61" fill-opacity="0.9019608" fill-rule="evenodd" stroke="none"/>
      <path d="M-79.5 -46.0 Q-69.4 -44.75 -61.85 -38.5 -58.95 -36.1 -56.95 -33.4 -54.8 -30.5 -53.65 -27.25 -62.3 -23.05 -75.9 -23.05 -90.95 -23.05 -99.65 -28.55 -106.45 -32.8 -107.25 -38.7 -99.8 -44.8 -89.85 -46.0 L-87.4 -46.2 -84.75 -46.3 -84.7 -46.3 -81.95 -46.2 -79.5 -46.0" fill="#ff9900" fill-rule="evenodd" stroke="none"/>
      <path d="M-53.65 -27.25 Q-52.65 -24.45 -52.45 -21.3 L-52.8 -21.3 -116.6 -21.3 -116.9 -21.3 Q-116.2 -31.25 -107.55 -38.5 L-107.25 -38.7 Q-106.45 -32.8 -99.65 -28.55 -90.95 -23.05 -75.9 -23.05 -62.3 -23.05 -53.65 -27.25" fill="#cc7a00" fill-rule="evenodd" stroke="none"/>
      <path d="M-52.2 -8.05 L-52.2 -3.55 -117.2 -3.55 -117.2 -8.05 -116.6 -8.05 -52.8 -8.05 -52.2 -8.05 M-52.2 58.45 L-52.2 63.0 -52.8 62.95 -116.6 62.95 -117.2 63.0 -117.2 58.45 -52.2 58.45" fill="#232323" fill-opacity="0.98039216" fill-rule="evenodd" stroke="none"/>
      <path d="M-52.2 -3.55 L-52.2 58.45 -117.2 58.45 -117.2 -3.55 -52.2 -3.55" fill="url(#gradient4)" fill-rule="evenodd" stroke="none"/>
      <path d="M-52.2 63.0 Q-49.85 63.15 -48.15 64.85 -46.2 66.8 -46.2 69.55 L-46.2 69.6 Q-46.2 72.35 -48.15 74.25 -50.05 76.2 -52.8 76.2 L-116.6 76.2 Q-119.35 76.2 -121.3 74.25 -123.2 72.35 -123.2 69.6 L-123.2 69.55 Q-123.2 66.8 -121.3 64.85 -119.55 63.15 -117.2 63.0 L-116.6 62.95 -52.8 62.95 -52.2 63.0" fill="url(#gradient5)" fill-rule="evenodd" stroke="none"/>
      <path d="M-84.2 -67.9 Q-82.0 -67.9 -80.55 -66.45 -79.0 -64.9 -79.0 -62.75 -79.0 -60.6 -80.55 -59.15 -82.0 -57.6 -84.2 -57.6 -86.35 -57.6 -87.85 -59.15 -89.35 -60.6 -89.35 -62.75 -89.35 -64.9 -87.85 -66.45 -86.35 -67.9 -84.2 -67.9 M-84.2 -64.25 Q-83.55 -64.25 -83.1 -63.8 -82.65 -63.35 -82.65 -62.75 -82.65 -62.1 -83.1 -61.7 -83.55 -61.25 -84.2 -61.25 -84.8 -61.25 -85.25 -61.7 -85.7 -62.1 -85.7 -62.75 -85.7 -63.35 -85.25 -63.8 -84.8 -64.25 -84.2 -64.25 M-89.85 -49.65 L-94.4 -50.15 Q-96.55 -61.25 -94.4 -73.35 -92.75 -75.2 -88.65 -73.55 -83.85 -71.7 -80.15 -73.15 -77.45 -75.05 -74.65 -72.35 -73.1 -61.45 -75.05 -50.15 L-79.5 -49.6 -79.5 -46.0 Q-69.4 -44.75 -61.85 -38.5 -58.95 -36.1 -56.95 -33.4 -54.8 -30.5 -53.65 -27.25 -52.65 -24.45 -52.45 -21.3 -49.95 -21.2 -48.15 -19.4 -47.3 -18.55 -46.8 -17.55 -46.2 -16.25 -46.2 -14.7 L-46.2 -14.65 Q-46.2 -11.9 -48.15 -10.0 -49.85 -8.25 -52.2 -8.05 L-52.2 -3.55 -52.2 58.45 -52.2 63.0 Q-49.85 63.15 -48.15 64.85 -46.2 66.8 -46.2 69.55 L-46.2 69.6 Q-46.2 72.35 -48.15 74.25 -50.05 76.2 -52.8 76.2 L-116.6 76.2 Q-119.35 76.2 -121.3 74.25 -123.2 72.35 -123.2 69.6 L-123.2 69.55 Q-123.2 66.8 -121.3 64.85 -119.55 63.15 -117.2 63.0 L-117.2 58.45 -117.2 -3.55 -117.2 -8.05 Q-119.55 -8.25 -121.3 -10.0 -123.2 -11.9 -123.2 -14.65 L-123.2 -14.7 Q-123.2 -17.45 -121.3 -19.4 -119.45 -21.2 -116.9 -21.3 -116.2 -31.25 -107.55 -38.5 L-107.25 -38.7 Q-99.8 -44.8 -89.85 -46.0 L-89.85 -49.65 -87.4 -49.5 -84.75 -49.4 -81.95 -49.45 -79.5 -49.6 M-84.75 -49.4 L-84.75 -46.3 -84.7 -46.3 -81.95 -46.2 -81.95 -49.45 M-89.85 -46.0 L-87.4 -46.2 -87.4 -49.5 M-87.4 -46.2 L-84.75 -46.3 M-117.2 -8.05 L-116.6 -8.05 -52.8 -8.05 -52.2 -8.05 M-52.45 -21.3 L-52.8 -21.3 -116.6 -21.3 -116.9 -21.3 M-81.95 -46.2 L-79.5 -46.0 M-117.2 -3.55 L-52.2 -3.55 M-52.2 63.0 L-52.8 62.95 -116.6 62.95 -117.2 63.0 M-117.2 58.45 L-52.2 58.45" fill="none" stroke="#000000" stroke-linecap="round" stroke-linejoin="round" stroke-opacity="0.5019608" stroke-width="1.0"/>
      <path d="M140.45 -68.15 Q138.4 -68.15 137.0 -66.75 135.6 -65.3 135.6 -63.25 135.6 -61.2 137.0 -59.85 138.4 -58.4 140.45 -58.4 142.55 -58.4 143.9 -59.85 145.4 -61.2 145.4 -63.25 145.4 -65.3 143.9 -66.75 142.55 -68.15 140.45 -68.15 M137.45 -50.7 L135.1 -50.85 130.8 -51.3 Q128.75 -61.85 130.8 -73.3 132.35 -75.05 136.25 -73.5 140.8 -71.75 144.3 -73.1 146.85 -74.9 149.5 -72.35 150.95 -62.0 149.1 -51.3 L144.9 -50.8 142.6 -50.65 139.95 -50.6 137.45 -50.7" fill="#f9eadb" fill-rule="evenodd" stroke="none"/>
      <path d="M141.9 -63.7 L142.0 -63.8 142.3 -64.65 Q141.6 -65.35 140.7 -65.25 L139.5 -64.75 139.0 -65.2 Q138.5 -64.75 137.9 -63.25 137.25 -61.7 137.25 -60.95 137.25 -60.1 137.6 -59.85 L138.45 -59.5 Q139.75 -60.75 140.05 -61.9 L140.45 -61.85 Q141.05 -61.85 141.5 -62.25 141.95 -62.65 141.95 -63.25 L141.9 -63.7 M140.45 -68.15 Q142.55 -68.15 143.9 -66.75 145.4 -65.3 145.4 -63.25 145.4 -61.2 143.9 -59.85 142.55 -58.4 140.45 -58.4 138.4 -58.4 137.0 -59.85 135.6 -61.2 135.6 -63.25 135.6 -65.3 137.0 -66.75 138.4 -68.15 140.45 -68.15" fill="#c9ab8e" fill-opacity="0.9019608" fill-rule="evenodd" stroke="none"/>
      <path d="M141.9 -63.7 L141.95 -63.25 Q141.95 -62.65 141.5 -62.25 141.05 -61.85 140.45 -61.85 L140.05 -61.9 140.15 -62.6 140.15 -63.35 141.9 -63.7" fill="#826e5b" fill-opacity="0.9019608" fill-rule="evenodd" stroke="none"/>
      <path d="M140.05 -61.9 Q139.75 -60.75 138.45 -59.5 L137.6 -59.85 Q137.25 -60.1 137.25 -60.95 137.25 -61.7 137.9 -63.25 138.5 -64.75 139.0 -65.2 L139.5 -64.75 140.7 -65.25 Q141.6 -65.35 142.3 -64.65 L142.0 -63.8 141.9 -63.7 140.15 -63.35 140.15 -62.6 140.05 -61.9 M166.55 40.25 Q166.4 42.85 165.8 44.15 165.25 45.3 164.0 46.05 L162.85 45.75 162.0 45.05 Q161.55 44.55 161.55 43.65 161.55 42.25 163.15 41.35 164.5 40.55 166.55 40.25 M162.35 36.4 Q160.6 35.2 160.45 33.4 L161.15 33.3 161.9 33.4 Q162.7 33.55 163.0 33.85 L162.35 36.4 M164.0 0.55 Q163.45 2.05 161.95 2.05 L160.95 1.9 161.0 1.75 Q160.7 2.5 160.7 1.15 160.7 -0.2 160.85 0.2 L162.5 0.15 164.0 0.55 M153.65 10.2 Q150.6 12.3 148.6 12.3 146.3 12.3 145.55 9.9 L145.25 7.25 Q145.25 5.15 146.95 3.4 149.05 1.2 153.2 0.55 153.9 0.75 155.35 3.45 156.75 6.0 156.75 6.7 156.75 8.05 153.65 10.2 M155.65 43.5 L155.75 44.3 155.0 44.55 Q154.5 44.55 154.3 44.2 L154.75 43.6 155.65 43.5" fill="#99ffff" fill-opacity="0.9411765" fill-rule="evenodd" stroke="none"/>
      <path d="M135.1 -50.85 L137.45 -50.7 137.45 -47.6 137.45 -50.7 139.95 -50.6 142.6 -50.65 144.9 -50.8 144.9 -47.4 142.6 -47.6 140.0 -47.65 139.95 -47.65 137.45 -47.6 135.1 -47.4 135.1 -50.85 M142.6 -50.65 L142.6 -47.6 142.6 -50.65 M139.95 -50.6 L139.95 -47.65 139.95 -50.6" fill="#9e7f61" fill-opacity="0.9019608" fill-rule="evenodd" stroke="none"/>
      <path d="M109.5 -24.0 Q110.15 -33.4 118.35 -40.3 L118.6 -40.45 Q119.4 -34.9 125.8 -30.85 134.05 -25.65 148.3 -25.65 161.2 -25.65 169.4 -29.65 170.35 -27.0 170.55 -24.0 L170.2 -24.0 109.75 -24.0 109.5 -24.0" fill="#48c4c4" fill-rule="evenodd" stroke="none"/>
      <path d="M170.75 -11.45 L170.2 -11.45 109.75 -11.45 109.2 -11.45 Q106.95 -11.65 105.3 -13.3 103.5 -15.1 103.5 -17.7 L103.5 -17.75 Q103.5 -20.35 105.3 -22.2 107.05 -23.9 109.5 -24.0 L109.75 -24.0 170.2 -24.0 170.55 -24.0 Q172.9 -23.9 174.6 -22.2 L175.9 -20.45 Q176.45 -19.2 176.45 -17.75 L176.45 -17.7 Q176.45 -15.1 174.6 -13.3 173.0 -11.65 170.75 -11.45" fill="url(#gradient6)" fill-rule="evenodd" stroke="none"/>
      <path d="M109.2 -11.45 L109.75 -11.45 170.2 -11.45 170.75 -11.45 170.75 -7.2 109.2 -7.2 109.2 -11.45 M170.75 51.55 L170.75 55.85 170.2 55.8 109.75 55.8 109.2 55.85 109.2 51.55 170.75 51.55" fill="#232323" fill-rule="evenodd" stroke="none"/>
      <path d="M135.1 -47.4 L137.45 -47.6 139.95 -47.65 140.0 -47.65 142.6 -47.6 144.9 -47.4 Q154.5 -46.2 161.65 -40.3 164.35 -38.0 166.25 -35.45 168.3 -32.7 169.4 -29.65 161.2 -25.65 148.3 -25.65 134.05 -25.65 125.8 -30.85 119.4 -34.9 118.6 -40.45 125.7 -46.25 135.1 -47.4" fill="#99ffff" fill-rule="evenodd" stroke="none"/>
      <path d="M109.2 -7.2 L170.75 -7.2 170.75 51.55 109.2 51.55 109.2 -7.2 M164.0 0.55 L162.5 0.15 160.85 0.2 Q160.7 -0.2 160.7 1.15 160.7 2.5 161.0 1.75 L160.95 1.9 161.95 2.05 Q163.45 2.05 164.0 0.55 M162.35 36.4 L163.0 33.85 Q162.7 33.55 161.9 33.4 L161.15 33.3 160.45 33.4 Q160.6 35.2 162.35 36.4 M166.55 40.25 Q164.5 40.55 163.15 41.35 161.55 42.25 161.55 43.65 161.55 44.55 162.0 45.05 L162.85 45.75 164.0 46.05 Q165.25 45.3 165.8 44.15 166.4 42.85 166.55 40.25 M155.65 43.5 L154.75 43.6 154.3 44.2 Q154.5 44.55 155.0 44.55 L155.75 44.3 155.65 43.5 M153.65 10.2 Q156.75 8.05 156.75 6.7 156.75 6.0 155.35 3.45 153.9 0.75 153.2 0.55 149.05 1.2 146.95 3.4 145.25 5.15 145.25 7.25 L145.55 9.9 Q146.3 12.3 148.6 12.3 150.6 12.3 153.65 10.2" fill="url(#gradient7)" fill-rule="evenodd" stroke="none"/>
      <path d="M170.75 55.85 Q173.0 56.0 174.6 57.6 176.45 59.45 176.45 62.05 L176.45 62.1 Q176.45 64.7 174.6 66.5 172.8 68.35 170.2 68.35 L109.75 68.35 Q107.15 68.35 105.3 66.5 103.5 64.7 103.5 62.1 L103.5 62.05 Q103.5 59.45 105.3 57.6 106.95 56.0 109.2 55.85 L109.75 55.8 170.2 55.8 170.75 55.85" fill="url(#gradient8)" fill-rule="evenodd" stroke="none"/>
      <path d="M141.9 -63.7 L141.95 -63.25 Q141.95 -62.65 141.5 -62.25 141.05 -61.85 140.45 -61.85 L140.05 -61.9 M140.45 -68.15 Q142.55 -68.15 143.9 -66.75 145.4 -65.3 145.4 -63.25 145.4 -61.2 143.9 -59.85 142.55 -58.4 140.45 -58.4 138.4 -58.4 137.0 -59.85 135.6 -61.2 135.6 -63.25 135.6 -65.3 137.0 -66.75 138.4 -68.15 140.45 -68.15 M137.45 -50.7 L135.1 -50.85 135.1 -47.4 137.45 -47.6 137.45 -50.7 139.95 -50.6 142.6 -50.65 144.9 -50.8 149.1 -51.3 Q150.95 -62.0 149.5 -72.35 146.85 -74.9 144.3 -73.1 140.8 -71.75 136.25 -73.5 132.35 -75.05 130.8 -73.3 128.75 -61.85 130.8 -51.3 L135.1 -50.85 M109.5 -24.0 Q110.15 -33.4 118.35 -40.3 L118.6 -40.45 Q125.7 -46.25 135.1 -47.4 M109.2 -11.45 L109.75 -11.45 170.2 -11.45 170.75 -11.45 Q173.0 -11.65 174.6 -13.3 176.45 -15.1 176.45 -17.7 L176.45 -17.75 Q176.45 -19.2 175.9 -20.45 L174.6 -22.2 Q172.9 -23.9 170.55 -24.0 L170.2 -24.0 109.75 -24.0 109.5 -24.0 Q107.05 -23.9 105.3 -22.2 103.5 -20.35 103.5 -17.75 L103.5 -17.7 Q103.5 -15.1 105.3 -13.3 106.95 -11.65 109.2 -11.45 L109.2 -7.2 170.75 -7.2 170.75 -11.45 M144.9 -47.4 Q154.5 -46.2 161.65 -40.3 164.35 -38.0 166.25 -35.45 168.3 -32.7 169.4 -29.65 170.35 -27.0 170.55 -24.0 M142.6 -47.6 L144.9 -47.4 144.9 -50.8 M139.95 -47.65 L140.0 -47.65 142.6 -47.6 142.6 -50.65 M137.45 -47.6 L139.95 -47.65 139.95 -50.6 M170.75 51.55 L170.75 55.85 Q173.0 56.0 174.6 57.6 176.45 59.45 176.45 62.05 L176.45 62.1 Q176.45 64.7 174.6 66.5 172.8 68.35 170.2 68.35 L109.75 68.35 Q107.15 68.35 105.3 66.5 103.5 64.7 103.5 62.1 L103.5 62.05 Q103.5 59.45 105.3 57.6 106.95 56.0 109.2 55.85 L109.2 51.55 109.2 -7.2 M170.75 55.85 L170.2 55.8 109.75 55.8 109.2 55.85 M109.2 51.55 L170.75 51.55 170.75 -7.2" fill="none" stroke="#000000" stroke-linecap="round" stroke-linejoin="round" stroke-opacity="0.5019608" stroke-width="1.0"/>
      <path d="M77.1 -9.9 L77.7 -9.9 141.5 -9.9 142.1 -9.9 142.1 -5.4 77.1 -5.4 77.1 -9.9 M142.1 56.6 L142.1 61.15 141.5 61.1 77.7 61.1 77.1 61.15 77.1 56.6 142.1 56.6" fill="#232323" fill-rule="evenodd" stroke="none"/>
      <path d="M142.1 -9.9 L141.5 -9.9 77.7 -9.9 77.1 -9.9 Q74.75 -10.1 73.0 -11.85 71.1 -13.75 71.1 -16.5 L71.1 -16.55 Q71.1 -19.3 73.0 -21.25 74.85 -23.05 77.4 -23.15 L77.7 -23.15 141.5 -23.15 141.85 -23.15 Q144.35 -23.05 146.15 -21.25 L147.5 -19.4 Q148.1 -18.1 148.1 -16.55 L148.1 -16.5 Q148.1 -13.75 146.15 -11.85 144.45 -10.1 142.1 -9.9" fill="url(#gradient9)" fill-rule="evenodd" stroke="none"/>
      <path d="M141.85 -23.15 L141.5 -23.15 77.7 -23.15 77.4 -23.15 Q78.1 -33.1 86.75 -40.35 L87.05 -40.55 Q87.85 -34.65 94.65 -30.4 103.35 -24.9 118.4 -24.9 132.0 -24.9 140.65 -29.1 141.65 -26.3 141.85 -23.15" fill="#197219" fill-rule="evenodd" stroke="none"/>
      <path d="M104.45 -51.5 L99.9 -52.0 Q97.75 -63.1 99.9 -75.2 101.55 -77.05 105.65 -75.4 110.45 -73.55 114.15 -75.0 116.85 -76.9 119.65 -74.2 121.2 -63.3 119.25 -52.0 L114.8 -51.45 112.35 -51.3 109.55 -51.25 106.9 -51.35 104.45 -51.5 M115.3 -64.6 Q115.3 -66.75 113.75 -68.3 112.3 -69.75 110.1 -69.75 107.95 -69.75 106.45 -68.3 104.95 -66.75 104.95 -64.6 104.95 -62.45 106.45 -61.0 107.95 -59.45 110.1 -59.45 112.3 -59.45 113.75 -61.0 115.3 -62.45 115.3 -64.6" fill="#f9eadb" fill-opacity="0.9019608" fill-rule="evenodd" stroke="none"/>
      <path d="M115.3 -64.6 Q115.3 -62.45 113.75 -61.0 112.3 -59.45 110.1 -59.45 107.95 -59.45 106.45 -61.0 104.95 -62.45 104.95 -64.6 104.95 -66.75 106.45 -68.3 107.95 -69.75 110.1 -69.75 112.3 -69.75 113.75 -68.3 115.3 -66.75 115.3 -64.6 M109.05 -65.65 Q108.6 -65.2 108.6 -64.6 108.6 -63.95 109.05 -63.55 109.5 -63.1 110.1 -63.1 110.75 -63.1 111.2 -63.55 111.65 -63.95 111.65 -64.6 L111.2 -65.65 Q110.75 -66.1 110.1 -66.1 109.5 -66.1 109.05 -65.65" fill="#c9ab8e" fill-opacity="0.9019608" fill-rule="evenodd" stroke="none"/>
      <path d="M109.05 -65.65 Q109.5 -66.1 110.1 -66.1 110.75 -66.1 111.2 -65.65 L111.65 -64.6 Q111.65 -63.95 111.2 -63.55 110.75 -63.1 110.1 -63.1 109.5 -63.1 109.05 -63.55 108.6 -63.95 108.6 -64.6 108.6 -65.2 109.05 -65.65" fill="#826e5b" fill-opacity="0.9019608" fill-rule="evenodd" stroke="none"/>
      <path d="M114.8 -51.45 L114.8 -47.85 112.35 -48.05 109.6 -48.15 109.55 -48.15 106.9 -48.05 104.45 -47.85 104.45 -51.5 106.9 -51.35 106.9 -48.05 106.9 -51.35 109.55 -51.25 112.35 -51.3 114.8 -51.45 M112.35 -51.3 L112.35 -48.05 112.35 -51.3 M109.55 -51.25 L109.55 -48.15 109.55 -51.25" fill="#9e7f61" fill-opacity="0.9019608" fill-rule="evenodd" stroke="none"/>
      <path d="M114.8 -47.85 Q124.9 -46.6 132.45 -40.35 135.35 -37.95 137.35 -35.25 139.5 -32.35 140.65 -29.1 132.0 -24.9 118.4 -24.9 103.35 -24.9 94.65 -30.4 87.85 -34.65 87.05 -40.55 94.5 -46.65 104.45 -47.85 L106.9 -48.05 109.55 -48.15 109.6 -48.15 112.35 -48.05 114.8 -47.85" fill="#339933" fill-rule="evenodd" stroke="none"/>
      <path d="M77.1 -5.4 L142.1 -5.4 142.1 56.6 77.1 56.6 77.1 -5.4" fill="url(#gradient10)" fill-rule="evenodd" stroke="none"/>
      <path d="M142.1 61.15 Q144.45 61.3 146.15 63.0 148.1 64.95 148.1 67.7 L148.1 67.75 Q148.1 70.5 146.15 72.4 144.25 74.35 141.5 74.35 L77.7 74.35 Q74.95 74.35 73.0 72.4 71.1 70.5 71.1 67.75 L71.1 67.7 Q71.1 64.95 73.0 63.0 74.75 61.3 77.1 61.15 L77.7 61.1 141.5 61.1 142.1 61.15" fill="url(#gradient11)" fill-rule="evenodd" stroke="none"/>
      <path d="M77.1 -9.9 L77.7 -9.9 141.5 -9.9 142.1 -9.9 Q144.45 -10.1 146.15 -11.85 148.1 -13.75 148.1 -16.5 L148.1 -16.55 Q148.1 -18.1 147.5 -19.4 L146.15 -21.25 Q144.35 -23.05 141.85 -23.15 L141.5 -23.15 77.7 -23.15 77.4 -23.15 Q74.85 -23.05 73.0 -21.25 71.1 -19.3 71.1 -16.55 L71.1 -16.5 Q71.1 -13.75 73.0 -11.85 74.75 -10.1 77.1 -9.9 L77.1 -5.4 142.1 -5.4 142.1 -9.9 M104.45 -51.5 L99.9 -52.0 Q97.75 -63.1 99.9 -75.2 101.55 -77.05 105.65 -75.4 110.45 -73.55 114.15 -75.0 116.85 -76.9 119.65 -74.2 121.2 -63.3 119.25 -52.0 L114.8 -51.45 114.8 -47.85 Q124.9 -46.6 132.45 -40.35 135.35 -37.95 137.35 -35.25 139.5 -32.35 140.65 -29.1 141.65 -26.3 141.85 -23.15 M115.3 -64.6 Q115.3 -62.45 113.75 -61.0 112.3 -59.45 110.1 -59.45 107.95 -59.45 106.45 -61.0 104.95 -62.45 104.95 -64.6 104.95 -66.75 106.45 -68.3 107.95 -69.75 110.1 -69.75 112.3 -69.75 113.75 -68.3 115.3 -66.75 115.3 -64.6 M109.05 -65.65 Q109.5 -66.1 110.1 -66.1 110.75 -66.1 111.2 -65.65 L111.65 -64.6 Q111.65 -63.95 111.2 -63.55 110.75 -63.1 110.1 -63.1 109.5 -63.1 109.05 -63.55 108.6 -63.95 108.6 -64.6 108.6 -65.2 109.05 -65.65 M106.9 -51.35 L104.45 -51.5 104.45 -47.85 106.9 -48.05 106.9 -51.35 109.55 -51.25 112.35 -51.3 114.8 -51.45 M112.35 -48.05 L114.8 -47.85 M109.55 -48.15 L109.6 -48.15 112.35 -48.05 112.35 -51.3 M106.9 -48.05 L109.55 -48.15 109.55 -51.25 M77.4 -23.15 Q78.1 -33.1 86.75 -40.35 L87.05 -40.55 Q94.5 -46.65 104.45 -47.85 M142.1 56.6 L142.1 61.15 Q144.45 61.3 146.15 63.0 148.1 64.95 148.1 67.7 L148.1 67.75 Q148.1 70.5 146.15 72.4 144.25 74.35 141.5 74.35 L77.7 74.35 Q74.95 74.35 73.0 72.4 71.1 70.5 71.1 67.75 L71.1 67.7 Q71.1 64.95 73.0 63.0 74.75 61.3 77.1 61.15 L77.1 56.6 77.1 -5.4 M142.1 61.15 L141.5 61.1 77.7 61.1 77.1 61.15 M77.1 56.6 L142.1 56.6 142.1 -5.4" fill="none" stroke="#000000" stroke-linecap="round" stroke-linejoin="round" stroke-opacity="0.5019608" stroke-width="1.0"/>
      <path d="M116.15 -72.6 L113.6 -72.45 113.4 -72.75 113.2 -73.35 113.35 -74.45 Q115.4 -74.45 116.15 -73.45 L116.15 -72.6 M112.2 -72.45 L113.75 -72.15 Q113.55 -71.55 112.85 -71.35 108.65 -71.6 107.3 -72.2 L107.2 -72.3 106.7 -72.3 105.25 -72.7 Q104.95 -73.15 104.95 -74.0 L106.7 -74.05 111.75 -74.0 112.25 -73.8 113.05 -73.25 Q113.05 -73.0 112.6 -72.7 L112.2 -72.45 M113.6 -68.35 L113.75 -67.35 113.7 -66.2 113.6 -66.1 Q112.85 -65.65 112.3 -65.5 110.85 -66.9 110.85 -67.3 110.85 -69.2 113.4 -68.65 L113.6 -68.35 M105.9 -63.3 Q105.9 -65.3 107.7 -66.5 109.5 -67.75 110.2 -64.8 L110.65 -64.85 Q110.85 -65.05 110.85 -65.35 111.35 -65.35 111.5 -64.95 L110.75 -64.25 111.2 -64.25 111.65 -62.95 111.35 -62.25 110.65 -61.9 109.85 -62.6 109.75 -62.4 Q109.25 -61.05 107.25 -61.1 106.25 -61.35 106.0 -62.2 L105.9 -63.3 M96.45 -14.55 Q94.9 -16.1 94.9 -16.45 94.9 -16.85 95.85 -19.4 96.8 -22.0 97.1 -22.4 101.7 -24.2 103.55 -22.3 104.7 -21.15 104.7 -18.55 104.7 -17.05 103.25 -15.1 101.5 -12.85 99.25 -12.85 98.15 -12.85 96.45 -14.55 M89.8 -20.8 L89.9 -19.9 Q89.9 -19.25 89.35 -18.2 88.7 -17.0 88.0 -16.8 86.45 -18.3 86.45 -18.9 86.45 -20.65 86.7 -20.85 L89.65 -20.95 89.8 -20.8 M136.15 -17.05 Q135.75 -16.25 134.05 -16.25 L133.85 -16.55 133.65 -17.15 133.75 -18.25 134.75 -18.25 136.15 -17.05 M124.6 1.9 Q124.95 2.0 124.95 2.85 124.95 4.5 122.0 5.05 L120.85 4.4 Q121.5 3.4 122.45 2.55 L123.75 1.75 124.6 1.9 M109.55 9.0 Q108.05 11.0 106.15 11.0 103.65 11.0 102.45 6.95 101.75 4.55 101.75 2.6 101.75 1.05 103.15 0.45 L106.3 0.4 Q110.8 1.55 110.8 5.55 110.8 7.2 109.55 9.0 M117.65 21.8 Q118.85 20.5 120.45 21.2 L120.65 21.6 Q120.85 21.85 120.85 22.65 120.85 23.85 119.9 24.65 119.1 25.35 118.3 25.35 L117.25 25.2 117.25 25.05 116.9 24.8 Q116.7 24.6 116.7 23.75 116.7 22.8 117.65 21.8 M85.65 23.9 L87.1 25.7 Q87.1 27.55 85.25 27.75 L84.8 27.1 84.7 25.85 84.8 24.05 85.65 23.9 M94.35 31.4 Q97.45 31.2 97.45 34.4 97.45 35.9 97.1 36.7 96.6 37.65 95.25 38.05 L93.6 38.05 Q91.2 36.5 91.2 35.25 91.2 31.6 94.35 31.4 M88.55 42.35 Q90.1 43.1 93.05 48.8 93.05 50.95 90.75 53.3 88.15 56.0 84.8 56.0 79.85 56.0 79.85 50.45 79.85 47.4 81.35 45.25 83.6 42.05 88.55 42.35 M101.8 48.45 Q103.0 48.95 103.5 50.6 L103.05 50.95 101.8 51.15 100.65 51.0 99.65 50.85 99.0 49.25 Q100.5 47.9 101.8 48.45" fill="#339933" fill-rule="evenodd" stroke="none"/>
      <path d="M52.3 32.0 Q36.3 34.3 20.15 30.5 16.75 23.45 21.2 16.4 38.1 15.5 53.4 17.9 57.9 25.15 52.3 32.0" fill="url(#gradient12)" fill-rule="evenodd" stroke="none"/>
      <path d="M52.3 32.0 Q36.3 34.3 20.15 30.5 16.75 23.45 21.2 16.4 38.1 15.5 53.4 17.9 57.9 25.15 52.3 32.0 Z" fill="none" stroke="#000000" stroke-linecap="round" stroke-linejoin="round" stroke-opacity="0.5019608" stroke-width="1.0"/>
      <path d="M-88.6 -68.25 Q-88.3 -67.1 -90.75 -65.1 L-91.8 -66.05 -92.45 -66.85 Q-92.45 -68.25 -90.95 -69.15 -89.8 -69.9 -88.85 -69.9 L-88.6 -68.25 M-83.7 -64.9 L-84.45 -65.65 -84.7 -66.3 -84.45 -67.35 -79.65 -67.9 Q-79.65 -66.45 -80.3 -65.5 -81.05 -64.45 -82.25 -64.45 -83.15 -64.45 -83.7 -64.9 M-82.95 -57.85 Q-82.85 -56.8 -82.9 -54.75 L-82.95 -51.9 -83.15 -43.75 -84.75 -43.2 -85.2 -49.85 -85.55 -49.75 -87.1 -51.1 -88.05 -53.0 -88.05 -56.85 -86.8 -57.05 Q-85.9 -57.0 -85.5 -56.55 L-84.9 -58.45 -84.45 -63.8 Q-83.05 -62.95 -82.9 -61.05 L-82.95 -57.85 M-97.9 -0.05 Q-97.25 0.8 -97.25 3.0 -97.25 5.15 -98.75 6.95 -100.5 9.0 -103.15 9.0 -105.2 9.0 -106.3 5.25 -106.85 3.35 -107.0 1.35 -107.0 0.15 -106.6 -0.5 -106.0 -1.4 -103.8 -2.65 -99.25 -1.85 -97.9 -0.05 M-78.3 -59.0 L-77.95 -57.75 Q-78.35 -57.2 -79.8 -57.2 L-80.25 -57.3 -80.3 -58.2 Q-80.3 -59.45 -78.65 -60.25 -78.4 -59.85 -78.3 -59.0 M-59.05 -27.5 L-56.1 -27.2 Q-55.65 -27.95 -55.65 -26.6 -55.65 -25.85 -56.2 -25.05 -57.0 -23.95 -58.4 -23.95 L-59.55 -24.15 -60.25 -24.65 -60.35 -24.95 -60.5 -25.95 Q-60.5 -27.5 -59.05 -27.5 M-62.2 -31.75 Q-63.55 -29.45 -65.75 -29.45 -67.65 -29.45 -68.05 -30.45 -68.25 -31.0 -68.05 -31.65 -68.05 -34.45 -64.55 -36.8 -61.1 -39.1 -61.1 -35.2 -61.1 -33.55 -62.2 -31.75 M-61.1 -15.45 L-59.25 -15.15 -58.95 -14.7 -59.65 -13.85 -61.15 -13.75 Q-61.15 -14.15 -61.5 -14.75 L-61.1 -15.45 M-69.75 -5.1 L-70.8 -4.95 -71.75 -5.15 -71.7 -5.35 -70.9 -6.15 Q-70.5 -6.3 -69.6 -5.6 L-69.75 -5.1 M-68.05 41.9 Q-68.05 40.3 -66.45 39.2 -64.9 38.15 -62.8 38.25 L-62.55 38.6 -62.35 39.7 Q-62.35 40.95 -63.95 42.5 -65.45 43.9 -66.3 43.9 -67.55 43.9 -67.9 43.0 L-68.05 41.9 M-57.1 38.25 L-56.9 38.6 -56.7 39.7 Q-56.7 41.35 -58.7 41.35 L-60.35 41.1 -60.45 40.8 -60.6 39.8 Q-60.6 38.55 -59.8 38.25 -59.05 37.9 -57.1 38.25 M-60.6 61.25 Q-63.6 64.35 -67.75 64.35 -71.35 64.35 -73.0 61.95 -74.0 60.5 -74.0 58.9 -74.0 57.65 -71.5 55.8 -69.05 54.0 -66.0 52.95 -58.05 50.2 -58.05 56.1 -58.05 58.6 -60.6 61.25 M-54.0 55.55 Q-56.15 56.85 -56.7 56.95 L-57.65 56.6 Q-58.05 56.3 -58.05 55.4 L-57.2 54.2 -55.95 53.0 -55.2 54.1 -54.0 55.55 M-90.85 0.3 Q-88.5 0.4 -87.9 4.05 L-88.35 4.85 Q-88.7 5.2 -89.65 5.2 -93.15 5.2 -93.15 2.4 -93.15 0.25 -90.85 0.3 M-106.7 56.85 L-106.45 57.75 Q-106.8 58.5 -107.8 58.85 L-108.5 58.55 -108.75 57.45 Q-108.75 56.7 -108.2 56.3 -107.65 55.9 -107.0 56.0 -106.8 56.2 -106.7 56.85" fill="#ff9900" fill-rule="evenodd" stroke="none"/>
    </g>
    <linearGradient gradientTransform="matrix(0.0131, -0.0075, 0.0038, 0.0066, -110.35, -18.1)" gradientUnits="userSpaceOnUse" id="gradient0" spreadMethod="pad" x1="-819.2" x2="819.2">
      <stop offset="0.0" stop-color="#979797"/>
      <stop offset="1.0" stop-color="#ffffff"/>
    </linearGradient>
    <linearGradient gradientTransform="matrix(0.0223, 0.0, 0.0, 0.0358, -120.8, 25.1)" gradientUnits="userSpaceOnUse" id="gradient1" spreadMethod="pad" x1="-819.2" x2="819.2">
      <stop offset="0.0" stop-color="#0c0c0c"/>
      <stop offset="1.0" stop-color="#333333"/>
    </linearGradient>
    <linearGradient gradientTransform="matrix(0.0187, -0.005, 0.002, 0.0074, -100.85, 62.25)" gradientUnits="userSpaceOnUse" id="gradient2" spreadMethod="pad" x1="-819.2" x2="819.2">
      <stop offset="0.0" stop-color="#979797"/>
      <stop offset="1.0" stop-color="#ffffff"/>
    </linearGradient>
    <linearGradient gradientTransform="matrix(0.0138, -0.008, 0.004, 0.007, -62.15, -16.65)" gradientUnits="userSpaceOnUse" id="gradient3" spreadMethod="pad" x1="-819.2" x2="819.2">
      <stop offset="0.0" stop-color="#979797"/>
      <stop offset="1.0" stop-color="#ffffff"/>
    </linearGradient>
    <linearGradient gradientTransform="matrix(0.0235, 0.0, 0.0, 0.0378, -73.15, 28.95)" gradientUnits="userSpaceOnUse" id="gradient4" spreadMethod="pad" x1="-819.2" x2="819.2">
      <stop offset="0.0" stop-color="#0c0c0c"/>
      <stop offset="1.0" stop-color="#333333"/>
    </linearGradient>
    <linearGradient gradientTransform="matrix(0.0197, -0.0053, 0.0021, 0.0078, -52.1, 68.15)" gradientUnits="userSpaceOnUse" id="gradient5" spreadMethod="pad" x1="-819.2" x2="819.2">
      <stop offset="0.0" stop-color="#979797"/>
      <stop offset="1.0" stop-color="#ffffff"/>
    </linearGradient>
    <linearGradient gradientTransform="matrix(0.0131, -0.0075, 0.0038, 0.0066, 161.35, -19.6)" gradientUnits="userSpaceOnUse" id="gradient6" spreadMethod="pad" x1="-819.2" x2="819.2">
      <stop offset="0.0" stop-color="#979797"/>
      <stop offset="1.0" stop-color="#ffffff"/>
    </linearGradient>
    <linearGradient gradientTransform="matrix(0.0223, 0.0, 0.0, 0.0358, 150.9, 23.6)" gradientUnits="userSpaceOnUse" id="gradient7" spreadMethod="pad" x1="-819.2" x2="819.2">
      <stop offset="0.0" stop-color="#0c0c0c"/>
      <stop offset="1.0" stop-color="#333333"/>
    </linearGradient>
    <linearGradient gradientTransform="matrix(0.0187, -0.005, 0.002, 0.0074, 170.85, 60.75)" gradientUnits="userSpaceOnUse" id="gradient8" spreadMethod="pad" x1="-819.2" x2="819.2">
      <stop offset="0.0" stop-color="#979797"/>
      <stop offset="1.0" stop-color="#ffffff"/>
    </linearGradient>
    <linearGradient gradientTransform="matrix(0.0138, -0.008, 0.004, 0.007, 132.15, -18.5)" gradientUnits="userSpaceOnUse" id="gradient9" spreadMethod="pad" x1="-819.2" x2="819.2">
      <stop offset="0.0" stop-color="#979797"/>
      <stop offset="1.0" stop-color="#ffffff"/>
    </linearGradient>
    <linearGradient gradientTransform="matrix(0.0235, 0.0, 0.0, 0.0378, 121.15, 27.1)" gradientUnits="userSpaceOnUse" id="gradient10" spreadMethod="pad" x1="-819.2" x2="819.2">
      <stop offset="0.0" stop-color="#0c0c0c"/>
      <stop offset="1.0" stop-color="#333333"/>
    </linearGradient>
    <linearGradient gradientTransform="matrix(0.0197, -0.0053, 0.0021, 0.0078, 142.2, 66.3)" gradientUnits="userSpaceOnUse" id="gradient11" spreadMethod="pad" x1="-819.2" x2="819.2">
      <stop offset="0.0" stop-color="#979797"/>
      <stop offset="1.0" stop-color="#ffffff"/>
    </linearGradient>
    <linearGradient gradientTransform="matrix(0.0, -0.0075, 0.0141, 0.0, 35.4, 19.05)" gradientUnits="userSpaceOnUse" id="gradient12" spreadMethod="pad" x1="-819.2" x2="819.2">
      <stop offset="0.0" stop-color="#ffbb00"/>
      <stop offset="0.9725490196078431" stop-color="#ffff00"/>
    </linearGradient>
  </defs>
</svg>
