<?xml version="1.0" encoding="UTF-8" standalone="no"?>
<svg xmlns:xlink="http://www.w3.org/1999/xlink" height="531.5px" width="460.6px" xmlns="http://www.w3.org/2000/svg">
  <g transform="matrix(1.0, 0.0, 0.0, 1.0, 193.65, 334.05)">
    <use height="38.7" transform="matrix(1.0, 0.0, 0.0, 1.0, -81.0, -174.45)" width="149.8" xlink:href="#shape0"/>
  </g>
  <defs>
    <g id="shape0" transform="matrix(1.0, 0.0, 0.0, 1.0, 74.9, 19.35)">
      <path d="M-2.9 -5.0 L-3.45 -5.3 -2.7 -5.15 -2.9 -5.0" fill="#000000" fill-rule="evenodd" stroke="none"/>
      <path d="M-63.15 -12.45 L-61.7 -12.7 -35.7 -15.55 -31.2 -15.95 -31.65 -12.8 -41.2 -11.3 -49.95 -9.7 -56.95 -8.6 Q-60.5 -7.9 -61.9 -6.6 -63.05 -5.5 -63.5 -3.25 -64.2 -1.85 -66.0 5.3 -67.35 10.4 -69.0 10.4 L-70.75 10.35 Q-70.05 5.3 -67.75 -1.05 L-66.45 -4.2 -65.45 -6.65 -63.15 -12.45" fill="#333333" fill-rule="evenodd" stroke="none"/>
      <path d="M-65.45 -13.05 L-61.65 -14.2 -39.8 -16.9 -35.7 -17.25 -30.6 -17.6 -27.6 -17.75 -24.15 -17.75 -24.55 -17.25 -24.4 -17.25 Q-23.65 -17.05 -23.65 -15.65 -23.65 -14.75 -24.0 -13.6 L-24.25 -12.95 -24.05 -12.8 -23.9 -12.25 Q-23.9 -11.25 -26.45 -11.0 L-31.85 -10.35 -36.25 -9.65 -39.2 -9.05 Q-45.85 -7.7 -52.45 -7.15 L-56.95 -6.4 Q-59.15 -5.85 -60.15 -5.0 -61.45 -3.9 -62.05 -1.5 -62.75 -0.35 -63.15 1.95 -63.7 4.65 -64.0 5.5 L-65.9 10.85 Q-66.65 12.4 -68.75 12.4 L-70.95 12.35 Q-73.6 12.15 -74.5 11.4 -74.9 11.1 -74.9 10.05 -74.9 8.35 -72.6 0.75 L-71.05 -4.2 Q-69.65 -7.75 -67.75 -10.95 L-66.6 -12.7 -65.45 -13.05 M-31.2 -15.95 L-35.7 -15.55 -61.7 -12.7 -63.15 -12.45 -65.1 -11.6 -65.45 -11.2 -69.1 -4.2 Q-70.3 -1.35 -71.2 2.35 L-72.9 10.25 -70.75 10.35 -69.0 10.4 Q-67.35 10.4 -66.0 5.3 -64.2 -1.85 -63.5 -3.25 -63.05 -5.5 -61.9 -6.6 -60.5 -7.9 -56.95 -8.6 L-49.95 -9.7 -41.2 -11.3 -31.65 -12.8 -26.6 -13.3 -25.3 -13.2 -24.75 -16.0 Q-26.1 -16.1 -26.75 -16.45 L-27.5 -16.35 -31.2 -15.95" fill="#000000" fill-rule="evenodd" stroke="none"/>
      <path d="M-63.15 -12.45 L-65.45 -6.65 -66.45 -4.2 -67.75 -1.05 Q-70.05 5.3 -70.75 10.35 L-72.9 10.25 -71.2 2.35 Q-70.3 -1.35 -69.1 -4.2 L-65.45 -11.2 -65.1 -11.6 -63.15 -12.45" fill="#5c5c5c" fill-rule="evenodd" stroke="none"/>
      <path d="M-31.65 -12.8 L-31.2 -15.95 -27.5 -16.35 -26.75 -16.45 Q-26.1 -16.1 -24.75 -16.0 L-25.3 -13.2 -26.6 -13.3 -31.65 -12.8" fill="#1a1a1a" fill-rule="evenodd" stroke="none"/>
      <path d="M-24.2 -13.15 L-11.6 -12.25 2.2 -11.4 10.65 -11.2 16.95 -11.3 18.35 -11.4 25.95 -11.8 26.95 -11.85 Q27.9 -11.9 27.9 -12.1 L27.45 -14.55 Q27.2 -16.1 26.5 -16.75 L26.35 -16.8 23.3 -17.2 Q15.7 -17.4 8.3 -17.2 L-0.75 -17.1 -14.6 -16.8 -23.85 -16.55 -25.4 -16.5 -26.9 -16.35 -26.9 -13.5 -24.2 -13.15 M29.05 -16.1 L29.5 -14.0 34.2 -13.75 34.25 -13.75 34.1 -15.4 Q34.1 -17.8 36.25 -18.45 L50.6 -19.25 71.75 -18.15 Q74.9 -17.1 74.9 -13.1 L74.9 -11.5 74.35 -11.2 73.65 -11.0 73.5 -10.85 73.15 -10.65 73.15 -10.55 72.85 -10.25 72.75 -10.25 71.85 -10.2 72.25 -9.1 72.6 -7.7 Q73.1 -4.9 73.1 -1.25 73.1 0.6 72.15 4.25 71.25 7.6 70.55 9.1 69.3 11.65 67.15 13.75 L63.4 16.5 63.1 16.65 62.9 16.75 61.25 17.35 57.05 17.95 53.9 17.75 Q49.25 17.25 45.6 14.95 42.65 13.05 40.4 10.1 37.7 6.55 36.85 3.75 L36.8 3.55 36.55 3.0 36.1 1.7 Q35.45 0.1 35.45 -1.05 L35.55 -1.8 33.15 -1.65 32.7 -1.65 Q30.1 -1.7 28.75 -2.65 27.9 8.15 22.15 13.55 L21.7 13.95 21.5 14.1 Q18.55 16.6 14.25 17.9 9.45 19.35 3.0 19.35 -3.4 19.35 -8.45 17.9 L-11.0 17.05 -13.0 16.2 Q-20.65 12.5 -23.15 4.9 L-24.55 0.85 Q-25.45 -1.65 -25.65 -3.25 -26.0 -5.6 -26.0 -11.0 L-25.95 -11.25 -28.05 -11.5 Q-28.85 -12.15 -28.85 -14.9 L-28.65 -16.35 -28.0 -17.4 -26.85 -18.65 -25.4 -18.7 -23.3 -18.7 -12.8 -18.85 Q-2.0 -18.9 8.3 -19.1 L11.5 -19.2 Q19.0 -19.55 26.35 -19.05 28.2 -18.3 29.05 -16.1 M30.55 -12.25 L29.75 -12.3 29.8 -11.25 29.95 -10.55 Q29.9 -10.05 28.6 -9.8 L28.55 -9.8 28.8 -8.7 28.85 -6.45 28.85 -4.95 30.15 -4.4 Q31.35 -3.7 32.7 -3.65 L33.1 -3.65 Q35.9 -3.65 36.55 -5.25 36.8 -6.0 36.55 -6.85 36.55 -10.4 35.15 -11.5 L34.75 -11.85 33.9 -11.9 30.55 -12.25 M39.95 -11.85 L42.75 -11.85 54.5 -11.4 61.55 -11.2 66.05 -11.2 70.65 -11.3 70.85 -11.5 70.8 -11.3 71.15 -11.4 Q72.7 -11.6 73.1 -12.15 L73.1 -13.35 73.15 -15.3 Q72.95 -16.15 71.75 -16.5 L50.6 -17.45 39.45 -17.4 37.75 -17.3 Q36.35 -17.1 36.05 -16.35 L35.45 -13.2 37.05 -11.8 39.95 -11.85 M56.7 -9.6 L55.85 -9.7 54.5 -9.7 53.9 -9.75 37.95 -10.15 38.45 -4.95 Q38.45 -3.25 37.15 -2.4 L38.4 1.85 Q39.3 4.8 40.7 7.15 43.15 11.25 48.1 13.5 L48.6 13.7 Q51.25 14.8 53.9 15.2 L57.0 15.4 58.8 15.35 Q66.1 14.5 69.25 6.35 71.35 0.85 71.35 -7.4 71.35 -7.9 70.6 -8.85 L70.35 -9.1 69.5 -9.95 65.2 -9.6 60.35 -9.55 56.7 -9.6 M-1.4 16.6 L2.85 16.7 9.05 16.4 Q13.65 15.8 16.8 14.3 22.95 11.25 25.2 3.85 27.75 -4.65 26.7 -9.55 L14.95 -9.15 10.7 -9.15 1.05 -9.6 -22.0 -10.9 -24.35 -11.1 Q-23.95 -10.55 -23.95 -9.5 -24.2 -6.4 -23.9 -5.3 -23.3 -2.2 -21.45 2.75 L-19.75 6.9 Q-18.6 9.2 -17.0 10.8 -15.3 12.5 -12.3 13.9 L-9.6 14.95 Q-5.95 16.2 -1.4 16.6" fill="#000000" fill-rule="evenodd" stroke="none"/>
      <path d="M48.1 13.5 Q43.15 11.25 40.7 7.15 39.3 4.8 38.4 1.85 L37.15 -2.4 Q38.45 -3.25 38.45 -4.95 L37.95 -10.15 53.9 -9.75 54.5 -9.7 55.85 -9.7 56.7 -9.6 Q55.55 -8.05 54.35 -5.95 52.4 -2.5 52.4 -1.25 52.4 -0.7 53.2 0.1 54.0 0.85 54.0 2.5 54.0 3.95 52.4 7.35 50.9 10.5 49.7 12.0 L48.1 13.5 M65.2 -9.6 L69.5 -9.95 70.35 -9.1 70.6 -8.85 Q71.35 -7.9 71.35 -7.4 71.35 0.85 69.25 6.35 66.1 14.5 58.8 15.35 58.35 14.0 58.35 11.4 58.35 5.9 59.55 1.7 61.1 -3.65 65.2 -9.6 M1.05 -9.6 L-0.55 -7.3 Q-4.15 -2.1 -4.15 -1.15 -4.15 -0.8 -2.8 -0.1 -1.45 0.55 -1.45 1.45 -1.45 2.85 -6.9 10.9 L-8.75 13.7 Q-11.4 12.1 -13.7 9.9 -19.35 4.55 -21.15 -3.35 -22.0 -7.05 -22.0 -10.9 L1.05 -9.6 M9.05 16.4 Q5.95 16.25 4.65 15.05 3.2 13.9 3.2 11.45 3.2 7.0 8.15 -0.45 11.05 -4.75 14.95 -9.15 L26.7 -9.55 Q27.75 -4.65 25.2 3.85 22.95 11.25 16.8 14.3 13.65 15.8 9.05 16.4" fill="#151515" fill-rule="evenodd" stroke="none"/>
      <path d="M-23.85 -16.55 L-14.6 -16.8 -0.75 -17.1 8.3 -17.2 Q15.7 -17.4 23.3 -17.2 L26.35 -16.8 26.5 -16.75 Q27.2 -16.1 27.45 -14.55 L27.9 -12.1 Q27.9 -11.9 26.95 -11.85 L25.95 -11.8 18.35 -11.4 16.95 -11.3 10.65 -11.2 2.2 -11.4 -11.6 -12.25 -24.2 -13.15 -24.2 -13.55 -23.85 -16.55 M32.7 -3.65 L32.5 -8.15 Q32.4 -10.25 31.75 -11.2 L30.55 -12.25 33.9 -11.9 34.75 -11.85 35.15 -11.5 Q36.55 -10.4 36.55 -6.85 36.8 -6.0 36.55 -5.25 35.9 -3.65 33.1 -3.65 L32.7 -3.65 M39.95 -11.85 Q39.65 -13.0 39.3 -15.05 38.85 -16.55 37.75 -17.3 L39.45 -17.4 50.6 -17.45 71.75 -16.5 Q72.95 -16.15 73.15 -15.3 L73.1 -13.35 73.1 -12.15 Q72.7 -11.6 71.15 -11.4 L70.8 -11.3 70.85 -11.5 70.65 -11.3 66.05 -11.2 61.55 -11.2 54.5 -11.4 42.75 -11.85 39.95 -11.85" fill="#333333" fill-rule="evenodd" stroke="none"/>
      <path d="M-23.85 -16.55 L-24.2 -13.55 -24.2 -13.15 -26.9 -13.5 -26.9 -16.35 -25.4 -16.5 -23.85 -16.55 M32.7 -3.65 Q31.35 -3.7 30.15 -4.4 L28.85 -4.95 28.85 -6.45 28.8 -8.7 28.55 -9.8 28.6 -9.8 Q29.9 -10.05 29.95 -10.55 L29.8 -11.25 29.75 -12.3 30.55 -12.25 31.75 -11.2 Q32.4 -10.25 32.5 -8.15 L32.7 -3.65 M37.75 -17.3 Q38.85 -16.55 39.3 -15.05 39.65 -13.0 39.95 -11.85 L37.05 -11.8 35.45 -13.2 36.05 -16.35 Q36.35 -17.1 37.75 -17.3" fill="#1a1a1a" fill-rule="evenodd" stroke="none"/>
      <path d="M-8.75 13.7 Q-5.35 15.65 -1.4 16.6 -5.95 16.2 -9.6 14.95 L-12.3 13.9 Q-15.3 12.5 -17.0 10.8 -18.6 9.2 -19.75 6.9 L-21.45 2.75 Q-23.3 -2.2 -23.9 -5.3 -24.2 -6.4 -23.95 -9.5 -23.95 -10.55 -24.35 -11.1 L-22.0 -10.9 Q-22.0 -7.05 -21.15 -3.35 -19.35 4.55 -13.7 9.9 -11.4 12.1 -8.75 13.7" fill="#4f4f4f" fill-rule="evenodd" stroke="none"/>
      <path d="M48.1 13.5 L49.7 12.0 Q50.9 10.5 52.4 7.35 54.0 3.95 54.0 2.5 54.0 0.85 53.2 0.1 52.4 -0.7 52.4 -1.25 52.4 -2.5 54.35 -5.95 55.55 -8.05 56.7 -9.6 L60.35 -9.55 65.2 -9.6 Q61.1 -3.65 59.55 1.7 58.35 5.9 58.35 11.4 58.35 14.0 58.8 15.35 L57.0 15.4 53.9 15.2 Q51.25 14.8 48.6 13.7 L48.1 13.5 M-8.75 13.7 L-6.9 10.9 Q-1.45 2.85 -1.45 1.45 -1.45 0.55 -2.8 -0.1 -4.15 -0.8 -4.15 -1.15 -4.15 -2.1 -0.55 -7.3 L1.05 -9.6 10.7 -9.15 14.95 -9.15 Q11.05 -4.75 8.15 -0.45 3.2 7.0 3.2 11.45 3.2 13.9 4.65 15.05 5.95 16.25 9.05 16.4 L2.85 16.7 -1.4 16.6 Q-5.35 15.65 -8.75 13.7" fill="#b3b3b3" fill-rule="evenodd" stroke="none"/>
    </g>
  </defs>
</svg>
