<?xml version="1.0" encoding="UTF-8" standalone="no"?>
<svg xmlns:xlink="http://www.w3.org/1999/xlink" height="531.5px" width="460.6px" xmlns="http://www.w3.org/2000/svg">
  <g transform="matrix(1.0, 0.0, 0.0, 1.0, 193.65, 334.05)">
    <use height="62.05" transform="matrix(1.0, 0.0, 0.0, 1.0, -76.0, -27.4)" width="141.0" xlink:href="#shape0"/>
  </g>
  <defs>
    <g id="shape0" transform="matrix(1.0, 0.0, 0.0, 1.0, 76.0, 27.4)">
      <path d="M-40.25 3.95 L-41.55 2.55 Q-37.95 -3.1 -34.25 -10.25 L-22.0 -8.65 Q-24.05 0.0 -28.7 7.2 -30.35 9.9 -32.25 12.3 L-40.25 3.95 M-50.4 13.9 L-49.3 15.15 -41.95 22.9 Q-46.95 27.25 -52.8 30.7 -58.5 34.15 -64.8 34.15 -69.6 33.4 -72.35 29.7 -79.35 16.6 -70.8 0.6 -71.85 12.8 -68.75 21.75 L-64.6 21.95 Q-57.65 21.25 -50.4 13.9" fill="#333333" fill-rule="evenodd" stroke="none"/>
      <path d="M-40.25 3.95 L-32.25 12.3 Q-35.45 16.6 -39.3 20.4 L-41.95 22.9 -49.3 15.15 Q-43.5 10.15 -40.25 3.95" fill="#cccccc" fill-rule="evenodd" stroke="none"/>
      <path d="M-70.8 0.6 L-68.05 -4.05 -63.4 6.7 Q-66.85 15.15 -64.6 21.95 L-68.75 21.75 Q-71.85 12.8 -70.8 0.6" fill="#1f1f1f" fill-rule="evenodd" stroke="none"/>
      <path d="M-41.55 2.55 L-40.25 3.95 Q-43.5 10.15 -49.3 15.15 L-50.4 13.9 Q-46.1 9.45 -41.55 2.55" fill="#7a7a7a" fill-rule="evenodd" stroke="none"/>
      <path d="M-41.55 2.55 L-40.25 3.95 -32.25 12.3 Q-30.35 9.9 -28.7 7.2 -24.05 0.0 -22.0 -8.65 L-34.25 -10.25 Q-37.95 -3.1 -41.55 2.55 -46.1 9.45 -50.4 13.9 L-49.3 15.15 -41.95 22.9 Q-46.95 27.25 -52.8 30.7 -58.5 34.15 -64.8 34.15 -69.6 33.4 -72.35 29.7 -79.35 16.6 -70.8 0.6 L-68.05 -4.05 -63.4 6.7 Q-66.85 15.15 -64.6 21.95 -57.65 21.25 -50.4 13.9 M-68.75 21.75 L-64.6 21.95 M-41.95 22.9 L-39.3 20.4 Q-35.45 16.6 -32.25 12.3" fill="none" stroke="#000000" stroke-linecap="round" stroke-linejoin="round" stroke-opacity="0.4" stroke-width="1.0"/>
      <path d="M-49.3 15.15 Q-43.5 10.15 -40.25 3.95" fill="none" stroke="#000000" stroke-linecap="round" stroke-linejoin="round" stroke-opacity="0.4" stroke-width="0.5"/>
      <path d="M56.6 21.95 L59.6 21.75 Q61.85 12.8 61.05 0.6 67.35 16.6 62.2 29.7 60.2 33.4 56.65 34.15 52.1 34.15 47.9 30.7 43.6 27.25 39.95 22.9 L40.9 21.5 46.15 13.9 Q51.4 21.25 56.6 21.95 M32.85 12.3 L30.25 7.2 Q26.9 0.0 25.35 -8.65 30.15 -9.85 34.3 -10.25 37.05 -3.1 39.65 2.55 L33.85 10.9 32.85 12.3" fill="#333333" fill-rule="evenodd" stroke="none"/>
      <path d="M39.65 2.55 Q43.0 9.45 46.15 13.9 L40.9 21.5 33.85 10.9 39.65 2.55" fill="#cccccc" fill-rule="evenodd" stroke="none"/>
      <path d="M56.6 21.95 Q58.2 15.15 55.65 6.7 L59.1 -4.05 61.05 0.6 Q61.85 12.8 59.6 21.75 L56.6 21.95" fill="#1f1f1f" fill-rule="evenodd" stroke="none"/>
      <path d="M39.95 22.9 L38.0 20.4 Q35.15 16.6 32.85 12.3 L33.85 10.9 40.9 21.5 39.95 22.9" fill="#8c8c8c" fill-rule="evenodd" stroke="none"/>
      <path d="M61.05 0.6 L59.1 -4.05 55.65 6.7 Q58.2 15.15 56.6 21.95 L59.6 21.75 M61.05 0.6 Q67.35 16.6 62.2 29.7 60.2 33.4 56.65 34.15 52.1 34.15 47.9 30.7 43.6 27.25 39.95 22.9 L38.0 20.4 Q35.15 16.6 32.85 12.3 L30.25 7.2 Q26.9 0.0 25.35 -8.65 30.15 -9.85 34.3 -10.25 37.05 -3.1 39.65 2.55 43.0 9.45 46.15 13.9 51.4 21.25 56.6 21.95 M33.85 10.9 L32.85 12.3 M39.95 22.9 L40.9 21.5 46.15 13.9 M39.65 2.55 L33.85 10.9" fill="none" stroke="#000000" stroke-linecap="round" stroke-linejoin="round" stroke-opacity="0.4" stroke-width="1.0"/>
      <path d="M40.9 21.5 L33.85 10.9" fill="none" stroke="#000000" stroke-linecap="round" stroke-linejoin="round" stroke-opacity="0.4" stroke-width="0.5"/>
      <path d="M-71.15 -13.55 L-71.15 -14.5 -71.15 -14.85 -70.9 -17.65 -70.9 -18.1 -70.4 -21.1 -70.4 -21.3 -69.6 -24.4 61.3 -24.4 62.35 -21.1 62.95 -17.65 63.05 -16.3 63.05 -14.85 63.05 -14.2 62.85 -11.55 62.85 -10.8 62.35 -7.35 62.2 -7.35 61.3 -4.4 -69.6 -4.4 -70.4 -7.35 -70.55 -7.35 -71.0 -10.8 -71.15 -13.55 -71.0 -11.55 -70.9 -10.8 -70.55 -8.3 -70.4 -7.35 -70.55 -8.3 -70.9 -10.8 -71.0 -11.55 -71.15 -13.55 M62.2 -7.35 L62.35 -8.3 62.8 -10.8 62.85 -11.55 62.8 -10.8 62.35 -8.3 62.2 -7.35" fill="#333333" fill-rule="evenodd" stroke="none"/>
      <path d="M-71.15 -13.55 L-71.15 -14.5 -71.15 -14.85 -70.9 -18.1 -70.4 -21.1 -70.4 -21.3 -69.6 -24.4 61.3 -24.4 62.35 -21.3 62.95 -18.1 63.05 -16.3 63.05 -14.85 63.05 -14.2 62.85 -11.55 62.8 -10.8 62.35 -8.3 62.2 -7.35 61.3 -4.4 -69.6 -4.4 -70.4 -7.35 -70.55 -8.3 -70.9 -10.8 -71.0 -11.55 -71.15 -13.55 Z" fill="none" stroke="#000000" stroke-linecap="round" stroke-linejoin="round" stroke-opacity="0.4" stroke-width="1.0"/>
      <path d="M5.95 -7.45 L6.15 -6.65 Q14.5 -5.2 22.6 -6.65 L22.95 -9.0 Q25.35 -9.95 27.75 -11.25 L30.05 -12.5 Q30.0 -6.9 28.95 -1.4 14.75 1.15 -0.05 -1.4 -1.45 -6.05 -1.7 -10.95 1.65 -8.4 5.95 -7.45" fill="#969696" fill-rule="evenodd" stroke="none"/>
      <path d="M5.95 -7.45 Q1.65 -8.4 -1.7 -10.95 -2.2 -18.2 -0.05 -25.95 14.15 -27.85 28.95 -25.95 30.15 -19.25 30.05 -12.5 L27.75 -11.25 Q25.35 -9.95 22.95 -9.0 23.6 -14.75 22.6 -20.55 14.15 -21.65 6.15 -20.55 4.15 -13.55 5.95 -7.45" fill="url(#gradient0)" fill-rule="evenodd" stroke="none"/>
      <path d="M22.95 -9.0 L22.6 -6.65 Q14.5 -5.2 6.15 -6.65 L5.95 -7.45 Q4.15 -13.55 6.15 -20.55 14.15 -21.65 22.6 -20.55 23.6 -14.75 22.95 -9.0 M-1.7 -10.95 Q-1.45 -6.05 -0.05 -1.4 14.75 1.15 28.95 -1.4 30.0 -6.9 30.05 -12.5 30.15 -19.25 28.95 -25.95 14.15 -27.85 -0.05 -25.95 -2.2 -18.2 -1.7 -10.95" fill="none" stroke="#000000" stroke-linecap="round" stroke-linejoin="round" stroke-opacity="0.4" stroke-width="1.0"/>
      <path d="M14.7 -9.95 Q13.5 -9.95 12.65 -10.95 11.8 -12.05 11.8 -13.5 11.8 -15.05 12.65 -16.05 13.5 -17.1 14.7 -17.1 15.95 -17.1 16.8 -16.05 17.65 -15.05 17.65 -13.5 17.65 -12.05 16.8 -10.95 15.95 -9.95 14.7 -9.95" fill="#000000" fill-rule="evenodd" stroke="none"/>
      <path d="M14.7 -9.95 Q13.5 -9.95 12.65 -10.95 11.8 -12.05 11.8 -13.5 11.8 -15.05 12.65 -16.05 13.5 -17.1 14.7 -17.1 15.95 -17.1 16.8 -16.05 17.65 -15.05 17.65 -13.5 17.65 -12.05 16.8 -10.95 15.95 -9.95 14.7 -9.95 Z" fill="none" stroke="#000000" stroke-linecap="round" stroke-linejoin="round" stroke-opacity="0.4" stroke-width="1.0"/>
      <path d="M26.35 -13.25 L25.7 -13.15 15.4 -12.15 13.25 -12.2 Q12.8 -14.25 13.75 -16.55 20.05 -17.9 25.95 -16.55 26.4 -15.0 26.35 -13.25 M21.2 -14.2 L23.0 -14.2 Q24.65 -14.25 24.65 -15.05 24.65 -15.85 22.3 -15.85 20.0 -15.85 20.0 -15.05 20.0 -14.25 21.2 -14.2" fill="#cccccc" fill-rule="evenodd" stroke="none"/>
      <path d="M13.25 -12.2 L15.4 -12.15 25.7 -13.15 26.35 -13.25 25.95 -10.7 Q18.75 -9.7 13.75 -10.7 13.35 -11.4 13.25 -12.2" fill="#a8a8a8" fill-rule="evenodd" stroke="none"/>
      <path d="M21.2 -14.2 Q20.0 -14.25 20.0 -15.05 20.0 -15.85 22.3 -15.85 24.65 -15.85 24.65 -15.05 24.65 -14.25 23.0 -14.2 L21.2 -14.2" fill="#e8e8e8" fill-rule="evenodd" stroke="none"/>
      <path d="M26.35 -13.25 Q26.4 -15.0 25.95 -16.55 20.05 -17.9 13.75 -16.55 12.8 -14.25 13.25 -12.2 13.35 -11.4 13.75 -10.7 18.75 -9.7 25.95 -10.7 L26.35 -13.25 Z" fill="none" stroke="#000000" stroke-linecap="round" stroke-linejoin="round" stroke-opacity="0.4" stroke-width="1.0"/>
    </g>
    <linearGradient gradientTransform="matrix(4.0E-4, -0.0111, 0.0119, 4.0E-4, 14.75, -19.5)" gradientUnits="userSpaceOnUse" id="gradient0" spreadMethod="pad" x1="-819.2" x2="819.2">
      <stop offset="0.0" stop-color="#cccccc"/>
      <stop offset="1.0" stop-color="#999999"/>
    </linearGradient>
  </defs>
</svg>
