<?xml version="1.0" encoding="UTF-8" standalone="no"?>
<svg xmlns:xlink="http://www.w3.org/1999/xlink" height="531.5px" width="460.6px" xmlns="http://www.w3.org/2000/svg">
  <g transform="matrix(1.0, 0.0, 0.0, 1.0, 193.65, 334.05)">
    <use height="100.8" transform="matrix(1.0, 0.0, 0.0, 1.0, -83.7, -245.6)" width="155.85" xlink:href="#shape0"/>
  </g>
  <defs>
    <g id="shape0" transform="matrix(1.0, 0.0, 0.0, 1.0, 83.7, 245.6)">
      <path d="M-80.2 -193.75 L-76.25 -194.6 -66.75 -195.85 -66.55 -195.85 Q-70.65 -195.5 -75.45 -193.75 -78.2 -192.75 -81.05 -191.15 L-80.2 -193.75 M-82.3 -165.15 Q-78.85 -168.4 -73.6 -171.6 -65.55 -176.6 -61.2 -177.45 L-61.05 -177.45 Q-66.65 -174.6 -72.9 -169.5 -77.6 -165.65 -81.2 -161.55 L-82.3 -165.15 M-60.55 -203.8 L-61.65 -200.5 -66.8 -201.05 Q-70.0 -201.05 -76.45 -199.2 L-76.6 -199.2 Q-69.25 -202.8 -60.55 -203.8 M-63.45 -190.05 L-63.2 -186.9 -68.0 -185.05 -75.6 -181.3 Q-73.35 -183.95 -69.85 -186.55 -66.5 -189.05 -63.45 -190.05 M51.8 -192.6 Q54.25 -192.85 57.5 -190.85 59.7 -189.5 61.35 -187.8 L61.1 -187.8 Q58.0 -189.4 56.0 -189.9 L51.9 -190.4 51.8 -192.6 M50.4 -182.8 Q52.1 -181.9 53.9 -180.45 57.7 -177.6 60.7 -173.75 L60.5 -173.75 Q59.6 -174.85 57.5 -175.95 L53.85 -177.95 50.05 -179.6 48.5 -180.2 Q49.55 -181.4 50.4 -182.8 M70.8 -185.05 L66.85 -189.05 63.2 -192.4 70.2 -188.25 70.8 -185.05 M71.65 -173.45 L71.2 -168.4 71.05 -167.15 Q69.9 -171.0 67.65 -174.7 L63.45 -180.7 61.35 -182.9 Q64.95 -180.6 68.05 -177.45 L71.65 -173.45" fill="#ff6600" fill-rule="evenodd" stroke="none"/>
      <path d="M34.85 -231.7 L34.45 -232.45 26.15 -245.1 Q27.5 -245.0 33.0 -241.5 38.7 -237.25 43.65 -232.45 48.05 -228.2 51.8 -223.45 L49.3 -223.7 43.8 -223.5 42.8 -223.25 44.55 -223.1 47.65 -223.0 50.05 -222.25 53.35 -221.6 Q58.85 -214.5 62.85 -206.4 L66.3 -199.95 60.45 -202.3 55.4 -203.05 51.5 -203.2 Q53.25 -202.55 60.75 -200.5 64.35 -199.25 67.3 -197.5 69.15 -193.0 70.2 -188.25 L63.2 -192.4 66.85 -189.05 70.8 -185.05 Q71.8 -179.35 71.65 -173.45 L68.05 -177.45 Q64.95 -180.6 61.35 -182.9 L63.45 -180.7 67.65 -174.7 Q69.9 -171.0 71.05 -167.15 70.65 -164.25 69.7 -161.75 L69.05 -160.05 68.15 -161.75 66.35 -164.05 63.45 -167.25 61.2 -169.25 Q63.95 -165.0 65.2 -162.4 L65.55 -161.75 67.2 -157.55 Q65.2 -155.7 61.85 -155.2 60.85 -152.8 59.25 -151.7 56.85 -147.45 53.15 -147.7 53.15 -155.7 50.25 -161.75 45.8 -170.75 34.75 -175.45 36.6 -178.7 41.6 -178.85 L44.65 -177.6 Q46.9 -178.6 48.5 -180.2 L50.05 -179.6 53.85 -177.95 57.5 -175.95 Q59.6 -174.85 60.5 -173.75 L60.7 -173.75 Q57.7 -177.6 53.9 -180.45 52.1 -181.9 50.4 -182.8 52.0 -185.9 51.9 -190.4 L56.0 -189.9 Q58.0 -189.4 61.1 -187.8 L61.35 -187.8 Q59.7 -189.5 57.5 -190.85 54.25 -192.85 51.8 -192.6 51.0 -200.85 45.15 -213.15 L45.8 -213.4 48.8 -214.05 52.9 -213.75 56.15 -213.15 Q52.35 -215.25 46.7 -215.25 L44.2 -215.0 Q40.8 -221.95 35.85 -230.05 39.45 -231.4 42.15 -231.45 L38.35 -231.8 34.85 -231.7 M56.15 -213.15 L56.35 -213.05 56.5 -213.05 56.15 -213.15 M51.65 -172.45 Q50.25 -175.35 44.65 -177.6 50.25 -175.35 51.65 -172.45" fill="url(#gradient0)" fill-rule="evenodd" stroke="none"/>
      <path d="M-73.15 -208.7 L-71.1 -209.55 Q-62.2 -212.75 -59.4 -212.25 L-59.4 -212.4 -69.65 -211.55 -71.85 -211.25 Q-66.15 -221.1 -58.1 -229.55 -53.85 -230.6 -50.35 -230.8 L-50.35 -230.95 -53.7 -230.95 -56.95 -230.7 Q-51.35 -236.4 -44.6 -241.5 -39.05 -245.0 -37.7 -245.1 L-43.55 -236.15 -45.4 -235.9 -49.85 -234.8 -49.85 -234.65 -48.65 -234.65 -44.25 -235.15 Q-49.45 -226.95 -53.2 -219.9 -55.2 -219.9 -59.05 -218.6 L-65.4 -216.6 -59.95 -217.15 -54.45 -217.5 Q-58.35 -209.95 -60.55 -203.8 -69.25 -202.8 -76.6 -199.2 L-76.45 -199.2 Q-70.0 -201.05 -66.8 -201.05 L-61.65 -200.5 Q-63.45 -194.6 -63.45 -190.05 -66.5 -189.05 -69.85 -186.55 -73.35 -183.95 -75.6 -181.3 L-68.0 -185.05 -63.2 -186.9 Q-62.2 -180.3 -56.2 -177.6 -47.1 -179.45 -43.0 -177.45 L-40.55 -178.95 Q-33.35 -177.45 -32.6 -174.95 -52.6 -156.2 -57.6 -146.0 -64.2 -143.25 -66.8 -150.95 L-67.25 -150.85 -66.05 -154.6 Q-62.65 -164.75 -57.8 -170.6 -61.55 -168.25 -66.05 -159.3 -68.5 -154.55 -69.4 -151.1 -72.1 -151.85 -73.4 -155.2 -78.45 -155.95 -80.35 -159.7 L-81.2 -161.55 Q-77.6 -165.65 -72.9 -169.5 -66.65 -174.6 -61.05 -177.45 L-61.2 -177.45 Q-65.55 -176.6 -73.6 -171.6 -78.85 -168.4 -82.3 -165.15 L-82.8 -168.4 Q-84.1 -180.2 -81.05 -191.15 -78.2 -192.75 -75.45 -193.75 -70.65 -195.5 -66.55 -195.85 L-66.75 -195.85 -76.25 -194.6 -80.2 -193.75 Q-78.1 -200.25 -74.4 -206.4 L-73.15 -208.7 M-51.5 -171.25 Q-48.75 -173.95 -43.0 -177.45 -48.75 -173.95 -51.5 -171.25" fill="url(#gradient1)" fill-rule="evenodd" stroke="none"/>
      <path d="M-58.1 -229.55 L-56.95 -230.7 -53.7 -230.95 -50.35 -230.95 -50.35 -230.8 Q-53.85 -230.6 -58.1 -229.55 M-43.55 -236.15 L-44.25 -235.15 -48.65 -234.65 -49.85 -234.65 -49.85 -234.8 -45.4 -235.9 -43.55 -236.15 M34.85 -231.7 L38.35 -231.8 42.15 -231.45 Q39.45 -231.4 35.85 -230.05 L34.85 -231.7 M53.35 -221.6 L50.05 -222.25 47.65 -223.0 44.55 -223.1 42.8 -223.25 43.8 -223.5 49.3 -223.7 51.8 -223.45 53.35 -221.6" fill="#ffcc00" fill-rule="evenodd" stroke="none"/>
      <path d="M-71.85 -211.25 L-69.65 -211.55 -59.4 -212.4 -59.4 -212.25 Q-62.2 -212.75 -71.1 -209.55 L-73.15 -208.7 -71.85 -211.25 M-53.2 -219.9 L-54.45 -217.5 -59.95 -217.15 -65.4 -216.6 -59.05 -218.6 Q-55.2 -219.9 -53.2 -219.9 M44.2 -215.0 L46.7 -215.25 Q52.35 -215.25 56.15 -213.15 L52.9 -213.75 48.8 -214.05 45.8 -213.4 45.15 -213.15 44.2 -215.0 M67.3 -197.5 Q64.35 -199.25 60.75 -200.5 53.25 -202.55 51.5 -203.2 L55.4 -203.05 60.45 -202.3 66.3 -199.95 67.3 -197.5" fill="#ffaa00" fill-rule="evenodd" stroke="none"/>
      <path d="M-69.4 -151.1 Q-68.5 -154.55 -66.05 -159.3 -61.55 -168.25 -57.8 -170.6 -62.65 -164.75 -66.05 -154.6 L-67.25 -150.85 -69.4 -151.1 M69.05 -160.05 L68.8 -159.7 Q68.15 -158.45 67.2 -157.55 L65.55 -161.75 65.2 -162.4 Q63.95 -165.0 61.2 -169.25 L63.45 -167.25 66.35 -164.05 68.15 -161.75 69.05 -160.05" fill="#ff3d00" fill-rule="evenodd" stroke="none"/>
      <path d="M-73.15 -208.7 L-74.4 -206.4 Q-78.1 -200.25 -80.2 -193.75 L-81.05 -191.15 Q-84.1 -180.2 -82.8 -168.4 L-82.3 -165.15 -81.2 -161.55 -80.35 -159.7 Q-78.45 -155.95 -73.4 -155.2 -72.1 -151.85 -69.4 -151.1 L-67.25 -150.85 -66.8 -150.95 Q-64.2 -143.25 -57.6 -146.0 -52.6 -156.2 -32.6 -174.95 -33.35 -177.45 -40.55 -178.95 L-43.0 -177.45 Q-48.75 -173.95 -51.5 -171.25 M-73.15 -208.7 L-71.85 -211.25 Q-66.15 -221.1 -58.1 -229.55 L-56.95 -230.7 Q-51.35 -236.4 -44.6 -241.5 -39.05 -245.0 -37.7 -245.1 L-43.55 -236.15 -44.25 -235.15 Q-49.45 -226.95 -53.2 -219.9 L-54.45 -217.5 Q-58.35 -209.95 -60.55 -203.8 L-61.65 -200.5 Q-63.45 -194.6 -63.45 -190.05 L-63.2 -186.9 Q-62.2 -180.3 -56.2 -177.6 -47.1 -179.45 -43.0 -177.45 M51.8 -223.45 Q48.05 -228.2 43.65 -232.45 38.7 -237.25 33.0 -241.5 27.5 -245.0 26.15 -245.1 L34.45 -232.45 34.85 -231.7 35.85 -230.05 Q40.8 -221.95 44.2 -215.0 L45.15 -213.15 Q51.0 -200.85 51.8 -192.6 L51.9 -190.4 Q52.0 -185.9 50.4 -182.8 49.55 -181.4 48.5 -180.2 46.9 -178.6 44.65 -177.6 50.25 -175.35 51.65 -172.45 M53.35 -221.6 L51.8 -223.45 M71.65 -173.45 Q71.8 -179.35 70.8 -185.05 L70.2 -188.25 Q69.15 -193.0 67.3 -197.5 L66.3 -199.95 62.85 -206.4 Q58.85 -214.5 53.35 -221.6 M71.65 -173.45 L71.2 -168.4 71.05 -167.15 Q70.65 -164.25 69.7 -161.75 L69.05 -160.05 68.8 -159.7 Q68.15 -158.45 67.2 -157.55 65.2 -155.7 61.85 -155.2 60.85 -152.8 59.25 -151.7 56.85 -147.45 53.15 -147.7 53.15 -155.7 50.25 -161.75 45.8 -170.75 34.75 -175.45 36.6 -178.7 41.6 -178.85 L44.65 -177.6" fill="none" stroke="#000000" stroke-linecap="round" stroke-linejoin="round" stroke-opacity="0.5019608" stroke-width="1.0"/>
    </g>
    <linearGradient gradientTransform="matrix(-0.012, 0.0175, -0.0489, -0.0337, 46.8, -186.5)" gradientUnits="userSpaceOnUse" id="gradient0" spreadMethod="pad" x1="-819.2" x2="819.2">
      <stop offset="0.0" stop-color="#333333"/>
      <stop offset="1.0" stop-color="#212121"/>
    </linearGradient>
    <linearGradient gradientTransform="matrix(-0.0036, 0.0306, -0.0605, -0.0072, -57.95, -195.15)" gradientUnits="userSpaceOnUse" id="gradient1" spreadMethod="pad" x1="-819.2" x2="819.2">
      <stop offset="0.0" stop-color="#333333"/>
      <stop offset="1.0" stop-color="#212121"/>
    </linearGradient>
  </defs>
</svg>
