<?xml version="1.0" encoding="UTF-8" standalone="no"?>
<svg xmlns:xlink="http://www.w3.org/1999/xlink" height="531.5px" width="460.6px" xmlns="http://www.w3.org/2000/svg">
  <g transform="matrix(1.0, 0.0, 0.0, 1.0, 193.65, 334.05)">
    <use height="34.65" transform="matrix(1.0, 0.0, 0.0, 1.0, -83.95, -33.0)" width="160.7" xlink:href="#shape0"/>
  </g>
  <defs>
    <g id="shape0" transform="matrix(1.0, 0.0, 0.0, 1.0, 83.95, 33.0)">
      <path d="M13.0 -17.3 L13.0 -17.55 Q13.0 -20.75 10.45 -23.1 L9.5 -23.9 7.75 -25.05 Q5.5 -26.2 2.75 -26.45 L1.3 -26.5 Q-3.55 -26.5 -7.0 -23.9 L-7.85 -23.1 Q-10.35 -20.75 -10.35 -17.55 L-10.1 -15.45 -9.95 -15.15 -9.5 -14.05 Q-8.85 -12.8 -7.65 -11.75 -9.8 -9.45 -12.55 -8.2 L-14.45 -7.5 -11.0 -6.6 Q-6.3 -5.85 -2.4 -8.15 -1.85 -8.45 -1.45 -8.85 L0.15 -8.65 1.3 -8.6 1.9 -8.6 Q6.35 -8.8 9.5 -11.2 11.25 -12.5 12.1 -14.05 12.95 -15.5 13.0 -17.3 M23.4 -23.0 L29.05 -22.9 60.15 -22.05 Q61.15 -18.35 60.9 -14.05 L51.65 -14.05 51.65 -20.3 35.55 -20.3 35.55 -14.05 26.6 -14.05 25.5 -14.25 Q25.95 -18.4 23.65 -22.5 L23.4 -23.0 M-68.85 -14.05 Q-69.2 -17.9 -67.5 -22.05 L-54.2 -22.25 -23.7 -23.0 -24.8 -21.1 Q-25.5 -19.15 -25.5 -16.8 L-25.2 -14.05 -68.85 -14.05 M4.85 -29.6 Q7.55 -29.1 10.0 -28.0 12.0 -27.1 13.8 -25.8 15.95 -24.3 17.25 -22.55 19.7 -19.5 19.7 -15.7 L19.6 -14.05 Q19.1 -11.1 17.2 -8.75 15.9 -7.1 13.8 -5.55 8.0 -1.4 -0.25 -1.4 L-2.05 -1.45 Q-8.05 -1.8 -12.65 -4.5 L-14.25 -5.55 Q-16.3 -7.1 -17.6 -8.75 -19.5 -11.1 -19.95 -14.05 L-20.1 -15.7 Q-20.1 -19.5 -17.65 -22.55 -16.35 -24.3 -14.25 -25.8 -8.45 -30.05 -0.25 -30.05 L4.85 -29.6" fill="#33ccff" fill-rule="evenodd" stroke="none"/>
      <path d="M-9.95 -15.15 L-10.1 -15.45 -10.35 -17.55 Q-10.35 -20.75 -7.85 -23.1 L-7.0 -23.9 Q-3.55 -26.5 1.3 -26.5 L2.75 -26.45 Q5.5 -26.2 7.75 -25.05 L9.5 -23.9 10.45 -23.1 Q13.0 -20.75 13.0 -17.55 L13.0 -17.3 Q12.0 -15.55 9.9 -14.15 6.25 -11.6 1.05 -11.25 L-0.65 -11.2 Q-3.9 -11.2 -6.7 -12.6 L-7.45 -13.0 Q-9.0 -13.95 -9.95 -15.15 M6.3 -31.85 L11.65 -30.25 10.0 -28.0 Q7.55 -29.1 4.85 -29.6 L6.3 -31.85 M-2.75 1.1 Q-9.3 0.6 -14.45 -2.3 L-12.65 -4.5 Q-8.05 -1.8 -2.05 -1.45 L-2.75 1.1 M35.55 -20.3 L51.65 -20.3 44.25 -15.3 35.55 -20.3" fill="#ffffff" fill-rule="evenodd" stroke="none"/>
      <path d="M11.65 -30.25 L16.3 -27.6 Q19.25 -25.5 20.95 -23.0 L21.65 -21.8 Q23.1 -19.35 23.3 -16.45 23.35 -14.85 23.05 -13.45 22.55 -10.7 20.9 -8.25 19.2 -5.85 16.3 -3.8 9.5 1.15 -0.25 1.15 L-2.75 1.1 -2.05 -1.45 -0.25 -1.4 Q8.0 -1.4 13.8 -5.55 15.9 -7.1 17.2 -8.75 19.1 -11.1 19.6 -14.05 L19.7 -15.7 Q19.7 -19.5 17.25 -22.55 15.95 -24.3 13.8 -25.8 12.0 -27.1 10.0 -28.0 L11.65 -30.25 M-14.45 -2.3 L-16.85 -3.8 Q-19.7 -5.85 -21.35 -8.25 -23.2 -10.9 -23.6 -14.05 L-23.7 -15.7 Q-23.7 -19.7 -21.4 -23.0 -19.75 -25.5 -16.85 -27.6 -9.95 -32.5 -0.25 -32.5 L6.3 -31.85 4.85 -29.6 -0.25 -30.05 Q-8.45 -30.05 -14.25 -25.8 -16.35 -24.3 -17.65 -22.55 -20.1 -19.5 -20.1 -15.7 L-19.95 -14.05 Q-19.5 -11.1 -17.6 -8.75 -16.3 -7.1 -14.25 -5.55 L-12.65 -4.5 -14.45 -2.3" fill="#284fa3" fill-rule="evenodd" stroke="none"/>
      <path d="M13.0 -17.3 Q12.95 -15.5 12.1 -14.05 11.25 -12.5 9.5 -11.2 6.35 -8.8 1.9 -8.6 L1.3 -8.6 0.15 -8.65 -1.45 -8.85 Q-1.85 -8.45 -2.4 -8.15 -6.3 -5.85 -11.0 -6.6 L-14.45 -7.5 -12.55 -8.2 Q-9.8 -9.45 -7.65 -11.75 -8.85 -12.8 -9.5 -14.05 L-9.95 -15.15 Q-9.0 -13.95 -7.45 -13.0 L-6.7 -12.6 Q-3.9 -11.2 -0.65 -11.2 L1.05 -11.25 Q6.25 -11.6 9.9 -14.15 12.0 -15.55 13.0 -17.3" fill="#e6e6e6" fill-rule="evenodd" stroke="none"/>
      <path d="M35.55 -14.05 L35.55 -20.3 44.25 -15.3 51.65 -20.3 51.65 -14.05 51.65 -11.0 35.55 -11.0 35.55 -14.05" fill="#f2f2f2" fill-rule="evenodd" stroke="none"/>
      <path d="M20.95 -23.0 L21.65 -23.0 23.4 -23.0 23.65 -22.5 Q25.95 -18.4 25.5 -14.25 L26.6 -14.05 35.55 -14.05 35.55 -11.0 51.65 -11.0 51.65 -14.05 60.9 -14.05 60.15 -9.1 Q40.65 -8.5 20.9 -8.25 22.55 -10.7 23.05 -13.45 23.35 -14.85 23.3 -16.45 23.1 -19.35 21.65 -21.8 L20.95 -23.0 M-21.35 -8.25 L-54.2 -8.9 -67.5 -9.1 Q-68.7 -11.55 -68.85 -14.05 L-25.2 -14.05 -25.5 -16.8 Q-25.5 -19.15 -24.8 -21.1 L-23.7 -23.0 -21.4 -23.0 Q-23.7 -19.7 -23.7 -15.7 L-23.6 -14.05 Q-23.2 -10.9 -21.35 -8.25" fill="#2cabde" fill-rule="evenodd" stroke="none"/>
      <path d="M-9.95 -15.15 L-10.1 -15.45 -10.35 -17.55 Q-10.35 -20.75 -7.85 -23.1 L-7.0 -23.9 Q-3.55 -26.5 1.3 -26.5 L2.75 -26.45 Q5.5 -26.2 7.75 -25.05 L9.5 -23.9 10.45 -23.1 Q13.0 -20.75 13.0 -17.55 L13.0 -17.3 Q12.95 -15.5 12.1 -14.05 11.25 -12.5 9.5 -11.2 6.35 -8.8 1.9 -8.6 L1.3 -8.6 0.15 -8.65 -1.45 -8.85 Q-1.85 -8.45 -2.4 -8.15 -6.3 -5.85 -11.0 -6.6 L-14.45 -7.5 -12.55 -8.2 Q-9.8 -9.45 -7.65 -11.75 -8.85 -12.8 -9.5 -14.05 L-9.95 -15.15 M6.3 -31.85 L11.65 -30.25 16.3 -27.6 Q19.25 -25.5 20.95 -23.0 L21.65 -23.0 23.4 -23.0 29.05 -22.9 60.15 -22.05 Q61.15 -18.35 60.9 -14.05 L60.15 -9.1 Q40.65 -8.5 20.9 -8.25 19.2 -5.85 16.3 -3.8 9.5 1.15 -0.25 1.15 L-2.75 1.1 Q-9.3 0.6 -14.45 -2.3 L-16.85 -3.8 Q-19.7 -5.85 -21.35 -8.25 L-54.2 -8.9 -67.5 -9.1 Q-68.7 -11.55 -68.85 -14.05 -69.2 -17.9 -67.5 -22.05 L-54.2 -22.25 -23.7 -23.0 -21.4 -23.0 Q-19.75 -25.5 -16.85 -27.6 -9.95 -32.5 -0.25 -32.5 L6.3 -31.85 M4.85 -29.6 Q7.55 -29.1 10.0 -28.0 12.0 -27.1 13.8 -25.8 15.95 -24.3 17.25 -22.55 19.7 -19.5 19.7 -15.7 L19.6 -14.05 Q19.1 -11.1 17.2 -8.75 15.9 -7.1 13.8 -5.55 8.0 -1.4 -0.25 -1.4 L-2.05 -1.45 Q-8.05 -1.8 -12.65 -4.5 L-14.25 -5.55 Q-16.3 -7.1 -17.6 -8.75 -19.5 -11.1 -19.95 -14.05 L-20.1 -15.7 Q-20.1 -19.5 -17.65 -22.55 -16.35 -24.3 -14.25 -25.8 -8.45 -30.05 -0.25 -30.05 L4.85 -29.6 M35.55 -14.05 L35.55 -20.3 51.65 -20.3 51.65 -14.05 51.65 -11.0 35.55 -11.0 35.55 -14.05 M20.9 -8.25 Q22.55 -10.7 23.05 -13.45 23.35 -14.85 23.3 -16.45 23.1 -19.35 21.65 -21.8 L20.95 -23.0 M35.55 -20.3 L44.25 -15.3 51.65 -20.3 M-21.35 -8.25 Q-23.2 -10.9 -23.6 -14.05 L-23.7 -15.7 Q-23.7 -19.7 -21.4 -23.0" fill="none" stroke="#000000" stroke-linecap="round" stroke-linejoin="round" stroke-opacity="0.6627451" stroke-width="1.0"/>
      <path d="M-13.95 -23.9 Q-11.15 -26.0 -8.1 -26.05 -5.0 -26.05 -3.4 -24.05 -1.8 -22.0 -2.6 -19.15 -3.45 -16.2 -6.25 -14.1 -9.0 -12.05 -12.1 -12.0 -15.2 -11.9 -16.8 -13.95 -18.4 -15.95 -17.6 -18.9 -16.7 -21.85 -13.95 -23.9" fill="#ffffff" fill-opacity="0.4" fill-rule="evenodd" stroke="none"/>
      <path d="M-52.55 -20.3 L-43.8 -15.3 -36.35 -20.3 -36.35 -11.0 -52.55 -11.0 -52.55 -20.3" fill="#f2f2f2" fill-rule="evenodd" stroke="none"/>
      <path d="M-36.35 -20.3 L-43.8 -15.3 -52.55 -20.3 -36.35 -20.3" fill="#ffffff" fill-rule="evenodd" stroke="none"/>
      <path d="M-52.55 -20.3 L-43.8 -15.3 -36.35 -20.3 -52.55 -20.3 -52.55 -11.0 -36.35 -11.0 -36.35 -20.3" fill="none" stroke="#000000" stroke-linecap="round" stroke-linejoin="round" stroke-opacity="0.6627451" stroke-width="1.0"/>
      <path d="M59.6 -21.4 L75.05 -28.25 Q76.25 -28.25 76.25 -26.5 76.25 -24.9 74.65 -23.4 73.35 -22.15 71.95 -21.75 L71.6 -21.7 71.6 -21.55 71.9 -21.55 71.45 -20.2 Q71.3 -19.45 70.7 -19.2 L69.2 -18.5 67.45 -18.15 66.55 -18.35 65.7 -18.55 Q65.6 -17.4 64.4 -16.75 63.35 -16.15 62.2 -16.15 61.3 -16.15 59.6 -17.05 L59.55 -17.05 58.2 -17.85 58.0 -18.85 58.1 -19.55 Q58.25 -20.2 58.8 -20.75 L59.6 -21.4" fill="#33ccff" fill-rule="evenodd" stroke="none"/>
      <path d="M71.9 -21.55 Q72.65 -21.5 73.4 -20.95 74.5 -20.2 74.5 -18.95 74.5 -17.85 73.25 -17.15 72.1 -16.55 70.85 -16.55 68.95 -16.55 68.7 -16.9 L68.05 -16.9 68.3 -16.35 68.55 -15.7 Q68.55 -14.7 67.55 -14.15 66.7 -13.65 65.45 -13.65 62.8 -13.65 60.4 -15.3 L59.55 -15.95 Q58.55 -16.85 58.2 -17.85 L59.55 -17.05 59.6 -17.05 Q61.3 -16.15 62.2 -16.15 63.35 -16.15 64.4 -16.75 65.6 -17.4 65.7 -18.55 L66.55 -18.35 67.45 -18.15 69.2 -18.5 70.7 -19.2 Q71.3 -19.45 71.45 -20.2 L71.9 -21.55" fill="#2dafe3" fill-rule="evenodd" stroke="none"/>
      <path d="M59.6 -21.4 L75.05 -28.25 Q76.25 -28.25 76.25 -26.5 76.25 -24.9 74.65 -23.4 73.35 -22.15 71.95 -21.75 L71.6 -21.7 71.6 -21.55 71.9 -21.55 Q72.65 -21.5 73.4 -20.95 74.5 -20.2 74.5 -18.95 74.5 -17.85 73.25 -17.15 72.1 -16.55 70.85 -16.55 68.95 -16.55 68.7 -16.9 L68.05 -16.9 68.3 -16.35 68.55 -15.7 Q68.55 -14.7 67.55 -14.15 66.7 -13.65 65.45 -13.65 62.8 -13.65 60.4 -15.3 L59.55 -15.95" fill="none" stroke="#000000" stroke-linecap="round" stroke-linejoin="round" stroke-opacity="0.6627451" stroke-width="1.0"/>
      <path d="M-79.1 -21.55 L-78.8 -21.55 -78.8 -21.7 -79.15 -21.75 Q-80.55 -22.15 -81.85 -23.4 -83.45 -24.9 -83.45 -26.5 -83.45 -28.25 -82.25 -28.25 L-66.8 -21.4 -66.0 -20.75 Q-65.45 -20.2 -65.3 -19.55 L-65.2 -18.85 -65.4 -17.85 -66.75 -17.05 -66.8 -17.05 Q-68.5 -16.15 -69.4 -16.15 -70.55 -16.15 -71.6 -16.75 -72.8 -17.4 -72.9 -18.55 L-73.75 -18.35 -74.65 -18.15 -76.4 -18.5 -77.9 -19.2 Q-78.5 -19.45 -78.65 -20.2 L-79.1 -21.55" fill="#33ccff" fill-rule="evenodd" stroke="none"/>
      <path d="M-79.1 -21.55 L-78.65 -20.2 Q-78.5 -19.45 -77.9 -19.2 L-76.4 -18.5 -74.65 -18.15 -73.75 -18.35 -72.9 -18.55 Q-72.8 -17.4 -71.6 -16.75 -70.55 -16.15 -69.4 -16.15 -68.5 -16.15 -66.8 -17.05 L-66.75 -17.05 -65.4 -17.85 Q-65.75 -16.85 -66.75 -15.95 L-67.6 -15.3 Q-70.0 -13.65 -72.65 -13.65 -73.9 -13.65 -74.75 -14.15 -75.75 -14.7 -75.75 -15.7 L-75.5 -16.35 -75.25 -16.9 -75.9 -16.9 Q-76.15 -16.55 -78.05 -16.55 -79.3 -16.55 -80.45 -17.15 -81.7 -17.85 -81.7 -18.95 -81.7 -20.2 -80.6 -20.95 L-79.1 -21.55" fill="#2dafe3" fill-rule="evenodd" stroke="none"/>
      <path d="M-66.8 -21.4 L-82.25 -28.25 Q-83.45 -28.25 -83.45 -26.5 -83.45 -24.9 -81.85 -23.4 -80.55 -22.15 -79.15 -21.75 L-78.8 -21.7 -78.8 -21.55 -79.1 -21.55 -80.6 -20.95 Q-81.7 -20.2 -81.7 -18.95 -81.7 -17.85 -80.45 -17.15 -79.3 -16.55 -78.05 -16.55 -76.15 -16.55 -75.9 -16.9 L-75.25 -16.9 -75.5 -16.35 -75.75 -15.7 Q-75.75 -14.7 -74.75 -14.15 -73.9 -13.65 -72.65 -13.65 -70.0 -13.65 -67.6 -15.3 L-66.75 -15.95" fill="none" stroke="#000000" stroke-linecap="round" stroke-linejoin="round" stroke-opacity="0.6627451" stroke-width="1.0"/>
    </g>
  </defs>
</svg>
