<?xml version="1.0" encoding="UTF-8" standalone="no"?>
<svg xmlns:xlink="http://www.w3.org/1999/xlink" height="531.5px" width="460.6px" xmlns="http://www.w3.org/2000/svg">
  <g transform="matrix(1.0, 0.0, 0.0, 1.0, 193.65, 334.05)">
    <use height="84.55" transform="matrix(1.0, 0.0, 0.0, 1.0, -55.85, -79.45)" width="108.4" xlink:href="#shape0"/>
  </g>
  <defs>
    <g id="shape0" transform="matrix(1.0, 0.0, 0.0, 1.0, 55.85, 79.45)">
      <path d="M-37.65 -51.25 L-38.3 -49.7 -39.3 -48.05 -39.95 -47.6 -41.3 -44.95 -44.4 -41.4 -31.55 -51.4 -35.2 -49.95 -20.9 -64.65 -25.65 -61.55 Q-26.9 -60.9 -28.25 -60.35 L-24.65 -67.1 -44.05 -49.05 -37.65 -51.25 M-41.5 -40.85 L-55.35 -31.9 -42.4 -47.75 -51.15 -44.65 Q-32.9 -63.15 -15.4 -76.75 L-22.7 -65.45 -4.65 -77.5 -29.8 -53.05 -22.0 -55.05 -29.1 -49.6 Q-35.2 -45.1 -41.5 -40.85 M-34.1 -4.75 L-41.85 -0.35 -29.8 -18.6 -36.65 -14.4 -20.7 -33.75 -23.45 -25.55 Q-6.15 -44.05 10.45 -58.0 L8.3 -52.5 40.9 -78.95 16.65 -49.2 24.7 -52.5 1.55 -34.0 -12.5 -22.8 -6.15 -22.8 Q-19.05 -13.6 -34.1 -4.75 M13.0 -49.75 L7.35 -46.65 22.7 -62.15 -26.9 -20.4 -21.35 -24.15 -30.1 -13.2 -35.0 -8.1 -35.0 -8.05 Q-30.9 -11.3 -16.15 -20.4 L-16.15 -20.7 -19.0 -20.8 -20.25 -21.05 13.0 -49.75 M42.35 -34.45 Q31.15 -22.35 18.05 -11.3 10.3 -4.95 1.9 1.1 L12.65 -12.95 3.0 -7.85 Q20.3 -24.5 41.65 -41.95 L38.0 -34.65 52.05 -45.75 Q47.4 -40.0 42.35 -34.45 M32.7 -29.55 L36.15 -33.75 11.75 -14.2 15.4 -15.15 11.0 -7.3 37.65 -32.35 32.7 -29.55" fill="#660000" fill-rule="evenodd" stroke="none"/>
      <path d="M-37.65 -51.25 L-44.05 -49.05 -24.65 -67.1 -28.25 -60.35 Q-26.9 -60.9 -25.65 -61.55 L-20.9 -64.65 -35.2 -49.95 -31.55 -51.4 -44.4 -41.4 -41.3 -44.95 -39.95 -47.6 -39.3 -48.05 -38.3 -49.7 -37.65 -51.25" fill="#a82b2b" fill-rule="evenodd" stroke="none"/>
      <path d="M13.0 -49.75 L-20.25 -21.05 -19.0 -20.8 -16.15 -20.7 -16.15 -20.4 Q-30.9 -11.3 -35.0 -8.05 L-35.0 -8.1 -30.1 -13.2 -21.35 -24.15 -26.9 -20.4 22.7 -62.15 7.35 -46.65 13.0 -49.75" fill="url(#gradient0)" fill-rule="evenodd" stroke="none"/>
      <path d="M32.7 -29.55 L37.65 -32.35 11.0 -7.3 15.4 -15.15 11.75 -14.2 36.15 -33.75 32.7 -29.55" fill="url(#gradient1)" fill-rule="evenodd" stroke="none"/>
      <path d="M-29.1 -49.6 L-29.55 -45.85 Q-30.55 -39.75 -32.55 -39.75 L-34.65 -41.0 Q-35.55 -41.0 -37.2 -34.75 -38.85 -28.45 -40.2 -28.45 -41.65 -28.45 -41.65 -35.1 L-41.5 -40.85 Q-35.2 -45.1 -29.1 -49.6 M1.55 -34.0 Q0.7 -30.7 -0.1 -25.8 -1.55 -20.25 -5.05 -19.35 -7.7 -18.7 -10.4 -10.6 -12.95 -2.9 -15.7 -2.9 -16.95 -2.9 -19.0 -4.4 -21.0 -5.85 -22.6 -5.85 -25.25 -5.85 -27.55 -0.35 -29.8 5.1 -31.75 5.1 -32.3 5.1 -32.85 2.35 L-33.3 -0.35 Q-34.0 -2.55 -34.1 -4.75 -19.05 -13.6 -6.15 -22.8 L-12.5 -22.8 1.55 -34.0 M42.35 -34.45 Q42.2 -31.35 41.35 -26.15 40.2 -18.4 38.7 -18.4 38.15 -18.4 36.7 -20.25 L34.9 -22.05 Q34.35 -22.05 31.95 -17.4 29.6 -12.75 27.35 -12.75 L25.4 -13.5 Q24.4 -13.5 22.4 -10.5 20.3 -7.5 19.65 -7.5 18.3 -7.5 18.05 -10.05 L18.05 -11.3 Q31.15 -22.35 42.35 -34.45" fill="#cc0000" fill-opacity="0.5019608" fill-rule="evenodd" stroke="none"/>
      <path d="M-41.5 -40.85 L-55.35 -31.9 -42.4 -47.75 -51.15 -44.65 Q-32.9 -63.15 -15.4 -76.75 L-22.7 -65.45 -4.65 -77.5 -29.8 -53.05 -22.0 -55.05 -29.1 -49.6 Q-35.2 -45.1 -41.5 -40.85 M-34.1 -4.75 L-41.85 -0.35 -29.8 -18.6 -36.65 -14.4 -20.7 -33.75 -23.45 -25.55 Q-6.15 -44.05 10.45 -58.0 L8.3 -52.5 40.9 -78.95 16.65 -49.2 24.7 -52.5 1.55 -34.0 -12.5 -22.8 -6.15 -22.8 Q-19.05 -13.6 -34.1 -4.75 M42.35 -34.45 Q31.15 -22.35 18.05 -11.3 10.3 -4.95 1.9 1.1 L12.65 -12.95 3.0 -7.85 Q20.3 -24.5 41.65 -41.95 L38.0 -34.65 52.05 -45.75 Q47.4 -40.0 42.35 -34.45" fill="none" stroke="#000000" stroke-linecap="round" stroke-linejoin="round" stroke-opacity="0.5019608" stroke-width="1.0"/>
    </g>
    <linearGradient gradientTransform="matrix(0.0222, -0.0128, 0.0165, 0.0286, -2.4, -37.1)" gradientUnits="userSpaceOnUse" id="gradient0" spreadMethod="pad" x1="-819.2" x2="819.2">
      <stop offset="0.0" stop-color="#a82b2b"/>
      <stop offset="1.0" stop-color="#e84545"/>
    </linearGradient>
    <linearGradient gradientTransform="matrix(0.0107, -0.0084, 0.0099, 0.0127, 31.35, -25.7)" gradientUnits="userSpaceOnUse" id="gradient1" spreadMethod="pad" x1="-819.2" x2="819.2">
      <stop offset="0.0" stop-color="#a82b2b"/>
      <stop offset="1.0" stop-color="#e84545"/>
    </linearGradient>
  </defs>
</svg>
