<?xml version="1.0" encoding="UTF-8" standalone="no"?>
<svg xmlns:xlink="http://www.w3.org/1999/xlink" height="531.5px" width="460.6px" xmlns="http://www.w3.org/2000/svg">
  <g transform="matrix(1.0, 0.0, 0.0, 1.0, 193.65, 334.05)">
    <use height="75.9" transform="matrix(1.0, 0.0, 0.0, 1.0, -75.7, -205.55)" width="142.5" xlink:href="#shape0"/>
  </g>
  <defs>
    <g id="shape0" transform="matrix(1.0, 0.0, 0.0, 1.0, 75.7, 205.55)">
      <path d="M-60.75 -175.2 L-48.9 -176.65 Q-43.35 -176.25 -39.35 -169.9 -34.9 -162.95 -34.9 -153.3 -34.9 -143.65 -39.35 -136.75 -43.3 -130.55 -48.85 -129.9 L-50.2 -129.9 -60.9 -131.35 -60.6 -131.35 Q-54.7 -131.35 -50.7 -137.8 -46.5 -144.2 -46.5 -153.3 -46.5 -162.3 -50.7 -168.75 -54.7 -175.2 -60.6 -175.2 L-60.75 -175.2" fill="url(#gradient0)" fill-rule="evenodd" stroke="none"/>
      <path d="M-60.9 -131.35 Q-66.55 -131.5 -70.65 -137.8 -74.75 -144.2 -74.75 -153.3 -74.75 -162.3 -70.65 -168.75 -67.0 -174.4 -62.05 -175.05 L-60.75 -175.2 -60.6 -175.2 Q-54.7 -175.2 -50.7 -168.75 -46.5 -162.3 -46.5 -153.3 -46.5 -144.2 -50.7 -137.8 -54.7 -131.35 -60.6 -131.35 L-60.9 -131.35" fill="#4f4f4f" fill-rule="evenodd" stroke="none"/>
      <path d="M-60.75 -175.2 L-48.9 -176.65 Q-43.35 -176.25 -39.35 -169.9 -34.9 -162.95 -34.9 -153.3 -34.9 -143.65 -39.35 -136.75 -43.3 -130.55 -48.85 -129.9 L-50.2 -129.9 -60.9 -131.35 Q-66.55 -131.5 -70.65 -137.8 -74.75 -144.2 -74.75 -153.3 -74.75 -162.3 -70.65 -168.75 -67.0 -174.4 -62.05 -175.05 L-60.75 -175.2 -60.6 -175.2 Q-54.7 -175.2 -50.7 -168.75 -46.5 -162.3 -46.5 -153.3 -46.5 -144.2 -50.7 -137.8 -54.7 -131.35 -60.6 -131.35 L-60.9 -131.35" fill="none" stroke="#000000" stroke-linecap="round" stroke-linejoin="round" stroke-opacity="0.4" stroke-width="0.5"/>
      <path d="M-55.35 -143.9 Q-64.55 -144.6 -70.1 -151.2 -73.2 -154.9 -74.65 -159.6 -73.95 -162.55 -72.35 -165.05 -69.05 -169.9 -64.45 -169.9 -59.85 -169.9 -56.7 -165.05 -53.4 -160.15 -53.4 -153.25 -53.4 -148.0 -55.35 -143.9 M-63.0 -162.7 L-62.05 -159.9 Q-60.75 -157.0 -58.95 -157.0 -57.7 -157.0 -56.9 -157.9 -56.25 -158.6 -56.25 -159.6 -56.25 -163.7 -59.6 -164.95 -63.0 -166.35 -63.0 -162.7" fill="#33cc00" fill-rule="evenodd" stroke="none"/>
      <path d="M-74.65 -159.6 Q-73.2 -154.9 -70.1 -151.2 -64.55 -144.6 -55.35 -143.9 L-56.7 -141.5 Q-59.85 -136.55 -64.45 -136.55 -69.05 -136.55 -72.35 -141.5 -75.45 -146.3 -75.45 -153.25 -75.45 -156.7 -74.65 -159.6" fill="#25b000" fill-rule="evenodd" stroke="none"/>
      <path d="M-63.0 -162.7 Q-63.0 -166.35 -59.6 -164.95 -56.25 -163.7 -56.25 -159.6 -56.25 -158.6 -56.9 -157.9 -57.7 -157.0 -58.95 -157.0 -60.75 -157.0 -62.05 -159.9 L-63.0 -162.7" fill="#68fa40" fill-rule="evenodd" stroke="none"/>
      <path d="M-55.35 -143.9 Q-53.4 -148.0 -53.4 -153.25 -53.4 -160.15 -56.7 -165.05 -59.85 -169.9 -64.45 -169.9 -69.05 -169.9 -72.35 -165.05 -73.95 -162.55 -74.65 -159.6 -75.45 -156.7 -75.45 -153.25 -75.45 -146.3 -72.35 -141.5 -69.05 -136.55 -64.45 -136.55 -59.85 -136.55 -56.7 -141.5 L-55.35 -143.9 Z" fill="none" stroke="#000000" stroke-linecap="round" stroke-linejoin="round" stroke-opacity="0.4" stroke-width="0.5"/>
      <path d="M47.45 -176.65 L49.9 -175.6 Q52.45 -174.0 54.55 -170.7 58.65 -164.15 58.65 -155.0 58.65 -145.85 54.55 -139.25 L53.35 -137.4 52.45 -145.85 Q54.15 -150.1 54.15 -155.5 54.15 -162.5 51.25 -167.45 49.7 -170.05 47.85 -171.25 L45.8 -172.15 45.15 -172.4 43.95 -172.45 42.7 -172.3 Q40.8 -174.0 38.4 -175.2 41.1 -177.2 44.4 -177.2 L46.1 -177.05 47.0 -176.8 47.45 -176.65" fill="url(#gradient1)" fill-rule="evenodd" stroke="none"/>
      <path d="M53.35 -137.4 L54.55 -139.25 Q58.65 -145.85 58.65 -155.0 58.65 -164.15 54.55 -170.7 52.45 -174.0 49.9 -175.6 L47.45 -176.65 52.95 -175.6 53.1 -175.6 Q57.6 -174.85 61.0 -169.65 L61.65 -168.7 Q64.85 -162.9 64.85 -155.0 64.85 -147.2 61.7 -141.4 L61.0 -140.2 Q57.75 -135.3 53.5 -134.3 L53.35 -137.4" fill="url(#gradient2)" fill-rule="evenodd" stroke="none"/>
      <path d="M42.7 -172.3 L43.95 -172.45 45.15 -172.4 45.8 -172.15 47.85 -171.25 Q49.7 -170.05 51.25 -167.45 54.15 -162.5 54.15 -155.5 54.15 -150.1 52.45 -145.85 50.85 -157.55 47.55 -166.0 45.7 -169.7 42.7 -172.3" fill="#0f0f0f" fill-rule="evenodd" stroke="none"/>
      <path d="M61.7 -141.4 Q64.85 -147.2 64.85 -155.0 64.85 -162.9 61.65 -168.7 62.7 -167.65 63.55 -166.2 66.55 -161.5 66.55 -155.0 66.55 -148.4 63.55 -143.8 62.7 -142.35 61.7 -141.4" fill="#33cc00" fill-rule="evenodd" stroke="none"/>
      <path d="M53.35 -137.4 L54.55 -139.25 Q58.65 -145.85 58.65 -155.0 58.65 -164.15 54.55 -170.7 52.45 -174.0 49.9 -175.6 L47.45 -176.65 47.0 -176.8 46.1 -177.05 44.4 -177.2 Q41.1 -177.2 38.4 -175.2 40.8 -174.0 42.7 -172.3 L43.95 -172.45 45.15 -172.4 45.8 -172.15 47.85 -171.25 Q49.7 -170.05 51.25 -167.45 54.15 -162.5 54.15 -155.5 54.15 -150.1 52.45 -145.85 L53.35 -137.4 53.5 -134.3 Q57.75 -135.3 61.0 -140.2 L61.7 -141.4 Q64.85 -147.2 64.85 -155.0 64.85 -162.9 61.65 -168.7 L61.0 -169.65 Q57.6 -174.85 53.1 -175.6 L52.95 -175.6 47.45 -176.65 M52.45 -145.85 Q50.85 -157.55 47.55 -166.0 45.7 -169.7 42.7 -172.3 M61.65 -168.7 Q62.7 -167.65 63.55 -166.2 66.55 -161.5 66.55 -155.0 66.55 -148.4 63.55 -143.8 62.7 -142.35 61.7 -141.4" fill="none" stroke="#000000" stroke-linecap="round" stroke-linejoin="round" stroke-opacity="0.4" stroke-width="0.5"/>
      <path d="M3.15 -198.1 L-3.6 -204.95 3.15 -198.1 Q-16.8 -197.4 -36.75 -187.5 L-46.25 -191.85 -36.75 -187.5 -45.45 -182.85 -53.75 -185.65 Q-50.2 -189.05 -46.25 -191.85 -28.8 -204.25 -3.6 -204.95 L-2.1 -205.05 Q23.75 -205.3 39.25 -191.2 L41.35 -189.35 39.5 -184.2 Q23.35 -195.4 3.15 -198.1" fill="#cccccc" fill-rule="evenodd" stroke="none"/>
      <path d="M-36.75 -187.5 Q-16.8 -197.4 3.15 -198.1 L2.4 -191.1 Q-16.5 -191.3 -36.75 -180.1 L-36.75 -187.5" fill="#adadad" fill-rule="evenodd" stroke="none"/>
      <path d="M29.45 -182.35 L39.5 -184.2 48.35 -177.3 Q43.15 -178.4 38.6 -177.2 34.05 -180.1 29.45 -182.35 M-45.45 -182.85 L-36.75 -187.5 -36.75 -180.1 -44.65 -175.45 -45.45 -182.85" fill="#8f8989" fill-rule="evenodd" stroke="none"/>
      <path d="M3.15 -198.1 Q23.35 -195.4 39.5 -184.2 L29.45 -182.35 Q15.75 -189.25 2.4 -191.1 L3.15 -198.1" fill="#a3a3a3" fill-rule="evenodd" stroke="none"/>
      <path d="M39.5 -184.2 L41.35 -189.35 50.15 -180.8 Q49.95 -178.9 48.35 -177.3 L39.5 -184.2" fill="#b5b5b5" fill-rule="evenodd" stroke="none"/>
      <path d="M-3.6 -204.95 L3.15 -198.1 2.4 -191.1 M39.5 -184.2 L41.35 -189.35 M-46.25 -191.85 L-36.75 -187.5 -36.75 -180.1 M29.45 -182.35 L39.5 -184.2" fill="none" stroke="#000000" stroke-linecap="round" stroke-linejoin="round" stroke-opacity="0.3019608" stroke-width="0.5"/>
      <path d="M41.35 -189.35 L39.25 -191.2 Q23.75 -205.3 -2.1 -205.05 L-3.6 -204.95 Q-28.8 -204.25 -46.25 -191.85 -50.2 -189.05 -53.75 -185.65 L-45.45 -182.85 -44.65 -175.45 -36.75 -180.1 Q-16.5 -191.3 2.4 -191.1 15.75 -189.25 29.45 -182.35 34.05 -180.1 38.6 -177.2 43.15 -178.4 48.35 -177.3 49.95 -178.9 50.15 -180.8 L41.35 -189.35" fill="none" stroke="#000000" stroke-linecap="round" stroke-linejoin="round" stroke-opacity="0.4" stroke-width="1.0"/>
      <path d="M-49.25 -171.5 L-44.5 -183.3 -49.25 -171.5 Q-53.1 -175.75 -59.95 -175.45 L-55.05 -186.45 -44.5 -183.3 -42.5 -177.35 -44.9 -174.3 Q-46.85 -174.15 -49.25 -171.5" fill="#333333" fill-rule="evenodd" stroke="none"/>
      <path d="M-44.5 -183.3 L-49.25 -171.5 Q-46.85 -174.15 -44.9 -174.3 L-42.5 -177.35 -44.5 -183.3 -55.05 -186.45 -59.95 -175.45 Q-53.1 -175.75 -49.25 -171.5" fill="none" stroke="#000000" stroke-linecap="round" stroke-linejoin="round" stroke-opacity="0.4" stroke-width="1.0"/>
      <path d="M48.05 -185.15 Q52.0 -181.45 54.45 -175.7 L50.85 -174.85 46.65 -181.0 50.85 -174.85 Q44.15 -177.35 38.8 -175.35 L32.65 -179.95 46.65 -181.0 48.05 -185.15" fill="#333333" fill-rule="evenodd" stroke="none"/>
      <path d="M50.85 -174.85 L54.45 -175.7 Q52.0 -181.45 48.05 -185.15 M46.65 -181.0 L50.85 -174.85 Q44.15 -177.35 38.8 -175.35 L32.65 -179.95 46.65 -181.0" fill="none" stroke="#000000" stroke-linecap="round" stroke-linejoin="round" stroke-opacity="0.4" stroke-width="1.0"/>
      <path d="M48.05 -185.15 L46.65 -181.0" fill="none" stroke="#000000" stroke-linecap="round" stroke-linejoin="round" stroke-opacity="0.3019608" stroke-width="1.0"/>
    </g>
    <linearGradient gradientTransform="matrix(0.0, 0.0234, -0.0285, 0.0, -47.95, -153.3)" gradientUnits="userSpaceOnUse" id="gradient0" spreadMethod="pad" x1="-819.2" x2="819.2">
      <stop offset="0.0" stop-color="#333333"/>
      <stop offset="1.0" stop-color="#1c1c1c"/>
    </linearGradient>
    <linearGradient gradientTransform="matrix(0.0124, 0.0, 0.0, 0.0243, 48.5, -157.35)" gradientUnits="userSpaceOnUse" id="gradient1" spreadMethod="pad" x1="-819.2" x2="819.2">
      <stop offset="0.0" stop-color="#333333"/>
      <stop offset="1.0" stop-color="#1c1c1c"/>
    </linearGradient>
    <linearGradient gradientTransform="matrix(0.0, 0.0193, -0.0258, 0.0, 56.15, -155.5)" gradientUnits="userSpaceOnUse" id="gradient2" spreadMethod="pad" x1="-819.2" x2="819.2">
      <stop offset="0.0" stop-color="#333333"/>
      <stop offset="1.0" stop-color="#1c1c1c"/>
    </linearGradient>
  </defs>
</svg>
