<?xml version="1.0" encoding="UTF-8" standalone="no"?>
<svg xmlns:xlink="http://www.w3.org/1999/xlink" height="531.5px" width="460.6px" xmlns="http://www.w3.org/2000/svg">
  <g transform="matrix(1.0, 0.0, 0.0, 1.0, 193.65, 334.05)">
    <use height="48.0" transform="matrix(1.0, 0.0, 0.0, 1.0, -52.85, -192.8)" width="112.75" xlink:href="#shape0"/>
  </g>
  <defs>
    <g id="shape0" transform="matrix(1.0, 0.0, 0.0, 1.0, 52.85, 192.8)">
      <path d="M-46.3 -185.5 Q-43.95 -168.85 -34.65 -155.2 -28.2 -145.7 -18.2 -148.35 -7.9 -154.35 -7.75 -164.55 -27.4 -178.3 -46.3 -185.5 M-4.15 -165.15 Q-4.4 -152.95 -16.7 -145.85 -28.65 -142.6 -36.35 -153.95 -47.35 -170.25 -50.2 -190.15 -27.55 -181.55 -4.15 -165.15" fill="#c4ab92" fill-rule="evenodd" stroke="none"/>
      <path d="M-46.3 -185.5 Q-27.4 -178.3 -7.75 -164.55 -7.9 -154.35 -18.2 -148.35 -28.2 -145.7 -34.65 -155.2 -43.95 -168.85 -46.3 -185.5" fill="#f7eee5" fill-rule="evenodd" stroke="none"/>
      <path d="M-4.15 -165.15 Q-27.55 -181.55 -50.2 -190.15" fill="none" stroke="#000000" stroke-linecap="square" stroke-linejoin="round" stroke-opacity="0.8235294" stroke-width="4.0"/>
      <path d="M-50.2 -190.15 Q-47.35 -170.25 -36.35 -153.95 -28.65 -142.6 -16.7 -145.85 -4.4 -152.95 -4.15 -165.15 Z" fill="none" stroke="#000000" stroke-linecap="round" stroke-linejoin="round" stroke-opacity="0.5019608" stroke-width="0.7000000000000001"/>
      <path d="M-25.4 -150.8 Q-15.15 -159.55 -22.5 -172.75 -33.4 -162.3 -25.4 -150.8" fill="#cc0000" fill-rule="evenodd" stroke="none"/>
      <path d="M-25.4 -150.8 Q-15.15 -159.55 -22.5 -172.75 -33.4 -162.3 -25.4 -150.8 Z" fill="none" stroke="#000000" stroke-linecap="round" stroke-linejoin="round" stroke-opacity="0.5019608" stroke-width="0.7000000000000001"/>
      <path d="M57.25 -184.9 Q55.05 -168.15 46.65 -154.45 40.75 -144.85 31.65 -147.6 22.25 -153.6 22.05 -163.85 39.95 -177.65 57.25 -184.9 M45.35 -155.5 Q52.45 -166.95 54.25 -180.95 39.8 -174.9 24.8 -163.35 24.9 -154.8 32.8 -149.7 40.45 -147.45 45.35 -155.5" fill="#c4ab92" fill-rule="evenodd" stroke="none"/>
      <path d="M45.35 -155.5 Q40.45 -147.45 32.8 -149.7 24.9 -154.8 24.8 -163.35 39.8 -174.9 54.25 -180.95 52.45 -166.95 45.35 -155.5" fill="#f7eee5" fill-rule="evenodd" stroke="none"/>
      <path d="M57.25 -184.9 Q55.05 -168.15 46.65 -154.45 40.75 -144.85 31.65 -147.6 22.25 -153.6 22.05 -163.85" fill="none" stroke="#000000" stroke-linecap="round" stroke-linejoin="round" stroke-opacity="0.5019608" stroke-width="0.7000000000000001"/>
      <path d="M22.05 -163.85 Q39.95 -177.65 57.25 -184.9 Z" fill="none" stroke="#000000" stroke-linecap="square" stroke-linejoin="round" stroke-opacity="0.8235294" stroke-width="4.0"/>
      <path d="M38.15 -151.8 Q30.3 -159.2 35.95 -170.3 44.3 -161.55 38.15 -151.8" fill="#cc0000" fill-rule="evenodd" stroke="none"/>
      <path d="M38.15 -151.8 Q30.3 -159.2 35.95 -170.3 44.3 -161.55 38.15 -151.8 Z" fill="none" stroke="#000000" stroke-linecap="round" stroke-linejoin="round" stroke-opacity="0.5019608" stroke-width="0.7000000000000001"/>
    </g>
  </defs>
</svg>
