<?xml version="1.0" encoding="UTF-8" standalone="no"?>
<svg xmlns:xlink="http://www.w3.org/1999/xlink" height="531.5px" width="460.6px" xmlns="http://www.w3.org/2000/svg">
  <g transform="matrix(1.0, 0.0, 0.0, 1.0, 193.65, 334.05)">
    <use height="126.1" transform="matrix(0.7879, 0.0, 0.0, 0.7879, -73.7409, -81.6302)" width="174.1" xlink:href="#shape0"/>
  </g>
  <defs>
    <g id="shape0" transform="matrix(1.0, 0.0, 0.0, 1.0, 87.05, 63.05)">
      <path d="M-74.95 -38.8 L-74.9 -38.85 Q-71.2 -42.15 -70.4 -44.9 -67.85 -53.75 -58.5 -58.0 -50.65 -61.55 -38.9 -61.55 L-33.25 -60.9 Q-33.65 -60.55 -34.0 -60.55 L-32.3 -60.75 -31.05 -61.05 -27.55 -61.55 Q-21.5 -61.55 -12.8 -58.8 -5.25 -56.0 -4.85 -56.0 -4.25 -56.0 -1.85 -57.05 L3.4 -59.3 Q11.55 -62.55 17.55 -62.55 29.7 -62.55 40.8 -57.75 44.25 -56.3 47.25 -54.45 L49.6 -53.0 Q65.1 -55.45 76.65 -45.15 88.0 -35.0 86.35 -19.85 85.65 -13.65 85.5 -7.5 L85.45 -1.85 Q83.95 3.6 81.6 8.8 79.5 13.4 75.45 16.4 75.55 22.05 73.5 27.1 72.8 28.85 71.7 30.25 64.7 39.2 53.3 40.2 43.65 40.65 34.75 36.55 31.05 37.75 27.45 39.6 10.05 48.6 -8.95 44.65 -16.0 43.25 -20.6 37.85 -32.7 41.6 -44.2 35.1 -50.2 31.7 -53.7 25.8 -60.2 14.8 -58.7 2.0 -58.25 -1.85 -61.45 -3.85 -67.8 -7.85 -71.3 -14.65 -77.15 -26.1 -74.95 -38.8 M19.45 -20.2 L18.15 -17.6 19.45 -20.2 M11.5 -14.0 Q8.0 -10.1 7.4 -2.25 7.2 0.5 7.75 2.85 8.7 6.9 11.85 9.8 13.8 11.55 16.55 12.85 L21.2 12.65 22.8 12.45 34.8 10.7 51.65 8.05 Q63.65 6.0 68.2 4.55 72.05 3.5 70.2 1.5 66.85 -1.7 55.45 -6.05 L42.85 -10.5 38.15 -12.0 Q24.95 -16.25 20.45 -17.3 L18.3 -17.65 18.15 -17.6 Q14.05 -16.85 11.5 -14.0 L8.7 -16.65 11.5 -14.0 M16.55 14.75 L16.55 12.85 16.55 14.75 M6.7 -18.95 L6.45 -19.05 Q9.95 -26.05 6.45 -36.85 9.95 -26.05 6.45 -19.05 L6.7 -18.95 M43.75 -25.7 Q38.05 -20.85 33.2 -18.8 30.7 -20.95 29.15 -34.2 30.7 -20.95 33.2 -18.8 38.05 -20.85 43.75 -25.7 L43.75 -15.5 Q43.75 -13.95 44.85 -12.85 46.0 -11.75 47.55 -11.75 49.1 -11.75 50.2 -12.85 51.35 -13.95 51.35 -15.5 L51.35 -26.35 Q51.35 -27.95 50.2 -29.05 49.45 -29.8 48.45 -30.05 L48.4 -29.95 47.1 -28.7 43.75 -25.7 M70.5 -36.85 Q62.7 -37.85 54.35 -34.1 51.1 -32.55 48.45 -30.05 51.1 -32.55 54.35 -34.1 62.7 -37.85 70.5 -36.85 M26.6 -19.3 Q25.3 -22.05 25.0 -25.25 25.3 -22.05 26.6 -19.3 M14.0 -20.05 Q14.85 -25.3 14.0 -29.25 14.85 -25.3 14.0 -20.05 M63.65 15.5 Q63.65 14.35 62.9 13.55 62.15 12.75 61.1 12.75 60.05 12.75 59.3 13.55 58.55 14.35 58.55 15.5 58.55 16.65 59.3 17.45 60.05 18.3 61.1 18.3 62.15 18.3 62.9 17.45 63.65 16.65 63.65 15.5 M73.15 7.5 Q73.65 8.15 74.3 8.15 L75.5 7.5 Q76.0 6.85 76.0 5.95 76.0 5.05 75.5 4.35 75.0 3.75 74.3 3.75 73.65 3.75 73.15 4.35 72.65 5.05 72.65 5.95 72.65 6.85 73.15 7.5 M41.9 28.3 Q42.85 27.25 42.85 25.7 42.85 24.25 41.9 23.1 41.0 22.05 39.7 22.05 38.35 22.05 37.45 23.1 36.5 24.25 36.5 25.7 36.5 27.25 37.45 28.3 38.35 29.35 39.7 29.35 41.0 29.35 41.9 28.3 M0.65 5.15 L7.75 2.85 0.65 5.15 M8.6 14.0 L11.85 9.8 8.6 14.0 M10.45 26.4 Q9.35 27.5 9.35 29.0 9.35 30.55 10.45 31.6 11.5 32.7 13.05 32.7 14.55 32.7 15.65 31.6 16.7 30.55 16.7 29.0 16.7 27.5 15.65 26.4 14.55 25.35 13.05 25.35 11.5 25.35 10.45 26.4 M-18.1 -29.65 L-18.1 -29.35 -18.1 -13.35 Q-18.05 -11.55 -16.8 -10.25 -15.45 -8.9 -13.55 -8.9 L-13.5 -8.9 Q-11.6 -8.9 -10.3 -10.25 -8.95 -11.55 -8.9 -13.35 L-8.9 -24.0 Q-13.05 -26.35 -18.1 -29.65 L-19.75 -30.8 Q-39.6 -41.85 -50.55 -35.95 -39.6 -41.85 -19.75 -30.8 L-18.1 -29.65 M6.45 -19.05 Q2.55 -17.55 -8.9 -24.0 2.55 -17.55 6.45 -19.05 M-36.4 7.8 Q-36.4 6.5 -37.0 5.6 -37.6 4.65 -38.45 4.65 -39.35 4.65 -39.95 5.6 -40.55 6.5 -40.55 7.8 -40.55 9.15 -39.95 10.05 -39.35 10.95 -38.45 10.95 -37.6 10.95 -37.0 10.05 -36.4 9.15 -36.4 7.8 M-15.55 21.25 Q-14.55 20.2 -14.55 18.8 -14.55 17.4 -15.55 16.4 -16.55 15.4 -17.95 15.4 -19.4 15.4 -20.4 16.4 -21.4 17.4 -21.4 18.8 -21.4 20.2 -20.4 21.25 -19.4 22.25 -17.95 22.25 -16.55 22.25 -15.55 21.25" fill="#ffffff" fill-rule="evenodd" stroke="none"/>
      <path d="M43.75 -25.7 L47.1 -28.7 48.4 -29.95 48.45 -30.05 Q49.45 -29.8 50.2 -29.05 51.35 -27.95 51.35 -26.35 L51.35 -15.5 Q51.35 -13.95 50.2 -12.85 49.1 -11.75 47.55 -11.75 46.0 -11.75 44.85 -12.85 43.75 -13.95 43.75 -15.5 L43.75 -25.7 M73.15 7.5 Q72.65 6.85 72.65 5.95 72.65 5.05 73.15 4.35 73.65 3.75 74.3 3.75 75.0 3.75 75.5 4.35 76.0 5.05 76.0 5.95 76.0 6.85 75.5 7.5 L74.3 8.15 Q73.65 8.15 73.15 7.5 M63.65 15.5 Q63.65 16.65 62.9 17.45 62.15 18.3 61.1 18.3 60.05 18.3 59.3 17.45 58.55 16.65 58.55 15.5 58.55 14.35 59.3 13.55 60.05 12.75 61.1 12.75 62.15 12.75 62.9 13.55 63.65 14.35 63.65 15.5 M41.9 28.3 Q41.0 29.35 39.7 29.35 38.35 29.35 37.45 28.3 36.5 27.25 36.5 25.7 36.5 24.25 37.45 23.1 38.35 22.05 39.7 22.05 41.0 22.05 41.9 23.1 42.85 24.25 42.85 25.7 42.85 27.25 41.9 28.3 M10.45 26.4 Q11.5 25.35 13.05 25.35 14.55 25.35 15.65 26.4 16.7 27.5 16.7 29.0 16.7 30.55 15.65 31.6 14.55 32.7 13.05 32.7 11.5 32.7 10.45 31.6 9.35 30.55 9.35 29.0 9.35 27.5 10.45 26.4 M-8.9 -24.0 L-8.9 -13.35 Q-8.95 -11.55 -10.3 -10.25 -11.6 -8.9 -13.5 -8.9 L-13.55 -8.9 Q-15.45 -8.9 -16.8 -10.25 -18.05 -11.55 -18.1 -13.35 L-18.1 -29.35 -18.1 -29.65 Q-13.05 -26.35 -8.9 -24.0 M-15.55 21.25 Q-16.55 22.25 -17.95 22.25 -19.4 22.25 -20.4 21.25 -21.4 20.2 -21.4 18.8 -21.4 17.4 -20.4 16.4 -19.4 15.4 -17.95 15.4 -16.55 15.4 -15.55 16.4 -14.55 17.4 -14.55 18.8 -14.55 20.2 -15.55 21.25 M-36.4 7.8 Q-36.4 9.15 -37.0 10.05 -37.6 10.95 -38.45 10.95 -39.35 10.95 -39.95 10.05 -40.55 9.15 -40.55 7.8 -40.55 6.5 -39.95 5.6 -39.35 4.65 -38.45 4.65 -37.6 4.65 -37.0 5.6 -36.4 6.5 -36.4 7.8" fill="#333333" fill-rule="evenodd" stroke="none"/>
      <path d="M-74.95 -38.8 Q-77.15 -26.1 -71.3 -14.65 -67.8 -7.85 -61.45 -3.85 -58.25 -1.85 -58.7 2.0 -60.2 14.8 -53.7 25.8 -50.2 31.7 -44.2 35.1 -32.7 41.6 -20.6 37.85 -16.0 43.25 -8.95 44.65 10.05 48.6 27.45 39.6 31.05 37.75 34.75 36.55 43.65 40.65 53.3 40.2 64.7 39.2 71.7 30.25 72.8 28.85 73.5 27.1 75.55 22.05 75.45 16.4 79.5 13.4 81.6 8.8 83.95 3.6 85.45 -1.85 85.45 3.45 85.9 8.75 87.05 22.7 80.85 35.25 75.4 46.5 64.9 51.15 62.25 52.3 59.7 53.85 47.05 61.3 32.65 61.25 L7.0 60.15 Q-1.4 59.6 -9.9 61.35 -24.65 64.55 -38.1 59.2 -50.9 54.1 -60.55 43.8 -62.5 41.7 -64.6 39.75 L-71.4 35.1 Q-75.0 32.3 -76.8 29.1 -79.0 25.1 -79.0 19.35 L-78.5 16.6 -77.95 14.3 Q-77.95 13.6 -79.5 11.65 -81.0 9.7 -81.0 7.25 L-80.5 4.6 -80.0 1.95 Q-80.0 0.95 -81.0 -0.9 L-83.25 -4.8 Q-86.55 -10.8 -86.55 -17.2 -86.55 -21.7 -85.2 -26.0 -83.75 -30.35 -81.5 -32.8 L-74.95 -38.8" fill="url(#gradient0)" fill-rule="evenodd" stroke="none"/>
      <path d="M7.75 2.85 Q7.2 0.5 7.4 -2.25 8.0 -10.1 11.5 -14.0 14.05 -16.85 18.15 -17.6 L18.3 -17.65 20.45 -17.3 Q24.95 -16.25 38.15 -12.0 L42.85 -10.5 55.45 -6.05 Q66.85 -1.7 70.2 1.5 72.05 3.5 68.2 4.55 63.65 6.0 51.65 8.05 L34.8 10.7 22.8 12.45 21.2 12.65 16.55 12.85 Q13.8 11.55 11.85 9.8 8.7 6.9 7.75 2.85 M13.65 -6.45 Q15.0 -12.25 18.95 -16.0 L20.45 -17.3 18.95 -16.0 Q15.0 -12.25 13.65 -6.45 M38.15 -12.0 L37.55 -10.6 Q35.2 -5.1 36.5 0.8 35.2 -5.1 37.55 -10.6 L38.15 -12.0 M55.5 -1.2 L55.35 -2.85 55.25 -4.2 55.45 -6.05 55.25 -4.2 55.35 -2.85 55.5 -1.2 M49.45 1.35 L49.8 3.6 Q50.3 5.55 51.25 7.4 L51.65 8.05 51.25 7.4 Q50.3 5.55 49.8 3.6 L49.45 1.35 M19.35 0.95 Q19.2 1.35 19.2 2.55 19.2 5.1 20.05 7.55 20.95 10.3 22.8 12.45 20.95 10.3 20.05 7.55 19.2 5.1 19.2 2.55 19.2 1.35 19.35 0.95 M34.8 10.7 Q34.05 9.15 33.35 6.65 34.05 9.15 34.8 10.7" fill="url(#gradient1)" fill-rule="evenodd" stroke="none"/>
      <path d="M85.45 -1.85 L85.5 -7.5 Q85.65 -13.65 86.35 -19.85 88.0 -35.0 76.65 -45.15 65.1 -55.45 49.6 -53.0 L47.25 -54.45 Q44.25 -56.3 40.8 -57.75 29.7 -62.55 17.55 -62.55 11.55 -62.55 3.4 -59.3 L-1.85 -57.05 Q-4.25 -56.0 -4.85 -56.0 -5.25 -56.0 -12.8 -58.8 -21.5 -61.55 -27.55 -61.55 L-31.05 -61.05 -32.3 -60.75 -34.0 -60.55 Q-33.65 -60.55 -33.25 -60.9 L-38.9 -61.55 Q-50.65 -61.55 -58.5 -58.0 -67.85 -53.75 -70.4 -44.9 -71.2 -42.15 -74.9 -38.85 L-74.95 -38.8 -81.5 -32.8 Q-83.75 -30.35 -85.2 -26.0 -86.55 -21.7 -86.55 -17.2 -86.55 -10.8 -83.25 -4.8 L-81.0 -0.9 Q-80.0 0.95 -80.0 1.95 L-80.5 4.6 -81.0 7.25 Q-81.0 9.7 -79.5 11.65 -77.95 13.6 -77.95 14.3 L-78.5 16.6 -79.0 19.35 Q-79.0 25.1 -76.8 29.1 -75.0 32.3 -71.4 35.1 L-64.6 39.75 Q-62.5 41.7 -60.55 43.8 -50.9 54.1 -38.1 59.2 -24.65 64.55 -9.9 61.35 -1.4 59.6 7.0 60.15 L32.65 61.25 Q47.05 61.3 59.7 53.85 62.25 52.3 64.9 51.15 75.4 46.5 80.85 35.25 87.05 22.7 85.9 8.75 85.45 3.45 85.45 -1.85 M6.45 -36.85 Q9.95 -26.05 6.45 -19.05 L6.7 -18.95 M29.15 -34.2 Q30.7 -20.95 33.2 -18.8 38.05 -20.85 43.75 -25.7 L47.1 -28.7 48.4 -29.95 48.45 -30.05 Q51.1 -32.55 54.35 -34.1 62.7 -37.85 70.5 -36.85 M43.75 -25.7 L43.75 -15.5 Q43.75 -13.95 44.85 -12.85 46.0 -11.75 47.55 -11.75 49.1 -11.75 50.2 -12.85 51.35 -13.95 51.35 -15.5 L51.35 -26.35 Q51.35 -27.95 50.2 -29.05 49.45 -29.8 48.45 -30.05 M-32.3 -60.75 L-33.25 -60.9 M-8.9 -24.0 L-8.9 -13.35 Q-8.95 -11.55 -10.3 -10.25 -11.6 -8.9 -13.5 -8.9 L-13.55 -8.9 Q-15.45 -8.9 -16.8 -10.25 -18.05 -11.55 -18.1 -13.35 L-18.1 -29.35 -18.1 -29.65 -19.75 -30.8 Q-39.6 -41.85 -50.55 -35.95 M-18.1 -29.65 Q-13.05 -26.35 -8.9 -24.0 2.55 -17.55 6.45 -19.05" fill="none" stroke="#000000" stroke-linecap="round" stroke-linejoin="round" stroke-opacity="0.3019608" stroke-width="1.0"/>
      <path d="M7.75 2.85 Q7.2 0.5 7.4 -2.25 8.0 -10.1 11.5 -14.0 14.05 -16.85 18.15 -17.6 L18.3 -17.65 20.45 -17.3 Q24.95 -16.25 38.15 -12.0 L42.85 -10.5 55.45 -6.05 Q66.85 -1.7 70.2 1.5 72.05 3.5 68.2 4.55 63.65 6.0 51.65 8.05 L34.8 10.7 22.8 12.45 21.2 12.65 16.55 12.85 Q13.8 11.55 11.85 9.8 8.7 6.9 7.75 2.85 M73.15 7.5 Q72.65 6.85 72.65 5.95 72.65 5.05 73.15 4.35 73.65 3.75 74.3 3.75 75.0 3.75 75.5 4.35 76.0 5.05 76.0 5.95 76.0 6.85 75.5 7.5 L74.3 8.15 Q73.65 8.15 73.15 7.5 M63.65 15.5 Q63.65 16.65 62.9 17.45 62.15 18.3 61.1 18.3 60.05 18.3 59.3 17.45 58.55 16.65 58.55 15.5 58.55 14.35 59.3 13.55 60.05 12.75 61.1 12.75 62.15 12.75 62.9 13.55 63.65 14.35 63.65 15.5 M41.9 28.3 Q41.0 29.35 39.7 29.35 38.35 29.35 37.45 28.3 36.5 27.25 36.5 25.7 36.5 24.25 37.45 23.1 38.35 22.05 39.7 22.05 41.0 22.05 41.9 23.1 42.85 24.25 42.85 25.7 42.85 27.25 41.9 28.3 M10.45 26.4 Q11.5 25.35 13.05 25.35 14.55 25.35 15.65 26.4 16.7 27.5 16.7 29.0 16.7 30.55 15.65 31.6 14.55 32.7 13.05 32.7 11.5 32.7 10.45 31.6 9.35 30.55 9.35 29.0 9.35 27.5 10.45 26.4 M-15.55 21.25 Q-16.55 22.25 -17.95 22.25 -19.4 22.25 -20.4 21.25 -21.4 20.2 -21.4 18.8 -21.4 17.4 -20.4 16.4 -19.4 15.4 -17.95 15.4 -16.55 15.4 -15.55 16.4 -14.55 17.4 -14.55 18.8 -14.55 20.2 -15.55 21.25 M-36.4 7.8 Q-36.4 9.15 -37.0 10.05 -37.6 10.95 -38.45 10.95 -39.35 10.95 -39.95 10.05 -40.55 9.15 -40.55 7.8 -40.55 6.5 -39.95 5.6 -39.35 4.65 -38.45 4.65 -37.6 4.65 -37.0 5.6 -36.4 6.5 -36.4 7.8" fill="none" stroke="#000000" stroke-linecap="round" stroke-linejoin="round" stroke-opacity="0.4" stroke-width="1.0"/>
      <path d="M18.15 -17.6 L19.45 -20.2 M11.5 -14.0 L8.7 -16.65 M16.55 12.85 L16.55 14.75 M20.45 -17.3 L18.95 -16.0 Q15.0 -12.25 13.65 -6.45 M36.5 0.8 Q35.2 -5.1 37.55 -10.6 L38.15 -12.0 M14.0 -29.25 Q14.85 -25.3 14.0 -20.05 M25.0 -25.25 Q25.3 -22.05 26.6 -19.3 M55.45 -6.05 L55.25 -4.2 55.35 -2.85 55.5 -1.2 M51.65 8.05 L51.25 7.4 Q50.3 5.55 49.8 3.6 L49.45 1.35 M33.35 6.65 Q34.05 9.15 34.8 10.7 M22.8 12.45 Q20.95 10.3 20.05 7.55 19.2 5.1 19.2 2.55 19.2 1.35 19.35 0.95 M7.75 2.85 L0.65 5.15 M11.85 9.8 L8.6 14.0" fill="none" stroke="#000000" stroke-linecap="round" stroke-linejoin="round" stroke-opacity="0.16862746" stroke-width="1.0"/>
    </g>
    <linearGradient gradientTransform="matrix(0.0134, 0.0357, -0.0579, 0.0217, -16.3, 39.65)" gradientUnits="userSpaceOnUse" id="gradient0" spreadMethod="pad" x1="-819.2" x2="819.2">
      <stop offset="0.0" stop-color="#ffffff"/>
      <stop offset="1.0" stop-color="#cccccc"/>
    </linearGradient>
    <linearGradient gradientTransform="matrix(0.0, -0.0137, 0.0187, 0.0, 38.55, -4.75)" gradientUnits="userSpaceOnUse" id="gradient1" spreadMethod="pad" x1="-819.2" x2="819.2">
      <stop offset="0.0" stop-color="#ff6e00"/>
      <stop offset="1.0" stop-color="#ffad56"/>
    </linearGradient>
  </defs>
</svg>
