<?xml version="1.0" encoding="UTF-8" standalone="no"?>
<svg xmlns:xlink="http://www.w3.org/1999/xlink" height="531.5px" width="460.6px" xmlns="http://www.w3.org/2000/svg">
  <g transform="matrix(1.0, 0.0, 0.0, 1.0, 193.65, 334.05)">
    <use height="42.2" transform="matrix(1.0, 0.0, 0.0, 1.0, -62.3, -197.75)" width="117.8" xlink:href="#shape0"/>
  </g>
  <defs>
    <g id="shape0" transform="matrix(1.0, 0.0, 0.0, 1.0, 62.3, 197.75)">
      <path d="M-61.45 -180.65 Q-60.75 -183.35 -58.6 -184.55 -3.6 -204.25 49.8 -188.65 51.3 -187.75 52.55 -185.9 -5.95 -199.75 -61.45 -180.65" fill="#e76064" fill-rule="evenodd" stroke="none"/>
      <path d="M52.55 -185.9 L53.6 -183.95 Q54.5 -182.4 54.4 -180.15 -5.65 -195.1 -61.65 -176.55 -61.85 -178.9 -61.45 -180.65 -5.95 -199.75 52.55 -185.9" fill="#f1e852" fill-rule="evenodd" stroke="none"/>
      <path d="M54.4 -180.15 Q54.3 -178.1 53.25 -175.45 -5.55 -189.05 -60.0 -171.55 L-61.15 -172.65 Q-61.65 -174.8 -61.65 -176.55 -5.65 -195.1 54.4 -180.15" fill="#81c277" fill-rule="evenodd" stroke="none"/>
      <path d="M54.4 -164.45 Q53.8 -162.6 52.65 -160.55 -5.2 -178.7 -59.3 -155.95 L-60.65 -158.95 Q-19.9 -181.6 54.1 -164.55 L54.4 -164.45" fill="#ad7fb1" fill-rule="evenodd" stroke="none"/>
      <path d="M55.1 -169.2 Q55.1 -166.9 54.4 -164.45 L54.1 -164.55 Q-19.9 -181.6 -60.65 -158.95 -61.55 -161.4 -61.75 -163.65 -18.05 -186.8 54.6 -169.2 L55.1 -169.2" fill="#899bc5" fill-rule="evenodd" stroke="none"/>
      <path d="M53.25 -175.45 Q55.0 -172.45 55.1 -169.3 L55.1 -169.2 54.6 -169.2 Q-18.05 -186.8 -61.75 -163.65 -62.4 -168.15 -60.0 -171.55 -5.55 -189.05 53.25 -175.45" fill="#a8d8ed" fill-rule="evenodd" stroke="none"/>
      <path d="M-61.45 -180.65 Q-60.75 -183.35 -58.6 -184.55 -3.6 -204.25 49.8 -188.65 51.3 -187.75 52.55 -185.9 L53.6 -183.95 Q54.5 -182.4 54.4 -180.15 54.3 -178.1 53.25 -175.45 55.0 -172.45 55.1 -169.3 L55.1 -169.2 Q55.1 -166.9 54.4 -164.45 53.8 -162.6 52.65 -160.55 -5.2 -178.7 -59.3 -155.95 L-60.65 -158.95 Q-61.55 -161.4 -61.75 -163.65 -62.4 -168.15 -60.0 -171.55 L-61.15 -172.65 Q-61.65 -174.8 -61.65 -176.55 -61.85 -178.9 -61.45 -180.65 Z" fill="none" stroke="#000000" stroke-linecap="round" stroke-linejoin="round" stroke-opacity="0.4" stroke-width="0.8"/>
      <path d="M-25.05 -193.35 Q-24.5 -190.5 -24.7 -187.65 -26.15 -189.6 -28.2 -190.9 -32.1 -193.45 -36.5 -193.45 L-34.45 -180.75 -28.5 -176.65 -31.0 -173.3 -33.55 -175.1 -32.85 -171.0 Q-34.65 -169.1 -36.6 -167.55 L-37.85 -174.2 -42.8 -167.65 Q-40.5 -166.3 -38.25 -166.0 L-42.9 -163.35 Q-45.05 -164.25 -47.0 -165.5 -53.05 -169.6 -54.15 -176.85 -55.1 -182.0 -53.15 -186.4 L-53.05 -186.3 Q-52.2 -184.55 -50.25 -184.35 L-49.75 -184.25 Q-51.1 -180.95 -50.5 -177.5 -49.75 -172.85 -46.25 -169.9 L-44.65 -171.95 Q-45.55 -170.2 -45.45 -169.9 -45.55 -169.6 -45.05 -169.8 -43.3 -170.6 -40.0 -175.1 -37.25 -179.25 -37.05 -180.35 -36.6 -181.7 -37.55 -185.9 L-38.7 -191.4 -39.2 -192.45 -39.9 -190.2 -40.0 -187.55 -40.85 -192.65 -42.55 -192.05 Q-42.55 -193.35 -43.2 -194.4 L-44.0 -195.65 Q-41.75 -196.65 -39.4 -197.05 -31.9 -198.3 -25.95 -194.0 L-25.05 -193.35" fill="#999999" fill-rule="evenodd" stroke="none"/>
      <path d="M-24.7 -187.65 Q-24.5 -190.5 -25.05 -193.35 -19.8 -189.15 -18.85 -182.6 -17.55 -175.65 -21.85 -169.7 -26.25 -163.75 -33.75 -162.5 -38.8 -161.8 -42.9 -163.35 L-38.25 -166.0 -36.3 -166.2 -36.6 -167.55 Q-34.65 -169.1 -32.85 -171.0 L-32.2 -166.9 Q-28.95 -167.75 -26.65 -170.0 L-31.0 -173.3 -28.5 -176.65 -24.0 -173.6 Q-21.95 -177.5 -22.65 -182.1 -23.1 -185.05 -24.7 -187.65" fill="#828282" fill-rule="evenodd" stroke="none"/>
      <path d="M-44.0 -195.65 L-43.2 -194.4 Q-42.55 -193.35 -42.55 -192.05 -45.75 -190.6 -47.8 -187.75 -49.05 -186.0 -49.75 -184.25 L-50.25 -184.35 Q-52.2 -184.55 -53.05 -186.3 L-53.15 -186.4 -51.0 -190.0 Q-48.3 -193.8 -44.0 -195.65 M-40.0 -187.55 L-39.9 -190.2 -39.2 -192.45 -38.7 -191.4 -37.55 -185.9 Q-36.6 -181.7 -37.05 -180.35 -37.25 -179.25 -40.0 -175.1 -43.3 -170.6 -45.05 -169.8 -45.55 -169.6 -45.45 -169.9 -45.55 -170.2 -44.65 -171.95 L-38.9 -180.15 -40.0 -187.55" fill="#ffffff" fill-rule="evenodd" stroke="none"/>
      <path d="M-25.05 -193.35 L-25.95 -194.0 Q-31.9 -198.3 -39.4 -197.05 -41.75 -196.65 -44.0 -195.65 -48.3 -193.8 -51.0 -190.0 L-53.15 -186.4 Q-55.1 -182.0 -54.15 -176.85 -53.05 -169.6 -47.0 -165.5 -45.05 -164.25 -42.9 -163.35 -38.8 -161.8 -33.75 -162.5 -26.25 -163.75 -21.85 -169.7 -17.55 -175.65 -18.85 -182.6 -19.8 -189.15 -25.05 -193.35 M-42.55 -192.05 L-40.85 -192.65 -40.0 -187.55 -38.9 -180.15 -44.65 -171.95 -46.25 -169.9 Q-49.75 -172.85 -50.5 -177.5 -51.1 -180.95 -49.75 -184.25 -49.05 -186.0 -47.8 -187.75 -45.75 -190.6 -42.55 -192.05 M-38.25 -166.0 Q-40.5 -166.3 -42.8 -167.65 L-37.85 -174.2 -36.6 -167.55 -36.3 -166.2 -38.25 -166.0 M-32.85 -171.0 L-33.55 -175.1 -31.0 -173.3 -26.65 -170.0 Q-28.95 -167.75 -32.2 -166.9 L-32.85 -171.0 M-28.5 -176.65 L-34.45 -180.75 -36.5 -193.45 Q-32.1 -193.45 -28.2 -190.9 -26.15 -189.6 -24.7 -187.65 -23.1 -185.05 -22.65 -182.1 -21.95 -177.5 -24.0 -173.6 L-28.5 -176.65" fill="none" stroke="#4a4a4a" stroke-linecap="round" stroke-linejoin="round" stroke-opacity="0.6627451" stroke-width="0.8"/>
    </g>
  </defs>
</svg>
