<?xml version="1.0" encoding="UTF-8" standalone="no"?>
<svg xmlns:xlink="http://www.w3.org/1999/xlink" height="531.5px" width="460.6px" xmlns="http://www.w3.org/2000/svg">
  <g transform="matrix(1.0, 0.0, 0.0, 1.0, 193.65, 334.05)">
    <use height="72.45" transform="matrix(1.0, 0.0, 0.0, 1.0, -61.85, -75.9)" width="118.4" xlink:href="#shape0"/>
  </g>
  <defs>
    <g id="shape0" transform="matrix(1.0, 0.0, 0.0, 1.0, 61.85, 75.9)">
      <path d="M-9.8 -67.15 Q-11.55 -64.3 -14.95 -62.55 -17.9 -64.4 -19.45 -67.6 -17.85 -70.95 -14.3 -72.2 -11.15 -70.4 -9.8 -67.15" fill="#c4b1a0" fill-rule="evenodd" stroke="none"/>
      <path d="M-9.8 -67.15 Q-11.55 -64.3 -14.95 -62.55 -17.9 -64.4 -19.45 -67.6 -17.85 -70.95 -14.3 -72.2 -11.15 -70.4 -9.8 -67.15 Z" fill="none" stroke="#000000" stroke-linecap="round" stroke-linejoin="round" stroke-opacity="0.5019608" stroke-width="1.0"/>
      <path d="M7.0 -66.45 Q8.45 -63.55 11.65 -61.55 14.8 -63.2 16.7 -66.3 15.5 -69.75 12.05 -71.2 8.75 -69.65 7.0 -66.45" fill="#f5dcc4" fill-rule="evenodd" stroke="none"/>
      <path d="M7.0 -66.45 Q8.45 -63.55 11.65 -61.55 14.8 -63.2 16.7 -66.3 15.5 -69.75 12.05 -71.2 8.75 -69.65 7.0 -66.45 Z" fill="none" stroke="#000000" stroke-linecap="round" stroke-linejoin="round" stroke-opacity="0.5019608" stroke-width="1.0"/>
      <path d="M-11.15 -75.2 Q0.4 -75.9 11.85 -74.15 12.5 -71.6 12.6 -68.95 L12.4 -64.2 Q11.95 -60.95 10.9 -57.6 L0.15 -56.75 Q-4.65 -59.1 -7.6 -63.9 -10.95 -69.35 -11.15 -75.2" fill="#f5dcc4" fill-rule="evenodd" stroke="none"/>
      <path d="M-14.9 -69.9 Q-14.35 -72.4 -13.25 -75.0 L-11.15 -75.2 Q-10.95 -69.35 -7.6 -63.9 -4.65 -59.1 0.15 -56.75 -6.95 -56.85 -14.2 -58.45 -15.35 -61.75 -15.35 -65.15 -15.4 -67.45 -14.9 -69.9" fill="#c4b1a0" fill-rule="evenodd" stroke="none"/>
      <path d="M-14.9 -69.9 Q-14.35 -72.4 -13.25 -75.0 L-11.15 -75.2 Q0.4 -75.9 11.85 -74.15 12.5 -71.6 12.6 -68.95 M12.4 -64.2 Q11.95 -60.95 10.9 -57.6 L0.15 -56.75 Q-6.95 -56.85 -14.2 -58.45 -15.35 -61.75 -15.35 -65.15" fill="none" stroke="#000000" stroke-linecap="round" stroke-linejoin="round" stroke-opacity="0.5019608" stroke-width="1.0"/>
      <path d="M-11.05 -49.8 Q-12.7 -46.95 -16.0 -45.1 -19.1 -46.95 -20.7 -50.1 -19.25 -53.5 -15.75 -54.8 -12.55 -53.05 -11.05 -49.8" fill="#c4b1a0" fill-rule="evenodd" stroke="none"/>
      <path d="M-11.05 -49.8 Q-12.7 -46.95 -16.0 -45.1 -19.1 -46.95 -20.7 -50.1 -19.25 -53.5 -15.75 -54.8 -12.55 -53.05 -11.05 -49.8 Z" fill="none" stroke="#000000" stroke-linecap="round" stroke-linejoin="round" stroke-opacity="0.5019608" stroke-width="1.0"/>
      <path d="M5.85 -49.55 Q7.4 -46.65 10.7 -44.7 13.75 -46.4 15.55 -49.5 14.2 -52.95 10.7 -54.35 7.45 -52.75 5.85 -49.55" fill="#f5dcc4" fill-rule="evenodd" stroke="none"/>
      <path d="M5.85 -49.55 Q7.4 -46.65 10.7 -44.7 13.75 -46.4 15.55 -49.5 14.2 -52.95 10.7 -54.35 7.45 -52.75 5.85 -49.55 Z" fill="none" stroke="#000000" stroke-linecap="round" stroke-linejoin="round" stroke-opacity="0.5019608" stroke-width="1.0"/>
      <path d="M-12.8 -58.0 L10.2 -57.25 Q10.95 -54.75 11.2 -52.05 11.4 -49.7 11.2 -47.3 10.9 -44.1 9.95 -40.7 L-0.7 -39.7 Q-5.55 -42.05 -8.75 -46.75 -12.4 -52.2 -12.8 -58.0" fill="#f5dcc4" fill-rule="evenodd" stroke="none"/>
      <path d="M-16.3 -52.65 Q-15.9 -55.15 -14.9 -57.8 L-12.8 -58.0 Q-12.4 -52.2 -8.75 -46.75 -5.55 -42.05 -0.7 -39.7 -7.8 -39.75 -15.15 -41.25 -16.45 -44.5 -16.6 -47.9 -16.7 -50.2 -16.3 -52.65" fill="#c4b1a0" fill-rule="evenodd" stroke="none"/>
      <path d="M-16.3 -52.65 Q-15.9 -55.15 -14.9 -57.8 L-12.8 -58.0 10.2 -57.25 Q10.95 -54.75 11.2 -52.05 M11.2 -47.3 Q10.9 -44.1 9.95 -40.7 L-0.7 -39.7 Q-7.8 -39.75 -15.15 -41.25 -16.45 -44.5 -16.6 -47.9" fill="none" stroke="#000000" stroke-linecap="round" stroke-linejoin="round" stroke-opacity="0.5019608" stroke-width="1.0"/>
      <path d="M-11.65 -32.15 Q-13.3 -29.3 -16.6 -27.45 -19.7 -29.3 -21.3 -32.45 -19.85 -35.85 -16.35 -37.15 -13.15 -35.4 -11.65 -32.15" fill="#c4b1a0" fill-rule="evenodd" stroke="none"/>
      <path d="M-11.65 -32.15 Q-13.3 -29.3 -16.6 -27.45 -19.7 -29.3 -21.3 -32.45 -19.85 -35.85 -16.35 -37.15 -13.15 -35.4 -11.65 -32.15 Z" fill="none" stroke="#000000" stroke-linecap="round" stroke-linejoin="round" stroke-opacity="0.5019608" stroke-width="1.0"/>
      <path d="M5.25 -31.85 Q6.8 -28.95 10.1 -27.0 13.15 -28.7 14.95 -31.8 13.6 -35.25 10.1 -36.65 6.85 -35.05 5.25 -31.85" fill="#f5dcc4" fill-rule="evenodd" stroke="none"/>
      <path d="M5.25 -31.85 Q6.8 -28.95 10.1 -27.0 13.15 -28.7 14.95 -31.8 13.6 -35.25 10.1 -36.65 6.85 -35.05 5.25 -31.85 Z" fill="none" stroke="#000000" stroke-linecap="round" stroke-linejoin="round" stroke-opacity="0.5019608" stroke-width="1.0"/>
      <path d="M-13.15 -40.35 L9.85 -39.6 Q10.6 -37.1 10.85 -34.4 11.05 -32.05 10.85 -29.65 10.55 -26.45 9.6 -23.05 L-1.05 -22.05 Q-5.9 -24.4 -9.1 -29.1 -12.75 -34.55 -13.15 -40.35" fill="#f5dcc4" fill-rule="evenodd" stroke="none"/>
      <path d="M-16.65 -35.0 Q-16.25 -37.5 -15.25 -40.15 L-13.15 -40.35 Q-12.75 -34.55 -9.1 -29.1 -5.9 -24.4 -1.05 -22.05 -8.15 -22.1 -15.5 -23.6 -16.8 -26.85 -16.95 -30.25 -17.05 -32.55 -16.65 -35.0" fill="#c4b1a0" fill-rule="evenodd" stroke="none"/>
      <path d="M-16.65 -35.0 Q-16.25 -37.5 -15.25 -40.15 L-13.15 -40.35 9.85 -39.6 Q10.6 -37.1 10.85 -34.4 M10.85 -29.65 Q10.55 -26.45 9.6 -23.05 L-1.05 -22.05 Q-8.15 -22.1 -15.5 -23.6 -16.8 -26.85 -16.95 -30.25" fill="none" stroke="#000000" stroke-linecap="round" stroke-linejoin="round" stroke-opacity="0.5019608" stroke-width="1.0"/>
      <path d="M-10.4 -14.05 Q-12.05 -11.2 -15.35 -9.35 -18.45 -11.2 -20.05 -14.35 -18.6 -17.75 -15.1 -19.05 -11.9 -17.3 -10.4 -14.05" fill="#c4b1a0" fill-rule="evenodd" stroke="none"/>
      <path d="M-10.4 -14.05 Q-12.05 -11.2 -15.35 -9.35 -18.45 -11.2 -20.05 -14.35 -18.6 -17.75 -15.1 -19.05 -11.9 -17.3 -10.4 -14.05 Z" fill="none" stroke="#000000" stroke-linecap="round" stroke-linejoin="round" stroke-opacity="0.5019608" stroke-width="1.0"/>
      <path d="M6.55 -13.7 Q8.1 -10.8 11.4 -8.85 14.45 -10.55 16.25 -13.65 14.9 -17.1 11.4 -18.5 8.15 -16.9 6.55 -13.7" fill="#f5dcc4" fill-rule="evenodd" stroke="none"/>
      <path d="M6.55 -13.7 Q8.1 -10.8 11.4 -8.85 14.45 -10.55 16.25 -13.65 14.9 -17.1 11.4 -18.5 8.15 -16.9 6.55 -13.7 Z" fill="none" stroke="#000000" stroke-linecap="round" stroke-linejoin="round" stroke-opacity="0.5019608" stroke-width="1.0"/>
      <path d="M-12.15 -22.25 L10.85 -21.5 Q11.6 -19.0 11.85 -16.3 12.05 -13.95 11.85 -11.55 11.55 -8.35 10.6 -4.95 L-0.05 -3.95 Q-4.9 -6.3 -8.1 -11.0 -11.75 -16.45 -12.15 -22.25" fill="#f5dcc4" fill-rule="evenodd" stroke="none"/>
      <path d="M-15.65 -16.9 Q-15.25 -19.4 -14.25 -22.05 L-12.15 -22.25 Q-11.75 -16.45 -8.1 -11.0 -4.9 -6.3 -0.05 -3.95 -7.15 -4.0 -14.5 -5.5 -15.8 -8.75 -15.95 -12.15 -16.05 -14.45 -15.65 -16.9" fill="#c4b1a0" fill-rule="evenodd" stroke="none"/>
      <path d="M-15.65 -16.9 Q-15.25 -19.4 -14.25 -22.05 L-12.15 -22.25 10.85 -21.5 Q11.6 -19.0 11.85 -16.3 M11.85 -11.55 Q11.55 -8.35 10.6 -4.95 L-0.05 -3.95 Q-7.15 -4.0 -14.5 -5.5 -15.8 -8.75 -15.95 -12.15" fill="none" stroke="#000000" stroke-linecap="round" stroke-linejoin="round" stroke-opacity="0.5019608" stroke-width="1.0"/>
      <path d="M-52.1 -55.5 L-52.1 -55.55 -51.8 -55.65 -52.1 -55.5 M-21.75 -46.7 Q-31.9 -46.8 -39.9 -48.55 -50.05 -50.7 -50.05 -53.15 -50.05 -54.15 -47.95 -55.75 -27.55 -56.75 -11.0 -55.05 7.9 -52.75 -3.4 -48.55 L-10.25 -47.65 -21.75 -46.7" fill="#f5dcc4" fill-rule="evenodd" stroke="none"/>
      <path d="M-52.1 -55.55 L-52.1 -55.5 -50.55 -55.65 -47.95 -55.75 Q-50.05 -54.15 -50.05 -53.15 -50.05 -50.7 -39.9 -48.55 -31.9 -46.8 -21.75 -46.7 -35.4 -45.95 -48.2 -47.2 -63.0 -47.8 -61.15 -53.75 -59.4 -59.0 -43.7 -60.9 L-51.8 -55.65 -52.1 -55.55 -54.8 -54.9 -52.1 -55.55" fill="#ab9786" fill-rule="evenodd" stroke="none"/>
      <path d="M-52.1 -55.55 L-54.8 -54.9 M-52.1 -55.55 L-51.8 -55.65 -43.7 -60.9 Q-59.4 -59.0 -61.15 -53.75 -63.0 -47.8 -48.2 -47.2 -35.4 -45.95 -21.75 -46.7 L-10.25 -47.65 -3.4 -48.55 Q7.9 -52.75 -11.0 -55.05 -27.55 -56.75 -47.95 -55.75 L-50.55 -55.65 -52.1 -55.5 -51.8 -55.65 -50.55 -55.65" fill="none" stroke="#000000" stroke-linecap="round" stroke-linejoin="round" stroke-opacity="0.5019608" stroke-width="1.0"/>
      <path d="M48.7 -55.65 Q38.5 -60.0 44.6 -60.15 54.55 -59.0 55.9 -53.75 L56.05 -52.55 53.65 -52.05 Q47.45 -50.8 38.6 -50.8 18.55 -50.8 9.4 -52.65 11.25 -54.05 17.5 -55.05 31.0 -56.85 47.7 -55.65 L48.95 -55.5 48.7 -55.65 51.05 -54.9 48.7 -55.65" fill="#f5dcc4" fill-rule="evenodd" stroke="none"/>
      <path d="M56.05 -52.55 Q56.15 -47.7 45.95 -47.2 29.75 -45.1 11.65 -48.55 6.8 -50.9 9.4 -52.65 18.55 -50.8 38.6 -50.8 47.45 -50.8 53.65 -52.05 L56.05 -52.55" fill="#ab9786" fill-rule="evenodd" stroke="none"/>
      <path d="M47.7 -55.65 L48.7 -55.65 Q38.5 -60.0 44.6 -60.15 54.55 -59.0 55.9 -53.75 L56.05 -52.55 Q56.15 -47.7 45.95 -47.2 29.75 -45.1 11.65 -48.55 6.8 -50.9 9.4 -52.65 11.25 -54.05 17.5 -55.05 31.0 -56.85 47.7 -55.65 L48.95 -55.5 48.7 -55.65 51.05 -54.9" fill="none" stroke="#000000" stroke-linecap="round" stroke-linejoin="round" stroke-opacity="0.5019608" stroke-width="1.0"/>
      <path d="M-52.1 -39.4 L-52.1 -39.45 -51.8 -39.55 -52.1 -39.4 M-21.75 -30.6 Q-31.9 -30.7 -39.9 -32.45 -50.05 -34.6 -50.05 -37.05 -50.05 -38.05 -47.95 -39.65 -27.55 -40.65 -11.0 -38.95 7.9 -36.65 -3.4 -32.45 L-10.25 -31.55 -21.75 -30.6" fill="#f5dcc4" fill-rule="evenodd" stroke="none"/>
      <path d="M-52.1 -39.45 L-52.1 -39.4 -50.55 -39.55 -47.95 -39.65 Q-50.05 -38.05 -50.05 -37.05 -50.05 -34.6 -39.9 -32.45 -31.9 -30.7 -21.75 -30.6 -35.4 -29.85 -48.2 -31.1 -63.0 -31.7 -61.15 -37.65 -59.4 -42.9 -43.7 -44.8 L-51.8 -39.55 -52.1 -39.45 -54.8 -38.8 -52.1 -39.45" fill="#ab9786" fill-rule="evenodd" stroke="none"/>
      <path d="M-52.1 -39.45 L-54.8 -38.8 M-52.1 -39.45 L-51.8 -39.55 -43.7 -44.8 Q-59.4 -42.9 -61.15 -37.65 -63.0 -31.7 -48.2 -31.1 -35.4 -29.85 -21.75 -30.6 L-10.25 -31.55 -3.4 -32.45 Q7.9 -36.65 -11.0 -38.95 -27.55 -40.65 -47.95 -39.65 L-50.55 -39.55 -52.1 -39.4 -51.8 -39.55 -50.55 -39.55" fill="none" stroke="#000000" stroke-linecap="round" stroke-linejoin="round" stroke-opacity="0.5019608" stroke-width="1.0"/>
      <path d="M-52.1 -21.45 L-52.1 -21.5 -51.8 -21.6 -52.1 -21.45 M-21.75 -12.65 Q-31.9 -12.75 -39.9 -14.5 -50.05 -16.65 -50.05 -19.1 -50.05 -20.1 -47.95 -21.7 -27.55 -22.7 -11.0 -21.0 7.9 -18.7 -3.4 -14.5 L-10.25 -13.6 -21.75 -12.65" fill="#f5dcc4" fill-rule="evenodd" stroke="none"/>
      <path d="M-52.1 -21.5 L-52.1 -21.45 -50.55 -21.6 -47.95 -21.7 Q-50.05 -20.1 -50.05 -19.1 -50.05 -16.65 -39.9 -14.5 -31.9 -12.75 -21.75 -12.65 -35.4 -11.9 -48.2 -13.15 -63.0 -13.75 -61.15 -19.7 -59.4 -24.95 -43.7 -26.85 L-51.8 -21.6 -52.1 -21.5 -54.8 -20.85 -52.1 -21.5" fill="#ab9786" fill-rule="evenodd" stroke="none"/>
      <path d="M-52.1 -21.5 L-54.8 -20.85 M-52.1 -21.5 L-51.8 -21.6 -43.7 -26.85 Q-59.4 -24.95 -61.15 -19.7 -63.0 -13.75 -48.2 -13.15 -35.4 -11.9 -21.75 -12.65 L-10.25 -13.6 -3.4 -14.5 Q7.9 -18.7 -11.0 -21.0 -27.55 -22.7 -47.95 -21.7 L-50.55 -21.6 -52.1 -21.45 -51.8 -21.6 -50.55 -21.6" fill="none" stroke="#000000" stroke-linecap="round" stroke-linejoin="round" stroke-opacity="0.5019608" stroke-width="1.0"/>
      <path d="M48.7 -39.85 Q38.5 -44.2 44.6 -44.35 54.55 -43.2 55.9 -37.95 L56.05 -36.75 53.65 -36.25 Q47.45 -35.0 38.6 -35.0 18.55 -35.0 9.4 -36.85 11.25 -38.25 17.5 -39.25 31.0 -41.05 47.7 -39.85 L48.95 -39.7 48.7 -39.85 51.05 -39.1 48.7 -39.85" fill="#f5dcc4" fill-rule="evenodd" stroke="none"/>
      <path d="M56.05 -36.75 Q56.15 -31.9 45.95 -31.4 29.75 -29.3 11.65 -32.75 6.8 -35.1 9.4 -36.85 18.55 -35.0 38.6 -35.0 47.45 -35.0 53.65 -36.25 L56.05 -36.75" fill="#ab9786" fill-rule="evenodd" stroke="none"/>
      <path d="M47.7 -39.85 L48.7 -39.85 Q38.5 -44.2 44.6 -44.35 54.55 -43.2 55.9 -37.95 L56.05 -36.75 Q56.15 -31.9 45.95 -31.4 29.75 -29.3 11.65 -32.75 6.8 -35.1 9.4 -36.85 11.25 -38.25 17.5 -39.25 31.0 -41.05 47.7 -39.85 L48.95 -39.7 48.7 -39.85 51.05 -39.1" fill="none" stroke="#000000" stroke-linecap="round" stroke-linejoin="round" stroke-opacity="0.5019608" stroke-width="1.0"/>
      <path d="M48.7 -21.5 Q38.5 -25.85 44.6 -26.0 54.55 -24.85 55.9 -19.6 L56.05 -18.4 53.65 -17.9 Q47.45 -16.65 38.6 -16.65 18.55 -16.65 9.4 -18.5 11.25 -19.9 17.5 -20.9 31.0 -22.7 47.7 -21.5 L48.95 -21.35 48.7 -21.5 51.05 -20.75 48.7 -21.5" fill="#f5dcc4" fill-rule="evenodd" stroke="none"/>
      <path d="M56.05 -18.4 Q56.15 -13.55 45.95 -13.05 29.75 -10.95 11.65 -14.4 6.8 -16.75 9.4 -18.5 18.55 -16.65 38.6 -16.65 47.45 -16.65 53.65 -17.9 L56.05 -18.4" fill="#ab9786" fill-rule="evenodd" stroke="none"/>
      <path d="M47.7 -21.5 L48.7 -21.5 Q38.5 -25.85 44.6 -26.0 54.55 -24.85 55.9 -19.6 L56.05 -18.4 Q56.15 -13.55 45.95 -13.05 29.75 -10.95 11.65 -14.4 6.8 -16.75 9.4 -18.5 11.25 -19.9 17.5 -20.9 31.0 -22.7 47.7 -21.5 L48.95 -21.35 48.7 -21.5 51.05 -20.75" fill="none" stroke="#000000" stroke-linecap="round" stroke-linejoin="round" stroke-opacity="0.5019608" stroke-width="1.0"/>
    </g>
  </defs>
</svg>
