<?xml version="1.0" encoding="UTF-8" standalone="no"?>
<svg xmlns:xlink="http://www.w3.org/1999/xlink" height="531.5px" width="460.6px" xmlns="http://www.w3.org/2000/svg">
  <g transform="matrix(1.0, 0.0, 0.0, 1.0, 193.65, 334.05)">
    <use height="57.5" transform="matrix(0.5155, 0.0, 0.0, 0.5155, -47.8562, -176.5866)" width="181.6" xlink:href="#shape0"/>
  </g>
  <defs>
    <g id="shape0" transform="matrix(1.0, 0.0, 0.0, 1.0, 0.4, 0.75)">
      <path d="M46.45 24.05 L51.4 23.55 51.4 28.8 46.45 29.0 46.45 24.05" fill="#828282" fill-rule="evenodd" stroke="none"/>
      <path d="M46.45 24.05 L46.45 29.0 2.7 31.0 2.7 28.5 46.45 24.05" fill="#cccccc" fill-rule="evenodd" stroke="none"/>
      <path d="M51.4 23.55 L46.45 24.05 2.7 28.5 2.7 31.0 46.45 29.0 51.4 28.8" fill="none" stroke="#000000" stroke-linecap="round" stroke-linejoin="round" stroke-opacity="0.4" stroke-width="1.0"/>
      <path d="M3.15 32.6 Q1.85 32.6 0.9 31.65 0.0 30.75 0.0 29.45 0.0 28.2 0.9 27.2 1.85 26.3 3.15 26.3 4.45 26.3 5.35 27.2 6.3 28.2 6.3 29.45 6.3 30.75 5.35 31.65 4.45 32.6 3.15 32.6" fill="#828282" fill-rule="evenodd" stroke="none"/>
      <path d="M3.15 32.6 Q1.85 32.6 0.9 31.65 0.0 30.75 0.0 29.45 0.0 28.2 0.9 27.2 1.85 26.3 3.15 26.3 4.45 26.3 5.35 27.2 6.3 28.2 6.3 29.45 6.3 30.75 5.35 31.65 4.45 32.6 3.15 32.6 Z" fill="none" stroke="#000000" stroke-linecap="round" stroke-linejoin="round" stroke-opacity="0.4" stroke-width="0.8"/>
      <path d="M152.45 0.0 Q164.05 0.0 172.25 8.2 180.45 16.4 180.45 28.0 180.45 39.6 172.25 47.8 164.05 56.0 152.45 56.0 L155.95 55.25 Q163.3 53.5 169.0 47.8 177.2 39.6 177.2 28.0 177.2 16.4 169.0 8.2 163.3 2.5 155.95 0.8 L152.45 0.0 M106.95 27.45 L106.95 28.0 Q106.95 39.6 98.75 47.8 90.55 56.0 78.95 56.0 L77.7 56.0 Q88.0 55.3 95.5 47.8 101.7 41.6 103.2 33.55 103.7 30.85 103.7 28.0 L103.7 27.45 Q103.65 24.9 103.25 22.55 L103.2 22.3 Q101.6 14.3 95.5 8.2 88.0 0.7 77.7 0.05 L78.95 0.0 Q90.55 0.0 98.75 8.2 104.95 14.4 106.5 22.55 106.9 24.9 106.95 27.45" fill="#b52491" fill-opacity="0.7019608" fill-rule="evenodd" stroke="none"/>
      <path d="M152.45 56.0 Q140.85 56.0 132.65 47.8 124.45 39.6 124.45 28.0 L124.45 27.45 Q124.5 24.95 124.95 22.6 126.45 14.4 132.65 8.2 140.85 0.0 152.45 0.0 L155.95 0.8 Q163.3 2.5 169.0 8.2 177.2 16.4 177.2 28.0 177.2 39.6 169.0 47.8 163.3 53.5 155.95 55.25 L152.45 56.0 M77.7 56.0 Q66.9 55.55 59.15 47.8 52.95 41.6 51.45 33.45 50.95 30.9 50.95 28.2 L50.95 28.0 Q50.95 16.4 59.15 8.2 66.9 0.45 77.7 0.05 88.0 0.7 95.5 8.2 101.6 14.3 103.2 22.3 L103.25 22.55 Q103.65 24.9 103.7 27.45 L103.7 28.0 Q103.7 30.85 103.2 33.55 101.7 41.6 95.5 47.8 88.0 55.3 77.7 56.0" fill="#ff33cc" fill-opacity="0.7019608" fill-rule="evenodd" stroke="none"/>
      <path d="M124.45 27.45 L119.9 26.6 Q121.7 24.3 119.9 21.0 122.45 21.5 124.95 22.6 124.5 24.95 124.45 27.45" fill="#adadad" fill-rule="evenodd" stroke="none"/>
      <path d="M119.9 26.6 Q113.15 25.75 106.95 27.45 106.9 24.9 106.5 22.55 113.45 19.75 119.9 21.0 121.7 24.3 119.9 26.6" fill="#cccccc" fill-rule="evenodd" stroke="none"/>
      <path d="M152.45 0.0 Q164.05 0.0 172.25 8.2 180.45 16.4 180.45 28.0 180.45 39.6 172.25 47.8 164.05 56.0 152.45 56.0 140.85 56.0 132.65 47.8 124.45 39.6 124.45 28.0 L124.45 27.45 119.9 26.6 Q113.15 25.75 106.95 27.45 L106.95 28.0 Q106.95 39.6 98.75 47.8 90.55 56.0 78.95 56.0 L77.7 56.0 Q66.9 55.55 59.15 47.8 52.95 41.6 51.45 33.45 50.95 30.9 50.95 28.2 L50.95 28.0 Q50.95 16.4 59.15 8.2 66.9 0.45 77.7 0.05 L78.95 0.0 Q90.55 0.0 98.75 8.2 104.95 14.4 106.5 22.55 113.45 19.75 119.9 21.0 122.45 21.5 124.95 22.6 126.45 14.4 132.65 8.2 140.85 0.0 152.45 0.0 M124.45 27.45 Q124.5 24.95 124.95 22.6 M106.95 27.45 Q106.9 24.9 106.5 22.55" fill="none" stroke="#000000" stroke-linecap="round" stroke-linejoin="round" stroke-opacity="0.4" stroke-width="1.5"/>
      <path d="M174.15 10.3 L134.75 49.7 132.65 47.8 129.35 43.9 168.35 4.9 Q170.35 6.3 172.25 8.2 L174.15 10.3 M97.35 6.9 L98.75 8.2 Q103.0 12.45 105.1 17.65 L68.6 54.1 Q63.4 52.05 59.15 47.8 L57.85 46.4 97.35 6.9" fill="#ffffff" fill-opacity="0.38039216" fill-rule="evenodd" stroke="none"/>
    </g>
  </defs>
</svg>
