<?xml version="1.0" encoding="UTF-8" standalone="no"?>
<svg xmlns:xlink="http://www.w3.org/1999/xlink" height="531.5px" width="460.6px" xmlns="http://www.w3.org/2000/svg">
  <g transform="matrix(1.0, 0.0, 0.0, 1.0, 193.65, 334.05)">
    <use height="37.3" transform="matrix(2.0067, 0.0, 0.0, 2.0067, -4.1534, -63.0034)" width="32.65" xlink:href="#sprite0"/>
  </g>
  <defs>
    <g id="sprite0" transform="matrix(1.0, 0.0, 0.0, 1.0, 0.5, 0.5)">
      <use height="37.3" transform="matrix(1.0, 0.0, 0.0, 1.0, -0.5, -0.5)" width="32.65" xlink:href="#shape0"/>
    </g>
    <g id="shape0" transform="matrix(1.0, 0.0, 0.0, 1.0, 0.5, 0.5)">
      <path d="M26.75 3.0 L26.3 5.4 29.45 2.8 29.45 0.75 M31.65 1.0 L29.45 2.8 29.45 4.45 M25.85 7.3 L26.3 5.4 23.4 7.75 23.05 9.95 M15.2 6.5 L15.2 7.95 20.15 10.5 23.4 7.75 23.7 5.35 M15.2 7.95 L15.2 10.2 M5.9 1.35 L5.9 3.25 10.4 5.4 10.4 4.0 M15.2 7.95 L10.4 5.4 10.4 8.05 M5.9 3.25 L5.9 4.7 M5.9 3.25 L2.0 1.35 1.55 3.25 M0.0 0.35 L2.0 1.35 2.35 0.0 M18.25 24.1 L19.25 23.95 19.25 18.9 17.7 19.25 M22.5 14.0 L20.15 13.35 Q20.35 14.7 20.05 15.75 19.1 15.5 19.25 17.75 L19.25 18.9 21.25 18.6 M20.15 13.35 L18.55 12.9 M20.15 10.5 L20.15 13.35 M18.1 34.5 L19.25 34.5 19.25 31.8 18.15 31.8 M19.25 31.8 L19.25 27.75 17.9 27.2 M20.6 34.5 L19.25 34.5 19.25 36.3 M19.25 31.8 L21.4 31.8 M21.4 23.5 L19.25 23.95 19.25 27.75 21.4 28.35" fill="none" stroke="#000000" stroke-linecap="round" stroke-linejoin="round" stroke-opacity="0.7529412" stroke-width="1.0"/>
    </g>
  </defs>
</svg>
