<?xml version="1.0" encoding="UTF-8" standalone="no"?>
<svg xmlns:xlink="http://www.w3.org/1999/xlink" height="531.5px" width="460.6px" xmlns="http://www.w3.org/2000/svg">
  <g transform="matrix(1.0, 0.0, 0.0, 1.0, 193.65, 334.05)">
    <use height="41.35" transform="matrix(1.665, 0.0, 0.0, 1.665, -76.516, -189.5143)" width="90.1" xlink:href="#shape0"/>
  </g>
  <defs>
    <g id="shape0" transform="matrix(1.0, 0.0, 0.0, 1.0, 0.4, 1.45)">
      <path d="M81.3 7.25 Q84.0 7.4 86.5 8.15 85.7 10.8 84.05 13.65 L83.9 13.9 84.05 13.65 85.05 14.25 85.3 14.4 Q87.6 15.85 89.45 17.8 87.55 19.6 84.95 21.1 L84.45 21.4 84.95 21.1 Q87.4 23.55 89.0 26.45 86.35 27.8 83.05 28.65 82.85 28.7 80.6 31.65 L78.4 29.1 Q76.3 9.65 65.3 7.95 L65.3 7.85 64.25 4.7 68.8 4.05 Q69.75 1.3 71.25 -1.15 73.95 0.55 76.55 3.2 78.45 1.8 80.5 1.0 81.2 3.8 81.3 7.25 L81.3 8.5 81.3 7.25 M75.9 3.7 L76.55 3.2 75.9 3.7 M68.5 4.9 L68.8 4.05 68.5 4.9" fill="#edd8b8" fill-rule="evenodd" stroke="none"/>
      <path d="M84.05 13.65 Q85.7 10.8 86.5 8.15 84.0 7.4 81.3 7.25 L81.3 8.5 M84.05 13.65 L83.9 13.9 M84.95 21.1 Q87.55 19.6 89.45 17.8 87.6 15.85 85.3 14.4 L85.05 14.25 84.05 13.65 M84.45 21.4 L84.95 21.1 Q87.4 23.55 89.0 26.45 86.35 27.8 83.05 28.65 82.85 28.7 80.6 31.65 L78.4 29.1 Q76.3 9.65 65.3 7.95 L65.3 7.85 64.25 4.7 68.8 4.05 Q69.75 1.3 71.25 -1.15 73.95 0.55 76.55 3.2 78.45 1.8 80.5 1.0 81.2 3.8 81.3 7.25 M68.8 4.05 L68.5 4.9 M76.55 3.2 L75.9 3.7" fill="none" stroke="#000000" stroke-linecap="round" stroke-linejoin="round" stroke-opacity="0.4" stroke-width="0.5"/>
      <path d="M6.2 8.05 Q8.35 3.5 10.95 0.9 13.55 5.3 15.1 10.7 13.1 13.15 10.6 13.85 7.6 11.5 6.2 8.05" fill="#edd8b8" fill-rule="evenodd" stroke="none"/>
      <path d="M6.2 8.05 Q8.35 3.5 10.95 0.9 13.55 5.3 15.1 10.7" fill="none" stroke="#000000" stroke-linecap="round" stroke-linejoin="round" stroke-opacity="0.4" stroke-width="0.5"/>
      <path d="M7.95 5.85 Q10.25 6.55 12.5 7.6 L12.5 8.25 Q12.55 10.45 11.35 12.2 7.6 12.75 4.25 11.65 2.75 7.7 2.9 4.6 5.4 5.0 7.95 5.85" fill="#edd8b8" fill-rule="evenodd" stroke="none"/>
      <path d="M4.25 11.65 Q2.75 7.7 2.9 4.6 5.4 5.0 7.95 5.85" fill="none" stroke="#000000" stroke-linecap="round" stroke-linejoin="round" stroke-opacity="0.4" stroke-width="0.5"/>
      <path d="M40.45 5.1 Q24.55 7.15 16.4 14.7 L13.3 8.4 Q27.85 -2.2 44.15 -1.1 60.45 0.0 68.8 8.65 51.6 4.65 40.45 5.1" fill="#87582c" fill-rule="evenodd" stroke="none"/>
      <path d="M40.45 5.1 Q51.6 4.65 68.8 8.65 60.45 0.0 44.15 -1.1 27.85 -2.2 13.3 8.4 L16.4 14.7 Q24.55 7.15 40.45 5.1 Z" fill="none" stroke="#000000" stroke-linecap="round" stroke-linejoin="round" stroke-opacity="0.4" stroke-width="0.5"/>
      <path d="M18.8 12.55 Q15.5 14.65 12.15 14.95 10.55 13.4 9.7 11.65 8.85 10.15 8.55 8.45 L11.55 5.65 Q14.25 3.45 16.8 2.15 18.7 6.9 18.8 12.55" fill="#edd8b8" fill-rule="evenodd" stroke="none"/>
      <path d="M11.55 5.65 Q14.25 3.45 16.8 2.15 18.7 6.9 18.8 12.55" fill="none" stroke="#000000" stroke-linecap="round" stroke-linejoin="round" stroke-opacity="0.4" stroke-width="0.5"/>
      <path d="M18.9 18.9 Q15.9 17.6 14.0 15.35 14.2 13.15 15.0 11.4 15.5 10.25 16.3 9.35 L17.95 9.7 Q21.7 10.55 24.6 12.05 22.5 15.85 18.9 18.9" fill="#edd8b8" fill-rule="evenodd" stroke="none"/>
      <path d="M17.95 9.7 Q21.7 10.55 24.6 12.05 22.5 15.85 18.9 18.9" fill="none" stroke="#000000" stroke-linecap="round" stroke-linejoin="round" stroke-opacity="0.4" stroke-width="0.5"/>
      <path d="M17.8 25.8 Q15.25 23.8 14.0 21.1 14.85 18.8 16.25 17.25 L17.75 15.9 20.05 17.1 Q22.95 18.75 25.05 20.7 22.05 23.85 17.8 25.8" fill="#edd8b8" fill-rule="evenodd" stroke="none"/>
      <path d="M20.05 17.1 Q22.95 18.75 25.05 20.7 22.05 23.85 17.8 25.8" fill="none" stroke="#000000" stroke-linecap="round" stroke-linejoin="round" stroke-opacity="0.4" stroke-width="0.5"/>
      <path d="M10.1 34.35 L-0.15 33.8 Q1.1 28.85 4.2 24.3 8.0 24.85 10.85 26.85 11.6 31.1 10.1 34.35" fill="#edd8b8" fill-rule="evenodd" stroke="none"/>
      <path d="M10.1 34.35 L-0.15 33.8 Q1.1 28.85 4.2 24.3" fill="none" stroke="#000000" stroke-linecap="round" stroke-linejoin="round" stroke-opacity="0.4" stroke-width="0.5"/>
      <path d="M4.1 33.6 Q3.5 31.8 3.15 29.85 4.0 29.15 4.95 28.65 7.2 27.35 9.7 26.95 13.2 29.45 14.4 32.8 10.7 37.2 6.85 39.65 5.15 36.85 4.1 33.6" fill="#edd8b8" fill-rule="evenodd" stroke="none"/>
      <path d="M14.4 32.8 Q10.7 37.2 6.85 39.65 5.15 36.85 4.1 33.6" fill="none" stroke="#000000" stroke-linecap="round" stroke-linejoin="round" stroke-opacity="0.4" stroke-width="0.5"/>
      <path d="M17.9 22.1 Q20.9 26.4 22.1 30.35 17.7 31.65 12.75 31.25 11.45 28.05 11.75 24.9 14.7 22.4 17.9 22.1" fill="#edd8b8" fill-rule="evenodd" stroke="none"/>
      <path d="M17.9 22.1 Q20.9 26.4 22.1 30.35 17.7 31.65 12.75 31.25" fill="none" stroke="#000000" stroke-linecap="round" stroke-linejoin="round" stroke-opacity="0.4" stroke-width="0.5"/>
      <path d="M9.8 33.3 Q10.35 30.1 11.85 27.85 14.35 27.5 16.3 28.55 L16.9 28.9 16.9 30.0 Q16.9 34.2 16.1 37.5 12.8 36.2 9.8 33.3" fill="#edd8b8" fill-rule="evenodd" stroke="none"/>
      <path d="M16.9 30.0 Q16.9 34.2 16.1 37.5 12.8 36.2 9.8 33.3" fill="none" stroke="#000000" stroke-linecap="round" stroke-linejoin="round" stroke-opacity="0.4" stroke-width="0.5"/>
      <path d="M16.85 29.4 L7.15 29.4 7.15 10.0 16.85 10.0 16.85 29.4" fill="#edd8b8" fill-rule="evenodd" stroke="none"/>
      <path d="M6.85 9.0 Q8.5 9.0 9.6 12.15 10.65 15.35 10.55 19.95 10.4 24.55 9.15 27.75 7.9 31.0 6.25 31.0 5.0 31.35 3.4 31.0 4.15 30.95 4.75 30.2 L6.1 27.75 6.8 25.25 Q7.3 22.85 7.4 19.95 7.5 15.7 6.65 12.65 L6.5 12.15 Q6.0 10.5 5.3 9.7 4.75 9.0 4.0 9.0 5.65 8.55 6.85 9.0" fill="#edd8b8" fill-rule="evenodd" stroke="none"/>
      <path d="M3.4 31.0 Q1.85 31.0 0.85 27.75 -0.15 24.55 0.0 19.95 0.1 15.35 1.3 12.15 2.45 9.0 4.0 9.0 4.75 9.0 5.3 9.7 6.0 10.5 6.5 12.15 L6.65 12.65 Q7.5 15.7 7.4 19.95 7.3 22.85 6.8 25.25 L6.1 27.75 4.75 30.2 Q4.15 30.95 3.4 31.0" fill="url(#gradient0)" fill-rule="evenodd" stroke="none"/>
      <path d="M6.25 31.0 Q5.0 31.35 3.4 31.0 1.85 31.0 0.85 27.75 -0.15 24.55 0.0 19.95 0.1 15.35 1.3 12.15 2.45 9.0 4.0 9.0 5.65 8.55 6.85 9.0 M6.65 12.65 L6.5 12.15 Q6.0 10.5 5.3 9.7 4.75 9.0 4.0 9.0 M3.4 31.0 Q4.15 30.95 4.75 30.2 L6.1 27.75 6.8 25.25" fill="none" stroke="#000000" stroke-linecap="round" stroke-linejoin="round" stroke-opacity="0.4" stroke-width="0.5"/>
      <path d="M9.05 17.35 L10.7 18.0 10.7 20.2 9.45 21.85 7.85 21.85 Q6.55 20.7 6.2 19.0 7.2 17.6 9.05 17.35" fill="#edd8b8" fill-rule="evenodd" stroke="none"/>
      <path d="M7.85 21.85 Q6.55 20.7 6.2 19.0 7.2 17.6 9.05 17.35" fill="none" stroke="#000000" stroke-linecap="round" stroke-linejoin="round" stroke-opacity="0.2" stroke-width="0.5"/>
    </g>
    <linearGradient gradientTransform="matrix(0.0026, -0.0069, 0.0126, 0.0047, 4.15, 17.95)" gradientUnits="userSpaceOnUse" id="gradient0" spreadMethod="pad" x1="-819.2" x2="819.2">
      <stop offset="0.011764705882352941" stop-color="#d1b385"/>
      <stop offset="1.0" stop-color="#edd8b8"/>
    </linearGradient>
  </defs>
</svg>
