<?xml version="1.0" encoding="UTF-8" standalone="no"?>
<svg xmlns:xlink="http://www.w3.org/1999/xlink" height="531.5px" width="460.6px" xmlns="http://www.w3.org/2000/svg">
  <g transform="matrix(1.0, 0.0, 0.0, 1.0, 193.65, 334.05)">
    <use height="81.35" transform="matrix(1.0, 0.0, 0.0, 1.0, -59.25, -177.0)" width="115.8" xlink:href="#shape0"/>
  </g>
  <defs>
    <g id="shape0" transform="matrix(1.0, 0.0, 0.0, 1.0, 59.25, 177.0)">
      <path d="M47.0 -152.8 Q47.0 -154.0 45.6 -154.85 44.05 -155.65 42.1 -155.65 39.8 -155.65 38.4 -154.85 36.85 -154.0 36.85 -152.8 L36.95 -152.15 Q37.25 -151.35 38.4 -150.75 39.8 -150.0 42.1 -150.0 44.05 -150.0 45.6 -150.75 L46.2 -151.15 Q47.0 -151.85 47.0 -152.8 M46.4 -158.45 Q46.1 -161.0 43.65 -166.55 52.45 -162.45 55.15 -145.6 57.7 -128.75 53.7 -125.95 54.1 -131.4 52.45 -136.85 50.6 -121.55 41.8 -111.05 49.05 -133.65 39.7 -146.5 39.1 -141.8 34.7 -140.45 35.9 -154.75 26.45 -165.0 32.1 -164.3 34.9 -161.5 35.4 -167.05 30.55 -171.15 40.45 -170.15 46.4 -158.45 M-35.5 -154.1 Q-35.5 -153.1 -34.2 -152.25 L-32.95 -151.65 Q-30.4 -150.75 -26.7 -150.75 -23.1 -150.75 -20.5 -151.65 L-19.8 -152.05 Q-17.95 -152.9 -17.95 -154.1 -17.95 -155.55 -20.5 -156.5 -23.1 -157.5 -26.7 -157.5 -30.4 -157.5 -32.95 -156.5 -35.5 -155.55 -35.5 -154.1 M-52.9 -112.5 L-54.3 -123.2 -45.9 -119.1 -38.5 -123.1 -38.5 -114.25 -31.5 -106.35 -42.0 -106.05 -46.0 -96.05 -51.15 -105.2 -58.85 -105.75 -52.9 -112.5 M-32.25 -172.7 Q-38.7 -168.1 -37.9 -161.0 -30.9 -172.6 -11.35 -176.6 -19.9 -171.3 -17.1 -164.4 L-8.05 -168.8 Q-15.8 -155.35 -12.4 -139.95 -16.5 -140.65 -18.25 -146.8 -24.6 -126.7 -11.75 -109.0 -37.35 -120.3 -39.75 -144.25 -47.05 -137.45 -44.45 -127.8 -53.7 -133.35 -54.0 -148.55 -50.1 -168.8 -32.25 -172.7" fill="#000000" fill-rule="evenodd" stroke="none"/>
      <path d="M47.0 -152.8 Q47.0 -151.85 46.2 -151.15 L45.6 -150.75 Q44.05 -150.0 42.1 -150.0 39.8 -150.0 38.4 -150.75 37.25 -151.35 36.95 -152.15 L36.85 -152.8 Q36.85 -154.0 38.4 -154.85 39.8 -155.65 42.1 -155.65 44.05 -155.65 45.6 -154.85 47.0 -154.0 47.0 -152.8 M-35.5 -154.1 Q-35.5 -155.55 -32.95 -156.5 -30.4 -157.5 -26.7 -157.5 -23.1 -157.5 -20.5 -156.5 -17.95 -155.55 -17.95 -154.1 -17.95 -152.9 -19.8 -152.05 L-20.5 -151.65 Q-23.1 -150.75 -26.7 -150.75 -30.4 -150.75 -32.95 -151.65 L-34.2 -152.25 Q-35.5 -153.1 -35.5 -154.1" fill="#ffffff" fill-rule="evenodd" stroke="none"/>
      <path d="M47.0 -152.8 Q47.0 -151.85 46.2 -151.15 L45.6 -150.75 Q44.05 -150.0 42.1 -150.0 39.8 -150.0 38.4 -150.75 37.25 -151.35 36.95 -152.15 L36.85 -152.8 Q36.85 -154.0 38.4 -154.85 39.8 -155.65 42.1 -155.65 44.05 -155.65 45.6 -154.85 47.0 -154.0 47.0 -152.8 M46.4 -158.45 Q40.45 -170.15 30.55 -171.15 35.4 -167.05 34.9 -161.5 32.1 -164.3 26.45 -165.0 35.9 -154.75 34.7 -140.45 39.1 -141.8 39.7 -146.5 49.05 -133.65 41.8 -111.05 50.6 -121.55 52.45 -136.85 54.1 -131.4 53.7 -125.95 57.7 -128.75 55.15 -145.6 52.45 -162.45 43.65 -166.55 46.1 -161.0 46.4 -158.45 M-35.5 -154.1 Q-35.5 -155.55 -32.95 -156.5 -30.4 -157.5 -26.7 -157.5 -23.1 -157.5 -20.5 -156.5 -17.95 -155.55 -17.95 -154.1 -17.95 -152.9 -19.8 -152.05 L-20.5 -151.65 Q-23.1 -150.75 -26.7 -150.75 -30.4 -150.75 -32.95 -151.65 L-34.2 -152.25 Q-35.5 -153.1 -35.5 -154.1 M-32.25 -172.7 Q-50.1 -168.8 -54.0 -148.55 -53.7 -133.35 -44.45 -127.8 -47.05 -137.45 -39.75 -144.25 -37.35 -120.3 -11.75 -109.0 -24.6 -126.7 -18.25 -146.8 -16.5 -140.65 -12.4 -139.95 -15.8 -155.35 -8.05 -168.8 L-17.1 -164.4 Q-19.9 -171.3 -11.35 -176.6 -30.9 -172.6 -37.9 -161.0 -38.7 -168.1 -32.25 -172.7 M-52.9 -112.5 L-58.85 -105.75 -51.15 -105.2 -46.0 -96.05 -42.0 -106.05 -31.5 -106.35 -38.5 -114.25 -38.5 -123.1 -45.9 -119.1 -54.3 -123.2 -52.9 -112.5" fill="none" stroke="#000000" stroke-linecap="round" stroke-linejoin="round" stroke-opacity="0.4" stroke-width="0.8"/>
    </g>
  </defs>
</svg>
