<?xml version="1.0" encoding="UTF-8" standalone="no"?>
<svg xmlns:xlink="http://www.w3.org/1999/xlink" height="531.5px" width="460.6px" xmlns="http://www.w3.org/2000/svg">
  <g transform="matrix(1.0, 0.0, 0.0, 1.0, 193.65, 334.05)">
    <use height="30.2" transform="matrix(1.0, 0.0, 0.0, 1.0, -49.65, -158.25)" width="104.1" xlink:href="#shape0"/>
  </g>
  <defs>
    <g id="shape0" transform="matrix(1.0, 0.0, 0.0, 1.0, 49.65, 158.25)">
      <path d="M43.7 -148.2 Q44.35 -149.3 44.35 -150.4 L44.35 -150.65 44.5 -150.55 45.5 -149.65 46.35 -148.65 Q47.1 -147.95 48.05 -148.15 L49.05 -148.3 49.1 -148.45 49.55 -148.55 50.6 -149.5 Q52.45 -151.0 53.9 -151.4 L53.95 -151.55 54.05 -151.05 54.05 -150.9 54.45 -151.3 Q53.55 -149.4 49.85 -145.8 L48.05 -143.3 46.2 -141.35 46.85 -141.45 47.2 -140.85 Q46.7 -140.1 44.2 -139.1 L43.95 -138.8 43.75 -138.5 Q42.85 -137.95 42.85 -135.1 L41.95 -135.95 40.5 -136.85 38.15 -137.2 35.8 -135.6 34.4 -134.45 Q33.8 -133.5 33.55 -132.6 L32.15 -131.9 Q24.2 -128.05 13.75 -128.05 L7.55 -128.15 3.2 -128.4 Q-6.65 -130.25 -16.25 -133.4 L-18.0 -135.85 Q-19.8 -137.85 -22.45 -138.8 -24.7 -139.55 -28.8 -140.35 L-34.4 -141.7 -36.0 -141.7 -41.0 -145.15 Q-42.7 -146.15 -45.2 -148.8 -49.1 -153.15 -49.1 -155.15 L-49.05 -155.65 Q-49.65 -156.65 -49.65 -157.25 L-49.45 -158.25 -49.2 -158.25 Q-48.05 -156.0 -44.25 -152.3 L-43.1 -151.15 -41.75 -150.8 -40.0 -150.4 Q-37.9 -150.4 -36.15 -151.55 L-34.9 -152.55 Q-32.55 -155.0 -31.75 -155.1 L-32.3 -153.75 -32.4 -153.8 -32.5 -153.65 -33.5 -152.65 -35.1 -151.5 Q-35.85 -151.25 -36.0 -150.65 L-37.65 -148.7 -39.5 -149.4 -40.75 -149.75 -41.7 -149.9 -42.45 -149.75 Q-42.35 -149.65 -42.25 -149.65 L-42.6 -149.3 -40.75 -147.95 Q-39.25 -146.8 -37.9 -146.4 L-36.4 -145.8 -35.9 -145.05 -35.35 -145.4 -34.05 -144.9 Q-32.55 -144.3 -31.4 -144.05 -28.4 -142.35 -27.65 -142.35 L-27.05 -142.55 -27.05 -142.85 -27.7 -143.55 -26.7 -143.1 Q-17.85 -140.55 -8.8 -139.05 L-9.0 -138.5 Q-9.0 -138.1 -8.0 -137.35 L-7.75 -137.6 -7.4 -138.85 3.2 -137.5 5.05 -137.75 6.3 -137.75 6.55 -137.5 7.65 -136.1 7.9 -134.5 8.4 -133.35 8.55 -133.0 8.8 -133.25 Q9.15 -133.25 9.15 -133.4 L9.25 -133.85 9.05 -134.5 9.15 -135.45 9.9 -136.0 9.8 -136.25 9.15 -136.1 9.0 -138.0 9.25 -138.25 9.55 -138.45 Q9.8 -138.5 10.05 -138.7 L12.15 -139.1 15.9 -139.2 Q18.2 -138.0 19.85 -137.5 L19.95 -137.35 20.45 -136.7 20.5 -136.5 20.1 -136.45 20.25 -136.0 20.85 -136.0 21.55 -134.6 21.25 -132.35 Q21.2 -131.65 21.55 -131.1 L21.45 -130.85 21.95 -130.5 22.05 -130.5 22.3 -130.25 22.55 -130.4 22.6 -130.4 Q23.45 -130.4 23.35 -130.85 L23.45 -133.0 23.45 -133.4 Q23.45 -134.75 22.7 -137.0 L22.45 -137.45 22.55 -137.5 22.6 -137.5 Q23.6 -137.5 24.45 -138.25 L24.95 -138.7 25.55 -138.7 24.95 -138.45 Q25.05 -138.25 25.6 -138.1 L27.8 -136.0 Q28.2 -136.45 28.2 -137.2 28.2 -137.75 27.7 -138.25 L29.05 -138.5 29.3 -138.5 32.55 -139.1 33.25 -139.3 34.3 -139.55 35.65 -139.55 Q36.85 -139.55 38.1 -140.3 L38.15 -140.3 38.65 -140.3 40.25 -140.8 Q41.85 -141.2 43.95 -142.8 L44.5 -143.1 Q48.6 -145.05 48.6 -145.45 48.6 -146.2 47.45 -145.95 L48.1 -146.55 48.05 -147.15 47.95 -147.05 46.8 -146.95 45.35 -148.05 43.7 -148.2 M-32.3 -153.75 L-32.15 -153.55 -32.3 -153.3 -32.3 -153.75 M-34.0 -148.2 L-28.2 -146.95 -21.35 -145.95 -21.1 -145.9 -19.45 -146.8 -15.85 -148.05 Q-9.9 -149.9 -7.5 -150.9 L-3.45 -152.0 Q0.05 -152.9 0.55 -153.15 3.05 -153.75 12.0 -151.5 L19.45 -152.3 27.2 -151.65 32.3 -149.3 35.4 -147.95 Q36.5 -147.4 37.15 -146.65 38.15 -146.2 39.65 -145.8 L40.75 -146.15 41.1 -146.2 42.1 -146.55 Q42.95 -146.95 43.35 -147.45 43.5 -146.9 44.2 -146.05 L44.25 -145.95 43.2 -145.4 40.4 -143.55 Q37.0 -142.95 34.8 -141.95 L34.65 -141.95 31.2 -142.05 30.7 -143.55 30.15 -144.8 29.55 -144.65 Q29.4 -144.45 29.4 -143.9 L29.55 -142.05 25.1 -141.8 27.55 -142.2 24.3 -142.1 24.35 -142.45 Q25.3 -144.55 25.3 -146.15 25.3 -147.2 24.7 -149.0 L23.8 -146.15 23.7 -146.2 Q23.3 -145.95 22.95 -144.9 L22.6 -143.8 22.45 -143.45 22.35 -143.2 21.95 -142.8 Q22.8 -144.2 23.05 -146.05 L21.25 -143.05 20.6 -142.1 19.45 -142.3 13.1 -143.8 Q11.0 -143.8 5.9 -142.35 L2.55 -141.3 Q2.2 -141.95 1.65 -141.8 L1.7 -141.2 -9.65 -143.35 -9.4 -143.45 -8.5 -143.55 -5.8 -143.95 -8.15 -144.3 -9.1 -144.2 -10.35 -144.55 -12.75 -144.65 -14.0 -144.45 -12.75 -143.95 Q-12.15 -143.55 -11.0 -143.45 L-11.35 -143.05 -14.7 -142.95 -17.95 -143.2 -25.65 -144.45 -25.4 -143.7 -27.8 -143.7 -27.95 -143.8 -26.9 -144.45 Q-27.8 -144.9 -29.75 -145.55 L-31.0 -146.05 Q-32.4 -146.9 -34.05 -147.45 L-34.15 -147.45 -34.0 -148.2 M29.55 -132.65 L28.4 -132.25 26.2 -131.4 26.7 -131.6 29.55 -132.65 M14.0 -145.55 L13.6 -145.7 Q13.1 -145.3 12.65 -145.05 L11.85 -144.15 12.0 -143.95 14.0 -145.55 M4.4 -136.95 L3.05 -136.35 Q2.3 -136.1 2.15 -135.6 2.4 -135.2 3.05 -135.2 4.05 -135.2 4.45 -135.75 L5.55 -136.1 6.05 -136.6 Q6.05 -137.0 5.45 -137.2 L4.4 -136.95 M8.75 -136.45 L8.55 -137.45 8.55 -137.5 8.75 -136.45 M0.3 -135.7 Q1.55 -136.1 1.55 -136.5 1.55 -137.75 -0.65 -137.25 -2.8 -136.85 -2.8 -135.95 L-2.45 -135.45 Q-2.05 -134.95 -1.65 -134.95 -1.4 -134.95 0.3 -135.7 M-43.35 -143.95 L-43.1 -144.9 Q-42.6 -145.2 -41.25 -144.4 -41.0 -144.15 -40.2 -143.95 -39.25 -143.8 -38.85 -143.3 L-36.9 -141.45 Q-35.65 -140.2 -35.65 -139.55 -35.65 -138.85 -36.35 -138.85 -36.9 -138.85 -38.5 -139.95 -39.95 -140.85 -40.5 -141.45 L-42.45 -142.95 Q-43.35 -143.55 -43.35 -143.95 M-6.0 -137.6 Q-8.75 -137.0 -8.75 -136.35 -8.75 -135.7 -7.65 -135.7 L-4.8 -136.1 Q-3.3 -136.6 -3.3 -137.1 -3.3 -138.1 -6.0 -137.6" fill="#cc0000" fill-rule="evenodd" stroke="none"/>
      <path d="M44.5 -143.1 L43.95 -142.8 Q41.85 -141.2 40.25 -140.8 L38.65 -140.3 38.15 -140.3 38.1 -140.3 Q36.85 -139.55 35.65 -139.55 L34.3 -139.55 33.25 -139.3 32.55 -139.1 29.3 -138.5 29.05 -138.5 27.7 -138.25 Q28.2 -137.75 28.2 -137.2 28.2 -136.45 27.8 -136.0 L25.6 -138.1 Q25.05 -138.25 24.95 -138.45 L25.55 -138.7 24.95 -138.7 24.45 -138.25 Q23.6 -137.5 22.6 -137.5 L22.55 -137.5 22.45 -137.45 22.7 -137.0 Q23.45 -134.75 23.45 -133.4 L23.45 -133.0 23.35 -130.85 Q23.45 -130.4 22.6 -130.4 L22.55 -130.4 22.3 -130.25 22.05 -130.5 21.95 -130.5 21.45 -130.85 21.55 -131.1 Q21.2 -131.65 21.25 -132.35 L21.55 -134.6 20.85 -136.0 20.25 -136.0 20.1 -136.45 20.5 -136.5 20.45 -136.7 19.95 -137.35 21.35 -135.7 21.55 -135.75 Q20.95 -137.7 20.0 -138.6 L18.95 -139.45 19.5 -139.45 25.2 -138.85 27.95 -139.1 29.2 -139.1 30.95 -139.35 31.4 -139.7 33.05 -139.85 Q33.75 -139.85 33.75 -140.3 34.05 -141.2 29.95 -140.95 23.8 -140.6 22.1 -140.95 L21.8 -141.1 22.35 -141.7 Q23.3 -142.55 23.3 -143.35 23.85 -144.45 23.85 -145.7 L23.8 -146.15 24.7 -149.0 Q25.3 -147.2 25.3 -146.15 25.3 -144.55 24.35 -142.45 L24.3 -142.1 27.55 -142.2 25.1 -141.8 29.55 -142.05 29.4 -143.9 Q29.4 -144.45 29.55 -144.65 L30.15 -144.8 30.7 -143.55 31.2 -142.05 34.65 -141.95 34.8 -141.95 Q37.0 -142.95 40.4 -143.55 L39.15 -142.3 39.25 -142.2 37.75 -141.45 Q37.75 -140.6 37.9 -141.05 L38.5 -140.85 Q39.4 -140.85 44.0 -142.95 L44.5 -143.1 M19.85 -137.5 Q18.2 -138.0 15.9 -139.2 L16.15 -139.2 18.7 -138.25 19.0 -138.25 19.85 -137.5 M12.15 -139.1 L10.05 -138.7 10.4 -138.95 11.15 -139.05 12.15 -139.1 M6.3 -137.75 L5.05 -137.75 3.2 -137.5 -7.4 -138.85 -7.75 -137.6 -8.0 -137.35 Q-9.0 -138.1 -9.0 -138.5 L-8.8 -139.05 Q-17.85 -140.55 -26.7 -143.1 L-27.7 -143.55 -27.8 -143.7 -25.4 -143.7 -25.65 -144.45 -17.95 -143.2 -14.7 -142.95 -15.85 -142.2 -7.8 -140.55 Q-6.05 -139.95 -1.8 -139.3 L-0.45 -139.05 1.8 -138.6 2.05 -138.6 2.65 -138.5 Q2.65 -138.0 2.8 -138.35 L3.7 -138.1 4.65 -138.2 5.55 -138.1 6.05 -138.1 6.3 -137.75 M20.6 -142.1 L20.2 -141.6 13.9 -143.1 Q13.25 -143.1 13.25 -142.6 L13.25 -142.55 12.15 -142.3 11.0 -142.3 Q9.8 -142.3 7.75 -141.55 L7.25 -141.35 4.95 -140.95 3.7 -140.55 2.7 -140.6 2.65 -140.95 2.55 -141.3 5.9 -142.35 Q11.0 -143.8 13.1 -143.8 L19.45 -142.3 20.6 -142.1 M1.7 -141.2 L1.8 -140.7 -3.45 -141.55 -10.5 -142.95 -11.35 -143.05 -11.0 -143.45 -10.6 -143.45 -10.1 -143.35 -9.65 -143.35 1.7 -141.2 M12.75 -139.85 L12.5 -139.8 13.5 -140.05 14.4 -140.05 15.0 -139.95 12.75 -139.85" fill="#a10000" fill-rule="evenodd" stroke="none"/>
      <path d="M43.7 -148.2 L45.35 -148.05 46.8 -146.95 47.95 -147.05 48.05 -147.15 48.1 -146.55 47.45 -145.95 Q48.6 -146.2 48.6 -145.45 48.6 -145.05 44.5 -143.1 L44.0 -142.95 Q39.4 -140.85 38.5 -140.85 L37.9 -141.05 Q37.75 -140.6 37.75 -141.45 L39.25 -142.2 39.15 -142.3 40.4 -143.55 43.2 -145.4 44.25 -145.95 44.2 -146.05 Q43.5 -146.9 43.35 -147.45 43.1 -147.9 43.2 -148.2 L43.7 -148.2 M19.95 -137.35 L19.85 -137.5 19.0 -138.25 18.7 -138.25 16.15 -139.2 15.9 -139.2 12.15 -139.1 11.15 -139.05 10.4 -138.95 10.05 -138.7 Q9.8 -138.5 9.55 -138.45 L9.25 -138.25 9.0 -138.0 9.15 -136.1 9.15 -135.45 9.05 -134.5 9.25 -133.85 9.15 -133.4 Q9.15 -133.25 8.8 -133.25 L8.55 -133.0 8.4 -133.35 7.9 -134.5 7.65 -136.1 6.55 -137.5 6.3 -137.75 6.05 -138.1 5.55 -138.1 4.65 -138.2 3.7 -138.1 2.8 -138.35 Q2.65 -138.0 2.65 -138.5 L2.05 -138.6 1.8 -138.6 -0.45 -139.05 -1.8 -139.3 Q-6.05 -139.95 -7.8 -140.55 L-15.85 -142.2 -14.7 -142.95 -11.35 -143.05 -10.5 -142.95 -3.45 -141.55 1.8 -140.7 1.7 -141.2 1.65 -141.8 Q2.2 -141.95 2.55 -141.3 L2.65 -140.95 2.7 -140.6 3.7 -140.55 4.95 -140.95 7.25 -141.35 7.75 -141.55 Q9.8 -142.3 11.0 -142.3 L12.15 -142.3 13.25 -142.55 13.25 -142.6 Q13.25 -143.1 13.9 -143.1 L20.2 -141.6 20.6 -142.1 21.25 -143.05 23.05 -146.05 Q22.8 -144.2 21.95 -142.8 L22.35 -143.2 22.45 -143.45 22.6 -143.8 22.95 -144.9 Q23.3 -145.95 23.7 -146.2 L23.8 -146.15 23.85 -145.7 Q23.85 -144.45 23.3 -143.35 23.3 -142.55 22.35 -141.7 L21.8 -141.1 22.1 -140.95 Q23.8 -140.6 29.95 -140.95 34.05 -141.2 33.75 -140.3 33.75 -139.85 33.05 -139.85 L31.4 -139.7 30.95 -139.35 29.2 -139.1 27.95 -139.1 25.2 -138.85 19.5 -139.45 18.95 -139.45 20.0 -138.6 Q20.95 -137.7 21.55 -135.75 L21.35 -135.7 19.95 -137.35 M-27.7 -143.55 L-27.05 -142.85 -27.05 -142.55 -27.65 -142.35 Q-28.4 -142.35 -31.4 -144.05 -32.55 -144.3 -34.05 -144.9 L-35.35 -145.4 -35.9 -145.05 -36.4 -145.8 -37.9 -146.4 Q-39.25 -146.8 -40.75 -147.95 L-42.6 -149.3 -42.25 -149.65 Q-42.35 -149.65 -42.45 -149.75 L-41.7 -149.9 -40.75 -149.75 -39.5 -149.4 -37.65 -148.7 -36.0 -150.65 Q-35.85 -151.25 -35.1 -151.5 L-33.5 -152.65 -32.5 -153.65 -32.4 -153.8 -32.3 -153.75 -32.3 -153.3 -32.3 -153.15 -32.05 -153.25 -31.9 -153.3 Q-31.75 -153.25 -31.75 -152.75 -31.75 -152.4 -32.3 -151.65 L-32.3 -151.5 -33.3 -150.3 -33.5 -150.05 -34.0 -148.2 -34.15 -147.45 -34.05 -147.45 Q-32.4 -146.9 -31.0 -146.05 L-29.75 -145.55 Q-27.8 -144.9 -26.9 -144.45 L-27.95 -143.8 -27.8 -143.7 -27.7 -143.55 M12.75 -139.85 L15.0 -139.95 14.4 -140.05 13.5 -140.05 12.5 -139.8 12.75 -139.85 M8.75 -136.45 L8.55 -137.5 8.55 -137.45 8.75 -136.45" fill="#800000" fill-rule="evenodd" stroke="none"/>
      <path d="M9.15 -136.1 L9.8 -136.25 9.9 -136.0 9.15 -135.45 9.15 -136.1 M14.0 -145.55 L12.0 -143.95 11.85 -144.15 12.65 -145.05 Q13.1 -145.3 13.6 -145.7 L14.0 -145.55 M4.4 -136.95 L5.45 -137.2 Q6.05 -137.0 6.05 -136.6 L5.55 -136.1 4.45 -135.75 Q4.05 -135.2 3.05 -135.2 2.4 -135.2 2.15 -135.6 2.3 -136.1 3.05 -136.35 L4.4 -136.95 M0.3 -135.7 Q-1.4 -134.95 -1.65 -134.95 -2.05 -134.95 -2.45 -135.45 L-2.8 -135.95 Q-2.8 -136.85 -0.65 -137.25 1.55 -137.75 1.55 -136.5 1.55 -136.1 0.3 -135.7 M-11.0 -143.45 Q-12.15 -143.55 -12.75 -143.95 L-14.0 -144.45 -12.75 -144.65 -10.35 -144.55 -9.1 -144.2 -8.15 -144.3 -5.8 -143.95 -8.5 -143.55 -9.4 -143.45 -9.65 -143.35 -10.1 -143.35 -10.6 -143.45 -11.0 -143.45 M-6.0 -137.6 Q-3.3 -138.1 -3.3 -137.1 -3.3 -136.6 -4.8 -136.1 L-7.65 -135.7 Q-8.75 -135.7 -8.75 -136.35 -8.75 -137.0 -6.0 -137.6" fill="#f02323" fill-rule="evenodd" stroke="none"/>
    </g>
  </defs>
</svg>
