<?xml version="1.0" encoding="UTF-8" standalone="no"?>
<svg xmlns:xlink="http://www.w3.org/1999/xlink" height="531.5px" width="460.6px" xmlns="http://www.w3.org/2000/svg">
  <g transform="matrix(1.0, 0.0, 0.0, 1.0, 193.65, 334.05)">
    <use height="37.05" transform="matrix(1.0, 0.0, 0.0, 1.0, 13.2, -195.4)" width="58.5" xlink:href="#shape0"/>
  </g>
  <defs>
    <g id="shape0" transform="matrix(1.0, 0.0, 0.0, 1.0, -13.2, 195.4)">
      <path d="M38.65 -176.55 Q39.95 -178.25 41.75 -179.15 43.75 -180.25 45.1 -179.45 46.45 -178.65 46.35 -176.45 46.3 -175.0 45.65 -173.5 L44.8 -172.0 43.65 -170.5 Q42.5 -169.4 41.15 -168.65 L37.7 -168.45 Q36.35 -169.2 36.5 -171.35 36.5 -172.25 36.85 -173.1 37.25 -174.45 38.1 -175.8 L38.65 -176.55" fill="#4c004c" fill-rule="evenodd" stroke="none"/>
      <path d="M45.65 -173.5 Q49.85 -176.2 50.65 -181.6 70.55 -178.75 71.55 -158.5 63.2 -169.05 56.5 -158.5 56.15 -171.2 44.45 -161.7 46.5 -167.65 43.65 -170.5 L44.8 -172.0 45.65 -173.5 M36.85 -173.1 Q32.85 -174.4 28.5 -169.85 31.7 -184.55 20.25 -179.05 26.5 -189.8 13.35 -192.4 31.7 -200.8 43.45 -184.45 39.15 -181.35 38.65 -176.55 L38.1 -175.8 Q37.25 -174.45 36.85 -173.1 M31.7 -174.4 Q34.95 -182.65 41.75 -184.7 34.95 -182.65 31.7 -174.4 M24.4 -182.55 Q30.95 -187.3 40.9 -185.4 30.95 -187.3 24.4 -182.55 M17.45 -192.5 Q30.95 -193.2 39.4 -186.75 30.95 -193.2 17.45 -192.5 M47.1 -165.9 Q50.95 -172.5 51.05 -177.9 50.95 -172.5 47.1 -165.9 M57.55 -163.35 Q58.85 -172.7 51.7 -179.95 58.85 -172.7 57.55 -163.35 M69.3 -163.6 Q64.6 -172.3 54.45 -179.0 64.6 -172.3 69.3 -163.6" fill="#261726" fill-rule="evenodd" stroke="none"/>
      <path d="M38.65 -176.55 Q39.95 -178.25 41.75 -179.15 43.75 -180.25 45.1 -179.45 46.45 -178.65 46.35 -176.45 46.3 -175.0 45.65 -173.5 49.85 -176.2 50.65 -181.6 70.55 -178.75 71.55 -158.5 63.2 -169.05 56.5 -158.5 56.15 -171.2 44.45 -161.7 46.5 -167.65 43.65 -170.5 42.5 -169.4 41.15 -168.65 L37.7 -168.45 Q36.35 -169.2 36.5 -171.35 36.5 -172.25 36.85 -173.1 32.85 -174.4 28.5 -169.85 31.7 -184.55 20.25 -179.05 26.5 -189.8 13.35 -192.4 31.7 -200.8 43.45 -184.45 39.15 -181.35 38.65 -176.55 L38.1 -175.8 Q37.25 -174.45 36.85 -173.1 M45.65 -173.5 L44.8 -172.0 43.65 -170.5" fill="none" stroke="#000000" stroke-linecap="round" stroke-linejoin="round" stroke-opacity="0.4" stroke-width="0.30000000000000004"/>
      <path d="M54.45 -179.0 Q64.6 -172.3 69.3 -163.6 M51.7 -179.95 Q58.85 -172.7 57.55 -163.35 M51.05 -177.9 Q50.95 -172.5 47.1 -165.9 M39.4 -186.75 Q30.95 -193.2 17.45 -192.5 M40.9 -185.4 Q30.95 -187.3 24.4 -182.55 M41.75 -184.7 Q34.95 -182.65 31.7 -174.4" fill="none" stroke="#000000" stroke-linecap="round" stroke-linejoin="round" stroke-width="0.30000000000000004"/>
    </g>
  </defs>
</svg>
