<?xml version="1.0" encoding="UTF-8" standalone="no"?>
<svg xmlns:xlink="http://www.w3.org/1999/xlink" height="531.5px" width="460.6px" xmlns="http://www.w3.org/2000/svg">
  <g transform="matrix(1.0, 0.0, 0.0, 1.0, 193.65, 334.05)">
    <use height="57.3" transform="matrix(1.0, 0.0, 0.0, 1.0, -84.4, -203.55)" width="74.05" xlink:href="#shape0"/>
  </g>
  <defs>
    <g id="shape0" transform="matrix(1.0, 0.0, 0.0, 1.0, 84.4, 203.55)">
      <path d="M-60.2 -191.0 L-52.7 -180.05 -60.2 -191.0 M-52.7 -180.05 Q-56.75 -177.25 -61.1 -176.65 -66.1 -175.95 -68.65 -178.7 -71.3 -181.4 -69.85 -185.95 -68.5 -190.45 -64.0 -194.15 -59.5 -197.75 -54.4 -198.5 -49.5 -199.1 -46.85 -196.4 -44.25 -193.65 -45.65 -189.25 -47.0 -184.65 -51.5 -181.0 L-52.7 -180.05" fill="#f2f2f2" fill-rule="evenodd" stroke="none"/>
      <path d="M-52.7 -180.05 Q-56.75 -177.25 -61.1 -176.65 -66.1 -175.95 -68.65 -178.7 -71.3 -181.4 -69.85 -185.95 -68.5 -190.45 -64.0 -194.15 -59.5 -197.75 -54.4 -198.5 -49.5 -199.1 -46.85 -196.4 -44.25 -193.65 -45.65 -189.25 -47.0 -184.65 -51.5 -181.0 L-52.7 -180.05" fill="none" stroke="#000000" stroke-linecap="round" stroke-linejoin="round" stroke-opacity="0.4" stroke-width="1.0"/>
      <path d="M-52.7 -180.05 L-60.2 -191.0" fill="none" stroke="#000000" stroke-linecap="round" stroke-linejoin="round" stroke-opacity="0.2" stroke-width="0.5"/>
      <path d="M-45.65 -198.0 Q-40.4 -202.2 -34.7 -202.9 -28.9 -203.7 -25.85 -200.5 -22.8 -197.25 -24.4 -192.05 -25.85 -186.8 -31.1 -182.65 -36.3 -178.35 -42.1 -177.65 -47.9 -176.9 -50.95 -180.15 -54.0 -183.35 -52.4 -188.5 -50.85 -193.75 -45.65 -198.0" fill="#ffffff" fill-rule="evenodd" stroke="none"/>
      <path d="M-45.65 -198.0 Q-40.4 -202.2 -34.7 -202.9 -28.9 -203.7 -25.85 -200.5 -22.8 -197.25 -24.4 -192.05 -25.85 -186.8 -31.1 -182.65 -36.3 -178.35 -42.1 -177.65 -47.9 -176.9 -50.95 -180.15 -54.0 -183.35 -52.4 -188.5 -50.85 -193.75 -45.65 -198.0 Z" fill="none" stroke="#000000" stroke-linecap="round" stroke-linejoin="round" stroke-opacity="0.4" stroke-width="1.0"/>
      <path d="M-49.6 -178.95 Q-50.15 -187.95 -39.75 -194.8" fill="none" stroke="#000000" stroke-linecap="round" stroke-linejoin="round" stroke-opacity="0.2" stroke-width="0.5"/>
      <path d="M-67.95 -182.4 Q-63.0 -183.05 -60.35 -180.3 -57.8 -177.55 -59.15 -173.15 -60.55 -168.55 -65.05 -164.95 -69.55 -161.25 -74.6 -160.6 -79.6 -159.85 -82.15 -162.6 -84.8 -165.35 -83.4 -169.85 -82.0 -174.35 -77.5 -178.05 -73.0 -181.65 -67.95 -182.4" fill="#f2f2f2" fill-rule="evenodd" stroke="none"/>
      <path d="M-67.95 -182.4 Q-63.0 -183.05 -60.35 -180.3 -57.8 -177.55 -59.15 -173.15 -60.55 -168.55 -65.05 -164.95 -69.55 -161.25 -74.6 -160.6 -79.6 -159.85 -82.15 -162.6 -84.8 -165.35 -83.4 -169.85 -82.0 -174.35 -77.5 -178.05 -73.0 -181.65 -67.95 -182.4 Z" fill="none" stroke="#000000" stroke-linecap="round" stroke-linejoin="round" stroke-opacity="0.4" stroke-width="1.0"/>
      <path d="M-59.0 -177.95 Q-69.85 -178.95 -75.8 -172.55" fill="none" stroke="#000000" stroke-linecap="round" stroke-linejoin="round" stroke-opacity="0.2" stroke-width="0.5"/>
      <path d="M-41.3 -184.95 L-41.45 -184.95 Q-43.55 -185.05 -43.55 -183.05 L-43.3 -182.05 Q-42.75 -181.1 -41.6 -181.1 -41.95 -180.95 -41.95 -180.45 L-41.95 -180.3 -42.5 -180.3 Q-44.7 -180.15 -44.7 -178.3 L-44.7 -178.2 Q-46.45 -177.95 -46.45 -175.4 -46.45 -174.8 -46.1 -174.25 L-45.7 -173.8 -46.75 -174.1 -46.7 -174.9 Q-46.7 -177.0 -48.85 -177.0 -51.05 -177.1 -51.05 -175.0 -51.05 -174.5 -50.65 -173.95 L-50.65 -173.85 -51.25 -173.95 Q-52.4 -173.85 -52.95 -173.3 -53.1 -175.15 -55.3 -175.25 -57.45 -175.3 -57.65 -173.55 -58.85 -173.6 -59.25 -172.75 L-59.25 -173.05 Q-59.25 -175.15 -61.4 -175.15 -63.4 -175.15 -63.6 -173.2 -64.65 -175.85 -62.6 -179.15 -60.45 -182.8 -55.7 -185.1 -50.95 -187.45 -46.45 -187.15 -43.05 -186.75 -41.3 -184.95 M-61.75 -170.8 L-61.55 -170.8 -61.35 -170.8 -61.4 -170.55 -61.75 -170.8 M-58.65 -169.45 L-57.4 -169.2 -57.15 -169.6 Q-56.6 -169.6 -56.1 -169.9 L-55.85 -169.1 -54.9 -169.1 -57.25 -169.2 -58.65 -169.45 M-50.0 -170.25 L-49.75 -170.4 -49.6 -170.55 Q-49.0 -171.3 -49.0 -171.85 -49.0 -172.55 -49.25 -172.95 L-48.95 -172.95 -49.0 -172.25 Q-49.0 -171.7 -48.6 -171.05 L-48.55 -170.9 -50.0 -170.25 M-44.85 -173.05 L-45.4 -173.6 -44.35 -173.45 -44.85 -173.05 M-41.85 -175.85 L-41.85 -176.2 -41.6 -176.25 -41.85 -175.85 M-39.85 -180.45 L-40.0 -180.45 -40.55 -180.35 -40.55 -180.55 Q-40.65 -181.1 -41.05 -181.2 -40.4 -181.35 -39.95 -181.9 L-39.85 -182.0 -39.85 -180.45 M-44.5 -181.2 Q-44.5 -180.55 -43.8 -180.55 -43.25 -180.55 -43.25 -181.2 -43.25 -181.8 -43.85 -181.8 -44.5 -181.8 -44.5 -181.2 M-45.1 -178.95 Q-45.1 -179.65 -45.7 -179.55 -46.45 -179.5 -46.45 -178.85 -46.45 -178.2 -45.7 -178.2 -45.1 -178.2 -45.1 -178.95 M-44.2 -184.25 Q-44.2 -184.9 -44.85 -184.95 -45.55 -185.05 -45.55 -184.3 -45.55 -183.6 -44.85 -183.6 -44.2 -183.6 -44.2 -184.25 M-58.2 -175.8 Q-59.0 -175.8 -59.0 -175.15 -59.0 -174.5 -58.2 -174.5 -57.45 -174.5 -57.45 -175.15 -57.45 -175.8 -58.2 -175.8" fill="#ffcc00" fill-rule="evenodd" stroke="none"/>
      <path d="M-41.3 -184.95 L-40.4 -183.75 Q-40.0 -182.95 -39.85 -182.0 L-39.95 -181.9 Q-40.4 -181.35 -41.05 -181.2 -40.65 -181.1 -40.55 -180.55 L-40.55 -180.35 -40.0 -180.45 -39.85 -180.45 -39.95 -179.8 -41.15 -177.0 -41.2 -176.85 -41.6 -176.25 -41.2 -176.85 -41.55 -176.25 -41.6 -176.25 -41.85 -176.2 -41.85 -175.85 -43.3 -174.35 -44.35 -173.45 -43.3 -174.35 -44.25 -173.45 -44.35 -173.45 -45.4 -173.6 -44.85 -173.05 Q-46.3 -172.0 -48.05 -171.1 L-48.55 -170.9 -48.6 -171.05 Q-49.0 -171.7 -49.0 -172.25 L-48.95 -172.95 -49.25 -172.95 Q-49.0 -172.55 -49.0 -171.85 -49.0 -171.3 -49.6 -170.55 L-49.75 -170.4 -50.0 -170.25 -51.5 -169.75 -51.75 -169.65 -52.0 -169.6 -52.55 -169.5 -52.7 -169.45 -54.9 -169.1 -55.85 -169.1 -56.1 -169.9 Q-56.6 -169.6 -57.15 -169.6 L-57.4 -169.2 -58.65 -169.45 -59.9 -169.75 Q-60.75 -170.1 -61.4 -170.55 -60.75 -170.1 -59.9 -169.75 L-61.4 -170.5 -61.4 -170.55 -61.35 -170.8 -61.55 -170.8 -61.75 -170.8 Q-62.7 -171.5 -63.25 -172.55 L-63.35 -172.8 -63.6 -173.2 -63.35 -172.8 -63.6 -173.2 Q-63.4 -175.15 -61.4 -175.15 -59.25 -175.15 -59.25 -173.05 L-59.25 -172.75 Q-58.85 -173.6 -57.65 -173.55 -57.45 -175.3 -55.3 -175.25 -53.1 -175.15 -52.95 -173.3 -52.4 -173.85 -51.25 -173.95 L-50.65 -173.85 -50.65 -173.95 Q-51.05 -174.5 -51.05 -175.0 -51.05 -177.1 -48.85 -177.0 -46.7 -177.0 -46.7 -174.9 L-46.75 -174.1 -45.7 -173.8 -46.1 -174.25 Q-46.45 -174.8 -46.45 -175.4 -46.45 -177.95 -44.7 -178.2 L-44.7 -178.3 Q-44.7 -180.15 -42.5 -180.3 L-41.95 -180.3 -41.95 -180.45 Q-41.95 -180.95 -41.6 -181.1 -42.75 -181.1 -43.3 -182.05 L-43.55 -183.05 Q-43.55 -185.05 -41.45 -184.95 L-41.3 -184.95 M-44.2 -184.25 Q-44.2 -183.6 -44.85 -183.6 -45.55 -183.6 -45.55 -184.3 -45.55 -185.05 -44.85 -184.95 -44.2 -184.9 -44.2 -184.25 M-45.1 -178.95 Q-45.1 -178.2 -45.7 -178.2 -46.45 -178.2 -46.45 -178.85 -46.45 -179.5 -45.7 -179.55 -45.1 -179.65 -45.1 -178.95 M-44.5 -181.2 Q-44.5 -181.8 -43.85 -181.8 -43.25 -181.8 -43.25 -181.2 -43.25 -180.55 -43.8 -180.55 -44.5 -180.55 -44.5 -181.2 M-58.2 -175.8 Q-57.45 -175.8 -57.45 -175.15 -57.45 -174.5 -58.2 -174.5 -59.0 -174.5 -59.0 -175.15 -59.0 -175.8 -58.2 -175.8" fill="#ff9900" fill-rule="evenodd" stroke="none"/>
      <path d="M-39.85 -182.0 Q-40.0 -182.95 -40.4 -183.75 L-41.3 -184.95 Q-43.05 -186.75 -46.45 -187.15 -50.95 -187.45 -55.7 -185.1 -60.45 -182.8 -62.6 -179.15 -64.65 -175.85 -63.6 -173.2 L-63.35 -172.8 -63.25 -172.55 Q-62.7 -171.5 -61.75 -170.8 L-61.4 -170.55 Q-60.75 -170.1 -59.9 -169.75 L-58.65 -169.45 -57.25 -169.2 -54.9 -169.1 -52.7 -169.45 -52.55 -169.5 -52.0 -169.6 M-51.5 -169.75 L-50.0 -170.25 -48.55 -170.9 -48.05 -171.1 Q-46.3 -172.0 -44.85 -173.05 L-44.35 -173.45 -43.3 -174.35 -41.85 -175.85 -41.6 -176.25 -41.2 -176.85 -41.15 -177.0 -39.95 -179.8 M-39.85 -182.0 L-39.85 -180.45" fill="none" stroke="#000000" stroke-linecap="round" stroke-linejoin="round" stroke-opacity="0.4" stroke-width="1.0"/>
      <path d="M-63.0 -163.9 Q-63.0 -169.5 -55.85 -173.15 -63.0 -169.5 -63.0 -163.9 M-52.0 -170.8 Q-48.85 -167.4 -49.35 -162.05 -49.8 -156.5 -53.7 -152.05 -57.45 -147.65 -62.45 -146.9 -67.45 -146.1 -70.6 -149.5 -73.8 -152.8 -73.25 -158.35 -72.75 -163.8 -68.95 -168.25 -65.1 -172.65 -60.1 -173.45 L-55.85 -173.15 Q-53.7 -172.55 -52.0 -170.8" fill="#f2f2f2" fill-rule="evenodd" stroke="none"/>
      <path d="M-52.0 -170.8 Q-48.85 -167.4 -49.35 -162.05 -49.8 -156.5 -53.7 -152.05 -57.45 -147.65 -62.45 -146.9 -67.45 -146.1 -70.6 -149.5 -73.8 -152.8 -73.25 -158.35 -72.75 -163.8 -68.95 -168.25 -65.1 -172.65 -60.1 -173.45 L-55.85 -173.15 Q-53.7 -172.55 -52.0 -170.8" fill="none" stroke="#000000" stroke-linecap="round" stroke-linejoin="round" stroke-opacity="0.4" stroke-width="1.0"/>
      <path d="M-55.85 -173.15 Q-63.0 -169.5 -63.0 -163.9" fill="none" stroke="#000000" stroke-linecap="round" stroke-linejoin="round" stroke-opacity="0.2" stroke-width="0.5"/>
      <path d="M-30.2 -189.8 Q-23.7 -191.4 -18.1 -189.65 -12.55 -187.8 -11.2 -183.6 -9.85 -179.4 -13.4 -175.4 -17.0 -171.3 -23.5 -169.65 -29.95 -168.05 -35.5 -169.9 -41.15 -171.6 -42.5 -175.8 -43.85 -179.95 -40.25 -184.15 -36.65 -188.2 -30.2 -189.8" fill="#ffffff" fill-rule="evenodd" stroke="none"/>
      <path d="M-30.2 -189.8 Q-23.7 -191.4 -18.1 -189.65 -12.55 -187.8 -11.2 -183.6 -9.85 -179.4 -13.4 -175.4 -17.0 -171.3 -23.5 -169.65 -29.95 -168.05 -35.5 -169.9 -41.15 -171.6 -42.5 -175.8 -43.85 -179.95 -40.25 -184.15 -36.65 -188.2 -30.2 -189.8 Z" fill="none" stroke="#000000" stroke-linecap="round" stroke-linejoin="round" stroke-opacity="0.4" stroke-width="1.0"/>
      <path d="M-42.9 -177.1 Q-38.95 -181.65 -29.55 -183.35" fill="none" stroke="#000000" stroke-linecap="round" stroke-linejoin="round" stroke-opacity="0.2" stroke-width="0.5"/>
      <path d="M-30.9 -173.2 Q-27.6 -169.75 -28.4 -164.7 -29.4 -159.6 -33.9 -156.0 -38.4 -152.3 -43.85 -152.15 -49.4 -152.05 -52.7 -155.5 -55.95 -158.95 -55.05 -163.95 -54.1 -168.95 -49.6 -172.65 -48.7 -173.4 -47.8 -173.95 -44.05 -176.35 -39.6 -176.5 -34.15 -176.65 -30.9 -173.2 M-44.6 -169.25 L-47.8 -173.95 -44.6 -169.25" fill="#ffffff" fill-rule="evenodd" stroke="none"/>
      <path d="M-30.9 -173.2 Q-27.6 -169.75 -28.4 -164.7 -29.4 -159.6 -33.9 -156.0 -38.4 -152.3 -43.85 -152.15 -49.4 -152.05 -52.7 -155.5 -55.95 -158.95 -55.05 -163.95 -54.1 -168.95 -49.6 -172.65 -48.7 -173.4 -47.8 -173.95 -44.05 -176.35 -39.6 -176.5 -34.15 -176.65 -30.9 -173.2" fill="none" stroke="#000000" stroke-linecap="round" stroke-linejoin="round" stroke-opacity="0.4" stroke-width="1.0"/>
      <path d="M-47.8 -173.95 L-44.6 -169.25" fill="none" stroke="#000000" stroke-linecap="round" stroke-linejoin="round" stroke-opacity="0.2" stroke-width="0.5"/>
    </g>
  </defs>
</svg>
