<?xml version="1.0" encoding="UTF-8" standalone="no"?>
<svg xmlns:xlink="http://www.w3.org/1999/xlink" height="531.5px" width="460.6px" xmlns="http://www.w3.org/2000/svg">
  <g transform="matrix(1.0, 0.0, 0.0, 1.0, 193.65, 334.05)">
    <use height="64.45" transform="matrix(1.0, 0.0, 0.0, 1.0, -71.2, -190.1)" width="78.75" xlink:href="#shape0"/>
  </g>
  <defs>
    <g id="shape0" transform="matrix(1.0, 0.0, 0.0, 1.0, 71.2, 190.1)">
      <path d="M3.3 -177.8 L3.4 -173.95 Q3.4 -171.2 3.0 -170.95 2.75 -171.35 2.2 -173.05 1.9 -174.3 1.35 -174.55 1.05 -173.3 1.05 -170.6 L1.05 -169.3 Q0.1 -169.85 -0.9 -169.9 -1.5 -173.8 -1.85 -174.8 L-2.1 -174.8 -2.45 -174.05 Q-2.6 -173.65 -3.1 -173.55 -3.35 -173.95 -3.45 -175.4 L-3.6 -178.9 0.6 -178.3 3.3 -177.8" fill="#a3571e" fill-rule="evenodd" stroke="none"/>
      <path d="M1.05 -169.3 L1.05 -170.6 Q1.05 -173.3 1.35 -174.55 1.9 -174.3 2.2 -173.05 2.75 -171.35 3.0 -170.95 3.4 -171.2 3.4 -173.95 L3.3 -177.8 4.35 -177.6 5.2 -175.4 Q8.65 -165.45 6.45 -154.1 L-2.7 -150.8 Q-3.8 -151.75 -4.55 -153.35 -5.4 -155.1 -5.8 -157.4 -6.15 -159.5 -6.15 -162.15 L-6.25 -165.95 -6.75 -171.25 -7.35 -175.05 -7.35 -175.4 -8.35 -179.15 -8.7 -179.15 -11.55 -179.2 -11.65 -179.65 -12.0 -181.6 Q-12.15 -183.85 -11.75 -186.25 L-11.55 -186.9 -8.7 -187.4 -7.35 -187.5 -5.8 -187.5 -1.1 -186.9 -0.75 -186.25 Q0.1 -184.05 0.45 -181.6 L0.6 -179.65 0.6 -178.3 -3.6 -178.9 -3.45 -175.4 Q-3.35 -173.95 -3.1 -173.55 -2.6 -173.65 -2.45 -174.05 L-2.1 -174.8 -1.85 -174.8 Q-1.5 -173.8 -0.9 -169.9 L-1.25 -169.9 Q-3.0 -169.9 -4.2 -168.75 -5.5 -167.45 -5.5 -165.7 L-5.4 -164.95 Q-5.2 -163.65 -4.2 -162.75 -3.0 -161.45 -1.25 -161.45 0.55 -161.45 1.8 -162.75 3.0 -163.9 3.0 -165.7 L2.75 -167.3 1.8 -168.75 1.05 -169.3 M-3.6 -178.9 L-5.8 -179.05 -7.35 -179.15 -8.35 -179.15 -7.35 -179.15 -5.8 -179.05 -3.6 -178.9 M-1.5 -155.2 Q0.6 -156.45 2.05 -158.35 L3.4 -160.0 2.05 -158.35 Q0.6 -156.45 -1.5 -155.2 M5.0 -158.6 L5.75 -160.3 5.0 -158.6 M-6.25 -185.9 L-7.35 -185.65 -8.1 -185.15 -8.7 -184.2 -8.85 -183.25 -8.7 -182.25 -8.25 -181.6 -8.1 -181.4 -7.35 -180.8 -6.25 -180.65 -5.8 -180.65 Q-4.95 -180.8 -4.4 -181.4 L-4.2 -181.6 Q-3.6 -182.25 -3.6 -183.25 -3.6 -184.35 -4.4 -185.15 -4.95 -185.75 -5.8 -185.8 L-6.25 -185.9 M-1.25 -179.9 L-0.15 -180.9 -1.25 -179.9" fill="#a34526" fill-rule="evenodd" stroke="none"/>
      <path d="M2.75 -167.3 L3.0 -165.7 Q3.0 -163.9 1.8 -162.75 0.55 -161.45 -1.25 -161.45 -3.0 -161.45 -4.2 -162.75 -5.2 -163.65 -5.4 -164.95 -4.3 -163.85 -2.95 -163.85 L-1.1 -164.0 -1.0 -164.1 Q0.0 -164.4 0.8 -165.0 L2.75 -167.3" fill="#827659" fill-rule="evenodd" stroke="none"/>
      <path d="M-0.9 -169.9 Q0.1 -169.85 1.05 -169.3 L1.8 -168.75 2.75 -167.3 0.8 -165.0 Q0.0 -164.4 -1.0 -164.1 L-1.1 -164.0 -2.95 -163.85 Q-4.3 -163.85 -5.4 -164.95 L-5.5 -165.7 Q-5.5 -167.45 -4.2 -168.75 -3.0 -169.9 -1.25 -169.9 L-0.9 -169.9 M-1.4 -167.8 L-1.0 -164.1 -1.4 -167.8" fill="#a1967d" fill-rule="evenodd" stroke="none"/>
      <path d="M-6.25 -185.9 L-5.8 -185.8 Q-4.95 -185.75 -4.4 -185.15 -3.6 -184.35 -3.6 -183.25 -3.6 -182.25 -4.2 -181.6 L-4.4 -181.4 Q-4.95 -180.8 -5.8 -180.65 L-6.25 -180.65 -7.35 -180.8 -8.1 -181.4 -8.25 -181.6 -8.7 -182.25 -8.85 -183.25 -8.7 -184.2 -8.1 -185.15 -7.35 -185.65 -6.25 -185.9" fill="#ff0000" fill-rule="evenodd" stroke="none"/>
      <path d="M-13.4 -179.15 L-13.75 -181.6 Q-13.85 -183.85 -13.25 -186.15 L-11.55 -186.9 -11.75 -186.25 Q-12.15 -183.85 -12.0 -181.6 L-11.65 -179.65 -11.55 -179.2 -13.4 -179.15" fill="#571d0d" fill-rule="evenodd" stroke="none"/>
      <path d="M-2.7 -150.8 L-10.8 -147.85 Q-9.7 -151.55 -9.1 -154.85 -6.55 -170.1 -13.95 -179.15 L-13.4 -179.15 -11.55 -179.2 -8.7 -179.15 -8.35 -179.15 -7.35 -175.4 -7.35 -175.05 -6.75 -171.25 -6.25 -165.95 -6.15 -162.15 Q-6.15 -159.5 -5.8 -157.4 -5.4 -155.1 -4.55 -153.35 -3.8 -151.75 -2.7 -150.8" fill="url(#gradient0)" fill-rule="evenodd" stroke="none"/>
      <path d="M3.3 -177.8 L0.6 -178.3 -3.6 -178.9 -5.8 -179.05 -7.35 -179.15 -8.35 -179.15 -8.7 -179.15 -11.55 -179.2 -11.65 -179.65 -12.0 -181.6 Q-12.15 -183.85 -11.75 -186.25 L-11.55 -186.9 -8.7 -187.4 -7.35 -187.5 -5.8 -187.5 -1.1 -186.9 -0.75 -186.25 Q0.1 -184.05 0.45 -181.6 L0.6 -179.65 0.6 -178.3 M-0.9 -169.9 Q0.1 -169.85 1.05 -169.3 L1.8 -168.75 2.75 -167.3 3.0 -165.7 Q3.0 -163.9 1.8 -162.75 0.55 -161.45 -1.25 -161.45 -3.0 -161.45 -4.2 -162.75 -5.2 -163.65 -5.4 -164.95 L-5.5 -165.7 Q-5.5 -167.45 -4.2 -168.75 -3.0 -169.9 -1.25 -169.9 L-0.9 -169.9 M3.3 -177.8 L4.35 -177.6 5.2 -175.4 Q8.65 -165.45 6.45 -154.1 L-2.7 -150.8 -10.8 -147.85 M-13.95 -179.15 L-13.4 -179.15 -13.75 -181.6 Q-13.85 -183.85 -13.25 -186.15 L-11.55 -186.9 M-6.25 -185.9 L-5.8 -185.8 Q-4.95 -185.75 -4.4 -185.15 -3.6 -184.35 -3.6 -183.25 -3.6 -182.25 -4.2 -181.6 L-4.4 -181.4 Q-4.95 -180.8 -5.8 -180.65 L-6.25 -180.65 -7.35 -180.8 -8.1 -181.4 -8.25 -181.6 -8.7 -182.25 -8.85 -183.25 -8.7 -184.2 -8.1 -185.15 -7.35 -185.65 -6.25 -185.9 M-13.4 -179.15 L-11.55 -179.2 M-1.0 -164.1 L-1.4 -167.8" fill="none" stroke="#000000" stroke-linecap="round" stroke-linejoin="round" stroke-opacity="0.5019608" stroke-width="0.5"/>
      <path d="M5.75 -160.3 L5.0 -158.6 M3.4 -160.0 L2.05 -158.35 Q0.6 -156.45 -1.5 -155.2 M-0.15 -180.9 L-1.25 -179.9" fill="none" stroke="#000000" stroke-linecap="round" stroke-linejoin="round" stroke-opacity="0.5019608" stroke-width="0.30000000000000004"/>
      <path d="M-11.3 -177.7 Q-13.45 -179.8 -13.45 -182.85 -13.45 -185.9 -11.3 -188.0 -9.2 -190.1 -6.15 -190.1 -3.1 -190.1 -1.0 -188.0 1.1 -185.9 1.1 -182.85 1.1 -179.8 -1.0 -177.7 -3.1 -175.6 -6.15 -175.6 -9.2 -175.6 -11.3 -177.7" fill="url(#gradient1)" fill-rule="evenodd" stroke="none"/>
      <path d="M-8.85 -186.05 Q-7.75 -187.1 -6.25 -187.1 -4.65 -187.1 -3.6 -186.05 -2.5 -184.95 -2.5 -183.35 -2.5 -181.85 -3.6 -180.75 -4.65 -179.65 -6.25 -179.65 -7.75 -179.65 -8.85 -180.75 -9.9 -181.85 -9.9 -183.35 -9.9 -184.95 -8.85 -186.05" fill="url(#gradient2)" fill-rule="evenodd" stroke="none"/>
      <path d="M-60.3 -156.55 L-61.2 -155.8 -62.05 -155.1 -62.6 -155.8 Q-63.6 -157.05 -65.1 -157.75 -63.95 -158.75 -62.6 -159.5 L-61.2 -160.1 -60.2 -160.55 Q-60.45 -158.5 -60.3 -156.55 M-65.3 -131.6 L-66.4 -132.8 -67.75 -134.5 Q-66.7 -136.35 -65.45 -137.55 L-64.35 -136.0 -64.0 -135.75 -64.35 -135.0 Q-65.05 -133.4 -65.3 -131.6" fill="#787878" fill-rule="evenodd" stroke="none"/>
      <path d="M-62.05 -155.1 L-61.2 -155.8 -60.3 -156.55 -59.6 -153.45 -61.05 -152.4 -61.2 -153.1 Q-61.55 -154.2 -62.05 -155.1" fill="#5e5e5e" fill-rule="evenodd" stroke="none"/>
      <path d="M-65.1 -157.75 Q-63.6 -157.05 -62.6 -155.8 L-62.05 -155.1 -62.6 -154.6 -64.45 -152.5 -65.2 -151.25 -65.85 -149.95 Q-66.9 -150.55 -68.05 -150.7 L-67.8 -151.25 Q-66.05 -155.65 -65.95 -157.05 L-65.1 -157.75 M-70.7 -142.1 Q-68.9 -143.6 -67.15 -143.9 L-66.9 -141.75 Q-66.65 -140.15 -66.05 -138.7 L-65.45 -137.55 Q-66.7 -136.35 -67.75 -134.5 L-68.85 -136.25 Q-70.25 -139.05 -70.7 -142.1" fill="#a1a1a1" fill-rule="evenodd" stroke="none"/>
      <path d="M-70.95 -145.4 L-70.85 -146.75 Q-70.8 -148.85 -70.1 -150.8 L-69.95 -151.25 Q-68.85 -154.25 -66.4 -156.75 L-65.95 -157.05 Q-66.05 -155.65 -67.8 -151.25 L-68.05 -150.7 -68.25 -150.4 Q-68.9 -148.1 -70.95 -145.4 M-68.05 -150.7 L-70.1 -150.8 -68.05 -150.7" fill="#d9d9d9" fill-rule="evenodd" stroke="none"/>
      <path d="M-70.95 -145.4 Q-68.9 -148.1 -68.25 -150.4 L-68.05 -150.7 Q-66.9 -150.55 -65.85 -149.95 -67.15 -147.35 -67.15 -144.3 L-67.15 -143.9 Q-68.9 -143.6 -70.7 -142.1 L-70.95 -145.4" fill="#b0b0b0" fill-rule="evenodd" stroke="none"/>
      <path d="M-62.05 -155.1 Q-61.55 -154.2 -61.2 -153.1 L-61.05 -152.4 -61.2 -152.25 -61.4 -152.1 -62.15 -151.25 -62.6 -150.65 Q-63.4 -149.55 -63.85 -148.25 L-64.25 -146.75 -64.45 -144.3 -64.45 -143.55 -64.2 -141.75 -63.4 -138.95 -65.45 -137.55 -66.05 -138.7 Q-66.65 -140.15 -66.9 -141.75 L-67.15 -143.9 -67.15 -144.3 Q-67.15 -147.35 -65.85 -149.95 L-65.2 -151.25 -64.45 -152.5 -62.6 -154.6 -62.05 -155.1 M-64.45 -143.55 L-67.15 -143.9 -64.45 -143.55 M-63.85 -148.25 L-65.85 -149.95 -63.85 -148.25" fill="#8a8a8a" fill-rule="evenodd" stroke="none"/>
      <path d="M-60.4 -138.95 L-59.1 -138.8 -57.4 -138.15 -57.25 -138.05 -57.15 -137.95 -57.4 -137.55 -58.6 -136.2 -58.85 -137.3 -58.95 -137.3 Q-59.0 -136.95 -59.8 -135.6 L-60.8 -133.75 -60.9 -134.75 -60.55 -138.05 -60.4 -138.95" fill="#a3571e" fill-rule="evenodd" stroke="none"/>
      <path d="M-62.85 -138.15 L-62.6 -138.55 -62.4 -138.8 -60.4 -138.95 -60.55 -138.05 -60.9 -134.75 -60.8 -133.75 -59.8 -135.6 Q-59.0 -136.95 -58.95 -137.3 L-58.85 -137.3 -58.6 -136.2 -57.4 -137.55 -57.15 -137.95 -56.4 -137.2 -56.9 -133.8 -57.4 -133.3 -59.6 -131.8 -59.8 -131.7 -62.3 -131.1 -62.6 -131.0 -64.35 -130.85 -64.85 -130.95 -65.05 -130.95 -65.35 -130.95 -65.3 -131.6 Q-65.05 -133.4 -64.35 -135.0 L-64.0 -135.75 -62.85 -138.05 -62.85 -138.15" fill="#8f3c22" fill-rule="evenodd" stroke="none"/>
      <path d="M-56.9 -133.8 L-57.4 -131.7 Q-58.2 -128.75 -59.45 -125.95 L-59.8 -125.95 -62.6 -126.1 -64.35 -126.8 -65.45 -127.55 Q-65.6 -129.35 -65.35 -130.95 L-65.05 -130.95 -64.85 -130.95 -64.35 -130.85 -62.6 -131.0 -62.3 -131.1 -59.8 -131.7 -59.6 -131.8 -57.4 -133.3 -56.9 -133.8" fill="#662b18" fill-rule="evenodd" stroke="none"/>
      <path d="M-63.4 -138.95 L-62.85 -138.15 -62.85 -138.05 -64.0 -135.75 -64.35 -136.0 -65.45 -137.55 -63.4 -138.95" fill="#5c5c5c" fill-rule="evenodd" stroke="none"/>
      <path d="M-60.2 -160.55 L-61.2 -160.1 -62.6 -159.5 Q-63.95 -158.75 -65.1 -157.75 -63.6 -157.05 -62.6 -155.8 L-62.05 -155.1 Q-61.55 -154.2 -61.2 -153.1 L-61.05 -152.4 -59.6 -153.45 M-70.95 -145.4 L-70.85 -146.75 Q-70.8 -148.85 -70.1 -150.8 L-69.95 -151.25 Q-68.85 -154.25 -66.4 -156.75 L-65.95 -157.05 -65.1 -157.75 M-70.1 -150.8 L-68.05 -150.7 Q-66.9 -150.55 -65.85 -149.95 L-63.85 -148.25 -64.25 -146.75 -64.45 -144.3 -64.45 -143.55 -64.2 -141.75 -63.4 -138.95 -62.85 -138.15 -62.6 -138.55 -62.4 -138.8 -60.4 -138.95 -59.1 -138.8 -57.4 -138.15 -57.25 -138.05 -57.15 -137.95 -56.4 -137.2 -56.9 -133.8 -57.4 -131.7 Q-58.2 -128.75 -59.45 -125.95 L-59.8 -125.95 -62.6 -126.1 -64.35 -126.8 -65.45 -127.55 Q-65.6 -129.35 -65.35 -130.95 L-65.3 -131.6 -66.4 -132.8 -67.75 -134.5 -68.85 -136.25 Q-70.25 -139.05 -70.7 -142.1 -68.9 -143.6 -67.15 -143.9 L-64.45 -143.55 M-70.95 -145.4 L-70.7 -142.1 M-61.05 -152.4 L-61.2 -152.25 -61.4 -152.1 -62.15 -151.25 -62.6 -150.65 Q-63.4 -149.55 -63.85 -148.25 M-65.45 -137.55 L-63.4 -138.95 M-64.0 -135.75 L-62.85 -138.05 -62.85 -138.15 M-65.45 -137.55 Q-66.7 -136.35 -67.75 -134.5 M-65.3 -131.6 Q-65.05 -133.4 -64.35 -135.0 L-64.0 -135.75" fill="none" stroke="#000000" stroke-linecap="round" stroke-linejoin="round" stroke-opacity="0.5019608" stroke-width="0.5"/>
      <path d="M-25.6 -186.3 L-24.75 -186.25 Q-19.15 -185.2 -15.0 -182.5 L-15.0 -181.9 -12.5 -179.15 Q-5.1 -170.1 -7.65 -154.85 L-8.95 -153.6 -11.45 -151.4 -11.45 -151.25 -9.1 -150.7 -9.0 -150.65 Q-9.5 -150.15 -11.65 -149.55 L-11.7 -149.45 -11.15 -148.25 Q-10.6 -147.25 -10.6 -146.9 L-10.85 -146.85 -11.4 -147.0 Q-10.7 -145.65 -10.55 -144.95 -11.45 -143.45 -12.9 -141.5 -18.65 -138.65 -23.7 -136.95 -27.85 -136.0 -32.2 -135.75 -36.05 -135.5 -40.05 -135.6 L-47.75 -136.1 Q-50.85 -136.1 -52.15 -138.3 L-53.3 -137.6 -53.4 -138.95 -53.25 -140.65 -54.5 -140.05 -55.1 -140.75 Q-56.1 -142.2 -56.2 -144.55 L-56.2 -144.8 -58.15 -147.1 -58.3 -147.25 Q-60.6 -150.3 -61.5 -153.45 L-62.2 -156.55 Q-62.35 -158.5 -62.1 -160.55 -61.6 -164.25 -59.4 -168.05 L-57.45 -171.1 -60.1 -175.15 -60.15 -175.25 Q-58.05 -178.7 -53.75 -181.5 L-51.2 -182.6 -46.2 -183.0 Q-44.35 -183.45 -43.0 -184.55 L-41.3 -185.65 -36.75 -184.95 -35.3 -186.3 -32.2 -186.65 Q-29.4 -185.2 -26.5 -185.4 -25.9 -185.45 -25.6 -186.3 M-9.7 -162.55 L-9.7 -163.4 -9.7 -164.35 Q-9.7 -172.6 -15.6 -178.55 -21.45 -184.35 -29.8 -184.35 -35.5 -184.35 -40.05 -181.6 -42.15 -180.4 -44.0 -178.55 -46.2 -176.35 -47.55 -173.7 -48.85 -171.45 -49.35 -168.8 L-52.05 -168.15 Q-54.85 -167.3 -54.85 -166.3 -54.85 -165.5 -52.4 -164.0 -50.0 -162.55 -50.0 -162.2 -50.0 -161.9 -51.45 -160.6 L-52.8 -159.2 -53.25 -159.7 Q-54.25 -160.7 -55.7 -160.7 -57.2 -160.7 -58.2 -159.7 -59.25 -158.65 -59.25 -157.25 -59.25 -155.8 -58.2 -154.8 -57.2 -153.75 -55.7 -153.75 -54.25 -153.75 -53.25 -154.8 -52.2 -155.8 -52.2 -157.25 L-52.2 -157.65 -52.3 -158.1 -52.15 -157.85 Q-51.35 -156.8 -51.45 -156.15 L-50.45 -156.15 Q-49.7 -156.15 -49.7 -155.8 L-52.05 -153.1 Q-54.65 -150.15 -55.75 -147.75 L-55.2 -147.75 Q-52.15 -149.25 -49.15 -150.8 L-48.65 -150.8 -48.6 -150.45 -48.75 -149.6 Q-48.75 -149.3 -48.25 -149.3 -47.4 -149.3 -45.9 -150.45 L-44.0 -148.35 -41.65 -146.35 -40.05 -145.25 Q-35.5 -142.45 -29.8 -142.45 -23.05 -142.45 -17.9 -146.35 L-15.6 -148.35 Q-9.7 -154.2 -9.7 -162.55 M-50.45 -177.5 L-50.55 -177.7 Q-51.3 -178.45 -52.4 -178.45 -53.5 -178.45 -54.25 -177.7 L-54.9 -176.6 -55.0 -176.0 -55.0 -175.85 Q-55.0 -174.75 -54.25 -173.95 -53.5 -173.2 -52.4 -173.2 -51.3 -173.2 -50.55 -173.95 -49.75 -174.75 -49.75 -175.85 -49.75 -176.6 -50.1 -177.2 L-50.45 -177.5 M-53.4 -170.1 L-54.0 -169.75 -54.35 -169.4 -54.0 -169.75 -53.4 -170.1 M-55.35 -169.6 Q-57.55 -167.2 -59.0 -163.9 -57.55 -167.2 -55.35 -169.6 M-50.2 -147.1 L-50.55 -147.25 -51.1 -147.45 Q-51.95 -147.15 -51.95 -145.9 -51.95 -145.05 -51.1 -145.05 -50.55 -145.05 -50.0 -145.55 -49.6 -146.05 -49.6 -146.5 L-50.0 -147.0 -50.2 -147.1 M-43.85 -141.15 L-43.85 -141.75 Q-43.85 -143.1 -44.8 -144.05 -45.7 -144.95 -46.95 -144.95 -48.35 -144.95 -49.25 -144.05 -50.2 -143.1 -50.2 -141.75 L-50.2 -141.35 -49.95 -140.5 -49.25 -139.5 Q-48.35 -138.55 -46.95 -138.55 -45.7 -138.55 -44.8 -139.5 -44.0 -140.25 -43.85 -141.15 M-30.55 -136.85 L-33.85 -138.05 -31.75 -138.8 -34.2 -139.65 -34.7 -139.5 -36.3 -138.95 -37.95 -139.75 -36.3 -138.95 -34.7 -139.5 -34.2 -139.65 -32.75 -140.15 -34.2 -139.65 -31.75 -138.8 -23.65 -141.7 -31.75 -138.8 -33.85 -138.05 -30.55 -136.85 M-43.25 -136.6 L-40.05 -137.8 -36.3 -138.95 -33.85 -138.05 -37.1 -136.95 -33.85 -138.05 -36.3 -138.95 -40.05 -137.8 -43.25 -136.6" fill="url(#gradient3)" fill-rule="evenodd" stroke="none"/>
      <path d="M-7.65 -154.85 Q-8.25 -151.55 -9.35 -147.85 -9.7 -146.6 -10.55 -144.95 -10.7 -145.65 -11.4 -147.0 L-10.85 -146.85 -10.6 -146.9 Q-10.6 -147.25 -11.15 -148.25 L-11.7 -149.45 -11.65 -149.55 Q-9.5 -150.15 -9.0 -150.65 L-9.1 -150.7 -11.45 -151.25 -11.45 -151.4 -8.95 -153.6 -7.65 -154.85 M-23.7 -136.95 Q-29.4 -135.15 -34.4 -134.85 L-40.05 -134.5 Q-47.25 -134.5 -54.4 -136.45 -56.25 -140.05 -56.2 -144.55 -56.1 -142.2 -55.1 -140.75 L-54.5 -140.05 -53.25 -140.65 -53.4 -138.95 -53.3 -137.6 -52.15 -138.3 Q-50.85 -136.1 -47.75 -136.1 L-40.05 -135.6 Q-36.05 -135.5 -32.2 -135.75 -27.85 -136.0 -23.7 -136.95 M-51.2 -182.6 L-47.55 -184.05 Q-43.75 -185.4 -40.05 -186.05 L-39.05 -186.25 Q-32.2 -187.35 -25.6 -186.3 -25.9 -185.45 -26.5 -185.4 -29.4 -185.2 -32.2 -186.65 L-35.3 -186.3 -36.75 -184.95 -41.3 -185.65 -43.0 -184.55 Q-44.35 -183.45 -46.2 -183.0 L-51.2 -182.6" fill="#8f6355" fill-rule="evenodd" stroke="none"/>
      <path d="M-33.95 -176.35 Q-36.65 -175.4 -36.65 -173.3 -36.65 -171.2 -33.6 -170.0 L-26.95 -167.55 -20.45 -165.25 Q-17.65 -164.35 -17.9 -167.9 -18.25 -171.45 -20.95 -173.55 -23.65 -175.65 -27.45 -176.5 -31.15 -177.25 -33.95 -176.35 M-29.8 -180.05 Q-23.2 -180.05 -18.65 -175.5 -14.0 -170.85 -14.0 -164.35 -14.0 -157.75 -18.65 -153.2 -23.2 -148.55 -29.8 -148.55 -35.65 -148.55 -40.05 -152.25 L-40.95 -153.2 Q-45.55 -157.75 -45.55 -164.35 -45.55 -170.85 -40.95 -175.5 L-40.05 -176.35 Q-35.65 -180.05 -29.8 -180.05" fill="url(#gradient4)" fill-rule="evenodd" stroke="none"/>
      <path d="M-33.95 -176.35 Q-31.15 -177.25 -27.45 -176.5 -23.65 -175.65 -20.95 -173.55 -18.25 -171.45 -17.9 -167.9 -17.65 -164.35 -20.45 -165.25 L-26.95 -167.55 -33.6 -170.0 Q-36.65 -171.2 -36.65 -173.3 -36.65 -175.4 -33.95 -176.35" fill="#ffffff" fill-rule="evenodd" stroke="none"/>
      <path d="M-29.8 -180.05 Q-35.65 -180.05 -40.05 -176.35 L-40.95 -175.5 Q-45.55 -170.85 -45.55 -164.35 -45.55 -157.75 -40.95 -153.2 L-40.05 -152.25 Q-35.65 -148.55 -29.8 -148.55 -23.2 -148.55 -18.65 -153.2 -14.0 -157.75 -14.0 -164.35 -14.0 -170.85 -18.65 -175.5 -23.2 -180.05 -29.8 -180.05 M-49.35 -168.8 Q-48.85 -171.45 -47.55 -173.7 -46.2 -176.35 -44.0 -178.55 -42.15 -180.4 -40.05 -181.6 -35.5 -184.35 -29.8 -184.35 -21.45 -184.35 -15.6 -178.55 -9.7 -172.6 -9.7 -164.35 L-9.7 -163.4 -9.7 -162.55 Q-10.35 -155.3 -15.6 -150.15 L-17.9 -148.1 Q-20.5 -146.05 -23.65 -145.15 L-26.95 -146.4 -29.45 -144.55 -30.0 -144.2 Q-35.55 -144.3 -40.05 -147.0 L-41.65 -148.1 -44.0 -150.15 -44.95 -151.15 Q-46.55 -152.9 -47.55 -154.85 -49.5 -158.4 -49.75 -162.55 L-49.85 -163.05 -49.85 -163.4 -49.85 -164.35 Q-49.85 -166.7 -49.35 -168.8 M-12.25 -164.75 L-10.85 -166.45 -12.25 -164.75 M-34.55 -146.85 L-36.9 -147.1 -34.55 -146.85" fill="url(#gradient5)" fill-rule="evenodd" stroke="none"/>
      <path d="M-9.7 -162.55 Q-9.7 -154.2 -15.6 -148.35 L-17.9 -146.35 Q-23.05 -142.45 -29.8 -142.45 -35.5 -142.45 -40.05 -145.25 L-41.65 -146.35 -44.0 -148.35 -45.9 -150.45 -47.55 -153.1 Q-49.85 -157.3 -49.85 -162.55 L-49.75 -162.55 Q-49.5 -158.4 -47.55 -154.85 -46.55 -152.9 -44.95 -151.15 L-44.0 -150.15 -41.65 -148.1 -40.05 -147.0 Q-35.55 -144.3 -30.0 -144.2 L-29.8 -144.2 -28.8 -144.2 -26.7 -143.1 -23.65 -145.15 Q-20.5 -146.05 -17.9 -148.1 L-15.6 -150.15 Q-10.35 -155.3 -9.7 -162.55" fill="#bd4400" fill-rule="evenodd" stroke="none"/>
      <path d="M-52.2 -157.65 L-52.2 -157.25 Q-52.2 -155.8 -53.25 -154.8 -54.25 -153.75 -55.7 -153.75 -57.2 -153.75 -58.2 -154.8 -59.25 -155.8 -59.25 -157.25 L-57.95 -156.75 Q-56.1 -156.05 -55.25 -156.05 L-54.65 -156.05 Q-53.4 -156.3 -52.2 -157.65 M-50.1 -177.2 Q-49.75 -176.6 -49.75 -175.85 -49.75 -174.75 -50.55 -173.95 -51.3 -173.2 -52.4 -173.2 -53.5 -173.2 -54.25 -173.95 -55.0 -174.75 -55.0 -175.85 L-55.0 -176.0 Q-54.35 -174.75 -52.9 -174.75 L-52.15 -174.8 Q-50.7 -175.15 -50.1 -177.2 M-43.85 -141.15 Q-44.0 -140.25 -44.8 -139.5 -45.7 -138.55 -46.95 -138.55 -48.35 -138.55 -49.25 -139.5 L-49.95 -140.5 Q-49.35 -140.15 -48.35 -140.05 L-46.95 -140.0 Q-45.35 -140.0 -43.85 -141.15" fill="#827659" fill-rule="evenodd" stroke="none"/>
      <path d="M-52.3 -158.1 L-52.2 -157.65 Q-53.4 -156.3 -54.65 -156.05 L-55.25 -156.05 Q-56.1 -156.05 -57.95 -156.75 L-59.25 -157.25 Q-59.25 -158.65 -58.2 -159.7 -57.2 -160.7 -55.7 -160.7 -54.25 -160.7 -53.25 -159.7 L-52.8 -159.2 -52.3 -158.1 M-54.9 -176.6 L-54.25 -177.7 Q-53.5 -178.45 -52.4 -178.45 -51.3 -178.45 -50.55 -177.7 L-50.45 -177.5 -50.1 -177.2 Q-50.7 -175.15 -52.15 -174.8 L-52.9 -174.75 Q-54.35 -174.75 -55.0 -176.0 L-54.9 -176.6 M-53.05 -176.85 L-52.15 -174.8 -53.05 -176.85 M-57.1 -158.4 L-54.65 -156.05 -57.1 -158.4 M-50.2 -141.35 L-50.2 -141.75 Q-50.2 -143.1 -49.25 -144.05 -48.35 -144.95 -46.95 -144.95 -45.7 -144.95 -44.8 -144.05 -43.85 -143.1 -43.85 -141.75 L-43.85 -141.15 Q-45.35 -140.0 -46.95 -140.0 L-48.35 -140.05 Q-49.35 -140.15 -49.95 -140.5 L-50.2 -141.35 M-45.9 -142.5 L-48.35 -140.05 -45.9 -142.5" fill="#a1967d" fill-rule="evenodd" stroke="none"/>
      <path d="M-45.9 -150.45 Q-47.4 -149.3 -48.25 -149.3 -48.75 -149.3 -48.75 -149.6 L-48.6 -150.45 -48.65 -150.8 -49.15 -150.8 Q-52.15 -149.25 -55.2 -147.75 L-55.75 -147.75 Q-54.65 -150.15 -52.05 -153.1 L-49.7 -155.8 Q-49.7 -156.15 -50.45 -156.15 L-51.45 -156.15 Q-51.35 -156.8 -52.15 -157.85 L-52.3 -158.1 -52.8 -159.2 -51.45 -160.6 Q-50.0 -161.9 -50.0 -162.2 -50.0 -162.55 -52.4 -164.0 -54.85 -165.5 -54.85 -166.3 -54.85 -167.3 -52.05 -168.15 L-49.35 -168.8 Q-49.85 -166.7 -49.85 -164.35 L-49.85 -163.4 -49.85 -163.05 -49.85 -162.55 Q-49.85 -157.3 -47.55 -153.1 L-45.9 -150.45 M-50.2 -147.1 L-50.0 -147.0 -49.6 -146.5 Q-49.6 -146.05 -50.0 -145.55 -50.55 -145.05 -51.1 -145.05 -51.95 -145.05 -51.95 -145.9 -51.95 -147.15 -51.1 -147.45 L-50.55 -147.25 -50.2 -147.1" fill="#a3571e" fill-rule="evenodd" stroke="none"/>
      <path d="M-49.85 -163.05 L-49.75 -162.55 -49.85 -162.55 -49.85 -163.05 M-30.0 -144.2 L-29.45 -144.55 -28.8 -144.2 -29.8 -144.2 -30.0 -144.2" fill="#a34526" fill-rule="evenodd" stroke="none"/>
      <path d="M-54.4 -136.45 L-56.95 -138.05 Q-58.75 -142.2 -58.15 -147.1 L-56.2 -144.8 -56.2 -144.55 Q-56.25 -140.05 -54.4 -136.45 M-59.4 -168.05 L-60.1 -175.15 -57.45 -171.1 -59.4 -168.05" fill="#521403" fill-rule="evenodd" stroke="none"/>
      <path d="M-29.45 -144.55 L-26.95 -146.4 -23.65 -145.15 -26.7 -143.1 -28.8 -144.2 -29.45 -144.55" fill="#fff5e5" fill-rule="evenodd" stroke="none"/>
      <path d="M-25.6 -186.3 L-24.75 -186.25 Q-19.15 -185.2 -15.0 -182.5 L-15.0 -181.9 -12.5 -179.15 Q-5.1 -170.1 -7.65 -154.85 -8.25 -151.55 -9.35 -147.85 -9.7 -146.6 -10.55 -144.95 -11.45 -143.45 -12.9 -141.5 -18.65 -138.65 -23.7 -136.95 -29.4 -135.15 -34.4 -134.85 L-40.05 -134.5 Q-47.25 -134.5 -54.4 -136.45 L-56.95 -138.05 Q-58.75 -142.2 -58.15 -147.1 L-58.3 -147.25 Q-60.6 -150.3 -61.5 -153.45 L-62.2 -156.55 Q-62.35 -158.5 -62.1 -160.55 -61.6 -164.25 -59.4 -168.05 L-60.1 -175.15 -60.15 -175.25 Q-58.05 -178.7 -53.75 -181.5 L-51.2 -182.6 -47.55 -184.05 Q-43.75 -185.4 -40.05 -186.05 L-39.05 -186.25 Q-32.2 -187.35 -25.6 -186.3 M-29.8 -180.05 Q-23.2 -180.05 -18.65 -175.5 -14.0 -170.85 -14.0 -164.35 -14.0 -157.75 -18.65 -153.2 -23.2 -148.55 -29.8 -148.55 -35.65 -148.55 -40.05 -152.25 L-40.95 -153.2 Q-45.55 -157.75 -45.55 -164.35 -45.55 -170.85 -40.95 -175.5 L-40.05 -176.35 Q-35.65 -180.05 -29.8 -180.05 M-49.35 -168.8 Q-48.85 -171.45 -47.55 -173.7 -46.2 -176.35 -44.0 -178.55 -42.15 -180.4 -40.05 -181.6 -35.5 -184.35 -29.8 -184.35 -21.45 -184.35 -15.6 -178.55 -9.7 -172.6 -9.7 -164.35 L-9.7 -163.4 -9.7 -162.55 Q-9.7 -154.2 -15.6 -148.35 L-17.9 -146.35 Q-23.05 -142.45 -29.8 -142.45 -35.5 -142.45 -40.05 -145.25 L-41.65 -146.35 -44.0 -148.35 -45.9 -150.45 -47.55 -153.1 Q-49.85 -157.3 -49.85 -162.55 L-49.85 -163.05 -49.75 -162.55 Q-49.5 -158.4 -47.55 -154.85 -46.55 -152.9 -44.95 -151.15 L-44.0 -150.15 -41.65 -148.1 -40.05 -147.0 Q-35.55 -144.3 -30.0 -144.2 L-29.8 -144.2 -28.8 -144.2 M-52.3 -158.1 L-52.2 -157.65 -52.2 -157.25 Q-52.2 -155.8 -53.25 -154.8 -54.25 -153.75 -55.7 -153.75 -57.2 -153.75 -58.2 -154.8 -59.25 -155.8 -59.25 -157.25 -59.25 -158.65 -58.2 -159.7 -57.2 -160.7 -55.7 -160.7 -54.25 -160.7 -53.25 -159.7 L-52.8 -159.2 -52.3 -158.1 M-49.35 -168.8 Q-49.85 -166.7 -49.85 -164.35 L-49.85 -163.4 -49.85 -163.05 M-23.65 -145.15 Q-20.5 -146.05 -17.9 -148.1 L-15.6 -150.15 Q-10.35 -155.3 -9.7 -162.55 M-54.9 -176.6 L-54.25 -177.7 Q-53.5 -178.45 -52.4 -178.45 -51.3 -178.45 -50.55 -177.7 L-50.45 -177.5 M-50.1 -177.2 Q-49.75 -176.6 -49.75 -175.85 -49.75 -174.75 -50.55 -173.95 -51.3 -173.2 -52.4 -173.2 -53.5 -173.2 -54.25 -173.95 -55.0 -174.75 -55.0 -175.85 L-55.0 -176.0 M-52.15 -174.8 L-53.05 -176.85 M-59.4 -168.05 L-57.45 -171.1 -60.1 -175.15 M-54.65 -156.05 L-57.1 -158.4 M-50.2 -141.35 L-50.2 -141.75 Q-50.2 -143.1 -49.25 -144.05 -48.35 -144.95 -46.95 -144.95 -45.7 -144.95 -44.8 -144.05 -43.85 -143.1 -43.85 -141.75 L-43.85 -141.15 Q-44.0 -140.25 -44.8 -139.5 -45.7 -138.55 -46.95 -138.55 -48.35 -138.55 -49.25 -139.5 L-49.95 -140.5 M-48.35 -140.05 L-45.9 -142.5 M-56.2 -144.55 L-56.2 -144.8 -58.15 -147.1 M-54.4 -136.45 Q-56.25 -140.05 -56.2 -144.55" fill="none" stroke="#000000" stroke-linecap="round" stroke-linejoin="round" stroke-opacity="0.5019608" stroke-width="0.5"/>
      <path d="M-10.85 -166.45 L-12.25 -164.75 M-59.0 -163.9 Q-57.55 -167.2 -55.35 -169.6 M-54.35 -169.4 L-54.0 -169.75 -53.4 -170.1 M-37.95 -139.75 L-36.3 -138.95 -34.7 -139.5 -34.2 -139.65 -32.75 -140.15 M-37.1 -136.95 L-33.85 -138.05 -36.3 -138.95 -40.05 -137.8 -43.25 -136.6 M-34.2 -139.65 L-31.75 -138.8 -23.65 -141.7 M-31.75 -138.8 L-33.85 -138.05 -30.55 -136.85 M-36.9 -147.1 L-34.55 -146.85" fill="none" stroke="#000000" stroke-linecap="round" stroke-linejoin="round" stroke-opacity="0.5019608" stroke-width="0.30000000000000004"/>
    </g>
    <linearGradient gradientTransform="matrix(-0.0085, 0.0058, -0.0108, -0.0158, -8.35, -163.55)" gradientUnits="userSpaceOnUse" id="gradient0" spreadMethod="pad" x1="-819.2" x2="819.2">
      <stop offset="0.0" stop-color="#a34526"/>
      <stop offset="0.9921568627450981" stop-color="#6e250e"/>
    </linearGradient>
    <radialGradient cx="0" cy="0" gradientTransform="matrix(0.009, 0.0, 0.0, 0.009, -6.15, -182.85)" gradientUnits="userSpaceOnUse" id="gradient1" r="819.2" spreadMethod="pad">
      <stop offset="0.0" stop-color="#ff0000"/>
      <stop offset="1.0" stop-color="#ff4545" stop-opacity="0.0"/>
    </radialGradient>
    <radialGradient cx="0" cy="0" gradientTransform="matrix(0.0046, 0.0, 0.0, 0.0046, -6.25, -183.35)" gradientUnits="userSpaceOnUse" id="gradient2" r="819.2" spreadMethod="pad">
      <stop offset="0.0" stop-color="#ffffff"/>
      <stop offset="1.0" stop-color="#ff4545" stop-opacity="0.0"/>
    </radialGradient>
    <linearGradient gradientTransform="matrix(0.004, 0.0253, -0.0315, 0.005, -34.3, -158.9)" gradientUnits="userSpaceOnUse" id="gradient3" spreadMethod="pad" x1="-819.2" x2="819.2">
      <stop offset="0.0" stop-color="#a34526"/>
      <stop offset="0.9725490196078431" stop-color="#822b10"/>
    </linearGradient>
    <radialGradient cx="0" cy="0" gradientTransform="matrix(0.0224, 0.0, 0.0, 0.0224, -29.75, -164.25)" gradientUnits="userSpaceOnUse" id="gradient4" r="819.2" spreadMethod="pad">
      <stop offset="0.0" stop-color="#00ccff"/>
      <stop offset="0.9882352941176471" stop-color="#ffffff"/>
    </radialGradient>
    <linearGradient gradientTransform="matrix(0.0077, 0.0203, -0.0229, 0.0087, -28.7, -157.75)" gradientUnits="userSpaceOnUse" id="gradient5" spreadMethod="pad" x1="-819.2" x2="819.2">
      <stop offset="0.0" stop-color="#ffaa00"/>
      <stop offset="0.9725490196078431" stop-color="#ff6600"/>
    </linearGradient>
  </defs>
</svg>
