<?xml version="1.0" encoding="UTF-8" standalone="no"?>
<svg xmlns:xlink="http://www.w3.org/1999/xlink" height="531.5px" width="460.6px" xmlns="http://www.w3.org/2000/svg">
  <g transform="matrix(1.0, 0.0, 0.0, 1.0, 193.65, 334.05)">
    <use height="57.1" transform="matrix(1.0, 0.0, 0.0, 1.0, -143.25, -47.35)" width="209.95" xlink:href="#shape0"/>
    <use height="44.15" transform="matrix(1.0, 0.0, 0.0, 1.0, -17.1, -37.95)" width="44.15" xlink:href="#sprite0"/>
    <use height="25.4" transform="matrix(1.0, 0.0, 0.0, 1.0, -10.4, -28.65)" width="32.2" xlink:href="#shape2"/>
  </g>
  <defs>
    <g id="shape0" transform="matrix(1.0, 0.0, 0.0, 1.0, 143.25, 47.35)">
      <path d="M-106.1 -43.45 L-107.4 -34.8 -116.1 -36.1 -114.8 -44.75 -106.1 -43.45" fill="#000000" fill-rule="evenodd" stroke="none"/>
      <path d="M-123.5 -46.05 L-114.8 -44.75 -116.1 -36.1 -124.8 -37.4 -123.5 -46.05" fill="#000000" fill-rule="evenodd" stroke="none"/>
      <path d="M-132.15 -47.35 L-123.45 -46.05 -124.75 -37.4 -133.45 -38.7 -132.15 -47.35" fill="#000000" fill-rule="evenodd" stroke="none"/>
      <path d="M-141.95 -40.1 L-133.25 -38.8 -134.55 -30.15 -143.25 -31.45 -141.95 -40.1" fill="#000000" fill-rule="evenodd" stroke="none"/>
      <path d="M-99.1 -33.55 L-100.4 -24.9 -109.1 -26.2 -107.8 -34.85 -99.1 -33.55" fill="#000000" fill-rule="evenodd" stroke="none"/>
      <path d="M-99.3 -33.55 L-90.6 -32.25 -91.9 -23.6 -100.6 -24.9 -99.3 -33.55" fill="#000000" fill-rule="evenodd" stroke="none"/>
      <path d="M-92.5 -23.85 L-83.8 -22.55 -85.1 -13.9 -93.8 -15.2 -92.5 -23.85" fill="#000000" fill-rule="evenodd" stroke="none"/>
      <path d="M-84.0 -22.55 L-75.3 -21.25 -76.6 -12.6 -85.3 -13.9 -84.0 -22.55" fill="#000000" fill-rule="evenodd" stroke="none"/>
      <path d="M-76.65 -12.6 L-75.35 -21.25 -66.65 -19.95 -67.95 -11.3 -76.65 -12.6" fill="#000000" fill-rule="evenodd" stroke="none"/>
      <path d="M-58.15 -18.65 L-59.45 -10.0 -68.15 -11.3 -66.85 -19.95 -58.15 -18.65" fill="#000000" fill-rule="evenodd" stroke="none"/>
      <path d="M65.4 -21.95 L65.6 -21.2 Q67.5 -13.15 63.5 -5.45 -2.1 -3.6 -67.7 -5.45 -70.45 -12.05 -69.9 -18.4 L-69.65 -20.6 Q-67.6 -18.05 -66.0 -16.85 -62.3 -14.15 -55.85 -14.15 L-29.05 -16.0 9.5 -17.9 Q20.45 -17.9 36.7 -17.15 L52.7 -16.35 53.1 -16.35 Q61.5 -16.35 63.05 -17.15 63.9 -17.55 64.4 -18.4 65.25 -19.7 65.4 -21.95" fill="#453a31" fill-rule="evenodd" stroke="none"/>
      <path d="M-69.65 -20.6 Q-69.1 -23.75 -67.7 -26.9 -1.35 -28.8 63.5 -26.9 64.75 -24.4 65.4 -21.95 65.25 -19.7 64.4 -18.4 63.9 -17.55 63.05 -17.15 61.5 -16.35 53.1 -16.35 L52.7 -16.35 36.7 -17.15 Q20.45 -17.9 9.5 -17.9 L-29.05 -16.0 -55.85 -14.15 Q-62.3 -14.15 -66.0 -16.85 -67.6 -18.05 -69.65 -20.6" fill="#574b42" fill-rule="evenodd" stroke="none"/>
      <path d="M-69.65 -20.6 Q-69.1 -23.75 -67.7 -26.9 -1.35 -28.8 63.5 -26.9 64.75 -24.4 65.4 -21.95 L65.6 -21.2 Q67.5 -13.15 63.5 -5.45 -2.1 -3.6 -67.7 -5.45 -70.45 -12.05 -69.9 -18.4 L-69.65 -20.6 Z" fill="none" stroke="#000000" stroke-linecap="round" stroke-linejoin="round" stroke-opacity="0.44313726" stroke-width="1.0"/>
      <path d="M-25.0 -27.6 L-26.6 -26.65 Q-27.8 -25.8 -28.45 -24.45 L-29.7 -21.4 -30.25 -18.85 -30.2 -17.3 -30.1 -17.15 -29.7 -17.25 -27.8 -18.45 -23.9 -21.45 -21.25 -23.65 -18.95 -25.45 Q-17.9 -26.3 -17.45 -27.5 L-17.75 -28.0 -18.9 -28.35 -20.6 -28.7 -21.6 -28.65 -22.1 -28.6 -25.0 -27.6 M-25.95 -29.5 Q3.8 -32.3 33.6 -29.5 L33.85 -29.5 34.05 -29.5 Q40.2 -24.6 40.4 -17.15 40.2 -8.8 34.05 -3.25 L33.85 -3.25 33.6 -3.2 Q4.0 -0.9 -25.95 -3.2 L-26.45 -3.25 Q-32.6 -8.8 -32.8 -17.15 -32.6 -24.6 -26.45 -29.5 L-25.95 -29.5" fill="#ccc6c1" fill-rule="evenodd" stroke="none"/>
      <path d="M-25.0 -27.6 L-22.1 -28.6 -21.6 -28.65 -20.6 -28.7 -18.9 -28.35 -17.75 -28.0 -17.45 -27.5 Q-17.9 -26.3 -18.95 -25.45 L-21.25 -23.65 -23.9 -21.45 -27.8 -18.45 -29.7 -17.25 -30.1 -17.15 -30.2 -17.3 -30.25 -18.85 -29.7 -21.4 -28.45 -24.45 Q-27.8 -25.8 -26.6 -26.65 L-25.0 -27.6" fill="#f0eeeb" fill-rule="evenodd" stroke="none"/>
      <path d="M-25.95 -29.5 Q3.8 -32.3 33.6 -29.5 L33.85 -29.5 34.05 -29.5 Q40.2 -24.6 40.4 -17.15 40.2 -8.8 34.05 -3.25 L33.85 -3.25 33.6 -3.2 Q4.0 -0.9 -25.95 -3.2 L-26.45 -3.25 Q-32.6 -8.8 -32.8 -17.15 -32.6 -24.6 -26.45 -29.5 L-25.95 -29.5 Z" fill="none" stroke="#000000" stroke-linecap="round" stroke-linejoin="round" stroke-opacity="0.44313726" stroke-width="1.0"/>
      <path d="M5.5 -38.2 Q-3.65 -38.2 -10.1 -31.75 -16.6 -25.25 -16.6 -16.15 -16.6 -7.0 -10.1 -0.55 -3.65 5.95 5.5 5.95 14.6 5.95 21.1 -0.55 27.55 -7.0 27.55 -16.15 27.55 -25.25 21.1 -31.75 14.6 -38.2 5.5 -38.2 M-12.45 -34.1 Q-5.0 -41.55 5.5 -41.55 16.0 -41.55 23.45 -34.1 30.9 -26.65 30.9 -16.15 30.9 -5.65 23.45 1.8 16.0 9.25 5.5 9.25 -5.0 9.25 -12.45 1.8 -19.9 -5.65 -19.9 -16.15 -19.9 -26.65 -12.45 -34.1" fill="url(#gradient0)" fill-rule="evenodd" stroke="none"/>
      <path d="M5.5 -38.2 Q14.6 -38.2 21.1 -31.75 27.55 -25.25 27.55 -16.15 27.55 -7.0 21.1 -0.55 14.6 5.95 5.5 5.95 -3.65 5.95 -10.1 -0.55 -16.6 -7.0 -16.6 -16.15 -16.6 -25.25 -10.1 -31.75 -3.65 -38.2 5.5 -38.2" fill="url(#gradient1)" fill-rule="evenodd" stroke="none"/>
      <path d="M5.5 -38.2 Q14.6 -38.2 21.1 -31.75 27.55 -25.25 27.55 -16.15 27.55 -7.0 21.1 -0.55 14.6 5.95 5.5 5.95 -3.65 5.95 -10.1 -0.55 -16.6 -7.0 -16.6 -16.15 -16.6 -25.25 -10.1 -31.75 -3.65 -38.2 5.5 -38.2 M-12.45 -34.1 Q-5.0 -41.55 5.5 -41.55 16.0 -41.55 23.45 -34.1 30.9 -26.65 30.9 -16.15 30.9 -5.65 23.45 1.8 16.0 9.25 5.5 9.25 -5.0 9.25 -12.45 1.8 -19.9 -5.65 -19.9 -16.15 -19.9 -26.65 -12.45 -34.1" fill="none" stroke="#000000" stroke-linecap="round" stroke-linejoin="round" stroke-opacity="0.44313726" stroke-width="1.0"/>
    </g>
    <linearGradient gradientTransform="matrix(-0.0129, -0.0224, 0.0269, -0.0155, 5.9, -19.35)" gradientUnits="userSpaceOnUse" id="gradient0" spreadMethod="pad" x1="-819.2" x2="819.2">
      <stop offset="0.0" stop-color="#666666"/>
      <stop offset="0.9882352941176471" stop-color="#cccccc"/>
    </linearGradient>
    <radialGradient cx="0" cy="0" fx="41.6" fy="0" gradientTransform="matrix(0.0281, 0.0, 0.0, 0.0281, 0.7, -29.15)" gradientUnits="userSpaceOnUse" id="gradient1" r="819.2" spreadMethod="pad">
      <stop offset="0.0" stop-color="#a0c188"/>
      <stop offset="1.0" stop-color="#559955"/>
    </radialGradient>
    <g id="sprite0" transform="matrix(1.0, 0.0, 0.0, 1.0, 0.0, 0.0)">
      <use height="44.15" transform="matrix(1.0, 0.0, 0.0, 1.0, 0.0, 0.0)" width="44.15" xlink:href="#shape1"/>
    </g>
    <g id="shape1" transform="matrix(1.0, 0.0, 0.0, 1.0, 0.0, 0.0)">
      <path d="M0.0 22.05 Q0.0 12.95 6.5 6.45 12.95 0.0 22.1 0.0 31.2 0.0 37.7 6.45 44.15 12.95 44.15 22.05 44.15 31.2 37.7 37.65 31.2 44.15 22.1 44.15 12.95 44.15 6.5 37.65 0.0 31.2 0.0 22.05" fill="#a0c188" fill-opacity="0.46666667" fill-rule="evenodd" stroke="none"/>
    </g>
    <g id="shape2" transform="matrix(1.0, 0.0, 0.0, 1.0, 10.4, 28.65)">
      <path d="M0.55 -13.95 L-3.15 -14.1 -3.15 -10.65 0.55 -10.55 0.55 -13.95 M14.75 -10.35 L14.75 -13.8 10.9 -13.85 10.9 -10.45 14.75 -10.35 M14.75 -24.65 L18.1 -24.55 18.1 -28.2 21.8 -28.15 21.8 -6.45 18.3 -6.6 18.2 -3.25 -6.5 -3.35 -6.5 -3.5 -6.5 -3.65 -6.5 -6.95 -10.4 -6.95 -10.4 -28.65 -6.6 -28.65 -6.6 -25.0 -3.15 -24.9 -3.15 -21.55 14.75 -21.25 14.75 -24.65" fill="#000000" fill-rule="evenodd" stroke="none"/>
    </g>
  </defs>
</svg>
