<?xml version="1.0" encoding="UTF-8" standalone="no"?>
<svg xmlns:xlink="http://www.w3.org/1999/xlink" height="531.5px" width="460.6px" xmlns="http://www.w3.org/2000/svg">
  <g transform="matrix(1.0, 0.0, 0.0, 1.0, 193.65, 334.05)">
    <use height="120.4" transform="matrix(1.0, 0.0, 0.0, 1.0, -77.0, -296.1)" width="159.9" xlink:href="#shape0"/>
  </g>
  <defs>
    <g id="shape0" transform="matrix(1.0, 0.0, 0.0, 1.0, 77.0, 296.1)">
      <path d="M13.65 -180.6 L14.05 -183.45 19.0 -191.7 19.0 -183.85 26.85 -186.75 26.85 -179.65 29.75 -180.95 28.3 -176.2 Q21.05 -179.4 13.65 -180.6 M-21.15 -181.55 Q-26.15 -180.15 -31.2 -177.8 -32.65 -182.95 -34.5 -188.0 L-28.85 -186.0 -28.85 -192.45 -22.1 -186.65 -21.15 -181.55" fill="#ffd4d4" fill-rule="evenodd" stroke="none"/>
      <path d="M-34.5 -188.0 Q-39.55 -202.1 -47.6 -215.75 -56.8 -232.6 -60.1 -254.25 -61.75 -270.95 -46.25 -256.3 -32.7 -240.95 -22.1 -186.65 L-28.85 -192.45 -28.85 -186.0 -34.5 -188.0" fill="url(#gradient0)" fill-rule="evenodd" stroke="none"/>
      <path d="M-33.2 -176.9 Q-40.35 -197.5 -49.05 -210.6 -51.3 -214.1 -53.7 -217.0 L-53.95 -217.2 Q-64.35 -228.5 -68.85 -242.7 -72.0 -252.6 -71.75 -262.75 L-71.65 -263.95 -73.1 -269.7 Q-73.6 -271.45 -76.5 -276.75 L-73.6 -277.3 Q-71.2 -277.8 -71.2 -278.95 -71.2 -280.45 -72.8 -285.7 L-74.7 -292.05 Q-73.5 -291.9 -70.45 -290.2 -66.85 -288.1 -66.2 -287.85 L-66.2 -291.7 Q-67.0 -294.2 -67.0 -295.6 -63.55 -293.25 -58.4 -285.7 L-54.75 -279.95 Q-46.0 -270.5 -40.35 -258.5 -33.75 -244.4 -28.2 -229.6 -23.45 -217.0 -21.4 -203.8 L-20.35 -196.8 -19.2 -186.95 -18.95 -184.05 -18.8 -182.3 -18.8 -182.2 -20.35 -181.8 -21.15 -181.55 -22.1 -186.65 Q-32.7 -240.95 -46.25 -256.3 -61.75 -270.95 -60.1 -254.25 -56.8 -232.6 -47.6 -215.75 -39.55 -202.1 -34.5 -188.0 -32.65 -182.95 -31.2 -177.8 L-33.2 -176.9" fill="url(#gradient1)" fill-rule="evenodd" stroke="none"/>
      <path d="M39.5 -225.25 L37.65 -226.0 Q34.4 -227.2 27.65 -222.6 25.8 -220.95 24.15 -218.2 17.7 -208.05 14.05 -183.45 L13.65 -180.6 11.4 -181.0 Q16.0 -241.05 44.4 -250.55 58.55 -256.35 77.45 -220.2 79.0 -217.4 79.95 -213.95 82.0 -206.15 82.3 -198.0 L82.4 -194.6 82.4 -193.35 Q82.4 -191.65 81.15 -188.0 79.9 -191.4 79.15 -191.4 79.3 -189.95 78.5 -185.35 L77.4 -178.7 Q76.4 -178.7 73.7 -180.6 L70.45 -182.85 70.3 -182.05 70.65 -180.0 Q66.95 -182.25 64.05 -186.5 63.05 -187.95 61.6 -190.5 54.4 -198.0 47.7 -217.55 L47.6 -217.8 Q45.35 -222.7 39.5 -225.25" fill="url(#gradient2)" fill-rule="evenodd" stroke="none"/>
      <path d="M24.15 -218.2 Q25.8 -220.95 27.65 -222.6 34.4 -227.2 37.65 -226.0 L39.5 -225.25 Q45.35 -222.7 47.6 -217.8 L47.7 -217.55 Q40.85 -211.05 34.75 -195.5 32.15 -189.05 29.75 -180.95 L26.85 -179.65 26.85 -186.75 19.0 -183.85 19.0 -191.7 14.05 -183.45 Q17.7 -208.05 24.15 -218.2" fill="url(#gradient3)" fill-rule="evenodd" stroke="none"/>
      <path d="M39.5 -225.25 Q45.35 -222.7 47.6 -217.8 L47.7 -217.55 Q54.4 -198.0 61.6 -190.5 63.05 -187.95 64.05 -186.5 66.95 -182.25 70.65 -180.0 L70.3 -182.05 70.45 -182.85 73.7 -180.6 Q76.4 -178.7 77.4 -178.7 L78.5 -185.35 Q79.3 -189.95 79.15 -191.4 79.9 -191.4 81.15 -188.0 82.4 -191.65 82.4 -193.35 L82.4 -194.6 82.3 -198.0 Q82.0 -206.15 79.95 -213.95 79.0 -217.4 77.45 -220.2 58.55 -256.35 44.4 -250.55 16.0 -241.05 11.4 -181.0 M47.7 -217.55 Q40.85 -211.05 34.75 -195.5 32.15 -189.05 29.75 -180.95 L28.3 -176.2 M-33.2 -176.9 Q-40.35 -197.5 -49.05 -210.6 -51.3 -214.1 -53.7 -217.0 L-53.95 -217.2 Q-64.35 -228.5 -68.85 -242.7 -72.0 -252.6 -71.75 -262.75 L-71.65 -263.95 -73.1 -269.7 Q-73.6 -271.45 -76.5 -276.75 L-73.6 -277.3 Q-71.2 -277.8 -71.2 -278.95 -71.2 -280.45 -72.8 -285.7 L-74.7 -292.05 Q-73.5 -291.9 -70.45 -290.2 -66.85 -288.1 -66.2 -287.85 L-66.2 -291.7 Q-67.0 -294.2 -67.0 -295.6 -63.55 -293.25 -58.4 -285.7 L-54.75 -279.95 Q-46.0 -270.5 -40.35 -258.5 -33.75 -244.4 -28.2 -229.6 -23.45 -217.0 -21.4 -203.8 L-20.35 -196.8 -19.2 -186.95 -18.95 -184.05 -18.8 -182.3 -18.8 -182.2" fill="none" stroke="#000000" stroke-linecap="round" stroke-linejoin="round" stroke-opacity="0.4" stroke-width="1.0"/>
      <path d="M13.65 -180.6 L14.05 -183.45 Q17.7 -208.05 24.15 -218.2 M-22.1 -186.65 Q-32.7 -240.95 -46.25 -256.3 -61.75 -270.95 -60.1 -254.25 -56.8 -232.6 -47.6 -215.75 -39.55 -202.1 -34.5 -188.0 -32.65 -182.95 -31.2 -177.8 M-22.1 -186.65 L-21.15 -181.55" fill="none" stroke="#000000" stroke-linecap="round" stroke-linejoin="round" stroke-opacity="0.2" stroke-width="1.0"/>
    </g>
    <linearGradient gradientTransform="matrix(0.0137, 0.0297, -0.0427, 0.0198, -38.05, -213.35)" gradientUnits="userSpaceOnUse" id="gradient0" spreadMethod="pad" x1="-819.2" x2="819.2">
      <stop offset="0.0" stop-color="#cfacac"/>
      <stop offset="1.0" stop-color="#a16d6d"/>
    </linearGradient>
    <linearGradient gradientTransform="matrix(0.008, 0.03, -0.07, 0.0188, -25.15, -203.6)" gradientUnits="userSpaceOnUse" id="gradient1" spreadMethod="pad" x1="-819.2" x2="819.2">
      <stop offset="0.0" stop-color="#ffeded"/>
      <stop offset="1.0" stop-color="#bfa7a7"/>
    </linearGradient>
    <linearGradient gradientTransform="matrix(-0.0063, 0.0237, -0.0428, -0.0115, 27.9, -198.95)" gradientUnits="userSpaceOnUse" id="gradient2" spreadMethod="pad" x1="-819.2" x2="819.2">
      <stop offset="0.0" stop-color="#ffeded"/>
      <stop offset="1.0" stop-color="#c9baba"/>
    </linearGradient>
    <linearGradient gradientTransform="matrix(-0.0047, 0.0174, -0.0453, -0.0122, -14.4, -231.85)" gradientUnits="userSpaceOnUse" id="gradient3" spreadMethod="pad" x1="-819.2" x2="819.2">
      <stop offset="0.0" stop-color="#633a3a"/>
      <stop offset="0.9882352941176471" stop-color="#a37070"/>
    </linearGradient>
  </defs>
</svg>
