<?xml version="1.0" encoding="UTF-8" standalone="no"?>
<svg xmlns:xlink="http://www.w3.org/1999/xlink" height="531.5px" width="460.6px" xmlns="http://www.w3.org/2000/svg">
  <g transform="matrix(1.0, 0.0, 0.0, 1.0, 193.65, 334.05)">
    <use height="30.9" transform="matrix(2.0067, 0.0, 0.0, 2.0067, -64.9534, -54.1034)" width="63.25" xlink:href="#sprite0"/>
  </g>
  <defs>
    <g id="sprite0" transform="matrix(1.0, 0.0, 0.0, 1.0, 0.5, 0.5)">
      <use height="30.9" transform="matrix(1.0, 0.0, 0.0, 1.0, -0.5, -0.5)" width="63.25" xlink:href="#shape0"/>
    </g>
    <g id="shape0" transform="matrix(1.0, 0.0, 0.0, 1.0, 0.5, 0.5)">
      <path d="M54.25 17.9 L53.1 16.9 Q47.95 18.35 42.5 19.45 L42.25 21.35 M33.3 18.8 L34.25 20.75 42.5 19.45 42.75 17.4 M58.5 14.0 L58.55 15.15 62.25 13.75 M58.55 15.15 L58.65 16.9 M51.4 15.4 L53.1 16.9 58.55 15.15 M49.1 18.4 L52.75 20.7 53.0 18.65 M55.4 25.0 L56.05 22.8 52.75 20.7 52.4 22.9 M56.4 21.5 L56.05 22.8 59.7 25.1 60.25 24.0 M60.9 25.85 L59.7 25.1 58.65 27.15 M24.75 0.0 L23.3 2.95 24.75 4.5 M19.65 6.0 L21.35 6.2 23.3 2.95 21.75 1.25 M23.4 6.4 L21.35 6.2 17.15 11.45 19.6 13.5 20.9 12.15 M24.15 16.0 L23.1 16.85 27.15 21.5 34.25 20.75 34.75 21.75 M22.25 17.5 L23.1 16.85 19.6 13.5 18.5 14.65 M19.1 20.1 L18.55 21.9 22.45 21.8 22.4 20.3 M27.15 21.5 L22.45 21.8 22.5 23.9 M17.15 11.45 L15.0 9.75 14.65 11.25 M15.4 7.9 L15.0 9.75 Q12.15 7.6 9.05 5.6 L7.9 7.0 M4.15 5.0 L4.45 2.85 Q2.5 1.75 0.5 0.75 M4.65 1.25 L4.45 2.85 9.05 5.6 10.25 4.15 M0.0 21.4 L1.65 21.55 1.25 19.25 M6.65 23.5 L7.6 21.85 1.65 21.55 2.0 23.4 M7.6 21.85 L8.75 19.75 M18.05 23.4 L18.55 21.9 14.4 21.95 13.5 24.8 15.25 25.65 M7.6 21.85 L14.4 21.95 M14.65 28.65 L12.25 28.5 11.8 29.9 M10.5 28.4 L12.25 28.5 13.5 24.8 11.75 24.0" fill="none" stroke="#000000" stroke-linecap="round" stroke-linejoin="round" stroke-opacity="0.7529412" stroke-width="1.0"/>
    </g>
  </defs>
</svg>
