<?xml version="1.0" encoding="UTF-8" standalone="no"?>
<svg xmlns:xlink="http://www.w3.org/1999/xlink" height="531.5px" width="460.6px" xmlns="http://www.w3.org/2000/svg">
  <g transform="matrix(1.0, 0.0, 0.0, 1.0, 193.65, 334.05)">
    <use height="41.6" transform="matrix(1.0657, 0.0, 0.0, 1.0657, -10.559, -195.2673)" width="30.7" xlink:href="#shape0"/>
  </g>
  <defs>
    <g id="shape0" transform="matrix(1.0, 0.0, 0.0, 1.0, 15.35, 20.8)">
      <path d="M2.25 15.05 L2.35 14.9 4.75 10.4 Q6.15 7.1 6.85 3.8 7.85 -1.35 6.95 -6.45 6.0 -11.25 3.4 -15.9 L2.55 -17.45 2.35 -17.8 Q0.4 -20.55 -1.9 -17.8 L-4.55 -12.95 Q-7.6 -6.2 -7.2 0.55 -6.85 5.65 -4.35 10.85 L-1.9 15.25 Q0.35 17.85 2.25 15.05 M3.75 -18.65 Q18.6 -1.45 3.5 16.0 L3.35 16.2 Q0.4 19.3 -2.95 16.35 -19.3 -1.3 -2.95 -19.0 0.5 -22.05 3.5 -19.0 L3.75 -18.65" fill="#999999" fill-rule="evenodd" stroke="none"/>
      <path d="M2.55 -17.45 L3.4 -15.9 Q6.0 -11.25 6.95 -6.45 7.85 -1.35 6.85 3.8 6.15 7.1 4.75 10.4 L2.35 14.9 2.25 15.05 0.35 15.4 -1.9 15.25 -4.35 10.85 Q-6.85 5.65 -7.2 0.55 -7.6 -6.2 -4.55 -12.95 L-1.9 -17.8 Q0.5 -18.4 2.55 -17.45 M1.3 -15.1 L3.4 -15.9 1.3 -15.1 M2.4 -1.95 Q2.35 -3.65 1.75 -4.95 L1.25 -6.0 0.45 -6.5 Q-0.3 -6.5 -0.9 -5.3 L-1.1 -4.95 Q-1.5 -3.85 -1.55 -2.4 L-1.65 -1.4 -1.55 -0.35 Q-1.5 1.1 -1.1 2.2 L-0.9 2.55 Q-0.3 3.7 0.45 3.7 0.9 3.7 1.25 3.25 L1.75 2.2 Q2.35 0.9 2.4 -0.85 L2.4 -1.95 M6.85 3.8 L4.5 3.05 6.85 3.8 M2.0 9.25 L4.75 10.4 2.0 9.25 M6.95 -6.45 L4.5 -5.95 6.95 -6.45 M-2.5 9.8 L-4.35 10.85 -2.5 9.8 M-4.55 0.55 L-7.2 0.55 -4.55 0.55 M-1.2 -11.65 L-4.55 -12.95 -1.2 -11.65 M-0.1 13.85 L0.35 15.4 -0.1 13.85" fill="url(#gradient0)" fill-rule="evenodd" stroke="none"/>
      <path d="M2.25 15.05 Q0.35 17.85 -1.9 15.25 L0.35 15.4 2.25 15.05 M-1.9 -17.8 Q0.4 -20.55 2.35 -17.8 L2.55 -17.45 Q0.5 -18.4 -1.9 -17.8" fill="#990000" fill-rule="evenodd" stroke="none"/>
      <path d="M2.4 -1.95 L2.4 -0.85 Q2.35 0.9 1.75 2.2 L1.25 3.25 Q0.9 3.7 0.45 3.7 -0.3 3.7 -0.9 2.55 L-1.1 2.2 Q-1.5 1.1 -1.55 -0.35 L-1.65 -1.4 -1.55 -2.4 Q-1.5 -3.85 -1.1 -4.95 L-0.9 -5.3 Q-0.3 -6.5 0.45 -6.5 L1.25 -6.0 1.75 -4.95 Q2.35 -3.65 2.4 -1.95" fill="#ff0000" fill-rule="evenodd" stroke="none"/>
      <path d="M2.55 -17.45 L3.4 -15.9 Q6.0 -11.25 6.95 -6.45 7.85 -1.35 6.85 3.8 6.15 7.1 4.75 10.4 L2.35 14.9 2.25 15.05 Q0.35 17.85 -1.9 15.25 L-4.35 10.85 Q-6.85 5.65 -7.2 0.55 -7.6 -6.2 -4.55 -12.95 L-1.9 -17.8 Q0.4 -20.55 2.35 -17.8 L2.55 -17.45 Q0.5 -18.4 -1.9 -17.8 M3.75 -18.65 Q18.6 -1.45 3.5 16.0 L3.35 16.2 Q0.4 19.3 -2.95 16.35 -19.3 -1.3 -2.95 -19.0 0.5 -22.05 3.5 -19.0 L3.75 -18.65 M0.35 15.4 L2.25 15.05 M-1.9 15.25 L0.35 15.4" fill="none" stroke="#000000" stroke-linecap="round" stroke-linejoin="round" stroke-opacity="0.4" stroke-width="0.5"/>
      <path d="M3.4 -15.9 L1.3 -15.1 M4.5 -5.95 L6.95 -6.45 M4.75 10.4 L2.0 9.25 M4.5 3.05 L6.85 3.8 M-4.55 -12.95 L-1.2 -11.65 M-7.2 0.55 L-4.55 0.55 M-4.35 10.85 L-2.5 9.8 M0.35 15.4 L-0.1 13.85" fill="none" stroke="#e50000" stroke-linecap="round" stroke-linejoin="round" stroke-opacity="0.2" stroke-width="0.30000000000000004"/>
      <path d="M14.35 -5.1 Q16.5 -0.65 12.95 5.9 M-14.35 -5.1 Q-16.5 -0.65 -12.95 5.9 M-2.75 19.3 Q0.15 21.9 3.45 19.3" fill="none" stroke="#000000" stroke-linecap="round" stroke-linejoin="round" stroke-opacity="0.2509804" stroke-width="0.4"/>
    </g>
    <radialGradient cx="0" cy="0" gradientTransform="matrix(0.018, 0.0, 0.0, 0.0246, 0.05, -1.3)" gradientUnits="userSpaceOnUse" id="gradient0" r="819.2" spreadMethod="pad">
      <stop offset="0.0" stop-color="#ffffcc"/>
      <stop offset="0.4588235294117647" stop-color="#f8f8c3"/>
      <stop offset="0.9607843137254902" stop-color="#9e9e5e"/>
    </radialGradient>
  </defs>
</svg>
