<?xml version="1.0" encoding="UTF-8" standalone="no"?>
<svg xmlns:xlink="http://www.w3.org/1999/xlink" height="531.5px" width="460.6px" xmlns="http://www.w3.org/2000/svg">
  <g transform="matrix(1.0, 0.0, 0.0, 1.0, 193.65, 334.05)">
    <use height="22.7" transform="matrix(1.665, 0.0, 0.0, 1.665, -87.0663, -181.8837)" width="91.05" xlink:href="#shape0"/>
    <use height="22.2" transform="matrix(1.665, 0.0294, 0.0, 1.665, -86.65, -182.3)" width="90.55" xlink:href="#sprite0"/>
  </g>
  <defs>
    <g id="shape0" transform="matrix(1.0, 0.0, 0.0, 1.0, 0.25, -0.25)">
      <path d="M84.1 8.0 L85.3 9.15 Q86.45 10.75 86.05 12.5 85.4 14.55 84.0 16.05 82.3 17.55 80.4 18.55 78.5 19.5 76.25 19.9 73.9 20.1 71.45 19.3 69.85 18.75 68.35 17.85 L67.0 16.9 Q64.95 15.3 63.3 13.05 61.5 10.5 63.05 8.3 64.55 6.3 66.6 5.4 68.55 4.65 70.65 4.2 L75.05 3.9 79.65 5.3 Q82.0 6.3 84.1 8.0" fill="url(#gradient0)" fill-rule="evenodd" stroke="none"/>
      <path d="M84.1 8.0 Q82.0 6.3 79.65 5.3 L75.05 3.9 70.65 4.2 Q68.55 4.65 66.6 5.4 64.55 6.3 63.05 8.3 61.5 10.5 63.3 13.05 64.95 15.3 67.0 16.9 L68.35 17.85 Q69.85 18.75 71.45 19.3 73.9 20.1 76.25 19.9 78.5 19.5 80.4 18.55 82.3 17.55 84.0 16.05 85.4 14.55 86.05 12.5 86.45 10.75 85.3 9.15 L84.1 8.0 M15.75 8.9 L19.35 7.9 22.55 4.75 Q25.6 2.05 29.5 1.15 L38.5 0.8 Q43.35 1.5 47.5 3.3 51.65 5.15 53.8 7.0 56.45 6.45 59.4 7.4 59.95 5.5 63.5 3.75 L66.25 2.65 Q68.9 1.85 71.65 1.9 78.3 2.0 83.5 4.9 85.55 6.0 87.15 7.4 L89.6 7.55 90.15 8.2 90.45 8.8 90.55 9.55 90.55 10.5 90.2 11.55 88.95 11.85 Q87.3 16.8 83.45 19.8 79.55 22.75 74.8 22.6 72.1 22.1 69.5 21.0 L68.75 20.65 Q63.65 18.15 59.9 14.05 L58.8 12.45 Q56.95 11.45 55.1 12.4 L49.45 17.35 Q45.8 20.6 41.05 22.0 38.1 23.0 35.15 22.6 31.4 22.0 28.2 20.3 24.15 18.25 20.4 15.05 L18.9 13.45 15.75 12.7 15.75 8.9 15.75 12.7 4.95 14.3 Q1.2 16.8 1.65 20.0 0.7 20.2 0.05 19.45 -0.35 15.15 3.55 12.0 L15.75 8.9 M49.55 8.15 Q47.45 6.0 44.8 4.95 42.25 4.1 39.55 3.55 L34.05 3.05 Q31.35 3.45 28.7 4.35 25.9 5.3 23.6 7.05 L22.35 8.2 Q21.15 9.8 21.9 11.65 23.05 13.85 25.05 15.45 27.4 17.15 29.9 18.25 32.35 19.35 35.25 19.85 L41.0 19.4 Q43.75 18.65 46.15 17.05 48.4 15.45 50.05 13.15 51.85 10.55 49.55 8.15" fill="#00ff99" fill-rule="evenodd" stroke="none"/>
      <path d="M49.55 8.15 Q51.85 10.55 50.05 13.15 48.4 15.45 46.15 17.05 43.75 18.65 41.0 19.4 L35.25 19.85 Q32.35 19.35 29.9 18.25 27.4 17.15 25.05 15.45 23.05 13.85 21.9 11.65 21.15 9.8 22.35 8.2 L23.6 7.05 Q25.9 5.3 28.7 4.35 31.35 3.45 34.05 3.05 L39.55 3.55 Q42.25 4.1 44.8 4.95 47.45 6.0 49.55 8.15" fill="url(#gradient1)" fill-rule="evenodd" stroke="none"/>
      <path d="M84.1 8.0 Q82.0 6.3 79.65 5.3 L75.05 3.9 70.65 4.2 Q68.55 4.65 66.6 5.4 64.55 6.3 63.05 8.3 61.5 10.5 63.3 13.05 64.95 15.3 67.0 16.9 L68.35 17.85 Q69.85 18.75 71.45 19.3 73.9 20.1 76.25 19.9 78.5 19.5 80.4 18.55 82.3 17.55 84.0 16.05 85.4 14.55 86.05 12.5 86.45 10.75 85.3 9.15 L84.1 8.0 M15.75 12.7 L18.9 13.45 20.4 15.05 Q24.15 18.25 28.2 20.3 31.4 22.0 35.15 22.6 38.1 23.0 41.05 22.0 45.8 20.6 49.45 17.35 L55.1 12.4 Q56.95 11.45 58.8 12.45 L59.9 14.05 Q63.65 18.15 68.75 20.65 L69.5 21.0 Q72.1 22.1 74.8 22.6 79.55 22.75 83.45 19.8 87.3 16.8 88.95 11.85 L90.2 11.55 90.55 10.5 90.55 9.55 90.45 8.8 90.15 8.2 89.6 7.55 87.15 7.4 Q85.55 6.0 83.5 4.9 78.3 2.0 71.65 1.9 68.9 1.85 66.25 2.65 L63.5 3.75 Q59.95 5.5 59.4 7.4 56.45 6.45 53.8 7.0 51.65 5.15 47.5 3.3 43.35 1.5 38.5 0.8 L29.5 1.15 Q25.6 2.05 22.55 4.75 L19.35 7.9 15.75 8.9 15.75 12.7 4.95 14.3 Q1.2 16.8 1.65 20.0 0.7 20.2 0.05 19.45 -0.35 15.15 3.55 12.0 L15.75 8.9 M49.55 8.15 Q51.85 10.55 50.05 13.15 48.4 15.45 46.15 17.05 43.75 18.65 41.0 19.4 L35.25 19.85 Q32.35 19.35 29.9 18.25 27.4 17.15 25.05 15.45 23.05 13.85 21.9 11.65 21.15 9.8 22.35 8.2 L23.6 7.05 Q25.9 5.3 28.7 4.35 31.35 3.45 34.05 3.05 L39.55 3.55 Q42.25 4.1 44.8 4.95 47.45 6.0 49.55 8.15" fill="none" stroke="#000000" stroke-linecap="round" stroke-linejoin="round" stroke-opacity="0.4" stroke-width="0.5"/>
    </g>
    <linearGradient gradientTransform="matrix(0.005, -0.0085, 0.0085, 0.0051, 74.25, 11.95)" gradientUnits="userSpaceOnUse" id="gradient0" spreadMethod="pad" x1="-819.2" x2="819.2">
      <stop offset="0.011764705882352941" stop-color="#302e44"/>
      <stop offset="1.0" stop-color="#706f77"/>
    </linearGradient>
    <linearGradient gradientTransform="matrix(0.0058, -0.0057, 0.0073, 0.0074, 36.2, 11.5)" gradientUnits="userSpaceOnUse" id="gradient1" spreadMethod="pad" x1="-819.2" x2="819.2">
      <stop offset="0.011764705882352941" stop-color="#302e44"/>
      <stop offset="1.0" stop-color="#706f77"/>
    </linearGradient>
    <g id="sprite0" transform="matrix(1.0, 0.0, 0.0, 1.0, 0.0, 0.0)">
      <use height="22.2" transform="matrix(1.0, 0.0, 0.0, 1.0, 0.0, 0.0)" width="90.55" xlink:href="#shape1"/>
    </g>
    <g id="shape1" transform="matrix(1.0, 0.0, 0.0, 1.0, 0.0, 0.0)">
      <path d="M87.15 6.0 L89.6 6.1 90.15 6.75 90.45 7.35 90.55 8.1 90.55 9.05 90.2 10.1 88.95 10.4 Q87.3 15.4 83.45 18.45 79.55 21.5 74.8 21.4 72.1 20.95 69.5 19.9 63.95 17.45 59.9 13.15 L58.8 11.55 Q56.95 10.6 55.1 11.55 L49.45 16.6 Q45.8 19.9 41.05 21.4 38.1 22.45 35.15 22.1 31.4 21.6 28.2 19.95 24.15 17.95 20.4 14.8 L18.9 13.25 15.75 12.55 4.95 14.35 Q1.2 16.9 1.65 20.1 0.7 20.3 0.05 19.6 -0.35 15.3 3.55 12.05 L19.35 7.7 22.55 4.5 Q25.6 1.75 29.5 0.75 33.65 -0.4 38.5 0.25 43.35 0.85 47.5 2.6 51.65 4.35 53.8 6.2 L59.4 6.5 Q59.95 4.6 63.5 2.75 67.45 0.75 71.65 0.75 78.3 0.75 83.5 3.55 85.55 4.6 87.15 6.0 M84.1 6.65 Q82.0 5.0 79.65 4.05 L75.05 2.7 70.65 3.1 Q68.55 3.55 66.6 4.35 64.55 5.3 63.05 7.3 61.5 9.55 63.3 12.05 64.95 14.3 67.0 15.85 69.15 17.4 71.45 18.15 73.9 18.95 76.25 18.7 78.5 18.25 80.4 17.25 82.3 16.25 84.0 14.7 85.4 13.2 86.05 11.1 86.45 9.35 85.3 7.8 L84.1 6.65 M49.55 7.4 Q47.45 5.3 44.8 4.3 42.25 3.5 39.55 3.0 L34.05 2.6 Q31.35 3.05 28.7 4.0 25.9 5.0 23.6 6.75 L22.35 7.95 Q21.15 9.55 21.9 11.4 23.05 13.6 25.05 15.15 27.4 16.8 29.9 17.85 32.35 18.9 35.25 19.35 38.15 19.65 41.0 18.8 43.75 18.0 46.15 16.35 48.4 14.75 50.05 12.4 51.85 9.75 49.55 7.4" fill="#00cc33" fill-rule="evenodd" stroke="none"/>
    </g>
  </defs>
</svg>
