<?xml version="1.0" encoding="UTF-8" standalone="no"?>
<svg xmlns:xlink="http://www.w3.org/1999/xlink" height="531.5px" width="460.6px" xmlns="http://www.w3.org/2000/svg">
  <g transform="matrix(1.0, 0.0, 0.0, 1.0, 193.65, 334.05)">
    <use height="69.65" transform="matrix(1.0, 0.0, 0.0, 1.0, -30.5, -60.6)" width="119.55" xlink:href="#shape0"/>
  </g>
  <defs>
    <g id="shape0" transform="matrix(1.0, 0.0, 0.0, 1.0, 30.5, 60.6)">
      <path d="M54.3 -57.0 L60.55 -60.1 61.95 -60.1 61.95 -57.9 Q60.7 -54.6 56.7 -50.0 L54.6 -47.7 53.6 -47.7 Q50.0 -51.55 50.75 -53.65 L51.5 -55.75 54.3 -57.0 M50.2 -38.75 Q48.75 -36.35 46.65 -34.75 45.0 -33.5 42.85 -32.65 41.8 -34.6 41.55 -36.0 L41.5 -39.55 Q41.5 -42.05 42.5 -42.7 42.9 -43.1 44.35 -43.2 L46.0 -43.3 49.0 -42.55 51.5 -41.55 50.2 -38.75 M81.35 -30.4 Q83.15 -30.1 85.3 -28.65 87.55 -27.05 88.55 -25.75 L84.8 -23.55 83.45 -22.95 83.7 -24.9 Q83.7 -28.55 81.35 -30.4" fill="#e8dbc0" fill-rule="evenodd" stroke="none"/>
      <path d="M37.3 -50.75 L43.9 -54.4 Q51.35 -58.35 52.0 -58.35 53.35 -58.35 54.3 -57.0 L51.5 -55.75 50.75 -53.65 Q50.0 -51.55 53.6 -47.7 L54.6 -47.7 56.7 -50.0 56.95 -47.65 Q56.95 -44.95 53.55 -41.35 L53.1 -40.95 45.4 -46.55 Q41.05 -49.8 37.3 -50.75" fill="#7eab7e" fill-rule="evenodd" stroke="none"/>
      <path d="M3.85 -2.4 L-1.3 -1.8 -11.95 -0.5 -15.35 -4.5 -23.65 -13.8 -20.45 -27.4 -17.3 -40.95 Q-13.1 -43.3 -9.0 -45.7 L2.35 -52.4 Q7.7 -49.55 13.0 -46.8 L15.4 -42.8 13.65 -41.55 Q10.95 -43.1 8.05 -44.45 L6.55 -45.2 1.95 -47.4 Q-6.25 -43.3 -12.85 -35.2 L-16.55 -30.15 Q-22.45 -16.6 -15.05 -10.2 -6.1 -5.35 3.85 -2.4 M10.4 -46.4 L6.55 -45.2 10.4 -46.4" fill="#3b0707" fill-rule="evenodd" stroke="none"/>
      <path d="M-12.85 -35.2 Q-6.25 -43.3 1.95 -47.4 L6.55 -45.2 8.05 -44.45 Q10.95 -43.1 13.65 -41.55 3.95 -33.95 1.0 -25.8 L0.2 -26.3 -8.6 -32.15 Q-3.9 -41.6 6.55 -45.2 -3.9 -41.6 -8.6 -32.15 L-12.85 -35.2 M25.75 -39.05 L26.1 -39.2 29.55 -40.45 35.65 -42.7 Q40.75 -44.65 41.3 -44.65 43.1 -44.65 44.35 -43.2 42.9 -43.1 42.5 -42.7 41.5 -42.05 41.5 -39.55 L41.55 -36.0 Q41.8 -34.6 42.85 -32.65 45.0 -33.5 46.65 -34.75 L46.4 -32.75 51.1 -30.6 54.45 -28.25 Q56.35 -26.9 57.7 -26.9 58.55 -26.9 63.65 -29.6 68.75 -32.35 74.35 -32.35 79.1 -32.35 81.35 -30.4 83.7 -28.55 83.7 -24.9 L83.45 -22.95 Q82.9 -21.3 81.1 -20.15 75.35 -25.5 71.0 -25.5 L64.4 -24.05 Q59.4 -22.7 57.9 -22.7 56.05 -22.7 53.7 -23.75 L49.35 -25.75 43.15 -28.15 42.75 -28.3 41.15 -27.5 40.3 -29.15 Q38.75 -31.75 36.15 -34.1 31.45 -38.35 25.75 -39.05 M34.65 -22.3 L37.8 -20.55 Q42.85 -18.7 42.85 -10.7 L42.6 -7.65 41.65 -5.35 41.55 -5.15 40.15 -7.9 Q37.8 -11.95 35.55 -13.0 L31.85 -12.7 Q26.1 -12.7 17.0 -16.85 18.5 -19.15 19.35 -19.95 L22.45 -24.3 Q24.2 -26.75 25.6 -26.75 26.7 -26.75 30.85 -24.4 L31.8 -23.9 34.65 -22.3 M42.75 -28.3 L44.15 -29.35 Q45.85 -30.75 46.4 -32.75 45.85 -30.75 44.15 -29.35 L42.75 -28.3" fill="url(#gradient0)" fill-rule="evenodd" stroke="none"/>
      <path d="M26.1 -39.2 L25.95 -41.85 Q25.85 -44.7 26.7 -45.45 27.55 -46.15 30.1 -47.2 L36.15 -50.05 37.3 -50.75 Q41.05 -49.8 45.4 -46.55 L53.1 -40.95 50.2 -38.75 51.5 -41.55 49.0 -42.55 46.0 -43.3 44.35 -43.2 Q43.1 -44.65 41.3 -44.65 40.75 -44.65 35.65 -42.7 L29.55 -40.45 26.1 -39.2" fill="#588758" fill-rule="evenodd" stroke="none"/>
      <path d="M3.85 -2.4 Q-6.1 -5.35 -15.05 -10.2 -22.45 -16.6 -16.55 -30.15 L-12.85 -35.2 -8.6 -32.15 0.2 -26.3 1.0 -25.8 Q3.95 -33.95 13.65 -41.55 L17.5 -39.35 18.15 -38.95 21.1 -37.1 23.5 -38.2 25.75 -39.05 Q31.45 -38.35 36.15 -34.1 38.75 -31.75 40.3 -29.15 L41.15 -27.5 42.75 -28.3 43.15 -28.15 49.35 -25.75 53.7 -23.75 Q56.05 -22.7 57.9 -22.7 59.4 -22.7 64.4 -24.05 L71.0 -25.5 Q75.35 -25.5 81.1 -20.15 L79.7 -19.4 71.15 -16.85 Q66.25 -15.3 63.75 -13.8 60.8 -12.2 58.05 -9.35 57.2 -8.6 56.35 -6.85 L54.8 -3.6 Q54.1 -2.4 52.0 -1.4 49.85 -0.3 49.45 0.7 45.6 8.55 38.8 8.55 L35.8 8.05 32.8 6.2 29.7 5.55 Q27.35 5.3 26.1 4.7 20.5 2.05 20.0 1.6 L19.35 0.75 Q11.3 -0.3 3.85 -2.4 M34.65 -22.3 L35.15 -25.4 Q38.8 -26.4 41.15 -27.5 38.8 -26.4 35.15 -25.4 L34.65 -22.3 31.8 -23.9 30.85 -24.4 Q26.7 -26.75 25.6 -26.75 24.2 -26.75 22.45 -24.3 L19.35 -19.95 Q18.5 -19.15 17.0 -16.85 26.1 -12.7 31.85 -12.7 L35.55 -13.0 Q37.8 -11.95 40.15 -7.9 L41.55 -5.15 Q40.15 -2.4 37.55 -2.4 L37.4 -2.4 39.5 -0.75 Q42.0 1.0 44.0 1.25 L44.15 -0.5 Q44.15 -3.05 43.4 -5.4 L42.6 -7.65 42.85 -10.7 Q42.85 -18.7 37.8 -20.55 L34.65 -22.3 M25.85 -7.65 L28.2 -9.6 Q29.35 -8.6 30.7 -6.4 33.05 -2.5 37.4 -2.4 33.05 -2.5 30.7 -6.4 29.35 -8.6 28.2 -9.6 L25.85 -7.65 M16.8 -3.75 Q16.4 -5.5 14.75 -7.35 13.15 -9.0 13.15 -10.5 13.15 -11.25 15.8 -15.3 L17.0 -16.85 15.8 -15.3 Q13.15 -11.25 13.15 -10.5 13.15 -9.0 14.75 -7.35 16.4 -5.5 16.8 -3.75 M16.8 -8.75 Q17.25 -2.25 19.35 0.75 17.25 -2.25 16.8 -8.75 M19.25 -20.7 L19.35 -23.75 Q19.35 -25.65 18.6 -29.75 17.75 -33.85 17.75 -35.45 17.75 -35.85 21.1 -37.1 17.75 -35.85 17.75 -35.45 17.75 -33.85 18.6 -29.75 19.35 -25.65 19.35 -23.75 L19.25 -20.7 M-0.15 -16.3 Q-0.75 -21.15 1.0 -25.8 -0.75 -21.15 -0.15 -16.3 M-12.25 -19.05 Q-11.45 -26.65 -8.6 -32.15 -11.45 -26.65 -12.25 -19.05" fill="url(#gradient1)" fill-rule="evenodd" stroke="none"/>
      <path d="M42.6 -7.65 L43.4 -5.4 Q44.15 -3.05 44.15 -0.5 L44.0 1.25 Q42.0 1.0 39.5 -0.75 L37.4 -2.4 37.55 -2.4 Q40.15 -2.4 41.55 -5.15 L41.65 -5.35 42.6 -7.65" fill="#c2b7a1" fill-rule="evenodd" stroke="none"/>
      <path d="M13.65 -41.55 L15.4 -42.8 13.0 -46.8 Q7.7 -49.55 2.35 -52.4 L-9.0 -45.7 Q-13.1 -43.3 -17.3 -40.95 L-20.45 -27.4 -23.65 -13.8 -15.35 -4.5 -11.95 -0.5 -1.3 -1.8 3.85 -2.4 Q-6.1 -5.35 -15.05 -10.2 M1.95 -47.4 L6.55 -45.2 10.4 -46.4 M-9.0 -45.7 L-13.25 -53.75 M13.65 -41.55 Q10.95 -43.1 8.05 -44.45 L6.55 -45.2 Q-3.9 -41.6 -8.6 -32.15 -11.45 -26.65 -12.25 -19.05 M1.0 -25.8 Q3.95 -33.95 13.65 -41.55 L17.5 -39.35 15.4 -42.8 17.0 -44.05 M17.5 -39.35 L18.15 -38.95 21.1 -37.1 23.5 -38.2 25.75 -39.05 26.1 -39.2 25.95 -41.85 Q25.85 -44.7 26.7 -45.45 27.55 -46.15 30.1 -47.2 L36.15 -50.05 37.3 -50.75 43.9 -54.4 Q51.35 -58.35 52.0 -58.35 53.35 -58.35 54.3 -57.0 L60.55 -60.1 61.95 -60.1 61.95 -57.9 Q60.7 -54.6 56.7 -50.0 L56.95 -47.65 Q56.95 -44.95 53.55 -41.35 L53.1 -40.95 50.2 -38.75 Q48.75 -36.35 46.65 -34.75 L46.4 -32.75 51.1 -30.6 54.45 -28.25 Q56.35 -26.9 57.7 -26.9 58.55 -26.9 63.65 -29.6 68.75 -32.35 74.35 -32.35 79.1 -32.35 81.35 -30.4 83.15 -30.1 85.3 -28.65 87.55 -27.05 88.55 -25.75 L84.8 -23.55 83.45 -22.95 Q82.9 -21.3 81.1 -20.15 L79.7 -19.4 71.15 -16.85 Q66.25 -15.3 63.75 -13.8 60.8 -12.2 58.05 -9.35 57.2 -8.6 56.35 -6.85 L54.8 -3.6 Q54.1 -2.4 52.0 -1.4 49.85 -0.3 49.45 0.7 45.6 8.55 38.8 8.55 L35.8 8.05 32.8 6.2 29.7 5.55 Q27.35 5.3 26.1 4.7 20.5 2.05 20.0 1.6 L19.35 0.75 Q11.3 -0.3 3.85 -2.4 M44.35 -43.2 Q43.1 -44.65 41.3 -44.65 40.75 -44.65 35.65 -42.7 L29.55 -40.45 26.1 -39.2 M56.7 -50.0 L54.6 -47.7 53.6 -47.7 Q50.0 -51.55 50.75 -53.65 L51.5 -55.75 54.3 -57.0 M44.35 -43.2 Q42.9 -43.1 42.5 -42.7 41.5 -42.05 41.5 -39.55 L41.55 -36.0 Q41.8 -34.6 42.85 -32.65 45.0 -33.5 46.65 -34.75 M50.2 -38.75 L51.5 -41.55 49.0 -42.55 46.0 -43.3 44.35 -43.2 M83.45 -22.95 L83.7 -24.9 Q83.7 -28.55 81.35 -30.4 M42.75 -28.3 L41.15 -27.5 Q38.8 -26.4 35.15 -25.4 L34.65 -22.3 37.8 -20.55 Q42.85 -18.7 42.85 -10.7 L42.6 -7.65 43.4 -5.4 Q44.15 -3.05 44.15 -0.5 L44.0 1.25 Q42.0 1.0 39.5 -0.75 L37.4 -2.4 Q33.05 -2.5 30.7 -6.4 29.35 -8.6 28.2 -9.6 L25.85 -7.65 M46.4 -32.75 Q45.85 -30.75 44.15 -29.35 L42.75 -28.3 M42.6 -7.65 L41.65 -5.35 41.55 -5.15 Q40.15 -2.4 37.55 -2.4 L37.4 -2.4 M17.0 -16.85 L15.8 -15.3 Q13.15 -11.25 13.15 -10.5 13.15 -9.0 14.75 -7.35 16.4 -5.5 16.8 -3.75 M17.0 -16.85 Q18.5 -19.15 19.35 -19.95 L22.45 -24.3 Q24.2 -26.75 25.6 -26.75 26.7 -26.75 30.85 -24.4 L31.8 -23.9 34.65 -22.3 M21.1 -37.1 Q17.75 -35.85 17.75 -35.45 17.75 -33.85 18.6 -29.75 19.35 -25.65 19.35 -23.75 L19.25 -20.7 M19.35 0.75 Q17.25 -2.25 16.8 -8.75 M1.0 -25.8 Q-0.75 -21.15 -0.15 -16.3 M-20.45 -27.4 L-30.0 -27.4 M-15.35 -4.5 L-19.2 -1.05 M-1.3 -1.8 L0.6 5.85" fill="none" stroke="#000000" stroke-linecap="round" stroke-linejoin="round" stroke-opacity="0.5019608" stroke-width="1.0"/>
    </g>
    <linearGradient gradientTransform="matrix(-0.0082, -0.0048, 0.0171, -0.0294, -12.25, -13.35)" gradientUnits="userSpaceOnUse" id="gradient0" spreadMethod="pad" x1="-819.2" x2="819.2">
      <stop offset="0.0" stop-color="#7eab7e"/>
      <stop offset="1.0" stop-color="#3b0707"/>
    </linearGradient>
    <linearGradient gradientTransform="matrix(-0.0067, -0.0039, 0.0153, -0.0265, -14.95, -11.75)" gradientUnits="userSpaceOnUse" id="gradient1" spreadMethod="pad" x1="-819.2" x2="819.2">
      <stop offset="0.0" stop-color="#588758"/>
      <stop offset="1.0" stop-color="#3b0707"/>
    </linearGradient>
  </defs>
</svg>
