<?xml version="1.0" encoding="UTF-8" standalone="no"?>
<svg xmlns:xlink="http://www.w3.org/1999/xlink" height="531.5px" width="460.6px" xmlns="http://www.w3.org/2000/svg">
  <g transform="matrix(1.0, 0.0, 0.0, 1.0, 193.65, 334.05)">
    <use height="58.55" transform="matrix(1.0, 0.0, 0.0, 1.0, -71.8, -25.95)" width="137.4" xlink:href="#shape0"/>
  </g>
  <defs>
    <g id="shape0" transform="matrix(1.0, 0.0, 0.0, 1.0, 71.8, 25.95)">
      <path d="M23.3 24.5 L23.3 23.7 Q23.3 14.9 17.25 8.9 11.85 3.55 5.65 3.55 2.45 3.55 -2.8 5.0 -8.05 6.5 -11.9 6.5 -16.15 6.5 -19.4 5.3 L-25.1 2.55 -32.3 -0.85 -34.05 -1.6 Q-38.25 -3.4 -41.95 -4.0 -60.55 -8.3 -62.1 -8.3 -66.25 -8.3 -69.1 -11.0 L-70.7 -12.95 -70.1 -15.2 Q-72.0 -19.5 -71.4 -22.6 -70.2 -25.6 -68.05 -25.7 -45.6 -21.5 -18.3 -17.85 1.5 -15.3 17.7 -16.05 L38.7 -18.15 Q49.45 -19.95 61.65 -24.5 63.3 -24.15 63.9 -22.85 66.6 -19.1 64.25 -12.9 L64.95 -10.05 Q60.45 -3.95 53.65 -1.85 45.75 0.45 38.8 4.85 36.55 6.3 35.0 8.2 L43.25 7.85 42.8 8.2 Q41.7 13.35 39.9 17.5 L39.1 17.75 Q38.6 17.75 38.1 14.85 37.5 11.8 36.35 11.8 35.95 11.8 35.6 12.75 35.15 13.7 35.15 14.65 L35.95 19.3 Q35.95 20.7 34.45 20.7 33.35 20.7 31.3 18.0 L30.6 17.25 31.35 16.65 Q32.25 15.8 32.25 15.1 32.25 14.25 31.55 14.0 L30.35 13.8 29.65 14.25 28.6 15.45 28.45 15.35 Q26.75 15.35 26.75 17.15 26.75 19.5 29.75 21.55 32.65 23.6 32.65 24.5 32.65 25.75 30.95 26.05 29.15 26.35 29.15 26.7 29.15 27.4 30.0 28.0 L30.7 28.35 Q28.0 30.0 25.0 30.95 L22.6 27.75 22.85 26.9 23.3 24.5 23.7 24.55 Q25.0 20.45 25.0 16.45 L24.75 12.7 22.95 12.5 24.75 12.7 25.0 16.45 Q25.0 20.45 23.7 24.55 L23.3 24.5 M18.7 -11.5 L15.35 -11.4 14.65 -11.4 -15.9 -14.85 -16.3 -14.85 Q-13.65 -13.3 -5.75 -11.25 4.7 -8.5 13.3 -8.5 L18.8 -8.85 18.55 -6.15 18.3 -3.75 38.45 -6.95 18.3 -3.75 18.55 -6.15 18.8 -8.85 Q23.8 -9.45 30.15 -11.0 36.1 -12.35 48.05 -15.9 35.0 -15.1 26.55 -13.65 L18.65 -12.1 18.7 -11.5 M25.2 2.35 L22.1 3.45 20.0 4.25 22.1 3.45 21.65 2.55 Q18.3 -3.25 18.3 -3.75 L-3.4 -5.9 18.3 -3.75 Q18.3 -3.25 21.65 2.55 L22.1 3.45 25.2 2.35 M-32.15 -10.45 Q-49.45 -12.1 -66.05 -15.2 -49.45 -12.1 -32.15 -10.45 M17.7 -16.05 L17.95 -15.3 18.65 -12.1 17.95 -15.3 17.7 -16.05 M55.75 -9.25 Q59.85 -10.05 64.25 -12.9 59.85 -10.05 55.75 -9.25 M32.6 -2.45 L24.65 -2.45 32.6 -2.45 M27.05 25.1 L23.7 24.55 22.95 26.65 22.85 26.9 22.95 26.65 23.7 24.55 27.05 25.1 M26.55 12.85 L24.75 12.7 Q24.15 8.1 22.1 3.45 24.15 8.1 24.75 12.7 L26.55 12.85" fill="#cccc99" fill-rule="evenodd" stroke="none"/>
      <path d="M-70.7 -12.95 L-69.1 -11.0 Q-66.25 -8.3 -62.1 -8.3 -60.55 -8.3 -41.95 -4.0 -38.25 -3.4 -34.05 -1.6 L-32.3 -0.85 -25.1 2.55 -19.4 5.3 Q-16.15 6.5 -11.9 6.5 -8.05 6.5 -2.8 5.0 2.45 3.55 5.65 3.55 11.85 3.55 17.25 8.9 23.3 14.9 23.3 23.7 L23.3 24.5 22.85 26.9 22.5 27.65 21.4 26.8 Q19.85 25.95 17.75 26.45 L15.9 21.2 Q14.5 19.05 11.3 19.05 9.5 19.05 6.75 21.1 4.6 22.75 3.5 24.2 2.0 22.3 -0.15 21.05 -2.65 19.55 -5.05 19.55 -6.0 19.55 -8.65 21.2 L-8.8 21.3 -10.65 22.5 -12.95 20.35 Q-22.7 8.05 -36.1 1.85 -50.25 -3.0 -67.2 -3.25 -68.75 -3.0 -70.3 -4.95 -71.9 -8.0 -70.7 -12.95 M64.95 -10.05 Q65.7 -5.2 63.15 -1.85 62.2 -0.65 61.0 -0.85 54.95 -1.95 43.25 7.85 L35.0 8.2 Q36.55 6.3 38.8 4.85 45.75 0.45 53.65 -1.85 60.45 -3.95 64.95 -10.05 M21.75 24.2 L23.3 24.5 21.75 24.2 M18.8 -8.85 L13.3 -8.5 Q4.7 -8.5 -5.75 -11.25 -13.65 -13.3 -16.3 -14.85 L-15.9 -14.85 14.65 -11.4 15.35 -11.4 18.7 -11.5 18.8 -9.7 18.8 -8.85 18.8 -9.7 18.7 -11.5 18.65 -12.1 26.55 -13.65 Q35.0 -15.1 48.05 -15.9 36.1 -12.35 30.15 -11.0 23.8 -9.45 18.8 -8.85 M4.8 14.65 Q3.75 14.05 2.95 14.05 2.55 14.05 2.2 14.3 1.85 14.4 1.6 14.75 1.05 15.45 1.05 16.2 1.05 18.55 4.0 18.55 6.25 18.55 6.25 16.55 6.25 15.25 4.8 14.65" fill="#b4bd80" fill-rule="evenodd" stroke="none"/>
      <path d="M25.0 30.95 L21.2 31.8 20.1 31.95 17.5 32.2 Q6.6 33.1 -2.95 27.85 -6.95 25.7 -10.65 22.5 L-8.8 21.3 -8.65 21.2 Q-6.0 19.55 -5.05 19.55 -2.65 19.55 -0.15 21.05 2.0 22.3 3.5 24.2 4.6 22.75 6.75 21.1 9.5 19.05 11.3 19.05 14.5 19.05 15.9 21.2 L17.75 26.45 Q19.85 25.95 21.4 26.8 L22.5 27.65 22.85 26.9 22.6 27.75 25.0 30.95 M4.8 14.65 Q6.25 15.25 6.25 16.55 6.25 18.55 4.0 18.55 1.05 18.55 1.05 16.2 1.05 15.45 1.6 14.75 1.85 14.4 2.2 14.3 2.55 14.05 2.95 14.05 3.75 14.05 4.8 14.65 M21.05 27.65 L22.25 28.35 20.1 31.95 22.25 28.35 21.05 27.65 M22.75 28.7 L22.25 28.35 22.5 27.65 22.25 28.35 22.75 28.7" fill="#b3a560" fill-rule="evenodd" stroke="none"/>
      <path d="M39.9 17.5 Q36.55 24.65 30.7 28.35 L30.0 28.0 Q29.15 27.4 29.15 26.7 29.15 26.35 30.95 26.05 32.65 25.75 32.65 24.5 32.65 23.6 29.75 21.55 26.75 19.5 26.75 17.15 26.75 15.35 28.45 15.35 L28.6 15.45 28.45 16.15 Q28.45 17.5 29.4 17.5 L30.6 17.25 31.3 18.0 Q33.35 20.7 34.45 20.7 35.95 20.7 35.95 19.3 L35.15 14.65 Q35.15 13.7 35.6 12.75 35.95 11.8 36.35 11.8 37.5 11.8 38.1 14.85 38.6 17.75 39.1 17.75 L39.9 17.5" fill="#ab9c64" fill-rule="evenodd" stroke="none"/>
      <path d="M30.6 17.25 L29.4 17.5 Q28.45 17.5 28.45 16.15 L28.6 15.45 29.65 14.25 30.35 13.8 31.55 14.0 Q32.25 14.25 32.25 15.1 32.25 15.8 31.35 16.65 L30.6 17.25" fill="#b38860" fill-rule="evenodd" stroke="none"/>
      <path d="M-10.65 22.5 L-12.95 20.35 Q-22.7 8.05 -36.1 1.85 -50.25 -3.0 -67.2 -3.25 -68.75 -3.0 -70.3 -4.95 -71.9 -8.0 -70.7 -12.95 L-70.1 -15.2 Q-72.0 -19.5 -71.4 -22.6 -70.2 -25.6 -68.05 -25.7 -45.6 -21.5 -18.3 -17.85 1.5 -15.3 17.7 -16.05 L38.7 -18.15 Q49.45 -19.95 61.65 -24.5 63.3 -24.15 63.9 -22.85 66.6 -19.1 64.25 -12.9 L64.95 -10.05 Q65.7 -5.2 63.15 -1.85 62.2 -0.65 61.0 -0.85 54.95 -1.95 43.25 7.85 L42.8 8.2 Q41.7 13.35 39.9 17.5 36.55 24.65 30.7 28.35 28.0 30.0 25.0 30.95 L21.2 31.8 20.1 31.95 17.5 32.2 Q6.6 33.1 -2.95 27.85 -6.95 25.7 -10.65 22.5" fill="none" stroke="#000000" stroke-linecap="round" stroke-linejoin="round" stroke-opacity="0.4" stroke-width="0.5"/>
      <path d="M23.3 24.5 L23.7 24.55 Q25.0 20.45 25.0 16.45 L24.75 12.7 22.95 12.5 M22.5 27.65 L22.85 26.9 22.95 26.65 23.7 24.55 27.05 25.1 M23.3 24.5 L21.75 24.2 M18.8 -8.85 L18.8 -9.7 18.7 -11.5 18.65 -12.1 17.95 -15.3 17.7 -16.05 M-66.05 -15.2 Q-49.45 -12.1 -32.15 -10.45 M18.8 -8.85 L18.55 -6.15 18.3 -3.75 38.45 -6.95 M20.0 4.25 L22.1 3.45 21.65 2.55 Q18.3 -3.25 18.3 -3.75 L-3.4 -5.9 M22.1 3.45 L25.2 2.35 M24.65 -2.45 L32.6 -2.45 M64.25 -12.9 Q59.85 -10.05 55.75 -9.25 M22.1 3.45 Q24.15 8.1 24.75 12.7 L26.55 12.85 M22.5 27.65 L22.25 28.35 22.75 28.7 M20.1 31.95 L22.25 28.35 21.05 27.65" fill="none" stroke="#000000" stroke-linecap="round" stroke-linejoin="round" stroke-opacity="0.2" stroke-width="0.5"/>
    </g>
  </defs>
</svg>
