<?xml version="1.0" encoding="UTF-8" standalone="no"?>
<svg xmlns:xlink="http://www.w3.org/1999/xlink" height="531.5px" width="460.6px" xmlns="http://www.w3.org/2000/svg">
  <g transform="matrix(1.0, 0.0, 0.0, 1.0, 193.65, 334.05)">
    <use height="38.0" transform="matrix(1.0, 0.0, 0.0, 1.0, -71.9, -32.05)" width="134.3" xlink:href="#shape0"/>
    <use height="20.3" transform="matrix(1.1773, 0.0, 0.0, 1.1773, -15.8, -33.95)" width="20.3" xlink:href="#sprite0"/>
    <use height="20.3" transform="matrix(1.1773, 0.0, 0.0, 1.1773, -70.05, -16.45)" width="20.3" xlink:href="#sprite0"/>
    <use height="20.3" transform="matrix(1.1773, 0.0, 0.0, 1.1773, 32.45, -16.45)" width="20.3" xlink:href="#sprite0"/>
  </g>
  <defs>
    <g id="shape0" transform="matrix(1.0, 0.0, 0.0, 1.0, 71.9, 32.05)">
      <path d="M-3.65 -18.9 L0.05 -18.3 6.65 -16.65 10.2 -15.7 20.0 -13.0 22.4 -13.45 Q28.7 -14.85 35.3 -15.7 L35.95 -15.75 42.6 -16.75 Q46.45 -17.15 50.25 -16.9 L52.05 -16.75 51.75 -16.1 57.6 -13.45 60.35 -13.7 61.1 -13.35 Q62.55 -12.2 61.4 -10.05 L58.55 -9.65 Q53.15 -7.95 47.65 -7.25 L42.95 -8.85 42.55 -9.1 43.0 -9.7 42.55 -10.05 Q47.85 -10.35 51.95 -11.6 46.9 -11.9 41.3 -11.65 L40.7 -11.6 39.95 -12.2 39.4 -11.5 31.1 -10.7 37.3 -10.0 38.15 -9.95 35.9 -7.25 36.3 -6.9 35.95 -6.95 33.05 -7.2 Q27.1 -7.8 21.4 -9.4 L21.15 -9.5 19.8 -9.9 Q16.45 -10.8 13.2 -11.85 L10.1 -12.9 9.5 -13.1 Q3.4 -15.15 -2.95 -15.7 L-6.0 -15.85 -4.4 -17.4 -4.95 -18.0 -3.65 -18.9 M-8.2 -10.55 L-6.55 -10.4 7.15 -11.0 12.6 -11.75 13.2 -11.85 Q16.45 -10.8 19.8 -9.9 L21.15 -9.5 20.8 -9.35 10.95 -7.65 Q3.7 -6.3 -3.5 -6.9 L-7.7 -7.45 -7.15 -7.7 -8.2 -10.55 M-8.4 -15.9 L-16.65 -15.1 -22.1 -14.35 -22.75 -14.25 -19.6 -13.2 -19.0 -13.0 Q-14.6 -11.5 -10.05 -10.8 L-14.55 -9.15 -14.55 -9.0 -16.15 -9.45 -19.7 -10.4 -29.45 -13.1 -31.9 -12.65 Q-38.2 -11.25 -44.8 -10.4 L-44.85 -10.6 -45.45 -10.35 -51.3 -9.5 -50.5 -11.25 -53.75 -12.7 -56.35 -13.9 -58.0 -10.3 -57.9 -10.25 -59.75 -9.2 Q-64.5 -9.45 -69.15 -10.8 L-69.65 -11.2 -69.8 -12.4 Q-70.3 -12.5 -70.6 -12.75 -72.05 -13.9 -70.9 -16.05 L-68.05 -16.45 -67.95 -16.45 -67.45 -15.05 -67.7 -15.1 Q-68.9 -14.85 -69.9 -13.05 L-69.8 -12.4 -69.9 -13.05 Q-68.9 -14.85 -67.7 -15.1 L-67.45 -15.05 -67.3 -14.7 -66.6 -14.95 -61.3 -16.95 -61.7 -18.1 -57.15 -18.85 Q-51.35 -19.55 -45.45 -19.15 L-42.55 -18.9 Q-36.65 -18.25 -30.85 -16.65 L-30.8 -16.55 -44.85 -10.6 -30.8 -16.55 -30.3 -16.75 -20.45 -18.45 -11.65 -19.35 -11.6 -19.35 -10.25 -17.9 -8.4 -15.9 M10.1 -12.9 L6.65 -16.65 10.1 -12.9 M12.6 -11.75 L-3.5 -6.9 12.6 -11.75 M20.0 -13.0 L21.75 -12.55 21.85 -12.5 33.05 -7.2 21.85 -12.5 21.75 -12.55 20.0 -13.0 M21.85 -12.5 L26.05 -11.55 31.1 -10.7 26.05 -11.55 21.85 -12.5 M50.25 -16.9 L41.3 -11.65 50.25 -16.9 M26.05 -11.55 L35.95 -15.75 26.05 -11.55 M51.95 -11.6 L53.95 -12.3 57.6 -13.45 53.95 -12.3 51.95 -11.6 M-61.45 -14.5 L-66.6 -14.95 -61.45 -14.5 Q-56.4 -14.2 -50.8 -14.45 L-40.6 -15.4 -46.8 -16.1 -49.2 -16.1 Q-56.3 -16.05 -61.45 -14.5 M-57.15 -18.85 L-49.2 -16.1 -57.15 -18.85 M-50.8 -14.45 L-53.75 -12.7 -50.8 -14.45 M-22.75 -14.25 L-29.45 -13.1 -22.75 -14.25 M-40.6 -15.4 L-36.2 -15.9 -30.85 -16.65 -36.2 -15.9 -40.6 -15.4 M-16.15 -9.45 L-19.6 -13.2 -16.15 -9.45 M-36.2 -15.9 L-42.55 -18.9 -36.2 -15.9 M-22.1 -14.35 L-10.25 -17.9 -22.1 -14.35" fill="#333333" fill-rule="evenodd" stroke="none"/>
      <path d="M21.15 -9.5 L21.4 -9.4 20.8 -9.35 21.15 -9.5 M58.6 -15.6 L59.65 -15.3 60.15 -14.9 60.35 -13.7 57.6 -13.45 58.6 -15.6 M47.65 -7.25 L45.55 -7.0 42.95 -8.85 47.65 -7.25 M-30.85 -16.65 L-30.3 -16.75 -30.8 -16.55 -30.85 -16.65 M-57.25 -9.95 L-57.8 -9.1 -59.75 -9.2 -57.9 -10.25 -57.25 -9.95 M-44.85 -10.6 L-44.8 -10.4 -45.45 -10.35 -44.85 -10.6 M-14.5 -9.0 L-14.55 -9.0 -14.55 -9.15 -14.5 -9.0" fill="#cccccc" fill-rule="evenodd" stroke="none"/>
      <path d="M52.05 -16.75 L53.4 -19.7 54.1 -19.4 58.5 -17.4 59.25 -17.05 58.6 -15.6 57.6 -13.45 51.75 -16.1 52.05 -16.75 M-6.0 -15.85 L-7.3 -14.7 -8.4 -15.9 -10.25 -17.9 -11.6 -19.35 -11.65 -19.4 -8.75 -22.1 -8.2 -21.55 -4.95 -18.0 -4.4 -17.4 -6.0 -15.85 M-10.05 -10.8 L-8.55 -11.4 -8.2 -10.55 -7.15 -7.7 -7.7 -7.45 -7.85 -7.4 -12.4 -5.75 -13.15 -5.45 -14.5 -9.0 -14.55 -9.15 -10.05 -10.8 M36.3 -6.9 L35.9 -7.25 38.15 -9.95 39.4 -11.5 39.95 -12.2 40.7 -11.6 42.55 -10.05 43.0 -9.7 42.55 -9.1 42.5 -9.0 39.45 -5.4 38.95 -4.75 36.3 -6.9 M-63.45 -20.35 L-62.7 -20.65 -61.7 -18.1 -61.3 -16.95 -66.6 -14.95 -67.3 -14.7 -67.45 -15.05 -67.95 -16.45 -68.7 -18.4 -68.0 -18.7 -63.45 -20.35 M-57.9 -10.25 L-58.0 -10.3 -56.35 -13.9 -53.75 -12.7 -50.5 -11.25 -51.3 -9.5 -52.15 -7.65 -52.85 -7.95 -57.25 -9.95 -57.9 -10.25" fill="#3a3d2f" fill-rule="evenodd" stroke="none"/>
      <path d="M-8.2 -21.55 Q-5.9 -24.65 -2.25 -27.05 0.5 -26.6 2.45 -28.15 0.4 -26.1 1.0 -23.5 -1.0 -20.95 -3.65 -18.9 L-4.95 -18.0 -8.2 -21.55" fill="#00ccff" fill-rule="evenodd" stroke="none"/>
      <path d="M54.1 -19.4 Q55.1 -23.15 57.5 -26.85 60.2 -27.45 61.4 -29.65 60.3 -27.0 61.9 -24.85 60.85 -20.9 58.5 -17.4 L54.1 -19.4" fill="#8ca305" fill-rule="evenodd" stroke="none"/>
      <path d="M45.55 -7.0 L48.85 -3.85 Q48.65 -1.1 50.5 0.55 48.2 -1.15 45.75 -0.15 42.25 -2.2 39.45 -5.4 L42.5 -9.0 42.55 -9.1 42.95 -8.85 45.55 -7.0" fill="#02fd66" fill-rule="evenodd" stroke="none"/>
      <path d="M-68.0 -18.7 Q-69.95 -22.05 -70.85 -26.35 -69.35 -28.7 -70.05 -31.05 -68.95 -28.4 -66.3 -28.0 -64.3 -24.5 -63.45 -20.35 L-68.0 -18.7" fill="#a63203" fill-rule="evenodd" stroke="none"/>
      <path d="M-52.85 -7.95 Q-53.85 -4.2 -56.25 -0.5 -58.95 0.1 -60.15 2.3 -59.05 -0.35 -60.65 -2.5 -59.7 -6.0 -57.8 -9.1 L-57.25 -9.95 -52.85 -7.95" fill="#fb04ca" fill-rule="evenodd" stroke="none"/>
      <path d="M-7.85 -7.4 L-7.85 -7.35 Q-5.9 -4.05 -5.0 0.25 -6.5 2.6 -5.8 4.95 -6.9 2.3 -9.55 1.9 -11.55 -1.6 -12.4 -5.75 L-7.85 -7.4" fill="#ad0000" fill-rule="evenodd" stroke="none"/>
      <path d="M-3.65 -18.9 L0.05 -18.3 6.65 -16.65 10.2 -15.7 20.0 -13.0 22.4 -13.45 Q28.7 -14.85 35.3 -15.7 L35.95 -15.75 42.6 -16.75 Q46.45 -17.15 50.25 -16.9 L52.05 -16.75 53.4 -19.7 54.1 -19.4 Q55.1 -23.15 57.5 -26.85 60.2 -27.45 61.4 -29.65 L61.6 -30.15 M-8.2 -10.55 L-6.55 -10.4 7.15 -11.0 12.6 -11.75 13.2 -11.85 10.1 -12.9 9.5 -13.1 Q3.4 -15.15 -2.95 -15.7 L-6.0 -15.85 -7.3 -14.7 -8.4 -15.9 -16.65 -15.1 -22.1 -14.35 -22.75 -14.25 -19.6 -13.2 -19.0 -13.0 Q-14.6 -11.5 -10.05 -10.8 L-8.55 -11.4 -8.2 -10.55 -7.15 -7.7 -7.7 -7.45 -3.5 -6.9 12.6 -11.75 M6.65 -16.65 L10.1 -12.9 M13.2 -11.85 Q16.45 -10.8 19.8 -9.9 L21.15 -9.5 21.4 -9.4 Q27.1 -7.8 33.05 -7.2 L21.85 -12.5 21.75 -12.55 20.0 -13.0 M20.8 -9.35 L21.4 -9.4 M21.15 -9.5 L20.8 -9.35 10.95 -7.65 Q3.7 -6.3 -3.5 -6.9 M36.3 -6.9 L35.9 -7.25 38.15 -9.95 37.3 -10.0 31.1 -10.7 26.05 -11.55 21.85 -12.5 M39.4 -11.5 L39.95 -12.2 40.7 -11.6 41.3 -11.65 50.25 -16.9 M38.15 -9.95 L39.4 -11.5 31.1 -10.7 M36.3 -6.9 L35.95 -6.95 33.05 -7.2 M39.45 -5.4 L38.95 -4.75 36.3 -6.9 M35.95 -15.75 L26.05 -11.55 M-8.2 -21.55 Q-5.9 -24.65 -2.25 -27.05 0.5 -26.6 2.45 -28.15 0.4 -26.1 1.0 -23.5 -1.0 -20.95 -3.65 -18.9 L-4.95 -18.0 -4.4 -17.4 -6.0 -15.85 M58.5 -17.4 Q60.85 -20.9 61.9 -24.85 60.3 -27.0 61.4 -29.65 M57.6 -13.45 L51.75 -16.1 52.05 -16.75 M60.35 -13.7 L60.15 -14.9 59.65 -15.3 58.6 -15.6 57.6 -13.45 60.35 -13.7 61.1 -13.35 Q62.55 -12.2 61.4 -10.05 L58.55 -9.65 Q53.15 -7.95 47.65 -7.25 L45.55 -7.0 48.85 -3.85 Q48.65 -1.1 50.5 0.55 L50.9 0.9 M58.5 -17.4 L59.25 -17.05 58.6 -15.6 M54.1 -19.4 L58.5 -17.4 M45.55 -7.0 L42.95 -8.85 42.55 -9.1 42.5 -9.0 39.45 -5.4 Q42.25 -2.2 45.75 -0.15 48.2 -1.15 50.5 0.55 M42.55 -10.05 L43.0 -9.7 42.55 -9.1 M40.7 -11.6 L42.55 -10.05 Q47.85 -10.35 51.95 -11.6 46.9 -11.9 41.3 -11.65 M42.95 -8.85 L47.65 -7.25 M57.6 -13.45 L53.95 -12.3 51.95 -11.6 M-70.05 -31.05 L-70.25 -31.55 M-68.0 -18.7 Q-69.95 -22.05 -70.85 -26.35 -69.35 -28.7 -70.05 -31.05 -68.95 -28.4 -66.3 -28.0 -64.3 -24.5 -63.45 -20.35 L-62.7 -20.65 -61.7 -18.1 -57.15 -18.85 Q-51.35 -19.55 -45.45 -19.15 L-42.55 -18.9 Q-36.65 -18.25 -30.85 -16.65 L-30.3 -16.75 -20.45 -18.45 -11.65 -19.35 -11.6 -19.35 -11.65 -19.4 -8.75 -22.1 -8.2 -21.55 -4.95 -18.0 M-59.75 -9.2 Q-64.5 -9.45 -69.15 -10.8 L-69.65 -11.2 -69.8 -12.4 Q-70.3 -12.5 -70.6 -12.75 -72.05 -13.9 -70.9 -16.05 L-68.05 -16.45 -67.95 -16.45 -68.7 -18.4 -68.0 -18.7 -63.45 -20.35 M-69.8 -12.4 L-69.9 -13.05 Q-68.9 -14.85 -67.7 -15.1 L-67.45 -15.05 -67.95 -16.45 M-66.6 -14.95 L-67.3 -14.7 -67.45 -15.05 M-61.7 -18.1 L-61.3 -16.95 -66.6 -14.95 -61.45 -14.5 Q-56.3 -16.05 -49.2 -16.1 L-57.15 -18.85 M-61.45 -14.5 Q-56.4 -14.2 -50.8 -14.45 L-40.6 -15.4 -46.8 -16.1 -49.2 -16.1 M-57.9 -10.25 L-58.0 -10.3 -56.35 -13.9 -53.75 -12.7 -50.8 -14.45 M-51.3 -9.5 L-52.15 -7.65 -52.85 -7.95 Q-53.85 -4.2 -56.25 -0.5 -58.95 0.1 -60.15 2.3 L-60.35 2.8 M-57.25 -9.95 L-57.8 -9.1 Q-59.7 -6.0 -60.65 -2.5 -59.05 -0.35 -60.15 2.3 M-57.8 -9.1 L-59.75 -9.2 -57.9 -10.25 -57.25 -9.95 -52.85 -7.95 M-44.8 -10.4 Q-38.2 -11.25 -31.9 -12.65 L-29.45 -13.1 -22.75 -14.25 M-45.45 -10.35 L-44.85 -10.6 -30.8 -16.55 -30.3 -16.75 M-30.85 -16.65 L-36.2 -15.9 -40.6 -15.4 M-44.8 -10.4 L-45.45 -10.35 -51.3 -9.5 -50.5 -11.25 -53.75 -12.7 M-10.25 -17.9 L-11.6 -19.35 M-12.4 -5.75 L-13.15 -5.45 -14.5 -9.0 -14.55 -9.0 -16.15 -9.45 -19.7 -10.4 -29.45 -13.1 M-14.5 -9.0 L-14.55 -9.15 -10.05 -10.8 M-7.7 -7.45 L-7.85 -7.4 -7.85 -7.35 Q-5.9 -4.05 -5.0 0.25 -6.5 2.6 -5.8 4.95 L-5.6 5.45 M-19.6 -13.2 L-16.15 -9.45 M-7.85 -7.4 L-12.4 -5.75 Q-11.55 -1.6 -9.55 1.9 -6.9 2.3 -5.8 4.95 M-8.4 -15.9 L-10.25 -17.9 -22.1 -14.35 M-42.55 -18.9 L-36.2 -15.9" fill="none" stroke="#000000" stroke-linecap="round" stroke-linejoin="round" stroke-opacity="0.6627451" stroke-width="1.0"/>
    </g>
    <g id="sprite0" transform="matrix(1.0, 0.0, 0.0, 1.0, 10.15, 10.15)">
      <use height="20.3" transform="matrix(1.0, 0.0, 0.0, 1.0, -10.15, -10.15)" width="20.3" xlink:href="#shape1"/>
    </g>
    <g id="shape1" transform="matrix(1.0, 0.0, 0.0, 1.0, 10.15, 10.15)">
      <path d="M7.15 -7.2 Q10.15 -4.2 10.15 0.0 10.15 4.2 7.15 7.15 4.2 10.15 0.0 10.15 -4.2 10.15 -7.2 7.15 -10.15 4.2 -10.15 0.0 -10.15 -4.2 -7.2 -7.2 -4.2 -10.15 0.0 -10.15 4.2 -10.15 7.15 -7.2" fill="url(#gradient0)" fill-rule="evenodd" stroke="none"/>
    </g>
    <radialGradient cx="0" cy="0" gradientTransform="matrix(0.0125, 0.0, 0.0, 0.0125, 0.0, 0.0)" gradientUnits="userSpaceOnUse" id="gradient0" r="819.2" spreadMethod="pad">
      <stop offset="0.0" stop-color="#ff0000"/>
      <stop offset="1.0" stop-color="#ff0000" stop-opacity="0.0"/>
    </radialGradient>
  </defs>
</svg>
