<?xml version="1.0" encoding="UTF-8" standalone="no"?>
<svg xmlns:xlink="http://www.w3.org/1999/xlink" height="531.5px" width="460.6px" xmlns="http://www.w3.org/2000/svg">
  <g transform="matrix(1.0, 0.0, 0.0, 1.0, 193.65, 334.05)">
    <use height="24.2" transform="matrix(1.5874, 0.0, 0.0, 1.5874, -72.2951, -31.1175)" width="88.1" xlink:href="#shape0"/>
    <use height="8.9" transform="matrix(1.5874, 0.0, 0.0, 1.5874, -74.5175, -28.8913)" width="8.6" xlink:href="#shape1"/>
    <use height="4.45" transform="matrix(1.5874, 0.0, 0.0, 1.5874, -60.7067, -14.9255)" width="60.4" xlink:href="#shape2"/>
    <use height="10.6" transform="matrix(1.5874, 0.0, 0.0, 1.5874, -18.6175, -18.5675)" width="13.6" xlink:href="#shape3"/>
    <use height="7.7" transform="matrix(1.5874, 0.0, 0.0, 1.5874, 53.1325, -14.6175)" width="8.1" xlink:href="#shape4"/>
    <use height="2.2" transform="matrix(1.3114, 0.0, 0.0, 1.3114, 58.95, -12.95)" width="2.2" xlink:href="#shape5"/>
    <use height="6.85" transform="matrix(1.5874, 0.0, 0.0, 1.5874, 30.7325, -5.3175)" width="7.2" xlink:href="#shape6"/>
    <use height="7.7" transform="matrix(1.5874, 0.0, 0.0, 1.5874, -34.4175, -26.3675)" width="8.5" xlink:href="#shape7"/>
    <use height="2.2" transform="matrix(1.3114, 0.0, 0.0, 1.9213, -32.9, -22.5)" width="2.2" xlink:href="#shape5"/>
    <use height="9.6" transform="matrix(1.5874, 0.0, 0.0, 1.5874, 36.0325, -23.6675)" width="11.15" xlink:href="#shape8"/>
    <use height="174.3" transform="matrix(0.0451, 0.0, 0.0, 0.0451, 41.2308, -20.1944)" width="174.3" xlink:href="#shape9"/>
  </g>
  <defs>
    <g id="shape0" transform="matrix(1.0, 0.0, 0.0, 1.0, -1.2, 0.2)">
      <path d="M83.45 4.6 L83.0 5.3 83.45 4.6 84.6 4.0 83.45 4.6 84.0 3.5 Q84.1 3.25 84.85 3.0 L86.05 2.8 Q87.4 2.8 87.4 4.7 L87.0 6.2 86.75 7.0 86.6 7.7 Q86.6 8.75 87.85 10.4 89.1 12.1 89.1 13.55 89.1 15.65 87.4 17.2 85.7 18.75 83.5 18.7 81.75 18.65 80.35 20.8 78.9 23.0 77.05 23.0 L75.85 22.85 74.5 22.7 72.8 23.1 70.05 23.5 Q68.3 23.5 65.9 22.7 L63.7 21.9 62.75 22.2 61.35 22.5 59.45 22.2 58.05 21.9 56.15 22.3 53.9 22.7 Q51.75 22.7 48.0 21.5 L45.25 20.65 Q43.85 19.9 44.35 18.4 L44.4 18.2 44.4 18.1 44.35 18.4 Q43.9 19.15 43.9 19.8 L43.0 19.8 38.3 18.5 34.0 17.9 Q32.65 17.9 32.05 18.55 L30.8 20.4 Q30.35 17.9 26.7 17.9 L25.0 20.2 22.6 23.8 Q22.2 23.05 21.95 21.4 L21.6 18.9 Q21.4 17.55 20.5 17.1 L18.8 16.7 14.05 15.8 9.75 15.2 8.4 15.45 7.3 16.3 7.1 14.45 7.2 13.65 Q6.65 13.95 5.65 15.1 L4.1 16.7 2.8 11.6 2.3 11.6 1.55 12.0 1.4 11.95 1.4 11.1 3.4 4.45 3.3 2.85 3.1 1.2 3.1 0.1 4.15 0.0 Q5.85 0.0 11.35 1.9 L13.15 1.25 17.8 0.6 21.6 1.0 22.35 1.55 23.4 2.1 25.5 2.1 Q26.8 1.1 30.85 2.15 33.65 2.85 35.4 5.2 37.55 4.6 38.75 5.25 42.55 7.25 50.0 7.3 L58.75 7.8 Q64.7 8.3 66.35 7.85 L67.7 8.2 Q68.3 6.15 73.25 4.15 74.8 3.8 76.75 4.15 78.65 4.5 79.75 5.7 81.7 4.65 83.45 4.6 M17.7 13.9 Q13.7 12.55 10.1 8.9 13.7 12.55 17.7 13.9 M83.8 12.4 L86.75 7.0 83.8 12.4" fill="url(#gradient0)" fill-rule="evenodd" stroke="none"/>
      <path d="M83.45 4.6 L84.6 4.0 M83.0 5.3 L83.45 4.6 Q81.7 4.65 79.75 5.7 78.65 4.5 76.75 4.15 74.8 3.8 73.25 4.15 68.3 6.15 67.7 8.2 L66.35 7.85 Q64.7 8.3 58.75 7.8 L50.0 7.3 Q42.55 7.25 38.75 5.25 37.55 4.6 35.4 5.2 33.65 2.85 30.85 2.15 26.8 1.1 25.5 2.1 L23.4 2.1 22.35 1.55 21.6 1.0 17.8 0.6 13.15 1.25 11.35 1.9 Q5.85 0.0 4.15 0.0 L3.1 0.1 3.1 1.2 3.3 2.85 3.4 4.45 1.4 11.1 1.4 11.95 1.55 12.0 2.3 11.6 2.8 11.6 4.1 16.7 5.65 15.1 Q6.65 13.95 7.2 13.65 L7.1 14.45 7.3 16.3 8.4 15.45 9.75 15.2 14.05 15.8 18.8 16.7 20.5 17.1 Q21.4 17.55 21.6 18.9 L21.95 21.4 Q22.2 23.05 22.6 23.8 L25.0 20.2 26.7 17.9 Q30.35 17.9 30.8 20.4 L32.05 18.55 Q32.65 17.9 34.0 17.9 L38.3 18.5 43.0 19.8 43.9 19.8 Q43.9 19.15 44.35 18.4 L44.4 18.1 44.4 18.2 44.35 18.4 Q43.85 19.9 45.25 20.65 L48.0 21.5 Q51.75 22.7 53.9 22.7 L56.15 22.3 58.05 21.9 59.45 22.2 61.35 22.5 62.75 22.2 63.7 21.9 65.9 22.7 Q68.3 23.5 70.05 23.5 L72.8 23.1 74.5 22.7 75.85 22.85 77.05 23.0 Q78.9 23.0 80.35 20.8 81.75 18.65 83.5 18.7 85.7 18.75 87.4 17.2 89.1 15.65 89.1 13.55 89.1 12.1 87.85 10.4 86.6 8.75 86.6 7.7 L86.75 7.0 83.8 12.4 M83.45 4.6 L84.0 3.5 Q84.1 3.25 84.85 3.0 L86.05 2.8 Q87.4 2.8 87.4 4.7 L87.0 6.2 86.75 7.0 M10.1 8.9 Q13.7 12.55 17.7 13.9" fill="none" stroke="#000000" stroke-linecap="round" stroke-linejoin="round" stroke-opacity="0.4" stroke-width="0.4"/>
      <path d="M22.3 12.1 Q20.3 13.9 17.5 13.9 14.7 13.9 12.7 12.1 10.7 10.3 10.7 7.75 10.7 5.2 12.7 3.4 14.7 1.6 17.5 1.6 20.3 1.6 22.3 3.4 24.3 5.2 24.3 7.75 24.3 10.3 22.3 12.1" fill="#d6d6ab" fill-rule="evenodd" stroke="none"/>
      <path d="M22.3 12.1 Q20.3 13.9 17.5 13.9 14.7 13.9 12.7 12.1 10.7 10.3 10.7 7.75 10.7 5.2 12.7 3.4 14.7 1.6 17.5 1.6 20.3 1.6 22.3 3.4 24.3 5.2 24.3 7.75 24.3 10.3 22.3 12.1 Z" fill="none" stroke="#000000" stroke-linecap="round" stroke-linejoin="round" stroke-opacity="0.4" stroke-width="0.4"/>
      <path d="M10.8 15.2 Q9.8 16.1 8.35 16.1 6.9 16.1 5.9 15.2 4.9 14.3 4.9 13.05 4.9 11.8 5.9 10.9 6.9 10.0 8.35 10.0 9.8 10.0 10.8 10.9 11.8 11.8 11.8 13.05 11.8 14.3 10.8 15.2" fill="#ffffcc" fill-rule="evenodd" stroke="none"/>
      <path d="M10.8 15.2 Q9.8 16.1 8.35 16.1 6.9 16.1 5.9 15.2 4.9 14.3 4.9 13.05 4.9 11.8 5.9 10.9 6.9 10.0 8.35 10.0 9.8 10.0 10.8 10.9 11.8 11.8 11.8 13.05 11.8 14.3 10.8 15.2 Z" fill="none" stroke="#000000" stroke-linecap="round" stroke-linejoin="round" stroke-opacity="0.4" stroke-width="0.4"/>
      <path d="M53.35 12.6 Q52.65 13.35 51.65 13.35 50.65 13.35 49.9 12.6 49.2 11.9 49.2 10.9 49.2 9.9 49.9 9.15 50.65 8.45 51.65 8.45 52.65 8.45 53.35 9.15 54.1 9.9 54.1 10.9 54.1 11.9 53.35 12.6" fill="#ffffcc" fill-rule="evenodd" stroke="none"/>
      <path d="M53.35 12.6 Q52.65 13.35 51.65 13.35 50.65 13.35 49.9 12.6 49.2 11.9 49.2 10.9 49.2 9.9 49.9 9.15 50.65 8.45 51.65 8.45 52.65 8.45 53.35 9.15 54.1 9.9 54.1 10.9 54.1 11.9 53.35 12.6 Z" fill="none" stroke="#000000" stroke-linecap="round" stroke-linejoin="round" stroke-opacity="0.4" stroke-width="0.4"/>
      <path d="M63.6 17.6 L64.7 18.65 63.6 17.6 M65.15 15.65 L65.85 15.7 65.15 15.65 M60.45 10.3 Q62.65 10.3 64.25 11.75 65.85 13.3 65.85 15.45 L65.85 15.7 Q65.75 17.35 64.7 18.65 L64.25 19.05 Q62.65 20.55 60.45 20.55 58.8 20.55 57.5 19.75 L56.6 19.05 Q55.05 17.55 55.05 15.45 55.05 13.7 56.1 12.35 L56.6 11.75 Q58.25 10.3 60.45 10.3 L60.5 11.4 60.45 10.3 M56.45 12.7 L56.1 12.35 56.45 12.7 M58.45 18.3 L57.5 19.75 58.45 18.3" fill="#ffffcc" fill-rule="evenodd" stroke="none"/>
      <path d="M64.7 18.65 Q65.75 17.35 65.85 15.7 L65.85 15.45 Q65.85 13.3 64.25 11.75 62.65 10.3 60.45 10.3 58.25 10.3 56.6 11.75 L56.1 12.35 Q55.05 13.7 55.05 15.45 55.05 17.55 56.6 19.05 L57.5 19.75 Q58.8 20.55 60.45 20.55 62.65 20.55 64.25 19.05 L64.7 18.65" fill="none" stroke="#000000" stroke-linecap="round" stroke-linejoin="round" stroke-opacity="0.4" stroke-width="0.4"/>
      <path d="M65.85 15.7 L65.15 15.65 M64.7 18.65 L63.6 17.6 M60.45 10.3 L60.5 11.4 M56.1 12.35 L56.45 12.7 M57.5 19.75 L58.45 18.3" fill="none" stroke="#ff0000" stroke-linecap="round" stroke-linejoin="round" stroke-opacity="0.4" stroke-width="0.2"/>
      <path d="M79.2 21.1 Q78.4 21.95 77.25 21.95 76.1 21.95 75.25 21.1 74.45 20.3 74.45 19.15 74.45 18.0 75.25 17.15 76.1 16.35 77.25 16.35 78.4 16.35 79.2 17.15 80.05 18.0 80.05 19.15 80.05 20.3 79.2 21.1" fill="#ffffcc" fill-rule="evenodd" stroke="none"/>
      <path d="M79.2 21.1 Q78.4 21.95 77.25 21.95 76.1 21.95 75.25 21.1 74.45 20.3 74.45 19.15 74.45 18.0 75.25 17.15 76.1 16.35 77.25 16.35 78.4 16.35 79.2 17.15 80.05 18.0 80.05 19.15 80.05 20.3 79.2 21.1 Z" fill="none" stroke="#000000" stroke-linecap="round" stroke-linejoin="round" stroke-opacity="0.4" stroke-width="0.4"/>
      <path d="M31.15 16.9 Q30.05 17.8 28.5 17.8 26.95 17.8 25.85 16.9 24.75 16.05 24.75 14.8 24.75 13.55 25.85 12.65 26.95 11.8 28.5 11.8 30.05 11.8 31.15 12.65 32.25 13.55 32.25 14.8 32.25 16.05 31.15 16.9" fill="#ffffcc" fill-rule="evenodd" stroke="none"/>
      <path d="M31.15 16.9 Q30.05 17.8 28.5 17.8 26.95 17.8 25.85 16.9 24.75 16.05 24.75 14.8 24.75 13.55 25.85 12.65 26.95 11.8 28.5 11.8 30.05 11.8 31.15 12.65 32.25 13.55 32.25 14.8 32.25 16.05 31.15 16.9 Z" fill="none" stroke="#000000" stroke-linecap="round" stroke-linejoin="round" stroke-opacity="0.4" stroke-width="0.4"/>
      <path d="M50.85 17.25 Q50.45 17.65 49.85 17.65 49.25 17.65 48.85 17.25 48.45 16.85 48.45 16.35 48.45 15.85 48.85 15.45 49.25 15.05 49.85 15.05 50.45 15.05 50.85 15.45 51.25 15.85 51.25 16.35 51.25 16.85 50.85 17.25" fill="#333333" fill-rule="evenodd" stroke="none"/>
      <path d="M50.85 17.25 Q50.45 17.65 49.85 17.65 49.25 17.65 48.85 17.25 48.45 16.85 48.45 16.35 48.45 15.85 48.85 15.45 49.25 15.05 49.85 15.05 50.45 15.05 50.85 15.45 51.25 15.85 51.25 16.35 51.25 16.85 50.85 17.25 Z" fill="none" stroke="#000000" stroke-linecap="round" stroke-linejoin="round" stroke-opacity="0.4" stroke-width="0.4"/>
      <path d="M48.4 19.35 Q48.0 19.75 47.4 19.75 46.8 19.75 46.4 19.35 46.0 18.95 46.0 18.45 46.0 17.95 46.4 17.55 46.8 17.15 47.4 17.15 48.0 17.15 48.4 17.55 48.8 17.95 48.8 18.45 48.8 18.95 48.4 19.35" fill="#333333" fill-rule="evenodd" stroke="none"/>
      <path d="M48.4 19.35 Q48.0 19.75 47.4 19.75 46.8 19.75 46.4 19.35 46.0 18.95 46.0 18.45 46.0 17.95 46.4 17.55 46.8 17.15 47.4 17.15 48.0 17.15 48.4 17.55 48.8 17.95 48.8 18.45 48.8 18.95 48.4 19.35 Z" fill="none" stroke="#000000" stroke-linecap="round" stroke-linejoin="round" stroke-opacity="0.4" stroke-width="0.4"/>
      <path d="M51.9 20.2 Q51.5 20.6 50.9 20.6 50.3 20.6 49.9 20.2 49.5 19.8 49.5 19.3 49.5 18.8 49.9 18.4 50.3 18.0 50.9 18.0 51.5 18.0 51.9 18.4 52.3 18.8 52.3 19.3 52.3 19.8 51.9 20.2" fill="#333333" fill-rule="evenodd" stroke="none"/>
      <path d="M51.9 20.2 Q51.5 20.6 50.9 20.6 50.3 20.6 49.9 20.2 49.5 19.8 49.5 19.3 49.5 18.8 49.9 18.4 50.3 18.0 50.9 18.0 51.5 18.0 51.9 18.4 52.3 18.8 52.3 19.3 52.3 19.8 51.9 20.2 Z" fill="none" stroke="#000000" stroke-linecap="round" stroke-linejoin="round" stroke-opacity="0.4" stroke-width="0.4"/>
      <path d="M69.75 14.1 Q69.45 15.05 68.7 15.05 68.0 15.05 67.25 14.1 66.5 13.2 66.2 11.9 65.85 10.55 66.1 9.6 66.45 8.7 67.15 8.7 67.9 8.7 68.6 9.6 69.35 10.55 69.7 11.9 70.0 13.2 69.75 14.1" fill="#ffffcc" fill-rule="evenodd" stroke="none"/>
      <path d="M69.75 14.1 Q69.45 15.05 68.7 15.05 68.0 15.05 67.25 14.1 66.5 13.2 66.2 11.9 65.85 10.55 66.1 9.6 66.45 8.7 67.15 8.7 67.9 8.7 68.6 9.6 69.35 10.55 69.7 11.9 70.0 13.2 69.75 14.1 Z" fill="none" stroke="#000000" stroke-linecap="round" stroke-linejoin="round" stroke-opacity="0.4" stroke-width="0.4"/>
      <path d="M54.0 17.4 Q53.6 17.8 53.0 17.8 52.4 17.8 52.0 17.4 51.6 17.0 51.6 16.5 51.6 16.0 52.0 15.6 52.4 15.2 53.0 15.2 53.6 15.2 54.0 15.6 54.4 16.0 54.4 16.5 54.4 17.0 54.0 17.4" fill="#333333" fill-rule="evenodd" stroke="none"/>
      <path d="M54.0 17.4 Q53.6 17.8 53.0 17.8 52.4 17.8 52.0 17.4 51.6 17.0 51.6 16.5 51.6 16.0 52.0 15.6 52.4 15.2 53.0 15.2 53.6 15.2 54.0 15.6 54.4 16.0 54.4 16.5 54.4 17.0 54.0 17.4 Z" fill="none" stroke="#000000" stroke-linecap="round" stroke-linejoin="round" stroke-opacity="0.4" stroke-width="0.4"/>
      <path d="M55.8 20.6 Q55.4 21.0 54.8 21.0 54.2 21.0 53.8 20.6 53.4 20.2 53.4 19.7 53.4 19.2 53.8 18.8 54.2 18.4 54.8 18.4 55.4 18.4 55.8 18.8 56.2 19.2 56.2 19.7 56.2 20.2 55.8 20.6" fill="#333333" fill-rule="evenodd" stroke="none"/>
      <path d="M55.8 20.6 Q55.4 21.0 54.8 21.0 54.2 21.0 53.8 20.6 53.4 20.2 53.4 19.7 53.4 19.2 53.8 18.8 54.2 18.4 54.8 18.4 55.4 18.4 55.8 18.8 56.2 19.2 56.2 19.7 56.2 20.2 55.8 20.6 Z" fill="none" stroke="#000000" stroke-linecap="round" stroke-linejoin="round" stroke-opacity="0.4" stroke-width="0.4"/>
      <path d="M50.85 17.8 Q51.45 17.8 51.85 18.2 52.3 18.65 52.3 19.25 52.3 19.85 51.85 20.25 51.45 20.7 50.85 20.7 50.25 20.7 49.8 20.25 49.4 19.85 49.4 19.25 49.4 18.65 49.8 18.2 50.25 17.8 50.85 17.8" fill="url(#gradient1)" fill-rule="evenodd" stroke="none"/>
      <path d="M54.75 18.4 Q55.35 18.4 55.75 18.8 56.2 19.25 56.2 19.85 56.2 20.45 55.75 20.85 55.35 21.3 54.75 21.3 54.15 21.3 53.7 20.85 53.3 20.45 53.3 19.85 53.3 19.25 53.7 18.8 54.15 18.4 54.75 18.4" fill="url(#gradient2)" fill-rule="evenodd" stroke="none"/>
      <path d="M47.25 17.15 Q47.85 17.15 48.25 17.55 48.7 18.0 48.7 18.6 48.7 19.2 48.25 19.6 47.85 20.05 47.25 20.05 46.65 20.05 46.2 19.6 45.8 19.2 45.8 18.6 45.8 18.0 46.2 17.55 46.65 17.15 47.25 17.15" fill="url(#gradient3)" fill-rule="evenodd" stroke="none"/>
      <path d="M49.85 14.95 Q50.45 14.95 50.85 15.35 51.3 15.8 51.3 16.4 51.3 17.0 50.85 17.4 50.45 17.85 49.85 17.85 49.25 17.85 48.8 17.4 48.4 17.0 48.4 16.4 48.4 15.8 48.8 15.35 49.25 14.95 49.85 14.95" fill="url(#gradient4)" fill-rule="evenodd" stroke="none"/>
      <path d="M52.95 15.25 Q53.55 15.25 53.95 15.65 54.4 16.1 54.4 16.7 54.4 17.3 53.95 17.7 L52.95 18.15 Q52.35 18.15 51.9 17.7 51.5 17.3 51.5 16.7 51.5 16.1 51.9 15.65 52.35 15.25 52.95 15.25" fill="url(#gradient5)" fill-rule="evenodd" stroke="none"/>
      <path d="M62.05 18.05 L61.8 19.05 Q61.65 19.05 61.55 18.05 L61.45 15.75 61.55 13.4 Q61.65 12.45 61.8 12.45 L62.05 13.4 62.15 15.75 62.05 18.05" fill="#111111" fill-rule="evenodd" stroke="none"/>
      <path d="M20.5 11.35 Q19.5 12.0 18.05 12.0 16.55 12.0 15.5 11.35 14.55 10.7 14.55 9.75 14.55 8.75 15.5 8.1 16.55 7.45 18.05 7.45 19.5 7.45 20.5 8.1 21.55 8.75 21.55 9.75 21.55 10.7 20.5 11.35" fill="#111111" fill-rule="evenodd" stroke="none"/>
      <path d="M20.5 7.55 Q19.5 8.2 18.05 8.2 16.55 8.2 15.5 7.55 14.55 6.9 14.55 5.95 14.55 4.95 15.5 4.3 16.55 3.65 18.05 3.65 19.5 3.65 20.5 4.3 21.55 4.95 21.55 5.95 21.55 6.9 20.5 7.55" fill="#111111" fill-rule="evenodd" stroke="none"/>
      <path d="M29.95 16.35 Q29.4 17.0 28.55 17.0 27.7 17.0 27.1 16.35 26.55 15.7 26.55 14.8 26.55 13.9 27.1 13.25 27.7 12.6 28.55 12.6 29.4 12.6 29.95 13.25 30.55 13.9 30.55 14.8 30.55 15.7 29.95 16.35" fill="#111111" fill-rule="evenodd" stroke="none"/>
      <path d="M29.55 14.4 Q29.3 14.7 28.95 14.7 L28.3 14.4 28.05 13.7 Q28.05 13.3 28.3 13.0 28.55 12.7 28.95 12.7 29.3 12.7 29.55 13.0 L29.85 13.7 29.55 14.4" fill="#ffffff" fill-rule="evenodd" stroke="none"/>
      <path d="M29.85 15.45 L29.35 15.65 Q29.05 15.65 28.85 15.45 L28.65 14.9 Q28.65 14.55 28.85 14.35 29.05 14.1 29.35 14.1 L29.85 14.35 30.05 14.9 29.85 15.45" fill="#ffffff" fill-rule="evenodd" stroke="none"/>
      <path d="M52.75 11.65 L51.95 11.95 Q51.5 11.95 51.2 11.65 50.85 11.3 50.85 10.85 50.85 10.4 51.2 10.1 51.5 9.75 51.95 9.75 52.4 9.75 52.75 10.1 L53.05 10.85 52.75 11.65" fill="#111111" fill-rule="evenodd" stroke="none"/>
      <path d="M78.6 20.5 L77.8 20.8 Q77.35 20.8 77.05 20.5 76.7 20.15 76.7 19.7 76.7 19.25 77.05 18.95 77.35 18.6 77.8 18.6 78.25 18.6 78.6 18.95 78.9 19.25 78.9 19.7 L78.6 20.5" fill="#111111" fill-rule="evenodd" stroke="none"/>
    </g>
    <linearGradient gradientTransform="matrix(9.0E-4, -0.0114, 0.0145, 0.0011, 45.15, 9.8)" gradientUnits="userSpaceOnUse" id="gradient0" spreadMethod="pad" x1="-819.2" x2="819.2">
      <stop offset="0.0" stop-color="#333300"/>
      <stop offset="1.0" stop-color="#4f4f06"/>
    </linearGradient>
    <radialGradient cx="0" cy="0" gradientTransform="matrix(0.0012, 0.0, 0.0, 0.0012, 50.85, 19.25)" gradientUnits="userSpaceOnUse" id="gradient1" r="819.2" spreadMethod="pad">
      <stop offset="0.0" stop-color="#ff0000"/>
      <stop offset="1.0" stop-color="#ff0000" stop-opacity="0.0"/>
    </radialGradient>
    <radialGradient cx="0" cy="0" gradientTransform="matrix(0.0012, 0.0, 0.0, 0.0012, 54.75, 19.85)" gradientUnits="userSpaceOnUse" id="gradient2" r="819.2" spreadMethod="pad">
      <stop offset="0.0" stop-color="#ff0000"/>
      <stop offset="1.0" stop-color="#ff0000" stop-opacity="0.0"/>
    </radialGradient>
    <radialGradient cx="0" cy="0" gradientTransform="matrix(0.0012, 0.0, 0.0, 0.0012, 47.25, 18.6)" gradientUnits="userSpaceOnUse" id="gradient3" r="819.2" spreadMethod="pad">
      <stop offset="0.0" stop-color="#ff0000"/>
      <stop offset="1.0" stop-color="#ff0000" stop-opacity="0.0"/>
    </radialGradient>
    <radialGradient cx="0" cy="0" gradientTransform="matrix(0.0012, 0.0, 0.0, 0.0012, 49.85, 16.4)" gradientUnits="userSpaceOnUse" id="gradient4" r="819.2" spreadMethod="pad">
      <stop offset="0.0" stop-color="#ff0000"/>
      <stop offset="1.0" stop-color="#ff0000" stop-opacity="0.0"/>
    </radialGradient>
    <radialGradient cx="0" cy="0" gradientTransform="matrix(0.0012, 0.0, 0.0, 0.0012, 52.95, 16.7)" gradientUnits="userSpaceOnUse" id="gradient5" r="819.2" spreadMethod="pad">
      <stop offset="0.0" stop-color="#ff0000"/>
      <stop offset="1.0" stop-color="#ff0000" stop-opacity="0.0"/>
    </radialGradient>
    <g id="shape1" transform="matrix(1.0, 0.0, 0.0, 1.0, 0.2, -0.1)">
      <path d="M7.0 7.55 Q5.8 8.8 4.1 8.8 2.4 8.8 1.2 7.55 0.0 6.3 0.0 4.55 0.0 2.75 1.2 1.5 2.4 0.3 4.1 0.3 5.8 0.3 7.0 1.5 8.2 2.75 8.2 4.55 8.2 6.3 7.0 7.55" fill="#ffffcc" fill-rule="evenodd" stroke="none"/>
      <path d="M7.0 7.55 Q5.8 8.8 4.1 8.8 2.4 8.8 1.2 7.55 0.0 6.3 0.0 4.55 0.0 2.75 1.2 1.5 2.4 0.3 4.1 0.3 5.8 0.3 7.0 1.5 8.2 2.75 8.2 4.55 8.2 6.3 7.0 7.55 Z" fill="none" stroke="#000000" stroke-linecap="round" stroke-linejoin="round" stroke-opacity="0.4" stroke-width="0.4"/>
      <path d="M3.9 5.0 L3.1 5.3 Q2.65 5.3 2.35 5.0 2.0 4.65 2.0 4.2 2.0 3.75 2.35 3.4 2.65 3.1 3.1 3.1 3.55 3.1 3.9 3.4 L4.2 4.2 3.9 5.0" fill="#111111" fill-rule="evenodd" stroke="none"/>
    </g>
    <g id="shape2" transform="matrix(1.0, 0.0, 0.0, 1.0, -8.5, -10.0)">
      <path d="M10.4 14.15 L9.6 14.45 Q9.15 14.45 8.85 14.15 8.5 13.8 8.5 13.35 8.5 12.9 8.85 12.6 9.15 12.25 9.6 12.25 10.05 12.25 10.4 12.6 L10.7 13.35 10.4 14.15" fill="#111111" fill-rule="evenodd" stroke="none"/>
      <path d="M67.95 10.95 L67.55 11.1 67.15 10.95 67.0 10.55 67.15 10.15 Q67.3 10.0 67.55 10.0 L67.95 10.15 68.1 10.55 67.95 10.95" fill="#111111" fill-rule="evenodd" stroke="none"/>
      <path d="M68.35 12.1 L67.95 12.25 Q67.7 12.25 67.55 12.1 67.4 11.95 67.4 11.7 L67.55 11.3 Q67.7 11.15 67.95 11.15 L68.35 11.3 68.5 11.7 68.35 12.1" fill="#111111" fill-rule="evenodd" stroke="none"/>
      <path d="M68.75 13.3 L68.35 13.45 67.95 13.3 67.8 12.9 67.95 12.5 Q68.1 12.35 68.35 12.35 L68.75 12.5 68.9 12.9 68.75 13.3" fill="#111111" fill-rule="evenodd" stroke="none"/>
    </g>
    <g id="shape3" transform="matrix(1.0, 0.0, 0.0, 1.0, 0.2, 0.2)">
      <path d="M11.25 8.7 Q9.35 10.2 6.6 10.2 3.85 10.2 1.9 8.7 0.0 7.2 0.0 5.1 0.0 3.0 1.9 1.5 3.85 0.0 6.6 0.0 9.35 0.0 11.25 1.5 13.2 3.0 13.2 5.1 13.2 7.2 11.25 8.7" fill="#ffffcc" fill-rule="evenodd" stroke="none"/>
      <path d="M11.25 8.7 Q9.35 10.2 6.6 10.2 3.85 10.2 1.9 8.7 0.0 7.2 0.0 5.1 0.0 3.0 1.9 1.5 3.85 0.0 6.6 0.0 9.35 0.0 11.25 1.5 13.2 3.0 13.2 5.1 13.2 7.2 11.25 8.7 Z" fill="none" stroke="#000000" stroke-linecap="round" stroke-linejoin="round" stroke-opacity="0.4" stroke-width="0.4"/>
      <path d="M8.6 5.05 Q9.65 5.05 10.2 4.4 L10.4 4.15 10.6 5.2 Q10.6 6.6 9.4 7.5 8.25 8.5 6.55 8.5 4.85 8.5 3.65 7.5 2.5 6.6 2.5 5.2 2.5 3.8 3.65 2.85 4.85 1.9 6.55 1.9 L7.45 1.95 Q6.6 2.35 6.6 3.4 6.6 3.8 6.9 4.25 7.45 5.05 8.6 5.05" fill="#111111" fill-rule="evenodd" stroke="none"/>
    </g>
    <g id="shape4" transform="matrix(1.0, 0.0, 0.0, 1.0, 0.2, 0.2)">
      <path d="M6.55 6.2 Q5.45 7.3 3.85 7.3 2.25 7.3 1.1 6.2 0.0 5.15 0.0 3.65 0.0 2.15 1.1 1.05 2.25 0.0 3.85 0.0 5.45 0.0 6.55 1.05 7.7 2.15 7.7 3.65 7.7 5.15 6.55 6.2" fill="#ffe7cc" fill-rule="evenodd" stroke="none"/>
      <path d="M6.55 6.2 Q5.45 7.3 3.85 7.3 2.25 7.3 1.1 6.2 0.0 5.15 0.0 3.65 0.0 2.15 1.1 1.05 2.25 0.0 3.85 0.0 5.45 0.0 6.55 1.05 7.7 2.15 7.7 3.65 7.7 5.15 6.55 6.2 Z" fill="none" stroke="#000000" stroke-linecap="round" stroke-linejoin="round" stroke-opacity="0.4" stroke-width="0.4"/>
    </g>
    <g id="shape5" transform="matrix(1.0, 0.0, 0.0, 1.0, 0.0, 0.0)">
      <path d="M1.9 1.9 L1.1 2.2 Q0.65 2.2 0.35 1.9 0.0 1.55 0.0 1.1 0.0 0.65 0.35 0.35 0.65 0.0 1.1 0.0 1.55 0.0 1.9 0.35 L2.2 1.1 1.9 1.9" fill="#111111" fill-rule="evenodd" stroke="none"/>
    </g>
    <g id="shape6" transform="matrix(1.0, 0.0, 0.0, 1.0, 0.2, 0.2)">
      <path d="M5.8 5.5 Q4.8 6.45 3.4 6.45 2.05 6.45 1.0 5.5 0.0 4.55 0.0 3.2 0.0 1.9 1.0 0.9 2.05 0.0 3.4 0.0 4.8 0.0 5.8 0.9 6.8 1.9 6.8 3.2 6.8 4.55 5.8 5.5" fill="#ffffcc" fill-rule="evenodd" stroke="none"/>
      <path d="M5.8 5.5 Q4.8 6.45 3.4 6.45 2.05 6.45 1.0 5.5 0.0 4.55 0.0 3.2 0.0 1.9 1.0 0.9 2.05 0.0 3.4 0.0 4.8 0.0 5.8 0.9 6.8 1.9 6.8 3.2 6.8 4.55 5.8 5.5 Z" fill="none" stroke="#000000" stroke-linecap="round" stroke-linejoin="round" stroke-opacity="0.4" stroke-width="0.4"/>
      <path d="M5.1 4.9 Q4.4 5.6 3.45 5.6 2.5 5.6 1.8 4.9 1.1 4.2 1.1 3.25 1.1 2.3 1.8 1.6 2.5 0.9 3.45 0.9 4.4 0.9 5.1 1.6 5.8 2.3 5.8 3.25 5.8 4.2 5.1 4.9" fill="#111111" fill-rule="evenodd" stroke="none"/>
    </g>
    <g id="shape7" transform="matrix(1.0, 0.0, 0.0, 1.0, 0.2, 0.2)">
      <path d="M1.15 6.2 Q0.0 5.15 0.0 3.65 0.0 2.15 1.15 1.05 2.35 0.0 4.05 0.0 5.75 0.0 6.9 1.05 8.1 2.15 8.1 3.65 8.1 5.15 6.9 6.2 5.75 7.3 4.05 7.3 2.35 7.3 1.15 6.2" fill="#ffffcc" fill-rule="evenodd" stroke="none"/>
      <path d="M1.15 6.2 Q0.0 5.15 0.0 3.65 0.0 2.15 1.15 1.05 2.35 0.0 4.05 0.0 5.75 0.0 6.9 1.05 8.1 2.15 8.1 3.65 8.1 5.15 6.9 6.2 5.75 7.3 4.05 7.3 2.35 7.3 1.15 6.2 Z" fill="none" stroke="#000000" stroke-linecap="round" stroke-linejoin="round" stroke-opacity="0.4" stroke-width="0.4"/>
    </g>
    <g id="shape8" transform="matrix(1.0, 0.0, 0.0, 1.0, 0.2, 0.2)">
      <path d="M0.0 4.6 Q0.0 2.7 1.55 1.35 3.15 0.0 5.4 0.0 7.6 0.0 9.15 1.35 10.75 2.7 10.75 4.6 10.75 6.5 9.15 7.85 7.6 9.2 5.4 9.2 3.15 9.2 1.55 7.85 0.0 6.5 0.0 4.6" fill="#ffffcc" fill-rule="evenodd" stroke="none"/>
      <path d="M0.0 4.6 Q0.0 2.7 1.55 1.35 3.15 0.0 5.4 0.0 7.6 0.0 9.15 1.35 10.75 2.7 10.75 4.6 10.75 6.5 9.15 7.85 7.6 9.2 5.4 9.2 3.15 9.2 1.55 7.85 0.0 6.5 0.0 4.6 Z" fill="none" stroke="#000000" stroke-linecap="round" stroke-linejoin="round" stroke-opacity="0.4" stroke-width="0.4"/>
      <path d="M7.1 6.4 Q6.45 7.15 5.45 7.15 4.4 7.15 3.7 6.4 3.05 5.6 3.05 4.5 3.05 3.45 3.7 2.65 4.4 1.9 5.45 1.9 6.45 1.9 7.1 2.65 7.85 3.45 7.85 4.5 7.85 5.6 7.1 6.4" fill="#111111" fill-rule="evenodd" stroke="none"/>
    </g>
    <g id="shape9" transform="matrix(1.0, 0.0, 0.0, 1.0, 86.95, 86.4)">
      <path d="M0.2 -86.4 Q0.65 -50.55 26.0 -25.2 51.5 0.3 87.35 0.75 51.5 1.15 26.0 26.55 0.65 52.05 0.2 87.9 -0.2 52.05 -25.75 26.55 -51.1 1.15 -86.95 0.75 -51.1 0.3 -25.75 -25.2 -0.2 -50.55 0.2 -86.4" fill="#ffffff" fill-rule="evenodd" stroke="none"/>
    </g>
  </defs>
</svg>
