<?xml version="1.0" encoding="UTF-8" standalone="no"?>
<svg xmlns:xlink="http://www.w3.org/1999/xlink" height="531.5px" width="460.6px" xmlns="http://www.w3.org/2000/svg">
  <g transform="matrix(1.0, 0.0, 0.0, 1.0, 193.65, 334.05)">
    <use height="46.45" transform="matrix(1.0, 0.0, 0.0, 1.0, -70.85, -25.75)" width="136.1" xlink:href="#shape0"/>
  </g>
  <defs>
    <g id="shape0" transform="matrix(1.0, 0.0, 0.0, 1.0, 70.85, 25.75)">
      <path d="M16.5 -7.55 L9.1 -4.1 4.1 -7.55 9.1 -4.1 16.5 -7.55 16.55 -7.45 21.15 -4.35 26.45 -8.05 21.15 -4.35 16.55 -7.45 16.5 -7.55 26.45 -8.05 35.7 -9.0 31.35 -5.05 35.7 -9.0 39.45 -7.7 35.7 -9.0 45.25 -10.35 46.1 -10.45 45.6 -8.3 44.7 -9.0 Q41.25 -9.35 39.45 -7.7 L39.9 -6.05 31.35 -5.05 31.3 -5.05 21.15 -4.35 Q15.1 -4.0 9.1 -4.1 L-1.75 -4.45 -12.85 -5.3 -12.95 -5.3 -22.0 -6.5 -23.05 -6.65 -32.05 -8.15 -33.25 -11.9 -27.7 -10.9 -22.0 -9.95 -17.7 -9.35 -7.3 -8.2 4.1 -7.55 Q10.3 -7.35 16.5 -7.55 M4.1 -7.55 L-1.75 -4.45 -7.3 -8.2 -1.75 -4.45 4.1 -7.55 M31.3 -5.05 L26.45 -8.05 31.3 -5.05 M-12.85 -5.3 L-7.3 -8.2 -12.85 -5.3 M-27.7 -10.9 L-32.05 -8.15 -27.7 -10.9 -23.05 -6.65 -17.7 -9.35 -12.95 -5.3 -17.7 -9.35 -23.05 -6.65 -27.7 -10.9" fill="#999999" fill-rule="evenodd" stroke="none"/>
      <path d="M16.5 -7.55 Q10.3 -7.35 4.1 -7.55 L-7.3 -8.2 -17.7 -9.35 -22.0 -9.95 -27.7 -10.9 -33.25 -11.9 -32.05 -8.15 -23.05 -6.65 -22.0 -6.5 -12.95 -5.3 -12.85 -5.3 -1.75 -4.45 9.1 -4.1 Q15.1 -4.0 21.15 -4.35 L31.3 -5.05 31.35 -5.05 39.9 -6.05 Q41.0 -1.75 44.05 3.65 39.9 11.6 32.9 16.55 6.15 24.9 -18.4 14.15 -31.7 3.6 -34.5 -4.45 -35.7 -7.95 -36.8 -9.95 L-37.4 -10.0 -45.15 -10.95 -45.65 -21.2 Q5.05 -14.0 53.95 -20.1 L52.55 -10.0 48.4 -9.5 47.75 -6.5 Q46.7 -7.35 45.6 -8.3 L46.1 -10.45 45.25 -10.35 35.7 -9.0 26.45 -8.05 16.5 -7.55 M50.85 -12.45 L49.9 -12.45 Q49.0 -12.0 48.5 -10.0 L48.4 -9.5 48.5 -10.0 Q49.0 -12.0 49.9 -12.45 L50.85 -12.45 M-39.65 -12.5 Q-38.25 -12.45 -36.8 -9.95 -38.25 -12.45 -39.65 -12.5 M37.15 3.25 L39.05 1.5 37.15 3.25 M28.95 12.1 Q30.85 11.65 33.1 10.4 L35.35 8.55 33.1 10.4 Q30.85 11.65 28.95 12.1 M33.8 13.2 Q30.15 15.2 26.65 15.2 L23.65 14.95 26.65 15.2 Q30.15 15.2 33.8 13.2 M-53.5 -12.2 L-69.0 -14.85 Q-71.65 -19.9 -69.0 -25.25 L-53.95 -22.5 -53.5 -12.2 M-6.4 9.75 Q-10.4 9.85 -12.7 6.75 -10.4 9.85 -6.4 9.75 M-13.05 11.05 Q-15.35 10.65 -17.45 9.45 -19.15 8.4 -19.65 7.55 -19.15 8.4 -17.45 9.45 -15.35 10.65 -13.05 11.05 M-1.0 14.7 L-5.4 14.35 Q-7.0 13.75 -7.7 12.95 -7.0 13.75 -5.4 14.35 L-1.0 14.7" fill="url(#gradient0)" fill-rule="evenodd" stroke="none"/>
      <path d="M39.9 -6.05 L39.45 -7.7 Q41.25 -9.35 44.7 -9.0 L45.6 -8.3 Q46.7 -7.35 47.75 -6.5 56.1 0.3 57.3 2.95 53.65 9.45 46.7 8.2 L44.05 3.65 Q41.0 -1.75 39.9 -6.05 M53.95 -20.1 L55.9 -20.35 59.7 -20.85 57.95 -10.7 57.1 -10.55 56.0 -10.45 54.45 -10.3 52.55 -10.0 53.95 -20.1 M47.75 6.05 Q52.1 6.5 54.85 2.2 L49.95 -1.25 45.9 1.5 47.75 6.05" fill="#cccccc" fill-rule="evenodd" stroke="none"/>
      <path d="M59.7 -20.85 L63.4 -21.45 Q66.4 -17.1 62.7 -11.4 L57.95 -10.7 59.7 -20.85" fill="#333333" fill-rule="evenodd" stroke="none"/>
      <path d="M-45.65 -21.2 L-45.15 -10.95 -53.15 -12.1 -53.5 -12.2 -53.95 -22.5 -45.65 -21.2" fill="#a6a6a6" fill-rule="evenodd" stroke="none"/>
      <path d="M4.1 -7.55 L9.1 -4.1 16.5 -7.55 16.55 -7.45 21.15 -4.35 26.45 -8.05 31.3 -5.05 M-7.3 -8.2 L-1.75 -4.45 4.1 -7.55 M31.35 -5.05 L35.7 -9.0 39.45 -7.7 M-7.3 -8.2 L-12.85 -5.3 M-27.7 -10.9 L-23.05 -6.65 -17.7 -9.35 -12.95 -5.3 M-32.05 -8.15 L-27.7 -10.9" fill="none" stroke="#000000" stroke-linecap="round" stroke-linejoin="round" stroke-opacity="0.4" stroke-width="0.5"/>
      <path d="M16.5 -7.55 Q10.3 -7.35 4.1 -7.55 L-7.3 -8.2 -17.7 -9.35 -22.0 -9.95 -27.7 -10.9 -33.25 -11.9 -32.05 -8.15 -23.05 -6.65 -22.0 -6.5 -12.95 -5.3 -12.85 -5.3 -1.75 -4.45 9.1 -4.1 Q15.1 -4.0 21.15 -4.35 L31.3 -5.05 31.35 -5.05 39.9 -6.05 39.45 -7.7 Q41.25 -9.35 44.7 -9.0 L45.6 -8.3 Q46.7 -7.35 47.75 -6.5 L48.4 -9.5 48.5 -10.0 Q49.0 -12.0 49.9 -12.45 L50.85 -12.45 M26.45 -8.05 L16.5 -7.55 M35.7 -9.0 L26.45 -8.05 M35.7 -9.0 L45.25 -10.35 46.1 -10.45 45.6 -8.3 M53.95 -20.1 L55.9 -20.35 59.7 -20.85 63.4 -21.45 Q66.4 -17.1 62.7 -11.4 L57.95 -10.7 57.1 -10.55 56.0 -10.45 54.45 -10.3 52.55 -10.0 48.4 -9.5 M52.55 -10.0 L53.95 -20.1 Q5.05 -14.0 -45.65 -21.2 L-45.15 -10.95 -37.4 -10.0 -36.8 -9.95 Q-38.25 -12.45 -39.65 -12.5 M59.7 -20.85 L57.95 -10.7 M44.05 3.65 L46.7 8.2 Q53.65 9.45 57.3 2.95 56.1 0.3 47.75 -6.5 M47.75 6.05 L45.9 1.5 49.95 -1.25 54.85 2.2 Q52.1 6.5 47.75 6.05 M23.65 14.95 L26.65 15.2 Q30.15 15.2 33.8 13.2 M35.35 8.55 L33.1 10.4 Q30.85 11.65 28.95 12.1 M39.05 1.5 L37.15 3.25 M44.05 3.65 Q39.9 11.6 32.9 16.55 6.15 24.9 -18.4 14.15 -31.7 3.6 -34.5 -4.45 -35.7 -7.95 -36.8 -9.95 M39.9 -6.05 Q41.0 -1.75 44.05 3.65 M-53.5 -12.2 L-69.0 -14.85 Q-71.65 -19.9 -69.0 -25.25 L-53.95 -22.5 -45.65 -21.2 M-53.95 -22.5 L-53.5 -12.2 -53.15 -12.1 -45.15 -10.95 M-7.7 12.95 Q-7.0 13.75 -5.4 14.35 L-1.0 14.7 M-19.65 7.55 Q-19.15 8.4 -17.45 9.45 -15.35 10.65 -13.05 11.05 M-12.7 6.75 Q-10.4 9.85 -6.4 9.75" fill="none" stroke="#000000" stroke-linecap="round" stroke-linejoin="round" stroke-opacity="0.4" stroke-width="1.0"/>
    </g>
    <linearGradient gradientTransform="matrix(-0.0608, 0.0, 0.0, -0.0253, 4.1, -0.4)" gradientUnits="userSpaceOnUse" id="gradient0" spreadMethod="pad" x1="-819.2" x2="819.2">
      <stop offset="0.0" stop-color="#333333"/>
      <stop offset="1.0" stop-color="#1f1f1f"/>
    </linearGradient>
  </defs>
</svg>
