<?xml version="1.0" encoding="UTF-8" standalone="no"?>
<svg xmlns:xlink="http://www.w3.org/1999/xlink" height="531.5px" width="460.6px" xmlns="http://www.w3.org/2000/svg">
  <g transform="matrix(1.0, 0.0, 0.0, 1.0, 193.65, 334.05)">
    <use height="89.6" transform="matrix(1.0, 0.0, 0.0, 1.0, -68.65, -98.25)" width="130.8" xlink:href="#shape0"/>
  </g>
  <defs>
    <g id="shape0" transform="matrix(1.0, 0.0, 0.0, 1.0, 68.65, 98.25)">
      <path d="M56.9 -77.3 L59.15 -81.45 Q62.85 -78.6 61.3 -74.0 59.5 -76.35 57.25 -76.95 L56.9 -77.3 M43.2 -69.7 Q41.05 -68.55 38.7 -67.6 L37.85 -68.65 Q36.45 -71.75 38.7 -74.55 39.65 -70.9 43.2 -69.7 M-17.95 -63.0 Q-19.6 -59.2 -25.5 -58.95 -23.05 -61.0 -23.05 -64.5 L-17.95 -63.0 M-56.65 -82.95 Q-60.55 -80.7 -65.95 -82.0 -62.05 -83.9 -61.6 -87.45 L-56.65 -82.95 M-41.0 -78.35 L-39.95 -83.55 Q-35.7 -79.4 -35.0 -75.15 -38.05 -76.6 -41.0 -78.35 M-5.65 -65.8 Q-4.6 -68.9 -5.65 -71.6 -0.7 -69.5 1.7 -64.5 L-5.65 -65.8" fill="#6b0d0d" fill-rule="evenodd" stroke="none"/>
      <path d="M59.15 -81.45 L56.9 -77.3 54.3 -73.4 Q49.0 -67.5 41.55 -63.95 L40.25 -63.35 37.5 -62.3 34.1 -61.35 31.25 -60.6 30.2 -60.4 27.7 -60.05 27.35 -59.9 25.55 -59.7 25.45 -61.8 26.65 -62.75 26.4 -63.8 28.15 -64.15 30.3 -64.75 32.3 -65.25 34.45 -65.95 36.35 -66.55 36.95 -66.9 Q37.75 -67.1 38.7 -67.6 41.05 -68.55 43.2 -69.7 L43.55 -69.95 Q57.75 -78.35 57.25 -95.6 59.75 -97.75 61.05 -95.15 62.45 -88.85 59.15 -81.45 M1.7 -64.5 L15.65 -63.35 17.3 -63.35 18.25 -63.35 17.15 -62.05 18.6 -61.1 18.7 -58.85 16.35 -58.75 Q-1.65 -58.6 -17.95 -63.0 L-23.05 -64.5 Q-28.6 -66.3 -33.9 -68.55 -46.45 -74.45 -56.65 -82.95 L-61.6 -87.45 Q-65.05 -90.65 -68.1 -94.1 -69.05 -97.75 -64.65 -97.85 -53.45 -85.55 -41.0 -78.35 -38.05 -76.6 -35.0 -75.15 L-32.75 -74.1 Q-19.5 -68.55 -5.65 -65.8 L1.7 -64.5" fill="#000000" fill-rule="evenodd" stroke="none"/>
      <path d="M17.4 -69.25 L22.85 -74.0 27.1 -68.9 26.4 -67.85 25.35 -67.0 25.45 -65.95 16.7 -50.95 9.95 -50.95 8.8 -49.15 Q3.95 -51.4 1.9 -54.25 4.65 -57.1 8.9 -58.5 L9.95 -56.7 18.85 -56.7 19.9 -56.7 19.65 -67.25 17.4 -69.25 M-5.2 -23.25 L-5.05 -23.85 Q-4.45 -28.35 0.25 -32.35 3.1 -33.9 6.75 -34.15 L-3.75 -16.9 -4.0 -17.35 -4.25 -17.85 -4.85 -19.6 Q-5.3 -21.5 -5.2 -23.25 M-4.45 -43.85 Q-1.85 -47.15 3.1 -47.95 L3.95 -46.3 14.0 -46.3 10.8 -41.0 4.05 -41.0 2.5 -39.35 Q-3.5 -41.6 -4.45 -43.85" fill="url(#gradient0)" fill-rule="evenodd" stroke="none"/>
      <path d="M18.6 -61.1 L18.35 -66.3 16.35 -67.85 17.4 -69.25 19.65 -67.25 19.9 -56.7 18.85 -56.7 18.85 -57.3 18.7 -58.85 18.6 -61.1 M1.9 -54.25 Q3.95 -51.4 8.8 -49.15 L9.95 -50.95 16.7 -50.95 19.4 -50.95 19.4 -46.3 18.25 -46.3 18.25 -49.65 10.55 -49.75 9.25 -47.95 Q5.8 -49.05 2.85 -51.5 1.9 -53.05 1.9 -54.25 M36.0 -50.1 L26.15 -50.0 26.3 -51.15 28.9 -51.15 33.95 -51.15 35.15 -51.15 36.0 -50.1 M42.5 -39.6 L26.3 -39.8 26.4 -41.25 28.65 -41.25 41.55 -41.0 42.5 -39.6 M47.2 -15.95 Q47.1 -13.95 43.9 -11.1 39.65 -8.75 36.2 -9.2 L36.1 -9.2 35.05 -9.2 33.25 -9.45 30.8 -10.05 30.2 -10.25 Q29.25 -10.5 28.4 -11.1 L27.0 -11.8 Q24.05 -13.95 22.25 -16.3 L22.15 -16.4 21.55 -15.7 Q16.7 -10.75 11.6 -9.3 L10.9 -9.2 7.0 -9.1 5.8 -9.2 2.75 -9.9 Q1.8 -10.25 0.85 -10.75 L0.25 -11.1 Q-1.4 -12.15 -2.7 -13.6 L-4.35 -15.8 -4.95 -16.75 -4.95 -16.9 -5.3 -17.6 -5.65 -19.5 Q-5.9 -21.4 -5.2 -23.25 -5.3 -21.5 -4.85 -19.6 L-4.25 -17.85 -4.0 -17.35 -3.75 -16.9 -2.0 -14.5 Q-0.8 -13.35 0.95 -12.4 L1.1 -12.4 Q2.5 -11.7 3.8 -11.35 5.35 -10.75 7.0 -10.75 L7.85 -10.6 Q10.2 -10.6 12.7 -11.35 14.45 -11.9 16.25 -12.75 19.65 -15.0 21.9 -17.35 L22.75 -18.4 Q24.75 -15.6 29.7 -12.65 L30.05 -12.5 31.35 -12.05 31.85 -11.9 34.7 -11.1 36.0 -10.85 37.4 -10.75 Q40.6 -10.75 43.2 -12.05 45.8 -13.8 47.2 -15.95 M17.75 -31.05 L17.75 -39.95 4.65 -39.95 3.0 -38.05 Q-1.85 -39.25 -4.45 -41.7 L-4.45 -43.85 Q-3.5 -41.6 2.5 -39.35 L4.05 -41.0 10.8 -41.0 16.95 -41.1 19.3 -41.1 19.2 -32.75 19.2 -30.0 18.25 -30.7 17.75 -31.05 M43.3 -21.4 L43.2 -22.1 42.6 -23.6 Q41.55 -25.75 39.9 -26.7 L39.75 -26.7 Q39.05 -27.15 38.0 -27.15 L34.7 -27.4 33.4 -27.3 30.2 -26.6 Q31.35 -27.5 33.25 -28.1 L35.85 -28.7 Q38.25 -28.95 40.45 -27.9 L40.7 -27.75 Q41.2 -27.4 41.65 -27.15 42.7 -26.0 43.2 -24.8 43.65 -23.6 43.55 -22.55 L43.3 -21.4 M2.5 -27.05 Q4.05 -28.95 7.5 -29.55 L8.3 -29.55 10.45 -29.3 10.55 -29.3 12.45 -28.7 Q13.4 -28.35 14.2 -27.65 L15.75 -26.6 16.0 -26.35 Q17.75 -24.55 18.0 -22.7 L15.5 -25.4 13.5 -26.7 11.6 -27.65 9.85 -28.25 7.5 -28.45 Q5.0 -28.35 2.5 -27.05 M22.15 -16.4 L21.9 -17.35 22.15 -16.4" fill="#3c3c3c" fill-rule="evenodd" stroke="none"/>
      <path d="M25.45 -61.8 L25.55 -59.7 25.55 -56.7 25.8 -56.7 24.05 -53.55 16.95 -41.1 10.8 -41.0 14.0 -46.3 18.25 -46.3 19.4 -46.3 19.4 -50.95 16.7 -50.95 25.45 -65.95 25.45 -63.7 25.45 -61.8 M31.6 -56.6 L35.05 -56.6 36.0 -58.4 37.3 -57.65 33.95 -51.15 28.9 -51.15 31.6 -56.6 M26.4 -46.45 L31.35 -46.3 28.65 -41.25 26.4 -41.25 26.3 -39.8 26.3 -36.65 25.1 -34.5 12.7 -11.35 Q10.2 -10.6 7.85 -10.6 L10.9 -16.9 11.6 -17.0 Q13.05 -17.6 14.2 -18.4 17.15 -20.8 18.0 -22.7 17.75 -24.55 16.0 -26.35 L16.45 -27.3 18.25 -30.7 19.2 -30.0 19.2 -32.75 26.4 -46.45 M6.75 -34.15 L10.2 -34.25 12.1 -33.8 12.8 -33.55 10.45 -29.3 8.3 -29.55 7.5 -29.55 Q4.05 -28.95 2.5 -27.05 1.45 -25.75 1.35 -23.6 1.2 -22.45 1.45 -20.9 L2.05 -19.6 Q2.75 -18.55 3.95 -17.85 L0.95 -12.4 Q-0.8 -13.35 -2.0 -14.5 L-3.75 -16.9 6.75 -34.15" fill="#aaaaaa" fill-rule="evenodd" stroke="none"/>
      <path d="M27.1 -68.9 L27.45 -68.55 26.4 -67.85 27.1 -68.9" fill="#b8b8b8" fill-rule="evenodd" stroke="none"/>
      <path d="M25.8 -56.7 L31.6 -56.6 28.9 -51.15 26.3 -51.15 26.15 -50.0 26.4 -46.45 19.2 -32.75 19.3 -41.1 16.95 -41.1 24.05 -53.55 25.8 -56.7 M37.3 -57.65 L38.8 -56.85 Q41.2 -55.3 42.7 -53.4 39.4 -50.35 36.8 -49.25 L36.0 -50.1 35.15 -51.15 33.95 -51.15 37.3 -57.65 M31.35 -46.3 L42.0 -45.95 43.9 -47.5 Q47.7 -45.75 49.6 -42.9 47.8 -40.4 45.3 -39.25 L43.45 -38.4 42.5 -39.6 41.55 -41.0 28.65 -41.25 31.35 -46.3 M12.8 -33.55 L13.85 -33.2 Q14.55 -32.75 15.5 -32.35 L17.15 -31.4 17.75 -31.05 18.25 -30.7 16.45 -27.3 16.0 -26.35 15.75 -26.6 14.2 -27.65 Q13.4 -28.35 12.45 -28.7 L10.55 -29.3 10.45 -29.3 12.8 -33.55 M10.9 -16.9 L7.85 -10.6 7.0 -10.75 Q5.35 -10.75 3.8 -11.35 2.5 -11.7 1.1 -12.4 L0.95 -12.4 3.95 -17.85 Q5.1 -17.1 6.55 -16.9 L8.3 -16.65 10.9 -16.9" fill="url(#gradient1)" fill-rule="evenodd" stroke="none"/>
      <path d="M26.3 -36.65 L26.3 -29.9 Q30.4 -33.9 38.25 -33.8 L40.25 -33.55 42.95 -32.75 40.45 -27.9 Q38.25 -28.95 35.85 -28.7 L33.25 -28.1 Q31.35 -27.5 30.2 -26.6 28.4 -25.05 27.95 -22.9 28.75 -19.95 33.5 -17.6 L33.6 -17.6 34.8 -17.1 31.85 -11.9 31.35 -12.05 30.05 -12.5 29.7 -12.65 Q24.75 -15.6 22.75 -18.4 L21.9 -17.35 Q19.65 -15.0 16.25 -12.75 14.45 -11.9 12.7 -11.35 L25.1 -34.5 26.3 -36.65 M45.9 -30.25 L47.45 -27.75 48.3 -25.5 48.4 -25.05 Q49.7 -20.45 47.7 -16.65 L47.2 -15.95 Q45.8 -13.8 43.2 -12.05 40.6 -10.75 37.4 -10.75 L36.0 -10.85 38.8 -16.3 39.3 -17.1 39.4 -17.25 41.75 -19.0 Q42.95 -20.2 43.3 -21.4 L43.55 -22.55 Q43.65 -23.6 43.2 -24.8 L45.9 -30.25" fill="url(#gradient2)" fill-rule="evenodd" stroke="none"/>
      <path d="M42.95 -32.75 L44.15 -31.8 Q45.2 -31.2 45.9 -30.25 L43.2 -24.8 Q42.7 -26.0 41.65 -27.15 41.2 -27.4 40.7 -27.75 L40.45 -27.9 42.95 -32.75 M34.8 -17.1 L35.05 -17.0 39.3 -17.1 38.8 -16.3 36.0 -10.85 34.7 -11.1 31.85 -11.9 34.8 -17.1" fill="#878787" fill-rule="evenodd" stroke="none"/>
      <path d="M59.15 -81.45 L56.9 -77.3 54.3 -73.4 Q49.0 -67.5 41.55 -63.95 L40.25 -63.35 37.5 -62.3 34.1 -61.35 31.25 -60.6 30.2 -60.4 27.7 -60.05 27.35 -59.9 25.55 -59.7 25.55 -56.7 25.8 -56.7 31.6 -56.6 35.05 -56.6 36.0 -58.4 37.3 -57.65 38.8 -56.85 Q41.2 -55.3 42.7 -53.4 39.4 -50.35 36.8 -49.25 L36.0 -50.1 26.15 -50.0 26.4 -46.45 31.35 -46.3 42.0 -45.95 43.9 -47.5 Q47.7 -45.75 49.6 -42.9 47.8 -40.4 45.3 -39.25 L43.45 -38.4 42.5 -39.6 26.3 -39.8 26.3 -36.65 26.3 -29.9 Q30.4 -33.9 38.25 -33.8 L40.25 -33.55 42.95 -32.75 44.15 -31.8 Q45.2 -31.2 45.9 -30.25 L47.45 -27.75 48.3 -25.5 48.4 -25.05 Q49.7 -20.45 47.7 -16.65 L47.2 -15.95 Q47.1 -13.95 43.9 -11.1 39.65 -8.75 36.2 -9.2 L36.1 -9.2 35.05 -9.2 33.25 -9.45 30.8 -10.05 30.2 -10.25 Q29.25 -10.5 28.4 -11.1 L27.0 -11.8 Q24.05 -13.95 22.25 -16.3 L22.15 -16.4 21.55 -15.7 Q16.7 -10.75 11.6 -9.3 L10.9 -9.2 7.0 -9.1 5.8 -9.2 2.75 -9.9 Q1.8 -10.25 0.85 -10.75 L0.25 -11.1 Q-1.4 -12.15 -2.7 -13.6 L-4.35 -15.8 -4.95 -16.75 -4.95 -16.9 -5.3 -17.6 -5.65 -19.5 Q-5.9 -21.4 -5.2 -23.25 L-5.05 -23.85 Q-4.45 -28.35 0.25 -32.35 3.1 -33.9 6.75 -34.15 L10.2 -34.25 12.1 -33.8 12.8 -33.55 13.85 -33.2 Q14.55 -32.75 15.5 -32.35 L17.15 -31.4 17.75 -31.05 17.75 -39.95 4.65 -39.95 3.0 -38.05 Q-1.85 -39.25 -4.45 -41.7 L-4.45 -43.85 Q-1.85 -47.15 3.1 -47.95 L3.95 -46.3 14.0 -46.3 18.25 -46.3 18.25 -49.65 10.55 -49.75 9.25 -47.95 Q5.8 -49.05 2.85 -51.5 1.9 -53.05 1.9 -54.25 3.95 -51.4 8.8 -49.15 L9.95 -50.95 16.7 -50.95 19.4 -50.95 19.4 -46.3 18.25 -46.3 M57.25 -76.95 Q59.5 -76.35 61.3 -74.0 62.85 -78.6 59.15 -81.45 62.45 -88.85 61.05 -95.15 59.75 -97.75 57.25 -95.6 57.75 -78.35 43.55 -69.95 L43.2 -69.7 Q41.05 -68.55 38.7 -67.6 37.75 -67.1 36.95 -66.9 L36.35 -66.55 34.45 -65.95 32.3 -65.25 30.3 -64.75 28.15 -64.15 26.4 -63.8 25.45 -63.7 25.45 -61.8 25.55 -59.7 M1.7 -64.5 L15.65 -63.35 17.3 -63.35 18.25 -63.35 M18.6 -61.1 L18.35 -66.3 16.35 -67.85 17.4 -69.25 22.85 -74.0 27.1 -68.9 27.45 -68.55 26.4 -67.85 25.35 -67.0 25.45 -65.95 25.45 -63.7 M17.4 -69.25 L19.65 -67.25 19.9 -56.7 18.85 -56.7 9.95 -56.7 8.9 -58.5 Q4.65 -57.1 1.9 -54.25 M18.7 -58.85 L16.35 -58.75 Q-1.65 -58.6 -17.95 -63.0 -19.6 -59.2 -25.5 -58.95 -23.05 -61.0 -23.05 -64.5 -28.6 -66.3 -33.9 -68.55 -46.45 -74.45 -56.65 -82.95 -60.55 -80.7 -65.95 -82.0 -62.05 -83.9 -61.6 -87.45 -65.05 -90.65 -68.1 -94.1 -69.05 -97.75 -64.65 -97.85 -53.45 -85.55 -41.0 -78.35 L-39.95 -83.55 Q-35.7 -79.4 -35.0 -75.15 L-32.75 -74.1 Q-19.5 -68.55 -5.65 -65.8 -4.6 -68.9 -5.65 -71.6 -0.7 -69.5 1.7 -64.5 L-5.65 -65.8 M18.85 -57.3 L18.7 -58.85 18.6 -61.1 M38.7 -67.6 L37.85 -68.65 Q36.45 -71.75 38.7 -74.55 39.65 -70.9 43.2 -69.7 M28.9 -51.15 L26.3 -51.15 26.15 -50.0 M36.0 -50.1 L35.15 -51.15 33.95 -51.15 28.9 -51.15 M28.65 -41.25 L26.4 -41.25 26.3 -39.8 M30.2 -26.6 L33.4 -27.3 34.7 -27.4 38.0 -27.15 Q39.05 -27.15 39.75 -26.7 L39.9 -26.7 Q41.55 -25.75 42.6 -23.6 L43.2 -22.1 43.3 -21.4 43.55 -22.55 Q43.65 -23.6 43.2 -24.8 42.7 -26.0 41.65 -27.15 41.2 -27.4 40.7 -27.75 L40.45 -27.9 Q38.25 -28.95 35.85 -28.7 L33.25 -28.1 Q31.35 -27.5 30.2 -26.6 28.4 -25.05 27.95 -22.9 28.75 -19.95 33.5 -17.6 L33.6 -17.6 34.8 -17.1 35.05 -17.0 39.3 -17.1 39.4 -17.25 41.75 -19.0 Q42.95 -20.2 43.3 -21.4 M16.95 -41.1 L10.8 -41.0 4.05 -41.0 2.5 -39.35 Q-3.5 -41.6 -4.45 -43.85 M19.2 -32.75 L19.3 -41.1 16.95 -41.1 M10.45 -29.3 L8.3 -29.55 7.5 -29.55 Q4.05 -28.95 2.5 -27.05 5.0 -28.35 7.5 -28.45 L9.85 -28.25 11.6 -27.65 13.5 -26.7 15.5 -25.4 18.0 -22.7 Q17.75 -24.55 16.0 -26.35 L15.75 -26.6 14.2 -27.65 Q13.4 -28.35 12.45 -28.7 L10.55 -29.3 10.45 -29.3 M18.25 -30.7 L17.75 -31.05 M18.25 -30.7 L19.2 -30.0 19.2 -32.75 M18.0 -22.7 Q17.15 -20.8 14.2 -18.4 13.05 -17.6 11.6 -17.0 L10.9 -16.9 8.3 -16.65 6.55 -16.9 Q5.1 -17.1 3.95 -17.85 2.75 -18.55 2.05 -19.6 L1.45 -20.9 Q1.2 -22.45 1.35 -23.6 1.45 -25.75 2.5 -27.05 M7.85 -10.6 Q10.2 -10.6 12.7 -11.35 14.45 -11.9 16.25 -12.75 19.65 -15.0 21.9 -17.35 L22.75 -18.4 Q24.75 -15.6 29.7 -12.65 L30.05 -12.5 31.35 -12.05 31.85 -11.9 34.7 -11.1 36.0 -10.85 37.4 -10.75 Q40.6 -10.75 43.2 -12.05 45.8 -13.8 47.2 -15.95 M0.95 -12.4 L1.1 -12.4 Q2.5 -11.7 3.8 -11.35 5.35 -10.75 7.0 -10.75 L7.85 -10.6 M21.9 -17.35 L22.15 -16.4 M42.5 -39.6 L41.55 -41.0 28.65 -41.25 M-17.95 -63.0 L-23.05 -64.5 M-56.65 -82.95 L-61.6 -87.45 M-3.75 -16.9 L-4.0 -17.35 -4.25 -17.85 -4.85 -19.6 Q-5.3 -21.5 -5.2 -23.25 M0.95 -12.4 Q-0.8 -13.35 -2.0 -14.5 L-3.75 -16.9 M-41.0 -78.35 Q-38.05 -76.6 -35.0 -75.15" fill="none" stroke="#000000" stroke-linecap="round" stroke-linejoin="round" stroke-opacity="0.4" stroke-width="0.8"/>
    </g>
    <linearGradient gradientTransform="matrix(0.0253, 0.0146, -0.0073, 0.0127, 19.4, -35.45)" gradientUnits="userSpaceOnUse" id="gradient0" spreadMethod="pad" x1="-819.2" x2="819.2">
      <stop offset="0.09803921568627451" stop-color="#7b7b7b"/>
      <stop offset="0.5529411764705883" stop-color="#333333"/>
      <stop offset="0.8823529411764706" stop-color="#383838"/>
      <stop offset="1.0" stop-color="#565656"/>
    </linearGradient>
    <radialGradient cx="0" cy="0" gradientTransform="matrix(0.0, 0.0, 0.0, 0.0, 12.8, -144.9)" gradientUnits="userSpaceOnUse" id="gradient1" r="819.2" spreadMethod="pad">
      <stop offset="0.09803921568627451" stop-color="#7b7b7b"/>
      <stop offset="0.5529411764705883" stop-color="#333333"/>
      <stop offset="0.8823529411764706" stop-color="#383838"/>
      <stop offset="1.0" stop-color="#565656"/>
    </radialGradient>
    <radialGradient cx="0" cy="0" gradientTransform="matrix(0.045, 0.0, 0.0, 0.045, 30.8, -23.6)" gradientUnits="userSpaceOnUse" id="gradient2" r="819.2" spreadMethod="pad">
      <stop offset="0.09803921568627451" stop-color="#7b7b7b"/>
      <stop offset="0.5529411764705883" stop-color="#333333"/>
      <stop offset="0.8823529411764706" stop-color="#383838"/>
      <stop offset="1.0" stop-color="#565656"/>
    </radialGradient>
  </defs>
</svg>
