<?xml version="1.0" encoding="UTF-8" standalone="no"?>
<svg xmlns:xlink="http://www.w3.org/1999/xlink" height="531.5px" width="460.6px" xmlns="http://www.w3.org/2000/svg">
  <g transform="matrix(1.0, 0.0, 0.0, 1.0, 193.65, 334.05)">
    <use height="103.0" transform="matrix(0.3395, 0.0, 0.0, 0.4246, 14.2309, -190.568)" width="113.05" xlink:href="#shape0"/>
    <clipPath id="clipPath0" transform="matrix(0.3395, 0.0, 0.0, 0.4246, 36.25, -168.7)">
      <path d="M34.05 -34.1 Q48.2 -19.95 48.2 0.0 48.2 19.95 34.05 34.05 19.95 48.2 0.0 48.2 -19.95 48.2 -34.1 34.05 -48.2 19.95 -48.2 0.0 -48.2 -19.95 -34.1 -34.1 -19.95 -48.2 0.0 -48.2 19.95 -48.2 34.05 -34.1" fill="url(#gradient2)" fill-rule="evenodd" stroke="none"/>
      <path d="M34.05 -34.1 Q48.2 -19.95 48.2 0.0 48.2 19.95 34.05 34.05 19.95 48.2 0.0 48.2 -19.95 48.2 -34.1 34.05 -48.2 19.95 -48.2 0.0 -48.2 -19.95 -34.1 -34.1 -19.95 -48.2 0.0 -48.2 19.95 -48.2 34.05 -34.1 Z" fill="none" stroke="#b61919" stroke-linecap="round" stroke-linejoin="round" stroke-width="1.0"/>
    </clipPath>
    <g clip-path="url(#clipPath0)">
      <use height="112.05" transform="matrix(0.3395, 0.0, 0.0, 0.4246, 20.4619, -195.65)" width="103.6" xlink:href="#shape2"/>
    </g>
    <use height="97.1" transform="matrix(0.3395, 0.0, 0.0, 0.4246, 19.7654, -189.3154)" width="97.1" xlink:href="#shape3"/>
    <use height="8.55" transform="matrix(1.5367, 0.0, 0.0, 1.5367, 2.1602, -176.3248)" width="11.05" xlink:href="#shape4"/>
    <use height="103.0" transform="matrix(0.4034, 0.0, 0.0, 0.4736, -39.9103, -192.3429)" width="113.05" xlink:href="#shape0"/>
    <clipPath id="clipPath1" transform="matrix(0.4034, 0.0, 0.0, 0.4736, -13.75, -167.95)">
      <path d="M34.05 -34.1 Q48.2 -19.95 48.2 0.0 48.2 19.95 34.05 34.05 19.95 48.2 0.0 48.2 -19.95 48.2 -34.1 34.05 -48.2 19.95 -48.2 0.0 -48.2 -19.95 -34.1 -34.1 -19.95 -48.2 0.0 -48.2 19.95 -48.2 34.05 -34.1" fill="url(#gradient5)" fill-rule="evenodd" stroke="none"/>
      <path d="M34.05 -34.1 Q48.2 -19.95 48.2 0.0 48.2 19.95 34.05 34.05 19.95 48.2 0.0 48.2 -19.95 48.2 -34.1 34.05 -48.2 19.95 -48.2 0.0 -48.2 -19.95 -34.1 -34.1 -19.95 -48.2 0.0 -48.2 19.95 -48.2 34.05 -34.1 Z" fill="none" stroke="#b61919" stroke-linecap="round" stroke-linejoin="round" stroke-width="1.0"/>
    </clipPath>
    <g clip-path="url(#clipPath1)">
      <use height="112.05" transform="matrix(0.4034, 0.0, 0.0, 0.4736, -32.4959, -198.048)" width="103.6" xlink:href="#shape2"/>
    </g>
    <use height="97.1" transform="matrix(0.4034, 0.0, 0.0, 0.4736, -33.3349, -190.9456)" width="97.1" xlink:href="#shape3"/>
    <use height="10.15" transform="matrix(1.5367, 0.0, 0.0, 1.5367, -64.3007, -177.0932)" width="19.2" xlink:href="#shape5"/>
  </g>
  <defs>
    <g id="shape0" transform="matrix(1.0, 0.0, 0.0, 1.0, 64.85, 51.5)">
      <path d="M3.9 -38.8 L7.1 -38.35 10.0 -37.75 10.8 -37.55 Q20.15 -34.9 27.5 -27.55 38.95 -16.1 38.95 0.0 38.95 16.1 27.5 27.5 19.45 35.65 8.95 38.0 L8.55 38.1 8.35 38.15 8.3 38.15 7.9 38.2 3.95 38.8 0.5 38.95 0.0 38.95 Q-5.2 38.95 -9.95 37.75 -19.85 35.25 -27.55 27.5 -38.95 16.1 -38.95 0.0 -38.95 -16.1 -27.55 -27.55 -19.85 -35.25 -9.95 -37.75 -5.2 -38.95 0.0 -38.95 L0.55 -38.95 3.9 -38.8" fill="url(#gradient0)" fill-rule="evenodd" stroke="none"/>
      <path d="M8.8 -47.45 L9.95 -47.25 12.4 -46.7 13.35 -46.45 Q24.95 -43.2 34.05 -34.1 48.2 -19.95 48.2 0.0 48.2 19.95 34.05 34.05 24.05 44.1 11.05 47.05 L10.6 47.15 10.55 47.15 10.35 47.2 10.3 47.2 9.75 47.3 4.9 48.0 0.6 48.2 0.0 48.2 Q-6.45 48.2 -12.3 46.7 -24.55 43.6 -34.1 34.05 -48.2 19.95 -48.2 0.0 -48.2 -19.95 -34.1 -34.1 -24.55 -43.65 -12.3 -46.7 -6.45 -48.2 0.0 -48.2 L0.65 -48.2 4.8 -48.0 8.8 -47.45 M3.9 -38.8 L0.55 -38.95 0.0 -38.95 Q-5.2 -38.95 -9.95 -37.75 -19.85 -35.25 -27.55 -27.55 -38.95 -16.1 -38.95 0.0 -38.95 16.1 -27.55 27.5 -19.85 35.25 -9.95 37.75 -5.2 38.95 0.0 38.95 L0.5 38.95 3.95 38.8 7.9 38.2 8.3 38.15 8.35 38.15 8.55 38.1 8.95 38.0 Q19.45 35.65 27.5 27.5 38.95 16.1 38.95 0.0 38.95 -16.1 27.5 -27.55 20.15 -34.9 10.8 -37.55 L10.0 -37.75 7.1 -38.35 3.9 -38.8" fill="url(#gradient1)" fill-rule="evenodd" stroke="none"/>
      <path d="M9.75 47.3 L1.85 49.05 -4.85 50.55 -12.7 51.15 -13.35 51.15 Q-20.2 51.15 -26.4 49.6 -39.4 46.3 -49.55 36.15 -64.5 21.2 -64.5 0.0 -64.5 -21.2 -49.55 -36.2 -39.4 -46.35 -26.4 -49.6 -20.2 -51.15 -13.35 -51.15 L-12.65 -51.15 -2.8 -50.15 0.8 -49.3 1.15 -49.2 2.4 -48.8 8.8 -47.45 4.8 -48.0 0.65 -48.2 0.0 -48.2 Q-6.45 -48.2 -12.3 -46.7 -24.55 -43.65 -34.1 -34.1 -48.2 -19.95 -48.2 0.0 -48.2 19.95 -34.1 34.05 -24.55 43.6 -12.3 46.7 -6.45 48.2 0.0 48.2 L0.6 48.2 4.9 48.0 9.75 47.3" fill="#291e1e" fill-rule="evenodd" stroke="none"/>
      <path d="M10.6 47.15 L10.35 47.2 M1.85 49.05 L-1.6 49.95 -2.15 50.05 -4.85 50.55 M3.9 -38.8 L7.1 -38.35 10.0 -37.75 10.8 -37.55 Q20.15 -34.9 27.5 -27.55 38.95 -16.1 38.95 0.0 38.95 16.1 27.5 27.5 19.45 35.65 8.95 38.0 L8.55 38.1 8.35 38.15 8.3 38.15 7.9 38.2 3.95 38.8 0.5 38.95 0.0 38.95 Q-5.2 38.95 -9.95 37.75 -19.85 35.25 -27.55 27.5 -38.95 16.1 -38.95 0.0 -38.95 -16.1 -27.55 -27.55 -19.85 -35.25 -9.95 -37.75 -5.2 -38.95 0.0 -38.95 L0.55 -38.95 3.9 -38.8" fill="none" stroke="#000000" stroke-linecap="round" stroke-linejoin="round" stroke-opacity="0.4" stroke-width="1.0"/>
      <path d="M9.75 47.3 L1.85 49.05 -4.85 50.55 -12.7 51.15 -13.35 51.15 Q-20.2 51.15 -26.4 49.6 -39.4 46.3 -49.55 36.15 -64.5 21.2 -64.5 0.0 -64.5 -21.2 -49.55 -36.2 -39.4 -46.35 -26.4 -49.6 -20.2 -51.15 -13.35 -51.15 L-12.65 -51.15 -2.8 -50.15 0.8 -49.3 1.15 -49.2 2.4 -48.8 8.8 -47.45 4.8 -48.0 0.65 -48.2 0.0 -48.2 Q-6.45 -48.2 -12.3 -46.7 -24.55 -43.65 -34.1 -34.1 -48.2 -19.95 -48.2 0.0 -48.2 19.95 -34.1 34.05 -24.55 43.6 -12.3 46.7 -6.45 48.2 0.0 48.2 L0.6 48.2 4.9 48.0 9.75 47.3" fill="none" stroke="#000000" stroke-linecap="round" stroke-linejoin="round" stroke-opacity="0.4" stroke-width="0.7000000000000001"/>
    </g>
    <linearGradient gradientTransform="matrix(0.0453, 0.0, 0.0, 0.0588, 0.0, 0.0)" gradientUnits="userSpaceOnUse" id="gradient0" spreadMethod="pad" x1="-819.2" x2="819.2">
      <stop offset="0.0" stop-color="#d4d1d1"/>
      <stop offset="1.0" stop-color="#ffffff"/>
    </linearGradient>
    <linearGradient gradientTransform="matrix(0.0453, 0.0, 0.0, 0.0588, 0.0, 0.0)" gradientUnits="userSpaceOnUse" id="gradient1" spreadMethod="pad" x1="-819.2" x2="819.2">
      <stop offset="0.0" stop-color="#666565"/>
      <stop offset="1.0" stop-color="#aaaaaa"/>
    </linearGradient>
    <linearGradient gradientTransform="matrix(0.0588, 0.0, 0.0, 0.0588, 0.0, 0.0)" gradientUnits="userSpaceOnUse" id="gradient2" spreadMethod="pad" x1="-819.2" x2="819.2">
      <stop offset="0.0" stop-color="#333333"/>
      <stop offset="1.0" stop-color="#212121"/>
    </linearGradient>
    <g id="shape2" transform="matrix(1.0, 0.0, 0.0, 1.0, 51.8, 56.05)">
      <path d="M15.15 -19.25 Q7.8 -26.45 2.5 -27.75 -2.8 -29.05 -6.65 -28.8 L-9.8 -28.65 Q-22.45 -27.7 -31.75 -18.4 -40.05 -10.1 -41.7 1.0 L-42.05 5.15 -42.1 6.7 Q-42.1 22.45 -31.05 33.5 -21.4 43.1 -8.25 44.45 L-4.45 44.6 -4.2 44.6 -3.95 44.6 -0.15 44.45 Q15.65 43.15 27.35 31.55 40.4 18.45 40.4 0.0 40.4 -5.35 39.35 -10.2 36.65 -22.25 27.35 -31.55 14.25 -44.65 -4.2 -44.65 L-4.25 -44.65 -4.2 -55.7 Q18.8 -55.7 35.15 -39.35 51.45 -23.05 51.45 0.0 51.45 23.05 35.15 39.35 20.6 53.85 0.85 55.45 L-3.9 55.65 -4.2 55.65 -4.5 55.65 -9.25 55.45 Q-25.65 53.8 -37.65 41.8 -51.45 28.0 -51.45 8.4 -51.45 -11.1 -37.65 -24.95 -25.35 -37.25 -8.5 -38.6 L-4.25 -38.8 -4.2 -38.8 -0.4 -38.65 Q12.65 -37.4 22.25 -27.8 33.25 -16.8 33.25 -1.3 33.25 14.25 22.25 25.2 11.25 36.2 -4.25 36.2 L-5.25 36.2 -9.05 35.95 Q-18.35 34.65 -25.25 27.75 -33.7 19.3 -33.7 7.35 L-33.6 4.9 Q-33.15 -1.0 -30.55 -5.95 -28.55 -9.75 -25.25 -13.05 -17.7 -20.6 -7.3 -21.4 1.2 -20.7 7.45 -14.45 13.95 -7.95 14.5 0.9 14.0 4.05 12.5 6.8 11.2 9.15 9.15 11.2 3.85 16.45 -3.45 16.8 -8.2 16.2 -11.75 12.65 -14.2 10.2 -15.2 7.25 L-15.2 7.2 Q-15.2 3.2 -12.35 0.35 -11.05 -0.95 -9.55 -1.65 L-6.9 -2.45 Q-2.15 -1.95 -2.05 3.35 -1.95 5.85 -5.05 7.4 3.65 7.3 4.3 0.95 4.0 -3.75 0.55 -7.25 -2.75 -10.55 -7.3 -10.95 L-7.6 -10.9 Q-13.65 -10.35 -18.05 -5.85 -22.0 -1.95 -22.85 3.35 L-23.05 4.95 -23.1 6.55 Q-23.1 14.25 -17.7 19.75 -12.35 25.15 -4.65 25.65 L-4.25 25.65 Q6.8 25.65 14.65 17.85 22.45 10.05 22.45 -1.05 22.45 -12.1 15.15 -19.25" fill="url(#gradient3)" fill-rule="evenodd" stroke="none"/>
      <path d="M15.15 -19.25 Q7.8 -26.45 2.5 -27.75 -2.8 -29.05 -6.65 -28.8 L-9.8 -28.65 Q-22.45 -27.7 -31.75 -18.4 -40.05 -10.1 -41.7 1.0 L-42.05 5.15 -42.1 6.7 Q-42.1 22.45 -31.05 33.5 -21.4 43.1 -8.25 44.45 L-4.45 44.6 -4.2 44.6 -3.95 44.6 -0.15 44.45 Q15.65 43.15 27.35 31.55 40.4 18.45 40.4 0.0 40.4 -5.35 39.35 -10.2 36.65 -22.25 27.35 -31.55 14.25 -44.65 -4.2 -44.65 L-4.25 -44.65 -4.2 -55.7 Q18.8 -55.7 35.15 -39.35 51.45 -23.05 51.45 0.0 51.45 23.05 35.15 39.35 20.6 53.85 0.85 55.45 L-3.9 55.65 -4.2 55.65 -4.5 55.65 -9.25 55.45 Q-25.65 53.8 -37.65 41.8 -51.45 28.0 -51.45 8.4 -51.45 -11.1 -37.65 -24.95 -25.35 -37.25 -8.5 -38.6 L-4.25 -38.8 -4.2 -38.8 -0.4 -38.65 Q12.65 -37.4 22.25 -27.8 33.25 -16.8 33.25 -1.3 33.25 14.25 22.25 25.2 11.25 36.2 -4.25 36.2 L-5.25 36.2 -9.05 35.95 Q-18.35 34.65 -25.25 27.75 -33.7 19.3 -33.7 7.35 L-33.6 4.9 Q-33.15 -1.0 -30.55 -5.95 -28.55 -9.75 -25.25 -13.05 -17.7 -20.6 -7.3 -21.4 1.2 -20.7 7.45 -14.45 13.95 -7.95 14.5 0.9 14.0 4.05 12.5 6.8 11.2 9.15 9.15 11.2 3.85 16.45 -3.45 16.8 -8.2 16.2 -11.75 12.65 -14.2 10.2 -15.2 7.25 L-15.2 7.2 Q-15.2 3.2 -12.35 0.35 -11.05 -0.95 -9.55 -1.65 L-6.9 -2.45 Q-2.15 -1.95 -2.05 3.35 -1.95 5.85 -5.05 7.4 3.65 7.3 4.3 0.95 4.0 -3.75 0.55 -7.25 -2.75 -10.55 -7.3 -10.95 L-7.6 -10.9 Q-13.65 -10.35 -18.05 -5.85 -22.0 -1.95 -22.85 3.35 L-23.05 4.95 -23.1 6.55 Q-23.1 14.25 -17.7 19.75 -12.35 25.15 -4.65 25.65 L-4.25 25.65 Q6.8 25.65 14.65 17.85 22.45 10.05 22.45 -1.05 22.45 -12.1 15.15 -19.25 Z" fill="none" stroke="#000000" stroke-linecap="round" stroke-linejoin="round" stroke-opacity="0.4" stroke-width="0.7000000000000001"/>
    </g>
    <linearGradient gradientTransform="matrix(0.0, 0.0, 0.0, 0.0, -212.7, -298.25)" gradientUnits="userSpaceOnUse" id="gradient3" spreadMethod="pad" x1="-819.2" x2="819.2">
      <stop offset="0.0" stop-color="#333333"/>
      <stop offset="1.0" stop-color="#212121"/>
    </linearGradient>
    <g id="shape3" transform="matrix(1.0, 0.0, 0.0, 1.0, 48.55, 48.55)">
      <path d="M13.35 -46.45 Q24.95 -43.2 34.05 -34.1 48.2 -19.95 48.2 0.0 48.2 19.95 34.05 34.05 24.05 44.1 11.05 47.05 L10.6 47.15 10.55 47.15 10.35 47.2 10.3 47.2 9.75 47.3 4.9 48.0 0.6 48.2 0.0 48.2 Q-6.45 48.2 -12.3 46.7 -24.55 43.6 -34.1 34.05 -48.2 19.95 -48.2 0.0 -48.2 -19.95 -34.1 -34.1 -24.55 -43.65 -12.3 -46.7 -6.45 -48.2 0.0 -48.2 L0.65 -48.2 4.8 -48.0 8.8 -47.45 9.95 -47.25 12.4 -46.7 13.35 -46.45 M0.55 -38.95 L0.0 -38.95 Q-5.2 -38.95 -9.95 -37.75 -19.85 -35.25 -27.55 -27.55 -38.95 -16.1 -38.95 0.0 -38.95 16.1 -27.55 27.5 -19.85 35.25 -9.95 37.75 -5.2 38.95 0.0 38.95 L0.5 38.95 3.95 38.8 7.9 38.2 8.3 38.15 8.35 38.15 8.55 38.1 8.95 38.0 Q19.45 35.65 27.5 27.5 38.95 16.1 38.95 0.0 38.95 -16.1 27.5 -27.55 20.15 -34.9 10.8 -37.55 L10.0 -37.75 7.1 -38.35 3.9 -38.8 0.55 -38.95" fill="url(#gradient4)" fill-rule="evenodd" stroke="none"/>
      <path d="M13.35 -46.45 Q24.95 -43.2 34.05 -34.1 48.2 -19.95 48.2 0.0 48.2 19.95 34.05 34.05 24.05 44.1 11.05 47.05 L10.6 47.15 10.55 47.15 10.35 47.2 10.3 47.2 9.75 47.3 4.9 48.0 0.6 48.2 0.0 48.2 Q-6.45 48.2 -12.3 46.7 -24.55 43.6 -34.1 34.05 -48.2 19.95 -48.2 0.0 -48.2 -19.95 -34.1 -34.1 -24.55 -43.65 -12.3 -46.7 -6.45 -48.2 0.0 -48.2 L0.65 -48.2 4.8 -48.0 8.8 -47.45 9.95 -47.25 12.4 -46.7 13.35 -46.45 M0.55 -38.95 L3.9 -38.8 7.1 -38.35 10.0 -37.75 10.8 -37.55 Q20.15 -34.9 27.5 -27.55 38.95 -16.1 38.95 0.0 38.95 16.1 27.5 27.5 19.45 35.65 8.95 38.0 L8.55 38.1 8.35 38.15 8.3 38.15 7.9 38.2 3.95 38.8 0.5 38.95 0.0 38.95 Q-5.2 38.95 -9.95 37.75 -19.85 35.25 -27.55 27.5 -38.95 16.1 -38.95 0.0 -38.95 -16.1 -27.55 -27.55 -19.85 -35.25 -9.95 -37.75 -5.2 -38.95 0.0 -38.95 L0.55 -38.95" fill="none" stroke="#000000" stroke-linecap="round" stroke-linejoin="round" stroke-opacity="0.4" stroke-width="0.7000000000000001"/>
    </g>
    <linearGradient gradientTransform="matrix(0.0453, 0.0, 0.0, 0.0588, 0.0, 0.0)" gradientUnits="userSpaceOnUse" id="gradient4" spreadMethod="pad" x1="-819.2" x2="819.2">
      <stop offset="0.0" stop-color="#664444"/>
      <stop offset="1.0" stop-color="#aa8484"/>
    </linearGradient>
    <g id="shape4" transform="matrix(1.0, 0.0, 0.0, 1.0, -5.05, 5.45)">
      <path d="M14.95 -2.3 Q16.0 -0.15 15.65 1.6 15.25 3.35 14.5 2.45 L12.85 0.1 Q10.9 -2.15 5.55 1.9 L5.4 -2.3 Q10.2 -7.9 14.95 -2.3" fill="#626262" fill-rule="evenodd" stroke="none"/>
      <path d="M14.95 -2.3 Q16.0 -0.15 15.65 1.6 15.25 3.35 14.5 2.45 L12.85 0.1 Q10.9 -2.15 5.55 1.9 L5.4 -2.3 Q10.2 -7.9 14.95 -2.3 Z" fill="none" stroke="#000000" stroke-linecap="round" stroke-linejoin="round" stroke-opacity="0.4" stroke-width="0.7000000000000001"/>
    </g>
    <linearGradient gradientTransform="matrix(0.0588, 0.0, 0.0, 0.0588, 0.0, 0.0)" gradientUnits="userSpaceOnUse" id="gradient5" spreadMethod="pad" x1="-819.2" x2="819.2">
      <stop offset="0.0" stop-color="#333333"/>
      <stop offset="1.0" stop-color="#212121"/>
    </linearGradient>
    <g id="shape5" transform="matrix(1.0, 0.0, 0.0, 1.0, 38.2, 5.95)">
      <path d="M-25.35 -2.45 L-25.9 -1.85 -26.0 -1.25 -26.1 -0.4 -25.95 0.95 Q-32.85 -5.85 -34.3 -1.95 -36.4 4.0 -37.85 0.75 -36.45 -4.65 -32.45 -5.3 -29.55 -5.75 -25.35 -3.8 L-25.35 -2.45 -25.35 -3.8 Q-29.55 -5.75 -32.45 -5.3 -28.25 -6.3 -23.75 -4.15 L-25.3 -3.8 -25.35 -3.8 -25.3 -3.8 -23.75 -4.15 -19.45 -3.1 -19.35 -3.15 -19.35 3.05 -23.1 3.85 -25.2 1.65 -24.8 1.25 -24.3 1.65 Q-23.95 1.65 -23.75 1.05 -23.5 0.45 -23.5 -0.4 -23.5 -1.25 -23.75 -1.85 -23.95 -2.45 -24.3 -2.45 L-24.35 -2.45 -25.1 -2.4 -25.3 -2.45 -25.35 -2.45 M-25.3 -3.8 Q-24.25 -3.35 -23.15 -2.7 L-23.1 3.85 -23.15 -2.7 Q-24.25 -3.35 -25.3 -3.8 M-23.15 -2.7 L-19.45 -3.1 -23.15 -2.7" fill="#626262" fill-rule="evenodd" stroke="none"/>
      <path d="M-25.95 0.95 L-26.1 -0.4 -26.0 -1.25 -25.9 -1.85 -25.35 -2.45 -25.3 -2.45 -25.1 -2.4 -24.35 -2.45 -24.3 -2.45 Q-23.95 -2.45 -23.75 -1.85 -23.5 -1.25 -23.5 -0.4 -23.5 0.45 -23.75 1.05 -23.95 1.65 -24.3 1.65 L-24.8 1.25 -25.2 1.65 -25.4 1.45 -25.95 0.95 M-24.6 0.65 L-24.75 1.05 -24.8 1.25 -24.75 1.05 -24.6 0.65 -26.0 -1.25 -24.6 0.65 -24.5 -0.4 Q-24.5 -1.25 -24.75 -1.85 L-24.8 -2.0 -25.1 -2.4 -24.8 -2.0 -24.75 -1.85 Q-24.5 -1.25 -24.5 -0.4 L-24.6 0.65" fill="#aaaaaa" fill-rule="evenodd" stroke="none"/>
      <path d="M-25.95 0.95 L-26.1 -0.4 -26.0 -1.25 -25.9 -1.85 -25.35 -2.45 -25.35 -3.8 Q-29.55 -5.75 -32.45 -5.3 M-25.2 1.65 L-24.8 1.25 -24.75 1.05 -24.6 0.65 -24.5 -0.4 Q-24.5 -1.25 -24.75 -1.85 L-24.8 -2.0 -25.1 -2.4 -24.35 -2.45 -24.3 -2.45 Q-23.95 -2.45 -23.75 -1.85 -23.5 -1.25 -23.5 -0.4 -23.5 0.45 -23.75 1.05 -23.95 1.65 -24.3 1.65 L-24.8 1.25 M-25.35 -3.8 L-25.3 -3.8 -23.75 -4.15 M-25.35 -2.45 L-25.3 -2.45 -25.1 -2.4 M-23.1 3.85 L-23.15 -2.7 Q-24.25 -3.35 -25.3 -3.8 M-19.45 -3.1 L-23.15 -2.7" fill="none" stroke="#000000" stroke-linecap="round" stroke-linejoin="round" stroke-opacity="0.4" stroke-width="0.30000000000000004"/>
      <path d="M-32.45 -5.3 Q-36.45 -4.65 -37.85 0.75 -36.4 4.0 -34.3 -1.95 -32.85 -5.85 -25.95 0.95 L-25.9 1.05 -25.3 1.65 -25.2 1.65 -23.1 3.85 -19.35 3.05 -19.35 -3.15 -19.45 -3.1 -23.75 -4.15 Q-28.25 -6.3 -32.45 -5.3 M-24.6 0.65 L-26.0 -1.25" fill="none" stroke="#000000" stroke-linecap="round" stroke-linejoin="round" stroke-opacity="0.4" stroke-width="0.7000000000000001"/>
    </g>
  </defs>
</svg>
