<?xml version="1.0" encoding="UTF-8" standalone="no"?>
<svg xmlns:xlink="http://www.w3.org/1999/xlink" height="531.5px" width="460.6px" xmlns="http://www.w3.org/2000/svg">
  <g transform="matrix(1.0, 0.0, 0.0, 1.0, 193.65, 334.05)">
    <use height="17.0" transform="matrix(1.5874, 0.0, 0.0, 1.5874, -162.5411, -32.4065)" width="63.95" xlink:href="#shape0"/>
    <use height="20.05" transform="matrix(1.5874, 0.0, 0.0, 1.5874, -65.4657, -32.3087)" width="79.25" xlink:href="#shape1"/>
  </g>
  <defs>
    <g id="shape0" transform="matrix(1.0, 0.0, 0.0, 1.0, 15.05, 6.65)">
      <path d="M36.5 6.05 L33.95 5.7 Q32.3 5.15 31.7 5.15 30.6 5.15 22.35 0.15 14.05 -4.85 9.95 -4.85 8.1 -4.85 6.35 -3.95 4.35 -2.95 -0.85 1.6 M47.4 5.15 Q43.45 6.25 40.15 6.25 L36.5 6.05 Z" fill="none" stroke="#000000" stroke-linecap="round" stroke-linejoin="round" stroke-width="3.0"/>
      <path d="M-1.1 0.2 Q-0.9 0.25 -0.45 0.65 0.0 1.05 0.3 2.4 L-6.55 5.35 -1.1 0.2" fill="#260000" fill-rule="evenodd" stroke="none"/>
      <path d="M-1.1 0.2 L-6.55 5.35 0.3 2.4 1.9 4.6 4.45 7.1 4.5 7.1 Q3.4 8.1 1.25 9.0 -1.6 10.2 -4.3 10.2 -7.2 10.2 -10.45 9.2 -13.0 8.4 -14.9 7.3 L-14.9 7.2 Q-13.25 6.0 -9.7 1.05 -6.2 -3.9 -2.7 -6.4 L-2.6 -6.5 Q-3.35 -3.6 -1.1 0.2" fill="#aa0000" fill-rule="evenodd" stroke="none"/>
      <path d="M0.3 2.4 Q0.0 1.05 -0.45 0.65 -0.9 0.25 -1.1 0.2 L-6.55 5.35 0.3 2.4 1.9 4.6 4.45 7.1 4.5 7.1 Q3.4 8.1 1.25 9.0 -1.6 10.2 -4.3 10.2 -7.2 10.2 -10.45 9.2 -13.0 8.4 -14.9 7.3 L-14.9 7.2 Q-13.25 6.0 -9.7 1.05 -6.2 -3.9 -2.7 -6.4 L-2.6 -6.5 Q-3.35 -3.6 -1.1 0.2 M4.45 7.1 L4.5 7.1" fill="none" stroke="#000000" stroke-linecap="round" stroke-linejoin="round" stroke-opacity="0.4" stroke-width="0.30000000000000004"/>
    </g>
    <g id="shape1" transform="matrix(1.0, 0.0, 0.0, 1.0, -61.0, 0.1)">
      <path d="M61.45 7.5 L139.8 7.5 Q140.45 10.2 139.8 13.25 L61.45 13.25 Q60.85 10.55 61.45 7.5" fill="#330000" fill-rule="evenodd" stroke="none"/>
      <path d="M61.45 7.5 L139.8 7.5 Q140.45 10.2 139.8 13.25 L61.45 13.25 Q60.85 10.55 61.45 7.5 Z" fill="none" stroke="#000000" stroke-linecap="round" stroke-linejoin="round" stroke-opacity="0.4" stroke-width="0.30000000000000004"/>
      <path d="M121.95 9.95 Q121.95 14.0 119.05 16.85 116.2 19.8 112.1 19.8 108.0 19.8 105.1 16.85 102.2 14.0 102.2 9.95 102.2 5.8 105.1 2.9 108.0 0.05 112.1 0.05 115.15 0.05 117.55 1.65 L119.05 2.9 Q120.85 4.7 121.6 7.0 121.95 8.4 121.95 9.95" fill="#000000" fill-rule="evenodd" stroke="none"/>
      <path d="M121.95 9.95 Q121.95 14.0 119.05 16.85 116.2 19.8 112.1 19.8 108.0 19.8 105.1 16.85 102.2 14.0 102.2 9.95 102.2 5.8 105.1 2.9 108.0 0.05 112.1 0.05 115.15 0.05 117.55 1.65 L119.05 2.9 Q120.85 4.7 121.6 7.0 121.95 8.4 121.95 9.95 Z" fill="none" stroke="#000000" stroke-linecap="round" stroke-linejoin="round" stroke-opacity="0.4" stroke-width="0.30000000000000004"/>
      <path d="M121.2 9.95 Q121.2 13.7 118.5 16.3 115.85 19.0 112.1 19.0 108.35 19.0 105.7 16.3 103.05 13.7 103.05 9.95 103.05 6.2 105.7 3.5 108.35 0.85 112.1 0.85 114.95 0.85 117.1 2.35 L118.5 3.5 Q120.15 5.15 120.8 7.3 121.2 8.55 121.2 9.95" fill="url(#gradient0)" fill-rule="evenodd" stroke="none"/>
      <path d="M121.2 9.95 Q121.2 13.7 118.5 16.3 115.85 19.0 112.1 19.0 108.35 19.0 105.7 16.3 103.05 13.7 103.05 9.95 103.05 6.2 105.7 3.5 108.35 0.85 112.1 0.85 114.95 0.85 117.1 2.35 L118.5 3.5 Q120.15 5.15 120.8 7.3 121.2 8.55 121.2 9.95 Z" fill="none" stroke="#000000" stroke-linecap="round" stroke-linejoin="round" stroke-opacity="0.4" stroke-width="0.30000000000000004"/>
      <path d="M112.8 2.2 L113.5 3.95 113.65 4.1 114.7 6.8 114.95 7.05 117.4 7.0 117.7 7.15 117.75 7.35 118.35 7.35 118.6 7.3 118.9 7.35 119.25 7.4 119.25 7.5 119.25 7.6 119.1 7.8 119.1 7.85 119.0 7.85 115.95 10.15 116.1 10.65 116.1 10.9 116.2 11.05 117.35 14.05 117.3 14.35 117.55 15.0 117.45 15.3 117.35 15.7 117.25 15.7 117.1 15.55 113.65 13.3 113.55 13.3 113.35 13.15 112.65 12.75 111.3 13.8 111.0 13.75 109.15 15.2 108.85 15.2 108.05 15.7 108.0 15.7 107.8 15.8 107.65 15.7 107.75 15.35 107.8 15.3 107.75 15.05 108.0 14.45 107.9 14.15 109.0 11.3 109.1 11.15 109.1 10.9 109.3 10.3 107.5 9.15 107.35 8.8 107.3 8.65 106.85 8.35 Q106.15 8.0 106.25 7.65 L106.25 7.55 106.0 7.3 106.0 7.25 106.1 7.1 Q106.1 7.0 106.25 7.0 L110.1 6.95 110.15 6.85 110.4 6.85 110.65 6.85 111.6 4.25 111.75 4.1 112.45 2.25 112.55 2.05 112.6 2.0 112.65 2.0 112.8 2.05 112.8 2.2 M106.9 7.8 L107.2 8.0 107.1 7.8 106.9 7.8 M114.7 9.95 L114.8 9.9 114.2 8.05 111.1 8.05 110.35 9.95 112.65 11.45 114.4 10.15 114.6 10.15 114.7 9.95 M113.55 12.1 L113.7 12.3 113.8 12.3 116.45 14.05 116.6 14.4 116.7 14.45 115.65 11.7 115.55 11.7 115.45 11.5 115.2 10.85 114.95 11.05 113.55 12.1 M115.15 8.05 L115.6 9.25 117.4 7.9 117.1 7.9 116.9 8.0 115.15 8.05 M112.5 3.8 L112.4 3.95 112.35 4.3 111.4 6.85 113.8 6.8 112.85 4.2 112.8 4.1 112.7 3.85 112.55 3.55 112.5 3.8 M107.95 8.5 L108.1 8.5 109.65 9.45 110.15 8.0 107.35 8.05 107.95 8.5 M109.5 11.9 L108.35 14.9 109.0 14.45 109.15 14.2 111.8 12.15 109.95 11.0 109.75 11.65 109.6 11.85 109.5 11.9" fill="#000000" fill-rule="evenodd" stroke="none"/>
      <path d="M112.3 3.4 L112.9 4.85 113.0 5.05 113.9 7.3 114.1 7.5 116.2 7.45 116.45 7.6 116.5 7.75 117.0 7.75 117.2 7.7 117.5 7.75 117.8 7.8 117.8 7.9 117.8 8.0 117.65 8.15 117.65 8.2 117.55 8.2 114.95 10.15 115.1 10.55 115.1 10.8 115.2 10.95 116.2 13.45 116.1 13.7 116.35 14.25 116.2 14.55 116.25 14.55 116.2 14.85 116.1 14.85 115.95 14.75 113.0 12.8 112.9 12.85 112.75 12.75 112.15 12.35 111.0 13.25 110.8 13.2 109.2 14.45 108.9 14.45 108.25 14.85 108.05 14.95 107.9 14.85 107.95 14.6 108.05 14.55 107.95 14.3 108.2 13.8 108.1 13.5 109.05 11.1 109.15 10.95 109.15 10.8 109.35 10.3 107.8 9.3 107.65 9.0 107.6 8.9 107.2 8.6 Q106.6 8.3 106.75 8.0 L106.75 7.95 106.5 7.7 106.6 7.6 106.7 7.45 110.0 7.45 110.0 7.35 110.3 7.3 110.45 7.3 111.25 5.15 111.4 5.0 112.0 3.4 112.05 3.25 112.15 3.2 112.3 3.25 112.3 3.4 M107.3 8.15 L107.55 8.3 107.45 8.15 107.3 8.15 M113.05 11.95 L113.15 12.0 115.4 13.45 115.5 13.75 115.65 13.8 114.7 11.5 114.65 11.5 114.55 11.3 114.35 10.75 114.15 10.9 112.95 11.8 113.05 11.95 M113.65 10.15 L113.8 10.15 113.95 10.0 114.0 9.9 113.45 8.35 110.85 8.35 110.2 10.0 112.15 11.25 113.65 10.15 M115.95 8.25 L115.8 8.35 114.3 8.35 114.7 9.4 116.2 8.25 115.95 8.25 M112.3 5.05 L112.2 4.8 112.05 4.5 112.0 4.75 111.95 4.85 111.9 5.15 111.05 7.3 113.15 7.3 112.35 5.1 112.3 5.05 M108.3 8.75 L109.6 9.55 110.05 8.35 107.65 8.35 108.15 8.75 108.3 8.75 M109.55 11.6 L109.5 11.65 108.5 14.2 109.05 13.8 109.2 13.55 111.4 11.85 109.9 10.85 109.7 11.4 109.55 11.6" fill="#000000" fill-rule="evenodd" stroke="none"/>
    </g>
    <radialGradient cx="0" cy="0" gradientTransform="matrix(0.0112, 0.0, 0.0, 0.0112, 112.1, 9.95)" gradientUnits="userSpaceOnUse" id="gradient0" r="819.2" spreadMethod="pad">
      <stop offset="0.0" stop-color="#cc0000"/>
      <stop offset="1.0" stop-color="#6d0000"/>
    </radialGradient>
  </defs>
</svg>
