<?xml version="1.0" encoding="UTF-8" standalone="no"?>
<svg xmlns:xlink="http://www.w3.org/1999/xlink" height="531.5px" width="460.6px" xmlns="http://www.w3.org/2000/svg">
  <g transform="matrix(1.0, 0.0, 0.0, 1.0, 193.65, 334.05)">
    <use height="77.05" transform="matrix(1.0, 0.0, 0.0, 1.0, -43.45, -174.9)" width="97.45" xlink:href="#shape0"/>
  </g>
  <defs>
    <g id="shape0" transform="matrix(1.0, 0.0, 0.0, 1.0, 43.45, 174.9)">
      <path d="M47.95 -151.85 L45.75 -150.05 Q44.05 -148.6 40.2 -148.85 36.3 -149.2 31.5 -152.35 26.65 -155.4 26.0 -160.95 L25.9 -161.9 Q25.65 -167.0 29.2 -170.55 33.05 -174.5 38.6 -174.5 44.05 -174.5 47.95 -170.55 51.9 -166.65 51.9 -161.2 51.9 -155.75 47.95 -151.85 M48.15 -161.2 Q41.85 -167.0 32.7 -164.8 41.85 -167.0 48.15 -161.2" fill="url(#gradient0)" fill-rule="evenodd" stroke="none"/>
      <path d="M36.7 -118.1 L36.2 -118.35 35.85 -118.25 35.5 -118.1 35.25 -117.5 Q35.25 -117.05 35.5 -116.8 L35.85 -116.65 Q35.95 -116.55 36.2 -116.55 36.55 -116.55 36.7 -116.8 37.05 -117.05 37.05 -117.5 L36.7 -118.1 M47.95 -118.6 L47.95 -118.8 47.45 -119.65 43.8 -126.8 Q43.3 -127.7 42.45 -128.05 L41.9 -128.25 41.3 -128.25 40.7 -128.05 31.35 -121.25 30.65 -119.95 31.35 -121.25 40.7 -128.05 41.3 -128.25 41.9 -128.25 42.45 -128.05 Q43.3 -127.7 43.8 -126.8 L47.45 -119.65 47.95 -118.8 47.95 -118.6 Q48.25 -116.55 45.35 -112.9 42.35 -109.05 40.05 -109.05 38.35 -109.05 35.0 -113.15 32.2 -116.75 30.65 -119.95 L30.3 -119.45 Q30.0 -118.5 30.4 -117.5 L37.25 -107.6 Q39.55 -105.9 41.4 -107.35 L47.2 -112.55 48.3 -113.6 Q49.0 -114.6 49.0 -115.8 L48.8 -117.05 48.8 -117.15 48.65 -117.35 48.25 -118.2 48.05 -118.5 47.95 -118.6 M40.05 -112.45 L39.55 -112.3 39.35 -111.8 39.55 -111.3 Q39.7 -111.1 40.05 -111.1 40.4 -111.1 40.55 -111.3 L40.7 -111.8 40.55 -112.3 40.05 -112.45 M33.4 -103.95 L24.0 -117.4 23.8 -117.95 23.6 -118.5 23.5 -119.65 23.5 -120.2 Q23.85 -122.2 25.55 -123.3 L40.2 -133.95 40.7 -134.2 41.25 -134.3 42.25 -134.2 43.05 -133.95 Q44.2 -133.5 45.05 -131.9 L51.05 -120.55 50.45 -120.2 Q51.05 -118.2 51.05 -116.55 51.05 -113.85 50.45 -112.8 49.95 -111.85 46.2 -108.65 L43.9 -107.1 41.85 -105.65 39.7 -104.05 Q38.0 -103.2 36.4 -103.2 L34.75 -103.25 Q34.25 -103.35 33.4 -103.95 M29.9 -100.1 L20.85 -113.9 24.85 -116.05 26.0 -114.5 25.4 -114.0 Q27.6 -110.75 32.05 -102.35 32.05 -101.65 31.5 -100.95 30.9 -100.2 29.9 -100.1 M46.25 -132.9 L48.3 -134.95 Q50.7 -131.65 52.25 -127.4 L52.0 -127.1 51.05 -126.55 Q50.35 -126.55 49.35 -127.9 L46.25 -132.9 M45.35 -116.15 L44.9 -116.4 44.4 -116.15 44.2 -115.8 44.2 -115.7 44.4 -115.1 44.9 -115.05 45.35 -115.1 45.6 -115.7 45.6 -115.8 45.35 -116.15 M41.3 -120.9 Q41.6 -120.65 41.9 -120.65 42.25 -120.65 42.45 -120.9 L42.7 -121.4 42.45 -121.95 41.9 -122.2 41.3 -121.95 41.25 -121.4 41.3 -120.9 M-29.85 -172.1 L-33.6 -166.25 -36.75 -163.85 Q-39.65 -161.9 -40.7 -161.9 L-41.6 -162.05 -38.45 -166.3 -35.4 -169.45 -31.4 -172.0 -29.85 -172.1 M-38.3 -158.8 L-29.85 -172.0 -28.85 -172.95 Q-26.95 -174.5 -24.4 -174.3 L-10.5 -170.0 Q-7.0 -168.45 -7.7 -163.95 L-11.8 -155.3 -12.2 -154.2 -12.2 -154.15 Q-13.15 -152.85 -14.85 -151.4 -17.5 -149.25 -19.7 -149.25 -24.55 -149.25 -30.7 -151.85 -37.6 -154.8 -38.3 -158.8 M-27.8 -168.55 L-27.9 -168.45 -28.0 -168.35 -28.5 -167.5 -28.65 -167.25 -28.85 -167.0 -29.45 -166.15 -33.75 -159.4 -33.95 -158.8 -33.75 -159.4 -29.45 -166.15 -28.85 -167.0 -28.65 -167.25 -28.5 -167.5 -28.0 -168.35 -27.9 -168.45 -27.8 -168.55 -26.8 -169.3 Q-25.75 -169.9 -24.55 -169.8 -25.85 -170.0 -26.8 -169.45 L-27.8 -168.55 M-20.15 -168.45 L-24.55 -169.8 -20.15 -168.45 -15.8 -167.0 Q-13.5 -165.95 -14.0 -163.25 L-14.7 -161.65 -17.3 -158.2 Q-19.9 -154.55 -22.85 -154.55 L-25.4 -155.0 -27.7 -155.65 Q-30.1 -156.5 -31.05 -157.3 L-33.1 -158.3 -33.95 -158.8 -34.1 -157.55 -34.05 -157.1 -33.75 -156.5 -33.25 -156.1 -22.8 -151.4 -20.65 -151.3 Q-19.7 -151.5 -19.05 -152.45 L-13.85 -163.25 Q-13.5 -166.15 -15.7 -167.1 L-20.15 -168.45 M-25.0 -166.5 L-25.1 -166.4 -25.25 -166.05 -25.25 -165.55 -24.8 -165.2 -24.4 -165.2 -24.3 -165.3 -23.95 -165.7 -24.05 -166.25 -24.4 -166.55 -25.0 -166.5 M-28.0 -161.1 L-28.5 -161.1 -28.85 -160.6 -28.85 -160.1 Q-28.65 -159.75 -28.3 -159.75 L-27.8 -159.75 Q-27.55 -159.9 -27.45 -160.2 L-27.55 -160.85 -28.0 -161.1 M-21.05 -157.9 Q-21.25 -158.2 -21.6 -158.2 -21.95 -158.4 -22.25 -158.2 L-22.7 -157.6 -22.6 -157.05 -22.45 -156.7 -22.1 -156.6 -21.4 -156.7 Q-21.05 -156.85 -21.0 -157.2 L-21.0 -157.55 -21.05 -157.9 M-6.4 -164.6 L-2.65 -162.75 -10.1 -148.0 -10.35 -148.4 -11.0 -151.25 Q-11.0 -152.5 -8.7 -158.55 L-6.4 -164.6 M-18.5 -163.1 L-18.2 -163.5 -18.25 -163.95 -18.7 -164.25 Q-18.85 -164.45 -19.2 -164.25 L-19.55 -163.85 -19.45 -163.35 -19.05 -163.0 -18.5 -163.1" fill="#ffffff" fill-rule="evenodd" stroke="none"/>
      <path d="M36.7 -118.1 L37.05 -117.5 Q37.05 -117.05 36.7 -116.8 36.55 -116.55 36.2 -116.55 35.95 -116.55 35.85 -116.65 L35.5 -116.8 Q35.25 -117.05 35.25 -117.5 L35.5 -118.1 35.85 -118.25 36.2 -118.35 36.7 -118.1 M47.95 -118.6 L48.05 -118.5 48.25 -118.2 48.65 -117.25 48.8 -117.15 48.8 -117.05 48.9 -115.8 Q48.9 -114.6 48.25 -113.6 L47.2 -112.55 41.4 -107.35 Q39.45 -106.0 37.25 -107.8 L30.4 -117.6 Q30.05 -118.5 30.3 -119.45 L30.65 -119.95 Q32.2 -116.75 35.0 -113.15 38.35 -109.05 40.05 -109.05 42.35 -109.05 45.35 -112.9 48.25 -116.55 47.95 -118.6 M40.05 -112.45 L40.55 -112.3 40.7 -111.8 40.55 -111.3 Q40.4 -111.1 40.05 -111.1 39.7 -111.1 39.55 -111.3 L39.35 -111.8 39.55 -112.3 40.05 -112.45 M33.4 -103.95 Q34.25 -103.35 34.75 -103.25 L36.4 -103.2 Q38.0 -103.2 39.7 -104.05 L41.85 -105.65 43.9 -107.1 46.2 -108.65 Q49.95 -111.85 50.45 -112.8 51.05 -113.85 51.05 -116.55 51.05 -118.2 50.45 -120.2 L51.05 -120.55 52.85 -117.05 53.15 -115.8 Q53.5 -113.3 52.05 -111.3 L41.3 -101.4 Q38.25 -99.1 34.65 -102.0 L33.4 -103.95 M52.9 -117.05 L45.25 -131.9 46.25 -132.9 49.35 -127.9 Q50.35 -126.55 51.05 -126.55 L52.0 -127.1 52.25 -127.4 53.35 -123.2 53.6 -118.45 52.9 -117.05 M29.9 -100.1 Q30.9 -100.2 31.5 -100.95 32.05 -101.65 32.05 -102.35 27.6 -110.75 25.4 -114.0 L26.0 -114.5 32.9 -104.45 33.2 -104.05 34.65 -101.8 35.7 -101.15 31.1 -98.25 29.9 -100.1 M41.3 -120.9 L41.25 -121.4 41.3 -121.95 41.9 -122.2 42.45 -121.95 42.7 -121.4 42.45 -120.9 Q42.25 -120.65 41.9 -120.65 41.6 -120.65 41.3 -120.9 M45.35 -116.15 L45.6 -115.8 45.6 -115.7 45.35 -115.1 44.9 -115.05 44.4 -115.1 44.2 -115.7 44.2 -115.8 44.4 -116.15 44.9 -116.4 45.35 -116.15 M-33.6 -166.25 L-38.9 -158.05 -43.05 -159.15 -41.6 -162.05 -40.7 -161.9 Q-39.65 -161.9 -36.75 -163.85 L-33.6 -166.25 M-39.55 -155.15 Q-39.75 -156.45 -38.9 -157.9 L-38.3 -158.8 Q-37.6 -154.8 -30.7 -151.85 -24.55 -149.25 -19.7 -149.25 -17.5 -149.25 -14.85 -151.4 -13.15 -152.85 -12.2 -154.15 L-14.35 -149.85 -12.2 -154.15 -12.2 -154.2 -8.9 -161.1 -8.7 -161.65 -7.6 -163.95 -7.5 -165.2 -6.4 -164.6 -8.7 -158.55 Q-11.0 -152.5 -11.0 -151.25 L-10.35 -148.4 -10.1 -148.0 -11.2 -145.95 -15.0 -148.4 -14.35 -149.85 -15.8 -146.95 Q-16.75 -145.6 -18.0 -145.1 L-21.6 -145.25 -37.1 -152.15 -38.2 -152.75 -38.55 -153.1 -38.9 -153.45 -39.4 -154.2 -39.55 -155.15 M-20.65 -151.3 L-22.8 -151.4 -33.25 -156.1 -33.75 -156.5 -34.05 -157.1 -34.1 -157.55 -33.95 -158.8 -33.1 -158.3 -31.05 -157.3 Q-30.1 -156.5 -27.7 -155.65 L-25.4 -155.0 -22.85 -154.55 Q-19.9 -154.55 -17.3 -158.2 L-14.7 -161.65 -19.1 -152.45 Q-19.7 -151.55 -20.65 -151.3 M-28.0 -161.1 L-27.55 -160.85 -27.45 -160.2 Q-27.55 -159.9 -27.8 -159.75 L-28.3 -159.75 Q-28.65 -159.75 -28.85 -160.1 L-28.85 -160.6 -28.5 -161.1 -28.0 -161.1 M-25.0 -166.5 L-24.4 -166.55 -24.05 -166.25 -23.95 -165.7 -24.3 -165.3 -24.4 -165.2 -24.8 -165.2 -25.25 -165.55 -25.25 -166.05 -25.1 -166.4 -25.0 -166.5 M-21.05 -157.9 L-21.0 -157.55 -21.0 -157.2 Q-21.05 -156.85 -21.4 -156.7 L-22.1 -156.6 -22.45 -156.7 -22.6 -157.05 -22.7 -157.6 -22.25 -158.2 Q-21.95 -158.4 -21.6 -158.2 -21.25 -158.2 -21.05 -157.9 M-18.5 -163.1 L-19.05 -163.0 -19.45 -163.35 -19.55 -163.85 -19.2 -164.25 Q-18.85 -164.45 -18.7 -164.25 L-18.25 -163.95 -18.2 -163.5 -18.5 -163.1" fill="#d0dadb" fill-rule="evenodd" stroke="none"/>
      <path d="M-43.4 -135.75 L-42.2 -134.9 Q-40.1 -133.5 -38.3 -131.7 L-36.85 -130.35 Q-41.85 -132.05 -42.9 -133.95 -43.25 -134.55 -43.4 -135.75" fill="url(#gradient1)" fill-rule="evenodd" stroke="none"/>
      <path d="M-43.15 -142.35 L-43.4 -142.1 -43.25 -142.95 -43.05 -142.7 -43.15 -142.35" fill="url(#gradient2)" fill-rule="evenodd" stroke="none"/>
      <path d="M47.95 -151.85 L45.75 -150.05 Q44.05 -148.6 40.2 -148.85 36.3 -149.2 31.5 -152.35 26.65 -155.4 26.0 -160.95 L25.9 -161.9 Q25.65 -167.0 29.2 -170.55 33.05 -174.5 38.6 -174.5 44.05 -174.5 47.95 -170.55 51.9 -166.65 51.9 -161.2 51.9 -155.75 47.95 -151.85 M36.7 -118.1 L37.05 -117.5 Q37.05 -117.05 36.7 -116.8 36.55 -116.55 36.2 -116.55 35.95 -116.55 35.85 -116.65 L35.5 -116.8 Q35.25 -117.05 35.25 -117.5 L35.5 -118.1 35.85 -118.25 36.2 -118.35 36.7 -118.1 M30.65 -119.95 L31.35 -121.25 40.7 -128.05 41.3 -128.25 41.9 -128.25 42.45 -128.05 Q43.3 -127.7 43.8 -126.8 L47.45 -119.65 47.95 -118.8 47.95 -118.6 48.05 -118.5 48.25 -118.2 48.65 -117.35 48.8 -117.15 48.8 -117.05 49.0 -115.8 Q49.0 -114.6 48.3 -113.6 L47.2 -112.55 41.4 -107.35 Q39.55 -105.9 37.25 -107.6 L30.4 -117.5 Q30.0 -118.5 30.3 -119.45 L30.65 -119.95 M40.05 -112.45 L40.55 -112.3 40.7 -111.8 40.55 -111.3 Q40.4 -111.1 40.05 -111.1 39.7 -111.1 39.55 -111.3 L39.35 -111.8 39.55 -112.3 40.05 -112.45 M51.05 -120.55 L45.05 -131.9 Q44.2 -133.5 43.05 -133.95 L42.25 -134.2 41.25 -134.3 40.7 -134.2 40.2 -133.95 25.55 -123.3 Q23.85 -122.2 23.5 -120.2 L23.5 -119.65 23.6 -118.5 23.8 -117.95 24.0 -117.4 33.4 -103.95 34.65 -102.0 Q38.25 -99.1 41.3 -101.4 L52.05 -111.3 Q53.5 -113.3 53.15 -115.8 L52.85 -117.05 52.9 -117.05 45.25 -131.9 Q44.3 -133.5 43.05 -133.95 M51.05 -120.55 L52.85 -117.05 M29.9 -100.1 L20.85 -113.9 24.85 -116.05 24.0 -117.35 23.8 -117.95 M29.9 -100.1 L31.1 -98.25 35.7 -101.15 34.65 -101.8 33.2 -104.05 M32.9 -104.45 L26.0 -114.5 24.85 -116.05 M41.4 -107.35 Q39.45 -106.0 37.25 -107.8 L30.4 -117.6 Q30.05 -118.5 30.3 -119.45 M46.25 -132.9 L48.3 -134.95 Q50.7 -131.65 52.25 -127.4 L53.35 -123.2 53.6 -118.45 52.9 -117.05 53.25 -115.8 Q53.7 -113.25 52.15 -111.2 L41.4 -101.3 Q38.75 -99.35 35.7 -101.15 M45.25 -131.9 L46.25 -132.9 M41.3 -120.9 L41.25 -121.4 41.3 -121.95 41.9 -122.2 42.45 -121.95 42.7 -121.4 42.45 -120.9 Q42.25 -120.65 41.9 -120.65 41.6 -120.65 41.3 -120.9 M45.35 -116.15 L45.6 -115.8 45.6 -115.7 45.35 -115.1 44.9 -115.05 44.4 -115.1 44.2 -115.7 44.2 -115.8 44.4 -116.15 44.9 -116.4 45.35 -116.15 M48.25 -118.2 L48.65 -117.25 48.8 -117.15 M48.8 -117.05 L48.9 -115.8 Q48.9 -114.6 48.25 -113.6 L47.2 -112.55 M32.7 -164.8 Q41.85 -167.0 48.15 -161.2 M-29.85 -172.0 L-29.85 -172.1 -33.6 -166.25 -38.9 -158.05 Q-39.85 -156.45 -39.55 -155.15 -39.75 -156.45 -38.9 -157.9 L-38.3 -158.8 -29.85 -172.0 -28.85 -172.95 Q-26.95 -174.5 -24.4 -174.3 L-10.5 -170.0 Q-7.0 -168.45 -7.7 -163.95 L-11.8 -155.3 M-12.2 -154.2 L-8.9 -161.1 M-8.7 -161.65 L-7.6 -163.95 -7.5 -165.2 Q-7.45 -168.8 -10.4 -170.15 L-24.4 -174.4 Q-26.95 -174.65 -28.9 -173.05 L-29.85 -172.1 -31.4 -172.0 -35.4 -169.45 -38.45 -166.3 -41.6 -162.05 -43.05 -159.15 -38.9 -158.05 M-33.95 -158.8 L-33.75 -159.4 -29.45 -166.15 -28.85 -167.0 -28.65 -167.25 -28.5 -167.5 -28.0 -168.35 -27.9 -168.45 -27.8 -168.55 -26.8 -169.45 Q-25.85 -170.0 -24.55 -169.8 L-20.15 -168.45 -15.7 -167.1 Q-13.5 -166.15 -13.85 -163.25 L-19.05 -152.45 Q-19.7 -151.5 -20.65 -151.3 L-22.8 -151.4 -33.25 -156.1 -33.75 -156.5 -34.05 -157.1 -34.1 -157.55 -33.95 -158.8 M-14.7 -161.65 L-14.0 -163.25 Q-13.5 -165.95 -15.8 -167.0 L-20.15 -168.45 M-24.55 -169.8 Q-25.75 -169.9 -26.8 -169.3 L-27.8 -168.55 M-28.0 -161.1 L-27.55 -160.85 -27.45 -160.2 Q-27.55 -159.9 -27.8 -159.75 L-28.3 -159.75 Q-28.65 -159.75 -28.85 -160.1 L-28.85 -160.6 -28.5 -161.1 -28.0 -161.1 M-25.0 -166.5 L-24.4 -166.55 -24.05 -166.25 -23.95 -165.7 -24.3 -165.3 -24.4 -165.2 -24.8 -165.2 -25.25 -165.55 -25.25 -166.05 -25.1 -166.4 -25.0 -166.5 M-38.55 -153.1 L-38.9 -153.45 -39.4 -154.2 -39.55 -155.15 M-37.1 -152.15 L-38.2 -152.7 -38.55 -153.1 -38.2 -152.75 -37.1 -152.15 -21.6 -145.25 -18.0 -145.1 Q-16.75 -145.6 -15.8 -146.95 L-14.35 -149.85 -12.2 -154.15 -12.2 -154.2 M-21.05 -157.9 L-21.0 -157.55 -21.0 -157.2 Q-21.05 -156.85 -21.4 -156.7 L-22.1 -156.6 -22.45 -156.7 -22.6 -157.05 -22.7 -157.6 -22.25 -158.2 Q-21.95 -158.4 -21.6 -158.2 -21.25 -158.2 -21.05 -157.9 M-7.5 -165.2 L-6.4 -164.6 -2.65 -162.75 -10.1 -148.0 -11.2 -145.95 -15.0 -148.4 -15.7 -146.95 Q-16.75 -145.55 -18.0 -145.1 M-18.5 -163.1 L-19.05 -163.0 -19.45 -163.35 -19.55 -163.85 -19.2 -164.25 Q-18.85 -164.45 -18.7 -164.25 L-18.25 -163.95 -18.2 -163.5 -18.5 -163.1 M-14.7 -161.65 L-19.1 -152.45 Q-19.7 -151.55 -20.65 -151.3 M-14.35 -149.85 L-15.0 -148.4" fill="none" stroke="#000000" stroke-linecap="round" stroke-linejoin="round" stroke-opacity="0.4" stroke-width="0.8"/>
      <path d="M-15.0 -133.35 Q-13.3 -132.05 -13.3 -131.05 L-13.55 -130.7 -13.4 -130.6 Q-11.7 -129.35 -10.65 -128.25 L-10.6 -128.25 Q-8.1 -126.35 -7.45 -124.9 L-7.6 -124.75 -7.85 -124.55 -6.4 -123.55 -6.5 -123.1 -7.35 -122.8 -6.5 -122.45 -6.4 -121.75 -6.5 -121.6 -7.0 -121.5 Q-7.45 -121.5 -9.4 -122.25 L-11.7 -123.1 -11.85 -123.1 -10.75 -122.1 -11.35 -121.5 -11.85 -121.5 -16.65 -123.1 Q-17.25 -123.1 -18.85 -124.25 L-22.5 -125.25 Q-26.45 -126.35 -27.05 -127.2 -27.4 -127.65 -29.6 -129.0 -31.3 -129.95 -31.4 -131.65 L-31.4 -131.8 -30.95 -132.0 Q-30.35 -132.0 -29.75 -131.4 -29.1 -130.95 -28.5 -130.95 -28.55 -132.05 -27.4 -131.55 L-32.35 -135.4 Q-34.8 -137.5 -34.8 -139.05 -34.8 -139.75 -33.75 -140.0 -32.5 -140.15 -30.95 -139.15 -30.8 -139.2 -30.8 -139.8 -30.7 -140.0 -30.2 -140.0 -28.85 -140.0 -27.4 -138.35 L-25.4 -137.5 -25.1 -138.45 -25.1 -139.4 Q-22.7 -139.15 -21.0 -138.05 L-18.25 -135.75 -15.0 -133.35 M-20.2 -135.55 Q-20.75 -136.0 -20.8 -135.9 L-20.2 -135.45 -20.2 -135.55" fill="url(#gradient3)" fill-rule="evenodd" stroke="none"/>
      <path d="M-30.55 -124.8 L-30.6 -124.25 Q-29.5 -123.65 -29.5 -122.1 -29.5 -121.25 -29.75 -120.55 -30.1 -119.35 -30.95 -119.35 -31.3 -119.35 -32.25 -119.9 L-33.45 -120.5 -35.15 -120.15 Q-35.8 -119.8 -36.0 -119.8 -37.25 -119.8 -37.55 -120.9 L-37.55 -122.1 Q-37.55 -124.75 -34.1 -124.9 L-34.1 -125.15 Q-34.1 -126.6 -32.35 -126.6 -30.55 -126.55 -30.55 -124.8 M-26.95 -115.45 L-27.05 -116.05 Q-27.05 -117.25 -25.5 -117.4 L-25.5 -117.75 Q-23.4 -118.35 -23.4 -116.8 L-23.45 -116.4 -23.4 -116.05 Q-23.4 -115.8 -23.7 -115.45 L-24.55 -114.75 -26.1 -114.75 Q-26.8 -114.85 -26.95 -115.45" fill="#990000" fill-rule="evenodd" stroke="none"/>
    </g>
    <radialGradient cx="0" cy="0" gradientTransform="matrix(0.0193, 0.0, 0.0, 0.0193, 41.85, -163.5)" gradientUnits="userSpaceOnUse" id="gradient0" r="819.2" spreadMethod="pad">
      <stop offset="0.4549019607843137" stop-color="#664666"/>
      <stop offset="1.0" stop-color="#999999"/>
    </radialGradient>
    <radialGradient cx="0" cy="0" gradientTransform="matrix(0.0455, 0.0, 0.0, 0.0455, -7.85, -148.75)" gradientUnits="userSpaceOnUse" id="gradient1" r="819.2" spreadMethod="pad">
      <stop offset="0.00392156862745098" stop-color="#7b7b7b"/>
      <stop offset="0.49019607843137253" stop-color="#999999"/>
      <stop offset="1.0" stop-color="#999999" stop-opacity="0.0"/>
    </radialGradient>
    <radialGradient cx="0" cy="0" gradientTransform="matrix(0.0531, 0.0, 0.0, 0.0531, -1.8, -149.7)" gradientUnits="userSpaceOnUse" id="gradient2" r="819.2" spreadMethod="pad">
      <stop offset="0.00392156862745098" stop-color="#7b7b7b"/>
      <stop offset="0.49019607843137253" stop-color="#999999"/>
      <stop offset="1.0" stop-color="#999999" stop-opacity="0.0"/>
    </radialGradient>
    <radialGradient cx="0" cy="0" fx="-76.80000000000001" fy="0" gradientTransform="matrix(0.0328, 0.0, 0.0, 0.0328, -1.7, -122.45)" gradientUnits="userSpaceOnUse" id="gradient3" r="819.2" spreadMethod="pad">
      <stop offset="0.12941176470588237" stop-color="#990000" stop-opacity="0.0"/>
      <stop offset="1.0" stop-color="#990000"/>
    </radialGradient>
  </defs>
</svg>
