<?xml version="1.0" encoding="UTF-8" standalone="no"?>
<svg xmlns:xlink="http://www.w3.org/1999/xlink" height="531.5px" width="460.6px" xmlns="http://www.w3.org/2000/svg">
  <g transform="matrix(1.0, 0.0, 0.0, 1.0, 193.65, 334.05)">
    <use height="72.5" transform="matrix(1.0, 0.0, 0.0, 1.0, -46.35, -62.85)" width="100.1" xlink:href="#shape0"/>
  </g>
  <defs>
    <g id="shape0" transform="matrix(1.0, 0.0, 0.0, 1.0, 46.35, 62.85)">
      <path d="M-6.1 -52.15 L4.35 -57.85 Q9.45 -60.7 13.6 -61.85 L18.05 -62.25 Q28.4 -63.1 37.35 -58.1 48.15 -52.05 44.45 -40.55 43.45 -37.95 43.45 -36.85 43.45 -36.0 44.65 -34.75 45.7 -33.65 45.7 -32.5 45.7 -31.4 42.55 -30.6 L39.3 -30.0 37.85 -29.85 33.75 -29.35 33.1 -29.25 29.25 -28.9 15.6 -27.55 Q15.6 -27.3 15.1 -27.3 17.6 -25.9 22.2 -25.4 L29.5 -25.0 Q40.7 -24.15 40.7 -20.9 40.7 -20.15 40.1 -18.8 L40.95 -16.95 Q40.95 -16.2 40.7 -16.2 L38.95 -15.95 30.9 -17.2 21.95 -18.55 20.65 -18.6 15.95 -19.2 10.95 -20.7 5.15 -18.45 -0.2 -19.1 -14.0 -19.7 -16.4 -17.7 -16.9 -19.55 Q-17.4 -22.15 -17.4 -25.25 L-17.1 -28.5 Q-16.75 -30.5 -15.8 -32.15 -15.3 -32.5 -14.4 -34.15 L-12.4 -37.35 -9.55 -42.2 Q-6.1 -47.65 -6.1 -51.25 L-6.1 -52.15 M20.2 -57.4 Q18.8 -57.0 18.6 -55.75 19.15 -54.5 20.05 -53.9 L30.0 -47.95 33.15 -45.9 Q35.5 -44.55 37.75 -43.6 L40.85 -43.95 Q42.95 -46.2 41.85 -49.15 40.8 -52.15 38.2 -54.3 36.35 -56.0 34.2 -56.9 L31.4 -57.75 28.5 -58.25 Q24.25 -58.9 20.2 -57.4 M-0.7 -24.65 Q2.15 -24.05 10.1 -21.05 L10.95 -20.7 10.1 -21.05 Q2.15 -24.05 -0.7 -24.65" fill="url(#gradient0)" fill-rule="evenodd" stroke="none"/>
      <path d="M20.2 -57.4 Q24.25 -58.9 28.5 -58.25 L31.4 -57.75 34.2 -56.9 Q36.35 -56.0 38.2 -54.3 40.8 -52.15 41.85 -49.15 42.95 -46.2 40.85 -43.95 L37.75 -43.6 Q35.5 -44.55 33.15 -45.9 L30.0 -47.95 20.05 -53.9 Q19.15 -54.5 18.6 -55.75 18.8 -57.0 20.2 -57.4" fill="#b597b5" fill-rule="evenodd" stroke="none"/>
      <path d="M42.55 -30.6 L41.55 -26.55 39.3 -30.0 42.55 -30.6 M37.85 -29.85 L36.25 -26.8 33.75 -29.35 31.85 -26.9 29.25 -28.9 33.1 -29.25 33.75 -29.35 37.85 -29.85" fill="#666666" fill-rule="evenodd" stroke="none"/>
      <path d="M21.95 -18.55 Q23.15 -16.6 23.7 -13.85 L20.2 -15.7 20.2 -15.35 Q21.3 -13.0 21.45 -11.5 L19.8 -12.6 18.3 -13.6 19.4 -11.0 Q20.3 -9.25 20.4 -8.0 18.35 -8.85 17.2 -9.7 L16.55 -10.2 14.55 -12.6 14.45 -12.75 13.0 -14.35 12.6 -15.05 Q12.6 -16.8 15.45 -18.85 L15.95 -19.2 20.65 -18.6 21.95 -18.55 M18.3 -13.6 L18.2 -13.85 18.2 -13.7 18.3 -13.6 M5.15 -18.45 Q9.35 -17.2 9.95 -13.45 L10.0 -12.35 9.85 -10.6 Q9.6 -10.0 8.5 -10.0 7.6 -10.0 6.5 -12.1 L5.5 -14.55 5.85 -10.35 Q5.85 -9.45 5.15 -7.65 L4.9 -7.65 Q4.35 -9.85 1.3 -14.45 L1.0 -14.45 1.0 -8.25 0.75 -8.0 -1.3 -12.1 -2.85 -15.05 Q-3.8 -15.85 -9.65 -15.85 L-15.8 -15.8 -16.4 -17.7 -14.0 -19.7 -0.2 -19.1 5.15 -18.45" fill="#4f094d" fill-rule="evenodd" stroke="none"/>
      <path d="M15.95 -19.2 L15.45 -18.85 Q12.6 -16.8 12.6 -15.05 L13.0 -14.35 9.95 -13.45 Q9.35 -17.2 5.15 -18.45 L10.95 -20.7 15.95 -19.2 M-34.55 -19.8 L-38.55 -30.75 -35.8 -47.4 -28.6 -52.8 Q-34.15 -46.45 -34.15 -40.55 L-33.9 -39.35 -32.7 -36.1 Q-34.15 -33.0 -34.8 -30.35 -35.45 -28.05 -35.45 -26.05 -35.45 -22.95 -34.55 -19.8 M-15.8 -15.8 L-9.65 -15.85 Q-3.8 -15.85 -2.85 -15.05 L-1.3 -12.1 -11.3 -9.7 Q-13.65 -11.85 -15.0 -14.1 L-15.8 -15.8" fill="#24101b" fill-rule="evenodd" stroke="none"/>
      <path d="M-11.3 -9.7 L-9.55 -8.15 -5.6 -5.5 Q-2.7 -3.75 0.8 -2.25 3.75 -1.05 7.15 -0.05 L13.5 1.6 19.15 2.1 24.25 2.05 25.65 1.85 Q32.0 1.0 38.0 -0.4 45.9 -2.4 53.25 -5.65 48.65 -2.05 44.65 0.5 41.6 2.7 38.35 4.3 32.65 7.05 26.25 8.15 L23.45 8.65 Q15.8 9.7 7.9 8.65 L5.65 8.2 Q0.4 7.15 -4.35 5.2 L-5.05 5.05 -6.55 4.55 Q-14.3 1.7 -20.35 -2.3 L-24.0 -4.9 Q-29.3 -9.2 -32.2 -14.35 -26.8 -22.8 -16.9 -19.55 L-16.4 -17.7 -15.8 -15.8 -15.0 -14.1 Q-13.65 -11.85 -11.3 -9.7 M38.35 4.3 Q34.7 2.2 38.0 -0.4 34.7 2.2 38.35 4.3 M7.9 8.65 Q6.85 3.55 13.5 1.6 6.85 3.55 7.9 8.65 M25.65 1.85 Q20.2 4.55 23.45 8.65 20.2 4.55 25.65 1.85 M-20.35 -2.3 Q-19.6 -10.35 -9.55 -8.15 -19.6 -10.35 -20.35 -2.3 M-6.55 4.55 Q-8.3 -1.75 0.8 -2.25 -8.3 -1.75 -6.55 4.55" fill="#5c1855" fill-rule="evenodd" stroke="none"/>
      <path d="M-28.6 -52.8 L-28.35 -53.15 Q-22.45 -59.95 -16.75 -59.95 -12.8 -59.95 -9.8 -57.9 -6.55 -55.75 -6.1 -52.15 L-6.1 -51.25 Q-6.1 -47.65 -9.55 -42.2 L-12.4 -37.35 Q-14.65 -48.15 -25.75 -47.15 -28.35 -43.85 -30.55 -40.2 L-32.7 -36.1 -33.9 -39.35 -34.15 -40.55 Q-34.15 -46.45 -28.6 -52.8 M-21.25 -52.4 Q-23.7 -50.0 -25.75 -47.15 -23.7 -50.0 -21.25 -52.4" fill="#852d7c" fill-rule="evenodd" stroke="none"/>
      <path d="M-14.4 -34.15 Q-15.3 -32.5 -15.8 -32.15 L-15.55 -32.4 -14.4 -34.15" fill="#330033" fill-rule="evenodd" stroke="none"/>
      <path d="M-32.2 -14.35 L-32.8 -15.45 -33.55 -17.05 -34.55 -19.8 Q-35.45 -22.95 -35.45 -26.05 -35.45 -28.05 -34.8 -30.35 -34.15 -33.0 -32.7 -36.1 L-30.55 -40.2 Q-28.35 -43.85 -25.75 -47.15 -14.65 -48.15 -12.4 -37.35 L-14.4 -34.15 -15.55 -32.4 -15.8 -32.15 Q-16.75 -30.5 -17.1 -28.5 L-17.4 -25.25 Q-17.4 -22.15 -16.9 -19.55 -26.8 -22.8 -32.2 -14.35 M-34.8 -30.35 Q-24.35 -35.45 -17.1 -28.5 -24.35 -35.45 -34.8 -30.35" fill="#6b2464" fill-rule="evenodd" stroke="none"/>
      <path d="M-6.1 -52.15 L4.35 -57.85 Q9.45 -60.7 13.6 -61.85 L18.05 -62.25 Q28.4 -63.1 37.35 -58.1 48.15 -52.05 44.45 -40.55 43.45 -37.95 43.45 -36.85 43.45 -36.0 44.65 -34.75 45.7 -33.65 45.7 -32.5 45.7 -31.4 42.55 -30.6 L41.55 -26.55 39.3 -30.0 37.85 -29.85 36.25 -26.8 33.75 -29.35 31.85 -26.9 29.25 -28.9 15.6 -27.55 Q15.6 -27.3 15.1 -27.3 17.6 -25.9 22.2 -25.4 L29.5 -25.0 Q40.7 -24.15 40.7 -20.9 40.7 -20.15 40.1 -18.8 L40.95 -16.95 Q40.95 -16.2 40.7 -16.2 L38.95 -15.95 30.9 -17.2 21.95 -18.55 Q23.15 -16.6 23.7 -13.85 L20.2 -15.7 20.2 -15.35 Q21.3 -13.0 21.45 -11.5 L19.8 -12.6 18.3 -13.6 19.4 -11.0 Q20.3 -9.25 20.4 -8.0 18.35 -8.85 17.2 -9.7 L16.55 -10.2 19.15 -3.65 M33.75 -29.35 L33.1 -29.25 29.25 -28.9 M37.85 -29.85 L33.75 -29.35 M15.95 -19.2 L15.45 -18.85 Q12.6 -16.8 12.6 -15.05 L13.0 -14.35 14.45 -12.75 14.55 -12.6 16.55 -10.2 16.2 -10.45 Q15.05 -11.35 14.55 -12.6 M18.3 -13.6 L18.2 -13.7 18.2 -13.85 18.3 -13.6 M15.95 -19.2 L10.95 -20.7 10.1 -21.05 Q2.15 -24.05 -0.7 -24.65 M5.15 -18.45 Q9.35 -17.2 9.95 -13.45 L13.0 -14.35 M-1.3 -12.1 L0.75 -8.0 1.0 -8.25 1.0 -14.45 1.3 -14.45 Q4.35 -9.85 4.9 -7.65 L5.15 -7.65 Q5.85 -9.45 5.85 -10.35 L5.5 -14.55 6.5 -12.1 Q7.6 -10.0 8.5 -10.0 9.6 -10.0 9.85 -10.6 L10.0 -12.35 9.95 -13.45 M-11.3 -9.7 L-9.55 -8.15 -5.6 -5.5 Q-2.7 -3.75 0.8 -2.25 3.75 -1.05 7.15 -0.05 L13.5 1.6 19.15 2.1 24.25 2.05 25.65 1.85 Q32.0 1.0 38.0 -0.4 45.9 -2.4 53.25 -5.65 48.65 -2.05 44.65 0.5 41.6 2.7 38.35 4.3 32.65 7.05 26.25 8.15 L23.45 8.65 Q15.8 9.7 7.9 8.65 L5.65 8.2 Q0.4 7.15 -4.35 5.2 L-5.05 5.05 -6.55 4.55 Q-14.3 1.7 -20.35 -2.3 L-24.0 -4.9 Q-29.3 -9.2 -32.2 -14.35 L-32.8 -15.45 -33.55 -17.05 -34.55 -19.8 -38.55 -30.75 -45.85 -30.75 M21.95 -18.55 L20.65 -18.6 15.95 -19.2 M42.55 -30.6 L39.3 -30.0 M23.45 8.65 Q20.2 4.55 25.65 1.85 M13.5 1.6 Q6.85 3.55 7.9 8.65 M38.0 -0.4 Q34.7 2.2 38.35 4.3 M-6.1 -52.15 Q-6.55 -55.75 -9.8 -57.9 -12.8 -59.95 -16.75 -59.95 -22.45 -59.95 -28.35 -53.15 L-28.6 -52.8 Q-34.15 -46.45 -34.15 -40.55 L-33.9 -39.35 -32.7 -36.1 -30.55 -40.2 Q-28.35 -43.85 -25.75 -47.15 -23.7 -50.0 -21.25 -52.4 M-12.4 -37.35 L-9.55 -42.2 Q-6.1 -47.65 -6.1 -51.25 L-6.1 -52.15 M-15.8 -32.15 Q-15.3 -32.5 -14.4 -34.15 L-15.55 -32.4 -15.8 -32.15 Q-16.75 -30.5 -17.1 -28.5 L-17.4 -25.25 Q-17.4 -22.15 -16.9 -19.55 L-16.4 -17.7 -15.8 -15.8 -9.65 -15.85 Q-3.8 -15.85 -2.85 -15.05 L-1.3 -12.1 -11.3 -9.7 Q-13.65 -11.85 -15.0 -14.1 L-15.8 -15.8 M-14.0 -19.7 L-0.2 -19.1 5.15 -18.45 M-14.4 -34.15 L-12.4 -37.35 Q-14.65 -48.15 -25.75 -47.15 M-34.8 -30.35 Q-35.45 -28.05 -35.45 -26.05 -35.45 -22.95 -34.55 -19.8 M-28.6 -52.8 L-35.8 -47.4 -38.55 -30.75 M-34.8 -30.35 Q-34.15 -33.0 -32.7 -36.1 M-17.1 -28.5 Q-24.35 -35.45 -34.8 -30.35 M-16.9 -19.55 Q-26.8 -22.8 -32.2 -14.35 M-9.55 -8.15 Q-19.6 -10.35 -20.35 -2.3 M-35.8 -47.4 L-40.55 -51.55 M0.8 -2.25 Q-8.3 -1.75 -6.55 4.55" fill="none" stroke="#000000" stroke-linecap="round" stroke-linejoin="round" stroke-opacity="0.5019608" stroke-width="1.0"/>
    </g>
    <linearGradient gradientTransform="matrix(0.0148, -0.0196, 0.0226, 0.0171, 14.1, -39.2)" gradientUnits="userSpaceOnUse" id="gradient0" spreadMethod="pad" x1="-819.2" x2="819.2">
      <stop offset="0.0" stop-color="#330033"/>
      <stop offset="1.0" stop-color="#470545"/>
    </linearGradient>
  </defs>
</svg>
