<?xml version="1.0" encoding="UTF-8" standalone="no"?>
<svg xmlns:xlink="http://www.w3.org/1999/xlink" height="531.5px" width="460.6px" xmlns="http://www.w3.org/2000/svg">
  <g transform="matrix(1.0, 0.0, 0.0, 1.0, 193.65, 334.05)">
    <use height="33.0" transform="matrix(1.5091, 0.0, 0.0, 1.5091, -85.4046, -46.9046)" width="107.9" xlink:href="#shape0"/>
  </g>
  <defs>
    <g id="shape0" transform="matrix(1.0, 0.0, 0.0, 1.0, 0.5, 0.5)">
      <path d="M70.6 15.45 L93.65 15.45 93.65 25.8 70.85 25.8 70.9 24.6 70.9 17.8 70.6 15.45 M43.9 15.7 L41.9 15.75 35.1 16.8 Q33.6 17.05 32.7 18.3 31.75 19.55 32.05 21.05 L32.5 23.95 Q32.65 25.0 33.35 25.8 L15.15 25.8 15.15 15.45 44.0 15.45 43.9 15.7 M48.05 18.65 Q48.25 17.95 48.75 17.4 L48.9 17.2 Q50.05 16.1 51.55 15.95 57.55 14.9 63.05 15.95 64.25 16.05 65.15 16.85 L65.55 17.2 Q66.3 17.9 66.55 18.85 L65.85 18.75 60.3 18.75 Q59.55 18.25 58.6 18.25 57.35 18.25 56.5 19.15 55.6 20.05 55.6 21.3 55.6 22.55 56.5 23.4 57.35 24.3 58.6 24.3 59.7 24.3 60.45 23.7 L65.85 23.7 66.55 23.6 Q66.3 24.5 65.55 25.2 64.5 26.3 63.0 26.3 57.4 26.55 51.55 26.3 50.3 26.3 49.3 25.55 L48.9 25.2 Q48.15 24.4 47.95 23.4 48.55 23.25 49.0 22.75 49.75 22.05 49.75 21.0 49.75 20.0 49.0 19.25 L48.05 18.65" fill="#663300" fill-rule="evenodd" stroke="none"/>
      <path d="M70.85 25.8 Q70.3 29.75 65.75 29.75 L48.8 29.75 Q44.3 29.75 43.7 25.95 L43.7 25.8 43.6 24.6 43.6 17.8 Q43.6 16.65 43.9 15.7 L44.0 15.45 Q45.0 12.65 48.8 12.65 L65.75 12.65 Q69.55 12.65 70.6 15.45 L70.9 17.8 70.9 24.6 70.85 25.8 M66.55 18.85 Q66.3 17.9 65.55 17.2 L65.15 16.85 Q64.25 16.05 63.05 15.95 57.55 14.9 51.55 15.95 50.05 16.1 48.9 17.2 L48.75 17.4 Q48.25 17.95 48.05 18.65 L47.85 19.8 47.85 22.6 47.95 23.4 Q48.15 24.4 48.9 25.2 L49.3 25.55 Q50.3 26.3 51.55 26.3 57.4 26.55 63.0 26.3 64.5 26.3 65.55 25.2 66.3 24.5 66.55 23.6 L67.6 22.95 Q68.35 22.25 68.35 21.2 68.35 20.15 67.6 19.45 67.15 19.0 66.55 18.85" fill="url(#gradient0)" fill-rule="evenodd" stroke="none"/>
      <path d="M66.55 23.6 L65.85 23.7 60.45 23.7 58.7 23.7 Q57.65 23.7 56.95 22.95 56.25 22.25 56.25 21.2 56.25 20.15 56.95 19.45 57.65 18.75 58.7 18.75 L60.3 18.75 65.85 18.75 66.55 18.85 Q67.15 19.0 67.6 19.45 68.35 20.15 68.35 21.2 68.35 22.25 67.6 22.95 L66.55 23.6" fill="url(#gradient1)" fill-rule="evenodd" stroke="none"/>
      <path d="M48.05 18.65 L49.0 19.25 Q49.75 20.0 49.75 21.0 49.75 22.05 49.0 22.75 48.55 23.25 47.95 23.4 L47.85 22.6 47.85 19.8 48.05 18.65 M60.45 23.7 Q59.7 24.3 58.6 24.3 57.35 24.3 56.5 23.4 55.6 22.55 55.6 21.3 55.6 20.05 56.5 19.15 57.35 18.25 58.6 18.25 59.55 18.25 60.3 18.75 L58.7 18.75 Q57.65 18.75 56.95 19.45 56.25 20.15 56.25 21.2 56.25 22.25 56.95 22.95 57.65 23.7 58.7 23.7 L60.45 23.7" fill="#381c00" fill-rule="evenodd" stroke="none"/>
      <path d="M70.6 15.45 L93.65 15.45 93.65 25.8 70.85 25.8 Q70.3 29.75 65.75 29.75 L48.8 29.75 Q44.3 29.75 43.7 25.95 M33.35 25.8 L15.15 25.8 15.15 15.45 44.0 15.45 Q45.0 12.65 48.8 12.65 L65.75 12.65 Q69.55 12.65 70.6 15.45 L70.9 17.8 70.9 24.6 70.85 25.8 M66.55 18.85 Q66.3 17.9 65.55 17.2 L65.15 16.85 Q64.25 16.05 63.05 15.95 57.55 14.9 51.55 15.95 50.05 16.1 48.9 17.2 L48.75 17.4 Q48.25 17.95 48.05 18.65 L49.0 19.25 Q49.75 20.0 49.75 21.0 49.75 22.05 49.0 22.75 48.55 23.25 47.95 23.4 48.15 24.4 48.9 25.2 L49.3 25.55 Q50.3 26.3 51.55 26.3 57.4 26.55 63.0 26.3 64.5 26.3 65.55 25.2 66.3 24.5 66.55 23.6 L65.85 23.7 60.45 23.7 Q59.7 24.3 58.6 24.3 57.35 24.3 56.5 23.4 55.6 22.55 55.6 21.3 55.6 20.05 56.5 19.15 57.35 18.25 58.6 18.25 59.55 18.25 60.3 18.75 L65.85 18.75 66.55 18.85 Q67.15 19.0 67.6 19.45 68.35 20.15 68.35 21.2 68.35 22.25 67.6 22.95 L66.55 23.6 M44.0 15.45 L43.9 15.7 M48.05 18.65 L47.85 19.8 47.85 22.6 47.95 23.4 M60.3 18.75 L58.7 18.75 Q57.65 18.75 56.95 19.45 56.25 20.15 56.25 21.2 56.25 22.25 56.95 22.95 57.65 23.7 58.7 23.7 L60.45 23.7" fill="none" stroke="#000000" stroke-linecap="round" stroke-linejoin="round" stroke-opacity="0.4" stroke-width="0.6000000000000001"/>
      <path d="M60.75 16.75 L61.75 16.75 M62.75 16.75 L63.75 16.75 M64.75 16.85 L65.15 16.85 M48.75 17.4 L49.75 17.3 M50.75 17.2 L51.75 17.1 M52.75 17.0 L53.75 16.9 M54.75 16.8 L55.75 16.75 M56.75 16.75 L57.75 16.75 M58.75 16.75 L59.75 16.75 M50.95 25.45 L49.95 25.55 M52.95 25.4 L51.95 25.45 M54.95 25.4 L53.95 25.4 M56.95 25.4 L55.95 25.4 M58.95 25.4 L57.95 25.4 M62.95 25.4 L61.95 25.4 M64.95 25.4 L63.95 25.4 M60.95 25.4 L59.95 25.4" fill="none" stroke="#000000" stroke-linecap="round" stroke-linejoin="round" stroke-opacity="0.4" stroke-width="0.30000000000000004"/>
      <path d="M98.6 1.2 Q99.85 0.7 101.3 0.5 102.9 0.15 104.2 1.3 106.75 3.55 105.3 6.9 104.0 9.75 101.45 11.3 L97.6 11.3 Q99.5 9.05 100.8 6.25 L101.4 4.55 101.1 4.05 100.45 4.15 100.15 4.5 99.3 4.35 98.9 4.05 Q98.6 2.8 98.6 1.2 M97.9 7.35 L97.8 7.55 Q96.8 9.4 96.8 11.3 L96.35 11.3 95.4 8.95 Q94.7 7.6 93.55 6.5 94.7 7.6 95.4 8.95 L96.35 11.3 93.9 11.3 93.5 10.95 91.65 9.45 91.05 8.95 88.25 6.9 87.65 6.9 Q87.95 7.5 89.7 8.95 L90.75 9.8 92.75 11.3 88.65 11.3 87.4 10.45 85.7 8.95 Q83.6 6.85 83.6 5.0 83.6 3.95 84.6 3.45 L86.4 3.05 Q89.2 3.05 92.1 5.25 L93.55 6.5 Q94.2 4.65 95.7 3.15 L96.35 2.6 97.05 2.5 Q98.25 3.6 98.2 5.5 L97.9 7.35" fill="#ffcc00" fill-rule="evenodd" stroke="none"/>
      <path d="M98.6 1.2 Q98.6 2.8 98.9 4.05 L99.3 4.35 100.15 4.5 Q98.8 5.8 97.9 7.35 L98.2 5.5 Q98.25 3.6 97.05 2.5 L96.35 2.6 98.6 1.2" fill="#ffffff" fill-rule="evenodd" stroke="none"/>
      <path d="M101.45 11.3 L102.1 11.3 M100.15 4.5 L100.45 4.15 101.1 4.05 101.4 4.55 100.8 6.25 Q99.5 9.05 97.6 11.3 L101.45 11.3 Q104.0 9.75 105.3 6.9 106.75 3.55 104.2 1.3 102.9 0.15 101.3 0.5 99.85 0.7 98.6 1.2 L96.35 2.6 95.7 3.15 Q94.2 4.65 93.55 6.5 94.7 7.6 95.4 8.95 L96.35 11.3 96.8 11.3 97.6 11.3 M100.15 4.5 Q98.8 5.8 97.9 7.35 L97.8 7.55 Q96.8 9.4 96.8 11.3 M93.55 6.5 L92.1 5.25 Q89.2 3.05 86.4 3.05 L84.6 3.45 Q83.6 3.95 83.6 5.0 83.6 6.85 85.7 8.95 L87.4 10.45 88.65 11.3 92.75 11.3 90.75 9.8 89.7 8.95 Q87.95 7.5 87.65 6.9 L88.25 6.9 91.05 8.95 91.65 9.45 93.5 10.95 93.9 11.3 96.35 11.3 96.5 12.0 M94.95 12.35 L93.9 11.3 93.7 11.3 92.75 11.3 Q94.4 12.5 95.6 13.0 M93.5 10.95 L93.7 11.3 M94.7 13.75 Q91.7 13.35 88.65 11.3 L87.35 11.3" fill="none" stroke="#000000" stroke-linecap="round" stroke-linejoin="round" stroke-opacity="0.4" stroke-width="1.0"/>
      <path d="M101.3 10.8 L106.9 10.8 106.9 18.3 105.55 18.3 101.3 18.3 105.55 18.3 105.55 28.75 100.4 29.0 100.4 18.3 101.3 18.3 101.3 10.8 M95.8 29.15 L90.7 29.4 90.7 18.3 92.3 18.3 92.3 10.8 96.6 10.8 96.4 18.3 95.8 18.3 95.8 29.15 M95.8 18.3 L92.3 18.3 95.8 18.3" fill="#ff0000" fill-rule="evenodd" stroke="none"/>
      <path d="M101.3 10.8 L101.3 18.3 100.4 18.3 100.4 29.0 95.8 29.15 95.8 18.3 96.4 18.3 96.6 10.8 101.3 10.8 M88.9 29.15 L86.7 28.9 86.7 18.3 86.1 18.3 86.4 10.8 88.45 10.8 88.45 18.3 89.05 18.3 88.9 29.15 M88.45 18.3 L86.7 18.3 88.45 18.3 M100.4 18.3 L96.4 18.3 100.4 18.3" fill="#ffcc00" fill-rule="evenodd" stroke="none"/>
      <path d="M90.7 29.4 L88.9 29.15 89.05 18.3 88.45 18.3 88.45 10.8 92.3 10.8 92.3 18.3 90.7 18.3 89.05 18.3 90.7 18.3 90.7 29.4 M86.7 28.9 L85.35 28.75 85.35 18.3 84.1 18.3 84.1 10.8 86.4 10.8 86.1 18.3 86.7 18.3 86.7 28.9 M86.1 18.3 L85.35 18.3 86.1 18.3" fill="#ba0000" fill-rule="evenodd" stroke="none"/>
      <path d="M105.55 18.3 L106.9 18.3 106.9 10.8 101.3 10.8 101.3 18.3 105.55 18.3 105.55 28.75 100.4 29.0 95.8 29.15 90.7 29.4 88.9 29.15 86.7 28.9 85.35 28.75 85.35 18.3 84.1 18.3 84.1 10.8 86.4 10.8 88.45 10.8 92.3 10.8 96.6 10.8 101.3 10.8 M89.05 18.3 L90.7 18.3 92.3 18.3 92.3 10.8 M88.45 10.8 L88.45 18.3 89.05 18.3 88.9 29.15 M86.4 10.8 L86.1 18.3 86.7 18.3 88.45 18.3 M85.35 18.3 L86.1 18.3 M92.3 18.3 L95.8 18.3 96.4 18.3 96.6 10.8 M96.4 18.3 L100.4 18.3 101.3 18.3 M90.7 29.4 L90.7 18.3 M100.4 29.0 L100.4 18.3 M95.8 29.15 L95.8 18.3 M86.7 28.9 L86.7 18.3" fill="none" stroke="#000000" stroke-linecap="round" stroke-linejoin="round" stroke-opacity="0.4" stroke-width="1.0"/>
      <path d="M87.2 6.45 Q88.9 5.65 90.6 5.65 L92.4 6.0 Q93.45 6.5 93.45 7.55 93.45 8.4 93.05 9.25 L92.05 7.65 Q91.5 7.05 90.55 6.8 L87.2 6.45 M81.25 5.65 L81.9 7.05 81.85 7.05 80.65 6.2 79.85 6.7 79.85 8.7 Q79.9 10.55 80.1 12.05 L79.85 11.3 78.4 8.35 78.8 7.35 Q79.05 5.45 78.0 4.05 L77.9 3.95 77.15 3.35 Q79.45 4.0 81.25 5.65" fill="#00f700" fill-rule="evenodd" stroke="none"/>
      <path d="M93.05 9.25 L91.3 11.55 89.65 13.0 88.35 13.9 84.3 13.9 86.25 12.4 87.3 11.55 89.35 9.5 88.8 9.5 86.0 11.55 85.35 12.0 Q84.25 12.9 83.5 13.55 L83.1 13.9 80.65 13.9 Q81.0 12.65 81.6 11.55 82.3 10.2 83.45 9.05 L84.9 7.8 Q86.05 6.95 87.2 6.45 L90.55 6.8 Q91.5 7.05 92.05 7.65 L93.05 9.25 M81.25 5.65 L81.35 5.75 Q82.8 7.25 83.45 9.05 82.3 10.2 81.6 11.55 81.0 12.65 80.65 13.9 L80.2 13.9 Q80.2 12.0 79.2 10.15 78.15 8.25 76.55 6.7 L75.9 6.65 75.6 7.1 76.2 8.85 Q77.5 11.6 79.4 13.9 L75.55 13.9 Q73.0 12.3 71.7 9.5 70.25 6.15 72.8 3.85 74.1 2.75 75.7 3.05 L77.15 3.35 77.9 3.95 78.0 4.05 Q79.05 5.45 78.8 7.35 L78.4 8.35 79.85 11.3 80.1 12.05 Q79.9 10.55 79.85 8.7 L79.85 6.7 80.65 6.2 81.85 7.05 81.9 7.05 81.25 5.65" fill="#009900" fill-rule="evenodd" stroke="none"/>
      <path d="M87.2 6.45 Q88.9 5.65 90.6 5.65 L92.4 6.0 Q93.45 6.5 93.45 7.55 93.45 8.4 93.05 9.25 L91.3 11.55 89.65 13.0 88.35 13.9 89.65 13.9 M81.25 5.65 L81.35 5.75 Q82.8 7.25 83.45 9.05 L84.9 7.8 Q86.05 6.95 87.2 6.45 M80.65 13.9 L83.1 13.9 83.5 13.55 Q84.25 12.9 85.35 12.0 L86.0 11.55 88.8 9.5 89.35 9.5 87.3 11.55 86.25 12.4 84.3 13.9 88.35 13.9 Q85.3 15.95 82.3 16.35 M80.65 13.9 Q81.0 12.65 81.6 11.55 82.3 10.2 83.45 9.05 M81.25 5.65 Q79.45 4.0 77.15 3.35 L75.7 3.05 Q74.1 2.75 72.8 3.85 70.25 6.15 71.7 9.5 73.0 12.3 75.55 13.9 L79.4 13.9 Q77.5 11.6 76.2 8.85 L75.6 7.1 75.9 6.65 76.55 6.7 Q78.15 8.25 79.2 10.15 80.2 12.0 80.2 13.9 L80.65 13.9 80.5 14.55 M82.05 14.95 L83.1 13.9 83.3 13.9 83.5 13.55 M84.3 13.9 L81.4 15.6 M83.3 13.9 L84.3 13.9 M79.4 13.9 L80.2 13.9 M75.55 13.9 L74.9 13.9" fill="none" stroke="#000000" stroke-linecap="round" stroke-linejoin="round" stroke-opacity="0.4" stroke-width="1.0"/>
      <path d="M88.55 13.4 L90.6 13.4 90.9 20.85 90.35 20.85 88.55 20.85 90.35 20.85 90.3 31.5 88.1 31.75 87.95 20.85 88.55 20.85 88.55 13.4 M81.2 31.75 L76.6 31.55 76.6 20.85 75.7 20.85 75.7 13.4 80.4 13.4 80.6 20.85 76.6 20.85 80.6 20.85 81.2 20.85 81.2 31.75" fill="#009900" fill-rule="evenodd" stroke="none"/>
      <path d="M86.3 32.0 L81.2 31.75 81.2 20.85 84.7 20.85 81.2 20.85 80.6 20.85 80.4 13.4 84.7 13.4 84.7 20.85 86.3 20.85 86.3 32.0 M76.6 31.55 L71.45 31.3 71.45 20.85 70.1 20.85 70.1 13.4 75.7 13.4 75.7 20.85 76.6 20.85 76.6 31.55 M71.45 20.85 L75.7 20.85 71.45 20.85" fill="#b2014f" fill-rule="evenodd" stroke="none"/>
      <path d="M90.6 13.4 L92.9 13.4 92.9 20.85 91.65 20.85 91.65 31.3 90.3 31.5 90.35 20.85 90.9 20.85 90.6 13.4 M88.1 31.75 L86.3 32.0 86.3 20.85 84.7 20.85 84.7 13.4 88.55 13.4 88.55 20.85 87.95 20.85 88.1 31.75 M86.3 20.85 L87.95 20.85 86.3 20.85 M91.65 20.85 L90.9 20.85 91.65 20.85" fill="#89003c" fill-rule="evenodd" stroke="none"/>
      <path d="M88.55 13.4 L90.6 13.4 92.9 13.4 92.9 20.85 91.65 20.85 91.65 31.3 90.3 31.5 88.1 31.75 86.3 32.0 81.2 31.75 76.6 31.55 71.45 31.3 71.45 20.85 70.1 20.85 70.1 13.4 75.7 13.4 80.4 13.4 84.7 13.4 88.55 13.4 88.55 20.85 90.35 20.85 90.9 20.85 90.6 13.4 M84.7 20.85 L81.2 20.85 81.2 31.75 M88.55 20.85 L87.95 20.85 88.1 31.75 M87.95 20.85 L86.3 20.85 86.3 32.0 M86.3 20.85 L84.7 20.85 84.7 13.4 M90.9 20.85 L91.65 20.85 M90.35 20.85 L90.3 31.5 M75.7 20.85 L71.45 20.85 M75.7 13.4 L75.7 20.85 76.6 20.85 80.6 20.85 80.4 13.4 M76.6 20.85 L76.6 31.55 M81.2 20.85 L80.6 20.85" fill="none" stroke="#000000" stroke-linecap="round" stroke-linejoin="round" stroke-opacity="0.4" stroke-width="1.0"/>
      <path d="M18.3 3.05 L20.5 2.7 22.25 3.05 Q23.3 3.55 23.3 4.6 23.3 6.5 21.2 8.6 L19.5 10.05 18.25 10.95 14.15 10.95 16.15 9.45 17.2 8.6 19.25 6.5 18.65 6.5 15.85 8.6 15.25 9.05 13.4 10.6 13.0 10.95 10.55 10.95 Q10.9 9.7 11.5 8.6 12.2 7.25 13.35 6.1 12.2 7.25 11.5 8.6 10.9 9.7 10.55 10.95 L10.05 10.95 Q10.1 9.15 9.15 7.35 L9.05 7.2 9.0 7.1 Q8.85 6.0 9.0 4.9 L9.05 4.8 10.2 3.7 10.5 3.65 12.2 3.95 Q12.95 4.95 13.35 6.1 L14.8 4.85 16.8 3.65 17.05 4.1 17.1 4.1 17.15 5.5 17.1 5.65 Q16.45 7.05 15.4 8.15 L13.65 10.15 16.05 8.2 Q17.05 7.3 18.4 6.55 L18.95 6.1 17.95 4.2 17.9 4.15 17.95 3.4 18.3 3.05 M7.25 0.45 L7.65 0.85 Q9.35 2.35 8.6 4.4 L8.5 4.45 7.65 5.1 7.15 4.5 6.4 3.75 5.8 3.7 5.5 4.15 6.1 5.9 Q7.1 8.1 8.55 10.0 L9.3 10.95 5.4 10.95 Q3.9 10.0 2.85 8.65 L1.6 6.5 Q0.15 3.2 2.7 0.9 4.0 -0.25 5.6 0.1 L7.25 0.45" fill="#ff35c5" fill-rule="evenodd" stroke="none"/>
      <path d="M18.3 3.05 L17.95 3.4 17.9 4.15 17.95 4.2 18.95 6.1 18.4 6.55 Q17.05 7.3 16.05 8.2 L13.65 10.15 15.4 8.15 Q16.45 7.05 17.1 5.65 L17.15 5.5 17.1 4.1 17.05 4.1 16.8 3.65 18.3 3.05 M12.2 3.95 L10.5 3.65 10.2 3.7 9.05 4.8 9.0 4.9 Q8.85 6.0 9.0 7.1 L7.65 5.1 8.5 4.45 8.6 4.4 Q9.35 2.35 7.65 0.85 L7.25 0.45 8.65 1.0 Q10.0 1.65 11.2 2.8 L11.95 3.6 12.2 3.95" fill="#ffffff" fill-rule="evenodd" stroke="none"/>
      <path d="M18.3 3.05 L20.5 2.7 22.25 3.05 Q23.3 3.55 23.3 4.6 23.3 6.5 21.2 8.6 L19.5 10.05 18.25 10.95 19.55 10.95 M18.3 3.05 L16.8 3.65 14.8 4.85 13.35 6.1 Q12.2 7.25 11.5 8.6 10.9 9.7 10.55 10.95 L13.0 10.95 13.4 10.6 15.25 9.05 15.85 8.6 18.65 6.5 19.25 6.5 17.2 8.6 16.15 9.45 14.15 10.95 18.25 10.95 Q15.2 13.0 12.15 13.4 M9.0 7.1 L9.05 7.2 9.15 7.35 Q10.1 9.15 10.05 10.95 L10.55 10.95 10.4 11.6 M13.35 6.1 Q12.95 4.95 12.2 3.95 L11.95 3.6 11.2 2.8 Q10.0 1.65 8.65 1.0 L7.25 0.45 5.6 0.1 Q4.0 -0.25 2.7 0.9 0.15 3.2 1.6 6.5 L2.85 8.65 Q3.9 10.0 5.4 10.95 L9.3 10.95 8.55 10.0 Q7.1 8.1 6.1 5.9 L5.5 4.15 5.8 3.7 6.4 3.75 7.15 4.5 7.65 5.1 9.0 7.1 M13.4 10.6 L13.2 10.95 14.15 10.95 11.3 12.65 M11.95 12.0 L13.0 10.95 13.2 10.95 M9.3 10.95 L10.05 10.95 M5.4 10.95 L4.8 10.95" fill="none" stroke="#000000" stroke-linecap="round" stroke-linejoin="round" stroke-opacity="0.4" stroke-width="1.0"/>
      <path d="M20.45 10.45 L20.8 17.9 20.2 17.9 18.45 17.9 20.2 17.9 20.15 28.55 18.0 28.8 17.8 17.9 18.45 17.9 18.45 10.45 20.45 10.45 M5.55 10.45 L10.3 10.45 10.45 17.9 11.1 17.9 11.1 28.8 6.5 28.6 6.5 17.9 5.55 17.9 5.55 10.45 M6.5 17.9 L10.45 17.9 6.5 17.9" fill="#ff35c5" fill-rule="evenodd" stroke="none"/>
      <path d="M20.2 17.9 L20.8 17.9 20.45 10.45 22.8 10.45 22.8 17.9 21.55 17.9 21.55 28.35 20.15 28.55 20.2 17.9 M18.45 10.45 L18.45 17.9 17.8 17.9 16.2 17.9 17.8 17.9 18.0 28.8 16.2 29.0 16.2 17.9 14.55 17.9 14.55 10.45 18.45 10.45 M20.8 17.9 L21.55 17.9 20.8 17.9" fill="#333399" fill-rule="evenodd" stroke="none"/>
      <path d="M10.3 10.45 L14.55 10.45 14.55 17.9 16.2 17.9 16.2 29.0 11.1 28.8 11.1 17.9 10.45 17.9 10.3 10.45 M6.5 28.6 L1.3 28.35 1.3 17.9 0.0 17.9 0.0 10.45 5.55 10.45 5.55 17.9 6.5 17.9 6.5 28.6 M14.55 17.9 L11.1 17.9 14.55 17.9 M1.3 17.9 L5.55 17.9 1.3 17.9" fill="#3366cc" fill-rule="evenodd" stroke="none"/>
      <path d="M20.2 17.9 L20.8 17.9 20.45 10.45 18.45 10.45 18.45 17.9 20.2 17.9 20.15 28.55 21.55 28.35 21.55 17.9 20.8 17.9 M20.45 10.45 L22.8 10.45 22.8 17.9 21.55 17.9 M14.55 10.45 L18.45 10.45 M10.3 10.45 L14.55 10.45 14.55 17.9 16.2 17.9 17.8 17.9 18.45 17.9 M6.5 28.6 L1.3 28.35 1.3 17.9 0.0 17.9 0.0 10.45 5.55 10.45 10.3 10.45 10.45 17.9 11.1 17.9 14.55 17.9 M6.5 28.6 L6.5 17.9 5.55 17.9 1.3 17.9 M10.45 17.9 L6.5 17.9 M5.55 17.9 L5.55 10.45 M20.15 28.55 L18.0 28.8 16.2 29.0 11.1 28.8 6.5 28.6 M17.8 17.9 L18.0 28.8 M11.1 28.8 L11.1 17.9 M16.2 29.0 L16.2 17.9" fill="none" stroke="#000000" stroke-linecap="round" stroke-linejoin="round" stroke-opacity="0.4" stroke-width="1.0"/>
      <path d="M23.4 8.7 Q23.7 7.9 24.15 7.2 24.7 6.25 25.55 5.4 L25.6 5.4 25.9 5.1 Q26.9 4.2 28.05 3.65 29.5 2.95 31.15 2.7 L32.4 2.65 Q33.3 2.8 34.1 3.5 L35.0 4.5 34.65 5.25 Q34.05 6.7 32.95 7.65 31.9 8.6 30.45 9.0 L30.7 8.5 31.25 6.75 31.0 6.25 30.35 6.35 29.65 7.1 Q28.5 8.3 27.7 9.75 L27.65 9.85 Q26.65 11.65 26.7 13.55 L26.2 13.55 Q25.9 12.3 25.25 11.15 24.55 9.8 23.4 8.7 24.55 9.8 25.25 11.15 25.9 12.3 26.2 13.55 L23.8 13.55 23.4 13.15 21.55 11.65 20.9 11.15 20.2 10.6 20.15 10.55 18.1 9.1 17.5 9.1 19.6 11.15 20.6 12.0 22.6 13.55 18.5 13.55 17.25 12.65 15.55 11.15 Q13.45 9.05 13.45 7.2 13.45 6.15 14.5 5.65 15.25 5.25 16.25 5.25 17.6 5.25 18.95 5.75 20.45 6.3 22.0 7.45 L22.75 8.1 23.4 8.7 M34.1 11.05 L31.35 13.55 27.45 13.55 28.95 11.55 28.85 11.95 31.1 10.0 34.05 9.9 34.1 11.05" fill="#ff0000" fill-rule="evenodd" stroke="none"/>
      <path d="M30.45 9.0 Q31.9 8.6 32.95 7.65 34.05 6.7 34.65 5.25 L35.0 4.5 Q36.3 6.5 35.2 9.1 L34.1 11.05 34.05 9.9 31.1 10.0 28.85 11.95 28.95 11.55 30.45 9.0" fill="#ffa0a0" fill-rule="evenodd" stroke="none"/>
      <path d="M35.0 4.5 L34.1 3.5 Q33.3 2.8 32.4 2.65 L31.15 2.7 Q29.5 2.95 28.05 3.65 26.9 4.2 25.9 5.1 L25.6 5.4 25.55 5.4 Q24.7 6.25 24.15 7.2 23.7 7.9 23.4 8.7 24.55 9.8 25.25 11.15 25.9 12.3 26.2 13.55 L26.7 13.55 Q26.65 11.65 27.65 9.85 L27.7 9.75 Q28.5 8.3 29.65 7.1 L30.35 6.35 31.0 6.25 31.25 6.75 30.7 8.5 30.45 9.0 28.95 11.55 27.45 13.55 31.35 13.55 31.95 13.55 M35.0 4.5 Q36.3 6.5 35.2 9.1 L34.1 11.05 31.35 13.55 M23.4 8.7 L22.75 8.1 22.0 7.45 Q20.45 6.3 18.95 5.75 17.6 5.25 16.25 5.25 15.25 5.25 14.5 5.65 13.45 6.15 13.45 7.2 13.45 9.05 15.55 11.15 L17.25 12.65 18.5 13.55 22.6 13.55 20.6 12.0 19.6 11.15 17.5 9.1 18.1 9.1 20.15 10.55 20.2 10.6 20.9 11.15 21.55 11.65 23.4 13.15 23.8 13.55 26.2 13.55 26.35 14.2 M27.45 13.55 L26.7 13.55 M23.4 13.15 L23.55 13.55 23.8 13.55 24.8 14.55 M23.55 13.55 L22.6 13.55 Q24.3 14.7 25.5 15.25 M24.6 15.95 Q21.55 15.55 18.5 13.55 L17.2 13.55" fill="none" stroke="#000000" stroke-linecap="round" stroke-linejoin="round" stroke-opacity="0.4" stroke-width="1.0"/>
      <path d="M22.2 13.0 L22.2 20.5 20.6 20.5 18.95 20.5 20.6 20.5 20.6 31.6 18.75 31.4 18.95 20.5 18.35 20.5 18.35 13.0 22.2 13.0 M16.6 31.15 L15.25 30.95 15.25 20.5 13.95 20.5 13.95 13.0 16.3 13.0 15.95 20.5 16.55 20.5 16.6 31.15 M15.95 20.5 L15.25 20.5 15.95 20.5" fill="#cccccc" fill-rule="evenodd" stroke="none"/>
      <path d="M22.2 20.5 L22.2 13.0 26.5 13.0 26.3 20.5 25.65 20.5 22.2 20.5 25.65 20.5 25.65 31.4 20.6 31.6 20.6 20.5 22.2 20.5 M30.3 20.5 L31.2 20.5 31.2 13.0 36.75 13.0 36.75 20.5 35.45 20.5 31.2 20.5 35.45 20.5 35.45 30.95 30.3 31.2 30.3 20.5" fill="#ffffff" fill-rule="evenodd" stroke="none"/>
      <path d="M25.65 20.5 L26.3 20.5 26.5 13.0 31.2 13.0 31.2 20.5 30.3 20.5 26.3 20.5 30.3 20.5 30.3 31.2 25.65 31.4 25.65 20.5 M18.35 13.0 L18.35 20.5 18.95 20.5 18.75 31.4 16.6 31.15 16.55 20.5 15.95 20.5 16.3 13.0 18.35 13.0 M18.35 20.5 L16.55 20.5 18.35 20.5" fill="#ff0000" fill-rule="evenodd" stroke="none"/>
      <path d="M22.2 13.0 L22.2 20.5 25.65 20.5 26.3 20.5 26.5 13.0 22.2 13.0 18.35 13.0 18.35 20.5 18.95 20.5 20.6 20.5 22.2 20.5 M26.3 20.5 L30.3 20.5 31.2 20.5 31.2 13.0 26.5 13.0 M35.45 20.5 L36.75 20.5 36.75 13.0 31.2 13.0 M31.2 20.5 L35.45 20.5 35.45 30.95 30.3 31.2 25.65 31.4 20.6 31.6 18.75 31.4 16.6 31.15 15.25 30.95 15.25 20.5 13.95 20.5 13.95 13.0 16.3 13.0 18.35 13.0 M16.3 13.0 L15.95 20.5 16.55 20.5 18.35 20.5 M15.25 20.5 L15.95 20.5 M16.6 31.15 L16.55 20.5 M18.75 31.4 L18.95 20.5 M30.3 31.2 L30.3 20.5 M25.65 31.4 L25.65 20.5 M20.6 31.6 L20.6 20.5" fill="none" stroke="#000000" stroke-linecap="round" stroke-linejoin="round" stroke-opacity="0.4" stroke-width="1.0"/>
      <path d="M43.9 15.7 Q43.6 16.65 43.6 17.8 L43.6 24.6 43.7 25.8 43.7 25.95 43.55 25.95 36.75 27.0 Q35.3 27.25 34.0 26.35 L33.35 25.8 Q32.65 25.0 32.5 23.95 L32.05 21.05 Q31.75 19.55 32.7 18.3 33.6 17.05 35.1 16.8 L41.9 15.75 43.9 15.7" fill="#663300" fill-rule="evenodd" stroke="none"/>
      <path d="M43.9 15.7 L41.9 15.75 35.1 16.8 Q33.6 17.05 32.7 18.3 31.75 19.55 32.05 21.05 L32.5 23.95 Q32.65 25.0 33.35 25.8 L34.0 26.35 Q35.3 27.25 36.75 27.0 L43.55 25.95 43.7 25.95 43.7 25.8 43.6 24.6 43.6 17.8 Q43.6 16.65 43.9 15.7 Z" fill="none" stroke="#000000" stroke-linecap="round" stroke-linejoin="round" stroke-opacity="0.4" stroke-width="0.6000000000000001"/>
      <path d="M42.5 17.1 L43.0 17.1 M40.5 17.35 L41.5 17.15 M42.75 24.8 L41.75 24.95 M38.5 17.65 L39.5 17.45 M36.5 17.95 L37.5 17.75 M34.75 18.85 L35.55 18.25 M34.05 20.6 L34.25 19.65 M34.35 22.6 L34.2 21.6 M35.1 24.65 L34.55 23.7 M36.85 25.6 L35.9 25.3 M38.75 25.35 L37.75 25.55 M40.75 25.05 L39.75 25.25" fill="none" stroke="#000000" stroke-linecap="round" stroke-linejoin="round" stroke-opacity="0.4" stroke-width="0.30000000000000004"/>
    </g>
    <linearGradient gradientTransform="matrix(-0.0016, 0.0086, -0.0103, -0.0019, 58.2, 18.15)" gradientUnits="userSpaceOnUse" id="gradient0" spreadMethod="pad" x1="-819.2" x2="819.2">
      <stop offset="0.023529411764705882" stop-color="#ffffff"/>
      <stop offset="0.9450980392156862" stop-color="#7c7c7c" stop-opacity="0.9882353"/>
    </linearGradient>
    <linearGradient gradientTransform="matrix(-6.0E-4, 0.0024, -0.0029, -8.0E-4, 63.55, 20.65)" gradientUnits="userSpaceOnUse" id="gradient1" spreadMethod="pad" x1="-819.2" x2="819.2">
      <stop offset="0.023529411764705882" stop-color="#ffffff"/>
      <stop offset="0.9450980392156862" stop-color="#999999" stop-opacity="0.9882353"/>
    </linearGradient>
  </defs>
</svg>
