<?xml version="1.0" encoding="UTF-8" standalone="no"?>
<svg xmlns:xlink="http://www.w3.org/1999/xlink" height="531.5px" width="460.6px" xmlns="http://www.w3.org/2000/svg">
  <g transform="matrix(1.0, 0.0, 0.0, 1.0, 193.65, 334.05)">
    <use height="36.6" transform="matrix(1.0, 0.0, 0.0, 1.0, -80.25, -173.95)" width="152.25" xlink:href="#shape0"/>
  </g>
  <defs>
    <g id="shape0" transform="matrix(1.0, 0.0, 0.0, 1.0, 77.15, 18.85)">
      <path d="M-74.95 10.6 Q-76.05 10.45 -75.65 7.65 -75.3 5.05 -71.8 -1.45 -68.55 -7.45 -67.4 -8.6 -66.6 -9.4 -64.3 -10.05 L-65.2 -9.0 -67.8 -5.4 -69.8 -2.0 -73.5 5.9 Q-74.5 8.35 -74.95 10.6" fill="#fedf67" fill-rule="evenodd" stroke="none"/>
      <path d="M-64.3 -10.05 Q-66.6 -9.4 -67.4 -8.6 -68.55 -7.45 -71.8 -1.45 -75.3 5.05 -75.65 7.65 -76.05 10.45 -74.95 10.6 L-74.85 10.6 Q-73.0 10.65 -72.0 9.0 L-71.0 6.1 -70.25 3.75 Q-69.7 2.25 -69.15 1.5 L-65.7 -2.7 Q-62.05 -6.6 -59.95 -6.55 -59.4 -6.55 -58.95 -6.2 L-58.15 -5.25 Q-57.35 -4.0 -55.55 -3.95 L-53.4 -4.1 -44.95 -5.2 -44.75 -5.2 -35.15 -6.65 -33.15 -7.05 -27.05 -7.35 Q-25.3 -7.35 -24.95 -8.15 -24.4 -9.25 -24.3 -10.15 -23.9 -13.1 -24.15 -14.25 -24.3 -15.1 -25.35 -15.15 L-27.65 -15.0 -28.3 -14.95 -34.55 -14.45 -39.05 -13.8 -43.05 -13.3 -45.1 -13.05 -57.75 -11.4 -64.3 -10.05 M-68.0 -9.8 Q-67.0 -10.85 -62.75 -11.8 L-57.55 -12.75 -43.75 -14.65 -41.35 -14.9 -37.2 -15.35 -33.05 -16.0 -28.65 -16.25 -28.1 -16.3 -25.4 -16.55 -23.4 -16.25 Q-23.05 -15.95 -22.9 -14.65 L-23.1 -10.2 Q-23.3 -8.85 -23.85 -7.5 L-24.35 -6.85 -25.0 -6.4 Q-27.4 -5.65 -29.25 -5.7 L-32.3 -5.7 -43.45 -4.2 -44.55 -4.1 -48.6 -3.35 -54.7 -2.65 -55.7 -2.65 Q-57.8 -2.7 -58.95 -3.95 L-60.15 -5.25 Q-60.95 -5.25 -63.0 -3.55 L-65.45 -1.2 Q-67.75 1.2 -68.6 3.25 L-70.95 9.3 Q-72.2 11.85 -74.5 11.8 L-75.2 11.75 Q-77.0 11.5 -77.15 9.8 L-76.85 7.7 Q-76.4 4.25 -72.6 -2.55 -69.55 -8.0 -68.0 -9.8" fill="#000000" fill-rule="evenodd" stroke="none"/>
      <path d="M-74.95 10.6 Q-74.5 8.35 -73.5 5.9 L-69.8 -2.0 -67.8 -5.4 -65.2 -9.0 -64.3 -10.05 -57.75 -11.4 -45.1 -13.05 -49.0 -8.8 -51.0 -6.65 -55.7 -7.0 Q-56.75 -7.0 -58.95 -6.2 -59.4 -6.55 -59.95 -6.55 -62.05 -6.6 -65.7 -2.7 L-69.15 1.5 Q-69.7 2.25 -70.25 3.75 L-71.0 6.1 -72.0 9.0 Q-73.0 10.65 -74.85 10.6 L-74.95 10.6 M-43.05 -13.3 L-39.05 -13.8 -34.55 -14.45 -28.3 -14.95 -28.75 -11.4 Q-29.25 -8.15 -31.2 -7.6 L-33.95 -7.1 -37.0 -6.8 -39.9 -6.4 -42.8 -6.2 -45.65 -6.3 Q-46.25 -7.2 -46.25 -8.1 -46.25 -10.1 -43.7 -12.75 L-43.05 -13.3" fill="#ffcc00" fill-rule="evenodd" stroke="none"/>
      <path d="M-45.1 -13.05 L-43.05 -13.3 -43.7 -12.75 Q-46.25 -10.1 -46.25 -8.1 -46.25 -7.2 -45.65 -6.3 L-44.75 -5.2 -44.95 -5.2 -53.4 -4.1 -51.0 -6.65 -49.0 -8.8 -45.1 -13.05" fill="#ffffff" fill-rule="evenodd" stroke="none"/>
      <path d="M-28.3 -14.95 L-27.65 -15.0 -25.35 -15.15 Q-24.3 -15.1 -24.15 -14.25 -23.9 -13.1 -24.3 -10.15 -24.4 -9.25 -24.95 -8.15 -25.3 -7.35 -27.05 -7.35 L-33.15 -7.05 -35.15 -6.65 -44.75 -5.2 -45.65 -6.3 -42.8 -6.2 -39.9 -6.4 -37.0 -6.8 -33.95 -7.1 -31.2 -7.6 Q-29.25 -8.15 -28.75 -11.4 L-28.3 -14.95 M-53.4 -4.1 L-55.55 -3.95 Q-57.35 -4.0 -58.15 -5.25 L-58.95 -6.2 Q-56.75 -7.0 -55.7 -7.0 L-51.0 -6.65 -53.4 -4.1" fill="#ff9900" fill-rule="evenodd" stroke="none"/>
      <path d="M10.3 -16.95 L11.35 -16.9 15.2 -16.5 14.55 -15.65 13.55 -13.9 12.25 -14.0 7.85 -14.3 7.55 -14.3 9.9 -16.55 10.3 -16.95 M57.2 -16.0 L60.45 -15.55 Q59.9 -14.45 59.9 -13.75 L59.9 -13.35 56.85 -13.75 56.05 -13.85 57.2 -16.0 M54.4 14.1 Q50.7 13.9 47.85 12.65 L48.8 10.95 Q51.55 12.5 54.5 12.7 L54.4 14.1 M2.9 15.4 L-0.85 14.3 -0.65 14.0 0.65 12.45 3.8 13.35 3.15 14.6 Q2.95 14.95 2.9 15.4 M33.45 -10.5 L33.4 -10.9 33.65 -11.7 Q33.95 -12.25 34.5 -12.4 L34.9 -12.4 35.1 -12.2 35.65 -11.55 35.9 -11.0 Q35.9 -9.65 34.35 -9.65 33.55 -9.65 33.45 -10.5 M32.25 -12.75 L32.5 -12.75 32.6 -12.6 32.95 -12.2 33.1 -11.85 Q33.1 -11.0 32.15 -11.0 31.65 -11.0 31.55 -11.55 L31.55 -11.8 31.7 -12.3 32.25 -12.75 M72.95 -11.5 L72.9 -11.35 72.65 -11.35 72.6 -11.5 72.9 -11.6 72.95 -11.5 M72.55 -10.8 Q72.55 -11.25 73.0 -11.25 73.45 -11.25 73.45 -10.85 L73.25 -10.6 72.6 -10.6 72.55 -10.8 M-18.75 -12.6 L-18.6 -12.4 -18.7 -12.2 -19.0 -12.1 -19.35 -12.1 -19.4 -12.3 -19.2 -12.6 -18.75 -12.6 M-18.45 -10.8 Q-19.2 -10.8 -19.2 -11.45 -19.2 -12.05 -18.4 -12.15 -17.6 -12.25 -17.6 -11.5 L-17.85 -11.05 Q-18.1 -10.8 -18.45 -10.8" fill="#ffffff" fill-rule="evenodd" stroke="none"/>
      <path d="M15.2 -16.5 L11.35 -16.9 10.3 -16.95 9.15 -17.0 5.65 -17.05 -6.95 -16.9 -9.75 -16.25 -14.25 -15.5 -14.35 -15.5 -14.4 -15.5 -15.05 -15.55 -15.05 -15.6 -16.75 -15.5 -23.1 -14.8 -24.05 -14.6 -25.25 -14.3 -25.75 -11.05 -25.5 -8.9 -25.1 -7.95 -24.0 -7.6 -21.1 -7.1 -20.65 -7.05 -19.45 -6.7 Q-17.6 -6.05 -17.05 -4.5 L-17.0 -4.2 Q-16.4 -3.35 -15.75 -1.6 -14.45 1.9 -12.8 4.6 L-11.35 6.55 Q-8.3 10.25 -4.5 12.5 -2.8 13.55 -0.85 14.3 L2.9 15.4 8.05 16.05 8.9 16.1 Q14.45 16.1 19.9 11.95 23.2 9.45 24.65 7.25 26.7 4.1 27.5 1.75 L29.0 -3.3 28.65 -3.85 28.25 -4.4 Q28.25 -5.15 28.85 -5.35 L29.5 -5.75 30.45 -5.75 37.35 -5.4 37.65 -5.3 Q38.25 -5.1 38.25 -4.65 38.25 -4.05 37.75 -4.0 L37.15 -4.0 37.35 -3.5 38.15 -0.6 Q39.45 4.35 40.0 5.5 40.55 6.6 41.25 7.5 42.65 9.4 44.6 10.6 L47.6 12.5 47.85 12.65 Q50.7 13.9 54.4 14.1 L55.55 14.1 Q63.75 14.1 67.45 8.95 69.0 6.75 69.75 3.0 L70.25 -2.9 70.5 -5.9 70.6 -6.55 70.7 -6.65 70.85 -6.85 Q71.2 -7.25 72.15 -7.4 L72.3 -7.45 Q74.0 -7.75 74.0 -8.65 L73.85 -10.55 73.6 -10.25 Q73.1 -9.8 72.55 -9.8 L72.0 -9.9 Q71.45 -10.1 71.45 -10.8 L71.55 -11.6 71.7 -12.0 Q71.85 -12.25 72.3 -12.25 73.4 -12.2 73.75 -11.6 L73.6 -13.15 73.4 -13.7 72.15 -13.9 71.95 -13.9 71.5 -13.75 71.45 -13.75 Q69.4 -13.75 63.3 -15.0 L60.45 -15.55 57.2 -16.0 52.15 -16.3 44.4 -15.7 37.15 -13.55 35.7 -13.05 35.5 -13.05 27.85 -13.05 27.25 -13.5 24.95 -14.4 20.7 -15.5 15.45 -16.45 15.2 -16.5 M7.55 -14.3 L7.85 -14.3 12.25 -14.0 13.55 -13.9 19.5 -13.5 Q23.5 -13.3 24.6 -12.4 L25.1 -12.3 25.75 -11.4 26.0 -10.5 26.35 -8.75 26.5 -6.7 26.4 -4.2 26.1 -1.85 Q25.5 1.5 24.0 4.5 19.4 13.75 7.85 13.75 L6.55 13.7 3.8 13.35 0.65 12.45 Q-1.5 11.6 -3.6 10.3 L-6.05 8.55 Q-9.15 5.95 -10.75 2.75 -11.55 1.15 -12.5 -3.25 L-12.95 -5.65 Q-13.5 -8.5 -13.5 -10.2 L-13.45 -11.4 -13.2 -12.7 -13.15 -12.7 Q-12.95 -13.35 -11.85 -13.65 L-4.75 -14.55 Q-1.25 -14.85 7.55 -14.3 M14.5 -18.3 L16.7 -18.1 19.9 -17.5 25.05 -16.0 26.35 -15.6 27.25 -15.25 28.3 -14.6 35.5 -14.4 37.15 -15.25 40.3 -16.25 Q45.25 -17.6 48.5 -17.8 L53.3 -17.8 58.05 -17.6 59.0 -17.5 61.3 -17.0 63.6 -16.55 68.65 -15.75 70.85 -15.3 71.15 -15.4 71.3 -15.3 71.4 -15.3 73.85 -14.8 74.55 -14.15 74.8 -13.3 Q75.1 -12.4 75.1 -10.1 L75.1 -7.9 Q74.65 -6.4 72.3 -6.3 L71.95 -6.3 71.85 -6.3 71.95 -5.95 72.0 -5.25 Q72.0 5.25 68.2 10.35 64.15 15.75 55.5 15.75 L54.45 15.75 Q50.7 15.5 47.15 13.85 L45.0 12.7 43.0 11.35 Q40.05 9.15 38.75 6.6 37.75 4.6 37.0 1.2 L36.6 -0.55 35.85 -4.0 33.35 -4.0 30.5 -4.0 30.5 -3.55 Q30.5 -2.2 30.0 -0.65 L29.0 2.5 Q28.35 4.85 25.9 8.5 23.9 11.0 20.9 13.25 14.9 17.75 9.1 17.75 L9.05 17.75 2.7 17.15 1.8 16.9 1.5 16.85 -2.0 15.65 Q-10.25 12.3 -15.0 4.25 L-16.5 1.75 -17.85 -1.4 -19.0 -4.25 -19.0 -4.35 Q-19.6 -5.05 -20.75 -5.25 L-23.6 -5.9 -25.75 -6.75 Q-26.8 -7.45 -27.1 -8.8 L-27.25 -10.95 Q-27.25 -13.8 -26.75 -15.0 -26.3 -16.0 -23.25 -16.65 L-23.0 -16.7 -13.9 -17.3 -12.95 -17.6 -4.75 -18.8 2.95 -18.75 9.15 -18.6 11.9 -18.45 14.5 -18.3 M-4.85 7.25 Q-1.8 9.95 1.75 11.15 L4.8 11.85 5.9 12.0 7.8 12.1 Q18.45 12.1 22.75 3.45 L23.65 1.35 Q25.0 -2.35 25.0 -6.55 L24.75 -9.25 24.1 -10.75 22.2 -11.2 21.2 -11.4 14.75 -12.0 13.05 -12.15 10.65 -12.4 5.9 -12.75 -1.0 -13.05 -10.0 -12.25 -11.85 -11.75 -11.85 -11.65 -11.9 -11.65 -12.0 -10.9 -12.0 -10.35 -12.0 -10.3 Q-12.0 -8.8 -11.3 -5.55 L-10.8 -3.35 Q-9.7 1.2 -9.25 2.1 -7.85 4.65 -5.05 7.1 L-4.85 7.25 M37.0 -10.4 L37.0 -10.85 37.1 -11.25 37.2 -12.3 Q37.25 -13.15 37.6 -13.2 L37.9 -12.75 37.6 -10.4 37.5 -10.0 37.45 -9.7 37.15 -8.7 36.75 -7.6 36.35 -7.85 36.3 -7.95 Q36.3 -8.35 36.65 -9.4 L36.7 -9.5 37.0 -10.4 M39.5 -5.95 L39.25 -9.15 39.3 -10.25 39.5 -10.65 39.45 -10.7 39.45 -11.1 Q39.45 -11.95 40.5 -12.3 L45.6 -13.65 54.5 -14.0 56.05 -13.85 56.85 -13.75 59.9 -13.35 63.15 -12.75 63.3 -12.75 Q67.05 -12.0 67.85 -11.15 L68.25 -11.05 68.7 -10.25 68.9 -9.4 69.15 -7.85 69.15 -7.8 69.3 -5.95 Q69.3 -0.3 67.4 4.25 65.1 9.95 60.45 11.8 58.15 12.7 55.3 12.7 L54.5 12.7 Q51.55 12.5 48.8 10.95 L46.7 9.55 45.05 8.1 Q42.55 5.65 41.35 2.65 40.75 1.2 40.0 -2.8 L39.5 -5.95 M37.45 -8.15 Q37.5 -8.6 37.8 -8.6 L38.05 -8.45 38.1 -8.2 38.1 -8.1 37.9 -7.4 37.8 -7.15 37.45 -6.8 37.15 -6.85 37.1 -7.05 37.45 -8.1 37.45 -8.15 M56.25 -12.35 L55.3 -12.45 Q52.0 -12.7 49.3 -12.35 L41.9 -11.0 40.5 -10.55 40.55 -10.0 40.4 -9.25 Q40.4 -7.7 41.1 -4.0 L41.3 -2.9 Q42.1 1.25 42.45 2.05 43.5 4.4 45.6 6.6 L45.85 6.85 Q47.55 8.65 49.5 9.7 51.95 11.05 54.7 11.2 L55.25 11.2 58.15 10.95 Q63.85 9.7 66.45 3.3 68.15 -0.9 68.15 -5.8 L68.05 -7.8 68.05 -7.85 67.95 -8.3 67.5 -9.65 66.65 -10.35 Q65.8 -10.8 61.85 -11.45 L60.85 -11.6 60.75 -11.6 56.25 -12.35 M72.55 -11.85 Q71.9 -11.9 71.85 -11.0 L71.85 -10.85 71.95 -10.5 Q72.1 -10.2 72.55 -10.2 72.8 -10.2 73.3 -10.5 73.5 -10.6 73.5 -10.95 L73.25 -11.45 Q73.0 -11.8 72.55 -11.85 M-21.0 -13.55 Q-17.8 -13.65 -16.75 -12.85 -16.25 -12.4 -16.25 -11.55 -16.25 -10.8 -16.55 -10.45 -17.2 -9.65 -19.45 -9.65 -21.6 -9.65 -22.6 -10.35 -23.25 -10.85 -23.25 -11.5 L-22.6 -12.75 Q-21.85 -13.55 -21.0 -13.55 M-20.55 -10.4 L-18.4 -10.5 Q-17.0 -10.7 -17.0 -11.55 -17.0 -11.95 -17.75 -12.35 L-20.8 -12.75 -21.7 -12.25 -22.45 -11.45 -21.75 -10.8 -20.55 -10.4" fill="#000000" fill-rule="evenodd" stroke="none"/>
      <path d="M10.3 -16.95 L9.9 -16.55 7.55 -14.3 Q-1.25 -14.85 -4.75 -14.55 L-11.85 -13.65 Q-12.95 -13.35 -13.15 -12.7 L-13.2 -12.7 -13.45 -11.4 -13.5 -10.2 Q-13.5 -8.5 -12.95 -5.65 L-17.0 -6.2 -19.45 -6.7 -20.65 -7.05 -21.1 -7.1 -24.0 -7.6 -24.2 -8.65 -24.4 -11.3 Q-24.4 -13.25 -24.05 -14.6 L-23.1 -14.8 -16.75 -15.5 -15.05 -15.6 -15.05 -15.55 -14.4 -15.5 -14.35 -15.5 -14.25 -15.5 -9.75 -16.25 -6.95 -16.9 5.65 -17.05 9.15 -17.0 10.3 -16.95 M13.55 -13.9 L14.55 -15.65 15.2 -16.5 15.45 -16.45 20.7 -15.5 24.95 -14.4 27.25 -13.5 27.85 -13.05 35.5 -13.05 35.7 -13.05 37.15 -13.55 44.4 -15.7 52.15 -16.3 57.2 -16.0 56.05 -13.85 54.5 -14.0 45.6 -13.65 40.5 -12.3 Q39.45 -11.95 39.45 -11.1 L39.45 -10.7 39.5 -10.65 39.3 -10.25 39.25 -9.15 39.5 -5.95 39.2 -6.4 37.45 -9.7 37.5 -10.0 37.6 -10.4 37.9 -12.75 37.6 -13.2 Q37.25 -13.15 37.2 -12.3 L37.1 -11.25 37.0 -10.85 37.0 -10.4 Q36.2 -11.6 35.8 -11.6 L35.65 -11.55 35.1 -12.2 34.9 -12.4 34.5 -12.4 Q33.95 -12.25 33.65 -11.7 L33.4 -10.9 33.45 -10.5 32.65 -9.95 29.8 -7.4 27.55 -5.2 26.4 -4.2 26.5 -6.7 26.35 -8.75 26.0 -10.5 25.75 -11.4 25.1 -12.3 24.6 -12.4 Q23.5 -13.3 19.5 -13.5 L13.55 -13.9 M60.45 -15.55 L63.3 -15.0 Q69.4 -13.75 71.45 -13.75 L71.7 -12.0 71.55 -11.6 71.45 -10.8 Q71.45 -10.1 72.0 -9.9 L72.0 -9.5 72.15 -7.4 Q71.2 -7.25 70.85 -6.85 L70.7 -6.65 69.2 -7.8 69.15 -7.8 69.15 -7.85 68.9 -9.4 68.7 -10.25 68.25 -11.05 67.85 -11.15 Q67.05 -12.0 63.3 -12.75 L63.15 -12.75 59.9 -13.35 59.9 -13.75 Q59.9 -14.45 60.45 -15.55 M32.25 -12.75 L31.7 -12.3 31.55 -11.8 31.55 -11.55 Q31.65 -11.0 32.15 -11.0 33.1 -11.0 33.1 -11.85 L32.95 -12.2 32.6 -12.6 32.5 -12.75 32.25 -12.75 M-21.0 -13.55 Q-21.85 -13.55 -22.6 -12.75 L-23.25 -11.5 Q-23.25 -10.85 -22.6 -10.35 -21.6 -9.65 -19.45 -9.65 -17.2 -9.65 -16.55 -10.45 -16.25 -10.8 -16.25 -11.55 -16.25 -12.4 -16.75 -12.85 -17.8 -13.65 -21.0 -13.55" fill="#ffcc00" fill-rule="evenodd" stroke="none"/>
      <path d="M-4.85 7.25 L0.2 1.95 Q5.4 -3.6 5.4 -4.6 L5.25 -5.3 4.6 -6.2 10.65 -12.4 13.05 -12.15 14.75 -12.0 21.2 -11.4 19.95 -10.45 17.0 -7.8 Q13.15 -3.9 11.8 -2.0 9.7 0.9 8.2 3.7 6.0 7.85 5.85 10.55 L5.8 11.0 5.9 12.0 4.8 11.85 1.75 11.15 Q-1.8 9.95 -4.85 7.25 M45.85 6.85 L48.75 2.35 Q50.9 -0.9 51.6 -2.8 L52.35 -5.6 Q52.75 -7.05 53.6 -8.2 L56.25 -12.35 60.75 -11.6 60.85 -11.6 61.85 -11.45 Q60.25 -9.3 58.0 -4.2 54.6 3.4 54.6 6.9 54.6 7.8 55.4 8.75 L57.1 10.3 58.15 10.95 55.25 11.2 54.7 11.2 Q51.95 11.05 49.5 9.7 47.55 8.65 45.85 6.85" fill="#ffffff" fill-opacity="0.6117647" fill-rule="evenodd" stroke="none"/>
      <path d="M10.65 -12.4 L4.6 -6.2 5.25 -5.3 5.4 -4.6 Q5.4 -3.6 0.2 1.95 L-4.85 7.25 -5.05 7.1 Q-7.85 4.65 -9.25 2.1 -9.7 1.2 -10.8 -3.35 L-11.3 -5.55 Q-12.0 -8.8 -12.0 -10.3 L-12.0 -10.35 -12.0 -10.9 -11.9 -11.65 -11.85 -11.65 -11.85 -11.75 -10.0 -12.25 -1.0 -13.05 5.9 -12.75 10.65 -12.4 M5.9 12.0 L5.8 11.0 5.85 10.55 Q6.0 7.85 8.2 3.7 9.7 0.9 11.8 -2.0 13.15 -3.9 17.0 -7.8 L19.95 -10.45 21.2 -11.4 22.2 -11.2 24.1 -10.75 24.75 -9.25 25.0 -6.55 Q25.0 -2.35 23.65 1.35 L22.75 3.45 Q18.45 12.1 7.8 12.1 L5.9 12.0 M45.85 6.85 L45.6 6.6 Q43.5 4.4 42.45 2.05 42.1 1.25 41.3 -2.9 L41.1 -4.0 Q40.4 -7.7 40.4 -9.25 L40.55 -10.0 40.5 -10.55 41.9 -11.0 49.3 -12.35 Q52.0 -12.7 55.3 -12.45 L56.25 -12.35 53.6 -8.2 Q52.75 -7.05 52.35 -5.6 L51.6 -2.8 Q50.9 -0.9 48.75 2.35 L45.85 6.85 M61.85 -11.45 Q65.8 -10.8 66.65 -10.35 L67.5 -9.65 67.95 -8.3 68.05 -7.85 68.05 -7.8 68.15 -5.8 Q68.15 -0.9 66.45 3.3 63.85 9.7 58.15 10.95 L57.1 10.3 55.4 8.75 Q54.6 7.8 54.6 6.9 54.6 3.4 58.0 -4.2 60.25 -9.3 61.85 -11.45" fill="#ffffff" fill-opacity="0.2" fill-rule="evenodd" stroke="none"/>
      <path d="M70.7 -6.65 L70.6 -6.55 70.5 -5.9 70.25 -2.9 69.75 3.0 Q69.0 6.75 67.45 8.95 63.75 14.1 55.55 14.1 L54.4 14.1 54.5 12.7 55.3 12.7 Q58.15 12.7 60.45 11.8 65.1 9.95 67.4 4.25 69.3 -0.3 69.3 -5.95 L69.15 -7.8 69.2 -7.8 70.7 -6.65 M47.85 12.65 L47.6 12.5 44.6 10.6 Q42.65 9.4 41.25 7.5 40.55 6.6 40.0 5.5 39.45 4.35 38.15 -0.6 L37.35 -3.5 37.15 -4.0 37.75 -4.0 Q38.25 -4.05 38.25 -4.65 38.25 -5.1 37.65 -5.3 L37.35 -5.4 30.45 -5.75 29.5 -5.75 28.85 -5.35 Q28.25 -5.15 28.25 -4.4 L28.65 -3.85 29.0 -3.3 27.5 1.75 Q26.7 4.1 24.65 7.25 23.2 9.45 19.9 11.95 14.45 16.1 8.9 16.1 L8.05 16.05 2.9 15.4 Q2.95 14.95 3.15 14.6 L3.8 13.35 6.55 13.7 7.85 13.75 Q19.4 13.75 24.0 4.5 25.5 1.5 26.1 -1.85 L26.4 -4.2 27.55 -5.2 29.8 -7.4 32.65 -9.95 33.45 -10.5 Q33.55 -9.65 34.35 -9.65 35.9 -9.65 35.9 -11.0 L35.65 -11.55 35.8 -11.6 Q36.2 -11.6 37.0 -10.4 L36.7 -9.5 36.65 -9.4 Q36.3 -8.35 36.3 -7.95 L36.35 -7.85 36.75 -7.6 37.15 -8.7 37.45 -9.7 39.2 -6.4 39.5 -5.95 40.0 -2.8 Q40.75 1.2 41.35 2.65 42.55 5.65 45.05 8.1 L46.7 9.55 48.8 10.95 47.85 12.65 M-0.85 14.3 Q-2.8 13.55 -4.5 12.5 -7.55 10.1 -9.2 8.0 -11.6 4.95 -13.2 1.4 -14.6 -1.7 -15.3 -2.75 -16.15 -4.0 -17.05 -4.5 -17.6 -6.05 -19.45 -6.7 L-17.0 -6.2 -12.95 -5.65 -12.5 -3.25 Q-11.55 1.15 -10.75 2.75 -9.15 5.95 -6.05 8.55 L-3.6 10.3 Q-1.5 11.6 0.65 12.45 L-0.65 14.0 -0.85 14.3 M37.45 -8.15 L37.45 -8.1 37.1 -7.05 37.15 -6.85 37.45 -6.8 37.8 -7.15 37.9 -7.4 38.1 -8.1 38.1 -8.2 38.05 -8.45 37.8 -8.6 Q37.5 -8.6 37.45 -8.15" fill="#ff9900" fill-rule="evenodd" stroke="none"/>
      <path d="M71.45 -13.75 L71.5 -13.75 71.95 -13.9 72.15 -13.9 73.4 -13.7 73.6 -13.15 73.75 -11.6 Q73.4 -12.2 72.3 -12.25 71.85 -12.25 71.7 -12.0 L71.45 -13.75 M72.0 -9.9 L72.55 -9.8 Q73.1 -9.8 73.6 -10.25 L73.85 -10.55 74.0 -8.65 Q74.0 -7.75 72.3 -7.45 L72.15 -7.4 72.0 -9.5 72.0 -9.9 M-4.5 12.5 Q-8.3 10.25 -11.35 6.55 L-12.8 4.6 Q-14.45 1.9 -15.75 -1.6 -16.4 -3.35 -17.0 -4.2 L-17.05 -4.5 Q-16.15 -4.0 -15.3 -2.75 -14.6 -1.7 -13.2 1.4 -11.6 4.95 -9.2 8.0 -7.55 10.1 -4.5 12.5 M-24.0 -7.6 L-25.1 -7.95 -25.5 -8.9 -25.75 -11.05 -25.25 -14.3 -24.05 -14.6 Q-24.4 -13.25 -24.4 -11.3 L-24.2 -8.65 -24.0 -7.6" fill="#fedf67" fill-rule="evenodd" stroke="none"/>
      <path d="M72.55 -11.85 Q73.0 -11.8 73.25 -11.45 L73.5 -10.95 Q73.5 -10.6 73.3 -10.5 72.8 -10.2 72.55 -10.2 72.1 -10.2 71.95 -10.5 L71.85 -10.85 71.85 -11.0 Q71.9 -11.9 72.55 -11.85 M72.95 -11.5 L72.9 -11.6 72.6 -11.5 72.65 -11.35 72.9 -11.35 72.95 -11.5 M72.55 -10.8 L72.6 -10.6 73.25 -10.6 73.45 -10.85 Q73.45 -11.25 73.0 -11.25 72.55 -11.25 72.55 -10.8 M-20.55 -10.4 L-21.75 -10.8 -22.45 -11.45 -21.7 -12.25 -20.8 -12.75 -17.75 -12.35 Q-17.0 -11.95 -17.0 -11.55 -17.0 -10.7 -18.4 -10.5 L-20.55 -10.4 M-18.75 -12.6 L-19.2 -12.6 -19.4 -12.3 -19.35 -12.1 -19.0 -12.1 -18.7 -12.2 -18.6 -12.4 -18.75 -12.6 M-18.45 -10.8 Q-18.1 -10.8 -17.85 -11.05 L-17.6 -11.5 Q-17.6 -12.25 -18.4 -12.15 -19.2 -12.05 -19.2 -11.45 -19.2 -10.8 -18.45 -10.8" fill="#f56a02" fill-rule="evenodd" stroke="none"/>
    </g>
  </defs>
</svg>
