<?xml version="1.0" encoding="UTF-8" standalone="no"?>
<svg xmlns:xlink="http://www.w3.org/1999/xlink" height="531.5px" width="460.6px" xmlns="http://www.w3.org/2000/svg">
  <g transform="matrix(1.0, 0.0, 0.0, 1.0, 193.65, 334.05)">
    <use height="77.75" transform="matrix(1.0, 0.0, 0.0, 1.0, -106.75, -151.5)" width="206.85" xlink:href="#shape0"/>
  </g>
  <defs>
    <g id="shape0" transform="matrix(1.0, 0.0, 0.0, 1.0, 106.75, 151.5)">
      <path d="M55.65 -143.8 L55.05 -149.05 Q83.85 -154.0 99.6 -139.25 91.8 -135.75 85.4 -130.9 93.05 -144.55 55.65 -143.8" fill="url(#gradient0)" fill-rule="evenodd" stroke="none"/>
      <path d="M85.4 -130.9 Q78.0 -125.75 72.75 -119.4 63.35 -108.35 60.1 -93.8 45.7 -87.1 29.9 -86.75 50.65 -91.95 54.65 -107.5 57.9 -124.25 55.75 -137.95 L55.65 -143.8 Q93.05 -144.55 85.4 -130.9 M60.85 -106.15 L72.75 -119.4 60.85 -106.15" fill="url(#gradient1)" fill-rule="evenodd" stroke="none"/>
      <path d="M-62.35 -99.65 L-74.45 -112.95 -62.35 -99.65 M-62.65 -142.3 Q-61.55 -115.45 -54.8 -104.6 -46.6 -91.3 -27.35 -84.1 -44.5 -84.45 -64.4 -94.15 -68.85 -105.5 -74.45 -112.95 -80.05 -120.3 -86.75 -123.9 -94.2 -137.95 -62.65 -142.3" fill="url(#gradient2)" fill-rule="evenodd" stroke="none"/>
      <path d="M-86.75 -123.9 Q-96.45 -132.0 -106.25 -131.9 -85.55 -150.55 -60.75 -151.0 -62.65 -146.3 -62.65 -142.3 -94.2 -137.95 -86.75 -123.9" fill="url(#gradient3)" fill-rule="evenodd" stroke="none"/>
      <path d="M55.65 -143.8 L55.05 -149.05 Q83.85 -154.0 99.6 -139.25 91.8 -135.75 85.4 -130.9 78.0 -125.75 72.75 -119.4 63.35 -108.35 60.1 -93.8 45.7 -87.1 29.9 -86.75 50.65 -91.95 54.65 -107.5 57.9 -124.25 55.75 -137.95 L55.65 -143.8 Q93.05 -144.55 85.4 -130.9 M72.75 -119.4 L60.85 -106.15 M-74.45 -112.95 L-62.35 -99.65 M-62.65 -142.3 Q-61.55 -115.45 -54.8 -104.6 -46.6 -91.3 -27.35 -84.1 -44.5 -84.45 -64.4 -94.15 -68.85 -105.5 -74.45 -112.95 -80.05 -120.3 -86.75 -123.9 -96.45 -132.0 -106.25 -131.9 -85.55 -150.55 -60.75 -151.0 -62.65 -146.3 -62.65 -142.3 -94.2 -137.95 -86.75 -123.9" fill="none" stroke="#000000" stroke-linecap="round" stroke-linejoin="round" stroke-opacity="0.5019608" stroke-width="1.0"/>
      <path d="M22.3 -83.0 Q24.5 -82.1 24.6 -80.65 L24.5 -79.9 Q24.0 -78.85 21.9 -77.9 L21.05 -77.6 Q19.05 -78.25 17.6 -79.6 15.6 -81.6 15.35 -84.1 L17.95 -84.0 21.7 -83.25 22.3 -83.0 M-6.2 -83.7 L-4.6 -82.85 Q-3.3 -81.95 -2.9 -81.0 L-3.2 -80.1 -2.95 -79.1 Q-3.65 -78.1 -5.75 -77.6 L-7.2 -77.35 -8.0 -77.25 -8.65 -77.75 Q-11.3 -79.65 -11.3 -82.1 -11.3 -83.1 -10.55 -84.85 L-10.45 -84.95 Q-8.05 -84.5 -6.2 -83.7" fill="#ebebeb" fill-rule="evenodd" stroke="none"/>
      <path d="M22.3 -83.0 L21.7 -83.25 17.95 -84.0 18.9 -85.0 Q21.7 -87.3 26.15 -88.3 30.45 -89.3 33.95 -88.45 37.55 -87.55 38.05 -85.25 38.55 -83.0 35.85 -80.65 33.1 -78.4 28.75 -77.4 L25.55 -76.9 20.75 -77.25 20.45 -77.35 Q20.75 -77.4 21.05 -77.6 L21.9 -77.9 Q24.0 -78.85 24.5 -79.9 L28.1 -80.1 Q30.3 -80.6 31.65 -81.85 33.0 -82.85 32.75 -84.0 32.5 -85.2 30.65 -85.7 L26.7 -85.6 Q24.45 -85.0 23.05 -83.95 L22.3 -83.0 M10.3 -83.45 L8.1 -82.75 6.3 -81.7 6.25 -81.75 Q4.7 -82.6 2.4 -82.7 0.1 -82.85 -1.5 -82.1 L-2.9 -81.0 Q-3.3 -81.95 -4.6 -82.85 L-6.2 -83.7 -5.25 -84.2 Q-1.95 -85.7 2.55 -85.45 7.0 -85.25 10.15 -83.6 L10.3 -83.45 M6.75 -78.1 L8.25 -77.4 11.6 -76.65 9.8 -75.65 Q6.5 -74.05 2.05 -74.25 -2.45 -74.5 -5.6 -76.25 -6.55 -76.75 -7.2 -77.35 L-5.75 -77.6 Q-3.65 -78.1 -2.95 -79.1 L-1.7 -78.1 Q-0.15 -77.15 2.15 -77.0 4.45 -76.9 6.05 -77.75 L6.75 -78.1 M-14.2 -78.1 L-15.2 -77.85 -23.1 -77.65 Q-27.55 -78.5 -30.25 -80.65 -33.15 -82.95 -32.55 -85.2 -32.15 -87.55 -28.55 -88.45 -25.15 -89.45 -20.65 -88.6 -16.25 -87.8 -13.5 -85.6 L-13.15 -85.35 -17.1 -85.2 -18.2 -84.85 Q-19.55 -85.6 -21.35 -85.95 -23.65 -86.35 -25.25 -85.95 -27.1 -85.25 -27.3 -84.1 -27.55 -83.0 -26.1 -82.0 -24.75 -80.75 -22.45 -80.35 -20.5 -80.0 -18.8 -80.35 L-18.2 -79.9 Q-16.5 -78.75 -14.2 -78.1" fill="#8f8f8f" fill-rule="evenodd" stroke="none"/>
      <path d="M15.35 -84.1 Q15.6 -81.6 17.6 -79.6 19.05 -78.25 21.05 -77.6 20.75 -77.4 20.45 -77.35 L15.05 -76.6 Q13.1 -76.5 11.6 -76.65 L8.25 -77.4 6.75 -78.1 Q5.45 -78.9 5.45 -80.0 5.4 -80.9 6.3 -81.7 L8.1 -82.75 10.3 -83.45 14.8 -84.1 15.35 -84.1 M-13.15 -85.35 L-10.6 -85.0 -10.45 -84.95 -10.55 -84.85 Q-11.3 -83.1 -11.3 -82.1 -11.3 -79.65 -8.65 -77.75 L-8.0 -77.25 -12.25 -77.65 -14.2 -78.1 Q-16.5 -78.75 -18.2 -79.9 L-18.8 -80.35 Q-20.5 -81.75 -20.25 -83.0 -19.95 -84.25 -18.2 -84.85 L-17.1 -85.2 -13.15 -85.35" fill="#cccccc" fill-rule="evenodd" stroke="none"/>
      <path d="M24.5 -79.9 L24.6 -80.65 Q24.5 -82.1 22.3 -83.0 L21.7 -83.25 17.95 -84.0 15.35 -84.1 14.8 -84.1 10.3 -83.45 10.15 -83.6 Q7.0 -85.25 2.55 -85.45 -1.95 -85.7 -5.25 -84.2 L-6.2 -83.7 -4.6 -82.85 Q-3.3 -81.95 -2.9 -81.0 L-1.5 -82.1 Q0.1 -82.85 2.4 -82.7 4.7 -82.6 6.25 -81.75 L6.3 -81.7 Q5.4 -80.9 5.45 -80.0 5.45 -78.9 6.75 -78.1 L8.25 -77.4 11.6 -76.65 Q13.1 -76.5 15.05 -76.6 L20.45 -77.35 20.75 -77.25 25.55 -76.9 28.75 -77.4 Q33.1 -78.4 35.85 -80.65 38.55 -83.0 38.05 -85.25 37.55 -87.55 33.95 -88.45 30.45 -89.3 26.15 -88.3 21.7 -87.3 18.9 -85.0 L17.95 -84.0 M21.05 -77.6 L21.9 -77.9 Q24.0 -78.85 24.5 -79.9 L28.1 -80.1 Q30.3 -80.6 31.65 -81.85 33.0 -82.85 32.75 -84.0 32.5 -85.2 30.65 -85.7 L26.7 -85.6 Q24.45 -85.0 23.05 -83.95 L22.3 -83.0 M21.05 -77.6 Q20.75 -77.4 20.45 -77.35 M6.3 -81.7 L8.1 -82.75 10.3 -83.45 M6.75 -78.1 L6.05 -77.75 Q4.45 -76.9 2.15 -77.0 -0.15 -77.15 -1.7 -78.1 L-2.95 -79.1 Q-3.65 -78.1 -5.75 -77.6 L-7.2 -77.35 Q-6.55 -76.75 -5.6 -76.25 -2.45 -74.5 2.05 -74.25 6.5 -74.05 9.8 -75.65 L11.6 -76.65 M-14.2 -78.1 L-15.2 -77.85 -23.1 -77.65 Q-27.55 -78.5 -30.25 -80.65 -33.15 -82.95 -32.55 -85.2 -32.15 -87.55 -28.55 -88.45 -25.15 -89.45 -20.65 -88.6 -16.25 -87.8 -13.5 -85.6 L-13.15 -85.35 -10.6 -85.0 -10.45 -84.95 Q-8.05 -84.5 -6.2 -83.7 M-8.0 -77.25 L-7.2 -77.35 M-18.8 -80.35 Q-20.5 -81.75 -20.25 -83.0 -19.95 -84.25 -18.2 -84.85 -19.55 -85.6 -21.35 -85.95 -23.65 -86.35 -25.25 -85.95 -27.1 -85.25 -27.3 -84.1 -27.55 -83.0 -26.1 -82.0 -24.75 -80.75 -22.45 -80.35 -20.5 -80.0 -18.8 -80.35 L-18.2 -79.9 Q-16.5 -78.75 -14.2 -78.1 L-12.25 -77.65 -8.0 -77.25 M-18.2 -84.85 L-17.1 -85.2 -13.15 -85.35 M-2.9 -81.0 Q-2.45 -80.35 -2.6 -79.65 L-2.95 -79.1 -3.2 -80.1 -2.9 -81.0" fill="none" stroke="#000000" stroke-linecap="round" stroke-linejoin="round" stroke-opacity="0.5019608" stroke-width="1.0"/>
    </g>
    <linearGradient gradientTransform="matrix(0.0272, 0.0, 0.0, 0.0118, 77.3, -140.6)" gradientUnits="userSpaceOnUse" id="gradient0" spreadMethod="pad" x1="-819.2" x2="819.2">
      <stop offset="0.0" stop-color="#421613"/>
      <stop offset="0.9882352941176471" stop-color="#6b3431"/>
    </linearGradient>
    <linearGradient gradientTransform="matrix(-0.0098, -0.0038, 0.0127, -0.0321, 61.6, -116.8)" gradientUnits="userSpaceOnUse" id="gradient1" spreadMethod="pad" x1="-819.2" x2="819.2">
      <stop offset="0.0" stop-color="#525252"/>
      <stop offset="1.0" stop-color="#242424"/>
    </linearGradient>
    <linearGradient gradientTransform="matrix(0.0106, -0.0042, 0.0134, 0.0329, -68.9, -112.6)" gradientUnits="userSpaceOnUse" id="gradient2" spreadMethod="pad" x1="-819.2" x2="819.2">
      <stop offset="0.0" stop-color="#525252"/>
      <stop offset="1.0" stop-color="#242424"/>
    </linearGradient>
    <linearGradient gradientTransform="matrix(-0.0272, 0.0056, -0.0033, -0.0162, -83.5, -137.45)" gradientUnits="userSpaceOnUse" id="gradient3" spreadMethod="pad" x1="-819.2" x2="819.2">
      <stop offset="0.0" stop-color="#421613"/>
      <stop offset="0.9882352941176471" stop-color="#6b3431"/>
    </linearGradient>
  </defs>
</svg>
