<?xml version="1.0" encoding="UTF-8" standalone="no"?>
<svg xmlns:xlink="http://www.w3.org/1999/xlink" height="531.5px" width="460.6px" xmlns="http://www.w3.org/2000/svg">
  <g transform="matrix(1.0, 0.0, 0.0, 1.0, 193.65, 334.05)">
    <use height="16.35" transform="matrix(2.0067, 0.0, 0.0, 2.0067, 5.3966, -28.6034)" width="27.15" xlink:href="#sprite0"/>
  </g>
  <defs>
    <g id="sprite0" transform="matrix(1.0, 0.0, 0.0, 1.0, 0.5, 0.5)">
      <use height="16.35" transform="matrix(1.0, 0.0, 0.0, 1.0, -0.5, -0.5)" width="27.15" xlink:href="#shape0"/>
    </g>
    <g id="shape0" transform="matrix(1.0, 0.0, 0.0, 1.0, 0.5, 0.5)">
      <path d="M26.15 3.2 Q22.9 4.8 22.5 6.85 L22.75 8.05 Q21.85 8.3 21.25 9.15 18.8 10.9 16.95 15.35 12.6 8.75 5.8 7.3 L6.55 6.05 Q7.45 4.5 0.0 2.15 L11.2 2.8 13.05 5.75 14.05 5.85 15.85 0.05 16.4 3.6 17.65 3.65 18.3 0.0 19.3 5.85 19.95 5.95 20.55 3.4 26.15 3.2" fill="#000000" fill-rule="evenodd" stroke="none"/>
      <path d="M26.15 3.2 Q22.9 4.8 22.5 6.85 L22.75 8.05 Q21.85 8.3 21.25 9.15 18.8 10.9 16.95 15.35 12.6 8.75 5.8 7.3 L6.55 6.05 Q7.45 4.5 0.0 2.15 L11.2 2.8 13.05 5.75 14.05 5.85 15.85 0.05 16.4 3.6 17.65 3.65 18.3 0.0 19.3 5.85 19.95 5.95 20.55 3.4 26.15 3.2 Z" fill="none" stroke="#000000" stroke-linecap="round" stroke-linejoin="round" stroke-opacity="0.6627451" stroke-width="1.0"/>
    </g>
  </defs>
</svg>
