<?xml version="1.0" encoding="UTF-8" standalone="no"?>
<svg xmlns:xlink="http://www.w3.org/1999/xlink" height="531.5px" width="460.6px" xmlns="http://www.w3.org/2000/svg">
  <g transform="matrix(1.0, 0.0, 0.0, 1.0, 193.65, 334.05)">
    <use height="35.9" transform="matrix(1.0, 0.0, 0.0, 1.0, -78.6, -32.95)" width="147.75" xlink:href="#shape0"/>
  </g>
  <defs>
    <g id="shape0" transform="matrix(1.0, 0.0, 0.0, 1.0, 78.6, 32.95)">
      <path d="M-76.6 -24.65 L-74.5 -27.35 Q-61.25 -38.7 -45.0 -26.05 -37.7 -29.85 -31.4 -27.35 -24.05 -25.85 -24.35 -15.45 L-23.15 -11.95 -24.25 -7.65 Q-24.75 -6.15 -27.35 -5.15 -29.65 -4.2 -32.15 -4.2 -35.6 -4.2 -40.0 -6.75 -42.05 -7.95 -43.35 -9.7 L-44.5 -11.05 Q-47.75 -8.5 -49.2 -7.95 L-51.95 -7.1 Q-54.55 -6.4 -56.35 -6.4 -63.35 -6.4 -68.15 -9.5 -72.45 -12.25 -72.45 -15.2 L-72.3 -16.65 Q-74.35 -17.2 -75.55 -19.75 -76.4 -21.85 -76.6 -24.65 M-43.8 -16.65 L-41.7 -16.6 -41.1 -16.6 Q-42.4 -17.1 -43.45 -18.05 -45.1 -19.4 -45.75 -21.3 -45.35 -19.6 -47.65 -17.0 L-48.45 -16.15 -43.8 -16.65" fill="#ffffff" fill-rule="evenodd" stroke="none"/>
      <path d="M-23.15 -11.95 Q-21.3 -3.5 -31.4 -2.2 -38.3 0.3 -44.2 -4.0 -57.55 2.35 -69.6 -3.3 -82.2 -5.55 -76.65 -15.65 -79.6 -20.1 -76.6 -24.65 -76.4 -21.85 -75.55 -19.75 -74.35 -17.2 -72.3 -16.65 L-72.45 -15.2 Q-72.45 -12.25 -68.15 -9.5 -63.35 -6.4 -56.35 -6.4 -54.55 -6.4 -51.95 -7.1 L-49.2 -7.95 Q-47.75 -8.5 -44.5 -11.05 L-43.35 -9.7 Q-42.05 -7.95 -40.0 -6.75 -35.6 -4.2 -32.15 -4.2 -29.65 -4.2 -27.35 -5.15 -24.75 -6.15 -24.25 -7.65 L-23.15 -11.95 M-43.8 -16.65 L-48.45 -16.15 -47.65 -17.0 Q-45.35 -19.6 -45.75 -21.3 -45.1 -19.4 -43.45 -18.05 -42.4 -17.1 -41.1 -16.6 L-41.7 -16.6 -43.8 -16.65" fill="#dedede" fill-rule="evenodd" stroke="none"/>
      <path d="M-76.6 -24.65 L-74.5 -27.35 Q-61.25 -38.7 -45.0 -26.05 -37.7 -29.85 -31.4 -27.35 -24.05 -25.85 -24.35 -15.45 L-23.15 -11.95 Q-21.3 -3.5 -31.4 -2.2 -38.3 0.3 -44.2 -4.0 -57.55 2.35 -69.6 -3.3 -82.2 -5.55 -76.65 -15.65 -79.6 -20.1 -76.6 -24.65 Z" fill="none" stroke="#000000" stroke-linecap="round" stroke-linejoin="round" stroke-opacity="0.3019608" stroke-width="0.5"/>
      <path d="M-25.45 -18.75 Q-25.45 -20.0 -24.95 -21.25 -24.5 -22.5 -23.55 -23.7 -19.45 -28.7 -11.6 -27.7 -7.1 -26.65 -6.1 -21.15 -3.4 -18.75 -2.55 -16.15 -3.15 -12.95 -5.3 -10.65 -8.5 -7.2 -14.1 -7.2 -16.75 -7.2 -18.55 -9.35 -19.95 -11.05 -20.35 -13.55 -20.55 -14.25 -21.85 -14.75 -23.45 -15.35 -23.9 -15.8 -25.1 -17.0 -25.45 -18.75" fill="#ffffff" fill-rule="evenodd" stroke="none"/>
      <path d="M-2.55 -16.15 Q-1.0 -11.15 -6.45 -5.3 -14.8 0.9 -21.85 -6.0 -23.45 -8.85 -22.95 -12.7 -25.55 -15.7 -25.45 -18.75 -25.1 -17.0 -23.9 -15.8 -23.45 -15.35 -21.85 -14.75 -20.55 -14.25 -20.35 -13.55 -19.95 -11.05 -18.55 -9.35 -16.75 -7.2 -14.1 -7.2 -8.5 -7.2 -5.3 -10.65 -3.15 -12.95 -2.55 -16.15" fill="#dedede" fill-rule="evenodd" stroke="none"/>
      <path d="M-2.55 -16.15 Q-1.0 -11.15 -6.45 -5.3 -14.8 0.9 -21.85 -6.0 -23.45 -8.85 -22.95 -12.7 -25.55 -15.7 -25.45 -18.75 -25.45 -20.0 -24.95 -21.25 -24.5 -22.5 -23.55 -23.7 -19.45 -28.7 -11.6 -27.7 -7.1 -26.65 -6.1 -21.15 -3.4 -18.75 -2.55 -16.15 Z" fill="none" stroke="#000000" stroke-linecap="round" stroke-linejoin="round" stroke-opacity="0.3019608" stroke-width="0.5"/>
      <path d="M51.05 -12.25 Q50.8 -14.95 52.1 -17.8 51.5 -22.25 55.3 -25.35 66.9 -29.25 65.55 -19.05 67.75 -17.25 68.55 -15.1 L65.1 -12.8 Q61.05 -10.55 57.6 -10.55 53.65 -10.55 51.05 -12.25" fill="#ffffff" fill-rule="evenodd" stroke="none"/>
      <path d="M68.55 -15.1 Q69.85 -11.35 66.4 -6.6 61.65 -1.35 53.85 -6.1 51.25 -9.0 51.05 -12.25 53.65 -10.55 57.6 -10.55 61.05 -10.55 65.1 -12.8 L68.55 -15.1" fill="#dedede" fill-rule="evenodd" stroke="none"/>
      <path d="M68.55 -15.1 Q69.85 -11.35 66.4 -6.6 61.65 -1.35 53.85 -6.1 51.25 -9.0 51.05 -12.25 50.8 -14.95 52.1 -17.8 51.5 -22.25 55.3 -25.35 66.9 -29.25 65.55 -19.05 67.75 -17.25 68.55 -15.1 Z" fill="none" stroke="#000000" stroke-linecap="round" stroke-linejoin="round" stroke-opacity="0.3019608" stroke-width="0.5"/>
      <path d="M22.0 -15.3 Q22.3 -18.4 24.8 -21.3 31.0 -25.85 38.6 -21.9 44.6 -31.05 55.8 -25.1 57.35 -23.55 58.2 -21.75 59.85 -18.3 59.25 -13.9 L60.45 -12.2 Q58.5 -10.45 55.65 -9.1 52.3 -7.35 49.95 -7.35 47.2 -7.35 45.65 -8.15 44.6 -9.0 44.2 -9.0 L41.15 -8.15 Q38.25 -7.35 35.85 -7.35 L33.0 -7.9 30.65 -8.5 Q28.0 -9.2 25.5 -10.7 24.2 -11.6 22.5 -14.35 L22.0 -15.3" fill="#ffffff" fill-rule="evenodd" stroke="none"/>
      <path d="M60.45 -12.2 Q61.05 -10.9 61.05 -9.7 61.05 -6.5 56.85 -3.65 51.0 0.3 44.7 -3.25 35.0 1.6 28.6 -3.25 21.2 -9.45 22.0 -15.3 L22.5 -14.35 Q24.2 -11.6 25.5 -10.7 28.0 -9.2 30.65 -8.5 L33.0 -7.9 35.85 -7.35 Q38.25 -7.35 41.15 -8.15 L44.2 -9.0 Q44.6 -9.0 45.65 -8.15 47.2 -7.35 49.95 -7.35 52.3 -7.35 55.65 -9.1 58.5 -10.45 60.45 -12.2" fill="#dedede" fill-rule="evenodd" stroke="none"/>
      <path d="M60.45 -12.2 Q61.05 -10.9 61.05 -9.7 61.05 -6.5 56.85 -3.65 51.0 0.3 44.7 -3.25 35.0 1.6 28.6 -3.25 21.2 -9.45 22.0 -15.3 22.3 -18.4 24.8 -21.3 31.0 -25.85 38.6 -21.9 44.6 -31.05 55.8 -25.1 57.35 -23.55 58.2 -21.75 59.85 -18.3 59.25 -13.9 L60.45 -12.2 Z" fill="none" stroke="#000000" stroke-linecap="round" stroke-linejoin="round" stroke-opacity="0.3019608" stroke-width="0.5"/>
      <path d="M-2.1 -25.9 Q0.45 -29.75 4.5 -29.5 4.65 -24.3 -0.5 -21.2 -2.1 -22.7 -2.1 -25.9 M2.1 -26.95 Q0.3 -24.45 -0.5 -21.2 0.3 -24.45 2.1 -26.95" fill="#ffcc00" fill-rule="evenodd" stroke="none"/>
      <path d="M-0.5 -21.2 Q0.3 -24.45 2.1 -26.95" fill="none" stroke="#000000" stroke-linecap="round" stroke-linejoin="round" stroke-opacity="0.2" stroke-width="0.5"/>
      <path d="M-2.1 -25.9 Q0.45 -29.75 4.5 -29.5 4.65 -24.3 -0.5 -21.2 -2.1 -22.7 -2.1 -25.9" fill="none" stroke="#000000" stroke-linecap="round" stroke-linejoin="round" stroke-opacity="0.4" stroke-width="0.5"/>
      <path d="M2.2 -20.5 Q6.8 -20.95 8.5 -24.65 3.95 -27.2 -1.15 -24.1 -0.55 -22.0 2.2 -20.5 M5.1 -23.75 L-1.15 -24.1 5.1 -23.75" fill="#ffcd12" fill-rule="evenodd" stroke="none"/>
      <path d="M-1.15 -24.1 L5.1 -23.75" fill="none" stroke="#000000" stroke-linecap="round" stroke-linejoin="round" stroke-opacity="0.2" stroke-width="0.5"/>
      <path d="M2.2 -20.5 Q6.8 -20.95 8.5 -24.65 3.95 -27.2 -1.15 -24.1 -0.55 -22.0 2.2 -20.5" fill="none" stroke="#000000" stroke-linecap="round" stroke-linejoin="round" stroke-opacity="0.4" stroke-width="0.5"/>
      <path d="M-4.7 -24.5 Q-5.8 -21.65 -5.75 -18.3 -5.8 -21.65 -4.7 -24.5 M-8.5 -22.4 Q-7.05 -26.8 -3.05 -27.65 -1.6 -22.6 -5.75 -18.3 -7.65 -19.35 -8.5 -22.4" fill="#ffcd12" fill-rule="evenodd" stroke="none"/>
      <path d="M-5.75 -18.3 Q-5.8 -21.65 -4.7 -24.5" fill="none" stroke="#000000" stroke-linecap="round" stroke-linejoin="round" stroke-opacity="0.2" stroke-width="0.5"/>
      <path d="M-8.5 -22.4 Q-7.05 -26.8 -3.05 -27.65 -1.6 -22.6 -5.75 -18.3 -7.65 -19.35 -8.5 -22.4" fill="none" stroke="#000000" stroke-linecap="round" stroke-linejoin="round" stroke-opacity="0.4" stroke-width="0.5"/>
      <path d="M-0.1 -22.1 Q-2.5 -20.2 -5.65 -19.3 -2.5 -20.2 -0.1 -22.1 M-0.95 -17.9 Q2.8 -20.55 2.45 -24.6 -2.8 -24.55 -5.65 -19.3 -4.1 -17.8 -0.95 -17.9" fill="#f7b100" fill-rule="evenodd" stroke="none"/>
      <path d="M-5.65 -19.3 Q-2.5 -20.2 -0.1 -22.1" fill="none" stroke="#000000" stroke-linecap="round" stroke-linejoin="round" stroke-opacity="0.2" stroke-width="0.5"/>
      <path d="M-0.95 -17.9 Q2.8 -20.55 2.45 -24.6 -2.8 -24.55 -5.65 -19.3 -4.1 -17.8 -0.95 -17.9" fill="none" stroke="#000000" stroke-linecap="round" stroke-linejoin="round" stroke-opacity="0.4" stroke-width="0.5"/>
      <path d="M-11.6 -15.6 Q-12.55 -20.1 -9.45 -22.8 -5.7 -19.2 -7.15 -13.4 -9.35 -13.35 -11.6 -15.6 M-9.35 -19.3 Q-8.85 -16.3 -7.15 -13.4 -8.85 -16.3 -9.35 -19.3" fill="#ffcd12" fill-rule="evenodd" stroke="none"/>
      <path d="M-7.15 -13.4 Q-8.85 -16.3 -9.35 -19.3" fill="none" stroke="#000000" stroke-linecap="round" stroke-linejoin="round" stroke-opacity="0.2" stroke-width="0.5"/>
      <path d="M-11.6 -15.6 Q-12.55 -20.1 -9.45 -22.8 -5.7 -19.2 -7.15 -13.4 -9.35 -13.35 -11.6 -15.6" fill="none" stroke="#000000" stroke-linecap="round" stroke-linejoin="round" stroke-opacity="0.4" stroke-width="0.5"/>
      <path d="M-3.45 -13.35 Q0.3 -16.0 -0.05 -20.05 -5.3 -20.0 -8.15 -14.75 -6.6 -13.25 -3.45 -13.35 M-2.6 -17.55 Q-5.0 -15.65 -8.15 -14.75 -5.0 -15.65 -2.6 -17.55" fill="#f7b100" fill-rule="evenodd" stroke="none"/>
      <path d="M-8.15 -14.75 Q-5.0 -15.65 -2.6 -17.55" fill="none" stroke="#000000" stroke-linecap="round" stroke-linejoin="round" stroke-opacity="0.2" stroke-width="0.5"/>
      <path d="M-3.45 -13.35 Q0.3 -16.0 -0.05 -20.05 -5.3 -20.0 -8.15 -14.75 -6.6 -13.25 -3.45 -13.35" fill="none" stroke="#000000" stroke-linecap="round" stroke-linejoin="round" stroke-opacity="0.4" stroke-width="0.5"/>
      <path d="M-10.4 -12.45 Q-8.9 -9.8 -6.25 -7.75 -8.9 -9.8 -10.4 -12.45 M-11.2 -8.2 Q-13.7 -12.05 -11.8 -15.7 -7.0 -13.65 -6.25 -7.75 -8.35 -6.9 -11.2 -8.2" fill="#ffcd12" fill-rule="evenodd" stroke="none"/>
      <path d="M-6.25 -7.75 Q-8.9 -9.8 -10.4 -12.45" fill="none" stroke="#000000" stroke-linecap="round" stroke-linejoin="round" stroke-opacity="0.2" stroke-width="0.5"/>
      <path d="M-11.2 -8.2 Q-13.7 -12.05 -11.8 -15.7 -7.0 -13.65 -6.25 -7.75 -8.35 -6.9 -11.2 -8.2" fill="none" stroke="#000000" stroke-linecap="round" stroke-linejoin="round" stroke-opacity="0.4" stroke-width="0.5"/>
      <path d="M-3.5 -13.3 Q-5.05 -10.65 -7.75 -8.7 -5.05 -10.65 -3.5 -13.3 M-2.8 -9.05 Q-0.25 -12.85 -2.05 -16.55 -6.9 -14.6 -7.75 -8.7 -5.7 -7.8 -2.8 -9.05" fill="#f7b100" fill-rule="evenodd" stroke="none"/>
      <path d="M-7.75 -8.7 Q-5.05 -10.65 -3.5 -13.3" fill="none" stroke="#000000" stroke-linecap="round" stroke-linejoin="round" stroke-opacity="0.2" stroke-width="0.5"/>
      <path d="M-2.8 -9.05 Q-0.25 -12.85 -2.05 -16.55 -6.9 -14.6 -7.75 -8.7 -5.7 -7.8 -2.8 -9.05" fill="none" stroke="#000000" stroke-linecap="round" stroke-linejoin="round" stroke-opacity="0.4" stroke-width="0.5"/>
      <path d="M-6.25 -1.7 Q-10.4 -3.85 -10.55 -7.95 -5.35 -8.6 -1.75 -3.8 -3.1 -2.05 -6.25 -1.7 M-7.7 -5.8 Q-5.1 -4.3 -1.75 -3.8 -5.1 -4.3 -7.7 -5.8" fill="#ffcc00" fill-rule="evenodd" stroke="none"/>
      <path d="M-1.75 -3.8 Q-5.1 -4.3 -7.7 -5.8" fill="none" stroke="#000000" stroke-linecap="round" stroke-linejoin="round" stroke-opacity="0.2" stroke-width="0.5"/>
      <path d="M-6.25 -1.7 Q-10.4 -3.85 -10.55 -7.95 -5.35 -8.6 -1.75 -3.8 -3.1 -2.05 -6.25 -1.7" fill="none" stroke="#000000" stroke-linecap="round" stroke-linejoin="round" stroke-opacity="0.4" stroke-width="0.5"/>
      <path d="M0.55 -6.7 Q0.85 -11.3 -2.55 -13.6 -5.75 -9.5 -3.55 -3.95 -1.4 -4.25 0.55 -6.7 M-2.15 -10.1 Q-2.25 -7.0 -3.55 -3.95 -2.25 -7.0 -2.15 -10.1" fill="#f7b100" fill-rule="evenodd" stroke="none"/>
      <path d="M-3.55 -3.95 Q-2.25 -7.0 -2.15 -10.1" fill="none" stroke="#000000" stroke-linecap="round" stroke-linejoin="round" stroke-opacity="0.2" stroke-width="0.5"/>
      <path d="M0.55 -6.7 Q0.85 -11.3 -2.55 -13.6 -5.75 -9.5 -3.55 -3.95 -1.4 -4.25 0.55 -6.7" fill="none" stroke="#000000" stroke-linecap="round" stroke-linejoin="round" stroke-opacity="0.4" stroke-width="0.5"/>
      <path d="M-1.6 -1.35 Q1.45 -1.35 4.5 -2.55 1.45 -1.35 -1.6 -1.35 M1.7 1.45 Q-2.9 1.65 -5.15 -1.75 -0.95 -4.95 4.5 -2.55 4.25 -0.45 1.7 1.45" fill="#ffcc00" fill-rule="evenodd" stroke="none"/>
      <path d="M4.5 -2.55 Q1.45 -1.35 -1.6 -1.35" fill="none" stroke="#000000" stroke-linecap="round" stroke-linejoin="round" stroke-opacity="0.2" stroke-width="0.5"/>
      <path d="M1.7 1.45 Q-2.9 1.65 -5.15 -1.75 -0.95 -4.95 4.5 -2.55 4.25 -0.45 1.7 1.45" fill="none" stroke="#000000" stroke-linecap="round" stroke-linejoin="round" stroke-opacity="0.4" stroke-width="0.5"/>
      <path d="M1.2 -7.7 Q2.7 -5.0 3.1 -1.75 2.7 -5.0 1.2 -7.7 M5.3 -6.2 Q3.25 -10.35 -0.8 -10.6 -1.6 -5.45 3.1 -1.75 4.85 -3.1 5.3 -6.2" fill="#f7b100" fill-rule="evenodd" stroke="none"/>
      <path d="M3.1 -1.75 Q2.7 -5.0 1.2 -7.7" fill="none" stroke="#000000" stroke-linecap="round" stroke-linejoin="round" stroke-opacity="0.2" stroke-width="0.5"/>
      <path d="M5.3 -6.2 Q3.25 -10.35 -0.8 -10.6 -1.6 -5.45 3.1 -1.75 4.85 -3.1 5.3 -6.2" fill="none" stroke="#000000" stroke-linecap="round" stroke-linejoin="round" stroke-opacity="0.4" stroke-width="0.5"/>
      <path d="M4.0 0.4 Q6.95 -0.4 9.6 -2.4 6.95 -0.4 4.0 0.4 M7.95 2.25 Q3.5 3.6 0.5 0.85 3.7 -3.3 9.6 -2.4 9.9 -0.2 7.95 2.25" fill="#ffcc00" fill-rule="evenodd" stroke="none"/>
      <path d="M9.6 -2.4 Q6.95 -0.4 4.0 0.4" fill="none" stroke="#000000" stroke-linecap="round" stroke-linejoin="round" stroke-opacity="0.2" stroke-width="0.5"/>
      <path d="M7.95 2.25 Q3.5 3.6 0.5 0.85 3.7 -3.3 9.6 -2.4 9.9 -0.2 7.95 2.25" fill="none" stroke="#000000" stroke-linecap="round" stroke-linejoin="round" stroke-opacity="0.4" stroke-width="0.5"/>
      <path d="M4.9 -6.45 Q7.05 -4.3 8.25 -1.15 7.05 -4.3 4.9 -6.45 M9.25 -6.05 Q6.15 -9.5 2.2 -8.7 2.75 -3.5 8.25 -1.15 9.6 -2.9 9.25 -6.05" fill="#f7b100" fill-rule="evenodd" stroke="none"/>
      <path d="M8.25 -1.15 Q7.05 -4.3 4.9 -6.45" fill="none" stroke="#000000" stroke-linecap="round" stroke-linejoin="round" stroke-opacity="0.2" stroke-width="0.5"/>
      <path d="M9.25 -6.05 Q6.15 -9.5 2.2 -8.7 2.75 -3.5 8.25 -1.15 9.6 -2.9 9.25 -6.05" fill="none" stroke="#000000" stroke-linecap="round" stroke-linejoin="round" stroke-opacity="0.4" stroke-width="0.5"/>
      <path d="M17.15 -26.95 Q18.95 -24.45 19.75 -21.2 18.95 -24.45 17.15 -26.95 M21.35 -25.9 Q18.8 -29.75 14.75 -29.5 14.6 -24.3 19.75 -21.2 21.35 -22.7 21.35 -25.9" fill="#ffcc00" fill-rule="evenodd" stroke="none"/>
      <path d="M19.75 -21.2 Q18.95 -24.45 17.15 -26.95" fill="none" stroke="#000000" stroke-linecap="round" stroke-linejoin="round" stroke-opacity="0.2" stroke-width="0.5"/>
      <path d="M21.35 -25.9 Q18.8 -29.75 14.75 -29.5 14.6 -24.3 19.75 -21.2 21.35 -22.7 21.35 -25.9" fill="none" stroke="#000000" stroke-linecap="round" stroke-linejoin="round" stroke-opacity="0.4" stroke-width="0.5"/>
      <path d="M14.05 -23.75 L20.3 -24.1 14.05 -23.75 M16.95 -20.5 Q12.35 -20.95 10.65 -24.65 15.2 -27.2 20.3 -24.1 19.7 -22.0 16.95 -20.5" fill="#ffcd12" fill-rule="evenodd" stroke="none"/>
      <path d="M20.3 -24.1 L14.05 -23.75" fill="none" stroke="#000000" stroke-linecap="round" stroke-linejoin="round" stroke-opacity="0.2" stroke-width="0.5"/>
      <path d="M16.95 -20.5 Q12.35 -20.95 10.65 -24.65 15.2 -27.2 20.3 -24.1 19.7 -22.0 16.95 -20.5" fill="none" stroke="#000000" stroke-linecap="round" stroke-linejoin="round" stroke-opacity="0.4" stroke-width="0.5"/>
      <path d="M27.85 -22.4 Q26.4 -26.8 22.4 -27.65 20.95 -22.6 25.1 -18.3 27.0 -19.35 27.85 -22.4 M24.05 -24.5 Q25.15 -21.65 25.1 -18.3 25.15 -21.65 24.05 -24.5" fill="#ffcc00" fill-rule="evenodd" stroke="none"/>
      <path d="M25.1 -18.3 Q25.15 -21.65 24.05 -24.5" fill="none" stroke="#000000" stroke-linecap="round" stroke-linejoin="round" stroke-opacity="0.2" stroke-width="0.5"/>
      <path d="M27.85 -22.4 Q26.4 -26.8 22.4 -27.65 20.95 -22.6 25.1 -18.3 27.0 -19.35 27.85 -22.4" fill="none" stroke="#000000" stroke-linecap="round" stroke-linejoin="round" stroke-opacity="0.4" stroke-width="0.5"/>
      <path d="M20.15 -17.9 Q16.4 -20.55 16.75 -24.6 22.0 -24.55 24.85 -19.3 23.3 -17.8 20.15 -17.9 M19.3 -22.1 Q21.7 -20.2 24.85 -19.3 21.7 -20.2 19.3 -22.1" fill="#ffcd12" fill-rule="evenodd" stroke="none"/>
      <path d="M24.85 -19.3 Q21.7 -20.2 19.3 -22.1" fill="none" stroke="#000000" stroke-linecap="round" stroke-linejoin="round" stroke-opacity="0.2" stroke-width="0.5"/>
      <path d="M20.15 -17.9 Q16.4 -20.55 16.75 -24.6 22.0 -24.55 24.85 -19.3 23.3 -17.8 20.15 -17.9" fill="none" stroke="#000000" stroke-linecap="round" stroke-linejoin="round" stroke-opacity="0.4" stroke-width="0.5"/>
      <path d="M28.65 -19.3 Q28.15 -16.3 26.45 -13.4 28.15 -16.3 28.65 -19.3 M30.9 -15.6 Q31.85 -20.1 28.75 -22.8 25.0 -19.2 26.45 -13.4 28.65 -13.35 30.9 -15.6" fill="#f7b100" fill-rule="evenodd" stroke="none"/>
      <path d="M26.45 -13.4 Q28.15 -16.3 28.65 -19.3" fill="none" stroke="#000000" stroke-linecap="round" stroke-linejoin="round" stroke-opacity="0.2" stroke-width="0.5"/>
      <path d="M30.9 -15.6 Q31.85 -20.1 28.75 -22.8 25.0 -19.2 26.45 -13.4 28.65 -13.35 30.9 -15.6" fill="none" stroke="#000000" stroke-linecap="round" stroke-linejoin="round" stroke-opacity="0.4" stroke-width="0.5"/>
      <path d="M21.8 -17.55 Q24.2 -15.65 27.35 -14.75 24.2 -15.65 21.8 -17.55 M22.65 -13.35 Q18.9 -16.0 19.25 -20.05 24.5 -20.0 27.35 -14.75 25.8 -13.25 22.65 -13.35" fill="#ffcd12" fill-rule="evenodd" stroke="none"/>
      <path d="M27.35 -14.75 Q24.2 -15.65 21.8 -17.55" fill="none" stroke="#000000" stroke-linecap="round" stroke-linejoin="round" stroke-opacity="0.2" stroke-width="0.5"/>
      <path d="M22.65 -13.35 Q18.9 -16.0 19.25 -20.05 24.5 -20.0 27.35 -14.75 25.8 -13.25 22.65 -13.35" fill="none" stroke="#000000" stroke-linecap="round" stroke-linejoin="round" stroke-opacity="0.4" stroke-width="0.5"/>
      <path d="M30.6 -8.2 Q33.1 -12.05 31.2 -15.7 26.4 -13.65 25.65 -7.75 27.75 -6.9 30.6 -8.2 M29.8 -12.45 Q28.3 -9.8 25.65 -7.75 28.3 -9.8 29.8 -12.45" fill="#f7b100" fill-rule="evenodd" stroke="none"/>
      <path d="M25.65 -7.75 Q28.3 -9.8 29.8 -12.45" fill="none" stroke="#000000" stroke-linecap="round" stroke-linejoin="round" stroke-opacity="0.2" stroke-width="0.5"/>
      <path d="M30.6 -8.2 Q33.1 -12.05 31.2 -15.7 26.4 -13.65 25.65 -7.75 27.75 -6.9 30.6 -8.2" fill="none" stroke="#000000" stroke-linecap="round" stroke-linejoin="round" stroke-opacity="0.4" stroke-width="0.5"/>
      <path d="M22.05 -9.05 Q19.5 -12.85 21.3 -16.55 26.15 -14.6 27.0 -8.7 24.95 -7.8 22.05 -9.05 M22.75 -13.3 Q24.3 -10.65 27.0 -8.7 24.3 -10.65 22.75 -13.3" fill="#ffcd12" fill-rule="evenodd" stroke="none"/>
      <path d="M27.0 -8.7 Q24.3 -10.65 22.75 -13.3" fill="none" stroke="#000000" stroke-linecap="round" stroke-linejoin="round" stroke-opacity="0.2" stroke-width="0.5"/>
      <path d="M22.05 -9.05 Q19.5 -12.85 21.3 -16.55 26.15 -14.6 27.0 -8.7 24.95 -7.8 22.05 -9.05" fill="none" stroke="#000000" stroke-linecap="round" stroke-linejoin="round" stroke-opacity="0.4" stroke-width="0.5"/>
      <path d="M27.0 -5.8 Q24.4 -4.3 21.05 -3.8 24.4 -4.3 27.0 -5.8 M25.55 -1.7 Q29.7 -3.85 29.85 -7.95 24.65 -8.6 21.05 -3.8 22.4 -2.05 25.55 -1.7" fill="#f7b100" fill-rule="evenodd" stroke="none"/>
      <path d="M21.05 -3.8 Q24.4 -4.3 27.0 -5.8" fill="none" stroke="#000000" stroke-linecap="round" stroke-linejoin="round" stroke-opacity="0.2" stroke-width="0.5"/>
      <path d="M25.55 -1.7 Q29.7 -3.85 29.85 -7.95 24.65 -8.6 21.05 -3.8 22.4 -2.05 25.55 -1.7" fill="none" stroke="#000000" stroke-linecap="round" stroke-linejoin="round" stroke-opacity="0.4" stroke-width="0.5"/>
      <path d="M21.4 -10.1 Q21.5 -7.0 22.8 -3.95 21.5 -7.0 21.4 -10.1 M18.7 -6.7 Q18.4 -11.3 21.8 -13.6 25.0 -9.5 22.8 -3.95 20.65 -4.25 18.7 -6.7" fill="#ffcc00" fill-rule="evenodd" stroke="none"/>
      <path d="M22.8 -3.95 Q21.5 -7.0 21.4 -10.1" fill="none" stroke="#000000" stroke-linecap="round" stroke-linejoin="round" stroke-opacity="0.2" stroke-width="0.5"/>
      <path d="M18.7 -6.7 Q18.4 -11.3 21.8 -13.6 25.0 -9.5 22.8 -3.95 20.65 -4.25 18.7 -6.7" fill="none" stroke="#000000" stroke-linecap="round" stroke-linejoin="round" stroke-opacity="0.4" stroke-width="0.5"/>
      <path d="M17.5 1.45 Q22.1 1.65 24.35 -1.75 20.15 -4.95 14.7 -2.55 14.95 -0.45 17.5 1.45 M20.8 -1.35 Q17.75 -1.35 14.7 -2.55 17.75 -1.35 20.8 -1.35" fill="#f7b100" fill-rule="evenodd" stroke="none"/>
      <path d="M14.7 -2.55 Q17.75 -1.35 20.8 -1.35" fill="none" stroke="#000000" stroke-linecap="round" stroke-linejoin="round" stroke-opacity="0.2" stroke-width="0.5"/>
      <path d="M17.5 1.45 Q22.1 1.65 24.35 -1.75 20.15 -4.95 14.7 -2.55 14.95 -0.45 17.5 1.45" fill="none" stroke="#000000" stroke-linecap="round" stroke-linejoin="round" stroke-opacity="0.4" stroke-width="0.5"/>
      <path d="M13.9 -6.2 Q15.95 -10.35 20.0 -10.6 20.8 -5.45 16.1 -1.75 14.35 -3.1 13.9 -6.2 M18.0 -7.7 Q16.5 -5.0 16.1 -1.75 16.5 -5.0 18.0 -7.7" fill="#ffcc00" fill-rule="evenodd" stroke="none"/>
      <path d="M16.1 -1.75 Q16.5 -5.0 18.0 -7.7" fill="none" stroke="#000000" stroke-linecap="round" stroke-linejoin="round" stroke-opacity="0.2" stroke-width="0.5"/>
      <path d="M13.9 -6.2 Q15.95 -10.35 20.0 -10.6 20.8 -5.45 16.1 -1.75 14.35 -3.1 13.9 -6.2" fill="none" stroke="#000000" stroke-linecap="round" stroke-linejoin="round" stroke-opacity="0.4" stroke-width="0.5"/>
      <path d="M11.3 2.25 Q15.75 3.6 18.75 0.85 15.55 -3.3 9.65 -2.4 9.35 -0.2 11.3 2.25 M15.25 0.4 Q12.3 -0.4 9.65 -2.4 12.3 -0.4 15.25 0.4" fill="#f7b100" fill-rule="evenodd" stroke="none"/>
      <path d="M9.65 -2.4 Q12.3 -0.4 15.25 0.4" fill="none" stroke="#000000" stroke-linecap="round" stroke-linejoin="round" stroke-opacity="0.2" stroke-width="0.5"/>
      <path d="M11.3 2.25 Q15.75 3.6 18.75 0.85 15.55 -3.3 9.65 -2.4 9.35 -0.2 11.3 2.25" fill="none" stroke="#000000" stroke-linecap="round" stroke-linejoin="round" stroke-opacity="0.4" stroke-width="0.5"/>
      <path d="M9.95 -6.05 Q13.05 -9.5 17.0 -8.7 16.45 -3.5 10.95 -1.15 9.6 -2.9 9.95 -6.05 M14.3 -6.45 Q12.15 -4.3 10.95 -1.15 12.15 -4.3 14.3 -6.45" fill="#ffcc00" fill-rule="evenodd" stroke="none"/>
      <path d="M10.95 -1.15 Q12.15 -4.3 14.3 -6.45" fill="none" stroke="#000000" stroke-linecap="round" stroke-linejoin="round" stroke-opacity="0.2" stroke-width="0.5"/>
      <path d="M9.95 -6.05 Q13.05 -9.5 17.0 -8.7 16.45 -3.5 10.95 -1.15 9.6 -2.9 9.95 -6.05" fill="none" stroke="#000000" stroke-linecap="round" stroke-linejoin="round" stroke-opacity="0.4" stroke-width="0.5"/>
    </g>
  </defs>
</svg>
