<?xml version="1.0" encoding="UTF-8" standalone="no"?>
<svg xmlns:xlink="http://www.w3.org/1999/xlink" height="531.5px" width="460.6px" xmlns="http://www.w3.org/2000/svg">
  <g transform="matrix(1.0, 0.0, 0.0, 1.0, 193.65, 334.05)">
    <use height="60.4" transform="matrix(0.4557, 0.0, 0.0, 0.4557, -61.15, -170.2467)" width="251.85" xlink:href="#sprite0"/>
  </g>
  <defs>
    <g id="sprite0" transform="matrix(1.0, 0.0, 0.0, 1.0, 86.35, -22.5)">
      <use height="60.4" transform="matrix(1.0, 0.0, 0.0, 1.0, -86.35, 22.5)" width="251.85" xlink:href="#shape0"/>
    </g>
    <g id="shape0" transform="matrix(1.0, 0.0, 0.0, 1.0, 86.35, -22.5)">
      <path d="M154.6 61.4 L163.0 63.2 Q165.6 68.25 164.8 72.8 L152.4 69.9 Q153.95 65.25 154.6 61.4 M111.9 63.95 Q23.7 74.0 -85.85 81.4 L-82.1 73.4 Q19.0 64.35 109.3 52.5 109.85 57.4 111.3 62.55 L111.9 63.95 M151.75 42.5 L157.3 39.95 Q160.9 43.85 160.6 49.15 L154.3 50.95 Q153.05 44.9 151.75 42.5" fill="#000000" fill-rule="evenodd" stroke="none"/>
      <path d="M152.4 69.9 Q151.8 72.6 147.7 76.6 124.2 92.75 111.9 63.95 L111.3 62.55 Q109.85 57.4 109.3 52.5 108.8 48.1 109.1 42.95 109.3 39.9 109.9 37.0 L110.6 34.05 110.95 33.1 111.45 31.7 112.95 27.55 113.0 27.5 Q116.55 22.95 118.3 23.0 L150.85 41.15 151.75 42.5 Q153.05 44.9 154.3 50.95 L154.75 53.25 Q155.5 57.1 154.6 61.4 153.95 65.25 152.4 69.9" fill="url(#gradient0)" fill-rule="evenodd" stroke="none"/>
      <path d="M154.6 61.4 L163.0 63.2 Q165.6 68.25 164.8 72.8 L152.4 69.9 Q151.8 72.6 147.7 76.6 124.2 92.75 111.9 63.95 23.7 74.0 -85.85 81.4 L-82.1 73.4 Q19.0 64.35 109.3 52.5 108.8 48.1 109.1 42.95 109.3 39.9 109.9 37.0 L110.6 34.05 110.95 33.1 111.45 31.7 112.95 27.55 113.0 27.5 Q116.55 22.95 118.3 23.0 L150.85 41.15 151.75 42.5 157.3 39.95 Q160.9 43.85 160.6 49.15 L154.3 50.95 154.75 53.25 Q155.5 57.1 154.6 61.4 153.95 65.25 152.4 69.9 M111.9 63.95 L111.3 62.55 Q109.85 57.4 109.3 52.5 M154.3 50.95 Q153.05 44.9 151.75 42.5" fill="none" stroke="#000000" stroke-linecap="round" stroke-linejoin="round" stroke-opacity="0.6627451" stroke-width="1.0"/>
      <path d="M154.6 61.4 L163.0 63.2 Q165.6 68.25 164.8 72.8 L152.4 69.9 Q153.95 65.25 154.6 61.4 M111.9 63.95 Q23.7 74.0 -85.85 81.4 L-82.1 73.4 Q19.0 64.35 109.3 52.5 109.85 57.4 111.3 62.55 L111.9 63.95 M151.75 42.5 L157.3 39.95 Q160.9 43.85 160.6 49.15 L154.3 50.95 Q153.05 44.9 151.75 42.5" fill="#000000" fill-rule="evenodd" stroke="none"/>
      <path d="M152.4 69.9 Q151.8 72.6 147.7 76.6 124.2 92.75 111.9 63.95 L111.3 62.55 Q109.85 57.4 109.3 52.5 108.8 48.1 109.1 42.95 109.3 39.9 109.9 37.0 L110.6 34.05 110.95 33.1 111.45 31.7 112.95 27.55 113.0 27.5 Q116.55 22.95 118.3 23.0 L150.85 41.15 151.75 42.5 Q153.05 44.9 154.3 50.95 L154.75 53.25 Q155.5 57.1 154.6 61.4 153.95 65.25 152.4 69.9" fill="url(#gradient1)" fill-rule="evenodd" stroke="none"/>
      <path d="M154.6 61.4 L163.0 63.2 Q165.6 68.25 164.8 72.8 L152.4 69.9 Q151.8 72.6 147.7 76.6 124.2 92.75 111.9 63.95 23.7 74.0 -85.85 81.4 L-82.1 73.4 Q19.0 64.35 109.3 52.5 108.8 48.1 109.1 42.95 109.3 39.9 109.9 37.0 L110.6 34.05 110.95 33.1 111.45 31.7 112.95 27.55 113.0 27.5 Q116.55 22.95 118.3 23.0 L150.85 41.15 151.75 42.5 157.3 39.95 Q160.9 43.85 160.6 49.15 L154.3 50.95 154.75 53.25 Q155.5 57.1 154.6 61.4 153.95 65.25 152.4 69.9 M111.9 63.95 L111.3 62.55 Q109.85 57.4 109.3 52.5 M154.3 50.95 Q153.05 44.9 151.75 42.5" fill="none" stroke="#000000" stroke-linecap="round" stroke-linejoin="round" stroke-opacity="0.6627451" stroke-width="1.0"/>
      <path d="M154.6 61.4 L163.0 63.2 Q165.6 68.25 164.8 72.8 L152.4 69.9 Q153.95 65.25 154.6 61.4 M111.9 63.95 Q23.7 74.0 -85.85 81.4 L-82.1 73.4 Q19.0 64.35 109.3 52.5 109.85 57.4 111.3 62.55 L111.9 63.95 M151.75 42.5 L157.3 39.95 Q160.9 43.85 160.6 49.15 L154.3 50.95 Q153.05 44.9 151.75 42.5" fill="#000000" fill-rule="evenodd" stroke="none"/>
      <path d="M152.4 69.9 Q151.8 72.6 147.7 76.6 124.2 92.75 111.9 63.95 L111.3 62.55 Q109.85 57.4 109.3 52.5 108.8 48.1 109.1 42.95 109.3 39.9 109.9 37.0 L110.6 34.05 110.95 33.1 111.45 31.7 112.95 27.55 113.0 27.5 Q116.55 22.95 118.3 23.0 L150.85 41.15 151.75 42.5 Q153.05 44.9 154.3 50.95 L154.75 53.25 Q155.5 57.1 154.6 61.4 153.95 65.25 152.4 69.9" fill="url(#gradient2)" fill-rule="evenodd" stroke="none"/>
      <path d="M154.6 61.4 L163.0 63.2 Q165.6 68.25 164.8 72.8 L152.4 69.9 Q151.8 72.6 147.7 76.6 124.2 92.75 111.9 63.95 23.7 74.0 -85.85 81.4 L-82.1 73.4 Q19.0 64.35 109.3 52.5 108.8 48.1 109.1 42.95 109.3 39.9 109.9 37.0 L110.6 34.05 110.95 33.1 111.45 31.7 112.95 27.55 113.0 27.5 Q116.55 22.95 118.3 23.0 L150.85 41.15 151.75 42.5 157.3 39.95 Q160.9 43.85 160.6 49.15 L154.3 50.95 154.75 53.25 Q155.5 57.1 154.6 61.4 153.95 65.25 152.4 69.9 M111.9 63.95 L111.3 62.55 Q109.85 57.4 109.3 52.5 M154.3 50.95 Q153.05 44.9 151.75 42.5" fill="none" stroke="#000000" stroke-linecap="round" stroke-linejoin="round" stroke-opacity="0.6627451" stroke-width="1.0"/>
      <path d="M154.6 61.4 L163.0 63.2 Q165.6 68.25 164.8 72.8 L152.4 69.9 Q153.95 65.25 154.6 61.4 M111.9 63.95 Q23.7 74.0 -85.85 81.4 L-82.1 73.4 Q19.0 64.35 109.3 52.5 109.85 57.4 111.3 62.55 L111.9 63.95 M151.75 42.5 L157.3 39.95 Q160.9 43.85 160.6 49.15 L154.3 50.95 Q153.05 44.9 151.75 42.5" fill="#000000" fill-rule="evenodd" stroke="none"/>
      <path d="M152.4 69.9 Q151.8 72.6 147.7 76.6 124.2 92.75 111.9 63.95 L111.3 62.55 Q109.85 57.4 109.3 52.5 108.8 48.1 109.1 42.95 109.3 39.9 109.9 37.0 L110.6 34.05 110.95 33.1 111.45 31.7 112.95 27.55 113.0 27.5 Q116.55 22.95 118.3 23.0 L150.85 41.15 151.75 42.5 Q153.05 44.9 154.3 50.95 L154.75 53.25 Q155.5 57.1 154.6 61.4 153.95 65.25 152.4 69.9" fill="url(#gradient3)" fill-rule="evenodd" stroke="none"/>
      <path d="M154.6 61.4 L163.0 63.2 Q165.6 68.25 164.8 72.8 L152.4 69.9 Q151.8 72.6 147.7 76.6 124.2 92.75 111.9 63.95 23.7 74.0 -85.85 81.4 L-82.1 73.4 Q19.0 64.35 109.3 52.5 108.8 48.1 109.1 42.95 109.3 39.9 109.9 37.0 L110.6 34.05 110.95 33.1 111.45 31.7 112.95 27.55 113.0 27.5 Q116.55 22.95 118.3 23.0 L150.85 41.15 151.75 42.5 157.3 39.95 Q160.9 43.85 160.6 49.15 L154.3 50.95 154.75 53.25 Q155.5 57.1 154.6 61.4 153.95 65.25 152.4 69.9 M111.9 63.95 L111.3 62.55 Q109.85 57.4 109.3 52.5 M154.3 50.95 Q153.05 44.9 151.75 42.5" fill="none" stroke="#000000" stroke-linecap="round" stroke-linejoin="round" stroke-opacity="0.6627451" stroke-width="1.0"/>
      <path d="M154.6 61.4 L163.0 63.2 Q165.6 68.25 164.8 72.8 L152.4 69.9 Q153.95 65.25 154.6 61.4 M111.9 63.95 Q23.7 74.0 -85.85 81.4 L-82.1 73.4 Q19.0 64.35 109.3 52.5 109.85 57.4 111.3 62.55 L111.9 63.95 M151.75 42.5 L157.3 39.95 Q160.9 43.85 160.6 49.15 L154.3 50.95 Q153.05 44.9 151.75 42.5" fill="#000000" fill-rule="evenodd" stroke="none"/>
      <path d="M152.4 69.9 Q151.8 72.6 147.7 76.6 124.2 92.75 111.9 63.95 L111.3 62.55 Q109.85 57.4 109.3 52.5 108.8 48.1 109.1 42.95 109.3 39.9 109.9 37.0 L110.6 34.05 110.95 33.1 111.45 31.7 112.95 27.55 113.0 27.5 Q116.55 22.95 118.3 23.0 L150.85 41.15 151.75 42.5 Q153.05 44.9 154.3 50.95 L154.75 53.25 Q155.5 57.1 154.6 61.4 153.95 65.25 152.4 69.9" fill="url(#gradient4)" fill-rule="evenodd" stroke="none"/>
      <path d="M154.6 61.4 L163.0 63.2 Q165.6 68.25 164.8 72.8 L152.4 69.9 Q151.8 72.6 147.7 76.6 124.2 92.75 111.9 63.95 23.7 74.0 -85.85 81.4 L-82.1 73.4 Q19.0 64.35 109.3 52.5 108.8 48.1 109.1 42.95 109.3 39.9 109.9 37.0 L110.6 34.05 110.95 33.1 111.45 31.7 112.95 27.55 113.0 27.5 Q116.55 22.95 118.3 23.0 L150.85 41.15 151.75 42.5 157.3 39.95 Q160.9 43.85 160.6 49.15 L154.3 50.95 154.75 53.25 Q155.5 57.1 154.6 61.4 153.95 65.25 152.4 69.9 M111.9 63.95 L111.3 62.55 Q109.85 57.4 109.3 52.5 M154.3 50.95 Q153.05 44.9 151.75 42.5" fill="none" stroke="#000000" stroke-linecap="round" stroke-linejoin="round" stroke-opacity="0.6627451" stroke-width="1.0"/>
      <path d="M154.6 61.4 L163.0 63.2 Q165.6 68.25 164.8 72.8 L152.4 69.9 Q153.95 65.25 154.6 61.4 M111.9 63.95 Q23.7 74.0 -85.85 81.4 L-82.1 73.4 Q19.0 64.35 109.3 52.5 109.85 57.4 111.3 62.55 L111.9 63.95 M151.75 42.5 L157.3 39.95 Q160.9 43.85 160.6 49.15 L154.3 50.95 Q153.05 44.9 151.75 42.5" fill="#000000" fill-rule="evenodd" stroke="none"/>
      <path d="M152.4 69.9 Q151.8 72.6 147.7 76.6 124.2 92.75 111.9 63.95 L111.3 62.55 Q109.85 57.4 109.3 52.5 108.8 48.1 109.1 42.95 109.3 39.9 109.9 37.0 L110.6 34.05 110.95 33.1 111.45 31.7 112.95 27.55 113.0 27.5 Q116.55 22.95 118.3 23.0 L150.85 41.15 151.75 42.5 Q153.05 44.9 154.3 50.95 L154.75 53.25 Q155.5 57.1 154.6 61.4 153.95 65.25 152.4 69.9" fill="url(#gradient5)" fill-rule="evenodd" stroke="none"/>
      <path d="M154.6 61.4 L163.0 63.2 Q165.6 68.25 164.8 72.8 L152.4 69.9 Q151.8 72.6 147.7 76.6 124.2 92.75 111.9 63.95 23.7 74.0 -85.85 81.4 L-82.1 73.4 Q19.0 64.35 109.3 52.5 108.8 48.1 109.1 42.95 109.3 39.9 109.9 37.0 L110.6 34.05 110.95 33.1 111.45 31.7 112.95 27.55 113.0 27.5 Q116.55 22.95 118.3 23.0 L150.85 41.15 151.75 42.5 157.3 39.95 Q160.9 43.85 160.6 49.15 L154.3 50.95 154.75 53.25 Q155.5 57.1 154.6 61.4 153.95 65.25 152.4 69.9 M111.9 63.95 L111.3 62.55 Q109.85 57.4 109.3 52.5 M154.3 50.95 Q153.05 44.9 151.75 42.5" fill="none" stroke="#000000" stroke-linecap="round" stroke-linejoin="round" stroke-opacity="0.6627451" stroke-width="1.0"/>
      <path d="M154.6 61.4 L163.0 63.2 Q165.6 68.25 164.8 72.8 L152.4 69.9 Q153.95 65.25 154.6 61.4 M111.9 63.95 Q23.7 74.0 -85.85 81.4 L-82.1 73.4 Q19.0 64.35 109.3 52.5 109.85 57.4 111.3 62.55 L111.9 63.95 M151.75 42.5 L157.3 39.95 Q160.9 43.85 160.6 49.15 L154.3 50.95 Q153.05 44.9 151.75 42.5" fill="#000000" fill-rule="evenodd" stroke="none"/>
      <path d="M152.4 69.9 Q151.8 72.6 147.7 76.6 124.2 92.75 111.9 63.95 L111.3 62.55 Q109.85 57.4 109.3 52.5 108.8 48.1 109.1 42.95 109.3 39.9 109.9 37.0 L110.6 34.05 110.95 33.1 111.45 31.7 112.95 27.55 113.0 27.5 Q116.55 22.95 118.3 23.0 L150.85 41.15 151.75 42.5 Q153.05 44.9 154.3 50.95 L154.75 53.25 Q155.5 57.1 154.6 61.4 153.95 65.25 152.4 69.9" fill="url(#gradient6)" fill-rule="evenodd" stroke="none"/>
      <path d="M154.6 61.4 L163.0 63.2 Q165.6 68.25 164.8 72.8 L152.4 69.9 Q151.8 72.6 147.7 76.6 124.2 92.75 111.9 63.95 23.7 74.0 -85.85 81.4 L-82.1 73.4 Q19.0 64.35 109.3 52.5 108.8 48.1 109.1 42.95 109.3 39.9 109.9 37.0 L110.6 34.05 110.95 33.1 111.45 31.7 112.95 27.55 113.0 27.5 Q116.55 22.95 118.3 23.0 L150.85 41.15 151.75 42.5 157.3 39.95 Q160.9 43.85 160.6 49.15 L154.3 50.95 154.75 53.25 Q155.5 57.1 154.6 61.4 153.95 65.25 152.4 69.9 M111.9 63.95 L111.3 62.55 Q109.85 57.4 109.3 52.5 M154.3 50.95 Q153.05 44.9 151.75 42.5" fill="none" stroke="#000000" stroke-linecap="round" stroke-linejoin="round" stroke-opacity="0.6627451" stroke-width="1.0"/>
    </g>
    <linearGradient gradientTransform="matrix(-0.0141, -0.0244, 0.0314, -0.0181, 132.65, 52.1)" gradientUnits="userSpaceOnUse" id="gradient0" spreadMethod="pad" x1="-819.2" x2="819.2">
      <stop offset="0.0" stop-color="#000000"/>
      <stop offset="0.9882352941176471" stop-color="#333333"/>
    </linearGradient>
    <linearGradient gradientTransform="matrix(-0.0141, -0.0244, 0.0314, -0.0181, 132.65, 52.1)" gradientUnits="userSpaceOnUse" id="gradient1" spreadMethod="pad" x1="-819.2" x2="819.2">
      <stop offset="0.0" stop-color="#000000"/>
      <stop offset="0.9882352941176471" stop-color="#333333"/>
    </linearGradient>
    <linearGradient gradientTransform="matrix(-0.0141, -0.0244, 0.0314, -0.0181, 132.65, 52.1)" gradientUnits="userSpaceOnUse" id="gradient2" spreadMethod="pad" x1="-819.2" x2="819.2">
      <stop offset="0.0" stop-color="#000000"/>
      <stop offset="0.9882352941176471" stop-color="#333333"/>
    </linearGradient>
    <linearGradient gradientTransform="matrix(-0.0141, -0.0244, 0.0314, -0.0181, 132.65, 52.1)" gradientUnits="userSpaceOnUse" id="gradient3" spreadMethod="pad" x1="-819.2" x2="819.2">
      <stop offset="0.0" stop-color="#000000"/>
      <stop offset="0.9882352941176471" stop-color="#333333"/>
    </linearGradient>
    <linearGradient gradientTransform="matrix(-0.0141, -0.0244, 0.0314, -0.0181, 132.65, 52.1)" gradientUnits="userSpaceOnUse" id="gradient4" spreadMethod="pad" x1="-819.2" x2="819.2">
      <stop offset="0.0" stop-color="#000000"/>
      <stop offset="0.9882352941176471" stop-color="#333333"/>
    </linearGradient>
    <linearGradient gradientTransform="matrix(-0.0141, -0.0244, 0.0314, -0.0181, 132.65, 52.1)" gradientUnits="userSpaceOnUse" id="gradient5" spreadMethod="pad" x1="-819.2" x2="819.2">
      <stop offset="0.0" stop-color="#000000"/>
      <stop offset="0.9882352941176471" stop-color="#333333"/>
    </linearGradient>
    <linearGradient gradientTransform="matrix(-0.0141, -0.0244, 0.0314, -0.0181, 132.65, 52.1)" gradientUnits="userSpaceOnUse" id="gradient6" spreadMethod="pad" x1="-819.2" x2="819.2">
      <stop offset="0.0" stop-color="#000000"/>
      <stop offset="0.9882352941176471" stop-color="#333333"/>
    </linearGradient>
  </defs>
</svg>
