<?xml version="1.0" encoding="UTF-8" standalone="no"?>
<svg xmlns:xlink="http://www.w3.org/1999/xlink" height="531.5px" width="460.6px" xmlns="http://www.w3.org/2000/svg">
  <g transform="matrix(1.0, 0.0, 0.0, 1.0, 193.65, 334.05)">
    <use height="72.6" transform="matrix(1.0, 0.0, 0.0, 1.0, -52.6, -172.45)" width="98.75" xlink:href="#shape0"/>
  </g>
  <defs>
    <g id="shape0" transform="matrix(1.0, 0.0, 0.0, 1.0, 52.6, 172.45)">
      <path d="M17.35 -102.35 L16.3 -101.3 16.0 -101.45 Q16.15 -102.45 18.4 -105.2 L21.25 -108.65 25.15 -114.85 25.35 -114.9 25.45 -115.0 27.1 -114.25 29.25 -114.2 Q30.3 -114.3 31.35 -114.9 32.65 -115.65 33.1 -117.15 L33.3 -117.85 33.4 -119.0 35.05 -119.1 39.35 -118.55 40.55 -118.5 41.85 -118.3 Q43.45 -117.75 46.15 -117.3 L45.85 -117.05 45.65 -117.1 45.45 -116.85 43.9 -116.45 41.8 -116.15 39.2 -115.5 Q36.5 -114.4 29.35 -110.25 25.0 -107.75 22.05 -105.6 19.7 -103.9 19.2 -103.2 L17.55 -102.25 Q17.45 -102.15 17.35 -102.35 M31.95 -118.45 L31.9 -118.15 31.85 -118.4 31.95 -118.45 M45.55 -114.65 Q45.9 -114.05 45.1 -112.15 L43.9 -109.85 Q40.2 -104.6 36.95 -102.75 34.7 -101.4 27.1 -100.35 19.45 -99.35 18.85 -100.35 L18.7 -100.75 18.75 -100.9 19.7 -101.0 Q20.95 -101.55 25.1 -104.35 L27.7 -105.8 27.9 -104.95 28.1 -104.8 28.25 -104.85 28.4 -104.95 Q28.25 -105.5 28.45 -106.25 L32.3 -108.4 32.65 -108.2 33.05 -107.75 Q33.35 -107.35 33.6 -107.5 L33.7 -107.7 32.8 -108.65 34.2 -109.4 Q34.75 -109.45 35.35 -109.0 L36.6 -107.6 36.85 -107.6 37.0 -107.8 36.65 -108.4 Q36.05 -109.15 35.2 -109.55 L34.8 -109.75 37.3 -111.05 38.7 -111.7 39.65 -111.15 40.6 -110.15 41.4 -109.6 41.5 -109.75 41.25 -110.2 39.55 -111.75 39.2 -111.95 41.6 -113.1 45.3 -115.05 45.55 -114.65" fill="#ff0000" fill-rule="evenodd" stroke="none"/>
      <path d="M-50.9 -131.8 L-52.25 -132.55 -52.1 -132.8 Q-51.15 -132.95 -47.9 -131.5 L-43.8 -129.6 -36.85 -127.45 -36.7 -127.3 -36.6 -127.2 -36.9 -125.4 Q-36.9 -124.3 -36.35 -123.35 L-35.2 -121.5 Q-34.1 -120.4 -32.6 -120.4 L-31.85 -120.35 -30.7 -120.6 -30.2 -119.0 Q-29.6 -116.9 -29.55 -114.75 L-29.3 -113.5 -29.2 -112.2 -29.05 -107.85 -29.35 -108.05 -29.35 -108.25 -29.65 -108.35 -30.4 -109.8 -31.25 -111.75 -32.6 -114.1 Q-34.4 -116.4 -40.2 -122.2 -43.75 -125.75 -46.6 -128.1 -48.8 -129.9 -49.6 -130.2 L-50.95 -131.55 -50.9 -131.8 M-31.6 -121.8 L-31.9 -121.8 -31.7 -121.9 -31.6 -121.8 M-31.8 -107.7 L-34.25 -107.55 -36.8 -108.1 Q-42.8 -110.3 -45.45 -112.95 -47.3 -114.8 -50.35 -121.85 -53.25 -128.95 -52.45 -129.75 L-52.15 -130.05 -52.0 -130.0 -51.65 -129.15 Q-50.8 -128.1 -47.0 -124.8 L-44.9 -122.6 -45.65 -122.25 -45.85 -122.05 -45.65 -121.85 -45.6 -121.8 -44.3 -122.0 -41.25 -118.85 -41.3 -118.5 -41.7 -118.0 -41.75 -117.45 -41.55 -117.35 Q-41.15 -117.65 -40.85 -118.45 L-39.7 -117.3 Q-39.55 -116.85 -39.9 -116.1 -40.2 -115.3 -40.85 -114.55 L-40.8 -114.3 -40.55 -114.25 -40.1 -114.7 Q-39.55 -115.45 -39.3 -116.4 L-39.25 -116.85 -37.35 -114.75 -36.35 -113.65 -36.7 -112.5 -37.35 -111.35 -37.7 -110.4 Q-37.55 -110.25 -37.5 -110.4 L-37.15 -110.75 -36.1 -112.8 -35.95 -113.15 -34.25 -111.15 -31.4 -108.1 -31.8 -107.7" fill="#ff0000" fill-rule="evenodd" stroke="none"/>
      <path d="M3.75 -158.45 L3.35 -157.55 3.15 -157.65 Q2.9 -158.35 3.65 -160.55 L4.65 -163.3 5.5 -168.05 5.6 -168.15 5.65 -168.2 7.05 -167.9 8.5 -168.1 Q9.2 -168.3 9.75 -168.85 10.4 -169.5 10.3 -170.55 L10.25 -171.1 9.95 -171.9 11.05 -172.15 14.15 -172.3 15.0 -172.4 15.95 -172.4 19.2 -172.2 19.05 -172.0 18.95 -172.05 18.85 -171.8 Q18.65 -171.6 17.9 -171.35 L16.6 -170.95 14.95 -170.1 Q13.4 -169.05 9.7 -165.35 7.45 -163.1 6.05 -161.2 4.9 -159.75 4.8 -159.3 L3.9 -158.4 3.75 -158.45 M9.1 -171.35 L9.2 -171.2 9.05 -171.3 9.1 -171.35 M19.6 -170.3 Q20.0 -169.9 20.0 -168.5 L19.85 -166.8 Q18.85 -162.65 17.2 -161.0 16.0 -159.8 11.05 -158.2 6.1 -156.6 5.4 -157.2 L5.25 -157.5 5.2 -157.6 5.85 -157.8 Q6.5 -158.3 8.55 -160.75 L9.95 -162.05 Q10.05 -161.7 10.25 -161.5 L10.45 -161.4 10.6 -161.45 10.6 -161.55 10.3 -162.4 12.35 -164.4 12.65 -164.3 13.0 -164.0 13.45 -163.95 13.45 -164.05 12.6 -164.65 13.3 -165.3 14.2 -165.15 15.5 -164.35 15.7 -164.4 15.7 -164.55 15.3 -164.9 13.9 -165.55 13.65 -165.65 14.95 -166.8 15.7 -167.45 16.55 -167.15 17.5 -166.55 Q18.1 -166.2 18.2 -166.3 L18.2 -166.4 17.9 -166.65 16.25 -167.6 Q16.1 -167.6 16.05 -167.7 L17.3 -168.75 19.25 -170.6 19.6 -170.3" fill="#ff0000" fill-rule="evenodd" stroke="none"/>
    </g>
  </defs>
</svg>
