<?xml version="1.0" encoding="UTF-8" standalone="no"?>
<svg xmlns:xlink="http://www.w3.org/1999/xlink" height="531.5px" width="460.6px" xmlns="http://www.w3.org/2000/svg">
  <g transform="matrix(1.0, 0.0, 0.0, 1.0, 193.65, 334.05)">
    <use height="30.4" transform="matrix(0.43, 0.0, 0.0, 0.43, 0.0623, -162.1359)" width="93.25" xlink:href="#sprite0"/>
  </g>
  <defs>
    <g id="sprite0" transform="matrix(1.0, 0.0, 0.0, 1.0, 46.6, 15.2)">
      <use height="30.4" transform="matrix(1.0, 0.0, 0.0, 1.0, -46.6, -15.2)" width="93.25" xlink:href="#shape0"/>
      <use height="18.35" transform="matrix(1.0, 0.0, 0.0, 1.0, -15.8, -10.35)" width="36.25" xlink:href="#sprite1"/>
    </g>
    <g id="shape0" transform="matrix(1.0, 0.0, 0.0, 1.0, 46.6, 15.2)">
      <path d="M19.0 -0.7 L18.3 -1.3 17.25 -2.0 16.75 -2.3 16.25 -2.6 12.7 -4.5 9.7 -5.7 7.3 -6.35 6.05 -6.55 5.45 -6.6 4.45 -6.55 3.05 -6.5 0.3 -6.15 -0.75 -5.95 Q-2.75 -5.8 -4.6 -5.1 L-6.55 -4.55 -9.55 -3.85 Q-11.35 -3.35 -12.95 -2.35 L-15.4 -0.75 -15.55 -0.65 -15.8 -2.5 -15.8 -3.45 Q1.4 -17.05 19.1 -3.75 L19.15 -2.45 19.0 -0.7 M-14.4 0.9 L-14.1 0.8 -14.0 0.8 -13.95 0.75 Q-13.35 0.75 -12.95 1.7 -12.55 2.65 -12.55 4.0 -12.55 5.35 -12.95 6.3 -13.35 7.25 -13.95 7.25 -14.55 7.25 -14.95 6.3 -15.35 5.35 -15.35 4.0 -15.35 2.65 -14.95 1.7 L-14.4 0.9 M20.45 5.45 L20.05 7.05 Q19.65 8.0 19.05 8.0 18.45 8.0 18.05 7.05 17.65 6.1 17.65 4.75 17.65 3.4 18.05 2.45 18.45 1.5 19.05 1.5 L19.15 1.5 Q19.45 3.6 20.45 5.45" fill="#394046" fill-rule="evenodd" stroke="none"/>
      <path d="M-15.55 -0.65 L-15.4 -0.75 -12.95 -2.35 Q-11.35 -3.35 -9.55 -3.85 L-6.55 -4.55 -4.6 -5.1 Q-2.75 -5.8 -0.75 -5.95 L0.3 -6.15 3.05 -6.5 4.45 -6.55 5.45 -6.6 6.05 -6.55 7.3 -6.35 9.7 -5.7 12.7 -4.5 16.25 -2.6 16.75 -2.3 17.25 -2.0 18.3 -1.3 19.0 -0.7 19.0 -0.5 19.05 0.4 19.1 1.2 18.1 0.7 Q2.9 -6.7 -13.95 0.75 L-14.0 0.8 -14.1 0.8 -14.4 0.9 -15.6 1.5 -15.55 0.05 -15.55 -0.5 -15.55 -0.65" fill="#1f2325" fill-rule="evenodd" stroke="none"/>
      <path d="M38.75 -11.55 L36.95 -9.05 33.7 -4.25 30.1 1.15 26.65 6.35 26.45 6.7 26.3 6.9 26.1 7.2 26.15 7.25 24.95 10.45 24.3 9.95 22.8 8.65 Q21.3 7.15 20.45 5.45 L20.45 4.75 20.3 3.2 20.05 2.45 Q19.7 1.55 19.15 1.5 L19.1 1.2 19.25 1.25 19.15 -2.45 Q19.7 -6.55 22.8 -9.65 26.6 -13.45 31.95 -13.45 35.7 -13.45 38.75 -11.55 M31.3 9.75 L31.35 9.65 32.45 7.55 32.35 7.55 32.6 7.25 32.85 6.9 34.95 4.15 38.9 -0.85 42.75 -5.85 43.4 -6.65 43.7 -6.1 Q44.75 -3.85 44.9 -1.2 L44.05 0.5 Q42.95 2.55 41.15 3.9 38.65 5.9 35.65 6.95 L33.05 8.7 31.3 9.75 M-25.35 -12.65 L-28.4 -9.25 -32.35 -4.8 -36.1 -0.15 -39.5 4.85 -40.05 5.7 -40.1 5.8 -41.0 8.5 -41.15 8.95 -41.75 8.25 Q-43.95 5.8 -44.55 2.75 L-44.85 0.05 Q-44.85 -5.5 -40.55 -9.45 -36.25 -13.35 -30.2 -13.35 -27.6 -13.35 -25.35 -12.65 M-35.1 11.2 L-33.1 7.35 -33.2 7.4 -32.85 6.95 -32.25 6.15 -31.8 5.55 -28.25 0.55 -24.2 -5.25 -23.35 -6.45 -20.7 -10.2 -19.85 -9.45 Q-17.85 -7.6 -16.8 -5.45 L-16.8 -5.4 -16.75 -5.4 Q-16.1 -4.05 -15.8 -2.5 L-15.8 -0.15 Q-17.65 2.65 -22.75 6.0 L-23.35 6.4 Q-29.25 10.1 -35.1 11.2" fill="#bad8ff" fill-opacity="0.5019608" fill-rule="evenodd" stroke="none"/>
      <path d="M24.95 10.45 L26.15 7.25 26.1 7.2 26.3 6.9 26.45 6.7 26.65 6.35 30.1 1.15 33.7 -4.25 36.95 -9.05 38.75 -11.55 41.1 -9.65 Q42.5 -8.25 43.4 -6.65 L42.75 -5.85 38.9 -0.85 34.95 4.15 32.85 6.9 32.6 7.25 32.35 7.55 32.45 7.55 31.35 9.65 31.3 9.75 Q29.25 10.95 27.4 11.65 26.1 11.2 24.95 10.45 M-41.15 8.95 L-41.0 8.5 -40.1 5.8 -40.05 5.7 -39.5 4.85 -36.1 -0.15 -32.35 -4.8 -28.4 -9.25 -25.35 -12.65 -23.35 -11.85 Q-21.95 -11.15 -20.7 -10.2 L-23.35 -6.45 -24.2 -5.25 -28.25 0.55 -31.8 5.55 -32.25 6.15 -32.85 6.95 -33.2 7.4 -33.1 7.35 -35.1 11.2 -37.75 11.55 Q-39.25 10.7 -40.55 9.5 L-41.15 8.95" fill="#ffffff" fill-opacity="0.5019608" fill-rule="evenodd" stroke="none"/>
      <path d="M27.4 11.65 Q29.25 10.95 31.3 9.75 L33.05 8.7 35.65 6.95 Q38.65 5.9 41.15 3.9 42.95 2.55 44.05 0.5 L44.9 -1.2 44.9 -0.5 Q44.9 4.85 41.1 8.65 37.3 12.45 31.95 12.45 L30.25 12.35 28.85 12.1 27.4 11.65 M-37.75 11.55 L-35.1 11.2 Q-29.25 10.1 -23.35 6.4 L-22.75 6.0 Q-17.65 2.65 -15.8 -0.15 L-15.8 1.55 -15.6 1.5 Q-16.1 6.1 -19.85 9.5 -21.45 11.0 -23.35 11.95 -26.45 13.45 -30.2 13.45 -33.15 13.45 -35.7 12.5 L-36.8 12.05 -37.75 11.55 M-16.75 -5.4 L-16.8 -5.4 -16.8 -5.45 -16.75 -5.4" fill="#88b1e8" fill-opacity="0.5019608" fill-rule="evenodd" stroke="none"/>
      <path d="M-15.8 -3.45 L-15.8 -2.5 M-15.55 -0.65 L-15.55 -0.5 -15.55 0.05 -15.6 1.5 Q-16.1 6.1 -19.85 9.5 -21.45 11.0 -23.35 11.95 -26.45 13.45 -30.2 13.45 -33.15 13.45 -35.7 12.5 L-36.8 12.05 -37.75 11.55 Q-39.25 10.7 -40.55 9.5 L-41.15 8.95 -41.75 8.25 Q-43.95 5.8 -44.55 2.75 L-44.85 0.05 Q-44.85 -5.5 -40.55 -9.45 -36.25 -13.35 -30.2 -13.35 -27.6 -13.35 -25.35 -12.65 L-23.35 -11.85 Q-21.95 -11.15 -20.7 -10.2 L-19.85 -9.45 Q-17.85 -7.6 -16.8 -5.45 M19.1 1.2 L19.05 0.4 19.0 -0.5 19.0 -0.7 M24.95 10.45 Q26.1 11.2 27.4 11.65 L28.85 12.1 30.25 12.35 31.95 12.45 Q37.3 12.45 41.1 8.65 44.9 4.85 44.9 -0.5 L44.9 -1.2 Q44.75 -3.85 43.7 -6.1 L43.4 -6.65 Q42.5 -8.25 41.1 -9.65 L38.75 -11.55 Q35.7 -13.45 31.95 -13.45 26.6 -13.45 22.8 -9.65 19.7 -6.55 19.15 -2.45 M19.1 1.2 L19.15 1.5 M20.3 3.2 L20.45 4.75 20.45 5.45 Q21.3 7.15 22.8 8.65 L24.3 9.95 24.95 10.45" fill="none" stroke="#212c34" stroke-linecap="round" stroke-linejoin="round" stroke-opacity="0.6627451" stroke-width="3.5"/>
      <path d="M19.15 -2.45 L19.1 -3.75" fill="none" stroke="#526682" stroke-linecap="round" stroke-linejoin="round" stroke-opacity="0.6627451" stroke-width="3.5"/>
      <path d="M19.0 -0.7 L19.15 -2.45 19.25 1.25 19.1 1.2 18.1 0.7 Q2.9 -6.7 -13.95 0.75 -13.35 0.75 -12.95 1.7 -12.55 2.65 -12.55 4.0 -12.55 5.35 -12.95 6.3 -13.35 7.25 -13.95 7.25 -14.55 7.25 -14.95 6.3 -15.35 5.35 -15.35 4.0 -15.35 2.65 -14.95 1.7 L-14.4 0.9 -14.1 0.8 -14.0 0.8 -13.95 0.75 M19.1 -3.75 Q1.4 -17.05 -15.8 -3.45 M-15.8 -2.5 L-15.55 -0.65 M-15.6 1.5 L-14.4 0.9 M19.15 1.5 Q19.7 1.55 20.05 2.45 L20.3 3.2 M20.45 5.45 L20.05 7.05 Q19.65 8.0 19.05 8.0 18.45 8.0 18.05 7.05 17.65 6.1 17.65 4.75 17.65 3.4 18.05 2.45 18.45 1.5 19.05 1.5 L19.15 1.5 Q19.45 3.6 20.45 5.45 M-16.8 -5.45 L-16.75 -5.4 Q-16.1 -4.05 -15.8 -2.5 L-15.8 -0.15 -15.8 1.55 -15.6 1.5" fill="none" stroke="#000000" stroke-linecap="round" stroke-linejoin="round" stroke-opacity="0.6627451" stroke-width="3.5"/>
    </g>
    <g id="sprite1" transform="matrix(1.0, 0.0, 0.0, 1.0, -29.05, -3.1)">
      <use height="18.35" transform="matrix(1.0, 0.0, 0.0, 1.0, 29.05, 3.1)" width="36.25" xlink:href="#shape1"/>
    </g>
    <g id="shape1" transform="matrix(1.0, 0.0, 0.0, 1.0, -29.05, -3.1)">
      <path d="M64.0 14.95 Q64.3 17.05 65.3 18.9 L64.9 20.5 Q64.5 21.45 63.9 21.45 63.3 21.45 62.9 20.5 62.5 19.55 62.5 18.2 62.5 16.85 62.9 15.9 63.3 14.95 63.9 14.95 L64.0 14.95" fill="url(#gradient0)" fill-rule="evenodd" stroke="none"/>
      <path d="M64.0 11.0 L63.85 12.75 63.85 12.95 63.9 13.85 63.95 14.65 62.95 14.15 Q47.75 6.75 30.9 14.2 31.5 14.2 31.9 15.15 32.3 16.1 32.3 17.45 32.3 18.8 31.9 19.75 31.5 20.7 30.9 20.7 30.3 20.7 29.9 19.75 29.5 18.8 29.5 17.45 29.5 16.1 29.9 15.15 30.15 14.6 30.45 14.35 L29.25 14.95 29.3 13.5 29.3 12.8 29.05 10.95 29.05 10.0 Q46.25 -3.6 63.95 9.7 L64.0 11.0" fill="url(#gradient1)" fill-rule="evenodd" stroke="none"/>
    </g>
    <linearGradient gradientTransform="matrix(0.0017, 0.0, 0.0, 0.004, 63.9, 18.2)" gradientUnits="userSpaceOnUse" id="gradient0" spreadMethod="pad" x1="-819.2" x2="819.2">
      <stop offset="0.0" stop-color="#000000"/>
      <stop offset="1.0" stop-color="#ffffff"/>
    </linearGradient>
    <linearGradient gradientTransform="matrix(-0.0023, -0.0096, 0.0104, -0.0025, 45.65, 10.25)" gradientUnits="userSpaceOnUse" id="gradient1" spreadMethod="pad" x1="-819.2" x2="819.2">
      <stop offset="0.0" stop-color="#000000"/>
      <stop offset="1.0" stop-color="#ffffff"/>
    </linearGradient>
  </defs>
</svg>
