<?xml version="1.0" encoding="UTF-8" standalone="no"?>
<svg xmlns:xlink="http://www.w3.org/1999/xlink" height="531.5px" width="460.6px" xmlns="http://www.w3.org/2000/svg">
  <g transform="matrix(1.0, 0.0, 0.0, 1.0, 193.65, 334.05)">
    <use height="30.2" transform="matrix(1.9412, 0.0, 0.0, 1.9412, -80.7936, -177.5615)" width="69.9" xlink:href="#sprite0"/>
  </g>
  <defs>
    <g id="sprite0" transform="matrix(1.0, 0.0, 0.0, 1.0, 34.95, 15.1)">
      <use height="30.2" transform="matrix(1.0, 0.0, 0.0, 1.0, -34.95, -15.1)" width="69.9" xlink:href="#shape0"/>
      <use height="29.2" transform="matrix(1.0, 0.0, 0.0, 1.0, -34.45, -14.6)" width="68.9" xlink:href="#sprite1"/>
    </g>
    <g id="shape0" transform="matrix(1.0, 0.0, 0.0, 1.0, 34.95, 15.1)">
      <path d="M13.95 -14.6 L28.35 -14.6 25.9 -12.65 14.15 -12.65 14.0 -12.65 13.95 -14.6 M-13.55 -14.6 L-1.65 -14.6 -3.25 -12.65 -13.35 -12.65 -13.5 -12.65 -13.55 -14.6 M5.35 -14.6 L6.0 -14.6 6.45 -12.65 3.4 -12.65 5.35 -14.6" fill="#000000" fill-rule="evenodd" stroke="none"/>
      <path d="M34.25 -10.95 Q35.6 -0.45 26.6 -0.1 L24.9 -0.15 23.4 -0.25 26.25 -3.0 34.25 -10.95 M5.9 -3.6 Q4.1 -0.3 -0.9 -0.1 L-2.6 -0.15 Q-5.05 -0.2 -6.9 -0.9 L-5.5 -2.6 -0.8 -8.15 3.4 -12.65 6.45 -12.65 6.7 -11.25 5.7 -10.9 Q4.6 -9.35 5.55 -8.4 5.4 -7.6 5.5 -6.65 L5.9 -3.6 M14.0 -12.6 L14.15 -12.65 25.9 -12.65 Q21.75 -9.15 18.5 -5.4 L18.1 -4.9 17.2 -6.5 15.65 -8.55 Q16.2 -9.5 15.35 -10.9 L14.1 -11.3 14.0 -12.6 M-13.5 -12.6 L-13.35 -12.65 -3.25 -12.65 -7.25 -8.1 -11.0 -4.05 Q-13.25 -7.1 -13.5 -12.6" fill="#324247" fill-opacity="0.33333334" fill-rule="evenodd" stroke="none"/>
      <path d="M12.7 -12.25 L12.6 -14.25 13.95 -14.6 14.0 -12.65 14.0 -12.6 12.7 -12.25 M-14.5 -8.85 L-28.95 -8.2 Q-30.2 -8.05 -30.25 -6.7 L-30.05 -4.5 Q-29.85 -2.85 -31.4 -1.9 -33.0 -1.5 -33.75 -2.75 -34.35 -4.75 -34.45 -7.3 -34.5 -9.55 -32.05 -10.85 -25.4 -12.7 -14.8 -12.95 L-14.9 -14.25 -13.55 -14.6 -13.5 -12.65 -13.5 -12.6 -14.35 -12.35 -13.8 -8.9 -14.5 -8.85 M6.7 -11.25 L12.7 -11.6 14.1 -11.3 15.35 -10.9 Q16.2 -9.5 15.65 -8.55 L15.35 -8.25 14.6 -8.45 13.0 -8.7 6.9 -8.5 5.75 -8.25 5.7 -8.25 5.55 -8.4 Q4.6 -9.35 5.7 -10.9 L6.7 -11.25 M-14.35 -12.35 L-14.45 -12.95 -14.8 -12.95 -14.45 -12.95 -14.35 -12.35" fill="#342f29" fill-rule="evenodd" stroke="none"/>
      <path d="M28.35 -14.6 L33.5 -14.6 33.95 -12.65 25.9 -12.65 28.35 -14.6 M-1.65 -14.6 L5.35 -14.6 3.4 -12.65 -3.25 -12.65 -1.65 -14.6" fill="#544d45" fill-rule="evenodd" stroke="none"/>
      <path d="M15.65 -8.55 L17.2 -6.5 18.1 -4.9 18.2 -4.65 18.5 -1.9 Q18.5 2.4 15.9 3.4 L10.35 3.8 Q8.25 2.5 5.65 3.2 4.4 2.5 4.3 0.95 5.0 0.3 6.25 -0.25 L8.5 -1.6 7.1 -4.3 Q5.85 -6.45 5.75 -8.25 L6.9 -8.5 13.0 -8.7 14.6 -8.45 15.35 -8.25 15.65 -8.55" fill="#ffcbba" fill-rule="evenodd" stroke="none"/>
      <path d="M20.45 -0.45 L20.9 0.65 20.8 2.15 20.5 2.75 Q20.2 3.15 19.65 3.35 L19.7 3.15 19.75 2.85 19.75 2.8 19.45 -0.8 19.25 -1.55 19.45 -0.8 19.75 2.8 19.75 2.85 19.7 3.15 19.65 3.35 19.45 3.75 Q18.95 4.55 17.9 4.75 L17.3 4.8 11.85 5.05 10.35 3.8 15.9 3.4 Q18.5 2.4 18.5 -1.9 L18.2 -4.65 19.25 -1.6 19.25 -1.55 19.7 -1.3 20.45 -0.45 M2.95 3.25 Q1.8 2.1 2.7 0.35 3.5 -0.5 5.05 -1.1 L5.2 -1.2 6.15 -1.55 5.9 -3.6 5.5 -6.65 Q5.4 -7.6 5.55 -8.4 L5.7 -8.25 5.75 -8.25 Q5.85 -6.45 7.1 -4.3 L8.5 -1.6 6.25 -0.25 Q5.0 0.3 4.3 0.95 4.4 2.5 5.65 3.2 4.8 3.4 3.9 3.85 L3.8 3.8 2.95 3.25 M7.55 -1.85 L6.15 -1.55 7.55 -1.85" fill="#deb5a8" fill-rule="evenodd" stroke="none"/>
      <path d="M-0.9 -0.1 L-7.25 -0.5 Q-10.05 -1.3 -11.75 -3.25 L-12.35 -4.05 Q-13.95 -6.4 -14.5 -8.85 L-13.8 -8.9 -14.35 -12.35 -13.5 -12.6 Q-13.25 -7.1 -11.0 -4.05 -9.45 -1.9 -6.9 -0.9 -5.05 -0.2 -2.6 -0.15 L-0.9 -0.1 M12.7 -11.6 L12.7 -12.25 14.0 -12.6 14.1 -11.3 12.7 -11.6" fill="#000000" fill-opacity="0.38039216" fill-rule="evenodd" stroke="none"/>
      <path d="M33.95 -12.65 L34.25 -10.95 26.25 -3.0 23.4 -0.25 Q21.3 -0.5 19.7 -1.3 L19.25 -1.6 18.2 -4.65 18.1 -4.9 18.5 -5.4 Q21.75 -9.15 25.9 -12.65 L33.95 -12.65 M3.4 -12.65 L-0.8 -8.15 -5.5 -2.6 -6.9 -0.9 Q-9.45 -1.9 -11.0 -4.05 L-7.25 -8.1 -3.25 -12.65 3.4 -12.65" fill="#c7d7da" fill-opacity="0.33333334" fill-rule="evenodd" stroke="none"/>
      <path d="M20.5 2.75 L23.55 2.95 27.55 3.65 Q29.55 4.05 30.3 5.65 30.75 6.7 30.75 8.9 30.75 10.85 30.4 11.95 L29.9 12.0 Q28.7 12.0 28.15 11.0 27.6 10.0 26.8 10.0 26.1 10.0 24.9 10.5 L22.9 11.0 Q20.55 11.0 19.0 9.5 17.5 8.0 16.6 8.0 15.85 8.0 14.55 9.8 13.25 11.6 10.0 11.6 7.55 11.6 6.45 10.5 5.35 9.4 3.8 9.4 2.0 9.4 0.45 10.4 -1.15 11.4 -1.7 11.4 L-4.65 10.95 -5.2 10.55 Q-5.1 7.0 -2.9 5.2 -1.0 3.6 2.95 3.25 L3.8 3.8 3.9 3.85 4.05 3.9 9.3 4.9 11.85 5.05 17.3 4.8 17.9 4.75 Q18.95 4.55 19.45 3.75 L19.65 3.35 Q20.2 3.15 20.5 2.75" fill="#7a7a7a" fill-rule="evenodd" stroke="none"/>
      <path d="M30.4 11.95 Q29.9 13.35 28.85 13.35 27.85 13.35 26.9 12.3 25.9 11.2 25.2 11.2 24.9 11.2 23.65 12.1 22.4 13.0 21.55 13.0 20.2 13.0 18.85 12.35 16.65 10.95 14.35 12.0 L12.85 12.95 Q10.85 14.2 8.6 13.95 7.25 13.7 6.15 12.8 L4.9 12.05 Q4.0 11.6 3.2 11.6 2.35 11.6 0.3 13.1 -1.8 14.6 -2.8 14.6 -5.2 14.6 -5.2 10.85 L-5.2 10.55 -4.65 10.95 -1.7 11.4 Q-1.15 11.4 0.45 10.4 2.0 9.4 3.8 9.4 5.35 9.4 6.45 10.5 7.55 11.6 10.0 11.6 13.25 11.6 14.55 9.8 15.85 8.0 16.6 8.0 17.5 8.0 19.0 9.5 20.55 11.0 22.9 11.0 L24.9 10.5 Q26.1 10.0 26.8 10.0 27.6 10.0 28.15 11.0 28.7 12.0 29.9 12.0 L30.4 11.95" fill="#5e5e5e" fill-rule="evenodd" stroke="none"/>
      <path d="M5.65 3.2 Q8.25 2.5 10.35 3.8 L11.85 5.05 9.3 4.9 4.05 3.9 3.9 3.85 Q4.8 3.4 5.65 3.2" fill="#ffbda8" fill-rule="evenodd" stroke="none"/>
      <path d="M12.7 -12.25 L12.6 -14.25 13.95 -14.6 28.35 -14.6 33.5 -14.6 33.95 -12.65 34.25 -10.95 Q35.6 -0.45 26.6 -0.1 L23.15 -0.05 20.45 -0.45 20.9 0.65 20.8 2.15 20.5 2.75 23.55 2.95 27.55 3.65 Q29.55 4.05 30.3 5.65 30.75 6.7 30.75 8.9 30.75 10.85 30.4 11.95 29.9 13.35 28.85 13.35 27.85 13.35 26.9 12.3 25.9 11.2 25.2 11.2 24.9 11.2 23.65 12.1 22.4 13.0 21.55 13.0 20.2 13.0 18.85 12.35 16.65 10.95 14.35 12.0 L12.85 12.95 Q10.85 14.2 8.6 13.95 7.25 13.7 6.15 12.8 L4.9 12.05 Q4.0 11.6 3.2 11.6 2.35 11.6 0.3 13.1 -1.8 14.6 -2.8 14.6 -5.2 14.6 -5.2 10.85 L-5.2 10.55 Q-5.1 7.0 -2.9 5.2 -1.0 3.6 2.95 3.25 1.8 2.1 2.7 0.35 3.5 -0.5 5.05 -1.1 M5.2 -1.2 L6.15 -1.55 5.9 -3.6 Q4.1 -0.3 -0.9 -0.1 L-7.25 -0.5 Q-10.05 -1.3 -11.75 -3.25 L-12.35 -4.05 Q-13.95 -6.4 -14.5 -8.85 L-28.95 -8.2 Q-30.2 -8.05 -30.25 -6.7 L-30.05 -4.5 Q-29.85 -2.85 -31.4 -1.9 -33.0 -1.5 -33.75 -2.75 -34.35 -4.75 -34.45 -7.3 -34.5 -9.55 -32.05 -10.85 -25.4 -12.7 -14.8 -12.95 L-14.9 -14.25 -13.55 -14.6 -1.65 -14.6 5.35 -14.6 6.0 -14.6 6.45 -12.65 6.7 -11.25 12.7 -11.6 12.7 -12.25 14.0 -12.6 14.0 -12.65 13.95 -14.6 M14.15 -12.65 L14.0 -12.6 14.1 -11.3 15.35 -10.9 Q16.2 -9.5 15.65 -8.55 L17.2 -6.5 18.1 -4.9 18.2 -4.65 19.25 -1.6 19.25 -1.55 19.7 -1.3 Q21.3 -0.5 23.4 -0.25 L24.9 -0.15 26.6 -0.1 M25.9 -12.65 L14.15 -12.65 14.0 -12.65 M6.45 -12.65 L3.4 -12.65 -3.25 -12.65 -13.35 -12.65 -13.5 -12.65 -13.55 -14.6 M-6.9 -0.9 Q-5.05 -0.2 -2.6 -0.15 L-0.9 -0.1 M15.65 -8.55 L15.35 -8.25 14.6 -8.45 13.0 -8.7 6.9 -8.5 5.75 -8.25 5.7 -8.25 5.55 -8.4 Q4.6 -9.35 5.7 -10.9 L6.7 -11.25 M5.65 3.2 Q8.25 2.5 10.35 3.8 L11.85 5.05 9.3 4.9 4.05 3.9 3.9 3.85 3.8 3.8 2.95 3.25 M5.55 -8.4 Q5.4 -7.6 5.5 -6.65 L5.9 -3.6 M6.15 -1.55 L7.55 -1.85 M12.7 -11.6 L14.1 -11.3 M19.7 -1.3 L19.25 -1.6 M19.25 -1.55 L19.45 -0.8 19.75 2.8 19.75 2.85 19.7 3.15 19.65 3.35 Q20.2 3.15 20.5 2.75 M25.9 -12.65 L33.95 -12.65 M19.7 -1.3 L20.45 -0.45 M19.65 3.35 L19.45 3.75 Q18.95 4.55 17.9 4.75 L17.3 4.8 11.85 5.05 M3.9 3.85 Q4.8 3.4 5.65 3.2 M-13.5 -12.6 L-13.5 -12.65 M-14.8 -12.95 L-14.45 -12.95 -14.35 -12.35 -13.5 -12.6 -13.35 -12.65 M-14.35 -12.35 L-13.8 -8.9 -14.5 -8.85 M-13.5 -12.6 Q-13.25 -7.1 -11.0 -4.05 -9.45 -1.9 -6.9 -0.9" fill="none" stroke="#000000" stroke-linecap="round" stroke-linejoin="round" stroke-opacity="0.6627451" stroke-width="1.0"/>
    </g>
    <g id="sprite1" transform="matrix(1.0, 0.0, 0.0, 1.0, 34.45, 14.6)">
      <use height="29.2" transform="matrix(1.0, 0.0, 0.0, 1.0, -34.45, -14.6)" width="68.9" xlink:href="#shape1"/>
    </g>
    <g id="shape1" transform="matrix(1.0, 0.0, 0.0, 1.0, 34.45, 14.6)">
      <path d="M-13.55 -14.6 L6.0 -14.6 6.45 -12.65 -13.35 -12.65 -13.5 -12.65 -13.55 -14.6" fill="url(#gradient0)" fill-rule="evenodd" stroke="none"/>
      <path d="M14.15 -12.65 L14.0 -12.65 13.95 -14.6 33.5 -14.6 33.95 -12.65 14.15 -12.65" fill="url(#gradient1)" fill-rule="evenodd" stroke="none"/>
      <path d="M14.1 -11.3 L15.35 -10.9 Q16.2 -9.5 15.65 -8.55 L15.35 -8.25 14.6 -8.45 13.0 -8.7 6.9 -8.5 5.75 -8.25 5.7 -8.25 5.55 -8.4 Q4.6 -9.35 5.7 -10.9 L6.7 -11.25 12.7 -11.6 14.1 -11.3" fill="url(#gradient2)" fill-rule="evenodd" stroke="none"/>
      <path d="M-14.5 -8.85 L-28.95 -8.2 Q-30.2 -8.05 -30.25 -6.7 L-30.05 -4.5 Q-29.85 -2.85 -31.4 -1.9 -33.0 -1.5 -33.75 -2.75 -34.35 -4.75 -34.45 -7.3 -34.5 -9.55 -32.05 -10.85 -25.4 -12.7 -14.8 -12.95 L-14.9 -14.25 -13.55 -14.6 -13.5 -12.65 -13.5 -12.6 -14.35 -12.35 -13.8 -8.9 -14.5 -8.85" fill="url(#gradient3)" fill-rule="evenodd" stroke="none"/>
      <path d="M-14.5 -8.85 L-13.8 -8.9 -14.35 -12.35 -13.5 -12.6 Q-13.25 -7.1 -11.0 -4.05 -9.45 -1.9 -6.9 -0.9 -5.05 -0.2 -2.6 -0.15 L-0.9 -0.1 -7.25 -0.5 Q-10.05 -1.3 -11.75 -3.25 L-12.35 -4.05 Q-13.95 -6.4 -14.5 -8.85" fill="url(#gradient4)" fill-rule="evenodd" stroke="none"/>
      <path d="M14.0 -12.65 L14.0 -12.6 12.7 -12.25 12.6 -14.25 13.95 -14.6 14.0 -12.65" fill="url(#gradient5)" fill-rule="evenodd" stroke="none"/>
      <path d="M12.7 -12.25 L14.0 -12.6 14.1 -11.3 12.7 -11.6 12.7 -12.25" fill="url(#gradient6)" fill-rule="evenodd" stroke="none"/>
      <path d="M15.65 -8.55 L17.2 -6.5 18.1 -4.9 18.2 -4.65 19.25 -1.6 19.25 -1.55 19.7 -1.3 20.45 -0.45 20.9 0.65 20.8 2.15 20.5 2.75 Q20.2 3.15 19.65 3.35 L19.45 3.75 Q18.95 4.55 17.9 4.75 L17.3 4.8 11.85 5.05 9.3 4.9 4.05 3.9 3.9 3.85 3.8 3.8 2.95 3.25 Q1.8 2.1 2.7 0.35 3.5 -0.5 5.05 -1.1 L5.2 -1.2 6.15 -1.55 5.9 -3.6 5.5 -6.65 Q5.4 -7.6 5.55 -8.4 L5.7 -8.25 5.75 -8.25 6.9 -8.5 13.0 -8.7 14.6 -8.45 15.35 -8.25 15.65 -8.55" fill="url(#gradient7)" fill-rule="evenodd" stroke="none"/>
      <path d="M6.45 -12.65 L6.7 -11.25 5.7 -10.9 Q4.6 -9.35 5.55 -8.4 5.4 -7.6 5.5 -6.65 L5.9 -3.6 Q4.1 -0.3 -0.9 -0.1 L-2.6 -0.15 Q-5.05 -0.2 -6.9 -0.9 -9.45 -1.9 -11.0 -4.05 -13.25 -7.1 -13.5 -12.6 L-13.35 -12.65 6.45 -12.65" fill="url(#gradient8)" fill-rule="evenodd" stroke="none"/>
      <path d="M14.0 -12.6 L14.15 -12.65 33.95 -12.65 34.25 -10.95 Q35.6 -0.45 26.6 -0.1 L24.9 -0.15 23.4 -0.25 Q21.3 -0.5 19.7 -1.3 L19.25 -1.6 18.2 -4.65 18.1 -4.9 17.2 -6.5 15.65 -8.55 Q16.2 -9.5 15.35 -10.9 L14.1 -11.3 14.0 -12.6" fill="url(#gradient9)" fill-rule="evenodd" stroke="none"/>
      <path d="M2.95 3.25 L3.8 3.8 3.9 3.85 4.05 3.9 9.3 4.9 11.85 5.05 17.3 4.8 17.9 4.75 Q18.95 4.55 19.45 3.75 L19.65 3.35 Q20.2 3.15 20.5 2.75 L23.55 2.95 27.55 3.65 Q29.55 4.05 30.3 5.65 30.75 6.7 30.75 8.9 30.75 10.85 30.4 11.95 29.9 13.35 28.85 13.35 27.85 13.35 26.9 12.3 25.9 11.2 25.2 11.2 24.9 11.2 23.65 12.1 22.4 13.0 21.55 13.0 20.2 13.0 18.85 12.35 16.65 10.95 14.35 12.0 L12.85 12.95 Q10.85 14.2 8.6 13.95 7.25 13.7 6.15 12.8 L4.9 12.05 Q4.0 11.6 3.2 11.6 2.35 11.6 0.3 13.1 -1.8 14.6 -2.8 14.6 -5.2 14.6 -5.2 10.85 L-5.2 10.55 Q-5.1 7.0 -2.9 5.2 -1.0 3.6 2.95 3.25" fill="url(#gradient10)" fill-rule="evenodd" stroke="none"/>
    </g>
    <linearGradient gradientTransform="matrix(-0.0032, -0.0118, 0.0011, -3.0E-4, -3.55, -13.65)" gradientUnits="userSpaceOnUse" id="gradient0" spreadMethod="pad" x1="-819.2" x2="819.2">
      <stop offset="0.0" stop-color="#000000"/>
      <stop offset="1.0" stop-color="#ffffff"/>
    </linearGradient>
    <linearGradient gradientTransform="matrix(-0.0032, -0.0118, 0.0012, -3.0E-4, 24.0, -13.6)" gradientUnits="userSpaceOnUse" id="gradient1" spreadMethod="pad" x1="-819.2" x2="819.2">
      <stop offset="0.0" stop-color="#000000"/>
      <stop offset="1.0" stop-color="#ffffff"/>
    </linearGradient>
    <linearGradient gradientTransform="matrix(-0.0063, -0.0108, 0.0019, -0.0011, 10.5, -10.0)" gradientUnits="userSpaceOnUse" id="gradient2" spreadMethod="pad" x1="-819.2" x2="819.2">
      <stop offset="0.0" stop-color="#000000"/>
      <stop offset="1.0" stop-color="#ffffff"/>
    </linearGradient>
    <linearGradient gradientTransform="matrix(0.0033, -0.0123, 0.0076, 0.002, -24.0, -8.2)" gradientUnits="userSpaceOnUse" id="gradient3" spreadMethod="pad" x1="-819.2" x2="819.2">
      <stop offset="0.0" stop-color="#000000"/>
      <stop offset="1.0" stop-color="#ffffff"/>
    </linearGradient>
    <linearGradient gradientTransform="matrix(-0.0065, -0.0159, 0.0071, -0.0029, -7.7, -6.3)" gradientUnits="userSpaceOnUse" id="gradient4" spreadMethod="pad" x1="-819.2" x2="819.2">
      <stop offset="0.0" stop-color="#000000"/>
      <stop offset="1.0" stop-color="#ffffff"/>
    </linearGradient>
    <linearGradient gradientTransform="matrix(-0.0023, -0.0089, 0.0014, -4.0E-4, 13.25, -13.35)" gradientUnits="userSpaceOnUse" id="gradient5" spreadMethod="pad" x1="-819.2" x2="819.2">
      <stop offset="0.0" stop-color="#000000"/>
      <stop offset="1.0" stop-color="#ffffff"/>
    </linearGradient>
    <linearGradient gradientTransform="matrix(0.0073, 0.0, 0.0, 8.0E-4, 13.4, -11.95)" gradientUnits="userSpaceOnUse" id="gradient6" spreadMethod="pad" x1="-819.2" x2="819.2">
      <stop offset="0.0" stop-color="#000000"/>
      <stop offset="1.0" stop-color="#ffffff"/>
    </linearGradient>
    <linearGradient gradientTransform="matrix(-0.0167, -0.0289, 0.0074, -0.0043, 9.75, -4.05)" gradientUnits="userSpaceOnUse" id="gradient7" spreadMethod="pad" x1="-819.2" x2="819.2">
      <stop offset="0.0" stop-color="#000000"/>
      <stop offset="1.0" stop-color="#ffffff"/>
    </linearGradient>
    <linearGradient gradientTransform="matrix(-0.0151, -0.0151, 0.0054, -0.0054, -8.7, -10.9)" gradientUnits="userSpaceOnUse" id="gradient8" spreadMethod="pad" x1="-819.2" x2="819.2">
      <stop offset="0.0" stop-color="#000000"/>
      <stop offset="1.0" stop-color="#ffffff"/>
    </linearGradient>
    <linearGradient gradientTransform="matrix(-0.005, -0.0186, 0.0074, -0.002, 20.55, -14.2)" gradientUnits="userSpaceOnUse" id="gradient9" spreadMethod="pad" x1="-819.2" x2="819.2">
      <stop offset="0.0" stop-color="#000000"/>
      <stop offset="1.0" stop-color="#ffffff"/>
    </linearGradient>
    <linearGradient gradientTransform="matrix(0.0, -0.0339, 0.0072, 0.0, 11.0, 1.2)" gradientUnits="userSpaceOnUse" id="gradient10" spreadMethod="pad" x1="-819.2" x2="819.2">
      <stop offset="0.0" stop-color="#000000"/>
      <stop offset="1.0" stop-color="#ffffff"/>
    </linearGradient>
  </defs>
</svg>
