<?xml version="1.0" encoding="UTF-8" standalone="no"?>
<svg xmlns:xlink="http://www.w3.org/1999/xlink" height="531.5px" width="460.6px" xmlns="http://www.w3.org/2000/svg">
  <g transform="matrix(1.0, 0.0, 0.0, 1.0, 193.65, 334.05)">
    <use height="18.3" transform="matrix(1.9412, 0.0, 0.0, 1.9412, 6.2794, -37.1206)" width="25.55" xlink:href="#sprite0"/>
  </g>
  <defs>
    <g id="sprite0" transform="matrix(1.0, 0.0, 0.0, 1.0, 0.5, 0.5)">
      <use height="18.3" transform="matrix(1.0, 0.0, 0.0, 1.0, -0.5, -0.5)" width="25.55" xlink:href="#shape0"/>
      <use height="17.3" transform="matrix(1.0, 0.0, 0.0, 1.0, 0.0, 0.0)" width="24.55" xlink:href="#sprite1"/>
    </g>
    <g id="shape0" transform="matrix(1.0, 0.0, 0.0, 1.0, 0.5, 0.5)">
      <path d="M21.2 5.6 L21.05 5.3 20.95 5.2 Q20.75 4.95 20.8 5.35 L20.75 5.8 20.75 5.85 Q20.1 5.9 19.6 6.25 L19.55 5.85 19.3 5.6 19.1 5.55 Q19.0 5.45 18.95 5.7 L19.15 6.15 19.2 6.35 18.9 6.45 13.65 7.0 7.3 6.0 Q5.5 5.3 4.65 4.75 L4.8 4.55 4.9 4.25 4.9 3.95 Q4.75 3.75 4.65 3.95 4.45 3.95 4.35 4.3 4.05 4.2 4.1 4.45 3.45 3.7 3.5 3.15 4.2 1.6 5.55 1.3 8.95 -0.35 12.8 0.1 16.5 0.4 20.35 2.8 21.45 3.7 21.85 4.85 L21.9 5.15 Q21.5 5.2 21.2 5.6 M2.75 15.55 L2.75 15.4 3.9 15.3 4.75 15.15 Q4.65 15.4 4.95 15.85 L2.75 15.55 M21.6 14.0 Q20.5 15.3 16.85 15.6 L14.35 15.8 14.25 14.95 14.2 14.85 14.65 14.8 17.25 14.4 Q17.75 14.0 18.35 13.95 L18.5 13.95 18.65 13.95 Q18.8 13.8 19.2 13.95 L19.2 13.9 19.4 13.95 19.85 13.95 21.05 13.95 21.6 14.0 M10.95 16.05 L8.5 16.15 6.3 16.0 6.65 14.9 8.45 15.4 8.65 15.2 Q8.8 14.9 9.1 15.05 L11.0 15.0 Q10.75 15.6 11.0 16.05 L10.95 16.05 M11.65 4.9 L11.5 4.7 Q11.35 4.6 11.35 4.8 11.0 4.85 11.1 5.2 10.9 5.25 11.1 5.6 L11.25 5.8 11.45 5.75 11.6 5.35 Q11.55 5.0 11.65 4.9 M12.0 1.35 Q11.7 1.3 11.7 1.65 11.5 1.8 11.6 2.05 L11.7 2.2 11.9 2.2 12.25 1.95 12.3 1.65 12.2 1.35 Q12.1 1.2 12.0 1.35 M14.35 2.95 Q14.35 2.65 14.5 2.6 14.35 2.2 14.5 2.1 L14.25 1.95 Q14.05 1.8 14.0 2.05 L13.9 2.5 13.95 2.9 14.2 3.0 Q14.1 2.9 14.35 2.95 M16.35 5.05 L16.4 5.55 16.65 5.85 16.85 5.9 16.95 5.75 16.95 5.4 16.75 5.0 16.65 4.9 Q16.4 4.8 16.35 5.05 M18.6 2.8 L18.4 2.65 Q18.3 2.6 18.3 2.9 18.2 2.9 18.25 3.25 L18.45 3.7 18.7 3.75 18.85 3.55 18.85 3.2 18.6 2.8 M7.75 6.05 L7.95 6.1 8.2 5.8 8.4 5.45 8.35 5.15 7.95 5.2 7.7 5.55 Q7.5 5.5 7.65 5.85 L7.75 6.05 M8.0 2.65 Q7.7 2.55 7.75 2.95 7.5 3.0 7.65 3.35 L7.8 3.5 7.95 3.5 8.3 3.2 8.35 2.9 8.3 2.65 Q8.1 2.45 8.0 2.65 M5.65 13.8 L11.25 13.95 3.4 13.95 2.95 13.8 4.25 13.8 5.65 13.8" fill="#ffba66" fill-rule="evenodd" stroke="none"/>
      <path d="M20.75 5.85 L20.75 5.8 20.8 5.35 Q20.75 4.95 20.95 5.2 L21.05 5.3 21.2 5.6 21.25 5.65 21.15 6.1 21.05 6.15 Q20.95 5.95 20.9 6.15 L20.75 5.85 M4.1 4.45 Q4.05 4.2 4.35 4.3 4.45 3.95 4.65 3.95 4.75 3.75 4.9 3.95 L4.9 4.25 4.8 4.55 4.65 4.75 4.55 4.85 4.3 4.85 4.05 4.65 4.1 4.45 M19.2 6.35 L19.15 6.15 18.95 5.7 Q19.0 5.45 19.1 5.55 L19.3 5.6 19.55 5.85 19.6 6.25 19.6 6.3 Q19.45 6.35 19.6 6.4 L19.3 6.45 19.2 6.35 M18.6 2.8 L18.85 3.2 18.85 3.55 18.7 3.75 18.45 3.7 18.25 3.25 Q18.2 2.9 18.3 2.9 18.3 2.6 18.4 2.65 L18.6 2.8 M16.35 5.05 Q16.4 4.8 16.65 4.9 L16.75 5.0 16.95 5.4 16.95 5.75 16.85 5.9 16.65 5.85 16.4 5.55 16.35 5.05 M14.35 2.95 Q14.1 2.9 14.2 3.0 L13.95 2.9 13.9 2.5 14.0 2.05 Q14.05 1.8 14.25 1.95 L14.5 2.1 Q14.35 2.2 14.5 2.6 14.35 2.65 14.35 2.95 M12.0 1.35 Q12.1 1.2 12.2 1.35 L12.3 1.65 12.25 1.95 11.9 2.2 11.7 2.2 11.6 2.05 Q11.5 1.8 11.7 1.65 11.7 1.3 12.0 1.35 M11.65 4.9 Q11.55 5.0 11.6 5.35 L11.45 5.75 11.25 5.8 11.1 5.6 Q10.9 5.25 11.1 5.2 11.0 4.85 11.35 4.8 11.35 4.6 11.5 4.7 L11.65 4.9 M8.0 2.65 Q8.1 2.45 8.3 2.65 L8.35 2.9 8.3 3.2 7.95 3.5 7.8 3.5 7.65 3.35 Q7.5 3.0 7.75 2.95 7.7 2.55 8.0 2.65 M7.75 6.05 L7.65 5.85 Q7.5 5.5 7.7 5.55 L7.95 5.2 8.35 5.15 8.4 5.45 8.2 5.8 7.95 6.1 7.75 6.05" fill="#fef5d6" fill-rule="evenodd" stroke="none"/>
      <path d="M21.2 5.6 Q21.5 5.2 21.9 5.15 22.1 5.85 22.1 7.9 L22.0 9.05 21.95 9.35 18.65 9.2 14.9 9.15 13.65 9.1 10.75 8.9 2.65 8.6 2.65 7.9 Q2.4 4.8 3.4 3.4 L3.5 3.15 Q3.45 3.7 4.1 4.45 L4.05 4.65 4.3 4.85 4.55 4.85 4.65 4.75 Q5.5 5.3 7.3 6.0 L13.65 7.0 18.9 6.45 19.2 6.35 19.3 6.45 19.6 6.4 Q19.45 6.35 19.6 6.3 L19.6 6.25 Q20.1 5.9 20.75 5.85 L20.9 6.15 Q20.95 5.95 21.05 6.15 L21.15 6.1 21.25 5.65 21.2 5.6 M22.4 12.8 L23.0 12.85 Q23.15 12.8 23.4 13.1 L23.5 13.8 Q23.35 13.9 23.5 14.15 L23.75 14.65 Q23.65 14.65 23.45 14.9 23.25 14.9 23.3 15.05 22.7 14.85 22.35 14.45 L22.25 14.35 22.0 16.4 Q21.85 17.0 21.05 17.3 L3.95 17.25 Q2.85 16.85 2.75 16.25 L2.75 15.55 4.95 15.85 Q5.1 16.2 5.9 16.2 L6.3 16.0 8.5 16.15 10.95 16.05 11.1 16.15 12.1 16.1 13.3 16.05 Q13.4 15.85 13.6 16.15 13.7 16.05 13.85 16.3 14.25 16.25 14.35 15.85 L14.35 15.8 16.85 15.6 Q20.5 15.3 21.6 14.0 L21.9 14.0 22.25 14.35 21.9 14.0 21.6 14.0 21.05 13.95 21.6 13.8 Q21.45 13.7 21.8 13.7 L22.4 12.8 M22.25 14.35 L22.25 14.0 21.9 14.0 22.25 14.0 22.25 14.35" fill="#dea158" fill-rule="evenodd" stroke="none"/>
      <path d="M24.0 8.4 L24.0 8.75 23.75 8.8 23.5 8.7 22.35 9.0 22.0 9.05 22.1 7.9 23.8 8.35 Q23.9 8.2 24.0 8.4 M18.65 9.2 L19.2 9.8 19.3 9.9 19.3 9.95 18.35 10.05 17.65 10.1 17.05 10.25 16.6 10.3 15.35 9.45 14.9 9.15 18.65 9.2 M1.65 7.75 Q1.55 7.6 1.8 7.7 L2.65 7.9 2.65 8.6 10.75 8.9 Q10.5 8.95 10.5 9.15 9.55 9.8 8.45 9.85 L6.55 9.6 5.3 9.25 3.95 9.4 3.2 9.3 Q2.65 9.1 2.5 9.55 L2.35 9.75 1.85 9.7 1.45 9.4 Q1.7 8.4 1.85 8.15 L1.65 7.75" fill="#63c450" fill-rule="evenodd" stroke="none"/>
      <path d="M22.0 9.05 L22.35 9.0 23.5 8.7 23.75 8.8 24.0 8.75 24.0 8.4 Q24.65 8.55 24.55 9.15 24.5 9.6 23.35 9.7 L22.8 9.55 22.0 9.9 19.8 10.1 19.45 9.95 Q19.2 9.65 19.2 9.8 L18.65 9.2 21.95 9.35 22.0 9.05 M2.35 11.05 L2.15 11.1 Q1.55 11.05 1.4 10.8 1.15 10.45 1.25 10.25 -0.05 10.0 0.0 9.4 -0.05 8.6 0.85 8.65 L0.55 8.35 Q0.5 8.1 1.0 8.0 1.25 7.75 1.65 7.75 L1.85 8.15 Q1.7 8.4 1.45 9.4 L1.85 9.7 2.35 9.75 2.5 9.55 Q2.65 9.1 3.2 9.3 L3.95 9.4 5.3 9.25 6.55 9.6 8.45 9.85 Q9.55 9.8 10.5 9.15 10.5 8.95 10.75 8.9 L13.65 9.1 14.9 9.15 15.35 9.45 16.6 10.3 17.05 10.25 17.65 10.1 18.35 10.05 19.3 9.95 19.3 9.9 19.6 10.15 19.6 10.25 19.15 10.6 18.35 10.85 Q18.25 10.7 18.3 10.85 L17.6 10.65 17.3 10.6 17.25 10.95 16.95 11.1 Q16.3 11.05 15.6 10.5 L15.15 10.2 14.75 9.75 14.1 9.85 13.45 9.4 12.9 9.65 11.5 10.0 Q10.95 9.9 11.25 10.1 L11.15 10.1 10.4 10.0 9.85 10.05 8.65 10.15 8.3 10.1 7.8 10.0 6.85 9.85 6.45 9.9 6.3 9.9 5.7 10.05 5.0 10.35 3.9 10.1 3.45 9.85 3.05 9.7 3.05 9.85 2.9 10.4 2.35 11.05 M13.45 9.4 L13.65 9.1 13.45 9.4" fill="#87fd68" fill-rule="evenodd" stroke="none"/>
      <path d="M20.75 11.55 L18.15 11.55 18.35 10.85 19.15 10.6 19.6 10.25 20.85 10.25 20.9 10.5 Q20.7 11.05 20.75 11.55 M8.0 11.35 L6.3 11.3 6.45 10.45 6.45 9.95 7.8 10.0 8.3 10.1 Q8.0 10.65 8.0 11.35" fill="#fe8989" fill-rule="evenodd" stroke="none"/>
      <path d="M20.85 10.25 L22.25 10.35 Q22.65 10.95 22.15 11.65 L22.1 11.6 21.5 11.6 20.75 11.55 Q20.7 11.05 20.9 10.5 L20.85 10.25 M3.1 11.3 L2.5 11.2 2.35 11.05 2.9 10.4 3.05 9.85 3.45 9.85 3.9 10.1 5.0 10.35 5.7 10.05 6.3 9.9 6.45 9.95 6.45 10.45 6.3 11.3 3.55 11.35 3.1 11.3 M18.15 11.55 L15.9 11.6 14.85 11.5 13.3 11.5 13.3 11.4 Q12.9 10.65 13.5 10.15 L15.15 10.2 15.6 10.5 Q16.3 11.05 16.95 11.1 L17.25 10.95 17.3 10.6 17.6 10.65 18.3 10.85 Q18.25 10.7 18.35 10.85 L18.15 11.55 M11.95 11.4 L8.0 11.35 Q8.0 10.65 8.3 10.1 L8.65 10.15 9.85 10.05 11.15 10.1 11.25 10.1 12.0 10.1 Q12.45 10.5 11.95 11.4" fill="#ff0000" fill-rule="evenodd" stroke="none"/>
      <path d="M22.3 12.0 L22.35 12.45 22.4 12.8 21.8 13.7 Q21.45 13.7 21.6 13.8 L21.05 13.95 19.85 13.95 19.4 13.95 19.2 13.9 Q19.15 13.1 18.9 13.15 L18.8 12.95 Q18.4 12.9 18.4 13.15 L18.4 12.95 Q18.15 12.9 17.95 13.25 L17.7 13.9 11.25 13.95 5.65 13.8 Q5.5 13.25 5.0 13.2 L4.75 12.85 4.7 12.5 4.4 12.45 4.2 12.75 Q3.8 12.75 4.0 13.0 L3.85 12.95 Q3.7 13.3 4.25 13.8 L2.95 13.8 2.5 13.65 2.5 13.55 Q2.0 13.2 2.35 13.05 1.65 12.6 1.95 12.25 2.2 11.8 3.1 11.3 L3.55 11.35 6.3 11.3 8.0 11.35 11.95 11.4 13.3 11.4 13.3 11.5 14.85 11.5 14.55 11.9 14.45 12.15 14.5 12.45 Q14.25 12.85 15.6 13.05 L15.75 12.9 Q15.9 12.65 16.15 12.7 L16.15 12.55 15.95 12.5 15.6 12.6 15.2 12.5 15.2 12.35 15.8 12.2 15.9 11.6 18.15 11.55 20.75 11.55 21.5 11.6 21.25 12.8 22.3 12.0 M9.2 12.4 L9.7 12.6 9.75 13.15 9.75 13.2 10.4 12.6 10.4 12.5 10.15 12.5 Q10.05 12.3 10.25 12.25 L8.75 12.15 8.9 12.4 9.2 12.4" fill="#470000" fill-rule="evenodd" stroke="none"/>
      <path d="M22.15 11.65 L22.3 12.0 21.25 12.8 21.5 11.6 22.1 11.6 22.15 11.65 M15.9 11.6 L15.8 12.2 15.2 12.35 15.2 12.5 15.6 12.6 15.95 12.5 16.15 12.55 16.15 12.7 Q15.9 12.65 15.75 12.9 L15.6 13.05 Q14.25 12.85 14.5 12.45 L14.45 12.15 14.55 11.9 14.85 11.5 15.9 11.6 M19.2 13.9 L19.2 13.95 Q18.8 13.8 18.65 13.95 L18.5 13.95 18.35 13.95 17.7 13.9 17.95 13.25 Q18.15 12.9 18.4 12.95 L18.4 13.15 Q18.4 12.9 18.8 12.95 L18.9 13.15 Q19.15 13.1 19.2 13.9 M9.2 12.4 L8.9 12.4 8.75 12.15 10.25 12.25 Q10.05 12.3 10.15 12.5 L10.4 12.5 10.4 12.6 9.75 13.2 9.75 13.15 9.7 12.6 9.2 12.4 M4.25 13.8 Q3.7 13.3 3.85 12.95 L4.0 13.0 Q3.8 12.75 4.2 12.75 L4.4 12.45 4.7 12.5 4.75 12.85 5.0 13.2 Q5.5 13.25 5.65 13.8 L4.25 13.8" fill="#2e0000" fill-rule="evenodd" stroke="none"/>
      <path d="M13.3 11.4 L11.95 11.4 Q12.45 10.5 12.0 10.1 L11.25 10.1 Q10.95 9.9 11.5 10.0 L12.9 9.65 13.45 9.4 14.1 9.85 14.75 9.75 15.15 10.2 13.5 10.15 Q12.9 10.65 13.3 11.4" fill="#4a4a4a" fill-rule="evenodd" stroke="none"/>
      <path d="M2.75 15.4 L1.5 15.5 1.05 15.35 Q0.95 14.8 1.5 14.5 L1.95 14.1 3.4 14.5 5.9 14.7 7.05 14.55 9.8 14.35 12.8 14.75 13.65 14.9 11.1 15.0 11.0 15.0 9.1 15.05 Q8.8 14.9 8.65 15.2 L8.45 15.4 6.65 14.9 6.3 16.0 5.9 16.2 Q5.1 16.2 4.95 15.85 4.65 15.4 4.75 15.15 L3.9 15.3 2.75 15.4 M4.75 15.15 L6.65 14.9 4.75 15.15" fill="#fbdd6a" fill-rule="evenodd" stroke="none"/>
      <path d="M1.95 14.1 L2.5 13.65 2.95 13.8 3.4 13.95 11.25 13.95 17.7 13.9 18.35 13.95 Q17.75 14.0 17.25 14.4 L14.65 14.8 14.2 14.85 13.65 14.9 12.8 14.75 9.8 14.35 7.05 14.55 5.9 14.7 3.4 14.5 1.95 14.1" fill="#e3c75f" fill-rule="evenodd" stroke="none"/>
      <path d="M14.35 15.8 L14.35 15.85 Q14.25 16.25 13.85 16.3 13.7 16.05 13.6 16.15 13.4 15.85 13.3 16.05 L12.1 16.1 11.1 16.15 10.95 16.05 11.0 16.05 Q10.75 15.6 11.0 15.0 L11.1 15.0 13.65 14.9 14.2 14.85 14.25 14.95 14.35 15.8" fill="#cc0000" fill-rule="evenodd" stroke="none"/>
      <path d="M20.75 5.85 L20.75 5.8 20.8 5.35 Q20.75 4.95 20.95 5.2 L21.05 5.3 21.2 5.6 21.25 5.65 21.15 6.1 21.05 6.15 Q20.95 5.95 20.9 6.15 L20.75 5.85 M4.1 4.45 Q4.05 4.2 4.35 4.3 4.45 3.95 4.65 3.95 4.75 3.75 4.9 3.95 L4.9 4.25 4.8 4.55 4.65 4.75 4.55 4.85 4.3 4.85 4.05 4.65 4.1 4.45 M19.2 6.35 L19.15 6.15 18.95 5.7 Q19.0 5.45 19.1 5.55 L19.3 5.6 19.55 5.85 19.6 6.25 19.6 6.3 Q19.45 6.35 19.6 6.4 L19.3 6.45 19.2 6.35 M18.6 2.8 L18.85 3.2 18.85 3.55 18.7 3.75 18.45 3.7 18.25 3.25 Q18.2 2.9 18.3 2.9 18.3 2.6 18.4 2.65 L18.6 2.8 M16.35 5.05 Q16.4 4.8 16.65 4.9 L16.75 5.0 16.95 5.4 16.95 5.75 16.85 5.9 16.65 5.85 16.4 5.55 16.35 5.05 M14.35 2.95 Q14.1 2.9 14.2 3.0 L13.95 2.9 13.9 2.5 14.0 2.05 Q14.05 1.8 14.25 1.95 L14.5 2.1 Q14.35 2.2 14.5 2.6 14.35 2.65 14.35 2.95 M12.0 1.35 Q12.1 1.2 12.2 1.35 L12.3 1.65 12.25 1.95 11.9 2.2 11.7 2.2 11.6 2.05 Q11.5 1.8 11.7 1.65 11.7 1.3 12.0 1.35 M11.65 4.9 Q11.55 5.0 11.6 5.35 L11.45 5.75 11.25 5.8 11.1 5.6 Q10.9 5.25 11.1 5.2 11.0 4.85 11.35 4.8 11.35 4.6 11.5 4.7 L11.65 4.9 M8.0 2.65 Q8.1 2.45 8.3 2.65 L8.35 2.9 8.3 3.2 7.95 3.5 7.8 3.5 7.65 3.35 Q7.5 3.0 7.75 2.95 7.7 2.55 8.0 2.65 M7.75 6.05 L7.65 5.85 Q7.5 5.5 7.7 5.55 L7.95 5.2 8.35 5.15 8.4 5.45 8.2 5.8 7.95 6.1 7.75 6.05" fill="none" stroke="#000000" stroke-linecap="round" stroke-linejoin="round" stroke-opacity="0.6627451" stroke-width="0.5"/>
      <path d="M21.9 5.15 L21.85 4.85 Q21.45 3.7 20.35 2.8 16.5 0.4 12.8 0.1 8.95 -0.35 5.55 1.3 4.2 1.6 3.5 3.15 L3.4 3.4 Q2.4 4.8 2.65 7.9 L1.8 7.7 Q1.55 7.6 1.65 7.75 1.25 7.75 1.0 8.0 0.5 8.1 0.55 8.35 L0.85 8.65 Q-0.05 8.6 0.0 9.4 -0.05 10.0 1.25 10.25 1.15 10.45 1.4 10.8 1.55 11.05 2.15 11.1 L2.35 11.05 2.5 11.2 3.1 11.3 Q2.2 11.8 1.95 12.25 1.65 12.6 2.35 13.05 2.0 13.2 2.5 13.55 L2.5 13.65 1.95 14.1 1.5 14.5 Q0.95 14.8 1.05 15.35 L1.5 15.5 2.75 15.4 3.9 15.3 4.75 15.15 Q4.65 15.4 4.95 15.85 5.1 16.2 5.9 16.2 L6.3 16.0 6.65 14.9 4.75 15.15 M24.0 8.4 Q23.9 8.2 23.8 8.35 L22.1 7.9 22.0 9.05 21.95 9.35 18.65 9.2 19.2 9.8 Q19.2 9.65 19.45 9.95 L19.8 10.1 22.0 9.9 22.8 9.55 23.35 9.7 Q24.5 9.6 24.55 9.15 24.65 8.55 24.0 8.4 M20.85 10.25 L22.25 10.35 Q22.65 10.95 22.15 11.65 L22.3 12.0 22.35 12.45 22.4 12.8 23.0 12.85 Q23.15 12.8 23.4 13.1 L23.5 13.8 Q23.35 13.9 23.5 14.15 L23.75 14.65 Q23.65 14.65 23.45 14.9 23.25 14.9 23.3 15.05 22.7 14.85 22.35 14.45 L22.25 14.35 22.0 16.4 Q21.85 17.0 21.05 17.3 L3.95 17.25 Q2.85 16.85 2.75 16.25 L2.75 15.55 2.75 15.4 M22.15 11.65 L22.1 11.6 21.5 11.6 20.75 11.55 18.15 11.55 15.9 11.6 14.85 11.5 13.3 11.5 13.3 11.4 11.95 11.4 8.0 11.35 6.3 11.3 3.55 11.35 3.1 11.3 M20.85 10.25 L19.6 10.25 19.15 10.6 18.35 10.85 Q18.25 10.7 18.3 10.85 L17.6 10.65 17.3 10.6 17.25 10.95 16.95 11.1 Q16.3 11.05 15.6 10.5 L15.15 10.2 14.75 9.75 14.1 9.85 13.45 9.4 13.65 9.1 10.75 8.9 2.65 8.6 2.65 7.9 M21.9 5.15 Q22.1 5.85 22.1 7.9 M21.05 13.95 L21.6 13.8 Q21.45 13.7 21.8 13.7 L22.4 12.8 M22.25 14.35 L21.9 14.0 21.6 14.0 21.05 13.95 19.85 13.95 19.4 13.95 19.2 13.9 19.2 13.95 Q18.8 13.8 18.65 13.95 L18.5 13.95 18.35 13.95 Q17.75 14.0 17.25 14.4 L14.65 14.8 14.2 14.85 14.25 14.95 14.35 15.8 14.35 15.85 Q14.25 16.25 13.85 16.3 13.7 16.05 13.6 16.15 13.4 15.85 13.3 16.05 L12.1 16.1 11.1 16.15 10.95 16.05 11.0 16.05 Q10.75 15.6 11.0 15.0 L11.1 15.0 13.65 14.9 14.2 14.85 M21.9 14.0 L22.25 14.0 22.25 14.35 M14.9 9.15 L13.65 9.1 M11.25 10.1 Q10.95 9.9 11.5 10.0 L12.9 9.65 13.45 9.4 M11.15 10.1 L11.25 10.1 12.0 10.1 Q12.45 10.5 11.95 11.4 M9.85 10.05 L10.4 10.0 11.15 10.1 9.85 10.05 8.65 10.15 8.3 10.1 7.8 10.0 6.85 9.85 6.45 9.9 6.3 9.9 5.7 10.05 5.0 10.35 3.9 10.1 3.45 9.85 3.05 9.85 2.9 10.4 2.35 11.05 M13.3 11.4 Q12.9 10.65 13.5 10.15 L15.15 10.2 M19.3 9.9 L19.2 9.8 M19.3 9.9 L19.6 10.15 19.6 10.25 M18.65 9.2 L14.9 9.15 M3.05 9.85 L3.05 9.7 3.45 9.85 M6.45 9.95 L6.3 9.9 M6.45 9.95 L7.8 10.0 M6.65 14.9 L8.45 15.4 8.65 15.2 Q8.8 14.9 9.1 15.05 L11.0 15.0 M5.65 13.8 L11.25 13.95 17.7 13.9 18.35 13.95 M2.95 13.8 L2.5 13.65 M2.95 13.8 L4.25 13.8 5.65 13.8" fill="none" stroke="#000000" stroke-linecap="round" stroke-linejoin="round" stroke-opacity="0.6627451" stroke-width="1.0"/>
    </g>
    <g id="sprite1" transform="matrix(1.0, 0.0, 0.0, 1.0, 0.0, 0.0)">
      <use height="17.3" transform="matrix(1.0, 0.0, 0.0, 1.0, 0.0, 0.0)" width="24.55" xlink:href="#shape1"/>
    </g>
    <g id="shape1" transform="matrix(1.0, 0.0, 0.0, 1.0, 0.0, 0.0)">
      <path d="M11.95 11.4 Q12.45 10.5 12.0 10.1 L11.25 10.1 Q10.95 9.9 11.5 10.0 L12.9 9.65 13.45 9.4 14.1 9.85 14.75 9.75 15.15 10.2 13.5 10.15 Q12.9 10.65 13.3 11.4 L11.95 11.4" fill="url(#gradient0)" fill-rule="evenodd" stroke="none"/>
      <path d="M11.25 13.95 L3.4 13.95 2.95 13.8 11.25 13.95" fill="url(#gradient1)" fill-rule="evenodd" stroke="none"/>
      <path d="M2.65 7.9 Q2.4 4.8 3.4 3.4 L3.5 3.15 Q4.2 1.6 5.55 1.3 8.95 -0.35 12.8 0.1 16.5 0.4 20.35 2.8 21.45 3.7 21.85 4.85 L21.9 5.15 Q22.1 5.85 22.1 7.9 L22.0 9.05 21.95 9.35 2.65 8.6 2.65 7.9" fill="url(#gradient2)" fill-rule="evenodd" stroke="none"/>
      <path d="M22.15 11.65 L22.3 12.0 22.35 12.45 22.4 12.8 21.8 13.7 Q21.45 13.7 21.6 13.8 L21.05 13.95 19.85 13.95 19.4 13.95 19.2 13.9 19.2 13.95 Q18.8 13.8 18.65 13.95 L18.5 13.95 18.35 13.95 17.7 13.9 11.25 13.95 2.95 13.8 2.5 13.65 2.5 13.55 Q2.0 13.2 2.35 13.05 1.65 12.6 1.95 12.25 2.2 11.8 3.1 11.3 L3.55 11.35 11.95 11.4 13.3 11.4 13.3 11.5 22.1 11.6 22.15 11.65" fill="url(#gradient3)" fill-rule="evenodd" stroke="none"/>
      <path d="M19.6 10.25 L22.25 10.35 Q22.65 10.95 22.15 11.65 L22.1 11.6 13.3 11.5 13.3 11.4 Q12.9 10.65 13.5 10.15 L15.15 10.2 15.6 10.5 Q16.3 11.05 16.95 11.1 L17.25 10.95 17.3 10.6 17.6 10.65 18.3 10.85 Q18.25 10.7 18.35 10.85 L19.15 10.6 19.6 10.25" fill="url(#gradient4)" fill-rule="evenodd" stroke="none"/>
      <path d="M3.1 11.3 L2.5 11.2 2.35 11.05 2.9 10.4 3.05 9.85 3.45 9.85 3.9 10.1 5.0 10.35 5.7 10.05 6.3 9.9 6.45 9.95 7.8 10.0 8.3 10.1 8.65 10.15 9.85 10.05 11.15 10.1 11.25 10.1 12.0 10.1 Q12.45 10.5 11.95 11.4 L3.55 11.35 3.1 11.3" fill="url(#gradient5)" fill-rule="evenodd" stroke="none"/>
      <path d="M2.65 7.9 L2.65 8.6 21.95 9.35 22.0 9.05 22.1 7.9 23.8 8.35 Q23.9 8.2 24.0 8.4 24.65 8.55 24.55 9.15 24.5 9.6 23.35 9.7 L22.8 9.55 22.0 9.9 19.8 10.1 19.45 9.95 Q19.2 9.65 19.2 9.8 L19.3 9.9 19.6 10.15 19.6 10.25 19.15 10.6 18.35 10.85 Q18.25 10.7 18.3 10.85 L17.6 10.65 17.3 10.6 17.25 10.95 16.95 11.1 Q16.3 11.05 15.6 10.5 L15.15 10.2 14.75 9.75 14.1 9.85 13.45 9.4 12.9 9.65 11.5 10.0 Q10.95 9.9 11.25 10.1 L11.15 10.1 10.4 10.0 9.85 10.05 8.65 10.15 8.3 10.1 7.8 10.0 6.85 9.85 6.45 9.9 6.3 9.9 5.7 10.05 5.0 10.35 3.9 10.1 3.45 9.85 3.05 9.7 3.05 9.85 2.9 10.4 2.35 11.05 2.15 11.1 Q1.55 11.05 1.4 10.8 1.15 10.45 1.25 10.25 -0.05 10.0 0.0 9.4 -0.05 8.6 0.85 8.65 L0.55 8.35 Q0.5 8.1 1.0 8.0 1.25 7.75 1.65 7.75 1.55 7.6 1.8 7.7 L2.65 7.9" fill="url(#gradient6)" fill-rule="evenodd" stroke="none"/>
      <path d="M2.75 15.4 L1.5 15.5 1.05 15.35 Q0.95 14.8 1.5 14.5 L1.95 14.1 2.5 13.65 2.95 13.8 3.4 13.95 11.25 13.95 17.7 13.9 18.35 13.95 Q17.75 14.0 17.25 14.4 L14.65 14.8 14.2 14.85 13.65 14.9 11.1 15.0 11.0 15.0 9.1 15.05 Q8.8 14.9 8.65 15.2 L8.45 15.4 6.65 14.9 6.3 16.0 5.9 16.2 Q5.1 16.2 4.95 15.85 4.65 15.4 4.75 15.15 L3.9 15.3 2.75 15.4" fill="url(#gradient7)" fill-rule="evenodd" stroke="none"/>
      <path d="M14.2 14.85 L14.25 14.95 14.35 15.8 14.35 15.85 Q14.25 16.25 13.85 16.3 13.7 16.05 13.6 16.15 13.4 15.85 13.3 16.05 L12.1 16.1 11.1 16.15 10.95 16.05 11.0 16.05 Q10.75 15.6 11.0 15.0 L11.1 15.0 13.65 14.9 14.2 14.85" fill="url(#gradient8)" fill-rule="evenodd" stroke="none"/>
      <path d="M22.4 12.8 L23.0 12.85 Q23.15 12.8 23.4 13.1 L23.5 13.8 Q23.35 13.9 23.5 14.15 L23.75 14.65 Q23.65 14.65 23.45 14.9 23.25 14.9 23.3 15.05 22.7 14.85 22.35 14.45 L22.25 14.35 22.0 16.4 Q21.85 17.0 21.05 17.3 L3.95 17.25 Q2.85 16.85 2.75 16.25 L2.75 15.4 3.9 15.3 4.75 15.15 Q4.65 15.4 4.95 15.85 5.1 16.2 5.9 16.2 L6.3 16.0 6.65 14.9 8.45 15.4 8.65 15.2 Q8.8 14.9 9.1 15.05 L11.0 15.0 Q10.75 15.6 11.0 16.05 L10.95 16.05 11.1 16.15 12.1 16.1 13.3 16.05 Q13.4 15.85 13.6 16.15 13.7 16.05 13.85 16.3 14.25 16.25 14.35 15.85 L14.35 15.8 14.25 14.95 14.2 14.85 14.65 14.8 17.25 14.4 Q17.75 14.0 18.35 13.95 L18.5 13.95 18.65 13.95 Q18.8 13.8 19.2 13.95 L19.2 13.9 19.4 13.95 19.85 13.95 21.05 13.95 21.6 13.8 Q21.45 13.7 21.8 13.7 L22.4 12.8" fill="url(#gradient9)" fill-rule="evenodd" stroke="none"/>
    </g>
    <linearGradient gradientTransform="matrix(0.0024, 0.0, 0.0, 0.0012, 13.15, 10.4)" gradientUnits="userSpaceOnUse" id="gradient0" spreadMethod="pad" x1="-819.2" x2="819.2">
      <stop offset="0.0" stop-color="#000000"/>
      <stop offset="1.0" stop-color="#ffffff"/>
    </linearGradient>
    <linearGradient gradientTransform="matrix(0.0051, 0.0, 0.0, 1.0E-4, 7.1, 13.85)" gradientUnits="userSpaceOnUse" id="gradient1" spreadMethod="pad" x1="-819.2" x2="819.2">
      <stop offset="0.0" stop-color="#000000"/>
      <stop offset="1.0" stop-color="#ffffff"/>
    </linearGradient>
    <linearGradient gradientTransform="matrix(-9.0E-4, -0.0119, 0.0057, -4.0E-4, 12.25, 4.8)" gradientUnits="userSpaceOnUse" id="gradient2" spreadMethod="pad" x1="-819.2" x2="819.2">
      <stop offset="0.0" stop-color="#000000"/>
      <stop offset="1.0" stop-color="#ffffff"/>
    </linearGradient>
    <linearGradient gradientTransform="matrix(0.0, -0.0125, 0.0016, 0.0, 12.1, 12.6)" gradientUnits="userSpaceOnUse" id="gradient3" spreadMethod="pad" x1="-819.2" x2="819.2">
      <stop offset="0.0" stop-color="#000000"/>
      <stop offset="1.0" stop-color="#ffffff"/>
    </linearGradient>
    <linearGradient gradientTransform="matrix(0.0105, -0.0061, 5.0E-4, 8.0E-4, 17.8, 10.9)" gradientUnits="userSpaceOnUse" id="gradient4" spreadMethod="pad" x1="-819.2" x2="819.2">
      <stop offset="0.0" stop-color="#000000"/>
      <stop offset="1.0" stop-color="#ffffff"/>
    </linearGradient>
    <linearGradient gradientTransform="matrix(0.0104, 0.0, 0.0, 9.0E-4, 7.25, 10.6)" gradientUnits="userSpaceOnUse" id="gradient5" spreadMethod="pad" x1="-819.2" x2="819.2">
      <stop offset="0.0" stop-color="#000000"/>
      <stop offset="1.0" stop-color="#ffffff"/>
    </linearGradient>
    <linearGradient gradientTransform="matrix(0.0255, 0.0, 0.0, 0.0021, 12.25, 9.35)" gradientUnits="userSpaceOnUse" id="gradient6" spreadMethod="pad" x1="-819.2" x2="819.2">
      <stop offset="0.0" stop-color="#000000"/>
      <stop offset="1.0" stop-color="#ffffff"/>
    </linearGradient>
    <linearGradient gradientTransform="matrix(0.0075, -0.0075, 0.0011, 0.0011, 9.65, 14.9)" gradientUnits="userSpaceOnUse" id="gradient7" spreadMethod="pad" x1="-819.2" x2="819.2">
      <stop offset="0.0" stop-color="#000000"/>
      <stop offset="1.0" stop-color="#ffffff"/>
    </linearGradient>
    <linearGradient gradientTransform="matrix(0.0011, -0.0018, 8.0E-4, 4.0E-4, 12.6, 15.6)" gradientUnits="userSpaceOnUse" id="gradient8" spreadMethod="pad" x1="-819.2" x2="819.2">
      <stop offset="0.0" stop-color="#000000"/>
      <stop offset="1.0" stop-color="#ffffff"/>
    </linearGradient>
    <linearGradient gradientTransform="matrix(0.0213, 0.0, 0.0, 0.0027, 16.7, 15.1)" gradientUnits="userSpaceOnUse" id="gradient9" spreadMethod="pad" x1="-819.2" x2="819.2">
      <stop offset="0.0" stop-color="#000000"/>
      <stop offset="1.0" stop-color="#ffffff"/>
    </linearGradient>
  </defs>
</svg>
