<?xml version="1.0" encoding="UTF-8" standalone="no"?>
<svg xmlns:xlink="http://www.w3.org/1999/xlink" height="531.5px" width="460.6px" xmlns="http://www.w3.org/2000/svg">
  <g transform="matrix(1.0, 0.0, 0.0, 1.0, 193.65, 334.05)">
    <use height="94.25" transform="matrix(0.0831, 0.6732, -0.6732, 0.0831, -2.883, -0.532)" width="94.1" xlink:href="#shape0"/>
    <use height="112.95" transform="matrix(0.0686, 0.5556, -0.5556, 0.0686, -3.152, -0.1792)" width="112.7" xlink:href="#sprite0"/>
    <use height="100.5" transform="matrix(1.0, 0.0, 0.0, 1.0, -71.1, -58.3)" width="58.2" xlink:href="#shape2"/>
  </g>
  <defs>
    <g id="shape0" transform="matrix(1.0, 0.0, 0.0, 1.0, 29.55, 42.0)">
      <path d="M-25.1 9.4 Q-26.75 12.05 -27.8 11.75 -29.35 11.35 -28.95 5.65 -28.6 -0.1 -26.55 -7.75 -24.5 -15.4 -21.95 -20.5 -19.45 -25.6 -17.9 -25.2 -16.75 -24.9 -16.65 -21.7 L-16.75 -21.65 -18.55 -22.0 Q-23.35 -11.7 -25.4 -3.05 -26.85 3.35 -26.85 8.85 L-25.1 9.4 M-6.5 -7.25 Q-3.7 -6.2 -1.3 -4.55 -1.3 -2.65 -1.75 -0.85 L-1.75 -0.6 -1.95 -0.1 Q-2.45 1.6 -3.4 3.3 L-9.55 2.95 -10.45 2.75 -7.7 -7.6 -6.5 -7.25" fill="#d66017" fill-rule="evenodd" stroke="none"/>
      <path d="M-16.65 -21.65 Q-14.55 -21.0 -12.85 -19.95 -16.2 -10.6 -18.55 -1.2 -19.9 4.35 -20.85 9.85 L-25.05 9.45 -25.1 9.4 -26.85 8.85 Q-26.85 3.35 -25.4 -3.05 -23.35 -11.7 -18.55 -22.0 L-16.75 -21.65 -16.65 -21.65" fill="#e67129" fill-rule="evenodd" stroke="none"/>
      <path d="M-12.85 -19.95 Q-10.0 -18.0 -8.25 -14.45 -6.5 -11.0 -6.5 -7.25 L-7.7 -7.6 -10.45 2.75 -9.55 2.95 Q-11.35 5.6 -14.15 7.5 -17.4 9.65 -20.85 9.85 -19.9 4.35 -18.55 -1.2 -16.2 -10.6 -12.85 -19.95" fill="#db7334" fill-rule="evenodd" stroke="none"/>
      <path d="M-25.1 9.4 Q-26.75 12.05 -27.8 11.75 -29.35 11.35 -28.95 5.65 -28.6 -0.1 -26.55 -7.75 -24.5 -15.4 -21.95 -20.5 -19.45 -25.6 -17.9 -25.2 -16.75 -24.9 -16.65 -21.7 L-16.65 -21.65 Q-14.55 -21.0 -12.85 -19.95 -10.0 -18.0 -8.25 -14.45 -6.5 -11.0 -6.5 -7.25 -3.7 -6.2 -1.3 -4.55 -1.3 -2.65 -1.75 -0.85 L-1.75 -0.6 -1.95 -0.1 Q-2.45 1.6 -3.4 3.3 L-9.55 2.95 Q-11.35 5.6 -14.15 7.5 -17.4 9.65 -20.85 9.85 L-25.05 9.45 -25.1 9.4 -26.85 8.85 Q-26.85 3.35 -25.4 -3.05 -23.35 -11.7 -18.55 -22.0 L-16.75 -21.65 -16.65 -21.65 M-9.55 2.95 L-10.45 2.75 -7.7 -7.6 -6.5 -7.25 M-20.85 9.85 Q-19.9 4.35 -18.55 -1.2 -16.2 -10.6 -12.85 -19.95" fill="none" stroke="#000000" stroke-linecap="round" stroke-linejoin="round" stroke-opacity="0.6627451" stroke-width="1.0"/>
      <path d="M-4.1 20.55 Q-1.9 18.6 0.7 17.25 2.4 18.15 3.75 19.35 L3.95 19.5 4.35 19.9 Q5.6 21.2 6.6 22.8 5.45 25.65 3.45 28.0 L2.8 28.75 -5.0 21.4 -4.1 20.55 M1.8 44.8 Q3.35 47.45 2.6 48.25 1.5 49.4 -3.35 46.35 -8.2 43.35 -13.95 37.95 -19.75 32.55 -23.0 27.9 -26.35 23.3 -25.25 22.15 -24.45 21.25 -21.55 22.7 L-21.6 22.85 -22.75 24.2 Q-15.95 33.3 -9.3 39.2 -4.4 43.45 0.45 46.0 L1.8 44.8" fill="#d66017" fill-rule="evenodd" stroke="none"/>
      <path d="M3.45 28.0 Q4.95 30.9 5.3 34.25 5.6 38.15 4.2 41.25 L-4.45 34.0 Q-11.6 27.6 -18.2 20.2 -15.2 18.6 -11.25 18.7 -7.4 18.85 -4.1 20.55 L-5.0 21.4 2.8 28.75 3.45 28.0" fill="#db7334" fill-rule="evenodd" stroke="none"/>
      <path d="M4.2 41.25 Q3.35 43.15 1.8 44.8 L0.45 46.0 Q-4.4 43.45 -9.3 39.2 -15.95 33.3 -22.75 24.2 L-21.6 22.85 -21.5 22.7 Q-20.0 21.15 -18.2 20.2 -11.6 27.6 -4.45 34.0 L4.2 41.25" fill="#e67129" fill-rule="evenodd" stroke="none"/>
      <path d="M-4.1 20.55 Q-1.9 18.6 0.7 17.25 2.4 18.15 3.75 19.35 L3.95 19.5 4.35 19.9 Q5.6 21.2 6.6 22.8 5.45 25.65 3.45 28.0 4.95 30.9 5.3 34.25 5.6 38.15 4.2 41.25 3.35 43.15 1.8 44.8 3.35 47.45 2.6 48.25 1.5 49.4 -3.35 46.35 -8.2 43.35 -13.95 37.95 -19.75 32.55 -23.0 27.9 -26.35 23.3 -25.25 22.15 -24.45 21.25 -21.55 22.7 L-21.5 22.7 Q-20.0 21.15 -18.2 20.2 -15.2 18.6 -11.25 18.7 -7.4 18.85 -4.1 20.55 L-5.0 21.4 2.8 28.75 3.45 28.0 M1.8 44.8 L0.45 46.0 Q-4.4 43.45 -9.3 39.2 -15.95 33.3 -22.75 24.2 L-21.6 22.85 -21.5 22.7 M-18.2 20.2 Q-11.6 27.6 -4.45 34.0 L4.2 41.25" fill="none" stroke="#000000" stroke-linecap="round" stroke-linejoin="round" stroke-opacity="0.6627451" stroke-width="1.0"/>
      <path d="M42.1 34.9 Q43.3 36.6 43.95 38.7 L43.95 38.75 44.35 40.55 Q39.7 43.4 33.5 45.45 25.1 48.25 13.9 49.6 L13.2 47.8 13.15 47.7 Q12.6 45.6 12.65 43.65 22.35 41.65 31.5 38.7 36.9 37.0 42.1 34.9" fill="#e67129" fill-rule="evenodd" stroke="none"/>
      <path d="M43.95 38.75 Q46.95 38.8 47.25 39.85 47.7 41.35 42.75 43.95 37.65 46.65 30.1 48.9 22.55 51.15 16.9 51.65 11.25 52.15 10.8 50.65 10.5 49.5 13.1 47.75 L13.2 47.8 13.9 49.6 Q25.1 48.25 33.5 45.45 39.7 43.4 44.35 40.55 L43.95 38.75 M20.1 31.65 Q19.5 28.75 19.65 25.85 21.3 24.85 23.0 24.25 L23.25 24.15 23.75 24.0 27.4 23.55 Q29.25 26.0 30.35 28.9 L30.65 29.8 20.4 32.85 20.1 31.65" fill="#d66017" fill-rule="evenodd" stroke="none"/>
      <path d="M12.65 43.65 Q12.8 40.2 14.85 36.9 16.9 33.6 20.1 31.65 L20.4 32.85 30.65 29.8 30.35 28.9 Q33.55 29.05 36.6 30.45 40.15 32.1 42.1 34.9 36.9 37.0 31.5 38.7 22.35 41.65 12.65 43.65" fill="#db7334" fill-rule="evenodd" stroke="none"/>
      <path d="M42.1 34.9 Q43.3 36.6 43.95 38.7 L43.95 38.75 Q46.95 38.8 47.25 39.85 47.7 41.35 42.75 43.95 37.65 46.65 30.1 48.9 22.55 51.15 16.9 51.65 11.25 52.15 10.8 50.65 10.5 49.5 13.1 47.75 L13.15 47.7 Q12.6 45.6 12.65 43.65 12.8 40.2 14.85 36.9 16.9 33.6 20.1 31.65 19.5 28.75 19.65 25.85 21.3 24.85 23.0 24.25 L23.25 24.15 23.75 24.0 27.4 23.55 Q29.25 26.0 30.35 28.9 33.55 29.05 36.6 30.45 40.15 32.1 42.1 34.9 36.9 37.0 31.5 38.7 22.35 41.65 12.65 43.65 M13.2 47.8 L13.9 49.6 Q25.1 48.25 33.5 45.45 39.7 43.4 44.35 40.55 L43.95 38.75 M13.2 47.8 L13.15 47.7 M30.35 28.9 L30.65 29.8 20.4 32.85 20.1 31.65" fill="none" stroke="#000000" stroke-linecap="round" stroke-linejoin="round" stroke-opacity="0.6627451" stroke-width="1.0"/>
      <path d="M60.15 0.7 Q61.8 -1.85 62.8 -1.55 64.35 -1.15 63.95 4.5 63.5 10.2 61.4 17.75 59.3 25.35 56.75 30.4 54.2 35.45 52.65 35.05 51.55 34.7 51.45 31.55 L51.55 31.5 53.4 31.9 Q58.2 21.7 60.3 13.1 61.8 6.8 61.9 1.35 L60.15 0.7 M41.5 17.15 Q38.7 16.1 36.35 14.4 36.35 12.55 36.8 10.75 L36.85 10.5 37.0 10.0 Q37.55 8.3 38.5 6.65 L44.65 7.0 45.55 7.25 42.7 17.5 41.5 17.15" fill="#d66017" fill-rule="evenodd" stroke="none"/>
      <path d="M60.15 0.7 L61.9 1.35 Q61.8 6.8 60.3 13.1 58.2 21.7 53.4 31.9 L51.55 31.5 51.45 31.45 Q49.35 30.9 47.7 29.8 51.15 20.5 53.55 11.2 L55.9 0.25 60.1 0.7 60.15 0.7" fill="#e67129" fill-rule="evenodd" stroke="none"/>
      <path d="M47.7 29.8 Q44.9 27.8 43.15 24.35 41.5 20.9 41.5 17.15 L42.7 17.5 45.55 7.25 44.65 7.0 Q46.45 4.4 49.2 2.55 52.5 0.4 55.9 0.25 L53.55 11.2 Q51.15 20.5 47.7 29.8" fill="#db7334" fill-rule="evenodd" stroke="none"/>
      <path d="M51.45 31.55 Q51.55 34.7 52.65 35.05 54.2 35.45 56.75 30.4 59.3 25.35 61.4 17.75 63.5 10.2 63.95 4.5 64.35 -1.15 62.8 -1.55 61.8 -1.85 60.15 0.7 L61.9 1.35 Q61.8 6.8 60.3 13.1 58.2 21.7 53.4 31.9 L51.55 31.5 51.45 31.45 Q49.35 30.9 47.7 29.8 44.9 27.8 43.15 24.35 41.5 20.9 41.5 17.15 38.7 16.1 36.35 14.4 36.35 12.55 36.8 10.75 L36.85 10.5 37.0 10.0 Q37.55 8.3 38.5 6.65 L44.65 7.0 Q46.45 4.4 49.2 2.55 52.5 0.4 55.9 0.25 L60.1 0.7 60.15 0.7 M51.45 31.55 L51.45 31.45 M55.9 0.25 L53.55 11.2 Q51.15 20.5 47.7 29.8 M44.65 7.0 L45.55 7.25 42.7 17.5 41.5 17.15" fill="none" stroke="#000000" stroke-linecap="round" stroke-linejoin="round" stroke-opacity="0.6627451" stroke-width="1.0"/>
      <path d="M38.35 -32.15 L38.35 -32.2 39.85 -33.25 Q44.3 -30.1 48.6 -25.2 54.45 -18.6 60.05 -8.85 L58.75 -7.55 58.6 -7.45 Q56.9 -6.1 55.05 -5.4 49.45 -13.5 43.2 -20.75 L35.55 -28.95 Q36.6 -30.75 38.35 -32.15" fill="#e67129" fill-rule="evenodd" stroke="none"/>
      <path d="M58.75 -7.55 L60.05 -8.85 Q54.45 -18.6 48.6 -25.2 44.3 -30.1 39.85 -33.25 L38.35 -32.2 38.35 -32.15 Q37.2 -35.0 38.0 -35.65 39.2 -36.7 43.65 -33.1 48.05 -29.5 53.05 -23.45 58.1 -17.4 60.75 -12.45 63.4 -7.45 62.2 -6.4 61.3 -5.65 58.65 -7.4 L58.75 -7.55 M41.15 -7.5 Q38.75 -5.85 36.0 -4.85 34.45 -5.95 33.25 -7.3 L33.1 -7.5 32.75 -7.9 Q31.65 -9.35 30.9 -11.05 32.4 -13.75 34.7 -15.85 L35.35 -16.45 42.15 -8.25 41.15 -7.5" fill="#d66017" fill-rule="evenodd" stroke="none"/>
      <path d="M35.55 -28.95 L43.2 -20.75 Q49.45 -13.5 55.05 -5.4 51.85 -4.15 48.05 -4.8 44.2 -5.4 41.15 -7.5 L42.15 -8.25 35.35 -16.45 34.7 -15.85 Q33.55 -18.8 33.65 -22.2 33.75 -26.05 35.55 -28.95" fill="#db7334" fill-rule="evenodd" stroke="none"/>
      <path d="M58.75 -7.55 L60.05 -8.85 Q54.45 -18.6 48.6 -25.2 44.3 -30.1 39.85 -33.25 L38.35 -32.2 38.35 -32.15 Q36.6 -30.75 35.55 -28.95 L43.2 -20.75 Q49.45 -13.5 55.05 -5.4 56.9 -6.1 58.6 -7.45 L58.75 -7.55 M58.65 -7.4 Q61.3 -5.65 62.2 -6.4 63.4 -7.45 60.75 -12.45 58.1 -17.4 53.05 -23.45 48.05 -29.5 43.65 -33.1 39.2 -36.7 38.0 -35.65 37.2 -35.0 38.35 -32.15 M41.15 -7.5 Q38.75 -5.85 36.0 -4.85 34.45 -5.95 33.25 -7.3 L33.1 -7.5 32.75 -7.9 Q31.65 -9.35 30.9 -11.05 32.4 -13.75 34.7 -15.85 33.55 -18.8 33.65 -22.2 33.75 -26.05 35.55 -28.95 M34.7 -15.85 L35.35 -16.45 42.15 -8.25 41.15 -7.5 Q44.2 -5.4 48.05 -4.8 51.85 -4.15 55.05 -5.4 M58.65 -7.4 L58.6 -7.45" fill="none" stroke="#000000" stroke-linecap="round" stroke-linejoin="round" stroke-opacity="0.6627451" stroke-width="1.0"/>
      <path d="M23.35 -37.6 L22.75 -39.3 Q11.55 -38.25 3.1 -35.7 -3.1 -33.8 -7.85 -31.05 L-7.5 -29.3 Q-10.5 -29.4 -10.8 -30.45 -11.2 -31.95 -6.15 -34.5 -1.0 -36.95 6.55 -39.0 14.15 -41.05 19.75 -41.45 25.4 -41.8 25.8 -40.3 26.1 -39.15 23.4 -37.45 L23.35 -37.6 M16.1 -21.6 Q16.6 -18.7 16.35 -15.8 14.75 -14.9 13.0 -14.3 L12.75 -14.25 12.2 -14.1 8.55 -13.7 Q6.8 -16.2 5.8 -19.15 L5.55 -20.05 15.85 -22.8 16.1 -21.6" fill="#d66017" fill-rule="evenodd" stroke="none"/>
      <path d="M-7.5 -29.3 L-7.85 -31.05 Q-3.1 -33.8 3.1 -35.7 11.55 -38.25 22.75 -39.3 L23.35 -37.6 23.35 -37.45 Q23.95 -35.35 23.8 -33.35 14.1 -31.6 4.9 -28.9 L-5.75 -25.4 Q-6.9 -27.15 -7.45 -29.3 L-7.5 -29.3" fill="#e67129" fill-rule="evenodd" stroke="none"/>
      <path d="M-5.75 -25.4 L4.9 -28.9 Q14.1 -31.6 23.8 -33.35 23.55 -29.9 21.45 -26.65 19.3 -23.45 16.1 -21.6 L15.85 -22.8 5.55 -20.05 5.8 -19.15 Q2.6 -19.35 -0.35 -20.8 -3.85 -22.55 -5.75 -25.4" fill="#db7334" fill-rule="evenodd" stroke="none"/>
      <path d="M-7.5 -29.3 L-7.85 -31.05 Q-3.1 -33.8 3.1 -35.7 11.55 -38.25 22.75 -39.3 L23.35 -37.6 23.35 -37.45 Q23.95 -35.35 23.8 -33.35 23.55 -29.9 21.45 -26.65 19.3 -23.45 16.1 -21.6 16.6 -18.7 16.35 -15.8 14.75 -14.9 13.0 -14.3 L12.75 -14.25 12.2 -14.1 8.55 -13.7 Q6.8 -16.2 5.8 -19.15 2.6 -19.35 -0.35 -20.8 -3.85 -22.55 -5.75 -25.4 L4.9 -28.9 Q14.1 -31.6 23.8 -33.35 M23.4 -37.45 Q26.1 -39.15 25.8 -40.3 25.4 -41.8 19.75 -41.45 14.15 -41.05 6.55 -39.0 -1.0 -36.95 -6.15 -34.5 -11.2 -31.95 -10.8 -30.45 -10.5 -29.4 -7.5 -29.3 L-7.45 -29.3 Q-6.9 -27.15 -5.75 -25.4 M23.4 -37.45 L23.35 -37.45 M5.8 -19.15 L5.55 -20.05 15.85 -22.8 16.1 -21.6" fill="none" stroke="#000000" stroke-linecap="round" stroke-linejoin="round" stroke-opacity="0.6627451" stroke-width="1.0"/>
      <path d="M40.1 3.45 Q39.85 -3.95 34.65 -9.2 29.15 -14.65 21.4 -14.65 13.65 -14.65 8.15 -9.2 2.7 -3.7 2.7 4.05 2.7 11.75 8.15 17.25 L8.85 17.9 -1.65 20.85 Q-7.8 13.7 -7.8 4.05 -7.8 -6.65 -0.3 -14.2 7.3 -21.75 18.0 -21.75 28.65 -21.75 36.2 -14.2 42.65 -7.7 43.6 1.1 L40.1 3.45" fill="#333366" fill-rule="evenodd" stroke="none"/>
      <path d="M31.85 -6.4 L31.7 -6.6 Q27.4 -10.75 21.4 -10.75 15.3 -10.75 10.95 -6.4 6.65 -2.1 6.65 4.05 6.65 9.25 9.75 13.15 L10.95 14.5 9.75 13.15 11.15 14.3 10.95 14.5 11.55 15.1 13.2 16.4 8.85 17.9 8.15 17.25 Q2.7 11.75 2.7 4.05 2.7 -3.7 8.15 -9.2 13.65 -14.65 21.4 -14.65 29.15 -14.65 34.65 -9.2 39.85 -3.95 40.1 3.45 L36.15 5.8 36.25 4.05 Q36.25 -2.1 31.85 -6.4" fill="#643266" fill-rule="evenodd" stroke="none"/>
      <path d="M9.75 13.15 Q6.65 9.25 6.65 4.05 6.65 -2.1 10.95 -6.4 15.3 -10.75 21.4 -10.75 27.4 -10.75 31.7 -6.6 L31.85 -6.4 Q34.8 -2.55 34.8 2.5 34.8 4.85 34.15 6.9 24.1 8.0 16.15 14.45 L14.05 16.1 11.55 14.65 11.15 14.3 9.75 13.15" fill="#4a5757" fill-rule="evenodd" stroke="none"/>
      <path d="M-1.65 20.85 L8.85 17.9 Q14.1 22.75 21.4 22.75 29.15 22.75 34.65 17.25 40.1 11.75 40.1 4.05 L40.1 3.45 43.6 1.1 43.75 4.05 Q43.75 14.75 36.2 22.3 28.65 29.85 18.0 29.85 7.3 29.85 -0.3 22.3 L-1.65 20.85" fill="#292954" fill-rule="evenodd" stroke="none"/>
      <path d="M36.15 5.8 L40.1 3.45 40.1 4.05 Q40.1 11.75 34.65 17.25 29.15 22.75 21.4 22.75 14.1 22.75 8.85 17.9 L13.2 16.4 Q15.35 17.85 17.85 18.45 L21.4 18.8 Q27.55 18.8 31.85 14.5 35.6 10.8 36.15 5.8" fill="#4b254d" fill-rule="evenodd" stroke="none"/>
      <path d="M31.85 -6.4 Q36.25 -2.1 36.25 4.05 L36.15 5.8 Q35.6 10.8 31.85 14.5 27.55 18.8 21.4 18.8 L17.85 18.45 Q15.35 17.85 13.2 16.4 L11.55 15.1 10.95 14.5 11.15 14.3 11.55 14.65 14.05 16.1 Q15.85 16.9 17.85 17.15 L20.0 17.25 Q26.1 17.25 30.45 12.95 33.15 10.3 34.15 6.9 34.8 4.85 34.8 2.5 34.8 -2.55 31.85 -6.4" fill="#5757b0" fill-rule="evenodd" stroke="none"/>
      <path d="M14.05 16.1 L16.15 14.45 Q24.1 8.0 34.15 6.9 33.15 10.3 30.45 12.95 26.1 17.25 20.0 17.25 L17.85 17.15 Q15.85 16.9 14.05 16.1" fill="#bbeeed" fill-rule="evenodd" stroke="none"/>
      <path d="M9.75 13.15 Q6.65 9.25 6.65 4.05 6.65 -2.1 10.95 -6.4 15.3 -10.75 21.4 -10.75 27.4 -10.75 31.7 -6.6 L31.85 -6.4 Q36.25 -2.1 36.25 4.05 L36.15 5.8 Q35.6 10.8 31.85 14.5 27.55 18.8 21.4 18.8 L17.85 18.45 Q15.35 17.85 13.2 16.4 L11.55 15.1 10.95 14.5 9.75 13.15 11.15 14.3 11.55 14.65 14.05 16.1 Q15.85 16.9 17.85 17.15 L20.0 17.25 Q26.1 17.25 30.45 12.95 33.15 10.3 34.15 6.9 34.8 4.85 34.8 2.5 34.8 -2.55 31.85 -6.4 M40.1 3.45 Q39.85 -3.95 34.65 -9.2 29.15 -14.65 21.4 -14.65 13.65 -14.65 8.15 -9.2 2.7 -3.7 2.7 4.05 2.7 11.75 8.15 17.25 L8.85 17.9 Q14.1 22.75 21.4 22.75 29.15 22.75 34.65 17.25 40.1 11.75 40.1 4.05 L40.1 3.45 M43.6 1.1 Q42.65 -7.7 36.2 -14.2 28.65 -21.75 18.0 -21.75 7.3 -21.75 -0.3 -14.2 -7.8 -6.65 -7.8 4.05 -7.8 13.7 -1.65 20.85 L-0.3 22.3 Q7.3 29.85 18.0 29.85 28.65 29.85 36.2 22.3 43.75 14.75 43.75 4.05 L43.6 1.1" fill="none" stroke="#000000" stroke-linecap="round" stroke-linejoin="round" stroke-opacity="0.6627451" stroke-width="1.0"/>
      <path d="M14.15 -2.45 L20.6 -5.3 M25.05 3.0 L27.25 8.2 M26.9 9.1 L20.35 11.95 M19.15 11.35 L17.05 6.5 M21.65 -4.75 L24.15 0.95 M16.15 4.5 L13.75 -1.1" fill="none" stroke="#00e300" stroke-linecap="round" stroke-linejoin="round" stroke-width="1.0"/>
    </g>
    <g id="sprite0" transform="matrix(1.0, 0.0, 0.0, 1.0, 56.35, 56.45)">
      <use height="112.95" transform="matrix(1.0, 0.0, 0.0, 1.0, -56.35, -56.45)" width="112.7" xlink:href="#shape1"/>
    </g>
    <g id="shape1" transform="matrix(1.0, 0.0, 0.0, 1.0, 56.35, 56.45)">
      <path d="M7.1 -51.65 L6.4 -53.75 Q-7.25 -52.5 -17.5 -49.4 -24.95 -47.1 -30.65 -43.8 L-30.25 -41.65 Q-33.95 -41.75 -34.25 -43.0 -34.75 -44.85 -28.6 -47.95 -22.45 -51.0 -13.25 -53.45 -4.05 -55.95 2.8 -56.4 9.6 -56.8 10.1 -54.95 10.45 -53.6 7.2 -51.5 L7.1 -51.65" fill="url(#gradient0)" fill-rule="evenodd" stroke="none"/>
      <path d="M7.1 -51.65 L7.15 -51.5 Q7.8 -49.0 7.65 -46.55 7.35 -42.4 4.75 -38.5 2.25 -34.65 -1.55 -32.35 L-1.7 -32.35 Q-8.4 -31.9 -14.0 -28.9 L-14.15 -29.3 Q-18.0 -29.6 -21.65 -31.35 -25.85 -33.45 -28.1 -36.9 -29.55 -39.0 -30.25 -41.6 L-30.25 -41.65 -30.65 -43.8 Q-24.95 -47.1 -17.5 -49.4 -7.25 -52.5 6.4 -53.75 L7.1 -51.65" fill="url(#gradient1)" fill-rule="evenodd" stroke="none"/>
      <path d="M25.4 -45.1 Q23.95 -48.45 24.95 -49.3 26.45 -50.5 31.8 -46.25 37.15 -41.9 43.2 -34.55 49.3 -27.25 52.5 -21.2 55.75 -15.1 54.25 -13.9 53.15 -13.0 49.95 -15.1 L50.0 -15.25 51.65 -16.8 Q44.9 -28.7 37.75 -36.7 32.55 -42.55 27.2 -46.4 L25.4 -45.1" fill="url(#gradient2)" fill-rule="evenodd" stroke="none"/>
      <path d="M20.7 -25.15 L20.9 -25.35 Q19.55 -28.95 19.65 -33.0 19.8 -37.7 21.95 -41.25 23.3 -43.35 25.35 -45.05 L25.4 -45.1 27.2 -46.4 Q32.55 -42.55 37.75 -36.7 44.9 -28.7 51.65 -16.8 L50.0 -15.25 49.9 -15.15 Q47.9 -13.55 45.6 -12.7 41.75 -11.2 37.1 -11.95 32.45 -12.65 28.8 -15.25 L28.7 -15.15 Q26.45 -19.55 22.7 -23.3 L20.7 -25.15" fill="url(#gradient3)" fill-rule="evenodd" stroke="none"/>
      <path d="M17.45 -13.85 L17.25 -14.1 Q12.05 -19.1 4.8 -19.1 -2.6 -19.1 -7.9 -13.85 -13.1 -8.65 -13.1 -1.2 -13.1 5.1 -9.35 9.8 L-7.9 11.45 -7.15 12.2 -5.15 13.75 Q-2.55 15.5 0.45 16.25 L4.8 16.7 Q12.2 16.7 17.45 11.45 22.0 7.0 22.65 0.9 L22.75 -1.2 Q22.75 -8.65 17.45 -13.85 M4.75 -23.85 Q11.5 -23.85 16.85 -20.4 18.95 -19.1 20.8 -17.25 22.9 -15.15 24.35 -12.75 27.25 -7.95 27.45 -1.95 L27.45 -1.2 27.3 1.8 Q26.6 7.25 23.45 11.7 L20.8 14.8 Q14.15 21.45 4.75 21.45 -4.05 21.45 -10.45 15.6 L-11.25 14.8 Q-17.9 8.15 -17.9 -1.2 -17.9 -10.6 -11.25 -17.25 -4.6 -23.85 4.75 -23.85" fill="url(#gradient4)" fill-rule="evenodd" stroke="none"/>
      <path d="M-14.0 -28.9 Q-8.4 -31.9 -1.7 -32.35 L-1.55 -32.35 0.65 -32.45 Q12.15 -32.45 20.7 -25.15 L22.7 -23.3 Q26.45 -19.55 28.7 -15.15 31.1 -10.35 31.7 -4.75 L31.85 -1.2 31.7 2.15 Q31.05 8.65 27.95 14.15 25.85 17.75 22.7 20.9 19.05 24.55 14.75 26.8 9.3 29.6 2.85 30.0 L0.65 30.05 Q-8.3 30.05 -15.4 25.7 -18.65 23.75 -21.5 20.9 L-23.15 19.15 -24.55 17.4 Q-30.6 9.35 -30.6 -1.2 L-30.55 -2.15 Q-30.4 -8.75 -27.8 -14.35 -25.55 -19.2 -21.5 -23.3 -18.0 -26.75 -14.0 -28.9 M4.75 -23.85 Q-4.6 -23.85 -11.25 -17.25 -17.9 -10.6 -17.9 -1.2 -17.9 8.15 -11.25 14.8 L-10.45 15.6 Q-4.05 21.45 4.75 21.45 14.15 21.45 20.8 14.8 L23.45 11.7 Q26.6 7.25 27.3 1.8 L27.45 -1.2 27.45 -1.95 Q27.25 -7.95 24.35 -12.75 22.9 -15.15 20.8 -17.25 18.95 -19.1 16.85 -20.4 11.5 -23.85 4.75 -23.85" fill="url(#gradient5)" fill-rule="evenodd" stroke="none"/>
      <path d="M-9.35 9.8 Q-13.1 5.1 -13.1 -1.2 -13.1 -8.65 -7.9 -13.85 -2.6 -19.1 4.8 -19.1 12.05 -19.1 17.25 -14.1 L17.45 -13.85 Q21.0 -9.2 21.0 -3.1 21.0 -0.25 20.25 2.25 19.0 6.35 15.75 9.6 10.5 14.8 3.1 14.8 L0.45 14.65 -4.1 13.4 Q-5.7 12.7 -7.15 11.65 L-7.65 11.25 -9.35 9.8" fill="url(#gradient6)" fill-rule="evenodd" stroke="none"/>
      <path d="M17.45 -13.85 Q22.75 -8.65 22.75 -1.2 L22.65 0.9 Q22.0 7.0 17.45 11.45 12.2 16.7 4.8 16.7 L0.45 16.25 Q-2.55 15.5 -5.15 13.75 L-7.15 12.2 -7.9 11.45 -9.35 9.8 -7.65 11.25 -7.15 11.65 Q-5.7 12.7 -4.1 13.4 L0.45 14.65 3.1 14.8 Q10.5 14.8 15.75 9.6 19.0 6.35 20.25 2.25 21.0 -0.25 21.0 -3.1 21.0 -9.2 17.45 -13.85" fill="url(#gradient7)" fill-rule="evenodd" stroke="none"/>
      <path d="M31.7 2.15 L32.85 2.35 Q35.05 -0.85 38.45 -3.1 42.4 -5.65 46.55 -5.85 L51.7 -5.3 51.75 -5.3 53.8 -4.55 Q53.75 2.05 51.9 9.75 49.35 20.1 43.5 32.5 L41.3 32.05 41.15 32.0 Q38.6 31.25 36.65 29.9 33.2 27.55 31.15 23.3 29.1 19.15 29.1 14.6 L27.95 14.15 Q31.05 8.65 31.7 2.15" fill="url(#gradient8)" fill-rule="evenodd" stroke="none"/>
      <path d="M51.75 -5.3 Q53.65 -8.4 54.9 -8.05 56.75 -7.55 56.25 -0.7 55.75 6.2 53.2 15.4 50.65 24.6 47.55 30.7 44.45 36.8 42.6 36.3 41.25 35.9 41.15 32.05 L41.3 32.05 43.5 32.5 Q49.35 20.1 51.9 9.75 53.75 2.05 53.8 -4.55 L51.75 -5.3" fill="url(#gradient9)" fill-rule="evenodd" stroke="none"/>
      <path d="M-30.55 -2.15 L-32.75 -2.5 Q-34.95 0.75 -38.3 3.0 -42.3 5.6 -46.45 5.9 L-51.6 5.35 -51.65 5.35 -53.7 4.65 Q-53.75 -2.05 -51.95 -9.75 -49.5 -20.25 -43.7 -32.75 L-41.5 -32.35 -41.35 -32.3 Q-38.8 -31.55 -36.75 -30.2 -33.3 -27.9 -31.2 -23.6 -29.1 -19.4 -29.1 -14.85 L-27.8 -14.35 Q-30.4 -8.75 -30.55 -2.15" fill="url(#gradient10)" fill-rule="evenodd" stroke="none"/>
      <path d="M-51.65 5.35 Q-53.55 8.5 -54.85 8.15 -56.7 7.65 -56.25 0.75 -55.85 -6.15 -53.35 -15.45 -50.9 -24.7 -47.8 -30.9 -44.7 -37.1 -42.85 -36.6 -41.45 -36.25 -41.35 -32.35 L-41.5 -32.35 -43.7 -32.75 Q-49.5 -20.25 -51.95 -9.75 -53.75 -2.05 -53.7 4.65 L-51.65 5.35" fill="url(#gradient11)" fill-rule="evenodd" stroke="none"/>
      <path d="M-15.4 25.7 L-17.0 27.8 Q-15.15 31.2 -14.7 35.25 -14.25 39.95 -16.0 43.75 -17.05 46.1 -18.9 48.05 L-18.95 48.05 -18.95 48.1 -20.55 49.6 Q-26.4 46.45 -32.35 41.25 -40.45 34.15 -48.7 23.2 L-47.25 21.45 -47.15 21.3 Q-45.35 19.4 -43.2 18.25 -39.5 16.3 -34.75 16.45 -30.1 16.6 -26.1 18.7 L-24.55 17.4 -23.15 19.15 -21.5 20.9 Q-18.65 23.75 -15.4 25.7" fill="url(#gradient12)" fill-rule="evenodd" stroke="none"/>
      <path d="M-18.95 48.05 Q-17.1 51.25 -18.0 52.2 -19.3 53.6 -25.15 50.0 -31.05 46.35 -38.05 39.8 -45.0 33.25 -49.0 27.65 -53.0 22.0 -51.7 20.6 -50.75 19.55 -47.2 21.3 L-47.25 21.45 -48.7 23.2 Q-40.45 34.15 -32.35 41.25 -26.4 46.45 -20.55 49.6 L-18.95 48.1 -18.95 48.05" fill="url(#gradient13)" fill-rule="evenodd" stroke="none"/>
      <path d="M14.75 26.8 L15.6 28.85 Q19.45 29.0 23.2 30.7 27.45 32.7 29.85 36.05 31.3 38.1 32.1 40.7 L32.1 40.75 32.6 42.9 Q26.9 46.4 19.45 48.9 9.25 52.3 -4.35 53.9 L-5.1 51.75 -5.15 51.6 Q-5.9 49.1 -5.8 46.65 -5.65 42.5 -3.1 38.5 -0.65 34.55 3.2 32.15 L2.85 30.0 Q9.3 29.6 14.75 26.8" fill="url(#gradient14)" fill-rule="evenodd" stroke="none"/>
      <path d="M32.1 40.75 Q35.75 40.75 36.1 42.0 36.65 43.85 30.6 47.1 24.5 50.3 15.35 53.05 6.2 55.75 -0.65 56.35 -7.55 57.0 -8.1 55.15 -8.5 53.8 -5.25 51.65 L-5.1 51.75 -4.35 53.9 Q9.25 52.3 19.45 48.9 26.9 46.4 32.6 42.9 L32.1 40.75" fill="url(#gradient15)" fill-rule="evenodd" stroke="none"/>
    </g>
    <linearGradient gradientTransform="matrix(0.0271, 0.0, 0.0, 0.009, -12.1, -49.05)" gradientUnits="userSpaceOnUse" id="gradient0" spreadMethod="pad" x1="-819.2" x2="819.2">
      <stop offset="0.0" stop-color="#000000"/>
      <stop offset="1.0" stop-color="#ffffff"/>
    </linearGradient>
    <linearGradient gradientTransform="matrix(-0.0033, -0.0121, 0.0029, -8.0E-4, 1.55, -43.95)" gradientUnits="userSpaceOnUse" id="gradient1" spreadMethod="pad" x1="-819.2" x2="819.2">
      <stop offset="0.0" stop-color="#000000"/>
      <stop offset="1.0" stop-color="#949494" stop-opacity="0.6117647"/>
    </linearGradient>
    <linearGradient gradientTransform="matrix(0.0184, 0.0, 0.0, 0.0219, 39.6, -31.6)" gradientUnits="userSpaceOnUse" id="gradient2" spreadMethod="pad" x1="-819.2" x2="819.2">
      <stop offset="0.0" stop-color="#000000"/>
      <stop offset="1.0" stop-color="#ffffff"/>
    </linearGradient>
    <linearGradient gradientTransform="matrix(0.0072, -0.0072, 0.0047, 0.0047, 33.35, -26.05)" gradientUnits="userSpaceOnUse" id="gradient3" spreadMethod="pad" x1="-819.2" x2="819.2">
      <stop offset="0.0" stop-color="#000000"/>
      <stop offset="1.0" stop-color="#949494" stop-opacity="0.6117647"/>
    </linearGradient>
    <linearGradient gradientTransform="matrix(-0.0267, -0.0072, 0.0072, -0.0267, 4.8, -1.2)" gradientUnits="userSpaceOnUse" id="gradient4" spreadMethod="pad" x1="-819.2" x2="819.2">
      <stop offset="0.0" stop-color="#000000"/>
      <stop offset="1.0" stop-color="#ffffff"/>
    </linearGradient>
    <linearGradient gradientTransform="matrix(-0.0148, -0.0351, 0.0351, -0.0148, 0.6, -1.2)" gradientUnits="userSpaceOnUse" id="gradient5" spreadMethod="pad" x1="-819.2" x2="819.2">
      <stop offset="0.0" stop-color="#000000"/>
      <stop offset="1.0" stop-color="#ffffff"/>
    </linearGradient>
    <linearGradient gradientTransform="matrix(0.0054, 0.0201, -0.02, 0.0054, 3.95, -2.15)" gradientUnits="userSpaceOnUse" id="gradient6" spreadMethod="pad" x1="-819.2" x2="819.2">
      <stop offset="0.0" stop-color="#000000"/>
      <stop offset="1.0" stop-color="#ffffff"/>
    </linearGradient>
    <linearGradient gradientTransform="matrix(0.0196, 0.0, 0.0, 0.0186, 6.7, 1.4)" gradientUnits="userSpaceOnUse" id="gradient7" spreadMethod="pad" x1="-819.2" x2="819.2">
      <stop offset="0.0" stop-color="#000000"/>
      <stop offset="1.0" stop-color="#ffffff"/>
    </linearGradient>
    <linearGradient gradientTransform="matrix(0.0091, 0.0025, -0.002, 0.0076, 38.95, 11.4)" gradientUnits="userSpaceOnUse" id="gradient8" spreadMethod="pad" x1="-819.2" x2="819.2">
      <stop offset="0.0" stop-color="#000000"/>
      <stop offset="1.0" stop-color="#949494" stop-opacity="0.6117647"/>
    </linearGradient>
    <linearGradient gradientTransform="matrix(0.0093, 0.0, 0.0, 0.0271, 48.75, 14.1)" gradientUnits="userSpaceOnUse" id="gradient9" spreadMethod="pad" x1="-819.2" x2="819.2">
      <stop offset="0.0" stop-color="#000000"/>
      <stop offset="1.0" stop-color="#ffffff"/>
    </linearGradient>
    <linearGradient gradientTransform="matrix(-0.0105, -0.0028, 0.0021, -0.0078, -37.5, -20.0)" gradientUnits="userSpaceOnUse" id="gradient10" spreadMethod="pad" x1="-819.2" x2="819.2">
      <stop offset="0.0" stop-color="#000000"/>
      <stop offset="1.0" stop-color="#949494" stop-opacity="0.6117647"/>
    </linearGradient>
    <linearGradient gradientTransform="matrix(0.0092, 0.0, 0.0, 0.0274, -48.85, -14.25)" gradientUnits="userSpaceOnUse" id="gradient11" spreadMethod="pad" x1="-819.2" x2="819.2">
      <stop offset="0.0" stop-color="#000000"/>
      <stop offset="1.0" stop-color="#ffffff"/>
    </linearGradient>
    <linearGradient gradientTransform="matrix(-0.0072, 0.0072, -0.0049, -0.0049, -16.7, 42.45)" gradientUnits="userSpaceOnUse" id="gradient12" spreadMethod="pad" x1="-819.2" x2="819.2">
      <stop offset="0.0" stop-color="#000000"/>
      <stop offset="1.0" stop-color="#949494" stop-opacity="0.6117647"/>
    </linearGradient>
    <linearGradient gradientTransform="matrix(0.0209, 0.0, 0.0, 0.0198, -34.85, 36.4)" gradientUnits="userSpaceOnUse" id="gradient13" spreadMethod="pad" x1="-819.2" x2="819.2">
      <stop offset="0.0" stop-color="#000000"/>
      <stop offset="1.0" stop-color="#ffffff"/>
    </linearGradient>
    <linearGradient gradientTransform="matrix(0.0031, 0.0116, -0.004, 0.0011, 19.2, 37.7)" gradientUnits="userSpaceOnUse" id="gradient14" spreadMethod="pad" x1="-819.2" x2="819.2">
      <stop offset="0.0" stop-color="#000000"/>
      <stop offset="1.0" stop-color="#949494" stop-opacity="0.6117647"/>
    </linearGradient>
    <linearGradient gradientTransform="matrix(0.027, 0.0, 0.0, 0.0096, 14.0, 48.6)" gradientUnits="userSpaceOnUse" id="gradient15" spreadMethod="pad" x1="-819.2" x2="819.2">
      <stop offset="0.0" stop-color="#000000"/>
      <stop offset="1.0" stop-color="#ffffff"/>
    </linearGradient>
    <g id="shape2" transform="matrix(1.0, 0.0, 0.0, 1.0, 71.1, 58.3)">
      <path d="M-53.35 -57.6 L-53.15 -57.6 -52.05 -57.65 -52.1 -57.55 -53.65 -53.55 -55.75 -48.4 Q-59.35 -39.2 -61.4 -32.6 -63.5 -26.1 -64.95 -20.05 -65.65 -17.6 -65.8 -15.05 L-66.35 -8.1 Q-66.6 -3.65 -65.75 2.15 L-63.65 15.5 Q-62.35 23.1 -61.45 26.35 L-60.15 29.8 -59.0 31.85 -60.5 30.45 -60.7 30.2 Q-62.35 27.95 -63.35 25.1 -64.45 22.0 -66.0 14.75 L-68.5 1.95 Q-69.5 -3.6 -69.25 -7.85 L-68.8 -14.5 Q-68.6 -16.9 -67.9 -19.25 -66.35 -25.05 -64.1 -31.25 -61.9 -37.55 -58.0 -46.35 L-54.95 -53.15 -53.55 -56.35 Q-53.05 -57.6 -53.35 -57.1 L-53.35 -57.15 -53.35 -57.6 M-16.05 -43.45 L-14.05 -40.85 -20.15 -27.05 Q-22.3 -22.05 -23.45 -18.4 L-24.05 -15.9 Q-24.8 -12.65 -24.8 -11.35 L-24.3 -7.5 Q-23.85 -5.05 -23.15 -3.65 L-22.95 -3.1 -24.7 -3.15 -24.9 -3.7 Q-25.55 -5.2 -25.9 -7.75 L-26.3 -11.8 Q-26.3 -13.15 -25.55 -16.55 L-25.0 -19.15 -21.95 -28.2 -16.05 -43.45 M-21.5 -3.05 L-19.75 -3.1 Q-19.05 -3.1 -18.55 -2.3 L-17.75 -0.45 -17.7 -0.3 -16.85 2.35 -16.7 2.65 -16.3 4.2 Q-16.3 4.65 -16.55 4.85 L-17.15 5.1 -17.15 5.15 -17.8 5.25 -19.7 5.75 -20.05 5.6 -19.6 5.5 -19.6 5.45 -19.1 5.15 -18.9 4.85 -18.85 4.5 -19.25 2.85 -19.3 2.55 -20.1 -0.2 -20.1 -0.4 -20.8 -2.3 -21.5 -3.05 M-24.9 9.4 L-25.0 9.75 -25.85 15.4 -25.85 16.3 -25.85 17.05 -25.85 18.1 -26.05 19.25 -26.2 21.5 -26.25 22.5 Q-26.6 24.0 -26.6 28.65 L-27.5 35.25 -28.0 36.65 Q-29.05 39.1 -31.25 40.3 -29.75 37.5 -29.05 33.35 -28.55 30.55 -27.9 20.7 L-27.75 17.75 -27.25 12.9 Q-27.05 11.35 -25.45 9.85 L-24.9 9.4" fill="#bdbdbd" fill-rule="evenodd" stroke="none"/>
      <path d="M-14.05 -40.85 L-13.9 -41.25 -13.35 -40.9 -13.2 -40.75 Q-12.9 -40.35 -12.9 -39.5 -15.55 -34.5 -18.15 -28.4 -23.4 -16.3 -23.4 -10.4 L-22.9 -6.5 -22.45 -4.7 -22.35 -4.45 -20.05 -4.75 -17.7 -4.45 -16.9 -3.05 Q-15.55 -0.4 -15.0 2.6 L-14.85 3.25 Q-14.5 4.95 -14.5 5.55 -14.5 6.45 -15.1 6.7 L-17.0 7.15 -17.45 7.2 Q-19.2 7.45 -20.95 8.4 -22.75 9.3 -23.2 11.05 -23.75 12.75 -23.95 15.35 L-24.05 16.75 -24.1 17.05 -24.4 18.9 -24.55 20.05 -24.5 20.6 -24.75 25.35 -25.25 32.0 -25.75 35.25 -26.1 36.85 Q-27.45 42.0 -32.4 42.2 L-33.4 42.15 Q-36.9 41.9 -39.5 39.6 L-40.8 38.35 -41.2 37.7 Q-44.0 39.05 -45.65 39.05 L-45.95 39.05 Q-47.5 39.0 -48.95 38.35 -51.2 37.4 -53.2 35.05 L-53.2 35.0 -53.4 35.1 -53.85 35.2 -54.9 35.25 Q-62.3 35.25 -65.4 24.75 L-66.85 19.45 -68.1 13.8 -69.8 3.3 Q-71.1 -4.15 -71.1 -7.8 -71.1 -11.5 -69.75 -17.3 -68.4 -23.15 -60.9 -42.85 -54.05 -61.0 -53.4 -57.8 L-53.35 -57.6 -53.35 -57.15 -53.35 -57.1 Q-53.05 -57.6 -53.55 -56.35 L-54.95 -53.15 -58.0 -46.35 Q-61.9 -37.55 -64.1 -31.25 -66.35 -25.05 -67.9 -19.25 -68.6 -16.9 -68.8 -14.5 L-69.25 -7.85 Q-69.5 -3.6 -68.5 1.95 L-66.0 14.75 Q-64.45 22.0 -63.35 25.1 -62.35 27.95 -60.7 30.2 L-60.5 30.45 -59.0 31.85 Q-57.4 32.8 -54.9 33.15 L-54.6 33.2 -55.1 32.45 Q-56.0 31.0 -56.0 30.0 L-55.65 29.2 Q-55.4 28.85 -52.6 32.9 -49.85 36.95 -47.0 36.9 -44.2 36.8 -42.55 35.55 L-41.95 35.15 -41.9 35.0 -41.7 34.8 -41.25 34.75 -40.8 34.85 -39.35 36.75 -38.5 38.25 -35.4 39.95 -33.4 40.45 -31.95 40.65 -31.25 40.3 Q-29.05 39.1 -28.0 36.65 L-27.5 35.25 -26.6 28.65 Q-26.6 24.0 -26.25 22.5 L-26.2 21.5 -26.05 19.25 -25.85 18.1 -25.85 17.05 -25.85 16.3 -25.85 15.4 -25.0 9.75 -24.9 9.4 -24.0 8.15 -22.9 7.3 -22.35 6.95 Q-21.05 6.2 -19.7 5.75 L-17.8 5.25 -17.15 5.15 -17.15 5.1 -16.55 4.85 Q-16.3 4.65 -16.3 4.2 L-16.7 2.65 -16.85 2.35 -17.7 -0.3 -17.75 -0.45 -18.55 -2.3 Q-19.05 -3.1 -19.75 -3.1 L-21.5 -3.05 -22.95 -3.1 -23.15 -3.65 Q-23.85 -5.05 -24.3 -7.5 L-24.8 -11.35 Q-24.8 -12.65 -24.05 -15.9 L-23.45 -18.4 Q-22.3 -22.05 -20.15 -27.05 L-14.05 -40.85" fill="#000000" fill-rule="evenodd" stroke="none"/>
      <path d="M-52.05 -57.65 Q-27.95 -57.95 -16.05 -43.45 L-21.95 -28.2 -25.0 -19.15 -25.55 -16.55 Q-26.3 -13.15 -26.3 -11.8 L-25.9 -7.75 Q-25.55 -5.2 -24.9 -3.7 L-24.7 -3.15 -22.95 -3.1 -21.5 -3.05 -20.8 -2.3 -20.1 -0.4 -20.1 -0.2 -19.3 2.55 -19.25 2.85 -18.85 4.5 -18.9 4.85 -19.1 5.15 -19.6 5.45 -19.6 5.5 -20.05 5.6 -19.7 5.75 Q-21.05 6.2 -22.35 6.95 L-22.9 7.3 -24.0 8.15 -24.9 9.4 -25.45 9.85 Q-27.05 11.35 -27.25 12.9 L-27.75 17.75 -27.9 20.7 Q-28.55 30.55 -29.05 33.35 -29.75 37.5 -31.25 40.3 L-31.95 40.65 -33.4 40.45 -35.4 39.95 -38.5 38.25 -39.35 36.75 -40.8 34.85 -41.25 34.75 -41.7 34.8 -41.9 35.0 -41.95 35.15 -42.55 35.55 Q-44.2 36.8 -47.0 36.9 -49.85 36.95 -52.6 32.9 -55.4 28.85 -55.65 29.2 L-56.0 30.0 Q-56.0 31.0 -55.1 32.45 L-54.6 33.2 -54.9 33.15 Q-57.4 32.8 -59.0 31.85 L-60.15 29.8 -61.45 26.35 Q-62.35 23.1 -63.65 15.5 L-65.75 2.15 Q-66.6 -3.65 -66.35 -8.1 L-65.8 -15.05 Q-65.65 -17.6 -64.95 -20.05 -63.5 -26.1 -61.4 -32.6 -59.35 -39.2 -55.75 -48.4 L-53.65 -53.55 -52.1 -57.55 -52.05 -57.65" fill="#999999" fill-rule="evenodd" stroke="none"/>
    </g>
  </defs>
</svg>
