<?xml version="1.0" encoding="UTF-8" standalone="no"?>
<svg xmlns:xlink="http://www.w3.org/1999/xlink" height="531.5px" width="460.6px" xmlns="http://www.w3.org/2000/svg">
  <g transform="matrix(1.0, 0.0, 0.0, 1.0, 193.65, 334.05)">
    <use height="14.45" transform="matrix(2.0067, 0.0, 0.0, 2.0067, -100.5034, -164.6534)" width="91.55" xlink:href="#sprite0"/>
  </g>
  <defs>
    <g id="sprite0" transform="matrix(1.0, 0.0, 0.0, 1.0, 0.5, 0.5)">
      <use height="14.45" transform="matrix(1.0, 0.0, 0.0, 1.0, -0.5, -0.5)" width="91.55" xlink:href="#shape0"/>
      <use height="13.45" transform="matrix(1.0, 0.0, 0.0, 1.0, 0.05, 0.0)" width="90.5" xlink:href="#sprite1"/>
    </g>
    <g id="shape0" transform="matrix(1.0, 0.0, 0.0, 1.0, 0.5, 0.5)">
      <path d="M89.45 4.75 L88.4 5.6 90.35 7.1 88.1 7.15 86.35 7.15 86.1 6.45 89.55 7.05 87.1 5.6 79.75 5.55 83.8 5.0 88.85 4.75 89.45 4.75 M79.95 7.25 L76.85 7.3 76.65 5.85 79.0 5.65 79.45 7.05 81.3 7.25 79.95 7.25 M83.65 7.2 L83.45 6.3 85.7 7.15 83.65 7.2 M14.85 5.45 L22.9 5.15 22.4 7.05 21.05 7.05 15.3 7.0 14.85 5.45" fill="#2e160e" fill-rule="evenodd" stroke="none"/>
      <path d="M76.65 5.85 L76.45 4.4 79.0 4.35 87.45 4.15 90.3 4.05 89.45 4.75 88.85 4.75 83.8 5.0 79.75 5.55 78.95 5.55 79.0 5.65 76.65 5.85 M23.15 4.25 L22.9 5.15 14.85 5.45 Q14.8 4.85 14.9 4.2 L22.05 4.25 23.15 4.25" fill="#4f2d17" fill-rule="evenodd" stroke="none"/>
      <path d="M88.1 7.15 L90.55 9.4 87.1 8.55 87.45 10.0 84.45 8.35 84.7 10.05 80.45 9.45 79.95 7.25 81.3 7.25 83.7 7.45 83.65 7.2 83.7 7.45 81.3 7.25 79.45 7.05 79.0 5.65 78.95 5.55 79.75 5.55 87.1 5.6 89.55 7.05 86.1 6.45 86.35 7.15 88.1 7.15 M79.0 4.35 L79.4 2.55 83.35 1.55 83.5 3.0 86.2 1.5 86.1 3.05 90.0 1.7 87.45 4.15 79.0 4.35 M85.7 7.15 L83.45 6.3 83.65 7.2 85.7 7.15 86.45 7.45 86.35 7.15 85.7 7.15 86.35 7.15 86.45 7.45 85.7 7.15" fill="#0a4b4b" fill-rule="evenodd" stroke="none"/>
      <path d="M22.9 5.15 L23.15 4.25 22.05 4.25 22.45 2.75 Q25.15 -0.4 24.8 2.65 28.65 2.7 24.65 6.8 24.05 12.85 22.2 8.5 20.8 10.55 20.15 10.6 19.75 8.3 21.05 7.05 L22.4 7.05 22.9 5.15 M26.35 10.25 Q26.8 10.35 27.0 10.85 L26.95 12.1 26.4 13.1 Q25.95 13.55 25.5 13.45 25.05 13.3 24.95 12.75 24.75 12.2 24.95 11.55 25.1 10.85 25.55 10.5 25.9 10.1 26.35 10.25" fill="#b30000" fill-rule="evenodd" stroke="none"/>
      <path d="M14.9 4.2 Q14.8 4.85 14.85 5.45 L15.3 7.0 Q15.75 8.1 16.8 9.15 L10.85 8.15 10.25 7.3 9.0 5.4 8.05 5.5 8.65 3.05 17.2 0.0 Q15.25 2.2 14.9 4.2 M12.75 4.95 L9.0 5.4 12.75 4.95 M6.2 5.7 L6.1 5.7 0.45 6.35 6.1 5.7 7.35 7.55 0.45 6.35 0.05 6.25 0.05 6.15 7.2 3.6 6.2 5.7" fill="#a6a6a6" fill-rule="evenodd" stroke="none"/>
      <path d="M9.0 5.4 L10.25 7.3 10.85 8.15 7.35 7.55 6.1 5.7 6.2 5.7 7.2 3.6 Q7.95 3.35 8.65 3.05 L8.05 5.5 9.0 5.4 M8.05 5.5 L6.2 5.7 8.05 5.5" fill="#ffffff" fill-rule="evenodd" stroke="none"/>
      <path d="M89.45 4.75 L88.4 5.6 90.35 7.1 88.1 7.15 90.55 9.4 87.1 8.55 87.45 10.0 84.45 8.35 84.7 10.05 80.45 9.45 79.95 7.25 76.85 7.3 76.65 5.85 76.45 4.4 79.0 4.35 79.4 2.55 83.35 1.55 83.5 3.0 86.2 1.5 86.1 3.05 90.0 1.7 87.45 4.15 90.3 4.05 89.45 4.75 M79.75 5.55 L87.1 5.6 89.55 7.05 86.1 6.45 86.35 7.15 88.1 7.15 M83.65 7.2 L83.45 6.3 85.7 7.15 86.35 7.15 86.45 7.45 85.7 7.15 83.65 7.2 83.7 7.45 81.3 7.25 79.95 7.25 M79.0 5.65 L78.95 5.55 79.75 5.55 M79.0 5.65 L79.45 7.05 81.3 7.25 M23.15 4.25 L22.05 4.25 14.9 4.2 Q14.8 4.85 14.85 5.45 L15.3 7.0 Q15.75 8.1 16.8 9.15 L10.85 8.15 7.35 7.55 0.45 6.35 6.1 5.7 6.2 5.7 8.05 5.5 9.0 5.4 12.75 4.95 M22.4 7.05 L21.05 7.05 Q19.75 8.3 20.15 10.6 20.8 10.55 22.2 8.5 24.05 12.85 24.65 6.8 28.65 2.7 24.8 2.65 25.15 -0.4 22.45 2.75 L22.05 4.25 M26.35 10.25 Q26.8 10.35 27.0 10.85 L26.95 12.1 26.4 13.1 Q25.95 13.55 25.5 13.45 25.05 13.3 24.95 12.75 24.75 12.2 24.95 11.55 25.1 10.85 25.55 10.5 25.9 10.1 26.35 10.25 M8.65 3.05 L17.2 0.0 Q15.25 2.2 14.9 4.2 M7.2 3.6 Q7.95 3.35 8.65 3.05 M7.2 3.6 L0.05 6.15 0.0 6.15 0.05 6.25 0.45 6.35 M21.05 7.05 L15.3 7.0 M87.45 4.15 L79.0 4.35" fill="none" stroke="#000000" stroke-linecap="round" stroke-linejoin="round" stroke-opacity="0.6627451" stroke-width="1.0"/>
    </g>
    <g id="sprite1" transform="matrix(1.0, 0.0, 0.0, 1.0, -0.05, 0.0)">
      <use height="13.45" transform="matrix(1.0, 0.0, 0.0, 1.0, 0.05, 0.0)" width="90.5" xlink:href="#shape1"/>
    </g>
    <g id="shape1" transform="matrix(1.0, 0.0, 0.0, 1.0, -0.05, 0.0)">
      <path d="M6.15 5.75 L6.1 5.7 6.2 5.7 6.15 5.75" fill="url(#gradient0)" fill-rule="evenodd" stroke="none"/>
      <path d="M87.45 4.15 L90.3 4.05 88.4 5.6 90.35 7.1 88.1 7.15 86.35 7.15 86.1 6.45 89.55 7.05 87.1 5.6 78.95 5.55 79.0 5.65 79.45 7.05 81.3 7.25 79.95 7.25 76.85 7.3 76.45 4.4 79.0 4.35 87.45 4.15" fill="url(#gradient1)" fill-rule="evenodd" stroke="none"/>
      <path d="M87.45 4.15 L79.0 4.35 79.4 2.55 83.35 1.55 83.5 3.0 86.2 1.5 86.1 3.05 90.0 1.7 87.45 4.15" fill="url(#gradient2)" fill-rule="evenodd" stroke="none"/>
      <path d="M79.95 7.25 L81.3 7.25 79.45 7.05 79.0 5.65 78.95 5.55 87.1 5.6 89.55 7.05 86.1 6.45 86.35 7.15 88.1 7.15 90.55 9.4 87.1 8.55 87.45 10.0 84.45 8.35 84.7 10.05 80.45 9.45 79.95 7.25 M83.45 6.3 L83.65 7.2 85.7 7.15 83.45 6.3" fill="url(#gradient3)" fill-rule="evenodd" stroke="none"/>
      <path d="M83.45 6.3 L85.7 7.15 83.65 7.2 83.45 6.3" fill="url(#gradient4)" fill-rule="evenodd" stroke="none"/>
      <path d="M15.3 7.0 Q15.75 8.1 16.8 9.15 L0.45 6.35 0.05 6.25 0.05 6.15 17.2 0.0 Q15.25 2.2 14.9 4.2 14.8 4.85 14.85 5.45 L15.3 7.0 M6.15 5.75 L6.2 5.7 6.1 5.7 6.15 5.75" fill="url(#gradient5)" fill-rule="evenodd" stroke="none"/>
      <path d="M22.05 4.25 L23.15 4.25 22.4 7.05 21.05 7.05 15.3 7.0 14.85 5.45 Q14.8 4.85 14.9 4.2 L22.05 4.25" fill="url(#gradient6)" fill-rule="evenodd" stroke="none"/>
      <path d="M22.05 4.25 L22.45 2.75 Q25.15 -0.4 24.8 2.65 28.65 2.7 24.65 6.8 24.05 12.85 22.2 8.5 20.8 10.55 20.15 10.6 19.75 8.3 21.05 7.05 L22.4 7.05 23.15 4.25 22.05 4.25" fill="url(#gradient7)" fill-rule="evenodd" stroke="none"/>
      <path d="M26.35 10.25 Q26.8 10.35 27.0 10.85 L26.95 12.1 26.4 13.1 Q25.95 13.55 25.5 13.45 25.05 13.3 24.95 12.75 24.75 12.2 24.95 11.55 25.1 10.85 25.55 10.5 25.9 10.1 26.35 10.25" fill="url(#gradient8)" fill-rule="evenodd" stroke="none"/>
    </g>
    <linearGradient gradientTransform="matrix(1.0E-4, 0.0, 0.0, 0.0, 6.15, 5.7)" gradientUnits="userSpaceOnUse" id="gradient0" spreadMethod="pad" x1="-819.2" x2="819.2">
      <stop offset="0.0" stop-color="#000000"/>
      <stop offset="1.0" stop-color="#ffffff"/>
    </linearGradient>
    <linearGradient gradientTransform="matrix(0.0144, 0.0, 0.0, 0.002, 83.4, 5.65)" gradientUnits="userSpaceOnUse" id="gradient1" spreadMethod="pad" x1="-819.2" x2="819.2">
      <stop offset="0.0" stop-color="#000000"/>
      <stop offset="1.0" stop-color="#ffffff"/>
    </linearGradient>
    <linearGradient gradientTransform="matrix(0.0116, -0.0031, 5.0E-4, 0.0017, 84.5, 2.9)" gradientUnits="userSpaceOnUse" id="gradient2" spreadMethod="pad" x1="-819.2" x2="819.2">
      <stop offset="0.0" stop-color="#000000"/>
      <stop offset="1.0" stop-color="#ffffff"/>
    </linearGradient>
    <linearGradient gradientTransform="matrix(0.0107, 0.0029, -7.0E-4, 0.0027, 84.75, 7.8)" gradientUnits="userSpaceOnUse" id="gradient3" spreadMethod="pad" x1="-819.2" x2="819.2">
      <stop offset="0.0" stop-color="#000000"/>
      <stop offset="1.0" stop-color="#ffffff"/>
    </linearGradient>
    <linearGradient gradientTransform="matrix(0.0076, 0.0, 0.0, 5.0E-4, 84.55, 6.75)" gradientUnits="userSpaceOnUse" id="gradient4" spreadMethod="pad" x1="-819.2" x2="819.2">
      <stop offset="0.0" stop-color="#000000"/>
      <stop offset="1.0" stop-color="#ffffff"/>
    </linearGradient>
    <linearGradient gradientTransform="matrix(-0.0046, -0.0172, 0.0054, -0.0014, 9.75, 8.1)" gradientUnits="userSpaceOnUse" id="gradient5" spreadMethod="pad" x1="-819.2" x2="819.2">
      <stop offset="0.0" stop-color="#000000"/>
      <stop offset="1.0" stop-color="#ffffff"/>
    </linearGradient>
    <linearGradient gradientTransform="matrix(0.0171, 0.0, 0.0, 0.0017, 19.0, 5.6)" gradientUnits="userSpaceOnUse" id="gradient6" spreadMethod="pad" x1="-819.2" x2="819.2">
      <stop offset="0.0" stop-color="#000000"/>
      <stop offset="1.0" stop-color="#ffffff"/>
    </linearGradient>
    <linearGradient gradientTransform="matrix(0.0108, 0.0, 0.0, 0.0058, 23.35, 5.85)" gradientUnits="userSpaceOnUse" id="gradient7" spreadMethod="pad" x1="-819.2" x2="819.2">
      <stop offset="0.0" stop-color="#000000"/>
      <stop offset="1.0" stop-color="#ffffff"/>
    </linearGradient>
    <linearGradient gradientTransform="matrix(0.0107, -0.0062, 0.001, 0.0017, 25.95, 11.85)" gradientUnits="userSpaceOnUse" id="gradient8" spreadMethod="pad" x1="-819.2" x2="819.2">
      <stop offset="0.0" stop-color="#000000"/>
      <stop offset="1.0" stop-color="#ffffff"/>
    </linearGradient>
  </defs>
</svg>
