<?xml version="1.0" encoding="UTF-8" standalone="no"?>
<svg xmlns:xlink="http://www.w3.org/1999/xlink" height="531.5px" width="460.6px" xmlns="http://www.w3.org/2000/svg">
  <g transform="matrix(1.0, 0.0, 0.0, 1.0, 193.65, 334.05)">
    <use height="73.65" transform="matrix(0.0831, 0.6732, -0.6732, 0.0831, -4.3265, -8.3497)" width="79.65" xlink:href="#shape0"/>
    <use height="422.55" transform="matrix(0.0143, 0.1158, -0.1158, 0.0143, -4.5577, -7.9269)" width="457.05" xlink:href="#sprite0"/>
    <use height="100.5" transform="matrix(1.0, 0.0, 0.0, 1.0, -71.1, -58.3)" width="58.2" xlink:href="#shape2"/>
  </g>
  <defs>
    <g id="shape0" transform="matrix(1.0, 0.0, 0.0, 1.0, 41.25, 41.3)">
      <path d="M7.7 -38.45 Q13.2 -39.15 17.6 -37.85 L29.9 -23.55 29.9 -23.5 24.2 -29.1 19.05 -33.55 Q17.1 -35.05 15.95 -35.35 L13.45 -35.65 11.1 -36.3 7.85 -36.9 7.7 -38.45 M-37.8 -19.5 Q-40.75 -22.65 -40.75 -27.05 -40.75 -29.8 -39.55 -32.1 L-39.05 -31.4 -38.1 -31.15 Q-37.55 -31.15 -37.05 -31.45 -38.25 -29.5 -38.25 -27.05 -38.25 -25.6 -37.85 -24.35 L-38.0 -22.75 -37.8 -19.5 M-35.55 -36.45 Q-32.95 -38.15 -29.65 -38.15 L-28.35 -38.05 -31.45 -35.45 Q-33.5 -35.05 -35.15 -33.65 L-34.9 -35.0 Q-34.9 -35.9 -35.55 -36.45 M-20.3 -33.1 Q-20.2 -36.4 -19.7 -39.7 -11.3 -41.1 -2.65 -40.75 L-6.8 -39.15 Q-11.75 -37.0 -14.3 -34.45 -16.55 -32.2 -17.5 -29.0 L-18.5 -28.35 -18.6 -28.25 Q-19.4 -27.35 -19.4 -26.15 -19.4 -25.15 -18.85 -24.35 L-18.85 -24.3 -18.8 -24.3 -18.5 -23.95 -18.35 -23.85 -18.5 -21.9 -19.7 -22.0 -19.95 -23.8 Q-20.45 -28.45 -20.3 -33.1" fill="#d9d9d9" fill-rule="evenodd" stroke="none"/>
      <path d="M7.7 -38.45 L7.85 -36.9 11.1 -36.3 13.45 -35.65 15.95 -35.35 Q17.1 -35.05 19.05 -33.55 L24.2 -29.1 29.9 -23.5 30.4 -22.95 34.3 -18.45 Q37.25 -6.1 37.9 6.2 36.15 6.9 34.8 5.25 32.25 -3.95 28.15 -13.2 25.0 -17.45 19.8 -21.7 14.4 -23.65 7.8 -24.45 L8.05 -27.95 Q8.25 -32.45 7.85 -36.9 8.25 -32.45 8.05 -27.95 5.65 -25.4 2.35 -23.75 -0.5 -22.25 -3.9 -21.45 L-18.5 -21.9 -18.35 -23.85 Q-17.5 -23.05 -16.3 -23.05 -15.0 -23.05 -14.1 -23.95 -13.2 -24.85 -13.2 -26.15 L-13.2 -26.2 Q-13.25 -27.45 -14.1 -28.35 -15.0 -29.25 -16.3 -29.25 L-17.5 -29.0 Q-16.55 -32.2 -14.3 -34.45 -11.75 -37.0 -6.8 -39.15 L-2.65 -40.75 7.55 -39.7 7.7 -38.45" fill="#999999" fill-rule="evenodd" stroke="none"/>
      <path d="M15.75 -19.05 L18.55 -18.35 Q23.8 -15.45 25.1 -7.25 L24.0 -6.4 Q20.95 -4.65 14.2 -5.35 L13.75 -11.35 Q13.3 -15.35 12.4 -18.95 L15.75 -19.05 M24.95 -1.45 Q26.7 -0.9 27.5 0.05 28.25 7.15 25.65 13.9 23.75 14.6 21.6 14.85 17.4 15.35 12.3 14.15 L13.2 8.3 Q13.95 2.95 13.95 0.4 L13.9 -1.85 13.85 -2.2 Q21.4 -2.65 24.95 -1.45 M-23.9 -20.9 L-23.65 -20.95 -23.6 -20.85 -20.75 -20.35 -15.55 -18.75 -17.3 -6.4 Q-26.75 -5.05 -31.95 -6.4 L-32.0 -6.65 -31.5 -9.35 -29.85 -14.3 Q-27.35 -19.95 -23.9 -20.9 L-23.6 -20.85 -23.9 -20.9 M-7.7 -19.8 Q-0.4 -20.85 6.7 -18.65 8.75 -12.45 7.0 -5.6 -1.55 -3.25 -8.15 -4.4 -7.95 -5.55 -7.9 -9.1 L-7.7 -18.5 -7.7 -19.8 M-8.9 -1.75 Q-0.6 -2.3 7.2 -1.6 9.15 7.05 6.35 14.75 -1.1 16.35 -8.9 15.55 L-8.7 10.8 -8.5 4.35 Q-8.5 1.85 -8.75 -0.3 L-8.9 -1.75 M-28.8 15.25 Q-30.7 13.2 -31.7 10.4 -32.85 7.05 -32.85 2.1 L-32.55 -1.55 -32.15 -2.9 Q-26.65 -3.0 -17.55 -1.0 -16.7 4.55 -17.55 14.55 L-28.8 15.25" fill="#354a35" fill-rule="evenodd" stroke="none"/>
      <path d="M7.8 -24.3 Q12.1 -22.35 15.75 -19.05 L12.4 -18.95 10.25 -18.35 11.1 -5.8 14.2 -5.35 Q20.95 -4.65 24.0 -6.4 24.7 -4.05 24.95 -1.45 21.4 -2.65 13.85 -2.2 L11.45 -2.05 Q9.4 3.3 10.8 13.8 L12.3 14.15 Q17.4 15.35 21.6 14.85 L19.9 17.4 Q16.8 16.95 11.0 17.55 L8.6 17.8 8.8 26.65 6.65 27.65 Q7.25 21.6 6.25 18.15 L-9.6 18.05 -13.9 18.05 Q-14.45 23.6 -13.55 29.0 L-16.45 28.1 -17.25 18.3 -29.2 17.6 -30.8 17.6 -32.8 14.5 -28.8 15.25 -17.55 14.55 Q-16.7 4.55 -17.55 -1.0 -26.65 -3.0 -32.15 -2.9 L-35.85 -2.55 Q-35.5 -5.1 -34.7 -7.5 L-31.95 -6.4 Q-26.75 -5.05 -17.3 -6.4 L-15.55 -18.75 -20.75 -20.35 -23.6 -20.85 -23.65 -20.95 -23.9 -20.9 -24.5 -20.95 -22.35 -22.4 -19.95 -23.8 -19.7 -22.0 -18.5 -21.9 -3.9 -21.45 7.55 -22.0 7.8 -24.3 M-8.15 -4.4 Q-1.55 -3.25 7.0 -5.6 8.75 -12.45 6.7 -18.65 -0.4 -20.85 -7.7 -19.8 L-12.85 -18.65 -13.85 -6.2 Q-11.2 -4.95 -8.15 -4.4 M-8.9 15.55 Q-1.1 16.35 6.35 14.75 9.15 7.05 7.2 -1.6 -0.6 -2.3 -8.9 -1.75 L-14.1 -1.25 Q-15.4 6.5 -14.1 14.75 L-8.9 15.55" fill="#212e21" fill-rule="evenodd" stroke="none"/>
      <path d="M10.55 28.0 L8.85 28.05 8.8 26.65 8.6 17.8 11.0 17.55 10.75 23.6 10.55 28.0 M-8.5 31.45 L-13.3 30.2 -13.55 29.0 Q-14.45 23.6 -13.9 18.05 L-9.6 18.05 -9.4 21.35 -9.3 25.6 Q-9.15 29.05 -8.5 31.45 M-24.9 26.9 Q-30.5 22.9 -32.6 17.65 L-30.8 17.6 -29.2 17.6 -28.85 19.0 -27.1 23.05 -24.9 26.9 M-32.8 14.5 L-35.45 13.65 Q-38.55 5.9 -37.7 -2.0 L-35.85 -2.55 -32.15 -2.9 -32.55 -1.55 -32.85 2.1 Q-32.85 7.05 -31.7 10.4 -30.7 13.2 -28.8 15.25 L-32.8 14.5 M-34.7 -7.5 L-35.7 -8.2 Q-35.4 -12.7 -33.05 -16.45 L-31.5 -18.6 -30.25 -20.0 Q-28.0 -21.2 -24.5 -20.95 L-23.9 -20.9 Q-27.35 -19.95 -29.85 -14.3 L-31.5 -9.35 -32.0 -6.65 -31.95 -6.4 -34.7 -7.5 M14.2 -5.35 L11.1 -5.8 10.25 -18.35 12.4 -18.95 Q13.3 -15.35 13.75 -11.35 L14.2 -5.35 M13.85 -2.2 L13.9 -1.85 13.95 0.4 Q13.95 2.95 13.2 8.3 L12.3 14.15 10.8 13.8 Q9.4 3.3 11.45 -2.05 L13.85 -2.2 M-8.15 -4.4 Q-11.2 -4.95 -13.85 -6.2 L-12.85 -18.65 -7.7 -19.8 -7.7 -18.5 -7.9 -9.1 Q-7.95 -5.55 -8.15 -4.4 M-8.9 -1.75 L-8.75 -0.3 Q-8.5 1.85 -8.5 4.35 L-8.7 10.8 -8.9 15.55 -14.1 14.75 Q-15.4 6.5 -14.1 -1.25 L-8.9 -1.75" fill="#366636" fill-rule="evenodd" stroke="none"/>
      <path d="M7.8 -24.45 L7.8 -24.3 7.55 -22.0 -3.9 -21.45 Q-0.5 -22.25 2.35 -23.75 5.65 -25.4 8.05 -27.95 L7.8 -24.45" fill="#777777" fill-rule="evenodd" stroke="none"/>
      <path d="M19.9 17.4 L21.45 17.8 Q19.4 23.15 14.2 26.55 12.05 27.7 10.55 28.0 L10.75 23.6 11.0 17.55 Q16.8 16.95 19.9 17.4 M6.65 27.65 L6.5 29.35 Q-0.7 32.85 -8.5 31.45 -9.15 29.05 -9.3 25.6 L-9.4 21.35 -9.6 18.05 6.25 18.15 Q7.25 21.6 6.65 27.65 M-16.45 28.1 L-16.4 28.8 Q-19.65 29.45 -24.15 27.45 L-24.9 26.9 -27.1 23.05 -28.85 19.0 -29.2 17.6 -17.25 18.3 -16.45 28.1" fill="#2a3b2a" fill-rule="evenodd" stroke="none"/>
      <path d="M-17.5 -29.0 L-16.3 -29.25 Q-15.0 -29.25 -14.1 -28.35 -13.25 -27.45 -13.2 -26.2 L-13.2 -26.15 Q-13.2 -24.85 -14.1 -23.95 -15.0 -23.05 -16.3 -23.05 -17.5 -23.05 -18.35 -23.85 L-18.05 -26.65 -17.55 -26.6 Q-16.2 -26.6 -15.45 -26.95 -14.8 -27.25 -14.8 -27.75 -14.8 -28.25 -16.0 -28.6 L-16.55 -28.75 -16.9 -28.75 -16.95 -28.75 -17.65 -28.6 -17.6 -28.65 -17.5 -29.0" fill="#555555" fill-rule="evenodd" stroke="none"/>
      <path d="M-39.55 -32.1 Q-38.8 -33.6 -37.5 -34.9 L-35.55 -36.45 Q-34.9 -35.9 -34.9 -35.0 L-35.15 -33.65 -35.7 -33.1 -37.05 -31.45 Q-37.55 -31.15 -38.1 -31.15 L-39.05 -31.4 -39.55 -32.1 M-17.65 -28.6 L-16.95 -28.75 -16.9 -28.75 -16.55 -28.75 -16.0 -28.6 Q-14.8 -28.25 -14.8 -27.75 -14.8 -27.25 -15.45 -26.95 -16.2 -26.6 -17.55 -26.6 L-18.05 -26.65 Q-18.65 -26.75 -18.65 -27.25 -18.65 -27.75 -18.15 -28.25 L-17.65 -28.6" fill="#ffffff" fill-rule="evenodd" stroke="none"/>
      <path d="M-17.5 -29.0 L-17.6 -28.65 -17.65 -28.6 -18.15 -28.25 Q-18.65 -27.75 -18.65 -27.25 -18.65 -26.75 -18.05 -26.65 L-18.35 -23.85 -18.5 -23.95 -18.8 -24.3 -18.85 -24.35 Q-19.4 -25.15 -19.4 -26.15 -19.4 -27.35 -18.6 -28.25 L-18.5 -28.35 -17.5 -29.0" fill="#eeeeee" fill-rule="evenodd" stroke="none"/>
      <path d="M-33.05 -16.45 Q-35.55 -17.2 -37.5 -19.2 L-37.8 -19.5 -38.0 -22.75 -37.85 -24.35 Q-37.25 -22.45 -35.7 -20.95 -33.9 -19.1 -31.5 -18.6 L-33.05 -16.45 M-28.35 -38.05 Q-24.55 -37.65 -21.8 -34.9 L-20.3 -33.1 Q-20.45 -28.45 -19.95 -23.8 L-22.35 -22.4 Q-21.05 -24.45 -21.05 -27.05 -21.05 -30.6 -23.55 -33.1 -26.05 -35.65 -29.65 -35.65 L-31.45 -35.45 -28.35 -38.05" fill="#b3b3b3" fill-rule="evenodd" stroke="none"/>
      <path d="M29.9 -23.55 L17.6 -37.85 Q13.2 -39.15 7.7 -38.45 L7.85 -36.9 Q8.25 -32.45 8.05 -27.95 L7.8 -24.45 7.8 -24.3 Q12.1 -22.35 15.75 -19.05 L18.55 -18.35 Q23.8 -15.45 25.1 -7.25 L24.0 -6.4 Q24.7 -4.05 24.95 -1.45 26.7 -0.9 27.5 0.05 28.25 7.15 25.65 13.9 23.75 14.6 21.6 14.85 L19.9 17.4 21.45 17.8 Q19.4 23.15 14.2 26.55 12.05 27.7 10.55 28.0 L8.85 28.05 8.8 26.65 6.65 27.65 6.5 29.35 Q-0.7 32.85 -8.5 31.45 L-13.3 30.2 -13.55 29.0 -16.45 28.1 -16.4 28.8 Q-19.65 29.45 -24.15 27.45 L-24.9 26.9 Q-30.5 22.9 -32.6 17.65 L-30.8 17.6 -32.8 14.5 -35.45 13.65 Q-38.55 5.9 -37.7 -2.0 L-35.85 -2.55 Q-35.5 -5.1 -34.7 -7.5 L-35.7 -8.2 Q-35.4 -12.7 -33.05 -16.45 -35.55 -17.2 -37.5 -19.2 L-37.8 -19.5 Q-40.75 -22.65 -40.75 -27.05 -40.75 -29.8 -39.55 -32.1 -38.8 -33.6 -37.5 -34.9 L-35.55 -36.45 Q-32.95 -38.15 -29.65 -38.15 L-28.35 -38.05 Q-24.55 -37.65 -21.8 -34.9 L-20.3 -33.1 Q-20.2 -36.4 -19.7 -39.7 -11.3 -41.1 -2.65 -40.75 L7.55 -39.7 7.7 -38.45 M29.9 -23.55 L30.4 -22.95 34.3 -18.45 Q37.25 -6.1 37.9 6.2 36.15 6.9 34.8 5.25 32.25 -3.95 28.15 -13.2 25.0 -17.45 19.8 -21.7 14.4 -23.65 7.8 -24.45 M14.2 -5.35 L11.1 -5.8 10.25 -18.35 12.4 -18.95 15.75 -19.05 M7.8 -24.3 L7.55 -22.0 -3.9 -21.45 -18.5 -21.9 -19.7 -22.0 -19.95 -23.8 -22.35 -22.4 -24.5 -20.95 -23.9 -20.9 -23.6 -20.85 -20.75 -20.35 -15.55 -18.75 -17.3 -6.4 Q-26.75 -5.05 -31.95 -6.4 L-34.7 -7.5 M14.2 -5.35 Q20.95 -4.65 24.0 -6.4 M13.85 -2.2 L11.45 -2.05 Q9.4 3.3 10.8 13.8 L12.3 14.15 Q17.4 15.35 21.6 14.85 M-7.7 -19.8 Q-0.4 -20.85 6.7 -18.65 8.75 -12.45 7.0 -5.6 -1.55 -3.25 -8.15 -4.4 -11.2 -4.95 -13.85 -6.2 L-12.85 -18.65 -7.7 -19.8 M24.95 -1.45 Q21.4 -2.65 13.85 -2.2 M11.0 17.55 L8.6 17.8 8.8 26.65 M19.9 17.4 Q16.8 16.95 11.0 17.55 M6.65 27.65 Q7.25 21.6 6.25 18.15 L-9.6 18.05 -13.9 18.05 Q-14.45 23.6 -13.55 29.0 M-8.9 15.55 Q-1.1 16.35 6.35 14.75 9.15 7.05 7.2 -1.6 -0.6 -2.3 -8.9 -1.75 L-14.1 -1.25 Q-15.4 6.5 -14.1 14.75 L-8.9 15.55 M-17.5 -29.0 L-16.3 -29.25 Q-15.0 -29.25 -14.1 -28.35 -13.25 -27.45 -13.2 -26.2 L-13.2 -26.15 Q-13.2 -24.85 -14.1 -23.95 -15.0 -23.05 -16.3 -23.05 -17.5 -23.05 -18.35 -23.85 L-18.5 -23.95 -18.8 -24.3 -18.85 -24.3 -18.85 -24.35 Q-19.4 -25.15 -19.4 -26.15 -19.4 -27.35 -18.6 -28.25 L-18.5 -28.35 -17.5 -29.0 M-35.15 -33.65 Q-33.5 -35.05 -31.45 -35.45 L-29.65 -35.65 Q-26.05 -35.65 -23.55 -33.1 -21.05 -30.6 -21.05 -27.05 -21.05 -24.45 -22.35 -22.4 M-37.05 -31.45 L-35.7 -33.1 -35.15 -33.65 M-37.05 -31.45 Q-38.25 -29.5 -38.25 -27.05 -38.25 -25.6 -37.85 -24.35 -37.25 -22.45 -35.7 -20.95 -33.9 -19.1 -31.5 -18.6 L-30.25 -20.0 Q-28.0 -21.2 -24.5 -20.95 M-31.5 -18.6 L-33.05 -16.45 M-28.8 15.25 L-17.55 14.55 Q-16.7 4.55 -17.55 -1.0 -26.65 -3.0 -32.15 -2.9 L-35.85 -2.55 M-18.8 -24.3 L-18.85 -24.35 M-19.95 -23.8 Q-20.45 -28.45 -20.3 -33.1 M-30.8 17.6 L-29.2 17.6 -17.25 18.3 -16.45 28.1 M-32.8 14.5 L-28.8 15.25" fill="none" stroke="#000000" stroke-linecap="round" stroke-linejoin="round" stroke-opacity="0.65882355" stroke-width="1.0"/>
    </g>
    <g id="sprite0" transform="matrix(1.0, 0.0, 0.0, 1.0, 228.5, 211.25)">
      <use height="422.55" transform="matrix(1.0, 0.0, 0.0, 1.0, -228.5, -211.25)" width="457.05" xlink:href="#shape1"/>
    </g>
    <g id="shape1" transform="matrix(1.0, 0.0, 0.0, 1.0, 228.5, 211.25)">
      <path d="M53.75 -116.05 Q54.7 -126.35 55.15 -136.5 56.3 -162.7 54.0 -188.3 L53.05 -197.55 Q85.2 -201.5 110.55 -194.05 L182.25 -110.7 182.05 -110.55 185.15 -107.35 207.75 -81.1 Q224.8 -9.5 228.55 62.05 218.6 66.2 210.65 56.55 195.75 3.0 172.0 -50.6 153.8 -75.3 123.55 -100.0 92.1 -111.5 53.75 -116.05" fill="url(#gradient0)" fill-rule="evenodd" stroke="none"/>
      <path d="M53.05 -197.55 L54.0 -188.3 Q56.3 -162.7 55.15 -136.5 54.7 -126.35 53.75 -116.05 L53.65 -115.2 52.15 -101.9 Q18.85 -99.2 -14.45 -98.75 -56.85 -98.2 -99.25 -101.35 L-106.15 -101.9 -106.2 -101.9 -107.5 -112.15 Q-110.6 -139.2 -109.6 -166.2 -108.95 -185.45 -106.2 -204.7 -57.25 -212.95 -7.0 -210.8 22.35 -209.55 52.15 -204.7 L53.05 -197.55 M-100.95 -115.3 L-99.15 -113.25 -98.45 -112.55 Q-93.4 -108.0 -86.45 -108.0 -78.95 -108.0 -73.7 -113.25 -68.5 -118.5 -68.5 -125.95 L-68.5 -126.2 Q-68.6 -133.5 -73.7 -138.65 -78.95 -143.9 -86.45 -143.9 -90.25 -143.9 -93.5 -142.5 -96.6 -141.2 -99.15 -138.65 L-99.7 -138.05 Q-104.4 -133.0 -104.4 -125.95 -104.4 -120.1 -101.15 -115.6 L-101.25 -115.15 -100.95 -115.3" fill="url(#gradient1)" fill-rule="evenodd" stroke="none"/>
      <path d="M-101.15 -115.6 Q-104.4 -120.1 -104.4 -125.95 -104.4 -133.0 -99.7 -138.05 L-99.15 -138.65 Q-96.6 -141.2 -93.5 -142.5 -90.25 -143.9 -86.45 -143.9 -78.95 -143.9 -73.7 -138.65 -68.6 -133.5 -68.5 -126.2 L-68.5 -125.95 Q-68.5 -118.5 -73.7 -113.25 -78.95 -108.0 -86.45 -108.0 -93.4 -108.0 -98.45 -112.55 L-99.15 -113.25 -100.95 -115.3 -101.15 -115.6" fill="url(#gradient2)" fill-rule="evenodd" stroke="none"/>
      <path d="M-107.5 -112.15 L-106.2 -101.9 -106.15 -101.9 -99.25 -101.35 Q-56.85 -98.2 -14.45 -98.75 18.85 -99.2 52.15 -101.9 L53.65 -115.2 Q78.6 -103.9 100.0 -84.55 90.15 -85.8 80.3 -84.0 74.05 -82.85 67.85 -80.5 L73.0 -7.65 90.75 -5.15 Q130.0 -0.9 147.85 -11.25 151.95 2.65 153.45 17.55 132.75 10.8 88.9 13.2 L74.95 14.1 Q62.85 45.15 71.15 106.2 L79.9 108.4 Q109.5 115.25 133.8 112.35 129.3 120.05 123.9 127.35 105.9 124.55 72.15 128.1 L58.3 129.7 59.6 181.15 Q53.45 184.2 47.1 186.8 50.4 151.65 44.55 131.55 L-72.5 131.05 Q-75.6 163.4 -70.3 194.55 -78.95 192.45 -87.2 189.55 L-91.9 132.55 Q-135.05 128.9 -161.55 128.4 L-170.65 128.35 Q-177.25 119.6 -182.45 110.4 -171.25 113.35 -159.0 114.6 -129.45 117.6 -93.75 110.7 -88.6 52.65 -93.75 20.15 -146.55 8.6 -178.45 9.1 -190.9 9.25 -200.15 11.3 -198.1 -3.65 -193.3 -17.5 -186.5 -13.65 -177.5 -11.25 -147.3 -3.15 -92.25 -11.25 L-81.95 -82.9 Q-98.35 -89.0 -112.3 -92.25 -121.15 -94.35 -129.0 -95.25 L-130.7 -95.4 -134.0 -95.7 Q-127.95 -100.3 -121.55 -104.25 -114.7 -108.55 -107.5 -112.15 M48.9 -6.4 Q59.1 -46.15 47.35 -82.3 6.15 -95.1 -36.55 -88.9 -51.45 -86.75 -66.5 -82.3 L-72.15 -10.05 Q-56.85 -2.6 -39.0 0.45 -0.8 7.05 48.9 -6.4 M50.25 16.9 Q4.8 12.65 -43.5 16.05 L-73.75 18.9 Q-81.15 63.75 -73.75 111.9 -58.45 114.9 -43.35 116.45 2.05 121.0 45.25 111.9 61.45 67.2 50.25 16.9" fill="url(#gradient3)" fill-rule="evenodd" stroke="none"/>
      <path d="M48.9 -6.4 Q-0.8 7.05 -39.0 0.45 -56.85 -2.6 -72.15 -10.05 L-66.5 -82.3 Q-51.45 -86.75 -36.55 -88.9 6.15 -95.1 47.35 -82.3 59.1 -46.15 48.9 -6.4" fill="url(#gradient4)" fill-rule="evenodd" stroke="none"/>
      <path d="M50.25 16.9 Q61.45 67.2 45.25 111.9 2.05 121.0 -43.35 116.45 -58.45 114.9 -73.75 111.9 -81.15 63.75 -73.75 18.9 L-43.5 16.05 Q4.8 12.65 50.25 16.9" fill="url(#gradient5)" fill-rule="evenodd" stroke="none"/>
      <path d="M147.85 -11.25 Q130.0 -0.9 90.75 -5.15 L73.0 -7.65 67.85 -80.5 Q74.05 -82.85 80.3 -84.0 90.15 -85.8 100.0 -84.55 108.1 -83.55 116.15 -80.5 146.7 -63.85 154.25 -16.15 151.5 -13.4 147.85 -11.25" fill="url(#gradient6)" fill-rule="evenodd" stroke="none"/>
      <path d="M133.8 112.35 Q109.5 115.25 79.9 108.4 L71.15 106.2 Q62.85 45.15 74.95 14.1 L88.9 13.2 Q132.75 10.8 153.45 17.55 163.65 20.9 168.25 26.45 172.55 67.55 157.45 106.8 146.35 110.85 133.8 112.35" fill="url(#gradient7)" fill-rule="evenodd" stroke="none"/>
      <path d="M59.6 181.15 L58.3 129.7 72.15 128.1 Q105.9 124.55 123.9 127.35 129.05 128.15 132.9 129.45 121.2 160.55 90.9 180.55 78.35 187.05 69.8 188.85 63.85 190.05 59.8 189.05 L59.6 181.15" fill="url(#gradient8)" fill-rule="evenodd" stroke="none"/>
      <path d="M47.1 186.8 L46.05 196.6 Q4.25 217.1 -41.2 209.05 -54.95 206.65 -69.0 201.6 L-70.3 194.55 Q-75.6 163.4 -72.5 131.05 L44.55 131.55 Q50.4 151.65 47.1 186.8" fill="url(#gradient9)" fill-rule="evenodd" stroke="none"/>
      <path d="M-109.6 -166.2 Q-110.6 -139.2 -107.5 -112.15 -114.7 -108.55 -121.55 -104.25 -113.9 -116.1 -113.9 -131.1 -113.9 -151.8 -128.55 -166.45 -143.2 -181.1 -163.95 -181.1 L-174.6 -180.05 Q-186.5 -177.6 -196.05 -169.45 L-199.3 -166.45 Q-203.85 -161.9 -207.0 -156.7 -213.95 -145.35 -213.95 -131.1 -213.95 -122.85 -211.6 -115.55 -208.15 -104.55 -199.3 -95.7 -188.65 -85.05 -174.75 -82.1 -179.85 -76.0 -183.9 -69.5 -198.2 -74.05 -209.6 -85.45 L-211.4 -87.3 Q-228.5 -105.65 -228.5 -131.1 -228.5 -147.25 -221.6 -160.5 -217.1 -169.25 -209.6 -176.75 -204.25 -182.1 -198.3 -185.9 -183.15 -195.65 -163.95 -195.65 L-156.35 -195.25 Q-134.45 -192.9 -118.3 -176.75 -113.3 -171.75 -109.6 -166.2" fill="url(#gradient10)" fill-rule="evenodd" stroke="none"/>
      <path d="M-193.3 -17.5 L-199.3 -21.55 Q-197.5 -47.7 -183.9 -69.5 -179.85 -76.0 -174.75 -82.1 L-167.4 -90.2 Q-154.35 -97.15 -134.0 -95.7 L-130.7 -95.4 -129.0 -95.25 Q-121.15 -94.35 -112.3 -92.25 -98.35 -89.0 -81.95 -82.9 L-92.25 -11.25 Q-147.3 -3.15 -177.5 -11.25 -186.5 -13.65 -193.3 -17.5" fill="url(#gradient11)" fill-rule="evenodd" stroke="none"/>
      <path d="M-87.2 189.55 L-86.9 193.6 Q-105.85 197.4 -132.0 185.6 L-136.5 182.5 Q-169.05 159.35 -181.05 128.55 L-170.65 128.35 -161.55 128.4 Q-135.05 128.9 -91.9 132.55 L-87.2 189.55" fill="url(#gradient12)" fill-rule="evenodd" stroke="none"/>
      <path d="M-182.45 110.4 Q-190.35 108.3 -197.75 105.35 -215.9 60.35 -210.75 14.6 -206.1 12.55 -200.15 11.3 -190.9 9.25 -178.45 9.1 -146.55 8.6 -93.75 20.15 -88.6 52.65 -93.75 110.7 -129.45 117.6 -159.0 114.6 -171.25 113.35 -182.45 110.4" fill="url(#gradient13)" fill-rule="evenodd" stroke="none"/>
    </g>
    <linearGradient gradientTransform="matrix(0.1071, 0.0, 0.0, 0.16, 140.8, -67.8)" gradientUnits="userSpaceOnUse" id="gradient0" spreadMethod="pad" x1="-819.2" x2="819.2">
      <stop offset="0.0" stop-color="#ffffff"/>
      <stop offset="1.0" stop-color="#000000"/>
    </linearGradient>
    <linearGradient gradientTransform="matrix(0.101, 0.0, 0.0, 0.0687, -27.15, -154.95)" gradientUnits="userSpaceOnUse" id="gradient1" spreadMethod="pad" x1="-819.2" x2="819.2">
      <stop offset="0.0" stop-color="#ffffff"/>
      <stop offset="1.0" stop-color="#000000"/>
    </linearGradient>
    <linearGradient gradientTransform="matrix(0.0219, 0.0, 0.0, 0.0219, -86.45, -125.95)" gradientUnits="userSpaceOnUse" id="gradient2" spreadMethod="pad" x1="-819.2" x2="819.2">
      <stop offset="0.0" stop-color="#ffffff"/>
      <stop offset="1.0" stop-color="#000000"/>
    </linearGradient>
    <linearGradient gradientTransform="matrix(0.2158, 0.0, 0.0, 0.1891, -23.35, 39.65)" gradientUnits="userSpaceOnUse" id="gradient3" spreadMethod="pad" x1="-819.2" x2="819.2">
      <stop offset="0.0" stop-color="#ffffff"/>
      <stop offset="1.0" stop-color="#000000"/>
    </linearGradient>
    <linearGradient gradientTransform="matrix(0.0768, 0.0, 0.0, 0.0571, -9.25, -44.15)" gradientUnits="userSpaceOnUse" id="gradient4" spreadMethod="pad" x1="-819.2" x2="819.2">
      <stop offset="0.0" stop-color="#ffffff"/>
      <stop offset="1.0" stop-color="#000000"/>
    </linearGradient>
    <linearGradient gradientTransform="matrix(0.0807, 0.0, 0.0, 0.0631, -11.3, 66.25)" gradientUnits="userSpaceOnUse" id="gradient5" spreadMethod="pad" x1="-819.2" x2="819.2">
      <stop offset="0.0" stop-color="#ffffff"/>
      <stop offset="1.0" stop-color="#000000"/>
    </linearGradient>
    <linearGradient gradientTransform="matrix(0.0527, 0.0, 0.0, 0.0495, 111.05, -44.5)" gradientUnits="userSpaceOnUse" id="gradient6" spreadMethod="pad" x1="-819.2" x2="819.2">
      <stop offset="0.0" stop-color="#ffffff"/>
      <stop offset="1.0" stop-color="#000000"/>
    </linearGradient>
    <linearGradient gradientTransform="matrix(0.0619, 0.0, 0.0, 0.0614, 118.45, 62.85)" gradientUnits="userSpaceOnUse" id="gradient7" spreadMethod="pad" x1="-819.2" x2="819.2">
      <stop offset="0.0" stop-color="#ffffff"/>
      <stop offset="1.0" stop-color="#000000"/>
    </linearGradient>
    <linearGradient gradientTransform="matrix(0.0455, 0.0, 0.0, 0.0387, 95.6, 157.8)" gradientUnits="userSpaceOnUse" id="gradient8" spreadMethod="pad" x1="-819.2" x2="819.2">
      <stop offset="0.0" stop-color="#ffffff"/>
      <stop offset="1.0" stop-color="#000000"/>
    </linearGradient>
    <linearGradient gradientTransform="matrix(0.0744, 0.0, 0.0, 0.049, -12.7, 171.15)" gradientUnits="userSpaceOnUse" id="gradient9" spreadMethod="pad" x1="-819.2" x2="819.2">
      <stop offset="0.0" stop-color="#ffffff"/>
      <stop offset="1.0" stop-color="#000000"/>
    </linearGradient>
    <linearGradient gradientTransform="matrix(0.0739, 0.0, 0.0, 0.077, -168.0, -132.6)" gradientUnits="userSpaceOnUse" id="gradient10" spreadMethod="pad" x1="-819.2" x2="819.2">
      <stop offset="0.0" stop-color="#ffffff"/>
      <stop offset="1.0" stop-color="#000000"/>
    </linearGradient>
    <linearGradient gradientTransform="matrix(0.0716, 0.0, 0.0, 0.0542, -140.65, -51.6)" gradientUnits="userSpaceOnUse" id="gradient11" spreadMethod="pad" x1="-819.2" x2="819.2">
      <stop offset="0.0" stop-color="#ffffff"/>
      <stop offset="1.0" stop-color="#000000"/>
    </linearGradient>
    <linearGradient gradientTransform="matrix(0.0575, 0.0, 0.0, 0.0404, -134.0, 161.45)" gradientUnits="userSpaceOnUse" id="gradient12" spreadMethod="pad" x1="-819.2" x2="819.2">
      <stop offset="0.0" stop-color="#ffffff"/>
      <stop offset="1.0" stop-color="#000000"/>
    </linearGradient>
    <linearGradient gradientTransform="matrix(0.0737, 0.0, 0.0, 0.0649, -151.55, 62.3)" gradientUnits="userSpaceOnUse" id="gradient13" spreadMethod="pad" x1="-819.2" x2="819.2">
      <stop offset="0.0" stop-color="#ffffff"/>
      <stop offset="1.0" stop-color="#000000"/>
    </linearGradient>
    <g id="shape2" transform="matrix(1.0, 0.0, 0.0, 1.0, 71.1, 58.3)">
      <path d="M-53.35 -57.6 L-53.15 -57.6 -52.05 -57.65 -52.1 -57.55 -53.65 -53.55 -55.75 -48.4 Q-59.35 -39.2 -61.4 -32.6 -63.5 -26.1 -64.95 -20.05 -65.65 -17.6 -65.8 -15.05 L-66.35 -8.1 Q-66.6 -3.65 -65.75 2.15 L-63.65 15.5 Q-62.35 23.1 -61.45 26.35 L-60.15 29.8 -59.0 31.85 -60.5 30.45 -60.7 30.2 Q-62.35 27.95 -63.35 25.1 -64.45 22.0 -66.0 14.75 L-68.5 1.95 Q-69.5 -3.6 -69.25 -7.85 L-68.8 -14.5 Q-68.6 -16.9 -67.9 -19.25 -66.35 -25.05 -64.1 -31.25 -61.9 -37.55 -58.0 -46.35 L-54.95 -53.15 -53.55 -56.35 Q-53.05 -57.6 -53.35 -57.1 L-53.35 -57.15 -53.35 -57.6 M-16.05 -43.45 L-14.05 -40.85 -20.15 -27.05 Q-22.3 -22.05 -23.45 -18.4 L-24.05 -15.9 Q-24.8 -12.65 -24.8 -11.35 L-24.3 -7.5 Q-23.85 -5.05 -23.15 -3.65 L-22.95 -3.1 -24.7 -3.15 -24.9 -3.7 Q-25.55 -5.2 -25.9 -7.75 L-26.3 -11.8 Q-26.3 -13.15 -25.55 -16.55 L-25.0 -19.15 -21.95 -28.2 -16.05 -43.45 M-21.5 -3.05 L-19.75 -3.1 Q-19.05 -3.1 -18.55 -2.3 L-17.75 -0.45 -17.7 -0.3 -16.85 2.35 -16.7 2.65 -16.3 4.2 Q-16.3 4.65 -16.55 4.85 L-17.15 5.1 -17.15 5.15 -17.8 5.25 -19.7 5.75 -20.05 5.6 -19.6 5.5 -19.6 5.45 -19.1 5.15 -18.9 4.85 -18.85 4.5 -19.25 2.85 -19.3 2.55 -20.1 -0.2 -20.1 -0.4 -20.8 -2.3 -21.5 -3.05 M-24.9 9.4 L-25.0 9.75 -25.85 15.4 -25.85 16.3 -25.85 17.05 -25.85 18.1 -26.05 19.25 -26.2 21.5 -26.25 22.5 Q-26.6 24.0 -26.6 28.65 L-27.5 35.25 -28.0 36.65 Q-29.05 39.1 -31.25 40.3 -29.75 37.5 -29.05 33.35 -28.55 30.55 -27.9 20.7 L-27.75 17.75 -27.25 12.9 Q-27.05 11.35 -25.45 9.85 L-24.9 9.4" fill="#bdbdbd" fill-rule="evenodd" stroke="none"/>
      <path d="M-14.05 -40.85 L-13.9 -41.25 -13.35 -40.9 -13.2 -40.75 Q-12.9 -40.35 -12.9 -39.5 -15.55 -34.5 -18.15 -28.4 -23.4 -16.3 -23.4 -10.4 L-22.9 -6.5 -22.45 -4.7 -22.35 -4.45 -20.05 -4.75 -17.7 -4.45 -16.9 -3.05 Q-15.55 -0.4 -15.0 2.6 L-14.85 3.25 Q-14.5 4.95 -14.5 5.55 -14.5 6.45 -15.1 6.7 L-17.0 7.15 -17.45 7.2 Q-19.2 7.45 -20.95 8.4 -22.75 9.3 -23.2 11.05 -23.75 12.75 -23.95 15.35 L-24.05 16.75 -24.1 17.05 -24.4 18.9 -24.55 20.05 -24.5 20.6 -24.75 25.35 -25.25 32.0 -25.75 35.25 -26.1 36.85 Q-27.45 42.0 -32.4 42.2 L-33.4 42.15 Q-36.9 41.9 -39.5 39.6 L-40.8 38.35 -41.2 37.7 Q-44.0 39.05 -45.65 39.05 L-45.95 39.05 Q-47.5 39.0 -48.95 38.35 -51.2 37.4 -53.2 35.05 L-53.2 35.0 -53.4 35.1 -53.85 35.2 -54.9 35.25 Q-62.3 35.25 -65.4 24.75 L-66.85 19.45 -68.1 13.8 -69.8 3.3 Q-71.1 -4.15 -71.1 -7.8 -71.1 -11.5 -69.75 -17.3 -68.4 -23.15 -60.9 -42.85 -54.05 -61.0 -53.4 -57.8 L-53.35 -57.6 -53.35 -57.15 -53.35 -57.1 Q-53.05 -57.6 -53.55 -56.35 L-54.95 -53.15 -58.0 -46.35 Q-61.9 -37.55 -64.1 -31.25 -66.35 -25.05 -67.9 -19.25 -68.6 -16.9 -68.8 -14.5 L-69.25 -7.85 Q-69.5 -3.6 -68.5 1.95 L-66.0 14.75 Q-64.45 22.0 -63.35 25.1 -62.35 27.95 -60.7 30.2 L-60.5 30.45 -59.0 31.85 Q-57.4 32.8 -54.9 33.15 L-54.6 33.2 -55.1 32.45 Q-56.0 31.0 -56.0 30.0 L-55.65 29.2 Q-55.4 28.85 -52.6 32.9 -49.85 36.95 -47.0 36.9 -44.2 36.8 -42.55 35.55 L-41.95 35.15 -41.9 35.0 -41.7 34.8 -41.25 34.75 -40.8 34.85 -39.35 36.75 -38.5 38.25 -35.4 39.95 -33.4 40.45 -31.95 40.65 -31.25 40.3 Q-29.05 39.1 -28.0 36.65 L-27.5 35.25 -26.6 28.65 Q-26.6 24.0 -26.25 22.5 L-26.2 21.5 -26.05 19.25 -25.85 18.1 -25.85 17.05 -25.85 16.3 -25.85 15.4 -25.0 9.75 -24.9 9.4 -24.0 8.15 -22.9 7.3 -22.35 6.95 Q-21.05 6.2 -19.7 5.75 L-17.8 5.25 -17.15 5.15 -17.15 5.1 -16.55 4.85 Q-16.3 4.65 -16.3 4.2 L-16.7 2.65 -16.85 2.35 -17.7 -0.3 -17.75 -0.45 -18.55 -2.3 Q-19.05 -3.1 -19.75 -3.1 L-21.5 -3.05 -22.95 -3.1 -23.15 -3.65 Q-23.85 -5.05 -24.3 -7.5 L-24.8 -11.35 Q-24.8 -12.65 -24.05 -15.9 L-23.45 -18.4 Q-22.3 -22.05 -20.15 -27.05 L-14.05 -40.85" fill="#000000" fill-rule="evenodd" stroke="none"/>
      <path d="M-52.05 -57.65 Q-27.95 -57.95 -16.05 -43.45 L-21.95 -28.2 -25.0 -19.15 -25.55 -16.55 Q-26.3 -13.15 -26.3 -11.8 L-25.9 -7.75 Q-25.55 -5.2 -24.9 -3.7 L-24.7 -3.15 -22.95 -3.1 -21.5 -3.05 -20.8 -2.3 -20.1 -0.4 -20.1 -0.2 -19.3 2.55 -19.25 2.85 -18.85 4.5 -18.9 4.85 -19.1 5.15 -19.6 5.45 -19.6 5.5 -20.05 5.6 -19.7 5.75 Q-21.05 6.2 -22.35 6.95 L-22.9 7.3 -24.0 8.15 -24.9 9.4 -25.45 9.85 Q-27.05 11.35 -27.25 12.9 L-27.75 17.75 -27.9 20.7 Q-28.55 30.55 -29.05 33.35 -29.75 37.5 -31.25 40.3 L-31.95 40.65 -33.4 40.45 -35.4 39.95 -38.5 38.25 -39.35 36.75 -40.8 34.85 -41.25 34.75 -41.7 34.8 -41.9 35.0 -41.95 35.15 -42.55 35.55 Q-44.2 36.8 -47.0 36.9 -49.85 36.95 -52.6 32.9 -55.4 28.85 -55.65 29.2 L-56.0 30.0 Q-56.0 31.0 -55.1 32.45 L-54.6 33.2 -54.9 33.15 Q-57.4 32.8 -59.0 31.85 L-60.15 29.8 -61.45 26.35 Q-62.35 23.1 -63.65 15.5 L-65.75 2.15 Q-66.6 -3.65 -66.35 -8.1 L-65.8 -15.05 Q-65.65 -17.6 -64.95 -20.05 -63.5 -26.1 -61.4 -32.6 -59.35 -39.2 -55.75 -48.4 L-53.65 -53.55 -52.1 -57.55 -52.05 -57.65" fill="#999999" fill-rule="evenodd" stroke="none"/>
    </g>
  </defs>
</svg>
