<?xml version="1.0" encoding="UTF-8" standalone="no"?>
<svg xmlns:xlink="http://www.w3.org/1999/xlink" height="531.5px" width="460.6px" xmlns="http://www.w3.org/2000/svg">
  <g transform="matrix(1.0, 0.0, 0.0, 1.0, 193.65, 334.05)">
    <use height="102.35" transform="matrix(1.4377, -0.0321, 0.0321, 1.4377, -3.9342, -98.8034)" width="92.55" xlink:href="#sprite0"/>
  </g>
  <defs>
    <g id="sprite0" transform="matrix(1.0, 0.0, 0.0, 1.0, 46.25, 51.15)">
      <use height="102.35" transform="matrix(1.0, 0.0, 0.0, 1.0, -46.25, -51.15)" width="92.55" xlink:href="#shape0"/>
      <use height="101.35" transform="matrix(1.0, 0.0, 0.0, 1.0, -45.75, -50.65)" width="91.55" xlink:href="#sprite1"/>
    </g>
    <g id="shape0" transform="matrix(1.0, 0.0, 0.0, 1.0, 46.25, 51.15)">
      <path d="M7.95 -49.3 Q22.4 -47.4 33.1 -35.0 L35.85 -31.55 Q39.15 -27.05 41.35 -22.0 L38.7 -17.7 Q36.7 -23.0 33.45 -27.7 L30.3 -31.75 Q27.25 -35.25 23.85 -37.85 16.45 -43.55 7.45 -44.75 L2.5 -45.05 -0.25 -45.0 Q-8.7 -44.4 -15.8 -40.0 -20.9 -36.85 -25.3 -31.75 -36.35 -18.9 -36.75 -0.9 L-36.8 0.5 Q-36.8 14.7 -30.3 25.75 L-28.2 29.05 Q-29.15 29.45 -29.65 29.75 L-32.05 30.75 -34.3 27.0 Q-40.75 15.3 -40.75 0.5 -40.75 -20.3 -28.05 -35.0 -16.5 -48.4 -0.5 -49.55 L2.55 -49.65 7.95 -49.3 M4.2 -33.75 L3.15 -34.55 Q2.0 -35.7 2.0 -37.35 2.0 -39.0 3.15 -40.2 4.35 -41.35 6.0 -41.35 7.65 -41.35 8.8 -40.2 L8.85 -40.15 7.1 -37.25 Q5.65 -35.1 4.2 -33.75 M3.3 -22.35 Q6.15 -23.6 9.3 -23.85 L10.75 -23.85 13.4 -23.7 15.3 -23.35 Q19.5 -22.3 23.1 -19.3 19.5 -22.3 15.3 -23.35 L23.85 -37.85 23.1 -19.3 25.5 -16.95 25.65 -16.75 Q29.2 -12.65 30.7 -7.5 L28.05 -4.9 Q26.85 -10.1 23.4 -14.15 L23.3 -14.3 Q18.85 -19.25 13.0 -20.05 L10.75 -20.2 9.5 -20.2 Q2.9 -19.7 -1.9 -14.15 -7.15 -8.1 -7.15 0.5 -7.15 6.75 -4.35 11.7 -3.35 13.55 -1.9 15.2 L-1.35 15.8 -1.9 15.2 Q-3.35 13.55 -4.35 11.7 -7.15 6.75 -7.15 0.5 -7.15 -8.1 -1.9 -14.15 2.9 -19.7 9.5 -20.2 L10.75 -20.2 13.0 -20.05 Q18.85 -19.25 23.3 -14.3 L23.4 -14.15 Q26.85 -10.1 28.05 -4.9 L24.7 -1.9 17.1 4.4 Q17.9 2.65 17.9 0.5 17.9 -2.55 16.3 -4.75 L15.8 -5.4 15.5 -5.75 Q14.0 -7.3 12.1 -7.7 L12.15 -7.55 Q12.65 -5.85 12.65 -4.65 L12.55 -2.75 11.85 -0.05 Q11.1 1.75 9.4 4.1 7.85 6.1 6.25 7.05 L5.6 6.4 4.45 4.65 3.75 2.8 Q3.5 1.7 3.5 0.5 3.5 -3.0 5.6 -5.4 7.55 -7.65 10.2 -7.85 L10.7 -7.85 11.6 -7.8 12.1 -7.7 11.6 -7.8 10.7 -7.85 10.2 -7.85 Q7.55 -7.65 5.6 -5.4 3.5 -3.0 3.5 0.5 3.5 1.7 3.75 2.8 L4.45 4.65 5.6 6.4 6.25 7.05 Q7.5 8.2 9.0 8.6 L9.15 8.65 10.7 8.8 10.75 8.8 10.0 9.25 -1.35 15.8 -4.4 17.5 -7.05 13.65 -7.35 13.1 -7.05 13.65 -4.4 17.5 -11.2 21.15 -7.85 14.2 -7.35 13.1 Q-8.85 10.25 -9.6 7.05 -10.3 3.95 -10.3 0.5 -10.3 -2.4 -9.8 -5.05 -10.3 -2.4 -10.3 0.5 -10.3 3.95 -9.6 7.05 L-36.75 -0.9 -9.8 -5.05 Q-8.8 -10.2 -5.95 -14.4 L-4.15 -16.75 Q-0.8 -20.6 3.3 -22.35 -0.8 -20.6 -4.15 -16.75 L-5.95 -14.4 -15.8 -40.0 3.3 -22.35 M31.1 -21.15 L31.35 -20.75 31.45 -18.95 Q31.45 -17.1 31.1 -16.25 L30.4 -15.45 30.25 -15.3 Q29.5 -15.65 28.95 -16.4 28.15 -17.45 28.3 -18.7 28.45 -20.0 29.4 -20.7 30.15 -21.25 31.1 -21.15 M25.35 12.6 L25.15 15.05 Q25.15 16.3 25.65 17.8 L23.25 20.25 Q19.55 23.45 15.05 24.45 L10.75 24.9 6.2 24.4 5.75 24.3 7.75 22.45 8.75 21.1 10.75 21.2 Q18.15 21.2 23.4 15.2 L25.35 12.6 M-24.6 -15.5 Q-25.45 -16.4 -25.65 -17.65 -25.85 -19.3 -24.85 -20.6 -23.85 -21.95 -22.25 -22.15 L-20.5 -22.0 Q-21.1 -20.0 -21.9 -18.5 -22.7 -17.15 -24.1 -15.95 L-24.6 -15.5 M-20.25 12.4 L-21.55 14.75 Q-22.7 16.2 -24.55 17.5 L-25.65 18.25 Q-26.45 17.5 -26.75 16.45 L-26.9 15.4 Q-26.95 14.35 -26.45 13.45 -25.65 11.95 -24.05 11.5 -22.5 11.05 -21.05 11.85 L-20.25 12.4" fill="#ffffff" fill-rule="evenodd" stroke="none"/>
      <path d="M-30.3 25.75 Q-36.8 14.7 -36.8 0.5 L-36.75 -0.9 Q-36.35 -18.9 -25.3 -31.75 -20.9 -36.85 -15.8 -40.0 -8.7 -44.4 -0.25 -45.0 L2.5 -45.05 7.45 -44.75 Q16.45 -43.55 23.85 -37.85 27.25 -35.25 30.3 -31.75 L33.45 -27.7 Q30.4 -23.1 26.1 -17.75 L25.5 -16.95 23.1 -19.3 23.85 -37.85 15.3 -23.35 13.4 -23.7 10.75 -23.85 9.3 -23.85 Q6.15 -23.6 3.3 -22.35 L-15.8 -40.0 -5.95 -14.4 Q-8.8 -10.2 -9.8 -5.05 L-36.75 -0.9 -9.6 7.05 Q-8.85 10.25 -7.35 13.1 L-7.85 14.2 Q-19.2 21.95 -30.3 25.75 M8.85 -40.15 L8.8 -40.2 Q7.65 -41.35 6.0 -41.35 4.35 -41.35 3.15 -40.2 2.0 -39.0 2.0 -37.35 2.0 -35.7 3.15 -34.55 L4.2 -33.75 Q5.0 -33.35 6.0 -33.35 7.65 -33.35 8.8 -34.55 10.0 -35.7 10.0 -37.35 10.0 -38.95 8.85 -40.15 M-20.5 -22.0 L-22.25 -22.15 Q-23.85 -21.95 -24.85 -20.6 -25.85 -19.3 -25.65 -17.65 -25.45 -16.4 -24.6 -15.5 L-24.05 -15.05 Q-22.75 -14.05 -21.15 -14.25 -19.5 -14.5 -18.5 -15.8 -17.5 -17.15 -17.75 -18.75 -17.95 -20.4 -19.25 -21.4 -19.85 -21.85 -20.5 -22.0 M-25.65 18.25 L-24.85 18.85 Q-23.4 19.6 -21.8 19.15 -20.25 18.7 -19.45 17.25 -18.65 15.8 -19.1 14.25 -19.35 13.35 -19.95 12.7 L-20.25 12.4 -21.05 11.85 Q-22.5 11.05 -24.05 11.5 -25.65 11.95 -26.45 13.45 -26.95 14.35 -26.9 15.4 L-26.75 16.45 Q-26.45 17.5 -25.65 18.25" fill="#7eb8cf" fill-rule="evenodd" stroke="none"/>
      <path d="M41.35 -22.0 Q45.8 -11.85 45.8 0.5 45.8 21.3 33.1 36.0 20.45 50.7 2.55 50.7 -2.4 50.7 -6.9 49.6 L-7.85 49.35 Q-19.25 46.25 -28.05 36.0 -30.25 33.45 -32.05 30.75 L-29.65 29.75 Q-29.15 29.45 -28.2 29.05 L-25.3 32.75 Q-22.55 35.95 -19.55 38.35 -13.75 43.0 -6.95 44.85 L-6.05 45.1 Q-1.95 46.1 2.5 46.1 12.35 46.1 20.45 41.25 25.75 38.05 30.3 32.75 41.5 19.7 41.8 1.4 L41.8 0.5 Q41.8 -9.35 38.7 -17.7 L41.35 -22.0 M4.2 -33.75 Q5.65 -35.1 7.1 -37.25 L8.85 -40.15 Q10.0 -38.95 10.0 -37.35 10.0 -35.7 8.8 -34.55 7.65 -33.35 6.0 -33.35 5.0 -33.35 4.2 -33.75 M30.25 -15.3 L30.4 -15.45 31.1 -16.25 Q31.45 -17.1 31.45 -18.95 L31.35 -20.75 31.1 -21.15 31.6 -21.1 Q32.85 -20.85 33.65 -19.8 34.45 -18.7 34.3 -17.45 34.15 -16.2 33.2 -15.5 32.25 -14.8 31.0 -15.05 L30.25 -15.3 M-24.6 -15.5 L-24.1 -15.95 Q-22.7 -17.15 -21.9 -18.5 -21.1 -20.0 -20.5 -22.0 -19.85 -21.85 -19.25 -21.4 -17.95 -20.4 -17.75 -18.75 -17.5 -17.15 -18.5 -15.8 -19.5 -14.5 -21.15 -14.25 -22.75 -14.05 -24.05 -15.05 L-24.6 -15.5 M-20.25 12.4 L-19.95 12.7 Q-19.35 13.35 -19.1 14.25 -18.65 15.8 -19.45 17.25 -20.25 18.7 -21.8 19.15 -23.4 19.6 -24.85 18.85 L-25.65 18.25 -24.55 17.5 Q-22.7 16.2 -21.55 14.75 L-20.25 12.4" fill="#c7c7c7" fill-rule="evenodd" stroke="none"/>
      <path d="M6.25 7.05 Q7.85 6.1 9.4 4.1 11.1 1.75 11.85 -0.05 L12.55 -2.75 12.65 -4.65 Q12.65 -5.85 12.15 -7.55 L12.1 -7.7 Q14.0 -7.3 15.5 -5.75 L15.8 -5.4 16.3 -4.75 Q17.9 -2.55 17.9 0.5 17.9 2.65 17.1 4.4 L15.8 6.4 Q13.7 8.8 10.75 8.8 L10.7 8.8 9.15 8.65 9.0 8.6 Q7.5 8.2 6.25 7.05" fill="#e6e6e6" fill-rule="evenodd" stroke="none"/>
      <path d="M-28.2 29.05 L-30.3 25.75 Q-19.2 21.95 -7.85 14.2 L-11.2 21.15 -19.55 38.35 1.7 22.65 Q3.6 23.7 5.7 24.25 L5.75 24.3 6.2 24.4 10.75 24.9 15.05 24.45 20.45 41.25 23.25 20.25 25.65 17.8 Q29.65 13.15 31.05 7.3 L41.8 1.4 31.15 -5.8 30.7 -7.5 Q29.2 -12.65 25.65 -16.75 L25.5 -16.95 26.1 -17.75 Q30.4 -23.1 33.45 -27.7 36.7 -23.0 38.7 -17.7 41.8 -9.35 41.8 0.5 L41.8 1.4 Q41.5 19.7 30.3 32.75 25.75 38.05 20.45 41.25 12.35 46.1 2.5 46.1 -1.95 46.1 -6.05 45.1 L-6.95 44.85 Q-13.75 43.0 -19.55 38.35 -22.55 35.95 -25.3 32.75 L-28.2 29.05 M30.25 -15.3 L31.0 -15.05 Q32.25 -14.8 33.2 -15.5 34.15 -16.2 34.3 -17.45 34.45 -18.7 33.65 -19.8 32.85 -20.85 31.6 -21.1 L31.1 -21.15 Q30.15 -21.25 29.4 -20.7 28.45 -20.0 28.3 -18.7 28.15 -17.45 28.95 -16.4 29.5 -15.65 30.25 -15.3 M29.75 16.5 Q29.1 17.9 29.6 19.3 29.85 20.15 30.55 20.7 L31.25 21.15 Q32.5 21.7 33.85 21.15 35.1 20.55 35.75 19.15 36.35 17.75 35.9 16.4 35.6 15.5 35.0 14.95 L34.2 14.45 31.65 14.55 Q30.35 15.1 29.75 16.5 M9.25 35.35 L9.1 35.1 Q8.3 33.6 6.75 33.1 5.15 32.65 3.7 33.45 2.2 34.2 1.75 35.75 1.3 37.2 1.9 38.55 L2.05 38.85 Q2.85 40.3 4.45 40.75 L7.45 40.5 Q8.9 39.65 9.4 38.05 9.8 36.65 9.25 35.35" fill="#5b96b0" fill-rule="evenodd" stroke="none"/>
      <path d="M10.75 8.8 Q13.7 8.8 15.8 6.4 L17.1 4.4 24.7 -1.9 28.05 -4.9 Q28.6 -2.35 28.6 0.5 28.6 7.35 25.35 12.6 L23.4 15.2 Q18.15 21.2 10.75 21.2 L8.75 21.1 6.85 20.8 6.45 20.65 Q2.1 19.5 -1.35 15.8 L10.0 9.25 10.75 8.8 M31.05 7.3 Q31.8 4.1 31.8 0.5 31.8 -2.8 31.15 -5.8 L41.8 1.4 31.05 7.3 M29.75 16.5 Q30.35 15.1 31.65 14.55 L34.2 14.45 35.0 14.95 Q35.6 15.5 35.9 16.4 36.35 17.75 35.75 19.15 35.1 20.55 33.85 21.15 32.5 21.7 31.25 21.15 L30.55 20.7 Q29.85 20.15 29.6 19.3 29.1 17.9 29.75 16.5 M15.05 24.45 Q19.55 23.45 23.25 20.25 L20.45 41.25 15.05 24.45 M9.25 35.35 Q9.8 36.65 9.4 38.05 8.9 39.65 7.45 40.5 L4.45 40.75 Q2.85 40.3 2.05 38.85 L1.9 38.55 Q1.3 37.2 1.75 35.75 2.2 34.2 3.7 33.45 5.15 32.65 6.75 33.1 8.3 33.6 9.1 35.1 L9.25 35.35 M-4.4 17.5 L-4.15 17.8 Q-1.45 20.9 1.7 22.65 L-19.55 38.35 -11.2 21.15 -4.4 17.5" fill="#d6d6d6" fill-rule="evenodd" stroke="none"/>
      <path d="M-4.4 17.5 L-1.35 15.8 Q2.1 19.5 6.45 20.65 L6.85 20.8 8.75 21.1 7.75 22.45 5.75 24.3 5.7 24.25 Q3.6 23.7 1.7 22.65 -1.45 20.9 -4.15 17.8 L-4.4 17.5 M28.05 -4.9 L30.7 -7.5 31.15 -5.8 Q31.8 -2.8 31.8 0.5 31.8 4.1 31.05 7.3 29.65 13.15 25.65 17.8 25.15 16.3 25.15 15.05 L25.35 12.6 Q28.6 7.35 28.6 0.5 28.6 -2.35 28.05 -4.9" fill="#bfbfbf" fill-rule="evenodd" stroke="none"/>
      <path d="M-7.85 49.35 Q-22.35 47.45 -33.05 35.0 L-35.9 31.4 -38.2 27.95 Q-45.75 15.55 -45.75 -0.5 -45.75 -21.3 -33.05 -36.0 -20.4 -50.65 -2.45 -50.65 2.45 -50.65 7.0 -49.55 L7.95 -49.3 2.55 -49.65 -0.5 -49.55 Q-16.5 -48.4 -28.05 -35.0 -40.75 -20.3 -40.75 0.5 -40.75 15.3 -34.3 27.0 L-32.05 30.75 Q-30.25 33.45 -28.05 36.0 -19.25 46.25 -7.85 49.35" fill="#aaaaaa" fill-rule="evenodd" stroke="none"/>
      <path d="M7.95 -49.3 Q22.4 -47.4 33.1 -35.0 L35.85 -31.55 Q39.15 -27.05 41.35 -22.0 45.8 -11.85 45.8 0.5 45.8 21.3 33.1 36.0 20.45 50.7 2.55 50.7 -2.4 50.7 -6.9 49.6 L-7.85 49.35 Q-22.35 47.45 -33.05 35.0 L-35.9 31.4 -38.2 27.95 Q-45.75 15.55 -45.75 -0.5 -45.75 -21.3 -33.05 -36.0 -20.4 -50.65 -2.45 -50.65 2.45 -50.65 7.0 -49.55 L7.95 -49.3 2.55 -49.65 -0.5 -49.55 Q-16.5 -48.4 -28.05 -35.0 -40.75 -20.3 -40.75 0.5 -40.75 15.3 -34.3 27.0 L-32.05 30.75 Q-30.25 33.45 -28.05 36.0 -19.25 46.25 -7.85 49.35 M-28.2 29.05 L-30.3 25.75 Q-36.8 14.7 -36.8 0.5 L-36.75 -0.9 Q-36.35 -18.9 -25.3 -31.75 -20.9 -36.85 -15.8 -40.0 -8.7 -44.4 -0.25 -45.0 L2.5 -45.05 7.45 -44.75 Q16.45 -43.55 23.85 -37.85 27.25 -35.25 30.3 -31.75 L33.45 -27.7 Q36.7 -23.0 38.7 -17.7 41.8 -9.35 41.8 0.5 L41.8 1.4 Q41.5 19.7 30.3 32.75 25.75 38.05 20.45 41.25 12.35 46.1 2.5 46.1 -1.95 46.1 -6.05 45.1 L-6.95 44.85 Q-13.75 43.0 -19.55 38.35 -22.55 35.95 -25.3 32.75 L-28.2 29.05 M8.85 -40.15 L8.8 -40.2 Q7.65 -41.35 6.0 -41.35 4.35 -41.35 3.15 -40.2 2.0 -39.0 2.0 -37.35 2.0 -35.7 3.15 -34.55 L4.2 -33.75 Q5.0 -33.35 6.0 -33.35 7.65 -33.35 8.8 -34.55 10.0 -35.7 10.0 -37.35 10.0 -38.95 8.85 -40.15 M15.3 -23.35 L13.4 -23.7 10.75 -23.85 9.3 -23.85 Q6.15 -23.6 3.3 -22.35 -0.8 -20.6 -4.15 -16.75 L-5.95 -14.4 Q-8.8 -10.2 -9.8 -5.05 -10.3 -2.4 -10.3 0.5 -10.3 3.95 -9.6 7.05 -8.85 10.25 -7.35 13.1 L-7.05 13.65 -4.4 17.5 -4.15 17.8 Q-1.45 20.9 1.7 22.65 L-19.55 38.35 -11.2 21.15 -7.85 14.2 -7.35 13.1 M-1.35 15.8 L-1.9 15.2 Q-3.35 13.55 -4.35 11.7 -7.15 6.75 -7.15 0.5 -7.15 -8.1 -1.9 -14.15 2.9 -19.7 9.5 -20.2 L10.75 -20.2 13.0 -20.05 Q18.85 -19.25 23.3 -14.3 L23.4 -14.15 Q26.85 -10.1 28.05 -4.9 28.6 -2.35 28.6 0.5 28.6 7.35 25.35 12.6 L23.4 15.2 Q18.15 21.2 10.75 21.2 L8.75 21.1 6.85 20.8 6.45 20.65 Q2.1 19.5 -1.35 15.8 M30.7 -7.5 Q29.2 -12.65 25.65 -16.75 L25.5 -16.95 23.1 -19.3 Q19.5 -22.3 15.3 -23.35 L23.85 -37.85 23.1 -19.3 M12.1 -7.7 L11.6 -7.8 10.7 -7.85 10.2 -7.85 Q7.55 -7.65 5.6 -5.4 3.5 -3.0 3.5 0.5 3.5 1.7 3.75 2.8 L4.45 4.65 5.6 6.4 6.25 7.05 Q7.5 8.2 9.0 8.6 L9.15 8.65 10.7 8.8 10.75 8.8 Q13.7 8.8 15.8 6.4 L17.1 4.4 Q17.9 2.65 17.9 0.5 17.9 -2.55 16.3 -4.75 L15.8 -5.4 15.5 -5.75 Q14.0 -7.3 12.1 -7.7 M30.25 -15.3 L31.0 -15.05 Q32.25 -14.8 33.2 -15.5 34.15 -16.2 34.3 -17.45 34.45 -18.7 33.65 -19.8 32.85 -20.85 31.6 -21.1 L31.1 -21.15 Q30.15 -21.25 29.4 -20.7 28.45 -20.0 28.3 -18.7 28.15 -17.45 28.95 -16.4 29.5 -15.65 30.25 -15.3 M25.65 17.8 Q29.65 13.15 31.05 7.3 31.8 4.1 31.8 0.5 31.8 -2.8 31.15 -5.8 L30.7 -7.5 M29.75 16.5 Q30.35 15.1 31.65 14.55 L34.2 14.45 35.0 14.95 Q35.6 15.5 35.9 16.4 36.35 17.75 35.75 19.15 35.1 20.55 33.85 21.15 32.5 21.7 31.25 21.15 L30.55 20.7 Q29.85 20.15 29.6 19.3 29.1 17.9 29.75 16.5 M5.75 24.3 L6.2 24.4 10.75 24.9 15.05 24.45 Q19.55 23.45 23.25 20.25 L25.65 17.8 M1.7 22.65 Q3.6 23.7 5.7 24.25 L5.75 24.3 M9.25 35.35 Q9.8 36.65 9.4 38.05 8.9 39.65 7.45 40.5 L4.45 40.75 Q2.85 40.3 2.05 38.85 L1.9 38.55 Q1.3 37.2 1.75 35.75 2.2 34.2 3.7 33.45 5.15 32.65 6.75 33.1 8.3 33.6 9.1 35.1 L9.25 35.35 M15.05 24.45 L20.45 41.25 23.25 20.25 M31.05 7.3 L41.8 1.4 31.15 -5.8 M-20.5 -22.0 L-22.25 -22.15 Q-23.85 -21.95 -24.85 -20.6 -25.85 -19.3 -25.65 -17.65 -25.45 -16.4 -24.6 -15.5 L-24.05 -15.05 Q-22.75 -14.05 -21.15 -14.25 -19.5 -14.5 -18.5 -15.8 -17.5 -17.15 -17.75 -18.75 -17.95 -20.4 -19.25 -21.4 -19.85 -21.85 -20.5 -22.0 M3.3 -22.35 L-15.8 -40.0 -5.95 -14.4 M-36.75 -0.9 L-9.8 -5.05 M-25.65 18.25 L-24.85 18.85 Q-23.4 19.6 -21.8 19.15 -20.25 18.7 -19.45 17.25 -18.65 15.8 -19.1 14.25 -19.35 13.35 -19.95 12.7 L-20.25 12.4 -21.05 11.85 Q-22.5 11.05 -24.05 11.5 -25.65 11.95 -26.45 13.45 -26.95 14.35 -26.9 15.4 L-26.75 16.45 Q-26.45 17.5 -25.65 18.25 M-9.6 7.05 L-36.75 -0.9" fill="none" stroke="#000000" stroke-linecap="round" stroke-linejoin="round" stroke-opacity="0.6627451" stroke-width="1.0"/>
    </g>
    <g id="sprite1" transform="matrix(1.0, 0.0, 0.0, 1.0, 45.75, 50.65)">
      <use height="101.35" transform="matrix(1.0, 0.0, 0.0, 1.0, -45.75, -50.65)" width="91.55" xlink:href="#shape1"/>
    </g>
    <g id="shape1" transform="matrix(1.0, 0.0, 0.0, 1.0, 45.75, 50.65)">
      <path d="M3.15 -40.2 Q4.35 -41.35 6.0 -41.35 7.65 -41.35 8.8 -40.2 L8.85 -40.15 Q10.0 -38.95 10.0 -37.35 10.0 -35.7 8.8 -34.55 7.65 -33.35 6.0 -33.35 5.0 -33.35 4.2 -33.75 L3.15 -34.55 Q2.0 -35.7 2.0 -37.35 2.0 -39.0 3.15 -40.2" fill="url(#gradient0)" fill-rule="evenodd" stroke="none"/>
      <path d="M23.85 -37.85 L23.1 -19.3 Q19.5 -22.3 15.3 -23.35 L23.85 -37.85" fill="url(#gradient1)" fill-rule="evenodd" stroke="none"/>
      <path d="M31.15 -5.8 L41.8 1.4 31.05 7.3 Q31.8 4.1 31.8 0.5 31.8 -2.8 31.15 -5.8" fill="url(#gradient2)" fill-rule="evenodd" stroke="none"/>
      <path d="M15.05 24.45 Q19.55 23.45 23.25 20.25 L20.45 41.25 15.05 24.45" fill="url(#gradient3)" fill-rule="evenodd" stroke="none"/>
      <path d="M3.3 -22.35 Q-0.8 -20.6 -4.15 -16.75 L-5.95 -14.4 -15.8 -40.0 3.3 -22.35" fill="url(#gradient4)" fill-rule="evenodd" stroke="none"/>
      <path d="M-22.25 -22.15 L-20.5 -22.0 Q-19.85 -21.85 -19.25 -21.4 -17.95 -20.4 -17.75 -18.75 -17.5 -17.15 -18.5 -15.8 -19.5 -14.5 -21.15 -14.25 -22.75 -14.05 -24.05 -15.05 L-24.6 -15.5 Q-25.45 -16.4 -25.65 -17.65 -25.85 -19.3 -24.85 -20.6 -23.85 -21.95 -22.25 -22.15" fill="url(#gradient5)" fill-rule="evenodd" stroke="none"/>
      <path d="M-9.8 -5.05 Q-10.3 -2.4 -10.3 0.5 -10.3 3.95 -9.6 7.05 L-36.75 -0.9 -9.8 -5.05" fill="url(#gradient6)" fill-rule="evenodd" stroke="none"/>
      <path d="M33.65 -19.8 Q34.45 -18.7 34.3 -17.45 34.15 -16.2 33.2 -15.5 32.25 -14.8 31.0 -15.05 L30.25 -15.3 Q29.5 -15.65 28.95 -16.4 28.15 -17.45 28.3 -18.7 28.45 -20.0 29.4 -20.7 30.15 -21.25 31.1 -21.15 L31.6 -21.1 Q32.85 -20.85 33.65 -19.8" fill="url(#gradient7)" fill-rule="evenodd" stroke="none"/>
      <path d="M23.1 -19.3 L25.5 -16.95 25.65 -16.75 Q29.2 -12.65 30.7 -7.5 L31.15 -5.8 Q31.8 -2.8 31.8 0.5 31.8 4.1 31.05 7.3 29.65 13.15 25.65 17.8 L23.25 20.25 Q19.55 23.45 15.05 24.45 L10.75 24.9 6.2 24.4 5.75 24.3 5.7 24.25 Q3.6 23.7 1.7 22.65 -1.45 20.9 -4.15 17.8 L-4.4 17.5 -7.05 13.65 -7.35 13.1 Q-8.85 10.25 -9.6 7.05 -10.3 3.95 -10.3 0.5 -10.3 -2.4 -9.8 -5.05 -8.8 -10.2 -5.95 -14.4 L-4.15 -16.75 Q-0.8 -20.6 3.3 -22.35 6.15 -23.6 9.3 -23.85 L10.75 -23.85 13.4 -23.7 15.3 -23.35 Q19.5 -22.3 23.1 -19.3 M13.0 -20.05 L10.75 -20.2 9.5 -20.2 Q2.9 -19.7 -1.9 -14.15 -7.15 -8.1 -7.15 0.5 -7.15 6.75 -4.35 11.7 -3.35 13.55 -1.9 15.2 L-1.35 15.8 Q2.1 19.5 6.45 20.65 L6.85 20.8 8.75 21.1 10.75 21.2 Q18.15 21.2 23.4 15.2 L25.35 12.6 Q28.6 7.35 28.6 0.5 28.6 -2.35 28.05 -4.9 26.85 -10.1 23.4 -14.15 L23.3 -14.3 Q18.85 -19.25 13.0 -20.05" fill="url(#gradient8)" fill-rule="evenodd" stroke="none"/>
      <path d="M29.75 16.5 Q30.35 15.1 31.65 14.55 L34.2 14.45 35.0 14.95 Q35.6 15.5 35.9 16.4 36.35 17.75 35.75 19.15 35.1 20.55 33.85 21.15 32.5 21.7 31.25 21.15 L30.55 20.7 Q29.85 20.15 29.6 19.3 29.1 17.9 29.75 16.5" fill="url(#gradient9)" fill-rule="evenodd" stroke="none"/>
      <path d="M9.25 35.35 Q9.8 36.65 9.4 38.05 8.9 39.65 7.45 40.5 L4.45 40.75 Q2.85 40.3 2.05 38.85 L1.9 38.55 Q1.3 37.2 1.75 35.75 2.2 34.2 3.7 33.45 5.15 32.65 6.75 33.1 8.3 33.6 9.1 35.1 L9.25 35.35" fill="url(#gradient10)" fill-rule="evenodd" stroke="none"/>
      <path d="M-7.35 13.1 L-7.05 13.65 -4.4 17.5 -4.15 17.8 Q-1.45 20.9 1.7 22.65 L-19.55 38.35 -7.35 13.1" fill="url(#gradient11)" fill-rule="evenodd" stroke="none"/>
      <path d="M-19.95 12.7 Q-19.35 13.35 -19.1 14.25 -18.65 15.8 -19.45 17.25 -20.25 18.7 -21.8 19.15 -23.4 19.6 -24.85 18.85 L-25.65 18.25 Q-26.45 17.5 -26.75 16.45 L-26.9 15.4 Q-26.95 14.35 -26.45 13.45 -25.65 11.95 -24.05 11.5 -22.5 11.05 -21.05 11.85 L-20.25 12.4 -19.95 12.7" fill="url(#gradient12)" fill-rule="evenodd" stroke="none"/>
      <path d="M-19.55 38.35 Q-22.55 35.95 -25.3 32.75 L-28.2 29.05 -30.3 25.75 Q-36.8 14.7 -36.8 0.5 L-36.75 -0.9 -9.6 7.05 Q-8.85 10.25 -7.35 13.1 L-19.55 38.35 M-19.95 12.7 L-20.25 12.4 -21.05 11.85 Q-22.5 11.05 -24.05 11.5 -25.65 11.95 -26.45 13.45 -26.95 14.35 -26.9 15.4 L-26.75 16.45 Q-26.45 17.5 -25.65 18.25 L-24.85 18.85 Q-23.4 19.6 -21.8 19.15 -20.25 18.7 -19.45 17.25 -18.65 15.8 -19.1 14.25 -19.35 13.35 -19.95 12.7" fill="url(#gradient13)" fill-rule="evenodd" stroke="none"/>
      <path d="M20.45 41.25 Q12.35 46.1 2.5 46.1 -1.95 46.1 -6.05 45.1 L-6.95 44.85 Q-13.75 43.0 -19.55 38.35 L1.7 22.65 Q3.6 23.7 5.7 24.25 L5.75 24.3 6.2 24.4 10.75 24.9 15.05 24.45 20.45 41.25 M9.25 35.35 L9.1 35.1 Q8.3 33.6 6.75 33.1 5.15 32.65 3.7 33.45 2.2 34.2 1.75 35.75 1.3 37.2 1.9 38.55 L2.05 38.85 Q2.85 40.3 4.45 40.75 L7.45 40.5 Q8.9 39.65 9.4 38.05 9.8 36.65 9.25 35.35" fill="url(#gradient14)" fill-rule="evenodd" stroke="none"/>
      <path d="M41.8 1.4 Q41.5 19.7 30.3 32.75 25.75 38.05 20.45 41.25 L23.25 20.25 25.65 17.8 Q29.65 13.15 31.05 7.3 L41.8 1.4 M29.75 16.5 Q29.1 17.9 29.6 19.3 29.85 20.15 30.55 20.7 L31.25 21.15 Q32.5 21.7 33.85 21.15 35.1 20.55 35.75 19.15 36.35 17.75 35.9 16.4 35.6 15.5 35.0 14.95 L34.2 14.45 31.65 14.55 Q30.35 15.1 29.75 16.5" fill="url(#gradient15)" fill-rule="evenodd" stroke="none"/>
      <path d="M23.85 -37.85 Q27.25 -35.25 30.3 -31.75 L33.45 -27.7 Q36.7 -23.0 38.7 -17.7 41.8 -9.35 41.8 0.5 L41.8 1.4 31.15 -5.8 30.7 -7.5 Q29.2 -12.65 25.65 -16.75 L25.5 -16.95 23.1 -19.3 23.85 -37.85 M33.65 -19.8 Q32.85 -20.85 31.6 -21.1 L31.1 -21.15 Q30.15 -21.25 29.4 -20.7 28.45 -20.0 28.3 -18.7 28.15 -17.45 28.95 -16.4 29.5 -15.65 30.25 -15.3 L31.0 -15.05 Q32.25 -14.8 33.2 -15.5 34.15 -16.2 34.3 -17.45 34.45 -18.7 33.65 -19.8" fill="url(#gradient16)" fill-rule="evenodd" stroke="none"/>
      <path d="M-15.8 -40.0 Q-8.7 -44.4 -0.25 -45.0 L2.5 -45.05 7.45 -44.75 Q16.45 -43.55 23.85 -37.85 L15.3 -23.35 13.4 -23.7 10.75 -23.85 9.3 -23.85 Q6.15 -23.6 3.3 -22.35 L-15.8 -40.0 M3.15 -40.2 Q2.0 -39.0 2.0 -37.35 2.0 -35.7 3.15 -34.55 L4.2 -33.75 Q5.0 -33.35 6.0 -33.35 7.65 -33.35 8.8 -34.55 10.0 -35.7 10.0 -37.35 10.0 -38.95 8.85 -40.15 L8.8 -40.2 Q7.65 -41.35 6.0 -41.35 4.35 -41.35 3.15 -40.2" fill="url(#gradient17)" fill-rule="evenodd" stroke="none"/>
      <path d="M-7.85 49.35 Q-22.35 47.45 -33.05 35.0 L-35.9 31.4 -38.2 27.95 Q-45.75 15.55 -45.75 -0.5 -45.75 -21.3 -33.05 -36.0 -20.4 -50.65 -2.45 -50.65 2.45 -50.65 7.0 -49.55 L7.95 -49.3 2.55 -49.65 -0.5 -49.55 Q-16.5 -48.4 -28.05 -35.0 -40.75 -20.3 -40.75 0.5 -40.75 15.3 -34.3 27.0 L-32.05 30.75 Q-30.25 33.45 -28.05 36.0 -19.25 46.25 -7.85 49.35" fill="url(#gradient18)" fill-rule="evenodd" stroke="none"/>
      <path d="M7.95 -49.3 Q22.4 -47.4 33.1 -35.0 L35.85 -31.55 Q39.15 -27.05 41.35 -22.0 45.8 -11.85 45.8 0.5 45.8 21.3 33.1 36.0 20.45 50.7 2.55 50.7 -2.4 50.7 -6.9 49.6 L-7.85 49.35 Q-19.25 46.25 -28.05 36.0 -30.25 33.45 -32.05 30.75 L-34.3 27.0 Q-40.75 15.3 -40.75 0.5 -40.75 -20.3 -28.05 -35.0 -16.5 -48.4 -0.5 -49.55 L2.55 -49.65 7.95 -49.3 M41.8 1.4 L41.8 0.5 Q41.8 -9.35 38.7 -17.7 36.7 -23.0 33.45 -27.7 L30.3 -31.75 Q27.25 -35.25 23.85 -37.85 16.45 -43.55 7.45 -44.75 L2.5 -45.05 -0.25 -45.0 Q-8.7 -44.4 -15.8 -40.0 -20.9 -36.85 -25.3 -31.75 -36.35 -18.9 -36.75 -0.9 L-36.8 0.5 Q-36.8 14.7 -30.3 25.75 L-28.2 29.05 -25.3 32.75 Q-22.55 35.95 -19.55 38.35 -13.75 43.0 -6.95 44.85 L-6.05 45.1 Q-1.95 46.1 2.5 46.1 12.35 46.1 20.45 41.25 25.75 38.05 30.3 32.75 41.5 19.7 41.8 1.4" fill="url(#gradient19)" fill-rule="evenodd" stroke="none"/>
      <path d="M-36.75 -0.9 Q-36.35 -18.9 -25.3 -31.75 -20.9 -36.85 -15.8 -40.0 L-5.95 -14.4 Q-8.8 -10.2 -9.8 -5.05 L-36.75 -0.9 M-22.25 -22.15 Q-23.85 -21.95 -24.85 -20.6 -25.85 -19.3 -25.65 -17.65 -25.45 -16.4 -24.6 -15.5 L-24.05 -15.05 Q-22.75 -14.05 -21.15 -14.25 -19.5 -14.5 -18.5 -15.8 -17.5 -17.15 -17.75 -18.75 -17.95 -20.4 -19.25 -21.4 -19.85 -21.85 -20.5 -22.0 L-22.25 -22.15" fill="url(#gradient20)" fill-rule="evenodd" stroke="none"/>
      <path d="M13.0 -20.05 Q18.85 -19.25 23.3 -14.3 L23.4 -14.15 Q26.85 -10.1 28.05 -4.9 28.6 -2.35 28.6 0.5 28.6 7.35 25.35 12.6 L23.4 15.2 Q18.15 21.2 10.75 21.2 L8.75 21.1 6.85 20.8 6.45 20.65 Q2.1 19.5 -1.35 15.8 L-1.9 15.2 Q-3.35 13.55 -4.35 11.7 -7.15 6.75 -7.15 0.5 -7.15 -8.1 -1.9 -14.15 2.9 -19.7 9.5 -20.2 L10.75 -20.2 13.0 -20.05 M11.6 -7.8 L10.7 -7.85 10.2 -7.85 Q7.55 -7.65 5.6 -5.4 3.5 -3.0 3.5 0.5 3.5 1.7 3.75 2.8 L4.45 4.65 5.6 6.4 6.25 7.05 Q7.5 8.2 9.0 8.6 L9.15 8.65 10.7 8.8 10.75 8.8 Q13.7 8.8 15.8 6.4 L17.1 4.4 Q17.9 2.65 17.9 0.5 17.9 -2.55 16.3 -4.75 L15.8 -5.4 15.5 -5.75 Q14.0 -7.3 12.1 -7.7 L11.6 -7.8" fill="url(#gradient21)" fill-rule="evenodd" stroke="none"/>
      <path d="M11.6 -7.8 L12.1 -7.7 Q14.0 -7.3 15.5 -5.75 L15.8 -5.4 16.3 -4.75 Q17.9 -2.55 17.9 0.5 17.9 2.65 17.1 4.4 L15.8 6.4 Q13.7 8.8 10.75 8.8 L10.7 8.8 9.15 8.65 9.0 8.6 Q7.5 8.2 6.25 7.05 L5.6 6.4 4.45 4.65 3.75 2.8 Q3.5 1.7 3.5 0.5 3.5 -3.0 5.6 -5.4 7.55 -7.65 10.2 -7.85 L10.7 -7.85 11.6 -7.8" fill="url(#gradient22)" fill-rule="evenodd" stroke="none"/>
    </g>
    <linearGradient gradientTransform="matrix(0.0049, 0.0, 0.0, 0.0049, 6.0, -37.35)" gradientUnits="userSpaceOnUse" id="gradient0" spreadMethod="pad" x1="-819.2" x2="819.2">
      <stop offset="0.0" stop-color="#000000"/>
      <stop offset="1.0" stop-color="#ffffff"/>
    </linearGradient>
    <linearGradient gradientTransform="matrix(0.0052, 0.0, 0.0, 0.0113, 19.55, -28.6)" gradientUnits="userSpaceOnUse" id="gradient1" spreadMethod="pad" x1="-819.2" x2="819.2">
      <stop offset="0.0" stop-color="#000000"/>
      <stop offset="1.0" stop-color="#ffffff"/>
    </linearGradient>
    <linearGradient gradientTransform="matrix(0.0066, 0.0, 0.0, 0.008, 36.4, 0.75)" gradientUnits="userSpaceOnUse" id="gradient2" spreadMethod="pad" x1="-819.2" x2="819.2">
      <stop offset="0.0" stop-color="#000000"/>
      <stop offset="1.0" stop-color="#ffffff"/>
    </linearGradient>
    <linearGradient gradientTransform="matrix(0.005, 0.0, 0.0, 0.0128, 19.15, 30.75)" gradientUnits="userSpaceOnUse" id="gradient3" spreadMethod="pad" x1="-819.2" x2="819.2">
      <stop offset="0.0" stop-color="#000000"/>
      <stop offset="1.0" stop-color="#ffffff"/>
    </linearGradient>
    <linearGradient gradientTransform="matrix(0.0117, 0.0, 0.0, 0.0156, -6.25, -27.2)" gradientUnits="userSpaceOnUse" id="gradient4" spreadMethod="pad" x1="-819.2" x2="819.2">
      <stop offset="0.0" stop-color="#000000"/>
      <stop offset="1.0" stop-color="#ffffff"/>
    </linearGradient>
    <linearGradient gradientTransform="matrix(0.0049, 0.0, 0.0, 0.0049, -21.7, -18.2)" gradientUnits="userSpaceOnUse" id="gradient5" spreadMethod="pad" x1="-819.2" x2="819.2">
      <stop offset="0.0" stop-color="#000000"/>
      <stop offset="1.0" stop-color="#ffffff"/>
    </linearGradient>
    <linearGradient gradientTransform="matrix(0.0166, 0.0, 0.0, 0.0074, -23.2, 1.0)" gradientUnits="userSpaceOnUse" id="gradient6" spreadMethod="pad" x1="-819.2" x2="819.2">
      <stop offset="0.0" stop-color="#000000"/>
      <stop offset="1.0" stop-color="#ffffff"/>
    </linearGradient>
    <linearGradient gradientTransform="matrix(0.0037, 0.0, 0.0, 0.0038, 31.3, -18.1)" gradientUnits="userSpaceOnUse" id="gradient7" spreadMethod="pad" x1="-819.2" x2="819.2">
      <stop offset="0.0" stop-color="#000000"/>
      <stop offset="1.0" stop-color="#ffffff"/>
    </linearGradient>
    <linearGradient gradientTransform="matrix(0.0257, 0.0, 0.0, 0.0298, 10.75, 0.5)" gradientUnits="userSpaceOnUse" id="gradient8" spreadMethod="pad" x1="-819.2" x2="819.2">
      <stop offset="0.0" stop-color="#000000"/>
      <stop offset="1.0" stop-color="#ffffff"/>
    </linearGradient>
    <linearGradient gradientTransform="matrix(0.0041, 0.0, 0.0, 0.0044, 32.75, 17.8)" gradientUnits="userSpaceOnUse" id="gradient9" spreadMethod="pad" x1="-819.2" x2="819.2">
      <stop offset="0.0" stop-color="#000000"/>
      <stop offset="1.0" stop-color="#ffffff"/>
    </linearGradient>
    <linearGradient gradientTransform="matrix(0.0049, 0.0, 0.0, 0.0049, 5.55, 36.95)" gradientUnits="userSpaceOnUse" id="gradient10" spreadMethod="pad" x1="-819.2" x2="819.2">
      <stop offset="0.0" stop-color="#000000"/>
      <stop offset="1.0" stop-color="#ffffff"/>
    </linearGradient>
    <linearGradient gradientTransform="matrix(0.013, 0.0, 0.0, 0.0154, -8.95, 25.7)" gradientUnits="userSpaceOnUse" id="gradient11" spreadMethod="pad" x1="-819.2" x2="819.2">
      <stop offset="0.0" stop-color="#000000"/>
      <stop offset="1.0" stop-color="#ffffff"/>
    </linearGradient>
    <linearGradient gradientTransform="matrix(0.0049, 0.0, 0.0, 0.0049, -22.95, 15.3)" gradientUnits="userSpaceOnUse" id="gradient12" spreadMethod="pad" x1="-819.2" x2="819.2">
      <stop offset="0.0" stop-color="#000000"/>
      <stop offset="1.0" stop-color="#ffffff"/>
    </linearGradient>
    <linearGradient gradientTransform="matrix(-0.018, 0.0, 0.0, -0.024, -22.1, 18.8)" gradientUnits="userSpaceOnUse" id="gradient13" spreadMethod="pad" x1="-819.2" x2="819.2">
      <stop offset="0.0" stop-color="#000000"/>
      <stop offset="1.0" stop-color="#ffffff"/>
    </linearGradient>
    <linearGradient gradientTransform="matrix(-0.0063, 0.0236, -0.0138, -0.0037, 0.5, 34.4)" gradientUnits="userSpaceOnUse" id="gradient14" spreadMethod="pad" x1="-819.2" x2="819.2">
      <stop offset="0.0" stop-color="#000000"/>
      <stop offset="1.0" stop-color="#ffffff"/>
    </linearGradient>
    <linearGradient gradientTransform="matrix(0.0113, 0.0065, -0.0122, 0.0211, 31.1, 21.3)" gradientUnits="userSpaceOnUse" id="gradient15" spreadMethod="pad" x1="-819.2" x2="819.2">
      <stop offset="0.0" stop-color="#000000"/>
      <stop offset="1.0" stop-color="#ffffff"/>
    </linearGradient>
    <linearGradient gradientTransform="matrix(0.0081, -0.0081, 0.0169, 0.0169, 32.4, -18.25)" gradientUnits="userSpaceOnUse" id="gradient16" spreadMethod="pad" x1="-819.2" x2="819.2">
      <stop offset="0.0" stop-color="#000000"/>
      <stop offset="1.0" stop-color="#ffffff"/>
    </linearGradient>
    <linearGradient gradientTransform="matrix(-0.0063, -0.0234, 0.0134, -0.0036, 4.0, -33.7)" gradientUnits="userSpaceOnUse" id="gradient17" spreadMethod="pad" x1="-819.2" x2="819.2">
      <stop offset="0.0" stop-color="#000000"/>
      <stop offset="1.0" stop-color="#ffffff"/>
    </linearGradient>
    <linearGradient gradientTransform="matrix(0.0, -0.0328, 0.061, 0.0, -18.9, -0.65)" gradientUnits="userSpaceOnUse" id="gradient18" spreadMethod="pad" x1="-819.2" x2="819.2">
      <stop offset="0.0" stop-color="#000000"/>
      <stop offset="1.0" stop-color="#ffffff"/>
    </linearGradient>
    <linearGradient gradientTransform="matrix(-0.0192, -0.0492, 0.057, -0.0222, 2.5, 0.5)" gradientUnits="userSpaceOnUse" id="gradient19" spreadMethod="pad" x1="-819.2" x2="819.2">
      <stop offset="0.0" stop-color="#000000"/>
      <stop offset="1.0" stop-color="#ffffff"/>
    </linearGradient>
    <linearGradient gradientTransform="matrix(-0.0147, -0.0117, 0.0148, -0.0187, -21.35, -20.45)" gradientUnits="userSpaceOnUse" id="gradient20" spreadMethod="pad" x1="-819.2" x2="819.2">
      <stop offset="0.0" stop-color="#000000"/>
      <stop offset="1.0" stop-color="#ffffff"/>
    </linearGradient>
    <linearGradient gradientTransform="matrix(-0.0109, -0.0189, 0.0219, -0.0126, 10.7, 0.5)" gradientUnits="userSpaceOnUse" id="gradient21" spreadMethod="pad" x1="-819.2" x2="819.2">
      <stop offset="0.0" stop-color="#000000"/>
      <stop offset="1.0" stop-color="#ffffff"/>
    </linearGradient>
    <linearGradient gradientTransform="matrix(-0.0062, -0.0062, 0.0072, -0.0072, 10.7, 0.45)" gradientUnits="userSpaceOnUse" id="gradient22" spreadMethod="pad" x1="-819.2" x2="819.2">
      <stop offset="0.0" stop-color="#000000"/>
      <stop offset="1.0" stop-color="#ffffff"/>
    </linearGradient>
  </defs>
</svg>
