<?xml version="1.0" encoding="UTF-8" standalone="no"?>
<svg xmlns:xlink="http://www.w3.org/1999/xlink" height="531.5px" width="460.6px" xmlns="http://www.w3.org/2000/svg">
  <g transform="matrix(1.0, 0.0, 0.0, 1.0, 193.65, 334.05)">
    <use height="27.95" transform="matrix(1.9412, 0.0, 0.0, 1.9412, -66.3819, -43.5292)" width="66.95" xlink:href="#sprite0"/>
  </g>
  <defs>
    <g id="sprite0" transform="matrix(1.0, 0.0, 0.0, 1.0, 33.45, 13.95)">
      <use height="27.95" transform="matrix(1.0, 0.0, 0.0, 1.0, -33.45, -13.95)" width="66.95" xlink:href="#shape0"/>
      <use height="26.95" transform="matrix(1.0, 0.0, 0.0, 1.0, -32.95, -13.45)" width="65.95" xlink:href="#sprite1"/>
    </g>
    <g id="shape0" transform="matrix(1.0, 0.0, 0.0, 1.0, 33.45, 13.95)">
      <path d="M-1.55 -7.65 L-0.45 -8.35 2.1 -10.15 Q3.85 -11.3 6.0 -12.35 8.15 -13.45 12.55 -13.45 15.5 -13.45 17.7 -12.45 L14.3 -12.45 9.75 -12.1 Q7.8 -11.7 5.05 -10.2 L5.0 -10.2 3.2 -9.15 0.5 -7.3 -0.35 -7.1 Q-1.3 -7.1 -1.55 -7.65 M-32.3 -2.1 L-31.4 -4.3 Q-19.45 -3.05 -9.45 -4.5 L-6.55 -5.45 -7.85 -3.85 -9.95 -3.35 -12.1 -2.95 -24.9 -2.25 Q-31.85 -2.8 -32.3 -2.1 M3.7 -1.8 L3.9 -3.8 Q4.0 -5.6 7.05 -7.9 10.1 -10.25 12.75 -9.85 15.45 -9.5 17.45 -7.65 L17.35 -7.45 15.95 -8.2 12.55 -8.85 Q8.8 -8.85 6.1 -6.1 4.25 -4.2 3.7 -1.8" fill="#222222" fill-rule="evenodd" stroke="none"/>
      <path d="M-1.55 -7.65 Q-1.3 -7.1 -0.35 -7.1 L0.5 -7.3 3.2 -9.15 5.0 -10.2 5.05 -10.2 Q7.8 -11.7 9.75 -12.1 L14.3 -12.45 17.7 -12.45 19.0 -11.75 19.65 -11.2 22.25 -8.85 23.1 -7.75 Q23.8 -6.55 25.35 -6.35 L30.15 -5.7 Q35.4 0.45 31.05 7.5 L24.5 7.9 Q21.5 11.1 18.7 12.35 17.2 13.2 12.6 13.5 9.65 13.65 6.8 12.8 L3.45 11.4 Q0.25 9.1 -8.7 7.55 L-31.05 6.9 Q-34.1 3.35 -32.3 -2.0 L-32.3 -2.1 Q-31.85 -2.8 -24.9 -2.25 L-12.1 -2.95 -9.95 -3.35 -7.85 -3.85 -6.55 -5.45 -5.05 -5.95 Q-2.75 -7.0 -1.55 -7.65 M17.35 -7.45 L17.45 -7.65 Q15.45 -9.5 12.75 -9.85 10.1 -10.25 7.05 -7.9 4.0 -5.6 3.9 -3.8 L3.7 -1.8 3.7 -1.75 3.6 -1.35 3.45 0.4 Q3.45 2.65 4.4 4.5 5.0 5.8 6.1 6.9 7.5 8.3 9.2 9.0 10.75 9.6 12.55 9.6 16.25 9.6 18.95 6.9 21.6 4.2 21.6 0.4 21.6 -2.75 19.75 -5.15 L18.95 -6.1 18.6 -6.4 17.35 -7.45 M30.35 0.45 L29.75 -0.5 Q28.5 -2.15 27.55 -2.4 L24.9 -3.2 Q25.8 -1.45 25.9 0.4 26.0 1.8 25.6 3.25 L25.05 4.9 27.4 4.55 Q29.0 4.2 30.05 2.65 30.55 1.9 30.5 1.15 L30.35 0.45 M-23.85 1.1 L-23.85 1.0 Q-23.85 0.45 -24.7 0.05 L-26.6 -0.3 -28.0 -0.1 -28.5 0.05 -28.55 0.1 -28.7 0.15 Q-29.3 0.5 -29.3 1.0 L-29.2 1.3 -28.5 1.9 -26.6 2.3 -24.7 1.9 -23.95 1.4 -23.85 1.1 M-13.35 0.7 Q-13.3 0.0 -12.7 -0.7 L-18.7 -0.55 -18.8 -0.45 -18.85 -0.35 -19.4 0.35 Q-20.05 1.5 -18.7 2.6 L-12.7 2.5 -13.3 1.35 -13.35 0.7 M-1.8 -0.7 Q-1.6 -2.65 -0.2 -4.55 -2.3 -4.45 -3.9 -3.65 L-6.95 -2.05 -8.7 -0.6 -9.0 -0.2 Q-10.05 1.45 -7.65 2.9 -5.85 4.15 -3.65 4.6 L0.0 5.3 -1.1 3.4 Q-2.05 1.3 -1.8 -0.7" fill="#000000" fill-rule="evenodd" stroke="none"/>
      <path d="M19.75 -5.15 Q21.6 -2.75 21.6 0.4 21.6 4.2 18.95 6.9 16.25 9.6 12.55 9.6 10.75 9.6 9.2 9.0 L13.6 3.2 13.65 3.2 16.85 5.75 15.8 1.95 15.7 1.6 15.65 1.5 18.25 -0.4 18.85 -0.85 17.05 -1.25 19.6 -4.95 19.75 -5.15 M4.4 4.5 Q3.45 2.65 3.45 0.4 L3.6 -1.35 3.7 -1.75 3.7 -1.8 Q4.25 -4.2 6.1 -6.1 8.8 -8.85 12.55 -8.85 L15.95 -8.2 13.55 -5.4 13.4 -6.05 13.35 -6.15 13.35 -6.05 13.2 -5.65 12.8 -4.55 9.75 -1.15 7.0 -0.7 7.8 -0.25 8.6 0.2 6.55 2.4 4.4 4.5" fill="#dbdbdb" fill-rule="evenodd" stroke="none"/>
      <path d="M7.8 -0.25 L7.0 -0.7 9.75 -1.15 11.35 -1.4 11.45 -1.4 12.1 -0.4 12.6 0.4 11.2 0.1 7.8 -0.25 M13.2 -5.65 L13.35 -6.05 13.4 -6.05 13.55 -5.4 14.45 -2.35 13.15 0.45 13.05 0.45 13.0 -2.8 13.2 -5.65 M25.9 0.4 Q25.8 -1.45 24.9 -3.2 L27.55 -2.4 Q28.5 -2.15 29.75 -0.5 L30.35 0.45 Q30.05 0.75 28.9 0.95 L26.9 0.8 25.9 0.4 M-28.55 0.1 L-28.5 0.05 -28.0 -0.1 -26.6 -0.3 -24.7 0.05 Q-23.85 0.45 -23.85 1.0 L-23.85 1.1 -24.05 1.1 -24.25 1.1 -26.45 1.05 Q-28.85 1.0 -28.85 0.55 L-28.65 0.25 -28.6 0.15 -28.55 0.1 M-18.8 -0.45 L-18.7 -0.55 -12.7 -0.7 Q-13.3 0.0 -13.35 0.7 L-13.95 0.7 Q-17.9 0.7 -18.85 -0.35 L-18.8 -0.45 M-9.0 -0.2 L-8.7 -0.6 -6.95 -2.05 -3.9 -3.65 Q-2.3 -4.45 -0.2 -4.55 -1.6 -2.65 -1.8 -0.7 -2.35 0.0 -3.15 0.35 L-5.7 0.7 -7.65 0.55 -8.1 0.4 -9.0 -0.2" fill="#fefdbc" fill-rule="evenodd" stroke="none"/>
      <path d="M17.35 -7.45 L18.6 -6.4 18.95 -6.1 19.75 -5.15 19.6 -4.95 17.05 -1.25 16.7 -1.3 16.25 -1.4 14.6 -1.8 14.45 -2.35 13.55 -5.4 15.95 -8.2 17.35 -7.45 M9.2 9.0 Q7.5 8.3 6.1 6.9 5.0 5.8 4.4 4.5 L6.55 2.4 8.6 0.2 10.8 1.4 10.7 1.9 10.65 2.15 9.75 5.75 10.8 4.95 13.35 3.0 13.6 3.2 9.2 9.0 M9.75 -1.15 L12.8 -4.55 11.65 -1.45 11.45 -1.4 11.35 -1.4 9.75 -1.15" fill="#ffffff" fill-rule="evenodd" stroke="none"/>
      <path d="M12.8 -4.55 L13.2 -5.65 13.0 -2.8 13.05 0.45 12.95 0.5 12.75 0.6 12.85 0.4 12.6 0.4 12.1 -0.4 11.45 -1.4 11.65 -1.45 12.8 -4.55 M13.35 -6.05 L13.35 -6.15 13.4 -6.05 13.35 -6.05 M14.45 -2.35 L14.6 -1.8 16.25 -1.4 16.7 -1.3 17.05 -1.25 18.85 -0.85 18.25 -0.4 16.3 -0.15 13.85 0.2 Q13.6 0.5 13.25 0.45 L13.15 0.45 14.45 -2.35 M30.35 0.45 L30.5 1.15 28.8 2.4 Q27.55 3.0 25.6 3.25 26.0 1.8 25.9 0.4 L26.9 0.8 28.9 0.95 Q30.05 0.75 30.35 0.45 M10.7 1.9 L11.65 1.25 12.75 0.65 12.6 1.0 10.8 4.95 9.75 5.75 10.65 2.15 10.7 1.9 M-23.85 1.1 L-23.95 1.4 -24.65 1.5 -27.15 1.3 -28.65 1.35 -29.2 1.3 -29.3 1.0 Q-29.3 0.5 -28.7 0.15 L-28.65 0.25 -28.85 0.55 Q-28.85 1.0 -26.45 1.05 L-24.25 1.1 -24.05 1.1 -23.85 1.1 M-13.35 0.7 L-13.3 1.35 -15.95 1.7 -18.05 1.3 -19.4 0.35 -18.85 -0.35 Q-17.9 0.7 -13.95 0.7 L-13.35 0.7 M-7.65 0.55 L-5.7 0.7 -3.15 0.35 Q-2.35 0.0 -1.8 -0.7 -2.05 1.3 -1.1 3.4 -3.7 3.1 -5.6 2.05 -6.7 1.45 -7.65 0.55" fill="#fff900" fill-rule="evenodd" stroke="none"/>
      <path d="M13.15 0.45 L13.25 0.45 Q13.6 0.5 13.85 0.2 L16.3 -0.15 18.25 -0.4 15.65 1.5 15.6 1.6 15.7 1.6 15.8 1.95 16.85 5.75 13.65 3.2 13.6 3.2 13.35 3.0 10.8 4.95 12.6 1.0 12.75 0.65 11.65 1.25 10.7 1.9 10.8 1.4 8.6 0.2 7.8 -0.25 11.2 0.1 12.6 0.4 12.85 0.4 12.75 0.6 12.95 0.5 13.05 0.45 13.15 0.45 M30.5 1.15 Q30.55 1.9 30.05 2.65 29.0 4.2 27.4 4.55 L25.05 4.9 25.6 3.25 Q27.55 3.0 28.8 2.4 L30.5 1.15 M-23.95 1.4 L-24.7 1.9 -26.6 2.3 -28.5 1.9 -29.2 1.3 -28.65 1.35 -27.15 1.3 -24.65 1.5 -23.95 1.4 M-13.3 1.35 L-12.7 2.5 -18.7 2.6 Q-20.05 1.5 -19.4 0.35 L-18.05 1.3 -15.95 1.7 -13.3 1.35 M-9.0 -0.2 L-8.1 0.4 -7.65 0.55 Q-6.7 1.45 -5.6 2.05 -3.7 3.1 -1.1 3.4 L0.0 5.3 -3.65 4.6 Q-5.85 4.15 -7.65 2.9 -10.05 1.45 -9.0 -0.2" fill="#eb9c00" fill-rule="evenodd" stroke="none"/>
      <path d="M15.65 1.5 L15.7 1.6 15.6 1.6 15.65 1.5 M-28.7 0.15 L-28.55 0.1 -28.6 0.15 -28.65 0.25 -28.7 0.15" fill="#fffb3d" fill-rule="evenodd" stroke="none"/>
      <path d="M17.7 -12.45 Q15.5 -13.45 12.55 -13.45 8.15 -13.45 6.0 -12.35 3.85 -11.3 2.1 -10.15 L-0.45 -8.35 -1.55 -7.65 Q-2.75 -7.0 -5.05 -5.95 L-6.55 -5.45 -9.45 -4.5 Q-19.45 -3.05 -31.4 -4.3 L-32.3 -2.1 -32.3 -2.0 Q-34.1 3.35 -31.05 6.9 L-8.7 7.55 Q0.25 9.1 3.45 11.4 L6.8 12.8 Q9.65 13.65 12.6 13.5 17.2 13.2 18.7 12.35 21.5 11.1 24.5 7.9 L31.05 7.5 Q35.4 0.45 30.15 -5.7 L25.35 -6.35 Q23.8 -6.55 23.1 -7.75 L22.25 -8.85 19.65 -11.2 19.0 -11.75 17.7 -12.45 M17.35 -7.45 L18.6 -6.4 18.95 -6.1 19.75 -5.15 Q21.6 -2.75 21.6 0.4 21.6 4.2 18.95 6.9 16.25 9.6 12.55 9.6 10.75 9.6 9.2 9.0 7.5 8.3 6.1 6.9 5.0 5.8 4.4 4.5 3.45 2.65 3.45 0.4 L3.6 -1.35 M3.7 -1.75 L3.7 -1.8 Q4.25 -4.2 6.1 -6.1 8.8 -8.85 12.55 -8.85 L15.95 -8.2 17.35 -7.45 M7.8 -0.25 L7.0 -0.7 9.75 -1.15 11.35 -1.4 M12.8 -4.55 L13.2 -5.65 M13.35 -6.05 L13.35 -6.15 13.4 -6.05 13.55 -5.4 14.45 -2.35 14.6 -1.8 16.25 -1.4 M11.45 -1.4 L11.65 -1.45 12.8 -4.55 M16.7 -1.3 L17.05 -1.25 18.85 -0.85 18.25 -0.4 15.65 1.5 15.7 1.6 M15.8 1.95 L16.85 5.75 13.65 3.2 13.6 3.2 13.35 3.0 10.8 4.95 9.75 5.75 10.65 2.15 M25.9 0.4 Q25.8 -1.45 24.9 -3.2 L27.55 -2.4 Q28.5 -2.15 29.75 -0.5 L30.35 0.45 30.5 1.15 Q30.55 1.9 30.05 2.65 29.0 4.2 27.4 4.55 L25.05 4.9 25.6 3.25 Q26.0 1.8 25.9 0.4 M10.7 1.9 L10.8 1.4 8.6 0.2 7.8 -0.25 M-28.55 0.1 L-28.5 0.05 -28.0 -0.1 -26.6 -0.3 -24.7 0.05 Q-23.85 0.45 -23.85 1.0 L-23.85 1.1 -23.95 1.4 -24.7 1.9 -26.6 2.3 -28.5 1.9 -29.2 1.3 -29.3 1.0 Q-29.3 0.5 -28.7 0.15 L-28.55 0.1 M-18.8 -0.45 L-18.7 -0.55 -12.7 -0.7 Q-13.3 0.0 -13.35 0.7 L-13.3 1.35 -12.7 2.5 -18.7 2.6 Q-20.05 1.5 -19.4 0.35 L-18.85 -0.35 M-1.8 -0.7 Q-1.6 -2.65 -0.2 -4.55 -2.3 -4.45 -3.9 -3.65 L-6.95 -2.05 -8.7 -0.6 -9.0 -0.2 Q-10.05 1.45 -7.65 2.9 -5.85 4.15 -3.65 4.6 L0.0 5.3 -1.1 3.4 Q-2.05 1.3 -1.8 -0.7" fill="none" stroke="#000000" stroke-linecap="round" stroke-linejoin="round" stroke-opacity="0.6627451" stroke-width="1.0"/>
    </g>
    <g id="sprite1" transform="matrix(1.0, 0.0, 0.0, 1.0, 32.95, 13.45)">
      <use height="26.95" transform="matrix(1.0, 0.0, 0.0, 1.0, -32.95, -13.45)" width="65.95" xlink:href="#shape1"/>
    </g>
    <g id="shape1" transform="matrix(1.0, 0.0, 0.0, 1.0, 32.95, 13.45)">
      <path d="M15.65 1.5 L15.7 1.6 15.6 1.6 15.65 1.5" fill="url(#gradient0)" fill-rule="evenodd" stroke="none"/>
      <path d="M-28.7 0.15 L-28.55 0.1 -28.6 0.15 -28.65 0.25 -28.7 0.15" fill="url(#gradient1)" fill-rule="evenodd" stroke="none"/>
      <path d="M-8.7 -0.6 L-6.95 -2.05 -3.9 -3.65 Q-2.3 -4.45 -0.2 -4.55 -1.6 -2.65 -1.8 -0.7 -2.05 1.3 -1.1 3.4 L0.0 5.3 -3.65 4.6 Q-5.85 4.15 -7.65 2.9 -10.05 1.45 -9.0 -0.2 L-8.7 -0.6" fill="url(#gradient2)" fill-rule="evenodd" stroke="none"/>
      <path d="M29.75 -0.5 L30.35 0.45 30.5 1.15 Q30.55 1.9 30.05 2.65 29.0 4.2 27.4 4.55 L25.05 4.9 25.6 3.25 Q26.0 1.8 25.9 0.4 25.8 -1.45 24.9 -3.2 L27.55 -2.4 Q28.5 -2.15 29.75 -0.5" fill="url(#gradient3)" fill-rule="evenodd" stroke="none"/>
      <path d="M-18.8 -0.45 L-18.7 -0.55 -12.7 -0.7 Q-13.3 0.0 -13.35 0.7 L-13.3 1.35 -12.7 2.5 -18.7 2.6 Q-20.05 1.5 -19.4 0.35 L-18.85 -0.35 -18.8 -0.45" fill="url(#gradient4)" fill-rule="evenodd" stroke="none"/>
      <path d="M-28.55 0.1 L-28.5 0.05 -28.0 -0.1 -26.6 -0.3 -24.7 0.05 Q-23.85 0.45 -23.85 1.0 L-23.85 1.1 -23.95 1.4 -24.7 1.9 -26.6 2.3 -28.5 1.9 -29.2 1.3 -29.3 1.0 Q-29.3 0.5 -28.7 0.15 L-28.65 0.25 -28.6 0.15 -28.55 0.1" fill="url(#gradient5)" fill-rule="evenodd" stroke="none"/>
      <path d="M12.55 -13.45 Q15.5 -13.45 17.7 -12.45 L19.0 -11.75 19.65 -11.2 22.25 -8.85 23.1 -7.75 Q23.8 -6.55 25.35 -6.35 L30.15 -5.7 Q35.4 0.45 31.05 7.5 L24.5 7.9 Q21.5 11.1 18.7 12.35 17.2 13.2 12.6 13.5 9.65 13.65 6.8 12.8 L3.45 11.4 Q0.25 9.1 -8.7 7.55 L-31.05 6.9 Q-34.1 3.35 -32.3 -2.0 L-32.3 -2.1 -31.4 -4.3 Q-19.45 -3.05 -9.45 -4.5 L-5.05 -5.95 Q-2.75 -7.0 -1.55 -7.65 L-0.45 -8.35 2.1 -10.15 Q3.85 -11.3 6.0 -12.35 8.15 -13.45 12.55 -13.45 M3.7 -1.8 L3.7 -1.75 3.6 -1.35 3.45 0.4 Q3.45 2.65 4.4 4.5 5.0 5.8 6.1 6.9 7.5 8.3 9.2 9.0 10.75 9.6 12.55 9.6 16.25 9.6 18.95 6.9 21.6 4.2 21.6 0.4 21.6 -2.75 19.75 -5.15 L18.95 -6.1 18.6 -6.4 17.35 -7.45 15.95 -8.2 12.55 -8.85 Q8.8 -8.85 6.1 -6.1 4.25 -4.2 3.7 -1.8 M29.75 -0.5 Q28.5 -2.15 27.55 -2.4 L24.9 -3.2 Q25.8 -1.45 25.9 0.4 26.0 1.8 25.6 3.25 L25.05 4.9 27.4 4.55 Q29.0 4.2 30.05 2.65 30.55 1.9 30.5 1.15 L30.35 0.45 29.75 -0.5 M-28.7 0.15 Q-29.3 0.5 -29.3 1.0 L-29.2 1.3 -28.5 1.9 -26.6 2.3 -24.7 1.9 -23.95 1.4 -23.85 1.1 -23.85 1.0 Q-23.85 0.45 -24.7 0.05 L-26.6 -0.3 -28.0 -0.1 -28.5 0.05 -28.55 0.1 -28.7 0.15 M-18.8 -0.45 L-18.85 -0.35 -19.4 0.35 Q-20.05 1.5 -18.7 2.6 L-12.7 2.5 -13.3 1.35 -13.35 0.7 Q-13.3 0.0 -12.7 -0.7 L-18.7 -0.55 -18.8 -0.45 M-8.7 -0.6 L-9.0 -0.2 Q-10.05 1.45 -7.65 2.9 -5.85 4.15 -3.65 4.6 L0.0 5.3 -1.1 3.4 Q-2.05 1.3 -1.8 -0.7 -1.6 -2.65 -0.2 -4.55 -2.3 -4.45 -3.9 -3.65 L-6.95 -2.05 -8.7 -0.6" fill="url(#gradient6)" fill-rule="evenodd" stroke="none"/>
      <path d="M3.7 -1.8 Q4.25 -4.2 6.1 -6.1 8.8 -8.85 12.55 -8.85 L15.95 -8.2 17.35 -7.45 18.6 -6.4 18.95 -6.1 19.75 -5.15 Q21.6 -2.75 21.6 0.4 21.6 4.2 18.95 6.9 16.25 9.6 12.55 9.6 10.75 9.6 9.2 9.0 7.5 8.3 6.1 6.9 5.0 5.8 4.4 4.5 3.45 2.65 3.45 0.4 L3.6 -1.35 3.7 -1.75 3.7 -1.8 M15.65 1.5 L18.85 -0.85 14.6 -1.8 13.4 -6.05 13.35 -6.15 13.35 -6.05 11.65 -1.45 11.45 -1.4 11.35 -1.4 7.0 -0.7 10.8 1.4 9.75 5.75 13.35 3.0 13.6 3.2 13.65 3.2 16.85 5.75 15.7 1.6 15.65 1.5" fill="url(#gradient7)" fill-rule="evenodd" stroke="none"/>
      <path d="M15.7 1.6 L16.85 5.75 13.65 3.2 13.6 3.2 13.35 3.0 9.75 5.75 10.8 1.4 7.0 -0.7 11.35 -1.4 11.45 -1.4 11.65 -1.45 13.35 -6.05 13.35 -6.15 13.4 -6.05 14.6 -1.8 18.85 -0.85 15.65 1.5 15.6 1.6 15.7 1.6" fill="url(#gradient8)" fill-rule="evenodd" stroke="none"/>
    </g>
    <linearGradient gradientTransform="matrix(1.0E-4, 0.0, 0.0, 1.0E-4, 15.65, 1.55)" gradientUnits="userSpaceOnUse" id="gradient0" spreadMethod="pad" x1="-819.2" x2="819.2">
      <stop offset="0.0" stop-color="#000000"/>
      <stop offset="1.0" stop-color="#ffffff"/>
    </linearGradient>
    <linearGradient gradientTransform="matrix(1.0E-4, 0.0, 0.0, 1.0E-4, -28.65, 0.15)" gradientUnits="userSpaceOnUse" id="gradient1" spreadMethod="pad" x1="-819.2" x2="819.2">
      <stop offset="0.0" stop-color="#000000"/>
      <stop offset="1.0" stop-color="#ffffff"/>
    </linearGradient>
    <linearGradient gradientTransform="matrix(-0.0028, -0.0049, 0.0052, -0.003, -4.65, 0.45)" gradientUnits="userSpaceOnUse" id="gradient2" spreadMethod="pad" x1="-819.2" x2="819.2">
      <stop offset="0.0" stop-color="#000000"/>
      <stop offset="1.0" stop-color="#ffffff"/>
    </linearGradient>
    <linearGradient gradientTransform="matrix(-0.0017, -0.003, 0.0043, -0.0025, 27.7, 0.9)" gradientUnits="userSpaceOnUse" id="gradient3" spreadMethod="pad" x1="-819.2" x2="819.2">
      <stop offset="0.0" stop-color="#000000"/>
      <stop offset="1.0" stop-color="#ffffff"/>
    </linearGradient>
    <linearGradient gradientTransform="matrix(-0.0021, -0.0036, 0.0017, -0.001, -16.1, 1.0)" gradientUnits="userSpaceOnUse" id="gradient4" spreadMethod="pad" x1="-819.2" x2="819.2">
      <stop offset="0.0" stop-color="#000000"/>
      <stop offset="1.0" stop-color="#ffffff"/>
    </linearGradient>
    <linearGradient gradientTransform="matrix(-9.0E-4, -0.0032, 0.0015, -4.0E-4, -26.6, 1.0)" gradientUnits="userSpaceOnUse" id="gradient5" spreadMethod="pad" x1="-819.2" x2="819.2">
      <stop offset="0.0" stop-color="#000000"/>
      <stop offset="1.0" stop-color="#ffffff"/>
    </linearGradient>
    <linearGradient gradientTransform="matrix(-0.0019, -0.0244, 0.0164, -0.0013, 0.0, 0.1)" gradientUnits="userSpaceOnUse" id="gradient6" spreadMethod="pad" x1="-819.2" x2="819.2">
      <stop offset="0.0" stop-color="#000000"/>
      <stop offset="1.0" stop-color="#ffffff"/>
    </linearGradient>
    <linearGradient gradientTransform="matrix(-0.0029, -0.0107, 0.0109, -0.0029, 12.5, 0.35)" gradientUnits="userSpaceOnUse" id="gradient7" spreadMethod="pad" x1="-819.2" x2="819.2">
      <stop offset="0.0" stop-color="#000000"/>
      <stop offset="1.0" stop-color="#ffffff"/>
    </linearGradient>
    <linearGradient gradientTransform="matrix(0.0, -0.0072, 0.0072, 0.0, 12.9, -0.1)" gradientUnits="userSpaceOnUse" id="gradient8" spreadMethod="pad" x1="-819.2" x2="819.2">
      <stop offset="0.0" stop-color="#000000"/>
      <stop offset="1.0" stop-color="#ffffff"/>
    </linearGradient>
  </defs>
</svg>
