<?xml version="1.0" encoding="UTF-8" standalone="no"?>
<svg xmlns:xlink="http://www.w3.org/1999/xlink" height="531.5px" width="460.6px" xmlns="http://www.w3.org/2000/svg">
  <g transform="matrix(1.0, 0.0, 0.0, 1.0, 193.65, 334.05)">
    <use height="129.35" transform="matrix(0.4557, 0.0, 0.0, 0.4557, -66.3279, -152.8779)" width="274.8" xlink:href="#sprite0"/>
  </g>
  <defs>
    <g id="sprite0" transform="matrix(1.0, 0.0, 0.0, 1.0, 0.5, 0.5)">
      <use height="129.35" transform="matrix(1.0, 0.0, 0.0, 1.0, -0.5, -0.5)" width="274.8" xlink:href="#shape0"/>
      <use height="128.35" transform="matrix(1.0, 0.0, 0.0, 1.0, 0.0, 0.0)" width="273.8" xlink:href="#sprite1"/>
    </g>
    <g id="shape0" transform="matrix(1.0, 0.0, 0.0, 1.0, 0.5, 0.5)">
      <path d="M251.05 26.45 Q252.85 29.35 254.5 32.65 257.1 37.85 259.3 44.0 L261.8 52.05 Q263.65 58.6 261.75 67.3 L260.75 71.05 Q241.95 93.75 221.9 105.85 230.05 95.0 235.15 84.9 L238.75 76.85 Q242.35 67.5 243.25 58.9 243.75 54.25 243.45 49.85 242.8 40.8 238.95 32.6 L236.25 27.6 233.15 23.0 236.25 27.6 238.95 32.6 Q242.8 40.8 243.45 49.85 243.75 54.25 243.25 58.9 242.35 67.5 238.75 76.85 L235.15 84.9 Q230.05 95.0 221.9 105.85 L214.8 109.8 Q169.95 132.35 118.8 102.9 113.95 97.0 108.25 91.0 102.85 85.25 100.3 77.95 L94.4 64.25 Q90.7 55.55 90.7 50.15 90.7 46.45 93.4 36.75 95.1 30.65 97.0 26.5 72.05 56.2 116.2 101.35 85.9 83.2 53.5 46.95 L54.1 45.1 54.15 44.95 55.2 42.5 Q56.65 39.15 58.25 36.15 62.1 28.8 67.05 22.95 75.8 12.4 87.9 6.7 104.55 -1.3 190.1 2.55 L202.1 2.9 203.7 3.0 Q229.55 5.4 237.95 11.8 245.35 17.4 251.05 26.45 M102.55 20.8 Q99.45 23.55 97.0 26.5 99.45 23.55 102.55 20.8 M212.3 21.25 L207.9 22.0 212.3 21.25 M207.9 22.0 L203.05 22.85 190.1 24.0 171.55 24.85 135.15 19.8 Q142.7 22.65 154.3 25.25 171.85 29.15 182.7 29.15 190.6 29.15 198.0 26.45 201.45 25.2 207.9 22.0 M211.95 40.0 L205.3 41.6 211.95 40.0 M124.6 18.3 L135.15 19.8 124.6 18.3 M238.75 40.05 Q240.5 48.95 240.5 54.85 240.5 65.05 235.95 81.0 L234.65 85.4 238.25 77.35 Q241.85 68.0 242.75 59.4 243.25 54.75 242.95 50.35 242.3 41.3 238.45 33.1 L235.75 28.1 Q237.5 33.75 238.75 40.05 M205.3 41.6 L202.45 42.25 190.1 43.8 174.95 45.1 131.25 37.95 Q140.1 43.25 159.85 46.65 176.6 49.55 185.3 49.55 192.25 49.55 201.15 44.2 L205.3 41.6 M125.6 37.0 L131.25 37.95 125.6 37.0" fill="#ffffff" fill-rule="evenodd" stroke="none"/>
      <path d="M259.3 44.0 Q257.1 37.85 254.5 32.65 252.85 29.35 251.05 26.45 L257.2 23.5 260.1 30.9 271.2 27.1 Q271.95 35.35 267.0 41.4 L259.3 44.0 M67.05 22.95 Q62.1 28.8 58.25 36.15 56.65 39.15 55.2 42.5 L6.8 27.5 Q4.6 19.7 5.9 11.95 L11.6 15.5 Q17.5 19.15 24.0 21.7 36.45 26.55 48.65 31.65 L55.15 34.6 Q58.95 28.0 63.0 21.75 L67.05 22.95 M261.75 67.3 L263.3 67.95 Q265.4 68.75 267.5 69.7 L264.0 81.15 273.1 85.45 Q272.3 87.6 270.65 89.4 L262.3 86.45 255.4 84.25 258.15 78.4 258.8 76.75 260.75 71.05 261.75 67.3 M62.45 76.1 Q55.1 77.75 46.6 80.45 27.8 86.3 3.45 96.95 1.05 93.65 0.35 89.45 11.8 83.9 23.45 78.7 32.3 74.75 41.6 71.85 L45.7 70.6 Q46.35 61.75 47.95 53.35 L52.9 52.15 Q53.05 58.85 57.4 67.45 L58.7 69.9 Q60.3 73.05 62.45 76.1" fill="#7070ad" fill-rule="evenodd" stroke="none"/>
      <path d="M267.5 69.7 L270.8 71.25 Q275.25 79.55 273.1 85.45 L264.0 81.15 267.5 69.7 M0.35 89.45 Q-1.0 81.95 3.05 71.55 23.6 59.4 47.75 53.4 L47.95 53.35 Q46.35 61.75 45.7 70.6 L41.6 71.85 Q32.3 74.75 23.45 78.7 11.8 83.9 0.35 89.45 M257.2 23.5 L268.7 17.6 Q270.75 22.65 271.2 27.1 L260.1 30.9 257.2 23.5 M63.0 21.75 Q58.95 28.0 55.15 34.6 L48.65 31.65 Q36.45 26.55 24.0 21.7 17.5 19.15 11.6 15.5 L5.9 11.95 Q6.9 5.95 9.95 0.0 40.8 15.05 63.0 21.75" fill="#9696d4" fill-rule="evenodd" stroke="none"/>
      <path d="M53.5 46.95 Q85.9 83.2 116.2 101.35 72.05 56.2 97.0 26.5 95.1 30.65 93.4 36.75 90.7 46.45 90.7 50.15 90.7 55.55 94.4 64.25 L100.3 77.95 Q102.85 85.25 108.25 91.0 113.95 97.0 118.8 102.9 169.95 132.35 214.8 109.8 L221.9 105.85 Q241.95 93.75 260.75 71.05 L258.8 76.75 258.15 78.4 255.4 84.25 Q242.95 107.25 209.0 122.5 L199.15 125.9 Q194.95 127.15 190.1 127.75 L178.6 128.35 172.75 128.3 Q152.1 126.8 130.25 119.85 92.25 105.7 72.85 87.8 66.65 82.1 62.45 76.1 60.3 73.05 58.7 69.9 L57.4 67.45 Q53.05 58.85 52.9 52.15 52.85 49.4 53.5 46.95 M135.15 19.8 L171.55 24.85 190.1 24.0 203.05 22.85 207.9 22.0 Q201.45 25.2 198.0 26.45 190.6 29.15 182.7 29.15 171.85 29.15 154.3 25.25 142.7 22.65 135.15 19.8 M238.75 40.05 Q237.5 33.75 235.75 28.1 L238.45 33.1 Q242.3 41.3 242.95 50.35 243.25 54.75 242.75 59.4 241.85 68.0 238.25 77.35 L234.65 85.4 235.95 81.0 Q240.5 65.05 240.5 54.85 240.5 48.95 238.75 40.05 M131.25 37.95 L174.95 45.1 190.1 43.8 202.45 42.25 205.3 41.6 201.15 44.2 Q192.25 49.55 185.3 49.55 176.6 49.55 159.85 46.65 140.1 43.25 131.25 37.95 M221.15 106.85 L221.9 105.85 221.15 106.85 M120.5 105.65 L116.2 101.35 120.5 105.65" fill="#d5d5d5" fill-rule="evenodd" stroke="none"/>
      <path d="M259.3 44.0 Q257.1 37.85 254.5 32.65 252.85 29.35 251.05 26.45 245.35 17.4 237.95 11.8 229.55 5.4 203.7 3.0 L202.1 2.9 190.1 2.55 Q104.55 -1.3 87.9 6.7 75.8 12.4 67.05 22.95 62.1 28.8 58.25 36.15 56.65 39.15 55.2 42.5 L54.15 44.95 54.1 45.1 53.5 46.95 Q52.85 49.4 52.9 52.15 L47.95 53.35 47.75 53.4 Q23.6 59.4 3.05 71.55 -1.0 81.95 0.35 89.45 1.05 93.65 3.45 96.95 27.8 86.3 46.6 80.45 55.1 77.75 62.45 76.1 60.3 73.05 58.7 69.9 L57.4 67.45 Q53.05 58.85 52.9 52.15 M116.2 101.35 Q72.05 56.2 97.0 26.5 99.45 23.55 102.55 20.8 M271.2 27.1 Q271.95 35.35 267.0 41.4 L259.3 44.0 261.8 52.05 Q263.65 58.6 261.75 67.3 L263.3 67.95 Q265.4 68.75 267.5 69.7 L270.8 71.25 Q275.25 79.55 273.1 85.45 272.3 87.6 270.65 89.4 L262.3 86.45 255.4 84.25 Q242.95 107.25 209.0 122.5 L199.15 125.9 Q194.95 127.15 190.1 127.75 L178.6 128.35 172.75 128.3 Q152.1 126.8 130.25 119.85 92.25 105.7 72.85 87.8 66.65 82.1 62.45 76.1 M257.2 23.5 L268.7 17.6 Q270.75 22.65 271.2 27.1 M257.2 23.5 L251.05 26.45 M233.15 23.0 L236.25 27.6 238.95 32.6 Q242.8 40.8 243.45 49.85 243.75 54.25 243.25 58.9 242.35 67.5 238.75 76.85 L235.15 84.9 Q230.05 95.0 221.9 105.85 L221.15 106.85 M260.75 71.05 L261.75 67.3 M255.4 84.25 L258.15 78.4 258.8 76.75 260.75 71.05 M207.9 22.0 L212.3 21.25 M135.15 19.8 L171.55 24.85 190.1 24.0 203.05 22.85 207.9 22.0 M135.15 19.8 L124.6 18.3 M205.3 41.6 L211.95 40.0 M131.25 37.95 L174.95 45.1 190.1 43.8 202.45 42.25 205.3 41.6 M131.25 37.95 L125.6 37.0 M5.9 11.95 Q4.6 19.7 6.8 27.5 L55.2 42.5 M67.05 22.95 L63.0 21.75 Q40.8 15.05 9.95 0.0 6.9 5.95 5.9 11.95 M116.2 101.35 L120.5 105.65" fill="none" stroke="#000000" stroke-linecap="round" stroke-linejoin="round" stroke-opacity="0.6627451" stroke-width="1.0"/>
    </g>
    <g id="sprite1" transform="matrix(1.0, 0.0, 0.0, 1.0, 0.0, 0.0)">
      <use height="128.35" transform="matrix(1.0, 0.0, 0.0, 1.0, 0.0, 0.0)" width="273.8" xlink:href="#shape1"/>
    </g>
    <g id="shape1" transform="matrix(1.0, 0.0, 0.0, 1.0, 0.0, 0.0)">
      <path d="M67.05 22.95 Q62.1 28.8 58.25 36.15 56.65 39.15 55.2 42.5 L6.8 27.5 Q4.6 19.7 5.9 11.95 6.9 5.95 9.95 0.0 40.8 15.05 63.0 21.75 L67.05 22.95" fill="url(#gradient0)" fill-rule="evenodd" stroke="none"/>
      <path d="M52.9 52.15 Q53.05 58.85 57.4 67.45 L58.7 69.9 Q60.3 73.05 62.45 76.1 55.1 77.75 46.6 80.45 27.8 86.3 3.45 96.95 1.05 93.65 0.35 89.45 -1.0 81.95 3.05 71.55 23.6 59.4 47.75 53.4 L47.95 53.35 52.9 52.15" fill="url(#gradient1)" fill-rule="evenodd" stroke="none"/>
      <path d="M255.4 84.25 L258.15 78.4 258.8 76.75 260.75 71.05 261.75 67.3 263.3 67.95 Q265.4 68.75 267.5 69.7 L270.8 71.25 Q275.25 79.55 273.1 85.45 272.3 87.6 270.65 89.4 L262.3 86.45 255.4 84.25" fill="url(#gradient2)" fill-rule="evenodd" stroke="none"/>
      <path d="M259.3 44.0 Q257.1 37.85 254.5 32.65 252.85 29.35 251.05 26.45 L257.2 23.5 268.7 17.6 Q270.75 22.65 271.2 27.1 271.95 35.35 267.0 41.4 L259.3 44.0" fill="url(#gradient3)" fill-rule="evenodd" stroke="none"/>
      <path d="M251.05 26.45 Q252.85 29.35 254.5 32.65 257.1 37.85 259.3 44.0 L261.8 52.05 Q263.65 58.6 261.75 67.3 L260.75 71.05 258.8 76.75 258.15 78.4 255.4 84.25 Q242.95 107.25 209.0 122.5 L199.15 125.9 Q194.95 127.15 190.1 127.75 L178.6 128.35 172.75 128.3 Q152.1 126.8 130.25 119.85 92.25 105.7 72.85 87.8 66.65 82.1 62.45 76.1 60.3 73.05 58.7 69.9 L57.4 67.45 Q53.05 58.85 52.9 52.15 52.85 49.4 53.5 46.95 L54.1 45.1 54.15 44.95 55.2 42.5 Q56.65 39.15 58.25 36.15 62.1 28.8 67.05 22.95 75.8 12.4 87.9 6.7 104.55 -1.3 190.1 2.55 L202.1 2.9 203.7 3.0 Q229.55 5.4 237.95 11.8 245.35 17.4 251.05 26.45" fill="url(#gradient4)" fill-rule="evenodd" stroke="none"/>
    </g>
    <linearGradient gradientTransform="matrix(-0.0588, -0.034, 0.013, -0.0225, 36.25, 21.25)" gradientUnits="userSpaceOnUse" id="gradient0" spreadMethod="pad" x1="-819.2" x2="819.2">
      <stop offset="0.0" stop-color="#000000"/>
      <stop offset="1.0" stop-color="#ffffff"/>
    </linearGradient>
    <linearGradient gradientTransform="matrix(-0.0665, 0.0178, -0.0071, -0.0264, 31.2, 74.55)" gradientUnits="userSpaceOnUse" id="gradient1" spreadMethod="pad" x1="-819.2" x2="819.2">
      <stop offset="0.0" stop-color="#000000"/>
      <stop offset="1.0" stop-color="#ffffff"/>
    </linearGradient>
    <linearGradient gradientTransform="matrix(0.0273, 0.0157, -0.0067, 0.0117, 264.65, 78.35)" gradientUnits="userSpaceOnUse" id="gradient2" spreadMethod="pad" x1="-819.2" x2="819.2">
      <stop offset="0.0" stop-color="#000000"/>
      <stop offset="1.0" stop-color="#ffffff"/>
    </linearGradient>
    <linearGradient gradientTransform="matrix(0.0288, -0.0166, 0.0081, 0.014, 261.15, 30.85)" gradientUnits="userSpaceOnUse" id="gradient3" spreadMethod="pad" x1="-819.2" x2="819.2">
      <stop offset="0.0" stop-color="#000000"/>
      <stop offset="1.0" stop-color="#ffffff"/>
    </linearGradient>
    <linearGradient gradientTransform="matrix(0.0, -0.1097, 0.0775, 0.0, 162.15, 48.05)" gradientUnits="userSpaceOnUse" id="gradient4" spreadMethod="pad" x1="-819.2" x2="819.2">
      <stop offset="0.0" stop-color="#000000"/>
      <stop offset="1.0" stop-color="#ffffff"/>
    </linearGradient>
  </defs>
</svg>
