<?xml version="1.0" encoding="UTF-8" standalone="no"?>
<svg xmlns:xlink="http://www.w3.org/1999/xlink" height="531.5px" width="460.6px" xmlns="http://www.w3.org/2000/svg">
  <g transform="matrix(1.0, 0.0, 0.0, 1.0, 193.65, 334.05)">
    <use height="23.1" transform="matrix(1.9412, 0.0, 0.0, 1.9412, 2.9413, -63.5704)" width="21.8" xlink:href="#sprite0"/>
  </g>
  <defs>
    <g id="sprite0" transform="matrix(1.0, 0.0, 0.0, 1.0, 10.9, 11.55)">
      <use height="23.1" transform="matrix(1.0, 0.0, 0.0, 1.0, -10.9, -11.55)" width="21.8" xlink:href="#shape0"/>
      <use height="22.1" transform="matrix(1.0, 0.0, 0.0, 1.0, -10.4, -11.05)" width="20.8" xlink:href="#sprite1"/>
    </g>
    <g id="shape0" transform="matrix(1.0, 0.0, 0.0, 1.0, 10.9, 11.55)">
      <path d="M2.5 -9.8 L-2.35 -9.8 -2.35 -11.05 2.5 -11.05 2.5 -9.8 M-3.45 6.25 L-7.85 6.25 -7.85 0.0 -2.7 0.0 -2.7 5.45 -2.7 6.25 -3.45 6.25" fill="#cccccc" fill-rule="evenodd" stroke="none"/>
      <path d="M-7.05 -7.15 L1.1 -7.55 Q4.95 -8.0 7.15 -9.65 L7.15 -5.35 3.3 -5.35 -3.15 -5.35 -7.05 -5.35 -7.05 -7.15" fill="#2f2f85" fill-rule="evenodd" stroke="none"/>
      <path d="M3.3 -1.7 L3.45 -1.7 1.15 1.0 -2.7 5.45 -2.7 0.0 -7.85 0.0 -7.85 6.25 -3.45 6.25 -8.0 11.05 -10.1 11.05 Q-10.7 4.75 -10.1 -1.7 L-3.15 -1.7 3.3 -1.7 M10.4 2.15 Q10.5 6.65 10.2 11.05 L2.2 11.05 6.0 6.9 10.4 2.15" fill="#ededed" fill-rule="evenodd" stroke="none"/>
      <path d="M-3.15 -5.35 L3.3 -5.35 3.3 -1.7 -3.15 -1.7 -3.15 -5.35" fill="#bdbdbd" fill-rule="evenodd" stroke="none"/>
      <path d="M7.15 -9.65 Q4.95 -8.0 1.1 -7.55 L-7.05 -7.15 -7.05 -9.8 -2.35 -9.8 2.5 -9.8 7.15 -9.8 7.15 -9.65" fill="#4040b0" fill-rule="evenodd" stroke="none"/>
      <path d="M3.45 -1.7 L10.2 -1.7 10.4 2.15 6.0 6.9 2.2 11.05 -8.0 11.05 -3.45 6.25 -2.7 6.25 -2.7 5.45 1.15 1.0 3.45 -1.7" fill="#ffffff" fill-rule="evenodd" stroke="none"/>
      <path d="M7.15 -9.65 L7.15 -9.8 2.5 -9.8 -2.35 -9.8 -7.05 -9.8 -7.05 -7.15 -7.05 -5.35 -3.15 -5.35 3.3 -5.35 7.15 -5.35 7.15 -9.65 M3.3 -5.35 L3.3 -1.7 3.45 -1.7 10.2 -1.7 10.4 2.15 Q10.5 6.65 10.2 11.05 L2.2 11.05 -8.0 11.05 -10.1 11.05 Q-10.7 4.75 -10.1 -1.7 L-3.15 -1.7 -3.15 -5.35 M-2.35 -9.8 L-2.35 -11.05 2.5 -11.05 2.5 -9.8 M-3.45 6.25 L-7.85 6.25 -7.85 0.0 -2.7 0.0 -2.7 5.45 -2.7 6.25 -3.45 6.25 M-3.15 -1.7 L3.3 -1.7" fill="none" stroke="#000000" stroke-linecap="round" stroke-linejoin="round" stroke-opacity="0.6627451" stroke-width="1.0"/>
    </g>
    <g id="sprite1" transform="matrix(1.0, 0.0, 0.0, 1.0, 10.4, 11.05)">
      <use height="22.1" transform="matrix(1.0, 0.0, 0.0, 1.0, -10.4, -11.05)" width="20.8" xlink:href="#shape1"/>
    </g>
    <g id="shape1" transform="matrix(1.0, 0.0, 0.0, 1.0, 10.4, 11.05)">
      <path d="M-3.15 -5.35 L-7.05 -5.35 -7.05 -9.8 -2.35 -9.8 2.5 -9.8 7.15 -9.8 7.15 -5.35 3.3 -5.35 -3.15 -5.35" fill="url(#gradient0)" fill-rule="evenodd" stroke="none"/>
      <path d="M-2.35 -9.8 L-2.35 -11.05 2.5 -11.05 2.5 -9.8 -2.35 -9.8" fill="url(#gradient1)" fill-rule="evenodd" stroke="none"/>
      <path d="M3.3 -1.7 L-3.15 -1.7 -3.15 -5.35 3.3 -5.35 3.3 -1.7" fill="url(#gradient2)" fill-rule="evenodd" stroke="none"/>
      <path d="M3.3 -1.7 L10.2 -1.7 10.4 2.15 Q10.5 6.65 10.2 11.05 L-10.1 11.05 Q-10.7 4.75 -10.1 -1.7 L-3.15 -1.7 3.3 -1.7" fill="url(#gradient3)" fill-rule="evenodd" stroke="none"/>
    </g>
    <linearGradient gradientTransform="matrix(-0.0163, -0.0044, 7.0E-4, -0.0026, 0.05, -7.6)" gradientUnits="userSpaceOnUse" id="gradient0" spreadMethod="pad" x1="-819.2" x2="819.2">
      <stop offset="0.0" stop-color="#000000"/>
      <stop offset="1.0" stop-color="#ffffff"/>
    </linearGradient>
    <linearGradient gradientTransform="matrix(-0.0066, -0.0066, 5.0E-4, -5.0E-4, 0.05, -10.45)" gradientUnits="userSpaceOnUse" id="gradient1" spreadMethod="pad" x1="-819.2" x2="819.2">
      <stop offset="0.0" stop-color="#000000"/>
      <stop offset="1.0" stop-color="#ffffff"/>
    </linearGradient>
    <linearGradient gradientTransform="matrix(-0.0087, -0.005, 0.0011, -0.0019, 0.1, -3.5)" gradientUnits="userSpaceOnUse" id="gradient2" spreadMethod="pad" x1="-819.2" x2="819.2">
      <stop offset="0.0" stop-color="#000000"/>
      <stop offset="1.0" stop-color="#ffffff"/>
    </linearGradient>
    <linearGradient gradientTransform="matrix(-0.0172, -0.0172, 0.0055, -0.0055, 2.2, 6.2)" gradientUnits="userSpaceOnUse" id="gradient3" spreadMethod="pad" x1="-819.2" x2="819.2">
      <stop offset="0.0" stop-color="#000000"/>
      <stop offset="1.0" stop-color="#ffffff"/>
    </linearGradient>
  </defs>
</svg>
