<?xml version="1.0" encoding="UTF-8" standalone="no"?>
<svg xmlns:xlink="http://www.w3.org/1999/xlink" height="531.5px" width="460.6px" xmlns="http://www.w3.org/2000/svg">
  <g transform="matrix(1.0, 0.0, 0.0, 1.0, 193.65, 334.05)">
    <use height="24.4" transform="matrix(2.0067, 0.0, 0.0, 2.0067, -4.5034, -45.6034)" width="32.4" xlink:href="#sprite0"/>
  </g>
  <defs>
    <g id="sprite0" transform="matrix(1.0, 0.0, 0.0, 1.0, 0.5, 0.5)">
      <use height="24.4" transform="matrix(1.0, 0.0, 0.0, 1.0, -0.5, -0.5)" width="32.4" xlink:href="#shape0"/>
      <use height="21.4" transform="matrix(1.0, 0.0, 0.0, 1.0, 3.65, 0.0)" width="26.0" xlink:href="#sprite1"/>
    </g>
    <g id="shape0" transform="matrix(1.0, 0.0, 0.0, 1.0, 0.5, 0.5)">
      <path d="M21.65 5.95 L22.35 3.8 23.15 6.0 23.4 7.65 23.9 6.35 25.8 4.3 24.8 8.95 27.05 9.95 25.05 11.0 25.75 11.25 24.05 12.0 24.3 12.95 24.2 12.95 23.95 15.05 24.2 12.95 24.5 13.7 25.3 16.85 23.95 15.05 22.6 13.25 22.95 10.75 Q22.95 8.0 21.65 5.95 22.95 8.0 22.95 10.75 L22.6 13.25 22.5 13.05 22.55 13.55 Q22.95 16.9 22.8 18.85 L21.9 15.05 21.5 13.15 Q21.9 12.0 21.9 10.65 21.9 8.85 21.2 7.4 L21.65 5.95 M20.3 3.6 L20.45 4.45 20.05 4.05 20.3 3.6 20.05 4.05 20.45 4.45 20.7 6.5 20.25 5.95 19.2 4.95 19.7 4.3 19.95 4.0 20.05 4.05 19.75 4.6 19.7 4.3 19.75 4.6 20.05 4.05 19.95 4.0 20.3 3.6 M22.55 13.55 L21.9 15.05 22.55 13.55 M17.2 2.75 L17.35 2.35 17.65 2.85 17.2 2.75 17.65 2.85 18.05 4.3 16.85 4.05 17.2 2.75 M16.0 4.0 L14.65 4.3 15.25 2.8 15.45 2.3 15.65 2.75 16.0 4.0 M13.7 4.7 Q12.8 5.2 12.2 5.95 L12.35 4.45 12.5 2.45 13.05 3.8 13.7 4.7 M11.7 6.85 Q10.55 8.55 10.55 10.65 10.55 12.45 11.4 14.0 L10.65 15.1 10.15 13.85 10.65 15.1 10.35 15.7 10.15 13.85 10.35 15.7 10.35 16.15 9.7 17.5 10.1 13.65 10.15 13.85 10.1 13.5 10.15 13.2 10.2 12.35 9.95 12.35 9.75 12.35 6.35 11.75 Q7.2 11.05 8.5 10.5 L8.9 10.5 Q8.65 9.9 9.05 9.55 L7.4 5.35 10.05 7.05 10.1 6.6 10.3 4.95 10.5 3.25 11.3 5.6 Q9.65 7.8 9.65 10.75 L9.75 12.35 9.65 10.75 Q9.65 7.8 11.3 5.6 L11.75 6.8 11.7 6.85 M12.2 15.35 L13.85 16.75 14.0 16.85 13.5 17.7 13.3 17.9 13.1 17.75 13.4 17.2 13.5 17.7 13.4 17.2 13.1 17.75 13.3 17.9 12.6 18.65 13.1 17.75 12.35 17.1 13.1 17.75 12.6 18.65 12.5 18.8 12.35 17.1 12.2 15.35 M14.35 16.9 L16.2 17.3 15.8 18.8 15.5 19.6 14.95 18.65 14.35 16.9 M16.7 17.3 L18.25 16.9 17.9 18.65 17.25 18.75 17.9 18.65 17.65 19.75 17.25 18.75 17.2 18.7 16.7 17.35 16.7 17.3 M18.85 16.6 L20.25 15.35 Q21.0 14.5 21.4 13.45 L21.1 16.35 21.0 16.45 21.1 16.45 20.85 18.8 20.9 18.95 19.75 17.7 20.15 17.4 19.75 16.7 19.6 17.55 19.75 16.7 20.15 17.4 19.75 17.7 19.6 17.55 18.85 16.6 M15.65 2.75 L15.25 2.8 15.65 2.75 M13.05 3.8 L12.35 4.45 13.05 3.8 M13.05 8.05 Q13.7 7.3 14.6 7.3 L15.0 7.35 14.7 11.25 Q13.95 12.6 13.25 11.1 L13.05 8.05 M14.95 18.65 L15.8 18.8 14.95 18.65 M20.85 18.8 L20.15 17.4 21.0 16.45 20.15 17.4 20.85 18.8" fill="#972424" fill-rule="evenodd" stroke="none"/>
      <path d="M23.9 6.35 L23.4 7.65 23.15 6.0 22.35 3.8 21.65 5.95 21.2 7.4 20.85 8.4 20.7 6.5 20.45 4.45 20.3 3.6 21.6 1.05 Q22.25 1.3 22.9 1.65 L24.4 2.5 25.2 3.05 23.9 6.35 23.5 6.8 23.15 6.0 22.9 1.65 23.15 6.0 23.5 6.8 23.9 6.35 M25.75 11.25 L25.05 11.0 27.05 9.95 29.35 8.75 29.65 11.3 29.6 12.45 25.75 11.25 M15.4 0.0 L18.15 0.15 19.15 0.35 21.6 1.05 20.3 3.6 19.95 4.0 19.7 4.3 19.6 3.7 19.15 0.35 19.6 3.7 19.95 4.0 19.6 3.7 19.7 4.3 19.2 4.95 18.45 5.85 18.05 4.3 17.65 2.85 17.35 2.35 17.2 2.75 16.7 3.95 16.25 2.7 16.7 3.95 17.2 2.75 16.85 4.05 16.45 5.3 16.0 4.0 15.65 2.75 16.25 2.7 15.4 0.0 M18.2 21.4 L16.5 21.4 15.35 21.3 15.75 20.05 15.5 19.6 15.8 18.8 16.2 17.3 16.45 16.6 16.65 17.3 16.3 17.3 16.2 17.3 16.3 17.3 16.65 17.3 16.7 17.35 16.7 17.45 16.2 18.8 15.8 18.8 16.2 18.8 16.7 17.45 17.2 18.7 17.25 18.75 17.65 19.75 18.2 21.4 M14.05 21.1 L11.7 20.4 12.5 18.8 12.6 18.65 13.3 17.9 13.5 17.7 13.5 18.05 13.3 17.9 13.5 18.05 14.05 21.1 M6.35 16.65 L4.95 14.85 8.9 13.2 6.35 16.65 M3.85 12.25 Q3.5 10.95 3.7 9.65 L3.85 8.45 8.9 10.5 8.5 10.5 8.4 10.5 8.5 10.5 3.85 12.25 M4.55 5.75 L5.05 4.95 6.25 3.55 7.9 7.8 4.55 5.75 M8.25 1.95 Q9.35 1.25 10.75 0.8 L10.5 3.25 10.3 4.95 10.1 6.6 8.25 1.95 M11.5 0.55 L13.95 0.1 14.05 0.15 13.5 3.5 13.4 4.1 13.2 3.7 13.05 3.8 12.5 2.45 11.5 0.55 M18.15 0.15 L17.35 2.35 18.15 0.15 M28.3 6.4 L25.75 7.6 26.7 4.35 28.3 6.4 M16.85 4.05 L16.3 4.0 16.0 4.0 16.3 4.0 16.85 4.05 M13.5 3.5 L13.2 3.7 12.5 2.45 13.2 3.7 13.5 3.5 M8.4 10.5 L8.1 10.5 8.0 10.55 8.4 10.5 M9.95 12.35 L10.2 12.35 10.15 13.2 10.1 12.95 9.95 12.35 M9.95 13.2 L10.05 12.95 10.1 13.5 10.1 13.65 9.95 13.2 M19.6 17.55 L19.75 17.7 19.55 17.85 19.6 17.55 M12.05 13.75 L11.75 13.3 11.95 12.9 12.05 13.75 M16.2 18.8 L15.75 20.05 16.2 18.8" fill="#ffffff" fill-rule="evenodd" stroke="none"/>
      <path d="M20.7 6.5 L20.85 8.4 21.2 7.4 Q21.9 8.85 21.9 10.65 21.9 12.0 21.5 13.15 L21.45 12.9 21.4 13.45 Q21.0 14.5 20.25 15.35 L18.85 16.6 18.45 16.1 18.25 16.9 16.7 17.3 16.65 17.3 16.45 16.6 16.2 17.3 14.35 16.9 14.2 16.5 14.0 16.85 13.85 16.75 12.2 15.35 12.05 13.75 12.3 14.1 Q13.5 15.5 15.15 15.5 16.8 15.5 18.0 14.1 19.15 12.7 19.15 10.75 19.15 8.8 18.0 7.4 16.8 6.0 15.15 6.0 13.5 6.0 12.3 7.4 11.15 8.8 11.15 10.75 11.15 12.15 11.75 13.3 L11.4 14.0 Q10.55 12.45 10.55 10.65 10.55 8.55 11.7 6.85 L11.75 6.85 12.0 7.6 12.15 6.35 12.15 6.25 12.2 6.0 12.2 5.95 Q12.8 5.2 13.7 4.7 L14.2 5.4 14.65 4.3 16.0 4.0 16.45 5.3 16.85 4.05 18.05 4.3 18.45 5.85 19.2 4.95 20.25 5.95 20.7 6.5" fill="#661a1a" fill-rule="evenodd" stroke="none"/>
      <path d="M22.6 13.25 L23.95 15.05 25.3 16.85 24.5 13.7 26.1 17.7 24.5 13.7 24.3 12.95 24.05 12.0 25.75 11.25 29.6 12.45 Q29.05 16.9 24.45 19.55 L23.4 20.1 21.8 20.75 18.2 21.4 17.65 19.75 17.9 18.65 18.25 16.9 18.45 16.1 18.85 16.6 19.6 17.55 19.55 17.85 19.75 17.7 20.9 18.95 20.85 18.8 21.1 16.45 21.1 16.35 21.4 13.45 21.5 13.15 21.9 15.05 22.8 18.85 Q22.95 16.9 22.55 13.55 L22.6 13.25 M27.05 9.95 L24.8 8.95 25.8 4.3 23.9 6.35 25.2 3.05 26.7 4.35 25.75 7.6 28.3 6.4 Q29.0 7.5 29.35 8.75 L27.05 9.95 M15.35 21.3 L14.25 21.1 14.05 21.1 13.5 18.05 13.5 17.7 14.0 16.85 14.2 16.5 14.35 16.9 14.95 18.65 15.5 19.6 15.75 20.05 15.35 21.3 M11.7 20.4 L10.85 20.1 Q8.3 19.0 7.3 17.85 L6.35 16.65 8.9 13.2 4.95 14.85 3.85 12.25 8.5 10.5 Q7.2 11.05 6.35 11.75 L9.75 12.35 9.95 12.35 10.1 12.95 10.15 13.2 10.1 13.5 10.05 12.95 9.95 13.2 10.1 13.65 9.7 17.5 10.35 16.15 10.4 16.15 10.4 16.05 10.35 15.7 10.65 15.1 11.4 14.0 11.75 13.3 12.05 13.75 12.2 15.35 12.35 17.1 12.5 18.8 11.7 20.4 M3.85 8.45 Q4.1 6.75 4.55 5.75 L7.9 7.8 6.25 3.55 Q7.35 2.5 8.25 1.95 L10.1 6.6 10.05 7.05 7.4 5.35 9.05 9.55 Q8.65 9.9 8.9 10.5 L3.85 8.45 M10.75 0.8 L11.5 0.55 12.5 2.45 12.35 4.45 12.2 5.95 12.2 6.0 12.1 6.35 12.15 6.35 12.0 7.6 11.75 6.85 11.8 6.8 11.75 6.8 11.3 5.6 10.5 3.25 10.75 0.8 M14.05 0.1 L15.4 0.0 16.25 2.7 15.65 2.75 15.45 2.3 15.25 2.8 14.65 4.3 14.2 5.4 13.7 4.7 13.05 3.8 13.2 3.7 13.4 4.1 13.5 3.5 14.05 0.15 14.05 0.1 M28.35 14.95 L25.75 13.7 26.75 17.1 25.75 13.7 28.35 14.95 M21.8 20.75 L20.9 18.95 21.8 20.75 M23.4 20.1 L23.95 15.05 23.4 20.1 M12.1 6.35 L11.8 6.8 12.1 6.35 M8.15 17.7 L9.95 13.2 8.15 17.7 M19.05 20.55 L19.55 17.85 19.05 20.55 M10.85 20.1 L10.4 16.15 10.85 20.1" fill="#cac7b5" fill-rule="evenodd" stroke="none"/>
      <path d="M11.75 13.3 Q11.15 12.15 11.15 10.75 11.15 8.8 12.3 7.4 13.5 6.0 15.15 6.0 16.8 6.0 18.0 7.4 19.15 8.8 19.15 10.75 19.15 12.7 18.0 14.1 16.8 15.5 15.15 15.5 13.5 15.5 12.3 14.1 L12.05 13.75 11.95 12.9 11.75 13.3 M13.05 8.05 L12.8 8.3 Q12.05 9.3 12.05 10.7 12.05 12.1 12.8 13.1 13.55 14.1 14.6 14.1 15.7 14.1 16.45 13.1 17.2 12.1 17.2 10.7 17.2 9.3 16.45 8.3 L15.65 7.55 15.0 7.35 14.6 7.3 Q13.7 7.3 13.05 8.05" fill="#4a1313" fill-rule="evenodd" stroke="none"/>
      <path d="M15.0 7.35 L15.65 7.55 16.45 8.3 Q17.2 9.3 17.2 10.7 17.2 12.1 16.45 13.1 15.7 14.1 14.6 14.1 13.55 14.1 12.8 13.1 12.05 12.1 12.05 10.7 12.05 9.3 12.8 8.3 L13.05 8.05 13.25 11.1 Q13.95 12.6 14.7 11.25 L15.0 7.35" fill="#360e0e" fill-rule="evenodd" stroke="none"/>
      <path d="M23.9 6.35 L23.4 7.65 23.15 6.0 22.35 3.8 21.65 5.95 Q22.95 8.0 22.95 10.75 L22.6 13.25 23.95 15.05 24.2 12.95 24.5 13.7 24.3 12.95 24.05 12.0 25.75 11.25 25.05 11.0 27.05 9.95 24.8 8.95 25.8 4.3 23.9 6.35 25.2 3.05 24.4 2.5 22.9 1.65 23.15 6.0 23.5 6.8 23.9 6.35 M20.45 4.45 L20.3 3.6 20.05 4.05 20.45 4.45 20.7 6.5 20.85 8.4 21.2 7.4 21.65 5.95 M15.4 0.0 L18.15 0.15 19.15 0.35 21.6 1.05 Q22.25 1.3 22.9 1.65 M20.3 3.6 L21.6 1.05 M21.2 7.4 Q21.9 8.85 21.9 10.65 21.9 12.0 21.5 13.15 L21.9 15.05 22.55 13.55 22.5 13.05 22.6 13.25 22.55 13.55 Q22.95 16.9 22.8 18.85 L21.9 15.05 M28.3 6.4 Q29.0 7.5 29.35 8.75 L29.65 11.3 29.6 12.45 Q29.05 16.9 24.45 19.55 L23.4 20.1 21.8 20.75 18.2 21.4 16.5 21.4 15.35 21.3 14.25 21.1 14.05 21.1 11.7 20.4 10.85 20.1 Q8.3 19.0 7.3 17.85 L6.35 16.65 4.95 14.85 3.85 12.25 Q3.5 10.95 3.7 9.65 L3.85 8.45 Q4.1 6.75 4.55 5.75 L5.05 4.95 6.25 3.55 Q7.35 2.5 8.25 1.95 9.35 1.25 10.75 0.8 L11.5 0.55 13.95 0.1 14.05 0.1 15.4 0.0 16.25 2.7 16.7 3.95 17.2 2.75 17.35 2.35 18.15 0.15 M26.7 4.35 L25.75 7.6 28.3 6.4 26.7 4.35 25.2 3.05 M27.05 9.95 L29.35 8.75 M20.7 6.5 L20.25 5.95 19.2 4.95 18.45 5.85 18.05 4.3 16.85 4.05 16.45 5.3 16.0 4.0 14.65 4.3 14.2 5.4 13.7 4.7 Q12.8 5.2 12.2 5.95 L12.2 6.0 12.15 6.25 12.15 6.35 12.0 7.6 11.75 6.85 11.8 6.8 12.1 6.35 12.2 6.0 M11.7 6.85 Q10.55 8.55 10.55 10.65 10.55 12.45 11.4 14.0 L11.75 13.3 Q11.15 12.15 11.15 10.75 11.15 8.8 12.3 7.4 13.5 6.0 15.15 6.0 16.8 6.0 18.0 7.4 19.15 8.8 19.15 10.75 19.15 12.7 18.0 14.1 16.8 15.5 15.15 15.5 13.5 15.5 12.3 14.1 L12.05 13.75 12.2 15.35 13.85 16.75 14.0 16.85 14.2 16.5 14.35 16.9 16.2 17.3 16.45 16.6 16.65 17.3 16.7 17.3 18.25 16.9 18.45 16.1 18.85 16.6 20.25 15.35 Q21.0 14.5 21.4 13.45 L21.45 12.9 21.5 13.15 21.4 13.45 21.1 16.35 21.1 16.45 20.85 18.8 20.9 18.95 21.8 20.75 M26.75 17.1 L25.75 13.7 28.35 14.95 M21.1 16.35 L21.0 16.45 20.15 17.4 20.85 18.8 M24.5 13.7 L25.3 16.85 23.95 15.05 23.4 20.1 M26.1 17.7 L24.5 13.7 M29.3 5.9 Q33.35 11.5 29.5 16.4 M29.6 12.45 L25.75 11.25 M16.25 2.7 L15.65 2.75 16.0 4.0 16.3 4.0 16.85 4.05 17.2 2.75 17.65 2.85 17.35 2.35 M15.25 2.8 L15.65 2.75 15.45 2.3 15.25 2.8 14.65 4.3 M19.15 0.35 L19.6 3.7 19.95 4.0 20.3 3.6 M19.95 4.0 L19.7 4.3 19.75 4.6 20.05 4.05 19.95 4.0 M19.7 4.3 L19.6 3.7 M19.7 4.3 L19.2 4.95 M18.05 4.3 L17.65 2.85 M14.05 0.15 L14.05 0.1 M12.5 2.45 L11.5 0.55 M10.5 3.25 L10.3 4.95 10.1 6.6 10.05 7.05 7.4 5.35 9.05 9.55 Q8.65 9.9 8.9 10.5 L8.5 10.5 Q7.2 11.05 6.35 11.75 L9.75 12.35 9.65 10.75 Q9.65 7.8 11.3 5.6 L10.5 3.25 10.75 0.8 M12.2 5.95 L12.35 4.45 12.5 2.45 13.2 3.7 13.5 3.5 14.05 0.15 M13.5 3.5 L13.4 4.1 13.2 3.7 13.05 3.8 13.7 4.7 M12.35 4.45 L13.05 3.8 12.5 2.45 M15.0 7.35 L15.65 7.55 16.45 8.3 Q17.2 9.3 17.2 10.7 17.2 12.1 16.45 13.1 15.7 14.1 14.6 14.1 13.55 14.1 12.8 13.1 12.05 12.1 12.05 10.7 12.05 9.3 12.8 8.3 L13.05 8.05 Q13.7 7.3 14.6 7.3 L15.0 7.35 14.7 11.25 Q13.95 12.6 13.25 11.1 L13.05 8.05 M12.15 6.25 L12.1 6.35 M11.75 6.8 L11.75 6.85 M11.75 6.8 L11.7 6.85 M11.75 6.8 L11.3 5.6 M8.4 10.5 L8.0 10.55 8.1 10.5 8.4 10.5 8.5 10.5 3.85 12.25 M9.75 12.35 L9.95 12.35 10.2 12.35 10.15 13.2 10.1 13.5 10.15 13.85 10.65 15.1 11.4 14.0 M6.25 3.55 L7.9 7.8 4.55 5.75 M8.25 1.95 L10.1 6.6 M3.85 8.45 L8.9 10.5 M9.95 13.2 L10.05 12.95 10.1 13.5 10.1 13.65 10.15 13.85 10.35 15.7 10.65 15.1 M10.35 16.15 L9.7 17.5 10.1 13.65 9.95 13.2 8.15 17.7 M6.35 16.65 L8.9 13.2 4.95 14.85 M16.65 17.3 L16.3 17.3 16.2 17.3 15.8 18.8 16.2 18.8 16.7 17.45 16.7 17.35 17.2 18.7 17.25 18.75 17.9 18.65 18.25 16.9 M19.75 17.7 L20.15 17.4 19.75 16.7 19.6 17.55 19.75 17.7 20.9 18.95 M19.55 17.85 L19.6 17.55 18.85 16.6 M19.75 17.7 L19.55 17.85 19.05 20.55 M12.05 13.75 L11.75 13.3 11.95 12.9 12.05 13.75 M10.35 16.15 L10.35 15.7 10.4 16.05 10.4 16.15 10.85 20.1 M10.35 16.15 L10.4 16.05 M13.3 17.9 L13.5 17.7 13.4 17.2 13.1 17.75 13.3 17.9 13.5 18.05 13.5 17.7 14.0 16.85 M12.35 17.1 L13.1 17.75 12.6 18.65 13.3 17.9 M12.2 15.35 L12.35 17.1 12.5 18.8 12.6 18.65 M12.5 18.8 L11.7 20.4 M17.25 18.75 L17.65 19.75 17.9 18.65 M15.75 20.05 L16.2 18.8 M15.5 19.6 L15.8 18.8 14.95 18.65 15.5 19.6 15.75 20.05 15.35 21.3 M17.65 19.75 L18.2 21.4 M13.5 18.05 L14.05 21.1 M14.95 18.65 L14.35 16.9 M16.7 17.45 L17.2 18.7 M3.7 4.7 Q-0.35 10.3 3.5 15.2 M10.15 13.2 L10.1 12.95 9.95 12.35 M11.95 22.3 Q15.65 24.45 21.2 22.4 M0.6 7.7 Q-0.7 10.35 0.8 13.4" fill="none" stroke="#000000" stroke-linecap="round" stroke-linejoin="round" stroke-opacity="0.6627451" stroke-width="1.0"/>
    </g>
    <g id="sprite1" transform="matrix(1.0, 0.0, 0.0, 1.0, -3.65, 0.0)">
      <use height="21.4" transform="matrix(1.0, 0.0, 0.0, 1.0, 3.65, 0.0)" width="26.0" xlink:href="#shape1"/>
    </g>
    <g id="shape1" transform="matrix(1.0, 0.0, 0.0, 1.0, -3.65, 0.0)">
      <path d="M21.1 16.35 L21.45 12.9 22.8 18.85 Q22.95 16.9 22.55 13.55 L22.5 13.05 22.6 13.25 25.3 16.85 24.5 13.7 24.2 12.95 24.3 12.95 24.05 12.0 25.75 11.25 25.05 11.0 27.05 9.95 24.8 8.95 25.8 4.3 23.9 6.35 23.4 7.65 23.15 6.0 22.35 3.8 20.85 8.4 20.3 3.6 18.45 5.85 17.65 2.85 17.35 2.35 17.2 2.75 16.45 5.3 15.65 2.75 15.45 2.3 14.2 5.4 13.05 3.8 12.5 2.45 12.2 5.95 12.2 6.0 12.15 6.25 12.15 6.35 12.0 7.6 11.75 6.85 11.8 6.8 11.75 6.8 10.5 3.25 10.3 4.95 10.05 7.05 7.4 5.35 9.05 9.55 Q8.65 9.9 8.9 10.5 L8.5 10.5 Q7.2 11.05 6.35 11.75 L9.75 12.35 10.2 12.35 10.15 13.2 10.1 13.5 10.1 13.65 9.7 17.5 10.35 16.15 10.35 15.7 10.65 15.1 11.4 14.0 11.95 12.9 12.5 18.8 12.6 18.65 13.5 17.7 14.2 16.5 14.95 18.65 15.5 19.6 16.45 16.6 16.65 17.3 16.7 17.35 17.2 18.7 17.25 18.75 17.65 19.75 18.45 16.1 20.9 18.95 20.85 18.8 21.1 16.45 21.1 16.35 M24.4 2.5 L25.2 3.05 26.7 4.35 28.3 6.4 Q29.0 7.5 29.35 8.75 L29.65 11.3 29.6 12.45 Q29.05 16.9 24.45 19.55 L23.4 20.1 21.8 20.75 18.2 21.4 16.5 21.4 15.35 21.3 14.25 21.1 14.05 21.1 11.7 20.4 10.85 20.1 Q8.3 19.0 7.3 17.85 L6.35 16.65 4.95 14.85 3.85 12.25 Q3.5 10.95 3.7 9.65 L3.85 8.45 Q4.1 6.75 4.55 5.75 L5.05 4.95 6.25 3.55 Q7.35 2.5 8.25 1.95 9.35 1.25 10.75 0.8 L11.5 0.55 13.95 0.1 14.05 0.15 14.05 0.1 15.4 0.0 18.15 0.15 19.15 0.35 21.6 1.05 Q22.25 1.3 22.9 1.65 L24.4 2.5 M8.4 10.5 L8.1 10.5 8.0 10.55 8.4 10.5" fill="url(#gradient0)" fill-rule="evenodd" stroke="none"/>
      <path d="M11.75 6.85 L12.0 7.6 12.15 6.35 12.15 6.25 12.2 6.0 12.2 5.95 12.5 2.45 13.05 3.8 14.2 5.4 15.45 2.3 15.65 2.75 16.45 5.3 17.2 2.75 17.35 2.35 17.65 2.85 18.45 5.85 20.3 3.6 20.85 8.4 22.35 3.8 23.15 6.0 23.4 7.65 23.9 6.35 25.8 4.3 24.8 8.95 27.05 9.95 25.05 11.0 25.75 11.25 24.05 12.0 24.3 12.95 24.2 12.95 24.5 13.7 25.3 16.85 22.6 13.25 22.5 13.05 22.55 13.55 Q22.95 16.9 22.8 18.85 L21.45 12.9 21.1 16.35 21.0 16.45 21.1 16.45 20.85 18.8 20.9 18.95 18.45 16.1 17.65 19.75 17.25 18.75 17.2 18.7 16.7 17.35 16.7 17.3 16.65 17.3 16.45 16.6 15.5 19.6 14.95 18.65 14.2 16.5 13.5 17.7 12.6 18.65 12.5 18.8 11.95 12.9 11.4 14.0 10.65 15.1 10.35 15.7 10.35 16.15 9.7 17.5 10.1 13.65 10.15 13.85 10.1 13.5 10.15 13.2 10.2 12.35 9.75 12.35 6.35 11.75 Q7.2 11.05 8.5 10.5 L8.9 10.5 Q8.65 9.9 9.05 9.55 L7.4 5.35 10.05 7.05 10.3 4.95 10.5 3.25 11.75 6.8 11.7 6.85 11.75 6.85" fill="url(#gradient1)" fill-rule="evenodd" stroke="none"/>
    </g>
    <linearGradient gradientTransform="matrix(-0.022, -0.022, 0.0092, -0.0092, 16.65, 10.7)" gradientUnits="userSpaceOnUse" id="gradient0" spreadMethod="pad" x1="-819.2" x2="819.2">
      <stop offset="0.0" stop-color="#000000"/>
      <stop offset="1.0" stop-color="#ffffff"/>
    </linearGradient>
    <linearGradient gradientTransform="matrix(0.0311, 0.0, 0.0, 0.0107, 27.5, 12.65)" gradientUnits="userSpaceOnUse" id="gradient1" spreadMethod="pad" x1="-819.2" x2="819.2">
      <stop offset="0.0" stop-color="#000000"/>
      <stop offset="1.0" stop-color="#ffffff"/>
    </linearGradient>
  </defs>
</svg>
