<?xml version="1.0" encoding="UTF-8" standalone="no"?>
<svg xmlns:xlink="http://www.w3.org/1999/xlink" height="531.5px" width="460.6px" xmlns="http://www.w3.org/2000/svg">
  <g transform="matrix(1.0, 0.0, 0.0, 1.0, 193.65, 334.05)">
    <use height="94.1" transform="matrix(1.2097, 1.1636, -1.1636, 1.2097, 21.5062, -96.6105)" width="91.05" xlink:href="#sprite0"/>
    <use height="97.55" transform="matrix(1.0, 0.0, 0.0, 1.0, -71.15, -58.8)" width="58.2" xlink:href="#shape2"/>
  </g>
  <defs>
    <g id="sprite0" transform="matrix(1.0, 0.0, 0.0, 1.0, 45.5, 47.05)">
      <use height="94.1" transform="matrix(1.0, 0.0, 0.0, 1.0, -45.5, -47.05)" width="91.05" xlink:href="#shape0"/>
      <use height="93.1" transform="matrix(1.0, 0.0, 0.0, 1.0, -45.0, -46.55)" width="90.05" xlink:href="#sprite1"/>
    </g>
    <g id="shape0" transform="matrix(1.0, 0.0, 0.0, 1.0, 45.5, 47.05)">
      <path d="M34.2 -37.9 Q33.7 -37.9 33.3 -38.25 32.95 -38.6 32.9 -39.2 32.9 -39.7 33.25 -40.1 L38.3 -45.3 Q38.65 -45.7 39.25 -45.75 L40.15 -45.35 Q40.55 -45.0 40.55 -44.45 40.55 -43.9 40.2 -43.5 L35.15 -38.3 Q34.8 -37.9 34.2 -37.9 M7.5 36.8 L7.45 36.4 Q7.45 35.55 8.0 35.0 8.55 34.4 9.35 34.4 10.2 34.35 10.75 34.9 11.3 35.45 11.35 36.3 11.4 37.1 10.85 37.7 L10.7 37.85 Q10.2 38.25 9.45 38.3 8.6 38.3 8.05 37.75 L7.5 36.8" fill="#ffffff" fill-rule="evenodd" stroke="none"/>
      <path d="M34.2 -37.9 Q34.8 -37.9 35.15 -38.3 L40.2 -43.5 Q41.55 -44.4 42.95 -44.85 44.65 -43.25 45.05 -40.45 L-10.0 16.75 -16.55 23.55 -38.65 46.55 Q-40.75 46.15 -42.2 45.25 -40.5 41.0 -37.65 38.0 -18.95 18.6 -13.1 11.75 L28.75 -31.8 Q30.4 -33.9 33.2 -36.85 L34.2 -37.9 M10.7 37.85 Q12.25 38.6 13.4 39.7 L13.55 39.85 Q13.2 41.2 12.25 42.2 L9.6 44.95 Q8.2 46.45 6.1 46.45 4.0 46.5 2.5 45.1 1.05 43.65 1.0 41.55 L1.1 40.35 Q1.4 39.05 2.4 38.0 L3.95 36.4 7.25 36.8 7.5 36.8 8.05 37.75 Q8.6 38.3 9.45 38.3 10.2 38.25 10.7 37.85" fill="#0d0d0d" fill-rule="evenodd" stroke="none"/>
      <path d="M40.2 -43.5 Q40.55 -43.9 40.55 -44.45 40.55 -45.0 40.15 -45.35 L39.25 -45.75 Q38.65 -45.7 38.3 -45.3 L33.25 -40.1 Q32.9 -39.7 32.9 -39.2 32.95 -38.6 33.3 -38.25 33.7 -37.9 34.2 -37.9 L33.2 -36.85 Q30.4 -33.9 28.75 -31.8 L-13.1 11.75 Q-18.95 18.6 -37.65 38.0 -40.5 41.0 -42.2 45.25 -44.2 43.8 -44.95 41.15 L-45.0 40.45 38.7 -46.55 Q41.3 -46.55 42.9 -44.9 L42.95 -44.85 Q41.55 -44.4 40.2 -43.5 M10.7 37.85 L10.85 37.7 Q11.4 37.1 11.35 36.3 11.3 35.45 10.75 34.9 10.2 34.35 9.35 34.4 8.55 34.4 8.0 35.0 7.45 35.55 7.45 36.4 L7.5 36.8 7.25 36.8 3.95 36.4 5.05 35.25 5.25 35.05 Q6.1 34.25 7.15 33.95 L8.55 33.7 Q10.65 33.7 12.1 35.15 13.6 36.55 13.65 38.6 L13.55 39.85 13.4 39.7 Q12.25 38.6 10.7 37.85" fill="#262626" fill-rule="evenodd" stroke="none"/>
      <path d="M5.25 35.05 L5.05 35.25 3.95 36.4 2.4 38.0 Q1.4 39.05 1.1 40.35 -7.5 33.0 -16.55 23.55 L-10.0 16.75 -9.55 17.1 -8.0 19.45 Q-8.2 23.15 -7.3 24.85 -6.7 25.9 -1.9 30.5 1.05 33.35 5.25 35.05" fill="#171717" fill-rule="evenodd" stroke="none"/>
      <path d="M7.15 33.95 Q6.1 34.25 5.25 35.05 1.05 33.35 -1.9 30.5 -6.7 25.9 -7.3 24.85 -8.2 23.15 -8.0 19.45 -6.6 21.05 -4.7 22.25 -3.5 24.75 0.3 27.4 1.1 30.1 5.4 31.65 6.0 32.75 7.15 33.95" fill="#404040" fill-rule="evenodd" stroke="none"/>
      <path d="M42.95 -44.85 L42.9 -44.9 Q41.3 -46.55 38.7 -46.55 L-45.0 40.45 -44.95 41.15 Q-44.2 43.8 -42.2 45.25 -40.75 46.15 -38.65 46.55 L-16.55 23.55 -10.0 16.75 -9.55 17.1 -8.0 19.45 Q-6.6 21.05 -4.7 22.25 -3.5 24.75 0.3 27.4 1.1 30.1 5.4 31.65 6.0 32.75 7.15 33.95 6.1 34.25 5.25 35.05 L5.05 35.25 3.95 36.4 2.4 38.0 Q1.4 39.05 1.1 40.35 -7.5 33.0 -16.55 23.55 M-10.0 16.75 L45.05 -40.45 Q44.65 -43.25 42.95 -44.85 M13.55 39.85 L13.65 38.6 Q13.6 36.55 12.1 35.15 10.65 33.7 8.55 33.7 L7.15 33.95 M1.1 40.35 L1.0 41.55 Q1.05 43.65 2.5 45.1 4.0 46.5 6.1 46.45 8.2 46.45 9.6 44.95 L12.25 42.2 Q13.2 41.2 13.55 39.85" fill="none" stroke="#000000" stroke-linecap="round" stroke-linejoin="round" stroke-opacity="0.6627451" stroke-width="1.0"/>
    </g>
    <g id="sprite1" transform="matrix(1.0, 0.0, 0.0, 1.0, 45.0, 46.55)">
      <use height="93.1" transform="matrix(1.0, 0.0, 0.0, 1.0, -45.0, -46.55)" width="90.05" xlink:href="#shape1"/>
    </g>
    <g id="shape1" transform="matrix(1.0, 0.0, 0.0, 1.0, 45.0, 46.55)">
      <path d="M-10.0 16.75 L-9.55 17.1 -8.0 19.45 Q-6.6 21.05 -4.7 22.25 -3.5 24.75 0.3 27.4 1.1 30.1 5.4 31.65 6.0 32.75 7.15 33.95 6.1 34.25 5.25 35.05 L5.05 35.25 2.4 38.0 Q1.4 39.05 1.1 40.35 -7.5 33.0 -16.55 23.55 L-10.0 16.75" fill="url(#gradient0)" fill-rule="evenodd" stroke="none"/>
      <path d="M7.15 33.95 L8.55 33.7 Q10.65 33.7 12.1 35.15 13.6 36.55 13.65 38.6 L13.55 39.85 Q13.2 41.2 12.25 42.2 L9.6 44.95 Q8.2 46.45 6.1 46.45 4.0 46.5 2.5 45.1 1.05 43.65 1.0 41.55 L1.1 40.35 Q1.4 39.05 2.4 38.0 L5.05 35.25 5.25 35.05 Q6.1 34.25 7.15 33.95" fill="url(#gradient1)" fill-rule="evenodd" stroke="none"/>
      <path d="M-16.55 23.55 L-38.65 46.55 Q-40.75 46.15 -42.2 45.25 -44.2 43.8 -44.95 41.15 L-45.0 40.45 38.7 -46.55 Q41.3 -46.55 42.9 -44.9 L42.95 -44.85 Q44.65 -43.25 45.05 -40.45 L-10.0 16.75 -16.55 23.55" fill="url(#gradient2)" fill-rule="evenodd" stroke="none"/>
    </g>
    <linearGradient gradientTransform="matrix(0.0041, -0.0053, 0.0114, 0.0087, -4.7, 28.55)" gradientUnits="userSpaceOnUse" id="gradient0" spreadMethod="pad" x1="-819.2" x2="819.2">
      <stop offset="0.0" stop-color="#000000"/>
      <stop offset="1.0" stop-color="#ffffff"/>
    </linearGradient>
    <linearGradient gradientTransform="matrix(0.0051, -0.0057, 0.0058, 0.0052, 9.15, 38.75)" gradientUnits="userSpaceOnUse" id="gradient1" spreadMethod="pad" x1="-819.2" x2="819.2">
      <stop offset="0.0" stop-color="#000000"/>
      <stop offset="1.0" stop-color="#ffffff"/>
    </linearGradient>
    <linearGradient gradientTransform="matrix(-0.0043, -0.0051, 0.0434, -0.0365, 0.0, 0.0)" gradientUnits="userSpaceOnUse" id="gradient2" spreadMethod="pad" x1="-819.2" x2="819.2">
      <stop offset="0.0" stop-color="#000000"/>
      <stop offset="1.0" stop-color="#ffffff"/>
    </linearGradient>
    <g id="shape2" transform="matrix(1.0, 0.0, 0.0, 1.0, 71.15, 58.8)">
      <path d="M-53.4 -58.1 L-53.2 -58.1 -52.1 -58.15 -52.15 -58.05 -53.7 -54.05 -55.8 -48.9 Q-59.4 -39.7 -61.45 -33.1 -63.55 -26.6 -65.0 -20.55 -65.7 -18.1 -65.85 -15.55 L-66.4 -8.6 Q-66.65 -4.15 -65.8 1.65 L-63.7 15.0 Q-62.4 22.6 -61.5 25.85 L-60.2 29.3 -59.05 31.35 -60.55 29.95 -60.75 29.7 Q-62.4 27.45 -63.4 24.6 -64.5 21.5 -66.05 14.25 L-68.55 1.45 Q-69.55 -4.1 -69.3 -8.35 L-68.85 -15.0 Q-68.65 -17.4 -67.95 -19.75 -66.4 -25.55 -64.15 -31.75 -61.95 -38.05 -58.05 -46.85 L-55.0 -53.65 -53.6 -56.85 Q-53.1 -58.1 -53.4 -57.6 L-53.4 -57.65 -53.4 -58.1 M-16.1 -43.95 L-14.1 -41.35 -20.2 -27.55 Q-22.35 -22.55 -23.5 -18.9 L-24.1 -16.4 Q-24.85 -13.15 -24.85 -11.85 L-24.35 -8.0 Q-23.9 -5.55 -23.2 -4.15 L-23.0 -3.6 -24.75 -3.65 -24.95 -4.2 Q-25.6 -5.7 -25.95 -8.25 L-26.35 -12.3 Q-26.35 -13.65 -25.6 -17.05 L-25.05 -19.65 -22.0 -28.7 -16.1 -43.95 M-25.65 24.7 L-24.3 24.7 -24.3 24.65 -24.15 24.45 -24.1 24.5 -23.95 24.55 -24.15 24.55 -24.15 24.85 Q-24.0 25.55 -24.85 28.75 -25.75 31.95 -26.5 32.9 L-27.25 33.8 Q-26.9 31.75 -26.9 29.25 L-27.0 26.1 -26.9 26.35 -26.1 25.5 -25.65 24.7 M-21.55 -3.55 L-19.8 -3.6 Q-19.1 -3.6 -18.6 -2.8 L-17.8 -0.95 -17.75 -0.8 -16.9 1.85 -16.75 2.15 -16.35 3.7 -16.6 4.35 -17.2 4.6 -17.2 4.65 -17.85 4.75 -19.75 5.25 -20.1 5.1 -19.65 5.0 -19.65 4.95 -19.15 4.65 -18.95 4.35 -18.9 4.0 -19.3 2.35 -19.35 2.05 -20.15 -0.7 -20.15 -0.9 -20.85 -2.8 -21.55 -3.55 M-24.95 8.9 L-25.05 9.25 -25.9 14.9 -25.9 15.8 -25.9 16.55 -25.9 19.05 -25.85 19.45 -26.0 20.3 -25.95 20.25 -26.55 22.65 -27.2 24.9 -27.05 25.8 -27.35 25.8 Q-27.9 25.8 -28.0 24.0 L-28.0 21.2 -27.8 17.25 -27.3 12.4 Q-27.1 10.85 -25.5 9.35 L-24.95 8.9 M-41.8 34.55 L-41.65 33.85 -41.65 33.8 -41.6 33.75 -41.4 33.55 -41.35 33.55 -41.2 34.15 -41.15 34.2 -41.25 34.25 -41.8 34.55" fill="#bdbdbd" fill-rule="evenodd" stroke="none"/>
      <path d="M-53.4 -58.1 L-53.4 -57.65 -53.4 -57.6 Q-53.1 -58.1 -53.6 -56.85 L-55.0 -53.65 -58.05 -46.85 Q-61.95 -38.05 -64.15 -31.75 -66.4 -25.55 -67.95 -19.75 -68.65 -17.4 -68.85 -15.0 L-69.3 -8.35 Q-69.55 -4.1 -68.55 1.45 L-66.05 14.25 Q-64.5 21.5 -63.4 24.6 -62.4 27.45 -60.75 29.7 L-60.55 29.95 -59.05 31.35 Q-57.45 32.3 -54.95 32.65 L-54.65 32.7 -55.15 31.95 Q-56.05 30.5 -56.05 29.5 L-55.7 28.7 Q-55.45 28.35 -52.65 32.4 -49.9 36.45 -47.05 36.4 -44.25 36.3 -42.6 35.05 L-41.8 34.55 -41.25 34.25 -41.15 34.2 -41.2 34.15 -41.35 33.55 -41.4 33.25 -41.25 32.2 -40.95 31.95 -38.45 34.3 Q-36.25 35.7 -34.45 36.15 L-34.4 36.15 -32.9 36.4 -32.4 36.4 -29.55 35.8 -28.1 34.75 -27.25 33.8 -26.5 32.9 Q-25.75 31.95 -24.85 28.75 -24.0 25.55 -24.15 24.85 L-24.15 24.55 -23.95 24.55 -23.65 24.5 -23.2 24.4 -22.5 24.35 -22.45 25.5 Q-22.65 27.4 -23.55 30.25 L-24.55 32.45 -25.6 34.5 -27.1 36.55 -27.65 37.2 Q-30.05 38.65 -32.2 38.75 L-32.25 38.75 -32.45 38.75 Q-36.25 38.7 -39.1 36.5 L-39.45 36.2 -41.05 37.05 Q-44.0 38.55 -45.7 38.55 L-46.0 38.55 Q-47.55 38.5 -49.0 37.85 -51.25 36.9 -53.25 34.55 L-53.25 34.5 -53.45 34.6 -53.9 34.7 -54.95 34.75 Q-62.35 34.75 -65.45 24.25 L-66.9 18.95 -68.15 13.3 -69.85 2.8 Q-71.15 -4.65 -71.15 -8.3 -71.15 -12.0 -69.8 -17.8 -68.45 -23.65 -60.95 -43.35 -54.1 -61.5 -53.45 -58.3 L-53.4 -58.1 M-14.1 -41.35 L-13.95 -41.75 -13.4 -41.4 -13.25 -41.25 Q-12.95 -40.85 -12.95 -40.0 L-18.2 -28.9 Q-23.45 -16.8 -23.45 -10.9 L-22.95 -7.0 -22.5 -5.2 -22.4 -4.95 -20.1 -5.25 -17.75 -4.95 -16.95 -3.55 Q-15.6 -0.9 -15.05 2.1 L-14.9 2.75 Q-14.55 4.45 -14.55 5.05 -14.55 5.95 -15.15 6.2 L-17.05 6.65 -17.5 6.7 Q-19.25 6.95 -21.0 7.9 -22.8 8.8 -23.25 10.55 -23.8 12.25 -24.0 14.85 L-24.1 16.25 -24.15 16.55 -24.45 18.4 -24.6 20.05 Q-24.9 22.8 -25.55 24.45 L-25.65 24.65 -25.65 24.7 -26.1 25.5 -26.9 26.35 -27.0 26.1 -27.05 25.8 -27.2 24.9 -26.55 22.65 -25.95 20.25 -26.0 20.3 -25.85 19.45 -25.9 19.05 -25.9 16.55 -25.9 15.8 -25.9 14.9 -25.05 9.25 -24.95 8.9 Q-24.75 8.3 -24.05 7.65 L-22.95 6.8 -22.4 6.45 Q-21.1 5.7 -19.75 5.25 L-17.85 4.75 -17.2 4.65 -17.2 4.6 -16.6 4.35 -16.35 3.7 -16.75 2.15 -16.9 1.85 -17.75 -0.8 -17.8 -0.95 -18.6 -2.8 Q-19.1 -3.6 -19.8 -3.6 L-21.55 -3.55 -23.0 -3.6 -23.2 -4.15 Q-23.9 -5.55 -24.35 -8.0 L-24.85 -11.85 Q-24.85 -13.15 -24.1 -16.4 L-23.5 -18.9 Q-22.35 -22.55 -20.2 -27.55 L-14.1 -41.35" fill="#000000" fill-rule="evenodd" stroke="none"/>
      <path d="M-59.05 31.35 L-60.2 29.3 -61.5 25.85 Q-62.4 22.6 -63.7 15.0 L-65.8 1.65 Q-66.65 -4.15 -66.4 -8.6 L-65.85 -15.55 Q-65.7 -18.1 -65.0 -20.55 -63.55 -26.6 -61.45 -33.1 -59.4 -39.7 -55.8 -48.9 L-53.7 -54.05 -52.15 -58.05 -52.1 -58.15 Q-28.0 -58.45 -16.1 -43.95 L-22.0 -28.7 -25.05 -19.65 -25.6 -17.05 Q-26.35 -13.65 -26.35 -12.3 L-25.95 -8.25 Q-25.6 -5.7 -24.95 -4.2 L-24.75 -3.65 -23.0 -3.6 -21.55 -3.55 -20.85 -2.8 -20.15 -0.9 -20.15 -0.7 -19.35 2.05 -19.3 2.35 -18.9 4.0 -18.95 4.35 -19.15 4.65 -19.65 4.95 -19.65 5.0 -20.1 5.1 -19.75 5.25 Q-21.1 5.7 -22.4 6.45 L-22.95 6.8 -24.05 7.65 Q-24.75 8.3 -24.95 8.9 L-25.5 9.35 Q-27.1 10.85 -27.3 12.4 L-27.8 17.25 -28.0 21.2 -28.0 24.0 Q-27.9 25.8 -27.35 25.8 L-27.05 25.8 -27.0 26.1 -26.9 29.25 Q-26.9 31.75 -27.25 33.8 L-28.1 34.75 -29.55 35.8 -32.4 36.4 -32.9 36.4 -34.4 36.15 -34.45 36.15 Q-36.25 35.7 -38.45 34.3 L-40.95 31.95 -41.25 32.2 -41.4 33.25 -41.35 33.55 -41.4 33.55 -41.6 33.75 -41.65 33.8 -41.65 33.85 -41.8 34.55 -42.6 35.05 Q-44.25 36.3 -47.05 36.4 -49.9 36.45 -52.65 32.4 -55.45 28.35 -55.7 28.7 L-56.05 29.5 Q-56.05 30.5 -55.15 31.95 L-54.65 32.7 -54.95 32.65 Q-57.45 32.3 -59.05 31.35" fill="#999999" fill-rule="evenodd" stroke="none"/>
    </g>
  </defs>
</svg>
