<?xml version="1.0" encoding="UTF-8" standalone="no"?>
<svg xmlns:xlink="http://www.w3.org/1999/xlink" height="531.5px" width="460.6px" xmlns="http://www.w3.org/2000/svg">
  <g transform="matrix(1.0, 0.0, 0.0, 1.0, 193.65, 334.05)">
    <use height="74.8" transform="matrix(1.0, 0.0, 0.0, 1.0, -67.35, -232.6)" width="127.4" xlink:href="#shape0"/>
    <use height="49.8" transform="matrix(0.6134, 0.1645, -0.1645, 0.6134, -61.2604, -191.887)" width="33.6" xlink:href="#sprite0"/>
    <use height="36.3" transform="matrix(1.0, 0.0, 0.0, 1.0, -4.0, -229.0)" width="36.45" xlink:href="#shape3"/>
    <use height="49.8" transform="matrix(0.7604, 0.0338, 0.0, 0.7604, 0.7759, -224.4003)" width="33.6" xlink:href="#sprite2"/>
    <use height="49.8" transform="matrix(0.4283, -0.1148, 0.1365, 0.5096, 44.7564, -184.6111)" width="33.6" xlink:href="#sprite0"/>
    <use height="49.8" transform="matrix(0.7354, 0.1096, -0.1096, 0.7354, -32.5247, -202.9039)" width="33.6" xlink:href="#sprite3"/>
    <use height="49.8" transform="matrix(0.5712, -0.1217, 0.1785, 0.68, 28.8112, -191.1382)" width="33.6" xlink:href="#sprite3"/>
  </g>
  <defs>
    <g id="shape0" transform="matrix(1.0, 0.0, 0.0, 1.0, 67.35, 232.6)">
      <path d="M-17.05 -216.15 L-18.6 -212.35 -6.25 -197.05 1.45 -207.7 25.15 -207.0 31.35 -195.95 32.45 -197.2 34.0 -194.7 43.55 -204.5 41.6 -209.15 Q45.35 -209.0 48.45 -207.85 L45.65 -205.5 49.55 -187.1 51.55 -189.2 52.25 -185.85 58.95 -194.0 56.85 -201.4 58.7 -201.0 Q59.1 -200.55 59.65 -200.3 59.1 -186.7 57.7 -173.2 49.45 -175.2 41.7 -175.9 L16.35 -179.1 Q3.55 -180.8 -5.85 -180.8 -28.0 -180.8 -50.15 -173.5 -55.75 -171.55 -61.8 -168.85 -64.6 -187.65 -64.15 -199.45 -62.5 -200.3 -60.65 -201.0 L-61.8 -197.6 -41.45 -186.0 -41.15 -186.1 -38.8 -184.7 -24.2 -209.7 -27.3 -213.6 Q-22.1 -216.0 -17.05 -216.15 M56.05 -189.5 L48.45 -180.25 55.45 -176.85 Q56.05 -181.05 56.05 -189.5 M29.5 -189.75 L38.35 -188.1 45.95 -182.05 42.4 -202.55 29.5 -189.75 M-63.45 -194.25 Q-63.45 -183.45 -61.95 -177.55 L-43.85 -182.35 -63.45 -194.25 M-20.85 -191.45 L-6.25 -190.45 -22.5 -209.15 -36.7 -185.15 -20.85 -191.45" fill="url(#gradient0)" fill-rule="evenodd" stroke="none"/>
      <path d="M32.45 -197.2 L40.9 -205.9 38.9 -210.4 Q44.25 -210.1 48.45 -208.0 L48.45 -207.85 Q45.35 -209.0 41.6 -209.15 L43.55 -204.5 34.0 -194.7 32.45 -197.2 M51.55 -189.2 L56.45 -195.25 54.2 -202.65 Q56.75 -202.1 58.7 -201.0 L56.85 -201.4 58.95 -194.0 52.25 -185.85 51.55 -189.2 M-41.15 -186.1 L-26.85 -210.95 -29.95 -214.9 Q-23.2 -217.95 -16.65 -217.1 L-17.05 -216.15 Q-22.1 -216.0 -27.3 -213.6 L-24.2 -209.7 -38.8 -184.7 -41.15 -186.1" fill="#ffff4f" fill-rule="evenodd" stroke="none"/>
      <path d="M56.05 -189.5 Q56.05 -181.05 55.45 -176.85 L48.45 -180.25 56.05 -189.5 M29.5 -189.75 L42.4 -202.55 45.95 -182.05 38.35 -188.1 29.5 -189.75 M-20.85 -191.45 L-36.7 -185.15 -22.5 -209.15 -6.25 -190.45 -20.85 -191.45 M-63.45 -194.25 L-43.85 -182.35 -61.95 -177.55 Q-63.45 -183.45 -63.45 -194.25" fill="#ff8c00" fill-rule="evenodd" stroke="none"/>
      <path d="M57.7 -173.2 L56.3 -161.45 55.05 -160.9 52.1 -160.05 50.15 -163.4 Q35.15 -170.0 15.9 -171.4 L15.35 -171.4 Q-8.5 -173.2 -37.65 -167.9 -50.45 -165.35 -56.05 -158.2 L-60.1 -158.2 -61.8 -168.85 Q-55.75 -171.55 -50.15 -173.5 -28.0 -180.8 -5.85 -180.8 3.55 -180.8 16.35 -179.1 L41.7 -175.9 Q49.45 -175.2 57.7 -173.2" fill="url(#gradient1)" fill-rule="evenodd" stroke="none"/>
      <path d="M-60.1 -158.2 L-62.35 -158.2 Q-63.45 -163.1 -64.15 -167.9 -67.4 -188.25 -66.85 -200.55 -63.45 -202.55 -59.95 -203.4 L-60.65 -201.0 Q-62.5 -200.3 -64.15 -199.45 -64.6 -187.65 -61.8 -168.85 L-60.1 -158.2" fill="url(#gradient2)" fill-rule="evenodd" stroke="none"/>
      <path d="M-17.05 -216.15 L-18.6 -212.35 -6.25 -197.05 1.45 -207.7 25.15 -207.0 31.35 -195.95 32.45 -197.2 40.9 -205.9 38.9 -210.4 Q44.25 -210.1 48.45 -208.0 L48.45 -207.85 45.65 -205.5 49.55 -187.1 51.55 -189.2 56.45 -195.25 54.2 -202.65 Q56.75 -202.1 58.7 -201.0 59.1 -200.55 59.65 -200.3 59.1 -186.7 57.7 -173.2 L56.3 -161.45 55.05 -160.9 52.1 -160.05 50.15 -163.4 Q35.15 -170.0 15.9 -171.4 L15.35 -171.4 Q-8.5 -173.2 -37.65 -167.9 -50.45 -165.35 -56.05 -158.2 L-60.1 -158.2 -62.35 -158.2 Q-63.45 -163.1 -64.15 -167.9 -67.4 -188.25 -66.85 -200.55 -63.45 -202.55 -59.95 -203.4 L-60.65 -201.0 -61.8 -197.6 -41.45 -186.0 -41.15 -186.1 -26.85 -210.95 -29.95 -214.9 Q-23.2 -217.95 -16.65 -217.1 L-17.05 -216.15 Z" fill="none" stroke="#000000" stroke-linecap="round" stroke-linejoin="round" stroke-opacity="0.5019608" stroke-width="0.8"/>
      <path d="M27.7 -229.85 L32.3 -229.55 Q36.1 -229.3 36.25 -225.35 L36.25 -220.6 Q36.25 -217.2 33.85 -216.8 33.3 -216.65 32.45 -216.8 L24.15 -217.1 23.9 -217.5 Q23.05 -218.6 23.05 -220.45 23.05 -222.55 24.75 -225.9 26.3 -228.85 27.7 -229.85 M-7.4 -232.25 L-7.25 -232.25 -6.4 -232.25 23.6 -230.1 Q23.6 -226.75 19.15 -222.4 15.35 -218.75 11.15 -217.9 L-6.55 -218.9 -7.8 -219.05 Q-10.6 -219.9 -10.6 -223.4 L-10.6 -228.3 Q-10.6 -231.55 -8.2 -231.95 L-7.4 -232.25 M8.05 -228.3 Q8.05 -229.15 2.15 -229.85 L-0.8 -230.1 -2.75 -230.0 Q-4.6 -229.85 -5.7 -229.3 -8.5 -228.3 -8.5 -225.05 -8.5 -222.55 -6.7 -222.55 L-2.75 -223.55 1.05 -224.95 5.4 -226.35 Q8.05 -227.3 8.05 -228.3" fill="#ffc800" fill-rule="evenodd" stroke="none"/>
      <path d="M27.7 -229.85 Q26.3 -228.85 24.75 -225.9 23.05 -222.55 23.05 -220.45 23.05 -218.6 23.9 -217.5 L24.15 -217.1 11.15 -217.9 Q15.35 -218.75 19.15 -222.4 23.6 -226.75 23.6 -230.1 L27.7 -229.85 M8.05 -228.3 Q8.05 -227.3 5.4 -226.35 L1.05 -224.95 -2.75 -223.55 -6.7 -222.55 Q-8.5 -222.55 -8.5 -225.05 -8.5 -228.3 -5.7 -229.3 -4.6 -229.85 -2.75 -230.0 L-0.8 -230.1 2.15 -229.85 Q8.05 -229.15 8.05 -228.3 M4.8 -192.4 L9.15 -192.1 7.65 -191.0 Q6.1 -189.6 6.1 -188.6 L6.2 -187.35 2.7 -187.5 2.3 -187.9 Q1.45 -188.75 1.6 -189.85 1.45 -191.0 2.3 -191.7 L3.3 -192.25 4.25 -192.4 4.8 -192.4" fill="#ffffff" fill-rule="evenodd" stroke="none"/>
      <path d="M22.35 -201.5 L22.65 -199.85 22.65 -192.1 22.75 -191.7 9.15 -192.1 4.8 -192.4 4.8 -192.8 4.8 -200.65 Q4.8 -201.8 4.95 -202.35 6.65 -201.5 8.45 -200.95 11.0 -200.1 13.95 -200.1 18.55 -199.85 22.35 -201.5" fill="#992b00" fill-rule="evenodd" stroke="none"/>
      <path d="M24.15 -217.1 L32.45 -216.8 Q33.3 -216.65 33.85 -216.8 33.3 -209.65 28.1 -204.9 25.45 -202.8 22.35 -201.5 18.55 -199.85 13.95 -200.1 11.0 -200.1 8.45 -200.95 6.65 -201.5 4.95 -202.35 2.0 -203.9 -0.65 -206.3 -5.55 -211.05 -6.4 -217.35 -6.4 -218.05 -6.55 -218.6 L-6.55 -218.9 11.15 -217.9 24.15 -217.1" fill="url(#gradient3)" fill-rule="evenodd" stroke="none"/>
      <path d="M-1.05 -175.7 L-4.6 -175.7 Q-7.95 -176.0 -7.95 -179.65 L-7.95 -184.0 Q-7.95 -187.75 -4.7 -187.65 L-2.2 -187.5 Q-4.45 -187.05 -4.45 -184.0 L-4.45 -179.65 Q-4.45 -176.0 -1.05 -175.7 M-1.05 -187.65 L-1.35 -187.9 Q-2.2 -188.75 -2.05 -189.85 -2.2 -191.0 -1.35 -191.7 -0.65 -192.4 0.6 -192.4 L1.15 -192.4 1.15 -192.8 1.15 -200.65 Q1.15 -201.8 1.3 -202.35 -1.65 -203.9 -4.3 -206.3 -9.35 -211.05 -10.05 -217.35 L-10.2 -218.9 -11.45 -219.05 Q-14.25 -219.9 -14.25 -223.4 L-14.25 -228.3 Q-14.25 -232.1 -10.75 -232.25 L-7.4 -232.25 -8.2 -231.95 Q-10.6 -231.55 -10.6 -228.3 L-10.6 -223.4 Q-10.6 -219.9 -7.8 -219.05 L-6.55 -218.9 -6.55 -218.6 Q-6.4 -218.05 -6.4 -217.35 -5.55 -211.05 -0.65 -206.3 2.0 -203.9 4.95 -202.35 4.8 -201.8 4.8 -200.65 L4.8 -192.8 4.8 -192.4 4.25 -192.4 3.3 -192.25 2.3 -191.7 Q1.45 -191.0 1.6 -189.85 1.45 -188.75 2.3 -187.9 L2.7 -187.5 -1.05 -187.65" fill="#b23700" fill-rule="evenodd" stroke="none"/>
      <path d="M22.75 -191.7 L23.9 -191.7 Q25.0 -191.7 25.7 -191.0 26.55 -190.3 26.55 -188.9 26.55 -188.05 25.7 -187.2 L25.3 -186.8 6.2 -187.35 6.1 -188.6 Q6.1 -189.6 7.65 -191.0 L9.15 -192.1 22.75 -191.7" fill="url(#gradient4)" fill-rule="evenodd" stroke="none"/>
      <path d="M25.3 -186.8 L29.1 -186.8 Q32.05 -186.65 32.15 -182.85 L32.15 -178.8 Q32.15 -175.15 29.2 -175.15 L2.0 -175.7 0.45 -175.7 -1.05 -175.7 Q-4.45 -176.0 -4.45 -179.65 L-4.45 -184.0 Q-4.45 -187.05 -2.2 -187.5 L-1.05 -187.65 2.7 -187.5 6.2 -187.35 25.3 -186.8" fill="url(#gradient5)" fill-rule="evenodd" stroke="none"/>
      <path d="M33.85 -216.8 Q36.25 -217.2 36.25 -220.6 L36.25 -225.35 Q36.1 -229.3 32.3 -229.55 L27.7 -229.85 23.6 -230.1 -6.4 -232.25 -7.25 -232.25 -7.4 -232.25 -10.75 -232.25 Q-14.25 -232.1 -14.25 -228.3 L-14.25 -223.4 Q-14.25 -219.9 -11.45 -219.05 L-10.2 -218.9 -10.05 -217.35 Q-9.35 -211.05 -4.3 -206.3 -1.65 -203.9 1.3 -202.35 1.15 -201.8 1.15 -200.65 L1.15 -192.8 1.15 -192.4 0.6 -192.4 Q-0.65 -192.4 -1.35 -191.7 -2.2 -191.0 -2.05 -189.85 -2.2 -188.75 -1.35 -187.9 L-1.05 -187.65 -2.2 -187.5 Q-4.45 -187.05 -4.45 -184.0 L-4.45 -179.65 Q-4.45 -176.0 -1.05 -175.7 L-4.6 -175.7 Q-7.95 -176.0 -7.95 -179.65 L-7.95 -184.0 Q-7.95 -187.75 -4.7 -187.65 L-2.2 -187.5 M24.15 -217.1 L32.45 -216.8 Q33.3 -216.65 33.85 -216.8 33.3 -209.65 28.1 -204.9 25.45 -202.8 22.35 -201.5 L22.65 -199.85 22.65 -192.1 22.75 -191.7 23.9 -191.7 Q25.0 -191.7 25.7 -191.0 26.55 -190.3 26.55 -188.9 26.55 -188.05 25.7 -187.2 L25.3 -186.8 29.1 -186.8 Q32.05 -186.65 32.15 -182.85 L32.15 -178.8 Q32.15 -175.15 29.2 -175.15 L2.0 -175.7 0.45 -175.7 -1.05 -175.7 M11.15 -217.9 L24.15 -217.1 M4.95 -202.35 Q4.8 -201.8 4.8 -200.65 L4.8 -192.8 4.8 -192.4 9.15 -192.1 22.75 -191.7 M22.35 -201.5 Q18.55 -199.85 13.95 -200.1 11.0 -200.1 8.45 -200.95 6.65 -201.5 4.95 -202.35 2.0 -203.9 -0.65 -206.3 -5.55 -211.05 -6.4 -217.35 -6.4 -218.05 -6.55 -218.6 L-6.55 -218.9 -7.8 -219.05 Q-10.6 -219.9 -10.6 -223.4 L-10.6 -228.3 Q-10.6 -231.55 -8.2 -231.95 L-7.4 -232.25 M2.7 -187.5 L2.3 -187.9 Q1.45 -188.75 1.6 -189.85 1.45 -191.0 2.3 -191.7 L3.3 -192.25 4.25 -192.4 4.8 -192.4 M6.2 -187.35 L25.3 -186.8 M6.2 -187.35 L2.7 -187.5 -1.05 -187.65 M-6.55 -218.9 L11.15 -217.9" fill="none" stroke="#000000" stroke-linecap="round" stroke-linejoin="round" stroke-opacity="0.5019608" stroke-width="0.7000000000000001"/>
    </g>
    <linearGradient gradientTransform="matrix(0.0, 0.0212, -0.0362, 0.0, 9.6, -187.1)" gradientUnits="userSpaceOnUse" id="gradient0" spreadMethod="pad" x1="-819.2" x2="819.2">
      <stop offset="0.0" stop-color="#ffb700"/>
      <stop offset="1.0" stop-color="#f29500"/>
    </linearGradient>
    <linearGradient gradientTransform="matrix(0.0, 0.0089, -0.0362, 0.0, 10.6, -174.5)" gradientUnits="userSpaceOnUse" id="gradient1" spreadMethod="pad" x1="-819.2" x2="819.2">
      <stop offset="0.0" stop-color="#f59d00"/>
      <stop offset="1.0" stop-color="#db4f00"/>
    </linearGradient>
    <linearGradient gradientTransform="matrix(0.0042, 0.0, 0.0, 0.0277, -63.45, -180.8)" gradientUnits="userSpaceOnUse" id="gradient2" spreadMethod="pad" x1="-819.2" x2="819.2">
      <stop offset="0.0" stop-color="#ffff4f"/>
      <stop offset="1.0" stop-color="#f29500"/>
    </linearGradient>
    <linearGradient gradientTransform="matrix(0.0, -0.013, 0.0115, 0.0, 16.05, -208.55)" gradientUnits="userSpaceOnUse" id="gradient3" spreadMethod="pad" x1="-819.2" x2="819.2">
      <stop offset="0.0" stop-color="#ffb700"/>
      <stop offset="1.0" stop-color="#e35100"/>
    </linearGradient>
    <linearGradient gradientTransform="matrix(0.0125, 0.0, 0.0, 0.0033, 16.3, -189.6)" gradientUnits="userSpaceOnUse" id="gradient4" spreadMethod="pad" x1="-819.2" x2="819.2">
      <stop offset="0.0" stop-color="#ffb700"/>
      <stop offset="1.0" stop-color="#f29500"/>
    </linearGradient>
    <linearGradient gradientTransform="matrix(0.0223, 0.0, 0.0, 0.0076, 24.45, -179.8)" gradientUnits="userSpaceOnUse" id="gradient5" spreadMethod="pad" x1="-819.2" x2="819.2">
      <stop offset="0.0" stop-color="#ff9600"/>
      <stop offset="1.0" stop-color="#e33600"/>
    </linearGradient>
    <g id="sprite0" transform="matrix(1.0, 0.0, 0.0, 1.0, 16.8, 24.9)">
      <use height="49.8" transform="matrix(1.0, 0.0, 0.0, 1.0, -16.8, -24.9)" width="33.6" xlink:href="#shape1"/>
      <use height="48.8" transform="matrix(1.0, 0.0, 0.0, 1.0, -16.3, -24.4)" width="32.6" xlink:href="#sprite1"/>
    </g>
    <g id="shape1" transform="matrix(1.0, 0.0, 0.0, 1.0, 16.8, 24.9)">
      <path d="M7.05 -22.85 L5.35 -20.85 4.2 -19.8 Q2.25 -20.5 0.0 -20.5 -5.15 -20.5 -8.8 -16.9 -11.85 -13.85 -12.35 -9.75 L-13.5 -9.45 -16.25 -8.95 Q-16.0 -15.15 -11.55 -19.65 -6.75 -24.4 0.0 -24.4 3.85 -24.4 7.05 -22.85 M-7.75 -21.65 L-8.2 -21.45 Q-9.9 -20.65 -11.05 -19.45 -12.45 -18.0 -12.45 -16.8 L-12.4 -16.4 -12.05 -16.4 Q-11.55 -16.4 -10.6 -17.1 L-8.35 -18.85 -6.65 -20.4 Q-6.15 -21.0 -6.15 -21.55 L-6.25 -22.0 -6.8 -22.1 -7.25 -22.0 -7.75 -21.65" fill="#ff8326" fill-rule="evenodd" stroke="none"/>
      <path d="M4.2 -19.8 Q6.2 -19.1 7.95 -17.65 5.75 -13.4 1.45 -9.15 -4.75 -2.9 -10.85 -1.95 -12.45 -4.7 -12.45 -8.1 L-12.35 -9.75 Q-11.85 -13.85 -8.8 -16.9 -5.15 -20.5 0.0 -20.5 2.25 -20.5 4.2 -19.8 M10.65 -14.6 Q12.45 -11.75 12.45 -8.1 12.45 -5.2 11.25 -2.75 10.35 -0.9 8.75 0.7 5.9 3.6 2.05 4.2 L0.0 4.35 -2.0 4.2 Q-3.65 3.95 -5.1 3.3 -4.2 0.25 -1.05 -3.75 3.4 -9.35 10.65 -14.6" fill="#ff6e00" fill-rule="evenodd" stroke="none"/>
      <path d="M7.95 -17.65 Q6.2 -19.1 4.2 -19.8 L5.35 -20.85 7.05 -22.85 9.55 -21.35 11.5 -19.65 Q16.3 -14.85 16.3 -8.1 16.3 -4.55 15.0 -1.55 L14.3 -1.8 11.25 -2.75 Q12.45 -5.2 12.45 -8.1 12.45 -11.75 10.65 -14.6 L8.75 -16.9 7.95 -17.65 M-12.35 -9.75 L-12.45 -8.1 Q-12.45 -4.7 -10.85 -1.95 L-9.55 -0.15 -11.6 1.45 -12.55 2.3 Q-16.3 -2.1 -16.3 -8.1 L-16.25 -8.95 -13.5 -9.45 -12.35 -9.75" fill="#ff6800" fill-rule="evenodd" stroke="none"/>
      <path d="M7.95 -17.65 L8.75 -16.9 10.65 -14.6 Q3.4 -9.35 -1.05 -3.75 -4.2 0.25 -5.1 3.3 -7.1 2.4 -8.8 0.7 L-9.55 -0.15 -10.85 -1.95 Q-4.75 -2.9 1.45 -9.15 5.75 -13.4 7.95 -17.65 M-6.8 -22.1 L-6.25 -22.0 -6.15 -21.55 Q-6.15 -21.0 -6.65 -20.4 L-8.35 -18.85 -10.6 -17.1 Q-11.55 -16.4 -12.05 -16.4 L-12.4 -16.4 -12.45 -16.8 Q-12.45 -18.0 -11.05 -19.45 -9.9 -20.65 -8.2 -21.45 L-7.75 -21.65 -6.8 -22.1" fill="#ffffff" fill-rule="evenodd" stroke="none"/>
      <path d="M11.25 -2.75 L14.3 -1.8 15.0 -1.55 Q13.75 1.15 11.5 3.4 L8.95 5.55 Q5.05 8.2 0.0 8.2 -5.0 8.2 -8.95 5.55 L-11.55 3.4 -12.55 2.3 -11.6 1.45 -9.55 -0.15 -8.8 0.7 Q-7.1 2.4 -5.1 3.3 -3.65 3.95 -2.0 4.2 L0.0 4.35 2.05 4.2 Q5.9 3.6 8.75 0.7 10.35 -0.9 11.25 -2.75" fill="#c93e00" fill-rule="evenodd" stroke="none"/>
      <path d="M-8.95 8.4 Q-4.85 10.2 0.0 10.2 4.85 10.2 8.95 8.4 L8.95 24.4 0.35 16.35 -0.85 17.4 Q-4.6 18.45 -6.4 19.15 -7.95 12.55 -8.95 9.3 L-8.95 8.4" fill="#ff3d00" fill-rule="evenodd" stroke="none"/>
      <path d="M-8.95 5.55 Q-5.0 8.2 0.0 8.2 5.05 8.2 8.95 5.55 L8.95 8.4 Q4.85 10.2 0.0 10.2 -4.85 10.2 -8.95 8.4 L-8.95 5.55" fill="#9c3000" fill-rule="evenodd" stroke="none"/>
      <path d="M-0.85 17.4 L-8.95 24.4 -8.95 9.3 Q-7.95 12.55 -6.4 19.15 -4.6 18.45 -0.85 17.4" fill="#ff1f00" fill-rule="evenodd" stroke="none"/>
      <path d="M4.2 -19.8 Q6.2 -19.1 7.95 -17.65 L8.75 -16.9 10.65 -14.6 Q12.45 -11.75 12.45 -8.1 12.45 -5.2 11.25 -2.75 10.35 -0.9 8.75 0.7 5.9 3.6 2.05 4.2 L0.0 4.35 -2.0 4.2 Q-3.65 3.95 -5.1 3.3 -7.1 2.4 -8.8 0.7 L-9.55 -0.15 -10.85 -1.95 Q-12.45 -4.7 -12.45 -8.1 L-12.35 -9.75 Q-11.85 -13.85 -8.8 -16.9 -5.15 -20.5 0.0 -20.5 2.25 -20.5 4.2 -19.8 M15.0 -1.55 Q16.3 -4.55 16.3 -8.1 16.3 -14.85 11.5 -19.65 L9.55 -21.35 7.05 -22.85 Q3.85 -24.4 0.0 -24.4 -6.75 -24.4 -11.55 -19.65 -16.0 -15.15 -16.25 -8.95 L-16.3 -8.1 Q-16.3 -2.1 -12.55 2.3 L-11.55 3.4 -8.95 5.55 -8.95 8.4 -8.95 9.3 -8.95 24.4 -0.85 17.4 0.35 16.35 8.95 24.4 8.95 8.4 8.95 5.55 11.5 3.4 Q13.75 1.15 15.0 -1.55 M8.95 5.55 Q5.05 8.2 0.0 8.2 -5.0 8.2 -8.95 5.55" fill="none" stroke="#000000" stroke-linecap="round" stroke-linejoin="round" stroke-opacity="0.6627451" stroke-width="1.0"/>
    </g>
    <g id="sprite1" transform="matrix(1.0, 0.0, 0.0, 1.0, 16.3, 24.4)">
      <use height="48.8" transform="matrix(1.0, 0.0, 0.0, 1.0, -16.3, -24.4)" width="32.6" xlink:href="#shape2"/>
    </g>
    <g id="shape2" transform="matrix(1.0, 0.0, 0.0, 1.0, 16.3, 24.4)">
      <path d="M7.95 -17.65 Q6.2 -19.1 4.2 -19.8 2.25 -20.5 0.0 -20.5 -5.15 -20.5 -8.8 -16.9 -11.85 -13.85 -12.35 -9.75 L-12.45 -8.1 Q-12.45 -4.7 -10.85 -1.95 L-9.55 -0.15 -8.8 0.7 Q-7.1 2.4 -5.1 3.3 -3.65 3.95 -2.0 4.2 L0.0 4.35 2.05 4.2 Q5.9 3.6 8.75 0.7 10.35 -0.9 11.25 -2.75 12.45 -5.2 12.45 -8.1 12.45 -11.75 10.65 -14.6 L8.75 -16.9 7.95 -17.65 M-8.95 5.55 L-11.55 3.4 -12.55 2.3 Q-16.3 -2.1 -16.3 -8.1 L-16.25 -8.95 Q-16.0 -15.15 -11.55 -19.65 -6.75 -24.4 0.0 -24.4 3.85 -24.4 7.05 -22.85 L9.55 -21.35 11.5 -19.65 Q16.3 -14.85 16.3 -8.1 16.3 -4.55 15.0 -1.55 13.75 1.15 11.5 3.4 L8.95 5.55 Q5.05 8.2 0.0 8.2 -5.0 8.2 -8.95 5.55 M-7.25 -22.0 L-7.75 -21.65 -6.8 -22.1 -7.25 -22.0" fill="url(#gradient6)" fill-rule="evenodd" stroke="none"/>
      <path d="M7.95 -17.65 L8.75 -16.9 10.65 -14.6 Q12.45 -11.75 12.45 -8.1 12.45 -5.2 11.25 -2.75 10.35 -0.9 8.75 0.7 5.9 3.6 2.05 4.2 L0.0 4.35 -2.0 4.2 Q-3.65 3.95 -5.1 3.3 -7.1 2.4 -8.8 0.7 L-9.55 -0.15 -10.85 -1.95 Q-12.45 -4.7 -12.45 -8.1 L-12.35 -9.75 Q-11.85 -13.85 -8.8 -16.9 -5.15 -20.5 0.0 -20.5 2.25 -20.5 4.2 -19.8 6.2 -19.1 7.95 -17.65" fill="url(#gradient7)" fill-rule="evenodd" stroke="none"/>
      <path d="M8.95 5.55 L8.95 24.4 0.35 16.35 -8.95 24.4 -8.95 5.55 Q-5.0 8.2 0.0 8.2 5.05 8.2 8.95 5.55" fill="url(#gradient8)" fill-rule="evenodd" stroke="none"/>
    </g>
    <linearGradient gradientTransform="matrix(-0.0082, -0.0181, 0.0181, -0.0082, 0.0, -8.1)" gradientUnits="userSpaceOnUse" id="gradient6" spreadMethod="pad" x1="-819.2" x2="819.2">
      <stop offset="0.0" stop-color="#000000"/>
      <stop offset="1.0" stop-color="#ffffff"/>
    </linearGradient>
    <linearGradient gradientTransform="matrix(0.0054, -0.0141, 0.0141, 0.0054, 0.0, -8.05)" gradientUnits="userSpaceOnUse" id="gradient7" spreadMethod="pad" x1="-819.2" x2="819.2">
      <stop offset="0.0" stop-color="#000000"/>
      <stop offset="1.0" stop-color="#ffffff"/>
    </linearGradient>
    <linearGradient gradientTransform="matrix(0.0, 0.0109, -0.0115, 0.0, 0.0, 14.95)" gradientUnits="userSpaceOnUse" id="gradient8" spreadMethod="pad" x1="-819.2" x2="819.2">
      <stop offset="0.0" stop-color="#000000"/>
      <stop offset="1.0" stop-color="#ffffff"/>
    </linearGradient>
    <g id="shape3" transform="matrix(1.0, 0.0, 0.0, 1.0, 4.0, 229.0)">
      <path d="M32.45 -210.75 Q32.45 -203.35 27.0 -198.0 21.8 -192.7 14.2 -192.7 6.65 -192.7 1.3 -198.0 -4.0 -203.35 -4.0 -210.75 -4.0 -218.05 1.3 -223.65 6.65 -229.0 14.2 -229.0 21.8 -229.0 27.0 -223.65 32.45 -218.05 32.45 -210.75" fill="url(#gradient9)" fill-rule="evenodd" stroke="none"/>
    </g>
    <radialGradient cx="0" cy="0" gradientTransform="matrix(0.0225, 0.0, 0.0, 0.0225, 14.2, -210.75)" gradientUnits="userSpaceOnUse" id="gradient9" r="819.2" spreadMethod="pad">
      <stop offset="0.0" stop-color="#ffffff"/>
      <stop offset="1.0" stop-color="#ffffff" stop-opacity="0.0"/>
    </radialGradient>
    <g id="sprite2" transform="matrix(1.0, 0.0, 0.0, 1.0, 16.8, 24.9)">
      <use height="49.8" transform="matrix(1.0, 0.0, 0.0, 1.0, -16.8, -24.9)" width="33.6" xlink:href="#shape4"/>
      <use height="48.8" transform="matrix(1.0, 0.0, 0.0, 1.0, -16.3, -24.4)" width="32.6" xlink:href="#sprite1"/>
    </g>
    <g id="shape4" transform="matrix(1.0, 0.0, 0.0, 1.0, 16.8, 24.9)">
      <path d="M4.2 -19.8 L5.35 -20.85 7.05 -22.85 9.55 -21.35 11.5 -19.65 Q16.3 -14.85 16.3 -8.1 16.3 -4.55 15.0 -1.55 L14.3 -1.8 11.25 -2.75 Q12.45 -5.2 12.45 -8.1 12.45 -11.75 10.65 -14.6 L8.75 -16.9 7.95 -17.65 Q6.2 -19.1 4.2 -19.8 M-16.25 -8.95 L-13.5 -9.45 -12.35 -9.75 -12.45 -8.1 Q-12.45 -4.7 -10.85 -1.95 L-9.55 -0.15 -11.6 1.45 -12.55 2.3 Q-16.3 -2.1 -16.3 -8.1 L-16.25 -8.95" fill="#ff9e00" fill-rule="evenodd" stroke="none"/>
      <path d="M-12.35 -9.75 Q-11.85 -13.85 -8.8 -16.9 -5.15 -20.5 0.0 -20.5 2.25 -20.5 4.2 -19.8 6.2 -19.1 7.95 -17.65 5.75 -13.4 1.45 -9.15 -4.75 -2.9 -10.85 -1.95 -12.45 -4.7 -12.45 -8.1 L-12.35 -9.75 M10.65 -14.6 Q12.45 -11.75 12.45 -8.1 12.45 -5.2 11.25 -2.75 10.35 -0.9 8.75 0.7 5.9 3.6 2.05 4.2 L0.0 4.35 -2.0 4.2 Q-3.65 3.95 -5.1 3.3 -4.2 0.25 -1.05 -3.75 3.4 -9.35 10.65 -14.6 M-4.1 -19.1 L-5.1 -18.55 -6.25 -17.95 Q-7.85 -16.95 -9.3 -14.85 -11.05 -12.25 -11.35 -10.15 L-11.45 -9.25 -11.45 -7.8 Q-11.35 -7.45 -10.6 -7.45 -9.15 -7.45 -4.9 -11.95 -0.7 -16.4 -0.7 -17.9 -0.7 -18.65 -1.3 -19.1 -1.8 -19.45 -2.5 -19.45 L-4.0 -19.15 -4.1 -19.1" fill="#ffcc00" fill-rule="evenodd" stroke="none"/>
      <path d="M-10.85 -1.95 Q-4.75 -2.9 1.45 -9.15 5.75 -13.4 7.95 -17.65 L8.75 -16.9 10.65 -14.6 Q3.4 -9.35 -1.05 -3.75 -4.2 0.25 -5.1 3.3 -7.1 2.4 -8.8 0.7 L-9.55 -0.15 -10.85 -1.95 M-4.1 -19.1 L-4.0 -19.15 -2.5 -19.45 Q-1.8 -19.45 -1.3 -19.1 -0.7 -18.65 -0.7 -17.9 -0.7 -16.4 -4.9 -11.95 -9.15 -7.45 -10.6 -7.45 -11.35 -7.45 -11.45 -7.8 L-11.45 -9.25 -11.35 -10.15 Q-11.05 -12.25 -9.3 -14.85 -7.85 -16.95 -6.25 -17.95 L-5.1 -18.55 -4.1 -19.1 M-7.75 -21.65 L-6.8 -22.1 -6.25 -22.0 -6.15 -21.55 Q-6.15 -21.0 -6.65 -20.4 L-8.35 -18.85 -10.6 -17.1 Q-11.55 -16.4 -12.05 -16.4 L-12.4 -16.4 -12.45 -16.8 Q-12.45 -18.0 -11.05 -19.45 -9.9 -20.65 -8.2 -21.45 L-7.75 -21.65" fill="#ffffff" fill-rule="evenodd" stroke="none"/>
      <path d="M4.2 -19.8 Q2.25 -20.5 0.0 -20.5 -5.15 -20.5 -8.8 -16.9 -11.85 -13.85 -12.35 -9.75 L-13.5 -9.45 -16.25 -8.95 Q-16.0 -15.15 -11.55 -19.65 -6.75 -24.4 0.0 -24.4 3.85 -24.4 7.05 -22.85 L5.35 -20.85 4.2 -19.8 M-6.8 -22.1 L-7.25 -22.0 -7.75 -21.65 -8.2 -21.45 Q-9.9 -20.65 -11.05 -19.45 -12.45 -18.0 -12.45 -16.8 L-12.4 -16.4 -12.05 -16.4 Q-11.55 -16.4 -10.6 -17.1 L-8.35 -18.85 -6.65 -20.4 Q-6.15 -21.0 -6.15 -21.55 L-6.25 -22.0 -6.8 -22.1" fill="#ffc900" fill-rule="evenodd" stroke="none"/>
      <path d="M15.0 -1.55 Q13.75 1.15 11.5 3.4 L8.95 5.55 Q5.05 8.2 0.0 8.2 -5.0 8.2 -8.95 5.55 L-11.55 3.4 -12.55 2.3 -11.6 1.45 -9.55 -0.15 -8.8 0.7 Q-7.1 2.4 -5.1 3.3 -3.65 3.95 -2.0 4.2 L0.0 4.35 2.05 4.2 Q5.9 3.6 8.75 0.7 10.35 -0.9 11.25 -2.75 L14.3 -1.8 15.0 -1.55" fill="#c96000" fill-rule="evenodd" stroke="none"/>
      <path d="M8.95 5.55 L8.95 8.4 Q4.85 10.2 0.0 10.2 -4.85 10.2 -8.95 8.4 L-8.95 5.55 Q-5.0 8.2 0.0 8.2 5.05 8.2 8.95 5.55" fill="#b04300" fill-rule="evenodd" stroke="none"/>
      <path d="M8.95 8.4 L8.95 24.4 0.35 16.35 -0.85 17.4 Q-4.6 18.45 -6.4 19.15 -7.95 12.55 -8.95 9.3 L-8.95 8.4 Q-4.85 10.2 0.0 10.2 4.85 10.2 8.95 8.4" fill="#ff6600" fill-rule="evenodd" stroke="none"/>
      <path d="M-0.85 17.4 L-8.95 24.4 -8.95 9.3 Q-7.95 12.55 -6.4 19.15 -4.6 18.45 -0.85 17.4" fill="#ff3d00" fill-rule="evenodd" stroke="none"/>
      <path d="M-12.35 -9.75 Q-11.85 -13.85 -8.8 -16.9 -5.15 -20.5 0.0 -20.5 2.25 -20.5 4.2 -19.8 6.2 -19.1 7.95 -17.65 L8.75 -16.9 10.65 -14.6 Q12.45 -11.75 12.45 -8.1 12.45 -5.2 11.25 -2.75 10.35 -0.9 8.75 0.7 5.9 3.6 2.05 4.2 L0.0 4.35 -2.0 4.2 Q-3.65 3.95 -5.1 3.3 -7.1 2.4 -8.8 0.7 L-9.55 -0.15 -10.85 -1.95 Q-12.45 -4.7 -12.45 -8.1 L-12.35 -9.75 M7.05 -22.85 Q3.85 -24.4 0.0 -24.4 -6.75 -24.4 -11.55 -19.65 -16.0 -15.15 -16.25 -8.95 L-16.3 -8.1 Q-16.3 -2.1 -12.55 2.3 L-11.55 3.4 -8.95 5.55 -8.95 8.4 -8.95 9.3 -8.95 24.4 -0.85 17.4 0.35 16.35 8.95 24.4 8.95 8.4 8.95 5.55 Q5.05 8.2 0.0 8.2 -5.0 8.2 -8.95 5.55 M7.05 -22.85 L9.55 -21.35 11.5 -19.65 Q16.3 -14.85 16.3 -8.1 16.3 -4.55 15.0 -1.55 13.75 1.15 11.5 3.4 L8.95 5.55" fill="none" stroke="#000000" stroke-linecap="round" stroke-linejoin="round" stroke-opacity="0.6627451" stroke-width="1.0"/>
    </g>
    <g id="sprite3" transform="matrix(1.0, 0.0, 0.0, 1.0, 16.8, 24.9)">
      <use height="49.8" transform="matrix(1.0, 0.0, 0.0, 1.0, -16.8, -24.9)" width="33.6" xlink:href="#shape5"/>
      <use height="48.8" transform="matrix(1.0, 0.0, 0.0, 1.0, -16.3, -24.4)" width="32.6" xlink:href="#sprite1"/>
    </g>
    <g id="shape5" transform="matrix(1.0, 0.0, 0.0, 1.0, 16.8, 24.9)">
      <path d="M-12.35 -9.75 Q-11.85 -13.85 -8.8 -16.9 -5.15 -20.5 0.0 -20.5 2.25 -20.5 4.2 -19.8 L5.35 -20.85 7.05 -22.85 9.55 -21.35 11.5 -19.65 Q16.3 -14.85 16.3 -8.1 16.3 -4.55 15.0 -1.55 L14.3 -1.8 11.25 -2.75 Q10.35 -0.9 8.75 0.7 5.9 3.6 2.05 4.2 L0.0 4.35 -2.0 4.2 Q-3.65 3.95 -5.1 3.3 -4.2 0.25 -1.05 -3.75 3.4 -9.35 10.65 -14.6 L8.75 -16.9 7.95 -17.65 Q5.75 -13.4 1.45 -9.15 -4.75 -2.9 -10.85 -1.95 -12.45 -4.7 -12.45 -8.1 L-12.35 -9.75 -12.45 -8.1 Q-12.45 -4.7 -10.85 -1.95 L-9.55 -0.15 -11.6 1.45 -12.55 2.3 Q-16.3 -2.1 -16.3 -8.1 L-16.25 -8.95 -13.5 -9.45 -12.35 -9.75 M4.2 -19.8 Q6.2 -19.1 7.95 -17.65 6.2 -19.1 4.2 -19.8 M11.25 -2.75 Q12.45 -5.2 12.45 -8.1 12.45 -11.75 10.65 -14.6 12.45 -11.75 12.45 -8.1 12.45 -5.2 11.25 -2.75 M-4.0 -19.15 L-4.1 -19.1 -5.1 -18.55 -6.25 -17.95 Q-7.85 -16.95 -9.3 -14.85 -11.05 -12.25 -11.35 -10.15 L-11.45 -9.25 -11.45 -7.8 Q-11.35 -7.45 -10.6 -7.45 -9.15 -7.45 -4.9 -11.95 -0.7 -16.4 -0.7 -17.9 -0.7 -18.65 -1.3 -19.1 -1.8 -19.45 -2.5 -19.45 L-4.0 -19.15" fill="#b3b3b3" fill-rule="evenodd" stroke="none"/>
      <path d="M-10.85 -1.95 Q-4.75 -2.9 1.45 -9.15 5.75 -13.4 7.95 -17.65 L8.75 -16.9 10.65 -14.6 Q3.4 -9.35 -1.05 -3.75 -4.2 0.25 -5.1 3.3 -7.1 2.4 -8.8 0.7 L-9.55 -0.15 -10.85 -1.95 M-8.95 9.3 Q-7.95 12.55 -6.4 19.15 -4.6 18.45 -0.85 17.4 L-8.95 24.4 -8.95 9.3 M-4.0 -19.15 L-2.5 -19.45 Q-1.8 -19.45 -1.3 -19.1 -0.7 -18.65 -0.7 -17.9 -0.7 -16.4 -4.9 -11.95 -9.15 -7.45 -10.6 -7.45 -11.35 -7.45 -11.45 -7.8 L-11.45 -9.25 -11.35 -10.15 Q-11.05 -12.25 -9.3 -14.85 -7.85 -16.95 -6.25 -17.95 L-5.1 -18.55 -4.1 -19.1 -4.0 -19.15 M-7.75 -21.65 L-6.8 -22.1 -6.25 -22.0 -6.15 -21.55 Q-6.15 -21.0 -6.65 -20.4 L-8.35 -18.85 -10.6 -17.1 Q-11.55 -16.4 -12.05 -16.4 L-12.4 -16.4 -12.45 -16.8 Q-12.45 -18.0 -11.05 -19.45 -9.9 -20.65 -8.2 -21.45 L-7.75 -21.65" fill="#ffffff" fill-rule="evenodd" stroke="none"/>
      <path d="M4.2 -19.8 Q2.25 -20.5 0.0 -20.5 -5.15 -20.5 -8.8 -16.9 -11.85 -13.85 -12.35 -9.75 L-13.5 -9.45 -16.25 -8.95 Q-16.0 -15.15 -11.55 -19.65 -6.75 -24.4 0.0 -24.4 3.85 -24.4 7.05 -22.85 L5.35 -20.85 4.2 -19.8 M-6.8 -22.1 L-7.25 -22.0 -7.75 -21.65 -8.2 -21.45 Q-9.9 -20.65 -11.05 -19.45 -12.45 -18.0 -12.45 -16.8 L-12.4 -16.4 -12.05 -16.4 Q-11.55 -16.4 -10.6 -17.1 L-8.35 -18.85 -6.65 -20.4 Q-6.15 -21.0 -6.15 -21.55 L-6.25 -22.0 -6.8 -22.1" fill="#e3e3e3" fill-rule="evenodd" stroke="none"/>
      <path d="M11.25 -2.75 L14.3 -1.8 15.0 -1.55 Q13.75 1.15 11.5 3.4 L8.95 5.55 Q5.05 8.2 0.0 8.2 -5.0 8.2 -8.95 5.55 L-11.55 3.4 -12.55 2.3 -11.6 1.45 -9.55 -0.15 -8.8 0.7 Q-7.1 2.4 -5.1 3.3 -3.65 3.95 -2.0 4.2 L0.0 4.35 2.05 4.2 Q5.9 3.6 8.75 0.7 10.35 -0.9 11.25 -2.75" fill="#7d7d7d" fill-rule="evenodd" stroke="none"/>
      <path d="M8.95 8.4 Q4.85 10.2 0.0 10.2 -4.85 10.2 -8.95 8.4 L-8.95 5.55 Q-5.0 8.2 0.0 8.2 5.05 8.2 8.95 5.55 L8.95 8.4" fill="#828282" fill-rule="evenodd" stroke="none"/>
      <path d="M-8.95 8.4 Q-4.85 10.2 0.0 10.2 4.85 10.2 8.95 8.4 L8.95 24.4 0.35 16.35 -0.85 17.4 Q-4.6 18.45 -6.4 19.15 -7.95 12.55 -8.95 9.3 L-8.95 8.4" fill="#c2c2c2" fill-rule="evenodd" stroke="none"/>
      <path d="M-12.35 -9.75 Q-11.85 -13.85 -8.8 -16.9 -5.15 -20.5 0.0 -20.5 2.25 -20.5 4.2 -19.8 6.2 -19.1 7.95 -17.65 L8.75 -16.9 10.65 -14.6 Q12.45 -11.75 12.45 -8.1 12.45 -5.2 11.25 -2.75 10.35 -0.9 8.75 0.7 5.9 3.6 2.05 4.2 L0.0 4.35 -2.0 4.2 Q-3.65 3.95 -5.1 3.3 -7.1 2.4 -8.8 0.7 L-9.55 -0.15 -10.85 -1.95 Q-12.45 -4.7 -12.45 -8.1 L-12.35 -9.75 M7.05 -22.85 Q3.85 -24.4 0.0 -24.4 -6.75 -24.4 -11.55 -19.65 -16.0 -15.15 -16.25 -8.95 L-16.3 -8.1 Q-16.3 -2.1 -12.55 2.3 L-11.55 3.4 -8.95 5.55 -8.95 8.4 -8.95 9.3 -8.95 24.4 -0.85 17.4 0.35 16.35 8.95 24.4 8.95 8.4 8.95 5.55 Q5.05 8.2 0.0 8.2 -5.0 8.2 -8.95 5.55 M15.0 -1.55 Q16.3 -4.55 16.3 -8.1 16.3 -14.85 11.5 -19.65 L9.55 -21.35 7.05 -22.85 M15.0 -1.55 Q13.75 1.15 11.5 3.4 L8.95 5.55" fill="none" stroke="#000000" stroke-linecap="round" stroke-linejoin="round" stroke-opacity="0.6627451" stroke-width="1.0"/>
    </g>
  </defs>
</svg>
