<?xml version="1.0" encoding="UTF-8" standalone="no"?>
<svg xmlns:xlink="http://www.w3.org/1999/xlink" height="531.5px" width="460.6px" xmlns="http://www.w3.org/2000/svg">
  <g transform="matrix(1.0, 0.0, 0.0, 1.0, 193.65, 334.05)">
    <use height="49.8" transform="matrix(1.0, 0.0, 0.0, 1.0, 20.1, -48.85)" width="33.6" xlink:href="#sprite0"/>
  </g>
  <defs>
    <g id="sprite0" transform="matrix(1.0, 0.0, 0.0, 1.0, 16.8, 24.9)">
      <use height="49.8" transform="matrix(1.0, 0.0, 0.0, 1.0, -16.8, -24.9)" width="33.6" xlink:href="#shape0"/>
      <use height="48.8" transform="matrix(1.0, 0.0, 0.0, 1.0, -16.3, -24.4)" width="32.6" xlink:href="#sprite1"/>
    </g>
    <g id="shape0" transform="matrix(1.0, 0.0, 0.0, 1.0, 16.8, 24.9)">
      <path d="M7.05 -22.85 L5.35 -20.85 4.2 -19.8 Q2.25 -20.5 0.0 -20.5 -5.15 -20.5 -8.8 -16.9 -11.85 -13.85 -12.35 -9.75 L-13.5 -9.45 -16.25 -8.95 Q-16.0 -15.15 -11.55 -19.65 -6.75 -24.4 0.0 -24.4 3.85 -24.4 7.05 -22.85 M-7.75 -21.65 L-8.2 -21.45 Q-9.9 -20.65 -11.05 -19.45 -12.45 -18.0 -12.45 -16.8 L-12.4 -16.4 -12.05 -16.4 Q-11.55 -16.4 -10.6 -17.1 L-8.35 -18.85 -6.65 -20.4 Q-6.15 -21.0 -6.15 -21.55 L-6.25 -22.0 -6.8 -22.1 -7.25 -22.0 -7.75 -21.65" fill="#ff8326" fill-rule="evenodd" stroke="none"/>
      <path d="M4.2 -19.8 Q6.2 -19.1 7.95 -17.65 5.75 -13.4 1.45 -9.15 -4.75 -2.9 -10.85 -1.95 -12.45 -4.7 -12.45 -8.1 L-12.35 -9.75 Q-11.85 -13.85 -8.8 -16.9 -5.15 -20.5 0.0 -20.5 2.25 -20.5 4.2 -19.8 M10.65 -14.6 Q12.45 -11.75 12.45 -8.1 12.45 -5.2 11.25 -2.75 10.35 -0.9 8.75 0.7 5.9 3.6 2.05 4.2 L0.0 4.35 -2.0 4.2 Q-3.65 3.95 -5.1 3.3 -4.2 0.25 -1.05 -3.75 3.4 -9.35 10.65 -14.6" fill="#ff6e00" fill-rule="evenodd" stroke="none"/>
      <path d="M7.95 -17.65 Q6.2 -19.1 4.2 -19.8 L5.35 -20.85 7.05 -22.85 9.55 -21.35 11.5 -19.65 Q16.3 -14.85 16.3 -8.1 16.3 -4.55 15.0 -1.55 L14.3 -1.8 11.25 -2.75 Q12.45 -5.2 12.45 -8.1 12.45 -11.75 10.65 -14.6 L8.75 -16.9 7.95 -17.65 M-12.35 -9.75 L-12.45 -8.1 Q-12.45 -4.7 -10.85 -1.95 L-9.55 -0.15 -11.6 1.45 -12.55 2.3 Q-16.3 -2.1 -16.3 -8.1 L-16.25 -8.95 -13.5 -9.45 -12.35 -9.75" fill="#ff6800" fill-rule="evenodd" stroke="none"/>
      <path d="M7.95 -17.65 L8.75 -16.9 10.65 -14.6 Q3.4 -9.35 -1.05 -3.75 -4.2 0.25 -5.1 3.3 -7.1 2.4 -8.8 0.7 L-9.55 -0.15 -10.85 -1.95 Q-4.75 -2.9 1.45 -9.15 5.75 -13.4 7.95 -17.65 M-6.8 -22.1 L-6.25 -22.0 -6.15 -21.55 Q-6.15 -21.0 -6.65 -20.4 L-8.35 -18.85 -10.6 -17.1 Q-11.55 -16.4 -12.05 -16.4 L-12.4 -16.4 -12.45 -16.8 Q-12.45 -18.0 -11.05 -19.45 -9.9 -20.65 -8.2 -21.45 L-7.75 -21.65 -6.8 -22.1" fill="#ffffff" fill-rule="evenodd" stroke="none"/>
      <path d="M11.25 -2.75 L14.3 -1.8 15.0 -1.55 Q13.75 1.15 11.5 3.4 L8.95 5.55 Q5.05 8.2 0.0 8.2 -5.0 8.2 -8.95 5.55 L-11.55 3.4 -12.55 2.3 -11.6 1.45 -9.55 -0.15 -8.8 0.7 Q-7.1 2.4 -5.1 3.3 -3.65 3.95 -2.0 4.2 L0.0 4.35 2.05 4.2 Q5.9 3.6 8.75 0.7 10.35 -0.9 11.25 -2.75" fill="#c93e00" fill-rule="evenodd" stroke="none"/>
      <path d="M-8.95 8.4 Q-4.85 10.2 0.0 10.2 4.85 10.2 8.95 8.4 L8.95 24.4 0.35 16.35 -0.85 17.4 Q-4.6 18.45 -6.4 19.15 -7.95 12.55 -8.95 9.3 L-8.95 8.4" fill="#ff3d00" fill-rule="evenodd" stroke="none"/>
      <path d="M-8.95 5.55 Q-5.0 8.2 0.0 8.2 5.05 8.2 8.95 5.55 L8.95 8.4 Q4.85 10.2 0.0 10.2 -4.85 10.2 -8.95 8.4 L-8.95 5.55" fill="#9c3000" fill-rule="evenodd" stroke="none"/>
      <path d="M-0.85 17.4 L-8.95 24.4 -8.95 9.3 Q-7.95 12.55 -6.4 19.15 -4.6 18.45 -0.85 17.4" fill="#ff1f00" fill-rule="evenodd" stroke="none"/>
      <path d="M4.2 -19.8 Q6.2 -19.1 7.95 -17.65 L8.75 -16.9 10.65 -14.6 Q12.45 -11.75 12.45 -8.1 12.45 -5.2 11.25 -2.75 10.35 -0.9 8.75 0.7 5.9 3.6 2.05 4.2 L0.0 4.35 -2.0 4.2 Q-3.65 3.95 -5.1 3.3 -7.1 2.4 -8.8 0.7 L-9.55 -0.15 -10.85 -1.95 Q-12.45 -4.7 -12.45 -8.1 L-12.35 -9.75 Q-11.85 -13.85 -8.8 -16.9 -5.15 -20.5 0.0 -20.5 2.25 -20.5 4.2 -19.8 M15.0 -1.55 Q16.3 -4.55 16.3 -8.1 16.3 -14.85 11.5 -19.65 L9.55 -21.35 7.05 -22.85 Q3.85 -24.4 0.0 -24.4 -6.75 -24.4 -11.55 -19.65 -16.0 -15.15 -16.25 -8.95 L-16.3 -8.1 Q-16.3 -2.1 -12.55 2.3 L-11.55 3.4 -8.95 5.55 -8.95 8.4 -8.95 9.3 -8.95 24.4 -0.85 17.4 0.35 16.35 8.95 24.4 8.95 8.4 8.95 5.55 11.5 3.4 Q13.75 1.15 15.0 -1.55 M8.95 5.55 Q5.05 8.2 0.0 8.2 -5.0 8.2 -8.95 5.55" fill="none" stroke="#000000" stroke-linecap="round" stroke-linejoin="round" stroke-opacity="0.6627451" stroke-width="1.0"/>
    </g>
    <g id="sprite1" transform="matrix(1.0, 0.0, 0.0, 1.0, 16.3, 24.4)">
      <use height="48.8" transform="matrix(1.0, 0.0, 0.0, 1.0, -16.3, -24.4)" width="32.6" xlink:href="#shape1"/>
    </g>
    <g id="shape1" transform="matrix(1.0, 0.0, 0.0, 1.0, 16.3, 24.4)">
      <path d="M7.95 -17.65 Q6.2 -19.1 4.2 -19.8 2.25 -20.5 0.0 -20.5 -5.15 -20.5 -8.8 -16.9 -11.85 -13.85 -12.35 -9.75 L-12.45 -8.1 Q-12.45 -4.7 -10.85 -1.95 L-9.55 -0.15 -8.8 0.7 Q-7.1 2.4 -5.1 3.3 -3.65 3.95 -2.0 4.2 L0.0 4.35 2.05 4.2 Q5.9 3.6 8.75 0.7 10.35 -0.9 11.25 -2.75 12.45 -5.2 12.45 -8.1 12.45 -11.75 10.65 -14.6 L8.75 -16.9 7.95 -17.65 M-8.95 5.55 L-11.55 3.4 -12.55 2.3 Q-16.3 -2.1 -16.3 -8.1 L-16.25 -8.95 Q-16.0 -15.15 -11.55 -19.65 -6.75 -24.4 0.0 -24.4 3.85 -24.4 7.05 -22.85 L9.55 -21.35 11.5 -19.65 Q16.3 -14.85 16.3 -8.1 16.3 -4.55 15.0 -1.55 13.75 1.15 11.5 3.4 L8.95 5.55 Q5.05 8.2 0.0 8.2 -5.0 8.2 -8.95 5.55 M-7.25 -22.0 L-7.75 -21.65 -6.8 -22.1 -7.25 -22.0" fill="url(#gradient0)" fill-rule="evenodd" stroke="none"/>
      <path d="M7.95 -17.65 L8.75 -16.9 10.65 -14.6 Q12.45 -11.75 12.45 -8.1 12.45 -5.2 11.25 -2.75 10.35 -0.9 8.75 0.7 5.9 3.6 2.05 4.2 L0.0 4.35 -2.0 4.2 Q-3.65 3.95 -5.1 3.3 -7.1 2.4 -8.8 0.7 L-9.55 -0.15 -10.85 -1.95 Q-12.45 -4.7 -12.45 -8.1 L-12.35 -9.75 Q-11.85 -13.85 -8.8 -16.9 -5.15 -20.5 0.0 -20.5 2.25 -20.5 4.2 -19.8 6.2 -19.1 7.95 -17.65" fill="url(#gradient1)" fill-rule="evenodd" stroke="none"/>
      <path d="M8.95 5.55 L8.95 24.4 0.35 16.35 -8.95 24.4 -8.95 5.55 Q-5.0 8.2 0.0 8.2 5.05 8.2 8.95 5.55" fill="url(#gradient2)" fill-rule="evenodd" stroke="none"/>
    </g>
    <linearGradient gradientTransform="matrix(-0.0082, -0.0181, 0.0181, -0.0082, 0.0, -8.1)" gradientUnits="userSpaceOnUse" id="gradient0" spreadMethod="pad" x1="-819.2" x2="819.2">
      <stop offset="0.0" stop-color="#000000"/>
      <stop offset="1.0" stop-color="#ffffff"/>
    </linearGradient>
    <linearGradient gradientTransform="matrix(0.0054, -0.0141, 0.0141, 0.0054, 0.0, -8.05)" gradientUnits="userSpaceOnUse" id="gradient1" spreadMethod="pad" x1="-819.2" x2="819.2">
      <stop offset="0.0" stop-color="#000000"/>
      <stop offset="1.0" stop-color="#ffffff"/>
    </linearGradient>
    <linearGradient gradientTransform="matrix(0.0, 0.0109, -0.0115, 0.0, 0.0, 14.95)" gradientUnits="userSpaceOnUse" id="gradient2" spreadMethod="pad" x1="-819.2" x2="819.2">
      <stop offset="0.0" stop-color="#000000"/>
      <stop offset="1.0" stop-color="#ffffff"/>
    </linearGradient>
  </defs>
</svg>
