<?xml version="1.0" encoding="UTF-8" standalone="no"?>
<svg xmlns:xlink="http://www.w3.org/1999/xlink" height="531.5px" width="460.6px" xmlns="http://www.w3.org/2000/svg">
  <g transform="matrix(1.0, 0.0, 0.0, 1.0, 193.65, 334.05)">
    <use height="29.25" transform="matrix(2.0067, 0.0, 0.0, 2.0067, 14.4476, -58.5534)" width="25.0" xlink:href="#sprite0"/>
  </g>
  <defs>
    <g id="sprite0" transform="matrix(1.0, 0.0, 0.0, 1.0, 0.35, 0.5)">
      <use height="29.25" transform="matrix(1.0, 0.0, 0.0, 1.0, -0.35, -0.5)" width="25.0" xlink:href="#shape0"/>
      <use height="28.25" transform="matrix(1.0, 0.0, 0.0, 1.0, 0.0, 0.0)" width="24.15" xlink:href="#sprite1"/>
    </g>
    <g id="shape0" transform="matrix(1.0, 0.0, 0.0, 1.0, 0.35, 0.5)">
      <path d="M19.2 8.15 Q20.2 5.3 22.3 4.65 24.65 4.05 23.95 6.15 21.25 6.9 20.8 9.9 L20.75 9.95 19.75 8.85 19.2 8.15" fill="#4a7cc6" fill-rule="evenodd" stroke="none"/>
      <path d="M20.8 9.9 Q21.65 8.5 23.1 8.35 L23.6 8.8 Q21.8 9.4 22.0 10.95 L22.3 11.6 20.75 9.95 20.8 9.9 M19.05 21.05 L18.25 21.35 Q16.65 21.6 15.3 18.95 L13.7 16.9 13.0 15.9 Q10.7 12.2 12.45 10.6 L12.8 11.15 14.05 10.1 14.0 10.3 14.0 10.45 Q14.05 11.8 15.0 13.5 L15.05 13.6 16.7 15.95 17.45 16.75 Q17.7 17.6 18.5 18.35 L19.4 19.1 18.5 18.35 Q17.7 17.6 17.45 16.75 L18.55 17.8 18.5 18.35 18.55 17.8 20.15 18.65 Q19.75 18.75 19.4 19.1 L18.7 20.1 19.05 21.05 M19.15 8.15 L19.2 8.15 19.75 8.85 19.15 8.15 M15.0 13.5 Q13.0 13.75 13.0 15.9 13.0 13.75 15.0 13.5" fill="#b30000" fill-rule="evenodd" stroke="none"/>
      <path d="M22.0 10.95 L24.15 10.25 22.6 12.35 22.3 11.6 22.0 10.95 M18.25 21.35 Q17.7 23.0 16.05 23.85 L15.45 20.7 15.4 20.6 15.4 20.65 13.4 21.6 11.65 20.95 Q12.4 19.45 12.1 18.8 L9.6 19.65 6.45 25.25 6.9 18.65 9.05 16.35 7.6 14.65 5.95 14.1 10.35 11.25 9.9 8.15 10.75 8.75 11.75 9.65 12.45 10.6 Q10.7 12.2 13.0 15.9 L13.7 16.9 12.75 17.7 Q9.55 13.7 10.45 11.3 10.7 10.5 11.75 9.65 10.7 10.5 10.45 11.3 9.55 13.7 12.75 17.7 L13.7 16.9 15.3 18.95 Q16.65 21.6 18.25 21.35 M3.9 3.55 L3.15 3.65 2.4 3.55 2.1 3.4 2.4 3.2 3.15 3.15 3.9 3.2 4.2 3.4 3.9 3.55 M12.1 18.8 L11.8 18.45 12.75 17.7 15.4 20.65 12.75 17.7 11.8 18.45 12.1 18.8 M0.7 25.7 L1.35 25.45 1.7 25.55 1.6 25.9 1.0 26.3 0.35 26.5 0.0 26.4 0.1 26.05 0.7 25.7" fill="#660000" fill-rule="evenodd" stroke="none"/>
      <path d="M22.6 12.35 Q23.3 15.5 21.25 18.7 L21.2 18.75 21.2 18.85 21.15 18.85 21.1 18.75 21.05 18.65 20.15 18.65 18.55 17.8 17.45 16.75 16.7 15.95 15.05 13.6 15.0 13.5 Q14.05 11.8 14.0 10.45 L14.0 10.3 14.05 10.1 15.1 9.15 14.6 8.5 14.45 8.3 Q15.15 7.65 15.95 7.45 L16.0 7.45 Q17.1 8.45 18.15 7.9 L18.45 7.7 Q18.8 7.85 19.15 8.15 L19.75 8.85 20.75 9.95 22.3 11.6 22.6 12.35 M17.3 14.95 Q17.1 15.9 17.45 16.75 17.1 15.9 17.3 14.95 M19.6 12.05 Q19.15 10.3 17.6 10.35 19.15 10.3 19.6 12.05 M18.6 17.05 L18.55 17.8 18.6 17.05" fill="#fd1313" fill-rule="evenodd" stroke="none"/>
      <path d="M21.15 18.85 L21.65 20.15 Q21.95 21.25 21.9 22.25 L21.4 22.5 Q20.2 22.85 19.1 22.15 L19.05 21.05 19.3 20.9 21.65 20.15 19.3 20.9 19.05 21.05 18.7 20.1 19.4 19.1 Q19.75 18.75 20.15 18.65 L21.05 18.65 21.1 18.75 21.15 18.85 M15.05 26.6 Q14.9 26.05 15.1 25.5 15.35 24.85 15.9 24.65 16.4 24.45 17.0 24.65 L17.15 24.7 17.3 24.8 17.35 24.45 18.35 23.6 19.1 22.15 Q20.2 22.85 21.4 22.5 21.05 23.7 19.7 24.65 L19.25 24.95 18.0 25.55 17.3 24.8 17.55 25.75 17.3 24.8 18.0 25.55 17.55 25.75 16.3 26.2 15.05 26.6 M9.9 8.15 L8.7 7.65 8.65 7.1 8.25 7.5 8.15 7.5 8.15 7.55 Q7.45 8.05 6.75 7.85 6.0 7.65 5.6 6.9 5.35 6.3 5.45 5.65 L6.95 5.75 8.8 6.0 Q8.6 6.5 8.65 7.1 L9.05 6.15 9.1 6.1 Q10.2 6.35 11.0 6.8 L11.35 7.0 Q10.75 7.6 10.75 8.75 10.75 7.6 11.35 7.0 12.55 7.75 13.45 9.3 L12.5 10.55 12.45 10.6 12.5 10.55 13.45 9.3 14.45 8.3 14.6 8.5 15.1 9.15 14.05 10.1 12.8 11.15 12.45 10.6 11.75 9.65 10.75 8.75 9.9 8.15 M16.0 7.45 L15.75 7.15 15.2 5.8 Q14.5 4.65 13.3 4.45 L13.15 3.75 13.65 2.95 13.7 2.85 13.65 2.95 13.15 3.75 Q13.1 3.2 13.35 2.7 13.1 3.2 13.15 3.75 L12.5 4.15 11.95 4.35 11.9 4.35 10.9 4.25 Q10.15 3.9 9.85 3.1 9.6 2.4 9.8 1.7 L11.7 2.1 11.9 2.15 Q12.6 2.35 13.35 2.7 L13.85 1.95 13.7 2.85 15.3 3.65 16.4 4.35 Q15.7 4.85 15.2 5.8 15.7 4.85 16.4 4.35 18.05 5.65 18.15 7.6 L18.45 7.7 18.15 7.9 Q17.1 8.45 16.0 7.45 L18.15 7.6 16.0 7.45 M11.7 2.1 Q10.85 3.0 11.9 4.35 10.85 3.0 11.7 2.1 M9.1 6.1 L9.05 6.15 8.65 7.1 Q8.6 6.5 8.8 6.0 L9.15 5.3 9.1 6.1 M8.15 7.5 L7.2 7.35 Q6.75 6.35 6.95 5.75 6.75 6.35 7.2 7.35 L8.15 7.5 M17.0 24.65 L16.2 25.0 16.3 26.2 16.2 25.0 17.0 24.65 M18.35 23.6 Q18.5 24.45 19.25 24.95 18.5 24.45 18.35 23.6" fill="#373737" fill-opacity="0.99215686" fill-rule="evenodd" stroke="none"/>
      <path d="M21.9 22.25 Q21.8 24.0 20.5 25.45 L19.05 26.6 18.25 26.9 18.1 27.25 Q17.9 27.95 17.3 28.2 L16.05 28.05 Q15.45 27.75 15.15 26.95 L15.05 26.6 16.3 26.2 Q16.65 27.35 18.25 26.9 L18.25 26.55 18.1 25.8 18.0 25.55 18.1 25.8 18.25 26.55 18.25 26.9 Q16.65 27.35 16.3 26.2 L17.55 25.75 18.0 25.55 19.25 24.95 19.7 24.65 Q21.05 23.7 21.4 22.5 L21.9 22.25 M5.45 5.65 L5.5 5.25 Q5.75 4.35 6.4 3.9 7.1 3.35 7.85 3.55 8.55 3.75 8.95 4.55 L9.1 4.9 9.0 4.95 9.1 5.0 9.15 5.3 9.4 5.05 Q11.05 5.4 12.5 6.45 13.5 7.15 14.45 8.3 L13.45 9.3 Q12.55 7.75 11.35 7.0 L11.0 6.8 Q10.2 6.35 9.1 6.1 L9.15 5.3 8.8 6.0 6.95 5.75 5.45 5.65 M9.8 1.7 L9.9 1.4 Q10.25 0.55 11.05 0.2 L12.6 0.15 Q13.4 0.45 13.7 1.25 L13.8 1.55 13.85 1.95 13.35 2.7 Q12.6 2.35 11.9 2.15 L11.7 2.1 12.3 1.6 13.8 1.55 12.3 1.6 11.7 2.1 9.8 1.7 M14.2 1.55 Q17.3 1.75 18.4 3.75 19.1 5.05 18.9 7.25 L18.45 7.7 18.15 7.6 Q18.05 5.65 16.4 4.35 L15.3 3.65 13.7 2.85 13.85 1.95 14.2 1.55 M18.4 3.75 Q17.25 3.7 16.4 4.35 17.25 3.7 18.4 3.75 M12.5 6.45 Q11.75 6.55 11.35 7.0 11.75 6.55 12.5 6.45 M9.0 4.95 Q7.15 4.75 6.95 5.75 7.15 4.75 9.0 4.95 M18.25 26.55 Q17.75 26.25 17.55 25.75 17.75 26.25 18.25 26.55 M20.5 25.45 Q19.7 25.3 19.25 24.95 19.7 25.3 20.5 25.45" fill="#737373" fill-opacity="0.99215686" fill-rule="evenodd" stroke="none"/>
      <path d="M13.3 4.45 L11.95 4.45 11.95 4.35 12.5 4.15 13.15 3.75 13.3 4.45" fill="#1a1a1a" fill-opacity="0.99215686" fill-rule="evenodd" stroke="none"/>
      <path d="M9.1 4.9 L9.1 4.95 9.0 4.95 9.1 4.9" fill="#959595" fill-rule="evenodd" stroke="none"/>
      <path d="M19.2 8.15 Q20.2 5.3 22.3 4.65 24.65 4.05 23.95 6.15 21.25 6.9 20.8 9.9 21.65 8.5 23.1 8.35 L23.6 8.8 Q21.8 9.4 22.0 10.95 L24.15 10.25 22.6 12.35 Q23.3 15.5 21.25 18.7 L21.2 18.75 21.2 18.85 21.15 18.85 21.65 20.15 Q21.95 21.25 21.9 22.25 21.8 24.0 20.5 25.45 L19.05 26.6 18.25 26.9 18.1 27.25 Q17.9 27.95 17.3 28.2 L16.05 28.05 Q15.45 27.75 15.15 26.95 L15.05 26.6 Q14.9 26.05 15.1 25.5 15.35 24.85 15.9 24.65 16.4 24.45 17.0 24.65 L17.35 24.45 18.35 23.6 19.1 22.15 19.05 21.05 18.25 21.35 Q17.7 23.0 16.05 23.85 L15.45 20.7 15.4 20.65 13.4 21.6 11.65 20.95 Q12.4 19.45 12.1 18.8 L9.6 19.65 6.45 25.25 6.9 18.65 9.05 16.35 7.6 14.65 5.95 14.1 10.35 11.25 9.9 8.15 8.7 7.65 8.25 7.5 8.15 7.55 Q7.45 8.05 6.75 7.85 6.0 7.65 5.6 6.9 5.35 6.3 5.45 5.65 L5.5 5.25 Q5.75 4.35 6.4 3.9 7.1 3.35 7.85 3.55 8.55 3.75 8.95 4.55 L9.1 4.9 9.1 4.95 9.1 5.0 9.4 5.05 Q11.05 5.4 12.5 6.45 13.5 7.15 14.45 8.3 15.15 7.65 15.95 7.45 L16.0 7.45 15.75 7.15 15.2 5.8 Q14.5 4.65 13.3 4.45 L11.95 4.45 11.9 4.35 10.9 4.25 Q10.15 3.9 9.85 3.1 9.6 2.4 9.8 1.7 L9.9 1.4 Q10.25 0.55 11.05 0.2 L12.6 0.15 Q13.4 0.45 13.7 1.25 L13.8 1.55 14.2 1.55 Q17.3 1.75 18.4 3.75 19.1 5.05 18.9 7.25 L18.45 7.7 Q18.8 7.85 19.15 8.15 L19.2 8.15 19.75 8.85 M22.3 11.6 L22.6 12.35 M22.3 11.6 L22.0 10.95 M21.4 22.5 L21.9 22.25 M20.15 18.65 L21.05 18.65 21.1 18.75 21.15 18.85 M15.2 5.8 Q15.7 4.85 16.4 4.35 17.25 3.7 18.4 3.75 M13.7 2.85 L13.65 2.95 13.15 3.75 13.3 4.45 M13.35 2.7 L13.85 1.95 13.8 1.55 12.3 1.6 11.7 2.1 Q10.85 3.0 11.9 4.35 L11.95 4.35 12.5 4.15 13.15 3.75 Q13.1 3.2 13.35 2.7 M13.85 1.95 L13.7 2.85 M13.85 1.95 L14.2 1.55 M14.45 8.3 L14.6 8.5 15.1 9.15 14.05 10.1 12.8 11.15 12.45 10.6 12.5 10.55 13.45 9.3 14.45 8.3 M17.45 16.75 Q17.1 15.9 17.3 14.95 M11.35 7.0 Q11.75 6.55 12.5 6.45 M11.35 7.0 Q10.75 7.6 10.75 8.75 L11.75 9.65 12.45 10.6 Q10.7 12.2 13.0 15.9 13.0 13.75 15.0 13.5 M11.75 9.65 Q10.7 10.5 10.45 11.3 9.55 13.7 12.75 17.7 L13.7 16.9 13.0 15.9 M18.15 7.6 L18.45 7.7 18.15 7.9 Q17.1 8.45 16.0 7.45 L18.15 7.6 M17.6 10.35 Q19.15 10.3 19.6 12.05 M9.0 4.95 L9.1 5.0 9.15 5.3 9.4 5.05 M8.8 6.0 Q8.6 6.5 8.65 7.1 L9.05 6.15 9.1 6.1 9.15 5.3 8.8 6.0 M6.95 5.75 Q6.75 6.35 7.2 7.35 L8.15 7.5 8.25 7.5 8.65 7.1 8.7 7.65 M6.95 5.75 Q7.15 4.75 9.0 4.95 M19.4 19.1 L18.5 18.35 Q17.7 17.6 17.45 16.75 M18.55 17.8 L18.6 17.05 M18.55 17.8 L18.5 18.35 M15.4 20.65 L12.75 17.7 11.8 18.45 12.1 18.8 M19.05 21.05 L19.3 20.9 21.65 20.15 M19.05 21.05 L18.7 20.1 19.4 19.1 Q19.75 18.75 20.15 18.65 M15.4 20.65 L15.4 20.6 15.45 20.7 M17.0 24.65 L17.15 24.7 17.3 24.8 17.35 24.45 M18.25 21.35 Q16.65 21.6 15.3 18.95 L13.7 16.9 M10.75 8.75 L9.9 8.15 M18.0 25.55 L18.1 25.8 18.25 26.55 18.25 26.9 Q16.65 27.35 16.3 26.2 L16.2 25.0 17.0 24.65 M19.25 24.95 Q18.5 24.45 18.35 23.6 M17.55 25.75 L17.3 24.8 18.0 25.55 M17.55 25.75 Q17.75 26.25 18.25 26.55 M21.4 22.5 Q20.2 22.85 19.1 22.15 M19.25 24.95 Q19.7 25.3 20.5 25.45" fill="none" stroke="#000000" stroke-linecap="round" stroke-linejoin="round" stroke-opacity="0.6627451" stroke-width="1.0"/>
      <path d="M3.9 3.55 L3.15 3.65 2.4 3.55 2.1 3.4 2.4 3.2 3.15 3.15 3.9 3.2 4.2 3.4 3.9 3.55" fill="none" stroke="#000000" stroke-linecap="round" stroke-linejoin="round" stroke-opacity="0.6627451" stroke-width="0.5"/>
      <path d="M0.7 25.7 L1.35 25.45 1.7 25.55 1.6 25.9 1.0 26.3 0.35 26.5 0.0 26.4 0.1 26.05 0.7 25.7" fill="none" stroke="#000000" stroke-linecap="round" stroke-linejoin="round" stroke-opacity="0.6627451" stroke-width="0.7000000000000001"/>
    </g>
    <g id="sprite1" transform="matrix(1.0, 0.0, 0.0, 1.0, 0.0, 0.0)">
      <use height="28.25" transform="matrix(1.0, 0.0, 0.0, 1.0, 0.0, 0.0)" width="24.15" xlink:href="#shape1"/>
    </g>
    <g id="shape1" transform="matrix(1.0, 0.0, 0.0, 1.0, 0.0, 0.0)">
      <path d="M19.2 8.15 Q20.2 5.3 22.3 4.65 24.65 4.05 23.95 6.15 21.25 6.9 20.8 9.9 L20.75 9.95 19.75 8.85 19.2 8.15" fill="url(#gradient0)" fill-rule="evenodd" stroke="none"/>
      <path d="M20.8 9.9 Q21.65 8.5 23.1 8.35 L23.6 8.8 Q21.8 9.4 22.0 10.95 L22.3 11.6 20.75 9.95 20.8 9.9" fill="url(#gradient1)" fill-rule="evenodd" stroke="none"/>
      <path d="M22.0 10.95 L24.15 10.25 22.6 12.35 22.3 11.6 22.0 10.95" fill="url(#gradient2)" fill-rule="evenodd" stroke="none"/>
      <path d="M14.05 10.1 L14.0 10.3 13.95 10.2 14.05 10.1" fill="url(#gradient3)" fill-rule="evenodd" stroke="none"/>
      <path d="M19.15 8.15 L19.2 8.15 19.75 8.85 19.15 8.15" fill="url(#gradient4)" fill-rule="evenodd" stroke="none"/>
      <path d="M9.1 4.9 L9.1 4.95 9.0 4.95 9.1 4.9" fill="url(#gradient5)" fill-rule="evenodd" stroke="none"/>
      <path d="M18.25 21.35 Q17.7 23.0 16.05 23.85 L15.45 20.7 15.4 20.6 15.4 20.65 13.4 21.6 11.65 20.95 Q12.4 19.45 12.1 18.8 L9.6 19.65 6.45 25.25 6.9 18.65 9.05 16.35 7.6 14.65 5.95 14.1 10.35 11.25 9.9 8.15 10.75 8.75 11.75 9.65 12.45 10.6 Q10.7 12.2 13.0 15.9 L13.7 16.9 15.3 18.95 Q16.65 21.6 18.25 21.35" fill="url(#gradient6)" fill-rule="evenodd" stroke="none"/>
      <path d="M22.6 12.35 Q23.3 15.5 21.25 18.7 L21.2 18.75 21.2 18.85 21.15 18.85 21.1 18.75 21.05 18.65 20.15 18.65 Q19.75 18.75 19.4 19.1 L18.7 20.1 19.05 21.05 18.25 21.35 Q16.65 21.6 15.3 18.95 L13.7 16.9 13.0 15.9 Q10.7 12.2 12.45 10.6 L12.8 11.15 13.95 10.2 14.0 10.3 14.05 10.1 15.1 9.15 14.6 8.5 14.45 8.3 Q15.15 7.65 15.95 7.45 L16.0 7.45 Q17.1 8.45 18.15 7.9 L18.45 7.7 Q18.8 7.85 19.15 8.15 L19.75 8.85 20.75 9.95 22.3 11.6 22.6 12.35" fill="url(#gradient7)" fill-rule="evenodd" stroke="none"/>
      <path d="M21.15 18.85 L21.15 18.9 21.65 20.15 Q21.95 21.25 21.9 22.25 21.8 24.0 20.5 25.45 L19.05 26.6 18.25 26.9 18.1 27.25 Q17.9 27.95 17.3 28.2 L16.05 28.05 Q15.45 27.75 15.15 26.95 L15.05 26.6 Q14.9 26.05 15.1 25.5 15.35 24.85 15.9 24.65 16.4 24.45 17.0 24.65 L17.15 24.7 17.3 24.8 17.35 24.45 18.35 23.6 19.1 22.15 19.05 21.05 18.7 20.1 19.4 19.1 Q19.75 18.75 20.15 18.65 L21.05 18.65 21.1 18.75 21.15 18.85" fill="url(#gradient8)" fill-rule="evenodd" stroke="none"/>
      <path d="M16.0 7.45 L15.75 7.15 15.2 5.8 Q14.5 4.65 13.3 4.45 L11.95 4.45 11.95 4.35 11.9 4.35 10.9 4.25 Q10.15 3.9 9.85 3.1 9.6 2.4 9.8 1.7 L9.9 1.4 Q10.25 0.55 11.05 0.2 L12.6 0.15 Q13.4 0.45 13.7 1.25 L13.8 1.55 13.85 1.95 14.2 1.55 Q17.3 1.75 18.4 3.75 19.1 5.05 18.9 7.25 L18.45 7.7 18.15 7.9 Q17.1 8.45 16.0 7.45" fill="url(#gradient9)" fill-rule="evenodd" stroke="none"/>
      <path d="M9.9 8.15 L8.7 7.65 8.65 7.1 8.25 7.5 8.15 7.5 8.15 7.55 Q7.45 8.05 6.75 7.85 6.0 7.65 5.6 6.9 5.35 6.3 5.45 5.65 L5.5 5.25 Q5.75 4.35 6.4 3.9 7.1 3.35 7.85 3.55 8.55 3.75 8.95 4.55 L9.1 4.9 9.0 4.95 9.1 5.0 9.15 5.3 9.4 5.05 Q11.05 5.4 12.5 6.45 13.5 7.15 14.45 8.3 L14.6 8.5 15.1 9.15 14.05 10.1 13.95 10.2 12.8 11.15 12.45 10.6 11.75 9.65 10.75 8.75 9.9 8.15" fill="url(#gradient10)" fill-rule="evenodd" stroke="none"/>
      <path d="M3.15 3.15 L3.9 3.2 4.2 3.4 3.9 3.55 3.15 3.65 2.4 3.55 2.1 3.4 2.4 3.2 3.15 3.15" fill="url(#gradient11)" fill-rule="evenodd" stroke="none"/>
      <path d="M0.35 26.5 L0.0 26.4 0.1 26.05 0.7 25.7 1.35 25.45 1.7 25.55 1.6 25.9 1.0 26.3 0.35 26.5" fill="url(#gradient12)" fill-rule="evenodd" stroke="none"/>
    </g>
    <linearGradient gradientTransform="matrix(0.003, 0.0, 0.0, 0.0033, 21.65, 7.2)" gradientUnits="userSpaceOnUse" id="gradient0" spreadMethod="pad" x1="-819.2" x2="819.2">
      <stop offset="0.0" stop-color="#000000"/>
      <stop offset="1.0" stop-color="#ffffff"/>
    </linearGradient>
    <linearGradient gradientTransform="matrix(0.0017, 0.0, 0.0, 0.002, 22.15, 9.95)" gradientUnits="userSpaceOnUse" id="gradient1" spreadMethod="pad" x1="-819.2" x2="819.2">
      <stop offset="0.0" stop-color="#000000"/>
      <stop offset="1.0" stop-color="#ffffff"/>
    </linearGradient>
    <linearGradient gradientTransform="matrix(0.0013, 0.0, 0.0, 0.0013, 23.05, 11.3)" gradientUnits="userSpaceOnUse" id="gradient2" spreadMethod="pad" x1="-819.2" x2="819.2">
      <stop offset="0.0" stop-color="#000000"/>
      <stop offset="1.0" stop-color="#ffffff"/>
    </linearGradient>
    <linearGradient gradientTransform="matrix(1.0E-4, 0.0, 0.0, 1.0E-4, 14.0, 10.2)" gradientUnits="userSpaceOnUse" id="gradient3" spreadMethod="pad" x1="-819.2" x2="819.2">
      <stop offset="0.0" stop-color="#000000"/>
      <stop offset="1.0" stop-color="#ffffff"/>
    </linearGradient>
    <linearGradient gradientTransform="matrix(4.0E-4, 0.0, 0.0, 5.0E-4, 19.45, 8.45)" gradientUnits="userSpaceOnUse" id="gradient4" spreadMethod="pad" x1="-819.2" x2="819.2">
      <stop offset="0.0" stop-color="#000000"/>
      <stop offset="1.0" stop-color="#ffffff"/>
    </linearGradient>
    <linearGradient gradientTransform="matrix(1.0E-4, 0.0, 0.0, 0.0, 9.05, 4.9)" gradientUnits="userSpaceOnUse" id="gradient5" spreadMethod="pad" x1="-819.2" x2="819.2">
      <stop offset="0.0" stop-color="#000000"/>
      <stop offset="1.0" stop-color="#ffffff"/>
    </linearGradient>
    <linearGradient gradientTransform="matrix(-0.0162, 0.0043, -0.0027, -0.0101, 12.1, 16.7)" gradientUnits="userSpaceOnUse" id="gradient6" spreadMethod="pad" x1="-819.2" x2="819.2">
      <stop offset="0.0" stop-color="#000000"/>
      <stop offset="1.0" stop-color="#ffffff"/>
    </linearGradient>
    <linearGradient gradientTransform="matrix(0.0087, 0.0, 0.0, 0.0085, 17.25, 14.4)" gradientUnits="userSpaceOnUse" id="gradient7" spreadMethod="pad" x1="-819.2" x2="819.2">
      <stop offset="0.0" stop-color="#000000"/>
      <stop offset="1.0" stop-color="#ffffff"/>
    </linearGradient>
    <linearGradient gradientTransform="matrix(0.0065, 0.0, 0.0, 0.0059, 18.45, 23.4)" gradientUnits="userSpaceOnUse" id="gradient8" spreadMethod="pad" x1="-819.2" x2="819.2">
      <stop offset="0.0" stop-color="#000000"/>
      <stop offset="1.0" stop-color="#ffffff"/>
    </linearGradient>
    <linearGradient gradientTransform="matrix(0.0077, 0.0, 0.0, 0.0049, 14.3, 4.05)" gradientUnits="userSpaceOnUse" id="gradient9" spreadMethod="pad" x1="-819.2" x2="819.2">
      <stop offset="0.0" stop-color="#000000"/>
      <stop offset="1.0" stop-color="#ffffff"/>
    </linearGradient>
    <linearGradient gradientTransform="matrix(0.01, 0.0, 0.0, 0.0047, 10.25, 7.3)" gradientUnits="userSpaceOnUse" id="gradient10" spreadMethod="pad" x1="-819.2" x2="819.2">
      <stop offset="0.0" stop-color="#000000"/>
      <stop offset="1.0" stop-color="#ffffff"/>
    </linearGradient>
    <linearGradient gradientTransform="matrix(0.0118, 0.0, 0.0, 3.0E-4, 3.15, 3.4)" gradientUnits="userSpaceOnUse" id="gradient11" spreadMethod="pad" x1="-819.2" x2="819.2">
      <stop offset="0.0" stop-color="#000000"/>
      <stop offset="1.0" stop-color="#ffffff"/>
    </linearGradient>
    <linearGradient gradientTransform="matrix(0.0126, 0.0, 0.0, 6.0E-4, 0.85, 25.95)" gradientUnits="userSpaceOnUse" id="gradient12" spreadMethod="pad" x1="-819.2" x2="819.2">
      <stop offset="0.0" stop-color="#000000"/>
      <stop offset="1.0" stop-color="#ffffff"/>
    </linearGradient>
  </defs>
</svg>
