<?xml version="1.0" encoding="UTF-8" standalone="no"?>
<svg xmlns:xlink="http://www.w3.org/1999/xlink" height="531.5px" width="460.6px" xmlns="http://www.w3.org/2000/svg">
  <g transform="matrix(1.0, 0.0, 0.0, 1.0, 193.65, 334.05)">
    <use height="28.6" transform="matrix(1.9412, 0.0, 0.0, 1.9412, -71.1206, -179.1206)" width="67.2" xlink:href="#sprite0"/>
  </g>
  <defs>
    <g id="sprite0" transform="matrix(1.0, 0.0, 0.0, 1.0, 0.5, 0.5)">
      <use height="28.6" transform="matrix(1.0, 0.0, 0.0, 1.0, -0.5, -0.5)" width="67.2" xlink:href="#shape0"/>
      <use height="27.6" transform="matrix(1.0, 0.0, 0.0, 1.0, 0.0, 0.0)" width="66.2" xlink:href="#sprite1"/>
    </g>
    <g id="shape0" transform="matrix(1.0, 0.0, 0.0, 1.0, 0.5, 0.5)">
      <path d="M61.45 9.8 L62.15 10.8 62.85 12.4 62.85 12.45 64.8 17.65 Q65.1 19.0 65.65 19.8 L65.7 20.2 Q64.5 19.75 63.4 18.25 L63.15 17.9 Q62.5 14.35 61.15 10.65 L61.45 9.8 M63.25 8.75 L62.4 8.05 61.7 7.65 Q61.65 6.2 61.05 4.95 L62.75 6.4 63.25 8.75 M46.05 5.65 Q45.65 6.7 45.65 7.9 45.65 9.5 46.35 10.9 L45.95 10.8 Q45.5 6.8 41.05 5.9 L41.0 5.9 40.6 5.85 40.4 5.85 Q36.3 6.15 33.85 10.65 34.35 9.35 34.35 7.85 L34.1 5.7 34.05 5.65 37.55 4.9 41.4 4.65 44.1 5.1 46.05 5.65 M33.55 4.35 L33.35 4.05 34.1 3.95 33.55 4.35 M19.8 2.3 L19.3 2.8 Q17.4 4.85 17.3 7.55 L12.75 9.15 12.8 8.9 12.55 8.35 12.05 8.15 11.5 8.35 11.3 8.9 11.5 9.4 11.6 9.5 Q7.5 10.75 5.5 10.75 L5.4 10.75 Q5.75 9.15 6.7 8.3 L7.0 8.05 Q11.45 4.3 17.05 2.8 L19.8 2.25 19.8 2.3 M17.1 5.35 Q13.3 5.9 7.0 8.05 13.3 5.9 17.1 5.35 M5.25 12.7 L5.25 13.45 7.4 12.85 7.05 15.8 7.0 16.25 7.05 15.8 7.15 15.8 7.0 16.25 6.95 16.7 6.85 16.75 Q5.9 19.4 5.0 20.65 3.6 22.6 1.45 22.6 L1.05 22.6 1.3 21.7 5.25 12.7 M8.4 9.25 L8.05 9.1 7.7 9.25 7.55 9.6 7.7 9.95 8.05 10.1 8.4 9.95 8.55 9.6 8.4 9.25" fill="#573e21" fill-rule="evenodd" stroke="none"/>
      <path d="M61.45 9.8 L61.7 7.9 61.7 7.65 62.4 8.05 63.25 8.75 Q63.6 11.25 62.9 12.35 L62.15 10.8 61.45 9.8 M63.15 17.9 L63.4 18.25 Q64.5 19.75 65.7 20.2 L65.75 20.9 64.2 21.3 63.6 21.2 63.3 18.9 63.15 17.9 M46.75 4.2 L46.6 4.45 46.05 5.65 44.1 5.1 41.4 4.65 37.55 4.9 34.05 5.65 33.55 4.35 34.1 3.95 37.0 3.6 40.6 3.5 46.75 4.2 M17.3 7.55 L17.3 7.85 Q17.3 9.25 17.75 10.5 L18.5 12.0 19.8 13.45 19.8 13.6 16.0 14.0 Q11.3 14.7 6.95 16.7 L7.0 16.25 7.15 15.8 7.05 15.8 7.4 12.85 5.25 13.45 5.25 12.7 Q5.2 11.6 5.4 10.75 L5.5 10.75 Q7.5 10.75 11.6 9.5 L11.5 9.4 11.3 8.9 11.5 8.35 12.05 8.15 12.55 8.35 12.8 8.9 12.75 9.15 17.3 7.55 M11.6 9.5 L12.05 9.65 12.55 9.4 12.75 9.15 12.55 9.4 12.05 9.65 11.6 9.5 M17.75 10.5 L16.65 10.65 Q13.15 11.2 7.4 12.85 13.15 11.2 16.65 10.65 L17.75 10.5 M8.4 9.25 L8.55 9.6 8.4 9.95 8.05 10.1 7.7 9.95 7.55 9.6 7.7 9.25 8.05 9.1 8.4 9.25 M1.05 22.6 L1.45 22.6 Q3.6 22.6 5.0 20.65 5.9 19.4 6.85 16.75 L6.95 16.7 5.95 22.5 4.8 24.6 3.75 25.3 3.05 25.2 1.35 24.9 Q0.85 24.0 0.95 23.05 L1.05 22.6" fill="#3d2b17" fill-rule="evenodd" stroke="none"/>
      <path d="M61.7 7.65 L61.7 7.9 61.45 9.8 61.15 10.65 Q60.55 11.95 59.35 13.05 57.0 15.2 53.65 15.2 50.35 15.2 48.0 13.05 L49.95 11.5 50.1 11.65 Q51.35 12.8 53.0 13.15 L54.3 13.25 Q56.75 13.25 58.5 11.65 60.25 10.1 60.25 7.85 L60.2 7.2 Q60.1 6.15 59.5 5.2 L58.5 4.0 58.25 3.8 59.55 2.9 61.05 4.95 Q61.65 6.2 61.7 7.65 M56.8 2.95 L56.5 2.8 56.4 2.8 54.3 2.45 52.15 2.8 Q51.0 3.2 50.1 4.0 48.35 5.6 48.35 7.85 48.35 8.9 48.75 9.8 L47.45 10.8 46.65 11.45 46.55 11.3 46.45 11.1 46.35 10.9 Q45.65 9.5 45.65 7.9 45.65 6.7 46.05 5.65 L46.6 4.45 46.75 4.2 46.8 4.1 46.9 4.0 48.0 2.7 Q48.7 2.05 49.5 1.65 51.35 0.55 53.65 0.55 56.35 0.55 58.4 1.95 L56.8 2.95 M31.55 2.05 L31.85 2.3 32.35 2.8 33.35 4.05 33.55 4.35 34.05 5.65 34.1 5.7 34.35 7.85 Q34.35 9.35 33.85 10.65 L33.4 11.55 31.85 13.45 Q29.4 15.7 25.85 15.7 22.4 15.7 19.95 13.6 L19.9 13.55 21.9 11.7 22.15 11.95 23.25 12.8 Q24.65 13.7 26.5 13.7 29.0 13.7 30.85 11.95 32.65 10.2 32.65 7.75 32.65 5.55 31.2 3.95 L30.85 3.55 Q30.45 3.15 30.05 2.9 L31.55 2.05 M29.7 0.8 L28.0 2.0 27.85 1.95 26.5 1.8 Q24.55 1.8 23.1 2.8 L22.15 3.55 Q20.35 5.3 20.35 7.75 20.35 8.95 20.8 10.0 L20.9 10.25 18.75 11.8 18.5 12.0 17.75 10.5 Q17.3 9.25 17.3 7.85 L17.3 7.55 Q17.4 4.85 19.3 2.8 L19.8 2.3 19.9 2.2 Q22.35 0.0 25.85 0.0 27.95 0.0 29.7 0.8" fill="#999999" fill-rule="evenodd" stroke="none"/>
      <path d="M65.85 20.75 L66.2 22.4 Q65.05 23.0 64.7 23.0 64.15 23.0 63.75 22.25 L63.6 21.2 64.2 21.3 65.75 20.9 65.85 20.75 M49.5 1.65 Q48.7 2.05 48.0 2.7 L46.9 4.0 46.8 4.1 46.75 4.2 40.6 3.5 37.0 3.6 38.05 2.75 40.65 0.8 46.6 1.25 49.5 1.65 M40.4 5.85 Q38.65 6.25 38.15 7.25 37.75 7.95 37.7 8.6 L37.8 9.15 37.05 10.0 37.0 10.1 37.05 10.05 37.6 10.15 37.5 10.7 36.9 11.3 36.1 11.65 35.6 11.5 Q35.45 11.35 35.6 11.1 34.0 10.95 33.4 11.55 L33.85 10.65 Q36.3 6.15 40.4 5.85 M39.7 7.9 L40.2 6.95 41.05 5.9 Q45.5 6.8 45.95 10.8 L44.85 10.75 45.2 11.15 45.25 11.65 44.75 11.8 43.95 11.45 43.35 10.85 Q43.15 10.5 43.25 10.3 L43.55 10.2 Q42.15 8.0 40.6 7.85 L39.7 7.9 M37.65 0.7 L36.15 2.05 34.1 3.95 33.35 4.05 32.35 2.8 31.85 2.3 31.55 2.05 30.2 1.05 33.35 0.85 37.65 0.7 M4.8 24.6 L4.4 26.8 Q4.25 27.4 3.3 27.55 L1.55 27.4 0.95 27.15 1.0 27.1 3.05 25.2 3.75 25.3 4.8 24.6" fill="#574f46" fill-rule="evenodd" stroke="none"/>
      <path d="M59.55 2.9 L58.25 3.8 56.8 2.95 58.4 1.95 59.35 2.7 59.55 2.9 M49.95 11.5 L48.0 13.05 46.65 11.45 47.45 10.8 48.75 9.8 49.75 11.3 49.95 11.5 M31.55 2.05 L30.05 2.9 29.9 2.8 Q29.0 2.2 28.0 2.0 L29.7 0.8 30.2 1.05 31.55 2.05 M21.9 11.7 L19.9 13.55 19.8 13.45 18.5 12.0 18.75 11.8 20.9 10.25 21.9 11.7" fill="#bdbdbd" fill-rule="evenodd" stroke="none"/>
      <path d="M58.25 3.8 L58.5 4.0 59.5 5.2 53.0 13.15 Q51.35 12.8 50.1 11.65 L49.95 11.5 49.75 11.3 56.4 2.8 56.5 2.8 56.8 2.95 58.25 3.8 M30.05 2.9 Q30.45 3.15 30.85 3.55 L31.2 3.95 23.25 12.8 22.15 11.95 21.9 11.7 20.9 10.25 20.8 10.0 27.85 1.95 28.0 2.0 Q29.0 2.2 29.9 2.8 L30.05 2.9" fill="#ffffd5" fill-opacity="0.3019608" fill-rule="evenodd" stroke="none"/>
      <path d="M59.5 5.2 Q60.1 6.15 60.2 7.2 L60.25 7.85 Q60.25 10.1 58.5 11.65 56.75 13.25 54.3 13.25 L53.0 13.15 59.5 5.2 M48.75 9.8 Q48.35 8.9 48.35 7.85 48.35 5.6 50.1 4.0 51.0 3.2 52.15 2.8 L54.3 2.45 56.4 2.8 49.75 11.3 48.75 9.8 M31.2 3.95 Q32.65 5.55 32.65 7.75 32.65 10.2 30.85 11.95 29.0 13.7 26.5 13.7 24.65 13.7 23.25 12.8 L31.2 3.95 M20.8 10.0 Q20.35 8.95 20.35 7.75 20.35 5.3 22.15 3.55 L23.1 2.8 Q24.55 1.8 26.5 1.8 L27.85 1.95 20.8 10.0" fill="#a36800" fill-opacity="0.38039216" fill-rule="evenodd" stroke="none"/>
      <path d="M40.65 0.8 L38.05 2.75 37.0 3.6 34.1 3.95 36.15 2.05 37.65 0.7 40.6 0.8 40.65 0.8 M40.4 5.85 L40.6 5.85 41.0 5.9 41.05 5.9 40.2 6.95 39.7 7.9 Q38.75 8.15 37.8 9.15 L37.7 8.6 Q37.75 7.95 38.15 7.25 38.65 6.25 40.4 5.85 M0.95 27.15 L0.0 26.8 0.0 26.4 Q0.0 25.9 0.3 24.9 L0.95 23.05 Q0.85 24.0 1.35 24.9 L3.05 25.2 1.0 27.1 0.95 27.15" fill="#807467" fill-rule="evenodd" stroke="none"/>
      <path d="M61.7 7.65 L61.7 7.9 61.45 9.8 62.15 10.8 62.9 12.35 Q63.6 11.25 63.25 8.75 L62.75 6.4 61.05 4.95 59.55 2.9 59.35 2.7 58.4 1.95 Q56.35 0.55 53.65 0.55 51.35 0.55 49.5 1.65 48.7 2.05 48.0 2.7 L46.9 4.0 46.8 4.1 46.75 4.2 46.6 4.45 46.05 5.65 Q45.65 6.7 45.65 7.9 45.65 9.5 46.35 10.9 L46.45 11.1 46.55 11.3 46.65 11.45 48.0 13.05 Q50.35 15.2 53.65 15.2 57.0 15.2 59.35 13.05 60.55 11.95 61.15 10.65 L61.45 9.8 M61.7 7.65 Q61.65 6.2 61.05 4.95 M58.25 3.8 L58.5 4.0 59.5 5.2 Q60.1 6.15 60.2 7.2 L60.25 7.85 Q60.25 10.1 58.5 11.65 56.75 13.25 54.3 13.25 L53.0 13.15 Q51.35 12.8 50.1 11.65 L49.95 11.5 49.75 11.3 48.75 9.8 Q48.35 8.9 48.35 7.85 48.35 5.6 50.1 4.0 51.0 3.2 52.15 2.8 L54.3 2.45 56.4 2.8 56.5 2.8 56.8 2.95 58.25 3.8 M65.7 20.2 L65.65 19.8 Q65.1 19.0 64.8 17.65 L62.85 12.45 62.85 12.4 62.15 10.8 M63.6 21.2 L63.75 22.25 Q64.15 23.0 64.7 23.0 65.05 23.0 66.2 22.4 L65.85 20.75 65.75 20.2 65.65 19.8 M65.75 20.9 L64.2 21.3 63.6 21.2 63.3 18.9 63.15 17.9 Q62.5 14.35 61.15 10.65 M65.7 20.2 L65.75 20.9 M49.5 1.65 L46.6 1.25 40.65 0.8 40.6 0.8 37.65 0.7 33.35 0.85 30.2 1.05 31.55 2.05 31.85 2.3 32.35 2.8 33.35 4.05 34.1 3.95 37.0 3.6 40.6 3.5 46.75 4.2 M41.05 5.9 L41.0 5.9 40.6 5.85 40.4 5.85 Q36.3 6.15 33.85 10.65 34.35 9.35 34.35 7.85 L34.1 5.7 M37.8 9.15 Q38.75 8.15 39.7 7.9 L40.6 7.85 Q42.15 8.0 43.55 10.2 L43.25 10.3 Q43.15 10.5 43.35 10.85 L43.95 11.45 44.75 11.8 45.25 11.65 45.2 11.15 44.85 10.75 45.95 10.8 46.45 11.1 M41.05 5.9 Q45.5 6.8 45.95 10.8 L46.35 10.9 M30.05 2.9 Q30.45 3.15 30.85 3.55 L31.2 3.95 Q32.65 5.55 32.65 7.75 32.65 10.2 30.85 11.95 29.0 13.7 26.5 13.7 24.65 13.7 23.25 12.8 L22.15 11.95 21.9 11.7 20.9 10.25 20.8 10.0 Q20.35 8.95 20.35 7.75 20.35 5.3 22.15 3.55 L23.1 2.8 Q24.55 1.8 26.5 1.8 L27.85 1.95 28.0 2.0 Q29.0 2.2 29.9 2.8 L30.05 2.9 M19.9 13.55 L19.95 13.6 Q22.4 15.7 25.85 15.7 29.4 15.7 31.85 13.45 L33.4 11.55 33.85 10.65 M34.05 5.65 L33.55 4.35 33.35 4.05 M33.4 11.55 Q34.0 10.95 35.6 11.1 35.45 11.35 35.6 11.5 L36.1 11.65 36.9 11.3 37.5 10.7 37.6 10.15 37.05 10.05 37.0 10.1 37.05 10.0 37.8 9.15 M29.7 0.8 L30.2 1.05 M29.7 0.8 Q27.95 0.0 25.85 0.0 22.35 0.0 19.9 2.2 L19.8 2.3 19.3 2.8 Q17.4 4.85 17.3 7.55 L17.3 7.85 Q17.3 9.25 17.75 10.5 L18.5 12.0 19.8 13.45 19.9 13.55 M19.9 2.2 L19.8 2.25 17.05 2.8 Q11.45 4.3 7.0 8.05 13.3 5.9 17.1 5.35 M11.6 9.5 L11.5 9.4 11.3 8.9 11.5 8.35 12.05 8.15 12.55 8.35 12.8 8.9 12.75 9.15 12.55 9.4 12.05 9.65 11.6 9.5 M5.4 10.75 Q5.2 11.6 5.25 12.7 L5.25 13.45 7.4 12.85 Q13.15 11.2 16.65 10.65 L17.75 10.5 M8.4 9.25 L8.55 9.6 8.4 9.95 8.05 10.1 7.7 9.95 7.55 9.6 7.7 9.25 8.05 9.1 8.4 9.25 M5.4 10.75 Q5.75 9.15 6.7 8.3 L7.0 8.05 M7.05 15.8 L7.4 12.85 M7.0 16.25 L7.05 15.8 M7.0 16.25 L6.95 16.7 Q11.3 14.7 16.0 14.0 L19.8 13.6 19.95 13.6 M6.95 16.7 L5.95 22.5 4.8 24.6 4.4 26.8 Q4.25 27.4 3.3 27.55 L1.55 27.4 0.95 27.15 0.0 26.8 0.0 26.4 Q0.0 25.9 0.3 24.9 L0.95 23.05 1.05 22.6 1.3 21.7 5.25 12.7 M3.05 25.2 L3.75 25.3 4.8 24.6 M3.05 25.2 L1.35 24.9 Q0.85 24.0 0.95 23.05" fill="none" stroke="#000000" stroke-linecap="round" stroke-linejoin="round" stroke-opacity="0.6627451" stroke-width="1.0"/>
    </g>
    <g id="sprite1" transform="matrix(1.0, 0.0, 0.0, 1.0, 0.0, 0.0)">
      <use height="27.6" transform="matrix(1.0, 0.0, 0.0, 1.0, 0.0, 0.0)" width="66.2" xlink:href="#shape1"/>
    </g>
    <g id="shape1" transform="matrix(1.0, 0.0, 0.0, 1.0, 0.0, 0.0)">
      <path d="M63.25 8.75 L62.4 8.05 61.7 7.65 Q61.65 6.2 61.05 4.95 L62.75 6.4 63.25 8.75" fill="url(#gradient0)" fill-rule="evenodd" stroke="none"/>
      <path d="M17.8 5.2 Q17.35 6.3 17.3 7.55 L17.3 7.85 Q17.3 9.25 17.75 10.5 L16.65 10.65 Q13.15 11.2 7.4 12.85 L7.05 15.8 7.15 15.8 7.0 16.25 6.95 16.7 5.95 22.5 4.8 24.6 3.75 25.3 1.35 24.9 Q0.85 24.0 0.95 23.05 L1.05 22.6 1.3 21.7 5.25 12.7 Q5.2 11.6 5.4 10.75 5.75 9.15 6.7 8.3 L7.0 8.05 Q13.3 5.9 17.8 5.2" fill="url(#gradient1)" fill-rule="evenodd" stroke="none"/>
      <path d="M4.8 24.6 L4.4 26.8 Q4.25 27.4 3.3 27.55 L1.55 27.4 0.95 27.15 0.0 26.8 0.0 26.4 Q0.0 25.9 0.3 24.9 L0.95 23.05 Q0.85 24.0 1.35 24.9 L3.75 25.3 4.8 24.6" fill="url(#gradient2)" fill-rule="evenodd" stroke="none"/>
      <path d="M19.8 2.3 L19.3 2.8 Q18.25 3.9 17.8 5.2 13.3 5.9 7.0 8.05 11.45 4.3 17.05 2.8 L19.8 2.25 19.8 2.3" fill="url(#gradient3)" fill-rule="evenodd" stroke="none"/>
      <path d="M17.75 10.5 L18.5 12.0 19.8 13.45 19.8 13.6 16.0 14.0 Q11.3 14.7 6.95 16.7 L7.0 16.25 7.15 15.8 7.05 15.8 7.4 12.85 Q13.15 11.2 16.65 10.65 L17.75 10.5" fill="url(#gradient4)" fill-rule="evenodd" stroke="none"/>
      <path d="M61.7 7.65 L61.7 7.9 61.45 9.8 61.15 10.65 Q60.55 11.95 59.35 13.05 57.0 15.2 53.65 15.2 50.35 15.2 48.0 13.05 L46.65 11.45 46.55 11.3 46.45 11.1 46.35 10.9 Q45.65 9.5 45.65 7.9 45.65 6.7 46.05 5.65 L46.6 4.45 46.75 4.2 46.8 4.1 46.9 4.0 48.0 2.7 Q48.7 2.05 49.5 1.65 51.35 0.55 53.65 0.55 56.35 0.55 58.4 1.95 L59.35 2.7 59.55 2.9 61.05 4.95 Q61.65 6.2 61.7 7.65 M56.5 2.8 L56.4 2.8 54.3 2.45 52.15 2.8 Q51.0 3.2 50.1 4.0 48.35 5.6 48.35 7.85 48.35 8.9 48.75 9.8 L49.75 11.3 49.95 11.5 50.1 11.65 Q51.35 12.8 53.0 13.15 L54.3 13.25 Q56.75 13.25 58.5 11.65 60.25 10.1 60.25 7.85 L60.2 7.2 Q60.1 6.15 59.5 5.2 L58.5 4.0 58.25 3.8 56.8 2.95 56.5 2.8" fill="url(#gradient5)" fill-rule="evenodd" stroke="none"/>
      <path d="M33.85 10.65 L33.4 11.55 31.85 13.45 Q29.4 15.7 25.85 15.7 22.4 15.7 19.95 13.6 L19.9 13.55 19.8 13.45 18.5 12.0 17.75 10.5 Q17.3 9.25 17.3 7.85 L17.3 7.55 Q17.35 6.3 17.8 5.2 18.25 3.9 19.3 2.8 L19.8 2.3 19.9 2.2 Q22.35 0.0 25.85 0.0 27.95 0.0 29.7 0.8 L30.2 1.05 31.55 2.05 31.85 2.3 32.35 2.8 33.35 4.05 33.55 4.35 34.05 5.65 34.1 5.7 34.35 7.85 Q34.35 9.35 33.85 10.65 M31.2 3.95 L30.85 3.55 Q30.45 3.15 30.05 2.9 L29.9 2.8 Q29.0 2.2 28.0 2.0 L27.85 1.95 26.5 1.8 Q24.55 1.8 23.1 2.8 L22.15 3.55 Q20.35 5.3 20.35 7.75 20.35 8.95 20.8 10.0 L20.9 10.25 21.9 11.7 22.15 11.95 23.25 12.8 Q24.65 13.7 26.5 13.7 29.0 13.7 30.85 11.95 32.65 10.2 32.65 7.75 32.65 5.55 31.2 3.95" fill="url(#gradient6)" fill-rule="evenodd" stroke="none"/>
      <path d="M33.85 10.65 Q36.3 6.15 40.4 5.85 L40.6 5.85 41.0 5.9 41.05 5.9 Q45.5 6.8 45.95 10.8 L44.85 10.75 45.2 11.15 45.25 11.65 44.75 11.8 43.95 11.45 43.35 10.85 Q43.15 10.5 43.25 10.3 L43.55 10.2 Q42.15 8.0 40.6 7.85 L39.7 7.9 Q38.75 8.15 37.8 9.15 L37.05 10.0 37.0 10.1 37.05 10.05 37.6 10.15 37.5 10.7 36.9 11.3 36.1 11.65 35.6 11.5 Q35.45 11.35 35.6 11.1 34.0 10.95 33.4 11.55 L33.85 10.65" fill="url(#gradient7)" fill-rule="evenodd" stroke="none"/>
      <path d="M49.5 1.65 Q48.7 2.05 48.0 2.7 L46.9 4.0 46.8 4.1 46.75 4.2 40.6 3.5 37.0 3.6 34.1 3.95 33.35 4.05 32.35 2.8 31.85 2.3 31.55 2.05 30.2 1.05 33.35 0.85 37.65 0.7 40.6 0.8 40.65 0.8 46.6 1.25 49.5 1.65" fill="url(#gradient8)" fill-rule="evenodd" stroke="none"/>
      <path d="M46.75 4.2 L46.6 4.45 46.05 5.65 Q45.65 6.7 45.65 7.9 45.65 9.5 46.35 10.9 L45.95 10.8 Q45.5 6.8 41.05 5.9 L41.0 5.9 40.6 5.85 40.4 5.85 Q36.3 6.15 33.85 10.65 34.35 9.35 34.35 7.85 L34.1 5.7 34.05 5.65 33.55 4.35 33.35 4.05 34.1 3.95 37.0 3.6 40.6 3.5 46.75 4.2" fill="url(#gradient9)" fill-rule="evenodd" stroke="none"/>
      <path d="M61.7 7.65 L62.4 8.05 63.25 8.75 Q63.6 11.25 62.9 12.35 L62.15 10.8 61.45 9.8 61.7 7.9 61.7 7.65" fill="url(#gradient10)" fill-rule="evenodd" stroke="none"/>
      <path d="M61.45 9.8 L62.15 10.8 62.85 12.4 62.85 12.45 64.8 17.65 Q65.1 19.0 65.65 19.8 L65.7 20.2 65.75 20.9 64.2 21.3 63.6 21.2 63.3 18.9 63.15 17.9 Q62.5 14.35 61.15 10.65 L61.45 9.8" fill="url(#gradient11)" fill-rule="evenodd" stroke="none"/>
      <path d="M63.6 21.2 L64.2 21.3 65.75 20.9 65.85 20.75 66.2 22.4 Q65.05 23.0 64.7 23.0 64.15 23.0 63.75 22.25 L63.6 21.2" fill="url(#gradient12)" fill-rule="evenodd" stroke="none"/>
      <path d="M56.5 2.8 L56.8 2.95 58.25 3.8 58.5 4.0 59.5 5.2 Q60.1 6.15 60.2 7.2 L60.25 7.85 Q60.25 10.1 58.5 11.65 56.75 13.25 54.3 13.25 L53.0 13.15 Q51.35 12.8 50.1 11.65 L49.95 11.5 49.75 11.3 48.75 9.8 Q48.35 8.9 48.35 7.85 48.35 5.6 50.1 4.0 51.0 3.2 52.15 2.8 L54.3 2.45 56.4 2.8 56.5 2.8" fill="url(#gradient13)" fill-rule="evenodd" stroke="none"/>
      <path d="M31.2 3.95 Q32.65 5.55 32.65 7.75 32.65 10.2 30.85 11.95 29.0 13.7 26.5 13.7 24.65 13.7 23.25 12.8 L22.15 11.95 21.9 11.7 20.9 10.25 20.8 10.0 Q20.35 8.95 20.35 7.75 20.35 5.3 22.15 3.55 L23.1 2.8 Q24.55 1.8 26.5 1.8 L27.85 1.95 28.0 2.0 Q29.0 2.2 29.9 2.8 L30.05 2.9 Q30.45 3.15 30.85 3.55 L31.2 3.95" fill="url(#gradient14)" fill-rule="evenodd" stroke="none"/>
    </g>
    <linearGradient gradientTransform="matrix(0.0013, 0.0, 0.0, 0.0023, 62.15, 6.85)" gradientUnits="userSpaceOnUse" id="gradient0" spreadMethod="pad" x1="-819.2" x2="819.2">
      <stop offset="0.0" stop-color="#000000"/>
      <stop offset="1.0" stop-color="#ffffff"/>
    </linearGradient>
    <linearGradient gradientTransform="matrix(-0.0077, -0.0133, 0.0106, -0.0061, 9.35, 15.3)" gradientUnits="userSpaceOnUse" id="gradient1" spreadMethod="pad" x1="-819.2" x2="819.2">
      <stop offset="0.0" stop-color="#000000"/>
      <stop offset="1.0" stop-color="#ffffff"/>
    </linearGradient>
    <linearGradient gradientTransform="matrix(-0.0041, -0.0041, 0.002, -0.002, 2.4, 25.3)" gradientUnits="userSpaceOnUse" id="gradient2" spreadMethod="pad" x1="-819.2" x2="819.2">
      <stop offset="0.0" stop-color="#000000"/>
      <stop offset="1.0" stop-color="#ffffff"/>
    </linearGradient>
    <linearGradient gradientTransform="matrix(-0.0039, -0.0068, 0.0031, -0.0018, 13.4, 5.2)" gradientUnits="userSpaceOnUse" id="gradient3" spreadMethod="pad" x1="-819.2" x2="819.2">
      <stop offset="0.0" stop-color="#000000"/>
      <stop offset="1.0" stop-color="#ffffff"/>
    </linearGradient>
    <linearGradient gradientTransform="matrix(-0.002, -0.0076, 0.0037, -0.001, 13.35, 13.6)" gradientUnits="userSpaceOnUse" id="gradient4" spreadMethod="pad" x1="-819.2" x2="819.2">
      <stop offset="0.0" stop-color="#000000"/>
      <stop offset="1.0" stop-color="#ffffff"/>
    </linearGradient>
    <linearGradient gradientTransform="matrix(-0.0086, -0.0148, 0.0077, -0.0045, 53.65, 7.95)" gradientUnits="userSpaceOnUse" id="gradient5" spreadMethod="pad" x1="-819.2" x2="819.2">
      <stop offset="0.0" stop-color="#000000"/>
      <stop offset="1.0" stop-color="#ffffff"/>
    </linearGradient>
    <linearGradient gradientTransform="matrix(-0.005, -0.0185, 0.0093, -0.0025, 25.8, 7.85)" gradientUnits="userSpaceOnUse" id="gradient6" spreadMethod="pad" x1="-819.2" x2="819.2">
      <stop offset="0.0" stop-color="#000000"/>
      <stop offset="1.0" stop-color="#ffffff"/>
    </linearGradient>
    <linearGradient gradientTransform="matrix(0.0, -0.0077, 0.0036, 0.0, 39.6, 8.85)" gradientUnits="userSpaceOnUse" id="gradient7" spreadMethod="pad" x1="-819.2" x2="819.2">
      <stop offset="0.0" stop-color="#000000"/>
      <stop offset="1.0" stop-color="#ffffff"/>
    </linearGradient>
    <linearGradient gradientTransform="matrix(0.0, -0.0118, 0.0021, 0.0, 39.85, 2.45)" gradientUnits="userSpaceOnUse" id="gradient8" spreadMethod="pad" x1="-819.2" x2="819.2">
      <stop offset="0.0" stop-color="#000000"/>
      <stop offset="1.0" stop-color="#ffffff"/>
    </linearGradient>
    <linearGradient gradientTransform="matrix(0.0, -0.0082, 0.0045, 0.0, 40.05, 7.2)" gradientUnits="userSpaceOnUse" id="gradient9" spreadMethod="pad" x1="-819.2" x2="819.2">
      <stop offset="0.0" stop-color="#000000"/>
      <stop offset="1.0" stop-color="#ffffff"/>
    </linearGradient>
    <linearGradient gradientTransform="matrix(0.0033, -0.0058, 0.0025, 0.0014, 62.4, 10.0)" gradientUnits="userSpaceOnUse" id="gradient10" spreadMethod="pad" x1="-819.2" x2="819.2">
      <stop offset="0.0" stop-color="#000000"/>
      <stop offset="1.0" stop-color="#ffffff"/>
    </linearGradient>
    <linearGradient gradientTransform="matrix(0.0032, -0.012, 0.0068, 0.0018, 63.45, 15.55)" gradientUnits="userSpaceOnUse" id="gradient11" spreadMethod="pad" x1="-819.2" x2="819.2">
      <stop offset="0.0" stop-color="#000000"/>
      <stop offset="1.0" stop-color="#ffffff"/>
    </linearGradient>
    <linearGradient gradientTransform="matrix(0.0065, 0.0, 0.0, 0.0014, 64.9, 21.85)" gradientUnits="userSpaceOnUse" id="gradient12" spreadMethod="pad" x1="-819.2" x2="819.2">
      <stop offset="0.0" stop-color="#000000"/>
      <stop offset="1.0" stop-color="#ffffff"/>
    </linearGradient>
    <linearGradient gradientTransform="matrix(-0.0129, -0.0223, 0.0057, -0.0033, 50.95, 2.35)" gradientUnits="userSpaceOnUse" id="gradient13" spreadMethod="pad" x1="-819.2" x2="819.2">
      <stop offset="0.0" stop-color="#000000"/>
      <stop offset="1.0" stop-color="#ffffff"/>
    </linearGradient>
    <linearGradient gradientTransform="matrix(-0.0115, -0.0199, 0.0063, -0.0036, 23.75, 3.8)" gradientUnits="userSpaceOnUse" id="gradient14" spreadMethod="pad" x1="-819.2" x2="819.2">
      <stop offset="0.0" stop-color="#000000"/>
      <stop offset="1.0" stop-color="#ffffff"/>
    </linearGradient>
  </defs>
</svg>
