<?xml version="1.0" encoding="UTF-8" standalone="no"?>
<svg xmlns:xlink="http://www.w3.org/1999/xlink" height="531.5px" width="460.6px" xmlns="http://www.w3.org/2000/svg">
  <g transform="matrix(1.0, 0.0, 0.0, 1.0, 193.65, 334.05)">
    <use height="44.55" transform="matrix(2.0067, 0.0, 0.0, 2.0067, -93.6034, -65.1034)" width="87.1" xlink:href="#sprite0"/>
  </g>
  <defs>
    <g id="sprite0" transform="matrix(1.0, 0.0, 0.0, 1.0, 0.5, 0.5)">
      <use height="44.55" transform="matrix(1.0, 0.0, 0.0, 1.0, -0.5, -0.5)" width="87.1" xlink:href="#shape0"/>
      <use height="43.55" transform="matrix(1.0, 0.0, 0.0, 1.0, 0.0, 0.0)" width="86.1" xlink:href="#sprite1"/>
    </g>
    <g id="shape0" transform="matrix(1.0, 0.0, 0.0, 1.0, 0.5, 0.5)">
      <path d="M74.85 27.25 L75.95 25.75 80.0 26.3 79.55 27.7 82.6 27.3 81.9 28.75 86.1 28.95 82.85 30.25 74.85 27.25 M82.2 33.25 L83.6 36.35 80.7 34.25 80.5 35.7 78.35 33.1 77.95 34.7 74.3 32.55 74.65 30.25 75.85 30.7 74.3 29.9 74.35 28.75 74.35 28.3 81.9 31.45 83.6 33.75 80.65 31.9 80.65 32.65 80.05 32.4 80.65 32.65 80.6 32.9 80.05 32.4 80.6 32.9 80.65 32.65 82.2 33.25 M78.1 31.6 L78.05 31.85 75.85 30.7 78.05 31.85 78.1 31.6 80.05 32.4 78.25 30.75 78.1 31.6 M37.6 11.2 L37.15 12.1 31.15 6.2 31.05 5.85 30.35 3.45 32.5 6.35 32.8 5.6 30.45 3.35 30.2 0.0 32.15 3.05 32.85 1.85 34.0 5.1 34.95 3.75 37.7 7.2 36.55 9.15 35.9 8.55 34.9 7.4 34.85 7.55 33.05 5.8 32.85 5.45 32.8 5.6 33.05 5.8 34.35 8.35 34.85 7.55 35.9 8.55 36.5 9.2 37.8 10.7 37.6 11.2 M28.9 5.9 L35.35 11.8 33.75 12.7 30.15 10.55 31.05 9.5 28.0 8.55 29.15 7.6 25.35 5.7 28.9 5.9 M39.25 33.9 L40.1 35.45 37.85 39.0 36.8 38.05 35.8 41.0 34.9 39.85 32.9 43.55 33.2 40.05 39.25 33.9 M30.7 38.45 L27.25 38.45 30.35 36.6 29.15 35.85 32.4 34.85 31.1 33.85 34.65 31.2 36.65 32.6 35.7 33.5 33.75 35.1 33.95 35.25 33.75 35.1 35.7 33.5 37.15 32.3 37.6 32.55 38.5 33.0 32.45 38.8 30.95 39.2 29.7 39.5 32.65 37.5 32.0 37.2 32.4 36.75 32.0 37.2 31.75 37.05 32.4 36.75 34.7 35.7 34.6 35.65 33.95 35.25 32.4 36.75 31.75 37.05 32.0 37.2 30.7 38.45 M12.8 28.2 L13.1 29.95 9.8 32.55 9.1 31.3 7.2 33.8 6.7 32.35 3.55 35.25 5.05 32.0 12.8 28.2 M3.2 29.7 L0.0 28.6 3.5 27.85 2.6 26.7 6.05 26.9 5.15 25.5 9.3 24.2 10.8 26.1 9.8 26.55 11.3 26.0 12.05 26.8 12.35 27.1 4.75 30.55 3.9 30.5 1.95 30.35 5.35 29.35 4.85 28.9 5.55 28.6 4.85 28.9 4.6 28.65 5.55 28.6 4.6 28.65 4.85 28.9 3.2 29.7 M7.35 27.75 L7.15 27.5 9.8 26.55 7.15 27.5 7.35 27.75 5.55 28.6 7.85 28.4 7.35 27.75" fill="#0a4b4b" fill-rule="evenodd" stroke="none"/>
      <path d="M82.85 30.25 L85.45 31.2 83.1 31.95 84.35 34.1 83.6 33.8 83.6 33.75 81.9 31.45 74.35 28.3 74.35 28.75 66.45 25.85 Q66.55 25.0 67.45 24.45 L68.55 24.9 74.85 27.25 82.85 30.25 M42.75 16.4 L39.65 13.35 37.6 11.2 37.8 10.7 36.5 9.2 36.55 9.15 41.0 13.35 43.0 15.3 42.75 16.4 M31.05 5.85 L29.15 3.9 28.8 1.75 30.45 3.35 32.8 5.6 32.5 6.35 30.35 3.45 31.05 5.85 M30.2 39.9 L29.1 40.0 30.7 38.45 32.0 37.2 32.65 37.5 29.7 39.5 30.95 39.2 30.2 39.9 M36.65 32.6 L42.15 27.2 42.95 26.35 Q43.65 26.15 44.15 26.65 L42.55 28.05 38.75 31.35 37.6 32.55 37.15 32.3 35.7 33.5 36.65 32.6 M33.05 5.8 L34.85 7.55 34.35 8.35 33.05 5.8 M2.8 30.95 L1.15 30.65 3.2 29.7 4.85 28.9 5.35 29.35 1.95 30.35 3.9 30.5 2.8 30.95 M10.8 26.1 L17.85 22.75 18.85 22.25 Q19.8 22.85 20.05 23.7 L18.05 24.65 15.05 25.35 Q13.55 25.8 12.45 26.55 L12.05 26.8 11.3 26.0 9.8 26.55 10.8 26.1 M7.35 27.75 L7.85 28.4 5.55 28.6 7.35 27.75 M32.4 36.75 L33.95 35.25 34.6 35.65 34.7 35.7 32.4 36.75" fill="#4f2d17" fill-rule="evenodd" stroke="none"/>
      <path d="M83.6 33.8 L82.2 33.25 80.65 32.65 80.65 31.9 83.6 33.75 83.6 33.8 M74.65 30.25 L68.25 27.65 66.6 27.0 Q66.35 26.35 66.45 25.85 L74.35 28.75 74.3 29.9 75.85 30.7 74.65 30.25 M78.1 31.6 L78.25 30.75 80.05 32.4 78.1 31.6 M42.75 16.4 Q42.3 17.05 41.3 17.25 L40.1 16.15 35.35 11.8 28.9 5.9 26.75 3.9 29.2 4.2 29.15 3.9 31.05 5.85 31.15 6.2 37.15 12.1 37.6 11.2 39.65 13.35 42.75 16.4 M43.15 29.9 L39.25 33.9 33.2 40.05 31.1 42.15 31.45 39.7 30.2 39.9 30.95 39.2 32.45 38.8 38.5 33.0 37.6 32.55 38.75 31.35 42.55 28.05 44.15 26.65 Q44.6 27.05 44.9 28.1 L43.15 29.9 M18.5 25.4 L12.8 28.2 5.05 32.0 2.4 33.3 3.55 31.1 2.8 30.95 3.9 30.5 4.75 30.55 12.35 27.1 12.05 26.8 12.45 26.55 Q13.55 25.8 15.05 25.35 L18.05 24.65 20.05 23.7 20.05 24.6 18.5 25.4" fill="#2e160e" fill-rule="evenodd" stroke="none"/>
      <path d="M68.25 27.65 Q67.9 29.0 67.3 28.45 66.25 31.15 65.4 27.35 L65.1 25.3 Q65.05 23.05 66.3 22.05 67.3 19.75 67.75 22.1 68.75 21.85 68.55 24.9 L67.45 24.45 Q66.55 25.0 66.45 25.85 66.35 26.35 66.6 27.0 L68.25 27.65 M40.1 16.15 L41.3 17.25 Q42.3 17.05 42.75 16.4 L43.0 15.3 41.0 13.35 41.3 13.05 Q42.3 10.75 42.75 13.1 43.85 12.85 43.5 16.55 L43.5 16.9 Q43.2 20.25 42.3 19.45 41.25 22.15 40.4 18.35 40.1 17.15 40.1 16.15 M45.8 18.95 L46.15 18.85 46.5 18.95 46.65 19.3 46.5 19.6 46.15 19.75 45.8 19.6 45.65 19.3 45.8 18.95 M42.15 27.2 Q42.05 26.1 42.65 25.2 42.95 22.8 44.1 24.6 44.75 24.1 45.3 25.25 L45.9 27.1 Q46.8 30.4 45.6 30.15 45.4 33.0 43.35 30.2 L43.15 29.9 44.9 28.1 Q44.6 27.05 44.15 26.65 43.65 26.15 42.95 26.35 L42.15 27.2 M47.15 31.75 L47.25 31.1 Q47.4 30.85 47.6 30.85 L47.9 31.1 48.05 31.75 47.9 32.35 47.6 32.65 47.25 32.35 47.15 31.75 M20.5 16.45 Q20.5 15.95 20.65 15.6 20.8 15.25 21.0 15.25 L21.35 15.6 21.5 16.45 21.35 17.3 21.0 17.65 20.65 17.3 20.5 16.45 M17.85 22.75 Q17.85 21.65 18.35 20.7 18.65 17.85 19.75 19.85 20.75 18.85 21.5 22.65 L21.55 22.85 Q22.3 26.4 21.2 26.2 20.95 29.5 19.05 26.4 L18.5 25.4 20.05 24.6 20.05 23.7 Q19.8 22.85 18.85 22.25 L17.85 22.75 M24.15 26.05 L24.35 25.45 Q24.55 25.2 24.8 25.2 L25.25 25.45 25.45 26.05 25.25 26.65 24.8 26.9 Q24.55 26.9 24.35 26.65 L24.15 26.05" fill="#b30000" fill-rule="evenodd" stroke="none"/>
      <path d="M74.85 27.25 L75.95 25.75 80.0 26.3 79.55 27.7 82.6 27.3 81.9 28.75 86.1 28.95 82.85 30.25 85.45 31.2 83.1 31.95 84.35 34.1 83.6 33.8 82.2 33.25 83.6 36.35 80.7 34.25 80.5 35.7 78.35 33.1 77.95 34.7 74.3 32.55 74.65 30.25 68.25 27.65 Q67.9 29.0 67.3 28.45 66.25 31.15 65.4 27.35 L65.1 25.3 Q65.05 23.05 66.3 22.05 67.3 19.75 67.75 22.1 68.75 21.85 68.55 24.9 L74.85 27.25 82.85 30.25 M83.6 33.75 L81.9 31.45 74.35 28.3 74.35 28.75 74.3 29.9 75.85 30.7 78.05 31.85 78.1 31.6 78.25 30.75 80.05 32.4 80.65 32.65 80.65 31.9 83.6 33.75 M40.1 16.15 L41.3 17.25 Q42.3 17.05 42.75 16.4 L43.0 15.3 41.0 13.35 41.3 13.05 Q42.3 10.75 42.75 13.1 43.85 12.85 43.5 16.55 L43.5 16.9 Q43.2 20.25 42.3 19.45 41.25 22.15 40.4 18.35 40.1 17.15 40.1 16.15 L35.35 11.8 33.75 12.7 30.15 10.55 31.05 9.5 28.0 8.55 29.15 7.6 25.35 5.7 28.9 5.9 35.35 11.8 M37.6 11.2 L37.15 12.1 31.15 6.2 31.05 5.85 30.35 3.45 32.5 6.35 32.8 5.6 32.85 5.45 33.05 5.8 34.85 7.55 34.9 7.4 35.9 8.55 36.55 9.15 37.7 7.2 34.95 3.75 34.0 5.1 32.85 1.85 32.15 3.05 30.2 0.0 30.45 3.35 28.8 1.75 29.15 3.9 29.2 4.2 26.75 3.9 28.9 5.9 M42.15 27.2 Q42.05 26.1 42.65 25.2 42.95 22.8 44.1 24.6 44.75 24.1 45.3 25.25 L45.9 27.1 Q46.8 30.4 45.6 30.15 45.4 33.0 43.35 30.2 L43.15 29.9 39.25 33.9 40.1 35.45 37.85 39.0 36.8 38.05 35.8 41.0 34.9 39.85 32.9 43.55 33.2 40.05 31.1 42.15 31.45 39.7 30.2 39.9 29.1 40.0 30.7 38.45 27.25 38.45 30.35 36.6 29.15 35.85 32.4 34.85 31.1 33.85 34.65 31.2 36.65 32.6 42.15 27.2 42.95 26.35 Q43.65 26.15 44.15 26.65 44.6 27.05 44.9 28.1 L43.15 29.9 M37.6 32.55 L38.5 33.0 32.45 38.8 30.95 39.2 29.7 39.5 32.65 37.5 32.0 37.2 31.75 37.05 32.4 36.75 33.95 35.25 34.6 35.65 34.7 35.7 32.4 36.75 32.0 37.2 30.7 38.45 M74.65 30.25 L75.85 30.7 M80.05 32.4 L80.6 32.9 80.65 32.65 82.2 33.25 M78.1 31.6 L80.05 32.4 M66.45 25.85 Q66.35 26.35 66.6 27.0 L68.25 27.65 M68.55 24.9 L67.45 24.45 Q66.55 25.0 66.45 25.85 M30.45 3.35 L32.8 5.6 33.05 5.8 34.35 8.35 34.85 7.55 35.9 8.55 36.5 9.2 37.8 10.7 37.6 11.2 M36.55 9.15 L41.0 13.35 M20.5 16.45 Q20.5 15.95 20.65 15.6 20.8 15.25 21.0 15.25 L21.35 15.6 21.5 16.45 21.35 17.3 21.0 17.65 20.65 17.3 20.5 16.45 M17.85 22.75 Q17.85 21.65 18.35 20.7 18.65 17.85 19.75 19.85 20.75 18.85 21.5 22.65 L21.55 22.85 Q22.3 26.4 21.2 26.2 20.95 29.5 19.05 26.4 L18.5 25.4 12.8 28.2 13.1 29.95 9.8 32.55 9.1 31.3 7.2 33.8 6.7 32.35 3.55 35.25 5.05 32.0 2.4 33.3 3.55 31.1 2.8 30.95 1.15 30.65 3.2 29.7 0.0 28.6 3.5 27.85 2.6 26.7 6.05 26.9 5.15 25.5 9.3 24.2 10.8 26.1 17.85 22.75 18.85 22.25 Q19.8 22.85 20.05 23.7 L20.05 24.6 18.5 25.4 M12.05 26.8 L11.3 26.0 9.8 26.55 7.15 27.5 7.35 27.75 7.85 28.4 5.55 28.6 4.85 28.9 5.35 29.35 1.95 30.35 3.9 30.5 4.75 30.55 12.35 27.1 12.05 26.8 M7.35 27.75 L5.55 28.6 4.6 28.65 4.85 28.9 3.2 29.7 M5.05 32.0 L12.8 28.2 M10.8 26.1 L9.8 26.55 M33.95 35.25 L33.75 35.1 35.7 33.5 36.65 32.6 M37.6 32.55 L37.15 32.3 35.7 33.5 M24.15 26.05 L24.35 25.45 Q24.55 25.2 24.8 25.2 L25.25 25.45 25.45 26.05 25.25 26.65 24.8 26.9 Q24.55 26.9 24.35 26.65 L24.15 26.05 M33.2 40.05 L39.25 33.9" fill="none" stroke="#000000" stroke-linecap="round" stroke-linejoin="round" stroke-opacity="0.6627451" stroke-width="1.0"/>
      <path d="M45.8 18.95 L46.15 18.85 46.5 18.95 46.65 19.3 46.5 19.6 46.15 19.75 45.8 19.6 45.65 19.3 45.8 18.95 M47.15 31.75 L47.25 31.1 Q47.4 30.85 47.6 30.85 L47.9 31.1 48.05 31.75 47.9 32.35 47.6 32.65 47.25 32.35 47.15 31.75" fill="none" stroke="#000000" stroke-linecap="round" stroke-linejoin="round" stroke-opacity="0.6627451" stroke-width="0.8"/>
      <path d="M66.05 32.35 L66.0 32.05 66.05 31.7 Q66.1 31.6 66.2 31.6 L66.35 31.7 66.4 32.05 66.35 32.35 66.2 32.5 66.05 32.35" fill="none" stroke="#000000" stroke-linecap="round" stroke-linejoin="round" stroke-opacity="0.6627451" stroke-width="0.4"/>
      <path d="M74.85 27.25 L75.95 25.75 80.0 26.3 79.55 27.7 82.6 27.3 81.9 28.75 86.1 28.95 82.85 30.25 74.85 27.25 M82.2 33.25 L83.6 36.35 80.7 34.25 80.5 35.7 78.35 33.1 77.95 34.7 74.3 32.55 74.65 30.25 75.85 30.7 74.3 29.9 74.35 28.75 74.35 28.3 81.9 31.45 83.6 33.75 80.65 31.9 80.65 32.65 80.05 32.4 80.65 32.65 80.6 32.9 80.05 32.4 80.6 32.9 80.65 32.65 82.2 33.25 M78.1 31.6 L78.05 31.85 75.85 30.7 78.05 31.85 78.1 31.6 80.05 32.4 78.25 30.75 78.1 31.6 M37.6 11.2 L37.15 12.1 31.15 6.2 31.05 5.85 30.35 3.45 32.5 6.35 32.8 5.6 30.45 3.35 30.2 0.0 32.15 3.05 32.85 1.85 34.0 5.1 34.95 3.75 37.7 7.2 36.55 9.15 35.9 8.55 34.9 7.4 34.85 7.55 33.05 5.8 32.85 5.45 32.8 5.6 33.05 5.8 34.35 8.35 34.85 7.55 35.9 8.55 36.5 9.2 37.8 10.7 37.6 11.2 M28.9 5.9 L35.35 11.8 33.75 12.7 30.15 10.55 31.05 9.5 28.0 8.55 29.15 7.6 25.35 5.7 28.9 5.9 M39.25 33.9 L40.1 35.45 37.85 39.0 36.8 38.05 35.8 41.0 34.9 39.85 32.9 43.55 33.2 40.05 39.25 33.9 M30.7 38.45 L27.25 38.45 30.35 36.6 29.15 35.85 32.4 34.85 31.1 33.85 34.65 31.2 36.65 32.6 35.7 33.5 33.75 35.1 33.95 35.25 33.75 35.1 35.7 33.5 37.15 32.3 37.6 32.55 38.5 33.0 32.45 38.8 30.95 39.2 29.7 39.5 32.65 37.5 32.0 37.2 32.4 36.75 32.0 37.2 31.75 37.05 32.4 36.75 34.7 35.7 34.6 35.65 33.95 35.25 32.4 36.75 31.75 37.05 32.0 37.2 30.7 38.45 M12.8 28.2 L13.1 29.95 9.8 32.55 9.1 31.3 7.2 33.8 6.7 32.35 3.55 35.25 5.05 32.0 12.8 28.2 M3.2 29.7 L0.0 28.6 3.5 27.85 2.6 26.7 6.05 26.9 5.15 25.5 9.3 24.2 10.8 26.1 9.8 26.55 11.3 26.0 12.05 26.8 12.35 27.1 4.75 30.55 3.9 30.5 1.95 30.35 5.35 29.35 4.85 28.9 5.55 28.6 4.85 28.9 4.6 28.65 5.55 28.6 4.6 28.65 4.85 28.9 3.2 29.7 M7.35 27.75 L7.15 27.5 9.8 26.55 7.15 27.5 7.35 27.75 5.55 28.6 7.85 28.4 7.35 27.75" fill="#0a4b4b" fill-rule="evenodd" stroke="none"/>
      <path d="M82.85 30.25 L85.45 31.2 83.1 31.95 84.35 34.1 83.6 33.8 83.6 33.75 81.9 31.45 74.35 28.3 74.35 28.75 66.45 25.85 Q66.55 25.0 67.45 24.45 L68.55 24.9 74.85 27.25 82.85 30.25 M42.75 16.4 L39.65 13.35 37.6 11.2 37.8 10.7 36.5 9.2 36.55 9.15 41.0 13.35 43.0 15.3 42.75 16.4 M31.05 5.85 L29.15 3.9 28.8 1.75 30.45 3.35 32.8 5.6 32.5 6.35 30.35 3.45 31.05 5.85 M30.2 39.9 L29.1 40.0 30.7 38.45 32.0 37.2 32.65 37.5 29.7 39.5 30.95 39.2 30.2 39.9 M36.65 32.6 L42.15 27.2 42.95 26.35 Q43.65 26.15 44.15 26.65 L42.55 28.05 38.75 31.35 37.6 32.55 37.15 32.3 35.7 33.5 36.65 32.6 M33.05 5.8 L34.85 7.55 34.35 8.35 33.05 5.8 M2.8 30.95 L1.15 30.65 3.2 29.7 4.85 28.9 5.35 29.35 1.95 30.35 3.9 30.5 2.8 30.95 M10.8 26.1 L17.85 22.75 18.85 22.25 Q19.8 22.85 20.05 23.7 L18.05 24.65 15.05 25.35 Q13.55 25.8 12.45 26.55 L12.05 26.8 11.3 26.0 9.8 26.55 10.8 26.1 M7.35 27.75 L7.85 28.4 5.55 28.6 7.35 27.75 M32.4 36.75 L33.95 35.25 34.6 35.65 34.7 35.7 32.4 36.75" fill="#4f2d17" fill-rule="evenodd" stroke="none"/>
      <path d="M83.6 33.8 L82.2 33.25 80.65 32.65 80.65 31.9 83.6 33.75 83.6 33.8 M74.65 30.25 L68.25 27.65 66.6 27.0 Q66.35 26.35 66.45 25.85 L74.35 28.75 74.3 29.9 75.85 30.7 74.65 30.25 M78.1 31.6 L78.25 30.75 80.05 32.4 78.1 31.6 M42.75 16.4 Q42.3 17.05 41.3 17.25 L40.1 16.15 35.35 11.8 28.9 5.9 26.75 3.9 29.2 4.2 29.15 3.9 31.05 5.85 31.15 6.2 37.15 12.1 37.6 11.2 39.65 13.35 42.75 16.4 M43.15 29.9 L39.25 33.9 33.2 40.05 31.1 42.15 31.45 39.7 30.2 39.9 30.95 39.2 32.45 38.8 38.5 33.0 37.6 32.55 38.75 31.35 42.55 28.05 44.15 26.65 Q44.6 27.05 44.9 28.1 L43.15 29.9 M18.5 25.4 L12.8 28.2 5.05 32.0 2.4 33.3 3.55 31.1 2.8 30.95 3.9 30.5 4.75 30.55 12.35 27.1 12.05 26.8 12.45 26.55 Q13.55 25.8 15.05 25.35 L18.05 24.65 20.05 23.7 20.05 24.6 18.5 25.4" fill="#2e160e" fill-rule="evenodd" stroke="none"/>
      <path d="M68.25 27.65 Q67.9 29.0 67.3 28.45 66.25 31.15 65.4 27.35 L65.1 25.3 Q65.05 23.05 66.3 22.05 67.3 19.75 67.75 22.1 68.75 21.85 68.55 24.9 L67.45 24.45 Q66.55 25.0 66.45 25.85 66.35 26.35 66.6 27.0 L68.25 27.65 M40.1 16.15 L41.3 17.25 Q42.3 17.05 42.75 16.4 L43.0 15.3 41.0 13.35 41.3 13.05 Q42.3 10.75 42.75 13.1 43.85 12.85 43.5 16.55 L43.5 16.9 Q43.2 20.25 42.3 19.45 41.25 22.15 40.4 18.35 40.1 17.15 40.1 16.15 M45.8 18.95 L46.15 18.85 46.5 18.95 46.65 19.3 46.5 19.6 46.15 19.75 45.8 19.6 45.65 19.3 45.8 18.95 M42.15 27.2 Q42.05 26.1 42.65 25.2 42.95 22.8 44.1 24.6 44.75 24.1 45.3 25.25 L45.9 27.1 Q46.8 30.4 45.6 30.15 45.4 33.0 43.35 30.2 L43.15 29.9 44.9 28.1 Q44.6 27.05 44.15 26.65 43.65 26.15 42.95 26.35 L42.15 27.2 M47.15 31.75 L47.25 31.1 Q47.4 30.85 47.6 30.85 L47.9 31.1 48.05 31.75 47.9 32.35 47.6 32.65 47.25 32.35 47.15 31.75 M20.5 16.45 Q20.5 15.95 20.65 15.6 20.8 15.25 21.0 15.25 L21.35 15.6 21.5 16.45 21.35 17.3 21.0 17.65 20.65 17.3 20.5 16.45 M17.85 22.75 Q17.85 21.65 18.35 20.7 18.65 17.85 19.75 19.85 20.75 18.85 21.5 22.65 L21.55 22.85 Q22.3 26.4 21.2 26.2 20.95 29.5 19.05 26.4 L18.5 25.4 20.05 24.6 20.05 23.7 Q19.8 22.85 18.85 22.25 L17.85 22.75 M24.15 26.05 L24.35 25.45 Q24.55 25.2 24.8 25.2 L25.25 25.45 25.45 26.05 25.25 26.65 24.8 26.9 Q24.55 26.9 24.35 26.65 L24.15 26.05" fill="#b30000" fill-rule="evenodd" stroke="none"/>
      <path d="M74.85 27.25 L75.95 25.75 80.0 26.3 79.55 27.7 82.6 27.3 81.9 28.75 86.1 28.95 82.85 30.25 85.45 31.2 83.1 31.95 84.35 34.1 83.6 33.8 82.2 33.25 83.6 36.35 80.7 34.25 80.5 35.7 78.35 33.1 77.95 34.7 74.3 32.55 74.65 30.25 68.25 27.65 Q67.9 29.0 67.3 28.45 66.25 31.15 65.4 27.35 L65.1 25.3 Q65.05 23.05 66.3 22.05 67.3 19.75 67.75 22.1 68.75 21.85 68.55 24.9 L74.85 27.25 82.85 30.25 M83.6 33.75 L81.9 31.45 74.35 28.3 74.35 28.75 74.3 29.9 75.85 30.7 78.05 31.85 78.1 31.6 78.25 30.75 80.05 32.4 80.65 32.65 80.65 31.9 83.6 33.75 M40.1 16.15 L41.3 17.25 Q42.3 17.05 42.75 16.4 L43.0 15.3 41.0 13.35 41.3 13.05 Q42.3 10.75 42.75 13.1 43.85 12.85 43.5 16.55 L43.5 16.9 Q43.2 20.25 42.3 19.45 41.25 22.15 40.4 18.35 40.1 17.15 40.1 16.15 L35.35 11.8 33.75 12.7 30.15 10.55 31.05 9.5 28.0 8.55 29.15 7.6 25.35 5.7 28.9 5.9 35.35 11.8 M37.6 11.2 L37.15 12.1 31.15 6.2 31.05 5.85 30.35 3.45 32.5 6.35 32.8 5.6 32.85 5.45 33.05 5.8 34.85 7.55 34.9 7.4 35.9 8.55 36.55 9.15 37.7 7.2 34.95 3.75 34.0 5.1 32.85 1.85 32.15 3.05 30.2 0.0 30.45 3.35 28.8 1.75 29.15 3.9 29.2 4.2 26.75 3.9 28.9 5.9 M42.15 27.2 Q42.05 26.1 42.65 25.2 42.95 22.8 44.1 24.6 44.75 24.1 45.3 25.25 L45.9 27.1 Q46.8 30.4 45.6 30.15 45.4 33.0 43.35 30.2 L43.15 29.9 39.25 33.9 40.1 35.45 37.85 39.0 36.8 38.05 35.8 41.0 34.9 39.85 32.9 43.55 33.2 40.05 31.1 42.15 31.45 39.7 30.2 39.9 29.1 40.0 30.7 38.45 27.25 38.45 30.35 36.6 29.15 35.85 32.4 34.85 31.1 33.85 34.65 31.2 36.65 32.6 42.15 27.2 42.95 26.35 Q43.65 26.15 44.15 26.65 44.6 27.05 44.9 28.1 L43.15 29.9 M37.6 32.55 L38.5 33.0 32.45 38.8 30.95 39.2 29.7 39.5 32.65 37.5 32.0 37.2 31.75 37.05 32.4 36.75 33.95 35.25 34.6 35.65 34.7 35.7 32.4 36.75 32.0 37.2 30.7 38.45 M74.65 30.25 L75.85 30.7 M80.05 32.4 L80.6 32.9 80.65 32.65 82.2 33.25 M78.1 31.6 L80.05 32.4 M66.45 25.85 Q66.35 26.35 66.6 27.0 L68.25 27.65 M68.55 24.9 L67.45 24.45 Q66.55 25.0 66.45 25.85 M30.45 3.35 L32.8 5.6 33.05 5.8 34.35 8.35 34.85 7.55 35.9 8.55 36.5 9.2 37.8 10.7 37.6 11.2 M36.55 9.15 L41.0 13.35 M20.5 16.45 Q20.5 15.95 20.65 15.6 20.8 15.25 21.0 15.25 L21.35 15.6 21.5 16.45 21.35 17.3 21.0 17.65 20.65 17.3 20.5 16.45 M17.85 22.75 Q17.85 21.65 18.35 20.7 18.65 17.85 19.75 19.85 20.75 18.85 21.5 22.65 L21.55 22.85 Q22.3 26.4 21.2 26.2 20.95 29.5 19.05 26.4 L18.5 25.4 12.8 28.2 13.1 29.95 9.8 32.55 9.1 31.3 7.2 33.8 6.7 32.35 3.55 35.25 5.05 32.0 2.4 33.3 3.55 31.1 2.8 30.95 1.15 30.65 3.2 29.7 0.0 28.6 3.5 27.85 2.6 26.7 6.05 26.9 5.15 25.5 9.3 24.2 10.8 26.1 17.85 22.75 18.85 22.25 Q19.8 22.85 20.05 23.7 L20.05 24.6 18.5 25.4 M12.05 26.8 L11.3 26.0 9.8 26.55 7.15 27.5 7.35 27.75 7.85 28.4 5.55 28.6 4.85 28.9 5.35 29.35 1.95 30.35 3.9 30.5 4.75 30.55 12.35 27.1 12.05 26.8 M7.35 27.75 L5.55 28.6 4.6 28.65 4.85 28.9 3.2 29.7 M5.05 32.0 L12.8 28.2 M10.8 26.1 L9.8 26.55 M33.95 35.25 L33.75 35.1 35.7 33.5 36.65 32.6 M37.6 32.55 L37.15 32.3 35.7 33.5 M24.15 26.05 L24.35 25.45 Q24.55 25.2 24.8 25.2 L25.25 25.45 25.45 26.05 25.25 26.65 24.8 26.9 Q24.55 26.9 24.35 26.65 L24.15 26.05 M33.2 40.05 L39.25 33.9" fill="none" stroke="#000000" stroke-linecap="round" stroke-linejoin="round" stroke-opacity="0.6627451" stroke-width="1.0"/>
      <path d="M45.8 18.95 L46.15 18.85 46.5 18.95 46.65 19.3 46.5 19.6 46.15 19.75 45.8 19.6 45.65 19.3 45.8 18.95 M47.15 31.75 L47.25 31.1 Q47.4 30.85 47.6 30.85 L47.9 31.1 48.05 31.75 47.9 32.35 47.6 32.65 47.25 32.35 47.15 31.75" fill="none" stroke="#000000" stroke-linecap="round" stroke-linejoin="round" stroke-opacity="0.6627451" stroke-width="0.8"/>
      <path d="M66.05 32.35 L66.0 32.05 66.05 31.7 Q66.1 31.6 66.2 31.6 L66.35 31.7 66.4 32.05 66.35 32.35 66.2 32.5 66.05 32.35" fill="none" stroke="#000000" stroke-linecap="round" stroke-linejoin="round" stroke-opacity="0.6627451" stroke-width="0.4"/>
    </g>
    <g id="sprite1" transform="matrix(1.0, 0.0, 0.0, 1.0, 0.0, 0.0)">
      <use height="43.55" transform="matrix(1.0, 0.0, 0.0, 1.0, 0.0, 0.0)" width="86.1" xlink:href="#shape1"/>
    </g>
    <g id="shape1" transform="matrix(1.0, 0.0, 0.0, 1.0, 0.0, 0.0)">
      <path d="M83.6 33.75 L83.6 33.8 83.6 33.75" fill="url(#gradient0)" fill-rule="evenodd" stroke="none"/>
      <path d="M34.35 8.35 L33.05 5.8 34.85 7.55 34.35 8.35" fill="url(#gradient1)" fill-rule="evenodd" stroke="none"/>
      <path d="M41.0 13.35 L43.0 15.3 42.75 16.4 Q42.3 17.05 41.3 17.25 L40.1 16.15 35.35 11.8 28.9 5.9 26.75 3.9 29.2 4.2 28.8 1.75 30.45 3.35 32.8 5.6 32.5 6.35 30.35 3.45 31.15 6.2 37.15 12.1 37.8 10.7 36.5 9.2 36.55 9.15 41.0 13.35" fill="url(#gradient2)" fill-rule="evenodd" stroke="none"/>
      <path d="M36.5 9.2 L37.8 10.7 37.15 12.1 31.15 6.2 30.35 3.45 32.5 6.35 32.8 5.6 30.45 3.35 30.2 0.0 32.15 3.05 32.85 1.85 34.0 5.1 34.95 3.75 37.7 7.2 36.55 9.15 35.9 8.55 36.5 9.2 M34.35 8.35 L34.85 7.55 33.05 5.8 34.35 8.35" fill="url(#gradient3)" fill-rule="evenodd" stroke="none"/>
      <path d="M28.9 5.9 L35.35 11.8 33.75 12.7 30.15 10.55 31.05 9.5 28.0 8.55 29.15 7.6 25.35 5.7 28.9 5.9" fill="url(#gradient4)" fill-rule="evenodd" stroke="none"/>
      <path d="M40.1 16.15 L41.3 17.25 Q42.3 17.05 42.75 16.4 L43.0 15.3 41.0 13.35 41.3 13.05 Q42.3 10.75 42.75 13.1 43.85 12.85 43.5 16.55 L43.5 16.9 Q43.2 20.25 42.3 19.45 41.25 22.15 40.4 18.35 40.1 17.15 40.1 16.15" fill="url(#gradient5)" fill-rule="evenodd" stroke="none"/>
      <path d="M46.5 18.95 L46.65 19.3 46.5 19.6 46.15 19.75 45.8 19.6 45.65 19.3 45.8 18.95 46.15 18.85 46.5 18.95" fill="url(#gradient6)" fill-rule="evenodd" stroke="none"/>
      <path d="M20.65 15.6 Q20.8 15.25 21.0 15.25 L21.35 15.6 21.5 16.45 21.35 17.3 21.0 17.65 20.65 17.3 20.5 16.45 Q20.5 15.95 20.65 15.6" fill="url(#gradient7)" fill-rule="evenodd" stroke="none"/>
      <path d="M25.25 25.45 L25.45 26.05 25.25 26.65 24.8 26.9 Q24.55 26.9 24.35 26.65 L24.15 26.05 24.35 25.45 Q24.55 25.2 24.8 25.2 L25.25 25.45" fill="url(#gradient8)" fill-rule="evenodd" stroke="none"/>
      <path d="M47.9 32.35 L47.6 32.65 47.25 32.35 47.15 31.75 47.25 31.1 Q47.4 30.85 47.6 30.85 L47.9 31.1 48.05 31.75 47.9 32.35" fill="url(#gradient9)" fill-rule="evenodd" stroke="none"/>
      <path d="M68.25 27.65 Q67.9 29.0 67.3 28.45 66.25 31.15 65.4 27.35 L65.1 25.3 Q65.05 23.05 66.3 22.05 67.3 19.75 67.75 22.1 68.75 21.85 68.55 24.9 L67.45 24.45 Q66.55 25.0 66.45 25.85 66.35 26.35 66.6 27.0 L68.25 27.65" fill="url(#gradient10)" fill-rule="evenodd" stroke="none"/>
      <path d="M42.15 27.2 Q42.05 26.1 42.65 25.2 42.95 22.8 44.1 24.6 44.75 24.1 45.3 25.25 L45.9 27.1 46.25 28.75 Q46.45 30.35 45.6 30.15 45.4 33.0 43.35 30.2 L43.15 29.9 44.9 28.1 Q44.6 27.05 44.15 26.65 43.65 26.15 42.95 26.35 L42.15 27.2" fill="url(#gradient11)" fill-rule="evenodd" stroke="none"/>
      <path d="M17.85 22.75 Q17.85 21.65 18.35 20.7 18.65 17.85 19.75 19.85 20.75 18.85 21.5 22.65 L21.55 22.85 21.65 23.35 Q22.05 25.55 21.65 26.05 L21.2 26.2 Q20.95 29.5 19.05 26.4 L18.5 25.4 20.05 24.6 20.05 23.7 Q19.8 22.85 18.85 22.25 L17.85 22.75" fill="url(#gradient12)" fill-rule="evenodd" stroke="none"/>
      <path d="M3.2 29.7 L0.0 28.6 3.5 27.85 2.6 26.7 6.05 26.9 5.15 25.5 9.3 24.2 10.8 26.1 9.8 26.55 11.3 26.0 12.35 27.1 4.75 30.55 1.95 30.35 5.35 29.35 4.85 28.9 3.2 29.7 M7.85 28.4 L7.35 27.75 5.55 28.6 7.85 28.4" fill="url(#gradient13)" fill-rule="evenodd" stroke="none"/>
      <path d="M12.8 28.2 L13.1 29.95 9.8 32.55 9.1 31.3 7.2 33.8 6.7 32.35 3.55 35.25 5.05 32.0 12.8 28.2" fill="url(#gradient14)" fill-rule="evenodd" stroke="none"/>
      <path d="M7.85 28.4 L5.55 28.6 7.35 27.75 7.85 28.4" fill="url(#gradient15)" fill-rule="evenodd" stroke="none"/>
      <path d="M18.5 25.4 L12.8 28.2 5.05 32.0 2.4 33.3 3.55 31.1 1.15 30.65 3.2 29.7 4.85 28.9 5.35 29.35 1.95 30.35 4.75 30.55 12.35 27.1 11.3 26.0 9.8 26.55 10.8 26.1 17.85 22.75 18.85 22.25 Q19.8 22.85 20.05 23.7 L20.05 24.6 18.5 25.4" fill="url(#gradient16)" fill-rule="evenodd" stroke="none"/>
      <path d="M43.15 29.9 L39.25 33.9 33.2 40.05 31.1 42.15 31.45 39.7 29.1 40.0 30.7 38.45 32.0 37.2 32.65 37.5 29.7 39.5 32.45 38.8 38.5 33.0 37.15 32.3 35.7 33.5 36.65 32.6 42.15 27.2 42.95 26.35 Q43.65 26.15 44.15 26.65 44.6 27.05 44.9 28.1 L43.15 29.9" fill="url(#gradient17)" fill-rule="evenodd" stroke="none"/>
      <path d="M30.7 38.45 L27.25 38.45 30.35 36.6 29.15 35.85 32.4 34.85 31.1 33.85 34.65 31.2 36.65 32.6 35.7 33.5 37.15 32.3 38.5 33.0 32.45 38.8 29.7 39.5 32.65 37.5 32.0 37.2 30.7 38.45 M32.4 36.75 L34.7 35.7 34.6 35.65 33.95 35.25 32.4 36.75" fill="url(#gradient18)" fill-rule="evenodd" stroke="none"/>
      <path d="M32.4 36.75 L33.95 35.25 34.6 35.65 34.7 35.7 32.4 36.75" fill="url(#gradient19)" fill-rule="evenodd" stroke="none"/>
      <path d="M39.25 33.9 L40.1 35.45 37.85 39.0 36.8 38.05 35.8 41.0 34.9 39.85 32.9 43.55 33.2 40.05 39.25 33.9" fill="url(#gradient20)" fill-rule="evenodd" stroke="none"/>
      <path d="M74.85 27.25 L75.95 25.75 80.0 26.3 79.55 27.7 82.6 27.3 81.9 28.75 86.1 28.95 82.85 30.25 74.85 27.25" fill="url(#gradient21)" fill-rule="evenodd" stroke="none"/>
      <path d="M82.2 33.25 L83.6 36.35 80.7 34.25 80.5 35.7 78.35 33.1 77.95 34.7 74.3 32.55 74.65 30.25 75.85 30.7 74.3 29.9 74.35 28.3 81.9 31.45 83.6 33.75 80.65 31.9 80.65 32.65 82.2 33.25 M80.05 32.4 L78.25 30.75 78.1 31.6 80.05 32.4" fill="url(#gradient22)" fill-rule="evenodd" stroke="none"/>
      <path d="M82.85 30.25 L85.45 31.2 83.1 31.95 84.35 34.1 83.6 33.8 83.6 33.75 81.9 31.45 74.35 28.3 74.3 29.9 75.85 30.7 74.65 30.25 68.25 27.65 66.6 27.0 Q66.35 26.35 66.45 25.85 66.55 25.0 67.45 24.45 L68.55 24.9 74.85 27.25 82.85 30.25" fill="url(#gradient23)" fill-rule="evenodd" stroke="none"/>
      <path d="M80.05 32.4 L78.1 31.6 78.25 30.75 80.05 32.4" fill="url(#gradient24)" fill-rule="evenodd" stroke="none"/>
      <path d="M83.6 33.8 L82.2 33.25 80.65 32.65 80.65 31.9 83.6 33.75 83.6 33.8" fill="url(#gradient25)" fill-rule="evenodd" stroke="none"/>
    </g>
    <linearGradient gradientTransform="matrix(0.0, 0.0, 0.0, 0.0, 83.6, 33.75)" gradientUnits="userSpaceOnUse" id="gradient0" spreadMethod="pad" x1="-819.2" x2="819.2">
      <stop offset="0.0" stop-color="#000000"/>
      <stop offset="1.0" stop-color="#ffffff"/>
    </linearGradient>
    <linearGradient gradientTransform="matrix(0.0052, 0.0, 0.0, 0.0016, 33.95, 7.05)" gradientUnits="userSpaceOnUse" id="gradient1" spreadMethod="pad" x1="-819.2" x2="819.2">
      <stop offset="0.0" stop-color="#000000"/>
      <stop offset="1.0" stop-color="#ffffff"/>
    </linearGradient>
    <linearGradient gradientTransform="matrix(-0.0115, -0.02, 0.0082, -0.0047, 34.9, 9.5)" gradientUnits="userSpaceOnUse" id="gradient2" spreadMethod="pad" x1="-819.2" x2="819.2">
      <stop offset="0.0" stop-color="#000000"/>
      <stop offset="1.0" stop-color="#ffffff"/>
    </linearGradient>
    <linearGradient gradientTransform="matrix(-0.0037, -0.0137, 0.0071, -0.0019, 34.0, 6.05)" gradientUnits="userSpaceOnUse" id="gradient3" spreadMethod="pad" x1="-819.2" x2="819.2">
      <stop offset="0.0" stop-color="#000000"/>
      <stop offset="1.0" stop-color="#ffffff"/>
    </linearGradient>
    <linearGradient gradientTransform="matrix(-0.0136, -0.0136, 0.003, -0.003, 30.35, 9.2)" gradientUnits="userSpaceOnUse" id="gradient4" spreadMethod="pad" x1="-819.2" x2="819.2">
      <stop offset="0.0" stop-color="#000000"/>
      <stop offset="1.0" stop-color="#ffffff"/>
    </linearGradient>
    <linearGradient gradientTransform="matrix(0.0042, -0.0042, 0.0037, 0.0037, 41.8, 16.2)" gradientUnits="userSpaceOnUse" id="gradient5" spreadMethod="pad" x1="-819.2" x2="819.2">
      <stop offset="0.0" stop-color="#000000"/>
      <stop offset="1.0" stop-color="#ffffff"/>
    </linearGradient>
    <linearGradient gradientTransform="matrix(0.0059, 0.0, 0.0, 5.0E-4, 46.15, 19.3)" gradientUnits="userSpaceOnUse" id="gradient6" spreadMethod="pad" x1="-819.2" x2="819.2">
      <stop offset="0.0" stop-color="#000000"/>
      <stop offset="1.0" stop-color="#ffffff"/>
    </linearGradient>
    <linearGradient gradientTransform="matrix(0.0077, 0.0, 0.0, 0.0015, 21.0, 16.45)" gradientUnits="userSpaceOnUse" id="gradient7" spreadMethod="pad" x1="-819.2" x2="819.2">
      <stop offset="0.0" stop-color="#000000"/>
      <stop offset="1.0" stop-color="#ffffff"/>
    </linearGradient>
    <linearGradient gradientTransform="matrix(0.0072, 0.0, 0.0, 0.001, 24.8, 26.05)" gradientUnits="userSpaceOnUse" id="gradient8" spreadMethod="pad" x1="-819.2" x2="819.2">
      <stop offset="0.0" stop-color="#000000"/>
      <stop offset="1.0" stop-color="#ffffff"/>
    </linearGradient>
    <linearGradient gradientTransform="matrix(0.006, 0.0, 0.0, 0.0011, 47.6, 31.75)" gradientUnits="userSpaceOnUse" id="gradient9" spreadMethod="pad" x1="-819.2" x2="819.2">
      <stop offset="0.0" stop-color="#000000"/>
      <stop offset="1.0" stop-color="#ffffff"/>
    </linearGradient>
    <linearGradient gradientTransform="matrix(-0.0084, -0.0084, 0.0037, -0.0037, 66.8, 25.3)" gradientUnits="userSpaceOnUse" id="gradient10" spreadMethod="pad" x1="-819.2" x2="819.2">
      <stop offset="0.0" stop-color="#000000"/>
      <stop offset="1.0" stop-color="#ffffff"/>
    </linearGradient>
    <linearGradient gradientTransform="matrix(-0.0055, -0.0095, 0.0041, -0.0024, 44.2, 27.7)" gradientUnits="userSpaceOnUse" id="gradient11" spreadMethod="pad" x1="-819.2" x2="819.2">
      <stop offset="0.0" stop-color="#000000"/>
      <stop offset="1.0" stop-color="#ffffff"/>
    </linearGradient>
    <linearGradient gradientTransform="matrix(0.0, -0.0107, 0.0054, 0.0, 19.85, 23.45)" gradientUnits="userSpaceOnUse" id="gradient12" spreadMethod="pad" x1="-819.2" x2="819.2">
      <stop offset="0.0" stop-color="#000000"/>
      <stop offset="1.0" stop-color="#ffffff"/>
    </linearGradient>
    <linearGradient gradientTransform="matrix(-0.002, -0.0073, 0.0037, -0.001, 6.15, 27.35)" gradientUnits="userSpaceOnUse" id="gradient13" spreadMethod="pad" x1="-819.2" x2="819.2">
      <stop offset="0.0" stop-color="#000000"/>
      <stop offset="1.0" stop-color="#ffffff"/>
    </linearGradient>
    <linearGradient gradientTransform="matrix(-0.0051, 0.0089, -0.0037, -0.0022, 8.3, 31.7)" gradientUnits="userSpaceOnUse" id="gradient14" spreadMethod="pad" x1="-819.2" x2="819.2">
      <stop offset="0.0" stop-color="#000000"/>
      <stop offset="1.0" stop-color="#ffffff"/>
    </linearGradient>
    <linearGradient gradientTransform="matrix(0.0076, 0.0, 0.0, 5.0E-4, 6.7, 28.15)" gradientUnits="userSpaceOnUse" id="gradient15" spreadMethod="pad" x1="-819.2" x2="819.2">
      <stop offset="0.0" stop-color="#000000"/>
      <stop offset="1.0" stop-color="#ffffff"/>
    </linearGradient>
    <linearGradient gradientTransform="matrix(-0.0257, 0.0099, -0.0024, -0.0063, 10.6, 27.75)" gradientUnits="userSpaceOnUse" id="gradient16" spreadMethod="pad" x1="-819.2" x2="819.2">
      <stop offset="0.0" stop-color="#000000"/>
      <stop offset="1.0" stop-color="#ffffff"/>
    </linearGradient>
    <linearGradient gradientTransform="matrix(-0.0153, 0.0153, -0.0068, -0.0068, 37.0, 34.2)" gradientUnits="userSpaceOnUse" id="gradient17" spreadMethod="pad" x1="-819.2" x2="819.2">
      <stop offset="0.0" stop-color="#000000"/>
      <stop offset="1.0" stop-color="#ffffff"/>
    </linearGradient>
    <linearGradient gradientTransform="matrix(0.0118, 0.0, 0.0, 0.0051, 32.85, 35.35)" gradientUnits="userSpaceOnUse" id="gradient18" spreadMethod="pad" x1="-819.2" x2="819.2">
      <stop offset="0.0" stop-color="#000000"/>
      <stop offset="1.0" stop-color="#ffffff"/>
    </linearGradient>
    <linearGradient gradientTransform="matrix(0.0049, 0.0, 0.0, 9.0E-4, 33.55, 36.0)" gradientUnits="userSpaceOnUse" id="gradient19" spreadMethod="pad" x1="-819.2" x2="819.2">
      <stop offset="0.0" stop-color="#000000"/>
      <stop offset="1.0" stop-color="#ffffff"/>
    </linearGradient>
    <linearGradient gradientTransform="matrix(-0.0083, 0.0083, -0.0042, -0.0042, 36.5, 38.7)" gradientUnits="userSpaceOnUse" id="gradient20" spreadMethod="pad" x1="-819.2" x2="819.2">
      <stop offset="0.0" stop-color="#000000"/>
      <stop offset="1.0" stop-color="#ffffff"/>
    </linearGradient>
    <linearGradient gradientTransform="matrix(0.0156, 0.0, 0.0, 0.0027, 80.45, 28.0)" gradientUnits="userSpaceOnUse" id="gradient21" spreadMethod="pad" x1="-819.2" x2="819.2">
      <stop offset="0.0" stop-color="#000000"/>
      <stop offset="1.0" stop-color="#ffffff"/>
    </linearGradient>
    <linearGradient gradientTransform="matrix(0.0135, 0.0, 0.0, 0.0049, 78.95, 32.3)" gradientUnits="userSpaceOnUse" id="gradient22" spreadMethod="pad" x1="-819.2" x2="819.2">
      <stop offset="0.0" stop-color="#000000"/>
      <stop offset="1.0" stop-color="#ffffff"/>
    </linearGradient>
    <linearGradient gradientTransform="matrix(0.0165, 0.0095, -0.0029, 0.0051, 75.95, 29.25)" gradientUnits="userSpaceOnUse" id="gradient23" spreadMethod="pad" x1="-819.2" x2="819.2">
      <stop offset="0.0" stop-color="#000000"/>
      <stop offset="1.0" stop-color="#ffffff"/>
    </linearGradient>
    <linearGradient gradientTransform="matrix(0.0052, 0.0, 0.0, 0.001, 79.05, 31.55)" gradientUnits="userSpaceOnUse" id="gradient24" spreadMethod="pad" x1="-819.2" x2="819.2">
      <stop offset="0.0" stop-color="#000000"/>
      <stop offset="1.0" stop-color="#ffffff"/>
    </linearGradient>
    <linearGradient gradientTransform="matrix(0.0075, 0.0, 0.0, 0.0012, 82.1, 32.85)" gradientUnits="userSpaceOnUse" id="gradient25" spreadMethod="pad" x1="-819.2" x2="819.2">
      <stop offset="0.0" stop-color="#000000"/>
      <stop offset="1.0" stop-color="#ffffff"/>
    </linearGradient>
  </defs>
</svg>
