<?xml version="1.0" encoding="UTF-8" standalone="no"?>
<svg xmlns:xlink="http://www.w3.org/1999/xlink" height="531.5px" width="460.6px" xmlns="http://www.w3.org/2000/svg">
  <g transform="matrix(1.0, 0.0, 0.0, 1.0, 193.65, 334.05)">
    <use height="103.35" transform="matrix(0.4301, 0.0, 0.0, 0.4301, 27.6973, -153.8527)" width="145.95" xlink:href="#shape0"/>
    <use height="99.85" transform="matrix(0.4301, 0.0, 0.0, 0.4301, 28.45, -153.1)" width="142.45" xlink:href="#sprite0"/>
  </g>
  <defs>
    <g id="shape0" transform="matrix(1.0, 0.0, 0.0, 1.0, 1.75, 1.75)">
      <path d="M84.35 42.75 Q85.75 41.9 87.5 40.9 L87.75 40.75 91.6 45.4 88.3 47.25 84.35 42.75 M78.5 30.1 L74.8 31.75 71.4 27.85 75.05 26.2 77.3 28.75 78.5 30.1 M99.95 56.15 L101.1 57.2 103.1 59.5 Q101.55 60.2 100.15 60.85 L97.2 57.5 99.95 56.15 M107.9 69.7 L110.8 68.4 114.55 72.6 111.55 73.9 107.9 69.7 M116.8 79.95 L117.55 79.35 119.75 77.85 124.6 82.75 121.2 84.95 116.8 79.95 M125.9 90.35 L130.25 88.35 134.4 92.55 130.2 95.25 125.9 90.35 M61.45 16.4 Q62.7 15.75 64.25 15.05 L67.2 17.95 63.95 19.3 61.45 16.4 M55.5 8.75 L55.65 8.55 55.75 8.4 Q56.45 8.7 57.4 9.35 L55.9 11.35 55.4 11.05 55.45 10.3 55.5 8.8 55.5 8.75 M51.2 8.7 L52.8 8.3 52.8 11.05 52.15 11.0 51.2 9.4 51.2 8.7 M46.15 13.5 L41.25 15.8 40.2 12.7 45.1 10.75 46.15 13.5 M31.7 20.3 L27.85 22.15 26.85 18.7 29.35 17.55 30.5 17.05 31.7 20.3 M19.05 26.25 L14.35 28.45 14.25 28.4 13.15 25.4 17.7 23.1 19.05 26.25" fill="#db0202" fill-rule="evenodd" stroke="none"/>
      <path d="M87.75 40.75 L87.5 40.9 Q85.75 41.9 84.35 42.75 L74.8 31.75 78.5 30.1 87.75 40.75 M88.3 47.25 L91.6 45.4 Q96.35 51.15 99.65 55.8 L99.95 56.15 97.2 57.5 88.3 47.25 M75.05 26.2 L71.4 27.85 63.95 19.3 67.2 17.95 75.05 26.2 M103.1 59.5 L108.0 65.25 110.8 68.4 107.9 69.7 100.15 60.85 Q101.55 60.2 103.1 59.5 M111.55 73.9 L114.55 72.6 117.5 75.75 118.25 76.45 119.75 77.85 117.55 79.35 116.8 79.95 111.55 73.9 M124.6 82.75 L128.3 86.35 130.25 88.35 125.9 90.35 121.2 84.95 124.6 82.75 M134.4 92.55 L139.6 98.05 Q137.55 99.65 134.2 99.85 L130.2 95.25 134.4 92.55 M59.2 10.55 L60.65 11.8 60.85 11.95 64.25 15.05 Q62.7 15.75 61.45 16.4 L59.0 13.6 58.85 13.45 Q58.25 13.4 57.85 12.4 L59.2 10.55 57.85 12.4 Q57.35 12.45 56.65 11.55 L57.45 9.35 58.9 10.35 59.2 10.55 M60.85 11.95 L59.0 13.6 60.85 11.95 M55.5 8.3 L55.5 8.75 55.5 8.8 Q54.75 9.55 54.15 11.1 L53.8 11.0 53.55 10.85 53.1 8.25 54.5 8.1 55.5 8.3 M51.25 11.2 L50.45 11.5 46.15 13.5 45.1 10.75 50.8 8.75 51.2 9.4 51.25 11.2 M41.25 15.8 L31.7 20.3 30.5 17.05 Q35.9 14.5 40.2 12.7 L41.25 15.8 M27.85 22.15 L19.05 26.25 17.7 23.1 26.85 18.7 27.85 22.15" fill="#bbbbbb" fill-rule="evenodd" stroke="none"/>
      <path d="M91.6 45.4 L87.75 40.75 93.75 37.2 97.9 41.9 Q96.25 42.8 94.35 43.85 92.9 44.65 91.6 45.4 M84.95 27.2 L79.55 29.6 78.5 30.1 77.3 28.75 75.05 26.2 76.55 25.5 81.5 23.2 84.95 27.2 M110.5 56.25 L104.1 59.05 103.1 59.5 101.1 57.2 99.95 56.15 100.1 56.1 102.65 54.8 107.25 52.55 110.5 56.25 M110.8 68.4 L113.95 66.95 Q116.35 65.95 118.25 65.1 L122.0 69.35 116.25 71.85 114.55 72.6 110.8 68.4 M130.6 79.1 L126.75 81.4 124.6 82.75 119.75 77.85 Q122.85 75.8 125.05 75.0 L126.55 74.45 130.6 79.1 M130.25 88.35 L132.0 87.55 136.3 85.55 139.55 89.2 134.4 92.55 130.25 88.35 M64.25 15.05 L66.85 13.85 71.35 11.7 74.25 15.0 67.5 17.85 67.2 17.95 64.25 15.05 M59.75 0.25 L61.2 1.2 61.35 1.3 62.85 2.05 60.1 5.65 57.55 9.1 57.4 9.35 Q56.45 8.7 55.75 8.4 L56.0 8.0 Q56.95 5.2 58.4 2.75 L59.75 0.25 M61.35 1.3 Q59.15 5.1 57.55 9.1 59.15 5.1 61.35 1.3 M51.4 1.35 L52.35 1.15 53.0 0.75 Q52.85 3.2 52.85 6.5 L53.1 8.25 53.55 10.85 52.8 11.05 52.8 8.3 51.2 8.7 51.1 5.95 51.4 1.35 M52.35 1.15 L52.85 6.5 52.35 1.15 M52.15 11.0 L51.25 11.2 51.2 9.4 52.15 11.0 M11.05 19.75 L15.45 17.75 17.25 22.15 17.7 23.1 13.15 25.4 12.3 23.25 11.05 19.75 M25.3 13.25 L28.95 11.6 29.35 13.45 30.5 17.05 29.35 17.55 26.85 18.7 26.1 16.2 25.3 13.25 M38.45 7.3 L43.2 5.1 43.6 6.35 45.1 10.75 40.2 12.7 38.45 7.3 M54.15 11.1 Q54.75 9.55 55.5 8.8 L55.45 10.3 55.4 11.05 55.2 11.1 54.15 11.1" fill="#ff0000" fill-rule="evenodd" stroke="none"/>
      <path d="M87.75 40.75 L78.5 30.1 79.55 29.6 84.95 27.2 93.75 37.2 87.75 40.75 M91.6 45.4 Q92.9 44.65 94.35 43.85 96.25 42.8 97.9 41.9 L107.25 52.55 102.65 54.8 100.1 56.1 99.95 56.15 99.65 55.8 Q96.35 51.15 91.6 45.4 M103.1 59.5 L104.1 59.05 110.5 56.25 118.25 65.1 Q116.35 65.95 113.95 66.95 L110.8 68.4 108.0 65.25 103.1 59.5 M114.55 72.6 L116.25 71.85 122.0 69.35 126.55 74.45 125.05 75.0 Q122.85 75.8 119.75 77.85 L118.25 76.45 117.5 75.75 114.55 72.6 M124.6 82.75 L126.75 81.4 130.6 79.1 136.3 85.55 132.0 87.55 130.25 88.35 128.3 86.35 124.6 82.75 M134.4 92.55 L139.55 89.2 142.45 92.55 Q141.8 96.2 139.6 98.05 L134.4 92.55 M67.1 6.9 Q63.75 9.35 60.85 11.95 63.75 9.35 67.1 6.9 L71.35 11.7 66.85 13.85 64.25 15.05 60.85 11.95 60.65 11.8 59.2 10.55 Q61.75 7.3 64.65 4.15 61.75 7.3 59.2 10.55 L58.9 10.35 57.45 9.35 57.55 9.1 60.1 5.65 62.85 2.05 Q63.95 2.8 64.65 4.15 L64.7 4.2 Q66.7 5.75 67.1 6.9 M67.2 17.95 L67.5 17.85 74.25 15.0 81.5 23.2 76.55 25.5 75.05 26.2 67.2 17.95 M59.75 0.25 L58.4 2.75 Q56.95 5.2 56.0 8.0 L55.75 8.4 55.65 8.55 55.5 8.75 55.5 8.3 Q55.75 4.3 56.65 0.2 55.75 4.3 55.5 8.3 L54.5 8.1 53.1 8.25 52.85 6.5 Q52.85 3.2 53.0 0.75 54.95 -0.3 56.65 0.2 L59.3 0.1 59.75 0.25 M43.2 5.1 L47.9 2.95 50.85 1.4 51.4 1.35 51.1 5.95 51.2 8.7 51.2 9.4 50.8 8.75 45.1 10.75 43.6 6.35 43.2 5.1 M14.25 28.4 Q13.0 27.9 9.95 27.1 6.25 26.05 0.0 24.7 L11.05 19.75 12.3 23.25 13.15 25.4 14.25 28.4 M15.45 17.75 L25.3 13.25 26.1 16.2 26.85 18.7 17.7 23.1 17.25 22.15 15.45 17.75 M28.95 11.6 L38.45 7.3 40.2 12.7 Q35.9 14.5 30.5 17.05 L29.35 13.45 28.95 11.6 M47.9 2.95 Q49.2 5.95 50.8 8.75 49.2 5.95 47.9 2.95 M55.9 11.35 L57.4 9.35 57.45 9.35 56.65 11.55 55.9 11.35" fill="#ffffff" fill-rule="evenodd" stroke="none"/>
      <path d="M74.8 31.75 L84.35 42.75 88.3 47.25 97.2 57.5 100.15 60.85 107.9 69.7 111.55 73.9 116.8 79.95 121.2 84.95 125.9 90.35 130.2 95.25 134.2 99.85 Q137.55 99.65 139.6 98.05 141.8 96.2 142.45 92.55 L139.55 89.2 136.3 85.55 130.6 79.1 126.55 74.45 122.0 69.35 118.25 65.1 110.5 56.25 107.25 52.55 97.9 41.9 93.75 37.2 84.95 27.2 81.5 23.2 74.25 15.0 71.35 11.7 67.1 6.9 Q66.7 5.75 64.7 4.2 L64.65 4.15 Q63.95 2.8 62.85 2.05 L61.35 1.3 61.2 1.2 59.75 0.25 59.3 0.1 56.65 0.2 Q54.95 -0.3 53.0 0.75 L52.35 1.15 51.4 1.35 50.85 1.4 47.9 2.95 43.2 5.1 38.45 7.3 28.95 11.6 25.3 13.25 15.45 17.75 11.05 19.75 0.0 24.7 Q6.25 26.05 9.95 27.1 13.0 27.9 14.25 28.4 L14.35 28.45 19.05 26.25 27.85 22.15 31.7 20.3 41.25 15.8 46.15 13.5 50.45 11.5 51.25 11.2 52.15 11.0 52.8 11.05 53.55 10.85 53.8 11.0 54.15 11.1 55.2 11.1 55.4 11.05 55.9 11.35 56.65 11.55 Q57.35 12.45 57.85 12.4 58.25 13.4 58.85 13.45 L59.0 13.6 61.45 16.4 63.95 19.3 71.4 27.85 74.8 31.75" fill="none" stroke="#444444" stroke-linecap="round" stroke-linejoin="round" stroke-opacity="0.6627451" stroke-width="3.5"/>
      <path d="M60.85 11.95 Q63.75 9.35 67.1 6.9 M64.65 4.15 Q61.75 7.3 59.2 10.55 M56.65 0.2 Q55.75 4.3 55.5 8.3 M57.55 9.1 Q59.15 5.1 61.35 1.3 M52.85 6.5 L52.35 1.15 M50.8 8.75 Q49.2 5.95 47.9 2.95" fill="none" stroke="#444444" stroke-linecap="round" stroke-linejoin="round" stroke-opacity="0.6627451" stroke-width="2.0"/>
      <path d="M57.55 9.1 L57.45 9.35 56.65 11.55 M59.2 10.55 L57.85 12.4 M59.0 13.6 L60.85 11.95 M55.5 8.3 L55.5 8.75 55.5 8.8 55.45 10.3 55.4 11.05 M53.55 10.85 L53.1 8.25 52.85 6.5 M52.15 11.0 L51.2 9.4 50.8 8.75" fill="none" stroke="#000000" stroke-linecap="round" stroke-linejoin="round" stroke-opacity="0.6627451" stroke-width="2.0"/>
    </g>
    <g id="sprite0" transform="matrix(1.0, 0.0, 0.0, 1.0, 0.0, 0.0)">
      <use height="99.85" transform="matrix(1.0, 0.0, 0.0, 1.0, 0.0, 0.0)" width="142.45" xlink:href="#shape1"/>
    </g>
    <g id="shape1" transform="matrix(1.0, 0.0, 0.0, 1.0, 0.0, 0.0)">
      <path d="M87.75 40.75 L87.5 40.9 87.75 40.75" fill="url(#gradient0)" fill-rule="evenodd" stroke="none"/>
      <path d="M87.75 40.75 L87.5 40.9 87.75 40.75 M139.6 98.05 Q137.55 99.65 134.2 99.85 L59.0 13.6 58.85 13.45 Q58.25 13.4 57.85 12.4 57.35 12.45 56.65 11.55 L55.9 11.35 55.4 11.05 55.2 11.1 54.15 11.1 53.8 11.0 53.55 10.85 52.8 11.05 52.15 11.0 51.25 11.2 50.45 11.5 14.35 28.45 14.25 28.4 Q13.0 27.9 9.95 27.1 6.25 26.05 0.0 24.7 L50.85 1.4 51.4 1.35 52.35 1.15 53.0 0.75 Q54.95 -0.3 56.65 0.2 L59.3 0.1 59.75 0.25 61.2 1.2 61.35 1.3 62.85 2.05 Q63.95 2.8 64.65 4.15 L64.7 4.2 Q66.7 5.75 67.1 6.9 L142.45 92.55 Q141.8 96.2 139.6 98.05 M57.45 9.35 L57.55 9.1 57.4 9.35 57.45 9.35" fill="url(#gradient1)" fill-rule="evenodd" stroke="none"/>
    </g>
    <linearGradient gradientTransform="matrix(2.0E-4, 0.0, 0.0, 1.0E-4, 87.6, 40.8)" gradientUnits="userSpaceOnUse" id="gradient0" spreadMethod="pad" x1="-819.2" x2="819.2">
      <stop offset="0.0" stop-color="#000000"/>
      <stop offset="1.0" stop-color="#ffffff"/>
    </linearGradient>
    <linearGradient gradientTransform="matrix(0.0346, -0.0521, 0.0506, 0.0337, 82.9, 39.55)" gradientUnits="userSpaceOnUse" id="gradient1" spreadMethod="pad" x1="-819.2" x2="819.2">
      <stop offset="0.0" stop-color="#000000"/>
      <stop offset="1.0" stop-color="#ffffff"/>
    </linearGradient>
  </defs>
</svg>
