<?xml version="1.0" encoding="UTF-8" standalone="no"?>
<svg xmlns:xlink="http://www.w3.org/1999/xlink" height="531.5px" width="460.6px" xmlns="http://www.w3.org/2000/svg">
  <g transform="matrix(1.0, 0.0, 0.0, 1.0, 193.65, 334.05)">
    <use height="27.15" transform="matrix(1.9412, 0.0, 0.0, 1.9412, -87.5494, -198.4527)" width="90.1" xlink:href="#sprite0"/>
  </g>
  <defs>
    <g id="sprite0" transform="matrix(1.0, 0.0, 0.0, 1.0, 45.05, 13.55)">
      <use height="27.15" transform="matrix(1.0, 0.0, 0.0, 1.0, -45.05, -13.55)" width="90.1" xlink:href="#shape0"/>
      <use height="26.15" transform="matrix(1.0, 0.0, 0.0, 1.0, -44.55, -13.05)" width="89.1" xlink:href="#sprite1"/>
    </g>
    <g id="shape0" transform="matrix(1.0, 0.0, 0.0, 1.0, 45.05, 13.55)">
      <path d="M41.7 0.95 L44.55 0.0 Q42.05 8.6 33.75 7.55 33.55 7.1 33.35 7.1 L33.35 9.1 35.5 12.5 35.65 12.7 Q29.65 14.5 27.2 7.65 L27.1 7.45 Q25.1 6.3 25.65 3.95 35.55 -3.25 44.1 -13.05 45.05 -5.0 39.15 0.05 36.7 1.25 35.75 1.8 L35.25 2.2 33.35 3.7 33.35 3.9 36.95 3.9 40.2 2.25 41.7 0.95 M29.05 7.75 Q31.65 8.6 31.5 6.45 31.35 4.25 28.95 4.25 27.1 4.9 27.2 7.65 27.1 4.9 28.95 4.25 31.35 4.25 31.5 6.45 31.65 8.6 29.05 7.75 M-39.8 1.25 L-38.2 2.05 Q-36.0 3.05 -35.25 2.7 L-32.05 2.5 -32.05 2.3 -35.5 0.7 Q-37.65 -0.4 -38.65 -1.3 -40.1 -2.65 -42.25 -5.6 L-43.8 -7.85 Q-44.4 -10.25 -44.0 -13.05 -33.55 -3.25 -21.55 3.95 -20.85 6.3 -23.3 7.45 L-23.4 7.65 Q-26.3 14.15 -32.95 12.9 L-34.45 12.55 -33.0 11.3 Q-31.5 9.8 -31.05 8.35 L-31.05 7.55 -31.0 7.5 -31.05 7.5 -32.3 7.6 Q-41.65 8.15 -44.55 0.0 L-39.8 1.25 M-25.7 7.75 Q-28.85 8.6 -28.65 6.45 -28.5 4.25 -25.55 4.25 -23.3 4.9 -23.4 7.65 -23.3 4.9 -25.55 4.25 -28.5 4.25 -28.65 6.45 -28.85 8.6 -25.7 7.75" fill="#fef9e7" fill-rule="evenodd" stroke="none"/>
      <path d="M41.7 0.95 L40.2 2.25 36.95 3.9 33.35 3.9 33.35 3.7 35.25 2.2 35.75 1.8 Q36.7 1.25 39.15 0.05 L36.2 2.1 Q38.85 1.8 41.7 0.95 M35.65 12.7 L35.5 12.5 33.35 9.1 33.35 7.1 Q33.55 7.1 33.75 7.55 L33.45 7.5 38.4 11.55 35.65 12.7 M-43.8 -7.85 L-42.25 -5.6 Q-40.1 -2.65 -38.65 -1.3 -37.65 -0.4 -35.5 0.7 L-32.05 2.3 -32.05 2.5 -35.25 2.7 Q-36.0 3.05 -38.2 2.05 L-39.8 1.25 -34.4 2.1 Q-42.3 -1.7 -43.8 -7.85 M-31.05 7.55 L-31.05 8.35 Q-31.5 9.8 -33.0 11.3 L-34.45 12.55 -37.05 11.55 -31.05 7.55" fill="#e8e8e8" fill-rule="evenodd" stroke="none"/>
      <path d="M33.75 7.55 Q42.05 8.6 44.55 0.0 L41.7 0.95 Q38.85 1.8 36.2 2.1 L39.15 0.05 Q45.05 -5.0 44.1 -13.05 35.55 -3.25 25.65 3.95 25.1 6.3 27.1 7.45 L27.2 7.65 Q27.1 4.9 28.95 4.25 31.35 4.25 31.5 6.45 31.65 8.6 29.05 7.75 M35.65 12.7 L38.4 11.55 33.45 7.5 33.75 7.55 M27.2 7.65 Q29.65 14.5 35.65 12.7 M-39.8 1.25 L-44.55 0.0 Q-41.65 8.15 -32.3 7.6 L-31.05 7.5 -31.0 7.5 -31.05 7.55 -37.05 11.55 -34.45 12.55 -32.95 12.9 Q-26.3 14.15 -23.4 7.65 -23.3 4.9 -25.55 4.25 -28.5 4.25 -28.65 6.45 -28.85 8.6 -25.7 7.75 M-43.8 -7.85 Q-44.4 -10.25 -44.0 -13.05 -33.55 -3.25 -21.55 3.95 -20.85 6.3 -23.3 7.45 L-23.4 7.65 M-39.8 1.25 L-34.4 2.1 Q-42.3 -1.7 -43.8 -7.85" fill="none" stroke="#feef70" stroke-linecap="round" stroke-linejoin="round" stroke-opacity="0.6627451" stroke-width="1.0"/>
    </g>
    <g id="sprite1" transform="matrix(1.0, 0.0, 0.0, 1.0, 44.55, 13.05)">
      <use height="26.15" transform="matrix(1.0, 0.0, 0.0, 1.0, -44.55, -13.05)" width="89.1" xlink:href="#shape1"/>
    </g>
    <g id="shape1" transform="matrix(1.0, 0.0, 0.0, 1.0, 44.55, 13.05)">
      <path d="M-44.0 -13.05 Q-33.55 -3.25 -21.55 3.95 -20.85 6.3 -23.3 7.45 L-23.4 7.65 Q-26.3 14.15 -32.95 12.9 L-34.45 12.55 -37.05 11.55 -31.05 7.55 -31.0 7.5 -31.05 7.5 -32.3 7.6 Q-41.65 8.15 -44.55 0.0 L-39.8 1.25 -34.4 2.1 Q-42.3 -1.7 -43.8 -7.85 -44.4 -10.25 -44.0 -13.05" fill="url(#gradient0)" fill-rule="evenodd" stroke="none"/>
      <path d="M41.7 0.95 L44.55 0.0 Q42.05 8.6 33.75 7.55 L33.45 7.5 38.4 11.55 35.65 12.7 Q29.65 14.5 27.2 7.65 L27.1 7.45 Q25.1 6.3 25.65 3.95 35.55 -3.25 44.1 -13.05 45.05 -5.0 39.15 0.05 L36.2 2.1 Q38.85 1.8 41.7 0.95" fill="url(#gradient1)" fill-rule="evenodd" stroke="none"/>
    </g>
    <linearGradient gradientTransform="matrix(-0.011, -0.0191, 0.0138, -0.008, -29.7, 2.85)" gradientUnits="userSpaceOnUse" id="gradient0" spreadMethod="pad" x1="-819.2" x2="819.2">
      <stop offset="0.0" stop-color="#000000"/>
      <stop offset="1.0" stop-color="#ffffff"/>
    </linearGradient>
    <linearGradient gradientTransform="matrix(-0.0116, -0.0116, 0.012, -0.0123, 36.3, 5.7)" gradientUnits="userSpaceOnUse" id="gradient1" spreadMethod="pad" x1="-819.2" x2="819.2">
      <stop offset="0.0" stop-color="#000000"/>
      <stop offset="1.0" stop-color="#ffffff"/>
    </linearGradient>
  </defs>
</svg>
