<?xml version="1.0" encoding="UTF-8" standalone="no"?>
<svg xmlns:xlink="http://www.w3.org/1999/xlink" height="531.5px" width="460.6px" xmlns="http://www.w3.org/2000/svg">
  <g transform="matrix(1.0, 0.0, 0.0, 1.0, 193.65, 334.05)">
    <use height="16.95" transform="matrix(2.0067, 0.0, 0.0, 2.0067, -70.3034, -36.4534)" width="68.7" xlink:href="#sprite0"/>
  </g>
  <defs>
    <g id="sprite0" transform="matrix(1.0, 0.0, 0.0, 1.0, 0.5, 0.5)">
      <use height="16.95" transform="matrix(1.0, 0.0, 0.0, 1.0, -0.5, -0.5)" width="68.7" xlink:href="#shape0"/>
      <use height="15.95" transform="matrix(1.0, 0.0, 0.0, 1.0, 0.0, 0.0)" width="67.7" xlink:href="#sprite1"/>
    </g>
    <g id="shape0" transform="matrix(1.0, 0.0, 0.0, 1.0, 0.5, 0.5)">
      <path d="M67.65 9.9 Q67.0 9.45 66.2 9.15 64.6 8.45 63.3 8.45 61.85 8.45 59.55 9.45 L60.4 5.95 63.0 5.65 Q65.5 5.3 66.7 7.2 67.45 8.75 67.65 9.9 M59.3 9.55 L58.6 9.85 Q55.6 11.25 54.2 11.25 L52.65 11.15 53.9 8.35 54.25 8.15 Q55.85 7.15 57.85 6.55 L59.3 9.55 M52.2 11.1 Q49.4 10.55 46.9 8.55 L47.8 7.75 49.1 8.55 Q50.4 9.15 51.8 9.0 L52.2 11.1 M46.15 7.9 L45.35 7.15 39.5 1.85 37.0 0.15 Q42.1 -0.8 44.85 3.8 45.4 5.25 46.3 6.35 L46.15 7.9 M28.9 13.95 Q28.8 12.35 27.2 11.6 25.95 11.05 24.1 11.05 L21.7 11.55 19.3 12.05 Q17.9 12.05 16.2 11.4 L17.35 9.95 17.5 10.05 Q19.6 10.95 23.75 9.1 28.0 9.45 29.85 15.2 L29.15 14.25 28.9 13.95 M15.3 11.0 L12.85 9.55 Q10.95 8.25 9.15 7.65 9.6 6.9 10.4 6.05 L15.7 9.05 Q15.35 10.15 15.3 11.0 M8.3 7.4 L5.8 7.05 3.4 7.5 Q3.5 5.8 4.15 4.1 L7.4 4.4 8.7 5.15 Q8.3 6.5 8.3 7.4 M2.4 8.0 L1.25 8.8 Q0.45 9.5 0.0 10.3 -0.15 7.8 1.75 5.25 1.8 6.65 2.4 8.0 M41.2 2.3 L39.5 1.85 41.2 2.3" fill="#23771a" fill-opacity="0.99215686" fill-rule="evenodd" stroke="none"/>
      <path d="M59.55 9.45 Q61.85 8.45 63.3 8.45 64.6 8.45 66.2 9.15 67.0 9.45 67.65 9.9 68.15 13.2 63.95 13.45 63.3 12.1 60.65 12.25 58.0 12.35 53.35 14.75 50.2 15.45 47.45 14.65 43.3 12.85 41.6 9.1 L34.85 3.95 Q34.25 2.8 34.5 1.95 34.8 0.85 36.5 0.25 L37.0 0.15 39.5 1.85 45.35 7.15 46.15 7.9 45.95 9.35 46.9 8.55 Q49.4 10.55 52.2 11.1 L52.35 11.75 52.65 11.15 54.2 11.25 Q55.6 11.25 58.6 9.85 L59.3 9.55 59.45 9.85 59.55 9.45 M16.2 11.4 Q17.9 12.05 19.3 12.05 L21.7 11.55 24.1 11.05 Q25.95 11.05 27.2 11.6 28.8 12.35 28.9 13.95 27.5 12.55 25.0 11.8 22.8 11.6 20.35 14.1 18.85 15.95 16.25 15.95 13.1 15.45 7.2 11.25 3.9 11.5 2.3 15.2 0.1 12.8 0.0 10.3 0.45 9.5 1.25 8.8 L2.4 8.0 3.5 9.95 Q3.3 8.75 3.4 7.5 L5.8 7.05 8.3 7.4 Q8.2 8.4 8.65 8.75 L9.15 7.65 Q10.95 8.25 12.85 9.55 L15.3 11.0 Q15.15 12.2 15.65 12.6 L16.2 11.4" fill="#10460f" fill-opacity="0.99215686" fill-rule="evenodd" stroke="none"/>
      <path d="M60.4 5.95 L59.55 9.45 59.45 9.85 59.3 9.55 57.85 6.55 60.4 5.95 M52.65 11.15 L52.35 11.75 52.2 11.1 51.8 9.0 53.9 8.35 52.65 11.15 M46.9 8.55 L45.95 9.35 46.15 7.9 46.3 6.35 47.8 7.75 46.9 8.55 M17.35 9.95 L16.2 11.4 15.65 12.6 Q15.15 12.2 15.3 11.0 15.35 10.15 15.7 9.05 L17.35 9.95 M9.15 7.65 L8.65 8.75 Q8.2 8.4 8.3 7.4 8.3 6.5 8.7 5.15 L10.4 6.05 Q9.6 6.9 9.15 7.65 M3.4 7.5 Q3.3 8.75 3.5 9.95 L2.4 8.0 Q1.8 6.65 1.75 5.25 L1.95 4.95 Q3.0 4.3 4.15 4.1 3.5 5.8 3.4 7.5" fill="#f3de1d" fill-opacity="0.99215686" fill-rule="evenodd" stroke="none"/>
      <path d="M67.65 9.9 Q67.45 8.75 66.7 7.2 65.5 5.3 63.0 5.65 L60.4 5.95 59.55 9.45 59.45 9.85 59.3 9.55 57.85 6.55 60.4 5.95 M52.65 11.15 L52.35 11.75 52.2 11.1 51.8 9.0 Q50.4 9.15 49.1 8.55 L47.8 7.75 46.9 8.55 45.95 9.35 46.15 7.9 46.3 6.35 47.8 7.75 M37.0 0.15 L36.5 0.25 Q34.8 0.85 34.5 1.95 34.25 2.8 34.85 3.95 L41.6 9.1 Q43.3 12.85 47.45 14.65 50.2 15.45 53.35 14.75 58.0 12.35 60.65 12.25 63.3 12.1 63.95 13.45 68.15 13.2 67.65 9.9 M57.85 6.55 Q55.85 7.15 54.25 8.15 L53.9 8.35 52.65 11.15 M53.9 8.35 L51.8 9.0 M46.3 6.35 Q45.4 5.25 44.85 3.8 42.1 -0.8 37.0 0.15 M29.15 14.25 L29.85 15.2 Q28.0 9.45 23.75 9.1 19.6 10.95 17.5 10.05 L17.35 9.95 16.2 11.4 15.65 12.6 Q15.15 12.2 15.3 11.0 15.35 10.15 15.7 9.05 L10.4 6.05 Q9.6 6.9 9.15 7.65 L8.65 8.75 Q8.2 8.4 8.3 7.4 8.3 6.5 8.7 5.15 L10.4 6.05 M3.4 7.5 Q3.3 8.75 3.5 9.95 L2.4 8.0 Q1.8 6.65 1.75 5.25 -0.15 7.8 0.0 10.3 0.1 12.8 2.3 15.2 3.9 11.5 7.2 11.25 13.1 15.45 16.25 15.95 18.85 15.95 20.35 14.1 22.8 11.6 25.0 11.8 27.5 12.55 28.9 13.95 M34.5 1.95 L29.95 2.45 29.85 2.55 27.8 3.7 M29.85 2.55 L28.45 2.2 M15.7 9.05 L17.35 9.95 M4.15 4.1 L7.4 4.4 8.7 5.15 M1.75 5.25 L1.95 4.95 Q3.0 4.3 4.15 4.1 3.5 5.8 3.4 7.5 M39.5 1.85 L41.2 2.3" fill="none" stroke="#000000" stroke-linecap="round" stroke-linejoin="round" stroke-opacity="0.6627451" stroke-width="1.0"/>
    </g>
    <g id="sprite1" transform="matrix(1.0, 0.0, 0.0, 1.0, 0.0, 0.0)">
      <use height="15.95" transform="matrix(1.0, 0.0, 0.0, 1.0, 0.0, 0.0)" width="67.7" xlink:href="#shape1"/>
    </g>
    <g id="shape1" transform="matrix(1.0, 0.0, 0.0, 1.0, 0.0, 0.0)">
      <path d="M28.9 13.95 Q27.5 12.55 25.0 11.8 22.8 11.6 20.35 14.1 18.85 15.95 16.25 15.95 13.1 15.45 7.2 11.25 3.9 11.5 2.3 15.2 0.1 12.8 0.0 10.3 -0.15 7.8 1.75 5.25 L1.95 4.95 Q3.0 4.3 4.15 4.1 L7.4 4.4 17.35 9.95 17.5 10.05 Q19.6 10.95 23.75 9.1 28.0 9.45 29.85 15.2 L29.15 14.25 28.9 13.95" fill="url(#gradient0)" fill-rule="evenodd" stroke="none"/>
      <path d="M66.7 7.2 Q67.45 8.75 67.65 9.9 68.15 13.2 63.95 13.45 63.3 12.1 60.65 12.25 58.0 12.35 53.35 14.75 50.2 15.45 47.45 14.65 43.3 12.85 41.6 9.1 L34.85 3.95 Q34.25 2.8 34.5 1.95 34.8 0.85 36.5 0.25 L37.0 0.15 Q42.1 -0.8 44.85 3.8 45.4 5.25 46.3 6.35 L47.8 7.75 49.1 8.55 Q50.4 9.15 51.8 9.0 L53.9 8.35 54.25 8.15 Q55.85 7.15 57.85 6.55 L60.4 5.95 63.0 5.65 Q65.5 5.3 66.7 7.2" fill="url(#gradient1)" fill-rule="evenodd" stroke="none"/>
    </g>
    <linearGradient gradientTransform="matrix(-0.0136, -0.0235, 0.0063, -0.0036, 14.9, 10.0)" gradientUnits="userSpaceOnUse" id="gradient0" spreadMethod="pad" x1="-819.2" x2="819.2">
      <stop offset="0.0" stop-color="#000000"/>
      <stop offset="1.0" stop-color="#ffffff"/>
    </linearGradient>
    <linearGradient gradientTransform="matrix(0.0133, -0.0231, 0.008, 0.0046, 51.1, 7.6)" gradientUnits="userSpaceOnUse" id="gradient1" spreadMethod="pad" x1="-819.2" x2="819.2">
      <stop offset="0.0" stop-color="#000000"/>
      <stop offset="1.0" stop-color="#ffffff"/>
    </linearGradient>
  </defs>
</svg>
