<?xml version="1.0" encoding="UTF-8" standalone="no"?>
<svg xmlns:xlink="http://www.w3.org/1999/xlink" height="531.5px" width="460.6px" xmlns="http://www.w3.org/2000/svg">
  <g transform="matrix(1.0, 0.0, 0.0, 1.0, 193.65, 334.05)">
    <use height="33.5" transform="matrix(2.0067, 0.0, 0.0, 2.0067, -91.4534, -35.0034)" width="77.4" xlink:href="#sprite0"/>
  </g>
  <defs>
    <g id="sprite0" transform="matrix(1.0, 0.0, 0.0, 1.0, 0.5, 0.5)">
      <use height="33.5" transform="matrix(1.0, 0.0, 0.0, 1.0, -0.5, -0.5)" width="77.4" xlink:href="#shape0"/>
      <use height="32.5" transform="matrix(1.0, 0.0, 0.0, 1.0, 0.0, 0.0)" width="76.4" xlink:href="#sprite1"/>
    </g>
    <g id="shape0" transform="matrix(1.0, 0.0, 0.0, 1.0, 0.5, 0.5)">
      <path d="M23.3 11.45 L26.65 12.7 31.85 14.35 37.4 15.65 43.35 16.6 49.15 17.0 55.85 16.9 62.6 16.2 68.05 15.15 72.55 13.95 75.4 13.0 76.15 13.75 72.6 15.2 72.55 13.95 72.6 15.2 67.65 16.6 67.15 16.7 61.75 17.9 62.6 16.2 61.75 17.9 54.45 18.95 50.1 19.15 48.1 19.15 41.2 18.75 43.35 16.6 41.2 18.75 35.1 17.85 Q36.5 16.95 37.4 15.65 36.5 16.95 35.1 17.85 L29.5 16.5 Q26.75 15.7 24.3 14.65 L24.0 14.8 24.0 14.55 24.0 14.3 23.9 13.7 23.3 11.45 M9.75 7.3 Q10.2 5.65 13.35 6.85 L13.4 6.9 14.6 7.5 15.65 8.05 16.6 8.5 18.3 9.3 18.6 9.45 19.6 9.9 Q19.25 11.15 18.1 12.0 19.25 11.15 19.6 9.9 L19.95 10.05 20.0 10.1 20.7 10.8 Q21.85 12.1 22.1 13.8 L18.1 12.0 14.65 10.45 14.1 10.2 Q11.65 9.0 9.75 7.3 M26.65 12.7 L24.3 14.65 26.65 12.7 M68.05 15.15 L67.65 16.6 68.05 15.15 M48.1 19.15 Q49.0 18.05 49.15 17.0 49.0 18.05 48.1 19.15 M55.85 16.9 L54.45 18.95 55.85 16.9 M31.85 14.35 Q31.05 15.55 29.5 16.5 31.05 15.55 31.85 14.35 M15.65 8.05 Q15.2 9.45 14.1 10.2 15.2 9.45 15.65 8.05" fill="#948e67" fill-rule="evenodd" stroke="none"/>
      <path d="M76.15 13.75 Q76.85 14.95 75.7 16.95 74.5 17.65 72.1 18.0 L70.65 18.35 64.75 19.5 59.2 20.2 52.15 20.65 46.6 20.6 39.45 19.95 33.25 18.85 27.65 17.4 23.85 16.2 24.0 14.8 24.3 14.65 Q26.75 15.7 29.5 16.5 L27.65 17.4 29.5 16.5 35.1 17.85 33.25 18.85 35.1 17.85 41.2 18.75 48.1 19.15 46.6 20.6 48.1 19.15 50.1 19.15 54.45 18.95 Q53.45 20.05 52.15 20.65 53.45 20.05 54.45 18.95 L61.75 17.9 67.15 16.7 67.65 16.6 Q66.9 18.15 64.75 19.5 66.9 18.15 67.65 16.6 L72.6 15.2 76.15 13.75 M9.85 9.35 Q9.55 8.05 9.75 7.3 11.65 9.0 14.1 10.2 L14.65 10.45 18.1 12.0 Q17.25 12.55 16.0 12.95 17.25 12.55 18.1 12.0 L22.1 13.8 22.15 14.0 22.15 14.05 22.25 15.6 16.0 12.95 12.25 11.0 11.35 10.55 11.25 10.5 9.95 9.75 9.85 9.35 M59.2 20.2 L61.75 17.9 59.2 20.2 M72.6 15.2 Q72.35 16.8 70.65 18.35 72.35 16.8 72.6 15.2 M39.45 19.95 L41.2 18.75 39.45 19.95 M14.1 10.2 Q13.35 10.7 12.25 11.0 13.35 10.7 14.1 10.2" fill="#595440" fill-rule="evenodd" stroke="none"/>
      <path d="M20.75 1.25 L20.75 1.45 Q20.75 2.05 20.35 2.45 19.95 2.9 19.35 2.9 18.75 2.9 18.35 2.45 L18.3 2.35 Q18.65 2.05 19.35 1.7 L20.75 1.25 M25.35 7.15 L25.3 7.2 24.65 7.5 24.4 7.5 24.45 7.45 25.35 7.15 M18.35 20.3 L17.4 20.15 17.35 20.15 16.2 19.85 Q14.95 19.35 13.55 18.45 L12.85 18.0 13.05 17.95 Q13.9 17.95 14.95 18.85 L16.15 18.55 17.75 19.0 18.1 19.2 18.3 19.4 18.25 19.0 18.2 18.65 Q17.65 16.4 15.05 17.8 L14.25 16.65 13.5 16.6 12.85 16.85 12.7 16.95 12.5 17.75 11.35 16.75 10.6 15.95 10.35 15.65 10.7 15.25 Q11.2 14.85 12.05 14.85 L12.55 15.1 13.1 15.45 13.35 14.95 Q13.4 14.75 13.7 14.75 L14.1 15.2 Q14.4 15.65 14.8 15.65 L15.7 15.35 Q16.3 15.35 16.35 15.7 16.4 16.15 17.4 16.35 18.05 16.45 18.7 17.1 L19.2 17.8 19.3 18.25 Q19.3 18.85 18.75 19.45 L18.5 19.65 18.35 19.75 18.35 20.05 18.35 20.3 M18.35 19.75 L18.3 19.4 18.35 19.75" fill="#8cf545" fill-rule="evenodd" stroke="none"/>
      <path d="M18.3 2.35 Q17.95 2.0 17.95 1.45 17.95 0.85 18.35 0.4 18.75 0.0 19.35 0.0 19.95 0.0 20.35 0.4 L20.75 1.25 19.35 1.7 Q18.65 2.05 18.3 2.35 M24.4 7.5 L23.95 7.2 23.7 6.55 Q23.7 6.15 23.95 5.85 24.25 5.6 24.65 5.6 L25.3 5.85 25.6 6.55 25.4 7.15 25.35 7.15 24.45 7.45 24.4 7.5 M16.65 14.3 L17.9 15.25 18.1 15.7 18.6 15.85 Q19.65 16.2 19.95 16.9 L20.05 17.55 19.7 18.55 Q20.0 19.3 19.7 19.8 19.35 20.35 18.35 20.3 L18.35 20.05 18.35 19.75 18.5 19.65 18.75 19.45 Q19.3 18.85 19.3 18.25 L19.2 17.8 18.7 17.1 Q18.05 16.45 17.4 16.35 16.4 16.15 16.35 15.7 16.3 15.35 15.7 15.35 L14.8 15.65 Q14.4 15.65 14.1 15.2 L13.7 14.75 Q13.4 14.75 13.35 14.95 L13.1 15.45 12.55 15.1 12.05 14.85 Q11.2 14.85 10.7 15.25 L10.35 15.65 9.85 14.9 Q10.0 13.15 12.05 14.05 13.15 13.45 13.75 13.55 L14.2 13.75 14.55 14.75 15.45 14.4 16.65 14.3 M19.7 18.55 L18.75 19.45 19.7 18.55 M12.85 18.0 L12.5 17.75 12.7 16.95 12.85 16.85 13.5 16.6 14.25 16.65 15.05 17.8 Q17.65 16.4 18.2 18.65 L18.25 19.0 18.3 19.4 18.1 19.2 17.75 19.0 16.15 18.55 14.95 18.85 Q13.9 17.95 13.05 17.95 L12.85 18.0" fill="#cdfbae" fill-rule="evenodd" stroke="none"/>
      <path d="M23.85 16.2 L23.7 16.65 Q23.1 16.1 22.2 15.9 L22.2 15.8 22.25 15.65 22.25 15.6 22.15 14.05 22.15 14.0 22.1 13.8 Q21.85 12.1 20.7 10.8 L20.0 10.1 19.95 10.05 19.05 9.4 Q17.9 8.65 16.6 8.5 L15.65 8.05 14.6 7.5 15.5 7.45 Q17.15 7.45 18.7 8.25 19.75 8.75 20.4 9.55 L22.3 10.25 22.75 10.45 23.3 11.45 23.9 13.7 24.0 14.3 24.0 14.55 24.0 14.8 23.85 16.2 M3.15 28.4 L2.05 27.05 1.8 23.25 Q1.8 20.85 3.4 18.95 5.1 16.95 7.4 16.95 L8.4 17.15 9.4 17.55 9.5 17.35 8.6 16.2 Q7.3 14.3 7.75 12.8 8.2 13.7 9.05 13.65 L9.8 13.4 9.05 13.65 Q9.2 12.85 10.0 11.85 L11.0 10.8 Q10.6 11.35 10.35 12.05 L11.4 12.1 Q13.7 12.45 16.25 14.05 L16.65 14.3 15.45 14.4 14.2 13.75 13.75 13.55 Q13.15 13.45 12.05 14.05 10.0 13.15 9.85 14.9 9.4 14.0 9.75 13.45 L9.8 13.4 10.15 13.1 12.05 13.0 13.75 13.55 12.05 13.0 10.15 13.1 9.8 13.4 9.75 13.45 Q9.4 14.0 9.85 14.9 L10.35 15.65 10.6 15.95 11.35 16.75 12.5 17.75 12.85 18.0 13.55 18.45 Q14.95 19.35 16.2 19.85 L17.35 20.15 17.4 20.15 16.45 21.4 Q14.65 20.95 12.75 19.85 L12.05 19.4 9.5 17.35 12.05 19.4 12.75 19.85 Q14.65 20.95 16.45 21.4 L16.0 21.95 Q16.0 22.8 17.5 24.0 L18.9 25.2 19.0 25.35 Q19.0 25.9 18.3 26.4 L18.25 26.45 16.2 27.3 14.2 27.75 8.85 28.45 5.1 28.55 3.15 28.4 M16.35 24.9 L18.9 25.2 16.35 24.9 M10.15 13.1 L10.35 12.05 10.15 13.1 M4.95 26.5 L5.95 24.15 4.2 25.15 5.95 24.15 4.95 26.5" fill="#110c1a" fill-rule="evenodd" stroke="none"/>
      <path d="M2.05 27.05 Q1.25 25.95 0.55 24.65 -2.0 14.75 7.75 12.8 8.95 10.5 9.85 9.35 L9.95 9.75 11.25 10.5 11.0 10.8 10.0 11.85 Q9.2 12.85 9.05 13.65 8.2 13.7 7.75 12.8 7.3 14.3 8.6 16.2 L9.5 17.35 9.4 17.55 8.4 17.15 7.4 16.95 Q5.1 16.95 3.4 18.95 1.8 20.85 1.8 23.25 L2.05 27.05 M13.4 6.9 L16.2 6.6 Q19.1 6.75 21.35 8.8 L21.85 9.3 22.75 10.45 22.3 10.25 20.4 9.55 Q19.75 8.75 18.7 8.25 17.15 7.45 15.5 7.45 L14.6 7.5 13.4 6.9" fill="#413859" fill-rule="evenodd" stroke="none"/>
      <path d="M23.7 16.65 Q23.35 17.65 22.6 18.45 L21.1 19.75 21.1 19.95 21.0 20.3 20.65 20.95 Q22.6 30.95 12.8 32.5 6.9 32.35 3.15 28.4 L5.1 28.55 8.85 28.45 14.2 27.75 16.2 27.3 18.25 26.45 18.3 26.4 Q19.0 25.9 19.0 25.35 L18.9 25.2 17.5 24.0 Q16.0 22.8 16.0 21.95 L16.45 21.4 17.4 20.15 18.35 20.3 Q19.35 20.35 19.7 19.8 20.0 19.3 19.7 18.55 L20.05 17.55 20.65 18.55 21.25 18.0 Q22.0 17.05 22.2 15.9 23.1 16.1 23.7 16.65 M21.1 19.75 L20.95 19.2 20.65 18.55 20.95 19.2 21.1 19.75 M20.65 20.95 Q19.95 21.75 17.9 21.65 L16.45 21.4 17.9 21.65 Q19.95 21.75 20.65 20.95 M6.7 29.25 L8.85 28.45 6.7 29.25 M12.35 30.15 L10.2 30.0 12.35 30.15" fill="#0b0911" fill-rule="evenodd" stroke="none"/>
      <path d="M23.3 11.45 L26.65 12.7 31.85 14.35 37.4 15.65 43.35 16.6 49.15 17.0 55.85 16.9 62.6 16.2 68.05 15.15 72.55 13.95 75.4 13.0 76.15 13.75 Q76.85 14.95 75.7 16.95 74.5 17.65 72.1 18.0 L70.65 18.35 64.75 19.5 59.2 20.2 52.15 20.65 46.6 20.6 39.45 19.95 33.25 18.85 27.65 17.4 23.85 16.2 23.7 16.65 Q23.35 17.65 22.6 18.45 L21.1 19.75 21.1 19.95 21.0 20.3 20.65 20.95 Q22.6 30.95 12.8 32.5 6.9 32.35 3.15 28.4 L2.05 27.05 Q1.25 25.95 0.55 24.65 -2.0 14.75 7.75 12.8 8.95 10.5 9.85 9.35 9.55 8.05 9.75 7.3 10.2 5.65 13.35 6.85 L13.4 6.9 16.2 6.6 Q19.1 6.75 21.35 8.8 L21.85 9.3 22.75 10.45 23.3 11.45 23.9 13.7 24.0 14.3 M24.0 14.55 L24.0 14.8 24.3 14.65 26.65 12.7 M61.75 17.9 L62.6 16.2 M64.75 19.5 Q66.9 18.15 67.65 16.6 L68.05 15.15 M61.75 17.9 L59.2 20.2 M72.6 15.2 L72.55 13.95 M70.65 18.35 Q72.35 16.8 72.6 15.2 M41.2 18.75 L39.45 19.95 M48.1 19.15 L46.6 20.6 M49.15 17.0 Q49.0 18.05 48.1 19.15 M54.45 18.95 L55.85 16.9 M41.2 18.75 L43.35 16.6 M52.15 20.65 Q53.45 20.05 54.45 18.95 M20.75 1.25 L20.75 1.45 Q20.75 2.05 20.35 2.45 19.95 2.9 19.35 2.9 18.75 2.9 18.35 2.45 L18.3 2.35 Q17.95 2.0 17.95 1.45 17.95 0.85 18.35 0.4 18.75 0.0 19.35 0.0 19.95 0.0 20.35 0.4 L20.75 1.25 M24.4 7.5 L23.95 7.2 23.7 6.55 Q23.7 6.15 23.95 5.85 24.25 5.6 24.65 5.6 L25.3 5.85 25.6 6.55 25.4 7.15 25.35 7.15 25.3 7.2 24.65 7.5 24.4 7.5 M14.6 7.5 L15.65 8.05 16.6 8.5 Q17.9 8.65 19.05 9.4 L19.95 10.05 20.0 10.1 20.7 10.8 Q21.85 12.1 22.1 13.8 M22.15 14.0 L22.15 14.05 22.25 15.6 22.25 15.65 22.2 15.8 22.2 15.9 Q22.0 17.05 21.25 18.0 L20.65 18.55 20.95 19.2 21.1 19.75 M27.65 17.4 L29.5 16.5 Q31.05 15.55 31.85 14.35 M20.05 17.55 L20.65 18.55 M24.0 14.8 L23.85 16.2 M35.1 17.85 Q36.5 16.95 37.4 15.65 M33.25 18.85 L35.1 17.85 M13.4 6.9 L14.6 7.5 M22.25 15.6 L16.0 12.95 12.25 11.0 11.35 10.55 11.25 10.5 11.0 10.8 Q10.6 11.35 10.35 12.05 L11.4 12.1 Q13.7 12.45 16.25 14.05 L16.65 14.3 17.9 15.25 18.6 15.85 Q19.65 16.2 19.95 16.9 L20.05 17.55 19.7 18.55 Q20.0 19.3 19.7 19.8 19.35 20.35 18.35 20.3 L17.4 20.15 17.35 20.15 16.2 19.85 Q14.95 19.35 13.55 18.45 L12.85 18.0 12.5 17.75 11.35 16.75 10.6 15.95 10.35 15.65 9.85 14.9 Q10.0 13.15 12.05 14.05 13.15 13.45 13.75 13.55 L14.2 13.75 15.45 14.4 16.65 14.3 M16.45 21.4 L17.9 21.65 Q19.95 21.75 20.65 20.95 M18.1 12.0 Q19.25 11.15 19.6 9.9 L18.6 9.45 M18.3 9.3 L16.6 8.5 M12.25 11.0 Q13.35 10.7 14.1 10.2 15.2 9.45 15.65 8.05 M19.6 9.9 L19.95 10.05 M11.25 10.5 L9.95 9.75 9.85 9.35 M13.75 13.55 L12.05 13.0 10.15 13.1 9.8 13.4 9.75 13.45 Q9.4 14.0 9.85 14.9 M9.8 13.4 L9.05 13.65 Q8.2 13.7 7.75 12.8 7.3 14.3 8.6 16.2 L9.5 17.35 12.05 19.4 12.75 19.85 Q14.65 20.95 16.45 21.4 M8.85 28.45 L6.7 29.25 M18.75 19.45 L19.7 18.55 M17.9 15.25 L18.1 15.7 18.6 15.85 M14.2 13.75 L14.55 14.75 15.45 14.4 M12.85 16.85 L13.5 16.6 14.25 16.65 15.05 17.8 Q17.65 16.4 18.2 18.65 L18.25 19.0 18.3 19.4 18.35 19.75 18.35 20.05 18.35 20.3 M16.0 12.95 Q17.25 12.55 18.1 12.0 M10.35 12.05 L10.15 13.1 M18.9 25.2 L16.35 24.9 M10.2 30.0 L12.35 30.15 M4.2 25.15 L5.95 24.15 4.95 26.5" fill="none" stroke="#000000" stroke-linecap="round" stroke-linejoin="round" stroke-opacity="0.6627451" stroke-width="1.0"/>
    </g>
    <g id="sprite1" transform="matrix(1.0, 0.0, 0.0, 1.0, 0.0, 0.0)">
      <use height="32.5" transform="matrix(1.0, 0.0, 0.0, 1.0, 0.0, 0.0)" width="76.4" xlink:href="#shape1"/>
    </g>
    <g id="shape1" transform="matrix(1.0, 0.0, 0.0, 1.0, 0.0, 0.0)">
      <path d="M25.35 7.15 L25.3 7.2 25.35 7.15" fill="url(#gradient0)" fill-rule="evenodd" stroke="none"/>
      <path d="M24.45 7.5 L24.4 7.5 24.45 7.45 24.45 7.5" fill="url(#gradient1)" fill-rule="evenodd" stroke="none"/>
      <path d="M9.85 9.35 Q9.55 8.05 9.75 7.3 10.2 5.65 13.35 6.85 L13.4 6.9 14.6 7.5 15.65 8.05 16.6 8.5 18.3 9.3 18.6 9.45 19.6 9.9 19.95 10.05 20.0 10.1 20.7 10.8 Q21.85 12.1 22.1 13.8 L22.15 14.0 22.15 14.05 22.25 15.6 16.0 12.95 12.25 11.0 11.35 10.55 11.25 10.5 9.95 9.75 9.85 9.35" fill="url(#gradient2)" fill-rule="evenodd" stroke="none"/>
      <path d="M23.3 11.45 L26.65 12.7 31.85 14.35 37.4 15.65 43.35 16.6 49.15 17.0 55.85 16.9 62.6 16.2 68.05 15.15 72.55 13.95 75.4 13.0 76.15 13.75 Q76.85 14.95 75.7 16.95 74.5 17.65 72.1 18.0 L70.65 18.35 64.75 19.5 59.2 20.2 52.15 20.65 46.6 20.6 39.45 19.95 33.25 18.85 27.65 17.4 23.85 16.2 24.0 14.8 24.0 14.55 24.0 14.3 23.9 13.7 23.3 11.45" fill="url(#gradient3)" fill-rule="evenodd" stroke="none"/>
      <path d="M23.85 16.2 L23.7 16.65 Q23.35 17.65 22.6 18.45 L21.1 19.75 21.1 19.95 21.0 20.3 20.65 20.95 Q22.6 30.95 12.8 32.5 6.9 32.35 3.15 28.4 L2.05 27.05 Q1.25 25.95 0.55 24.65 -2.0 14.75 7.75 12.8 8.95 10.5 9.85 9.35 L9.95 9.75 11.25 10.5 11.0 10.8 Q10.6 11.35 10.35 12.05 L11.4 12.1 Q13.7 12.45 16.25 14.05 L16.65 14.3 15.45 14.4 14.2 13.75 13.75 13.55 Q13.15 13.45 12.05 14.05 10.0 13.15 9.85 14.9 L10.35 15.65 10.6 15.95 11.35 16.75 12.5 17.75 12.85 18.0 13.55 18.45 Q14.95 19.35 16.2 19.85 L17.35 20.15 17.4 20.15 18.35 20.3 Q19.35 20.35 19.7 19.8 20.0 19.3 19.7 18.55 L20.05 17.55 20.65 18.55 21.25 18.0 Q22.0 17.05 22.2 15.9 L22.2 15.8 22.25 15.65 22.25 15.6 22.15 14.05 22.15 14.0 22.1 13.8 Q21.85 12.1 20.7 10.8 L20.0 10.1 19.95 10.05 19.05 9.4 Q17.9 8.65 16.6 8.5 L15.65 8.05 14.6 7.5 13.4 6.9 16.2 6.6 Q19.1 6.75 21.35 8.8 L21.85 9.3 22.75 10.45 23.3 11.45 23.9 13.7 24.0 14.3 24.0 14.55 24.0 14.8 23.85 16.2" fill="url(#gradient4)" fill-rule="evenodd" stroke="none"/>
      <path d="M20.75 1.25 L20.75 1.45 Q20.75 2.05 20.35 2.45 19.95 2.9 19.35 2.9 18.75 2.9 18.35 2.45 L18.3 2.35 Q17.95 2.0 17.95 1.45 17.95 0.85 18.35 0.4 18.75 0.0 19.35 0.0 19.95 0.0 20.35 0.4 L20.75 1.25" fill="url(#gradient5)" fill-rule="evenodd" stroke="none"/>
      <path d="M24.4 7.5 L23.95 7.2 23.7 6.55 Q23.7 6.15 23.95 5.85 24.25 5.6 24.65 5.6 L25.3 5.85 25.6 6.55 25.4 7.15 25.35 7.15 25.3 7.2 24.65 7.5 24.45 7.5 24.45 7.45 24.4 7.5" fill="url(#gradient6)" fill-rule="evenodd" stroke="none"/>
      <path d="M20.05 17.55 L19.7 18.55 Q20.0 19.3 19.7 19.8 19.35 20.35 18.35 20.3 L17.4 20.15 17.35 20.15 16.2 19.85 Q14.95 19.35 13.55 18.45 L12.85 18.0 12.5 17.75 11.35 16.75 10.6 15.95 10.35 15.65 9.85 14.9 Q10.0 13.15 12.05 14.05 13.15 13.45 13.75 13.55 L14.2 13.75 14.55 14.75 15.45 14.4 16.65 14.3 17.9 15.25 18.1 15.7 18.6 15.85 Q19.65 16.2 19.95 16.9 L20.05 17.55" fill="url(#gradient7)" fill-rule="evenodd" stroke="none"/>
    </g>
    <linearGradient gradientTransform="matrix(0.0, 0.0, 0.0, 0.0, 25.3, 7.15)" gradientUnits="userSpaceOnUse" id="gradient0" spreadMethod="pad" x1="-819.2" x2="819.2">
      <stop offset="0.0" stop-color="#000000"/>
      <stop offset="1.0" stop-color="#ffffff"/>
    </linearGradient>
    <linearGradient gradientTransform="matrix(0.0, 0.0, 0.0, 0.0, 24.4, 7.45)" gradientUnits="userSpaceOnUse" id="gradient1" spreadMethod="pad" x1="-819.2" x2="819.2">
      <stop offset="0.0" stop-color="#000000"/>
      <stop offset="1.0" stop-color="#ffffff"/>
    </linearGradient>
    <linearGradient gradientTransform="matrix(-0.004, -0.0148, 0.0054, -0.0015, 15.95, 10.95)" gradientUnits="userSpaceOnUse" id="gradient2" spreadMethod="pad" x1="-819.2" x2="819.2">
      <stop offset="0.0" stop-color="#000000"/>
      <stop offset="1.0" stop-color="#ffffff"/>
    </linearGradient>
    <linearGradient gradientTransform="matrix(-0.0069, -0.0256, 0.0054, -0.0015, 49.85, 15.95)" gradientUnits="userSpaceOnUse" id="gradient3" spreadMethod="pad" x1="-819.2" x2="819.2">
      <stop offset="0.0" stop-color="#000000"/>
      <stop offset="1.0" stop-color="#ffffff"/>
    </linearGradient>
    <linearGradient gradientTransform="matrix(-0.0073, -0.0127, 0.0137, -0.0079, 12.0, 19.6)" gradientUnits="userSpaceOnUse" id="gradient4" spreadMethod="pad" x1="-819.2" x2="819.2">
      <stop offset="0.0" stop-color="#000000"/>
      <stop offset="1.0" stop-color="#ffffff"/>
    </linearGradient>
    <linearGradient gradientTransform="matrix(0.0118, 0.0, 0.0, 0.0018, 19.35, 1.45)" gradientUnits="userSpaceOnUse" id="gradient5" spreadMethod="pad" x1="-819.2" x2="819.2">
      <stop offset="0.0" stop-color="#000000"/>
      <stop offset="1.0" stop-color="#ffffff"/>
    </linearGradient>
    <linearGradient gradientTransform="matrix(0.0102, 0.0, 0.0, 0.0012, 24.65, 6.55)" gradientUnits="userSpaceOnUse" id="gradient6" spreadMethod="pad" x1="-819.2" x2="819.2">
      <stop offset="0.0" stop-color="#000000"/>
      <stop offset="1.0" stop-color="#ffffff"/>
    </linearGradient>
    <linearGradient gradientTransform="matrix(0.0278, 0.0, 0.0, 0.0041, 23.6, 19.0)" gradientUnits="userSpaceOnUse" id="gradient7" spreadMethod="pad" x1="-819.2" x2="819.2">
      <stop offset="0.0" stop-color="#000000"/>
      <stop offset="1.0" stop-color="#ffffff"/>
    </linearGradient>
  </defs>
</svg>
