<?xml version="1.0" encoding="UTF-8" standalone="no"?>
<svg xmlns:xlink="http://www.w3.org/1999/xlink" height="531.5px" width="460.6px" xmlns="http://www.w3.org/2000/svg">
  <g transform="matrix(1.0, 0.0, 0.0, 1.0, 193.65, 334.05)">
    <use height="95.9" transform="matrix(1.1436, 1.1076, -1.1076, 1.1436, 16.0923, -90.7347)" width="87.3" xlink:href="#sprite0"/>
    <use height="97.55" transform="matrix(1.0, 0.0, 0.0, 1.0, -70.8, -58.8)" width="58.2" xlink:href="#shape2"/>
  </g>
  <defs>
    <g id="sprite0" transform="matrix(1.0, 0.0, 0.0, 1.0, 43.65, 47.95)">
      <use height="95.9" transform="matrix(1.0, 0.0, 0.0, 1.0, -43.65, -47.95)" width="87.3" xlink:href="#shape0"/>
      <use height="94.9" transform="matrix(1.0, 0.0, 0.0, 1.0, -43.15, -47.45)" width="86.3" xlink:href="#sprite1"/>
    </g>
    <g id="shape0" transform="matrix(1.0, 0.0, 0.0, 1.0, 43.65, 47.95)">
      <path d="M39.2 -43.7 Q39.9 -43.75 40.3 -44.2 40.75 -44.75 40.7 -45.4 40.65 -46.05 40.2 -46.45 39.65 -46.95 39.05 -46.9 38.4 -46.9 37.95 -46.35 37.5 -45.9 37.55 -45.25 37.5 -44.55 38.05 -44.05 38.5 -43.65 39.2 -43.7 M34.5 -41.35 Q34.75 -40.55 35.35 -39.9 34.75 -40.55 34.5 -41.35 L34.2 -42.7 Q34.1 -44.55 35.3 -45.95 36.55 -47.3 38.45 -47.45 40.3 -47.5 41.65 -46.25 L42.2 -45.65 41.85 -45.05 40.6 -43.6 Q39.7 -42.6 37.8 -41.3 36.25 -40.2 35.35 -39.9 L35.65 -39.6 35.95 -39.4 Q28.5 -31.9 20.05 -22.55 L18.7 -23.75 20.05 -22.55 20.65 -21.9 16.05 -16.35 8.4 -7.5 1.05 0.55 Q-0.05 1.8 -2.75 3.15 L-3.0 3.3 -5.0 1.25 -4.25 0.45 17.95 -24.4 18.7 -23.75 34.5 -41.35 M-40.55 45.45 L-40.7 45.35 -42.0 43.7 -42.5 42.95 Q-43.05 41.75 -42.5 41.15 L-39.85 43.9 -39.05 44.7 -39.9 45.15 -40.55 45.45" fill="#a2a2a2" fill-rule="evenodd" stroke="none"/>
      <path d="M39.2 -43.7 Q38.5 -43.65 38.05 -44.05 37.5 -44.55 37.55 -45.25 37.5 -45.9 37.95 -46.35 38.4 -46.9 39.05 -46.9 39.65 -46.95 40.2 -46.45 40.65 -46.05 40.7 -45.4 40.75 -44.75 40.3 -44.2 39.9 -43.75 39.2 -43.7" fill="#ffffff" fill-rule="evenodd" stroke="none"/>
      <path d="M20.05 -22.55 Q28.5 -31.9 35.95 -39.4 L35.65 -39.6 35.35 -39.9 Q36.25 -40.2 37.8 -41.3 39.7 -42.6 40.6 -43.6 L41.85 -45.05 42.2 -45.65 Q43.1 -44.6 43.15 -43.2 43.3 -41.3 42.05 -39.95 40.8 -38.6 38.9 -38.5 L37.5 -38.6 21.75 -20.95 22.4 -20.35 0.25 4.5 -0.5 5.3 -2.0 4.1 -3.0 3.3 -2.75 3.15 Q-0.05 1.8 1.05 0.55 L8.4 -7.5 16.05 -16.35 20.65 -21.9 21.75 -20.95 20.65 -21.9 20.05 -22.55 M-36.3 46.7 L-38.15 46.85 -40.55 45.45 -39.9 45.15 -39.05 44.7 -36.4 46.6 -36.3 46.7 M37.5 -38.6 L35.95 -39.4 37.5 -38.6" fill="#626262" fill-rule="evenodd" stroke="none"/>
      <path d="M0.25 4.5 L1.8 6.4 Q-17.5 26.2 -35.0 47.45 L-36.3 46.7 -36.4 46.6 -39.05 44.7 -39.85 43.9 Q-37.6 43.5 -34.5 40.9 -31.05 38.15 -24.55 30.9 L-10.45 14.95 -4.3 8.0 -2.5 6.05 Q-1.8 5.05 -2.0 4.1 L-0.5 5.3 0.25 4.5 M0.6 5.95 L-0.5 5.3 0.6 5.95" fill="#121212" fill-rule="evenodd" stroke="none"/>
      <path d="M-42.5 41.15 L-42.55 41.0 -43.15 40.15 Q-23.4 19.45 -6.35 -0.85 L-4.25 0.45 -5.0 1.25 -3.0 3.3 -2.0 4.1 Q-1.8 5.05 -2.5 6.05 L-4.3 8.0 -10.45 14.95 -24.55 30.9 Q-31.05 38.15 -34.5 40.9 -37.6 43.5 -39.85 43.9 L-42.5 41.15 M-5.0 1.25 L-5.8 0.25 -5.0 1.25" fill="#222222" fill-rule="evenodd" stroke="none"/>
      <path d="M35.35 -39.9 Q34.75 -40.55 34.5 -41.35 L18.7 -23.75 20.05 -22.55 20.65 -21.9 21.75 -20.95 22.4 -20.35 0.25 4.5 1.8 6.4 Q-17.5 26.2 -35.0 47.45 L-36.3 46.7 -38.15 46.85 -40.55 45.45 -40.7 45.35 -42.0 43.7 -42.5 42.95 Q-43.05 41.75 -42.5 41.15 L-42.55 41.0 -43.15 40.15 Q-23.4 19.45 -6.35 -0.85 L-4.25 0.45 17.95 -24.4 18.7 -23.75 M35.95 -39.4 L35.65 -39.6 35.35 -39.9 M42.2 -45.65 L41.65 -46.25 Q40.3 -47.5 38.45 -47.45 36.55 -47.3 35.3 -45.95 34.1 -44.55 34.2 -42.7 L34.5 -41.35 M42.2 -45.65 Q43.1 -44.6 43.15 -43.2 43.3 -41.3 42.05 -39.95 40.8 -38.6 38.9 -38.5 L37.5 -38.6 21.75 -20.95 M35.95 -39.4 L37.5 -38.6 M-3.0 3.3 L-2.0 4.1 -0.5 5.3 0.25 4.5 M-39.85 43.9 L-39.05 44.7 -36.4 46.6 -36.3 46.7 M-5.8 0.25 L-5.0 1.25 -4.25 0.45 M-5.0 1.25 L-3.0 3.3 M-39.85 43.9 L-42.5 41.15 M-0.5 5.3 L0.6 5.95" fill="none" stroke="#000000" stroke-linecap="round" stroke-linejoin="round" stroke-opacity="0.6627451" stroke-width="1.0"/>
    </g>
    <g id="sprite1" transform="matrix(1.0, 0.0, 0.0, 1.0, 43.15, 47.45)">
      <use height="94.9" transform="matrix(1.0, 0.0, 0.0, 1.0, -43.15, -47.45)" width="86.3" xlink:href="#shape1"/>
    </g>
    <g id="shape1" transform="matrix(1.0, 0.0, 0.0, 1.0, 43.15, 47.45)">
      <path d="M34.5 -41.35 Q34.75 -40.55 35.35 -39.9 L35.65 -39.6 35.95 -39.4 37.5 -38.6 21.75 -20.95 20.65 -21.9 20.05 -22.55 18.7 -23.75 34.5 -41.35" fill="url(#gradient0)" fill-rule="evenodd" stroke="none"/>
      <path d="M21.75 -20.95 L22.4 -20.35 0.25 4.5 -0.5 5.3 -2.0 4.1 -3.0 3.3 -5.0 1.25 -4.25 0.45 17.95 -24.4 18.7 -23.75 20.05 -22.55 20.65 -21.9 21.75 -20.95" fill="url(#gradient1)" fill-rule="evenodd" stroke="none"/>
      <path d="M-36.3 46.7 L-38.15 46.85 -40.55 45.45 -40.7 45.35 -42.0 43.7 -42.5 42.95 Q-43.05 41.75 -42.5 41.15 L-39.85 43.9 -39.05 44.7 -36.4 46.6 -36.3 46.7" fill="url(#gradient2)" fill-rule="evenodd" stroke="none"/>
      <path d="M34.5 -41.35 L34.2 -42.7 Q34.1 -44.55 35.3 -45.95 36.55 -47.3 38.45 -47.45 40.3 -47.5 41.65 -46.25 L42.2 -45.65 Q43.1 -44.6 43.15 -43.2 43.3 -41.3 42.05 -39.95 40.8 -38.6 38.9 -38.5 L37.5 -38.6 35.95 -39.4 35.65 -39.6 35.35 -39.9 Q34.75 -40.55 34.5 -41.35" fill="url(#gradient3)" fill-rule="evenodd" stroke="none"/>
      <path d="M0.25 4.5 L1.8 6.4 Q-17.5 26.2 -35.0 47.45 L-36.3 46.7 -36.4 46.6 -39.05 44.7 -39.85 43.9 -42.5 41.15 -42.55 41.0 -43.15 40.15 Q-23.4 19.45 -6.35 -0.85 L-4.25 0.45 -5.0 1.25 -3.0 3.3 -2.0 4.1 -0.5 5.3 0.25 4.5" fill="url(#gradient4)" fill-rule="evenodd" stroke="none"/>
    </g>
    <linearGradient gradientTransform="matrix(0.0115, 0.0, 0.0, 0.0125, 28.1, -31.15)" gradientUnits="userSpaceOnUse" id="gradient0" spreadMethod="pad" x1="-819.2" x2="819.2">
      <stop offset="0.0" stop-color="#000000"/>
      <stop offset="1.0" stop-color="#ffffff"/>
    </linearGradient>
    <linearGradient gradientTransform="matrix(0.0167, 0.0, 0.0, 0.0181, 8.7, -9.55)" gradientUnits="userSpaceOnUse" id="gradient1" spreadMethod="pad" x1="-819.2" x2="819.2">
      <stop offset="0.0" stop-color="#000000"/>
      <stop offset="1.0" stop-color="#ffffff"/>
    </linearGradient>
    <linearGradient gradientTransform="matrix(0.004, 0.0, 0.0, 0.0036, -39.55, 44.05)" gradientUnits="userSpaceOnUse" id="gradient2" spreadMethod="pad" x1="-819.2" x2="819.2">
      <stop offset="0.0" stop-color="#000000"/>
      <stop offset="1.0" stop-color="#ffffff"/>
    </linearGradient>
    <linearGradient gradientTransform="matrix(0.0017, -0.0052, 0.0052, 0.0017, 38.65, -43.0)" gradientUnits="userSpaceOnUse" id="gradient3" spreadMethod="pad" x1="-819.2" x2="819.2">
      <stop offset="0.0" stop-color="#000000"/>
      <stop offset="1.0" stop-color="#ffffff"/>
    </linearGradient>
    <linearGradient gradientTransform="matrix(-0.0066, -0.0083, 0.0231, -0.0183, -20.7, 23.3)" gradientUnits="userSpaceOnUse" id="gradient4" spreadMethod="pad" x1="-819.2" x2="819.2">
      <stop offset="0.0" stop-color="#000000"/>
      <stop offset="1.0" stop-color="#ffffff"/>
    </linearGradient>
    <g id="shape2" transform="matrix(1.0, 0.0, 0.0, 1.0, 70.8, 58.8)">
      <path d="M-53.05 -58.1 L-52.85 -58.1 -51.75 -58.15 -51.8 -58.05 -53.35 -54.05 -55.45 -48.9 Q-59.05 -39.7 -61.1 -33.1 -63.2 -26.6 -64.65 -20.55 -65.35 -18.1 -65.5 -15.55 L-66.05 -8.6 Q-66.3 -4.15 -65.45 1.65 L-63.35 15.0 Q-62.05 22.6 -61.15 25.85 L-59.85 29.3 -58.7 31.35 -60.2 29.95 -60.4 29.7 Q-62.05 27.45 -63.05 24.6 -64.15 21.5 -65.7 14.25 L-68.2 1.45 Q-69.2 -4.1 -68.95 -8.35 L-68.5 -15.0 Q-68.3 -17.4 -67.6 -19.75 -66.05 -25.55 -63.8 -31.75 -61.6 -38.05 -57.7 -46.85 L-54.65 -53.65 -53.25 -56.85 Q-52.75 -58.1 -53.05 -57.6 L-53.05 -57.65 -53.05 -58.1 M-15.75 -43.95 L-13.75 -41.35 -19.85 -27.55 Q-22.0 -22.55 -23.15 -18.9 L-23.75 -16.4 Q-24.5 -13.15 -24.5 -11.85 L-24.0 -8.0 Q-23.55 -5.55 -22.85 -4.15 L-22.65 -3.6 -24.4 -3.65 -24.6 -4.2 Q-25.25 -5.7 -25.6 -8.25 L-26.0 -12.3 Q-26.0 -13.65 -25.25 -17.05 L-24.7 -19.65 -21.65 -28.7 -15.75 -43.95 M-25.3 24.7 L-23.95 24.7 -23.95 24.65 -23.8 24.45 -23.75 24.5 -23.6 24.55 -23.8 24.55 -23.8 24.85 Q-23.65 25.55 -24.5 28.75 -25.4 31.95 -26.15 32.9 L-26.9 33.8 Q-26.55 31.75 -26.55 29.25 L-26.65 26.1 -26.55 26.35 -25.75 25.5 -25.3 24.7 M-21.2 -3.55 L-19.45 -3.6 Q-18.75 -3.6 -18.25 -2.8 L-17.45 -0.95 -17.4 -0.8 -16.55 1.85 -16.4 2.15 -16.0 3.7 -16.25 4.35 -16.85 4.6 -16.85 4.65 -17.5 4.75 -19.4 5.25 -19.75 5.1 -19.3 5.0 -19.3 4.95 -18.8 4.65 -18.6 4.35 -18.55 4.0 -18.95 2.35 -19.0 2.05 -19.8 -0.7 -19.8 -0.9 -20.5 -2.8 -21.2 -3.55 M-24.6 8.9 L-24.7 9.25 -25.55 14.9 -25.55 15.8 -25.55 16.55 -25.55 19.05 -25.5 19.45 -25.65 20.3 -25.6 20.25 -26.2 22.65 -26.85 24.9 -26.7 25.8 -27.0 25.8 Q-27.55 25.8 -27.65 24.0 L-27.65 21.2 -27.45 17.25 -26.95 12.4 Q-26.75 10.85 -25.15 9.35 L-24.6 8.9 M-41.45 34.55 L-41.3 33.85 -41.3 33.8 -41.25 33.75 -41.05 33.55 -41.0 33.55 -40.85 34.15 -40.8 34.2 -40.9 34.25 -41.45 34.55" fill="#bdbdbd" fill-rule="evenodd" stroke="none"/>
      <path d="M-53.05 -58.1 L-53.05 -57.65 -53.05 -57.6 Q-52.75 -58.1 -53.25 -56.85 L-54.65 -53.65 -57.7 -46.85 Q-61.6 -38.05 -63.8 -31.75 -66.05 -25.55 -67.6 -19.75 -68.3 -17.4 -68.5 -15.0 L-68.95 -8.35 Q-69.2 -4.1 -68.2 1.45 L-65.7 14.25 Q-64.15 21.5 -63.05 24.6 -62.05 27.45 -60.4 29.7 L-60.2 29.95 -58.7 31.35 Q-57.1 32.3 -54.6 32.65 L-54.3 32.7 -54.8 31.95 Q-55.7 30.5 -55.7 29.5 L-55.35 28.7 Q-55.1 28.35 -52.3 32.4 -49.55 36.45 -46.7 36.4 -43.9 36.3 -42.25 35.05 L-41.45 34.55 -40.9 34.25 -40.8 34.2 -40.85 34.15 -41.0 33.55 -41.05 33.25 -40.9 32.2 -40.6 31.95 -38.1 34.3 Q-35.9 35.7 -34.1 36.15 L-34.05 36.15 -32.55 36.4 -32.05 36.4 Q-30.25 36.35 -29.2 35.8 -28.55 35.45 -27.75 34.75 L-26.9 33.8 -26.15 32.9 Q-25.4 31.95 -24.5 28.75 -23.65 25.55 -23.8 24.85 L-23.8 24.55 -23.6 24.55 -23.3 24.5 -22.85 24.4 -22.15 24.35 -22.1 25.5 Q-22.3 27.4 -23.2 30.25 L-24.2 32.45 -25.25 34.5 -26.75 36.55 -27.3 37.2 Q-29.7 38.65 -31.85 38.75 L-31.9 38.75 -32.1 38.75 Q-35.9 38.7 -38.75 36.5 L-39.1 36.2 -40.7 37.05 Q-43.65 38.55 -45.35 38.55 L-45.65 38.55 Q-47.2 38.5 -48.65 37.85 -50.9 36.9 -52.9 34.55 L-52.9 34.5 -53.1 34.6 -53.55 34.7 -54.6 34.75 Q-62.0 34.75 -65.1 24.25 L-66.55 18.95 -67.8 13.3 -69.5 2.8 Q-70.8 -4.65 -70.8 -8.3 -70.8 -12.0 -69.45 -17.8 -68.1 -23.65 -60.6 -43.35 -53.75 -61.5 -53.1 -58.3 L-53.05 -58.1 M-13.75 -41.35 L-13.6 -41.75 -13.05 -41.4 -12.9 -41.25 Q-12.6 -40.85 -12.6 -40.0 L-17.85 -28.9 Q-23.1 -16.8 -23.1 -10.9 L-22.6 -7.0 -22.15 -5.2 -22.05 -4.95 -19.75 -5.25 -17.4 -4.95 -16.6 -3.55 Q-15.25 -0.9 -14.7 2.1 L-14.55 2.75 Q-14.2 4.45 -14.2 5.05 -14.2 5.95 -14.8 6.2 L-16.7 6.65 -17.15 6.7 Q-18.9 6.95 -20.65 7.9 -22.45 8.8 -22.9 10.55 -23.45 12.25 -23.65 14.85 L-23.75 16.25 -23.8 16.55 -24.1 18.4 -24.25 20.05 Q-24.55 22.8 -25.2 24.45 L-25.3 24.65 -25.3 24.7 -25.75 25.5 -26.55 26.35 -26.65 26.1 -26.7 25.8 -26.85 24.9 -26.2 22.65 -25.6 20.25 -25.65 20.3 -25.5 19.45 -25.55 19.05 -25.55 16.55 -25.55 15.8 -25.55 14.9 -24.7 9.25 -24.6 8.9 Q-24.4 8.3 -23.7 7.65 L-22.6 6.8 -22.05 6.45 Q-20.75 5.7 -19.4 5.25 L-17.5 4.75 -16.85 4.65 -16.85 4.6 -16.25 4.35 -16.0 3.7 -16.4 2.15 -16.55 1.85 -17.4 -0.8 -17.45 -0.95 -18.25 -2.8 Q-18.75 -3.6 -19.45 -3.6 L-21.2 -3.55 -22.65 -3.6 -22.85 -4.15 Q-23.55 -5.55 -24.0 -8.0 L-24.5 -11.85 Q-24.5 -13.15 -23.75 -16.4 L-23.15 -18.9 Q-22.0 -22.55 -19.85 -27.55 L-13.75 -41.35" fill="#000000" fill-rule="evenodd" stroke="none"/>
      <path d="M-58.7 31.35 L-59.85 29.3 -61.15 25.85 Q-62.05 22.6 -63.35 15.0 L-65.45 1.65 Q-66.3 -4.15 -66.05 -8.6 L-65.5 -15.55 Q-65.35 -18.1 -64.65 -20.55 -63.2 -26.6 -61.1 -33.1 -59.05 -39.7 -55.45 -48.9 L-53.35 -54.05 -51.8 -58.05 -51.75 -58.15 Q-27.65 -58.45 -15.75 -43.95 L-21.65 -28.7 -24.7 -19.65 -25.25 -17.05 Q-26.0 -13.65 -26.0 -12.3 L-25.6 -8.25 Q-25.25 -5.7 -24.6 -4.2 L-24.4 -3.65 -22.65 -3.6 -21.2 -3.55 -20.5 -2.8 -19.8 -0.9 -19.8 -0.7 -19.0 2.05 -18.95 2.35 -18.55 4.0 -18.6 4.35 -18.8 4.65 -19.3 4.95 -19.3 5.0 -19.75 5.1 -19.4 5.25 Q-20.75 5.7 -22.05 6.45 L-22.6 6.8 -23.7 7.65 Q-24.4 8.3 -24.6 8.9 L-25.15 9.35 Q-26.75 10.85 -26.95 12.4 L-27.45 17.25 -27.65 21.2 -27.65 24.0 Q-27.55 25.8 -27.0 25.8 L-26.7 25.8 -26.65 26.1 -26.55 29.25 Q-26.55 31.75 -26.9 33.8 L-27.75 34.75 Q-28.55 35.45 -29.2 35.8 -30.25 36.35 -32.05 36.4 L-32.55 36.4 -34.05 36.15 -34.1 36.15 Q-35.9 35.7 -38.1 34.3 L-40.6 31.95 -40.9 32.2 -41.05 33.25 -41.0 33.55 -41.05 33.55 -41.25 33.75 -41.3 33.8 -41.3 33.85 -41.45 34.55 -42.25 35.05 Q-43.9 36.3 -46.7 36.4 -49.55 36.45 -52.3 32.4 -55.1 28.35 -55.35 28.7 L-55.7 29.5 Q-55.7 30.5 -54.8 31.95 L-54.3 32.7 -54.6 32.65 Q-57.1 32.3 -58.7 31.35" fill="#999999" fill-rule="evenodd" stroke="none"/>
    </g>
  </defs>
</svg>
