<?xml version="1.0" encoding="UTF-8" standalone="no"?>
<svg xmlns:xlink="http://www.w3.org/1999/xlink" height="531.5px" width="460.6px" xmlns="http://www.w3.org/2000/svg">
  <g transform="matrix(1.0, 0.0, 0.0, 1.0, 193.65, 334.05)">
    <use height="69.45" transform="matrix(0.457, 0.0, 0.0, 0.457, -67.9997, -30.0497)" width="283.4" xlink:href="#sprite0"/>
  </g>
  <defs>
    <g id="sprite0" transform="matrix(1.0, 0.0, 0.0, 1.0, 1.75, 1.75)">
      <use height="69.45" transform="matrix(1.0, 0.0, 0.0, 1.0, -1.75, -1.75)" width="283.4" xlink:href="#shape0"/>
      <use height="65.95" transform="matrix(1.0, 0.0, 0.0, 1.0, 0.0, 0.0)" width="279.9" xlink:href="#sprite1"/>
    </g>
    <g id="shape0" transform="matrix(1.0, 0.0, 0.0, 1.0, 1.75, 1.75)">
      <path d="M279.9 20.5 L276.35 20.55 270.25 20.25 262.75 19.75 Q261.35 19.65 260.35 15.9 L278.3 15.8 Q279.85 16.85 279.9 19.45 L279.9 20.5 M1.15 5.9 Q1.8 1.8 4.35 0.0 100.2 11.1 186.75 14.5 186.5 20.8 182.45 21.6 L177.85 21.7 Q174.15 21.55 172.15 21.75 L172.2 21.8 124.1 19.9 65.95 16.55 Q57.8 15.0 43.05 13.35 L20.2 10.7 Q7.25 8.85 1.15 5.9" fill="#734910" fill-rule="evenodd" stroke="none"/>
      <path d="M260.35 15.9 Q261.35 19.65 262.75 19.75 L270.25 20.25 276.35 20.55 279.9 20.5 279.6 30.1 277.05 36.15 Q273.6 43.6 268.9 49.4 L267.1 49.5 267.15 48.55 Q267.15 45.05 266.2 42.2 265.75 40.75 263.5 35.75 L263.45 34.95 263.45 34.8 266.6 34.9 Q269.6 34.8 271.6 33.95 273.75 33.05 273.7 31.95 273.65 30.9 271.45 30.2 269.4 29.55 266.4 29.65 L262.8 30.15 Q261.45 24.6 257.85 20.1 256.05 17.9 253.7 15.9 L257.7 15.9 260.35 15.9 M198.75 15.8 Q192.3 21.25 190.15 28.15 189.4 30.5 189.2 33.0 L186.8 34.65 Q185.55 38.6 185.55 41.55 185.55 45.8 187.15 50.15 147.4 49.0 103.7 45.15 L96.85 43.6 56.75 34.55 Q37.3 29.95 19.0 20.6 7.65 14.8 0.7 8.75 L1.0 6.8 1.1 6.0 1.15 5.9 Q7.25 8.85 20.2 10.7 L43.05 13.35 Q57.8 15.0 65.95 16.55 L124.1 19.9 172.2 21.8 172.15 21.75 Q174.15 21.55 177.85 21.7 L182.45 21.6 Q186.5 20.8 186.75 14.5 L198.75 14.9 198.75 15.8 M252.15 42.2 Q250.3 46.15 245.85 49.3 L244.4 50.3 Q239.3 53.45 232.9 54.3 L228.35 54.55 Q219.45 54.55 212.75 50.6 L210.8 49.3 210.55 49.1 Q210.05 47.7 209.85 46.25 L209.55 43.3 209.1 42.9 209.15 41.3 209.55 38.05 210.05 37.8 Q210.25 36.65 210.6 35.65 211.5 33.0 213.15 30.95 218.65 24.15 232.15 24.15 235.75 24.15 241.6 25.95 246.6 27.5 250.6 27.7 L251.4 28.8 252.8 31.75 251.1 31.75 248.0 31.75 229.55 31.75 Q226.35 32.0 226.95 34.55 L226.95 35.75 226.95 39.7 226.85 39.7 226.75 40.35 Q226.75 43.65 229.55 44.55 L235.35 44.95 243.2 44.75 Q247.55 44.2 252.15 42.2 M262.85 43.0 L262.9 42.9 263.15 42.95 262.85 43.0 M172.4 29.3 Q169.7 28.25 165.75 28.05 161.75 27.9 158.9 28.7 156.15 29.55 156.05 30.9 156.0 32.25 158.7 33.3 161.45 34.4 165.45 34.55 L172.2 33.9 Q175.05 33.1 175.1 31.75 175.2 30.4 172.4 29.3 M121.65 31.0 Q124.6 30.35 124.7 29.1 124.8 27.85 121.95 26.8 119.2 25.7 115.2 25.4 L108.15 25.7 Q105.25 26.3 105.15 27.55 105.05 28.8 107.85 29.9 110.65 31.0 114.7 31.35 L121.65 31.0" fill="#5c3501" fill-rule="evenodd" stroke="none"/>
      <path d="M253.7 15.9 Q256.05 17.9 257.85 20.1 L257.55 22.15 Q257.05 24.95 256.15 24.95 L251.45 21.25 Q246.9 17.2 243.55 16.15 240.65 15.2 226.8 13.3 213.65 11.5 211.55 10.55 L212.75 8.75 Q218.75 7.2 226.1 7.2 243.3 7.2 253.6 15.8 L253.7 15.9 M199.2 45.35 Q198.75 43.5 198.75 41.35 198.75 38.9 198.95 38.3 199.55 36.45 201.95 36.15 L202.65 36.15 203.55 36.15 203.55 36.75 203.55 37.3 Q203.8 44.15 210.55 49.1 L210.8 49.3 212.75 50.6 Q219.45 54.55 228.35 54.55 L232.9 54.3 Q234.7 55.5 235.15 56.55 233.35 57.5 231.5 57.7 L225.35 57.75 Q215.9 57.75 210.3 56.0 L209.55 55.75 Q200.9 52.75 199.2 45.35 M248.0 31.75 Q249.15 32.7 249.55 33.75 249.55 36.15 245.55 36.55 L235.35 36.55 227.15 36.55 226.95 35.75 226.95 34.55 Q226.35 32.0 229.55 31.75 L248.0 31.75" fill="#feeeb4" fill-rule="evenodd" stroke="none"/>
      <path d="M257.85 20.1 Q261.45 24.6 262.8 30.15 263.3 32.35 263.45 34.8 L263.45 34.95 263.5 35.75 263.5 37.5 Q263.4 40.3 262.9 42.9 L262.85 43.0 Q260.95 43.15 258.9 45.75 L254.0 51.95 Q245.2 60.95 226.15 60.95 L218.5 60.1 218.35 60.4 216.85 59.7 212.55 57.45 210.3 56.0 Q215.9 57.75 225.35 57.75 L231.5 57.7 Q233.35 57.5 235.15 56.55 234.7 55.5 232.9 54.3 239.3 53.45 244.4 50.3 L245.85 49.3 Q250.3 46.15 252.15 42.2 L252.65 41.0 253.3 38.55 252.65 41.0 250.2 41.1 252.9 38.85 253.3 38.55 253.85 38.05 254.2 37.75 Q254.95 36.4 255.1 35.35 L255.15 32.75 Q255.15 25.05 246.75 19.75 239.15 14.95 230.15 14.95 215.0 14.95 208.2 20.35 203.6 24.0 200.85 32.15 201.2 33.55 201.95 35.0 L202.65 36.15 201.95 36.15 Q199.55 36.45 198.95 38.3 198.75 38.9 198.75 41.35 198.75 43.5 199.2 45.35 L195.55 39.75 Q193.55 36.2 191.45 31.35 L190.15 28.15 Q192.3 21.25 198.75 15.8 L199.8 14.95 Q205.25 10.65 212.75 8.75 L211.55 10.55 Q213.65 11.5 226.8 13.3 240.65 15.2 243.55 16.15 246.9 17.2 251.45 21.25 L256.15 24.95 Q257.05 24.95 257.55 22.15 L257.85 20.1 M248.0 31.75 L251.1 31.75 Q250.15 35.05 245.25 38.65 L241.0 41.4 230.35 41.7 Q228.25 41.5 226.95 39.7 L226.95 35.75 227.15 36.55 235.35 36.55 245.55 36.55 Q249.55 36.15 249.55 33.75 249.15 32.7 248.0 31.75" fill="#e8cb3e" fill-rule="evenodd" stroke="none"/>
      <path d="M190.15 28.15 L191.45 31.35 Q193.55 36.2 195.55 39.75 L199.2 45.35 Q200.9 52.75 209.55 55.75 L210.3 56.0 212.55 57.45 216.85 59.7 218.35 60.4 218.5 60.1 226.15 60.95 Q245.2 60.95 254.0 51.95 L258.9 45.75 Q260.95 43.15 262.85 43.0 262.05 46.6 260.3 49.8 257.55 54.75 252.4 58.55 244.95 63.95 235.35 65.4 L226.35 65.9 Q211.1 65.35 200.3 56.9 196.4 53.85 193.85 50.3 189.4 44.1 189.1 36.45 L189.2 33.0 Q189.4 30.5 190.15 28.15 M202.65 36.15 L201.95 35.0 Q201.2 33.55 200.85 32.15 203.6 24.0 208.2 20.35 215.0 14.95 230.15 14.95 239.15 14.95 246.75 19.75 255.15 25.05 255.15 32.75 L255.1 35.35 Q254.95 36.4 254.2 37.75 L253.85 38.05 253.3 38.55 252.9 38.85 250.2 41.1 241.0 41.4 245.25 38.65 Q250.15 35.05 251.1 31.75 L252.8 31.75 251.4 28.8 250.6 27.7 Q249.3 26.05 247.45 24.55 241.15 19.55 229.25 18.9 217.35 18.2 210.45 23.8 203.85 29.15 203.55 36.15 L202.65 36.15 M252.8 31.75 Q253.55 34.15 253.45 36.85 L253.3 38.55 253.45 36.85 Q253.55 34.15 252.8 31.75" fill="#c99e00" fill-rule="evenodd" stroke="none"/>
      <path d="M263.5 35.75 Q265.75 40.75 266.2 42.2 267.15 45.05 267.15 48.55 L267.1 49.5 260.3 49.8 Q262.05 46.6 262.85 43.0 L263.15 42.95 262.9 42.9 Q263.4 40.3 263.5 37.5 L263.5 35.75 M268.9 49.4 Q273.6 43.6 277.05 36.15 L279.6 30.1 279.3 39.4 Q279.65 49.3 276.5 48.95 L268.9 49.4 M252.65 41.0 L252.15 42.2 Q247.55 44.2 243.2 44.75 L235.35 44.95 229.55 44.55 Q226.75 43.65 226.75 40.35 L226.85 39.7 226.95 39.7 Q228.25 41.5 230.35 41.7 L241.0 41.4 250.2 41.1 252.65 41.0 M250.6 27.7 Q246.6 27.5 241.6 25.95 235.75 24.15 232.15 24.15 218.65 24.15 213.15 30.95 211.5 33.0 210.6 35.65 210.25 36.65 210.05 37.8 L209.55 38.05 209.15 41.3 209.1 42.9 209.55 43.3 209.85 46.25 Q210.05 47.7 210.55 49.1 203.8 44.15 203.55 37.3 L203.55 36.75 203.55 36.15 Q203.85 29.15 210.45 23.8 217.35 18.2 229.25 18.9 241.15 19.55 247.45 24.55 249.3 26.05 250.6 27.7 M193.85 50.3 L187.15 50.15 Q185.55 45.8 185.55 41.55 185.55 38.6 186.8 34.65 L189.2 33.0 189.1 36.45 Q189.4 44.1 193.85 50.3 M103.7 45.15 Q72.35 42.35 39.0 38.2 L3.8 33.45 Q1.0 32.8 0.75 29.25 -0.75 19.05 0.7 8.75 7.65 14.8 19.0 20.6 37.3 29.95 56.75 34.55 L96.85 43.6 103.7 45.15" fill="#4a2a00" fill-rule="evenodd" stroke="none"/>
      <path d="M262.8 30.15 L266.4 29.65 Q269.4 29.55 271.45 30.2 273.65 30.9 273.7 31.95 273.75 33.05 271.6 33.95 269.6 34.8 266.6 34.9 L263.45 34.8 Q263.3 32.35 262.8 30.15 M172.4 29.3 Q175.2 30.4 175.1 31.75 175.05 33.1 172.2 33.9 L165.45 34.55 Q161.45 34.4 158.7 33.3 156.0 32.25 156.05 30.9 156.15 29.55 158.9 28.7 161.75 27.9 165.75 28.05 169.7 28.25 172.4 29.3 M121.65 31.0 L114.7 31.35 Q110.65 31.0 107.85 29.9 105.05 28.8 105.15 27.55 105.25 26.3 108.15 25.7 L115.2 25.4 Q119.2 25.7 121.95 26.8 124.8 27.85 124.7 29.1 124.6 30.35 121.65 31.0" fill="#1a0d00" fill-rule="evenodd" stroke="none"/>
      <path d="M279.9 20.5 L279.9 19.45 Q279.85 16.85 278.3 15.8 L260.35 15.9 257.7 15.9 253.7 15.9 Q256.05 17.9 257.85 20.1 261.45 24.6 262.8 30.15 L266.4 29.65 Q269.4 29.55 271.45 30.2 273.65 30.9 273.7 31.95 273.75 33.05 271.6 33.95 269.6 34.8 266.6 34.9 L263.45 34.8 263.45 34.95 M267.1 49.5 L268.9 49.4 276.5 48.95 Q279.65 49.3 279.3 39.4 L279.6 30.1 279.9 20.5 M212.75 8.75 Q218.75 7.2 226.1 7.2 243.3 7.2 253.6 15.8 L253.7 15.9 M212.75 8.75 Q205.25 10.65 199.8 14.95 L198.75 15.8 Q192.3 21.25 190.15 28.15 189.4 30.5 189.2 33.0 L189.1 36.45 Q189.4 44.1 193.85 50.3 L187.15 50.15 Q147.4 49.0 103.7 45.15 72.35 42.35 39.0 38.2 L3.8 33.45 Q1.0 32.8 0.75 29.25 -0.75 19.05 0.7 8.75 L1.0 6.8 1.1 6.0 1.15 5.9 Q1.8 1.8 4.35 0.0 100.2 11.1 186.75 14.5 L198.75 14.9 199.8 14.95 M253.3 38.55 L252.65 41.0 252.15 42.2 Q250.3 46.15 245.85 49.3 L244.4 50.3 Q239.3 53.45 232.9 54.3 L228.35 54.55 Q219.45 54.55 212.75 50.6 L210.8 49.3 210.55 49.1 Q203.8 44.15 203.55 37.3 L203.55 36.75 203.55 36.15 Q203.85 29.15 210.45 23.8 217.35 18.2 229.25 18.9 241.15 19.55 247.45 24.55 249.3 26.05 250.6 27.7 L251.4 28.8 252.8 31.75 251.1 31.75 248.0 31.75 229.55 31.75 Q226.35 32.0 226.95 34.55 L226.95 35.75 226.95 39.7 Q228.25 41.5 230.35 41.7 L241.0 41.4 250.2 41.1 252.65 41.0 M262.85 43.0 L262.9 42.9 Q263.4 40.3 263.5 37.5 L263.5 35.75 M253.3 38.55 L253.45 36.85 Q253.55 34.15 252.8 31.75 M263.45 34.8 Q263.3 32.35 262.8 30.15 M267.1 49.5 L260.3 49.8 Q257.55 54.75 252.4 58.55 244.95 63.95 235.35 65.4 L226.35 65.9 Q211.1 65.35 200.3 56.9 196.4 53.85 193.85 50.3 M260.3 49.8 Q262.05 46.6 262.85 43.0 M172.4 29.3 Q175.2 30.4 175.1 31.75 175.05 33.1 172.2 33.9 L165.45 34.55 Q161.45 34.4 158.7 33.3 156.0 32.25 156.05 30.9 156.15 29.55 158.9 28.7 161.75 27.9 165.75 28.05 169.7 28.25 172.4 29.3 M121.65 31.0 L114.7 31.35 Q110.65 31.0 107.85 29.9 105.05 28.8 105.15 27.55 105.25 26.3 108.15 25.7 L115.2 25.4 Q119.2 25.7 121.95 26.8 124.8 27.85 124.7 29.1 124.6 30.35 121.65 31.0" fill="none" stroke="#000000" stroke-linecap="round" stroke-linejoin="round" stroke-opacity="0.6627451" stroke-width="3.5"/>
    </g>
    <g id="sprite1" transform="matrix(1.0, 0.0, 0.0, 1.0, 0.0, 0.0)">
      <use height="65.95" transform="matrix(1.0, 0.0, 0.0, 1.0, 0.0, 0.0)" width="279.9" xlink:href="#shape1"/>
    </g>
    <g id="shape1" transform="matrix(1.0, 0.0, 0.0, 1.0, 0.0, 0.0)">
      <path d="M172.15 21.75 L172.2 21.8 172.15 21.8 172.15 21.75" fill="url(#gradient0)" fill-rule="evenodd" stroke="none"/>
      <path d="M193.85 50.3 L187.15 50.15 Q147.4 49.0 103.7 45.15 72.35 42.35 39.0 38.2 L3.8 33.45 Q1.0 32.8 0.75 29.25 -0.75 19.05 0.7 8.75 L1.0 6.8 1.1 6.0 1.15 5.9 Q1.8 1.8 4.35 0.0 100.2 11.1 186.75 14.5 L198.75 14.9 198.75 15.8 Q192.3 21.25 190.15 28.15 189.4 30.5 189.2 33.0 L189.1 36.45 Q189.4 44.1 193.85 50.3 M172.15 21.75 L172.15 21.8 172.2 21.8 172.15 21.75" fill="url(#gradient1)" fill-rule="evenodd" stroke="none"/>
      <path d="M253.7 15.9 L257.7 15.9 260.35 15.9 278.3 15.8 Q279.85 16.85 279.9 19.45 L279.3 39.4 Q279.65 49.3 276.5 48.95 L268.9 49.4 267.1 49.5 260.3 49.8 Q262.05 46.6 262.85 43.0 L262.9 42.9 Q263.4 40.3 263.5 37.5 L263.5 35.75 263.45 34.95 263.45 34.8 Q263.3 32.35 262.8 30.15 261.45 24.6 257.85 20.1 256.05 17.9 253.7 15.9" fill="url(#gradient2)" fill-rule="evenodd" stroke="none"/>
      <path d="M250.6 27.7 L251.4 28.8 252.8 31.75 229.55 31.75 Q226.35 32.0 226.95 34.55 L226.95 39.7 Q228.25 41.5 230.35 41.7 L252.65 41.0 252.15 42.2 Q250.3 46.15 245.85 49.3 L244.4 50.3 Q239.3 53.45 232.9 54.3 L228.35 54.55 Q219.45 54.55 212.75 50.6 L210.8 49.3 210.55 49.1 Q203.8 44.15 203.55 37.3 L203.55 36.75 203.55 36.15 Q203.85 29.15 210.45 23.8 217.35 18.2 229.25 18.9 241.15 19.55 247.45 24.55 249.3 26.05 250.6 27.7" fill="url(#gradient3)" fill-rule="evenodd" stroke="none"/>
      <path d="M260.3 49.8 Q257.55 54.75 252.4 58.55 244.95 63.95 235.35 65.4 L226.35 65.9 Q211.1 65.35 200.3 56.9 196.4 53.85 193.85 50.3 189.4 44.1 189.1 36.45 L189.2 33.0 Q189.4 30.5 190.15 28.15 192.3 21.25 198.75 15.8 L199.8 14.95 Q205.25 10.65 212.75 8.75 218.75 7.2 226.1 7.2 243.3 7.2 253.6 15.8 L253.7 15.9 Q256.05 17.9 257.85 20.1 261.45 24.6 262.8 30.15 263.3 32.35 263.45 34.8 L263.45 34.95 263.5 35.75 263.5 37.5 Q263.4 40.3 262.9 42.9 L262.85 43.0 Q262.05 46.6 260.3 49.8 M250.6 27.7 Q249.3 26.05 247.45 24.55 241.15 19.55 229.25 18.9 217.35 18.2 210.45 23.8 203.85 29.15 203.55 36.15 L203.55 36.75 203.55 37.3 Q203.8 44.15 210.55 49.1 L210.8 49.3 212.75 50.6 Q219.45 54.55 228.35 54.55 L232.9 54.3 Q239.3 53.45 244.4 50.3 L245.85 49.3 Q250.3 46.15 252.15 42.2 L252.65 41.0 230.35 41.7 Q228.25 41.5 226.95 39.7 L226.95 34.55 Q226.35 32.0 229.55 31.75 L252.8 31.75 251.4 28.8 250.6 27.7" fill="url(#gradient4)" fill-rule="evenodd" stroke="none"/>
    </g>
    <linearGradient gradientTransform="matrix(0.0, 0.0, 0.0, 0.0, 172.15, 21.75)" gradientUnits="userSpaceOnUse" id="gradient0" spreadMethod="pad" x1="-819.2" x2="819.2">
      <stop offset="0.0" stop-color="#000000"/>
      <stop offset="1.0" stop-color="#ffffff"/>
    </linearGradient>
    <linearGradient gradientTransform="matrix(0.0121, -0.0655, 0.0302, 0.0056, 99.35, 25.05)" gradientUnits="userSpaceOnUse" id="gradient1" spreadMethod="pad" x1="-819.2" x2="819.2">
      <stop offset="0.0" stop-color="#000000"/>
      <stop offset="1.0" stop-color="#ffffff"/>
    </linearGradient>
    <linearGradient gradientTransform="matrix(-0.0113, -0.0604, 0.0204, -0.0038, 269.25, 38.7)" gradientUnits="userSpaceOnUse" id="gradient2" spreadMethod="pad" x1="-819.2" x2="819.2">
      <stop offset="0.0" stop-color="#000000"/>
      <stop offset="1.0" stop-color="#ffffff"/>
    </linearGradient>
    <linearGradient gradientTransform="matrix(0.0194, -0.0531, 0.0205, 0.0075, 228.15, 36.65)" gradientUnits="userSpaceOnUse" id="gradient3" spreadMethod="pad" x1="-819.2" x2="819.2">
      <stop offset="0.0" stop-color="#000000"/>
      <stop offset="1.0" stop-color="#ffffff"/>
    </linearGradient>
    <linearGradient gradientTransform="matrix(-0.0101, -0.0363, 0.0345, -0.0096, 222.35, 38.75)" gradientUnits="userSpaceOnUse" id="gradient4" spreadMethod="pad" x1="-819.2" x2="819.2">
      <stop offset="0.0" stop-color="#000000"/>
      <stop offset="1.0" stop-color="#ffffff"/>
    </linearGradient>
  </defs>
</svg>
