<?xml version="1.0" encoding="UTF-8" standalone="no"?>
<svg xmlns:xlink="http://www.w3.org/1999/xlink" height="531.5px" width="460.6px" xmlns="http://www.w3.org/2000/svg">
  <g transform="matrix(1.0, 0.0, 0.0, 1.0, 193.65, 334.05)">
    <use height="58.6" transform="matrix(1.0, 0.0, 0.0, 1.0, 9.5, -133.05)" width="227.45" xlink:href="#shape0"/>
    <use height="129.45" transform="matrix(0.4449, -0.0074, 0.0074, 0.4449, 9.496, -131.4594)" width="509.05" xlink:href="#sprite0"/>
    <use height="105.25" transform="matrix(1.0, 0.0, 0.0, 1.0, -42.05, -123.2)" width="169.1" xlink:href="#shape2"/>
  </g>
  <defs>
    <g id="shape0" transform="matrix(1.0, 0.0, 0.0, 1.0, -9.5, 133.05)">
      <path d="M81.55 -132.0 L84.25 -131.3 88.45 -129.6 Q92.25 -127.7 95.6 -124.45 L96.6 -123.45 Q94.3 -107.0 77.35 -95.75 70.8 -91.4 63.35 -88.8 56.85 -86.5 52.65 -86.45 L52.55 -86.45 Q51.3 -88.05 50.3 -89.8 48.4 -93.2 47.55 -97.05 46.85 -100.05 46.8 -103.25 L46.8 -103.65 Q46.8 -106.45 47.25 -109.1 47.65 -111.25 48.35 -113.25 L48.5 -113.25 56.4 -117.45 Q65.25 -122.25 71.95 -124.65 76.1 -126.15 78.95 -128.55 81.2 -130.5 81.55 -132.0" fill="#28733b" fill-rule="evenodd" stroke="none"/>
      <path d="M96.6 -123.45 L98.1 -121.75 Q102.4 -116.5 103.75 -110.0 104.35 -107.25 104.4 -104.2 L104.4 -104.15 Q104.45 -100.95 103.9 -98.0 103.15 -94.1 101.35 -90.65 99.4 -86.95 96.3 -83.7 88.0 -75.15 76.1 -74.95 64.15 -74.75 55.6 -83.05 53.9 -84.65 52.55 -86.45 L52.65 -86.45 Q56.85 -86.5 63.35 -88.8 70.8 -91.4 77.35 -95.75 94.3 -107.0 96.6 -123.45 M87.45 -87.2 Q85.1 -84.1 81.55 -82.15 78.3 -80.4 76.15 -80.6 78.3 -80.4 81.55 -82.15 85.1 -84.1 87.45 -87.2 M90.35 -94.0 Q87.65 -89.9 83.45 -87.75 80.85 -86.45 79.45 -86.45 80.85 -86.45 83.45 -87.75 87.65 -89.9 90.35 -94.0 M87.85 -85.05 Q91.15 -86.75 93.25 -88.95 95.15 -90.9 95.45 -92.55 95.15 -90.9 93.25 -88.95 91.15 -86.75 87.85 -85.05 M93.6 -85.5 Q95.05 -86.2 97.7 -90.25 100.5 -94.55 101.15 -97.65 100.5 -94.55 97.7 -90.25 95.05 -86.2 93.6 -85.5" fill="#1c5e2d" fill-rule="evenodd" stroke="none"/>
      <path d="M103.75 -110.0 L122.6 -110.35 122.15 -107.1 122.05 -104.65 116.85 -104.3 110.85 -103.95 107.8 -103.95 104.4 -104.15 104.4 -104.2 Q104.35 -107.25 103.75 -110.0 M174.75 -111.4 L209.25 -111.95 209.25 -112.8 233.05 -118.7 Q235.85 -114.35 236.35 -109.15 L234.55 -108.75 234.2 -113.45 Q233.85 -116.15 233.4 -116.15 233.15 -116.15 232.95 -115.35 L232.65 -113.4 Q232.45 -111.1 232.5 -108.0 L229.9 -107.55 Q224.3 -106.15 217.95 -106.1 L212.65 -106.05 209.3 -106.7 209.3 -107.7 Q205.8 -106.9 197.7 -106.1 L183.9 -105.15 179.95 -105.15 175.25 -106.05 175.15 -108.05 174.75 -111.4 M42.55 -109.0 L47.25 -109.1 Q46.8 -106.45 46.8 -103.65 L43.55 -103.7 43.55 -103.8 Q43.4 -106.45 42.55 -109.0 M209.25 -111.95 L209.3 -107.7 209.25 -111.95" fill="#663300" fill-rule="evenodd" stroke="none"/>
      <path d="M236.35 -109.15 Q236.55 -107.1 236.4 -104.9 235.95 -99.75 233.55 -93.9 L209.35 -99.1 209.35 -99.95 174.55 -99.35 175.15 -103.9 175.25 -106.05 179.95 -105.15 183.9 -105.15 197.7 -106.1 Q205.8 -106.9 209.3 -107.7 L209.3 -106.7 212.65 -106.05 217.95 -106.1 Q224.3 -106.15 229.9 -107.55 L232.5 -108.0 232.5 -106.85 232.55 -104.8 Q232.65 -102.25 232.9 -100.3 L233.25 -98.4 Q233.45 -97.6 233.7 -97.6 234.15 -97.6 234.4 -100.35 L234.6 -104.85 234.6 -106.9 234.55 -108.5 234.55 -108.75 236.35 -109.15 M122.8 -98.35 L103.9 -98.0 Q104.45 -100.95 104.4 -104.15 L107.8 -103.95 110.85 -103.95 116.85 -104.3 122.05 -104.65 Q122.05 -101.5 122.8 -98.35 M47.55 -97.05 L42.6 -97.0 Q43.35 -99.45 43.5 -101.95 L43.55 -102.7 43.55 -103.7 46.8 -103.65 46.8 -103.25 Q46.85 -100.05 47.55 -97.05 M209.35 -99.95 L209.3 -106.7 209.35 -99.95" fill="#522900" fill-rule="evenodd" stroke="none"/>
      <path d="M122.6 -110.35 L123.05 -112.35 Q127.15 -113.4 131.2 -113.1 L135.0 -112.55 Q141.75 -114.75 154.5 -113.5 159.5 -114.7 165.85 -114.3 L173.65 -113.3 174.3 -113.2 174.75 -111.4 175.15 -108.05 173.15 -108.0 168.3 -108.3 164.85 -108.55 Q164.2 -106.55 163.25 -104.8 L160.8 -104.6 158.9 -104.4 155.45 -104.7 154.2 -104.95 154.6 -109.1 142.45 -107.5 140.7 -107.45 142.4 -105.15 141.1 -104.8 138.15 -104.4 135.65 -104.4 Q134.1 -104.45 133.15 -104.85 L132.7 -106.1 129.6 -105.7 125.0 -106.1 Q123.5 -106.4 122.15 -107.1 L122.6 -110.35 M131.2 -113.1 L131.55 -110.5 132.45 -107.0 132.7 -106.1 132.45 -107.0 131.55 -110.5 131.2 -113.1 M135.0 -112.55 Q138.25 -110.4 140.7 -107.45 138.25 -110.4 135.0 -112.55 M154.6 -109.1 L154.5 -113.5 154.6 -109.1 M165.85 -114.3 Q165.6 -111.2 164.85 -108.55 165.6 -111.2 165.85 -114.3" fill="#b39b6b" fill-rule="evenodd" stroke="none"/>
      <path d="M174.55 -99.35 L174.2 -98.05 Q165.3 -96.55 155.9 -97.75 L151.65 -96.8 146.25 -96.4 136.75 -97.1 Q130.95 -95.2 123.35 -96.3 L122.8 -98.35 Q122.05 -101.5 122.05 -104.65 L122.15 -107.1 Q123.5 -106.4 125.0 -106.1 L129.6 -105.7 132.7 -106.1 133.15 -104.85 Q134.1 -104.45 135.65 -104.4 L138.15 -104.4 141.1 -104.8 142.4 -105.15 140.7 -107.45 142.45 -107.5 154.6 -109.1 154.2 -104.95 155.45 -104.7 158.9 -104.4 160.8 -104.6 163.25 -104.8 Q164.2 -106.55 164.85 -108.55 L168.3 -108.3 173.15 -108.0 175.15 -108.05 175.25 -106.05 175.15 -103.9 174.55 -99.35 M151.65 -96.8 Q153.45 -100.8 154.2 -104.95 153.45 -100.8 151.65 -96.8 M146.25 -96.4 Q144.9 -101.35 142.4 -105.15 144.9 -101.35 146.25 -96.4 M133.15 -104.85 Q134.5 -101.1 136.75 -97.1 134.5 -101.1 133.15 -104.85 M163.25 -104.8 Q160.75 -100.35 155.9 -97.75 160.75 -100.35 163.25 -104.8" fill="#8f794d" fill-rule="evenodd" stroke="none"/>
      <path d="M10.05 -106.65 Q10.15 -112.65 10.85 -118.6 12.8 -121.1 19.1 -118.9 22.35 -117.75 26.75 -115.35 34.3 -111.05 42.3 -109.8 L42.55 -109.0 Q43.4 -106.45 43.55 -103.8 L43.55 -103.7 43.55 -102.7 43.5 -101.95 38.2 -101.7 34.0 -101.45 Q25.15 -101.3 19.95 -102.45 14.2 -103.7 10.05 -106.65 M20.15 -116.85 L19.2 -117.25 18.25 -117.45 17.25 -117.5 16.1 -117.3 Q15.7 -117.2 15.35 -116.9 15.0 -116.6 15.05 -116.15 L15.25 -115.4 16.05 -114.45 Q16.6 -114.05 17.25 -113.7 L18.35 -113.15 19.65 -112.55 21.15 -112.0 22.8 -111.45 24.35 -110.95 25.75 -110.55 27.05 -110.2 28.2 -109.95 29.75 -109.7 31.45 -109.65 32.95 -109.65 33.3 -109.75 33.6 -110.25 33.55 -110.8 32.9 -111.35 31.45 -112.0 30.05 -112.55 29.15 -112.9 28.25 -113.25 27.4 -113.6 25.95 -114.25 24.6 -114.8 23.05 -115.5 Q22.25 -115.85 21.6 -116.2 L20.15 -116.85" fill="#bf1717" fill-rule="evenodd" stroke="none"/>
      <path d="M20.15 -116.85 L21.6 -116.2 Q22.25 -115.85 23.05 -115.5 L24.6 -114.8 25.95 -114.25 27.4 -113.6 28.25 -113.25 29.15 -112.9 30.05 -112.55 31.45 -112.0 32.9 -111.35 33.55 -110.8 33.6 -110.25 33.3 -109.75 32.95 -109.65 31.45 -109.65 29.75 -109.7 28.2 -109.95 27.05 -110.2 25.75 -110.55 24.35 -110.95 22.8 -111.45 21.15 -112.0 19.65 -112.55 18.35 -113.15 17.25 -113.7 Q16.6 -114.05 16.05 -114.45 L15.25 -115.4 15.05 -116.15 Q15.0 -116.6 15.35 -116.9 15.7 -117.2 16.1 -117.3 L17.25 -117.5 18.25 -117.45 19.2 -117.25 20.15 -116.85" fill="#ffffff" fill-rule="evenodd" stroke="none"/>
      <path d="M42.6 -97.0 L42.45 -96.65 Q34.55 -95.1 27.15 -90.55 L25.1 -89.4 Q14.2 -83.3 11.3 -86.8 10.25 -93.9 10.0 -101.0 L10.0 -102.15 10.05 -102.45 10.05 -103.25 10.0 -104.3 10.05 -106.65 Q14.2 -103.7 19.95 -102.45 25.15 -101.3 34.0 -101.45 L38.2 -101.7 43.5 -101.95 Q43.35 -99.45 42.6 -97.0" fill="#8c0000" fill-rule="evenodd" stroke="none"/>
      <path d="M48.35 -113.25 Q49.75 -117.4 52.5 -121.0 L54.9 -123.75 Q58.15 -127.1 61.95 -129.15 63.95 -130.25 66.05 -131.0 70.3 -132.45 75.15 -132.55 L81.55 -132.0 Q81.2 -130.5 78.95 -128.55 76.1 -126.15 71.95 -124.65 65.25 -122.25 56.4 -117.45 L48.5 -113.25 48.35 -113.25" fill="#4db065" fill-rule="evenodd" stroke="none"/>
      <path d="M232.5 -108.0 Q232.45 -111.1 232.65 -113.4 L232.95 -115.35 Q233.15 -116.15 233.4 -116.15 233.85 -116.15 234.2 -113.45 L234.55 -108.75 234.55 -108.5 234.6 -106.9 234.6 -104.85 234.4 -100.35 Q234.15 -97.6 233.7 -97.6 233.45 -97.6 233.25 -98.4 L232.9 -100.3 Q232.65 -102.25 232.55 -104.8 L232.5 -106.85 232.5 -108.0" fill="#140808" fill-rule="evenodd" stroke="none"/>
      <path d="M81.55 -132.0 L84.25 -131.3 88.45 -129.6 Q92.25 -127.7 95.6 -124.45 L96.6 -123.45 98.1 -121.75 Q102.4 -116.5 103.75 -110.0 L122.6 -110.35 123.05 -112.35 Q127.15 -113.4 131.2 -113.1 L135.0 -112.55 Q141.75 -114.75 154.5 -113.5 159.5 -114.7 165.85 -114.3 L173.65 -113.3 174.3 -113.2 174.75 -111.4 209.25 -111.95 209.25 -112.8 233.05 -118.7 Q235.85 -114.35 236.35 -109.15 236.55 -107.1 236.4 -104.9 235.95 -99.75 233.55 -93.9 L209.35 -99.1 209.35 -99.95 174.55 -99.35 174.2 -98.05 Q165.3 -96.55 155.9 -97.75 L151.65 -96.8 146.25 -96.4 136.75 -97.1 Q130.95 -95.2 123.35 -96.3 L122.8 -98.35 103.9 -98.0 Q103.15 -94.1 101.35 -90.65 99.4 -86.95 96.3 -83.7 88.0 -75.15 76.1 -74.95 64.15 -74.75 55.6 -83.05 53.9 -84.65 52.55 -86.45 51.3 -88.05 50.3 -89.8 48.4 -93.2 47.55 -97.05 L42.6 -97.0 42.45 -96.65 Q34.55 -95.1 27.15 -90.55 L25.1 -89.4 Q14.2 -83.3 11.3 -86.8 10.25 -93.9 10.0 -101.0 L10.0 -102.15 10.0 -102.9 10.05 -103.25 10.0 -104.3 10.05 -106.65 Q10.15 -112.65 10.85 -118.6 12.8 -121.1 19.1 -118.9 22.35 -117.75 26.75 -115.35 34.3 -111.05 42.3 -109.8 L42.55 -109.0 47.25 -109.1 Q47.65 -111.25 48.35 -113.25 49.75 -117.4 52.5 -121.0 L54.9 -123.75 Q58.15 -127.1 61.95 -129.15 63.95 -130.25 66.05 -131.0 70.3 -132.45 75.15 -132.55 L81.55 -132.0 M103.75 -110.0 Q104.35 -107.25 104.4 -104.2 L104.4 -104.15 Q104.45 -100.95 103.9 -98.0 M122.05 -104.65 L122.15 -107.1 122.6 -110.35 M132.7 -106.1 L132.45 -107.0 131.55 -110.5 131.2 -113.1 M142.4 -105.15 L140.7 -107.45 Q138.25 -110.4 135.0 -112.55 M133.15 -104.85 L132.7 -106.1 M154.2 -104.95 Q153.45 -100.8 151.65 -96.8 M154.2 -104.95 L154.6 -109.1 154.5 -113.5 M10.05 -103.25 L10.05 -102.45 10.0 -102.15 M43.5 -101.95 L43.55 -102.7 43.55 -103.7 43.55 -103.8 Q43.4 -106.45 42.55 -109.0 M47.55 -97.05 Q46.85 -100.05 46.8 -103.25 L46.8 -103.65 Q46.8 -106.45 47.25 -109.1 M122.8 -98.35 Q122.05 -101.5 122.05 -104.65 M42.6 -97.0 Q43.35 -99.45 43.5 -101.95 M136.75 -97.1 Q134.5 -101.1 133.15 -104.85 M142.4 -105.15 Q144.9 -101.35 146.25 -96.4 M175.15 -108.05 L174.75 -111.4 M163.25 -104.8 Q164.2 -106.55 164.85 -108.55 165.6 -111.2 165.85 -114.3 M209.3 -107.7 L209.25 -111.95 M175.15 -108.05 L175.25 -106.05 175.15 -103.9 174.55 -99.35 M209.3 -106.7 L209.3 -107.7 M209.3 -106.7 L209.35 -99.95 M232.5 -108.0 Q232.45 -111.1 232.65 -113.4 L232.95 -115.35 Q233.15 -116.15 233.4 -116.15 233.85 -116.15 234.2 -113.45 L234.55 -108.75 234.55 -108.5 234.6 -106.9 234.6 -104.85 234.4 -100.35 Q234.15 -97.6 233.7 -97.6 233.45 -97.6 233.25 -98.4 L232.9 -100.3 Q232.65 -102.25 232.55 -104.8 L232.5 -106.85 232.5 -108.0 M155.9 -97.75 Q160.75 -100.35 163.25 -104.8" fill="none" stroke="#000000" stroke-linecap="round" stroke-linejoin="round" stroke-opacity="0.6627451" stroke-width="1.0"/>
      <path d="M101.15 -97.65 Q100.5 -94.55 97.7 -90.25 95.05 -86.2 93.6 -85.5 M95.45 -92.55 Q95.15 -90.9 93.25 -88.95 91.15 -86.75 87.85 -85.05 M79.45 -86.45 Q80.85 -86.45 83.45 -87.75 87.65 -89.9 90.35 -94.0 M76.15 -80.6 Q78.3 -80.4 81.55 -82.15 85.1 -84.1 87.45 -87.2" fill="none" stroke="#0c2913" stroke-linecap="round" stroke-linejoin="round" stroke-opacity="0.6627451" stroke-width="2.0"/>
    </g>
    <g id="sprite0" transform="matrix(1.0, 0.0, 0.0, 1.0, 254.5, 64.7)">
      <use height="129.45" transform="matrix(1.0, 0.0, 0.0, 1.0, -254.5, -64.7)" width="509.05" xlink:href="#shape1"/>
    </g>
    <g id="shape1" transform="matrix(1.0, 0.0, 0.0, 1.0, 254.5, 64.7)">
      <path d="M18.25 -18.95 L26.8 -17.55 Q42.1 -22.3 70.65 -19.05 81.85 -21.5 96.15 -20.35 104.4 -19.7 113.7 -17.85 L115.2 -17.55 116.05 -13.5 193.65 -13.5 193.65 -15.4 247.3 -27.8 Q253.45 -17.9 254.4 -6.2 254.75 -1.55 254.3 3.4 253.15 14.9 247.55 27.95 L193.35 15.35 193.4 13.5 115.15 13.5 114.4 16.45 Q94.25 19.45 73.25 16.5 68.8 17.75 63.65 18.45 L51.45 19.1 Q41.75 19.0 30.2 17.25 17.1 21.25 0.0 18.45 L-1.1 13.95 -43.6 13.95 Q-45.45 22.65 -49.6 30.4 -54.1 38.65 -61.25 45.8 -80.2 64.75 -107.0 64.75 -133.8 64.75 -152.75 45.8 -156.5 42.05 -159.45 38.05 -162.2 34.35 -164.35 30.4 -168.5 22.65 -170.3 13.95 L-181.45 13.95 -181.75 14.75 Q-199.6 17.9 -216.4 27.85 L-221.0 30.4 Q-245.8 43.65 -252.1 35.7 -254.2 19.75 -254.45 3.7 L-254.45 1.2 -254.35 0.45 -254.35 -1.25 -254.35 -3.7 -254.2 -8.95 Q-253.75 -22.4 -252.0 -35.75 -247.5 -41.4 -233.4 -36.2 -226.15 -33.5 -216.3 -27.9 -199.5 -17.95 -181.65 -14.8 L-181.05 -13.05 -170.45 -13.05 Q-169.55 -17.85 -167.9 -22.35 -164.55 -31.6 -158.2 -39.6 -155.75 -42.75 -152.75 -45.75 -145.35 -53.15 -136.75 -57.65 -132.25 -60.0 -127.4 -61.6 -117.85 -64.7 -107.0 -64.7 -99.5 -64.7 -92.55 -63.2 L-86.6 -61.6 Q-81.75 -60.0 -77.2 -57.65 -68.65 -53.15 -61.25 -45.75 L-59.1 -43.5 -55.75 -39.6 Q-46.3 -27.7 -43.45 -13.05 L-1.15 -13.05 0.0 -17.55 Q9.2 -19.75 18.25 -18.95" fill="#d7d7d7" fill-rule="evenodd" stroke="none"/>
    </g>
    <g id="shape2" transform="matrix(1.0, 0.0, 0.0, 1.0, 42.05, 123.2)">
      <path d="M112.7 -95.2 L112.0 -98.6 111.15 -103.4 110.7 -104.45 109.7 -108.25 108.55 -112.2 107.95 -113.55 107.05 -115.0 Q105.25 -116.05 103.35 -115.5 L102.7 -115.4 100.7 -114.6 99.1 -113.6 Q98.65 -112.75 99.15 -109.55 L99.15 -109.5 Q99.6 -106.2 101.35 -100.2 102.75 -95.4 103.65 -93.4 L103.85 -93.0 Q105.1 -90.2 105.9 -89.95 L110.25 -90.35 112.85 -91.3 113.85 -91.5 112.7 -95.2 M99.7 -116.55 L101.75 -117.45 106.25 -117.8 Q107.5 -117.65 108.2 -117.05 L109.45 -116.1 Q110.2 -114.65 110.5 -112.6 L110.55 -112.2 111.0 -109.25 Q111.95 -113.65 117.25 -114.75 L119.65 -115.15 121.5 -115.15 122.25 -114.8 122.8 -114.5 125.25 -112.7 125.5 -112.35 126.1 -110.7 126.75 -107.5 126.95 -105.6 127.05 -101.7 127.05 -100.4 Q127.15 -92.4 125.8 -90.3 125.2 -89.3 124.05 -89.05 L121.6 -88.7 117.2 -88.05 Q115.95 -88.05 115.3 -88.8 L114.8 -89.5 114.55 -89.3 113.3 -88.7 Q112.0 -88.1 111.2 -88.0 L108.25 -87.6 Q106.2 -87.25 104.9 -87.65 105.05 -86.0 104.1 -84.75 103.45 -83.9 101.85 -83.15 L99.2 -82.35 96.25 -81.65 Q92.2 -81.1 90.75 -82.25 90.25 -82.65 89.05 -85.2 L88.6 -86.15 Q87.0 -89.75 86.4 -92.5 L85.4 -100.25 Q84.95 -103.8 85.6 -105.55 86.1 -106.85 87.55 -107.5 L93.55 -108.95 96.65 -109.45 96.75 -109.45 96.75 -110.55 Q96.4 -113.9 97.35 -115.15 97.75 -115.65 99.7 -116.55 M102.35 -89.85 L102.25 -90.4 101.55 -91.9 Q101.0 -92.95 99.3 -98.55 97.6 -103.95 97.35 -105.35 L96.95 -107.7 96.2 -107.8 93.5 -107.25 90.75 -106.7 88.25 -105.95 Q87.3 -105.5 87.3 -103.1 87.35 -100.9 88.15 -97.8 L88.7 -93.8 Q89.3 -90.05 91.05 -86.3 L91.1 -86.2 Q92.35 -83.55 93.05 -83.25 L97.15 -83.55 101.15 -84.85 Q103.35 -85.85 102.6 -88.55 L102.35 -89.85 M124.8 -96.95 L124.55 -99.7 Q124.55 -105.95 124.25 -107.25 L123.7 -111.35 123.25 -111.75 122.9 -111.95 121.75 -112.5 119.8 -112.85 118.15 -112.75 115.85 -112.2 Q114.95 -111.95 114.25 -110.8 112.5 -107.65 114.7 -96.7 114.95 -95.1 115.35 -93.95 115.9 -91.7 116.3 -91.15 117.4 -89.85 121.1 -90.6 125.25 -91.4 125.05 -93.3 L124.8 -96.95" fill="#000000" fill-rule="evenodd" stroke="none"/>
      <path d="M103.65 -93.4 Q102.75 -95.4 101.35 -100.2 99.6 -106.2 99.15 -109.5 L99.15 -109.55 Q98.65 -112.75 99.1 -113.6 L100.7 -114.6 102.7 -115.4 103.35 -115.5 Q105.25 -116.05 107.05 -115.0 L107.95 -113.55 108.55 -112.2 109.7 -108.25 110.7 -104.45 111.15 -103.4 112.0 -98.6 112.7 -95.2 108.15 -94.55 Q105.05 -94.05 103.65 -93.4 M91.05 -86.3 Q89.3 -90.05 88.7 -93.8 L88.15 -97.8 Q87.35 -100.9 87.3 -103.1 87.3 -105.5 88.25 -105.95 L90.75 -106.7 93.5 -107.25 96.2 -107.8 96.95 -107.7 97.35 -105.35 Q97.6 -103.95 99.3 -98.55 101.0 -92.95 101.55 -91.9 L102.25 -90.4 102.35 -89.85 Q101.65 -88.9 100.35 -88.3 98.5 -87.45 97.4 -87.2 L93.55 -86.65 91.05 -86.3 M115.35 -93.95 Q114.95 -95.1 114.7 -96.7 112.5 -107.65 114.25 -110.8 114.95 -111.95 115.85 -112.2 L118.15 -112.75 119.8 -112.85 121.75 -112.5 122.9 -111.95 123.25 -111.75 123.7 -111.35 124.25 -107.25 Q124.55 -105.95 124.55 -99.7 L124.8 -96.95 Q123.2 -94.6 121.15 -93.65 119.65 -92.85 118.95 -92.65 L116.5 -92.75 115.35 -93.95" fill="#999999" fill-rule="evenodd" stroke="none"/>
      <path d="M103.65 -93.4 Q105.05 -94.05 108.15 -94.55 L112.7 -95.2 113.85 -91.5 112.85 -91.3 110.25 -90.35 105.9 -89.95 Q105.1 -90.2 103.85 -93.0 L103.65 -93.4 M91.05 -86.3 L93.55 -86.65 97.4 -87.2 Q98.5 -87.45 100.35 -88.3 101.65 -88.9 102.35 -89.85 L102.6 -88.55 Q103.35 -85.85 101.15 -84.85 L97.15 -83.55 93.05 -83.25 Q92.35 -83.55 91.1 -86.2 L91.05 -86.3 M115.35 -93.95 L116.5 -92.75 118.95 -92.65 Q119.65 -92.85 121.15 -93.65 123.2 -94.6 124.8 -96.95 L125.05 -93.3 Q125.25 -91.4 121.1 -90.6 117.4 -89.85 116.3 -91.15 115.9 -91.7 115.35 -93.95" fill="#bdbdbd" fill-rule="evenodd" stroke="none"/>
      <path d="M-40.7 -52.65 L-41.2 -52.45 -42.05 -52.1 Q-41.6 -53.9 -36.1 -57.1 -30.2 -60.5 -26.0 -61.25 L-19.45 -62.95 -11.95 -64.8 3.15 -67.1 9.65 -67.4 13.2 -77.75 15.55 -85.2 15.85 -85.9 Q14.25 -85.95 11.85 -86.8 9.5 -87.65 8.65 -88.45 8.05 -89.05 7.8 -90.05 L7.7 -91.7 Q7.65 -93.5 8.5 -97.05 9.3 -99.85 10.3 -100.95 12.3 -102.5 14.95 -102.2 L17.65 -101.95 18.65 -101.95 21.1 -101.65 Q21.8 -104.5 23.35 -109.0 L24.85 -113.1 25.55 -114.8 Q26.3 -116.6 27.75 -117.85 29.7 -119.55 32.2 -119.95 L33.25 -120.15 33.5 -120.2 Q41.1 -121.05 43.05 -119.45 43.6 -119.0 43.95 -117.9 L47.7 -118.15 47.85 -118.15 54.05 -118.0 55.2 -117.55 55.9 -117.05 56.05 -116.85 56.15 -117.35 Q56.05 -118.75 56.25 -119.85 56.45 -121.45 57.15 -122.3 L58.45 -123.05 Q63.1 -123.75 66.9 -121.3 L68.0 -120.45 68.45 -119.85 70.0 -117.05 70.1 -114.75 Q70.15 -113.05 68.2 -104.1 66.55 -96.05 65.9 -94.1 L62.75 -83.85 60.7 -77.3 Q57.3 -63.9 51.8 -51.3 L48.9 -44.9 Q46.6 -40.1 43.95 -35.5 L43.65 -35.0 42.7 -33.7 Q42.75 -32.8 37.95 -30.6 L35.95 -29.75 27.65 -26.35 Q21.7 -23.9 15.9 -22.2 L12.55 -21.25 8.95 -20.3 7.45 -19.95 Q-9.8 -17.25 -27.4 -18.15 L-31.1 -18.45 -34.75 -18.8 -36.7 -19.05 Q-37.05 -19.15 -37.25 -19.35 -37.65 -19.6 -37.55 -19.95 L-37.45 -20.4 -37.25 -20.55 -35.7 -20.75 -31.2 -20.35 -31.15 -20.35 Q-17.2 -19.35 -3.5 -20.9 L-0.45 -21.25 Q12.6 -22.95 24.95 -27.6 L31.8 -30.3 33.35 -30.85 Q35.45 -31.6 37.05 -32.6 37.8 -33.05 39.3 -33.7 L40.55 -34.2 40.65 -34.2 44.15 -40.05 Q46.35 -43.75 48.85 -50.05 L51.4 -56.85 57.4 -74.25 60.7 -84.5 64.0 -94.55 66.35 -104.35 Q68.35 -113.2 68.3 -114.8 68.3 -116.65 67.1 -118.35 L66.3 -119.3 Q64.65 -120.7 62.75 -121.0 61.05 -121.55 59.15 -121.05 58.25 -120.8 58.05 -119.85 L58.0 -119.15 57.85 -118.25 57.65 -115.65 57.45 -113.35 57.1 -112.35 57.1 -110.9 Q57.15 -108.25 56.4 -102.55 55.4 -95.5 54.2 -95.5 53.45 -95.5 53.3 -96.1 L53.2 -96.85 54.3 -101.7 Q55.4 -106.15 55.3 -110.85 L55.3 -111.75 55.25 -111.85 55.25 -112.35 55.2 -113.45 55.2 -113.55 54.95 -114.8 54.35 -115.8 53.85 -116.15 52.6 -116.5 47.9 -116.35 44.35 -116.15 44.6 -112.9 44.5 -109.7 44.0 -105.65 43.75 -101.65 Q43.4 -98.9 42.5 -98.9 41.9 -98.9 41.6 -99.7 L41.3 -100.5 Q41.3 -101.1 42.0 -103.6 L42.1 -105.1 42.35 -106.65 42.75 -112.8 Q42.7 -116.95 42.0 -117.7 41.25 -118.4 37.4 -118.35 L32.3 -118.0 32.2 -117.95 31.4 -117.75 Q29.0 -116.8 27.7 -114.4 26.3 -111.75 25.4 -109.0 L24.75 -107.35 23.1 -101.7 22.95 -100.65 Q22.25 -96.3 21.35 -96.3 20.55 -96.3 20.35 -96.95 L20.35 -97.7 20.65 -99.65 19.75 -99.9 11.6 -99.6 Q10.2 -96.25 9.65 -92.6 9.45 -91.4 9.85 -90.4 10.1 -89.7 10.95 -89.35 L16.55 -87.7 17.7 -84.8 14.55 -75.9 12.05 -68.35 Q11.35 -65.9 10.0 -63.65 L8.95 -61.95 8.75 -62.2 8.65 -62.55 8.7 -63.4 9.05 -65.45 5.05 -65.0 -4.0 -63.9 -13.2 -62.6 -19.15 -61.05 -21.55 -60.35 Q-23.8 -60.05 -25.95 -59.2 -30.25 -57.7 -34.5 -55.6 L-38.25 -53.65 Q-39.25 -53.2 -40.25 -52.85 L-40.7 -52.65" fill="#000000" fill-rule="evenodd" stroke="none"/>
      <path d="M-37.45 -20.4 L-37.75 -21.25 -39.7 -27.5 Q-41.85 -35.65 -41.9 -39.85 L-41.55 -46.5 Q-41.2 -51.1 -40.7 -52.65 L-40.25 -52.85 -39.3 -52.75 -37.55 -53.1 -35.0 -53.8 -28.2 -55.5 Q-15.55 -59.2 -2.8 -61.05 L-0.2 -61.25 3.35 -60.75 7.9 -60.15 11.0 -60.2 Q12.0 -61.4 13.25 -64.5 L15.2 -69.6 18.6 -78.1 Q20.1 -81.75 20.85 -85.5 L21.0 -87.55 20.7 -88.35 Q19.1 -89.7 17.0 -90.15 15.35 -90.6 13.3 -91.5 12.5 -91.7 12.0 -92.2 11.55 -92.7 11.5 -93.2 11.5 -93.75 12.7 -97.2 L13.15 -98.3 13.85 -99.3 14.4 -99.75 17.75 -99.75 19.85 -99.55 19.9 -99.55 20.65 -99.65 20.35 -97.7 20.35 -96.95 Q20.55 -96.3 21.35 -96.3 22.25 -96.3 22.95 -100.65 L24.0 -98.65 Q24.3 -98.15 26.65 -105.95 29.0 -113.8 32.3 -118.0 L37.4 -118.35 Q41.25 -118.4 42.0 -117.7 42.7 -116.95 42.75 -112.8 L42.35 -106.65 42.1 -105.1 42.0 -103.6 Q41.3 -101.1 41.3 -100.5 L41.6 -99.7 Q41.9 -98.9 42.5 -98.9 43.4 -98.9 43.75 -101.65 L44.0 -105.65 44.5 -109.7 44.6 -112.9 44.35 -116.15 47.9 -116.35 52.6 -116.5 53.85 -116.15 54.35 -115.8 54.95 -114.8 55.2 -113.55 55.2 -113.45 55.25 -112.35 55.25 -111.85 55.3 -111.75 55.3 -110.85 Q55.4 -106.15 54.3 -101.7 L53.2 -96.85 53.3 -96.1 Q53.45 -95.5 54.2 -95.5 55.4 -95.5 56.4 -102.55 57.15 -108.25 57.1 -110.9 L57.1 -112.35 57.45 -113.35 57.65 -115.65 57.85 -118.25 58.0 -119.15 58.05 -119.85 62.5 -119.85 64.95 -118.4 Q66.4 -117.25 66.3 -113.25 66.2 -109.25 60.7 -90.75 56.85 -77.55 54.2 -70.5 L49.55 -57.3 48.75 -55.2 45.3 -46.25 40.25 -35.75 39.3 -33.7 Q37.8 -33.05 37.05 -32.6 35.45 -31.6 33.35 -30.85 L31.8 -30.3 24.95 -27.6 Q12.6 -22.95 -0.45 -21.25 L-3.5 -20.9 Q-17.2 -19.35 -31.15 -20.35 L-31.2 -20.35 -35.7 -20.75 -37.25 -20.55 -37.45 -20.4" fill="#999999" fill-rule="evenodd" stroke="none"/>
      <path d="M-40.25 -52.85 Q-39.25 -53.2 -38.25 -53.65 L-34.5 -55.6 Q-30.25 -57.7 -25.95 -59.2 -23.8 -60.05 -21.55 -60.35 L-19.15 -61.05 -13.2 -62.6 -4.0 -63.9 5.05 -65.0 9.05 -65.45 8.7 -63.4 8.65 -62.55 8.75 -62.2 8.95 -61.95 10.0 -63.65 Q11.35 -65.9 12.05 -68.35 L14.55 -75.9 17.7 -84.8 16.55 -87.7 10.95 -89.35 Q10.1 -89.7 9.85 -90.4 9.45 -91.4 9.65 -92.6 10.2 -96.25 11.6 -99.6 L19.75 -99.9 20.65 -99.65 19.9 -99.55 19.85 -99.55 17.75 -99.75 14.4 -99.75 13.85 -99.3 13.15 -98.3 12.7 -97.2 Q11.5 -93.75 11.5 -93.2 11.55 -92.7 12.0 -92.2 12.5 -91.7 13.3 -91.5 15.35 -90.6 17.0 -90.15 19.1 -89.7 20.7 -88.35 L21.0 -87.55 20.85 -85.5 Q20.1 -81.75 18.6 -78.1 L15.2 -69.6 13.25 -64.5 Q12.0 -61.4 11.0 -60.2 L7.9 -60.15 3.35 -60.75 -0.2 -61.25 -2.8 -61.05 Q-15.55 -59.2 -28.2 -55.5 L-35.0 -53.8 -37.55 -53.1 -39.3 -52.75 -40.25 -52.85 M22.95 -100.65 L23.1 -101.7 24.75 -107.35 25.4 -109.0 Q26.3 -111.75 27.7 -114.4 29.0 -116.8 31.4 -117.75 L32.2 -117.95 32.3 -118.0 Q29.0 -113.8 26.65 -105.95 24.3 -98.15 24.0 -98.65 L22.95 -100.65 M58.05 -119.85 Q58.25 -120.8 59.15 -121.05 61.05 -121.55 62.75 -121.0 64.65 -120.7 66.3 -119.3 L67.1 -118.35 Q68.3 -116.65 68.3 -114.8 68.35 -113.2 66.35 -104.35 L64.0 -94.55 60.7 -84.5 57.4 -74.25 51.4 -56.85 48.85 -50.05 Q46.35 -43.75 44.15 -40.05 L40.65 -34.2 40.55 -34.2 39.3 -33.7 40.25 -35.75 45.3 -46.25 48.75 -55.2 49.55 -57.3 54.2 -70.5 Q56.85 -77.55 60.7 -90.75 66.2 -109.25 66.3 -113.25 66.4 -117.25 64.95 -118.4 L62.5 -119.85 58.05 -119.85" fill="#bdbdbd" fill-rule="evenodd" stroke="none"/>
    </g>
  </defs>
</svg>
