<?xml version="1.0" encoding="UTF-8" standalone="no"?>
<svg xmlns:xlink="http://www.w3.org/1999/xlink" height="531.5px" width="460.6px" xmlns="http://www.w3.org/2000/svg">
  <g transform="matrix(1.0, 0.0, 0.0, 1.0, 193.65, 334.05)">
    <use height="22.2" transform="matrix(2.0067, 0.0, 0.0, 2.0067, 31.2966, -79.4534)" width="30.9" xlink:href="#sprite0"/>
  </g>
  <defs>
    <g id="sprite0" transform="matrix(1.0, 0.0, 0.0, 1.0, 0.5, 0.5)">
      <use height="22.2" transform="matrix(1.0, 0.0, 0.0, 1.0, -0.5, -0.5)" width="30.9" xlink:href="#shape0"/>
      <use height="19.3" transform="matrix(1.0, 0.0, 0.0, 1.0, 0.0, 0.0)" width="29.9" xlink:href="#sprite1"/>
    </g>
    <g id="shape0" transform="matrix(1.0, 0.0, 0.0, 1.0, 0.5, 0.5)">
      <path d="M27.95 5.1 Q26.2 0.9 25.7 2.45 26.65 6.85 28.5 7.35 26.65 6.85 25.7 2.45 26.2 0.9 27.95 5.1 M23.05 4.05 Q24.4 3.55 24.9 2.5 25.5 1.2 27.1 1.2 L27.4 1.25 28.75 3.8 29.9 7.2 29.2 7.4 28.5 7.35 Q27.75 7.25 27.1 6.95 L26.2 6.5 Q25.95 6.5 25.15 6.85 L25.6 6.15 22.5 6.4 24.85 4.6 22.8 4.4 23.05 4.05 22.8 4.4 24.85 4.6 22.5 6.4 25.6 6.15 25.15 6.85 Q23.6 7.45 19.9 9.3 14.05 12.15 9.55 13.0 L9.9 10.25 9.95 10.05 12.35 8.65 Q15.05 6.9 16.25 6.5 L19.6 5.15 Q21.1 4.5 21.65 4.4 L23.05 4.05 M21.45 7.0 L16.35 9.1 21.45 7.0" fill="#a8680b" fill-rule="evenodd" stroke="none"/>
      <path d="M27.4 1.25 L27.1 1.2 Q25.5 1.2 24.9 2.5 24.4 3.55 23.05 4.05 L24.4 2.05 23.05 4.05 21.65 4.4 Q21.1 4.5 19.6 5.15 L16.25 6.5 Q15.05 6.9 12.35 8.65 L9.95 10.05 10.05 9.2 10.05 9.1 10.05 9.0 24.4 2.05 24.45 2.0 Q25.45 -1.55 27.4 1.25" fill="#be770e" fill-rule="evenodd" stroke="none"/>
      <path d="M25.15 6.85 Q25.95 6.5 26.2 6.5 L27.1 6.95 Q27.75 7.25 28.5 7.35 L29.2 7.4 29.9 7.2 Q30.15 9.5 27.25 7.9 L27.1 8.0 24.35 8.05 25.15 6.85 24.35 8.05 27.1 8.0 10.7 14.8 9.35 15.4 9.25 15.4 9.45 14.0 9.55 13.15 9.55 13.0 Q14.05 12.15 19.9 9.3 23.6 7.45 25.15 6.85" fill="#704507" fill-rule="evenodd" stroke="none"/>
      <path d="M2.65 11.75 L1.35 11.35 Q0.65 10.95 0.3 10.5 -0.1 10.05 0.0 9.8 L0.75 9.7 Q1.25 9.8 1.95 10.2 L3.1 10.95 Q3.5 11.45 3.35 11.65 L2.65 11.75 M6.7 12.1 Q3.8 7.85 8.6 10.5 9.15 2.15 10.05 9.0 L10.05 9.1 10.05 9.2 9.95 10.05 9.9 10.25 9.55 13.0 9.55 13.15 9.45 14.0 Q8.3 13.95 7.8 13.05 7.25 12.15 6.7 12.1" fill="#b30000" fill-rule="evenodd" stroke="none"/>
      <path d="M6.7 12.1 Q7.25 12.15 7.8 13.05 8.3 13.95 9.45 14.0 L9.25 15.4 9.35 15.4 Q11.1 15.2 9.25 19.3 8.45 18.35 8.55 16.4 5.6 15.7 7.45 13.15 L6.7 12.1 M5.7 16.2 L5.35 16.5 4.6 16.8 3.7 16.95 3.3 16.85 3.6 16.55 Q3.95 16.35 4.45 16.2 L5.25 16.1 5.7 16.2" fill="#7e0101" fill-rule="evenodd" stroke="none"/>
      <path d="M28.5 7.35 Q26.65 6.85 25.7 2.45 26.2 0.9 27.95 5.1 M27.4 1.25 Q25.45 -1.55 24.45 2.0 L24.4 2.05 23.05 4.05 22.8 4.4 24.85 4.6 22.5 6.4 25.6 6.15 25.15 6.85 24.35 8.05 27.1 8.0 27.25 7.9 Q30.15 9.5 29.9 7.2 L28.75 3.8 27.4 1.25 M2.65 11.75 L1.35 11.35 Q0.65 10.95 0.3 10.5 -0.1 10.05 0.0 9.8 L0.75 9.7 Q1.25 9.8 1.95 10.2 L3.1 10.95 Q3.5 11.45 3.35 11.65 L2.65 11.75 M10.05 9.0 Q9.15 2.15 8.6 10.5 3.8 7.85 6.7 12.1 L7.45 13.15 Q5.6 15.7 8.55 16.4 8.45 18.35 9.25 19.3 11.1 15.2 9.35 15.4 L10.7 14.8 27.1 8.0 M9.45 14.0 L9.55 13.15 M9.55 13.0 L9.9 10.25 M9.95 10.05 L10.05 9.2 10.05 9.1 10.05 9.0 24.4 2.05 M9.35 15.4 L9.25 15.4 9.45 14.0 M10.7 14.8 L13.05 21.2 M16.35 9.1 L21.45 7.0" fill="none" stroke="#000000" stroke-linecap="round" stroke-linejoin="round" stroke-opacity="0.6627451" stroke-width="1.0"/>
      <path d="M5.7 16.2 L5.35 16.5 4.6 16.8 3.7 16.95 3.3 16.85 3.6 16.55 Q3.95 16.35 4.45 16.2 L5.25 16.1 5.7 16.2" fill="none" stroke="#000000" stroke-linecap="round" stroke-linejoin="round" stroke-opacity="0.6627451" stroke-width="0.6000000000000001"/>
    </g>
    <g id="sprite1" transform="matrix(1.0, 0.0, 0.0, 1.0, 0.0, 0.0)">
      <use height="19.3" transform="matrix(1.0, 0.0, 0.0, 1.0, 0.0, 0.0)" width="29.9" xlink:href="#shape1"/>
    </g>
    <g id="shape1" transform="matrix(1.0, 0.0, 0.0, 1.0, 0.0, 0.0)">
      <path d="M27.25 1.05 L27.4 1.25 27.1 1.2 27.25 1.05" fill="url(#gradient0)" fill-rule="evenodd" stroke="none"/>
      <path d="M9.25 15.4 L9.35 15.4 9.25 15.4" fill="url(#gradient1)" fill-rule="evenodd" stroke="none"/>
      <path d="M9.35 15.4 Q11.1 15.2 9.25 19.3 8.45 18.35 8.55 16.4 5.6 15.7 7.45 13.15 L6.7 12.1 Q3.8 7.85 8.6 10.5 9.15 2.15 10.05 9.0 L10.05 9.1 10.05 9.2 9.95 10.05 9.9 10.25 9.55 13.0 9.55 13.15 9.25 15.4 9.35 15.4" fill="url(#gradient2)" fill-rule="evenodd" stroke="none"/>
      <path d="M1.35 11.35 Q0.65 10.95 0.3 10.5 -0.1 10.05 0.0 9.8 L0.75 9.7 Q1.25 9.8 1.95 10.2 L3.1 10.95 Q3.5 11.45 3.35 11.65 L2.65 11.75 1.35 11.35" fill="url(#gradient3)" fill-rule="evenodd" stroke="none"/>
      <path d="M5.35 16.5 L4.6 16.8 3.7 16.95 3.3 16.85 3.6 16.55 Q3.95 16.35 4.45 16.2 L5.25 16.1 5.7 16.2 5.35 16.5" fill="url(#gradient4)" fill-rule="evenodd" stroke="none"/>
      <path d="M27.25 1.05 L27.1 1.2 27.4 1.25 28.75 3.8 29.9 7.2 Q30.15 9.5 27.25 7.9 L27.1 8.0 9.35 15.4 9.25 15.4 9.55 13.15 9.55 13.0 9.9 10.25 9.95 10.05 10.05 9.2 10.05 9.1 10.05 9.0 24.4 2.05 24.45 2.0 Q25.4 -1.4 27.25 1.05" fill="url(#gradient5)" fill-rule="evenodd" stroke="none"/>
    </g>
    <linearGradient gradientTransform="matrix(2.0E-4, 0.0, 0.0, 1.0E-4, 27.25, 1.15)" gradientUnits="userSpaceOnUse" id="gradient0" spreadMethod="pad" x1="-819.2" x2="819.2">
      <stop offset="0.0" stop-color="#000000"/>
      <stop offset="1.0" stop-color="#ffffff"/>
    </linearGradient>
    <linearGradient gradientTransform="matrix(1.0E-4, 0.0, 0.0, 0.0, 9.3, 15.4)" gradientUnits="userSpaceOnUse" id="gradient1" spreadMethod="pad" x1="-819.2" x2="819.2">
      <stop offset="0.0" stop-color="#000000"/>
      <stop offset="1.0" stop-color="#ffffff"/>
    </linearGradient>
    <linearGradient gradientTransform="matrix(-0.0178, -0.0048, 0.0021, -0.0079, 8.65, 13.1)" gradientUnits="userSpaceOnUse" id="gradient2" spreadMethod="pad" x1="-819.2" x2="819.2">
      <stop offset="0.0" stop-color="#000000"/>
      <stop offset="1.0" stop-color="#ffffff"/>
    </linearGradient>
    <linearGradient gradientTransform="matrix(0.0142, 0.0, 0.0, 0.0013, 1.7, 10.7)" gradientUnits="userSpaceOnUse" id="gradient3" spreadMethod="pad" x1="-819.2" x2="819.2">
      <stop offset="0.0" stop-color="#000000"/>
      <stop offset="1.0" stop-color="#ffffff"/>
    </linearGradient>
    <linearGradient gradientTransform="matrix(0.0131, 0.0, 0.0, 5.0E-4, 4.5, 16.5)" gradientUnits="userSpaceOnUse" id="gradient4" spreadMethod="pad" x1="-819.2" x2="819.2">
      <stop offset="0.0" stop-color="#000000"/>
      <stop offset="1.0" stop-color="#ffffff"/>
    </linearGradient>
    <linearGradient gradientTransform="matrix(0.0244, -0.0244, 0.0067, 0.0067, 23.95, 4.55)" gradientUnits="userSpaceOnUse" id="gradient5" spreadMethod="pad" x1="-819.2" x2="819.2">
      <stop offset="0.0" stop-color="#000000"/>
      <stop offset="1.0" stop-color="#ffffff"/>
    </linearGradient>
  </defs>
</svg>
