<?xml version="1.0" encoding="UTF-8" standalone="no"?>
<svg xmlns:xlink="http://www.w3.org/1999/xlink" height="531.5px" width="460.6px" xmlns="http://www.w3.org/2000/svg">
  <g transform="matrix(1.0, 0.0, 0.0, 1.0, 193.65, 334.05)">
    <use height="62.3" transform="matrix(0.5228, 0.0, 0.0, 0.4983, -81.2649, -176.822)" width="280.1" xlink:href="#shape0"/>
    <use height="58.8" transform="matrix(0.5228, 0.0, 0.0, 0.4983, -80.35, -175.95)" width="276.6" xlink:href="#sprite0"/>
  </g>
  <defs>
    <g id="shape0" transform="matrix(1.0, 0.0, 0.0, 1.0, 1.75, 1.75)">
      <path d="M73.1 3.6 L91.2 0.9 Q108.3 -0.8 144.95 0.75 L152.8 1.1 173.15 2.25 178.75 2.6 Q216.9 5.0 248.4 8.45 L255.75 9.25 271.9 11.25 275.0 11.65 Q278.5 41.95 274.25 57.85 L244.3 58.55 238.25 58.7 Q213.1 59.15 209.85 57.25 L200.8 42.3 190.55 42.5 179.4 56.2 149.75 57.15 140.95 57.3 120.6 56.95 111.15 56.5 101.5 55.85 100.95 55.8 101.3 55.6 101.3 55.55 Q94.9 47.05 89.1 37.25 79.6 21.2 73.6 5.0 L73.1 3.6 M265.55 19.85 L265.55 19.75 249.25 19.05 241.55 18.75 218.2 17.75 218.4 29.4 218.6 42.5 225.25 42.75 233.45 43.05 248.1 43.6 253.1 43.8 265.6 44.25 265.55 19.85 M150.95 43.45 L166.45 43.75 168.65 18.2 169.0 14.25 144.8 13.55 137.15 13.35 111.1 12.55 110.9 21.3 110.4 42.65 119.5 42.85 127.55 43.0 140.45 43.25 150.95 43.45" fill="#ffffff" fill-rule="evenodd" stroke="none"/>
      <path d="M249.25 19.05 L265.55 19.75 265.55 19.85 257.85 30.2 Q252.55 37.3 248.6 42.95 L241.7 41.35 236.05 39.2 241.75 30.45 249.25 19.05 M218.4 29.4 L218.2 17.75 241.55 18.75 229.8 36.25 226.7 34.85 Q224.7 33.95 222.05 32.1 L222.2 31.85 Q224.15 26.7 224.75 25.85 226.9 22.65 230.7 23.85 L230.7 22.85 Q229.6 22.15 229.15 22.0 L227.2 21.85 Q222.55 21.85 221.9 24.15 221.45 25.8 221.7 31.85 L218.4 29.4" fill="#e30202" fill-rule="evenodd" stroke="none"/>
      <path d="M249.25 19.05 L241.75 30.45 236.05 39.2 233.45 43.05 225.25 42.75 229.8 36.25 241.55 18.75 249.25 19.05 M248.6 42.95 Q252.55 37.3 257.85 30.2 L265.55 19.85 265.6 44.25 253.1 43.8 248.6 42.95 M221.7 31.85 Q221.45 25.8 221.9 24.15 222.55 21.85 227.2 21.85 L229.15 22.0 Q229.6 22.15 230.7 22.85 L230.7 23.85 Q226.9 22.65 224.75 25.85 224.15 26.7 222.2 31.85 L221.7 31.85" fill="#ff3d3d" fill-rule="evenodd" stroke="none"/>
      <path d="M253.1 43.8 L248.1 43.6 248.6 42.95 253.1 43.8 M222.2 31.85 L222.05 32.1 221.7 31.85 222.2 31.85" fill="#ff0000" fill-rule="evenodd" stroke="none"/>
      <path d="M236.05 39.2 L241.7 41.35 248.6 42.95 248.1 43.6 233.45 43.05 236.05 39.2 M225.25 42.75 L218.6 42.5 218.4 29.4 221.7 31.85 222.05 32.1 Q224.7 33.95 226.7 34.85 L229.8 36.25 225.25 42.75" fill="#a90101" fill-rule="evenodd" stroke="none"/>
      <path d="M150.95 43.45 L140.45 43.25 Q135.3 41.7 131.45 39.9 L129.7 39.05 Q136.15 27.35 144.8 13.55 L169.0 14.25 168.65 18.2 157.3 34.65 150.95 43.45 M110.9 21.3 L111.1 12.55 137.15 13.35 131.15 23.1 123.75 35.45 Q115.75 29.75 110.9 21.3 M126.6 20.35 L126.6 19.35 123.4 18.3 Q120.9 17.35 119.85 17.35 L118.05 17.6 116.1 17.85 116.1 23.35 Q116.15 24.1 116.45 24.7 116.95 25.7 118.1 26.35 118.55 26.05 119.6 22.8 120.55 19.85 121.6 19.85 L124.0 20.1 126.6 20.35" fill="#000099" fill-rule="evenodd" stroke="none"/>
      <path d="M168.65 18.2 L166.45 43.75 150.95 43.45 157.3 34.65 168.65 18.2 M127.55 43.0 L119.5 42.85 123.75 35.45 131.15 23.1 137.15 13.35 144.8 13.55 Q136.15 27.35 129.7 39.05 L128.9 40.5 127.55 43.0 M126.6 20.35 L124.0 20.1 121.6 19.85 Q120.55 19.85 119.6 22.8 118.55 26.05 118.1 26.35 116.95 25.7 116.45 24.7 116.15 24.1 116.1 23.35 L116.1 17.85 118.05 17.6 119.85 17.35 Q120.9 17.35 123.4 18.3 L126.6 19.35 126.6 20.35" fill="#3535fd" fill-rule="evenodd" stroke="none"/>
      <path d="M140.45 43.25 L127.55 43.0 128.9 40.5 129.7 39.05 131.45 39.9 Q135.3 41.7 140.45 43.25 M119.5 42.85 L110.4 42.65 110.9 21.3 Q115.75 29.75 123.75 35.45 L119.5 42.85" fill="#01016d" fill-rule="evenodd" stroke="none"/>
      <path d="M100.95 55.8 L81.25 40.8 Q61.2 25.5 31.4 31.7 16.2 35.0 18.35 50.4 9.6 55.5 2.5 52.25 -6.4 27.1 16.5 12.05 L73.1 3.6 73.6 5.0 Q79.6 21.2 89.1 37.25 94.9 47.05 101.3 55.55 L100.95 55.8" fill="#d9d9d9" fill-rule="evenodd" stroke="none"/>
      <path d="M101.3 55.55 L101.3 55.6 100.95 55.8 101.3 55.55" fill="#b3b3b3" fill-rule="evenodd" stroke="none"/>
      <path d="M73.1 3.6 L91.2 0.9 Q108.3 -0.8 144.95 0.75 L152.8 1.1 173.15 2.25 178.75 2.6 Q216.9 5.0 248.4 8.45 L255.75 9.25 271.9 11.25 275.0 11.65 Q278.5 41.95 274.25 57.85 L244.3 58.55 238.25 58.7 Q213.1 59.15 209.85 57.25 L200.8 42.3 190.55 42.5 179.4 56.2 149.75 57.15 140.95 57.3 120.6 56.95 111.15 56.5 101.5 55.85 100.95 55.8 81.25 40.8 Q61.2 25.5 31.4 31.7 16.2 35.0 18.35 50.4 9.6 55.5 2.5 52.25 -6.4 27.1 16.5 12.05 L73.1 3.6 M265.55 19.85 L265.55 19.75 249.25 19.05 241.55 18.75 218.2 17.75 218.4 29.4 218.6 42.5 225.25 42.75 233.45 43.05 248.1 43.6 253.1 43.8 265.6 44.25 265.55 19.85 M168.65 18.2 L166.45 43.75 150.95 43.45 140.45 43.25 127.55 43.0 119.5 42.85 110.4 42.65 110.9 21.3 111.1 12.55 137.15 13.35 144.8 13.55 169.0 14.25 168.65 18.2" fill="none" stroke="#000000" stroke-linecap="round" stroke-linejoin="round" stroke-opacity="0.67058825" stroke-width="3.5"/>
    </g>
    <g id="sprite0" transform="matrix(1.0, 0.0, 0.0, 1.0, 0.0, 0.0)">
      <use height="58.8" transform="matrix(1.0, 0.0, 0.0, 1.0, 0.0, 0.0)" width="276.6" xlink:href="#shape1"/>
    </g>
    <g id="shape1" transform="matrix(1.0, 0.0, 0.0, 1.0, 0.0, 0.0)">
      <path d="M248.6 42.95 L248.1 43.6 248.25 42.9 248.6 42.95" fill="url(#gradient0)" fill-rule="evenodd" stroke="none"/>
      <path d="M230.45 23.8 L230.7 22.85 230.7 23.85 230.45 23.8" fill="url(#gradient1)" fill-rule="evenodd" stroke="none"/>
      <path d="M222.05 32.1 L221.7 31.85 222.2 31.85 222.05 32.1" fill="url(#gradient2)" fill-rule="evenodd" stroke="none"/>
      <path d="M248.6 42.95 L253.1 43.8 248.1 43.6 248.6 42.95" fill="url(#gradient3)" fill-rule="evenodd" stroke="none"/>
      <path d="M100.95 55.8 L101.3 55.55 101.3 55.6 100.95 55.8" fill="url(#gradient4)" fill-rule="evenodd" stroke="none"/>
      <path d="M253.1 43.8 L248.6 42.95 248.25 42.9 248.1 43.6 218.6 42.5 218.2 17.75 265.55 19.75 265.6 44.25 253.1 43.8 M230.45 23.8 L230.7 23.85 230.7 22.85 230.45 23.8 M222.05 32.1 L222.2 31.85 221.7 31.85 222.05 32.1" fill="url(#gradient5)" fill-rule="evenodd" stroke="none"/>
      <path d="M166.45 43.75 L110.4 42.65 111.1 12.55 169.0 14.25 166.45 43.75" fill="url(#gradient6)" fill-rule="evenodd" stroke="none"/>
      <path d="M275.0 11.65 Q278.5 41.95 274.25 57.85 L244.3 58.55 238.25 58.7 Q213.1 59.15 209.85 57.25 L200.8 42.3 190.55 42.5 179.4 56.2 149.75 57.15 140.95 57.3 120.6 56.95 111.15 56.5 101.5 55.85 100.95 55.8 81.25 40.8 Q61.2 25.5 31.4 31.7 16.2 35.0 18.35 50.4 9.6 55.5 2.5 52.25 -6.4 27.1 16.5 12.05 L91.2 0.9 Q108.3 -0.8 144.95 0.75 L152.8 1.1 173.15 2.25 178.75 2.6 Q216.9 5.0 248.4 8.45 L255.75 9.25 271.9 11.25 275.0 11.65 M248.1 43.6 L253.1 43.8 265.6 44.25 265.55 19.75 218.2 17.75 218.6 42.5 248.1 43.6 M166.45 43.75 L169.0 14.25 111.1 12.55 110.4 42.65 166.45 43.75 M100.95 55.8 L101.3 55.6 101.3 55.55 100.95 55.8" fill="url(#gradient7)" fill-rule="evenodd" stroke="none"/>
    </g>
    <linearGradient gradientTransform="matrix(3.0E-4, 0.0, 0.0, 4.0E-4, 248.35, 43.25)" gradientUnits="userSpaceOnUse" id="gradient0" spreadMethod="pad" x1="-819.2" x2="819.2">
      <stop offset="0.0" stop-color="#000000"/>
      <stop offset="1.0" stop-color="#ffffff"/>
    </linearGradient>
    <linearGradient gradientTransform="matrix(2.0E-4, 0.0, 0.0, 6.0E-4, 230.55, 23.35)" gradientUnits="userSpaceOnUse" id="gradient1" spreadMethod="pad" x1="-819.2" x2="819.2">
      <stop offset="0.0" stop-color="#000000"/>
      <stop offset="1.0" stop-color="#ffffff"/>
    </linearGradient>
    <linearGradient gradientTransform="matrix(3.0E-4, 0.0, 0.0, 2.0E-4, 221.95, 31.95)" gradientUnits="userSpaceOnUse" id="gradient2" spreadMethod="pad" x1="-819.2" x2="819.2">
      <stop offset="0.0" stop-color="#000000"/>
      <stop offset="1.0" stop-color="#ffffff"/>
    </linearGradient>
    <linearGradient gradientTransform="matrix(0.0031, 0.0, 0.0, 5.0E-4, 250.6, 43.35)" gradientUnits="userSpaceOnUse" id="gradient3" spreadMethod="pad" x1="-819.2" x2="819.2">
      <stop offset="0.0" stop-color="#000000"/>
      <stop offset="1.0" stop-color="#ffffff"/>
    </linearGradient>
    <linearGradient gradientTransform="matrix(2.0E-4, 0.0, 0.0, 2.0E-4, 101.1, 55.65)" gradientUnits="userSpaceOnUse" id="gradient4" spreadMethod="pad" x1="-819.2" x2="819.2">
      <stop offset="0.0" stop-color="#000000"/>
      <stop offset="1.0" stop-color="#ffffff"/>
    </linearGradient>
    <linearGradient gradientTransform="matrix(0.0311, -0.0137, 0.0065, 0.0148, 236.05, 31.05)" gradientUnits="userSpaceOnUse" id="gradient5" spreadMethod="pad" x1="-819.2" x2="819.2">
      <stop offset="0.0" stop-color="#000000"/>
      <stop offset="1.0" stop-color="#ffffff"/>
    </linearGradient>
    <linearGradient gradientTransform="matrix(0.0332, -0.0133, 0.0071, 0.0177, 134.15, 29.35)" gradientUnits="userSpaceOnUse" id="gradient6" spreadMethod="pad" x1="-819.2" x2="819.2">
      <stop offset="0.0" stop-color="#000000"/>
      <stop offset="1.0" stop-color="#ffffff"/>
    </linearGradient>
    <linearGradient gradientTransform="matrix(0.0787, -0.0066, 0.003, 0.0358, 54.05, 41.8)" gradientUnits="userSpaceOnUse" id="gradient7" spreadMethod="pad" x1="-819.2" x2="819.2">
      <stop offset="0.0" stop-color="#000000"/>
      <stop offset="1.0" stop-color="#ffffff"/>
    </linearGradient>
  </defs>
</svg>
