<?xml version="1.0" encoding="UTF-8" standalone="no"?>
<svg xmlns:xlink="http://www.w3.org/1999/xlink" height="531.5px" width="460.6px" xmlns="http://www.w3.org/2000/svg">
  <g transform="matrix(1.0, 0.0, 0.0, 1.0, 193.65, 334.05)">
    <use height="19.4" transform="matrix(1.9412, 0.0, 0.0, 1.9412, -78.0206, -41.1206)" width="77.65" xlink:href="#sprite0"/>
  </g>
  <defs>
    <g id="sprite0" transform="matrix(1.0, 0.0, 0.0, 1.0, 0.5, 0.5)">
      <use height="19.4" transform="matrix(1.0, 0.0, 0.0, 1.0, -0.5, -0.5)" width="77.65" xlink:href="#shape0"/>
      <use height="18.4" transform="matrix(1.0, 0.0, 0.0, 1.0, 0.0, 0.0)" width="76.65" xlink:href="#sprite1"/>
    </g>
    <g id="shape0" transform="matrix(1.0, 0.0, 0.0, 1.0, 0.5, 0.5)">
      <path d="M71.55 0.8 L71.25 1.2 70.65 2.05 69.85 2.05 67.6 2.05 68.3 0.8 71.55 0.8 M52.0 16.05 L51.35 16.05 52.2 14.55 54.0 14.55 52.0 16.05 M49.55 16.0 L48.7 16.0 47.8 15.15 47.6 14.2 47.6 13.6 47.2 4.4 47.2 4.2 Q47.3 2.8 49.2 2.4 L51.5 2.45 51.45 2.5 50.55 3.7 50.15 3.7 Q49.4 3.9 49.15 4.4 48.9 4.75 48.9 5.2 L48.95 6.3 48.95 6.4 49.15 13.1 49.2 13.6 Q49.35 14.15 49.85 14.5 L50.5 14.5 50.25 14.85 49.55 16.0 M0.5 12.8 L0.5 12.75 0.6 12.6 1.75 11.35 2.7 11.35 5.25 11.35 3.05 12.5 2.2 12.85 0.5 12.8 M4.9 0.05 L8.9 0.15 9.0 0.0 10.65 0.0 9.9 1.2 9.9 1.25 8.6 1.2 8.5 1.2 8.5 1.25 6.1 1.25 4.1 1.25 3.7 1.25 4.9 0.05 M12.2 0.0 L16.75 0.0 16.15 1.25 14.9 1.25 12.1 1.25 11.35 1.25 11.7 0.75 12.2 0.0 M25.9 1.6 Q25.65 1.35 26.4 0.4 L27.8 0.4 27.65 0.55 26.95 1.65 26.0 1.6 25.9 1.6 M29.1 0.4 L33.3 0.4 32.4 1.4 32.25 1.6 32.3 1.65 29.5 1.65 28.35 1.65 29.1 0.4 M52.75 2.45 L54.8 2.45 Q55.85 2.8 56.15 4.35 L56.25 5.2 56.5 11.25 55.2 13.2 55.0 13.45 54.7 13.8 54.75 13.25 54.6 5.95 54.6 5.55 54.3 4.35 53.7 3.75 51.85 3.75 52.75 2.45 M63.7 2.0 Q63.5 1.75 64.2 0.8 L67.05 0.8 66.45 2.05 65.25 2.05 63.8 2.0 63.7 2.0 M61.65 6.0 L64.1 6.1 65.4 6.15 65.0 7.1 64.85 7.5 63.9 7.45 61.45 7.4 61.45 7.25 61.65 6.0 M66.15 6.15 L67.0 6.2 70.05 6.25 70.55 6.3 69.2 7.55 66.9 7.5 65.7 7.5 66.15 6.15 M61.55 12.15 L63.9 12.15 64.65 12.15 64.0 13.65 61.8 13.6 61.6 12.6 61.55 12.15 M65.55 12.2 L66.9 12.2 68.05 12.25 67.25 12.85 66.15 13.7 64.8 13.65 65.55 12.2 M53.3 8.45 L53.3 9.9 52.8 10.7 Q51.95 11.8 51.0 12.1 L50.95 11.85 50.9 11.6 50.9 11.5 53.3 8.45 M50.85 8.85 L50.8 7.1 Q50.8 6.65 51.05 6.45 L51.3 6.25 52.8 6.3 50.9 8.75 50.85 8.85 M33.6 5.9 L31.95 7.15 30.3 7.1 30.15 7.1 29.2 7.1 26.1 7.05 26.85 5.95 27.0 5.75 29.3 5.8 32.5 5.85 33.6 5.9 M32.05 11.85 L29.85 13.3 29.2 13.3 26.5 13.25 25.6 13.25 26.7 11.75 29.2 11.8 32.05 11.85 M26.3 5.7 L26.35 5.7 25.45 7.05 23.5 7.0 23.75 5.6 26.3 5.7 M23.6 11.75 L25.8 11.75 24.6 13.25 23.9 13.2 23.6 11.75 M10.65 5.35 L11.9 5.4 13.55 5.45 11.75 6.6 11.8 6.7 9.6 6.7 10.65 5.35 M13.25 11.45 L12.05 12.3 11.2 12.9 9.1 12.85 7.2 12.85 8.35 11.35 8.7 11.35 11.8 11.4 13.25 11.45 M6.35 5.2 L8.85 5.3 8.2 6.05 7.7 6.65 6.1 6.6 6.35 5.2 6.1 6.6 2.7 6.65 2.3 6.65 3.25 5.3 6.35 5.2 M8.9 0.15 Q8.25 0.95 8.5 1.2 8.25 0.95 8.9 0.15 M6.3 11.95 L6.2 11.4 6.2 11.35 6.8 11.35 6.3 11.95" fill="#ebb123" fill-rule="evenodd" stroke="none"/>
      <path d="M70.65 2.05 L71.25 1.2 71.55 0.8 73.3 0.8 Q74.3 1.4 74.05 2.1 L72.25 2.05 70.65 2.05 M76.3 6.4 L76.3 6.55 76.5 7.5 76.5 7.6 76.4 7.6 74.05 7.65 70.15 7.55 69.2 7.55 70.55 6.3 73.65 6.35 76.3 6.4 M76.4 12.4 L76.1 13.8 76.05 13.8 73.6 13.8 70.4 13.75 66.9 13.7 66.15 13.7 67.25 12.85 68.05 12.25 70.3 12.25 74.05 12.3 76.4 12.4 M73.6 17.1 L73.65 18.4 63.9 18.3 63.75 17.0 65.35 17.05 67.35 17.05 70.5 17.1 72.5 17.1 73.6 17.1 M36.25 16.7 L36.3 18.0 26.1 17.9 25.95 16.6 27.6 16.65 29.7 16.65 33.0 16.7 35.1 16.7 36.25 16.7 M18.85 16.3 L18.9 17.6 8.7 17.5 2.7 17.5 2.55 16.2 4.2 16.25 6.3 16.25 8.55 16.3 8.7 17.5 8.55 16.3 9.1 16.25 10.2 16.25 12.3 16.25 15.6 16.3 17.7 16.3 18.85 16.3 M16.75 0.0 L18.5 0.0 Q19.55 0.6 19.3 1.3 L17.4 1.25 16.15 1.25 16.75 0.0 M33.3 0.4 L35.9 0.4 Q36.95 1.0 36.7 1.7 L34.8 1.65 32.3 1.65 32.25 1.6 32.4 1.4 33.3 0.4 M39.25 7.05 L39.25 7.2 37.25 7.25 36.7 7.25 32.6 7.15 31.95 7.15 33.6 5.9 36.3 5.95 39.05 6.0 39.05 6.15 39.25 7.05 M39.2 12.0 L38.85 13.4 38.8 13.4 38.6 13.4 36.25 13.4 32.9 13.35 29.85 13.3 32.05 11.85 32.8 11.85 36.7 11.9 39.2 12.0 M21.65 5.6 L21.65 5.75 21.85 6.8 20.65 6.85 19.3 6.85 15.2 6.75 11.8 6.7 11.75 6.6 13.55 5.45 15.1 5.45 18.9 5.55 21.65 5.6 M21.75 11.6 L21.45 13.0 21.4 13.0 18.85 13.0 15.5 12.95 11.8 12.9 11.2 12.9 12.05 12.3 13.25 11.45 15.4 11.45 15.65 11.45 19.3 11.5 21.75 11.6 M5.25 11.35 L6.2 11.35 6.2 11.4 6.3 11.95 6.5 12.8 3.1 12.85 2.2 12.85 3.05 12.5 5.25 11.35" fill="#8c6714" fill-rule="evenodd" stroke="none"/>
      <path d="M67.6 2.05 L69.85 2.05 70.65 2.05 72.25 2.05 74.05 2.1 74.25 2.55 Q75.95 4.8 76.3 6.4 L73.65 6.35 72.25 2.05 73.65 6.35 70.55 6.3 70.05 6.25 67.0 6.2 66.15 6.15 65.4 6.15 64.1 6.1 61.65 6.0 62.05 4.55 62.2 4.15 Q62.55 3.45 63.8 2.1 L63.8 2.05 63.8 2.0 65.25 2.05 64.1 6.1 65.25 2.05 66.45 2.05 67.15 2.05 67.6 2.05 M0.2 11.35 L0.2 11.2 0.0 9.1 0.1 6.6 2.3 6.65 2.7 6.65 2.7 11.35 2.7 6.65 6.1 6.6 7.7 6.65 8.7 6.65 9.6 6.7 11.8 6.7 15.2 6.75 19.3 6.85 20.65 6.85 19.3 8.45 18.35 9.35 15.65 11.45 15.4 11.45 13.25 11.45 11.8 11.4 8.7 11.35 8.35 11.35 6.8 11.35 6.2 11.35 5.25 11.35 2.7 11.35 1.75 11.35 0.2 11.35 M0.35 5.2 L0.75 3.75 0.8 3.6 Q1.05 2.9 2.6 1.3 L2.6 1.25 2.6 1.2 3.7 1.25 4.1 1.25 6.1 1.25 8.5 1.25 8.6 1.25 8.6 1.2 9.9 1.25 10.1 1.25 8.9 5.3 10.1 1.25 11.35 1.25 12.1 1.25 14.9 1.25 16.15 1.25 17.4 1.25 18.9 5.55 17.4 1.25 19.3 1.3 19.5 1.75 20.65 3.4 21.55 5.2 21.65 5.6 18.9 5.55 15.1 5.45 14.9 1.25 15.1 5.45 13.55 5.45 11.9 5.4 10.65 5.35 8.9 5.3 8.85 5.3 6.35 5.2 6.1 1.25 6.35 5.2 6.75 3.75 Q6.85 3.1 8.6 1.25 6.85 3.1 6.75 3.75 L6.35 5.2 3.25 5.3 2.9 5.3 0.35 5.2 M24.4 3.65 L26.0 1.7 26.0 1.65 26.0 1.6 26.95 1.65 27.5 1.65 28.35 1.65 29.5 1.65 29.3 5.8 29.5 1.65 32.3 1.65 32.5 5.85 32.3 1.65 34.8 1.65 36.7 1.7 36.9 2.15 38.35 4.3 39.0 5.7 39.05 6.0 36.3 5.95 33.6 5.9 32.5 5.85 29.3 5.8 27.0 5.75 26.35 5.7 26.3 5.7 27.5 1.65 26.3 5.7 23.75 5.6 24.15 4.15 24.4 3.65 M74.05 9.65 L73.1 10.1 70.3 11.35 70.3 12.25 68.05 12.25 66.9 12.2 65.55 12.2 64.65 12.15 63.9 12.15 61.55 12.15 61.5 12.0 61.35 9.75 61.45 7.4 63.9 7.45 64.85 7.5 65.7 7.5 66.9 7.5 66.9 12.2 66.9 7.5 69.2 7.55 70.15 7.55 74.05 7.65 74.05 9.65 74.05 7.65 76.4 7.6 Q75.45 8.85 74.05 9.65 M70.3 11.35 L70.15 7.55 70.3 11.35 M67.15 2.05 L67.0 6.2 67.15 2.05 M63.9 7.45 L63.9 12.15 63.9 7.45 M70.05 6.25 L69.85 2.05 70.05 6.25 M31.95 7.15 L32.6 7.15 36.7 7.25 37.25 7.25 36.7 7.65 35.0 8.75 34.8 8.85 32.75 9.95 32.6 7.15 32.75 9.95 Q30.8 10.85 29.2 11.15 L29.2 11.8 26.7 11.75 26.1 11.75 26.1 11.2 24.6 10.8 23.45 10.25 23.4 9.45 Q23.35 8.55 23.45 7.75 L23.5 7.0 25.45 7.05 26.1 7.05 26.1 11.2 26.1 7.05 29.2 7.1 30.15 7.1 30.3 7.1 31.95 7.15 M36.7 7.25 L36.7 7.65 36.7 7.25 M34.8 1.65 L36.3 5.95 34.8 1.65 M29.2 7.1 L29.2 11.15 29.2 7.1 M12.1 1.25 L11.9 5.4 12.1 1.25 M11.8 6.7 L11.8 11.4 11.8 6.7 M8.7 11.35 L8.7 6.65 8.7 11.35 M19.3 6.85 L19.3 8.45 19.3 6.85 M15.4 11.45 L15.2 6.75 15.4 11.45 M4.1 1.25 L2.9 5.3 4.1 1.25 M6.1 6.6 L6.0 8.5 6.0 8.75 6.1 10.7 6.15 11.05 6.2 11.35 6.15 11.05 6.1 10.7 6.0 8.75 6.0 8.5 6.1 6.6" fill="#54310e" fill-rule="evenodd" stroke="none"/>
      <path d="M76.5 7.6 Q76.8 9.85 76.4 12.4 L74.05 12.3 70.3 12.25 70.3 11.35 73.1 10.1 74.05 9.65 74.05 12.3 74.05 9.65 Q75.45 8.85 76.4 7.6 L76.5 7.6 M76.05 13.95 Q75.7 15.25 73.6 17.1 L72.5 17.1 70.5 17.1 67.35 17.05 65.35 17.05 64.3 13.65 65.35 17.05 63.75 17.0 63.7 16.8 63.35 16.35 63.15 16.15 62.2 14.95 62.15 14.8 61.8 13.6 64.0 13.65 64.3 13.65 64.8 13.65 66.15 13.7 66.9 13.7 67.35 17.05 66.9 13.7 70.4 13.75 73.6 13.8 76.05 13.8 76.05 13.95 M37.9 15.1 L36.25 16.7 35.1 16.7 33.0 16.7 32.9 13.35 33.0 16.7 29.7 16.65 27.6 16.65 25.95 16.6 25.9 16.4 24.5 14.75 24.45 14.7 24.3 14.55 24.1 13.9 23.9 13.2 24.6 13.25 25.6 13.25 26.5 13.25 29.2 13.3 29.85 13.3 32.9 13.35 36.25 13.4 38.6 13.4 38.8 13.4 38.8 13.55 37.9 15.1 M20.65 14.5 L18.85 16.3 17.7 16.3 18.85 13.0 17.7 16.3 15.6 16.3 15.5 12.95 15.6 16.3 12.3 16.25 10.2 16.25 9.1 16.25 8.55 16.2 8.55 16.3 6.3 16.25 6.5 12.8 6.7 13.5 6.9 14.15 8.5 16.0 8.55 16.2 8.5 16.0 6.9 14.15 6.7 13.5 6.5 12.8 6.3 16.25 4.2 16.25 2.55 16.2 2.5 16.0 0.9 14.15 0.65 13.3 0.5 12.8 2.2 12.85 3.1 12.85 6.5 12.8 7.2 12.85 9.1 12.85 11.2 12.9 11.8 12.9 15.5 12.95 18.85 13.0 21.4 13.0 21.4 13.15 20.65 14.5 M70.4 13.75 L70.5 17.1 70.4 13.75 M73.6 13.8 L72.5 17.1 73.6 13.8 M39.25 7.2 Q39.6 9.4 39.2 11.8 L39.2 12.0 36.7 11.9 32.8 11.85 32.05 11.85 29.2 11.8 29.2 11.15 Q30.8 10.85 32.75 9.95 L34.8 8.85 35.0 8.75 36.7 7.65 37.25 7.25 39.25 7.2 M32.75 9.95 L32.8 11.85 32.75 9.95 M36.7 7.65 L36.7 11.9 36.7 7.65 M21.85 6.8 L22.0 7.8 22.0 8.75 21.75 11.2 21.75 11.6 19.3 11.5 15.65 11.45 18.35 9.35 19.3 8.45 20.65 6.85 21.85 6.8 M23.55 11.2 L23.45 10.25 24.6 10.8 26.1 11.2 26.1 11.75 25.8 11.75 23.6 11.75 23.55 11.2 M26.5 13.25 L27.6 16.65 26.5 13.25 M29.2 13.3 L29.7 16.65 29.2 13.3 M36.25 13.4 L35.1 16.7 36.25 13.4 M19.3 11.5 L19.3 8.45 19.3 11.5 M9.1 12.85 L10.2 16.25 9.1 12.85 M3.1 12.85 L4.2 16.25 3.1 12.85 M11.8 12.9 L12.3 16.25 11.8 12.9" fill="#361f09" fill-rule="evenodd" stroke="none"/>
      <path d="M68.3 0.8 L67.6 2.05 67.15 2.05 66.45 2.05 67.05 0.8 68.3 0.8 M0.5 12.75 L0.2 11.35 1.75 11.35 0.6 12.6 0.5 12.75 M0.1 6.6 L0.35 5.2 2.9 5.3 3.25 5.3 2.3 6.65 0.1 6.6 M2.5 1.2 Q2.25 0.95 3.0 0.0 L4.9 0.05 3.7 1.25 2.6 1.2 2.5 1.2 M10.65 0.0 L12.2 0.0 11.7 0.75 11.35 1.25 10.1 1.25 9.9 1.25 9.9 1.2 10.65 0.0 M27.8 0.4 L29.1 0.4 28.35 1.65 27.5 1.65 26.95 1.65 27.65 0.55 27.8 0.4 M64.85 7.5 L65.0 7.1 65.4 6.15 66.15 6.15 65.7 7.5 64.85 7.5 M64.65 12.15 L65.55 12.2 64.8 13.65 64.3 13.65 64.0 13.65 64.65 12.15 M26.35 5.7 L27.0 5.75 26.85 5.95 26.1 7.05 25.45 7.05 26.35 5.7 M25.8 11.75 L26.1 11.75 26.7 11.75 25.6 13.25 24.6 13.25 25.8 11.75 M8.35 11.35 L7.2 12.85 6.5 12.8 6.3 11.95 6.8 11.35 8.35 11.35 M9.6 6.7 L8.7 6.65 7.7 6.65 8.2 6.05 8.85 5.3 8.9 5.3 10.65 5.35 9.6 6.7" fill="#f5d892" fill-rule="evenodd" stroke="none"/>
      <path d="M24.3 14.7 L23.55 14.65 20.65 14.5 21.4 13.15 21.45 13.0 21.75 11.6 21.75 11.2 23.55 11.2 23.6 11.75 23.9 13.2 24.1 13.9 24.3 14.55 24.3 14.7 M20.65 3.4 L21.95 3.5 24.4 3.65 24.15 4.15 23.75 5.6 23.5 7.0 23.45 7.75 22.0 7.8 21.85 6.8 21.65 5.75 21.65 5.6 21.55 5.2 20.65 3.4 M38.35 4.3 L40.05 4.35 45.85 4.4 47.2 4.4 47.6 13.6 45.8 13.6 44.85 13.6 38.85 13.4 39.2 12.0 39.2 11.8 42.35 11.9 42.55 7.25 39.25 7.05 39.05 6.15 39.05 6.0 39.0 5.7 38.35 4.3 M56.15 4.35 L62.2 4.15 62.05 4.55 61.65 6.0 61.45 7.25 58.15 6.95 58.25 12.1 61.5 12.0 61.55 12.15 61.6 12.6 56.55 13.1 56.5 11.25 56.25 5.2 56.15 4.35 M48.95 6.3 L53.0 5.6 54.0 5.5 54.6 5.55 54.6 5.95 54.75 13.25 49.2 13.6 49.15 13.1 48.95 6.4 48.95 6.3 M53.3 8.45 L53.25 7.5 Q53.2 6.5 52.85 6.3 L52.8 6.3 51.3 6.25 51.05 6.45 Q50.8 6.65 50.8 7.1 L50.85 8.85 50.9 11.5 50.9 11.6 50.95 11.85 51.0 12.1 51.2 12.4 52.95 12.45 53.05 12.4 53.35 11.8 53.3 9.9 53.3 8.45 M45.85 4.4 Q42.6 5.5 44.75 13.4 L44.85 13.6 44.75 13.4 Q42.6 5.5 45.85 4.4 M45.7 10.0 L45.6 8.7 45.7 10.0" fill="#5e4610" fill-rule="evenodd" stroke="none"/>
      <path d="M61.45 7.25 L61.45 7.4 61.35 9.75 61.5 12.0 58.25 12.1 58.15 6.95 61.45 7.25 M59.7 10.0 L59.8 9.0 59.7 10.0 M39.25 7.05 L42.55 7.25 42.35 11.9 39.2 11.8 Q39.6 9.4 39.25 7.2 L39.25 7.05 M41.1 9.9 L41.2 8.5 41.1 9.9 M22.0 7.8 L23.45 7.75 Q23.35 8.55 23.4 9.45 L23.45 10.25 23.55 11.2 21.75 11.2 22.0 8.75 22.0 7.8" fill="#4a370c" fill-rule="evenodd" stroke="none"/>
      <path d="M62.15 14.8 L56.5 15.0 56.6 14.65 56.55 13.1 61.6 12.6 61.8 13.6 62.15 14.8 M47.8 15.15 L47.2 15.15 37.9 15.1 38.8 13.55 38.85 13.4 44.85 13.6 45.8 13.6 47.6 13.6 47.6 14.2 47.8 15.15 M54.3 4.35 L54.6 5.55 54.0 5.5 53.0 5.6 48.95 6.3 48.9 5.2 Q48.9 4.75 49.15 4.4 L49.9 4.4 50.1 4.4 51.45 4.4 53.9 4.35 54.3 4.35 M54.75 13.25 L54.7 13.8 Q54.5 14.4 54.0 14.55 L52.2 14.55 50.5 14.5 49.85 14.5 Q49.35 14.15 49.2 13.6 L54.75 13.25 M47.2 15.15 Q45.3 14.7 44.85 13.6 45.3 14.7 47.2 15.15" fill="#42310b" fill-rule="evenodd" stroke="none"/>
      <path d="M51.35 16.05 L49.55 16.0 50.25 14.85 50.5 14.5 52.2 14.55 51.35 16.05 M51.5 2.45 L52.75 2.45 51.85 3.75 50.55 3.7 51.45 2.5 51.5 2.45 M52.8 6.3 L52.85 6.3 Q53.2 6.5 53.25 7.5 L53.3 8.45 50.9 11.5 50.85 8.85 50.9 8.75 52.8 6.3" fill="#fae8c0" fill-rule="evenodd" stroke="none"/>
      <path d="M56.5 15.0 Q56.15 15.9 55.25 16.05 L52.0 16.05 54.0 14.55 Q54.5 14.4 54.7 13.8 L55.0 13.45 55.2 13.2 56.5 11.25 56.55 13.1 56.6 14.65 56.5 15.0 M53.3 9.9 L53.35 11.8 53.05 12.4 52.95 12.45 51.2 12.4 51.0 12.1 Q51.95 11.8 52.8 10.7 L53.3 9.9" fill="#ad7f19" fill-rule="evenodd" stroke="none"/>
      <path d="M71.55 0.8 L68.3 0.8 67.05 0.8 64.2 0.8 Q63.5 1.75 63.7 2.0 L63.8 2.05 63.8 2.1 Q62.55 3.45 62.2 4.15 L62.05 4.55 61.65 6.0 64.1 6.1 65.25 2.05 66.45 2.05 67.15 2.05 67.6 2.05 69.85 2.05 70.65 2.05 72.25 2.05 74.05 2.1 Q74.3 1.4 73.3 0.8 L71.55 0.8 M74.05 2.1 L74.25 2.55 Q75.95 4.8 76.3 6.4 L76.3 6.55 76.5 7.5 76.5 7.6 Q76.8 9.85 76.4 12.4 L76.1 13.8 76.05 13.95 Q75.7 15.25 73.6 17.1 L73.65 18.4 63.9 18.3 63.75 17.0 63.7 16.8 63.35 16.35 M63.15 16.15 L62.2 14.95 62.15 14.8 56.5 15.0 Q56.15 15.9 55.25 16.05 L52.0 16.05 51.35 16.05 49.55 16.0 48.7 16.0 47.8 15.15 47.2 15.15 37.9 15.1 36.25 16.7 36.3 18.0 26.1 17.9 25.95 16.6 25.9 16.4 24.5 14.75 24.45 14.7 24.3 14.7 23.55 14.65 20.65 14.5 18.85 16.3 18.9 17.6 8.7 17.5 2.7 17.5 2.55 16.2 2.5 16.0 0.9 14.15 0.65 13.3 0.5 12.8 0.5 12.75 0.2 11.35 0.2 11.2 0.0 9.1 0.1 6.6 0.35 5.2 0.75 3.75 0.8 3.6 Q1.05 2.9 2.6 1.3 L2.6 1.25 2.5 1.2 Q2.25 0.95 3.0 0.0 L4.9 0.05 8.9 0.15 9.0 0.0 10.65 0.0 12.2 0.0 16.75 0.0 18.5 0.0 Q19.55 0.6 19.3 1.3 L19.5 1.75 20.65 3.4 21.95 3.5 24.4 3.65 26.0 1.7 26.0 1.65 25.9 1.6 Q25.65 1.35 26.4 0.4 L27.8 0.4 29.1 0.4 33.3 0.4 35.9 0.4 Q36.95 1.0 36.7 1.7 L36.9 2.15 38.35 4.3 40.05 4.35 45.85 4.4 47.2 4.2 Q47.3 2.8 49.2 2.4 L51.5 2.45 52.75 2.45 54.8 2.45 Q55.85 2.8 56.15 4.35 L62.2 4.15 M74.05 12.3 L74.05 9.65 74.05 7.65 70.15 7.55 70.3 11.35 70.3 12.25 74.05 12.3 76.4 12.4 M76.4 7.6 L76.5 7.6 M73.65 6.35 L76.3 6.4 M76.4 7.6 L74.05 7.65 M73.65 6.35 L72.25 2.05 M65.25 2.05 L63.8 2.0 63.7 2.0 M65.4 6.15 L64.1 6.1 M65.4 6.15 L66.15 6.15 67.0 6.2 67.15 2.05 M61.45 7.4 L63.9 7.45 64.85 7.5 65.7 7.5 66.9 7.5 69.2 7.55 70.15 7.55 M61.45 7.25 L61.45 7.4 61.35 9.75 61.5 12.0 61.55 12.15 63.9 12.15 63.9 7.45 M63.9 12.15 L64.65 12.15 65.55 12.2 66.9 12.2 66.9 7.5 M70.55 6.3 L70.05 6.25 67.0 6.2 M70.55 6.3 L73.65 6.35 M68.05 12.25 L66.9 12.2 M68.05 12.25 L70.3 12.25 M61.45 7.25 L61.65 6.0 M69.85 2.05 L70.05 6.25 M66.9 13.7 L66.15 13.7 64.8 13.65 64.3 13.65 65.35 17.05 67.35 17.05 66.9 13.7 70.4 13.75 73.6 13.8 76.05 13.8 76.1 13.8 M70.5 17.1 L70.4 13.75 M67.35 17.05 L70.5 17.1 72.5 17.1 73.6 13.8 M64.0 13.65 L64.3 13.65 M61.8 13.6 L61.6 12.6 61.55 12.15 M56.55 13.1 L56.6 14.65 56.5 15.0 M62.15 14.8 L61.8 13.6 64.0 13.65 M63.75 17.0 L65.35 17.05 M72.5 17.1 L73.6 17.1 M56.5 11.25 L56.25 5.2 56.15 4.35 M54.6 5.55 L54.3 4.35 53.9 4.35 51.45 4.4 50.1 4.4 M49.9 4.4 L49.15 4.4 Q48.9 4.75 48.9 5.2 L48.95 6.3 M54.6 5.55 L54.6 5.95 54.75 13.25 54.7 13.8 Q54.5 14.4 54.0 14.55 L52.2 14.55 50.5 14.5 49.85 14.5 Q49.35 14.15 49.2 13.6 L49.15 13.1 48.95 6.4 M56.5 11.25 L56.55 13.1 M54.3 4.35 L53.7 3.75 51.85 3.75 50.55 3.7 50.15 3.7 Q49.4 3.9 49.15 4.4 M52.8 6.3 L52.85 6.3 Q53.2 6.5 53.25 7.5 L53.3 8.45 53.3 9.9 53.35 11.8 53.05 12.4 52.95 12.45 51.2 12.4 51.0 12.1 50.95 11.85 50.9 11.6 50.9 11.5 50.85 8.85 50.8 7.1 Q50.8 6.65 51.05 6.45 L51.3 6.25 52.8 6.3 M61.5 12.0 L58.25 12.1 58.15 6.95 61.45 7.25 M59.8 9.0 L59.7 10.0 M47.2 4.4 L47.2 4.2 M45.85 4.4 L47.2 4.4 47.6 13.6 47.6 14.2 47.8 15.15 M39.2 11.8 L42.35 11.9 42.55 7.25 39.25 7.05 39.25 7.2 Q39.6 9.4 39.2 11.8 L39.2 12.0 38.85 13.4 38.8 13.55 37.9 15.1 M44.85 13.6 L44.75 13.4 Q42.6 5.5 45.85 4.4 M41.2 8.5 L41.1 9.9 M45.6 8.7 L45.7 10.0 M44.85 13.6 Q45.3 14.7 47.2 15.15 M38.35 4.3 L39.0 5.7 39.05 6.0 39.05 6.15 39.25 7.05 M39.05 6.0 L36.3 5.95 33.6 5.9 32.5 5.85 29.3 5.8 29.5 1.65 32.3 1.65 32.5 5.85 M31.95 7.15 L32.6 7.15 36.7 7.25 37.25 7.25 39.25 7.2 M32.3 1.65 L34.8 1.65 36.7 1.7 M39.2 12.0 L36.7 11.9 32.8 11.85 32.05 11.85 29.2 11.8 29.2 11.15 29.2 7.1 30.15 7.1 M29.85 13.3 L32.9 13.35 36.25 13.4 38.6 13.4 M32.8 11.85 L32.75 9.95 32.6 7.15 M36.7 7.65 L36.7 7.25 M36.7 11.9 L36.7 7.65 M36.3 5.95 L34.8 1.65 M29.5 1.65 L28.35 1.65 27.5 1.65 26.3 5.7 26.35 5.7 27.0 5.75 29.3 5.8 M26.0 1.6 L25.9 1.6 M27.5 1.65 L26.95 1.65 26.0 1.6 M24.4 3.65 L24.15 4.15 23.75 5.6 26.3 5.7 M20.65 3.4 L21.55 5.2 21.65 5.6 21.65 5.75 21.85 6.8 22.0 7.8 23.45 7.75 23.5 7.0 23.75 5.6 M20.65 6.85 L21.85 6.8 M22.0 7.8 L22.0 8.75 21.75 11.2 23.55 11.2 23.45 10.25 23.4 9.45 Q23.35 8.55 23.45 7.75 M21.75 11.2 L21.75 11.6 21.45 13.0 21.4 13.15 20.65 14.5 M23.6 11.75 L23.55 11.2 M26.1 11.2 L26.1 7.05 25.45 7.05 23.5 7.0 M30.3 7.1 L31.95 7.15 M26.1 7.05 L29.2 7.1 M25.8 11.75 L26.1 11.75 26.1 11.2 M26.1 11.75 L26.7 11.75 29.2 11.8 M25.8 11.75 L23.6 11.75 23.9 13.2 24.6 13.25 25.6 13.25 26.5 13.25 29.2 13.3 29.85 13.3 M25.95 16.6 L27.6 16.65 26.5 13.25 M27.6 16.65 L29.7 16.65 29.2 13.3 M24.45 14.7 L24.3 14.55 24.1 13.9 23.9 13.2 M21.4 13.0 L21.45 13.0 M21.4 13.0 L18.85 13.0 17.7 16.3 18.85 16.3 M32.9 13.35 L33.0 16.7 35.1 16.7 36.25 13.4 M35.1 16.7 L36.25 16.7 M29.7 16.65 L33.0 16.7 M17.4 1.25 L16.15 1.25 14.9 1.25 15.1 5.45 18.9 5.55 17.4 1.25 19.3 1.3 M11.35 1.25 L12.1 1.25 14.9 1.25 M10.65 5.35 L11.9 5.4 12.1 1.25 M15.1 5.45 L13.55 5.45 11.9 5.4 M11.8 6.7 L15.2 6.75 19.3 6.85 20.65 6.85 M19.3 8.45 L19.3 11.5 21.75 11.6 M13.25 11.45 L11.8 11.4 8.7 11.35 8.35 11.35 6.8 11.35 6.2 11.35 6.15 11.05 6.1 10.7 6.0 8.75 6.0 8.5 6.1 6.6 2.7 6.65 2.3 6.65 0.1 6.6 M7.2 12.85 L9.1 12.85 11.2 12.9 11.8 12.9 15.5 12.95 18.85 13.0 M11.8 11.4 L11.8 6.7 9.6 6.7 8.7 6.65 8.7 11.35 M19.3 11.5 L15.65 11.45 15.4 11.45 13.25 11.45 M15.2 6.75 L15.4 11.45 M19.3 8.45 L19.3 6.85 M10.1 1.25 L9.9 1.25 8.6 1.2 8.5 1.2 Q8.25 0.95 8.9 0.15 M8.6 1.25 Q6.85 3.1 6.75 3.75 L6.35 5.2 8.85 5.3 8.9 5.3 10.1 1.25 11.35 1.25 M8.6 1.25 L8.5 1.2 M8.5 1.25 L8.6 1.25 M6.1 1.25 L6.35 5.2 6.1 6.6 7.7 6.65 8.7 6.65 M3.7 1.25 L4.1 1.25 6.1 1.25 8.5 1.25 M3.7 1.25 L2.6 1.2 2.5 1.2 M3.25 5.3 L2.9 5.3 0.35 5.2 M2.9 5.3 L4.1 1.25 M2.7 11.35 L2.7 6.65 M1.75 11.35 L2.7 11.35 5.25 11.35 6.2 11.35 6.2 11.4 6.3 11.95 6.5 12.8 7.2 12.85 M1.75 11.35 L0.2 11.35 M6.35 5.2 L3.25 5.3 M8.55 16.2 L8.5 16.0 6.9 14.15 6.7 13.5 6.5 12.8 6.3 16.25 8.55 16.3 8.55 16.2 9.1 16.25 10.2 16.25 9.1 12.85 M8.7 17.5 L8.55 16.3 9.1 16.25 M2.2 12.85 L0.5 12.8 M2.55 16.2 L4.2 16.25 3.1 12.85 2.2 12.85 M3.1 12.85 L6.5 12.8 M4.2 16.25 L6.3 16.25 M15.5 12.95 L15.6 16.3 17.7 16.3 M10.2 16.25 L12.3 16.25 11.8 12.9 M12.3 16.25 L15.6 16.3 M10.65 5.35 L8.9 5.3 M21.65 5.6 L18.9 5.55" fill="none" stroke="#000000" stroke-linecap="round" stroke-linejoin="round" stroke-opacity="0.6627451" stroke-width="1.0"/>
    </g>
    <g id="sprite1" transform="matrix(1.0, 0.0, 0.0, 1.0, 0.0, 0.0)">
      <use height="18.4" transform="matrix(1.0, 0.0, 0.0, 1.0, 0.0, 0.0)" width="76.65" xlink:href="#shape1"/>
    </g>
    <g id="shape1" transform="matrix(1.0, 0.0, 0.0, 1.0, 0.0, 0.0)">
      <path d="M0.35 5.2 L0.75 3.75 0.8 3.6 Q1.05 2.9 2.6 1.3 L2.6 1.2 8.5 1.25 8.6 1.25 Q6.85 3.1 6.75 3.75 L6.35 5.2 0.35 5.2" fill="url(#gradient0)" fill-rule="evenodd" stroke="none"/>
      <path d="M0.2 11.35 L0.2 11.2 0.0 9.1 0.1 6.6 6.1 6.6 6.0 8.5 6.0 8.75 6.1 10.7 6.15 11.05 6.2 11.35 0.2 11.35" fill="url(#gradient1)" fill-rule="evenodd" stroke="none"/>
      <path d="M19.3 1.3 L19.5 1.75 20.65 3.4 21.55 5.2 21.65 5.6 6.35 5.2 6.75 3.75 Q6.85 3.1 8.6 1.25 L8.6 1.2 19.3 1.3" fill="url(#gradient2)" fill-rule="evenodd" stroke="none"/>
      <path d="M22.0 7.8 L22.0 8.75 21.75 11.2 21.75 11.6 6.2 11.35 6.15 11.05 6.1 10.7 6.0 8.75 6.0 8.5 6.1 6.6 21.85 6.8 22.0 7.8" fill="url(#gradient3)" fill-rule="evenodd" stroke="none"/>
      <path d="M20.65 14.5 L18.85 16.3 9.1 16.25 8.55 16.2 8.5 16.0 6.9 14.15 6.7 13.5 6.5 12.8 21.4 13.0 21.4 13.15 20.65 14.5" fill="url(#gradient4)" fill-rule="evenodd" stroke="none"/>
      <path d="M2.6 1.2 L2.5 1.2 Q2.25 0.95 3.0 0.0 L8.9 0.15 9.0 0.0 18.5 0.0 Q19.55 0.6 19.3 1.3 L8.6 1.2 8.5 1.2 8.5 1.25 2.6 1.2" fill="url(#gradient5)" fill-rule="evenodd" stroke="none"/>
      <path d="M0.1 6.6 L0.35 5.2 6.35 5.2 21.65 5.6 21.65 5.75 21.85 6.8 6.1 6.6 0.1 6.6" fill="url(#gradient6)" fill-rule="evenodd" stroke="none"/>
      <path d="M0.5 12.8 L0.5 12.75 0.2 11.35 6.2 11.35 21.75 11.6 21.45 13.0 21.4 13.0 6.5 12.8 0.5 12.8" fill="url(#gradient7)" fill-rule="evenodd" stroke="none"/>
      <path d="M2.55 16.2 L2.5 16.0 0.9 14.15 0.65 13.3 0.5 12.8 6.5 12.8 6.7 13.5 6.9 14.15 8.5 16.0 8.55 16.2 8.55 16.3 2.55 16.2" fill="url(#gradient8)" fill-rule="evenodd" stroke="none"/>
      <path d="M18.85 16.3 L18.9 17.6 2.7 17.5 2.55 16.2 8.55 16.3 9.1 16.25 18.85 16.3" fill="url(#gradient9)" fill-rule="evenodd" stroke="none"/>
      <path d="M39.2 11.8 L39.2 12.0 23.6 11.75 23.55 11.2 23.45 10.25 23.4 9.45 Q23.35 8.55 23.45 7.75 L23.5 7.0 39.25 7.2 Q39.6 9.4 39.2 11.8" fill="url(#gradient10)" fill-rule="evenodd" stroke="none"/>
      <path d="M24.4 3.65 L26.0 1.7 26.0 1.6 36.7 1.7 36.9 2.15 38.35 4.3 39.0 5.7 39.05 6.0 23.75 5.6 24.15 4.15 24.4 3.65" fill="url(#gradient11)" fill-rule="evenodd" stroke="none"/>
      <path d="M37.9 15.1 L36.25 16.7 25.95 16.6 25.9 16.4 24.5 14.75 24.3 14.55 24.1 13.9 23.9 13.2 38.8 13.4 38.8 13.55 37.9 15.1" fill="url(#gradient12)" fill-rule="evenodd" stroke="none"/>
      <path d="M20.65 3.4 L21.95 3.5 24.4 3.65 24.15 4.15 23.75 5.6 23.5 7.0 23.45 7.75 22.0 7.8 21.85 6.8 21.65 5.75 21.65 5.6 21.55 5.2 20.65 3.4" fill="url(#gradient13)" fill-rule="evenodd" stroke="none"/>
      <path d="M24.3 14.55 L24.3 14.7 23.55 14.65 20.65 14.5 21.4 13.15 21.45 13.0 21.75 11.6 21.75 11.2 23.55 11.2 23.6 11.75 23.9 13.2 24.1 13.9 24.3 14.55" fill="url(#gradient14)" fill-rule="evenodd" stroke="none"/>
      <path d="M21.75 11.2 L22.0 8.75 22.0 7.8 23.45 7.75 Q23.35 8.55 23.4 9.45 L23.45 10.25 23.55 11.2 21.75 11.2" fill="url(#gradient15)" fill-rule="evenodd" stroke="none"/>
      <path d="M26.0 1.6 L25.9 1.6 Q25.65 1.35 26.4 0.4 L35.9 0.4 Q36.95 1.0 36.7 1.7 L26.0 1.6" fill="url(#gradient16)" fill-rule="evenodd" stroke="none"/>
      <path d="M39.05 6.0 L39.05 6.15 39.25 7.05 39.25 7.2 23.5 7.0 23.75 5.6 39.05 6.0" fill="url(#gradient17)" fill-rule="evenodd" stroke="none"/>
      <path d="M39.2 12.0 L38.85 13.4 38.8 13.4 23.9 13.2 23.6 11.75 39.2 12.0" fill="url(#gradient18)" fill-rule="evenodd" stroke="none"/>
      <path d="M36.25 16.7 L36.3 18.0 26.1 17.9 25.95 16.6 36.25 16.7" fill="url(#gradient19)" fill-rule="evenodd" stroke="none"/>
      <path d="M39.25 7.05 L42.55 7.25 42.35 11.9 39.2 11.8 Q39.6 9.4 39.25 7.2 L39.25 7.05" fill="url(#gradient20)" fill-rule="evenodd" stroke="none"/>
      <path d="M47.8 15.15 L47.2 15.15 37.9 15.1 38.8 13.55 38.85 13.4 39.2 12.0 39.2 11.8 42.35 11.9 42.55 7.25 39.25 7.05 39.05 6.15 39.05 6.0 39.0 5.7 38.35 4.3 40.05 4.35 45.85 4.4 47.2 4.4 47.6 14.2 47.8 15.15" fill="url(#gradient21)" fill-rule="evenodd" stroke="none"/>
      <path d="M52.85 6.3 Q53.2 6.5 53.25 7.5 L53.35 11.8 53.05 12.4 52.95 12.45 51.2 12.4 51.0 12.1 50.95 11.85 50.9 11.6 50.8 7.1 Q50.8 6.65 51.05 6.45 L51.3 6.25 52.85 6.3" fill="url(#gradient22)" fill-rule="evenodd" stroke="none"/>
      <path d="M56.5 15.0 Q56.15 15.9 55.25 16.05 L48.7 16.0 47.8 15.15 47.6 14.2 47.2 4.4 47.2 4.2 Q47.3 2.8 49.2 2.4 L54.8 2.45 Q55.85 2.8 56.15 4.35 L56.25 5.2 56.6 14.65 56.5 15.0 M54.3 4.35 L53.7 3.75 50.15 3.7 Q49.4 3.9 49.15 4.4 48.9 4.75 48.9 5.2 L49.15 13.1 49.2 13.6 Q49.35 14.15 49.85 14.5 L54.0 14.55 Q54.5 14.4 54.7 13.8 L54.75 13.25 54.6 5.95 54.6 5.55 54.3 4.35" fill="url(#gradient23)" fill-rule="evenodd" stroke="none"/>
      <path d="M49.15 4.4 L49.9 4.4 50.1 4.4 51.45 4.4 53.9 4.35 54.3 4.35 54.6 5.55 54.6 5.95 54.75 13.25 54.7 13.8 Q54.5 14.4 54.0 14.55 L49.85 14.5 Q49.35 14.15 49.2 13.6 L49.15 13.1 48.9 5.2 Q48.9 4.75 49.15 4.4 M52.85 6.3 L51.3 6.25 51.05 6.45 Q50.8 6.65 50.8 7.1 L50.9 11.6 50.95 11.85 51.0 12.1 51.2 12.4 52.95 12.45 53.05 12.4 53.35 11.8 53.25 7.5 Q53.2 6.5 52.85 6.3" fill="url(#gradient24)" fill-rule="evenodd" stroke="none"/>
      <path d="M62.15 14.8 L56.5 15.0 56.6 14.65 56.25 5.2 56.15 4.35 62.2 4.15 62.05 4.55 61.65 6.0 61.45 7.25 58.15 6.95 58.25 12.1 61.5 12.0 61.55 12.15 61.6 12.6 61.8 13.6 62.15 14.8" fill="url(#gradient25)" fill-rule="evenodd" stroke="none"/>
      <path d="M61.45 7.4 L61.35 9.75 61.5 12.0 58.25 12.1 58.15 6.95 61.45 7.25 61.45 7.4" fill="url(#gradient26)" fill-rule="evenodd" stroke="none"/>
      <path d="M76.5 7.6 Q76.8 9.85 76.4 12.4 L61.55 12.15 61.5 12.0 61.35 9.75 61.45 7.4 76.5 7.6" fill="url(#gradient27)" fill-rule="evenodd" stroke="none"/>
      <path d="M74.05 2.1 L74.25 2.55 Q75.95 4.8 76.3 6.4 L70.55 6.3 70.05 6.25 61.65 6.0 62.05 4.55 62.2 4.15 Q62.55 3.45 63.8 2.1 L63.8 2.0 74.05 2.1" fill="url(#gradient28)" fill-rule="evenodd" stroke="none"/>
      <path d="M76.05 13.8 L76.05 13.95 Q75.7 15.25 73.6 17.1 L63.75 17.0 63.7 16.8 63.35 16.35 63.15 16.15 62.2 14.95 62.15 14.8 61.8 13.6 76.05 13.8" fill="url(#gradient29)" fill-rule="evenodd" stroke="none"/>
      <path d="M63.8 2.0 L63.7 2.0 Q63.5 1.75 64.2 0.8 L73.3 0.8 Q74.3 1.4 74.05 2.1 L63.8 2.0" fill="url(#gradient30)" fill-rule="evenodd" stroke="none"/>
      <path d="M76.3 6.4 L76.3 6.55 76.5 7.5 76.5 7.6 61.45 7.4 61.45 7.25 61.65 6.0 70.05 6.25 70.55 6.3 76.3 6.4" fill="url(#gradient31)" fill-rule="evenodd" stroke="none"/>
      <path d="M76.4 12.4 L76.1 13.8 76.05 13.8 61.8 13.6 61.6 12.6 61.55 12.15 76.4 12.4" fill="url(#gradient32)" fill-rule="evenodd" stroke="none"/>
      <path d="M73.6 17.1 L73.65 18.4 63.9 18.3 63.75 17.0 73.6 17.1" fill="url(#gradient33)" fill-rule="evenodd" stroke="none"/>
    </g>
    <linearGradient gradientTransform="matrix(-0.0013, -0.0049, 0.0024, -6.0E-4, 4.45, 3.2)" gradientUnits="userSpaceOnUse" id="gradient0" spreadMethod="pad" x1="-819.2" x2="819.2">
      <stop offset="0.0" stop-color="#000000"/>
      <stop offset="1.0" stop-color="#ffffff"/>
    </linearGradient>
    <linearGradient gradientTransform="matrix(-0.001, -0.0037, 0.0028, -7.0E-4, 3.1, 8.95)" gradientUnits="userSpaceOnUse" id="gradient1" spreadMethod="pad" x1="-819.2" x2="819.2">
      <stop offset="0.0" stop-color="#000000"/>
      <stop offset="1.0" stop-color="#ffffff"/>
    </linearGradient>
    <linearGradient gradientTransform="matrix(-0.0024, -0.009, 0.0026, -7.0E-4, 14.0, 3.4)" gradientUnits="userSpaceOnUse" id="gradient2" spreadMethod="pad" x1="-819.2" x2="819.2">
      <stop offset="0.0" stop-color="#000000"/>
      <stop offset="1.0" stop-color="#ffffff"/>
    </linearGradient>
    <linearGradient gradientTransform="matrix(-0.0025, -0.0095, 0.0029, -8.0E-4, 13.95, 9.1)" gradientUnits="userSpaceOnUse" id="gradient3" spreadMethod="pad" x1="-819.2" x2="819.2">
      <stop offset="0.0" stop-color="#000000"/>
      <stop offset="1.0" stop-color="#ffffff"/>
    </linearGradient>
    <linearGradient gradientTransform="matrix(-0.0023, -0.0088, 0.0021, -5.0E-4, 13.95, 14.55)" gradientUnits="userSpaceOnUse" id="gradient4" spreadMethod="pad" x1="-819.2" x2="819.2">
      <stop offset="0.0" stop-color="#000000"/>
      <stop offset="1.0" stop-color="#ffffff"/>
    </linearGradient>
    <linearGradient gradientTransform="matrix(-0.0161, -0.016, 6.0E-4, -5.0E-4, 15.95, 4.45)" gradientUnits="userSpaceOnUse" id="gradient5" spreadMethod="pad" x1="-819.2" x2="819.2">
      <stop offset="0.0" stop-color="#000000"/>
      <stop offset="1.0" stop-color="#ffffff"/>
    </linearGradient>
    <linearGradient gradientTransform="matrix(-0.0066, -0.0115, 8.0E-4, -5.0E-4, 13.35, 6.7)" gradientUnits="userSpaceOnUse" id="gradient6" spreadMethod="pad" x1="-819.2" x2="819.2">
      <stop offset="0.0" stop-color="#000000"/>
      <stop offset="1.0" stop-color="#ffffff"/>
    </linearGradient>
    <linearGradient gradientTransform="matrix(-0.0078, -0.0187, 9.0E-4, -4.0E-4, 10.95, 12.15)" gradientUnits="userSpaceOnUse" id="gradient7" spreadMethod="pad" x1="-819.2" x2="819.2">
      <stop offset="0.0" stop-color="#000000"/>
      <stop offset="1.0" stop-color="#ffffff"/>
    </linearGradient>
    <linearGradient gradientTransform="matrix(-0.0025, -0.0043, 0.0018, -0.0011, 4.5, 14.6)" gradientUnits="userSpaceOnUse" id="gradient8" spreadMethod="pad" x1="-819.2" x2="819.2">
      <stop offset="0.0" stop-color="#000000"/>
      <stop offset="1.0" stop-color="#ffffff"/>
    </linearGradient>
    <linearGradient gradientTransform="matrix(-0.007, -0.007, 6.0E-4, -6.0E-4, 10.7, 16.9)" gradientUnits="userSpaceOnUse" id="gradient9" spreadMethod="pad" x1="-819.2" x2="819.2">
      <stop offset="0.0" stop-color="#000000"/>
      <stop offset="1.0" stop-color="#ffffff"/>
    </linearGradient>
    <linearGradient gradientTransform="matrix(-0.0092, -0.016, 0.0026, -0.0015, 31.4, 9.5)" gradientUnits="userSpaceOnUse" id="gradient10" spreadMethod="pad" x1="-819.2" x2="819.2">
      <stop offset="0.0" stop-color="#000000"/>
      <stop offset="1.0" stop-color="#ffffff"/>
    </linearGradient>
    <linearGradient gradientTransform="matrix(-0.0073, -0.0126, 0.0023, -0.0013, 31.4, 3.8)" gradientUnits="userSpaceOnUse" id="gradient11" spreadMethod="pad" x1="-819.2" x2="819.2">
      <stop offset="0.0" stop-color="#000000"/>
      <stop offset="1.0" stop-color="#ffffff"/>
    </linearGradient>
    <linearGradient gradientTransform="matrix(-0.0023, -0.0088, 0.0021, -5.0E-4, 31.35, 14.95)" gradientUnits="userSpaceOnUse" id="gradient12" spreadMethod="pad" x1="-819.2" x2="819.2">
      <stop offset="0.0" stop-color="#000000"/>
      <stop offset="1.0" stop-color="#ffffff"/>
    </linearGradient>
    <linearGradient gradientTransform="matrix(0.0028, -0.0105, 0.0026, 7.0E-4, 22.5, 5.6)" gradientUnits="userSpaceOnUse" id="gradient13" spreadMethod="pad" x1="-819.2" x2="819.2">
      <stop offset="0.0" stop-color="#000000"/>
      <stop offset="1.0" stop-color="#ffffff"/>
    </linearGradient>
    <linearGradient gradientTransform="matrix(0.0025, -0.0094, 0.0021, 5.0E-4, 22.45, 12.95)" gradientUnits="userSpaceOnUse" id="gradient14" spreadMethod="pad" x1="-819.2" x2="819.2">
      <stop offset="0.0" stop-color="#000000"/>
      <stop offset="1.0" stop-color="#ffffff"/>
    </linearGradient>
    <linearGradient gradientTransform="matrix(0.0047, -0.0081, 0.0018, 0.0011, 22.7, 9.5)" gradientUnits="userSpaceOnUse" id="gradient15" spreadMethod="pad" x1="-819.2" x2="819.2">
      <stop offset="0.0" stop-color="#000000"/>
      <stop offset="1.0" stop-color="#ffffff"/>
    </linearGradient>
    <linearGradient gradientTransform="matrix(-0.0057, -0.01, 7.0E-4, -4.0E-4, 31.3, 1.1)" gradientUnits="userSpaceOnUse" id="gradient16" spreadMethod="pad" x1="-819.2" x2="819.2">
      <stop offset="0.0" stop-color="#000000"/>
      <stop offset="1.0" stop-color="#ffffff"/>
    </linearGradient>
    <linearGradient gradientTransform="matrix(-0.0068, -0.0068, 7.0E-4, -7.0E-4, 31.35, 6.4)" gradientUnits="userSpaceOnUse" id="gradient17" spreadMethod="pad" x1="-819.2" x2="819.2">
      <stop offset="0.0" stop-color="#000000"/>
      <stop offset="1.0" stop-color="#ffffff"/>
    </linearGradient>
    <linearGradient gradientTransform="matrix(-0.0048, -0.0082, 9.0E-4, -5.0E-4, 31.35, 12.65)" gradientUnits="userSpaceOnUse" id="gradient18" spreadMethod="pad" x1="-819.2" x2="819.2">
      <stop offset="0.0" stop-color="#000000"/>
      <stop offset="1.0" stop-color="#ffffff"/>
    </linearGradient>
    <linearGradient gradientTransform="matrix(-0.0049, -0.0049, 6.0E-4, -6.0E-4, 31.1, 17.3)" gradientUnits="userSpaceOnUse" id="gradient19" spreadMethod="pad" x1="-819.2" x2="819.2">
      <stop offset="0.0" stop-color="#000000"/>
      <stop offset="1.0" stop-color="#ffffff"/>
    </linearGradient>
    <linearGradient gradientTransform="matrix(0.0021, -0.0078, 0.0029, 8.0E-4, 40.8, 9.5)" gradientUnits="userSpaceOnUse" id="gradient20" spreadMethod="pad" x1="-819.2" x2="819.2">
      <stop offset="0.0" stop-color="#000000"/>
      <stop offset="1.0" stop-color="#ffffff"/>
    </linearGradient>
    <linearGradient gradientTransform="matrix(0.0, -0.0128, 0.0066, 0.0, 42.85, 9.7)" gradientUnits="userSpaceOnUse" id="gradient21" spreadMethod="pad" x1="-819.2" x2="819.2">
      <stop offset="0.0" stop-color="#000000"/>
      <stop offset="1.0" stop-color="#ffffff"/>
    </linearGradient>
    <linearGradient gradientTransform="matrix(-0.002, -0.0076, 0.0037, -9.0E-4, 52.05, 9.4)" gradientUnits="userSpaceOnUse" id="gradient22" spreadMethod="pad" x1="-819.2" x2="819.2">
      <stop offset="0.0" stop-color="#000000"/>
      <stop offset="1.0" stop-color="#ffffff"/>
    </linearGradient>
    <linearGradient gradientTransform="matrix(-0.008, -0.014, 0.0072, -0.0042, 51.9, 9.2)" gradientUnits="userSpaceOnUse" id="gradient23" spreadMethod="pad" x1="-819.2" x2="819.2">
      <stop offset="0.0" stop-color="#000000"/>
      <stop offset="1.0" stop-color="#ffffff"/>
    </linearGradient>
    <linearGradient gradientTransform="matrix(-0.0084, -0.0146, 0.0054, -0.0031, 51.8, 9.5)" gradientUnits="userSpaceOnUse" id="gradient24" spreadMethod="pad" x1="-819.2" x2="819.2">
      <stop offset="0.0" stop-color="#000000"/>
      <stop offset="1.0" stop-color="#ffffff"/>
    </linearGradient>
    <linearGradient gradientTransform="matrix(-0.0035, -0.0132, 0.0064, -0.0017, 59.15, 9.55)" gradientUnits="userSpaceOnUse" id="gradient25" spreadMethod="pad" x1="-819.2" x2="819.2">
      <stop offset="0.0" stop-color="#000000"/>
      <stop offset="1.0" stop-color="#ffffff"/>
    </linearGradient>
    <linearGradient gradientTransform="matrix(0.0, -0.0077, 0.0031, 0.0, 59.8, 9.5)" gradientUnits="userSpaceOnUse" id="gradient26" spreadMethod="pad" x1="-819.2" x2="819.2">
      <stop offset="0.0" stop-color="#000000"/>
      <stop offset="1.0" stop-color="#ffffff"/>
    </linearGradient>
    <linearGradient gradientTransform="matrix(-0.0047, -0.0081, 0.0026, -0.0015, 69.0, 9.9)" gradientUnits="userSpaceOnUse" id="gradient27" spreadMethod="pad" x1="-819.2" x2="819.2">
      <stop offset="0.0" stop-color="#000000"/>
      <stop offset="1.0" stop-color="#ffffff"/>
    </linearGradient>
    <linearGradient gradientTransform="matrix(-0.0045, -0.0077, 0.0023, -0.0013, 69.0, 4.2)" gradientUnits="userSpaceOnUse" id="gradient28" spreadMethod="pad" x1="-819.2" x2="819.2">
      <stop offset="0.0" stop-color="#000000"/>
      <stop offset="1.0" stop-color="#ffffff"/>
    </linearGradient>
    <linearGradient gradientTransform="matrix(-0.0043, -0.0075, 0.0018, -0.0011, 68.9, 15.4)" gradientUnits="userSpaceOnUse" id="gradient29" spreadMethod="pad" x1="-819.2" x2="819.2">
      <stop offset="0.0" stop-color="#000000"/>
      <stop offset="1.0" stop-color="#ffffff"/>
    </linearGradient>
    <linearGradient gradientTransform="matrix(-0.013, -0.013, 6.0E-4, -6.0E-4, 68.85, 1.45)" gradientUnits="userSpaceOnUse" id="gradient30" spreadMethod="pad" x1="-819.2" x2="819.2">
      <stop offset="0.0" stop-color="#000000"/>
      <stop offset="1.0" stop-color="#ffffff"/>
    </linearGradient>
    <linearGradient gradientTransform="matrix(-0.0072, -0.0056, 6.0E-4, -8.0E-4, 68.95, 6.8)" gradientUnits="userSpaceOnUse" id="gradient31" spreadMethod="pad" x1="-819.2" x2="819.2">
      <stop offset="0.0" stop-color="#000000"/>
      <stop offset="1.0" stop-color="#ffffff"/>
    </linearGradient>
    <linearGradient gradientTransform="matrix(-0.0064, -0.0064, 7.0E-4, -7.0E-4, 68.9, 13.05)" gradientUnits="userSpaceOnUse" id="gradient32" spreadMethod="pad" x1="-819.2" x2="819.2">
      <stop offset="0.0" stop-color="#000000"/>
      <stop offset="1.0" stop-color="#ffffff"/>
    </linearGradient>
    <linearGradient gradientTransform="matrix(-0.003, -0.0052, 7.0E-4, -4.0E-4, 68.7, 17.7)" gradientUnits="userSpaceOnUse" id="gradient33" spreadMethod="pad" x1="-819.2" x2="819.2">
      <stop offset="0.0" stop-color="#000000"/>
      <stop offset="1.0" stop-color="#ffffff"/>
    </linearGradient>
  </defs>
</svg>
