<?xml version="1.0" encoding="UTF-8" standalone="no"?>
<svg xmlns:xlink="http://www.w3.org/1999/xlink" height="531.5px" width="460.6px" xmlns="http://www.w3.org/2000/svg">
  <g transform="matrix(1.0, 0.0, 0.0, 1.0, 193.65, 334.05)">
    <use height="44.75" transform="matrix(0.43, 0.0, 0.0, 0.43, 31.1775, -145.2103)" width="132.2" xlink:href="#sprite0"/>
  </g>
  <defs>
    <g id="sprite0" transform="matrix(1.0, 0.0, 0.0, 1.0, 66.1, 22.35)">
      <use height="44.75" transform="matrix(1.0, 0.0, 0.0, 1.0, -66.1, -22.35)" width="132.2" xlink:href="#shape0"/>
      <use height="41.75" transform="matrix(1.0, 0.0, 0.0, 1.0, -64.6, -20.85)" width="129.2" xlink:href="#sprite1"/>
    </g>
    <g id="shape0" transform="matrix(1.0, 0.0, 0.0, 1.0, 66.1, 22.35)">
      <path d="M61.5 -9.2 L63.75 -5.3 Q65.15 -0.25 64.3 4.15 59.75 6.45 55.5 7.7 L55.55 7.55 56.35 6.2 59.3 0.45 Q60.0 -2.1 60.85 -4.05 L61.15 -4.95 Q61.6 -7.1 61.5 -9.2 M43.7 20.7 Q35.25 21.55 23.95 18.35 L23.3 18.2 Q19.3 14.75 22.6 12.5 L22.65 12.5 24.7 12.8 Q26.45 13.9 28.45 13.9 L29.7 13.95 36.1 14.75 33.6 14.25 Q30.1 9.7 33.7 7.0 36.2 8.45 39.95 8.8 44.8 5.9 35.4 0.7 34.5 -0.3 35.1 -1.9 30.9 1.7 29.1 -4.15 L29.4 -5.7 Q31.65 -11.05 36.2 -11.95 34.9 -6.9 40.3 -4.3 43.4 -5.15 44.5 -2.25 45.0 -3.85 46.9 -5.55 L48.4 -3.25 Q52.55 3.6 49.25 8.95 47.45 11.8 43.3 14.3 L40.45 14.8 37.95 14.9 Q38.55 15.5 39.2 15.55 L40.15 15.7 Q39.15 19.85 43.7 20.7 M4.55 12.55 L-10.05 8.15 Q-9.2 6.45 -7.2 4.7 L-1.5 6.2 3.5 6.95 4.75 7.1 8.25 7.75 Q4.8 10.05 4.55 12.55 M40.3 -4.3 L35.4 -2.8 35.1 -1.9 35.4 -2.8 40.3 -4.3 M37.65 14.9 L37.95 14.9 37.65 14.9 M44.5 -2.25 Q45.0 -1.05 45.25 3.95 45.45 8.95 39.95 8.8 45.45 8.95 45.25 3.95 45.0 -1.05 44.5 -2.25" fill="#ba0101" fill-rule="evenodd" stroke="none"/>
      <path d="M23.85 -10.95 Q25.8 -14.95 29.95 -17.35 37.15 -20.15 41.8 -20.7 37.2 -15.65 36.2 -11.95 31.65 -11.05 29.4 -5.7 L29.1 -4.15 Q28.6 -0.85 29.25 1.5 23.6 1.5 22.15 -3.9 22.35 -7.4 23.45 -10.15 L23.35 -9.35 23.85 -10.95 M59.2 -12.45 L61.5 -9.2 Q61.6 -7.1 61.15 -4.95 L60.85 -4.05 Q60.0 -2.1 59.3 0.45 L56.35 6.2 55.55 7.55 55.5 7.7 49.25 8.95 Q52.55 3.6 48.4 -3.25 L46.9 -5.55 Q50.45 -8.9 59.2 -12.45 M4.45 -2.65 L22.2 2.1 Q12.65 4.75 8.25 7.75 L4.75 7.1 3.5 6.95 -1.5 6.2 -7.2 4.7 -2.25 1.2 4.45 -2.65 M40.45 14.8 L40.15 15.7 39.2 15.55 Q38.55 15.5 37.95 14.9 L40.45 14.8 M26.6 10.75 L30.35 13.05 33.6 14.25 36.1 14.75 29.7 13.95 28.45 13.9 Q26.45 13.9 24.7 12.8 L22.65 12.5 22.6 12.5 Q23.95 11.5 26.6 10.75" fill="#ff0000" fill-rule="evenodd" stroke="none"/>
      <path d="M64.3 4.15 Q62.9 10.75 56.2 15.9 51.0 19.8 43.7 20.7 39.15 19.85 40.15 15.7 44.7 16.2 48.7 14.7 50.0 14.25 50.8 13.05 L51.45 12.5 Q52.7 11.7 53.3 10.55 L53.85 9.7 55.5 7.7 Q59.75 6.45 64.3 4.15 M23.3 18.2 L4.55 12.55 Q4.8 10.05 8.25 7.75 L9.65 8.15 Q11.3 9.15 12.5 9.3 L15.0 9.8 16.5 10.25 19.05 11.2 Q20.85 11.55 22.6 12.5 19.3 14.75 23.3 18.2 M-10.05 8.15 L-17.0 6.1 -17.6 5.2 -16.1 2.7 -15.4 2.1 -13.0 2.65 -12.0 2.95 -7.2 4.7 Q-9.2 6.45 -10.05 8.15 M29.1 -4.15 Q30.9 1.7 35.1 -1.9 34.5 -0.3 35.4 0.7 44.8 5.9 39.95 8.8 36.2 8.45 33.7 7.0 30.35 5.15 29.25 1.5 28.6 -0.85 29.1 -4.15 M40.3 -4.3 Q34.9 -6.9 36.2 -11.95 L36.25 -11.95 Q41.15 -13.6 46.9 -5.55 45.0 -3.85 44.5 -2.25 43.4 -5.15 40.3 -4.3" fill="#156b0c" fill-rule="evenodd" stroke="none"/>
      <path d="M41.8 -20.7 Q46.45 -21.25 49.25 -19.85 54.45 -18.35 59.2 -12.45 50.45 -8.9 46.9 -5.55 41.15 -13.6 36.25 -11.95 L36.2 -11.95 Q37.2 -15.65 41.8 -20.7 M-7.25 -5.85 L4.45 -2.65 -2.25 1.2 -7.2 4.7 -12.0 2.95 -13.0 2.65 -15.4 2.1 -7.25 -5.85 M22.45 2.0 Q22.05 -1.15 22.15 -3.9 23.6 1.5 29.25 1.5 30.35 5.15 33.7 7.0 30.1 9.7 33.6 14.25 L30.35 13.05 26.6 10.75 Q23.45 6.65 22.45 2.0 23.45 6.65 26.6 10.75 23.95 11.5 22.6 12.5 20.85 11.55 19.05 11.2 L16.5 10.25 15.0 9.8 12.5 9.3 Q11.3 9.15 9.65 8.15 L8.25 7.75 Q12.65 4.75 22.2 2.1 L22.45 2.0 M49.25 8.95 L55.5 7.7 53.85 9.7 53.3 10.55 Q52.7 11.7 51.45 12.5 L50.8 13.05 Q50.0 14.25 48.7 14.7 44.7 16.2 40.15 15.7 L40.45 14.8 43.3 14.3 Q47.45 11.8 49.25 8.95" fill="#1ca111" fill-rule="evenodd" stroke="none"/>
      <path d="M-58.45 -15.2 L-48.4 -16.25 Q-26.65 -10.45 -6.85 -6.3 L-7.25 -5.85 -15.4 2.1 -19.75 0.6 -20.65 0.15 Q-22.6 -0.75 -24.75 -1.3 L-25.5 -1.5 Q-27.8 -2.5 -30.2 -3.1 -34.8 -4.3 -39.2 -6.05 L-41.95 -7.15 -42.9 -7.6 Q-45.25 -8.85 -47.7 -9.95 L-48.7 -10.35 Q-50.15 -10.6 -51.4 -11.55 -52.95 -12.7 -54.7 -13.4 L-56.15 -14.05 -58.45 -15.2" fill="#5be850" fill-rule="evenodd" stroke="none"/>
      <path d="M-17.6 5.2 L-18.05 5.9 Q-40.65 -1.6 -64.6 -14.6 L-58.45 -15.2 -56.15 -14.05 -54.7 -13.4 Q-52.95 -12.7 -51.4 -11.55 -50.15 -10.6 -48.7 -10.35 L-47.7 -9.95 Q-45.25 -8.85 -42.9 -7.6 L-41.95 -7.15 -39.2 -6.05 Q-34.8 -4.3 -30.2 -3.1 -27.8 -2.5 -25.5 -1.5 L-24.75 -1.3 Q-22.6 -0.75 -20.65 0.15 L-19.75 0.6 -15.4 2.1 -16.1 2.7 -17.6 5.2" fill="#2bc41a" fill-rule="evenodd" stroke="none"/>
      <path d="M23.45 -10.15 L23.7 -10.65 23.85 -10.95 Q25.8 -14.95 29.95 -17.35 37.15 -20.15 41.8 -20.7 46.45 -21.25 49.25 -19.85 54.45 -18.35 59.2 -12.45 L61.5 -9.2 63.75 -5.3 Q65.15 -0.25 64.3 4.15 62.9 10.75 56.2 15.9 51.0 19.8 43.7 20.7 35.25 21.55 23.95 18.35 L23.3 18.2 4.55 12.55 -10.05 8.15 -17.0 6.1 -17.6 5.2 -18.05 5.9 Q-40.65 -1.6 -64.6 -14.6 L-58.45 -15.2 -48.4 -16.25 Q-26.65 -10.45 -6.85 -6.3 L-7.25 -5.85 4.45 -2.65 22.2 2.1 22.1 1.85 22.45 2.0 Q22.05 -1.15 22.15 -3.9 22.35 -7.4 23.45 -10.15 L23.35 -9.35 23.85 -10.95 M36.2 -11.95 Q31.65 -11.05 29.4 -5.7 L29.1 -4.15 Q30.9 1.7 35.1 -1.9 L35.4 -2.8 40.3 -4.3 Q34.9 -6.9 36.2 -11.95 37.2 -15.65 41.8 -20.7 M46.9 -5.55 Q41.15 -13.6 36.25 -11.95 L36.2 -11.95 M46.9 -5.55 Q50.45 -8.9 59.2 -12.45 M40.3 -4.3 Q43.4 -5.15 44.5 -2.25 45.0 -3.85 46.9 -5.55 L48.4 -3.25 Q52.55 3.6 49.25 8.95 L55.5 7.7 Q59.75 6.45 64.3 4.15 M49.25 8.95 Q47.45 11.8 43.3 14.3 L40.45 14.8 40.15 15.7 Q39.15 19.85 43.7 20.7 M37.95 14.9 L37.65 14.9 M33.7 7.0 Q36.2 8.45 39.95 8.8 44.8 5.9 35.4 0.7 34.5 -0.3 35.1 -1.9 M22.45 2.0 Q23.45 6.65 26.6 10.75 L30.35 13.05 33.6 14.25 Q30.1 9.7 33.7 7.0 30.35 5.15 29.25 1.5 23.6 1.5 22.15 -3.9 M22.2 2.1 L22.45 2.0 M36.1 14.75 L33.6 14.25 M23.3 18.2 Q19.3 14.75 22.6 12.5 23.95 11.5 26.6 10.75 M8.25 7.75 Q4.8 10.05 4.55 12.55 M37.95 14.9 L40.45 14.8 M-7.2 4.7 Q-9.2 6.45 -10.05 8.15 M8.25 7.75 Q12.65 4.75 22.2 2.1 M39.95 8.8 Q45.45 8.95 45.25 3.95 45.0 -1.05 44.5 -2.25 M29.1 -4.15 Q28.6 -0.85 29.25 1.5 M-15.4 2.1 L-7.25 -5.85 M-7.2 4.7 L-2.25 1.2 4.45 -2.65 M-15.4 2.1 L-16.1 2.7 -17.6 5.2" fill="none" stroke="#000000" stroke-linecap="round" stroke-linejoin="round" stroke-opacity="0.6627451" stroke-width="3.0"/>
    </g>
    <g id="sprite1" transform="matrix(1.0, 0.0, 0.0, 1.0, 0.0, 0.0)">
      <use height="41.75" transform="matrix(1.0, 0.0, 0.0, 1.0, 0.0, 0.0)" width="129.2" xlink:href="#shape1"/>
    </g>
    <g id="shape1" transform="matrix(1.0, 0.0, 0.0, 1.0, 0.0, 0.0)">
      <path d="M47.0 26.05 L46.55 26.75 Q23.95 19.25 0.0 6.25 L16.2 4.6 Q37.95 10.4 57.75 14.55 L57.35 15.0 48.5 23.55 47.0 26.05" fill="url(#gradient0)" fill-rule="evenodd" stroke="none"/>
      <path d="M57.35 15.0 L86.8 22.95 87.05 22.85 Q86.65 19.7 86.75 16.95 86.95 13.45 88.05 10.7 L87.95 11.5 88.45 9.9 Q90.4 5.9 94.55 3.5 101.75 0.7 106.4 0.15 111.05 -0.4 113.85 1.0 119.05 2.5 123.8 8.4 L126.1 11.65 128.35 15.55 Q129.75 20.6 128.9 25.0 127.5 31.6 120.8 36.75 115.6 40.65 108.3 41.55 99.85 42.4 88.55 39.2 L87.9 39.05 47.6 26.95 47.0 26.05 48.5 23.55 57.35 15.0" fill="url(#gradient1)" fill-rule="evenodd" stroke="none"/>
    </g>
    <linearGradient gradientTransform="matrix(0.0038, -0.0107, 0.0127, 0.0045, 31.6, 14.55)" gradientUnits="userSpaceOnUse" id="gradient0" spreadMethod="pad" x1="-819.2" x2="819.2">
      <stop offset="0.0" stop-color="#000000"/>
      <stop offset="1.0" stop-color="#ffffff"/>
    </linearGradient>
    <linearGradient gradientTransform="matrix(-0.005, -0.0217, 0.0248, -0.0057, 88.1, 20.95)" gradientUnits="userSpaceOnUse" id="gradient1" spreadMethod="pad" x1="-819.2" x2="819.2">
      <stop offset="0.0" stop-color="#000000"/>
      <stop offset="1.0" stop-color="#ffffff"/>
    </linearGradient>
  </defs>
</svg>
