<?xml version="1.0" encoding="UTF-8" standalone="no"?>
<svg xmlns:xlink="http://www.w3.org/1999/xlink" height="531.5px" width="460.6px" xmlns="http://www.w3.org/2000/svg">
  <g transform="matrix(1.0, 0.0, 0.0, 1.0, 193.65, 334.05)">
    <use height="101.2" transform="matrix(0.7705, 1.3576, -1.3576, 0.7705, 44.9403, -67.3961)" width="84.7" xlink:href="#sprite0"/>
    <use height="93.75" transform="matrix(1.0, 0.0, 0.0, 1.0, -69.6, -58.1)" width="64.6" xlink:href="#shape2"/>
  </g>
  <defs>
    <g id="sprite0" transform="matrix(1.0, 0.0, 0.0, 1.0, 0.75, 0.75)">
      <use height="101.2" transform="matrix(1.0, 0.0, 0.0, 1.0, -0.75, -0.75)" width="84.7" xlink:href="#shape0"/>
      <use height="99.7" transform="matrix(1.0, 0.0, 0.0, 1.0, 0.0, 0.0)" width="83.2" xlink:href="#sprite1"/>
    </g>
    <g id="shape0" transform="matrix(1.0, 0.0, 0.0, 1.0, 0.75, 0.75)">
      <path d="M82.3 18.95 L83.05 18.55 83.2 20.55 Q83.2 27.0 80.95 33.75 L80.25 35.75 80.05 36.3 79.65 36.25 79.05 36.2 79.0 36.2 79.25 35.4 79.85 33.65 Q81.9 26.8 82.3 18.95 M78.2 40.5 L78.1 40.65 Q75.3 46.4 70.95 52.3 L69.75 51.85 Q74.3 46.7 77.25 40.5 L77.25 40.4 77.7 40.4 78.2 40.5 M73.05 21.15 L74.8 20.9 Q74.35 27.05 72.55 33.05 L71.45 32.95 70.2 32.85 Q72.05 27.2 73.05 21.15 M68.05 38.55 L69.45 35.05 71.8 35.35 70.35 39.05 68.05 38.55" fill="#dddddd" fill-rule="evenodd" stroke="none"/>
      <path d="M33.1 18.05 Q31.85 16.2 33.15 14.55 34.75 15.2 37.15 15.3 36.75 15.8 36.75 16.4 34.75 16.2 33.1 18.05 M45.7 11.5 L45.85 12.1 46.35 13.6 46.4 14.35 46.4 14.65 46.35 15.35 Q46.05 17.05 44.65 17.85 L43.35 17.0 43.35 16.4 Q43.35 15.5 42.95 14.15 L42.9 14.05 43.25 13.8 44.9 12.3 45.7 11.5 M66.75 8.1 L65.6 9.2 63.85 10.25 Q65.7 7.85 65.3 6.1 64.9 4.4 65.8 2.8 L65.75 3.2 Q65.75 4.1 66.25 5.3 66.75 6.45 66.75 7.45 L66.75 8.1 M55.3 11.05 Q55.1 12.05 53.65 12.5 L53.5 12.25 53.8 11.3 Q53.7 10.25 52.75 9.85 51.1 9.15 52.35 7.15 52.35 8.7 53.9 9.2 54.8 9.45 55.3 11.05" fill="#e0b71f" fill-rule="evenodd" stroke="none"/>
      <path d="M33.15 14.55 L34.7 13.2 Q40.55 11.9 41.7 10.4 L44.15 7.05 Q45.45 5.25 47.05 5.1 L48.75 5.4 Q44.35 5.75 45.65 11.3 L45.7 11.5 44.9 12.3 43.25 13.8 42.9 14.05 42.25 12.0 Q41.7 13.05 39.05 14.0 37.65 14.5 37.15 15.3 34.75 15.2 33.15 14.55 M66.75 8.1 L66.75 7.45 Q66.75 6.45 66.25 5.3 65.75 4.1 65.75 3.2 L65.8 2.8 65.85 2.65 Q66.8 0.95 71.9 0.0 68.2 1.25 67.9 4.75 67.85 6.65 66.75 8.1 M52.35 7.15 L52.6 6.75 Q54.5 4.45 59.25 4.6 57.2 4.95 55.75 6.2 54.25 7.4 55.1 9.65 L55.3 11.05 Q54.8 9.45 53.9 9.2 52.35 8.7 52.35 7.15" fill="#fee701" fill-rule="evenodd" stroke="none"/>
      <path d="M29.5 25.75 Q30.0 23.9 30.6 22.45 L30.65 22.45 Q31.65 23.7 33.35 23.7 34.05 23.7 35.45 22.4 36.8 21.1 37.85 21.1 L39.45 21.2 37.35 22.1 36.1 24.5 Q33.85 26.7 29.5 25.75 M62.55 20.55 L62.6 20.95 Q62.95 22.2 63.45 22.2 L61.4 22.4 61.4 22.25 59.15 20.35 57.2 19.25 56.4 18.95 56.6 18.4 56.4 18.95 54.35 18.4 54.75 18.05 55.15 16.95 55.2 17.0 56.6 18.4 56.75 18.0 59.05 19.35 Q61.2 20.7 62.15 20.7 L62.55 20.55 M61.15 25.45 L60.75 27.25 60.65 27.25 57.5 25.3 54.55 23.5 Q52.95 24.3 51.4 24.1 L49.55 23.5 Q49.0 23.2 48.6 23.2 48.1 23.2 47.7 23.6 L47.65 23.65 44.5 21.85 46.95 22.3 47.8 22.1 48.0 22.05 47.8 21.7 47.75 21.6 47.35 20.95 45.4 18.45 Q46.45 19.3 47.55 19.55 L48.35 19.7 48.5 19.95 48.95 20.6 Q50.75 22.65 55.2 23.05 L57.75 23.4 Q60.25 23.85 61.25 24.9 L61.15 25.45 M48.5 19.95 L47.35 20.95 48.5 19.95 M48.0 22.05 L48.6 23.2 48.0 22.05" fill="#6d0c01" fill-rule="evenodd" stroke="none"/>
      <path d="M30.6 22.45 L30.6 22.4 31.75 19.95 Q32.9 18.6 33.7 18.25 35.5 17.4 36.55 17.4 37.25 17.4 38.4 17.95 L40.55 18.5 Q41.1 18.5 41.65 18.0 L42.45 17.5 Q43.7 17.5 45.5 20.1 L46.95 22.3 44.5 21.85 Q42.85 21.0 41.3 20.5 L39.45 21.2 37.85 21.1 Q36.8 21.1 35.45 22.4 34.05 23.7 33.35 23.7 31.65 23.7 30.65 22.45 L30.6 22.45 M53.3 15.15 L57.45 15.45 Q59.7 15.85 60.45 17.0 L61.35 18.15 62.25 19.4 62.55 20.55 62.15 20.7 Q61.2 20.7 59.05 19.35 L56.75 18.0 Q56.85 17.3 55.55 15.85 L55.25 15.6 54.95 15.45 53.3 15.15 M61.4 23.3 L61.25 24.9 Q60.25 23.85 57.75 23.4 L55.2 23.05 Q50.75 22.65 48.95 20.6 49.6 20.15 50.45 19.85 52.25 19.2 53.8 19.2 58.45 19.2 61.4 23.3 M48.2 18.3 Q47.9 18.3 47.45 18.6 L47.45 18.7 47.75 18.8 49.15 18.8 49.15 18.5 48.2 18.3 M46.4 14.65 Q48.1 16.0 52.25 15.9 53.85 15.8 55.15 16.95 L54.75 18.05 54.35 18.4 Q51.75 18.05 49.55 19.3 L48.5 19.95 48.35 19.7 47.55 19.55 Q46.45 19.3 45.4 18.45 L44.7 17.9 44.65 17.85 Q46.05 17.05 46.35 15.35 L46.4 14.65 M42.9 19.65 Q42.35 20.15 42.75 20.5 L44.6 20.6 Q44.3 19.65 42.9 19.65 M57.75 23.4 L58.1 23.15 Q57.95 22.0 56.0 22.05 55.7 22.75 56.35 23.05 L57.75 23.4 M35.25 21.25 Q35.7 20.85 36.05 21.05 36.35 21.25 36.35 20.8 L36.05 20.05 Q35.7 19.7 35.25 19.7 34.8 19.7 34.5 20.05 34.15 20.35 34.15 20.8 34.15 21.25 34.5 21.45 34.8 21.65 35.25 21.25" fill="#9d1a00" fill-rule="evenodd" stroke="none"/>
      <path d="M31.75 19.95 Q32.7 18.45 33.1 18.05 34.75 16.2 36.75 16.4 37.9 16.45 39.15 17.15 40.05 17.6 41.2 16.85 41.3 16.4 42.0 16.45 42.4 16.45 43.35 17.0 L44.65 17.85 44.7 17.9 45.4 18.45 47.35 20.95 47.75 21.6 47.8 21.7 48.0 22.05 47.8 22.1 46.95 22.3 45.5 20.1 Q43.7 17.5 42.45 17.5 L41.65 18.0 Q41.1 18.5 40.55 18.5 L38.4 17.95 Q37.25 17.4 36.55 17.4 35.5 17.4 33.7 18.25 32.9 18.6 31.75 19.95 M46.35 13.6 Q49.05 15.75 50.5 15.3 L52.2 14.3 54.35 14.3 Q59.3 14.5 62.3 17.6 L62.95 19.1 63.1 19.45 63.5 21.4 63.5 22.2 63.45 22.2 Q62.95 22.2 62.6 20.95 L62.55 20.55 62.25 19.4 61.35 18.15 60.45 17.0 Q59.7 15.85 57.45 15.45 L53.3 15.15 54.95 15.45 55.25 15.6 55.55 15.85 Q56.85 17.3 56.75 18.0 L56.6 18.4 55.2 17.0 55.15 16.95 Q53.85 15.8 52.25 15.9 48.1 16.0 46.4 14.65 L46.4 14.35 46.35 13.6 M56.4 18.95 L57.2 19.25 59.15 20.35 61.4 22.25 61.4 22.4 61.4 23.3 Q58.45 19.2 53.8 19.2 52.25 19.2 50.45 19.85 49.6 20.15 48.95 20.6 L48.5 19.95 49.55 19.3 Q51.75 18.05 54.35 18.4 L56.4 18.95 M53.3 15.15 L50.5 15.3 53.3 15.15" fill="#fe8116" fill-rule="evenodd" stroke="none"/>
      <path d="M42.75 48.2 L42.2 47.7 41.45 46.75 Q41.9 45.4 41.2 44.2 L39.95 43.3 40.0 43.2 41.85 43.2 Q45.45 42.1 50.7 39.8 L50.85 39.75 52.5 40.95 Q52.15 41.9 49.35 42.55 43.6 43.85 42.75 48.2 M63.5 22.2 L64.5 22.15 Q64.25 23.1 63.4 23.8 L61.95 25.3 Q61.7 25.75 61.75 27.65 L61.8 29.45 61.75 30.5 Q61.7 31.3 61.1 32.2 L59.95 32.1 59.8 32.05 Q60.4 31.05 60.65 29.35 L60.7 28.45 60.7 28.1 60.7 27.55 60.75 27.25 61.15 25.45 61.55 25.3 61.25 24.9 61.4 23.3 61.4 22.4 63.45 22.2 63.5 22.2 M55.45 35.55 L55.4 33.4 57.65 33.5 57.75 33.55 59.55 33.8 59.15 34.1 Q58.35 34.7 57.8 36.15 L55.45 35.6 55.45 35.55" fill="#260d0d" fill-rule="evenodd" stroke="none"/>
      <path d="M45.7 51.45 L42.75 48.2 Q43.6 43.85 49.35 42.55 52.15 41.9 52.5 40.95 L62.25 47.8 Q54.25 51.4 47.65 51.5 L47.35 51.5 45.7 51.45 M64.5 22.15 L64.6 22.15 73.05 21.15 Q72.05 27.2 70.2 32.85 L61.1 32.2 Q61.7 31.3 61.75 30.5 L61.8 29.45 61.75 27.65 Q61.7 25.75 61.95 25.3 L63.4 23.8 Q64.25 23.1 64.5 22.15 M57.8 36.15 Q58.35 34.7 59.15 34.1 L59.55 33.8 69.45 35.05 68.05 38.55 67.7 38.45 57.8 36.15" fill="#160c0c" fill-rule="evenodd" stroke="none"/>
      <path d="M53.65 12.5 L52.8 12.75 53.5 12.25 53.65 12.5 M48.2 18.3 L49.15 18.5 49.15 18.8 47.75 18.8 47.45 18.7 47.45 18.6 Q47.9 18.3 48.2 18.3 M42.9 19.65 Q44.3 19.65 44.6 20.6 L42.75 20.5 Q42.35 20.15 42.9 19.65 M57.75 23.4 L56.35 23.05 Q55.7 22.75 56.0 22.05 57.95 22.0 58.1 23.15 L57.75 23.4 M35.25 21.25 Q34.8 21.65 34.5 21.45 34.15 21.25 34.15 20.8 34.15 20.35 34.5 20.05 34.8 19.7 35.25 19.7 35.7 19.7 36.05 20.05 L36.35 20.8 Q36.35 21.25 36.05 21.05 35.7 20.85 35.25 21.25" fill="#fedd14" fill-rule="evenodd" stroke="none"/>
      <path d="M42.9 14.05 L42.95 14.15 Q43.35 15.5 43.35 16.4 L43.35 17.0 Q42.4 16.45 42.0 16.45 41.3 16.4 41.2 16.85 40.05 17.6 39.15 17.15 37.9 16.45 36.75 16.4 36.75 15.8 37.15 15.3 L37.8 15.3 Q40.8 15.3 42.9 14.05" fill="#ebd325" fill-rule="evenodd" stroke="none"/>
      <path d="M29.4 26.8 L29.5 25.75 Q33.85 26.7 36.1 24.5 L37.35 22.1 39.45 21.2 41.3 20.5 Q42.85 21.0 44.5 21.85 L47.65 23.65 47.7 23.6 Q48.1 23.2 48.6 23.2 49.0 23.2 49.55 23.5 L51.4 24.1 Q52.95 24.3 54.55 23.5 L57.5 25.3 60.65 27.25 60.7 27.55 60.7 28.1 60.7 28.45 58.05 26.5 Q56.0 24.9 54.8 24.9 L51.05 25.0 51.05 25.3 52.9 26.4 Q54.45 27.35 54.45 28.05 54.45 28.4 53.75 28.4 L53.7 28.4 Q51.05 28.4 46.75 24.95 42.45 21.5 40.75 21.5 39.25 21.5 38.3 22.95 36.95 25.0 36.05 25.6 34.7 26.45 32.45 26.75 L29.4 26.8 M53.75 28.4 Q50.6 25.5 47.75 23.7 L47.65 23.65 47.75 23.7 Q50.6 25.5 53.75 28.4" fill="#8f3e01" fill-rule="evenodd" stroke="none"/>
      <path d="M42.65 24.0 L41.9 24.4 40.0 23.8 39.6 22.85 40.2 22.1 Q42.05 22.75 42.65 24.0 M56.05 30.9 L56.15 29.9 Q56.85 29.35 57.55 29.7 57.3 31.05 56.05 30.9 M48.65 29.9 Q49.6 30.65 48.6 30.9 L47.4 31.1 Q43.95 31.65 41.4 29.6 40.7 29.05 41.4 28.45 45.5 27.85 48.65 29.9 M47.4 39.6 L45.9 39.85 44.45 39.6 43.9 39.2 43.8 38.9 Q43.8 38.5 44.45 38.25 L45.05 38.05 45.9 37.95 47.4 38.25 Q48.0 38.5 48.0 38.9 48.0 39.3 47.4 39.6 M33.15 35.4 L34.65 34.3 37.45 35.85 37.55 37.1 35.3 36.65 Q33.9 36.5 33.15 35.4" fill="#a01001" fill-rule="evenodd" stroke="none"/>
      <path d="M29.15 29.9 L29.4 26.8 32.45 26.75 Q34.7 26.45 36.05 25.6 36.95 25.0 38.3 22.95 39.25 21.5 40.75 21.5 42.45 21.5 46.75 24.95 51.05 28.4 53.7 28.4 L53.75 28.4 Q54.45 28.4 54.45 28.05 54.45 27.35 52.9 26.4 L51.05 25.3 51.05 25.0 54.8 24.9 Q56.0 24.9 58.05 26.5 L60.7 28.45 60.65 29.35 Q60.4 31.05 59.8 32.05 L59.75 32.15 Q59.0 33.25 57.75 33.5 L57.65 33.5 55.4 33.4 Q54.1 33.05 52.3 32.15 52.05 32.55 51.95 33.2 51.65 35.1 50.15 35.1 49.3 35.1 48.95 34.5 48.6 33.9 47.85 33.9 46.5 33.9 44.45 35.5 L42.55 37.1 Q41.95 37.1 41.3 36.05 L40.15 34.7 38.25 34.3 36.15 33.9 Q32.85 32.6 31.4 31.7 L29.15 29.9 M42.65 24.0 Q42.05 22.75 40.2 22.1 L39.6 22.85 40.0 23.8 41.9 24.4 42.65 24.0 M56.05 30.9 Q57.3 31.05 57.55 29.7 56.85 29.35 56.15 29.9 L56.05 30.9 M48.65 29.9 Q45.5 27.85 41.4 28.45 40.7 29.05 41.4 29.6 43.95 31.65 47.4 31.1 L48.6 30.9 Q49.6 30.65 48.65 29.9" fill="#400707" fill-rule="evenodd" stroke="none"/>
      <path d="M37.15 15.3 Q37.65 14.5 39.05 14.0 41.7 13.05 42.25 12.0 L42.9 14.05 Q40.8 15.3 37.8 15.3 L37.15 15.3" fill="#fef078" fill-rule="evenodd" stroke="none"/>
      <path d="M29.05 33.35 L29.15 29.9 31.4 31.7 Q32.85 32.6 36.15 33.9 L38.25 34.3 40.15 34.7 41.3 36.05 Q41.95 37.1 42.55 37.1 L44.45 35.5 Q46.5 33.9 47.85 33.9 48.6 33.9 48.95 34.5 49.3 35.1 50.15 35.1 51.65 35.1 51.95 33.2 52.05 32.55 52.3 32.15 54.1 33.05 55.4 33.4 L55.45 35.55 55.45 35.6 Q55.35 37.25 54.75 38.9 L53.05 38.8 53.05 38.75 50.85 39.75 50.7 39.8 Q45.45 42.1 41.85 43.2 L40.0 43.2 39.75 43.2 Q38.25 42.95 37.35 42.15 36.1 41.05 35.6 39.6 L35.4 38.9 34.65 38.65 31.05 37.3 30.8 37.15 30.4 36.85 Q29.3 36.0 29.1 34.1 L29.05 33.35 M47.4 39.6 Q48.0 39.3 48.0 38.9 48.0 38.5 47.4 38.25 L45.9 37.95 45.05 38.05 44.45 38.25 Q43.8 38.5 43.8 38.9 L43.9 39.2 44.45 39.6 45.9 39.85 47.4 39.6 M52.15 35.7 Q53.2 37.3 53.05 38.75 53.2 37.3 52.15 35.7 M33.15 35.4 Q33.9 36.5 35.3 36.65 L37.55 37.1 37.45 35.85 34.65 34.3 33.15 35.4" fill="#290202" fill-rule="evenodd" stroke="none"/>
      <path d="M42.2 47.7 L41.4 47.0 41.45 46.75 42.2 47.7 M61.25 24.9 L61.55 25.3 61.15 25.45 61.25 24.9 M59.8 32.05 L59.95 32.1 59.75 32.15 59.8 32.05 M57.65 33.5 L57.75 33.5 57.75 33.55 57.65 33.5 M28.15 46.1 L28.35 46.1 28.35 46.2 28.4 46.2 28.65 46.3 28.7 46.3 28.65 46.35 28.35 46.25 27.95 46.1 28.15 46.1" fill="#211111" fill-rule="evenodd" stroke="none"/>
      <path d="M59.95 32.1 L61.1 32.2 59.55 33.8 57.75 33.55 57.75 33.5 Q59.0 33.25 59.75 32.15 L59.95 32.1 M55.45 35.6 L57.8 36.15 Q56.65 37.25 56.4 38.15 56.1 39.0 55.1 39.85 54.1 40.7 52.5 40.95 L50.85 39.75 53.05 38.75 53.05 38.8 54.75 38.9 Q55.35 37.25 55.45 35.6" fill="#4f2020" fill-rule="evenodd" stroke="none"/>
      <path d="M18.75 86.55 L18.7 86.75 18.7 87.05 18.05 87.55 16.5 85.95 18.75 86.55 M7.9 82.85 L8.05 82.5 11.3 84.2 11.8 85.25 8.55 83.8 Q8.0 83.65 7.9 82.85 M39.95 43.3 L41.2 44.2 Q41.9 45.4 41.45 46.75 40.55 45.75 39.0 44.75 35.7 42.55 34.95 40.7 34.85 40.45 31.3 38.3 L31.05 37.3 34.65 38.65 35.4 38.9 35.6 39.6 Q36.1 41.05 37.35 42.15 38.25 42.95 39.75 43.2 L39.95 43.3" fill="#754a4a" fill-rule="evenodd" stroke="none"/>
      <path d="M41.4 47.0 L40.9 47.85 41.0 48.45 Q39.7 47.4 37.5 46.5 L34.05 45.0 33.7 44.3 Q31.95 40.65 31.3 38.3 34.85 40.45 34.95 40.7 35.7 42.55 39.0 44.75 40.55 45.75 41.45 46.75 L41.4 47.0 M19.75 82.6 Q20.15 82.85 20.0 83.25 L19.65 83.9 15.15 82.5 13.85 82.05 13.2 80.95 11.9 78.7 16.6 81.0 19.75 82.6 M8.95 79.7 L9.3 78.7 9.85 80.3 8.95 79.7 M26.3 37.45 L26.55 36.5 27.4 34.9 27.35 35.8 Q27.35 38.3 28.1 40.75 L27.65 40.25 Q26.65 39.0 26.3 37.45" fill="#666666" fill-rule="evenodd" stroke="none"/>
      <path d="M57.8 36.15 L67.7 38.45 68.05 38.55 Q66.15 42.95 63.7 47.1 L62.25 47.8 52.5 40.95 Q54.1 40.7 55.1 39.85 56.1 39.0 56.4 38.15 56.65 37.25 57.8 36.15 M69.45 35.05 L59.55 33.8 61.1 32.2 70.2 32.85 69.45 35.05" fill="#3e2020" fill-rule="evenodd" stroke="none"/>
      <path d="M69.75 51.85 L69.65 51.85 67.05 51.15 64.7 49.5 67.3 45.2 70.35 39.05 75.05 40.05 77.25 40.5 Q74.3 46.7 69.75 51.85 M79.85 33.65 L79.25 35.4 79.0 36.2 74.85 35.7 71.8 35.35 72.55 33.05 79.85 33.65" fill="#c4c4c4" fill-rule="evenodd" stroke="none"/>
      <path d="M70.2 32.85 L71.45 32.95 72.55 33.05 71.8 35.35 69.45 35.05 70.2 32.85 M64.7 49.5 L64.25 49.2 62.95 48.3 63.7 47.1 Q66.15 42.95 68.05 38.55 L70.35 39.05 67.3 45.2 64.7 49.5" fill="#ffffff" fill-rule="evenodd" stroke="none"/>
      <path d="M67.05 51.15 L63.8 50.85 64.7 49.5 67.05 51.15 M74.8 20.9 Q79.75 20.0 82.3 18.95 81.9 26.8 79.85 33.65 L72.55 33.05 Q74.35 27.05 74.8 20.9 M79.0 36.2 L79.05 36.2 78.6 37.15 78.6 37.2 75.05 40.05 70.35 39.05 71.8 35.35 74.85 35.7 79.0 36.2" fill="#b3b3b3" fill-rule="evenodd" stroke="none"/>
      <path d="M80.05 36.3 L78.2 40.5 77.7 40.4 77.25 40.4 78.5 37.5 78.65 37.15 78.6 37.15 79.05 36.2 79.65 36.25 80.05 36.3 M68.3 54.8 L69.55 55.8 Q63.65 63.7 55.85 71.7 55.1 72.5 53.9 72.65 L53.6 70.6 Q57.1 68.25 61.15 64.0 66.1 58.9 68.3 54.8" fill="#d0d0d0" fill-rule="evenodd" stroke="none"/>
      <path d="M63.7 47.1 L62.95 48.3 62.25 47.8 63.7 47.1" fill="#371e1e" fill-rule="evenodd" stroke="none"/>
      <path d="M51.5 62.4 Q49.35 56.1 45.7 51.45 L47.35 51.5 47.65 51.5 Q54.25 51.4 62.25 47.8 L62.95 48.3 Q58.25 55.85 51.5 62.4" fill="#110909" fill-rule="evenodd" stroke="none"/>
      <path d="M63.8 50.85 L63.7 51.0 Q58.95 57.9 52.2 64.55 L51.5 62.4 Q58.25 55.85 62.95 48.3 L64.25 49.2 64.7 49.5 63.8 50.85" fill="#cccccc" fill-rule="evenodd" stroke="none"/>
      <path d="M63.7 51.0 L68.3 54.8 Q66.1 58.9 61.15 64.0 57.1 68.25 53.6 70.6 L52.2 64.55 Q58.95 57.9 63.7 51.0 M77.25 40.4 L77.25 40.5 75.05 40.05 78.6 37.2 78.6 37.15 78.65 37.15 78.5 37.5 77.25 40.4" fill="#a2a2a2" fill-rule="evenodd" stroke="none"/>
      <path d="M9.3 78.7 L9.35 78.5 9.5 78.1 Q9.7 77.75 9.95 77.75 L10.05 77.8 11.05 78.3 11.9 78.7 13.2 80.95 13.85 82.05 16.5 85.95 18.05 87.55 17.45 87.7 11.8 85.25 11.3 84.2 10.45 82.1 9.85 80.3 9.3 78.7 M27.4 34.9 L27.6 34.6 28.25 33.8 28.85 33.2 29.05 33.35 29.1 34.1 Q29.3 36.0 30.4 36.85 L30.8 37.15 31.05 37.3 31.3 38.3 Q31.95 40.65 33.7 44.3 L34.05 45.0 35.6 48.1 29.65 44.45 29.3 43.75 Q28.55 42.25 28.1 40.75 27.35 38.3 27.35 35.8 L27.4 34.9" fill="#7d7d7d" fill-rule="evenodd" stroke="none"/>
      <path d="M41.0 48.45 L40.8 49.55 Q40.4 50.2 38.85 50.05 L37.7 49.35 35.6 48.1 34.05 45.0 37.5 46.5 Q39.7 47.4 41.0 48.45 M19.65 83.9 L19.5 84.15 Q18.85 85.35 18.75 86.55 L16.5 85.95 13.85 82.05 15.15 82.5 19.65 83.9 M8.05 82.5 L8.95 79.7 9.85 80.3 10.45 82.1 11.3 84.2 8.05 82.5 M28.1 43.5 L26.3 42.4 Q25.5 41.5 25.4 40.4 L26.3 37.45 Q26.65 39.0 27.65 40.25 L28.1 40.75 Q28.55 42.25 29.3 43.75 L29.65 44.45 28.1 43.5" fill="#3c3c3c" fill-rule="evenodd" stroke="none"/>
      <path d="M10.05 77.8 L26.95 45.6 27.4 45.8 28.15 46.1 27.95 46.1 28.35 46.25 28.65 46.35 27.85 47.85 22.35 58.3 16.5 68.45 12.75 75.1 11.35 77.75 11.05 78.3 10.05 77.8" fill="#5e2a2a" fill-rule="evenodd" stroke="none"/>
      <path d="M37.7 49.35 L29.9 63.3 Q27.8 64.55 27.3 66.7 L27.25 66.85 Q27.05 69.55 25.4 70.7 22.95 72.6 23.5 74.4 23.8 76.65 21.2 78.1 19.8 79.5 19.95 81.45 L19.75 82.6 16.6 81.0 Q16.75 78.15 18.55 77.1 L20.8 76.4 Q21.95 76.05 21.95 75.0 21.95 74.4 21.55 73.8 21.15 73.25 21.15 72.4 21.15 71.8 21.4 71.35 21.9 70.4 23.35 69.75 L23.7 69.6 Q25.35 68.85 25.55 68.1 L25.55 67.9 Q25.55 67.3 25.05 66.5 24.55 65.7 24.55 65.2 24.55 62.85 28.35 62.3 29.45 62.1 30.0 61.2 L30.95 59.3 33.6 54.7 34.95 52.1 Q35.55 50.75 35.55 50.1 35.55 49.05 32.0 47.6 L31.65 47.45 29.7 46.75 Q29.25 46.45 28.7 46.3 L28.65 46.3 28.4 46.2 28.35 46.2 28.35 46.1 28.15 46.1 27.4 45.8 26.95 45.6 28.1 43.5 29.65 44.45 35.6 48.1 37.7 49.35" fill="#1c0f0f" fill-rule="evenodd" stroke="none"/>
      <path d="M28.7 46.3 Q29.25 46.45 29.7 46.75 L31.65 47.45 32.0 47.6 Q35.55 49.05 35.55 50.1 35.55 50.75 34.95 52.1 L31.6 49.65 Q29.95 48.7 27.85 47.85 L28.65 46.35 28.7 46.3 M21.4 71.35 Q21.15 71.8 21.15 72.4 21.15 73.25 21.55 73.8 21.95 74.4 21.95 75.0 21.95 76.05 20.8 76.4 L18.55 77.1 Q16.75 78.15 16.6 81.0 L11.9 78.7 11.05 78.3 11.35 77.75 12.75 75.1 Q16.35 74.9 21.4 71.35" fill="#261414" fill-rule="evenodd" stroke="none"/>
      <path d="M34.95 52.1 L33.6 54.7 30.95 59.3 30.0 61.2 Q29.45 62.1 28.35 62.3 24.55 62.85 24.55 65.2 24.55 65.7 25.05 66.5 25.55 67.3 25.55 67.9 L25.55 68.1 Q25.35 68.85 23.7 69.6 L23.35 69.75 Q21.9 70.4 21.4 71.35 16.35 74.9 12.75 75.1 L16.5 68.45 22.35 58.3 27.85 47.85 Q29.95 48.7 31.6 49.65 L34.95 52.1" fill="#3d2222" fill-rule="evenodd" stroke="none"/>
      <path d="M18.7 86.75 L21.85 88.2 Q21.4 89.4 20.0 90.3 19.75 90.8 19.65 91.25 18.85 91.9 18.2 93.5 17.15 96.3 14.15 96.3 13.1 96.3 12.35 95.5 11.6 94.7 10.45 94.7 9.55 94.7 7.95 95.5 6.4 96.3 5.25 96.3 3.9 96.3 2.25 94.95 L1.65 94.45 0.15 91.65 Q-0.25 90.4 0.35 89.65 2.6 88.2 4.05 85.5 5.45 82.75 7.9 82.85 8.0 83.65 8.55 83.8 L11.8 85.25 17.45 87.7 18.05 87.55 18.7 87.05 18.7 86.75 M6.55 90.1 Q8.2 90.9 9.85 90.9 9.3 90.05 7.95 89.6 L6.55 90.1 M5.0 94.35 Q5.55 94.2 5.9 93.95 6.25 93.7 5.35 93.5 L3.9 93.3 3.1 93.5 Q2.75 93.65 2.75 93.9 2.75 94.15 3.1 94.35 L3.9 94.5 5.0 94.35 M16.9 93.45 Q15.6 93.4 15.05 94.5 16.3 95.2 17.35 94.9 17.8 94.2 16.9 93.45" fill="#360404" fill-rule="evenodd" stroke="none"/>
      <path d="M5.0 94.35 L3.9 94.5 3.1 94.35 Q2.75 94.15 2.75 93.9 2.75 93.65 3.1 93.5 L3.9 93.3 5.35 93.5 Q6.25 93.7 5.9 93.95 5.55 94.2 5.0 94.35 M6.55 90.1 L7.95 89.6 Q9.3 90.05 9.85 90.9 8.2 90.9 6.55 90.1 M16.9 93.45 Q17.8 94.2 17.35 94.9 16.3 95.2 15.05 94.5 15.6 93.4 16.9 93.45" fill="#0d0c0c" fill-rule="evenodd" stroke="none"/>
      <path d="M19.65 91.25 Q19.35 92.5 20.05 93.3 20.75 93.9 18.8 96.4 L15.3 99.7 11.2 98.0 Q5.75 100.8 2.8 96.6 L1.65 94.45 2.25 94.95 Q3.9 96.3 5.25 96.3 6.4 96.3 7.95 95.5 9.55 94.7 10.45 94.7 11.6 94.7 12.35 95.5 13.1 96.3 14.15 96.3 17.15 96.3 18.2 93.5 18.85 91.9 19.65 91.25" fill="#240202" fill-rule="evenodd" stroke="none"/>
      <path d="M82.3 18.95 L83.05 18.55 83.2 20.55 Q83.2 27.0 80.95 33.75 L80.25 35.75 80.05 36.3 78.2 40.5 78.1 40.65 Q75.3 46.4 70.95 52.3 L69.75 51.85 M69.65 51.85 L67.05 51.15 63.8 50.85 63.7 51.0 68.3 54.8 69.55 55.8 Q63.65 63.7 55.85 71.7 55.1 72.5 53.9 72.65 L53.6 70.6 52.2 64.55 51.5 62.4 Q49.35 56.1 45.7 51.45 L42.75 48.2 42.2 47.7 41.4 47.0 40.9 47.85 41.0 48.45 40.8 49.55 Q40.4 50.2 38.85 50.05 L37.7 49.35 29.9 63.3 Q27.8 64.55 27.3 66.7 L27.25 66.85 Q27.05 69.55 25.4 70.7 22.95 72.6 23.5 74.4 23.8 76.65 21.2 78.1 19.8 79.5 19.95 81.45 L19.75 82.6 Q20.15 82.85 20.0 83.25 L19.65 83.9 19.5 84.15 Q18.85 85.35 18.75 86.55 L18.7 86.75 21.85 88.2 Q21.4 89.4 20.0 90.3 19.75 90.8 19.65 91.25 19.35 92.5 20.05 93.3 20.75 93.9 18.8 96.4 L15.3 99.7 11.2 98.0 Q5.75 100.8 2.8 96.6 L1.65 94.45 0.15 91.65 Q-0.25 90.4 0.35 89.65 2.6 88.2 4.05 85.5 5.45 82.75 7.9 82.85 L8.05 82.5 8.95 79.7 9.3 78.7 9.35 78.5 9.5 78.1 Q9.7 77.75 9.95 77.75 L10.05 77.8 26.95 45.6 28.1 43.5 26.3 42.4 Q25.5 41.5 25.4 40.4 L26.3 37.45 26.55 36.5 27.4 34.9 27.6 34.6 28.25 33.8 28.85 33.2 28.85 33.15 29.05 33.35 29.15 29.9 29.4 26.8 29.5 25.75 Q30.0 23.9 30.6 22.45 L30.6 22.4 31.75 19.95 Q32.7 18.45 33.1 18.05 34.75 16.2 36.75 16.4 37.9 16.45 39.15 17.15 40.05 17.6 41.2 16.85 41.3 16.4 42.0 16.45 42.4 16.45 43.35 17.0 L44.65 17.85 44.7 17.9 45.4 18.45 47.35 20.95 48.5 19.95 49.55 19.3 Q51.75 18.05 54.35 18.4 L56.4 18.95 57.2 19.25 59.15 20.35 61.4 22.25 61.4 22.4 63.45 22.2 M46.35 13.6 Q49.05 15.75 50.5 15.3 L52.2 14.3 54.35 14.3 Q59.3 14.5 62.3 17.6 L62.95 19.1 63.1 19.45 63.5 21.4 63.5 22.2 64.5 22.15 M64.6 22.15 L73.05 21.15 74.8 20.9 Q79.75 20.0 82.3 18.95 M56.75 18.0 L56.6 18.4 56.4 18.95 M61.4 22.4 L61.4 23.3 61.25 24.9 61.15 25.45 60.75 27.25 60.7 27.55 60.7 28.1 60.7 28.45 60.65 29.35 Q60.4 31.05 59.8 32.05 L59.75 32.15 Q59.0 33.25 57.75 33.5 L57.65 33.5 55.4 33.4 Q54.1 33.05 52.3 32.15 M48.0 22.05 L47.8 21.7 M47.75 21.6 L47.35 20.95 M44.5 21.85 Q42.85 21.0 41.3 20.5 L39.45 21.2 37.35 22.1 36.1 24.5 Q33.85 26.7 29.5 25.75 M60.65 27.25 L57.5 25.3 54.55 23.5 Q52.95 24.3 51.4 24.1 L49.55 23.5 Q49.0 23.2 48.6 23.2 48.1 23.2 47.7 23.6 L47.65 23.65 47.75 23.7 Q50.6 25.5 53.75 28.4 M48.6 23.2 L48.0 22.05 M47.65 23.65 L44.5 21.85 M53.3 15.15 L54.95 15.45 55.25 15.6 55.55 15.85 Q56.85 17.3 56.75 18.0 M50.5 15.3 L53.3 15.15 M60.7 27.55 L60.65 27.25 M55.45 35.55 L55.4 33.4 M68.05 38.55 L69.45 35.05 70.2 32.85 Q72.05 27.2 73.05 21.15 M41.45 46.75 L41.4 47.0 M39.95 43.3 L41.2 44.2 Q41.9 45.4 41.45 46.75 M50.7 39.8 Q45.45 42.1 41.85 43.2 L40.0 43.2 39.95 43.3 39.75 43.2 Q38.25 42.95 37.35 42.15 36.1 41.05 35.6 39.6 L35.4 38.9 34.65 38.65 31.05 37.3 M50.85 39.75 L53.05 38.75 Q53.2 37.3 52.15 35.7 M53.05 38.75 L53.05 38.8 54.75 38.9 Q55.35 37.25 55.45 35.6 M72.55 33.05 Q74.35 27.05 74.8 20.9 M72.55 33.05 L71.8 35.35 70.35 39.05 67.3 45.2 64.7 49.5 63.8 50.85 M68.05 38.55 Q66.15 42.95 63.7 47.1 L62.95 48.3 Q58.25 55.85 51.5 62.4 M29.65 44.45 L35.6 48.1 37.7 49.35 M30.8 37.15 L30.4 36.85 Q29.3 36.0 29.1 34.1 L29.05 33.35 M16.6 81.0 L19.75 82.6 M29.65 44.45 L28.1 43.5 M39.75 43.2 L40.0 43.2 M11.05 78.3 L11.9 78.7 16.6 81.0 M11.8 85.25 L17.45 87.7 18.05 87.55 18.7 87.05 18.7 86.75 M11.8 85.25 L8.55 83.8 Q8.0 83.65 7.9 82.85 M10.05 77.8 L11.05 78.3 M63.7 51.0 Q58.95 57.9 52.2 64.55" fill="none" stroke="#000000" stroke-linecap="round" stroke-linejoin="round" stroke-opacity="0.6627451" stroke-width="1.5"/>
      <path d="M33.1 18.05 Q31.85 16.2 33.15 14.55 L34.7 13.2 Q40.55 11.9 41.7 10.4 L44.15 7.05 Q45.45 5.25 47.05 5.1 L48.75 5.4 Q44.35 5.75 45.65 11.3 M45.7 11.5 L45.85 12.1 46.35 13.6 46.4 14.35 M65.8 2.8 Q64.9 4.4 65.3 6.1 65.7 7.85 63.85 10.25 L65.6 9.2 66.75 8.1 Q67.85 6.65 67.9 4.75 68.2 1.25 71.9 0.0 66.8 0.95 65.85 2.65 L65.8 2.8 M52.35 7.15 L52.6 6.75 Q54.5 4.45 59.25 4.6 57.2 4.95 55.75 6.2 54.25 7.4 55.1 9.65 L55.3 11.05 Q55.1 12.05 53.65 12.5 L52.8 12.75 53.5 12.25 53.8 11.3 Q53.7 10.25 52.75 9.85 51.1 9.15 52.35 7.15 M46.4 14.65 L46.35 15.35 Q46.05 17.05 44.65 17.85" fill="none" stroke="#fef078" stroke-linecap="round" stroke-linejoin="round" stroke-opacity="0.6627451" stroke-width="1.5"/>
    </g>
    <g id="sprite1" transform="matrix(1.0, 0.0, 0.0, 1.0, 0.0, 0.0)">
      <use height="99.7" transform="matrix(1.0, 0.0, 0.0, 1.0, 0.0, 0.0)" width="83.2" xlink:href="#shape1"/>
    </g>
    <g id="shape1" transform="matrix(1.0, 0.0, 0.0, 1.0, 0.0, 0.0)">
      <path d="M53.65 12.5 L52.8 12.75 53.5 12.25 53.65 12.5" fill="url(#gradient0)" fill-rule="evenodd" stroke="none"/>
      <path d="M65.8 2.8 L65.75 3.2 65.6 3.2 65.8 2.8" fill="url(#gradient1)" fill-rule="evenodd" stroke="none"/>
      <path d="M79.0 36.2 L79.05 36.2 79.05 36.25 79.0 36.2" fill="url(#gradient2)" fill-rule="evenodd" stroke="none"/>
      <path d="M55.2 17.0 L55.15 17.0 55.15 16.95 55.2 17.0" fill="url(#gradient3)" fill-rule="evenodd" stroke="none"/>
      <path d="M53.75 28.4 L53.7 28.4 53.75 28.4" fill="url(#gradient4)" fill-rule="evenodd" stroke="none"/>
      <path d="M47.65 23.65 L47.7 23.6 47.7 23.65 47.65 23.65" fill="url(#gradient5)" fill-rule="evenodd" stroke="none"/>
      <path d="M53.05 38.8 L53.05 38.75 53.05 38.8" fill="url(#gradient6)" fill-rule="evenodd" stroke="none"/>
      <path d="M78.2 40.5 L78.1 40.65 78.15 40.5 78.2 40.5" fill="url(#gradient7)" fill-rule="evenodd" stroke="none"/>
      <path d="M33.1 18.05 Q31.85 16.2 33.15 14.55 L34.7 13.2 Q40.55 11.9 41.7 10.4 L44.15 7.05 Q45.45 5.25 47.05 5.1 L48.75 5.4 Q44.35 5.75 45.65 11.3 L45.7 11.5 45.85 12.1 46.35 13.6 46.4 14.35 46.4 14.65 46.35 15.35 Q46.05 17.05 44.65 17.85 L43.35 17.0 Q42.4 16.45 42.0 16.45 41.3 16.4 41.2 16.85 40.05 17.6 39.15 17.15 37.9 16.45 36.75 16.4 34.75 16.2 33.1 18.05" fill="url(#gradient8)" fill-rule="evenodd" stroke="none"/>
      <path d="M53.5 12.25 L53.8 11.3 Q53.7 10.25 52.75 9.85 51.1 9.15 52.35 7.15 L52.6 6.75 Q54.5 4.45 59.25 4.6 57.2 4.95 55.75 6.2 54.25 7.4 55.1 9.65 L55.3 11.05 Q55.1 12.05 53.65 12.5 L53.5 12.25" fill="url(#gradient9)" fill-rule="evenodd" stroke="none"/>
      <path d="M65.6 3.2 L65.75 3.2 65.8 2.8 65.85 2.65 Q66.8 0.95 71.9 0.0 68.2 1.25 67.9 4.75 67.85 6.65 66.75 8.1 L65.6 9.2 63.85 10.25 Q65.7 7.85 65.3 6.1 64.95 4.6 65.6 3.2" fill="url(#gradient10)" fill-rule="evenodd" stroke="none"/>
      <path d="M19.75 82.6 Q20.15 82.85 20.0 83.25 L19.65 83.9 19.5 84.15 Q18.85 85.35 18.75 86.55 L18.7 86.75 18.7 87.05 18.05 87.55 17.45 87.7 11.8 85.25 11.3 84.2 8.05 82.5 9.3 78.7 9.35 78.5 9.5 78.1 Q9.7 77.75 9.95 77.75 L10.05 77.8 19.75 82.6" fill="url(#gradient11)" fill-rule="evenodd" stroke="none"/>
      <path d="M7.9 82.85 L8.05 82.5 11.3 84.2 11.8 85.25 8.55 83.8 Q8.0 83.65 7.9 82.85" fill="url(#gradient12)" fill-rule="evenodd" stroke="none"/>
      <path d="M29.05 33.35 L29.15 29.9 29.4 26.8 29.5 25.75 Q33.85 26.7 36.1 24.5 L37.35 22.1 39.45 21.2 41.3 20.5 Q42.85 21.0 44.5 21.85 L47.65 23.65 47.7 23.65 47.7 23.6 Q48.1 23.2 48.6 23.2 49.0 23.2 49.55 23.5 L51.4 24.1 Q52.95 24.3 54.55 23.5 L57.5 25.3 60.65 27.25 60.7 27.55 60.7 28.1 60.7 28.45 60.65 29.35 Q60.4 31.05 59.8 32.05 L59.75 32.15 Q59.0 33.25 57.75 33.5 L57.65 33.5 55.4 33.4 55.45 35.55 55.45 35.6 Q55.35 37.25 54.75 38.9 L53.05 38.8 53.05 38.75 50.85 39.75 50.7 39.8 Q45.45 42.1 41.85 43.2 L40.0 43.2 39.75 43.2 Q38.25 42.95 37.35 42.15 36.1 41.05 35.6 39.6 L35.4 38.9 34.65 38.65 31.05 37.3 30.8 37.15 30.4 36.85 Q29.3 36.0 29.1 34.1 L29.05 33.35 M53.75 28.4 L53.7 28.4 53.75 28.4" fill="url(#gradient13)" fill-rule="evenodd" stroke="none"/>
      <path d="M29.5 25.75 Q30.0 23.9 30.6 22.45 L30.6 22.4 31.75 19.95 Q32.7 18.45 33.1 18.05 34.75 16.2 36.75 16.4 37.9 16.45 39.15 17.15 40.05 17.6 41.2 16.85 41.3 16.4 42.0 16.45 42.4 16.45 43.35 17.0 L44.65 17.85 Q46.05 17.05 46.35 15.35 L46.4 14.65 46.4 14.35 46.35 13.6 Q49.05 15.75 50.5 15.3 L52.2 14.3 54.35 14.3 Q59.3 14.5 62.3 17.6 L62.95 19.1 63.1 19.45 63.5 21.4 63.5 22.2 63.45 22.2 61.4 22.4 61.4 23.3 61.25 24.9 61.15 25.45 60.75 27.25 60.65 27.25 57.5 25.3 54.55 23.5 Q52.95 24.3 51.4 24.1 L49.55 23.5 Q49.0 23.2 48.6 23.2 48.1 23.2 47.7 23.6 L47.65 23.65 44.5 21.85 Q42.85 21.0 41.3 20.5 L39.45 21.2 37.35 22.1 36.1 24.5 Q33.85 26.7 29.5 25.75 M55.2 17.0 L55.15 16.95 55.15 17.0 55.2 17.0" fill="url(#gradient14)" fill-rule="evenodd" stroke="none"/>
      <path d="M51.5 62.4 Q49.35 56.1 45.7 51.45 L42.75 48.2 42.2 47.7 41.4 47.0 41.45 46.75 Q41.9 45.4 41.2 44.2 L39.95 43.3 40.0 43.2 41.85 43.2 Q45.45 42.1 50.7 39.8 L50.85 39.75 53.05 38.75 53.05 38.8 54.75 38.9 Q55.35 37.25 55.45 35.6 L55.45 35.55 55.4 33.4 57.65 33.5 57.75 33.5 Q59.0 33.25 59.75 32.15 L59.8 32.05 Q60.4 31.05 60.65 29.35 L60.7 28.45 60.7 28.1 60.7 27.55 60.75 27.25 61.15 25.45 61.25 24.9 61.4 23.3 61.4 22.4 63.45 22.2 63.5 22.2 64.5 22.15 64.6 22.15 73.05 21.15 Q72.05 27.2 70.2 32.85 L69.45 35.05 68.05 38.55 Q66.15 42.95 63.7 47.1 L62.95 48.3 Q58.25 55.85 51.5 62.4" fill="url(#gradient15)" fill-rule="evenodd" stroke="none"/>
      <path d="M74.8 20.9 Q79.75 20.0 82.3 18.95 L83.05 18.55 83.2 20.55 Q83.2 27.0 80.95 33.75 L80.25 35.75 80.05 36.3 78.2 40.5 78.15 40.5 78.1 40.65 Q75.3 46.4 70.95 52.3 L69.75 51.85 69.65 51.85 67.05 51.15 63.8 50.85 64.7 49.5 67.3 45.2 70.35 39.05 71.8 35.35 72.55 33.05 Q74.35 27.05 74.8 20.9 M79.0 36.2 L79.05 36.25 79.05 36.2 79.0 36.2" fill="url(#gradient16)" fill-rule="evenodd" stroke="none"/>
      <path d="M63.7 51.0 L69.55 55.8 Q63.65 63.7 55.85 71.7 55.1 72.5 53.9 72.65 L53.6 70.6 52.2 64.55 Q58.95 57.9 63.7 51.0" fill="url(#gradient17)" fill-rule="evenodd" stroke="none"/>
      <path d="M41.4 47.0 L40.9 47.85 41.0 48.45 40.8 49.55 Q40.4 50.2 38.85 50.05 L37.7 49.35 28.1 43.5 26.3 42.4 Q25.5 41.5 25.4 40.4 L26.55 36.5 27.4 34.9 27.6 34.6 28.25 33.8 28.85 33.2 29.05 33.35 29.1 34.1 Q29.3 36.0 30.4 36.85 L30.8 37.15 31.05 37.3 34.65 38.65 35.4 38.9 35.6 39.6 Q36.1 41.05 37.35 42.15 38.25 42.95 39.75 43.2 L39.95 43.3 41.2 44.2 Q41.9 45.4 41.45 46.75 L41.4 47.0" fill="url(#gradient18)" fill-rule="evenodd" stroke="none"/>
      <path d="M18.7 86.75 L21.85 88.2 Q21.4 89.4 20.0 90.3 19.75 90.8 19.65 91.25 19.35 92.5 20.05 93.3 20.75 93.9 18.8 96.4 L15.3 99.7 11.2 98.0 Q5.75 100.8 2.8 96.6 L0.15 91.65 Q-0.25 90.4 0.35 89.65 2.6 88.2 4.05 85.5 5.45 82.75 7.9 82.85 8.0 83.65 8.55 83.8 L11.8 85.25 17.45 87.7 18.05 87.55 18.7 87.05 18.7 86.75" fill="url(#gradient19)" fill-rule="evenodd" stroke="none"/>
      <path d="M37.7 49.35 L29.9 63.3 Q27.8 64.55 27.3 66.7 L27.25 66.85 Q27.05 69.55 25.4 70.7 22.95 72.6 23.5 74.4 23.8 76.65 21.2 78.1 19.8 79.5 19.95 81.45 L19.75 82.6 10.05 77.8 28.1 43.5 37.7 49.35" fill="url(#gradient20)" fill-rule="evenodd" stroke="none"/>
      <path d="M63.8 50.85 L63.7 51.0 Q58.95 57.9 52.2 64.55 L51.5 62.4 Q58.25 55.85 62.95 48.3 L63.7 47.1 Q66.15 42.95 68.05 38.55 L69.45 35.05 70.2 32.85 Q72.05 27.2 73.05 21.15 L74.8 20.9 Q74.35 27.05 72.55 33.05 L71.8 35.35 70.35 39.05 67.3 45.2 64.7 49.5 63.8 50.85" fill="url(#gradient21)" fill-rule="evenodd" stroke="none"/>
    </g>
    <linearGradient gradientTransform="matrix(5.0E-4, 0.0, 0.0, 3.0E-4, 53.2, 12.5)" gradientUnits="userSpaceOnUse" id="gradient0" spreadMethod="pad" x1="-819.2" x2="819.2">
      <stop offset="0.0" stop-color="#000000"/>
      <stop offset="1.0" stop-color="#ffffff"/>
    </linearGradient>
    <linearGradient gradientTransform="matrix(1.0E-4, 0.0, 0.0, 2.0E-4, 65.7, 3.0)" gradientUnits="userSpaceOnUse" id="gradient1" spreadMethod="pad" x1="-819.2" x2="819.2">
      <stop offset="0.0" stop-color="#000000"/>
      <stop offset="1.0" stop-color="#ffffff"/>
    </linearGradient>
    <linearGradient gradientTransform="matrix(0.0, 0.0, 0.0, 0.0, 79.0, 36.2)" gradientUnits="userSpaceOnUse" id="gradient2" spreadMethod="pad" x1="-819.2" x2="819.2">
      <stop offset="0.0" stop-color="#000000"/>
      <stop offset="1.0" stop-color="#ffffff"/>
    </linearGradient>
    <linearGradient gradientTransform="matrix(0.0, 0.0, 0.0, 0.0, 55.15, 16.95)" gradientUnits="userSpaceOnUse" id="gradient3" spreadMethod="pad" x1="-819.2" x2="819.2">
      <stop offset="0.0" stop-color="#000000"/>
      <stop offset="1.0" stop-color="#ffffff"/>
    </linearGradient>
    <linearGradient gradientTransform="matrix(0.0, 0.0, 0.0, 0.0, 53.7, 28.4)" gradientUnits="userSpaceOnUse" id="gradient4" spreadMethod="pad" x1="-819.2" x2="819.2">
      <stop offset="0.0" stop-color="#000000"/>
      <stop offset="1.0" stop-color="#ffffff"/>
    </linearGradient>
    <linearGradient gradientTransform="matrix(0.0, 0.0, 0.0, 0.0, 47.65, 23.6)" gradientUnits="userSpaceOnUse" id="gradient5" spreadMethod="pad" x1="-819.2" x2="819.2">
      <stop offset="0.0" stop-color="#000000"/>
      <stop offset="1.0" stop-color="#ffffff"/>
    </linearGradient>
    <linearGradient gradientTransform="matrix(0.0, 0.0, 0.0, 0.0, 53.05, 38.75)" gradientUnits="userSpaceOnUse" id="gradient6" spreadMethod="pad" x1="-819.2" x2="819.2">
      <stop offset="0.0" stop-color="#000000"/>
      <stop offset="1.0" stop-color="#ffffff"/>
    </linearGradient>
    <linearGradient gradientTransform="matrix(1.0E-4, 0.0, 0.0, 1.0E-4, 78.15, 40.55)" gradientUnits="userSpaceOnUse" id="gradient7" spreadMethod="pad" x1="-819.2" x2="819.2">
      <stop offset="0.0" stop-color="#000000"/>
      <stop offset="1.0" stop-color="#ffffff"/>
    </linearGradient>
    <linearGradient gradientTransform="matrix(-0.002, 0.0074, -0.0076, -0.002, 40.5, 11.55)" gradientUnits="userSpaceOnUse" id="gradient8" spreadMethod="pad" x1="-819.2" x2="819.2">
      <stop offset="0.0" stop-color="#000000"/>
      <stop offset="1.0" stop-color="#ffffff"/>
    </linearGradient>
    <linearGradient gradientTransform="matrix(-0.0032, 0.0032, -0.0034, -0.0034, 55.5, 8.55)" gradientUnits="userSpaceOnUse" id="gradient9" spreadMethod="pad" x1="-819.2" x2="819.2">
      <stop offset="0.0" stop-color="#000000"/>
      <stop offset="1.0" stop-color="#ffffff"/>
    </linearGradient>
    <linearGradient gradientTransform="matrix(-0.0035, 0.0035, -0.0044, -0.0044, 67.9, 5.2)" gradientUnits="userSpaceOnUse" id="gradient10" spreadMethod="pad" x1="-819.2" x2="819.2">
      <stop offset="0.0" stop-color="#000000"/>
      <stop offset="1.0" stop-color="#ffffff"/>
    </linearGradient>
    <linearGradient gradientTransform="matrix(-0.0023, -0.0069, 0.0058, -0.0019, 14.05, 82.7)" gradientUnits="userSpaceOnUse" id="gradient11" spreadMethod="pad" x1="-819.2" x2="819.2">
      <stop offset="0.0" stop-color="#000000"/>
      <stop offset="1.0" stop-color="#ffffff"/>
    </linearGradient>
    <linearGradient gradientTransform="matrix(-8.0E-4, -0.0058, 0.0017, -2.0E-4, 9.8, 83.9)" gradientUnits="userSpaceOnUse" id="gradient12" spreadMethod="pad" x1="-819.2" x2="819.2">
      <stop offset="0.0" stop-color="#000000"/>
      <stop offset="1.0" stop-color="#ffffff"/>
    </linearGradient>
    <linearGradient gradientTransform="matrix(5.0E-4, -0.0117, 0.0138, 6.0E-4, 45.6, 36.0)" gradientUnits="userSpaceOnUse" id="gradient13" spreadMethod="pad" x1="-819.2" x2="819.2">
      <stop offset="0.0" stop-color="#000000"/>
      <stop offset="1.0" stop-color="#ffffff"/>
    </linearGradient>
    <linearGradient gradientTransform="matrix(6.0E-4, -0.0072, 0.0083, 7.0E-4, 50.45, 22.7)" gradientUnits="userSpaceOnUse" id="gradient14" spreadMethod="pad" x1="-819.2" x2="819.2">
      <stop offset="0.0" stop-color="#000000"/>
      <stop offset="1.0" stop-color="#ffffff"/>
    </linearGradient>
    <linearGradient gradientTransform="matrix(0.0257, 0.0013, -0.0013, 0.0251, 61.6, 41.45)" gradientUnits="userSpaceOnUse" id="gradient15" spreadMethod="pad" x1="-819.2" x2="819.2">
      <stop offset="0.0" stop-color="#000000"/>
      <stop offset="1.0" stop-color="#ffffff"/>
    </linearGradient>
    <linearGradient gradientTransform="matrix(0.0166, 0.0, 0.0, 0.0206, 76.8, 34.95)" gradientUnits="userSpaceOnUse" id="gradient16" spreadMethod="pad" x1="-819.2" x2="819.2">
      <stop offset="0.0" stop-color="#000000"/>
      <stop offset="1.0" stop-color="#ffffff"/>
    </linearGradient>
    <linearGradient gradientTransform="matrix(0.0146, 0.0, 0.0, 0.0132, 63.6, 61.15)" gradientUnits="userSpaceOnUse" id="gradient17" spreadMethod="pad" x1="-819.2" x2="819.2">
      <stop offset="0.0" stop-color="#000000"/>
      <stop offset="1.0" stop-color="#ffffff"/>
    </linearGradient>
    <linearGradient gradientTransform="matrix(-0.001, -0.0113, 0.0103, -9.0E-4, 33.7, 42.4)" gradientUnits="userSpaceOnUse" id="gradient18" spreadMethod="pad" x1="-819.2" x2="819.2">
      <stop offset="0.0" stop-color="#000000"/>
      <stop offset="1.0" stop-color="#ffffff"/>
    </linearGradient>
    <linearGradient gradientTransform="matrix(0.0034, -0.0139, 0.01, 0.0024, 13.9, 90.05)" gradientUnits="userSpaceOnUse" id="gradient19" spreadMethod="pad" x1="-819.2" x2="819.2">
      <stop offset="0.0" stop-color="#000000"/>
      <stop offset="1.0" stop-color="#ffffff"/>
    </linearGradient>
    <linearGradient gradientTransform="matrix(-0.0126, -0.0098, 0.0147, -0.0187, 21.25, 61.9)" gradientUnits="userSpaceOnUse" id="gradient20" spreadMethod="pad" x1="-819.2" x2="819.2">
      <stop offset="0.0" stop-color="#000000"/>
      <stop offset="1.0" stop-color="#ffffff"/>
    </linearGradient>
    <linearGradient gradientTransform="matrix(0.0208, -0.0029, 0.0037, 0.0264, 67.2, 41.85)" gradientUnits="userSpaceOnUse" id="gradient21" spreadMethod="pad" x1="-819.2" x2="819.2">
      <stop offset="0.0" stop-color="#000000"/>
      <stop offset="1.0" stop-color="#ffffff"/>
    </linearGradient>
    <g id="shape2" transform="matrix(1.0, 0.0, 0.0, 1.0, 69.6, 58.1)">
      <path d="M-54.25 -57.35 L-54.25 -57.3 Q-54.25 -56.95 -55.75 -53.5 -60.9 -43.35 -63.0 -32.15 L-64.5 -23.95 -66.4 -11.55 Q-68.15 2.0 -66.1 15.35 -65.3 20.35 -63.75 24.95 -63.05 28.55 -60.45 29.8 L-58.1 30.35 -55.8 30.4 -54.7 30.4 Q-53.75 30.4 -53.3 30.05 -53.05 28.55 -52.25 28.55 -51.95 28.95 -51.85 29.85 L-51.85 29.9 -51.8 29.9 -51.5 31.05 -51.5 31.2 -51.25 31.7 -51.15 31.85 -50.5 32.65 -50.4 32.75 Q-49.75 33.25 -47.85 33.3 L-44.25 33.2 Q-39.95 33.2 -38.95 32.3 -38.75 32.1 -38.65 30.95 -38.85 29.35 -38.65 28.65 -38.35 27.55 -37.65 27.85 -37.0 28.15 -36.65 29.15 L-36.5 30.0 -36.45 30.0 -35.65 30.3 -30.0 30.05 -24.7 29.4 -24.35 29.25 -23.55 28.6 -22.75 27.45 Q-22.45 26.2 -22.25 23.3 L-24.3 23.0 -24.35 25.95 -24.35 26.25 -24.9 26.45 -25.45 25.75 -25.65 24.7 -25.6 22.8 -25.65 20.65 -25.6 19.05 -25.5 15.4 -24.85 11.3 Q-24.3 8.55 -23.5 6.75 L-23.0 5.75 Q-22.05 4.1 -21.0 4.4 L-20.9 4.85 -21.0 5.3 -20.65 5.25 -17.1 4.95 -14.35 4.65 -14.45 0.4 Q-14.6 -1.9 -17.85 -2.3 L-20.45 -2.65 -20.4 -1.6 -20.4 -1.1 Q-20.35 -0.85 -21.0 -0.85 -21.55 -0.85 -21.9 -1.85 -22.4 -3.05 -22.6 -5.75 L-22.75 -10.65 Q-22.75 -15.75 -22.1 -19.2 -21.55 -22.2 -19.5 -28.45 -17.45 -34.8 -16.1 -37.35 L-13.25 -41.85 Q-12.35 -43.1 -10.85 -44.2 L-10.3 -44.55 Q-8.9 -45.5 -8.9 -44.05 -8.9 -44.55 -11.45 -41.1 L-13.4 -38.2 -10.35 -39.75 -7.15 -41.4 Q-5.0 -42.15 -5.0 -40.7 -5.0 -39.15 -14.75 -35.7 L-15.75 -33.3 -19.1 -22.55 Q-20.4 -17.7 -20.6 -11.8 L-20.5 -3.85 -17.9 -3.95 -14.85 -3.55 -13.5 -2.5 Q-12.7 -1.65 -12.5 -0.35 L-12.45 1.7 Q-12.45 4.75 -12.6 5.25 -13.05 6.65 -15.15 6.65 L-21.5 6.45 -21.95 7.35 Q-23.1 9.6 -23.25 10.3 L-23.8 12.75 -24.2 15.5 -24.3 20.75 -24.3 21.55 -22.75 21.4 Q-20.5 21.5 -20.65 23.65 L-20.5 27.55 Q-20.5 29.15 -21.6 30.25 -22.9 31.55 -25.55 32.05 L-29.0 32.3 -36.4 31.9 Q-36.45 32.65 -36.65 33.2 L-37.25 34.0 -38.7 34.9 Q-40.7 35.65 -44.3 35.65 L-49.8 35.1 Q-51.7 34.55 -52.6 33.6 L-53.2 32.6 -54.55 32.7 -55.8 32.7 -58.2 32.85 Q-63.7 32.55 -65.9 26.8 L-66.5 24.95 Q-69.9 12.8 -69.6 0.15 -69.35 -12.0 -67.2 -23.95 -65.35 -34.45 -61.85 -44.5 -60.25 -49.1 -58.25 -53.5 -55.85 -58.1 -55.1 -58.1 L-54.55 -57.85 -54.5 -57.8 -54.25 -57.35" fill="#000000" fill-rule="evenodd" stroke="none"/>
      <path d="M-53.6 -57.35 L-53.85 -56.7 Q-58.4 -45.75 -60.3 -33.7 L-61.6 -24.9 Q-62.6 -18.2 -63.7 -6.65 -64.85 4.9 -63.55 13.95 -62.3 22.95 -61.5 25.95 L-60.45 29.8 Q-63.05 28.55 -63.75 24.95 -65.3 20.35 -66.1 15.35 -68.15 2.0 -66.4 -11.55 L-64.5 -23.95 -63.0 -32.15 Q-60.9 -43.35 -55.75 -53.5 -54.25 -56.95 -54.25 -57.3 L-54.25 -57.35 -53.6 -57.35 M-51.15 31.85 L-50.75 31.65 Q-50.5 32.0 -50.4 32.75 L-50.5 32.65 -51.15 31.85 M-24.35 29.25 L-24.1 26.0 -24.35 25.95 -24.3 23.0 -22.25 23.3 Q-22.45 26.2 -22.75 27.45 L-23.55 28.6 -24.35 29.25 M-25.45 25.75 L-25.8 25.65 -26.25 25.4 -26.65 24.95 -26.9 24.45 -27.1 23.3 -27.1 23.15 -27.1 21.4 -27.0 17.5 -26.4 13.05 Q-25.9 10.1 -25.2 8.15 -24.15 5.25 -23.0 5.65 L-23.0 5.75 -23.5 6.75 Q-24.3 8.55 -24.85 11.3 L-25.5 15.4 -25.6 19.05 -25.65 20.65 -25.6 22.8 -25.65 24.7 -25.45 25.75 M-17.1 4.95 L-17.2 1.35 Q-17.3 -1.15 -20.2 -1.6 L-20.4 -1.6 -20.45 -2.65 -17.85 -2.3 Q-14.6 -1.9 -14.45 0.4 L-14.35 4.65 -17.1 4.95 M-21.9 -1.85 L-22.5 -1.95 -23.75 -2.5 -24.15 -2.85 -24.4 -5.3 -24.55 -10.55 Q-24.55 -16.05 -23.95 -19.75 -23.5 -23.0 -21.65 -29.7 -19.85 -36.55 -18.65 -39.3 -17.6 -41.8 -16.1 -44.15 L-14.0 -46.7 -13.9 -46.75 -10.3 -44.55 -10.85 -44.2 Q-12.35 -43.1 -13.25 -41.85 L-16.1 -37.35 Q-17.45 -34.8 -19.5 -28.45 -21.55 -22.2 -22.1 -19.2 -22.75 -15.75 -22.75 -10.65 L-22.6 -5.75 Q-22.4 -3.05 -21.9 -1.85" fill="#bdbdbd" fill-rule="evenodd" stroke="none"/>
      <path d="M-60.45 29.8 L-61.5 25.95 Q-62.3 22.95 -63.55 13.95 -64.85 4.9 -63.7 -6.65 -62.6 -18.2 -61.6 -24.9 L-60.3 -33.7 Q-58.4 -45.75 -53.85 -56.7 L-53.6 -57.35 Q-32.0 -57.15 -13.9 -46.75 L-14.0 -46.7 -16.1 -44.15 Q-17.6 -41.8 -18.65 -39.3 -19.85 -36.55 -21.65 -29.7 -23.5 -23.0 -23.95 -19.75 -24.55 -16.05 -24.55 -10.55 L-24.4 -5.3 -24.15 -2.85 -23.75 -2.5 -22.5 -1.95 -21.9 -1.85 Q-21.55 -0.85 -21.0 -0.85 -20.35 -0.85 -20.4 -1.1 L-20.4 -1.6 -20.2 -1.6 Q-17.3 -1.15 -17.2 1.35 L-17.1 4.95 -20.65 5.25 -21.0 5.3 -20.9 4.85 -21.0 4.4 Q-22.05 4.1 -23.0 5.75 L-23.0 5.65 Q-24.15 5.25 -25.2 8.15 -25.9 10.1 -26.4 13.05 L-27.0 17.5 -27.1 21.4 -27.1 23.15 -27.1 23.3 -26.9 24.45 -26.65 24.95 -26.25 25.4 -25.8 25.65 -25.45 25.75 -24.9 26.45 -24.35 26.25 -24.35 25.95 -24.1 26.0 -24.35 29.25 -24.7 29.4 -30.0 30.05 -35.65 30.3 -36.45 30.0 -36.5 30.0 -36.65 29.15 Q-37.0 28.15 -37.65 27.85 -38.35 27.55 -38.65 28.65 -38.85 29.35 -38.65 30.95 -38.75 32.1 -38.95 32.3 -39.95 33.2 -44.25 33.2 L-47.85 33.3 Q-49.75 33.25 -50.4 32.75 -50.5 32.0 -50.75 31.65 L-51.15 31.85 -51.25 31.7 -51.5 31.2 -51.5 31.05 -51.8 29.9 -51.85 29.9 -51.85 29.85 Q-51.95 28.95 -52.25 28.55 -53.05 28.55 -53.3 30.05 -53.75 30.4 -54.7 30.4 L-55.8 30.4 -58.1 30.35 -60.45 29.8" fill="#999999" fill-rule="evenodd" stroke="none"/>
    </g>
  </defs>
</svg>
