<?xml version="1.0" encoding="UTF-8" standalone="no"?>
<svg xmlns:xlink="http://www.w3.org/1999/xlink" height="531.5px" width="460.6px" xmlns="http://www.w3.org/2000/svg">
  <g transform="matrix(1.0, 0.0, 0.0, 1.0, 193.65, 334.05)">
    <use height="24.35" transform="matrix(1.0, 0.0, 0.0, 1.0, -3.6, -156.4)" width="83.95" xlink:href="#shape0"/>
    <use height="23.35" transform="matrix(1.0, 0.0, 0.0, 1.0, 4.7, -155.9)" width="75.15" xlink:href="#sprite0"/>
  </g>
  <defs>
    <g id="shape0" transform="matrix(1.0, 0.0, 0.0, 1.0, 3.6, 156.4)">
      <path d="M5.2 -148.05 Q6.0 -151.85 8.25 -154.45 L10.8 -155.0 16.95 -155.75 21.35 -155.9 27.7 -155.65 37.05 -151.65 44.75 -148.4 54.0 -149.5 59.5 -150.2 64.45 -151.4 Q77.7 -154.55 79.85 -154.1 L79.25 -153.4 73.0 -149.75 Q69.1 -147.35 65.1 -145.2 L65.05 -145.15 61.8 -143.45 Q55.7 -140.25 49.5 -137.35 45.95 -136.2 42.1 -136.25 L36.8 -136.4 30.1 -136.95 26.15 -137.2 Q18.8 -137.95 11.8 -140.6 10.3 -141.15 9.15 -142.0 8.15 -142.85 7.4 -143.95 6.05 -145.9 5.2 -148.05 M25.8 -143.45 Q25.7 -140.2 26.15 -137.2 25.7 -140.2 25.8 -143.45 M20.75 -151.7 L21.35 -155.9 20.75 -151.7 M64.9 -146.2 L65.1 -145.2 64.9 -146.2 M44.75 -145.1 L44.75 -148.4 44.75 -145.1 M54.1 -142.1 Q53.65 -145.4 54.0 -149.5 53.65 -145.4 54.1 -142.1 M14.7 -144.2 Q14.75 -149.85 16.95 -155.75 14.75 -149.85 14.7 -144.2 M36.15 -145.7 Q36.35 -148.65 37.05 -151.65 36.35 -148.65 36.15 -145.7" fill="#ff9900" fill-rule="evenodd" stroke="none"/>
      <path d="M79.25 -153.4 Q75.1 -148.95 65.8 -142.7 L58.35 -137.95 57.65 -137.55 55.85 -136.3 Q52.55 -134.3 48.65 -133.25 L44.95 -132.55 37.6 -132.9 26.9 -133.7 16.15 -134.7 10.9 -135.3 8.0 -135.7 Q4.3 -139.55 4.75 -144.35 L4.9 -145.9 4.9 -145.95 4.9 -146.0 5.2 -148.05 Q6.05 -145.9 7.4 -143.95 8.15 -142.85 9.15 -142.0 10.3 -141.15 11.8 -140.6 18.8 -137.95 26.15 -137.2 26.4 -135.4 26.9 -133.7 26.4 -135.4 26.15 -137.2 L30.1 -136.95 36.8 -136.4 42.1 -136.25 Q45.95 -136.2 49.5 -137.35 55.7 -140.25 61.8 -143.45 L65.05 -145.15 65.15 -144.95 65.2 -144.85 65.8 -142.7 65.2 -144.85 65.15 -144.95 65.1 -145.2 Q69.1 -147.35 73.0 -149.75 L79.25 -153.4 M37.6 -132.9 L36.8 -136.4 37.6 -132.9 M10.9 -135.3 Q9.3 -138.2 9.15 -142.0 9.3 -138.2 10.9 -135.3 M48.65 -133.25 L48.15 -135.6 48.65 -133.25" fill="#cc7900" fill-rule="evenodd" stroke="none"/>
      <path d="M5.2 -148.05 Q6.0 -151.85 8.25 -154.45 L10.8 -155.0 16.95 -155.75 21.35 -155.9 27.7 -155.65 37.05 -151.65 44.75 -148.4 54.0 -149.5 59.5 -150.2 64.45 -151.4 Q77.7 -154.55 79.85 -154.1 L79.25 -153.4 Q75.1 -148.95 65.8 -142.7 L58.35 -137.95 57.65 -137.55 55.85 -136.3 Q52.55 -134.3 48.65 -133.25 L44.95 -132.55 37.6 -132.9 26.9 -133.7 16.15 -134.7 10.9 -135.3 8.0 -135.7 Q4.3 -139.55 4.75 -144.35 L4.9 -145.9 Q2.85 -140.4 -2.65 -141.25 -1.9 -143.9 -0.05 -145.1 -1.8 -145.95 -3.1 -148.7 1.55 -150.4 4.9 -146.0 L5.2 -148.05 M26.15 -137.2 Q25.7 -140.2 25.8 -143.45 M21.35 -155.9 L20.75 -151.7 M26.15 -137.2 Q26.4 -135.4 26.9 -133.7 M36.8 -136.4 L37.6 -132.9 M65.1 -145.2 L64.9 -146.2 M4.9 -145.9 L4.9 -145.95 Q2.05 -144.1 -0.05 -145.1 1.85 -146.35 4.9 -146.0 L4.9 -145.95 M9.15 -142.0 Q9.3 -138.2 10.9 -135.3 M65.15 -144.95 L65.2 -144.85 65.8 -142.7 M65.1 -145.2 L65.15 -144.95 M44.75 -148.4 L44.75 -145.1 M48.15 -135.6 L48.65 -133.25 M37.05 -151.65 Q36.35 -148.65 36.15 -145.7 M16.95 -155.75 Q14.75 -149.85 14.7 -144.2 M54.0 -149.5 Q53.65 -145.4 54.1 -142.1" fill="none" stroke="#000000" stroke-linecap="round" stroke-linejoin="round" stroke-opacity="0.6627451" stroke-width="1.0"/>
    </g>
    <g id="sprite0" transform="matrix(1.0, 0.0, 0.0, 1.0, 33.65, 11.7)">
      <use height="23.35" transform="matrix(1.0, 0.0, 0.0, 1.0, -33.65, -11.7)" width="75.15" xlink:href="#shape1"/>
    </g>
    <g id="shape1" transform="matrix(1.0, 0.0, 0.0, 1.0, 33.65, 11.7)">
      <path d="M26.1 -7.2 Q39.35 -10.35 41.5 -9.9 L40.9 -9.2 Q36.75 -4.75 27.45 1.5 L20.0 6.25 19.3 6.65 17.5 7.9 Q14.2 9.9 10.3 10.95 L6.6 11.65 -0.75 11.3 -11.45 10.5 -22.2 9.5 -27.45 8.9 -30.35 8.5 Q-34.05 4.65 -33.6 -0.15 L-33.45 -1.7 -33.45 -1.8 -33.15 -3.85 Q-32.35 -7.65 -30.1 -10.25 L-27.55 -10.8 -21.4 -11.55 -17.0 -11.7 -10.65 -11.45 6.4 -4.2 21.15 -6.0 26.1 -7.2 M26.8 -0.75 L26.75 -1.0 26.7 -0.95 26.8 -0.75" fill="url(#gradient0)" fill-rule="evenodd" stroke="none"/>
    </g>
    <linearGradient gradientTransform="matrix(0.0459, 0.0, 0.0, 0.0143, 3.9, -0.05)" gradientUnits="userSpaceOnUse" id="gradient0" spreadMethod="pad" x1="-819.2" x2="819.2">
      <stop offset="0.0" stop-color="#000000"/>
      <stop offset="1.0" stop-color="#ffffff"/>
    </linearGradient>
  </defs>
</svg>
