<?xml version="1.0" encoding="UTF-8" standalone="no"?>
<svg xmlns:xlink="http://www.w3.org/1999/xlink" height="531.5px" width="460.6px" xmlns="http://www.w3.org/2000/svg">
  <g transform="matrix(1.0, 0.0, 0.0, 1.0, 193.65, 334.05)">
    <use height="99.9" transform="matrix(1.0, 0.0, 0.0, 1.0, -74.75, -49.7)" width="223.85" xlink:href="#shape0"/>
    <use height="121.9" transform="matrix(0.8113, 0.0, 0.0, 0.8113, -74.9077, -49.2493)" width="275.5" xlink:href="#sprite0"/>
    <use height="93.75" transform="matrix(1.0, 0.0, 0.0, 1.0, -72.65, -60.7)" width="64.6" xlink:href="#shape2"/>
  </g>
  <defs>
    <g id="shape0" transform="matrix(1.0, 0.0, 0.0, 1.0, 74.75, 49.7)">
      <path d="M29.45 -20.25 L24.25 -15.95 Q39.5 -19.85 49.75 -12.9 L49.35 -10.5 Q49.25 -10.05 49.4 -9.6 L49.9 -8.95 Q50.25 -8.75 50.7 -8.7 51.1 -8.65 51.5 -8.9 L55.9 -11.25 60.4 -8.9 61.1 -8.7 61.95 -8.95 62.5 -9.6 62.55 -10.5 62.25 -12.05 69.4 -11.7 79.5 -11.4 89.05 -11.5 98.4 -11.7 104.0 -11.35 113.75 -12.15 123.05 -13.15 Q122.25 -13.75 119.5 -13.85 L115.5 -14.0 111.8 -14.8 107.2 -15.4 105.7 -15.35 Q106.65 -18.85 108.6 -20.55 110.95 -22.7 114.4 -22.7 117.85 -22.7 120.15 -20.35 L120.15 -20.75 Q119.5 -21.4 119.5 -22.5 L119.55 -23.75 133.75 -23.75 133.75 -23.7 Q132.5 -23.55 131.4 -22.9 127.65 -20.9 124.7 -14.05 122.05 -7.75 121.15 0.3 120.7 3.8 120.65 7.75 L120.65 9.3 120.85 14.85 Q115.7 23.5 108.15 24.95 L102.75 26.25 95.75 26.4 82.1 26.6 74.1 26.4 63.8 26.1 54.95 26.1 50.35 26.6 50.2 26.8 52.35 27.7 52.7 27.85 53.4 28.1 54.15 28.55 38.9 27.85 Q29.4 26.9 23.25 24.3 16.9 21.6 10.5 19.25 L10.15 19.1 8.35 18.4 7.55 18.15 7.55 18.8 Q-3.05 14.8 -8.75 13.85 -17.5 12.3 -37.6 12.3 -44.5 12.3 -58.45 14.95 -67.9 16.7 -73.1 18.3 -76.75 8.8 -69.05 -2.0 -46.6 -0.5 -18.1 -2.0 L7.55 -13.25 10.15 -13.85 12.85 -14.7 29.45 -20.25 M42.15 19.4 Q33.65 19.1 24.25 19.1 16.55 19.05 10.5 19.25 16.55 19.05 24.25 19.1 33.65 19.1 42.15 19.4 M87.3 0.75 L85.6 -0.5 Q83.45 -2.45 81.25 -7.6 L80.9 -7.45 78.85 -4.35 Q77.9 -3.3 76.25 -2.9 74.6 -2.55 72.2 -2.95 69.7 -3.35 63.25 -5.35 69.0 -1.3 71.55 1.55 L70.7 1.75 69.0 2.1 64.05 0.95 59.05 -0.25 Q56.8 -0.25 55.5 0.6 L54.2 1.4 50.35 0.95 45.85 0.5 Q43.5 0.5 38.95 3.35 L38.2 3.55 35.7 4.6 46.3 5.05 60.7 5.4 69.9 5.0 73.6 4.8 Q74.0 6.55 73.3 9.65 72.7 12.3 71.9 13.65 L72.2 13.55 Q72.65 12.65 74.0 12.15 L76.55 11.35 Q79.75 10.55 82.35 11.9 85.15 13.25 86.0 16.5 L86.15 18.4 Q86.15 19.65 85.85 20.1 88.15 18.15 89.05 17.9 91.45 17.25 95.55 18.35 97.45 18.8 99.85 20.55 100.05 16.5 102.35 14.45 L104.2 13.2 105.5 12.65 104.5 12.75 104.5 12.7 Q105.3 11.35 104.85 9.85 104.5 8.3 103.1 7.55 101.75 6.75 100.2 7.2 98.7 7.6 97.95 8.9 97.3 10.05 97.4 11.3 L97.35 11.3 Q94.65 9.55 93.75 6.25 L93.45 4.45 97.75 4.4 118.6 2.45 118.6 2.25 116.35 0.35 Q115.05 -0.55 113.45 -0.55 L110.8 -0.05 108.55 0.5 103.2 -0.75 Q98.9 -1.85 96.7 -1.85 94.65 -1.85 91.2 -0.85 87.9 0.05 87.3 0.75 M17.15 8.55 L13.7 8.7 10.15 8.85 13.7 8.7 17.15 8.55" fill="#994013" fill-rule="evenodd" stroke="none"/>
      <path d="M49.75 -12.9 Q39.5 -19.85 24.25 -15.95 L29.45 -20.25 34.15 -24.2 25.4 -31.75 Q45.5 -32.35 52.8 -23.75 L53.0 -23.5 52.4 -22.2 47.45 -21.5 46.65 -21.1 Q46.3 -20.85 46.2 -20.45 L46.15 -19.6 Q46.25 -19.15 46.55 -18.85 L50.15 -15.35 49.75 -12.9 50.15 -15.35 46.55 -18.85 Q46.25 -19.15 46.15 -19.6 L46.2 -20.45 Q46.3 -20.85 46.65 -21.1 L47.45 -21.5 52.4 -22.2 53.0 -23.5 53.15 -23.75 54.6 -26.65 55.1 -27.25 55.9 -27.45 56.75 -27.25 57.25 -26.65 58.7 -23.75 59.45 -22.2 64.45 -21.5 65.15 -21.1 65.65 -20.45 65.65 -19.6 65.25 -18.85 61.65 -15.35 62.1 -13.0 62.25 -12.05 62.55 -10.5 62.5 -9.6 61.95 -8.95 61.1 -8.7 60.4 -8.9 55.9 -11.25 51.5 -8.9 Q51.1 -8.65 50.7 -8.7 50.25 -8.75 49.9 -8.95 L49.4 -9.6 Q49.25 -10.05 49.35 -10.5 L49.75 -12.9 M117.85 42.4 L116.25 45.55 115.75 46.05 115.15 46.25 114.5 46.05 114.1 45.55 112.8 43.0 Q106.95 50.2 90.55 49.65 L97.6 43.55 96.15 42.4 89.65 36.95 Q101.95 40.1 110.15 34.5 L109.9 32.5 Q109.75 32.15 109.9 31.85 L110.3 31.3 110.95 31.1 111.6 31.25 115.15 33.1 118.75 31.25 Q118.95 31.1 119.3 31.1 L120.0 31.3 120.4 31.85 120.45 32.5 119.8 36.45 122.65 39.25 123.05 39.9 123.0 40.5 122.6 41.1 122.05 41.4 118.05 41.95 117.85 42.4 M110.15 34.5 L110.55 36.45 107.6 39.25 107.3 39.9 107.3 40.5 107.7 41.1 108.3 41.4 112.3 41.95 112.55 42.4 112.8 43.0 112.55 42.4 112.3 41.95 108.3 41.4 107.7 41.1 107.3 40.5 107.3 39.9 107.6 39.25 110.55 36.45 110.15 34.5" fill="#ffcc00" fill-rule="evenodd" stroke="none"/>
      <path d="M80.3 -23.75 Q79.65 -25.7 77.55 -26.75 75.2 -27.9 70.35 -28.25 L70.35 -28.5 72.65 -31.2 Q73.3 -32.35 73.2 -33.9 73.15 -35.45 72.25 -37.3 71.35 -39.25 67.95 -44.05 76.1 -38.3 79.15 -38.6 80.85 -38.8 83.45 -40.35 85.6 -41.8 86.6 -42.9 L86.6 -42.6 Q85.85 -41.9 85.75 -40.6 L85.65 -38.2 Q85.65 -35.3 87.45 -33.5 89.3 -31.65 92.3 -31.95 L94.0 -32.35 Q95.1 -32.85 95.45 -33.2 94.2 -30.7 94.2 -29.8 94.2 -28.05 95.4 -25.75 94.95 -25.55 94.6 -25.2 L93.85 -24.05 93.7 -23.75 93.5 -22.5 Q93.5 -20.95 94.6 -19.85 L95.5 -19.15 Q93.6 -17.2 93.5 -14.3 92.7 -19.0 90.45 -20.75 88.35 -22.4 85.25 -22.05 82.15 -21.8 80.1 -19.45 L80.1 -19.8 Q80.7 -20.35 80.7 -21.45 80.7 -22.7 80.3 -23.75 M102.1 -23.75 L102.25 -24.0 Q104.3 -27.8 104.3 -30.25 104.3 -31.25 103.0 -33.9 103.4 -33.5 104.6 -33.2 L106.45 -32.9 Q109.9 -32.9 111.9 -35.2 113.85 -37.4 113.85 -40.65 L113.8 -43.3 Q113.65 -44.7 112.9 -45.45 L112.9 -45.75 Q114.05 -44.6 116.4 -43.3 119.25 -41.8 121.1 -41.8 124.55 -41.8 133.55 -49.2 129.9 -43.45 128.9 -41.15 127.9 -38.95 127.75 -37.2 127.7 -35.55 128.45 -34.35 L130.95 -31.55 130.95 -31.25 Q125.5 -30.4 123.0 -28.85 120.0 -27.0 119.55 -23.75 L119.5 -22.5 Q119.5 -21.4 120.15 -20.75 L120.15 -20.35 Q117.85 -22.7 114.4 -22.7 110.95 -22.7 108.6 -20.55 106.65 -18.85 105.7 -15.35 105.35 -14.3 105.15 -13.0 L104.75 -15.35 103.85 -15.2 103.9 -15.9 Q103.9 -16.9 103.5 -17.65 L102.8 -18.6 Q102.05 -19.3 101.1 -19.6 L100.2 -20.05 101.1 -19.6 100.15 -19.7 99.8 -19.65 99.95 -19.85 100.2 -20.05 Q101.05 -21.05 101.05 -22.45 L102.1 -23.75 M78.6 -34.7 L93.85 -24.05 78.6 -34.7 M71.55 1.55 Q69.0 -1.3 63.25 -5.35 69.7 -3.35 72.2 -2.95 74.6 -2.55 76.25 -2.9 77.9 -3.3 78.85 -4.35 L80.9 -7.45 81.25 -7.6 Q83.45 -2.45 85.6 -0.5 L87.3 0.75 Q89.65 2.1 92.6 1.3 93.75 1.0 94.2 0.2 L94.45 0.1 Q93.35 2.15 93.45 4.45 L93.75 6.25 Q94.65 9.55 97.35 11.3 L97.4 11.3 97.4 11.35 97.55 11.75 Q98.0 13.35 99.35 14.1 100.65 14.9 102.15 14.5 L102.35 14.45 Q100.05 16.5 99.85 20.55 97.45 18.8 95.55 18.35 91.45 17.25 89.05 17.9 88.15 18.15 85.85 20.1 86.15 19.65 86.15 18.4 L86.0 16.5 Q85.15 13.25 82.35 11.9 79.75 10.55 76.55 11.35 L74.0 12.15 Q72.65 12.65 72.2 13.55 L71.9 13.65 Q72.7 12.3 73.3 9.65 74.0 6.55 73.6 4.8 L73.55 4.7 Q73.2 3.4 71.55 1.55 M104.5 12.75 L105.5 12.65 104.2 13.2 104.5 12.75 M105.7 -15.35 L104.75 -15.35 103.5 -17.65 104.75 -15.35 105.7 -15.35 M121.8 -37.55 L105.0 -24.1 121.8 -37.55 M77.5 2.95 L94.9 15.6 77.5 2.95" fill="#336600" fill-rule="evenodd" stroke="none"/>
      <path d="M62.1 -13.0 L61.65 -15.35 65.25 -18.85 65.65 -19.6 65.65 -20.45 65.15 -21.1 64.45 -21.5 59.45 -22.2 58.7 -23.75 80.3 -23.75 Q80.7 -22.7 80.7 -21.45 80.7 -20.35 80.1 -19.8 L80.1 -19.45 Q82.15 -21.8 85.25 -22.05 88.35 -22.4 90.45 -20.75 92.7 -19.0 93.5 -14.3 93.6 -17.2 95.5 -19.15 96.3 -18.7 97.3 -18.7 L97.6 -18.7 97.4 -18.6 Q96.35 -17.5 96.35 -15.9 96.35 -14.75 96.95 -13.9 L94.45 -13.45 Q93.55 -13.45 91.8 -14.1 L88.05 -14.75 83.15 -14.35 79.25 -14.0 73.7 -14.75 70.55 -15.4 Q69.4 -15.4 66.6 -14.6 L65.6 -14.25 64.2 -13.65 63.45 -13.55 63.25 -13.45 62.1 -13.0" fill="#993300" fill-rule="evenodd" stroke="none"/>
      <path d="M42.6 42.4 L42.25 42.6 40.85 43.4 Q38.8 44.6 36.75 44.6 32.3 44.6 27.8 40.25 25.1 37.75 24.0 35.55 23.55 34.75 23.4 33.95 L23.15 33.45 22.9 32.75 23.9 32.75 Q26.45 33.65 31.65 35.8 36.4 37.5 40.85 37.5 L47.65 36.95 49.1 36.75 55.4 36.35 59.75 36.6 63.15 36.85 66.0 36.45 68.8 35.8 71.1 35.8 71.1 36.15 Q70.05 38.45 64.5 40.25 59.75 41.8 54.55 42.05 L52.85 42.1 Q48.1 42.1 46.45 41.4 45.55 40.55 44.95 40.55 L42.6 42.4 M62.25 -12.05 L62.1 -13.0 63.25 -13.45 63.45 -13.55 64.2 -13.65 65.6 -14.25 66.6 -14.6 Q69.4 -15.4 70.55 -15.4 L73.7 -14.75 79.25 -14.0 83.15 -14.35 88.05 -14.75 91.8 -14.1 Q93.55 -13.45 94.45 -13.45 L96.95 -13.9 97.4 -13.25 Q98.6 -12.15 100.15 -12.15 101.7 -12.15 102.8 -13.25 103.65 -14.15 103.85 -15.2 L104.75 -15.35 105.15 -13.0 Q105.35 -14.3 105.7 -15.35 L107.2 -15.4 111.8 -14.8 115.5 -14.0 119.5 -13.85 Q122.25 -13.75 123.05 -13.15 L113.75 -12.15 104.0 -11.35 98.4 -11.7 89.05 -11.5 79.5 -11.4 69.4 -11.7 62.25 -12.05 M87.3 0.75 Q87.9 0.05 91.2 -0.85 94.65 -1.85 96.7 -1.85 98.9 -1.85 103.2 -0.75 L108.55 0.5 110.8 -0.05 113.45 -0.55 Q115.05 -0.55 116.35 0.35 L118.6 2.25 118.6 2.45 97.75 4.4 93.45 4.45 Q93.35 2.15 94.45 0.1 L94.2 0.2 Q93.75 1.0 92.6 1.3 89.65 2.1 87.3 0.75 M73.6 4.8 L69.9 5.0 60.7 5.4 46.3 5.05 35.7 4.6 38.2 3.55 38.95 3.35 Q43.5 0.5 45.85 0.5 L50.35 0.95 54.2 1.4 55.5 0.6 Q56.8 -0.25 59.05 -0.25 L64.05 0.95 69.0 2.1 70.7 1.75 71.55 1.55 Q73.2 3.4 73.55 4.7 L73.6 4.8 M102.75 26.25 L111.2 26.1 111.55 26.1 116.15 26.3 Q118.1 26.55 118.1 27.65 118.1 28.4 115.5 29.1 L110.0 29.8 105.75 29.55 102.5 29.25 Q101.05 29.25 96.4 31.3 91.7 33.35 86.6 33.35 81.85 33.35 75.7 31.4 L69.25 29.35 Q67.95 29.35 66.15 30.1 64.2 30.7 61.65 30.7 57.6 30.7 56.25 30.0 L54.15 28.55 53.4 28.1 52.7 27.85 52.35 27.7 50.2 26.8 50.35 26.6 54.95 26.1 63.8 26.1 74.1 26.4 82.1 26.6 95.75 26.4 102.75 26.25" fill="#692507" fill-rule="evenodd" stroke="none"/>
      <path d="M95.4 -25.75 Q96.25 -26.3 97.3 -26.3 98.85 -26.3 99.95 -25.2 L100.9 -23.75 101.05 -22.5 101.05 -22.45 Q101.05 -21.05 100.2 -20.05 L99.95 -19.85 99.8 -19.65 100.15 -19.7 101.1 -19.6 Q102.05 -19.3 102.8 -18.6 L103.5 -17.65 Q103.9 -16.9 103.9 -15.9 L103.85 -15.2 Q103.65 -14.15 102.8 -13.25 101.7 -12.15 100.15 -12.15 98.6 -12.15 97.4 -13.25 L96.95 -13.9 Q96.35 -14.75 96.35 -15.9 96.35 -17.5 97.4 -18.6 L97.6 -18.7 97.3 -18.7 Q96.3 -18.7 95.5 -19.15 L94.6 -19.85 Q93.5 -20.95 93.5 -22.5 L93.7 -23.75 93.85 -24.05 94.6 -25.2 Q94.95 -25.55 95.4 -25.75 M97.4 11.3 Q97.3 10.05 97.95 8.9 98.7 7.6 100.2 7.2 101.75 6.75 103.1 7.55 104.5 8.3 104.85 9.85 105.3 11.35 104.5 12.7 L104.5 12.75 104.2 13.2 102.35 14.45 102.15 14.5 Q100.65 14.9 99.35 14.1 98.0 13.35 97.55 11.75 L97.4 11.35 97.4 11.3 M99.8 -19.65 Q98.5 -19.6 97.6 -18.7 98.5 -19.6 99.8 -19.65 M101.1 -19.6 Q102.55 -18.8 103.5 -17.65 102.55 -18.8 101.1 -19.6" fill="#cc0000" fill-rule="evenodd" stroke="none"/>
      <path d="M134.1 -23.75 L134.6 -23.75 Q140.4 -23.75 144.5 -14.05 L145.35 -11.75 143.35 -13.85 Q141.5 -15.65 138.75 -16.55 L134.6 -17.25 Q129.1 -17.25 124.2 -7.45 122.25 -3.6 121.15 0.3 122.05 -7.75 124.7 -14.05 127.65 -20.9 131.4 -22.9 132.5 -23.55 133.75 -23.7 L134.1 -23.75" fill="#fab372" fill-rule="evenodd" stroke="none"/>
      <path d="M145.35 -11.75 Q148.2 -3.8 148.55 6.7 146.1 17.15 144.5 21.1 L143.1 23.85 Q145.05 17.5 145.05 9.3 145.05 -0.8 142.0 -8.05 145.05 -0.8 145.05 9.3 145.05 17.5 143.1 23.85 140.2 28.35 135.15 28.35 129.5 28.35 125.6 22.05 124.5 20.3 123.55 17.95 122.55 15.6 121.85 13.0 L121.3 13.95 120.85 14.85 120.65 9.3 120.65 7.75 Q120.7 3.8 121.15 0.3 122.25 -3.6 124.2 -7.45 129.1 -17.25 134.6 -17.25 L138.75 -16.55 Q141.5 -15.65 143.35 -13.85 L145.35 -11.75 M139.9 -11.95 Q137.55 -15.35 134.35 -15.35 130.2 -15.15 127.25 -8.1 124.3 -1.2 124.1 8.3 L124.1 9.3 Q124.1 16.4 125.6 22.05 124.1 16.4 124.1 9.3 L124.1 8.3 Q124.3 -1.2 127.25 -8.1 130.2 -15.15 134.35 -15.35 137.55 -15.35 139.9 -11.95 M128.1 17.1 Q128.6 19.4 129.45 21.4 131.55 26.25 134.4 26.45 137.55 26.45 139.7 21.4 141.8 16.4 141.8 9.3 141.8 2.25 139.7 -2.7 137.55 -7.75 134.4 -7.75 131.55 -7.6 129.45 -2.7 127.6 1.6 127.35 7.55 127.6 1.6 129.45 -2.7 131.55 -7.6 134.4 -7.75 137.55 -7.75 139.7 -2.7 141.8 2.25 141.8 9.3 141.8 16.4 139.7 21.4 137.55 26.45 134.4 26.45 131.55 26.25 129.45 21.4 128.6 19.4 128.1 17.1 M138.7 3.4 L138.0 1.3 Q136.75 -1.6 134.95 -1.95 136.75 -1.6 138.0 1.3 L138.7 3.4 M136.35 19.95 Q137.2 19.1 137.85 17.6 137.2 19.1 136.35 19.95 M130.25 14.5 Q130.6 16.0 131.2 17.35 131.95 19.1 132.9 20.0 131.95 19.1 131.2 17.35 130.6 16.0 130.25 14.5" fill="#e39b5a" fill-rule="evenodd" stroke="none"/>
      <path d="M148.55 6.7 L148.6 9.3 Q148.6 23.05 144.5 32.7 140.4 42.4 134.6 42.4 L134.25 42.4 Q128.7 42.1 124.7 32.7 121.5 25.05 120.85 14.85 L121.3 13.95 121.85 13.0 Q122.55 15.6 123.55 17.95 124.5 20.3 125.6 22.05 129.5 28.35 135.15 28.35 140.2 28.35 143.1 23.85 L144.5 21.1 Q146.1 17.15 148.55 6.7 M125.6 22.05 Q126.25 24.6 127.25 26.8 130.2 33.85 134.35 34.05 138.9 34.05 142.0 26.8 L143.1 23.85 142.0 26.8 Q138.9 34.05 134.35 34.05 130.2 33.85 127.25 26.8 126.25 24.6 125.6 22.05" fill="#c98750" fill-rule="evenodd" stroke="none"/>
      <path d="M-73.1 18.3 Q-67.9 16.7 -58.45 14.95 -44.5 12.3 -37.6 12.3 -17.5 12.3 -8.75 13.85 -3.05 14.8 7.55 18.8 L7.55 18.15 8.35 18.4 10.15 19.1 10.5 19.25 Q16.9 21.6 23.25 24.3 29.4 26.9 38.9 27.85 L54.15 28.55 56.25 30.0 Q57.6 30.7 61.65 30.7 64.2 30.7 66.15 30.1 67.95 29.35 69.25 29.35 L75.7 31.4 Q81.85 33.35 86.6 33.35 91.7 33.35 96.4 31.3 101.05 29.25 102.5 29.25 L105.75 29.55 110.0 29.8 115.5 29.1 Q118.1 28.4 118.1 27.65 118.1 26.55 116.15 26.3 L111.55 26.1 111.2 26.1 102.75 26.25 108.15 24.95 Q115.7 23.5 120.85 14.85 121.5 25.05 124.7 32.7 128.7 42.1 134.25 42.4 L117.85 42.4 118.05 41.95 122.05 41.4 122.6 41.1 123.0 40.5 123.05 39.9 122.65 39.25 119.8 36.45 120.45 32.5 120.4 31.85 120.0 31.3 119.3 31.1 Q118.95 31.1 118.75 31.25 L115.15 33.1 111.6 31.25 110.95 31.1 110.3 31.3 109.9 31.85 Q109.75 32.15 109.9 32.5 L110.15 34.5 Q101.95 40.1 89.65 36.95 L96.15 42.4 42.6 42.4 44.95 40.55 Q45.55 40.55 46.45 41.4 48.1 42.1 52.85 42.1 L54.55 42.05 Q59.75 41.8 64.5 40.25 70.05 38.45 71.1 36.15 L71.1 35.8 68.8 35.8 66.0 36.45 63.15 36.85 59.75 36.6 55.4 36.35 49.1 36.75 47.65 36.95 40.85 37.5 Q36.4 37.5 31.65 35.8 26.45 33.65 23.9 32.75 L22.9 32.75 23.15 33.45 23.15 33.55 23.4 33.95 Q23.55 34.75 24.0 35.55 15.0 31.15 10.15 30.65 L8.9 30.6 7.55 30.7 Q-2.45 26.7 -18.1 24.95 -43.0 22.65 -69.05 24.95 -71.8 21.7 -73.1 18.3 M9.15 19.25 L10.15 19.25 10.5 19.25 10.15 19.25 9.15 19.25 M8.75 19.25 L7.55 19.3 8.75 19.25" fill="#822d02" fill-rule="evenodd" stroke="none"/>
      <path d="M29.45 -20.25 L24.25 -15.95 Q39.5 -19.85 49.75 -12.9 L50.15 -15.35 46.55 -18.85 Q46.25 -19.15 46.15 -19.6 L46.2 -20.45 Q46.3 -20.85 46.65 -21.1 L47.45 -21.5 52.4 -22.2 53.0 -23.5 52.8 -23.75 Q45.5 -32.35 25.4 -31.75 L34.15 -24.2 29.45 -20.25 12.85 -14.7 10.15 -13.85 7.55 -13.25 -18.1 -2.0 Q-46.6 -0.5 -69.05 -2.0 -76.75 8.8 -73.1 18.3 -71.8 21.7 -69.05 24.95 -43.0 22.65 -18.1 24.95 -2.45 26.7 7.55 30.7 L8.9 30.6 10.15 30.65 Q15.0 31.15 24.0 35.55 M10.5 19.25 Q16.55 19.05 24.25 19.1 33.65 19.1 42.15 19.4 M80.3 -23.75 Q79.65 -25.7 77.55 -26.75 75.2 -27.9 70.35 -28.25 L70.35 -28.5 72.65 -31.2 Q73.3 -32.35 73.2 -33.9 73.15 -35.45 72.25 -37.3 71.35 -39.25 67.95 -44.05 76.1 -38.3 79.15 -38.6 80.85 -38.8 83.45 -40.35 85.6 -41.8 86.6 -42.9 L86.6 -42.6 Q85.85 -41.9 85.75 -40.6 L85.65 -38.2 Q85.65 -35.3 87.45 -33.5 89.3 -31.65 92.3 -31.95 L94.0 -32.35 Q95.1 -32.85 95.45 -33.2 94.2 -30.7 94.2 -29.8 94.2 -28.05 95.4 -25.75 96.25 -26.3 97.3 -26.3 98.85 -26.3 99.95 -25.2 L100.9 -23.75 102.1 -23.75 102.25 -24.0 Q104.3 -27.8 104.3 -30.25 104.3 -31.25 103.0 -33.9 103.4 -33.5 104.6 -33.2 L106.45 -32.9 Q109.9 -32.9 111.9 -35.2 113.85 -37.4 113.85 -40.65 L113.8 -43.3 Q113.65 -44.7 112.9 -45.45 L112.9 -45.75 Q114.05 -44.6 116.4 -43.3 119.25 -41.8 121.1 -41.8 124.55 -41.8 133.55 -49.2 129.9 -43.45 128.9 -41.15 127.9 -38.95 127.75 -37.2 127.7 -35.55 128.45 -34.35 L130.95 -31.55 130.95 -31.25 Q125.5 -30.4 123.0 -28.85 120.0 -27.0 119.55 -23.75 L133.75 -23.75 134.1 -23.75 134.6 -23.75 Q140.4 -23.75 144.5 -14.05 L145.35 -11.75 Q148.2 -3.8 148.55 6.7 L148.6 9.3 Q148.6 23.05 144.5 32.7 140.4 42.4 134.6 42.4 L134.25 42.4 117.85 42.4 116.25 45.55 115.75 46.05 115.15 46.25 114.5 46.05 114.1 45.55 112.8 43.0 Q106.95 50.2 90.55 49.65 L97.6 43.55 96.15 42.4 42.6 42.4 M58.7 -23.75 L57.25 -26.65 56.75 -27.25 55.9 -27.45 55.1 -27.25 54.6 -26.65 53.15 -23.75 53.0 -23.5 M62.1 -13.0 L61.65 -15.35 65.25 -18.85 65.65 -19.6 65.65 -20.45 65.15 -21.1 64.45 -21.5 59.45 -22.2 58.7 -23.75 80.3 -23.75 Q80.7 -22.7 80.7 -21.45 80.7 -20.35 80.1 -19.8 L80.1 -19.45 Q82.15 -21.8 85.25 -22.05 88.35 -22.4 90.45 -20.75 92.7 -19.0 93.5 -14.3 93.6 -17.2 95.5 -19.15 L94.6 -19.85 Q93.5 -20.95 93.5 -22.5 L93.7 -23.75 93.85 -24.05 78.6 -34.7 M53.15 -23.75 L52.8 -23.75 M49.75 -12.9 L49.35 -10.5 Q49.25 -10.05 49.4 -9.6 L49.9 -8.95 Q50.25 -8.75 50.7 -8.7 51.1 -8.65 51.5 -8.9 L55.9 -11.25 60.4 -8.9 61.1 -8.7 61.95 -8.95 62.5 -9.6 62.55 -10.5 62.25 -12.05 M96.95 -13.9 Q96.35 -14.75 96.35 -15.9 96.35 -17.5 97.4 -18.6 L97.6 -18.7 97.3 -18.7 Q96.3 -18.7 95.5 -19.15 M105.7 -15.35 Q105.35 -14.3 105.15 -13.0 L104.75 -15.35 103.85 -15.2 Q103.65 -14.15 102.8 -13.25 101.7 -12.15 100.15 -12.15 98.6 -12.15 97.4 -13.25 L96.95 -13.9 M71.55 1.55 Q69.0 -1.3 63.25 -5.35 69.7 -3.35 72.2 -2.95 74.6 -2.55 76.25 -2.9 77.9 -3.3 78.85 -4.35 L80.9 -7.45 81.25 -7.6 Q83.45 -2.45 85.6 -0.5 L87.3 0.75 Q89.65 2.1 92.6 1.3 93.75 1.0 94.2 0.2 M93.45 4.45 L93.75 6.25 Q94.65 9.55 97.35 11.3 L97.4 11.3 Q97.3 10.05 97.95 8.9 98.7 7.6 100.2 7.2 101.75 6.75 103.1 7.55 104.5 8.3 104.85 9.85 105.3 11.35 104.5 12.7 L104.5 12.75 105.5 12.65 104.2 13.2 102.35 14.45 Q100.05 16.5 99.85 20.55 97.45 18.8 95.55 18.35 91.45 17.25 89.05 17.9 88.15 18.15 85.85 20.1 86.15 19.65 86.15 18.4 L86.0 16.5 Q85.15 13.25 82.35 11.9 79.75 10.55 76.55 11.35 L74.0 12.15 Q72.65 12.65 72.2 13.55 L71.9 13.65 Q72.7 12.3 73.3 9.65 74.0 6.55 73.6 4.8 L73.55 4.7 Q73.2 3.4 71.55 1.55 M93.85 -24.05 L94.6 -25.2 Q94.95 -25.55 95.4 -25.75 M100.9 -23.75 L101.05 -22.5 101.05 -22.45 102.1 -23.75 M101.1 -19.6 L100.2 -20.05 99.95 -19.85 99.8 -19.65 100.15 -19.7 101.1 -19.6 Q102.55 -18.8 103.5 -17.65 L104.75 -15.35 105.7 -15.35 Q106.65 -18.85 108.6 -20.55 110.95 -22.7 114.4 -22.7 117.85 -22.7 120.15 -20.35 L120.15 -20.75 Q119.5 -21.4 119.5 -22.5 L119.55 -23.75 M97.6 -18.7 Q98.5 -19.6 99.8 -19.65 M101.05 -22.45 Q101.05 -21.05 100.2 -20.05 M103.5 -17.65 Q103.9 -16.9 103.9 -15.9 L103.85 -15.2 M133.75 -23.7 L134.1 -23.75 M121.15 0.3 Q122.05 -7.75 124.7 -14.05 127.65 -20.9 131.4 -22.9 132.5 -23.55 133.75 -23.7 M127.35 7.55 Q127.6 1.6 129.45 -2.7 131.55 -7.6 134.4 -7.75 137.55 -7.75 139.7 -2.7 141.8 2.25 141.8 9.3 141.8 16.4 139.7 21.4 137.55 26.45 134.4 26.45 131.55 26.25 129.45 21.4 128.6 19.4 128.1 17.1 M125.6 22.05 Q124.1 16.4 124.1 9.3 L124.1 8.3 Q124.3 -1.2 127.25 -8.1 130.2 -15.15 134.35 -15.35 137.55 -15.35 139.9 -11.95 M105.0 -24.1 L121.8 -37.55 M143.1 23.85 Q145.05 17.5 145.05 9.3 145.05 -0.8 142.0 -8.05 M134.95 -1.95 Q136.75 -1.6 138.0 1.3 L138.7 3.4 M143.1 23.85 L142.0 26.8 Q138.9 34.05 134.35 34.05 130.2 33.85 127.25 26.8 126.25 24.6 125.6 22.05 M132.9 20.0 Q131.95 19.1 131.2 17.35 130.6 16.0 130.25 14.5 M137.85 17.6 Q137.2 19.1 136.35 19.95 M96.15 42.4 L89.65 36.95 Q101.95 40.1 110.15 34.5 L109.9 32.5 Q109.75 32.15 109.9 31.85 L110.3 31.3 110.95 31.1 111.6 31.25 115.15 33.1 118.75 31.25 Q118.95 31.1 119.3 31.1 L120.0 31.3 120.4 31.85 120.45 32.5 119.8 36.45 122.65 39.25 123.05 39.9 123.0 40.5 122.6 41.1 122.05 41.4 118.05 41.95 117.85 42.4 M134.25 42.4 Q128.7 42.1 124.7 32.7 121.5 25.05 120.85 14.85 L120.65 9.3 120.65 7.75 Q120.7 3.8 121.15 0.3 M10.5 19.25 L10.15 19.25 9.15 19.25 M104.5 12.75 L104.2 13.2 M102.35 14.45 L102.15 14.5 Q100.65 14.9 99.35 14.1 98.0 13.35 97.55 11.75 L97.4 11.35 97.4 11.3 M94.45 0.1 Q93.35 2.15 93.45 4.45 M112.8 43.0 L112.55 42.4 112.3 41.95 108.3 41.4 107.7 41.1 107.3 40.5 107.3 39.9 107.6 39.25 110.55 36.45 110.15 34.5 M10.15 8.85 L13.7 8.7 17.15 8.55 M7.55 19.3 L8.75 19.25 M23.4 33.95 L23.15 33.55 23.15 33.45 M94.9 15.6 L77.5 2.95" fill="none" stroke="#000000" stroke-linecap="round" stroke-linejoin="round" stroke-opacity="0.6627451" stroke-width="1.0"/>
      <path d="M42.6 42.4 L42.25 42.6 40.85 43.4 Q38.8 44.6 36.75 44.6 32.3 44.6 27.8 40.25 25.1 37.75 24.0 35.55 23.55 34.75 23.4 33.95 L23.15 33.45 22.9 32.75 23.9 32.75 Q26.45 33.65 31.65 35.8 36.4 37.5 40.85 37.5 L47.65 36.95 49.1 36.75 55.4 36.35 59.75 36.6 63.15 36.85 66.0 36.45 68.8 35.8 71.1 35.8 71.1 36.15 Q70.05 38.45 64.5 40.25 59.75 41.8 54.55 42.05 L52.85 42.1 Q48.1 42.1 46.45 41.4 45.55 40.55 44.95 40.55 L42.6 42.4 M62.25 -12.05 L62.1 -13.0 63.25 -13.45 63.45 -13.55 64.2 -13.65 65.6 -14.25 66.6 -14.6 Q69.4 -15.4 70.55 -15.4 L73.7 -14.75 79.25 -14.0 83.15 -14.35 88.05 -14.75 91.8 -14.1 Q93.55 -13.45 94.45 -13.45 L96.95 -13.9 M62.25 -12.05 L69.4 -11.7 79.5 -11.4 89.05 -11.5 98.4 -11.7 104.0 -11.35 113.75 -12.15 123.05 -13.15 Q122.25 -13.75 119.5 -13.85 L115.5 -14.0 111.8 -14.8 107.2 -15.4 105.7 -15.35 M87.3 0.75 Q87.9 0.05 91.2 -0.85 94.65 -1.85 96.7 -1.85 98.9 -1.85 103.2 -0.75 L108.55 0.5 110.8 -0.05 113.45 -0.55 Q115.05 -0.55 116.35 0.35 L118.6 2.25 118.6 2.45 97.75 4.4 93.45 4.45 M73.6 4.8 L69.9 5.0 60.7 5.4 46.3 5.05 35.7 4.6 38.2 3.55 38.95 3.35 Q43.5 0.5 45.85 0.5 L50.35 0.95 54.2 1.4 55.5 0.6 Q56.8 -0.25 59.05 -0.25 L64.05 0.95 69.0 2.1 70.7 1.75 71.55 1.55 M102.75 26.25 L111.2 26.1 111.55 26.1 116.15 26.3 Q118.1 26.55 118.1 27.65 118.1 28.4 115.5 29.1 L110.0 29.8 105.75 29.55 102.5 29.25 Q101.05 29.25 96.4 31.3 91.7 33.35 86.6 33.35 81.85 33.35 75.7 31.4 L69.25 29.35 Q67.95 29.35 66.15 30.1 64.2 30.7 61.65 30.7 57.6 30.7 56.25 30.0 L54.15 28.55 53.4 28.1 52.7 27.85 52.35 27.7 50.2 26.8 50.35 26.6 54.95 26.1 63.8 26.1 74.1 26.4 82.1 26.6 95.75 26.4 102.75 26.25 M94.2 0.2 L94.45 0.1" fill="none" stroke="#000000" stroke-linecap="round" stroke-linejoin="round" stroke-opacity="0.33333334" stroke-width="1.0"/>
    </g>
    <g id="sprite0" transform="matrix(1.0, 0.0, 0.0, 1.0, 161.6, 60.95)">
      <use height="121.9" transform="matrix(1.0, 0.0, 0.0, 1.0, -161.6, -60.95)" width="275.5" xlink:href="#shape1"/>
    </g>
    <g id="shape1" transform="matrix(1.0, 0.0, 0.0, 1.0, 161.6, 60.95)">
      <path d="M3.15 -29.55 L29.75 -29.55 Q30.25 -28.3 30.25 -26.75 30.25 -25.4 29.5 -24.7 L29.5 -24.3 Q32.05 -27.15 35.85 -27.5 39.65 -27.9 42.25 -25.85 45.05 -23.7 46.0 -17.9 46.15 -21.5 48.45 -23.9 49.45 -23.35 50.7 -23.35 L51.05 -23.35 50.85 -23.2 Q49.5 -21.9 49.5 -19.9 49.5 -18.5 50.25 -17.45 L47.2 -16.85 Q46.1 -16.85 43.9 -17.65 41.75 -18.45 39.3 -18.5 L33.25 -18.0 28.45 -17.55 Q24.6 -17.6 21.6 -18.45 L17.75 -19.3 12.85 -18.3 11.65 -17.85 9.9 -17.15 9.0 -17.0 8.7 -16.85 7.3 -16.35 6.75 -19.25 11.2 -23.55 11.7 -24.45 11.7 -25.5 11.1 -26.3 10.2 -26.8 4.05 -27.65 3.15 -29.55" fill="url(#gradient0)" fill-rule="evenodd" stroke="none"/>
      <path d="M-3.9 -29.25 L-1.95 -33.15 -1.3 -33.9 -0.3 -34.15 0.7 -33.9 1.35 -33.15 3.15 -29.55 4.05 -27.65 10.2 -26.8 11.1 -26.3 11.7 -25.5 11.7 -24.45 11.2 -23.55 6.75 -19.25 7.3 -16.35 7.5 -15.15 7.85 -13.25 7.8 -12.15 7.1 -11.35 6.05 -11.05 5.2 -11.25 -0.3 -14.15 -5.75 -11.25 -6.75 -11.05 -7.7 -11.35 -8.35 -12.15 -8.4 -13.25 -7.9 -16.2 -7.4 -19.25 -11.85 -23.55 -12.35 -24.45 -12.3 -25.5 -11.75 -26.3 -10.75 -26.8 -4.65 -27.65 -3.9 -29.25" fill="url(#gradient1)" fill-rule="evenodd" stroke="none"/>
      <path d="M7.3 -16.35 L8.7 -16.85 9.0 -17.0 9.9 -17.15 11.65 -17.85 12.85 -18.3 17.75 -19.3 21.6 -18.45 Q24.6 -17.6 28.45 -17.55 L33.25 -18.0 39.3 -18.5 Q41.75 -18.45 43.9 -17.65 46.1 -16.85 47.2 -16.85 L50.25 -17.45 50.85 -16.65 Q52.3 -15.25 54.2 -15.25 56.1 -15.25 57.45 -16.65 58.5 -17.75 58.8 -19.05 L59.9 -19.2 60.4 -16.3 61.05 -19.25 62.9 -19.3 68.55 -18.55 73.15 -17.55 78.05 -17.4 Q81.45 -17.25 82.45 -16.5 L71.0 -15.25 58.95 -14.3 52.05 -14.75 40.55 -14.5 28.75 -14.35 16.3 -14.75 7.5 -15.15 7.3 -16.35" fill="url(#gradient2)" fill-rule="evenodd" stroke="none"/>
      <path d="M48.35 -32.05 Q49.4 -32.7 50.7 -32.7 52.6 -32.7 53.95 -31.35 L55.15 -29.55 55.35 -28.05 55.35 -27.95 Q55.35 -26.25 54.25 -25.0 L53.95 -24.75 53.8 -24.55 Q52.2 -24.45 51.05 -23.35 L50.7 -23.35 Q49.45 -23.35 48.45 -23.9 47.9 -24.25 47.4 -24.75 46.0 -26.1 46.0 -28.05 46.0 -28.8 46.25 -29.55 L46.45 -29.95 Q46.75 -30.7 47.4 -31.35 47.8 -31.8 48.35 -32.05" fill="url(#gradient3)" fill-rule="evenodd" stroke="none"/>
      <path d="M59.9 -19.2 L61.05 -19.25 60.4 -16.3 59.9 -19.2" fill="url(#gradient4)" fill-rule="evenodd" stroke="none"/>
      <path d="M76.0 51.95 L74.05 55.85 73.45 56.45 72.7 56.7 71.9 56.45 71.4 55.85 69.8 52.7 69.5 51.95 69.2 51.4 64.25 50.7 63.5 50.35 63.0 49.65 63.0 48.85 63.4 48.1 67.0 44.65 66.55 42.2 66.2 39.75 Q66.05 39.35 66.2 38.95 66.4 38.55 66.75 38.3 67.1 38.05 67.5 38.05 L68.3 38.2 72.7 40.5 77.15 38.2 77.8 38.05 78.7 38.3 Q79.05 38.55 79.2 38.95 L79.25 39.75 78.45 44.65 81.95 48.1 82.45 48.85 82.35 49.65 81.9 50.35 81.2 50.7 76.25 51.4 76.0 51.95" fill="url(#gradient5)" fill-rule="evenodd" stroke="none"/>
      <path d="M-16.75 51.95 L-17.15 52.2 -18.85 53.2 Q-21.4 54.65 -23.95 54.65 -29.4 54.65 -34.95 49.3 -38.3 46.2 -39.65 43.5 L-40.4 41.55 -40.7 40.9 -41.0 40.05 -39.75 40.05 Q-36.6 41.15 -30.25 43.8 -27.05 44.95 -23.95 45.5 L-18.9 45.9 -18.85 45.9 -10.5 45.25 -8.7 45.0 -0.95 44.5 4.4 44.8 8.6 45.1 12.1 44.65 15.6 43.85 18.4 43.85 18.4 44.25 Q17.1 47.1 10.3 49.3 4.4 51.25 -2.0 51.5 L-4.1 51.6 Q-9.95 51.6 -12.0 50.7 -13.1 49.7 -13.85 49.7 L-16.75 51.95" fill="url(#gradient6)" fill-rule="evenodd" stroke="none"/>
      <path d="M55.35 -27.95 L56.6 -29.55 56.8 -29.9 Q59.35 -34.55 59.35 -37.6 59.35 -38.8 57.75 -42.1 58.2 -41.6 59.7 -41.25 L62.0 -40.85 Q66.2 -40.85 68.7 -43.7 71.1 -46.4 71.1 -50.4 L71.05 -53.7 Q70.85 -55.4 69.95 -56.3 L69.95 -56.7 Q71.35 -55.3 74.25 -53.7 77.75 -51.8 80.05 -51.8 84.3 -51.8 95.35 -60.95 90.85 -53.85 89.65 -51.05 88.4 -48.3 88.25 -46.15 88.15 -44.1 89.1 -42.65 L92.2 -39.2 92.2 -38.8 Q85.45 -37.75 82.35 -35.85 78.65 -33.6 78.15 -29.55 L78.05 -28.05 Q78.05 -26.65 78.85 -25.85 L78.85 -25.4 Q76.0 -28.3 71.75 -28.3 67.5 -28.3 64.6 -25.65 62.25 -23.55 61.05 -19.25 L59.9 -19.2 58.35 -22.05 Q57.2 -23.45 55.4 -24.45 L54.25 -25.0 Q55.35 -26.25 55.35 -27.95" fill="url(#gradient7)" fill-rule="evenodd" stroke="none"/>
      <path d="M38.35 0.65 Q39.1 -0.25 43.15 -1.35 47.45 -2.6 49.95 -2.6 52.7 -2.6 58.0 -1.2 63.3 0.3 64.55 0.3 L67.35 -0.35 70.6 -0.95 Q72.55 -0.95 74.15 0.15 L76.95 2.45 76.95 2.7 51.25 5.15 45.95 5.2 Q45.8 2.35 47.2 -0.2 L46.85 -0.05 Q46.3 0.95 44.9 1.3 41.3 2.3 38.35 0.65" fill="url(#gradient8)" fill-rule="evenodd" stroke="none"/>
      <path d="M50.85 13.6 Q50.7 12.1 51.5 10.7 52.45 9.05 54.3 8.55 56.2 8.05 57.85 9.0 59.55 9.95 60.0 11.85 60.55 13.7 59.55 15.35 L59.55 15.4 59.2 16.0 Q57.9 16.6 56.95 17.5 L56.65 17.55 Q54.85 18.05 53.2 17.1 51.55 16.15 51.0 14.2 L50.85 13.7 50.85 13.6" fill="url(#gradient9)" fill-rule="evenodd" stroke="none"/>
      <path d="M59.55 15.4 L60.8 15.3 Q59.9 15.6 59.2 16.0 L59.55 15.4" fill="url(#gradient10)" fill-rule="evenodd" stroke="none"/>
      <path d="M57.4 32.05 L67.85 31.9 68.25 31.9 73.95 32.1 Q76.35 32.45 76.35 33.75 76.35 34.7 73.15 35.55 L66.35 36.4 61.1 36.1 57.1 35.75 Q55.35 35.75 49.6 38.3 43.8 40.8 37.5 40.8 31.65 40.8 24.1 38.4 L16.1 35.9 Q14.55 35.9 12.3 36.8 9.9 37.55 6.75 37.55 1.75 37.55 0.1 36.65 -1.1 35.75 -2.5 34.9 L-3.4 34.35 -4.3 34.05 Q-4.45 33.9 -4.7 33.85 L-7.35 32.75 -7.15 32.5 -1.5 31.9 9.4 31.9 22.1 32.25 31.95 32.5 48.8 32.25 57.4 32.05" fill="url(#gradient11)" fill-rule="evenodd" stroke="none"/>
      <path d="M58.35 -22.05 L59.9 -19.2 58.8 -19.05 58.85 -19.9 Q58.85 -21.1 58.35 -22.05" fill="url(#gradient12)" fill-rule="evenodd" stroke="none"/>
      <path d="M55.4 -24.45 Q57.2 -23.45 58.35 -22.05 58.85 -21.1 58.85 -19.9 L58.8 -19.05 Q58.5 -17.75 57.45 -16.65 56.1 -15.25 54.2 -15.25 52.3 -15.25 50.85 -16.65 L50.25 -17.45 Q49.5 -18.5 49.5 -19.9 49.5 -21.9 50.85 -23.2 L51.05 -23.35 Q52.2 -24.45 53.8 -24.55 L54.2 -24.6 55.4 -24.45" fill="url(#gradient13)" fill-rule="evenodd" stroke="none"/>
      <path d="M54.25 -25.0 L55.4 -24.45 54.2 -24.6 53.8 -24.55 53.95 -24.75 54.25 -25.0" fill="url(#gradient14)" fill-rule="evenodd" stroke="none"/>
      <path d="M78.15 -29.55 L95.65 -29.55 95.65 -29.5 Q94.1 -29.3 92.75 -28.55 88.1 -26.05 84.5 -17.6 81.2 -9.85 80.1 0.05 79.55 4.4 79.5 9.25 L79.45 11.15 Q79.45 14.7 79.7 18.0 80.5 30.6 84.5 40.0 89.4 51.6 96.25 51.95 L76.0 51.95 76.25 51.4 81.2 50.7 81.9 50.35 82.35 49.65 82.45 48.85 81.95 48.1 78.45 44.65 79.25 39.75 79.2 38.95 Q79.05 38.55 78.7 38.3 L77.8 38.05 77.15 38.2 72.7 40.5 68.3 38.2 67.5 38.05 Q67.1 38.05 66.75 38.3 66.4 38.55 66.2 38.95 66.05 39.35 66.2 39.75 L66.55 42.2 Q56.4 49.1 41.25 45.25 L49.3 51.95 -16.75 51.95 -13.85 49.7 Q-13.1 49.7 -12.0 50.7 -9.95 51.6 -4.1 51.6 L-2.0 51.5 Q4.4 51.25 10.3 49.3 17.1 47.1 18.4 44.25 L18.4 43.85 15.6 43.85 12.1 44.65 8.6 45.1 4.4 44.8 -0.95 44.5 -8.7 45.0 -10.5 45.25 -18.85 45.9 -18.9 45.9 -23.95 45.5 Q-27.05 44.95 -30.25 43.8 -36.6 41.15 -39.75 40.05 L-41.0 40.05 -40.7 40.9 -40.7 41.05 -40.4 41.55 -39.65 43.5 Q-51.55 37.75 -57.55 37.45 L-57.55 37.7 -59.05 37.6 -60.75 37.75 Q-73.05 32.8 -92.35 30.65 -123.05 27.8 -155.15 30.65 -158.55 26.65 -160.15 22.45 -164.65 10.75 -155.15 -2.55 -127.45 -0.7 -92.35 -2.55 L-60.75 -16.45 -60.35 -16.5 -60.35 -16.6 -58.1 -17.0 -57.55 -17.15 -57.55 -17.1 Q-55.75 -17.6 -53.4 -18.4 L-32.95 -25.25 -39.35 -19.95 Q-31.05 -22.05 -23.95 -21.55 -14.95 -21.0 -7.9 -16.2 L-8.4 -13.25 -8.35 -12.15 -7.7 -11.35 -6.75 -11.05 -5.75 -11.25 -0.3 -14.15 5.2 -11.25 6.05 -11.05 7.1 -11.35 7.8 -12.15 7.85 -13.25 7.5 -15.15 16.3 -14.75 28.75 -14.35 40.55 -14.5 52.05 -14.75 58.95 -14.3 71.0 -15.25 82.45 -16.5 Q81.45 -17.25 78.05 -17.4 L73.15 -17.55 68.55 -18.55 62.9 -19.3 61.05 -19.25 Q62.25 -23.55 64.6 -25.65 67.5 -28.3 71.75 -28.3 76.0 -28.3 78.85 -25.4 L78.85 -25.85 Q78.05 -26.65 78.05 -28.05 L78.15 -29.55 M38.35 0.65 Q37.25 0.0 36.3 -0.9 33.65 -3.35 30.9 -9.65 L30.5 -9.5 Q28.65 -6.3 27.95 -5.65 26.8 -4.35 24.75 -3.9 22.7 -3.45 19.75 -3.95 16.7 -4.45 8.7 -6.9 15.8 -1.9 18.95 1.6 L17.9 1.85 15.8 2.3 9.7 0.85 3.55 -0.6 Q0.8 -0.6 -0.8 0.45 L-2.45 1.45 -7.15 0.85 -12.7 0.3 Q-15.6 0.3 -21.25 3.8 L-22.15 4.1 -23.95 4.8 -25.2 5.35 -23.95 5.4 -12.15 5.95 Q-2.05 6.35 5.6 6.35 L16.95 5.85 21.5 5.6 Q22.0 7.8 21.1 11.6 20.35 14.85 19.4 16.55 L19.75 16.4 Q20.3 15.3 21.95 14.7 L25.15 13.7 Q29.05 12.7 32.25 14.35 35.7 16.05 36.75 20.05 L36.95 22.35 Q36.95 23.95 36.6 24.5 39.4 22.1 40.55 21.75 43.5 20.95 48.55 22.3 50.9 22.85 53.85 25.05 54.1 20.05 56.95 17.5 57.9 16.6 59.2 16.0 59.9 15.6 60.8 15.3 L59.55 15.4 59.55 15.35 Q60.55 13.7 60.0 11.85 59.55 9.95 57.85 9.0 56.2 8.05 54.3 8.55 52.45 9.05 51.5 10.7 50.7 12.1 50.85 13.6 L50.75 13.6 Q47.45 11.5 46.35 7.4 L45.95 5.2 51.25 5.15 76.95 2.7 76.95 2.45 74.15 0.15 Q72.55 -0.95 70.6 -0.95 L67.35 -0.35 64.55 0.3 Q63.3 0.3 58.0 -1.2 52.7 -2.6 49.95 -2.6 47.45 -2.6 43.15 -1.35 39.1 -0.25 38.35 0.65 M57.4 32.05 L48.8 32.25 31.95 32.5 22.1 32.25 9.4 31.9 -1.5 31.9 -7.15 32.5 -7.35 32.75 -4.7 33.85 Q-4.45 33.9 -4.3 34.05 L-3.4 34.35 -2.5 34.9 Q-1.1 35.75 0.1 36.65 1.75 37.55 6.75 37.55 9.9 37.55 12.3 36.8 14.55 35.9 16.1 35.9 L24.1 38.4 Q31.65 40.8 37.5 40.8 43.8 40.8 49.6 38.3 55.35 35.75 57.1 35.75 L61.1 36.1 66.35 36.4 73.15 35.55 Q76.35 34.7 76.35 33.75 76.35 32.45 73.95 32.1 L68.25 31.9 67.85 31.9 57.4 32.05" fill="url(#gradient15)" fill-rule="evenodd" stroke="none"/>
      <path d="M95.65 -29.5 L96.05 -29.55 96.65 -29.55 Q103.8 -29.55 108.85 -17.6 L109.95 -14.8 Q113.45 -5.0 113.85 7.95 L113.9 11.15 Q113.9 28.1 108.85 40.0 103.8 51.95 96.65 51.95 L96.25 51.95 Q89.4 51.6 84.5 40.0 80.5 30.6 79.7 18.0 79.45 14.7 79.45 11.15 L79.5 9.25 Q79.55 4.4 80.1 0.05 81.2 -9.85 84.5 -17.6 88.1 -26.05 92.75 -28.55 94.1 -29.3 95.65 -29.5" fill="url(#gradient16)" fill-rule="evenodd" stroke="none"/>
      <path d="M-32.95 -25.25 L-27.15 -30.1 -37.9 -39.45 -23.95 -38.8 Q-10.35 -36.85 -4.15 -29.55 L-3.9 -29.25 -4.65 -27.65 -10.75 -26.8 -11.75 -26.3 -12.3 -25.5 -12.35 -24.45 -11.85 -23.55 -7.4 -19.25 -7.9 -16.2 Q-14.95 -21.0 -23.95 -21.55 -31.05 -22.05 -39.35 -19.95 L-32.95 -25.25" fill="url(#gradient17)" fill-rule="evenodd" stroke="none"/>
      <path d="M69.8 52.7 Q62.6 61.55 42.35 60.9 L51.05 53.4 49.3 51.95 41.25 45.25 Q56.4 49.1 66.55 42.2 L67.0 44.65 63.4 48.1 63.0 48.85 63.0 49.65 63.5 50.35 64.25 50.7 69.2 51.4 69.5 51.95 69.8 52.7" fill="url(#gradient18)" fill-rule="evenodd" stroke="none"/>
      <path d="M29.75 -29.55 Q28.95 -32.0 26.35 -33.3 23.45 -34.7 17.45 -35.1 L17.45 -35.45 20.3 -38.75 Q21.1 -40.15 21.0 -42.1 20.95 -44.0 19.8 -46.3 18.7 -48.65 14.55 -54.6 24.55 -47.5 28.35 -47.9 30.45 -48.1 33.6 -50.05 36.25 -51.8 37.5 -53.15 L37.5 -52.8 Q36.6 -51.95 36.45 -50.35 L36.35 -47.4 Q36.35 -43.8 38.55 -41.6 40.85 -39.3 44.55 -39.65 L46.65 -40.2 48.4 -41.2 Q46.9 -38.15 46.9 -37.0 46.9 -34.9 48.35 -32.05 47.8 -31.8 47.4 -31.35 46.75 -30.7 46.45 -29.95 L46.25 -29.55 Q46.0 -28.8 46.0 -28.05 46.0 -26.1 47.4 -24.75 47.9 -24.25 48.45 -23.9 46.15 -21.5 46.0 -17.9 45.05 -23.7 42.25 -25.85 39.65 -27.9 35.85 -27.5 32.05 -27.15 29.5 -24.3 L29.5 -24.7 Q30.25 -25.4 30.25 -26.75 30.25 -28.3 29.75 -29.55" fill="url(#gradient19)" fill-rule="evenodd" stroke="none"/>
      <path d="M18.95 1.6 Q15.8 -1.9 8.7 -6.9 16.7 -4.45 19.75 -3.95 22.7 -3.45 24.75 -3.9 26.8 -4.35 27.95 -5.65 28.65 -6.3 30.5 -9.5 L30.9 -9.65 Q33.65 -3.35 36.3 -0.9 37.25 0.0 38.35 0.65 41.3 2.3 44.9 1.3 46.3 0.95 46.85 -0.05 L47.2 -0.2 Q45.8 2.35 45.95 5.2 L46.35 7.4 Q47.45 11.5 50.75 13.6 L50.85 13.7 51.0 14.2 Q51.55 16.15 53.2 17.1 54.85 18.05 56.65 17.55 L56.95 17.5 Q54.1 20.05 53.85 25.05 50.9 22.85 48.55 22.3 43.5 20.95 40.55 21.75 39.4 22.1 36.6 24.5 36.95 23.95 36.95 22.35 L36.75 20.05 Q35.7 16.05 32.25 14.35 29.05 12.7 25.15 13.7 L21.95 14.7 Q20.3 15.3 19.75 16.4 L19.4 16.55 Q20.35 14.85 21.1 11.6 22.0 7.8 21.5 5.6 L21.45 5.5 Q21.0 3.9 18.95 1.6" fill="url(#gradient20)" fill-rule="evenodd" stroke="none"/>
      <path d="M21.5 5.6 L16.95 5.85 5.6 6.35 Q-2.05 6.35 -12.15 5.95 L-23.95 5.4 -25.2 5.35 -23.95 4.8 -22.15 4.1 -21.25 3.8 Q-15.6 0.3 -12.7 0.3 L-7.15 0.85 -2.45 1.45 -0.8 0.45 Q0.8 -0.6 3.55 -0.6 L9.7 0.85 15.8 2.3 17.9 1.85 18.95 1.6 Q21.0 3.9 21.45 5.5 L21.5 5.6" fill="url(#gradient21)" fill-rule="evenodd" stroke="none"/>
    </g>
    <linearGradient gradientTransform="matrix(0.0292, 0.0, 0.0, 0.0081, 27.1, -22.95)" gradientUnits="userSpaceOnUse" id="gradient0" spreadMethod="pad" x1="-819.2" x2="819.2">
      <stop offset="0.0" stop-color="#000000"/>
      <stop offset="1.0" stop-color="#ffffff"/>
    </linearGradient>
    <linearGradient gradientTransform="matrix(0.0147, 0.0, 0.0, 0.0141, -0.35, -22.6)" gradientUnits="userSpaceOnUse" id="gradient1" spreadMethod="pad" x1="-819.2" x2="819.2">
      <stop offset="0.0" stop-color="#000000"/>
      <stop offset="1.0" stop-color="#ffffff"/>
    </linearGradient>
    <linearGradient gradientTransform="matrix(0.0459, 0.0, 0.0, 0.0031, 44.85, -16.8)" gradientUnits="userSpaceOnUse" id="gradient2" spreadMethod="pad" x1="-819.2" x2="819.2">
      <stop offset="0.0" stop-color="#000000"/>
      <stop offset="1.0" stop-color="#ffffff"/>
    </linearGradient>
    <linearGradient gradientTransform="matrix(0.0057, 0.0, 0.0, 0.0057, 50.65, -28.05)" gradientUnits="userSpaceOnUse" id="gradient3" spreadMethod="pad" x1="-819.2" x2="819.2">
      <stop offset="0.0" stop-color="#000000"/>
      <stop offset="1.0" stop-color="#ffffff"/>
    </linearGradient>
    <linearGradient gradientTransform="matrix(7.0E-4, 0.0, 0.0, 0.0018, 60.45, -17.8)" gradientUnits="userSpaceOnUse" id="gradient4" spreadMethod="pad" x1="-819.2" x2="819.2">
      <stop offset="0.0" stop-color="#000000"/>
      <stop offset="1.0" stop-color="#ffffff"/>
    </linearGradient>
    <linearGradient gradientTransform="matrix(0.0119, 0.0, 0.0, 0.0114, 72.7, 47.35)" gradientUnits="userSpaceOnUse" id="gradient5" spreadMethod="pad" x1="-819.2" x2="819.2">
      <stop offset="0.0" stop-color="#000000"/>
      <stop offset="1.0" stop-color="#ffffff"/>
    </linearGradient>
    <linearGradient gradientTransform="matrix(0.0363, 0.0, 0.0, 0.0089, -11.3, 47.35)" gradientUnits="userSpaceOnUse" id="gradient6" spreadMethod="pad" x1="-819.2" x2="819.2">
      <stop offset="0.0" stop-color="#000000"/>
      <stop offset="1.0" stop-color="#ffffff"/>
    </linearGradient>
    <linearGradient gradientTransform="matrix(0.0251, 0.0, 0.0, 0.0255, 74.8, -40.1)" gradientUnits="userSpaceOnUse" id="gradient7" spreadMethod="pad" x1="-819.2" x2="819.2">
      <stop offset="0.0" stop-color="#000000"/>
      <stop offset="1.0" stop-color="#ffffff"/>
    </linearGradient>
    <linearGradient gradientTransform="matrix(0.0236, 0.0, 0.0, 0.0048, 57.65, 1.3)" gradientUnits="userSpaceOnUse" id="gradient8" spreadMethod="pad" x1="-819.2" x2="819.2">
      <stop offset="0.0" stop-color="#000000"/>
      <stop offset="1.0" stop-color="#ffffff"/>
    </linearGradient>
    <linearGradient gradientTransform="matrix(0.0057, 0.0, 0.0, 0.0057, 55.5, 13.05)" gradientUnits="userSpaceOnUse" id="gradient9" spreadMethod="pad" x1="-819.2" x2="819.2">
      <stop offset="0.0" stop-color="#000000"/>
      <stop offset="1.0" stop-color="#ffffff"/>
    </linearGradient>
    <linearGradient gradientTransform="matrix(0.001, 0.0, 0.0, 4.0E-4, 60.0, 15.65)" gradientUnits="userSpaceOnUse" id="gradient10" spreadMethod="pad" x1="-819.2" x2="819.2">
      <stop offset="0.0" stop-color="#000000"/>
      <stop offset="1.0" stop-color="#ffffff"/>
    </linearGradient>
    <linearGradient gradientTransform="matrix(0.0511, 0.0, 0.0, 0.0054, 34.5, 36.35)" gradientUnits="userSpaceOnUse" id="gradient11" spreadMethod="pad" x1="-819.2" x2="819.2">
      <stop offset="0.0" stop-color="#000000"/>
      <stop offset="1.0" stop-color="#ffffff"/>
    </linearGradient>
    <linearGradient gradientTransform="matrix(9.0E-4, 0.0, 0.0, 0.0018, 59.1, -20.55)" gradientUnits="userSpaceOnUse" id="gradient12" spreadMethod="pad" x1="-819.2" x2="819.2">
      <stop offset="0.0" stop-color="#000000"/>
      <stop offset="1.0" stop-color="#ffffff"/>
    </linearGradient>
    <linearGradient gradientTransform="matrix(0.0057, 0.0, 0.0, 0.0057, 54.15, -19.95)" gradientUnits="userSpaceOnUse" id="gradient13" spreadMethod="pad" x1="-819.2" x2="819.2">
      <stop offset="0.0" stop-color="#000000"/>
      <stop offset="1.0" stop-color="#ffffff"/>
    </linearGradient>
    <linearGradient gradientTransform="matrix(0.001, 0.0, 0.0, 3.0E-4, 54.6, -24.75)" gradientUnits="userSpaceOnUse" id="gradient14" spreadMethod="pad" x1="-819.2" x2="819.2">
      <stop offset="0.0" stop-color="#000000"/>
      <stop offset="1.0" stop-color="#ffffff"/>
    </linearGradient>
    <linearGradient gradientTransform="matrix(0.0, -0.0469, 0.0497, 0.0, -8.85, 11.2)" gradientUnits="userSpaceOnUse" id="gradient15" spreadMethod="pad" x1="-819.2" x2="819.2">
      <stop offset="0.0" stop-color="#000000"/>
      <stop offset="1.0" stop-color="#ffffff"/>
    </linearGradient>
    <linearGradient gradientTransform="matrix(0.0076, -0.0467, 0.0491, 0.008, 96.65, 11.2)" gradientUnits="userSpaceOnUse" id="gradient16" spreadMethod="pad" x1="-819.2" x2="819.2">
      <stop offset="0.0" stop-color="#000000"/>
      <stop offset="1.0" stop-color="#ffffff"/>
    </linearGradient>
    <linearGradient gradientTransform="matrix(-0.0216, 0.0, 0.0, -0.0142, -21.65, -27.85)" gradientUnits="userSpaceOnUse" id="gradient17" spreadMethod="pad" x1="-819.2" x2="819.2">
      <stop offset="0.0" stop-color="#000000"/>
      <stop offset="1.0" stop-color="#ffffff"/>
    </linearGradient>
    <linearGradient gradientTransform="matrix(-0.0168, 0.0045, -0.003, -0.011, 55.5, 51.55)" gradientUnits="userSpaceOnUse" id="gradient18" spreadMethod="pad" x1="-819.2" x2="819.2">
      <stop offset="0.0" stop-color="#000000"/>
      <stop offset="1.0" stop-color="#ffffff"/>
    </linearGradient>
    <linearGradient gradientTransform="matrix(-0.0103, -0.0179, 0.0194, -0.0112, 31.5, -36.2)" gradientUnits="userSpaceOnUse" id="gradient19" spreadMethod="pad" x1="-819.2" x2="819.2">
      <stop offset="0.0" stop-color="#000000"/>
      <stop offset="1.0" stop-color="#ffffff"/>
    </linearGradient>
    <linearGradient gradientTransform="matrix(-0.0255, -0.0147, 0.0106, -0.0183, 32.8, 7.7)" gradientUnits="userSpaceOnUse" id="gradient20" spreadMethod="pad" x1="-819.2" x2="819.2">
      <stop offset="0.0" stop-color="#000000"/>
      <stop offset="1.0" stop-color="#ffffff"/>
    </linearGradient>
    <linearGradient gradientTransform="matrix(-0.0275, 0.0074, -0.0011, -0.0041, -1.85, 2.95)" gradientUnits="userSpaceOnUse" id="gradient21" spreadMethod="pad" x1="-819.2" x2="819.2">
      <stop offset="0.0" stop-color="#000000"/>
      <stop offset="1.0" stop-color="#ffffff"/>
    </linearGradient>
    <g id="shape2" transform="matrix(1.0, 0.0, 0.0, 1.0, 72.65, 60.7)">
      <path d="M-20.55 7.3 L-19.3 14.3" fill="none" stroke="#000000" stroke-linecap="round" stroke-linejoin="round" stroke-opacity="0.6627451" stroke-width="1.0"/>
      <path d="M-15.8 7.55 L-9.8 11.05" fill="none" stroke="#000000" stroke-linecap="round" stroke-linejoin="round" stroke-opacity="0.6627451" stroke-width="1.0"/>
      <path d="M-13.8 4.8 L-12.3 4.8" fill="none" stroke="#000000" stroke-linecap="round" stroke-linejoin="round" stroke-opacity="0.6627451" stroke-width="1.0"/>
      <path d="M-57.3 -59.95 L-57.3 -59.9 Q-57.3 -59.55 -58.8 -56.1 -63.95 -45.95 -66.05 -34.75 L-67.55 -26.55 -69.45 -14.15 Q-71.2 -0.6 -69.15 12.75 -68.35 17.75 -66.8 22.35 -66.1 25.95 -63.5 27.2 L-61.15 27.75 -58.85 27.8 -57.75 27.8 Q-56.8 27.8 -56.35 27.45 -56.1 25.95 -55.3 25.95 -55.0 26.35 -54.9 27.25 L-54.9 27.3 -54.85 27.3 -54.55 28.45 -54.55 28.6 -54.3 29.1 -54.2 29.25 -53.55 30.05 -53.45 30.15 -50.9 30.7 -47.3 30.6 Q-43.0 30.6 -42.0 29.7 -41.8 29.5 -41.7 28.35 -41.9 26.75 -41.7 26.05 -41.4 24.95 -40.7 25.25 -40.05 25.55 -39.7 26.55 L-39.55 27.4 -39.5 27.4 -38.7 27.7 -33.05 27.45 -30.1 27.2 -29.75 26.8 -29.15 25.55 Q-28.5 24.7 -28.55 23.7 L-28.6 23.1 -28.7 17.9 -28.65 16.45 -28.55 12.8 -27.9 8.7 Q-27.35 5.95 -26.55 4.15 L-26.05 3.15 Q-25.5 2.2 -24.9 1.9 L-24.85 1.9 Q-24.35 1.9 -24.15 2.2 L-24.15 2.3 -24.4 2.9 -24.7 3.7 -25.15 4.4 -25.25 4.85 Q-25.75 5.35 -25.75 6.0 L-25.75 6.3 -26.3 7.7 -26.85 10.15 -27.25 12.9 -27.3 15.15 -27.4 15.65 -27.5 17.9 -27.5 22.6 -27.6 24.05 -27.85 26.2 -29.15 28.7 -29.7 29.3 -30.05 29.65 -32.05 29.7 -39.45 29.3 Q-39.5 30.05 -39.7 30.6 L-40.3 31.4 Q-40.85 31.9 -41.75 32.3 -43.75 33.05 -47.35 33.05 L-52.85 32.5 Q-54.75 31.95 -55.65 31.0 L-56.25 30.0 -57.6 30.1 -58.85 30.1 -61.25 30.25 Q-66.75 29.95 -68.95 24.2 L-69.55 22.35 Q-72.95 10.2 -72.65 -2.45 -72.4 -14.6 -70.25 -26.55 -68.4 -37.05 -64.9 -47.1 -63.3 -51.7 -61.3 -56.1 -58.9 -60.7 -58.15 -60.7 L-57.6 -60.45 -57.55 -60.4 -57.3 -59.95 M-13.35 -47.15 Q-11.95 -48.1 -11.95 -46.65 -11.95 -47.15 -14.5 -43.7 L-16.45 -40.8 -13.4 -42.35 -10.2 -44.0 Q-8.05 -44.75 -8.05 -43.3 -8.05 -41.75 -17.8 -38.3 L-18.8 -35.9 -22.15 -25.15 Q-23.45 -20.3 -23.65 -14.4 L-23.55 -6.45 -20.95 -6.55 -17.9 -6.15 -16.55 -5.1 Q-15.75 -4.25 -15.55 -2.95 L-15.5 -1.4 -15.5 -0.45 -15.95 1.4 -16.1 1.9 -16.95 1.95 -17.15 0.45 -17.4 -0.8 -17.5 -2.2 Q-17.65 -4.5 -20.9 -4.9 L-23.5 -5.25 -23.45 -4.2 -23.45 -3.7 Q-23.4 -3.45 -24.05 -3.45 -24.6 -3.45 -24.95 -4.45 -25.45 -5.65 -25.65 -8.35 L-25.8 -13.25 Q-25.8 -18.35 -25.15 -21.8 -24.6 -24.8 -22.55 -31.05 -20.5 -37.4 -19.15 -39.95 L-16.3 -44.45 Q-15.4 -45.7 -13.9 -46.8 L-13.35 -47.15" fill="#000000" fill-rule="evenodd" stroke="none"/>
      <path d="M-63.5 27.2 Q-66.1 25.95 -66.8 22.35 -68.35 17.75 -69.15 12.75 -71.2 -0.6 -69.45 -14.15 L-67.55 -26.55 -66.05 -34.75 Q-63.95 -45.95 -58.8 -56.1 -57.3 -59.55 -57.3 -59.9 L-57.3 -59.95 -56.65 -59.95 -56.9 -59.3 Q-61.45 -48.35 -63.35 -36.3 L-64.65 -27.5 Q-65.65 -20.8 -66.75 -9.25 -67.9 2.3 -66.6 11.35 -65.35 20.35 -64.55 23.35 L-63.5 27.2 M-26.05 3.15 L-26.55 4.15 Q-27.35 5.95 -27.9 8.7 L-28.55 12.8 -28.65 16.45 -28.7 17.9 -28.6 23.1 -29.15 22.9 -29.3 22.8 -29.7 22.35 -29.95 21.85 -30.15 20.7 -30.15 20.55 -30.15 18.8 -30.05 14.9 -29.45 10.45 Q-28.95 7.5 -28.25 5.55 -27.2 2.65 -26.05 3.05 L-26.05 3.15 M-53.45 30.15 L-53.55 30.05 -54.2 29.25 -53.8 29.05 Q-53.55 29.4 -53.45 30.15 M-16.95 1.95 L-17.65 2.0 -19.9 2.25 -20.25 -1.25 Q-20.35 -3.75 -23.25 -4.2 L-23.45 -4.2 -23.5 -5.25 -20.9 -4.9 Q-17.65 -4.5 -17.5 -2.2 L-17.4 -0.8 -17.15 0.45 -16.95 1.95 M-13.35 -47.15 L-13.9 -46.8 Q-15.4 -45.7 -16.3 -44.45 L-19.15 -39.95 Q-20.5 -37.4 -22.55 -31.05 -24.6 -24.8 -25.15 -21.8 -25.8 -18.35 -25.8 -13.25 L-25.65 -8.35 Q-25.45 -5.65 -24.95 -4.45 L-25.55 -4.55 -26.8 -5.1 -27.2 -5.45 -27.45 -7.9 -27.6 -13.15 Q-27.6 -18.65 -27.0 -22.35 -26.55 -25.6 -24.7 -32.3 -22.9 -39.15 -21.7 -41.9 L-19.15 -46.75 -17.05 -49.3 -16.95 -49.35 -13.35 -47.15" fill="#bdbdbd" fill-rule="evenodd" stroke="none"/>
      <path d="M-63.5 27.2 L-64.55 23.35 Q-65.35 20.35 -66.6 11.35 -67.9 2.3 -66.75 -9.25 -65.65 -20.8 -64.65 -27.5 L-63.35 -36.3 Q-61.45 -48.35 -56.9 -59.3 L-56.65 -59.95 Q-35.05 -59.75 -16.95 -49.35 L-17.05 -49.3 -19.15 -46.75 -21.7 -41.9 Q-22.9 -39.15 -24.7 -32.3 -26.55 -25.6 -27.0 -22.35 -27.6 -18.65 -27.6 -13.15 L-27.45 -7.9 -27.2 -5.45 -26.8 -5.1 -25.55 -4.55 -24.95 -4.45 Q-24.6 -3.45 -24.05 -3.45 -23.4 -3.45 -23.45 -3.7 L-23.45 -4.2 -23.25 -4.2 Q-20.35 -3.75 -20.25 -1.25 L-19.9 2.25 -20.3 2.35 -22.6 2.75 Q-23.55 2.8 -24.35 3.4 L-24.7 3.7 -24.4 2.9 -24.15 2.3 -24.15 2.2 Q-24.35 1.9 -24.85 1.9 L-24.9 1.9 Q-25.5 2.2 -26.05 3.15 L-26.05 3.05 Q-27.2 2.65 -28.25 5.55 -28.95 7.5 -29.45 10.45 L-30.05 14.9 -30.15 18.8 -30.15 20.55 -30.15 20.7 -29.95 21.85 -29.7 22.35 -29.3 22.8 -29.15 22.9 -28.6 23.1 -28.55 23.7 Q-28.5 24.7 -29.15 25.55 L-29.75 26.8 -30.1 27.2 -33.05 27.45 -38.7 27.7 -39.5 27.4 -39.55 27.4 -39.7 26.55 Q-40.05 25.55 -40.7 25.25 -41.4 24.95 -41.7 26.05 -41.9 26.75 -41.7 28.35 -41.8 29.5 -42.0 29.7 -43.0 30.6 -47.3 30.6 L-50.9 30.7 -53.45 30.15 Q-53.55 29.4 -53.8 29.05 L-54.2 29.25 -54.3 29.1 -54.55 28.6 -54.55 28.45 -54.85 27.3 -54.9 27.3 -54.9 27.25 Q-55.0 26.35 -55.3 25.95 -56.1 25.95 -56.35 27.45 -56.8 27.8 -57.75 27.8 L-58.85 27.8 -61.15 27.75 -63.5 27.2" fill="#999999" fill-rule="evenodd" stroke="none"/>
    </g>
  </defs>
</svg>
