<?xml version="1.0" encoding="UTF-8" standalone="no"?>
<svg xmlns:xlink="http://www.w3.org/1999/xlink" height="531.5px" width="460.6px" xmlns="http://www.w3.org/2000/svg">
  <g transform="matrix(1.0, 0.0, 0.0, 1.0, 193.65, 334.05)">
    <use height="37.3" transform="matrix(1.0, 0.0, 0.0, 1.0, 8.85, -127.05)" width="228.3" xlink:href="#shape0"/>
    <use height="82.8" transform="matrix(0.4464, -0.0026, 0.0026, 0.4464, 9.2184, -126.1576)" width="509.1" xlink:href="#sprite0"/>
    <use height="105.25" transform="matrix(1.0, 0.0, 0.0, 1.0, -42.05, -123.2)" width="169.1" xlink:href="#shape2"/>
  </g>
  <defs>
    <g id="shape0" transform="matrix(1.0, 0.0, 0.0, 1.0, -8.85, 127.05)">
      <path d="M166.45 -123.65 Q150.45 -123.45 135.15 -120.95 L124.6 -119.1 118.0 -117.85 113.1 -116.9 Q110.15 -116.2 108.4 -115.55 106.35 -114.75 103.7 -114.1 L100.5 -113.25 97.5 -112.55 94.3 -111.3 91.1 -109.9 91.4 -111.05 124.6 -125.15 Q147.35 -125.8 166.45 -123.65 M117.55 -107.4 L117.85 -109.8 118.2 -110.85 Q118.7 -112.1 119.65 -112.05 120.5 -112.0 121.75 -110.6 138.35 -111.0 154.0 -110.0 153.45 -108.7 153.45 -105.7 L153.55 -102.7 Q150.95 -101.5 148.95 -101.3 L136.75 -100.15 Q127.45 -100.05 124.0 -101.3 120.05 -102.75 117.55 -107.4 M81.6 -101.6 L75.1 -101.1 64.05 -100.6 63.9 -100.6 Q56.35 -100.55 51.55 -101.95 46.9 -103.4 45.25 -106.15 45.15 -108.45 45.7 -109.5 46.75 -111.75 48.85 -109.4 L52.7 -109.5 52.7 -109.05 55.65 -107.75 60.65 -105.4 60.6 -105.35 60.7 -105.3 79.65 -105.45 79.65 -106.7 80.85 -106.45 81.45 -105.85 Q81.35 -104.0 81.6 -101.6 M216.35 -111.0 L216.95 -114.3 Q225.95 -115.8 234.65 -114.4 236.45 -110.25 236.65 -106.0 L235.0 -105.7 234.65 -110.2 Q234.55 -112.2 234.25 -112.2 234.0 -112.2 233.9 -110.2 233.7 -108.25 233.65 -105.6 L227.9 -105.35 223.35 -105.35 217.3 -105.8 216.05 -105.8 216.35 -111.0" fill="#549900" fill-rule="evenodd" stroke="none"/>
      <path d="M91.1 -109.9 L94.3 -111.3 97.5 -112.55 100.5 -113.25 103.7 -114.1 Q106.35 -114.75 108.4 -115.55 110.15 -116.2 113.1 -116.9 L118.0 -117.85 124.6 -119.1 135.15 -120.95 Q150.45 -123.45 166.45 -123.65 L173.4 -122.75 Q130.2 -118.1 93.65 -109.95 L91.1 -109.8 91.1 -109.9 M117.75 -101.25 Q117.5 -103.9 117.6 -105.9 L117.55 -107.4 Q120.05 -102.75 124.0 -101.3 127.45 -100.05 136.75 -100.15 L148.95 -101.3 Q150.95 -101.5 153.55 -102.7 L153.8 -100.75 Q153.95 -99.5 154.25 -98.7 L138.25 -97.7 134.85 -97.65 128.75 -97.6 122.2 -97.7 Q120.9 -96.25 119.95 -96.15 118.85 -96.1 118.25 -98.45 L117.85 -99.95 117.75 -101.25 M81.6 -101.6 L81.8 -100.35 Q81.95 -99.1 82.25 -98.25 66.05 -97.3 49.25 -98.1 47.15 -95.55 46.05 -97.8 45.7 -98.75 45.5 -100.15 45.1 -103.8 45.25 -106.15 46.9 -103.4 51.55 -101.95 56.35 -100.55 63.9 -100.6 L64.05 -100.6 75.1 -101.1 81.6 -101.6 M236.65 -106.0 Q236.8 -101.05 234.75 -96.15 226.55 -95.2 217.05 -96.0 L216.65 -98.35 216.35 -101.4 Q216.05 -103.6 216.05 -105.8 L217.3 -105.8 223.35 -105.35 227.9 -105.35 233.65 -105.6 233.7 -105.25 Q233.7 -102.35 234.0 -100.35 234.1 -98.35 234.3 -98.4 234.6 -98.35 234.75 -100.35 L234.95 -105.3 235.0 -105.7 236.65 -106.0" fill="#356600" fill-rule="evenodd" stroke="none"/>
      <path d="M91.4 -111.05 L91.1 -109.9 91.1 -109.8 89.6 -104.2 81.4 -106.3 80.85 -106.45 79.65 -106.7 79.55 -117.65 79.65 -106.7 79.65 -105.45 60.7 -105.3 60.6 -105.35 60.65 -105.4 60.8 -105.45 60.75 -110.9 Q61.4 -113.0 63.05 -114.25 65.05 -115.7 68.9 -116.35 L75.9 -117.15 79.55 -117.65 79.55 -117.75 74.3 -120.2 74.45 -120.85 92.75 -116.05 91.4 -111.05 M90.05 -115.35 L89.5 -115.8 88.9 -115.95 89.5 -115.8 90.05 -115.35 M86.3 -111.6 L85.7 -112.2 85.25 -112.3 85.7 -112.2 86.3 -111.6 M90.4 -113.6 L90.2 -114.2 89.7 -114.55 90.2 -114.2 90.4 -113.6 M91.3 -114.75 L91.05 -115.25 91.3 -114.75 M66.25 -121.45 L67.55 -126.55 70.5 -124.15 69.9 -123.9 68.05 -121.5 66.25 -121.45 M77.25 -116.4 L76.5 -116.7 75.95 -116.7 76.5 -116.7 77.25 -116.4 M78.6 -116.15 L78.35 -116.45 77.85 -116.75 78.35 -116.45 78.6 -116.15 M78.05 -114.7 L77.55 -115.3 77.05 -115.55 77.55 -115.3 78.05 -114.7 M62.85 -106.8 Q62.5 -107.3 62.1 -107.2 62.5 -107.3 62.85 -106.8" fill="#e9f0a5" fill-rule="evenodd" stroke="none"/>
      <path d="M91.1 -109.8 L93.65 -109.95 Q105.55 -110.2 117.85 -109.8 L117.55 -107.4 117.6 -105.9 Q117.5 -103.9 117.75 -101.25 L111.6 -101.0 103.7 -100.65 103.4 -100.7 102.9 -100.65 90.8 -101.05 Q86.55 -101.4 84.45 -103.0 83.5 -103.55 82.5 -104.6 L81.45 -105.85 81.4 -106.3 89.6 -104.2 91.1 -109.8 M154.0 -110.0 L153.95 -110.15 Q154.95 -112.4 157.1 -110.05 172.95 -110.7 189.9 -110.15 189.6 -108.75 189.6 -106.4 L189.7 -104.65 190.0 -101.0 189.25 -100.85 184.25 -100.4 174.7 -100.95 167.45 -101.15 Q163.6 -100.9 159.1 -102.45 155.45 -103.8 153.45 -105.7 153.45 -108.7 154.0 -110.0" fill="#296905" fill-rule="evenodd" stroke="none"/>
      <path d="M81.45 -105.85 L82.5 -104.6 Q83.5 -103.55 84.45 -103.0 86.55 -101.4 90.8 -101.05 L102.9 -100.65 103.4 -100.7 103.7 -100.65 111.6 -101.0 117.75 -101.25 117.85 -99.95 118.25 -98.45 Q102.15 -97.55 85.5 -98.3 83.25 -95.65 82.25 -98.25 81.95 -99.1 81.8 -100.35 L81.6 -101.6 Q81.35 -104.0 81.45 -105.85 M190.4 -98.9 Q174.25 -98.0 157.5 -98.7 155.35 -96.1 154.25 -98.7 153.95 -99.5 153.8 -100.75 L153.55 -102.7 153.45 -105.7 Q155.45 -103.8 159.1 -102.45 163.6 -100.9 167.45 -101.15 L174.7 -100.95 184.25 -100.4 189.25 -100.85 190.0 -101.0 190.1 -100.25 190.4 -98.9" fill="#1c4d03" fill-rule="evenodd" stroke="none"/>
      <path d="M67.55 -126.55 L85.8 -121.8 92.75 -116.05 74.45 -120.85 70.5 -124.15 67.55 -126.55 M74.3 -120.2 L79.55 -117.75 79.55 -117.65 75.9 -117.15 68.9 -116.35 Q65.05 -115.7 63.05 -114.25 61.4 -113.0 60.75 -110.9 L60.75 -115.1 60.7 -117.7 60.6 -117.7 60.55 -117.6 52.6 -121.35 66.25 -121.45 68.05 -121.5 71.45 -121.45 73.05 -120.7 74.3 -120.2 M71.85 -124.3 L71.6 -124.65 71.85 -124.3 M73.1 -124.3 L72.6 -124.4 73.1 -124.3 M74.65 -118.25 L74.95 -118.0 75.1 -117.75 60.7 -117.7 75.1 -117.75 74.95 -118.0 74.65 -118.25 M58.55 -120.6 L58.0 -120.65 58.55 -120.6 M57.3 -120.35 L57.0 -120.6 57.3 -120.35 M73.25 -120.2 L73.05 -120.7 73.25 -120.2 M75.4 -118.8 L75.1 -119.3 75.4 -118.8 M79.55 -117.75 L75.1 -117.75 79.55 -117.75 M62.2 -116.0 L61.75 -116.25 62.2 -116.0 M62.25 -114.75 Q61.95 -114.95 61.95 -115.1 61.95 -114.95 62.25 -114.75" fill="#ffffff" fill-rule="evenodd" stroke="none"/>
      <path d="M45.25 -106.15 Q45.1 -103.8 45.5 -100.15 43.1 -99.2 40.05 -98.55 L31.7 -98.05 22.2 -98.65 15.9 -99.3 Q11.45 -99.75 9.35 -104.05 L9.4 -105.9 Q9.35 -110.85 10.4 -112.85 11.0 -114.55 12.2 -114.3 13.35 -114.25 15.0 -112.15 32.95 -111.3 45.7 -109.5 45.15 -108.45 45.25 -106.15" fill="#1f8200" fill-rule="evenodd" stroke="none"/>
      <path d="M45.5 -100.15 Q45.7 -98.75 46.05 -97.8 33.95 -95.7 15.6 -94.8 14.0 -92.7 12.8 -92.6 10.65 -92.45 9.9 -97.7 L9.35 -104.05 Q11.45 -99.75 15.9 -99.3 L22.2 -98.65 31.7 -98.05 40.05 -98.55 Q43.1 -99.2 45.5 -100.15" fill="#155900" fill-rule="evenodd" stroke="none"/>
      <path d="M74.45 -120.85 L74.3 -120.2 73.05 -120.7 71.45 -121.45 68.05 -121.5 69.9 -123.9 70.5 -124.15 74.45 -120.85 M52.7 -109.5 L52.6 -121.35 60.55 -117.6 60.6 -117.7 60.7 -117.7 60.75 -115.1 Q59.7 -112.65 58.25 -110.55 56.75 -108.5 55.65 -107.75 L52.7 -109.05 52.7 -109.5 M59.8 -116.7 Q59.7 -117.0 59.4 -117.0 59.7 -117.0 59.8 -116.7" fill="#ccd673" fill-rule="evenodd" stroke="none"/>
      <path d="M60.65 -105.4 L55.65 -107.75 Q56.75 -108.5 58.25 -110.55 59.7 -112.65 60.75 -115.1 L60.75 -110.9 60.8 -105.45 60.65 -105.4" fill="#b7c46a" fill-rule="evenodd" stroke="none"/>
      <path d="M189.9 -110.15 L190.4 -111.4 Q190.95 -112.7 191.8 -112.65 192.75 -112.75 193.95 -111.15 205.6 -111.35 216.35 -111.0 L216.05 -105.8 Q216.05 -103.6 216.35 -101.4 L205.6 -101.15 196.45 -101.9 Q191.5 -102.85 189.7 -104.65 L189.6 -106.4 Q189.6 -108.75 189.9 -110.15 M141.55 -97.15 Q162.95 -95.45 187.25 -95.9 L185.8 -95.45 182.05 -95.05 173.5 -94.55 154.45 -95.5 141.55 -97.15" fill="#7d8513" fill-rule="evenodd" stroke="none"/>
      <path d="M216.65 -98.35 Q206.15 -97.75 194.45 -97.9 193.15 -96.45 192.3 -96.45 191.0 -96.35 190.4 -98.9 L190.1 -100.25 190.0 -101.0 189.7 -104.65 Q191.5 -102.85 196.45 -101.9 L205.6 -101.15 216.35 -101.4 216.65 -98.35 M134.85 -97.65 L141.55 -97.15 154.45 -95.5 173.5 -94.55 182.05 -95.05 185.8 -95.45 Q171.9 -91.75 154.65 -90.25 L128.75 -97.6 134.85 -97.65" fill="#52590c" fill-rule="evenodd" stroke="none"/>
      <path d="M235.0 -105.7 L234.95 -105.3 234.75 -100.35 Q234.6 -98.35 234.3 -98.4 234.1 -98.35 234.0 -100.35 233.7 -102.35 233.7 -105.25 L233.65 -105.6 Q233.7 -108.25 233.9 -110.2 234.0 -112.2 234.25 -112.2 234.55 -112.2 234.65 -110.2 L235.0 -105.7" fill="#172b06" fill-rule="evenodd" stroke="none"/>
      <path d="M166.45 -123.65 Q147.35 -125.8 124.6 -125.15 L91.4 -111.05 91.1 -109.9 91.1 -109.8 93.65 -109.95 Q130.2 -118.1 173.4 -122.75 L166.45 -123.65 M89.7 -114.55 L90.2 -114.2 90.4 -113.6 M85.25 -112.3 L85.7 -112.2 86.3 -111.6 M88.9 -115.95 L89.5 -115.8 90.05 -115.35 M81.4 -106.3 L81.45 -105.85 Q81.35 -104.0 81.6 -101.6 L81.8 -100.35 Q81.95 -99.1 82.25 -98.25 83.25 -95.65 85.5 -98.3 102.15 -97.55 118.25 -98.45 L117.85 -99.95 117.75 -101.25 Q117.5 -103.9 117.6 -105.9 L117.55 -107.4 117.85 -109.8 Q105.55 -110.2 93.65 -109.95 M45.25 -106.15 Q45.1 -103.8 45.5 -100.15 45.7 -98.75 46.05 -97.8 47.15 -95.55 49.25 -98.1 66.05 -97.3 82.25 -98.25 M91.1 -109.8 L89.6 -104.2 81.4 -106.3 80.85 -106.45 79.65 -106.7 79.65 -105.45 60.7 -105.3 60.6 -105.35 60.65 -105.4 60.8 -105.45 60.75 -110.9 60.75 -115.1 60.7 -117.7 75.1 -117.75 74.95 -118.0 74.65 -118.25 M92.75 -116.05 L91.4 -111.05 M67.55 -126.55 L85.8 -121.8 92.75 -116.05 74.45 -120.85 74.3 -120.2 79.55 -117.75 79.55 -117.65 79.65 -106.7 M91.05 -115.25 L91.3 -114.75 M117.85 -109.8 L118.2 -110.85 Q118.7 -112.1 119.65 -112.05 120.5 -112.0 121.75 -110.6 138.35 -111.0 154.0 -110.0 L153.95 -110.15 Q154.95 -112.4 157.1 -110.05 172.95 -110.7 189.9 -110.15 L190.4 -111.4 Q190.95 -112.7 191.8 -112.65 192.75 -112.75 193.95 -111.15 205.6 -111.35 216.35 -111.0 L216.95 -114.3 Q225.95 -115.8 234.65 -114.4 236.45 -110.25 236.65 -106.0 236.8 -101.05 234.75 -96.15 226.55 -95.2 217.05 -96.0 L216.65 -98.35 Q206.15 -97.75 194.45 -97.9 193.15 -96.45 192.3 -96.45 191.0 -96.35 190.4 -98.9 174.25 -98.0 157.5 -98.7 155.35 -96.1 154.25 -98.7 L138.25 -97.7 134.85 -97.65 141.55 -97.15 Q162.95 -95.45 187.25 -95.9 L185.8 -95.45 Q171.9 -91.75 154.65 -90.25 L128.75 -97.6 122.2 -97.7 Q120.9 -96.25 119.95 -96.15 118.85 -96.1 118.25 -98.45 M153.55 -102.7 L153.45 -105.7 Q153.45 -108.7 154.0 -110.0 M154.25 -98.7 Q153.95 -99.5 153.8 -100.75 L153.55 -102.7 M190.0 -101.0 L189.7 -104.65 189.6 -106.4 Q189.6 -108.75 189.9 -110.15 M9.35 -104.05 L9.4 -105.9 Q9.35 -110.85 10.4 -112.85 11.0 -114.55 12.2 -114.3 13.35 -114.25 15.0 -112.15 32.95 -111.3 45.7 -109.5 46.75 -111.75 48.85 -109.4 L52.7 -109.5 52.6 -121.35 66.25 -121.45 67.55 -126.55 70.5 -124.15 74.45 -120.85 M71.6 -124.65 L71.85 -124.3 M68.05 -121.5 L71.45 -121.45 73.05 -120.7 74.3 -120.2 M72.6 -124.4 L73.1 -124.3 M52.6 -121.35 L60.55 -117.6 60.6 -117.7 60.7 -117.7 M59.4 -117.0 Q59.7 -117.0 59.8 -116.7 M57.0 -120.6 L57.3 -120.35 M58.0 -120.65 L58.55 -120.6 M45.7 -109.5 Q45.15 -108.45 45.25 -106.15 M55.65 -107.75 L52.7 -109.05 52.7 -109.5 M60.65 -105.4 L55.65 -107.75 M75.1 -119.3 L75.4 -118.8 M73.05 -120.7 L73.25 -120.2 M77.05 -115.55 L77.55 -115.3 78.05 -114.7 M77.85 -116.75 L78.35 -116.45 78.6 -116.15 M75.95 -116.7 L76.5 -116.7 77.25 -116.4 M75.1 -117.75 L79.55 -117.75 M66.25 -121.45 L68.05 -121.5 M61.95 -115.1 Q61.95 -114.95 62.25 -114.75 M61.75 -116.25 L62.2 -116.0 M62.1 -107.2 Q62.5 -107.3 62.85 -106.8 M46.05 -97.8 Q33.95 -95.7 15.6 -94.8 14.0 -92.7 12.8 -92.6 10.65 -92.45 9.9 -97.7 L9.35 -104.05 M128.75 -97.6 L134.85 -97.65 M190.4 -98.9 L190.1 -100.25 190.0 -101.0 M216.35 -101.4 Q216.05 -103.6 216.05 -105.8 L216.35 -111.0 M235.0 -105.7 L234.95 -105.3 234.75 -100.35 Q234.6 -98.35 234.3 -98.4 234.1 -98.35 234.0 -100.35 233.7 -102.35 233.7 -105.25 L233.65 -105.6 Q233.7 -108.25 233.9 -110.2 234.0 -112.2 234.25 -112.2 234.55 -112.2 234.65 -110.2 L235.0 -105.7 M216.35 -101.4 L216.65 -98.35" fill="none" stroke="#000000" stroke-linecap="round" stroke-linejoin="round" stroke-opacity="0.6627451" stroke-width="1.0"/>
    </g>
    <g id="sprite0" transform="matrix(1.0, 0.0, 0.0, 1.0, 254.55, 41.4)">
      <use height="82.8" transform="matrix(1.0, 0.0, 0.0, 1.0, -254.55, -41.4)" width="509.1" xlink:href="#shape1"/>
    </g>
    <g id="shape1" transform="matrix(1.0, 0.0, 0.0, 1.0, 254.55, 41.4)">
      <path d="M69.45 -3.15 L69.55 -3.35 Q71.85 -8.45 76.5 -3.05 112.25 -4.45 150.2 -3.0 149.5 0.25 149.5 5.55 L149.6 9.25 Q149.75 12.95 150.2 17.45 L150.4 19.2 150.9 22.25 Q114.65 24.15 77.25 22.35 72.35 28.05 70.0 22.4 69.35 20.6 68.9 17.65 L68.5 13.25 Q68.2 9.6 68.2 6.65 68.15 -0.1 69.45 -3.15" fill="url(#gradient0)" fill-rule="evenodd" stroke="none"/>
      <path d="M-70.65 -6.35 L3.95 -37.5 Q54.95 -38.75 97.8 -33.45 L113.3 -31.3 Q16.4 -21.55 -65.5 -3.6 L-71.45 -3.45 -70.65 -6.35" fill="url(#gradient1)" fill-rule="evenodd" stroke="none"/>
      <path d="M209.4 -4.4 L210.65 -11.95 Q230.95 -14.95 250.25 -11.95 254.25 -2.4 254.55 7.2 254.85 18.15 250.25 29.15 231.9 31.1 210.65 29.15 L209.8 23.9 Q209.3 20.5 209.05 17.1 208.6 12.15 208.7 7.3 208.7 1.4 209.4 -4.4 M250.35 -2.4 Q249.95 -6.95 249.4 -6.95 248.8 -6.95 248.45 -2.4 248.05 1.9 248.0 7.8 L248.0 8.6 Q248.0 15.05 248.45 19.6 248.8 24.15 249.4 24.15 249.95 24.15 250.35 19.6 250.75 15.05 250.75 8.6 L250.75 7.6 250.35 -2.4" fill="url(#gradient2)" fill-rule="evenodd" stroke="none"/>
      <path d="M250.35 -2.4 L250.75 7.6 250.75 8.6 Q250.75 15.05 250.35 19.6 249.95 24.15 249.4 24.15 248.8 24.15 248.45 19.6 248.0 15.05 248.0 8.6 L248.0 7.8 Q248.05 1.9 248.45 -2.4 248.8 -6.95 249.4 -6.95 249.95 -6.95 250.35 -2.4" fill="url(#gradient3)" fill-rule="evenodd" stroke="none"/>
      <path d="M26.65 24.3 L41.5 25.65 Q89.45 29.65 143.85 29.15 L140.65 30.0 Q109.5 38.1 70.85 41.4 L12.7 24.35 26.65 24.3" fill="url(#gradient4)" fill-rule="evenodd" stroke="none"/>
      <path d="M-157.4 -3.35 L-157.4 -30.0 -139.6 -21.5 -139.5 -21.45 -139.2 -21.4 -139.2 6.1 -139.5 6.05 -157.4 -2.5 -157.4 -3.35 M-139.8 -3.5 L-139.75 -3.8 -139.8 -3.7 -139.8 -3.5" fill="url(#gradient5)" fill-rule="evenodd" stroke="none"/>
      <path d="M-139.2 -21.4 L-97.05 -21.4 -97.05 3.25 -97.05 6.15 -139.6 6.15 -139.6 6.05 -139.5 6.05 -139.2 6.1 -139.2 -21.4" fill="url(#gradient6)" fill-rule="evenodd" stroke="none"/>
      <path d="M-157.4 -30.0 L-126.85 -30.0 -115.1 -30.0 -108.8 -27.0 -97.05 -21.4 -139.2 -21.4 -139.45 -21.45 -139.6 -21.5 -157.4 -30.0" fill="url(#gradient7)" fill-rule="evenodd" stroke="none"/>
      <path d="M-123.8 -41.4 L-82.95 -30.45 -67.7 -17.45 -108.45 -28.35 -108.45 -28.4 -108.55 -28.45 -108.65 -28.55 -108.7 -28.55 -123.8 -41.4" fill="url(#gradient8)" fill-rule="evenodd" stroke="none"/>
      <path d="M-67.7 -17.45 L-70.65 -6.35 -71.45 -3.45 -74.85 9.15 -93.05 4.3 -94.35 3.95 -97.05 3.25 -97.05 -21.4 -108.8 -27.0 -108.45 -28.35 -67.7 -17.45" fill="url(#gradient9)" fill-rule="evenodd" stroke="none"/>
      <path d="M-126.85 -30.0 L-123.8 -41.4 -108.7 -28.55 -108.55 -28.45 -108.45 -28.35 -108.8 -27.0 -115.1 -30.0 -126.85 -30.0" fill="url(#gradient10)" fill-rule="evenodd" stroke="none"/>
      <path d="M-172.35 22.75 Q-199.5 27.3 -240.75 29.0 -244.3 33.7 -247.0 34.0 -251.65 34.45 -253.35 22.6 -254.25 14.65 -254.45 8.45 L-254.55 4.1 Q-254.55 -6.85 -252.3 -11.35 -250.6 -15.1 -248.05 -14.75 -245.35 -14.45 -241.75 -9.75 -201.6 -7.75 -172.95 -3.45 L-173.0 -3.35 Q-174.15 -0.95 -174.3 4.15 -174.5 9.45 -173.65 17.65 -173.15 20.85 -172.35 22.75" fill="url(#gradient11)" fill-rule="evenodd" stroke="none"/>
      <path d="M70.0 22.4 L34.25 24.2 26.65 24.3 12.7 24.35 -1.85 24.1 Q-4.65 27.4 -6.75 27.45 -9.35 27.5 -10.7 22.3 L-11.4 18.95 -11.65 16.0 Q-12.2 10.1 -12.15 5.7 L-12.1 2.35 Q-11.95 -0.85 -11.4 -3.05 L-10.6 -5.45 Q-9.35 -8.25 -7.45 -8.15 -5.5 -8.1 -2.65 -4.85 34.6 -5.4 69.45 -3.15 68.15 -0.1 68.2 6.65 68.2 9.6 68.5 13.25 L68.9 17.65 Q69.35 20.6 70.0 22.4" fill="url(#gradient12)" fill-rule="evenodd" stroke="none"/>
      <path d="M150.2 -3.0 Q150.6 -4.7 151.1 -5.8 152.35 -8.7 154.3 -8.6 156.4 -8.55 159.25 -5.2 185.1 -5.45 209.4 -4.4 208.7 1.4 208.7 7.3 208.6 12.15 209.05 17.1 209.3 20.5 209.8 23.9 186.35 24.95 160.05 24.45 157.2 27.85 155.1 27.9 152.3 28.0 150.9 22.25 L150.4 19.2 150.2 17.45 Q149.75 12.95 149.6 9.25 L149.5 5.55 Q149.5 0.25 150.2 -3.0" fill="url(#gradient13)" fill-rule="evenodd" stroke="none"/>
      <path d="M-10.7 22.3 Q-46.75 24.1 -84.05 22.35 -89.05 28.1 -91.3 22.25 -91.95 20.45 -92.4 17.65 L-92.65 14.85 Q-93.15 9.3 -93.05 5.3 L-93.05 4.3 -74.85 9.15 -71.45 -3.45 -65.5 -3.6 Q-39.05 -4.05 -11.4 -3.05 -11.95 -0.85 -12.1 2.35 L-12.15 5.7 Q-12.2 10.1 -11.65 16.0 L-11.4 18.95 -10.7 22.3" fill="url(#gradient14)" fill-rule="evenodd" stroke="none"/>
      <path d="M-91.3 22.25 Q-127.65 24.15 -165.25 22.35 -170.05 27.85 -172.35 22.75 -173.15 20.85 -173.65 17.65 -174.5 9.45 -174.3 4.15 -174.15 -0.95 -173.0 -3.35 L-172.95 -3.45 Q-170.7 -8.4 -165.95 -3.05 L-157.4 -3.35 -157.4 -2.5 -139.5 6.05 -139.6 6.05 -139.6 6.15 -97.05 6.15 -97.05 3.25 -94.35 3.95 -93.05 5.3 Q-93.15 9.3 -92.65 14.85 L-92.4 17.65 Q-91.95 20.45 -91.3 22.25" fill="url(#gradient15)" fill-rule="evenodd" stroke="none"/>
    </g>
    <linearGradient gradientTransform="matrix(0.0505, 0.0, 0.0, 0.019, 109.55, 9.65)" gradientUnits="userSpaceOnUse" id="gradient0" spreadMethod="pad" x1="-819.2" x2="819.2">
      <stop offset="0.0" stop-color="#000000"/>
      <stop offset="1.0" stop-color="#ffffff"/>
    </linearGradient>
    <linearGradient gradientTransform="matrix(0.1128, 0.0, 0.0, 0.0209, 20.9, -20.6)" gradientUnits="userSpaceOnUse" id="gradient1" spreadMethod="pad" x1="-819.2" x2="819.2">
      <stop offset="0.0" stop-color="#000000"/>
      <stop offset="1.0" stop-color="#ffffff"/>
    </linearGradient>
    <linearGradient gradientTransform="matrix(0.028, 0.0, 0.0, 0.0266, 231.6, 8.3)" gradientUnits="userSpaceOnUse" id="gradient2" spreadMethod="pad" x1="-819.2" x2="819.2">
      <stop offset="0.0" stop-color="#000000"/>
      <stop offset="1.0" stop-color="#ffffff"/>
    </linearGradient>
    <linearGradient gradientTransform="matrix(0.0017, 0.0, 0.0, 0.019, 249.35, 8.6)" gradientUnits="userSpaceOnUse" id="gradient3" spreadMethod="pad" x1="-819.2" x2="819.2">
      <stop offset="0.0" stop-color="#000000"/>
      <stop offset="1.0" stop-color="#ffffff"/>
    </linearGradient>
    <linearGradient gradientTransform="matrix(0.08, 0.0, 0.0, 0.0104, 78.25, 32.85)" gradientUnits="userSpaceOnUse" id="gradient4" spreadMethod="pad" x1="-819.2" x2="819.2">
      <stop offset="0.0" stop-color="#000000"/>
      <stop offset="1.0" stop-color="#ffffff"/>
    </linearGradient>
    <linearGradient gradientTransform="matrix(-0.0111, 0.0, 0.0, -0.022, -148.3, -11.95)" gradientUnits="userSpaceOnUse" id="gradient5" spreadMethod="pad" x1="-819.2" x2="819.2">
      <stop offset="0.0" stop-color="#000000"/>
      <stop offset="1.0" stop-color="#ffffff"/>
    </linearGradient>
    <linearGradient gradientTransform="matrix(0.0, -0.0156, 0.0168, 0.0, -118.4, -7.6)" gradientUnits="userSpaceOnUse" id="gradient6" spreadMethod="pad" x1="-819.2" x2="819.2">
      <stop offset="0.0" stop-color="#000000"/>
      <stop offset="1.0" stop-color="#ffffff"/>
    </linearGradient>
    <linearGradient gradientTransform="matrix(0.0, -0.0057, 0.0052, 0.0, -127.25, -25.7)" gradientUnits="userSpaceOnUse" id="gradient7" spreadMethod="pad" x1="-819.2" x2="819.2">
      <stop offset="0.0" stop-color="#000000"/>
      <stop offset="1.0" stop-color="#ffffff"/>
    </linearGradient>
    <linearGradient gradientTransform="matrix(0.0016, -0.0058, 0.0141, 0.0038, -95.75, -29.45)" gradientUnits="userSpaceOnUse" id="gradient8" spreadMethod="pad" x1="-819.2" x2="819.2">
      <stop offset="0.0" stop-color="#000000"/>
      <stop offset="1.0" stop-color="#ffffff"/>
    </linearGradient>
    <linearGradient gradientTransform="matrix(0.0047, -0.0176, 0.0221, 0.0059, -88.25, -9.6)" gradientUnits="userSpaceOnUse" id="gradient9" spreadMethod="pad" x1="-819.2" x2="819.2">
      <stop offset="0.0" stop-color="#000000"/>
      <stop offset="1.0" stop-color="#ffffff"/>
    </linearGradient>
    <linearGradient gradientTransform="matrix(-0.0097, -0.0056, 0.0044, -0.0076, -117.65, -34.15)" gradientUnits="userSpaceOnUse" id="gradient10" spreadMethod="pad" x1="-819.2" x2="819.2">
      <stop offset="0.0" stop-color="#000000"/>
      <stop offset="1.0" stop-color="#ffffff"/>
    </linearGradient>
    <linearGradient gradientTransform="matrix(0.0502, 0.0, 0.0, 0.0298, -213.45, 9.6)" gradientUnits="userSpaceOnUse" id="gradient11" spreadMethod="pad" x1="-819.2" x2="819.2">
      <stop offset="0.0" stop-color="#000000" stop-opacity="0.8117647"/>
      <stop offset="1.0" stop-color="#ffffff"/>
    </linearGradient>
    <linearGradient gradientTransform="matrix(0.0501, 0.0, 0.0, 0.0217, 28.9, 9.65)" gradientUnits="userSpaceOnUse" id="gradient12" spreadMethod="pad" x1="-819.2" x2="819.2">
      <stop offset="0.0" stop-color="#000000" stop-opacity="0.6431373"/>
      <stop offset="1.0" stop-color="#ffffff"/>
    </linearGradient>
    <linearGradient gradientTransform="matrix(0.0368, 0.0, 0.0, 0.0223, 179.65, 9.65)" gradientUnits="userSpaceOnUse" id="gradient13" spreadMethod="pad" x1="-819.2" x2="819.2">
      <stop offset="0.0" stop-color="#000000" stop-opacity="0.7607843"/>
      <stop offset="1.0" stop-color="#ffffff"/>
    </linearGradient>
    <linearGradient gradientTransform="matrix(0.0503, 0.0, 0.0, 0.0177, -51.9, 10.7)" gradientUnits="userSpaceOnUse" id="gradient14" spreadMethod="pad" x1="-819.2" x2="819.2">
      <stop offset="0.0" stop-color="#000000" stop-opacity="0.7529412"/>
      <stop offset="1.0" stop-color="#ffffff"/>
    </linearGradient>
    <linearGradient gradientTransform="matrix(0.0507, 0.0, 0.0, 0.019, -132.85, 9.65)" gradientUnits="userSpaceOnUse" id="gradient15" spreadMethod="pad" x1="-819.2" x2="819.2">
      <stop offset="0.0" stop-color="#000000" stop-opacity="0.62352943"/>
      <stop offset="1.0" stop-color="#ffffff"/>
    </linearGradient>
    <g id="shape2" transform="matrix(1.0, 0.0, 0.0, 1.0, 42.05, 123.2)">
      <path d="M112.7 -95.2 L112.0 -98.6 111.15 -103.4 110.7 -104.45 109.7 -108.25 108.55 -112.2 107.95 -113.55 107.05 -115.0 Q105.25 -116.05 103.35 -115.5 L102.7 -115.4 100.7 -114.6 99.1 -113.6 Q98.65 -112.75 99.15 -109.55 L99.15 -109.5 Q99.6 -106.2 101.35 -100.2 102.75 -95.4 103.65 -93.4 L103.85 -93.0 Q105.1 -90.2 105.9 -89.95 L110.25 -90.35 112.85 -91.3 113.85 -91.5 112.7 -95.2 M99.7 -116.55 L101.75 -117.45 106.25 -117.8 Q107.5 -117.65 108.2 -117.05 L109.45 -116.1 Q110.2 -114.65 110.5 -112.6 L110.55 -112.2 111.0 -109.25 Q111.95 -113.65 117.25 -114.75 L119.65 -115.15 121.5 -115.15 122.25 -114.8 122.8 -114.5 125.25 -112.7 125.5 -112.35 126.1 -110.7 126.75 -107.5 126.95 -105.6 127.05 -101.7 127.05 -100.4 Q127.15 -92.4 125.8 -90.3 125.2 -89.3 124.05 -89.05 L121.6 -88.7 117.2 -88.05 Q115.95 -88.05 115.3 -88.8 L114.8 -89.5 114.55 -89.3 113.3 -88.7 Q112.0 -88.1 111.2 -88.0 L108.25 -87.6 Q106.2 -87.25 104.9 -87.65 105.05 -86.0 104.1 -84.75 103.45 -83.9 101.85 -83.15 L99.2 -82.35 96.25 -81.65 Q92.2 -81.1 90.75 -82.25 90.25 -82.65 89.05 -85.2 L88.6 -86.15 Q87.0 -89.75 86.4 -92.5 L85.4 -100.25 Q84.95 -103.8 85.6 -105.55 86.1 -106.85 87.55 -107.5 L93.55 -108.95 96.65 -109.45 96.75 -109.45 96.75 -110.55 Q96.4 -113.9 97.35 -115.15 97.75 -115.65 99.7 -116.55 M102.35 -89.85 L102.25 -90.4 101.55 -91.9 Q101.0 -92.95 99.3 -98.55 97.6 -103.95 97.35 -105.35 L96.95 -107.7 96.2 -107.8 93.5 -107.25 90.75 -106.7 88.25 -105.95 Q87.3 -105.5 87.3 -103.1 87.35 -100.9 88.15 -97.8 L88.7 -93.8 Q89.3 -90.05 91.05 -86.3 L91.1 -86.2 Q92.35 -83.55 93.05 -83.25 L97.15 -83.55 101.15 -84.85 Q103.35 -85.85 102.6 -88.55 L102.35 -89.85 M124.8 -96.95 L124.55 -99.7 Q124.55 -105.95 124.25 -107.25 L123.7 -111.35 123.25 -111.75 122.9 -111.95 121.75 -112.5 119.8 -112.85 118.15 -112.75 115.85 -112.2 Q114.95 -111.95 114.25 -110.8 112.5 -107.65 114.7 -96.7 114.95 -95.1 115.35 -93.95 115.9 -91.7 116.3 -91.15 117.4 -89.85 121.1 -90.6 125.25 -91.4 125.05 -93.3 L124.8 -96.95" fill="#000000" fill-rule="evenodd" stroke="none"/>
      <path d="M103.65 -93.4 Q102.75 -95.4 101.35 -100.2 99.6 -106.2 99.15 -109.5 L99.15 -109.55 Q98.65 -112.75 99.1 -113.6 L100.7 -114.6 102.7 -115.4 103.35 -115.5 Q105.25 -116.05 107.05 -115.0 L107.95 -113.55 108.55 -112.2 109.7 -108.25 110.7 -104.45 111.15 -103.4 112.0 -98.6 112.7 -95.2 108.15 -94.55 Q105.05 -94.05 103.65 -93.4 M91.05 -86.3 Q89.3 -90.05 88.7 -93.8 L88.15 -97.8 Q87.35 -100.9 87.3 -103.1 87.3 -105.5 88.25 -105.95 L90.75 -106.7 93.5 -107.25 96.2 -107.8 96.95 -107.7 97.35 -105.35 Q97.6 -103.95 99.3 -98.55 101.0 -92.95 101.55 -91.9 L102.25 -90.4 102.35 -89.85 Q101.65 -88.9 100.35 -88.3 98.5 -87.45 97.4 -87.2 L93.55 -86.65 91.05 -86.3 M115.35 -93.95 Q114.95 -95.1 114.7 -96.7 112.5 -107.65 114.25 -110.8 114.95 -111.95 115.85 -112.2 L118.15 -112.75 119.8 -112.85 121.75 -112.5 122.9 -111.95 123.25 -111.75 123.7 -111.35 124.25 -107.25 Q124.55 -105.95 124.55 -99.7 L124.8 -96.95 Q123.2 -94.6 121.15 -93.65 119.65 -92.85 118.95 -92.65 L116.5 -92.75 115.35 -93.95" fill="#999999" fill-rule="evenodd" stroke="none"/>
      <path d="M103.65 -93.4 Q105.05 -94.05 108.15 -94.55 L112.7 -95.2 113.85 -91.5 112.85 -91.3 110.25 -90.35 105.9 -89.95 Q105.1 -90.2 103.85 -93.0 L103.65 -93.4 M91.05 -86.3 L93.55 -86.65 97.4 -87.2 Q98.5 -87.45 100.35 -88.3 101.65 -88.9 102.35 -89.85 L102.6 -88.55 Q103.35 -85.85 101.15 -84.85 L97.15 -83.55 93.05 -83.25 Q92.35 -83.55 91.1 -86.2 L91.05 -86.3 M115.35 -93.95 L116.5 -92.75 118.95 -92.65 Q119.65 -92.85 121.15 -93.65 123.2 -94.6 124.8 -96.95 L125.05 -93.3 Q125.25 -91.4 121.1 -90.6 117.4 -89.85 116.3 -91.15 115.9 -91.7 115.35 -93.95" fill="#bdbdbd" fill-rule="evenodd" stroke="none"/>
      <path d="M-40.7 -52.65 L-41.2 -52.45 -42.05 -52.1 Q-41.6 -53.9 -36.1 -57.1 -30.2 -60.5 -26.0 -61.25 L-19.45 -62.95 -11.95 -64.8 3.15 -67.1 9.65 -67.4 13.2 -77.75 15.55 -85.2 15.85 -85.9 Q14.25 -85.95 11.85 -86.8 9.5 -87.65 8.65 -88.45 8.05 -89.05 7.8 -90.05 L7.7 -91.7 Q7.65 -93.5 8.5 -97.05 9.3 -99.85 10.3 -100.95 12.3 -102.5 14.95 -102.2 L17.65 -101.95 18.65 -101.95 21.1 -101.65 Q21.8 -104.5 23.35 -109.0 L24.85 -113.1 25.55 -114.8 Q26.3 -116.6 27.75 -117.85 29.7 -119.55 32.2 -119.95 L33.25 -120.15 33.5 -120.2 Q41.1 -121.05 43.05 -119.45 43.6 -119.0 43.95 -117.9 L47.7 -118.15 47.85 -118.15 54.05 -118.0 55.2 -117.55 55.9 -117.05 56.05 -116.85 56.15 -117.35 Q56.05 -118.75 56.25 -119.85 56.45 -121.45 57.15 -122.3 L58.45 -123.05 Q63.1 -123.75 66.9 -121.3 L68.0 -120.45 68.45 -119.85 70.0 -117.05 70.1 -114.75 Q70.15 -113.05 68.2 -104.1 66.55 -96.05 65.9 -94.1 L62.75 -83.85 60.7 -77.3 Q57.3 -63.9 51.8 -51.3 L48.9 -44.9 Q46.6 -40.1 43.95 -35.5 L43.65 -35.0 42.7 -33.7 Q42.75 -32.8 37.95 -30.6 L35.95 -29.75 27.65 -26.35 Q21.7 -23.9 15.9 -22.2 L12.55 -21.25 8.95 -20.3 7.45 -19.95 Q-9.8 -17.25 -27.4 -18.15 L-31.1 -18.45 -34.75 -18.8 -36.7 -19.05 Q-37.05 -19.15 -37.25 -19.35 -37.65 -19.6 -37.55 -19.95 L-37.45 -20.4 -37.25 -20.55 -35.7 -20.75 -31.2 -20.35 -31.15 -20.35 Q-17.2 -19.35 -3.5 -20.9 L-0.45 -21.25 Q12.6 -22.95 24.95 -27.6 L31.8 -30.3 33.35 -30.85 Q35.45 -31.6 37.05 -32.6 37.8 -33.05 39.3 -33.7 L40.55 -34.2 40.65 -34.2 44.15 -40.05 Q46.35 -43.75 48.85 -50.05 L51.4 -56.85 57.4 -74.25 60.7 -84.5 64.0 -94.55 66.35 -104.35 Q68.35 -113.2 68.3 -114.8 68.3 -116.65 67.1 -118.35 L66.3 -119.3 Q64.65 -120.7 62.75 -121.0 61.05 -121.55 59.15 -121.05 58.25 -120.8 58.05 -119.85 L58.0 -119.15 57.85 -118.25 57.65 -115.65 57.45 -113.35 57.1 -112.35 57.1 -110.9 Q57.15 -108.25 56.4 -102.55 55.4 -95.5 54.2 -95.5 53.45 -95.5 53.3 -96.1 L53.2 -96.85 54.3 -101.7 Q55.4 -106.15 55.3 -110.85 L55.3 -111.75 55.25 -111.85 55.25 -112.35 55.2 -113.45 55.2 -113.55 54.95 -114.8 54.35 -115.8 53.85 -116.15 52.6 -116.5 47.9 -116.35 44.35 -116.15 44.6 -112.9 44.5 -109.7 44.0 -105.65 43.75 -101.65 Q43.4 -98.9 42.5 -98.9 41.9 -98.9 41.6 -99.7 L41.3 -100.5 Q41.3 -101.1 42.0 -103.6 L42.1 -105.1 42.35 -106.65 42.75 -112.8 Q42.7 -116.95 42.0 -117.7 41.25 -118.4 37.4 -118.35 L32.3 -118.0 32.2 -117.95 31.4 -117.75 Q29.0 -116.8 27.7 -114.4 26.3 -111.75 25.4 -109.0 L24.75 -107.35 23.1 -101.7 22.95 -100.65 Q22.25 -96.3 21.35 -96.3 20.55 -96.3 20.35 -96.95 L20.35 -97.7 20.65 -99.65 19.75 -99.9 11.6 -99.6 Q10.2 -96.25 9.65 -92.6 9.45 -91.4 9.85 -90.4 10.1 -89.7 10.95 -89.35 L16.55 -87.7 17.7 -84.8 14.55 -75.9 12.05 -68.35 Q11.35 -65.9 10.0 -63.65 L8.95 -61.95 8.75 -62.2 8.65 -62.55 8.7 -63.4 9.05 -65.45 5.05 -65.0 -4.0 -63.9 -13.2 -62.6 -19.15 -61.05 -21.55 -60.35 Q-23.8 -60.05 -25.95 -59.2 -30.25 -57.7 -34.5 -55.6 L-38.25 -53.65 Q-39.25 -53.2 -40.25 -52.85 L-40.7 -52.65" fill="#000000" fill-rule="evenodd" stroke="none"/>
      <path d="M-37.45 -20.4 L-37.75 -21.25 -39.7 -27.5 Q-41.85 -35.65 -41.9 -39.85 L-41.55 -46.5 Q-41.2 -51.1 -40.7 -52.65 L-40.25 -52.85 -39.3 -52.75 -37.55 -53.1 -35.0 -53.8 -28.2 -55.5 Q-15.55 -59.2 -2.8 -61.05 L-0.2 -61.25 3.35 -60.75 7.9 -60.15 11.0 -60.2 Q12.0 -61.4 13.25 -64.5 L15.2 -69.6 18.6 -78.1 Q20.1 -81.75 20.85 -85.5 L21.0 -87.55 20.7 -88.35 Q19.1 -89.7 17.0 -90.15 15.35 -90.6 13.3 -91.5 12.5 -91.7 12.0 -92.2 11.55 -92.7 11.5 -93.2 11.5 -93.75 12.7 -97.2 L13.15 -98.3 13.85 -99.3 14.4 -99.75 17.75 -99.75 19.85 -99.55 19.9 -99.55 20.65 -99.65 20.35 -97.7 20.35 -96.95 Q20.55 -96.3 21.35 -96.3 22.25 -96.3 22.95 -100.65 L24.0 -98.65 Q24.3 -98.15 26.65 -105.95 29.0 -113.8 32.3 -118.0 L37.4 -118.35 Q41.25 -118.4 42.0 -117.7 42.7 -116.95 42.75 -112.8 L42.35 -106.65 42.1 -105.1 42.0 -103.6 Q41.3 -101.1 41.3 -100.5 L41.6 -99.7 Q41.9 -98.9 42.5 -98.9 43.4 -98.9 43.75 -101.65 L44.0 -105.65 44.5 -109.7 44.6 -112.9 44.35 -116.15 47.9 -116.35 52.6 -116.5 53.85 -116.15 54.35 -115.8 54.95 -114.8 55.2 -113.55 55.2 -113.45 55.25 -112.35 55.25 -111.85 55.3 -111.75 55.3 -110.85 Q55.4 -106.15 54.3 -101.7 L53.2 -96.85 53.3 -96.1 Q53.45 -95.5 54.2 -95.5 55.4 -95.5 56.4 -102.55 57.15 -108.25 57.1 -110.9 L57.1 -112.35 57.45 -113.35 57.65 -115.65 57.85 -118.25 58.0 -119.15 58.05 -119.85 62.5 -119.85 64.95 -118.4 Q66.4 -117.25 66.3 -113.25 66.2 -109.25 60.7 -90.75 56.85 -77.55 54.2 -70.5 L49.55 -57.3 48.75 -55.2 45.3 -46.25 40.25 -35.75 39.3 -33.7 Q37.8 -33.05 37.05 -32.6 35.45 -31.6 33.35 -30.85 L31.8 -30.3 24.95 -27.6 Q12.6 -22.95 -0.45 -21.25 L-3.5 -20.9 Q-17.2 -19.35 -31.15 -20.35 L-31.2 -20.35 -35.7 -20.75 -37.25 -20.55 -37.45 -20.4" fill="#999999" fill-rule="evenodd" stroke="none"/>
      <path d="M-40.25 -52.85 Q-39.25 -53.2 -38.25 -53.65 L-34.5 -55.6 Q-30.25 -57.7 -25.95 -59.2 -23.8 -60.05 -21.55 -60.35 L-19.15 -61.05 -13.2 -62.6 -4.0 -63.9 5.05 -65.0 9.05 -65.45 8.7 -63.4 8.65 -62.55 8.75 -62.2 8.95 -61.95 10.0 -63.65 Q11.35 -65.9 12.05 -68.35 L14.55 -75.9 17.7 -84.8 16.55 -87.7 10.95 -89.35 Q10.1 -89.7 9.85 -90.4 9.45 -91.4 9.65 -92.6 10.2 -96.25 11.6 -99.6 L19.75 -99.9 20.65 -99.65 19.9 -99.55 19.85 -99.55 17.75 -99.75 14.4 -99.75 13.85 -99.3 13.15 -98.3 12.7 -97.2 Q11.5 -93.75 11.5 -93.2 11.55 -92.7 12.0 -92.2 12.5 -91.7 13.3 -91.5 15.35 -90.6 17.0 -90.15 19.1 -89.7 20.7 -88.35 L21.0 -87.55 20.85 -85.5 Q20.1 -81.75 18.6 -78.1 L15.2 -69.6 13.25 -64.5 Q12.0 -61.4 11.0 -60.2 L7.9 -60.15 3.35 -60.75 -0.2 -61.25 -2.8 -61.05 Q-15.55 -59.2 -28.2 -55.5 L-35.0 -53.8 -37.55 -53.1 -39.3 -52.75 -40.25 -52.85 M22.95 -100.65 L23.1 -101.7 24.75 -107.35 25.4 -109.0 Q26.3 -111.75 27.7 -114.4 29.0 -116.8 31.4 -117.75 L32.2 -117.95 32.3 -118.0 Q29.0 -113.8 26.65 -105.95 24.3 -98.15 24.0 -98.65 L22.95 -100.65 M58.05 -119.85 Q58.25 -120.8 59.15 -121.05 61.05 -121.55 62.75 -121.0 64.65 -120.7 66.3 -119.3 L67.1 -118.35 Q68.3 -116.65 68.3 -114.8 68.35 -113.2 66.35 -104.35 L64.0 -94.55 60.7 -84.5 57.4 -74.25 51.4 -56.85 48.85 -50.05 Q46.35 -43.75 44.15 -40.05 L40.65 -34.2 40.55 -34.2 39.3 -33.7 40.25 -35.75 45.3 -46.25 48.75 -55.2 49.55 -57.3 54.2 -70.5 Q56.85 -77.55 60.7 -90.75 66.2 -109.25 66.3 -113.25 66.4 -117.25 64.95 -118.4 L62.5 -119.85 58.05 -119.85" fill="#bdbdbd" fill-rule="evenodd" stroke="none"/>
    </g>
  </defs>
</svg>
