<?xml version="1.0" encoding="UTF-8" standalone="no"?>
<svg xmlns:xlink="http://www.w3.org/1999/xlink" height="531.5px" width="460.6px" xmlns="http://www.w3.org/2000/svg">
  <g transform="matrix(1.0, 0.0, 0.0, 1.0, 193.65, 334.05)">
    <use height="121.6" transform="matrix(0.4557, 0.0, 0.0, 0.4557, -68.8279, -27.7279)" width="285.85" xlink:href="#sprite0"/>
  </g>
  <defs>
    <g id="sprite0" transform="matrix(1.0, 0.0, 0.0, 1.0, 0.5, 0.5)">
      <use height="121.6" transform="matrix(1.0, 0.0, 0.0, 1.0, -0.5, -0.5)" width="285.85" xlink:href="#shape0"/>
      <use height="120.6" transform="matrix(1.0, 0.0, 0.0, 1.0, 0.0, 0.0)" width="284.85" xlink:href="#sprite1"/>
    </g>
    <g id="shape0" transform="matrix(1.0, 0.0, 0.0, 1.0, 0.5, 0.5)">
      <path d="M250.35 48.85 L249.6 48.85 Q248.35 51.1 248.1 53.3 L247.5 56.55 Q246.0 60.05 234.45 67.8 L231.4 60.85 Q225.35 64.15 215.85 61.95 L215.45 61.85 214.6 62.45 213.1 62.5 Q201.35 62.85 194.5 58.9 190.45 79.35 189.95 83.05 189.6 85.6 189.6 93.25 189.6 104.9 196.85 109.65 202.05 113.15 212.75 114.1 L213.3 120.1 Q198.3 122.55 183.5 112.6 185.0 81.6 192.25 57.35 L189.95 53.7 211.4 57.75 212.9 58.0 211.1 55.75 Q206.35 50.05 189.85 34.25 L185.8 30.35 186.8 25.5 187.4 25.2 186.8 25.5 185.8 30.35 Q185.45 32.45 185.25 34.45 L185.0 39.25 Q184.95 43.55 185.85 47.05 L185.95 47.35 185.9 47.35 179.2 47.85 Q100.1 53.0 8.65 38.2 5.9 33.45 4.05 29.0 L3.15 26.8 Q10.6 30.3 17.45 31.8 L21.95 32.55 34.1 33.3 48.05 34.6 70.8 37.6 93.8 38.6 120.3 38.1 159.05 36.1 178.1 34.85 Q178.3 25.7 181.25 18.35 L189.4 18.65 189.4 18.8 Q187.85 21.4 186.8 24.7 L187.4 25.2 190.15 27.6 Q204.95 40.8 212.15 54.95 L213.65 58.1 220.4 58.45 Q227.5 58.45 232.7 41.75 235.2 33.8 236.2 27.5 231.85 20.9 223.9 14.6 L236.35 13.25 Q248.75 26.2 253.45 37.15 L253.65 37.6 Q267.35 37.25 283.15 32.9 281.95 37.95 279.95 43.6 L256.65 46.2 248.65 46.75 248.75 46.9 250.35 48.85 M246.35 46.9 L248.65 46.75 246.35 46.9 M248.65 46.75 L243.45 40.85 241.3 38.65 240.9 38.9 240.45 36.85 Q239.15 32.1 236.2 27.5 239.15 32.1 240.45 36.85 L240.9 38.9 241.3 38.65 243.45 40.85 248.65 46.75 M231.4 60.85 Q238.0 57.25 240.45 47.1 L241.3 42.5 241.3 42.25 240.9 38.9 241.3 42.25 241.3 42.5 240.45 47.1 Q238.0 57.25 231.4 60.85 M215.45 61.85 L215.15 61.8 214.55 60.15 213.65 58.15 213.65 58.1 213.65 58.15 214.55 60.15 215.15 61.8 215.45 61.85 M194.5 58.9 L192.25 57.35 194.5 58.9" fill="#000000" fill-rule="evenodd" stroke="none"/>
      <path d="M234.45 67.8 Q246.0 60.05 247.5 56.55 L248.1 53.3 Q248.35 51.1 249.6 48.85 L250.35 48.85 Q260.75 61.9 268.65 79.4 257.35 90.85 242.55 93.6 239.3 79.6 234.45 67.8 M283.15 32.9 Q267.35 37.25 253.65 37.6 L253.45 37.15 Q248.75 26.2 236.35 13.25 L245.8 12.15 282.55 6.9 Q286.85 17.1 283.15 32.9 M223.9 14.6 Q231.85 20.9 236.2 27.5 235.2 33.8 232.7 41.75 227.5 58.45 220.4 58.45 L213.65 58.1 212.15 54.95 Q204.95 40.8 190.15 27.6 L187.4 25.2 186.8 24.7 Q187.85 21.4 189.4 18.8 L189.5 18.65 Q194.95 9.55 205.95 10.25 217.0 10.9 220.05 11.7 L223.85 14.55 223.9 14.6 M213.1 62.5 Q210.4 85.9 212.75 114.1 202.05 113.15 196.85 109.65 189.6 104.9 189.6 93.25 189.6 85.6 189.95 83.05 190.45 79.35 194.5 58.9 201.35 62.85 213.1 62.5 M189.95 53.7 L185.95 47.35 185.85 47.05 Q184.95 43.55 185.0 39.25 L185.25 34.45 Q185.45 32.45 185.8 30.35 L189.85 34.25 Q206.35 50.05 211.1 55.75 L212.9 58.0 211.4 57.75 189.95 53.7 M3.15 26.8 Q-2.45 11.85 1.9 0.0 97.7 14.7 181.25 18.35 178.3 25.7 178.1 34.85 L159.05 36.1 120.3 38.1 93.8 38.6 70.8 37.6 48.05 34.6 34.1 33.3 21.95 32.55 17.45 31.8 Q10.6 30.3 3.15 26.8 M189.4 18.65 L189.5 18.65 189.4 18.8 189.4 18.65" fill="#090909" fill-rule="evenodd" stroke="none"/>
      <path d="M250.35 48.85 L248.75 46.9 248.65 46.75 246.35 46.9 M236.35 13.25 L223.9 14.6 Q231.85 20.9 236.2 27.5 239.15 32.1 240.45 36.85 L240.9 38.9 241.3 38.65 243.45 40.85 248.65 46.75 256.65 46.2 279.95 43.6 Q281.95 37.95 283.15 32.9 286.85 17.1 282.55 6.9 L245.8 12.15 236.35 13.25 M250.35 48.85 Q260.75 61.9 268.65 79.4 257.35 90.85 242.55 93.6 239.3 79.6 234.45 67.8 L231.4 60.85 Q225.35 64.15 215.85 61.95 L215.45 61.85 214.6 62.45 213.1 62.5 Q210.4 85.9 212.75 114.1 L213.3 120.1 Q198.3 122.55 183.5 112.6 185.0 81.6 192.25 57.35 L189.95 53.7 185.95 47.35 185.9 47.35 179.2 47.85 Q100.1 53.0 8.65 38.2 5.9 33.45 4.05 29.0 L3.15 26.8 Q-2.45 11.85 1.9 0.0 97.7 14.7 181.25 18.35 L189.4 18.65 189.5 18.65 Q194.95 9.55 205.95 10.25 217.0 10.9 220.05 11.7 L223.85 14.55 223.9 14.6 M240.9 38.9 L241.3 42.25 241.3 42.5 240.45 47.1 Q238.0 57.25 231.4 60.85 M213.65 58.1 L213.65 58.15 214.55 60.15 215.15 61.8 215.45 61.85 M189.4 18.8 L189.5 18.65 M187.4 25.2 L186.8 24.7 Q187.85 21.4 189.4 18.8 M213.65 58.1 L212.15 54.95 Q204.95 40.8 190.15 27.6 L187.4 25.2 186.8 25.5 185.8 30.35 Q185.45 32.45 185.25 34.45 L185.0 39.25 Q184.95 43.55 185.85 47.05 L185.95 47.35 M192.25 57.35 L194.5 58.9 Q201.35 62.85 213.1 62.5" fill="none" stroke="#000000" stroke-linecap="round" stroke-linejoin="round" stroke-opacity="0.6627451" stroke-width="1.0"/>
    </g>
    <g id="sprite1" transform="matrix(1.0, 0.0, 0.0, 1.0, 0.0, 0.0)">
      <use height="120.6" transform="matrix(1.0, 0.0, 0.0, 1.0, 0.0, 0.0)" width="284.85" xlink:href="#shape1"/>
    </g>
    <g id="shape1" transform="matrix(1.0, 0.0, 0.0, 1.0, 0.0, 0.0)">
      <path d="M189.5 18.65 L189.4 18.8 Q187.85 21.4 186.8 24.7 L187.4 25.2 186.8 25.5 185.8 30.35 Q185.45 32.45 185.25 34.45 L185.0 39.25 Q184.95 43.55 185.85 47.05 L185.95 47.35 185.9 47.35 179.2 47.85 Q100.1 53.0 8.65 38.2 5.9 33.45 4.05 29.0 L3.15 26.8 Q-2.45 11.85 1.9 0.0 97.7 14.7 181.25 18.35 L189.4 18.65 189.5 18.65" fill="url(#gradient0)" fill-rule="evenodd" stroke="none"/>
      <path d="M240.9 38.9 L241.3 42.25 241.3 42.5 240.45 47.1 Q238.0 57.25 231.4 60.85 225.35 64.15 215.85 61.95 L215.45 61.85 215.15 61.8 214.55 60.15 213.65 58.15 213.65 58.1 212.15 54.95 Q204.95 40.8 190.15 27.6 L187.4 25.2 186.8 24.7 Q187.85 21.4 189.4 18.8 L189.5 18.65 Q194.95 9.55 205.95 10.25 217.0 10.9 220.05 11.7 L223.85 14.55 223.9 14.6 Q231.85 20.9 236.2 27.5 239.15 32.1 240.45 36.85 L240.9 38.9" fill="url(#gradient1)" fill-rule="evenodd" stroke="none"/>
      <path d="M187.4 25.2 L190.15 27.6 Q204.95 40.8 212.15 54.95 L213.65 58.1 213.65 58.15 214.55 60.15 215.15 61.8 215.45 61.85 214.6 62.45 213.1 62.5 Q201.35 62.85 194.5 58.9 L192.25 57.35 185.95 47.35 185.85 47.05 Q184.95 43.55 185.0 39.25 L185.25 34.45 Q185.45 32.45 185.8 30.35 L186.8 25.5 187.4 25.2" fill="url(#gradient2)" fill-rule="evenodd" stroke="none"/>
      <path d="M248.65 46.75 L243.45 40.85 241.3 38.65 240.9 38.9 240.45 36.85 Q239.15 32.1 236.2 27.5 231.85 20.9 223.9 14.6 L236.35 13.25 245.8 12.15 282.55 6.9 Q286.85 17.1 283.15 32.9 281.95 37.95 279.95 43.6 L256.65 46.2 248.65 46.75" fill="url(#gradient3)" fill-rule="evenodd" stroke="none"/>
      <path d="M240.9 38.9 L241.3 38.65 243.45 40.85 248.65 46.75 248.75 46.9 250.35 48.85 Q260.75 61.9 268.65 79.4 257.35 90.85 242.55 93.6 239.3 79.6 234.45 67.8 L231.4 60.85 Q238.0 57.25 240.45 47.1 L241.3 42.5 241.3 42.25 240.9 38.9" fill="url(#gradient4)" fill-rule="evenodd" stroke="none"/>
      <path d="M192.25 57.35 L194.5 58.9 Q201.35 62.85 213.1 62.5 210.4 85.9 212.75 114.1 L213.3 120.1 Q198.3 122.55 183.5 112.6 185.0 81.6 192.25 57.35" fill="url(#gradient5)" fill-rule="evenodd" stroke="none"/>
    </g>
    <linearGradient gradientTransform="matrix(-0.0293, -0.0293, 0.0212, -0.0212, 94.75, 24.6)" gradientUnits="userSpaceOnUse" id="gradient0" spreadMethod="pad" x1="-819.2" x2="819.2">
      <stop offset="0.0" stop-color="#000000"/>
      <stop offset="1.0" stop-color="#ffffff"/>
    </linearGradient>
    <linearGradient gradientTransform="matrix(0.0, -0.0262, 0.0321, 0.0, 214.05, 36.5)" gradientUnits="userSpaceOnUse" id="gradient1" spreadMethod="pad" x1="-819.2" x2="819.2">
      <stop offset="0.0" stop-color="#000000"/>
      <stop offset="1.0" stop-color="#ffffff"/>
    </linearGradient>
    <linearGradient gradientTransform="matrix(-0.0115, 0.0, 0.0, -0.0228, 200.2, 43.85)" gradientUnits="userSpaceOnUse" id="gradient2" spreadMethod="pad" x1="-819.2" x2="819.2">
      <stop offset="0.0" stop-color="#000000"/>
      <stop offset="1.0" stop-color="#ffffff"/>
    </linearGradient>
    <linearGradient gradientTransform="matrix(0.0124, -0.0214, 0.0211, 0.0122, 254.35, 26.85)" gradientUnits="userSpaceOnUse" id="gradient3" spreadMethod="pad" x1="-819.2" x2="819.2">
      <stop offset="0.0" stop-color="#000000"/>
      <stop offset="1.0" stop-color="#ffffff"/>
    </linearGradient>
    <linearGradient gradientTransform="matrix(0.012, 0.0069, -0.0168, 0.0291, 250.05, 66.1)" gradientUnits="userSpaceOnUse" id="gradient4" spreadMethod="pad" x1="-819.2" x2="819.2">
      <stop offset="0.0" stop-color="#000000"/>
      <stop offset="1.0" stop-color="#ffffff"/>
    </linearGradient>
    <linearGradient gradientTransform="matrix(0.0, 0.0182, -0.0386, 0.0, 198.15, 88.3)" gradientUnits="userSpaceOnUse" id="gradient5" spreadMethod="pad" x1="-819.2" x2="819.2">
      <stop offset="0.0" stop-color="#000000"/>
      <stop offset="1.0" stop-color="#ffffff"/>
    </linearGradient>
  </defs>
</svg>
