<?xml version="1.0" encoding="UTF-8" standalone="no"?>
<svg xmlns:xlink="http://www.w3.org/1999/xlink" height="531.5px" width="460.6px" xmlns="http://www.w3.org/2000/svg">
  <g transform="matrix(1.0, 0.0, 0.0, 1.0, 193.65, 334.05)">
    <use height="235.25" transform="matrix(1.0, 0.0, 0.0, 1.0, 24.65, -167.95)" width="117.8" xlink:href="#shape0"/>
    <use height="97.85" transform="matrix(1.1849, 1.2441, -1.2441, 1.1849, 60.5526, -169.8509)" width="98.85" xlink:href="#sprite0"/>
    <use height="69.45" transform="matrix(1.0, 0.0, 0.0, 1.0, -62.85, -72.7)" width="236.2" xlink:href="#shape2"/>
  </g>
  <defs>
    <g id="shape0" transform="matrix(1.0, 0.0, 0.0, 1.0, -24.65, 167.95)">
      <path d="M68.45 -147.25 L69.4 -146.85 Q69.7 -146.55 69.7 -145.55 69.7 -142.95 52.05 -107.3 35.9 -74.8 25.15 -54.7 L24.65 -54.7 Q28.25 -64.3 34.8 -78.0 L46.1 -101.3 Q49.75 -108.95 56.6 -124.7 62.95 -138.5 68.45 -147.25 M31.9 -32.7 L54.6 5.2 Q66.5 25.15 74.7 40.5 L74.65 40.55 73.7 41.8 51.7 5.5 Q38.25 -17.1 31.45 -32.7 L31.9 -32.7" fill="#33281e" fill-rule="evenodd" stroke="none"/>
      <path d="M138.8 -64.8 L139.4 -63.7 140.45 -61.0 Q141.3 -58.2 141.3 -56.05 L141.15 -54.6 141.2 -53.95 140.25 -51.35 140.15 -50.9 140.25 -50.85 Q140.3 -50.6 140.6 -50.5 L140.65 -50.5 Q141.8 -49.7 142.2 -47.4 142.55 -45.65 142.4 -43.75 142.4 -40.6 140.7 -38.8 139.7 -37.7 138.05 -36.95 L138.6 -36.1 Q138.9 -35.35 138.9 -33.8 138.9 -25.8 135.7 -23.35 133.25 -21.5 125.9 -21.5 123.75 -21.5 119.2 -23.1 L118.8 -23.25 117.8 -23.35 117.65 -23.25 Q116.6 -21.7 108.55 -21.7 101.95 -21.7 97.1 -26.55 95.5 -28.15 94.45 -32.55 L93.0 -39.05 Q92.7 -40.75 92.7 -44.45 L92.7 -48.35 Q92.8 -49.95 93.55 -52.65 94.2 -55.1 97.25 -57.8 99.55 -59.85 100.7 -60.05 L100.7 -60.15 Q101.3 -64.95 103.25 -69.45 L104.0 -71.15 104.9 -72.2 Q108.45 -74.7 112.9 -74.5 L114.4 -74.6 118.65 -74.6 120.4 -74.6 Q125.05 -74.55 127.7 -71.65 129.6 -69.6 129.65 -67.55 134.8 -67.7 136.55 -66.65 138.25 -65.6 138.8 -64.8 M137.15 -51.6 Q138.4 -52.3 139.05 -53.2 L139.8 -54.4 140.05 -55.75 139.95 -57.0 139.0 -61.15 138.5 -62.85 Q138.0 -64.25 135.95 -65.2 L135.05 -65.6 130.9 -66.25 122.3 -65.3 Q117.85 -64.15 115.95 -63.25 L115.6 -63.05 Q113.7 -62.1 113.05 -60.85 112.4 -59.65 112.1 -58.5 111.45 -55.4 112.05 -52.9 112.1 -52.3 112.25 -52.05 112.45 -51.25 113.1 -50.85 113.55 -50.5 114.95 -50.2 L115.7 -50.1 116.3 -50.0 116.45 -49.95 Q125.15 -49.3 132.15 -50.3 135.05 -50.65 136.45 -51.3 L137.15 -51.6 M122.6 -72.2 L119.0 -72.6 114.4 -72.55 Q107.95 -72.8 106.5 -71.3 105.0 -69.8 104.9 -69.35 103.35 -66.4 102.65 -63.1 L101.95 -60.15 101.4 -58.35 101.15 -58.0 100.75 -59.0 99.65 -57.9 97.55 -55.9 Q95.5 -53.7 95.0 -52.0 94.25 -49.55 94.15 -47.95 L94.2 -44.4 Q94.2 -41.5 94.65 -39.05 95.0 -37.1 96.05 -33.25 L96.8 -30.5 Q97.45 -28.75 98.4 -27.7 99.75 -26.3 102.05 -25.1 105.2 -23.45 108.5 -23.4 L108.7 -23.4 112.9 -23.5 114.3 -23.65 116.2 -24.2 112.9 -25.85 110.2 -27.7 Q109.65 -28.35 109.65 -29.9 109.65 -31.9 110.5 -34.85 L111.3 -36.35 111.8 -37.05 111.2 -37.2 109.25 -36.05 Q106.55 -34.6 105.15 -34.6 L103.55 -35.05 Q103.85 -35.55 108.1 -37.1 L109.3 -37.85 Q107.85 -38.4 106.9 -39.05 105.2 -40.2 104.9 -41.8 104.75 -42.65 104.95 -43.85 104.85 -46.9 105.8 -49.25 107.1 -52.3 109.9 -51.9 L109.9 -52.6 110.0 -55.95 108.8 -56.55 106.9 -57.65 Q107.4 -58.8 109.85 -58.25 L110.2 -58.15 Q110.4 -59.9 110.8 -60.75 112.4 -64.1 117.35 -65.75 L122.15 -66.85 126.1 -67.3 127.6 -67.45 127.55 -67.55 126.6 -69.6 Q125.4 -71.55 122.6 -72.2 M111.35 -48.85 Q110.85 -49.05 110.55 -49.45 L110.4 -49.75 109.7 -49.95 Q108.8 -50.1 107.8 -49.0 L106.95 -47.65 Q106.8 -47.1 106.8 -44.9 106.8 -42.95 107.05 -42.3 107.65 -40.75 109.85 -39.8 L110.6 -39.55 115.05 -38.6 124.15 -37.4 Q128.85 -37.0 131.75 -37.5 L136.2 -38.35 137.15 -38.7 139.15 -40.05 Q140.55 -41.4 140.55 -44.75 L140.25 -47.1 140.1 -48.3 140.05 -48.5 Q139.8 -49.6 138.8 -49.6 138.25 -49.6 137.8 -49.25 L137.75 -49.25 132.25 -48.4 127.3 -48.1 122.45 -48.1 118.35 -48.15 116.45 -48.25 112.15 -48.6 111.8 -48.7 111.6 -48.8 111.35 -48.85 M116.0 -36.25 L115.55 -36.35 113.7 -36.45 113.5 -36.35 113.3 -36.05 Q112.35 -34.8 112.3 -34.35 L111.9 -32.85 111.55 -31.2 111.75 -29.45 112.25 -28.3 112.9 -27.6 113.65 -27.15 Q114.9 -26.4 116.25 -25.75 120.3 -23.95 124.7 -23.75 L126.75 -23.75 128.65 -23.85 Q131.6 -23.85 133.5 -24.65 135.0 -25.35 135.75 -26.6 136.9 -28.45 136.9 -33.4 L136.75 -34.75 136.1 -35.6 135.0 -36.0 129.4 -35.55 116.0 -36.25" fill="#000000" fill-rule="evenodd" stroke="none"/>
      <path d="M135.05 -65.6 L135.95 -65.2 Q138.0 -64.25 138.5 -62.85 L139.0 -61.15 139.95 -57.0 140.05 -55.75 139.8 -54.4 139.05 -53.2 Q138.4 -52.3 137.15 -51.6 L137.45 -53.35 Q137.45 -58.05 136.65 -61.55 136.05 -64.15 135.05 -65.6 M115.7 -50.1 L114.95 -50.2 Q113.55 -50.5 113.1 -50.85 112.45 -51.25 112.25 -52.05 112.1 -52.3 112.05 -52.9 111.45 -55.4 112.1 -58.5 112.4 -59.65 113.05 -60.85 113.7 -62.1 115.6 -63.05 L115.95 -63.25 Q114.85 -60.4 114.85 -55.75 L114.9 -52.65 Q115.1 -51.45 115.7 -50.1 M126.1 -67.3 Q124.95 -67.95 124.4 -69.6 123.85 -71.25 122.6 -72.2 125.4 -71.55 126.6 -69.6 L127.55 -67.55 127.6 -67.45 126.1 -67.3 M110.6 -39.55 L109.85 -39.8 Q107.65 -40.75 107.05 -42.3 106.8 -42.95 106.8 -44.9 106.8 -47.1 106.95 -47.65 L107.8 -49.0 Q108.8 -50.1 109.7 -49.95 L110.4 -49.75 110.55 -49.45 Q110.85 -49.05 111.35 -48.85 L110.75 -48.35 Q110.05 -47.35 110.05 -43.45 110.05 -40.8 110.6 -39.55 M137.75 -49.25 L137.8 -49.25 Q138.25 -49.6 138.8 -49.6 139.8 -49.6 140.05 -48.5 L140.1 -48.3 140.25 -47.1 140.55 -44.75 Q140.55 -41.4 139.15 -40.05 L137.15 -38.7 137.55 -40.65 Q138.25 -43.8 138.25 -46.75 138.25 -48.15 137.75 -49.25 M116.0 -36.25 L114.95 -33.05 Q113.65 -28.9 113.65 -27.45 L113.65 -27.15 112.9 -27.6 112.25 -28.3 111.75 -29.45 111.55 -31.2 111.9 -32.85 112.3 -34.35 Q112.35 -34.8 113.3 -36.05 L113.5 -36.35 113.7 -36.45 115.55 -36.35 116.0 -36.25 M133.5 -24.65 Q134.3 -28.35 134.85 -30.15 135.15 -31.25 136.15 -33.15 L136.75 -34.75 136.9 -33.4 Q136.9 -28.45 135.75 -26.6 135.0 -25.35 133.5 -24.65" fill="#bdbdbd" fill-rule="evenodd" stroke="none"/>
      <path d="M137.15 -51.6 L136.45 -51.3 Q135.05 -50.65 132.15 -50.3 125.15 -49.3 116.45 -49.95 L116.3 -50.0 115.7 -50.1 Q115.1 -51.45 114.9 -52.65 L114.85 -55.75 Q114.85 -60.4 115.95 -63.25 117.85 -64.15 122.3 -65.3 L130.9 -66.25 135.05 -65.6 Q136.05 -64.15 136.65 -61.55 137.45 -58.05 137.45 -53.35 L137.15 -51.6 M122.6 -72.2 Q123.85 -71.25 124.4 -69.6 124.95 -67.95 126.1 -67.3 L122.15 -66.85 117.35 -65.75 Q112.4 -64.1 110.8 -60.75 110.4 -59.9 110.2 -58.15 L109.85 -58.25 Q107.4 -58.8 106.9 -57.65 L108.8 -56.55 110.0 -55.95 109.9 -52.6 109.9 -51.9 Q107.1 -52.3 105.8 -49.25 104.85 -46.9 104.95 -43.85 104.75 -42.65 104.9 -41.8 105.2 -40.2 106.9 -39.05 107.85 -38.4 109.3 -37.85 L108.1 -37.1 Q103.85 -35.55 103.55 -35.05 L105.15 -34.6 Q106.55 -34.6 109.25 -36.05 L111.2 -37.2 111.8 -37.05 111.3 -36.35 110.5 -34.85 Q109.65 -31.9 109.65 -29.9 109.65 -28.35 110.2 -27.7 L112.9 -25.85 116.2 -24.2 114.3 -23.65 112.9 -23.5 108.7 -23.4 108.5 -23.4 Q105.2 -23.45 102.05 -25.1 99.75 -26.3 98.4 -27.7 97.45 -28.75 96.8 -30.5 L96.05 -33.25 Q95.0 -37.1 94.65 -39.05 94.2 -41.5 94.2 -44.4 L94.15 -47.95 Q94.25 -49.55 95.0 -52.0 95.5 -53.7 97.55 -55.9 L99.65 -57.9 100.75 -59.0 101.15 -58.0 101.4 -58.35 101.95 -60.15 102.65 -63.1 Q103.35 -66.4 104.9 -69.35 105.0 -69.8 106.5 -71.3 107.95 -72.8 114.4 -72.55 L119.0 -72.6 122.6 -72.2 M111.35 -48.85 L111.6 -48.8 111.8 -48.7 112.15 -48.6 116.45 -48.25 118.35 -48.15 122.45 -48.1 127.3 -48.1 132.25 -48.4 137.75 -49.25 Q138.25 -48.15 138.25 -46.75 138.25 -43.8 137.55 -40.65 L137.15 -38.7 136.2 -38.35 131.75 -37.5 Q128.85 -37.0 124.15 -37.4 L115.05 -38.6 110.6 -39.55 Q110.05 -40.8 110.05 -43.45 110.05 -47.35 110.75 -48.35 L111.35 -48.85 M113.65 -27.15 L113.65 -27.45 Q113.65 -28.9 114.95 -33.05 L116.0 -36.25 129.4 -35.55 135.0 -36.0 136.1 -35.6 136.75 -34.75 136.15 -33.15 Q135.15 -31.25 134.85 -30.15 134.3 -28.35 133.5 -24.65 131.6 -23.85 128.65 -23.85 L126.75 -23.75 124.7 -23.75 Q120.3 -23.95 116.25 -25.75 114.9 -26.4 113.65 -27.15" fill="#999999" fill-rule="evenodd" stroke="none"/>
      <path d="M59.6 -167.4 L60.1 -167.0 64.9 -163.5 69.75 -158.8 69.95 -158.7 Q69.0 -155.5 67.65 -152.4 L67.8 -153.1 67.7 -152.9 Q68.75 -157.25 65.8 -160.35 64.05 -162.15 61.6 -163.6 L58.65 -165.6 58.45 -165.55 59.35 -167.45 59.6 -167.4 60.1 -167.0 59.6 -167.4 M63.85 52.1 Q65.1 55.15 65.85 58.4 L65.75 58.55 Q60.8 63.5 55.15 66.8 L55.15 66.65 55.0 66.8 54.2 65.0 54.3 64.85 57.4 63.05 Q59.9 61.65 61.75 59.85 64.85 56.85 63.8 52.4 L63.95 52.7 63.85 52.1 M65.75 58.55 L63.95 52.7 65.75 58.55" fill="#cccccc" fill-rule="evenodd" stroke="none"/>
      <path d="M67.65 -152.4 L67.2 -151.6 67.1 -151.5 67.05 -151.7 66.1 -149.85 65.4 -148.7 65.15 -148.45 64.9 -148.45 64.4 -148.45 64.3 -148.45 Q60.65 -151.05 59.55 -152.05 56.95 -154.3 55.55 -156.9 L55.55 -157.05 Q56.45 -161.3 58.45 -165.55 L58.65 -165.6 61.6 -163.6 Q64.05 -162.15 65.8 -160.35 68.75 -157.25 67.7 -152.9 L67.8 -153.1 67.65 -152.4 M116.25 -90.8 L121.75 -95.7 121.9 -95.6 123.6 -90.95 123.7 -90.7 118.0 -85.6 115.75 -83.6 114.9 -82.8 112.55 -80.4 111.95 -79.75 112.5 -78.0 113.25 -75.65 114.75 -70.8 114.95 -70.85 115.45 -70.8 116.7 -70.75 119.95 -70.85 129.1 -70.95 129.25 -70.95 131.4 -70.95 131.65 -69.55 131.6 -67.95 131.7 -66.5 131.8 -65.85 130.3 -65.7 129.5 -65.7 129.3 -65.65 123.3 -65.5 119.15 -65.45 119.05 -65.45 116.8 -65.55 113.15 -65.65 112.95 -65.75 111.95 -67.0 111.15 -68.35 Q110.5 -69.8 110.25 -71.4 L109.95 -74.5 110.3 -76.95 Q110.6 -79.15 111.35 -81.45 112.5 -85.25 115.0 -89.3 L115.1 -89.75 116.1 -90.7 116.25 -90.8 M128.9 -32.2 L129.75 -32.15 130.55 -32.05 131.35 -31.9 131.25 -31.9 131.05 -31.35 Q130.85 -30.35 131.0 -28.4 L130.7 -26.9 128.55 -27.1 128.35 -27.0 119.25 -27.5 115.95 -27.55 114.7 -27.55 114.25 -27.55 114.05 -27.55 113.65 -26.5 112.35 -22.9 111.55 -20.55 110.9 -18.8 111.5 -18.2 113.7 -15.6 114.5 -14.9 116.7 -12.7 122.25 -7.45 122.1 -7.15 120.2 -2.55 120.1 -2.55 Q117.2 -4.9 114.75 -7.65 L114.65 -7.75 113.75 -8.7 111.2 -11.35 111.15 -11.6 111.2 -11.35 113.75 -8.7 114.65 -7.75 Q110.2 2.4 104.7 12.05 93.1 32.5 72.6 44.35 L72.0 44.8 71.75 44.85 69.55 43.55 69.15 43.35 69.3 43.3 Q83.65 34.15 95.05 19.1 105.1 5.9 111.15 -11.6 L107.65 -15.9 107.55 -16.0 105.05 -19.25 Q105.55 -23.45 107.45 -27.9 108.45 -30.35 109.9 -32.8 L110.65 -32.95 112.3 -32.85 112.55 -32.95 116.25 -32.85 118.4 -32.85 118.65 -32.85 125.25 -32.5 125.75 -32.45 126.85 -32.35 128.75 -32.25 128.9 -32.2 M63.45 51.2 L63.85 52.1 63.95 52.7 63.8 52.4 Q64.85 56.85 61.75 59.85 59.9 61.65 57.4 63.05 L54.3 64.85 54.2 65.0 Q52.2 60.55 51.5 56.25 L51.55 56.15 Q53.05 53.6 55.8 51.35 56.95 50.35 60.5 48.05 L60.65 48.0 61.15 48.05 61.4 48.0 61.5 48.0 61.65 48.25 62.3 49.4 63.25 51.2 63.35 51.15 63.45 51.2 M61.95 -154.2 L58.7 -154.25 58.75 -159.9 58.95 -159.75 65.3 -158.6 65.15 -148.45 65.3 -158.6 58.95 -159.75 58.75 -159.9 58.7 -154.25 61.95 -154.2 M67.7 -152.9 L67.6 -152.55 67.55 -152.4 67.05 -151.7 67.55 -152.4 67.6 -152.55 67.7 -152.9 M130.25 -60.4 L130.5 -60.35 130.5 -60.25 130.25 -60.4 M130.55 -32.05 L131.25 -31.9 130.55 -32.05 M63.25 51.2 L63.7 52.05 63.8 52.4 63.7 52.05 63.25 51.2 M58.1 53.65 L54.75 53.65 54.6 59.25 54.85 59.1 61.25 58.25 61.5 48.0 61.25 58.25 54.85 59.1 54.6 59.25 54.75 53.65 58.1 53.65" fill="#999999" fill-rule="evenodd" stroke="none"/>
      <path d="M51.5 56.25 L50.95 52.15 Q54.85 48.5 59.9 48.05 L60.0 48.1 60.2 48.05 60.5 48.05 Q56.95 50.35 55.8 51.35 53.05 53.6 51.55 56.15 L51.5 56.25 M55.55 -157.05 L55.55 -156.9 Q56.95 -154.3 59.55 -152.05 60.65 -151.05 64.3 -148.45 L63.85 -148.5 63.65 -148.55 63.5 -148.55 Q58.55 -149.25 54.8 -152.95 54.95 -155.0 55.55 -157.05" fill="#696969" fill-rule="evenodd" stroke="none"/>
      <path d="M67.2 -151.6 L67.5 -151.4 68.05 -150.75 68.15 -150.75 68.05 -150.65 68.05 -150.75 68.0 -150.8 66.8 -149.45 66.75 -149.4 65.1 -146.5 65.0 -146.45 63.5 -148.55 63.65 -148.55 63.85 -148.5 64.3 -148.45 64.4 -148.45 64.9 -148.45 65.15 -148.45 65.4 -148.7 66.1 -149.85 67.05 -151.7 67.1 -151.5 67.2 -151.6 M64.35 50.4 L64.35 50.5 63.7 51.05 63.45 51.2 63.35 51.15 63.25 51.2 62.3 49.4 61.65 48.25 61.5 48.0 61.4 48.0 61.15 48.05 60.65 48.0 60.5 48.05 60.2 48.05 60.0 48.1 59.9 48.05 61.4 46.0 61.55 46.1 Q62.35 47.85 63.05 48.9 L63.05 49.05 64.25 50.4 63.5 51.15 63.35 51.15 63.5 51.15 64.25 50.4 64.35 50.3 64.35 50.4 M68.0 -150.8 L67.35 -151.5 67.1 -151.5 67.35 -151.5 68.0 -150.8 M72.65 -143.55 L72.7 -143.5 Q86.75 -133.7 97.6 -118.3 107.15 -104.6 112.55 -87.1 L108.8 -82.9 108.7 -82.75 103.05 -98.3 Q94.8 -121.15 75.85 -136.35 L72.1 -139.25 70.6 -140.6 69.6 -141.25 69.5 -141.4 69.6 -141.55 72.25 -143.35 72.65 -143.55 M107.55 -16.0 L107.65 -15.9 111.15 -11.6 Q105.1 5.9 95.05 19.1 83.65 34.15 69.3 43.3 L69.15 43.35 68.75 43.25 Q67.65 42.65 66.15 41.25 L66.1 41.15 66.15 41.1 67.25 40.45 68.8 39.2 72.65 36.3 Q92.15 21.95 101.2 -0.7 L107.55 -16.0" fill="#663000" fill-rule="evenodd" stroke="none"/>
      <path d="M68.15 -150.75 L69.0 -149.85 69.1 -149.75 69.75 -149.2 71.7 -147.6 71.95 -147.55 Q73.4 -146.35 75.2 -145.0 L75.35 -145.0 75.45 -144.95 75.55 -144.95 75.45 -144.85 75.4 -144.9 73.15 -143.75 72.95 -143.7 72.1 -145.1 Q71.5 -145.9 70.7 -146.05 L70.5 -146.2 70.35 -146.15 69.5 -146.5 Q68.8 -146.7 68.2 -147.6 L68.1 -147.7 Q67.95 -147.95 67.95 -148.35 L67.05 -149.2 66.8 -149.2 66.75 -149.4 66.8 -149.45 68.0 -150.8 68.05 -150.75 68.05 -150.65 68.15 -150.75 M71.95 44.85 L71.8 45.0 Q69.95 46.15 68.25 47.4 L68.2 47.35 66.9 46.0 67.2 45.9 Q67.9 45.75 68.6 45.0 L69.55 43.55 71.75 44.85 72.0 44.8 71.95 44.85 71.75 44.85 71.65 45.0 68.2 47.35 71.65 45.0 71.75 44.85 71.95 44.85 M68.2 47.45 L68.15 47.5 66.05 48.9 65.35 49.55 64.35 50.4 64.35 50.3 64.25 50.4 63.05 49.05 63.05 48.9 63.15 48.85 63.3 48.85 Q63.45 48.55 64.3 48.0 L64.5 47.45 64.7 47.25 Q65.1 46.45 65.85 46.25 L68.2 47.45 68.1 47.45 65.85 49.0 65.35 49.45 65.25 49.6 64.85 48.85 64.5 47.45 64.85 48.85 65.25 49.6 65.35 49.45 65.85 49.0 68.1 47.45 68.2 47.45 M68.05 -150.65 L68.9 -149.75 68.7 -149.1 68.1 -147.7 68.7 -149.1 68.9 -149.75 68.05 -150.65 M69.0 -149.75 L69.1 -149.75 69.0 -149.75 69.5 -149.3 71.7 -147.6 70.45 -146.25 70.35 -146.15 70.45 -146.25 71.7 -147.6 69.5 -149.3 69.0 -149.75 68.9 -149.75 69.0 -149.85 68.9 -149.75 69.0 -149.75 M71.95 -147.55 L71.75 -147.5 71.7 -147.6 71.75 -147.5 71.95 -147.55 M75.35 -145.0 L75.4 -144.9 75.35 -145.0 M75.45 -144.95 L75.4 -144.9 75.45 -144.95 M71.75 -147.5 L75.1 -145.05 75.2 -145.0 75.1 -145.05 71.75 -147.5 M65.25 49.6 L64.35 50.3 65.25 49.6" fill="#00b4cc" fill-rule="evenodd" stroke="none"/>
      <path d="M68.25 47.4 L68.2 47.45 68.2 47.35 66.3 45.5 64.35 42.8 64.3 42.75 64.35 42.7 65.5 41.6 65.65 41.45 66.1 41.15 66.15 41.25 Q67.65 42.65 68.75 43.25 L69.15 43.35 69.55 43.55 68.6 45.0 Q67.9 45.75 67.2 45.9 L66.9 46.0 68.2 47.35 68.25 47.4 M66.75 -149.4 L66.8 -149.2 67.05 -149.2 67.95 -148.35 Q67.95 -147.95 68.1 -147.7 L67.7 -146.25 Q67.35 -145.45 67.3 -143.7 L67.3 -143.5 67.3 -143.7 Q67.35 -145.45 67.7 -146.25 L68.1 -147.7 68.2 -147.6 Q68.8 -146.7 69.5 -146.5 L70.35 -146.15 70.5 -146.2 70.7 -146.05 Q71.5 -145.9 72.1 -145.1 L72.95 -143.7 72.65 -143.55 72.25 -143.35 69.6 -141.55 69.5 -141.4 69.15 -141.75 68.95 -141.75 67.9 -143.05 67.8 -143.0 67.45 -143.4 67.3 -143.5 65.05 -146.4 65.0 -146.45 65.1 -146.5 66.75 -149.4 M70.35 -146.15 L69.85 -145.65 67.85 -143.25 67.8 -143.0 67.85 -143.25 69.85 -145.65 70.35 -146.15" fill="#208394" fill-rule="evenodd" stroke="none"/>
      <path d="M75.55 -144.95 L76.25 -144.3 Q96.3 -131.7 107.1 -110.85 112.2 -101.0 116.25 -90.8 L116.1 -90.7 115.1 -89.75 112.55 -87.2 112.55 -87.1 Q107.15 -104.6 97.6 -118.3 86.75 -133.7 72.7 -143.5 L72.65 -143.55 72.95 -143.7 73.15 -143.75 75.4 -144.9 75.45 -144.85 75.55 -144.95 M114.75 -7.65 Q110.3 2.35 104.9 12.0 93.25 32.55 72.7 44.35 L71.95 44.85 72.0 44.8 72.6 44.35 Q93.1 32.5 104.7 12.05 110.2 2.4 114.65 -7.75 L114.75 -7.65 M75.45 -144.85 L76.05 -144.35 Q96.1 -131.8 107.0 -110.85 112.1 -101.0 116.1 -90.7 112.1 -101.0 107.0 -110.85 96.1 -131.8 76.05 -144.35 L75.45 -144.85" fill="#994900" fill-rule="evenodd" stroke="none"/>
      <path d="M121.75 -95.7 L124.95 -98.3 125.05 -98.15 125.1 -98.3 126.8 -92.95 126.65 -92.95 126.6 -93.0 123.8 -90.8 123.7 -90.7 123.6 -90.95 121.9 -95.6 121.75 -95.7 M135.3 -70.9 L136.8 -66.35 136.6 -66.35 134.25 -66.15 131.9 -65.9 Q131.85 -65.8 131.8 -65.85 L131.7 -66.5 131.6 -67.95 131.65 -69.55 131.4 -70.95 131.55 -71.0 135.15 -70.95 136.6 -66.35 135.15 -70.95 135.3 -70.9 M131.35 -31.9 L134.85 -31.55 135.65 -31.35 136.05 -31.3 136.05 -31.25 136.15 -31.25 134.55 -26.75 134.35 -26.7 130.85 -26.9 130.7 -26.9 131.0 -28.4 Q130.85 -30.35 131.05 -31.35 L131.25 -31.9 131.35 -31.9 M125.2 -5.05 L123.3 0.2 123.2 0.1 123.2 0.2 Q121.55 -1.05 120.1 -2.55 L120.2 -2.55 122.1 -7.15 122.25 -7.45 122.4 -7.35 125.05 -5.0 125.15 -5.1 125.2 -5.05 M126.6 -93.0 L125.05 -98.15 126.6 -93.0 M135.65 -31.35 L136.05 -31.25 134.35 -26.7 136.05 -31.25 135.65 -31.35 M125.05 -5.0 L123.2 0.1 125.05 -5.0" fill="#d9d9d9" fill-rule="evenodd" stroke="none"/>
      <path d="M126.8 -92.95 L128.1 -88.85 128.2 -81.9 128.6 -81.5 128.55 -81.4 128.4 -81.4 Q127.65 -80.6 127.15 -79.45 L127.0 -79.35 126.4 -80.0 Q125.6 -80.65 125.25 -81.45 124.45 -83.2 124.9 -86.35 124.9 -87.45 124.5 -88.5 L123.85 -90.6 123.7 -90.7 123.8 -90.8 126.6 -93.0 126.65 -92.95 126.8 -92.95 M134.0 -75.0 L135.3 -70.9 135.15 -70.95 131.55 -71.0 131.4 -70.95 130.7 -74.35 130.9 -74.3 132.3 -74.55 133.9 -75.0 133.95 -74.95 134.0 -75.0 M134.55 -26.75 L133.15 -22.75 133.05 -22.85 133.05 -22.7 131.35 -23.2 130.0 -23.55 129.9 -23.55 130.45 -26.15 130.7 -26.9 130.85 -26.9 134.35 -26.7 134.55 -26.75 M127.35 -16.45 L126.9 -16.05 126.65 -9.15 125.2 -5.05 125.15 -5.1 126.5 -9.15 126.75 -16.15 127.2 -16.55 126.75 -16.15 126.5 -9.15 125.15 -5.1 125.05 -5.0 122.4 -7.35 122.25 -7.45 122.4 -7.6 123.15 -9.55 Q123.6 -10.65 123.45 -11.75 123.25 -14.95 124.05 -16.55 124.45 -17.5 125.3 -18.05 L125.95 -18.7 126.0 -18.5 127.2 -16.55 127.35 -16.55 127.35 -16.45 M126.65 -92.95 L127.95 -88.85 127.95 -81.85 128.4 -81.4 127.95 -81.85 127.95 -88.85 126.65 -92.95 M133.95 -74.95 L135.15 -70.95 133.95 -74.95 M134.35 -26.7 L133.05 -22.85 134.35 -26.7" fill="#a6a6a6" fill-rule="evenodd" stroke="none"/>
      <path d="M123.7 -90.7 L123.85 -90.6 124.5 -88.5 Q124.9 -87.45 124.9 -86.35 124.45 -83.2 125.25 -81.45 125.6 -80.65 126.4 -80.0 L127.0 -79.35 126.6 -78.45 125.5 -76.3 125.45 -75.65 Q127.25 -74.5 129.25 -74.25 L129.55 -74.35 130.55 -74.3 130.7 -74.35 131.4 -70.95 129.25 -70.95 129.1 -70.95 119.95 -70.85 116.7 -70.75 115.45 -70.8 114.95 -70.85 114.75 -70.8 113.25 -75.65 113.35 -76.05 113.35 -77.3 113.65 -78.55 Q114.05 -80.4 114.9 -82.55 L114.9 -82.8 115.75 -83.6 118.0 -85.6 123.7 -90.7 M112.35 -22.9 L113.65 -26.5 114.05 -27.55 114.25 -27.55 114.7 -27.55 115.95 -27.55 119.25 -27.5 128.35 -27.0 128.55 -27.1 130.7 -26.9 130.45 -26.15 129.9 -23.55 129.7 -23.6 128.7 -23.65 128.35 -23.65 Q126.4 -23.5 124.55 -22.45 124.5 -22.05 124.6 -21.8 L125.5 -19.55 125.95 -18.7 125.3 -18.05 Q124.45 -17.5 124.05 -16.55 123.25 -14.95 123.45 -11.75 123.6 -10.65 123.15 -9.55 L122.4 -7.6 122.25 -7.45 116.7 -12.7 114.5 -14.9 113.7 -15.6 113.7 -16.0 Q112.9 -18.05 112.6 -19.95 L112.35 -21.3 112.35 -22.55 112.35 -22.9" fill="#666666" fill-rule="evenodd" stroke="none"/>
      <path d="M128.6 -81.5 L133.4 -77.15 134.0 -75.0 133.95 -74.95 133.9 -75.0 132.3 -74.55 130.9 -74.3 130.7 -74.35 130.55 -74.3 129.55 -74.35 129.25 -74.25 Q127.25 -74.5 125.45 -75.65 L125.5 -76.3 126.6 -78.45 127.0 -79.35 127.15 -79.45 Q127.65 -80.6 128.4 -81.4 L128.55 -81.4 128.6 -81.5 M133.15 -22.75 L132.4 -20.6 127.35 -16.45 127.35 -16.55 127.2 -16.55 126.0 -18.5 125.95 -18.7 125.5 -19.55 124.6 -21.8 Q124.5 -22.05 124.55 -22.45 126.4 -23.5 128.35 -23.65 L128.7 -23.65 129.7 -23.6 129.9 -23.55 130.0 -23.55 131.35 -23.2 133.05 -22.7 133.05 -22.85 133.15 -22.75 M128.55 -81.4 L133.3 -77.15 133.9 -75.0 133.3 -77.15 128.55 -81.4 M133.05 -22.7 L132.3 -20.6 127.35 -16.55 132.3 -20.6 133.05 -22.7" fill="#ffffff" fill-rule="evenodd" stroke="none"/>
      <path d="M125.25 -60.95 L124.55 -62.65 Q123.65 -64.3 123.3 -65.5 L129.3 -65.65 129.8 -63.85 129.95 -63.2 130.5 -60.35 130.25 -60.4 126.5 -60.85 125.25 -60.95 126.5 -60.85 130.25 -60.4 126.2 -59.3 125.8 -59.1 126.2 -59.3 130.25 -60.4 130.5 -60.25 130.85 -58.55 131.0 -57.2 131.35 -52.4 131.4 -50.45 131.4 -49.95 131.15 -45.75 131.2 -45.6 130.9 -41.3 Q130.75 -41.05 130.75 -40.65 L130.75 -40.55 130.7 -40.2 130.4 -39.3 129.45 -34.75 129.45 -34.35 125.7 -34.15 129.45 -34.35 129.25 -34.05 128.75 -32.25 126.85 -32.35 125.75 -32.45 125.25 -32.5 125.7 -34.15 125.65 -34.3 126.55 -39.45 126.8 -39.55 Q129.85 -40.1 130.75 -40.65 129.85 -40.1 126.8 -39.55 L126.55 -39.45 126.7 -41.0 126.65 -41.6 126.45 -48.45 Q129.25 -48.95 131.4 -49.95 129.25 -48.95 126.45 -48.45 L126.35 -51.05 126.15 -55.4 125.8 -59.1 125.25 -60.95 M127.7 -59.15 L127.75 -59.05 127.95 -59.1 127.7 -59.15 M131.4 -50.45 L126.35 -51.05 131.4 -50.45 M126.7 -41.0 L127.4 -41.0 130.9 -41.3 127.4 -41.0 126.7 -41.0" fill="#b31111" fill-rule="evenodd" stroke="none"/>
      <path d="M123.3 -65.5 Q123.65 -64.3 124.55 -62.65 L125.25 -60.95 120.15 -61.65 125.25 -60.95 125.8 -59.1 126.15 -55.4 126.35 -51.05 123.65 -51.35 121.3 -51.75 123.65 -51.35 126.35 -51.05 126.45 -48.45 121.3 -48.1 126.45 -48.45 126.65 -41.6 126.7 -41.0 126.55 -39.45 125.65 -34.3 125.7 -34.15 125.25 -32.5 118.65 -32.85 118.4 -32.85 119.0 -34.5 119.8 -37.15 119.95 -37.5 Q120.0 -38.3 120.35 -39.1 L120.7 -40.85 120.7 -41.0 121.0 -41.95 121.3 -48.1 121.2 -51.7 121.3 -51.75 120.9 -57.4 120.8 -58.15 120.25 -60.8 120.15 -61.15 120.15 -61.65 119.0 -65.4 119.15 -65.45 123.3 -65.5 M120.8 -58.15 L125.8 -59.1 120.8 -58.15 M119.0 -34.5 L125.7 -34.15 119.0 -34.5 M120.35 -39.1 L126.55 -39.45 120.35 -39.1 M121.0 -41.95 L126.7 -41.0 121.0 -41.95" fill="#8f0e0e" fill-rule="evenodd" stroke="none"/>
      <path d="M129.5 -65.7 L129.95 -63.95 130.1 -63.2 129.95 -63.2 129.8 -63.85 129.3 -65.65 129.5 -65.7 M129.6 -34.75 L129.55 -34.35 129.4 -33.95 128.9 -32.2 128.75 -32.25 129.25 -34.05 129.45 -34.35 129.45 -34.75 129.6 -34.75 M119.15 -65.45 L119.0 -65.4 119.05 -65.45 119.15 -65.45 M129.55 -34.35 L129.45 -34.35 129.55 -34.35" fill="#707070" fill-rule="evenodd" stroke="none"/>
      <path d="M130.1 -63.2 L130.7 -60.3 130.65 -60.2 130.95 -58.55 131.15 -57.25 131.45 -52.4 131.55 -50.45 131.5 -50.1 131.3 -45.75 131.0 -41.3 130.9 -40.8 130.9 -40.7 130.65 -39.3 129.6 -34.75 129.45 -34.75 130.4 -39.3 130.7 -40.2 130.75 -40.55 130.75 -40.65 Q130.75 -41.05 130.9 -41.3 L131.0 -41.3 130.9 -41.3 131.2 -45.6 131.15 -45.75 131.4 -49.95 131.4 -50.45 131.35 -52.4 131.0 -57.2 130.85 -58.55 130.95 -58.55 130.85 -58.55 130.5 -60.25 130.5 -60.35 129.95 -63.2 130.1 -63.2 M130.7 -60.3 L130.5 -60.35 130.7 -60.3 M130.65 -60.2 L130.5 -60.25 130.65 -60.2 M127.7 -59.15 L127.95 -59.1 127.75 -59.05 127.7 -59.15 M131.45 -52.4 L131.35 -52.4 131.45 -52.4 M131.5 -50.1 L131.4 -49.95 131.5 -50.1 M131.55 -50.45 L131.4 -50.45 131.55 -50.45 M131.3 -45.75 L131.2 -45.6 131.3 -45.75 M130.9 -40.8 L130.75 -40.65 130.9 -40.8 M130.65 -39.3 L130.4 -39.3 130.65 -39.3" fill="#b5b5b5" fill-rule="evenodd" stroke="none"/>
      <path d="M112.55 -87.1 L112.55 -87.2 115.1 -89.75 115.0 -89.3 Q112.5 -85.25 111.35 -81.45 110.6 -79.15 110.3 -76.95 L109.95 -74.5 110.25 -71.4 Q110.5 -69.8 111.15 -68.35 L111.95 -67.0 112.95 -65.75 111.2 -65.7 110.4 -65.8 109.1 -68.4 Q106.5 -74.35 106.1 -79.65 L108.7 -82.75 108.8 -82.9 112.55 -87.1" fill="#737373" fill-rule="evenodd" stroke="none"/>
      <path d="M114.9 -82.8 L114.9 -82.55 Q114.05 -80.4 113.65 -78.55 L113.35 -77.3 113.35 -76.05 113.25 -75.65 112.5 -78.0 111.95 -79.75 112.55 -80.4 114.9 -82.8 M112.35 -22.9 L112.35 -22.55 112.35 -21.3 112.6 -19.95 Q112.9 -18.05 113.7 -16.0 L113.7 -15.6 111.5 -18.2 110.9 -18.8 111.55 -20.55 112.35 -22.9" fill="#4d4d4d" fill-rule="evenodd" stroke="none"/>
      <path d="M59.6 -167.4 L59.5 -167.45 59.6 -167.4 60.1 -167.0 64.9 -163.5 69.75 -158.8 69.95 -158.7 Q69.0 -155.5 67.65 -152.4 M67.2 -151.6 L67.5 -151.4 68.05 -150.75 68.15 -150.75 69.0 -149.85 69.1 -149.75 69.75 -149.2 71.7 -147.6 71.95 -147.55 Q73.4 -146.35 75.2 -145.0 L75.35 -145.0 75.45 -144.95 75.55 -144.95 76.25 -144.3 Q96.3 -131.7 107.1 -110.85 112.2 -101.0 116.25 -90.8 L121.75 -95.7 124.95 -98.3 125.05 -98.15 125.1 -98.3 126.8 -92.95 128.1 -88.85 128.2 -81.9 128.6 -81.5 133.4 -77.15 134.0 -75.0 135.3 -70.9 136.8 -66.35 136.6 -66.35 134.25 -66.15 131.9 -65.9 Q131.85 -65.8 131.8 -65.85 L130.3 -65.7 129.5 -65.7 129.95 -63.95 130.1 -63.2 130.7 -60.3 130.65 -60.2 130.95 -58.55 131.15 -57.25 131.45 -52.4 131.55 -50.45 131.5 -50.1 131.3 -45.75 131.0 -41.3 130.9 -40.8 130.9 -40.7 130.65 -39.3 129.6 -34.75 129.55 -34.35 129.4 -33.95 128.9 -32.2 129.75 -32.15 130.55 -32.05 131.35 -31.9 134.85 -31.55 135.65 -31.35 136.05 -31.3 136.05 -31.25 136.15 -31.25 134.55 -26.75 133.15 -22.75 132.4 -20.6 127.35 -16.45 126.9 -16.05 126.65 -9.15 125.2 -5.05 123.3 0.2 123.2 0.1 123.2 0.2 Q121.55 -1.05 120.1 -2.55 117.2 -4.9 114.75 -7.65 110.3 2.35 104.9 12.0 93.25 32.55 72.7 44.35 L71.95 44.85 71.8 45.0 Q69.95 46.15 68.25 47.4 L68.2 47.45 68.15 47.5 66.05 48.9 65.35 49.55 64.35 50.4 64.35 50.5 63.7 51.05 63.45 51.2 M65.75 58.55 Q60.8 63.5 55.15 66.8 L55.15 66.65 55.0 66.8 54.2 65.0 Q52.2 60.55 51.5 56.25 L50.95 52.15 Q54.85 48.5 59.9 48.05 L61.4 46.0 61.5 45.9 63.85 43.15 63.8 43.35 Q63.8 45.1 64.15 45.9 L64.5 47.45 64.85 48.85 65.25 49.6 65.35 49.45 65.85 49.0 68.1 47.45 68.2 47.45 68.2 47.35 66.3 45.5 64.35 42.8 64.3 42.75 64.0 43.05 63.85 43.15 M58.45 -165.55 L59.35 -167.45 59.6 -167.4 60.1 -167.0 M58.45 -165.55 Q56.45 -161.3 55.55 -157.05 54.95 -155.0 54.8 -152.95 58.55 -149.25 63.5 -148.55 L63.65 -148.55 63.85 -148.5 64.3 -148.45 64.4 -148.45 M64.9 -148.45 L65.15 -148.45 65.3 -158.6 58.95 -159.75 58.75 -159.9 58.7 -154.25 61.95 -154.2 M67.7 -152.9 L67.8 -153.1 M67.05 -151.7 L67.55 -152.4 67.6 -152.55 67.7 -152.9 M67.1 -151.5 L67.35 -151.5 68.0 -150.8 68.05 -150.75 68.05 -150.65 68.15 -150.75 M68.1 -147.7 L68.7 -149.1 68.9 -149.75 68.05 -150.65 M68.0 -150.8 L66.8 -149.45 66.75 -149.4 65.1 -146.5 65.0 -146.45 65.05 -146.4 67.3 -143.5 67.3 -143.7 Q67.35 -145.45 67.7 -146.25 L68.1 -147.7 M70.35 -146.15 L70.45 -146.25 71.7 -147.6 69.5 -149.3 69.0 -149.75 68.9 -149.75 69.0 -149.85 M69.1 -149.75 L69.0 -149.75 M67.05 -151.7 L67.1 -151.5 M65.15 -148.45 L65.4 -148.7 66.1 -149.85 67.05 -151.7 M71.7 -147.6 L71.75 -147.5 71.95 -147.55 M72.95 -143.7 L73.15 -143.75 75.4 -144.9 75.35 -145.0 M72.95 -143.7 L72.65 -143.55 72.25 -143.35 69.6 -141.55 69.5 -141.4 69.6 -141.25 70.6 -140.6 72.1 -139.25 75.85 -136.35 Q94.8 -121.15 103.05 -98.3 L108.7 -82.75 108.8 -82.9 112.55 -87.1 112.55 -87.2 115.1 -89.75 116.1 -90.7 Q112.1 -101.0 107.0 -110.85 96.1 -131.8 76.05 -144.35 L75.45 -144.85 75.4 -144.9 75.45 -144.95 M75.55 -144.95 L75.45 -144.85 M75.2 -145.0 L75.1 -145.05 71.75 -147.5 M67.8 -143.0 L67.85 -143.25 69.85 -145.65 70.35 -146.15 M67.3 -143.5 L67.45 -143.4 67.8 -143.0 67.9 -143.05 68.95 -141.75 69.15 -141.75 69.5 -141.4 M65.0 -146.45 L63.5 -148.55 M126.6 -93.0 L126.65 -92.95 126.8 -92.95 M127.0 -79.35 L127.15 -79.45 Q127.65 -80.6 128.4 -81.4 L127.95 -81.85 127.95 -88.85 126.65 -92.95 M126.6 -93.0 L123.8 -90.8 123.7 -90.7 118.0 -85.6 115.75 -83.6 114.9 -82.8 112.55 -80.4 111.95 -79.75 112.5 -78.0 113.25 -75.65 114.75 -70.8 114.95 -70.85 115.45 -70.8 116.7 -70.75 119.95 -70.85 129.1 -70.95 129.25 -70.95 131.4 -70.95 M130.7 -74.35 L130.55 -74.3 129.55 -74.35 129.25 -74.25 Q127.25 -74.5 125.45 -75.65 L125.5 -76.3 126.6 -78.45 127.0 -79.35 M125.05 -98.15 L126.6 -93.0 M128.4 -81.4 L128.55 -81.4 128.6 -81.5 M130.9 -74.3 L132.3 -74.55 133.9 -75.0 133.3 -77.15 128.55 -81.4 M133.9 -75.0 L133.95 -74.95 134.0 -75.0 M135.15 -70.95 L136.6 -66.35 M135.15 -70.95 L135.3 -70.9 M131.55 -71.0 L135.15 -70.95 133.95 -74.95 M125.25 -60.95 L126.5 -60.85 130.25 -60.4 130.5 -60.35 129.95 -63.2 129.8 -63.85 129.3 -65.65 123.3 -65.5 119.15 -65.45 119.05 -65.45 116.8 -65.55 113.15 -65.65 112.95 -65.75 111.2 -65.7 110.4 -65.8 109.1 -68.4 Q106.5 -74.35 106.1 -79.65 L108.7 -82.75 M119.0 -65.4 L120.15 -61.65 125.25 -60.95 M125.8 -59.1 L126.2 -59.3 130.25 -60.4 130.5 -60.25 130.5 -60.35 130.7 -60.3 M129.3 -65.65 L129.5 -65.7 M130.5 -60.25 L130.65 -60.2 M130.85 -58.55 L130.95 -58.55 M130.85 -58.55 L131.0 -57.2 131.35 -52.4 131.45 -52.4 M130.5 -60.25 L130.85 -58.55 M125.8 -59.1 L120.8 -58.15 120.9 -57.4 121.3 -51.75 123.65 -51.35 126.35 -51.05 131.4 -50.45 131.35 -52.4 M131.4 -50.45 L131.55 -50.45 M131.4 -49.95 L131.5 -50.1 M131.4 -50.45 L131.4 -49.95 131.15 -45.75 131.2 -45.6 131.3 -45.75 M116.25 -90.8 L116.1 -90.7 M119.0 -65.4 L119.05 -65.45 M118.4 -32.85 L119.0 -34.5 119.8 -37.15 119.95 -37.5 Q120.0 -38.3 120.35 -39.1 L120.7 -40.85 120.7 -41.0 121.0 -41.95 121.3 -48.1 121.2 -51.7 121.3 -51.75 M120.8 -58.15 L120.25 -60.8 120.15 -61.15 120.15 -61.65 M107.55 -16.0 L105.05 -19.25 Q105.55 -23.45 107.45 -27.9 108.45 -30.35 109.9 -32.8 L110.65 -32.95 112.3 -32.85 112.55 -32.95 116.25 -32.85 118.4 -32.85 118.65 -32.85 125.25 -32.5 125.75 -32.45 126.85 -32.35 128.75 -32.25 129.25 -34.05 129.45 -34.35 129.55 -34.35 M125.7 -34.15 L119.0 -34.5 M130.7 -26.9 L128.55 -27.1 128.35 -27.0 119.25 -27.5 115.95 -27.55 114.7 -27.55 114.25 -27.55 114.05 -27.55 113.65 -26.5 112.35 -22.9 111.55 -20.55 110.9 -18.8 111.5 -18.2 113.7 -15.6 114.5 -14.9 116.7 -12.7 122.25 -7.45 122.4 -7.35 125.05 -5.0 125.15 -5.1 125.2 -5.05 M125.95 -18.7 L125.5 -19.55 124.6 -21.8 Q124.5 -22.05 124.55 -22.45 126.4 -23.5 128.35 -23.65 L128.7 -23.65 129.7 -23.6 129.9 -23.55 M131.25 -31.9 L130.55 -32.05 M107.55 -16.0 L107.65 -15.9 111.15 -11.6 111.2 -11.35 113.75 -8.7 114.65 -7.75 114.75 -7.65 M66.1 41.15 L66.15 41.1 67.25 40.45 68.8 39.2 72.65 36.3 Q92.15 21.95 101.2 -0.7 L107.55 -16.0 M130.9 -41.3 L131.0 -41.3 M130.75 -40.65 L130.9 -40.8 M129.45 -34.75 L130.4 -39.3 130.7 -40.2 130.75 -40.55 130.75 -40.65 Q129.85 -40.1 126.8 -39.55 L126.55 -39.45 120.35 -39.1 M125.7 -34.15 L129.45 -34.35 129.45 -34.75 M130.75 -40.65 Q130.75 -41.05 130.9 -41.3 L127.4 -41.0 126.7 -41.0 121.0 -41.95 M130.4 -39.3 L130.65 -39.3 M130.9 -41.3 L131.2 -45.6 M128.9 -32.2 L128.75 -32.25 M131.35 -31.9 L131.25 -31.9 M130.85 -26.9 L134.35 -26.7 136.05 -31.25 135.65 -31.35 M134.35 -26.7 L134.55 -26.75 M127.35 -16.55 L132.3 -20.6 133.05 -22.7 131.35 -23.2 130.0 -23.55 M133.05 -22.7 L133.05 -22.85 134.35 -26.7 M133.05 -22.85 L133.15 -22.75 M127.35 -16.55 L127.35 -16.45 M127.2 -16.55 L126.75 -16.15 126.5 -9.15 125.15 -5.1 M125.95 -18.7 L126.0 -18.5 127.2 -16.55 127.35 -16.55 M131.4 -49.95 Q129.25 -48.95 126.45 -48.45 L121.3 -48.1 M60.5 48.05 L60.65 48.0 M61.15 48.05 L61.4 48.0 61.5 48.0 61.65 48.25 62.3 49.4 63.25 51.2 63.35 51.15 63.5 51.15 64.25 50.4 63.05 49.05 63.05 48.9 Q62.35 47.85 61.55 46.1 L61.4 46.0 M59.9 48.05 L60.0 48.1 60.2 48.05 60.5 48.05 M69.15 43.35 L68.75 43.25 Q67.65 42.65 66.15 41.25 L66.1 41.15 65.65 41.45 65.5 41.6 64.35 42.7 64.3 42.75 64.1 42.55 64.0 43.05 M69.55 43.55 L69.15 43.35 M69.55 43.55 L71.75 44.85 72.0 44.8 72.6 44.35 Q93.1 32.5 104.7 12.05 110.2 2.4 114.65 -7.75 M68.2 47.35 L68.25 47.4 M72.0 44.8 L71.95 44.85 71.75 44.85 71.65 45.0 68.2 47.35 M64.35 50.3 L64.25 50.4 M64.35 50.3 L65.25 49.6 M63.8 52.4 L63.7 52.05 63.25 51.2 M63.8 52.4 L63.95 52.7 65.75 58.55 M61.5 48.0 L61.25 58.25 54.85 59.1 54.6 59.25 54.75 53.65 58.1 53.65 M123.2 0.1 L125.05 -5.0" fill="none" stroke="#000000" stroke-linecap="round" stroke-linejoin="round" stroke-opacity="0.6627451" stroke-width="1.0"/>
    </g>
    <g id="sprite0" transform="matrix(1.0, 0.0, 0.0, 1.0, 49.4, 48.9)">
      <use height="97.85" transform="matrix(1.0, 0.0, 0.0, 1.0, -49.4, -48.9)" width="98.85" xlink:href="#shape1"/>
    </g>
    <g id="shape1" transform="matrix(1.0, 0.0, 0.0, 1.0, 49.4, 48.9)">
      <path d="M22.3 -40.7 L22.2 -40.65 20.05 -41.75 20.05 -41.8 22.3 -40.7" fill="url(#gradient0)" fill-rule="evenodd" stroke="none"/>
      <path d="M22.2 -40.65 L22.3 -40.7 24.8 -39.5 24.75 -39.4 Q23.45 -40.0 22.2 -40.65" fill="url(#gradient1)" fill-rule="evenodd" stroke="none"/>
      <path d="M24.75 -39.4 L23.9 -38.35 24.75 -39.4" fill="url(#gradient2)" fill-rule="evenodd" stroke="none"/>
      <path d="M23.05 -37.25 L22.5 -36.5 23.0 -37.2 23.05 -37.25" fill="url(#gradient3)" fill-rule="evenodd" stroke="none"/>
      <path d="M24.95 -34.45 L25.75 -33.9 25.7 -33.85 24.85 -34.4 24.95 -34.45" fill="url(#gradient4)" fill-rule="evenodd" stroke="none"/>
      <path d="M25.75 -33.9 L26.4 -33.45 28.55 -31.65 28.5 -31.6 26.35 -33.4 25.7 -33.85 25.75 -33.9" fill="url(#gradient5)" fill-rule="evenodd" stroke="none"/>
      <path d="M28.55 -31.65 L29.4 -30.9 29.35 -30.85 28.5 -31.6 28.55 -31.65" fill="url(#gradient6)" fill-rule="evenodd" stroke="none"/>
      <path d="M22.15 -36.15 L23.1 -35.65 23.45 -35.4 24.9 -34.5 24.8 -34.45 23.4 -35.35 23.05 -35.55 22.1 -36.05 22.15 -36.15" fill="url(#gradient7)" fill-rule="evenodd" stroke="none"/>
      <path d="M24.9 -34.5 L24.95 -34.45 24.85 -34.4 24.8 -34.45 24.9 -34.5" fill="url(#gradient8)" fill-rule="evenodd" stroke="none"/>
      <path d="M24.85 -34.4 L24.7 -34.35 24.8 -34.45 24.85 -34.4" fill="url(#gradient9)" fill-rule="evenodd" stroke="none"/>
      <path d="M29.4 -30.9 L29.55 -30.75 29.55 -30.65 29.35 -30.85 29.4 -30.9" fill="url(#gradient10)" fill-rule="evenodd" stroke="none"/>
      <path d="M29.55 -30.75 L31.3 -28.9 31.3 -28.8 31.25 -28.85 29.55 -30.65 29.55 -30.75" fill="url(#gradient11)" fill-rule="evenodd" stroke="none"/>
      <path d="M31.3 -28.9 L33.05 -27.0 33.0 -26.95 31.3 -28.8 31.3 -28.9" fill="url(#gradient12)" fill-rule="evenodd" stroke="none"/>
      <path d="M33.05 -27.0 L33.2 -26.75 33.2 -26.65 33.0 -26.95 33.05 -27.0" fill="url(#gradient13)" fill-rule="evenodd" stroke="none"/>
      <path d="M33.2 -26.75 L33.25 -26.7 33.75 -26.05 33.65 -25.95 33.4 -26.45 33.25 -26.6 33.2 -26.65 33.2 -26.75" fill="url(#gradient14)" fill-rule="evenodd" stroke="none"/>
      <path d="M33.75 -26.05 L35.25 -23.8 35.4 -23.6 35.35 -23.55 35.2 -23.7 33.65 -25.95 33.75 -26.05" fill="url(#gradient15)" fill-rule="evenodd" stroke="none"/>
      <path d="M9.6 -45.95 L11.85 -44.85 14.8 -42.1 15.15 -42.1 15.15 -42.05 15.1 -42.0 14.75 -42.0 11.8 -44.8 9.55 -45.9 9.6 -45.95" fill="url(#gradient16)" fill-rule="evenodd" stroke="none"/>
      <path d="M15.15 -42.05 L18.85 -42.35 20.0 -41.75 19.55 -40.9 19.0 -40.15 18.95 -40.05 18.55 -39.65 18.45 -39.5 Q17.55 -38.75 16.35 -38.45 L16.1 -38.75 15.6 -40.05 15.4 -40.6 15.4 -40.7 15.1 -42.0 15.15 -42.05" fill="url(#gradient17)" fill-rule="evenodd" stroke="none"/>
      <path d="M20.05 -41.8 L20.05 -41.75 20.0 -41.75 18.85 -42.35 15.15 -42.05 15.15 -42.1 18.9 -42.4 20.05 -41.8" fill="url(#gradient18)" fill-rule="evenodd" stroke="none"/>
      <path d="M9.5 -45.9 L6.7 -47.3 6.65 -47.4 9.6 -45.95 9.55 -45.9 9.5 -45.9" fill="url(#gradient19)" fill-rule="evenodd" stroke="none"/>
      <path d="M6.25 -40.65 L6.25 -40.55 Q0.3 -43.0 -5.9 -44.8 -19.1 -48.6 -32.45 -45.2 L-32.9 -45.15 -32.9 -45.25 -32.35 -45.3 Q-19.0 -48.65 -5.85 -44.85 0.35 -43.05 6.25 -40.65" fill="url(#gradient20)" fill-rule="evenodd" stroke="none"/>
      <path d="M35.4 -23.6 L35.5 -23.4 36.05 -22.45 35.95 -22.4 35.4 -23.35 35.35 -23.55 35.4 -23.6" fill="url(#gradient21)" fill-rule="evenodd" stroke="none"/>
      <path d="M36.75 -23.1 L37.15 -23.4 37.1 -23.35 36.75 -23.1" fill="url(#gradient22)" fill-rule="evenodd" stroke="none"/>
      <path d="M41.95 -15.45 L40.65 -15.75 40.55 -15.8 40.0 -15.95 38.7 -16.45 38.4 -16.7 Q38.7 -17.9 39.4 -18.8 L39.55 -18.95 39.95 -19.35 40.8 -19.9 Q41.25 -20.1 41.7 -20.4 L42.3 -19.25 42.0 -15.55 41.95 -15.45" fill="url(#gradient23)" fill-rule="evenodd" stroke="none"/>
      <path d="M31.1 -19.2 L33.95 -21.9 35.35 -23.55 35.4 -23.35 35.95 -22.4 35.15 -21.65 34.65 -21.25 34.45 -21.05 31.65 -18.4 31.55 -18.3 31.1 -19.2" fill="url(#gradient24)" fill-rule="evenodd" stroke="none"/>
      <path d="M38.7 -24.7 L39.35 -25.15 40.6 -22.65 40.55 -22.55 39.3 -25.1 38.7 -24.7" fill="url(#gradient25)" fill-rule="evenodd" stroke="none"/>
      <path d="M40.6 -22.65 L41.75 -20.45 41.65 -20.45 40.55 -22.55 40.6 -22.65" fill="url(#gradient26)" fill-rule="evenodd" stroke="none"/>
      <path d="M41.75 -20.45 L42.35 -19.3 42.05 -15.5 42.0 -15.55 42.3 -19.25 41.7 -20.4 41.65 -20.45 41.75 -20.45" fill="url(#gradient27)" fill-rule="evenodd" stroke="none"/>
      <path d="M42.05 -15.5 L42.05 -15.15 44.85 -12.25 46.0 -10.0 45.95 -10.0 44.8 -12.2 41.95 -15.1 41.95 -15.45 42.0 -15.55 42.05 -15.5" fill="url(#gradient28)" fill-rule="evenodd" stroke="none"/>
      <path d="M46.0 -10.0 L47.45 -7.1 47.35 -7.1 45.95 -9.9 45.95 -10.0 46.0 -10.0" fill="url(#gradient29)" fill-rule="evenodd" stroke="none"/>
      <path d="M40.7 -6.65 Q43.15 -0.75 45.05 5.4 49.0 18.55 45.75 31.95 L45.65 32.5 45.65 32.45 45.7 32.0 Q48.95 18.6 45.0 5.5 43.1 -0.7 40.6 -6.65 L40.7 -6.65" fill="url(#gradient30)" fill-rule="evenodd" stroke="none"/>
      <path d="M45.2 35.05 L43.65 35.1 41.75 34.85 41.7 34.85 41.7 34.8 41.7 33.9 41.7 33.75 41.75 33.45 41.8 33.45 43.7 33.15 44.15 32.95 45.6 32.55 45.6 32.65 45.2 35.05" fill="url(#gradient31)" fill-rule="evenodd" stroke="none"/>
      <path d="M43.75 36.65 L43.75 36.5 Q43.6 36.0 43.8 35.6 43.9 35.4 45.25 35.1 L45.2 35.15 44.95 36.7 44.95 37.1 44.95 37.2 44.5 37.05 43.75 36.65" fill="url(#gradient32)" fill-rule="evenodd" stroke="none"/>
      <path d="M45.25 35.1 L45.25 35.15 45.0 36.6 45.0 37.15 44.95 37.9 45.0 37.95 44.95 38.45 44.9 38.6 45.45 38.8 Q47.25 39.5 48.9 40.5 L48.95 40.6 45.75 39.0 45.35 38.85 44.85 38.7 44.85 38.65 44.9 38.55 44.9 37.95 44.9 37.85 44.95 37.2 44.95 37.1 44.95 36.7 45.2 35.15 45.25 35.1" fill="url(#gradient33)" fill-rule="evenodd" stroke="none"/>
      <path d="M45.25 35.05 L45.25 35.1 45.2 35.05 45.25 35.05" fill="url(#gradient34)" fill-rule="evenodd" stroke="none"/>
      <path d="M45.65 32.5 L45.65 32.6 45.25 35.05 45.2 35.05 45.6 32.65 45.6 32.55 45.65 32.5" fill="url(#gradient35)" fill-rule="evenodd" stroke="none"/>
      <path d="M43.8 37.85 L43.8 37.8 43.85 37.7 43.9 36.95 43.75 36.65 44.5 37.05 44.95 37.2 44.9 37.85 44.9 37.95 43.85 37.9 43.8 37.85" fill="url(#gradient36)" fill-rule="evenodd" stroke="none"/>
      <path d="M45.6 32.55 L45.65 32.45 45.65 32.5 45.6 32.55" fill="url(#gradient37)" fill-rule="evenodd" stroke="none"/>
      <path d="M48.95 40.6 Q49.05 44.65 48.15 48.35 L48.1 48.3 48.1 48.45 47.0 48.05 Q44.35 47.1 42.25 45.65 L40.3 44.25 Q40.35 41.15 42.15 38.85 L41.9 37.4 42.0 37.35 43.8 37.85 43.85 37.9 44.9 37.95 44.9 38.55 44.85 38.65 44.85 38.7 45.35 38.85 45.75 39.0 48.95 40.6 M43.8 41.85 L42.45 43.25 44.75 45.55 44.8 45.4 47.0 42.35 42.8 38.15 42.95 38.2 43.7 38.35 44.85 38.7 43.7 38.35 42.95 38.2 42.8 38.15 47.0 42.35 44.8 45.4 44.75 45.55 42.45 43.25 43.8 41.85" fill="url(#gradient38)" fill-rule="evenodd" stroke="none"/>
      <path d="M-47.8 -47.7 L-45.0 -48.2 -41.05 -48.35 -40.95 -48.4 -39.35 -45.25 -39.3 -44.95 -39.25 -44.85 -39.15 -44.35 -39.05 -44.3 -38.95 -44.4 -38.4 -44.4 -38.3 -43.35 -38.3 -43.3 -37.75 -41.45 -37.75 -41.4 -39.25 -41.6 Q-41.55 -39.8 -44.6 -39.7 L-46.05 -41.65 Q-47.45 -43.75 -48.45 -46.3 L-48.9 -47.45 -48.75 -47.5 -47.8 -47.7 M-42.25 -43.2 L-43.6 -41.85 -45.95 -44.15 -45.8 -44.2 -42.8 -46.4 -38.55 -42.25 -38.55 -42.45 -38.75 -43.2 -39.15 -44.35 -38.75 -43.2 -38.55 -42.45 -38.55 -42.25 -42.8 -46.4 -45.8 -44.2 -45.95 -44.15 -43.6 -41.85 -42.25 -43.2" fill="url(#gradient39)" fill-rule="evenodd" stroke="none"/>
      <path d="M-47.8 -47.7 L-48.75 -47.5 -48.8 -47.5 -47.8 -47.7" fill="url(#gradient40)" fill-rule="evenodd" stroke="none"/>
      <path d="M-33.05 -45.1 L-33.0 -45.15 -32.95 -45.15 -33.35 -43.75 -33.4 -43.65 -33.45 -43.45 -33.55 -43.2 -33.85 -41.35 -33.85 -41.25 -34.15 -41.25 -34.2 -41.2 -35.2 -41.25 -35.2 -41.2 -35.25 -41.3 -35.5 -43.1 -35.5 -43.5 -35.5 -43.6 -35.55 -44.7 -35.5 -44.65 -33.1 -45.1 -33.05 -45.1" fill="url(#gradient41)" fill-rule="evenodd" stroke="none"/>
      <path d="M-35.45 -44.75 L-33.05 -45.1 -33.1 -45.1 -35.5 -44.65 -35.45 -44.75" fill="url(#gradient42)" fill-rule="evenodd" stroke="none"/>
      <path d="M-33.0 -45.15 L-32.95 -45.2 -32.95 -45.15 -33.0 -45.15" fill="url(#gradient43)" fill-rule="evenodd" stroke="none"/>
      <path d="M-32.95 -45.2 L-32.9 -45.25 -32.9 -45.15 -32.95 -45.15 -32.95 -45.2" fill="url(#gradient44)" fill-rule="evenodd" stroke="none"/>
      <path d="M-39.35 -45.25 L-39.2 -44.9 -39.05 -44.4 -38.85 -44.45 -38.35 -44.4 -38.4 -44.4 -38.95 -44.4 -39.05 -44.3 -39.15 -44.35 -39.25 -44.85 -39.3 -44.95 -39.35 -45.25" fill="url(#gradient45)" fill-rule="evenodd" stroke="none"/>
      <path d="M-37.75 -41.4 L-37.75 -41.45 -38.3 -43.3 -38.3 -43.35 -38.4 -44.4 -38.3 -44.35 -37.6 -44.35 -37.4 -44.0 -37.05 -43.2 -36.6 -42.45 -35.7 -41.25 -35.6 -41.2 -37.7 -41.4 -37.75 -41.4" fill="url(#gradient46)" fill-rule="evenodd" stroke="none"/>
      <path d="M-38.35 -44.4 L-38.3 -44.45 -38.3 -44.35 -38.4 -44.4 -38.35 -44.4" fill="url(#gradient47)" fill-rule="evenodd" stroke="none"/>
      <path d="M-38.3 -44.45 L-37.6 -44.45 -37.6 -44.35 -38.3 -44.35 -38.3 -44.45" fill="url(#gradient48)" fill-rule="evenodd" stroke="none"/>
      <path d="M-37.6 -44.45 L-37.5 -44.45 -37.55 -44.4 -37.6 -44.35 -37.6 -44.45" fill="url(#gradient49)" fill-rule="evenodd" stroke="none"/>
      <path d="M-35.55 -44.7 L-35.5 -43.6 -35.5 -43.5 -35.5 -43.1 -35.25 -41.3 -35.2 -41.2 -35.5 -41.2 -35.6 -41.2 -35.7 -41.25 -36.6 -42.45 -37.05 -43.2 -37.4 -44.0 -37.6 -44.35 -37.55 -44.4 -37.15 -44.45 -35.55 -44.7" fill="url(#gradient50)" fill-rule="evenodd" stroke="none"/>
      <path d="M-37.5 -44.45 L-37.05 -44.5 -35.55 -44.7 -37.15 -44.45 -37.55 -44.4 -37.5 -44.45" fill="url(#gradient51)" fill-rule="evenodd" stroke="none"/>
      <path d="M-35.55 -44.7 L-35.45 -44.75 -35.5 -44.65 -35.55 -44.7" fill="url(#gradient52)" fill-rule="evenodd" stroke="none"/>
      <path d="M18.05 -31.65 L18.1 -31.7 19.75 -33.45 22.1 -36.05 23.05 -35.55 23.4 -35.35 24.8 -34.45 24.7 -34.35 24.85 -34.4 25.7 -33.85 26.35 -33.4 28.5 -31.6 29.35 -30.85 29.55 -30.65 31.25 -28.85 31.3 -28.8 33.0 -26.95 33.2 -26.65 33.25 -26.6 33.4 -26.45 33.65 -25.95 35.2 -23.7 35.35 -23.55 33.95 -21.9 31.1 -19.2 30.3 -20.6 30.2 -20.8 29.7 -21.6 29.1 -22.5 29.05 -22.55 28.75 -23.05 26.3 -25.65 24.75 -27.05 24.75 -27.1 22.2 -29.2 21.85 -29.45 20.5 -30.3 20.3 -30.4 20.1 -30.6 18.05 -31.6 18.05 -31.65" fill="url(#gradient53)" fill-rule="evenodd" stroke="none"/>
      <path d="M20.05 -41.75 L22.2 -40.65 20.75 -39.15 19.85 -38.15 19.8 -38.1 16.15 -34.2 14.9 -32.8 14.35 -32.3 14.15 -32.1 14.1 -32.0 11.45 -33.3 10.15 -33.95 9.2 -34.4 9.15 -34.9 9.1 -36.9 9.1 -37.55 9.15 -39.3 9.3 -43.75 9.3 -43.85 9.5 -45.9 9.55 -45.9 11.8 -44.8 14.75 -42.0 15.1 -42.0 15.4 -40.7 15.4 -40.6 15.6 -40.05 16.1 -38.75 16.35 -38.45 Q17.55 -38.75 18.45 -39.5 L18.55 -39.65 18.95 -40.05 19.0 -40.15 19.55 -40.9 20.0 -41.75 20.05 -41.75" fill="url(#gradient54)" fill-rule="evenodd" stroke="none"/>
      <path d="M22.2 -40.65 Q23.45 -40.0 24.75 -39.4 L23.9 -38.35 23.05 -37.25 23.0 -37.2 22.5 -36.5 22.15 -36.15 22.1 -36.05 19.75 -33.45 18.1 -31.7 18.05 -31.65 17.15 -30.75 15.6 -29.25 15.5 -29.2 14.8 -28.45 14.45 -28.15 12.85 -28.65 Q9.3 -29.95 6.9 -31.9 L6.65 -34.25 6.6 -34.35 6.35 -37.6 6.3 -37.65 6.25 -39.75 6.25 -40.55 6.25 -40.65 6.4 -44.95 6.6 -47.35 6.7 -47.3 9.5 -45.9 9.3 -43.85 9.3 -43.75 9.15 -39.3 9.1 -37.55 9.1 -36.9 9.15 -34.9 9.2 -34.4 10.15 -33.95 11.45 -33.3 14.1 -32.0 14.15 -32.1 14.35 -32.3 14.9 -32.8 16.15 -34.2 19.8 -38.1 19.85 -38.15 20.75 -39.15 22.2 -40.65" fill="url(#gradient55)" fill-rule="evenodd" stroke="none"/>
      <path d="M36.05 -22.45 L36.4 -22.8 36.75 -23.1 37.1 -23.35 37.15 -23.4 38.7 -24.7 39.3 -25.1 40.55 -22.55 39.05 -21.15 38.05 -20.25 38.0 -20.15 34.15 -16.5 32.8 -15.15 32.3 -14.6 32.1 -14.4 32.05 -14.35 32.35 -13.75 33.3 -11.75 34.0 -10.45 34.45 -9.5 34.95 -9.5 36.95 -9.4 37.55 -9.45 39.35 -9.5 43.8 -9.7 43.9 -9.75 45.95 -9.9 47.35 -7.1 47.4 -7.05 45.0 -6.85 40.7 -6.65 40.6 -6.65 39.85 -6.65 37.7 -6.65 37.6 -6.7 34.4 -6.95 34.3 -6.95 31.95 -7.2 Q30.35 -9.1 29.25 -11.7 L28.15 -14.7 28.4 -15.05 29.1 -15.75 29.15 -15.85 30.7 -17.4 31.55 -18.3 31.65 -18.4 34.45 -21.05 34.65 -21.25 35.15 -21.65 35.95 -22.4 36.05 -22.45" fill="url(#gradient56)" fill-rule="evenodd" stroke="none"/>
      <path d="M41.7 -20.4 Q41.25 -20.1 40.8 -19.9 L39.95 -19.35 39.55 -18.95 39.4 -18.8 Q38.7 -17.9 38.4 -16.7 L38.7 -16.45 40.0 -15.95 40.55 -15.8 40.65 -15.75 41.95 -15.45 41.95 -15.1 44.8 -12.2 45.95 -10.0 45.95 -9.9 43.9 -9.75 43.8 -9.7 39.35 -9.5 37.55 -9.45 36.95 -9.4 34.95 -9.5 34.45 -9.5 34.0 -10.45 33.3 -11.75 32.35 -13.75 32.05 -14.35 32.1 -14.4 32.3 -14.6 32.8 -15.15 34.15 -16.5 38.0 -20.15 38.05 -20.25 39.05 -21.15 40.55 -22.55 41.65 -20.45 41.7 -20.4" fill="url(#gradient57)" fill-rule="evenodd" stroke="none"/>
      <path d="M6.25 -40.55 L6.25 -39.75 6.3 -37.65 6.35 -37.6 6.6 -34.35 6.65 -34.25 -2.2 -38.1 Q-15.15 -43.8 -29.15 -41.9 L-31.9 -41.5 -33.05 -41.4 -33.75 -41.25 -33.85 -41.25 -33.85 -41.35 -33.55 -43.2 -33.45 -43.45 -33.4 -43.65 -33.35 -43.75 -32.95 -45.15 -32.9 -45.15 -32.45 -45.2 Q-19.1 -48.6 -5.9 -44.8 0.3 -43.0 6.25 -40.55" fill="url(#gradient58)" fill-rule="evenodd" stroke="none"/>
      <path d="M34.3 -6.95 L34.4 -6.95 37.6 -6.7 37.7 -6.65 39.85 -6.65 40.6 -6.65 Q43.1 -0.7 45.0 5.5 48.95 18.6 45.7 32.0 L45.65 32.45 45.6 32.55 44.15 32.95 43.7 33.15 41.8 33.45 41.75 33.45 41.75 33.4 41.9 32.7 42.0 31.5 42.35 28.75 Q44.1 14.75 38.2 1.85 L34.3 -6.95" fill="url(#gradient59)" fill-rule="evenodd" stroke="none"/>
      <path d="M22.2 -40.65 L22.3 -40.7 20.05 -41.8 20.05 -41.75 22.2 -40.65 Q23.45 -40.0 24.75 -39.4 L24.8 -39.5 22.3 -40.7 M24.75 -39.4 L23.9 -38.35 23.05 -37.25 22.5 -36.5 22.15 -36.15 23.1 -35.65 23.45 -35.4 24.9 -34.5 24.95 -34.45 25.75 -33.9 26.4 -33.45 28.55 -31.65 29.4 -30.9 29.55 -30.75 31.3 -28.9 33.05 -27.0 33.2 -26.75 33.25 -26.7 33.75 -26.05 35.25 -23.8 35.4 -23.6 35.5 -23.4 36.05 -22.45 36.4 -22.8 36.75 -23.1 37.15 -23.4 38.7 -24.7 39.35 -25.15 40.6 -22.65 41.75 -20.45 42.35 -19.3 42.05 -15.5 42.05 -15.15 44.85 -12.25 46.0 -10.0 47.45 -7.1 47.35 -7.1 47.4 -7.05 45.0 -6.85 40.7 -6.65 Q43.15 -0.75 45.05 5.4 49.0 18.55 45.75 31.95 L45.65 32.5 45.65 32.6 45.25 35.05 45.25 35.1 45.25 35.15 45.0 36.6 45.0 37.15 44.95 37.9 45.0 37.95 44.95 38.45 44.9 38.6 M48.95 40.6 Q49.05 44.65 48.15 48.35 L48.1 48.3 48.1 48.45 47.0 48.05 Q44.35 47.1 42.25 45.65 L40.3 44.25 Q40.35 41.15 42.15 38.85 L41.9 37.4 41.9 37.3 41.7 35.2 41.75 35.3 42.95 36.2 43.75 36.65 44.5 37.05 44.95 37.2 44.9 37.85 44.9 37.95 44.9 38.55 44.85 38.65 44.85 38.7 45.35 38.85 45.75 39.0 48.95 40.6 M45.25 35.1 L45.2 35.05 43.65 35.1 41.75 34.85 41.7 34.85 41.7 35.1 41.7 35.2 M23.9 -38.35 L24.75 -39.4 M23.05 -37.25 L23.0 -37.2 22.5 -36.5 M22.2 -40.65 L20.75 -39.15 19.85 -38.15 19.8 -38.1 16.15 -34.2 14.9 -32.8 14.35 -32.3 14.15 -32.1 14.1 -32.0 11.45 -33.3 10.15 -33.95 9.2 -34.4 9.15 -34.9 9.1 -36.9 9.1 -37.55 9.15 -39.3 9.3 -43.75 9.3 -43.85 9.5 -45.9 6.7 -47.3 6.6 -47.35 6.4 -44.95 6.25 -40.65 6.25 -40.55 6.25 -39.75 6.3 -37.65 6.35 -37.6 6.6 -34.35 6.65 -34.25 6.9 -31.9 Q9.3 -29.95 12.85 -28.65 L14.45 -28.15 14.8 -28.45 15.5 -29.2 15.6 -29.25 17.15 -30.75 18.05 -31.65 18.1 -31.7 19.75 -33.45 22.1 -36.05 22.15 -36.15 M25.7 -33.85 L25.75 -33.9 M25.7 -33.85 L26.35 -33.4 28.5 -31.6 28.55 -31.65 M24.8 -34.45 L23.4 -35.35 23.05 -35.55 22.1 -36.05 M24.8 -34.45 L24.7 -34.35 24.85 -34.4 24.8 -34.45 24.9 -34.5 M24.95 -34.45 L24.85 -34.4 25.7 -33.85 M31.1 -19.2 L30.3 -20.6 30.2 -20.8 29.7 -21.6 29.1 -22.5 29.05 -22.55 28.75 -23.05 26.3 -25.65 24.75 -27.05 24.75 -27.1 22.2 -29.2 21.85 -29.45 20.5 -30.3 20.3 -30.4 20.1 -30.6 18.05 -31.6 18.05 -31.65 M29.55 -30.65 L29.55 -30.75 M29.35 -30.85 L29.55 -30.65 31.25 -28.85 31.3 -28.8 31.3 -28.9 M29.4 -30.9 L29.35 -30.85 28.5 -31.6 M33.65 -25.95 L33.4 -26.45 33.25 -26.6 33.2 -26.65 33.0 -26.95 31.3 -28.8 M33.0 -26.95 L33.05 -27.0 M33.2 -26.75 L33.2 -26.65 M33.75 -26.05 L33.65 -25.95 35.2 -23.7 35.35 -23.55 35.4 -23.6 M9.6 -45.95 L11.85 -44.85 14.8 -42.1 15.15 -42.1 18.9 -42.4 20.05 -41.8 M15.15 -42.1 L15.15 -42.05 18.85 -42.35 20.0 -41.75 20.05 -41.75 M15.15 -42.05 L15.1 -42.0 15.4 -40.7 15.4 -40.6 15.6 -40.05 16.1 -38.75 16.35 -38.45 Q17.55 -38.75 18.45 -39.5 L18.55 -39.65 18.95 -40.05 19.0 -40.15 19.55 -40.9 20.0 -41.75 M15.1 -42.0 L14.75 -42.0 11.8 -44.8 9.55 -45.9 9.5 -45.9 M9.6 -45.95 L6.65 -47.4 6.7 -47.3 M9.55 -45.9 L9.6 -45.95 M36.75 -23.1 L37.1 -23.35 37.15 -23.4 M35.95 -22.4 L36.05 -22.45 M41.7 -20.4 Q41.25 -20.1 40.8 -19.9 L39.95 -19.35 39.55 -18.95 39.4 -18.8 Q38.7 -17.9 38.4 -16.7 L38.7 -16.45 40.0 -15.95 40.55 -15.8 40.65 -15.75 41.95 -15.45 42.0 -15.55 42.3 -19.25 41.7 -20.4 41.65 -20.45 40.55 -22.55 39.05 -21.15 38.05 -20.25 38.0 -20.15 34.15 -16.5 32.8 -15.15 32.3 -14.6 32.1 -14.4 32.05 -14.35 32.35 -13.75 33.3 -11.75 34.0 -10.45 34.45 -9.5 34.95 -9.5 36.95 -9.4 37.55 -9.45 39.35 -9.5 43.8 -9.7 43.9 -9.75 45.95 -9.9 45.95 -10.0 44.8 -12.2 41.95 -15.1 41.95 -15.45 M35.35 -23.55 L33.95 -21.9 31.1 -19.2 31.55 -18.3 31.65 -18.4 34.45 -21.05 34.65 -21.25 35.15 -21.65 35.95 -22.4 35.4 -23.35 35.35 -23.55 M34.3 -6.95 L31.95 -7.2 Q30.35 -9.1 29.25 -11.7 L28.15 -14.7 28.4 -15.05 29.1 -15.75 29.15 -15.85 30.7 -17.4 31.55 -18.3 M40.6 -6.65 L39.85 -6.65 37.7 -6.65 37.6 -6.7 34.4 -6.95 34.3 -6.95 38.2 1.85 Q44.1 14.75 42.35 28.75 L42.0 31.5 41.9 32.7 41.75 33.4 41.75 33.45 41.8 33.45 43.7 33.15 44.15 32.95 45.6 32.55 45.65 32.45 45.7 32.0 Q48.95 18.6 45.0 5.5 43.1 -0.7 40.6 -6.65 L40.7 -6.65 M38.7 -24.7 L39.3 -25.1 40.55 -22.55 40.6 -22.65 M41.75 -20.45 L41.65 -20.45 M42.05 -15.5 L42.0 -15.55 M46.0 -10.0 L45.95 -10.0 M45.95 -9.9 L47.35 -7.1 M41.75 33.45 L41.7 33.75 41.7 33.9 41.7 34.8 41.7 34.85 41.55 34.85 41.7 35.1 M45.25 35.05 L45.2 35.05 45.6 32.65 45.6 32.55 45.65 32.5 45.65 32.45 M44.95 37.2 L44.95 37.1 44.95 36.7 45.2 35.15 45.25 35.1 M44.9 37.95 L43.85 37.9 43.8 37.85 42.0 37.35 41.9 37.4 M44.85 38.7 L43.7 38.35 42.95 38.2 42.8 38.15 47.0 42.35 44.8 45.4 44.75 45.55 42.45 43.25 43.8 41.85 M-47.8 -47.7 L-45.0 -48.2 -41.05 -48.35 -40.95 -48.4 -39.35 -45.25 -39.2 -44.9 M-39.05 -44.4 L-38.85 -44.45 -38.35 -44.4 -38.3 -44.45 -37.6 -44.45 -37.5 -44.45 -37.05 -44.5 -35.55 -44.7 -35.45 -44.75 -33.05 -45.1 -33.0 -45.15 -32.95 -45.2 -32.9 -45.25 -32.35 -45.3 Q-19.0 -48.65 -5.85 -44.85 0.35 -43.05 6.25 -40.65 M-39.15 -44.35 L-38.75 -43.2 -38.55 -42.45 -38.55 -42.25 -42.8 -46.4 -45.8 -44.2 -45.95 -44.15 -43.6 -41.85 -42.25 -43.2 M-48.75 -47.5 L-47.8 -47.7 -48.8 -47.5 -48.75 -47.5 -48.9 -47.45 -48.45 -46.3 Q-47.45 -43.75 -46.05 -41.65 L-44.6 -39.7 Q-41.55 -39.8 -39.25 -41.6 L-37.75 -41.4 -37.75 -41.45 -38.3 -43.3 -38.3 -43.35 -38.4 -44.4 -38.95 -44.4 -39.05 -44.3 -39.15 -44.35 -39.25 -44.85 -39.3 -44.95 -39.35 -45.25 M-32.95 -45.15 L-33.0 -45.15 M-32.95 -45.2 L-32.95 -45.15 -32.9 -45.15 -32.9 -45.25 M-32.95 -45.15 L-33.35 -43.75 -33.4 -43.65 -33.45 -43.45 -33.55 -43.2 -33.85 -41.35 -33.85 -41.25 -33.75 -41.25 -33.05 -41.4 -31.9 -41.5 -29.15 -41.9 Q-15.15 -43.8 -2.2 -38.1 L6.65 -34.25 M-33.05 -45.1 L-33.1 -45.1 -35.5 -44.65 -35.55 -44.7 -35.5 -43.6 -35.5 -43.5 -35.5 -43.1 -35.25 -41.3 -35.2 -41.2 -35.2 -41.25 -34.2 -41.2 -34.15 -41.25 -33.85 -41.25 M6.25 -40.55 Q0.3 -43.0 -5.9 -44.8 -19.1 -48.6 -32.45 -45.2 L-32.9 -45.15 M-38.35 -44.4 L-38.4 -44.4 -38.3 -44.35 -38.3 -44.45 M-37.55 -44.4 L-37.15 -44.45 -35.55 -44.7 M-37.55 -44.4 L-37.5 -44.45 M-37.6 -44.45 L-37.6 -44.35 -37.55 -44.4 M-37.6 -44.35 L-37.4 -44.0 -37.05 -43.2 -36.6 -42.45 -35.7 -41.25 -35.6 -41.2 -35.5 -41.2 -35.2 -41.2 M-35.5 -44.65 L-35.45 -44.75 M-38.3 -44.35 L-37.6 -44.35 M-37.75 -41.4 L-37.7 -41.4 -35.6 -41.2" fill="none" stroke="#000000" stroke-linecap="round" stroke-linejoin="round" stroke-opacity="0.6627451" stroke-width="1.0"/>
    </g>
    <linearGradient gradientTransform="matrix(0.0014, 0.0, 0.0, 7.0E-4, 21.15, -41.25)" gradientUnits="userSpaceOnUse" id="gradient0" spreadMethod="pad" x1="-819.2" x2="819.2">
      <stop offset="0.0" stop-color="#000000"/>
      <stop offset="1.0" stop-color="#ffffff"/>
    </linearGradient>
    <linearGradient gradientTransform="matrix(0.0016, 0.0, 0.0, 8.0E-4, 23.5, -40.05)" gradientUnits="userSpaceOnUse" id="gradient1" spreadMethod="pad" x1="-819.2" x2="819.2">
      <stop offset="0.0" stop-color="#000000"/>
      <stop offset="1.0" stop-color="#ffffff"/>
    </linearGradient>
    <linearGradient gradientTransform="matrix(5.0E-4, 0.0, 0.0, 6.0E-4, 24.3, -38.9)" gradientUnits="userSpaceOnUse" id="gradient2" spreadMethod="pad" x1="-819.2" x2="819.2">
      <stop offset="0.0" stop-color="#000000"/>
      <stop offset="1.0" stop-color="#ffffff"/>
    </linearGradient>
    <linearGradient gradientTransform="matrix(3.0E-4, 0.0, 0.0, 5.0E-4, 22.75, -36.9)" gradientUnits="userSpaceOnUse" id="gradient3" spreadMethod="pad" x1="-819.2" x2="819.2">
      <stop offset="0.0" stop-color="#000000"/>
      <stop offset="1.0" stop-color="#ffffff"/>
    </linearGradient>
    <linearGradient gradientTransform="matrix(5.0E-4, 0.0, 0.0, 4.0E-4, 25.3, -34.15)" gradientUnits="userSpaceOnUse" id="gradient4" spreadMethod="pad" x1="-819.2" x2="819.2">
      <stop offset="0.0" stop-color="#000000"/>
      <stop offset="1.0" stop-color="#ffffff"/>
    </linearGradient>
    <linearGradient gradientTransform="matrix(0.0017, 0.0, 0.0, 0.0014, 27.1, -32.75)" gradientUnits="userSpaceOnUse" id="gradient5" spreadMethod="pad" x1="-819.2" x2="819.2">
      <stop offset="0.0" stop-color="#000000"/>
      <stop offset="1.0" stop-color="#ffffff"/>
    </linearGradient>
    <linearGradient gradientTransform="matrix(5.0E-4, 0.0, 0.0, 5.0E-4, 28.95, -31.25)" gradientUnits="userSpaceOnUse" id="gradient6" spreadMethod="pad" x1="-819.2" x2="819.2">
      <stop offset="0.0" stop-color="#000000"/>
      <stop offset="1.0" stop-color="#ffffff"/>
    </linearGradient>
    <linearGradient gradientTransform="matrix(0.0017, 0.0, 0.0, 0.001, 23.5, -35.3)" gradientUnits="userSpaceOnUse" id="gradient7" spreadMethod="pad" x1="-819.2" x2="819.2">
      <stop offset="0.0" stop-color="#000000"/>
      <stop offset="1.0" stop-color="#ffffff"/>
    </linearGradient>
    <linearGradient gradientTransform="matrix(1.0E-4, 0.0, 0.0, 1.0E-4, 24.85, -34.45)" gradientUnits="userSpaceOnUse" id="gradient8" spreadMethod="pad" x1="-819.2" x2="819.2">
      <stop offset="0.0" stop-color="#000000"/>
      <stop offset="1.0" stop-color="#ffffff"/>
    </linearGradient>
    <linearGradient gradientTransform="matrix(1.0E-4, 0.0, 0.0, 1.0E-4, 24.75, -34.4)" gradientUnits="userSpaceOnUse" id="gradient9" spreadMethod="pad" x1="-819.2" x2="819.2">
      <stop offset="0.0" stop-color="#000000"/>
      <stop offset="1.0" stop-color="#ffffff"/>
    </linearGradient>
    <linearGradient gradientTransform="matrix(1.0E-4, 0.0, 0.0, 2.0E-4, 29.45, -30.8)" gradientUnits="userSpaceOnUse" id="gradient10" spreadMethod="pad" x1="-819.2" x2="819.2">
      <stop offset="0.0" stop-color="#000000"/>
      <stop offset="1.0" stop-color="#ffffff"/>
    </linearGradient>
    <linearGradient gradientTransform="matrix(0.0011, 0.0, 0.0, 0.0012, 30.4, -29.8)" gradientUnits="userSpaceOnUse" id="gradient11" spreadMethod="pad" x1="-819.2" x2="819.2">
      <stop offset="0.0" stop-color="#000000"/>
      <stop offset="1.0" stop-color="#ffffff"/>
    </linearGradient>
    <linearGradient gradientTransform="matrix(0.0011, 0.0, 0.0, 0.0012, 32.15, -27.95)" gradientUnits="userSpaceOnUse" id="gradient12" spreadMethod="pad" x1="-819.2" x2="819.2">
      <stop offset="0.0" stop-color="#000000"/>
      <stop offset="1.0" stop-color="#ffffff"/>
    </linearGradient>
    <linearGradient gradientTransform="matrix(1.0E-4, 0.0, 0.0, 2.0E-4, 33.1, -26.85)" gradientUnits="userSpaceOnUse" id="gradient13" spreadMethod="pad" x1="-819.2" x2="819.2">
      <stop offset="0.0" stop-color="#000000"/>
      <stop offset="1.0" stop-color="#ffffff"/>
    </linearGradient>
    <linearGradient gradientTransform="matrix(3.0E-4, 0.0, 0.0, 5.0E-4, 33.45, -26.35)" gradientUnits="userSpaceOnUse" id="gradient14" spreadMethod="pad" x1="-819.2" x2="819.2">
      <stop offset="0.0" stop-color="#000000"/>
      <stop offset="1.0" stop-color="#ffffff"/>
    </linearGradient>
    <linearGradient gradientTransform="matrix(0.0011, 0.0, 0.0, 0.0015, 34.5, -24.8)" gradientUnits="userSpaceOnUse" id="gradient15" spreadMethod="pad" x1="-819.2" x2="819.2">
      <stop offset="0.0" stop-color="#000000"/>
      <stop offset="1.0" stop-color="#ffffff"/>
    </linearGradient>
    <linearGradient gradientTransform="matrix(0.0034, 0.0, 0.0, 0.0024, 12.35, -44.0)" gradientUnits="userSpaceOnUse" id="gradient16" spreadMethod="pad" x1="-819.2" x2="819.2">
      <stop offset="0.0" stop-color="#000000"/>
      <stop offset="1.0" stop-color="#ffffff"/>
    </linearGradient>
    <linearGradient gradientTransform="matrix(0.003, 0.0, 0.0, 0.0024, 17.55, -40.4)" gradientUnits="userSpaceOnUse" id="gradient17" spreadMethod="pad" x1="-819.2" x2="819.2">
      <stop offset="0.0" stop-color="#000000"/>
      <stop offset="1.0" stop-color="#ffffff"/>
    </linearGradient>
    <linearGradient gradientTransform="matrix(0.003, 0.0, 0.0, 4.0E-4, 17.6, -42.1)" gradientUnits="userSpaceOnUse" id="gradient18" spreadMethod="pad" x1="-819.2" x2="819.2">
      <stop offset="0.0" stop-color="#000000"/>
      <stop offset="1.0" stop-color="#ffffff"/>
    </linearGradient>
    <linearGradient gradientTransform="matrix(0.0018, 0.0, 0.0, 9.0E-4, 8.1, -46.65)" gradientUnits="userSpaceOnUse" id="gradient19" spreadMethod="pad" x1="-819.2" x2="819.2">
      <stop offset="0.0" stop-color="#000000"/>
      <stop offset="1.0" stop-color="#ffffff"/>
    </linearGradient>
    <linearGradient gradientTransform="matrix(0.0239, 0.0, 0.0, 0.0038, -13.35, -43.7)" gradientUnits="userSpaceOnUse" id="gradient20" spreadMethod="pad" x1="-819.2" x2="819.2">
      <stop offset="0.0" stop-color="#000000"/>
      <stop offset="1.0" stop-color="#ffffff"/>
    </linearGradient>
    <linearGradient gradientTransform="matrix(4.0E-4, 0.0, 0.0, 7.0E-4, 35.7, -23.0)" gradientUnits="userSpaceOnUse" id="gradient21" spreadMethod="pad" x1="-819.2" x2="819.2">
      <stop offset="0.0" stop-color="#000000"/>
      <stop offset="1.0" stop-color="#ffffff"/>
    </linearGradient>
    <linearGradient gradientTransform="matrix(2.0E-4, 0.0, 0.0, 2.0E-4, 36.95, -23.25)" gradientUnits="userSpaceOnUse" id="gradient22" spreadMethod="pad" x1="-819.2" x2="819.2">
      <stop offset="0.0" stop-color="#000000"/>
      <stop offset="1.0" stop-color="#ffffff"/>
    </linearGradient>
    <linearGradient gradientTransform="matrix(0.0024, 0.0, 0.0, 0.003, 40.35, -17.95)" gradientUnits="userSpaceOnUse" id="gradient23" spreadMethod="pad" x1="-819.2" x2="819.2">
      <stop offset="0.0" stop-color="#000000"/>
      <stop offset="1.0" stop-color="#ffffff"/>
    </linearGradient>
    <linearGradient gradientTransform="matrix(0.003, 0.0, 0.0, 0.0032, 33.5, -20.95)" gradientUnits="userSpaceOnUse" id="gradient24" spreadMethod="pad" x1="-819.2" x2="819.2">
      <stop offset="0.0" stop-color="#000000"/>
      <stop offset="1.0" stop-color="#ffffff"/>
    </linearGradient>
    <linearGradient gradientTransform="matrix(0.0012, 0.0, 0.0, 0.0016, 39.65, -23.85)" gradientUnits="userSpaceOnUse" id="gradient25" spreadMethod="pad" x1="-819.2" x2="819.2">
      <stop offset="0.0" stop-color="#000000"/>
      <stop offset="1.0" stop-color="#ffffff"/>
    </linearGradient>
    <linearGradient gradientTransform="matrix(7.0E-4, 0.0, 0.0, 0.0013, 41.15, -21.55)" gradientUnits="userSpaceOnUse" id="gradient26" spreadMethod="pad" x1="-819.2" x2="819.2">
      <stop offset="0.0" stop-color="#000000"/>
      <stop offset="1.0" stop-color="#ffffff"/>
    </linearGradient>
    <linearGradient gradientTransform="matrix(4.0E-4, 0.0, 0.0, 0.003, 42.0, -18.0)" gradientUnits="userSpaceOnUse" id="gradient27" spreadMethod="pad" x1="-819.2" x2="819.2">
      <stop offset="0.0" stop-color="#000000"/>
      <stop offset="1.0" stop-color="#ffffff"/>
    </linearGradient>
    <linearGradient gradientTransform="matrix(0.0025, 0.0, 0.0, 0.0034, 43.95, -12.8)" gradientUnits="userSpaceOnUse" id="gradient28" spreadMethod="pad" x1="-819.2" x2="819.2">
      <stop offset="0.0" stop-color="#000000"/>
      <stop offset="1.0" stop-color="#ffffff"/>
    </linearGradient>
    <linearGradient gradientTransform="matrix(9.0E-4, 0.0, 0.0, 0.0018, 46.7, -8.55)" gradientUnits="userSpaceOnUse" id="gradient29" spreadMethod="pad" x1="-819.2" x2="819.2">
      <stop offset="0.0" stop-color="#000000"/>
      <stop offset="1.0" stop-color="#ffffff"/>
    </linearGradient>
    <linearGradient gradientTransform="matrix(0.004, 0.0, 0.0, 0.0239, 43.9, 12.9)" gradientUnits="userSpaceOnUse" id="gradient30" spreadMethod="pad" x1="-819.2" x2="819.2">
      <stop offset="0.0" stop-color="#000000"/>
      <stop offset="1.0" stop-color="#ffffff"/>
    </linearGradient>
    <linearGradient gradientTransform="matrix(0.0024, 0.0, 0.0, 0.0016, 43.65, 33.8)" gradientUnits="userSpaceOnUse" id="gradient31" spreadMethod="pad" x1="-819.2" x2="819.2">
      <stop offset="0.0" stop-color="#000000"/>
      <stop offset="1.0" stop-color="#ffffff"/>
    </linearGradient>
    <linearGradient gradientTransform="matrix(9.0E-4, 0.0, 0.0, 0.0013, 44.45, 36.15)" gradientUnits="userSpaceOnUse" id="gradient32" spreadMethod="pad" x1="-819.2" x2="819.2">
      <stop offset="0.0" stop-color="#000000"/>
      <stop offset="1.0" stop-color="#ffffff"/>
    </linearGradient>
    <linearGradient gradientTransform="matrix(0.0025, 0.0, 0.0, 0.0034, 46.9, 37.85)" gradientUnits="userSpaceOnUse" id="gradient33" spreadMethod="pad" x1="-819.2" x2="819.2">
      <stop offset="0.0" stop-color="#000000"/>
      <stop offset="1.0" stop-color="#ffffff"/>
    </linearGradient>
    <linearGradient gradientTransform="matrix(0.0, 0.0, 0.0, 0.0, 45.2, 35.05)" gradientUnits="userSpaceOnUse" id="gradient34" spreadMethod="pad" x1="-819.2" x2="819.2">
      <stop offset="0.0" stop-color="#000000"/>
      <stop offset="1.0" stop-color="#ffffff"/>
    </linearGradient>
    <linearGradient gradientTransform="matrix(3.0E-4, 0.0, 0.0, 0.0016, 45.4, 33.75)" gradientUnits="userSpaceOnUse" id="gradient35" spreadMethod="pad" x1="-819.2" x2="819.2">
      <stop offset="0.0" stop-color="#000000"/>
      <stop offset="1.0" stop-color="#ffffff"/>
    </linearGradient>
    <linearGradient gradientTransform="matrix(7.0E-4, 0.0, 0.0, 8.0E-4, 44.35, 37.3)" gradientUnits="userSpaceOnUse" id="gradient36" spreadMethod="pad" x1="-819.2" x2="819.2">
      <stop offset="0.0" stop-color="#000000"/>
      <stop offset="1.0" stop-color="#ffffff"/>
    </linearGradient>
    <linearGradient gradientTransform="matrix(0.0, 0.0, 0.0, 1.0E-4, 45.6, 32.5)" gradientUnits="userSpaceOnUse" id="gradient37" spreadMethod="pad" x1="-819.2" x2="819.2">
      <stop offset="0.0" stop-color="#000000"/>
      <stop offset="1.0" stop-color="#ffffff"/>
    </linearGradient>
    <linearGradient gradientTransform="matrix(0.0053, 0.0, 0.0, 0.0068, 44.6, 42.9)" gradientUnits="userSpaceOnUse" id="gradient38" spreadMethod="pad" x1="-819.2" x2="819.2">
      <stop offset="0.0" stop-color="#000000"/>
      <stop offset="1.0" stop-color="#ffffff"/>
    </linearGradient>
    <linearGradient gradientTransform="matrix(0.0068, 0.0, 0.0, 0.0053, -43.35, -44.05)" gradientUnits="userSpaceOnUse" id="gradient39" spreadMethod="pad" x1="-819.2" x2="819.2">
      <stop offset="0.0" stop-color="#000000"/>
      <stop offset="1.0" stop-color="#ffffff"/>
    </linearGradient>
    <linearGradient gradientTransform="matrix(6.0E-4, 0.0, 0.0, 1.0E-4, -48.3, -47.6)" gradientUnits="userSpaceOnUse" id="gradient40" spreadMethod="pad" x1="-819.2" x2="819.2">
      <stop offset="0.0" stop-color="#000000"/>
      <stop offset="1.0" stop-color="#ffffff"/>
    </linearGradient>
    <linearGradient gradientTransform="matrix(0.0016, 0.0, 0.0, 0.0024, -34.25, -43.2)" gradientUnits="userSpaceOnUse" id="gradient41" spreadMethod="pad" x1="-819.2" x2="819.2">
      <stop offset="0.0" stop-color="#000000"/>
      <stop offset="1.0" stop-color="#ffffff"/>
    </linearGradient>
    <linearGradient gradientTransform="matrix(0.0015, 0.0, 0.0, 3.0E-4, -34.3, -44.9)" gradientUnits="userSpaceOnUse" id="gradient42" spreadMethod="pad" x1="-819.2" x2="819.2">
      <stop offset="0.0" stop-color="#000000"/>
      <stop offset="1.0" stop-color="#ffffff"/>
    </linearGradient>
    <linearGradient gradientTransform="matrix(0.0, 0.0, 0.0, 0.0, -33.0, -45.2)" gradientUnits="userSpaceOnUse" id="gradient43" spreadMethod="pad" x1="-819.2" x2="819.2">
      <stop offset="0.0" stop-color="#000000"/>
      <stop offset="1.0" stop-color="#ffffff"/>
    </linearGradient>
    <linearGradient gradientTransform="matrix(0.0, 0.0, 0.0, 1.0E-4, -32.95, -45.2)" gradientUnits="userSpaceOnUse" id="gradient44" spreadMethod="pad" x1="-819.2" x2="819.2">
      <stop offset="0.0" stop-color="#000000"/>
      <stop offset="1.0" stop-color="#ffffff"/>
    </linearGradient>
    <linearGradient gradientTransform="matrix(6.0E-4, 0.0, 0.0, 6.0E-4, -38.85, -44.8)" gradientUnits="userSpaceOnUse" id="gradient45" spreadMethod="pad" x1="-819.2" x2="819.2">
      <stop offset="0.0" stop-color="#000000"/>
      <stop offset="1.0" stop-color="#ffffff"/>
    </linearGradient>
    <linearGradient gradientTransform="matrix(0.0017, 0.0, 0.0, 0.002, -37.0, -42.8)" gradientUnits="userSpaceOnUse" id="gradient46" spreadMethod="pad" x1="-819.2" x2="819.2">
      <stop offset="0.0" stop-color="#000000"/>
      <stop offset="1.0" stop-color="#ffffff"/>
    </linearGradient>
    <linearGradient gradientTransform="matrix(1.0E-4, 0.0, 0.0, 1.0E-4, -38.35, -44.4)" gradientUnits="userSpaceOnUse" id="gradient47" spreadMethod="pad" x1="-819.2" x2="819.2">
      <stop offset="0.0" stop-color="#000000"/>
      <stop offset="1.0" stop-color="#ffffff"/>
    </linearGradient>
    <linearGradient gradientTransform="matrix(4.0E-4, 0.0, 0.0, 1.0E-4, -37.95, -44.4)" gradientUnits="userSpaceOnUse" id="gradient48" spreadMethod="pad" x1="-819.2" x2="819.2">
      <stop offset="0.0" stop-color="#000000"/>
      <stop offset="1.0" stop-color="#ffffff"/>
    </linearGradient>
    <linearGradient gradientTransform="matrix(1.0E-4, 0.0, 0.0, 1.0E-4, -37.6, -44.4)" gradientUnits="userSpaceOnUse" id="gradient49" spreadMethod="pad" x1="-819.2" x2="819.2">
      <stop offset="0.0" stop-color="#000000"/>
      <stop offset="1.0" stop-color="#ffffff"/>
    </linearGradient>
    <linearGradient gradientTransform="matrix(0.0015, 0.0, 0.0, 0.0021, -36.4, -42.95)" gradientUnits="userSpaceOnUse" id="gradient50" spreadMethod="pad" x1="-819.2" x2="819.2">
      <stop offset="0.0" stop-color="#000000"/>
      <stop offset="1.0" stop-color="#ffffff"/>
    </linearGradient>
    <linearGradient gradientTransform="matrix(0.0012, 0.0, 0.0, 2.0E-4, -36.55, -44.55)" gradientUnits="userSpaceOnUse" id="gradient51" spreadMethod="pad" x1="-819.2" x2="819.2">
      <stop offset="0.0" stop-color="#000000"/>
      <stop offset="1.0" stop-color="#ffffff"/>
    </linearGradient>
    <linearGradient gradientTransform="matrix(1.0E-4, 0.0, 0.0, 1.0E-4, -35.5, -44.7)" gradientUnits="userSpaceOnUse" id="gradient52" spreadMethod="pad" x1="-819.2" x2="819.2">
      <stop offset="0.0" stop-color="#000000"/>
      <stop offset="1.0" stop-color="#ffffff"/>
    </linearGradient>
    <linearGradient gradientTransform="matrix(0.0051, -0.0054, 0.0075, 0.007, 26.65, -27.6)" gradientUnits="userSpaceOnUse" id="gradient53" spreadMethod="pad" x1="-819.2" x2="819.2">
      <stop offset="0.0" stop-color="#000000"/>
      <stop offset="1.0" stop-color="#ffffff"/>
    </linearGradient>
    <linearGradient gradientTransform="matrix(0.0034, -0.0072, 0.0076, 0.0037, 15.65, -38.95)" gradientUnits="userSpaceOnUse" id="gradient54" spreadMethod="pad" x1="-819.2" x2="819.2">
      <stop offset="0.0" stop-color="#000000"/>
      <stop offset="1.0" stop-color="#ffffff"/>
    </linearGradient>
    <linearGradient gradientTransform="matrix(0.0044, -0.0104, 0.0108, 0.0045, 15.85, -38.0)" gradientUnits="userSpaceOnUse" id="gradient55" spreadMethod="pad" x1="-819.2" x2="819.2">
      <stop offset="0.0" stop-color="#000000"/>
      <stop offset="1.0" stop-color="#ffffff"/>
    </linearGradient>
    <linearGradient gradientTransform="matrix(0.0104, -0.0054, 0.0052, 0.01, 37.7, -15.9)" gradientUnits="userSpaceOnUse" id="gradient56" spreadMethod="pad" x1="-819.2" x2="819.2">
      <stop offset="0.0" stop-color="#000000"/>
      <stop offset="1.0" stop-color="#ffffff"/>
    </linearGradient>
    <linearGradient gradientTransform="matrix(0.0077, -0.0036, 0.0034, 0.0073, 39.0, -16.0)" gradientUnits="userSpaceOnUse" id="gradient57" spreadMethod="pad" x1="-819.2" x2="819.2">
      <stop offset="0.0" stop-color="#000000"/>
      <stop offset="1.0" stop-color="#ffffff"/>
    </linearGradient>
    <linearGradient gradientTransform="matrix(-0.024, -0.0057, 0.0018, -0.0074, -13.6, -40.55)" gradientUnits="userSpaceOnUse" id="gradient58" spreadMethod="pad" x1="-819.2" x2="819.2">
      <stop offset="0.0" stop-color="#000000"/>
      <stop offset="1.0" stop-color="#ffffff"/>
    </linearGradient>
    <linearGradient gradientTransform="matrix(0.001, 0.0218, -0.0246, 0.0011, 40.7, 13.25)" gradientUnits="userSpaceOnUse" id="gradient59" spreadMethod="pad" x1="-819.2" x2="819.2">
      <stop offset="0.0" stop-color="#000000"/>
      <stop offset="1.0" stop-color="#ffffff"/>
    </linearGradient>
    <g id="shape2" transform="matrix(1.0, 0.0, 0.0, 1.0, 62.85, 72.7)">
      <path d="M139.4 -63.7 L140.45 -61.0 Q141.3 -58.2 141.3 -56.05 L141.15 -54.6 141.2 -53.95 140.25 -51.35 140.15 -50.9 140.25 -50.85 Q140.3 -50.6 140.6 -50.5 L140.65 -50.5 Q141.8 -49.7 142.2 -47.4 142.55 -45.65 142.4 -43.75 142.4 -40.6 140.7 -38.8 139.7 -37.7 138.05 -36.95 L138.6 -36.1 Q138.9 -35.35 138.9 -33.8 138.9 -25.8 135.7 -23.35 133.25 -21.5 125.9 -21.5 123.9 -21.5 119.75 -22.9 119.25 -23.45 118.45 -23.65 L116.05 -24.3 116.0 -24.3 112.9 -25.85 110.2 -27.7 Q109.65 -28.35 109.65 -29.9 109.65 -31.9 110.5 -34.85 L111.3 -36.35 111.8 -37.05 111.2 -37.2 109.25 -36.05 Q106.55 -34.6 105.15 -34.6 L103.55 -35.05 Q103.85 -35.55 108.1 -37.1 L109.3 -37.85 Q107.85 -38.4 106.9 -39.05 105.2 -40.2 104.9 -41.8 104.75 -42.65 104.95 -43.85 104.85 -46.9 105.8 -49.25 107.1 -52.3 109.9 -51.9 L109.9 -52.6 110.0 -55.95 108.8 -56.55 106.9 -57.65 Q107.4 -58.8 109.85 -58.25 L110.2 -58.15 Q110.4 -59.9 110.8 -60.75 112.4 -64.1 117.35 -65.75 L122.15 -66.85 126.1 -67.3 127.2 -67.4 127.5 -67.45 127.6 -67.45 129.8 -67.55 130.4 -67.55 Q134.9 -67.6 136.55 -66.65 138.25 -65.6 138.8 -64.8 L139.4 -63.7 M137.15 -51.6 Q138.4 -52.3 139.05 -53.2 L139.8 -54.4 140.05 -55.75 139.95 -57.0 139.0 -61.15 138.5 -62.85 Q138.0 -64.25 135.95 -65.2 L135.05 -65.6 130.9 -66.25 122.3 -65.3 Q117.85 -64.15 115.95 -63.25 L115.6 -63.05 Q113.7 -62.1 113.05 -60.85 112.4 -59.65 112.1 -58.5 111.45 -55.4 112.05 -52.9 112.1 -52.3 112.25 -52.05 112.45 -51.25 113.1 -50.85 113.55 -50.5 114.95 -50.2 L115.7 -50.1 116.3 -50.0 116.45 -49.95 Q125.15 -49.3 132.15 -50.3 135.05 -50.65 136.45 -51.3 L137.15 -51.6 M111.35 -48.85 Q110.85 -49.05 110.55 -49.45 L110.4 -49.75 109.7 -49.95 Q108.8 -50.1 107.8 -49.0 L106.95 -47.65 Q106.8 -47.1 106.8 -44.9 106.8 -42.95 107.05 -42.3 107.65 -40.75 109.85 -39.8 L110.6 -39.55 115.05 -38.6 124.15 -37.4 Q128.85 -37.0 131.75 -37.5 L136.2 -38.35 137.15 -38.7 139.15 -40.05 Q140.55 -41.4 140.55 -44.75 L140.25 -47.1 140.1 -48.3 140.05 -48.5 Q139.8 -49.6 138.8 -49.6 138.25 -49.6 137.8 -49.25 L137.75 -49.25 132.25 -48.4 127.3 -48.1 122.45 -48.1 118.35 -48.15 116.45 -48.25 112.15 -48.6 111.8 -48.7 111.6 -48.8 111.35 -48.85 M116.0 -36.25 L115.55 -36.35 113.7 -36.45 113.5 -36.35 113.3 -36.05 Q112.35 -34.8 112.3 -34.35 L111.9 -32.85 111.55 -31.2 111.75 -29.45 112.25 -28.3 112.9 -27.6 113.65 -27.15 Q114.9 -26.4 116.25 -25.75 120.3 -23.95 124.7 -23.75 L126.75 -23.75 128.65 -23.85 Q131.6 -23.85 133.5 -24.65 135.0 -25.35 135.75 -26.6 136.9 -28.45 136.9 -33.4 L136.75 -34.75 136.1 -35.6 135.0 -36.0 129.4 -35.55 116.0 -36.25" fill="#000000" fill-rule="evenodd" stroke="none"/>
      <path d="M135.05 -65.6 L135.95 -65.2 Q138.0 -64.25 138.5 -62.85 L139.0 -61.15 139.95 -57.0 140.05 -55.75 139.8 -54.4 139.05 -53.2 Q138.4 -52.3 137.15 -51.6 L137.45 -53.35 Q137.45 -58.05 136.65 -61.55 136.05 -64.15 135.05 -65.6 M115.7 -50.1 L114.95 -50.2 Q113.55 -50.5 113.1 -50.85 112.45 -51.25 112.25 -52.05 112.1 -52.3 112.05 -52.9 111.45 -55.4 112.1 -58.5 112.4 -59.65 113.05 -60.85 113.7 -62.1 115.6 -63.05 L115.95 -63.25 Q114.85 -60.4 114.85 -55.75 L114.9 -52.65 Q115.1 -51.45 115.7 -50.1 M110.6 -39.55 L109.85 -39.8 Q107.65 -40.75 107.05 -42.3 106.8 -42.95 106.8 -44.9 106.8 -47.1 106.95 -47.65 L107.8 -49.0 Q108.8 -50.1 109.7 -49.95 L110.4 -49.75 110.55 -49.45 Q110.85 -49.05 111.35 -48.85 L110.75 -48.35 Q110.05 -47.35 110.05 -43.45 110.05 -40.8 110.6 -39.55 M137.75 -49.25 L137.8 -49.25 Q138.25 -49.6 138.8 -49.6 139.8 -49.6 140.05 -48.5 L140.1 -48.3 140.25 -47.1 140.55 -44.75 Q140.55 -41.4 139.15 -40.05 L137.15 -38.7 137.55 -40.65 Q138.25 -43.8 138.25 -46.75 138.25 -48.15 137.75 -49.25 M116.0 -36.25 L114.95 -33.05 Q113.65 -28.9 113.65 -27.45 L113.65 -27.15 112.9 -27.6 112.25 -28.3 111.75 -29.45 111.55 -31.2 111.9 -32.85 112.3 -34.35 Q112.35 -34.8 113.3 -36.05 L113.5 -36.35 113.7 -36.45 115.55 -36.35 116.0 -36.25 M133.5 -24.65 Q134.3 -28.35 134.85 -30.15 135.15 -31.25 136.15 -33.15 L136.75 -34.75 136.9 -33.4 Q136.9 -28.45 135.75 -26.6 135.0 -25.35 133.5 -24.65" fill="#bdbdbd" fill-rule="evenodd" stroke="none"/>
      <path d="M137.15 -51.6 L136.45 -51.3 Q135.05 -50.65 132.15 -50.3 125.15 -49.3 116.45 -49.95 L116.3 -50.0 115.7 -50.1 Q115.1 -51.45 114.9 -52.65 L114.85 -55.75 Q114.85 -60.4 115.95 -63.25 117.85 -64.15 122.3 -65.3 L130.9 -66.25 135.05 -65.6 Q136.05 -64.15 136.65 -61.55 137.45 -58.05 137.45 -53.35 L137.15 -51.6 M111.35 -48.85 L111.6 -48.8 111.8 -48.7 112.15 -48.6 116.45 -48.25 118.35 -48.15 122.45 -48.1 127.3 -48.1 132.25 -48.4 137.75 -49.25 Q138.25 -48.15 138.25 -46.75 138.25 -43.8 137.55 -40.65 L137.15 -38.7 136.2 -38.35 131.75 -37.5 Q128.85 -37.0 124.15 -37.4 L115.05 -38.6 110.6 -39.55 Q110.05 -40.8 110.05 -43.45 110.05 -47.35 110.75 -48.35 L111.35 -48.85 M113.65 -27.15 L113.65 -27.45 Q113.65 -28.9 114.95 -33.05 L116.0 -36.25 129.4 -35.55 135.0 -36.0 136.1 -35.6 136.75 -34.75 136.15 -33.15 Q135.15 -31.25 134.85 -30.15 134.3 -28.35 133.5 -24.65 131.6 -23.85 128.65 -23.85 L126.75 -23.75 124.7 -23.75 Q120.3 -23.95 116.25 -25.75 114.9 -26.4 113.65 -27.15" fill="#999999" fill-rule="evenodd" stroke="none"/>
      <path d="M44.1 -51.75 L48.45 -52.25 139.4 -60.55 137.35 -57.8 31.4 -48.2 31.1 -50.55 34.2 -50.9 44.1 -51.75" fill="#994900" fill-rule="evenodd" stroke="none"/>
      <path d="M48.45 -52.25 L44.1 -51.75 35.1 -59.25 39.7 -59.85 48.45 -52.25 M44.4 -47.25 L48.85 -47.75 41.75 -38.75 37.05 -38.35 44.4 -47.25" fill="#f0e2b1" fill-rule="evenodd" stroke="none"/>
      <path d="M44.1 -51.75 L34.2 -50.9 25.4 -58.35 35.1 -59.25 44.1 -51.75 M37.05 -38.35 L27.25 -37.45 34.7 -46.5 44.4 -47.25 37.05 -38.35" fill="#d6bf68" fill-rule="evenodd" stroke="none"/>
      <path d="M34.2 -50.9 L31.1 -50.55 28.95 -50.35 20.25 -57.85 25.4 -58.35 34.2 -50.9 M27.25 -37.45 L22.1 -37.0 29.55 -45.95 31.65 -46.0 34.7 -46.5 27.25 -37.45" fill="#a39561" fill-rule="evenodd" stroke="none"/>
      <path d="M31.4 -48.2 L137.35 -57.8 139.8 -55.95 48.85 -47.75 44.4 -47.25 34.7 -46.5 31.65 -46.0 31.4 -48.2" fill="#592a00" fill-rule="evenodd" stroke="none"/>
      <path d="M137.35 -57.8 L139.4 -60.55 143.1 -64.85 145.45 -62.6 147.6 -60.85 149.8 -59.1 149.6 -58.9 137.35 -57.8" fill="#484848" fill-rule="evenodd" stroke="none"/>
      <path d="M139.8 -55.95 L137.35 -57.8 149.6 -58.9 147.4 -56.5 146.35 -54.85 144.05 -52.25 139.8 -55.95" fill="#2f2f2f" fill-rule="evenodd" stroke="none"/>
      <path d="M147.6 -60.85 L145.45 -62.6 148.0 -69.25 166.55 -60.45 154.65 -59.35 147.6 -60.85" fill="#cccccc" fill-rule="evenodd" stroke="none"/>
      <path d="M148.0 -69.25 L149.1 -72.2 172.85 -61.05 166.55 -60.45 148.0 -69.25" fill="#e1e1e1" fill-rule="evenodd" stroke="none"/>
      <path d="M149.9 -48.5 L146.35 -54.85 147.4 -56.5 154.9 -59.25 154.65 -59.35 166.55 -60.45 166.7 -60.4 149.9 -48.5" fill="#b3b3b3" fill-rule="evenodd" stroke="none"/>
      <path d="M149.6 -58.9 L149.8 -59.1 147.6 -60.85 154.65 -59.35 154.9 -59.25 147.4 -56.5 149.6 -58.9" fill="#666666" fill-rule="evenodd" stroke="none"/>
      <path d="M172.85 -61.05 L151.5 -45.9 149.9 -48.5 166.7 -60.4 166.55 -60.45 172.85 -61.05" fill="#777777" fill-rule="evenodd" stroke="none"/>
      <path d="M48.45 -52.25 L44.1 -51.75 34.2 -50.9 31.1 -50.55 31.4 -48.2 31.65 -46.0 29.55 -45.95 22.1 -37.0 27.25 -37.45 37.05 -38.35 41.75 -38.75 48.85 -47.75 139.8 -55.95 137.35 -57.8 139.4 -60.55 48.45 -52.25 39.7 -59.85 35.1 -59.25 25.4 -58.35 20.25 -57.85 28.95 -50.35 31.1 -50.55 M34.7 -46.5 L31.65 -46.0 M44.4 -47.25 L48.85 -47.75 M149.6 -58.9 L149.8 -59.1 147.6 -60.85 145.45 -62.6 143.1 -64.85 139.4 -60.55 M44.4 -47.25 L34.7 -46.5 M148.0 -69.25 L149.1 -72.2 172.85 -61.05 151.5 -45.9 149.9 -48.5 146.35 -54.85 144.05 -52.25 139.8 -55.95 M145.45 -62.6 L148.0 -69.25 M147.4 -56.5 L146.35 -54.85 M149.6 -58.9 L147.4 -56.5 154.9 -59.25 154.65 -59.35 147.6 -60.85" fill="none" stroke="#000000" stroke-linecap="round" stroke-linejoin="round" stroke-opacity="0.6627451" stroke-width="1.0"/>
      <path d="M-22.75 -57.1 L-22.35 -57.55 -21.35 -56.0 -21.25 -55.8 -18.2 -56.0 Q-10.1 -55.6 -3.1 -56.25 L-2.65 -56.35 -0.8 -56.6 2.3 -57.3 Q3.8 -57.75 4.0 -58.05 L4.3 -58.35 4.25 -58.65 4.25 -58.7 4.25 -58.9 4.15 -59.4 4.1 -60.5 4.05 -63.95 Q4.05 -65.8 7.55 -67.7 10.8 -69.5 15.65 -70.7 L20.6 -72.05 21.95 -72.25 24.0 -72.45 24.3 -72.45 Q27.3 -72.5 28.1 -71.25 L28.25 -70.85 28.75 -69.45 29.25 -67.35 29.25 -67.05 29.3 -66.5 29.3 -66.4 32.05 -66.55 Q36.45 -66.3 38.95 -64.85 41.2 -63.55 41.05 -62.0 L41.1 -56.3 Q41.1 -54.5 40.4 -52.4 L39.45 -50.45 Q46.45 -48.55 48.4 -46.55 49.55 -45.35 49.55 -42.05 49.55 -39.6 48.8 -37.4 48.15 -35.55 47.1 -34.45 L46.6 -34.2 46.3 -34.05 45.15 -34.0 43.15 -33.9 42.6 -33.9 39.2 -34.1 Q37.05 -34.15 35.4 -35.3 L34.3 -35.95 30.6 -35.85 29.8 -35.65 29.9 -35.1 42.2 -32.9 42.8 -32.75 Q46.8 -31.6 46.8 -26.55 46.8 -24.15 46.4 -22.65 46.15 -21.1 44.75 -19.6 L42.95 -19.3 41.75 -19.25 Q37.65 -19.35 33.8 -20.95 L33.65 -21.0 28.1 -22.4 27.2 -22.5 Q23.65 -22.45 21.0 -19.8 L12.4 -14.15 Q-1.3 -5.9 -17.7 -3.55 L-23.6 -3.25 -25.15 -3.25 Q-38.1 -3.25 -42.8 -6.55 L-43.35 -6.45 Q-48.8 -6.45 -54.75 -11.35 -59.2 -15.0 -59.95 -16.85 -62.5 -22.5 -62.75 -23.65 L-62.85 -28.85 Q-62.85 -38.35 -59.3 -46.25 -55.65 -54.45 -49.55 -57.85 L-49.2 -57.65 Q-49.05 -57.55 -49.05 -57.1 L-49.05 -56.95 -52.25 -53.6 Q-55.85 -49.05 -58.05 -42.95 -60.65 -35.55 -60.65 -28.7 -60.65 -17.5 -51.35 -12.3 -49.3 -11.15 -44.95 -9.55 L-44.9 -9.5 -45.15 -10.35 -45.2 -10.4 Q-46.6 -10.95 -48.15 -11.85 -51.95 -14.05 -51.95 -15.35 L-51.95 -15.45 Q-51.95 -20.0 -51.45 -21.65 L-50.6 -25.05 Q-49.85 -27.05 -48.8 -26.8 L-49.35 -25.2 -50.05 -22.45 -50.15 -20.3 -50.05 -18.25 -50.05 -18.1 Q-50.05 -15.0 -45.25 -13.15 -40.4 -11.35 -40.35 -10.35 L-40.55 -9.85 Q-40.75 -9.55 -41.35 -9.55 L-42.25 -9.6 Q-41.5 -9.05 -38.55 -7.55 -35.65 -6.05 -29.25 -5.85 -22.9 -5.65 -14.65 -6.25 -6.45 -6.85 9.8 -14.95 L21.0 -22.35 Q23.05 -24.75 26.2 -24.65 L28.1 -24.6 30.9 -23.75 33.8 -22.65 35.75 -21.95 Q39.2 -20.9 42.75 -21.0 L43.85 -21.1 Q45.2 -22.3 45.2 -24.45 L45.3 -26.5 45.05 -29.1 Q44.45 -30.55 42.5 -31.1 L41.5 -31.3 Q38.7 -31.7 34.2 -32.85 31.1 -33.6 29.85 -34.1 L29.8 -34.15 Q29.3 -34.35 29.15 -34.5 L29.05 -34.55 Q28.65 -34.9 28.65 -35.6 L28.65 -35.65 28.3 -35.65 28.15 -35.8 Q28.75 -36.65 30.9 -37.45 L31.6 -37.75 32.4 -37.95 32.45 -37.95 33.65 -38.05 35.7 -36.85 Q37.3 -36.1 39.2 -35.85 L42.2 -35.7 43.3 -35.7 45.65 -36.2 Q46.4 -37.05 46.85 -38.65 47.35 -40.3 47.35 -42.0 47.35 -43.9 47.15 -44.3 46.55 -45.3 43.65 -46.8 L43.6 -46.85 38.25 -48.5 36.15 -49.3 33.05 -49.95 31.5 -49.8 25.65 -47.35 21.65 -45.75 Q21.25 -45.85 21.1 -46.05 L23.6 -47.85 24.9 -48.65 24.9 -48.85 Q24.9 -50.5 25.25 -50.8 25.6 -51.2 28.25 -52.25 L27.85 -53.1 Q28.55 -53.2 29.05 -52.8 L29.75 -52.2 30.55 -51.75 30.9 -51.6 31.5 -51.7 33.55 -51.9 36.95 -51.4 37.7 -51.15 38.45 -52.8 39.4 -55.4 39.45 -59.9 Q39.45 -62.5 38.75 -63.2 38.0 -63.95 36.6 -64.4 33.75 -65.4 28.05 -65.4 L23.2 -64.9 18.45 -64.15 Q18.2 -64.25 17.9 -64.4 19.05 -65.25 20.55 -65.6 L26.65 -66.3 27.85 -66.35 Q27.55 -66.65 27.4 -67.25 27.25 -67.8 27.25 -68.65 27.0 -70.25 26.3 -70.55 L23.75 -70.7 23.45 -70.7 Q19.75 -70.6 14.0 -68.5 L7.45 -65.7 Q6.1 -65.05 5.75 -64.0 5.6 -63.6 5.6 -62.4 L5.5 -59.15 5.55 -58.8 5.6 -58.8 5.6 -58.5 5.6 -58.4 8.95 -59.65 8.0 -57.95 7.65 -57.45 6.0 -56.35 Q2.2 -54.85 -2.65 -54.05 L-3.1 -54.0 -14.25 -53.4 -18.2 -53.6 -19.15 -53.6 -28.0 -53.2 Q-34.05 -52.55 -38.55 -49.95 -43.1 -47.4 -47.2 -45.45 -44.4 -49.8 -39.8 -52.25 L-35.9 -54.15 Q-33.4 -55.05 -31.75 -55.15 L-22.6 -55.75 -22.8 -56.85 -22.75 -57.1 M26.85 -50.55 Q25.7 -50.0 25.85 -49.5 L26.0 -49.25 29.35 -50.95 28.75 -51.55 Q28.25 -51.1 26.85 -50.55" fill="#000000" fill-rule="evenodd" stroke="none"/>
      <path d="M-47.45 -57.0 L-39.2 -57.15 -28.65 -57.55 -25.45 -57.5 -22.75 -57.1 -22.8 -56.85 -22.6 -55.75 -31.75 -55.15 Q-33.4 -55.05 -35.9 -54.15 L-39.8 -52.25 Q-44.4 -49.8 -47.2 -45.45 -43.1 -47.4 -38.55 -49.95 -34.05 -52.55 -28.0 -53.2 L-19.15 -53.6 -18.2 -53.6 -14.25 -53.4 -3.1 -54.0 -2.65 -54.05 Q2.2 -54.85 6.0 -56.35 L7.65 -57.45 8.0 -57.95 8.95 -59.65 5.6 -58.4 5.6 -58.5 5.6 -58.8 5.55 -58.8 5.5 -59.15 5.6 -62.4 Q5.6 -63.6 5.75 -64.0 6.1 -65.05 7.45 -65.7 L14.0 -68.5 Q19.75 -70.6 23.45 -70.7 L24.5 -68.85 Q25.3 -67.1 26.65 -66.3 L20.55 -65.6 Q19.05 -65.25 17.9 -64.4 18.2 -64.25 18.45 -64.15 L23.2 -64.9 28.05 -65.4 Q33.75 -65.4 36.6 -64.4 L37.0 -64.05 Q37.65 -63.2 37.65 -57.85 L37.3 -54.15 36.95 -51.4 33.55 -51.9 31.5 -51.7 30.9 -51.6 30.55 -51.75 29.75 -52.2 29.05 -52.8 Q28.55 -53.2 27.85 -53.1 L28.25 -52.25 Q25.6 -51.2 25.25 -50.8 24.9 -50.5 24.9 -48.85 L24.9 -48.65 23.6 -47.85 21.1 -46.05 Q21.25 -45.85 21.65 -45.75 L25.65 -47.35 31.5 -49.8 33.05 -49.95 36.15 -49.3 38.25 -48.5 43.6 -46.85 43.65 -46.8 Q45.15 -45.4 45.15 -42.35 45.15 -40.85 43.65 -36.75 L43.3 -35.7 42.2 -35.7 39.2 -35.85 Q37.3 -36.1 35.7 -36.85 L33.65 -38.05 32.45 -37.95 32.4 -37.95 31.6 -37.75 30.9 -37.45 Q28.75 -36.65 28.15 -35.8 L28.3 -35.65 28.65 -35.65 28.65 -35.6 Q28.65 -34.9 29.05 -34.55 L29.15 -34.5 Q29.3 -34.35 29.8 -34.15 L29.85 -34.1 Q31.1 -33.6 34.2 -32.85 38.7 -31.7 41.5 -31.3 L42.5 -31.1 42.8 -29.4 43.4 -25.0 Q43.4 -22.8 42.85 -21.3 L42.75 -21.0 Q39.2 -20.9 35.75 -21.95 L33.8 -22.65 30.9 -23.75 28.1 -24.6 26.2 -24.65 Q23.05 -24.75 21.0 -22.35 L9.8 -14.95 Q-6.45 -6.85 -14.65 -6.25 -22.9 -5.65 -29.25 -5.85 -35.65 -6.05 -38.55 -7.55 -41.5 -9.05 -42.25 -9.6 L-41.35 -9.55 Q-40.75 -9.55 -40.55 -9.85 L-40.35 -10.35 Q-40.4 -11.35 -45.25 -13.15 -50.05 -15.0 -50.05 -18.1 L-50.05 -18.25 -50.15 -20.3 -50.05 -22.45 -49.35 -25.2 -48.8 -26.8 Q-49.85 -27.05 -50.6 -25.05 L-51.45 -21.65 Q-51.95 -20.0 -51.95 -15.45 -53.2 -16.55 -53.85 -17.6 L-57.25 -23.2 Q-57.6 -24.15 -57.6 -28.35 -57.6 -33.85 -57.0 -37.15 -56.25 -41.4 -54.1 -45.6 L-50.7 -52.65 Q-49.2 -55.35 -47.45 -57.0" fill="#999999" fill-rule="evenodd" stroke="none"/>
      <path d="M-49.05 -57.1 L-47.45 -57.0 Q-49.2 -55.35 -50.7 -52.65 L-54.1 -45.6 Q-56.25 -41.4 -57.0 -37.15 -57.6 -33.85 -57.6 -28.35 -57.6 -24.15 -57.25 -23.2 L-53.85 -17.6 Q-53.2 -16.55 -51.95 -15.45 L-51.95 -15.35 Q-51.95 -14.05 -48.15 -11.85 -46.6 -10.95 -45.2 -10.4 L-45.15 -10.35 -44.9 -9.5 -44.95 -9.55 Q-49.3 -11.15 -51.35 -12.3 -60.65 -17.5 -60.65 -28.7 -60.65 -35.55 -58.05 -42.95 -55.85 -49.05 -52.25 -53.6 L-49.05 -56.95 -49.05 -57.1 M23.45 -70.7 L23.75 -70.7 26.3 -70.55 Q27.0 -70.25 27.25 -68.65 27.25 -67.8 27.4 -67.25 27.55 -66.65 27.85 -66.35 L26.65 -66.3 Q25.3 -67.1 24.5 -68.85 L23.45 -70.7 M36.6 -64.4 Q38.0 -63.95 38.75 -63.2 39.45 -62.5 39.45 -59.9 L39.4 -55.4 38.45 -52.8 37.7 -51.15 36.95 -51.4 37.3 -54.15 37.65 -57.85 Q37.65 -63.2 37.0 -64.05 L36.6 -64.4 M43.65 -46.8 Q46.55 -45.3 47.15 -44.3 47.35 -43.9 47.35 -42.0 47.35 -40.3 46.85 -38.65 46.4 -37.05 45.65 -36.2 L43.3 -35.7 43.65 -36.75 Q45.15 -40.85 45.15 -42.35 45.15 -45.4 43.65 -46.8 M42.5 -31.1 Q44.45 -30.55 45.05 -29.1 L45.3 -26.5 45.2 -24.45 Q45.2 -22.3 43.85 -21.1 L42.75 -21.0 42.85 -21.3 Q43.4 -22.8 43.4 -25.0 L42.8 -29.4 42.5 -31.1" fill="#bdbdbd" fill-rule="evenodd" stroke="none"/>
    </g>
  </defs>
</svg>
