<?xml version="1.0" encoding="UTF-8" standalone="no"?>
<svg xmlns:xlink="http://www.w3.org/1999/xlink" height="531.5px" width="460.6px" xmlns="http://www.w3.org/2000/svg">
  <g transform="matrix(1.0, 0.0, 0.0, 1.0, 193.65, 334.05)">
    <use height="40.65" transform="matrix(1.0, 0.0, 0.0, 1.0, 15.55, -52.35)" width="42.8" xlink:href="#sprite0"/>
  </g>
  <defs>
    <g id="sprite0" transform="matrix(1.0, 0.0, 0.0, 1.0, 21.4, 20.3)">
      <use height="40.65" transform="matrix(1.0, 0.0, 0.0, 1.0, -21.4, -20.3)" width="42.8" xlink:href="#shape0"/>
      <use height="39.65" transform="matrix(1.0, 0.0, 0.0, 1.0, -20.9, -19.8)" width="41.8" xlink:href="#sprite1"/>
    </g>
    <g id="shape0" transform="matrix(1.0, 0.0, 0.0, 1.0, 21.4, 20.3)">
      <path d="M1.15 -11.35 Q2.15 -11.65 2.95 -12.45 L3.1 -12.55 2.95 -12.45 Q2.15 -11.65 1.15 -11.35 L-0.1 -11.2 -1.15 -11.3 Q-2.25 -11.6 -3.05 -12.35 -2.25 -11.6 -1.15 -11.3 L-1.75 -10.6 -2.5 -9.05 -3.7 -10.0 -4.1 -10.3 -3.05 -12.35 -3.15 -12.45 Q-4.35 -13.65 -4.4 -15.35 -3.8 -15.0 -2.75 -15.0 -1.4 -15.0 -0.2 -16.1 1.2 -17.45 1.2 -19.6 2.2 -19.3 2.95 -18.55 4.2 -17.3 4.2 -15.5 4.2 -13.8 3.1 -12.55 L6.2 -6.35 12.65 -5.4 13.55 -6.7 Q14.8 -7.95 16.6 -7.95 18.4 -7.95 19.65 -6.7 20.9 -5.45 20.9 -3.65 20.9 -1.85 19.65 -0.6 18.4 0.65 16.6 0.65 L15.1 0.4 Q14.25 0.1 13.55 -0.6 L12.95 -1.4 Q12.4 -2.25 12.35 -3.25 L12.25 -3.3 11.3 -3.75 4.75 -4.7 1.8 -10.6 1.15 -11.35 M12.65 -5.4 Q12.3 -4.6 12.3 -3.65 L12.35 -3.25 12.3 -3.65 Q12.3 -4.6 12.65 -5.4 M11.0 11.35 Q12.3 11.55 13.25 12.5 14.5 13.75 14.5 15.55 14.5 17.35 13.25 18.6 12.0 19.85 10.2 19.85 8.4 19.85 7.15 18.6 5.95 17.4 5.9 15.7 L5.9 15.55 Q5.9 14.15 6.65 13.1 L7.15 12.5 8.75 11.5 10.2 11.25 11.0 11.35 M-6.3 15.95 Q-6.45 17.5 -7.55 18.6 -8.8 19.85 -10.6 19.85 -12.4 19.85 -13.65 18.6 -14.9 17.35 -14.9 15.55 L-14.8 14.55 Q-14.3 15.0 -13.05 15.0 -12.15 15.0 -11.4 14.45 L-10.5 13.5 Q-9.65 12.3 -9.6 11.35 -9.1 11.45 -8.7 11.7 -8.05 12.0 -7.55 12.5 L-7.05 13.1 Q-6.3 14.15 -6.3 15.55 L-6.3 15.95 M-10.15 6.85 L-9.9 5.3 -14.85 0.55 -16.6 0.85 Q-18.4 0.85 -19.65 -0.4 -20.9 -1.65 -20.9 -3.45 L-20.9 -3.65 Q-20.15 -3.3 -18.7 -3.3 -17.4 -3.3 -16.3 -4.15 L-15.95 -4.45 -15.75 -4.65 -15.7 -4.7 Q-14.6 -5.85 -14.4 -7.15 L-13.55 -6.5 -12.7 -5.35 -10.2 -5.75 -8.95 -4.05 -11.2 -3.75 -12.25 -3.3 -12.25 -3.25 -12.3 -3.2 Q-12.35 -2.15 -12.85 -1.3 -12.75 -0.75 -12.35 -0.35 L-7.6 4.2 -7.8 5.4 -7.8 5.55 -10.15 6.85 M-14.85 0.55 L-13.55 -0.4 -12.85 -1.3 -13.55 -0.4 -14.85 0.55 M-12.3 -3.2 L-12.3 -3.45 Q-12.3 -4.5 -12.7 -5.35 -12.3 -4.5 -12.3 -3.45 L-12.3 -3.2" fill="#fff000" fill-rule="evenodd" stroke="none"/>
      <path d="M1.15 -11.35 L1.8 -10.6 4.75 -4.7 11.3 -3.75 12.25 -3.3 12.35 -3.25 Q12.4 -2.25 12.95 -1.4 L12.9 -1.35 12.4 -0.35 7.65 4.2 8.8 10.8 8.8 11.05 8.75 11.5 7.15 12.5 6.65 13.1 5.85 12.9 0.05 9.8 -5.8 12.9 -6.9 13.1 -7.05 13.1 -7.55 12.5 Q-8.05 12.0 -8.7 11.7 L-8.75 10.8 -7.8 5.55 -7.8 5.4 -7.6 4.2 -12.35 -0.35 Q-12.75 -0.75 -12.85 -1.3 -12.35 -2.15 -12.3 -3.2 L-12.25 -3.25 -12.25 -3.3 -11.2 -3.75 -8.95 -4.05 -4.7 -4.7 -2.5 -9.05 -1.75 -10.6 -1.15 -11.3 -0.1 -11.2 1.15 -11.35" fill="#ff9900" fill-rule="evenodd" stroke="none"/>
      <path d="M15.1 0.4 L9.95 5.3 11.0 11.35 10.2 11.25 8.75 11.5 8.8 11.05 8.8 10.8 7.65 4.2 12.4 -0.35 12.9 -1.35 12.95 -1.4 13.55 -0.6 Q14.25 0.1 15.1 0.4 M5.9 15.7 L0.05 12.55 -6.3 15.95 -6.3 15.55 Q-6.3 14.15 -7.05 13.1 L-6.9 13.1 -5.8 12.9 0.05 9.8 5.85 12.9 6.65 13.1 Q5.9 14.15 5.9 15.55 L5.9 15.7 M-10.95 11.25 L-10.15 6.85 -7.8 5.55 -8.75 10.8 -8.7 11.7 Q-9.1 11.45 -9.6 11.35 L-10.6 11.25 -10.95 11.25" fill="#e36100" fill-rule="evenodd" stroke="none"/>
      <path d="M1.2 -19.6 Q1.2 -17.45 -0.2 -16.1 -1.4 -15.0 -2.75 -15.0 -3.8 -15.0 -4.4 -15.35 L-4.4 -15.5 Q-4.4 -17.3 -3.15 -18.55 -1.9 -19.8 -0.1 -19.8 L1.2 -19.6 M-14.8 14.55 Q-14.55 13.4 -13.65 12.5 -12.5 11.35 -10.95 11.25 L-10.6 11.25 -9.6 11.35 Q-9.65 12.3 -10.5 13.5 L-11.4 14.45 Q-12.15 15.0 -13.05 15.0 -14.3 15.0 -14.8 14.55 M-20.9 -3.65 Q-20.85 -5.3 -19.65 -6.5 -18.4 -7.75 -16.6 -7.75 -15.4 -7.75 -14.4 -7.15 -14.6 -5.85 -15.7 -4.7 L-15.75 -4.65 -15.95 -4.45 -16.3 -4.15 Q-17.4 -3.3 -18.7 -3.3 -20.15 -3.3 -20.9 -3.65 M-10.2 -5.75 L-6.1 -6.35 -4.1 -10.3 -3.7 -10.0 -2.5 -9.05 -4.7 -4.7 -8.95 -4.05 -10.2 -5.75" fill="#ffffff" fill-rule="evenodd" stroke="none"/>
      <path d="M3.1 -12.55 L2.95 -12.45 Q2.15 -11.65 1.15 -11.35 L1.8 -10.6 4.75 -4.7 11.3 -3.75 12.25 -3.3 12.35 -3.25 12.3 -3.65 Q12.3 -4.6 12.65 -5.4 L6.2 -6.35 3.1 -12.55 Q4.2 -13.8 4.2 -15.5 4.2 -17.3 2.95 -18.55 2.2 -19.3 1.2 -19.6 L-0.1 -19.8 Q-1.9 -19.8 -3.15 -18.55 -4.4 -17.3 -4.4 -15.5 L-4.4 -15.35 Q-4.35 -13.65 -3.15 -12.45 L-3.05 -12.35 Q-2.25 -11.6 -1.15 -11.3 L-0.1 -11.2 1.15 -11.35 M12.65 -5.4 L13.55 -6.7 Q14.8 -7.95 16.6 -7.95 18.4 -7.95 19.65 -6.7 20.9 -5.45 20.9 -3.65 20.9 -1.85 19.65 -0.6 18.4 0.65 16.6 0.65 L15.1 0.4 9.95 5.3 11.0 11.35 Q12.3 11.55 13.25 12.5 14.5 13.75 14.5 15.55 14.5 17.35 13.25 18.6 12.0 19.85 10.2 19.85 8.4 19.85 7.15 18.6 5.95 17.4 5.9 15.7 L0.05 12.55 -6.3 15.95 Q-6.45 17.5 -7.55 18.6 -8.8 19.85 -10.6 19.85 -12.4 19.85 -13.65 18.6 -14.9 17.35 -14.9 15.55 L-14.8 14.55 Q-14.55 13.4 -13.65 12.5 -12.5 11.35 -10.95 11.25 L-10.15 6.85 -9.9 5.3 -14.85 0.55 -16.6 0.85 Q-18.4 0.85 -19.65 -0.4 -20.9 -1.65 -20.9 -3.45 L-20.9 -3.65 Q-20.85 -5.3 -19.65 -6.5 -18.4 -7.75 -16.6 -7.75 -15.4 -7.75 -14.4 -7.15 L-13.55 -6.5 -12.7 -5.35 -10.2 -5.75 -6.1 -6.35 -4.1 -10.3 -3.05 -12.35 M15.1 0.4 Q14.25 0.1 13.55 -0.6 L12.95 -1.4 12.9 -1.35 12.4 -0.35 7.65 4.2 8.8 10.8 8.8 11.05 8.75 11.5 10.2 11.25 11.0 11.35 M12.95 -1.4 Q12.4 -2.25 12.35 -3.25 M-7.05 13.1 L-6.9 13.1 -5.8 12.9 0.05 9.8 5.85 12.9 6.65 13.1 7.15 12.5 8.75 11.5 M5.9 15.7 L5.9 15.55 Q5.9 14.15 6.65 13.1 M-8.95 -4.05 L-11.2 -3.75 -12.25 -3.3 -12.25 -3.25 -12.3 -3.2 Q-12.35 -2.15 -12.85 -1.3 -12.75 -0.75 -12.35 -0.35 L-7.6 4.2 -7.8 5.4 M-7.8 5.55 L-8.75 10.8 -8.7 11.7 Q-8.05 12.0 -7.55 12.5 L-7.05 13.1 Q-6.3 14.15 -6.3 15.55 L-6.3 15.95 M-12.7 -5.35 Q-12.3 -4.5 -12.3 -3.45 L-12.3 -3.2 M-12.85 -1.3 L-13.55 -0.4 -14.85 0.55 M-1.15 -11.3 L-1.75 -10.6 -2.5 -9.05 -4.7 -4.7 -8.95 -4.05 M-9.6 11.35 Q-9.1 11.45 -8.7 11.7 M-10.95 11.25 L-10.6 11.25 -9.6 11.35" fill="none" stroke="#000000" stroke-linecap="round" stroke-linejoin="round" stroke-opacity="0.6627451" stroke-width="1.0"/>
    </g>
    <g id="sprite1" transform="matrix(1.0, 0.0, 0.0, 1.0, 20.9, 19.8)">
      <use height="39.65" transform="matrix(1.0, 0.0, 0.0, 1.0, -20.9, -19.8)" width="41.8" xlink:href="#shape1"/>
    </g>
    <g id="shape1" transform="matrix(1.0, 0.0, 0.0, 1.0, 20.9, 19.8)">
      <path d="M-1.15 -11.3 L-0.1 -11.2 1.15 -11.35 1.8 -10.6 4.75 -4.7 11.3 -3.75 12.25 -3.3 12.35 -3.25 Q12.4 -2.25 12.95 -1.4 L12.9 -1.35 12.4 -0.35 7.65 4.2 8.8 10.8 8.8 11.05 8.75 11.5 7.15 12.5 6.65 13.1 5.85 12.9 0.05 9.8 -5.8 12.9 -6.9 13.1 -7.05 13.1 -7.55 12.5 Q-8.05 12.0 -8.7 11.7 L-8.75 10.8 -7.6 4.2 -12.35 -0.35 Q-12.75 -0.75 -12.85 -1.3 -12.35 -2.15 -12.3 -3.2 L-12.25 -3.25 -12.25 -3.3 -11.2 -3.75 -4.7 -4.7 -1.75 -10.6 -1.15 -11.3" fill="url(#gradient0)" fill-rule="evenodd" stroke="none"/>
      <path d="M5.9 15.7 L0.05 12.55 -6.3 15.95 -6.3 15.55 Q-6.3 14.15 -7.05 13.1 L-6.9 13.1 -5.8 12.9 0.05 9.8 5.85 12.9 6.65 13.1 Q5.9 14.15 5.9 15.55 L5.9 15.7" fill="url(#gradient1)" fill-rule="evenodd" stroke="none"/>
      <path d="M-10.95 11.25 L-9.9 5.3 -14.85 0.55 -13.55 -0.4 -12.85 -1.3 Q-12.75 -0.75 -12.35 -0.35 L-7.6 4.2 -8.75 10.8 -8.7 11.7 Q-9.1 11.45 -9.6 11.35 L-10.6 11.25 -10.95 11.25" fill="url(#gradient2)" fill-rule="evenodd" stroke="none"/>
      <path d="M-12.7 -5.35 L-6.1 -6.35 -3.05 -12.35 Q-2.25 -11.6 -1.15 -11.3 L-1.75 -10.6 -4.7 -4.7 -11.2 -3.75 -12.25 -3.3 -12.25 -3.25 -12.3 -3.2 -12.3 -3.45 Q-12.3 -4.5 -12.7 -5.35" fill="url(#gradient3)" fill-rule="evenodd" stroke="none"/>
      <path d="M3.1 -12.55 L6.2 -6.35 12.65 -5.4 Q12.3 -4.6 12.3 -3.65 L12.35 -3.25 12.25 -3.3 11.3 -3.75 4.75 -4.7 1.8 -10.6 1.15 -11.35 Q2.15 -11.65 2.95 -12.45 L3.1 -12.55" fill="url(#gradient4)" fill-rule="evenodd" stroke="none"/>
      <path d="M15.1 0.4 L9.95 5.3 11.0 11.35 10.2 11.25 8.75 11.5 8.8 11.05 8.8 10.8 7.65 4.2 12.4 -0.35 12.9 -1.35 12.95 -1.4 13.55 -0.6 Q14.25 0.1 15.1 0.4" fill="url(#gradient5)" fill-rule="evenodd" stroke="none"/>
      <path d="M-3.05 -12.35 L-3.15 -12.45 Q-4.35 -13.65 -4.4 -15.35 L-4.4 -15.5 Q-4.4 -17.3 -3.15 -18.55 -1.9 -19.8 -0.1 -19.8 L1.2 -19.6 Q2.2 -19.3 2.95 -18.55 4.2 -17.3 4.2 -15.5 4.2 -13.8 3.1 -12.55 L2.95 -12.45 Q2.15 -11.65 1.15 -11.35 L-0.1 -11.2 -1.15 -11.3 Q-2.25 -11.6 -3.05 -12.35" fill="url(#gradient6)" fill-rule="evenodd" stroke="none"/>
      <path d="M-14.85 0.55 L-16.6 0.85 Q-18.4 0.85 -19.65 -0.4 -20.9 -1.65 -20.9 -3.45 L-20.9 -3.65 Q-20.85 -5.3 -19.65 -6.5 -18.4 -7.75 -16.6 -7.75 -15.4 -7.75 -14.4 -7.15 L-13.55 -6.5 -12.7 -5.35 Q-12.3 -4.5 -12.3 -3.45 L-12.3 -3.2 Q-12.35 -2.15 -12.85 -1.3 L-13.55 -0.4 -14.85 0.55" fill="url(#gradient7)" fill-rule="evenodd" stroke="none"/>
      <path d="M-6.3 15.95 Q-6.45 17.5 -7.55 18.6 -8.8 19.85 -10.6 19.85 -12.4 19.85 -13.65 18.6 -14.9 17.35 -14.9 15.55 L-14.8 14.55 Q-14.55 13.4 -13.65 12.5 -12.5 11.35 -10.95 11.25 L-10.6 11.25 -9.6 11.35 Q-9.1 11.45 -8.7 11.7 -8.05 12.0 -7.55 12.5 L-7.05 13.1 Q-6.3 14.15 -6.3 15.55 L-6.3 15.95" fill="url(#gradient8)" fill-rule="evenodd" stroke="none"/>
      <path d="M11.0 11.35 Q12.3 11.55 13.25 12.5 14.5 13.75 14.5 15.55 14.5 17.35 13.25 18.6 12.0 19.85 10.2 19.85 8.4 19.85 7.15 18.6 5.95 17.4 5.9 15.7 L5.9 15.55 Q5.9 14.15 6.65 13.1 L7.15 12.5 8.75 11.5 10.2 11.25 11.0 11.35" fill="url(#gradient9)" fill-rule="evenodd" stroke="none"/>
      <path d="M12.65 -5.4 L13.55 -6.7 Q14.8 -7.95 16.6 -7.95 18.4 -7.95 19.65 -6.7 20.9 -5.45 20.9 -3.65 20.9 -1.85 19.65 -0.6 18.4 0.65 16.6 0.65 L15.1 0.4 Q14.25 0.1 13.55 -0.6 L12.95 -1.4 Q12.4 -2.25 12.35 -3.25 L12.3 -3.65 Q12.3 -4.6 12.65 -5.4" fill="url(#gradient10)" fill-rule="evenodd" stroke="none"/>
    </g>
    <linearGradient gradientTransform="matrix(0.0157, 0.0, 0.0, 0.0149, 0.05, 0.85)" gradientUnits="userSpaceOnUse" id="gradient0" spreadMethod="pad" x1="-819.2" x2="819.2">
      <stop offset="0.0" stop-color="#000000"/>
      <stop offset="1.0" stop-color="#ffffff"/>
    </linearGradient>
    <linearGradient gradientTransform="matrix(0.0, 0.0037, -0.0038, 0.0, -0.15, 12.9)" gradientUnits="userSpaceOnUse" id="gradient1" spreadMethod="pad" x1="-819.2" x2="819.2">
      <stop offset="0.0" stop-color="#000000"/>
      <stop offset="1.0" stop-color="#ffffff"/>
    </linearGradient>
    <linearGradient gradientTransform="matrix(-0.0031, -0.0031, 0.0056, -0.0056, -11.25, 5.2)" gradientUnits="userSpaceOnUse" id="gradient2" spreadMethod="pad" x1="-819.2" x2="819.2">
      <stop offset="0.0" stop-color="#000000"/>
      <stop offset="1.0" stop-color="#ffffff"/>
    </linearGradient>
    <linearGradient gradientTransform="matrix(-0.0035, -0.0061, 0.0048, -0.0028, -4.9, -5.65)" gradientUnits="userSpaceOnUse" id="gradient3" spreadMethod="pad" x1="-819.2" x2="819.2">
      <stop offset="0.0" stop-color="#000000"/>
      <stop offset="1.0" stop-color="#ffffff"/>
    </linearGradient>
    <linearGradient gradientTransform="matrix(-0.0061, -0.0035, 0.0028, -0.0049, 6.9, -7.9)" gradientUnits="userSpaceOnUse" id="gradient4" spreadMethod="pad" x1="-819.2" x2="819.2">
      <stop offset="0.0" stop-color="#000000"/>
      <stop offset="1.0" stop-color="#ffffff"/>
    </linearGradient>
    <linearGradient gradientTransform="matrix(0.0029, 8.0E-4, -0.002, 0.0076, 11.8, 5.45)" gradientUnits="userSpaceOnUse" id="gradient5" spreadMethod="pad" x1="-819.2" x2="819.2">
      <stop offset="0.0" stop-color="#000000"/>
      <stop offset="1.0" stop-color="#ffffff"/>
    </linearGradient>
    <linearGradient gradientTransform="matrix(-0.0037, -0.0037, 0.0037, -0.0037, -0.1, -15.5)" gradientUnits="userSpaceOnUse" id="gradient6" spreadMethod="pad" x1="-819.2" x2="819.2">
      <stop offset="0.0" stop-color="#000000"/>
      <stop offset="1.0" stop-color="#ffffff"/>
    </linearGradient>
    <linearGradient gradientTransform="matrix(-0.0037, -0.0037, 0.0037, -0.0037, -16.6, -3.45)" gradientUnits="userSpaceOnUse" id="gradient7" spreadMethod="pad" x1="-819.2" x2="819.2">
      <stop offset="0.0" stop-color="#000000"/>
      <stop offset="1.0" stop-color="#ffffff"/>
    </linearGradient>
    <linearGradient gradientTransform="matrix(-0.0026, -0.0045, 0.0045, -0.0026, -10.6, 15.6)" gradientUnits="userSpaceOnUse" id="gradient8" spreadMethod="pad" x1="-819.2" x2="819.2">
      <stop offset="0.0" stop-color="#000000"/>
      <stop offset="1.0" stop-color="#ffffff"/>
    </linearGradient>
    <linearGradient gradientTransform="matrix(-0.0031, -0.0042, 0.0042, -0.0031, 10.2, 15.55)" gradientUnits="userSpaceOnUse" id="gradient9" spreadMethod="pad" x1="-819.2" x2="819.2">
      <stop offset="0.0" stop-color="#000000"/>
      <stop offset="1.0" stop-color="#ffffff"/>
    </linearGradient>
    <linearGradient gradientTransform="matrix(-0.0026, -0.0045, 0.0045, -0.0026, 16.6, -3.6)" gradientUnits="userSpaceOnUse" id="gradient10" spreadMethod="pad" x1="-819.2" x2="819.2">
      <stop offset="0.0" stop-color="#000000"/>
      <stop offset="1.0" stop-color="#ffffff"/>
    </linearGradient>
  </defs>
</svg>
