<?xml version="1.0" encoding="UTF-8" standalone="no"?>
<svg xmlns:xlink="http://www.w3.org/1999/xlink" height="531.5px" width="460.6px" xmlns="http://www.w3.org/2000/svg">
  <g transform="matrix(1.0, 0.0, 0.0, 1.0, 193.65, 334.05)">
    <use height="19.7" transform="matrix(1.9412, 0.0, 0.0, 1.9412, 11.2794, -37.3206)" width="22.3" xlink:href="#sprite0"/>
  </g>
  <defs>
    <g id="sprite0" transform="matrix(1.0, 0.0, 0.0, 1.0, 0.5, 0.5)">
      <use height="19.7" transform="matrix(1.0, 0.0, 0.0, 1.0, -0.5, -0.5)" width="22.3" xlink:href="#shape0"/>
      <use height="18.7" transform="matrix(1.0, 0.0, 0.0, 1.0, 0.0, 0.0)" width="21.3" xlink:href="#sprite1"/>
    </g>
    <g id="shape0" transform="matrix(1.0, 0.0, 0.0, 1.0, 0.5, 0.5)">
      <path d="M14.2 9.9 Q14.1 9.15 14.75 8.45 15.35 7.55 16.2 7.3 L17.7 7.25 Q18.4 7.45 18.65 8.05 18.8 8.6 18.35 9.25 17.85 9.9 17.05 10.25 L15.25 10.6 Q14.2 10.55 14.2 9.9 M9.0 9.65 Q9.0 10.6 8.05 10.6 L5.85 10.1 4.15 8.8 Q3.45 8.1 3.8 7.5 4.0 6.8 4.95 6.55 L6.75 6.8 8.3 7.8 Q8.8 8.5 9.0 9.65" fill="#000000" fill-rule="evenodd" stroke="none"/>
      <path d="M14.2 9.9 Q14.2 10.55 15.25 10.6 L17.05 10.25 Q17.85 9.9 18.35 9.25 18.8 8.6 18.65 8.05 18.4 7.45 17.7 7.25 L16.2 7.3 Q15.35 7.55 14.75 8.45 14.1 9.15 14.2 9.9 M18.6 2.95 Q21.3 5.35 21.3 8.45 21.3 11.6 18.6 13.9 L17.4 14.75 17.85 15.8 Q18.3 16.8 17.45 17.3 L15.7 17.95 Q14.95 17.95 14.65 17.4 14.2 16.65 14.1 16.05 L13.3 16.25 13.3 16.3 13.25 17.9 Q13.1 18.55 11.4 18.7 9.55 18.8 9.45 18.1 9.15 17.45 9.35 16.5 L9.35 16.35 8.4 16.2 8.0 17.45 Q7.55 18.15 6.25 18.1 L4.25 17.55 Q3.8 17.0 4.2 15.95 4.4 15.35 4.75 14.95 L3.6 14.2 Q-0.05 11.6 0.0 8.05 -0.05 4.35 3.6 1.95 6.95 -0.35 11.55 0.05 15.75 0.4 18.6 2.95 M9.0 9.65 Q8.8 8.5 8.3 7.8 L6.75 6.8 4.95 6.55 Q4.0 6.8 3.8 7.5 3.45 8.1 4.15 8.8 L5.85 10.1 8.05 10.6 Q9.0 10.6 9.0 9.65" fill="#fffbee" fill-rule="evenodd" stroke="none"/>
      <path d="M14.2 9.9 Q14.2 10.55 15.25 10.6 L17.05 10.25 Q17.85 9.9 18.35 9.25 18.8 8.6 18.65 8.05 18.4 7.45 17.7 7.25 L16.2 7.3 Q15.35 7.55 14.75 8.45 14.1 9.15 14.2 9.9 M18.6 2.95 Q21.3 5.35 21.3 8.45 21.3 11.6 18.6 13.9 L17.4 14.75 17.85 15.8 Q18.3 16.8 17.45 17.3 L15.7 17.95 Q14.95 17.95 14.65 17.4 14.2 16.65 14.1 16.05 L13.3 16.25 13.3 16.3 13.25 17.9 Q13.1 18.55 11.4 18.7 9.55 18.8 9.45 18.1 9.15 17.45 9.35 16.5 L9.35 16.35 8.4 16.2 8.0 17.45 Q7.55 18.15 6.25 18.1 L4.25 17.55 Q3.8 17.0 4.2 15.95 4.4 15.35 4.75 14.95 L3.6 14.2 Q-0.05 11.6 0.0 8.05 -0.05 4.35 3.6 1.95 6.95 -0.35 11.55 0.05 15.75 0.4 18.6 2.95 M9.0 9.65 Q9.0 10.6 8.05 10.6 L5.85 10.1 4.15 8.8 Q3.45 8.1 3.8 7.5 4.0 6.8 4.95 6.55 L6.75 6.8 8.3 7.8 Q8.8 8.5 9.0 9.65" fill="none" stroke="#000000" stroke-linecap="round" stroke-linejoin="round" stroke-opacity="0.6627451" stroke-width="1.0"/>
    </g>
    <g id="sprite1" transform="matrix(1.0, 0.0, 0.0, 1.0, 0.0, 0.0)">
      <use height="18.7" transform="matrix(1.0, 0.0, 0.0, 1.0, 0.0, 0.0)" width="21.3" xlink:href="#shape1"/>
    </g>
    <g id="shape1" transform="matrix(1.0, 0.0, 0.0, 1.0, 0.0, 0.0)">
      <path d="M14.2 9.9 Q14.2 10.55 15.25 10.6 L17.05 10.25 Q17.85 9.9 18.35 9.25 18.8 8.6 18.65 8.05 18.4 7.45 17.7 7.25 L16.2 7.3 Q15.35 7.55 14.75 8.45 14.1 9.15 14.2 9.9 M18.6 2.95 Q21.3 5.35 21.3 8.45 21.3 11.6 18.6 13.9 L17.4 14.75 17.85 15.8 Q18.3 16.8 17.45 17.3 L15.7 17.95 Q14.95 17.95 14.65 17.4 14.2 16.65 14.1 16.05 L13.3 16.25 13.3 16.3 13.25 17.9 Q13.1 18.55 11.4 18.7 9.55 18.8 9.45 18.1 9.15 17.45 9.35 16.5 L9.35 16.35 8.4 16.2 8.0 17.45 Q7.55 18.15 6.25 18.1 L4.25 17.55 Q3.8 17.0 4.2 15.95 4.4 15.35 4.75 14.95 L3.6 14.2 Q-0.05 11.6 0.0 8.05 -0.05 4.35 3.6 1.95 6.95 -0.35 11.55 0.05 15.75 0.4 18.6 2.95 M8.3 7.8 L6.75 6.8 4.95 6.55 Q4.0 6.8 3.8 7.5 3.45 8.1 4.15 8.8 L5.85 10.1 8.05 10.6 Q9.0 10.6 9.0 9.65 8.8 8.5 8.3 7.8" fill="url(#gradient0)" fill-rule="evenodd" stroke="none"/>
    </g>
    <linearGradient gradientTransform="matrix(-0.0191, -0.011, 0.0057, -0.0099, 10.7, 9.4)" gradientUnits="userSpaceOnUse" id="gradient0" spreadMethod="pad" x1="-819.2" x2="819.2">
      <stop offset="0.0" stop-color="#000000"/>
      <stop offset="1.0" stop-color="#ffffff"/>
    </linearGradient>
  </defs>
</svg>
