<?xml version="1.0" encoding="UTF-8" standalone="no"?>
<svg xmlns:xlink="http://www.w3.org/1999/xlink" height="531.5px" width="460.6px" xmlns="http://www.w3.org/2000/svg">
  <g transform="matrix(1.0, 0.0, 0.0, 1.0, 193.65, 334.05)">
    <use height="82.75" transform="matrix(0.457, 0.0, 0.0, 0.457, -67.9997, -33.7679)" width="283.15" xlink:href="#sprite0"/>
  </g>
  <defs>
    <g id="sprite0" transform="matrix(1.0, 0.0, 0.0, 1.0, 1.75, 11.2)">
      <use height="53.65" transform="matrix(1.0, 0.0, 0.0, 1.0, -1.75, -1.75)" width="283.15" xlink:href="#shape0"/>
      <use height="50.15" transform="matrix(1.0, 0.0, 0.0, 1.0, 0.0, 0.0)" width="279.65" xlink:href="#sprite1"/>
      <use height="82.75" transform="matrix(1.0, 0.0, 0.0, 1.0, 178.4, -11.2)" width="87.2" xlink:href="#shape2"/>
    </g>
    <g id="shape0" transform="matrix(1.0, 0.0, 0.0, 1.0, 1.75, 1.75)">
      <path d="M269.5 15.9 L278.3 15.8 Q279.65 16.85 279.65 18.25 L279.55 39.4 279.55 40.3 272.45 40.8 273.0 34.3 273.7 33.7 273.9 32.55 272.95 31.4 269.5 15.9 M0.05 21.55 Q-0.2 15.15 0.7 8.75 L1.0 6.8 1.1 6.0 1.15 5.9 Q1.8 1.8 4.35 0.0 L10.6 0.75 Q7.05 11.7 7.85 23.35 L0.05 21.55" fill="#ffcc00" fill-rule="evenodd" stroke="none"/>
      <path d="M269.5 15.9 L272.95 31.4 271.2 30.5 Q268.5 29.45 264.55 29.25 260.55 29.1 257.7 29.9 254.95 30.75 254.85 32.1 254.8 33.45 257.5 34.5 260.25 35.6 264.25 35.75 L271.0 35.1 273.0 34.3 272.45 40.8 Q165.1 48.15 69.3 34.5 73.7 24.15 85.25 12.05 L88.8 8.45 Q139.2 12.65 186.75 14.5 L198.75 14.9 253.7 15.9 257.7 15.9 260.35 15.9 269.5 15.9 M10.6 0.75 L75.25 7.3 64.65 21.0 Q59.4 27.4 54.55 32.3 30.85 28.45 7.85 23.35 7.05 11.7 10.6 0.75 M172.15 21.8 L172.2 21.8 172.15 21.75 172.15 21.8 M121.65 31.0 Q124.6 30.35 124.7 29.1 124.8 27.85 121.95 26.8 119.2 25.7 115.2 25.4 L108.15 25.7 Q105.25 26.3 105.15 27.55 105.05 28.8 107.85 29.9 110.65 31.0 114.7 31.35 L121.65 31.0 M165.45 34.55 L172.2 33.9 Q175.05 33.1 175.1 31.75 175.2 30.4 172.4 29.3 169.7 28.25 165.75 28.05 161.75 27.9 158.9 28.7 156.15 29.55 156.05 30.9 156.0 32.25 158.7 33.3 161.45 34.4 165.45 34.55" fill="#ff9900" fill-rule="evenodd" stroke="none"/>
      <path d="M272.95 31.4 L273.9 32.55 273.7 33.7 273.0 34.3 271.0 35.1 264.25 35.75 Q260.25 35.6 257.5 34.5 254.8 33.45 254.85 32.1 254.95 30.75 257.7 29.9 260.55 29.1 264.55 29.25 268.5 29.45 271.2 30.5 L272.95 31.4 M165.45 34.55 Q161.45 34.4 158.7 33.3 156.0 32.25 156.05 30.9 156.15 29.55 158.9 28.7 161.75 27.9 165.75 28.05 169.7 28.25 172.4 29.3 175.2 30.4 175.1 31.75 175.05 33.1 172.2 33.9 L165.45 34.55 M121.65 31.0 L114.7 31.35 Q110.65 31.0 107.85 29.9 105.05 28.8 105.15 27.55 105.25 26.3 108.15 25.7 L115.2 25.4 Q119.2 25.7 121.95 26.8 124.8 27.85 124.7 29.1 124.6 30.35 121.65 31.0" fill="#663c00" fill-rule="evenodd" stroke="none"/>
      <path d="M271.7 49.25 L268.9 49.4 267.1 49.5 260.3 49.8 187.15 50.15 Q147.4 49.0 103.7 45.15 L67.15 41.5 Q67.8 38.1 69.3 34.5 165.1 48.15 272.45 40.8 L271.7 49.25 M46.9 39.2 L39.0 38.2 8.25 34.1 7.85 23.55 7.85 23.35 Q30.85 28.45 54.55 32.3 50.6 36.25 46.9 39.2" fill="#cf7b00" fill-rule="evenodd" stroke="none"/>
      <path d="M272.45 40.8 L279.55 40.3 279.1 46.15 Q278.8 48.3 276.85 48.75 L271.7 49.25 272.45 40.8 M8.25 34.1 L3.8 33.45 Q1.0 32.8 0.75 29.25 0.2 25.4 0.05 21.55 L7.85 23.35 7.85 23.55 8.25 34.1" fill="#cfa300" fill-rule="evenodd" stroke="none"/>
      <path d="M172.15 21.8 L172.15 21.75 172.2 21.8 172.15 21.8" fill="#734910" fill-rule="evenodd" stroke="none"/>
      <path d="M67.15 41.5 L46.9 39.2 Q50.6 36.25 54.55 32.3 59.4 27.4 64.65 21.0 L75.25 7.3 88.8 8.45 85.25 12.05 Q73.7 24.15 69.3 34.5 67.8 38.1 67.15 41.5" fill="#ffffff" fill-rule="evenodd" stroke="none"/>
      <path d="M279.55 40.3 L279.55 39.4 279.65 18.25 Q279.65 16.85 278.3 15.8 L269.5 15.9 260.35 15.9 257.7 15.9 253.7 15.9 198.75 14.9 186.75 14.5 Q139.2 12.65 88.8 8.45 L75.25 7.3 10.6 0.75 4.35 0.0 Q1.8 1.8 1.15 5.9 L1.1 6.0 1.0 6.8 0.7 8.75 Q-0.2 15.15 0.05 21.55 0.2 25.4 0.75 29.25 1.0 32.8 3.8 33.45 L8.25 34.1 39.0 38.2 46.9 39.2 67.15 41.5 103.7 45.15 Q147.4 49.0 187.15 50.15 L260.3 49.8 267.1 49.5 268.9 49.4 271.7 49.25 276.85 48.75 Q278.8 48.3 279.1 46.15 L279.55 40.3 M272.95 31.4 L273.9 32.55 273.7 33.7 273.0 34.3 271.0 35.1 264.25 35.75 Q260.25 35.6 257.5 34.5 254.8 33.45 254.85 32.1 254.95 30.75 257.7 29.9 260.55 29.1 264.55 29.25 268.5 29.45 271.2 30.5 L272.95 31.4 M165.45 34.55 Q161.45 34.4 158.7 33.3 156.0 32.25 156.05 30.9 156.15 29.55 158.9 28.7 161.75 27.9 165.75 28.05 169.7 28.25 172.4 29.3 175.2 30.4 175.1 31.75 175.05 33.1 172.2 33.9 L165.45 34.55 M121.65 31.0 L114.7 31.35 Q110.65 31.0 107.85 29.9 105.05 28.8 105.15 27.55 105.25 26.3 108.15 25.7 L115.2 25.4 Q119.2 25.7 121.95 26.8 124.8 27.85 124.7 29.1 124.6 30.35 121.65 31.0" fill="none" stroke="#000000" stroke-linecap="round" stroke-linejoin="round" stroke-opacity="0.6627451" stroke-width="3.5"/>
    </g>
    <g id="sprite1" transform="matrix(1.0, 0.0, 0.0, 1.0, 139.8, 25.05)">
      <use height="50.15" transform="matrix(1.0, 0.0, 0.0, 1.0, -139.8, -25.05)" width="279.65" xlink:href="#shape1"/>
    </g>
    <g id="shape1" transform="matrix(1.0, 0.0, 0.0, 1.0, 139.8, 25.05)">
      <path d="M-25.1 6.3 Q-29.15 5.95 -31.95 4.85 -34.75 3.75 -34.65 2.5 -34.55 1.25 -31.65 0.65 L-24.6 0.35 Q-20.6 0.65 -17.85 1.75 -15.0 2.8 -15.1 4.05 -15.2 5.3 -18.15 5.95 L-25.1 6.3" fill="url(#gradient0)" fill-rule="evenodd" stroke="none"/>
      <path d="M18.9 8.25 Q16.2 7.2 16.25 5.85 16.35 4.5 19.1 3.65 21.95 2.85 25.95 3.0 29.9 3.2 32.6 4.25 35.4 5.35 35.3 6.7 35.25 8.05 32.4 8.85 29.6 9.7 25.65 9.5 21.65 9.35 18.9 8.25" fill="url(#gradient1)" fill-rule="evenodd" stroke="none"/>
      <path d="M134.1 7.5 L133.9 8.65 133.2 9.25 131.2 10.05 124.45 10.7 Q120.45 10.55 117.7 9.45 115.0 8.4 115.05 7.05 115.15 5.7 117.9 4.85 120.75 4.05 124.75 4.2 128.7 4.4 131.4 5.45 L133.15 6.35 134.1 7.5" fill="url(#gradient2)" fill-rule="evenodd" stroke="none"/>
      <path d="M58.95 -10.15 L113.9 -9.15 117.9 -9.15 120.55 -9.15 129.7 -9.15 138.5 -9.25 Q139.85 -8.2 139.85 -6.8 L139.75 14.35 139.75 15.25 139.3 21.1 Q139.0 23.25 137.05 23.7 L131.9 24.2 129.1 24.35 127.3 24.45 120.5 24.75 47.35 25.1 Q7.6 23.95 -36.1 20.1 L-72.65 16.45 -92.9 14.15 -100.8 13.15 -131.55 9.05 -136.0 8.4 Q-138.8 7.75 -139.05 4.2 -139.6 0.35 -139.75 -3.5 -140.0 -9.9 -139.1 -16.3 L-138.8 -18.25 -138.7 -19.05 -138.65 -19.15 Q-138.0 -23.25 -135.45 -25.05 L-129.2 -24.3 -64.55 -17.75 -51.0 -16.6 Q-0.6 -12.4 46.95 -10.55 L58.95 -10.15 M134.1 7.5 L133.15 6.35 131.4 5.45 Q128.7 4.4 124.75 4.2 120.75 4.05 117.9 4.85 115.15 5.7 115.05 7.05 115.0 8.4 117.7 9.45 120.45 10.55 124.45 10.7 L131.2 10.05 133.2 9.25 133.9 8.65 134.1 7.5 M18.9 8.25 Q21.65 9.35 25.65 9.5 29.6 9.7 32.4 8.85 35.25 8.05 35.3 6.7 35.4 5.35 32.6 4.25 29.9 3.2 25.95 3.0 21.95 2.85 19.1 3.65 16.35 4.5 16.25 5.85 16.2 7.2 18.9 8.25 M-25.1 6.3 L-18.15 5.95 Q-15.2 5.3 -15.1 4.05 -15.0 2.8 -17.85 1.75 -20.6 0.65 -24.6 0.35 L-31.65 0.65 Q-34.55 1.25 -34.65 2.5 -34.75 3.75 -31.95 4.85 -29.15 5.95 -25.1 6.3" fill="url(#gradient3)" fill-rule="evenodd" stroke="none"/>
    </g>
    <linearGradient gradientTransform="matrix(0.0119, 0.0, 0.0, 0.0038, -24.9, 3.3)" gradientUnits="userSpaceOnUse" id="gradient0" spreadMethod="pad" x1="-819.2" x2="819.2">
      <stop offset="0.0" stop-color="#000000"/>
      <stop offset="1.0" stop-color="#ffffff"/>
    </linearGradient>
    <linearGradient gradientTransform="matrix(0.0116, 0.0, 0.0, 0.004, 25.75, 6.25)" gradientUnits="userSpaceOnUse" id="gradient1" spreadMethod="pad" x1="-819.2" x2="819.2">
      <stop offset="0.0" stop-color="#000000"/>
      <stop offset="1.0" stop-color="#ffffff"/>
    </linearGradient>
    <linearGradient gradientTransform="matrix(0.0116, 0.0, 0.0, 0.004, 124.55, 7.45)" gradientUnits="userSpaceOnUse" id="gradient2" spreadMethod="pad" x1="-819.2" x2="819.2">
      <stop offset="0.0" stop-color="#000000"/>
      <stop offset="1.0" stop-color="#ffffff"/>
    </linearGradient>
    <linearGradient gradientTransform="matrix(0.0, -0.0248, 0.0306, 0.0, -0.05, 0.05)" gradientUnits="userSpaceOnUse" id="gradient3" spreadMethod="pad" x1="-819.2" x2="819.2">
      <stop offset="0.0" stop-color="#000000"/>
      <stop offset="1.0" stop-color="#ffffff"/>
    </linearGradient>
    <g id="shape2" transform="matrix(1.0, 0.0, 0.0, 1.0, -178.4, 11.2)">
      <path d="M192.6 0.35 Q203.25 -9.5 217.7 -10.15 L225.15 -10.2 229.5 -10.15 224.9 -9.65 Q212.95 -7.75 203.95 1.65 L202.35 3.45 192.6 0.35" fill="#e88416" fill-rule="evenodd" stroke="none"/>
      <path d="M202.35 3.45 Q192.65 14.75 192.65 30.2 L192.7 31.85 Q189.5 31.9 186.8 31.0 183.8 30.0 179.45 28.05 180.15 12.75 191.3 1.65 L192.6 0.35 202.35 3.45" fill="#cc6b00" fill-rule="evenodd" stroke="none"/>
      <path d="M192.7 31.85 Q192.9 37.1 194.25 41.95 195.6 46.7 198.05 50.9 200.45 55.05 203.95 58.75 L205.45 60.25 Q208.9 63.5 212.85 65.8 218.4 69.0 224.9 70.05 L226.65 70.3 227.75 70.4 227.75 70.55 225.15 70.55 217.7 70.55 210.65 69.65 Q199.7 67.15 191.3 58.75 L190.15 57.65 Q179.4 46.1 179.4 30.2 L179.45 28.05 Q183.8 30.0 186.8 31.0 189.5 31.9 192.7 31.85" fill="#a65b09" fill-rule="evenodd" stroke="none"/>
      <path d="M192.6 0.35 Q203.25 -9.5 217.7 -10.15 L225.15 -10.2 229.5 -10.15 M227.75 70.55 L225.15 70.55 217.7 70.55 210.65 69.65 Q199.7 67.15 191.3 58.75 L190.15 57.65 Q179.4 46.1 179.4 30.2 L179.45 28.05 Q180.15 12.75 191.3 1.65 L192.6 0.35 Z" fill="none" stroke="#000000" stroke-linecap="round" stroke-linejoin="round" stroke-opacity="0.6627451" stroke-width="2.0"/>
      <path d="M196.15 26.3 Q197.35 15.65 204.8 7.8 211.8 0.5 221.15 -1.0 L224.85 -1.35 228.5 -1.35 Q231.75 -1.05 234.8 -0.15 L233.6 1.75 Q231.1 1.0 228.4 0.8 L226.8 0.7 224.9 0.7 224.55 0.7 221.55 1.1 Q212.85 2.5 206.25 9.3 201.15 14.65 199.2 21.25 198.15 24.8 198.05 28.75 L196.85 27.3 196.15 26.3 M253.35 22.5 Q252.7 19.85 251.5 17.4 250.1 14.35 247.95 11.6 L247.4 10.9 248.8 9.35 250.5 11.6 252.1 14.15 Q253.25 16.1 254.05 18.2 256.25 23.7 256.25 30.2 L256.25 30.35 256.0 30.4 254.25 30.7 254.25 30.2 Q254.25 26.1 253.35 22.5" fill="#e0960f" fill-rule="evenodd" stroke="none"/>
      <path d="M224.85 -10.15 L226.2 -10.15 229.15 -10.05 Q234.7 -9.65 239.55 -7.75 L234.8 -0.15 Q231.75 -1.05 228.5 -1.35 L224.85 -1.35 221.15 -1.0 Q211.8 0.5 204.8 7.8 197.35 15.65 196.15 26.3 L195.95 30.2 Q195.95 33.1 196.45 35.8 197.15 40.2 198.95 44.1 L195.55 48.05 192.95 50.9 Q190.5 46.7 189.15 41.95 187.8 37.1 187.6 31.85 L187.55 30.2 Q187.55 14.75 197.25 3.45 L198.85 1.65 Q207.85 -7.75 219.8 -9.65 L224.5 -10.15 224.85 -10.15 M254.65 3.05 L256.2 4.9 Q258.7 8.05 260.45 11.6 264.6 20.0 264.6 30.2 L264.55 33.45 Q264.2 38.45 262.75 42.95 260.05 51.7 253.35 58.75 244.9 67.6 233.85 69.85 L229.15 70.5 226.45 70.55 226.15 70.55 225.5 70.55 225.35 70.55 225.25 70.55 224.9 70.55 224.65 70.55 222.65 70.4 221.6 70.3 219.8 70.05 Q213.3 69.0 207.75 65.8 L212.1 58.35 Q216.4 60.65 221.15 61.45 L222.6 61.6 223.4 61.65 224.95 61.7 228.45 61.7 232.1 61.25 Q240.85 59.55 247.5 52.55 251.6 48.25 253.85 42.95 255.85 38.25 256.2 32.75 L256.25 30.35 256.25 30.2 Q256.25 23.7 254.05 18.2 253.25 16.1 252.1 14.15 L250.5 11.6 248.8 9.35 254.65 3.05" fill="#ffa400" fill-rule="evenodd" stroke="none"/>
      <path d="M192.95 50.9 L195.55 48.05 198.95 44.1 Q201.05 48.6 204.6 52.3 L204.8 52.55 Q208.2 56.1 212.1 58.35 L207.75 65.8 Q203.85 63.5 200.35 60.25 L198.85 58.75 Q195.4 55.05 192.95 50.9 M234.8 -0.15 L239.55 -7.75 242.85 -6.4 Q248.5 -3.4 253.35 1.65 L254.65 3.05 248.8 9.35 247.5 7.8 Q242.95 3.2 237.5 0.8 236.2 0.25 234.8 -0.15" fill="#ffffff" fill-rule="evenodd" stroke="none"/>
      <path d="M234.8 -0.15 Q236.2 0.25 237.5 0.8 242.95 3.2 247.5 7.8 L248.8 9.35 247.4 10.9 246.0 9.3 Q241.65 4.7 236.2 2.55 L233.6 1.75 234.8 -0.15 M213.25 56.5 L212.1 58.35 Q208.2 56.1 204.8 52.55 L204.6 52.3 Q201.05 48.6 198.95 44.1 L200.4 42.45 Q202.35 46.8 205.85 50.6 L206.25 51.0 Q209.45 54.45 213.25 56.5" fill="#ffdb7f" fill-rule="evenodd" stroke="none"/>
      <path d="M247.4 10.9 L247.95 11.6 Q250.1 14.35 251.5 17.4 252.7 19.85 253.35 22.5 251.5 29.5 246.1 34.9 L244.0 36.95 Q236.45 43.2 226.45 43.2 L224.2 43.1 222.25 42.9 Q218.05 42.3 214.35 40.5 210.4 38.55 206.95 35.15 L206.75 34.9 Q200.9 29.0 199.2 21.25 201.15 14.65 206.25 9.3 212.85 2.5 221.55 1.1 L224.55 0.7 224.9 0.7 226.8 0.7 228.4 0.8 Q231.1 1.0 233.6 1.75 L236.2 2.55 Q241.65 4.7 246.0 9.3 L247.4 10.9" fill="#ffd32e" fill-rule="evenodd" stroke="none"/>
      <path d="M253.35 22.5 Q254.25 26.1 254.25 30.2 L254.25 30.7 254.2 32.55 Q253.85 38.15 251.6 42.95 249.55 47.35 246.0 51.0 239.8 57.5 231.7 59.2 L228.25 59.6 226.65 59.65 224.7 59.65 223.6 59.6 222.75 59.55 221.55 59.3 Q217.1 58.6 213.25 56.5 209.45 54.45 206.25 51.0 L205.85 50.6 Q202.35 46.8 200.4 42.45 198.75 38.55 198.25 34.1 L198.0 30.2 198.05 28.75 Q198.15 24.8 199.2 21.25 200.9 29.0 206.75 34.9 L206.95 35.15 Q210.4 38.55 214.35 40.5 218.05 42.3 222.25 42.9 L224.2 43.1 226.45 43.2 Q236.45 43.2 244.0 36.95 L246.1 34.9 Q251.5 29.5 253.35 22.5" fill="#f0ac00" fill-rule="evenodd" stroke="none"/>
      <path d="M198.95 44.1 Q197.15 40.2 196.45 35.8 195.95 33.1 195.95 30.2 L196.15 26.3 196.85 27.3 198.05 28.75 198.0 30.2 198.25 34.1 Q198.75 38.55 200.4 42.45 L198.95 44.1 M254.25 30.7 L256.0 30.4 256.25 30.35 256.2 32.75 Q255.85 38.25 253.85 42.95 251.6 48.25 247.5 52.55 240.85 59.55 232.1 61.25 L228.45 61.7 224.95 61.7 223.4 61.65 222.6 61.6 221.15 61.45 Q216.4 60.65 212.1 58.35 L213.25 56.5 Q217.1 58.6 221.55 59.3 L222.75 59.55 223.6 59.6 224.7 59.65 225.0 59.65 226.65 59.65 228.25 59.6 231.7 59.2 Q239.8 57.5 246.0 51.0 249.55 47.35 251.6 42.95 253.85 38.15 254.2 32.55 L254.25 30.7" fill="#b87600" fill-rule="evenodd" stroke="none"/>
      <path d="M226.65 59.65 L225.0 59.65 224.7 59.65 226.65 59.65" fill="#ffcc00" fill-rule="evenodd" stroke="none"/>
      <path d="M198.95 44.1 Q197.15 40.2 196.45 35.8 195.95 33.1 195.95 30.2 L196.15 26.3 Q197.35 15.65 204.8 7.8 211.8 0.5 221.15 -1.0 L224.85 -1.35 228.5 -1.35 Q231.75 -1.05 234.8 -0.15 236.2 0.25 237.5 0.8 242.95 3.2 247.5 7.8 L248.8 9.35 250.5 11.6 252.1 14.15 Q253.25 16.1 254.05 18.2 256.25 23.7 256.25 30.2 L256.25 30.35 256.2 32.75 Q255.85 38.25 253.85 42.95 251.6 48.25 247.5 52.55 240.85 59.55 232.1 61.25 L228.45 61.7 224.95 61.7 223.4 61.65 222.6 61.6 221.15 61.45 Q216.4 60.65 212.1 58.35 208.2 56.1 204.8 52.55 L204.6 52.3 Q201.05 48.6 198.95 44.1 M247.4 10.9 L247.95 11.6 Q250.1 14.35 251.5 17.4 252.7 19.85 253.35 22.5 254.25 26.1 254.25 30.2 L254.25 30.7 254.2 32.55 Q253.85 38.15 251.6 42.95 249.55 47.35 246.0 51.0 239.8 57.5 231.7 59.2 L228.25 59.6 226.65 59.65 225.0 59.65 224.7 59.65 223.6 59.6 222.75 59.55 221.55 59.3 Q217.1 58.6 213.25 56.5 209.45 54.45 206.25 51.0 L205.85 50.6 Q202.35 46.8 200.4 42.45 198.75 38.55 198.25 34.1 L198.0 30.2 198.05 28.75 Q198.15 24.8 199.2 21.25 201.15 14.65 206.25 9.3 212.85 2.5 221.55 1.1 L224.55 0.7 224.9 0.7 226.8 0.7 228.4 0.8 Q231.1 1.0 233.6 1.75 L236.2 2.55 Q241.65 4.7 246.0 9.3 L247.4 10.9" fill="none" stroke="#ffff00" stroke-linecap="round" stroke-linejoin="round" stroke-width="2.0"/>
      <path d="M224.85 -10.15 L226.2 -10.15 229.15 -10.05 226.15 -10.2 224.85 -10.15 224.5 -10.15 219.8 -9.65 Q207.85 -7.75 198.85 1.65 L197.25 3.45 Q187.55 14.75 187.55 30.2 L187.6 31.85 Q187.8 37.1 189.15 41.95 190.5 46.7 192.95 50.9 195.4 55.05 198.85 58.75 L200.35 60.25 Q203.85 63.5 207.75 65.8 213.3 69.0 219.8 70.05 L221.6 70.3 222.65 70.4 224.65 70.55 224.9 70.55 225.25 70.55 225.35 70.55 225.5 70.55 226.15 70.55 226.45 70.55 229.15 70.5 233.85 69.85 Q244.9 67.6 253.35 58.75 260.05 51.7 262.75 42.95 264.2 38.45 264.55 33.45 L264.6 30.2 Q264.6 20.0 260.45 11.6 258.7 8.05 256.2 4.9 L254.65 3.05 253.35 1.65 Q248.5 -3.4 242.85 -6.4 L239.55 -7.75 Q234.7 -9.65 229.15 -10.05" fill="none" stroke="#000000" stroke-linecap="round" stroke-linejoin="round" stroke-opacity="0.6627451" stroke-width="2.0"/>
      <path d="M239.55 11.4 Q240.15 29.25 238.85 46.7 L231.7 47.75 231.1 47.75 231.1 52.5 227.9 52.5 227.9 47.9 226.15 47.9 226.15 52.5 223.0 52.5 223.0 47.8 214.85 46.7 Q213.45 29.9 214.55 11.4 L221.2 11.2 Q220.75 26.5 221.8 40.5 L223.0 40.5 223.0 35.95 226.15 35.95 226.15 40.45 227.9 40.35 227.9 35.95 231.1 35.95 231.1 40.3 232.5 40.3 Q233.9 26.9 232.75 11.3 L239.55 11.4" fill="#f0ad26" fill-rule="evenodd" stroke="none"/>
      <path d="M239.55 11.4 Q240.15 29.25 238.85 46.7 L231.7 47.75 231.1 47.75 231.1 52.5 227.9 52.5 227.9 47.9 226.15 47.9 226.15 52.5 223.0 52.5 223.0 47.8 214.85 46.7 Q213.45 29.9 214.55 11.4 L221.2 11.2 Q220.75 26.5 221.8 40.5 L223.0 40.5 223.0 35.95 226.15 35.95 226.15 40.45 227.9 40.35 227.9 35.95 231.1 35.95 231.1 40.3 232.5 40.3 Q233.9 26.9 232.75 11.3 L239.55 11.4 Z" fill="none" stroke="#663300" stroke-linecap="round" stroke-linejoin="round" stroke-opacity="0.6627451" stroke-width="1.0"/>
      <path d="M241.05 11.4 Q241.7 29.25 240.45 46.7 L233.3 47.75 232.65 47.75 232.65 52.5 229.5 52.5 229.5 47.9 227.7 47.9 227.7 52.5 224.55 52.5 224.55 47.8 216.45 46.7 Q215.0 29.9 216.1 11.4 L222.7 11.2 Q222.3 26.5 223.35 40.5 L224.55 40.5 224.55 35.95 227.7 35.95 227.7 40.45 229.5 40.35 229.5 35.95 232.65 35.95 232.65 40.3 234.1 40.3 Q235.5 26.9 234.3 11.3 L241.05 11.4" fill="url(#gradient4)" fill-rule="evenodd" stroke="none"/>
      <path d="M241.05 11.4 Q241.7 29.25 240.45 46.7 L233.3 47.75 232.65 47.75 232.65 52.5 229.5 52.5 229.5 47.9 227.7 47.9 227.7 52.5 224.55 52.5 224.55 47.8 216.45 46.7 Q215.0 29.9 216.1 11.4 L222.7 11.2 Q222.3 26.5 223.35 40.5 L224.55 40.5 224.55 35.95 227.7 35.95 227.7 40.45 229.5 40.35 229.5 35.95 232.65 35.95 232.65 40.3 234.1 40.3 Q235.5 26.9 234.3 11.3 L241.05 11.4 Z" fill="none" stroke="#663300" stroke-linecap="round" stroke-linejoin="round" stroke-opacity="0.6627451" stroke-width="1.0"/>
      <path d="M222.9 4.6 Q226.15 0.6 231.05 1.8 234.4 2.5 236.9 4.8 239.45 7.25 236.35 8.2 L233.6 8.5 224.7 8.25 223.4 7.95 Q221.15 6.8 222.9 4.6" fill="#ffffff" fill-rule="evenodd" stroke="none"/>
      <path d="M242.9 7.8 L242.7 8.5 Q242.4 8.85 241.65 8.85 241.05 8.85 240.5 8.45 240.0 8.05 240.0 7.6 240.0 6.7 240.8 6.25 L241.75 6.25 242.5 6.8 Q242.9 7.3 242.9 7.8" fill="#ffffff" fill-rule="evenodd" stroke="none"/>
    </g>
    <linearGradient gradientTransform="matrix(2.0E-4, 0.0228, -0.0252, 2.0E-4, 229.0, 28.5)" gradientUnits="userSpaceOnUse" id="gradient4" spreadMethod="pad" x1="-819.2" x2="819.2">
      <stop offset="0.0" stop-color="#ffcc00"/>
      <stop offset="1.0" stop-color="#ff9900"/>
      <stop offset="1.0" stop-color="#f7f7f7" stop-opacity="0.5529412"/>
    </linearGradient>
  </defs>
</svg>
