<?xml version="1.0" encoding="UTF-8" standalone="no"?>
<svg xmlns:xlink="http://www.w3.org/1999/xlink" height="531.5px" width="460.6px" xmlns="http://www.w3.org/2000/svg">
  <g transform="matrix(1.0, 0.0, 0.0, 1.0, 193.65, 334.05)">
    <use height="283.55" transform="matrix(0.4591, 0.0, 0.0, 0.4591, -71.8296, -227.8796)" width="258.8" xlink:href="#sprite0"/>
  </g>
  <defs>
    <g id="sprite0" transform="matrix(1.0, 0.0, 0.0, 1.0, 0.5, 0.5)">
      <use height="283.55" transform="matrix(1.0, 0.0, 0.0, 1.0, -0.5, -0.5)" width="258.8" xlink:href="#shape0"/>
      <use height="257.85" transform="matrix(1.0, 0.0, 0.0, 1.0, 0.0, 0.0)" width="255.8" xlink:href="#sprite1"/>
    </g>
    <g id="shape0" transform="matrix(1.0, 0.0, 0.0, 1.0, 0.5, 0.5)">
      <path d="M252.85 187.6 Q255.1 190.7 255.65 194.1 256.9 202.65 247.0 213.15 L242.35 217.65 241.7 218.15 Q242.55 212.6 236.75 211.0 L231.3 210.35 Q229.05 204.15 224.45 198.45 238.4 200.55 251.75 191.8 L252.05 191.6 Q253.95 190.3 252.85 187.6 M84.3 187.85 Q83.85 179.6 85.95 173.75 88.55 166.5 95.1 162.85 97.1 161.75 99.5 160.95 L99.55 164.45 99.6 167.45 Q100.0 170.8 101.85 171.85 L103.6 173.4 104.1 173.85 Q101.2 175.45 98.6 177.95 92.95 183.35 92.25 189.35 L89.7 187.75 Q86.6 185.8 84.3 187.85 M159.65 175.15 Q167.0 177.0 174.65 178.3 180.7 180.6 186.35 184.55 192.4 188.8 196.3 194.2 203.35 203.95 203.35 217.55 203.35 220.05 202.35 226.2 L202.05 228.2 Q201.3 226.15 199.65 224.55 190.3 221.45 179.95 220.25 L175.0 219.75 173.45 219.6 174.85 219.25 179.9 218.15 182.1 217.75 Q183.4 209.25 179.65 203.65 178.45 201.85 176.8 200.35 162.95 194.6 146.3 195.45 143.6 188.95 137.8 188.1 130.55 186.75 122.6 187.9 123.75 186.05 125.8 184.35 135.5 185.9 146.05 182.25 147.45 181.8 148.75 177.65 L148.95 176.95 149.3 175.55 156.75 175.05 159.65 175.15 M190.6 213.45 Q191.05 192.5 179.35 187.85 L177.75 187.25 179.35 187.85 Q191.05 192.5 190.6 213.45 M168.5 185.05 Q158.3 182.6 152.55 187.35 158.3 182.6 168.5 185.05 M199.75 215.6 Q204.55 206.9 196.3 194.2 204.55 206.9 199.75 215.6" fill="#2f041f" fill-rule="evenodd" stroke="none"/>
      <path d="M174.65 178.3 L179.2 179.0 Q190.35 180.55 202.15 180.9 L211.35 180.95 211.8 185.25 212.35 190.4 Q213.0 193.8 215.1 195.8 219.8 197.7 224.45 198.45 229.05 204.15 231.3 210.35 215.45 208.65 213.4 211.85 211.0 215.55 212.0 220.75 209.75 221.65 207.7 222.85 204.0 228.05 204.75 231.4 204.95 232.3 205.45 233.05 L202.4 233.75 202.6 231.65 Q202.55 229.8 202.05 228.2 L202.35 226.2 Q203.35 220.05 203.35 217.55 203.35 203.95 196.3 194.2 192.4 188.8 186.35 184.55 180.7 180.6 174.65 178.3 M150.05 172.4 L150.5 172.55 159.65 175.15 156.75 175.05 149.3 175.55 150.05 172.4 M104.1 173.85 Q114.4 182.6 125.8 184.35 123.75 186.05 122.6 187.9 L117.05 188.9 Q111.45 190.1 106.45 191.7 101.15 193.35 96.55 195.45 L95.9 193.6 Q94.75 191.2 92.25 189.35 92.95 183.35 98.6 177.95 101.2 175.45 104.1 173.85" fill="#5f073d" fill-rule="evenodd" stroke="none"/>
      <path d="M256.25 150.4 L257.05 151.7 Q258.3 153.55 258.3 156.1 258.3 159.7 254.7 162.2 251.25 164.6 246.7 164.6 243.4 164.6 239.4 162.45 236.5 160.9 234.85 159.1 244.25 150.85 256.25 150.4" fill="#bdbdbd" fill-rule="evenodd" stroke="none"/>
      <path d="M211.35 180.95 L222.55 180.5 235.7 179.85 Q246.85 181.05 248.05 182.75 251.0 185.05 252.85 187.6 253.95 190.3 252.05 191.6 L251.75 191.8 Q247.9 189.95 242.15 188.35 230.3 185.05 221.1 185.05 L213.3 185.25 211.8 185.25 211.35 180.95 M234.5 222.05 L229.65 224.75 Q216.1 230.45 205.45 233.05 204.95 232.3 204.75 231.4 204.0 228.05 207.7 222.85 209.75 221.65 212.0 220.75 220.25 217.45 231.2 217.85 L233.25 219.3 Q234.35 220.4 234.5 222.05 M202.4 233.75 Q190.95 236.2 180.25 237.0 162.85 238.3 147.55 235.15 L148.35 232.05 Q154.5 227.3 161.45 224.0 160.75 225.45 160.75 226.55 160.75 230.9 170.25 232.05 L186.8 232.55 188.3 232.55 199.75 231.9 202.6 231.65 202.4 233.75 M86.95 200.9 Q86.15 199.1 85.5 196.95 84.55 192.1 84.3 187.85 86.6 185.8 89.7 187.75 L92.25 189.35 Q94.75 191.2 95.9 193.6 L96.55 195.45 93.2 197.1 Q89.85 198.85 86.95 200.9 M99.5 160.95 Q102.4 159.95 105.85 159.55 L110.05 159.2 Q117.55 158.75 128.1 163.75 138.75 168.85 150.05 172.4 L149.3 175.55 148.95 176.95 Q141.7 176.45 135.95 175.1 128.7 173.45 119.75 168.95 115.7 166.95 107.15 165.8 L99.55 164.45 99.5 160.95" fill="#e6e6e6" fill-rule="evenodd" stroke="none"/>
      <path d="M202.05 228.2 Q202.55 229.8 202.6 231.65 L199.75 231.9 188.3 232.55 186.8 232.55 170.25 232.05 Q160.75 230.9 160.75 226.55 160.75 225.45 161.45 224.0 167.15 221.3 173.45 219.6 L175.0 219.75 179.95 220.25 Q190.3 221.45 199.65 224.55 201.3 226.15 202.05 228.2 M211.8 185.25 L213.3 185.25 221.1 185.05 Q230.3 185.05 242.15 188.35 247.9 189.95 251.75 191.8 238.4 200.55 224.45 198.45 219.8 197.7 215.1 195.8 213.0 193.8 212.35 190.4 L211.8 185.25 M99.55 164.45 L107.15 165.8 Q115.7 166.95 119.75 168.95 128.7 173.45 135.95 175.1 141.7 176.45 148.95 176.95 L148.75 177.65 Q147.45 181.8 146.05 182.25 135.5 185.9 125.8 184.35 114.4 182.6 104.1 173.85 L103.6 173.4 101.85 171.85 Q100.0 170.8 99.6 167.45 L99.55 164.45" fill="#ffffff" fill-rule="evenodd" stroke="none"/>
      <path d="M84.45 62.75 Q88.95 64.65 93.35 66.85 L97.15 68.75 97.65 74.05 93.75 72.15 Q89.3 70.0 84.15 67.95 L84.45 62.75 M113.3 77.35 Q122.15 82.35 131.0 88.05 L137.25 92.15 134.25 94.9 131.5 97.3 128.4 94.9 119.65 88.25 114.4 84.45 113.3 77.35 M9.55 0.8 Q10.8 0.15 12.6 0.0 L48.9 49.25 49.45 49.45 Q61.35 53.2 72.45 57.7 L79.6 60.6 79.55 66.15 75.65 64.75 72.4 63.7 72.45 57.7 72.4 63.7 Q64.9 61.15 52.4 57.35 L47.6 51.15 46.4 49.65 28.2 25.95 Q13.75 7.1 9.55 0.8 M93.35 66.85 L93.75 72.15 93.35 66.85 M48.9 49.25 L48.8 49.5 47.6 51.15 48.8 49.5 48.9 49.25" fill="#999999" fill-rule="evenodd" stroke="none"/>
      <path d="M131.0 88.05 Q156.85 83.85 149.1 92.15 L144.55 95.9 144.0 96.4 138.75 94.9 134.25 94.9 137.25 92.15 131.0 88.05 M137.25 101.85 L137.2 101.85 129.55 107.6 122.6 105.95 121.35 105.7 123.8 103.75 129.65 98.9 123.8 103.75 121.35 105.7 116.9 109.0 114.4 110.8 116.9 109.0 124.45 111.3 122.85 112.45 113.7 118.7 Q101.55 126.65 89.65 133.0 L86.05 134.85 86.25 134.15 Q77.55 137.1 68.9 139.45 L68.15 139.65 63.15 141.0 55.15 142.8 64.0 139.15 68.0 137.35 Q75.65 133.95 82.85 130.2 L88.25 127.3 Q100.0 120.85 110.8 113.3 L114.4 110.8 114.6 108.1 114.65 107.15 114.8 103.95 Q115.15 94.9 114.6 86.85 L114.4 84.45 119.65 88.25 128.4 94.9 131.5 97.3 129.65 98.9 129.75 98.9 Q132.15 100.1 136.1 101.45 L137.25 101.85 M13.35 160.9 L9.25 160.35 Q0.05 159.15 0.0 156.8 -0.15 154.45 3.55 153.0 7.05 151.6 10.2 151.85 L13.5 152.3 17.4 153.2 15.4 154.95 10.05 154.15 Q8.8 154.0 7.25 154.9 5.8 155.9 5.75 156.7 L10.25 157.95 12.45 158.35 12.0 159.35 12.05 159.7 Q12.05 160.4 13.15 160.85 L13.35 160.9 M6.85 3.95 L7.45 2.6 30.35 33.9 42.7 49.9 45.4 53.3 47.6 51.15 52.4 57.35 Q64.9 61.15 72.4 63.7 L75.65 64.75 79.55 66.15 Q78.55 82.75 69.8 107.05 L66.45 115.65 66.15 116.45 65.15 119.0 Q61.95 126.6 58.65 132.9 L52.05 132.0 49.45 131.55 50.45 130.0 Q51.25 128.2 51.1 126.05 L50.85 125.1 50.65 124.8 49.25 124.6 Q48.4 124.7 47.35 126.05 L46.2 127.85 44.15 126.65 Q43.95 125.05 43.3 124.35 L43.45 124.2 Q44.4 123.1 44.3 122.0 L44.1 121.05 43.85 120.75 Q41.45 120.45 40.7 121.35 40.3 121.95 40.4 123.3 L40.4 124.0 Q39.45 124.25 39.05 124.85 38.45 124.9 38.1 125.3 L38.0 125.0 Q38.45 124.45 38.4 123.9 38.3 122.4 36.95 121.35 L36.4 118.55 36.0 115.5 36.3 115.5 Q37.25 115.4 37.7 113.45 L37.95 110.2 Q37.75 107.5 35.8 108.3 L35.3 108.5 35.25 107.75 35.1 104.95 Q36.65 101.5 38.4 95.4 L38.2 94.45 37.95 94.1 Q36.4 94.4 35.15 95.8 35.4 95.25 35.3 94.35 L35.1 93.1 35.1 91.55 36.2 90.5 Q36.5 90.05 36.45 89.4 L36.25 88.3 37.15 87.55 Q38.25 86.4 38.2 85.35 L38.0 84.4 37.75 84.1 35.6 84.0 35.35 84.0 35.65 77.4 35.65 76.5 35.9 73.4 38.4 70.85 Q40.5 68.25 40.35 66.1 L40.35 66.05 Q40.8 65.4 40.75 64.6 39.4 62.0 37.45 61.8 L37.6 60.9 37.9 59.2 38.25 57.05 36.9 57.45 Q35.15 54.6 33.85 51.95 L34.7 51.65 Q35.25 51.3 35.25 50.45 L35.2 50.25 Q35.1 48.6 33.05 47.95 L31.8 47.9 30.65 45.45 29.75 43.4 29.95 43.25 30.15 42.25 29.9 41.25 29.7 41.0 28.5 40.8 26.0 36.4 25.15 35.15 24.95 34.15 24.7 33.85 24.35 33.8 17.45 21.15 Q11.15 9.35 6.85 3.95 M84.15 67.95 Q89.3 70.0 93.75 72.15 L97.65 74.05 97.95 78.0 Q98.5 86.2 91.55 114.65 L91.5 114.85 90.9 117.2 89.35 123.45 Q83.2 127.0 75.45 129.85 L67.65 132.2 66.85 132.5 67.55 130.75 72.2 118.5 73.05 115.95 74.5 111.6 Q82.7 86.4 84.15 67.95 M92.25 91.9 Q93.55 89.45 93.9 82.7 L93.75 72.15 93.9 82.7 Q93.55 89.45 92.25 91.9 M137.25 92.15 L137.6 92.3 137.3 92.15 137.25 92.15 M59.0 109.15 Q61.0 107.4 62.8 104.3 L65.3 99.0 Q67.75 92.9 69.75 83.75 71.95 73.15 72.4 63.7 71.95 73.15 69.75 83.75 67.75 92.9 65.3 99.0 L62.8 104.3 Q61.0 107.4 59.0 109.15 M40.2 76.15 Q39.6 76.95 39.7 77.9 39.7 78.3 40.0 78.6 L41.3 79.55 42.65 78.55 Q43.65 77.45 43.6 76.45 L43.55 75.95 43.4 75.5 43.15 75.15 Q41.1 74.95 40.2 76.15 M46.6 60.85 Q43.95 60.5 43.35 61.4 43.1 61.65 43.15 62.6 L43.5 63.3 44.75 64.25 Q45.65 64.05 46.35 63.45 47.15 62.8 47.1 62.1 L46.85 61.2 46.6 60.85 M38.25 57.05 Q41.15 56.1 43.4 54.7 L45.4 53.3 43.4 54.7 Q41.15 56.1 38.25 57.05 M51.65 83.35 L51.75 84.4 Q52.1 85.3 53.75 85.15 L55.25 84.7 Q56.2 84.1 56.1 82.95 L55.65 81.9 Q54.9 81.1 53.5 81.2 L52.0 81.6 Q51.55 82.1 51.65 83.35 M41.15 113.25 L41.25 114.25 Q41.6 115.1 42.8 115.05 43.4 115.0 44.0 114.1 44.7 113.2 44.6 112.2 44.5 110.4 42.75 110.75 41.0 111.15 41.15 113.25 M54.7 101.85 Q54.95 101.85 54.85 100.6 54.75 98.85 52.95 98.45 51.15 98.05 51.3 100.4 L51.45 101.35 Q51.8 102.35 53.2 102.25 54.45 102.15 54.7 101.85" fill="#6a6a6a" fill-rule="evenodd" stroke="none"/>
      <path d="M97.15 68.75 Q105.25 72.8 113.3 77.35 L114.4 84.45 114.6 86.85 Q115.15 94.9 114.8 103.95 L114.65 107.15 113.4 107.6 104.9 110.65 Q98.5 112.95 92.5 114.6 L91.5 114.85 91.55 114.65 Q98.5 86.2 97.95 78.0 L97.65 74.05 97.15 68.75 M144.0 96.4 L137.25 101.85 136.1 101.45 Q132.15 100.1 129.75 98.9 L129.65 98.9 131.5 97.3 134.25 94.9 138.75 94.9 144.0 96.4 M129.55 107.6 L124.45 111.3 116.9 109.0 121.35 105.7 122.6 105.95 129.55 107.6 M7.45 2.6 Q8.1 1.45 9.55 0.8 13.75 7.1 28.2 25.95 L46.4 49.65 47.6 51.15 45.4 53.3 42.7 49.9 30.35 33.9 7.45 2.6 M79.6 60.6 L84.45 62.75 84.15 67.95 Q82.7 86.4 74.5 111.6 L73.05 115.95 72.2 118.5 70.1 118.65 66.7 118.85 65.15 119.0 66.15 116.45 66.45 115.65 69.8 107.05 Q78.55 82.75 79.55 66.15 L79.6 60.6" fill="#c8c8c8" fill-rule="evenodd" stroke="none"/>
      <path d="M86.05 134.85 L79.4 138.1 68.4 142.85 64.75 144.35 63.75 144.7 60.7 145.9 22.0 160.45 Q19.45 161.2 17.3 161.2 L13.35 160.9 13.15 160.85 Q12.05 160.4 12.05 159.7 L12.0 159.35 12.45 158.35 13.3 157.05 15.4 154.95 17.4 153.2 Q20.35 150.7 24.9 147.45 L24.9 144.35 Q24.75 131.95 25.5 119.3 25.7 115.45 26.05 111.65 27.4 94.45 30.25 76.85 31.75 67.5 33.75 58.15 L6.6 6.65 Q6.5 5.15 6.85 3.95 11.15 9.35 17.45 21.15 L24.35 33.8 24.7 33.85 24.95 34.15 25.15 35.15 26.0 36.4 28.5 40.8 29.7 41.0 29.9 41.25 30.15 42.25 29.95 43.25 29.75 43.4 30.65 45.45 31.8 47.9 33.05 47.95 Q35.1 48.6 35.2 50.25 L35.25 50.45 Q35.25 51.3 34.7 51.65 L33.85 51.95 Q35.15 54.6 36.9 57.45 L38.25 57.05 37.9 59.2 37.6 60.9 37.45 61.8 Q39.4 62.0 40.75 64.6 40.8 65.4 40.35 66.05 L40.35 66.1 Q40.5 68.25 38.4 70.85 L35.9 73.4 35.65 76.5 35.65 77.4 35.35 84.0 35.6 84.0 37.75 84.1 38.0 84.4 38.2 85.35 Q38.25 86.4 37.15 87.55 L36.25 88.3 36.45 89.4 Q36.5 90.05 36.2 90.5 L35.1 91.55 35.1 93.1 35.3 94.35 Q35.4 95.25 35.15 95.8 36.4 94.4 37.95 94.1 L38.2 94.45 38.4 95.4 Q36.65 101.5 35.1 104.95 L35.25 107.75 35.3 108.5 35.8 108.3 Q37.75 107.5 37.95 110.2 L37.7 113.45 Q37.25 115.4 36.3 115.5 L36.0 115.5 36.4 118.55 36.95 121.35 Q38.3 122.4 38.4 123.9 38.45 124.45 38.0 125.0 L38.1 125.3 Q38.45 124.9 39.05 124.85 39.45 124.25 40.4 124.0 L40.4 123.3 Q40.3 121.95 40.7 121.35 41.45 120.45 43.85 120.75 L44.1 121.05 44.3 122.0 Q44.4 123.1 43.45 124.2 L43.3 124.35 Q43.95 125.05 44.15 126.65 L46.2 127.85 47.35 126.05 Q48.4 124.7 49.25 124.6 L50.65 124.8 50.85 125.1 51.1 126.05 Q51.25 128.2 50.45 130.0 L49.45 131.55 52.05 132.0 58.65 132.9 Q55.6 138.65 52.5 143.35 L52.05 143.95 55.15 142.8 63.15 141.0 68.15 139.65 68.9 139.45 Q77.55 137.1 86.25 134.15 L86.05 134.85 M33.75 58.15 L36.9 57.45 33.75 58.15 M40.2 76.15 Q41.1 74.95 43.15 75.15 L43.4 75.5 43.55 75.95 43.6 76.45 Q43.65 77.45 42.65 78.55 L41.3 79.55 40.0 78.6 Q39.7 78.3 39.7 77.9 39.6 76.95 40.2 76.15 M46.6 60.85 L46.85 61.2 47.1 62.1 Q47.15 62.8 46.35 63.45 45.65 64.05 44.75 64.25 L43.5 63.3 43.15 62.6 Q43.1 61.65 43.35 61.4 43.95 60.5 46.6 60.85 M51.65 83.35 Q51.55 82.1 52.0 81.6 L53.5 81.2 Q54.9 81.1 55.65 81.9 L56.1 82.95 Q56.2 84.1 55.25 84.7 L53.75 85.15 Q52.1 85.3 51.75 84.4 L51.65 83.35 M54.7 101.85 Q54.45 102.15 53.2 102.25 51.8 102.35 51.45 101.35 L51.3 100.4 Q51.15 98.05 52.95 98.45 54.75 98.85 54.85 100.6 54.95 101.85 54.7 101.85 M41.15 113.25 Q41.0 111.15 42.75 110.75 44.5 110.4 44.6 112.2 44.7 113.2 44.0 114.1 43.4 115.0 42.8 115.05 41.6 115.1 41.25 114.25 L41.15 113.25 M25.15 152.9 Q36.05 149.8 46.5 146.05 L46.85 145.9 52.05 143.95 46.85 145.9 46.5 146.05 Q36.05 149.8 25.15 152.9 L25.0 152.95 25.05 153.25 25.15 152.9 M24.9 147.45 L25.0 152.9 25.0 152.95 25.0 152.9 24.9 147.45 M64.0 139.15 L66.85 132.5 67.65 132.2 75.45 129.85 Q83.2 127.0 89.35 123.45 L88.25 127.3 82.85 130.2 Q75.65 133.95 68.0 137.35 L64.0 139.15" fill="#404040" fill-rule="evenodd" stroke="none"/>
      <path d="M58.65 132.9 Q61.95 126.6 65.15 119.0 L66.7 118.85 70.1 118.65 72.2 118.5 67.55 130.75 66.85 132.5 64.0 139.15 55.15 142.8 52.05 143.95 52.5 143.35 Q55.6 138.65 58.65 132.9 M89.35 123.45 L90.9 117.2 91.5 114.85 92.5 114.6 Q98.5 112.95 104.9 110.65 L113.4 107.6 114.65 107.15 114.6 108.1 114.4 110.8 110.8 113.3 Q100.0 120.85 88.25 127.3 L89.35 123.45" fill="#888888" fill-rule="evenodd" stroke="none"/>
      <path d="M145.25 234.65 L142.3 237.35 Q135.7 245.8 125.3 252.65 120.7 254.65 116.25 255.9 99.05 254.8 88.65 248.1 74.65 239.0 74.65 220.3 74.65 216.45 75.65 212.65 L76.0 211.2 Q80.45 205.4 86.95 200.9 89.85 198.85 93.2 197.1 L96.55 195.45 Q101.15 193.35 106.45 191.7 111.2 192.3 115.85 196.3 118.6 198.7 120.75 201.05 122.35 201.05 127.25 199.85 L130.35 199.05 Q137.85 197.05 142.75 197.05 154.8 197.05 163.4 203.1 171.65 208.85 174.85 219.25 L173.45 219.6 Q167.15 221.3 161.45 224.0 154.5 227.3 148.35 232.05 L145.25 234.65 M144.25 219.55 Q143.5 219.05 141.75 219.05 L141.25 219.1 141.1 219.1 Q136.75 219.6 136.75 221.05 136.75 223.3 138.25 224.05 139.2 224.55 141.25 224.55 143.85 224.55 144.75 223.55 145.25 223.0 145.25 221.8 145.25 220.15 144.25 219.55 M133.75 230.8 Q133.75 228.9 130.25 228.05 L125.25 227.55 Q116.55 227.55 111.75 229.85 108.0 231.65 104.75 235.75 103.5 237.25 102.35 239.15 100.65 242.1 100.65 243.85 100.65 246.65 103.75 247.6 L108.5 248.1 Q111.25 248.1 122.75 239.5 133.75 231.3 133.75 230.8 M110.2 210.6 Q116.2 203.85 127.25 199.85 116.2 203.85 110.2 210.6" fill="#b30000" fill-rule="evenodd" stroke="none"/>
      <path d="M106.45 191.7 Q111.45 190.1 117.05 188.9 L122.6 187.9 Q130.55 186.75 137.8 188.1 143.6 188.95 146.3 195.45 135.4 196.9 127.25 199.85 135.4 196.9 146.3 195.45 162.95 194.6 176.8 200.35 178.45 201.85 179.65 203.65 183.4 209.25 182.1 217.75 L179.9 218.15 174.85 219.25 Q171.65 208.85 163.4 203.1 154.8 197.05 142.75 197.05 137.85 197.05 130.35 199.05 L127.25 199.85 Q122.35 201.05 120.75 201.05 118.6 198.7 115.85 196.3 111.2 192.3 106.45 191.7" fill="#540101" fill-rule="evenodd" stroke="none"/>
      <path d="M144.25 219.55 Q145.25 220.15 145.25 221.8 145.25 223.0 144.75 223.55 143.85 224.55 141.25 224.55 139.2 224.55 138.25 224.05 136.75 223.3 136.75 221.05 136.75 219.6 141.1 219.1 L141.25 219.1 141.75 219.05 Q143.5 219.05 144.25 219.55 M133.75 230.8 Q133.75 231.3 122.75 239.5 111.25 248.1 108.5 248.1 L103.75 247.6 Q100.65 246.65 100.65 243.85 100.65 242.1 102.35 239.15 103.5 237.25 104.75 235.75 108.0 231.65 111.75 229.85 116.55 227.55 125.25 227.55 L130.25 228.05 Q133.75 228.9 133.75 230.8" fill="#feb4b4" fill-rule="evenodd" stroke="none"/>
      <path d="M116.25 255.9 Q101.75 259.85 88.0 255.7 80.2 253.35 72.65 248.3 69.7 244.3 68.6 238.95 67.5 233.9 68.05 227.7 70.45 218.45 76.0 211.2 L75.65 212.65 Q74.65 216.45 74.65 220.3 74.65 239.0 88.65 248.1 99.05 254.8 116.25 255.9" fill="#980101" fill-rule="evenodd" stroke="none"/>
      <path d="M88.0 255.7 Q86.45 288.25 78.8 281.35 75.65 273.3 78.35 259.15 70.4 264.3 66.25 260.3 64.45 258.5 63.35 255.1 63.45 246.85 65.9 242.3 67.0 240.2 68.6 238.95 69.7 244.3 72.65 248.3 80.2 253.35 88.0 255.7" fill="#91ffdd" fill-opacity="0.6431373" fill-rule="evenodd" stroke="none"/>
      <path d="M241.7 218.15 L234.5 222.05 Q234.35 220.4 233.25 219.3 L231.2 217.85 Q220.25 217.45 212.0 220.75 211.0 215.55 213.4 211.85 215.45 208.65 231.3 210.35 L236.75 211.0 Q242.55 212.6 241.7 218.15" fill="#d9d9d9" fill-rule="evenodd" stroke="none"/>
      <path d="M174.65 178.3 L179.2 179.0 Q190.35 180.55 202.15 180.9 L211.35 180.95 222.55 180.5 235.7 179.85 Q246.85 181.05 248.05 182.75 251.0 185.05 252.85 187.6 255.1 190.7 255.65 194.1 256.9 202.65 247.0 213.15 L242.35 217.65 241.7 218.15 234.5 222.05 229.65 224.75 Q216.1 230.45 205.45 233.05 L202.4 233.75 Q190.95 236.2 180.25 237.0 162.85 238.3 147.55 235.15 L145.25 234.65 142.3 237.35 Q135.7 245.8 125.3 252.65 120.7 254.65 116.25 255.9 101.75 259.85 88.0 255.7 80.2 253.35 72.65 248.3 69.7 244.3 68.6 238.95 67.5 233.9 68.05 227.7 70.45 218.45 76.0 211.2 80.45 205.4 86.95 200.9 86.15 199.1 85.5 196.95 84.55 192.1 84.3 187.85 83.85 179.6 85.95 173.75 88.55 166.5 95.1 162.85 97.1 161.75 99.5 160.95 102.4 159.95 105.85 159.55 L110.05 159.2 Q117.55 158.75 128.1 163.75 138.75 168.85 150.05 172.4 L150.5 172.55 159.65 175.15 Q167.0 177.0 174.65 178.3 M202.05 228.2 Q202.55 229.8 202.6 231.65 L202.4 233.75 M177.75 187.25 L179.35 187.85 Q191.05 192.5 190.6 213.45 M256.25 150.4 Q244.25 150.85 234.85 159.1 M251.75 191.8 L252.05 191.6 Q253.95 190.3 252.85 187.6 M211.35 180.95 L211.8 185.25 212.35 190.4 Q213.0 193.8 215.1 195.8 219.8 197.7 224.45 198.45 238.4 200.55 251.75 191.8 M84.45 62.75 Q88.95 64.65 93.35 66.85 L97.15 68.75 Q105.25 72.8 113.3 77.35 122.15 82.35 131.0 88.05 156.85 83.85 149.1 92.15 L144.55 95.9 144.0 96.4 137.25 101.85 137.2 101.85 129.55 107.6 124.45 111.3 122.85 112.45 113.7 118.7 Q101.55 126.65 89.65 133.0 L86.05 134.85 79.4 138.1 68.4 142.85 64.75 144.35 63.75 144.7 60.7 145.9 22.0 160.45 Q19.45 161.2 17.3 161.2 L15.65 161.2 15.45 161.2 13.35 160.9 9.25 160.35 Q0.05 159.15 0.0 156.8 -0.15 154.45 3.55 153.0 7.05 151.6 10.2 151.85 L13.5 152.3 17.4 153.2 Q20.35 150.7 24.9 147.45 L24.9 144.35 Q24.75 131.95 25.5 119.3 25.7 115.45 26.05 111.65 27.4 94.45 30.25 76.85 31.75 67.5 33.75 58.15 L6.6 6.65 Q6.5 5.15 6.85 3.95 L7.45 2.6 Q8.1 1.45 9.55 0.8 10.8 0.15 12.6 0.0 L48.9 49.25 49.45 49.45 Q61.35 53.2 72.45 57.7 L79.6 60.6 84.45 62.75 M93.75 72.15 L93.35 66.85 M93.75 72.15 L93.9 82.7 Q93.55 89.45 92.25 91.9 M131.5 97.3 L134.25 94.9 137.25 92.15 131.0 88.05 M131.5 97.3 L129.65 98.9 123.8 103.75 121.35 105.7 116.9 109.0 114.4 110.8 110.8 113.3 Q100.0 120.85 88.25 127.3 L82.85 130.2 Q75.65 133.95 68.0 137.35 L64.0 139.15 55.15 142.8 52.05 143.95 46.85 145.9 46.5 146.05 Q36.05 149.8 25.15 152.9 L25.05 153.25 25.0 152.95 25.0 152.9 24.9 147.45 M137.25 92.15 L137.3 92.15 137.6 92.3 137.25 92.15 M45.4 53.3 L47.6 51.15 48.8 49.5 48.9 49.25 M72.4 63.7 Q71.95 73.15 69.75 83.75 67.75 92.9 65.3 99.0 L62.8 104.3 Q61.0 107.4 59.0 109.15 M38.25 57.05 L36.9 57.45 33.75 58.15 M72.4 63.7 L72.45 57.7 M45.4 53.3 L43.4 54.7 Q41.15 56.1 38.25 57.05 M25.15 152.9 L25.0 152.95 M12.45 158.35 L13.3 157.05 15.4 154.95 10.05 154.15 Q8.8 154.0 7.25 154.9 5.8 155.9 5.75 156.7 L10.25 157.95 12.45 158.35 12.0 159.35 12.05 159.7 Q12.05 160.4 13.15 160.85 L13.35 160.9 17.3 161.2 M15.4 154.95 L17.4 153.2 M83.6 158.6 Q76.0 161.1 73.45 173.95 72.1 180.9 72.15 190.8 M99.55 164.45 L99.6 167.45 Q100.0 170.8 101.85 171.85 L103.6 173.4 104.1 173.85 Q114.4 182.6 125.8 184.35 135.5 185.9 146.05 182.25 147.45 181.8 148.75 177.65 L148.95 176.95 149.3 175.55 150.05 172.4 M99.55 164.45 L99.5 160.95 M96.55 195.45 L95.9 193.6 Q94.75 191.2 92.25 189.35 L89.7 187.75 Q86.6 185.8 84.3 187.85 M86.95 200.9 Q89.85 198.85 93.2 197.1 L96.55 195.45 Q101.15 193.35 106.45 191.7 111.45 190.1 117.05 188.9 L122.6 187.9 Q130.55 186.75 137.8 188.1 143.6 188.95 146.3 195.45 135.4 196.9 127.25 199.85 116.2 203.85 110.2 210.6 M174.85 219.25 L179.9 218.15 182.1 217.75 Q183.4 209.25 179.65 203.65 178.45 201.85 176.8 200.35 162.95 194.6 146.3 195.45 M148.35 232.05 L145.25 234.65 M148.35 232.05 L147.55 235.15 M161.45 224.0 Q154.5 227.3 148.35 232.05 M161.45 224.0 Q167.15 221.3 173.45 219.6 L174.85 219.25 M231.3 210.35 L236.75 211.0 Q242.55 212.6 241.7 218.15 M212.0 220.75 Q220.25 217.45 231.2 217.85 L233.25 219.3 Q234.35 220.4 234.5 222.05 M231.3 210.35 Q215.45 208.65 213.4 211.85 211.0 215.55 212.0 220.75 209.75 221.65 207.7 222.85 204.0 228.05 204.75 231.4 204.95 232.3 205.45 233.05 M173.45 219.6 L175.0 219.75 179.95 220.25 Q190.3 221.45 199.65 224.55 201.3 226.15 202.05 228.2 M196.3 194.2 Q204.55 206.9 199.75 215.6 M152.55 187.35 Q158.3 182.6 168.5 185.05" fill="none" stroke="#000000" stroke-linecap="round" stroke-linejoin="round" stroke-opacity="0.6627451" stroke-width="1.0"/>
      <path d="M88.0 255.7 Q86.45 288.25 78.8 281.35 75.65 273.3 78.35 259.15 70.4 264.3 66.25 260.3 64.45 258.5 63.35 255.1 63.45 246.85 65.9 242.3 67.0 240.2 68.6 238.95" fill="none" stroke="#ffffff" stroke-linecap="round" stroke-linejoin="round" stroke-opacity="0.6627451" stroke-width="1.0"/>
    </g>
    <g id="sprite1" transform="matrix(1.0, 0.0, 0.0, 1.0, 0.0, 0.0)">
      <use height="257.85" transform="matrix(1.0, 0.0, 0.0, 1.0, 0.0, 0.0)" width="255.8" xlink:href="#shape1"/>
    </g>
    <g id="shape1" transform="matrix(1.0, 0.0, 0.0, 1.0, 0.0, 0.0)">
      <path d="M150.05 172.4 L150.5 172.55 159.65 175.15 156.75 175.05 149.3 175.55 150.05 172.4" fill="url(#gradient0)" fill-rule="evenodd" stroke="none"/>
      <path d="M33.75 58.15 L6.6 6.65 Q6.5 5.15 6.85 3.95 L7.45 2.6 Q8.1 1.45 9.55 0.8 10.8 0.15 12.6 0.0 L48.9 49.25 48.8 49.5 47.6 51.15 45.4 53.3 43.4 54.7 Q41.15 56.1 38.25 57.05 L36.9 57.45 33.75 58.15" fill="url(#gradient1)" fill-rule="evenodd" stroke="none"/>
      <path d="M48.9 49.25 L49.45 49.45 Q61.35 53.2 72.45 57.7 L79.6 60.6 84.45 62.75 Q88.95 64.65 93.35 66.85 L97.15 68.75 Q105.25 72.8 113.3 77.35 122.15 82.35 131.0 88.05 L137.25 92.15 134.25 94.9 131.5 97.3 129.65 98.9 123.8 103.75 121.35 105.7 116.9 109.0 114.4 110.8 110.8 113.3 Q100.0 120.85 88.25 127.3 L82.85 130.2 Q75.65 133.95 68.0 137.35 L64.0 139.15 55.15 142.8 52.05 143.95 46.85 145.9 46.5 146.05 Q36.05 149.8 25.15 152.9 L25.0 152.95 25.0 152.9 24.9 147.45 24.9 144.35 Q24.75 131.95 25.5 119.3 25.7 115.45 26.05 111.65 27.4 94.45 30.25 76.85 31.75 67.5 33.75 58.15 L36.9 57.45 38.25 57.05 Q41.15 56.1 43.4 54.7 L45.4 53.3 47.6 51.15 48.8 49.5 48.9 49.25" fill="url(#gradient2)" fill-rule="evenodd" stroke="none"/>
      <path d="M131.0 88.05 Q156.85 83.85 149.1 92.15 L144.55 95.9 144.0 96.4 137.25 101.85 137.2 101.85 129.55 107.6 124.45 111.3 122.85 112.45 113.7 118.7 Q101.55 126.65 89.65 133.0 L86.05 134.85 79.4 138.1 68.4 142.85 64.75 144.35 63.75 144.7 60.7 145.9 22.0 160.45 Q19.45 161.2 17.3 161.2 L13.35 160.9 13.15 160.85 Q12.05 160.4 12.05 159.7 L12.0 159.35 12.45 158.35 13.3 157.05 15.4 154.95 17.4 153.2 Q20.35 150.7 24.9 147.45 L25.0 152.9 25.0 152.95 25.05 153.25 25.15 152.9 Q36.05 149.8 46.5 146.05 L46.85 145.9 52.05 143.95 55.15 142.8 64.0 139.15 68.0 137.35 Q75.65 133.95 82.85 130.2 L88.25 127.3 Q100.0 120.85 110.8 113.3 L114.4 110.8 116.9 109.0 121.35 105.7 123.8 103.75 129.65 98.9 131.5 97.3 134.25 94.9 137.25 92.15 131.0 88.05 M137.25 92.15 L137.6 92.3 137.3 92.15 137.25 92.15" fill="url(#gradient3)" fill-rule="evenodd" stroke="none"/>
      <path d="M13.35 160.9 L9.25 160.35 Q0.05 159.15 0.0 156.8 -0.15 154.45 3.55 153.0 7.05 151.6 10.2 151.85 L13.5 152.3 17.4 153.2 15.4 154.95 10.05 154.15 Q8.8 154.0 7.25 154.9 5.8 155.9 5.75 156.7 L10.25 157.95 12.45 158.35 12.0 159.35 12.05 159.7 Q12.05 160.4 13.15 160.85 L13.35 160.9" fill="url(#gradient4)" fill-rule="evenodd" stroke="none"/>
      <path d="M159.65 175.15 Q167.0 177.0 174.65 178.3 L179.2 179.0 Q190.35 180.55 202.15 180.9 L211.35 180.95 212.35 190.4 Q213.0 193.8 215.1 195.8 219.8 197.7 224.45 198.45 238.4 200.55 251.75 191.8 L252.05 191.6 Q253.95 190.3 252.85 187.6 255.1 190.7 255.65 194.1 256.9 202.65 247.0 213.15 L242.35 217.65 241.7 218.15 Q242.55 212.6 236.75 211.0 L231.3 210.35 Q215.45 208.65 213.4 211.85 211.0 215.55 212.0 220.75 209.75 221.65 207.7 222.85 204.0 228.05 204.75 231.4 204.95 232.3 205.45 233.05 L202.4 233.75 202.6 231.65 Q202.55 229.8 202.05 228.2 201.3 226.15 199.65 224.55 190.3 221.45 179.95 220.25 L175.0 219.75 173.45 219.6 174.85 219.25 179.9 218.15 182.1 217.75 Q183.4 209.25 179.65 203.65 178.45 201.85 176.8 200.35 162.95 194.6 146.3 195.45 143.6 188.95 137.8 188.1 130.55 186.75 122.6 187.9 L117.05 188.9 Q111.45 190.1 106.45 191.7 101.15 193.35 96.55 195.45 L95.9 193.6 Q94.75 191.2 92.25 189.35 L89.7 187.75 Q86.6 185.8 84.3 187.85 83.85 179.6 85.95 173.75 88.55 166.5 95.1 162.85 97.1 161.75 99.5 160.95 L99.6 167.45 Q100.0 170.8 101.85 171.85 L103.6 173.4 104.1 173.85 Q114.4 182.6 125.8 184.35 135.5 185.9 146.05 182.25 147.45 181.8 148.75 177.65 L149.3 175.55 156.75 175.05 159.65 175.15" fill="url(#gradient5)" fill-rule="evenodd" stroke="none"/>
      <path d="M211.35 180.95 L222.55 180.5 235.7 179.85 Q246.85 181.05 248.05 182.75 251.0 185.05 252.85 187.6 253.95 190.3 252.05 191.6 L251.75 191.8 Q238.4 200.55 224.45 198.45 219.8 197.7 215.1 195.8 213.0 193.8 212.35 190.4 L211.35 180.95" fill="url(#gradient6)" fill-rule="evenodd" stroke="none"/>
      <path d="M99.5 160.95 Q102.4 159.95 105.85 159.55 L110.05 159.2 Q117.55 158.75 128.1 163.75 138.75 168.85 150.05 172.4 L149.3 175.55 148.75 177.65 Q147.45 181.8 146.05 182.25 135.5 185.9 125.8 184.35 114.4 182.6 104.1 173.85 L103.6 173.4 101.85 171.85 Q100.0 170.8 99.6 167.45 L99.5 160.95" fill="url(#gradient7)" fill-rule="evenodd" stroke="none"/>
      <path d="M86.95 200.9 Q86.15 199.1 85.5 196.95 84.55 192.1 84.3 187.85 86.6 185.8 89.7 187.75 L92.25 189.35 Q94.75 191.2 95.9 193.6 L96.55 195.45 93.2 197.1 Q89.85 198.85 86.95 200.9" fill="url(#gradient8)" fill-rule="evenodd" stroke="none"/>
      <path d="M241.7 218.15 L229.65 224.75 Q216.1 230.45 205.45 233.05 204.95 232.3 204.75 231.4 204.0 228.05 207.7 222.85 209.75 221.65 212.0 220.75 211.0 215.55 213.4 211.85 215.45 208.65 231.3 210.35 L236.75 211.0 Q242.55 212.6 241.7 218.15" fill="url(#gradient9)" fill-rule="evenodd" stroke="none"/>
      <path d="M202.4 233.75 Q190.95 236.2 180.25 237.0 162.85 238.3 147.55 235.15 L148.35 232.05 Q154.5 227.3 161.45 224.0 167.15 221.3 173.45 219.6 L175.0 219.75 179.95 220.25 Q190.3 221.45 199.65 224.55 201.3 226.15 202.05 228.2 202.55 229.8 202.6 231.65 L202.4 233.75" fill="url(#gradient10)" fill-rule="evenodd" stroke="none"/>
      <path d="M148.35 232.05 L145.25 234.65 142.3 237.35 Q135.7 245.8 125.3 252.65 120.7 254.65 116.25 255.9 101.75 259.85 88.0 255.7 80.2 253.35 72.65 248.3 69.7 244.3 68.6 238.95 67.5 233.9 68.05 227.7 70.45 218.45 76.0 211.2 80.45 205.4 86.95 200.9 89.85 198.85 93.2 197.1 L96.55 195.45 Q101.15 193.35 106.45 191.7 111.45 190.1 117.05 188.9 L122.6 187.9 Q130.55 186.75 137.8 188.1 143.6 188.95 146.3 195.45 162.95 194.6 176.8 200.35 178.45 201.85 179.65 203.65 183.4 209.25 182.1 217.75 L179.9 218.15 174.85 219.25 173.45 219.6 Q167.15 221.3 161.45 224.0 154.5 227.3 148.35 232.05" fill="url(#gradient11)" fill-rule="evenodd" stroke="none"/>
    </g>
    <linearGradient gradientTransform="matrix(0.0063, 0.0, 0.0, 0.0019, 154.45, 173.95)" gradientUnits="userSpaceOnUse" id="gradient0" spreadMethod="pad" x1="-819.2" x2="819.2">
      <stop offset="0.0" stop-color="#000000"/>
      <stop offset="1.0" stop-color="#ffffff"/>
    </linearGradient>
    <linearGradient gradientTransform="matrix(-0.0255, 0.0038, -0.0052, -0.035, 25.2, 28.35)" gradientUnits="userSpaceOnUse" id="gradient1" spreadMethod="pad" x1="-819.2" x2="819.2">
      <stop offset="0.0" stop-color="#000000"/>
      <stop offset="1.0" stop-color="#ffffff"/>
    </linearGradient>
    <linearGradient gradientTransform="matrix(0.0271, -0.0629, 0.0581, 0.025, 81.05, 101.1)" gradientUnits="userSpaceOnUse" id="gradient2" spreadMethod="pad" x1="-819.2" x2="819.2">
      <stop offset="0.0" stop-color="#000000"/>
      <stop offset="1.0" stop-color="#ffffff"/>
    </linearGradient>
    <linearGradient gradientTransform="matrix(0.0723, -0.0441, 0.0237, 0.0388, 81.45, 123.9)" gradientUnits="userSpaceOnUse" id="gradient3" spreadMethod="pad" x1="-819.2" x2="819.2">
      <stop offset="0.0" stop-color="#000000"/>
      <stop offset="1.0" stop-color="#ffffff"/>
    </linearGradient>
    <linearGradient gradientTransform="matrix(0.0468, 0.0, 0.0, 0.0056, 8.7, 156.35)" gradientUnits="userSpaceOnUse" id="gradient4" spreadMethod="pad" x1="-819.2" x2="819.2">
      <stop offset="0.0" stop-color="#000000"/>
      <stop offset="1.0" stop-color="#ffffff"/>
    </linearGradient>
    <radialGradient cx="0" cy="0" gradientTransform="matrix(0.1592, 0.0, 0.0, 0.1066, 170.0, 197.35)" gradientUnits="userSpaceOnUse" id="gradient5" r="819.2" spreadMethod="pad">
      <stop offset="0.0" stop-color="#000000"/>
      <stop offset="1.0" stop-color="#ffffff"/>
    </radialGradient>
    <linearGradient gradientTransform="matrix(0.0305, 0.0486, -0.0098, 0.0061, 232.3, 189.35)" gradientUnits="userSpaceOnUse" id="gradient6" spreadMethod="pad" x1="-819.2" x2="819.2">
      <stop offset="0.0" stop-color="#000000"/>
      <stop offset="1.0" stop-color="#ffffff"/>
    </linearGradient>
    <linearGradient gradientTransform="matrix(-0.009, 0.0537, -0.0154, -0.0026, 124.8, 172.05)" gradientUnits="userSpaceOnUse" id="gradient7" spreadMethod="pad" x1="-819.2" x2="819.2">
      <stop offset="0.0" stop-color="#000000"/>
      <stop offset="1.0" stop-color="#ffffff"/>
    </linearGradient>
    <linearGradient gradientTransform="matrix(0.1158, 0.0, 0.0, 0.0086, 90.4, 193.85)" gradientUnits="userSpaceOnUse" id="gradient8" spreadMethod="pad" x1="-819.2" x2="819.2">
      <stop offset="0.0" stop-color="#000000"/>
      <stop offset="1.0" stop-color="#ffffff"/>
    </linearGradient>
    <linearGradient gradientTransform="matrix(0.186, 0.0, 0.0, 0.0142, 223.2, 221.4)" gradientUnits="userSpaceOnUse" id="gradient9" spreadMethod="pad" x1="-819.2" x2="819.2">
      <stop offset="0.0" stop-color="#000000"/>
      <stop offset="1.0" stop-color="#ffffff"/>
    </linearGradient>
    <linearGradient gradientTransform="matrix(0.0626, 0.0, 0.0, 0.0109, 175.05, 228.5)" gradientUnits="userSpaceOnUse" id="gradient10" spreadMethod="pad" x1="-819.2" x2="819.2">
      <stop offset="0.0" stop-color="#000000"/>
      <stop offset="1.0" stop-color="#ffffff"/>
    </linearGradient>
    <linearGradient gradientTransform="matrix(-0.0904, 0.081, -0.0287, -0.032, 125.15, 222.6)" gradientUnits="userSpaceOnUse" id="gradient11" spreadMethod="pad" x1="-819.2" x2="819.2">
      <stop offset="0.0" stop-color="#000000"/>
      <stop offset="1.0" stop-color="#ffffff"/>
    </linearGradient>
  </defs>
</svg>
