<?xml version="1.0" encoding="UTF-8" standalone="no"?>
<svg xmlns:xlink="http://www.w3.org/1999/xlink" height="531.5px" width="460.6px" xmlns="http://www.w3.org/2000/svg">
  <g transform="matrix(1.0, 0.0, 0.0, 1.0, 193.65, 334.05)">
    <use height="13.55" transform="matrix(1.9412, 0.0, 0.0, 1.9412, 7.7413, -74.6028)" width="23.55" xlink:href="#sprite0"/>
  </g>
  <defs>
    <g id="sprite0" transform="matrix(1.0, 0.0, 0.0, 1.0, 11.75, 6.75)">
      <use height="13.55" transform="matrix(1.0, 0.0, 0.0, 1.0, -11.75, -6.75)" width="23.55" xlink:href="#shape0"/>
      <use height="12.4" transform="matrix(1.0, 0.0, 0.0, 1.0, -8.5, -6.25)" width="17.55" xlink:href="#sprite1"/>
    </g>
    <g id="shape0" transform="matrix(1.0, 0.0, 0.0, 1.0, 11.75, 6.75)">
      <path d="M1.6 -5.65 Q2.6 -6.6 3.6 -6.05 L4.2 -5.6 4.4 -5.4 4.55 -5.2 4.65 -5.1 3.75 -4.35 Q2.9 -3.35 2.9 -2.1 2.9 -1.2 3.9 -0.7 4.65 -0.3 5.4 -0.3 6.2 -0.3 6.9 -1.5 L7.0 -1.65 7.65 -0.4 6.55 0.55 Q5.7 1.65 5.7 3.1 L5.7 3.15 4.3 3.75 4.3 3.7 Q4.3 1.1 2.1 1.1 L1.9 1.1 Q1.25 1.4 0.5 2.45 -0.3 3.5 -0.3 4.5 L-0.25 4.9 -0.5 4.95 -0.5 4.9 -0.15 1.85 Q0.55 1.6 1.1 0.3 1.7 -1.05 1.7 -2.3 L1.2 -3.65 1.1 -3.8 1.6 -5.65 M-7.35 6.05 L-8.5 6.1 -8.1 5.05 -7.35 6.05 M-3.8 -1.1 L-3.05 1.0 -2.25 2.3 -2.25 2.45 -2.5 4.0 -2.3 5.1 -3.25 5.1 Q-2.9 4.55 -2.9 3.8 -2.9 2.45 -3.3 1.9 -3.9 1.1 -5.6 1.1 L-5.95 1.1 -4.0 -0.95 -3.8 -1.1" fill="#d5f7ff" fill-rule="evenodd" stroke="none"/>
      <path d="M1.1 -3.8 L1.2 -3.65 1.7 -2.3 Q1.7 -1.05 1.1 0.3 0.55 1.6 -0.15 1.85 L-0.1 1.4 0.7 -2.4 1.1 -3.8 M-0.25 4.9 L-0.3 4.5 Q-0.3 3.5 0.5 2.45 1.25 1.4 1.9 1.1 L2.1 1.1 Q4.3 1.1 4.3 3.7 L4.3 3.75 Q2.15 4.6 -0.25 4.9 M5.7 3.15 L5.7 3.1 Q5.7 1.65 6.55 0.55 L7.65 -0.4 8.4 1.6 6.4 2.8 5.7 3.15 M7.0 -1.65 L6.9 -1.5 Q6.2 -0.3 5.4 -0.3 4.65 -0.3 3.9 -0.7 2.9 -1.2 2.9 -2.1 2.9 -3.35 3.75 -4.35 L4.65 -5.1 5.6 -3.85 6.35 -2.8 7.0 -1.65 M-5.95 1.1 L-5.6 1.1 Q-3.9 1.1 -3.3 1.9 -2.9 2.45 -2.9 3.8 -2.9 4.55 -3.25 5.1 L-3.4 5.1 -7.85 4.45 -7.7 4.1 -7.1 2.95 -5.95 1.1" fill="#00ccff" fill-rule="evenodd" stroke="none"/>
      <path d="M1.6 -5.65 L1.1 -3.8 0.45 -4.5 1.55 -5.65 1.6 -5.65 M-0.15 1.85 L-0.5 4.9 -0.5 4.95 -0.25 4.9 Q0.0 5.55 1.0 5.8 L-0.4 5.8 -0.6 5.8 -2.05 5.85 -2.9 5.85 -4.2 5.9 -3.9 5.7 -3.25 5.1 -2.3 5.1 -2.5 4.0 -2.25 2.45 -2.25 2.3 -3.05 1.0 -3.8 -1.1 -3.15 -1.55 -2.25 -2.05 -0.75 -2.6 -1.75 0.1 -2.0 1.25 -2.0 1.3 Q-1.4 1.9 -0.5 1.9 L-0.15 1.85 M4.3 3.75 L5.7 3.15 Q5.7 4.05 6.3 4.7 6.85 5.3 7.6 5.3 L9.05 5.05 9.05 5.6 9.05 6.15 7.15 6.05 5.55 5.95 3.9 5.85 2.9 5.85 Q3.4 5.75 3.7 5.5 4.3 5.0 4.3 3.75 M-2.0 1.3 L-2.25 2.45 -2.0 1.3" fill="#c1dee6" fill-rule="evenodd" stroke="none"/>
      <path d="M-0.75 -2.6 L-0.05 -3.8 0.4 -4.4 0.45 -4.5 1.1 -3.8 0.7 -2.4 -0.1 1.4 -0.15 1.85 -0.5 1.9 Q-1.4 1.9 -2.0 1.3 L-2.0 1.25 -1.75 0.1 -0.75 -2.6 M8.4 1.6 L8.75 2.85 8.9 3.65 9.05 5.05 7.6 5.3 Q6.85 5.3 6.3 4.7 5.7 4.05 5.7 3.15 L6.4 2.8 8.4 1.6 M2.9 5.85 L2.55 5.85 1.6 5.8 1.0 5.8 Q0.0 5.55 -0.25 4.9 2.15 4.6 4.3 3.75 4.3 5.0 3.7 5.5 3.4 5.75 2.9 5.85 M-4.2 5.9 L-4.3 5.9 -5.0 5.9 -7.35 6.05 -8.1 5.05 -7.85 4.45 -3.4 5.1 -3.25 5.1 -3.9 5.7 -4.2 5.9" fill="#00a3d6" fill-rule="evenodd" stroke="none"/>
      <path d="M4.65 -5.1 L4.55 -5.2 4.4 -5.4 4.2 -5.6 3.6 -6.05 Q2.6 -6.6 1.6 -5.65 L1.55 -5.65 0.45 -4.5 0.4 -4.4 -0.05 -3.8 -0.75 -2.6 -1.75 0.1 -2.0 1.25 -2.0 1.3 -2.25 2.45 M7.65 -0.4 L7.0 -1.65 6.35 -2.8 5.6 -3.85 4.65 -5.1 M9.05 5.05 L8.9 3.65 8.75 2.85 8.4 1.6 7.65 -0.4 M9.05 5.05 L9.05 5.6 9.05 6.15 9.7 6.2 11.3 6.3 M2.9 5.85 L3.9 5.85 5.55 5.95 7.15 6.05 9.05 6.15 M1.0 5.8 L1.6 5.8 2.55 5.85 2.9 5.85 M1.0 5.8 L-0.4 5.8 -0.6 5.8 -2.05 5.85 -2.9 5.85 -4.2 5.9 -4.3 5.9 -5.0 5.9 -7.35 6.05 -8.5 6.1 -11.25 6.3 M-0.75 -2.6 L-2.25 -2.05 -3.15 -1.55 -3.8 -1.1 -4.0 -0.95 -5.95 1.1 -7.1 2.95 -7.7 4.1 -7.85 4.45 -8.1 5.05 -8.5 6.1" fill="none" stroke="#000000" stroke-linecap="round" stroke-linejoin="round" stroke-opacity="0.6627451" stroke-width="1.0"/>
    </g>
    <g id="sprite1" transform="matrix(1.0, 0.0, 0.0, 1.0, 8.5, 6.25)">
      <use height="12.4" transform="matrix(1.0, 0.0, 0.0, 1.0, -8.5, -6.25)" width="17.55" xlink:href="#shape1"/>
    </g>
    <g id="shape1" transform="matrix(1.0, 0.0, 0.0, 1.0, 8.5, 6.25)">
      <path d="M4.55 -5.2 L4.65 -5.1 5.6 -3.85 6.35 -2.8 7.0 -1.65 7.65 -0.4 8.4 1.6 8.75 2.85 8.9 3.65 9.05 5.05 9.05 5.6 9.05 6.15 7.15 6.05 5.55 5.95 3.9 5.85 2.9 5.85 2.55 5.85 1.6 5.8 1.0 5.8 -0.4 5.8 -0.6 5.8 -2.05 5.85 -2.9 5.85 -4.2 5.9 -4.3 5.9 -5.0 5.9 -7.35 6.05 -8.5 6.1 -8.1 5.05 -7.85 4.45 -7.7 4.1 -7.1 2.95 -5.95 1.1 -4.0 -0.95 -3.8 -1.1 -3.15 -1.55 -2.25 -2.05 -0.75 -2.6 -0.05 -3.8 0.4 -4.4 0.45 -4.5 1.55 -5.65 1.6 -5.65 Q2.6 -6.6 3.6 -6.05 L4.2 -5.6 4.4 -5.4 4.55 -5.2" fill="url(#gradient0)" fill-rule="evenodd" stroke="none"/>
    </g>
    <linearGradient gradientTransform="matrix(-0.011, -0.011, 0.0054, -0.0054, 4.75, 3.65)" gradientUnits="userSpaceOnUse" id="gradient0" spreadMethod="pad" x1="-819.2" x2="819.2">
      <stop offset="0.0" stop-color="#000000"/>
      <stop offset="1.0" stop-color="#ffffff"/>
    </linearGradient>
  </defs>
</svg>
