<?xml version="1.0" encoding="UTF-8" standalone="no"?>
<svg xmlns:xlink="http://www.w3.org/1999/xlink" height="531.5px" width="460.6px" xmlns="http://www.w3.org/2000/svg">
  <g transform="matrix(1.0, 0.0, 0.0, 1.0, 193.65, 334.05)">
    <use height="84.5" transform="matrix(1.2893, 0.0223, -0.0223, 1.2893, 22.5997, -106.1337)" width="71.95" xlink:href="#sprite0"/>
    <use height="60.1" transform="matrix(1.0, 0.0, 0.0, 1.0, -50.9, -67.45)" width="178.1" xlink:href="#shape2"/>
  </g>
  <defs>
    <g id="sprite0" transform="matrix(1.0, 0.0, 0.0, 1.0, 0.75, 0.75)">
      <use height="84.5" transform="matrix(1.0, 0.0, 0.0, 1.0, -0.75, -0.75)" width="71.95" xlink:href="#shape0"/>
      <use height="83.0" transform="matrix(1.0, 0.0, 0.0, 1.0, 0.0, 0.0)" width="70.45" xlink:href="#sprite1"/>
    </g>
    <g id="shape0" transform="matrix(1.0, 0.0, 0.0, 1.0, 0.75, 0.75)">
      <path d="M52.45 66.1 L58.25 66.5 Q61.55 44.45 62.6 23.15 L62.65 21.9 59.55 21.15 Q59.4 17.8 59.1 16.75 58.1 13.25 54.9 11.35 L58.55 10.85 Q66.25 9.1 69.35 7.5 L70.45 80.15 58.1 82.4 55.85 75.2 55.7 82.65 45.45 83.0 Q32.85 82.95 20.5 80.55 L25.7 79.25 39.25 76.05 Q43.8 75.05 48.15 71.0 50.6 68.7 52.45 66.1 M64.1 48.4 L64.1 51.25 64.2 52.7 64.5 58.15 64.55 58.65 65.15 63.55 65.2 63.8 65.3 64.6 65.45 65.65 65.75 65.55 Q65.6 63.6 65.6 60.45 L65.5 58.75 65.5 58.3 65.45 57.65 Q65.2 55.0 65.2 50.45 L64.75 47.55 64.3 47.45 64.15 47.5 64.1 48.4" fill="#4d3813" fill-rule="evenodd" stroke="none"/>
      <path d="M59.55 21.15 L62.65 21.9 62.6 23.15 Q61.55 44.45 58.25 66.5 L52.45 66.1 Q42.55 65.2 32.85 63.5 L31.95 63.35 31.75 63.4 30.8 63.25 32.2 51.55 32.35 50.3 32.55 48.7 36.2 18.3 Q49.05 18.85 59.55 21.15 M60.35 29.6 L60.65 23.15 59.6 22.9 Q49.55 20.35 37.5 19.85 L32.95 60.65 32.8 61.75 Q43.1 63.9 53.4 64.6 L56.85 64.8 Q59.4 47.15 60.35 29.6" fill="#f70000" fill-rule="evenodd" stroke="none"/>
      <path d="M69.35 7.5 Q66.25 9.1 58.55 10.85 L54.9 11.35 43.7 12.1 48.6 11.25 Q58.45 9.1 58.45 6.85 58.45 5.9 56.8 5.0 L53.75 3.45 55.25 3.7 57.45 4.05 61.5 4.75 64.25 5.3 Q67.05 5.95 69.35 7.5" fill="#d6bf68" fill-rule="evenodd" stroke="none"/>
      <path d="M32.35 50.3 L32.2 51.55 32.05 51.5 32.05 50.3 32.35 50.3 M31.95 63.35 L32.85 63.5 32.75 63.95 Q32.75 63.6 31.95 63.35 M52.8 3.35 L53.1 0.9 55.4 1.25 56.35 1.4 57.45 1.55 57.45 4.05 55.25 3.7 53.75 3.45 52.8 3.35 M50.0 2.95 L47.7 2.6 47.55 0.0 49.6 0.0 49.8 1.45 49.95 2.5 50.0 2.95" fill="#332713" fill-rule="evenodd" stroke="none"/>
      <path d="M53.75 3.45 L56.8 5.0 Q58.45 5.9 58.45 6.85 58.45 9.1 48.6 11.25 L43.7 12.1 41.55 12.15 31.8 11.65 28.3 11.2 28.3 10.0 28.35 9.75 28.95 9.8 39.2 10.25 50.5 9.8 50.85 9.75 Q57.3 9.0 57.25 7.15 57.35 4.05 43.8 4.05 L36.85 4.45 33.65 4.9 32.15 5.25 Q31.3 5.45 30.75 5.75 L30.4 6.05 30.3 6.5 30.5 6.9 Q31.05 7.65 35.6 8.0 L40.25 8.15 47.2 7.6 48.2 7.45 48.15 7.35 47.95 7.2 46.2 7.15 44.95 7.2 40.55 7.15 37.15 6.9 34.35 6.7 34.35 6.3 34.85 6.2 34.95 6.2 37.0 5.95 43.8 5.55 Q55.65 5.55 55.75 7.15 55.7 8.75 39.2 8.75 L27.4 8.05 27.35 8.05 26.5 7.9 Q22.75 7.25 22.6 6.2 22.75 6.0 25.05 5.55 L29.5 5.05 33.2 4.5 33.15 4.15 32.75 4.05 31.95 3.8 30.75 3.7 28.35 3.6 24.75 4.1 Q20.9 4.85 21.1 6.2 21.0 7.65 25.65 9.05 18.25 7.3 18.25 6.25 18.25 3.4 30.75 2.85 36.4 2.6 46.75 2.5 L47.7 2.6 50.0 2.95 50.15 2.95 52.8 3.35 53.75 3.45 M26.2 9.25 L27.75 9.65 27.55 9.65 27.95 9.7 26.15 9.55 26.2 9.25" fill="#e0d283" fill-rule="evenodd" stroke="none"/>
      <path d="M25.65 9.05 Q21.0 7.65 21.1 6.2 20.9 4.85 24.75 4.1 L28.35 3.6 30.75 3.7 31.95 3.8 32.75 4.05 33.15 4.15 33.2 4.5 29.5 5.05 25.05 5.55 Q22.75 6.0 22.6 6.2 22.75 7.25 26.5 7.9 L27.35 8.05 27.4 8.05 39.2 8.75 Q55.7 8.75 55.75 7.15 55.65 5.55 43.8 5.55 L37.0 5.95 34.95 6.2 34.85 6.2 34.35 6.3 34.35 6.7 37.15 6.9 40.55 7.15 44.95 7.2 46.2 7.15 47.95 7.2 48.15 7.35 48.2 7.45 47.2 7.6 40.25 8.15 35.6 8.0 Q31.05 7.65 30.5 6.9 L30.3 6.5 30.4 6.05 30.75 5.75 Q31.3 5.45 32.15 5.25 L33.65 4.9 36.85 4.45 43.8 4.05 Q57.35 4.05 57.25 7.15 57.3 9.0 50.85 9.75 L50.5 9.8 39.2 10.25 28.95 9.8 28.35 9.75 28.3 9.75 27.95 9.7 27.75 9.65 26.2 9.25 25.65 9.05" fill="#b0962d" fill-rule="evenodd" stroke="none"/>
      <path d="M52.45 66.1 Q50.6 68.7 48.15 71.0 43.8 75.05 39.25 76.05 L25.7 79.25 20.5 80.55 14.05 79.1 Q14.05 63.2 14.3 53.6 L14.3 52.95 13.65 48.7 11.5 45.3 4.4 35.1 2.85 30.45 2.85 28.45 5.65 28.45 Q5.65 27.25 4.85 25.65 L5.45 25.65 Q7.25 26.8 10.6 28.05 L14.85 29.4 17.05 29.65 Q18.35 29.65 18.85 29.25 19.25 28.95 19.25 28.05 L19.05 26.85 Q18.8 26.35 18.3 26.35 L14.9 26.5 Q14.95 16.8 15.25 11.65 L20.05 11.65 Q20.7 12.3 22.35 12.65 L24.25 12.85 Q25.6 12.85 25.95 11.2 L26.15 9.55 27.95 9.7 28.3 10.0 28.3 11.2 31.8 11.65 41.55 12.15 43.7 12.1 54.9 11.35 Q58.1 13.25 59.1 16.75 59.4 17.8 59.55 21.15 49.05 18.85 36.2 18.3 L32.55 48.7 32.15 48.65 32.05 46.9 32.05 46.7 32.1 46.7 32.1 46.65 31.7 35.55 31.25 32.6 30.8 29.75 30.75 29.75 30.55 29.8 30.5 30.2 30.35 31.45 30.35 33.0 30.3 35.3 30.6 47.4 30.65 47.4 30.65 48.35 30.75 49.05 30.8 49.8 31.0 50.85 31.35 53.15 31.45 53.15 31.65 53.15 31.9 51.5 32.05 51.5 32.2 51.55 30.8 63.25 31.75 63.4 31.35 63.6 31.35 64.15 31.45 64.3 31.5 64.35 31.65 65.05 31.65 65.35 31.7 66.25 31.9 69.15 32.2 73.4 32.4 71.05 32.45 68.6 Q32.55 67.7 32.9 67.2 L32.85 64.3 32.75 64.25 32.75 63.95 32.85 63.5 Q42.55 65.2 52.45 66.1 M27.75 9.65 L27.95 9.7 27.55 9.65 27.75 9.65 M20.3 18.6 L20.3 18.35 20.35 18.35 20.2 17.85 20.1 17.85 20.0 17.85 19.85 19.25 19.75 20.45 19.7 21.1 19.7 22.0 19.95 23.7 20.15 23.7 20.4 23.0 20.55 21.1 20.3 18.6 M20.3 45.15 L19.8 52.0 19.8 52.05 19.8 52.7 19.7 54.6 19.7 58.35 19.75 63.0 19.8 63.4 19.95 63.4 20.2 63.4 20.65 59.6 20.9 58.0 21.3 48.1 21.3 46.9 21.3 45.65 20.95 39.15 20.75 39.2 20.3 45.15" fill="#5c4821" fill-rule="evenodd" stroke="none"/>
      <path d="M59.25 24.6 L59.25 23.7 58.85 23.65 58.65 23.8 Q57.1 23.45 56.35 23.0 L55.45 23.65 58.2 24.3 Q57.9 24.8 57.75 25.7 L56.85 25.7 56.85 26.7 Q57.25 27.6 57.25 28.2 L57.55 28.2 57.7 27.95 57.85 28.5 Q57.95 29.1 57.55 29.4 L55.95 30.45 Q55.45 30.75 55.45 31.25 55.45 31.75 55.85 31.45 56.45 30.85 57.8 30.4 L58.65 29.95 Q59.25 29.75 59.25 29.0 59.25 28.0 58.65 28.0 L58.55 28.05 58.45 27.3 58.5 26.1 59.25 24.6 M52.35 23.9 L52.1 23.9 51.8 25.35 51.7 25.35 51.25 25.05 Q50.85 25.25 50.85 25.75 L51.25 27.2 51.25 27.35 51.35 28.4 52.65 29.55 52.65 32.4 Q51.7 32.25 50.65 32.8 L51.05 31.55 50.95 31.2 50.75 31.1 49.85 31.1 49.65 32.65 49.45 33.5 49.25 33.75 49.25 33.9 49.25 34.0 49.4 34.35 49.65 34.4 50.0 34.15 50.05 34.05 50.2 33.8 50.25 33.8 51.0 33.65 51.05 33.25 51.0 32.85 52.05 32.7 53.2 32.9 Q53.65 32.9 53.65 32.05 L53.65 31.8 54.05 31.0 54.25 30.2 54.1 29.4 53.05 29.35 53.05 29.55 52.95 29.3 52.75 29.3 51.95 28.3 Q51.65 27.9 51.65 27.45 L51.65 27.4 51.65 27.25 51.65 27.2 51.9 26.3 52.05 25.9 52.2 25.55 52.25 25.45 52.45 24.4 52.35 23.9 M46.45 22.45 L46.85 22.35 47.3 22.3 47.25 22.4 46.75 23.75 Q46.45 24.55 46.45 25.1 46.45 25.6 47.05 26.05 L47.45 25.8 47.45 25.4 47.55 25.4 47.65 25.25 47.5 24.95 Q47.65 24.0 48.05 23.4 L48.65 22.2 Q48.65 21.7 45.85 21.7 L45.85 22.1 46.0 22.35 46.45 22.45 M42.05 23.45 L42.2 23.3 42.25 22.9 Q42.25 22.6 41.65 22.05 41.25 22.2 41.25 22.7 L41.3 23.1 Q41.45 23.4 42.05 23.45 M32.95 60.65 L37.5 19.85 Q49.55 20.35 59.6 22.9 L60.65 23.15 60.35 29.6 59.65 31.05 58.05 33.9 57.65 33.85 57.45 34.35 57.55 34.75 Q54.4 39.75 49.55 45.5 L43.45 52.05 42.9 51.9 42.85 52.05 43.15 52.4 40.25 55.05 Q40.1 54.3 39.25 54.15 L39.2 52.75 39.95 51.35 40.4 50.65 41.2 50.5 42.05 50.95 43.05 51.4 43.45 51.25 43.35 51.1 Q41.45 49.6 39.95 46.7 L39.75 46.3 39.45 46.3 39.65 47.4 39.65 48.45 40.05 49.15 40.55 49.65 40.45 49.8 40.05 49.65 38.7 51.25 Q38.25 52.05 38.25 53.05 38.25 53.65 38.5 54.0 38.55 54.65 38.9 55.15 L38.85 55.3 38.85 55.45 36.8 56.45 35.05 57.5 35.15 57.85 35.45 57.85 Q36.5 56.8 38.2 56.25 L38.7 56.1 Q38.75 56.15 38.95 56.2 L37.65 57.25 32.95 60.65 M50.65 34.45 L52.5 35.25 54.25 36.05 54.3 36.0 Q54.8 36.75 55.65 36.85 L54.85 36.0 54.45 35.7 Q55.35 33.9 57.05 33.15 58.65 32.45 58.65 31.9 L58.6 31.6 58.55 31.7 Q56.75 32.25 56.15 32.55 54.3 33.5 54.2 34.75 L52.85 34.8 52.1 34.55 51.35 34.3 50.65 34.45 M44.65 34.1 L44.75 34.15 44.65 34.2 44.65 34.1 M44.3 33.85 L44.25 33.7 44.3 33.8 44.3 33.85 M41.4 27.25 L41.05 27.05 40.95 26.95 40.05 25.8 39.85 24.9 39.8 23.0 39.75 22.8 Q39.5 21.7 38.65 21.25 L38.45 21.35 38.55 21.45 38.45 21.5 38.75 21.75 Q39.1 22.2 39.25 22.95 L39.25 23.15 38.85 25.7 Q38.85 26.85 39.7 27.4 L42.75 29.4 42.8 29.35 43.4 30.85 Q43.05 30.6 42.7 30.5 L42.65 30.85 Q42.65 31.3 43.45 32.6 L43.9 33.3 42.65 32.4 Q40.85 31.4 40.85 32.8 L40.95 33.3 42.25 33.45 Q42.75 33.45 42.45 33.35 42.45 32.9 42.6 32.75 L43.6 33.75 42.85 34.65 42.45 35.55 Q42.45 36.05 42.6 36.0 L42.95 35.8 42.65 36.1 42.85 36.2 44.35 34.9 Q45.45 34.25 48.45 33.85 L45.6 33.95 Q43.3 29.5 43.05 27.9 L43.25 27.85 45.4 27.95 45.45 27.7 Q43.45 26.25 42.45 26.7 L42.45 27.9 41.4 27.25 M45.85 30.05 L45.75 30.1 45.65 30.5 46.25 31.25 46.65 31.0 46.55 30.1 45.85 30.05 M46.95 25.4 L47.0 25.4 46.95 25.5 46.85 25.5 46.85 25.15 46.95 25.4 M37.95 27.5 L37.7 27.5 37.65 28.25 38.05 29.3 Q38.5 30.05 39.05 30.05 L39.55 29.65 39.85 29.1 39.8 28.8 39.75 28.9 Q38.4 28.85 38.15 28.35 38.15 27.75 37.95 27.5 M38.05 32.5 L38.05 33.35 38.35 33.85 38.9 34.5 38.3 35.65 38.25 36.7 38.25 37.5 Q38.45 38.25 39.45 38.25 L39.65 38.25 Q39.25 38.6 38.9 39.95 38.45 41.55 38.45 42.65 L38.55 43.8 Q37.8 43.7 37.35 44.25 36.85 44.85 36.85 45.65 36.85 46.15 37.25 45.85 37.6 45.75 38.35 45.05 L38.75 44.65 38.85 44.8 39.0 44.7 39.05 44.4 39.05 44.35 39.55 44.4 39.65 44.25 Q38.8 40.2 41.05 37.65 L39.3 36.95 Q39.05 36.85 39.05 36.25 L39.45 34.8 39.85 33.55 Q39.85 33.05 39.3 32.65 L38.05 32.5 M35.95 55.6 L36.05 55.45 35.95 54.7 35.05 54.8 Q35.15 55.25 35.95 55.6 M37.95 47.8 Q37.75 47.45 36.65 47.5 L36.65 49.5 36.85 49.7 Q36.75 51.85 35.85 52.35 L34.85 53.1 34.95 53.45 35.25 53.45 36.95 52.1 Q37.45 51.55 37.45 50.55 L37.4 50.25 37.55 50.4 37.8 49.4 38.05 48.5 37.95 47.8 M40.9 50.0 L40.75 50.15 40.85 49.95 40.9 50.0" fill="#ffffff" fill-rule="evenodd" stroke="none"/>
      <path d="M42.05 23.45 Q41.45 23.4 41.3 23.1 L41.25 22.7 Q41.25 22.2 41.65 22.05 42.25 22.6 42.25 22.9 L42.2 23.3 42.05 23.45 M46.45 22.45 L46.0 22.35 45.85 22.1 45.85 21.7 Q48.65 21.7 48.65 22.2 L48.05 23.4 Q47.65 24.0 47.5 24.95 L47.65 25.25 47.55 25.4 47.45 25.4 47.45 25.8 47.05 26.05 Q46.45 25.6 46.45 25.1 46.45 24.55 46.75 23.75 L47.25 22.4 47.3 22.3 46.85 22.35 46.45 22.45 M52.35 23.9 L52.45 24.4 52.25 25.45 52.2 25.55 52.05 25.9 51.9 26.3 51.65 27.2 51.65 27.25 51.65 27.4 51.65 27.45 Q51.65 27.9 51.95 28.3 L52.75 29.3 52.95 29.3 53.05 29.55 53.05 29.35 54.1 29.4 54.25 30.2 54.05 31.0 53.65 31.8 53.65 32.05 Q53.65 32.9 53.2 32.9 L52.05 32.7 51.0 32.85 51.05 33.25 51.0 33.65 50.25 33.8 50.2 33.8 50.05 34.05 50.0 34.15 49.65 34.4 49.4 34.35 49.25 34.0 49.25 33.9 49.25 33.75 49.45 33.5 49.65 32.65 49.85 31.1 50.75 31.1 50.95 31.2 51.05 31.55 50.65 32.8 Q51.7 32.25 52.65 32.4 L52.65 29.55 51.35 28.4 51.25 27.35 51.25 27.2 50.85 25.75 Q50.85 25.25 51.25 25.05 L51.7 25.35 51.8 25.35 52.1 23.9 52.35 23.9 M59.25 24.6 L58.5 26.1 58.45 27.3 58.55 28.05 58.65 28.0 Q59.25 28.0 59.25 29.0 59.25 29.75 58.65 29.95 L57.8 30.4 Q56.45 30.85 55.85 31.45 55.45 31.75 55.45 31.25 55.45 30.75 55.95 30.45 L57.55 29.4 Q57.95 29.1 57.85 28.5 L57.7 27.95 57.55 28.2 57.25 28.2 Q57.25 27.6 56.85 26.7 L56.85 25.7 57.75 25.7 Q57.9 24.8 58.2 24.3 L55.45 23.65 56.35 23.0 Q57.1 23.45 58.65 23.8 L58.85 23.65 59.25 23.7 59.25 24.6 M38.95 56.2 Q38.75 56.15 38.7 56.1 L38.2 56.25 Q36.5 56.8 35.45 57.85 L35.15 57.85 35.05 57.5 36.8 56.45 38.85 55.45 38.85 55.3 38.9 55.15 Q38.55 54.65 38.5 54.0 38.25 53.65 38.25 53.05 38.25 52.05 38.7 51.25 L40.05 49.65 40.45 49.8 40.55 49.65 40.05 49.15 39.65 48.45 39.65 47.4 39.45 46.3 39.75 46.3 39.95 46.7 Q41.45 49.6 43.35 51.1 L43.45 51.25 43.05 51.4 42.05 50.95 41.2 50.5 40.4 50.65 39.95 51.35 39.2 52.75 39.25 54.15 Q40.1 54.3 40.25 55.05 L40.25 55.3 Q40.25 56.25 39.65 56.25 L38.95 56.2 M43.15 52.4 L42.85 52.05 42.9 51.9 43.45 52.05 44.95 52.5 Q45.65 52.75 45.65 53.35 45.65 54.05 44.55 55.35 L43.15 57.2 43.0 57.8 43.05 57.85 43.0 57.9 42.75 58.95 Q42.5 60.1 42.05 60.65 L41.65 60.0 Q41.65 59.55 42.15 58.35 L40.05 59.7 Q37.65 61.25 36.65 61.25 L35.25 61.05 Q35.5 60.65 37.0 60.2 L39.35 59.3 Q39.35 58.35 39.65 58.05 40.3 57.25 42.5 57.5 L43.05 56.25 44.45 53.4 Q44.45 53.25 43.75 52.8 L43.15 52.4 M57.55 34.75 L57.45 34.35 57.65 33.85 58.05 33.9 58.15 33.9 58.25 34.65 58.15 34.8 57.55 34.8 57.55 34.75 M50.65 34.45 L51.35 34.3 52.1 34.55 52.85 34.8 54.2 34.75 Q54.3 33.5 56.15 32.55 56.75 32.25 58.55 31.7 L58.6 31.6 58.65 31.9 Q58.65 32.45 57.05 33.15 55.35 33.9 54.45 35.7 L54.85 36.0 55.65 36.85 Q54.8 36.75 54.3 36.0 L54.25 36.05 52.5 35.25 50.65 34.45 M58.95 36.7 L59.05 37.35 58.4 39.55 58.15 39.6 58.05 38.1 58.25 36.65 58.95 36.7 M46.95 25.4 L46.85 25.15 46.85 25.5 46.95 25.5 47.0 25.4 46.95 25.4 M45.85 30.05 L46.55 30.1 46.65 31.0 46.25 31.25 45.65 30.5 45.75 30.1 45.85 30.05 M41.4 27.25 L42.45 27.9 42.45 26.7 Q43.45 26.25 45.45 27.7 L45.4 27.95 43.25 27.85 43.05 27.9 Q43.3 29.5 45.6 33.95 L48.45 33.85 Q45.45 34.25 44.35 34.9 L42.85 36.2 42.65 36.1 42.95 35.8 42.6 36.0 Q42.45 36.05 42.45 35.55 L42.85 34.65 43.6 33.75 42.6 32.75 Q42.45 32.9 42.45 33.35 42.75 33.45 42.25 33.45 L40.95 33.3 40.85 32.8 Q40.85 31.4 42.65 32.4 L43.9 33.3 43.45 32.6 Q42.65 31.3 42.65 30.85 L42.7 30.5 Q43.05 30.6 43.4 30.85 L42.8 29.35 42.75 29.4 39.7 27.4 Q38.85 26.85 38.85 25.7 L39.25 23.15 39.25 22.95 Q39.1 22.2 38.75 21.75 L38.45 21.5 38.55 21.45 38.45 21.35 38.65 21.25 Q39.5 21.7 39.75 22.8 L39.8 23.0 39.85 24.9 40.05 25.8 40.95 26.95 41.05 27.05 41.4 27.25 M44.3 33.85 L44.3 33.8 44.25 33.7 44.3 33.85 M44.65 34.1 L44.65 34.2 44.75 34.15 44.65 34.1 M56.7 39.3 Q57.85 38.8 58.15 39.7 L58.25 40.85 Q58.55 41.85 57.7 42.1 L58.15 42.1 58.45 43.1 58.65 44.05 56.95 47.2 56.75 47.2 56.65 45.85 56.75 44.95 56.65 44.85 57.05 42.3 56.65 39.75 56.7 39.3 M55.2 48.4 L55.85 47.25 56.45 47.45 56.0 48.0 55.85 49.15 56.75 50.65 Q57.65 52.2 57.65 52.7 57.65 53.7 57.25 54.25 L56.95 54.2 56.95 53.2 57.05 52.25 Q57.05 51.55 56.75 51.3 L55.25 49.55 Q55.25 49.8 54.85 50.05 L54.5 50.0 53.85 50.55 Q52.3 51.85 51.05 51.85 L50.05 51.65 53.1 49.65 55.15 48.3 55.2 48.4 M37.95 27.5 Q38.15 27.75 38.15 28.35 38.4 28.85 39.75 28.9 L39.8 28.8 39.85 29.1 39.55 29.65 39.05 30.05 Q38.5 30.05 38.05 29.3 L37.65 28.25 37.7 27.5 37.95 27.5 M31.35 53.15 L31.55 53.05 31.45 53.15 31.35 53.15 M32.05 46.65 L32.1 46.65 32.1 46.7 32.05 46.65 M38.05 32.5 L39.3 32.65 Q39.85 33.05 39.85 33.55 L39.45 34.8 39.05 36.25 Q39.05 36.85 39.3 36.95 L41.05 37.65 Q38.8 40.2 39.65 44.25 L39.55 44.4 39.05 44.35 39.05 44.4 39.0 44.7 38.85 44.8 38.75 44.65 38.35 45.05 Q37.6 45.75 37.25 45.85 36.85 46.15 36.85 45.65 36.85 44.85 37.35 44.25 37.8 43.7 38.55 43.8 L38.45 42.65 Q38.45 41.55 38.9 39.95 39.25 38.6 39.65 38.25 L39.45 38.25 Q38.45 38.25 38.25 37.5 L38.25 36.7 38.3 35.65 38.9 34.5 38.35 33.85 38.05 33.35 38.05 32.5 M37.95 47.8 L38.05 48.5 37.8 49.4 37.55 50.4 37.4 50.25 37.45 50.55 Q37.45 51.55 36.95 52.1 L35.25 53.45 34.95 53.45 34.85 53.1 35.85 52.35 Q36.75 51.85 36.85 49.7 L36.65 49.5 36.65 47.5 Q37.75 47.45 37.95 47.8 M35.95 55.6 Q35.15 55.25 35.05 54.8 L35.95 54.7 36.05 55.45 35.95 55.6 M52.05 53.6 L51.75 54.8 51.45 55.9 52.15 56.85 Q52.85 57.75 52.85 58.2 L52.5 59.6 51.95 61.2 51.75 61.2 51.65 60.0 Q51.65 59.25 52.05 58.05 L51.05 56.8 49.65 56.85 Q49.7 56.4 50.6 55.2 L50.65 55.05 Q50.1 55.65 49.25 55.65 L48.05 55.45 50.35 53.85 Q51.15 53.2 51.95 53.3 L52.0 53.25 52.05 53.6 M55.65 53.25 L54.85 54.5 54.85 54.6 55.05 54.65 54.95 54.8 55.55 55.55 Q56.25 56.2 56.25 57.0 L56.05 59.05 55.75 60.5 55.85 61.4 55.3 62.35 Q54.75 63.1 54.8 63.5 L54.65 63.6 54.35 63.55 54.25 63.2 Q54.25 62.9 54.8 62.3 L55.35 61.4 55.1 60.7 54.9 60.1 Q54.5 59.7 54.55 59.15 L54.85 57.6 54.35 55.95 54.05 55.3 53.85 54.85 53.9 54.75 53.85 54.5 Q53.85 54.15 54.25 53.65 L54.85 53.05 55.2 53.1 55.65 53.25 M40.9 50.0 L40.85 49.95 40.75 50.15 40.9 50.0 M44.05 59.85 Q44.05 58.75 45.15 59.1 L45.35 59.15 45.4 59.45 45.2 60.05 44.85 60.45 44.05 59.85 M46.7 57.7 L46.7 57.55 46.65 57.55 46.7 57.7 M46.25 56.55 L46.3 56.5 Q46.75 57.15 47.6 57.35 48.25 57.55 48.25 58.15 L48.05 58.45 47.95 58.55 48.2 59.2 48.55 60.4 49.2 61.15 49.25 61.05 49.25 61.35 48.75 62.0 Q49.9 62.2 50.2 62.65 L47.45 62.75 Q45.0 62.65 44.25 61.65 L47.1 61.75 47.15 61.7 47.65 60.9 46.25 57.85 46.25 56.55 M48.65 61.4 L48.6 61.4 48.6 61.45 48.65 61.4" fill="#000000" fill-rule="evenodd" stroke="none"/>
      <path d="M32.95 60.65 L37.65 57.25 38.95 56.2 39.65 56.25 Q40.25 56.25 40.25 55.3 L40.25 55.05 43.15 52.4 43.75 52.8 Q44.45 53.25 44.45 53.4 L43.05 56.25 42.5 57.5 Q40.3 57.25 39.65 58.05 39.35 58.35 39.35 59.3 L37.0 60.2 Q35.5 60.65 35.25 61.05 L36.65 61.25 Q37.65 61.25 40.05 59.7 L42.15 58.35 Q41.65 59.55 41.65 60.0 L42.05 60.65 Q42.5 60.1 42.75 58.95 L43.0 57.9 43.05 57.85 43.0 57.8 43.15 57.2 44.55 55.35 Q45.65 54.05 45.65 53.35 45.65 52.75 44.95 52.5 L43.45 52.05 49.55 45.5 Q54.4 39.75 57.55 34.75 L57.55 34.8 58.15 34.8 58.25 34.65 58.15 33.9 58.05 33.9 59.65 31.05 60.35 29.6 Q59.4 47.15 56.85 64.8 L53.4 64.6 Q43.1 63.9 32.8 61.75 L32.95 60.65 M58.95 36.7 L58.25 36.65 58.05 38.1 58.15 39.6 58.4 39.55 59.05 37.35 58.95 36.7 M55.2 48.4 L55.15 48.3 53.1 49.65 50.05 51.65 51.05 51.85 Q52.3 51.85 53.85 50.55 L54.5 50.0 54.85 50.05 Q55.25 49.8 55.25 49.55 L56.75 51.3 Q57.05 51.55 57.05 52.25 L56.95 53.2 56.95 54.2 57.25 54.25 Q57.65 53.7 57.65 52.7 57.65 52.2 56.75 50.65 L55.85 49.15 56.0 48.0 56.45 47.45 55.85 47.25 55.2 48.4 M56.7 39.3 L56.65 39.75 57.05 42.3 56.65 44.85 56.75 44.95 56.65 45.85 56.75 47.2 56.95 47.2 58.65 44.05 58.45 43.1 58.15 42.1 57.7 42.1 Q58.55 41.85 58.25 40.85 L58.15 39.7 Q57.85 38.8 56.7 39.3 M55.65 53.25 L55.2 53.1 54.85 53.05 54.25 53.65 Q53.85 54.15 53.85 54.5 L53.9 54.75 53.85 54.85 54.05 55.3 54.35 55.95 54.85 57.6 54.55 59.15 Q54.5 59.7 54.9 60.1 L55.1 60.7 55.35 61.4 54.8 62.3 Q54.25 62.9 54.25 63.2 L54.35 63.55 54.65 63.6 54.8 63.5 Q54.75 63.1 55.3 62.35 L55.85 61.4 55.75 60.5 56.05 59.05 56.25 57.0 Q56.25 56.2 55.55 55.55 L54.95 54.8 55.05 54.65 54.85 54.6 54.85 54.5 55.65 53.25 M52.05 53.6 L52.0 53.25 51.95 53.3 Q51.15 53.2 50.35 53.85 L48.05 55.45 49.25 55.65 Q50.1 55.65 50.65 55.05 L50.6 55.2 Q49.7 56.4 49.65 56.85 L51.05 56.8 52.05 58.05 Q51.65 59.25 51.65 60.0 L51.75 61.2 51.95 61.2 52.5 59.6 52.85 58.2 Q52.85 57.75 52.15 56.85 L51.45 55.9 51.75 54.8 52.05 53.6 M48.65 61.4 L48.6 61.45 48.6 61.4 48.65 61.4 M46.25 56.55 L46.25 57.85 47.65 60.9 47.15 61.7 47.1 61.75 44.25 61.65 Q45.0 62.65 47.45 62.75 L50.2 62.65 Q49.9 62.2 48.75 62.0 L49.25 61.35 49.25 61.05 49.2 61.15 48.55 60.4 48.2 59.2 47.95 58.55 48.05 58.45 48.25 58.15 Q48.25 57.55 47.6 57.35 46.75 57.15 46.3 56.5 L46.25 56.55 M46.7 57.7 L46.65 57.55 46.7 57.55 46.7 57.7 M44.05 59.85 L44.85 60.45 45.2 60.05 45.4 59.45 45.35 59.15 45.15 59.1 Q44.05 58.75 44.05 59.85" fill="#e6e6e6" fill-rule="evenodd" stroke="none"/>
      <path d="M31.75 63.4 L31.95 63.35 Q32.75 63.6 32.75 63.95 L32.75 64.25 32.85 64.3 32.9 67.2 Q32.55 67.7 32.45 68.6 L32.4 71.05 32.2 73.4 31.9 69.15 31.7 66.25 31.65 65.35 31.65 65.05 31.5 64.35 31.45 64.3 31.35 64.15 31.35 63.6 31.75 63.4 M64.1 48.4 L64.15 47.5 64.3 47.45 64.75 47.55 65.2 50.45 Q65.2 55.0 65.45 57.65 L65.5 58.3 65.5 58.75 65.6 60.45 Q65.6 63.6 65.75 65.55 L65.45 65.65 65.3 64.6 65.2 63.8 65.15 63.55 64.55 58.65 64.5 58.15 64.2 52.7 64.1 51.25 64.1 48.4 M20.3 18.6 L20.55 21.1 20.4 23.0 20.15 23.7 19.95 23.7 19.7 22.0 19.7 21.1 19.75 20.45 19.85 19.25 20.0 17.85 20.1 17.85 20.2 17.85 20.35 18.35 20.3 18.35 20.3 18.6 M30.6 47.4 L30.3 35.3 30.35 33.0 30.35 31.45 30.5 30.2 30.55 29.8 30.75 29.75 30.8 29.75 31.25 32.6 31.7 35.55 32.1 46.65 32.05 46.65 32.05 46.7 32.05 46.9 32.15 48.65 32.05 50.3 32.05 51.5 31.9 51.5 31.65 53.15 31.55 53.0 31.55 53.05 31.35 53.15 31.0 50.85 30.8 49.8 30.75 49.05 30.65 48.35 30.65 47.4 30.65 47.3 30.6 47.4 M20.3 45.15 L20.75 39.2 20.95 39.15 21.3 45.65 21.3 46.9 21.3 48.1 20.9 58.0 20.65 59.6 20.2 63.4 19.95 63.4 19.8 63.4 19.75 63.0 19.7 58.35 19.7 54.6 19.8 52.7 19.8 52.05 19.8 52.0 20.3 45.15" fill="#3d2b0b" fill-rule="evenodd" stroke="none"/>
      <path d="M25.65 9.05 L26.2 9.25 26.15 9.55 Q23.8 9.45 23.85 10.45 L20.55 9.65 13.25 7.35 11.45 6.65 Q12.0 5.55 13.3 5.15 L13.65 5.05 Q27.5 0.7 46.75 2.5 36.4 2.6 30.75 2.85 18.25 3.4 18.25 6.25 18.25 7.3 25.65 9.05" fill="#f5eab2" fill-rule="evenodd" stroke="none"/>
      <path d="M11.45 6.65 L13.25 7.35 20.55 9.65 23.85 10.45 Q23.8 9.45 26.15 9.55 L25.95 11.2 Q25.6 12.85 24.25 12.85 L22.35 12.65 Q20.7 12.3 20.05 11.65 L15.25 11.65 Q14.95 16.8 14.9 26.5 L18.3 26.35 Q18.8 26.35 19.05 26.85 L19.25 28.05 Q19.25 28.95 18.85 29.25 18.35 29.65 17.05 29.65 L14.85 29.4 10.6 28.05 Q7.25 26.8 5.45 25.65 L4.85 25.65 Q5.65 27.25 5.65 28.45 L2.85 28.45 2.85 30.45 4.4 35.1 0.2 29.05 0.15 26.3 2.7 26.3 0.0 23.0 0.3 20.75 11.35 25.95 11.45 6.65 M11.5 45.3 L13.65 48.7 14.3 52.95 14.3 53.6 Q14.05 63.2 14.05 79.1 L11.35 78.4 11.5 45.3 M19.05 26.85 L15.45 27.75 11.35 25.95 15.45 27.75 19.05 26.85" fill="#82642e" fill-rule="evenodd" stroke="none"/>
      <path d="M28.3 9.75 L28.35 9.75 28.3 10.0 28.3 9.75" fill="#222b36" fill-rule="evenodd" stroke="none"/>
      <path d="M32.55 48.7 L32.35 50.3 32.05 50.3 32.15 48.65 32.55 48.7" fill="#5c4521" fill-rule="evenodd" stroke="none"/>
      <path d="M59.55 21.15 L62.65 21.9 62.6 23.15 Q61.55 44.45 58.25 66.5 L52.45 66.1 Q42.55 65.2 32.85 63.5 L31.95 63.35 M20.5 80.55 Q32.85 82.95 45.45 83.0 L55.7 82.65 55.85 75.2 58.1 82.4 70.45 80.15 69.35 7.5 Q66.25 9.1 58.55 10.85 L54.9 11.35 43.7 12.1 41.55 12.15 31.8 11.65 28.3 11.2 28.3 10.0 27.95 9.7 26.15 9.55 Q23.8 9.45 23.85 10.45 L20.55 9.65 13.25 7.35 11.45 6.65 Q12.0 5.55 13.3 5.15 L13.65 5.05 Q27.5 0.7 46.75 2.5 L47.7 2.6 50.0 2.95 49.95 2.5 49.8 1.45 49.6 0.0 47.55 0.0 47.7 2.6 M59.55 21.15 Q49.05 18.85 36.2 18.3 L32.55 48.7 32.35 50.3 32.2 51.55 30.8 63.25 31.75 63.4 M57.45 4.05 L61.5 4.75 64.25 5.3 Q67.05 5.95 69.35 7.5 M52.8 3.35 L53.1 0.9 55.4 1.25 56.35 1.4 57.45 1.55 57.45 4.05 55.25 3.7 53.75 3.45 52.8 3.35 50.15 2.95 50.0 2.95 M4.4 35.1 L11.5 45.3 13.65 48.7 14.3 52.95 M14.05 79.1 L20.5 80.55 M4.4 35.1 L0.2 29.05 0.15 26.3 2.7 26.3 0.0 23.0 0.3 20.75 11.35 25.95 11.45 6.65 M11.35 25.95 L15.45 27.75 19.05 26.85 M14.05 79.1 L11.35 78.4 11.5 45.3" fill="none" stroke="#000000" stroke-linecap="round" stroke-linejoin="round" stroke-opacity="0.6627451" stroke-width="1.5"/>
    </g>
    <g id="sprite1" transform="matrix(1.0, 0.0, 0.0, 1.0, 0.0, 0.0)">
      <use height="83.0" transform="matrix(1.0, 0.0, 0.0, 1.0, 0.0, 0.0)" width="70.45" xlink:href="#shape1"/>
    </g>
    <g id="shape1" transform="matrix(1.0, 0.0, 0.0, 1.0, 0.0, 0.0)">
      <path d="M42.85 36.2 L42.65 36.1 42.7 36.05 42.85 36.2" fill="url(#gradient0)" fill-rule="evenodd" stroke="none"/>
      <path d="M55.15 48.3 L55.25 48.35 55.2 48.4 55.15 48.3" fill="url(#gradient1)" fill-rule="evenodd" stroke="none"/>
      <path d="M20.95 39.2 L20.75 39.2 20.95 39.15 20.95 39.2" fill="url(#gradient2)" fill-rule="evenodd" stroke="none"/>
      <path d="M32.05 46.65 L32.1 46.65 32.1 46.7 32.05 46.65" fill="url(#gradient3)" fill-rule="evenodd" stroke="none"/>
      <path d="M27.95 9.7 L27.55 9.65 27.75 9.65 27.95 9.7" fill="url(#gradient4)" fill-rule="evenodd" stroke="none"/>
      <path d="M28.3 9.75 L28.35 9.75 28.3 10.0 28.3 9.75" fill="url(#gradient5)" fill-rule="evenodd" stroke="none"/>
      <path d="M52.8 3.35 L53.1 0.9 55.4 1.25 56.35 1.4 57.45 1.55 57.45 4.05 55.25 3.7 53.75 3.45 52.8 3.35" fill="url(#gradient6)" fill-rule="evenodd" stroke="none"/>
      <path d="M47.7 2.6 L47.55 0.0 49.6 0.0 49.8 1.45 49.95 2.5 50.0 2.95 47.7 2.6" fill="url(#gradient7)" fill-rule="evenodd" stroke="none"/>
      <path d="M62.6 23.15 L62.65 21.9 59.55 21.15 Q49.05 18.85 36.2 18.3 L30.8 63.25 31.75 63.4 31.95 63.35 32.85 63.5 Q42.55 65.2 52.45 66.1 L58.25 66.5 Q61.55 44.45 62.6 23.15 M69.35 7.5 L70.45 80.15 58.1 82.4 55.85 75.2 55.7 82.65 45.45 83.0 Q32.85 82.95 20.5 80.55 L14.05 79.1 11.35 78.4 11.5 45.3 0.2 29.05 0.15 26.3 2.7 26.3 0.0 23.0 0.3 20.75 11.35 25.95 11.45 6.65 13.25 7.35 20.55 9.65 23.85 10.45 Q23.8 9.45 26.15 9.55 L27.95 9.7 28.3 10.0 28.3 11.2 31.8 11.65 41.55 12.15 43.7 12.1 54.9 11.35 58.55 10.85 Q66.25 9.1 69.35 7.5 M20.95 39.2 L20.95 39.15 20.75 39.2 20.95 39.2 M30.65 47.3 L30.6 47.4 30.65 47.4 30.65 47.3 M32.1 46.7 L32.1 46.65 32.05 46.65 32.05 46.7 32.1 46.7" fill="url(#gradient8)" fill-rule="evenodd" stroke="none"/>
      <path d="M62.6 23.15 Q61.55 44.45 58.25 66.5 L52.45 66.1 Q42.55 65.2 32.85 63.5 L31.95 63.35 31.75 63.4 30.8 63.25 36.2 18.3 Q49.05 18.85 59.55 21.15 L62.65 21.9 62.6 23.15 M42.85 36.2 L42.7 36.05 42.65 36.1 42.85 36.2 M55.15 48.3 L55.2 48.4 55.25 48.35 55.15 48.3" fill="url(#gradient9)" fill-rule="evenodd" stroke="none"/>
      <path d="M57.45 4.05 L61.5 4.75 64.25 5.3 Q67.05 5.95 69.35 7.5 66.25 9.1 58.55 10.85 L54.9 11.35 43.7 12.1 41.55 12.15 31.8 11.65 28.3 11.2 28.3 10.0 28.35 9.75 28.3 9.75 27.95 9.7 26.15 9.55 Q23.8 9.45 23.85 10.45 L20.55 9.65 13.25 7.35 11.45 6.65 Q12.0 5.55 13.3 5.15 L13.65 5.05 Q27.5 0.7 46.75 2.5 L47.7 2.6 50.0 2.95 50.15 2.95 52.8 3.35 53.75 3.45 55.25 3.7 57.45 4.05 M27.95 9.7 L27.75 9.65 27.55 9.65 27.95 9.7" fill="url(#gradient10)" fill-rule="evenodd" stroke="none"/>
    </g>
    <linearGradient gradientTransform="matrix(1.0E-4, 0.0, 0.0, 1.0E-4, 42.75, 36.1)" gradientUnits="userSpaceOnUse" id="gradient0" spreadMethod="pad" x1="-819.2" x2="819.2">
      <stop offset="0.0" stop-color="#000000"/>
      <stop offset="1.0" stop-color="#ffffff"/>
    </linearGradient>
    <linearGradient gradientTransform="matrix(1.0E-4, 0.0, 0.0, 1.0E-4, 55.2, 48.35)" gradientUnits="userSpaceOnUse" id="gradient1" spreadMethod="pad" x1="-819.2" x2="819.2">
      <stop offset="0.0" stop-color="#000000"/>
      <stop offset="1.0" stop-color="#ffffff"/>
    </linearGradient>
    <linearGradient gradientTransform="matrix(1.0E-4, 0.0, 0.0, 0.0, 20.85, 39.15)" gradientUnits="userSpaceOnUse" id="gradient2" spreadMethod="pad" x1="-819.2" x2="819.2">
      <stop offset="0.0" stop-color="#000000"/>
      <stop offset="1.0" stop-color="#ffffff"/>
    </linearGradient>
    <linearGradient gradientTransform="matrix(0.0, 0.0, 0.0, 0.0, 32.05, 46.65)" gradientUnits="userSpaceOnUse" id="gradient3" spreadMethod="pad" x1="-819.2" x2="819.2">
      <stop offset="0.0" stop-color="#000000"/>
      <stop offset="1.0" stop-color="#ffffff"/>
    </linearGradient>
    <linearGradient gradientTransform="matrix(2.0E-4, 0.0, 0.0, 0.0, 27.75, 9.65)" gradientUnits="userSpaceOnUse" id="gradient4" spreadMethod="pad" x1="-819.2" x2="819.2">
      <stop offset="0.0" stop-color="#000000"/>
      <stop offset="1.0" stop-color="#ffffff"/>
    </linearGradient>
    <linearGradient gradientTransform="matrix(0.0, 0.0, 0.0, 2.0E-4, 28.3, 9.85)" gradientUnits="userSpaceOnUse" id="gradient5" spreadMethod="pad" x1="-819.2" x2="819.2">
      <stop offset="0.0" stop-color="#000000"/>
      <stop offset="1.0" stop-color="#ffffff"/>
    </linearGradient>
    <linearGradient gradientTransform="matrix(-0.0064, -0.0037, 0.001, -0.0017, 55.15, 2.45)" gradientUnits="userSpaceOnUse" id="gradient6" spreadMethod="pad" x1="-819.2" x2="819.2">
      <stop offset="0.0" stop-color="#000000"/>
      <stop offset="1.0" stop-color="#ffffff"/>
    </linearGradient>
    <linearGradient gradientTransform="matrix(-0.0058, -0.0015, 5.0E-4, -0.0017, 48.75, 1.55)" gradientUnits="userSpaceOnUse" id="gradient7" spreadMethod="pad" x1="-819.2" x2="819.2">
      <stop offset="0.0" stop-color="#000000"/>
      <stop offset="1.0" stop-color="#ffffff"/>
    </linearGradient>
    <linearGradient gradientTransform="matrix(-0.1125, -0.0301, 0.0121, -0.045, 40.35, 47.9)" gradientUnits="userSpaceOnUse" id="gradient8" spreadMethod="pad" x1="-819.2" x2="819.2">
      <stop offset="0.0" stop-color="#000000"/>
      <stop offset="1.0" stop-color="#ffffff"/>
    </linearGradient>
    <linearGradient gradientTransform="matrix(2.0E-4, -0.0489, 0.0294, 1.0E-4, 48.0, 42.65)" gradientUnits="userSpaceOnUse" id="gradient9" spreadMethod="pad" x1="-819.2" x2="819.2">
      <stop offset="0.0" stop-color="#000000"/>
      <stop offset="1.0" stop-color="#ffffff"/>
    </linearGradient>
    <linearGradient gradientTransform="matrix(-0.0673, -0.008, 7.0E-4, -0.0062, 40.4, 7.05)" gradientUnits="userSpaceOnUse" id="gradient10" spreadMethod="pad" x1="-819.2" x2="819.2">
      <stop offset="0.0" stop-color="#000000"/>
      <stop offset="1.0" stop-color="#ffffff"/>
    </linearGradient>
    <g id="shape2" transform="matrix(1.0, 0.0, 0.0, 1.0, 59.8, 69.5)">
      <path d="M-3.6 -50.9 L-1.75 -51.2 Q8.55 -52.95 11.1 -55.05 13.75 -57.2 13.9 -58.5 L13.95 -59.15 13.9 -60.65 Q13.9 -61.15 14.2 -61.45 L14.5 -61.6 14.85 -61.25 14.9 -61.25 15.25 -60.65 16.7 -58.1 Q17.15 -56.25 17.65 -55.25 18.7 -53.6 21.8 -53.55 L29.1 -54.75 Q32.0 -55.0 38.2 -56.5 43.65 -57.8 49.05 -58.2 L49.25 -57.6 Q50.35 -54.15 50.3 -52.3 50.2 -49.15 43.75 -46.7 37.3 -44.15 37.2 -41.25 37.2 -40.75 37.35 -40.25 L37.4 -40.25 37.65 -40.15 38.05 -40.15 Q39.1 -40.15 42.65 -41.2 L44.9 -40.4 45.15 -40.3 45.6 -40.3 Q47.0 -40.3 52.5 -42.05 L53.1 -42.25 53.2 -42.05 53.35 -41.6 Q53.95 -40.7 54.0 -39.2 L53.9 -38.5 Q53.9 -37.0 52.9 -36.45 L50.8 -35.7 47.6 -34.55 42.75 -33.1 Q39.7 -32.2 39.75 -31.3 L39.75 -31.0 Q39.55 -30.5 39.6 -29.7 39.6 -29.1 40.4 -28.4 41.1 -27.85 41.85 -27.75 43.75 -27.05 47.6 -27.05 L49.2 -27.05 49.7 -26.9 50.6 -26.65 50.6 -26.3 50.3 -24.75 Q49.55 -21.5 47.85 -18.65 L47.25 -18.5 45.85 -18.9 42.85 -19.65 41.1 -20.05 38.75 -20.15 38.25 -20.3 35.45 -21.05 33.8 -21.45 30.8 -21.0 Q29.3 -21.1 28.45 -20.45 L16.9 -18.1 11.8 -17.0 Q1.85 -14.8 -8.25 -14.5 L-9.95 -14.5 -12.6 -14.4 Q-21.9 -14.05 -35.5 -16.9 -46.75 -19.2 -55.75 -25.05 L-59.25 -27.4 -59.45 -29.3 Q-59.5 -34.2 -57.65 -39.5 -56.0 -44.6 -53.1 -48.7 -50.45 -52.5 -47.2 -55.85 -44.8 -58.45 -42.75 -59.95 L-41.05 -59.0 -40.35 -58.5 -38.7 -57.2 -34.85 -55.0 Q-32.75 -53.3 -27.95 -51.9 -23.15 -50.55 -19.2 -49.75 -15.35 -48.9 -5.75 -50.5 L-3.6 -50.9" fill="#999999" fill-rule="evenodd" stroke="none"/>
      <path d="M-40.85 -61.3 L-39.7 -60.15 -38.95 -59.65 -37.2 -58.3 -33.05 -55.95 Q-30.75 -54.05 -25.65 -52.6 L-16.25 -50.35 -3.6 -50.9 -5.75 -50.5 Q-15.35 -48.9 -19.2 -49.75 -23.15 -50.55 -27.95 -51.9 -32.75 -53.3 -34.85 -55.0 L-38.7 -57.2 -40.35 -58.5 -41.05 -59.0 -42.75 -59.95 -40.85 -61.3 M14.5 -61.6 L15.55 -62.25 18.2 -63.15 19.6 -63.35 19.95 -63.35 20.45 -62.85 20.5 -62.85 20.85 -62.2 22.4 -59.5 Q22.9 -57.5 23.5 -56.45 24.65 -54.65 28.0 -54.65 L29.1 -54.75 21.8 -53.55 Q18.7 -53.6 17.65 -55.25 17.15 -56.25 16.7 -58.1 L15.25 -60.65 14.9 -61.25 14.85 -61.25 14.5 -61.6 M49.05 -58.2 L50.0 -58.3 53.3 -58.45 Q54.25 -58.4 55.1 -56.55 55.7 -55.0 55.7 -54.05 L55.65 -53.25 Q55.6 -51.05 53.25 -49.4 51.55 -48.25 48.7 -47.3 L43.85 -45.55 Q41.7 -44.45 41.7 -42.75 41.7 -41.8 42.3 -41.35 42.4 -41.3 42.65 -41.2 39.1 -40.15 38.05 -40.15 L37.65 -40.15 37.4 -40.25 37.35 -40.25 Q37.2 -40.75 37.2 -41.25 37.3 -44.15 43.75 -46.7 50.2 -49.15 50.3 -52.3 50.35 -54.15 49.25 -57.6 L49.05 -58.2 M53.1 -42.25 L58.1 -43.8 59.9 -44.2 59.95 -44.05 60.1 -44.1 60.9 -43.75 61.25 -43.25 61.85 -42.35 62.05 -41.9 Q62.65 -40.95 62.7 -39.35 L62.6 -38.6 Q62.6 -36.95 61.55 -36.35 L59.25 -35.5 55.9 -34.2 50.65 -32.7 Q47.35 -31.7 47.4 -30.75 L47.4 -30.45 Q47.2 -29.9 47.25 -29.05 47.2 -28.4 48.15 -27.65 L49.2 -27.05 47.6 -27.05 Q43.75 -27.05 41.85 -27.75 41.1 -27.85 40.4 -28.4 39.6 -29.1 39.6 -29.7 39.55 -30.5 39.75 -31.0 L39.75 -31.3 Q39.7 -32.2 42.75 -33.1 L47.6 -34.55 50.8 -35.7 52.9 -36.45 Q53.9 -37.0 53.9 -38.5 L54.0 -39.2 Q53.95 -40.7 53.35 -41.6 L53.2 -42.05 53.1 -42.25 M50.6 -26.65 L55.85 -26.15 59.05 -26.3 59.15 -26.05 59.15 -25.4 58.8 -23.75 Q58.0 -20.25 56.25 -17.2 L54.95 -16.9 52.35 -17.35 51.0 -17.65 47.25 -18.5 47.85 -18.65 Q49.55 -21.5 50.3 -24.75 L50.6 -26.3 50.6 -26.65 M38.75 -20.15 L36.65 -19.95 35.3 -19.0 22.9 -16.4 17.35 -15.2 Q6.65 -12.8 -4.3 -12.4 L-6.1 -12.4 -8.85 -12.25 Q-18.9 -11.8 -33.6 -14.85 -45.7 -17.3 -55.45 -23.55 L-59.05 -26.1 -59.15 -26.9 -59.25 -27.4 -55.75 -25.05 Q-46.75 -19.2 -35.5 -16.9 -21.9 -14.05 -12.6 -14.4 L-9.95 -14.5 -8.25 -14.5 Q1.85 -14.8 11.8 -17.0 L16.9 -18.1 28.45 -20.45 Q29.3 -21.1 30.8 -21.0 L33.8 -21.45 35.45 -21.05 38.25 -20.3 38.75 -20.15" fill="#bdbdbd" fill-rule="evenodd" stroke="none"/>
      <path d="M-40.85 -61.3 Q-41.6 -62.25 -41.5 -63.35 L-41.1 -63.5 -38.35 -62.1 -37.85 -61.8 -31.85 -58.45 Q-21.8 -53.2 -14.75 -53.25 -7.6 -53.3 -1.9 -54.6 L5.55 -56.5 Q7.55 -56.85 8.75 -57.35 9.8 -57.85 10.25 -58.5 L10.5 -60.75 10.5 -60.8 Q10.8 -64.0 16.6 -65.85 19.65 -66.9 21.15 -66.45 L21.2 -66.4 Q22.2 -66.05 22.35 -64.9 L24.7 -61.0 Q26.7 -57.4 27.8 -57.4 28.9 -57.45 36.2 -59.05 42.45 -60.5 47.65 -60.95 L48.0 -60.95 49.4 -61.1 Q55.25 -61.5 57.15 -59.2 58.65 -57.35 58.7 -51.6 58.7 -50.75 58.2 -49.95 L57.1 -48.75 56.75 -48.45 Q55.55 -47.5 53.85 -46.7 L50.3 -45.6 47.0 -44.3 46.95 -44.25 52.4 -45.35 Q54.95 -46.3 57.45 -46.85 L57.65 -46.8 58.8 -47.1 58.85 -47.1 59.35 -47.25 60.05 -47.2 61.15 -47.2 61.4 -47.05 61.75 -46.85 62.35 -46.25 63.15 -45.2 63.35 -44.8 63.4 -44.7 63.55 -44.3 64.0 -43.05 65.15 -40.35 65.2 -38.45 Q65.25 -36.4 64.9 -35.85 64.1 -34.4 60.6 -32.95 58.85 -32.2 55.3 -31.15 51.05 -29.9 49.4 -29.85 L49.45 -29.45 Q49.9 -28.7 52.05 -28.7 L56.05 -28.5 56.6 -28.55 60.5 -28.2 Q61.3 -27.75 61.4 -27.05 L61.45 -25.4 Q61.35 -22.0 60.05 -18.75 L59.6 -17.2 Q59.1 -14.45 55.4 -14.4 L50.8 -15.05 46.4 -16.1 39.3 -17.8 35.0 -16.5 Q30.5 -15.1 28.4 -14.65 L22.9 -13.75 17.3 -12.9 -4.25 -9.45 -8.0 -9.4 -29.35 -10.6 Q-41.0 -12.4 -48.25 -17.25 L-54.35 -20.7 -55.5 -21.35 Q-58.0 -23.05 -59.0 -24.35 -59.75 -25.15 -59.8 -25.85 L-59.7 -26.55 -59.65 -26.6 -59.05 -26.1 -55.45 -23.55 Q-45.7 -17.3 -33.6 -14.85 -18.9 -11.8 -8.85 -12.25 L-6.1 -12.4 -4.3 -12.4 Q6.65 -12.8 17.35 -15.2 L22.9 -16.4 35.3 -19.0 36.65 -19.95 38.75 -20.15 41.1 -20.05 42.85 -19.65 45.85 -18.9 47.25 -18.5 51.0 -17.65 52.35 -17.35 54.95 -16.9 56.25 -17.2 Q58.0 -20.25 58.8 -23.75 L59.15 -25.4 59.15 -26.05 59.05 -26.3 55.85 -26.15 50.6 -26.65 49.7 -26.9 49.2 -27.05 48.15 -27.65 Q47.2 -28.4 47.25 -29.05 47.2 -29.9 47.4 -30.45 L47.4 -30.75 Q47.35 -31.7 50.65 -32.7 L55.9 -34.2 59.25 -35.5 61.55 -36.35 Q62.6 -36.95 62.6 -38.6 L62.7 -39.35 Q62.65 -40.95 62.05 -41.9 L61.85 -42.35 61.25 -43.25 60.9 -43.75 60.1 -44.1 59.95 -44.05 59.9 -44.2 58.1 -43.8 53.1 -42.25 52.5 -42.05 Q47.0 -40.3 45.6 -40.3 L45.15 -40.3 44.9 -40.4 42.65 -41.2 Q42.4 -41.3 42.3 -41.35 41.7 -41.8 41.7 -42.75 41.7 -44.45 43.85 -45.55 L48.7 -47.3 Q51.55 -48.25 53.25 -49.4 55.6 -51.05 55.65 -53.25 L55.7 -54.05 Q55.7 -55.0 55.1 -56.55 54.25 -58.4 53.3 -58.45 L50.0 -58.3 49.05 -58.2 Q43.65 -57.8 38.2 -56.5 32.0 -55.0 29.1 -54.75 L28.0 -54.65 Q24.65 -54.65 23.5 -56.45 22.9 -57.5 22.4 -59.5 L20.85 -62.2 20.5 -62.85 20.45 -62.85 19.95 -63.35 19.6 -63.35 18.2 -63.15 15.55 -62.25 14.5 -61.6 14.2 -61.45 Q13.9 -61.15 13.9 -60.65 L13.95 -59.15 13.9 -58.5 Q13.75 -57.2 11.1 -55.05 8.55 -52.95 -1.75 -51.2 L-3.6 -50.9 -16.25 -50.35 -25.65 -52.6 Q-30.75 -54.05 -33.05 -55.95 L-37.2 -58.3 -38.95 -59.65 -39.7 -60.15 -40.85 -61.3" fill="#000000" fill-rule="evenodd" stroke="none"/>
      <path d="M99.5 -69.35 L102.65 -68.6 104.5 -67.95 108.05 -66.4 109.25 -65.85 Q116.55 -62.55 117.85 -60.4 118.5 -59.45 118.25 -58.25 L117.55 -55.9 116.25 -51.65 Q115.7 -50.55 114.75 -50.25 L113.95 -50.1 114.0 -49.75 114.0 -48.35 113.75 -46.2 112.85 -43.35 Q112.3 -41.35 111.4 -40.3 112.95 -39.75 113.65 -38.35 114.15 -37.4 114.15 -35.65 L113.75 -32.95 113.15 -29.95 Q111.95 -26.05 110.3 -25.2 L106.85 -24.9 105.8 -24.9 99.1 -25.65 91.65 -28.0 Q88.25 -29.15 86.95 -30.45 86.0 -31.45 86.0 -33.05 L87.25 -39.1 Q87.5 -40.45 88.1 -42.1 L88.15 -42.25 87.1 -42.65 Q83.95 -43.8 83.25 -45.15 82.95 -45.75 82.95 -47.95 L83.0 -50.15 Q83.4 -52.45 84.6 -54.4 85.3 -55.45 86.1 -55.85 86.75 -56.3 87.5 -56.55 L91.55 -55.9 94.4 -55.05 Q90.75 -57.75 92.05 -63.05 L92.7 -65.4 93.5 -67.05 94.15 -67.6 94.65 -67.95 Q96.0 -68.85 97.35 -69.45 L97.75 -69.5 99.5 -69.35 M111.4 -62.3 L108.8 -63.25 101.8 -66.25 97.9 -67.45 97.35 -67.25 97.0 -67.0 96.0 -66.15 94.85 -64.55 Q94.6 -64.3 94.25 -63.0 L93.75 -60.7 Q93.6 -59.75 94.35 -58.65 96.45 -55.7 107.35 -53.05 L110.1 -52.45 113.05 -52.15 Q114.7 -52.6 115.6 -56.3 116.6 -60.35 114.8 -61.05 L111.4 -62.3 M107.85 -50.65 L104.5 -51.4 99.75 -52.7 98.6 -52.75 94.75 -53.45 89.15 -54.1 87.5 -53.9 Q85.8 -52.7 85.45 -50.75 L85.3 -50.15 85.2 -48.0 Q85.2 -46.35 85.4 -46.1 85.95 -45.35 89.1 -44.4 92.3 -43.4 98.5 -42.45 L105.65 -41.6 106.1 -41.6 Q109.15 -41.6 109.75 -42.2 L111.25 -46.35 111.45 -49.1 Q111.5 -49.7 111.7 -50.1 L107.85 -50.65 M108.3 -38.95 L107.75 -39.1 106.1 -39.1 99.1 -39.9 92.1 -41.0 89.8 -41.7 Q89.45 -41.45 89.4 -41.0 L88.75 -38.3 88.1 -35.6 87.7 -33.0 Q87.7 -31.95 89.9 -30.95 91.9 -30.05 95.05 -29.45 L98.9 -28.25 Q102.55 -27.2 106.7 -27.2 L106.8 -27.2 Q109.75 -27.2 110.35 -27.7 110.85 -28.2 111.75 -31.55 L112.35 -35.7 Q112.35 -38.15 109.6 -38.65 L108.3 -38.95" fill="#000000" fill-rule="evenodd" stroke="none"/>
      <path d="M110.1 -52.45 L107.35 -53.05 Q96.45 -55.7 94.35 -58.65 93.6 -59.75 93.75 -60.7 L94.25 -63.0 Q94.6 -64.3 94.85 -64.55 L96.0 -66.15 97.0 -67.0 97.35 -67.25 97.9 -67.45 101.8 -66.25 108.8 -63.25 111.4 -62.3 Q112.85 -59.85 112.85 -57.6 L112.85 -55.2 Q112.7 -54.05 111.65 -53.0 111.45 -52.85 110.1 -52.45 M105.65 -41.6 L98.5 -42.45 Q92.3 -43.4 89.1 -44.4 85.95 -45.35 85.4 -46.1 85.2 -46.35 85.2 -48.0 L85.3 -50.15 85.45 -50.75 Q85.8 -52.7 87.5 -53.9 L89.15 -54.1 94.75 -53.45 98.6 -52.75 99.75 -52.7 104.5 -51.4 107.85 -50.65 106.55 -46.2 Q105.65 -43.2 105.65 -41.6 M106.7 -27.2 Q102.55 -27.2 98.9 -28.25 L95.05 -29.45 Q91.9 -30.05 89.9 -30.95 87.7 -31.95 87.7 -33.0 L88.1 -35.6 88.75 -38.3 89.4 -41.0 Q89.45 -41.45 89.8 -41.7 L92.1 -41.0 99.1 -39.9 106.1 -39.1 107.75 -39.1 108.3 -38.95 Q108.85 -37.9 108.85 -36.5 L108.6 -33.35 107.45 -29.6 106.7 -27.2" fill="#999999" fill-rule="evenodd" stroke="none"/>
      <path d="M110.1 -52.45 Q111.45 -52.85 111.65 -53.0 112.7 -54.05 112.85 -55.2 L112.85 -57.6 Q112.85 -59.85 111.4 -62.3 L114.8 -61.05 Q116.6 -60.35 115.6 -56.3 114.7 -52.6 113.05 -52.15 L110.1 -52.45 M105.65 -41.6 Q105.65 -43.2 106.55 -46.2 L107.85 -50.65 111.7 -50.1 Q111.5 -49.7 111.45 -49.1 L111.25 -46.35 109.75 -42.2 Q109.15 -41.6 106.1 -41.6 L105.65 -41.6 M108.3 -38.95 L109.6 -38.65 Q112.35 -38.15 112.35 -35.7 L111.75 -31.55 Q110.85 -28.2 110.35 -27.7 109.75 -27.2 106.8 -27.2 L106.7 -27.2 107.45 -29.6 108.6 -33.35 108.85 -36.5 Q108.85 -37.9 108.3 -38.95" fill="#bdbdbd" fill-rule="evenodd" stroke="none"/>
    </g>
  </defs>
</svg>
