<?xml version="1.0" encoding="UTF-8" standalone="no"?>
<svg xmlns:xlink="http://www.w3.org/1999/xlink" height="531.5px" width="460.6px" xmlns="http://www.w3.org/2000/svg">
  <g transform="matrix(1.0, 0.0, 0.0, 1.0, 193.65, 334.05)">
    <use height="35.95" transform="matrix(2.0067, 0.0, 0.0, 2.0067, -54.0034, -147.6034)" width="22.85" xlink:href="#sprite0"/>
  </g>
  <defs>
    <g id="sprite0" transform="matrix(1.0, 0.0, 0.0, 1.0, 0.5, 0.5)">
      <use height="35.95" transform="matrix(1.0, 0.0, 0.0, 1.0, -0.5, -0.5)" width="22.85" xlink:href="#shape0"/>
      <use height="34.95" transform="matrix(1.0, 0.0, 0.0, 1.0, 0.0, 0.0)" width="21.85" xlink:href="#sprite1"/>
    </g>
    <g id="shape0" transform="matrix(1.0, 0.0, 0.0, 1.0, 0.5, 0.5)">
      <path d="M17.4 5.6 L15.7 5.85 Q14.95 6.05 14.6 6.4 L14.35 6.2 12.55 5.35 11.35 5.2 Q11.75 4.2 13.55 3.25 L13.9 3.05 Q14.9 3.4 15.8 4.05 L15.95 4.2 16.75 4.9 17.4 5.6 M15.15 6.95 L16.15 8.8 Q16.2 8.5 16.3 8.85 L17.45 9.5 Q18.8 10.0 19.1 10.75 19.05 12.7 18.15 14.35 L18.0 14.65 17.85 13.2 Q17.85 12.1 17.05 11.6 L16.4 11.35 16.45 11.05 16.5 9.9 15.75 9.85 13.05 10.15 11.75 8.95 11.7 8.95 10.95 8.8 11.85 7.7 Q13.35 6.3 15.15 6.95 M16.3 8.85 L16.5 9.9 16.3 8.85 M10.8 11.8 L10.2 12.3 8.75 12.55 8.25 12.55 7.6 12.55 7.6 12.65 7.25 12.45 7.15 12.4 7.1 12.05 7.1 11.65 7.4 10.7 7.1 11.65 6.75 12.05 6.65 12.05 6.3 12.05 3.25 11.25 3.2 10.75 3.2 10.55 3.2 10.25 3.95 9.3 5.65 10.1 7.4 10.7 8.75 10.85 9.15 11.05 10.45 11.45 10.5 11.45 10.8 11.8 M7.25 12.85 L7.9 13.95 6.95 14.75 5.2 15.85 Q4.4 14.95 3.95 13.95 L4.4 13.95 Q5.7 13.95 6.8 13.15 L7.25 12.85 M9.7 15.5 L10.55 14.55 Q11.95 12.85 11.95 12.2 L11.95 12.05 12.1 12.05 12.55 11.75 Q12.95 11.9 13.0 12.0 L13.25 13.6 13.15 15.15 13.1 15.45 13.25 15.4 14.55 14.55 14.55 15.0 14.3 16.6 13.25 18.25 11.15 18.5 9.25 18.3 11.7 16.5 Q12.75 16.3 13.1 15.45 L12.45 15.7 9.7 15.5 M6.5 6.7 Q6.35 6.3 6.35 5.7 6.35 4.35 7.3 3.6 L8.2 3.15 Q9.45 2.65 10.9 2.6 9.65 2.85 8.9 3.85 8.25 4.75 8.15 5.7 9.1 5.25 10.05 5.15 8.95 5.7 8.85 6.6 L8.95 8.15 9.0 8.95 8.85 9.0 8.3 9.35 8.25 9.3 8.25 9.35 8.15 9.55 7.5 10.45 6.95 9.95 Q6.35 9.2 6.35 7.95 L6.55 6.75 6.55 6.7 7.0 6.35 6.5 6.7 M8.15 5.7 L7.1 6.25 7.0 6.35 7.1 6.25 8.15 5.7" fill="#a00101" fill-rule="evenodd" stroke="none"/>
      <path d="M14.6 6.4 Q14.95 6.05 15.7 5.85 L17.4 5.6 Q18.9 7.5 19.1 9.95 L19.1 10.55 19.1 10.75 Q18.8 10.0 17.45 9.5 L16.3 8.85 Q16.2 8.5 16.15 8.8 L15.15 6.95 14.6 6.4 15.15 6.95 Q13.35 6.3 11.85 7.7 L10.95 8.8 11.7 8.95 11.75 8.95 13.05 10.15 15.75 9.85 16.5 9.9 16.45 11.05 16.4 11.35 17.05 11.6 Q17.85 12.1 17.85 13.2 L18.0 14.65 16.75 16.15 Q15.2 17.7 13.25 18.25 L14.3 16.6 14.55 15.0 14.55 14.55 13.25 15.4 13.1 15.45 13.15 15.15 13.25 13.6 13.0 12.0 Q12.95 11.9 12.55 11.75 L12.1 12.05 11.95 12.05 11.95 12.2 Q11.95 12.85 10.55 14.55 L9.7 15.5 Q8.9 15.1 8.2 14.3 L7.9 13.95 8.2 14.3 Q8.9 15.1 9.7 15.5 L12.45 15.7 13.1 15.45 Q12.75 16.3 11.7 16.5 L9.25 18.3 9.0 18.25 Q7.5 17.85 6.3 16.85 L5.5 16.15 5.2 15.85 6.95 14.75 7.9 13.95 7.25 12.85 7.15 12.5 7.15 12.4 7.15 12.5 7.25 12.85 6.8 13.15 Q5.7 13.95 4.4 13.95 L3.95 13.95 Q3.35 12.7 3.25 11.25 L6.3 12.05 6.65 12.05 6.75 12.05 7.1 11.65 7.1 12.05 7.15 12.4 7.25 12.45 7.6 12.65 7.6 12.55 8.25 12.55 8.75 12.55 10.2 12.3 10.8 11.8 11.95 12.05 10.8 11.8 10.5 11.45 10.45 11.45 9.15 11.05 8.75 10.85 7.4 10.7 5.65 10.1 3.95 9.3 3.2 10.25 3.35 8.85 3.5 8.25 Q4.05 6.4 5.45 4.95 L5.5 4.9 7.3 3.6 Q6.35 4.35 6.35 5.7 6.35 6.3 6.5 6.7 L6.55 6.7 Q5.25 7.7 3.95 9.3 5.25 7.7 6.55 6.7 L6.55 6.75 6.35 7.95 Q6.35 9.2 6.95 9.95 L7.5 10.45 8.15 9.55 8.3 9.4 8.3 9.35 8.85 9.0 9.0 8.95 8.95 8.15 8.85 6.6 Q8.95 5.7 10.05 5.15 L10.15 5.15 11.35 5.2 12.55 5.35 14.35 6.2 14.6 6.4 M13.9 3.05 L13.55 3.25 Q11.75 4.2 11.35 5.2 L10.15 5.15 10.05 5.15 Q9.1 5.25 8.15 5.7 8.25 4.75 8.9 3.85 9.65 2.85 10.9 2.6 L11.15 2.6 12.05 2.65 13.9 3.05 M12.55 11.75 Q13.5 10.95 13.05 10.15 13.5 10.95 12.55 11.75 M16.4 11.35 Q16.0 13.3 14.55 14.55 16.0 13.3 16.4 11.35 M10.95 8.8 L9.0 8.95 10.95 8.8 M7.5 10.45 L7.4 10.7 7.5 10.45" fill="#f06d17" fill-rule="evenodd" stroke="none"/>
      <path d="M19.1 10.75 L19.1 10.55 19.1 9.95 Q21.65 8.6 19.9 12.55 20.9 11.95 21.85 13.75 21.6 17.7 18.15 14.35 19.05 12.7 19.1 10.75 M7.3 3.6 L5.5 4.9 5.45 4.9 Q5.65 4.0 5.2 2.75 2.8 0.5 5.05 0.0 5.45 1.8 6.45 2.05 7.2 0.25 8.15 3.05 L8.2 3.15 7.3 3.6 M6.3 16.85 Q6.6 19.95 6.0 22.3 5.35 23.4 4.9 21.5 5.35 20.55 4.55 19.55 3.35 20.35 3.15 18.35 L3.3 16.35 Q3.2 15.35 2.55 14.95 L2.5 14.95 Q1.45 14.6 0.5 13.45 -0.75 12.15 1.15 11.5 1.45 10.6 2.0 10.45 2.5 10.3 3.15 10.75 L3.2 10.75 3.25 11.25 Q3.35 12.7 3.95 13.95 4.4 14.95 5.2 15.85 L5.5 16.15 6.3 16.85 M1.2 24.2 Q0.55 23.25 1.25 22.45 L3.0 22.5 Q3.75 23.25 3.1 24.15 L1.2 24.2" fill="#f8ae7e" fill-rule="evenodd" stroke="none"/>
      <path d="M6.55 6.7 L6.5 6.7 7.0 6.35 6.55 6.7 M8.15 9.55 L8.25 9.35 8.25 9.3 8.3 9.35 8.3 9.4 8.15 9.55" fill="#f35858" fill-rule="evenodd" stroke="none"/>
      <path d="M14.1 18.2 L18.1 34.45 16.3 34.95 12.25 18.75 14.1 18.2" fill="#ffffff" fill-rule="evenodd" stroke="none"/>
      <path d="M17.4 5.6 L16.75 4.9 15.95 4.2 M15.8 4.05 Q14.9 3.4 13.9 3.05 L12.05 2.65 11.15 2.6 10.9 2.6 Q9.45 2.65 8.2 3.15 L8.15 3.05 Q7.2 0.25 6.45 2.05 5.45 1.8 5.05 0.0 2.8 0.5 5.2 2.75 5.65 4.0 5.45 4.9 L5.45 4.95 Q4.05 6.4 3.5 8.25 L3.35 8.85 3.2 10.25 3.95 9.3 Q5.25 7.7 6.55 6.7 L7.0 6.35 7.1 6.25 8.15 5.7 Q9.1 5.25 10.05 5.15 L10.15 5.15 11.35 5.2 12.55 5.35 14.35 6.2 14.6 6.4 15.15 6.95 16.15 8.8 M19.1 10.75 L19.1 10.55 19.1 9.95 Q18.9 7.5 17.4 5.6 M10.95 8.8 L11.7 8.95 11.75 8.95 13.05 10.15 Q13.5 10.95 12.55 11.75 L12.1 12.05 11.95 12.05 10.8 11.8 10.5 11.45 10.45 11.45 M16.5 9.9 L16.3 8.85 M7.15 12.4 L7.15 12.5 7.25 12.85 7.9 13.95 8.2 14.3 Q8.9 15.1 9.7 15.5 L12.45 15.7 13.1 15.45 13.25 15.4 14.55 14.55 Q16.0 13.3 16.4 11.35 L16.45 11.05 16.5 9.9 M7.4 10.7 L7.1 11.65 7.1 12.05 7.15 12.4 M18.0 14.65 L18.15 14.35 Q19.05 12.7 19.1 10.75 M7.3 3.6 L5.5 4.9 5.45 4.95 M7.3 3.6 L8.2 3.15 M9.0 8.95 L10.95 8.8 M6.3 16.85 Q6.6 19.95 6.0 22.3 5.35 23.4 4.9 21.5 5.35 20.55 4.55 19.55 3.35 20.35 3.15 18.35 L3.3 16.35 Q3.2 15.35 2.55 14.95 L2.5 14.95 Q1.45 14.6 0.5 13.45 -0.75 12.15 1.15 11.5 1.45 10.6 2.0 10.45 2.5 10.3 3.15 10.75 L3.2 10.75 3.2 10.55 3.2 10.25 M3.25 11.25 L3.2 10.75 M8.3 9.35 L8.85 9.0 9.0 8.95 M7.5 10.45 L8.15 9.55 8.3 9.4 8.3 9.35 M7.4 10.7 L7.5 10.45 M3.95 13.95 Q4.4 14.95 5.2 15.85 L5.5 16.15 6.3 16.85 Q7.5 17.85 9.0 18.25 M1.2 24.2 Q0.55 23.25 1.25 22.45 L3.0 22.5 Q3.75 23.25 3.1 24.15 L1.2 24.2 M18.0 14.65 L16.75 16.15 Q15.2 17.7 13.25 18.25 L11.15 18.5 9.25 18.3 M14.1 18.2 L18.1 34.45 16.3 34.95 12.25 18.75 14.1 18.2 M3.95 13.95 Q3.35 12.7 3.25 11.25 M19.1 9.95 Q21.65 8.6 19.9 12.55 20.9 11.95 21.85 13.75 21.6 17.7 18.15 14.35" fill="none" stroke="#000000" stroke-linecap="round" stroke-linejoin="round" stroke-opacity="0.6627451" stroke-width="1.0"/>
    </g>
    <g id="sprite1" transform="matrix(1.0, 0.0, 0.0, 1.0, 0.0, 0.0)">
      <use height="34.95" transform="matrix(1.0, 0.0, 0.0, 1.0, 0.0, 0.0)" width="21.85" xlink:href="#shape1"/>
    </g>
    <g id="shape1" transform="matrix(1.0, 0.0, 0.0, 1.0, 0.0, 0.0)">
      <path d="M14.1 18.2 L18.1 34.45 16.3 34.95 12.25 18.75 14.1 18.2" fill="url(#gradient0)" fill-rule="evenodd" stroke="none"/>
      <path d="M12.1 12.05 L11.95 12.2 11.95 12.05 12.1 12.05" fill="url(#gradient1)" fill-rule="evenodd" stroke="none"/>
      <path d="M6.55 6.7 L6.5 6.7 6.95 6.4 6.55 6.7" fill="url(#gradient2)" fill-rule="evenodd" stroke="none"/>
      <path d="M8.25 9.35 L8.25 9.3 8.3 9.35 8.3 9.4 8.15 9.55 8.25 9.35" fill="url(#gradient3)" fill-rule="evenodd" stroke="none"/>
      <path d="M18.0 14.65 L17.95 14.35 18.15 14.35 18.0 14.65" fill="url(#gradient4)" fill-rule="evenodd" stroke="none"/>
      <path d="M3.2 10.75 L3.25 11.25 Q3.35 12.7 3.95 13.95 4.4 14.95 5.2 15.85 L5.5 16.15 6.3 16.85 Q6.6 19.95 6.0 22.3 5.35 23.4 4.9 21.5 5.35 20.55 4.55 19.55 3.35 20.35 3.15 18.35 L3.3 16.35 Q3.2 15.35 2.55 14.95 L2.5 14.95 Q1.45 14.6 0.5 13.45 -0.75 12.15 1.15 11.5 1.45 10.6 2.0 10.45 2.5 10.3 3.15 10.75 L3.2 10.75" fill="url(#gradient5)" fill-rule="evenodd" stroke="none"/>
      <path d="M1.25 22.45 L3.0 22.5 Q3.75 23.25 3.1 24.15 L1.2 24.2 Q0.55 23.25 1.25 22.45" fill="url(#gradient6)" fill-rule="evenodd" stroke="none"/>
      <path d="M18.15 14.35 Q19.05 12.7 19.1 10.75 L19.1 10.55 19.1 9.95 Q21.65 8.6 19.9 12.55 20.9 11.95 21.85 13.75 21.6 17.7 18.15 14.35" fill="url(#gradient7)" fill-rule="evenodd" stroke="none"/>
      <path d="M8.2 3.15 L7.3 3.6 5.5 4.9 5.45 4.9 Q5.65 4.0 5.2 2.75 2.8 0.5 5.05 0.0 5.45 1.8 6.45 2.05 7.2 0.25 8.15 3.05 L8.2 3.15" fill="url(#gradient8)" fill-rule="evenodd" stroke="none"/>
      <path d="M8.2 3.15 Q9.45 2.65 10.9 2.6 L11.15 2.6 12.05 2.65 13.9 3.05 Q14.9 3.4 15.8 4.05 L15.95 4.2 16.75 4.9 17.4 5.6 Q18.9 7.5 19.1 9.95 L19.1 10.55 19.1 10.75 Q19.05 12.7 18.15 14.35 L17.95 14.35 18.0 14.65 16.75 16.15 Q15.2 17.7 13.25 18.25 L11.15 18.5 9.25 18.3 9.0 18.25 Q7.5 17.85 6.3 16.85 L5.5 16.15 5.2 15.85 Q4.4 14.95 3.95 13.95 3.35 12.7 3.25 11.25 L3.2 10.75 3.2 10.55 3.2 10.25 3.35 8.85 3.5 8.25 Q4.05 6.4 5.45 4.95 L5.5 4.9 7.3 3.6 8.2 3.15 M12.1 12.05 L11.95 12.05 11.95 12.2 12.1 12.05 M6.55 6.7 L6.95 6.4 6.5 6.7 6.55 6.7 M8.25 9.35 L8.15 9.55 8.3 9.4 8.3 9.35 8.25 9.3 8.25 9.35" fill="url(#gradient9)" fill-rule="evenodd" stroke="none"/>
    </g>
    <linearGradient gradientTransform="matrix(0.0036, 0.0, 0.0, 0.0102, 15.15, 26.55)" gradientUnits="userSpaceOnUse" id="gradient0" spreadMethod="pad" x1="-819.2" x2="819.2">
      <stop offset="0.0" stop-color="#000000"/>
      <stop offset="1.0" stop-color="#ffffff"/>
    </linearGradient>
    <linearGradient gradientTransform="matrix(1.0E-4, 0.0, 0.0, 1.0E-4, 12.0, 12.1)" gradientUnits="userSpaceOnUse" id="gradient1" spreadMethod="pad" x1="-819.2" x2="819.2">
      <stop offset="0.0" stop-color="#000000"/>
      <stop offset="1.0" stop-color="#ffffff"/>
    </linearGradient>
    <linearGradient gradientTransform="matrix(3.0E-4, 0.0, 0.0, 2.0E-4, 6.7, 6.55)" gradientUnits="userSpaceOnUse" id="gradient2" spreadMethod="pad" x1="-819.2" x2="819.2">
      <stop offset="0.0" stop-color="#000000"/>
      <stop offset="1.0" stop-color="#ffffff"/>
    </linearGradient>
    <linearGradient gradientTransform="matrix(1.0E-4, 0.0, 0.0, 2.0E-4, 8.2, 9.4)" gradientUnits="userSpaceOnUse" id="gradient3" spreadMethod="pad" x1="-819.2" x2="819.2">
      <stop offset="0.0" stop-color="#000000"/>
      <stop offset="1.0" stop-color="#ffffff"/>
    </linearGradient>
    <linearGradient gradientTransform="matrix(1.0E-4, 0.0, 0.0, 2.0E-4, 18.05, 14.5)" gradientUnits="userSpaceOnUse" id="gradient4" spreadMethod="pad" x1="-819.2" x2="819.2">
      <stop offset="0.0" stop-color="#000000"/>
      <stop offset="1.0" stop-color="#ffffff"/>
    </linearGradient>
    <linearGradient gradientTransform="matrix(-0.0038, 0.001, -0.0019, -0.0072, 3.2, 16.55)" gradientUnits="userSpaceOnUse" id="gradient5" spreadMethod="pad" x1="-819.2" x2="819.2">
      <stop offset="0.0" stop-color="#000000"/>
      <stop offset="1.0" stop-color="#ffffff"/>
    </linearGradient>
    <linearGradient gradientTransform="matrix(-0.0013, -0.0051, 0.0014, -4.0E-4, 2.2, 23.3)" gradientUnits="userSpaceOnUse" id="gradient6" spreadMethod="pad" x1="-819.2" x2="819.2">
      <stop offset="0.0" stop-color="#000000"/>
      <stop offset="1.0" stop-color="#ffffff"/>
    </linearGradient>
    <linearGradient gradientTransform="matrix(0.0044, 0.0, 0.0, 0.0038, 20.0, 12.75)" gradientUnits="userSpaceOnUse" id="gradient7" spreadMethod="pad" x1="-819.2" x2="819.2">
      <stop offset="0.0" stop-color="#000000"/>
      <stop offset="1.0" stop-color="#ffffff"/>
    </linearGradient>
    <linearGradient gradientTransform="matrix(-0.0026, -0.0045, 0.0026, -0.0015, 6.1, 2.5)" gradientUnits="userSpaceOnUse" id="gradient8" spreadMethod="pad" x1="-819.2" x2="819.2">
      <stop offset="0.0" stop-color="#000000"/>
      <stop offset="1.0" stop-color="#ffffff"/>
    </linearGradient>
    <linearGradient gradientTransform="matrix(-0.0093, -0.0161, 0.0084, -0.0049, 11.2, 10.6)" gradientUnits="userSpaceOnUse" id="gradient9" spreadMethod="pad" x1="-819.2" x2="819.2">
      <stop offset="0.0" stop-color="#000000"/>
      <stop offset="1.0" stop-color="#ffffff"/>
    </linearGradient>
  </defs>
</svg>
