<?xml version="1.0" encoding="UTF-8" standalone="no"?>
<svg xmlns:xlink="http://www.w3.org/1999/xlink" height="531.5px" width="460.6px" xmlns="http://www.w3.org/2000/svg">
  <g transform="matrix(1.0, 0.0, 0.0, 1.0, 193.65, 334.05)">
    <use height="82.95" transform="matrix(0.43, 0.0, 0.0, 0.43, -47.825, -174.6447)" width="276.35" xlink:href="#sprite0"/>
  </g>
  <defs>
    <g id="sprite0" transform="matrix(1.0, 0.0, 0.0, 1.0, 138.2, 41.5)">
      <use height="82.95" transform="matrix(1.0, 0.0, 0.0, 1.0, -138.2, -41.5)" width="276.35" xlink:href="#shape0"/>
      <use height="79.5" transform="matrix(1.0, 0.0, 0.0, 1.0, -136.45, -39.75)" width="272.9" xlink:href="#sprite1"/>
    </g>
    <g id="shape0" transform="matrix(1.0, 0.0, 0.0, 1.0, 138.2, 41.5)">
      <path d="M23.0 -36.6 L28.15 -35.45 Q34.8 -32.3 38.55 -26.4 L39.3 -20.7 37.7 -23.4 36.8 -24.5 35.8 -25.5 31.55 -29.15 Q29.3 -30.75 25.7 -31.8 22.05 -32.9 20.45 -32.5 L23.0 -36.6 M63.75 -22.35 Q65.05 -33.1 71.35 -33.05 93.5 -35.55 114.7 -33.2 L126.8 -31.45 Q131.4 -31.1 134.35 -24.45 L134.15 -24.0 Q132.45 -25.2 132.05 -26.45 L125.45 -30.5 Q124.55 -29.8 124.4 -30.65 120.0 -31.65 115.1 -31.5 L113.95 -31.5 110.65 -31.9 108.6 -32.05 95.35 -31.75 89.65 -31.4 84.1 -30.85 77.3 -29.75 Q70.0 -27.95 63.75 -22.35 M-57.4 -25.35 L-57.35 -25.75 Q-54.95 -33.65 -48.05 -35.85 -22.05 -40.85 1.4 -39.4 L-1.3 -35.4 -12.3 -35.8 -14.7 -35.6 -19.95 -35.3 -27.95 -34.9 -32.75 -34.35 -37.95 -33.55 -43.9 -32.1 Q-45.7 -31.5 -47.45 -31.45 -51.65 -30.15 -55.15 -27.8 -56.9 -26.6 -57.4 -25.35" fill="#d96ac7" fill-rule="evenodd" stroke="none"/>
      <path d="M23.0 -36.6 L20.45 -32.5 17.1 -26.9 -7.2 -26.9 -1.3 -35.4 1.4 -39.4 Q12.45 -38.7 23.0 -36.6 M103.8 37.8 Q94.3 38.55 84.95 31.85 L86.65 28.2 89.5 22.15 93.7 25.25 110.3 25.4 108.25 29.75 103.8 37.8 M-20.65 36.55 L-22.6 35.7 Q-29.25 32.55 -34.3 28.35 L-35.3 27.6 -33.15 24.2 -31.95 22.3 -28.5 14.8 -8.8 14.95 -11.3 20.0 -27.05 19.9 -19.15 25.75 -14.6 25.75 -17.9 31.6 -18.5 32.7 -20.65 36.55 M4.75 -8.6 L1.45 -3.2 -19.5 -3.2 -16.6 -8.6 4.75 -8.6 M-2.3 3.0 L-3.65 5.25 -5.4 8.45 -25.45 8.4 -22.7 2.9 -2.3 3.0 M13.35 -20.45 Q11.1 -18.1 8.9 -15.05 L-13.2 -15.05 -10.45 -20.45 13.35 -20.45 M105.65 -14.4 L108.15 -19.4 130.3 -19.15 129.4 -25.6 111.3 -25.8 113.95 -31.5 115.1 -31.5 Q120.0 -31.65 124.4 -30.65 124.55 -29.8 125.45 -30.5 L132.05 -26.45 Q132.45 -25.2 134.15 -24.0 L130.35 -16.15 129.4 -14.1 105.65 -14.4 M100.15 -2.55 L102.25 -8.05 126.5 -8.0 123.85 -2.65 100.15 -2.55 M120.45 3.9 L117.6 9.3 95.3 9.4 97.6 3.9 120.45 3.9 M114.25 15.5 L112.5 20.15 90.4 20.15 91.05 18.75 92.45 15.7 114.25 15.5" fill="#d982ce" fill-rule="evenodd" stroke="none"/>
      <path d="M20.45 -32.5 Q22.05 -32.9 25.7 -31.8 29.3 -30.75 31.55 -29.15 L35.8 -25.5 36.8 -24.5 37.7 -23.4 39.3 -20.7 39.6 -16.6 42.9 -16.55 Q42.7 -16.15 41.65 -16.15 41.65 -11.7 39.7 -7.35 40.3 -7.15 39.35 -6.65 38.7 0.05 36.7 6.05 35.9 6.25 35.4 6.7 30.1 11.8 25.4 17.65 17.45 27.5 5.5 31.0 -6.25 34.55 -18.5 32.7 L-17.9 31.6 -14.6 25.75 3.7 25.65 12.45 20.1 -11.3 20.0 -8.8 14.95 20.25 15.15 24.3 8.55 -5.4 8.45 -3.65 5.25 -2.3 3.0 28.15 3.15 30.2 -3.2 1.45 -3.2 4.75 -8.6 30.2 -8.6 30.2 -15.05 8.9 -15.05 Q11.1 -18.1 13.35 -20.45 L30.2 -20.45 30.2 -26.9 17.1 -26.9 20.45 -32.5 M49.15 -16.45 L63.75 -16.25 63.75 -16.3 63.75 -22.35 Q70.0 -27.95 77.3 -29.75 L84.1 -30.85 89.65 -31.4 95.35 -31.75 108.6 -32.05 110.65 -31.9 113.95 -31.5 111.3 -25.8 73.9 -26.25 73.9 -19.8 108.15 -19.4 105.65 -14.4 71.5 -14.9 71.5 -8.15 102.25 -8.05 100.15 -2.55 71.5 -2.4 71.3 3.9 97.6 3.9 95.3 9.4 75.2 9.45 79.2 15.85 92.45 15.7 91.05 18.75 90.4 20.15 86.75 20.15 89.5 22.15 86.65 28.2 84.95 31.85 Q82.05 29.75 79.15 26.95 67.3 12.8 64.55 -6.5 56.8 -9.65 48.2 -8.65 L48.9 -12.7 49.15 -16.45 M134.35 -24.45 L134.6 -23.9 135.75 -20.65 Q136.25 -16.65 136.4 -12.65 L132.0 -0.25 132.3 -2.7 123.85 -2.65 126.5 -8.0 133.0 -8.0 132.9 -14.05 129.4 -14.1 130.35 -16.15 134.15 -24.0 134.35 -24.45 M-51.6 8.15 L-52.1 7.25 -54.05 3.7 Q-57.15 -3.2 -58.05 -10.0 L-60.95 -10.3 Q-60.65 -13.1 -60.7 -15.75 -60.75 -19.95 -61.05 -23.7 L-57.8 -23.45 -57.4 -25.35 Q-56.9 -26.6 -55.15 -27.8 -51.65 -30.15 -47.45 -31.45 -45.7 -31.5 -43.9 -32.1 L-37.95 -33.55 -32.75 -34.35 -27.95 -34.9 -19.95 -35.3 -14.7 -35.6 -12.3 -35.8 -1.3 -35.4 -7.2 -26.9 -47.65 -26.9 -47.65 -20.45 -10.45 -20.45 -13.2 -15.05 -47.65 -15.05 -47.65 -8.6 -16.6 -8.6 -19.5 -3.2 -47.65 -3.2 -45.6 2.8 -22.7 2.9 -25.45 8.4 -42.2 8.35 -36.3 14.7 -28.5 14.8 -31.95 22.3 -33.15 24.2 -37.35 21.55 Q-45.8 16.25 -51.6 8.15 M-133.5 -7.65 Q-130.25 -12.7 -123.3 -16.65 -92.25 -25.3 -62.25 -23.75 -63.8 -22.85 -64.9 -21.05 -68.3 -18.8 -76.55 -17.05 L-83.4 -16.5 -92.05 -16.45 -104.8 -16.15 -106.8 -16.0 -109.6 -15.9 Q-115.35 -16.15 -120.4 -14.55 L-121.6 -14.25 Q-122.95 -14.0 -124.0 -13.35 L-131.1 -8.8 Q-132.2 -8.15 -133.5 -7.65 M131.6 2.85 Q130.75 19.1 117.5 27.25 113.55 29.7 109.0 29.1 L108.25 29.75 110.3 25.4 111.1 25.4 117.8 20.15 112.5 20.15 114.25 15.5 125.05 15.35 129.4 9.25 117.6 9.3 120.45 3.9 131.45 3.9 131.6 2.85 M132.0 -0.25 L132.15 0.15 Q132.35 0.65 131.9 0.6 L132.0 -0.25" fill="#b307b4" fill-rule="evenodd" stroke="none"/>
      <path d="M42.9 -16.55 L49.15 -16.45 48.9 -12.7 48.2 -8.65 Q43.85 -8.15 39.35 -6.65 40.3 -7.15 39.7 -7.35 41.65 -11.7 41.65 -16.15 42.7 -16.15 42.9 -16.55 M136.4 -12.65 Q136.5 -6.9 136.05 -0.95 135.1 12.5 127.5 23.5 118.85 36.0 103.8 37.8 L108.25 29.75 109.0 29.1 Q113.55 29.7 117.5 27.25 130.75 19.1 131.6 2.85 L131.9 0.6 Q132.35 0.65 132.15 0.15 L132.0 -0.25 136.4 -12.65 M36.7 6.05 Q33.25 16.75 25.55 24.9 17.0 34.0 5.2 37.9 -5.65 41.45 -16.65 38.05 L-20.65 36.55 -18.5 32.7 Q-6.25 34.55 5.5 31.0 17.45 27.5 25.4 17.65 30.1 11.8 35.4 6.7 35.9 6.25 36.7 6.05 M-35.3 27.6 L-35.35 27.55 -36.2 26.85 Q-44.4 20.2 -49.85 11.15 L-51.6 8.15 Q-45.8 16.25 -37.35 21.55 L-33.15 24.2 -35.3 27.6 M-60.95 -10.3 Q-92.15 -13.35 -116.55 -7.9 -120.0 -7.05 -122.1 -4.65 -126.55 0.65 -126.75 5.9 L-136.3 4.5 Q-137.05 -2.2 -133.5 -7.65 -132.2 -8.15 -131.1 -8.8 L-124.0 -13.35 Q-122.95 -14.0 -121.6 -14.25 L-120.4 -14.55 Q-115.35 -16.15 -109.6 -15.9 L-106.8 -16.0 -104.8 -16.15 -92.05 -16.45 -83.4 -16.5 -76.55 -17.05 Q-68.3 -18.8 -64.9 -21.05 -63.8 -22.85 -62.25 -23.75 L-61.05 -23.7 Q-60.75 -19.95 -60.7 -15.75 -60.65 -13.1 -60.95 -10.3" fill="#7a057a" fill-rule="evenodd" stroke="none"/>
      <path d="M39.3 -20.7 L38.55 -26.4 Q34.8 -32.3 28.15 -35.45 L23.0 -36.6 Q12.45 -38.7 1.4 -39.4 -22.05 -40.85 -48.05 -35.85 -54.95 -33.65 -57.35 -25.75 L-57.4 -25.35 -57.8 -23.45 -61.05 -23.7 -62.25 -23.75 Q-92.25 -25.3 -123.3 -16.65 -130.25 -12.7 -133.5 -7.65 -137.05 -2.2 -136.3 4.5 L-126.75 5.9 Q-126.55 0.65 -122.1 -4.65 -120.0 -7.05 -116.55 -7.9 -92.15 -13.35 -60.95 -10.3 L-58.05 -10.0 Q-57.15 -3.2 -54.05 3.7 L-52.1 7.25 -51.6 8.15 -49.85 11.15 Q-44.4 20.2 -36.2 26.85 L-35.35 27.55 -35.3 27.6 -34.3 28.35 Q-29.25 32.55 -22.6 35.7 L-20.65 36.55 -16.65 38.05 Q-5.65 41.45 5.2 37.9 17.0 34.0 25.55 24.9 33.25 16.75 36.7 6.05 38.7 0.05 39.35 -6.65 43.85 -8.15 48.2 -8.65 56.8 -9.65 64.55 -6.5 67.3 12.8 79.15 26.95 82.05 29.75 84.95 31.85 94.3 38.55 103.8 37.8 118.85 36.0 127.5 23.5 135.1 12.5 136.05 -0.95 136.5 -6.9 136.4 -12.65 136.25 -16.65 135.75 -20.65 L134.6 -23.9 134.35 -24.45 Q131.4 -31.1 126.8 -31.45 L114.7 -33.2 Q93.5 -35.55 71.35 -33.05 65.05 -33.1 63.75 -22.35 L63.75 -16.3 63.75 -16.25 49.15 -16.45 42.9 -16.55 39.6 -16.6 39.3 -20.7 M4.75 -8.6 L-16.6 -8.6 -47.65 -8.6 -47.65 -15.05 -13.2 -15.05 8.9 -15.05 30.2 -15.05 30.2 -8.6 4.75 -8.6 M-19.5 -3.2 L1.45 -3.2 30.2 -3.2 28.15 3.15 -2.3 3.0 -22.7 2.9 -45.6 2.8 -47.65 -3.2 -19.5 -3.2 M-5.4 8.45 L24.3 8.55 20.25 15.15 -8.8 14.95 -28.5 14.8 -36.3 14.7 -42.2 8.35 -25.45 8.4 -5.4 8.45 M-11.3 20.0 L12.45 20.1 3.7 25.65 -14.6 25.75 -19.15 25.75 -27.05 19.9 -11.3 20.0 M13.35 -20.45 L-10.45 -20.45 -47.65 -20.45 -47.65 -26.9 -7.2 -26.9 17.1 -26.9 30.2 -26.9 30.2 -20.45 13.35 -20.45 M102.25 -8.05 L71.5 -8.15 71.5 -14.9 105.65 -14.4 129.4 -14.1 132.9 -14.05 133.0 -8.0 126.5 -8.0 102.25 -8.05 M108.15 -19.4 L73.9 -19.8 73.9 -26.25 111.3 -25.8 129.4 -25.6 130.3 -19.15 108.15 -19.4 M123.85 -2.65 L132.3 -2.7 132.0 -0.25 131.9 0.6 131.6 2.85 131.45 3.9 120.45 3.9 97.6 3.9 71.3 3.9 71.5 -2.4 100.15 -2.55 123.85 -2.65 M117.6 9.3 L129.4 9.25 125.05 15.35 114.25 15.5 92.45 15.7 79.2 15.85 75.2 9.45 95.3 9.4 117.6 9.3 M112.5 20.15 L117.8 20.15 111.1 25.4 110.3 25.4 93.7 25.25 89.5 22.15 86.75 20.15 90.4 20.15 112.5 20.15" fill="none" stroke="#000000" stroke-linecap="round" stroke-linejoin="round" stroke-opacity="0.6627451" stroke-width="3.5"/>
    </g>
    <g id="sprite1" transform="matrix(1.0, 0.0, 0.0, 1.0, 0.0, 0.0)">
      <use height="79.5" transform="matrix(1.0, 0.0, 0.0, 1.0, 0.0, 0.0)" width="272.9" xlink:href="#shape1"/>
    </g>
    <g id="shape1" transform="matrix(1.0, 0.0, 0.0, 1.0, 0.0, 0.0)">
      <path d="M272.2 19.1 L272.85 27.1 Q273.2 37.7 271.1 48.55 269.8 58.05 260.5 67.5 L257.35 70.15 Q248.75 76.85 240.25 77.55 230.75 78.3 221.4 71.6 218.5 69.5 215.6 66.7 203.75 52.55 201.0 33.25 193.25 30.1 184.65 31.1 180.3 31.6 175.8 33.1 175.15 39.8 173.15 45.8 170.3 54.35 164.6 61.5 141.5 87.1 115.8 76.3 110.6 74.1 105.25 70.4 L105.2 70.35 104.35 69.75 104.3 69.75 102.4 68.3 101.15 67.35 Q96.45 63.6 91.65 58.7 85.75 51.0 82.4 43.45 79.3 36.55 78.4 29.75 L75.5 29.45 Q44.3 26.4 19.9 31.85 16.45 32.7 14.35 35.1 9.9 40.4 9.7 45.65 L0.15 44.25 Q-0.6 37.55 2.95 32.1 6.2 27.05 13.15 23.1 44.2 14.45 74.2 16.0 L75.4 16.05 78.65 16.3 79.05 14.4 79.1 14.0 Q81.5 6.1 88.4 3.9 114.4 -1.1 137.85 0.35 148.9 1.05 159.45 3.15 L164.6 4.3 Q171.25 7.45 175.0 13.35 L175.75 19.05 176.05 23.15 200.2 23.5 200.2 23.45 200.2 17.4 Q201.5 6.65 207.8 6.7 229.95 4.2 251.15 6.55 L257.35 7.35 263.25 8.3 Q267.85 8.65 270.8 15.3 L271.05 15.85 272.2 19.1 M100.15 54.45 L156.7 54.9 160.75 48.3 94.25 48.1 100.15 54.45 M109.4 59.65 L117.3 65.5 140.15 65.4 148.9 59.85 109.4 59.65 M166.65 31.15 L166.65 24.7 88.8 24.7 88.8 31.15 166.65 31.15 M164.6 42.9 L166.65 36.55 88.8 36.55 90.85 42.55 164.6 42.9 M166.65 19.3 L166.65 12.85 88.8 12.85 88.8 19.3 166.65 19.3 M261.5 55.1 L265.85 49.0 211.65 49.2 215.65 55.6 261.5 55.1 M247.55 65.15 L254.25 59.9 223.2 59.9 230.15 65.0 247.55 65.15 M267.9 43.65 L268.75 37.05 207.95 37.35 207.75 43.65 267.9 43.65 M269.45 31.75 L269.35 25.7 207.95 24.85 207.95 31.6 269.45 31.75 M266.75 20.6 L265.85 14.15 210.35 13.5 210.35 19.95 266.75 20.6" fill="url(#gradient0)" fill-rule="evenodd" stroke="none"/>
    </g>
    <linearGradient gradientTransform="matrix(-0.0275, -0.1442, 0.0475, -0.0091, 142.8, 60.25)" gradientUnits="userSpaceOnUse" id="gradient0" spreadMethod="pad" x1="-819.2" x2="819.2">
      <stop offset="0.0" stop-color="#000000"/>
      <stop offset="1.0" stop-color="#ffffff"/>
    </linearGradient>
  </defs>
</svg>
