<?xml version="1.0" encoding="UTF-8" standalone="no"?>
<svg xmlns:xlink="http://www.w3.org/1999/xlink" height="531.5px" width="460.6px" xmlns="http://www.w3.org/2000/svg">
  <g transform="matrix(1.0, 0.0, 0.0, 1.0, 193.65, 334.05)">
    <use height="32.25" transform="matrix(1.0, 0.0, 0.0, 1.0, 20.8, -48.05)" width="32.25" xlink:href="#sprite0"/>
  </g>
  <defs>
    <g id="sprite0" transform="matrix(1.0, 0.0, 0.0, 1.0, 16.1, 16.1)">
      <use height="32.25" transform="matrix(1.0, 0.0, 0.0, 1.0, -16.1, -16.1)" width="32.25" xlink:href="#shape0"/>
      <use height="31.25" transform="matrix(1.0, 0.0, 0.0, 1.0, -15.6, -15.6)" width="31.25" xlink:href="#sprite1"/>
    </g>
    <g id="shape0" transform="matrix(1.0, 0.0, 0.0, 1.0, 16.1, 16.1)">
      <path d="M12.35 -0.6 Q12.25 -2.55 11.65 -4.2 10.9 -6.15 9.55 -7.8 L9.25 -8.15 8.7 -8.7 Q7.0 -10.4 5.0 -11.3 L2.1 -12.1 0.0 -12.3 -2.05 -12.15 -5.0 -11.3 -5.25 -11.15 Q-5.5 -12.35 -6.25 -13.35 L-6.8 -14.05 Q-3.7 -15.6 0.05 -15.6 6.1 -15.6 10.55 -11.55 L11.1 -11.0 11.6 -10.45 Q14.9 -6.9 15.5 -2.15 L15.45 -2.15 Q13.55 -1.1 12.35 -0.6 M2.1 -10.05 L2.1 -6.55 1.5 -5.05 -1.05 0.25 -4.45 5.1 -7.6 6.9 Q-9.05 5.3 -9.75 3.35 L-2.05 -1.15 -2.05 -10.05 0.0 -10.25 2.1 -10.05 M2.1 -3.75 L2.1 -1.15 9.75 3.3 Q9.1 5.25 7.65 6.9 L2.1 3.65 2.1 10.1 0.0 10.3 -1.2 10.25 Q-1.05 5.3 0.3 0.95 L2.1 -3.75 M-10.55 11.5 L-11.0 11.05 -11.75 10.25 Q-14.0 7.7 -14.95 4.65 -15.6 2.45 -15.6 0.05 -15.6 -2.4 -14.95 -4.55 -14.5 -6.1 -13.7 -7.45 L-12.85 -5.85 -11.5 -4.55 -11.65 -4.25 Q-12.35 -2.25 -12.35 0.05 -12.35 2.4 -11.6 4.4 -10.85 6.3 -9.45 7.95 L-8.75 8.7 -8.7 8.75 -7.35 9.9 -8.65 10.65 Q-9.75 11.1 -10.55 11.5" fill="#999999" fill-rule="evenodd" stroke="none"/>
      <path d="M2.1 -12.1 L2.1 -10.05 0.0 -10.25 -2.05 -10.05 -2.05 -12.15 0.0 -12.3 2.1 -12.1 M9.75 3.3 L11.6 4.35 Q10.85 6.3 9.45 7.95 L7.65 6.9 Q9.1 5.25 9.75 3.3 M-1.2 10.25 L0.0 10.3 2.1 10.1 2.1 12.25 0.0 12.4 -1.2 12.35 -2.05 12.25 -2.05 10.1 -1.2 10.25 M-7.6 6.9 L-9.45 7.95 Q-10.85 6.3 -11.6 4.4 L-9.75 3.35 Q-9.05 5.3 -7.6 6.9" fill="#636363" fill-rule="evenodd" stroke="none"/>
      <path d="M2.1 -6.55 L2.1 -3.75 0.3 0.95 Q-1.05 5.3 -1.2 10.25 L-2.05 10.1 -2.05 3.7 -4.45 5.1 -1.05 0.25 1.5 -5.05 2.1 -6.55 M-6.8 -14.05 L-6.25 -13.35 Q-5.5 -12.35 -5.25 -11.15 -7.1 -10.3 -8.7 -8.7 L-9.5 -7.8 Q-10.8 -6.35 -11.5 -4.55 L-12.85 -5.85 -13.7 -7.45 Q-12.65 -9.35 -11.0 -11.0 L-10.4 -11.55 Q-8.75 -13.1 -6.8 -14.05" fill="#ffffff" fill-rule="evenodd" stroke="none"/>
      <path d="M11.6 4.35 Q12.35 2.35 12.35 0.05 L12.35 -0.6 Q13.55 -1.1 15.45 -2.15 L15.5 -2.15 15.65 0.05 Q15.65 6.5 11.1 11.05 8.4 13.75 5.1 14.85 2.75 15.65 0.05 15.65 -2.65 15.65 -5.0 14.85 -8.1 13.8 -10.55 11.5 -9.75 11.1 -8.65 10.65 L-7.35 9.9 Q-4.95 11.75 -2.05 12.25 L-1.2 12.35 0.0 12.4 2.1 12.25 Q5.9 11.6 8.7 8.75 L9.45 7.95 Q10.85 6.3 11.6 4.35" fill="#808080" fill-rule="evenodd" stroke="none"/>
      <path d="M12.35 -0.6 Q12.25 -2.55 11.65 -4.2 10.9 -6.15 9.55 -7.8 L9.25 -8.15 8.7 -8.7 Q7.0 -10.4 5.0 -11.3 L2.1 -12.1 2.1 -10.05 2.1 -6.55 2.1 -3.75 2.1 -1.15 9.75 3.3 11.6 4.35 Q12.35 2.35 12.35 0.05 L12.35 -0.6 M15.5 -2.15 Q14.9 -6.9 11.6 -10.45 L11.1 -11.0 10.55 -11.55 Q6.1 -15.6 0.05 -15.6 -3.7 -15.6 -6.8 -14.05 -8.75 -13.1 -10.4 -11.55 L-11.0 -11.0 Q-12.65 -9.35 -13.7 -7.45 -14.5 -6.1 -14.95 -4.55 -15.6 -2.4 -15.6 0.05 -15.6 2.45 -14.95 4.65 -14.0 7.7 -11.75 10.25 L-11.0 11.05 -10.55 11.5 Q-8.1 13.8 -5.0 14.85 -2.65 15.65 0.05 15.65 2.75 15.65 5.1 14.85 8.4 13.75 11.1 11.05 15.65 6.5 15.65 0.05 L15.5 -2.15 M-5.25 -11.15 L-5.0 -11.3 -2.05 -12.15 0.0 -12.3 2.1 -12.1 M2.1 10.1 L2.1 3.65 7.65 6.9 9.45 7.95 Q10.85 6.3 11.6 4.35 M2.1 10.1 L2.1 12.25 Q5.9 11.6 8.7 8.75 L9.45 7.95 M2.1 12.25 L0.0 12.4 -1.2 12.35 -2.05 12.25 Q-4.95 11.75 -7.35 9.9 L-8.7 8.75 -8.75 8.7 -9.45 7.95 -7.6 6.9 -4.45 5.1 -2.05 3.7 -2.05 10.1 -2.05 12.25 M-11.6 4.4 Q-12.35 2.4 -12.35 0.05 -12.35 -2.25 -11.65 -4.25 L-11.5 -4.55 Q-10.8 -6.35 -9.5 -7.8 L-8.7 -8.7 Q-7.1 -10.3 -5.25 -11.15 M-9.75 3.35 L-2.05 -1.15 -2.05 -10.05 -2.05 -12.15 M-9.75 3.35 L-11.6 4.4 Q-10.85 6.3 -9.45 7.95" fill="none" stroke="#000000" stroke-linecap="round" stroke-linejoin="round" stroke-opacity="0.65882355" stroke-width="1.0"/>
    </g>
    <g id="sprite1" transform="matrix(1.0, 0.0, 0.0, 1.0, 15.6, 15.6)">
      <use height="31.25" transform="matrix(1.0, 0.0, 0.0, 1.0, -15.6, -15.6)" width="31.25" xlink:href="#shape1"/>
    </g>
    <g id="shape1" transform="matrix(1.0, 0.0, 0.0, 1.0, 15.6, 15.6)">
      <path d="M11.6 4.35 Q12.35 2.35 12.35 0.05 L12.35 -0.6 Q12.25 -2.55 11.65 -4.2 10.9 -6.15 9.55 -7.8 L9.25 -8.15 8.7 -8.7 Q7.0 -10.4 5.0 -11.3 L2.1 -12.1 0.0 -12.3 -2.05 -12.15 -5.0 -11.3 -5.25 -11.15 Q-7.1 -10.3 -8.7 -8.7 L-9.5 -7.8 Q-10.8 -6.35 -11.5 -4.55 L-11.65 -4.25 Q-12.35 -2.25 -12.35 0.05 -12.35 2.4 -11.6 4.4 -10.85 6.3 -9.45 7.95 L-8.75 8.7 -8.7 8.75 -7.35 9.9 Q-4.95 11.75 -2.05 12.25 L-1.2 12.35 0.0 12.4 2.1 12.25 Q5.9 11.6 8.7 8.75 L9.45 7.95 Q10.85 6.3 11.6 4.35 M11.6 -10.45 Q14.9 -6.9 15.5 -2.15 L15.65 0.05 Q15.65 6.5 11.1 11.05 8.4 13.75 5.1 14.85 2.75 15.65 0.05 15.65 -2.65 15.65 -5.0 14.85 -8.1 13.8 -10.55 11.5 L-11.0 11.05 -11.75 10.25 Q-14.0 7.7 -14.95 4.65 -15.6 2.45 -15.6 0.05 -15.6 -2.4 -14.95 -4.55 -14.5 -6.1 -13.7 -7.45 -12.65 -9.35 -11.0 -11.0 L-10.4 -11.55 Q-8.75 -13.1 -6.8 -14.05 -3.7 -15.6 0.05 -15.6 6.1 -15.6 10.55 -11.55 L11.1 -11.0 11.6 -10.45" fill="url(#gradient0)" fill-rule="evenodd" stroke="none"/>
      <path d="M2.1 -12.1 L2.1 -1.15 11.6 4.35 Q10.85 6.3 9.45 7.95 L2.1 3.65 2.1 12.25 0.0 12.4 -1.2 12.35 -2.05 12.25 -2.05 3.7 -9.45 7.95 Q-10.85 6.3 -11.6 4.4 L-2.05 -1.15 -2.05 -12.15 0.0 -12.3 2.1 -12.1" fill="url(#gradient1)" fill-rule="evenodd" stroke="none"/>
    </g>
    <linearGradient gradientTransform="matrix(-0.0049, -0.0184, 0.0184, -0.0049, 0.0, 0.0)" gradientUnits="userSpaceOnUse" id="gradient0" spreadMethod="pad" x1="-819.2" x2="819.2">
      <stop offset="0.0" stop-color="#000000"/>
      <stop offset="1.0" stop-color="#ffffff"/>
    </linearGradient>
    <linearGradient gradientTransform="matrix(0.0, -0.0141, 0.0151, 0.0, 0.3, 1.2)" gradientUnits="userSpaceOnUse" id="gradient1" spreadMethod="pad" x1="-819.2" x2="819.2">
      <stop offset="0.0" stop-color="#000000"/>
      <stop offset="1.0" stop-color="#ffffff"/>
    </linearGradient>
  </defs>
</svg>
