<?xml version="1.0" encoding="UTF-8" standalone="no"?>
<svg xmlns:xlink="http://www.w3.org/1999/xlink" height="531.5px" width="460.6px" xmlns="http://www.w3.org/2000/svg">
  <g transform="matrix(1.0, 0.0, 0.0, 1.0, 193.65, 334.05)">
    <use height="98.3" transform="matrix(1.0, 0.0, 0.0, 1.0, -79.65, -20.5)" width="138.9" xlink:href="#shape0"/>
    <use height="106.3" transform="matrix(-0.0062, 1.2971, -1.2971, -0.0062, 58.8729, -19.9264)" width="75.15" xlink:href="#sprite0"/>
    <use height="97.55" transform="matrix(1.0, 0.0, 0.0, 1.0, -72.6, -57.95)" width="58.2" xlink:href="#shape2"/>
  </g>
  <defs>
    <g id="shape0" transform="matrix(1.0, 0.0, 0.0, 1.0, 79.65, 20.5)">
      <path d="M12.05 -8.35 L10.3 -5.7 8.5 -8.35 10.1 -10.95 12.05 -8.35" fill="#333333" fill-rule="evenodd" stroke="none"/>
      <path d="M37.6 -8.25 L12.05 -8.35 10.1 -10.95 8.5 -8.35 0.3 -8.4 0.8 -20.0 41.9 -20.0 42.3 -12.15 37.6 -8.25" fill="#5c5c5c" fill-rule="evenodd" stroke="none"/>
      <path d="M12.05 -8.35 L37.6 -8.25 42.5 -5.4 42.75 4.25 42.85 15.6 42.85 18.9 31.3 46.75 28.35 53.9 22.7 54.75 Q12.55 57.2 14.45 75.85 8.25 78.5 0.35 76.3 -0.55 55.25 -0.6 33.7 L-0.6 29.65 -0.25 6.2 0.3 -8.4 8.5 -8.35 10.3 -5.7 12.05 -8.35" fill="#bfbfbf" fill-rule="evenodd" stroke="none"/>
      <path d="M42.5 -5.4 L37.6 -8.25 42.3 -12.15 42.45 -8.2 42.5 -5.4" fill="#7d7d7d" fill-rule="evenodd" stroke="none"/>
      <path d="M42.85 18.9 L42.85 15.6 42.75 4.25 57.05 3.7 57.9 7.95 54.85 8.65 58.05 9.15 58.5 12.85 Q59.2 20.5 57.9 28.05 L57.6 29.8 51.7 32.7 42.65 32.25 42.75 27.6 42.85 18.9 M42.85 15.6 L46.6 14.45 Q50.55 12.85 57.1 12.85 L58.5 12.85 57.1 12.85 Q50.55 12.85 46.6 14.45 L42.85 15.6 M57.9 28.05 L42.75 27.6 57.9 28.05 M-18.9 6.15 L-11.8 6.2 -11.7 6.8 Q-11.15 13.45 -11.2 19.5 -11.25 25.6 -11.6 29.7 L-17.25 29.9 -29.85 30.35 -77.2 29.45 -78.2 29.45 -78.6 27.25 -71.2 25.5 -78.95 25.0 Q-79.3 21.05 -79.1 16.95 L-68.3 16.95 -48.6 16.3 Q-30.1 14.55 -18.9 6.15" fill="#cc9054" fill-rule="evenodd" stroke="none"/>
      <path d="M-0.25 6.2 L-0.6 29.65 -3.65 29.5 -11.6 29.7 Q-11.25 25.6 -11.2 19.5 -11.15 13.45 -11.7 6.8 L-11.8 6.2 -0.25 6.2 M57.6 29.8 L56.0 32.7 51.7 32.7 57.6 29.8" fill="#9c6127" fill-rule="evenodd" stroke="none"/>
      <path d="M31.3 46.75 L42.85 18.9 42.75 27.6 42.65 32.25 41.85 51.65 37.3 52.4 31.3 46.75" fill="#a6a6a6" fill-rule="evenodd" stroke="none"/>
      <path d="M28.35 53.9 L31.3 46.75 37.3 52.4 28.35 53.9" fill="#ebebeb" fill-rule="evenodd" stroke="none"/>
      <path d="M-0.6 29.65 L-0.6 33.7 -12.15 33.6 -11.7 30.2 -11.6 29.7 -3.65 29.5 -0.6 29.65" fill="#9c6727" fill-rule="evenodd" stroke="none"/>
      <path d="M-11.6 29.7 L-11.7 30.2 -12.15 33.6 Q-42.3 33.45 -76.8 34.9 L-78.2 29.45 -77.2 29.45 -29.85 30.35 -17.25 29.9 -11.6 29.7" fill="#cc9654" fill-rule="evenodd" stroke="none"/>
      <path d="M-79.1 16.95 Q-78.65 10.7 -76.65 4.35 L-18.9 6.15 Q-30.1 14.55 -48.6 16.3 L-68.3 16.95 -79.1 16.95" fill="#bf864e" fill-rule="evenodd" stroke="none"/>
      <path d="M37.6 -8.25 L12.05 -8.35 10.3 -5.7 8.5 -8.35 0.3 -8.4 -0.25 6.2 -0.6 29.65 -0.6 33.7 Q-0.55 55.25 0.35 76.3 8.25 78.5 14.45 75.85 12.55 57.2 22.7 54.75 L28.35 53.9 37.3 52.4 41.85 51.65 42.65 32.25 42.75 27.6 42.85 18.9 42.85 15.6 42.75 4.25 42.5 -5.4 37.6 -8.25 42.3 -12.15 41.9 -20.0 0.8 -20.0 0.3 -8.4 M12.05 -8.35 L10.1 -10.95 8.5 -8.35 M42.3 -12.15 L42.45 -8.2 42.5 -5.4 M42.75 4.25 L57.05 3.7 57.9 7.95 54.85 8.65 58.05 9.15 58.5 12.85 Q59.2 20.5 57.9 28.05 L57.6 29.8 56.0 32.7 51.7 32.7 42.65 32.25 M57.6 29.8 L51.7 32.7 M-18.9 6.15 L-11.8 6.2 -0.25 6.2 M-12.15 33.6 L-0.6 33.7 M-79.1 16.95 Q-78.65 10.7 -76.65 4.35 L-18.9 6.15 M-79.1 16.95 Q-79.3 21.05 -78.95 25.0 L-71.2 25.5 -78.6 27.25 -78.2 29.45 -76.8 34.9 Q-42.3 33.45 -12.15 33.6" fill="none" stroke="#000000" stroke-linecap="round" stroke-linejoin="round" stroke-opacity="0.6627451" stroke-width="1.0"/>
      <path d="M58.5 12.85 L57.1 12.85 Q50.55 12.85 46.6 14.45 L42.85 15.6 M42.75 27.6 L57.9 28.05 M-11.6 29.7 L-3.65 29.5 -0.6 29.65 M-78.2 29.45 L-77.2 29.45 -29.85 30.35 -17.25 29.9 -11.6 29.7 M-18.9 6.15 Q-30.1 14.55 -48.6 16.3 L-68.3 16.95 -79.1 16.95" fill="none" stroke="#000000" stroke-linecap="round" stroke-linejoin="round" stroke-opacity="0.2" stroke-width="0.5"/>
      <path d="M28.35 53.9 L31.3 46.75 42.85 18.9 M37.3 52.4 L31.3 46.75" fill="none" stroke="#000000" stroke-linecap="round" stroke-linejoin="round" stroke-opacity="0.4117647" stroke-width="1.0"/>
    </g>
    <g id="sprite0" transform="matrix(1.0, 0.0, 0.0, 1.0, 37.55, 53.15)">
      <use height="106.3" transform="matrix(1.0, 0.0, 0.0, 1.0, -37.55, -53.15)" width="75.15" xlink:href="#shape1"/>
    </g>
    <g id="shape1" transform="matrix(1.0, 0.0, 0.0, 1.0, 37.55, 53.15)">
      <path d="M-28.45 -8.0 L-37.4 -8.35 -37.55 -40.0 -31.5 -40.35 -28.45 -40.5 -26.3 -40.55 -28.45 -36.75 -28.45 -17.05 -26.4 -15.75 -28.45 -14.3 -28.45 -8.0" fill="url(#gradient0)" fill-rule="evenodd" stroke="none"/>
      <path d="M2.75 -40.8 L17.7 -40.25 20.15 -25.5 Q22.1 -17.7 36.45 -19.2 38.5 -14.45 36.85 -8.35 20.6 -7.55 4.0 -7.45 L0.9 -7.45 -17.2 -7.65 -28.45 -8.0 -28.45 -14.3 -26.4 -15.75 -28.45 -17.05 -28.45 -36.75 -26.3 -40.55 -18.85 -40.8 -10.1 -40.9 -7.55 -40.9 -0.85 -40.85 2.75 -40.8" fill="url(#gradient1)" fill-rule="evenodd" stroke="none"/>
      <path d="M4.0 -7.45 L3.95 1.45 Q3.95 24.7 5.2 51.25 L1.05 52.4 -0.65 52.7 -2.05 47.0 -2.4 52.95 -8.6 53.1 Q-13.4 52.8 -18.35 51.25 -17.25 28.35 -17.15 6.75 L-17.15 1.25 -17.2 -7.65 0.9 -7.45 4.0 -7.45" fill="url(#gradient2)" fill-rule="evenodd" stroke="none"/>
      <path d="M-18.85 -40.8 L-19.3 -51.8 -16.05 -52.45 -15.5 -50.1 -15.1 -52.6 -12.25 -52.95 -0.55 -52.55 0.8 -52.3 3.05 -51.1 2.75 -40.8 -0.85 -40.85 -7.55 -40.9 -10.1 -40.9 -18.85 -40.8" fill="url(#gradient3)" fill-rule="evenodd" stroke="none"/>
    </g>
    <linearGradient gradientTransform="matrix(-0.0069, 0.0, 0.0, -0.0199, -33.5, -24.0)" gradientUnits="userSpaceOnUse" id="gradient0" spreadMethod="pad" x1="-819.2" x2="819.2">
      <stop offset="0.0" stop-color="#000000"/>
      <stop offset="1.0" stop-color="#ffffff"/>
    </linearGradient>
    <linearGradient gradientTransform="matrix(-1.0E-4, -0.0191, 0.0204, -1.0E-4, 4.7, -23.4)" gradientUnits="userSpaceOnUse" id="gradient1" spreadMethod="pad" x1="-819.2" x2="819.2">
      <stop offset="0.0" stop-color="#000000"/>
      <stop offset="1.0" stop-color="#ffffff"/>
    </linearGradient>
    <linearGradient gradientTransform="matrix(0.0, 0.0256, -0.0371, 0.0, -5.05, 10.25)" gradientUnits="userSpaceOnUse" id="gradient2" spreadMethod="pad" x1="-819.2" x2="819.2">
      <stop offset="0.0" stop-color="#5e5e5e" stop-opacity="0.5137255"/>
      <stop offset="1.0" stop-color="#ffffff"/>
    </linearGradient>
    <linearGradient gradientTransform="matrix(0.0, -0.0079, 0.0075, 0.0, -8.15, -47.0)" gradientUnits="userSpaceOnUse" id="gradient3" spreadMethod="pad" x1="-819.2" x2="819.2">
      <stop offset="0.0" stop-color="#666666" stop-opacity="0.5019608"/>
      <stop offset="1.0" stop-color="#ffffff"/>
    </linearGradient>
    <g id="shape2" transform="matrix(1.0, 0.0, 0.0, 1.0, 72.6, 57.95)">
      <path d="M-54.85 -57.25 L-54.85 -56.8 -54.85 -56.75 Q-54.55 -57.25 -55.05 -56.0 L-56.45 -52.8 -59.5 -46.0 Q-63.4 -37.2 -65.6 -30.9 -67.85 -24.7 -69.4 -18.9 -70.1 -16.55 -70.3 -14.15 L-70.75 -7.5 Q-71.0 -3.25 -70.0 2.3 L-67.5 15.1 Q-65.95 22.35 -64.85 25.45 -63.85 28.3 -62.2 30.55 L-62.0 30.8 Q-61.4 31.6 -60.5 32.2 -58.9 33.15 -56.4 33.5 L-56.1 33.55 -56.6 32.8 Q-57.5 31.35 -57.5 30.35 L-57.15 29.55 Q-56.9 29.2 -54.1 33.25 -51.35 37.3 -48.5 37.25 -45.7 37.15 -44.05 35.9 L-43.25 35.4 -42.7 35.1 -42.6 35.05 -42.65 35.0 -42.8 34.4 -42.85 34.1 -42.7 33.05 -42.4 32.8 -39.9 35.15 Q-36.8 37.1 -34.55 37.15 -32.95 37.2 -31.9 36.6 L-31.15 36.05 -30.8 35.65 -29.95 34.3 -29.95 34.25 -30.45 31.5 -30.55 28.95 -30.55 27.0 -30.4 25.5 -30.05 24.55 -28.5 22.3 -27.85 21.35 Q-27.25 20.45 -27.3 18.7 L-27.35 15.75 -26.5 10.1 Q-26.4 9.3 -25.5 8.5 L-23.85 7.3 Q-21.6 6.0 -19.3 5.6 L-18.65 5.5 -18.65 5.45 -18.05 5.2 Q-17.8 5.0 -17.8 4.55 L-18.2 3.0 -18.35 2.7 -19.2 0.05 -19.25 -0.1 -20.05 -1.95 Q-20.55 -2.75 -21.25 -2.75 L-23.0 -2.7 -24.45 -2.75 -24.65 -3.3 Q-25.35 -4.7 -25.8 -7.15 L-26.3 -11.0 Q-26.3 -12.3 -25.55 -15.55 L-24.95 -18.05 Q-23.8 -21.7 -21.65 -26.7 L-15.55 -40.5 -15.4 -40.9 -14.85 -40.55 -14.7 -40.4 Q-14.4 -40.0 -14.4 -39.15 L-19.65 -28.05 Q-24.9 -15.95 -24.9 -10.05 L-24.4 -6.15 -23.95 -4.35 -23.85 -4.1 -21.55 -4.4 -19.2 -4.1 -18.4 -2.7 Q-17.05 -0.05 -16.5 2.95 L-16.35 3.6 Q-16.0 5.3 -16.0 5.9 -16.0 6.8 -16.6 7.05 L-18.95 7.55 Q-20.7 7.8 -22.45 8.75 -24.25 9.65 -24.7 11.4 -25.25 13.1 -25.45 15.7 L-25.7 20.15 Q-25.75 22.05 -26.95 23.65 -28.2 25.25 -28.55 26.55 L-28.25 29.65 Q-28.25 30.95 -27.6 32.85 L-27.2 34.05 -27.3 35.0 -27.7 35.75 -27.75 35.9 -27.85 35.95 Q-28.4 36.85 -29.8 37.95 -32.0 39.6 -33.7 39.6 -37.65 39.6 -40.55 37.35 L-40.9 37.05 -42.5 37.9 Q-45.45 39.4 -47.15 39.4 L-47.45 39.4 Q-49.0 39.35 -50.45 38.7 -52.7 37.75 -54.7 35.4 L-54.7 35.35 -54.9 35.45 -55.35 35.55 -56.4 35.6 Q-63.8 35.6 -66.9 25.1 L-68.35 19.8 -69.6 14.15 -71.3 3.65 Q-72.6 -3.8 -72.6 -7.45 -72.6 -11.15 -71.25 -16.95 -69.9 -22.8 -62.4 -42.5 -55.55 -60.65 -54.9 -57.45 L-54.85 -57.25" fill="#000000" fill-rule="evenodd" stroke="none"/>
      <path d="M-60.5 32.2 Q-61.4 31.6 -62.0 30.8 L-62.2 30.55 Q-63.85 28.3 -64.85 25.45 -65.95 22.35 -67.5 15.1 L-70.0 2.3 Q-71.0 -3.25 -70.75 -7.5 L-70.3 -14.15 Q-70.1 -16.55 -69.4 -18.9 -67.85 -24.7 -65.6 -30.9 -63.4 -37.2 -59.5 -46.0 L-56.45 -52.8 -55.05 -56.0 Q-54.55 -57.25 -54.85 -56.75 L-54.85 -56.8 -54.85 -57.25 -54.65 -57.25 -53.55 -57.3 -53.6 -57.2 -55.15 -53.2 -57.25 -48.05 Q-60.85 -38.85 -62.9 -32.25 -65.0 -25.75 -66.45 -19.7 -67.15 -17.25 -67.3 -14.7 L-67.85 -7.75 Q-68.1 -3.3 -67.25 2.5 L-65.15 15.85 Q-63.85 23.45 -62.95 26.7 L-61.65 30.15 -60.5 32.2 M-15.55 -40.5 L-21.65 -26.7 Q-23.8 -21.7 -24.95 -18.05 L-25.55 -15.55 Q-26.3 -12.3 -26.3 -11.0 L-25.8 -7.15 Q-25.35 -4.7 -24.65 -3.3 L-24.45 -2.75 -26.2 -2.8 -26.4 -3.35 Q-27.05 -4.85 -27.4 -7.4 L-27.8 -11.45 Q-27.8 -12.8 -27.05 -16.2 L-26.5 -18.8 -23.45 -27.85 -17.55 -43.1 -15.55 -40.5 M-23.0 -2.7 L-21.25 -2.75 Q-20.55 -2.75 -20.05 -1.95 L-19.25 -0.1 -19.2 0.05 -18.35 2.7 -18.2 3.0 -17.8 4.55 Q-17.8 5.0 -18.05 5.2 L-18.65 5.45 -18.65 5.5 -19.3 5.6 Q-21.6 6.0 -23.85 7.3 L-25.5 8.5 Q-26.4 9.3 -26.5 10.1 L-27.35 15.75 -27.3 18.7 Q-27.25 20.45 -27.85 21.35 L-28.5 22.3 -30.05 24.55 -30.4 25.5 -30.55 27.0 -30.55 28.95 -30.45 31.5 -29.95 34.25 -29.95 34.3 -30.8 35.65 -31.15 36.05 -31.9 36.6 -31.65 35.95 -31.65 35.9 -31.7 35.25 -32.0 33.05 -32.1 30.35 -32.05 28.3 Q-32.05 26.65 -31.6 25.75 L-31.25 25.1 -29.6 22.4 -29.4 21.9 Q-29.05 21.0 -29.05 19.65 L-29.1 16.55 -28.25 10.65 Q-28.1 9.45 -26.35 8.1 L-25.85 7.7 Q-23.5 6.15 -21.1 5.85 L-21.1 5.8 -20.6 5.5 -20.4 5.2 -20.35 4.85 -20.75 3.2 -20.8 2.9 -21.6 0.15 -21.6 -0.05 -22.3 -1.95 -23.0 -2.7 M-42.8 34.4 L-42.65 35.0 -42.6 35.05 -42.7 35.1 -43.25 35.4 -43.1 34.7 -43.1 34.65 -43.05 34.6 -42.85 34.4 -42.8 34.4" fill="#bdbdbd" fill-rule="evenodd" stroke="none"/>
      <path d="M-24.45 -2.75 L-23.0 -2.7 -22.3 -1.95 -21.6 -0.05 -21.6 0.15 -20.8 2.9 -20.75 3.2 -20.35 4.85 -20.4 5.2 -20.6 5.5 -21.1 5.8 -21.1 5.85 Q-23.5 6.15 -25.85 7.7 L-26.35 8.1 Q-28.1 9.45 -28.25 10.65 L-29.1 16.55 -29.05 19.65 Q-29.05 21.0 -29.4 21.9 L-29.6 22.4 -31.25 25.1 -31.6 25.75 Q-32.05 26.65 -32.05 28.3 L-32.1 30.35 -32.0 33.05 -31.7 35.25 -31.65 35.9 -31.65 35.95 -31.9 36.6 Q-32.95 37.2 -34.55 37.15 -36.8 37.1 -39.9 35.15 L-42.4 32.8 -42.7 33.05 -42.85 34.1 -42.8 34.4 -42.85 34.4 -43.05 34.6 -43.1 34.65 -43.1 34.7 -43.25 35.4 -44.05 35.9 Q-45.7 37.15 -48.5 37.25 -51.35 37.3 -54.1 33.25 -56.9 29.2 -57.15 29.55 L-57.5 30.35 Q-57.5 31.35 -56.6 32.8 L-56.1 33.55 -56.4 33.5 Q-58.9 33.15 -60.5 32.2 L-61.65 30.15 -62.95 26.7 Q-63.85 23.45 -65.15 15.85 L-67.25 2.5 Q-68.1 -3.3 -67.85 -7.75 L-67.3 -14.7 Q-67.15 -17.25 -66.45 -19.7 -65.0 -25.75 -62.9 -32.25 -60.85 -38.85 -57.25 -48.05 L-55.15 -53.2 -53.6 -57.2 -53.55 -57.3 Q-29.45 -57.6 -17.55 -43.1 L-23.45 -27.85 -26.5 -18.8 -27.05 -16.2 Q-27.8 -12.8 -27.8 -11.45 L-27.4 -7.4 Q-27.05 -4.85 -26.4 -3.35 L-26.2 -2.8 -24.45 -2.75" fill="#999999" fill-rule="evenodd" stroke="none"/>
    </g>
  </defs>
</svg>
