<?xml version="1.0" encoding="UTF-8" standalone="no"?>
<svg xmlns:xlink="http://www.w3.org/1999/xlink" height="531.5px" width="460.6px" xmlns="http://www.w3.org/2000/svg">
  <g transform="matrix(1.0, 0.0, 0.0, 1.0, 193.65, 334.05)">
    <use height="70.6" transform="matrix(0.4656, 0.0, 0.0, 0.4656, -69.0648, -32.3648)" width="280.7" xlink:href="#sprite0"/>
  </g>
  <defs>
    <g id="sprite0" transform="matrix(1.0, 0.0, 0.0, 1.0, 1.75, 1.75)">
      <use height="70.6" transform="matrix(1.0, 0.0, 0.0, 1.0, -1.75, -1.75)" width="280.7" xlink:href="#shape0"/>
      <use height="67.1" transform="matrix(1.0, 0.0, 0.0, 1.0, 0.0, 0.0)" width="277.2" xlink:href="#sprite1"/>
    </g>
    <g id="shape0" transform="matrix(1.0, 0.0, 0.0, 1.0, 1.75, 1.75)">
      <path d="M262.25 16.85 L274.75 14.2 Q277.15 13.8 277.2 18.45 L277.1 22.8 Q271.15 25.45 270.95 25.65 L266.95 25.65 262.25 16.9 262.25 16.85 M15.85 1.9 Q113.5 20.5 183.3 22.05 L183.05 25.1 Q182.05 27.45 177.35 29.65 172.95 31.7 166.15 32.0 L149.35 32.05 Q104.55 32.05 63.4 19.8 42.55 13.6 15.85 1.9" fill="#242424" fill-rule="evenodd" stroke="none"/>
      <path d="M277.1 22.8 L276.35 45.9 Q276.7 50.05 272.65 51.4 L252.4 52.6 252.35 51.85 Q255.0 50.9 257.85 48.95 260.65 47.0 262.2 38.4 263.75 29.7 260.95 24.35 258.1 19.0 257.1 17.75 L262.25 16.85 262.25 16.9 266.95 25.65 270.95 25.65 Q271.15 25.45 277.1 22.8 M201.95 54.15 Q109.5 55.05 11.1 42.7 1.45 42.85 1.65 36.8 L0.0 5.05 Q-0.25 0.2 6.05 0.0 L15.85 1.9 Q42.55 13.6 63.4 19.8 104.55 32.05 149.35 32.05 L166.15 32.0 Q172.95 31.7 177.35 29.65 182.05 27.45 183.05 25.1 L183.3 22.05 195.7 22.2 Q186.1 36.1 196.95 51.25 199.15 53.0 201.95 54.15 M254.35 36.45 Q247.8 41.05 238.95 38.65 236.6 35.8 239.95 32.85 246.5 27.15 253.75 28.05 256.45 33.9 254.35 36.45 M222.15 39.65 Q217.8 41.35 209.35 39.65 204.75 35.5 207.35 28.45 215.95 26.4 224.35 34.65 225.05 37.85 222.15 39.65" fill="#000000" fill-rule="evenodd" stroke="none"/>
      <path d="M252.3 52.6 Q251.95 54.75 250.75 57.45 L248.65 56.85 Q240.35 53.65 238.15 53.65 234.8 53.65 233.3 56.45 231.85 59.25 229.75 59.25 227.7 59.25 226.15 57.25 224.6 55.25 222.95 55.25 221.3 55.25 219.8 56.45 218.25 57.65 216.55 57.65 215.25 57.65 211.25 52.6 L206.15 46.45 Q204.1 44.85 202.35 39.45 200.55 34.0 200.55 29.25 200.55 26.45 202.1 18.4 L202.85 14.6 Q221.75 0.4 245.8 9.3 251.45 10.85 257.1 17.75 258.1 19.0 260.95 24.35 263.75 29.7 262.2 38.4 260.65 47.0 257.85 48.95 255.0 50.9 252.35 51.85 L252.3 52.6 M254.35 36.45 Q256.45 33.9 253.75 28.05 246.5 27.15 239.95 32.85 236.6 35.8 238.95 38.65 247.8 41.05 254.35 36.45 M222.15 39.65 Q225.05 37.85 224.35 34.65 215.95 26.4 207.35 28.45 204.75 35.5 209.35 39.65 217.8 41.35 222.15 39.65" fill="#e0ddd0" fill-rule="evenodd" stroke="none"/>
      <path d="M250.75 57.45 L248.3 61.85 Q243.15 65.65 236.1 65.95 L235.95 65.6 236.25 65.05 235.8 65.3 235.5 65.45 Q228.8 68.4 221.35 66.15 L221.05 66.05 220.7 66.25 Q214.05 66.7 210.2 64.7 206.5 60.95 205.45 55.25 L201.95 54.15 Q199.15 53.0 196.95 51.25 186.1 36.1 195.7 22.2 197.8 19.1 200.95 16.05 L202.85 14.6 202.1 18.4 Q200.55 26.45 200.55 29.25 200.55 34.0 202.35 39.45 204.1 44.85 206.15 46.45 L211.25 52.6 Q215.25 57.65 216.55 57.65 218.25 57.65 219.8 56.45 221.3 55.25 222.95 55.25 224.6 55.25 226.15 57.25 227.7 59.25 229.75 59.25 231.85 59.25 233.3 56.45 234.8 53.65 238.15 53.65 240.35 53.65 248.65 56.85 L250.75 57.45 M220.25 60.05 Q219.4 63.2 221.05 66.05 219.4 63.2 220.25 60.05 M236.25 65.05 Q236.95 61.15 236.25 59.15 236.95 61.15 236.25 65.05" fill="#c6bfa8" fill-rule="evenodd" stroke="none"/>
      <path d="M262.25 16.85 L274.75 14.2 Q277.15 13.8 277.2 18.45 L277.1 22.8 276.35 45.9 Q276.7 50.05 272.65 51.4 L252.4 52.6 252.3 52.6 Q251.95 54.75 250.75 57.45 L248.3 61.85 Q243.15 65.65 236.1 65.95 L235.75 65.85 235.5 65.45 Q228.8 68.4 221.35 66.15 L220.7 66.25 Q214.05 66.7 210.2 64.7 206.5 60.95 205.45 55.25 L201.95 54.15 Q109.5 55.05 11.1 42.7 1.45 42.85 1.65 36.8 L0.0 5.05 Q-0.25 0.2 6.05 0.0 L15.85 1.9 Q113.5 20.5 183.3 22.05 L195.7 22.2 Q197.8 19.1 200.95 16.05 L202.85 14.6 Q221.75 0.4 245.8 9.3 251.45 10.85 257.1 17.75 L262.25 16.85 M257.1 17.75 Q258.1 19.0 260.95 24.35 263.75 29.7 262.2 38.4 260.65 47.0 257.85 48.95 255.0 50.9 252.35 51.85 L252.3 52.6 M254.35 36.45 Q247.8 41.05 238.95 38.65 236.6 35.8 239.95 32.85 246.5 27.15 253.75 28.05 256.45 33.9 254.35 36.45 M222.15 39.65 Q217.8 41.35 209.35 39.65 204.75 35.5 207.35 28.45 215.95 26.4 224.35 34.65 225.05 37.85 222.15 39.65 M201.95 54.15 Q199.15 53.0 196.95 51.25 186.1 36.1 195.7 22.2 M236.25 65.05 L235.8 65.3 235.5 65.45 M236.25 59.15 Q236.95 61.15 236.25 65.05 M221.05 66.05 Q219.4 63.2 220.25 60.05 M221.35 66.15 L221.05 66.05" fill="none" stroke="#000000" stroke-linecap="round" stroke-linejoin="round" stroke-opacity="0.6627451" stroke-width="3.5"/>
    </g>
    <g id="sprite1" transform="matrix(1.0, 0.0, 0.0, 1.0, 0.0, 0.0)">
      <use height="67.1" transform="matrix(1.0, 0.0, 0.0, 1.0, 0.0, 0.0)" width="277.2" xlink:href="#shape1"/>
    </g>
    <g id="shape1" transform="matrix(1.0, 0.0, 0.0, 1.0, 0.0, 0.0)">
      <path d="M252.35 51.85 L252.3 52.6 Q251.95 54.75 250.75 57.45 L248.3 61.85 Q243.15 65.65 236.1 65.95 L235.95 65.6 236.25 65.05 235.8 65.3 235.5 65.45 Q228.8 68.4 221.35 66.15 L221.05 66.05 220.7 66.25 Q214.05 66.7 210.2 64.7 206.5 60.95 205.45 55.25 L201.95 54.15 Q199.15 53.0 196.95 51.25 186.1 36.1 195.7 22.2 197.8 19.1 200.95 16.05 L202.85 14.6 Q221.75 0.4 245.8 9.3 251.45 10.85 257.1 17.75 258.1 19.0 260.95 24.35 263.75 29.7 262.2 38.4 260.65 47.0 257.85 48.95 255.0 50.9 252.35 51.85 M254.35 36.45 Q256.45 33.9 253.75 28.05 246.5 27.15 239.95 32.85 236.6 35.8 238.95 38.65 247.8 41.05 254.35 36.45 M224.35 34.65 Q215.95 26.4 207.35 28.45 204.75 35.5 209.35 39.65 217.8 41.35 222.15 39.65 225.05 37.85 224.35 34.65" fill="url(#gradient0)" fill-rule="evenodd" stroke="none"/>
      <path d="M201.95 54.15 Q109.5 55.05 11.1 42.7 1.45 42.85 1.65 36.8 L0.0 5.05 Q-0.25 0.2 6.05 0.0 L15.85 1.9 Q113.5 20.5 183.3 22.05 L195.7 22.2 Q186.1 36.1 196.95 51.25 199.15 53.0 201.95 54.15" fill="url(#gradient1)" fill-rule="evenodd" stroke="none"/>
      <path d="M257.1 17.75 L262.25 16.85 274.75 14.2 Q277.15 13.8 277.2 18.45 L276.35 45.9 Q276.7 50.05 272.65 51.4 L252.4 52.6 252.35 51.85 Q255.0 50.9 257.85 48.95 260.65 47.0 262.2 38.4 263.75 29.7 260.95 24.35 258.1 19.0 257.1 17.75" fill="url(#gradient2)" fill-rule="evenodd" stroke="none"/>
      <path d="M254.35 36.45 Q247.8 41.05 238.95 38.65 236.6 35.8 239.95 32.85 246.5 27.15 253.75 28.05 256.45 33.9 254.35 36.45" fill="url(#gradient3)" fill-rule="evenodd" stroke="none"/>
      <path d="M224.35 34.65 Q225.05 37.85 222.15 39.65 217.8 41.35 209.35 39.65 204.75 35.5 207.35 28.45 215.95 26.4 224.35 34.65" fill="url(#gradient4)" fill-rule="evenodd" stroke="none"/>
    </g>
    <linearGradient gradientTransform="matrix(-4.0E-4, -0.0436, 0.0374, -3.0E-4, 226.9, 36.45)" gradientUnits="userSpaceOnUse" id="gradient0" spreadMethod="pad" x1="-819.2" x2="819.2">
      <stop offset="0.0" stop-color="#000000"/>
      <stop offset="1.0" stop-color="#ffffff"/>
    </linearGradient>
    <linearGradient gradientTransform="matrix(0.0049, -0.0325, 0.0327, 0.0049, 100.95, 27.1)" gradientUnits="userSpaceOnUse" id="gradient1" spreadMethod="pad" x1="-819.2" x2="819.2">
      <stop offset="0.0" stop-color="#000000"/>
      <stop offset="1.0" stop-color="#ffffff"/>
    </linearGradient>
    <linearGradient gradientTransform="matrix(-0.0043, -0.0249, 0.0231, -0.004, 264.75, 33.45)" gradientUnits="userSpaceOnUse" id="gradient2" spreadMethod="pad" x1="-819.2" x2="819.2">
      <stop offset="0.0" stop-color="#000000"/>
      <stop offset="1.0" stop-color="#ffffff"/>
    </linearGradient>
    <linearGradient gradientTransform="matrix(0.0378, 0.0, 0.0, 0.007, 261.6, 32.0)" gradientUnits="userSpaceOnUse" id="gradient3" spreadMethod="pad" x1="-819.2" x2="819.2">
      <stop offset="0.0" stop-color="#000000"/>
      <stop offset="1.0" stop-color="#ffffff"/>
    </linearGradient>
    <linearGradient gradientTransform="matrix(-0.0264, -0.0042, 0.0012, -0.0075, 204.9, 32.3)" gradientUnits="userSpaceOnUse" id="gradient4" spreadMethod="pad" x1="-819.2" x2="819.2">
      <stop offset="0.0" stop-color="#000000"/>
      <stop offset="1.0" stop-color="#ffffff"/>
    </linearGradient>
  </defs>
</svg>
