<?xml version="1.0" encoding="UTF-8" standalone="no"?>
<svg xmlns:xlink="http://www.w3.org/1999/xlink" height="531.5px" width="460.6px" xmlns="http://www.w3.org/2000/svg">
  <g transform="matrix(1.0, 0.0, 0.0, 1.0, 193.65, 334.05)">
    <use height="77.6" transform="matrix(0.4557, 0.0, 0.0, 0.4557, -0.7279, -101.2779)" width="133.5" xlink:href="#sprite0"/>
  </g>
  <defs>
    <g id="sprite0" transform="matrix(1.0, 0.0, 0.0, 1.0, 0.5, 0.5)">
      <use height="77.6" transform="matrix(1.0, 0.0, 0.0, 1.0, -0.5, -0.5)" width="133.5" xlink:href="#shape0"/>
      <use height="76.6" transform="matrix(1.0, 0.0, 0.0, 1.0, 0.0, 0.0)" width="132.5" xlink:href="#sprite1"/>
      <use height="77.6" transform="matrix(1.0, 0.0, 0.0, 1.0, -0.5, -0.5)" width="133.5" xlink:href="#shape0"/>
      <use height="76.6" transform="matrix(1.0, 0.0, 0.0, 1.0, 0.0, 0.0)" width="132.5" xlink:href="#sprite1"/>
      <use height="77.6" transform="matrix(1.0, 0.0, 0.0, 1.0, -0.5, -0.5)" width="133.5" xlink:href="#shape0"/>
      <use height="76.6" transform="matrix(1.0, 0.0, 0.0, 1.0, 0.0, 0.0)" width="132.5" xlink:href="#sprite1"/>
      <use height="77.6" transform="matrix(1.0, 0.0, 0.0, 1.0, -0.5, -0.5)" width="133.5" xlink:href="#shape0"/>
      <use height="76.6" transform="matrix(1.0, 0.0, 0.0, 1.0, 0.0, 0.0)" width="132.5" xlink:href="#sprite1"/>
      <use height="77.6" transform="matrix(1.0, 0.0, 0.0, 1.0, -0.5, -0.5)" width="133.5" xlink:href="#shape0"/>
      <use height="76.6" transform="matrix(1.0, 0.0, 0.0, 1.0, 0.0, 0.0)" width="132.5" xlink:href="#sprite1"/>
      <use height="77.6" transform="matrix(1.0, 0.0, 0.0, 1.0, -0.5, -0.5)" width="133.5" xlink:href="#shape0"/>
      <use height="76.6" transform="matrix(1.0, 0.0, 0.0, 1.0, 0.0, 0.0)" width="132.5" xlink:href="#sprite1"/>
      <use height="77.6" transform="matrix(1.0, 0.0, 0.0, 1.0, -0.5, -0.5)" width="133.5" xlink:href="#shape0"/>
      <use height="76.6" transform="matrix(1.0, 0.0, 0.0, 1.0, 0.0, 0.0)" width="132.5" xlink:href="#sprite1"/>
    </g>
    <g id="shape0" transform="matrix(1.0, 0.0, 0.0, 1.0, 0.5, 0.5)">
      <path d="M4.25 69.05 Q1.75 65.85 0.15 61.3 -0.15 57.35 1.6 52.8 L2.6 52.0 Q6.75 48.65 9.0 47.35 L13.7 44.4 15.8 42.15 15.65 41.95 17.8 42.15 Q17.75 44.1 13.6 47.75 8.6 52.15 6.6 56.15 5.75 57.85 4.8 65.85 L4.25 69.05 M4.25 31.55 Q-0.85 21.65 0.2 15.25 6.9 -6.9 31.55 3.95 37.05 6.85 44.9 17.95 L39.8 18.55 Q37.5 18.55 31.15 13.95 24.75 9.35 20.4 9.35 12.15 9.35 9.0 11.75 4.2 15.4 4.2 26.75 L4.25 31.55 M48.65 23.7 L50.75 21.8 Q58.75 15.8 70.75 20.15 81.6 17.6 86.9 20.35 88.4 21.15 89.7 22.35 88.05 23.75 85.4 23.75 86.2 25.35 86.2 26.15 L86.0 27.45 85.8 28.55 83.4 28.55 73.95 25.1 Q71.0 24.15 65.8 24.15 60.4 24.15 53.1 28.75 46.8 33.35 46.2 33.35 45.35 33.35 44.8 32.75 L44.8 32.7 Q45.3 27.3 48.65 23.7 M94.6 18.65 Q101.75 6.4 106.65 3.4 113.35 -0.05 118.35 0.0 127.25 -0.05 131.25 10.65 129.4 10.2 126.8 9.15 122.4 7.35 120.0 7.35 109.7 7.35 103.05 16.55 L99.6 22.05 99.0 22.9 98.6 23.5 97.9 22.5 Q96.15 20.0 94.6 18.65 M80.35 24.7 L70.75 20.15 80.35 24.7" fill="#a70303" fill-rule="evenodd" stroke="none"/>
      <path d="M131.25 10.65 L132.35 14.35 132.5 16.55 Q132.5 24.95 124.8 38.45 130.3 46.25 131.85 52.75 130.65 56.85 127.85 58.85 124.9 60.95 119.4 60.95 112.1 60.95 107.1 59.35 103.4 58.15 100.95 56.05 L98.3 53.2 Q100.4 51.6 104.5 51.4 L109.0 51.2 114.2 50.95 Q114.3 47.7 110.65 43.65 L106.85 39.8 105.8 38.55 106.3 38.35 Q107.9 37.65 113.75 36.3 119.0 35.1 119.0 32.55 119.0 30.8 117.4 29.35 115.6 27.75 112.8 27.75 L109.2 28.15 105.6 28.55 104.25 28.55 Q103.0 28.35 103.0 27.15 104.6 24.25 104.6 23.75 104.6 21.75 101.8 21.75 L99.6 22.05 103.05 16.55 Q109.7 7.35 120.0 7.35 122.4 7.35 126.8 9.15 129.4 10.2 131.25 10.65 M10.2 74.1 Q6.75 72.25 4.25 69.05 L4.8 65.85 Q5.75 57.85 6.6 56.15 8.6 52.15 13.6 47.75 17.75 44.1 17.8 42.15 L15.65 41.95 Q13.35 39.25 8.3 35.1 L4.6 32.25 4.25 31.55 4.2 26.75 Q4.2 15.4 9.0 11.75 12.15 9.35 20.4 9.35 24.75 9.35 31.15 13.95 37.5 18.55 39.8 18.55 L44.9 17.95 45.4 18.6 43.1 20.7 Q41.45 22.55 40.8 23.75 L34.35 21.5 Q28.2 19.35 26.8 19.35 25.95 19.35 25.4 20.15 25.0 20.75 25.0 21.35 25.0 23.35 30.0 25.45 L39.4 29.35 Q39.2 29.8 37.05 30.45 34.4 31.2 32.6 32.55 31.8 33.15 30.75 35.25 29.8 37.2 29.8 37.95 29.8 39.7 31.0 40.55 32.05 41.35 33.8 41.35 L36.2 40.95 39.0 40.55 Q37.0 43.75 37.0 44.75 37.0 46.9 38.45 48.7 L42.85 53.3 Q42.05 58.45 38.6 60.55 32.6 64.6 26.7 67.85 16.1 73.65 10.2 74.1 M89.7 22.35 Q91.3 23.85 92.5 26.05 93.55 28.0 94.2 30.5 96.3 37.8 95.35 44.15 L94.9 46.35 94.7 47.0 93.9 45.0 Q92.25 46.05 90.35 47.75 88.15 49.75 84.0 49.75 L75.2 48.55 66.6 47.35 59.85 47.65 Q57.0 48.45 55.8 52.15 54.45 51.7 51.85 50.35 49.65 49.2 47.0 48.55 L45.95 48.55 Q45.65 47.35 45.5 46.0 L44.95 44.15 Q43.7 39.05 44.8 32.75 45.35 33.35 46.2 33.35 46.8 33.35 53.1 28.75 60.4 24.15 65.8 24.15 71.0 24.15 73.95 25.1 L83.4 28.55 85.8 28.55 86.0 27.45 86.2 26.15 Q86.2 25.35 85.4 23.75 88.05 23.75 89.7 22.35 M82.1 41.25 L82.9 41.7 85.0 43.35 85.95 42.0 86.2 40.35 Q86.2 37.3 83.0 33.75 79.4 29.75 75.0 29.75 73.4 29.75 71.8 30.55 L76.7 36.15 Q80.15 39.9 82.1 41.25" fill="#8f0101" fill-rule="evenodd" stroke="none"/>
      <path d="M131.85 52.75 Q132.6 55.95 132.4 58.85 128.0 73.6 115.15 73.65 L109.5 73.05 Q105.4 71.2 100.65 66.15 96.4 61.6 91.55 54.55 L91.6 52.75 Q88.2 56.9 82.0 58.55 L71.2 56.9 Q69.2 59.05 57.85 58.45 52.9 57.8 49.9 55.25 L49.95 56.85 Q37.5 72.3 28.05 75.95 17.2 77.85 10.2 74.1 16.1 73.65 26.7 67.85 32.6 64.6 38.6 60.55 42.05 58.45 42.85 53.3 L38.45 48.7 Q37.0 46.9 37.0 44.75 37.0 43.75 39.0 40.55 L36.2 40.95 33.8 41.35 Q32.05 41.35 31.0 40.55 29.8 39.7 29.8 37.95 29.8 37.2 30.75 35.25 31.8 33.15 32.6 32.55 34.4 31.2 37.05 30.45 39.2 29.8 39.4 29.35 L30.0 25.45 Q25.0 23.35 25.0 21.35 25.0 20.75 25.4 20.15 25.95 19.35 26.8 19.35 28.2 19.35 34.35 21.5 L40.8 23.75 Q41.45 22.55 43.1 20.7 L45.4 18.6 46.5 20.25 48.65 23.5 48.65 23.7 Q45.3 27.3 44.8 32.7 L44.8 32.75 Q43.7 39.05 44.95 44.15 L45.5 46.0 Q45.65 47.35 45.95 48.55 L47.0 48.55 Q49.65 49.2 51.85 50.35 54.45 51.7 55.8 52.15 57.0 48.45 59.85 47.65 L66.6 47.35 75.2 48.55 84.0 49.75 Q88.15 49.75 90.35 47.75 92.25 46.05 93.9 45.0 L94.7 47.0 94.9 46.35 95.35 44.15 Q96.3 37.8 94.2 30.5 93.55 28.0 92.5 26.05 L92.5 22.3 92.75 21.9 94.6 18.65 Q96.15 20.0 97.9 22.5 L98.6 23.5 99.0 22.9 99.6 22.05 101.8 21.75 Q104.6 21.75 104.6 23.75 104.6 24.25 103.0 27.15 103.0 28.35 104.25 28.55 L105.6 28.55 109.2 28.15 112.8 27.75 Q115.6 27.75 117.4 29.35 119.0 30.8 119.0 32.55 119.0 35.1 113.75 36.3 107.9 37.65 106.3 38.35 L105.8 38.55 106.85 39.8 110.65 43.65 Q114.3 47.7 114.2 50.95 L109.0 51.2 104.5 51.4 Q100.4 51.6 98.3 53.2 L100.95 56.05 Q103.4 58.15 107.1 59.35 112.1 60.95 119.4 60.95 124.9 60.95 127.85 58.85 130.65 56.85 131.85 52.75 M1.6 52.8 Q3.55 47.7 8.1 41.85 L9.4 40.2 Q6.55 36.0 4.6 32.25 L8.3 35.1 Q13.35 39.25 15.65 41.95 L15.8 42.15 13.7 44.4 9.0 47.35 Q6.75 48.65 2.6 52.0 L1.6 52.8 M91.6 52.75 L92.2 52.0 Q93.8 49.8 94.7 47.0 93.8 49.8 92.2 52.0 L91.6 52.75 M82.1 41.25 Q80.15 39.9 76.7 36.15 L71.8 30.55 Q73.4 29.75 75.0 29.75 79.4 29.75 83.0 33.75 86.2 37.3 86.2 40.35 L85.95 42.0 85.0 43.35 82.9 41.7 82.1 41.25 M49.9 55.25 Q47.0 52.8 45.95 48.55 47.0 52.8 49.9 55.25 M64.95 53.45 L71.2 56.9 64.95 53.45" fill="#760101" fill-rule="evenodd" stroke="none"/>
      <path d="M131.25 10.65 L132.35 14.35 132.5 16.55 Q132.5 24.95 124.8 38.45 130.3 46.25 131.85 52.75 132.6 55.95 132.4 58.85 128.0 73.6 115.15 73.65 L109.5 73.05 Q105.4 71.2 100.65 66.15 96.4 61.6 91.55 54.55 L91.6 52.75 Q88.2 56.9 82.0 58.55 L71.2 56.9 Q69.2 59.05 57.85 58.45 52.9 57.8 49.9 55.25 L49.95 56.85 Q37.5 72.3 28.05 75.95 17.2 77.85 10.2 74.1 6.75 72.25 4.25 69.05 1.75 65.85 0.15 61.3 -0.15 57.35 1.6 52.8 3.55 47.7 8.1 41.85 L9.4 40.2 Q6.55 36.0 4.6 32.25 L4.25 31.55 Q-0.85 21.65 0.2 15.25 6.9 -6.9 31.55 3.95 37.05 6.85 44.9 17.95 L45.4 18.6 46.5 20.25 48.65 23.5 48.65 23.7 50.75 21.8 Q58.75 15.8 70.75 20.15 81.6 17.6 86.9 20.35 88.4 21.15 89.7 22.35 91.3 23.85 92.5 26.05 L92.5 22.3 92.75 21.9 94.6 18.65 Q101.75 6.4 106.65 3.4 113.35 -0.05 118.35 0.0 127.25 -0.05 131.25 10.65 M92.5 26.05 Q93.55 28.0 94.2 30.5 96.3 37.8 95.35 44.15 L94.9 46.35 94.7 47.0 Q93.8 49.8 92.2 52.0 L91.6 52.75 M45.95 48.55 Q47.0 52.8 49.9 55.25 M70.75 20.15 L80.35 24.7 M48.65 23.7 Q45.3 27.3 44.8 32.7 L44.8 32.75 Q43.7 39.05 44.95 44.15 L45.5 46.0 Q45.65 47.35 45.95 48.55 M71.2 56.9 L64.95 53.45" fill="none" stroke="#000000" stroke-linecap="round" stroke-linejoin="round" stroke-opacity="0.6627451" stroke-width="1.0"/>
    </g>
    <g id="sprite1" transform="matrix(1.0, 0.0, 0.0, 1.0, 0.0, 0.0)">
      <use height="76.6" transform="matrix(1.0, 0.0, 0.0, 1.0, 0.0, 0.0)" width="132.5" xlink:href="#shape1"/>
    </g>
    <g id="shape1" transform="matrix(1.0, 0.0, 0.0, 1.0, 0.0, 0.0)">
      <path d="M49.9 55.25 L49.95 56.85 Q37.5 72.3 28.05 75.95 17.2 77.85 10.2 74.1 6.75 72.25 4.25 69.05 1.75 65.85 0.15 61.3 -0.15 57.35 1.6 52.8 3.55 47.7 8.1 41.85 L9.4 40.2 Q6.55 36.0 4.6 32.25 L4.25 31.55 Q-0.85 21.65 0.2 15.25 6.9 -6.9 31.55 3.95 37.05 6.85 44.9 17.95 L45.4 18.6 46.5 20.25 48.65 23.5 48.65 23.7 Q45.3 27.3 44.8 32.7 L44.8 32.75 Q43.7 39.05 44.95 44.15 L45.5 46.0 Q45.65 47.35 45.95 48.55 47.0 52.8 49.9 55.25" fill="url(#gradient0)" fill-rule="evenodd" stroke="none"/>
      <path d="M92.5 26.05 Q93.55 28.0 94.2 30.5 96.3 37.8 95.35 44.15 L94.9 46.35 94.7 47.0 Q93.8 49.8 92.2 52.0 L91.6 52.75 Q88.2 56.9 82.0 58.55 L71.2 56.9 Q69.2 59.05 57.85 58.45 52.9 57.8 49.9 55.25 47.0 52.8 45.95 48.55 45.65 47.35 45.5 46.0 L44.95 44.15 Q43.7 39.05 44.8 32.75 L44.8 32.7 Q45.3 27.3 48.65 23.7 L50.75 21.8 Q58.75 15.8 70.75 20.15 81.6 17.6 86.9 20.35 88.4 21.15 89.7 22.35 91.3 23.85 92.5 26.05" fill="url(#gradient1)" fill-rule="evenodd" stroke="none"/>
      <path d="M92.5 26.05 L92.5 22.3 92.75 21.9 94.6 18.65 Q101.75 6.4 106.65 3.4 113.35 -0.05 118.35 0.0 127.25 -0.05 131.25 10.65 L132.35 14.35 132.5 16.55 Q132.5 24.95 124.8 38.45 130.3 46.25 131.85 52.75 132.6 55.95 132.4 58.85 128.0 73.6 115.15 73.65 L109.5 73.05 Q105.4 71.2 100.65 66.15 96.4 61.6 91.55 54.55 L91.6 52.75 92.2 52.0 Q93.8 49.8 94.7 47.0 L94.9 46.35 95.35 44.15 Q96.3 37.8 94.2 30.5 93.55 28.0 92.5 26.05" fill="url(#gradient2)" fill-rule="evenodd" stroke="none"/>
    </g>
    <linearGradient gradientTransform="matrix(-0.0363, -0.0405, 0.0346, -0.031, 35.0, 50.05)" gradientUnits="userSpaceOnUse" id="gradient0" spreadMethod="pad" x1="-819.2" x2="819.2">
      <stop offset="0.0" stop-color="#000000"/>
      <stop offset="1.0" stop-color="#ffffff"/>
    </linearGradient>
    <linearGradient gradientTransform="matrix(9.0E-4, -0.0415, 0.0246, 6.0E-4, 69.55, 50.0)" gradientUnits="userSpaceOnUse" id="gradient1" spreadMethod="pad" x1="-819.2" x2="819.2">
      <stop offset="0.0" stop-color="#000000"/>
      <stop offset="1.0" stop-color="#ffffff"/>
    </linearGradient>
    <linearGradient gradientTransform="matrix(-0.0237, -0.0601, 0.0418, -0.0165, 118.7, 54.65)" gradientUnits="userSpaceOnUse" id="gradient2" spreadMethod="pad" x1="-819.2" x2="819.2">
      <stop offset="0.0" stop-color="#000000"/>
      <stop offset="1.0" stop-color="#ffffff"/>
    </linearGradient>
  </defs>
</svg>
