<?xml version="1.0" encoding="UTF-8" standalone="no"?>
<svg xmlns:xlink="http://www.w3.org/1999/xlink" height="531.5px" width="460.6px" xmlns="http://www.w3.org/2000/svg">
  <g transform="matrix(1.0, 0.0, 0.0, 1.0, 193.65, 334.05)">
    <use height="86.7" transform="matrix(1.0, 0.0, 0.0, 1.0, -68.75, -230.8)" width="129.05" xlink:href="#shape0"/>
    <use height="87.6" transform="matrix(0.5481, -0.1439, 0.1967, 0.7497, 4.3266, -238.5856)" width="87.6" xlink:href="#sprite0"/>
    <use height="87.6" transform="matrix(0.5056, -0.1327, 0.1743, 0.6644, 1.569, -234.1895)" width="87.6" xlink:href="#sprite0"/>
    <use height="87.6" transform="matrix(0.6643, -0.1743, 0.2291, 0.873, -9.579, -241.1517)" width="87.6" xlink:href="#sprite0"/>
    <use height="73.0" transform="matrix(0.8686, -0.228, 0.228, 0.8686, -80.5187, -202.7542)" width="143.9" xlink:href="#sprite1"/>
    <use height="59.7" transform="matrix(1.0, 0.0, 0.0, 1.0, -48.15, -154.85)" width="101.05" xlink:href="#shape3"/>
  </g>
  <defs>
    <g id="shape0" transform="matrix(1.0, 0.0, 0.0, 1.0, 68.75, 230.8)">
      <path d="M44.8 -207.25 Q44.65 -209.95 43.9 -212.75 41.85 -220.45 36.7 -224.95 31.65 -229.45 26.4 -228.05 21.2 -226.7 18.95 -220.25 L18.65 -219.45 18.6 -219.35 18.05 -216.65 Q17.25 -211.75 18.75 -206.15 19.95 -201.55 22.25 -198.1 L20.25 -197.5 Q18.0 -201.05 16.75 -205.75 15.65 -210.0 15.8 -213.95 L15.95 -216.55 16.0 -216.95 16.15 -217.75 16.7 -219.95 16.85 -220.4 17.1 -221.3 Q19.65 -228.0 25.05 -229.75 L25.7 -229.95 25.9 -230.0 26.6 -230.15 Q31.95 -231.1 37.25 -226.6 43.1 -221.7 45.3 -213.25 46.05 -210.4 46.25 -207.75 L45.55 -207.5 44.8 -207.25" fill="#616e55" fill-rule="evenodd" stroke="none"/>
      <path d="M18.65 -219.45 L18.95 -220.25 Q21.2 -226.7 26.4 -228.05 31.65 -229.45 36.7 -224.95 41.85 -220.45 43.9 -212.75 44.65 -209.95 44.8 -207.25 44.95 -204.9 44.6 -202.7 44.3 -200.65 43.6 -198.7 L43.15 -197.5 41.7 -200.4 34.8 -194.75 32.75 -194.85 32.35 -193.55 35.5 -191.35 34.9 -190.6 33.2 -190.55 31.55 -190.8 29.45 -191.55 Q27.65 -192.45 25.85 -194.0 L24.75 -194.95 Q23.4 -196.35 22.25 -198.1 19.95 -201.55 18.75 -206.15 17.25 -211.75 18.05 -216.65 L18.6 -219.35 18.65 -219.45 M16.7 -219.95 L16.15 -217.75 16.0 -216.95 14.25 -215.2 Q10.0 -211.1 8.75 -209.45 L6.2 -206.05 4.05 -202.65 Q3.55 -205.55 3.7 -208.65 L7.7 -211.9 14.15 -217.5 16.7 -219.95 M29.55 -198.4 L29.85 -198.4 34.7 -198.95 Q37.6 -199.65 39.5 -200.6 L40.35 -201.15 40.45 -201.2 Q41.35 -201.8 41.2 -202.4 41.0 -203.15 38.8 -203.2 L33.7 -202.6 Q30.8 -202.0 28.85 -200.95 L28.8 -200.95 Q27.0 -199.95 27.2 -199.25 27.4 -198.45 29.55 -198.4 M38.55 -214.55 L30.85 -213.65 Q26.4 -212.65 23.55 -211.2 L23.5 -211.2 Q20.65 -209.7 20.95 -208.5 21.25 -207.35 24.55 -207.25 L25.65 -207.25 32.3 -208.1 Q36.7 -209.1 39.6 -210.6 L40.95 -211.4 41.05 -211.4 Q42.45 -212.45 42.2 -213.3 41.9 -214.45 38.55 -214.55 M35.25 -221.15 Q36.15 -221.8 36.0 -222.35 35.75 -223.15 33.55 -223.2 L28.5 -222.6 Q25.55 -222.0 23.6 -220.95 21.75 -219.95 21.95 -219.25 22.15 -218.45 24.3 -218.4 L29.45 -218.95 Q32.35 -219.6 34.25 -220.6 L35.15 -221.1 35.25 -221.15 M44.6 -202.7 L41.7 -200.4 44.6 -202.7 M31.55 -190.8 L32.35 -193.55 31.55 -190.8 M32.75 -194.85 L24.75 -194.95 32.75 -194.85" fill="#ffffff" fill-rule="evenodd" stroke="none"/>
      <path d="M25.9 -230.0 L25.7 -229.95 25.05 -229.75 Q19.65 -228.0 17.1 -221.3 L16.85 -220.4 16.7 -219.95 14.15 -217.5 7.7 -211.9 3.7 -208.65 3.9 -212.1 Q6.5 -215.95 10.75 -218.2 L12.85 -219.15 12.9 -219.15 Q13.9 -220.2 13.2 -222.4 12.55 -224.65 15.25 -226.5 17.95 -228.4 25.9 -230.0 M16.0 -216.95 L15.95 -216.55 15.8 -213.95 Q15.65 -210.0 16.75 -205.75 18.0 -201.05 20.25 -197.5 L16.2 -196.2 14.2 -195.65 9.4 -194.7 9.4 -195.1 Q9.3 -195.5 7.0 -196.55 L5.6 -197.2 Q4.55 -199.85 4.05 -202.65 L6.2 -206.05 8.75 -209.45 Q10.0 -211.1 14.25 -215.2 L16.0 -216.95 M11.8 -208.4 L8.3 -207.5 Q8.25 -204.35 9.0 -201.85 9.6 -199.75 10.75 -198.1 L14.25 -199.0 11.8 -208.4 M46.5 -178.75 L44.15 -176.65 44.15 -176.55 45.15 -176.8 48.05 -177.85 Q49.05 -178.15 49.8 -178.55 L59.45 -179.15 Q60.35 -176.1 58.95 -174.4 L57.8 -173.45 Q39.2 -166.35 13.25 -159.2 L9.1 -158.0 -0.9 -155.3 -1.95 -155.05 -3.45 -156.2 Q-5.45 -157.65 -6.5 -158.1 -6.5 -157.6 -7.35 -155.0 L-7.8 -153.55 -20.4 -150.55 -30.45 -148.35 -31.1 -148.8 -33.4 -150.5 Q-34.2 -151.4 -34.55 -152.6 -34.9 -154.05 -34.35 -155.95 -33.75 -157.8 -33.9 -158.25 -33.95 -158.6 -35.0 -159.15 -36.05 -159.75 -36.2 -160.35 -36.55 -161.75 -36.2 -163.0 L-35.75 -163.85 -24.9 -166.9 -35.75 -163.85 -35.95 -163.8 Q-38.25 -163.1 -39.35 -162.2 L-62.35 -156.2 -62.75 -158.95 -61.8 -159.2 -50.5 -162.15 -48.15 -162.8 16.0 -179.6 16.3 -178.5 4.65 -175.15 6.05 -175.15 8.65 -174.75 Q9.4 -174.35 10.35 -172.7 L12.0 -169.9 17.65 -169.7 23.8 -170.95 28.2 -172.3 Q29.9 -172.9 30.05 -173.15 30.35 -173.55 30.1 -174.25 L29.9 -175.05 32.2 -175.95 Q34.25 -176.85 36.3 -178.0 36.65 -180.2 36.4 -182.2 38.6 -180.7 41.5 -179.8 L40.25 -178.1 37.5 -174.1 Q38.95 -174.6 44.4 -179.1 L45.7 -178.9 46.5 -178.75 M-11.35 -170.7 L4.65 -175.15 -11.35 -170.7 -24.9 -166.9 -25.25 -163.65 -25.3 -163.6 Q-24.85 -163.5 -24.5 -163.8 -23.8 -164.1 -23.25 -164.35 L-20.7 -165.15 -20.05 -165.0 -17.0 -163.8 -11.35 -170.7 M-31.9 -158.6 Q-32.85 -158.35 -33.35 -157.55 -33.8 -156.75 -33.55 -155.8 -33.3 -154.85 -32.5 -154.35 -31.65 -153.85 -30.7 -154.1 -29.7 -154.35 -29.25 -155.2 -28.75 -156.0 -29.0 -156.95 -29.25 -157.9 -30.1 -158.4 L-31.9 -158.6 M-5.1 -163.1 L-0.85 -165.85 Q-3.6 -167.45 -4.0 -167.35 L-5.1 -163.1" fill="#6b8553" fill-rule="evenodd" stroke="none"/>
      <path d="M12.85 -219.15 L10.75 -218.2 Q7.8 -218.0 4.45 -217.1 L3.9 -216.95 2.85 -216.7 -3.65 -214.75 Q-9.45 -212.95 -13.2 -211.05 -15.15 -209.7 -9.8 -206.1 -1.4 -199.6 3.25 -187.15 4.3 -183.55 8.95 -183.6 0.75 -180.7 -7.4 -178.35 -36.55 -169.85 -64.3 -168.4 L-65.85 -177.0 -66.3 -180.1 Q-67.05 -187.9 -62.1 -194.25 -57.3 -200.25 -50.5 -204.1 -47.25 -205.9 -43.9 -207.3 L-42.55 -207.95 -38.95 -204.4 -39.8 -208.95 -38.95 -209.3 -37.4 -209.8 Q-27.7 -213.35 -17.3 -216.05 -7.45 -218.65 3.05 -220.4 8.35 -220.7 12.85 -219.15 M36.4 -182.2 Q36.65 -180.2 36.3 -178.0 34.25 -176.85 32.2 -175.95 L32.2 -176.7 31.55 -179.6 30.45 -183.25 29.65 -184.95 29.15 -185.75 32.2 -186.7 32.3 -187.35 32.2 -187.85 32.5 -187.95 32.6 -187.95 33.05 -188.05 33.6 -188.2 34.0 -187.8 34.5 -187.0 34.55 -186.9 Q36.0 -184.7 36.4 -182.2 M-64.7 -162.05 L-63.6 -155.85 -62.7 -151.65 -61.35 -147.25 -64.5 -147.35 Q-68.55 -153.75 -68.25 -159.9 -67.65 -161.1 -64.7 -162.05" fill="#4f2700" fill-rule="evenodd" stroke="none"/>
      <path d="M8.95 -183.6 Q4.3 -183.55 3.25 -187.15 -1.4 -199.6 -9.8 -206.1 -15.15 -209.7 -13.2 -211.05 -9.45 -212.95 -3.65 -214.75 L2.85 -216.7 3.9 -216.95 4.45 -217.1 Q7.8 -218.0 10.75 -218.2 6.5 -215.95 3.9 -212.1 L3.7 -208.65 Q3.55 -205.55 4.05 -202.65 4.55 -199.85 5.6 -197.2 6.1 -195.7 6.95 -194.15 7.95 -192.25 9.25 -190.35 10.8 -188.3 12.8 -186.3 L14.55 -185.6 16.75 -185.2 15.0 -184.6 12.75 -184.0 8.95 -183.6" fill="#704116" fill-rule="evenodd" stroke="none"/>
      <path d="M9.0 -201.85 Q8.25 -204.35 8.3 -207.5 L11.8 -208.4 Q11.8 -205.6 12.5 -203.1 L12.3 -203.05 Q11.8 -202.75 10.1 -202.2 L9.0 -201.85 M32.2 -187.85 L32.2 -187.9 32.2 -187.85 24.65 -186.05 32.2 -187.9 32.5 -187.95 32.2 -187.85 M34.05 -188.35 L34.25 -187.9 34.5 -187.0 34.0 -187.8 33.6 -188.2 33.05 -188.05 34.05 -188.35 M-45.5 -158.1 L-46.0 -157.85 -46.5 -157.85 -45.5 -158.1 M-44.4 -151.65 L-43.85 -151.65 -44.85 -151.4 -44.4 -151.65" fill="#cccccc" fill-rule="evenodd" stroke="none"/>
      <path d="M9.0 -201.85 L10.1 -202.2 Q11.8 -202.75 12.3 -203.05 L12.5 -203.1 Q13.1 -201.0 14.25 -199.0 L10.75 -198.1 Q9.6 -199.75 9.0 -201.85 M-31.9 -158.6 L-30.1 -158.4 Q-29.25 -157.9 -29.0 -156.95 -28.75 -156.0 -29.25 -155.2 -29.7 -154.35 -30.7 -154.1 -31.65 -153.85 -32.5 -154.35 -33.3 -154.85 -33.55 -155.8 -33.8 -156.75 -33.35 -157.55 -32.85 -158.35 -31.9 -158.6" fill="#999999" fill-rule="evenodd" stroke="none"/>
      <path d="M12.5 -203.1 Q11.8 -205.6 11.8 -208.4 L14.25 -199.0 Q13.1 -201.0 12.5 -203.1" fill="#6e6e6e" fill-rule="evenodd" stroke="none"/>
      <path d="M35.25 -221.15 L35.15 -221.1 34.25 -220.6 Q32.35 -219.6 29.45 -218.95 L24.3 -218.4 Q22.15 -218.45 21.95 -219.25 21.75 -219.95 23.6 -220.95 25.55 -222.0 28.5 -222.6 L33.55 -223.2 Q35.75 -223.15 36.0 -222.35 36.15 -221.8 35.25 -221.15 M38.55 -214.55 Q41.9 -214.45 42.2 -213.3 42.45 -212.45 41.05 -211.4 L40.95 -211.4 39.6 -210.6 Q36.7 -209.1 32.3 -208.1 L25.65 -207.25 24.55 -207.25 Q21.25 -207.35 20.95 -208.5 20.65 -209.7 23.5 -211.2 L23.55 -211.2 Q26.4 -212.65 30.85 -213.65 L38.55 -214.55 M29.55 -198.4 Q27.4 -198.45 27.2 -199.25 27.0 -199.95 28.8 -200.95 L28.85 -200.95 Q30.8 -202.0 33.7 -202.6 L38.8 -203.2 Q41.0 -203.15 41.2 -202.4 41.35 -201.8 40.45 -201.2 L40.35 -201.15 39.5 -200.6 Q37.6 -199.65 34.7 -198.95 L29.85 -198.4 29.55 -198.4" fill="#ffff99" fill-rule="evenodd" stroke="none"/>
      <path d="M44.8 -207.25 L45.55 -207.5 46.25 -207.75 Q46.65 -202.4 44.85 -197.65 42.4 -190.7 35.3 -188.75 L33.95 -188.6 31.9 -188.7 29.8 -189.3 29.65 -189.35 Q28.4 -189.8 27.15 -190.6 25.95 -191.3 24.7 -192.35 22.15 -194.55 20.25 -197.5 L22.25 -198.1 Q23.4 -196.35 24.75 -194.95 L25.85 -194.0 Q27.65 -192.45 29.45 -191.55 L31.55 -190.8 33.2 -190.55 34.9 -190.6 36.15 -190.85 37.7 -191.4 Q39.2 -192.1 40.45 -193.3 L41.5 -194.55 43.15 -197.5 43.6 -198.7 Q44.3 -200.65 44.6 -202.7 44.95 -204.9 44.8 -207.25" fill="#1f2b15" fill-rule="evenodd" stroke="none"/>
      <path d="M43.15 -197.5 L41.5 -194.55 40.45 -193.3 Q39.2 -192.1 37.7 -191.4 L36.15 -190.85 34.9 -190.6 35.5 -191.35 32.35 -193.55 32.75 -194.85 34.8 -194.75 37.2 -194.75 37.1 -195.4 38.75 -195.15 39.8 -194.95 41.5 -194.55 39.8 -194.95 38.75 -195.15 37.1 -195.4 37.2 -194.75 34.8 -194.75 41.7 -200.4 43.15 -197.5 M37.2 -194.75 L37.35 -193.6 35.5 -191.35 37.35 -193.6 37.2 -194.75 M40.45 -193.3 L37.5 -192.75 37.35 -193.6 38.75 -195.15 37.35 -193.6 37.5 -192.75 40.45 -193.3 M37.5 -192.75 L37.7 -191.4 37.5 -192.75" fill="#666666" fill-rule="evenodd" stroke="none"/>
      <path d="M5.6 -197.2 L7.0 -196.55 Q9.3 -195.5 9.4 -195.1 L9.4 -194.7 9.25 -190.35 Q7.95 -192.25 6.95 -194.15 6.1 -195.7 5.6 -197.2 M49.8 -178.55 Q49.05 -178.15 48.05 -177.85 L45.15 -176.8 44.15 -176.55 44.15 -176.65 46.5 -178.75 49.8 -178.55 M44.4 -179.1 Q38.95 -174.6 37.5 -174.1 L40.25 -178.1 41.5 -179.8 44.4 -179.1 M-11.35 -170.7 L-17.0 -163.8 -20.05 -165.0 -20.7 -165.15 -23.25 -164.35 Q-23.8 -164.1 -24.5 -163.8 -24.85 -163.5 -25.3 -163.6 L-25.25 -163.65 -24.9 -166.9 -11.35 -170.7 M-7.8 -153.55 L-7.35 -155.0 Q-6.5 -157.6 -6.5 -158.1 -5.45 -157.65 -3.45 -156.2 L-1.95 -155.05 -7.8 -153.55 M21.7 -192.0 L20.35 -191.2 20.0 -190.85 15.5 -188.75 17.75 -192.4 21.7 -192.0 M-5.1 -163.1 L-4.0 -167.35 Q-3.6 -167.45 -0.85 -165.85 L-5.1 -163.1" fill="#88967c" fill-rule="evenodd" stroke="none"/>
      <path d="M9.4 -194.7 L14.2 -195.65 16.2 -196.2 20.25 -197.5 Q22.15 -194.55 24.7 -192.35 25.95 -191.3 27.15 -190.6 28.4 -189.8 29.65 -189.35 L29.8 -189.3 31.9 -188.7 33.95 -188.6 35.3 -188.75 34.05 -188.35 33.05 -188.05 32.6 -187.95 32.5 -187.95 32.2 -187.9 24.65 -186.05 18.7 -185.1 17.1 -185.15 16.8 -185.2 16.75 -185.2 14.55 -185.6 12.8 -186.3 Q10.8 -188.3 9.25 -190.35 L9.4 -194.7 M29.9 -175.05 L30.1 -174.25 Q30.35 -173.55 30.05 -173.15 29.9 -172.9 28.2 -172.3 L23.8 -170.95 17.65 -169.7 12.0 -169.9 10.35 -172.7 Q9.4 -174.35 8.65 -174.75 L6.05 -175.15 4.65 -175.15 16.3 -178.5 16.85 -176.95 Q17.65 -175.05 19.05 -173.5 24.45 -173.25 29.9 -175.05 M-35.75 -163.85 L-36.2 -163.0 Q-36.55 -161.75 -36.2 -160.35 -36.05 -159.75 -35.0 -159.15 -33.95 -158.6 -33.9 -158.25 -33.75 -157.8 -34.35 -155.95 -34.9 -154.05 -34.55 -152.6 -34.2 -151.4 -33.4 -150.5 L-31.1 -148.8 -30.45 -148.35 -32.75 -147.9 -37.8 -147.25 Q-39.35 -147.35 -40.35 -147.85 -41.85 -148.7 -42.0 -150.65 -41.8 -153.0 -38.0 -155.3 -36.95 -156.45 -37.55 -157.15 -38.85 -157.6 -39.55 -158.3 -40.25 -159.1 -40.45 -160.1 -40.7 -161.2 -39.35 -162.2 -40.7 -161.2 -40.45 -160.1 -40.25 -159.1 -39.55 -158.3 -38.85 -157.6 -37.55 -157.15 -36.95 -156.45 -38.0 -155.3 -41.8 -153.0 -42.0 -150.65 -41.85 -148.7 -40.35 -147.85 L-51.45 -145.65 -55.8 -144.9 -58.0 -144.6 -59.7 -147.65 Q-61.4 -151.35 -62.35 -156.2 L-39.35 -162.2 Q-38.25 -163.1 -35.95 -163.8 L-35.75 -163.85 M21.7 -192.0 L17.75 -192.4 15.5 -188.75 20.0 -190.85 20.35 -191.2 21.7 -192.0 M-43.85 -151.65 L-43.55 -151.75 -43.5 -151.8 -43.45 -151.8 Q-42.15 -152.15 -41.45 -153.3 -40.75 -154.45 -41.1 -155.8 -41.45 -157.15 -42.65 -157.8 -43.8 -158.55 -45.1 -158.2 L-45.2 -158.2 -45.5 -158.1 -46.5 -157.85 -46.85 -157.75 Q-48.2 -157.4 -48.9 -156.2 -49.6 -155.05 -49.25 -153.7 -48.9 -152.35 -47.7 -151.7 -46.7 -151.1 -45.5 -151.25 L-45.15 -151.35 -44.85 -151.4 -43.85 -151.65" fill="#39472c" fill-rule="evenodd" stroke="none"/>
      <path d="M24.65 -186.05 L32.2 -187.85 32.3 -187.35 32.2 -186.7 29.15 -185.75 Q23.3 -184.05 18.35 -183.7 L17.6 -183.65 17.3 -184.0 17.15 -184.45 17.1 -185.15 18.7 -185.1 24.65 -186.05" fill="#4d613d" fill-rule="evenodd" stroke="none"/>
      <path d="M-64.3 -168.4 Q-36.55 -169.85 -7.4 -178.35 0.75 -180.7 8.95 -183.6 L12.75 -184.0 15.0 -184.6 16.75 -185.2 16.8 -185.2 17.1 -185.15 17.15 -184.45 17.3 -184.0 17.6 -183.65 18.35 -183.7 Q23.3 -184.05 29.15 -185.75 L29.65 -184.95 30.45 -183.25 31.55 -179.6 32.2 -176.7 32.2 -175.95 29.9 -175.05 Q24.45 -173.25 19.05 -173.5 17.65 -175.05 16.85 -176.95 L16.3 -178.5 16.0 -179.6 -48.15 -162.8 -50.5 -162.15 -61.8 -159.2 -62.75 -158.95 -62.35 -156.2 Q-61.4 -151.35 -59.7 -147.65 L-61.35 -147.25 -62.7 -151.65 -63.6 -155.85 -64.7 -162.05 -62.85 -162.55 -64.3 -168.4 M17.15 -184.45 L15.7 -183.8 15.7 -183.0 Q15.7 -181.2 16.0 -179.6 15.7 -181.2 15.7 -183.0 L15.7 -183.8 17.15 -184.45 M-62.85 -162.55 L-61.8 -159.2 -62.85 -162.55" fill="#2e1904" fill-rule="evenodd" stroke="none"/>
      <path d="M-45.5 -158.1 L-45.2 -158.2 -45.1 -158.2 Q-43.8 -158.55 -42.65 -157.8 -41.45 -157.15 -41.1 -155.8 -40.75 -154.45 -41.45 -153.3 -42.15 -152.15 -43.45 -151.8 L-43.5 -151.8 -43.55 -151.75 -43.85 -151.65 -44.4 -151.65 Q-43.6 -152.05 -43.15 -152.9 -42.45 -154.05 -42.8 -155.4 -43.15 -156.75 -44.35 -157.4 L-46.0 -157.85 -45.5 -158.1" fill="#636363" fill-rule="evenodd" stroke="none"/>
      <path d="M-46.0 -157.85 L-44.35 -157.4 Q-43.15 -156.75 -42.8 -155.4 -42.45 -154.05 -43.15 -152.9 -43.6 -152.05 -44.4 -151.65 L-44.85 -151.4 -45.15 -151.35 -45.5 -151.25 Q-46.7 -151.1 -47.7 -151.7 -48.9 -152.35 -49.25 -153.7 -49.6 -155.05 -48.9 -156.2 -48.2 -157.4 -46.85 -157.75 L-46.5 -157.85 -46.0 -157.85" fill="#949494" fill-rule="evenodd" stroke="none"/>
      <path d="M18.65 -219.45 L18.95 -220.25 Q21.2 -226.7 26.4 -228.05 31.65 -229.45 36.7 -224.95 41.85 -220.45 43.9 -212.75 44.65 -209.95 44.8 -207.25 44.95 -204.9 44.6 -202.7 44.3 -200.65 43.6 -198.7 L43.15 -197.5 41.5 -194.55 40.45 -193.3 Q39.2 -192.1 37.7 -191.4 L36.15 -190.85 34.9 -190.6 33.2 -190.55 31.55 -190.8 29.45 -191.55 Q27.65 -192.45 25.85 -194.0 L24.75 -194.95 Q23.4 -196.35 22.25 -198.1 19.95 -201.55 18.75 -206.15 17.25 -211.75 18.05 -216.65 L18.6 -219.35 M46.25 -207.75 Q46.05 -210.4 45.3 -213.25 43.1 -221.7 37.25 -226.6 31.95 -231.1 26.6 -230.15 L25.9 -230.0 25.7 -229.95 25.05 -229.75 Q19.65 -228.0 17.1 -221.3 L16.85 -220.4 16.7 -219.95 16.15 -217.75 16.0 -216.95 15.95 -216.55 15.8 -213.95 Q15.65 -210.0 16.75 -205.75 18.0 -201.05 20.25 -197.5 22.15 -194.55 24.7 -192.35 25.95 -191.3 27.15 -190.6 28.4 -189.8 29.65 -189.35 L29.8 -189.3 31.9 -188.7 33.95 -188.6 35.3 -188.75 Q42.4 -190.7 44.85 -197.65 46.65 -202.4 46.25 -207.75 M12.85 -219.15 L12.9 -219.15 Q13.9 -220.2 13.2 -222.4 12.55 -224.65 15.25 -226.5 17.95 -228.4 25.9 -230.0 M10.75 -218.2 L12.85 -219.15 Q8.35 -220.7 3.05 -220.4 -7.45 -218.65 -17.3 -216.05 -27.7 -213.35 -37.4 -209.8 L-38.95 -209.3 -39.8 -208.95 -38.95 -204.4 -42.55 -207.95 -43.9 -207.3 Q-47.25 -205.9 -50.5 -204.1 -57.3 -200.25 -62.1 -194.25 -67.05 -187.9 -66.3 -180.1 L-65.85 -177.0 -64.3 -168.4 -62.85 -162.55 -64.7 -162.05 Q-67.65 -161.1 -68.25 -159.9 -68.55 -153.75 -64.5 -147.35 L-61.35 -147.25 -59.7 -147.65 Q-61.4 -151.35 -62.35 -156.2 L-62.75 -158.95 -61.8 -159.2 -62.85 -162.55 M10.75 -218.2 Q6.5 -215.95 3.9 -212.1 L3.7 -208.65 Q3.55 -205.55 4.05 -202.65 4.55 -199.85 5.6 -197.2 6.1 -195.7 6.95 -194.15 7.95 -192.25 9.25 -190.35 10.8 -188.3 12.8 -186.3 L14.55 -185.6 16.75 -185.2 M11.8 -208.4 L8.3 -207.5 Q8.25 -204.35 9.0 -201.85 9.6 -199.75 10.75 -198.1 L14.25 -199.0 11.8 -208.4 Q11.8 -205.6 12.5 -203.1 13.1 -201.0 14.25 -199.0 M46.5 -178.75 L45.7 -178.9 44.4 -179.1 41.5 -179.8 Q38.6 -180.7 36.4 -182.2 36.65 -180.2 36.3 -178.0 34.25 -176.85 32.2 -175.95 L29.9 -175.05 Q24.45 -173.25 19.05 -173.5 17.65 -175.05 16.85 -176.95 L16.3 -178.5 4.65 -175.15 -11.35 -170.7 -24.9 -166.9 -35.75 -163.85 -35.95 -163.8 Q-38.25 -163.1 -39.35 -162.2 -40.7 -161.2 -40.45 -160.1 -40.25 -159.1 -39.55 -158.3 -38.85 -157.6 -37.55 -157.15 -36.95 -156.45 -38.0 -155.3 -41.8 -153.0 -42.0 -150.65 -41.85 -148.7 -40.35 -147.85 -39.35 -147.35 -37.8 -147.25 L-32.75 -147.9 -30.45 -148.35 -20.4 -150.55 -7.8 -153.55 -1.95 -155.05 -0.9 -155.3 9.1 -158.0 13.25 -159.2 Q39.2 -166.35 57.8 -173.45 L58.95 -174.4 Q60.35 -176.1 59.45 -179.15 L49.8 -178.55 46.5 -178.75 M32.2 -187.9 L32.2 -187.85 32.5 -187.95 32.2 -187.9 24.65 -186.05 32.2 -187.85 32.3 -187.35 32.2 -186.7 29.15 -185.75 Q23.3 -184.05 18.35 -183.7 L17.6 -183.65 17.3 -184.0 17.15 -184.45 17.1 -185.15 18.7 -185.1 24.65 -186.05 M33.05 -188.05 L32.6 -187.95 32.5 -187.95 M34.05 -188.35 L34.25 -187.9 34.5 -187.0 34.55 -186.9 Q36.0 -184.7 36.4 -182.2 M33.05 -188.05 L34.05 -188.35 35.3 -188.75 M34.5 -187.0 L34.0 -187.8 33.6 -188.2 33.05 -188.05 M16.8 -185.2 L17.1 -185.15 M16.0 -179.6 Q15.7 -181.2 15.7 -183.0 L15.7 -183.8 17.15 -184.45 M16.3 -178.5 L16.0 -179.6 -48.15 -162.8 -50.5 -162.15 -61.8 -159.2 M-31.9 -158.6 L-30.1 -158.4 Q-29.25 -157.9 -29.0 -156.95 -28.75 -156.0 -29.25 -155.2 -29.7 -154.35 -30.7 -154.1 -31.65 -153.85 -32.5 -154.35 -33.3 -154.85 -33.55 -155.8 -33.8 -156.75 -33.35 -157.55 -32.85 -158.35 -31.9 -158.6 M-43.85 -151.65 L-43.55 -151.75 -43.5 -151.8 -43.45 -151.8 Q-42.15 -152.15 -41.45 -153.3 -40.75 -154.45 -41.1 -155.8 -41.45 -157.15 -42.65 -157.8 -43.8 -158.55 -45.1 -158.2 L-45.2 -158.2 -45.5 -158.1 -46.0 -157.85 -44.35 -157.4 Q-43.15 -156.75 -42.8 -155.4 -42.45 -154.05 -43.15 -152.9 -43.6 -152.05 -44.4 -151.65 L-43.85 -151.65 -44.85 -151.4 -45.15 -151.35 -45.5 -151.25 Q-46.7 -151.1 -47.7 -151.7 -48.9 -152.35 -49.25 -153.7 -49.6 -155.05 -48.9 -156.2 -48.2 -157.4 -46.85 -157.75 L-46.5 -157.85 -45.5 -158.1 M-46.5 -157.85 L-46.0 -157.85 M-44.4 -151.65 L-44.85 -151.4 M-40.35 -147.85 L-51.45 -145.65 -55.8 -144.9 -58.0 -144.6 -59.7 -147.65" fill="none" stroke="#000000" stroke-linecap="round" stroke-linejoin="round" stroke-opacity="0.6627451" stroke-width="1.0"/>
      <path d="M8.95 -183.6 Q4.3 -183.55 3.25 -187.15 -1.4 -199.6 -9.8 -206.1 -15.15 -209.7 -13.2 -211.05 -9.45 -212.95 -3.65 -214.75 L2.85 -216.7 3.9 -216.95 4.45 -217.1 Q7.8 -218.0 10.75 -218.2 M41.7 -200.4 L44.6 -202.7 M34.8 -194.75 L37.2 -194.75 37.1 -195.4 38.75 -195.15 39.8 -194.95 41.5 -194.55 M38.75 -195.15 L37.35 -193.6 37.5 -192.75 40.45 -193.3 M35.5 -191.35 L37.35 -193.6 37.2 -194.75 M34.8 -194.75 L32.75 -194.85 32.35 -193.55 35.5 -191.35 34.9 -190.6 M37.7 -191.4 L37.5 -192.75 M32.35 -193.55 L31.55 -190.8 M24.75 -194.95 L32.75 -194.85 M16.75 -185.2 L16.8 -185.2 M8.95 -183.6 L12.75 -184.0 15.0 -184.6 16.75 -185.2 M43.15 -197.5 L41.7 -200.4 34.8 -194.75" fill="none" stroke="#000000" stroke-linecap="round" stroke-linejoin="round" stroke-opacity="0.6627451" stroke-width="0.5"/>
      <path d="M35.25 -221.15 L35.15 -221.1 34.25 -220.6 Q32.35 -219.6 29.45 -218.95 L24.3 -218.4 Q22.15 -218.45 21.95 -219.25 21.75 -219.95 23.6 -220.95 25.55 -222.0 28.5 -222.6 L33.55 -223.2 Q35.75 -223.15 36.0 -222.35 36.15 -221.8 35.25 -221.15 M38.55 -214.55 Q41.9 -214.45 42.2 -213.3 42.45 -212.45 41.05 -211.4 L40.95 -211.4 39.6 -210.6 Q36.7 -209.1 32.3 -208.1 L25.65 -207.25 24.55 -207.25 Q21.25 -207.35 20.95 -208.5 20.65 -209.7 23.5 -211.2 L23.55 -211.2 Q26.4 -212.65 30.85 -213.65 L38.55 -214.55 M29.55 -198.4 Q27.4 -198.45 27.2 -199.25 27.0 -199.95 28.8 -200.95 L28.85 -200.95 Q30.8 -202.0 33.7 -202.6 L38.8 -203.2 Q41.0 -203.15 41.2 -202.4 41.35 -201.8 40.45 -201.2 L40.35 -201.15 39.5 -200.6 Q37.6 -199.65 34.7 -198.95 L29.85 -198.4 29.55 -198.4" fill="none" stroke="#000000" stroke-linecap="round" stroke-linejoin="round" stroke-opacity="0.33333334" stroke-width="0.5"/>
      <path d="M-17.4 -186.4 L-17.4 -186.35 -16.25 -184.8 -14.85 -186.9 -15.9 -188.4 -17.4 -186.4 -19.1 -188.95 -20.7 -186.6 -19.8 -185.15 -19.05 -184.1 -17.4 -186.4 M-17.0 -192.1 L-19.1 -188.95 -21.25 -192.2 M-9.75 -195.05 Q-11.5 -191.8 -14.55 -187.25 L-14.85 -186.9 -13.25 -184.55 M-15.9 -188.4 L-16.6 -189.45 M-16.25 -184.8 L-12.9 -179.55 M-17.45 -183.1 L-16.25 -184.8 M-19.05 -184.1 L-15.8 -179.25 M-25.25 -179.65 L-21.65 -185.25 -20.7 -186.6 -22.65 -189.6 M-21.7 -158.15 L-23.4 -157.7 -24.15 -155.85 -22.6 -156.25 M-22.95 -159.5 Q-23.0 -158.8 -23.4 -157.7 L-24.95 -157.3 -25.8 -155.45 -24.15 -155.85 -25.25 -153.5 M-26.8 -156.9 L-24.95 -157.3 -24.45 -158.65 M-26.65 -155.3 L-25.8 -155.45 -27.25 -151.75 M-24.0 -176.7 L-19.05 -184.1 M-63.95 -184.4 Q-61.05 -184.7 -58.75 -187.5 -56.55 -190.2 -56.8 -192.6 M-48.9 -199.55 Q-48.1 -197.3 -50.15 -194.65 -52.0 -192.3 -54.25 -191.6" fill="none" stroke="#000000" stroke-linecap="round" stroke-linejoin="round" stroke-opacity="0.6627451" stroke-width="0.5"/>
    </g>
    <g id="sprite0" transform="matrix(1.0, 0.0, 0.0, 1.0, 43.8, 43.8)">
      <use height="86.0" transform="matrix(1.0186, 0.0, 0.0, 1.0186, -43.8, -43.8)" width="86.0" xlink:href="#shape1"/>
    </g>
    <g id="shape1" transform="matrix(1.0, 0.0, 0.0, 1.0, 0.0, 0.0)">
      <path d="M73.4 12.6 Q86.0 25.2 86.0 43.0 86.0 60.8 73.4 73.4 60.8 86.0 43.0 86.0 25.2 86.0 12.6 73.4 0.0 60.8 0.0 43.0 0.0 25.2 12.6 12.6 25.2 0.0 43.0 0.0 60.8 0.0 73.4 12.6" fill="#ffffff" fill-rule="evenodd" stroke="none"/>
    </g>
    <g id="sprite1" transform="matrix(1.0, 0.0, 0.0, 1.0, 71.95, 36.5)">
      <use height="73.0" transform="matrix(1.0, 0.0, 0.0, 1.0, -71.95, -36.5)" width="143.9" xlink:href="#shape2"/>
    </g>
    <g id="shape2" transform="matrix(1.0, 0.0, 0.0, 1.0, 71.95, 36.5)">
      <path d="M33.1 -28.35 L33.15 -28.35 Q34.5 -29.15 34.4 -31.75 34.3 -34.35 37.75 -35.6 41.15 -36.85 50.2 -36.35 L49.95 -36.35 49.2 -36.3 Q42.9 -35.95 38.3 -29.45 L37.7 -28.55 37.45 -28.1 36.25 -25.95 35.85 -25.05 35.7 -24.65 Q35.15 -23.35 34.75 -21.9 33.5 -17.7 33.5 -12.8 33.5 -7.4 34.95 -2.9 36.15 0.8 38.3 3.9 L40.4 6.45 Q41.5 7.65 42.75 8.5 L42.9 8.6 45.0 9.8 47.15 10.5 48.65 10.75 47.2 10.8 46.05 10.85 45.6 10.85 45.35 10.8 45.35 10.85 44.75 12.05 41.15 12.25 28.15 11.25 27.95 10.8 27.9 10.2 Q27.9 9.85 28.05 9.5 L27.75 9.35 27.7 9.35 Q26.45 8.9 25.45 8.25 L23.7 7.0 Q22.15 4.3 21.1 1.65 20.2 -0.75 19.65 -3.1 19.2 -4.95 19.05 -6.75 18.65 -9.9 18.95 -13.05 19.25 -16.3 20.25 -19.6 20.75 -21.45 21.5 -23.3 25.35 -26.7 30.55 -27.9 L33.1 -28.35 M28.9 -17.05 L24.9 -17.05 Q23.95 -13.75 24.05 -10.8 24.15 -8.4 24.9 -6.25 L28.9 -6.25 28.9 -17.05" fill="url(#gradient0)" fill-rule="evenodd" stroke="none"/>
      <path d="M-23.65 20.65 L-23.65 20.75 -23.7 20.7 -23.65 20.65" fill="url(#gradient1)" fill-rule="evenodd" stroke="none"/>
      <path d="M-48.2 20.9 L-47.0 20.9 -47.65 21.05 -48.2 20.9" fill="url(#gradient2)" fill-rule="evenodd" stroke="none"/>
      <path d="M-47.1 28.3 L-48.25 28.3 -47.65 28.2 -47.1 28.3" fill="url(#gradient3)" fill-rule="evenodd" stroke="none"/>
      <path d="M46.05 10.85 L47.2 10.8 47.35 12.4 47.35 12.5 46.7 10.85 46.05 10.85" fill="url(#gradient4)" fill-rule="evenodd" stroke="none"/>
      <path d="M27.9 10.2 L27.95 10.8 28.15 11.25 41.15 12.25 44.75 12.05 45.35 10.85 45.35 10.8 45.6 10.85 46.05 10.85 46.7 10.85 47.35 12.5 Q48.3 15.3 48.0 18.1 47.7 20.35 46.7 22.6 L41.7 23.65 39.0 23.95 Q32.6 24.4 26.85 22.6 25.8 20.5 25.45 18.2 L25.3 16.45 25.3 15.2 Q25.4 12.9 26.15 10.5 L27.9 10.2" fill="url(#gradient5)" fill-rule="evenodd" stroke="none"/>
      <path d="M39.45 -27.05 L39.95 -27.85 Q44.2 -34.1 50.2 -34.1 56.25 -34.1 60.4 -27.85 64.7 -21.55 64.7 -12.7 64.7 -9.45 64.15 -6.5 63.6 -3.95 62.65 -1.65 61.7 0.5 60.4 2.4 L59.6 3.55 57.0 6.25 55.5 7.3 Q53.85 8.25 52.0 8.55 L50.2 8.7 48.75 8.6 46.9 8.2 45.2 7.45 Q44.1 6.85 43.15 6.05 41.45 4.6 39.95 2.4 L39.1 1.05 Q38.0 -0.85 37.25 -3.0 35.75 -7.4 35.75 -12.7 35.75 -19.15 38.0 -24.2 L39.35 -26.9 39.45 -27.05" fill="url(#gradient6)" fill-rule="evenodd" stroke="none"/>
      <path d="M48.65 10.75 L47.15 10.5 45.0 9.8 42.9 8.6 42.75 8.5 Q41.5 7.65 40.4 6.45 L38.3 3.9 Q36.15 0.8 34.95 -2.9 33.5 -7.4 33.5 -12.8 33.5 -17.7 34.75 -21.9 35.15 -23.35 35.7 -24.65 L35.85 -25.05 36.25 -25.95 37.45 -28.1 37.7 -28.55 38.3 -29.45 Q42.9 -35.95 49.2 -36.3 L49.95 -36.35 50.2 -36.35 51.0 -36.3 Q57.05 -35.8 61.5 -29.45 66.35 -22.55 66.35 -12.8 66.35 -9.55 65.85 -6.65 64.75 -0.75 61.5 3.9 56.85 10.6 48.65 10.75 M39.45 -27.05 L39.35 -26.9 38.0 -24.2 Q35.75 -19.15 35.75 -12.7 35.75 -7.4 37.25 -3.0 38.0 -0.85 39.1 1.05 L39.95 2.4 Q41.45 4.6 43.15 6.05 44.1 6.85 45.2 7.45 L46.9 8.2 48.75 8.6 50.2 8.7 52.0 8.55 Q53.85 8.25 55.5 7.3 L57.0 6.25 59.6 3.55 60.4 2.4 Q61.7 0.5 62.65 -1.65 63.6 -3.95 64.15 -6.5 64.7 -9.45 64.7 -12.7 64.7 -21.55 60.4 -27.85 56.25 -34.1 50.2 -34.1 44.2 -34.1 39.95 -27.85 L39.45 -27.05" fill="url(#gradient7)" fill-rule="evenodd" stroke="none"/>
      <path d="M28.9 -6.25 L24.9 -6.25 Q24.15 -8.4 24.05 -10.8 23.95 -13.75 24.9 -17.05 L28.9 -17.05 Q28.1 -14.05 28.15 -11.15 28.2 -8.7 28.9 -6.25" fill="url(#gradient8)" fill-rule="evenodd" stroke="none"/>
      <path d="M28.9 -6.25 Q28.2 -8.7 28.15 -11.15 28.1 -14.05 28.9 -17.05 L28.9 -6.25" fill="url(#gradient9)" fill-rule="evenodd" stroke="none"/>
      <path d="M25.3 16.45 L25.45 18.2 Q25.8 20.5 26.85 22.6 32.6 24.4 39.0 23.95 L41.7 23.65 46.7 22.6 Q47.7 20.35 48.0 18.1 49.95 20.35 52.8 22.15 L55.75 23.7 57.1 24.3 57.9 24.65 61.45 25.8 Q66.05 27.15 71.95 27.9 72.1 31.45 70.05 32.9 L68.55 33.6 Q46.5 35.95 16.6 36.35 L11.75 36.45 0.25 36.5 -0.95 36.5 -7.7 36.45 -22.1 36.1 -36.2 35.5 -41.8 34.8 Q-43.45 34.25 -44.35 33.4 -45.75 32.1 -45.35 29.9 -44.5 27.45 -39.7 26.05 -38.3 25.15 -38.75 24.2 -40.0 23.35 -40.55 22.35 -41.1 21.35 -41.05 20.2 -41.0 18.9 -39.25 18.2 -37.8 17.6 -35.1 17.45 L25.3 16.45 M-23.65 20.65 L-23.7 20.7 -23.65 20.75 -23.65 20.65 M-30.35 28.65 Q-29.6 27.9 -29.6 26.8 -29.6 25.7 -30.35 24.95 -31.1 24.2 -32.2 24.2 -33.3 24.2 -34.05 24.95 -34.8 25.7 -34.8 26.8 -34.8 27.9 -34.05 28.65 -33.3 29.4 -32.2 29.4 -31.1 29.4 -30.35 28.65" fill="url(#gradient10)" fill-rule="evenodd" stroke="none"/>
      <path d="M33.1 -28.35 L30.55 -27.9 Q25.35 -26.7 21.5 -23.3 20.75 -21.45 20.25 -19.6 19.25 -16.3 18.95 -13.05 18.65 -9.9 19.05 -6.75 19.2 -4.95 19.65 -3.1 20.2 -0.75 21.1 1.65 22.15 4.3 23.7 7.0 L25.45 8.25 Q26.45 8.9 27.7 9.35 L27.75 9.35 28.05 9.5 Q27.9 9.85 27.9 10.2 L26.15 10.5 Q25.4 12.9 25.3 15.2 L-48.55 15.1 -51.3 15.1 -64.3 15.1 -65.4 15.1 -65.7 18.2 Q-66.1 23.7 -65.25 28.2 L-67.15 28.15 Q-69.15 27.9 -70.5 27.15 -73.1 19.1 -71.05 12.5 -70.05 11.45 -66.6 11.25 L-64.45 11.2 -64.35 4.55 -63.6 -5.2 -63.2 -8.65 Q-61.8 -17.3 -54.65 -22.7 -47.85 -27.85 -39.4 -30.0 L-31.35 -31.65 -29.75 -31.9 -26.85 -27.1 -26.5 -32.25 -25.5 -32.35 -23.7 -32.5 Q-1.45 -34.6 22.85 -32.5 28.65 -31.3 33.1 -28.35" fill="url(#gradient11)" fill-rule="evenodd" stroke="none"/>
      <path d="M-65.25 28.2 Q-66.1 23.7 -65.7 18.2 L-65.4 15.1 -64.3 15.1 -51.3 15.1 -48.55 15.1 25.3 15.2 25.3 16.45 -35.1 17.45 Q-37.8 17.6 -39.25 18.2 -41.0 18.9 -41.05 20.2 -41.1 21.35 -40.55 22.35 -40.0 23.35 -38.75 24.2 -38.3 25.15 -39.7 26.05 -44.5 27.45 -45.35 29.9 -45.75 32.1 -44.35 33.4 L-56.95 32.65 -61.8 32.2 -64.3 31.9 -65.25 28.2 M-48.2 20.9 L-48.6 20.9 Q-50.15 20.9 -51.25 22.0 -52.3 23.05 -52.3 24.6 -52.3 26.15 -51.25 27.2 -50.3 28.15 -48.95 28.3 L-48.6 28.3 -48.25 28.3 -47.1 28.3 -46.75 28.3 -46.65 28.3 -46.6 28.3 Q-45.1 28.3 -44.05 27.2 -42.95 26.15 -42.95 24.6 -42.95 23.05 -44.05 22.0 -45.05 20.95 -46.55 20.9 L-46.65 20.9 -47.0 20.9 -48.2 20.9" fill="url(#gradient12)" fill-rule="evenodd" stroke="none"/>
      <path d="M-30.35 28.65 Q-31.1 29.4 -32.2 29.4 -33.3 29.4 -34.05 28.65 -34.8 27.9 -34.8 26.8 -34.8 25.7 -34.05 24.95 -33.3 24.2 -32.2 24.2 -31.1 24.2 -30.35 24.95 -29.6 25.7 -29.6 26.8 -29.6 27.9 -30.35 28.65" fill="url(#gradient13)" fill-rule="evenodd" stroke="none"/>
      <path d="M-48.25 28.3 L-48.6 28.3 -48.95 28.3 Q-50.3 28.15 -51.25 27.2 -52.3 26.15 -52.3 24.6 -52.3 23.05 -51.25 22.0 -50.15 20.9 -48.6 20.9 L-48.2 20.9 -47.65 21.05 -47.0 20.9 -46.65 20.9 -46.55 20.9 Q-45.05 20.95 -44.05 22.0 -42.95 23.05 -42.95 24.6 -42.95 26.15 -44.05 27.2 -45.1 28.3 -46.6 28.3 L-46.65 28.3 -46.75 28.3 -47.1 28.3 -47.65 28.2 -48.25 28.3" fill="url(#gradient14)" fill-rule="evenodd" stroke="none"/>
    </g>
    <linearGradient gradientTransform="matrix(0.0192, 0.0, 0.0, 0.0298, 34.5, -12.15)" gradientUnits="userSpaceOnUse" id="gradient0" spreadMethod="pad" x1="-819.2" x2="819.2">
      <stop offset="0.0" stop-color="#000000"/>
      <stop offset="1.0" stop-color="#ffffff"/>
    </linearGradient>
    <linearGradient gradientTransform="matrix(0.0, 0.0, 0.0, 1.0E-4, -23.7, 20.7)" gradientUnits="userSpaceOnUse" id="gradient1" spreadMethod="pad" x1="-819.2" x2="819.2">
      <stop offset="0.0" stop-color="#000000"/>
      <stop offset="1.0" stop-color="#ffffff"/>
    </linearGradient>
    <linearGradient gradientTransform="matrix(7.0E-4, 0.0, 0.0, 1.0E-4, -47.6, 20.95)" gradientUnits="userSpaceOnUse" id="gradient2" spreadMethod="pad" x1="-819.2" x2="819.2">
      <stop offset="0.0" stop-color="#000000"/>
      <stop offset="1.0" stop-color="#ffffff"/>
    </linearGradient>
    <linearGradient gradientTransform="matrix(7.0E-4, 0.0, 0.0, 1.0E-4, -47.7, 28.25)" gradientUnits="userSpaceOnUse" id="gradient3" spreadMethod="pad" x1="-819.2" x2="819.2">
      <stop offset="0.0" stop-color="#000000"/>
      <stop offset="1.0" stop-color="#ffffff"/>
    </linearGradient>
    <linearGradient gradientTransform="matrix(8.0E-4, 0.0, 0.0, 0.001, 46.7, 11.65)" gradientUnits="userSpaceOnUse" id="gradient4" spreadMethod="pad" x1="-819.2" x2="819.2">
      <stop offset="0.0" stop-color="#000000"/>
      <stop offset="1.0" stop-color="#ffffff"/>
    </linearGradient>
    <linearGradient gradientTransform="matrix(0.0139, 0.0, 0.0, 0.0085, 36.65, 17.1)" gradientUnits="userSpaceOnUse" id="gradient5" spreadMethod="pad" x1="-819.2" x2="819.2">
      <stop offset="0.0" stop-color="#000000"/>
      <stop offset="1.0" stop-color="#ffffff"/>
    </linearGradient>
    <linearGradient gradientTransform="matrix(0.0, -0.0233, 0.0261, 0.0, 50.2, -12.7)" gradientUnits="userSpaceOnUse" id="gradient6" spreadMethod="pad" x1="-819.2" x2="819.2">
      <stop offset="0.0" stop-color="#000000"/>
      <stop offset="1.0" stop-color="#ffffff"/>
    </linearGradient>
    <linearGradient gradientTransform="matrix(0.0142, -0.0142, 0.0203, 0.0203, 49.9, -12.8)" gradientUnits="userSpaceOnUse" id="gradient7" spreadMethod="pad" x1="-819.2" x2="819.2">
      <stop offset="0.0" stop-color="#000000"/>
      <stop offset="1.0" stop-color="#ffffff"/>
    </linearGradient>
    <linearGradient gradientTransform="matrix(0.0, -0.0059, 0.0066, 0.0, 26.45, -11.65)" gradientUnits="userSpaceOnUse" id="gradient8" spreadMethod="pad" x1="-819.2" x2="819.2">
      <stop offset="0.0" stop-color="#000000"/>
      <stop offset="1.0" stop-color="#ffffff"/>
    </linearGradient>
    <linearGradient gradientTransform="matrix(0.0, -0.0048, 0.0066, 0.0, 28.5, -11.65)" gradientUnits="userSpaceOnUse" id="gradient9" spreadMethod="pad" x1="-819.2" x2="819.2">
      <stop offset="0.0" stop-color="#000000"/>
      <stop offset="1.0" stop-color="#ffffff"/>
    </linearGradient>
    <linearGradient gradientTransform="matrix(0.0571, 0.0, 0.0, 0.0122, 13.25, 26.45)" gradientUnits="userSpaceOnUse" id="gradient10" spreadMethod="pad" x1="-819.2" x2="819.2">
      <stop offset="0.0" stop-color="#000000"/>
      <stop offset="1.0" stop-color="#ffffff"/>
    </linearGradient>
    <linearGradient gradientTransform="matrix(0.0, -0.028, 0.0377, 0.0, -16.6, -8.0)" gradientUnits="userSpaceOnUse" id="gradient11" spreadMethod="pad" x1="-819.2" x2="819.2">
      <stop offset="0.0" stop-color="#000000"/>
      <stop offset="1.0" stop-color="#ffffff"/>
    </linearGradient>
    <linearGradient gradientTransform="matrix(-0.0355, 0.0, 0.0, -0.0112, -34.55, 22.85)" gradientUnits="userSpaceOnUse" id="gradient12" spreadMethod="pad" x1="-819.2" x2="819.2">
      <stop offset="0.0" stop-color="#000000"/>
      <stop offset="1.0" stop-color="#ffffff"/>
    </linearGradient>
    <linearGradient gradientTransform="matrix(0.0, -0.0032, 0.0032, 0.0, -32.2, 26.8)" gradientUnits="userSpaceOnUse" id="gradient13" spreadMethod="pad" x1="-819.2" x2="819.2">
      <stop offset="0.0" stop-color="#000000"/>
      <stop offset="1.0" stop-color="#ffffff"/>
    </linearGradient>
    <linearGradient gradientTransform="matrix(0.0, -0.0042, 0.0045, 0.0, -47.65, 24.6)" gradientUnits="userSpaceOnUse" id="gradient14" spreadMethod="pad" x1="-819.2" x2="819.2">
      <stop offset="0.0" stop-color="#000000"/>
      <stop offset="1.0" stop-color="#ffffff"/>
    </linearGradient>
    <g id="shape3" transform="matrix(1.0, 0.0, 0.0, 1.0, 48.15, 154.85)">
      <path d="M31.25 -152.95 Q34.95 -151.85 37.55 -150.7 42.35 -148.5 44.2 -143.6 44.4 -142.75 43.4 -141.0 42.45 -140.0 39.85 -139.55 L36.65 -139.8 Q37.75 -140.2 38.5 -140.75 40.05 -141.85 40.05 -143.7 40.05 -147.95 34.8 -151.2 34.4 -151.55 31.25 -152.95 M-14.2 -139.35 L-17.8 -139.0 Q-20.6 -139.35 -21.8 -140.35 -22.9 -142.05 -22.55 -142.95 -20.5 -147.85 -15.15 -150.15 L-8.2 -152.65 -12.1 -150.8 Q-18.0 -147.4 -18.0 -143.15 -18.0 -141.3 -16.25 -140.2 -15.4 -139.7 -14.2 -139.35" fill="#292929" fill-rule="evenodd" stroke="none"/>
      <path d="M36.65 -139.8 L34.8 -140.1 Q29.25 -140.75 23.95 -142.95 19.35 -145.0 16.1 -148.8 15.85 -149.5 15.85 -150.15 15.85 -156.9 27.85 -153.95 L30.25 -153.3 31.25 -152.95 Q34.4 -151.55 34.8 -151.2 40.05 -147.95 40.05 -143.7 40.05 -141.85 38.5 -140.75 37.75 -140.2 36.65 -139.8 M-8.2 -152.65 L-7.1 -152.95 -4.4 -153.6 Q9.0 -156.9 9.0 -150.15 L8.8 -148.8 Q5.1 -144.9 -0.05 -142.75 -5.9 -140.45 -12.1 -139.7 L-14.2 -139.35 Q-15.4 -139.7 -16.25 -140.2 -18.0 -141.3 -18.0 -143.15 -18.0 -147.4 -12.1 -150.8 L-8.2 -152.65 M26.35 -124.3 L26.1 -123.45 25.0 -123.0 23.7 -124.2 Q23.7 -126.15 26.0 -125.4 L26.2 -125.2 26.35 -124.3 M12.8 -113.0 L11.5 -114.2 Q11.5 -116.15 13.8 -115.4 L14.0 -115.15 14.15 -114.3 13.9 -113.45 12.8 -113.0 M31.9 -113.0 L32.0 -112.1 31.75 -111.25 30.7 -110.8 29.4 -112.0 Q29.4 -114.0 31.65 -113.2 L31.9 -113.0 M24.7 -101.9 L24.9 -101.65 25.0 -100.8 24.8 -99.95 23.7 -99.5 22.4 -100.7 Q22.4 -102.65 24.7 -101.9 M41.15 -127.7 Q41.15 -128.35 41.45 -128.9 42.1 -130.0 43.85 -129.35 L44.1 -129.1 44.2 -128.25 43.75 -127.35 Q43.2 -126.85 42.45 -126.5 L41.15 -127.7 M52.25 -128.25 Q51.7 -127.9 51.15 -127.8 L49.85 -129.0 Q49.85 -130.95 52.15 -130.2 L52.35 -130.0 52.45 -129.1 52.25 -128.25 M48.65 -119.75 L48.85 -119.55 49.0 -118.65 48.75 -117.8 Q48.2 -117.45 47.65 -117.35 L46.35 -118.55 Q46.35 -120.5 48.65 -119.75 M44.85 -108.65 L43.75 -108.2 42.45 -109.4 Q42.45 -111.35 44.75 -110.6 L44.95 -110.4 45.05 -109.5 44.85 -108.65 M51.6 -103.4 Q50.3 -104.6 50.3 -104.95 50.3 -105.8 51.6 -106.25 52.9 -106.55 52.9 -104.95 L52.8 -103.95 51.6 -103.4 M5.0 -95.15 L3.7 -96.35 Q3.7 -98.3 5.95 -97.55 L6.2 -97.3 6.3 -96.45 6.05 -95.55 5.0 -95.15 M-46.65 -136.95 L-47.95 -137.15 Q-48.15 -137.05 -48.15 -138.15 -48.15 -139.15 -47.4 -139.35 -46.95 -139.55 -45.45 -139.35 L-45.2 -139.15 -45.1 -138.25 Q-45.1 -136.95 -46.65 -136.95 M-46.4 -127.35 L-47.75 -128.55 Q-47.75 -130.55 -45.45 -129.75 L-45.2 -129.55 -45.1 -128.7 -45.35 -127.8 -46.4 -127.35 M-44.25 -113.85 Q-45.55 -114.95 -45.55 -115.4 -45.55 -116.25 -44.25 -116.7 -42.95 -117.05 -42.95 -115.4 L-43.05 -114.4 -44.25 -113.85 M-16.8 -124.75 L-18.1 -125.95 Q-18.1 -127.9 -15.8 -127.15 L-15.6 -126.95 -15.5 -126.05 -15.7 -125.2 -16.8 -124.75 M-0.35 -123.9 L-0.25 -123.0 -0.45 -122.15 -1.55 -121.7 -2.85 -122.9 Q-2.85 -124.85 -0.55 -124.1 L-0.35 -123.9 M-36.85 -139.8 Q-35.55 -140.1 -35.55 -138.5 L-35.65 -137.5 -36.85 -136.95 Q-38.15 -138.05 -38.15 -138.5 -38.15 -139.35 -36.85 -139.8 M-37.7 -126.85 Q-37.7 -127.8 -36.95 -128.0 -36.5 -128.25 -35.0 -128.0 L-34.75 -127.8 -34.65 -126.95 Q-34.65 -125.65 -36.2 -125.65 L-37.5 -125.85 Q-37.7 -125.75 -37.7 -126.85 M-25.05 -112.1 L-25.3 -111.25 Q-25.85 -110.95 -26.4 -110.8 L-27.7 -112.0 Q-27.7 -114.0 -25.4 -113.2 L-25.2 -113.0 Q-25.05 -112.8 -25.05 -112.1 M-37.7 -104.3 L-37.95 -103.4 -39.0 -103.0 -40.3 -104.15 Q-40.3 -106.15 -38.05 -105.35 L-37.8 -105.15 -37.7 -104.3 M-7.3 -106.05 L-7.2 -105.15 -7.45 -104.3 -8.5 -103.85 -9.85 -105.05 Q-9.85 -107.0 -7.55 -106.25 L-7.3 -106.05 M-26.05 -97.75 L-25.95 -96.9 -26.15 -96.0 -27.25 -95.55 -28.55 -96.75 Q-28.55 -98.75 -26.25 -97.95 L-26.05 -97.75" fill="#000000" fill-rule="evenodd" stroke="none"/>
    </g>
  </defs>
</svg>
