<?xml version="1.0" encoding="UTF-8" standalone="no"?>
<svg xmlns:xlink="http://www.w3.org/1999/xlink" height="531.5px" width="460.6px" xmlns="http://www.w3.org/2000/svg">
  <g transform="matrix(1.0, 0.0, 0.0, 1.0, 193.65, 334.05)">
    <use height="42.8" transform="matrix(1.9412, 0.0, 0.0, 1.9412, -8.9968, -246.6409)" width="40.95" xlink:href="#sprite0"/>
  </g>
  <defs>
    <g id="sprite0" transform="matrix(1.0, 0.0, 0.0, 1.0, 20.45, 21.4)">
      <use height="42.8" transform="matrix(1.0, 0.0, 0.0, 1.0, -20.45, -21.4)" width="40.95" xlink:href="#shape0"/>
      <use height="41.8" transform="matrix(1.0, 0.0, 0.0, 1.0, -19.95, -20.9)" width="39.95" xlink:href="#sprite1"/>
    </g>
    <g id="shape0" transform="matrix(1.0, 0.0, 0.0, 1.0, 20.45, 21.4)">
      <path d="M17.0 -18.95 L17.5 -19.4 18.2 -20.0 Q18.0 -18.0 17.15 -16.3 16.35 -14.75 14.6 -12.55 L14.5 -13.05 15.6 -15.2 Q16.9 -17.95 17.0 -18.95 M-4.45 19.25 Q-6.6 20.5 -9.05 20.85 L-13.8 20.45 -14.9 20.05 -13.15 18.7 -12.2 17.4 -11.95 17.45 -11.85 17.5 Q-10.9 17.25 -10.0 16.25 L-8.55 14.25 Q-8.0 13.3 -7.6 12.05 -7.2 10.8 -7.45 9.55 L-7.4 9.55 -7.25 9.4 -6.05 8.4 -5.9 8.4 Q-4.1 7.75 -2.45 6.35 -0.8 4.85 -0.45 3.15 -0.15 1.4 -0.65 0.1 L0.95 -0.2 2.35 -0.3 3.75 -2.15 Q4.85 -3.6 5.3 -4.75 L5.75 -6.35 5.85 -7.2 6.75 -8.2 6.7 -8.15 5.9 -7.9 5.55 -8.9 8.3 -11.55 7.8 -10.05 6.75 -8.2 8.95 -8.05 9.1 -7.95 9.5 -7.6 9.6 -7.4 9.15 -5.95 9.1 -5.8 7.6 -2.9 Q6.95 -1.65 5.75 -0.4 L5.0 0.35 4.2 -0.05 2.6 -0.3 2.35 -0.3 2.6 -0.3 4.2 -0.05 3.8 1.3 3.65 1.75 2.55 5.3 Q1.6 7.6 0.1 8.65 L-0.8 7.9 -4.6 8.0 -5.9 8.4 -4.6 8.0 -0.8 7.9 -0.8 9.15 -0.95 10.25 -1.5 12.85 Q-1.65 13.55 -3.25 15.6 L-3.35 15.75 -3.5 15.9 -3.85 16.3 Q-7.75 18.2 -10.95 17.65 L-11.85 17.5 -10.95 17.65 Q-10.85 18.55 -9.6 18.75 L-7.6 18.85 Q-5.25 18.85 -4.4 18.35 L-3.95 18.15 -4.1 18.45 -4.45 19.25 M-19.8 16.05 L-19.95 15.5 Q-20.15 12.25 -17.15 13.1 -17.0 10.55 -13.6 8.9 -10.55 4.55 -6.45 2.25 L-5.45 1.75 -5.2 0.85 Q-2.1 -2.7 0.65 -4.85 L-0.4 -2.3 Q-1.25 -0.7 -2.3 0.55 L-3.65 1.0 Q-4.55 1.3 -5.45 1.75 L-5.6 2.4 Q-6.1 4.05 -7.0 5.0 L-9.4 7.5 Q-10.7 8.7 -11.9 9.15 L-12.1 9.15 -12.7 9.1 -12.15 9.25 -12.35 9.8 -13.0 11.1 -14.4 12.45 Q-15.8 13.6 -16.6 13.6 L-17.2 13.55 -16.85 15.1 -15.9 16.0 -16.05 16.1 -17.5 16.25 -19.65 16.1 -19.8 16.05 M12.85 -15.2 L14.1 -16.35 13.45 -15.05 12.55 -13.7 12.4 -13.65 12.85 -15.2 M9.7 -8.4 L9.95 -8.6 11.45 -10.25 Q12.1 -11.35 12.2 -12.0 L12.35 -12.85 12.4 -13.45 12.55 -13.7 13.7 -13.7 13.75 -13.7 14.15 -13.5 13.55 -12.1 12.45 -9.55 Q11.45 -7.65 9.95 -6.4 L9.6 -7.4 9.7 -8.4 M-17.15 13.1 L-17.2 13.55 -17.15 13.1 M-13.6 8.9 L-12.7 9.1 -13.6 8.9" fill="#ffdf8f" fill-rule="evenodd" stroke="none"/>
      <path d="M14.5 -13.05 L14.6 -12.55 Q16.35 -14.75 17.15 -16.3 18.0 -18.0 18.2 -20.0 20.35 -21.75 19.95 -20.0 L19.45 -18.6 13.4 -8.45 Q12.3 -5.95 9.7 -3.25 7.9 0.6 5.7 3.4 L5.6 3.35 Q6.0 1.25 5.0 0.35 6.0 1.25 5.6 3.35 L5.55 3.65 Q4.45 8.45 0.65 10.7 L0.3 12.35 Q-0.05 13.3 -1.6 15.0 -1.05 15.9 -1.65 16.9 L-3.25 18.5 -4.45 19.25 -4.1 18.45 -3.95 18.15 -4.4 18.35 Q-5.25 18.85 -7.6 18.85 L-9.6 18.75 Q-10.85 18.55 -10.95 17.65 -7.75 18.2 -3.85 16.3 L-3.5 15.9 -3.35 15.75 -3.25 15.6 Q-1.65 13.55 -1.5 12.85 L-0.95 10.25 -0.8 9.15 -0.8 7.9 0.1 8.65 Q1.6 7.6 2.55 5.3 L3.65 1.75 3.8 1.3 4.2 -0.05 5.0 0.35 5.75 -0.4 Q6.95 -1.65 7.6 -2.9 L9.1 -5.8 9.15 -5.95 9.6 -7.4 9.95 -6.4 Q11.45 -7.65 12.45 -9.55 L13.55 -12.1 14.15 -13.5 14.5 -13.05 M9.7 -3.25 Q10.1 -5.2 9.95 -6.4 10.1 -5.2 9.7 -3.25 M13.4 -8.45 L13.85 -9.7 Q14.65 -11.55 14.6 -12.55 14.65 -11.55 13.85 -9.7 L13.4 -8.45 M0.1 8.65 Q0.6 9.4 0.65 10.7 0.6 9.4 0.1 8.65 M-1.6 15.0 L-3.5 16.1 -3.85 16.3 -3.5 16.1 -1.6 15.0" fill="#ffc83d" fill-rule="evenodd" stroke="none"/>
      <path d="M17.0 -18.95 Q16.9 -17.95 15.6 -15.2 L14.5 -13.05 14.15 -13.5 13.75 -13.7 13.7 -13.7 12.55 -13.7 12.4 -13.45 12.35 -12.85 12.2 -12.0 Q12.1 -11.35 11.45 -10.25 L9.95 -8.6 9.7 -8.4 9.1 -7.95 8.95 -8.05 6.75 -8.2 7.8 -10.05 8.3 -11.55 10.0 -12.8 10.3 -12.95 12.85 -15.2 12.4 -13.65 12.55 -13.7 13.45 -15.05 14.1 -16.35 17.0 -18.95 M-14.9 20.05 L-17.6 18.6 Q-19.3 17.45 -19.8 16.05 L-19.65 16.1 -17.5 16.25 -16.05 16.1 -15.9 16.0 -16.85 15.1 -17.2 13.55 -16.6 13.6 Q-15.8 13.6 -14.4 12.45 L-13.0 11.1 -12.35 9.8 -12.15 9.25 -12.7 9.1 -12.1 9.15 -11.9 9.15 Q-10.7 8.7 -9.4 7.5 L-7.0 5.0 Q-6.1 4.05 -5.6 2.4 L-5.45 1.75 Q-4.55 1.3 -3.65 1.0 L-2.3 0.55 Q-1.25 -0.7 -0.4 -2.3 L0.65 -4.85 Q2.35 -6.2 3.95 -7.05 L4.1 -7.1 4.2 -7.15 5.55 -8.9 5.9 -7.9 6.7 -8.15 6.75 -8.2 5.85 -7.2 5.75 -6.35 5.3 -4.75 Q4.85 -3.6 3.75 -2.15 L2.35 -0.3 0.95 -0.2 -0.65 0.1 Q-0.15 1.4 -0.45 3.15 -0.8 4.85 -2.45 6.35 -4.1 7.75 -5.9 8.4 L-6.05 8.4 -6.6 8.55 -7.3 8.7 -7.35 8.7 -11.4 9.15 -11.9 9.15 -11.4 9.15 -7.35 8.7 -7.3 8.7 -6.6 8.55 -6.05 8.4 -7.25 9.4 -7.4 9.55 -7.45 9.55 Q-7.2 10.8 -7.6 12.05 -8.0 13.3 -8.55 14.25 L-10.0 16.25 Q-10.9 17.25 -11.85 17.5 L-11.95 17.45 -12.2 17.4 -13.15 18.7 -14.9 20.05 M-6.45 2.25 L-5.2 0.85 -5.45 1.75 -6.45 2.25 M10.3 -12.95 L10.9 -13.2 12.4 -13.65 10.9 -13.2 10.3 -12.95 M4.2 -7.15 L5.9 -7.9 4.2 -7.15 M-0.65 0.1 L-1.15 0.2 -1.9 0.4 -2.3 0.55 -1.9 0.4 -1.15 0.2 -0.65 0.1 M-12.2 17.4 L-12.4 17.3 -13.15 17.1 Q-15.0 16.5 -15.9 16.0 -15.0 16.5 -13.15 17.1 L-12.4 17.3 -12.2 17.4" fill="#fff7e3" fill-rule="evenodd" stroke="none"/>
      <path d="M9.7 -8.4 L9.6 -7.4 9.5 -7.6 9.1 -7.95 9.7 -8.4" fill="#ffd66e" fill-rule="evenodd" stroke="none"/>
      <path d="M18.2 -20.0 L17.5 -19.4 17.0 -18.95 14.1 -16.35 12.85 -15.2 10.3 -12.95 10.0 -12.8 8.3 -11.55 5.55 -8.9 4.2 -7.15 4.1 -7.1 3.95 -7.05 Q2.35 -6.2 0.65 -4.85 -2.1 -2.7 -5.2 0.85 L-6.45 2.25 Q-10.55 4.55 -13.6 8.9 -17.0 10.55 -17.15 13.1 -20.15 12.25 -19.95 15.5 L-19.8 16.05 Q-19.3 17.45 -17.6 18.6 L-14.9 20.05 -13.8 20.45 -9.05 20.85 Q-6.6 20.5 -4.45 19.25 L-3.25 18.5 -1.65 16.9 Q-1.05 15.9 -1.6 15.0 -0.05 13.3 0.3 12.35 L0.65 10.7 Q0.6 9.4 0.1 8.65 L-0.8 7.9 -4.6 8.0 -5.9 8.4 -6.05 8.4 -6.6 8.55 -7.3 8.7 -7.35 8.7 -11.4 9.15 -11.9 9.15 -12.1 9.15 -12.7 9.1 -13.6 8.9 M14.5 -13.05 L14.6 -12.55 Q14.65 -11.55 13.85 -9.7 L13.4 -8.45 Q12.3 -5.95 9.7 -3.25 7.9 0.6 5.7 3.4 L5.55 3.65 Q4.45 8.45 0.65 10.7 M18.2 -20.0 Q20.35 -21.75 19.95 -20.0 L19.45 -18.6 13.4 -8.45 M12.55 -13.7 L12.4 -13.65 10.9 -13.2 10.3 -12.95 M14.15 -13.5 L14.5 -13.05 M12.55 -13.7 L13.7 -13.7 13.75 -13.7 14.15 -13.5 M9.95 -6.4 Q10.1 -5.2 9.7 -3.25 M6.75 -8.2 L6.7 -8.15 5.9 -7.9 4.2 -7.15 M9.6 -7.4 L9.95 -6.4 M9.1 -7.95 L9.5 -7.6 9.6 -7.4 M5.0 0.35 Q6.0 1.25 5.6 3.35 L5.55 3.65 M6.75 -8.2 L8.95 -8.05 9.1 -7.95 M4.2 -0.05 L2.6 -0.3 2.35 -0.3 0.95 -0.2 -0.65 0.1 -1.15 0.2 -1.9 0.4 -2.3 0.55 -3.65 1.0 Q-4.55 1.3 -5.45 1.75 L-6.45 2.25 M4.2 -0.05 L5.0 0.35 M-3.85 16.3 L-3.5 16.1 -1.6 15.0 M-17.2 13.55 L-16.85 15.1 -15.9 16.0 Q-15.0 16.5 -13.15 17.1 L-12.4 17.3 -12.2 17.4 -11.95 17.45 -11.85 17.5 -10.95 17.65 Q-7.75 18.2 -3.85 16.3 M-17.2 13.55 L-17.15 13.1" fill="none" stroke="#242424" stroke-linecap="round" stroke-linejoin="round" stroke-opacity="0.6627451" stroke-width="1.0"/>
    </g>
    <g id="sprite1" transform="matrix(1.0, 0.0, 0.0, 1.0, 19.95, 20.9)">
      <use height="41.8" transform="matrix(1.0, 0.0, 0.0, 1.0, -19.95, -20.9)" width="39.95" xlink:href="#shape1"/>
    </g>
    <g id="shape1" transform="matrix(1.0, 0.0, 0.0, 1.0, 19.95, 20.9)">
      <path d="M2.35 -0.3 L2.45 -0.35 2.6 -0.3 2.35 -0.3" fill="#ffdf8f" fill-rule="evenodd" stroke="none"/>
      <path d="M10.3 -12.95 L17.5 -19.4 18.2 -20.0 Q20.35 -21.75 19.95 -20.0 L19.45 -18.6 13.4 -8.45 13.85 -9.7 Q14.65 -11.55 14.6 -12.55 L14.5 -13.05 14.15 -13.5 13.75 -13.7 13.7 -13.7 12.55 -13.7 12.4 -13.65 10.9 -13.2 10.3 -12.95" fill="url(#gradient0)" fill-rule="evenodd" stroke="none"/>
      <path d="M-1.6 15.0 Q-1.05 15.9 -1.65 16.9 L-3.25 18.5 -4.45 19.25 Q-6.6 20.5 -9.05 20.85 L-13.8 20.45 -14.9 20.05 -17.6 18.6 Q-19.3 17.45 -19.8 16.05 L-19.95 15.5 Q-20.15 12.25 -17.15 13.1 L-17.2 13.55 -16.85 15.1 -15.9 16.0 Q-15.0 16.5 -13.15 17.1 L-12.4 17.3 -12.2 17.4 -11.95 17.45 -11.85 17.5 -10.95 17.65 Q-7.75 18.2 -3.85 16.3 L-3.5 16.1 -1.6 15.0" fill="url(#gradient1)" fill-rule="evenodd" stroke="none"/>
      <path d="M5.6 3.35 L5.55 3.65 Q4.45 8.45 0.65 10.7 0.6 9.4 0.1 8.65 L-0.8 7.9 -4.6 8.0 -5.9 8.4 -6.0 8.4 -6.05 8.4 -6.6 8.55 -7.3 8.7 -7.35 8.7 -11.4 9.15 -11.9 9.15 -12.1 9.15 -12.7 9.1 -13.6 8.9 Q-10.55 4.55 -6.45 2.25 L-5.45 1.75 Q-4.55 1.3 -3.65 1.0 L-2.3 0.55 -1.9 0.4 -1.15 0.2 -0.65 0.1 0.95 -0.2 2.35 -0.3 2.6 -0.3 4.2 -0.05 5.0 0.35 Q6.0 1.25 5.6 3.35" fill="url(#gradient2)" fill-rule="evenodd" stroke="none"/>
      <path d="M0.65 10.7 L0.3 12.35 Q-0.05 13.3 -1.6 15.0 L-3.5 16.1 -3.85 16.3 Q-7.75 18.2 -10.95 17.65 L-11.85 17.5 -11.95 17.45 -12.2 17.4 -12.4 17.3 -13.15 17.1 Q-15.0 16.5 -15.9 16.0 L-16.85 15.1 -17.2 13.55 -17.15 13.1 Q-17.0 10.55 -13.6 8.9 L-12.7 9.1 -12.1 9.15 -11.9 9.15 -11.4 9.15 -7.35 8.7 -7.3 8.7 -6.6 8.55 -6.05 8.4 -6.0 8.4 -5.9 8.4 -4.6 8.0 -0.8 7.9 0.1 8.65 Q0.6 9.4 0.65 10.7" fill="url(#gradient3)" fill-rule="evenodd" stroke="none"/>
      <path d="M13.4 -8.45 Q12.3 -5.95 9.7 -3.25 10.1 -5.2 9.95 -6.4 L9.6 -7.4 9.5 -7.6 9.1 -7.95 8.95 -8.05 6.75 -8.2 6.7 -8.15 5.9 -7.9 4.2 -7.15 5.55 -8.9 8.3 -11.55 10.0 -12.8 10.3 -12.95 10.9 -13.2 12.4 -13.65 12.55 -13.7 13.7 -13.7 13.75 -13.7 14.15 -13.5 14.5 -13.05 14.6 -12.55 Q14.65 -11.55 13.85 -9.7 L13.4 -8.45" fill="url(#gradient4)" fill-rule="evenodd" stroke="none"/>
      <path d="M9.7 -3.25 Q7.9 0.6 5.7 3.4 L5.6 3.35 Q6.0 1.25 5.0 0.35 L4.2 -0.05 2.6 -0.3 2.45 -0.35 2.35 -0.3 0.95 -0.2 -0.65 0.1 -1.15 0.2 -1.9 0.4 -2.3 0.55 -3.65 1.0 Q-4.55 1.3 -5.45 1.75 L-6.45 2.25 -5.2 0.85 Q-2.1 -2.7 0.65 -4.85 2.35 -6.2 3.95 -7.05 L4.1 -7.1 4.2 -7.15 5.9 -7.9 6.7 -8.15 6.75 -8.2 8.95 -8.05 9.1 -7.95 9.5 -7.6 9.6 -7.4 9.95 -6.4 Q10.1 -5.2 9.7 -3.25" fill="url(#gradient5)" fill-rule="evenodd" stroke="none"/>
    </g>
    <linearGradient gradientTransform="matrix(-0.0031, -0.0117, 0.0073, -0.002, 15.0, -16.05)" gradientUnits="userSpaceOnUse" id="gradient0" spreadMethod="pad" x1="-819.2" x2="819.2">
      <stop offset="0.0" stop-color="#000000"/>
      <stop offset="1.0" stop-color="#ffffff"/>
    </linearGradient>
    <linearGradient gradientTransform="matrix(-0.0136, -0.0136, 0.0034, -0.0034, -10.65, 16.9)" gradientUnits="userSpaceOnUse" id="gradient1" spreadMethod="pad" x1="-819.2" x2="819.2">
      <stop offset="0.0" stop-color="#000000"/>
      <stop offset="1.0" stop-color="#ffffff"/>
    </linearGradient>
    <linearGradient gradientTransform="matrix(0.0098, -0.017, 0.0058, 0.0034, -2.25, 3.0)" gradientUnits="userSpaceOnUse" id="gradient2" spreadMethod="pad" x1="-819.2" x2="819.2">
      <stop offset="0.0" stop-color="#000000"/>
      <stop offset="1.0" stop-color="#ffffff"/>
    </linearGradient>
    <linearGradient gradientTransform="matrix(0.0085, -0.0147, 0.0054, 0.0031, -6.6, 10.3)" gradientUnits="userSpaceOnUse" id="gradient3" spreadMethod="pad" x1="-819.2" x2="819.2">
      <stop offset="0.0" stop-color="#000000"/>
      <stop offset="1.0" stop-color="#ffffff"/>
    </linearGradient>
    <linearGradient gradientTransform="matrix(-0.0032, -0.0118, 0.0062, -0.0017, 9.6, -10.5)" gradientUnits="userSpaceOnUse" id="gradient4" spreadMethod="pad" x1="-819.2" x2="819.2">
      <stop offset="0.0" stop-color="#000000"/>
      <stop offset="1.0" stop-color="#ffffff"/>
    </linearGradient>
    <linearGradient gradientTransform="matrix(0.0, -0.0176, 0.0071, 0.0, 1.65, -4.4)" gradientUnits="userSpaceOnUse" id="gradient5" spreadMethod="pad" x1="-819.2" x2="819.2">
      <stop offset="0.0" stop-color="#000000"/>
      <stop offset="1.0" stop-color="#ffffff"/>
    </linearGradient>
  </defs>
</svg>
