<?xml version="1.0" encoding="UTF-8" standalone="no"?>
<svg xmlns:xlink="http://www.w3.org/1999/xlink" height="531.5px" width="460.6px" xmlns="http://www.w3.org/2000/svg">
  <g transform="matrix(1.0, 0.0, 0.0, 1.0, 193.65, 334.05)">
    <use height="239.0" transform="matrix(1.0, 0.0, 0.0, 1.0, 24.65, -167.3)" width="117.8" xlink:href="#shape0"/>
    <use height="139.8" transform="matrix(1.7145, 0.0156, -0.0156, 1.7145, 56.2496, -167.6748)" width="49.1" xlink:href="#sprite0"/>
    <use height="54.45" transform="matrix(1.0, 0.0, 0.0, 1.0, 16.1, -75.95)" width="159.55" xlink:href="#shape2"/>
    <use height="18.2" transform="matrix(1.9217, -0.1571, 0.1571, 1.9217, 16.0313, -65.0974)" width="82.05" xlink:href="#sprite1"/>
    <use height="69.2" transform="matrix(1.0, 0.0, 0.0, 1.0, -62.85, -72.45)" width="112.4" xlink:href="#shape4"/>
  </g>
  <defs>
    <g id="shape0" transform="matrix(1.0, 0.0, 0.0, 1.0, -24.65, 167.3)">
      <path d="M68.45 -147.25 L69.4 -146.85 Q69.7 -146.55 69.7 -145.55 69.7 -142.95 52.05 -107.3 35.9 -74.8 25.15 -54.7 L24.65 -54.7 Q28.25 -64.3 34.8 -78.0 L46.1 -101.3 Q49.75 -108.95 56.6 -124.7 62.95 -138.5 68.45 -147.25 M31.9 -32.7 L54.6 5.2 Q67.8 27.3 76.4 43.75 L75.95 44.0 75.25 44.35 51.7 5.5 Q38.25 -17.1 31.45 -32.7 L31.9 -32.7" fill="#33281e" fill-rule="evenodd" stroke="none"/>
      <path d="M139.4 -63.7 L140.45 -61.0 Q141.3 -58.2 141.3 -56.05 L141.15 -54.6 141.2 -53.95 140.25 -51.35 140.15 -50.9 140.25 -50.85 Q140.3 -50.6 140.6 -50.5 L140.65 -50.5 Q141.8 -49.7 142.2 -47.4 142.55 -45.65 142.4 -43.75 142.4 -40.6 140.7 -38.8 139.7 -37.7 138.05 -36.95 L138.6 -36.1 Q138.9 -35.35 138.9 -33.8 138.9 -25.8 135.7 -23.35 133.25 -21.5 125.9 -21.5 123.75 -21.5 119.2 -23.1 L118.8 -23.25 117.8 -23.35 117.65 -23.25 Q116.6 -21.7 108.55 -21.7 101.95 -21.7 97.1 -26.55 95.5 -28.15 94.45 -32.55 L93.0 -39.05 Q92.7 -40.75 92.7 -44.45 L92.7 -48.35 Q92.8 -49.95 93.55 -52.65 94.2 -55.1 97.25 -57.8 99.55 -59.85 100.7 -60.05 L100.7 -60.15 Q101.3 -64.95 103.25 -69.45 L104.0 -71.15 104.9 -72.2 Q108.45 -74.7 112.9 -74.5 L114.4 -74.6 118.65 -74.6 120.4 -74.6 Q125.05 -74.55 127.7 -71.65 129.6 -69.6 129.65 -67.55 134.8 -67.7 136.55 -66.65 138.25 -65.6 138.8 -64.8 L139.4 -63.7 M137.15 -51.6 Q138.4 -52.3 139.05 -53.2 L139.8 -54.4 140.05 -55.75 139.95 -57.0 139.0 -61.15 138.5 -62.85 Q138.0 -64.25 135.95 -65.2 L135.05 -65.6 130.9 -66.25 122.3 -65.3 Q117.85 -64.15 115.95 -63.25 L115.6 -63.05 Q113.7 -62.1 113.05 -60.85 112.4 -59.65 112.1 -58.5 111.45 -55.4 112.05 -52.9 112.1 -52.3 112.25 -52.05 112.45 -51.25 113.1 -50.85 113.55 -50.5 114.95 -50.2 L115.7 -50.1 116.3 -50.0 116.45 -49.95 Q125.15 -49.3 132.15 -50.3 135.05 -50.65 136.45 -51.3 L137.15 -51.6 M122.6 -72.2 L119.0 -72.6 114.4 -72.55 Q107.95 -72.8 106.5 -71.3 105.0 -69.8 104.9 -69.35 103.35 -66.4 102.65 -63.1 L101.95 -60.15 101.4 -58.35 101.15 -58.0 100.75 -59.0 99.65 -57.9 97.55 -55.9 Q95.5 -53.7 95.0 -52.0 94.25 -49.55 94.15 -47.95 L94.2 -44.4 Q94.2 -41.5 94.65 -39.05 95.0 -37.1 96.05 -33.25 L96.8 -30.5 Q97.45 -28.75 98.4 -27.7 99.75 -26.3 102.05 -25.1 105.2 -23.45 108.5 -23.4 L108.7 -23.4 112.9 -23.5 114.3 -23.65 116.2 -24.2 112.9 -25.85 110.2 -27.7 Q109.65 -28.35 109.65 -29.9 109.65 -31.9 110.5 -34.85 L111.3 -36.35 111.8 -37.05 111.2 -37.2 109.25 -36.05 Q106.55 -34.6 105.15 -34.6 L103.55 -35.05 Q103.85 -35.55 108.1 -37.1 L109.3 -37.85 Q107.85 -38.4 106.9 -39.05 105.2 -40.2 104.9 -41.8 104.75 -42.65 104.95 -43.85 104.85 -46.9 105.8 -49.25 107.1 -52.3 109.9 -51.9 L109.9 -52.6 110.0 -55.95 108.8 -56.55 106.9 -57.65 Q107.4 -58.8 109.85 -58.25 L110.2 -58.15 Q110.4 -59.9 110.8 -60.75 112.4 -64.1 117.35 -65.75 L122.15 -66.85 126.1 -67.3 127.6 -67.45 127.55 -67.55 126.6 -69.6 Q125.4 -71.55 122.6 -72.2 M111.35 -48.85 Q110.85 -49.05 110.55 -49.45 L110.4 -49.75 109.7 -49.95 Q108.8 -50.1 107.8 -49.0 L106.95 -47.65 Q106.8 -47.1 106.8 -44.9 106.8 -42.95 107.05 -42.3 107.65 -40.75 109.85 -39.8 L110.6 -39.55 115.05 -38.6 124.15 -37.4 Q128.85 -37.0 131.75 -37.5 L136.2 -38.35 137.15 -38.7 139.15 -40.05 Q140.55 -41.4 140.55 -44.75 L140.25 -47.1 140.1 -48.3 140.05 -48.5 Q139.8 -49.6 138.8 -49.6 138.25 -49.6 137.8 -49.25 L137.75 -49.25 132.25 -48.4 127.3 -48.1 122.45 -48.1 118.35 -48.15 116.45 -48.25 112.15 -48.6 111.8 -48.7 111.6 -48.8 111.35 -48.85 M116.0 -36.25 L115.55 -36.35 113.7 -36.45 113.5 -36.35 113.3 -36.05 Q112.35 -34.8 112.3 -34.35 L111.9 -32.85 111.55 -31.2 111.75 -29.45 112.25 -28.3 112.9 -27.6 113.65 -27.15 Q114.9 -26.4 116.25 -25.75 120.3 -23.95 124.7 -23.75 L126.75 -23.75 128.65 -23.85 Q131.6 -23.85 133.5 -24.65 135.0 -25.35 135.75 -26.6 136.9 -28.45 136.9 -33.4 L136.75 -34.75 136.1 -35.6 135.0 -36.0 129.4 -35.55 116.0 -36.25" fill="#000000" fill-rule="evenodd" stroke="none"/>
      <path d="M135.05 -65.6 L135.95 -65.2 Q138.0 -64.25 138.5 -62.85 L139.0 -61.15 139.95 -57.0 140.05 -55.75 139.8 -54.4 139.05 -53.2 Q138.4 -52.3 137.15 -51.6 L137.45 -53.35 Q137.45 -58.05 136.65 -61.55 136.05 -64.15 135.05 -65.6 M115.7 -50.1 L114.95 -50.2 Q113.55 -50.5 113.1 -50.85 112.45 -51.25 112.25 -52.05 112.1 -52.3 112.05 -52.9 111.45 -55.4 112.1 -58.5 112.4 -59.65 113.05 -60.85 113.7 -62.1 115.6 -63.05 L115.95 -63.25 Q114.85 -60.4 114.85 -55.75 L114.9 -52.65 Q115.1 -51.45 115.7 -50.1 M126.1 -67.3 Q124.95 -67.95 124.4 -69.6 123.85 -71.25 122.6 -72.2 125.4 -71.55 126.6 -69.6 L127.55 -67.55 127.6 -67.45 126.1 -67.3 M110.6 -39.55 L109.85 -39.8 Q107.65 -40.75 107.05 -42.3 106.8 -42.95 106.8 -44.9 106.8 -47.1 106.95 -47.65 L107.8 -49.0 Q108.8 -50.1 109.7 -49.95 L110.4 -49.75 110.55 -49.45 Q110.85 -49.05 111.35 -48.85 L110.75 -48.35 Q110.05 -47.35 110.05 -43.45 110.05 -40.8 110.6 -39.55 M137.75 -49.25 L137.8 -49.25 Q138.25 -49.6 138.8 -49.6 139.8 -49.6 140.05 -48.5 L140.1 -48.3 140.25 -47.1 140.55 -44.75 Q140.55 -41.4 139.15 -40.05 L137.15 -38.7 137.55 -40.65 Q138.25 -43.8 138.25 -46.75 138.25 -48.15 137.75 -49.25 M113.65 -27.15 L112.9 -27.6 112.25 -28.3 111.75 -29.45 111.55 -31.2 111.9 -32.85 112.3 -34.35 Q112.35 -34.8 113.3 -36.05 L113.5 -36.35 113.7 -36.45 115.55 -36.35 116.0 -36.25 114.95 -33.05 Q113.65 -28.9 113.65 -27.45 L113.65 -27.15 M136.75 -34.75 L136.9 -33.4 Q136.9 -28.45 135.75 -26.6 135.0 -25.35 133.5 -24.65 134.3 -28.35 134.85 -30.15 135.15 -31.25 136.15 -33.15 L136.75 -34.75" fill="#bdbdbd" fill-rule="evenodd" stroke="none"/>
      <path d="M137.15 -51.6 L136.45 -51.3 Q135.05 -50.65 132.15 -50.3 125.15 -49.3 116.45 -49.95 L116.3 -50.0 115.7 -50.1 Q115.1 -51.45 114.9 -52.65 L114.85 -55.75 Q114.85 -60.4 115.95 -63.25 117.85 -64.15 122.3 -65.3 L130.9 -66.25 135.05 -65.6 Q136.05 -64.15 136.65 -61.55 137.45 -58.05 137.45 -53.35 L137.15 -51.6 M122.6 -72.2 Q123.85 -71.25 124.4 -69.6 124.95 -67.95 126.1 -67.3 L122.15 -66.85 117.35 -65.75 Q112.4 -64.1 110.8 -60.75 110.4 -59.9 110.2 -58.15 L109.85 -58.25 Q107.4 -58.8 106.9 -57.65 L108.8 -56.55 110.0 -55.95 109.9 -52.6 109.9 -51.9 Q107.1 -52.3 105.8 -49.25 104.85 -46.9 104.95 -43.85 104.75 -42.65 104.9 -41.8 105.2 -40.2 106.9 -39.05 107.85 -38.4 109.3 -37.85 L108.1 -37.1 Q103.85 -35.55 103.55 -35.05 L105.15 -34.6 Q106.55 -34.6 109.25 -36.05 L111.2 -37.2 111.8 -37.05 111.3 -36.35 110.5 -34.85 Q109.65 -31.9 109.65 -29.9 109.65 -28.35 110.2 -27.7 L112.9 -25.85 116.2 -24.2 114.3 -23.65 112.9 -23.5 108.7 -23.4 108.5 -23.4 Q105.2 -23.45 102.05 -25.1 99.75 -26.3 98.4 -27.7 97.45 -28.75 96.8 -30.5 L96.05 -33.25 Q95.0 -37.1 94.65 -39.05 94.2 -41.5 94.2 -44.4 L94.15 -47.95 Q94.25 -49.55 95.0 -52.0 95.5 -53.7 97.55 -55.9 L99.65 -57.9 100.75 -59.0 101.15 -58.0 101.4 -58.35 101.95 -60.15 102.65 -63.1 Q103.35 -66.4 104.9 -69.35 105.0 -69.8 106.5 -71.3 107.95 -72.8 114.4 -72.55 L119.0 -72.6 122.6 -72.2 M111.35 -48.85 L111.6 -48.8 111.8 -48.7 112.15 -48.6 116.45 -48.25 118.35 -48.15 122.45 -48.1 127.3 -48.1 132.25 -48.4 137.75 -49.25 Q138.25 -48.15 138.25 -46.75 138.25 -43.8 137.55 -40.65 L137.15 -38.7 136.2 -38.35 131.75 -37.5 Q128.85 -37.0 124.15 -37.4 L115.05 -38.6 110.6 -39.55 Q110.05 -40.8 110.05 -43.45 110.05 -47.35 110.75 -48.35 L111.35 -48.85 M113.65 -27.15 L113.65 -27.45 Q113.65 -28.9 114.95 -33.05 L116.0 -36.25 129.4 -35.55 135.0 -36.0 136.1 -35.6 136.75 -34.75 136.15 -33.15 Q135.15 -31.25 134.85 -30.15 134.3 -28.35 133.5 -24.65 131.6 -23.85 128.65 -23.85 L126.75 -23.75 124.7 -23.75 Q120.3 -23.95 116.25 -25.75 114.9 -26.4 113.65 -27.15" fill="#999999" fill-rule="evenodd" stroke="none"/>
      <path d="M115.0 -84.15 Q112.35 -88.0 109.95 -94.6 L104.55 -110.25 Q99.65 -124.1 90.6 -133.3 81.9 -142.05 70.45 -149.3 65.35 -152.4 61.8 -157.2 58.5 -161.55 57.2 -166.2 L57.3 -166.8 Q60.15 -161.05 66.9 -154.9 L72.9 -150.3 87.8 -139.6 Q92.05 -136.55 95.5 -132.75 101.05 -126.1 104.95 -118.2 108.5 -110.8 110.2 -102.55 111.85 -94.3 116.95 -87.55 L118.7 -85.65 Q116.7 -85.0 115.0 -84.15 M55.1 70.85 Q58.85 63.9 64.0 58.2 69.6 52.1 76.45 47.6 83.15 43.05 89.0 38.15 94.85 33.15 98.75 25.5 102.55 17.85 104.85 10.4 107.45 2.1 111.4 -5.2 L114.55 -10.25 118.05 -8.85 116.25 -6.95 Q110.95 -0.3 109.2 7.85 107.3 16.1 103.65 23.4 99.65 31.3 93.9 37.85 90.45 41.55 86.1 44.5 L71.0 54.9 65.0 59.4 Q58.05 65.45 55.1 71.2 L55.1 70.85" fill="#2e2e2e" fill-rule="evenodd" stroke="none"/>
      <path d="M57.2 -166.2 Q58.5 -161.55 61.8 -157.2 65.35 -152.4 70.45 -149.3 81.9 -142.05 90.6 -133.3 99.65 -124.1 104.55 -110.25 L109.95 -94.6 Q112.35 -88.0 115.0 -84.15 113.45 -83.5 112.05 -82.7 109.1 -86.1 106.8 -90.2 104.85 -93.6 103.25 -97.45 L100.2 -108.15 99.3 -111.75 Q98.05 -117.5 94.8 -122.25 89.45 -130.95 80.8 -136.25 L76.85 -138.75 Q72.2 -141.9 68.0 -145.5 68.7 -142.85 71.55 -138.55 L64.55 -138.35 66.45 -146.95 66.25 -147.0 Q56.15 -157.3 57.2 -166.2 M68.0 -145.5 L66.45 -146.95 68.0 -145.5 M112.9 -78.75 Q117.25 -80.7 122.5 -82.35 L130.45 -84.8 130.45 -79.05 130.1 -70.2 130.1 -68.0 129.7 -67.65 127.6 -66.55 Q125.1 -65.55 122.0 -65.4 118.7 -67.9 116.4 -71.55 114.15 -75.0 112.9 -78.75 M109.55 -17.1 Q110.7 -20.0 113.1 -22.8 116.35 -26.6 120.6 -29.0 L125.3 -28.45 Q126.95 -28.1 128.35 -27.2 L128.4 -27.2 128.85 -24.25 128.35 -21.6 127.95 -18.0 Q127.9 -15.7 129.75 -9.5 125.55 -10.75 121.9 -11.95 L118.05 -13.4 110.75 -16.45 109.55 -17.1 M75.15 43.45 Q77.15 42.2 79.2 41.05 87.95 35.85 93.4 27.25 96.75 22.6 98.1 16.85 L99.1 13.25 105.3 -7.05 Q106.6 -10.3 108.5 -13.3 L108.7 -13.5 Q111.35 -11.7 114.55 -10.25 L111.4 -5.2 Q107.45 2.1 104.85 10.4 102.55 17.85 98.75 25.5 94.85 33.15 89.0 38.15 83.15 43.05 76.45 47.6 69.6 52.1 64.0 58.2 58.85 63.9 55.1 70.85 54.05 61.7 64.45 51.5 L64.65 51.45 62.95 42.85 69.3 43.15 68.45 46.0 67.4 49.15 Q71.1 46.1 75.15 43.45 M64.65 51.45 L67.4 49.15 64.65 51.45" fill="#141414" fill-rule="evenodd" stroke="none"/>
      <path d="M68.0 -145.5 Q72.2 -141.9 76.85 -138.75 L71.55 -138.55 Q68.7 -142.85 68.0 -145.5 M69.3 43.15 L75.15 43.45 Q71.1 46.1 67.4 49.15 L68.45 46.0 69.3 43.15" fill="#0a0a0a" fill-rule="evenodd" stroke="none"/>
      <path d="M112.05 -82.7 Q113.45 -83.5 115.0 -84.15 116.7 -85.0 118.7 -85.65 L122.45 -86.8 124.35 -86.7 130.1 -86.85 130.45 -84.8 122.5 -82.35 Q117.25 -80.7 112.9 -78.75 L112.05 -82.7 M120.5 -60.45 L122.5 -61.35 Q125.75 -62.7 128.1 -62.65 L128.45 -62.65 128.65 -59.75 128.65 -58.2 128.65 -50.75 121.8 -50.35 128.65 -50.75 128.7 -48.6 Q128.7 -46.2 127.95 -41.9 L127.05 -37.15 126.25 -33.25 125.3 -28.45 120.6 -29.0 118.8 -28.8 120.4 -35.0 121.05 -38.95 Q122.0 -44.7 121.8 -50.35 121.55 -55.2 120.6 -60.0 L120.5 -60.45 M120.6 -60.0 L128.65 -58.2 120.6 -60.0 M120.4 -35.0 L126.25 -33.25 120.4 -35.0 M118.05 -13.4 L121.9 -11.95 Q125.55 -10.75 129.75 -9.5 L129.9 -9.0 131.55 -5.3 Q124.05 -6.65 118.05 -8.85 L114.55 -10.25 118.05 -13.4 M121.05 -38.95 L127.95 -41.9 121.05 -38.95" fill="#999999" fill-rule="evenodd" stroke="none"/>
      <path d="M130.45 -84.8 L130.1 -86.85 124.35 -86.7 122.45 -86.8 Q129.7 -88.9 138.9 -89.65 L136.8 -86.35 130.45 -84.8 M131.55 -5.3 L129.9 -9.0 129.75 -9.5 136.1 -7.85 138.1 -4.45 131.55 -5.3" fill="#d1d1d1" fill-rule="evenodd" stroke="none"/>
      <path d="M130.45 -84.8 L136.8 -86.35 Q131.3 -77.05 132.6 -70.7 131.55 -69.2 130.1 -68.0 L130.1 -70.2 130.45 -79.05 130.45 -84.8 M129.75 -9.5 Q127.9 -15.7 127.95 -18.0 L128.35 -21.6 128.85 -24.25 128.4 -27.2 128.95 -26.85 Q130.85 -25.55 132.2 -23.6 130.8 -17.25 136.1 -7.85 L129.75 -9.5" fill="#303030" fill-rule="evenodd" stroke="none"/>
      <path d="M122.0 -65.4 Q125.1 -65.55 127.6 -66.55 L129.7 -67.65 130.85 -63.25 131.0 -62.5 128.45 -62.65 128.1 -62.65 Q125.75 -62.7 122.5 -61.35 L120.5 -60.45 119.1 -65.6 122.0 -65.4" fill="#707070" fill-rule="evenodd" stroke="none"/>
      <path d="M128.45 -62.65 L131.0 -62.5 131.9 -57.6 132.45 -51.0 128.65 -50.75 132.45 -51.0 132.2 -43.9 Q131.7 -38.05 130.35 -32.0 L126.25 -33.25 130.35 -32.0 128.95 -26.85 128.4 -27.2 128.35 -27.35 128.35 -27.2 Q126.95 -28.1 125.3 -28.45 L126.25 -33.25 127.05 -37.15 127.95 -41.9 132.2 -43.9 127.95 -41.9 Q128.7 -46.2 128.7 -48.6 L128.65 -50.75 128.65 -58.2 131.9 -57.6 128.65 -58.2 128.65 -59.75 128.45 -62.65" fill="#b5b5b5" fill-rule="evenodd" stroke="none"/>
      <path d="M103.25 -97.45 Q104.85 -93.6 106.8 -90.2 109.1 -86.1 112.05 -82.7 L109.3 -81.15 Q107.35 -84.3 106.0 -87.65 L103.25 -97.45" fill="#0f0f0f" fill-rule="evenodd" stroke="none"/>
      <path d="M122.0 -65.4 L119.1 -65.6 118.5 -65.7 Q109.3 -68.85 107.85 -76.5 L111.35 -78.05 Q112.05 -78.5 112.9 -78.75 114.15 -75.0 116.4 -71.55 118.7 -67.9 122.0 -65.4 M118.8 -28.8 L120.6 -29.0 Q116.35 -26.6 113.1 -22.8 110.7 -20.0 109.55 -17.1 108.5 -17.6 107.35 -18.2 108.9 -25.85 118.2 -28.8 L118.8 -28.8" fill="#0d0d0d" fill-rule="evenodd" stroke="none"/>
      <path d="M107.85 -76.5 Q107.6 -78.2 107.65 -80.1 L109.3 -81.15 112.05 -82.7 112.9 -78.75 Q112.05 -78.5 111.35 -78.05 L107.85 -76.5 M107.35 -18.2 Q108.5 -17.6 109.55 -17.1 L110.75 -16.45 118.05 -13.4 114.55 -10.25 Q111.35 -11.7 108.7 -13.5 L108.6 -13.55 107.05 -14.6 Q107.0 -16.5 107.35 -18.2" fill="#696969" fill-rule="evenodd" stroke="none"/>
      <path d="M57.2 -166.2 Q56.15 -157.3 66.25 -147.0 L66.45 -146.95 68.0 -145.5 Q72.2 -141.9 76.85 -138.75 L80.8 -136.25 Q89.45 -130.95 94.8 -122.25 98.05 -117.5 99.3 -111.75 L100.2 -108.15 103.25 -97.45 106.0 -87.65 Q107.35 -84.3 109.3 -81.15 L112.05 -82.7 Q113.45 -83.5 115.0 -84.15 116.7 -85.0 118.7 -85.65 L116.95 -87.55 Q111.85 -94.3 110.2 -102.55 108.5 -110.8 104.95 -118.2 101.05 -126.1 95.5 -132.75 92.05 -136.55 87.8 -139.6 L72.9 -150.3 66.9 -154.9 Q60.15 -161.05 57.3 -166.8 M71.55 -138.55 L76.85 -138.75 M71.55 -138.55 L64.55 -138.35 66.45 -146.95 M112.9 -78.75 Q117.25 -80.7 122.5 -82.35 L130.45 -84.8 136.8 -86.35 138.9 -89.65 Q129.7 -88.9 122.45 -86.8 L118.7 -85.65 M130.1 -68.0 Q131.55 -69.2 132.6 -70.7 131.3 -77.05 136.8 -86.35 M129.7 -67.65 L127.6 -66.55 Q125.1 -65.55 122.0 -65.4 L119.1 -65.6 120.5 -60.45 120.6 -60.0 Q121.55 -55.2 121.8 -50.35 L128.65 -50.75 132.45 -51.0 131.9 -57.6 128.65 -58.2 120.6 -60.0 M131.0 -62.5 L130.85 -63.25 129.7 -67.65 130.1 -68.0 M131.0 -62.5 L131.9 -57.6 M107.85 -76.5 Q107.6 -78.2 107.65 -80.1 L109.3 -81.15 M112.9 -78.75 Q112.05 -78.5 111.35 -78.05 L107.85 -76.5 Q109.3 -68.85 118.5 -65.7 L119.1 -65.6 M120.6 -29.0 L118.8 -28.8 118.2 -28.8 Q108.9 -25.85 107.35 -18.2 108.5 -17.6 109.55 -17.1 L110.75 -16.45 118.05 -13.4 121.9 -11.95 Q125.55 -10.75 129.75 -9.5 L136.1 -7.85 Q130.8 -17.25 132.2 -23.6 130.85 -25.55 128.95 -26.85 L128.4 -27.2 128.35 -27.2 Q126.95 -28.1 125.3 -28.45 L120.6 -29.0 M126.25 -33.25 L120.4 -35.0 118.8 -28.8 M120.4 -35.0 L121.05 -38.95 Q122.0 -44.7 121.8 -50.35 M75.15 43.45 Q77.15 42.2 79.2 41.05 87.95 35.85 93.4 27.25 96.75 22.6 98.1 16.85 L99.1 13.25 105.3 -7.05 Q106.6 -10.3 108.5 -13.3 L108.7 -13.5 108.6 -13.55 107.05 -14.6 Q107.0 -16.5 107.35 -18.2 M114.55 -10.25 Q111.35 -11.7 108.7 -13.5 M114.55 -10.25 L118.05 -8.85 Q124.05 -6.65 131.55 -5.3 L138.1 -4.45 136.1 -7.85 M118.05 -8.85 L116.25 -6.95 Q110.95 -0.3 109.2 7.85 107.3 16.1 103.65 23.4 99.65 31.3 93.9 37.85 90.45 41.55 86.1 44.5 L71.0 54.9 65.0 59.4 Q58.05 65.45 55.1 71.2 L55.1 70.85 Q54.05 61.7 64.45 51.5 L64.65 51.45 62.95 42.85 69.3 43.15 75.15 43.45 Q71.1 46.1 67.4 49.15 L64.65 51.45 M126.25 -33.25 L130.35 -32.0 Q131.7 -38.05 132.2 -43.9 L127.95 -41.9 121.05 -38.95 M130.35 -32.0 L128.95 -26.85 M132.45 -51.0 L132.2 -43.9" fill="none" stroke="#000000" stroke-linecap="round" stroke-linejoin="round" stroke-opacity="0.6627451" stroke-width="1.0"/>
    </g>
    <g id="sprite0" transform="matrix(1.0, 0.0, 0.0, 1.0, 24.55, 69.9)">
      <use height="139.8" transform="matrix(1.0, 0.0, 0.0, 1.0, -24.55, -69.9)" width="49.1" xlink:href="#shape1"/>
    </g>
    <g id="shape1" transform="matrix(1.0, 0.0, 0.0, 1.0, 24.55, 69.9)">
      <path d="M-23.95 -69.4 Q-22.25 -66.05 -18.25 -62.5 L-14.75 -59.85 -6.0 -53.7 Q-3.5 -51.95 -1.5 -49.75 1.8 -45.9 4.1 -41.3 6.2 -37.0 7.25 -32.2 8.25 -27.4 11.3 -23.5 L12.3 -22.4 10.15 -21.5 8.45 -20.65 6.85 -19.7 Q5.7 -21.55 4.9 -23.5 L1.4 -35.4 0.85 -37.5 Q0.1 -40.85 -1.85 -43.6 -5.0 -48.65 -10.05 -51.7 L-12.4 -53.15 -17.6 -57.05 -18.5 -57.85 -18.6 -57.9 Q-24.55 -63.85 -24.0 -69.05 L-23.95 -69.4" fill="url(#gradient0)" fill-rule="evenodd" stroke="none"/>
      <path d="M6.85 -19.7 L8.45 -20.65 10.15 -21.5 12.3 -22.4 14.5 -23.1 Q18.7 -24.35 24.05 -24.85 L22.85 -22.9 19.15 -21.95 14.55 -20.5 Q11.5 -19.5 8.95 -18.35 L8.05 -17.95 6.05 -17.0 Q5.85 -18.0 5.9 -19.1 L6.85 -19.7" fill="url(#gradient1)" fill-rule="evenodd" stroke="none"/>
      <path d="M22.85 -22.9 Q19.7 -17.45 20.5 -13.75 L19.05 -12.15 18.8 -11.95 17.6 -11.3 Q16.15 -10.7 14.35 -10.6 L12.65 -10.7 12.3 -10.75 Q6.9 -12.55 6.05 -17.0 L8.05 -17.95 8.95 -18.35 Q11.5 -19.5 14.55 -20.5 L19.15 -21.95 22.85 -22.9" fill="url(#gradient2)" fill-rule="evenodd" stroke="none"/>
      <path d="M18.8 -11.95 L19.5 -9.4 19.6 -8.95 20.15 -6.1 13.55 -7.45 13.5 -7.7 12.65 -10.7 14.35 -10.6 Q16.15 -10.7 17.6 -11.3 L18.8 -11.95" fill="url(#gradient3)" fill-rule="evenodd" stroke="none"/>
      <path d="M20.15 -6.1 L20.5 -2.25 14.3 -1.8 13.55 -7.45 20.15 -6.1" fill="url(#gradient4)" fill-rule="evenodd" stroke="none"/>
      <path d="M20.5 -2.25 L20.4 1.9 13.95 4.85 Q14.45 1.45 14.3 -1.8 L20.5 -2.25" fill="url(#gradient5)" fill-rule="evenodd" stroke="none"/>
      <path d="M18.6 11.85 L20.5 13.75 Q19.7 17.45 22.85 22.9 L19.15 21.95 14.55 20.55 12.3 19.75 8.05 18.0 7.35 17.65 6.05 17.0 Q6.9 12.55 12.3 10.75 L12.65 10.75 13.7 10.65 16.45 10.95 Q17.4 11.15 18.25 11.65 L18.3 11.65 18.6 11.85" fill="url(#gradient6)" fill-rule="evenodd" stroke="none"/>
      <path d="M19.4 8.85 L18.6 11.85 18.3 11.65 18.25 11.55 18.25 11.65 Q17.4 11.15 16.45 10.95 L13.7 10.65 12.65 10.75 13.55 7.15 19.4 8.85" fill="url(#gradient7)" fill-rule="evenodd" stroke="none"/>
      <path d="M20.4 1.9 Q20.15 5.3 19.4 8.85 L13.55 7.15 13.95 4.85 20.4 1.9" fill="url(#gradient8)" fill-rule="evenodd" stroke="none"/>
      <path d="M12.35 22.4 L11.3 23.5 Q8.25 27.4 7.25 32.2 6.2 37.0 4.1 41.3 1.8 45.9 -1.5 49.75 -3.5 51.95 -6.0 53.7 L-14.75 59.85 -18.25 62.5 Q-22.25 66.05 -23.95 69.4 L-23.95 69.2 Q-24.6 63.9 -18.6 57.9 L-18.5 57.85 -16.9 56.5 -12.4 53.15 -10.05 51.7 Q-5.0 48.65 -1.85 43.6 0.1 40.85 0.85 37.5 L1.4 35.4 4.9 23.5 Q5.65 21.6 6.75 19.85 L6.85 19.75 Q8.4 20.75 10.3 21.6 L12.35 22.4" fill="url(#gradient9)" fill-rule="evenodd" stroke="none"/>
      <path d="M22.85 22.9 L24.05 24.85 20.25 24.4 Q15.85 23.65 12.35 22.4 L10.3 21.6 Q8.4 20.75 6.85 19.75 L6.8 19.7 5.9 19.1 Q5.85 18.0 6.05 17.0 L7.35 17.65 8.05 18.0 12.3 19.75 14.55 20.55 19.15 21.95 22.85 22.9" fill="url(#gradient10)" fill-rule="evenodd" stroke="none"/>
      <path d="M-18.5 -57.85 L-17.6 -57.05 -12.4 -53.15 -19.55 -52.85 -18.5 -57.85" fill="url(#gradient11)" fill-rule="evenodd" stroke="none"/>
      <path d="M-18.5 57.85 L-19.55 52.85 -12.4 53.15 -16.9 56.5 -18.5 57.85" fill="url(#gradient12)" fill-rule="evenodd" stroke="none"/>
      <path d="M12.3 -22.4 L11.3 -23.5 Q8.25 -27.4 7.25 -32.2 6.2 -37.0 4.1 -41.3 1.8 -45.9 -1.5 -49.75 -3.5 -51.95 -6.0 -53.7 L-14.75 -59.85 -18.25 -62.5 Q-22.25 -66.05 -23.95 -69.4 M-24.0 -69.05 Q-24.55 -63.85 -18.6 -57.9 L-18.5 -57.85 -17.6 -57.05 -12.4 -53.15 -10.05 -51.7 Q-5.0 -48.65 -1.85 -43.6 0.1 -40.85 0.85 -37.5 L1.4 -35.4 4.9 -23.5 Q5.7 -21.55 6.85 -19.7 L8.45 -20.65 10.15 -21.5 12.3 -22.4 14.5 -23.1 Q18.7 -24.35 24.05 -24.85 L22.85 -22.9 Q19.7 -17.45 20.5 -13.75 L19.05 -12.15 18.8 -11.95 19.5 -9.4 19.6 -8.95 20.15 -6.1 20.5 -2.25 20.4 1.9 Q20.15 5.3 19.4 8.85 L18.6 11.85 20.5 13.75 Q19.7 17.45 22.85 22.9 L24.05 24.85 20.25 24.4 Q15.85 23.65 12.35 22.4 L11.3 23.5 Q8.25 27.4 7.25 32.2 6.2 37.0 4.1 41.3 1.8 45.9 -1.5 49.75 -3.5 51.95 -6.0 53.7 L-14.75 59.85 -18.25 62.5 Q-22.25 66.05 -23.95 69.4 L-23.95 69.2 Q-24.6 63.9 -18.6 57.9 L-18.5 57.85 -19.55 52.85 -12.4 53.15 -10.05 51.7 Q-5.0 48.65 -1.85 43.6 0.1 40.85 0.85 37.5 L1.4 35.4 4.9 23.5 Q5.65 21.6 6.75 19.85 L6.85 19.75 6.8 19.7 5.9 19.1 Q5.85 18.0 6.05 17.0 6.9 12.55 12.3 10.75 L12.65 10.75 13.55 7.15 13.95 4.85 Q14.45 1.45 14.3 -1.8 L13.55 -7.45 13.5 -7.7 12.65 -10.7 12.3 -10.75 Q6.9 -12.55 6.05 -17.0 5.85 -18.0 5.9 -19.1 L6.85 -19.7 M22.85 -22.9 L19.15 -21.95 14.55 -20.5 Q11.5 -19.5 8.95 -18.35 L8.05 -17.95 6.05 -17.0 M12.65 -10.7 L14.35 -10.6 Q16.15 -10.7 17.6 -11.3 L18.8 -11.95 M13.55 -7.45 L20.15 -6.1 M14.3 -1.8 L20.5 -2.25 M18.25 11.65 Q17.4 11.15 16.45 10.95 L13.7 10.65 12.65 10.75 M18.3 11.65 L18.6 11.85 M18.3 11.65 L18.25 11.65 M19.4 8.85 L13.55 7.15 M6.05 17.0 L7.35 17.65 8.05 18.0 12.3 19.75 14.55 20.55 19.15 21.95 22.85 22.9 M6.85 19.75 Q8.4 20.75 10.3 21.6 L12.35 22.4 M20.4 1.9 L13.95 4.85 M-18.5 -57.85 L-19.55 -52.85 -12.4 -53.15 M-12.4 53.15 L-16.9 56.5 -18.5 57.85" fill="none" stroke="#000000" stroke-linecap="round" stroke-linejoin="round" stroke-opacity="0.6627451" stroke-width="1.0"/>
    </g>
    <linearGradient gradientTransform="matrix(0.0222, 0.0, 0.0, 0.0303, -5.9, -44.55)" gradientUnits="userSpaceOnUse" id="gradient0" spreadMethod="pad" x1="-819.2" x2="819.2">
      <stop offset="0.0" stop-color="#000000"/>
      <stop offset="1.0" stop-color="#ffffff"/>
    </linearGradient>
    <linearGradient gradientTransform="matrix(0.0111, 0.0, 0.0, 0.0048, 14.95, -20.95)" gradientUnits="userSpaceOnUse" id="gradient1" spreadMethod="pad" x1="-819.2" x2="819.2">
      <stop offset="0.0" stop-color="#000000"/>
      <stop offset="1.0" stop-color="#ffffff"/>
    </linearGradient>
    <linearGradient gradientTransform="matrix(0.0103, 0.0, 0.0, 0.0075, 14.45, -16.75)" gradientUnits="userSpaceOnUse" id="gradient2" spreadMethod="pad" x1="-819.2" x2="819.2">
      <stop offset="0.0" stop-color="#000000"/>
      <stop offset="1.0" stop-color="#ffffff"/>
    </linearGradient>
    <linearGradient gradientTransform="matrix(0.0046, 0.0, 0.0, 0.0036, 16.4, -9.05)" gradientUnits="userSpaceOnUse" id="gradient3" spreadMethod="pad" x1="-819.2" x2="819.2">
      <stop offset="0.0" stop-color="#000000"/>
      <stop offset="1.0" stop-color="#ffffff"/>
    </linearGradient>
    <linearGradient gradientTransform="matrix(0.0042, 0.0, 0.0, 0.0034, 17.0, -4.65)" gradientUnits="userSpaceOnUse" id="gradient4" spreadMethod="pad" x1="-819.2" x2="819.2">
      <stop offset="0.0" stop-color="#000000"/>
      <stop offset="1.0" stop-color="#ffffff"/>
    </linearGradient>
    <linearGradient gradientTransform="matrix(0.004, 0.0, 0.0, 0.0043, 17.2, 1.3)" gradientUnits="userSpaceOnUse" id="gradient5" spreadMethod="pad" x1="-819.2" x2="819.2">
      <stop offset="0.0" stop-color="#000000"/>
      <stop offset="1.0" stop-color="#ffffff"/>
    </linearGradient>
    <linearGradient gradientTransform="matrix(0.0103, 0.0, 0.0, 0.0075, 14.45, 16.75)" gradientUnits="userSpaceOnUse" id="gradient6" spreadMethod="pad" x1="-819.2" x2="819.2">
      <stop offset="0.0" stop-color="#000000"/>
      <stop offset="1.0" stop-color="#ffffff"/>
    </linearGradient>
    <linearGradient gradientTransform="matrix(0.0041, 0.0, 0.0, 0.0029, 16.0, 9.5)" gradientUnits="userSpaceOnUse" id="gradient7" spreadMethod="pad" x1="-819.2" x2="819.2">
      <stop offset="0.0" stop-color="#000000"/>
      <stop offset="1.0" stop-color="#ffffff"/>
    </linearGradient>
    <linearGradient gradientTransform="matrix(0.0042, 0.0, 0.0, 0.0042, 16.95, 5.35)" gradientUnits="userSpaceOnUse" id="gradient8" spreadMethod="pad" x1="-819.2" x2="819.2">
      <stop offset="0.0" stop-color="#000000"/>
      <stop offset="1.0" stop-color="#ffffff"/>
    </linearGradient>
    <linearGradient gradientTransform="matrix(0.0222, 0.0, 0.0, 0.0303, -5.85, 44.55)" gradientUnits="userSpaceOnUse" id="gradient9" spreadMethod="pad" x1="-819.2" x2="819.2">
      <stop offset="0.0" stop-color="#000000"/>
      <stop offset="1.0" stop-color="#ffffff"/>
    </linearGradient>
    <linearGradient gradientTransform="matrix(0.0111, 0.0, 0.0, 0.0048, 14.95, 20.9)" gradientUnits="userSpaceOnUse" id="gradient10" spreadMethod="pad" x1="-819.2" x2="819.2">
      <stop offset="0.0" stop-color="#000000"/>
      <stop offset="1.0" stop-color="#ffffff"/>
    </linearGradient>
    <linearGradient gradientTransform="matrix(0.0044, 0.0, 0.0, 0.0031, -16.0, -55.35)" gradientUnits="userSpaceOnUse" id="gradient11" spreadMethod="pad" x1="-819.2" x2="819.2">
      <stop offset="0.0" stop-color="#000000"/>
      <stop offset="1.0" stop-color="#ffffff"/>
    </linearGradient>
    <linearGradient gradientTransform="matrix(0.0044, 0.0, 0.0, 0.0031, -16.0, 55.35)" gradientUnits="userSpaceOnUse" id="gradient12" spreadMethod="pad" x1="-819.2" x2="819.2">
      <stop offset="0.0" stop-color="#000000"/>
      <stop offset="1.0" stop-color="#ffffff"/>
    </linearGradient>
    <g id="shape2" transform="matrix(1.0, 0.0, 0.0, 1.0, -16.1, 75.95)">
      <path d="M138.8 -64.8 L139.4 -63.7 140.45 -61.0 Q141.3 -58.2 141.3 -56.05 L141.15 -54.6 141.2 -53.95 140.25 -51.35 140.15 -50.9 140.25 -50.85 Q140.3 -50.6 140.6 -50.5 L140.65 -50.5 Q141.8 -49.7 142.2 -47.4 142.55 -45.65 142.4 -43.75 142.4 -40.6 140.7 -38.8 139.7 -37.7 138.05 -36.95 L138.6 -36.1 Q138.9 -35.35 138.9 -33.8 138.9 -25.8 135.7 -23.35 133.25 -21.5 125.9 -21.5 123.9 -21.5 119.75 -22.9 119.25 -23.45 118.45 -23.65 L116.05 -24.3 116.0 -24.3 112.9 -25.85 110.2 -27.7 Q109.65 -28.35 109.65 -29.9 109.65 -31.9 110.5 -34.85 L111.3 -36.35 111.8 -37.05 111.2 -37.2 109.25 -36.05 Q106.55 -34.6 105.15 -34.6 L103.55 -35.05 Q103.85 -35.55 108.1 -37.1 L109.3 -37.85 Q107.85 -38.4 106.9 -39.05 105.2 -40.2 104.9 -41.8 104.75 -42.65 104.95 -43.85 104.85 -46.9 105.8 -49.25 107.1 -52.3 109.9 -51.9 L109.9 -52.6 110.0 -55.95 108.8 -56.55 106.9 -57.65 Q107.4 -58.8 109.85 -58.25 L110.2 -58.15 Q110.4 -59.9 110.8 -60.75 112.4 -64.1 117.35 -65.75 L122.15 -66.85 126.1 -67.3 127.2 -67.4 127.5 -67.45 127.6 -67.45 129.8 -67.55 130.4 -67.55 Q134.9 -67.6 136.55 -66.65 138.25 -65.6 138.8 -64.8 M137.15 -51.6 Q138.4 -52.3 139.05 -53.2 L139.8 -54.4 140.05 -55.75 139.95 -57.0 139.0 -61.15 138.5 -62.85 Q138.0 -64.25 135.95 -65.2 L135.05 -65.6 130.9 -66.25 122.3 -65.3 Q117.85 -64.15 115.95 -63.25 L115.6 -63.05 Q113.7 -62.1 113.05 -60.85 112.4 -59.65 112.1 -58.5 111.45 -55.4 112.05 -52.9 112.1 -52.3 112.25 -52.05 112.45 -51.25 113.1 -50.85 113.55 -50.5 114.95 -50.2 L115.7 -50.1 116.3 -50.0 116.45 -49.95 Q125.15 -49.3 132.15 -50.3 135.05 -50.65 136.45 -51.3 L137.15 -51.6 M111.35 -48.85 Q110.85 -49.05 110.55 -49.45 L110.4 -49.75 109.7 -49.95 Q108.8 -50.1 107.8 -49.0 L106.95 -47.65 Q106.8 -47.1 106.8 -44.9 106.8 -42.95 107.05 -42.3 107.65 -40.75 109.85 -39.8 L110.6 -39.55 115.05 -38.6 124.15 -37.4 Q128.85 -37.0 131.75 -37.5 L136.2 -38.35 137.15 -38.7 139.15 -40.05 Q140.55 -41.4 140.55 -44.75 L140.25 -47.1 140.1 -48.3 140.05 -48.5 Q139.8 -49.6 138.8 -49.6 138.25 -49.6 137.8 -49.25 L137.75 -49.25 132.25 -48.4 127.3 -48.1 122.45 -48.1 118.35 -48.15 116.45 -48.25 112.15 -48.6 111.8 -48.7 111.6 -48.8 111.35 -48.85 M116.0 -36.25 L115.55 -36.35 113.7 -36.45 113.5 -36.35 113.3 -36.05 Q112.35 -34.8 112.3 -34.35 L111.9 -32.85 111.55 -31.2 111.75 -29.45 112.25 -28.3 112.9 -27.6 113.65 -27.15 Q114.9 -26.4 116.25 -25.75 120.3 -23.95 124.7 -23.75 L126.75 -23.75 128.65 -23.85 Q131.6 -23.85 133.5 -24.65 135.0 -25.35 135.75 -26.6 136.9 -28.45 136.9 -33.4 L136.75 -34.75 136.1 -35.6 135.0 -36.0 129.4 -35.55 116.0 -36.25" fill="#000000" fill-rule="evenodd" stroke="none"/>
      <path d="M135.05 -65.6 L135.95 -65.2 Q138.0 -64.25 138.5 -62.85 L139.0 -61.15 139.95 -57.0 140.05 -55.75 139.8 -54.4 139.05 -53.2 Q138.4 -52.3 137.15 -51.6 L137.45 -53.35 Q137.45 -58.05 136.65 -61.55 136.05 -64.15 135.05 -65.6 M115.7 -50.1 L114.95 -50.2 Q113.55 -50.5 113.1 -50.85 112.45 -51.25 112.25 -52.05 112.1 -52.3 112.05 -52.9 111.45 -55.4 112.1 -58.5 112.4 -59.65 113.05 -60.85 113.7 -62.1 115.6 -63.05 L115.95 -63.25 Q114.85 -60.4 114.85 -55.75 L114.9 -52.65 Q115.1 -51.45 115.7 -50.1 M110.6 -39.55 L109.85 -39.8 Q107.65 -40.75 107.05 -42.3 106.8 -42.95 106.8 -44.9 106.8 -47.1 106.95 -47.65 L107.8 -49.0 Q108.8 -50.1 109.7 -49.95 L110.4 -49.75 110.55 -49.45 Q110.85 -49.05 111.35 -48.85 L110.75 -48.35 Q110.05 -47.35 110.05 -43.45 110.05 -40.8 110.6 -39.55 M137.75 -49.25 L137.8 -49.25 Q138.25 -49.6 138.8 -49.6 139.8 -49.6 140.05 -48.5 L140.1 -48.3 140.25 -47.1 140.55 -44.75 Q140.55 -41.4 139.15 -40.05 L137.15 -38.7 137.55 -40.65 Q138.25 -43.8 138.25 -46.75 138.25 -48.15 137.75 -49.25 M113.65 -27.15 L112.9 -27.6 112.25 -28.3 111.75 -29.45 111.55 -31.2 111.9 -32.85 112.3 -34.35 Q112.35 -34.8 113.3 -36.05 L113.5 -36.35 113.7 -36.45 115.55 -36.35 116.0 -36.25 114.95 -33.05 Q113.65 -28.9 113.65 -27.45 L113.65 -27.15 M136.75 -34.75 L136.9 -33.4 Q136.9 -28.45 135.75 -26.6 135.0 -25.35 133.5 -24.65 134.3 -28.35 134.85 -30.15 135.15 -31.25 136.15 -33.15 L136.75 -34.75" fill="#bdbdbd" fill-rule="evenodd" stroke="none"/>
      <path d="M137.15 -51.6 L136.45 -51.3 Q135.05 -50.65 132.15 -50.3 125.15 -49.3 116.45 -49.95 L116.3 -50.0 115.7 -50.1 Q115.1 -51.45 114.9 -52.65 L114.85 -55.75 Q114.85 -60.4 115.95 -63.25 117.85 -64.15 122.3 -65.3 L130.9 -66.25 135.05 -65.6 Q136.05 -64.15 136.65 -61.55 137.45 -58.05 137.45 -53.35 L137.15 -51.6 M111.35 -48.85 L111.6 -48.8 111.8 -48.7 112.15 -48.6 116.45 -48.25 118.35 -48.15 122.45 -48.1 127.3 -48.1 132.25 -48.4 137.75 -49.25 Q138.25 -48.15 138.25 -46.75 138.25 -43.8 137.55 -40.65 L137.15 -38.7 136.2 -38.35 131.75 -37.5 Q128.85 -37.0 124.15 -37.4 L115.05 -38.6 110.6 -39.55 Q110.05 -40.8 110.05 -43.45 110.05 -47.35 110.75 -48.35 L111.35 -48.85 M113.65 -27.15 L113.65 -27.45 Q113.65 -28.9 114.95 -33.05 L116.0 -36.25 129.4 -35.55 135.0 -36.0 136.1 -35.6 136.75 -34.75 136.15 -33.15 Q135.15 -31.25 134.85 -30.15 134.3 -28.35 133.5 -24.65 131.6 -23.85 128.65 -23.85 L126.75 -23.75 124.7 -23.75 Q120.3 -23.95 116.25 -25.75 114.9 -26.4 113.65 -27.15" fill="#999999" fill-rule="evenodd" stroke="none"/>
      <path d="M40.25 -50.75 Q39.6 -56.0 35.05 -59.55 L36.9 -59.7 49.45 -51.5 40.25 -50.75 M42.0 -47.75 L49.9 -48.4 38.85 -38.25 30.55 -37.55 31.75 -38.3 Q32.6 -38.8 33.55 -38.85 L37.05 -41.35 Q42.4 -46.5 42.35 -47.15 L42.0 -47.75" fill="#737373" fill-rule="evenodd" stroke="none"/>
      <path d="M35.05 -59.55 Q39.6 -56.0 40.25 -50.75 L32.75 -50.1 29.2 -49.85 16.6 -58.05 30.75 -59.2 35.0 -54.4 33.05 -59.4 35.05 -59.55 M30.55 -37.55 L28.05 -37.35 27.4 -37.3 18.55 -36.6 29.6 -46.75 42.0 -47.75 42.35 -47.15 Q42.4 -46.5 37.05 -41.35 L33.55 -38.85 Q32.6 -38.8 31.75 -38.3 L30.55 -37.55" fill="#3c3c3c" fill-rule="evenodd" stroke="none"/>
      <path d="M40.25 -50.75 L49.45 -51.5 141.5 -59.0 141.5 -57.65 32.85 -48.75 32.75 -50.1 40.25 -50.75 M144.95 -57.95 Q144.4 -65.05 144.8 -72.5 151.95 -64.9 161.6 -68.65 166.8 -62.65 175.15 -60.5 175.05 -60.4 174.95 -60.4 L144.95 -57.95 M162.05 -64.45 Q154.25 -62.75 147.45 -66.95 154.25 -62.75 162.05 -64.45" fill="#2b2b2b" fill-rule="evenodd" stroke="none"/>
      <path d="M141.75 -56.1 L33.0 -47.2 32.85 -48.75 141.5 -57.65 141.4 -57.45 141.75 -56.1 M144.95 -57.95 L174.95 -60.4 Q166.65 -56.45 163.1 -50.25 153.15 -52.3 147.35 -43.95 145.55 -50.75 144.95 -57.95 M162.85 -54.35 Q154.9 -54.75 148.85 -49.65 154.9 -54.75 162.85 -54.35" fill="#151515" fill-rule="evenodd" stroke="none"/>
      <path d="M141.5 -57.65 L141.5 -59.0 142.45 -75.45 Q143.55 -73.75 144.8 -72.5 144.4 -65.05 144.95 -57.95 L141.5 -57.65" fill="#999999" fill-rule="evenodd" stroke="none"/>
      <path d="M141.75 -56.1 L141.4 -57.45 141.5 -57.65 144.95 -57.95 Q145.55 -50.75 147.35 -43.95 146.25 -42.4 145.35 -40.45 L141.75 -56.1" fill="#6a6a6a" fill-rule="evenodd" stroke="none"/>
      <path d="M40.25 -50.75 L49.45 -51.5 36.9 -59.7 35.05 -59.55 33.05 -59.4 35.0 -54.4 30.75 -59.2 16.6 -58.05 29.2 -49.85 32.75 -50.1 40.25 -50.75 M42.0 -47.75 L49.9 -48.4 38.85 -38.25 30.55 -37.55 28.05 -37.35 M27.4 -37.3 L18.55 -36.6 29.6 -46.75 42.0 -47.75 M141.75 -56.1 L33.0 -47.2 32.85 -48.75 32.75 -50.1 M141.5 -57.65 L141.5 -59.0 49.45 -51.5 M144.8 -72.5 Q144.4 -65.05 144.95 -57.95 145.55 -50.75 147.35 -43.95 146.25 -42.4 145.35 -40.45 L141.75 -56.1 141.4 -57.45 141.5 -57.65 M174.95 -60.4 Q175.05 -60.4 175.15 -60.5 166.8 -62.65 161.6 -68.65 151.95 -64.9 144.8 -72.5 143.55 -73.75 142.45 -75.45 L141.5 -59.0 M174.95 -60.4 Q166.65 -56.45 163.1 -50.25 153.15 -52.3 147.35 -43.95 M148.85 -49.65 Q154.9 -54.75 162.85 -54.35 M147.45 -66.95 Q154.25 -62.75 162.05 -64.45" fill="none" stroke="#000000" stroke-linecap="round" stroke-linejoin="round" stroke-opacity="0.6627451" stroke-width="1.0"/>
    </g>
    <g id="sprite1" transform="matrix(1.0, 0.0, 0.0, 1.0, 41.0, 9.1)">
      <use height="18.2" transform="matrix(1.0, 0.0, 0.0, 1.0, -41.0, -9.1)" width="82.05" xlink:href="#shape3"/>
    </g>
    <g id="shape3" transform="matrix(1.0, 0.0, 0.0, 1.0, 41.0, 9.1)">
      <path d="M23.6 -0.65 L24.8 -9.1 25.9 -7.5 Q25.35 -3.65 25.35 0.05 25.35 3.8 26.0 7.4 L24.8 9.1 23.6 0.85 23.5 0.15 23.55 0.05 23.6 -0.65" fill="url(#gradient13)" fill-rule="evenodd" stroke="none"/>
      <path d="M25.9 -7.5 Q29.25 -3.25 34.4 -4.8 36.85 -1.45 41.05 0.0 L40.95 0.05 Q36.5 1.75 34.4 4.8 29.35 3.3 26.0 7.4 25.35 3.8 25.35 0.05 25.35 -3.65 25.9 -7.5" fill="url(#gradient14)" fill-rule="evenodd" stroke="none"/>
      <path d="M-33.0 -0.65 L-34.85 -0.65 -41.0 -5.45 -33.65 -5.45 -31.65 -2.75 -32.45 -5.45 -30.45 -5.45 -24.3 -0.65 -33.0 -0.65" fill="url(#gradient15)" fill-rule="evenodd" stroke="none"/>
      <path d="M-24.2 0.95 L-30.35 5.75 -40.9 5.75 -34.75 0.95 -24.2 0.95" fill="url(#gradient16)" fill-rule="evenodd" stroke="none"/>
      <path d="M23.6 0.85 L-33.0 0.85 -33.0 -0.65 -24.3 -0.65 23.6 -0.65 23.55 0.05 23.5 0.15 23.6 0.85" fill="url(#gradient17)" fill-rule="evenodd" stroke="none"/>
    </g>
    <linearGradient gradientTransform="matrix(0.0015, 0.0, 0.0, 0.0111, 24.75, 0.0)" gradientUnits="userSpaceOnUse" id="gradient13" spreadMethod="pad" x1="-819.2" x2="819.2">
      <stop offset="0.0" stop-color="#000000"/>
      <stop offset="1.0" stop-color="#ffffff"/>
    </linearGradient>
    <linearGradient gradientTransform="matrix(0.0096, 0.0, 0.0, 0.0091, 33.2, -0.05)" gradientUnits="userSpaceOnUse" id="gradient14" spreadMethod="pad" x1="-819.2" x2="819.2">
      <stop offset="0.0" stop-color="#000000"/>
      <stop offset="1.0" stop-color="#ffffff"/>
    </linearGradient>
    <linearGradient gradientTransform="matrix(-0.0102, 0.0, 0.0, -0.0029, -32.65, -3.05)" gradientUnits="userSpaceOnUse" id="gradient15" spreadMethod="pad" x1="-819.2" x2="819.2">
      <stop offset="0.0" stop-color="#000000"/>
      <stop offset="1.0" stop-color="#ffffff"/>
    </linearGradient>
    <linearGradient gradientTransform="matrix(-0.0102, 0.0, 0.0, -0.0029, -32.55, 3.35)" gradientUnits="userSpaceOnUse" id="gradient16" spreadMethod="pad" x1="-819.2" x2="819.2">
      <stop offset="0.0" stop-color="#000000"/>
      <stop offset="1.0" stop-color="#ffffff"/>
    </linearGradient>
    <linearGradient gradientTransform="matrix(-0.0345, 0.0, 0.0, -9.0E-4, -4.7, 0.1)" gradientUnits="userSpaceOnUse" id="gradient17" spreadMethod="pad" x1="-819.2" x2="819.2">
      <stop offset="0.0" stop-color="#000000"/>
      <stop offset="1.0" stop-color="#ffffff"/>
    </linearGradient>
    <g id="shape4" transform="matrix(1.0, 0.0, 0.0, 1.0, 70.05, 70.35)">
      <path d="M16.25 -68.6 L16.55 -68.6 19.1 -68.45 Q19.8 -68.15 20.05 -66.55 20.05 -65.7 20.2 -65.15 20.35 -64.55 20.65 -64.25 L19.45 -64.2 Q18.1 -65.0 17.3 -66.75 L16.25 -68.6 M29.4 -62.3 Q30.8 -61.85 31.55 -61.1 32.25 -60.4 32.25 -57.8 L32.2 -53.3 31.25 -50.7 30.5 -49.05 29.75 -49.3 30.1 -52.05 30.45 -55.75 Q30.45 -61.1 29.8 -61.95 L29.4 -62.3 M36.45 -44.7 Q39.35 -43.2 39.95 -42.2 40.15 -41.8 40.15 -39.9 40.15 -38.2 39.65 -36.55 39.2 -34.95 38.45 -34.1 L36.1 -33.6 36.45 -34.65 Q37.95 -38.75 37.95 -40.25 37.95 -43.3 36.45 -44.7 M35.3 -29.0 Q37.25 -28.45 37.85 -27.0 L38.1 -24.4 38.0 -22.35 Q38.0 -20.2 36.65 -19.0 L35.55 -18.9 35.65 -19.2 Q36.2 -20.7 36.2 -22.9 L35.6 -27.3 35.3 -29.0 M-59.15 -13.35 L-59.15 -13.25 Q-59.15 -11.95 -55.35 -9.75 -53.8 -8.85 -52.4 -8.3 L-52.35 -8.25 -52.1 -7.4 -52.15 -7.45 Q-56.5 -9.05 -58.55 -10.2 -67.85 -15.4 -67.85 -26.6 -67.85 -33.45 -65.25 -40.85 -63.05 -46.95 -59.45 -51.5 L-56.25 -54.85 -56.25 -55.0 -54.65 -54.9 Q-56.4 -53.25 -57.9 -50.55 L-61.3 -43.5 Q-63.45 -39.3 -64.2 -35.05 -64.8 -31.75 -64.8 -26.25 -64.8 -22.05 -64.45 -21.1 L-61.05 -15.5 Q-60.4 -14.45 -59.15 -13.35" fill="#bdbdbd" fill-rule="evenodd" stroke="none"/>
      <path d="M19.45 -64.2 L20.65 -64.25 Q20.35 -64.55 20.2 -65.15 20.05 -65.7 20.05 -66.55 19.8 -68.15 19.1 -68.45 L16.55 -68.6 16.25 -68.6 Q12.55 -68.5 6.8 -66.4 L0.25 -63.6 Q-1.1 -62.95 -1.45 -61.9 L-1.6 -60.3 -1.7 -57.05 -1.65 -56.7 -1.6 -56.7 -1.6 -56.4 -1.6 -56.3 1.75 -57.55 0.8 -55.85 0.45 -55.35 -1.2 -54.25 Q-5.0 -52.75 -9.85 -51.95 L-10.3 -51.9 -21.45 -51.3 -25.4 -51.5 -26.35 -51.5 -35.2 -51.1 Q-41.25 -50.45 -45.75 -47.85 -50.3 -45.3 -54.4 -43.35 -51.6 -47.7 -47.0 -50.15 L-43.1 -52.05 Q-40.6 -52.95 -38.95 -53.05 L-29.8 -53.65 -30.0 -54.75 -29.95 -55.0 -29.55 -55.45 -28.55 -53.9 -28.45 -53.7 -25.4 -53.9 Q-17.3 -53.5 -10.3 -54.15 L-9.85 -54.25 -8.0 -54.5 -4.9 -55.2 Q-3.4 -55.65 -3.2 -55.95 L-2.9 -56.25 -2.95 -56.55 -2.95 -56.6 -2.95 -56.8 -3.05 -57.3 -3.1 -58.4 -3.15 -61.85 Q-3.15 -63.7 0.35 -65.6 3.6 -67.4 8.45 -68.6 L13.4 -69.95 14.75 -70.15 16.8 -70.35 17.1 -70.35 Q20.1 -70.4 20.9 -69.15 L21.05 -68.75 21.55 -67.35 22.05 -65.25 22.05 -64.95 22.1 -64.4 22.1 -64.3 24.85 -64.45 Q29.25 -64.2 31.75 -62.75 34.0 -61.45 33.85 -59.9 L33.9 -54.2 Q33.9 -52.4 33.2 -50.3 L32.25 -48.35 Q39.25 -46.45 41.2 -44.45 42.35 -43.25 42.35 -39.95 42.35 -37.5 41.6 -35.3 40.95 -33.45 39.9 -32.35 L39.4 -32.1 39.1 -31.95 37.95 -31.9 35.95 -31.8 35.4 -31.8 32.0 -32.0 Q29.85 -32.05 28.2 -33.2 L27.1 -33.85 23.4 -33.75 22.6 -33.55 22.7 -33.0 35.0 -30.8 35.6 -30.65 Q39.6 -29.5 39.6 -24.45 39.6 -22.05 39.2 -20.55 38.95 -19.0 37.55 -17.5 L35.75 -17.2 34.55 -17.15 Q30.45 -17.25 26.6 -18.85 L26.45 -18.9 Q23.1 -19.95 20.9 -20.3 L20.0 -20.4 Q16.45 -20.35 13.8 -17.7 L5.2 -12.05 Q-8.5 -3.8 -24.9 -1.45 L-30.8 -1.15 -32.35 -1.15 Q-45.3 -1.15 -50.0 -4.45 L-50.55 -4.35 Q-56.0 -4.35 -61.95 -9.25 -66.4 -12.9 -67.15 -14.75 -69.7 -20.4 -69.95 -21.55 L-70.05 -26.75 Q-70.05 -36.25 -66.5 -44.15 -62.85 -52.35 -56.75 -55.75 L-56.4 -55.55 Q-56.25 -55.45 -56.25 -55.0 L-56.25 -54.85 -59.45 -51.5 Q-63.05 -46.95 -65.25 -40.85 -67.85 -33.45 -67.85 -26.6 -67.85 -15.4 -58.55 -10.2 -56.5 -9.05 -52.15 -7.45 L-52.1 -7.4 -52.35 -8.25 -52.4 -8.3 Q-53.8 -8.85 -55.35 -9.75 -59.15 -11.95 -59.15 -13.25 L-59.15 -13.35 Q-59.15 -17.9 -58.65 -19.55 L-57.8 -22.95 Q-57.05 -24.95 -56.0 -24.7 L-56.55 -23.1 -57.25 -20.35 -57.35 -18.2 -57.25 -16.15 -57.25 -16.0 Q-57.25 -12.9 -52.45 -11.05 -47.6 -9.25 -47.55 -8.25 L-47.75 -7.75 Q-47.95 -7.45 -48.55 -7.45 L-49.45 -7.5 Q-48.7 -6.95 -45.75 -5.45 -42.85 -3.95 -36.45 -3.75 -30.1 -3.55 -21.85 -4.15 -13.65 -4.75 2.6 -12.85 L13.8 -20.25 Q15.85 -22.65 19.0 -22.55 L20.9 -22.5 23.7 -21.65 26.6 -20.55 28.55 -19.85 Q32.0 -18.8 35.55 -18.9 L36.65 -19.0 Q38.0 -20.2 38.0 -22.35 L38.1 -24.4 37.85 -27.0 Q37.25 -28.45 35.3 -29.0 L34.3 -29.2 Q31.5 -29.6 27.0 -30.75 23.9 -31.5 22.65 -32.0 L22.6 -32.05 Q22.1 -32.25 21.95 -32.4 L21.85 -32.45 Q21.45 -32.8 21.45 -33.5 L21.45 -33.55 21.1 -33.55 20.95 -33.7 Q21.55 -34.55 23.7 -35.35 L24.4 -35.65 25.2 -35.85 25.25 -35.85 26.45 -35.95 28.5 -34.75 Q30.1 -34.0 32.0 -33.75 L35.0 -33.6 36.1 -33.6 38.45 -34.1 Q39.2 -34.95 39.65 -36.55 40.15 -38.2 40.15 -39.9 40.15 -41.8 39.95 -42.2 39.35 -43.2 36.45 -44.7 L36.4 -44.75 31.05 -46.4 28.95 -47.2 Q27.1 -47.85 25.85 -47.85 L24.3 -47.7 18.45 -45.25 14.45 -43.65 Q14.05 -43.75 13.9 -43.95 L16.4 -45.75 17.7 -46.55 17.7 -46.75 Q17.7 -48.4 18.05 -48.7 18.4 -49.1 21.05 -50.15 L20.65 -51.0 Q21.35 -51.1 21.85 -50.7 L22.55 -50.1 23.35 -49.65 23.7 -49.5 24.3 -49.6 26.35 -49.8 29.75 -49.3 30.5 -49.05 31.25 -50.7 32.2 -53.3 32.25 -57.8 Q32.25 -60.4 31.55 -61.1 30.8 -61.85 29.4 -62.3 26.55 -63.3 20.85 -63.3 L16.0 -62.8 11.25 -62.05 10.7 -62.3 Q11.85 -63.15 13.35 -63.5 L19.45 -64.2 M21.55 -49.45 Q21.05 -49.0 19.65 -48.45 18.5 -47.9 18.65 -47.4 L18.8 -47.15 22.15 -48.85 21.55 -49.45" fill="#000000" fill-rule="evenodd" stroke="none"/>
      <path d="M16.25 -68.6 L17.3 -66.75 Q18.1 -65.0 19.45 -64.2 L13.35 -63.5 Q11.85 -63.15 10.7 -62.3 L11.25 -62.05 16.0 -62.8 20.85 -63.3 Q26.55 -63.3 29.4 -62.3 L29.8 -61.95 Q30.45 -61.1 30.45 -55.75 L30.1 -52.05 29.75 -49.3 26.35 -49.8 24.3 -49.6 23.7 -49.5 23.35 -49.65 22.55 -50.1 21.85 -50.7 Q21.35 -51.1 20.65 -51.0 L21.05 -50.15 Q18.4 -49.1 18.05 -48.7 17.7 -48.4 17.7 -46.75 L17.7 -46.55 16.4 -45.75 13.9 -43.95 Q14.05 -43.75 14.45 -43.65 L18.45 -45.25 24.3 -47.7 25.85 -47.85 Q27.1 -47.85 28.95 -47.2 L31.05 -46.4 36.4 -44.75 36.45 -44.7 Q37.95 -43.3 37.95 -40.25 37.95 -38.75 36.45 -34.65 L36.1 -33.6 35.0 -33.6 32.0 -33.75 Q30.1 -34.0 28.5 -34.75 L26.45 -35.95 25.25 -35.85 25.2 -35.85 24.4 -35.65 23.7 -35.35 Q21.55 -34.55 20.95 -33.7 L21.1 -33.55 21.45 -33.55 21.45 -33.5 Q21.45 -32.8 21.85 -32.45 L21.95 -32.4 Q22.1 -32.25 22.6 -32.05 L22.65 -32.0 Q23.9 -31.5 27.0 -30.75 31.5 -29.6 34.3 -29.2 L35.3 -29.0 35.6 -27.3 36.2 -22.9 Q36.2 -20.7 35.65 -19.2 L35.55 -18.9 Q32.0 -18.8 28.55 -19.85 L26.6 -20.55 23.7 -21.65 20.9 -22.5 19.0 -22.55 Q15.85 -22.65 13.8 -20.25 L2.6 -12.85 Q-13.65 -4.75 -21.85 -4.15 -30.1 -3.55 -36.45 -3.75 -42.85 -3.95 -45.75 -5.45 -48.7 -6.95 -49.45 -7.5 L-48.55 -7.45 Q-47.95 -7.45 -47.75 -7.75 L-47.55 -8.25 Q-47.6 -9.25 -52.45 -11.05 -57.25 -12.9 -57.25 -16.0 L-57.25 -16.15 -57.35 -18.2 -57.25 -20.35 -56.55 -23.1 -56.0 -24.7 Q-57.05 -24.95 -57.8 -22.95 L-58.65 -19.55 Q-59.15 -17.9 -59.15 -13.35 -60.4 -14.45 -61.05 -15.5 L-64.45 -21.1 Q-64.8 -22.05 -64.8 -26.25 -64.8 -31.75 -64.2 -35.05 -63.45 -39.3 -61.3 -43.5 L-57.9 -50.55 Q-56.4 -53.25 -54.65 -54.9 L-46.4 -55.05 -35.85 -55.45 -32.65 -55.4 -29.95 -55.0 -30.0 -54.75 -29.8 -53.65 -38.95 -53.05 Q-40.6 -52.95 -43.1 -52.05 L-47.0 -50.15 Q-51.6 -47.7 -54.4 -43.35 -50.3 -45.3 -45.75 -47.85 -41.25 -50.45 -35.2 -51.1 L-26.35 -51.5 -25.4 -51.5 -21.45 -51.3 -10.3 -51.9 -9.85 -51.95 Q-5.0 -52.75 -1.2 -54.25 L0.45 -55.35 0.8 -55.85 1.75 -57.55 -1.6 -56.3 -1.6 -56.4 -1.6 -56.7 -1.65 -56.7 -1.7 -57.05 -1.6 -60.3 -1.45 -61.9 Q-1.1 -62.95 0.25 -63.6 L6.8 -66.4 Q12.55 -68.5 16.25 -68.6" fill="#999999" fill-rule="evenodd" stroke="none"/>
    </g>
  </defs>
</svg>
