<?xml version="1.0" encoding="UTF-8" standalone="no"?>
<svg xmlns:xlink="http://www.w3.org/1999/xlink" height="531.5px" width="460.6px" xmlns="http://www.w3.org/2000/svg">
  <g transform="matrix(1.0, 0.0, 0.0, 1.0, 193.65, 334.05)">
    <use height="16.3" transform="matrix(2.0067, 0.0, 0.0, 2.0067, -63.0034, -116.9034)" width="60.6" xlink:href="#sprite0"/>
  </g>
  <defs>
    <g id="sprite0" transform="matrix(1.0, 0.0, 0.0, 1.0, 0.5, 0.5)">
      <use height="16.3" transform="matrix(1.0, 0.0, 0.0, 1.0, -0.5, -0.5)" width="60.6" xlink:href="#shape0"/>
      <use height="13.25" transform="matrix(1.0, 0.0, 0.0, 1.0, 4.5, 2.05)" width="52.9" xlink:href="#sprite1"/>
    </g>
    <g id="shape0" transform="matrix(1.0, 0.0, 0.0, 1.0, 0.5, 0.5)">
      <path d="M56.65 2.05 Q57.7 3.05 57.25 4.2 56.65 5.6 55.95 4.95 L54.9 2.9 56.65 2.05 M53.75 6.05 Q51.05 5.45 49.75 6.65 49.7 9.35 47.45 7.75 L47.55 11.0 Q45.95 12.7 45.3 11.35 L45.05 8.95 Q43.4 8.85 42.6 7.15 L42.6 7.1 47.4 5.75 47.85 5.6 48.1 5.5 51.1 4.45 54.8 2.95 53.75 6.05 M48.9 7.8 L48.1 5.5 48.9 7.8 M43.85 7.95 L42.6 7.1 43.85 7.95 M35.4 8.55 L38.45 8.05 38.4 9.65 Q38.55 11.8 37.55 10.85 37.8 12.65 36.9 13.7 36.2 14.9 35.65 12.8 L35.4 8.55 M28.45 10.0 L28.5 10.25 28.05 11.25 27.15 10.25 Q27.3 15.6 26.25 15.3 24.95 15.0 25.55 11.3 L24.1 12.5 Q23.15 13.35 22.55 12.1 L22.15 10.75 20.25 9.1 Q24.1 9.35 28.0 9.25 L28.45 10.0 M4.75 6.3 L6.7 6.8 Q6.45 8.7 6.7 10.65 5.95 12.1 4.8 10.9 4.4 9.5 4.55 7.85 L4.75 6.3" fill="#aa0000" fill-rule="evenodd" stroke="none"/>
      <path d="M56.65 2.05 Q58.5 1.1 59.6 0.25 M56.65 2.05 L54.9 2.9 55.95 4.95 Q56.65 5.6 57.25 4.2 57.7 3.05 56.65 2.05 M55.95 4.95 L55.3 4.05 Q54.85 5.5 54.1 6.1 L53.75 6.05 Q51.05 5.45 49.75 6.65 49.7 9.35 47.45 7.75 L47.55 11.0 Q45.95 12.7 45.3 11.35 L45.05 8.95 Q43.4 8.85 42.6 7.15 L42.6 7.1 41.95 7.3 41.8 8.45 M53.75 6.05 L54.8 2.95 51.1 4.45 48.1 5.5 48.9 7.8 M54.85 2.8 L54.8 2.95 54.9 2.9 54.85 2.8 53.4 0.15 M54.85 2.8 L55.75 0.0 M47.85 5.6 L48.1 5.5 48.0 5.25 47.85 5.6 47.4 5.75 42.6 7.1 43.85 7.95 M49.2 2.65 L48.0 5.25 46.9 2.1 M42.2 4.6 L42.0 6.7 42.55 7.1 42.6 7.1 M38.45 8.05 L41.95 7.3 42.0 6.7 40.7 5.8 M35.4 8.55 L38.45 8.05 38.4 9.65 Q38.55 11.8 37.55 10.85 37.8 12.65 36.9 13.7 36.2 14.9 35.65 12.8 L35.4 8.55 29.7 9.15 30.5 11.5 M28.45 10.0 L28.5 10.25 28.05 11.25 27.15 10.25 Q27.3 15.6 26.25 15.3 24.95 15.0 25.55 11.3 L24.1 12.5 Q23.15 13.35 22.55 12.1 L22.15 10.75 20.25 9.1 13.3 8.25 12.7 8.75 14.3 10.6 M28.45 10.0 L29.45 9.15 28.0 9.25 28.45 10.0 M29.65 9.0 L29.45 9.15 29.7 9.15 29.65 9.0 29.1 7.35 M20.25 9.1 Q24.1 9.35 28.0 9.25 M29.65 9.0 L31.1 7.8 M10.9 6.75 L12.0 8.0 13.3 8.25 14.75 7.05 M12.0 8.0 L12.7 8.75 11.05 10.1 M0.0 4.75 L3.25 5.85 3.85 5.6 3.5 3.75 M5.65 4.9 L3.85 5.6 3.95 6.05 4.75 6.3 6.7 6.8 12.0 8.0 M3.25 5.85 L3.95 6.05 4.55 7.85 4.75 6.3 M6.7 6.8 Q6.45 8.7 6.7 10.65 5.95 12.1 4.8 10.9 4.4 9.5 4.55 7.85 M1.6 6.45 L3.25 5.85" fill="none" stroke="#000000" stroke-linecap="round" stroke-linejoin="round" stroke-opacity="0.6627451" stroke-width="1.0"/>
    </g>
    <g id="sprite1" transform="matrix(1.0, 0.0, 0.0, 1.0, -4.5, -2.05)">
      <use height="13.25" transform="matrix(1.0, 0.0, 0.0, 1.0, 4.5, 2.05)" width="52.9" xlink:href="#shape1"/>
    </g>
    <g id="shape1" transform="matrix(1.0, 0.0, 0.0, 1.0, -4.5, -2.05)">
      <path d="M38.4 9.65 Q38.55 11.8 37.55 10.85 37.8 12.65 36.9 13.7 36.2 14.9 35.65 12.8 L35.4 8.55 38.45 8.05 38.4 9.65" fill="url(#gradient0)" fill-rule="evenodd" stroke="none"/>
      <path d="M54.8 2.95 L53.75 6.05 Q51.05 5.45 49.75 6.65 49.7 9.35 47.45 7.75 L47.55 11.0 Q45.95 12.7 45.3 11.35 L45.05 8.95 Q43.4 8.85 42.6 7.15 L42.6 7.1 47.4 5.75 47.85 5.6 48.1 5.5 51.1 4.45 54.8 2.95" fill="url(#gradient1)" fill-rule="evenodd" stroke="none"/>
      <path d="M55.95 4.95 L54.9 2.9 56.65 2.05 Q57.7 3.05 57.25 4.2 56.65 5.6 55.95 4.95" fill="url(#gradient2)" fill-rule="evenodd" stroke="none"/>
      <path d="M28.0 9.25 L28.45 10.0 28.5 10.25 28.05 11.25 27.15 10.25 Q27.3 15.6 26.25 15.3 24.95 15.0 25.55 11.3 L24.1 12.5 Q23.15 13.35 22.55 12.1 L22.15 10.75 20.25 9.1 Q24.1 9.35 28.0 9.25" fill="url(#gradient3)" fill-rule="evenodd" stroke="none"/>
      <path d="M4.8 10.9 Q4.4 9.5 4.55 7.85 L4.75 6.3 6.7 6.8 Q6.45 8.7 6.7 10.65 5.95 12.1 4.8 10.9" fill="url(#gradient4)" fill-rule="evenodd" stroke="none"/>
    </g>
    <linearGradient gradientTransform="matrix(0.0, 0.0099, -0.0037, 0.0, 36.9, 11.1)" gradientUnits="userSpaceOnUse" id="gradient0" spreadMethod="pad" x1="-819.2" x2="819.2">
      <stop offset="0.0" stop-color="#000000"/>
      <stop offset="1.0" stop-color="#ffffff"/>
    </linearGradient>
    <linearGradient gradientTransform="matrix(0.0032, 0.0118, -0.0053, 0.0014, 50.6, 6.35)" gradientUnits="userSpaceOnUse" id="gradient1" spreadMethod="pad" x1="-819.2" x2="819.2">
      <stop offset="0.0" stop-color="#000000"/>
      <stop offset="1.0" stop-color="#ffffff"/>
    </linearGradient>
    <linearGradient gradientTransform="matrix(0.0056, 0.0096, -0.0016, 9.0E-4, 56.2, 3.6)" gradientUnits="userSpaceOnUse" id="gradient2" spreadMethod="pad" x1="-819.2" x2="819.2">
      <stop offset="0.0" stop-color="#000000"/>
      <stop offset="1.0" stop-color="#ffffff"/>
    </linearGradient>
    <linearGradient gradientTransform="matrix(0.0, 0.0148, -0.0038, 0.0, 24.35, 12.2)" gradientUnits="userSpaceOnUse" id="gradient3" spreadMethod="pad" x1="-819.2" x2="819.2">
      <stop offset="0.0" stop-color="#000000"/>
      <stop offset="1.0" stop-color="#ffffff"/>
    </linearGradient>
    <linearGradient gradientTransform="matrix(0.0, 0.0136, -0.0031, 0.0, 5.6, 8.85)" gradientUnits="userSpaceOnUse" id="gradient4" spreadMethod="pad" x1="-819.2" x2="819.2">
      <stop offset="0.0" stop-color="#000000"/>
      <stop offset="1.0" stop-color="#ffffff"/>
    </linearGradient>
  </defs>
</svg>
