<?xml version="1.0" encoding="UTF-8" standalone="no"?>
<svg xmlns:xlink="http://www.w3.org/1999/xlink" height="531.5px" width="460.6px" xmlns="http://www.w3.org/2000/svg">
  <g transform="matrix(1.0, 0.0, 0.0, 1.0, 193.65, 334.05)">
    <use height="32.05" transform="matrix(2.0067, 0.0, 0.0, 2.0067, -102.3534, -203.7534)" width="89.3" xlink:href="#sprite0"/>
  </g>
  <defs>
    <g id="sprite0" transform="matrix(1.0, 0.0, 0.0, 1.0, 0.5, 0.5)">
      <use height="32.05" transform="matrix(1.0, 0.0, 0.0, 1.0, -0.5, -0.5)" width="89.3" xlink:href="#shape0"/>
      <use height="31.05" transform="matrix(1.0, 0.0, 0.0, 1.0, 0.0, 0.0)" width="88.3" xlink:href="#sprite1"/>
    </g>
    <g id="shape0" transform="matrix(1.0, 0.0, 0.0, 1.0, 0.5, 0.5)">
      <path d="M79.8 3.75 Q80.2 5.0 81.55 6.4 L85.1 10.25 85.35 10.55 85.75 11.95 86.1 13.55 82.9 13.3 86.1 13.55 86.2 15.65 86.05 17.65 Q84.75 16.8 83.15 16.5 84.75 16.8 86.05 17.65 85.7 19.95 84.45 21.85 L83.15 23.45 82.0 24.55 Q81.25 21.8 79.15 19.85 81.25 21.8 82.0 24.55 L79.4 26.15 78.25 26.65 Q77.3 22.2 75.5 19.35 75.85 19.05 76.1 19.05 L77.2 19.45 77.3 19.5 77.6 19.65 78.6 19.85 79.15 19.85 Q80.65 19.75 81.6 19.15 82.9 18.3 83.15 16.5 L83.2 15.55 82.9 13.3 81.65 10.1 Q82.8 8.85 85.1 10.25 82.8 8.85 81.65 10.1 L80.9 8.75 79.65 6.45 Q78.6 4.5 78.6 4.05 L78.65 3.55 Q79.4 2.75 79.8 3.75 M81.55 6.4 L79.65 6.45 81.55 6.4 M81.6 19.15 Q83.5 20.4 84.45 21.85 83.5 20.4 81.6 19.15 M77.8 21.45 Q79.0 23.7 79.4 26.15 79.0 23.7 77.8 21.45 M12.05 9.9 Q10.5 11.55 10.9 13.2 L10.8 13.3 6.55 13.05 10.8 13.3 Q10.2 14.2 10.2 15.65 10.2 16.2 10.55 16.75 9.05 17.7 8.0 19.0 9.05 17.7 10.55 16.75 11.55 18.3 15.5 19.6 L13.75 21.85 15.5 19.6 16.4 19.85 21.75 21.05 24.1 21.25 25.3 20.85 26.65 20.5 26.9 20.45 28.15 20.65 28.05 21.75 Q27.8 23.65 27.05 25.1 L25.25 24.75 25.05 24.7 20.15 23.65 16.75 22.75 13.75 21.85 Q9.95 20.55 8.0 19.0 5.8 17.3 5.8 15.25 5.8 14.1 6.55 13.05 7.35 11.8 9.15 10.7 10.35 10.0 11.65 9.5 L12.05 9.9 M20.15 23.65 Q21.15 22.45 21.75 21.05 21.15 22.45 20.15 23.65 M26.65 20.5 Q26.65 22.95 25.25 24.75 26.65 22.95 26.65 20.5" fill="#201735" fill-rule="evenodd" stroke="none"/>
      <path d="M85.35 10.55 Q86.85 12.6 87.55 14.45 L88.0 16.0 Q88.4 18.25 88.25 19.85 88.05 21.3 87.4 22.2 L85.3 24.35 82.35 26.8 80.0 28.65 Q79.45 33.95 78.45 27.9 L78.25 26.65 79.4 26.15 79.55 28.95 80.0 28.65 79.55 28.95 79.4 26.15 82.0 24.55 83.15 23.45 84.45 21.85 Q85.7 19.95 86.05 17.65 L86.2 15.65 86.1 13.55 85.75 11.95 85.35 10.55 M76.7 18.6 L77.4 18.5 79.15 19.85 78.6 19.85 77.6 19.65 77.3 19.5 77.2 19.45 77.25 19.4 76.7 18.6 M80.4 0.85 Q79.3 2.15 79.8 3.75 79.4 2.75 78.65 3.55 78.8 2.2 79.9 1.25 L80.4 0.85 M87.55 14.45 Q86.85 13.85 86.1 13.55 86.85 13.85 87.55 14.45 M88.25 19.85 Q87.3 18.5 86.05 17.65 87.3 18.5 88.25 19.85 M85.3 24.35 Q85.25 23.0 84.45 21.85 85.25 23.0 85.3 24.35 M82.35 26.8 L82.0 24.55 82.35 26.8 M77.25 19.4 L77.3 19.5 77.25 19.4 M22.7 0.5 Q22.6 2.95 19.9 5.15 L16.45 7.3 13.6 8.6 13.05 9.05 12.05 9.9 11.65 9.5 Q10.05 8.05 7.7 7.95 10.05 8.05 11.65 9.5 10.35 10.0 9.15 10.7 7.35 11.8 6.55 13.05 3.75 13.7 1.25 16.75 1.45 12.9 2.7 11.1 4.1 9.1 7.7 7.95 L9.4 7.45 15.35 5.8 17.25 5.05 20.0 3.4 Q21.65 2.15 22.7 0.5 M10.9 13.2 L10.95 13.35 10.8 13.3 10.9 13.2 M27.05 25.1 Q26.1 26.95 24.25 28.0 20.95 29.9 20.65 27.25 L16.8 26.4 11.25 24.4 Q8.5 23.2 6.4 21.85 2.9 19.6 1.25 16.9 L1.2 16.8 1.25 16.75 Q3.75 13.7 6.55 13.05 5.8 14.1 5.8 15.25 5.8 17.3 8.0 19.0 6.95 20.25 6.4 21.85 6.95 20.25 8.0 19.0 9.95 20.55 13.75 21.85 L16.75 22.75 20.15 23.65 25.05 24.7 25.25 24.75 27.05 25.1 M19.9 5.15 Q20.45 4.05 20.0 3.4 20.45 4.05 19.9 5.15 M16.45 7.3 L15.35 5.8 16.45 7.3 M11.25 24.4 L13.75 21.85 11.25 24.4 M20.65 27.25 L21.55 27.45 23.25 26.55 21.55 27.45 20.65 27.25 M16.8 26.4 L20.15 23.65 16.8 26.4" fill="#000000" fill-rule="evenodd" stroke="none"/>
      <path d="M75.5 19.35 L74.85 18.4 Q75.35 16.35 76.7 18.6 L77.25 19.4 77.2 19.45 76.1 19.05 Q75.85 19.05 75.5 19.35 M77.4 18.5 L79.3 17.9 Q80.75 17.3 81.25 16.3 L81.5 14.95 81.4 13.95 80.8 11.7 79.25 8.6 78.95 8.1 Q77.95 6.35 77.65 5.05 77.3 3.9 77.45 3.1 77.8 1.15 80.7 0.5 L80.4 0.85 79.9 1.25 Q78.8 2.2 78.65 3.55 L77.65 5.05 78.65 3.55 78.6 4.05 Q78.6 4.5 79.65 6.45 L80.9 8.75 81.65 10.1 82.9 13.3 Q82.15 13.5 81.4 13.95 82.15 13.5 82.9 13.3 L83.2 15.55 83.15 16.5 81.25 16.3 83.15 16.5 Q82.9 18.3 81.6 19.15 80.65 19.75 79.15 19.85 L77.4 18.5 M79.65 6.45 Q79.25 7.0 78.95 8.1 79.25 7.0 79.65 6.45 M80.8 11.7 Q81.1 10.6 81.65 10.1 81.1 10.6 80.8 11.7 M1.2 16.8 L0.5 15.5 Q-0.75 12.0 1.2 9.45 3.3 6.65 9.25 4.95 L10.8 4.75 10.95 4.7 Q15.25 3.95 18.4 2.6 20.95 1.5 22.7 0.0 L22.7 0.5 Q21.65 2.15 20.0 3.4 L17.25 5.05 15.35 5.8 Q13.7 4.3 10.95 4.7 13.7 4.3 15.35 5.8 L9.4 7.45 7.7 7.95 Q4.1 9.1 2.7 11.1 1.45 12.9 1.25 16.75 L1.2 16.8 M10.95 13.35 L11.35 14.25 12.85 15.65 Q14.55 17.05 16.6 17.9 19.2 18.9 22.35 19.05 L23.25 19.05 24.85 19.05 Q24.8 17.65 26.65 17.55 28.25 17.4 28.15 20.65 L26.9 20.45 26.65 20.5 25.3 20.85 24.1 21.25 21.75 21.05 22.35 19.05 21.75 21.05 16.4 19.85 15.5 19.6 16.6 17.9 15.5 19.6 Q11.55 18.3 10.55 16.75 10.2 16.2 10.2 15.65 10.2 14.2 10.8 13.3 L10.95 13.35 M1.2 9.45 Q4.95 7.75 7.7 7.95 4.95 7.75 1.2 9.45 M24.85 19.05 L26.5 19.05 26.65 20.5 26.5 19.05 24.85 19.05 M18.4 2.6 Q19.6 2.8 20.0 3.4 19.6 2.8 18.4 2.6 M12.85 15.65 Q11.6 16.1 10.55 16.75 11.6 16.1 12.85 15.65 M81.6 19.15 L79.3 17.9 81.6 19.15" fill="#4c4363" fill-rule="evenodd" stroke="none"/>
      <path d="M79.8 3.75 Q80.2 5.0 81.55 6.4 L85.1 10.25 85.35 10.55 Q86.85 12.6 87.55 14.45 L88.0 16.0 Q88.4 18.25 88.25 19.85 88.05 21.3 87.4 22.2 L85.3 24.35 82.35 26.8 80.0 28.65 Q79.45 33.95 78.45 27.9 L78.25 26.65 Q77.3 22.2 75.5 19.35 L74.85 18.4 Q75.35 16.35 76.7 18.6 L77.4 18.5 79.3 17.9 Q80.75 17.3 81.25 16.3 L81.5 14.95 81.4 13.95 80.8 11.7 79.25 8.6 78.95 8.1 Q77.95 6.35 77.65 5.05 77.3 3.9 77.45 3.1 77.8 1.15 80.7 0.5 L80.4 0.85 Q79.3 2.15 79.8 3.75 79.4 2.75 78.65 3.55 L77.65 5.05 M79.65 6.45 L81.55 6.4 M85.1 10.25 Q82.8 8.85 81.65 10.1 81.1 10.6 80.8 11.7 M82.9 13.3 L86.1 13.55 Q86.85 13.85 87.55 14.45 M81.4 13.95 Q82.15 13.5 82.9 13.3 M83.15 16.5 Q84.75 16.8 86.05 17.65 87.3 18.5 88.25 19.85 M83.15 16.5 L81.25 16.3 M84.45 21.85 Q85.25 23.0 85.3 24.35 M84.45 21.85 Q83.5 20.4 81.6 19.15 L79.3 17.9 M79.15 19.85 Q81.25 21.8 82.0 24.55 L82.35 26.8 M78.95 8.1 Q79.25 7.0 79.65 6.45 M77.6 19.65 L77.3 19.5 77.25 19.4 76.7 18.6 M77.4 18.5 L79.15 19.85 M80.0 28.65 L79.55 28.95 79.4 26.15 Q79.0 23.7 77.8 21.45 M1.2 16.8 L0.5 15.5 Q-0.75 12.0 1.2 9.45 3.3 6.65 9.25 4.95 L10.8 4.75 10.95 4.7 Q15.25 3.95 18.4 2.6 20.95 1.5 22.7 0.0 L22.7 0.5 Q22.6 2.95 19.9 5.15 L16.45 7.3 13.6 8.6 13.05 9.05 12.05 9.9 Q10.5 11.55 10.9 13.2 L10.95 13.35 11.35 14.25 12.85 15.65 Q14.55 17.05 16.6 17.9 19.2 18.9 22.35 19.05 L23.25 19.05 24.85 19.05 Q24.8 17.65 26.65 17.55 28.25 17.4 28.15 20.65 L28.05 21.75 Q27.8 23.65 27.05 25.1 26.1 26.95 24.25 28.0 20.95 29.9 20.65 27.25 L16.8 26.4 11.25 24.4 Q8.5 23.2 6.4 21.85 2.9 19.6 1.25 16.9 L1.2 16.8 1.25 16.75 Q3.75 13.7 6.55 13.05 L10.8 13.3 10.95 13.35 M7.7 7.95 Q4.95 7.75 1.2 9.45 M26.65 20.5 L26.5 19.05 24.85 19.05 M21.75 21.05 L22.35 19.05 M20.0 3.4 Q19.6 2.8 18.4 2.6 M20.0 3.4 Q20.45 4.05 19.9 5.15 M11.65 9.5 L12.05 9.9 M15.35 5.8 L16.45 7.3 M10.95 4.7 Q13.7 4.3 15.35 5.8 M7.7 7.95 Q10.05 8.05 11.65 9.5 M8.0 19.0 Q6.95 20.25 6.4 21.85 M8.0 19.0 Q9.05 17.7 10.55 16.75 11.6 16.1 12.85 15.65 M13.75 21.85 L11.25 24.4 M21.75 21.05 Q21.15 22.45 20.15 23.65 L16.8 26.4 M25.05 24.7 L25.25 24.75 Q26.65 22.95 26.65 20.5 M15.5 19.6 L16.6 17.9 M13.75 21.85 L15.5 19.6 M23.25 26.55 L21.55 27.45 20.65 27.25" fill="none" stroke="#000000" stroke-linecap="round" stroke-linejoin="round" stroke-opacity="0.6627451" stroke-width="1.0"/>
    </g>
    <g id="sprite1" transform="matrix(1.0, 0.0, 0.0, 1.0, 0.0, 0.0)">
      <use height="31.05" transform="matrix(1.0, 0.0, 0.0, 1.0, 0.0, 0.0)" width="88.3" xlink:href="#shape1"/>
    </g>
    <g id="shape1" transform="matrix(1.0, 0.0, 0.0, 1.0, 0.0, 0.0)">
      <path d="M1.25 16.9 L1.2 16.8 1.25 16.75 1.25 16.9" fill="url(#gradient0)" fill-rule="evenodd" stroke="none"/>
      <path d="M10.9 13.2 L10.95 13.35 10.8 13.3 10.9 13.2" fill="url(#gradient1)" fill-rule="evenodd" stroke="none"/>
      <path d="M85.1 10.25 L85.35 10.55 Q86.85 12.6 87.55 14.45 L88.0 16.0 Q88.4 18.25 88.25 19.85 88.05 21.3 87.4 22.2 L85.3 24.35 82.35 26.8 80.0 28.65 Q79.45 33.95 78.45 27.9 L78.25 26.65 Q77.3 22.2 75.5 19.35 L74.85 18.4 Q75.35 16.35 76.7 18.6 L77.4 18.5 79.3 17.9 Q80.75 17.3 81.25 16.3 L81.5 14.95 81.4 13.95 80.8 11.7 79.25 8.6 78.95 8.1 Q77.95 6.35 77.65 5.05 77.3 3.9 77.45 3.1 77.8 1.15 80.7 0.5 L80.4 0.85 Q79.3 2.15 79.8 3.75 80.2 5.0 81.55 6.4 L85.1 10.25" fill="url(#gradient2)" fill-rule="evenodd" stroke="none"/>
      <path d="M1.2 16.8 L0.5 15.5 Q-0.75 12.0 1.2 9.45 3.3 6.65 9.25 4.95 L10.8 4.75 10.95 4.7 Q15.25 3.95 18.4 2.6 20.95 1.5 22.7 0.0 L22.7 0.5 Q22.6 2.95 19.9 5.15 L16.45 7.3 13.6 8.6 13.05 9.05 12.05 9.9 Q10.5 11.55 10.9 13.2 L10.8 13.3 10.95 13.35 11.35 14.25 12.85 15.65 Q14.55 17.05 16.6 17.9 19.2 18.9 22.35 19.05 L23.25 19.05 24.85 19.05 Q24.8 17.65 26.65 17.55 28.25 17.4 28.15 20.65 L28.05 21.75 Q27.8 23.65 27.05 25.1 26.1 26.95 24.25 28.0 20.95 29.9 20.65 27.25 L16.8 26.4 11.25 24.4 Q8.5 23.2 6.4 21.85 2.9 19.6 1.25 16.9 L1.25 16.75 1.2 16.8" fill="url(#gradient3)" fill-rule="evenodd" stroke="none"/>
    </g>
    <linearGradient gradientTransform="matrix(0.0, 0.0, 0.0, 1.0E-4, 1.2, 16.8)" gradientUnits="userSpaceOnUse" id="gradient0" spreadMethod="pad" x1="-819.2" x2="819.2">
      <stop offset="0.0" stop-color="#000000"/>
      <stop offset="1.0" stop-color="#ffffff"/>
    </linearGradient>
    <linearGradient gradientTransform="matrix(1.0E-4, 0.0, 0.0, 1.0E-4, 10.85, 13.25)" gradientUnits="userSpaceOnUse" id="gradient1" spreadMethod="pad" x1="-819.2" x2="819.2">
      <stop offset="0.0" stop-color="#000000"/>
      <stop offset="1.0" stop-color="#ffffff"/>
    </linearGradient>
    <linearGradient gradientTransform="matrix(-0.0141, -0.0082, 0.0093, -0.0161, 81.55, 15.9)" gradientUnits="userSpaceOnUse" id="gradient2" spreadMethod="pad" x1="-819.2" x2="819.2">
      <stop offset="0.0" stop-color="#000000"/>
      <stop offset="1.0" stop-color="#ffffff"/>
    </linearGradient>
    <linearGradient gradientTransform="matrix(-0.0182, -0.0182, 0.0124, -0.0124, 13.15, 13.9)" gradientUnits="userSpaceOnUse" id="gradient3" spreadMethod="pad" x1="-819.2" x2="819.2">
      <stop offset="0.0" stop-color="#000000"/>
      <stop offset="1.0" stop-color="#ffffff"/>
    </linearGradient>
  </defs>
</svg>
