<?xml version="1.0" encoding="UTF-8" standalone="no"?>
<svg xmlns:xlink="http://www.w3.org/1999/xlink" height="531.5px" width="460.6px" xmlns="http://www.w3.org/2000/svg">
  <g transform="matrix(1.0, 0.0, 0.0, 1.0, 193.65, 334.05)">
    <use height="92.45" transform="matrix(0.4557, 0.0, 0.0, 0.4557, 13.3221, -40.6279)" width="79.95" xlink:href="#sprite0"/>
  </g>
  <defs>
    <g id="sprite0" transform="matrix(1.0, 0.0, 0.0, 1.0, 0.5, 0.5)">
      <use height="92.45" transform="matrix(1.0, 0.0, 0.0, 1.0, -0.5, -0.5)" width="79.95" xlink:href="#shape0"/>
      <use height="91.45" transform="matrix(1.0, 0.0, 0.0, 1.0, 0.0, 0.0)" width="78.95" xlink:href="#sprite1"/>
    </g>
    <g id="shape0" transform="matrix(1.0, 0.0, 0.0, 1.0, 0.5, 0.5)">
      <path d="M39.3 89.75 Q34.45 89.7 29.7 91.45 L28.85 89.6 Q37.15 82.75 36.55 70.95 24.95 83.85 12.15 78.25 0.25 72.05 0.05 59.9 -0.55 47.2 8.7 40.95 16.45 35.7 25.45 38.35 19.5 30.85 18.85 22.25 18.4 10.2 27.2 3.85 32.45 0.3 39.55 0.0 46.5 0.3 51.8 3.85 60.55 10.2 60.1 22.25 59.5 30.85 53.55 38.35 62.5 35.7 70.3 40.95 79.55 47.2 78.9 59.9 78.7 72.05 66.85 78.25 54.1 83.85 42.4 70.95 41.85 82.75 50.15 89.6 L49.35 91.45 Q44.6 89.7 39.65 89.75 L39.3 89.75" fill="#1a1a1a" fill-rule="evenodd" stroke="none"/>
      <path d="M39.65 89.75 Q44.6 89.7 49.35 91.45 L50.15 89.6 Q41.85 82.75 42.4 70.95 54.1 83.85 66.85 78.25 78.7 72.05 78.9 59.9 79.55 47.2 70.3 40.95 62.5 35.7 53.55 38.35 59.5 30.85 60.1 22.25 60.55 10.2 51.8 3.85 46.5 0.3 39.55 0.0 32.45 0.3 27.2 3.85 18.4 10.2 18.85 22.25 19.5 30.85 25.45 38.35 16.45 35.7 8.7 40.95 -0.55 47.2 0.05 59.9 0.25 72.05 12.15 78.25 24.95 83.85 36.55 70.95 37.15 82.75 28.85 89.6 L29.7 91.45 Q34.45 89.7 39.3 89.75" fill="none" stroke="#000000" stroke-linecap="round" stroke-linejoin="round" stroke-opacity="0.6627451" stroke-width="1.0"/>
    </g>
    <g id="sprite1" transform="matrix(1.0, 0.0, 0.0, 1.0, 0.0, 0.0)">
      <use height="91.45" transform="matrix(1.0, 0.0, 0.0, 1.0, 0.0, 0.0)" width="78.95" xlink:href="#shape1"/>
    </g>
    <g id="shape1" transform="matrix(1.0, 0.0, 0.0, 1.0, 0.0, 0.0)">
      <path d="M53.55 38.35 Q62.5 35.7 70.3 40.95 79.55 47.2 78.9 59.9 78.7 72.05 66.85 78.25 54.1 83.85 42.4 70.95 41.85 82.75 50.15 89.6 L49.35 91.45 Q44.6 89.7 39.65 89.75 L39.3 89.75 Q34.45 89.7 29.7 91.45 L28.85 89.6 Q37.15 82.75 36.55 70.95 24.95 83.85 12.15 78.25 0.25 72.05 0.05 59.9 -0.55 47.2 8.7 40.95 16.45 35.7 25.45 38.35 19.5 30.85 18.85 22.25 18.4 10.2 27.2 3.85 32.45 0.3 39.55 0.0 46.5 0.3 51.8 3.85 60.55 10.2 60.1 22.25 59.5 30.85 53.55 38.35" fill="url(#gradient0)" fill-rule="evenodd" stroke="none"/>
    </g>
    <linearGradient gradientTransform="matrix(-0.0215, -0.0735, 0.0535, -0.0157, 39.4, 45.75)" gradientUnits="userSpaceOnUse" id="gradient0" spreadMethod="pad" x1="-819.2" x2="819.2">
      <stop offset="0.0" stop-color="#000000"/>
      <stop offset="1.0" stop-color="#ffffff"/>
    </linearGradient>
  </defs>
</svg>
