<?xml version="1.0" encoding="UTF-8" standalone="no"?>
<svg xmlns:xlink="http://www.w3.org/1999/xlink" height="531.5px" width="460.6px" xmlns="http://www.w3.org/2000/svg">
  <g transform="matrix(1.0, 0.0, 0.0, 1.0, 193.65, 334.05)">
    <use height="162.7" transform="matrix(0.4509, 0.0, 0.0, 0.4509, -89.9636, -70.2018)" width="374.25" xlink:href="#sprite0"/>
  </g>
  <defs>
    <g id="sprite0" transform="matrix(1.0, 0.0, 0.0, 1.0, 1.25, 2.0)">
      <use height="162.7" transform="matrix(1.0, 0.0, 0.0, 1.0, -1.25, -2.0)" width="374.25" xlink:href="#shape0"/>
      <use height="158.7" transform="matrix(1.0, 0.0, 0.0, 1.0, 0.8, 0.0)" width="365.3" xlink:href="#sprite1"/>
    </g>
    <g id="shape0" transform="matrix(1.0, 0.0, 0.0, 1.0, 1.25, 2.0)">
      <path d="M365.8 44.95 L365.55 46.15 363.0 46.75 365.3 46.45 361.7 50.65 Q351.05 55.35 338.9 56.85 L328.45 57.55 Q311.4 57.75 291.6 52.25 L288.5 46.35 288.65 46.25 289.55 46.45 Q304.35 57.5 328.75 55.2 L330.0 54.85 339.85 51.95 Q345.95 50.25 351.35 49.0 357.65 47.55 363.0 46.75 357.65 47.55 351.35 49.0 345.95 50.25 339.85 51.95 L330.0 54.85 328.75 55.2 Q304.35 57.5 289.55 46.45 L289.5 45.8 297.6 44.85 Q301.05 46.85 308.1 48.85 317.2 51.5 323.1 51.5 327.7 51.5 331.0 50.0 L336.7 46.65 Q341.7 43.8 349.7 42.6 L365.8 44.95" fill="#a86400" fill-rule="evenodd" stroke="none"/>
      <path d="M338.9 56.85 Q337.35 72.45 350.5 97.85 352.45 98.7 354.3 99.85 373.4 123.45 345.7 145.65 339.05 149.55 327.55 151.6 295.8 156.2 263.6 157.8 163.85 162.8 59.95 139.25 41.6 135.2 29.8 125.5 25.1 115.65 25.75 108.5 50.7 126.9 115.6 136.45 169.8 144.45 230.05 144.45 247.45 144.45 263.6 142.3 283.35 139.6 301.15 133.65 316.2 128.6 324.75 122.5 333.7 116.05 333.7 109.6 333.7 105.95 331.75 102.85 L327.5 97.55 Q321.3 90.05 321.3 79.35 321.3 72.8 324.45 65.4 325.8 62.25 328.45 57.55 L338.9 56.85 M326.05 3.05 Q329.6 4.4 332.55 6.45 349.2 15.4 344.55 42.0 L338.15 41.25 338.3 39.75 Q340.4 35.05 341.1 30.9 L341.45 26.85 Q341.45 22.45 338.85 17.65 336.4 13.1 331.65 8.2 328.95 5.4 326.05 3.05" fill="#eec111" fill-rule="evenodd" stroke="none"/>
      <path d="M25.75 108.5 Q26.0 105.9 26.9 103.7 27.75 101.7 29.2 99.95 L31.1 100.1 35.15 96.25 34.8 95.45 Q36.05 94.75 37.45 94.15 39.4 93.3 41.65 92.65 L51.0 93.5 59.55 94.75 74.9 96.75 87.05 97.7 89.5 98.1 68.9 98.9 Q46.0 100.75 45.7 105.55 45.35 110.35 67.8 115.25 90.2 120.25 122.2 122.5 154.15 124.7 177.05 122.8 199.9 121.0 200.25 116.2 200.55 111.4 178.15 106.45 L166.0 104.1 185.1 104.15 Q197.55 104.15 221.1 104.9 240.8 105.1 251.75 102.65 258.45 101.15 263.6 98.4 L263.9 98.25 264.95 98.25 265.6 97.25 Q269.95 94.5 273.0 90.75 281.0 80.85 281.0 62.5 281.0 57.95 277.15 42.05 L274.85 33.05 275.0 33.05 278.05 32.85 Q278.3 34.5 278.95 36.05 280.45 39.7 283.1 41.15 L285.1 41.9 Q289.25 42.75 293.15 39.1 297.0 35.45 298.3 29.35 298.8 27.1 298.8 25.0 309.45 19.95 312.0 19.1 313.2 11.25 301.55 7.0 298.15 5.75 294.95 5.15 289.1 4.0 283.5 4.2 L283.5 2.85 Q310.7 -2.95 326.05 3.05 328.95 5.4 331.65 8.2 336.4 13.1 338.85 17.65 L336.85 18.8 Q334.1 15.85 330.75 16.25 L329.05 16.7 Q326.85 17.65 325.4 20.2 323.4 23.7 323.95 28.3 324.5 32.95 327.25 35.9 328.2 36.9 330.7 38.05 L331.45 38.4 331.25 40.6 329.5 40.4 317.5 39.45 Q307.8 43.2 297.6 44.85 L289.5 45.8 288.75 45.85 288.65 46.25 288.4 46.15 288.5 46.3 288.5 46.35 291.6 52.25 Q311.4 57.75 328.45 57.55 325.8 62.25 324.45 65.4 321.3 72.8 321.3 79.35 321.3 90.05 327.5 97.55 L331.75 102.85 Q333.7 105.95 333.7 109.6 333.7 116.05 324.75 122.5 316.2 128.6 301.15 133.65 283.35 139.6 263.6 142.3 247.45 144.45 230.05 144.45 169.8 144.45 115.6 136.45 50.7 126.9 25.75 108.5 M224.35 110.85 Q220.4 112.4 220.4 114.55 220.4 116.7 224.35 118.2 228.35 119.75 234.0 119.75 239.65 119.75 243.6 118.2 247.6 116.7 247.6 114.55 247.6 112.4 243.6 110.85 239.65 109.35 234.0 109.35 228.35 109.35 224.35 110.85 M61.0 96.7 L60.95 96.7 60.95 97.6 61.0 96.7" fill="#ffe700" fill-rule="evenodd" stroke="none"/>
      <path d="M7.35 77.65 Q11.15 71.1 15.35 67.05 20.0 62.5 22.35 63.8 L22.6 64.0 Q20.6 67.5 17.0 72.65 L12.95 78.2 10.7 81.0 Q7.15 85.15 5.1 85.95 5.1 84.6 7.35 77.65 M23.15 80.9 L23.15 80.95 22.55 80.9 23.15 80.9 M331.45 38.4 L330.7 38.05 Q328.2 36.9 327.25 35.9 324.5 32.95 323.95 28.3 323.4 23.7 325.4 20.2 326.85 17.65 329.05 16.7 L330.75 16.25 Q334.1 15.85 336.85 18.8 339.6 21.75 340.15 26.35 340.4 28.65 340.05 30.7 339.65 32.75 338.7 34.5 336.8 38.05 333.4 38.45 L331.45 38.4 M337.2 30.8 Q336.45 29.55 335.4 28.95 L333.45 28.9 Q332.65 29.35 332.65 30.6 332.55 31.8 333.3 33.05 334.05 34.35 335.05 34.9 L336.5 35.2 337.05 35.0 Q337.8 34.55 337.85 33.2 L337.7 31.95 337.2 30.8 M285.75 21.5 Q285.75 20.4 285.0 19.65 284.25 18.9 283.15 18.9 282.05 18.9 281.3 19.65 280.55 20.4 280.55 21.5 280.55 22.6 281.3 23.35 282.05 24.1 283.15 24.1 284.25 24.1 285.0 23.35 285.75 22.6 285.75 21.5 M278.05 32.85 Q277.35 29.2 278.25 25.05 279.55 19.0 283.35 15.3 284.75 14.0 286.2 13.25 288.75 11.95 291.4 12.55 295.55 13.4 297.55 18.35 298.85 21.45 298.8 25.0 298.8 27.1 298.3 29.35 297.0 35.45 293.15 39.1 289.25 42.75 285.1 41.9 L283.1 41.15 Q280.45 39.7 278.95 36.05 278.3 34.5 278.05 32.85 M166.0 104.1 L178.15 106.45 Q200.55 111.4 200.25 116.2 199.9 121.0 177.05 122.8 154.15 124.7 122.2 122.5 90.2 120.25 67.8 115.25 45.35 110.35 45.7 105.55 46.0 100.75 68.9 98.9 L89.5 98.1 123.8 99.35 Q147.55 101.0 166.0 104.1 M224.35 110.85 Q228.35 109.35 234.0 109.35 239.65 109.35 243.6 110.85 247.6 112.4 247.6 114.55 247.6 116.7 243.6 118.2 239.65 119.75 234.0 119.75 228.35 119.75 224.35 118.2 220.4 116.7 220.4 114.55 220.4 112.4 224.35 110.85" fill="#ffffff" fill-rule="evenodd" stroke="none"/>
      <path d="M272.3 10.3 Q274.35 8.2 276.85 6.35 278.95 4.75 281.35 3.3 L281.8 3.2 283.5 2.85 283.5 4.2 282.8 4.25 282.05 4.3 Q279.7 5.4 277.55 7.2 275.4 9.0 273.5 11.4 L272.3 10.3 M336.85 18.8 L338.85 17.65 Q341.45 22.45 341.45 26.85 L341.1 30.9 Q340.4 35.05 338.3 39.75 L338.15 41.25 337.65 41.2 331.55 40.6 331.25 40.6 331.45 38.4 333.4 38.45 Q336.8 38.05 338.7 34.5 339.65 32.75 340.05 30.7 340.4 28.65 340.15 26.35 339.6 21.75 336.85 18.8" fill="#ffec33" fill-rule="evenodd" stroke="none"/>
      <path d="M337.2 30.8 L337.7 31.95 337.85 33.2 Q337.8 34.55 337.05 35.0 L336.5 35.2 335.05 34.9 Q334.05 34.35 333.3 33.05 332.55 31.8 332.65 30.6 332.65 29.35 333.45 28.9 L335.4 28.95 Q336.45 29.55 337.2 30.8 M285.75 21.5 Q285.75 22.6 285.0 23.35 284.25 24.1 283.15 24.1 282.05 24.1 281.3 23.35 280.55 22.6 280.55 21.5 280.55 20.4 281.3 19.65 282.05 18.9 283.15 18.9 284.25 18.9 285.0 19.65 285.75 20.4 285.75 21.5" fill="#0196ba" fill-rule="evenodd" stroke="none"/>
      <path d="M325.1 42.0 L328.9 43.0 Q333.25 44.2 334.25 46.3 333.15 47.4 331.1 47.55 L326.45 47.6 Q314.9 47.6 310.85 45.65 311.5 45.0 311.5 44.35 L315.95 42.0 Q317.95 41.1 320.9 41.1 L322.65 41.35 323.15 41.45 325.1 42.0 M315.65 44.0 L315.9 45.2 Q320.6 44.65 325.45 45.05 L322.6 44.1 Q320.25 43.2 315.65 44.0" fill="#fed9a3" fill-rule="evenodd" stroke="none"/>
      <path d="M344.55 42.0 L349.7 42.6 Q341.7 43.8 336.7 46.65 L331.0 50.0 Q327.7 51.5 323.1 51.5 317.2 51.5 308.1 48.85 301.05 46.85 297.6 44.85 307.8 43.2 317.5 39.45 L329.5 40.4 331.25 40.6 331.55 40.6 337.65 41.2 338.15 41.25 344.55 42.0 M325.1 42.0 L323.15 41.45 322.65 41.35 320.9 41.1 Q317.95 41.1 315.95 42.0 L311.5 44.35 Q311.5 45.0 310.85 45.65 314.9 47.6 326.45 47.6 L331.1 47.55 Q333.15 47.4 334.25 46.3 333.25 44.2 328.9 43.0 L325.1 42.0 M288.65 46.25 L288.5 46.35 288.5 46.3 288.65 46.25" fill="#fda31c" fill-rule="evenodd" stroke="none"/>
      <path d="M298.8 25.0 Q298.85 21.45 297.55 18.35 295.55 13.4 291.4 12.55 288.75 11.95 286.2 13.25 284.75 14.0 283.35 15.3 279.55 19.0 278.25 25.05 277.35 29.2 278.05 32.85 L275.0 33.05 274.85 33.05 270.4 33.05 Q267.25 32.2 267.25 27.65 267.25 19.3 273.5 11.4 275.4 9.0 277.55 7.2 279.7 5.4 282.05 4.3 L282.8 4.25 283.5 4.2 Q289.1 4.0 294.95 5.15 298.15 5.75 301.55 7.0 313.2 11.25 312.0 19.1 309.45 19.95 298.8 25.0" fill="#fffce6" fill-rule="evenodd" stroke="none"/>
      <path d="M315.65 44.0 Q320.25 43.2 322.6 44.1 L325.45 45.05 Q320.6 44.65 315.9 45.2 L315.65 44.0" fill="#8f5601" fill-rule="evenodd" stroke="none"/>
      <path d="M41.65 92.65 Q47.5 90.9 55.45 90.25 158.95 100.85 263.6 98.25 L263.9 98.25 263.6 98.4 Q258.45 101.15 251.75 102.65 240.8 105.1 221.1 104.9 197.55 104.15 185.1 104.15 L166.0 104.1 Q147.55 101.0 123.8 99.35 L89.5 98.1 87.05 97.7 74.9 96.75 59.55 94.75 51.0 93.5 41.65 92.65 M265.6 97.25 Q278.8 77.25 267.5 49.85 264.3 42.05 263.6 35.2 263.25 31.55 263.6 28.15 264.7 18.0 272.3 10.3 L273.5 11.4 Q267.25 19.3 267.25 27.65 267.25 32.2 270.4 33.05 L274.85 33.05 277.15 42.05 Q281.0 57.95 281.0 62.5 281.0 80.85 273.0 90.75 269.95 94.5 265.6 97.25" fill="#feedab" fill-rule="evenodd" stroke="none"/>
      <path d="M19.1 97.35 L16.1 96.05 15.9 95.95 22.05 90.1 26.75 85.4 29.0 88.05 29.5 88.6 31.7 91.45 30.3 92.25 29.0 93.0 Q27.9 93.6 26.9 94.15 22.1 96.65 19.1 97.35 M0.9 93.65 L0.95 93.25 Q2.2 86.9 6.45 79.25 L7.35 77.65 Q5.1 84.6 5.1 85.95 7.15 85.15 10.7 81.0 L12.95 78.2 17.0 72.65 Q20.6 67.5 22.6 64.0 24.6 65.45 23.35 71.45 22.8 74.15 21.75 77.05 L21.55 77.6 21.4 77.6 Q20.85 77.7 20.15 78.2 L18.55 79.6 Q16.15 82.2 14.05 86.45 L12.8 89.25 10.7 90.7 Q5.9 93.7 1.85 93.7 L0.9 93.65 M16.75 87.35 L14.9 91.65 16.05 88.55 16.75 87.35 M14.2 94.8 L14.2 95.15 14.15 95.1 14.2 94.8" fill="#d8ecf3" fill-rule="evenodd" stroke="none"/>
      <path d="M16.1 96.05 L15.8 96.35 15.0 97.15 Q13.15 98.85 12.1 98.3 11.0 97.75 11.25 95.2 L11.35 94.15 11.45 93.7 Q11.85 91.6 12.8 89.25 L14.05 86.45 Q16.15 82.2 18.55 79.6 L20.15 78.2 Q20.85 77.7 21.4 77.6 L21.55 77.6 22.3 77.7 22.85 78.2 23.1 78.8 23.2 80.5 23.15 80.9 22.55 80.9 21.4 81.7 Q19.45 83.2 18.0 85.15 19.45 83.2 21.4 81.7 L22.55 80.9 23.05 81.45 24.5 82.9 26.75 85.4 22.05 90.1 15.9 95.95 14.2 95.15 15.9 95.95 16.1 96.05 M16.75 87.35 L17.8 85.5 18.0 85.15 16.95 86.75 16.05 88.55 14.9 91.65 16.75 87.35 M14.2 94.8 L14.9 91.65 14.2 94.8 14.15 95.1 14.2 95.15 14.2 94.8" fill="url(#gradient0)" fill-rule="evenodd" stroke="none"/>
      <path d="M29.2 99.95 L29.0 99.95 26.9 99.65 Q23.15 98.95 19.1 97.35 22.1 96.65 26.9 94.15 27.9 93.6 29.0 93.0 L30.3 92.25 31.7 91.45 34.65 95.5 35.15 96.25 31.1 100.1 29.2 99.95 M11.25 95.2 L10.7 95.8 8.95 97.65 Q4.3 102.2 1.95 100.9 -0.3 99.65 0.9 93.65 L1.85 93.7 Q5.9 93.7 10.7 90.7 L12.8 89.25 Q11.85 91.6 11.45 93.7 L11.35 94.15 11.25 95.2" fill="#a4d8e3" fill-rule="evenodd" stroke="none"/>
      <path d="M61.0 96.7 L60.95 97.6 60.95 96.7 61.0 96.7" fill="#fff5ab" fill-rule="evenodd" stroke="none"/>
      <path d="M365.55 46.15 L365.3 46.45 371.25 45.85 365.8 44.95 349.7 42.6 344.55 42.0 338.15 41.25 337.65 41.2 331.55 40.6 331.25 40.6 329.5 40.4 317.5 39.45 Q307.8 43.2 297.6 44.85 L289.5 45.8 288.75 45.85 289.55 46.45 288.65 46.25 288.4 46.15 288.5 46.3 288.5 46.35 291.6 52.25 Q311.4 57.75 328.45 57.55 L338.9 56.85 Q351.05 55.35 361.7 50.65 L365.3 46.45 363.0 46.75 Q357.65 47.55 351.35 49.0 345.95 50.25 339.85 51.95 L330.0 54.85 328.75 55.2 Q304.35 57.5 289.55 46.45 M365.55 46.15 L363.0 46.75" fill="none" stroke="#1c1311" stroke-linecap="round" stroke-linejoin="round" stroke-opacity="0.6627451" stroke-width="3.5"/>
      <path d="M338.9 56.85 Q337.35 72.45 350.5 97.85 352.45 98.7 354.3 99.85 373.4 123.45 345.7 145.65 339.05 149.55 327.55 151.6 295.8 156.2 263.6 157.8 163.85 162.8 59.95 139.25 41.6 135.2 29.8 125.5 25.1 115.65 25.75 108.5 26.0 105.9 26.9 103.7 27.75 101.7 29.2 99.95 M34.8 95.45 Q36.05 94.75 37.45 94.15 39.4 93.3 41.65 92.65 47.5 90.9 55.45 90.25 158.95 100.85 263.6 98.25 L263.9 98.25 M265.6 97.25 Q278.8 77.25 267.5 49.85 264.3 42.05 263.6 35.2 263.25 31.55 263.6 28.15 264.7 18.0 272.3 10.3 274.35 8.2 276.85 6.35 278.95 4.75 281.35 3.3 L281.8 3.2 283.5 2.85 Q310.7 -2.95 326.05 3.05 329.6 4.4 332.55 6.45 349.2 15.4 344.55 42.0" fill="none" stroke="#46400f" stroke-linecap="round" stroke-linejoin="round" stroke-opacity="0.6627451" stroke-width="4.0"/>
      <path d="M331.45 38.4 L330.7 38.05 Q328.2 36.9 327.25 35.9 324.5 32.95 323.95 28.3 323.4 23.7 325.4 20.2 326.85 17.65 329.05 16.7 L330.75 16.25 Q334.1 15.85 336.85 18.8 339.6 21.75 340.15 26.35 340.4 28.65 340.05 30.7 339.65 32.75 338.7 34.5 336.8 38.05 333.4 38.45 L331.45 38.4 M278.05 32.85 Q277.35 29.2 278.25 25.05 279.55 19.0 283.35 15.3 284.75 14.0 286.2 13.25 288.75 11.95 291.4 12.55 295.55 13.4 297.55 18.35 298.85 21.45 298.8 25.0 298.8 27.1 298.3 29.35 297.0 35.45 293.15 39.1 289.25 42.75 285.1 41.9 L283.1 41.15 Q280.45 39.7 278.95 36.05 278.3 34.5 278.05 32.85" fill="none" stroke="#46400f" stroke-linecap="round" stroke-linejoin="round" stroke-opacity="0.6627451" stroke-width="3.5"/>
      <path d="M263.9 98.25 L264.95 98.25" fill="none" stroke="#7a711a" stroke-linecap="round" stroke-linejoin="round" stroke-opacity="0.6627451" stroke-width="3.0"/>
      <path d="M264.95 98.25 L265.6 97.25" fill="none" stroke="#7a711a" stroke-linecap="round" stroke-linejoin="round" stroke-opacity="0.6627451" stroke-width="4.0"/>
      <path d="M29.2 99.95 L29.0 99.95 26.9 99.65 Q23.15 98.95 19.1 97.35 L16.1 96.05 15.8 96.35 15.0 97.15 Q13.15 98.85 12.1 98.3 11.0 97.75 11.25 95.2 L10.7 95.8 8.95 97.65 Q4.3 102.2 1.95 100.9 -0.3 99.65 0.9 93.65 L0.95 93.25 Q2.2 86.9 6.45 79.25 L7.35 77.65 Q11.15 71.1 15.35 67.05 20.0 62.5 22.35 63.8 L22.6 64.0 Q24.6 65.45 23.35 71.45 22.8 74.15 21.75 77.05 L21.55 77.6 22.3 77.7 22.85 78.2 23.1 78.8 23.2 80.5 23.15 80.9 23.15 80.95 23.05 81.45 24.5 82.9 26.75 85.4 29.0 88.05 29.5 88.6 31.7 91.45 34.65 95.5 34.8 95.45 M21.55 77.6 L21.4 77.6 Q20.85 77.7 20.15 78.2 L18.55 79.6 Q16.15 82.2 14.05 86.45 L12.8 89.25 Q11.85 91.6 11.45 93.7 L11.35 94.15 11.25 95.2 M18.0 85.15 L17.8 85.5 16.75 87.35 16.05 88.55 14.9 91.65 14.2 94.8 14.15 95.1 14.2 95.15 15.9 95.95 16.1 96.05 M16.05 88.55 L16.95 86.75 18.0 85.15 Q19.45 83.2 21.4 81.7 L22.55 80.9 23.05 81.45 M35.15 96.25 L31.1 100.1 29.2 99.95 M34.65 95.5 L35.15 96.25" fill="none" stroke="#595959" stroke-linecap="round" stroke-linejoin="round" stroke-opacity="0.6627451" stroke-width="3.5"/>
    </g>
    <linearGradient gradientTransform="matrix(1.0, 0.0, 0.0, 1.0, -697.2, -334.65)" gradientUnits="userSpaceOnUse" id="gradient0" spreadMethod="pad" x1="-819.2" x2="819.2">
      <stop offset="0.0" stop-color="#000000"/>
      <stop offset="1.0" stop-color="#ffffff"/>
    </linearGradient>
    <g id="sprite1" transform="matrix(1.0, 0.0, 0.0, 1.0, 0.0, 0.0)">
      <use height="158.7" transform="matrix(1.0, 0.0, 0.0, 1.0, 0.0, 0.0)" width="365.3" xlink:href="#shape1"/>
    </g>
    <g id="shape1" transform="matrix(1.0, 0.0, 0.0, 1.0, 0.0, 0.0)">
      <path d="M315.15 44.0 Q319.75 43.2 322.1 44.1 L324.95 45.05 Q320.1 44.65 315.4 45.2 L315.15 44.0" fill="url(#gradient1)" fill-rule="evenodd" stroke="none"/>
      <path d="M60.45 96.7 L60.5 96.7 60.45 97.6 60.45 96.7" fill="url(#gradient2)" fill-rule="evenodd" stroke="none"/>
      <path d="M22.65 80.9 L22.65 80.95 22.05 80.9 22.65 80.9" fill="url(#gradient3)" fill-rule="evenodd" stroke="none"/>
      <path d="M344.05 42.0 L349.2 42.6 365.3 44.95 365.05 46.15 362.5 46.75 364.8 46.45 361.2 50.65 Q350.55 55.35 338.4 56.85 L327.95 57.55 Q310.9 57.75 291.1 52.25 L288.0 46.35 288.0 46.3 288.15 46.25 289.05 46.45 289.0 45.8 297.1 44.85 Q307.3 43.2 317.0 39.45 L329.0 40.4 330.75 40.6 331.05 40.6 337.15 41.2 337.65 41.25 344.05 42.0 M315.15 44.0 L315.4 45.2 Q320.1 44.65 324.95 45.05 L322.1 44.1 Q319.75 43.2 315.15 44.0" fill="url(#gradient4)" fill-rule="evenodd" stroke="none"/>
      <path d="M337.65 41.25 L337.15 41.2 331.05 40.6 330.75 40.6 330.95 38.4 332.9 38.45 Q336.3 38.05 338.2 34.5 339.15 32.75 339.55 30.7 339.9 28.65 339.65 26.35 339.1 21.75 336.35 18.8 L338.35 17.65 Q340.95 22.45 340.95 26.85 L340.6 30.9 Q339.9 35.05 337.8 39.75 L337.65 41.25" fill="url(#gradient5)" fill-rule="evenodd" stroke="none"/>
      <path d="M271.8 10.3 Q273.85 8.2 276.35 6.35 L280.85 3.3 281.3 3.2 283.0 2.85 283.0 4.2 282.3 4.25 281.55 4.3 Q279.2 5.4 277.05 7.2 274.9 9.0 273.0 11.4 L271.8 10.3" fill="url(#gradient6)" fill-rule="evenodd" stroke="none"/>
      <path d="M28.7 99.95 Q23.85 99.45 18.6 97.35 L15.6 96.05 15.3 96.35 14.5 97.15 Q12.65 98.85 11.6 98.3 10.5 97.75 10.75 95.2 L8.45 97.65 Q3.8 102.2 1.45 100.9 -0.8 99.65 0.4 93.65 L0.45 93.25 Q1.7 86.9 5.95 79.25 L6.85 77.65 Q10.65 71.1 14.85 67.05 19.5 62.5 21.85 63.8 L22.1 64.0 Q24.1 65.45 22.85 71.45 22.25 74.4 21.05 77.6 L21.8 77.7 Q22.35 78.0 22.6 78.8 L22.7 80.5 22.65 80.9 22.05 80.9 22.55 81.45 26.25 85.4 31.2 91.45 34.15 95.5 34.65 96.25 30.6 100.1 28.7 99.95 M17.3 85.5 L17.5 85.15 16.45 86.75 15.55 88.55 16.25 87.35 17.3 85.5" fill="url(#gradient7)" fill-rule="evenodd" stroke="none"/>
      <path d="M297.05 18.35 Q298.35 21.45 298.3 25.0 298.3 27.1 297.8 29.35 296.5 35.45 292.65 39.1 288.75 42.75 284.6 41.9 283.5 41.65 282.6 41.15 279.95 39.7 278.45 36.05 277.8 34.5 277.55 32.85 276.85 29.2 277.75 25.05 279.05 19.0 282.85 15.3 284.25 14.0 285.7 13.25 288.25 11.95 290.9 12.55 295.05 13.4 297.05 18.35" fill="url(#gradient8)" fill-rule="evenodd" stroke="none"/>
      <path d="M330.95 38.4 L330.2 38.05 Q327.7 36.9 326.75 35.9 324.0 32.95 323.45 28.3 322.9 23.7 324.9 20.2 326.35 17.65 328.55 16.7 L330.25 16.25 Q333.6 15.85 336.35 18.8 339.1 21.75 339.65 26.35 339.9 28.65 339.55 30.7 339.15 32.75 338.2 34.5 336.3 38.05 332.9 38.45 L330.95 38.4" fill="url(#gradient9)" fill-rule="evenodd" stroke="none"/>
      <path d="M344.05 42.0 L337.65 41.25 337.8 39.75 Q339.9 35.05 340.6 30.9 L340.95 26.85 Q340.95 22.45 338.35 17.65 L336.35 18.8 Q333.6 15.85 330.25 16.25 L328.55 16.7 Q326.35 17.65 324.9 20.2 322.9 23.7 323.45 28.3 324.0 32.95 326.75 35.9 327.7 36.9 330.2 38.05 L330.95 38.4 330.75 40.6 329.0 40.4 317.0 39.45 Q307.3 43.2 297.1 44.85 L289.0 45.8 288.25 45.85 288.15 46.25 287.9 46.15 288.0 46.3 288.0 46.35 291.1 52.25 Q310.9 57.75 327.95 57.55 L338.4 56.85 Q336.85 72.45 350.0 97.85 351.95 98.7 353.8 99.85 372.9 123.45 345.2 145.65 338.55 149.55 327.05 151.6 196.85 170.4 59.45 139.25 41.1 135.2 29.3 125.5 24.6 115.65 25.25 108.5 25.7 103.55 28.7 99.95 L30.6 100.1 34.65 96.25 34.3 95.45 Q37.25 93.75 41.15 92.65 47.0 90.9 54.95 90.25 158.6 100.85 263.4 98.25 L264.45 98.25 265.1 97.25 Q278.3 77.25 267.0 49.85 256.9 25.35 271.8 10.3 L273.0 11.4 Q274.9 9.0 277.05 7.2 279.2 5.4 281.55 4.3 L282.3 4.25 283.0 4.2 283.0 2.85 Q310.2 -2.95 325.55 3.05 329.1 4.4 332.05 6.45 348.7 15.4 344.05 42.0 M297.05 18.35 Q295.05 13.4 290.9 12.55 288.25 11.95 285.7 13.25 284.25 14.0 282.85 15.3 279.05 19.0 277.75 25.05 276.85 29.2 277.55 32.85 277.8 34.5 278.45 36.05 279.95 39.7 282.6 41.15 283.5 41.65 284.6 41.9 288.75 42.75 292.65 39.1 296.5 35.45 297.8 29.35 298.3 27.1 298.3 25.0 298.35 21.45 297.05 18.35 M60.45 96.7 L60.45 97.6 60.5 96.7 60.45 96.7" fill="url(#gradient10)" fill-rule="evenodd" stroke="none"/>
    </g>
    <linearGradient gradientTransform="matrix(0.006, 0.0, 0.0, 0.001, 320.05, 44.4)" gradientUnits="userSpaceOnUse" id="gradient1" spreadMethod="pad" x1="-819.2" x2="819.2">
      <stop offset="0.0" stop-color="#000000"/>
      <stop offset="1.0" stop-color="#ffffff"/>
    </linearGradient>
    <linearGradient gradientTransform="matrix(0.0, 0.0, 0.0, 5.0E-4, 60.45, 97.15)" gradientUnits="userSpaceOnUse" id="gradient2" spreadMethod="pad" x1="-819.2" x2="819.2">
      <stop offset="0.0" stop-color="#000000"/>
      <stop offset="1.0" stop-color="#ffffff"/>
    </linearGradient>
    <linearGradient gradientTransform="matrix(4.0E-4, 0.0, 0.0, 0.0, 22.35, 80.9)" gradientUnits="userSpaceOnUse" id="gradient3" spreadMethod="pad" x1="-819.2" x2="819.2">
      <stop offset="0.0" stop-color="#000000"/>
      <stop offset="1.0" stop-color="#ffffff"/>
    </linearGradient>
    <linearGradient gradientTransform="matrix(-0.0334, -0.0334, 0.0078, -0.0078, 326.65, 48.5)" gradientUnits="userSpaceOnUse" id="gradient4" spreadMethod="pad" x1="-819.2" x2="819.2">
      <stop offset="0.0" stop-color="#000000"/>
      <stop offset="1.0" stop-color="#ffffff"/>
    </linearGradient>
    <linearGradient gradientTransform="matrix(-0.0065, -0.0174, 0.0134, -0.005, 344.25, 46.15)" gradientUnits="userSpaceOnUse" id="gradient5" spreadMethod="pad" x1="-819.2" x2="819.2">
      <stop offset="0.0" stop-color="#000000"/>
      <stop offset="1.0" stop-color="#ffffff"/>
    </linearGradient>
    <linearGradient gradientTransform="matrix(-0.0132, -0.0173, 0.0042, -0.0032, 291.6, 17.5)" gradientUnits="userSpaceOnUse" id="gradient6" spreadMethod="pad" x1="-819.2" x2="819.2">
      <stop offset="0.0" stop-color="#000000"/>
      <stop offset="1.0" stop-color="#ffffff"/>
    </linearGradient>
    <linearGradient gradientTransform="matrix(-0.1037, -0.0188, 0.0041, -0.0226, -1.9, 85.2)" gradientUnits="userSpaceOnUse" id="gradient7" spreadMethod="pad" x1="-819.2" x2="819.2">
      <stop offset="0.0" stop-color="#000000"/>
      <stop offset="1.0" stop-color="#ffffff"/>
    </linearGradient>
    <linearGradient gradientTransform="matrix(-0.0086, -0.0322, 0.0175, -0.0047, 291.45, 35.5)" gradientUnits="userSpaceOnUse" id="gradient8" spreadMethod="pad" x1="-819.2" x2="819.2">
      <stop offset="0.0" stop-color="#000000"/>
      <stop offset="1.0" stop-color="#ffffff"/>
    </linearGradient>
    <linearGradient gradientTransform="matrix(-0.0067, -0.0249, 0.0132, -0.0035, 345.8, 27.95)" gradientUnits="userSpaceOnUse" id="gradient9" spreadMethod="pad" x1="-819.2" x2="819.2">
      <stop offset="0.0" stop-color="#000000"/>
      <stop offset="1.0" stop-color="#ffffff"/>
    </linearGradient>
    <linearGradient gradientTransform="matrix(-0.0199, -0.1151, 0.0954, -0.0165, 192.5, 102.3)" gradientUnits="userSpaceOnUse" id="gradient10" spreadMethod="pad" x1="-819.2" x2="819.2">
      <stop offset="0.0" stop-color="#000000"/>
      <stop offset="1.0" stop-color="#ffffff"/>
    </linearGradient>
  </defs>
</svg>
