<?xml version="1.0" encoding="UTF-8" standalone="no"?>
<svg xmlns:xlink="http://www.w3.org/1999/xlink" height="531.5px" width="460.6px" xmlns="http://www.w3.org/2000/svg">
  <g transform="matrix(1.0, 0.0, 0.0, 1.0, 193.65, 334.05)">
    <use height="24.4" transform="matrix(2.0067, 0.0, 0.0, 2.0067, -79.7534, -126.1034)" width="78.75" xlink:href="#sprite0"/>
  </g>
  <defs>
    <g id="sprite0" transform="matrix(1.0, 0.0, 0.0, 1.0, 0.5, 0.5)">
      <use height="24.4" transform="matrix(1.0, 0.0, 0.0, 1.0, -0.5, -0.5)" width="78.75" xlink:href="#shape0"/>
      <use height="23.5" transform="matrix(1.0, 0.0, 0.0, 1.0, 0.0, 0.0)" width="77.75" xlink:href="#sprite1"/>
    </g>
    <g id="shape0" transform="matrix(1.0, 0.0, 0.0, 1.0, 0.5, 0.5)">
      <path d="M70.2 7.0 L70.95 7.75 70.7 5.6 72.3 7.55 72.05 5.05 Q72.75 6.3 74.9 6.95 76.8 7.5 77.5 9.35 L76.4 11.25 75.3 12.2 Q74.45 12.7 73.5 12.7 L73.15 12.7 72.65 11.6 Q71.25 9.2 71.85 7.5 L69.85 9.85 70.2 7.0 69.85 9.85 71.85 7.5 Q71.25 9.2 72.65 11.6 L73.15 12.7 73.25 14.4 71.6 15.45 Q69.9 16.3 68.8 16.3 L68.6 16.3 69.25 14.45 68.6 16.3 Q66.5 16.2 64.6 14.5 L64.25 14.2 64.9 13.7 Q65.1 12.8 64.4 11.9 L63.3 13.05 Q62.45 11.75 62.15 10.2 63.25 8.6 65.45 8.25 66.55 8.15 68.6 6.3 L68.5 8.95 69.3 7.8 70.1 6.95 70.2 7.0 M0.3 4.9 L0.7 4.0 Q1.9 2.3 4.15 1.9 5.2 1.75 7.3 0.0 L7.2 2.6 Q7.95 1.35 8.85 0.5 L8.5 3.5 10.45 1.2 Q10.0 2.65 11.0 4.6 L11.6 4.65 Q12.7 4.8 15.2 3.6 L14.4 6.1 Q15.45 5.1 16.55 4.5 L15.45 7.35 17.95 5.6 17.55 6.65 Q17.4 7.05 17.4 7.55 16.6 8.7 14.75 9.8 12.45 11.1 10.9 11.1 9.5 11.1 8.35 10.4 7.2 9.7 6.3 8.35 L5.8 7.55 4.85 7.55 2.95 7.4 2.4 7.1 0.3 4.9 M20.85 13.35 L20.95 12.7 21.1 12.15 Q21.8 10.15 23.9 9.2 24.9 8.8 26.45 6.5 L27.0 9.1 Q27.4 7.7 28.05 6.65 L28.55 9.65 29.85 6.9 Q29.75 8.65 31.7 10.6 L32.4 11.5 Q32.0 12.65 30.25 14.0 L29.35 14.65 29.15 14.8 27.7 15.3 23.15 14.15 23.0 13.2 21.55 13.35 20.85 13.35 M36.4 12.8 Q37.1 11.25 38.55 10.55 L42.6 10.45 46.35 10.3 44.95 12.55 Q46.2 11.85 47.4 11.55 L45.6 14.05 48.45 13.0 Q47.5 13.9 47.3 15.75 L45.2 15.25 Q44.45 15.8 45.0 16.6 L46.35 17.05 45.3 17.7 42.7 17.9 42.55 17.9 42.7 17.9 42.6 17.9 42.55 17.9 Q39.25 17.9 37.75 16.3 L38.9 16.0 Q39.6 15.1 38.8 14.15 L36.8 14.8 Q36.45 13.9 36.4 12.8 M50.6 12.9 Q51.4 11.5 53.05 10.75 54.05 10.35 55.6 8.05 L56.15 10.65 Q56.55 9.25 57.2 8.2 L57.7 11.2 59.0 8.45 Q58.9 10.2 60.85 12.15 L61.25 12.6 Q61.3 11.8 61.65 11.05 L61.65 13.15 61.25 12.6 61.3 13.65 60.2 13.45 Q59.75 14.25 60.5 14.95 L60.8 15.0 Q59.9 16.15 58.3 16.55 L56.6 16.7 Q54.65 16.7 52.85 15.2 L50.6 12.9 M74.55 10.65 L75.3 12.2 74.55 10.65 M58.25 15.85 L58.3 16.55 58.25 15.85 M8.85 9.95 L8.35 10.4 8.85 9.95 M11.0 4.6 Q9.1 4.6 7.75 5.8 6.9 6.55 6.5 7.55 L6.3 8.35 6.5 7.55 Q6.9 6.55 7.75 5.8 9.1 4.6 11.0 4.6 M7.2 13.75 L6.9 14.0 6.05 14.1 5.25 14.0 4.9 13.75 5.25 13.45 6.05 13.35 6.9 13.45 7.2 13.75" fill="#fbffd5" fill-rule="evenodd" stroke="none"/>
      <path d="M77.5 9.35 L77.6 9.8 Q78.1 12.15 76.85 13.7 75.95 14.75 74.75 15.25 L73.6 15.6 72.95 15.7 72.95 15.65 72.9 15.7 72.5 16.45 Q70.9 18.9 68.5 19.15 L65.35 18.65 64.0 17.95 63.45 17.55 Q62.65 16.85 62.15 16.0 L61.95 16.85 Q61.1 19.65 58.8 20.5 L55.6 20.85 54.2 20.5 53.5 20.25 Q51.65 19.4 50.7 17.7 L50.35 17.05 52.15 16.6 Q52.75 15.7 52.1 14.75 L50.0 15.5 Q49.95 14.6 50.25 13.7 L50.6 12.9 52.85 15.2 Q54.65 16.7 56.6 16.7 L58.3 16.55 Q59.9 16.15 60.8 15.0 L61.7 15.1 62.15 16.0 62.2 15.05 63.95 14.4 64.25 14.2 64.6 14.5 Q66.5 16.2 68.6 16.3 L68.8 16.3 Q69.9 16.3 71.6 15.45 L73.25 14.4 73.15 12.7 73.5 12.7 Q74.45 12.7 75.3 12.2 L76.4 11.25 77.5 9.35 M47.2 17.2 Q47.0 19.7 44.65 21.05 42.05 22.4 39.85 21.35 38.3 20.6 37.3 19.4 L36.55 18.15 36.25 17.45 36.65 16.45 37.75 16.3 Q39.25 17.9 42.55 17.9 L42.6 17.9 42.7 17.9 45.3 17.7 46.35 17.05 47.2 17.2 M32.35 16.5 Q31.4 18.3 29.65 18.95 L26.45 19.3 25.05 18.95 24.35 18.7 Q22.5 17.85 21.55 16.15 L21.05 15.0 22.6 15.05 23.15 14.15 27.7 15.3 29.15 14.8 29.35 14.65 30.25 14.0 Q32.0 12.65 32.4 11.5 33.35 13.05 32.9 15.1 L30.85 14.6 Q29.75 15.2 30.65 16.1 L32.35 16.5 M16.65 14.0 L16.3 14.4 Q14.15 16.35 11.75 15.95 10.1 15.65 8.8 14.65 L7.75 13.65 7.3 13.1 7.3 12.7 7.2 12.7 7.05 12.75 Q5.4 12.85 4.0 12.25 L2.75 11.55 2.2 11.15 Q0.65 9.85 0.15 7.95 -0.25 6.3 0.3 4.9 L2.4 7.1 2.95 7.4 4.85 7.55 5.8 7.55 6.3 8.35 Q7.2 9.7 8.35 10.4 9.5 11.1 10.9 11.1 12.45 11.1 14.75 9.8 16.6 8.7 17.4 7.55 17.35 8.5 17.7 9.75 18.15 11.4 17.5 12.75 16.3 12.35 15.2 11.6 14.0 11.9 14.6 13.0 15.55 13.6 16.65 14.0 M35.9 15.0 L36.1 13.65 36.4 12.8 Q36.45 13.9 36.8 14.8 L35.9 15.0 M61.65 11.05 L62.0 10.35 62.15 10.2 Q62.45 11.75 63.3 13.05 L61.85 13.65 61.65 13.15 61.65 11.05 M65.35 18.65 Q67.6 18.05 68.6 16.3 67.6 18.05 65.35 18.65 M63.2 17.9 L63.55 18.05 63.35 18.45 62.55 18.75 61.75 18.85 61.3 18.65 61.6 18.3 62.35 18.0 63.2 17.9 M63.95 14.4 Q63.0 15.7 63.45 17.55 63.0 15.7 63.95 14.4 M65.15 19.3 L65.3 20.1 65.1 20.95 64.85 21.35 64.6 21.0 Q64.5 20.65 64.55 20.15 L64.65 19.35 64.9 19.0 65.15 19.3 M63.85 19.9 L63.05 20.5 62.5 20.45 Q62.3 20.3 62.45 19.95 L63.05 19.15 63.85 18.65 64.45 18.6 64.45 19.2 63.85 19.9 M76.1 17.05 L75.75 17.0 75.25 16.55 74.85 16.0 74.8 15.65 75.15 15.7 75.65 16.15 76.05 16.7 76.1 17.05 M73.15 16.15 L73.45 16.0 73.55 16.4 73.3 17.0 72.85 17.55 72.55 17.65 72.45 17.3 72.75 16.7 73.15 16.15 M73.95 16.1 L74.3 15.8 74.6 16.05 74.7 16.85 74.55 17.65 74.2 18.0 73.9 17.7 73.8 16.9 Q73.8 16.4 73.95 16.1 M75.3 12.2 Q75.65 13.65 74.75 15.25 75.65 13.65 75.3 12.2 M72.95 15.65 L73.25 14.4 72.95 15.65 M54.7 21.0 L54.85 21.55 54.5 22.4 53.85 23.2 53.3 23.3 Q53.1 23.2 53.15 22.8 L53.55 21.9 54.15 21.15 Q54.5 20.9 54.7 21.0 M55.35 21.2 L55.65 21.5 55.95 22.25 56.05 23.1 55.85 23.5 55.55 23.25 55.25 22.45 55.15 21.65 Q55.2 21.25 55.35 21.2 M53.8 20.7 L53.7 21.1 53.0 21.6 52.25 21.95 51.8 21.85 Q51.7 21.75 51.95 21.5 L52.6 20.95 53.4 20.65 53.8 20.7 M53.3 16.75 Q52.45 18.4 53.5 20.25 52.45 18.4 53.3 16.75 M55.6 20.85 Q58.3 19.35 58.3 16.55 58.3 19.35 55.6 20.85 M24.65 19.25 L24.55 19.65 23.85 20.15 23.1 20.5 Q22.7 20.55 22.65 20.4 22.55 20.3 22.8 20.05 L23.45 19.5 24.25 19.2 24.65 19.25 M24.45 20.45 L25.05 19.7 Q25.4 19.45 25.6 19.55 L25.75 20.1 25.4 20.95 24.75 21.75 24.2 21.85 24.05 21.35 24.45 20.45 M26.5 20.05 L26.8 20.8 26.9 21.65 26.7 22.05 26.4 21.8 26.1 21.0 26.0 20.2 Q26.0 19.8 26.15 19.75 L26.5 20.05 M29.15 14.8 Q29.2 17.75 26.45 19.3 29.2 17.75 29.15 14.8 M24.15 15.2 Q23.3 16.85 24.35 18.7 23.3 16.85 24.15 15.2 M35.7 18.25 L34.9 18.15 34.1 17.85 33.85 17.45 Q33.9 17.3 34.25 17.3 L35.1 17.4 35.85 17.7 36.1 18.05 35.7 18.25 M33.9 19.6 Q33.85 19.4 34.15 19.15 L35.05 18.8 36.0 18.75 Q36.45 18.8 36.5 19.0 L36.25 19.5 35.4 19.85 34.4 19.9 Q34.0 19.85 33.9 19.6 M36.8 19.95 L36.5 20.7 35.95 21.35 35.55 21.5 Q35.4 21.45 35.5 21.1 L35.85 20.35 36.35 19.7 Q36.65 19.45 36.8 19.5 L36.8 19.95 M2.2 11.15 Q1.65 9.1 2.95 7.4 1.65 9.1 2.2 11.15 M1.9 11.55 L2.25 11.75 2.05 12.05 1.25 12.45 0.45 12.5 0.05 12.35 Q0.0 12.2 0.3 12.0 L1.05 11.7 1.9 11.55 M3.15 12.3 Q3.35 12.45 3.15 12.8 L2.6 13.6 1.8 14.1 1.2 14.1 Q1.05 13.95 1.2 13.6 L1.8 12.85 2.55 12.3 Q3.0 12.15 3.15 12.3 M6.3 8.35 Q6.15 8.9 6.15 9.5 L6.35 11.05 Q5.45 11.8 4.0 12.25 5.45 11.8 6.35 11.05 L6.15 9.5 Q6.15 8.9 6.3 8.35 M8.45 15.3 L8.35 16.1 8.0 16.9 7.65 17.2 Q7.5 17.15 7.5 16.75 L7.65 15.95 7.95 15.15 Q8.2 14.9 8.35 14.95 L8.45 15.3 M7.75 15.0 L7.05 15.6 6.1 15.9 Q5.65 15.9 5.55 15.7 5.4 15.5 5.7 15.25 L6.45 14.65 Q6.95 14.35 7.35 14.35 L7.9 14.45 7.75 15.0 M6.35 11.05 L7.05 12.75 6.35 11.05 M4.0 13.8 L3.85 14.6 3.6 14.95 3.3 14.6 3.3 13.8 3.35 12.95 Q3.55 12.6 3.7 12.6 L3.9 12.95 4.0 13.8 M42.55 17.9 Q40.45 20.2 37.3 19.4 40.45 20.2 42.55 17.9 M8.35 10.4 Q7.4 11.25 7.3 12.7 7.4 11.25 8.35 10.4 M13.6 11.65 Q12.25 14.65 8.8 14.65 12.25 14.65 13.6 11.65" fill="#d5d9b6" fill-rule="evenodd" stroke="none"/>
      <path d="M50.35 17.05 L47.2 17.2 46.35 17.05 45.0 16.6 Q44.45 15.8 45.2 15.25 L47.3 15.75 47.75 15.75 48.0 15.75 50.0 15.5 52.1 14.75 Q52.75 15.7 52.15 16.6 L50.35 17.05 M36.0 16.55 Q34.05 16.75 32.35 16.5 L30.65 16.1 Q29.75 15.2 30.85 14.6 L32.9 15.1 35.9 15.0 36.8 14.8 38.8 14.15 Q39.6 15.1 38.9 16.0 L37.75 16.3 36.65 16.45 36.0 16.55 M21.05 15.0 Q18.6 14.8 16.65 14.0 15.55 13.6 14.6 13.0 14.0 11.9 15.2 11.6 16.3 12.35 17.5 12.75 L20.85 13.35 21.55 13.35 23.0 13.2 23.15 14.15 22.6 15.05 21.05 15.0 M63.3 13.05 L64.4 11.9 Q65.1 12.8 64.9 13.7 L64.25 14.2 63.95 14.4 62.2 15.05 61.7 15.1 60.8 15.0 60.5 14.95 Q59.75 14.25 60.2 13.45 L61.3 13.65 61.5 13.65 61.85 13.65 63.3 13.05" fill="#ffffff" fill-rule="evenodd" stroke="none"/>
      <path d="M70.2 7.0 L70.95 7.75 70.7 5.6 72.3 7.55 72.05 5.05 Q72.75 6.3 74.9 6.95 76.8 7.5 77.5 9.35 L77.6 9.8 Q78.1 12.15 76.85 13.7 75.95 14.75 74.75 15.25 L73.6 15.6 72.95 15.7 72.9 15.7 72.5 16.45 Q70.9 18.9 68.5 19.15 L65.35 18.65 64.0 17.95 63.45 17.55 Q62.65 16.85 62.15 16.0 L61.95 16.85 Q61.1 19.65 58.8 20.5 L55.6 20.85 54.2 20.5 53.5 20.25 Q51.65 19.4 50.7 17.7 L50.35 17.05 47.2 17.2 Q47.0 19.7 44.65 21.05 42.05 22.4 39.85 21.35 38.3 20.6 37.3 19.4 L36.55 18.15 36.25 17.45 36.0 16.55 Q34.05 16.75 32.35 16.5 31.4 18.3 29.65 18.95 L26.45 19.3 25.05 18.95 24.35 18.7 Q22.5 17.85 21.55 16.15 L21.05 15.0 Q18.6 14.8 16.65 14.0 L16.3 14.4 Q14.15 16.35 11.75 15.95 10.1 15.65 8.8 14.65 L7.75 13.65 7.3 13.1 7.05 12.75 Q5.4 12.85 4.0 12.25 L2.75 11.55 2.2 11.15 Q0.65 9.85 0.15 7.95 -0.25 6.3 0.3 4.9 L0.7 4.0 Q1.9 2.3 4.15 1.9 5.2 1.75 7.3 0.0 L7.2 2.6 Q7.95 1.35 8.85 0.5 L8.5 3.5 10.45 1.2 Q10.0 2.65 11.0 4.6 L11.6 4.65 Q12.7 4.8 15.2 3.6 L14.4 6.1 Q15.45 5.1 16.55 4.5 L15.45 7.35 17.95 5.6 17.55 6.65 M17.4 7.55 Q17.35 8.5 17.7 9.75 18.15 11.4 17.5 12.75 L20.85 13.35 20.95 12.7 21.1 12.15 Q21.8 10.15 23.9 9.2 24.9 8.8 26.45 6.5 L27.0 9.1 Q27.4 7.7 28.05 6.65 L28.55 9.65 29.85 6.9 Q29.75 8.65 31.7 10.6 L32.4 11.5 Q33.35 13.05 32.9 15.1 L35.9 15.0 36.1 13.65 36.4 12.8 Q37.1 11.25 38.55 10.55 L42.6 10.45 46.35 10.3 44.95 12.55 Q46.2 11.85 47.4 11.55 L45.6 14.05 48.45 13.0 Q47.5 13.9 47.3 15.75 L47.75 15.75 M48.0 15.75 L50.0 15.5 Q49.95 14.6 50.25 13.7 L50.6 12.9 Q51.4 11.5 53.05 10.75 54.05 10.35 55.6 8.05 L56.15 10.65 Q56.55 9.25 57.2 8.2 L57.7 11.2 59.0 8.45 Q58.9 10.2 60.85 12.15 L61.25 12.6 Q61.3 11.8 61.65 11.05 L62.0 10.35 62.15 10.2 Q63.25 8.6 65.45 8.25 66.55 8.15 68.6 6.3 L68.5 8.95 69.3 7.8 69.5 6.2 70.15 6.95 70.2 6.85 70.2 7.0 69.85 9.85 71.85 7.5 Q71.25 9.2 72.65 11.6 L73.15 12.7 73.25 14.4 72.95 15.65 72.9 15.7 M70.1 6.95 L69.3 7.8 M75.3 12.2 L74.55 10.65 M70.2 7.0 L70.15 6.95 70.1 6.95 M68.6 16.3 L69.25 14.45 M64.25 14.2 L64.9 13.7 Q65.1 12.8 64.4 11.9 L63.3 13.05 61.85 13.65 61.5 13.65 61.3 13.65 60.2 13.45 Q59.75 14.25 60.5 14.95 L60.8 15.0 61.7 15.1 62.2 15.05 63.95 14.4 64.25 14.2 M68.6 16.3 Q67.6 18.05 65.35 18.65 M61.65 13.15 L61.25 12.6 61.3 13.65 M61.85 13.65 L61.65 13.15 M63.45 17.55 Q63.0 15.7 63.95 14.4 M62.2 15.05 L62.15 16.0 61.7 15.1 M63.85 19.9 L63.05 20.5 62.5 20.45 Q62.3 20.3 62.45 19.95 L63.05 19.15 63.85 18.65 64.45 18.6 64.45 19.2 63.85 19.9 M73.95 16.1 L74.3 15.8 74.6 16.05 74.7 16.85 74.55 17.65 74.2 18.0 73.9 17.7 73.8 16.9 Q73.8 16.4 73.95 16.1 M74.75 15.25 Q75.65 13.65 75.3 12.2 M46.35 17.05 L47.2 17.2 M46.35 17.05 L45.0 16.6 Q44.45 15.8 45.2 15.25 L47.3 15.75 M42.7 17.9 L42.55 17.9 Q40.45 20.2 37.3 19.4 M58.3 16.55 L58.25 15.85 M50.35 17.05 L52.15 16.6 Q52.75 15.7 52.1 14.75 L50.0 15.5 M54.7 21.0 L54.85 21.55 54.5 22.4 53.85 23.2 53.3 23.3 Q53.1 23.2 53.15 22.8 L53.55 21.9 54.15 21.15 Q54.5 20.9 54.7 21.0 M58.3 16.55 Q58.3 19.35 55.6 20.85 M53.5 20.25 Q52.45 18.4 53.3 16.75 M21.05 15.0 L22.6 15.05 23.15 14.15 23.0 13.2 21.55 13.35 20.85 13.35 M24.45 20.45 L25.05 19.7 Q25.4 19.45 25.6 19.55 L25.75 20.1 25.4 20.95 24.75 21.75 24.2 21.85 24.05 21.35 24.45 20.45 M24.35 18.7 Q23.3 16.85 24.15 15.2 M26.45 19.3 Q29.2 17.75 29.15 14.8 M35.9 15.0 L36.8 14.8 38.8 14.15 Q39.6 15.1 38.9 16.0 L37.75 16.3 36.65 16.45 36.0 16.55 M36.25 17.45 L36.65 16.45 M32.35 16.5 L30.65 16.1 Q29.75 15.2 30.85 14.6 L32.9 15.1 M33.9 19.6 Q33.85 19.4 34.15 19.15 L35.05 18.8 36.0 18.75 Q36.45 18.8 36.5 19.0 L36.25 19.5 35.4 19.85 34.4 19.9 Q34.0 19.85 33.9 19.6 M2.95 7.4 Q1.65 9.1 2.2 11.15 M3.15 12.3 Q3.35 12.45 3.15 12.8 L2.6 13.6 1.8 14.1 1.2 14.1 Q1.05 13.95 1.2 13.6 L1.8 12.85 2.55 12.3 Q3.0 12.15 3.15 12.3 M8.35 10.4 L8.85 9.95 M4.0 12.25 Q5.45 11.8 6.35 11.05 L6.15 9.5 Q6.15 8.9 6.3 8.35 L6.5 7.55 Q6.9 6.55 7.75 5.8 9.1 4.6 11.0 4.6 M7.75 15.0 L7.05 15.6 6.1 15.9 Q5.65 15.9 5.55 15.7 5.4 15.5 5.7 15.25 L6.45 14.65 Q6.95 14.35 7.35 14.35 L7.9 14.45 7.75 15.0 M7.3 13.1 L7.3 12.7 7.2 12.7 7.05 12.75 6.35 11.05 M16.65 14.0 Q15.55 13.6 14.6 13.0 14.0 11.9 15.2 11.6 16.3 12.35 17.5 12.75 M8.8 14.65 Q12.25 14.65 13.6 11.65 M7.3 12.7 Q7.4 11.25 8.35 10.4" fill="none" stroke="#000000" stroke-linecap="round" stroke-linejoin="round" stroke-opacity="0.6627451" stroke-width="1.0"/>
      <path d="M63.2 17.9 L63.55 18.05 63.35 18.45 62.55 18.75 61.75 18.85 61.3 18.65 61.6 18.3 62.35 18.0 63.2 17.9 M73.15 16.15 L73.45 16.0 73.55 16.4 73.3 17.0 72.85 17.55 72.55 17.65 72.45 17.3 72.75 16.7 73.15 16.15 M53.8 20.7 L53.7 21.1 53.0 21.6 52.25 21.95 51.8 21.85 Q51.7 21.75 51.95 21.5 L52.6 20.95 53.4 20.65 53.8 20.7 M24.65 19.25 L24.55 19.65 23.85 20.15 23.1 20.5 Q22.7 20.55 22.65 20.4 22.55 20.3 22.8 20.05 L23.45 19.5 24.25 19.2 24.65 19.25 M35.7 18.25 L34.9 18.15 34.1 17.85 33.85 17.45 Q33.9 17.3 34.25 17.3 L35.1 17.4 35.85 17.7 36.1 18.05 35.7 18.25 M1.9 11.55 L2.25 11.75 2.05 12.05 1.25 12.45 0.45 12.5 0.05 12.35 Q0.0 12.2 0.3 12.0 L1.05 11.7 1.9 11.55 M7.2 13.75 L6.9 14.0 6.05 14.1 5.25 14.0 4.9 13.75 5.25 13.45 6.05 13.35 6.9 13.45 7.2 13.75" fill="none" stroke="#000000" stroke-linecap="round" stroke-linejoin="round" stroke-opacity="0.6627451" stroke-width="0.9"/>
      <path d="M65.15 19.3 L65.3 20.1 65.1 20.95 64.85 21.35 64.6 21.0 Q64.5 20.65 64.55 20.15 L64.65 19.35 64.9 19.0 65.15 19.3 M76.1 17.05 L75.75 17.0 75.25 16.55 74.85 16.0 74.8 15.65 75.15 15.7 75.65 16.15 76.05 16.7 76.1 17.05 M55.35 21.2 L55.65 21.5 55.95 22.25 56.05 23.1 55.85 23.5 55.55 23.25 55.25 22.45 55.15 21.65 Q55.2 21.25 55.35 21.2 M26.5 20.05 L26.8 20.8 26.9 21.65 26.7 22.05 26.4 21.8 26.1 21.0 26.0 20.2 Q26.0 19.8 26.15 19.75 L26.5 20.05 M36.8 19.95 L36.5 20.7 35.95 21.35 35.55 21.5 Q35.4 21.45 35.5 21.1 L35.85 20.35 36.35 19.7 Q36.65 19.45 36.8 19.5 L36.8 19.95 M8.45 15.3 L8.35 16.1 8.0 16.9 7.65 17.2 Q7.5 17.15 7.5 16.75 L7.65 15.95 7.95 15.15 Q8.2 14.9 8.35 14.95 L8.45 15.3 M4.0 13.8 L3.85 14.6 3.6 14.95 3.3 14.6 3.3 13.8 3.35 12.95 Q3.55 12.6 3.7 12.6 L3.9 12.95 4.0 13.8" fill="none" stroke="#000000" stroke-linecap="round" stroke-linejoin="round" stroke-opacity="0.6627451" stroke-width="0.8"/>
    </g>
    <g id="sprite1" transform="matrix(1.0, 0.0, 0.0, 1.0, 0.0, 0.0)">
      <use height="23.5" transform="matrix(1.0, 0.0, 0.0, 1.0, 0.0, 0.0)" width="77.75" xlink:href="#shape1"/>
    </g>
    <g id="shape1" transform="matrix(1.0, 0.0, 0.0, 1.0, 0.0, 0.0)">
      <path d="M62.35 18.0 L63.2 17.9 63.55 18.05 63.35 18.45 62.55 18.75 61.75 18.85 61.3 18.65 61.6 18.3 62.35 18.0" fill="url(#gradient0)" fill-rule="evenodd" stroke="none"/>
      <path d="M64.9 19.0 L65.15 19.3 65.3 20.1 65.1 20.95 64.85 21.35 64.6 21.0 Q64.5 20.65 64.55 20.15 L64.65 19.35 64.9 19.0" fill="url(#gradient1)" fill-rule="evenodd" stroke="none"/>
      <path d="M64.45 19.2 L63.85 19.9 63.05 20.5 62.5 20.45 Q62.3 20.3 62.45 19.95 L63.05 19.15 63.85 18.65 64.45 18.6 64.45 19.2" fill="url(#gradient2)" fill-rule="evenodd" stroke="none"/>
      <path d="M76.1 17.05 L75.75 17.0 75.25 16.55 74.85 16.0 74.8 15.65 75.15 15.7 75.65 16.15 76.05 16.7 76.1 17.05" fill="url(#gradient3)" fill-rule="evenodd" stroke="none"/>
      <path d="M73.15 16.15 L73.45 16.0 73.55 16.4 73.3 17.0 72.85 17.55 72.55 17.65 72.45 17.3 72.75 16.7 73.15 16.15" fill="url(#gradient4)" fill-rule="evenodd" stroke="none"/>
      <path d="M73.95 16.1 L74.3 15.8 74.6 16.05 74.7 16.85 74.55 17.65 74.2 18.0 73.9 17.7 73.8 16.9 Q73.8 16.4 73.95 16.1" fill="url(#gradient5)" fill-rule="evenodd" stroke="none"/>
      <path d="M54.85 21.55 L54.5 22.4 53.85 23.2 53.3 23.3 Q53.1 23.2 53.15 22.8 L53.55 21.9 54.15 21.15 Q54.5 20.9 54.7 21.0 L54.85 21.55" fill="url(#gradient6)" fill-rule="evenodd" stroke="none"/>
      <path d="M55.35 21.2 L55.65 21.5 55.95 22.25 56.05 23.1 55.85 23.5 55.55 23.25 55.25 22.45 55.15 21.65 Q55.2 21.25 55.35 21.2" fill="url(#gradient7)" fill-rule="evenodd" stroke="none"/>
      <path d="M53.8 20.7 L53.7 21.1 53.0 21.6 52.25 21.95 51.8 21.85 Q51.7 21.75 51.95 21.5 L52.6 20.95 53.4 20.65 53.8 20.7" fill="url(#gradient8)" fill-rule="evenodd" stroke="none"/>
      <path d="M24.55 19.65 L23.85 20.15 23.1 20.5 Q22.7 20.55 22.65 20.4 22.55 20.3 22.8 20.05 L23.45 19.5 24.25 19.2 24.65 19.25 24.55 19.65" fill="url(#gradient9)" fill-rule="evenodd" stroke="none"/>
      <path d="M24.45 20.45 L25.05 19.7 Q25.4 19.45 25.6 19.55 L25.75 20.1 25.4 20.95 24.75 21.75 24.2 21.85 24.05 21.35 24.45 20.45" fill="url(#gradient10)" fill-rule="evenodd" stroke="none"/>
      <path d="M26.5 20.05 L26.8 20.8 26.9 21.65 26.7 22.05 26.4 21.8 26.1 21.0 26.0 20.2 Q26.0 19.8 26.15 19.75 L26.5 20.05" fill="url(#gradient11)" fill-rule="evenodd" stroke="none"/>
      <path d="M35.7 18.25 L34.9 18.15 34.1 17.85 33.85 17.45 Q33.9 17.3 34.25 17.3 L35.1 17.4 35.85 17.7 36.1 18.05 35.7 18.25" fill="url(#gradient12)" fill-rule="evenodd" stroke="none"/>
      <path d="M34.15 19.15 L35.05 18.8 36.0 18.75 Q36.45 18.8 36.5 19.0 L36.25 19.5 35.4 19.85 34.4 19.9 Q34.0 19.85 33.9 19.6 33.85 19.4 34.15 19.15" fill="url(#gradient13)" fill-rule="evenodd" stroke="none"/>
      <path d="M36.8 19.95 L36.5 20.7 35.95 21.35 35.55 21.5 Q35.4 21.45 35.5 21.1 L35.85 20.35 36.35 19.7 Q36.65 19.45 36.8 19.5 L36.8 19.95" fill="url(#gradient14)" fill-rule="evenodd" stroke="none"/>
      <path d="M1.9 11.55 L2.25 11.75 2.05 12.05 1.25 12.45 0.45 12.5 0.05 12.35 Q0.0 12.2 0.3 12.0 L1.05 11.7 1.9 11.55" fill="url(#gradient15)" fill-rule="evenodd" stroke="none"/>
      <path d="M3.15 12.3 Q3.35 12.45 3.15 12.8 L2.6 13.6 1.8 14.1 1.2 14.1 Q1.05 13.95 1.2 13.6 L1.8 12.85 2.55 12.3 Q3.0 12.15 3.15 12.3" fill="url(#gradient16)" fill-rule="evenodd" stroke="none"/>
      <path d="M8.35 14.95 L8.45 15.3 8.35 16.1 8.0 16.9 7.65 17.2 Q7.5 17.15 7.5 16.75 L7.65 15.95 7.95 15.15 Q8.2 14.9 8.35 14.95" fill="url(#gradient17)" fill-rule="evenodd" stroke="none"/>
      <path d="M7.75 15.0 L7.05 15.6 6.1 15.9 Q5.65 15.9 5.55 15.7 5.4 15.5 5.7 15.25 L6.45 14.65 Q6.95 14.35 7.35 14.35 L7.9 14.45 7.75 15.0" fill="url(#gradient18)" fill-rule="evenodd" stroke="none"/>
      <path d="M7.2 13.75 L6.9 14.0 6.05 14.1 5.25 14.0 4.9 13.75 5.25 13.45 6.05 13.35 6.9 13.45 7.2 13.75" fill="url(#gradient19)" fill-rule="evenodd" stroke="none"/>
      <path d="M4.0 13.8 L3.85 14.6 3.6 14.95 3.3 14.6 3.3 13.8 3.35 12.95 Q3.55 12.6 3.7 12.6 L3.9 12.95 4.0 13.8" fill="url(#gradient20)" fill-rule="evenodd" stroke="none"/>
      <path d="M7.05 12.75 Q5.4 12.85 4.0 12.25 L2.75 11.55 2.2 11.15 Q0.65 9.85 0.15 7.95 -0.25 6.3 0.3 4.9 L0.7 4.0 Q1.9 2.3 4.15 1.9 5.2 1.75 7.3 0.0 L7.2 2.6 Q7.95 1.35 8.85 0.5 L8.5 3.5 10.45 1.2 Q10.0 2.65 11.0 4.6 9.1 4.6 7.75 5.8 6.9 6.55 6.5 7.55 L6.3 8.35 Q6.15 8.9 6.15 9.5 L6.35 11.05 7.05 12.75" fill="url(#gradient21)" fill-rule="evenodd" stroke="none"/>
      <path d="M16.65 14.0 L16.3 14.4 Q14.15 16.35 11.75 15.95 10.1 15.65 8.8 14.65 L7.75 13.65 7.3 13.1 7.3 12.7 7.2 12.7 7.05 12.75 6.35 11.05 6.15 9.5 Q6.15 8.9 6.3 8.35 L6.5 7.55 Q6.9 6.55 7.75 5.8 9.1 4.6 11.0 4.6 L11.6 4.65 Q12.7 4.8 15.2 3.6 L14.4 6.1 Q15.45 5.1 16.55 4.5 L15.45 7.35 17.95 5.6 17.55 6.65 Q17.4 7.05 17.4 7.55 17.35 8.5 17.7 9.75 18.15 11.4 17.5 12.75 16.3 12.35 15.2 11.6 14.0 11.9 14.6 13.0 15.55 13.6 16.65 14.0" fill="url(#gradient22)" fill-rule="evenodd" stroke="none"/>
      <path d="M32.35 16.5 Q31.4 18.3 29.65 18.95 L26.45 19.3 25.05 18.95 24.35 18.7 Q22.5 17.85 21.55 16.15 L21.05 15.0 22.6 15.05 23.15 14.15 23.0 13.2 21.55 13.35 20.85 13.35 20.95 12.7 21.1 12.15 Q21.8 10.15 23.9 9.2 24.9 8.8 26.45 6.5 L27.0 9.1 Q27.4 7.7 28.05 6.65 L28.55 9.65 29.85 6.9 Q29.75 8.65 31.7 10.6 L32.4 11.5 Q33.35 13.05 32.9 15.1 L30.85 14.6 Q29.75 15.2 30.65 16.1 L32.35 16.5" fill="url(#gradient23)" fill-rule="evenodd" stroke="none"/>
      <path d="M21.05 15.0 Q18.6 14.8 16.65 14.0 15.55 13.6 14.6 13.0 14.0 11.9 15.2 11.6 16.3 12.35 17.5 12.75 L20.85 13.35 21.55 13.35 23.0 13.2 23.15 14.15 22.6 15.05 21.05 15.0" fill="url(#gradient24)" fill-rule="evenodd" stroke="none"/>
      <path d="M36.65 16.45 L36.0 16.55 Q34.05 16.75 32.35 16.5 L30.65 16.1 Q29.75 15.2 30.85 14.6 L32.9 15.1 35.9 15.0 36.8 14.8 38.8 14.15 Q39.6 15.1 38.9 16.0 L37.75 16.3 36.65 16.45" fill="url(#gradient25)" fill-rule="evenodd" stroke="none"/>
      <path d="M50.35 17.05 L47.2 17.2 46.35 17.05 45.0 16.6 Q44.45 15.8 45.2 15.25 L47.3 15.75 47.75 15.75 48.0 15.75 50.0 15.5 52.1 14.75 Q52.75 15.7 52.15 16.6 L50.35 17.05" fill="url(#gradient26)" fill-rule="evenodd" stroke="none"/>
      <path d="M47.2 17.2 Q47.0 19.7 44.65 21.05 42.05 22.4 39.85 21.35 38.3 20.6 37.3 19.4 L36.55 18.15 36.25 17.45 36.65 16.45 37.75 16.3 38.9 16.0 Q39.6 15.1 38.8 14.15 L36.8 14.8 35.9 15.0 36.1 13.65 36.4 12.8 Q37.1 11.25 38.55 10.55 L42.6 10.45 46.35 10.3 44.95 12.55 Q46.2 11.85 47.4 11.55 L45.6 14.05 48.45 13.0 Q47.5 13.9 47.3 15.75 L45.2 15.25 Q44.45 15.8 45.0 16.6 L46.35 17.05 47.2 17.2" fill="url(#gradient27)" fill-rule="evenodd" stroke="none"/>
      <path d="M61.25 12.6 L61.65 13.15 61.85 13.65 61.5 13.65 61.3 13.65 60.2 13.45 Q59.75 14.25 60.5 14.95 L60.8 15.0 61.7 15.1 62.2 15.05 62.15 16.0 61.95 16.85 Q61.1 19.65 58.8 20.5 L55.6 20.85 54.2 20.5 53.5 20.25 Q51.65 19.4 50.7 17.7 L50.35 17.05 52.15 16.6 Q52.75 15.7 52.1 14.75 L50.0 15.5 Q49.95 14.6 50.25 13.7 L50.6 12.9 Q51.4 11.5 53.05 10.75 54.05 10.35 55.6 8.05 L56.15 10.65 Q56.55 9.25 57.2 8.2 L57.7 11.2 59.0 8.45 Q58.9 10.2 60.85 12.15 L61.25 12.6" fill="url(#gradient28)" fill-rule="evenodd" stroke="none"/>
      <path d="M70.2 7.0 L69.85 9.85 71.85 7.5 Q71.25 9.2 72.65 11.6 L73.15 12.7 73.25 14.4 72.95 15.65 72.9 15.7 72.5 16.45 Q70.9 18.9 68.5 19.15 L65.35 18.65 64.0 17.95 63.45 17.55 Q62.65 16.85 62.15 16.0 L62.2 15.05 63.95 14.4 64.25 14.2 64.9 13.7 Q65.1 12.8 64.4 11.9 L63.3 13.05 61.85 13.65 61.65 13.15 61.25 12.6 Q61.3 11.8 61.65 11.05 L62.0 10.35 62.15 10.2 Q63.25 8.6 65.45 8.25 66.55 8.15 68.6 6.3 L68.5 8.95 69.3 7.8 70.1 6.95 70.2 7.0" fill="url(#gradient29)" fill-rule="evenodd" stroke="none"/>
      <path d="M61.85 13.65 L63.3 13.05 64.4 11.9 Q65.1 12.8 64.9 13.7 L64.25 14.2 63.95 14.4 62.2 15.05 61.7 15.1 60.8 15.0 60.5 14.95 Q59.75 14.25 60.2 13.45 L61.3 13.65 61.5 13.65 61.85 13.65" fill="url(#gradient30)" fill-rule="evenodd" stroke="none"/>
      <path d="M72.95 15.65 L73.25 14.4 73.15 12.7 72.65 11.6 Q71.25 9.2 71.85 7.5 L69.85 9.85 70.2 7.0 70.95 7.75 70.7 5.6 72.3 7.55 72.05 5.05 Q72.75 6.3 74.9 6.95 76.8 7.5 77.5 9.35 L77.6 9.8 Q78.1 12.15 76.85 13.7 75.95 14.75 74.75 15.25 L73.6 15.6 72.95 15.7 72.95 15.65" fill="url(#gradient31)" fill-rule="evenodd" stroke="none"/>
    </g>
    <linearGradient gradientTransform="matrix(0.0014, 0.0, 0.0, 6.0E-4, 62.4, 18.35)" gradientUnits="userSpaceOnUse" id="gradient0" spreadMethod="pad" x1="-819.2" x2="819.2">
      <stop offset="0.0" stop-color="#000000"/>
      <stop offset="1.0" stop-color="#ffffff"/>
    </linearGradient>
    <linearGradient gradientTransform="matrix(5.0E-4, 0.0, 0.0, 0.0014, 64.9, 20.15)" gradientUnits="userSpaceOnUse" id="gradient1" spreadMethod="pad" x1="-819.2" x2="819.2">
      <stop offset="0.0" stop-color="#000000"/>
      <stop offset="1.0" stop-color="#ffffff"/>
    </linearGradient>
    <linearGradient gradientTransform="matrix(0.0013, 0.0, 0.0, 0.0012, 63.45, 19.55)" gradientUnits="userSpaceOnUse" id="gradient2" spreadMethod="pad" x1="-819.2" x2="819.2">
      <stop offset="0.0" stop-color="#000000"/>
      <stop offset="1.0" stop-color="#ffffff"/>
    </linearGradient>
    <linearGradient gradientTransform="matrix(9.0E-4, 0.0, 0.0, 9.0E-4, 75.45, 16.35)" gradientUnits="userSpaceOnUse" id="gradient3" spreadMethod="pad" x1="-819.2" x2="819.2">
      <stop offset="0.0" stop-color="#000000"/>
      <stop offset="1.0" stop-color="#ffffff"/>
    </linearGradient>
    <linearGradient gradientTransform="matrix(7.0E-4, 0.0, 0.0, 0.001, 73.0, 16.85)" gradientUnits="userSpaceOnUse" id="gradient4" spreadMethod="pad" x1="-819.2" x2="819.2">
      <stop offset="0.0" stop-color="#000000"/>
      <stop offset="1.0" stop-color="#ffffff"/>
    </linearGradient>
    <linearGradient gradientTransform="matrix(5.0E-4, 0.0, 0.0, 0.0013, 74.25, 16.9)" gradientUnits="userSpaceOnUse" id="gradient5" spreadMethod="pad" x1="-819.2" x2="819.2">
      <stop offset="0.0" stop-color="#000000"/>
      <stop offset="1.0" stop-color="#ffffff"/>
    </linearGradient>
    <linearGradient gradientTransform="matrix(0.001, 0.0, 0.0, 0.0015, 54.0, 22.15)" gradientUnits="userSpaceOnUse" id="gradient6" spreadMethod="pad" x1="-819.2" x2="819.2">
      <stop offset="0.0" stop-color="#000000"/>
      <stop offset="1.0" stop-color="#ffffff"/>
    </linearGradient>
    <linearGradient gradientTransform="matrix(5.0E-4, 0.0, 0.0, 0.0014, 55.6, 22.35)" gradientUnits="userSpaceOnUse" id="gradient7" spreadMethod="pad" x1="-819.2" x2="819.2">
      <stop offset="0.0" stop-color="#000000"/>
      <stop offset="1.0" stop-color="#ffffff"/>
    </linearGradient>
    <linearGradient gradientTransform="matrix(0.0013, 0.0, 0.0, 8.0E-4, 52.75, 21.3)" gradientUnits="userSpaceOnUse" id="gradient8" spreadMethod="pad" x1="-819.2" x2="819.2">
      <stop offset="0.0" stop-color="#000000"/>
      <stop offset="1.0" stop-color="#ffffff"/>
    </linearGradient>
    <linearGradient gradientTransform="matrix(0.0013, 0.0, 0.0, 8.0E-4, 23.6, 19.85)" gradientUnits="userSpaceOnUse" id="gradient9" spreadMethod="pad" x1="-819.2" x2="819.2">
      <stop offset="0.0" stop-color="#000000"/>
      <stop offset="1.0" stop-color="#ffffff"/>
    </linearGradient>
    <linearGradient gradientTransform="matrix(0.001, 0.0, 0.0, 0.0015, 24.9, 20.7)" gradientUnits="userSpaceOnUse" id="gradient10" spreadMethod="pad" x1="-819.2" x2="819.2">
      <stop offset="0.0" stop-color="#000000"/>
      <stop offset="1.0" stop-color="#ffffff"/>
    </linearGradient>
    <linearGradient gradientTransform="matrix(5.0E-4, 0.0, 0.0, 0.0014, 26.45, 20.9)" gradientUnits="userSpaceOnUse" id="gradient11" spreadMethod="pad" x1="-819.2" x2="819.2">
      <stop offset="0.0" stop-color="#000000"/>
      <stop offset="1.0" stop-color="#ffffff"/>
    </linearGradient>
    <linearGradient gradientTransform="matrix(0.0014, 0.0, 0.0, 6.0E-4, 34.95, 17.75)" gradientUnits="userSpaceOnUse" id="gradient12" spreadMethod="pad" x1="-819.2" x2="819.2">
      <stop offset="0.0" stop-color="#000000"/>
      <stop offset="1.0" stop-color="#ffffff"/>
    </linearGradient>
    <linearGradient gradientTransform="matrix(0.0016, 0.0, 0.0, 8.0E-4, 35.2, 19.3)" gradientUnits="userSpaceOnUse" id="gradient13" spreadMethod="pad" x1="-819.2" x2="819.2">
      <stop offset="0.0" stop-color="#000000"/>
      <stop offset="1.0" stop-color="#ffffff"/>
    </linearGradient>
    <linearGradient gradientTransform="matrix(9.0E-4, 0.0, 0.0, 0.0013, 36.15, 20.5)" gradientUnits="userSpaceOnUse" id="gradient14" spreadMethod="pad" x1="-819.2" x2="819.2">
      <stop offset="0.0" stop-color="#000000"/>
      <stop offset="1.0" stop-color="#ffffff"/>
    </linearGradient>
    <linearGradient gradientTransform="matrix(0.0013, 0.0, 0.0, 6.0E-4, 1.15, 12.0)" gradientUnits="userSpaceOnUse" id="gradient15" spreadMethod="pad" x1="-819.2" x2="819.2">
      <stop offset="0.0" stop-color="#000000"/>
      <stop offset="1.0" stop-color="#ffffff"/>
    </linearGradient>
    <linearGradient gradientTransform="matrix(0.0013, 0.0, 0.0, 0.0012, 2.15, 13.15)" gradientUnits="userSpaceOnUse" id="gradient16" spreadMethod="pad" x1="-819.2" x2="819.2">
      <stop offset="0.0" stop-color="#000000"/>
      <stop offset="1.0" stop-color="#ffffff"/>
    </linearGradient>
    <linearGradient gradientTransform="matrix(6.0E-4, 0.0, 0.0, 0.0014, 7.95, 16.05)" gradientUnits="userSpaceOnUse" id="gradient17" spreadMethod="pad" x1="-819.2" x2="819.2">
      <stop offset="0.0" stop-color="#000000"/>
      <stop offset="1.0" stop-color="#ffffff"/>
    </linearGradient>
    <linearGradient gradientTransform="matrix(0.0015, 0.0, 0.0, 0.001, 6.7, 15.1)" gradientUnits="userSpaceOnUse" id="gradient18" spreadMethod="pad" x1="-819.2" x2="819.2">
      <stop offset="0.0" stop-color="#000000"/>
      <stop offset="1.0" stop-color="#ffffff"/>
    </linearGradient>
    <linearGradient gradientTransform="matrix(0.0014, 0.0, 0.0, 5.0E-4, 6.05, 13.7)" gradientUnits="userSpaceOnUse" id="gradient19" spreadMethod="pad" x1="-819.2" x2="819.2">
      <stop offset="0.0" stop-color="#000000"/>
      <stop offset="1.0" stop-color="#ffffff"/>
    </linearGradient>
    <linearGradient gradientTransform="matrix(4.0E-4, 0.0, 0.0, 0.0014, 3.65, 13.75)" gradientUnits="userSpaceOnUse" id="gradient20" spreadMethod="pad" x1="-819.2" x2="819.2">
      <stop offset="0.0" stop-color="#000000"/>
      <stop offset="1.0" stop-color="#ffffff"/>
    </linearGradient>
    <linearGradient gradientTransform="matrix(0.0, -0.0194, 0.0078, 0.0, 5.45, 6.4)" gradientUnits="userSpaceOnUse" id="gradient21" spreadMethod="pad" x1="-819.2" x2="819.2">
      <stop offset="0.0" stop-color="#000000"/>
      <stop offset="1.0" stop-color="#ffffff"/>
    </linearGradient>
    <linearGradient gradientTransform="matrix(-0.0053, -0.0197, 0.0073, -0.002, 12.05, 9.8)" gradientUnits="userSpaceOnUse" id="gradient22" spreadMethod="pad" x1="-819.2" x2="819.2">
      <stop offset="0.0" stop-color="#000000"/>
      <stop offset="1.0" stop-color="#ffffff"/>
    </linearGradient>
    <linearGradient gradientTransform="matrix(-0.008, -0.0139, 0.0068, -0.0039, 26.95, 13.0)" gradientUnits="userSpaceOnUse" id="gradient23" spreadMethod="pad" x1="-819.2" x2="819.2">
      <stop offset="0.0" stop-color="#000000"/>
      <stop offset="1.0" stop-color="#ffffff"/>
    </linearGradient>
    <linearGradient gradientTransform="matrix(0.0157, 0.0, 0.0, 0.0021, 18.75, 13.3)" gradientUnits="userSpaceOnUse" id="gradient24" spreadMethod="pad" x1="-819.2" x2="819.2">
      <stop offset="0.0" stop-color="#000000"/>
      <stop offset="1.0" stop-color="#ffffff"/>
    </linearGradient>
    <linearGradient gradientTransform="matrix(0.0113, 0.0, 0.0, 0.0015, 34.75, 15.4)" gradientUnits="userSpaceOnUse" id="gradient25" spreadMethod="pad" x1="-819.2" x2="819.2">
      <stop offset="0.0" stop-color="#000000"/>
      <stop offset="1.0" stop-color="#ffffff"/>
    </linearGradient>
    <linearGradient gradientTransform="matrix(0.0088, 0.0, 0.0, 0.0015, 48.6, 16.0)" gradientUnits="userSpaceOnUse" id="gradient26" spreadMethod="pad" x1="-819.2" x2="819.2">
      <stop offset="0.0" stop-color="#000000"/>
      <stop offset="1.0" stop-color="#ffffff"/>
    </linearGradient>
    <linearGradient gradientTransform="matrix(0.0035, -0.013, 0.0069, 0.0019, 42.1, 15.9)" gradientUnits="userSpaceOnUse" id="gradient27" spreadMethod="pad" x1="-819.2" x2="819.2">
      <stop offset="0.0" stop-color="#000000"/>
      <stop offset="1.0" stop-color="#ffffff"/>
    </linearGradient>
    <linearGradient gradientTransform="matrix(-0.0047, -0.0176, 0.0076, -0.002, 56.05, 14.5)" gradientUnits="userSpaceOnUse" id="gradient28" spreadMethod="pad" x1="-819.2" x2="819.2">
      <stop offset="0.0" stop-color="#000000"/>
      <stop offset="1.0" stop-color="#ffffff"/>
    </linearGradient>
    <linearGradient gradientTransform="matrix(-0.0075, -0.0129, 0.0068, -0.0039, 67.25, 12.8)" gradientUnits="userSpaceOnUse" id="gradient29" spreadMethod="pad" x1="-819.2" x2="819.2">
      <stop offset="0.0" stop-color="#000000"/>
      <stop offset="1.0" stop-color="#ffffff"/>
    </linearGradient>
    <linearGradient gradientTransform="matrix(0.0106, 0.0, 0.0, 0.002, 62.5, 13.5)" gradientUnits="userSpaceOnUse" id="gradient30" spreadMethod="pad" x1="-819.2" x2="819.2">
      <stop offset="0.0" stop-color="#000000"/>
      <stop offset="1.0" stop-color="#ffffff"/>
    </linearGradient>
    <linearGradient gradientTransform="matrix(0.0065, -0.0065, 0.0046, 0.0046, 73.75, 10.35)" gradientUnits="userSpaceOnUse" id="gradient31" spreadMethod="pad" x1="-819.2" x2="819.2">
      <stop offset="0.0" stop-color="#000000"/>
      <stop offset="1.0" stop-color="#ffffff"/>
    </linearGradient>
  </defs>
</svg>
