<?xml version="1.0" encoding="UTF-8" standalone="no"?>
<svg xmlns:xlink="http://www.w3.org/1999/xlink" height="531.5px" width="460.6px" xmlns="http://www.w3.org/2000/svg">
  <g transform="matrix(1.0, 0.0, 0.0, 1.0, 193.65, 334.05)">
    <use height="76.1" transform="matrix(1.0, 0.0, 0.0, 1.0, -144.8, -24.0)" width="249.6" xlink:href="#shape0"/>
    <use height="63.35" transform="matrix(1.186, 0.0, 0.0, 1.186, -144.2965, -23.488)" width="209.6" xlink:href="#sprite0"/>
    <use height="93.75" transform="matrix(1.0, 0.0, 0.0, 1.0, -69.6, -58.1)" width="64.6" xlink:href="#shape2"/>
  </g>
  <defs>
    <g id="shape0" transform="matrix(1.0, 0.0, 0.0, 1.0, 144.8, 24.0)">
      <path d="M27.5 -12.65 Q28.25 -17.9 28.5 -23.5 L54.65 -21.75 Q54.4 -16.45 53.8 -12.0 42.25 -13.15 27.5 -12.65 M81.4 -17.75 Q85.8 -16.4 89.45 -14.55 100.6 -6.25 103.4 5.7 104.3 9.75 104.3 14.15 104.3 23.3 100.25 30.65 98.6 33.65 96.2 36.45 L86.0 32.6 92.35 40.3 89.45 42.65 Q83.95 45.4 76.75 47.1 L72.3 40.55 73.55 47.75 64.0 49.05 28.5 51.6 27.8 42.2 Q71.6 43.9 87.35 30.65 94.55 24.5 95.8 15.15 95.1 9.95 92.65 5.7 85.45 -6.55 63.0 -10.75 64.5 -12.55 66.15 -13.6 70.4 -16.6 81.4 -17.75 M25.1 29.5 L21.15 29.3 Q19.7 28.6 18.9 27.0 L18.75 23.85 Q18.55 20.0 18.5 16.0 L18.5 13.9 18.5 13.5 19.5 14.95 Q20.95 16.8 22.05 16.8 24.5 16.8 26.2 14.1 27.8 11.45 27.8 7.9 L27.65 5.7 Q27.35 2.75 26.2 1.2 24.7 -0.7 21.45 -0.7 L21.05 -0.7 21.15 -0.75 22.75 -0.9 23.45 -0.9 25.0 -0.85 Q30.65 -0.7 36.15 0.7 40.05 1.7 42.75 4.9 L43.2 5.7 43.2 5.8 Q44.35 8.35 44.35 13.8 44.35 23.0 40.1 26.3 36.85 28.85 27.9 29.6 L25.1 29.5 M-60.55 26.1 Q-68.05 26.95 -75.8 26.4 -77.75 24.9 -79.0 22.1 -80.85 18.0 -80.85 12.35 -80.85 9.5 -80.15 5.7 L-79.35 2.6 -69.8 2.05 Q-70.55 3.05 -70.55 4.55 -70.55 6.9 -67.0 8.45 -63.9 9.85 -60.4 9.85 -57.45 9.85 -55.45 9.0 L-54.5 8.5 Q-54.0 12.85 -54.35 17.7 -55.2 19.85 -56.9 22.15 -58.75 24.65 -60.55 26.1 M-139.9 21.5 L-143.75 17.75 Q-144.3 15.15 -144.3 12.35 -144.3 6.5 -142.0 1.55 L-142.0 1.65 Q-140.95 3.1 -138.9 3.1 L-137.95 3.05 Q-140.75 8.4 -140.75 14.85 -140.75 18.35 -139.9 21.5 M-121.7 -14.4 L-114.4 -15.15 Q-103.1 -15.15 -94.8 -8.45 -101.85 -12.65 -110.85 -12.65 -116.75 -12.65 -121.75 -10.8 -121.35 -12.0 -121.35 -12.95 -121.35 -13.8 -121.7 -14.4 M-100.85 11.05 Q-96.0 10.3 -94.2 6.0 -96.0 10.3 -100.85 11.05 L-103.5 8.0 -105.65 5.45 -106.25 4.7 -99.9 -0.7 -99.25 0.1 -97.05 2.7 -94.2 6.0 -91.75 8.8 Q-93.9 13.45 -98.55 13.8 -93.9 13.45 -91.75 8.8 L-89.95 11.0 Q-90.8 16.4 -96.25 16.4 L-98.55 13.8 -100.85 11.05 M-103.5 8.0 Q-98.25 7.3 -97.05 2.7 -98.25 7.3 -103.5 8.0 M-105.65 5.45 Q-101.3 4.2 -99.25 0.1 -101.3 4.2 -105.65 5.45" fill="#cccccc" fill-rule="evenodd" stroke="none"/>
      <path d="M54.65 -21.75 L64.0 -20.95 Q73.8 -20.15 81.4 -17.75 70.4 -16.6 66.15 -13.6 64.5 -12.55 63.0 -10.75 L53.8 -12.0 Q54.4 -16.45 54.65 -21.75 M-126.45 34.35 L-117.15 29.05 -117.1 33.85 -120.9 36.2 -126.45 34.35 M-142.0 1.55 Q-139.85 -3.15 -135.6 -7.1 -129.55 -12.65 -121.7 -14.4 -121.35 -13.8 -121.35 -12.95 -121.35 -12.0 -121.75 -10.8 -127.4 -8.85 -132.05 -4.6 -135.85 -1.1 -137.95 3.05 L-138.9 3.1 Q-140.95 3.1 -142.0 1.65 L-142.0 1.55 M-69.8 2.05 Q-62.7 2.05 -55.6 3.35 L-55.1 5.15 -54.6 7.8 -54.6 7.85 -54.5 8.5 -55.45 9.0 Q-57.45 9.85 -60.4 9.85 -63.9 9.85 -67.0 8.45 -70.55 6.9 -70.55 4.55 -70.55 3.05 -69.8 2.05 M18.75 4.85 L18.9 1.5 Q19.65 -0.05 21.05 -0.7 L21.45 -0.7 Q24.7 -0.7 26.2 1.2 27.35 2.75 27.65 5.7 L27.8 7.9 Q27.8 11.45 26.2 14.1 24.5 16.8 22.05 16.8 20.95 16.8 19.5 14.95 L18.5 13.5 18.6 10.7 18.75 5.7 18.75 4.85" fill="#ffffff" fill-rule="evenodd" stroke="none"/>
      <path d="M-55.2 23.65 L-55.6 25.4 -60.55 26.1 Q-58.75 24.65 -56.9 22.15 -55.2 19.85 -54.35 17.7 -54.6 20.55 -55.2 23.65 M-75.8 26.4 L-83.15 25.65 -82.85 24.9 -82.85 4.85 -83.65 3.25 -79.35 2.6 -80.15 5.7 Q-80.85 9.5 -80.85 12.35 -80.85 18.0 -79.0 22.1 -77.75 24.9 -75.8 26.4 M-113.75 42.25 L-115.8 42.0 -120.9 36.2 -117.1 33.85 -100.7 23.45 -103.15 20.85 -111.8 11.6 -133.5 23.7 -139.9 21.5 Q-140.75 18.35 -140.75 14.85 -140.75 8.4 -137.95 3.05 -135.85 -1.1 -132.05 -4.6 -127.4 -8.85 -121.75 -10.8 -116.75 -12.65 -110.85 -12.65 -101.85 -12.65 -94.8 -8.45 L-93.55 -7.6 -91.55 -4.0 Q-87.55 3.7 -87.55 9.6 -87.55 19.6 -95.2 29.2 -102.45 38.3 -113.75 42.25 M25.0 -0.85 L25.0 -1.05 32.55 -1.15 43.3 -0.7 Q44.75 -0.05 45.65 1.5 L45.85 5.7 45.95 8.45 45.95 14.7 45.95 19.3 45.65 27.15 Q44.75 28.75 43.3 29.3 L32.55 29.8 27.9 29.6 Q36.85 28.85 40.1 26.3 44.35 23.0 44.35 13.8 44.35 8.35 43.2 5.8 L43.2 5.7 42.75 4.9 Q40.05 1.7 36.15 0.7 30.65 -0.7 25.0 -0.85 M-100.85 11.05 L-98.55 13.8 -96.25 16.4 Q-90.8 16.4 -89.95 11.0 L-91.75 8.8 -94.2 6.0 -97.05 2.7 -99.25 0.1 -99.9 -0.7 -106.25 4.7 -105.65 5.45 -103.5 8.0 -100.85 11.05" fill="#a8a8a8" fill-rule="evenodd" stroke="none"/>
      <path d="M27.8 42.2 Q26.95 36.2 25.45 30.65 L25.25 29.9 27.9 29.6 32.55 29.8 43.3 29.3 Q44.75 28.75 45.65 27.15 L45.95 19.3 49.55 19.3 70.85 18.1 Q74.1 16.95 74.75 13.6 74.1 10.9 70.85 9.7 L51.15 8.45 45.95 8.45 45.85 5.7 45.65 1.5 Q44.75 -0.05 43.3 -0.7 L32.55 -1.15 25.0 -1.05 Q26.6 -6.6 27.5 -12.65 42.25 -13.15 53.8 -12.0 L63.0 -10.75 Q85.45 -6.55 92.65 5.7 95.1 9.95 95.8 15.15 94.55 24.5 87.35 30.65 71.6 43.9 27.8 42.2" fill="#666666" fill-rule="evenodd" stroke="none"/>
      <path d="M51.15 8.45 L70.85 9.7 Q74.1 10.9 74.75 13.6 74.1 16.95 70.85 18.1 L49.55 19.3 49.5 18.75 Q49.0 16.75 49.0 15.2 49.0 12.5 50.15 10.3 L51.15 8.45" fill="#595959" fill-rule="evenodd" stroke="none"/>
      <path d="M45.95 19.3 L45.95 14.7 45.95 8.45 51.15 8.45 50.15 10.3 Q49.0 12.5 49.0 15.2 49.0 16.75 49.5 18.75 L49.55 19.3 45.95 19.3" fill="#4d4d4d" fill-rule="evenodd" stroke="none"/>
      <path d="M-7.8 5.3 L16.85 4.9 18.75 4.85 18.75 5.7 18.6 10.7 17.3 10.8 13.45 11.05 5.5 11.6 3.9 11.6 Q-0.45 11.6 -2.8 10.25 -4.85 9.0 -7.8 5.3" fill="#a87f2e" fill-rule="evenodd" stroke="none"/>
      <path d="M18.75 23.85 L5.5 23.7 -16.45 23.55 Q-19.4 21.15 -21.65 19.85 -25.05 17.9 -29.6 17.5 L-31.85 17.4 -39.45 17.35 -54.25 17.75 -54.25 17.35 Q-54.0 13.85 -54.25 10.55 L-54.45 8.45 -54.6 7.85 -54.6 7.8 -55.1 5.15 -53.15 5.2 -31.85 5.45 -7.8 5.3 Q-4.85 9.0 -2.8 10.25 -0.45 11.6 3.9 11.6 L5.5 11.6 13.45 11.05 17.3 10.8 18.6 10.7 18.5 13.5 18.5 13.9 18.5 16.0 Q18.55 20.0 18.75 23.85 M-21.45 16.0 L18.5 16.0 -21.45 16.0 M-25.0 9.7 L-36.45 9.7 -25.0 9.7 M-47.4 10.55 L-54.25 10.55 -47.4 10.55" fill="#b08838" fill-rule="evenodd" stroke="none"/>
      <path d="M-83.15 25.65 Q-85.4 30.35 -89.7 34.3 -98.4 42.3 -110.85 42.3 L-113.75 42.25 Q-102.45 38.3 -95.2 29.2 -87.55 19.6 -87.55 9.6 -87.55 3.7 -91.55 -4.0 L-93.55 -7.6 Q-91.55 -6.3 -89.7 -4.6 -85.8 -1.05 -83.65 3.25 L-82.85 4.85 -82.85 24.9 -83.15 25.65" fill="#808080" fill-rule="evenodd" stroke="none"/>
      <path d="M-16.45 23.55 L-31.85 23.55 -55.2 23.65 Q-54.5 20.65 -54.25 17.75 L-39.45 17.35 -31.85 17.4 -29.6 17.5 Q-25.05 17.9 -21.65 19.85 -19.4 21.15 -16.45 23.55" fill="#ab8a36" fill-rule="evenodd" stroke="none"/>
      <path d="M-115.8 42.0 L-121.7 40.25 -126.45 34.35 -120.9 36.2 -115.8 42.0 M-117.15 29.05 L-103.15 20.85 -100.7 23.45 -117.1 33.85 -117.15 29.05" fill="#757575" fill-rule="evenodd" stroke="none"/>
      <path d="M27.5 -12.65 Q28.25 -17.9 28.5 -23.5 L54.65 -21.75 64.0 -20.95 Q73.8 -20.15 81.4 -17.75 85.8 -16.4 89.45 -14.55 100.6 -6.25 103.4 5.7 104.3 9.75 104.3 14.15 104.3 23.3 100.25 30.65 98.6 33.65 96.2 36.45 L86.0 32.6 92.35 40.3 89.45 42.65 Q83.95 45.4 76.75 47.1 L72.3 40.55 73.55 47.75 64.0 49.05 28.5 51.6 27.8 42.2 Q26.95 36.2 25.45 30.65 L25.25 29.9 25.1 29.5 21.15 29.3 Q19.7 28.6 18.9 27.0 L18.75 23.85 5.5 23.7 -16.45 23.55 -31.85 23.55 -55.2 23.65 -55.6 25.4 -60.55 26.1 Q-68.05 26.95 -75.8 26.4 L-83.15 25.65 Q-85.4 30.35 -89.7 34.3 -98.4 42.3 -110.85 42.3 L-113.75 42.25 -115.8 42.0 -121.7 40.25 -126.45 34.35 -117.15 29.05 -103.15 20.85 -111.8 11.6 -133.5 23.7 -139.9 21.5 -143.75 17.75 Q-144.3 15.15 -144.3 12.35 -144.3 6.5 -142.0 1.55 -139.85 -3.15 -135.6 -7.1 -129.55 -12.65 -121.7 -14.4 L-114.4 -15.15 Q-103.1 -15.15 -94.8 -8.45 L-93.55 -7.6 Q-91.55 -6.3 -89.7 -4.6 -85.8 -1.05 -83.65 3.25 L-79.35 2.6 -69.8 2.05 Q-62.7 2.05 -55.6 3.35 L-55.1 5.15 -53.15 5.2 -31.85 5.45 -7.8 5.3 16.85 4.9 18.75 4.85 18.9 1.5 Q19.65 -0.05 21.05 -0.7 L21.15 -0.75 22.75 -0.9 23.45 -0.9 25.0 -1.05 Q26.6 -6.6 27.5 -12.65 M27.9 29.6 L32.55 29.8 43.3 29.3 Q44.75 28.75 45.65 27.15 L45.95 19.3 45.95 14.7 45.95 8.45 45.85 5.7 45.65 1.5 Q44.75 -0.05 43.3 -0.7 L32.55 -1.15 25.0 -1.05 M51.15 8.45 L70.85 9.7 Q74.1 10.9 74.75 13.6 74.1 16.95 70.85 18.1 L49.55 19.3 45.95 19.3 M51.15 8.45 L45.95 8.45 M18.6 10.7 L18.75 5.7 18.75 4.85 M18.75 23.85 Q18.55 20.0 18.5 16.0 L18.5 13.9 18.5 13.5 18.6 10.7 M27.9 29.6 L25.1 29.5 M-137.95 3.05 Q-135.85 -1.1 -132.05 -4.6 -127.4 -8.85 -121.75 -10.8 -116.75 -12.65 -110.85 -12.65 -101.85 -12.65 -94.8 -8.45 M-54.5 8.5 L-54.6 7.85 -54.6 7.8 -55.1 5.15 M-54.5 8.5 Q-54.0 12.85 -54.35 17.7 -54.6 20.55 -55.2 23.65 M-83.65 3.25 L-82.85 4.85 -82.85 24.9 -83.15 25.65 M-94.2 6.0 Q-96.0 10.3 -100.85 11.05 L-98.55 13.8 Q-93.9 13.45 -91.75 8.8 L-94.2 6.0 -97.05 2.7 Q-98.25 7.3 -103.5 8.0 L-100.85 11.05 M-103.5 8.0 L-105.65 5.45 -106.25 4.7 -99.9 -0.7 -99.25 0.1 -97.05 2.7 M-91.75 8.8 L-89.95 11.0 Q-90.8 16.4 -96.25 16.4 L-98.55 13.8 M-120.9 36.2 L-115.8 42.0 M-117.1 33.85 L-120.9 36.2 -126.45 34.35 M-117.1 33.85 L-100.7 23.45 -103.15 20.85 M-99.25 0.1 Q-101.3 4.2 -105.65 5.45 M-139.9 21.5 Q-140.75 18.35 -140.75 14.85 -140.75 8.4 -137.95 3.05" fill="none" stroke="#000000" stroke-linecap="round" stroke-linejoin="round" stroke-opacity="0.6627451" stroke-width="1.0"/>
      <path d="M18.6 10.7 L17.3 10.8 13.45 11.05 5.5 11.6 3.9 11.6 Q-0.45 11.6 -2.8 10.25 -4.85 9.0 -7.8 5.3 M-54.25 17.75 L-39.45 17.35 -31.85 17.4 -29.6 17.5 Q-25.05 17.9 -21.65 19.85 -19.4 21.15 -16.45 23.55" fill="none" stroke="#000000" stroke-linecap="round" stroke-linejoin="round" stroke-opacity="0.19215687" stroke-width="0.5"/>
      <path d="M18.5 16.0 L-21.45 16.0 M-36.45 9.7 L-25.0 9.7 M-54.25 10.55 L-47.4 10.55" fill="none" stroke="#000000" stroke-linecap="round" stroke-linejoin="round" stroke-opacity="0.18039216" stroke-width="0.5"/>
    </g>
    <g id="sprite0" transform="matrix(1.0, 0.0, 0.0, 1.0, 104.8, 31.65)">
      <use height="63.35" transform="matrix(1.0, 0.0, 0.0, 1.0, -104.8, -31.65)" width="209.6" xlink:href="#shape1"/>
    </g>
    <g id="shape1" transform="matrix(1.0, 0.0, 0.0, 1.0, 104.8, 31.65)">
      <path d="M37.95 -12.7 Q39.3 -17.4 40.05 -22.5 40.7 -26.9 40.9 -31.65 L62.95 -30.15 70.85 -29.5 Q79.1 -28.8 85.5 -26.8 89.2 -25.65 92.3 -24.1 101.7 -17.1 104.05 -7.0 104.8 -3.6 104.8 0.1 104.8 7.8 101.4 14.0 100.0 16.55 98.0 18.9 L89.4 15.65 94.75 22.15 92.3 24.15 Q87.65 26.45 81.6 27.9 L77.85 22.35 78.9 28.45 70.85 29.55 40.9 31.7 40.3 23.75 Q39.6 18.7 38.35 14.0 L38.15 13.4 40.4 13.15 44.3 13.3 53.4 12.9 Q54.6 12.4 55.35 11.05 L55.6 4.45 58.65 4.45 76.6 3.45 Q79.35 2.45 79.9 -0.35 79.35 -2.65 76.6 -3.65 L60.0 -4.7 55.6 -4.7 55.55 -7.0 55.35 -10.55 Q54.6 -11.85 53.4 -12.4 L44.3 -12.8 37.95 -12.7" fill="url(#gradient0)" fill-rule="evenodd" stroke="none"/>
      <path d="M32.7 -7.75 L32.8 -10.55 Q33.45 -11.85 34.6 -12.4 L34.7 -12.45 36.05 -12.6 36.5 -12.6 37.95 -12.55 37.95 -12.7 44.3 -12.8 53.4 -12.4 Q54.6 -11.85 55.35 -10.55 L55.55 -7.0 55.6 -4.7 55.6 0.55 55.6 4.45 55.35 11.05 Q54.6 12.4 53.4 12.9 L44.3 13.3 40.4 13.15 38.05 13.05 34.7 12.9 Q33.5 12.3 32.8 10.95 L32.7 8.3 32.45 1.65 32.45 -0.1 32.45 -0.45 32.55 -2.8 32.7 -7.0 32.7 -7.75" fill="url(#gradient1)" fill-rule="evenodd" stroke="none"/>
      <path d="M32.7 8.3 L21.5 8.15 3.0 8.05 -10.0 8.05 Q-19.95 8.0 -29.65 8.1 -29.1 5.6 -28.85 3.15 L-28.85 2.8 Q-28.65 -0.15 -28.85 -2.95 L-29.05 -4.7 -29.15 -5.2 -29.15 -5.25 -29.6 -7.5 -27.95 -7.45 -10.0 -7.25 10.3 -7.35 Q20.7 -7.45 31.1 -7.7 L32.7 -7.75 32.7 -7.0 32.55 -2.8 32.45 -0.45 32.45 -0.1 32.45 1.65 32.7 8.3" fill="url(#gradient2)" fill-rule="evenodd" stroke="none"/>
      <path d="M55.6 -4.7 L60.0 -4.7 76.6 -3.65 Q79.35 -2.65 79.9 -0.35 79.35 2.45 76.6 3.45 L58.65 4.45 55.6 4.45 55.6 0.55 55.6 -4.7" fill="url(#gradient3)" fill-rule="evenodd" stroke="none"/>
      <path d="M-101.1 6.3 L-104.35 3.15 Q-104.8 0.95 -104.8 -1.4 -104.8 -6.35 -102.85 -10.5 -101.05 -14.5 -97.45 -17.8 -92.35 -22.5 -85.75 -23.95 L-79.6 -24.6 Q-70.05 -24.6 -63.05 -18.95 -69.0 -22.5 -76.6 -22.5 -81.55 -22.5 -85.8 -20.95 -90.55 -19.3 -94.45 -15.7 -97.65 -12.75 -99.45 -9.25 -101.8 -4.75 -101.8 0.7 -101.8 3.65 -101.1 6.3" fill="url(#gradient4)" fill-rule="evenodd" stroke="none"/>
      <path d="M-53.25 9.8 Q-55.15 13.75 -58.75 17.1 -66.1 23.85 -76.6 23.85 L-79.05 23.8 -80.75 23.6 -85.05 18.7 -68.05 7.95 -70.1 5.75 -77.4 -2.05 -95.7 8.15 -101.1 6.3 Q-101.8 3.65 -101.8 0.7 -101.8 -4.75 -99.45 -9.25 -97.65 -12.75 -94.45 -15.7 -90.55 -19.3 -85.8 -20.95 -81.55 -22.5 -76.6 -22.5 -69.0 -22.5 -63.05 -18.95 L-62.0 -18.25 -58.75 -15.7 Q-55.45 -12.7 -53.65 -9.1 L-53.0 -7.75 -53.0 9.15 -53.25 9.8 M-67.35 -12.4 L-72.7 -7.85 -64.3 2.0 Q-59.7 2.0 -58.95 -2.55 L-67.35 -12.4" fill="url(#gradient5)" fill-rule="evenodd" stroke="none"/>
      <path d="M-67.35 -12.4 L-58.95 -2.55 Q-59.7 2.0 -64.3 2.0 L-72.7 -7.85 -67.35 -12.4" fill="url(#gradient6)" fill-rule="evenodd" stroke="none"/>
      <path d="M-29.65 8.1 L-30.0 9.6 -34.2 10.2 Q-40.5 10.9 -47.05 10.45 L-53.25 9.8 -53.0 9.15 -53.0 -7.75 -53.65 -9.1 -50.05 -9.65 -42.0 -10.1 -30.0 -9.0 -29.6 -7.5 -29.15 -5.25 -29.15 -5.2 -29.1 -4.65 Q-28.65 -1.0 -28.95 3.1 -29.15 5.5 -29.65 8.1" fill="url(#gradient7)" fill-rule="evenodd" stroke="none"/>
      <path d="M-89.75 17.15 L-70.1 5.75 -68.05 7.95 -85.05 18.7 -89.75 17.15" fill="url(#gradient8)" fill-rule="evenodd" stroke="none"/>
      <path d="M-80.75 23.6 L-85.75 22.1 -89.75 17.15 -85.05 18.7 -80.75 23.6" fill="url(#gradient9)" fill-rule="evenodd" stroke="none"/>
    </g>
    <linearGradient gradientTransform="matrix(-0.0106, -0.0394, 0.0374, -0.01, 71.3, 0.05)" gradientUnits="userSpaceOnUse" id="gradient0" spreadMethod="pad" x1="-819.2" x2="819.2">
      <stop offset="0.0" stop-color="#000000"/>
      <stop offset="1.0" stop-color="#ffffff"/>
    </linearGradient>
    <linearGradient gradientTransform="matrix(-0.0071, -0.0122, 0.0138, -0.008, 44.0, 0.3)" gradientUnits="userSpaceOnUse" id="gradient1" spreadMethod="pad" x1="-819.2" x2="819.2">
      <stop offset="0.0" stop-color="#000000"/>
      <stop offset="1.0" stop-color="#ffffff"/>
    </linearGradient>
    <linearGradient gradientTransform="matrix(0.0, -0.0094, 0.0096, 0.0, 1.7, 0.25)" gradientUnits="userSpaceOnUse" id="gradient2" spreadMethod="pad" x1="-819.2" x2="819.2">
      <stop offset="0.0" stop-color="#000000"/>
      <stop offset="1.0" stop-color="#ffffff"/>
    </linearGradient>
    <linearGradient gradientTransform="matrix(0.0148, 0.0, 0.0, 0.0056, 67.75, -0.15)" gradientUnits="userSpaceOnUse" id="gradient3" spreadMethod="pad" x1="-819.2" x2="819.2">
      <stop offset="0.0" stop-color="#000000"/>
      <stop offset="1.0" stop-color="#ffffff"/>
    </linearGradient>
    <linearGradient gradientTransform="matrix(-0.0246, -0.0066, 0.0049, -0.0182, -83.95, -9.15)" gradientUnits="userSpaceOnUse" id="gradient4" spreadMethod="pad" x1="-819.2" x2="819.2">
      <stop offset="0.0" stop-color="#000000"/>
      <stop offset="1.0" stop-color="#ffffff"/>
    </linearGradient>
    <linearGradient gradientTransform="matrix(-0.0149, -0.0258, 0.0245, -0.0141, -77.4, 0.7)" gradientUnits="userSpaceOnUse" id="gradient5" spreadMethod="pad" x1="-819.2" x2="819.2">
      <stop offset="0.0" stop-color="#000000"/>
      <stop offset="1.0" stop-color="#ffffff"/>
    </linearGradient>
    <linearGradient gradientTransform="matrix(-0.0072, -0.0042, 0.002, -0.0035, -65.3, 1.0)" gradientUnits="userSpaceOnUse" id="gradient6" spreadMethod="pad" x1="-819.2" x2="819.2">
      <stop offset="0.0" stop-color="#000000"/>
      <stop offset="1.0" stop-color="#ffffff"/>
    </linearGradient>
    <linearGradient gradientTransform="matrix(0.0, -0.0151, 0.0127, 0.0, -41.25, 0.25)" gradientUnits="userSpaceOnUse" id="gradient7" spreadMethod="pad" x1="-819.2" x2="819.2">
      <stop offset="0.0" stop-color="#000000"/>
      <stop offset="1.0" stop-color="#ffffff"/>
    </linearGradient>
    <linearGradient gradientTransform="matrix(-0.0128, 0.0034, -0.002, -0.0076, -78.9, 12.2)" gradientUnits="userSpaceOnUse" id="gradient8" spreadMethod="pad" x1="-819.2" x2="819.2">
      <stop offset="0.0" stop-color="#000000"/>
      <stop offset="1.0" stop-color="#ffffff"/>
    </linearGradient>
    <linearGradient gradientTransform="matrix(-0.0014, -0.0053, 0.0038, -0.001, -85.25, 20.35)" gradientUnits="userSpaceOnUse" id="gradient9" spreadMethod="pad" x1="-819.2" x2="819.2">
      <stop offset="0.0" stop-color="#000000"/>
      <stop offset="1.0" stop-color="#ffffff"/>
    </linearGradient>
    <g id="shape2" transform="matrix(1.0, 0.0, 0.0, 1.0, 69.6, 58.1)">
      <path d="M-54.25 -57.35 L-54.25 -57.3 Q-54.25 -56.95 -55.75 -53.5 -60.9 -43.35 -63.0 -32.15 L-64.5 -23.95 -66.4 -11.55 Q-68.15 2.0 -66.1 15.35 -65.3 20.35 -63.75 24.95 -63.05 28.55 -60.45 29.8 L-58.1 30.35 -55.8 30.4 -54.7 30.4 Q-53.75 30.4 -53.3 30.05 -53.05 28.55 -52.25 28.55 -51.95 28.95 -51.85 29.85 L-51.85 29.9 -51.8 29.9 -51.5 31.05 -51.5 31.2 -51.25 31.7 -51.15 31.85 -50.5 32.65 -50.4 32.75 Q-49.75 33.25 -47.85 33.3 L-44.25 33.2 Q-39.95 33.2 -38.95 32.3 -38.75 32.1 -38.65 30.95 -38.85 29.35 -38.65 28.65 -38.35 27.55 -37.65 27.85 -37.0 28.15 -36.65 29.15 L-36.5 30.0 -36.45 30.0 -35.65 30.3 -30.0 30.05 -24.7 29.4 -24.35 29.25 -23.55 28.6 -22.75 27.45 Q-22.45 26.2 -22.25 23.3 L-24.3 23.0 -24.35 25.95 -24.35 26.25 -24.9 26.45 -25.45 25.75 -25.65 24.7 -25.6 22.8 -25.65 20.65 -25.6 19.05 -25.5 15.4 -24.85 11.3 Q-24.3 8.55 -23.5 6.75 L-23.0 5.75 Q-22.05 4.1 -21.0 4.4 L-20.9 4.85 -21.0 5.3 -20.65 5.25 -17.1 4.95 -14.35 4.65 -14.45 0.4 Q-14.6 -1.9 -17.85 -2.3 L-20.45 -2.65 -20.4 -1.6 -20.4 -1.1 Q-20.35 -0.85 -21.0 -0.85 -21.55 -0.85 -21.9 -1.85 -22.4 -3.05 -22.6 -5.75 L-22.75 -10.65 Q-22.75 -15.75 -22.1 -19.2 -21.55 -22.2 -19.5 -28.45 -17.45 -34.8 -16.1 -37.35 L-13.25 -41.85 Q-12.35 -43.1 -10.85 -44.2 L-10.3 -44.55 Q-8.9 -45.5 -8.9 -44.05 -8.9 -44.55 -11.45 -41.1 L-13.4 -38.2 -10.35 -39.75 -7.15 -41.4 Q-5.0 -42.15 -5.0 -40.7 -5.0 -39.15 -14.75 -35.7 L-15.75 -33.3 -19.1 -22.55 Q-20.4 -17.7 -20.6 -11.8 L-20.5 -3.85 -17.9 -3.95 -14.85 -3.55 -13.5 -2.5 Q-12.7 -1.65 -12.5 -0.35 L-12.45 1.7 Q-12.45 4.75 -12.6 5.25 -13.05 6.65 -15.15 6.65 L-21.5 6.45 -21.95 7.35 Q-23.1 9.6 -23.25 10.3 L-23.8 12.75 -24.2 15.5 -24.3 20.75 -24.3 21.55 -22.75 21.4 Q-20.5 21.5 -20.65 23.65 L-20.5 27.55 Q-20.5 29.15 -21.6 30.25 -22.9 31.55 -25.55 32.05 L-29.0 32.3 -36.4 31.9 Q-36.45 32.65 -36.65 33.2 L-37.25 34.0 -38.7 34.9 Q-40.7 35.65 -44.3 35.65 L-49.8 35.1 Q-51.7 34.55 -52.6 33.6 L-53.2 32.6 -54.55 32.7 -55.8 32.7 -58.2 32.85 Q-63.7 32.55 -65.9 26.8 L-66.5 24.95 Q-69.9 12.8 -69.6 0.15 -69.35 -12.0 -67.2 -23.95 -65.35 -34.45 -61.85 -44.5 -60.25 -49.1 -58.25 -53.5 -55.85 -58.1 -55.1 -58.1 L-54.55 -57.85 -54.5 -57.8 -54.25 -57.35" fill="#000000" fill-rule="evenodd" stroke="none"/>
      <path d="M-53.6 -57.35 L-53.85 -56.7 Q-58.4 -45.75 -60.3 -33.7 L-61.6 -24.9 Q-62.6 -18.2 -63.7 -6.65 -64.85 4.9 -63.55 13.95 -62.3 22.95 -61.5 25.95 L-60.45 29.8 Q-63.05 28.55 -63.75 24.95 -65.3 20.35 -66.1 15.35 -68.15 2.0 -66.4 -11.55 L-64.5 -23.95 -63.0 -32.15 Q-60.9 -43.35 -55.75 -53.5 -54.25 -56.95 -54.25 -57.3 L-54.25 -57.35 -53.6 -57.35 M-51.15 31.85 L-50.75 31.65 Q-50.5 32.0 -50.4 32.75 L-50.5 32.65 -51.15 31.85 M-24.35 29.25 L-24.1 26.0 -24.35 25.95 -24.3 23.0 -22.25 23.3 Q-22.45 26.2 -22.75 27.45 L-23.55 28.6 -24.35 29.25 M-25.45 25.75 L-25.8 25.65 -26.25 25.4 -26.65 24.95 -26.9 24.45 -27.1 23.3 -27.1 23.15 -27.1 21.4 -27.0 17.5 -26.4 13.05 Q-25.9 10.1 -25.2 8.15 -24.15 5.25 -23.0 5.65 L-23.0 5.75 -23.5 6.75 Q-24.3 8.55 -24.85 11.3 L-25.5 15.4 -25.6 19.05 -25.65 20.65 -25.6 22.8 -25.65 24.7 -25.45 25.75 M-17.1 4.95 L-17.2 1.35 Q-17.3 -1.15 -20.2 -1.6 L-20.4 -1.6 -20.45 -2.65 -17.85 -2.3 Q-14.6 -1.9 -14.45 0.4 L-14.35 4.65 -17.1 4.95 M-21.9 -1.85 L-22.5 -1.95 -23.75 -2.5 -24.15 -2.85 -24.4 -5.3 -24.55 -10.55 Q-24.55 -16.05 -23.95 -19.75 -23.5 -23.0 -21.65 -29.7 -19.85 -36.55 -18.65 -39.3 -17.6 -41.8 -16.1 -44.15 L-14.0 -46.7 -13.9 -46.75 -10.3 -44.55 -10.85 -44.2 Q-12.35 -43.1 -13.25 -41.85 L-16.1 -37.35 Q-17.45 -34.8 -19.5 -28.45 -21.55 -22.2 -22.1 -19.2 -22.75 -15.75 -22.75 -10.65 L-22.6 -5.75 Q-22.4 -3.05 -21.9 -1.85" fill="#bdbdbd" fill-rule="evenodd" stroke="none"/>
      <path d="M-60.45 29.8 L-61.5 25.95 Q-62.3 22.95 -63.55 13.95 -64.85 4.9 -63.7 -6.65 -62.6 -18.2 -61.6 -24.9 L-60.3 -33.7 Q-58.4 -45.75 -53.85 -56.7 L-53.6 -57.35 Q-32.0 -57.15 -13.9 -46.75 L-14.0 -46.7 -16.1 -44.15 Q-17.6 -41.8 -18.65 -39.3 -19.85 -36.55 -21.65 -29.7 -23.5 -23.0 -23.95 -19.75 -24.55 -16.05 -24.55 -10.55 L-24.4 -5.3 -24.15 -2.85 -23.75 -2.5 -22.5 -1.95 -21.9 -1.85 Q-21.55 -0.85 -21.0 -0.85 -20.35 -0.85 -20.4 -1.1 L-20.4 -1.6 -20.2 -1.6 Q-17.3 -1.15 -17.2 1.35 L-17.1 4.95 -20.65 5.25 -21.0 5.3 -20.9 4.85 -21.0 4.4 Q-22.05 4.1 -23.0 5.75 L-23.0 5.65 Q-24.15 5.25 -25.2 8.15 -25.9 10.1 -26.4 13.05 L-27.0 17.5 -27.1 21.4 -27.1 23.15 -27.1 23.3 -26.9 24.45 -26.65 24.95 -26.25 25.4 -25.8 25.65 -25.45 25.75 -24.9 26.45 -24.35 26.25 -24.35 25.95 -24.1 26.0 -24.35 29.25 -24.7 29.4 -30.0 30.05 -35.65 30.3 -36.45 30.0 -36.5 30.0 -36.65 29.15 Q-37.0 28.15 -37.65 27.85 -38.35 27.55 -38.65 28.65 -38.85 29.35 -38.65 30.95 -38.75 32.1 -38.95 32.3 -39.95 33.2 -44.25 33.2 L-47.85 33.3 Q-49.75 33.25 -50.4 32.75 -50.5 32.0 -50.75 31.65 L-51.15 31.85 -51.25 31.7 -51.5 31.2 -51.5 31.05 -51.8 29.9 -51.85 29.9 -51.85 29.85 Q-51.95 28.95 -52.25 28.55 -53.05 28.55 -53.3 30.05 -53.75 30.4 -54.7 30.4 L-55.8 30.4 -58.1 30.35 -60.45 29.8" fill="#999999" fill-rule="evenodd" stroke="none"/>
    </g>
  </defs>
</svg>
