<?xml version="1.0" encoding="UTF-8" standalone="no"?>
<svg xmlns:xlink="http://www.w3.org/1999/xlink" height="531.5px" width="460.6px" xmlns="http://www.w3.org/2000/svg">
  <g transform="matrix(1.0, 0.0, 0.0, 1.0, 193.65, 334.05)">
    <use height="140.9" transform="matrix(1.0, 0.0, 0.0, 1.0, 9.85, -124.65)" width="104.65" xlink:href="#shape0"/>
    <use height="157.0" transform="matrix(0.8909, 0.0, 0.0, 0.8909, 10.3968, -124.082)" width="116.35" xlink:href="#sprite0"/>
  </g>
  <defs>
    <g id="shape0" transform="matrix(1.0, 0.0, 0.0, 1.0, -9.85, 124.65)">
      <path d="M85.0 -123.8 Q89.8 -124.45 94.6 -123.85 L102.3 -122.15 Q106.8 -120.1 110.1 -115.65 L110.45 -115.15 Q114.3 -105.8 114.0 -91.05 L107.0 -88.9 106.85 -97.6 107.8 -102.45 105.7 -107.2 Q104.85 -111.65 103.35 -115.15 100.0 -120.0 95.2 -122.15 90.7 -124.15 85.0 -123.8 M74.85 -81.05 L76.7 -80.85 83.5 -78.35 76.85 -79.5 75.15 -79.6 74.85 -79.65 69.85 -79.75 67.45 -79.2 63.7 -78.25 59.5 -76.85 58.4 -76.4 51.5 -77.9 Q55.3 -79.4 59.55 -80.4 L62.5 -81.05 67.4 -81.3 74.85 -81.05 M62.65 -107.8 Q65.5 -99.1 65.25 -86.2 L59.55 -84.5 58.25 -84.1 Q58.65 -100.7 54.65 -110.4 51.25 -115.25 46.5 -117.4 42.0 -119.4 36.25 -119.0 41.05 -119.6 45.8 -119.1 49.8 -118.5 53.55 -117.4 58.35 -115.25 61.7 -110.4 L62.65 -107.8 M27.35 -56.75 L27.35 -59.15 Q36.9 -72.15 51.5 -77.9 L58.4 -76.4 Q53.35 -74.35 48.9 -71.45 L44.3 -72.1 46.8 -70.0 42.5 -66.5 Q39.3 -63.6 36.55 -60.15 L32.0 -58.3 27.35 -59.15 32.0 -58.3 34.75 -55.1 34.75 -12.25 34.75 11.5 27.35 9.45 27.35 4.2 27.35 -9.7 27.35 -11.4 27.35 -41.15 27.35 -55.05 27.35 -56.75" fill="#edc27b" fill-rule="evenodd" stroke="none"/>
      <path d="M107.0 -88.9 L97.2 -91.85 Q97.7 -107.3 92.15 -112.55 91.35 -113.4 90.35 -113.9 86.85 -116.0 81.55 -115.05 73.3 -112.65 69.85 -104.3 69.05 -102.4 68.55 -100.15 67.35 -95.4 67.4 -90.35 L67.4 -86.8 67.4 -81.3 62.5 -81.05 59.55 -80.4 59.55 -84.5 65.25 -86.2 Q65.5 -99.1 62.65 -107.8 67.1 -118.6 77.55 -122.45 81.05 -123.45 84.2 -123.7 L85.0 -123.8 Q90.7 -124.15 95.2 -122.15 100.0 -120.0 103.35 -115.15 104.85 -111.65 105.7 -107.2 L105.3 -101.65 106.85 -97.6 107.0 -88.9 M67.95 9.25 L67.9 11.0 59.15 7.75 59.15 5.0 66.15 1.7 Q67.05 1.3 67.9 0.85 L67.95 9.25 M58.4 5.35 Q55.95 6.55 53.45 7.7 L52.2 2.4 51.6 6.15 51.25 8.7 47.85 10.3 47.8 10.3 Q48.45 4.65 48.9 -10.35 49.35 -26.2 50.1 -31.0 L51.0 -38.85 Q51.4 -42.9 52.3 -45.7 53.2 -48.25 56.4 -51.8 58.65 -54.3 59.25 -55.65 L59.7 -45.15 58.0 -19.7 58.4 5.35 M19.2 14.0 L19.2 15.75 10.35 12.5 10.8 -81.4 10.85 -83.75 Q10.85 -89.4 11.6 -95.0 14.8 -112.45 28.8 -117.65 32.3 -118.65 35.5 -118.95 L36.25 -119.0 Q42.0 -119.4 46.5 -117.4 51.25 -115.25 54.65 -110.4 58.65 -100.7 58.25 -84.1 L48.5 -87.05 Q48.95 -102.45 43.4 -107.75 L41.65 -109.15 Q38.1 -111.2 32.75 -110.2 L31.6 -109.85 27.0 -110.05 24.95 -105.55 Q22.25 -102.7 20.75 -98.4 20.2 -97.0 19.8 -95.4 18.6 -90.6 18.65 -85.6 L18.65 -82.05 18.85 -55.55 26.2 -56.6 27.35 -56.75 27.35 -55.05 14.9 -55.05 27.35 -55.05 27.35 -41.15 26.3 -41.15 18.85 -41.15 18.9 -34.7 19.05 -10.25 14.9 -9.7 14.9 -2.05 17.05 -0.3 14.9 1.5 14.9 4.2 19.15 4.2 14.9 4.2 14.9 1.5 17.05 -0.3 14.9 -2.05 14.9 -9.7 19.05 -10.25 26.5 -11.3 27.35 -11.4 27.35 -9.7 27.35 4.2 26.55 4.2 19.15 4.2 19.2 8.65 19.2 14.0 M68.6 0.55 L70.4 -0.35 71.85 0.1 68.6 0.55 M58.4 -76.4 L59.25 -55.65 Q58.65 -54.3 56.4 -51.8 53.2 -48.25 52.3 -45.7 51.4 -42.9 51.0 -38.85 L50.1 -31.0 Q49.35 -26.2 48.9 -10.35 48.45 4.65 47.8 10.3 L34.75 11.5 34.75 -12.25 Q38.6 -14.6 40.35 -20.55 41.8 -25.6 41.85 -33.9 L42.0 -50.8 Q42.1 -60.25 42.5 -66.5 42.1 -60.25 42.0 -50.8 L41.85 -33.9 Q41.8 -25.6 40.35 -20.55 38.6 -14.6 34.75 -12.25 L34.75 -55.1 36.55 -60.15 Q39.3 -63.6 42.5 -66.5 L46.8 -70.0 47.0 -69.8 48.2 -60.15 48.9 -71.45 Q53.35 -74.35 58.4 -76.4 M18.85 -55.55 L14.9 -55.05 14.9 -47.4 17.05 -45.65 14.9 -43.85 14.9 -41.15 18.85 -41.15 14.9 -41.15 14.9 -43.85 17.05 -45.65 14.9 -47.4 14.9 -55.05 18.85 -55.55 M27.35 -9.7 L14.9 -9.7 27.35 -9.7" fill="#cc8238" fill-rule="evenodd" stroke="none"/>
      <path d="M90.35 -113.9 Q83.15 -114.45 79.8 -110.15 78.5 -108.25 77.55 -105.65 L74.6 -105.15 69.85 -104.3 Q73.3 -112.65 81.55 -115.05 86.85 -116.0 90.35 -113.9 M31.6 -109.85 L32.75 -110.2 Q38.1 -111.2 41.65 -109.15 34.35 -109.7 31.05 -105.3 29.65 -103.3 28.6 -100.4 L26.3 -99.85 20.75 -98.4 Q22.25 -102.7 24.95 -105.55 L25.25 -105.85 28.75 -107.35 31.6 -109.85 M26.3 -41.15 L26.35 -35.95 18.9 -34.7 18.85 -41.15 26.3 -41.15 M26.55 4.2 L26.6 6.95 19.2 8.65 19.15 4.2 26.55 4.2" fill="#6b522e" fill-rule="evenodd" stroke="none"/>
      <path d="M106.85 -97.6 L105.3 -101.65 105.7 -107.2 107.8 -102.45 106.85 -97.6 M24.95 -105.55 L27.0 -110.05 31.6 -109.85 28.75 -107.35 25.25 -105.85 24.95 -105.55 M32.0 -58.3 L36.55 -60.15 34.75 -55.1 32.0 -58.3" fill="#ffdea8" fill-rule="evenodd" stroke="none"/>
      <path d="M77.55 -105.65 L77.3 -105.1 74.55 -102.3 75.55 -98.65 75.15 -96.5 Q74.7 -93.2 74.8 -89.9 L74.85 -81.05 67.4 -81.3 67.4 -86.8 67.4 -90.35 Q67.35 -95.4 68.55 -100.15 69.05 -102.4 69.85 -104.3 L74.6 -105.15 77.55 -105.65 M75.25 1.1 L75.3 7.75 67.95 11.0 67.95 9.25 67.9 0.85 68.6 0.55 71.85 0.1 75.25 1.1 M20.75 -98.4 L26.3 -99.85 28.6 -100.4 Q27.5 -97.55 26.8 -93.95 L26.45 -91.75 Q25.95 -88.4 26.05 -85.1 L26.2 -56.6 18.85 -55.55 18.65 -82.05 18.65 -85.6 Q18.6 -90.6 19.8 -95.4 20.2 -97.0 20.75 -98.4 M26.35 -35.95 L26.5 -11.3 19.05 -10.25 18.9 -34.7 26.35 -35.95 M26.6 6.95 L26.6 12.5 19.25 15.75 19.2 14.0 19.2 8.65 26.6 6.95" fill="#91713e" fill-rule="evenodd" stroke="none"/>
      <path d="M83.5 3.5 L76.75 1.55 75.25 1.1 71.85 0.1 70.4 -0.35 68.6 0.55 67.9 0.85 Q67.05 1.3 66.15 1.7 L66.85 -6.8 Q66.85 -12.85 66.15 -15.3 L64.75 -18.2 Q62.6 -21.85 62.6 -38.9 L62.8 -41.95 62.85 -46.55 62.4 -55.05 Q62.4 -60.95 62.9 -68.85 63.3 -76.25 63.7 -78.25 63.3 -76.25 62.9 -68.85 62.4 -60.95 62.4 -55.05 L62.85 -46.55 62.8 -41.95 62.6 -38.9 Q62.6 -21.85 64.75 -18.2 L66.15 -15.3 Q66.85 -12.85 66.85 -6.8 L66.15 1.7 59.15 5.0 58.4 5.35 58.0 -19.7 59.7 -45.15 59.25 -55.65 58.4 -76.4 59.5 -76.85 63.7 -78.25 67.45 -79.2 69.85 -79.75 74.85 -79.65 75.15 -79.6 76.85 -79.5 83.5 -78.35 83.5 -57.25 82.55 -43.3 83.5 -17.15 83.5 3.5 M76.75 1.55 L75.15 -79.6 76.75 1.55 M59.5 -56.35 L59.25 -55.65 59.5 -56.35" fill="#d98f45" fill-rule="evenodd" stroke="none"/>
      <path d="M97.85 -70.35 L100.05 -70.2 98.4 -65.1 97.85 -70.35 M53.45 7.7 L51.6 6.15 52.2 2.4 53.45 7.7 M46.8 -70.0 L44.3 -72.1 48.9 -71.45 48.2 -60.15 47.0 -69.8 46.8 -70.0 M83.5 -57.25 L84.85 -32.95 83.5 -17.15 82.55 -43.3 83.5 -57.25" fill="#915c27" fill-rule="evenodd" stroke="none"/>
      <path d="M87.8 -77.15 L93.1 -74.85 97.65 -72.05 97.85 -70.35 98.4 -65.1 100.05 -70.2 102.0 -68.45 104.95 -65.35 104.95 2.65 104.6 2.7 101.3 1.95 96.05 3.6 92.95 3.95 87.1 4.5 83.5 3.5 83.5 -17.15 84.85 -32.95 83.5 -57.25 83.5 -78.35 87.8 -77.15 M102.0 -40.6 L102.0 -68.45 102.0 -40.6 M92.95 -32.6 L92.95 3.95 92.95 -32.6" fill="#c27f3c" fill-rule="evenodd" stroke="none"/>
      <path d="M76.7 -80.85 Q82.8 -79.45 87.8 -77.15 L83.5 -78.35 76.7 -80.85" fill="#cccccc" fill-rule="evenodd" stroke="none"/>
      <path d="M85.0 -123.8 Q89.8 -124.45 94.6 -123.85 L102.3 -122.15 Q106.8 -120.1 110.1 -115.65 L110.45 -115.15 Q114.3 -105.8 114.0 -91.05 L107.0 -88.9 97.2 -91.85 Q97.7 -107.3 92.15 -112.55 91.35 -113.4 90.35 -113.9 83.15 -114.45 79.8 -110.15 78.5 -108.25 77.55 -105.65 L77.3 -105.1 74.55 -102.3 75.55 -98.65 75.15 -96.5 Q74.7 -93.2 74.8 -89.9 L74.85 -81.05 76.7 -80.85 Q82.8 -79.45 87.8 -77.15 L93.1 -74.85 97.65 -72.05 97.85 -70.35 100.05 -70.2 102.0 -68.45 104.95 -65.35 104.95 2.65 104.6 2.7 101.3 1.95 96.05 3.6 92.95 3.95 87.1 4.5 83.5 3.5 76.75 1.55 75.25 1.1 75.3 7.75 67.95 11.0 67.95 9.25 67.9 11.0 59.15 7.75 59.15 5.0 58.4 5.35 Q55.95 6.55 53.45 7.7 L51.6 6.15 51.25 8.7 47.85 10.3 47.8 10.3 34.75 11.5 34.75 -12.25 34.75 -55.1 36.55 -60.15 Q39.3 -63.6 42.5 -66.5 L46.8 -70.0 44.3 -72.1 48.9 -71.45 Q53.35 -74.35 58.4 -76.4 L59.25 -55.65 59.7 -45.15 58.0 -19.7 58.4 5.35 M69.85 -104.3 Q73.3 -112.65 81.55 -115.05 86.85 -116.0 90.35 -113.9 M105.7 -107.2 L105.3 -101.65 106.85 -97.6 107.8 -102.45 105.7 -107.2 Q104.85 -111.65 103.35 -115.15 100.0 -120.0 95.2 -122.15 90.7 -124.15 85.0 -123.8 L84.2 -123.7 Q81.05 -123.45 77.55 -122.45 67.1 -118.6 62.65 -107.8 65.5 -99.1 65.25 -86.2 L59.55 -84.5 59.55 -80.4 62.5 -81.05 67.4 -81.3 67.4 -86.8 67.4 -90.35 Q67.35 -95.4 68.55 -100.15 69.05 -102.4 69.85 -104.3 M19.2 14.0 L19.2 15.75 10.35 12.5 10.8 -81.4 10.85 -83.75 Q10.85 -89.4 11.6 -95.0 14.8 -112.45 28.8 -117.65 32.3 -118.65 35.5 -118.95 L36.25 -119.0 Q41.05 -119.6 45.8 -119.1 49.8 -118.5 53.55 -117.4 58.35 -115.25 61.7 -110.4 L62.65 -107.8 M24.95 -105.55 L27.0 -110.05 31.6 -109.85 32.75 -110.2 Q38.1 -111.2 41.65 -109.15 L43.4 -107.75 Q48.95 -102.45 48.5 -87.05 L58.25 -84.1 Q58.65 -100.7 54.65 -110.4 51.25 -115.25 46.5 -117.4 42.0 -119.4 36.25 -119.0 M20.75 -98.4 Q20.2 -97.0 19.8 -95.4 18.6 -90.6 18.65 -85.6 L18.65 -82.05 18.85 -55.55 26.2 -56.6 26.05 -85.1 Q25.95 -88.4 26.45 -91.75 L26.8 -93.95 Q27.5 -97.55 28.6 -100.4 29.65 -103.3 31.05 -105.3 34.35 -109.7 41.65 -109.15 M31.6 -109.85 L28.75 -107.35 25.25 -105.85 24.95 -105.55 Q22.25 -102.7 20.75 -98.4 M75.15 -79.6 L74.85 -79.65 69.85 -79.75 67.45 -79.2 63.7 -78.25 59.5 -76.85 58.4 -76.4 51.5 -77.9 Q55.3 -79.4 59.55 -80.4 M66.15 1.7 Q67.05 1.3 67.9 0.85 L68.6 0.55 70.4 -0.35 71.85 0.1 75.25 1.1 M83.5 -78.35 L76.85 -79.5 75.15 -79.6 M67.4 -81.3 L74.85 -81.05 M27.35 -56.75 L27.35 -59.15 Q36.9 -72.15 51.5 -77.9 M59.55 -84.5 L58.25 -84.1 M48.9 -71.45 L48.2 -60.15 47.0 -69.8 46.8 -70.0 M18.85 -41.15 L14.9 -41.15 14.9 -43.85 17.05 -45.65 14.9 -47.4 14.9 -55.05 18.85 -55.55 M27.35 -55.05 L27.35 -56.75 26.2 -56.6 M27.35 -59.15 L32.0 -58.3 36.55 -60.15 M32.0 -58.3 L34.75 -55.1 M14.9 -55.05 L27.35 -55.05 27.35 -41.15 27.35 -11.4 27.35 -9.7 27.35 4.2 27.35 9.45 34.75 11.5 M27.35 -41.15 L26.3 -41.15 26.35 -35.95 26.5 -11.3 27.35 -11.4 M26.3 -41.15 L18.85 -41.15 18.9 -34.7 19.05 -10.25 14.9 -9.7 27.35 -9.7 M19.15 4.2 L14.9 4.2 14.9 1.5 17.05 -0.3 14.9 -2.05 14.9 -9.7 M26.5 -11.3 L19.05 -10.25 M106.85 -97.6 L107.0 -88.9 M87.8 -77.15 L83.5 -78.35 83.5 -57.25 84.85 -32.95 83.5 -17.15 83.5 3.5 M97.85 -70.35 L98.4 -65.1 100.05 -70.2 M83.5 -17.15 L82.55 -43.3 83.5 -57.25 M83.5 -78.35 L76.7 -80.85 M67.95 9.25 L67.9 0.85 M71.85 0.1 L68.6 0.55 M51.6 6.15 L52.2 2.4 53.45 7.7 M66.15 1.7 L59.15 5.0 M27.35 4.2 L26.55 4.2 26.6 6.95 26.6 12.5 19.25 15.75 19.2 14.0 19.2 8.65 19.15 4.2 26.55 4.2" fill="none" stroke="#000000" stroke-linecap="round" stroke-linejoin="round" stroke-opacity="0.65882355" stroke-width="1.0"/>
      <path d="M47.8 10.3 L47.65 11.15 M63.7 -78.25 Q63.3 -76.25 62.9 -68.85 62.4 -60.95 62.4 -55.05 L62.85 -46.55 62.8 -41.95 62.6 -38.9 Q62.6 -21.85 64.75 -18.2 L66.15 -15.3 Q66.85 -12.85 66.85 -6.8 L66.15 1.7 M75.15 -79.6 L76.75 1.55 M59.25 -55.65 L59.5 -56.35 M47.8 10.3 Q48.45 4.65 48.9 -10.35 49.35 -26.2 50.1 -31.0 L51.0 -38.85 Q51.4 -42.9 52.3 -45.7 53.2 -48.25 56.4 -51.8 58.65 -54.3 59.25 -55.65 M42.5 -66.5 Q42.1 -60.25 42.0 -50.8 L41.85 -33.9 Q41.8 -25.6 40.35 -20.55 38.6 -14.6 34.75 -12.25 M102.0 -68.45 L102.0 -40.6 M92.95 3.95 L92.95 -32.6" fill="none" stroke="#000000" stroke-linecap="round" stroke-linejoin="round" stroke-opacity="0.33333334" stroke-width="0.5"/>
    </g>
    <g id="sprite0" transform="matrix(1.0, 0.0, 0.0, 1.0, 58.15, 78.5)">
      <use height="157.0" transform="matrix(1.0, 0.0, 0.0, 1.0, -58.15, -78.5)" width="116.35" xlink:href="#shape1"/>
    </g>
    <g id="shape1" transform="matrix(1.0, 0.0, 0.0, 1.0, 58.15, 78.5)">
      <path d="M50.15 -48.75 L51.25 -54.2 48.85 -59.5 Q47.9 -64.5 46.25 -68.45 42.45 -73.9 37.1 -76.3 32.05 -78.55 25.65 -78.15 31.0 -78.85 36.4 -78.2 40.8 -77.55 45.05 -76.3 50.1 -74.0 53.8 -69.0 L54.2 -68.45 Q58.5 -57.95 58.2 -41.35 L50.3 -38.95 Q50.4 -44.15 50.15 -48.75" fill="url(#gradient0)" fill-rule="evenodd" stroke="none"/>
      <path d="M48.85 -59.5 L51.25 -54.2 50.15 -48.75 48.4 -53.25 48.85 -59.5" fill="url(#gradient1)" fill-rule="evenodd" stroke="none"/>
      <path d="M28.8 -25.75 Q31.9 -24.65 34.7 -23.2 37.4 -21.8 39.85 -20.05 L40.05 -18.15 40.65 -12.25 42.55 -17.95 44.7 -16.0 48.05 -12.55 48.05 63.8 47.65 63.85 43.95 63.0 38.05 64.85 28.0 65.9 23.95 64.75 23.95 41.55 25.45 23.85 23.95 -3.45 23.95 -27.1 28.8 -25.75" fill="url(#gradient2)" fill-rule="evenodd" stroke="none"/>
      <path d="M16.3 -29.95 Q23.15 -28.35 28.8 -25.75 L23.95 -27.1 16.3 -29.95" fill="url(#gradient3)" fill-rule="evenodd" stroke="none"/>
      <path d="M40.05 -18.15 L42.55 -17.95 40.65 -12.25 40.05 -18.15" fill="url(#gradient4)" fill-rule="evenodd" stroke="none"/>
      <path d="M0.55 -60.2 Q3.75 -50.4 3.45 -35.95 L-2.95 -34.0 -4.4 -33.6 Q-3.95 -52.2 -8.45 -63.1 -12.25 -68.55 -17.6 -70.95 -22.65 -73.2 -29.1 -72.75 -23.7 -73.45 -18.35 -72.85 -13.9 -72.2 -9.65 -70.95 -4.3 -68.55 -0.5 -63.1 L0.55 -60.2" fill="url(#gradient5)" fill-rule="evenodd" stroke="none"/>
      <path d="M23.95 -3.45 L25.45 23.85 23.95 41.55 22.9 12.25 23.95 -3.45" fill="url(#gradient6)" fill-rule="evenodd" stroke="none"/>
      <path d="M-41.8 -57.65 L-39.45 -62.7 -34.3 -62.5 -37.5 -59.7 -41.45 -58.0 -41.8 -57.65" fill="url(#gradient7)" fill-rule="evenodd" stroke="none"/>
      <path d="M-40.35 -2.7 L-39.1 -2.85 -39.1 -0.95 -53.05 -0.95 -48.65 -1.55 -40.35 -2.7" fill="url(#gradient8)" fill-rule="evenodd" stroke="none"/>
      <path d="M-39.1 -5.55 Q-28.35 -20.15 -12.0 -26.6 L-4.25 -24.95 Q-9.9 -22.65 -14.9 -19.35 L-20.05 -20.1 -17.25 -17.75 -22.05 -13.8 Q-25.65 -10.55 -28.75 -6.7 L-33.85 -4.6 -39.1 -5.55" fill="url(#gradient9)" fill-rule="evenodd" stroke="none"/>
      <path d="M-28.75 -6.7 L-30.8 -1.0 -33.85 -4.6 -28.75 -6.7" fill="url(#gradient10)" fill-rule="evenodd" stroke="none"/>
      <path d="M-30.8 73.75 L-39.1 71.45 -39.1 65.55 -39.1 49.95 -39.1 48.05 -39.1 14.65 -39.1 -0.95 -39.1 -2.85 -39.1 -5.55 -33.85 -4.6 -30.8 -1.0 -30.8 73.75" fill="url(#gradient11)" fill-rule="evenodd" stroke="none"/>
      <path d="M-14.9 -19.35 L-15.7 -6.7 -17.0 -17.5 -17.25 -17.75 -20.05 -20.1 -14.9 -19.35" fill="url(#gradient12)" fill-rule="evenodd" stroke="none"/>
      <path d="M-4.25 66.85 L-9.8 69.45 -11.2 63.5 -11.85 67.75 -12.25 70.6 -16.05 72.4 -16.15 72.4 -30.8 73.75 -30.8 -1.0 -28.75 -6.7 Q-25.65 -10.55 -22.05 -13.8 L-17.25 -17.75 -17.0 -17.5 -15.7 -6.7 -14.9 -19.35 Q-9.9 -22.65 -4.25 -24.95 L-2.75 10.15 -4.65 38.7 -4.25 66.85" fill="url(#gradient13)" fill-rule="evenodd" stroke="none"/>
      <path d="M-9.8 69.45 L-11.85 67.75 -11.2 63.5 -9.8 69.45" fill="url(#gradient14)" fill-rule="evenodd" stroke="none"/>
      <path d="M23.95 64.75 L14.7 62.05 10.85 60.95 9.25 60.45 7.2 61.45 6.45 61.8 -3.4 66.45 -4.25 66.85 -4.65 38.7 -2.75 10.15 -4.25 -24.95 -3.0 -25.45 1.75 -27.0 5.95 -28.1 8.65 -28.7 14.25 -28.6 14.55 -28.55 16.5 -28.4 23.95 -27.1 23.95 -3.45 22.9 12.25 23.95 41.55 23.95 64.75" fill="url(#gradient15)" fill-rule="evenodd" stroke="none"/>
      <path d="M-2.95 -29.45 L0.35 -30.15 5.9 -30.45 14.25 -30.15 16.3 -29.95 23.95 -27.1 16.5 -28.4 14.55 -28.55 14.25 -28.6 8.65 -28.7 5.95 -28.1 1.75 -27.0 -3.0 -25.45 -4.25 -24.95 -12.0 -26.6 Q-7.7 -28.3 -2.95 -29.45" fill="url(#gradient16)" fill-rule="evenodd" stroke="none"/>
      <path d="M7.2 61.45 L9.25 60.45 10.85 60.95 7.2 61.45" fill="url(#gradient17)" fill-rule="evenodd" stroke="none"/>
      <path d="M48.85 -59.5 L48.4 -53.25 50.15 -48.75 Q50.4 -44.15 50.3 -38.95 L39.35 -42.3 Q39.9 -59.6 33.65 -65.5 L31.65 -67.05 Q27.7 -69.4 21.75 -68.3 12.5 -65.6 8.65 -56.25 7.75 -54.1 7.15 -51.6 5.8 -46.25 5.85 -40.6 L5.85 -36.6 5.9 -30.45 0.35 -30.15 -2.95 -29.45 -2.95 -34.0 3.45 -35.95 Q3.75 -50.4 0.55 -60.2 5.55 -72.3 17.25 -76.65 21.2 -77.75 24.75 -78.05 L25.65 -78.15 Q32.05 -78.55 37.1 -76.3 42.45 -73.9 46.25 -68.45 47.9 -64.5 48.85 -59.5" fill="url(#gradient18)" fill-rule="evenodd" stroke="none"/>
      <path d="M5.9 -30.45 L5.85 -36.6 5.85 -40.6 Q5.8 -46.25 7.15 -51.6 7.75 -54.1 8.65 -56.25 12.5 -65.6 21.75 -68.3 27.7 -69.4 31.65 -67.05 23.55 -67.65 19.8 -62.8 18.35 -60.7 17.25 -57.75 L17.0 -57.15 13.9 -54.0 15.0 -49.9 14.6 -47.5 Q14.05 -43.8 14.2 -40.1 L14.25 -30.15 5.9 -30.45" fill="url(#gradient19)" fill-rule="evenodd" stroke="none"/>
      <path d="M-48.25 76.55 L-48.25 78.5 -58.15 74.85 -57.65 -30.55 -57.6 -33.2 Q-57.6 -39.55 -56.75 -45.8 -53.15 -65.4 -37.45 -71.25 -33.5 -72.35 -29.95 -72.7 L-29.1 -72.75 Q-22.65 -73.2 -17.6 -70.95 -12.25 -68.55 -8.45 -63.1 -3.95 -52.2 -4.4 -33.6 L-15.35 -36.9 Q-14.85 -54.2 -21.05 -60.15 L-23.05 -61.7 Q-27.0 -64.0 -33.0 -62.9 L-34.3 -62.5 -39.45 -62.7 -41.8 -57.65 Q-44.8 -54.45 -46.5 -49.65 L-47.55 -46.25 Q-48.9 -40.85 -48.85 -35.25 L-48.85 -31.25 -48.65 -1.55 -53.05 -0.95 -53.05 7.6 -50.65 9.6 -53.05 11.6 -53.05 14.65 -48.6 14.65 -48.4 49.3 -53.05 49.95 -53.05 58.5 -50.65 60.5 -53.05 62.5 -53.05 65.55 -48.3 65.55 -48.25 76.55" fill="url(#gradient20)" fill-rule="evenodd" stroke="none"/>
      <path d="M-41.8 -57.65 L-41.45 -58.0 -37.5 -59.7 -34.3 -62.5 -33.0 -62.9 Q-27.0 -64.0 -23.05 -61.7 -31.2 -62.3 -34.9 -57.4 -36.5 -55.1 -37.7 -51.85 -38.9 -48.7 -39.7 -44.65 L-40.1 -42.15 Q-40.65 -38.4 -40.55 -34.7 L-40.35 -2.7 -48.65 -1.55 -48.85 -31.25 -48.85 -35.25 Q-48.9 -40.85 -47.55 -46.25 L-46.5 -49.65 Q-44.8 -54.45 -41.8 -57.65" fill="url(#gradient21)" fill-rule="evenodd" stroke="none"/>
      <path d="M-53.05 -0.95 L-39.1 -0.95 -39.1 14.65 -40.25 14.65 -48.6 14.65 -53.05 14.65 -53.05 11.6 -50.65 9.6 -53.05 7.6 -53.05 -0.95" fill="url(#gradient22)" fill-rule="evenodd" stroke="none"/>
      <path d="M-40.05 48.15 L-39.1 48.05 -39.1 49.95 -53.05 49.95 -48.4 49.3 -40.05 48.15" fill="url(#gradient23)" fill-rule="evenodd" stroke="none"/>
      <path d="M-39.1 65.55 L-40.0 65.55 -48.3 65.55 -53.05 65.55 -53.05 62.5 -50.65 60.5 -53.05 58.5 -53.05 49.95 -39.1 49.95 -39.1 65.55" fill="url(#gradient24)" fill-rule="evenodd" stroke="none"/>
      <path d="M14.7 62.05 L14.75 69.5 6.5 73.15 6.5 71.2 6.45 61.8 7.2 61.45 10.85 60.95 14.7 62.05" fill="url(#gradient25)" fill-rule="evenodd" stroke="none"/>
      <path d="M-40.0 65.55 L-39.95 74.85 -48.2 78.5 -48.25 76.55 -48.3 65.55 -40.0 65.55" fill="url(#gradient26)" fill-rule="evenodd" stroke="none"/>
      <path d="M-40.25 14.65 L-40.05 48.15 -48.4 49.3 -48.6 14.65 -40.25 14.65" fill="url(#gradient27)" fill-rule="evenodd" stroke="none"/>
      <path d="M6.5 71.2 L6.45 73.15 -3.4 69.5 -3.4 66.45 6.45 61.8 6.5 71.2" fill="url(#gradient28)" fill-rule="evenodd" stroke="none"/>
    </g>
    <linearGradient gradientTransform="matrix(0.0199, 0.0, 0.0, 0.0241, 41.9, -58.75)" gradientUnits="userSpaceOnUse" id="gradient0" spreadMethod="pad" x1="-819.2" x2="819.2">
      <stop offset="0.0" stop-color="#000000"/>
      <stop offset="1.0" stop-color="#ffffff"/>
    </linearGradient>
    <linearGradient gradientTransform="matrix(0.0017, 0.0, 0.0, 0.0066, 49.8, -54.15)" gradientUnits="userSpaceOnUse" id="gradient1" spreadMethod="pad" x1="-819.2" x2="819.2">
      <stop offset="0.0" stop-color="#000000"/>
      <stop offset="1.0" stop-color="#ffffff"/>
    </linearGradient>
    <linearGradient gradientTransform="matrix(0.0147, 0.0, 0.0, 0.0568, 36.0, 19.4)" gradientUnits="userSpaceOnUse" id="gradient2" spreadMethod="pad" x1="-819.2" x2="819.2">
      <stop offset="0.0" stop-color="#000000"/>
      <stop offset="1.0" stop-color="#ffffff"/>
    </linearGradient>
    <linearGradient gradientTransform="matrix(0.0076, 0.0, 0.0, 0.0026, 22.55, -27.85)" gradientUnits="userSpaceOnUse" id="gradient3" spreadMethod="pad" x1="-819.2" x2="819.2">
      <stop offset="0.0" stop-color="#000000"/>
      <stop offset="1.0" stop-color="#ffffff"/>
    </linearGradient>
    <linearGradient gradientTransform="matrix(0.0015, 0.0, 0.0, 0.0036, 41.3, -15.2)" gradientUnits="userSpaceOnUse" id="gradient4" spreadMethod="pad" x1="-819.2" x2="819.2">
      <stop offset="0.0" stop-color="#000000"/>
      <stop offset="1.0" stop-color="#ffffff"/>
    </linearGradient>
    <linearGradient gradientTransform="matrix(0.0199, 0.0, 0.0, 0.0241, -12.8, -53.4)" gradientUnits="userSpaceOnUse" id="gradient5" spreadMethod="pad" x1="-819.2" x2="819.2">
      <stop offset="0.0" stop-color="#000000"/>
      <stop offset="1.0" stop-color="#ffffff"/>
    </linearGradient>
    <linearGradient gradientTransform="matrix(0.0016, 0.0, 0.0, 0.0275, 24.15, 19.05)" gradientUnits="userSpaceOnUse" id="gradient6" spreadMethod="pad" x1="-819.2" x2="819.2">
      <stop offset="0.0" stop-color="#000000"/>
      <stop offset="1.0" stop-color="#ffffff"/>
    </linearGradient>
    <linearGradient gradientTransform="matrix(0.0046, 0.0, 0.0, 0.0031, -38.05, -60.2)" gradientUnits="userSpaceOnUse" id="gradient7" spreadMethod="pad" x1="-819.2" x2="819.2">
      <stop offset="0.0" stop-color="#000000"/>
      <stop offset="1.0" stop-color="#ffffff"/>
    </linearGradient>
    <linearGradient gradientTransform="matrix(0.0085, 0.0, 0.0, 0.0012, -46.1, -1.9)" gradientUnits="userSpaceOnUse" id="gradient8" spreadMethod="pad" x1="-819.2" x2="819.2">
      <stop offset="0.0" stop-color="#000000"/>
      <stop offset="1.0" stop-color="#ffffff"/>
    </linearGradient>
    <linearGradient gradientTransform="matrix(0.0213, 0.0, 0.0, 0.0134, -21.7, -15.6)" gradientUnits="userSpaceOnUse" id="gradient9" spreadMethod="pad" x1="-819.2" x2="819.2">
      <stop offset="0.0" stop-color="#000000"/>
      <stop offset="1.0" stop-color="#ffffff"/>
    </linearGradient>
    <linearGradient gradientTransform="matrix(0.0031, 0.0, 0.0, 0.0035, -31.3, -3.85)" gradientUnits="userSpaceOnUse" id="gradient10" spreadMethod="pad" x1="-819.2" x2="819.2">
      <stop offset="0.0" stop-color="#000000"/>
      <stop offset="1.0" stop-color="#ffffff"/>
    </linearGradient>
    <linearGradient gradientTransform="matrix(0.0051, 0.0, 0.0, 0.0484, -34.95, 34.1)" gradientUnits="userSpaceOnUse" id="gradient11" spreadMethod="pad" x1="-819.2" x2="819.2">
      <stop offset="0.0" stop-color="#000000"/>
      <stop offset="1.0" stop-color="#ffffff"/>
    </linearGradient>
    <linearGradient gradientTransform="matrix(0.0031, 0.0, 0.0, 0.0082, -17.5, -13.4)" gradientUnits="userSpaceOnUse" id="gradient12" spreadMethod="pad" x1="-819.2" x2="819.2">
      <stop offset="0.0" stop-color="#000000"/>
      <stop offset="1.0" stop-color="#ffffff"/>
    </linearGradient>
    <linearGradient gradientTransform="matrix(0.0168, 0.0, 0.0, 0.0602, -17.05, 24.4)" gradientUnits="userSpaceOnUse" id="gradient13" spreadMethod="pad" x1="-819.2" x2="819.2">
      <stop offset="0.0" stop-color="#000000"/>
      <stop offset="1.0" stop-color="#ffffff"/>
    </linearGradient>
    <linearGradient gradientTransform="matrix(0.0013, 0.0, 0.0, 0.0036, -10.85, 66.45)" gradientUnits="userSpaceOnUse" id="gradient14" spreadMethod="pad" x1="-819.2" x2="819.2">
      <stop offset="0.0" stop-color="#000000"/>
      <stop offset="1.0" stop-color="#ffffff"/>
    </linearGradient>
    <linearGradient gradientTransform="matrix(0.0098, 0.0, 0.0, 0.0558, 8.3, 17.0)" gradientUnits="userSpaceOnUse" id="gradient15" spreadMethod="pad" x1="-819.2" x2="819.2">
      <stop offset="0.0" stop-color="#000000"/>
      <stop offset="1.0" stop-color="#ffffff"/>
    </linearGradient>
    <linearGradient gradientTransform="matrix(0.0219, 0.0, 0.0, 0.0034, 5.95, -27.7)" gradientUnits="userSpaceOnUse" id="gradient16" spreadMethod="pad" x1="-819.2" x2="819.2">
      <stop offset="0.0" stop-color="#000000"/>
      <stop offset="1.0" stop-color="#ffffff"/>
    </linearGradient>
    <linearGradient gradientTransform="matrix(0.0022, 0.0, 0.0, 6.0E-4, 9.0, 60.95)" gradientUnits="userSpaceOnUse" id="gradient17" spreadMethod="pad" x1="-819.2" x2="819.2">
      <stop offset="0.0" stop-color="#000000"/>
      <stop offset="1.0" stop-color="#ffffff"/>
    </linearGradient>
    <linearGradient gradientTransform="matrix(0.0325, 0.0, 0.0, 0.0298, 23.7, -53.85)" gradientUnits="userSpaceOnUse" id="gradient18" spreadMethod="pad" x1="-819.2" x2="819.2">
      <stop offset="0.0" stop-color="#000000"/>
      <stop offset="1.0" stop-color="#ffffff"/>
    </linearGradient>
    <linearGradient gradientTransform="matrix(0.0157, 0.0, 0.0, 0.0235, 18.75, -49.4)" gradientUnits="userSpaceOnUse" id="gradient19" spreadMethod="pad" x1="-819.2" x2="819.2">
      <stop offset="0.0" stop-color="#000000"/>
      <stop offset="1.0" stop-color="#ffffff"/>
    </linearGradient>
    <linearGradient gradientTransform="matrix(0.0328, 0.0, 0.0, 0.0923, -31.25, 2.85)" gradientUnits="userSpaceOnUse" id="gradient20" spreadMethod="pad" x1="-819.2" x2="819.2">
      <stop offset="0.0" stop-color="#000000"/>
      <stop offset="1.0" stop-color="#ffffff"/>
    </linearGradient>
    <linearGradient gradientTransform="matrix(0.0157, 0.0, 0.0, 0.0377, -35.95, -32.4)" gradientUnits="userSpaceOnUse" id="gradient21" spreadMethod="pad" x1="-819.2" x2="819.2">
      <stop offset="0.0" stop-color="#000000"/>
      <stop offset="1.0" stop-color="#ffffff"/>
    </linearGradient>
    <linearGradient gradientTransform="matrix(0.0085, 0.0, 0.0, 0.0095, -46.1, 6.85)" gradientUnits="userSpaceOnUse" id="gradient22" spreadMethod="pad" x1="-819.2" x2="819.2">
      <stop offset="0.0" stop-color="#000000"/>
      <stop offset="1.0" stop-color="#ffffff"/>
    </linearGradient>
    <linearGradient gradientTransform="matrix(0.0085, 0.0, 0.0, 0.0012, -46.1, 49.0)" gradientUnits="userSpaceOnUse" id="gradient23" spreadMethod="pad" x1="-819.2" x2="819.2">
      <stop offset="0.0" stop-color="#000000"/>
      <stop offset="1.0" stop-color="#ffffff"/>
    </linearGradient>
    <linearGradient gradientTransform="matrix(0.0085, 0.0, 0.0, 0.0095, -46.1, 57.75)" gradientUnits="userSpaceOnUse" id="gradient24" spreadMethod="pad" x1="-819.2" x2="819.2">
      <stop offset="0.0" stop-color="#000000"/>
      <stop offset="1.0" stop-color="#ffffff"/>
    </linearGradient>
    <linearGradient gradientTransform="matrix(0.0, 0.0051, -0.0074, 0.0, 10.6, 67.05)" gradientUnits="userSpaceOnUse" id="gradient25" spreadMethod="pad" x1="-819.2" x2="819.2">
      <stop offset="0.0" stop-color="#000000"/>
      <stop offset="1.0" stop-color="#ffffff"/>
    </linearGradient>
    <linearGradient gradientTransform="matrix(0.0, 0.0051, -0.0079, 0.0, -44.15, 72.0)" gradientUnits="userSpaceOnUse" id="gradient26" spreadMethod="pad" x1="-819.2" x2="819.2">
      <stop offset="0.0" stop-color="#000000"/>
      <stop offset="1.0" stop-color="#ffffff"/>
    </linearGradient>
    <linearGradient gradientTransform="matrix(0.0, 0.0264, -0.0211, 0.0, -44.6, 58.3)" gradientUnits="userSpaceOnUse" id="gradient27" spreadMethod="pad" x1="-819.2" x2="819.2">
      <stop offset="0.0" stop-color="#000000"/>
      <stop offset="1.0" stop-color="#ffffff"/>
    </linearGradient>
    <linearGradient gradientTransform="matrix(0.0, 0.006, -0.0069, 0.0, 1.6, 67.5)" gradientUnits="userSpaceOnUse" id="gradient28" spreadMethod="pad" x1="-819.2" x2="819.2">
      <stop offset="0.0" stop-color="#000000"/>
      <stop offset="1.0" stop-color="#ffffff"/>
    </linearGradient>
  </defs>
</svg>
