<?xml version="1.0" encoding="UTF-8" standalone="no"?>
<svg xmlns:xlink="http://www.w3.org/1999/xlink" height="531.5px" width="460.6px" xmlns="http://www.w3.org/2000/svg">
  <g transform="matrix(1.0, 0.0, 0.0, 1.0, 193.65, 334.05)">
    <use height="84.95" transform="matrix(0.4557, 0.0, 0.0, 0.4557, 14.8221, -38.0279)" width="83.3" xlink:href="#sprite0"/>
  </g>
  <defs>
    <g id="sprite0" transform="matrix(1.0, 0.0, 0.0, 1.0, 0.5, 0.5)">
      <use height="84.95" transform="matrix(1.0, 0.0, 0.0, 1.0, -0.5, -0.5)" width="83.3" xlink:href="#shape0"/>
      <use height="83.95" transform="matrix(1.0, 0.0, 0.0, 1.0, 0.0, 0.0)" width="82.3" xlink:href="#sprite1"/>
    </g>
    <g id="shape0" transform="matrix(1.0, 0.0, 0.0, 1.0, 0.5, 0.5)">
      <path d="M18.1 0.25 Q31.75 -1.85 41.15 13.1 50.5 -1.85 64.15 0.25 78.85 3.85 81.55 16.4 84.15 28.95 77.85 39.6 70.0 55.15 41.1 83.95 12.3 55.15 4.4 39.6 -1.85 28.95 0.75 16.4 3.4 3.85 18.1 0.25" fill="#e30202" fill-rule="evenodd" stroke="none"/>
      <path d="M18.1 0.25 Q31.75 -1.85 41.15 13.1 50.5 -1.85 64.15 0.25 78.85 3.85 81.55 16.4 84.15 28.95 77.85 39.6 70.0 55.15 41.1 83.95 12.3 55.15 4.4 39.6 -1.85 28.95 0.75 16.4 3.4 3.85 18.1 0.25 Z" fill="none" stroke="#000000" stroke-linecap="round" stroke-linejoin="round" stroke-opacity="0.6627451" stroke-width="1.0"/>
    </g>
    <g id="sprite1" transform="matrix(1.0, 0.0, 0.0, 1.0, 0.0, 0.0)">
      <use height="83.95" transform="matrix(1.0, 0.0, 0.0, 1.0, 0.0, 0.0)" width="82.3" xlink:href="#shape1"/>
    </g>
    <g id="shape1" transform="matrix(1.0, 0.0, 0.0, 1.0, 0.0, 0.0)">
      <path d="M18.1 0.25 Q31.75 -1.85 41.15 13.1 50.5 -1.85 64.15 0.25 78.85 3.85 81.55 16.4 84.15 28.95 77.85 39.6 70.0 55.15 41.1 83.95 12.3 55.15 4.4 39.6 -1.85 28.95 0.75 16.4 3.4 3.85 18.1 0.25" fill="url(#gradient0)" fill-rule="evenodd" stroke="none"/>
    </g>
    <linearGradient gradientTransform="matrix(-0.0085, -0.0466, 0.0504, -0.0091, 41.1, 41.45)" gradientUnits="userSpaceOnUse" id="gradient0" spreadMethod="pad" x1="-819.2" x2="819.2">
      <stop offset="0.0" stop-color="#000000"/>
      <stop offset="1.0" stop-color="#ffffff"/>
    </linearGradient>
  </defs>
</svg>
