<?xml version="1.0" encoding="UTF-8" standalone="no"?>
<svg xmlns:xlink="http://www.w3.org/1999/xlink" height="531.5px" width="460.6px" xmlns="http://www.w3.org/2000/svg">
  <g transform="matrix(1.0, 0.0, 0.0, 1.0, 193.65, 334.05)">
    <use height="20.85" transform="matrix(2.0067, 0.0, 0.0, 2.0067, -37.5534, -143.2534)" width="40.7" xlink:href="#sprite0"/>
  </g>
  <defs>
    <g id="sprite0" transform="matrix(1.0, 0.0, 0.0, 1.0, 0.5, 0.5)">
      <use height="20.85" transform="matrix(1.0, 0.0, 0.0, 1.0, -0.5, -0.5)" width="40.7" xlink:href="#shape0"/>
      <use height="19.85" transform="matrix(1.0, 0.0, 0.0, 1.0, 0.0, 0.0)" width="39.7" xlink:href="#sprite1"/>
    </g>
    <g id="shape0" transform="matrix(1.0, 0.0, 0.0, 1.0, 0.5, 0.5)">
      <path d="M35.55 0.55 L39.7 0.85 38.8 3.9 Q38.35 2.6 37.0 2.85 L36.8 2.95 35.55 0.55 M14.7 0.35 L17.35 0.0 Q15.8 1.3 15.2 3.9 L13.95 3.2 14.05 1.55 14.7 0.35" fill="#eaeaea" fill-rule="evenodd" stroke="none"/>
      <path d="M35.55 0.55 L36.8 2.95 35.5 3.45 Q34.85 1.35 33.55 0.3 L35.55 0.55 M11.7 4.05 Q11.05 2.65 10.5 0.7 L14.7 0.35 14.05 1.55 13.95 3.2 12.85 3.0 11.7 4.05" fill="#ffffff" fill-rule="evenodd" stroke="none"/>
      <path d="M36.8 2.95 L37.0 2.85 Q38.35 2.6 38.8 3.9 L37.5 6.05 Q37.35 4.4 36.8 2.95 M15.2 3.9 Q14.8 5.4 14.75 7.35 L14.3 7.15 Q13.95 5.25 13.95 4.05 L13.95 3.2 15.2 3.9 M0.15 6.7 L1.35 6.85 Q1.95 6.85 2.45 6.45 L2.6 6.35 Q2.85 6.9 2.2 7.3 1.3 8.6 0.35 7.3 L0.15 6.7 M2.35 11.4 L2.65 11.5 3.75 11.65 4.85 11.45 6.15 11.25 Q6.05 11.4 6.25 11.95 L6.75 12.85 8.15 12.85 8.4 11.0 Q8.45 10.35 9.0 10.0 11.0 11.35 10.0 12.85 L9.05 15.35 9.2 18.5 Q7.85 21.45 7.45 18.05 L7.9 15.35 Q8.1 13.5 6.6 15.15 5.05 16.75 5.3 12.8 3.55 14.7 2.6 12.2 2.3 11.75 2.35 11.4" fill="#7e0101" fill-rule="evenodd" stroke="none"/>
      <path d="M37.5 6.05 L35.95 7.1 Q35.9 5.0 35.5 3.45 L36.8 2.95 Q37.35 4.4 37.5 6.05 M14.3 7.15 Q12.8 6.4 11.7 4.05 L12.85 3.0 13.95 3.2 13.95 4.05 Q13.95 5.25 14.3 7.15 M0.15 6.7 L0.0 6.15 Q1.45 5.25 2.3 5.9 L2.6 6.35 2.45 6.45 Q1.95 6.85 1.35 6.85 L0.15 6.7 M9.0 10.0 Q8.45 10.35 8.4 11.0 L8.15 12.85 6.75 12.85 6.25 11.95 Q6.05 11.4 6.15 11.25 L4.85 11.45 3.75 11.65 2.65 11.5 2.35 11.4 Q2.4 10.9 3.05 10.5 4.45 9.4 5.85 9.85 5.05 9.35 5.25 7.9 5.6 5.35 7.25 7.2 8.3 7.15 8.45 8.1 L8.85 9.9 9.0 10.0" fill="#c40000" fill-rule="evenodd" stroke="none"/>
      <path d="M38.8 3.9 L39.7 0.85 35.55 0.55 33.55 0.3 Q34.85 1.35 35.5 3.45 L36.8 2.95 37.0 2.85 Q38.35 2.6 38.8 3.9 L37.5 6.05 35.95 7.1 Q35.9 5.0 35.5 3.45 M14.7 0.35 L17.35 0.0 Q15.8 1.3 15.2 3.9 14.8 5.4 14.75 7.35 L14.3 7.15 Q12.8 6.4 11.7 4.05 11.05 2.65 10.5 0.7 L14.7 0.35 M13.95 3.2 L15.2 3.9 M13.95 3.2 L12.85 3.0 11.7 4.05 M2.6 6.35 L2.3 5.9 Q1.45 5.25 0.0 6.15 L0.15 6.7 0.35 7.3 Q1.3 8.6 2.2 7.3 2.85 6.9 2.6 6.35 M9.0 10.0 L8.85 9.9 8.45 8.1 Q8.3 7.15 7.25 7.2 5.6 5.35 5.25 7.9 5.05 9.35 5.85 9.85 4.45 9.4 3.05 10.5 2.4 10.9 2.35 11.4 2.3 11.75 2.6 12.2 3.55 14.7 5.3 12.8 5.05 16.75 6.6 15.15 8.1 13.5 7.9 15.35 L7.45 18.05 Q7.85 21.45 9.2 18.5 L9.05 15.35 10.0 12.85 Q11.0 11.35 9.0 10.0" fill="none" stroke="#000000" stroke-linecap="round" stroke-linejoin="round" stroke-opacity="0.6627451" stroke-width="1.0"/>
    </g>
    <g id="sprite1" transform="matrix(1.0, 0.0, 0.0, 1.0, 0.0, 0.0)">
      <use height="19.85" transform="matrix(1.0, 0.0, 0.0, 1.0, 0.0, 0.0)" width="39.7" xlink:href="#shape1"/>
    </g>
    <g id="shape1" transform="matrix(1.0, 0.0, 0.0, 1.0, 0.0, 0.0)">
      <path d="M2.6 6.35 L2.65 6.45 2.45 6.45 2.6 6.35" fill="url(#gradient0)" fill-rule="evenodd" stroke="none"/>
      <path d="M17.35 0.0 Q15.8 1.3 15.2 3.9 14.8 5.4 14.75 7.35 L14.3 7.15 Q12.8 6.4 11.7 4.05 11.05 2.65 10.5 0.7 L14.7 0.35 17.35 0.0" fill="url(#gradient1)" fill-rule="evenodd" stroke="none"/>
      <path d="M33.55 0.3 L35.55 0.55 39.7 0.85 38.8 3.9 37.5 6.05 35.95 7.1 Q35.9 5.0 35.5 3.45 34.85 1.35 33.55 0.3" fill="url(#gradient2)" fill-rule="evenodd" stroke="none"/>
      <path d="M2.65 6.45 Q2.8 6.95 2.2 7.3 1.3 8.6 0.35 7.3 L0.0 6.15 Q1.45 5.25 2.3 5.9 L2.6 6.35 2.45 6.45 2.65 6.45" fill="url(#gradient3)" fill-rule="evenodd" stroke="none"/>
      <path d="M3.05 10.5 Q4.45 9.4 5.85 9.85 5.05 9.35 5.25 7.9 5.6 5.35 7.25 7.2 8.3 7.15 8.45 8.1 L8.85 9.9 9.0 10.0 Q11.0 11.35 10.0 12.85 L9.05 15.35 9.2 18.5 Q7.85 21.45 7.45 18.05 L7.9 15.35 Q8.1 13.5 6.6 15.15 5.05 16.75 5.3 12.8 3.55 14.7 2.6 12.2 2.3 11.75 2.35 11.4 2.4 10.9 3.05 10.5" fill="url(#gradient4)" fill-rule="evenodd" stroke="none"/>
    </g>
    <linearGradient gradientTransform="matrix(1.0E-4, 0.0, 0.0, 1.0E-4, 2.55, 6.4)" gradientUnits="userSpaceOnUse" id="gradient0" spreadMethod="pad" x1="-819.2" x2="819.2">
      <stop offset="0.0" stop-color="#000000"/>
      <stop offset="1.0" stop-color="#ffffff"/>
    </linearGradient>
    <linearGradient gradientTransform="matrix(-0.0048, 0.0048, -0.0032, -0.0032, 13.9, 3.65)" gradientUnits="userSpaceOnUse" id="gradient1" spreadMethod="pad" x1="-819.2" x2="819.2">
      <stop offset="0.0" stop-color="#000000"/>
      <stop offset="1.0" stop-color="#ffffff"/>
    </linearGradient>
    <linearGradient gradientTransform="matrix(0.0051, 0.003, -0.0021, 0.0036, 36.6, 3.7)" gradientUnits="userSpaceOnUse" id="gradient2" spreadMethod="pad" x1="-819.2" x2="819.2">
      <stop offset="0.0" stop-color="#000000"/>
      <stop offset="1.0" stop-color="#ffffff"/>
    </linearGradient>
    <linearGradient gradientTransform="matrix(-0.0021, -0.0036, 0.0012, -7.0E-4, 1.4, 6.8)" gradientUnits="userSpaceOnUse" id="gradient3" spreadMethod="pad" x1="-819.2" x2="819.2">
      <stop offset="0.0" stop-color="#000000"/>
      <stop offset="1.0" stop-color="#ffffff"/>
    </linearGradient>
    <linearGradient gradientTransform="matrix(-0.0118, -0.0118, 0.0058, -0.0058, 6.4, 13.35)" gradientUnits="userSpaceOnUse" id="gradient4" spreadMethod="pad" x1="-819.2" x2="819.2">
      <stop offset="0.0" stop-color="#000000"/>
      <stop offset="1.0" stop-color="#ffffff"/>
    </linearGradient>
  </defs>
</svg>
