<?xml version="1.0" encoding="UTF-8" standalone="no"?>
<svg xmlns:xlink="http://www.w3.org/1999/xlink" height="531.5px" width="460.6px" xmlns="http://www.w3.org/2000/svg">
  <g transform="matrix(1.0, 0.0, 0.0, 1.0, 193.65, 334.05)">
    <use height="68.95" transform="matrix(0.4687, 0.0, 0.0, 0.4687, -70.3226, -31.2463)" width="282.7" xlink:href="#sprite0"/>
  </g>
  <defs>
    <g id="sprite0" transform="matrix(1.0, 0.0, 0.0, 1.0, 141.4, 34.45)">
      <use height="68.95" transform="matrix(1.0, 0.0, 0.0, 1.0, -141.4, -34.45)" width="282.7" xlink:href="#shape0"/>
      <use height="65.5" transform="matrix(1.0, 0.0, 0.0, 1.0, -139.55, -32.75)" width="279.2" xlink:href="#sprite1"/>
    </g>
    <g id="shape0" transform="matrix(1.0, 0.0, 0.0, 1.0, 141.4, 34.45)">
      <path d="M-139.3 -24.15 Q-140.25 -27.8 -138.7 -30.65 -137.6 -32.75 -133.6 -32.7 L-70.35 -22.45 Q-18.3 -13.3 30.1 -10.35 L37.6 -10.15 36.85 -9.6 Q36.6 -9.55 36.3 -8.65 35.65 -8.25 35.1 -6.85 L34.75 -5.8 33.45 -2.05 33.05 -0.7 Q32.7 0.35 32.5 1.55 L32.05 3.55 31.95 4.35 32.05 8.15 32.15 9.35 32.4 10.75 32.35 10.75 -6.9 7.8 -52.2 4.75 Q-73.65 2.5 -94.5 -1.95 -107.7 -4.8 -119.15 -12.05 -122.65 -13.55 -125.1 -15.8 -126.35 -16.95 -128.3 -18.2 L-135.35 -22.8 Q-136.65 -23.65 -139.3 -24.15 M101.55 -12.4 Q125.9 -15.45 136.3 -22.15 139.15 -22.3 138.7 -17.15 138.2 -12.0 137.6 -10.1 L137.55 -10.05 136.7 -8.35 136.0 -7.1 Q126.0 10.45 105.5 8.15 107.9 -2.2 102.55 -10.95 L101.55 -12.4 M63.15 16.15 L63.15 16.1 Q62.4 15.95 61.85 15.25 60.75 14.8 59.9 13.9 58.75 12.75 57.85 10.95 L57.55 10.3 56.8 8.6 Q56.15 7.25 55.85 5.35 L55.65 4.35 Q55.35 2.55 55.35 0.55 55.4 -1.6 56.05 -3.65 56.55 -5.6 57.95 -7.5 L58.45 -8.05 Q59.1 -8.5 59.25 -9.45 59.05 -9.75 59.25 -10.0 L67.4 -10.15 73.4 -10.35 81.85 -10.7 Q90.3 -0.8 84.55 11.3 83.5 13.55 81.85 15.55 L73.4 15.8 67.4 16.0 63.55 16.1 63.15 16.15 M132.8 -5.25 Q134.85 -6.0 136.0 -7.1 134.85 -6.0 132.8 -5.25" fill="#ffffff" fill-rule="evenodd" stroke="none"/>
      <path d="M37.6 -10.15 L39.6 -10.1 Q36.2 -4.1 36.2 3.15 L36.3 5.4 36.3 5.5 36.35 5.95 Q36.6 8.75 37.4 11.35 38.3 14.25 39.9 16.9 L34.85 17.1 30.25 17.25 Q-51.45 18.75 -131.05 4.5 -137.9 1.35 -138.55 -2.35 -139.25 -6.05 -137.5 -16.9 L-137.7 -18.65 Q-138.1 -21.15 -139.3 -24.15 -136.65 -23.65 -135.35 -22.8 L-128.3 -18.2 Q-126.35 -16.95 -125.1 -15.8 -122.65 -13.55 -119.15 -12.05 -107.7 -4.8 -94.5 -1.95 -73.65 2.5 -52.2 4.75 L-6.9 7.8 32.35 10.75 32.4 10.75 32.15 9.35 32.05 8.15 31.95 4.35 32.05 3.55 32.5 1.55 Q32.7 0.35 33.05 -0.7 L33.45 -2.05 34.75 -5.8 35.1 -6.85 Q35.65 -8.25 36.3 -8.65 36.6 -9.55 36.85 -9.6 L37.6 -10.15 M97.3 -11.95 L101.55 -12.4 102.55 -10.95 Q107.9 -2.2 105.5 8.15 126.0 10.45 136.0 -7.1 L136.7 -8.35 137.55 -10.05 Q137.35 -8.35 136.0 -7.1 137.35 -8.35 137.55 -10.05 L137.6 -10.1 137.6 -10.05 Q138.8 -3.15 139.45 3.75 140.1 10.65 137.3 12.1 136.05 14.55 116.85 14.7 L102.6 14.95 99.15 15.05 100.75 10.95 101.45 7.7 101.7 5.85 101.8 3.15 Q101.8 -5.25 97.3 -11.95 M55.35 -10.0 L59.25 -10.0 Q59.05 -9.75 59.25 -9.45 59.1 -8.5 58.45 -8.05 L57.95 -7.5 Q56.55 -5.6 56.05 -3.65 55.4 -1.6 55.35 0.55 55.35 2.55 55.65 4.35 L55.85 5.35 Q56.15 7.25 56.8 8.6 L57.55 10.3 57.85 10.95 Q58.75 12.75 59.9 13.9 60.75 14.8 61.85 15.25 62.4 15.95 63.15 16.1 L63.15 16.15 54.7 16.4 Q49.8 10.95 49.8 3.55 49.8 -4.35 55.35 -10.0 M83.4 -10.8 L83.95 -10.3 Q89.8 -4.55 89.8 3.55 89.8 10.3 85.75 15.4 L81.85 15.55 Q83.5 13.55 84.55 11.3 90.3 -0.8 81.85 -10.7 L83.4 -10.8 M137.6 -10.05 L137.55 -10.05 137.6 -10.05 M-112.6 -8.05 Q-125.05 -11.5 -137.7 -18.65 -125.05 -11.5 -112.6 -8.05" fill="#d9d9d9" fill-rule="evenodd" stroke="none"/>
      <path d="M39.6 -10.1 Q41.9 -14.25 45.8 -17.8 55.4 -26.45 69.0 -26.45 82.6 -26.45 92.2 -17.8 95.25 -15.05 97.3 -11.95 101.8 -5.25 101.8 3.15 L101.7 5.85 101.45 7.7 100.75 10.95 99.65 12.0 98.05 13.8 Q97.05 14.35 96.05 15.6 L95.35 16.3 92.7 18.85 89.2 21.75 87.7 22.9 85.65 24.05 Q82.3 25.5 78.65 26.1 L76.65 26.35 76.05 26.45 74.45 26.6 73.25 26.7 69.25 26.95 61.65 26.35 57.85 25.55 55.4 24.85 52.6 23.75 Q49.05 22.25 45.95 19.75 44.2 18.4 42.85 16.6 L40.45 13.6 Q39.2 12.1 38.4 10.45 L36.3 5.4 36.2 3.15 Q36.2 -4.1 39.6 -10.1 M49.85 -16.4 L49.5 -17.3 48.5 -17.5 Q46.65 -17.45 45.55 -16.25 42.2 -13.45 43.15 -9.7 L44.3 -8.9 Q48.05 -11.95 49.85 -16.4 M59.05 -23.5 Q54.8 -23.3 51.95 -20.1 L53.35 -18.1 60.1 -21.95 60.55 -21.9 60.55 -23.2 60.25 -23.55 59.05 -23.5 M55.35 -10.0 Q49.8 -4.35 49.8 3.55 49.8 10.95 54.7 16.4 L55.65 17.4 Q60.65 22.3 67.4 23.05 L69.8 23.15 73.4 22.85 Q79.4 21.85 83.95 17.4 L85.75 15.4 Q89.8 10.3 89.8 3.55 89.8 -4.55 83.95 -10.3 L83.4 -10.8 Q79.05 -14.8 73.4 -15.75 L69.8 -16.05 67.4 -15.9 Q60.65 -15.2 55.65 -10.3 L55.35 -10.0" fill="#bf8938" fill-rule="evenodd" stroke="none"/>
      <path d="M59.05 -23.5 L60.25 -23.55 60.55 -23.2 60.55 -21.9 60.1 -21.95 53.35 -18.1 51.95 -20.1 Q54.8 -23.3 59.05 -23.5 M49.85 -16.4 Q48.05 -11.95 44.3 -8.9 L43.15 -9.7 Q42.2 -13.45 45.55 -16.25 46.65 -17.45 48.5 -17.5 L49.5 -17.3 49.85 -16.4" fill="#d8b37c" fill-rule="evenodd" stroke="none"/>
      <path d="M99.15 15.05 Q96.75 19.95 92.2 24.05 82.6 32.75 69.0 32.75 55.4 32.75 45.8 24.05 42.15 20.75 39.9 16.9 38.3 14.25 37.4 11.35 36.6 8.75 36.35 5.95 L36.3 5.5 36.3 5.4 38.4 10.45 Q39.2 12.1 40.45 13.6 L42.85 16.6 Q44.2 18.4 45.95 19.75 49.05 22.25 52.6 23.75 L55.4 24.85 57.85 25.55 61.65 26.35 69.25 26.95 73.25 26.7 74.45 26.6 76.05 26.45 76.65 26.35 78.65 26.1 Q82.3 25.5 85.65 24.05 L87.7 22.9 89.2 21.75 92.7 18.85 95.35 16.3 96.05 15.6 Q97.05 14.35 98.05 13.8 L99.65 12.0 100.75 10.95 99.15 15.05 M67.4 -10.15 L67.4 -15.9 69.8 -16.05 73.4 -15.75 73.4 -10.35 67.4 -10.15 M73.4 22.85 L69.8 23.15 67.4 23.05 67.4 16.0 73.4 15.8 73.4 22.85" fill="#835e27" fill-rule="evenodd" stroke="none"/>
      <path d="M-139.3 -24.15 Q-140.25 -27.8 -138.7 -30.65 -137.6 -32.75 -133.6 -32.7 L-70.35 -22.45 Q-18.3 -13.3 30.1 -10.35 L37.6 -10.15 39.6 -10.1 Q41.9 -14.25 45.8 -17.8 55.4 -26.45 69.0 -26.45 82.6 -26.45 92.2 -17.8 95.25 -15.05 97.3 -11.95 L101.55 -12.4 Q125.9 -15.45 136.3 -22.15 139.15 -22.3 138.7 -17.15 138.2 -12.0 137.6 -10.1 L137.6 -10.05 Q138.8 -3.15 139.45 3.75 140.1 10.65 137.3 12.1 136.05 14.55 116.85 14.7 L102.6 14.95 99.15 15.05 Q96.75 19.95 92.2 24.05 82.6 32.75 69.0 32.75 55.4 32.75 45.8 24.05 42.15 20.75 39.9 16.9 L34.85 17.1 30.25 17.25 Q-51.45 18.75 -131.05 4.5 -137.9 1.35 -138.55 -2.35 -139.25 -6.05 -137.5 -16.9 L-137.7 -18.65 Q-138.1 -21.15 -139.3 -24.15 M59.25 -10.0 L55.35 -10.0 Q49.8 -4.35 49.8 3.55 49.8 10.95 54.7 16.4 L63.15 16.15 63.55 16.1 67.4 16.0 67.4 23.05 Q60.65 22.3 55.65 17.4 L54.7 16.4 M59.25 -10.0 L67.4 -10.15 67.4 -15.9 Q60.65 -15.2 55.65 -10.3 L55.35 -10.0 M67.4 -15.9 L69.8 -16.05 73.4 -15.75 Q79.05 -14.8 83.4 -10.8 L83.95 -10.3 Q89.8 -4.55 89.8 3.55 89.8 10.3 85.75 15.4 L83.95 17.4 Q79.4 21.85 73.4 22.85 L69.8 23.15 67.4 23.05 M73.4 -10.35 L73.4 -15.75 M67.4 -10.15 L73.4 -10.35 81.85 -10.7 83.4 -10.8 M100.75 10.95 L101.45 7.7 101.7 5.85 101.8 3.15 Q101.8 -5.25 97.3 -11.95 M100.75 10.95 L99.15 15.05 M81.85 15.55 L85.75 15.4 M81.85 15.55 L73.4 15.8 73.4 22.85 M73.4 15.8 L67.4 16.0 M36.3 5.4 L36.2 3.15 Q36.2 -4.1 39.6 -10.1 M39.9 16.9 Q38.3 14.25 37.4 11.35 36.6 8.75 36.35 5.95 L36.3 5.5 36.3 5.4" fill="none" stroke="#000000" stroke-linecap="round" stroke-linejoin="round" stroke-opacity="0.6627451" stroke-width="3.5"/>
      <path d="M136.0 -7.1 Q134.85 -6.0 132.8 -5.25 M137.55 -10.05 L137.6 -10.05 M136.0 -7.1 Q137.35 -8.35 137.55 -10.05 M-137.7 -18.65 Q-125.05 -11.5 -112.6 -8.05" fill="none" stroke="#000000" stroke-linecap="round" stroke-linejoin="miter-clip" stroke-miterlimit="3.0" stroke-opacity="0.6627451" stroke-width="3.5"/>
    </g>
    <g id="sprite1" transform="matrix(1.0, 0.0, 0.0, 1.0, 1.2, 0.05)">
      <use height="65.5" transform="matrix(1.0, 0.0, 0.0, 1.0, -1.2, -0.05)" width="279.2" xlink:href="#shape1"/>
    </g>
    <g id="shape1" transform="matrix(1.0, 0.0, 0.0, 1.0, 1.2, 0.05)">
      <path d="M221.75 21.9 L222.3 22.4 Q228.15 28.15 228.15 36.25 228.15 43.0 224.1 48.1 L220.2 48.25 211.75 48.5 205.75 48.7 201.9 48.8 201.5 48.85 193.05 49.1 Q188.15 43.65 188.15 36.25 188.15 28.35 193.7 22.7 L197.6 22.7 205.75 22.55 211.75 22.35 220.2 22.0 221.75 21.9" fill="url(#gradient0)" fill-rule="evenodd" stroke="none"/>
      <path d="M178.0 22.55 Q180.3 18.45 184.15 14.9 193.75 6.25 207.35 6.25 220.95 6.25 230.55 14.9 233.6 17.65 235.65 20.75 240.15 27.45 240.15 35.85 L240.05 38.55 239.8 40.4 239.1 43.65 237.5 47.75 Q235.1 52.65 230.55 56.75 220.95 65.45 207.35 65.45 193.75 65.45 184.15 56.75 180.5 53.45 178.25 49.6 L178.25 49.55 178.35 49.55 178.35 49.5 Q176.75 46.85 175.85 44.0 175.05 41.4 174.8 38.6 L174.75 38.15 174.75 38.05 174.65 35.8 Q174.65 28.55 178.05 22.6 L178.05 22.55 178.0 22.55 M221.75 21.9 Q217.4 17.9 211.75 16.95 L211.75 22.35 205.75 22.55 205.75 16.8 Q199.0 17.5 194.0 22.4 L193.7 22.7 Q188.15 28.35 188.15 36.25 188.15 43.65 193.05 49.1 L194.0 50.1 Q199.0 55.0 205.75 55.75 L205.75 48.7 211.75 48.5 211.75 55.55 Q217.75 54.55 222.3 50.1 L224.1 48.1 Q228.15 43.0 228.15 36.25 228.15 28.15 222.3 22.4 L221.75 21.9" fill="url(#gradient1)" fill-rule="evenodd" stroke="none"/>
      <path d="M178.0 22.55 L178.05 22.55 178.05 22.6 178.0 22.55 M178.35 49.5 L178.35 49.55 178.25 49.55 178.35 49.5" fill="#d9d9d9" fill-rule="evenodd" stroke="none"/>
      <path d="M178.25 49.55 L173.3 49.75 168.7 49.9 Q87.0 51.4 7.4 37.15 0.55 34.0 -0.1 30.3 -0.8 26.6 0.95 15.75 L0.75 14.0 Q0.35 11.5 -0.85 8.5 -1.8 4.85 -0.25 2.0 0.85 -0.1 4.85 -0.05 L68.1 10.2 Q120.15 19.35 168.55 22.3 L176.05 22.5 178.0 22.55 178.05 22.6 Q174.65 28.55 174.65 35.8 L174.75 38.05 174.75 38.15 174.8 38.6 Q175.05 41.4 175.85 44.0 176.75 46.85 178.35 49.5 L178.25 49.55" fill="url(#gradient2)" fill-rule="evenodd" stroke="none"/>
      <path d="M276.05 22.6 Q277.25 29.5 277.9 36.4 278.55 43.3 275.75 44.75 274.5 47.2 255.3 47.35 L241.05 47.6 237.6 47.7 239.2 43.6 239.9 40.35 240.15 38.5 240.25 35.8 Q240.25 27.4 235.75 20.7 L240.0 20.25 Q264.35 17.2 274.75 10.5 277.6 10.35 277.15 15.5 276.65 20.65 276.05 22.55 L276.0 22.6 276.05 22.6 M275.15 24.3 L274.45 25.55 Q275.8 24.3 276.0 22.6 L275.15 24.3" fill="url(#gradient3)" fill-rule="evenodd" stroke="none"/>
    </g>
    <linearGradient gradientTransform="matrix(0.001, -0.0323, 0.0166, 5.0E-4, 210.05, 41.0)" gradientUnits="userSpaceOnUse" id="gradient0" spreadMethod="pad" x1="-819.2" x2="819.2">
      <stop offset="0.0" stop-color="#000000"/>
      <stop offset="1.0" stop-color="#ffffff"/>
    </linearGradient>
    <linearGradient gradientTransform="matrix(-0.0236, -0.0606, 0.0336, -0.0131, 207.35, 35.85)" gradientUnits="userSpaceOnUse" id="gradient1" spreadMethod="pad" x1="-819.2" x2="819.2">
      <stop offset="0.0" stop-color="#000000"/>
      <stop offset="1.0" stop-color="#ffffff"/>
    </linearGradient>
    <linearGradient gradientTransform="matrix(0.005, -0.0409, 0.0303, 0.0037, 87.45, 42.45)" gradientUnits="userSpaceOnUse" id="gradient2" spreadMethod="pad" x1="-819.2" x2="819.2">
      <stop offset="0.0" stop-color="#000000"/>
      <stop offset="1.0" stop-color="#ffffff"/>
    </linearGradient>
    <linearGradient gradientTransform="matrix(-0.0091, -0.0338, 0.0219, -0.0059, 259.8, 40.85)" gradientUnits="userSpaceOnUse" id="gradient3" spreadMethod="pad" x1="-819.2" x2="819.2">
      <stop offset="0.0" stop-color="#000000"/>
      <stop offset="1.0" stop-color="#ffffff"/>
    </linearGradient>
  </defs>
</svg>
