<?xml version="1.0" encoding="UTF-8" standalone="no"?>
<svg xmlns:xlink="http://www.w3.org/1999/xlink" height="531.5px" width="460.6px" xmlns="http://www.w3.org/2000/svg">
  <g transform="matrix(1.0, 0.0, 0.0, 1.0, 193.65, 334.05)">
    <use height="16.0" transform="matrix(1.0, 0.0, 0.0, 1.0, 129.15, -127.7)" width="44.05" xlink:href="#shape0"/>
    <use height="17.8" transform="matrix(0.8453, 0.0, 0.0, 0.8453, 129.737, -127.0732)" width="50.9" xlink:href="#sprite0"/>
    <use height="16.05" transform="matrix(1.0, 0.0, 0.0, 1.0, 129.15, -100.25)" width="44.05" xlink:href="#shape2"/>
    <use height="17.8" transform="matrix(0.8453, 0.0, 0.0, 0.8453, 129.737, -99.6732)" width="50.9" xlink:href="#sprite0"/>
    <use height="68.2" transform="matrix(1.0, 0.0, 0.0, 1.0, 6.25, -140.15)" width="234.95" xlink:href="#shape3"/>
    <use height="79.5" transform="matrix(0.8453, 0.0, 0.0, 0.8453, 6.7096, -139.6509)" width="276.8" xlink:href="#sprite1"/>
    <use height="105.25" transform="matrix(1.0, 0.0, 0.0, 1.0, -42.05, -123.2)" width="169.1" xlink:href="#shape5"/>
  </g>
  <defs>
    <g id="shape0" transform="matrix(1.0, 0.0, 0.0, 1.0, -129.15, 127.7)">
      <path d="M150.6 -126.1 L150.4 -125.95 149.85 -125.4 149.85 -125.45 148.15 -125.45 148.15 -121.3 138.1 -121.3 138.1 -125.85 150.6 -126.1 M147.15 -124.85 Q147.15 -125.3 145.05 -125.3 L141.6 -125.3 140.5 -125.35 140.4 -125.35 139.8 -125.3 139.5 -125.3 139.1 -125.15 Q138.6 -125.0 138.6 -124.7 L141.0 -124.45 143.7 -124.35 Q147.15 -124.35 147.15 -124.85 M138.1 -118.1 L148.15 -118.1 148.15 -113.9 149.5 -113.9 149.7 -113.9 150.35 -113.35 150.6 -113.25 138.1 -113.65 138.1 -118.1" fill="#ffffff" fill-opacity="0.4" fill-rule="evenodd" stroke="none"/>
      <path d="M149.85 -125.4 L149.85 -124.95 149.85 -123.0 149.85 -120.8 Q148.45 -120.0 148.2 -119.35 L148.2 -119.7 148.15 -119.7 138.1 -119.7 138.1 -121.3 138.1 -119.7 131.95 -119.7 131.45 -119.7 131.4 -119.75 Q130.5 -119.75 129.95 -118.5 L129.65 -117.65 129.65 -127.2 131.95 -127.2 131.95 -121.3 138.1 -121.3 148.15 -121.3 148.15 -125.45 149.85 -125.45 149.85 -125.4 M148.15 -121.3 L148.15 -119.7 148.15 -121.3 M131.95 -121.3 L131.95 -119.7 131.95 -121.3 M162.45 -119.55 L162.45 -120.6 165.75 -120.6 165.5 -120.35 166.1 -119.95 167.15 -119.9 170.25 -120.1 171.2 -120.4 171.95 -119.55 162.45 -119.55" fill="#999999" fill-rule="evenodd" stroke="none"/>
      <path d="M154.85 -124.2 L154.75 -124.5 Q154.75 -125.35 157.45 -125.35 L159.55 -125.3 160.4 -125.3 161.05 -125.05 Q161.5 -124.65 161.55 -123.65 L161.55 -123.25 161.4 -121.75 Q161.05 -121.15 160.0 -121.15 159.65 -121.15 157.05 -122.5 L155.25 -123.65 154.85 -124.2 M147.15 -124.85 Q147.15 -124.35 143.7 -124.35 L141.0 -124.45 138.6 -124.7 Q138.6 -125.0 139.1 -125.15 L139.5 -125.3 139.8 -125.3 140.4 -125.35 140.5 -125.35 141.6 -125.3 145.05 -125.3 Q147.15 -125.3 147.15 -124.85 M171.2 -120.4 L170.25 -120.1 167.15 -119.9 166.1 -119.95 165.5 -120.35 165.75 -120.6 171.05 -120.6 171.2 -120.4" fill="#ffffff" fill-rule="evenodd" stroke="none"/>
      <path d="M149.85 -125.4 L150.4 -125.95 150.6 -126.1 162.45 -125.85 162.45 -123.45 161.95 -123.65 161.55 -123.65 Q161.5 -124.65 161.05 -125.05 L160.4 -125.3 159.55 -125.3 157.45 -125.35 Q154.75 -125.35 154.75 -124.5 L154.85 -124.2 153.35 -124.25 Q150.95 -124.25 149.85 -123.0 L149.85 -124.95 149.85 -125.4" fill="#ff4a4a" fill-rule="evenodd" stroke="none"/>
      <path d="M149.85 -123.0 Q150.95 -124.25 153.35 -124.25 L154.85 -124.2 155.25 -123.65 157.05 -122.5 Q159.65 -121.15 160.0 -121.15 161.05 -121.15 161.4 -121.75 L161.55 -123.25 161.55 -123.65 161.95 -123.65 162.45 -123.45 162.45 -120.6 162.45 -119.55 162.45 -118.8 162.45 -113.65 151.7 -113.25 150.6 -113.25 150.35 -113.35 149.7 -113.9 149.85 -113.9 149.85 -120.8 149.85 -123.0 M155.45 -115.2 L155.3 -114.95 Q155.3 -114.75 155.45 -114.65 155.55 -114.5 155.75 -114.5 155.9 -114.5 156.05 -114.65 L156.15 -114.95 156.05 -115.2 155.75 -115.35 155.45 -115.2 M153.25 -118.75 L153.05 -119.1 152.7 -119.3 152.3 -119.1 152.15 -118.75 Q152.15 -118.5 152.3 -118.35 L152.7 -118.2 153.05 -118.35 153.25 -118.75 M154.7 -122.25 Q154.8 -122.15 154.95 -122.15 155.05 -122.15 155.15 -122.25 L155.25 -122.45 155.15 -122.65 154.95 -122.75 154.7 -122.65 154.65 -122.45 154.7 -122.25 M158.9 -119.65 L158.65 -118.95 Q158.65 -118.5 158.9 -118.25 159.2 -117.95 159.65 -117.95 160.05 -117.95 160.3 -118.25 L160.6 -118.95 160.3 -119.65 159.65 -119.9 158.9 -119.65" fill="#ff0000" fill-rule="evenodd" stroke="none"/>
      <path d="M138.1 -119.7 L148.15 -119.7 148.15 -118.1 148.15 -119.7 148.2 -119.7 148.2 -119.35 Q148.45 -120.0 149.85 -120.8 L149.85 -113.9 149.7 -113.9 149.5 -113.9 148.15 -113.9 148.15 -118.1 138.1 -118.1 138.1 -119.7 138.1 -118.1 131.95 -118.1 131.95 -119.7 131.95 -118.1 131.95 -112.2 129.65 -112.2 129.65 -117.65 129.95 -118.5 Q130.5 -119.75 131.4 -119.75 L131.45 -119.7 131.95 -119.7 138.1 -119.7 M162.45 -118.8 L162.45 -119.55 171.95 -119.55 172.7 -118.75 162.45 -118.8" fill="#666666" fill-rule="evenodd" stroke="none"/>
      <path d="M158.9 -119.65 L159.65 -119.9 160.3 -119.65 160.6 -118.95 160.3 -118.25 Q160.05 -117.95 159.65 -117.95 159.2 -117.95 158.9 -118.25 158.65 -118.5 158.65 -118.95 L158.9 -119.65 M154.7 -122.25 L154.65 -122.45 154.7 -122.65 154.95 -122.75 155.15 -122.65 155.25 -122.45 155.15 -122.25 Q155.05 -122.15 154.95 -122.15 154.8 -122.15 154.7 -122.25 M153.25 -118.75 L153.05 -118.35 152.7 -118.2 152.3 -118.35 Q152.15 -118.5 152.15 -118.75 L152.3 -119.1 152.7 -119.3 153.05 -119.1 153.25 -118.75 M155.45 -115.2 L155.75 -115.35 156.05 -115.2 156.15 -114.95 156.05 -114.65 Q155.9 -114.5 155.75 -114.5 155.55 -114.5 155.45 -114.65 155.3 -114.75 155.3 -114.95 L155.45 -115.2" fill="#b30000" fill-rule="evenodd" stroke="none"/>
      <path d="M149.85 -124.95 L149.85 -123.0 149.85 -120.8 149.85 -113.9 149.7 -113.9 M162.45 -123.45 L162.45 -125.85 150.6 -126.1 138.1 -125.85 138.1 -121.3 148.15 -121.3 148.15 -125.45 149.85 -125.45 149.85 -125.4 M129.65 -117.65 L129.65 -127.2 131.95 -127.2 131.95 -121.3 138.1 -121.3 138.1 -119.7 138.1 -118.1 148.15 -118.1 148.15 -119.7 148.15 -121.3 M131.95 -119.7 L131.95 -118.1 138.1 -118.1 138.1 -113.65 150.6 -113.25 151.7 -113.25 162.45 -113.65 162.45 -118.8 162.45 -119.55 162.45 -120.6 162.45 -123.45 M149.5 -113.9 L148.15 -113.9 148.15 -118.1 M131.95 -119.7 L131.95 -121.3 M131.95 -118.1 L131.95 -112.2 129.65 -112.2 129.65 -117.65 M171.2 -120.4 L171.05 -120.6 165.75 -120.6 162.45 -120.6 M171.2 -120.4 L171.95 -119.55 172.7 -118.75 162.45 -118.8" fill="none" stroke="#000000" stroke-linecap="round" stroke-linejoin="round" stroke-opacity="0.6627451" stroke-width="1.0"/>
    </g>
    <g id="sprite0" transform="matrix(1.0, 0.0, 0.0, 1.0, 25.45, 8.9)">
      <use height="17.8" transform="matrix(1.0, 0.0, 0.0, 1.0, -25.45, -8.9)" width="50.9" xlink:href="#shape1"/>
    </g>
    <g id="shape1" transform="matrix(1.0, 0.0, 0.0, 1.0, 25.45, 8.9)">
      <path d="M13.35 -1.05 L23.5 -1.05 25.45 1.1 13.35 1.05 13.35 -1.05" fill="url(#gradient0)" fill-rule="evenodd" stroke="none"/>
      <path d="M-1.4 7.65 L-15.45 7.15 -15.45 1.9 -3.55 1.9 -3.55 -1.9 -15.45 -1.9 -15.45 -7.25 -1.6 -7.55 -1.55 -7.55 -1.4 7.65" fill="url(#gradient1)" fill-rule="evenodd" stroke="none"/>
      <path d="M-1.55 -7.55 L-1.35 -7.55 -0.7 -7.55 13.35 -7.25 13.35 -1.05 13.35 1.05 13.35 7.15 0.65 7.65 -0.7 7.65 -1.4 7.65 -1.55 -7.55" fill="url(#gradient2)" fill-rule="evenodd" stroke="none"/>
      <path d="M-15.45 1.9 L-22.75 1.9 -22.75 -1.9 -15.45 -1.9 -3.55 -1.9 -3.55 1.9 -15.45 1.9" fill="url(#gradient3)" fill-rule="evenodd" stroke="none"/>
      <path d="M-22.75 1.9 L-22.75 8.9 -25.45 8.9 -25.45 -8.9 -22.75 -8.9 -22.75 -1.9 -22.75 1.9" fill="url(#gradient4)" fill-rule="evenodd" stroke="none"/>
    </g>
    <linearGradient gradientTransform="matrix(0.0074, 0.0, 0.0, 0.0013, 19.4, 0.0)" gradientUnits="userSpaceOnUse" id="gradient0" spreadMethod="pad" x1="-819.2" x2="819.2">
      <stop offset="0.0" stop-color="#000000"/>
      <stop offset="1.0" stop-color="#ffffff"/>
    </linearGradient>
    <linearGradient gradientTransform="matrix(0.0085, 0.0, 0.0, 0.0034, -8.55, -4.75)" gradientUnits="userSpaceOnUse" id="gradient1" spreadMethod="pad" x1="-819.2" x2="819.2">
      <stop offset="0.0" stop-color="#000000"/>
      <stop offset="1.0" stop-color="#ffffff"/>
    </linearGradient>
    <linearGradient gradientTransform="matrix(3.0E-4, -0.0091, 0.0093, 3.0E-4, 5.9, 0.05)" gradientUnits="userSpaceOnUse" id="gradient2" spreadMethod="pad" x1="-819.2" x2="819.2">
      <stop offset="0.0" stop-color="#000000"/>
      <stop offset="1.0" stop-color="#ffffff"/>
    </linearGradient>
    <linearGradient gradientTransform="matrix(0.0135, 0.0, 0.0, 0.0023, -12.3, -0.25)" gradientUnits="userSpaceOnUse" id="gradient3" spreadMethod="pad" x1="-819.2" x2="819.2">
      <stop offset="0.0" stop-color="#000000"/>
      <stop offset="1.0" stop-color="#ffffff"/>
    </linearGradient>
    <linearGradient gradientTransform="matrix(-0.0016, 0.0, 2.0E-4, -0.0109, -24.1, 0.0)" gradientUnits="userSpaceOnUse" id="gradient4" spreadMethod="pad" x1="-819.2" x2="819.2">
      <stop offset="0.0" stop-color="#000000"/>
      <stop offset="1.0" stop-color="#ffffff"/>
    </linearGradient>
    <g id="shape2" transform="matrix(1.0, 0.0, 0.0, 1.0, -129.15, 100.25)">
      <path d="M129.65 -90.2 L129.65 -99.75 131.95 -99.75 131.95 -93.85 138.1 -93.85 148.15 -93.85 148.15 -98.0 149.85 -98.0 149.85 -97.95 149.85 -97.45 149.85 -95.55 149.85 -93.35 Q148.45 -92.55 148.2 -91.9 L148.2 -92.25 148.15 -92.25 138.1 -92.25 138.1 -93.85 138.1 -92.25 131.95 -92.25 131.4 -92.25 Q130.5 -92.25 129.95 -91.05 L129.65 -90.2 M162.45 -93.1 L165.75 -93.1 165.5 -92.85 Q165.65 -92.55 166.1 -92.5 L167.15 -92.45 170.25 -92.6 171.2 -92.95 171.95 -92.1 162.45 -92.1 162.45 -93.1 M131.95 -93.85 L131.95 -92.25 131.95 -93.85 M148.15 -93.85 L148.15 -92.25 148.15 -93.85" fill="#999999" fill-rule="evenodd" stroke="none"/>
      <path d="M150.6 -98.6 L162.45 -98.35 162.45 -96.0 161.95 -96.15 161.55 -96.2 Q161.5 -97.15 161.05 -97.55 L160.4 -97.85 159.55 -97.8 157.45 -97.9 Q154.75 -97.9 154.75 -97.05 L154.85 -96.75 153.35 -96.8 Q150.95 -96.8 149.85 -95.55 L149.85 -97.45 149.85 -97.95 150.4 -98.5 150.6 -98.6" fill="#ff4a4a" fill-rule="evenodd" stroke="none"/>
      <path d="M162.45 -96.0 L162.45 -93.1 162.45 -92.1 162.45 -91.35 162.45 -86.2 151.7 -85.75 150.6 -85.75 150.35 -85.9 149.7 -86.45 149.85 -86.45 149.85 -93.35 149.85 -95.55 Q150.95 -96.8 153.35 -96.8 L154.85 -96.75 155.25 -96.15 157.05 -95.0 Q159.65 -93.65 160.0 -93.65 161.05 -93.65 161.4 -94.3 L161.55 -95.8 161.55 -96.2 161.95 -96.15 162.45 -96.0 M155.15 -94.75 L155.25 -95.0 155.15 -95.2 154.95 -95.25 154.7 -95.2 154.65 -95.0 154.7 -94.75 154.95 -94.7 155.15 -94.75 M160.6 -91.45 L160.3 -92.2 159.65 -92.45 158.9 -92.2 Q158.65 -91.9 158.65 -91.45 158.65 -91.05 158.9 -90.8 159.2 -90.5 159.65 -90.5 160.05 -90.5 160.3 -90.8 L160.6 -91.45 M156.05 -87.15 L156.15 -87.45 156.05 -87.75 155.75 -87.9 155.45 -87.75 155.3 -87.45 155.45 -87.15 155.75 -87.05 156.05 -87.15 M153.05 -90.9 L153.25 -91.25 153.05 -91.65 152.7 -91.8 152.3 -91.65 152.15 -91.25 152.3 -90.9 152.7 -90.7 153.05 -90.9" fill="#ff0000" fill-rule="evenodd" stroke="none"/>
      <path d="M165.75 -93.1 L171.05 -93.1 171.2 -92.95 170.25 -92.6 167.15 -92.45 166.1 -92.5 Q165.65 -92.55 165.5 -92.85 L165.75 -93.1 M154.85 -96.75 L154.75 -97.05 Q154.75 -97.9 157.45 -97.9 L159.55 -97.8 160.4 -97.85 161.05 -97.55 Q161.5 -97.15 161.55 -96.2 L161.55 -95.8 161.4 -94.3 Q161.05 -93.65 160.0 -93.65 159.65 -93.65 157.05 -95.0 L155.25 -96.15 154.85 -96.75 M147.15 -97.4 Q147.15 -96.9 143.7 -96.9 L141.0 -96.95 138.6 -97.2 Q138.6 -97.5 139.1 -97.7 L139.5 -97.8 139.8 -97.85 140.4 -97.9 140.5 -97.9 141.6 -97.8 145.05 -97.85 Q147.15 -97.85 147.15 -97.4" fill="#ffffff" fill-rule="evenodd" stroke="none"/>
      <path d="M155.15 -94.75 L154.95 -94.7 154.7 -94.75 154.65 -95.0 154.7 -95.2 154.95 -95.25 155.15 -95.2 155.25 -95.0 155.15 -94.75 M153.05 -90.9 L152.7 -90.7 152.3 -90.9 152.15 -91.25 152.3 -91.65 152.7 -91.8 153.05 -91.65 153.25 -91.25 153.05 -90.9 M156.05 -87.15 L155.75 -87.05 155.45 -87.15 155.3 -87.45 155.45 -87.75 155.75 -87.9 156.05 -87.75 156.15 -87.45 156.05 -87.15 M160.6 -91.45 L160.3 -90.8 Q160.05 -90.5 159.65 -90.5 159.2 -90.5 158.9 -90.8 158.65 -91.05 158.65 -91.45 158.65 -91.9 158.9 -92.2 L159.65 -92.45 160.3 -92.2 160.6 -91.45" fill="#b30000" fill-rule="evenodd" stroke="none"/>
      <path d="M138.1 -93.85 L138.1 -98.35 150.6 -98.6 150.4 -98.5 149.85 -97.95 149.85 -98.0 148.15 -98.0 148.15 -93.85 138.1 -93.85 M150.6 -85.75 L138.1 -86.2 138.1 -90.6 148.15 -90.6 148.15 -86.45 149.5 -86.45 149.7 -86.45 150.35 -85.9 150.6 -85.75 M147.15 -97.4 Q147.15 -97.85 145.05 -97.85 L141.6 -97.8 140.5 -97.9 140.4 -97.9 139.8 -97.85 139.5 -97.8 139.1 -97.7 Q138.6 -97.5 138.6 -97.2 L141.0 -96.95 143.7 -96.9 Q147.15 -96.9 147.15 -97.4" fill="#ffffff" fill-opacity="0.4" fill-rule="evenodd" stroke="none"/>
      <path d="M171.95 -92.1 L172.7 -91.3 162.45 -91.35 162.45 -92.1 171.95 -92.1 M138.1 -90.6 L131.95 -90.6 131.95 -84.7 129.65 -84.7 129.65 -90.2 129.95 -91.05 Q130.5 -92.25 131.4 -92.25 L131.95 -92.25 131.95 -90.6 131.95 -92.25 138.1 -92.25 148.15 -92.25 148.2 -92.25 148.2 -91.9 Q148.45 -92.55 149.85 -93.35 L149.85 -86.45 149.7 -86.45 149.5 -86.45 148.15 -86.45 148.15 -90.6 138.1 -90.6 138.1 -92.25 138.1 -90.6 M148.15 -92.25 L148.15 -90.6 148.15 -92.25" fill="#666666" fill-rule="evenodd" stroke="none"/>
      <path d="M129.65 -90.2 L129.65 -99.75 131.95 -99.75 131.95 -93.85 138.1 -93.85 138.1 -98.35 150.6 -98.6 162.45 -98.35 162.45 -96.0 162.45 -93.1 165.75 -93.1 171.05 -93.1 171.2 -92.95 171.95 -92.1 172.7 -91.3 162.45 -91.35 162.45 -86.2 151.7 -85.75 150.6 -85.75 138.1 -86.2 138.1 -90.6 131.95 -90.6 131.95 -84.7 129.65 -84.7 129.65 -90.2 M131.95 -92.25 L131.95 -93.85 M138.1 -93.85 L148.15 -93.85 148.15 -98.0 149.85 -98.0 149.85 -97.95 M149.85 -97.45 L149.85 -95.55 149.85 -93.35 149.85 -86.45 149.7 -86.45 M148.15 -90.6 L148.15 -92.25 148.15 -93.85 M138.1 -92.25 L138.1 -90.6 148.15 -90.6 148.15 -86.45 149.5 -86.45 M131.95 -92.25 L131.95 -90.6 M138.1 -92.25 L138.1 -93.85 M162.45 -92.1 L162.45 -91.35 M162.45 -93.1 L162.45 -92.1" fill="none" stroke="#000000" stroke-linecap="round" stroke-linejoin="round" stroke-opacity="0.6627451" stroke-width="1.0"/>
    </g>
    <g id="shape3" transform="matrix(1.0, 0.0, 0.0, 1.0, -6.25, 140.15)">
      <path d="M151.4 -118.35 L151.4 -110.5 145.85 -110.5 145.85 -118.35 151.4 -118.35" fill="#666666" fill-rule="evenodd" stroke="none"/>
      <path d="M151.4 -118.35 L151.4 -110.5 145.85 -110.5 145.85 -118.35 151.4 -118.35 Z" fill="none" stroke="#000000" stroke-linecap="round" stroke-linejoin="round" stroke-opacity="0.6627451" stroke-width="1.0"/>
      <path d="M151.4 -102.1 L151.4 -94.2 145.85 -94.2 145.85 -102.1 151.4 -102.1" fill="#666666" fill-rule="evenodd" stroke="none"/>
      <path d="M151.4 -102.1 L151.4 -94.2 145.85 -94.2 145.85 -102.1 151.4 -102.1 Z" fill="none" stroke="#000000" stroke-linecap="round" stroke-linejoin="round" stroke-opacity="0.6627451" stroke-width="1.0"/>
      <path d="M114.6 -112.2 L114.6 -104.95 114.6 -102.4 47.4 -102.4 47.4 -104.2 47.4 -112.2 47.4 -115.2 72.0 -114.8 71.9 -126.7 72.35 -136.2 Q72.35 -136.6 72.65 -136.8 74.1 -138.0 76.3 -137.9 L91.6 -138.35 91.6 -116.6 114.6 -116.6 114.6 -112.2" fill="#cc0000" fill-rule="evenodd" stroke="none"/>
      <path d="M91.6 -138.35 L76.3 -137.9 Q74.1 -138.0 72.65 -136.8 72.35 -136.6 72.35 -136.2 L71.9 -126.7 72.0 -114.8 47.4 -115.2 47.4 -116.6 70.45 -116.6 70.45 -139.65 91.6 -139.65 91.6 -138.35" fill="#ff6b6b" fill-rule="evenodd" stroke="none"/>
      <path d="M114.6 -104.95 Q166.75 -103.75 226.3 -104.95 L226.35 -103.1 226.6 -99.9 226.35 -103.1 227.4 -102.9 231.9 -102.25 237.4 -102.75 240.6 -103.6 Q240.35 -100.35 239.5 -96.95 232.95 -94.3 227.05 -96.95 L226.6 -99.9 114.6 -99.9 114.6 -102.4 114.6 -104.95 M47.4 -104.2 L47.4 -102.4 47.4 -99.9 12.05 -98.8 12.05 -98.55 Q9.95 -94.7 7.8 -98.55 6.9 -101.85 6.75 -105.1 L8.65 -104.0 Q10.35 -103.25 12.05 -103.15 L12.05 -105.35 Q18.9 -103.2 26.15 -102.7 36.85 -102.2 47.4 -104.2 M12.05 -98.8 L12.05 -103.15 12.05 -98.8" fill="#d6a0a0" fill-rule="evenodd" stroke="none"/>
      <path d="M47.4 -102.4 L114.6 -102.4 114.6 -99.9 114.6 -95.5 91.6 -95.5 91.6 -72.45 70.45 -72.45 70.45 -95.5 47.4 -95.5 47.4 -99.9 47.4 -102.4" fill="#a30000" fill-rule="evenodd" stroke="none"/>
      <path d="M114.6 -104.95 L114.6 -112.2 226.65 -112.2 226.6 -111.7 226.65 -112.2 227.05 -115.15 Q232.35 -117.6 239.5 -115.15 L239.95 -113.45 238.75 -113.8 237.95 -114.0 237.5 -114.05 Q237.9 -112.55 237.3 -110.85 235.7 -109.4 234.65 -109.4 231.4 -109.4 231.4 -111.4 231.4 -112.35 232.3 -113.55 L233.25 -114.5 230.15 -114.1 227.75 -113.2 226.8 -111.7 226.6 -111.7 226.55 -111.25 226.3 -106.2 226.3 -104.95 Q166.75 -103.75 114.6 -104.95 M47.4 -112.2 L47.4 -104.2 Q36.85 -102.2 26.15 -102.7 18.9 -103.2 12.05 -105.35 L12.05 -111.55 12.05 -112.2 12.65 -113.25 47.4 -112.2 M7.25 -111.4 L7.8 -113.8 Q9.9 -117.15 12.05 -113.8 L12.05 -113.3 12.05 -112.2 11.25 -111.6 Q9.9 -110.8 8.1 -111.1 L7.25 -111.4 M234.85 -115.3 L234.55 -115.3 234.3 -115.2 234.85 -115.3 M235.8 -115.15 L235.4 -115.3 235.9 -115.05 235.8 -115.15" fill="#ffffff" fill-rule="evenodd" stroke="none"/>
      <path d="M226.3 -104.95 L226.3 -106.2 226.55 -111.25 226.8 -111.7 227.75 -113.2 230.15 -114.1 233.25 -114.5 232.3 -113.55 Q231.4 -112.35 231.4 -111.4 231.4 -109.4 234.65 -109.4 235.7 -109.4 237.3 -110.85 237.9 -112.55 237.5 -114.05 L237.95 -114.0 238.75 -113.8 239.95 -113.45 Q240.65 -110.15 240.7 -106.75 L240.6 -103.65 240.6 -103.6 237.4 -102.75 231.9 -102.25 227.4 -102.9 226.35 -103.1 226.3 -104.95 M12.05 -111.55 L12.05 -105.35 12.05 -103.15 Q10.35 -103.25 8.65 -104.0 L6.75 -105.1 Q6.65 -108.3 7.25 -111.4 L8.1 -111.1 Q9.9 -110.8 11.25 -111.6 L12.05 -111.55" fill="#ffe5e5" fill-rule="evenodd" stroke="none"/>
      <path d="M114.6 -112.2 L114.6 -104.95 114.6 -102.4 114.6 -99.9 226.6 -99.9 226.35 -103.1 226.3 -104.95 226.3 -106.2 226.55 -111.25 226.6 -111.7 226.65 -112.2 114.6 -112.2 114.6 -116.6 91.6 -116.6 91.6 -138.35 91.6 -139.65 70.45 -139.65 70.45 -116.6 47.4 -116.6 47.4 -115.2 47.4 -112.2 47.4 -104.2 47.4 -102.4 47.4 -99.9 12.05 -98.8 12.05 -98.55 Q9.95 -94.7 7.8 -98.55 6.9 -101.85 6.75 -105.1 6.65 -108.3 7.25 -111.4 L7.8 -113.8 Q9.9 -117.15 12.05 -113.8 L12.05 -113.3 12.65 -113.25 47.4 -112.2 M12.05 -112.2 L12.05 -111.55 12.05 -105.35 12.05 -103.15 12.05 -98.8 M12.05 -112.2 L12.05 -113.3 M114.6 -99.9 L114.6 -95.5 91.6 -95.5 91.6 -72.45 70.45 -72.45 70.45 -95.5 47.4 -95.5 47.4 -99.9 M239.95 -113.45 L239.5 -115.15 Q232.35 -117.6 227.05 -115.15 L226.65 -112.2 M240.6 -103.6 L240.6 -103.65 240.7 -106.75 Q240.65 -110.15 239.95 -113.45 M240.6 -103.6 Q240.35 -100.35 239.5 -96.95 232.95 -94.3 227.05 -96.95 L226.6 -99.9" fill="none" stroke="#000000" stroke-linecap="round" stroke-linejoin="round" stroke-opacity="0.6627451" stroke-width="1.0"/>
      <path d="M237.9 -108.9 L238.0 -111.75 Q238.1 -114.05 238.3 -114.05 L238.55 -111.75 238.65 -110.2 237.9 -108.9" fill="#333333" fill-rule="evenodd" stroke="none"/>
      <path d="M237.9 -108.9 L238.65 -110.2 238.7 -106.15 238.55 -100.6 238.3 -98.25 Q238.1 -98.25 238.0 -100.6 237.85 -102.9 237.85 -106.15 L237.9 -108.9" fill="#1e1e1e" fill-rule="evenodd" stroke="none"/>
      <path d="M238.65 -110.2 L238.55 -111.75 238.3 -114.05 Q238.1 -114.05 238.0 -111.75 L237.9 -108.9 237.85 -106.15 Q237.85 -102.9 238.0 -100.6 238.1 -98.25 238.3 -98.25 L238.55 -100.6 238.7 -106.15 238.65 -110.2 Z" fill="none" stroke="#000000" stroke-linecap="round" stroke-linejoin="round" stroke-opacity="0.6627451" stroke-width="0.25"/>
      <path d="M88.35 -137.4 Q89.55 -135.25 89.55 -132.85 89.6 -129.9 87.05 -129.0 L85.9 -129.1 Q83.4 -129.85 82.55 -132.3 81.7 -134.7 83.0 -136.8 84.3 -138.85 86.75 -138.05 L88.35 -137.4" fill="#ffffff" fill-rule="evenodd" stroke="none"/>
    </g>
    <g id="sprite1" transform="matrix(1.0, 0.0, 0.0, 1.0, 138.4, 39.75)">
      <use height="79.5" transform="matrix(1.0, 0.0, 0.0, 1.0, -138.4, -39.75)" width="276.8" xlink:href="#shape4"/>
    </g>
    <g id="shape4" transform="matrix(1.0, 0.0, 0.0, 1.0, 138.4, 39.75)">
      <path d="M131.15 -10.95 L130.85 -10.8 131.5 -10.95 131.15 -10.95 M121.7 -6.15 L121.95 -6.7 121.75 -6.7 121.8 -7.3 122.25 -10.75 Q128.55 -13.65 137.0 -10.75 L137.5 -8.75 Q138.35 -4.85 138.4 -0.85 L138.3 2.85 138.3 2.9 Q138.0 6.75 137.0 10.75 129.25 13.9 122.25 10.75 L121.75 7.25 121.45 3.5 121.4 1.3 121.4 -0.2 Q121.4 -3.15 121.7 -6.15 M132.75 -10.65 L132.6 -10.75 132.15 -10.95 132.75 -10.65 M135.65 -9.25 L135.4 -6.85 135.3 -3.5 135.25 -0.25 135.3 3.75 135.4 6.35 Q135.55 9.1 135.75 9.1 L136.1 6.35 136.2 3.5 136.25 -0.25 136.2 -5.0 136.1 -6.85 135.9 -9.2 135.75 -9.6 135.65 -9.25" fill="url(#gradient5)" fill-rule="evenodd" stroke="none"/>
      <path d="M135.65 -9.25 L135.75 -9.6 135.9 -9.2 136.1 -6.85 136.2 -5.0 136.25 -0.25 136.2 3.5 136.1 6.35 135.75 9.1 Q135.55 9.1 135.4 6.35 L135.3 3.75 135.25 -0.25 135.3 -3.5 135.4 -6.85 135.65 -9.25" fill="url(#gradient6)" fill-rule="evenodd" stroke="none"/>
      <path d="M121.75 -6.7 L121.7 -6.15 Q121.4 -3.15 121.4 -0.2 L121.4 1.3 121.45 3.5 121.75 7.25 -10.75 7.25 -10.75 -7.25 121.8 -7.3 121.75 -6.7" fill="url(#gradient7)" fill-rule="evenodd" stroke="none"/>
      <path d="M-10.75 -7.25 L-10.75 7.25 -10.75 12.5 -38.0 12.5 -38.0 39.75 -63.0 39.75 -63.0 12.5 -90.25 12.5 -90.25 7.3 -90.25 -7.25 -90.25 -12.5 -63.0 -12.5 -63.0 -39.75 -38.0 -39.75 -38.0 -12.5 -10.75 -12.5 -10.75 -7.25" fill="url(#gradient8)" fill-rule="evenodd" stroke="none"/>
      <path d="M-132.1 -6.5 L-132.1 -7.3 -131.35 -8.5 -90.25 -7.25 -90.25 7.3 -132.1 8.55 -132.1 -6.5" fill="url(#gradient9)" fill-rule="evenodd" stroke="none"/>
      <path d="M-132.1 -6.5 L-132.1 8.55 -132.1 8.85 Q-134.55 13.4 -137.1 8.85 -138.2 4.95 -138.35 1.1 -138.5 -2.65 -137.75 -6.3 L-137.1 -9.15 Q-134.6 -13.15 -132.1 -9.15 L-132.1 -7.3 -133.05 -6.55 -132.1 -6.5" fill="url(#gradient10)" fill-rule="evenodd" stroke="none"/>
    </g>
    <linearGradient gradientTransform="matrix(0.0104, 0.0, 0.0, 0.015, 129.85, 0.05)" gradientUnits="userSpaceOnUse" id="gradient5" spreadMethod="pad" x1="-819.2" x2="819.2">
      <stop offset="0.0" stop-color="#000000"/>
      <stop offset="1.0" stop-color="#ffffff"/>
    </linearGradient>
    <linearGradient gradientTransform="matrix(6.0E-4, 0.0, 0.0, 0.0114, 135.75, -0.25)" gradientUnits="userSpaceOnUse" id="gradient6" spreadMethod="pad" x1="-819.2" x2="819.2">
      <stop offset="0.0" stop-color="#000000"/>
      <stop offset="1.0" stop-color="#ffffff"/>
    </linearGradient>
    <linearGradient gradientTransform="matrix(0.0809, 0.0, 0.0, 0.0089, 55.5, -0.05)" gradientUnits="userSpaceOnUse" id="gradient7" spreadMethod="pad" x1="-819.2" x2="819.2">
      <stop offset="0.0" stop-color="#000000"/>
      <stop offset="1.0" stop-color="#ffffff"/>
    </linearGradient>
    <linearGradient gradientTransform="matrix(-5.0E-4, -0.0485, 0.0485, -5.0E-4, -50.5, 0.0)" gradientUnits="userSpaceOnUse" id="gradient8" spreadMethod="pad" x1="-819.2" x2="819.2">
      <stop offset="0.0" stop-color="#000000"/>
      <stop offset="1.0" stop-color="#ffffff"/>
    </linearGradient>
    <linearGradient gradientTransform="matrix(-0.0255, -0.0012, 5.0E-4, -0.0104, -111.2, 0.0)" gradientUnits="userSpaceOnUse" id="gradient9" spreadMethod="pad" x1="-819.2" x2="819.2">
      <stop offset="0.0" stop-color="#000000"/>
      <stop offset="1.0" stop-color="#ffffff"/>
    </linearGradient>
    <linearGradient gradientTransform="matrix(-0.0038, -2.0E-4, 5.0E-4, -0.0136, -135.25, 0.05)" gradientUnits="userSpaceOnUse" id="gradient10" spreadMethod="pad" x1="-819.2" x2="819.2">
      <stop offset="0.0" stop-color="#000000"/>
      <stop offset="1.0" stop-color="#ffffff"/>
    </linearGradient>
    <g id="shape5" transform="matrix(1.0, 0.0, 0.0, 1.0, 42.05, 123.2)">
      <path d="M112.7 -95.2 L112.0 -98.6 111.15 -103.4 110.7 -104.45 109.7 -108.25 108.55 -112.2 107.95 -113.55 107.05 -115.0 Q105.25 -116.05 103.35 -115.5 L102.7 -115.4 100.7 -114.6 99.1 -113.6 Q98.65 -112.75 99.15 -109.55 L99.15 -109.5 Q99.6 -106.2 101.35 -100.2 102.75 -95.4 103.65 -93.4 L103.85 -93.0 Q105.1 -90.2 105.9 -89.95 L110.25 -90.35 112.85 -91.3 113.85 -91.5 112.7 -95.2 M99.7 -116.55 L101.75 -117.45 106.25 -117.8 Q107.5 -117.65 108.2 -117.05 L109.45 -116.1 Q110.2 -114.65 110.5 -112.6 L110.55 -112.2 111.0 -109.25 Q111.95 -113.65 117.25 -114.75 L119.65 -115.15 121.5 -115.15 122.25 -114.8 122.8 -114.5 125.25 -112.7 125.5 -112.35 126.1 -110.7 126.75 -107.5 126.95 -105.6 127.05 -101.7 127.05 -100.4 Q127.15 -92.4 125.8 -90.3 125.2 -89.3 124.05 -89.05 L121.6 -88.7 117.2 -88.05 Q115.95 -88.05 115.3 -88.8 L114.8 -89.5 114.55 -89.3 113.3 -88.7 Q112.0 -88.1 111.2 -88.0 L108.25 -87.6 Q106.2 -87.25 104.9 -87.65 105.05 -86.0 104.1 -84.75 103.45 -83.9 101.85 -83.15 L99.2 -82.35 96.25 -81.65 Q92.2 -81.1 90.75 -82.25 90.25 -82.65 89.05 -85.2 L88.6 -86.15 Q87.0 -89.75 86.4 -92.5 L85.4 -100.25 Q84.95 -103.8 85.6 -105.55 86.1 -106.85 87.55 -107.5 L93.55 -108.95 96.65 -109.45 96.75 -109.45 96.75 -110.55 Q96.4 -113.9 97.35 -115.15 97.75 -115.65 99.7 -116.55 M102.35 -89.85 L102.25 -90.4 101.55 -91.9 Q101.0 -92.95 99.3 -98.55 97.6 -103.95 97.35 -105.35 L96.95 -107.7 96.2 -107.8 93.5 -107.25 90.75 -106.7 88.25 -105.95 Q87.3 -105.5 87.3 -103.1 87.35 -100.9 88.15 -97.8 L88.7 -93.8 Q89.3 -90.05 91.05 -86.3 L91.1 -86.2 Q92.35 -83.55 93.05 -83.25 L97.15 -83.55 101.15 -84.85 Q103.35 -85.85 102.6 -88.55 L102.35 -89.85 M124.8 -96.95 L124.55 -99.7 Q124.55 -105.95 124.25 -107.25 L123.7 -111.35 123.25 -111.75 122.9 -111.95 121.75 -112.5 119.8 -112.85 118.15 -112.75 115.85 -112.2 Q114.95 -111.95 114.25 -110.8 112.5 -107.65 114.7 -96.7 114.95 -95.1 115.35 -93.95 115.9 -91.7 116.3 -91.15 117.4 -89.85 121.1 -90.6 125.25 -91.4 125.05 -93.3 L124.8 -96.95" fill="#000000" fill-rule="evenodd" stroke="none"/>
      <path d="M103.65 -93.4 Q102.75 -95.4 101.35 -100.2 99.6 -106.2 99.15 -109.5 L99.15 -109.55 Q98.65 -112.75 99.1 -113.6 L100.7 -114.6 102.7 -115.4 103.35 -115.5 Q105.25 -116.05 107.05 -115.0 L107.95 -113.55 108.55 -112.2 109.7 -108.25 110.7 -104.45 111.15 -103.4 112.0 -98.6 112.7 -95.2 108.15 -94.55 Q105.05 -94.05 103.65 -93.4 M91.05 -86.3 Q89.3 -90.05 88.7 -93.8 L88.15 -97.8 Q87.35 -100.9 87.3 -103.1 87.3 -105.5 88.25 -105.95 L90.75 -106.7 93.5 -107.25 96.2 -107.8 96.95 -107.7 97.35 -105.35 Q97.6 -103.95 99.3 -98.55 101.0 -92.95 101.55 -91.9 L102.25 -90.4 102.35 -89.85 Q101.65 -88.9 100.35 -88.3 98.5 -87.45 97.4 -87.2 L93.55 -86.65 91.05 -86.3 M115.35 -93.95 Q114.95 -95.1 114.7 -96.7 112.5 -107.65 114.25 -110.8 114.95 -111.95 115.85 -112.2 L118.15 -112.75 119.8 -112.85 121.75 -112.5 122.9 -111.95 123.25 -111.75 123.7 -111.35 124.25 -107.25 Q124.55 -105.95 124.55 -99.7 L124.8 -96.95 Q123.2 -94.6 121.15 -93.65 119.65 -92.85 118.95 -92.65 L116.5 -92.75 115.35 -93.95" fill="#999999" fill-rule="evenodd" stroke="none"/>
      <path d="M103.65 -93.4 Q105.05 -94.05 108.15 -94.55 L112.7 -95.2 113.85 -91.5 112.85 -91.3 110.25 -90.35 105.9 -89.95 Q105.1 -90.2 103.85 -93.0 L103.65 -93.4 M91.05 -86.3 L93.55 -86.65 97.4 -87.2 Q98.5 -87.45 100.35 -88.3 101.65 -88.9 102.35 -89.85 L102.6 -88.55 Q103.35 -85.85 101.15 -84.85 L97.15 -83.55 93.05 -83.25 Q92.35 -83.55 91.1 -86.2 L91.05 -86.3 M115.35 -93.95 L116.5 -92.75 118.95 -92.65 Q119.65 -92.85 121.15 -93.65 123.2 -94.6 124.8 -96.95 L125.05 -93.3 Q125.25 -91.4 121.1 -90.6 117.4 -89.85 116.3 -91.15 115.9 -91.7 115.35 -93.95" fill="#bdbdbd" fill-rule="evenodd" stroke="none"/>
      <path d="M-40.7 -52.65 L-41.2 -52.45 -42.05 -52.1 Q-41.6 -53.9 -36.1 -57.1 -30.2 -60.5 -26.0 -61.25 L-19.45 -62.95 -11.95 -64.8 3.15 -67.1 9.65 -67.4 13.2 -77.75 15.55 -85.2 15.85 -85.9 Q14.25 -85.95 11.85 -86.8 9.5 -87.65 8.65 -88.45 8.05 -89.05 7.8 -90.05 L7.7 -91.7 Q7.65 -93.5 8.5 -97.05 9.3 -99.85 10.3 -100.95 12.3 -102.5 14.95 -102.2 L17.65 -101.95 18.65 -101.95 21.1 -101.65 Q21.8 -104.5 23.35 -109.0 L24.85 -113.1 25.55 -114.8 Q26.3 -116.6 27.75 -117.85 29.7 -119.55 32.2 -119.95 L33.25 -120.15 33.5 -120.2 Q41.1 -121.05 43.05 -119.45 43.6 -119.0 43.95 -117.9 L47.7 -118.15 47.85 -118.15 54.05 -118.0 55.2 -117.55 55.9 -117.05 56.05 -116.85 56.15 -117.35 Q56.05 -118.75 56.25 -119.85 56.45 -121.45 57.15 -122.3 L58.45 -123.05 Q63.1 -123.75 66.9 -121.3 L68.0 -120.45 68.45 -119.85 70.0 -117.05 70.1 -114.75 Q70.15 -113.05 68.2 -104.1 66.55 -96.05 65.9 -94.1 L62.75 -83.85 60.7 -77.3 Q57.3 -63.9 51.8 -51.3 L48.9 -44.9 Q46.6 -40.1 43.95 -35.5 L43.65 -35.0 42.7 -33.7 Q42.75 -32.8 37.95 -30.6 L35.95 -29.75 27.65 -26.35 Q21.7 -23.9 15.9 -22.2 L12.55 -21.25 8.95 -20.3 7.45 -19.95 Q-9.8 -17.25 -27.4 -18.15 L-31.1 -18.45 -34.75 -18.8 -36.7 -19.05 Q-37.05 -19.15 -37.25 -19.35 -37.65 -19.6 -37.55 -19.95 L-37.45 -20.4 -37.25 -20.55 -35.7 -20.75 -31.2 -20.35 -31.15 -20.35 Q-17.2 -19.35 -3.5 -20.9 L-0.45 -21.25 Q12.6 -22.95 24.95 -27.6 L31.8 -30.3 33.35 -30.85 Q35.45 -31.6 37.05 -32.6 37.8 -33.05 39.3 -33.7 L40.55 -34.2 40.65 -34.2 44.15 -40.05 Q46.35 -43.75 48.85 -50.05 L51.4 -56.85 57.4 -74.25 60.7 -84.5 64.0 -94.55 66.35 -104.35 Q68.35 -113.2 68.3 -114.8 68.3 -116.65 67.1 -118.35 L66.3 -119.3 Q64.65 -120.7 62.75 -121.0 61.05 -121.55 59.15 -121.05 58.25 -120.8 58.05 -119.85 L58.0 -119.15 57.85 -118.25 57.65 -115.65 57.45 -113.35 57.1 -112.35 57.1 -110.9 Q57.15 -108.25 56.4 -102.55 55.4 -95.5 54.2 -95.5 53.45 -95.5 53.3 -96.1 L53.2 -96.85 54.3 -101.7 Q55.4 -106.15 55.3 -110.85 L55.3 -111.75 55.25 -111.85 55.25 -112.35 55.2 -113.45 55.2 -113.55 54.95 -114.8 54.35 -115.8 53.85 -116.15 52.6 -116.5 47.9 -116.35 44.35 -116.15 44.6 -112.9 44.5 -109.7 44.0 -105.65 43.75 -101.65 Q43.4 -98.9 42.5 -98.9 41.9 -98.9 41.6 -99.7 L41.3 -100.5 Q41.3 -101.1 42.0 -103.6 L42.1 -105.1 42.35 -106.65 42.75 -112.8 Q42.7 -116.95 42.0 -117.7 41.25 -118.4 37.4 -118.35 L32.3 -118.0 32.2 -117.95 31.4 -117.75 Q29.0 -116.8 27.7 -114.4 26.3 -111.75 25.4 -109.0 L24.75 -107.35 23.1 -101.7 22.95 -100.65 Q22.25 -96.3 21.35 -96.3 20.55 -96.3 20.35 -96.95 L20.35 -97.7 20.65 -99.65 19.75 -99.9 11.6 -99.6 Q10.2 -96.25 9.65 -92.6 9.45 -91.4 9.85 -90.4 10.1 -89.7 10.95 -89.35 L16.55 -87.7 17.7 -84.8 14.55 -75.9 12.05 -68.35 Q11.35 -65.9 10.0 -63.65 L8.95 -61.95 8.75 -62.2 8.65 -62.55 8.7 -63.4 9.05 -65.45 5.05 -65.0 -4.0 -63.9 -13.2 -62.6 -19.15 -61.05 -21.55 -60.35 Q-23.8 -60.05 -25.95 -59.2 -30.25 -57.7 -34.5 -55.6 L-38.25 -53.65 Q-39.25 -53.2 -40.25 -52.85 L-40.7 -52.65" fill="#000000" fill-rule="evenodd" stroke="none"/>
      <path d="M-37.45 -20.4 L-37.75 -21.25 -39.7 -27.5 Q-41.85 -35.65 -41.9 -39.85 L-41.55 -46.5 Q-41.2 -51.1 -40.7 -52.65 L-40.25 -52.85 -39.3 -52.75 -37.55 -53.1 -35.0 -53.8 -28.2 -55.5 Q-15.55 -59.2 -2.8 -61.05 L-0.2 -61.25 3.35 -60.75 7.9 -60.15 11.0 -60.2 Q12.0 -61.4 13.25 -64.5 L15.2 -69.6 18.6 -78.1 Q20.1 -81.75 20.85 -85.5 L21.0 -87.55 20.7 -88.35 Q19.1 -89.7 17.0 -90.15 15.35 -90.6 13.3 -91.5 12.5 -91.7 12.0 -92.2 11.55 -92.7 11.5 -93.2 11.5 -93.75 12.7 -97.2 L13.15 -98.3 13.85 -99.3 14.4 -99.75 17.75 -99.75 19.85 -99.55 19.9 -99.55 20.65 -99.65 20.35 -97.7 20.35 -96.95 Q20.55 -96.3 21.35 -96.3 22.25 -96.3 22.95 -100.65 L24.0 -98.65 Q24.3 -98.15 26.65 -105.95 29.0 -113.8 32.3 -118.0 L37.4 -118.35 Q41.25 -118.4 42.0 -117.7 42.7 -116.95 42.75 -112.8 L42.35 -106.65 42.1 -105.1 42.0 -103.6 Q41.3 -101.1 41.3 -100.5 L41.6 -99.7 Q41.9 -98.9 42.5 -98.9 43.4 -98.9 43.75 -101.65 L44.0 -105.65 44.5 -109.7 44.6 -112.9 44.35 -116.15 47.9 -116.35 52.6 -116.5 53.85 -116.15 54.35 -115.8 54.95 -114.8 55.2 -113.55 55.2 -113.45 55.25 -112.35 55.25 -111.85 55.3 -111.75 55.3 -110.85 Q55.4 -106.15 54.3 -101.7 L53.2 -96.85 53.3 -96.1 Q53.45 -95.5 54.2 -95.5 55.4 -95.5 56.4 -102.55 57.15 -108.25 57.1 -110.9 L57.1 -112.35 57.45 -113.35 57.65 -115.65 57.85 -118.25 58.0 -119.15 58.05 -119.85 62.5 -119.85 64.95 -118.4 Q66.4 -117.25 66.3 -113.25 66.2 -109.25 60.7 -90.75 56.85 -77.55 54.2 -70.5 L49.55 -57.3 48.75 -55.2 45.3 -46.25 40.25 -35.75 39.3 -33.7 Q37.8 -33.05 37.05 -32.6 35.45 -31.6 33.35 -30.85 L31.8 -30.3 24.95 -27.6 Q12.6 -22.95 -0.45 -21.25 L-3.5 -20.9 Q-17.2 -19.35 -31.15 -20.35 L-31.2 -20.35 -35.7 -20.75 -37.25 -20.55 -37.45 -20.4" fill="#999999" fill-rule="evenodd" stroke="none"/>
      <path d="M-40.25 -52.85 Q-39.25 -53.2 -38.25 -53.65 L-34.5 -55.6 Q-30.25 -57.7 -25.95 -59.2 -23.8 -60.05 -21.55 -60.35 L-19.15 -61.05 -13.2 -62.6 -4.0 -63.9 5.05 -65.0 9.05 -65.45 8.7 -63.4 8.65 -62.55 8.75 -62.2 8.95 -61.95 10.0 -63.65 Q11.35 -65.9 12.05 -68.35 L14.55 -75.9 17.7 -84.8 16.55 -87.7 10.95 -89.35 Q10.1 -89.7 9.85 -90.4 9.45 -91.4 9.65 -92.6 10.2 -96.25 11.6 -99.6 L19.75 -99.9 20.65 -99.65 19.9 -99.55 19.85 -99.55 17.75 -99.75 14.4 -99.75 13.85 -99.3 13.15 -98.3 12.7 -97.2 Q11.5 -93.75 11.5 -93.2 11.55 -92.7 12.0 -92.2 12.5 -91.7 13.3 -91.5 15.35 -90.6 17.0 -90.15 19.1 -89.7 20.7 -88.35 L21.0 -87.55 20.85 -85.5 Q20.1 -81.75 18.6 -78.1 L15.2 -69.6 13.25 -64.5 Q12.0 -61.4 11.0 -60.2 L7.9 -60.15 3.35 -60.75 -0.2 -61.25 -2.8 -61.05 Q-15.55 -59.2 -28.2 -55.5 L-35.0 -53.8 -37.55 -53.1 -39.3 -52.75 -40.25 -52.85 M22.95 -100.65 L23.1 -101.7 24.75 -107.35 25.4 -109.0 Q26.3 -111.75 27.7 -114.4 29.0 -116.8 31.4 -117.75 L32.2 -117.95 32.3 -118.0 Q29.0 -113.8 26.65 -105.95 24.3 -98.15 24.0 -98.65 L22.95 -100.65 M58.05 -119.85 Q58.25 -120.8 59.15 -121.05 61.05 -121.55 62.75 -121.0 64.65 -120.7 66.3 -119.3 L67.1 -118.35 Q68.3 -116.65 68.3 -114.8 68.35 -113.2 66.35 -104.35 L64.0 -94.55 60.7 -84.5 57.4 -74.25 51.4 -56.85 48.85 -50.05 Q46.35 -43.75 44.15 -40.05 L40.65 -34.2 40.55 -34.2 39.3 -33.7 40.25 -35.75 45.3 -46.25 48.75 -55.2 49.55 -57.3 54.2 -70.5 Q56.85 -77.55 60.7 -90.75 66.2 -109.25 66.3 -113.25 66.4 -117.25 64.95 -118.4 L62.5 -119.85 58.05 -119.85" fill="#bdbdbd" fill-rule="evenodd" stroke="none"/>
    </g>
  </defs>
</svg>
