<?xml version="1.0" encoding="UTF-8" standalone="no"?>
<svg xmlns:xlink="http://www.w3.org/1999/xlink" height="531.5px" width="460.6px" xmlns="http://www.w3.org/2000/svg">
  <g transform="matrix(1.0, 0.0, 0.0, 1.0, 193.65, 334.05)">
    <use height="208.8" transform="matrix(0.4725, 0.0, 0.0, 0.4725, -75.9828, -218.3828)" width="298.95" xlink:href="#shape0"/>
    <use height="202.1" transform="matrix(0.4725, 0.0, 0.0, 0.4725, -74.4, -216.8)" width="292.25" xlink:href="#sprite0"/>
  </g>
  <defs>
    <g id="shape0" transform="matrix(1.0, 0.0, 0.0, 1.0, 3.35, 3.35)">
      <path d="M260.9 118.6 Q255.55 98.65 251.7 87.75 248.55 78.85 244.95 71.4 L245.45 70.9 Q246.9 69.4 246.9 67.25 246.9 65.1 245.45 63.55 244.05 62.05 242.0 62.05 241.05 62.05 240.25 62.4 L236.15 55.95 Q233.6 52.25 228.0 47.0 L225.35 44.6 213.15 33.95 Q209.5 30.45 197.8 26.35 185.85 22.15 181.05 17.95 L180.95 17.0 189.2 16.15 189.45 15.5 Q193.9 16.45 198.2 17.75 218.6 24.2 231.55 36.7 229.9 36.9 228.7 38.15 227.3 39.7 227.3 41.85 227.3 44.0 228.7 45.5 229.8 46.7 231.25 46.95 L232.2 47.05 233.2 46.95 Q234.6 46.65 235.65 45.5 236.5 44.6 236.85 43.5 L239.4 47.15 Q259.85 77.0 270.85 117.6 L270.85 117.65 262.8 118.4 260.9 118.6 M191.35 7.0 L190.8 6.95 180.55 5.95 Q172.8 5.95 170.7 6.2 166.25 6.7 161.95 8.6 L160.4 0.55 Q180.4 -1.25 191.6 2.95 L191.35 7.0 M16.75 162.2 Q11.5 143.3 11.25 126.0 12.4 127.2 14.0 127.2 15.7 127.2 16.85 125.85 18.05 124.5 18.05 122.6 18.05 120.7 16.85 119.35 15.7 118.0 14.0 118.0 12.45 118.0 11.3 119.15 12.05 100.0 19.1 82.75 28.45 64.95 45.85 49.9 46.1 51.1 47.1 52.05 48.55 53.4 50.6 53.4 L52.5 53.05 52.7 53.5 52.9 53.9 Q44.8 62.8 37.2 74.45 L35.05 77.85 Q34.75 76.9 34.05 76.15 32.8 74.75 31.0 74.75 29.2 74.75 27.9 76.15 26.65 77.6 26.65 79.65 26.65 81.7 27.9 83.1 29.2 84.55 31.0 84.55 L31.15 84.65 Q18.9 107.2 18.9 127.55 L19.4 142.8 19.9 161.2 Q18.25 161.55 16.75 162.2 M66.7 18.0 Q76.8 13.75 85.25 12.85 L88.0 15.5 Q86.5 18.2 84.0 19.3 L79.5 20.5 Q76.5 21.15 74.9 21.95 73.75 22.5 70.65 24.35 L67.35 19.65 66.7 18.0 M97.5 18.45 L94.8 10.95 Q121.25 -1.55 148.0 1.75 L149.3 7.15 138.7 7.6 124.55 8.9 Q109.9 11.1 97.5 18.45" fill="#aeaeae" fill-rule="evenodd" stroke="none"/>
      <path d="M236.85 43.5 Q236.5 44.6 235.65 45.5 234.6 46.65 233.2 46.95 L232.2 47.05 231.25 46.95 Q229.8 46.7 228.7 45.5 227.3 44.0 227.3 41.85 227.3 39.7 228.7 38.15 229.9 36.9 231.55 36.7 L232.45 37.6 236.85 43.5 M240.25 62.4 Q241.05 62.05 242.0 62.05 244.05 62.05 245.45 63.55 246.9 65.1 246.9 67.25 246.9 69.4 245.45 70.9 L244.95 71.4 Q243.7 72.45 242.0 72.45 239.95 72.45 238.5 70.9 237.1 69.4 237.1 67.25 237.1 65.1 238.5 63.55 239.25 62.75 240.25 62.4 M175.4 30.9 Q175.4 28.75 176.9 27.2 178.45 25.7 180.6 25.7 182.75 25.7 184.25 27.2 185.8 28.75 185.8 30.9 185.8 33.05 184.25 34.55 182.75 36.1 180.6 36.1 178.45 36.1 176.9 34.55 175.4 33.05 175.4 30.9 M197.0 58.05 Q198.45 56.8 200.5 56.8 202.55 56.8 203.95 58.05 205.4 59.35 205.4 61.15 205.4 62.95 203.95 64.2 202.55 65.5 200.5 65.5 198.45 65.5 197.0 64.2 195.6 62.95 195.6 61.15 195.6 59.35 197.0 58.05 M163.6 57.55 L164.2 56.9 Q165.75 55.65 167.9 55.65 L169.7 55.9 Q170.7 56.2 171.55 56.9 173.1 58.2 173.1 60.0 173.1 61.8 171.55 63.05 170.05 64.35 167.9 64.35 165.75 64.35 164.2 63.05 162.7 61.8 162.7 60.0 162.7 58.6 163.6 57.55 M186.65 97.25 Q184.6 97.25 183.15 96.05 181.75 94.9 181.75 93.2 181.75 91.5 183.15 90.3 184.6 89.15 186.65 89.15 188.7 89.15 190.1 90.3 191.55 91.5 191.55 93.2 191.55 94.9 190.1 96.05 188.7 97.25 186.65 97.25 M11.25 126.0 Q11.15 122.55 11.3 119.15 12.45 118.0 14.0 118.0 15.7 118.0 16.85 119.35 18.05 120.7 18.05 122.6 18.05 124.5 16.85 125.85 15.7 127.2 14.0 127.2 12.4 127.2 11.25 126.0 M45.85 49.9 L48.35 47.75 49.7 46.7 52.45 44.55 Q53.35 44.85 54.05 45.55 55.5 46.9 55.5 48.8 55.5 50.7 54.05 52.05 L52.5 53.05 50.6 53.4 Q48.55 53.4 47.1 52.05 46.1 51.1 45.85 49.9 M137.55 28.0 Q138.9 26.9 140.8 26.9 142.7 26.9 144.05 28.0 145.4 29.1 145.4 30.65 145.4 32.2 144.05 33.3 142.7 34.4 140.8 34.4 138.9 34.4 137.55 33.3 136.2 32.2 136.2 30.65 136.2 29.1 137.55 28.0 M132.05 56.35 Q133.35 57.65 133.35 59.45 133.35 61.25 132.05 62.5 130.8 63.8 129.0 63.8 127.2 63.8 125.9 62.5 124.65 61.25 124.65 59.45 124.65 57.65 125.9 56.35 127.2 55.1 129.0 55.1 130.8 55.1 132.05 56.35 M139.35 92.05 Q141.4 92.05 142.8 93.15 144.25 94.25 144.25 95.8 144.25 97.35 142.8 98.45 141.4 99.55 139.35 99.55 137.3 99.55 135.85 98.45 134.45 97.35 134.45 95.8 134.45 94.25 135.85 93.15 137.3 92.05 139.35 92.05 M35.05 77.85 L35.35 79.65 Q35.35 81.7 34.05 83.1 32.85 84.5 31.2 84.55 L31.0 84.55 Q29.2 84.55 27.9 83.1 26.65 81.7 26.65 79.65 26.65 77.6 27.9 76.15 29.2 74.75 31.0 74.75 32.8 74.75 34.05 76.15 34.75 76.9 35.05 77.85 M46.25 119.7 Q44.65 119.6 43.5 118.5 42.25 117.35 42.25 115.65 42.25 113.95 43.5 112.75 44.8 111.6 46.6 111.6 48.4 111.6 49.65 112.75 50.8 113.8 50.95 115.25 L50.95 115.65 Q50.95 117.35 49.65 118.5 48.4 119.7 46.6 119.7 L46.25 119.7 M64.6 75.8 Q63.35 76.45 61.85 76.45 59.45 76.45 57.75 74.85 56.05 73.25 56.05 70.95 56.05 68.65 57.75 67.05 58.35 66.45 59.1 66.1 60.3 65.45 61.85 65.45 64.25 65.45 65.95 67.05 67.65 68.65 67.65 70.95 67.65 73.25 65.95 74.85 L64.6 75.8" fill="#181c23" fill-rule="evenodd" stroke="none"/>
      <path d="M244.95 71.4 Q248.55 78.85 251.7 87.75 255.55 98.65 260.9 118.6 210.85 123.45 162.55 131.35 138.15 111.9 121.2 95.4 113.0 87.4 105.75 79.45 133.3 65.95 163.6 57.55 162.7 58.6 162.7 60.0 162.7 61.8 164.2 63.05 165.75 64.35 167.9 64.35 170.05 64.35 171.55 63.05 173.1 61.8 173.1 60.0 173.1 58.2 171.55 56.9 170.7 56.2 169.7 55.9 201.25 47.75 228.0 47.0 233.6 52.25 236.15 55.95 L240.25 62.4 Q239.25 62.75 238.5 63.55 237.1 65.1 237.1 67.25 237.1 69.4 238.5 70.9 239.95 72.45 242.0 72.45 243.7 72.45 244.95 71.4 M197.0 58.05 Q195.6 59.35 195.6 61.15 195.6 62.95 197.0 64.2 198.45 65.5 200.5 65.5 202.55 65.5 203.95 64.2 205.4 62.95 205.4 61.15 205.4 59.35 203.95 58.05 202.55 56.8 200.5 56.8 198.45 56.8 197.0 58.05 M186.65 97.25 Q188.7 97.25 190.1 96.05 191.55 94.9 191.55 93.2 191.55 91.5 190.1 90.3 188.7 89.15 186.65 89.15 184.6 89.15 183.15 90.3 181.75 91.5 181.75 93.2 181.75 94.9 183.15 96.05 184.6 97.25 186.65 97.25 M139.35 92.05 Q137.3 92.05 135.85 93.15 134.45 94.25 134.45 95.8 134.45 97.35 135.85 98.45 137.3 99.55 139.35 99.55 141.4 99.55 142.8 98.45 144.25 97.35 144.25 95.8 144.25 94.25 142.8 93.15 141.4 92.05 139.35 92.05 M21.2 160.95 L21.05 160.95 Q25.65 140.05 46.25 119.7 L46.6 119.7 Q48.4 119.7 49.65 118.5 50.95 117.35 50.95 115.65 L50.95 115.25 Q62.4 104.8 77.3 95.3 L83.85 104.3 Q99.6 125.3 115.05 139.9 L111.15 140.7 92.3 144.6 Q66.7 150.05 41.65 156.45 L21.2 160.95" fill="#484848" fill-rule="evenodd" stroke="none"/>
      <path d="M189.45 15.5 L189.2 16.15 180.95 17.0 181.05 17.95 Q185.85 22.15 197.8 26.35 209.5 30.45 213.15 33.95 L225.35 44.6 228.0 47.0 Q201.25 47.75 169.7 55.9 L167.9 55.65 Q165.75 55.65 164.2 56.9 L163.6 57.55 Q133.3 65.95 105.75 79.45 86.6 58.3 74.25 37.15 L74.2 37.05 74.85 36.8 78.35 35.3 75.35 31.1 Q81.9 25.55 92.55 22.95 81.9 25.55 75.35 31.1 L78.35 35.3 74.85 36.8 74.2 37.05 72.15 33.5 70.9 31.85 66.95 26.6 63.45 21.5 67.35 19.65 70.65 24.35 Q73.75 22.5 74.9 21.95 76.5 21.15 79.5 20.5 L84.0 19.3 Q86.5 18.2 88.0 15.5 91.2 18.95 92.4 22.3 L98.3 20.7 97.5 18.45 Q109.9 11.1 124.55 8.9 L138.7 7.6 149.3 7.15 150.55 12.35 Q156.7 12.1 162.65 12.3 L161.95 8.6 Q166.25 6.7 170.7 6.2 172.8 5.95 180.55 5.95 L190.8 6.95 191.35 7.0 Q190.85 11.1 189.45 15.5 M180.95 17.0 Q171.25 17.8 163.6 17.35 L162.65 12.3 163.6 17.35 Q171.25 17.8 180.95 17.0 M175.4 30.9 Q175.4 33.05 176.9 34.55 178.45 36.1 180.6 36.1 182.75 36.1 184.25 34.55 185.8 33.05 185.8 30.9 185.8 28.75 184.25 27.2 182.75 25.7 180.6 25.7 178.45 25.7 176.9 27.2 175.4 28.75 175.4 30.9 M98.3 20.7 L101.0 28.35 Q129.35 28.45 152.0 18.55 L150.55 12.35 152.0 18.55 Q129.35 28.45 101.0 28.35 L98.3 20.7 M137.55 28.0 Q136.2 29.1 136.2 30.65 136.2 32.2 137.55 33.3 138.9 34.4 140.8 34.4 142.7 34.4 144.05 33.3 145.4 32.2 145.4 30.65 145.4 29.1 144.05 28.0 142.7 26.9 140.8 26.9 138.9 26.9 137.55 28.0 M92.55 22.95 L92.6 22.95 92.55 22.8 92.4 22.3 92.45 22.45 92.55 22.95 M132.05 56.35 Q130.8 55.1 129.0 55.1 127.2 55.1 125.9 56.35 124.65 57.65 124.65 59.45 124.65 61.25 125.9 62.5 127.2 63.8 129.0 63.8 130.8 63.8 132.05 62.5 133.35 61.25 133.35 59.45 133.35 57.65 132.05 56.35 M75.35 31.1 L70.65 24.35 75.35 31.1 M74.85 36.8 L72.15 33.5 74.85 36.8 M31.0 84.55 L31.2 84.55 Q32.85 84.5 34.05 83.1 35.35 81.7 35.35 79.65 L35.05 77.85 37.2 74.45 Q44.8 62.8 52.9 53.9 L52.7 53.5 52.5 53.05 54.05 52.05 54.35 52.3 52.9 53.9 Q55.75 59.95 59.1 66.1 58.35 66.45 57.75 67.05 56.05 68.65 56.05 70.95 56.05 73.25 57.75 74.85 59.45 76.45 61.85 76.45 63.35 76.45 64.6 75.8 70.35 85.45 77.3 95.3 62.4 104.8 50.95 115.25 50.8 113.8 49.65 112.75 48.4 111.6 46.6 111.6 44.8 111.6 43.5 112.75 42.25 113.95 42.25 115.65 42.25 117.35 43.5 118.5 44.65 119.6 46.25 119.7 25.65 140.05 21.05 160.95 L21.2 160.95 21.05 161.0 19.9 161.2 19.4 142.8 18.9 127.55 Q18.9 107.2 31.15 84.65 L31.0 84.55" fill="#666666" fill-rule="evenodd" stroke="none"/>
      <path d="M260.9 118.6 L262.8 118.4 270.85 117.65 270.9 117.6 Q281.55 124.7 292.0 138.95 292.8 140.15 291.05 142.5 290.35 143.9 285.4 149.05 280.4 154.15 278.5 153.45 276.55 153.35 275.0 151.5 273.5 150.1 278.8 143.95 284.05 137.75 267.8 127.75 L267.6 126.95 Q225.9 132.4 175.05 141.25 L172.8 141.65 159.75 143.95 Q153.45 138.3 148.9 133.65 L157.65 132.15 162.55 131.35 Q210.85 123.45 260.9 118.6 M101.65 154.85 L59.6 163.25 Q60.5 165.9 62.35 168.25 63.7 172.0 63.05 174.15 58.3 186.1 48.75 191.95 L40.6 196.15 Q11.15 206.8 0.6 198.35 -1.1 195.8 1.9 193.25 L9.1 185.45 9.9 182.95 Q7.45 172.8 9.8 166.95 13.0 163.75 16.75 162.2 L16.95 162.95 16.75 162.2 Q18.25 161.55 19.9 161.2 L21.05 161.0 21.2 160.95 41.65 156.45 Q66.7 150.05 92.3 144.6 96.2 149.4 101.65 154.85 M18.65 171.95 L18.6 171.95 Q17.5 176.6 19.1 180.05 L17.4 183.35 Q9.9 188.65 10.6 190.75 11.25 192.7 13.45 192.4 37.85 192.4 47.6 180.75 52.3 175.3 51.3 171.05 49.15 168.65 48.4 165.55 L20.65 171.4 18.65 171.95" fill="#959595" fill-rule="evenodd" stroke="none"/>
      <path d="M159.75 143.95 L126.7 150.05 123.35 150.65 101.65 154.85 Q96.2 149.4 92.3 144.6 L111.15 140.7 115.05 139.9 Q99.6 125.3 83.85 104.3 L77.3 95.3 Q70.35 85.45 64.6 75.8 L65.95 74.85 Q67.65 73.25 67.65 70.95 67.65 68.65 65.95 67.05 64.25 65.45 61.85 65.45 60.3 65.45 59.1 66.1 55.75 59.95 52.9 53.9 L54.35 52.3 54.05 52.05 Q55.5 50.7 55.5 48.8 55.5 46.9 54.05 45.55 53.35 44.85 52.45 44.55 55.95 41.8 59.45 39.35 L52.1 29.15 Q51.35 27.9 51.9 26.65 L63.45 21.5 66.95 26.6 70.9 31.85 72.15 33.5 74.2 37.05 74.25 37.15 Q86.6 58.3 105.75 79.45 113.0 87.4 121.2 95.4 138.15 111.9 162.55 131.35 L157.65 132.15 148.9 133.65 Q153.45 138.3 159.75 143.95 M59.45 39.35 L60.2 40.35 Q68.85 38.8 74.2 37.05 68.85 38.8 60.2 40.35 L59.45 39.35 M148.9 133.65 L115.05 139.9 148.9 133.65" fill="#d5d5d5" fill-rule="evenodd" stroke="none"/>
      <path d="M260.9 118.6 L262.8 118.4 270.85 117.65 270.85 117.6 Q259.85 77.0 239.4 47.15 L236.85 43.5 Q236.5 44.6 235.65 45.5 234.6 46.65 233.2 46.95 L232.2 47.05 231.25 46.95 Q229.8 46.7 228.7 45.5 227.3 44.0 227.3 41.85 227.3 39.7 228.7 38.15 229.9 36.9 231.55 36.7 218.6 24.2 198.2 17.75 193.9 16.45 189.45 15.5 L189.2 16.15 180.95 17.0 Q171.25 17.8 163.6 17.35 L162.65 12.3 161.95 8.6 160.4 0.55 Q180.4 -1.25 191.6 2.95 L191.35 7.0 Q190.85 11.1 189.45 15.5 M240.25 62.4 Q241.05 62.05 242.0 62.05 244.05 62.05 245.45 63.55 246.9 65.1 246.9 67.25 246.9 69.4 245.45 70.9 L244.95 71.4 Q243.7 72.45 242.0 72.45 239.95 72.45 238.5 70.9 237.1 69.4 237.1 67.25 237.1 65.1 238.5 63.55 239.25 62.75 240.25 62.4 M231.55 36.7 L232.45 37.6 236.85 43.5 M175.4 30.9 Q175.4 28.75 176.9 27.2 178.45 25.7 180.6 25.7 182.75 25.7 184.25 27.2 185.8 28.75 185.8 30.9 185.8 33.05 184.25 34.55 182.75 36.1 180.6 36.1 178.45 36.1 176.9 34.55 175.4 33.05 175.4 30.9 M197.0 58.05 Q198.45 56.8 200.5 56.8 202.55 56.8 203.95 58.05 205.4 59.35 205.4 61.15 205.4 62.95 203.95 64.2 202.55 65.5 200.5 65.5 198.45 65.5 197.0 64.2 195.6 62.95 195.6 61.15 195.6 59.35 197.0 58.05 M163.6 57.55 L164.2 56.9 Q165.75 55.65 167.9 55.65 L169.7 55.9 Q170.7 56.2 171.55 56.9 173.1 58.2 173.1 60.0 173.1 61.8 171.55 63.05 170.05 64.35 167.9 64.35 165.75 64.35 164.2 63.05 162.7 61.8 162.7 60.0 162.7 58.6 163.6 57.55 M186.65 97.25 Q184.6 97.25 183.15 96.05 181.75 94.9 181.75 93.2 181.75 91.5 183.15 90.3 184.6 89.15 186.65 89.15 188.7 89.15 190.1 90.3 191.55 91.5 191.55 93.2 191.55 94.9 190.1 96.05 188.7 97.25 186.65 97.25 M270.9 117.6 Q281.55 124.7 292.0 138.95 292.8 140.15 291.05 142.5 290.35 143.9 285.4 149.05 280.4 154.15 278.5 153.45 276.55 153.35 275.0 151.5 273.5 150.1 278.8 143.95 284.05 137.75 267.8 127.75 L267.6 126.95 Q225.9 132.4 175.05 141.25 L172.8 141.65 159.75 143.95 126.7 150.05 123.35 150.65 101.65 154.85 59.6 163.25 Q60.5 165.9 62.35 168.25 63.7 172.0 63.05 174.15 58.3 186.1 48.75 191.95 L40.6 196.15 Q11.15 206.8 0.6 198.35 -1.1 195.8 1.9 193.25 L9.1 185.45 9.9 182.95 Q7.45 172.8 9.8 166.95 13.0 163.75 16.75 162.2 11.5 143.3 11.25 126.0 11.15 122.55 11.3 119.15 12.05 100.0 19.1 82.75 28.45 64.95 45.85 49.9 L48.35 47.75 49.7 46.7 52.45 44.55 Q55.95 41.8 59.45 39.35 L52.1 29.15 Q51.35 27.9 51.9 26.65 52.25 25.8 53.2 24.95 57.85 22.05 62.4 19.95 L62.7 19.8 64.85 18.8 66.7 18.0 Q76.8 13.75 85.25 12.85 L88.0 15.5 Q91.2 18.95 92.4 22.3 L98.3 20.7 97.5 18.45 94.8 10.95 Q121.25 -1.55 148.0 1.75 L149.3 7.15 150.55 12.35 Q156.7 12.1 162.65 12.3 M270.85 117.6 L270.9 117.6 M260.9 118.6 Q210.85 123.45 162.55 131.35 L157.65 132.15 148.9 133.65 115.05 139.9 111.15 140.7 92.3 144.6 Q66.7 150.05 41.65 156.45 L21.2 160.95 21.05 161.0 19.9 161.2 Q18.25 161.55 16.75 162.2 L16.95 162.95 M150.55 12.35 L152.0 18.55 Q129.35 28.45 101.0 28.35 L98.3 20.7 M137.55 28.0 Q138.9 26.9 140.8 26.9 142.7 26.9 144.05 28.0 145.4 29.1 145.4 30.65 145.4 32.2 144.05 33.3 142.7 34.4 140.8 34.4 138.9 34.4 137.55 33.3 136.2 32.2 136.2 30.65 136.2 29.1 137.55 28.0 M92.55 22.95 L92.6 22.95 92.55 22.8 92.45 22.45 92.4 22.3 M92.55 22.95 Q81.9 25.55 75.35 31.1 L78.35 35.3 74.85 36.8 74.2 37.05 Q68.85 38.8 60.2 40.35 L59.45 39.35 M132.05 56.35 Q133.35 57.65 133.35 59.45 133.35 61.25 132.05 62.5 130.8 63.8 129.0 63.8 127.2 63.8 125.9 62.5 124.65 61.25 124.65 59.45 124.65 57.65 125.9 56.35 127.2 55.1 129.0 55.1 130.8 55.1 132.05 56.35 M139.35 92.05 Q141.4 92.05 142.8 93.15 144.25 94.25 144.25 95.8 144.25 97.35 142.8 98.45 141.4 99.55 139.35 99.55 137.3 99.55 135.85 98.45 134.45 97.35 134.45 95.8 134.45 94.25 135.85 93.15 137.3 92.05 139.35 92.05 M67.35 19.65 L70.65 24.35 75.35 31.1 M67.35 19.65 L63.45 21.5 66.95 26.6 70.9 31.85 72.15 33.5 74.85 36.8 M54.05 52.05 Q55.5 50.7 55.5 48.8 55.5 46.9 54.05 45.55 53.35 44.85 52.45 44.55 M63.45 21.5 L51.9 26.65 M35.05 77.85 L35.35 79.65 Q35.35 81.7 34.05 83.1 32.85 84.5 31.2 84.55 L31.0 84.55 Q29.2 84.55 27.9 83.1 26.65 81.7 26.65 79.65 26.65 77.6 27.9 76.15 29.2 74.75 31.0 74.75 32.8 74.75 34.05 76.15 34.75 76.9 35.05 77.85 M46.25 119.7 Q44.65 119.6 43.5 118.5 42.25 117.35 42.25 115.65 42.25 113.95 43.5 112.75 44.8 111.6 46.6 111.6 48.4 111.6 49.65 112.75 50.8 113.8 50.95 115.25 L50.95 115.65 Q50.95 117.35 49.65 118.5 48.4 119.7 46.6 119.7 L46.25 119.7 M64.6 75.8 Q63.35 76.45 61.85 76.45 59.45 76.45 57.75 74.85 56.05 73.25 56.05 70.95 56.05 68.65 57.75 67.05 58.35 66.45 59.1 66.1 60.3 65.45 61.85 65.45 64.25 65.45 65.95 67.05 67.65 68.65 67.65 70.95 67.65 73.25 65.95 74.85 L64.6 75.8 M52.5 53.05 L50.6 53.4 Q48.55 53.4 47.1 52.05 46.1 51.1 45.85 49.9 M52.5 53.05 L54.05 52.05 M11.3 119.15 Q12.45 118.0 14.0 118.0 15.7 118.0 16.85 119.35 18.05 120.7 18.05 122.6 18.05 124.5 16.85 125.85 15.7 127.2 14.0 127.2 12.4 127.2 11.25 126.0 M18.65 171.95 L20.65 171.4 48.4 165.55 Q49.15 168.65 51.3 171.05 52.3 175.3 47.6 180.75 37.85 192.4 13.45 192.4 11.25 192.7 10.6 190.75 9.9 188.65 17.4 183.35 L19.1 180.05 Q17.5 176.6 18.6 171.95 L18.65 171.95" fill="none" stroke="#000000" stroke-linecap="round" stroke-linejoin="round" stroke-opacity="0.6627451" stroke-width="6.75"/>
    </g>
    <g id="sprite0" transform="matrix(1.0, 0.0, 0.0, 1.0, 0.0, 0.0)">
      <use height="202.1" transform="matrix(1.0, 0.0, 0.0, 1.0, 0.0, 0.0)" width="292.25" xlink:href="#shape1"/>
    </g>
    <g id="shape1" transform="matrix(1.0, 0.0, 0.0, 1.0, 0.0, 0.0)">
      <path d="M239.4 47.15 Q259.85 77.0 270.85 117.6 L270.85 117.65 270.9 117.6 Q281.55 124.7 292.0 138.95 292.8 140.15 291.05 142.5 290.35 143.9 285.4 149.05 280.4 154.15 278.5 153.45 276.55 153.35 275.0 151.5 273.5 150.1 278.8 143.95 284.05 137.75 267.8 127.75 L267.6 126.95 Q225.9 132.4 175.05 141.25 L172.8 141.65 159.75 143.95 126.7 150.05 123.35 150.65 101.65 154.85 59.6 163.25 Q60.5 165.9 62.35 168.25 63.7 172.0 63.05 174.15 58.3 186.1 48.75 191.95 L40.6 196.15 Q11.15 206.8 0.6 198.35 -1.1 195.8 1.9 193.25 L9.1 185.45 9.9 182.95 Q7.45 172.8 9.8 166.95 13.0 163.75 16.75 162.2 11.5 143.3 11.25 126.0 11.15 122.55 11.3 119.15 12.05 100.0 19.1 82.75 28.45 64.95 45.85 49.9 L48.35 47.75 49.7 46.7 52.45 44.55 Q55.95 41.8 59.45 39.35 L52.1 29.15 Q51.35 27.9 51.9 26.65 L67.35 19.65 66.7 18.0 Q76.8 13.75 85.25 12.85 L88.0 15.5 Q91.2 18.95 92.4 22.3 L98.3 20.7 94.8 10.95 Q121.25 -1.55 148.0 1.75 L150.55 12.35 Q156.7 12.1 162.65 12.3 L160.4 0.55 Q180.4 -1.25 191.6 2.95 L191.35 7.0 Q190.85 11.1 189.45 15.5 193.9 16.45 198.2 17.75 218.6 24.2 231.55 36.7 L232.45 37.6 236.85 43.5 239.4 47.15 M92.4 22.3 L92.45 22.45 92.55 22.95 92.6 22.95 92.4 22.3 M18.65 171.95 L18.6 171.95 Q17.5 176.6 19.1 180.05 L17.4 183.35 Q9.9 188.65 10.6 190.75 11.25 192.7 13.45 192.4 37.85 192.4 47.6 180.75 52.3 175.3 51.3 171.05 49.15 168.65 48.4 165.55 L20.65 171.4 18.65 171.95" fill="url(#gradient0)" fill-rule="evenodd" stroke="none"/>
    </g>
    <linearGradient gradientTransform="matrix(-0.0892, -0.1545, 0.1068, -0.0617, 146.1, 101.1)" gradientUnits="userSpaceOnUse" id="gradient0" spreadMethod="pad" x1="-819.2" x2="819.2">
      <stop offset="0.0" stop-color="#000000" stop-opacity="0.5019608"/>
      <stop offset="1.0" stop-color="#ffffff"/>
    </linearGradient>
  </defs>
</svg>
