<?xml version="1.0" encoding="UTF-8" standalone="no"?>
<svg xmlns:xlink="http://www.w3.org/1999/xlink" height="531.5px" width="460.6px" xmlns="http://www.w3.org/2000/svg">
  <g transform="matrix(1.0, 0.0, 0.0, 1.0, 193.65, 334.05)">
    <use height="85.5" transform="matrix(0.44, 0.0, 0.0, 0.44, -71.9353, -24.7081)" width="311.15" xlink:href="#sprite0"/>
  </g>
  <defs>
    <g id="sprite0" transform="matrix(1.0, 0.0, 0.0, 1.0, 155.55, 42.75)">
      <use height="85.5" transform="matrix(1.0, 0.0, 0.0, 1.0, -155.55, -42.75)" width="311.15" xlink:href="#shape0"/>
      <use height="82.0" transform="matrix(1.0, 0.0, 0.0, 1.0, -153.8, -41.0)" width="307.65" xlink:href="#sprite1"/>
    </g>
    <g id="shape0" transform="matrix(1.0, 0.0, 0.0, 1.0, 155.55, 42.75)">
      <path d="M49.35 -23.3 Q48.45 -24.9 47.1 -25.75 L46.15 -26.45 Q43.45 -28.65 40.0 -29.05 L28.4 -29.6 24.05 -28.9 20.4 -28.0 19.25 -27.75 17.65 -27.0 Q14.75 -25.2 13.7 -23.05 L8.5 -23.3 13.7 -23.05 19.35 -22.6 21.6 -22.4 Q23.55 -20.5 24.15 -18.7 L21.2 -18.25 18.8 -18.1 4.8 -17.9 -10.8 -17.9 -21.1 -17.9 Q-20.85 -20.05 -18.9 -22.4 L-16.75 -22.6 -11.05 -23.05 -11.1 -23.1 -12.9 -24.6 -15.7 -27.0 Q-18.45 -28.9 -23.15 -30.05 L-32.35 -30.55 -36.4 -30.15 -40.0 -29.9 -41.95 -29.35 -43.25 -28.85 -44.8 -27.95 Q-46.35 -27.4 -46.45 -25.4 L-41.9 -24.8 -37.65 -24.1 Q-34.9 -21.0 -35.2 -18.35 L-35.25 -18.35 -50.8 -19.55 -55.25 -20.1 -63.6 -21.25 -64.8 -21.35 -68.8 -21.65 -70.4 -21.7 Q-75.55 -21.85 -80.45 -22.9 -79.9 -24.9 -78.0 -26.95 L-75.85 -27.0 -73.3 -27.05 -73.65 -27.1 Q-74.2 -28.55 -75.1 -29.6 L-77.95 -32.0 Q-80.15 -33.5 -84.8 -34.55 L-88.0 -34.8 -96.0 -34.45 -100.0 -33.85 -102.05 -33.25 Q-102.8 -32.9 -103.6 -32.85 -105.85 -32.65 -106.1 -30.15 L-101.25 -29.25 -96.8 -28.3 Q-93.55 -23.8 -95.75 -20.45 -99.85 -20.95 -104.4 -23.0 L-119.95 -26.85 -126.55 -28.5 Q-129.45 -31.55 -132.7 -32.65 L-129.4 -32.55 -126.4 -32.45 -111.65 -31.05 -106.1 -30.15 -111.65 -31.05 Q-110.0 -33.15 -107.45 -35.3 -87.15 -41.75 -69.4 -32.65 -66.95 -29.7 -65.65 -26.95 L-52.5 -26.1 -46.45 -25.4 -52.5 -26.1 -48.75 -30.05 Q-28.65 -37.1 -10.7 -28.6 -8.25 -25.9 -6.85 -23.25 L-11.05 -23.05 -6.85 -23.25 Q0.75 -23.6 8.5 -23.3 10.05 -26.0 12.9 -28.9 32.5 -37.15 51.0 -29.75 53.95 -26.8 55.55 -23.95 L49.35 -23.3 55.55 -23.95 68.7 -24.7 72.85 -24.75 68.7 -24.7 Q70.2 -27.45 72.9 -30.4 92.25 -39.25 110.95 -32.45 113.1 -30.45 114.55 -28.45 L109.2 -27.65 114.55 -28.45 129.85 -29.85 Q128.85 -39.35 146.9 -37.45 L149.3 -35.2 Q153.3 -30.9 153.8 -26.1 L153.75 -26.1 151.85 -26.2 Q151.3 -26.95 150.7 -28.25 L150.2 -29.35 147.95 -32.25 Q146.65 -33.75 144.4 -33.8 L140.4 -33.75 138.8 -33.45 137.6 -33.15 Q135.4 -32.6 134.1 -31.4 133.8 -31.1 133.6 -30.0 L136.05 -30.05 137.9 -30.1 Q141.1 -27.45 141.15 -24.75 L136.4 -24.35 132.8 -23.6 124.8 -21.85 123.2 -21.65 115.2 -20.95 111.2 -20.4 103.2 -19.9 98.25 -19.65 Q97.6 -22.45 99.7 -25.85 L105.35 -27.0 109.2 -27.65 106.85 -28.85 Q102.0 -30.9 96.85 -32.05 L93.6 -32.15 88.15 -31.65 Q87.6 -31.3 86.8 -31.3 82.85 -31.4 78.8 -29.15 75.05 -27.75 72.85 -24.75 L80.3 -24.65 80.85 -24.65 Q83.95 -22.0 84.05 -19.4 L84.0 -19.4 80.8 -18.75 73.6 -18.25 71.65 -18.15 64.4 -17.55 56.4 -17.35 55.2 -17.25 48.4 -16.95 Q44.85 -16.75 41.2 -16.85 L38.6 -16.9 38.55 -16.9 Q38.55 -19.3 40.45 -22.0 L46.25 -22.9 49.35 -23.3 M129.85 -29.85 L133.6 -30.0 129.85 -29.85 M-126.4 -35.25 L-128.45 -35.8 Q-131.4 -36.75 -134.8 -36.65 L-143.2 -35.65 Q-145.15 -35.45 -146.8 -33.9 -149.75 -31.05 -150.25 -26.7 -150.85 -32.95 -145.8 -38.4 L-143.4 -40.65 Q-127.6 -42.35 -126.4 -35.25 M-151.75 -20.2 Q-151.45 -18.9 -149.9 -17.65 -148.45 -16.55 -148.7 -14.3 -148.8 -13.4 -149.4 -12.05 L-150.45 -9.5 Q-151.45 -5.75 -153.45 -1.75 -152.6 -1.5 -153.3 -0.9 L-153.25 -0.25 Q-154.9 -10.65 -151.75 -20.2 M-143.95 13.35 L-143.85 7.85 Q-143.0 8.1 -142.45 8.95 L-140.85 11.35 Q-140.1 12.3 -139.8 13.85 -139.35 14.25 -139.5 15.3 L-139.4 17.3 -139.2 23.7 Q-139.2 27.7 -139.35 31.7 L-139.45 33.7 Q-139.55 36.15 -141.7 38.35 -143.95 26.25 -143.95 13.35 M-72.35 -27.05 L-65.65 -26.95 -72.35 -27.05" fill="#8c8c8c" fill-rule="evenodd" stroke="none"/>
      <path d="M13.7 -23.05 Q14.75 -25.2 17.65 -27.0 L19.25 -27.75 20.4 -28.0 24.05 -28.9 28.4 -29.6 40.0 -29.05 Q43.45 -28.65 46.15 -26.45 L47.1 -25.75 Q48.45 -24.9 49.35 -23.3 L46.25 -22.9 44.2 -25.0 Q33.5 -27.15 21.0 -24.5 L19.35 -22.6 13.7 -23.05 M-21.1 -17.9 L-10.8 -17.9 4.8 -17.9 18.8 -18.1 21.2 -18.25 24.15 -18.7 Q25.25 -15.3 21.6 -12.3 L19.2 -11.95 21.4 -10.5 Q33.95 -9.5 45.1 -11.35 L45.55 -11.7 Q50.7 -11.45 55.75 -11.6 50.7 -11.45 45.55 -11.7 L41.15 -11.95 Q38.6 -14.2 38.55 -16.9 L38.6 -16.9 41.2 -16.85 Q44.85 -16.75 48.4 -16.95 L55.2 -17.25 56.4 -17.35 64.4 -17.55 71.65 -18.15 73.6 -18.25 80.8 -18.75 84.0 -19.4 84.05 -19.4 Q84.1 -17.0 81.55 -14.6 L79.55 -14.15 Q80.65 -13.1 82.45 -12.2 95.0 -11.65 106.15 -13.85 L108.0 -15.7 100.8 -15.8 Q98.75 -17.55 98.25 -19.65 L103.2 -19.9 111.2 -20.4 115.2 -20.95 123.2 -21.65 124.8 -21.85 132.8 -23.6 136.4 -24.35 141.15 -24.75 Q141.2 -22.45 139.0 -20.05 L136.05 -19.25 Q139.3 -19.4 142.45 -20.3 145.25 -21.35 145.85 -23.8 147.2 -32.1 136.05 -30.05 L133.6 -30.0 Q133.8 -31.1 134.1 -31.4 135.4 -32.6 137.6 -33.15 L138.8 -33.45 140.4 -33.75 144.4 -33.8 Q146.65 -33.75 147.95 -32.25 L150.2 -29.35 150.7 -28.25 Q151.3 -26.95 151.85 -26.2 L153.75 -26.1 153.8 -26.1 Q154.3 -20.45 149.9 -14.1 134.95 -9.65 131.05 -18.15 124.2 -16.8 117.05 -16.15 115.75 -12.6 112.15 -9.1 97.0 -1.4 76.7 -6.15 71.1 -9.0 68.7 -12.45 L55.75 -11.6 Q54.25 -8.95 51.4 -6.35 36.1 0.85 15.95 -4.55 10.55 -7.55 8.2 -11.0 L19.2 -11.95 8.2 -11.0 Q0.95 -10.65 -6.5 -11.05 -8.15 -8.05 -11.65 -5.25 -27.45 1.0 -47.2 -5.6 -53.35 -9.5 -55.2 -13.75 -50.0 -13.5 -44.8 -13.65 -50.0 -13.5 -55.2 -13.75 L-65.95 -14.7 Q-67.7 -11.95 -71.1 -9.4 -87.1 -3.6 -106.65 -10.8 -112.3 -14.65 -114.15 -18.7 L-123.1 -19.95 Q-123.65 -23.3 -124.8 -26.45 L-126.55 -28.5 -124.8 -26.45 Q-123.65 -23.3 -123.1 -19.95 -120.95 -7.55 -127.0 6.85 -129.3 9.85 -131.6 11.7 -130.75 24.65 -131.6 38.0 -137.0 43.8 -141.7 38.35 -139.55 36.15 -139.45 33.7 L-139.35 31.7 Q-139.2 27.7 -139.2 23.7 L-139.4 17.3 -139.5 15.3 Q-139.35 14.25 -139.8 13.85 -140.1 12.3 -140.85 11.35 L-142.45 8.95 Q-143.0 8.1 -143.85 7.85 L-143.95 13.35 Q-147.65 11.55 -151.5 7.1 -152.65 3.4 -153.25 -0.25 L-153.3 -0.9 Q-152.6 -1.5 -153.45 -1.75 -151.45 -5.75 -150.45 -9.5 L-149.4 -12.05 Q-148.8 -13.4 -148.7 -14.3 -148.45 -16.55 -149.9 -17.65 -151.45 -18.9 -151.75 -20.2 L-150.35 -23.85 -149.95 -24.75 -150.25 -26.7 Q-149.75 -31.05 -146.8 -33.9 -145.15 -35.45 -143.2 -35.65 L-134.8 -36.65 Q-131.4 -36.75 -128.45 -35.8 L-126.4 -35.25 Q-126.2 -34.0 -126.4 -32.45 L-129.4 -32.55 Q-138.0 -34.85 -140.95 -32.4 -136.95 -33.8 -133.35 -32.85 L-132.7 -32.65 Q-129.45 -31.55 -126.55 -28.5 L-119.95 -26.85 -104.4 -23.0 Q-99.85 -20.95 -95.75 -20.45 -96.55 -19.3 -98.0 -18.25 L-103.55 -18.15 -114.15 -18.7 -103.55 -18.15 -101.2 -16.2 Q-88.8 -14.05 -77.5 -14.9 L-75.75 -16.25 -65.95 -14.7 -75.75 -16.25 -78.7 -16.85 Q-81.25 -19.85 -80.45 -22.9 -75.55 -21.85 -70.4 -21.7 L-68.8 -21.65 -64.8 -21.35 -63.6 -21.25 -55.25 -20.1 -50.8 -19.55 -35.25 -18.35 -35.2 -18.35 Q-35.55 -16.0 -38.35 -14.0 L-44.8 -13.65 Q-43.75 -12.35 -41.9 -11.2 -29.45 -9.4 -18.15 -10.6 L-16.45 -11.95 -18.9 -12.3 Q-21.5 -14.95 -21.1 -17.9 M80.3 -24.65 L72.85 -24.75 Q75.05 -27.75 78.8 -29.15 82.85 -31.4 86.8 -31.3 87.6 -31.3 88.15 -31.65 L93.6 -32.15 96.85 -32.05 Q102.0 -30.9 106.85 -28.85 L109.2 -27.65 105.35 -27.0 104.8 -27.45 Q94.05 -29.25 81.6 -26.2 L80.3 -24.65 M68.7 -12.45 L79.55 -14.15 68.7 -12.45 M131.05 -18.15 L136.05 -19.25 131.05 -18.15 M117.05 -16.15 L108.0 -15.7 117.05 -16.15 M-145.3 -17.0 L-146.4 -17.3 Q-149.1 -21.15 -149.95 -24.75 -149.1 -21.15 -146.4 -17.3 L-145.3 -17.0 Q-147.2 -8.95 -146.25 0.5 L-143.6 3.15 -143.85 7.85 -143.6 3.15 -143.15 -2.1 Q-138.75 -6.8 -133.05 -2.45 L-132.5 1.9 -132.3 1.65 Q-130.2 -8.4 -130.4 -17.7 -135.2 -14.25 -145.3 -17.0 M-131.35 -21.75 L-130.5 -20.6 -130.4 -17.7 -130.5 -20.6 -131.35 -21.75 -132.0 -22.45 Q-133.65 -24.15 -135.65 -24.45 -137.6 -24.85 -139.85 -23.9 L-138.95 -23.5 -134.6 -22.6 -131.35 -21.75 M-140.95 -32.4 Q-142.95 -30.8 -142.35 -27.0 -141.85 -24.95 -139.85 -23.9 -141.85 -24.95 -142.35 -27.0 -142.95 -30.8 -140.95 -32.4 M-75.85 -27.0 L-77.15 -28.55 Q-87.6 -31.65 -100.3 -30.15 L-101.25 -29.25 -106.1 -30.15 Q-105.85 -32.65 -103.6 -32.85 -102.8 -32.9 -102.05 -33.25 L-100.0 -33.85 -96.0 -34.45 -88.0 -34.8 -84.8 -34.55 Q-80.15 -33.5 -77.95 -32.0 L-75.1 -29.6 Q-74.2 -28.55 -73.65 -27.1 L-73.3 -27.05 -75.85 -27.0 M-41.9 -24.8 L-46.45 -25.4 Q-46.35 -27.4 -44.8 -27.95 L-43.25 -28.85 -41.95 -29.35 -40.0 -29.9 -36.4 -30.15 -32.35 -30.55 -23.15 -30.05 Q-18.45 -28.9 -15.7 -27.0 L-12.9 -24.6 -11.1 -23.1 -11.05 -23.05 -16.75 -22.6 -18.25 -24.3 Q-28.75 -27.05 -41.45 -25.2 L-41.9 -24.8 M-16.45 -11.95 L-6.5 -11.05 -16.45 -11.95 M-132.5 1.9 L-131.6 11.7 -132.5 1.9" fill="#333333" fill-rule="evenodd" stroke="none"/>
      <path d="M49.35 -23.3 L55.55 -23.95 Q53.95 -26.8 51.0 -29.75 32.5 -37.15 12.9 -28.9 10.05 -26.0 8.5 -23.3 L13.7 -23.05 19.35 -22.6 21.0 -24.5 Q33.5 -27.15 44.2 -25.0 L46.25 -22.9 49.35 -23.3 M24.15 -18.7 Q23.55 -20.5 21.6 -22.4 L19.35 -22.6 M19.2 -11.95 L8.2 -11.0 Q10.55 -7.55 15.95 -4.55 36.1 0.85 51.4 -6.35 54.25 -8.95 55.75 -11.6 50.7 -11.45 45.55 -11.7 L45.1 -11.35 Q33.95 -9.5 21.4 -10.5 L19.2 -11.95 21.6 -12.3 Q25.25 -15.3 24.15 -18.7 M84.05 -19.4 Q83.95 -22.0 80.85 -24.65 L80.3 -24.65 72.85 -24.75 68.7 -24.7 55.55 -23.95 M38.55 -16.9 Q38.55 -19.3 40.45 -22.0 L46.25 -22.9 M45.55 -11.7 L41.15 -11.95 Q38.6 -14.2 38.55 -16.9 M153.8 -26.1 Q154.3 -20.45 149.9 -14.1 134.95 -9.65 131.05 -18.15 124.2 -16.8 117.05 -16.15 115.75 -12.6 112.15 -9.1 97.0 -1.4 76.7 -6.15 71.1 -9.0 68.7 -12.45 L55.75 -11.6 M79.55 -14.15 L68.7 -12.45 M114.55 -28.45 Q113.1 -30.45 110.95 -32.45 92.25 -39.25 72.9 -30.4 70.2 -27.45 68.7 -24.7 M105.35 -27.0 L109.2 -27.65 114.55 -28.45 129.85 -29.85 Q128.85 -39.35 146.9 -37.45 L149.3 -35.2 Q153.3 -30.9 153.8 -26.1 M133.6 -30.0 L136.05 -30.05 Q147.2 -32.1 145.85 -23.8 145.25 -21.35 142.45 -20.3 139.3 -19.4 136.05 -19.25 L131.05 -18.15 M80.3 -24.65 L81.6 -26.2 Q94.05 -29.25 104.8 -27.45 L105.35 -27.0 99.7 -25.85 Q97.6 -22.45 98.25 -19.65 98.75 -17.55 100.8 -15.8 L108.0 -15.7 117.05 -16.15 M141.15 -24.75 Q141.1 -27.45 137.9 -30.1 L136.05 -30.05 M84.05 -19.4 Q84.1 -17.0 81.55 -14.6 L79.55 -14.15 Q80.65 -13.1 82.45 -12.2 95.0 -11.65 106.15 -13.85 L108.0 -15.7 M133.6 -30.0 L129.85 -29.85 M141.15 -24.75 Q141.2 -22.45 139.0 -20.05 L136.05 -19.25 M-129.4 -32.55 Q-138.0 -34.85 -140.95 -32.4 -136.95 -33.8 -133.35 -32.85 L-132.7 -32.65 -129.4 -32.55 -126.4 -32.45 Q-126.2 -34.0 -126.4 -35.25 -127.6 -42.35 -143.4 -40.65 L-145.8 -38.4 Q-150.85 -32.95 -150.25 -26.7 L-149.95 -24.75 Q-149.1 -21.15 -146.4 -17.3 L-145.3 -17.0 Q-135.2 -14.25 -130.4 -17.7 L-130.5 -20.6 -131.35 -21.75 -134.6 -22.6 -138.95 -23.5 -139.85 -23.9 Q-141.85 -24.95 -142.35 -27.0 -142.95 -30.8 -140.95 -32.4 M-126.55 -28.5 L-124.8 -26.45 Q-123.65 -23.3 -123.1 -19.95 L-114.15 -18.7 -103.55 -18.15 -98.0 -18.25 Q-96.55 -19.3 -95.75 -20.45 -93.55 -23.8 -96.8 -28.3 L-101.25 -29.25 -106.1 -30.15 -111.65 -31.05 -126.4 -32.45 M-126.55 -28.5 Q-129.45 -31.55 -132.7 -32.65 M-151.75 -20.2 L-150.35 -23.85 -149.95 -24.75 M-153.25 -0.25 Q-152.65 3.4 -151.5 7.1 -147.65 11.55 -143.95 13.35 L-143.85 7.85 -143.6 3.15 -146.25 0.5 Q-147.2 -8.95 -145.3 -17.0 M-153.25 -0.25 Q-154.9 -10.65 -151.75 -20.2 M-135.65 -24.45 L-134.6 -22.6 -132.0 -22.45 Q-133.65 -24.15 -135.65 -24.45 -137.6 -24.85 -139.85 -23.9 M-132.0 -22.45 L-131.35 -21.75 M-143.6 3.15 L-143.15 -2.1 Q-138.75 -6.8 -133.05 -2.45 L-132.5 1.9 -132.3 1.65 Q-130.2 -8.4 -130.4 -17.7 M-75.85 -27.0 L-77.15 -28.55 Q-87.6 -31.65 -100.3 -30.15 L-101.25 -29.25 M-73.3 -27.05 L-75.85 -27.0 -78.0 -26.95 Q-79.9 -24.9 -80.45 -22.9 -81.25 -19.85 -78.7 -16.85 L-75.75 -16.25 -77.5 -14.9 Q-88.8 -14.05 -101.2 -16.2 L-103.55 -18.15 M-35.2 -18.35 Q-34.9 -21.0 -37.65 -24.1 L-41.9 -24.8 -46.45 -25.4 -52.5 -26.1 -65.65 -26.95 -72.35 -27.05 M-65.65 -26.95 Q-66.95 -29.7 -69.4 -32.65 -87.15 -41.75 -107.45 -35.3 -110.0 -33.15 -111.65 -31.05 M-114.15 -18.7 Q-112.3 -14.65 -106.65 -10.8 -87.1 -3.6 -71.1 -9.4 -67.7 -11.95 -65.95 -14.7 L-75.75 -16.25 M-16.75 -22.6 L-18.25 -24.3 Q-28.75 -27.05 -41.45 -25.2 L-41.9 -24.8 M-6.85 -23.25 Q-8.25 -25.9 -10.7 -28.6 -28.65 -37.1 -48.75 -30.05 L-52.5 -26.1 M-11.05 -23.05 L-6.85 -23.25 Q0.75 -23.6 8.5 -23.3 M-55.2 -13.75 Q-53.35 -9.5 -47.2 -5.6 -27.45 1.0 -11.65 -5.25 -8.15 -8.05 -6.5 -11.05 L-16.45 -11.95 -18.15 -10.6 Q-29.45 -9.4 -41.9 -11.2 -43.75 -12.35 -44.8 -13.65 -50.0 -13.5 -55.2 -13.75 L-65.95 -14.7 M-35.2 -18.35 Q-35.55 -16.0 -38.35 -14.0 L-44.8 -13.65 M-16.75 -22.6 L-18.9 -22.4 Q-20.85 -20.05 -21.1 -17.9 -21.5 -14.95 -18.9 -12.3 L-16.45 -11.95 M-11.05 -23.05 L-16.75 -22.6 M-123.1 -19.95 Q-120.95 -7.55 -127.0 6.85 -129.3 9.85 -131.6 11.7 -130.75 24.65 -131.6 38.0 -137.0 43.8 -141.7 38.35 -143.95 26.25 -143.95 13.35 M-131.6 11.7 L-132.5 1.9 M8.2 -11.0 Q0.95 -10.65 -6.5 -11.05" fill="none" stroke="#000000" stroke-linecap="round" stroke-linejoin="round" stroke-opacity="0.6627451" stroke-width="3.5"/>
    </g>
    <g id="sprite1" transform="matrix(1.0, 0.0, 0.0, 1.0, 0.0, 0.0)">
      <use height="82.0" transform="matrix(1.0, 0.0, 0.0, 1.0, 0.0, 0.0)" width="307.65" xlink:href="#shape1"/>
    </g>
    <g id="shape1" transform="matrix(1.0, 0.0, 0.0, 1.0, 0.0, 0.0)">
      <path d="M270.85 24.85 Q269.55 28.4 265.95 31.9 250.8 39.6 230.5 34.85 224.9 32.0 222.5 28.55 L233.35 26.85 236.25 28.8 Q248.8 29.35 259.95 27.15 L261.8 25.3 270.85 24.85" fill="url(#gradient0)" fill-rule="evenodd" stroke="none"/>
      <path d="M209.55 29.4 Q208.05 32.05 205.2 34.65 189.9 41.85 169.75 36.45 164.35 33.45 162.0 30.0 L173.0 29.05 175.2 30.5 198.9 29.65 199.35 29.3 Q204.5 29.55 209.55 29.4" fill="url(#gradient1)" fill-rule="evenodd" stroke="none"/>
      <path d="M147.3 29.95 Q145.65 32.95 142.15 35.75 126.35 42.0 106.6 35.4 100.45 31.5 98.6 27.25 103.8 27.5 109.0 27.35 110.05 28.65 111.9 29.8 124.35 31.6 135.65 30.4 L137.35 29.05 147.3 29.95" fill="url(#gradient2)" fill-rule="evenodd" stroke="none"/>
      <path d="M87.85 26.3 Q86.1 29.05 82.7 31.6 66.7 37.4 47.15 30.2 41.5 26.35 39.65 22.3 L50.25 22.85 Q51.2 23.85 52.6 24.8 65.0 26.95 76.3 26.1 L78.05 24.75 87.85 26.3" fill="url(#gradient3)" fill-rule="evenodd" stroke="none"/>
      <path d="M42.15 9.95 Q43.8 7.85 46.35 5.7 66.65 -0.75 84.4 8.35 86.85 11.3 88.15 14.05 L80.5 13.95 78.75 14.0 77.95 14.0 76.65 12.45 Q66.2 9.35 53.5 10.85 L52.55 11.75 47.7 10.85 42.15 9.95" fill="url(#gradient4)" fill-rule="evenodd" stroke="none"/>
      <path d="M98.6 27.25 L87.85 26.3 78.05 24.75 75.1 24.15 Q72.55 21.15 73.35 18.1 73.9 16.1 75.8 14.05 L77.95 14.0 78.75 14.0 80.5 13.95 88.15 14.05 101.3 14.9 107.35 15.6 111.9 16.2 116.15 16.9 Q118.9 20.0 118.6 22.65 118.25 25.0 115.45 27.0 L109.0 27.35 Q103.8 27.5 98.6 27.25" fill="url(#gradient5)" fill-rule="evenodd" stroke="none"/>
      <path d="M101.3 14.9 Q102.85 12.95 105.05 10.95 125.15 3.9 143.1 12.4 145.55 15.1 146.95 17.75 L142.75 17.95 137.05 18.4 135.55 16.7 Q125.05 13.95 112.35 15.8 L111.9 16.2 107.35 15.6 101.3 14.9" fill="url(#gradient6)" fill-rule="evenodd" stroke="none"/>
      <path d="M162.0 30.0 Q154.75 30.35 147.3 29.95 L137.35 29.05 134.9 28.7 Q132.3 26.05 132.7 23.1 132.95 20.95 134.9 18.6 L137.05 18.4 142.75 17.95 146.95 17.75 Q154.55 17.4 162.3 17.7 L167.5 17.95 173.15 18.4 175.4 18.6 Q177.35 20.5 177.95 22.3 179.05 25.7 175.4 28.7 L173.0 29.05 162.0 30.0" fill="url(#gradient7)" fill-rule="evenodd" stroke="none"/>
      <path d="M162.3 17.7 Q163.85 15.0 166.7 12.1 186.3 3.85 204.8 11.25 207.75 14.2 209.35 17.05 L203.15 17.7 200.05 18.1 198.0 16.0 Q187.3 13.85 174.8 16.5 L173.15 18.4 167.5 17.95 162.3 17.7" fill="url(#gradient8)" fill-rule="evenodd" stroke="none"/>
      <path d="M222.5 28.55 L209.55 29.4 Q204.5 29.55 199.35 29.3 L194.95 29.05 Q192.4 26.8 192.35 24.1 192.35 21.7 194.25 19.0 L200.05 18.1 203.15 17.7 209.35 17.05 222.5 16.3 Q224.55 16.2 226.65 16.25 L234.1 16.35 234.65 16.35 Q237.75 19.0 237.85 21.6 237.9 24.0 235.35 26.4 L233.35 26.85 222.5 28.55" fill="url(#gradient9)" fill-rule="evenodd" stroke="none"/>
      <path d="M222.5 16.3 Q224.0 13.55 226.7 10.6 246.05 1.75 264.75 8.55 266.9 10.55 268.35 12.55 L263.0 13.35 259.15 14.0 258.6 13.55 Q247.85 11.75 235.4 14.8 L234.1 16.35 226.65 16.25 Q224.55 16.2 222.5 16.3" fill="url(#gradient10)" fill-rule="evenodd" stroke="none"/>
      <path d="M283.65 11.15 Q282.65 1.65 300.7 3.55 L303.1 5.8 Q307.1 10.1 307.6 14.9 308.1 20.55 303.7 26.9 288.75 31.35 284.85 22.85 L289.85 21.75 Q293.1 21.6 296.25 20.7 299.05 19.65 299.65 17.2 301.0 8.9 289.85 10.95 L287.4 11.0 283.65 11.15" fill="url(#gradient11)" fill-rule="evenodd" stroke="none"/>
      <path d="M284.85 22.85 L270.85 24.85 261.8 25.3 254.6 25.2 Q252.55 23.45 252.05 21.35 251.4 18.55 253.5 15.15 L259.15 14.0 263.0 13.35 268.35 12.55 283.65 11.15 287.4 11.0 289.85 10.95 291.7 10.9 Q294.9 13.55 294.95 16.25 295.0 18.55 292.8 20.95 L289.85 21.75 284.85 22.85" fill="url(#gradient12)" fill-rule="evenodd" stroke="none"/>
      <path d="M39.65 22.3 L30.7 21.05 Q30.15 17.7 29.0 14.55 L27.25 12.5 Q24.35 9.45 21.1 8.35 L24.4 8.45 27.4 8.55 42.15 9.95 47.7 10.85 52.55 11.75 57.0 12.7 Q60.25 17.2 58.05 20.55 L55.8 22.75 50.25 22.85 39.65 22.3" fill="url(#gradient13)" fill-rule="evenodd" stroke="none"/>
      <path d="M30.7 21.05 Q32.85 33.45 26.8 47.85 24.5 50.85 22.2 52.7 L21.3 42.9 21.5 42.65 Q23.6 32.6 23.4 23.3 18.6 26.75 8.5 24.0 6.6 32.05 7.55 41.5 L10.2 44.15 9.95 48.85 9.85 54.35 Q6.15 52.55 2.3 48.1 1.15 44.4 0.55 40.75 -1.1 30.35 2.05 20.8 L3.45 17.15 3.85 16.25 3.55 14.3 Q2.95 8.05 8.0 2.6 L10.4 0.35 Q26.2 -1.35 27.4 5.75 27.6 7.0 27.4 8.55 L24.4 8.45 Q15.8 6.15 12.85 8.6 16.85 7.2 20.45 8.15 L21.1 8.35 Q24.35 9.45 27.25 12.5 L29.0 14.55 Q30.15 17.7 30.7 21.05 M21.8 18.55 Q20.15 16.85 18.15 16.55 16.2 16.15 13.95 17.1 L14.85 17.5 19.2 18.4 22.45 19.25 21.8 18.55" fill="url(#gradient14)" fill-rule="evenodd" stroke="none"/>
      <path d="M22.2 52.7 Q23.05 65.65 22.2 79.0 16.8 84.8 12.1 79.35 9.85 67.25 9.85 54.35 L9.95 48.85 10.2 44.15 10.65 38.9 Q15.05 34.2 20.75 38.55 L21.3 42.9 22.2 52.7" fill="url(#gradient15)" fill-rule="evenodd" stroke="none"/>
    </g>
    <linearGradient gradientTransform="matrix(0.0295, 0.0, 0.0, 0.0072, 246.65, 30.75)" gradientUnits="userSpaceOnUse" id="gradient0" spreadMethod="pad" x1="-819.2" x2="819.2">
      <stop offset="0.0" stop-color="#000000"/>
      <stop offset="1.0" stop-color="#ffffff"/>
    </linearGradient>
    <linearGradient gradientTransform="matrix(0.029, 0.0, 0.0, 0.0059, 185.75, 33.9)" gradientUnits="userSpaceOnUse" id="gradient1" spreadMethod="pad" x1="-819.2" x2="819.2">
      <stop offset="0.0" stop-color="#000000"/>
      <stop offset="1.0" stop-color="#ffffff"/>
    </linearGradient>
    <linearGradient gradientTransform="matrix(0.0297, 0.0, 0.0, 0.007, 122.95, 33.0)" gradientUnits="userSpaceOnUse" id="gradient2" spreadMethod="pad" x1="-819.2" x2="819.2">
      <stop offset="0.0" stop-color="#000000"/>
      <stop offset="1.0" stop-color="#ffffff"/>
    </linearGradient>
    <linearGradient gradientTransform="matrix(0.0294, 0.0, 0.0, 0.0073, 63.75, 28.25)" gradientUnits="userSpaceOnUse" id="gradient3" spreadMethod="pad" x1="-819.2" x2="819.2">
      <stop offset="0.0" stop-color="#000000"/>
      <stop offset="1.0" stop-color="#ffffff"/>
    </linearGradient>
    <linearGradient gradientTransform="matrix(-0.0253, -0.0121, 0.0029, -0.0061, 65.1, 8.6)" gradientUnits="userSpaceOnUse" id="gradient4" spreadMethod="pad" x1="-819.2" x2="819.2">
      <stop offset="0.0" stop-color="#000000"/>
      <stop offset="1.0" stop-color="#ffffff"/>
    </linearGradient>
    <linearGradient gradientTransform="matrix(-0.021, -0.0181, 0.0053, -0.0062, 95.9, 20.65)" gradientUnits="userSpaceOnUse" id="gradient5" spreadMethod="pad" x1="-819.2" x2="819.2">
      <stop offset="0.0" stop-color="#000000"/>
      <stop offset="1.0" stop-color="#ffffff"/>
    </linearGradient>
    <linearGradient gradientTransform="matrix(-0.0257, -0.0107, 0.0025, -0.006, 124.1, 13.15)" gradientUnits="userSpaceOnUse" id="gradient6" spreadMethod="pad" x1="-819.2" x2="819.2">
      <stop offset="0.0" stop-color="#000000"/>
      <stop offset="1.0" stop-color="#ffffff"/>
    </linearGradient>
    <linearGradient gradientTransform="matrix(-0.0236, -0.0146, 0.004, -0.0065, 155.4, 23.85)" gradientUnits="userSpaceOnUse" id="gradient7" spreadMethod="pad" x1="-819.2" x2="819.2">
      <stop offset="0.0" stop-color="#000000"/>
      <stop offset="1.0" stop-color="#ffffff"/>
    </linearGradient>
    <linearGradient gradientTransform="matrix(-0.0257, -0.0127, 0.0029, -0.0058, 185.8, 13.15)" gradientUnits="userSpaceOnUse" id="gradient8" spreadMethod="pad" x1="-819.2" x2="819.2">
      <stop offset="0.0" stop-color="#000000"/>
      <stop offset="1.0" stop-color="#ffffff"/>
    </linearGradient>
    <linearGradient gradientTransform="matrix(-0.0229, -0.0156, 0.0045, -0.0066, 215.1, 22.85)" gradientUnits="userSpaceOnUse" id="gradient9" spreadMethod="pad" x1="-819.2" x2="819.2">
      <stop offset="0.0" stop-color="#000000"/>
      <stop offset="1.0" stop-color="#ffffff"/>
    </linearGradient>
    <linearGradient gradientTransform="matrix(-0.0244, -0.0137, 0.0032, -0.0057, 245.4, 10.95)" gradientUnits="userSpaceOnUse" id="gradient10" spreadMethod="pad" x1="-819.2" x2="819.2">
      <stop offset="0.0" stop-color="#000000"/>
      <stop offset="1.0" stop-color="#ffffff"/>
    </linearGradient>
    <linearGradient gradientTransform="matrix(0.0025, -0.0145, 0.0152, 0.0026, 295.6, 15.85)" gradientUnits="userSpaceOnUse" id="gradient11" spreadMethod="pad" x1="-819.2" x2="819.2">
      <stop offset="0.0" stop-color="#000000"/>
      <stop offset="1.0" stop-color="#ffffff"/>
    </linearGradient>
    <linearGradient gradientTransform="matrix(-0.0213, -0.0153, 0.0051, -0.0071, 273.4, 18.1)" gradientUnits="userSpaceOnUse" id="gradient12" spreadMethod="pad" x1="-819.2" x2="819.2">
      <stop offset="0.0" stop-color="#000000"/>
      <stop offset="1.0" stop-color="#ffffff"/>
    </linearGradient>
    <linearGradient gradientTransform="matrix(-0.0103, -0.0206, 0.0079, -0.004, 40.0, 15.6)" gradientUnits="userSpaceOnUse" id="gradient13" spreadMethod="pad" x1="-819.2" x2="819.2">
      <stop offset="0.0" stop-color="#000000"/>
      <stop offset="1.0" stop-color="#ffffff"/>
    </linearGradient>
    <linearGradient gradientTransform="matrix(-0.0151, -0.0116, 0.0201, -0.0263, 15.6, 27.25)" gradientUnits="userSpaceOnUse" id="gradient14" spreadMethod="pad" x1="-819.2" x2="819.2">
      <stop offset="0.0" stop-color="#000000"/>
      <stop offset="1.0" stop-color="#ffffff"/>
    </linearGradient>
    <linearGradient gradientTransform="matrix(-0.0076, -0.0018, 0.0064, -0.027, 16.2, 59.2)" gradientUnits="userSpaceOnUse" id="gradient15" spreadMethod="pad" x1="-819.2" x2="819.2">
      <stop offset="0.0" stop-color="#000000"/>
      <stop offset="1.0" stop-color="#ffffff"/>
    </linearGradient>
  </defs>
</svg>
