<?xml version="1.0" encoding="UTF-8" standalone="no"?>
<svg xmlns:xlink="http://www.w3.org/1999/xlink" height="531.5px" width="460.6px" xmlns="http://www.w3.org/2000/svg">
  <g transform="matrix(1.0, 0.0, 0.0, 1.0, 193.65, 334.05)">
    <use height="29.15" transform="matrix(2.0067, 0.0, 0.0, 2.0067, -86.7034, -169.7034)" width="98.75" xlink:href="#sprite0"/>
  </g>
  <defs>
    <g id="sprite0" transform="matrix(1.0, 0.0, 0.0, 1.0, 0.5, 0.5)">
      <use height="29.15" transform="matrix(1.0, 0.0, 0.0, 1.0, -0.5, -0.5)" width="98.75" xlink:href="#shape0"/>
      <use height="28.15" transform="matrix(1.0, 0.0, 0.0, 1.0, 0.0, 0.0)" width="97.75" xlink:href="#sprite1"/>
    </g>
    <g id="shape0" transform="matrix(1.0, 0.0, 0.0, 1.0, 0.5, 0.5)">
      <path d="M97.7 4.1 Q97.85 5.2 97.4 6.9 96.85 8.65 93.75 9.75 L92.0 10.35 87.8 11.75 84.15 12.6 82.75 12.75 79.1 12.9 79.0 11.5 79.05 11.45 79.0 11.45 78.9 9.9 79.4 9.9 79.25 9.65 85.15 8.75 89.25 8.05 Q90.75 7.8 92.35 7.2 L94.9 6.05 Q96.65 5.1 97.7 4.1 M92.35 7.2 Q92.65 8.9 92.0 10.35 92.65 8.9 92.35 7.2 M84.15 12.6 Q85.1 10.7 85.15 8.75 85.1 10.7 84.15 12.6" fill="#291d1b" fill-rule="evenodd" stroke="none"/>
      <path d="M78.2 4.8 L79.05 4.75 82.55 4.45 88.2 3.4 95.4 1.75 Q97.45 2.15 97.7 4.1 96.65 5.1 94.9 6.05 L92.35 7.2 Q90.75 7.8 89.25 8.05 L85.15 8.75 79.25 9.65 79.4 9.9 78.9 9.9 78.2 4.8 M84.4 4.9 Q85.15 6.85 85.15 8.75 85.15 6.85 84.4 4.9 M90.8 3.55 Q92.05 5.5 92.35 7.2 92.05 5.5 90.8 3.55 M79.0 11.5 L79.0 11.45 79.05 11.45 79.0 11.5" fill="#3f2e27" fill-rule="evenodd" stroke="none"/>
      <path d="M75.5 4.25 L74.95 1.1 Q75.6 -1.2 77.5 1.25 L78.2 4.8 78.9 9.9 79.0 11.45 79.0 11.5 78.05 11.65 77.65 11.65 77.5 9.9 Q77.15 7.0 76.3 4.2 L75.5 4.25" fill="#201613" fill-rule="evenodd" stroke="none"/>
      <path d="M76.6 15.9 L71.6 16.35 72.4 14.65 72.5 14.45 Q73.2 12.05 73.65 4.3 L75.5 4.25 76.3 4.2 Q77.15 7.0 77.5 9.9 L77.65 11.65 77.6 15.8 76.6 15.9 M76.95 14.0 L72.5 14.45 76.95 14.0" fill="#777777" fill-rule="evenodd" stroke="none"/>
      <path d="M79.1 12.9 Q79.25 16.05 79.05 18.9 76.7 20.9 76.6 15.9 L77.6 15.8 77.65 11.65 78.05 11.65 79.0 11.5 79.1 12.9" fill="#150e0d" fill-rule="evenodd" stroke="none"/>
      <path d="M71.6 16.35 L70.9 16.4 70.85 14.65 Q70.6 10.65 69.4 4.45 L73.65 4.3 Q73.2 12.05 72.5 14.45 L72.4 14.65 71.6 16.35 M70.85 14.65 L72.5 14.45 70.85 14.65 M19.55 3.9 L19.85 3.95 17.5 11.3 16.15 10.45 Q13.8 9.15 11.3 11.0 L10.25 9.8 10.0 9.2 11.55 8.35 19.55 3.9 M3.7 8.8 Q0.7 5.55 0.0 0.95 L14.3 3.1 Q9.35 5.5 8.05 6.25 L3.7 8.8" fill="#9d9d9d" fill-rule="evenodd" stroke="none"/>
      <path d="M22.1 23.55 L22.25 25.7 21.85 27.45 Q21.45 28.25 21.05 28.15 20.55 27.95 20.4 27.0 20.1 26.05 20.2 24.95 20.25 23.75 20.65 23.1 20.85 22.4 21.35 22.6 21.8 22.7 22.1 23.55 M19.85 3.95 Q21.95 -0.6 19.4 9.95 22.45 9.5 19.15 16.85 19.5 27.25 16.95 20.0 15.9 23.6 14.7 23.1 13.85 18.5 14.6 14.8 9.75 13.45 6.5 11.2 L6.45 11.15 Q7.85 4.5 10.0 9.2 L10.25 9.8 11.3 11.0 Q13.8 9.15 16.15 10.45 L17.5 11.3 19.85 3.95 M16.05 15.15 L14.6 14.8 16.05 15.15" fill="#b30000" fill-rule="evenodd" stroke="none"/>
      <path d="M6.45 11.15 L3.7 8.8 8.05 6.25 Q9.35 5.5 14.3 3.1 L19.55 3.9 11.55 8.35 10.0 9.2 Q7.85 4.5 6.45 11.15" fill="#c4c4c4" fill-rule="evenodd" stroke="none"/>
      <path d="M78.2 4.8 L79.05 4.75 82.55 4.45 88.2 3.4 95.4 1.75 Q97.45 2.15 97.7 4.1 97.85 5.2 97.4 6.9 96.85 8.65 93.75 9.75 L92.0 10.35 87.8 11.75 84.15 12.6 82.75 12.75 79.1 12.9 Q79.25 16.05 79.05 18.9 76.7 20.9 76.6 15.9 L71.6 16.35 70.9 16.4 70.85 14.65 Q70.6 10.65 69.4 4.45 L73.65 4.3 75.5 4.25 74.95 1.1 Q75.6 -1.2 77.5 1.25 L78.2 4.8 78.9 9.9 79.0 11.45 79.0 11.5 79.1 12.9 M85.15 8.75 Q85.15 6.85 84.4 4.9 M92.0 10.35 Q92.65 8.9 92.35 7.2 92.05 5.5 90.8 3.55 M85.15 8.75 Q85.1 10.7 84.15 12.6 M75.5 4.25 L76.3 4.2 Q77.15 7.0 77.5 9.9 L77.65 11.65 77.6 15.8 76.6 15.9 M72.5 14.45 L76.95 14.0 M72.5 14.45 L70.85 14.65 M22.1 23.55 L22.25 25.7 21.85 27.45 Q21.45 28.25 21.05 28.15 20.55 27.95 20.4 27.0 20.1 26.05 20.2 24.95 20.25 23.75 20.65 23.1 20.85 22.4 21.35 22.6 21.8 22.7 22.1 23.55 M19.55 3.9 L19.85 3.95 Q21.95 -0.6 19.4 9.95 22.45 9.5 19.15 16.85 19.5 27.25 16.95 20.0 15.9 23.6 14.7 23.1 13.85 18.5 14.6 14.8 9.75 13.45 6.5 11.2 L6.45 11.15 3.7 8.8 Q0.7 5.55 0.0 0.95 L14.3 3.1 19.55 3.9 M10.0 9.2 L10.25 9.8 11.3 11.0 Q13.8 9.15 16.15 10.45 L17.5 11.3 M10.0 9.2 Q7.85 4.5 6.45 11.15 M14.6 14.8 L16.05 15.15" fill="none" stroke="#000000" stroke-linecap="round" stroke-linejoin="round" stroke-opacity="0.6627451" stroke-width="1.0"/>
    </g>
    <g id="sprite1" transform="matrix(1.0, 0.0, 0.0, 1.0, 0.0, 0.0)">
      <use height="28.15" transform="matrix(1.0, 0.0, 0.0, 1.0, 0.0, 0.0)" width="97.75" xlink:href="#shape1"/>
    </g>
    <g id="shape1" transform="matrix(1.0, 0.0, 0.0, 1.0, 0.0, 0.0)">
      <path d="M19.85 3.95 L17.5 11.3 16.15 10.45 Q13.8 9.15 11.3 11.0 L10.25 9.8 10.0 9.2 Q7.85 4.5 6.45 11.15 L3.7 8.8 Q0.7 5.55 0.0 0.95 L19.85 3.95" fill="url(#gradient0)" fill-rule="evenodd" stroke="none"/>
      <path d="M6.45 11.15 Q7.85 4.5 10.0 9.2 L10.25 9.8 11.3 11.0 Q13.8 9.15 16.15 10.45 L17.5 11.3 19.85 3.95 Q21.95 -0.6 19.4 9.95 22.45 9.5 19.15 16.85 19.5 27.25 16.95 20.0 15.9 23.6 14.7 23.1 13.85 18.5 14.6 14.8 9.75 13.45 6.5 11.2 L6.45 11.15" fill="url(#gradient1)" fill-rule="evenodd" stroke="none"/>
      <path d="M22.1 23.55 L22.25 25.7 21.85 27.45 Q21.45 28.25 21.05 28.15 20.55 27.95 20.4 27.0 20.1 26.05 20.2 24.95 20.25 23.75 20.65 23.1 20.85 22.4 21.35 22.6 21.8 22.7 22.1 23.55" fill="url(#gradient2)" fill-rule="evenodd" stroke="none"/>
      <path d="M76.6 15.9 L70.9 16.4 70.85 14.65 Q70.6 10.65 69.4 4.45 L75.5 4.25 76.3 4.2 Q77.15 7.0 77.5 9.9 L77.65 11.65 77.6 15.8 76.6 15.9" fill="url(#gradient3)" fill-rule="evenodd" stroke="none"/>
      <path d="M79.1 12.9 Q79.25 16.05 79.05 18.9 76.7 20.9 76.6 15.9 L77.6 15.8 77.65 11.65 77.5 9.9 Q77.15 7.0 76.3 4.2 L75.5 4.25 74.95 1.1 Q75.6 -1.2 77.5 1.25 L78.2 4.8 78.9 9.9 79.0 11.45 79.0 11.5 79.1 12.9" fill="url(#gradient4)" fill-rule="evenodd" stroke="none"/>
      <path d="M78.2 4.8 L79.05 4.75 82.55 4.45 88.2 3.4 95.4 1.75 Q97.45 2.15 97.7 4.1 97.85 5.2 97.4 6.9 96.85 8.65 93.75 9.75 L92.0 10.35 87.8 11.75 84.15 12.6 82.75 12.75 79.1 12.9 79.0 11.5 79.0 11.45 78.9 9.9 78.2 4.8" fill="url(#gradient5)" fill-rule="evenodd" stroke="none"/>
    </g>
    <linearGradient gradientTransform="matrix(-0.0046, -0.0171, 0.0061, -0.0016, 12.1, 10.65)" gradientUnits="userSpaceOnUse" id="gradient0" spreadMethod="pad" x1="-819.2" x2="819.2">
      <stop offset="0.0" stop-color="#000000"/>
      <stop offset="1.0" stop-color="#ffffff"/>
    </linearGradient>
    <linearGradient gradientTransform="matrix(-0.0162, -0.0063, 0.0045, -0.0117, 19.05, 16.4)" gradientUnits="userSpaceOnUse" id="gradient1" spreadMethod="pad" x1="-819.2" x2="819.2">
      <stop offset="0.0" stop-color="#000000"/>
      <stop offset="1.0" stop-color="#ffffff"/>
    </linearGradient>
    <linearGradient gradientTransform="matrix(-0.0079, -0.0079, 0.0024, -0.0024, 21.2, 25.35)" gradientUnits="userSpaceOnUse" id="gradient2" spreadMethod="pad" x1="-819.2" x2="819.2">
      <stop offset="0.0" stop-color="#000000"/>
      <stop offset="1.0" stop-color="#ffffff"/>
    </linearGradient>
    <linearGradient gradientTransform="matrix(0.015, 0.0, 0.0, 0.0074, 73.55, 10.3)" gradientUnits="userSpaceOnUse" id="gradient3" spreadMethod="pad" x1="-819.2" x2="819.2">
      <stop offset="0.0" stop-color="#000000"/>
      <stop offset="1.0" stop-color="#ffffff"/>
    </linearGradient>
    <linearGradient gradientTransform="matrix(0.012, -0.007, 0.0059, 0.0103, 77.05, 9.75)" gradientUnits="userSpaceOnUse" id="gradient4" spreadMethod="pad" x1="-819.2" x2="819.2">
      <stop offset="0.0" stop-color="#000000"/>
      <stop offset="1.0" stop-color="#ffffff"/>
    </linearGradient>
    <linearGradient gradientTransform="matrix(0.0289, 0.0, 0.0, 0.0068, 87.95, 7.3)" gradientUnits="userSpaceOnUse" id="gradient5" spreadMethod="pad" x1="-819.2" x2="819.2">
      <stop offset="0.0" stop-color="#000000"/>
      <stop offset="1.0" stop-color="#ffffff"/>
    </linearGradient>
  </defs>
</svg>
