<?xml version="1.0" encoding="UTF-8" standalone="no"?>
<svg xmlns:xlink="http://www.w3.org/1999/xlink" height="531.5px" width="460.6px" xmlns="http://www.w3.org/2000/svg">
  <g transform="matrix(1.0, 0.0, 0.0, 1.0, 193.65, 334.05)">
    <use height="286.65" transform="matrix(0.4722, -0.0165, 0.0165, 0.4722, -81.787, -207.5266)" width="319.1" xlink:href="#shape0"/>
    <use height="279.95" transform="matrix(0.4722, -0.0165, 0.0165, 0.4722, -80.15, -206.0)" width="312.4" xlink:href="#sprite0"/>
  </g>
  <defs>
    <g id="shape0" transform="matrix(1.0, 0.0, 0.0, 1.0, 3.35, 3.35)">
      <path d="M174.3 11.05 L175.25 12.0 Q203.25 1.7 224.8 7.95 240.6 15.4 262.4 36.4 L272.95 47.0 Q281.6 55.0 292.05 66.8 L289.6 69.05 282.5 68.7 292.0 87.85 298.75 101.55 Q292.65 103.1 295.75 108.4 L295.95 108.75 Q300.45 122.3 303.9 137.0 309.45 160.45 312.4 186.75 L310.05 187.95 306.0 183.7 304.4 178.1 304.2 176.75 Q301.4 158.05 299.8 149.9 298.3 142.25 296.3 134.65 L292.05 120.3 292.15 120.0 291.85 119.7 Q288.85 110.55 285.1 101.45 L289.1 101.45 Q288.4 95.15 281.6 82.9 L271.95 65.45 274.95 65.95 276.9 66.35 276.95 66.45 277.75 66.45 276.9 66.35 Q259.25 41.65 245.6 30.15 225.55 13.35 203.35 13.35 196.05 13.35 187.0 16.85 L177.35 20.35 Q175.0 20.35 174.25 18.15 L173.35 14.1 174.3 11.05 M7.15 184.35 Q1.6 182.55 1.05 179.9 L7.45 143.6 7.5 143.55 9.9 132.35 10.6 129.65 15.2 111.15 14.9 110.6 Q16.7 109.25 18.6 109.45 L18.6 119.6 Q14.0 136.15 12.0 144.45 8.75 157.7 7.6 167.6 6.95 173.35 7.15 184.35 M6.6 126.2 L0.0 120.4 Q1.2 113.1 3.5 105.85 6.55 96.1 11.6 86.35 L20.3 72.6 Q31.1 56.15 61.15 31.1 L55.65 29.2 Q66.75 16.6 106.8 2.35 111.1 0.2 148.05 0.0 164.9 2.2 173.9 10.65 L172.65 11.95 172.55 11.95 165.35 12.35 147.25 9.85 127.35 7.35 Q116.15 7.35 95.8 15.25 L71.7 25.35 73.25 27.85 74.7 28.35 50.45 55.3 Q34.95 72.35 27.6 83.45 24.3 88.4 14.35 110.3 L13.7 111.65 Q11.15 114.3 8.85 120.05 L6.6 126.2 M247.75 62.3 Q256.75 77.7 267.55 91.85 273.25 99.25 279.45 106.4 285.4 113.2 291.85 119.7 L292.05 120.3 289.7 125.35 285.2 122.5 Q273.1 114.35 262.05 100.6 248.75 84.05 240.95 64.45 L240.95 59.5 241.6 59.5 246.8 61.85 247.75 62.3 M274.65 239.7 Q283.3 253.0 288.25 265.0 L285.05 266.95 Q283.95 268.3 282.0 269.1 L277.2 261.15 266.05 240.5 269.4 241.25 270.85 241.25 272.9 240.85 274.35 239.85 274.65 239.7 M98.15 70.25 L97.5 69.8 98.2 68.9 Q99.0 68.1 100.7 67.45 101.7 69.45 101.7 74.95 101.7 92.55 91.1 110.55 80.35 128.75 63.7 138.7 L60.65 138.9 58.95 134.35 58.95 134.3 Q80.75 112.4 91.55 88.55 95.6 79.55 98.15 70.25 M99.9 276.15 Q96.5 274.75 94.4 271.55 99.05 258.65 108.2 246.9 108.8 247.3 109.6 247.55 L113.4 247.95 113.75 248.1 Q105.45 265.9 99.9 276.15" fill="#f7d38a" fill-rule="evenodd" stroke="none"/>
      <path d="M174.3 11.05 L173.35 14.1 174.25 18.15 Q175.0 20.35 177.35 20.35 L187.0 16.85 Q196.05 13.35 203.35 13.35 225.55 13.35 245.6 30.15 259.25 41.65 276.9 66.35 L277.75 66.45 276.95 66.45 276.9 66.35 274.95 65.95 271.95 65.45 281.6 82.9 Q288.4 95.15 289.1 101.45 L285.1 101.45 Q288.85 110.55 291.85 119.7 L292.15 120.0 292.05 120.3 296.3 134.65 Q298.3 142.25 299.8 149.9 301.4 158.05 304.2 176.75 L304.4 178.1 306.0 183.7 310.05 187.95 308.4 188.8 Q307.85 188.4 307.35 188.35 306.65 188.3 305.95 188.75 302.25 191.1 297.9 207.0 L290.25 206.8 287.25 217.15 277.7 216.65 277.65 216.65 277.65 216.35 277.65 211.8 277.5 202.0 Q276.7 169.05 272.5 144.1 257.6 138.6 244.95 131.5 L239.45 128.25 Q221.35 117.1 208.25 102.35 204.3 97.9 200.85 93.2 194.75 84.85 190.4 77.1 187.75 72.45 185.75 68.05 181.15 79.9 173.15 93.85 168.35 102.2 162.0 109.9 L160.4 111.85 Q134.55 141.9 84.95 161.15 L80.35 158.7 88.55 147.9 74.3 152.65 72.6 150.9 Q70.15 157.2 68.3 164.05 66.2 171.55 64.85 179.7 62.4 194.4 62.15 211.2 L56.75 212.9 53.85 204.7 49.5 216.8 Q41.7 217.85 33.9 215.0 L34.0 207.55 27.4 205.85 22.75 196.45 21.75 202.55 13.75 198.95 14.7 166.8 7.2 184.35 7.15 184.35 Q6.95 173.35 7.6 167.6 8.75 157.7 12.0 144.45 14.0 136.15 18.6 119.6 L18.6 109.45 Q16.7 109.25 14.9 110.6 L15.2 111.15 10.6 129.65 10.5 129.6 6.6 126.2 8.85 120.05 Q11.15 114.3 13.7 111.65 L14.35 110.3 Q24.3 88.4 27.6 83.45 34.95 72.35 50.45 55.3 L74.7 28.35 73.25 27.85 71.7 25.35 95.8 15.25 Q116.15 7.35 127.35 7.35 L147.25 9.85 165.35 12.35 172.55 11.95 172.65 11.95 173.9 10.65 174.3 11.05 M291.85 119.7 Q285.4 113.2 279.45 106.4 273.25 99.25 267.55 91.85 256.75 77.7 247.75 62.3 L246.8 61.85 241.6 59.5 240.95 59.5 240.95 64.45 Q248.75 84.05 262.05 100.6 273.1 114.35 285.2 122.5 L289.7 125.35 292.05 120.3 291.85 119.7 M272.5 144.1 L276.85 145.65 277.55 143.1 274.8 139.5 278.8 139.75 276.05 135.45 283.5 133.2 283.15 129.35 287.6 129.2 288.4 127.75 288.95 126.75 289.7 125.35 288.95 126.75 288.4 127.75 287.6 129.2 283.15 129.35 283.5 133.2 276.05 135.45 278.8 139.75 274.8 139.5 277.55 143.1 276.85 145.65 272.5 144.1 M246.85 149.95 Q244.45 148.85 238.55 147.15 234.25 145.4 234.2 142.5 L230.1 143.25 Q227.25 143.85 226.05 143.2 224.85 142.55 224.15 140.15 216.45 144.35 210.75 143.35 205.05 142.3 203.2 139.7 200.95 136.95 201.25 134.3 201.3 133.3 201.75 132.3 206.4 130.3 211.85 132.6 215.8 134.15 224.05 134.4 226.25 134.65 227.25 135.2 227.5 134.95 227.65 134.95 L229.35 134.4 Q230.45 133.85 231.55 133.85 233.45 133.85 236.95 136.35 L237.0 136.4 237.65 136.0 Q238.3 135.7 238.95 135.7 243.0 135.7 246.4 141.1 L248.3 144.6 Q249.3 144.0 250.6 144.0 254.6 144.0 256.1 147.2 256.65 148.4 257.8 154.55 L257.8 157.55 Q262.5 159.8 262.5 171.7 L262.4 175.0 Q264.4 176.8 265.2 179.35 265.95 181.8 265.95 186.2 265.95 190.15 265.25 193.25 L265.1 193.85 Q267.95 197.75 268.95 201.1 269.75 203.85 269.75 207.3 L269.6 211.8 269.0 213.3 Q272.9 215.85 272.9 224.25 272.9 226.8 272.2 229.2 L272.0 229.8 273.4 230.6 274.35 231.3 274.45 233.3 274.45 233.7 274.9 235.65 275.1 237.45 Q275.1 238.75 274.55 239.65 L274.35 239.85 Q272.8 241.0 270.85 241.25 L269.9 241.25 269.4 241.25 266.05 240.5 277.2 261.15 282.0 269.1 Q277.85 270.75 270.0 270.05 L267.95 267.65 Q262.75 269.6 256.0 268.3 257.9 254.85 264.85 240.05 L264.4 238.95 264.4 236.7 265.3 236.7 Q266.4 238.2 268.95 238.2 271.25 238.2 272.9 236.7 274.3 235.4 274.45 233.7 274.3 235.4 272.9 236.7 271.25 238.2 268.95 238.2 266.4 238.2 265.3 236.7 L264.8 235.55 Q264.4 234.35 264.4 232.55 264.4 231.4 265.05 230.45 265.6 229.7 266.25 229.6 L264.95 227.5 Q263.45 224.65 263.45 220.9 L263.55 217.7 265.0 214.65 260.3 209.55 Q258.75 207.25 258.75 202.05 258.75 199.9 259.0 198.5 259.15 197.75 260.0 195.75 L256.15 191.55 Q253.4 187.8 253.4 182.65 L253.5 179.0 Q253.75 177.05 255.25 175.85 L253.7 173.75 Q251.5 170.2 251.5 165.3 251.5 164.15 252.15 162.05 L253.0 159.65 250.4 157.6 Q246.45 153.95 246.85 150.05 L247.1 150.05 246.85 149.95 M234.2 142.5 L237.6 142.0 Q242.2 141.3 241.3 140.1 240.45 138.85 237.0 136.4 240.45 138.85 241.3 140.1 242.2 141.3 237.6 142.0 L234.2 142.5 M227.25 135.2 Q229.65 136.6 224.35 140.05 L224.15 140.15 224.35 140.05 Q229.65 136.6 227.25 135.2 M248.3 144.6 Q249.45 147.25 249.95 150.05 L247.1 150.05 249.95 150.05 Q249.45 147.25 248.3 144.6 M167.55 135.5 L167.75 135.4 Q168.95 134.8 171.8 134.55 182.3 134.3 187.3 132.65 194.25 130.2 200.2 132.35 200.7 133.3 200.85 134.3 201.25 137.2 198.3 140.2 195.95 142.95 188.7 144.05 181.5 145.1 171.65 140.65 L171.4 140.55 Q164.95 137.05 167.55 135.5 164.95 137.05 171.4 140.55 L171.65 140.7 Q170.75 143.2 169.25 143.9 167.7 144.6 164.05 143.95 L158.9 143.15 154.55 142.6 Q148.7 141.9 149.8 140.6 150.85 139.4 154.85 136.95 150.85 139.4 149.8 140.6 148.7 141.9 154.55 142.6 L158.9 143.15 Q158.85 146.2 153.3 148.1 145.9 149.9 142.75 151.05 L142.8 151.2 Q143.2 155.3 138.25 159.2 L134.95 161.35 Q131.85 162.95 128.8 163.15 L128.8 159.15 128.8 163.15 Q131.85 162.95 134.95 161.35 L136.0 163.9 Q136.8 166.15 136.8 167.35 136.8 172.55 134.05 176.35 L132.15 178.45 Q133.95 179.85 134.3 181.9 L134.4 185.75 Q134.4 191.25 130.9 195.2 L126.1 199.6 122.0 203.55 Q120.45 200.5 119.65 198.05 120.45 200.5 122.0 203.55 L126.1 199.6 127.25 202.6 Q127.6 204.1 127.6 206.35 127.6 211.9 125.6 214.35 L119.7 219.75 121.5 222.95 121.6 226.35 Q121.6 230.35 119.7 233.4 L118.05 235.6 Q116.05 237.75 112.8 239.95 L111.95 238.35 110.75 235.85 111.95 238.35 112.8 239.95 Q116.05 237.75 118.05 235.6 118.9 235.7 119.55 236.5 120.4 237.5 120.4 238.75 120.4 240.7 119.95 241.95 L120.4 241.95 120.4 245.55 Q120.2 246.7 119.1 247.3 126.8 257.3 128.8 267.15 L124.6 269.7 126.35 272.9 Q119.45 276.95 109.4 279.95 L108.85 277.2 Q103.6 277.75 99.9 276.15 105.45 265.9 113.75 248.1 L113.4 247.95 109.6 247.55 Q108.8 247.3 108.2 246.9 106.8 245.85 106.8 243.95 L107.0 242.05 Q107.2 240.6 107.65 239.95 L107.6 239.55 107.6 237.55 Q108.05 237.05 108.95 236.65 L110.75 235.85 110.5 235.2 Q109.6 232.65 109.6 229.95 109.6 221.0 114.55 218.3 L113.8 216.7 Q113.6 216.0 113.6 211.95 113.6 208.25 114.6 205.35 115.85 201.8 119.65 198.05 L119.3 197.0 Q118.4 193.75 118.4 189.55 118.4 184.85 119.4 182.25 120.4 179.6 122.9 177.65 L122.95 177.7 Q123.15 178.65 124.8 182.35 129.3 181.05 132.15 178.45 129.3 181.05 124.8 182.35 123.15 178.65 122.95 177.7 L122.95 177.65 Q122.8 176.9 122.8 174.15 122.8 161.5 128.8 159.15 L128.8 155.95 Q130.25 149.4 130.95 148.15 132.85 144.75 138.0 144.75 L140.4 145.15 140.9 145.45 Q139.4 148.2 138.8 151.15 L142.4 151.15 142.75 151.05 142.4 151.15 138.8 151.15 Q139.4 148.2 140.9 145.45 141.9 143.5 143.35 141.65 147.65 135.95 152.8 135.95 L154.45 136.25 154.85 136.95 154.95 136.85 155.35 136.65 Q159.8 133.95 162.2 133.95 163.6 133.95 165.05 134.55 L167.2 135.15 167.55 135.5 M307.35 188.35 L306.0 183.7 307.35 188.35 M255.25 175.85 Q257.45 178.25 260.95 179.45 L262.4 175.05 262.4 175.0 262.4 175.05 260.95 179.45 Q257.45 178.25 255.25 175.85 M253.0 159.65 Q255.4 161.15 257.8 161.35 L257.8 157.55 257.8 161.35 Q255.4 161.15 253.0 159.65 M63.7 138.7 Q80.35 128.75 91.1 110.55 101.7 92.55 101.7 74.95 101.7 69.45 100.7 67.45 99.0 68.1 98.2 68.9 L97.5 69.8 98.15 70.25 Q95.6 79.55 91.55 88.55 80.75 112.4 58.95 134.3 L58.95 134.35 60.65 138.9 63.7 138.7 70.6 138.25 67.9 142.25 Q69.25 147.05 72.6 150.9 69.25 147.05 67.9 142.25 L70.6 138.25 63.7 138.7 M114.55 218.3 L116.8 222.35 119.7 219.75 116.8 222.35 114.55 218.3 M119.95 241.95 L119.25 243.15 Q117.85 244.75 114.6 244.75 111.7 244.75 109.6 243.15 107.8 241.75 107.65 239.95 107.8 241.75 109.6 243.15 111.7 244.75 114.6 244.75 117.85 244.75 119.25 243.15 L119.95 241.95 M119.1 247.3 Q118.45 247.65 117.5 247.8 L117.25 247.85 113.8 247.95 113.4 247.95 113.8 247.95 117.25 247.85 117.5 247.8 Q118.45 247.65 119.1 247.3 M265.0 214.65 L267.25 217.1 269.0 213.3 267.25 217.1 265.0 214.65 M271.2 231.95 L271.0 232.2 271.05 232.2 271.2 231.95 271.2 231.9 272.0 229.8 271.2 231.9 271.2 231.95 M266.25 229.6 Q267.8 231.65 270.35 233.7 L271.05 232.2 270.35 233.7 Q267.8 231.65 266.25 229.6 M264.85 240.05 L264.85 240.0 266.05 240.5 264.85 240.0 264.85 240.05 M260.0 195.75 L263.15 199.4 Q264.5 196.3 265.1 193.85 264.5 196.3 263.15 199.4 L260.0 195.75 M33.05 183.25 L34.0 207.55 33.05 183.25" fill="#fdbe2d" fill-rule="evenodd" stroke="none"/>
      <path d="M310.05 187.95 L312.4 186.75 Q309.45 160.45 303.9 137.0 300.45 122.3 295.95 108.75 L295.75 108.4 Q292.65 103.1 298.75 101.55 L292.0 87.85 282.5 68.7 289.6 69.05 292.05 66.8 Q281.6 55.0 272.95 47.0 L262.4 36.4 Q240.6 15.4 224.8 7.95 203.25 1.7 175.25 12.0 L174.3 11.05 173.9 10.65 Q164.9 2.2 148.05 0.0 111.1 0.2 106.8 2.35 66.75 16.6 55.65 29.2 L61.15 31.1 Q31.1 56.15 20.3 72.6 L11.6 86.35 Q6.55 96.1 3.5 105.85 1.2 113.1 0.0 120.4 L6.6 126.2 10.5 129.6 9.9 132.35 10.6 129.65 15.2 111.15 M291.85 119.7 L292.15 120.0 292.05 120.3 289.7 125.35 288.95 126.75 288.4 127.75 287.6 129.2 283.15 129.35 283.5 133.2 276.05 135.45 278.8 139.75 274.8 139.5 277.55 143.1 276.85 145.65 272.5 144.1 Q257.6 138.6 244.95 131.5 L239.45 128.25 Q221.35 117.1 208.25 102.35 204.3 97.9 200.85 93.2 194.75 84.85 190.4 77.1 187.75 72.45 185.75 68.05 181.15 79.9 173.15 93.85 168.35 102.2 162.0 109.9 L160.4 111.85 Q134.55 141.9 84.95 161.15 L80.35 158.7 88.55 147.9 74.3 152.65 72.6 150.9 Q70.15 157.2 68.3 164.05 66.2 171.55 64.85 179.7 62.4 194.4 62.15 211.2 L56.75 212.9 53.85 204.7 49.5 216.8 Q41.7 217.85 33.9 215.0 L34.0 207.55 27.4 205.85 22.75 196.45 21.75 202.55 13.75 198.95 14.7 166.8 7.2 184.35 7.15 184.35 Q1.6 182.55 1.05 179.9 L7.45 143.6 7.5 143.55 9.9 132.35 M304.2 176.75 L304.4 178.1 306.0 183.7 307.35 188.35 Q306.65 188.3 305.95 188.75 302.25 191.1 297.9 207.0 L290.25 206.8 287.25 217.15 277.7 216.65 277.65 216.65 277.65 216.35 277.65 211.8 277.5 202.0 Q276.7 169.05 272.5 144.1 M310.05 187.95 L308.4 188.8 Q307.85 188.4 307.35 188.35 M247.75 62.3 Q256.75 77.7 267.55 91.85 273.25 99.25 279.45 106.4 285.4 113.2 291.85 119.7 M246.85 149.95 Q244.45 148.85 238.55 147.15 234.25 145.4 234.2 142.5 L230.1 143.25 Q227.25 143.85 226.05 143.2 224.85 142.55 224.15 140.15 216.45 144.35 210.75 143.35 205.05 142.3 203.2 139.7 200.95 136.95 201.25 134.3 201.3 133.3 201.75 132.3 206.4 130.3 211.85 132.6 215.8 134.15 224.05 134.4 226.25 134.65 227.25 135.2 227.5 134.95 227.65 134.95 L229.35 134.4 Q230.45 133.85 231.55 133.85 233.45 133.85 236.95 136.35 L237.0 136.4 237.65 136.0 Q238.3 135.7 238.95 135.7 243.0 135.7 246.4 141.1 L248.3 144.6 Q249.3 144.0 250.6 144.0 254.6 144.0 256.1 147.2 256.65 148.4 257.8 154.55 L257.8 157.55 Q262.5 159.8 262.5 171.7 L262.4 175.0 Q264.4 176.8 265.2 179.35 265.95 181.8 265.95 186.2 265.95 190.15 265.25 193.25 L265.1 193.85 Q267.95 197.75 268.95 201.1 269.75 203.85 269.75 207.3 L269.6 211.8 269.0 213.3 Q272.9 215.85 272.9 224.25 272.9 226.8 272.2 229.2 L272.0 229.8 273.4 230.6 274.35 231.3 274.45 233.3 274.45 233.7 274.9 235.65 275.1 237.45 Q275.1 238.75 274.55 239.65 L274.35 239.85 274.6 239.65 274.65 239.7 Q283.3 253.0 288.25 265.0 L285.05 266.95 Q283.95 268.3 282.0 269.1 277.85 270.75 270.0 270.05 L267.95 267.65 Q262.75 269.6 256.0 268.3 257.9 254.85 264.85 240.05 L264.4 238.95 264.4 236.7 264.4 235.55 264.8 235.55 Q264.4 234.35 264.4 232.55 264.4 231.4 265.05 230.45 265.6 229.7 266.25 229.6 L264.95 227.5 Q263.45 224.65 263.45 220.9 L263.55 217.7 265.0 214.65 260.3 209.55 Q258.75 207.25 258.75 202.05 258.75 199.9 259.0 198.5 259.15 197.75 260.0 195.75 L256.15 191.55 Q253.4 187.8 253.4 182.65 L253.5 179.0 Q253.75 177.05 255.25 175.85 L253.7 173.75 Q251.5 170.2 251.5 165.3 251.5 164.15 252.15 162.05 L253.0 159.65 250.4 157.6 Q246.45 153.95 246.85 150.05 L246.85 149.95 247.1 150.05 249.95 150.05 Q249.45 147.25 248.3 144.6 M224.15 140.15 L224.35 140.05 Q229.65 136.6 227.25 135.2 M237.0 136.4 Q240.45 138.85 241.3 140.1 242.2 141.3 237.6 142.0 L234.2 142.5 M171.4 140.55 L171.65 140.65 Q181.5 145.1 188.7 144.05 195.95 142.95 198.3 140.2 201.25 137.2 200.85 134.3 200.7 133.3 200.2 132.35 194.25 130.2 187.3 132.65 182.3 134.3 171.8 134.55 168.95 134.8 167.75 135.4 L167.55 135.5 Q164.95 137.05 171.4 140.55 M171.65 140.7 L171.65 140.65 M167.2 135.15 L165.05 134.55 Q163.6 133.95 162.2 133.95 159.8 133.95 155.35 136.65 L154.95 136.85 154.85 136.95 Q150.85 139.4 149.8 140.6 148.7 141.9 154.55 142.6 L158.9 143.15 164.05 143.95 Q167.7 144.6 169.25 143.9 170.75 143.2 171.65 140.7 M167.2 135.15 L167.75 135.4 M257.8 157.55 L257.8 161.35 Q255.4 161.15 253.0 159.65 M262.4 175.0 L262.4 175.05 260.95 179.45 Q257.45 178.25 255.25 175.85 M98.15 70.25 Q95.6 79.55 91.55 88.55 80.75 112.4 58.95 134.3 L58.95 134.35 60.65 138.9 63.7 138.7 70.6 138.25 67.9 142.25 Q69.25 147.05 72.6 150.9 M140.4 145.15 L138.0 144.75 Q132.85 144.75 130.95 148.15 130.25 149.4 128.8 155.95 L128.8 159.15 128.8 163.15 Q131.85 162.95 134.95 161.35 L138.25 159.2 Q143.2 155.3 142.8 151.2 L142.75 151.05 142.4 151.15 138.8 151.15 Q139.4 148.2 140.9 145.45 141.9 143.5 143.35 141.65 147.65 135.95 152.8 135.95 L154.45 136.25 155.35 136.65 M142.75 151.05 Q145.9 149.9 153.3 148.1 158.85 146.2 158.9 143.15 M122.9 177.65 Q120.4 179.6 119.4 182.25 118.4 184.85 118.4 189.55 118.4 193.75 119.3 197.0 L119.65 198.05 Q120.45 200.5 122.0 203.55 L126.1 199.6 130.9 195.2 Q134.4 191.25 134.4 185.75 L134.3 181.9 Q133.95 179.85 132.15 178.45 129.3 181.05 124.8 182.35 123.15 178.65 122.95 177.7 L122.95 177.65 Q122.8 176.9 122.8 174.15 122.8 161.5 128.8 159.15 M122.9 177.65 L122.95 177.65 M132.15 178.45 L134.05 176.35 Q136.8 172.55 136.8 167.35 136.8 166.15 136.0 163.9 L134.95 161.35 M119.7 219.75 L125.6 214.35 Q127.6 211.9 127.6 206.35 127.6 204.1 127.25 202.6 L126.1 199.6 M118.05 235.6 L119.7 233.4 Q121.6 230.35 121.6 226.35 L121.5 222.95 119.7 219.75 116.8 222.35 114.55 218.3 Q109.6 221.0 109.6 229.95 109.6 232.65 110.5 235.2 L110.75 235.85 111.95 238.35 112.8 239.95 Q116.05 237.75 118.05 235.6 118.9 235.7 119.55 236.5 120.4 237.5 120.4 238.75 120.4 240.7 119.95 241.95 L120.4 241.95 120.4 245.55 Q120.2 246.7 119.1 247.3 126.8 257.3 128.8 267.15 L124.6 269.7 126.35 272.9 Q119.45 276.95 109.4 279.95 L108.85 277.2 Q103.6 277.75 99.9 276.15 96.5 274.75 94.4 271.55 99.05 258.65 108.2 246.9 106.8 245.85 106.8 243.95 L107.0 242.05 Q107.2 240.6 107.65 239.95 L107.6 239.55 107.6 237.55 Q108.05 237.05 108.95 236.65 L110.75 235.85 M119.65 198.05 Q115.85 201.8 114.6 205.35 113.6 208.25 113.6 211.95 113.6 216.0 113.8 216.7 L114.55 218.3 M107.65 239.95 Q107.8 241.75 109.6 243.15 111.7 244.75 114.6 244.75 117.85 244.75 119.25 243.15 L119.95 241.95 M108.2 246.9 Q108.8 247.3 109.6 247.55 L113.4 247.95 113.8 247.95 117.25 247.85 117.5 247.8 Q118.45 247.65 119.1 247.3 M269.0 213.3 L267.25 217.1 265.0 214.65 M271.2 231.95 L271.0 232.2 271.05 232.2 271.2 231.95 271.2 231.9 272.0 229.8 M271.05 232.2 L270.35 233.7 Q267.8 231.65 266.25 229.6 M269.4 241.25 L269.9 241.25 270.85 241.25 Q272.8 241.0 274.35 239.85 L272.9 240.85 270.85 241.25 269.4 241.25 266.05 240.5 264.85 240.0 264.85 240.05 M274.45 233.7 Q274.3 235.4 272.9 236.7 271.25 238.2 268.95 238.2 266.4 238.2 265.3 236.7 L264.8 235.55 M34.0 207.55 L33.05 183.25 M265.1 193.85 Q264.5 196.3 263.15 199.4 L260.0 195.75" fill="none" stroke="#8f5800" stroke-linecap="round" stroke-linejoin="round" stroke-opacity="0.6627451" stroke-width="6.75"/>
    </g>
    <g id="sprite0" transform="matrix(1.0, 0.0, 0.0, 1.0, 0.0, 0.0)">
      <use height="279.95" transform="matrix(1.0, 0.0, 0.0, 1.0, 0.0, 0.0)" width="312.4" xlink:href="#shape1"/>
    </g>
    <g id="shape1" transform="matrix(1.0, 0.0, 0.0, 1.0, 0.0, 0.0)">
      <path d="M171.8 134.55 Q182.3 134.3 187.3 132.65 194.25 130.2 200.2 132.35 200.7 133.3 200.85 134.3 201.25 137.2 198.3 140.2 195.95 142.95 188.7 144.05 181.5 145.1 171.65 140.65 L171.4 140.55 171.65 140.7 Q170.75 143.2 169.25 143.9 167.7 144.6 164.05 143.95 L158.9 143.15 Q158.85 146.2 153.3 148.1 145.9 149.9 142.75 151.05 L142.8 151.2 Q143.2 155.3 138.25 159.2 L134.95 161.35 136.0 163.9 Q136.8 166.15 136.8 167.35 136.8 172.55 134.05 176.35 L132.15 178.45 Q133.95 179.85 134.3 181.9 L134.4 185.75 Q134.4 191.25 130.9 195.2 L126.1 199.6 127.25 202.6 Q127.6 204.1 127.6 206.35 127.6 211.9 125.6 214.35 L119.7 219.75 121.5 222.95 121.6 226.35 Q121.6 230.35 119.7 233.4 L118.05 235.6 Q118.9 235.7 119.55 236.5 120.4 237.5 120.4 238.75 120.4 240.7 119.95 241.95 L120.4 241.95 120.4 245.55 Q120.2 246.7 119.1 247.3 126.8 257.3 128.8 267.15 L124.6 269.7 126.35 272.9 Q119.45 276.95 109.4 279.95 L108.85 277.2 Q103.6 277.75 99.9 276.15 96.5 274.75 94.4 271.55 99.05 258.65 108.2 246.9 106.8 245.85 106.8 243.95 L107.0 242.05 Q107.2 240.6 107.65 239.95 L107.6 239.55 107.6 237.55 Q108.05 237.05 108.95 236.65 L110.75 235.85 110.5 235.2 Q109.6 232.65 109.6 229.95 109.6 221.0 114.55 218.3 L113.8 216.7 Q113.6 216.0 113.6 211.95 113.6 208.25 114.6 205.35 115.85 201.8 119.65 198.05 L119.3 197.0 Q118.4 193.75 118.4 189.55 118.4 184.85 119.4 182.25 120.4 179.6 122.9 177.65 L122.95 177.7 122.95 177.65 Q122.8 176.9 122.8 174.15 122.8 161.5 128.8 159.15 L128.8 155.95 Q130.25 149.4 130.95 148.15 132.85 144.75 138.0 144.75 L140.4 145.15 140.9 145.45 Q141.9 143.5 143.35 141.65 147.65 135.95 152.8 135.95 L154.45 136.25 154.85 136.95 154.95 136.85 155.35 136.65 Q159.8 133.95 162.2 133.95 163.6 133.95 165.05 134.55 L167.2 135.15 167.55 135.5 167.75 135.4 Q168.95 134.8 171.8 134.55" fill="url(#gradient0)" fill-rule="evenodd" stroke="none"/>
      <path d="M203.2 139.7 Q200.95 136.95 201.25 134.3 201.3 133.3 201.75 132.3 206.4 130.3 211.85 132.6 215.8 134.15 224.05 134.4 226.25 134.65 227.25 135.2 227.5 134.95 227.65 134.95 L229.35 134.4 Q230.45 133.85 231.55 133.85 233.45 133.85 236.95 136.35 L237.0 136.4 237.65 136.0 Q238.3 135.7 238.95 135.7 243.0 135.7 246.4 141.1 L248.3 144.6 Q249.3 144.0 250.6 144.0 254.6 144.0 256.1 147.2 256.65 148.4 257.8 154.55 L257.8 157.55 Q262.5 159.8 262.5 171.7 L262.4 175.0 Q264.4 176.8 265.2 179.35 265.95 181.8 265.95 186.2 265.95 190.15 265.25 193.25 L265.1 193.85 Q267.95 197.75 268.95 201.1 269.75 203.85 269.75 207.3 L269.6 211.8 269.0 213.3 Q272.9 215.85 272.9 224.25 272.9 226.8 272.2 229.2 L272.0 229.8 273.4 230.6 274.35 231.3 274.45 233.3 274.45 233.7 274.9 235.65 275.1 237.45 Q275.1 238.75 274.55 239.65 L274.35 239.85 274.65 239.7 Q283.3 253.0 288.25 265.0 L285.05 266.95 Q283.95 268.3 282.0 269.1 277.85 270.75 270.0 270.05 L267.95 267.65 Q262.75 269.6 256.0 268.3 257.9 254.85 264.85 240.05 L264.4 238.95 264.4 236.7 265.3 236.7 264.8 235.55 Q264.4 234.35 264.4 232.55 264.4 231.4 265.05 230.45 265.6 229.7 266.25 229.6 L264.95 227.5 Q263.45 224.65 263.45 220.9 L263.55 217.7 265.0 214.65 260.3 209.55 Q258.75 207.25 258.75 202.05 258.75 199.9 259.0 198.5 259.15 197.75 260.0 195.75 L256.15 191.55 Q253.4 187.8 253.4 182.65 L253.5 179.0 Q253.75 177.05 255.25 175.85 L253.7 173.75 Q251.5 170.2 251.5 165.3 251.5 164.15 252.15 162.05 L253.0 159.65 250.4 157.6 Q246.45 153.95 246.85 150.05 L247.1 150.05 246.85 149.95 Q244.45 148.85 238.55 147.15 234.25 145.4 234.2 142.5 L230.1 143.25 Q227.25 143.85 226.05 143.2 224.85 142.55 224.15 140.15 216.45 144.35 210.75 143.35 205.05 142.3 203.2 139.7 M271.2 231.95 L271.0 232.2 271.05 232.2 271.2 231.95 M272.9 240.85 L274.35 239.85 Q272.8 241.0 270.85 241.25 L272.9 240.85 M270.85 241.25 L269.9 241.25 269.4 241.25 270.85 241.25" fill="url(#gradient1)" fill-rule="evenodd" stroke="none"/>
      <path d="M272.95 47.0 Q281.6 55.0 292.05 66.8 L289.6 69.05 282.5 68.7 292.0 87.85 298.75 101.55 Q292.65 103.1 295.75 108.4 L295.95 108.75 Q300.45 122.3 303.9 137.0 309.45 160.45 312.4 186.75 L308.4 188.8 Q307.85 188.4 307.35 188.35 306.65 188.3 305.95 188.75 302.25 191.1 297.9 207.0 L290.25 206.8 287.25 217.15 277.7 216.65 277.65 216.65 277.65 216.35 277.65 211.8 277.5 202.0 Q276.7 169.05 272.5 144.1 257.6 138.6 244.95 131.5 L239.45 128.25 Q221.35 117.1 208.25 102.35 204.3 97.9 200.85 93.2 194.75 84.85 190.4 77.1 187.75 72.45 185.75 68.05 181.15 79.9 173.15 93.85 168.35 102.2 162.0 109.9 L160.4 111.85 Q134.55 141.9 84.95 161.15 L80.35 158.7 88.55 147.9 74.3 152.65 72.6 150.9 Q70.15 157.2 68.3 164.05 66.2 171.55 64.85 179.7 62.4 194.4 62.15 211.2 L56.75 212.9 53.85 204.7 49.5 216.8 Q41.7 217.85 33.9 215.0 L34.0 207.55 27.4 205.85 22.75 196.45 21.75 202.55 13.75 198.95 14.7 166.8 7.2 184.35 7.15 184.35 Q1.6 182.55 1.05 179.9 L7.45 143.6 7.5 143.55 10.6 129.65 10.5 129.6 0.0 120.4 Q1.2 113.1 3.5 105.85 6.55 96.1 11.6 86.35 L20.3 72.6 Q31.1 56.15 61.15 31.1 L55.65 29.2 Q66.75 16.6 106.8 2.35 111.1 0.2 148.05 0.0 164.9 2.2 173.9 10.65 L174.3 11.05 175.25 12.0 Q203.25 1.7 224.8 7.95 240.6 15.4 262.4 36.4 L272.95 47.0" fill="url(#gradient2)" fill-rule="evenodd" stroke="none"/>
    </g>
    <linearGradient gradientTransform="matrix(-0.0715, -0.072, 0.0643, -0.0639, 155.45, 213.1)" gradientUnits="userSpaceOnUse" id="gradient0" spreadMethod="pad" x1="-819.2" x2="819.2">
      <stop offset="0.0" stop-color="#000000" stop-opacity="0.5019608"/>
      <stop offset="1.0" stop-color="#ffffff"/>
    </linearGradient>
    <linearGradient gradientTransform="matrix(-0.0798, -0.1383, 0.0734, -0.0424, 280.9, 214.8)" gradientUnits="userSpaceOnUse" id="gradient1" spreadMethod="pad" x1="-819.2" x2="819.2">
      <stop offset="0.0" stop-color="#000000" stop-opacity="0.5019608"/>
      <stop offset="1.0" stop-color="#ffffff"/>
    </linearGradient>
    <linearGradient gradientTransform="matrix(-0.063, -0.2352, 0.128, -0.0343, 184.75, 128.15)" gradientUnits="userSpaceOnUse" id="gradient2" spreadMethod="pad" x1="-819.2" x2="819.2">
      <stop offset="0.0" stop-color="#000000" stop-opacity="0.5019608"/>
      <stop offset="1.0" stop-color="#ffffff"/>
    </linearGradient>
  </defs>
</svg>
