<?xml version="1.0" encoding="UTF-8" standalone="no"?>
<svg xmlns:xlink="http://www.w3.org/1999/xlink" height="531.5px" width="460.6px" xmlns="http://www.w3.org/2000/svg">
  <g transform="matrix(1.0, 0.0, 0.0, 1.0, 193.65, 334.05)">
    <use height="25.25" transform="matrix(1.9412, 0.0, 0.0, 1.9412, 1.4384, -159.1086)" width="26.8" xlink:href="#sprite0"/>
  </g>
  <defs>
    <g id="sprite0" transform="matrix(1.0, 0.0, 0.0, 1.0, 13.4, 12.6)">
      <use height="25.25" transform="matrix(1.0, 0.0, 0.0, 1.0, -13.4, -12.6)" width="26.8" xlink:href="#shape0"/>
      <use height="24.25" transform="matrix(1.0, 0.0, 0.0, 1.0, -12.9, -12.1)" width="25.8" xlink:href="#sprite1"/>
    </g>
    <g id="shape0" transform="matrix(1.0, 0.0, 0.0, 1.0, 13.4, 12.6)">
      <path d="M8.9 0.8 L8.85 -0.6 Q8.95 -2.8 9.6 -3.55 11.6 -5.5 10.25 -7.9 9.25 -9.7 6.25 -10.35 L5.65 -10.45 3.9 -10.65 3.1 -10.7 1.4 -10.75 -0.05 -10.75 -2.2 -10.6 Q-6.7 -10.25 -8.05 -7.9 -9.45 -5.5 -7.4 -3.55 -6.75 -2.8 -6.65 -0.6 L-6.7 2.4 -6.8 2.4 Q-7.4 2.4 -8.5 1.55 L-8.4 -0.7 Q-8.55 -3.2 -9.35 -4.05 -11.8 -6.2 -10.1 -8.9 -8.5 -11.5 -3.0 -11.9 L-0.35 -12.05 1.4 -12.05 3.5 -12.0 4.45 -11.95 Q10.55 -11.65 12.2 -8.9 13.9 -6.2 11.45 -4.05 10.65 -3.2 10.5 -0.7 L10.6 0.65 10.3 0.8 8.9 0.8" fill="#ffc757" fill-rule="evenodd" stroke="none"/>
      <path d="M-6.7 2.4 L-6.65 -0.6 Q-6.75 -2.8 -7.4 -3.55 -9.45 -5.5 -8.05 -7.9 -6.7 -10.25 -2.2 -10.6 L-0.05 -10.75 1.4 -10.75 3.1 -10.7 3.9 -10.65 5.65 -10.45 6.25 -10.35 Q9.25 -9.7 10.25 -7.9 11.6 -5.5 9.6 -3.55 8.95 -2.8 8.85 -0.6 L8.9 0.8 8.9 3.9 8.5 7.65 8.25 8.9 Q7.4 10.35 3.85 10.8 L3.1 10.85 2.8 10.85 1.85 10.9 1.4 10.9 0.85 10.9 0.35 10.9 -0.6 10.85 Q-5.3 10.25 -6.05 8.9 -6.7 6.15 -6.7 2.4 M7.5 -8.2 L7.3 -8.5 7.05 -8.6 7.0 -8.6 6.8 -8.65 6.2 -8.7 6.1 -8.7 4.3 -8.35 2.9 -8.0 1.4 -7.85 0.7 -7.75 -0.7 -7.6 Q-1.95 -7.3 -2.5 -6.45 -2.55 -5.7 -2.9 -5.2 L-3.0 -3.75 Q-3.0 -1.95 -2.45 -1.5 L0.7 -1.2 0.3 -0.7 0.2 -0.1 -1.15 -0.4 -2.65 -0.7 Q-4.05 -0.7 -4.7 0.7 -5.1 1.6 -5.1 2.75 -5.1 5.8 -2.25 6.15 0.6 6.5 0.6 7.65 L0.45 8.0 0.3 8.3 Q0.3 9.2 4.35 10.0 6.0 10.0 6.5 7.5 L6.7 4.3 Q8.2 2.7 8.2 1.5 L8.2 0.8 8.15 0.7 8.15 0.45 Q7.95 -0.8 7.25 -1.55 6.3 -2.6 6.3 -3.2 6.3 -4.25 6.95 -5.45 7.6 -6.6 7.6 -7.3 L7.55 -8.1 7.5 -8.2 M-4.5 -9.1 L-5.35 -8.8 -6.3 -8.15 Q-7.05 -7.5 -7.2 -6.85 L-7.3 -6.45 -7.25 -6.2 Q-7.15 -5.55 -6.5 -5.1 -5.75 -4.6 -4.55 -4.6 -3.45 -4.6 -2.9 -5.2 L-2.8 -5.9 -2.5 -6.45 -2.5 -6.8 -2.6 -7.8 Q-2.85 -8.15 -3.85 -8.85 L-3.9 -8.9 -4.2 -9.1 -4.5 -9.1" fill="#ffe3ab" fill-rule="evenodd" stroke="none"/>
      <path d="M7.5 -8.2 L7.55 -8.1 7.6 -7.3 Q7.6 -6.6 6.95 -5.45 6.3 -4.25 6.3 -3.2 6.3 -2.6 7.25 -1.55 7.95 -0.8 8.15 0.45 L8.15 0.7 8.2 0.8 8.2 1.5 Q8.2 2.7 6.7 4.3 L6.5 7.5 Q6.0 10.0 4.35 10.0 0.3 9.2 0.3 8.3 L0.45 8.0 0.6 7.65 Q0.6 6.5 -2.25 6.15 -5.1 5.8 -5.1 2.75 -5.1 1.6 -4.7 0.7 -4.05 -0.7 -2.65 -0.7 L-1.15 -0.4 0.2 -0.1 0.3 -0.7 0.7 -1.2 -2.45 -1.5 Q-3.0 -1.95 -3.0 -3.75 L-2.9 -5.2 Q-2.55 -5.7 -2.5 -6.45 -1.95 -7.3 -0.7 -7.6 L0.7 -7.75 1.4 -7.85 2.9 -8.0 4.3 -8.35 6.1 -8.7 6.2 -8.7 6.8 -8.65 7.0 -8.6 7.05 -8.6 7.3 -8.5 7.5 -8.2 M2.9 7.3 L2.55 7.5 Q2.25 7.85 2.25 8.3 2.25 8.75 2.55 9.05 2.9 9.4 3.35 9.4 3.8 9.4 4.1 9.05 L4.45 8.3 Q4.45 7.85 4.1 7.5 4.45 7.85 4.45 8.3 L4.1 9.05 Q3.8 9.4 3.35 9.4 2.9 9.4 2.55 9.05 2.25 8.75 2.25 8.3 2.25 7.85 2.55 7.5 L2.9 7.3 M3.7 -0.2 Q2.75 -0.15 2.1 0.5 1.4 1.2 1.4 2.2 1.4 3.2 2.1 3.9 2.7 4.5 3.55 4.6 2.7 4.5 2.1 3.9 1.4 3.2 1.4 2.2 1.4 1.2 2.1 0.5 2.75 -0.15 3.7 -0.2 M4.7 4.45 L5.5 3.9 Q6.2 3.2 6.2 2.2 6.2 1.3 5.6 0.65 6.2 1.3 6.2 2.2 6.2 3.2 5.5 3.9 L4.7 4.45 M1.7 -3.9 L1.8 -4.5 1.5 -5.55 1.8 -4.5 1.7 -3.9 M5.85 -6.05 L6.15 -6.25 6.35 -6.7 6.15 -7.15 5.7 -7.35 5.25 -7.15 5.05 -6.7 5.25 -7.15 5.7 -7.35 6.15 -7.15 6.35 -6.7 6.15 -6.25 5.85 -6.05 M-4.5 -9.1 L-4.2 -9.1 -3.9 -8.9 -3.85 -8.85 Q-2.85 -8.15 -2.6 -7.8 L-2.5 -6.8 -2.5 -6.45 -2.8 -5.9 -2.9 -5.2 Q-3.45 -4.6 -4.55 -4.6 -5.75 -4.6 -6.5 -5.1 -7.15 -5.55 -7.25 -6.2 L-7.3 -6.45 -7.2 -6.85 Q-7.05 -7.5 -6.3 -8.15 L-5.35 -8.8 -4.5 -9.1 M-0.4 3.6 Q-0.05 3.15 -0.05 2.6 -0.05 1.9 -0.6 1.35 -1.1 0.85 -1.8 0.85 -2.5 0.85 -3.05 1.35 -3.55 1.9 -3.55 2.6 L-3.35 3.45 -3.55 2.6 Q-3.55 1.9 -3.05 1.35 -2.5 0.85 -1.8 0.85 -1.1 0.85 -0.6 1.35 -0.05 1.9 -0.05 2.6 -0.05 3.15 -0.4 3.6 M0.35 -6.35 L-0.1 -6.4 Q-0.9 -6.4 -1.45 -5.85 -2.0 -5.3 -2.0 -4.5 -2.0 -3.9 -1.65 -3.4 -2.0 -3.9 -2.0 -4.5 -2.0 -5.3 -1.45 -5.85 -0.9 -6.4 -0.1 -6.4 L0.35 -6.35 M-0.55 -2.65 L-0.1 -2.6 Q0.5 -2.6 0.95 -2.9 0.5 -2.6 -0.1 -2.6 L-0.55 -2.65 M-4.15 -6.55 Q-3.9 -6.75 -3.9 -7.1 L-4.15 -7.7 -4.7 -7.9 -5.3 -7.7 -5.5 -7.25 -5.3 -7.7 -4.7 -7.9 -4.15 -7.7 -3.9 -7.1 Q-3.9 -6.75 -4.15 -6.55" fill="#f2d7a2" fill-rule="evenodd" stroke="none"/>
      <path d="M-0.35 -12.05 L-3.0 -11.9 Q-8.5 -11.5 -10.1 -8.9 -11.8 -6.2 -9.35 -4.05 -8.55 -3.2 -8.4 -0.7 L-8.5 1.55 Q-8.6 6.45 -7.7 9.9 -6.75 11.4 -1.05 12.1 -8.55 11.8 -9.8 9.9 -10.85 5.8 -10.5 -0.2 L-10.5 -0.7 Q-10.65 -3.2 -11.45 -4.05 -13.9 -6.2 -12.2 -8.9 -10.6 -11.5 -5.1 -11.9 L-0.35 -12.05" fill="#b58100" fill-rule="evenodd" stroke="none"/>
      <path d="M8.9 0.8 L10.3 0.8 10.6 0.65 Q10.8 6.1 9.8 9.9 8.6 11.7 3.5 12.1 L3.15 12.1 1.95 12.15 1.4 12.15 0.85 12.15 0.15 12.15 -1.05 12.1 Q-6.75 11.4 -7.7 9.9 -8.6 6.45 -8.5 1.55 -7.4 2.4 -6.8 2.4 L-6.7 2.4 Q-6.7 6.15 -6.05 8.9 -5.3 10.25 -0.6 10.85 L0.35 10.9 0.85 10.9 1.4 10.9 1.85 10.9 2.8 10.85 3.1 10.85 3.85 10.8 Q7.4 10.35 8.25 8.9 L8.5 7.65 8.9 3.9 8.9 0.8" fill="#d9a94a" fill-rule="evenodd" stroke="none"/>
      <path d="M-6.7 2.4 L-6.65 -0.6 Q-6.75 -2.8 -7.4 -3.55 -9.45 -5.5 -8.05 -7.9 -6.7 -10.25 -2.2 -10.6 L-0.05 -10.75 1.4 -10.75 3.1 -10.7 3.9 -10.65 5.65 -10.45 6.25 -10.35 Q9.25 -9.7 10.25 -7.9 11.6 -5.5 9.6 -3.55 8.95 -2.8 8.85 -0.6 L8.9 0.8 8.9 3.9 8.5 7.65 8.25 8.9 Q7.4 10.35 3.85 10.8 L3.1 10.85 2.8 10.85 1.85 10.9 1.4 10.9 0.85 10.9 0.35 10.9 -0.6 10.85 Q-5.3 10.25 -6.05 8.9 -6.7 6.15 -6.7 2.4 M-0.35 -12.05 L-3.0 -11.9 Q-8.5 -11.5 -10.1 -8.9 -11.8 -6.2 -9.35 -4.05 -8.55 -3.2 -8.4 -0.7 L-8.5 1.55 Q-8.6 6.45 -7.7 9.9 -6.75 11.4 -1.05 12.1" fill="none" stroke="#bd7500" stroke-linecap="round" stroke-linejoin="round" stroke-opacity="0.33333334" stroke-width="1.0"/>
      <path d="M5.05 -6.7 L5.25 -7.15 5.7 -7.35 6.15 -7.15 6.35 -6.7 6.15 -6.25 5.85 -6.05 M1.5 -5.55 L1.8 -4.5 1.7 -3.9 M5.6 0.65 Q6.2 1.3 6.2 2.2 6.2 3.2 5.5 3.9 L4.7 4.45 M3.55 4.6 Q2.7 4.5 2.1 3.9 1.4 3.2 1.4 2.2 1.4 1.2 2.1 0.5 2.75 -0.15 3.7 -0.2 M4.1 7.5 Q4.45 7.85 4.45 8.3 L4.1 9.05 Q3.8 9.4 3.35 9.4 2.9 9.4 2.55 9.05 2.25 8.75 2.25 8.3 2.25 7.85 2.55 7.5 L2.9 7.3 M-5.5 -7.25 L-5.3 -7.7 -4.7 -7.9 -4.15 -7.7 -3.9 -7.1 Q-3.9 -6.75 -4.15 -6.55 M0.95 -2.9 Q0.5 -2.6 -0.1 -2.6 L-0.55 -2.65 M-1.65 -3.4 Q-2.0 -3.9 -2.0 -4.5 -2.0 -5.3 -1.45 -5.85 -0.9 -6.4 -0.1 -6.4 L0.35 -6.35 M-3.35 3.45 L-3.55 2.6 Q-3.55 1.9 -3.05 1.35 -2.5 0.85 -1.8 0.85 -1.1 0.85 -0.6 1.35 -0.05 1.9 -0.05 2.6 -0.05 3.15 -0.4 3.6" fill="none" stroke="#bd7500" stroke-linecap="round" stroke-linejoin="round" stroke-opacity="0.33333334" stroke-width="0.5"/>
      <path d="M10.6 0.65 L10.5 -0.7 Q10.65 -3.2 11.45 -4.05 13.9 -6.2 12.2 -8.9 10.55 -11.65 4.45 -11.95 L3.5 -12.0 1.4 -12.05 -0.35 -12.05 -5.1 -11.9 Q-10.6 -11.5 -12.2 -8.9 -13.9 -6.2 -11.45 -4.05 -10.65 -3.2 -10.5 -0.7 L-10.5 -0.2 Q-10.85 5.8 -9.8 9.9 -8.55 11.8 -1.05 12.1 L0.15 12.15 0.85 12.15 1.4 12.15 1.95 12.15 3.15 12.1 3.5 12.1 Q8.6 11.7 9.8 9.9 10.8 6.1 10.6 0.65" fill="none" stroke="#000000" stroke-linecap="round" stroke-linejoin="round" stroke-opacity="0.33333334" stroke-width="1.0"/>
    </g>
    <g id="sprite1" transform="matrix(1.0, 0.0, 0.0, 1.0, 12.9, 12.1)">
      <use height="24.25" transform="matrix(1.0, 0.0, 0.0, 1.0, -12.9, -12.1)" width="25.8" xlink:href="#shape1"/>
    </g>
    <g id="shape1" transform="matrix(1.0, 0.0, 0.0, 1.0, 12.9, 12.1)">
      <path d="M-1.05 12.1 Q-8.55 11.8 -9.8 9.9 -10.85 5.8 -10.5 -0.2 L-10.5 -0.7 Q-10.65 -3.2 -11.45 -4.05 -13.9 -6.2 -12.2 -8.9 -10.6 -11.5 -5.1 -11.9 L-0.35 -12.05 -3.0 -11.9 Q-8.5 -11.5 -10.1 -8.9 -11.8 -6.2 -9.35 -4.05 -8.55 -3.2 -8.4 -0.7 L-8.5 1.55 Q-8.6 6.45 -7.7 9.9 -6.75 11.4 -1.05 12.1" fill="url(#gradient0)" fill-rule="evenodd" stroke="none"/>
      <path d="M-0.35 -12.05 L1.4 -12.05 3.5 -12.0 4.45 -11.95 Q10.55 -11.65 12.2 -8.9 13.9 -6.2 11.45 -4.05 10.65 -3.2 10.5 -0.7 L10.6 0.65 Q10.8 6.1 9.8 9.9 8.6 11.7 3.5 12.1 L3.15 12.1 1.95 12.15 1.4 12.15 0.85 12.15 0.15 12.15 -1.05 12.1 Q-6.75 11.4 -7.7 9.9 -8.6 6.45 -8.5 1.55 L-8.4 -0.7 Q-8.55 -3.2 -9.35 -4.05 -11.8 -6.2 -10.1 -8.9 -8.5 -11.5 -3.0 -11.9 L-0.35 -12.05 M-0.05 -10.75 L-2.2 -10.6 Q-6.7 -10.25 -8.05 -7.9 -9.45 -5.5 -7.4 -3.55 -6.75 -2.8 -6.65 -0.6 L-6.7 2.4 Q-6.7 6.15 -6.05 8.9 -5.3 10.25 -0.6 10.85 L0.35 10.9 0.85 10.9 1.4 10.9 1.85 10.9 2.8 10.85 3.1 10.85 3.85 10.8 Q7.4 10.35 8.25 8.9 L8.5 7.65 8.9 3.9 8.9 0.8 8.85 -0.6 Q8.95 -2.8 9.6 -3.55 11.6 -5.5 10.25 -7.9 9.25 -9.7 6.25 -10.35 L5.65 -10.45 3.9 -10.65 3.1 -10.7 1.4 -10.75 -0.05 -10.75" fill="url(#gradient1)" fill-rule="evenodd" stroke="none"/>
      <path d="M-0.05 -10.75 L1.4 -10.75 3.1 -10.7 3.9 -10.65 5.65 -10.45 6.25 -10.35 Q9.25 -9.7 10.25 -7.9 11.6 -5.5 9.6 -3.55 8.95 -2.8 8.85 -0.6 L8.9 0.8 8.9 3.9 8.5 7.65 8.25 8.9 Q7.4 10.35 3.85 10.8 L3.1 10.85 2.8 10.85 1.85 10.9 1.4 10.9 0.85 10.9 0.35 10.9 -0.6 10.85 Q-5.3 10.25 -6.05 8.9 -6.7 6.15 -6.7 2.4 L-6.65 -0.6 Q-6.75 -2.8 -7.4 -3.55 -9.45 -5.5 -8.05 -7.9 -6.7 -10.25 -2.2 -10.6 L-0.05 -10.75" fill="url(#gradient2)" fill-rule="evenodd" stroke="none"/>
    </g>
    <linearGradient gradientTransform="matrix(0.0048, -0.0177, 0.0142, 0.0038, -6.65, 0.0)" gradientUnits="userSpaceOnUse" id="gradient0" spreadMethod="pad" x1="-819.2" x2="819.2">
      <stop offset="0.0" stop-color="#000000"/>
      <stop offset="1.0" stop-color="#ffffff"/>
    </linearGradient>
    <linearGradient gradientTransform="matrix(-0.0069, -0.0259, 0.0143, -0.0038, 2.25, 4.1)" gradientUnits="userSpaceOnUse" id="gradient1" spreadMethod="pad" x1="-819.2" x2="819.2">
      <stop offset="0.0" stop-color="#000000"/>
      <stop offset="1.0" stop-color="#ffffff"/>
    </linearGradient>
    <linearGradient gradientTransform="matrix(-0.0071, -0.0265, 0.0128, -0.0034, 2.65, 3.65)" gradientUnits="userSpaceOnUse" id="gradient2" spreadMethod="pad" x1="-819.2" x2="819.2">
      <stop offset="0.0" stop-color="#000000"/>
      <stop offset="1.0" stop-color="#ffffff"/>
    </linearGradient>
  </defs>
</svg>
