<?xml version="1.0" encoding="UTF-8" standalone="no"?>
<svg xmlns:xlink="http://www.w3.org/1999/xlink" height="531.5px" width="460.6px" xmlns="http://www.w3.org/2000/svg">
  <g transform="matrix(1.0, 0.0, 0.0, 1.0, 193.65, 334.05)">
    <use height="37.6" transform="matrix(0.43, 0.0, 0.0, 0.43, 40.9604, -153.6839)" width="97.8" xlink:href="#sprite0"/>
  </g>
  <defs>
    <g id="sprite0" transform="matrix(1.0, 0.0, 0.0, 1.0, 48.0, 18.8)">
      <use height="37.6" transform="matrix(1.0, 0.0, 0.0, 1.0, -47.75, -18.8)" width="97.55" xlink:href="#shape0"/>
      <use height="34.1" transform="matrix(1.0, 0.0, 0.0, 1.0, -48.0, -17.05)" width="94.05" xlink:href="#sprite1"/>
    </g>
    <g id="shape0" transform="matrix(1.0, 0.0, 0.0, 1.0, 47.75, 18.8)">
      <path d="M-12.75 -3.8 L-8.7 -5.1 Q-1.6 -7.4 3.55 -8.05 L18.3 -9.9 Q11.3 4.2 17.1 14.05 L12.3 14.75 Q-3.5 17.0 -16.8 17.05 -19.3 8.25 -12.75 -3.8" fill="url(#gradient0)" fill-rule="evenodd" stroke="none"/>
      <path d="M18.3 -9.9 L3.55 -8.05 Q-1.6 -7.4 -8.7 -5.1 L-12.75 -3.8 -9.35 -9.4 -12.75 -3.8 Q-17.9 -2.2 -20.85 -1.65 -32.45 0.55 -40.85 7.85 L-45.0 12.05 -45.95 10.65 Q-46.35 8.6 -42.1 4.55 L-41.3 3.6 Q-37.75 0.2 -22.6 -5.3 -16.4 -7.55 -9.35 -9.4 3.35 -12.8 18.9 -14.95 L21.3 -15.25 Q19.55 -12.5 18.3 -9.9 M-41.3 3.6 Q-41.45 5.8 -40.85 7.85 -41.45 5.8 -41.3 3.6" fill="#8a5832" fill-rule="evenodd" stroke="none"/>
      <path d="M35.1 -13.65 Q36.45 -15.55 38.4 -17.05 43.6 -16.2 45.05 -14.75 L47.25 -12.1 47.35 -11.9 Q48.0 -10.5 48.0 -4.8 L48.05 2.1 Q48.05 2.95 47.25 4.85 46.45 6.75 44.5 7.75 42.85 8.7 40.8 9.25 38.55 8.25 36.5 6.55 31.65 -3.4 34.3 -11.6 L35.1 -13.65 M39.55 -13.95 Q38.4 -13.95 38.0 -13.25 37.7 -12.8 37.35 -11.15 36.75 -8.75 36.75 -6.65 36.75 -1.3 37.3 1.6 37.85 4.5 39.05 5.85 L38.95 5.65 38.4 4.2 38.0 2.5 37.7 0.8 Q37.25 -2.0 37.25 -4.8 37.25 -8.6 37.55 -10.15 38.2 -13.65 40.35 -13.65 L39.55 -13.95 M38.5 -3.55 L38.95 -3.05 39.35 -3.65 39.35 -5.05 39.25 -5.15 39.05 -5.15 Q38.6 -5.15 38.5 -4.9 L38.45 -4.2 38.5 -3.55 M40.25 -5.65 Q40.4 -6.3 41.15 -6.5 L41.1 -6.55 40.85 -6.55 40.8 -6.7 40.5 -7.05 Q39.95 -7.05 39.85 -5.65 L39.85 -4.1 39.9 -2.25 Q40.1 -1.25 40.8 -0.9 L40.4 -2.25 Q40.15 -3.1 40.15 -4.0 L40.25 -5.65 M42.25 -10.65 L42.15 -11.05 41.7 -10.8 Q41.35 -10.45 41.35 -9.75 L41.35 -8.75 Q41.75 -8.8 42.05 -9.6 L42.25 -10.65 M42.25 -4.95 L42.0 -4.25 41.85 -3.55 Q41.85 -2.6 42.55 -2.55 L42.65 -3.8 Q42.65 -4.7 42.25 -4.95 M45.0 -3.75 L45.15 -0.25 Q45.15 2.7 44.65 4.15 44.05 5.85 42.65 6.2 L41.6 6.55 41.0 6.4 Q41.35 6.95 41.95 6.95 44.0 6.95 45.05 4.35 45.85 2.35 45.85 -0.35 45.85 -4.7 45.3 -7.55 L44.95 -4.5 45.0 -3.75 M42.35 1.5 L41.95 0.95 41.65 0.95 41.65 2.15 42.05 2.75 42.85 2.75 42.85 1.85 42.35 1.5" fill="url(#gradient1)" fill-rule="evenodd" stroke="none"/>
      <path d="M39.55 -13.95 L40.35 -13.65 Q38.2 -13.65 37.55 -10.15 37.25 -8.6 37.25 -4.8 37.25 -2.0 37.7 0.8 L38.0 2.5 38.4 4.2 38.95 5.65 39.05 5.85 Q37.85 4.5 37.3 1.6 36.75 -1.3 36.75 -6.65 36.75 -8.75 37.35 -11.15 37.7 -12.8 38.0 -13.25 38.4 -13.95 39.55 -13.95 M40.25 -5.65 L40.15 -4.0 Q40.15 -3.1 40.4 -2.25 L40.8 -0.9 Q40.1 -1.25 39.9 -2.25 L39.85 -4.1 39.85 -5.65 Q39.95 -7.05 40.5 -7.05 L40.8 -6.7 40.85 -6.55 41.1 -6.55 41.15 -6.5 Q40.4 -6.3 40.25 -5.65 M45.0 -3.75 L44.95 -4.5 45.3 -7.55 Q45.85 -4.7 45.85 -0.35 45.85 2.35 45.05 4.35 44.0 6.95 41.95 6.95 41.35 6.95 41.0 6.4 L41.6 6.55 42.65 6.2 Q44.05 5.85 44.65 4.15 45.15 2.7 45.15 -0.25 L45.0 -3.75 M42.25 -4.95 Q42.65 -4.7 42.65 -3.8 L42.55 -2.55 Q41.85 -2.6 41.85 -3.55 L42.0 -4.25 42.25 -4.95" fill="#d18a16" fill-rule="evenodd" stroke="none"/>
      <path d="M18.3 -9.9 Q19.55 -12.5 21.3 -15.25 L38.4 -17.05 Q36.45 -15.55 35.1 -13.65 L34.3 -11.6 27.95 -11.1 18.3 -9.9" fill="url(#gradient2)" fill-rule="evenodd" stroke="none"/>
      <path d="M27.65 -9.9 L27.95 -10.45 28.65 -10.45 28.85 -10.45 28.85 -9.45 28.05 -8.75 Q27.45 -8.75 27.45 -9.25 L27.65 -9.9 M29.95 5.95 L29.4 6.05 Q29.0 6.05 28.85 5.55 L28.75 4.95 28.75 4.65 28.85 3.95 29.2 3.5 Q29.7 3.05 30.2 3.05 30.85 3.05 30.85 3.55 L29.95 4.35 29.95 5.95" fill="#473838" fill-rule="evenodd" stroke="none"/>
      <path d="M17.1 14.05 Q11.3 4.2 18.3 -9.9 L27.95 -11.1 34.3 -11.6 Q31.65 -3.4 36.5 6.55 38.55 8.25 40.8 9.25 31.05 11.8 17.1 14.05 M27.65 -9.9 L27.45 -9.25 Q27.45 -8.75 28.05 -8.75 L28.85 -9.45 28.85 -10.45 28.65 -10.45 27.95 -10.45 27.65 -9.9 M29.95 5.95 L29.95 4.35 30.85 3.55 Q30.85 3.05 30.2 3.05 29.7 3.05 29.2 3.5 L28.85 3.95 28.75 4.65 28.75 4.95 28.85 5.55 Q29.0 6.05 29.4 6.05 L29.95 5.95" fill="url(#gradient3)" fill-rule="evenodd" stroke="none"/>
      <path d="M38.5 -3.55 L38.45 -4.2 38.5 -4.9 Q38.6 -5.15 39.05 -5.15 L39.25 -5.15 39.35 -5.05 39.35 -3.65 38.95 -3.05 38.5 -3.55 M42.25 -10.65 L42.05 -9.6 Q41.75 -8.8 41.35 -8.75 L41.35 -9.75 Q41.35 -10.45 41.7 -10.8 L42.15 -11.05 42.25 -10.65 M42.35 1.5 L42.85 1.85 42.85 2.75 42.05 2.75 41.65 2.15 41.65 0.95 41.95 0.95 42.35 1.5" fill="#a90101" fill-rule="evenodd" stroke="none"/>
      <path d="M-12.75 -3.8 Q-19.3 8.25 -16.8 17.05 L-24.0 16.85 -33.9 16.2 Q-41.0 15.45 -42.4 14.45 L-45.0 12.05 -40.85 7.85 Q-32.45 0.55 -20.85 -1.65 -17.9 -2.2 -12.75 -3.8 M-33.9 16.2 Q-39.45 12.55 -40.85 7.85 -39.45 12.55 -33.9 16.2" fill="#753a19" fill-rule="evenodd" stroke="none"/>
      <path d="M38.4 -17.05 Q36.45 -15.55 35.1 -13.65 M34.3 -11.6 Q31.65 -3.4 36.5 6.55 38.55 8.25 40.8 9.25" fill="none" stroke="#1e1e1e" stroke-linecap="round" stroke-linejoin="round" stroke-opacity="0.6627451" stroke-width="3.5"/>
      <path d="M-12.75 -3.8 Q-19.3 8.25 -16.8 17.05 -3.5 17.0 12.3 14.75 L17.1 14.05 Q11.3 4.2 18.3 -9.9 19.55 -12.5 21.3 -15.25 L18.9 -14.95 Q3.35 -12.8 -9.35 -9.4 L-12.75 -3.8 M-40.85 7.85 Q-39.45 12.55 -33.9 16.2 L-24.0 16.85 -16.8 17.05 M35.1 -13.65 L34.3 -11.6 M38.4 -17.05 L21.3 -15.25 M40.8 9.25 Q31.05 11.8 17.1 14.05 M-45.0 12.05 L-45.95 10.65 Q-46.35 8.6 -42.1 4.55 L-41.3 3.6 Q-37.75 0.2 -22.6 -5.3 -16.4 -7.55 -9.35 -9.4 M-33.9 16.2 Q-41.0 15.45 -42.4 14.45 L-45.0 12.05 M-40.85 7.85 Q-41.45 5.8 -41.3 3.6" fill="none" stroke="#000000" stroke-linecap="round" stroke-linejoin="round" stroke-opacity="0.6627451" stroke-width="3.5"/>
      <path d="M40.8 9.25 Q42.85 8.7 44.5 7.75 46.45 6.75 47.25 4.85 48.05 2.95 48.05 2.1 L48.0 -4.8 Q48.0 -10.5 47.35 -11.9 L47.25 -12.1 45.05 -14.75 Q43.6 -16.2 38.4 -17.05 Z" fill="none" stroke="#381212" stroke-linecap="round" stroke-linejoin="round" stroke-opacity="0.6627451" stroke-width="3.5"/>
    </g>
    <linearGradient gradientTransform="matrix(0.0225, -0.0039, 0.0029, 0.0171, 19.35, -0.75)" gradientUnits="userSpaceOnUse" id="gradient0" spreadMethod="pad" x1="-819.2" x2="819.2">
      <stop offset="0.0" stop-color="#753a19"/>
      <stop offset="0.6431372549019608" stop-color="#723919"/>
      <stop offset="1.0" stop-color="#4d4d4d"/>
    </linearGradient>
    <radialGradient cx="0" cy="0" gradientTransform="matrix(0.0179, 0.0, 0.0, 0.0179, 43.65, -4.45)" gradientUnits="userSpaceOnUse" id="gradient1" r="819.2" spreadMethod="pad">
      <stop offset="0.0" stop-color="#8f2323"/>
      <stop offset="0.5098039215686274" stop-color="#503030"/>
      <stop offset="1.0" stop-color="#4d4d4d"/>
    </radialGradient>
    <linearGradient gradientTransform="matrix(0.0032, -1.0E-4, 1.0E-4, 0.0039, 24.85, -13.35)" gradientUnits="userSpaceOnUse" id="gradient2" spreadMethod="pad" x1="-819.2" x2="819.2">
      <stop offset="0.0" stop-color="#8a5832"/>
      <stop offset="0.6431372549019608" stop-color="#8a5832"/>
      <stop offset="1.0" stop-color="#737373"/>
    </linearGradient>
    <linearGradient gradientTransform="matrix(0.0078, -0.002, 0.0042, 0.0169, 24.05, -1.25)" gradientUnits="userSpaceOnUse" id="gradient3" spreadMethod="pad" x1="-819.2" x2="819.2">
      <stop offset="0.0" stop-color="#753a19"/>
      <stop offset="0.6431372549019608" stop-color="#723919"/>
      <stop offset="1.0" stop-color="#4d4d4d"/>
    </linearGradient>
    <g id="sprite1" transform="matrix(1.0, 0.0, 0.0, 1.0, 47.0, 17.05)">
      <use height="34.1" transform="matrix(1.0, 0.0, 0.0, 1.0, -47.0, -17.05)" width="94.05" xlink:href="#shape1"/>
    </g>
    <g id="shape1" transform="matrix(1.0, 0.0, 0.0, 1.0, 47.0, 17.05)">
      <path d="M39.8 9.25 Q30.05 11.8 16.1 14.05 L11.3 14.75 Q-4.5 17.0 -17.8 17.05 L-25.0 16.85 -34.9 16.2 Q-42.0 15.45 -43.4 14.45 L-46.0 12.05 -46.95 10.65 Q-47.35 8.6 -43.1 4.55 L-42.3 3.6 Q-38.75 0.2 -23.6 -5.3 -17.4 -7.55 -10.35 -9.4 2.35 -12.8 17.9 -14.95 L20.3 -15.25 37.4 -17.05 Q35.45 -15.55 34.1 -13.65 L33.3 -11.6 Q30.65 -3.4 35.5 6.55 37.55 8.25 39.8 9.25" fill="url(#gradient4)" fill-rule="evenodd" stroke="none"/>
      <path d="M37.4 -17.05 Q42.6 -16.2 44.05 -14.75 L46.25 -12.1 46.35 -11.9 Q47.0 -10.5 47.0 -4.8 L47.05 2.1 Q47.05 2.95 46.25 4.85 45.45 6.75 43.5 7.75 41.85 8.7 39.8 9.25 37.55 8.25 35.5 6.55 30.65 -3.4 33.3 -11.6 L34.1 -13.65 Q35.45 -15.55 37.4 -17.05" fill="url(#gradient5)" fill-rule="evenodd" stroke="none"/>
    </g>
    <linearGradient gradientTransform="matrix(-0.0079, -0.0291, 0.0201, -0.0055, -0.9, 5.9)" gradientUnits="userSpaceOnUse" id="gradient4" spreadMethod="pad" x1="-819.2" x2="819.2">
      <stop offset="0.0" stop-color="#4d4d4d"/>
      <stop offset="0.0" stop-color="#000000"/>
      <stop offset="1.0" stop-color="#ffffff"/>
    </linearGradient>
    <linearGradient gradientTransform="matrix(0.009, 0.0, 0.0, 0.0161, 39.7, -3.9)" gradientUnits="userSpaceOnUse" id="gradient5" spreadMethod="pad" x1="-819.2" x2="819.2">
      <stop offset="0.0" stop-color="#000000"/>
      <stop offset="1.0" stop-color="#ffffff"/>
    </linearGradient>
  </defs>
</svg>
