<?xml version="1.0" encoding="UTF-8" standalone="no"?>
<svg xmlns:xlink="http://www.w3.org/1999/xlink" height="531.5px" width="460.6px" xmlns="http://www.w3.org/2000/svg">
  <g transform="matrix(1.0, 0.0, 0.0, 1.0, 193.65, 334.05)">
    <use height="124.6" transform="matrix(0.0457, 1.3795, -1.3795, 0.0457, 94.3652, -8.0009)" width="25.35" xlink:href="#sprite0"/>
    <use height="97.55" transform="matrix(1.0, 0.0, 0.0, 1.0, -71.55, -58.8)" width="58.2" xlink:href="#shape2"/>
  </g>
  <defs>
    <g id="sprite0" transform="matrix(1.0, 0.0, 0.0, 1.0, 12.65, 62.3)">
      <use height="124.6" transform="matrix(1.0, 0.0, 0.0, 1.0, -12.65, -62.3)" width="25.35" xlink:href="#shape0"/>
      <use height="123.6" transform="matrix(1.0, 0.0, 0.0, 1.0, -12.1, -61.8)" width="24.3" xlink:href="#sprite1"/>
    </g>
    <g id="shape0" transform="matrix(1.0, 0.0, 0.0, 1.0, 12.65, 62.3)">
      <path d="M2.65 -61.5 Q6.7 -60.7 10.8 -57.3 15.15 -51.95 6.05 15.25 L5.9 16.1 5.9 17.7 5.8 19.45 3.0 19.85 2.95 19.7 Q2.3 17.9 2.3 16.6 2.3 12.8 2.65 4.45 L3.3 -9.5 Q3.4 -12.45 4.0 -17.9 L4.8 -26.25 5.3 -43.15 5.3 -50.95 Q5.2 -53.2 4.55 -55.75 L2.9 -61.0 2.65 -61.5" fill="#0d0d0d" fill-rule="evenodd" stroke="none"/>
      <path d="M2.65 -61.5 L2.9 -61.0 4.55 -55.75 Q5.2 -53.2 5.3 -50.95 L5.3 -43.15 4.8 -26.25 4.0 -17.9 Q3.4 -12.45 3.3 -9.5 L2.65 4.45 Q2.3 12.8 2.3 16.6 2.3 17.9 2.95 19.7 L2.95 19.85 Q-0.5 20.15 -3.9 19.75 L-5.75 19.45 -5.75 17.8 -5.8 16.1 -5.9 15.25 -9.4 -12.45 -9.45 -17.65 -9.45 -32.8 Q-9.35 -40.55 -8.7 -45.25 L-7.7 -51.15 Q-6.95 -54.6 -6.2 -56.0 L-3.0 -61.45 -0.05 -61.8 2.65 -61.5" fill="#1a1a1a" fill-rule="evenodd" stroke="none"/>
      <path d="M3.0 19.85 L5.8 19.45 5.9 17.7 8.5 17.95 Q11.55 19.8 8.5 22.15 L7.65 22.25 3.25 22.6 3.55 21.5 3.0 19.85 M7.65 53.5 L8.7 54.3 Q9.85 55.45 9.85 57.0 L9.85 57.1 Q9.85 58.65 8.7 59.7 L7.8 60.5 Q5.55 61.4 3.25 61.7 L3.3 61.55 3.55 59.1 Q3.55 57.95 3.2 57.05 L2.85 55.7 Q5.5 55.5 7.75 54.4 L7.65 53.5" fill="#626262" fill-rule="evenodd" stroke="none"/>
      <path d="M3.25 61.7 L-0.4 61.75 -2.9 61.5 -2.95 58.75 Q-2.95 57.6 -2.55 55.9 L-2.45 55.55 0.65 55.7 1.3 55.75 2.85 55.7 3.2 57.05 Q3.55 57.95 3.55 59.1 L3.3 61.55 3.25 61.7 M3.0 19.85 L3.55 21.5 3.25 22.6 0.2 22.65 -4.75 22.45 -4.4 21.05 -3.9 19.75 Q-0.5 20.15 2.95 19.85 L3.0 19.85" fill="#888888" fill-rule="evenodd" stroke="none"/>
      <path d="M7.65 22.25 L6.85 31.65 8.25 40.85 6.6 47.2 7.65 53.5 7.75 54.4 Q5.5 55.5 2.85 55.7 L1.3 55.75 Q1.2 52.3 0.8 50.55 0.3 48.55 0.3 45.5 0.3 43.7 0.8 41.75 1.3 39.8 1.3 38.25 1.3 37.15 0.55 33.9 -0.2 30.6 -0.2 29.25 -0.2 26.8 0.2 22.65 L3.25 22.6 7.65 22.25" fill="#262626" fill-rule="evenodd" stroke="none"/>
      <path d="M-6.25 53.5 Q-7.2 38.55 -6.35 22.3 L-4.75 22.45 0.2 22.65 Q-0.2 26.8 -0.2 29.25 -0.2 30.6 0.55 33.9 1.3 37.15 1.3 38.25 1.3 39.8 0.8 41.75 0.3 43.7 0.3 45.5 0.3 48.55 0.8 50.55 1.2 52.3 1.3 55.75 L0.65 55.7 -2.45 55.55 Q-4.8 55.2 -6.25 54.4 L-6.25 53.5" fill="#333333" fill-rule="evenodd" stroke="none"/>
      <path d="M-9.4 -12.45 Q-14.1 -53.2 -10.7 -57.3 -6.8 -60.55 -3.0 -61.45 L-6.2 -56.0 Q-6.95 -54.6 -7.7 -51.15 L-8.7 -45.25 Q-9.35 -40.55 -9.45 -32.8 L-9.45 -17.65 -9.4 -12.45" fill="#bfbfbf" fill-rule="evenodd" stroke="none"/>
      <path d="M-2.9 61.5 Q-5.25 61.0 -7.4 59.7 -8.45 58.65 -8.45 57.1 L-8.45 57.0 Q-8.45 55.45 -7.4 54.3 -6.95 53.75 -6.25 53.5 L-6.25 54.4 Q-4.8 55.2 -2.45 55.55 L-2.55 55.9 Q-2.95 57.6 -2.95 58.75 L-2.9 61.5 M-6.35 22.3 L-7.4 22.15 Q-11.3 20.5 -7.4 17.95 L-5.75 17.8 -5.75 19.45 -3.9 19.75 -4.4 21.05 -4.75 22.45 -6.35 22.3" fill="#c4c4c4" fill-rule="evenodd" stroke="none"/>
      <path d="M5.9 17.7 L5.9 16.1 6.05 15.25 Q15.15 -51.95 10.8 -57.3 6.7 -60.7 2.65 -61.5 L-0.05 -61.8 -3.0 -61.45 Q-6.8 -60.55 -10.7 -57.3 -14.1 -53.2 -9.4 -12.45 L-5.9 15.25 -5.8 16.1 -5.75 17.8 -5.75 19.45 -3.9 19.75 Q-0.5 20.15 2.95 19.85 L3.0 19.85 5.8 19.45 5.9 17.7 8.5 17.95 Q11.55 19.8 8.5 22.15 L7.65 22.25 6.85 31.65 8.25 40.85 6.6 47.2 7.65 53.5 8.7 54.3 Q9.85 55.45 9.85 57.0 L9.85 57.1 Q9.85 58.65 8.7 59.7 L7.8 60.5 Q5.55 61.4 3.25 61.7 L-0.4 61.75 -2.9 61.5 Q-5.25 61.0 -7.4 59.7 -8.45 58.65 -8.45 57.1 L-8.45 57.0 Q-8.45 55.45 -7.4 54.3 -6.95 53.75 -6.25 53.5 -7.2 38.55 -6.35 22.3 L-7.4 22.15 Q-11.3 20.5 -7.4 17.95 L-5.75 17.8 M-4.75 22.45 L0.2 22.65 3.25 22.6 7.65 22.25 M7.65 53.5 L7.75 54.4 Q5.5 55.5 2.85 55.7 L1.3 55.75 0.65 55.7 -2.45 55.55 Q-4.8 55.2 -6.25 54.4 L-6.25 53.5 M-4.75 22.45 L-6.35 22.3" fill="none" stroke="#000000" stroke-linecap="round" stroke-linejoin="round" stroke-opacity="0.6627451" stroke-width="1.0"/>
    </g>
    <g id="sprite1" transform="matrix(1.0, 0.0, 0.0, 1.0, 12.15, 61.8)">
      <use height="123.6" transform="matrix(1.0, 0.0, 0.0, 1.0, -12.15, -61.8)" width="24.3" xlink:href="#shape1"/>
    </g>
    <g id="shape1" transform="matrix(1.0, 0.0, 0.0, 1.0, 12.15, 61.8)">
      <path d="M-5.8 17.8 L-5.85 16.1 -5.95 15.25 Q-15.15 -51.95 -10.75 -57.3 -5.35 -61.8 -0.1 -61.8 L2.6 -61.5 Q6.65 -60.7 10.75 -57.3 15.1 -51.95 6.0 15.25 L5.85 16.1 5.85 17.7 5.75 19.45 2.95 19.85 2.9 19.7 2.9 19.85 Q-0.55 20.15 -3.95 19.75 L-5.8 19.45 -5.8 17.8" fill="url(#gradient0)" fill-rule="evenodd" stroke="none"/>
      <path d="M-5.8 17.8 L-5.8 19.45 -3.95 19.75 Q-0.55 20.15 2.9 19.85 L2.95 19.85 5.75 19.45 5.85 17.7 8.45 17.95 Q11.5 19.8 8.45 22.15 L7.6 22.25 3.2 22.6 0.15 22.65 -4.8 22.45 -6.4 22.3 -7.45 22.15 Q-11.35 20.5 -7.45 17.95 L-5.8 17.8" fill="url(#gradient1)" fill-rule="evenodd" stroke="none"/>
      <path d="M7.6 53.5 L8.65 54.3 Q9.8 55.45 9.8 57.0 L9.8 57.1 Q9.8 58.65 8.65 59.7 L7.75 60.5 Q5.5 61.4 3.2 61.7 L-0.45 61.75 -2.95 61.5 Q-5.3 61.0 -7.45 59.7 -8.5 58.65 -8.5 57.1 L-8.5 57.0 Q-8.5 55.45 -7.45 54.3 L-6.3 53.5 -6.3 54.4 Q-4.85 55.2 -2.5 55.55 L0.6 55.7 1.25 55.75 2.8 55.7 Q5.45 55.5 7.7 54.4 L7.6 53.5" fill="url(#gradient2)" fill-rule="evenodd" stroke="none"/>
      <path d="M7.6 22.25 L6.8 31.65 8.2 40.85 6.55 47.2 7.6 53.5 7.7 54.4 Q5.45 55.5 2.8 55.7 L1.25 55.75 0.6 55.7 -2.5 55.55 Q-4.85 55.2 -6.3 54.4 L-6.3 53.5 Q-7.25 38.55 -6.4 22.3 L-4.8 22.45 0.15 22.65 3.2 22.6 7.6 22.25" fill="url(#gradient3)" fill-rule="evenodd" stroke="none"/>
    </g>
    <linearGradient gradientTransform="matrix(0.0, -0.0419, 0.0499, 0.0, 0.0, -20.9)" gradientUnits="userSpaceOnUse" id="gradient0" spreadMethod="pad" x1="-819.2" x2="819.2">
      <stop offset="0.0" stop-color="#000000"/>
      <stop offset="1.0" stop-color="#ffffff"/>
    </linearGradient>
    <linearGradient gradientTransform="matrix(-0.0118, 0.0, 0.0, -0.003, 0.25, 20.15)" gradientUnits="userSpaceOnUse" id="gradient1" spreadMethod="pad" x1="-819.2" x2="819.2">
      <stop offset="0.0" stop-color="#000000"/>
      <stop offset="1.0" stop-color="#ffffff"/>
    </linearGradient>
    <linearGradient gradientTransform="matrix(-0.0112, 0.0, 0.0, -0.0051, 0.65, 57.65)" gradientUnits="userSpaceOnUse" id="gradient2" spreadMethod="pad" x1="-819.2" x2="819.2">
      <stop offset="0.0" stop-color="#000000"/>
      <stop offset="1.0" stop-color="#ffffff"/>
    </linearGradient>
    <linearGradient gradientTransform="matrix(-0.0092, 0.0, 0.0, -0.0204, -3.5, 39.25)" gradientUnits="userSpaceOnUse" id="gradient3" spreadMethod="pad" x1="-819.2" x2="819.2">
      <stop offset="0.0" stop-color="#000000"/>
      <stop offset="1.0" stop-color="#ffffff"/>
    </linearGradient>
    <g id="shape2" transform="matrix(1.0, 0.0, 0.0, 1.0, 71.55, 58.8)">
      <path d="M-59.45 31.35 L-60.95 29.95 -61.15 29.7 Q-62.8 27.45 -63.8 24.6 -64.9 21.5 -66.45 14.25 L-68.95 1.45 Q-69.95 -4.1 -69.7 -8.35 L-69.25 -15.0 Q-69.05 -17.4 -68.35 -19.75 -66.8 -25.55 -64.55 -31.75 -62.35 -38.05 -58.45 -46.85 L-55.4 -53.65 -54.0 -56.85 Q-53.5 -58.1 -53.8 -57.6 L-53.8 -57.65 -53.8 -58.1 -53.6 -58.1 -52.5 -58.15 -52.55 -58.05 -54.1 -54.05 -56.2 -48.9 Q-59.8 -39.7 -61.85 -33.1 -63.95 -26.6 -65.4 -20.55 -66.1 -18.1 -66.25 -15.55 L-66.8 -8.6 Q-67.05 -4.15 -66.2 1.65 L-64.1 15.0 Q-62.8 22.6 -61.9 25.85 L-60.6 29.3 -59.45 31.35 M-24.35 24.55 L-24.55 24.55 -24.55 24.85 Q-24.4 25.55 -25.25 28.75 -26.15 31.95 -26.9 32.9 L-27.65 33.8 Q-27.3 31.75 -27.3 29.25 L-27.4 26.1 -27.3 26.35 -26.5 25.5 -26.05 24.7 -24.7 24.7 -24.7 24.65 -24.55 24.45 -24.5 24.5 -24.35 24.55 M-41.75 33.55 L-41.6 34.15 -41.55 34.2 -41.65 34.25 Q-41.95 34.35 -42.2 34.55 L-42.05 33.85 -42.05 33.8 -42.0 33.75 -41.8 33.55 -41.75 33.55 M-16.5 -43.95 L-14.5 -41.35 -20.6 -27.55 Q-22.75 -22.55 -23.9 -18.9 L-24.5 -16.4 Q-25.25 -13.15 -25.25 -11.85 L-24.75 -8.0 Q-24.3 -5.55 -23.6 -4.15 L-23.4 -3.6 -25.15 -3.65 -25.35 -4.2 Q-26.0 -5.7 -26.35 -8.25 L-26.75 -12.3 Q-26.75 -13.65 -26.0 -17.05 L-25.45 -19.65 -22.4 -28.7 -16.5 -43.95 M-20.15 5.25 L-20.5 5.1 -20.05 5.0 -20.05 4.95 -19.55 4.65 -19.35 4.35 -19.3 4.0 -19.7 2.35 -19.75 2.05 -20.55 -0.7 -20.55 -0.9 -21.25 -2.8 -21.95 -3.55 -20.2 -3.6 Q-19.5 -3.6 -19.0 -2.8 L-18.2 -0.95 -18.15 -0.8 -17.3 1.85 -17.15 2.15 -16.75 3.7 -17.0 4.35 -17.6 4.6 -17.6 4.65 -18.25 4.75 -20.15 5.25 M-25.35 8.9 L-25.45 9.25 -26.3 14.9 -26.3 15.8 -26.3 16.55 -26.3 19.05 -26.25 19.45 -26.4 20.3 -26.35 20.25 -26.95 22.65 -27.6 24.9 -27.45 25.8 -27.75 25.8 Q-28.3 25.8 -28.4 24.0 L-28.4 21.2 -28.2 17.25 -27.7 12.4 Q-27.5 10.85 -25.9 9.35 L-25.35 8.9" fill="#bdbdbd" fill-rule="evenodd" stroke="none"/>
      <path d="M-53.8 -58.1 L-53.8 -57.65 -53.8 -57.6 Q-53.5 -58.1 -54.0 -56.85 L-55.4 -53.65 -58.45 -46.85 Q-62.35 -38.05 -64.55 -31.75 -66.8 -25.55 -68.35 -19.75 -69.05 -17.4 -69.25 -15.0 L-69.7 -8.35 Q-69.95 -4.1 -68.95 1.45 L-66.45 14.25 Q-64.9 21.5 -63.8 24.6 -62.8 27.45 -61.15 29.7 L-60.95 29.95 -59.45 31.35 Q-57.85 32.3 -55.35 32.65 L-55.05 32.7 -55.55 31.95 Q-56.45 30.5 -56.45 29.5 L-56.1 28.7 Q-55.85 28.35 -53.05 32.4 -50.3 36.45 -47.45 36.4 -44.65 36.3 -43.0 35.05 L-42.2 34.55 Q-41.95 34.35 -41.65 34.25 L-41.55 34.2 -41.6 34.15 -41.75 33.55 -41.8 33.25 -41.65 32.2 -41.35 31.95 -38.85 34.3 Q-36.65 35.7 -34.85 36.15 L-34.8 36.15 -33.3 36.4 -32.8 36.4 Q-31.0 36.35 -29.95 35.8 L-28.5 34.75 -27.65 33.8 -26.9 32.9 Q-26.15 31.95 -25.25 28.75 -24.4 25.55 -24.55 24.85 L-24.55 24.55 -24.35 24.55 -24.05 24.5 -23.6 24.4 -22.9 24.35 -22.85 25.5 Q-23.05 27.4 -23.95 30.25 L-24.95 32.45 -26.0 34.5 -27.5 36.55 -28.05 37.2 Q-30.45 38.65 -32.6 38.75 L-32.65 38.75 -32.85 38.75 Q-36.65 38.7 -39.5 36.5 L-39.85 36.2 -41.45 37.05 Q-44.4 38.55 -46.1 38.55 L-46.4 38.55 -49.4 37.85 Q-51.65 36.9 -53.65 34.55 L-53.65 34.5 -53.85 34.6 -54.3 34.7 -55.35 34.75 Q-62.75 34.75 -65.85 24.25 L-67.3 18.95 -68.55 13.3 -70.25 2.8 Q-71.55 -4.65 -71.55 -8.3 -71.55 -12.0 -70.2 -17.8 -68.85 -23.65 -61.35 -43.35 -54.5 -61.5 -53.85 -58.3 L-53.8 -58.1 M-14.5 -41.35 L-14.35 -41.75 -13.8 -41.4 -13.65 -41.25 Q-13.35 -40.85 -13.35 -40.0 L-18.6 -28.9 Q-23.85 -16.8 -23.85 -10.9 L-23.35 -7.0 -22.9 -5.2 -22.8 -4.95 -20.5 -5.25 -18.15 -4.95 -17.35 -3.55 Q-16.0 -0.9 -15.45 2.1 L-15.3 2.75 Q-14.95 4.45 -14.95 5.05 -14.95 5.95 -15.55 6.2 L-17.45 6.65 -17.9 6.7 Q-19.65 6.95 -21.4 7.9 -23.2 8.8 -23.65 10.55 -24.2 12.25 -24.4 14.85 L-24.5 16.25 -24.55 16.55 -24.85 18.4 -25.0 20.05 Q-25.3 22.8 -25.95 24.45 L-26.05 24.65 -26.05 24.7 -26.5 25.5 -27.3 26.35 -27.4 26.1 -27.45 25.8 -27.6 24.9 -26.95 22.65 -26.35 20.25 -26.4 20.3 -26.25 19.45 -26.3 19.05 -26.3 16.55 -26.3 15.8 -26.3 14.9 -25.45 9.25 -25.35 8.9 Q-25.15 8.3 -24.45 7.65 L-23.35 6.8 -22.8 6.45 Q-21.5 5.7 -20.15 5.25 L-18.25 4.75 -17.6 4.65 -17.6 4.6 -17.0 4.35 -16.75 3.7 -17.15 2.15 -17.3 1.85 -18.15 -0.8 -18.2 -0.95 -19.0 -2.8 Q-19.5 -3.6 -20.2 -3.6 L-21.95 -3.55 -23.4 -3.6 -23.6 -4.15 Q-24.3 -5.55 -24.75 -8.0 L-25.25 -11.85 Q-25.25 -13.15 -24.5 -16.4 L-23.9 -18.9 Q-22.75 -22.55 -20.6 -27.55 L-14.5 -41.35" fill="#000000" fill-rule="evenodd" stroke="none"/>
      <path d="M-59.45 31.35 L-60.6 29.3 -61.9 25.85 Q-62.8 22.6 -64.1 15.0 L-66.2 1.65 Q-67.05 -4.15 -66.8 -8.6 L-66.25 -15.55 Q-66.1 -18.1 -65.4 -20.55 -63.95 -26.6 -61.85 -33.1 -59.8 -39.7 -56.2 -48.9 L-54.1 -54.05 -52.55 -58.05 -52.5 -58.15 Q-28.4 -58.45 -16.5 -43.95 L-22.4 -28.7 -25.45 -19.65 -26.0 -17.05 Q-26.75 -13.65 -26.75 -12.3 L-26.35 -8.25 Q-26.0 -5.7 -25.35 -4.2 L-25.15 -3.65 -23.4 -3.6 -21.95 -3.55 -21.25 -2.8 -20.55 -0.9 -20.55 -0.7 -19.75 2.05 -19.7 2.35 -19.3 4.0 -19.35 4.35 -19.55 4.65 -20.05 4.95 -20.05 5.0 -20.5 5.1 -20.15 5.25 Q-21.5 5.7 -22.8 6.45 L-23.35 6.8 -24.45 7.65 Q-25.15 8.3 -25.35 8.9 L-25.9 9.35 Q-27.5 10.85 -27.7 12.4 L-28.2 17.25 -28.4 21.2 -28.4 24.0 Q-28.3 25.8 -27.75 25.8 L-27.45 25.8 -27.4 26.1 -27.3 29.25 Q-27.3 31.75 -27.65 33.8 L-28.5 34.75 -29.95 35.8 Q-31.0 36.35 -32.8 36.4 L-33.3 36.4 -34.8 36.15 -34.85 36.15 Q-36.65 35.7 -38.85 34.3 L-41.35 31.95 -41.65 32.2 -41.8 33.25 -41.75 33.55 -41.8 33.55 -42.0 33.75 -42.05 33.8 -42.05 33.85 -42.2 34.55 -43.0 35.05 Q-44.65 36.3 -47.45 36.4 -50.3 36.45 -53.05 32.4 -55.85 28.35 -56.1 28.7 L-56.45 29.5 Q-56.45 30.5 -55.55 31.95 L-55.05 32.7 -55.35 32.65 Q-57.85 32.3 -59.45 31.35" fill="#999999" fill-rule="evenodd" stroke="none"/>
    </g>
  </defs>
</svg>
