<?xml version="1.0" encoding="UTF-8" standalone="no"?>
<svg xmlns:xlink="http://www.w3.org/1999/xlink" height="531.5px" width="460.6px" xmlns="http://www.w3.org/2000/svg">
  <g transform="matrix(1.0, 0.0, 0.0, 1.0, 193.65, 334.05)">
    <use height="66.8" transform="matrix(0.43, 0.0, 0.0, 0.43, 34.416, -154.9618)" width="138.35" xlink:href="#sprite0"/>
  </g>
  <defs>
    <g id="sprite0" transform="matrix(1.0, 0.0, 0.0, 1.0, 69.15, 33.4)">
      <use height="66.8" transform="matrix(1.0, 0.0, 0.0, 1.0, -69.15, -33.4)" width="138.35" xlink:href="#shape0"/>
      <use height="63.3" transform="matrix(1.0, 0.0, 0.0, 1.0, -67.3, -31.65)" width="134.75" xlink:href="#sprite1"/>
    </g>
    <g id="shape0" transform="matrix(1.0, 0.0, 0.0, 1.0, 69.15, 33.4)">
      <path d="M13.0 -28.65 Q17.5 -31.8 23.25 -31.65 L34.85 -31.15 Q40.6 -31.15 46.35 -31.3 L47.45 -31.35 Q47.3 -30.6 46.4 -29.8 45.4 -28.9 42.65 -27.35 38.2 -24.85 36.4 -24.25 34.15 -23.55 30.05 -23.55 L20.85 -24.15 Q13.85 -25.35 13.0 -28.65" fill="#f1ebd1" fill-rule="evenodd" stroke="none"/>
      <path d="M47.45 -31.35 Q52.6 -31.7 57.65 -31.3 63.65 -30.5 66.25 -25.35 64.05 -24.5 62.25 -23.1 L59.0 -20.35 Q57.2 -18.9 55.45 -18.55 L42.95 -17.7 29.25 -17.35 Q22.45 -17.35 17.1 -19.85 12.45 -22.0 8.85 -22.3 9.05 -25.8 12.45 -28.3 L13.0 -28.65 Q13.85 -25.35 20.85 -24.15 L30.05 -23.55 Q34.15 -23.55 36.4 -24.25 38.2 -24.85 42.65 -27.35 45.4 -28.9 46.4 -29.8 47.3 -30.6 47.45 -31.35" fill="#e6dca7" fill-rule="evenodd" stroke="none"/>
      <path d="M66.25 -25.35 L66.4 -25.05 Q69.3 -18.95 64.2 -14.7 L63.75 -14.25 51.4 -13.2 40.4 -12.7 29.25 -13.05 17.85 -13.7 12.8 -14.25 11.25 -15.85 10.45 -16.7 10.45 -16.75 10.4 -16.8 9.95 -17.6 9.25 -18.75 9.35 -18.8 Q8.75 -20.65 8.85 -22.3 12.45 -22.0 17.1 -19.85 22.45 -17.35 29.25 -17.35 L42.95 -17.7 55.45 -18.55 Q57.2 -18.9 59.0 -20.35 L62.25 -23.1 Q64.05 -24.5 66.25 -25.35 M9.35 -18.8 L9.95 -17.6 9.35 -18.8" fill="#d9c67b" fill-rule="evenodd" stroke="none"/>
      <path d="M64.2 -14.7 L64.25 -14.25 Q65.45 -1.4 62.25 8.95 59.0 19.3 52.1 24.0 45.1 28.7 37.9 30.15 30.6 31.65 18.35 31.65 L6.75 28.85 Q-2.4 26.15 -13.25 16.3 L-13.6 15.25 Q-15.6 9.1 -13.15 7.05 L-12.35 8.4 -12.0 8.95 -11.15 10.1 -8.1 12.85 0.25 18.8 Q5.75 22.45 11.75 24.4 17.7 26.35 23.75 25.4 29.75 24.5 36.5 22.25 43.25 20.0 47.6 14.9 52.1 9.55 53.05 2.75 53.4 0.55 52.95 -2.0 49.15 -5.55 44.05 -5.7 37.55 -5.15 31.4 -3.4 25.0 -1.75 18.5 -3.2 L15.15 -3.75 13.0 -5.1 12.6 -5.85 Q12.25 -10.0 12.8 -14.25 L17.85 -13.7 29.25 -13.05 40.4 -12.7 51.4 -13.2 63.75 -14.25 64.2 -14.7" fill="#64401c" fill-rule="evenodd" stroke="none"/>
      <path d="M-6.45 6.2 Q6.35 15.1 15.65 6.6 L15.55 6.5 Q13.2 0.7 12.65 -5.3 L12.6 -5.85 13.0 -5.1 15.15 -3.75 18.5 -3.2 Q25.0 -1.75 31.4 -3.4 37.55 -5.15 44.05 -5.7 49.15 -5.55 52.95 -2.0 53.4 0.55 53.05 2.75 52.1 9.55 47.6 14.9 43.25 20.0 36.5 22.25 29.75 24.5 23.75 25.4 17.7 26.35 11.75 24.4 5.75 22.45 0.25 18.8 L-8.1 12.85 -11.15 10.1 -12.0 8.95 -12.35 8.4 -13.15 7.05 Q-11.8 5.85 -9.05 5.9 L-6.45 6.2" fill="#935e28" fill-rule="evenodd" stroke="none"/>
      <path d="M-67.15 -7.3 Q-66.65 -9.0 -65.45 -10.15 L-64.4 -10.85 Q-62.3 -11.25 -60.9 -9.75 L-60.1 -8.8 -61.65 -7.7 -60.4 -6.95 -56.95 -5.45 -57.25 -4.75 -57.55 -4.35 -57.6 -4.35 Q-58.55 -3.75 -59.8 -3.75 -62.55 -3.75 -65.3 -5.65 L-67.15 -7.3" fill="#492f14" fill-rule="evenodd" stroke="none"/>
      <path d="M-53.75 -4.2 Q-52.1 -3.55 -53.05 -2.3 -54.05 -1.05 -54.85 -0.55 -55.7 -0.1 -57.25 0.15 L-60.3 0.3 Q-62.2 0.2 -63.75 -0.65 L-63.8 -0.7 -65.0 -1.6 Q-66.1 -2.6 -66.9 -4.15 -67.7 -5.65 -67.2 -7.25 L-67.15 -7.3 -65.3 -5.65 Q-62.55 -3.75 -59.8 -3.75 -58.55 -3.75 -57.6 -4.35 L-57.55 -4.35 -57.25 -4.75 -56.95 -5.45 -54.9 -4.6 -54.85 -4.65 -54.8 -4.55 -53.85 -4.2 -53.75 -4.2" fill="#1b1107" fill-rule="evenodd" stroke="none"/>
      <path d="M-13.25 16.3 L-14.15 15.45 -18.0 10.5 Q-30.85 -14.0 -53.75 -4.2 L-53.85 -4.2 -54.8 -4.55 -53.75 -4.2 -54.8 -4.55 -54.85 -4.65 -54.9 -4.6 -56.95 -5.45 -60.4 -6.95 -61.65 -7.7 -60.1 -8.8 Q-50.3 -14.2 -42.0 -15.45 L-41.8 -15.45 -42.75 -14.7 -43.95 -13.45 -44.3 -12.65 -43.25 -12.65 Q-39.75 -12.7 -36.45 -11.85 L-34.6 -11.2 -32.0 -10.35 -29.65 -9.95 Q-29.0 -10.9 -29.1 -11.8 -29.25 -12.7 -30.4 -13.85 L-33.6 -15.05 -36.9 -15.8 Q-22.85 -15.6 -13.75 -2.05 L-8.9 4.3 -6.45 6.2 -9.05 5.9 Q-11.8 5.85 -13.15 7.05 -15.6 9.1 -13.6 15.25 L-13.25 16.3 M-23.95 -8.65 Q-25.0 -8.9 -25.7 -8.0 -26.05 -7.3 -25.85 -6.55 -25.7 -5.95 -25.15 -5.45 L-23.3 -3.25 Q-22.1 -1.8 -20.5 -1.25 L-19.45 -1.25 -19.1 -1.5 -18.8 -1.6 -18.4 -2.55 Q-18.6 -4.4 -19.6 -5.85 -21.2 -8.15 -23.95 -8.65" fill="#000000" fill-rule="evenodd" stroke="none"/>
      <path d="M-41.8 -15.45 L-39.75 -15.75 -38.75 -15.75 -37.65 -15.8 -36.9 -15.8 -33.6 -15.05 -30.4 -13.85 Q-29.25 -12.7 -29.1 -11.8 -29.0 -10.9 -29.65 -9.95 L-32.0 -10.35 -34.6 -11.2 -36.45 -11.85 Q-39.75 -12.7 -43.25 -12.65 L-44.3 -12.65 -43.95 -13.45 -42.75 -14.7 -41.8 -15.45 M-23.95 -8.65 Q-21.2 -8.15 -19.6 -5.85 -18.6 -4.4 -18.4 -2.55 L-18.8 -1.6 -19.1 -1.5 -19.45 -1.25 -20.5 -1.25 Q-22.1 -1.8 -23.3 -3.25 L-25.15 -5.45 Q-25.7 -5.95 -25.85 -6.55 -26.05 -7.3 -25.7 -8.0 -25.0 -8.9 -23.95 -8.65" fill="#e6e6e6" fill-rule="evenodd" stroke="none"/>
      <path d="M13.0 -28.65 Q17.5 -31.8 23.25 -31.65 L34.85 -31.15 Q40.6 -31.15 46.35 -31.3 L47.45 -31.35 Q52.6 -31.7 57.65 -31.3 63.65 -30.5 66.25 -25.35 L66.4 -25.05 Q69.3 -18.95 64.2 -14.7 L64.25 -14.25 Q65.45 -1.4 62.25 8.95 59.0 19.3 52.1 24.0 45.1 28.7 37.9 30.15 30.6 31.65 18.35 31.65 L6.75 28.85 Q-2.4 26.15 -13.25 16.3 L-14.15 15.45 -18.0 10.5 Q-30.85 -14.0 -53.75 -4.2 -52.1 -3.55 -53.05 -2.3 -54.05 -1.05 -54.85 -0.55 -55.7 -0.1 -57.25 0.15 L-60.3 0.3 Q-62.2 0.2 -63.75 -0.65 L-63.8 -0.7 -65.0 -1.6 Q-66.1 -2.6 -66.9 -4.15 -67.7 -5.65 -67.2 -7.25 L-67.15 -7.3 Q-66.65 -9.0 -65.45 -10.15 L-64.4 -10.85 Q-62.3 -11.25 -60.9 -9.75 L-60.1 -8.8 Q-50.3 -14.2 -42.0 -15.45 L-41.8 -15.45 -39.75 -15.75 -38.75 -15.75 -37.65 -15.8 -36.9 -15.8 Q-22.85 -15.6 -13.75 -2.05 L-8.9 4.3 -6.45 6.2 Q6.35 15.1 15.65 6.6 L15.55 6.5 Q13.2 0.7 12.65 -5.3 L12.6 -5.85 Q12.25 -10.0 12.8 -14.25 L11.25 -15.85 M10.4 -16.8 L9.95 -17.6 9.35 -18.8 Q8.75 -20.65 8.85 -22.3 9.05 -25.8 12.45 -28.3 L13.0 -28.65 M12.8 -14.25 L17.85 -13.7 29.25 -13.05 40.4 -12.7 51.4 -13.2 63.75 -14.25 64.2 -14.7 M-13.15 7.05 Q-15.6 9.1 -13.6 15.25 L-13.25 16.3 M-56.95 -5.45 L-60.4 -6.95 M-54.8 -4.55 L-53.85 -4.2 -53.75 -4.2 -54.8 -4.55 -54.85 -4.65 M-54.9 -4.6 L-56.95 -5.45 M-13.15 7.05 Q-11.8 5.85 -9.05 5.9 L-6.45 6.2" fill="none" stroke="#000000" stroke-linecap="round" stroke-linejoin="round" stroke-opacity="0.6627451" stroke-width="3.5"/>
      <path d="M18.35 -27.85 Q40.0 -24.05 59.65 -27.35" fill="none" stroke="#000000" stroke-linecap="round" stroke-linejoin="round" stroke-opacity="0.6627451" stroke-width="2.25"/>
    </g>
    <g id="sprite1" transform="matrix(1.0, 0.0, 0.0, 1.0, 5.15, 2.25)">
      <use height="63.3" transform="matrix(1.0, 0.0, 0.0, 1.0, -5.15, -2.25)" width="134.75" xlink:href="#shape1"/>
    </g>
    <g id="shape1" transform="matrix(1.0, 0.0, 0.0, 1.0, 5.15, 2.25)">
      <path d="M48.9 45.7 L48.0 44.85 44.15 39.9 Q31.35 15.4 8.45 25.2 L8.4 25.2 7.45 24.85 7.4 24.75 7.35 24.8 1.85 22.45 0.6 21.7 2.15 20.6 2.1 20.55 Q11.9 15.2 20.15 13.95 L20.35 13.95 22.4 13.65 23.4 13.65 24.5 13.6 25.25 13.6 Q39.3 13.8 48.4 27.35 L53.25 33.7 Q54.5 34.75 55.7 35.6 L53.1 35.3 Q50.35 35.25 49.0 36.45 46.55 38.5 48.55 44.65 L48.9 45.7" fill="url(#gradient0)" fill-rule="evenodd" stroke="none"/>
      <path d="M126.0 15.1 L126.2 15.05 126.35 14.9 126.4 15.15 Q127.6 28.0 124.4 38.35 121.15 48.7 114.25 53.4 107.25 58.1 100.05 59.55 92.75 61.05 80.5 61.05 L68.9 58.25 Q59.75 55.55 48.9 45.7 L48.55 44.65 Q46.55 38.5 49.0 36.45 50.35 35.25 53.1 35.3 L55.7 35.6 Q68.5 44.5 77.8 36.0 L77.7 35.9 Q75.35 30.1 74.8 24.1 L74.75 23.55 Q74.4 19.4 74.95 15.15 L80.0 15.7 91.4 16.35 102.55 16.7 113.55 16.2 117.1 16.05 124.65 15.35 125.7 15.2 125.75 15.2 125.8 15.2 125.9 15.15 126.0 15.1" fill="url(#gradient1)" fill-rule="evenodd" stroke="none"/>
      <path d="M74.95 15.15 L72.6 12.7 72.6 12.65 72.55 12.6 72.1 11.8 71.5 10.6 Q69.6 4.8 74.6 1.1 79.3 -2.4 85.4 -2.25 L97.0 -1.75 Q102.75 -1.75 108.5 -1.9 114.2 -2.35 119.8 -1.9 126.0 -1.05 128.55 4.35 131.45 10.45 126.35 14.7 L126.0 15.1 125.9 15.15 125.8 15.2 125.75 15.2 125.7 15.2 124.65 15.35 117.1 16.05 113.55 16.2 102.55 16.7 91.4 16.35 80.0 15.7 74.95 15.15" fill="url(#gradient2)" fill-rule="evenodd" stroke="none"/>
      <path d="M8.45 25.2 L8.5 25.2 Q10.15 25.85 9.2 27.1 L7.4 28.85 Q6.55 29.3 5.0 29.55 L1.95 29.7 Q0.05 29.6 -1.5 28.75 L-1.55 28.7 -2.75 27.8 Q-3.85 26.8 -4.65 25.25 -5.45 23.75 -4.95 22.15 L-4.9 22.1 Q-4.4 20.4 -3.2 19.25 L-2.15 18.55 Q-0.05 18.15 1.35 19.65 L2.1 20.55 2.15 20.6 0.6 21.7 1.85 22.45 7.35 24.8 7.4 24.75 7.45 24.85 8.4 25.2 8.45 25.2" fill="url(#gradient3)" fill-rule="evenodd" stroke="none"/>
    </g>
    <linearGradient gradientTransform="matrix(0.004, -0.011, 0.0184, 0.0066, 28.65, 24.25)" gradientUnits="userSpaceOnUse" id="gradient0" spreadMethod="pad" x1="-819.2" x2="819.2">
      <stop offset="0.0" stop-color="#000000"/>
      <stop offset="1.0" stop-color="#ffffff"/>
    </linearGradient>
    <linearGradient gradientTransform="matrix(-0.0607, -0.0301, 0.0125, -0.0252, 93.55, 45.95)" gradientUnits="userSpaceOnUse" id="gradient1" spreadMethod="pad" x1="-819.2" x2="819.2">
      <stop offset="0.0" stop-color="#000000"/>
      <stop offset="1.0" stop-color="#ffffff"/>
    </linearGradient>
    <linearGradient gradientTransform="matrix(-0.0041, -0.0166, 0.0112, -0.0027, 101.4, 9.15)" gradientUnits="userSpaceOnUse" id="gradient2" spreadMethod="pad" x1="-819.2" x2="819.2">
      <stop offset="0.0" stop-color="#000000"/>
      <stop offset="1.0" stop-color="#ffffff"/>
    </linearGradient>
    <linearGradient gradientTransform="matrix(-0.0038, -0.0081, 0.0062, -0.0029, 2.15, 24.1)" gradientUnits="userSpaceOnUse" id="gradient3" spreadMethod="pad" x1="-819.2" x2="819.2">
      <stop offset="0.0" stop-color="#000000"/>
      <stop offset="1.0" stop-color="#ffffff"/>
    </linearGradient>
  </defs>
</svg>
