<?xml version="1.0" encoding="UTF-8" standalone="no"?>
<svg xmlns:xlink="http://www.w3.org/1999/xlink" height="531.5px" width="460.6px" xmlns="http://www.w3.org/2000/svg">
  <g transform="matrix(1.0, 0.0, 0.0, 1.0, 193.65, 334.05)">
    <use height="82.6" transform="matrix(0.4634, 0.0, 0.0, 0.4634, -70.2964, -25.3401)" width="291.55" xlink:href="#sprite0"/>
  </g>
  <defs>
    <g id="sprite0" transform="matrix(1.0, 0.0, 0.0, 1.0, 145.75, 41.3)">
      <use height="82.6" transform="matrix(1.0, 0.0, 0.0, 1.0, -145.75, -41.3)" width="291.55" xlink:href="#shape0"/>
      <use height="79.1" transform="matrix(1.0, 0.0, 0.0, 1.0, -144.0, -39.55)" width="288.05" xlink:href="#sprite1"/>
    </g>
    <g id="shape0" transform="matrix(1.0, 0.0, 0.0, 1.0, 145.75, 41.3)">
      <path d="M42.95 -7.3 L56.25 -6.95 66.35 -8.4 83.8 -11.65 84.65 -10.65 Q87.9 -6.7 91.8 -2.95 87.9 -6.7 84.65 -10.65 L83.8 -11.65 Q96.6 -14.35 109.25 -18.0 L109.5 -15.85 113.25 -17.0 121.3 -17.7 Q126.65 -17.55 131.2 -15.35 L130.55 -13.0 129.35 -9.7 129.3 -9.6 127.65 -7.45 Q124.75 -4.4 120.65 -3.7 L117.95 -3.5 120.65 -3.7 Q124.75 -4.4 127.65 -7.45 L129.3 -9.6 129.35 -9.7 130.55 -13.0 131.2 -15.35 Q136.75 -12.75 141.05 -7.15 L138.9 -3.65 138.15 -2.8 Q139.45 1.55 139.75 3.9 140.65 11.75 140.35 19.55 135.4 11.15 124.6 7.75 L122.45 7.1 121.5 0.4 Q119.5 -1.1 117.95 -3.5 L115.65 -3.65 117.1 -4.9 118.9 -7.2 119.05 -7.5 119.35 -8.25 119.5 -8.7 119.9 -9.9 Q121.25 -14.1 121.3 -17.7 121.25 -14.1 119.9 -9.9 L119.5 -8.7 119.35 -8.25 119.05 -7.5 118.9 -7.2 117.1 -4.9 115.65 -3.65 Q109.0 1.45 97.1 -3.6 L98.55 -3.95 91.8 -2.95 Q70.6 0.05 49.2 1.3 46.25 -2.0 44.0 -5.6 L42.95 -7.3 44.0 -5.6 Q46.25 -2.0 49.2 1.3 27.15 2.6 4.9 2.0 2.7 -0.8 1.05 -3.65 L-1.1 -7.8 1.05 -3.65 Q2.7 -0.8 4.9 2.0 L-22.75 0.6 -30.5 -0.05 -62.05 -2.9 Q-81.7 -4.9 -95.5 -7.0 -111.9 -9.5 -120.05 -12.15 L-124.45 -13.7 Q-142.05 -20.05 -142.5 -23.0 -145.0 -28.85 -143.3 -33.5 -137.2 -30.55 -130.95 -27.85 -116.9 -21.9 -102.25 -17.5 -100.55 -11.7 -95.5 -7.0 -100.55 -11.7 -102.25 -17.5 L-80.3 -11.95 -78.1 -11.5 -69.0 -11.4 -62.4 -10.65 -35.6 -8.95 -1.1 -7.8 42.95 -7.3 M130.75 -25.6 Q128.95 -29.6 127.85 -30.95 L126.1 -32.95 Q127.4 -33.8 132.15 -35.5 136.85 -37.2 137.15 -29.5 130.9 -30.2 130.75 -25.6 M98.55 -3.95 Q106.85 -6.1 108.75 -9.6 109.6 -12.95 109.5 -15.85 109.6 -12.95 108.75 -9.6 106.85 -6.1 98.55 -3.95 M138.15 -2.8 L138.1 -2.9 138.1 -2.85 Q133.95 1.1 126.2 1.75 L126.7 1.9 125.5 1.8 Q123.45 1.55 121.5 0.4 123.45 1.55 125.5 1.8 L126.7 1.9 126.2 1.75 Q133.95 1.1 138.1 -2.85 L138.1 -2.9 138.15 -2.8 M127.75 2.1 L127.7 2.1 126.7 1.9 128.1 2.25 127.75 2.1 M128.1 2.25 Q133.85 4.75 139.75 3.9 133.85 4.75 128.1 2.25 M-124.45 -13.7 Q-130.4 -20.15 -130.95 -27.85 -130.4 -20.15 -124.45 -13.7 M-62.05 -2.9 Q-65.6 -5.85 -67.95 -9.6 L-69.0 -11.4 -67.95 -9.6 Q-65.6 -5.85 -62.05 -2.9 M-30.5 -0.05 Q-32.4 -2.5 -33.8 -5.1 L-35.6 -8.95 -33.8 -5.1 Q-32.4 -2.5 -30.5 -0.05" fill="#6b4f25" fill-rule="evenodd" stroke="none"/>
      <path d="M83.8 -11.65 L66.35 -8.4 56.25 -6.95 42.95 -7.3 Q39.35 -13.5 37.55 -20.6 39.35 -13.5 42.95 -7.3 L-1.1 -7.8 Q-3.9 -14.1 -4.0 -20.4 -3.9 -14.1 -1.1 -7.8 L-35.6 -8.95 -62.4 -10.65 -69.0 -11.4 -78.1 -11.5 -80.3 -11.95 -102.25 -17.5 Q-116.9 -21.9 -130.95 -27.85 -131.3 -32.75 -129.5 -38.15 -131.3 -32.75 -130.95 -27.85 -137.2 -30.55 -143.3 -33.5 -142.25 -36.6 -139.3 -39.2 -137.7 -40.1 -131.35 -38.6 L-129.5 -38.15 Q-115.55 -34.8 -101.8 -32.1 L-72.65 -26.95 Q-55.3 -24.3 -38.3 -22.65 L-4.0 -20.4 Q17.05 -19.7 37.55 -20.6 56.9 -21.45 75.7 -23.8 79.05 -17.5 83.8 -11.65 79.05 -17.5 75.7 -23.8 L98.7 -27.25 96.9 -27.4 Q96.15 -35.25 105.0 -35.7 L108.7 -35.5 Q110.7 -37.85 115.4 -38.1 120.25 -39.2 126.1 -32.95 L127.85 -30.95 Q128.95 -29.6 130.75 -25.6 132.85 -22.25 131.2 -15.35 132.85 -22.25 130.75 -25.6 130.9 -30.2 137.15 -29.5 L141.0 -27.75 Q145.35 -24.05 143.45 -14.9 142.4 -10.2 141.05 -7.15 136.75 -12.75 131.2 -15.35 126.65 -17.55 121.3 -17.7 121.3 -23.9 117.45 -28.55 L115.7 -30.6 Q112.0 -34.5 108.7 -35.5 112.0 -34.5 115.7 -30.6 L117.45 -28.55 Q121.3 -23.9 121.3 -17.7 L113.25 -17.0 109.5 -15.85 109.25 -18.0 Q96.6 -14.35 83.8 -11.65 M109.25 -18.0 Q108.5 -22.25 105.35 -25.25 103.95 -26.7 98.7 -27.25 103.95 -26.7 105.35 -25.25 108.5 -22.25 109.25 -18.0 M140.35 19.55 L140.2 22.6 Q139.55 31.1 137.5 39.55 125.7 38.35 121.7 29.95 122.8 22.4 122.85 15.4 122.85 11.15 122.45 7.1 L124.6 7.75 Q135.4 11.15 140.35 19.55 M122.85 15.4 Q130.75 22.05 140.2 22.6 130.75 22.05 122.85 15.4 M-101.8 -32.1 Q-104.2 -24.1 -102.25 -17.5 -104.2 -24.1 -101.8 -32.1 M-72.65 -26.95 Q-72.5 -18.05 -69.0 -11.4 -72.5 -18.05 -72.65 -26.95 M-38.3 -22.65 Q-38.15 -15.3 -35.6 -8.95 -38.15 -15.3 -38.3 -22.65" fill="#aa7d3c" fill-rule="evenodd" stroke="none"/>
      <path d="M42.95 -7.3 L44.0 -5.6 Q46.25 -2.0 49.2 1.3 70.6 0.05 91.8 -2.95 87.9 -6.7 84.65 -10.65 L83.8 -11.65 Q79.05 -17.5 75.7 -23.8 56.9 -21.45 37.55 -20.6 39.35 -13.5 42.95 -7.3 M-1.1 -7.8 L1.05 -3.65 Q2.7 -0.8 4.9 2.0 27.15 2.6 49.2 1.3 M108.7 -35.5 Q112.0 -34.5 115.7 -30.6 L117.45 -28.55 Q121.3 -23.9 121.3 -17.7 121.25 -14.1 119.9 -9.9 L119.5 -8.7 119.35 -8.25 119.05 -7.5 118.9 -7.2 117.1 -4.9 115.65 -3.65 117.95 -3.5 120.65 -3.7 Q124.75 -4.4 127.65 -7.45 L129.3 -9.6 129.35 -9.7 130.55 -13.0 131.2 -15.35 Q132.85 -22.25 130.75 -25.6 128.95 -29.6 127.85 -30.95 L126.1 -32.95 Q120.25 -39.2 115.4 -38.1 110.7 -37.85 108.7 -35.5 L105.0 -35.7 Q96.15 -35.25 96.9 -27.4 L98.7 -27.25 Q103.95 -26.7 105.35 -25.25 108.5 -22.25 109.25 -18.0 L109.5 -15.85 Q109.6 -12.95 108.75 -9.6 106.85 -6.1 98.55 -3.95 L91.8 -2.95 M141.05 -7.15 Q142.4 -10.2 143.45 -14.9 145.35 -24.05 141.0 -27.75 L137.15 -29.5 Q130.9 -30.2 130.75 -25.6 M115.65 -3.65 Q109.0 1.45 97.1 -3.6 L98.55 -3.95 M126.1 -32.95 Q127.4 -33.8 132.15 -35.5 136.85 -37.2 137.15 -29.5 M138.15 -2.8 Q139.45 1.55 139.75 3.9 140.65 11.75 140.35 19.55 L140.2 22.6 Q139.55 31.1 137.5 39.55 125.7 38.35 121.7 29.95 122.8 22.4 122.85 15.4 122.85 11.15 122.45 7.1 L121.5 0.4 Q119.5 -1.1 117.95 -3.5 M141.05 -7.15 L138.9 -3.65 M121.5 0.4 Q123.45 1.55 125.5 1.8 L126.7 1.9 126.2 1.75 Q133.95 1.1 138.1 -2.85 L138.1 -2.9 138.15 -2.8 M75.7 -23.8 L98.7 -27.25 M127.75 2.1 L127.7 2.1 126.7 1.9 128.1 2.25 127.75 2.1 M139.75 3.9 Q133.85 4.75 128.1 2.25 M140.2 22.6 Q130.75 22.05 122.85 15.4 M4.9 2.0 L-22.75 0.6 -30.5 -0.05 -62.05 -2.9 Q-81.7 -4.9 -95.5 -7.0 -111.9 -9.5 -120.05 -12.15 L-124.45 -13.7 Q-142.05 -20.05 -142.5 -23.0 -145.0 -28.85 -143.3 -33.5 -142.25 -36.6 -139.3 -39.2 -137.7 -40.1 -131.35 -38.6 L-129.5 -38.15 Q-115.55 -34.8 -101.8 -32.1 L-72.65 -26.95 Q-55.3 -24.3 -38.3 -22.65 L-4.0 -20.4 Q17.05 -19.7 37.55 -20.6 M-129.5 -38.15 Q-131.3 -32.75 -130.95 -27.85 -130.4 -20.15 -124.45 -13.7 M-102.25 -17.5 Q-104.2 -24.1 -101.8 -32.1 M-95.5 -7.0 Q-100.55 -11.7 -102.25 -17.5 M-69.0 -11.4 Q-72.5 -18.05 -72.65 -26.95 M-35.6 -8.95 Q-38.15 -15.3 -38.3 -22.65 M-69.0 -11.4 L-67.95 -9.6 Q-65.6 -5.85 -62.05 -2.9 M-4.0 -20.4 Q-3.9 -14.1 -1.1 -7.8 M-35.6 -8.95 L-33.8 -5.1 Q-32.4 -2.5 -30.5 -0.05" fill="none" stroke="#000000" stroke-linecap="round" stroke-linejoin="round" stroke-opacity="0.6627451" stroke-width="3.5"/>
    </g>
    <g id="sprite1" transform="matrix(1.0, 0.0, 0.0, 1.0, 0.0, 0.0)">
      <use height="79.1" transform="matrix(1.0, 0.0, 0.0, 1.0, 0.0, 0.0)" width="288.05" xlink:href="#shape1"/>
    </g>
    <g id="shape1" transform="matrix(1.0, 0.0, 0.0, 1.0, 0.0, 0.0)">
      <path d="M287.45 24.65 Q286.4 29.35 285.05 32.4 L282.9 35.9 282.15 36.75 Q283.45 41.1 283.75 43.45 284.65 51.3 284.35 59.1 L284.2 62.15 Q283.55 70.65 281.5 79.1 269.7 77.9 265.7 69.5 266.8 61.95 266.85 54.95 266.85 50.7 266.45 46.65 L265.5 39.95 Q263.5 38.45 261.95 36.05 L259.65 35.9 Q253.0 41.0 241.1 35.95 L242.55 35.6 235.8 36.6 Q214.6 39.6 193.2 40.85 171.15 42.15 148.9 41.55 L121.25 40.15 113.5 39.5 81.95 36.65 48.5 32.55 Q32.1 30.05 23.95 27.4 L19.55 25.85 Q1.95 19.5 1.5 16.55 -1.0 10.7 0.7 6.05 1.75 2.95 4.7 0.35 6.3 -0.55 12.65 0.95 L14.5 1.4 42.2 7.45 71.35 12.6 Q88.7 15.25 105.7 16.9 L140.0 19.15 Q161.05 19.85 181.55 18.95 200.9 18.1 219.7 15.75 L242.7 12.3 240.9 12.15 Q240.15 4.3 249.0 3.85 L252.7 4.05 Q254.7 1.7 259.4 1.45 264.25 0.35 270.1 6.6 271.4 5.75 276.15 4.05 280.85 2.35 281.15 10.05 L285.0 11.8 Q289.35 15.5 287.45 24.65 M270.7 41.45 L272.1 41.8 271.75 41.65 271.7 41.65 270.7 41.45" fill="url(#gradient0)" fill-rule="evenodd" stroke="none"/>
    </g>
    <linearGradient gradientTransform="matrix(-0.0021, -0.1171, 0.0482, -9.0E-4, 145.9, 51.95)" gradientUnits="userSpaceOnUse" id="gradient0" spreadMethod="pad" x1="-819.2" x2="819.2">
      <stop offset="0.0" stop-color="#000000"/>
      <stop offset="1.0" stop-color="#ffffff"/>
    </linearGradient>
  </defs>
</svg>
