<?xml version="1.0" encoding="UTF-8" standalone="no"?>
<svg xmlns:xlink="http://www.w3.org/1999/xlink" height="531.5px" width="460.6px" xmlns="http://www.w3.org/2000/svg">
  <g transform="matrix(1.0, 0.0, 0.0, 1.0, 193.65, 334.05)">
    <use height="146.95" transform="matrix(1.0, 0.0, 0.0, 1.0, -67.2, -281.7)" width="135.35" xlink:href="#shape0"/>
    <use height="87.6" transform="matrix(0.5818, -0.0822, 0.1124, 0.7959, 17.5914, -241.1594)" width="87.6" xlink:href="#sprite0"/>
    <use height="87.6" transform="matrix(0.5367, -0.0758, 0.0996, 0.7054, 14.6311, -237.0735)" width="87.6" xlink:href="#sprite0"/>
    <use height="87.6" transform="matrix(0.7052, -0.0996, 0.1309, 0.9268, 3.9293, -245.5304)" width="87.6" xlink:href="#sprite0"/>
    <use height="73.0" transform="matrix(0.9221, -0.1302, 0.1302, 0.9221, -73.5484, -214.1848)" width="143.9" xlink:href="#sprite1"/>
    <use height="193.0" transform="matrix(1.0, 0.0, 0.0, 1.0, -52.75, -305.65)" width="82.8" xlink:href="#shape3"/>
  </g>
  <defs>
    <g id="shape0" transform="matrix(1.0, 0.0, 0.0, 1.0, 67.2, 281.7)">
      <path d="M16.0 -145.6 L15.05 -147.3 14.85 -147.65 14.55 -148.2 14.55 -148.55 Q14.55 -150.4 14.8 -152.1 15.45 -157.2 17.95 -160.75 29.1 -161.4 34.25 -159.2 39.35 -156.85 44.1 -152.75 48.9 -148.55 56.95 -147.65 L56.15 -144.8 55.35 -143.05 54.55 -141.65 52.45 -140.45 Q49.55 -138.9 46.95 -138.9 40.95 -138.9 34.75 -142.8 28.6 -146.65 24.7 -146.65 L16.0 -145.6" fill="#333333" fill-rule="evenodd" stroke="none"/>
      <path d="M16.0 -145.6 L24.7 -146.65 Q28.6 -146.65 34.75 -142.8 40.95 -138.9 46.95 -138.9 49.55 -138.9 52.45 -140.45 L54.55 -141.65 Q53.65 -140.3 52.6 -139.5 44.5 -133.5 35.3 -136.0 30.3 -137.3 25.7 -140.45 19.65 -140.2 16.0 -145.6" fill="#1a1a1a" fill-rule="evenodd" stroke="none"/>
      <path d="M54.55 -141.65 L55.35 -143.05 56.15 -144.8 56.95 -147.65 Q48.9 -148.55 44.1 -152.75 39.35 -156.85 34.25 -159.2 29.1 -161.4 17.95 -160.75 15.45 -157.2 14.8 -152.1 14.55 -150.4 14.55 -148.55 L14.55 -148.2 14.85 -147.65 15.05 -147.3 16.0 -145.6 Q19.65 -140.2 25.7 -140.45 30.3 -137.3 35.3 -136.0 44.5 -133.5 52.6 -139.5 53.65 -140.3 54.55 -141.65 Z" fill="none" stroke="#000000" stroke-linecap="round" stroke-linejoin="round" stroke-opacity="0.6627451" stroke-width="1.0"/>
      <path d="M-27.25 -147.65 Q-17.15 -148.55 -11.25 -152.75 -5.25 -156.85 1.1 -159.2 7.6 -161.4 21.65 -160.75 25.45 -156.3 25.85 -149.5 L25.85 -149.4 26.2 -149.5 Q25.85 -148.7 25.85 -148.2 L25.55 -147.65 24.9 -146.65 24.7 -146.65 Q20.5 -146.65 11.05 -144.75 -0.65 -142.3 -7.5 -141.5 -15.75 -141.5 -21.4 -143.9 -24.55 -145.3 -27.25 -147.65" fill="#333333" fill-rule="evenodd" stroke="none"/>
      <path d="M24.9 -146.65 L22.8 -144.25 Q18.4 -140.2 11.85 -140.45 6.15 -137.3 -0.15 -136.0 -11.7 -133.5 -21.9 -139.5 -24.75 -141.15 -26.6 -145.55 L-27.4 -147.65 -27.25 -147.65 Q-24.55 -145.3 -21.4 -143.9 -15.75 -141.5 -7.5 -141.5 -0.65 -142.3 11.05 -144.75 20.5 -146.65 24.7 -146.65 L24.9 -146.65 M5.15 -142.2 Q7.85 -139.95 11.25 -140.35 L11.85 -140.45 11.25 -140.35 Q7.85 -139.95 5.15 -142.2" fill="#1a1a1a" fill-rule="evenodd" stroke="none"/>
      <path d="M-27.25 -147.65 Q-17.15 -148.55 -11.25 -152.75 -5.25 -156.85 1.1 -159.2 7.6 -161.4 21.65 -160.75 M22.8 -144.25 Q18.4 -140.2 11.85 -140.45 6.15 -137.3 -0.15 -136.0 -11.7 -133.5 -21.9 -139.5 -24.75 -141.15 -26.6 -145.55 L-27.4 -147.65 -27.25 -147.65 M11.85 -140.45 L11.25 -140.35 Q7.85 -139.95 5.15 -142.2" fill="none" stroke="#000000" stroke-linecap="round" stroke-linejoin="round" stroke-opacity="0.6627451" stroke-width="1.0"/>
      <path d="M-27.95 -279.45 L-25.65 -280.2 Q-17.05 -282.45 -9.15 -279.75 -6.15 -278.8 -3.3 -277.1 2.1 -274.05 5.55 -269.45 8.9 -265.05 10.4 -259.25 11.45 -255.45 11.45 -251.75 L11.45 -250.5 10.5 -250.6 2.25 -251.35 10.5 -250.6 Q8.25 -248.0 5.35 -245.85 2.65 -243.8 0.0 -242.45 2.25 -246.7 2.25 -251.35 L2.1 -254.0 Q1.85 -261.1 -0.75 -265.25 -3.8 -270.0 -7.95 -272.65 -9.15 -273.45 -10.5 -274.05 L-9.15 -279.75 -10.5 -274.05 Q-16.1 -276.55 -24.25 -276.55 L-25.85 -276.45 -27.95 -279.45 M5.55 -269.45 L-0.75 -265.25 5.55 -269.45" fill="#999999" fill-rule="evenodd" stroke="none"/>
      <path d="M11.45 -250.5 Q11.25 -243.5 7.45 -236.85 L4.7 -232.65 -1.0 -240.75 -0.55 -241.45 0.0 -242.45 Q2.65 -243.8 5.35 -245.85 8.25 -248.0 10.5 -250.6 L11.45 -250.5 M2.1 -254.0 L1.55 -256.8 Q0.4 -261.1 -2.2 -264.25 L-0.75 -265.25 -2.2 -264.25 Q-4.55 -267.15 -8.0 -269.2 -9.6 -270.15 -11.3 -270.7 -16.65 -272.75 -22.4 -271.45 L-22.45 -271.6 -25.85 -276.45 -24.25 -276.55 Q-16.1 -276.55 -10.5 -274.05 -9.15 -273.45 -7.95 -272.65 -3.8 -270.0 -0.75 -265.25 1.85 -261.1 2.1 -254.0 M-11.3 -270.7 L-10.5 -274.05 -11.3 -270.7" fill="#666666" fill-rule="evenodd" stroke="none"/>
      <path d="M-27.95 -279.45 L-25.65 -280.2 Q-17.05 -282.45 -9.15 -279.75 -6.15 -278.8 -3.3 -277.1 2.1 -274.05 5.55 -269.45 8.9 -265.05 10.4 -259.25 11.45 -255.45 11.45 -251.75 L11.45 -250.5 Q11.25 -243.5 7.45 -236.85 L4.7 -232.65 6.3 -230.3 M10.5 -250.6 L11.45 -250.5 M10.5 -250.6 L2.25 -251.35 Q2.25 -246.7 0.0 -242.45 L-0.55 -241.45 -1.0 -240.75 -1.55 -239.85 M-2.2 -264.25 Q0.4 -261.1 1.55 -256.8 L2.1 -254.0 2.25 -251.35 M-0.75 -265.25 L-2.2 -264.25 Q-4.55 -267.15 -8.0 -269.2 -9.6 -270.15 -11.3 -270.7 -16.65 -272.75 -22.4 -271.45 L-1.0 -240.75 4.7 -232.65 4.1 -232.0 M-10.5 -274.05 L-9.15 -279.75 M-10.5 -274.05 L-11.3 -270.7 M-28.95 -279.05 Q-28.45 -279.2 -27.95 -279.45 L-25.85 -276.45 -22.45 -271.6 -22.4 -271.45 M-0.75 -265.25 L5.55 -269.45" fill="none" stroke="#000000" stroke-linecap="round" stroke-linejoin="round" stroke-opacity="0.5019608" stroke-width="1.0"/>
      <path d="M-56.6 -235.0 L-56.8 -235.55 Q-57.65 -237.45 -57.85 -239.45 -58.35 -242.7 -57.55 -245.5 -56.8 -248.6 -54.8 -251.1 L-52.45 -253.65 Q-49.15 -256.65 -44.45 -257.25 L-43.15 -257.4 -43.5 -255.45 -44.3 -255.2 Q-48.35 -253.5 -50.6 -251.15 L-51.65 -249.85 Q-53.1 -247.75 -53.65 -244.8 L-57.55 -245.5 -53.65 -244.8 Q-54.05 -242.2 -52.7 -238.65 L-52.2 -237.25 Q-51.25 -235.0 -49.2 -233.4 L-52.6 -233.85 Q-54.55 -234.45 -56.1 -235.25 L-56.6 -235.0 M-50.6 -251.15 L-52.45 -253.65 -50.6 -251.15 M-52.2 -237.25 L-56.1 -235.25 -52.2 -237.25" fill="#999999" fill-rule="evenodd" stroke="none"/>
      <path d="M-50.6 -251.15 Q-48.35 -253.5 -44.3 -255.2 L-43.5 -255.45 -44.2 -252.4 -44.2 -252.3 Q-47.35 -251.8 -49.55 -249.65 L-50.85 -248.15 Q-52.2 -246.55 -52.7 -244.6 -53.35 -242.5 -53.0 -240.15 L-52.7 -238.65 Q-54.05 -242.2 -53.65 -244.8 -53.1 -247.75 -51.65 -249.85 L-50.6 -251.15 -49.55 -249.65 -50.6 -251.15 M-52.7 -244.6 L-53.65 -244.8 -52.7 -244.6 M-49.2 -233.4 L-48.8 -233.0 -48.4 -232.65 -49.55 -227.55 -51.8 -229.1 Q-55.05 -231.55 -56.6 -235.0 L-56.1 -235.25 Q-54.55 -234.45 -52.6 -233.85 L-49.2 -233.4" fill="#666666" fill-rule="evenodd" stroke="none"/>
      <path d="M-56.6 -235.0 L-56.8 -235.55 Q-57.65 -237.45 -57.85 -239.45 -58.35 -242.7 -57.55 -245.5 -56.8 -248.6 -54.8 -251.1 L-52.45 -253.65 Q-49.15 -256.65 -44.45 -257.25 L-43.15 -257.4 -42.6 -257.4 M-43.5 -255.45 L-43.15 -257.4 M-49.55 -249.65 L-50.6 -251.15 -52.45 -253.65 M-53.65 -244.8 L-52.7 -244.6 Q-52.2 -246.55 -50.85 -248.15 L-49.55 -249.65 Q-47.35 -251.8 -44.2 -252.3 L-44.2 -252.4 -43.5 -255.45 M-52.7 -244.6 Q-53.35 -242.5 -53.0 -240.15 L-52.7 -238.65 -52.2 -237.25 Q-51.25 -235.0 -49.2 -233.4 L-48.8 -233.0 -48.4 -232.65 -44.2 -252.3 M-56.1 -235.25 L-52.2 -237.25 M-53.65 -244.8 L-57.55 -245.5 M-56.6 -235.0 Q-55.05 -231.55 -51.8 -229.1 L-49.55 -227.55 -48.4 -232.65 -48.0 -232.4 M-49.55 -227.55 L-49.15 -227.3 M-49.55 -227.55 L-49.85 -226.1 M-56.1 -235.25 L-56.6 -235.0 Z" fill="none" stroke="#000000" stroke-linecap="round" stroke-linejoin="round" stroke-opacity="0.5019608" stroke-width="1.0"/>
      <path d="M24.3 -220.3 Q25.55 -221.2 24.95 -223.55 24.55 -225.95 27.65 -227.5 30.4 -229.15 38.4 -229.7 L38.05 -229.65 Q32.3 -228.55 28.95 -221.9 L28.5 -221.0 28.3 -220.6 25.35 -218.35 18.1 -213.4 13.55 -210.5 14.2 -214.05 Q17.35 -217.7 22.0 -219.55 L24.3 -220.3 M44.1 -179.4 Q46.15 -177.55 48.95 -176.25 L47.5 -174.65 44.2 -170.85 Q45.75 -171.25 51.95 -175.2 52.5 -174.95 53.25 -174.8 L54.05 -174.65 51.4 -172.7 51.4 -172.6 52.45 -172.75 55.5 -173.4 57.45 -174.0 67.5 -173.4 Q68.05 -170.2 66.35 -168.55 L65.05 -167.75 Q45.0 -162.65 17.45 -158.4 L13.0 -157.65 2.4 -156.2 1.3 -156.05 -0.1 -157.4 Q-2.05 -159.1 -3.0 -159.7 -3.1 -159.1 -4.3 -156.55 L-4.95 -155.15 -18.2 -153.6 -28.85 -152.5 -29.4 -152.95 Q-30.95 -154.2 -31.7 -155.05 -32.35 -156.05 -32.5 -157.35 -32.75 -158.85 -31.95 -160.8 -31.2 -162.65 -31.3 -163.15 -31.3 -163.5 -32.25 -164.2 -33.2 -164.95 -33.3 -165.6 -33.55 -167.05 -33.0 -168.25 L-32.4 -169.15 -20.95 -170.9 -32.4 -169.15 -32.65 -169.15 -36.35 -167.9 -60.8 -164.45 -60.85 -167.35 -59.9 -167.5 -47.85 -169.2 -45.35 -169.55 22.8 -179.1 22.95 -177.95 10.6 -175.9 11.95 -175.75 Q13.65 -175.7 14.55 -174.95 15.25 -174.55 16.1 -172.7 L17.45 -169.6 Q17.95 -168.55 23.25 -168.65 L29.75 -169.3 34.4 -170.1 Q36.2 -170.5 36.5 -170.85 L36.7 -171.9 36.5 -172.75 39.05 -173.4 Q41.2 -174.05 43.45 -175.05 44.05 -177.2 44.1 -179.4 M18.2 -202.85 Q18.6 -200.65 19.65 -198.9 L23.35 -199.35 21.9 -209.3 18.2 -208.8 Q17.7 -205.6 18.2 -202.85 M13.25 -204.3 L15.9 -207.5 18.8 -210.75 25.2 -216.0 27.25 -217.55 27.15 -217.15 Q26.8 -215.95 26.6 -214.45 26.0 -210.45 26.65 -205.9 27.4 -201.0 29.35 -197.0 L24.9 -196.2 22.8 -195.9 17.75 -195.5 17.75 -195.9 Q17.7 -196.35 15.6 -197.65 L14.15 -198.45 Q13.4 -201.3 13.25 -204.3 M-6.45 -173.25 L10.6 -175.9 -6.45 -173.25 -20.95 -170.9 -21.65 -167.7 -21.75 -167.6 Q-21.25 -167.5 -20.85 -167.75 L-19.5 -168.15 -16.8 -168.65 -16.15 -168.4 -13.2 -166.85 -6.45 -173.25 M3.7 -167.05 Q1.05 -168.95 0.65 -168.9 L-1.0 -164.7 3.7 -167.05 M-26.35 -161.2 Q-26.5 -162.25 -27.25 -162.85 -28.05 -163.4 -29.1 -163.25 -30.05 -163.15 -30.7 -162.45 -31.3 -161.55 -31.1 -160.5 -30.95 -159.5 -30.25 -158.95 -29.4 -158.4 -28.45 -158.45 -27.4 -158.65 -26.75 -159.35 -26.2 -160.25 -26.35 -161.2" fill="#6b8553" fill-rule="evenodd" stroke="none"/>
      <path d="M28.3 -220.6 L28.5 -221.0 28.95 -221.9 Q32.3 -228.55 38.05 -229.65 L38.4 -229.7 38.6 -229.75 38.8 -229.85 39.05 -229.85 39.75 -229.9 Q45.4 -230.25 50.35 -225.0 55.7 -219.25 56.95 -210.2 L57.3 -204.55 56.55 -204.3 55.75 -204.15 Q55.85 -206.95 55.45 -209.95 54.3 -218.1 49.55 -223.35 44.95 -228.55 39.35 -227.75 33.75 -227.0 30.7 -220.7 L30.3 -219.9 30.2 -219.75 29.35 -217.05 Q27.95 -212.15 28.75 -206.15 29.5 -201.3 31.45 -197.35 L29.35 -197.0 Q27.4 -201.0 26.65 -205.9 26.0 -210.45 26.6 -214.45 26.8 -215.95 27.15 -217.15 L27.25 -217.55 27.45 -218.45 28.3 -220.6 M38.6 -229.75 L39.05 -229.85 38.6 -229.75" fill="#616e55" fill-rule="evenodd" stroke="none"/>
      <path d="M13.55 -210.5 L18.1 -213.4 25.35 -218.35 28.3 -220.6 27.45 -218.45 27.25 -217.55 25.2 -216.0 18.8 -210.75 15.9 -207.5 13.25 -204.3 Q13.1 -207.3 13.55 -210.5 M35.65 -220.8 Q33.55 -220.05 33.6 -219.25 33.7 -218.45 35.95 -218.05 38.2 -217.7 41.35 -218.05 44.45 -218.35 46.45 -219.15 L47.5 -219.55 47.6 -219.55 Q48.55 -220.15 48.5 -220.7 48.3 -221.6 46.05 -222.0 43.9 -222.25 40.8 -221.9 37.65 -221.6 35.65 -220.8 M31.45 -197.35 Q29.5 -201.3 28.75 -206.15 27.95 -212.15 29.35 -217.05 L30.2 -219.75 30.3 -219.9 30.7 -220.7 Q33.75 -227.0 39.35 -227.75 44.95 -228.55 49.55 -223.35 54.3 -218.1 55.45 -209.95 55.85 -206.95 55.75 -204.15 55.6 -201.7 55.05 -199.45 54.4 -197.35 53.4 -195.5 L52.85 -194.25 51.7 -197.4 43.95 -192.5 41.85 -192.8 41.2 -191.5 44.2 -188.85 43.45 -188.2 41.8 -188.35 40.15 -188.75 38.0 -189.85 Q36.3 -190.95 34.6 -192.8 L33.6 -193.85 Q32.3 -195.55 31.45 -197.35 M31.35 -208.35 Q31.5 -207.05 34.9 -206.65 L35.95 -206.45 Q39.05 -206.15 43.0 -206.45 47.6 -207.05 50.75 -208.25 L52.3 -208.9 52.35 -208.9 Q53.9 -209.8 53.8 -210.7 53.55 -211.9 50.2 -212.35 46.8 -212.95 42.2 -212.35 37.4 -211.9 34.35 -210.85 31.2 -209.55 31.35 -208.35 M38.45 -199.5 Q36.5 -198.8 36.6 -198.05 36.7 -197.2 39.05 -196.85 L39.35 -196.85 Q41.45 -196.45 44.35 -196.8 47.45 -197.2 49.45 -198.0 L50.5 -198.3 50.6 -198.3 Q51.55 -198.9 51.45 -199.5 51.4 -200.35 49.05 -200.75 46.85 -201.05 43.8 -200.65 40.65 -200.4 38.6 -199.6 L38.45 -199.5 M51.7 -197.4 L55.05 -199.45 51.7 -197.4 M40.15 -188.75 L41.2 -191.5 40.15 -188.75 M33.6 -193.85 L41.85 -192.8 33.6 -193.85" fill="#ffffff" fill-rule="evenodd" stroke="none"/>
      <path d="M22.0 -219.55 Q17.35 -217.7 14.2 -214.05 L13.55 -210.5 Q13.1 -207.3 13.25 -204.3 13.4 -201.3 14.15 -198.45 L15.2 -195.25 Q15.9 -193.15 17.15 -190.95 L20.2 -186.45 Q21.0 -185.85 22.0 -185.45 23.05 -185.05 24.25 -184.8 L22.4 -184.4 19.95 -184.1 Q17.7 -183.95 16.0 -184.1 11.25 -184.65 10.5 -188.35 7.2 -201.8 -0.65 -209.45 -5.65 -213.9 -3.55 -215.05 0.55 -216.5 6.7 -217.7 L13.65 -218.85 14.8 -219.0 15.35 -219.1 22.0 -219.55" fill="#704116" fill-rule="evenodd" stroke="none"/>
      <path d="M24.3 -220.3 L22.0 -219.55 15.35 -219.1 14.8 -219.0 13.65 -218.85 6.7 -217.7 Q0.55 -216.5 -3.55 -215.05 -5.65 -213.9 -0.65 -209.45 7.2 -201.8 10.5 -188.35 11.25 -184.65 16.0 -184.1 L-1.55 -180.6 Q-32.6 -175.45 -61.25 -177.2 L-61.9 -186.35 -61.9 -189.6 Q-61.75 -197.75 -55.95 -203.55 -50.25 -209.2 -42.85 -212.35 L-35.55 -214.9 -34.2 -215.3 -30.8 -211.25 -31.2 -216.1 -30.3 -216.25 -28.7 -216.65 Q-18.25 -219.25 -7.2 -220.7 L14.3 -222.7 Q19.8 -222.4 24.3 -220.3 M42.75 -184.5 Q43.95 -182.0 44.1 -179.4 44.05 -177.2 43.45 -175.05 41.2 -174.05 39.05 -173.4 L39.05 -174.25 38.7 -177.2 38.05 -181.2 37.4 -183.05 36.95 -183.85 40.25 -184.55 40.4 -185.15 40.4 -185.6 40.9 -185.7 41.3 -185.8 41.95 -185.85 42.25 -185.4 42.75 -184.5 M-60.8 -155.05 L-64.1 -155.55 Q-67.5 -162.65 -66.45 -169.05 -65.65 -170.1 -62.5 -170.75 L-62.05 -164.3 -61.65 -159.85 -60.8 -155.05" fill="#4f2700" fill-rule="evenodd" stroke="none"/>
      <path d="M23.35 -199.35 L19.65 -198.9 Q18.6 -200.65 18.2 -202.85 L19.4 -203.1 21.8 -203.65 22.0 -203.75 Q22.4 -201.45 23.35 -199.35 M-26.35 -161.2 Q-26.2 -160.25 -26.75 -159.35 -27.4 -158.65 -28.45 -158.45 -29.4 -158.4 -30.25 -158.95 -30.95 -159.5 -31.1 -160.5 -31.3 -161.55 -30.7 -162.45 -30.05 -163.15 -29.1 -163.25 -28.05 -163.4 -27.25 -162.85 -26.5 -162.25 -26.35 -161.2" fill="#999999" fill-rule="evenodd" stroke="none"/>
      <path d="M42.35 -185.95 L42.5 -185.45 42.75 -184.55 42.75 -184.5 42.25 -185.4 41.95 -185.85 41.3 -185.8 42.35 -185.95 M18.2 -202.85 Q17.7 -205.6 18.2 -208.8 L21.9 -209.3 Q21.5 -206.45 22.0 -203.75 L21.8 -203.65 19.4 -203.1 18.2 -202.85 M32.5 -184.75 L40.4 -185.7 40.9 -185.7 40.4 -185.6 32.5 -184.75 M40.4 -185.7 L40.4 -185.6 40.4 -185.7 M-42.35 -157.5 L-43.4 -157.4 -42.85 -157.6 -42.35 -157.5 M-44.3 -164.3 L-43.15 -164.45 -43.75 -164.2 -44.3 -164.3" fill="#cccccc" fill-rule="evenodd" stroke="none"/>
      <path d="M35.65 -220.8 Q37.65 -221.6 40.8 -221.9 43.9 -222.25 46.05 -222.0 48.3 -221.6 48.5 -220.7 48.55 -220.15 47.6 -219.55 L47.5 -219.55 46.45 -219.15 Q44.45 -218.35 41.35 -218.05 38.2 -217.7 35.95 -218.05 33.7 -218.45 33.6 -219.25 33.55 -220.05 35.65 -220.8 M38.45 -199.5 L38.6 -199.6 Q40.65 -200.4 43.8 -200.65 46.85 -201.05 49.05 -200.75 51.4 -200.35 51.45 -199.5 51.55 -198.9 50.6 -198.3 L50.5 -198.3 49.45 -198.0 Q47.45 -197.2 44.35 -196.8 41.45 -196.45 39.35 -196.85 L39.05 -196.85 Q36.7 -197.2 36.6 -198.05 36.5 -198.8 38.45 -199.5 M31.35 -208.35 Q31.2 -209.55 34.35 -210.85 37.4 -211.9 42.2 -212.35 46.8 -212.95 50.2 -212.35 53.55 -211.9 53.8 -210.7 53.9 -209.8 52.35 -208.9 L52.3 -208.9 50.75 -208.25 Q47.6 -207.05 43.0 -206.45 39.05 -206.15 35.95 -206.45 L34.9 -206.65 Q31.5 -207.05 31.35 -208.35" fill="#ffff99" fill-rule="evenodd" stroke="none"/>
      <path d="M21.9 -209.3 L23.35 -199.35 Q22.4 -201.45 22.0 -203.75 21.5 -206.45 21.9 -209.3" fill="#6e6e6e" fill-rule="evenodd" stroke="none"/>
      <path d="M57.3 -204.55 Q57.05 -198.95 54.7 -194.25 51.3 -187.4 43.7 -186.25 L42.35 -186.2 40.15 -186.6 Q39.2 -186.9 38.05 -187.5 L38.0 -187.5 35.55 -189.2 Q34.35 -190.05 33.3 -191.2 30.85 -193.8 29.35 -197.0 L31.45 -197.35 Q32.3 -195.55 33.6 -193.85 L34.6 -192.8 Q36.3 -190.95 38.0 -189.85 L40.15 -188.75 41.8 -188.35 43.45 -188.2 44.95 -188.3 46.45 -188.7 Q48.15 -189.2 49.55 -190.3 L50.85 -191.45 Q51.95 -192.55 52.85 -194.25 L53.4 -195.5 Q54.4 -197.35 55.05 -199.45 55.6 -201.7 55.75 -204.15 L56.55 -204.3 57.3 -204.55" fill="#1f2b15" fill-rule="evenodd" stroke="none"/>
      <path d="M52.85 -194.25 Q51.95 -192.55 50.85 -191.45 L49.55 -190.3 Q48.15 -189.2 46.45 -188.7 L44.95 -188.3 43.45 -188.2 44.2 -188.85 41.2 -191.5 41.85 -192.8 43.95 -192.5 46.4 -192.15 46.4 -192.8 48.0 -192.4 49.05 -192.0 50.85 -191.45 49.05 -192.0 48.0 -192.4 46.4 -192.8 46.4 -192.15 43.95 -192.5 51.7 -197.4 52.85 -194.25 M46.4 -192.15 L46.4 -191.05 44.2 -188.85 46.4 -191.05 46.4 -192.15 M46.45 -190.05 L49.55 -190.3 46.45 -190.05 46.45 -188.7 46.45 -190.05 46.4 -191.05 48.0 -192.4 46.4 -191.05 46.45 -190.05" fill="#666666" fill-rule="evenodd" stroke="none"/>
      <path d="M43.7 -186.25 L42.35 -185.95 41.3 -185.8 40.9 -185.7 40.4 -185.7 32.5 -184.75 26.2 -184.4 24.55 -184.75 24.3 -184.8 24.25 -184.8 Q23.05 -185.05 22.0 -185.45 21.0 -185.85 20.2 -186.45 L17.15 -190.95 17.75 -195.5 22.8 -195.9 24.9 -196.2 29.35 -197.0 Q30.85 -193.8 33.3 -191.2 34.35 -190.05 35.55 -189.2 L38.0 -187.5 38.05 -187.5 Q39.2 -186.9 40.15 -186.6 L42.35 -186.2 43.7 -186.25 M-28.85 -152.5 L-31.3 -152.35 Q-33.55 -152.1 -36.55 -152.25 -38.15 -152.5 -39.1 -153.2 L-50.85 -152.35 -55.3 -152.1 -57.7 -152.0 -59.1 -155.25 Q-60.4 -159.35 -60.8 -164.45 L-36.35 -167.9 -32.65 -169.15 -32.4 -169.15 -33.0 -168.25 Q-33.55 -167.05 -33.3 -165.6 -33.2 -164.95 -32.25 -164.2 -31.3 -163.5 -31.3 -163.15 -31.2 -162.65 -31.95 -160.8 -32.75 -158.85 -32.5 -157.35 -32.35 -156.05 -31.7 -155.05 -30.95 -154.2 -29.4 -152.95 L-28.85 -152.5 M36.5 -172.75 L36.7 -171.9 36.5 -170.85 Q36.2 -170.5 34.4 -170.1 L29.75 -169.3 23.25 -168.65 Q17.95 -168.55 17.45 -169.6 L16.1 -172.7 Q15.25 -174.55 14.55 -174.95 13.65 -175.7 11.95 -175.75 L10.6 -175.9 22.95 -177.95 23.25 -176.35 Q23.9 -174.25 25.15 -172.45 30.7 -171.55 36.5 -172.75 M23.35 -188.55 L28.2 -190.15 28.6 -190.55 30.15 -191.2 26.1 -192.1 23.35 -188.55 M-39.1 -153.2 Q-40.6 -154.25 -40.5 -156.3 -40.0 -158.7 -35.75 -160.55 -34.6 -161.6 -35.1 -162.45 -36.45 -163.05 -37.0 -163.9 L-37.85 -165.8 Q-37.9 -167.05 -36.35 -167.9 -37.9 -167.05 -37.85 -165.8 L-37.0 -163.9 Q-36.45 -163.05 -35.1 -162.45 -34.6 -161.6 -35.75 -160.55 -40.0 -158.7 -40.5 -156.3 -40.6 -154.25 -39.1 -153.2 M-42.35 -157.5 L-42.05 -157.6 -41.85 -157.6 Q-40.5 -157.8 -39.7 -158.95 -38.7 -160.1 -38.95 -161.55 -39.1 -162.9 -40.35 -163.7 -41.4 -164.6 -42.75 -164.45 L-43.15 -164.45 -44.3 -164.3 -44.7 -164.2 Q-46.05 -164.05 -46.95 -162.85 -47.75 -161.7 -47.6 -160.35 -47.35 -158.85 -46.3 -158.05 -45.25 -157.25 -44.05 -157.25 L-43.75 -157.35 -43.4 -157.4 -42.35 -157.5" fill="#39472c" fill-rule="evenodd" stroke="none"/>
      <path d="M48.95 -176.25 L51.95 -175.2 Q45.75 -171.25 44.2 -170.85 L47.5 -174.65 48.95 -176.25 M54.05 -174.65 L57.45 -174.0 55.5 -173.4 52.45 -172.75 51.4 -172.6 51.4 -172.7 54.05 -174.65 M1.3 -156.05 L-4.95 -155.15 -4.3 -156.55 Q-3.1 -159.1 -3.0 -159.7 -2.05 -159.1 -0.1 -157.4 L1.3 -156.05 M14.15 -198.45 L15.6 -197.65 Q17.7 -196.35 17.75 -195.9 L17.75 -195.5 17.15 -190.95 Q15.9 -193.15 15.2 -195.25 L14.15 -198.45 M-6.45 -173.25 L-13.2 -166.85 -16.15 -168.4 -16.8 -168.65 -19.5 -168.15 -20.85 -167.75 Q-21.25 -167.5 -21.75 -167.6 L-21.65 -167.7 -20.95 -170.9 -6.45 -173.25 M23.35 -188.55 L26.1 -192.1 30.15 -191.2 28.6 -190.55 28.2 -190.15 23.35 -188.55 M3.7 -167.05 L-1.0 -164.7 0.65 -168.9 Q1.05 -168.95 3.7 -167.05" fill="#88967c" fill-rule="evenodd" stroke="none"/>
      <path d="M-59.1 -155.25 L-60.8 -155.05 -61.65 -159.85 -62.05 -164.3 -62.5 -170.75 -60.55 -171.1 -61.25 -177.2 Q-32.6 -175.45 -1.55 -180.6 L16.0 -184.1 Q17.7 -183.95 19.95 -184.1 L22.4 -184.4 24.25 -184.8 24.3 -184.8 24.55 -184.75 24.5 -184.0 24.65 -183.45 24.9 -183.1 25.6 -183.05 36.95 -183.85 37.4 -183.05 38.05 -181.2 38.7 -177.2 39.05 -174.25 39.05 -173.4 36.5 -172.75 Q30.7 -171.55 25.15 -172.45 23.9 -174.25 23.25 -176.35 L22.95 -177.95 22.8 -179.1 Q22.6 -180.75 22.8 -182.65 L22.95 -183.5 24.5 -184.0 22.95 -183.5 22.8 -182.65 Q22.6 -180.75 22.8 -179.1 L-45.35 -169.55 -47.85 -169.2 -59.9 -167.5 -60.85 -167.35 -60.8 -164.45 Q-60.4 -159.35 -59.1 -155.25 M-60.55 -171.1 L-59.9 -167.5 -60.55 -171.1" fill="#2e1904" fill-rule="evenodd" stroke="none"/>
      <path d="M24.55 -184.75 L26.2 -184.4 32.5 -184.75 40.4 -185.6 40.4 -185.15 40.25 -184.55 36.95 -183.85 25.6 -183.05 24.9 -183.1 24.65 -183.45 24.5 -184.0 24.55 -184.75" fill="#4d613d" fill-rule="evenodd" stroke="none"/>
      <path d="M-43.15 -164.45 L-42.75 -164.45 Q-41.4 -164.6 -40.35 -163.7 -39.1 -162.9 -38.95 -161.55 -38.7 -160.1 -39.7 -158.95 -40.5 -157.8 -41.85 -157.6 L-42.05 -157.6 -42.35 -157.5 -42.85 -157.6 Q-41.95 -157.9 -41.45 -158.7 -40.5 -159.85 -40.75 -161.3 -40.9 -162.65 -42.1 -163.5 -42.85 -164.15 -43.75 -164.2 L-43.15 -164.45" fill="#636363" fill-rule="evenodd" stroke="none"/>
      <path d="M-43.4 -157.4 L-43.75 -157.35 -44.05 -157.25 Q-45.25 -157.25 -46.3 -158.05 -47.35 -158.85 -47.6 -160.35 -47.75 -161.7 -46.95 -162.85 -46.05 -164.05 -44.7 -164.2 L-44.3 -164.3 -43.75 -164.2 Q-42.85 -164.15 -42.1 -163.5 -40.9 -162.65 -40.75 -161.3 -40.5 -159.85 -41.45 -158.7 -41.95 -157.9 -42.85 -157.6 L-43.4 -157.4" fill="#949494" fill-rule="evenodd" stroke="none"/>
      <path d="M38.4 -229.7 Q30.4 -229.15 27.65 -227.5 24.55 -225.95 24.95 -223.55 25.55 -221.2 24.3 -220.3 L22.0 -219.55 Q17.35 -217.7 14.2 -214.05 L13.55 -210.5 Q13.1 -207.3 13.25 -204.3 13.4 -201.3 14.15 -198.45 L15.2 -195.25 Q15.9 -193.15 17.15 -190.95 L20.2 -186.45 Q21.0 -185.85 22.0 -185.45 23.05 -185.05 24.25 -184.8 M28.3 -220.6 L28.5 -221.0 28.95 -221.9 Q32.3 -228.55 38.05 -229.65 L38.4 -229.7 38.6 -229.75 38.8 -229.85 39.05 -229.85 39.75 -229.9 Q45.4 -230.25 50.35 -225.0 55.7 -219.25 56.95 -210.2 L57.3 -204.55 Q57.05 -198.95 54.7 -194.25 51.3 -187.4 43.7 -186.25 L42.35 -185.95 42.5 -185.45 42.75 -184.55 42.75 -184.5 Q43.95 -182.0 44.1 -179.4 46.15 -177.55 48.95 -176.25 L51.95 -175.2 Q52.5 -174.95 53.25 -174.8 L54.05 -174.65 57.45 -174.0 67.5 -173.4 Q68.05 -170.2 66.35 -168.55 L65.05 -167.75 Q45.0 -162.65 17.45 -158.4 L13.0 -157.65 2.4 -156.2 1.3 -156.05 -4.95 -155.15 -18.2 -153.6 -28.85 -152.5 -31.3 -152.35 Q-33.55 -152.1 -36.55 -152.25 -38.15 -152.5 -39.1 -153.2 L-50.85 -152.35 -55.3 -152.1 -57.7 -152.0 -59.1 -155.25 -60.8 -155.05 -64.1 -155.55 Q-67.5 -162.65 -66.45 -169.05 -65.65 -170.1 -62.5 -170.75 L-60.55 -171.1 -61.25 -177.2 -61.9 -186.35 -61.9 -189.6 Q-61.75 -197.75 -55.95 -203.55 -50.25 -209.2 -42.85 -212.35 L-35.55 -214.9 -34.2 -215.3 -30.8 -211.25 -31.2 -216.1 -30.3 -216.25 -28.7 -216.65 Q-18.25 -219.25 -7.2 -220.7 L14.3 -222.7 Q19.8 -222.4 24.3 -220.3 M39.05 -229.85 L38.6 -229.75 M23.35 -199.35 L19.65 -198.9 Q18.6 -200.65 18.2 -202.85 17.7 -205.6 18.2 -208.8 L21.9 -209.3 23.35 -199.35 Q22.4 -201.45 22.0 -203.75 21.5 -206.45 21.9 -209.3 M29.35 -197.0 Q27.4 -201.0 26.65 -205.9 26.0 -210.45 26.6 -214.45 26.8 -215.95 27.15 -217.15 L27.25 -217.55 27.45 -218.45 28.3 -220.6 M31.45 -197.35 Q29.5 -201.3 28.75 -206.15 27.95 -212.15 29.35 -217.05 L30.2 -219.75 M30.3 -219.9 L30.7 -220.7 Q33.75 -227.0 39.35 -227.75 44.95 -228.55 49.55 -223.35 54.3 -218.1 55.45 -209.95 55.85 -206.95 55.75 -204.15 55.6 -201.7 55.05 -199.45 54.4 -197.35 53.4 -195.5 L52.85 -194.25 Q51.95 -192.55 50.85 -191.45 L49.55 -190.3 Q48.15 -189.2 46.45 -188.7 L44.95 -188.3 43.45 -188.2 41.8 -188.35 40.15 -188.75 38.0 -189.85 Q36.3 -190.95 34.6 -192.8 L33.6 -193.85 Q32.3 -195.55 31.45 -197.35 M29.35 -197.0 Q30.85 -193.8 33.3 -191.2 34.35 -190.05 35.55 -189.2 L38.0 -187.5 38.05 -187.5 Q39.2 -186.9 40.15 -186.6 L42.35 -186.2 43.7 -186.25 M40.9 -185.7 L41.3 -185.8 42.35 -185.95 M41.3 -185.8 L41.95 -185.85 42.25 -185.4 42.75 -184.5 M44.1 -179.4 Q44.05 -177.2 43.45 -175.05 41.2 -174.05 39.05 -173.4 L36.5 -172.75 Q30.7 -171.55 25.15 -172.45 23.9 -174.25 23.25 -176.35 L22.95 -177.95 22.8 -179.1 -45.35 -169.55 -47.85 -169.2 -59.9 -167.5 -60.55 -171.1 M10.6 -175.9 L-6.45 -173.25 -20.95 -170.9 -32.4 -169.15 -32.65 -169.15 -36.35 -167.9 Q-37.9 -167.05 -37.85 -165.8 L-37.0 -163.9 Q-36.45 -163.05 -35.1 -162.45 -34.6 -161.6 -35.75 -160.55 -40.0 -158.7 -40.5 -156.3 -40.6 -154.25 -39.1 -153.2 M24.3 -184.8 L24.55 -184.75 26.2 -184.4 32.5 -184.75 40.4 -185.7 40.9 -185.7 40.4 -185.6 40.4 -185.15 40.25 -184.55 36.95 -183.85 25.6 -183.05 24.9 -183.1 24.65 -183.45 24.5 -184.0 22.95 -183.5 22.8 -182.65 Q22.6 -180.75 22.8 -179.1 M24.55 -184.75 L24.5 -184.0 M40.4 -185.6 L32.5 -184.75 M40.4 -185.6 L40.4 -185.7 M10.6 -175.9 L22.95 -177.95 M-26.35 -161.2 Q-26.2 -160.25 -26.75 -159.35 -27.4 -158.65 -28.45 -158.45 -29.4 -158.4 -30.25 -158.95 -30.95 -159.5 -31.1 -160.5 -31.3 -161.55 -30.7 -162.45 -30.05 -163.15 -29.1 -163.25 -28.05 -163.4 -27.25 -162.85 -26.5 -162.25 -26.35 -161.2 M-43.15 -164.45 L-42.75 -164.45 Q-41.4 -164.6 -40.35 -163.7 -39.1 -162.9 -38.95 -161.55 -38.7 -160.1 -39.7 -158.95 -40.5 -157.8 -41.85 -157.6 L-42.05 -157.6 -42.35 -157.5 -43.4 -157.4 -43.75 -157.35 -44.05 -157.25 Q-45.25 -157.25 -46.3 -158.05 -47.35 -158.85 -47.6 -160.35 -47.75 -161.7 -46.95 -162.85 -46.05 -164.05 -44.7 -164.2 L-44.3 -164.3 -43.15 -164.45 -43.75 -164.2 Q-42.85 -164.15 -42.1 -163.5 -40.9 -162.65 -40.75 -161.3 -40.5 -159.85 -41.45 -158.7 -41.95 -157.9 -42.85 -157.6 L-42.35 -157.5 M-60.8 -164.45 L-60.85 -167.35 -59.9 -167.5 M-43.75 -164.2 L-44.3 -164.3 M-42.85 -157.6 L-43.4 -157.4 M-59.1 -155.25 Q-60.4 -159.35 -60.8 -164.45" fill="none" stroke="#000000" stroke-linecap="round" stroke-linejoin="round" stroke-opacity="0.6627451" stroke-width="1.0"/>
      <path d="M16.0 -184.1 Q11.25 -184.65 10.5 -188.35 7.2 -201.8 -0.65 -209.45 -5.65 -213.9 -3.55 -215.05 0.55 -216.5 6.7 -217.7 L13.65 -218.85 14.8 -219.0 15.35 -219.1 22.0 -219.55 M51.7 -197.4 L52.85 -194.25 M43.95 -192.5 L46.4 -192.15 46.4 -192.8 48.0 -192.4 49.05 -192.0 50.85 -191.45 M43.95 -192.5 L41.85 -192.8 41.2 -191.5 44.2 -188.85 46.4 -191.05 46.4 -192.15 M44.2 -188.85 L43.45 -188.2 M46.45 -188.7 L46.45 -190.05 46.4 -191.05 48.0 -192.4 M49.55 -190.3 L46.45 -190.05 M51.7 -197.4 L43.95 -192.5 M24.25 -184.8 L24.3 -184.8 M24.25 -184.8 L22.4 -184.4 19.95 -184.1 Q17.7 -183.95 16.0 -184.1 M41.85 -192.8 L33.6 -193.85 M41.2 -191.5 L40.15 -188.75 M55.05 -199.45 L51.7 -197.4" fill="none" stroke="#000000" stroke-linecap="round" stroke-linejoin="round" stroke-opacity="0.6627451" stroke-width="0.5"/>
      <path d="M35.65 -220.8 Q37.65 -221.6 40.8 -221.9 43.9 -222.25 46.05 -222.0 48.3 -221.6 48.5 -220.7 48.55 -220.15 47.6 -219.55 L47.5 -219.55 46.45 -219.15 Q44.45 -218.35 41.35 -218.05 38.2 -217.7 35.95 -218.05 33.7 -218.45 33.6 -219.25 33.55 -220.05 35.65 -220.8 M38.45 -199.5 L38.6 -199.6 Q40.65 -200.4 43.8 -200.65 46.85 -201.05 49.05 -200.75 51.4 -200.35 51.45 -199.5 51.55 -198.9 50.6 -198.3 L50.5 -198.3 49.45 -198.0 Q47.45 -197.2 44.35 -196.8 41.45 -196.45 39.35 -196.85 L39.05 -196.85 Q36.7 -197.2 36.6 -198.05 36.5 -198.8 38.45 -199.5 M31.35 -208.35 Q31.2 -209.55 34.35 -210.85 37.4 -211.9 42.2 -212.35 46.8 -212.95 50.2 -212.35 53.55 -211.9 53.8 -210.7 53.9 -209.8 52.35 -208.9 L52.3 -208.9 50.75 -208.25 Q47.6 -207.05 43.0 -206.45 39.05 -206.15 35.95 -206.45 L34.9 -206.65 Q31.5 -207.05 31.35 -208.35" fill="none" stroke="#000000" stroke-linecap="round" stroke-linejoin="round" stroke-opacity="0.33333334" stroke-width="0.5"/>
      <path d="M-41.55 -207.5 Q-41.05 -205.0 -43.5 -202.6 -45.75 -200.4 -48.1 -200.0 M-9.55 -193.2 L-9.0 -192.1 -8.1 -190.3 -7.7 -190.7 Q-4.05 -195.0 -1.85 -198.25 M-8.1 -190.3 L-6.7 -187.8 M-9.0 -192.1 L-10.75 -190.15 -9.8 -188.35 -8.1 -190.3 M-14.15 -190.8 L-13.35 -189.2 -12.8 -187.95 -10.75 -190.15 -12.2 -193.0 -14.15 -190.8 -15.75 -194.1 M-19.65 -184.15 L-15.3 -189.5 -14.15 -190.8 M-14.0 -196.55 L-12.2 -193.0 -9.7 -196.05 M-12.8 -187.95 L-10.05 -182.65 M-18.7 -180.95 L-12.8 -187.95 M-6.95 -182.55 Q-7.5 -184.0 -9.8 -188.35 L-11.15 -186.75 M-23.95 -160.95 L-22.05 -161.05 -21.35 -162.35 M-22.05 -161.05 L-23.05 -159.3 -21.4 -159.5 -20.35 -161.3 -22.05 -161.05 M-23.05 -159.3 L-25.15 -155.65 M-24.0 -159.2 L-23.05 -159.3 M-22.8 -157.25 L-21.4 -159.5 -19.75 -159.75 M-19.65 -163.05 L-20.35 -161.3 -18.6 -161.55 M-58.9 -193.8 Q-55.95 -193.6 -53.25 -196.3 -50.7 -198.8 -50.6 -201.3" fill="none" stroke="#000000" stroke-linecap="round" stroke-linejoin="round" stroke-opacity="0.6627451" stroke-width="0.5"/>
    </g>
    <g id="sprite0" transform="matrix(1.0, 0.0, 0.0, 1.0, 43.8, 43.8)">
      <use height="86.0" transform="matrix(1.0186, 0.0, 0.0, 1.0186, -43.8, -43.8)" width="86.0" xlink:href="#shape1"/>
    </g>
    <g id="shape1" transform="matrix(1.0, 0.0, 0.0, 1.0, 0.0, 0.0)">
      <path d="M73.4 12.6 Q86.0 25.2 86.0 43.0 86.0 60.8 73.4 73.4 60.8 86.0 43.0 86.0 25.2 86.0 12.6 73.4 0.0 60.8 0.0 43.0 0.0 25.2 12.6 12.6 25.2 0.0 43.0 0.0 60.8 0.0 73.4 12.6" fill="#ffffff" fill-rule="evenodd" stroke="none"/>
    </g>
    <g id="sprite1" transform="matrix(1.0, 0.0, 0.0, 1.0, 71.95, 36.5)">
      <use height="73.0" transform="matrix(1.0, 0.0, 0.0, 1.0, -71.95, -36.5)" width="143.9" xlink:href="#shape2"/>
    </g>
    <g id="shape2" transform="matrix(1.0, 0.0, 0.0, 1.0, 71.95, 36.5)">
      <path d="M33.1 -28.35 L33.15 -28.35 Q34.5 -29.15 34.4 -31.75 34.3 -34.35 37.75 -35.6 41.15 -36.85 50.2 -36.35 L49.95 -36.35 49.2 -36.3 Q42.9 -35.95 38.3 -29.45 L37.7 -28.55 37.45 -28.1 36.25 -25.95 35.85 -25.05 35.7 -24.65 Q35.15 -23.35 34.75 -21.9 33.5 -17.7 33.5 -12.8 33.5 -7.4 34.95 -2.9 36.15 0.8 38.3 3.9 L40.4 6.45 Q41.5 7.65 42.75 8.5 L42.9 8.6 45.0 9.8 47.15 10.5 48.65 10.75 47.2 10.8 46.05 10.85 45.6 10.85 45.35 10.8 45.35 10.85 44.75 12.05 41.15 12.25 28.15 11.25 27.95 10.8 27.9 10.2 Q27.9 9.85 28.05 9.5 L27.75 9.35 27.7 9.35 Q26.45 8.9 25.45 8.25 L23.7 7.0 Q22.15 4.3 21.1 1.65 20.2 -0.75 19.65 -3.1 19.2 -4.95 19.05 -6.75 18.65 -9.9 18.95 -13.05 19.25 -16.3 20.25 -19.6 20.75 -21.45 21.5 -23.3 25.35 -26.7 30.55 -27.9 L33.1 -28.35 M28.9 -17.05 L24.9 -17.05 Q23.95 -13.75 24.05 -10.8 24.15 -8.4 24.9 -6.25 L28.9 -6.25 28.9 -17.05" fill="url(#gradient0)" fill-rule="evenodd" stroke="none"/>
      <path d="M-23.65 20.65 L-23.65 20.75 -23.7 20.7 -23.65 20.65" fill="url(#gradient1)" fill-rule="evenodd" stroke="none"/>
      <path d="M-48.2 20.9 L-47.0 20.9 -47.65 21.05 -48.2 20.9" fill="url(#gradient2)" fill-rule="evenodd" stroke="none"/>
      <path d="M-47.1 28.3 L-48.25 28.3 -47.65 28.2 -47.1 28.3" fill="url(#gradient3)" fill-rule="evenodd" stroke="none"/>
      <path d="M46.05 10.85 L47.2 10.8 47.35 12.4 47.35 12.5 46.7 10.85 46.05 10.85" fill="url(#gradient4)" fill-rule="evenodd" stroke="none"/>
      <path d="M27.9 10.2 L27.95 10.8 28.15 11.25 41.15 12.25 44.75 12.05 45.35 10.85 45.35 10.8 45.6 10.85 46.05 10.85 46.7 10.85 47.35 12.5 Q48.3 15.3 48.0 18.1 47.7 20.35 46.7 22.6 L41.7 23.65 39.0 23.95 Q32.6 24.4 26.85 22.6 25.8 20.5 25.45 18.2 L25.3 16.45 25.3 15.2 Q25.4 12.9 26.15 10.5 L27.9 10.2" fill="url(#gradient5)" fill-rule="evenodd" stroke="none"/>
      <path d="M39.45 -27.05 L39.95 -27.85 Q44.2 -34.1 50.2 -34.1 56.25 -34.1 60.4 -27.85 64.7 -21.55 64.7 -12.7 64.7 -9.45 64.15 -6.5 63.6 -3.95 62.65 -1.65 61.7 0.5 60.4 2.4 L59.6 3.55 57.0 6.25 55.5 7.3 Q53.85 8.25 52.0 8.55 L50.2 8.7 48.75 8.6 46.9 8.2 45.2 7.45 Q44.1 6.85 43.15 6.05 41.45 4.6 39.95 2.4 L39.1 1.05 Q38.0 -0.85 37.25 -3.0 35.75 -7.4 35.75 -12.7 35.75 -19.15 38.0 -24.2 L39.35 -26.9 39.45 -27.05" fill="url(#gradient6)" fill-rule="evenodd" stroke="none"/>
      <path d="M48.65 10.75 L47.15 10.5 45.0 9.8 42.9 8.6 42.75 8.5 Q41.5 7.65 40.4 6.45 L38.3 3.9 Q36.15 0.8 34.95 -2.9 33.5 -7.4 33.5 -12.8 33.5 -17.7 34.75 -21.9 35.15 -23.35 35.7 -24.65 L35.85 -25.05 36.25 -25.95 37.45 -28.1 37.7 -28.55 38.3 -29.45 Q42.9 -35.95 49.2 -36.3 L49.95 -36.35 50.2 -36.35 51.0 -36.3 Q57.05 -35.8 61.5 -29.45 66.35 -22.55 66.35 -12.8 66.35 -9.55 65.85 -6.65 64.75 -0.75 61.5 3.9 56.85 10.6 48.65 10.75 M39.45 -27.05 L39.35 -26.9 38.0 -24.2 Q35.75 -19.15 35.75 -12.7 35.75 -7.4 37.25 -3.0 38.0 -0.85 39.1 1.05 L39.95 2.4 Q41.45 4.6 43.15 6.05 44.1 6.85 45.2 7.45 L46.9 8.2 48.75 8.6 50.2 8.7 52.0 8.55 Q53.85 8.25 55.5 7.3 L57.0 6.25 59.6 3.55 60.4 2.4 Q61.7 0.5 62.65 -1.65 63.6 -3.95 64.15 -6.5 64.7 -9.45 64.7 -12.7 64.7 -21.55 60.4 -27.85 56.25 -34.1 50.2 -34.1 44.2 -34.1 39.95 -27.85 L39.45 -27.05" fill="url(#gradient7)" fill-rule="evenodd" stroke="none"/>
      <path d="M28.9 -6.25 L24.9 -6.25 Q24.15 -8.4 24.05 -10.8 23.95 -13.75 24.9 -17.05 L28.9 -17.05 Q28.1 -14.05 28.15 -11.15 28.2 -8.7 28.9 -6.25" fill="url(#gradient8)" fill-rule="evenodd" stroke="none"/>
      <path d="M28.9 -6.25 Q28.2 -8.7 28.15 -11.15 28.1 -14.05 28.9 -17.05 L28.9 -6.25" fill="url(#gradient9)" fill-rule="evenodd" stroke="none"/>
      <path d="M25.3 16.45 L25.45 18.2 Q25.8 20.5 26.85 22.6 32.6 24.4 39.0 23.95 L41.7 23.65 46.7 22.6 Q47.7 20.35 48.0 18.1 49.95 20.35 52.8 22.15 L55.75 23.7 57.1 24.3 57.9 24.65 61.45 25.8 Q66.05 27.15 71.95 27.9 72.1 31.45 70.05 32.9 L68.55 33.6 Q46.5 35.95 16.6 36.35 L11.75 36.45 0.25 36.5 -0.95 36.5 -7.7 36.45 -22.1 36.1 -36.2 35.5 -41.8 34.8 Q-43.45 34.25 -44.35 33.4 -45.75 32.1 -45.35 29.9 -44.5 27.45 -39.7 26.05 -38.3 25.15 -38.75 24.2 -40.0 23.35 -40.55 22.35 -41.1 21.35 -41.05 20.2 -41.0 18.9 -39.25 18.2 -37.8 17.6 -35.1 17.45 L25.3 16.45 M-23.65 20.65 L-23.7 20.7 -23.65 20.75 -23.65 20.65 M-30.35 28.65 Q-29.6 27.9 -29.6 26.8 -29.6 25.7 -30.35 24.95 -31.1 24.2 -32.2 24.2 -33.3 24.2 -34.05 24.95 -34.8 25.7 -34.8 26.8 -34.8 27.9 -34.05 28.65 -33.3 29.4 -32.2 29.4 -31.1 29.4 -30.35 28.65" fill="url(#gradient10)" fill-rule="evenodd" stroke="none"/>
      <path d="M33.1 -28.35 L30.55 -27.9 Q25.35 -26.7 21.5 -23.3 20.75 -21.45 20.25 -19.6 19.25 -16.3 18.95 -13.05 18.65 -9.9 19.05 -6.75 19.2 -4.95 19.65 -3.1 20.2 -0.75 21.1 1.65 22.15 4.3 23.7 7.0 L25.45 8.25 Q26.45 8.9 27.7 9.35 L27.75 9.35 28.05 9.5 Q27.9 9.85 27.9 10.2 L26.15 10.5 Q25.4 12.9 25.3 15.2 L-48.55 15.1 -51.3 15.1 -64.3 15.1 -65.4 15.1 -65.7 18.2 Q-66.1 23.7 -65.25 28.2 L-67.15 28.15 Q-69.15 27.9 -70.5 27.15 -73.1 19.1 -71.05 12.5 -70.05 11.45 -66.6 11.25 L-64.45 11.2 -64.35 4.55 -63.6 -5.2 -63.2 -8.65 Q-61.8 -17.3 -54.65 -22.7 -47.85 -27.85 -39.4 -30.0 L-31.35 -31.65 -29.75 -31.9 -26.85 -27.1 -26.5 -32.25 -25.5 -32.35 -23.7 -32.5 Q-1.45 -34.6 22.85 -32.5 28.65 -31.3 33.1 -28.35" fill="url(#gradient11)" fill-rule="evenodd" stroke="none"/>
      <path d="M-65.25 28.2 Q-66.1 23.7 -65.7 18.2 L-65.4 15.1 -64.3 15.1 -51.3 15.1 -48.55 15.1 25.3 15.2 25.3 16.45 -35.1 17.45 Q-37.8 17.6 -39.25 18.2 -41.0 18.9 -41.05 20.2 -41.1 21.35 -40.55 22.35 -40.0 23.35 -38.75 24.2 -38.3 25.15 -39.7 26.05 -44.5 27.45 -45.35 29.9 -45.75 32.1 -44.35 33.4 L-56.95 32.65 -61.8 32.2 -64.3 31.9 -65.25 28.2 M-48.2 20.9 L-48.6 20.9 Q-50.15 20.9 -51.25 22.0 -52.3 23.05 -52.3 24.6 -52.3 26.15 -51.25 27.2 -50.3 28.15 -48.95 28.3 L-48.6 28.3 -48.25 28.3 -47.1 28.3 -46.75 28.3 -46.65 28.3 -46.6 28.3 Q-45.1 28.3 -44.05 27.2 -42.95 26.15 -42.95 24.6 -42.95 23.05 -44.05 22.0 -45.05 20.95 -46.55 20.9 L-46.65 20.9 -47.0 20.9 -48.2 20.9" fill="url(#gradient12)" fill-rule="evenodd" stroke="none"/>
      <path d="M-30.35 28.65 Q-31.1 29.4 -32.2 29.4 -33.3 29.4 -34.05 28.65 -34.8 27.9 -34.8 26.8 -34.8 25.7 -34.05 24.95 -33.3 24.2 -32.2 24.2 -31.1 24.2 -30.35 24.95 -29.6 25.7 -29.6 26.8 -29.6 27.9 -30.35 28.65" fill="url(#gradient13)" fill-rule="evenodd" stroke="none"/>
      <path d="M-48.25 28.3 L-48.6 28.3 -48.95 28.3 Q-50.3 28.15 -51.25 27.2 -52.3 26.15 -52.3 24.6 -52.3 23.05 -51.25 22.0 -50.15 20.9 -48.6 20.9 L-48.2 20.9 -47.65 21.05 -47.0 20.9 -46.65 20.9 -46.55 20.9 Q-45.05 20.95 -44.05 22.0 -42.95 23.05 -42.95 24.6 -42.95 26.15 -44.05 27.2 -45.1 28.3 -46.6 28.3 L-46.65 28.3 -46.75 28.3 -47.1 28.3 -47.65 28.2 -48.25 28.3" fill="url(#gradient14)" fill-rule="evenodd" stroke="none"/>
    </g>
    <linearGradient gradientTransform="matrix(0.0192, 0.0, 0.0, 0.0298, 34.5, -12.15)" gradientUnits="userSpaceOnUse" id="gradient0" spreadMethod="pad" x1="-819.2" x2="819.2">
      <stop offset="0.0" stop-color="#000000"/>
      <stop offset="1.0" stop-color="#ffffff"/>
    </linearGradient>
    <linearGradient gradientTransform="matrix(0.0, 0.0, 0.0, 1.0E-4, -23.7, 20.7)" gradientUnits="userSpaceOnUse" id="gradient1" spreadMethod="pad" x1="-819.2" x2="819.2">
      <stop offset="0.0" stop-color="#000000"/>
      <stop offset="1.0" stop-color="#ffffff"/>
    </linearGradient>
    <linearGradient gradientTransform="matrix(7.0E-4, 0.0, 0.0, 1.0E-4, -47.6, 20.95)" gradientUnits="userSpaceOnUse" id="gradient2" spreadMethod="pad" x1="-819.2" x2="819.2">
      <stop offset="0.0" stop-color="#000000"/>
      <stop offset="1.0" stop-color="#ffffff"/>
    </linearGradient>
    <linearGradient gradientTransform="matrix(7.0E-4, 0.0, 0.0, 1.0E-4, -47.7, 28.25)" gradientUnits="userSpaceOnUse" id="gradient3" spreadMethod="pad" x1="-819.2" x2="819.2">
      <stop offset="0.0" stop-color="#000000"/>
      <stop offset="1.0" stop-color="#ffffff"/>
    </linearGradient>
    <linearGradient gradientTransform="matrix(8.0E-4, 0.0, 0.0, 0.001, 46.7, 11.65)" gradientUnits="userSpaceOnUse" id="gradient4" spreadMethod="pad" x1="-819.2" x2="819.2">
      <stop offset="0.0" stop-color="#000000"/>
      <stop offset="1.0" stop-color="#ffffff"/>
    </linearGradient>
    <linearGradient gradientTransform="matrix(0.0139, 0.0, 0.0, 0.0085, 36.65, 17.1)" gradientUnits="userSpaceOnUse" id="gradient5" spreadMethod="pad" x1="-819.2" x2="819.2">
      <stop offset="0.0" stop-color="#000000"/>
      <stop offset="1.0" stop-color="#ffffff"/>
    </linearGradient>
    <linearGradient gradientTransform="matrix(0.0, -0.0233, 0.0261, 0.0, 50.2, -12.7)" gradientUnits="userSpaceOnUse" id="gradient6" spreadMethod="pad" x1="-819.2" x2="819.2">
      <stop offset="0.0" stop-color="#000000"/>
      <stop offset="1.0" stop-color="#ffffff"/>
    </linearGradient>
    <linearGradient gradientTransform="matrix(0.0142, -0.0142, 0.0203, 0.0203, 49.9, -12.8)" gradientUnits="userSpaceOnUse" id="gradient7" spreadMethod="pad" x1="-819.2" x2="819.2">
      <stop offset="0.0" stop-color="#000000"/>
      <stop offset="1.0" stop-color="#ffffff"/>
    </linearGradient>
    <linearGradient gradientTransform="matrix(0.0, -0.0059, 0.0066, 0.0, 26.45, -11.65)" gradientUnits="userSpaceOnUse" id="gradient8" spreadMethod="pad" x1="-819.2" x2="819.2">
      <stop offset="0.0" stop-color="#000000"/>
      <stop offset="1.0" stop-color="#ffffff"/>
    </linearGradient>
    <linearGradient gradientTransform="matrix(0.0, -0.0048, 0.0066, 0.0, 28.5, -11.65)" gradientUnits="userSpaceOnUse" id="gradient9" spreadMethod="pad" x1="-819.2" x2="819.2">
      <stop offset="0.0" stop-color="#000000"/>
      <stop offset="1.0" stop-color="#ffffff"/>
    </linearGradient>
    <linearGradient gradientTransform="matrix(0.0571, 0.0, 0.0, 0.0122, 13.25, 26.45)" gradientUnits="userSpaceOnUse" id="gradient10" spreadMethod="pad" x1="-819.2" x2="819.2">
      <stop offset="0.0" stop-color="#000000"/>
      <stop offset="1.0" stop-color="#ffffff"/>
    </linearGradient>
    <linearGradient gradientTransform="matrix(0.0, -0.028, 0.0377, 0.0, -16.6, -8.0)" gradientUnits="userSpaceOnUse" id="gradient11" spreadMethod="pad" x1="-819.2" x2="819.2">
      <stop offset="0.0" stop-color="#000000"/>
      <stop offset="1.0" stop-color="#ffffff"/>
    </linearGradient>
    <linearGradient gradientTransform="matrix(-0.0355, 0.0, 0.0, -0.0112, -34.55, 22.85)" gradientUnits="userSpaceOnUse" id="gradient12" spreadMethod="pad" x1="-819.2" x2="819.2">
      <stop offset="0.0" stop-color="#000000"/>
      <stop offset="1.0" stop-color="#ffffff"/>
    </linearGradient>
    <linearGradient gradientTransform="matrix(0.0, -0.0032, 0.0032, 0.0, -32.2, 26.8)" gradientUnits="userSpaceOnUse" id="gradient13" spreadMethod="pad" x1="-819.2" x2="819.2">
      <stop offset="0.0" stop-color="#000000"/>
      <stop offset="1.0" stop-color="#ffffff"/>
    </linearGradient>
    <linearGradient gradientTransform="matrix(0.0, -0.0042, 0.0045, 0.0, -47.65, 24.6)" gradientUnits="userSpaceOnUse" id="gradient14" spreadMethod="pad" x1="-819.2" x2="819.2">
      <stop offset="0.0" stop-color="#000000"/>
      <stop offset="1.0" stop-color="#ffffff"/>
    </linearGradient>
    <g id="shape3" transform="matrix(1.0, 0.0, 0.0, 1.0, 52.75, 305.65)">
      <path d="M29.4 -124.85 L29.55 -123.0 Q29.55 -121.05 29.05 -119.3 28.4 -116.85 27.1 -116.85 26.55 -116.85 26.0 -117.35 L25.2 -117.9 24.2 -116.1 Q22.35 -113.15 20.25 -113.15 16.75 -113.15 15.25 -118.3 L14.5 -117.35 Q13.55 -116.05 13.15 -116.05 12.25 -116.05 11.1 -117.65 10.0 -119.3 10.0 -120.55 10.0 -121.6 10.3 -123.05 L11.05 -123.3 13.05 -123.8 17.75 -123.3 22.45 -122.85 Q25.5 -122.85 27.9 -123.95 L29.4 -124.85 M26.3 -122.0 Q26.0 -119.85 25.2 -117.9 26.0 -119.85 26.3 -122.0 M14.65 -120.55 L15.25 -118.3 14.65 -120.55" fill="#1a1a1a" fill-rule="evenodd" stroke="none"/>
      <path d="M10.3 -123.05 L10.65 -124.3 Q11.05 -125.8 11.9 -127.1 13.6 -128.5 16.55 -129.55 19.5 -130.6 22.2 -130.6 25.8 -130.6 27.75 -128.5 29.05 -127.05 29.4 -124.85 L27.9 -123.95 Q25.5 -122.85 22.45 -122.85 L17.75 -123.3 13.05 -123.8 11.05 -123.3 10.3 -123.05" fill="#333333" fill-rule="evenodd" stroke="none"/>
      <path d="M29.4 -124.85 L29.55 -123.0 Q29.55 -121.05 29.05 -119.3 28.4 -116.85 27.1 -116.85 26.55 -116.85 26.0 -117.35 L25.2 -117.9 24.2 -116.1 Q22.35 -113.15 20.25 -113.15 16.75 -113.15 15.25 -118.3 L14.5 -117.35 Q13.55 -116.05 13.15 -116.05 12.25 -116.05 11.1 -117.65 10.0 -119.3 10.0 -120.55 10.0 -121.6 10.3 -123.05 L10.65 -124.3 Q11.05 -125.8 11.9 -127.1 13.6 -128.5 16.55 -129.55 19.5 -130.6 22.2 -130.6 25.8 -130.6 27.75 -128.5 29.05 -127.05 29.4 -124.85 M15.25 -118.3 L14.65 -120.55 M25.2 -117.9 Q26.0 -119.85 26.3 -122.0" fill="none" stroke="#000000" stroke-linecap="round" stroke-linejoin="round" stroke-opacity="0.6627451" stroke-width="1.0"/>
      <path d="M0.2 -243.65 L9.4 -230.45 0.4 -223.45 -7.9 -237.35 0.2 -243.65 M-41.85 -207.6 L-45.25 -208.0 -41.7 -210.85 -41.85 -207.6 M-50.75 -224.1 L-48.55 -246.3 -39.6 -253.35 Q-40.05 -242.75 -40.65 -232.1 L-50.75 -224.1 M-46.3 -268.55 L-44.1 -290.7 -36.6 -296.5 -27.45 -283.3 -32.95 -279.05 -37.95 -287.35 -38.55 -274.6 -46.3 -268.55 M-18.25 -270.15 L-9.05 -256.9 -16.25 -251.25 -24.65 -265.15 -18.25 -270.15" fill="#cccccc" fill-rule="evenodd" stroke="none"/>
      <path d="M-19.6 -207.75 Q-30.3 -206.3 -41.85 -207.6 L-41.7 -210.85 -7.9 -237.35 0.4 -223.45 -19.6 -207.75 M-38.55 -274.6 L-37.95 -287.35 -32.95 -279.05 -38.55 -274.6 M-39.6 -253.35 L-24.65 -265.15 -16.25 -251.25 -40.65 -232.1 Q-40.05 -242.75 -39.6 -253.35" fill="#a1a1a1" fill-rule="evenodd" stroke="none"/>
      <path d="M9.4 -230.45 L15.45 -221.75 Q10.45 -218.2 5.2 -215.5 L0.4 -223.45 9.4 -230.45 M-45.25 -208.0 L-52.25 -209.3 -50.75 -224.1 -40.65 -232.1 Q-41.1 -221.4 -41.7 -210.85 L-45.25 -208.0 M-48.55 -246.3 L-46.3 -268.55 -38.55 -274.6 -39.6 -253.35 -48.55 -246.3 M-44.1 -290.7 L-42.65 -305.15 -36.6 -296.5 -44.1 -290.7 M-27.45 -283.3 L-18.25 -270.15 -24.65 -265.15 -32.95 -279.05 -27.45 -283.3 M-9.05 -256.9 L0.2 -243.65 -7.9 -237.35 -16.25 -251.25 -9.05 -256.9" fill="#ffffff" fill-rule="evenodd" stroke="none"/>
      <path d="M5.2 -215.5 Q-6.55 -209.55 -19.6 -207.75 L0.4 -223.45 5.2 -215.5 M-38.55 -274.6 L-32.95 -279.05 -24.65 -265.15 -39.6 -253.35 -38.55 -274.6 M-16.25 -251.25 L-7.9 -237.35 -41.7 -210.85 Q-41.1 -221.4 -40.65 -232.1 L-16.25 -251.25" fill="#d9d9d9" fill-rule="evenodd" stroke="none"/>
      <path d="M0.2 -243.65 L9.4 -230.45 15.45 -221.75 Q10.45 -218.2 5.2 -215.5 -6.55 -209.55 -19.6 -207.75 -30.3 -206.3 -41.85 -207.6 L-45.25 -208.0 -52.25 -209.3 -50.75 -224.1 -48.55 -246.3 -46.3 -268.55 -44.1 -290.7 -42.65 -305.15 -36.6 -296.5 -27.45 -283.3 -18.25 -270.15 -9.05 -256.9 0.2 -243.65 -7.9 -237.35 -41.7 -210.85 -45.25 -208.0 M0.4 -223.45 L9.4 -230.45 M-38.55 -274.6 L-32.95 -279.05 -27.45 -283.3 M-46.3 -268.55 L-38.55 -274.6 M-39.6 -253.35 L-24.65 -265.15 -18.25 -270.15 M-36.6 -296.5 L-44.1 -290.7 M-16.25 -251.25 L-40.65 -232.1 -50.75 -224.1 M-9.05 -256.9 L-16.25 -251.25 M-48.55 -246.3 L-39.6 -253.35 M-19.6 -207.75 L0.4 -223.45" fill="none" stroke="#000000" stroke-linecap="round" stroke-linejoin="round" stroke-opacity="0.6627451" stroke-width="1.0"/>
    </g>
  </defs>
</svg>
