<?xml version="1.0" encoding="UTF-8" standalone="no"?>
<svg xmlns:xlink="http://www.w3.org/1999/xlink" height="531.5px" width="460.6px" xmlns="http://www.w3.org/2000/svg">
  <g transform="matrix(1.0, 0.0, 0.0, 1.0, 193.65, 334.05)">
    <use height="15.2" transform="matrix(2.0067, 0.0, 0.0, 2.0067, -6.8034, -143.5034)" width="22.6" xlink:href="#sprite0"/>
  </g>
  <defs>
    <g id="sprite0" transform="matrix(1.0, 0.0, 0.0, 1.0, 0.5, 0.5)">
      <use height="15.2" transform="matrix(1.0, 0.0, 0.0, 1.0, -0.5, -0.5)" width="22.6" xlink:href="#shape0"/>
      <use height="14.2" transform="matrix(1.0, 0.0, 0.0, 1.0, 0.0, 0.0)" width="21.6" xlink:href="#sprite1"/>
    </g>
    <g id="shape0" transform="matrix(1.0, 0.0, 0.0, 1.0, 0.5, 0.5)">
      <path d="M17.55 0.2 L21.55 0.3 18.85 3.4 17.55 0.2 M0.0 0.2 L4.15 0.3 3.25 3.5 0.0 0.2" fill="#ffffff" fill-rule="evenodd" stroke="none"/>
      <path d="M12.15 0.0 L13.75 0.0 Q15.45 1.3 16.85 2.9 L17.9 4.2 19.85 7.55 19.65 10.4 17.15 5.1 16.05 3.65 15.2 2.8 Q14.15 1.4 12.45 0.3 L12.15 0.0" fill="#fe6767" fill-rule="evenodd" stroke="none"/>
      <path d="M12.15 0.0 L12.45 0.3 Q14.15 1.4 15.2 2.8 L16.05 3.65 17.15 5.1 19.65 10.4 19.85 7.55 Q20.95 9.95 21.6 12.8 L18.15 9.35 17.3 14.2 Q17.4 5.55 10.25 0.0 L12.0 0.0 12.15 0.0 M12.45 0.3 L12.0 0.0 12.45 0.3" fill="#dd0000" fill-rule="evenodd" stroke="none"/>
      <path d="M17.55 0.2 L21.55 0.3 18.85 3.4 17.55 0.2 M19.85 7.55 L17.9 4.2 16.85 2.9 Q15.45 1.3 13.75 0.0 L12.15 0.0 12.0 0.0 12.45 0.3 Q14.15 1.4 15.2 2.8 L16.05 3.65 M19.85 7.55 Q20.95 9.95 21.6 12.8 L18.15 9.35 17.3 14.2 Q17.4 5.55 10.25 0.0 L12.0 0.0 M0.0 0.2 L3.25 3.5 4.15 0.3 0.0 0.2" fill="none" stroke="#000000" stroke-linecap="round" stroke-linejoin="round" stroke-opacity="0.6627451" stroke-width="1.0"/>
    </g>
    <g id="sprite1" transform="matrix(1.0, 0.0, 0.0, 1.0, 0.0, 0.0)">
      <use height="14.2" transform="matrix(1.0, 0.0, 0.0, 1.0, 0.0, 0.0)" width="21.6" xlink:href="#shape1"/>
    </g>
    <g id="shape1" transform="matrix(1.0, 0.0, 0.0, 1.0, 0.0, 0.0)">
      <path d="M0.0 0.2 L4.15 0.3 3.25 3.5 0.0 0.2" fill="url(#gradient0)" fill-rule="evenodd" stroke="none"/>
      <path d="M17.55 0.2 L21.55 0.3 18.85 3.4 17.55 0.2" fill="url(#gradient1)" fill-rule="evenodd" stroke="none"/>
      <path d="M10.25 0.0 L13.75 0.0 Q15.45 1.3 16.85 2.9 L17.9 4.2 19.85 7.55 Q20.95 9.95 21.6 12.8 L18.15 9.35 17.3 14.2 Q17.4 5.55 10.25 0.0" fill="url(#gradient2)" fill-rule="evenodd" stroke="none"/>
    </g>
    <linearGradient gradientTransform="matrix(-0.0074, 0.0042, -0.001, -0.0017, 2.1, 1.9)" gradientUnits="userSpaceOnUse" id="gradient0" spreadMethod="pad" x1="-819.2" x2="819.2">
      <stop offset="0.0" stop-color="#000000"/>
      <stop offset="1.0" stop-color="#ffffff"/>
    </linearGradient>
    <linearGradient gradientTransform="matrix(0.0064, 0.0064, -0.0014, 0.0014, 19.55, 1.8)" gradientUnits="userSpaceOnUse" id="gradient1" spreadMethod="pad" x1="-819.2" x2="819.2">
      <stop offset="0.0" stop-color="#000000"/>
      <stop offset="1.0" stop-color="#ffffff"/>
    </linearGradient>
    <linearGradient gradientTransform="matrix(0.0096, 0.0, 0.0, 0.0087, 15.9, 7.1)" gradientUnits="userSpaceOnUse" id="gradient2" spreadMethod="pad" x1="-819.2" x2="819.2">
      <stop offset="0.0" stop-color="#000000"/>
      <stop offset="1.0" stop-color="#ffffff"/>
    </linearGradient>
  </defs>
</svg>
