<?xml version="1.0" encoding="UTF-8" standalone="no"?>
<svg xmlns:xlink="http://www.w3.org/1999/xlink" height="531.5px" width="460.6px" xmlns="http://www.w3.org/2000/svg">
  <g transform="matrix(1.0, 0.0, 0.0, 1.0, 193.65, 334.05)">
    <use height="69.4" transform="matrix(1.4543, 0.0, 0.0, 1.4543, 16.5093, -117.5407)" width="71.25" xlink:href="#sprite0"/>
    <use height="60.1" transform="matrix(1.0, 0.0, 0.0, 1.0, -50.9, -67.95)" width="178.1" xlink:href="#shape2"/>
  </g>
  <defs>
    <g id="sprite0" transform="matrix(1.0, 0.0, 0.0, 1.0, 0.75, 0.75)">
      <use height="69.4" transform="matrix(1.0, 0.0, 0.0, 1.0, -0.75, -0.75)" width="71.25" xlink:href="#shape0"/>
      <use height="67.9" transform="matrix(1.0, 0.0, 0.0, 1.0, 0.0, 0.0)" width="69.75" xlink:href="#sprite1"/>
    </g>
    <g id="shape0" transform="matrix(1.0, 0.0, 0.0, 1.0, 0.75, 0.75)">
      <path d="M18.85 21.7 Q19.45 21.25 20.15 20.95 L20.15 20.85 20.2 20.5 20.5 20.1 Q20.75 19.85 22.75 18.8 24.8 17.75 25.9 17.95 27.5 15.9 30.5 14.9 L30.5 14.5 31.55 14.1 32.5 14.05 35.1 14.3 35.2 14.3 35.35 14.3 38.25 14.75 39.25 14.4 Q42.6 13.55 41.25 15.4 L41.8 15.85 41.85 15.9 Q43.7 17.5 44.9 17.5 L46.3 17.25 47.65 17.05 51.3 17.65 53.8 18.3 55.3 18.55 Q56.95 18.7 59.85 20.2 L59.9 20.2 Q61.1 20.2 61.1 20.95 L61.05 21.2 61.55 21.8 62.65 23.0 62.75 23.1 63.95 24.65 64.45 26.1 Q64.85 26.95 65.75 27.2 66.95 27.6 68.0 29.5 L68.6 30.65 69.1 32.45 68.75 32.55 66.5 32.55 66.7 30.85 65.35 30.6 64.1 30.3 64.45 29.0 61.3 27.5 Q61.3 27.0 61.65 26.5 L62.05 26.0 Q62.05 24.95 60.9 24.65 L58.7 24.15 58.85 23.5 58.7 23.0 58.65 23.0 Q57.75 22.95 55.45 22.1 L55.4 22.0 55.35 22.05 53.8 21.55 51.3 21.15 48.3 21.35 48.4 21.15 50.3 20.05 50.1 20.05 46.0 19.2 Q43.8 18.85 39.25 19.3 L39.25 18.9 39.8 18.4 40.4 17.6 37.15 17.35 35.7 17.25 35.95 17.05 36.1 16.85 35.65 17.2 35.05 17.4 Q33.7 17.4 30.95 18.6 27.95 19.85 27.3 20.95 L29.7 21.1 29.65 21.25 Q30.05 21.25 30.5 21.55 30.95 21.85 30.95 22.2 L30.65 22.55 29.3 23.15 28.7 23.5 Q27.1 24.45 27.1 25.7 L27.75 26.3 28.8 26.75 28.8 26.95 26.2 27.75 26.15 27.8 25.85 27.9 23.95 28.6 24.15 28.8 24.9 28.8 23.65 29.15 25.65 29.15 Q26.4 28.95 26.45 28.35 L25.85 27.9 26.2 27.9 27.95 27.7 Q30.35 27.7 31.05 28.25 30.95 29.05 30.25 29.35 L29.75 29.45 Q30.3 29.7 31.05 30.7 30.25 31.4 29.0 31.4 L22.95 30.65 18.55 29.75 18.55 29.5 16.45 29.35 16.45 29.75 Q16.9 29.75 17.25 30.1 L17.6 30.7 14.7 30.8 11.8 30.85 11.9 31.2 12.0 31.6 11.6 31.55 9.75 31.25 Q9.0 31.2 8.75 31.7 L8.65 32.25 8.65 32.35 8.65 33.2 8.65 33.35 8.45 33.3 5.85 32.65 5.85 32.6 Q6.1 31.3 6.95 30.35 L7.55 29.8 7.5 29.7 Q7.85 29.3 8.5 29.1 L10.6 29.0 11.15 29.0 13.15 29.05 10.6 28.85 10.45 28.85 9.95 28.9 Q9.35 27.2 10.6 26.85 L11.05 26.75 12.1 27.0 13.25 26.15 14.7 25.05 15.9 26.25 16.2 26.25 17.8 26.6 18.3 26.85 18.7 27.0 18.75 27.0 18.85 26.7 Q19.3 25.8 19.8 25.65 L20.5 25.5 18.85 21.7 M69.75 35.1 L69.6 38.85 69.6 38.95 68.1 39.45 66.6 39.8 66.7 37.95 66.6 35.7 69.75 35.1 M69.4 40.55 L68.6 44.1 68.35 44.2 67.15 44.5 67.1 44.55 66.95 44.55 65.65 44.9 65.65 44.85 66.3 41.4 68.1 40.9 69.4 40.55 M43.9 24.2 L42.85 24.05 42.65 23.9 43.1 23.65 Q44.25 23.05 45.55 22.85 L46.7 22.7 47.95 22.75 Q48.25 22.85 48.4 23.05 L46.75 23.6 43.9 24.2 M41.85 24.7 L41.85 24.95 43.35 25.25 46.75 24.65 Q47.9 24.3 48.35 23.9 L49.7 23.75 49.85 23.9 49.9 24.2 49.7 24.8 49.55 25.05 52.05 25.2 Q53.4 25.4 54.75 26.0 L54.75 26.55 51.95 27.15 51.95 27.5 53.25 27.7 53.25 28.1 53.4 28.15 50.7 29.4 48.25 29.65 47.6 29.55 47.6 29.4 47.5 29.4 47.4 29.25 47.6 29.05 47.6 29.0 47.05 28.5 Q45.65 27.95 42.95 27.95 L42.4 28.05 41.95 28.25 41.55 28.6 41.55 28.7 41.55 28.9 41.55 29.0 41.55 29.05 Q41.6 29.55 42.1 30.25 L41.15 30.5 42.4 30.65 42.75 30.7 44.3 30.85 44.3 31.25 44.1 31.6 43.2 31.6 38.65 31.25 Q34.2 31.35 32.9 30.1 33.9 29.45 38.3 29.2 L38.3 29.0 35.9 28.8 35.9 28.45 37.7 27.9 39.8 27.15 38.6 26.85 37.4 26.55 37.4 26.2 Q37.75 25.85 38.9 25.45 L40.95 24.7 41.85 24.7 M42.1 38.65 L49.25 38.2 50.95 38.05 51.0 39.8 51.1 42.1 48.35 42.35 44.95 42.65 42.55 42.85 42.1 38.65 M44.95 44.55 L48.35 44.25 51.15 44.05 51.25 47.65 43.05 48.4 42.7 44.55 44.95 44.55 M62.7 42.45 L62.05 41.3 Q61.2 40.2 60.0 40.2 58.65 40.2 58.4 40.7 L58.3 42.35 Q58.2 44.6 56.05 46.95 L54.55 47.2 54.25 37.65 Q58.35 37.7 62.45 36.45 L62.7 38.95 62.75 41.1 62.7 42.45 M62.1 45.75 L62.35 45.3 62.35 45.75 62.1 45.75 M22.5 20.2 L22.5 20.15 22.3 20.2 22.5 20.2 M33.65 23.6 L35.05 22.0 Q35.45 21.7 35.9 21.7 L36.65 21.8 37.55 22.05 37.95 22.65 Q37.95 23.3 37.2 23.6 36.1 23.9 35.5 24.15 L33.65 24.15 33.65 23.6 M10.4 46.15 L9.1 46.0 Q8.2 44.85 7.6 42.05 6.9 39.25 6.9 37.9 6.8 36.55 7.2 36.05 L7.95 36.15 8.1 36.15 10.95 36.6 14.25 37.15 15.95 46.05 16.1 46.75 10.4 46.15 M19.45 41.9 L18.95 37.75 Q23.75 38.8 27.95 38.5 L28.35 42.5 20.6 41.85 19.45 41.9 M19.75 43.8 L24.9 44.15 28.5 44.5 28.75 48.25 Q24.2 48.75 20.15 47.35 L19.7 43.8 19.75 43.8 M22.05 26.9 L22.1 26.8 21.75 26.85 22.05 26.9 M31.35 43.55 L31.1 38.8 Q35.0 39.35 38.9 38.7 38.7 40.1 38.9 43.85 L39.15 48.55 Q35.8 49.35 31.8 48.4 L31.35 43.55" fill="#ffffff" fill-rule="evenodd" stroke="none"/>
      <path d="M69.1 32.45 L69.15 32.8 64.3 33.7 64.3 33.45 63.35 33.5 62.05 33.35 60.6 33.05 59.05 32.55 Q58.4 32.55 57.2 33.3 L56.25 33.3 56.25 32.0 55.3 32.0 52.95 33.45 Q51.65 34.2 50.2 34.2 48.2 34.2 47.75 33.1 47.35 32.0 45.25 32.0 44.9 32.0 43.35 32.9 41.8 33.85 40.95 33.85 L40.4 33.05 Q40.3 32.9 40.0 32.9 L38.4 33.3 37.2 33.85 37.35 34.55 37.35 34.6 37.2 34.6 34.85 33.25 Q32.75 32.15 32.1 32.15 L31.55 32.35 Q31.05 32.6 31.05 33.0 L32.3 34.75 31.85 34.95 30.2 35.35 Q29.15 34.6 27.5 34.6 L27.85 32.75 27.05 32.55 Q26.2 32.55 25.1 33.6 24.0 34.6 22.45 34.6 21.4 34.6 20.15 33.5 18.9 32.35 17.5 32.35 16.85 32.35 16.2 32.75 L15.0 33.1 Q14.75 32.7 14.3 32.6 L13.85 32.55 11.65 32.9 11.65 33.8 8.7 33.35 8.65 33.35 8.65 33.2 8.65 32.35 8.65 32.25 8.75 31.7 Q9.0 31.2 9.75 31.25 L11.6 31.55 12.0 31.6 11.9 31.2 11.8 30.85 14.7 30.8 17.6 30.7 17.25 30.1 Q16.9 29.75 16.45 29.75 L16.45 29.35 18.55 29.5 18.55 29.75 22.95 30.65 29.0 31.4 Q30.25 31.4 31.05 30.7 30.3 29.7 29.75 29.45 L30.25 29.35 Q30.95 29.05 31.05 28.25 30.35 27.7 27.95 27.7 L26.2 27.9 25.85 27.9 26.45 28.35 Q26.4 28.95 25.65 29.15 L23.65 29.15 24.9 28.8 24.15 28.8 23.95 28.6 25.85 27.9 26.15 27.8 26.2 27.75 28.8 26.95 28.8 26.75 27.75 26.3 27.1 25.7 Q27.1 24.45 28.7 23.5 L29.3 23.15 30.65 22.55 30.95 22.2 Q30.95 21.85 30.5 21.55 30.05 21.25 29.65 21.25 L29.7 21.1 27.3 20.95 Q27.95 19.85 30.95 18.6 33.7 17.4 35.05 17.4 L35.65 17.2 36.1 16.85 35.95 17.05 35.7 17.25 37.15 17.35 40.4 17.6 39.8 18.4 39.25 18.9 39.25 19.3 Q43.8 18.85 46.0 19.2 L50.1 20.05 50.3 20.05 48.4 21.15 48.3 21.35 51.3 21.15 53.8 21.55 55.35 22.05 55.4 22.0 55.45 22.1 Q57.75 22.95 58.65 23.0 L58.7 23.0 58.85 23.5 58.7 24.15 60.9 24.65 Q62.05 24.95 62.05 26.0 L61.65 26.5 Q61.3 27.0 61.3 27.5 L64.45 29.0 64.1 30.3 65.35 30.6 66.7 30.85 66.5 32.55 68.75 32.55 69.1 32.45 M7.5 29.75 L7.5 29.7 7.55 29.8 7.5 29.75 M43.9 24.2 L46.75 23.6 48.4 23.05 Q48.25 22.85 47.95 22.75 L46.7 22.7 45.55 22.85 Q44.25 23.05 43.1 23.65 L42.65 23.9 42.85 24.05 43.9 24.2 M41.85 24.7 L40.95 24.7 38.9 25.45 Q37.75 25.85 37.4 26.2 L37.4 26.55 38.6 26.85 39.8 27.15 37.7 27.9 35.9 28.45 35.9 28.8 38.3 29.0 38.3 29.2 Q33.9 29.45 32.9 30.1 34.2 31.35 38.65 31.25 L43.2 31.6 44.1 31.6 44.3 31.25 44.3 30.85 42.75 30.7 42.4 30.65 41.15 30.5 42.1 30.25 Q41.6 29.55 41.55 29.05 L41.55 29.0 41.55 28.9 41.55 28.7 41.55 28.6 41.95 28.25 42.4 28.05 42.95 27.95 Q45.65 27.95 47.05 28.5 L47.6 29.0 47.6 29.05 47.4 29.25 47.5 29.4 47.6 29.4 47.6 29.55 48.25 29.65 50.7 29.4 53.4 28.15 53.25 28.1 53.25 27.7 51.95 27.5 51.95 27.15 54.75 26.55 54.75 26.0 Q53.4 25.4 52.05 25.2 L49.55 25.05 49.7 24.8 49.9 24.2 49.85 23.9 49.7 23.75 48.35 23.9 Q47.9 24.3 46.75 24.65 L43.35 25.25 41.85 24.95 41.85 24.7 M59.05 26.75 L58.5 26.2 Q57.85 25.8 57.2 25.8 55.95 25.8 55.15 26.4 54.45 26.95 54.4 27.7 L55.9 27.9 Q59.05 27.9 59.05 26.75 M62.25 29.05 L62.2 28.9 62.1 28.85 Q62.1 29.05 62.25 29.05 M33.65 23.6 L33.65 24.15 35.5 24.15 Q36.1 23.9 37.2 23.6 37.95 23.3 37.95 22.65 L37.55 22.05 36.65 21.8 35.9 21.7 Q35.45 21.7 35.05 22.0 L33.65 23.6" fill="#edece0" fill-rule="evenodd" stroke="none"/>
      <path d="M59.05 26.75 Q59.05 27.9 55.9 27.9 L54.4 27.7 Q54.45 26.95 55.15 26.4 55.95 25.8 57.2 25.8 57.85 25.8 58.5 26.2 L59.05 26.75 M11.65 33.8 L11.65 32.9 13.85 32.55 14.3 32.6 Q14.75 32.7 15.0 33.1 L16.2 32.75 Q16.85 32.35 17.5 32.35 18.9 32.35 20.15 33.5 21.4 34.6 22.45 34.6 24.0 34.6 25.1 33.6 26.2 32.55 27.05 32.55 L27.85 32.75 27.5 34.6 Q29.15 34.6 30.2 35.35 L31.85 34.95 32.3 34.75 31.05 33.0 Q31.05 32.6 31.55 32.35 L32.1 32.15 Q32.75 32.15 34.85 33.25 L37.2 34.6 37.35 34.6 37.35 34.55 37.2 33.85 38.4 33.3 40.0 32.9 Q40.3 32.9 40.4 33.05 L40.95 33.85 Q41.8 33.85 43.35 32.9 44.9 32.0 45.25 32.0 47.35 32.0 47.75 33.1 48.2 34.2 50.2 34.2 51.65 34.2 52.95 33.45 L55.3 32.0 56.25 32.0 56.25 33.3 57.2 33.3 Q58.4 32.55 59.05 32.55 L60.6 33.05 62.05 33.35 63.35 33.5 64.3 33.45 64.3 33.7 63.1 33.85 56.75 34.5 46.15 35.35 36.85 35.75 17.4 34.5 12.8 33.95 11.65 33.8" fill="#d9d6bf" fill-rule="evenodd" stroke="none"/>
      <path d="M52.65 66.7 L44.75 67.75 37.5 67.9 28.15 67.75 25.0 67.55 25.05 67.4 Q25.25 67.05 25.25 65.4 L25.25 65.0 27.2 65.45 34.2 65.6 34.8 65.65 45.7 65.05 46.1 65.0 46.0 65.15 50.4 65.95 52.65 66.7 M11.65 33.8 L12.8 33.95 17.4 34.5 36.85 35.75 46.15 35.35 56.75 34.5 63.1 33.85 63.8 34.15 64.9 34.55 65.7 36.15 65.8 38.7 Q65.8 42.5 63.7 46.55 62.1 49.7 59.45 52.7 L58.85 52.9 Q49.9 56.4 48.1 56.8 L39.35 57.4 25.85 56.35 Q19.3 55.25 14.55 52.8 L13.5 51.4 12.8 50.35 10.4 46.15 16.1 46.75 15.95 46.05 14.25 37.15 10.95 36.6 8.1 36.15 8.05 35.55 8.35 33.75 8.45 33.3 8.65 33.35 8.7 33.35 11.65 33.8 M44.95 44.55 L42.7 44.55 43.05 48.4 51.25 47.65 51.15 44.05 48.35 44.25 44.95 44.55 M42.1 38.65 L42.55 42.85 44.95 42.65 48.35 42.35 51.1 42.1 51.0 39.8 50.95 38.05 49.25 38.2 42.1 38.65 M62.7 42.45 L62.75 41.1 62.7 38.95 62.45 36.45 Q58.35 37.7 54.25 37.65 L54.55 47.2 56.05 46.95 53.8 49.1 54.65 49.55 56.2 49.9 Q58.1 49.9 60.35 47.85 61.5 46.8 62.1 45.75 L62.35 45.75 62.35 45.3 62.55 43.2 62.7 42.45 M24.15 62.3 L24.5 62.25 24.6 62.35 24.15 62.3 M26.35 62.55 L26.45 62.4 26.45 62.55 26.35 62.55 M19.45 41.9 L20.6 41.85 28.35 42.5 27.95 38.5 Q23.75 38.8 18.95 37.75 L19.45 41.9 M19.75 43.8 L19.7 43.8 20.15 47.35 Q24.2 48.75 28.75 48.25 L28.5 44.5 24.9 44.15 19.75 43.8 M31.35 43.55 L31.8 48.4 Q35.8 49.35 39.15 48.55 L38.9 43.85 Q38.7 40.1 38.9 38.7 35.0 39.35 31.1 38.8 L31.35 43.55" fill="#67b3fe" fill-rule="evenodd" stroke="none"/>
      <path d="M56.05 46.95 Q58.2 44.6 58.3 42.35 L58.4 40.7 Q58.65 40.2 60.0 40.2 61.2 40.2 62.05 41.3 L62.7 42.45 62.55 43.2 62.35 45.3 62.1 45.75 58.55 46.5 57.15 46.75 56.05 46.95" fill="#deeffe" fill-rule="evenodd" stroke="none"/>
      <path d="M25.0 67.55 Q22.4 67.2 22.05 66.55 21.65 65.7 22.65 63.65 23.75 64.5 25.15 64.95 L25.2 64.8 25.25 65.0 25.25 65.4 Q25.25 67.05 25.05 67.4 L25.0 67.55 M23.4 62.2 Q11.7 56.5 7.75 46.75 6.2 42.85 5.85 38.35 5.65 35.55 5.85 32.65 L8.45 33.3 8.35 33.75 8.05 35.55 8.1 36.15 7.95 36.15 7.2 36.05 Q6.8 36.55 6.9 37.9 6.9 39.25 7.6 42.05 8.2 44.85 9.1 46.0 L10.4 46.15 12.8 50.35 13.5 51.4 14.55 52.8 Q16.1 54.6 19.7 57.8 23.15 60.85 24.15 62.3 L23.4 62.2 M56.05 46.95 L57.15 46.75 58.55 46.5 62.1 45.75 Q61.5 46.8 60.35 47.85 58.1 49.9 56.2 49.9 L54.65 49.55 53.8 49.1 56.05 46.95" fill="#a3d1fe" fill-rule="evenodd" stroke="none"/>
      <path d="M7.55 29.8 L7.45 29.75 7.5 29.75 7.55 29.8 M15.9 23.8 L16.9 23.0 17.2 23.45 18.75 27.0 18.7 27.0 18.3 26.85 16.05 24.05 15.9 23.8 M62.25 29.05 Q62.1 29.05 62.1 28.85 L62.2 28.9 62.25 29.05 M22.5 20.2 L22.3 20.2 22.5 20.15 22.5 20.2 M22.05 26.9 L21.75 26.85 22.1 26.8 22.05 26.9" fill="#fcffee" fill-rule="evenodd" stroke="none"/>
      <path d="M69.15 32.8 L69.6 32.6 69.75 35.1 66.6 35.7 66.7 37.95 66.5 39.8 66.6 39.8 68.1 39.45 69.6 38.95 69.4 40.55 68.1 40.9 66.3 41.4 65.65 44.85 65.65 44.9 66.95 44.55 67.1 44.55 67.15 44.5 68.35 44.2 68.6 44.1 Q67.3 48.65 64.5 52.4 60.1 58.3 52.05 62.2 L52.95 63.85 Q53.75 65.65 53.35 66.3 L52.65 66.7 50.4 65.95 46.0 65.15 46.1 65.0 45.7 65.05 34.8 65.65 34.2 65.6 27.2 65.45 25.25 65.0 25.2 64.8 25.15 64.95 Q23.75 64.5 22.65 63.65 L23.4 62.2 24.15 62.3 Q23.15 60.85 19.7 57.8 16.1 54.6 14.55 52.8 19.3 55.25 25.85 56.35 L39.35 57.4 48.1 56.8 Q49.9 56.4 58.85 52.9 L59.45 52.7 Q62.1 49.7 63.7 46.55 65.8 42.5 65.8 38.7 L65.7 36.15 64.9 34.55 63.8 34.15 63.1 33.85 64.3 33.7 69.15 32.8 M24.6 62.35 L24.5 62.25 24.15 62.3 24.6 62.35 26.0 62.55 26.35 62.55 26.0 62.55 24.6 62.35 M26.45 62.55 L26.45 62.4 26.35 62.55 26.45 62.55 26.95 62.65 37.75 63.2 44.35 63.0 52.05 62.2 44.35 63.0 37.75 63.2 26.95 62.65 26.45 62.55" fill="#2f82de" fill-rule="evenodd" stroke="none"/>
      <path d="M0.05 5.8 Q-0.3 3.5 1.9 3.35 L11.05 16.7 Q7.45 13.85 5.2 11.7 2.0 8.7 0.05 5.8 M14.05 16.6 L6.6 0.6 Q9.7 -0.8 10.4 1.15 13.8 10.05 17.05 17.6 15.55 17.55 14.05 16.6" fill="#dbbc80" fill-rule="evenodd" stroke="none"/>
      <path d="M14.7 25.05 L0.2 6.6 0.05 5.8 Q2.0 8.7 5.2 11.7 7.45 13.85 11.05 16.7 L15.9 23.8 15.9 23.85 16.05 24.05 18.3 26.85 17.8 26.6 16.2 26.25 15.9 26.25 14.7 25.05 M17.2 23.45 L14.05 16.6 Q15.55 17.55 17.05 17.6 L18.5 20.9 18.85 21.7 20.5 25.5 19.8 25.65 Q19.3 25.8 18.85 26.7 L18.75 27.0 17.2 23.45" fill="#b08e52" fill-rule="evenodd" stroke="none"/>
      <path d="M69.1 32.45 L69.15 32.8 69.6 32.6 69.75 35.1 69.6 38.85 M69.6 38.95 L69.4 40.55 68.6 44.1 Q67.3 48.65 64.5 52.4 60.1 58.3 52.05 62.2 L52.95 63.85 Q53.75 65.65 53.35 66.3 L52.65 66.7 44.75 67.75 37.5 67.9 28.15 67.75 25.0 67.55 Q22.4 67.2 22.05 66.55 21.65 65.7 22.65 63.65 L23.4 62.2 Q11.7 56.5 7.75 46.75 6.2 42.85 5.85 38.35 5.65 35.55 5.85 32.65 L5.85 32.6 M14.7 25.05 L0.2 6.6 0.05 5.8 Q-0.3 3.5 1.9 3.35 L11.05 16.7 15.9 23.8 16.9 23.0 17.2 23.45 14.05 16.6 6.6 0.6 Q9.7 -0.8 10.4 1.15 13.8 10.05 17.05 17.6 L18.5 20.9 18.85 21.7 20.5 25.5 19.8 25.65 Q19.3 25.8 18.85 26.7 L18.75 27.0 18.7 27.0 18.3 26.85 17.8 26.6 16.2 26.25 15.9 26.25 14.7 25.05 M11.65 33.8 L12.8 33.95 17.4 34.5 36.85 35.75 46.15 35.35 56.75 34.5 63.1 33.85 64.3 33.7 69.15 32.8 M24.6 62.35 L26.0 62.55 26.35 62.55 26.45 62.55 26.95 62.65 37.75 63.2 44.35 63.0 52.05 62.2 M16.05 24.05 L15.9 23.8 15.9 23.85 16.05 24.05 18.3 26.85 M8.45 33.3 L8.65 33.35 8.7 33.35 11.65 33.8 M8.45 33.3 L5.85 32.65 M17.2 23.45 L18.75 27.0 M24.15 62.3 L24.6 62.35 M23.4 62.2 L24.15 62.3" fill="none" stroke="#000000" stroke-linecap="round" stroke-linejoin="round" stroke-opacity="0.6627451" stroke-width="1.5"/>
    </g>
    <g id="sprite1" transform="matrix(1.0, 0.0, 0.0, 1.0, 0.0, 0.0)">
      <use height="67.9" transform="matrix(1.0, 0.0, 0.0, 1.0, 0.0, 0.0)" width="69.75" xlink:href="#shape1"/>
    </g>
    <g id="shape1" transform="matrix(1.0, 0.0, 0.0, 1.0, 0.0, 0.0)">
      <path d="M62.25 29.05 Q62.1 29.05 62.1 28.85 L62.2 28.9 62.25 29.05" fill="url(#gradient0)" fill-rule="evenodd" stroke="none"/>
      <path d="M22.1 26.8 L22.05 26.9 21.75 26.85 22.1 26.8" fill="url(#gradient1)" fill-rule="evenodd" stroke="none"/>
      <path d="M22.3 20.2 L22.5 20.15 22.5 20.2 22.3 20.2" fill="url(#gradient2)" fill-rule="evenodd" stroke="none"/>
      <path d="M7.5 29.75 L7.5 29.7 7.55 29.8 7.5 29.75" fill="url(#gradient3)" fill-rule="evenodd" stroke="none"/>
      <path d="M7.55 29.8 L7.45 29.75 7.5 29.75 7.55 29.8" fill="url(#gradient4)" fill-rule="evenodd" stroke="none"/>
      <path d="M17.2 23.45 L6.6 0.6 Q9.7 -0.8 10.4 1.15 13.8 10.05 17.05 17.6 L18.5 20.9 18.85 21.7 20.5 25.5 19.8 25.65 Q19.3 25.8 18.85 26.7 L18.75 27.0 17.2 23.45" fill="url(#gradient5)" fill-rule="evenodd" stroke="none"/>
      <path d="M14.7 25.05 L0.2 6.6 0.05 5.8 Q-0.3 3.5 1.9 3.35 L15.9 23.8 15.9 23.85 16.05 24.05 18.3 26.85 17.8 26.6 16.2 26.25 15.9 26.25 14.7 25.05" fill="url(#gradient6)" fill-rule="evenodd" stroke="none"/>
      <path d="M69.15 32.8 L69.6 32.6 69.75 35.1 69.6 38.85 69.6 38.95 69.4 40.55 68.6 44.1 Q67.3 48.65 64.5 52.4 60.1 58.3 52.05 62.2 L52.95 63.85 Q53.75 65.65 53.35 66.3 L52.65 66.7 44.75 67.75 37.5 67.9 28.15 67.75 25.0 67.55 Q22.4 67.2 22.05 66.55 21.65 65.7 22.65 63.65 L23.4 62.2 Q11.7 56.5 7.75 46.75 6.2 42.85 5.85 38.35 5.65 35.55 5.85 32.65 L8.45 33.3 8.65 33.35 8.7 33.35 11.65 33.8 12.8 33.95 17.4 34.5 36.85 35.75 46.15 35.35 56.75 34.5 63.1 33.85 64.3 33.7 69.15 32.8" fill="url(#gradient7)" fill-rule="evenodd" stroke="none"/>
      <path d="M22.5 20.15 L23.75 19.8 Q26.9 19.05 27.8 17.65 L28.45 16.85 Q29.35 15.85 30.9 15.25 30.35 15.0 30.5 14.5 L31.55 14.1 32.5 14.05 35.1 14.3 35.2 14.3 35.35 14.3 38.25 14.75 39.25 14.4 Q42.6 13.55 41.25 15.4 L41.8 15.85 Q43.7 17.5 44.9 17.5 L46.3 17.25 47.65 17.05 51.3 17.65 55.3 18.55 Q56.95 18.7 59.85 20.2 L59.9 20.2 Q61.1 20.2 61.1 20.95 L61.05 21.2 61.55 21.8 62.75 23.1 63.95 24.65 64.45 26.1 Q64.85 26.95 65.75 27.2 66.95 27.6 68.0 29.5 L68.6 30.65 69.1 32.45 69.15 32.8 64.3 33.7 63.1 33.85 56.75 34.5 46.15 35.35 36.85 35.75 17.4 34.5 12.8 33.95 11.65 33.8 8.7 33.35 8.65 33.35 8.45 33.3 5.85 32.65 5.85 32.6 Q6.15 30.9 7.55 29.8 L7.5 29.7 Q7.85 29.3 8.5 29.1 L11.15 29.0 13.15 29.05 10.45 28.85 9.95 28.9 Q9.25 26.9 11.05 26.75 L12.1 27.0 13.25 26.15 14.7 25.05 15.9 26.25 16.2 26.25 17.8 26.6 18.3 26.85 16.05 24.05 15.9 23.8 16.9 23.0 17.2 23.45 18.75 27.0 18.85 26.7 Q19.3 25.8 19.8 25.65 L20.5 25.5 18.85 21.7 Q19.45 21.25 20.15 20.95 L20.15 20.85 Q20.15 20.25 20.6 20.2 L22.3 20.2 22.5 20.2 22.5 20.15 M62.25 29.05 L62.2 28.9 62.1 28.85 Q62.1 29.05 62.25 29.05 M22.1 26.8 L21.75 26.85 22.05 26.9 22.1 26.8" fill="url(#gradient8)" fill-rule="evenodd" stroke="none"/>
    </g>
    <linearGradient gradientTransform="matrix(1.0E-4, 0.0, 0.0, 1.0E-4, 62.15, 28.95)" gradientUnits="userSpaceOnUse" id="gradient0" spreadMethod="pad" x1="-819.2" x2="819.2">
      <stop offset="0.0" stop-color="#000000"/>
      <stop offset="1.0" stop-color="#ffffff"/>
    </linearGradient>
    <linearGradient gradientTransform="matrix(2.0E-4, 0.0, 0.0, 1.0E-4, 21.9, 26.85)" gradientUnits="userSpaceOnUse" id="gradient1" spreadMethod="pad" x1="-819.2" x2="819.2">
      <stop offset="0.0" stop-color="#000000"/>
      <stop offset="1.0" stop-color="#ffffff"/>
    </linearGradient>
    <linearGradient gradientTransform="matrix(1.0E-4, 0.0, 0.0, 0.0, 22.4, 20.15)" gradientUnits="userSpaceOnUse" id="gradient2" spreadMethod="pad" x1="-819.2" x2="819.2">
      <stop offset="0.0" stop-color="#000000"/>
      <stop offset="1.0" stop-color="#ffffff"/>
    </linearGradient>
    <linearGradient gradientTransform="matrix(0.0, 0.0, 0.0, 1.0E-4, 7.5, 29.75)" gradientUnits="userSpaceOnUse" id="gradient3" spreadMethod="pad" x1="-819.2" x2="819.2">
      <stop offset="0.0" stop-color="#000000"/>
      <stop offset="1.0" stop-color="#ffffff"/>
    </linearGradient>
    <linearGradient gradientTransform="matrix(1.0E-4, 0.0, 0.0, 0.0, 7.5, 29.75)" gradientUnits="userSpaceOnUse" id="gradient4" spreadMethod="pad" x1="-819.2" x2="819.2">
      <stop offset="0.0" stop-color="#000000"/>
      <stop offset="1.0" stop-color="#ffffff"/>
    </linearGradient>
    <linearGradient gradientTransform="matrix(-0.0167, 0.003, -0.0029, -0.0162, 11.2, 13.2)" gradientUnits="userSpaceOnUse" id="gradient5" spreadMethod="pad" x1="-819.2" x2="819.2">
      <stop offset="0.0" stop-color="#000000"/>
      <stop offset="1.0" stop-color="#ffffff"/>
    </linearGradient>
    <linearGradient gradientTransform="matrix(-0.0178, 0.0021, -0.0016, -0.0142, 4.4, 14.7)" gradientUnits="userSpaceOnUse" id="gradient6" spreadMethod="pad" x1="-819.2" x2="819.2">
      <stop offset="0.0" stop-color="#000000"/>
      <stop offset="1.0" stop-color="#ffffff"/>
    </linearGradient>
    <linearGradient gradientTransform="matrix(-0.0611, -0.0011, 4.0E-4, -0.0215, 42.75, 54.35)" gradientUnits="userSpaceOnUse" id="gradient7" spreadMethod="pad" x1="-819.2" x2="819.2">
      <stop offset="0.0" stop-color="#000000"/>
      <stop offset="1.0" stop-color="#ffffff"/>
    </linearGradient>
    <linearGradient gradientTransform="matrix(0.0018, -0.0392, 0.0132, 6.0E-4, 41.2, 17.7)" gradientUnits="userSpaceOnUse" id="gradient8" spreadMethod="pad" x1="-819.2" x2="819.2">
      <stop offset="0.0" stop-color="#000000"/>
      <stop offset="1.0" stop-color="#ffffff"/>
    </linearGradient>
    <g id="shape2" transform="matrix(1.0, 0.0, 0.0, 1.0, 50.9, 67.95)">
      <path d="M51.55 -39.65 Q48.0 -38.6 46.95 -38.6 L46.55 -38.6 46.3 -38.7 46.25 -38.7 46.1 -39.7 Q46.2 -42.6 52.65 -45.15 59.1 -47.6 59.2 -50.75 59.25 -52.6 58.15 -56.05 L57.95 -56.65 58.9 -56.75 62.2 -56.9 Q63.15 -56.85 64.0 -55.0 64.6 -53.45 64.6 -52.5 L64.55 -51.7 Q64.5 -49.5 62.15 -47.85 60.45 -46.7 57.6 -45.75 53.8 -44.55 52.75 -44.0 50.6 -42.9 50.6 -41.2 50.6 -40.25 51.2 -39.8 L51.55 -39.65 M38.0 -53.2 Q32.8 -52.05 30.7 -52.0 27.6 -52.05 26.55 -53.7 26.05 -54.7 25.6 -56.55 L24.15 -59.1 23.8 -59.7 23.75 -59.7 23.4 -60.05 24.45 -60.7 27.1 -61.6 28.5 -61.8 28.85 -61.8 29.35 -61.3 29.4 -61.3 29.75 -60.65 31.3 -57.95 Q31.8 -55.95 32.4 -54.9 33.55 -53.1 36.9 -53.1 L38.0 -53.2 M5.3 -49.35 L3.15 -48.95 Q-6.45 -47.35 -10.3 -48.2 -14.25 -49.0 -19.05 -50.35 -23.85 -51.75 -25.95 -53.45 -26.7 -54.0 -29.8 -55.65 L-31.45 -56.95 -32.15 -57.45 -33.85 -58.4 -31.95 -59.75 -30.8 -58.6 -30.05 -58.1 -28.3 -56.75 -24.15 -54.4 Q-21.85 -52.5 -16.75 -51.05 -11.6 -49.65 -7.35 -48.8 L5.3 -49.35 M-50.35 -25.85 L-46.85 -23.5 Q-37.85 -17.65 -26.6 -15.35 -13.0 -12.5 -3.7 -12.85 L-1.05 -12.95 0.65 -12.95 Q10.75 -13.25 20.7 -15.45 L25.8 -16.55 37.35 -18.9 Q38.2 -19.55 39.7 -19.45 L42.7 -19.9 44.35 -19.5 47.15 -18.75 47.65 -18.6 45.55 -18.4 44.2 -17.45 31.8 -14.85 26.25 -13.65 Q15.55 -11.25 4.6 -10.85 L2.8 -10.85 0.05 -10.7 Q-10.0 -10.25 -24.7 -13.3 -36.8 -15.75 -46.55 -22.0 L-50.15 -24.55 -50.25 -25.35 -50.35 -25.85 M56.15 -16.95 L56.75 -17.1 Q58.45 -19.95 59.2 -23.2 L59.5 -24.75 59.5 -25.1 64.75 -24.6 67.95 -24.75 68.05 -24.5 68.05 -23.85 67.7 -22.2 Q66.9 -18.7 65.15 -15.65 L63.85 -15.35 61.25 -15.8 59.9 -16.1 56.15 -16.95 M58.1 -25.5 L56.5 -25.5 Q52.65 -25.5 50.75 -26.2 50.0 -26.3 49.3 -26.85 48.5 -27.55 48.5 -28.15 48.45 -28.95 48.65 -29.45 L48.65 -29.75 Q48.6 -30.65 51.65 -31.55 L56.5 -33.0 59.7 -34.15 61.8 -34.9 Q62.8 -35.45 62.8 -36.95 L62.9 -37.65 Q62.85 -39.15 62.25 -40.05 L62.1 -40.5 62.0 -40.7 67.0 -42.25 68.8 -42.65 68.85 -42.5 69.0 -42.55 69.8 -42.2 70.15 -41.7 70.75 -40.8 70.95 -40.35 Q71.55 -39.4 71.6 -37.8 L71.5 -37.05 Q71.5 -35.4 70.45 -34.8 L68.15 -33.95 64.8 -32.65 59.55 -31.15 Q56.25 -30.15 56.3 -29.2 L56.3 -28.9 Q56.1 -28.35 56.15 -27.5 56.1 -26.85 57.05 -26.1 L58.1 -25.5 M120.3 -60.75 L123.7 -59.5 Q125.5 -58.8 124.5 -54.75 123.6 -51.05 121.95 -50.6 L119.0 -50.9 120.55 -51.45 Q121.6 -52.5 121.75 -53.65 L121.75 -56.05 Q121.75 -58.3 120.3 -60.75 M114.55 -40.05 Q114.55 -41.65 115.45 -44.65 L116.75 -49.1 120.6 -48.55 Q120.4 -48.15 120.35 -47.55 L120.15 -44.8 118.65 -40.65 Q118.05 -40.05 115.0 -40.05 L114.55 -40.05 M115.6 -25.65 L116.35 -28.05 117.5 -31.8 117.75 -34.95 Q117.75 -36.35 117.2 -37.4 L118.5 -37.1 Q121.25 -36.6 121.25 -34.15 L120.65 -30.0 Q119.75 -26.65 119.25 -26.15 118.65 -25.65 115.7 -25.65 L115.6 -25.65" fill="#bdbdbd" fill-rule="evenodd" stroke="none"/>
      <path d="M57.95 -56.65 L58.15 -56.05 Q59.25 -52.6 59.2 -50.75 59.1 -47.6 52.65 -45.15 46.2 -42.6 46.1 -39.7 L46.25 -38.7 46.3 -38.7 46.55 -38.6 46.95 -38.6 Q48.0 -38.6 51.55 -39.65 52.15 -39.4 53.8 -38.85 L54.05 -38.75 54.5 -38.75 Q55.9 -38.75 61.4 -40.5 L62.0 -40.7 62.1 -40.5 62.25 -40.05 Q62.85 -39.15 62.9 -37.65 L62.8 -36.95 Q62.8 -35.45 61.8 -34.9 L59.7 -34.15 56.5 -33.0 51.65 -31.55 Q48.6 -30.65 48.65 -29.75 L48.65 -29.45 Q48.45 -28.95 48.5 -28.15 48.5 -27.55 49.3 -26.85 50.0 -26.3 50.75 -26.2 52.65 -25.5 56.5 -25.5 L58.1 -25.5 58.6 -25.35 59.5 -25.1 59.5 -24.75 59.2 -23.2 Q58.45 -19.95 56.75 -17.1 L56.15 -16.95 54.75 -17.35 51.75 -18.1 50.0 -18.5 47.65 -18.6 47.15 -18.75 44.35 -19.5 42.7 -19.9 39.7 -19.45 Q38.2 -19.55 37.35 -18.9 L25.8 -16.55 20.7 -15.45 Q10.75 -13.25 0.65 -12.95 L-1.05 -12.95 -3.7 -12.85 Q-13.0 -12.5 -26.6 -15.35 -37.85 -17.65 -46.85 -23.5 L-50.35 -25.85 -50.55 -27.75 Q-50.6 -32.65 -48.75 -37.95 -47.1 -43.05 -44.2 -47.15 -41.55 -50.95 -38.3 -54.3 L-33.85 -58.4 -32.15 -57.45 -31.45 -56.95 -29.8 -55.65 Q-26.7 -54.0 -25.95 -53.45 -23.85 -51.75 -19.05 -50.35 -14.25 -49.0 -10.3 -48.2 -6.45 -47.35 3.15 -48.95 L5.3 -49.35 7.15 -49.65 Q17.45 -51.4 20.0 -53.5 22.65 -55.65 22.8 -56.95 L22.85 -57.6 22.8 -59.1 Q22.8 -59.6 23.1 -59.9 L23.4 -60.05 23.75 -59.7 23.8 -59.7 24.15 -59.1 25.6 -56.55 Q26.05 -54.7 26.55 -53.7 27.6 -52.05 30.7 -52.0 32.8 -52.05 38.0 -53.2 40.9 -53.45 47.1 -54.95 52.55 -56.25 57.95 -56.65 M120.3 -60.75 Q121.75 -58.3 121.75 -56.05 L121.75 -53.65 Q121.6 -52.5 120.55 -51.45 L119.0 -50.9 116.25 -51.5 Q105.35 -54.15 103.25 -57.1 102.5 -58.2 102.65 -59.15 102.75 -60.15 103.15 -61.45 L103.75 -63.0 104.9 -64.6 105.9 -65.45 106.25 -65.7 106.8 -65.9 110.7 -64.7 Q112.05 -64.35 117.7 -61.7 L120.3 -60.75 M114.55 -40.05 L107.4 -40.9 Q101.2 -41.85 98.0 -42.85 94.85 -43.8 94.3 -44.55 94.1 -44.8 94.1 -46.45 L94.2 -48.6 94.35 -49.2 Q94.7 -51.15 96.4 -52.35 L98.05 -52.55 103.65 -51.9 107.5 -51.2 108.65 -51.15 113.4 -49.85 116.75 -49.1 115.45 -44.65 Q114.55 -41.65 114.55 -40.05 M115.6 -25.65 Q111.45 -25.65 107.8 -26.7 L103.95 -27.9 Q100.8 -28.5 98.8 -29.4 96.6 -30.4 96.6 -31.45 96.6 -32.45 97.0 -34.05 L97.65 -36.75 98.3 -39.45 Q98.35 -39.9 98.7 -40.15 L101.0 -39.45 108.0 -38.35 115.0 -37.55 116.65 -37.55 117.2 -37.4 Q117.75 -36.35 117.75 -34.95 L117.5 -31.8 116.35 -28.05 115.6 -25.65" fill="#999999" fill-rule="evenodd" stroke="none"/>
      <path d="M51.55 -39.65 L51.2 -39.8 Q50.6 -40.25 50.6 -41.2 50.6 -42.9 52.75 -44.0 53.8 -44.55 57.6 -45.75 60.45 -46.7 62.15 -47.85 64.5 -49.5 64.55 -51.7 L64.6 -52.5 Q64.6 -53.45 64.0 -55.0 63.15 -56.85 62.2 -56.9 L58.9 -56.75 57.95 -56.65 Q52.55 -56.25 47.1 -54.95 40.9 -53.45 38.0 -53.2 L36.9 -53.1 Q33.55 -53.1 32.4 -54.9 31.8 -55.95 31.3 -57.95 L29.75 -60.65 29.4 -61.3 29.35 -61.3 28.85 -61.8 28.5 -61.8 27.1 -61.6 24.45 -60.7 23.4 -60.05 23.1 -59.9 Q22.8 -59.6 22.8 -59.1 L22.85 -57.6 22.8 -56.95 Q22.65 -55.65 20.0 -53.5 17.45 -51.4 7.15 -49.65 L5.3 -49.35 -7.35 -48.8 Q-11.6 -49.65 -16.75 -51.05 -21.85 -52.5 -24.15 -54.4 L-28.3 -56.75 -30.05 -58.1 -30.8 -58.6 -31.95 -59.75 Q-32.7 -60.7 -32.6 -61.8 L-32.2 -61.95 -29.45 -60.55 -28.95 -60.25 -22.95 -56.9 Q-12.9 -51.65 -5.85 -51.7 1.3 -51.75 7.0 -53.05 L14.45 -54.95 17.65 -55.8 Q18.7 -56.3 19.15 -56.95 L19.4 -59.2 19.4 -59.25 Q19.7 -62.45 25.5 -64.3 28.55 -65.35 30.05 -64.9 L30.1 -64.85 Q31.1 -64.5 31.25 -63.35 L33.6 -59.45 Q35.6 -55.85 36.7 -55.85 L45.1 -57.5 Q51.35 -58.95 56.55 -59.4 L56.9 -59.4 58.3 -59.55 Q64.15 -59.95 66.05 -57.65 67.55 -55.8 67.6 -50.05 67.6 -49.2 67.1 -48.4 L66.0 -47.2 65.65 -46.9 Q64.45 -45.95 62.75 -45.15 L59.2 -44.05 55.9 -42.75 55.85 -42.7 Q58.65 -42.95 61.3 -43.8 63.85 -44.75 66.35 -45.3 L66.55 -45.25 67.7 -45.55 67.75 -45.55 68.25 -45.7 68.95 -45.65 70.05 -45.65 70.3 -45.5 70.65 -45.3 71.25 -44.7 72.05 -43.65 72.25 -43.25 72.3 -43.15 72.45 -42.75 72.9 -41.5 74.05 -38.8 74.1 -36.9 Q74.15 -34.85 73.8 -34.3 73.0 -32.85 69.5 -31.4 67.75 -30.65 64.2 -29.6 59.95 -28.35 58.3 -28.3 L58.35 -27.9 Q58.8 -27.15 60.95 -27.15 L64.95 -26.95 65.5 -27.0 69.4 -26.65 Q70.2 -26.2 70.3 -25.5 L70.35 -23.85 Q70.25 -20.45 68.95 -17.2 L68.5 -15.65 Q68.0 -12.9 64.3 -12.85 L59.7 -13.5 55.3 -14.55 48.2 -16.25 43.9 -14.95 Q39.4 -13.55 37.3 -13.1 L31.8 -12.2 26.2 -11.35 4.65 -7.9 0.9 -7.85 -20.45 -9.05 Q-32.1 -10.85 -39.35 -15.7 L-45.45 -19.15 -46.6 -19.8 Q-49.1 -21.5 -50.1 -22.8 -50.85 -23.6 -50.9 -24.3 L-50.8 -25.0 -50.75 -25.05 -50.15 -24.55 -46.55 -22.0 Q-36.8 -15.75 -24.7 -13.3 -10.0 -10.25 0.05 -10.7 L2.8 -10.85 4.6 -10.85 Q15.55 -11.25 26.25 -13.65 L31.8 -14.85 44.2 -17.45 45.55 -18.4 47.65 -18.6 50.0 -18.5 51.75 -18.1 54.75 -17.35 56.15 -16.95 59.9 -16.1 61.25 -15.8 63.85 -15.35 65.15 -15.65 Q66.9 -18.7 67.7 -22.2 L68.05 -23.85 68.05 -24.5 67.95 -24.75 64.75 -24.6 59.5 -25.1 58.6 -25.35 58.1 -25.5 57.05 -26.1 Q56.1 -26.85 56.15 -27.5 56.1 -28.35 56.3 -28.9 L56.3 -29.2 Q56.25 -30.15 59.55 -31.15 L64.8 -32.65 68.15 -33.95 70.45 -34.8 Q71.5 -35.4 71.5 -37.05 L71.6 -37.8 Q71.55 -39.4 70.95 -40.35 L70.75 -40.8 70.15 -41.7 69.8 -42.2 69.0 -42.55 68.85 -42.5 68.8 -42.65 67.0 -42.25 62.0 -40.7 61.4 -40.5 Q55.9 -38.75 54.5 -38.75 L54.05 -38.75 53.8 -38.85 Q52.15 -39.4 51.55 -39.65 M127.15 -56.7 L126.45 -54.35 Q125.75 -51.45 125.15 -50.1 124.6 -49.0 123.65 -48.7 L122.85 -48.55 122.9 -48.2 122.9 -46.8 122.65 -44.65 121.75 -41.8 Q121.2 -39.8 120.3 -38.75 121.85 -38.2 122.55 -36.8 123.05 -35.85 123.05 -34.1 L122.65 -31.4 122.05 -28.4 Q120.85 -24.5 119.2 -23.65 L115.75 -23.35 114.7 -23.35 108.0 -24.1 100.55 -26.45 Q97.15 -27.6 95.85 -28.9 94.9 -29.9 94.9 -31.5 L96.15 -37.55 Q96.4 -38.9 97.0 -40.55 L97.05 -40.7 96.0 -41.1 Q92.85 -42.25 92.15 -43.6 91.85 -44.2 91.85 -46.4 L91.9 -48.6 Q92.3 -50.9 93.5 -52.85 94.2 -53.9 95.0 -54.3 95.65 -54.75 96.4 -55.0 98.2 -55.05 100.45 -54.35 L103.3 -53.5 Q99.65 -56.2 100.95 -61.5 L101.6 -63.85 102.4 -65.5 103.05 -66.05 Q104.65 -67.2 106.25 -67.9 L106.65 -67.95 108.4 -67.8 111.55 -67.05 116.95 -64.85 118.15 -64.3 Q125.45 -61.0 126.75 -58.85 127.4 -57.9 127.15 -56.7 M119.0 -50.9 L121.95 -50.6 Q123.6 -51.05 124.5 -54.75 125.5 -58.8 123.7 -59.5 L120.3 -60.75 117.7 -61.7 Q112.05 -64.35 110.7 -64.7 L106.8 -65.9 106.25 -65.7 105.9 -65.45 104.9 -64.6 103.75 -63.0 103.15 -61.45 Q102.75 -60.15 102.65 -59.15 102.5 -58.2 103.25 -57.1 105.35 -54.15 116.25 -51.5 L119.0 -50.9 M116.75 -49.1 L113.4 -49.85 108.65 -51.15 107.5 -51.2 103.65 -51.9 98.05 -52.55 96.4 -52.35 Q94.7 -51.15 94.35 -49.2 L94.2 -48.6 94.1 -46.45 Q94.1 -44.8 94.3 -44.55 94.85 -43.8 98.0 -42.85 101.2 -41.85 107.4 -40.9 L114.55 -40.05 115.0 -40.05 Q118.05 -40.05 118.65 -40.65 L120.15 -44.8 120.35 -47.55 Q120.4 -48.15 120.6 -48.55 L116.75 -49.1 M117.2 -37.4 L116.65 -37.55 115.0 -37.55 108.0 -38.35 101.0 -39.45 98.7 -40.15 Q98.35 -39.9 98.3 -39.45 L97.65 -36.75 97.0 -34.05 Q96.6 -32.45 96.6 -31.45 96.6 -30.4 98.8 -29.4 100.8 -28.5 103.95 -27.9 L107.8 -26.7 Q111.45 -25.65 115.6 -25.65 L115.7 -25.65 Q118.65 -25.65 119.25 -26.15 119.75 -26.65 120.65 -30.0 L121.25 -34.15 Q121.25 -36.6 118.5 -37.1 L117.2 -37.4" fill="#000000" fill-rule="evenodd" stroke="none"/>
    </g>
  </defs>
</svg>
