<?xml version="1.0" encoding="UTF-8" standalone="no"?>
<svg xmlns:xlink="http://www.w3.org/1999/xlink" height="531.5px" width="460.6px" xmlns="http://www.w3.org/2000/svg">
  <g transform="matrix(1.0, 0.0, 0.0, 1.0, 193.65, 334.05)">
    <use height="15.65" transform="matrix(2.0067, 0.0, 0.0, 2.0067, -69.8534, -30.3534)" width="67.0" xlink:href="#sprite0"/>
  </g>
  <defs>
    <g id="sprite0" transform="matrix(1.0, 0.0, 0.0, 1.0, 0.5, 0.5)">
      <use height="15.65" transform="matrix(1.0, 0.0, 0.0, 1.0, -0.5, -0.5)" width="67.0" xlink:href="#shape0"/>
      <use height="14.65" transform="matrix(1.0, 0.0, 0.0, 1.0, 0.0, 0.0)" width="66.0" xlink:href="#sprite1"/>
    </g>
    <g id="shape0" transform="matrix(1.0, 0.0, 0.0, 1.0, 0.5, 0.5)">
      <path d="M59.25 4.05 Q60.4 2.65 61.25 0.15 L61.95 1.45 Q61.2 6.65 56.95 6.75 56.1 6.95 54.85 6.75 53.65 5.5 52.25 5.25 L50.9 5.35 Q50.9 5.0 49.8 4.7 48.4 4.35 47.6 5.25 L45.4 6.55 43.2 7.05 Q42.3 7.1 39.85 5.0 37.4 2.9 36.75 2.9 36.5 2.9 35.25 4.55 34.65 5.35 34.0 7.0 L34.8 4.6 Q35.8 2.2 37.55 0.0 39.15 3.45 41.35 4.65 43.75 6.0 47.25 4.6 L48.4 1.6 49.7 3.1 Q49.6 3.3 50.2 4.0 L50.6 4.6 Q50.7 4.25 50.95 3.85 L52.65 1.7 53.4 4.35 53.55 4.95 Q57.0 6.7 59.25 4.05" fill="#0f0e1d" fill-rule="evenodd" stroke="none"/>
      <path d="M61.95 1.45 L62.95 3.75 Q63.65 5.75 64.0 7.9 L64.3 11.4 64.3 12.45 62.95 11.5 61.4 10.4 60.75 11.65 59.45 13.9 57.7 11.8 56.25 10.05 54.15 12.0 53.6 11.8 53.4 11.7 53.0 12.0 53.0 12.05 Q51.45 13.1 50.6 14.65 L48.85 12.15 48.05 11.5 47.85 11.35 47.3 11.65 44.3 9.75 41.55 12.25 39.95 13.7 38.85 12.25 37.25 10.25 33.65 12.2 33.3 12.2 Q33.3 10.8 33.45 9.5 L33.95 7.15 34.0 7.0 Q34.65 5.35 35.25 4.55 36.5 2.9 36.75 2.9 37.4 2.9 39.85 5.0 42.3 7.1 43.2 7.05 L45.4 6.55 47.6 5.25 Q48.4 4.35 49.8 4.7 50.9 5.0 50.9 5.35 L52.25 5.25 Q53.65 5.5 54.85 6.75 56.1 6.95 56.95 6.75 61.2 6.65 61.95 1.45 M49.7 3.1 L50.65 4.2 50.95 3.85 Q50.7 4.25 50.6 4.6 L50.2 4.0 Q49.6 3.3 49.7 3.1" fill="#000000" fill-rule="evenodd" stroke="none"/>
      <path d="M62.95 3.75 L64.6 3.6 Q65.8 5.2 66.0 6.9 L64.75 7.65 64.0 7.9 Q63.65 5.75 62.95 3.75 M1.3 2.25 L1.35 2.1 Q18.35 4.3 34.8 4.6 L34.0 7.0 33.95 7.15 33.45 9.5 28.8 9.3 18.05 8.6 6.0 7.6 Q1.25 6.7 1.25 3.1 L1.3 2.25 M41.35 4.65 L47.25 4.6 Q43.75 6.0 41.35 4.65 M53.4 4.35 L59.25 4.05 Q57.0 6.7 53.55 4.95 L53.4 4.35" fill="#373737" fill-opacity="0.99215686" fill-rule="evenodd" stroke="none"/>
      <path d="M66.0 6.9 Q66.15 9.0 64.75 11.35 L64.3 11.4 64.0 7.9 64.75 7.65 66.0 6.9 M62.95 11.5 L60.75 11.65 61.4 10.4 62.95 11.5 M57.7 11.8 L54.15 12.0 56.25 10.05 57.7 11.8 M47.7 12.2 L41.55 12.25 44.3 9.75 47.3 11.65 47.7 12.2 M38.85 12.25 L33.65 12.2 37.25 10.25 38.85 12.25 M33.3 12.2 L2.3 10.0 Q-1.75 6.4 1.3 2.25 L1.25 3.1 Q1.25 6.7 6.0 7.6 L18.05 8.6 28.8 9.3 33.45 9.5 Q33.3 10.8 33.3 12.2" fill="#1a1a1a" fill-rule="evenodd" stroke="none"/>
      <path d="M54.1 12.0 L53.0 12.05 53.0 12.0 53.4 11.7 53.6 11.8 54.1 12.0" fill="#4d4d4d" fill-rule="evenodd" stroke="none"/>
      <path d="M48.85 12.15 L47.7 12.2 47.3 11.65 47.85 11.35 48.05 11.5 48.85 12.15" fill="#222222" fill-rule="evenodd" stroke="none"/>
      <path d="M59.25 4.05 Q60.4 2.65 61.25 0.15 L61.95 1.45 62.95 3.75 64.6 3.6 Q65.8 5.2 66.0 6.9 66.15 9.0 64.75 11.35 L64.3 11.4 64.3 12.45 62.95 11.5 60.75 11.65 59.45 13.9 57.7 11.8 54.15 12.0 54.1 12.0 53.0 12.05 Q51.45 13.1 50.6 14.65 L48.85 12.15 47.7 12.2 41.55 12.25 39.95 13.7 38.85 12.25 33.65 12.2 33.3 12.35 33.3 12.2 2.3 10.0 Q-1.75 6.4 1.3 2.25 L1.35 2.1 Q18.35 4.3 34.8 4.6 35.8 2.2 37.55 0.0 39.15 3.45 41.35 4.65 L47.25 4.6 48.4 1.6 49.7 3.1 50.65 4.2 50.95 3.85 52.65 1.7 53.4 4.35 59.25 4.05 Q57.0 6.7 53.55 4.95 L53.4 4.35 M64.3 11.4 L64.0 7.9 Q63.65 5.75 62.95 3.75 M60.75 11.65 L61.4 10.4 62.95 11.5 M53.6 11.8 L53.4 11.7 53.0 12.0 53.0 12.05 M53.6 11.8 L54.1 12.0 M53.6 11.8 L54.15 12.0 56.25 10.05 57.7 11.8 M47.3 11.65 L44.3 9.75 41.55 12.25 M47.3 11.65 L47.85 11.35 48.05 11.5 48.85 12.15 M47.3 11.65 L47.7 12.2 M41.35 4.65 Q43.75 6.0 47.25 4.6 M34.0 7.0 L34.8 4.6 M33.45 9.5 L33.95 7.15 M33.65 12.2 L33.3 12.2 Q33.3 10.8 33.45 9.5 M38.85 12.25 L37.25 10.25 33.65 12.2" fill="none" stroke="#000000" stroke-linecap="round" stroke-linejoin="round" stroke-opacity="0.6627451" stroke-width="1.0"/>
    </g>
    <g id="sprite1" transform="matrix(1.0, 0.0, 0.0, 1.0, 0.0, 0.0)">
      <use height="14.65" transform="matrix(1.0, 0.0, 0.0, 1.0, 0.0, 0.0)" width="66.0" xlink:href="#shape1"/>
    </g>
    <g id="shape1" transform="matrix(1.0, 0.0, 0.0, 1.0, 0.0, 0.0)">
      <path d="M53.6 11.8 L54.1 12.0 53.0 12.05 53.0 12.0 53.4 11.7 53.6 11.8" fill="url(#gradient0)" fill-rule="evenodd" stroke="none"/>
      <path d="M59.25 4.05 Q60.4 2.65 61.25 0.15 L61.95 1.45 62.95 3.75 Q63.65 5.75 64.0 7.9 L64.3 11.4 64.3 12.45 62.95 11.5 61.4 10.4 60.75 11.65 59.45 13.9 57.7 11.8 56.25 10.05 54.15 12.0 54.1 12.0 53.6 11.8 53.4 11.7 53.0 12.0 53.0 12.05 Q51.45 13.1 50.6 14.65 L48.85 12.15 48.05 11.5 47.85 11.35 47.3 11.65 44.3 9.75 41.55 12.25 39.95 13.7 38.85 12.25 37.25 10.25 33.65 12.2 33.3 12.2 Q33.3 10.8 33.45 9.5 L33.95 7.15 34.0 7.0 34.8 4.6 Q35.8 2.2 37.55 0.0 39.15 3.45 41.35 4.65 43.75 6.0 47.25 4.6 L48.4 1.6 50.65 4.2 52.65 1.7 53.4 4.35 53.55 4.95 Q57.0 6.7 59.25 4.05" fill="url(#gradient1)" fill-rule="evenodd" stroke="none"/>
      <path d="M33.3 12.2 L2.3 10.0 Q-1.75 6.4 1.3 2.25 L1.35 2.1 Q18.35 4.3 34.8 4.6 L34.0 7.0 33.95 7.15 33.45 9.5 Q33.3 10.8 33.3 12.2" fill="url(#gradient2)" fill-rule="evenodd" stroke="none"/>
      <path d="M38.85 12.25 L33.65 12.2 37.25 10.25 38.85 12.25" fill="url(#gradient3)" fill-rule="evenodd" stroke="none"/>
      <path d="M48.85 12.15 L47.7 12.2 41.55 12.25 44.3 9.75 47.3 11.65 47.85 11.35 48.05 11.5 48.85 12.15" fill="url(#gradient4)" fill-rule="evenodd" stroke="none"/>
      <path d="M41.35 4.65 L47.25 4.6 Q43.75 6.0 41.35 4.65" fill="url(#gradient5)" fill-rule="evenodd" stroke="none"/>
      <path d="M53.4 4.35 L59.25 4.05 Q57.0 6.7 53.55 4.95 L53.4 4.35" fill="url(#gradient6)" fill-rule="evenodd" stroke="none"/>
      <path d="M62.95 3.75 L64.6 3.6 Q65.8 5.2 66.0 6.9 66.15 9.0 64.75 11.35 L64.3 11.4 64.0 7.9 Q63.65 5.75 62.95 3.75" fill="url(#gradient7)" fill-rule="evenodd" stroke="none"/>
      <path d="M62.95 11.5 L60.75 11.65 61.4 10.4 62.95 11.5" fill="url(#gradient8)" fill-rule="evenodd" stroke="none"/>
      <path d="M57.7 11.8 L54.15 12.0 56.25 10.05 57.7 11.8" fill="url(#gradient9)" fill-rule="evenodd" stroke="none"/>
    </g>
    <linearGradient gradientTransform="matrix(7.0E-4, 0.0, 0.0, 2.0E-4, 53.55, 11.85)" gradientUnits="userSpaceOnUse" id="gradient0" spreadMethod="pad" x1="-819.2" x2="819.2">
      <stop offset="0.0" stop-color="#000000"/>
      <stop offset="1.0" stop-color="#ffffff"/>
    </linearGradient>
    <linearGradient gradientTransform="matrix(-0.0022, -0.0188, 0.0089, -0.0011, 47.1, 2.65)" gradientUnits="userSpaceOnUse" id="gradient1" spreadMethod="pad" x1="-819.2" x2="819.2">
      <stop offset="0.0" stop-color="#000000"/>
      <stop offset="1.0" stop-color="#ffffff"/>
    </linearGradient>
    <linearGradient gradientTransform="matrix(0.0376, 0.0, 0.0, 0.0062, 17.4, 7.15)" gradientUnits="userSpaceOnUse" id="gradient2" spreadMethod="pad" x1="-819.2" x2="819.2">
      <stop offset="0.0" stop-color="#ffffff"/>
      <stop offset="1.0" stop-color="#ffffff"/>
    </linearGradient>
    <linearGradient gradientTransform="matrix(0.0068, 0.0, 0.0, 0.0012, 36.25, 11.25)" gradientUnits="userSpaceOnUse" id="gradient3" spreadMethod="pad" x1="-819.2" x2="819.2">
      <stop offset="0.0" stop-color="#ffffff"/>
      <stop offset="1.0" stop-color="#ffffff"/>
    </linearGradient>
    <linearGradient gradientTransform="matrix(0.0101, 0.0, 0.0, 0.0015, 45.2, 11.0)" gradientUnits="userSpaceOnUse" id="gradient4" spreadMethod="pad" x1="-819.2" x2="819.2">
      <stop offset="0.0" stop-color="#ffffff"/>
      <stop offset="1.0" stop-color="#ffffff"/>
    </linearGradient>
    <linearGradient gradientTransform="matrix(0.0099, 0.0, 0.0, 4.0E-4, 44.3, 4.95)" gradientUnits="userSpaceOnUse" id="gradient5" spreadMethod="pad" x1="-819.2" x2="819.2">
      <stop offset="0.0" stop-color="#ffffff"/>
      <stop offset="1.0" stop-color="#ffffff"/>
    </linearGradient>
    <linearGradient gradientTransform="matrix(0.0101, 0.0, 0.0, 0.001, 56.3, 4.85)" gradientUnits="userSpaceOnUse" id="gradient6" spreadMethod="pad" x1="-819.2" x2="819.2">
      <stop offset="0.0" stop-color="#ffffff"/>
      <stop offset="1.0" stop-color="#ffffff"/>
    </linearGradient>
    <linearGradient gradientTransform="matrix(0.0075, 0.0, 0.0, 0.0048, 64.45, 7.5)" gradientUnits="userSpaceOnUse" id="gradient7" spreadMethod="pad" x1="-819.2" x2="819.2">
      <stop offset="0.0" stop-color="#ffffff"/>
      <stop offset="1.0" stop-color="#ffffff"/>
    </linearGradient>
    <linearGradient gradientTransform="matrix(0.0049, 0.0013, -2.0E-4, 7.0E-4, 61.85, 11.05)" gradientUnits="userSpaceOnUse" id="gradient8" spreadMethod="pad" x1="-819.2" x2="819.2">
      <stop offset="0.0" stop-color="#ffffff"/>
      <stop offset="1.0" stop-color="#ffffff"/>
    </linearGradient>
    <linearGradient gradientTransform="matrix(0.0073, 0.0, 0.0, 0.0012, 55.9, 11.0)" gradientUnits="userSpaceOnUse" id="gradient9" spreadMethod="pad" x1="-819.2" x2="819.2">
      <stop offset="0.0" stop-color="#ffffff"/>
      <stop offset="1.0" stop-color="#ffffff"/>
    </linearGradient>
  </defs>
</svg>
