<?xml version="1.0" encoding="UTF-8" standalone="no"?>
<svg xmlns:xlink="http://www.w3.org/1999/xlink" height="531.5px" width="460.6px" xmlns="http://www.w3.org/2000/svg">
  <g transform="matrix(1.0, 0.0, 0.0, 1.0, 193.65, 334.05)">
    <use height="17.3" transform="matrix(1.9412, 0.0, 0.0, 1.9412, -62.9206, -176.4206)" width="60.15" xlink:href="#sprite0"/>
  </g>
  <defs>
    <g id="sprite0" transform="matrix(1.0, 0.0, 0.0, 1.0, 0.5, 0.5)">
      <use height="17.3" transform="matrix(1.0, 0.0, 0.0, 1.0, -0.5, -0.5)" width="60.15" xlink:href="#shape0"/>
      <use height="16.3" transform="matrix(1.0, 0.0, 0.0, 1.0, 0.0, 0.0)" width="59.15" xlink:href="#sprite1"/>
    </g>
    <g id="shape0" transform="matrix(1.0, 0.0, 0.0, 1.0, 0.5, 0.5)">
      <path d="M56.8 5.0 L56.95 5.2 57.0 5.3 57.2 5.85 Q58.2 8.9 58.0 11.6 L57.9 11.85 57.75 12.2 56.05 13.3 49.8 12.4 50.85 10.9 Q53.0 7.7 54.65 4.05 L55.15 4.3 56.8 5.0 M56.95 11.2 Q57.55 8.55 55.15 4.3 57.55 8.55 56.95 11.2 M43.15 0.6 L43.55 0.45 Q47.6 0.65 51.1 1.55 L50.3 2.75 49.4 3.95 45.65 9.0 44.25 10.65 43.65 10.3 41.4 2.2 41.75 2.2 41.75 1.8 43.5 1.85 43.15 0.6 M57.9 11.85 L50.85 10.9 57.9 11.85 M50.3 2.75 L43.5 1.85 45.65 9.0 43.5 1.85 50.3 2.75 M24.15 1.75 L23.2 2.75 20.8 5.2 16.15 10.15 15.6 3.15 23.2 2.75 15.6 3.15 16.15 10.15 14.8 11.55 14.2 12.2 13.0 11.6 12.5 4.65 14.55 2.15 14.7 2.0 24.15 1.75 M30.35 2.5 L30.75 2.05 31.7 3.65 32.35 9.85 30.75 10.55 29.8 12.9 21.55 13.7 22.15 12.9 23.6 11.05 30.25 2.65 30.35 2.5 M30.25 2.65 L30.75 10.55 23.6 11.05 30.75 10.55 30.25 2.65 M13.0 11.6 L14.8 11.55 13.0 11.6 M14.55 2.15 L15.6 3.15 12.5 4.65 15.6 3.15 14.55 2.15" fill="#93e0e0" fill-opacity="0.44313726" fill-rule="evenodd" stroke="none"/>
      <path d="M57.0 5.3 L56.8 5.0 54.5 2.6 54.05 2.45 53.95 2.4 51.1 1.55 Q47.6 0.65 43.55 0.45 L43.15 0.6 41.8 1.15 41.75 1.15 41.75 1.0 41.25 1.0 42.55 0.0 54.4 1.5 57.85 5.65 Q57.55 5.5 57.2 5.85 57.55 5.5 57.85 5.65 59.05 6.05 59.15 14.75 L57.55 14.7 58.35 13.4 57.75 12.2 58.35 13.4 57.55 14.7 57.35 15.0 44.35 13.2 42.15 11.2 41.85 8.9 Q40.1 6.7 38.15 6.8 L37.85 6.85 Q37.1 6.95 36.35 7.4 35.3 8.0 34.15 9.25 L34.35 10.35 32.75 12.1 31.0 14.45 17.15 15.6 11.3 12.35 11.35 12.2 11.15 12.25 10.25 11.75 9.65 7.0 9.35 4.6 9.55 4.4 12.55 0.9 31.75 0.2 32.15 0.9 31.95 1.0 32.2 1.0 32.8 2.2 33.9 2.2 35.25 2.2 36.65 2.2 38.15 2.2 39.65 2.2 41.4 2.2 43.65 10.3 44.25 10.65 46.0 11.8 49.8 12.4 56.05 13.3 57.75 12.2 57.9 11.85 58.0 11.6 Q58.2 8.9 57.2 5.85 L57.0 5.3 M31.95 1.0 L31.95 2.2 32.8 2.2 31.95 2.2 31.95 1.0 M30.75 2.05 L30.45 1.6 24.15 1.75 14.7 2.0 14.55 2.15 12.5 4.65 13.0 11.6 14.2 12.2 16.45 13.3 16.5 13.3 18.05 14.05 21.55 13.7 29.8 12.9 30.1 12.85 32.35 10.05 32.35 9.85 31.7 3.65 30.75 2.05 M11.05 5.6 L11.4 5.2 11.05 5.6 M9.55 4.4 L11.35 12.2 9.55 4.4" fill="#000000" fill-rule="evenodd" stroke="none"/>
      <path d="M51.1 1.55 L53.95 2.4 53.65 3.7 54.65 4.05 Q53.0 7.7 50.85 10.9 L45.95 10.2 50.85 10.9 49.8 12.4 46.0 11.8 44.25 10.65 45.85 10.15 45.95 10.2 45.95 10.1 45.65 9.0 49.4 3.95 50.3 2.75 51.1 1.55 M50.3 2.75 L53.65 3.7 50.3 2.75 M24.15 1.75 L30.45 1.6 30.75 2.05 30.35 2.5 30.2 2.4 23.2 2.75 30.2 2.4 30.25 2.65 23.6 11.05 22.15 12.9 21.55 13.7 18.05 14.05 16.5 13.3 16.45 13.3 16.25 11.5 16.15 10.15 20.8 5.2 23.2 2.75 24.15 1.75 M23.6 11.05 L16.25 11.5 23.6 11.05" fill="#ffffff" fill-opacity="0.3019608" fill-rule="evenodd" stroke="none"/>
      <path d="M56.8 5.0 L55.15 4.3 54.8 3.7 54.05 2.45 54.5 2.6 56.8 5.0 M41.8 1.15 L43.15 0.6 43.5 1.85 41.75 1.8 41.75 1.2 41.8 1.15 M45.65 9.0 L45.95 10.1 45.85 10.15 44.25 10.65 45.65 9.0 M30.2 2.4 L30.35 2.5 30.25 2.65 30.2 2.4 M32.35 9.85 L32.35 10.05 30.1 12.85 29.8 12.9 30.75 10.55 32.35 9.85 M16.45 13.3 L14.2 12.2 14.8 11.55 16.15 10.15 16.25 11.5 14.8 11.55 16.25 11.5 16.45 13.3" fill="#d6ffff" fill-opacity="0.3019608" fill-rule="evenodd" stroke="none"/>
      <path d="M41.25 1.0 L41.75 1.0 41.75 1.15 41.75 1.2 41.15 1.4 41.4 2.2 39.65 2.2 38.15 2.2 36.65 2.2 35.25 2.2 33.9 2.2 32.8 2.2 32.2 1.0 33.45 1.0 34.9 1.0 36.45 1.0 37.85 1.0 39.45 1.0 41.25 1.0 M0.1 13.85 L0.0 10.55 Q-0.05 9.7 0.5 8.85 L0.65 8.65 1.45 7.8 1.5 7.7 3.0 6.85 4.85 5.95 6.9 5.05 Q8.15 4.55 9.5 4.15 L9.55 4.4 9.35 4.6 9.65 7.0 7.4 8.25 5.5 9.45 Q4.6 10.0 3.8 10.65 L2.45 11.7 2.3 11.85 1.45 7.8 2.3 11.85 1.1 12.9 0.1 13.85 M35.25 2.2 L34.9 1.0 35.25 2.2 M33.45 1.0 L33.9 2.2 33.45 1.0 M36.45 1.0 L36.65 2.2 36.45 1.0 M38.15 2.2 L37.85 1.0 38.15 2.2 M39.45 1.0 L39.65 2.2 39.45 1.0 M3.0 6.85 L3.8 10.65 3.0 6.85 M4.85 5.95 L5.5 9.45 4.85 5.95 M6.9 5.05 L7.4 8.25 6.9 5.05 M0.5 8.85 L1.1 12.9 0.5 8.85" fill="#333333" fill-rule="evenodd" stroke="none"/>
      <path d="M42.15 11.2 L42.15 11.45 Q40.25 8.7 38.55 8.35 L38.4 7.9 37.85 6.85 38.15 6.8 Q40.1 6.7 41.85 8.9 L42.15 11.2 M36.9 8.65 Q35.65 9.3 34.55 11.3 L34.35 10.35 34.15 9.25 Q35.3 8.0 36.35 7.4 L36.4 7.5 36.9 8.65" fill="#999999" fill-rule="evenodd" stroke="none"/>
      <path d="M38.55 8.35 L38.15 8.3 Q37.5 8.3 36.9 8.65 L36.4 7.5 36.35 7.4 Q37.1 6.95 37.85 6.85 L38.4 7.9 38.55 8.35" fill="#eaeaea" fill-rule="evenodd" stroke="none"/>
      <path d="M11.15 12.25 Q9.6 12.75 8.2 13.4 7.2 13.8 6.35 14.35 L4.75 15.3 3.6 16.1 3.25 16.2 1.6 16.25 Q0.8 16.05 0.5 15.35 L0.1 13.85 1.1 12.9 1.6 16.25 1.1 12.9 2.3 11.85 2.45 11.7 3.8 10.65 Q4.6 10.0 5.5 9.45 L7.4 8.25 9.65 7.0 10.25 11.75 11.15 12.25 M8.2 13.4 L7.4 8.25 8.2 13.4 M6.35 14.35 L5.5 9.45 6.35 14.35 M4.75 15.3 L3.8 10.65 4.75 15.3 M3.25 16.2 L2.3 11.85 3.25 16.2" fill="#1c1c1c" fill-rule="evenodd" stroke="none"/>
      <path d="M56.8 5.0 L56.95 5.2 57.0 5.3 56.8 5.0 55.15 4.3 Q57.55 8.55 56.95 11.2 M57.0 5.3 L57.2 5.85 Q57.55 5.5 57.85 5.65 L54.4 1.5 42.55 0.0 41.25 1.0 41.75 1.0 41.75 1.15 41.75 1.2 41.75 1.8 43.5 1.85 43.15 0.6 43.55 0.45 Q47.6 0.65 51.1 1.55 L53.95 2.4 54.05 2.45 54.5 2.6 56.8 5.0 M41.8 1.15 L43.15 0.6 M53.65 3.7 L53.95 2.4 M54.65 4.05 L53.65 3.7 50.3 2.75 43.5 1.85 45.65 9.0 45.95 10.1 45.85 10.15 45.95 10.2 50.85 10.9 57.9 11.85 57.75 12.2 58.35 13.4 57.55 14.7 59.15 14.75 Q59.05 6.05 57.85 5.65 M54.65 4.05 L55.15 4.3 54.8 3.7 54.05 2.45 M57.2 5.85 Q58.2 8.9 58.0 11.6 L57.9 11.85 M41.4 2.2 L41.15 1.4 41.75 1.2 41.8 1.15 M41.75 1.8 L41.75 2.2 41.4 2.2 43.65 10.3 44.25 10.65 45.85 10.15 M42.15 11.2 L42.15 11.45 Q40.25 8.7 38.55 8.35 L38.15 8.3 Q37.5 8.3 36.9 8.65 35.65 9.3 34.55 11.3 L32.75 12.1 31.0 14.45 17.15 15.6 11.3 12.35 11.15 12.25 Q9.6 12.75 8.2 13.4 7.2 13.8 6.35 14.35 L4.75 15.3 3.6 16.1 3.25 16.2 1.6 16.25 Q0.8 16.05 0.5 15.35 L0.1 13.85 0.0 10.55 Q-0.05 9.7 0.5 8.85 L0.65 8.65 1.45 7.8 1.5 7.7 3.0 6.85 4.85 5.95 6.9 5.05 Q8.15 4.55 9.5 4.15 L9.55 4.4 12.55 0.9 31.75 0.2 32.15 0.9 32.2 1.0 33.45 1.0 34.9 1.0 36.45 1.0 37.85 1.0 39.45 1.0 41.25 1.0 M37.85 6.85 L38.15 6.8 Q40.1 6.7 41.85 8.9 L42.15 11.2 44.35 13.2 57.35 15.0 57.55 14.7 M49.8 12.4 L46.0 11.8 44.25 10.65 M57.75 12.2 L56.05 13.3 49.8 12.4 M41.4 2.2 L39.65 2.2 38.15 2.2 36.65 2.2 35.25 2.2 33.9 2.2 32.8 2.2 31.95 2.2 31.95 1.0 32.2 1.0 32.8 2.2 M39.65 2.2 L39.45 1.0 M37.85 1.0 L38.15 2.2 M36.65 2.2 L36.45 1.0 M33.9 2.2 L33.45 1.0 M34.9 1.0 L35.25 2.2 M30.75 2.05 L30.45 1.6 24.15 1.75 14.7 2.0 14.55 2.15 12.5 4.65 15.6 3.15 14.55 2.15 M23.2 2.75 L30.2 2.4 30.25 2.65 30.75 10.55 29.8 12.9 21.55 13.7 18.05 14.05 16.5 13.3 16.45 13.3 14.2 12.2 13.0 11.6 12.5 4.65 M30.75 2.05 L31.7 3.65 32.35 9.85 32.35 10.05 30.1 12.85 29.8 12.9 M34.35 10.35 L34.55 11.3 M34.35 10.35 L32.75 12.1 M32.35 9.85 L30.75 10.55 23.6 11.05 16.25 11.5 14.8 11.55 13.0 11.6 M36.35 7.4 Q35.3 8.0 34.15 9.25 L34.35 10.35 M37.85 6.85 Q37.1 6.95 36.35 7.4 M23.2 2.75 L15.6 3.15 16.15 10.15 16.25 11.5 16.45 13.3 M11.4 5.2 L11.05 5.6 M11.35 12.2 L11.15 12.25 10.25 11.75 9.65 7.0 9.35 4.6 9.55 4.4 11.35 12.2 M7.4 8.25 L8.2 13.4 M2.3 11.85 L1.45 7.8 M3.8 10.65 L3.0 6.85 M5.5 9.45 L4.85 5.95 M7.4 8.25 L6.9 5.05 M1.1 12.9 L1.6 16.25 M1.1 12.9 L0.5 8.85 M2.3 11.85 L3.25 16.2 M3.8 10.65 L4.75 15.3 M5.5 9.45 L6.35 14.35" fill="none" stroke="#000000" stroke-linecap="round" stroke-linejoin="round" stroke-opacity="0.6627451" stroke-width="1.0"/>
    </g>
    <g id="sprite1" transform="matrix(1.0, 0.0, 0.0, 1.0, 0.0, 0.0)">
      <use height="16.3" transform="matrix(1.0, 0.0, 0.0, 1.0, 0.0, 0.0)" width="59.15" xlink:href="#shape1"/>
    </g>
    <g id="shape1" transform="matrix(1.0, 0.0, 0.0, 1.0, 0.0, 0.0)">
      <path d="M30.35 2.5 L30.25 2.65 30.2 2.4 30.35 2.5" fill="url(#gradient0)" fill-rule="evenodd" stroke="none"/>
      <path d="M56.8 5.0 L56.95 5.2 57.0 5.3 57.2 5.85 Q58.2 8.9 58.0 11.6 L57.75 12.2 56.05 13.3 46.0 11.8 43.65 10.3 41.4 2.2 41.15 1.4 41.75 1.2 41.8 1.15 43.55 0.45 Q47.6 0.65 51.1 1.55 L53.95 2.4 54.05 2.45 54.5 2.6 56.8 5.0 M45.95 10.1 L45.85 10.15 45.95 10.2 45.95 10.1" fill="url(#gradient1)" fill-rule="evenodd" stroke="none"/>
      <path d="M30.45 1.6 L31.7 3.65 32.35 9.85 32.35 10.05 30.1 12.85 29.8 12.9 18.05 14.05 16.5 13.3 16.45 13.3 13.0 11.6 12.5 4.65 14.55 2.15 14.7 2.0 30.45 1.6 M30.35 2.5 L30.2 2.4 30.25 2.65 30.35 2.5" fill="url(#gradient2)" fill-rule="evenodd" stroke="none"/>
      <path d="M57.0 5.3 L56.8 5.0 54.5 2.6 54.05 2.45 53.95 2.4 51.1 1.55 Q47.6 0.65 43.55 0.45 L41.8 1.15 41.75 1.15 41.75 1.0 41.25 1.0 42.55 0.0 54.4 1.5 57.85 5.65 Q59.05 6.05 59.15 14.75 L57.55 14.7 57.35 15.0 44.35 13.2 42.15 11.2 41.85 8.9 Q40.1 6.7 38.15 6.8 L37.85 6.85 Q37.1 6.95 36.35 7.4 35.3 8.0 34.15 9.25 L34.35 10.35 31.0 14.45 17.15 15.6 11.3 12.35 11.35 12.2 11.15 12.25 10.25 11.75 9.35 4.6 9.55 4.4 12.55 0.9 31.75 0.2 32.15 0.9 31.95 1.0 32.2 1.0 32.8 2.2 41.4 2.2 43.65 10.3 46.0 11.8 56.05 13.3 57.75 12.2 58.0 11.6 Q58.2 8.9 57.2 5.85 L57.0 5.3 M30.45 1.6 L14.7 2.0 14.55 2.15 12.5 4.65 13.0 11.6 16.45 13.3 16.5 13.3 18.05 14.05 29.8 12.9 30.1 12.85 32.35 10.05 32.35 9.85 31.7 3.65 30.45 1.6" fill="url(#gradient3)" fill-rule="evenodd" stroke="none"/>
      <path d="M9.55 4.4 L9.35 4.6 10.25 11.75 11.15 12.25 Q9.6 12.75 8.2 13.4 7.2 13.8 6.35 14.35 L4.75 15.3 3.6 16.1 3.25 16.2 1.6 16.25 Q0.8 16.05 0.5 15.35 L0.1 13.85 0.0 10.55 Q-0.05 9.7 0.5 8.85 L0.65 8.65 1.45 7.8 1.5 7.7 3.0 6.85 4.85 5.95 6.9 5.05 Q8.15 4.55 9.5 4.15 L9.55 4.4" fill="url(#gradient4)" fill-rule="evenodd" stroke="none"/>
      <path d="M41.4 2.2 L32.8 2.2 32.2 1.0 41.25 1.0 41.75 1.0 41.75 1.15 41.75 1.2 41.15 1.4 41.4 2.2" fill="url(#gradient5)" fill-rule="evenodd" stroke="none"/>
      <path d="M34.35 10.35 L34.15 9.25 Q35.3 8.0 36.35 7.4 37.1 6.95 37.85 6.85 L38.15 6.8 Q40.1 6.7 41.85 8.9 L42.15 11.2 42.15 11.45 Q40.25 8.7 38.55 8.35 L38.15 8.3 Q37.5 8.3 36.9 8.65 35.65 9.3 34.55 11.3 L34.35 10.35" fill="url(#gradient6)" fill-rule="evenodd" stroke="none"/>
    </g>
    <linearGradient gradientTransform="matrix(1.0E-4, 0.0, 0.0, 2.0E-4, 30.25, 2.5)" gradientUnits="userSpaceOnUse" id="gradient0" spreadMethod="pad" x1="-819.2" x2="819.2">
      <stop offset="0.0" stop-color="#000000"/>
      <stop offset="1.0" stop-color="#ffffff"/>
    </linearGradient>
    <linearGradient gradientTransform="matrix(-0.0022, -0.0161, 0.0078, -0.0011, 51.4, 10.05)" gradientUnits="userSpaceOnUse" id="gradient1" spreadMethod="pad" x1="-819.2" x2="819.2">
      <stop offset="0.0" stop-color="#000000"/>
      <stop offset="1.0" stop-color="#ffffff"/>
    </linearGradient>
    <linearGradient gradientTransform="matrix(-0.0044, -0.0164, 0.0073, -0.002, 23.35, 8.4)" gradientUnits="userSpaceOnUse" id="gradient2" spreadMethod="pad" x1="-819.2" x2="819.2">
      <stop offset="0.0" stop-color="#000000"/>
      <stop offset="1.0" stop-color="#ffffff"/>
    </linearGradient>
    <linearGradient gradientTransform="matrix(0.0, -0.0304, 0.0095, 0.0, 34.25, 7.8)" gradientUnits="userSpaceOnUse" id="gradient3" spreadMethod="pad" x1="-819.2" x2="819.2">
      <stop offset="0.0" stop-color="#000000"/>
      <stop offset="1.0" stop-color="#ffffff"/>
    </linearGradient>
    <linearGradient gradientTransform="matrix(0.0, -0.0093, 0.0074, 0.0, 5.5, 10.25)" gradientUnits="userSpaceOnUse" id="gradient4" spreadMethod="pad" x1="-819.2" x2="819.2">
      <stop offset="0.0" stop-color="#000000"/>
      <stop offset="1.0" stop-color="#ffffff"/>
    </linearGradient>
    <linearGradient gradientTransform="matrix(0.0, -0.0058, 7.0E-4, 0.0, 37.0, 1.5)" gradientUnits="userSpaceOnUse" id="gradient5" spreadMethod="pad" x1="-819.2" x2="819.2">
      <stop offset="0.0" stop-color="#000000"/>
      <stop offset="1.0" stop-color="#ffffff"/>
    </linearGradient>
    <linearGradient gradientTransform="matrix(-0.0013, -0.0047, 0.0027, -7.0E-4, 38.15, 9.1)" gradientUnits="userSpaceOnUse" id="gradient6" spreadMethod="pad" x1="-819.2" x2="819.2">
      <stop offset="0.0" stop-color="#000000"/>
      <stop offset="1.0" stop-color="#ffffff"/>
    </linearGradient>
  </defs>
</svg>
