<?xml version="1.0" encoding="UTF-8" standalone="no"?>
<svg xmlns:xlink="http://www.w3.org/1999/xlink" height="531.5px" width="460.6px" xmlns="http://www.w3.org/2000/svg">
  <g transform="matrix(1.0, 0.0, 0.0, 1.0, 193.65, 334.05)">
    <use height="27.8" transform="matrix(2.0067, 0.0, 0.0, 2.0067, 21.1466, -54.6534)" width="17.9" xlink:href="#sprite0"/>
  </g>
  <defs>
    <g id="sprite0" transform="matrix(1.0, 0.0, 0.0, 1.0, 0.5, 0.5)">
      <use height="27.8" transform="matrix(1.0, 0.0, 0.0, 1.0, -0.5, -0.5)" width="17.9" xlink:href="#shape0"/>
      <use height="26.95" transform="matrix(1.0, 0.0, 0.0, 1.0, 0.0, 0.0)" width="16.9" xlink:href="#sprite1"/>
    </g>
    <g id="shape0" transform="matrix(1.0, 0.0, 0.0, 1.0, 0.5, 0.5)">
      <path d="M16.35 5.25 L15.9 6.15 14.95 6.75 14.85 6.8 14.0 6.55 Q13.7 6.3 13.7 5.9 L13.7 5.75 Q13.75 5.25 14.15 4.8 14.6 4.35 15.15 4.25 L16.05 4.4 Q16.4 4.75 16.35 5.25 M9.15 2.05 Q8.25 2.55 7.4 2.55 L6.5 2.5 6.35 1.85 Q6.3 1.05 6.65 0.55 7.0 -0.05 7.6 0.0 8.2 0.05 8.65 0.7 9.1 1.25 9.15 2.05 M7.45 18.85 Q7.7 18.35 8.15 18.1 9.5 17.35 9.45 15.0 8.15 13.65 7.7 12.25 7.2 10.85 9.3 9.85 11.35 8.85 11.95 10.4 12.5 11.95 13.55 12.75 15.8 12.4 16.65 13.7 L16.9 14.35 15.5 15.2 Q14.8 15.9 14.9 17.15 L14.8 19.45 Q14.45 21.55 13.0 21.55 L10.9 21.15 9.9 20.75 8.3 19.65 7.45 18.85 M2.15 18.45 L0.65 17.75 0.0 17.05 Q0.05 16.75 0.75 16.7 L2.45 17.0 2.85 17.15 Q2.7 17.9 2.15 18.45" fill="#b30000" fill-rule="evenodd" stroke="none"/>
      <path d="M9.15 2.05 L9.15 2.1 Q9.25 2.9 8.9 3.4 8.55 3.95 7.95 3.9 7.35 3.85 6.9 3.25 L6.5 2.5 7.4 2.55 Q8.25 2.55 9.15 2.05 M16.9 14.35 Q17.0 15.2 16.45 16.65 15.55 18.6 16.0 19.85 16.5 21.05 16.3 22.45 16.1 23.75 15.0 24.65 13.95 25.45 12.2 23.25 9.65 24.1 7.35 21.1 7.05 19.65 7.45 18.85 L8.3 19.65 9.9 20.75 10.9 21.15 13.0 21.55 Q14.45 21.55 14.8 19.45 L14.9 17.15 Q14.8 15.9 15.5 15.2 L16.9 14.35 M2.85 17.15 L4.15 17.7 4.8 18.45 Q4.8 18.75 4.05 18.75 L2.35 18.5 2.15 18.45 Q2.7 17.9 2.85 17.15 M11.9 25.45 L12.25 25.3 12.45 25.6 12.45 26.25 12.15 26.75 11.85 26.95 11.6 26.6 11.65 26.05 11.9 25.45" fill="#760101" fill-rule="evenodd" stroke="none"/>
      <path d="M16.35 5.25 L15.9 6.15 14.95 6.75 14.85 6.8 14.0 6.55 Q13.7 6.3 13.7 5.9 L13.7 5.75 Q13.75 5.25 14.15 4.8 14.6 4.35 15.15 4.25 L16.05 4.4 Q16.4 4.75 16.35 5.25 M6.5 2.5 L6.9 3.25 Q7.35 3.85 7.95 3.9 8.55 3.95 8.9 3.4 9.25 2.9 9.15 2.1 L9.15 2.05 Q9.1 1.25 8.65 0.7 8.2 0.05 7.6 0.0 7.0 -0.05 6.65 0.55 6.3 1.05 6.35 1.85 L6.5 2.5 M7.45 18.85 Q7.7 18.35 8.15 18.1 9.5 17.35 9.45 15.0 8.15 13.65 7.7 12.25 7.2 10.85 9.3 9.85 11.35 8.85 11.95 10.4 12.5 11.95 13.55 12.75 15.8 12.4 16.65 13.7 L16.9 14.35 Q17.0 15.2 16.45 16.65 15.55 18.6 16.0 19.85 16.5 21.05 16.3 22.45 16.1 23.75 15.0 24.65 13.95 25.45 12.2 23.25 9.65 24.1 7.35 21.1 7.05 19.65 7.45 18.85 M2.85 17.15 L4.15 17.7 4.8 18.45 Q4.8 18.75 4.05 18.75 L2.35 18.5 2.15 18.45 0.65 17.75 0.0 17.05 Q0.05 16.75 0.75 16.7 L2.45 17.0 2.85 17.15" fill="none" stroke="#000000" stroke-linecap="round" stroke-linejoin="round" stroke-opacity="0.6627451" stroke-width="1.0"/>
      <path d="M11.9 25.45 L12.25 25.3 12.45 25.6 12.45 26.25 12.15 26.75 11.85 26.95 11.6 26.6 11.65 26.05 11.9 25.45" fill="none" stroke="#000000" stroke-linecap="round" stroke-linejoin="round" stroke-opacity="0.6627451" stroke-width="0.7000000000000001"/>
    </g>
    <g id="sprite1" transform="matrix(1.0, 0.0, 0.0, 1.0, 0.0, 0.0)">
      <use height="26.95" transform="matrix(1.0, 0.0, 0.0, 1.0, 0.0, 0.0)" width="16.9" xlink:href="#shape1"/>
    </g>
    <g id="shape1" transform="matrix(1.0, 0.0, 0.0, 1.0, 0.0, 0.0)">
      <path d="M2.15 18.45 L2.2 18.4 2.35 18.5 2.15 18.45" fill="url(#gradient0)" fill-rule="evenodd" stroke="none"/>
      <path d="M9.15 2.05 L9.15 2.1 9.15 2.05" fill="url(#gradient1)" fill-rule="evenodd" stroke="none"/>
      <path d="M16.35 5.25 L15.9 6.15 14.95 6.75 14.85 6.8 14.0 6.55 Q13.7 6.3 13.7 5.9 L13.7 5.75 Q13.75 5.25 14.15 4.8 14.6 4.35 15.15 4.25 L16.05 4.4 Q16.4 4.75 16.35 5.25" fill="url(#gradient2)" fill-rule="evenodd" stroke="none"/>
      <path d="M9.15 2.1 Q9.25 2.9 8.9 3.4 8.55 3.95 7.95 3.9 7.35 3.85 6.9 3.25 L6.5 2.5 6.35 1.85 Q6.3 1.05 6.65 0.55 7.0 -0.05 7.6 0.0 8.2 0.05 8.65 0.7 9.1 1.25 9.15 2.05 L9.15 2.1" fill="url(#gradient3)" fill-rule="evenodd" stroke="none"/>
      <path d="M2.35 18.5 L2.2 18.4 2.15 18.45 0.65 17.75 0.0 17.05 Q0.05 16.75 0.75 16.7 L2.45 17.0 2.85 17.15 4.15 17.7 4.8 18.45 Q4.8 18.75 4.05 18.75 L2.35 18.5" fill="url(#gradient4)" fill-rule="evenodd" stroke="none"/>
      <path d="M11.85 26.95 L11.6 26.6 11.65 26.05 11.9 25.45 12.25 25.3 12.45 25.6 12.45 26.25 12.15 26.75 11.85 26.95" fill="url(#gradient5)" fill-rule="evenodd" stroke="none"/>
      <path d="M9.3 9.85 Q11.35 8.85 11.95 10.4 12.5 11.95 13.55 12.75 15.8 12.4 16.65 13.7 L16.9 14.35 Q17.0 15.2 16.45 16.65 15.55 18.6 16.0 19.85 16.5 21.05 16.3 22.45 16.1 23.75 15.0 24.65 13.95 25.45 12.2 23.25 9.65 24.1 7.35 21.1 7.05 19.65 7.45 18.85 7.7 18.35 8.15 18.1 9.5 17.35 9.45 15.0 8.15 13.65 7.7 12.25 7.2 10.85 9.3 9.85" fill="url(#gradient6)" fill-rule="evenodd" stroke="none"/>
    </g>
    <linearGradient gradientTransform="matrix(1.0E-4, 0.0, 0.0, 1.0E-4, 2.25, 18.45)" gradientUnits="userSpaceOnUse" id="gradient0" spreadMethod="pad" x1="-819.2" x2="819.2">
      <stop offset="0.0" stop-color="#000000"/>
      <stop offset="1.0" stop-color="#ffffff"/>
    </linearGradient>
    <linearGradient gradientTransform="matrix(0.0, 0.0, 0.0, 0.0, 9.15, 2.05)" gradientUnits="userSpaceOnUse" id="gradient1" spreadMethod="pad" x1="-819.2" x2="819.2">
      <stop offset="0.0" stop-color="#000000"/>
      <stop offset="1.0" stop-color="#ffffff"/>
    </linearGradient>
    <linearGradient gradientTransform="matrix(0.0062, -0.0062, 0.0011, 0.0011, 15.0, 5.5)" gradientUnits="userSpaceOnUse" id="gradient2" spreadMethod="pad" x1="-819.2" x2="819.2">
      <stop offset="0.0" stop-color="#000000"/>
      <stop offset="1.0" stop-color="#ffffff"/>
    </linearGradient>
    <linearGradient gradientTransform="matrix(0.0, -0.0099, 0.0024, 0.0, 7.75, 1.95)" gradientUnits="userSpaceOnUse" id="gradient3" spreadMethod="pad" x1="-819.2" x2="819.2">
      <stop offset="0.0" stop-color="#000000"/>
      <stop offset="1.0" stop-color="#ffffff"/>
    </linearGradient>
    <linearGradient gradientTransform="matrix(-0.0081, -0.0081, 9.0E-4, -9.0E-4, 2.35, 17.8)" gradientUnits="userSpaceOnUse" id="gradient4" spreadMethod="pad" x1="-819.2" x2="819.2">
      <stop offset="0.0" stop-color="#000000"/>
      <stop offset="1.0" stop-color="#ffffff"/>
    </linearGradient>
    <linearGradient gradientTransform="matrix(0.0085, 0.0, 0.0, 0.001, 12.05, 26.1)" gradientUnits="userSpaceOnUse" id="gradient5" spreadMethod="pad" x1="-819.2" x2="819.2">
      <stop offset="0.0" stop-color="#000000"/>
      <stop offset="1.0" stop-color="#ffffff"/>
    </linearGradient>
    <linearGradient gradientTransform="matrix(-0.0276, -0.0159, 0.0047, -0.0081, 12.1, 17.2)" gradientUnits="userSpaceOnUse" id="gradient6" spreadMethod="pad" x1="-819.2" x2="819.2">
      <stop offset="0.0" stop-color="#000000"/>
      <stop offset="1.0" stop-color="#ffffff"/>
    </linearGradient>
  </defs>
</svg>
