<?xml version="1.0" encoding="UTF-8" standalone="no"?>
<svg xmlns:xlink="http://www.w3.org/1999/xlink" height="531.5px" width="460.6px" xmlns="http://www.w3.org/2000/svg">
  <g transform="matrix(1.0, 0.0, 0.0, 1.0, 193.65, 334.05)">
    <use height="22.55" transform="matrix(1.9412, 0.0, 0.0, 1.9412, -65.8966, -27.5381)" width="64.75" xlink:href="#sprite0"/>
  </g>
  <defs>
    <g id="sprite0" transform="matrix(1.0, 0.0, 0.0, 1.0, 32.35, 11.25)">
      <use height="22.55" transform="matrix(1.0, 0.0, 0.0, 1.0, -32.35, -11.25)" width="64.75" xlink:href="#shape0"/>
      <use height="21.55" transform="matrix(1.0, 0.0, 0.0, 1.0, -31.85, -10.75)" width="63.75" xlink:href="#sprite1"/>
    </g>
    <g id="shape0" transform="matrix(1.0, 0.0, 0.0, 1.0, 32.35, 11.25)">
      <path d="M7.0 -8.35 L7.6 -8.35 8.15 -9.75 8.95 -9.65 9.65 -10.7 Q11.5 -10.95 13.25 -9.8 11.15 -8.3 11.05 -7.45 L10.95 -7.45 8.25 -7.45 7.55 -7.95 7.0 -8.35 M16.0 -8.55 Q23.7 -8.55 31.4 -8.8 32.4 -8.15 31.35 -6.85 23.65 -6.5 15.3 -6.9 L15.7 -7.9 16.0 -8.55 M13.6 -7.0 L14.65 -5.5 16.05 -3.25 16.9 -1.6 16.9 -1.55 16.85 -1.3 16.75 -0.95 16.65 -0.75 16.55 -0.6 16.25 -0.35 14.7 -3.25 12.6 -6.4 12.9 -7.05 13.15 -7.6 13.6 -7.0 M7.6 -8.35 L7.55 -7.95 7.6 -8.35 M8.95 -9.65 Q10.15 -9.45 11.1 -8.95 L10.95 -7.45 11.1 -8.95 Q10.15 -9.45 8.95 -9.65 M5.8 -8.35 L4.65 -6.8 Q-12.85 -6.25 -31.15 -6.35 L-31.4 -6.35 Q-32.25 -7.3 -31.4 -8.6 L5.8 -8.35 M16.25 -1.05 L16.9 -1.55 16.25 -1.05" fill="#666666" fill-rule="evenodd" stroke="none"/>
      <path d="M13.25 -9.8 L13.5 -9.65 13.4 -8.6 16.0 -8.55 15.7 -7.9 15.3 -6.9 13.6 -7.0 13.15 -7.6 12.9 -7.05 12.6 -6.4 12.45 -6.1 10.55 -6.45 10.4 -6.2 8.9 -6.4 7.75 -6.85 8.9 -6.4 Q5.75 -2.1 4.35 1.75 L3.25 1.5 Q4.85 -2.9 7.75 -6.85 L7.85 -6.9 7.6 -6.9 7.45 -7.0 7.55 -7.95 8.25 -7.45 10.95 -7.45 10.55 -6.45 10.95 -7.45 11.05 -7.45 Q11.15 -8.3 13.25 -9.8 M5.8 -8.35 L7.0 -8.35 7.55 -7.95 7.45 -7.0 7.6 -6.9 4.65 -6.8 5.8 -8.35 M13.4 -8.6 L13.15 -7.6 13.4 -8.6" fill="#3b3b3b" fill-rule="evenodd" stroke="none"/>
      <path d="M3.25 1.5 L4.35 1.75 6.35 2.65 Q6.5 6.05 4.6 8.6 L3.8 8.45 3.1 8.35 1.3 7.85 0.6 7.6 -0.2 7.25 Q-0.25 4.05 1.4 1.3 L3.25 1.5" fill="#000000" fill-rule="evenodd" stroke="none"/>
      <path d="M3.1 8.35 L3.8 8.45 3.2 10.65 Q2.75 11.0 2.5 10.45 L3.1 8.35 M0.6 7.6 L1.3 7.85 0.7 10.0 Q0.25 10.35 0.0 9.8 L0.6 7.6" fill="#e6e6e6" fill-rule="evenodd" stroke="none"/>
      <path d="M7.0 -8.35 L7.6 -8.35 8.15 -9.75 8.95 -9.65 9.65 -10.7 Q11.5 -10.95 13.25 -9.8 L13.5 -9.65 13.4 -8.6 16.0 -8.55 Q23.7 -8.55 31.4 -8.8 32.4 -8.15 31.35 -6.85 23.65 -6.5 15.3 -6.9 L13.6 -7.0 14.65 -5.5 16.05 -3.25 16.9 -1.6 16.9 -1.55 16.85 -1.3 17.5 -0.4 M5.8 -8.35 L7.0 -8.35 M7.55 -7.95 L7.6 -8.35 M7.6 -6.9 L7.45 -7.0 7.55 -7.95 M10.95 -7.45 L11.1 -8.95 Q10.15 -9.45 8.95 -9.65 M7.75 -6.85 L7.85 -6.9 7.6 -6.9 7.75 -6.85 8.9 -6.4 10.4 -6.2 10.55 -6.45 10.95 -7.45 M4.65 -6.8 L7.6 -6.9 M4.65 -6.8 Q-12.85 -6.25 -31.15 -6.35 L-31.4 -6.35 Q-32.25 -7.3 -31.4 -8.6 L5.8 -8.35 M12.6 -6.4 L12.9 -7.05 13.15 -7.6 13.4 -8.6 M13.6 -7.0 L13.15 -7.6 M12.6 -6.4 L14.7 -3.25 16.25 -0.35 16.55 -0.6 16.65 -0.75 16.75 -0.95 16.85 -1.3 M16.9 -1.55 L16.25 -1.05 M10.55 -6.45 L12.45 -6.1 12.6 -6.4 M3.25 1.5 L4.35 1.75 Q5.75 -2.1 8.9 -6.4 M0.6 7.6 L-0.2 7.25 Q-0.25 4.05 1.4 1.3 L3.25 1.5 Q4.85 -2.9 7.75 -6.85 M3.8 8.45 L3.1 8.35 2.5 10.45 Q2.75 11.0 3.2 10.65 L3.8 8.45 4.6 8.6 Q6.5 6.05 6.35 2.65 L4.35 1.75 M1.3 7.85 L0.6 7.6 0.0 9.8 Q0.25 10.35 0.7 10.0 L1.3 7.85 3.1 8.35 M16.65 -0.75 L16.8 0.0 16.55 -0.6 M17.5 0.2 L16.75 -0.95" fill="none" stroke="#000000" stroke-linecap="round" stroke-linejoin="round" stroke-opacity="0.6627451" stroke-width="1.0"/>
    </g>
    <g id="sprite1" transform="matrix(1.0, 0.0, 0.0, 1.0, 31.85, 10.75)">
      <use height="21.55" transform="matrix(1.0, 0.0, 0.0, 1.0, -31.85, -10.75)" width="63.75" xlink:href="#shape1"/>
    </g>
    <g id="shape1" transform="matrix(1.0, 0.0, 0.0, 1.0, 31.85, 10.75)">
      <path d="M1.3 7.85 L0.7 10.0 Q0.25 10.35 0.0 9.8 L0.6 7.6 1.3 7.85" fill="url(#gradient0)" fill-rule="evenodd" stroke="none"/>
      <path d="M3.8 8.45 L3.2 10.65 Q2.75 11.0 2.5 10.45 L3.1 8.35 3.8 8.45" fill="url(#gradient1)" fill-rule="evenodd" stroke="none"/>
      <path d="M3.25 1.5 Q4.85 -2.9 7.75 -6.85 L7.85 -6.9 7.6 -6.9 4.65 -6.8 Q-12.85 -6.25 -31.15 -6.35 L-31.4 -6.35 Q-32.25 -7.3 -31.4 -8.6 L7.6 -8.35 8.15 -9.75 8.95 -9.65 9.65 -10.7 Q11.5 -10.95 13.25 -9.8 L13.5 -9.65 13.4 -8.6 16.0 -8.55 Q23.7 -8.55 31.4 -8.8 32.4 -8.15 31.35 -6.85 23.65 -6.5 15.3 -6.9 L13.6 -7.0 14.65 -5.5 16.05 -3.25 16.9 -1.6 16.9 -1.55 16.85 -1.3 16.75 -0.95 16.65 -0.75 16.55 -0.6 16.25 -0.35 14.7 -3.25 12.6 -6.4 12.45 -6.1 10.55 -6.45 10.4 -6.2 8.9 -6.4 Q5.75 -2.1 4.35 1.75 L3.25 1.5" fill="url(#gradient2)" fill-rule="evenodd" stroke="none"/>
      <path d="M4.35 1.75 L6.35 2.65 Q6.5 6.05 4.6 8.6 L3.8 8.45 3.1 8.35 1.3 7.85 0.6 7.6 -0.2 7.25 Q-0.25 4.05 1.4 1.3 L3.25 1.5 4.35 1.75" fill="url(#gradient3)" fill-rule="evenodd" stroke="none"/>
    </g>
    <linearGradient gradientTransform="matrix(-0.0046, -0.0046, 0.0011, -0.0011, 0.65, 8.85)" gradientUnits="userSpaceOnUse" id="gradient0" spreadMethod="pad" x1="-819.2" x2="819.2">
      <stop offset="0.0" stop-color="#000000"/>
      <stop offset="1.0" stop-color="#ffffff"/>
    </linearGradient>
    <linearGradient gradientTransform="matrix(-0.0036, -0.0062, 0.0013, -7.0E-4, 3.2, 9.6)" gradientUnits="userSpaceOnUse" id="gradient1" spreadMethod="pad" x1="-819.2" x2="819.2">
      <stop offset="0.0" stop-color="#000000"/>
      <stop offset="1.0" stop-color="#ffffff"/>
    </linearGradient>
    <linearGradient gradientTransform="matrix(-0.0192, -0.0418, 0.0069, -0.0032, 3.3, -1.95)" gradientUnits="userSpaceOnUse" id="gradient2" spreadMethod="pad" x1="-819.2" x2="819.2">
      <stop offset="0.0" stop-color="#000000"/>
      <stop offset="1.0" stop-color="#ffffff"/>
    </linearGradient>
    <linearGradient gradientTransform="matrix(-0.0033, -0.0122, 0.0043, -0.0012, 5.7, 7.8)" gradientUnits="userSpaceOnUse" id="gradient3" spreadMethod="pad" x1="-819.2" x2="819.2">
      <stop offset="0.0" stop-color="#000000"/>
      <stop offset="1.0" stop-color="#ffffff"/>
    </linearGradient>
  </defs>
</svg>
