<?xml version="1.0" encoding="UTF-8" standalone="no"?>
<svg xmlns:xlink="http://www.w3.org/1999/xlink" height="531.5px" width="460.6px" xmlns="http://www.w3.org/2000/svg">
  <g transform="matrix(1.0, 0.0, 0.0, 1.0, 193.65, 334.05)">
    <use height="36.4" transform="matrix(2.0067, 0.0, 0.0, 2.0067, -47.5534, -170.2534)" width="57.35" xlink:href="#sprite0"/>
  </g>
  <defs>
    <g id="sprite0" transform="matrix(1.0, 0.0, 0.0, 1.0, 0.5, 0.5)">
      <use height="36.4" transform="matrix(1.0, 0.0, 0.0, 1.0, -0.5, -0.5)" width="57.35" xlink:href="#shape0"/>
      <use height="34.7" transform="matrix(1.0, 0.0, 0.0, 1.0, 0.0, 0.0)" width="56.35" xlink:href="#sprite1"/>
    </g>
    <g id="shape0" transform="matrix(1.0, 0.0, 0.0, 1.0, 0.5, 0.5)">
      <path d="M48.75 2.8 L49.95 2.3 Q49.95 0.95 51.95 1.2 L53.25 0.15 53.65 0.05 52.6 1.7 52.5 1.8 51.1 3.55 49.55 5.05 48.75 2.8 M51.95 1.2 L52.6 1.7 51.95 1.2 M49.95 2.3 L51.1 3.55 49.95 2.3 M50.25 29.1 L51.45 29.15 Q53.7 28.35 54.55 30.4 L55.5 31.2 Q56.7 32.9 56.25 33.9 L54.95 32.45 Q54.35 31.95 53.55 31.6 52.25 31.05 50.5 30.85 L48.25 30.7 Q48.45 29.95 49.25 29.2 L50.25 29.1 M54.55 30.4 L53.55 31.6 54.55 30.4 M51.45 29.15 Q50.65 30.0 50.5 30.85 50.65 30.0 51.45 29.15 M6.55 21.0 L4.65 22.45 4.3 22.8 Q3.65 22.35 2.8 22.05 3.65 22.35 4.3 22.8 2.5 24.45 1.75 26.3 1.15 27.65 1.15 29.1 L1.15 30.15 Q-0.05 29.45 0.05 27.7 L0.15 26.65 Q-0.6 23.6 2.8 22.05 3.85 21.3 5.2 20.75 L5.7 20.5 6.55 21.0 M0.15 26.65 Q1.0 26.25 1.75 26.3 1.0 26.25 0.15 26.65" fill="#e0f7dd" fill-rule="evenodd" stroke="none"/>
      <path d="M53.65 0.05 Q55.25 -0.3 54.8 2.1 54.3 3.6 53.7 4.15 53.55 6.3 51.75 6.05 L49.85 7.15 49.7 6.8 49.55 5.05 51.1 3.55 52.5 1.8 52.6 1.7 53.65 0.05 M53.7 4.15 Q53.55 2.7 52.6 1.7 53.55 2.7 53.7 4.15 M51.75 6.05 Q51.7 4.6 51.1 3.55 51.7 4.6 51.75 6.05 M56.25 33.9 L55.85 34.4 54.15 34.35 53.1 33.65 Q53.0 33.55 53.2 33.55 52.05 33.6 51.15 32.95 L49.05 33.15 48.75 32.8 Q48.25 32.15 48.2 31.5 L48.2 31.0 48.25 30.7 50.5 30.85 Q52.25 31.05 53.55 31.6 54.35 31.95 54.95 32.45 L56.25 33.9 M53.55 31.6 Q53.1 32.4 53.25 33.55 L53.2 33.55 53.25 33.55 Q53.1 32.4 53.55 31.6 M51.15 32.95 Q50.25 31.9 50.5 30.85 50.25 31.9 51.15 32.95 M4.3 22.8 L4.65 22.45 6.55 21.0 Q7.2 21.45 7.35 22.05 L7.35 22.1 7.4 22.15 7.65 23.05 7.25 24.45 Q6.9 24.2 6.8 24.25 6.1 24.4 5.6 24.75 5.3 23.55 4.3 22.8 5.3 23.55 5.6 24.75 5.25 26.6 3.65 28.0 3.55 30.9 2.0 30.45 L1.15 30.15 1.15 29.1 Q1.15 27.65 1.75 26.3 2.8 26.3 3.55 27.2 2.8 26.3 1.75 26.3 2.5 24.45 4.3 22.8" fill="#a9e699" fill-rule="evenodd" stroke="none"/>
      <path d="M49.85 7.15 Q49.65 9.45 49.0 7.4 L48.6 5.8 48.5 5.5 Q46.2 -0.4 48.75 2.8 L49.55 5.05 49.7 6.8 49.65 7.15 49.65 7.2 49.85 7.15 M49.65 7.15 L49.0 7.4 49.65 7.15 M48.75 32.8 Q47.05 34.6 46.85 33.15 L46.85 31.55 46.95 30.85 47.0 30.5 47.85 28.8 Q49.4 26.05 50.25 29.1 L49.25 29.2 Q48.45 29.95 48.25 30.7 L48.2 31.0 48.2 31.5 Q48.25 32.15 48.75 32.8 M6.55 21.0 L5.7 20.5 5.2 20.75 Q5.1 18.55 6.1 18.9 L6.6 19.15 7.35 19.8 7.8 20.3 8.45 21.05 8.75 23.0 Q9.0 26.0 6.85 24.75 L6.8 24.25 Q6.9 24.2 7.25 24.45 L7.65 23.05 7.4 22.15 7.35 22.1 7.35 22.05 Q7.2 21.45 6.55 21.0" fill="#373737" fill-rule="evenodd" stroke="none"/>
      <path d="M53.65 0.05 Q55.25 -0.3 54.8 2.1 54.3 3.6 53.7 4.15 53.55 6.3 51.75 6.05 L49.85 7.15 Q49.65 9.45 49.0 7.4 47.65 8.1 47.5 9.95 46.95 11.2 45.95 11.35 M48.75 2.8 L49.95 2.3 Q49.95 0.95 51.95 1.2 L53.25 0.15 53.65 0.05 M52.6 1.7 Q53.55 2.7 53.7 4.15 M52.6 1.7 L51.95 1.2 M51.1 3.55 Q51.7 4.6 51.75 6.05 M49.55 5.05 L48.75 2.8 Q46.2 -0.4 48.5 5.5 L48.6 5.8 49.0 7.4 49.65 7.15 49.7 6.8 49.55 5.05 M51.1 3.55 L49.95 2.3 M49.85 7.15 L49.7 6.8 M49.85 7.15 L49.65 7.2 49.65 7.15 M50.25 29.1 L51.45 29.15 Q53.7 28.35 54.55 30.4 L55.5 31.2 Q56.7 32.9 56.25 33.9 L55.85 34.4 54.15 34.35 53.1 33.65 Q53.0 33.55 53.2 33.55 52.05 33.6 51.15 32.95 L49.05 33.15 48.75 32.8 Q47.05 34.6 46.85 33.15 L46.75 33.65 44.45 35.4 M53.2 33.55 L53.25 33.55 Q53.1 32.4 53.55 31.6 L54.55 30.4 M50.5 30.85 Q50.25 31.9 51.15 32.95 M48.25 30.7 Q48.45 29.95 49.25 29.2 L50.25 29.1 Q49.4 26.05 47.85 28.8 L47.0 30.5 46.95 30.85 46.85 31.55 46.85 33.15 M47.1 28.2 L47.85 28.8 M50.5 30.85 Q50.65 30.0 51.45 29.15 M48.75 32.8 Q48.25 32.15 48.2 31.5 L48.2 31.0 48.25 30.7 M6.55 21.0 L5.7 20.5 5.2 20.75 Q3.85 21.3 2.8 22.05 3.65 22.35 4.3 22.8 5.3 23.55 5.6 24.75 6.1 24.4 6.8 24.25 6.9 24.2 7.25 24.45 L7.65 23.05 7.4 22.15 7.35 22.1 7.35 22.05 Q7.2 21.45 6.55 21.0 M6.8 24.25 L6.85 24.75 Q9.0 26.0 8.75 23.0 L8.45 21.05 7.8 20.3 7.35 19.8 6.6 19.15 6.1 18.9 Q5.1 18.55 5.2 20.75 M7.35 19.8 L7.25 19.5 6.6 19.15 M13.7 23.85 L9.85 24.4 8.85 23.0 8.75 23.0 M6.1 18.9 L3.5 17.4 M6.9 25.75 L6.85 24.75 M1.75 26.3 Q1.0 26.25 0.15 26.65 L0.05 27.7 Q-0.05 29.45 1.15 30.15 L2.0 30.45 Q3.55 30.9 3.65 28.0 5.25 26.6 5.6 24.75 M1.75 26.3 Q2.8 26.3 3.55 27.2 M2.8 22.05 Q-0.6 23.6 0.15 26.65" fill="none" stroke="#000000" stroke-linecap="round" stroke-linejoin="round" stroke-opacity="0.6627451" stroke-width="1.0"/>
    </g>
    <g id="sprite1" transform="matrix(1.0, 0.0, 0.0, 1.0, 0.0, 0.0)">
      <use height="34.7" transform="matrix(1.0, 0.0, 0.0, 1.0, 0.0, 0.0)" width="56.35" xlink:href="#shape1"/>
    </g>
    <g id="shape1" transform="matrix(1.0, 0.0, 0.0, 1.0, 0.0, 0.0)">
      <path d="M48.75 2.8 L49.95 2.3 Q49.95 0.95 51.95 1.2 L53.25 0.15 53.65 0.05 Q55.25 -0.3 54.8 2.1 54.3 3.6 53.7 4.15 53.55 6.3 51.75 6.05 L49.85 7.15 49.7 6.8 49.55 5.05 48.75 2.8" fill="url(#gradient0)" fill-rule="evenodd" stroke="none"/>
      <path d="M49.85 7.15 Q49.65 9.45 49.0 7.4 L48.6 5.8 48.5 5.5 Q46.2 -0.4 48.75 2.8 L49.55 5.05 49.7 6.8 49.65 7.15 49.65 7.2 49.85 7.15" fill="url(#gradient1)" fill-rule="evenodd" stroke="none"/>
      <path d="M50.25 29.1 L51.45 29.15 Q53.7 28.35 54.55 30.4 L55.5 31.2 Q56.7 32.9 56.25 33.9 L55.85 34.4 54.15 34.35 53.1 33.65 Q53.0 33.55 53.2 33.55 52.05 33.6 51.15 32.95 L49.05 33.15 48.75 32.8 Q48.25 32.15 48.2 31.5 L48.2 31.0 48.25 30.7 Q48.45 29.95 49.25 29.2 L50.25 29.1" fill="url(#gradient2)" fill-rule="evenodd" stroke="none"/>
      <path d="M48.75 32.8 Q47.05 34.6 46.85 33.15 L46.85 31.55 46.95 30.85 47.0 30.5 47.85 28.8 Q49.4 26.05 50.25 29.1 L49.25 29.2 Q48.45 29.95 48.25 30.7 L48.2 31.0 48.2 31.5 Q48.25 32.15 48.75 32.8" fill="url(#gradient3)" fill-rule="evenodd" stroke="none"/>
      <path d="M5.2 20.75 Q5.1 18.55 6.1 18.9 L6.6 19.15 7.35 19.8 7.8 20.3 8.45 21.05 8.75 23.0 Q9.0 26.0 6.85 24.75 L6.8 24.25 Q6.9 24.2 7.25 24.45 L7.65 23.05 7.4 22.15 7.35 22.1 7.35 22.05 Q7.2 21.45 6.55 21.0 L5.7 20.5 5.2 20.75" fill="url(#gradient4)" fill-rule="evenodd" stroke="none"/>
      <path d="M5.2 20.75 L5.7 20.5 6.55 21.0 Q7.2 21.45 7.35 22.05 L7.35 22.1 7.4 22.15 7.65 23.05 7.25 24.45 Q6.9 24.2 6.8 24.25 6.1 24.4 5.6 24.75 5.25 26.6 3.65 28.0 3.55 30.9 2.0 30.45 L1.15 30.15 Q-0.05 29.45 0.05 27.7 L0.15 26.65 Q-0.6 23.6 2.8 22.05 3.85 21.3 5.2 20.75" fill="url(#gradient5)" fill-rule="evenodd" stroke="none"/>
    </g>
    <linearGradient gradientTransform="matrix(-0.0028, -0.0052, 0.0039, -0.002, 51.75, 3.65)" gradientUnits="userSpaceOnUse" id="gradient0" spreadMethod="pad" x1="-819.2" x2="819.2">
      <stop offset="0.0" stop-color="#000000"/>
      <stop offset="1.0" stop-color="#ffffff"/>
    </linearGradient>
    <linearGradient gradientTransform="matrix(-0.0025, -0.0096, 0.004, -0.001, 48.6, 5.0)" gradientUnits="userSpaceOnUse" id="gradient1" spreadMethod="pad" x1="-819.2" x2="819.2">
      <stop offset="0.0" stop-color="#000000"/>
      <stop offset="1.0" stop-color="#ffffff"/>
    </linearGradient>
    <linearGradient gradientTransform="matrix(0.0025, -0.0043, 0.0031, 0.0017, 52.25, 31.8)" gradientUnits="userSpaceOnUse" id="gradient2" spreadMethod="pad" x1="-819.2" x2="819.2">
      <stop offset="0.0" stop-color="#000000"/>
      <stop offset="1.0" stop-color="#ffffff"/>
    </linearGradient>
    <linearGradient gradientTransform="matrix(-0.0011, -0.0105, 0.0038, -4.0E-4, 48.5, 30.65)" gradientUnits="userSpaceOnUse" id="gradient3" spreadMethod="pad" x1="-819.2" x2="819.2">
      <stop offset="0.0" stop-color="#000000"/>
      <stop offset="1.0" stop-color="#ffffff"/>
    </linearGradient>
    <linearGradient gradientTransform="matrix(-0.0043, -0.0073, 0.0033, -0.0019, 6.95, 22.05)" gradientUnits="userSpaceOnUse" id="gradient4" spreadMethod="pad" x1="-819.2" x2="819.2">
      <stop offset="0.0" stop-color="#000000"/>
      <stop offset="1.0" stop-color="#ffffff"/>
    </linearGradient>
    <linearGradient gradientTransform="matrix(-0.0039, -0.0025, 0.0033, -0.0051, 3.8, 25.5)" gradientUnits="userSpaceOnUse" id="gradient5" spreadMethod="pad" x1="-819.2" x2="819.2">
      <stop offset="0.0" stop-color="#000000"/>
      <stop offset="1.0" stop-color="#ffffff"/>
    </linearGradient>
  </defs>
</svg>
