<?xml version="1.0" encoding="UTF-8" standalone="no"?>
<svg xmlns:xlink="http://www.w3.org/1999/xlink" height="531.5px" width="460.6px" xmlns="http://www.w3.org/2000/svg">
  <g transform="matrix(1.0, 0.0, 0.0, 1.0, 193.65, 334.05)">
    <use height="42.8" transform="matrix(1.9412, 0.0, 0.0, 1.9412, -8.9968, -246.6409)" width="40.95" xlink:href="#sprite0"/>
  </g>
  <defs>
    <g id="sprite0" transform="matrix(1.0, 0.0, 0.0, 1.0, 20.45, 21.4)">
      <use height="42.8" transform="matrix(1.0, 0.0, 0.0, 1.0, -20.45, -21.4)" width="40.95" xlink:href="#shape0"/>
      <use height="41.8" transform="matrix(1.0, 0.0, 0.0, 1.0, -19.95, -20.9)" width="39.95" xlink:href="#sprite1"/>
    </g>
    <g id="shape0" transform="matrix(1.0, 0.0, 0.0, 1.0, 20.45, 21.4)">
      <path d="M16.9 -18.85 L17.5 -19.4 18.1 -19.9 Q18.0 -17.8 17.15 -16.1 L15.4 -13.35 14.85 -13.45 15.6 -15.0 Q16.9 -17.75 16.9 -18.85 M12.5 -14.85 L14.0 -16.25 13.45 -14.85 13.15 -14.3 12.5 -14.85" fill="#f00000" fill-rule="evenodd" stroke="none"/>
      <path d="M18.1 -19.9 L18.2 -20.0 18.45 -20.2 Q20.35 -21.65 19.95 -20.0 L19.85 -19.65 19.45 -18.6 16.35 -13.35 15.4 -13.35 17.15 -16.1 Q18.0 -17.8 18.1 -19.9" fill="#ca0202" fill-rule="evenodd" stroke="none"/>
      <path d="M16.35 -13.35 L13.4 -8.45 13.85 -9.7 Q14.6 -11.4 14.6 -12.35 L14.6 -12.55 14.55 -12.9 14.5 -13.05 14.25 -13.4 14.15 -13.5 13.75 -13.7 13.7 -13.7 12.75 -13.7 13.7 -13.7 13.75 -13.7 14.15 -13.5 14.25 -13.4 13.55 -11.9 12.45 -9.35 10.85 -7.0 9.85 -7.3 9.6 -7.4 9.5 -7.6 9.45 -7.65 9.55 -7.8 9.85 -8.05 9.95 -8.4 10.85 -9.25 11.45 -10.05 Q12.1 -11.15 12.2 -11.8 L12.35 -12.65 12.4 -13.25 12.55 -13.5 12.75 -13.7 12.55 -13.7 12.4 -13.65 10.9 -13.2 10.3 -12.95 12.45 -14.85 12.5 -14.85 13.15 -14.3 Q13.9 -13.7 14.85 -13.45 L15.4 -13.35 16.35 -13.35 M5.95 -9.35 L8.2 -11.45 7.8 -9.85 7.15 -8.55 6.35 -9.1 5.95 -9.35" fill="#ff7a00" fill-rule="evenodd" stroke="none"/>
      <path d="M8.2 -11.45 L8.3 -11.55 10.0 -12.8 10.3 -12.95 10.9 -13.2 12.4 -13.65 12.55 -13.7 12.75 -13.7 12.55 -13.5 12.4 -13.25 12.35 -12.65 12.2 -11.8 Q12.1 -11.15 11.45 -10.05 L10.85 -9.25 9.95 -8.4 9.85 -8.05 9.55 -7.8 9.45 -7.65 9.1 -7.95 8.95 -8.05 7.6 -8.3 7.15 -8.55 7.8 -9.85 8.2 -11.45" fill="#fd8535" fill-rule="evenodd" stroke="none"/>
      <path d="M14.0 -16.25 L16.9 -18.85 Q16.9 -17.75 15.6 -15.0 L14.85 -13.45 Q13.9 -13.7 13.15 -14.3 L13.45 -14.85 14.0 -16.25" fill="#fd3535" fill-rule="evenodd" stroke="none"/>
      <path d="M13.4 -8.45 L12.5 -6.75 10.85 -7.0 12.45 -9.35 13.55 -11.9 14.25 -13.4 14.5 -13.05 14.55 -12.9 14.6 -12.55 14.6 -12.35 Q14.6 -11.4 13.85 -9.7 L13.4 -8.45" fill="#e36c00" fill-rule="evenodd" stroke="none"/>
      <path d="M0.55 -4.75 L0.65 -4.85 Q2.35 -6.2 3.95 -7.05 L4.1 -7.1 4.2 -7.15 5.9 -7.9 6.15 -8.0 6.05 -7.4 5.95 -6.95 5.8 -6.5 5.75 -5.95 5.3 -4.55 Q4.85 -3.4 3.75 -1.95 L3.55 -1.7 Q1.8 -2.45 0.4 -3.9 L0.55 -4.75" fill="#feef70" fill-rule="evenodd" stroke="none"/>
      <path d="M12.5 -6.75 Q11.45 -5.05 9.7 -3.25 10.05 -5.05 10.0 -6.2 L9.95 -6.4 9.75 -7.1 9.6 -6.7 9.25 -5.95 9.15 -5.75 9.1 -5.6 9.0 -5.35 7.6 -2.7 6.45 -0.95 Q4.9 -1.15 3.55 -1.7 L3.75 -1.95 Q4.85 -3.4 5.3 -4.55 L5.75 -5.95 5.8 -6.5 5.95 -6.95 6.05 -7.4 6.15 -8.0 6.7 -8.15 6.75 -8.2 6.95 -8.2 7.6 -8.3 6.95 -8.2 6.75 -8.2 6.7 -8.15 6.15 -8.0 5.9 -7.9 4.2 -7.15 5.55 -8.9 5.95 -9.35 6.35 -9.1 7.15 -8.55 7.6 -8.3 8.95 -8.05 9.1 -7.95 9.45 -7.65 9.5 -7.6 9.6 -7.4 9.85 -7.3 10.85 -7.0 12.5 -6.75 M0.0 -4.3 L0.55 -4.75 0.4 -3.9 0.0 -4.3 M9.6 -7.4 L9.7 -7.25 9.75 -7.1 9.7 -7.25 9.6 -7.4" fill="#ffe700" fill-rule="evenodd" stroke="none"/>
      <path d="M9.7 -3.25 L8.55 -0.95 6.45 -0.95 7.6 -2.7 9.0 -5.35 9.1 -5.6 9.15 -5.75 9.25 -5.95 9.6 -6.7 9.75 -7.1 9.95 -6.4 10.0 -6.2 Q10.05 -5.05 9.7 -3.25" fill="#f4dc02" fill-rule="evenodd" stroke="none"/>
      <path d="M-5.2 0.85 Q-2.45 -2.3 0.0 -4.3 L0.4 -3.9 -0.4 -2.1 Q-1.15 -0.7 -2.05 0.45 -2.15 0.6 -2.35 0.55 L-2.3 0.55 -2.05 0.45 -2.3 0.55 -2.35 0.55 Q-3.0 0.7 -3.65 1.0 -4.45 1.25 -5.25 1.7 L-5.4 1.65 -5.2 0.85 M3.55 -1.7 Q4.9 -1.15 6.45 -0.95 L5.75 -0.2 5.1 0.45 5.0 0.35 Q4.7 0.1 4.3 0.0 L4.2 -0.05 2.6 -0.3 2.55 -0.3 2.6 -0.3 4.2 -0.05 4.3 0.0 3.8 1.5 3.65 1.95 2.55 5.5 2.5 5.65 Q0.65 5.4 -0.95 4.75 L-0.45 3.35 Q-0.15 1.6 -0.7 0.1 L-0.65 0.1 0.95 -0.2 2.35 -0.3 2.55 -0.3 3.55 -1.7" fill="#6eff00" fill-rule="evenodd" stroke="none"/>
      <path d="M0.4 -3.9 Q1.8 -2.45 3.55 -1.7 L2.55 -0.3 2.35 -0.3 0.95 -0.2 -0.65 0.1 -0.7 0.1 -1.15 0.2 -1.9 0.4 -2.05 0.45 -1.9 0.4 -1.15 0.2 -0.7 0.1 Q-0.15 1.6 -0.45 3.35 L-0.95 4.75 Q-3.35 3.7 -5.25 1.7 -4.45 1.25 -3.65 1.0 -3.0 0.7 -2.35 0.55 -2.15 0.6 -2.05 0.45 -1.15 -0.7 -0.4 -2.1 L0.4 -3.9" fill="#99fd35" fill-rule="evenodd" stroke="none"/>
      <path d="M8.55 -0.95 L5.7 3.4 5.55 3.65 4.9 5.7 2.5 5.65 2.55 5.5 3.65 1.95 3.8 1.5 4.3 0.0 Q4.7 0.1 5.0 0.35 L5.1 0.45 5.75 -0.2 6.45 -0.95 8.55 -0.95 M5.55 3.65 L5.6 3.35 Q6.0 1.35 5.1 0.45 6.0 1.35 5.6 3.35 L5.55 3.65" fill="#67ca02" fill-rule="evenodd" stroke="none"/>
      <path d="M4.9 5.7 Q3.6 8.95 0.65 10.7 L0.45 12.0 -1.25 12.3 Q-0.3 11.35 0.15 8.7 L0.2 8.8 Q1.6 7.75 2.5 5.65 L4.9 5.7 M0.65 10.7 Q0.6 9.5 0.2 8.8 0.6 9.5 0.65 10.7" fill="#02d27e" fill-rule="evenodd" stroke="none"/>
      <path d="M-12.35 7.25 Q-9.75 4.1 -6.45 2.25 -6.0 1.95 -5.5 1.8 L-5.6 2.6 Q-6.1 4.25 -7.0 5.2 L-9.4 7.7 -10.35 8.55 -11.3 8.1 -12.35 7.25 M0.2 8.8 L0.15 8.7 0.1 8.65 -0.7 7.95 -0.8 7.9 -4.5 8.0 -0.8 7.9 -0.7 7.95 0.1 8.65 0.15 8.7 Q-0.3 11.35 -1.25 12.3 L-1.3 12.3 -1.6 12.3 Q-5.2 12.0 -7.45 9.8 L-7.45 9.75 -5.9 8.6 -4.5 8.0 -2.45 6.55 -0.95 4.75 Q0.65 5.4 2.5 5.65 1.6 7.75 0.2 8.8 M-5.25 1.7 L-5.45 1.75 -5.4 1.65 -5.25 1.7" fill="#00ffa4" fill-rule="evenodd" stroke="none"/>
      <path d="M0.45 12.0 L0.35 12.3 0.3 12.35 Q-0.05 13.3 -1.6 15.0 -1.05 15.9 -1.65 16.9 L-3.25 18.5 -3.65 18.8 -4.55 18.75 -4.3 18.15 -4.15 17.85 -4.6 18.05 -5.7 18.4 -7.0 17.45 Q-5.5 17.1 -3.9 16.35 L-3.5 16.1 -1.6 15.0 -3.5 16.1 -3.35 15.95 -3.25 15.8 Q-1.65 13.75 -1.5 13.05 L-1.35 12.6 -1.3 12.35 -1.3 12.3 -1.25 12.3 0.45 12.0" fill="#2201a9" fill-rule="evenodd" stroke="none"/>
      <path d="M-6.45 2.25 L-5.75 1.5 -5.2 0.85 -5.4 1.65 -5.45 1.75 -5.5 1.8 Q-6.0 1.95 -6.45 2.25" fill="#fff7e3" fill-rule="evenodd" stroke="none"/>
      <path d="M-0.95 4.75 L-2.45 6.55 -4.5 8.0 -4.6 8.0 -5.9 8.4 -6.05 8.4 -6.6 8.55 -7.3 8.7 -7.35 8.7 -8.25 8.9 -7.35 8.7 -7.3 8.7 -6.6 8.55 -6.05 8.4 -5.9 8.4 -4.6 8.0 -4.5 8.0 -5.9 8.6 -7.45 9.75 -7.45 9.8 -8.25 8.9 -10.35 8.55 -9.4 7.7 -7.0 5.2 Q-6.1 4.25 -5.6 2.6 L-5.5 1.8 -5.45 1.75 -5.25 1.7 Q-3.35 3.7 -0.95 4.75" fill="#70fec5" fill-rule="evenodd" stroke="none"/>
      <path d="M-8.25 8.9 L-7.45 9.8 Q-7.2 11.05 -7.6 12.25 -8.0 13.5 -8.55 14.45 L-9.3 15.65 -10.0 16.45 -10.45 16.9 Q-13.7 16.1 -16.35 14.15 L-16.65 13.9 -16.25 13.8 -14.4 12.65 -13.0 11.3 -12.4 10.2 -11.95 9.55 -11.75 9.15 -11.4 9.15 -8.25 8.9" fill="#714efe" fill-rule="evenodd" stroke="none"/>
      <path d="M-18.45 12.95 L-17.15 13.1 Q-17.0 10.55 -13.6 8.9 L-12.35 7.25 -11.3 8.1 -10.35 8.55 -8.25 8.9 -11.4 9.15 -11.75 9.15 -11.95 9.55 -12.4 10.2 -13.0 11.3 -14.4 12.65 -16.25 13.8 -16.65 13.9 -17.2 13.45 -18.45 12.95 M-7.45 9.8 Q-5.2 12.0 -1.6 12.3 L-1.3 12.3 -1.3 12.35 -1.35 12.6 -1.5 13.05 Q-1.65 13.75 -3.25 15.8 L-3.35 15.95 -3.5 16.1 -3.85 16.3 -3.9 16.35 -3.85 16.3 -3.5 16.1 -3.9 16.35 Q-5.5 17.1 -7.0 17.45 L-9.95 17.05 -10.45 16.9 -10.0 16.45 -9.3 15.65 -8.55 14.45 Q-8.0 13.5 -7.6 12.25 -7.2 11.05 -7.45 9.8 M-13.6 8.9 L-12.7 9.1 -12.1 9.15 -12.7 9.1 -13.6 8.9 M-17.15 13.1 L-17.2 13.45 -17.15 13.1 M-5.7 18.4 L-4.6 18.05 -4.15 17.85 -4.3 18.15 -4.55 18.75 -5.7 18.4" fill="#4300ff" fill-rule="evenodd" stroke="none"/>
      <path d="M-3.65 18.8 L-4.45 19.25 Q-6.6 20.5 -9.05 20.85 L-13.8 20.45 -14.9 20.05 -15.15 19.95 -13.35 18.4 -12.9 17.85 -12.5 17.3 -12.4 17.3 -12.2 17.4 -11.95 17.45 -11.6 17.55 -11.45 17.6 -11.05 17.65 -11.45 17.6 -11.6 17.55 -10.4 17.3 -9.95 17.05 -7.0 17.45 -10.95 17.65 -11.05 17.65 Q-10.85 18.3 -9.8 18.45 L-7.8 18.55 -5.7 18.4 -4.55 18.75 -3.65 18.8 M-19.85 15.8 L-19.95 15.5 Q-20.1 13.05 -18.45 12.95 L-17.2 13.45 -16.65 13.9 -16.35 14.15 -16.95 14.85 -16.85 15.1 -16.2 15.8 -17.7 15.95 -19.85 15.8 M-17.2 13.45 L-17.2 13.55 -16.95 14.85 -17.2 13.55 -17.2 13.45" fill="#9e00ff" fill-rule="evenodd" stroke="none"/>
      <path d="M-15.15 19.95 L-17.6 18.6 Q-19.3 17.45 -19.8 16.05 L-19.85 15.8 -17.7 15.95 -16.2 15.8 -16.85 15.1 -16.95 14.85 -16.35 14.15 Q-13.7 16.1 -10.45 16.9 L-9.95 17.05 -10.4 17.3 -11.6 17.55 -11.95 17.45 -12.2 17.4 -12.4 17.3 -12.5 17.3 -12.9 17.85 -13.35 18.4 -15.15 19.95 M-16.2 15.8 L-15.9 16.0 Q-15.0 16.5 -13.15 17.1 L-12.5 17.3 -13.15 17.1 Q-15.0 16.5 -15.9 16.0 L-16.2 15.8" fill="#b74efe" fill-rule="evenodd" stroke="none"/>
      <path d="M-11.05 17.65 L-10.95 17.65 -7.0 17.45 -5.7 18.4 -7.8 18.55 -9.8 18.45 Q-10.85 18.3 -11.05 17.65" fill="#7e02d2" fill-rule="evenodd" stroke="none"/>
      <path d="M16.9 -18.85 L17.5 -19.4 18.1 -19.9 18.2 -20.0 18.45 -20.2 Q20.35 -21.65 19.95 -20.0 L19.85 -19.65 19.45 -18.6 16.35 -13.35 13.4 -8.45 12.5 -6.75 Q11.45 -5.05 9.7 -3.25 L8.55 -0.95 5.7 3.4 5.55 3.65 4.9 5.7 Q3.6 8.95 0.65 10.7 L0.45 12.0 0.35 12.3 0.3 12.35 Q-0.05 13.3 -1.6 15.0 -1.05 15.9 -1.65 16.9 L-3.25 18.5 -3.65 18.8 -4.45 19.25 Q-6.6 20.5 -9.05 20.85 L-13.8 20.45 -14.9 20.05 -15.15 19.95 -17.6 18.6 Q-19.3 17.45 -19.8 16.05 L-19.85 15.8 -19.95 15.5 Q-20.1 13.05 -18.45 12.95 L-17.15 13.1 Q-17.0 10.55 -13.6 8.9 L-12.35 7.25 Q-9.75 4.1 -6.45 2.25 L-5.75 1.5 -5.2 0.85 Q-2.45 -2.3 0.0 -4.3 L0.55 -4.75 0.65 -4.85 Q2.35 -6.2 3.95 -7.05 L4.1 -7.1 4.2 -7.15 5.55 -8.9 5.95 -9.35 8.2 -11.45 8.3 -11.55 10.0 -12.8 10.3 -12.95 12.45 -14.85 12.5 -14.85 14.0 -16.25 16.9 -18.85 M12.75 -13.7 L12.55 -13.7 12.4 -13.65 10.9 -13.2 10.3 -12.95 M12.75 -13.7 L13.7 -13.7 13.75 -13.7 14.15 -13.5 14.25 -13.4 14.5 -13.05 14.55 -12.9 14.6 -12.55 14.6 -12.35 Q14.6 -11.4 13.85 -9.7 L13.4 -8.45 M7.6 -8.3 L6.95 -8.2 6.75 -8.2 6.7 -8.15 6.15 -8.0 5.9 -7.9 4.2 -7.15 M9.75 -7.1 L9.7 -7.25 9.6 -7.4 9.5 -7.6 9.45 -7.65 9.1 -7.95 8.95 -8.05 7.6 -8.3 M9.75 -7.1 L9.95 -6.4 10.0 -6.2 Q10.05 -5.05 9.7 -3.25 M2.55 -0.3 L2.6 -0.3 4.2 -0.05 4.3 0.0 Q4.7 0.1 5.0 0.35 L5.1 0.45 Q6.0 1.35 5.6 3.35 L5.55 3.65 M-0.7 0.1 L-0.65 0.1 0.95 -0.2 2.35 -0.3 M0.2 8.8 Q0.6 9.5 0.65 10.7 M0.15 8.7 L0.2 8.8 M-4.5 8.0 L-0.8 7.9 -0.7 7.95 0.1 8.65 0.15 8.7 M-2.05 0.45 L-2.3 0.55 -2.35 0.55 Q-3.0 0.7 -3.65 1.0 -4.45 1.25 -5.25 1.7 L-5.45 1.75 -5.5 1.8 Q-6.0 1.95 -6.45 2.25 M-2.05 0.45 L-1.9 0.4 -1.15 0.2 -0.7 0.1 M-8.25 8.9 L-7.35 8.7 -7.3 8.7 -6.6 8.55 -6.05 8.4 -5.9 8.4 -4.6 8.0 -4.5 8.0 M-7.0 17.45 Q-5.5 17.1 -3.9 16.35 L-3.85 16.3 -3.5 16.1 -1.6 15.0 M-8.25 8.9 L-11.4 9.15 -11.75 9.15 M-12.1 9.15 L-12.7 9.1 -13.6 8.9 M-11.05 17.65 L-11.45 17.6 -11.6 17.55 -11.95 17.45 -12.2 17.4 -12.4 17.3 -12.5 17.3 -13.15 17.1 Q-15.0 16.5 -15.9 16.0 L-16.2 15.8 -16.85 15.1 -16.95 14.85 -17.2 13.55 -17.2 13.45 -17.15 13.1 M-7.0 17.45 L-10.95 17.65 -11.05 17.65" fill="none" stroke="#242424" stroke-linecap="round" stroke-linejoin="round" stroke-opacity="0.6627451" stroke-width="1.0"/>
    </g>
    <g id="sprite1" transform="matrix(1.0, 0.0, 0.0, 1.0, 19.95, 20.9)">
      <use height="41.8" transform="matrix(1.0, 0.0, 0.0, 1.0, -19.95, -20.9)" width="39.95" xlink:href="#shape1"/>
    </g>
    <g id="shape1" transform="matrix(1.0, 0.0, 0.0, 1.0, 19.95, 20.9)">
      <path d="M2.35 -0.3 L2.45 -0.35 2.6 -0.3 2.35 -0.3" fill="#ffdf8f" fill-rule="evenodd" stroke="none"/>
      <path d="M10.3 -12.95 L17.5 -19.4 18.2 -20.0 Q20.35 -21.75 19.95 -20.0 L19.45 -18.6 13.4 -8.45 13.85 -9.7 Q14.65 -11.55 14.6 -12.55 L14.5 -13.05 14.15 -13.5 13.75 -13.7 13.7 -13.7 12.55 -13.7 12.4 -13.65 10.9 -13.2 10.3 -12.95" fill="url(#gradient0)" fill-rule="evenodd" stroke="none"/>
      <path d="M-1.6 15.0 Q-1.05 15.9 -1.65 16.9 L-3.25 18.5 -4.45 19.25 Q-6.6 20.5 -9.05 20.85 L-13.8 20.45 -14.9 20.05 -17.6 18.6 Q-19.3 17.45 -19.8 16.05 L-19.95 15.5 Q-20.15 12.25 -17.15 13.1 L-17.2 13.55 -16.85 15.1 -15.9 16.0 Q-15.0 16.5 -13.15 17.1 L-12.4 17.3 -12.2 17.4 -11.95 17.45 -11.85 17.5 -10.95 17.65 Q-7.75 18.2 -3.85 16.3 L-3.5 16.1 -1.6 15.0" fill="url(#gradient1)" fill-rule="evenodd" stroke="none"/>
      <path d="M5.6 3.35 L5.55 3.65 Q4.45 8.45 0.65 10.7 0.6 9.4 0.1 8.65 L-0.8 7.9 -4.6 8.0 -5.9 8.4 -6.0 8.4 -6.05 8.4 -6.6 8.55 -7.3 8.7 -7.35 8.7 -11.4 9.15 -11.9 9.15 -12.1 9.15 -12.7 9.1 -13.6 8.9 Q-10.55 4.55 -6.45 2.25 L-5.45 1.75 Q-4.55 1.3 -3.65 1.0 L-2.3 0.55 -1.9 0.4 -1.15 0.2 -0.65 0.1 0.95 -0.2 2.35 -0.3 2.6 -0.3 4.2 -0.05 5.0 0.35 Q6.0 1.25 5.6 3.35" fill="url(#gradient2)" fill-rule="evenodd" stroke="none"/>
      <path d="M0.65 10.7 L0.3 12.35 Q-0.05 13.3 -1.6 15.0 L-3.5 16.1 -3.85 16.3 Q-7.75 18.2 -10.95 17.65 L-11.85 17.5 -11.95 17.45 -12.2 17.4 -12.4 17.3 -13.15 17.1 Q-15.0 16.5 -15.9 16.0 L-16.85 15.1 -17.2 13.55 -17.15 13.1 Q-17.0 10.55 -13.6 8.9 L-12.7 9.1 -12.1 9.15 -11.9 9.15 -11.4 9.15 -7.35 8.7 -7.3 8.7 -6.6 8.55 -6.05 8.4 -6.0 8.4 -5.9 8.4 -4.6 8.0 -0.8 7.9 0.1 8.65 Q0.6 9.4 0.65 10.7" fill="url(#gradient3)" fill-rule="evenodd" stroke="none"/>
      <path d="M13.4 -8.45 Q12.3 -5.95 9.7 -3.25 10.1 -5.2 9.95 -6.4 L9.6 -7.4 9.5 -7.6 9.1 -7.95 8.95 -8.05 6.75 -8.2 6.7 -8.15 5.9 -7.9 4.2 -7.15 5.55 -8.9 8.3 -11.55 10.0 -12.8 10.3 -12.95 10.9 -13.2 12.4 -13.65 12.55 -13.7 13.7 -13.7 13.75 -13.7 14.15 -13.5 14.5 -13.05 14.6 -12.55 Q14.65 -11.55 13.85 -9.7 L13.4 -8.45" fill="url(#gradient4)" fill-rule="evenodd" stroke="none"/>
      <path d="M9.7 -3.25 Q7.9 0.6 5.7 3.4 L5.6 3.35 Q6.0 1.25 5.0 0.35 L4.2 -0.05 2.6 -0.3 2.45 -0.35 2.35 -0.3 0.95 -0.2 -0.65 0.1 -1.15 0.2 -1.9 0.4 -2.3 0.55 -3.65 1.0 Q-4.55 1.3 -5.45 1.75 L-6.45 2.25 -5.2 0.85 Q-2.1 -2.7 0.65 -4.85 2.35 -6.2 3.95 -7.05 L4.1 -7.1 4.2 -7.15 5.9 -7.9 6.7 -8.15 6.75 -8.2 8.95 -8.05 9.1 -7.95 9.5 -7.6 9.6 -7.4 9.95 -6.4 Q10.1 -5.2 9.7 -3.25" fill="url(#gradient5)" fill-rule="evenodd" stroke="none"/>
    </g>
    <linearGradient gradientTransform="matrix(-0.0031, -0.0117, 0.0073, -0.002, 15.0, -16.05)" gradientUnits="userSpaceOnUse" id="gradient0" spreadMethod="pad" x1="-819.2" x2="819.2">
      <stop offset="0.0" stop-color="#000000"/>
      <stop offset="1.0" stop-color="#ffffff"/>
    </linearGradient>
    <linearGradient gradientTransform="matrix(-0.0136, -0.0136, 0.0034, -0.0034, -10.65, 16.9)" gradientUnits="userSpaceOnUse" id="gradient1" spreadMethod="pad" x1="-819.2" x2="819.2">
      <stop offset="0.0" stop-color="#000000"/>
      <stop offset="1.0" stop-color="#ffffff"/>
    </linearGradient>
    <linearGradient gradientTransform="matrix(0.0098, -0.017, 0.0058, 0.0034, -2.25, 3.0)" gradientUnits="userSpaceOnUse" id="gradient2" spreadMethod="pad" x1="-819.2" x2="819.2">
      <stop offset="0.0" stop-color="#000000"/>
      <stop offset="1.0" stop-color="#ffffff"/>
    </linearGradient>
    <linearGradient gradientTransform="matrix(0.0085, -0.0147, 0.0054, 0.0031, -6.6, 10.3)" gradientUnits="userSpaceOnUse" id="gradient3" spreadMethod="pad" x1="-819.2" x2="819.2">
      <stop offset="0.0" stop-color="#000000"/>
      <stop offset="1.0" stop-color="#ffffff"/>
    </linearGradient>
    <linearGradient gradientTransform="matrix(-0.0032, -0.0118, 0.0062, -0.0017, 9.6, -10.5)" gradientUnits="userSpaceOnUse" id="gradient4" spreadMethod="pad" x1="-819.2" x2="819.2">
      <stop offset="0.0" stop-color="#000000"/>
      <stop offset="1.0" stop-color="#ffffff"/>
    </linearGradient>
    <linearGradient gradientTransform="matrix(0.0, -0.0176, 0.0071, 0.0, 1.65, -4.4)" gradientUnits="userSpaceOnUse" id="gradient5" spreadMethod="pad" x1="-819.2" x2="819.2">
      <stop offset="0.0" stop-color="#000000"/>
      <stop offset="1.0" stop-color="#ffffff"/>
    </linearGradient>
  </defs>
</svg>
