<?xml version="1.0" encoding="UTF-8" standalone="no"?>
<svg xmlns:xlink="http://www.w3.org/1999/xlink" height="531.5px" width="460.6px" xmlns="http://www.w3.org/2000/svg">
  <g transform="matrix(1.0, 0.0, 0.0, 1.0, 193.65, 334.05)">
    <use height="87.1" transform="matrix(1.0, 0.0, 0.0, 1.0, 15.25, -58.6)" width="69.7" xlink:href="#shape0"/>
    <use height="144.95" transform="matrix(0.5938, 0.0, 0.0, 0.5938, 15.7498, -58.1097)" width="115.7" xlink:href="#sprite0"/>
    <use height="69.7" transform="matrix(1.0, 0.0, 0.0, 1.0, -58.0, -57.45)" width="97.6" xlink:href="#shape2"/>
  </g>
  <defs>
    <g id="shape0" transform="matrix(1.0, 0.0, 0.0, 1.0, -15.25, 58.6)">
      <path d="M43.65 -51.8 L42.7 -51.05 40.25 -49.5 Q38.55 -48.55 37.6 -48.3 36.8 -49.0 36.0 -50.4 34.3 -53.3 34.45 -54.8 34.55 -56.45 36.45 -58.05 39.15 -57.75 41.7 -54.55 L43.65 -51.8" fill="#ffe7cf" fill-rule="evenodd" stroke="none"/>
      <path d="M44.6 -50.5 L44.45 -50.45 43.1 -49.6 Q39.85 -47.75 38.9 -47.7 38.3 -47.7 37.6 -48.3 38.55 -48.55 40.25 -49.5 L42.7 -51.05 43.65 -51.8 44.6 -50.5" fill="#fff2e5" fill-rule="evenodd" stroke="none"/>
      <path d="M37.6 -48.3 Q38.3 -47.7 38.9 -47.7 39.85 -47.75 43.1 -49.6 L44.45 -50.45 44.6 -50.5 48.35 -44.75 46.3 -43.3 Q44.4 -42.25 41.85 -42.25 38.15 -42.25 34.9 -45.15 33.85 -46.05 33.05 -47.1 L32.15 -49.05 Q30.0 -54.75 34.95 -57.95 L36.45 -58.05 Q34.55 -56.45 34.45 -54.8 34.3 -53.3 36.0 -50.4 36.8 -49.0 37.6 -48.3" fill="#ffcc99" fill-rule="evenodd" stroke="none"/>
      <path d="M33.05 -47.1 Q33.85 -46.05 34.9 -45.15 38.15 -42.25 41.85 -42.25 44.4 -42.25 46.3 -43.3 L48.35 -44.75 49.3 -43.25 50.35 -41.55 51.55 -39.5 50.75 -39.35 45.95 -38.75 45.85 -38.75 45.7 -38.75 40.65 -38.9 37.55 -38.4 36.4 -40.5 35.45 -42.25 33.05 -47.1" fill="#d9a979" fill-rule="evenodd" stroke="none"/>
      <path d="M35.45 -42.25 L36.4 -40.5 Q31.25 -39.65 31.25 -38.6 31.25 -37.35 37.9 -36.5 L40.5 -36.2 41.55 -35.3 Q42.8 -34.1 43.25 -32.75 L43.5 -31.1 43.5 -29.55 43.3 -27.0 43.3 -25.55 43.35 -24.6 Q43.4 -22.45 43.85 -20.75 L44.1 -19.9 38.85 -20.25 Q37.4 -25.25 35.65 -29.15 33.95 -33.9 28.4 -33.15 L27.6 -33.2 Q23.9 -33.5 23.85 -35.2 23.8 -36.35 25.3 -38.1 26.55 -39.55 28.75 -41.35 L35.45 -42.25 M38.7 -31.75 L43.5 -31.1 38.7 -31.75 38.95 -31.95 39.4 -32.75 Q39.4 -33.5 38.55 -33.75 L38.2 -33.8 37.75 -34.1 Q37.3 -34.1 36.95 -33.4 L36.65 -32.7 Q36.65 -31.5 37.95 -31.5 L38.7 -31.75 M73.0 -20.2 L57.7 -19.6 Q59.0 -20.5 59.45 -24.55 L59.85 -28.2 Q60.1 -29.85 60.75 -29.85 61.4 -29.85 62.1 -28.7 62.8 -27.6 64.55 -27.6 65.95 -27.6 67.7 -29.6 69.45 -31.6 70.45 -31.6 71.05 -31.6 71.8 -31.0 72.5 -30.4 72.85 -30.4 74.1 -30.4 76.8 -38.1 L76.8 -38.25 76.9 -38.6 76.45 -39.2 Q75.1 -40.05 70.25 -40.7 L69.6 -40.8 69.9 -42.6 79.75 -41.35 Q87.15 -34.45 82.9 -32.6 81.4 -31.95 79.4 -33.15 78.05 -33.35 75.9 -31.6 74.05 -30.15 73.0 -20.2 M55.9 -19.6 L47.8 -19.75 48.05 -20.4 48.9 -25.25 Q49.35 -28.7 49.9 -30.1 L50.15 -30.6 Q50.95 -32.3 52.45 -32.3 54.4 -32.3 54.75 -30.55 L54.75 -30.5 Q54.75 -27.9 54.9 -26.2 L54.9 -22.0 Q55.05 -20.2 55.9 -19.6 M69.9 -28.05 L69.6 -27.55 69.4 -27.2 68.8 -25.75 Q68.45 -24.55 68.45 -23.7 68.45 -22.9 68.7 -22.4 69.0 -21.8 69.5 -21.8 70.25 -21.8 70.65 -23.4 L70.95 -25.6 70.5 -26.9 69.9 -28.05 M54.2 -43.35 L54.2 -43.05 Q54.2 -42.3 54.35 -41.6 L54.1 -41.6 50.35 -41.55 49.3 -43.25 54.2 -43.35 M54.75 -30.5 L50.15 -30.6 54.75 -30.5 M29.3 17.1 L28.3 14.65 27.5 11.7 Q27.25 10.0 27.45 8.3 L27.85 6.3 28.75 4.75 Q29.25 4.0 30.5 2.95 32.55 3.0 36.7 5.15 39.55 6.95 41.25 5.45 42.7 4.2 42.7 1.1 46.5 2.8 52.15 3.25 L54.65 3.7 58.0 3.95 Q61.4 4.3 61.4 7.55 61.4 11.8 54.45 16.35 47.45 20.95 40.8 20.95 37.3 20.95 32.3 18.7 30.6 17.9 29.3 17.1" fill="#663300" fill-rule="evenodd" stroke="none"/>
      <path d="M43.35 -24.6 L43.3 -25.55 43.3 -27.0 43.5 -29.55 43.5 -31.1 43.25 -32.75 Q42.8 -34.1 41.55 -35.3 L40.5 -36.2 37.9 -36.5 Q31.25 -37.35 31.25 -38.6 31.25 -39.65 36.4 -40.5 L37.55 -38.4 36.5 -38.0 37.55 -38.4 40.65 -38.9 45.7 -38.75 45.85 -38.75 45.95 -38.75 50.75 -39.35 51.55 -39.5 50.35 -41.55 54.1 -41.6 54.35 -41.6 54.45 -41.15 Q54.75 -39.75 55.65 -38.55 L58.15 -39.05 63.95 -39.9 67.8 -39.35 68.9 -39.1 69.6 -40.8 70.25 -40.7 Q75.1 -40.05 76.45 -39.2 L75.2 -37.75 72.55 -34.4 Q72.15 -33.95 70.7 -33.7 L68.55 -33.2 66.75 -31.65 Q65.85 -30.85 64.85 -30.85 L63.3 -31.15 61.7 -31.45 Q60.15 -31.45 59.0 -28.9 57.85 -26.4 57.5 -26.4 56.4 -26.4 55.9 -27.6 L55.3 -30.3 Q54.7 -34.25 52.6 -34.25 48.85 -34.25 47.15 -28.3 L46.15 -24.2 Q45.65 -22.4 45.05 -22.4 43.9 -22.4 43.35 -24.6 M39.5 -36.65 L40.5 -36.2 39.5 -36.65 M70.55 -38.85 L68.9 -39.1 70.55 -38.85 M53.75 -39.8 L51.55 -39.5 53.75 -39.8 M55.65 -38.55 L53.85 -38.4 55.65 -38.55" fill="#db0000" fill-rule="evenodd" stroke="none"/>
      <path d="M25.3 -38.1 Q23.8 -36.35 23.85 -35.2 L22.75 -33.35 Q20.8 -29.25 20.8 -21.0 L20.9 -17.5 19.65 -13.35 21.65 -10.15 Q22.25 -6.35 23.35 -2.8 L23.8 -1.45 Q25.55 3.9 27.85 6.3 L27.45 8.3 26.85 8.3 Q22.0 8.3 18.75 -1.45 15.75 -10.25 15.75 -21.0 15.75 -29.25 17.7 -33.35 19.9 -38.1 25.0 -38.1 L25.3 -38.1 M38.85 -20.25 L44.1 -19.9 Q44.75 -18.15 45.9 -18.15 47.1 -18.15 47.8 -19.75 L55.9 -19.6 Q56.3 -19.3 56.8 -19.3 L57.7 -19.6 73.0 -20.2 73.55 -20.25 73.6 -12.75 73.05 -7.25 Q72.45 -3.45 71.45 0.4 L71.05 0.45 Q56.9 2.0 42.6 -0.45 L42.2 -0.55 Q41.05 -3.85 40.25 -7.2 L39.05 -12.75 Q38.4 -16.5 38.1 -20.3 L38.85 -20.25 M49.65 -11.95 L49.45 -12.15 Q48.65 -13.0 47.4 -13.0 46.2 -13.0 45.35 -12.15 44.5 -11.3 44.5 -10.1 44.5 -8.9 45.3 -8.05 L45.35 -8.05 Q46.2 -7.2 47.4 -7.2 48.65 -7.2 49.45 -8.05 50.3 -8.85 50.3 -10.1 50.3 -11.15 49.65 -11.95 M64.5 -12.75 L63.25 -13.0 Q62.05 -13.0 61.2 -12.15 60.35 -11.3 60.35 -10.1 60.35 -8.85 61.2 -8.05 L61.75 -7.6 Q62.4 -7.2 63.25 -7.2 64.5 -7.2 65.3 -8.05 66.2 -8.85 66.2 -10.1 66.2 -11.3 65.3 -12.15 L64.5 -12.75" fill="#ffcc00" fill-rule="evenodd" stroke="none"/>
      <path d="M23.85 -35.2 Q23.9 -33.5 27.6 -33.2 25.7 -29.1 25.7 -21.0 25.7 -10.25 28.7 -1.45 L28.8 -1.1 27.25 -0.7 Q25.45 -0.7 23.55 -2.55 L23.35 -2.8 Q22.25 -6.35 21.65 -10.15 L22.3 -13.7 20.9 -17.5 20.8 -21.0 Q20.8 -29.25 22.75 -33.35 L23.85 -35.2" fill="#cca000" fill-rule="evenodd" stroke="none"/>
      <path d="M44.1 -19.9 L43.85 -20.75 Q43.4 -22.45 43.35 -24.6 43.9 -22.4 45.05 -22.4 45.65 -22.4 46.15 -24.2 L47.15 -28.3 Q48.85 -34.25 52.6 -34.25 54.7 -34.25 55.3 -30.3 L55.9 -27.6 Q56.4 -26.4 57.5 -26.4 57.85 -26.4 59.0 -28.9 60.15 -31.45 61.7 -31.45 L63.3 -31.15 64.85 -30.85 Q65.85 -30.85 66.75 -31.65 L68.55 -33.2 70.7 -33.7 Q72.15 -33.95 72.55 -34.4 L75.2 -37.75 76.45 -39.2 76.9 -38.6 76.8 -38.25 76.8 -38.1 Q74.1 -30.4 72.85 -30.4 72.5 -30.4 71.8 -31.0 71.05 -31.6 70.45 -31.6 69.45 -31.6 67.7 -29.6 65.95 -27.6 64.55 -27.6 62.8 -27.6 62.1 -28.7 61.4 -29.85 60.75 -29.85 60.1 -29.85 59.85 -28.2 L59.45 -24.55 Q59.0 -20.5 57.7 -19.6 L55.9 -19.6 Q55.05 -20.2 54.9 -22.0 L54.9 -26.2 Q54.75 -27.9 54.75 -30.5 L54.75 -30.55 Q54.4 -32.3 52.45 -32.3 50.95 -32.3 50.15 -30.6 L49.9 -30.1 Q49.35 -28.7 48.9 -25.25 L48.05 -20.4 47.8 -19.75 Q47.1 -18.15 45.9 -18.15 44.75 -18.15 44.1 -19.9 M38.7 -31.75 L37.95 -31.5 Q36.65 -31.5 36.65 -32.7 L36.95 -33.4 Q37.3 -34.1 37.75 -34.1 L38.2 -33.8 38.55 -33.75 Q39.4 -33.5 39.4 -32.75 L38.95 -31.95 38.7 -31.75 M69.9 -28.05 L70.5 -26.9 70.95 -25.6 70.65 -23.4 Q70.25 -21.8 69.5 -21.8 69.0 -21.8 68.7 -22.4 68.45 -22.9 68.45 -23.7 68.45 -24.55 68.8 -25.75 L69.4 -27.2 69.6 -27.55 69.9 -28.05" fill="#ad0000" fill-rule="evenodd" stroke="none"/>
      <path d="M20.9 -17.5 L22.3 -13.7 21.65 -10.15 19.65 -13.35 20.9 -17.5" fill="#fffbe3" fill-rule="evenodd" stroke="none"/>
      <path d="M23.35 -2.8 L23.55 -2.55 Q25.45 -0.7 27.25 -0.7 L28.8 -1.1 30.5 2.95 Q29.25 4.0 28.75 4.75 L27.85 6.3 Q25.55 3.9 23.8 -1.45 L23.35 -2.8" fill="#ab8200" fill-rule="evenodd" stroke="none"/>
      <path d="M40.25 -7.2 Q39.05 -7.2 38.25 -8.05 37.4 -8.85 37.4 -10.1 37.4 -11.3 38.25 -12.15 L39.05 -12.75 40.25 -7.2 M49.65 -11.95 L47.9 -10.1 Q46.4 -8.7 45.3 -8.05 44.5 -8.9 44.5 -10.1 44.5 -11.3 45.35 -12.15 46.2 -13.0 47.4 -13.0 48.65 -13.0 49.45 -12.15 L49.65 -11.95 M61.75 -7.6 L61.2 -8.05 Q60.35 -8.85 60.35 -10.1 60.35 -11.3 61.2 -12.15 62.05 -13.0 63.25 -13.0 L64.5 -12.75 64.55 -11.85 Q64.55 -10.15 63.0 -8.65 L61.75 -7.6" fill="#ff9900" fill-rule="evenodd" stroke="none"/>
      <path d="M54.2 -43.35 Q54.3 -46.4 56.55 -48.6 58.85 -50.9 62.1 -50.9 65.3 -50.9 67.6 -48.6 L69.05 -46.7 Q67.75 -44.1 64.85 -42.7 61.5 -41.1 55.65 -41.1 L54.45 -41.15 54.35 -41.6 Q54.2 -42.3 54.2 -43.05 L54.2 -43.35 M64.05 -47.1 Q64.95 -47.5 64.95 -48.15 64.95 -48.75 64.05 -49.2 L62.0 -49.65 59.95 -49.2 Q59.1 -48.75 59.1 -48.15 59.1 -47.5 59.95 -47.1 60.8 -46.65 62.0 -46.65 63.25 -46.65 64.05 -47.1" fill="#ffffff" fill-rule="evenodd" stroke="none"/>
      <path d="M64.05 -47.1 Q63.25 -46.65 62.0 -46.65 60.8 -46.65 59.95 -47.1 59.1 -47.5 59.1 -48.15 59.1 -48.75 59.95 -49.2 L62.0 -49.65 64.05 -49.2 Q64.95 -48.75 64.95 -48.15 64.95 -47.5 64.05 -47.1" fill="#000000" fill-rule="evenodd" stroke="none"/>
      <path d="M69.6 -40.8 L68.9 -39.1 67.8 -39.35 63.95 -39.9 58.15 -39.05 55.65 -38.55 Q54.75 -39.75 54.45 -41.15 L55.65 -41.1 Q61.5 -41.1 64.85 -42.7 67.75 -44.1 69.05 -46.7 69.9 -45.05 69.9 -43.05 L69.9 -42.6 69.6 -40.8" fill="#d6d6d6" fill-rule="evenodd" stroke="none"/>
      <path d="M73.05 -7.25 L73.6 -12.75 74.4 -12.15 Q75.25 -11.3 75.25 -10.1 75.25 -8.85 74.4 -8.05 73.8 -7.4 73.05 -7.25 M45.3 -8.05 Q46.4 -8.7 47.9 -10.1 L49.65 -11.95 Q50.3 -11.15 50.3 -10.1 50.3 -8.85 49.45 -8.05 48.65 -7.2 47.4 -7.2 46.2 -7.2 45.35 -8.05 L45.3 -8.05 M64.5 -12.75 L65.3 -12.15 Q66.2 -11.3 66.2 -10.1 66.2 -8.85 65.3 -8.05 64.5 -7.2 63.25 -7.2 62.4 -7.2 61.75 -7.6 L63.0 -8.65 Q64.55 -10.15 64.55 -11.85 L64.5 -12.75" fill="#d98100" fill-rule="evenodd" stroke="none"/>
      <path d="M42.6 -0.45 Q56.9 2.0 71.05 0.45 L70.95 1.0 70.7 2.15 Q69.1 9.7 65.55 16.6 62.25 22.95 56.45 25.85 54.75 26.75 52.8 27.3 46.05 29.05 39.85 26.35 L38.85 25.85 Q35.65 24.2 32.9 21.75 30.6 19.7 29.3 17.1 30.6 17.9 32.3 18.7 37.3 20.95 40.8 20.95 47.45 20.95 54.45 16.35 61.4 11.8 61.4 7.55 61.4 4.3 58.0 3.95 L54.65 3.7 52.15 3.25 Q46.5 2.8 42.7 1.1 L42.7 0.25 42.6 -0.45" fill="#402000" fill-rule="evenodd" stroke="none"/>
      <path d="M37.6 -48.3 Q38.3 -47.7 38.9 -47.7 39.85 -47.75 43.1 -49.6 L44.45 -50.45 44.6 -50.5 43.65 -51.8 42.7 -51.05 40.25 -49.5 Q38.55 -48.55 37.6 -48.3 36.8 -49.0 36.0 -50.4 34.3 -53.3 34.45 -54.8 34.55 -56.45 36.45 -58.05 L34.95 -57.95 Q30.0 -54.75 32.15 -49.05 L33.05 -47.1 35.45 -42.25 28.75 -41.35 Q26.55 -39.55 25.3 -38.1 23.8 -36.35 23.85 -35.2 23.9 -33.5 27.6 -33.2 L28.4 -33.15 Q33.95 -33.9 35.65 -29.15 37.4 -25.25 38.85 -20.25 L44.1 -19.9 43.85 -20.75 Q43.4 -22.45 43.35 -24.6 L43.3 -25.55 43.3 -27.0 43.5 -29.55 43.5 -31.1 38.7 -31.75 37.95 -31.5 Q36.65 -31.5 36.65 -32.7 L36.95 -33.4 Q37.3 -34.1 37.75 -34.1 L38.2 -33.8 38.55 -33.75 Q39.4 -33.5 39.4 -32.75 L38.95 -31.95 38.7 -31.75 M48.35 -44.75 L44.6 -50.5 M36.45 -58.05 Q39.15 -57.75 41.7 -54.55 L43.65 -51.8 M36.4 -40.5 L35.45 -42.25 M36.5 -38.0 L37.55 -38.4 36.4 -40.5 Q31.25 -39.65 31.25 -38.6 31.25 -37.35 37.9 -36.5 L40.5 -36.2 39.5 -36.65 M27.45 8.3 L26.85 8.3 Q22.0 8.3 18.75 -1.45 15.75 -10.25 15.75 -21.0 15.75 -29.25 17.7 -33.35 19.9 -38.1 25.0 -38.1 L25.3 -38.1 M23.85 -35.2 L22.75 -33.35 Q20.8 -29.25 20.8 -21.0 L20.9 -17.5 22.3 -13.7 21.65 -10.15 Q22.25 -6.35 23.35 -2.8 L23.8 -1.45 Q25.55 3.9 27.85 6.3 L28.75 4.75 Q29.25 4.0 30.5 2.95 L28.8 -1.1 28.7 -1.45 Q25.7 -10.25 25.7 -21.0 25.7 -29.1 27.6 -33.2 M39.05 -12.75 Q38.4 -16.5 38.1 -20.3 L38.85 -20.25 M40.25 -7.2 Q39.05 -7.2 38.25 -8.05 37.4 -8.85 37.4 -10.1 37.4 -11.3 38.25 -12.15 L39.05 -12.75 40.25 -7.2 Q41.05 -3.85 42.2 -0.55 L42.6 -0.45 Q56.9 2.0 71.05 0.45 L71.45 0.4 Q72.45 -3.45 73.05 -7.25 L73.6 -12.75 73.55 -20.25 73.0 -20.2 57.7 -19.6 56.8 -19.3 Q56.3 -19.3 55.9 -19.6 L47.8 -19.75 Q47.1 -18.15 45.9 -18.15 44.75 -18.15 44.1 -19.9 M20.9 -17.5 L19.65 -13.35 21.65 -10.15 M57.7 -19.6 Q59.0 -20.5 59.45 -24.55 L59.85 -28.2 Q60.1 -29.85 60.75 -29.85 61.4 -29.85 62.1 -28.7 62.8 -27.6 64.55 -27.6 65.95 -27.6 67.7 -29.6 69.45 -31.6 70.45 -31.6 71.05 -31.6 71.8 -31.0 72.5 -30.4 72.85 -30.4 74.1 -30.4 76.8 -38.1 L76.8 -38.25 76.9 -38.6 76.45 -39.2 Q75.1 -40.05 70.25 -40.7 L69.6 -40.8 68.9 -39.1 70.55 -38.85 M54.2 -43.35 Q54.3 -46.4 56.55 -48.6 58.85 -50.9 62.1 -50.9 65.3 -50.9 67.6 -48.6 L69.05 -46.7 Q69.9 -45.05 69.9 -43.05 L69.9 -42.6 79.75 -41.35 Q87.15 -34.45 82.9 -32.6 81.4 -31.95 79.4 -33.15 78.05 -33.35 75.9 -31.6 74.05 -30.15 73.0 -20.2 M64.05 -47.1 Q63.25 -46.65 62.0 -46.65 60.8 -46.65 59.95 -47.1 59.1 -47.5 59.1 -48.15 59.1 -48.75 59.95 -49.2 L62.0 -49.65 64.05 -49.2 Q64.95 -48.75 64.95 -48.15 64.95 -47.5 64.05 -47.1 M69.6 -40.8 L69.9 -42.6 M54.45 -41.15 Q54.75 -39.75 55.65 -38.55 L58.15 -39.05 63.95 -39.9 67.8 -39.35 68.9 -39.1 M69.9 -28.05 L69.6 -27.55 69.4 -27.2 68.8 -25.75 Q68.45 -24.55 68.45 -23.7 68.45 -22.9 68.7 -22.4 69.0 -21.8 69.5 -21.8 70.25 -21.8 70.65 -23.4 L70.95 -25.6 70.5 -26.9 69.9 -28.05 M54.35 -41.6 Q54.2 -42.3 54.2 -43.05 L54.2 -43.35 49.3 -43.25 50.35 -41.55 54.1 -41.6 54.35 -41.6 54.45 -41.15 M53.85 -38.4 L55.65 -38.55 M51.55 -39.5 L53.75 -39.8 M37.55 -38.4 L40.65 -38.9 45.7 -38.75 45.85 -38.75 45.95 -38.75 50.75 -39.35 51.55 -39.5 50.35 -41.55 M48.35 -44.75 L49.3 -43.25 M47.8 -19.75 L48.05 -20.4 48.9 -25.25 Q49.35 -28.7 49.9 -30.1 L50.15 -30.6 Q50.95 -32.3 52.45 -32.3 54.4 -32.3 54.75 -30.55 L54.75 -30.5 Q54.75 -27.9 54.9 -26.2 L54.9 -22.0 Q55.05 -20.2 55.9 -19.6 L57.7 -19.6 M43.5 -31.1 L43.25 -32.75 Q42.8 -34.1 41.55 -35.3 L40.5 -36.2 M50.15 -30.6 L54.75 -30.5 M49.65 -11.95 L49.45 -12.15 Q48.65 -13.0 47.4 -13.0 46.2 -13.0 45.35 -12.15 44.5 -11.3 44.5 -10.1 44.5 -8.9 45.3 -8.05 L45.35 -8.05 Q46.2 -7.2 47.4 -7.2 48.65 -7.2 49.45 -8.05 50.3 -8.85 50.3 -10.1 50.3 -11.15 49.65 -11.95 M61.75 -7.6 L61.2 -8.05 Q60.35 -8.85 60.35 -10.1 60.35 -11.3 61.2 -12.15 62.05 -13.0 63.25 -13.0 L64.5 -12.75 65.3 -12.15 Q66.2 -11.3 66.2 -10.1 66.2 -8.85 65.3 -8.05 64.5 -7.2 63.25 -7.2 62.4 -7.2 61.75 -7.6 M73.6 -12.75 L74.4 -12.15 Q75.25 -11.3 75.25 -10.1 75.25 -8.85 74.4 -8.05 73.8 -7.4 73.05 -7.25 M71.05 0.45 L70.95 1.0 70.7 2.15 Q69.1 9.7 65.55 16.6 62.25 22.95 56.45 25.85 54.75 26.75 52.8 27.3 46.05 29.05 39.85 26.35 L38.85 25.85 Q35.65 24.2 32.9 21.75 30.6 19.7 29.3 17.1 L28.3 14.65 27.5 11.7 Q27.25 10.0 27.45 8.3 L27.85 6.3 M42.7 1.1 L42.7 0.25 42.6 -0.45 M30.5 2.95 Q32.55 3.0 36.7 5.15 39.55 6.95 41.25 5.45 42.7 4.2 42.7 1.1" fill="none" stroke="#000000" stroke-linecap="round" stroke-linejoin="round" stroke-opacity="0.6627451" stroke-width="1.0"/>
    </g>
    <g id="sprite0" transform="matrix(1.0, 0.0, 0.0, 1.0, 57.85, 62.75)">
      <use height="144.95" transform="matrix(1.0, 0.0, 0.0, 1.0, -57.85, -62.75)" width="115.7" xlink:href="#shape1"/>
    </g>
    <g id="shape1" transform="matrix(1.0, 0.0, 0.0, 1.0, 57.85, 62.75)">
      <path d="M7.15 -34.95 L7.3 -34.25 Q7.85 -31.9 9.3 -29.85 L13.5 -30.7 Q20.25 -32.1 23.3 -32.1 26.0 -32.1 29.8 -31.15 L31.6 -30.75 Q32.4 -32.15 32.85 -33.6 L33.9 -33.5 Q42.1 -32.35 44.35 -30.95 45.15 -30.45 45.15 -29.9 L44.95 -29.35 44.95 -29.05 Q40.4 -16.1 38.3 -16.1 37.7 -16.1 36.5 -17.1 35.25 -18.15 34.25 -18.15 32.6 -18.15 29.6 -14.75 26.65 -11.4 24.35 -11.4 21.35 -11.4 20.2 -13.25 19.05 -15.15 17.9 -15.15 16.85 -15.15 16.4 -12.4 L15.75 -6.3 Q15.0 0.55 12.75 2.1 L9.75 2.1 Q8.35 1.1 8.1 -1.95 7.9 -4.4 8.05 -9.0 7.85 -11.9 7.8 -16.3 L7.8 -16.35 Q7.25 -19.35 3.9 -19.35 1.45 -19.35 0.05 -16.45 L-0.35 -15.6 Q-1.25 -13.25 -2.05 -7.4 -2.9 -1.25 -3.5 0.75 L-3.9 1.85 Q-5.05 4.5 -7.1 4.5 -9.0 4.5 -10.1 1.55 L-10.55 0.1 Q-11.3 -2.7 -11.4 -6.35 L-11.45 -7.95 -11.45 -10.35 -11.15 -14.7 -11.1 -17.3 Q-11.2 -19.05 -11.6 -20.1 -12.35 -22.35 -14.4 -24.4 L-16.2 -25.85 -20.55 -26.35 Q-31.8 -27.85 -31.8 -29.9 -31.8 -31.7 -23.1 -33.1 L-21.15 -29.6 Q-18.85 -30.35 -15.95 -30.4 L-7.4 -30.2 -7.2 -30.2 -7.0 -30.2 1.05 -31.2 2.4 -31.45 0.4 -34.9 6.7 -34.95 7.15 -34.95" fill="url(#gradient0)" fill-rule="evenodd" stroke="none"/>
      <path d="M33.3 -12.15 L34.35 -10.2 35.05 -8.0 34.6 -4.35 Q33.9 -1.65 32.65 -1.65 31.8 -1.65 31.3 -2.65 30.9 -3.5 30.9 -4.8 30.9 -6.3 31.45 -8.25 31.6 -8.85 32.5 -10.7 L32.85 -11.35 33.3 -12.15" fill="url(#gradient1)" fill-rule="evenodd" stroke="none"/>
      <path d="M6.9 -37.9 Q7.05 -43.05 10.8 -46.8 14.7 -50.65 20.15 -50.65 25.6 -50.65 29.45 -46.8 30.95 -45.3 31.85 -43.6 33.35 -40.8 33.35 -37.45 L33.35 -36.65 32.85 -33.6 Q32.4 -32.15 31.6 -30.75 L29.8 -31.15 Q26.0 -32.1 23.3 -32.1 20.25 -32.1 13.5 -30.7 L9.3 -29.85 Q7.85 -31.9 7.3 -34.25 L7.15 -34.95 Q6.9 -36.15 6.9 -37.45 L6.9 -37.9 M23.5 -44.2 Q24.95 -44.95 24.95 -46.0 24.95 -47.05 23.5 -47.8 22.1 -48.55 20.05 -48.55 18.0 -48.55 16.55 -47.8 15.15 -47.05 15.15 -46.0 15.15 -44.95 16.55 -44.2 18.0 -43.45 20.05 -43.45 22.1 -43.45 23.5 -44.2" fill="url(#gradient2)" fill-rule="evenodd" stroke="none"/>
      <path d="M23.5 -44.2 Q22.1 -43.45 20.05 -43.45 18.0 -43.45 16.55 -44.2 15.15 -44.95 15.15 -46.0 15.15 -47.05 16.55 -47.8 18.0 -48.55 20.05 -48.55 22.1 -48.55 23.5 -47.8 24.95 -47.05 24.95 -46.0 24.95 -44.95 23.5 -44.2" fill="url(#gradient3)" fill-rule="evenodd" stroke="none"/>
      <path d="M-1.35 -37.75 L6.9 -37.9 6.9 -37.45 Q6.9 -36.15 7.15 -34.95 L6.7 -34.95 0.4 -34.9 -1.35 -37.75" fill="url(#gradient4)" fill-rule="evenodd" stroke="none"/>
      <path d="M39.55 13.65 L40.9 14.6 Q42.35 16.05 42.35 18.1 42.35 20.15 40.9 21.55 39.9 22.6 38.6 22.9 L39.55 13.65" fill="url(#gradient5)" fill-rule="evenodd" stroke="none"/>
      <path d="M38.55 1.1 L39.5 1.0 Q39.9 7.25 39.55 13.65 L38.6 22.9 Q37.65 29.25 35.95 35.75 L35.25 35.85 Q11.45 38.45 -12.65 34.35 L-13.35 34.2 Q-15.25 28.6 -16.6 23.0 -17.8 18.35 -18.6 13.65 -19.7 7.3 -20.2 0.9 L-19.0 1.0 -10.1 1.55 Q-9.0 4.5 -7.1 4.5 -5.05 4.5 -3.9 1.85 L9.75 2.1 Q10.4 2.55 11.25 2.55 L12.75 2.1 38.55 1.1 M25.6 21.55 Q27.05 20.15 27.05 18.1 27.05 16.05 25.6 14.6 24.95 13.95 24.2 13.65 23.25 13.2 22.15 13.2 20.1 13.2 18.65 14.6 17.25 16.05 17.25 18.1 17.25 20.15 18.65 21.55 L19.6 22.3 Q20.7 23.0 22.15 23.0 24.2 23.0 25.6 21.55 M-4.55 13.2 Q-6.6 13.2 -8.05 14.6 -9.45 16.05 -9.45 18.1 -9.45 20.1 -8.1 21.5 L-8.05 21.55 Q-6.6 23.0 -4.55 23.0 -2.5 23.0 -1.1 21.55 0.35 20.15 0.35 18.1 0.35 16.3 -0.8 14.95 L-1.1 14.6 Q-2.5 13.2 -4.55 13.2" fill="url(#gradient6)" fill-rule="evenodd" stroke="none"/>
      <path d="M25.6 21.55 Q24.2 23.0 22.15 23.0 20.7 23.0 19.6 22.3 L18.65 21.55 Q17.25 20.15 17.25 18.1 17.25 16.05 18.65 14.6 20.1 13.2 22.15 13.2 23.25 13.2 24.2 13.65 24.95 13.95 25.6 14.6 27.05 16.05 27.05 18.1 27.05 20.15 25.6 21.55" fill="url(#gradient7)" fill-rule="evenodd" stroke="none"/>
      <path d="M-4.55 13.2 Q-2.5 13.2 -1.1 14.6 L-0.8 14.95 Q0.35 16.3 0.35 18.1 0.35 20.15 -1.1 21.55 -2.5 23.0 -4.55 23.0 -6.6 23.0 -8.05 21.55 L-8.1 21.5 Q-9.45 20.1 -9.45 18.1 -9.45 16.05 -8.05 14.6 -6.6 13.2 -4.55 13.2" fill="url(#gradient8)" fill-rule="evenodd" stroke="none"/>
      <path d="M35.25 35.85 L35.05 36.75 34.7 38.7 Q32.0 51.45 26.0 63.05 20.45 73.75 10.7 78.65 7.8 80.1 4.55 81.05 -6.85 84.0 -17.3 79.5 L-19.0 78.65 Q-24.4 75.8 -29.0 71.7 -32.85 68.3 -35.05 63.85 -36.05 61.9 -36.7 59.75 L-38.1 54.75 Q-38.5 51.9 -38.15 49.05 L-37.5 45.7 -36.0 43.05 Q-35.15 41.85 -33.05 40.05 -29.6 40.1 -22.6 43.75 -17.75 46.75 -14.95 44.3 -12.5 42.15 -12.45 36.9 L-12.5 35.5 -12.65 34.35 Q11.45 38.45 35.25 35.85" fill="url(#gradient9)" fill-rule="evenodd" stroke="none"/>
      <path d="M-23.0 -62.65 Q-18.5 -62.2 -14.2 -56.8 L-10.9 -52.15 -12.5 -50.85 Q-13.85 -49.9 -16.65 -48.25 -19.45 -46.65 -21.1 -46.25 -22.4 -47.4 -23.8 -49.8 -26.6 -54.65 -26.35 -57.2 -26.2 -59.95 -23.0 -62.65" fill="url(#gradient10)" fill-rule="evenodd" stroke="none"/>
      <path d="M-10.9 -52.15 L-9.3 -50.0 -9.5 -49.9 -11.8 -48.45 Q-17.25 -45.3 -18.85 -45.25 -19.9 -45.25 -21.1 -46.25 -19.45 -46.65 -16.65 -48.25 -13.85 -49.9 -12.5 -50.85 L-10.9 -52.15" fill="url(#gradient11)" fill-rule="evenodd" stroke="none"/>
      <path d="M-24.7 -36.05 L-28.75 -44.2 -30.25 -47.55 Q-33.9 -57.15 -25.55 -62.55 L-23.0 -62.65 Q-26.2 -59.95 -26.35 -57.2 -26.6 -54.65 -23.8 -49.8 -22.4 -47.4 -21.1 -46.25 -19.9 -45.25 -18.85 -45.25 -17.25 -45.3 -11.8 -48.45 L-9.5 -49.9 -9.3 -50.0 Q-5.95 -45.15 -2.95 -40.3 L-1.35 -37.75 0.4 -34.9 2.4 -31.45 1.05 -31.2 -7.0 -30.2 -7.2 -30.2 -7.4 -30.2 -15.95 -30.4 Q-18.85 -30.35 -21.15 -29.6 L-23.1 -33.1 -24.7 -36.05" fill="url(#gradient12)" fill-rule="evenodd" stroke="none"/>
      <path d="M-38.15 49.05 L-39.2 49.05 Q-47.35 49.05 -52.85 32.65 -57.85 17.8 -57.85 -0.25 -57.85 -14.15 -54.6 -21.1 -50.85 -29.1 -42.3 -29.1 L-41.75 -29.1 Q-44.35 -26.1 -44.25 -24.2 L-46.1 -21.1 Q-49.35 -14.15 -49.35 -0.25 L-49.2 5.6 -51.3 12.6 -47.95 18.0 Q-46.9 24.4 -45.05 30.35 L-44.35 32.65 Q-41.35 41.65 -37.5 45.7 L-38.15 49.05" fill="url(#gradient13)" fill-rule="evenodd" stroke="none"/>
      <path d="M-49.2 5.6 L-49.35 -0.25 Q-49.35 -14.15 -46.1 -21.1 L-44.25 -24.2 Q-44.15 -21.3 -37.95 -20.8 -41.1 -13.9 -41.1 -0.25 -41.1 17.8 -36.1 32.65 L-35.9 33.25 Q-34.55 37.1 -33.05 40.05 -35.15 41.85 -36.0 43.05 L-37.5 45.7 Q-41.35 41.65 -44.35 32.65 L-45.05 30.35 Q-46.9 24.4 -47.95 18.0 L-46.8 12.0 -49.2 5.6" fill="url(#gradient14)" fill-rule="evenodd" stroke="none"/>
      <path d="M-22.7 -19.95 L-22.2 -21.2 Q-21.55 -22.35 -20.8 -22.35 L-20.1 -21.8 -19.5 -21.75 Q-18.05 -21.3 -18.05 -20.05 -18.05 -19.45 -18.8 -18.75 L-19.2 -18.4 -20.5 -18.0 Q-22.7 -18.0 -22.7 -19.95" fill="url(#gradient15)" fill-rule="evenodd" stroke="none"/>
      <path d="M-18.6 13.65 Q-17.8 18.35 -16.6 23.0 -18.6 22.95 -19.95 21.55 -21.4 20.15 -21.4 18.1 -21.4 16.05 -19.95 14.6 -19.35 14.0 -18.6 13.65" fill="url(#gradient16)" fill-rule="evenodd" stroke="none"/>
      <path d="M-49.2 5.6 L-46.8 12.0 -47.95 18.0 -51.3 12.6 -49.2 5.6" fill="url(#gradient17)" fill-rule="evenodd" stroke="none"/>
      <path d="M33.35 -36.65 L49.95 -34.55 Q62.4 -22.9 55.25 -19.8 52.65 -18.75 49.35 -20.75 47.05 -21.1 43.45 -18.15 40.3 -15.7 38.55 1.1 L12.75 2.1 Q15.0 0.55 15.75 -6.3 L16.4 -12.4 Q16.85 -15.15 17.9 -15.15 19.05 -15.15 20.2 -13.25 21.35 -11.4 24.35 -11.4 26.65 -11.4 29.6 -14.75 32.6 -18.15 34.25 -18.15 35.25 -18.15 36.5 -17.1 37.7 -16.1 38.3 -16.1 40.4 -16.1 44.95 -29.05 L44.95 -29.35 45.15 -29.9 Q45.15 -30.45 44.35 -30.95 42.1 -32.35 33.9 -33.5 L32.85 -33.6 33.35 -36.65 M-41.75 -29.1 Q-39.7 -31.5 -35.95 -34.55 L-24.7 -36.05 -23.1 -33.1 Q-31.8 -31.7 -31.8 -29.9 -31.8 -27.85 -20.55 -26.35 L-16.2 -25.85 -14.4 -24.4 Q-12.35 -22.35 -11.6 -20.1 -11.2 -19.05 -11.1 -17.3 L-11.15 -14.7 -11.45 -10.35 -11.45 -7.95 -11.4 -6.35 Q-11.3 -2.7 -10.55 0.1 L-10.1 1.55 -19.0 1.0 Q-21.4 -7.4 -24.4 -14.0 -27.2 -22.0 -36.55 -20.75 L-37.95 -20.8 Q-44.15 -21.3 -44.25 -24.2 -44.35 -26.1 -41.75 -29.1 M-3.9 1.85 L-3.5 0.75 Q-2.9 -1.25 -2.05 -7.4 -1.25 -13.25 -0.35 -15.6 L0.05 -16.45 Q1.45 -19.35 3.9 -19.35 7.25 -19.35 7.8 -16.35 L7.8 -16.3 Q7.85 -11.9 8.05 -9.0 7.9 -4.4 8.1 -1.95 8.35 1.1 9.75 2.1 L-3.9 1.85 M33.3 -12.15 L32.85 -11.35 32.5 -10.7 Q31.6 -8.85 31.45 -8.25 30.9 -6.3 30.9 -4.8 30.9 -3.5 31.3 -2.65 31.8 -1.65 32.65 -1.65 33.9 -1.65 34.6 -4.35 L35.05 -8.0 34.35 -10.2 33.3 -12.15 M-22.7 -19.95 Q-22.7 -18.0 -20.5 -18.0 L-19.2 -18.4 -18.8 -18.75 Q-18.05 -19.45 -18.05 -20.05 -18.05 -21.3 -19.5 -21.75 L-20.1 -21.8 -20.8 -22.35 Q-21.55 -22.35 -22.2 -21.2 L-22.7 -19.95" fill="url(#gradient18)" fill-rule="evenodd" stroke="none"/>
    </g>
    <linearGradient gradientTransform="matrix(0.0465, 0.0, 0.0, 0.0197, 6.25, -18.8)" gradientUnits="userSpaceOnUse" id="gradient0" spreadMethod="pad" x1="-819.2" x2="819.2">
      <stop offset="0.0" stop-color="#000000"/>
      <stop offset="1.0" stop-color="#ffffff"/>
    </linearGradient>
    <linearGradient gradientTransform="matrix(0.0025, 0.0, 0.0, 0.0064, 32.95, -6.9)" gradientUnits="userSpaceOnUse" id="gradient1" spreadMethod="pad" x1="-819.2" x2="819.2">
      <stop offset="0.0" stop-color="#000000"/>
      <stop offset="1.0" stop-color="#ffffff"/>
    </linearGradient>
    <linearGradient gradientTransform="matrix(0.0152, 0.0, 0.0, 0.0101, 19.35, -42.4)" gradientUnits="userSpaceOnUse" id="gradient2" spreadMethod="pad" x1="-819.2" x2="819.2">
      <stop offset="0.0" stop-color="#000000"/>
      <stop offset="1.0" stop-color="#ffffff"/>
    </linearGradient>
    <linearGradient gradientTransform="matrix(0.006, 0.0, 0.0, 0.0031, 20.05, -46.0)" gradientUnits="userSpaceOnUse" id="gradient3" spreadMethod="pad" x1="-819.2" x2="819.2">
      <stop offset="0.0" stop-color="#000000"/>
      <stop offset="1.0" stop-color="#ffffff"/>
    </linearGradient>
    <linearGradient gradientTransform="matrix(0.0052, 0.0, 0.0, 0.0018, 2.9, -36.4)" gradientUnits="userSpaceOnUse" id="gradient4" spreadMethod="pad" x1="-819.2" x2="819.2">
      <stop offset="0.0" stop-color="#000000"/>
      <stop offset="1.0" stop-color="#ffffff"/>
    </linearGradient>
    <linearGradient gradientTransform="matrix(0.0023, 0.0, 0.0, 0.0056, 40.45, 18.25)" gradientUnits="userSpaceOnUse" id="gradient5" spreadMethod="pad" x1="-819.2" x2="819.2">
      <stop offset="0.0" stop-color="#000000"/>
      <stop offset="1.0" stop-color="#ffffff"/>
    </linearGradient>
    <linearGradient gradientTransform="matrix(0.0366, 0.0, 0.0, 0.0219, 9.75, 18.85)" gradientUnits="userSpaceOnUse" id="gradient6" spreadMethod="pad" x1="-819.2" x2="819.2">
      <stop offset="0.0" stop-color="#000000"/>
      <stop offset="1.0" stop-color="#ffffff"/>
    </linearGradient>
    <linearGradient gradientTransform="matrix(0.0043, 0.0, 0.0, 0.0056, 20.75, 17.75)" gradientUnits="userSpaceOnUse" id="gradient7" spreadMethod="pad" x1="-819.2" x2="819.2">
      <stop offset="0.0" stop-color="#000000"/>
      <stop offset="1.0" stop-color="#ffffff"/>
    </linearGradient>
    <linearGradient gradientTransform="matrix(0.0053, 0.0, 0.0, 0.0051, -5.15, 17.35)" gradientUnits="userSpaceOnUse" id="gradient8" spreadMethod="pad" x1="-819.2" x2="819.2">
      <stop offset="0.0" stop-color="#000000"/>
      <stop offset="1.0" stop-color="#ffffff"/>
    </linearGradient>
    <linearGradient gradientTransform="matrix(0.035, 0.0, 0.0, 0.0204, -9.65, 53.65)" gradientUnits="userSpaceOnUse" id="gradient9" spreadMethod="pad" x1="-819.2" x2="819.2">
      <stop offset="0.0" stop-color="#000000"/>
      <stop offset="1.0" stop-color="#ffffff"/>
    </linearGradient>
    <linearGradient gradientTransform="matrix(0.0094, 0.0, 0.0, 0.01, -18.65, -54.45)" gradientUnits="userSpaceOnUse" id="gradient10" spreadMethod="pad" x1="-819.2" x2="819.2">
      <stop offset="0.0" stop-color="#000000"/>
      <stop offset="1.0" stop-color="#ffffff"/>
    </linearGradient>
    <linearGradient gradientTransform="matrix(0.0072, 0.0, 0.0, 0.0042, -15.2, -48.7)" gradientUnits="userSpaceOnUse" id="gradient11" spreadMethod="pad" x1="-819.2" x2="819.2">
      <stop offset="0.0" stop-color="#000000"/>
      <stop offset="1.0" stop-color="#ffffff"/>
    </linearGradient>
    <linearGradient gradientTransform="matrix(0.0173, 0.0, 0.0, 0.0163, -17.15, -49.45)" gradientUnits="userSpaceOnUse" id="gradient12" spreadMethod="pad" x1="-819.2" x2="819.2">
      <stop offset="0.0" stop-color="#000000"/>
      <stop offset="1.0" stop-color="#ffffff"/>
    </linearGradient>
    <linearGradient gradientTransform="matrix(0.0124, 0.0, 0.0, 0.0477, -47.7, 9.95)" gradientUnits="userSpaceOnUse" id="gradient13" spreadMethod="pad" x1="-819.2" x2="819.2">
      <stop offset="0.0" stop-color="#000000"/>
      <stop offset="1.0" stop-color="#ffffff"/>
    </linearGradient>
    <linearGradient gradientTransform="matrix(0.0082, 0.0, 0.0, 0.0355, -42.65, 4.85)" gradientUnits="userSpaceOnUse" id="gradient14" spreadMethod="pad" x1="-819.2" x2="819.2">
      <stop offset="0.0" stop-color="#000000"/>
      <stop offset="1.0" stop-color="#ffffff"/>
    </linearGradient>
    <linearGradient gradientTransform="matrix(0.0028, 0.0, 0.0, 0.0027, -20.4, -20.2)" gradientUnits="userSpaceOnUse" id="gradient15" spreadMethod="pad" x1="-819.2" x2="819.2">
      <stop offset="0.0" stop-color="#000000"/>
      <stop offset="1.0" stop-color="#ffffff"/>
    </linearGradient>
    <linearGradient gradientTransform="matrix(0.0029, 0.0, 0.0, 0.0057, -19.0, 18.3)" gradientUnits="userSpaceOnUse" id="gradient16" spreadMethod="pad" x1="-819.2" x2="819.2">
      <stop offset="0.0" stop-color="#000000"/>
      <stop offset="1.0" stop-color="#ffffff"/>
    </linearGradient>
    <linearGradient gradientTransform="matrix(0.0027, 0.0, 0.0, 0.0076, -49.05, 11.8)" gradientUnits="userSpaceOnUse" id="gradient17" spreadMethod="pad" x1="-819.2" x2="819.2">
      <stop offset="0.0" stop-color="#000000"/>
      <stop offset="1.0" stop-color="#ffffff"/>
    </linearGradient>
    <linearGradient gradientTransform="matrix(-0.0346, 0.0, 0.0, -0.0229, 10.05, -10.7)" gradientUnits="userSpaceOnUse" id="gradient18" spreadMethod="pad" x1="-819.2" x2="819.2">
      <stop offset="0.0" stop-color="#000000"/>
      <stop offset="1.0" stop-color="#ffffff"/>
    </linearGradient>
    <g id="shape2" transform="matrix(1.0, 0.0, 0.0, 1.0, 58.0, 57.45)">
      <path d="M-11.1 -43.9 L-10.45 -44.75 -10.45 -43.5 -10.5 -36.2 Q-10.5 -32.3 -10.15 -29.35 L-9.9 -29.0 -7.6 -29.25 -2.05 -29.35 9.9 -29.7 10.35 -30.5 11.0 -31.85 Q11.55 -33.8 13.45 -34.6 15.3 -35.45 17.05 -35.25 L19.35 -35.3 19.8 -35.2 Q20.65 -34.9 20.8 -34.0 L20.95 -33.3 20.85 -33.15 20.7 -32.15 20.65 -31.65 20.6 -30.65 20.65 -30.0 20.7 -29.5 Q20.7 -29.25 20.85 -29.15 L21.25 -29.15 21.3 -29.15 21.3 -29.1 21.9 -29.1 22.0 -29.1 22.0 -29.05 23.1 -29.05 24.25 -29.05 28.65 -28.7 29.6 -28.6 31.95 -28.2 33.8 -27.45 34.0 -27.4 35.0 -26.55 35.3 -26.2 35.75 -25.5 Q36.4 -24.25 36.4 -21.85 L36.15 -19.45 35.7 -18.4 36.9 -17.7 Q37.9 -17.15 38.55 -15.8 L39.25 -14.1 Q39.6 -12.8 39.6 -10.9 39.6 -8.0 38.15 -6.35 L37.25 -5.5 36.9 -5.3 36.65 -5.15 35.25 -4.6 35.3 -4.5 35.7 -4.0 36.35 -1.9 36.35 -1.6 36.4 -1.45 36.55 -0.2 Q36.55 1.85 35.5 3.9 34.6 5.6 33.6 6.05 L33.25 6.35 33.05 6.45 32.25 6.7 32.1 6.75 31.25 7.05 28.35 7.6 26.45 8.1 26.05 8.3 26.0 8.3 25.6 8.55 21.95 9.4 17.65 10.2 9.4 11.45 -7.7 12.25 Q-17.95 12.1 -33.0 9.2 -36.55 8.25 -39.75 6.7 -42.1 5.55 -44.25 4.1 -46.8 1.6 -49.0 -2.75 -51.9 -8.45 -53.45 -15.0 -57.2 -31.2 -57.65 -38.9 -58.1 -46.2 -58.0 -48.55 -57.75 -53.9 -55.85 -57.45 L-55.55 -57.15 -55.45 -56.8 -55.4 -56.4 -55.7 -50.85 -55.95 -45.2 Q-54.9 -27.75 -51.7 -15.75 -48.75 -4.7 -44.25 0.8 L-42.45 2.3 -42.3 2.4 Q-37.9 5.55 -33.0 7.25 -28.25 8.55 -23.2 9.3 L-1.6 10.55 16.3 9.1 24.55 7.55 25.3 7.25 27.1 6.65 28.85 6.25 31.4 5.8 31.9 5.65 32.1 5.6 32.75 5.25 33.6 4.6 33.85 4.25 34.65 2.55 34.75 2.3 34.8 2.25 35.15 -0.35 34.85 -2.55 34.35 -3.6 33.9 -4.05 33.8 -4.1 33.5 -4.2 33.3 -4.2 33.0 -4.2 32.25 -4.15 32.3 -4.2 32.05 -4.2 32.25 -4.5 Q32.6 -4.85 33.8 -5.4 L33.95 -5.45 34.55 -5.65 35.7 -6.05 37.05 -7.3 38.0 -8.8 38.3 -9.8 38.4 -10.3 38.45 -10.55 38.25 -12.1 37.8 -13.8 Q37.2 -15.3 36.6 -15.85 35.7 -16.7 34.3 -16.55 L33.3 -16.55 32.85 -16.55 32.8 -16.65 32.7 -16.65 Q32.2 -16.65 32.2 -17.0 32.2 -17.3 32.75 -17.5 L32.9 -17.55 33.8 -17.85 34.4 -18.2 34.7 -18.8 35.0 -19.85 35.15 -21.9 Q35.15 -23.75 34.75 -25.0 L34.2 -25.95 Q33.05 -26.95 29.95 -27.5 L23.1 -28.15 22.0 -28.2 22.0 -28.05 18.15 -28.2 19.05 -28.75 19.1 -28.75 Q18.9 -29.25 18.95 -30.15 18.95 -31.6 19.25 -32.7 L19.5 -33.6 19.15 -33.7 15.2 -33.8 Q14.1 -33.5 13.55 -32.85 13.0 -32.4 12.6 -31.55 12.1 -30.6 11.7 -29.15 L10.9 -27.85 Q10.75 -27.65 -2.05 -27.5 L-6.6 -27.45 -9.1 -27.4 -10.15 -27.45 -10.2 -27.45 -11.6 -27.3 -17.55 -26.65 -17.6 -26.85 -17.7 -27.55 Q-17.7 -28.45 -15.15 -28.65 L-13.25 -28.75 -12.55 -28.8 -13.3 -29.15 -14.7 -29.75 -17.45 -30.3 -20.0 -31.0 Q-18.5 -31.9 -14.2 -31.0 L-13.4 -30.8 -12.2 -30.45 -12.25 -30.75 -12.25 -34.55 -12.15 -40.1 Q-11.9 -42.6 -11.1 -43.9" fill="#000000" fill-rule="evenodd" stroke="none"/>
      <path d="M-53.85 -56.9 Q-42.5 -57.25 -32.5 -54.05 -21.85 -50.65 -17.2 -47.7 L-13.35 -45.25 -13.7 -36.3 -13.4 -30.8 -14.2 -31.0 Q-18.5 -31.9 -20.0 -31.0 L-17.45 -30.3 -14.7 -29.75 -13.3 -29.15 -13.25 -28.75 -15.15 -28.65 Q-17.7 -28.45 -17.7 -27.55 L-17.6 -26.85 -17.55 -26.65 -11.6 -27.3 -10.2 -27.45 -10.15 -27.45 -9.1 -27.4 -6.6 -27.45 -2.05 -27.5 Q10.75 -27.65 10.9 -27.85 L11.7 -29.15 Q12.1 -30.6 12.6 -31.55 13.0 -32.4 13.55 -32.85 14.1 -33.5 15.2 -33.8 L19.15 -33.7 19.5 -33.6 19.25 -32.7 Q18.95 -31.6 18.95 -30.15 18.9 -29.25 19.1 -28.75 L19.05 -28.75 18.15 -28.2 22.0 -28.05 22.0 -28.2 23.1 -28.15 29.95 -27.5 31.15 -25.05 32.3 -19.55 32.9 -17.55 32.75 -17.5 Q32.2 -17.3 32.2 -17.0 32.2 -16.65 32.7 -16.65 L32.8 -16.65 32.85 -16.55 33.3 -16.55 34.45 -14.6 Q35.8 -12.7 35.8 -9.8 35.8 -8.25 34.55 -5.65 L33.95 -5.45 33.8 -5.4 Q32.6 -4.85 32.25 -4.5 L32.05 -4.2 32.3 -4.2 32.25 -4.15 33.0 -4.2 33.3 -4.2 33.5 -4.2 33.8 -4.1 33.9 -4.05 Q33.5 -2.6 33.8 -1.3 34.2 0.55 33.25 3.55 L32.75 5.25 32.1 5.6 31.9 5.65 31.4 5.8 28.85 6.25 27.1 6.65 25.3 7.25 24.55 7.55 16.3 9.1 -1.6 10.55 -23.2 9.3 Q-28.25 8.55 -33.0 7.25 -37.9 5.55 -42.3 2.4 L-42.45 2.3 Q-48.6 -8.5 -51.35 -21.0 -53.95 -32.9 -53.95 -54.05 L-53.85 -56.9" fill="#999999" fill-rule="evenodd" stroke="none"/>
      <path d="M-55.45 -56.8 L-53.85 -56.9 -53.95 -54.05 Q-53.95 -32.9 -51.35 -21.0 -48.6 -8.5 -42.45 2.3 L-44.25 0.8 Q-48.75 -4.7 -51.7 -15.75 -54.9 -27.75 -55.95 -45.2 L-55.7 -50.85 -55.4 -56.4 -55.45 -56.8 M-13.35 -45.25 L-11.1 -43.9 Q-11.9 -42.6 -12.15 -40.1 L-12.25 -34.55 -12.25 -30.75 -12.2 -30.45 -13.4 -30.8 -13.7 -36.3 -13.35 -45.25 M29.95 -27.5 Q33.05 -26.95 34.2 -25.95 L34.75 -25.0 Q35.15 -23.75 35.15 -21.9 L35.0 -19.85 34.7 -18.8 34.4 -18.2 33.8 -17.85 32.9 -17.55 32.3 -19.55 31.15 -25.05 29.95 -27.5 M33.3 -16.55 L34.3 -16.55 Q35.7 -16.7 36.6 -15.85 37.2 -15.3 37.8 -13.8 L38.25 -12.1 38.45 -10.55 38.4 -10.3 38.3 -9.8 38.0 -8.8 37.05 -7.3 35.7 -6.05 34.55 -5.65 Q35.8 -8.25 35.8 -9.8 35.8 -12.7 34.45 -14.6 L33.3 -16.55 M33.9 -4.05 L34.35 -3.6 34.85 -2.55 35.15 -0.35 34.8 2.25 34.75 2.3 34.65 2.55 33.85 4.25 33.6 4.6 32.75 5.25 33.25 3.55 Q34.2 0.55 33.8 -1.3 33.5 -2.6 33.9 -4.05" fill="#bdbdbd" fill-rule="evenodd" stroke="none"/>
    </g>
  </defs>
</svg>
