<?xml version="1.0" encoding="UTF-8" standalone="no"?>
<svg xmlns:xlink="http://www.w3.org/1999/xlink" height="531.5px" width="460.6px" xmlns="http://www.w3.org/2000/svg">
  <g transform="matrix(1.0, 0.0, 0.0, 1.0, 193.65, 334.05)">
    <use height="24.8" transform="matrix(2.0067, 0.0, 0.0, 2.0067, -98.0534, -124.1534)" width="81.7" xlink:href="#sprite0"/>
  </g>
  <defs>
    <g id="sprite0" transform="matrix(1.0, 0.0, 0.0, 1.0, 0.5, 0.5)">
      <use height="24.8" transform="matrix(1.0, 0.0, 0.0, 1.0, -0.5, -0.5)" width="81.7" xlink:href="#shape0"/>
      <use height="23.8" transform="matrix(1.0, 0.0, 0.0, 1.0, 0.0, 0.0)" width="80.7" xlink:href="#sprite1"/>
    </g>
    <g id="shape0" transform="matrix(1.0, 0.0, 0.0, 1.0, 0.5, 0.5)">
      <path d="M75.8 9.45 Q77.75 8.6 78.1 7.65 80.0 8.65 80.5 10.1 L78.75 11.0 77.85 11.25 Q77.25 10.2 75.8 9.45 77.25 10.2 77.85 11.25 74.55 12.15 72.7 13.05 L72.65 13.1 Q68.3 15.15 65.35 15.9 L64.5 16.1 Q64.6 14.2 63.3 12.25 64.6 14.2 64.5 16.1 L58.15 16.95 54.2 17.05 50.05 16.95 41.25 16.15 Q41.15 14.5 42.35 12.65 41.15 14.5 41.25 16.15 L35.55 15.4 33.3 15.05 29.8 14.45 24.35 13.25 Q24.15 11.35 25.8 9.65 L31.35 10.9 36.75 11.9 42.35 12.65 50.9 13.15 57.5 12.9 59.6 12.7 63.3 12.25 71.15 10.9 75.8 9.45 M1.05 21.25 L0.0 18.75 1.9 14.65 Q3.15 12.25 4.5 10.6 5.75 9.05 7.45 8.15 7.4 9.45 7.8 10.7 L6.4 12.4 4.25 15.8 4.0 16.15 1.05 21.25 M11.25 1.3 Q12.25 0.7 13.5 0.35 L14.45 0.15 Q18.0 -0.6 17.35 2.1 17.6 2.4 17.4 3.2 16.85 5.15 17.5 6.35 L17.4 6.5 17.45 6.5 Q18.2 6.6 19.3 7.85 L20.6 8.25 25.8 9.65 Q24.15 11.35 24.35 13.25 21.25 12.45 19.25 11.6 16.9 10.55 15.9 9.4 L16.05 8.85 Q16.45 7.7 17.4 6.5 16.7 6.45 16.25 7.3 L15.8 8.75 15.8 8.85 15.45 8.8 Q14.65 8.7 14.0 8.2 12.85 7.35 12.75 5.65 L12.7 5.15 12.75 4.55 13.4 3.7 Q15.65 4.8 16.25 7.3 15.65 4.8 13.4 3.7 L12.75 4.55 Q12.35 5.1 12.1 5.75 L12.05 5.75 Q11.65 4.6 10.9 4.05 L10.9 3.65 Q10.9 2.5 11.25 1.3 M71.15 10.9 Q72.25 11.95 72.65 13.1 72.25 11.95 71.15 10.9 M50.9 13.15 Q50.0 15.3 50.05 16.95 50.0 15.3 50.9 13.15 M57.5 12.9 Q58.3 15.05 58.15 16.95 58.3 15.05 57.5 12.9 M31.35 10.9 Q29.7 12.6 29.8 14.45 29.7 12.6 31.35 10.9 M36.75 11.9 Q35.5 13.7 35.55 15.4 35.5 13.7 36.75 11.9 M17.35 2.1 L15.45 2.2 15.2 2.35 Q15.6 0.95 14.45 0.15 15.6 0.95 15.2 2.35 L15.45 2.2 17.35 2.1 M20.6 8.25 Q18.8 9.55 19.25 11.6 18.8 9.55 20.6 8.25 M15.2 2.35 Q14.15 2.75 13.4 3.7 14.15 2.75 15.2 2.35 M1.9 14.65 Q3.25 14.9 4.25 15.8 3.25 14.9 1.9 14.65 M4.5 10.6 L6.4 12.4 4.5 10.6" fill="#bea47c" fill-rule="evenodd" stroke="none"/>
      <path d="M77.85 11.25 L78.75 11.0 80.5 10.1 Q80.85 11.1 80.55 12.3 79.85 14.65 77.25 15.7 L75.9 16.05 71.6 17.0 63.95 18.25 57.7 18.85 50.7 19.15 42.3 18.85 36.5 18.25 31.05 17.4 25.65 16.2 21.1 15.0 20.7 14.85 Q18.5 14.05 17.3 12.95 L16.5 12.1 16.45 11.95 16.45 12.05 Q16.0 13.85 13.35 12.85 L12.15 11.35 Q11.55 10.35 11.4 9.3 13.9 10.9 15.75 10.05 L15.8 10.5 Q15.9 11.15 16.3 11.8 L16.45 12.05 16.3 11.8 Q15.9 11.15 15.8 10.5 L15.75 10.05 Q13.9 10.9 11.4 9.3 11.55 10.35 12.15 11.35 L13.35 12.85 13.9 13.35 14.0 13.4 Q12.8 15.5 10.1 13.95 9.2 14.25 8.25 15.4 7.2 16.55 6.15 18.7 5.1 20.8 3.95 23.8 L2.55 23.7 2.4 20.05 1.45 22.2 1.05 21.25 4.0 16.15 4.25 15.8 6.4 12.4 7.8 10.7 Q8.05 11.55 8.6 12.35 L9.7 13.7 10.1 13.95 9.7 13.7 8.6 12.35 Q8.05 11.55 7.8 10.7 7.4 9.45 7.45 8.15 7.45 7.15 7.75 6.05 8.15 4.6 8.85 3.55 9.75 2.15 11.25 1.3 10.9 2.5 10.9 3.65 L10.9 4.05 Q11.65 4.6 12.05 5.75 L12.05 5.85 12.1 5.75 12.05 5.85 12.05 5.75 12.1 5.75 Q12.35 5.1 12.75 4.55 L12.7 5.15 12.75 5.65 Q12.85 7.35 14.0 8.2 14.65 8.7 15.45 8.8 L15.8 8.85 15.8 8.75 16.25 7.3 Q16.7 6.45 17.4 6.5 16.45 7.7 16.05 8.85 L15.9 9.4 Q16.9 10.55 19.25 11.6 19.55 13.1 21.1 15.0 19.55 13.1 19.25 11.6 21.25 12.45 24.35 13.25 L29.8 14.45 33.3 15.05 35.55 15.4 41.25 16.15 50.05 16.95 54.2 17.05 58.15 16.95 64.5 16.1 63.95 18.25 64.5 16.1 65.35 15.9 Q68.3 15.15 72.65 13.1 73.3 15.0 71.6 17.0 73.3 15.0 72.65 13.1 L72.7 13.05 Q74.55 12.15 77.85 11.25 78.8 13.05 77.25 15.7 78.8 13.05 77.85 11.25 M57.7 18.85 L58.15 16.95 57.7 18.85 M42.3 18.85 Q41.3 17.55 41.25 16.15 41.3 17.55 42.3 18.85 M36.5 18.25 Q35.55 16.85 35.55 15.4 35.55 16.85 36.5 18.25 M50.7 19.15 Q50.05 18.2 50.05 16.95 50.05 18.2 50.7 19.15 M25.65 16.2 Q24.5 14.65 24.35 13.25 24.5 14.65 25.65 16.2 M31.05 17.4 Q29.9 15.9 29.8 14.45 29.9 15.9 31.05 17.4 M8.85 3.55 Q10.1 3.45 10.9 4.05 10.1 3.45 8.85 3.55 M15.8 10.5 L15.9 9.4 15.8 10.5 M15.8 8.85 L15.75 9.2 15.75 10.05 15.75 9.2 15.8 8.85 M11.4 9.3 Q11.2 8.05 11.7 6.75 L12.05 5.85 11.7 6.75 Q11.2 8.05 11.4 9.3 M16.3 11.8 L16.45 11.95 16.3 11.8 M8.25 15.4 Q7.5 13.7 6.4 12.4 7.5 13.7 8.25 15.4 M6.15 18.7 Q5.45 16.8 4.25 15.8 5.45 16.8 6.15 18.7 M12.15 11.35 Q11.4 13.5 8.6 12.35 11.4 13.5 12.15 11.35" fill="#ad8d58" fill-rule="evenodd" stroke="none"/>
      <path d="M80.5 10.1 Q80.0 8.65 78.1 7.65 77.75 8.6 75.8 9.45 77.25 10.2 77.85 11.25 78.8 13.05 77.25 15.7 L75.9 16.05 71.6 17.0 63.95 18.25 57.7 18.85 50.7 19.15 42.3 18.85 36.5 18.25 31.05 17.4 25.65 16.2 21.1 15.0 20.7 14.85 Q18.5 14.05 17.3 12.95 L16.5 12.1 Q16.6 12.7 17.05 13.1 L17.9 13.85 Q18.35 15.85 14.0 13.4 12.8 15.5 10.1 13.95 9.2 14.25 8.25 15.4 7.2 16.55 6.15 18.7 5.1 20.8 3.95 23.8 L2.55 23.7 2.4 20.05 1.45 22.2 1.05 21.25 0.0 18.75 1.9 14.65 Q3.15 12.25 4.5 10.6 5.75 9.05 7.45 8.15 7.45 7.15 7.75 6.05 8.15 4.6 8.85 3.55 9.75 2.15 11.25 1.3 12.25 0.7 13.5 0.35 L14.45 0.15 Q18.0 -0.6 17.35 2.1 17.6 2.4 17.4 3.2 16.85 5.15 17.5 6.35 L17.4 6.5 17.45 6.5 Q18.2 6.6 19.3 7.85 L20.6 8.25 25.8 9.65 31.35 10.9 36.75 11.9 42.35 12.65 50.9 13.15 57.5 12.9 59.6 12.7 63.3 12.25 71.15 10.9 75.8 9.45 M80.5 10.1 Q80.85 11.1 80.55 12.3 79.85 14.65 77.25 15.7 M64.5 16.1 L63.95 18.25 M72.65 13.1 Q72.25 11.95 71.15 10.9 M72.65 13.1 Q73.3 15.0 71.6 17.0 M63.3 12.25 Q64.6 14.2 64.5 16.1 M58.15 16.95 L57.7 18.85 M50.05 16.95 Q50.0 15.3 50.9 13.15 M41.25 16.15 Q41.3 17.55 42.3 18.85 M42.35 12.65 Q41.15 14.5 41.25 16.15 M35.55 15.4 Q35.55 16.85 36.5 18.25 M58.15 16.95 Q58.3 15.05 57.5 12.9 M50.05 16.95 Q50.05 18.2 50.7 19.15 M29.8 14.45 Q29.7 12.6 31.35 10.9 M24.35 13.25 Q24.5 14.65 25.65 16.2 M35.55 15.4 Q35.5 13.7 36.75 11.9 M24.35 13.25 Q24.15 11.35 25.8 9.65 M29.8 14.45 Q29.9 15.9 31.05 17.4 M14.45 0.15 Q15.6 0.95 15.2 2.35 L15.45 2.2 17.35 2.1 M12.05 5.75 L12.05 5.85 12.1 5.75 Q12.35 5.1 12.75 4.55 L13.4 3.7 Q14.15 2.75 15.2 2.35 M12.05 5.75 Q11.65 4.6 10.9 4.05 10.1 3.45 8.85 3.55 M16.25 7.3 Q15.65 4.8 13.4 3.7 M15.8 8.85 L15.8 8.75 16.25 7.3 Q16.7 6.45 17.4 6.5 16.45 7.7 16.05 8.85 L15.9 9.4 15.8 10.5 15.75 10.05 Q13.9 10.9 11.4 9.3 11.55 10.35 12.15 11.35 L13.35 12.85 Q16.0 13.85 16.45 12.05 L16.45 11.95 16.3 11.8 Q15.9 11.15 15.8 10.5 M19.25 11.6 Q18.8 9.55 20.6 8.25 M16.45 12.05 L16.3 11.8 M12.05 5.85 L11.7 6.75 Q11.2 8.05 11.4 9.3 M15.75 10.05 L15.75 9.2 15.8 8.85 M16.5 12.1 L16.45 12.05 M16.45 11.95 L16.5 12.1 M10.1 13.95 L9.7 13.7 8.6 12.35 Q8.05 11.55 7.8 10.7 7.4 9.45 7.45 8.15 M6.4 12.4 Q7.5 13.7 8.25 15.4 M4.25 15.8 Q3.25 14.9 1.9 14.65 M6.4 12.4 L4.5 10.6 M4.25 15.8 Q5.45 16.8 6.15 18.7 M13.35 12.85 L13.9 13.35 14.0 13.4 M8.6 12.35 Q11.4 13.5 12.15 11.35 M19.25 11.6 Q19.55 13.1 21.1 15.0" fill="none" stroke="#000000" stroke-linecap="round" stroke-linejoin="round" stroke-opacity="0.6627451" stroke-width="1.0"/>
    </g>
    <g id="sprite1" transform="matrix(1.0, 0.0, 0.0, 1.0, 0.0, 0.0)">
      <use height="23.8" transform="matrix(1.0, 0.0, 0.0, 1.0, 0.0, 0.0)" width="80.7" xlink:href="#shape1"/>
    </g>
    <g id="shape1" transform="matrix(1.0, 0.0, 0.0, 1.0, 0.0, 0.0)">
      <path d="M80.55 12.3 Q79.85 14.65 77.25 15.7 L75.9 16.05 71.6 17.0 63.95 18.25 57.7 18.85 50.7 19.15 42.3 18.85 36.5 18.25 31.05 17.4 25.65 16.2 21.1 15.0 20.7 14.85 Q18.5 14.05 17.3 12.95 L16.5 12.1 16.45 11.95 16.45 12.05 Q16.0 13.85 13.35 12.85 L13.9 13.35 14.0 13.4 14.0 13.45 Q12.8 15.5 10.1 13.95 9.2 14.25 8.25 15.4 7.2 16.55 6.15 18.7 5.1 20.8 3.95 23.8 L2.55 23.7 2.4 20.05 1.45 22.2 0.0 18.75 1.9 14.65 Q3.15 12.25 4.5 10.6 5.75 9.05 7.45 8.15 7.45 7.15 7.75 6.05 8.15 4.6 8.85 3.55 9.75 2.15 11.25 1.3 12.25 0.7 13.5 0.35 L14.45 0.15 Q18.0 -0.6 17.35 2.1 17.6 2.4 17.4 3.2 16.85 5.15 17.5 6.35 L17.4 6.5 17.45 6.5 Q18.2 6.6 19.3 7.85 L20.6 8.25 25.8 9.65 31.35 10.9 36.75 11.9 42.35 12.65 50.9 13.15 57.5 12.9 59.6 12.7 63.3 12.25 71.15 10.9 75.8 9.45 Q77.75 8.6 78.1 7.65 80.0 8.65 80.5 10.1 80.85 11.1 80.55 12.3" fill="url(#gradient0)" fill-rule="evenodd" stroke="none"/>
    </g>
    <linearGradient gradientTransform="matrix(0.0047, -0.0312, 0.0144, 0.0022, 40.35, 11.9)" gradientUnits="userSpaceOnUse" id="gradient0" spreadMethod="pad" x1="-819.2" x2="819.2">
      <stop offset="0.0" stop-color="#000000"/>
      <stop offset="1.0" stop-color="#ffffff"/>
    </linearGradient>
  </defs>
</svg>
