<?xml version="1.0" encoding="UTF-8" standalone="no"?>
<svg xmlns:xlink="http://www.w3.org/1999/xlink" height="531.5px" width="460.6px" xmlns="http://www.w3.org/2000/svg">
  <g transform="matrix(1.0, 0.0, 0.0, 1.0, 193.65, 334.05)">
    <use height="89.25" transform="matrix(1.7551, 0.0, 0.0, 1.7551, 6.8094, -109.3287)" width="64.6" xlink:href="#sprite0"/>
  </g>
  <defs>
    <g id="sprite0" transform="matrix(1.0, 0.0, 0.0, 1.0, 32.3, 44.6)">
      <use height="89.25" transform="matrix(1.0, 0.0, 0.0, 1.0, -32.3, -44.6)" width="64.6" xlink:href="#shape0"/>
      <use height="88.25" transform="matrix(1.0, 0.0, 0.0, 1.0, -31.8, -44.1)" width="63.6" xlink:href="#sprite1"/>
    </g>
    <g id="shape0" transform="matrix(1.0, 0.0, 0.0, 1.0, 32.3, 44.6)">
      <path d="M22.15 -33.15 Q26.6 -31.3 31.15 -29.75 34.35 2.8 21.85 23.1 12.2 38.75 1.6 44.15 L0.0 43.25 Q-9.8 37.55 -18.65 23.1 -20.6 19.95 -22.15 16.45 L-18.5 15.35 -15.55 21.0 Q-7.75 34.15 0.95 39.35 L2.35 40.15 Q11.7 35.25 20.25 21.0 25.05 13.0 27.25 2.9 30.1 -10.3 28.5 -27.05 L21.25 -29.8 22.15 -33.15" fill="#6e6e6e" fill-rule="evenodd" stroke="none"/>
      <path d="M22.15 -33.15 L21.25 -29.8 Q11.5 -33.95 2.35 -40.1 L0.95 -39.15 Q-2.7 -36.8 -6.4 -34.75 L-6.3 -35.1 Q-5.7 -36.85 -5.7 -38.15 -5.7 -38.95 -5.95 -39.5 -2.95 -41.2 0.0 -43.05 L1.6 -44.1 Q11.6 -37.65 22.15 -33.15 M-18.5 15.35 L-22.15 16.45 Q-25.65 8.75 -27.25 -0.4 -28.1 -5.35 -28.4 -10.75 -28.9 -19.65 -27.9 -29.75 L-22.7 -31.6 -22.7 -31.35 Q-22.7 -29.7 -20.95 -29.1 L-19.0 -28.8 Q-21.35 -27.85 -23.75 -27.05 -25.35 -10.5 -22.6 2.55 -21.15 9.4 -18.5 15.35" fill="#999999" fill-rule="evenodd" stroke="none"/>
      <path d="M21.25 -29.8 L28.5 -27.05 Q30.1 -10.3 27.25 2.9 L4.7 1.35 4.7 -1.3 7.45 -4.25 Q15.45 -13.15 19.25 -22.95 L21.25 -29.8 M2.35 40.15 L0.95 39.35 Q-7.75 34.15 -15.55 21.0 L-18.5 15.35 Q-15.5 14.15 -12.05 12.15 -4.95 8.05 2.05 1.35 L4.7 1.35 Q4.5 19.8 2.35 40.15" fill="#5c1d57" fill-rule="evenodd" stroke="none"/>
      <path d="M-31.15 -29.75 Q-26.75 -31.25 -22.4 -33.05 -14.6 -36.35 -7.05 -40.75 L-1.65 -44.1 1.6 -44.1 0.0 -43.05 Q-2.95 -41.2 -5.95 -39.5 -14.15 -34.95 -22.7 -31.6 L-27.9 -29.75 -31.15 -29.75" fill="#a6a6a6" fill-rule="evenodd" stroke="none"/>
      <path d="M-6.4 -34.75 Q-2.7 -36.8 0.95 -39.15 L2.35 -40.1 Q4.75 -21.95 4.7 -1.3 L2.05 1.35 -22.6 2.55 Q-25.35 -10.5 -23.75 -27.05 -21.35 -27.85 -19.0 -28.8 -12.6 -31.35 -6.4 -34.75" fill="#0d0d0d" fill-rule="evenodd" stroke="none"/>
      <path d="M2.35 -40.1 Q11.5 -33.95 21.25 -29.8 L19.25 -22.95 Q15.45 -13.15 7.45 -4.25 L4.7 -1.3 Q4.75 -21.95 2.35 -40.1 M2.05 1.35 Q-4.95 8.05 -12.05 12.15 -15.5 14.15 -18.5 15.35 -21.15 9.4 -22.6 2.55 L2.05 1.35" fill="#80317e" fill-rule="evenodd" stroke="none"/>
      <path d="M27.25 2.9 Q25.05 13.0 20.25 21.0 11.7 35.25 2.35 40.15 4.5 19.8 4.7 1.35 L2.05 1.35 4.7 -1.3 4.7 1.35 27.25 2.9" fill="#000000" fill-rule="evenodd" stroke="none"/>
      <path d="M-22.15 16.45 Q-20.6 19.95 -18.65 23.1 -9.8 37.55 0.0 43.25 L1.6 44.15 -1.65 44.15 Q-12.3 38.75 -21.9 23.1 L-25.25 16.85 -25.15 16.85 -22.15 16.45" fill="#424242" fill-rule="evenodd" stroke="none"/>
      <path d="M-29.8 3.15 Q-30.9 -1.95 -31.4 -7.55 L-31.35 -7.65 -28.4 -10.75 Q-28.1 -5.35 -27.25 -0.4 L-29.8 3.15 M-5.95 -39.5 Q-5.7 -38.95 -5.7 -38.15 -5.7 -36.85 -6.3 -35.1 L-6.4 -34.75 Q-12.6 -31.35 -19.0 -28.8 L-20.95 -29.1 Q-22.7 -29.7 -22.7 -31.35 L-22.7 -31.6 Q-14.15 -34.95 -5.95 -39.5" fill="#ffffff" fill-rule="evenodd" stroke="none"/>
      <path d="M-25.25 16.85 Q-28.15 10.5 -29.8 3.15 L-27.25 -0.4 Q-25.65 8.75 -22.15 16.45 L-25.15 16.85 -25.25 16.85 M-31.4 -7.55 Q-32.35 -17.85 -31.15 -29.75 L-27.9 -29.75 Q-28.9 -19.65 -28.4 -10.75 L-31.35 -7.65 -31.4 -7.55" fill="#696969" fill-rule="evenodd" stroke="none"/>
      <path d="M1.6 44.15 Q12.2 38.75 21.85 23.1 34.35 2.8 31.15 -29.75 26.6 -31.3 22.15 -33.15 11.6 -37.65 1.6 -44.1 L0.0 -43.05 Q-2.95 -41.2 -5.95 -39.5 -14.15 -34.95 -22.7 -31.6 L-27.9 -29.75 Q-28.9 -19.65 -28.4 -10.75 -28.1 -5.35 -27.25 -0.4 -25.65 8.75 -22.15 16.45 -20.6 19.95 -18.65 23.1 -9.8 37.55 0.0 43.25 L1.6 44.15 -1.65 44.15 Q-12.3 38.75 -21.9 23.1 L-25.25 16.85 Q-28.15 10.5 -29.8 3.15 -30.9 -1.95 -31.4 -7.55 -32.35 -17.85 -31.15 -29.75 -26.75 -31.25 -22.4 -33.05 -14.6 -36.35 -7.05 -40.75 L-1.65 -44.1 1.6 -44.1 M21.25 -29.8 L28.5 -27.05 Q30.1 -10.3 27.25 2.9 25.05 13.0 20.25 21.0 11.7 35.25 2.35 40.15 L0.95 39.35 Q-7.75 34.15 -15.55 21.0 L-18.5 15.35 Q-21.15 9.4 -22.6 2.55 -25.35 -10.5 -23.75 -27.05 -21.35 -27.85 -19.0 -28.8 -12.6 -31.35 -6.4 -34.75 -2.7 -36.8 0.95 -39.15 L2.35 -40.1 Q11.5 -33.95 21.25 -29.8 M4.7 -1.3 L4.7 1.35 27.25 2.9 M4.7 -1.3 Q4.75 -21.95 2.35 -40.1 M2.35 40.15 Q4.5 19.8 4.7 1.35 L2.05 1.35 -22.6 2.55 M-31.15 -29.75 L-27.9 -29.75" fill="none" stroke="#000000" stroke-linecap="round" stroke-linejoin="round" stroke-opacity="0.6627451" stroke-width="1.0"/>
    </g>
    <g id="sprite1" transform="matrix(1.0, 0.0, 0.0, 1.0, 31.8, 44.1)">
      <use height="88.25" transform="matrix(1.0, 0.0, 0.0, 1.0, -31.8, -44.1)" width="63.6" xlink:href="#shape1"/>
    </g>
    <g id="shape1" transform="matrix(1.0, 0.0, 0.0, 1.0, 31.8, 44.1)">
      <path d="M1.6 -44.1 L0.0 -43.05 Q-2.95 -41.2 -5.95 -39.5 -14.15 -34.95 -22.7 -31.6 L-27.9 -29.75 -31.15 -29.75 Q-26.75 -31.25 -22.4 -33.05 -14.6 -36.35 -7.05 -40.75 L-1.65 -44.1 1.6 -44.1" fill="url(#gradient0)" fill-rule="evenodd" stroke="none"/>
      <path d="M4.7 1.35 L4.7 -1.3 Q4.75 -21.95 2.35 -40.1 11.5 -33.95 21.25 -29.8 L28.5 -27.05 Q30.1 -10.3 27.25 2.9 L4.7 1.35" fill="url(#gradient1)" fill-rule="evenodd" stroke="none"/>
      <path d="M2.35 -40.1 Q4.75 -21.95 4.7 -1.3 L4.7 1.35 2.05 1.35 -22.6 2.55 Q-25.35 -10.5 -23.75 -27.05 -21.35 -27.85 -19.0 -28.8 -12.6 -31.35 -6.4 -34.75 -2.7 -36.8 0.95 -39.15 L2.35 -40.1" fill="url(#gradient2)" fill-rule="evenodd" stroke="none"/>
      <path d="M-22.6 2.55 L2.05 1.35 4.7 1.35 Q4.5 19.8 2.35 40.15 L0.95 39.35 Q-7.75 34.15 -15.55 21.0 L-18.5 15.35 Q-21.15 9.4 -22.6 2.55" fill="url(#gradient3)" fill-rule="evenodd" stroke="none"/>
      <path d="M4.7 1.35 L27.25 2.9 Q25.05 13.0 20.25 21.0 11.7 35.25 2.35 40.15 4.5 19.8 4.7 1.35" fill="url(#gradient4)" fill-rule="evenodd" stroke="none"/>
      <path d="M1.6 -44.1 Q11.6 -37.65 22.15 -33.15 26.6 -31.3 31.15 -29.75 34.35 2.8 21.85 23.1 12.2 38.75 1.6 44.15 L0.0 43.25 Q-9.8 37.55 -18.65 23.1 -20.6 19.95 -22.15 16.45 -25.65 8.75 -27.25 -0.4 -28.1 -5.35 -28.4 -10.75 -28.9 -19.65 -27.9 -29.75 L-22.7 -31.6 Q-14.15 -34.95 -5.95 -39.5 -2.95 -41.2 0.0 -43.05 L1.6 -44.1 M2.35 -40.1 L0.95 -39.15 Q-2.7 -36.8 -6.4 -34.75 -12.6 -31.35 -19.0 -28.8 -21.35 -27.85 -23.75 -27.05 -25.35 -10.5 -22.6 2.55 -21.15 9.4 -18.5 15.35 L-15.55 21.0 Q-7.75 34.15 0.95 39.35 L2.35 40.15 Q11.7 35.25 20.25 21.0 25.05 13.0 27.25 2.9 30.1 -10.3 28.5 -27.05 L21.25 -29.8 Q11.5 -33.95 2.35 -40.1" fill="url(#gradient5)" fill-rule="evenodd" stroke="none"/>
      <path d="M-27.9 -29.75 Q-28.9 -19.65 -28.4 -10.75 -28.1 -5.35 -27.25 -0.4 -25.65 8.75 -22.15 16.45 -20.6 19.95 -18.65 23.1 -9.8 37.55 0.0 43.25 L1.6 44.15 -1.65 44.15 Q-12.3 38.75 -21.9 23.1 L-25.25 16.85 Q-28.15 10.5 -29.8 3.15 -30.9 -1.95 -31.4 -7.55 -32.35 -17.85 -31.15 -29.75 L-27.9 -29.75" fill="url(#gradient6)" fill-rule="evenodd" stroke="none"/>
    </g>
    <linearGradient gradientTransform="matrix(0.02, 0.0, 0.0, 0.0088, -14.8, -36.95)" gradientUnits="userSpaceOnUse" id="gradient0" spreadMethod="pad" x1="-819.2" x2="819.2">
      <stop offset="0.0" stop-color="#000000"/>
      <stop offset="1.0" stop-color="#ffffff"/>
    </linearGradient>
    <linearGradient gradientTransform="matrix(0.0, -0.0163, 0.0262, 0.0, 15.7, -18.6)" gradientUnits="userSpaceOnUse" id="gradient1" spreadMethod="pad" x1="-819.2" x2="819.2">
      <stop offset="0.0" stop-color="#000000"/>
      <stop offset="1.0" stop-color="#ffffff"/>
    </linearGradient>
    <linearGradient gradientTransform="matrix(-0.0177, 0.0, 0.0, -0.026, -9.85, -18.8)" gradientUnits="userSpaceOnUse" id="gradient2" spreadMethod="pad" x1="-819.2" x2="819.2">
      <stop offset="0.0" stop-color="#000000"/>
      <stop offset="1.0" stop-color="#ffffff"/>
    </linearGradient>
    <linearGradient gradientTransform="matrix(0.0, 0.0167, -0.0237, 0.0, -8.95, 20.75)" gradientUnits="userSpaceOnUse" id="gradient3" spreadMethod="pad" x1="-819.2" x2="819.2">
      <stop offset="0.0" stop-color="#000000"/>
      <stop offset="1.0" stop-color="#ffffff"/>
    </linearGradient>
    <linearGradient gradientTransform="matrix(0.0152, 0.0, 0.0, 0.0237, 14.45, 21.7)" gradientUnits="userSpaceOnUse" id="gradient4" spreadMethod="pad" x1="-819.2" x2="819.2">
      <stop offset="0.0" stop-color="#000000"/>
      <stop offset="1.0" stop-color="#ffffff"/>
    </linearGradient>
    <linearGradient gradientTransform="matrix(0.0, -0.0538, 0.0539, 0.0, 1.6, 0.0)" gradientUnits="userSpaceOnUse" id="gradient5" spreadMethod="pad" x1="-819.2" x2="819.2">
      <stop offset="0.0" stop-color="#000000"/>
      <stop offset="1.0" stop-color="#ffffff"/>
    </linearGradient>
    <linearGradient gradientTransform="matrix(-0.0038, -0.0374, 0.0449, -0.0045, -15.1, 7.2)" gradientUnits="userSpaceOnUse" id="gradient6" spreadMethod="pad" x1="-819.2" x2="819.2">
      <stop offset="0.0" stop-color="#000000"/>
      <stop offset="1.0" stop-color="#ffffff"/>
    </linearGradient>
  </defs>
</svg>
