<?xml version="1.0" encoding="UTF-8" standalone="no"?>
<svg xmlns:xlink="http://www.w3.org/1999/xlink" height="531.5px" width="460.6px" xmlns="http://www.w3.org/2000/svg">
  <g transform="matrix(1.0, 0.0, 0.0, 1.0, 193.65, 334.05)">
    <use height="88.4" transform="matrix(1.0, 0.0, 0.0, 1.0, -56.75, -80.3)" width="184.0" xlink:href="#shape0"/>
    <use height="122.9" transform="matrix(0.7183, 0.0069, -0.0069, 0.7183, -6.7786, -80.6342)" width="187.1" xlink:href="#sprite0"/>
    <use height="49.95" transform="matrix(1.0, 0.0, 0.0, 1.0, 59.65, -80.35)" width="102.6" xlink:href="#shape2"/>
    <use height="68.7" transform="matrix(0.7183, 0.0069, -0.0069, 0.7183, 60.5494, -80.8104)" width="141.45" xlink:href="#sprite1"/>
    <use height="62.8" transform="matrix(1.0, 0.0, 0.0, 1.0, -56.75, -57.4)" width="109.65" xlink:href="#shape4"/>
  </g>
  <defs>
    <g id="shape0" transform="matrix(1.0, 0.0, 0.0, 1.0, 56.75, 80.3)">
      <path d="M-20.55 -53.25 L-18.45 -51.85 -16.35 -49.95 -14.9 -47.35 Q-16.65 -47.7 -17.75 -47.0 -15.05 -46.15 -11.5 -44.2 L3.0 -35.25 3.55 -35.05 4.15 -35.15 4.4 -35.25 4.5 -35.5 4.55 -35.9 4.3 -36.6 5.75 -38.2 7.85 -40.5 9.9 -43.0 Q12.15 -45.1 14.95 -45.05 18.2 -45.05 22.3 -43.3 L26.15 -41.45 Q29.2 -39.8 30.45 -38.55 31.65 -37.35 31.65 -35.9 31.65 -34.7 30.75 -32.65 L30.15 -31.35 Q29.05 -31.85 27.15 -32.85 25.1 -33.85 23.85 -33.8 24.35 -32.25 26.65 -31.15 L30.75 -29.3 38.0 -25.35 45.8 -21.45 48.55 -19.75 48.55 -18.05 Q48.35 -16.1 46.4 -12.95 44.05 -9.7 42.15 -8.9 L39.7 -8.75 37.6 -9.75 33.45 -11.65 31.0 -13.2 Q29.4 -13.95 28.75 -12.7 L30.85 -11.45 Q31.75 -10.95 32.35 -10.7 L32.3 -10.35 32.55 -9.4 30.4 -6.1 Q27.4 -1.65 24.55 -1.35 L22.65 -1.3 Q21.45 -1.6 20.15 -2.15 19.2 -2.5 18.3 -3.0 L17.5 -3.2 16.95 -3.65 17.0 -2.35 17.0 -1.85 13.4 2.05 12.4 3.15 Q10.15 3.65 7.6 2.75 L5.3 2.1 -3.05 -1.35 Q-13.35 -5.8 -23.7 -9.75 -28.4 -11.55 -32.95 -13.6 -37.35 -17.5 -39.5 -18.75 -42.45 -20.5 -44.55 -23.15 -46.75 -25.85 -47.7 -28.95 L-51.55 -43.8 Q-53.2 -50.25 -54.9 -54.35 -55.1 -55.45 -55.45 -56.25 L-51.15 -56.95 -45.0 -57.35 Q-37.4 -57.35 -29.7 -55.45 -24.05 -53.8 -20.55 -53.25" fill="#999999" fill-rule="evenodd" stroke="none"/>
      <path d="M48.55 -19.75 L45.8 -21.45 38.0 -25.35 30.75 -29.3 26.65 -31.15 Q24.35 -32.25 23.85 -33.8 25.1 -33.85 27.15 -32.85 29.05 -31.85 30.15 -31.35 L30.75 -32.65 Q31.65 -34.7 31.65 -35.9 31.65 -37.35 30.45 -38.55 29.2 -39.8 26.15 -41.45 L22.3 -43.3 Q18.2 -45.05 14.95 -45.05 12.15 -45.1 9.9 -43.0 L7.85 -40.5 5.75 -38.2 4.3 -36.6 4.55 -35.9 4.5 -35.5 4.4 -35.25 4.15 -35.15 3.55 -35.05 3.0 -35.25 -11.5 -44.2 Q-15.05 -46.15 -17.75 -47.0 -16.65 -47.7 -14.9 -47.35 L-16.35 -49.95 -18.45 -51.85 -20.55 -53.25 -21.25 -53.8 Q-19.55 -55.3 -16.0 -51.65 -12.65 -48.25 -12.65 -46.65 L-12.65 -46.55 -11.85 -46.2 -8.8 -44.35 3.0 -37.7 3.4 -37.45 Q3.85 -38.4 5.1 -39.8 L7.65 -42.5 Q9.25 -44.5 10.6 -45.35 L12.35 -46.2 16.1 -46.5 18.75 -46.05 Q24.3 -44.55 28.5 -42.0 33.4 -39.0 33.4 -36.15 33.4 -35.45 32.2 -32.7 L31.35 -30.8 Q32.3 -30.2 34.9 -28.9 37.85 -27.45 39.65 -26.2 L47.8 -22.05 Q52.9 -19.3 52.9 -16.55 52.9 -15.2 50.4 -10.6 L48.75 -8.2 Q46.45 -6.1 42.25 -6.15 L36.15 -8.75 34.7 -9.4 35.15 -7.05 35.15 -6.55 Q34.8 -4.55 33.5 -3.05 27.25 4.2 18.3 -1.35 L18.15 -1.4 Q18.15 0.8 17.05 2.5 L16.05 3.7 Q13.4 5.75 9.95 5.35 L9.7 5.3 7.6 4.9 2.5 3.35 -0.8 2.05 Q-10.8 -2.75 -21.15 -6.5 L-27.7 -9.1 Q-35.8 -12.5 -43.55 -16.8 -47.45 -19.35 -49.6 -22.45 -54.55 -33.65 -55.9 -46.05 L-56.55 -51.0 -56.75 -55.6 Q-56.75 -56.85 -56.25 -57.4 L-55.7 -56.65 -55.45 -56.25 Q-55.1 -55.45 -54.9 -54.35 L-54.8 -53.55 -54.5 -50.95 Q-53.5 -40.4 -50.8 -30.05 -49.7 -25.85 -47.2 -22.4 -45.7 -20.55 -43.55 -18.9 -38.35 -16.05 -32.95 -13.6 -28.4 -11.55 -23.7 -9.75 -13.35 -5.8 -3.05 -1.35 L5.3 2.1 7.6 2.75 Q10.15 3.65 12.4 3.15 14.0 2.75 15.45 1.65 L16.05 1.15 16.4 0.55 16.95 -0.95 17.0 -1.85 17.0 -2.35 16.95 -3.65 17.5 -3.2 18.3 -3.0 Q19.2 -2.5 20.15 -2.15 21.45 -1.6 22.65 -1.3 29.8 0.35 33.25 -6.6 L33.3 -7.1 32.8 -8.7 32.55 -9.4 32.3 -10.35 32.35 -10.7 Q31.75 -10.95 30.85 -11.45 L28.75 -12.7 Q29.4 -13.95 31.0 -13.2 L33.45 -11.65 37.6 -9.75 39.7 -8.75 Q42.0 -7.7 42.65 -7.7 45.95 -7.65 47.75 -9.6 L49.15 -11.9 50.35 -13.9 Q51.25 -15.65 51.25 -16.35 51.25 -17.85 48.55 -19.75" fill="#000000" fill-rule="evenodd" stroke="none"/>
      <path d="M-54.9 -54.35 Q-53.2 -50.25 -51.55 -43.8 L-47.7 -28.95 Q-46.75 -25.85 -44.55 -23.15 -42.45 -20.5 -39.5 -18.75 -37.35 -17.5 -32.95 -13.6 -38.35 -16.05 -43.55 -18.9 -45.7 -20.55 -47.2 -22.4 -49.7 -25.85 -50.8 -30.05 -53.5 -40.4 -54.5 -50.95 L-54.8 -53.55 -54.9 -54.35 M12.4 3.15 L13.4 2.05 17.0 -1.85 16.95 -0.95 16.4 0.55 16.05 1.15 15.45 1.65 Q14.0 2.75 12.4 3.15 M22.65 -1.3 L24.55 -1.35 Q27.4 -1.65 30.4 -6.1 L32.55 -9.4 32.8 -8.7 33.3 -7.1 33.25 -6.6 Q29.8 0.35 22.65 -1.3 M39.7 -8.75 L42.15 -8.9 Q44.05 -9.7 46.4 -12.95 48.35 -16.1 48.55 -18.05 L48.55 -19.75 Q51.25 -17.85 51.25 -16.35 51.25 -15.65 50.35 -13.9 L49.15 -11.9 47.75 -9.6 Q45.95 -7.65 42.65 -7.7 42.0 -7.7 39.7 -8.75" fill="#bdbdbd" fill-rule="evenodd" stroke="none"/>
      <path d="M61.9 -50.9 Q61.35 -61.25 64.7 -70.9 67.55 -60.4 67.0 -49.85 64.0 -50.0 61.9 -50.9" fill="#333333" fill-rule="evenodd" stroke="none"/>
      <path d="M65.6 -39.5 L63.6 -39.55 Q62.2 -45.35 61.9 -50.9 64.0 -50.0 67.0 -49.85 66.7 -44.7 65.6 -39.5" fill="#292929" fill-rule="evenodd" stroke="none"/>
      <path d="M51.6 -67.15 L52.2 -67.2 Q50.95 -58.55 51.15 -49.6 L43.6 -49.0 37.25 -49.4 Q36.15 -49.55 34.45 -50.2 34.2 -51.75 34.2 -53.45 L34.25 -54.1 Q40.55 -61.45 49.1 -66.0 L51.6 -67.15 M60.9 -32.65 Q60.7 -30.65 61.75 -28.85 L61.75 -28.8 60.2 -28.7 Q58.65 -28.75 55.4 -29.8 53.25 -30.55 52.1 -31.35 L51.6 -32.7 60.9 -32.65" fill="#666666" fill-rule="evenodd" stroke="none"/>
      <path d="M51.6 -67.15 L49.1 -66.0 Q40.55 -61.45 34.25 -54.1 34.85 -65.7 51.6 -67.15" fill="#b3b3b3" fill-rule="evenodd" stroke="none"/>
      <path d="M44.25 -76.85 L59.25 -73.3 64.7 -70.9 Q61.35 -61.25 61.9 -50.9 62.2 -45.35 63.6 -39.55 L65.6 -39.5 126.75 -38.35 124.25 -35.3 124.3 -34.9 48.6 -35.65 Q46.1 -35.6 44.75 -35.0 43.2 -34.45 41.05 -32.3 38.05 -29.5 34.65 -27.3 L31.45 -25.5 Q32.05 -29.7 32.15 -34.35 30.55 -37.5 28.45 -38.6 24.65 -40.55 19.15 -35.35 14.05 -28.9 7.25 -24.7 3.15 -22.05 -1.65 -20.25 L-1.95 -19.55 Q-3.1 -16.5 -3.6 -13.5 L-7.1 -13.55 Q-6.8 -18.95 -5.75 -24.4 -4.45 -29.05 6.6 -29.7 12.45 -30.35 15.2 -35.45 13.45 -45.9 14.0 -55.4 L14.4 -59.75 14.7 -61.45 14.4 -59.75 12.8 -59.8 Q10.95 -59.9 10.4 -62.25 9.9 -64.2 8.35 -64.9 7.05 -65.5 3.85 -65.5 L1.4 -65.4 Q0.75 -66.95 1.1 -68.6 2.65 -67.35 5.35 -67.3 7.1 -67.3 9.75 -68.5 L11.3 -69.35 11.65 -69.35 12.05 -65.3 Q12.1 -62.25 14.7 -61.45 L15.0 -63.6 Q15.8 -64.8 17.15 -65.55 L18.4 -65.1 Q19.9 -64.45 21.45 -64.45 L26.05 -64.95 Q28.9 -65.6 29.9 -66.9 30.65 -67.95 30.4 -71.25 30.2 -74.8 30.65 -75.85 31.3 -77.2 34.45 -77.05 L39.45 -76.65 44.25 -76.85 M51.15 -49.6 Q50.95 -58.55 52.2 -67.2 L51.6 -67.15 Q34.85 -65.7 34.25 -54.1 L34.2 -53.45 Q34.2 -51.75 34.45 -50.2 36.3 -39.7 51.9 -38.95 51.3 -44.35 51.15 -49.6 M38.75 -74.5 L37.1 -75.0 Q35.9 -75.0 35.0 -74.1 34.15 -73.25 34.15 -72.05 34.1 -71.2 34.5 -70.55 34.65 -70.2 34.95 -69.9 35.85 -69.0 37.05 -69.0 38.3 -69.0 39.15 -69.9 40.05 -70.75 40.1 -71.95 40.1 -73.15 39.2 -74.1 L38.75 -74.5" fill="#7d7d7d" fill-rule="evenodd" stroke="none"/>
      <path d="M34.5 -70.55 Q34.1 -71.2 34.15 -72.05 34.15 -73.25 35.0 -74.1 35.9 -75.0 37.1 -75.0 L38.75 -74.5 Q37.2 -73.75 36.0 -72.6 34.9 -71.6 34.5 -70.55 M9.2 -9.75 Q7.75 -9.2 6.05 -7.7 4.05 -5.9 3.4 -4.2 2.75 -5.2 2.75 -6.45 2.75 -7.95 3.75 -9.15 L4.0 -9.35 Q5.2 -10.55 6.9 -10.55 8.2 -10.5 9.2 -9.75" fill="#d9d9d9" fill-rule="evenodd" stroke="none"/>
      <path d="M44.25 -76.85 L39.45 -76.65 34.45 -77.05 Q31.3 -77.2 30.65 -75.85 30.2 -74.8 30.4 -71.25 30.65 -67.95 29.9 -66.9 28.9 -65.6 26.05 -64.95 L21.45 -64.45 Q19.9 -64.45 18.4 -65.1 L17.15 -65.55 Q19.85 -66.9 24.45 -66.55 L26.95 -68.6 27.1 -79.8 44.25 -76.85 M11.3 -69.35 L9.75 -68.5 Q7.1 -67.3 5.35 -67.3 2.65 -67.35 1.1 -68.6 L1.35 -69.55 11.3 -69.35" fill="#bfbfbf" fill-rule="evenodd" stroke="none"/>
      <path d="M14.4 -59.75 L14.0 -55.4 Q11.55 -56.15 8.65 -57.5 7.4 -59.65 7.8 -62.8 L3.2 -63.0 Q2.0 -64.2 1.4 -65.4 L3.85 -65.5 Q7.05 -65.5 8.35 -64.9 9.9 -64.2 10.4 -62.25 10.95 -59.9 12.8 -59.8 L14.4 -59.75 M-7.1 -13.55 L-3.6 -13.5 Q-4.9 -5.3 -1.55 2.55 5.75 6.55 16.6 2.2 24.0 -3.75 27.9 -12.8 30.35 -18.55 31.45 -25.5 L34.65 -27.3 Q38.05 -29.5 41.05 -32.3 43.2 -34.45 44.75 -35.0 46.1 -35.6 48.6 -35.65 L124.3 -34.9 Q124.35 -32.2 123.5 -29.65 L82.2 -29.3 Q79.85 -25.5 74.8 -21.65 72.3 -20.45 69.85 -19.7 58.65 -16.2 48.35 -21.2 L37.45 -22.35 Q34.3 -20.95 33.25 -16.1 27.1 1.15 19.0 6.35 13.7 8.05 -0.15 7.4 -4.85 6.1 -6.2 2.8 -7.5 -5.4 -7.1 -13.55 M34.45 -50.2 Q36.15 -49.55 37.25 -49.4 L43.6 -49.0 51.15 -49.6 Q51.3 -44.35 51.9 -38.95 36.3 -39.7 34.45 -50.2 M34.5 -70.55 Q34.9 -71.6 36.0 -72.6 37.2 -73.75 38.75 -74.5 L39.2 -74.1 Q40.1 -73.15 40.1 -71.95 40.05 -70.75 39.15 -69.9 38.3 -69.0 37.05 -69.0 35.85 -69.0 34.95 -69.9 34.65 -70.2 34.5 -70.55 M9.2 -9.75 L9.75 -9.3 Q10.65 -8.4 10.85 -7.15 L10.95 -6.4 Q10.95 -4.75 9.65 -3.5 8.45 -2.3 6.8 -2.35 5.1 -2.35 3.9 -3.55 L3.4 -4.2 Q4.05 -5.9 6.05 -7.7 7.75 -9.2 9.2 -9.75 M51.6 -32.7 L47.0 -32.75 Q40.3 -32.15 53.05 -24.8 63.65 -20.5 71.3 -26.45 78.75 -32.85 71.75 -32.55 L60.9 -32.65 51.6 -32.7" fill="#4d4d4d" fill-rule="evenodd" stroke="none"/>
      <path d="M7.25 -24.7 Q14.05 -28.9 19.15 -35.35 24.65 -40.55 28.45 -38.6 L28.05 -38.35 Q25.85 -37.25 25.1 -36.4 23.35 -34.45 20.0 -31.4 13.75 -25.55 7.25 -24.7" fill="#b35900" fill-rule="evenodd" stroke="none"/>
      <path d="M-1.95 -19.55 L-1.65 -20.25 Q3.15 -22.05 7.25 -24.7 13.75 -25.55 20.0 -31.4 23.35 -34.45 25.1 -36.4 25.85 -37.25 28.05 -38.35 L28.45 -38.6 Q30.55 -37.5 32.15 -34.35 32.05 -29.7 31.45 -25.5 30.35 -18.55 27.9 -12.8 L24.65 -10.6 Q18.3 -6.95 13.55 -7.0 L10.85 -7.15 Q10.65 -8.4 9.75 -9.3 L9.2 -9.75 Q8.2 -10.5 6.9 -10.55 5.2 -10.55 4.0 -9.35 L3.75 -9.15 2.4 -10.0 Q-2.15 -13.0 -2.1 -17.75 L-1.95 -19.35 -1.95 -19.55" fill="#8a4500" fill-rule="evenodd" stroke="none"/>
      <path d="M-3.6 -13.5 Q-3.1 -16.5 -1.95 -19.55 L-1.95 -19.35 -2.1 -17.75 Q-2.15 -13.0 2.4 -10.0 L3.75 -9.15 Q2.75 -7.95 2.75 -6.45 2.75 -5.2 3.4 -4.2 L3.9 -3.55 Q5.1 -2.35 6.8 -2.35 8.45 -2.3 9.65 -3.5 10.95 -4.75 10.95 -6.4 L10.85 -7.15 13.55 -7.0 Q18.3 -6.95 24.65 -10.6 L27.9 -12.8 Q24.0 -3.75 16.6 2.2 5.75 6.55 -1.55 2.55 -4.9 -5.3 -3.6 -13.5" fill="#6b3500" fill-rule="evenodd" stroke="none"/>
      <path d="M61.75 -28.8 Q63.6 -23.05 55.15 -27.5 53.05 -29.45 52.1 -31.35 53.25 -30.55 55.4 -29.8 58.65 -28.75 60.2 -28.7 L61.75 -28.8" fill="#8c8c8c" fill-rule="evenodd" stroke="none"/>
      <path d="M64.7 -70.9 L59.25 -73.3 44.25 -76.85 27.1 -79.8 26.95 -68.6 24.45 -66.55 Q19.85 -66.9 17.15 -65.55 15.8 -64.8 15.0 -63.6 L14.7 -61.45 14.4 -59.75 14.0 -55.4 Q13.45 -45.9 15.2 -35.45 12.45 -30.35 6.6 -29.7 -4.45 -29.05 -5.75 -24.4 -6.8 -18.95 -7.1 -13.55 -7.5 -5.4 -6.2 2.8 -4.85 6.1 -0.15 7.4 13.7 8.05 19.0 6.35 27.1 1.15 33.25 -16.1 34.3 -20.95 37.45 -22.35 L48.35 -21.2 Q58.65 -16.2 69.85 -19.7 72.3 -20.45 74.8 -21.65 79.85 -25.5 82.2 -29.3 L123.5 -29.65 Q124.35 -32.2 124.3 -34.9 L124.25 -35.3 126.75 -38.35 65.6 -39.5 63.6 -39.55 Q62.2 -45.35 61.9 -50.9 61.35 -61.25 64.7 -70.9 67.55 -60.4 67.0 -49.85 66.7 -44.7 65.6 -39.5 M-3.6 -13.5 Q-3.1 -16.5 -1.95 -19.55 L-1.65 -20.25 Q3.15 -22.05 7.25 -24.7 14.05 -28.9 19.15 -35.35 24.65 -40.55 28.45 -38.6 30.55 -37.5 32.15 -34.35 32.05 -29.7 31.45 -25.5 30.35 -18.55 27.9 -12.8 24.0 -3.75 16.6 2.2 5.75 6.55 -1.55 2.55 -4.9 -5.3 -3.6 -13.5 M51.15 -49.6 Q50.95 -58.55 52.2 -67.2 L51.6 -67.15 Q34.85 -65.7 34.25 -54.1 L34.2 -53.45 Q34.2 -51.75 34.45 -50.2 36.3 -39.7 51.9 -38.95 51.3 -44.35 51.15 -49.6 M38.75 -74.5 L37.1 -75.0 Q35.9 -75.0 35.0 -74.1 34.15 -73.25 34.15 -72.05 34.1 -71.2 34.5 -70.55 34.65 -70.2 34.95 -69.9 35.85 -69.0 37.05 -69.0 38.3 -69.0 39.15 -69.9 40.05 -70.75 40.1 -71.95 40.1 -73.15 39.2 -74.1 L38.75 -74.5 M14.7 -61.45 Q12.1 -62.25 12.05 -65.3 L11.65 -69.35 11.3 -69.35 1.35 -69.55 1.1 -68.6 Q0.75 -66.95 1.4 -65.4 2.0 -64.2 3.2 -63.0 L7.8 -62.8 Q7.4 -59.65 8.65 -57.5 11.55 -56.15 14.0 -55.4 M9.2 -9.75 L9.75 -9.3 Q10.65 -8.4 10.85 -7.15 L10.95 -6.4 Q10.95 -4.75 9.65 -3.5 8.45 -2.3 6.8 -2.35 5.1 -2.35 3.9 -3.55 L3.4 -4.2 Q2.75 -5.2 2.75 -6.45 2.75 -7.95 3.75 -9.15 L4.0 -9.35 Q5.2 -10.55 6.9 -10.55 8.2 -10.5 9.2 -9.75 M60.9 -32.65 Q60.7 -30.65 61.75 -28.85 L61.75 -28.8 Q63.6 -23.05 55.15 -27.5 53.05 -29.45 52.1 -31.35 L51.6 -32.7 47.0 -32.75 Q40.3 -32.15 53.05 -24.8 63.65 -20.5 71.3 -26.45 78.75 -32.85 71.75 -32.55 L60.9 -32.65 51.6 -32.7" fill="none" stroke="#000000" stroke-linecap="round" stroke-linejoin="round" stroke-opacity="0.6627451" stroke-width="1.0"/>
    </g>
    <g id="sprite0" transform="matrix(1.0, 0.0, 0.0, 1.0, 93.55, 61.45)">
      <use height="122.9" transform="matrix(1.0, 0.0, 0.0, 1.0, -93.55, -61.45)" width="187.1" xlink:href="#shape1"/>
    </g>
    <g id="shape1" transform="matrix(1.0, 0.0, 0.0, 1.0, 93.55, 61.45)">
      <path d="M-28.1 -50.2 Q-28.1 -48.5 -29.35 -47.3 -30.55 -46.05 -32.25 -46.05 -33.95 -46.05 -35.2 -47.3 L-35.85 -48.15 Q-36.4 -49.05 -36.4 -50.2 -36.4 -51.9 -35.2 -53.15 -33.95 -54.35 -32.25 -54.35 -31.0 -54.35 -30.0 -53.65 L-29.35 -53.15 Q-28.1 -51.9 -28.1 -50.2" fill="url(#gradient0)" fill-rule="evenodd" stroke="none"/>
      <path d="M-79.2 41.5 Q-79.2 39.35 -77.8 37.7 L-77.55 37.4 Q-75.85 35.75 -73.5 35.75 -71.65 35.75 -70.25 36.8 -69.85 37.05 -69.5 37.4 -68.2 38.7 -67.9 40.4 L-67.8 41.5 Q-67.8 43.8 -69.5 45.5 -71.15 47.2 -73.5 47.2 -75.85 47.2 -77.55 45.5 L-78.25 44.6 Q-79.2 43.2 -79.2 41.5" fill="url(#gradient1)" fill-rule="evenodd" stroke="none"/>
      <path d="M-63.35 -35.25 L-63.65 -32.85 -64.15 -26.8 Q-67.55 -27.8 -71.65 -29.65 -73.4 -32.6 -72.9 -37.0 L-79.3 -37.25 Q-81.0 -38.85 -81.8 -40.5 -82.8 -42.65 -82.3 -44.95 L-81.95 -46.3 -67.65 -46.15 -67.0 -40.5 Q-66.95 -36.3 -63.35 -35.25" fill="url(#gradient2)" fill-rule="evenodd" stroke="none"/>
      <path d="M7.9 -5.4 L5.1 -5.4 Q3.0 -13.45 2.5 -21.2 1.6 -35.6 6.2 -49.0 10.35 -34.5 9.7 -19.75 9.35 -12.6 7.9 -5.4" fill="url(#gradient3)" fill-rule="evenodd" stroke="none"/>
      <path d="M-11.2 -43.75 Q-12.75 -31.7 -12.35 -19.25 -12.1 -11.9 -11.2 -4.4 -32.9 -5.2 -35.6 -19.85 -36.0 -22.0 -36.0 -24.4 L-35.95 -25.25 Q-35.3 -41.45 -12.05 -43.65 L-11.2 -43.75" fill="url(#gradient4)" fill-rule="evenodd" stroke="none"/>
      <path d="M1.4 4.25 Q1.15 7.05 2.65 9.55 L2.65 9.6 Q5.3 17.6 -6.55 11.45 -9.45 8.8 -10.8 6.15 L-11.55 4.3 1.4 4.25" fill="url(#gradient5)" fill-rule="evenodd" stroke="none"/>
      <path d="M-38.6 2.3 Q-38.7 8.75 -39.5 14.6 -40.9 24.3 -44.25 32.35 -49.55 44.95 -59.75 53.35 -74.8 59.6 -85.0 54.1 -89.85 43.2 -88.1 31.8 -87.45 27.65 -85.85 23.4 L-85.85 23.3 -85.5 22.3 Q-78.85 19.75 -73.1 16.05 -63.75 10.05 -56.75 1.05 -49.2 -6.3 -43.8 -3.55 -40.9 -2.1 -38.6 2.3 M-79.2 41.5 Q-79.2 43.2 -78.25 44.6 L-77.55 45.5 Q-75.85 47.2 -73.5 47.2 -71.15 47.2 -69.5 45.5 -67.8 43.8 -67.8 41.5 L-67.9 40.4 Q-68.2 38.7 -69.5 37.4 -69.85 37.05 -70.25 36.8 -71.65 35.75 -73.5 35.75 -75.85 35.75 -77.55 37.4 L-77.8 37.7 Q-79.2 39.35 -79.2 41.5" fill="url(#gradient6)" fill-rule="evenodd" stroke="none"/>
      <path d="M6.2 -49.0 Q1.6 -35.6 2.5 -21.2 3.0 -13.45 5.1 -5.4 L7.9 -5.4 93.05 -4.55 89.55 -0.3 89.6 0.25 Q89.75 4.05 88.55 7.55 L31.15 8.6 Q27.85 14.0 20.9 19.4 17.4 21.1 14.0 22.2 -1.5 27.2 -15.95 20.35 L-31.1 18.95 Q-35.45 20.9 -36.9 27.7 -45.2 51.8 -56.45 59.05 -63.75 61.5 -83.0 60.8 -89.6 59.05 -91.5 54.5 -93.45 43.1 -92.95 31.75 -92.65 24.2 -91.25 16.65 -89.5 10.15 -74.1 9.1 -66.0 8.1 -62.25 0.95 -64.85 -13.6 -64.15 -26.8 L-63.65 -32.85 -63.35 -35.25 -62.9 -38.2 Q-61.8 -39.9 -59.9 -40.95 -56.25 -42.9 -49.75 -42.45 L-46.35 -45.35 -46.25 -60.95 Q-34.45 -59.4 -22.35 -57.0 -12.0 -54.95 -1.45 -52.3 L6.2 -49.0 M-11.55 4.3 L-17.95 4.3 Q-27.25 5.2 -9.45 15.3 5.35 21.15 15.95 12.7 26.25 3.75 16.55 4.2 L1.4 4.25 -11.55 4.3 M-28.1 -50.2 Q-28.1 -51.9 -29.35 -53.15 L-30.0 -53.65 Q-31.0 -54.35 -32.25 -54.35 -33.95 -54.35 -35.2 -53.15 -36.4 -51.9 -36.4 -50.2 -36.4 -49.05 -35.85 -48.15 L-35.2 -47.3 Q-33.95 -46.05 -32.25 -46.05 -30.55 -46.05 -29.35 -47.3 -28.1 -48.5 -28.1 -50.2 M-11.2 -43.75 L-12.05 -43.65 Q-35.3 -41.45 -35.95 -25.25 L-36.0 -24.4 Q-36.0 -22.0 -35.6 -19.85 -32.9 -5.2 -11.2 -4.4 -12.1 -11.9 -12.35 -19.25 -12.75 -31.7 -11.2 -43.75 M-38.6 2.3 Q-40.9 -2.1 -43.8 -3.55 -49.2 -6.3 -56.75 1.05 -63.75 10.05 -73.1 16.05 -78.85 19.75 -85.5 22.3 L-85.85 23.3 -85.85 23.4 Q-87.45 27.65 -88.1 31.8 -89.85 43.2 -85.0 54.1 -74.8 59.6 -59.75 53.35 -49.55 44.95 -44.25 32.35 -40.9 24.3 -39.5 14.6 -38.7 8.75 -38.6 2.3" fill="url(#gradient7)" fill-rule="evenodd" stroke="none"/>
      <path d="M6.2 -49.0 Q1.6 -35.6 2.5 -21.2 3.0 -13.45 5.1 -5.4 L7.9 -5.4 Q9.35 -12.6 9.7 -19.75 10.35 -34.5 6.2 -49.0 L-1.45 -52.3 Q-12.0 -54.95 -22.35 -57.0 -34.45 -59.4 -46.25 -60.95 L-46.35 -45.35 -49.75 -42.45 Q-56.25 -42.9 -59.9 -40.95 -61.8 -39.9 -62.9 -38.2 L-63.35 -35.25 -63.65 -32.85 -64.15 -26.8 Q-64.85 -13.6 -62.25 0.95 -66.0 8.1 -74.1 9.1 -89.5 10.15 -91.25 16.65 -92.65 24.2 -92.95 31.75 -93.45 43.1 -91.5 54.5 -89.6 59.05 -83.0 60.8 -63.75 61.5 -56.45 59.05 -45.2 51.8 -36.9 27.7 -35.45 20.9 -31.1 18.95 L-15.95 20.35 Q-1.5 27.2 14.0 22.2 17.4 21.1 20.9 19.4 27.85 14.0 31.15 8.6 L88.55 7.55 Q89.75 4.05 89.6 0.25 L89.55 -0.3 93.05 -4.55 7.9 -5.4 M1.4 4.25 Q1.15 7.05 2.65 9.55 L2.65 9.6 Q5.3 17.6 -6.55 11.45 -9.45 8.8 -10.8 6.15 L-11.55 4.3 -17.95 4.3 Q-27.25 5.2 -9.45 15.3 5.35 21.15 15.95 12.7 26.25 3.75 16.55 4.2 L1.4 4.25 -11.55 4.3 M-64.15 -26.8 Q-67.55 -27.8 -71.65 -29.65 -73.4 -32.6 -72.9 -37.0 L-79.3 -37.25 Q-81.0 -38.85 -81.8 -40.5 -82.8 -42.65 -82.3 -44.95 L-81.95 -46.3 -67.65 -46.15 -67.0 -40.5 Q-66.95 -36.3 -63.35 -35.25 M-28.1 -50.2 Q-28.1 -48.5 -29.35 -47.3 -30.55 -46.05 -32.25 -46.05 -33.95 -46.05 -35.2 -47.3 L-35.85 -48.15 Q-36.4 -49.05 -36.4 -50.2 -36.4 -51.9 -35.2 -53.15 -33.95 -54.35 -32.25 -54.35 -31.0 -54.35 -30.0 -53.65 L-29.35 -53.15 Q-28.1 -51.9 -28.1 -50.2 M-11.2 -43.75 Q-12.75 -31.7 -12.35 -19.25 -12.1 -11.9 -11.2 -4.4 -32.9 -5.2 -35.6 -19.85 -36.0 -22.0 -36.0 -24.4 L-35.95 -25.25 Q-35.3 -41.45 -12.05 -43.65 L-11.2 -43.75 M-38.6 2.3 Q-40.9 -2.1 -43.8 -3.55 -49.2 -6.3 -56.75 1.05 -63.75 10.05 -73.1 16.05 -78.85 19.75 -85.5 22.3 L-85.85 23.3 -85.85 23.4 Q-87.45 27.65 -88.1 31.8 -89.85 43.2 -85.0 54.1 -74.8 59.6 -59.75 53.35 -49.55 44.95 -44.25 32.35 -40.9 24.3 -39.5 14.6 -38.7 8.75 -38.6 2.3 M-79.2 41.5 Q-79.2 39.35 -77.8 37.7 L-77.55 37.4 Q-75.85 35.75 -73.5 35.75 -71.65 35.75 -70.25 36.8 -69.85 37.05 -69.5 37.4 -68.2 38.7 -67.9 40.4 L-67.8 41.5 Q-67.8 43.8 -69.5 45.5 -71.15 47.2 -73.5 47.2 -75.85 47.2 -77.55 45.5 L-78.25 44.6 Q-79.2 43.2 -79.2 41.5" fill="none" stroke="#000000" stroke-linecap="round" stroke-linejoin="round" stroke-opacity="0.6627451" stroke-width="1.0"/>
    </g>
    <linearGradient gradientTransform="matrix(0.0051, 0.0, 0.0, 0.0051, -32.25, -50.2)" gradientUnits="userSpaceOnUse" id="gradient0" spreadMethod="pad" x1="-819.2" x2="819.2">
      <stop offset="0.0" stop-color="#000000"/>
      <stop offset="1.0" stop-color="#ffffff"/>
    </linearGradient>
    <linearGradient gradientTransform="matrix(0.007, 0.0, 0.0, 0.007, -73.5, 41.45)" gradientUnits="userSpaceOnUse" id="gradient1" spreadMethod="pad" x1="-819.2" x2="819.2">
      <stop offset="0.0" stop-color="#000000"/>
      <stop offset="1.0" stop-color="#ffffff"/>
    </linearGradient>
    <linearGradient gradientTransform="matrix(-0.0058, -0.0101, 0.0103, -0.006, -72.9, -36.5)" gradientUnits="userSpaceOnUse" id="gradient2" spreadMethod="pad" x1="-819.2" x2="819.2">
      <stop offset="0.0" stop-color="#000000"/>
      <stop offset="1.0" stop-color="#ffffff"/>
    </linearGradient>
    <linearGradient gradientTransform="matrix(0.0, -0.0269, 0.0266, 0.0, 6.05, -27.2)" gradientUnits="userSpaceOnUse" id="gradient3" spreadMethod="pad" x1="-819.2" x2="819.2">
      <stop offset="0.0" stop-color="#000000"/>
      <stop offset="1.0" stop-color="#ffffff"/>
    </linearGradient>
    <linearGradient gradientTransform="matrix(-0.0039, -0.0146, 0.0232, -0.0062, -23.65, -24.0)" gradientUnits="userSpaceOnUse" id="gradient4" spreadMethod="pad" x1="-819.2" x2="819.2">
      <stop offset="0.0" stop-color="#000000"/>
      <stop offset="1.0" stop-color="#ffffff"/>
    </linearGradient>
    <linearGradient gradientTransform="matrix(0.0, 0.009, -0.006, 0.0, -4.15, 9.2)" gradientUnits="userSpaceOnUse" id="gradient5" spreadMethod="pad" x1="-819.2" x2="819.2">
      <stop offset="0.0" stop-color="#000000"/>
      <stop offset="1.0" stop-color="#ffffff"/>
    </linearGradient>
    <linearGradient gradientTransform="matrix(0.0, -0.0305, 0.0372, 0.0, -63.65, 26.2)" gradientUnits="userSpaceOnUse" id="gradient6" spreadMethod="pad" x1="-819.2" x2="819.2">
      <stop offset="0.0" stop-color="#000000" stop-opacity="0.49019608"/>
      <stop offset="1.0" stop-color="#ffffff"/>
    </linearGradient>
    <linearGradient gradientTransform="matrix(0.0, -0.0693, 0.0744, 0.0, 0.0, 0.0)" gradientUnits="userSpaceOnUse" id="gradient7" spreadMethod="pad" x1="-819.2" x2="819.2">
      <stop offset="0.0" stop-color="#000000" stop-opacity="0.6"/>
      <stop offset="1.0" stop-color="#000000" stop-opacity="0.5411765"/>
    </linearGradient>
    <g id="shape2" transform="matrix(1.0, 0.0, 0.0, 1.0, -59.65, 80.35)">
      <path d="M60.2 -49.6 Q60.0 -54.3 60.45 -58.9 63.65 -61.9 69.3 -63.1 L80.5 -64.65 160.15 -63.85 160.6 -52.75 160.5 -48.55 Q111.3 -43.8 60.2 -49.6" fill="#666666" fill-rule="evenodd" stroke="none"/>
      <path d="M63.3 -69.1 L63.3 -71.1 71.6 -71.1 71.65 -73.95 81.35 -73.85 81.3 -71.0 84.4 -71.0 84.45 -73.85 94.15 -73.75 94.1 -70.9 97.25 -70.85 97.3 -73.7 106.95 -73.65 106.9 -70.8 110.05 -70.75 110.1 -73.6 119.8 -73.5 119.75 -70.65 122.85 -70.65 122.9 -73.5 132.6 -73.4 132.55 -70.55 135.6 -70.5 135.65 -73.35 145.35 -73.25 145.3 -70.4 146.85 -70.4 156.55 -79.85 160.95 -79.75 161.0 -77.05 149.05 -69.55 147.85 -68.3 63.3 -69.1 M60.45 -58.9 Q60.85 -63.0 61.7 -67.1 L63.3 -67.1 159.95 -66.15 160.15 -63.85 80.5 -64.65 69.3 -63.1 Q63.65 -61.9 60.45 -58.9" fill="#b3b3b3" fill-rule="evenodd" stroke="none"/>
      <path d="M105.85 -38.45 L61.4 -38.85 Q60.4 -44.25 60.2 -49.6 111.3 -43.8 160.5 -48.55 160.3 -43.2 159.65 -37.9 L105.85 -38.45" fill="#4d4d4d" fill-rule="evenodd" stroke="none"/>
      <path d="M161.0 -77.05 L161.15 -68.7 161.45 -63.85 161.75 -52.85 160.6 -52.75 160.15 -63.85 159.95 -66.15 63.3 -67.1 63.3 -69.1 147.85 -68.3 149.05 -69.55 161.0 -77.05" fill="#808080" fill-rule="evenodd" stroke="none"/>
      <path d="M161.75 -52.85 L161.7 -48.8 Q161.5 -41.8 160.75 -35.7 L122.45 -36.1 121.9 -30.9 112.4 -30.9 107.4 -36.05 105.85 -38.45 159.65 -37.9 Q160.3 -43.2 160.5 -48.55 L160.6 -52.75 161.75 -52.85 M115.5 -34.05 Q115.65 -33.4 116.1 -32.95 116.85 -32.15 117.8 -32.1 118.8 -32.1 119.5 -32.9 L120.2 -33.9 120.3 -34.65 120.15 -35.6 119.55 -36.4 Q118.85 -37.1 117.85 -37.1 116.9 -37.15 116.15 -36.45 L115.65 -35.65 115.45 -34.7 Q115.4 -34.35 115.5 -34.05" fill="#424242" fill-rule="evenodd" stroke="none"/>
      <path d="M115.5 -34.05 Q115.4 -34.35 115.45 -34.7 L115.65 -35.65 116.15 -36.45 Q116.9 -37.15 117.85 -37.1 118.85 -37.1 119.55 -36.4 L120.15 -35.6 120.3 -34.65 120.2 -33.9 Q119.15 -33.75 117.7 -33.9 L118.0 -33.9 116.45 -34.0 115.5 -34.05" fill="#959595" fill-rule="evenodd" stroke="none"/>
      <path d="M120.2 -33.9 L119.5 -32.9 Q118.8 -32.1 117.8 -32.1 116.85 -32.15 116.1 -32.95 115.65 -33.4 115.5 -34.05 L116.45 -34.0 118.0 -33.9 117.7 -33.9 Q119.15 -33.75 120.2 -33.9" fill="#5e5e5e" fill-rule="evenodd" stroke="none"/>
      <path d="M63.3 -69.1 L63.3 -71.1 71.6 -71.1 71.65 -73.95 81.35 -73.85 81.3 -71.0 84.4 -71.0 84.45 -73.85 94.15 -73.75 94.1 -70.9 97.25 -70.85 97.3 -73.7 106.95 -73.65 106.9 -70.8 110.05 -70.75 110.1 -73.6 119.8 -73.5 119.75 -70.65 122.85 -70.65 122.9 -73.5 132.6 -73.4 132.55 -70.55 135.6 -70.5 135.65 -73.35 145.35 -73.25 145.3 -70.4 146.85 -70.4 156.55 -79.85 160.95 -79.75 161.0 -77.05 161.15 -68.7 161.45 -63.85 161.75 -52.85 161.7 -48.8 Q161.5 -41.8 160.75 -35.7 L122.45 -36.1 121.9 -30.9 112.4 -30.9 107.4 -36.05 105.85 -38.45 61.4 -38.85 Q60.4 -44.25 60.2 -49.6 60.0 -54.3 60.45 -58.9 60.85 -63.0 61.7 -67.1 L63.3 -67.1 63.3 -69.1 M63.3 -67.1 L159.95 -66.15 160.15 -63.85 160.6 -52.75 160.5 -48.55 Q160.3 -43.2 159.65 -37.9 L105.85 -38.45 M120.2 -33.9 L119.5 -32.9 Q118.8 -32.1 117.8 -32.1 116.85 -32.15 116.1 -32.95 115.65 -33.4 115.5 -34.05 115.4 -34.35 115.45 -34.7 L115.65 -35.65 116.15 -36.45 Q116.9 -37.15 117.85 -37.1 118.85 -37.1 119.55 -36.4 L120.15 -35.6 120.3 -34.65 120.2 -33.9" fill="none" stroke="#000000" stroke-linecap="round" stroke-linejoin="round" stroke-opacity="0.6627451" stroke-width="1.0"/>
    </g>
    <g id="sprite1" transform="matrix(1.0, 0.0, 0.0, 1.0, 70.7, 34.35)">
      <use height="68.7" transform="matrix(1.0, 0.0, 0.0, 1.0, -70.7, -34.35)" width="141.45" xlink:href="#shape3"/>
    </g>
    <g id="shape3" transform="matrix(1.0, 0.0, 0.0, 1.0, 70.7, 34.35)">
      <path d="M13.0 27.7 L13.25 29.05 13.15 30.05 Q12.9 30.85 12.2 31.5 11.25 32.55 9.85 32.55 8.5 32.55 7.45 31.5 6.8 30.85 6.6 29.95 L6.5 29.05 6.75 27.7 7.45 26.6 Q8.5 25.6 9.85 25.6 11.25 25.6 12.2 26.6 L13.0 27.7" fill="url(#gradient8)" fill-rule="evenodd" stroke="none"/>
      <path d="M-6.9 23.95 L-68.75 23.95 Q-70.25 16.45 -70.55 9.0 -70.9 2.5 -70.35 -3.95 -69.9 -9.7 -68.75 -15.4 L-66.55 -15.4 68.0 -15.4 68.35 -12.15 Q69.05 -4.4 69.1 3.25 L69.05 9.1 Q68.85 16.6 68.0 23.95 L-6.9 23.95" fill="url(#gradient9)" fill-rule="evenodd" stroke="none"/>
      <path d="M-66.55 -15.4 L-66.55 -20.95 -55.0 -21.05 -55.0 -25.05 -41.5 -25.05 -41.5 -21.05 -37.15 -21.05 -37.15 -25.05 -23.65 -25.05 -23.65 -21.05 -19.3 -21.05 -19.3 -25.05 -5.8 -25.05 -5.8 -21.05 -1.45 -21.05 -1.45 -25.05 12.05 -25.05 12.05 -21.05 16.4 -21.05 16.4 -25.05 29.9 -25.05 29.9 -21.05 34.1 -21.05 34.1 -25.05 47.6 -25.05 47.6 -21.05 49.75 -21.05 63.15 -34.35 69.25 -34.3 69.7 -18.95 70.2 -12.15 70.75 3.15 70.7 8.75 Q70.55 18.55 69.55 27.0 L16.25 27.0 15.5 34.25 2.3 34.35 -4.75 27.25 -6.9 23.95 68.0 23.95 Q68.85 16.6 69.05 9.1 L69.1 3.25 Q69.05 -4.4 68.35 -12.15 L68.0 -15.4 -66.55 -15.4 M13.0 27.7 L12.2 26.6 Q11.25 25.6 9.85 25.6 8.5 25.6 7.45 26.6 L6.75 27.7 6.5 29.05 6.6 29.95 Q6.8 30.85 7.45 31.5 8.5 32.55 9.85 32.55 11.25 32.55 12.2 31.5 12.9 30.85 13.15 30.05 L13.25 29.05 13.0 27.7" fill="url(#gradient10)" fill-rule="evenodd" stroke="none"/>
    </g>
    <linearGradient gradientTransform="matrix(0.0041, 0.0, 0.0, 0.0042, 9.85, 29.05)" gradientUnits="userSpaceOnUse" id="gradient8" spreadMethod="pad" x1="-819.2" x2="819.2">
      <stop offset="0.0" stop-color="#000000"/>
      <stop offset="1.0" stop-color="#ffffff"/>
    </linearGradient>
    <linearGradient gradientTransform="matrix(0.0635, 0.0, 0.0, 0.024, 12.4, 3.95)" gradientUnits="userSpaceOnUse" id="gradient9" spreadMethod="pad" x1="-819.2" x2="819.2">
      <stop offset="0.0" stop-color="#000000" stop-opacity="0.52156866"/>
      <stop offset="1.0" stop-color="#ffffff"/>
    </linearGradient>
    <linearGradient gradientTransform="matrix(0.0, 0.0326, -0.0419, 0.0, -0.5, -12.55)" gradientUnits="userSpaceOnUse" id="gradient10" spreadMethod="pad" x1="-819.2" x2="819.2">
      <stop offset="0.0" stop-color="#000000"/>
      <stop offset="1.0" stop-color="#4d4d4d"/>
    </linearGradient>
    <g id="shape4" transform="matrix(1.0, 0.0, 0.0, 1.0, 56.75, 57.4)">
      <path d="M12.1 -39.05 Q16.9 -38.25 21.35 -36.0 L28.55 -32.3 33.25 -29.75 34.9 -28.9 Q37.85 -27.45 39.65 -26.2 L47.8 -22.05 Q52.9 -19.3 52.9 -16.55 52.9 -15.2 50.4 -10.6 L48.75 -8.2 Q46.45 -6.1 42.25 -6.15 L36.15 -8.75 34.7 -9.4 35.15 -7.05 35.15 -6.55 Q34.8 -4.55 33.5 -3.05 27.25 4.2 18.3 -1.35 L18.15 -1.4 Q18.15 0.8 17.05 2.5 L16.05 3.7 Q13.4 5.75 9.95 5.35 L9.7 5.3 7.6 4.9 2.5 3.35 -0.8 2.05 Q-10.8 -2.75 -21.15 -6.5 L-27.7 -9.1 Q-35.8 -12.5 -43.55 -16.8 -47.45 -19.35 -49.6 -22.45 -54.55 -33.65 -55.9 -46.05 L-56.55 -51.0 -56.75 -55.6 Q-56.75 -56.85 -56.25 -57.4 L-55.7 -56.65 -55.45 -56.25 Q-55.1 -55.45 -54.9 -54.35 L-54.8 -53.55 -54.5 -50.95 Q-53.5 -40.4 -50.8 -30.05 -49.7 -25.85 -47.2 -22.4 -45.7 -20.55 -43.55 -18.9 -38.35 -16.05 -32.95 -13.6 -28.4 -11.55 -23.7 -9.75 -13.35 -5.8 -3.05 -1.35 L5.3 2.1 7.6 2.75 Q10.15 3.65 12.4 3.15 14.0 2.75 15.45 1.65 L16.05 1.15 16.4 0.55 16.95 -0.95 17.0 -1.85 17.0 -2.35 16.95 -3.65 17.5 -3.2 18.3 -3.0 Q19.2 -2.5 20.15 -2.15 21.45 -1.6 22.65 -1.3 29.8 0.35 33.25 -6.6 L33.3 -7.1 32.8 -8.7 32.55 -9.4 32.3 -10.35 32.35 -10.7 Q31.75 -10.95 30.85 -11.45 L28.75 -12.7 Q29.4 -13.95 31.0 -13.2 L33.45 -11.65 37.6 -9.75 39.7 -8.75 Q42.0 -7.7 42.65 -7.7 45.95 -7.65 47.75 -9.6 L49.15 -11.9 50.35 -13.9 Q51.25 -15.65 51.25 -16.35 51.25 -17.85 48.55 -19.75 L45.8 -21.45 38.0 -25.35 30.75 -29.3 29.6 -29.85 21.8 -33.85 Q18.0 -35.95 13.95 -37.4 L11.2 -38.35 11.15 -38.55 11.2 -38.7 11.65 -38.95 12.1 -39.05 M-20.55 -53.25 L-21.25 -53.8 Q-19.55 -55.3 -16.0 -51.65 -12.65 -48.25 -12.65 -46.65 L-12.65 -46.55 -11.85 -46.2 -8.8 -44.35 3.0 -37.7 3.4 -37.45 Q3.85 -38.4 5.1 -39.8 L6.9 -41.65 8.2 -41.0 7.85 -40.5 5.75 -38.2 4.3 -36.6 4.55 -35.9 4.5 -35.5 4.4 -35.25 4.15 -35.15 3.55 -35.05 3.0 -35.25 -11.5 -44.2 Q-15.05 -46.15 -17.75 -47.0 -16.65 -47.7 -14.9 -47.35 L-16.35 -49.95 -18.45 -51.85 -20.55 -53.25" fill="#000000" fill-rule="evenodd" stroke="none"/>
      <path d="M-55.45 -56.25 L-51.15 -56.95 -45.0 -57.35 Q-37.4 -57.35 -29.7 -55.45 -24.05 -53.8 -20.55 -53.25 L-18.45 -51.85 -16.35 -49.95 -14.9 -47.35 Q-16.65 -47.7 -17.75 -47.0 -15.05 -46.15 -11.5 -44.2 L3.0 -35.25 3.55 -35.05 4.15 -35.15 4.4 -35.25 4.5 -35.5 4.55 -35.9 4.3 -36.6 5.75 -38.2 7.85 -40.5 8.2 -41.0 9.1 -40.55 12.1 -39.05 11.65 -38.95 11.2 -38.7 11.15 -38.55 11.2 -38.35 13.95 -37.4 Q18.0 -35.95 21.8 -33.85 L29.6 -29.85 30.75 -29.3 38.0 -25.35 45.8 -21.45 48.55 -19.75 48.55 -18.05 Q48.35 -16.1 46.4 -12.95 44.05 -9.7 42.15 -8.9 L39.7 -8.75 37.6 -9.75 33.45 -11.65 31.0 -13.2 Q29.4 -13.95 28.75 -12.7 L30.85 -11.45 Q31.75 -10.95 32.35 -10.7 L32.3 -10.35 32.55 -9.4 30.4 -6.1 Q27.4 -1.65 24.55 -1.35 L22.65 -1.3 Q21.45 -1.6 20.15 -2.15 19.2 -2.5 18.3 -3.0 L17.5 -3.2 16.95 -3.65 17.0 -2.35 17.0 -1.85 13.4 2.05 12.4 3.15 Q10.15 3.65 7.6 2.75 L5.3 2.1 -3.05 -1.35 Q-13.35 -5.8 -23.7 -9.75 -28.4 -11.55 -32.95 -13.6 -37.35 -17.5 -39.5 -18.75 -42.45 -20.5 -44.55 -23.15 -46.75 -25.85 -47.7 -28.95 L-51.55 -43.8 Q-53.2 -50.25 -54.9 -54.35 -55.1 -55.45 -55.45 -56.25" fill="#999999" fill-rule="evenodd" stroke="none"/>
      <path d="M48.55 -19.75 Q51.25 -17.85 51.25 -16.35 51.25 -15.65 50.35 -13.9 L49.15 -11.9 47.75 -9.6 Q45.95 -7.65 42.65 -7.7 42.0 -7.7 39.7 -8.75 L42.15 -8.9 Q44.05 -9.7 46.4 -12.95 48.35 -16.1 48.55 -18.05 L48.55 -19.75 M32.55 -9.4 L32.8 -8.7 33.3 -7.1 33.25 -6.6 Q29.8 0.35 22.65 -1.3 L24.55 -1.35 Q27.4 -1.65 30.4 -6.1 L32.55 -9.4 M17.0 -1.85 L16.95 -0.95 16.4 0.55 16.05 1.15 15.45 1.65 Q14.0 2.75 12.4 3.15 L13.4 2.05 17.0 -1.85 M-32.95 -13.6 Q-38.35 -16.05 -43.55 -18.9 -45.7 -20.55 -47.2 -22.4 -49.7 -25.85 -50.8 -30.05 -53.5 -40.4 -54.5 -50.95 L-54.8 -53.55 -54.9 -54.35 Q-53.2 -50.25 -51.55 -43.8 L-47.7 -28.95 Q-46.75 -25.85 -44.55 -23.15 -42.45 -20.5 -39.5 -18.75 -37.35 -17.5 -32.95 -13.6" fill="#bdbdbd" fill-rule="evenodd" stroke="none"/>
    </g>
  </defs>
</svg>
