<?xml version="1.0" encoding="UTF-8" standalone="no"?>
<svg xmlns:xlink="http://www.w3.org/1999/xlink" height="531.5px" width="460.6px" xmlns="http://www.w3.org/2000/svg">
  <g transform="matrix(1.0, 0.0, 0.0, 1.0, 193.65, 334.05)">
    <use height="19.45" transform="matrix(1.9412, 0.0, 0.0, 1.9412, -72.2995, -175.7293)" width="69.75" xlink:href="#sprite0"/>
  </g>
  <defs>
    <g id="sprite0" transform="matrix(1.0, 0.0, 0.0, 1.0, 34.85, 9.7)">
      <use height="19.45" transform="matrix(1.0, 0.0, 0.0, 1.0, -34.85, -9.7)" width="69.75" xlink:href="#shape0"/>
      <use height="18.45" transform="matrix(1.0, 0.0, 0.0, 1.0, -34.35, -9.2)" width="68.75" xlink:href="#sprite1"/>
    </g>
    <g id="shape0" transform="matrix(1.0, 0.0, 0.0, 1.0, 34.85, 9.7)">
      <path d="M19.65 -2.85 L17.65 -0.05 16.1 2.15 13.85 2.15 15.55 -0.1 17.6 -2.85 19.65 -2.85 M25.3 0.6 L27.9 -2.85 29.9 -2.85 31.7 -2.85 31.9 -2.85 Q33.1 -2.75 33.7 -2.1 L32.2 0.5 31.1 2.15 27.65 2.15 24.0 2.15 24.1 2.0 25.3 0.6" fill="#feabab" fill-rule="evenodd" stroke="none"/>
      <path d="M17.65 -0.05 L19.65 -2.85 27.9 -2.85 25.3 0.6 20.8 0.25 17.65 -0.05 M17.6 -2.85 L15.55 -0.1 10.8 0.2 Q7.8 0.4 3.9 0.25 L-3.1 0.2 -3.1 -2.85 13.8 -2.85 17.6 -2.85 M33.7 -2.1 Q34.4 -1.45 34.4 -0.15 L34.25 0.4 32.2 0.5 33.7 -2.1" fill="#d50000" fill-rule="evenodd" stroke="none"/>
      <path d="M19.65 -2.85 L17.6 -2.85 13.8 -2.85 14.1 -3.25 Q16.0 -5.6 16.95 -7.85 L25.05 -7.95 Q28.0 -7.75 29.85 -5.9 L30.45 -5.2 29.9 -2.85 27.9 -2.85 19.65 -2.85 M13.85 2.15 L16.1 2.15 24.0 2.15 27.65 2.15 25.35 5.25 24.95 5.25 5.05 5.65 8.9 2.15 13.85 2.15" fill="#ffff91" fill-rule="evenodd" stroke="none"/>
      <path d="M16.95 -7.85 Q16.0 -5.6 14.1 -3.25 L13.8 -2.85 -3.1 -2.85 -3.1 -3.5 -5.15 -3.65 -7.1 -3.65 -9.45 -3.35 -10.25 -3.2 -10.45 -0.55 -10.45 -0.15 -10.25 2.75 -9.45 2.9 -7.1 3.15 -5.15 3.15 -3.1 3.0 -3.1 2.15 8.9 2.15 5.05 5.65 3.25 5.65 3.05 5.65 -8.15 5.25 Q-11.15 5.35 -11.55 2.75 -11.5 0.55 -11.8 -0.75 L-12.6 -1.0 Q-12.85 -3.2 -13.95 -4.95 L-14.5 -5.7 -15.25 -6.5 -16.45 -7.55 16.95 -7.85 M30.45 -5.2 L31.7 -2.85 29.9 -2.85 30.45 -5.2 M32.5 2.15 Q32.35 4.2 31.5 5.6 L25.35 5.25 27.65 2.15 31.1 2.15 32.5 2.15" fill="#ffff1a" fill-rule="evenodd" stroke="none"/>
      <path d="M15.55 -0.1 L13.85 2.15 8.9 2.15 -3.1 2.15 -3.1 0.4 -3.1 0.2 3.9 0.25 Q7.8 0.4 10.8 0.2 L15.55 -0.1 M16.1 2.15 L17.65 -0.05 20.8 0.25 25.3 0.6 24.1 2.0 24.0 2.15 16.1 2.15 M34.25 0.4 Q33.8 1.75 32.5 2.15 L31.1 2.15 32.2 0.5 34.25 0.4" fill="#b50000" fill-rule="evenodd" stroke="none"/>
      <path d="M-12.6 -1.0 L-11.8 -0.75 Q-11.5 0.55 -11.55 2.75 -11.15 5.35 -8.15 5.25 L3.05 5.65 3.25 5.65 5.05 5.65 24.95 5.25 25.35 5.25 31.5 5.6 Q30.25 7.7 27.25 8.3 L25.95 8.3 22.35 8.3 17.9 8.3 11.9 8.25 8.85 8.25 2.05 8.2 -17.2 8.05 Q-16.15 7.45 -15.25 6.5 -13.2 4.5 -12.7 1.85 L-12.55 0.05 -12.6 -1.0" fill="#e8d62e" fill-rule="evenodd" stroke="none"/>
      <path d="M-24.4 9.25 L-25.0 9.25 -25.15 9.25 Q-29.0 9.25 -31.75 6.5 -34.35 3.85 -34.35 0.05 -34.35 -3.8 -31.75 -6.5 -29.05 -9.15 -25.35 -9.2 L-24.95 -9.2 -23.5 -9.05 Q-20.7 -8.55 -18.65 -6.5 L-17.2 -4.65 -16.7 -3.6 Q-16.0 -1.95 -16.0 0.05 -16.0 3.55 -18.2 6.05 L-18.65 6.5 Q-20.7 8.6 -23.5 9.1 L-24.4 9.25 M-25.15 -6.45 Q-27.35 -6.45 -29.0 -5.15 L-25.2 -1.35 -21.3 -5.15 Q-22.95 -6.45 -25.15 -6.45 M-18.7 0.05 Q-18.7 -2.2 -19.95 -3.85 L-23.85 0.0 -19.95 3.9 Q-18.7 2.25 -18.7 0.05 M-25.2 1.3 L-29.05 5.2 Q-27.35 6.5 -25.15 6.5 -22.95 6.5 -21.3 5.2 L-25.2 1.3 M-31.65 0.05 Q-31.65 2.25 -30.4 3.9 L-26.5 0.0 -30.35 -3.85 Q-31.65 -2.2 -31.65 0.05" fill="#000000" fill-rule="evenodd" stroke="none"/>
      <path d="M-16.45 -7.55 L-15.25 -6.5 -14.5 -5.7 -17.2 -4.65 -18.65 -6.5 Q-20.7 -8.55 -23.5 -9.05 L-24.95 -9.2 -21.55 -9.2 -21.4 -9.2 Q-18.6 -9.1 -16.45 -7.55 M-13.95 -4.95 Q-12.85 -3.2 -12.6 -1.0 L-12.55 0.05 -12.7 1.85 -14.0 3.65 Q-15.95 5.95 -17.15 6.05 L-18.2 6.05 Q-16.0 3.55 -16.0 0.05 -16.0 -1.95 -16.7 -3.6 L-13.95 -4.95 M-10.45 -0.55 L-10.25 -3.2 -9.45 -3.35 -7.1 -3.65 -5.15 -3.65 -3.1 -3.5 -3.1 -2.85 -3.1 0.2 -3.1 0.4 -3.15 0.4 -5.35 0.65 -9.35 0.1 Q-10.0 -0.15 -10.45 -0.55" fill="#5e5e5e" fill-rule="evenodd" stroke="none"/>
      <path d="M-25.15 -6.45 Q-22.95 -6.45 -21.3 -5.15 L-25.2 -1.35 -29.0 -5.15 Q-27.35 -6.45 -25.15 -6.45 M-25.2 1.3 L-21.3 5.2 Q-22.95 6.5 -25.15 6.5 -27.35 6.5 -29.05 5.2 L-25.2 1.3 M-18.7 0.05 Q-18.7 2.25 -19.95 3.9 L-23.85 0.0 -19.95 -3.85 Q-18.7 -2.2 -18.7 0.05 M-31.65 0.05 Q-31.65 -2.2 -30.35 -3.85 L-26.5 0.0 -30.4 3.9 Q-31.65 2.25 -31.65 0.05" fill="#ff1a1a" fill-rule="evenodd" stroke="none"/>
      <path d="M-14.5 -5.7 L-13.95 -4.95 -16.7 -3.6 -17.2 -4.65 -14.5 -5.7" fill="#787878" fill-rule="evenodd" stroke="none"/>
      <path d="M-3.1 2.15 L-3.1 3.0 -5.15 3.15 -7.1 3.15 -9.45 2.9 -10.25 2.75 -10.45 -0.15 -10.45 -0.55 Q-10.0 -0.15 -9.35 0.1 L-5.35 0.65 -3.15 0.4 -3.1 0.4 -3.1 2.15 M-17.2 8.05 Q-19.15 9.2 -21.6 9.25 L-21.75 9.25 -24.4 9.25 -23.5 9.1 Q-20.7 8.6 -18.65 6.5 L-18.2 6.05 -17.15 6.05 Q-15.95 5.95 -14.0 3.65 L-12.7 1.85 Q-13.2 4.5 -15.25 6.5 -16.15 7.45 -17.2 8.05" fill="#404040" fill-rule="evenodd" stroke="none"/>
      <path d="M19.65 -2.85 L17.6 -2.85 13.8 -2.85 -3.1 -2.85 -3.1 -3.5 -5.15 -3.65 -7.1 -3.65 -9.45 -3.35 -10.25 -3.2 -10.45 -0.55 -10.45 -0.15 -10.25 2.75 -9.45 2.9 -7.1 3.15 -5.15 3.15 -3.1 3.0 -3.1 2.15 8.9 2.15 13.85 2.15 16.1 2.15 24.0 2.15 27.65 2.15 31.1 2.15 32.5 2.15 Q32.35 4.2 31.5 5.6 30.25 7.7 27.25 8.3 L25.95 8.3 22.35 8.3 17.9 8.3 11.9 8.25 8.85 8.25 2.05 8.2 -17.2 8.05 Q-19.15 9.2 -21.6 9.25 L-21.75 9.25 -24.4 9.25 -25.0 9.25 -25.15 9.25 Q-29.0 9.25 -31.75 6.5 -34.35 3.85 -34.35 0.05 -34.35 -3.8 -31.75 -6.5 -29.05 -9.15 -25.35 -9.2 L-24.95 -9.2 -21.55 -9.2 -21.4 -9.2 Q-18.6 -9.1 -16.45 -7.55 L-15.25 -6.5 -14.5 -5.7 -13.95 -4.95 Q-12.85 -3.2 -12.6 -1.0 L-12.55 0.05 -12.7 1.85 Q-13.2 4.5 -15.25 6.5 -16.15 7.45 -17.2 8.05 M27.9 -2.85 L19.65 -2.85 M16.95 -7.85 L-16.45 -7.55 M29.9 -2.85 L27.9 -2.85 M16.95 -7.85 L25.05 -7.95 Q28.0 -7.75 29.85 -5.9 L30.45 -5.2 31.7 -2.85 31.9 -2.85 Q33.1 -2.75 33.7 -2.1 34.4 -1.45 34.4 -0.15 L34.25 0.4 Q33.8 1.75 32.5 2.15 M31.7 -2.85 L29.9 -2.85 M-25.15 -6.45 Q-22.95 -6.45 -21.3 -5.15 L-25.2 -1.35 -29.0 -5.15 Q-27.35 -6.45 -25.15 -6.45 M-24.95 -9.2 L-23.5 -9.05 Q-20.7 -8.55 -18.65 -6.5 L-17.2 -4.65 -16.7 -3.6 Q-16.0 -1.95 -16.0 0.05 -16.0 3.55 -18.2 6.05 L-18.65 6.5 Q-20.7 8.6 -23.5 9.1 L-24.4 9.25 M-3.1 0.4 L-3.1 0.2 -3.1 -2.85 M-3.1 0.4 L-3.1 2.15 M-18.7 0.05 Q-18.7 -2.2 -19.95 -3.85 L-23.85 0.0 -19.95 3.9 Q-18.7 2.25 -18.7 0.05 M-25.2 1.3 L-29.05 5.2 Q-27.35 6.5 -25.15 6.5 -22.95 6.5 -21.3 5.2 L-25.2 1.3 M-31.65 0.05 Q-31.65 -2.2 -30.35 -3.85 L-26.5 0.0 -30.4 3.9 Q-31.65 2.25 -31.65 0.05" fill="none" stroke="#000000" stroke-linecap="round" stroke-linejoin="round" stroke-opacity="0.6627451" stroke-width="1.0"/>
    </g>
    <g id="sprite1" transform="matrix(1.0, 0.0, 0.0, 1.0, 34.35, 9.2)">
      <use height="18.45" transform="matrix(1.0, 0.0, 0.0, 1.0, -34.35, -9.2)" width="68.75" xlink:href="#shape1"/>
    </g>
    <g id="shape1" transform="matrix(1.0, 0.0, 0.0, 1.0, 34.35, 9.2)">
      <path d="M-24.4 9.25 L-25.0 9.25 -25.15 9.25 Q-29.0 9.25 -31.75 6.5 -34.35 3.85 -34.35 0.05 -34.35 -3.8 -31.75 -6.5 -29.05 -9.15 -25.35 -9.2 L-24.95 -9.2 -23.5 -9.05 Q-20.7 -8.55 -18.65 -6.5 L-17.2 -4.65 -16.7 -3.6 Q-16.0 -1.95 -16.0 0.05 -16.0 3.55 -18.2 6.05 L-18.65 6.5 Q-20.7 8.6 -23.5 9.1 L-24.4 9.25" fill="url(#gradient0)" fill-rule="evenodd" stroke="none"/>
      <path d="M-17.2 8.05 Q-19.15 9.2 -21.6 9.25 L-21.75 9.25 -24.4 9.25 -23.5 9.1 Q-20.7 8.6 -18.65 6.5 L-18.2 6.05 Q-16.0 3.55 -16.0 0.05 -16.0 -1.95 -16.7 -3.6 L-17.2 -4.65 -18.65 -6.5 Q-20.7 -8.55 -23.5 -9.05 L-24.95 -9.2 -21.55 -9.2 -21.4 -9.2 Q-18.6 -9.1 -16.45 -7.55 L-15.25 -6.5 -14.5 -5.7 -13.95 -4.95 Q-12.85 -3.2 -12.6 -1.0 L-12.55 0.05 -12.7 1.85 Q-13.2 4.5 -15.25 6.5 -16.15 7.45 -17.2 8.05" fill="url(#gradient1)" fill-rule="evenodd" stroke="none"/>
      <path d="M-3.1 2.15 L-3.1 3.0 -5.15 3.15 -7.1 3.15 -9.45 2.9 -10.25 2.75 -10.45 -0.15 -10.45 -0.55 -10.25 -3.2 -9.45 -3.35 -7.1 -3.65 -5.15 -3.65 -3.1 -3.5 -3.1 -2.85 -3.1 2.15" fill="url(#gradient2)" fill-rule="evenodd" stroke="none"/>
      <path d="M-16.45 -7.55 L25.05 -7.95 Q28.0 -7.75 29.85 -5.9 L30.45 -5.2 31.7 -2.85 -3.1 -2.85 -3.1 -3.5 -5.15 -3.65 -7.1 -3.65 -9.45 -3.35 -10.25 -3.2 -10.45 -0.55 -10.45 -0.15 -10.25 2.75 -9.45 2.9 -7.1 3.15 -5.15 3.15 -3.1 3.0 -3.1 2.15 32.5 2.15 Q32.35 4.2 31.5 5.6 30.25 7.7 27.25 8.3 L25.95 8.3 22.35 8.3 17.9 8.3 11.9 8.25 8.85 8.25 2.05 8.2 -17.2 8.05 Q-16.15 7.45 -15.25 6.5 -13.2 4.5 -12.7 1.85 L-12.55 0.05 -12.6 -1.0 Q-12.85 -3.2 -13.95 -4.95 L-14.5 -5.7 -15.25 -6.5 -16.45 -7.55" fill="url(#gradient3)" fill-rule="evenodd" stroke="none"/>
      <path d="M31.7 -2.85 L31.9 -2.85 Q33.1 -2.75 33.7 -2.1 34.4 -1.45 34.4 -0.15 L34.25 0.4 Q33.8 1.75 32.5 2.15 L-3.1 2.15 -3.1 -2.85 31.7 -2.85" fill="url(#gradient4)" fill-rule="evenodd" stroke="none"/>
    </g>
    <linearGradient gradientTransform="matrix(-0.0145, -0.0145, 0.008, -0.008, -25.05, 0.05)" gradientUnits="userSpaceOnUse" id="gradient0" spreadMethod="pad" x1="-819.2" x2="819.2">
      <stop offset="0.0" stop-color="#000000"/>
      <stop offset="1.0" stop-color="#ffffff"/>
    </linearGradient>
    <linearGradient gradientTransform="matrix(0.0049, -0.0183, 0.0109, 0.0029, -18.75, 0.0)" gradientUnits="userSpaceOnUse" id="gradient1" spreadMethod="pad" x1="-819.2" x2="819.2">
      <stop offset="0.0" stop-color="#000000"/>
      <stop offset="1.0" stop-color="#ffffff"/>
    </linearGradient>
    <linearGradient gradientTransform="matrix(0.0, -0.0143, 0.0042, 0.0, -6.85, -0.25)" gradientUnits="userSpaceOnUse" id="gradient2" spreadMethod="pad" x1="-819.2" x2="819.2">
      <stop offset="0.0" stop-color="#000000"/>
      <stop offset="1.0" stop-color="#ffffff"/>
    </linearGradient>
    <linearGradient gradientTransform="matrix(0.0, -0.0314, 0.0099, 0.0, 7.65, 0.45)" gradientUnits="userSpaceOnUse" id="gradient3" spreadMethod="pad" x1="-819.2" x2="819.2">
      <stop offset="0.0" stop-color="#000000"/>
      <stop offset="1.0" stop-color="#ffffff"/>
    </linearGradient>
    <linearGradient gradientTransform="matrix(-0.0059, -0.0221, 0.0029, -8.0E-4, 15.65, -0.35)" gradientUnits="userSpaceOnUse" id="gradient4" spreadMethod="pad" x1="-819.2" x2="819.2">
      <stop offset="0.0" stop-color="#000000"/>
      <stop offset="1.0" stop-color="#ffffff"/>
    </linearGradient>
  </defs>
</svg>
