<?xml version="1.0" encoding="UTF-8" standalone="no"?>
<svg xmlns:xlink="http://www.w3.org/1999/xlink" height="531.5px" width="460.6px" xmlns="http://www.w3.org/2000/svg">
  <g transform="matrix(1.0, 0.0, 0.0, 1.0, 193.65, 334.05)">
    <use height="152.7" transform="matrix(1.0, 0.0, 0.0, 1.0, -73.95, -212.7)" width="147.25" xlink:href="#shape0"/>
    <use height="164.0" transform="matrix(0.9252, 0.0, 0.0, 0.9252, -73.6433, -212.319)" width="158.05" xlink:href="#sprite0"/>
  </g>
  <defs>
    <g id="shape0" transform="matrix(1.0, 0.0, 0.0, 1.0, 73.95, 212.7)">
      <path d="M-0.05 -212.2 L2.35 -212.2 Q7.65 -212.2 9.1 -211.35 10.4 -210.6 13.8 -205.75 14.0 -205.45 16.0 -204.3 17.6 -203.4 17.95 -201.6 L18.25 -200.55 19.1 -200.4 Q24.55 -198.85 25.6 -194.2 26.05 -191.9 28.15 -190.65 29.3 -189.95 32.6 -189.05 L33.1 -188.8 Q33.3 -190.35 34.95 -192.35 L36.2 -193.7 36.5 -194.1 38.1 -191.1 40.05 -187.65 Q42.65 -183.9 45.7 -183.9 L46.5 -184.05 46.8 -184.3 46.8 -186.5 Q46.15 -189.75 46.3 -198.5 45.7 -205.9 41.65 -207.9 L39.2 -207.9 Q40.65 -208.55 43.5 -208.55 47.85 -208.55 50.6 -201.7 L52.7 -195.7 Q54.0 -192.05 54.9 -190.25 55.6 -189.1 58.05 -186.75 L61.45 -183.35 Q64.2 -179.85 64.2 -173.05 64.2 -170.3 63.35 -167.7 62.35 -164.7 60.2 -161.85 57.3 -158.2 53.3 -156.35 55.85 -151.9 57.2 -148.35 L57.45 -147.65 57.55 -147.45 57.6 -147.15 58.35 -144.2 58.85 -141.85 58.35 -144.2 57.6 -147.15 57.75 -147.2 Q65.65 -141.45 69.1 -134.55 72.8 -127.25 72.8 -115.65 72.8 -109.55 70.1 -100.65 68.75 -95.95 65.6 -87.8 L62.75 -82.0 Q60.7 -78.3 60.15 -75.85 L58.05 -69.55 57.4 -68.25 57.6 -70.0 57.9 -73.6 Q57.9 -75.2 56.2 -81.35 54.4 -87.8 54.25 -90.25 L53.3 -98.85 Q52.45 -104.15 50.85 -106.55 47.4 -111.7 44.95 -120.95 42.65 -129.35 41.8 -136.45 L42.35 -136.7 Q44.0 -137.3 47.4 -129.7 L51.1 -122.05 52.0 -129.25 Q52.7 -135.1 52.7 -138.4 52.7 -146.2 50.25 -151.2 L42.35 -164.25 39.65 -169.1 36.4 -174.25 Q35.65 -175.45 32.15 -177.15 29.0 -178.7 27.9 -181.3 25.9 -186.25 20.7 -191.7 15.7 -196.95 11.25 -199.1 8.25 -200.0 6.65 -201.0 3.8 -202.7 3.5 -206.1 3.2 -210.3 -0.05 -212.2 M42.1 -85.5 L40.25 -83.6 36.95 -80.5 28.6 -73.7 Q24.75 -70.75 20.4 -68.75 14.95 -66.25 11.25 -66.45 9.25 -66.65 5.55 -65.0 9.0 -69.4 11.55 -71.7 15.8 -75.6 22.0 -78.75 28.85 -82.3 33.3 -88.9 37.4 -94.95 37.9 -101.3 38.25 -98.4 39.05 -95.7 L42.1 -85.5 M-54.45 -203.6 L-52.05 -203.95 Q-49.6 -203.95 -47.25 -197.7 -46.1 -194.5 -45.0 -190.5 L-42.95 -184.95 -40.0 -186.2 Q-36.5 -176.85 -36.5 -175.4 -36.5 -168.0 -44.7 -160.5 -49.25 -156.35 -52.85 -154.8 -54.85 -153.95 -56.6 -153.9 -54.5 -157.55 -51.55 -164.0 -45.7 -176.45 -45.7 -179.6 -45.7 -185.1 -49.55 -193.35 L-54.45 -203.6 M55.55 -114.6 L54.9 -115.9 Q53.55 -118.95 51.75 -121.05 L51.1 -122.05 51.75 -121.05 Q53.55 -118.95 54.9 -115.9 L55.55 -114.6 56.45 -112.15 56.9 -110.9 59.7 -102.45 59.75 -102.15 Q61.65 -104.15 63.05 -111.7 64.6 -119.9 64.6 -124.5 64.6 -131.3 62.2 -135.6 L58.85 -141.85 Q59.35 -138.4 59.35 -134.3 59.35 -127.2 56.9 -118.05 56.7 -116.9 55.55 -114.6 M9.2 -202.1 L18.25 -200.55 9.2 -202.1 M33.1 -188.8 Q39.05 -186.95 40.35 -182.9 43.2 -174.45 47.0 -167.15 L53.15 -156.65 53.3 -156.35 53.15 -156.65 47.0 -167.15 Q43.2 -174.45 40.35 -182.9 39.05 -186.95 33.1 -188.8 M59.85 -101.8 L59.75 -102.15 59.85 -101.8 M-42.95 -184.95 Q-39.95 -176.75 -39.95 -175.9 -39.95 -169.3 -47.85 -159.95 -50.45 -156.9 -52.85 -154.8 -50.45 -156.9 -47.85 -159.95 -39.95 -169.3 -39.95 -175.9 -39.95 -176.75 -42.95 -184.95 M-49.15 -140.75 L-48.75 -140.85 Q-39.85 -137.25 -34.7 -130.25 -30.35 -124.25 -29.1 -116.3 L-32.05 -112.05 Q-33.25 -120.75 -37.4 -128.1 -41.95 -135.95 -49.15 -140.75 -41.95 -135.95 -37.4 -128.1 -33.25 -120.75 -32.05 -112.05 L-37.4 -102.4 Q-38.35 -109.75 -44.1 -124.65 L-50.85 -141.55 Q-49.7 -141.15 -49.15 -140.75 M-21.6 -125.25 L-20.35 -125.95 Q-19.15 -125.95 -18.15 -125.05 -17.2 -124.2 -17.2 -123.5 L-18.2 -118.2 -18.7 -115.8 -19.3 -112.3 Q-19.6 -108.6 -19.3 -101.1 -19.3 -87.95 -21.75 -82.3 -22.75 -79.9 -24.95 -77.0 L-24.45 -80.0 Q-24.3 -81.5 -24.3 -86.75 -24.3 -89.8 -25.35 -98.4 L-24.65 -114.65 Q-24.5 -118.65 -23.15 -122.1 L-21.6 -125.25" fill="#d99d7b" fill-rule="evenodd" stroke="none"/>
      <path d="M36.5 -194.1 L37.35 -195.0 37.65 -195.0 37.55 -195.55 37.05 -200.1 36.9 -201.15 36.65 -203.6 Q36.65 -206.75 38.95 -207.85 L39.2 -207.9 41.65 -207.9 Q45.7 -205.9 46.3 -198.5 46.15 -189.75 46.8 -186.5 L46.8 -184.3 46.5 -184.05 45.7 -183.9 Q42.65 -183.9 40.05 -187.65 L38.1 -191.1 36.5 -194.1 M57.4 -68.25 Q55.9 -66.25 53.6 -66.25 50.4 -66.25 48.4 -68.0 46.4 -69.6 46.1 -72.55 45.95 -74.55 44.7 -77.75 L43.5 -81.05 43.2 -82.15 42.95 -82.8 42.2 -85.35 42.1 -85.5 39.05 -95.7 Q38.25 -98.4 37.9 -101.3 37.4 -94.95 33.3 -88.9 28.85 -82.3 22.0 -78.75 15.8 -75.6 11.55 -71.7 9.0 -69.4 5.55 -65.0 L2.35 -63.55 Q-4.0 -60.5 -6.95 -60.5 -12.3 -60.5 -18.9 -67.4 L-21.35 -70.3 -25.35 -75.4 -25.8 -76.0 Q-28.05 -73.3 -31.25 -70.15 L-30.9 -69.75 Q-30.6 -66.25 -33.1 -64.4 -35.35 -62.8 -39.25 -62.8 -43.4 -62.8 -44.55 -64.8 L-46.9 -71.4 -49.7 -78.35 Q-51.7 -83.05 -53.6 -84.8 -60.05 -90.7 -64.4 -97.25 -70.0 -105.55 -70.0 -111.9 -70.0 -121.05 -67.8 -126.85 L-66.25 -130.1 -67.05 -132.55 Q-67.95 -136.4 -67.95 -139.1 -67.95 -142.05 -67.05 -147.6 L-66.35 -151.05 Q-68.7 -151.75 -70.0 -153.5 -72.1 -156.2 -73.15 -161.95 -74.25 -167.7 -71.1 -176.0 -67.95 -184.2 -58.3 -190.55 -60.95 -196.95 -60.95 -199.3 -60.95 -201.0 -57.5 -202.55 L-54.45 -203.6 -49.55 -193.35 Q-45.7 -185.1 -45.7 -179.6 -45.7 -176.45 -51.55 -164.0 -54.5 -157.55 -56.6 -153.9 -54.85 -153.95 -52.85 -154.8 -49.25 -156.35 -44.7 -160.5 -36.5 -168.0 -36.5 -175.4 -36.5 -176.85 -40.0 -186.2 L-35.2 -188.25 Q-25.9 -192.2 -23.0 -194.4 L-20.6 -196.0 Q-20.35 -200.55 -19.9 -202.8 -19.15 -207.55 -16.75 -209.2 -14.55 -210.9 -7.15 -211.7 L-0.05 -212.2 Q3.2 -210.3 3.5 -206.1 3.8 -202.7 6.65 -201.0 8.25 -200.0 11.25 -199.1 15.7 -196.95 20.7 -191.7 25.9 -186.25 27.9 -181.3 29.0 -178.7 32.15 -177.15 35.65 -175.45 36.4 -174.25 L39.65 -169.1 42.35 -164.25 50.25 -151.2 Q52.7 -146.2 52.7 -138.4 52.7 -135.1 52.0 -129.25 L51.1 -122.05 47.4 -129.7 Q44.0 -137.3 42.35 -136.7 L41.8 -136.45 39.25 -135.6 Q37.8 -135.25 37.8 -133.4 L38.35 -125.8 Q38.35 -123.2 37.8 -117.75 37.35 -112.3 37.35 -109.6 37.35 -105.6 37.8 -102.0 37.35 -105.6 37.35 -109.6 37.35 -112.3 37.8 -117.75 38.35 -123.2 38.35 -125.8 L37.8 -133.4 Q37.8 -135.25 39.25 -135.6 L41.8 -136.45 Q42.65 -129.35 44.95 -120.95 47.4 -111.7 50.85 -106.55 52.45 -104.15 53.3 -98.85 L54.25 -90.25 Q54.4 -87.8 56.2 -81.35 57.9 -75.2 57.9 -73.6 L57.6 -70.0 57.4 -68.25 M55.55 -114.6 Q56.7 -116.9 56.9 -118.05 59.35 -127.2 59.35 -134.3 59.35 -138.4 58.85 -141.85 L62.2 -135.6 Q64.6 -131.3 64.6 -124.5 64.6 -119.9 63.05 -111.7 61.65 -104.15 59.75 -102.15 L59.7 -102.45 56.9 -110.9 56.45 -112.15 55.55 -114.6 M38.1 -191.1 L37.65 -195.0 38.1 -191.1 M16.8 -156.5 L12.4 -156.5 11.1 -165.3 Q10.0 -171.15 8.1 -179.05 L8.1 -179.15 10.8 -180.5 8.1 -179.15 8.1 -179.05 Q10.0 -171.15 11.1 -165.3 L12.4 -156.5 16.8 -156.5 M8.1 -179.15 L7.7 -179.05 7.85 -179.05 8.1 -179.15 7.95 -179.35 Q5.8 -188.2 5.2 -191.4 5.8 -188.2 7.95 -179.35 L8.1 -179.15 M13.8 -133.1 Q10.65 -134.45 10.1 -135.25 10.65 -134.45 13.8 -133.1 13.65 -145.85 12.4 -156.5 L9.65 -156.5 12.4 -156.5 Q13.65 -145.85 13.8 -133.1 16.85 -131.8 18.85 -131.25 16.85 -131.8 13.8 -133.1 L13.55 -118.8 13.8 -133.1 M5.65 -178.0 L7.7 -179.05 5.65 -178.0 M58.45 -111.85 Q57.75 -111.35 56.9 -110.9 57.75 -111.35 58.45 -111.85 M26.75 -84.3 L22.05 -81.2 Q19.25 -79.5 17.45 -79.9 19.25 -79.5 22.05 -81.2 L26.75 -84.3 M45.7 -90.35 Q43.25 -92.5 42.05 -96.35 43.25 -92.5 45.7 -90.35 M-8.65 -199.8 L-9.25 -199.7 -14.7 -199.1 -18.7 -197.15 -20.6 -196.0 -18.7 -197.15 -14.7 -199.1 -9.25 -199.7 -8.65 -199.8 M20.25 -87.35 L17.7 -85.35 Q16.15 -84.5 15.4 -84.3 16.15 -84.5 17.7 -85.35 L20.25 -87.35 M13.3 -86.9 Q11.95 -84.8 8.55 -82.65 4.8 -80.35 2.1 -80.35 L0.6 -80.6 2.1 -80.35 Q4.8 -80.35 8.55 -82.65 11.95 -84.8 13.3 -86.9 M26.5 -86.65 Q29.35 -88.5 30.9 -90.05 32.35 -91.5 32.95 -93.1 32.35 -91.5 30.9 -90.05 29.35 -88.5 26.5 -86.65 M-66.35 -151.05 L-62.05 -150.5 Q-60.1 -150.5 -58.05 -151.35 -55.6 -152.45 -52.85 -154.8 -55.6 -152.45 -58.05 -151.35 -60.1 -150.5 -62.05 -150.5 L-66.35 -151.05 M-50.4 -136.15 L-52.6 -140.05 Q-54.2 -143.3 -54.05 -143.75 -54.2 -143.3 -52.6 -140.05 L-50.4 -136.15 M-59.35 -159.7 Q-63.35 -159.7 -65.2 -161.8 -63.35 -159.7 -59.35 -159.7 M-64.5 -158.55 Q-66.9 -158.7 -68.65 -160.85 -70.4 -163.1 -70.0 -165.25 -70.4 -163.1 -68.65 -160.85 -66.9 -158.7 -64.5 -158.55 M-65.65 -167.4 L-67.7 -169.0 -65.65 -167.4 M-58.3 -190.55 L-57.35 -187.05 -58.3 -190.55 M-29.1 -116.3 Q-30.35 -124.25 -34.7 -130.25 -39.85 -137.25 -48.75 -140.85 L-49.15 -140.75 Q-49.7 -141.15 -50.85 -141.55 L-44.1 -124.65 Q-38.35 -109.75 -37.4 -102.4 L-32.05 -112.05 -29.1 -116.3 -26.3 -119.95 Q-23.2 -123.95 -21.6 -125.25 -23.2 -123.95 -26.3 -119.95 L-29.1 -116.3 M-24.95 -77.0 Q-22.75 -79.9 -21.75 -82.3 -19.3 -87.95 -19.3 -101.1 -19.6 -108.6 -19.3 -112.3 L-18.7 -115.8 -18.2 -118.2 -17.2 -123.5 Q-17.2 -124.2 -18.15 -125.05 -19.15 -125.95 -20.35 -125.95 L-21.6 -125.25 -23.15 -122.1 Q-24.5 -118.65 -24.65 -114.65 L-25.35 -98.4 Q-24.3 -89.8 -24.3 -86.75 -24.3 -81.5 -24.45 -80.0 L-24.95 -77.0 -25.8 -76.0 -24.95 -77.0 M-59.8 -102.85 Q-64.25 -104.4 -65.65 -107.9 -64.25 -104.4 -59.8 -102.85 M-66.25 -130.1 Q-63.9 -134.55 -59.35 -140.05 -63.9 -134.55 -66.25 -130.1 M-61.45 -108.4 Q-62.2 -108.75 -63.35 -109.75 -64.6 -110.9 -64.95 -111.6 -64.6 -110.9 -63.35 -109.75 -62.2 -108.75 -61.45 -108.4 M-51.9 -141.85 L-50.85 -141.55 -51.9 -141.85 M-37.4 -102.4 L-40.55 -95.8 -37.4 -102.4 M-33.5 -68.1 L-31.25 -70.15 -33.5 -68.1 M-32.1 -85.5 L-29.75 -88.95 -32.1 -85.5 M-29.05 -80.15 Q-27.5 -81.9 -26.9 -83.15 -26.2 -84.5 -26.3 -85.95 -26.2 -84.5 -26.9 -83.15 -27.5 -81.9 -29.05 -80.15 M-30.5 -81.5 Q-31.8 -79.45 -33.95 -77.7 -35.5 -76.55 -36.7 -76.0 -35.5 -76.55 -33.95 -77.7 -31.8 -79.45 -30.5 -81.5" fill="#ffc3a1" fill-rule="evenodd" stroke="none"/>
      <path d="M-0.05 -212.2 L2.35 -212.2 Q7.65 -212.2 9.1 -211.35 10.4 -210.6 13.8 -205.75 14.0 -205.45 16.0 -204.3 17.6 -203.4 17.95 -201.6 L18.25 -200.55 19.1 -200.4 Q24.55 -198.85 25.6 -194.2 26.05 -191.9 28.15 -190.65 29.3 -189.95 32.6 -189.05 L33.1 -188.8 Q33.3 -190.35 34.95 -192.35 L36.2 -193.7 36.5 -194.1 37.35 -195.0 37.55 -195.55 37.05 -200.1 36.9 -201.15 36.65 -203.6 Q36.65 -206.75 38.95 -207.85 L39.2 -207.9 Q40.65 -208.55 43.5 -208.55 47.85 -208.55 50.6 -201.7 L52.7 -195.7 Q54.0 -192.05 54.9 -190.25 55.6 -189.1 58.05 -186.75 L61.45 -183.35 Q64.2 -179.85 64.2 -173.05 64.2 -170.3 63.35 -167.7 62.35 -164.7 60.2 -161.85 57.3 -158.2 53.3 -156.35 55.85 -151.9 57.2 -148.35 L57.45 -147.65 57.55 -147.45 57.75 -147.2 Q65.65 -141.45 69.1 -134.55 72.8 -127.25 72.8 -115.65 72.8 -109.55 70.1 -100.65 68.75 -95.95 65.6 -87.8 L62.75 -82.0 Q60.7 -78.3 60.15 -75.85 L58.05 -69.55 57.4 -68.25 Q55.9 -66.25 53.6 -66.25 50.4 -66.25 48.4 -68.0 46.4 -69.6 46.1 -72.55 45.95 -74.55 44.7 -77.75 L43.5 -81.05 43.2 -82.15 42.95 -82.8 42.2 -85.35 42.1 -85.5 40.25 -83.6 36.95 -80.5 28.6 -73.7 Q24.75 -70.75 20.4 -68.75 14.95 -66.25 11.25 -66.45 9.25 -66.65 5.55 -65.0 L2.35 -63.55 Q-4.0 -60.5 -6.95 -60.5 -12.3 -60.5 -18.9 -67.4 L-21.35 -70.3 -25.35 -75.4 -25.8 -76.0 Q-28.05 -73.3 -31.25 -70.15 L-33.5 -68.1 M-30.9 -69.75 Q-30.6 -66.25 -33.1 -64.4 -35.35 -62.8 -39.25 -62.8 -43.4 -62.8 -44.55 -64.8 L-46.9 -71.4 -49.7 -78.35 Q-51.7 -83.05 -53.6 -84.8 -60.05 -90.7 -64.4 -97.25 -70.0 -105.55 -70.0 -111.9 -70.0 -121.05 -67.8 -126.85 L-66.25 -130.1 -67.05 -132.55 Q-67.95 -136.4 -67.95 -139.1 -67.95 -142.05 -67.05 -147.6 L-66.35 -151.05 Q-68.7 -151.75 -70.0 -153.5 -72.1 -156.2 -73.15 -161.95 -74.25 -167.7 -71.1 -176.0 -67.95 -184.2 -58.3 -190.55 -60.95 -196.95 -60.95 -199.3 -60.95 -201.0 -57.5 -202.55 L-54.45 -203.6 -52.05 -203.95 Q-49.6 -203.95 -47.25 -197.7 -46.1 -194.5 -45.0 -190.5 L-42.95 -184.95 -40.0 -186.2 -35.2 -188.25 Q-25.9 -192.2 -23.0 -194.4 L-20.6 -196.0 Q-20.35 -200.55 -19.9 -202.8 -19.15 -207.55 -16.75 -209.2 -14.55 -210.9 -7.15 -211.7 L-0.05 -212.2 M51.1 -122.05 L51.75 -121.05 Q53.55 -118.95 54.9 -115.9 L55.55 -114.6 Q56.7 -116.9 56.9 -118.05 59.35 -127.2 59.35 -134.3 59.35 -138.4 58.85 -141.85 L58.35 -144.2 57.6 -147.15 57.55 -147.45 M18.25 -200.55 L9.2 -202.1 M53.3 -156.35 L53.15 -156.65 47.0 -167.15 Q43.2 -174.45 40.35 -182.9 39.05 -186.95 33.1 -188.8 M37.55 -195.55 L37.65 -195.0 38.1 -191.1 M10.8 -180.5 L8.1 -179.15 8.1 -179.05 Q10.0 -171.15 11.1 -165.3 L12.4 -156.5 16.8 -156.5 M7.7 -179.05 L7.85 -179.05 8.1 -179.15 7.95 -179.35 Q5.8 -188.2 5.2 -191.4 M7.7 -179.05 L5.65 -178.0 M9.65 -156.5 L12.4 -156.5 Q13.65 -145.85 13.8 -133.1 16.85 -131.8 18.85 -131.25 M41.8 -136.45 L39.25 -135.6 Q37.8 -135.25 37.8 -133.4 L38.35 -125.8 Q38.35 -123.2 37.8 -117.75 37.35 -112.3 37.35 -109.6 37.35 -105.6 37.8 -102.0 M13.8 -133.1 L13.55 -118.8 M10.1 -135.25 Q10.65 -134.45 13.8 -133.1 M59.75 -102.15 L59.85 -101.8 M41.8 -136.45 L42.35 -136.7 Q44.0 -137.3 47.4 -129.7 L51.1 -122.05 M55.55 -114.6 L56.45 -112.15 56.9 -110.9 Q57.75 -111.35 58.45 -111.85 M56.9 -110.9 L59.7 -102.45 59.75 -102.15 M42.05 -96.35 Q43.25 -92.5 45.7 -90.35 M17.45 -79.9 Q19.25 -79.5 22.05 -81.2 L26.75 -84.3 M37.9 -101.3 Q38.25 -98.4 39.05 -95.7 L42.1 -85.5 M32.95 -93.1 Q32.35 -91.5 30.9 -90.05 29.35 -88.5 26.5 -86.65 M0.6 -80.6 L2.1 -80.35 Q4.8 -80.35 8.55 -82.65 11.95 -84.8 13.3 -86.9 M15.4 -84.3 Q16.15 -84.5 17.7 -85.35 L20.25 -87.35 M-20.6 -196.0 L-18.7 -197.15 -14.7 -199.1 -9.25 -199.7 -8.65 -199.8 M-52.85 -154.8 Q-55.6 -152.45 -58.05 -151.35 -60.1 -150.5 -62.05 -150.5 L-66.35 -151.05 M-52.85 -154.8 Q-50.45 -156.9 -47.85 -159.95 -39.95 -169.3 -39.95 -175.9 -39.95 -176.75 -42.95 -184.95 M-57.35 -187.05 L-58.3 -190.55 M-67.7 -169.0 L-65.65 -167.4 M-70.0 -165.25 Q-70.4 -163.1 -68.65 -160.85 -66.9 -158.7 -64.5 -158.55 M-65.2 -161.8 Q-63.35 -159.7 -59.35 -159.7 M-54.05 -143.75 Q-54.2 -143.3 -52.6 -140.05 L-50.4 -136.15 M-29.1 -116.3 L-26.3 -119.95 Q-23.2 -123.95 -21.6 -125.25 L-20.35 -125.95 Q-19.15 -125.95 -18.15 -125.05 -17.2 -124.2 -17.2 -123.5 L-18.2 -118.2 -18.7 -115.8 -19.3 -112.3 Q-19.6 -108.6 -19.3 -101.1 -19.3 -87.95 -21.75 -82.3 -22.75 -79.9 -24.95 -77.0 L-25.8 -76.0 M-50.85 -141.55 Q-49.7 -141.15 -49.15 -140.75 -41.95 -135.95 -37.4 -128.1 -33.25 -120.75 -32.05 -112.05 L-29.1 -116.3 M-50.85 -141.55 L-51.9 -141.85 M-64.95 -111.6 Q-64.6 -110.9 -63.35 -109.75 -62.2 -108.75 -61.45 -108.4 M-59.35 -140.05 Q-63.9 -134.55 -66.25 -130.1 M-65.65 -107.9 Q-64.25 -104.4 -59.8 -102.85 M-37.4 -102.4 L-32.05 -112.05 M-36.7 -76.0 Q-35.5 -76.55 -33.95 -77.7 -31.8 -79.45 -30.5 -81.5 M-26.3 -85.95 Q-26.2 -84.5 -26.9 -83.15 -27.5 -81.9 -29.05 -80.15 M-29.75 -88.95 L-32.1 -85.5 M-40.55 -95.8 L-37.4 -102.4" fill="none" stroke="#000000" stroke-linecap="round" stroke-linejoin="round" stroke-opacity="0.6627451" stroke-width="1.0"/>
    </g>
    <g id="sprite0" transform="matrix(1.0, 0.0, 0.0, 1.0, 79.0, 82.0)">
      <use height="164.0" transform="matrix(1.0, 0.0, 0.0, 1.0, -79.0, -82.0)" width="158.05" xlink:href="#shape1"/>
    </g>
    <g id="shape1" transform="matrix(1.0, 0.0, 0.0, 1.0, 79.0, 82.0)">
      <path d="M58.0 -21.55 Q60.75 -16.8 62.2 -13.0 L62.45 -12.25 62.55 -11.95 62.65 -11.6 62.8 -11.75 Q71.35 -5.5 75.1 1.95 79.05 9.85 79.05 22.4 79.05 29.0 76.15 38.65 74.65 43.7 71.25 52.5 L68.15 58.75 Q65.95 62.75 65.35 65.4 L63.1 72.25 62.35 73.6 Q60.8 75.75 58.35 75.75 54.8 75.75 52.65 73.9 50.55 72.15 50.2 69.0 50.0 66.8 48.7 63.35 L47.4 59.75 47.05 58.65 46.8 57.85 45.95 55.1 45.9 54.95 45.85 55.0 43.85 57.0 40.3 60.35 Q36.05 64.15 31.25 67.75 27.15 70.85 22.4 73.05 16.5 75.75 12.5 75.5 10.4 75.4 6.4 77.1 4.8 77.7 2.95 78.65 -3.95 82.0 -7.1 82.0 -12.9 82.0 -20.05 74.5 L-22.75 71.35 -27.0 65.9 -27.5 65.25 Q-29.9 68.15 -33.4 71.55 L-33.0 72.0 Q-32.7 75.8 -35.4 77.8 -37.8 79.5 -42.05 79.5 -46.5 79.5 -47.8 77.35 -49.0 73.55 -50.3 70.25 L-53.3 62.65 Q-55.5 57.65 -57.55 55.75 -64.55 49.35 -69.25 42.3 -75.3 33.35 -75.3 26.4 -75.3 16.55 -72.9 10.3 L-71.25 6.8 -72.05 4.1 Q-73.05 0.0 -73.05 -2.9 -73.05 -6.2 -72.05 -12.1 L-71.3 -15.85 -66.65 -15.25 Q-64.6 -15.25 -62.4 -16.2 -59.7 -17.35 -56.75 -19.9 -54.15 -22.15 -51.3 -25.5 -42.8 -35.6 -42.8 -42.75 -42.8 -43.65 -46.05 -52.5 L-42.85 -53.85 -37.65 -56.1 Q-27.6 -60.35 -24.5 -62.75 L-21.9 -64.5 Q-21.6 -69.35 -21.15 -71.8 -20.35 -76.9 -17.75 -78.75 -15.3 -80.55 -7.4 -81.4 L0.3 -81.95 2.9 -82.0 Q8.6 -82.0 10.2 -81.05 11.65 -80.2 15.25 -75.0 15.5 -74.65 17.7 -73.4 19.4 -72.45 19.75 -70.5 L20.05 -69.35 21.0 -69.2 Q26.9 -67.5 28.0 -62.5 28.55 -60.0 30.8 -58.65 32.05 -57.9 35.55 -56.9 L36.2 -56.7 Q42.55 -54.65 44.0 -50.25 47.05 -41.15 51.2 -33.3 L57.8 -21.9 58.0 -21.55 M9.1 -46.2 L9.1 -46.25 8.75 -46.1 8.85 -46.1 9.1 -46.2" fill="url(#gradient0)" fill-rule="evenodd" stroke="none"/>
      <path d="M36.2 -56.7 Q36.3 -58.35 38.15 -60.5 L39.45 -62.0 40.7 -63.35 41.1 -63.4 40.4 -68.85 40.25 -70.0 40.0 -72.65 Q40.0 -76.1 42.5 -77.25 L42.75 -77.35 Q44.3 -78.0 47.4 -78.0 52.1 -78.0 55.1 -70.6 L57.35 -64.15 Q58.7 -60.15 59.75 -58.25 60.45 -57.0 63.1 -54.4 L66.75 -50.75 Q69.75 -47.0 69.75 -39.65 69.75 -36.65 68.85 -33.85 67.8 -30.6 65.45 -27.6 62.3 -23.55 58.0 -21.55 L57.8 -21.9 51.2 -33.3 Q47.05 -41.15 44.0 -50.25 42.55 -54.65 36.2 -56.7" fill="url(#gradient1)" fill-rule="evenodd" stroke="none"/>
      <path d="M-71.3 -15.85 Q-73.9 -16.65 -75.3 -18.5 -77.55 -21.45 -78.7 -27.65 -79.85 -33.9 -76.45 -42.8 -73.1 -51.7 -62.65 -58.55 -65.55 -65.5 -65.55 -68.0 -65.55 -69.85 -61.8 -71.5 L-58.5 -72.65 -55.9 -73.0 Q-53.25 -73.0 -50.7 -66.3 -49.4 -62.85 -48.3 -58.5 L-46.05 -52.5 Q-42.8 -43.65 -42.8 -42.75 -42.8 -35.6 -51.3 -25.5 -54.15 -22.15 -56.75 -19.9 -59.7 -17.35 -62.4 -16.2 -64.6 -15.25 -66.65 -15.25 L-71.3 -15.85" fill="url(#gradient2)" fill-rule="evenodd" stroke="none"/>
    </g>
    <linearGradient gradientTransform="matrix(-0.0942, 0.0, 0.0, -0.1001, 1.85, 0.0)" gradientUnits="userSpaceOnUse" id="gradient0" spreadMethod="pad" x1="-819.2" x2="819.2">
      <stop offset="0.0" stop-color="#000000"/>
      <stop offset="1.0" stop-color="#ffffff"/>
    </linearGradient>
    <linearGradient gradientTransform="matrix(-0.0205, 0.0, 0.0, -0.0345, 52.95, -49.7)" gradientUnits="userSpaceOnUse" id="gradient1" spreadMethod="pad" x1="-819.2" x2="819.2">
      <stop offset="0.0" stop-color="#000000"/>
      <stop offset="1.0" stop-color="#ffffff"/>
    </linearGradient>
    <linearGradient gradientTransform="matrix(-0.037, 0.0, 0.0, -0.0352, -44.0, -41.6)" gradientUnits="userSpaceOnUse" id="gradient2" spreadMethod="pad" x1="-819.2" x2="819.2">
      <stop offset="0.0" stop-color="#000000"/>
      <stop offset="1.0" stop-color="#ffffff"/>
    </linearGradient>
  </defs>
</svg>
