<?xml version="1.0" encoding="UTF-8" standalone="no"?>
<svg xmlns:xlink="http://www.w3.org/1999/xlink" height="531.5px" width="460.6px" xmlns="http://www.w3.org/2000/svg">
  <g transform="matrix(1.0, 0.0, 0.0, 1.0, 193.65, 334.05)">
    <use height="39.8" transform="matrix(2.0067, 0.0, 0.0, 2.0067, -76.7034, -191.5534)" width="70.7" xlink:href="#sprite0"/>
  </g>
  <defs>
    <g id="sprite0" transform="matrix(1.0, 0.0, 0.0, 1.0, 0.5, 0.5)">
      <use height="39.8" transform="matrix(1.0, 0.0, 0.0, 1.0, -0.5, -0.5)" width="70.7" xlink:href="#shape0"/>
      <use height="38.55" transform="matrix(1.0, 0.0, 0.0, 1.0, 0.0, 0.25)" width="69.5" xlink:href="#sprite1"/>
    </g>
    <g id="shape0" transform="matrix(1.0, 0.0, 0.0, 1.0, 0.5, 0.5)">
      <path d="M69.35 5.2 L69.5 2.95 69.6 4.5 Q70.1 11.65 67.8 16.55 L66.85 16.05 67.4 13.3 67.55 12.95 Q68.95 9.65 69.35 5.2 M2.6 0.3 L2.45 1.9 Q2.15 8.4 7.35 13.5 L3.4 14.1 5.75 15.15 4.5 16.5 6.85 16.5 5.5 17.95 4.2 19.35 Q2.55 18.25 1.5 16.1 -1.8 8.9 2.15 1.05 L2.55 0.25 2.6 0.3" fill="#432512" fill-rule="evenodd" stroke="none"/>
      <path d="M61.3 12.7 L60.7 11.9 Q63.9 11.25 65.85 8.05 L69.35 1.95 69.5 2.95 69.35 5.2 Q68.55 7.2 67.15 9.0 64.6 12.3 61.3 12.7 M16.55 13.15 Q11.65 12.2 8.05 9.35 4.3 6.45 2.45 1.9 L2.6 0.3 2.85 0.3 Q7.65 8.45 15.85 12.0 16.45 12.45 16.55 13.15" fill="#a2592b" fill-rule="evenodd" stroke="none"/>
      <path d="M61.3 12.7 Q64.6 12.3 67.15 9.0 68.55 7.2 69.35 5.2 68.95 9.65 67.55 12.95 L67.4 13.3 Q66.1 16.1 64.05 18.0 63.35 15.55 61.3 12.7 M2.45 1.9 Q4.3 6.45 8.05 9.35 11.65 12.2 16.55 13.15 16.65 13.95 16.05 15.2 14.9 17.35 13.1 17.75 9.7 15.75 7.35 13.5 2.15 8.4 2.45 1.9" fill="#794320" fill-rule="evenodd" stroke="none"/>
      <path d="M67.8 16.55 L69.3 17.3 67.25 17.95 68.45 20.1 65.9 19.65 67.95 22.75 66.25 24.7 66.15 24.85 66.45 25.35 66.15 25.75 Q65.85 26.15 65.85 26.45 L65.95 27.05 66.45 27.55 66.45 28.55 65.85 28.55 Q65.85 29.35 66.25 30.15 L66.25 30.35 65.65 29.15 65.05 29.15 64.85 31.55 Q64.55 31.25 64.0 31.2 L64.6 28.25 63.35 27.05 64.95 23.25 64.8 20.9 64.35 21.3 Q64.55 19.75 64.05 18.0 66.1 16.1 67.4 13.3 L66.85 16.05 67.8 16.55 M64.8 20.9 L65.0 20.7 65.9 19.65 65.0 20.7 64.8 20.9 M7.35 13.5 Q9.7 15.75 13.1 17.75 L11.15 18.35 13.6 20.8 12.0 22.3 14.2 23.15 12.0 24.45 17.75 27.6 14.55 29.95 15.6 32.8 Q14.4 32.05 13.85 31.95 L13.95 33.45 Q13.9 34.65 13.45 35.15 L12.25 33.35 11.45 34.55 11.15 33.45 10.85 32.15 Q9.9 32.5 8.85 33.55 L8.85 33.35 Q9.05 33.15 9.05 31.95 L8.65 31.95 8.65 30.75 9.1 29.15 Q9.35 28.25 9.65 27.95 L9.65 26.75 9.05 27.1 8.25 27.75 8.25 25.95 9.45 21.95 8.55 21.65 8.95 20.95 8.2 21.25 8.05 20.75 6.65 20.75 6.95 19.35 7.25 17.95 5.5 17.95 6.85 16.5 4.5 16.5 5.75 15.15 3.4 14.1 7.35 13.5 M9.15 20.35 Q9.55 19.1 11.15 18.35 9.55 19.1 9.15 20.35" fill="#512d15" fill-rule="evenodd" stroke="none"/>
      <path d="M66.25 24.7 L68.6 27.3 67.05 27.7 68.35 30.85 66.75 32.05 66.85 34.75 65.35 32.8 63.0 35.9 64.0 31.2 Q64.55 31.25 64.85 31.55 L65.05 29.15 65.65 29.15 66.25 30.35 66.25 30.15 Q65.85 29.35 65.85 28.55 L66.45 28.55 66.45 27.55 65.95 27.05 65.85 26.45 Q65.85 26.15 66.15 25.75 L66.45 25.35 66.15 24.85 66.25 24.7 M5.5 17.95 L7.25 17.95 6.95 19.35 6.65 20.75 8.05 20.75 8.2 21.25 5.4 22.25 5.8 20.1 5.9 19.6 4.65 19.6 3.9 19.6 4.2 19.35 5.5 17.95 M8.55 21.65 L9.45 21.95 8.25 25.95 8.25 27.75 9.05 27.1 9.65 26.75 9.65 27.95 Q9.35 28.25 9.1 29.15 L8.65 30.75 8.65 31.95 9.05 31.95 Q9.05 33.15 8.85 33.35 L8.85 33.55 Q9.9 32.5 10.85 32.15 L11.15 33.45 11.45 34.55 12.25 33.35 13.45 35.15 Q13.9 34.65 13.95 33.45 L13.85 31.95 Q14.4 32.05 15.6 32.8 L17.55 38.35 14.3 36.45 12.75 38.8 12.65 35.4 10.55 36.8 10.0 34.8 8.3 35.35 8.0 33.9 6.1 34.95 Q5.65 33.2 7.65 28.95 L5.7 30.2 7.55 25.7 5.6 26.45 8.55 21.65" fill="#73401e" fill-rule="evenodd" stroke="none"/>
      <path d="M69.5 2.95 L69.35 1.95 65.85 8.05 Q63.9 11.25 60.7 11.9 L61.3 12.7 Q63.35 15.55 64.05 18.0 66.1 16.1 67.4 13.3 L66.85 16.05 67.8 16.55 69.3 17.3 67.25 17.95 68.45 20.1 65.9 19.65 67.95 22.75 66.25 24.7 68.6 27.3 67.05 27.7 68.35 30.85 66.75 32.05 66.85 34.75 65.35 32.8 63.0 35.9 64.0 31.2 64.6 28.25 63.35 27.05 64.95 23.25 64.8 20.9 64.35 21.3 Q64.55 19.75 64.05 18.0 M69.35 5.2 L69.5 2.95 69.6 4.5 Q70.1 11.65 67.8 16.55 M67.4 13.3 L67.55 12.95 Q68.95 9.65 69.35 5.2 M65.9 19.65 L65.0 20.7 64.8 20.9 M16.55 13.15 Q16.45 12.45 15.85 12.0 7.65 8.45 2.85 0.3 L2.65 0.0 2.55 0.25 2.15 1.05 Q-1.8 8.9 1.5 16.1 2.55 18.25 4.2 19.35 L5.5 17.95 6.85 16.5 4.5 16.5 5.75 15.15 3.4 14.1 7.35 13.5 Q9.7 15.75 13.1 17.75 14.9 17.35 16.05 15.2 16.65 13.95 16.55 13.15 M2.6 0.3 L2.45 1.9 Q2.15 8.4 7.35 13.5 M2.6 0.3 L2.65 0.0 M8.2 21.25 L8.95 20.95 8.55 21.65 5.6 26.45 7.55 25.7 5.7 30.2 7.65 28.95 Q5.65 33.2 6.1 34.95 L8.0 33.9 8.3 35.35 10.0 34.8 10.55 36.8 12.65 35.4 12.75 38.8 14.3 36.45 17.55 38.35 15.6 32.8 14.55 29.95 17.75 27.6 12.0 24.45 14.2 23.15 12.0 22.3 13.6 20.8 11.15 18.35 Q9.55 19.1 9.15 20.35 M4.65 19.6 L3.9 19.6 4.2 19.35 M4.65 19.6 L5.9 19.6 5.8 20.1 5.4 22.25 8.2 21.25 M5.8 20.1 L4.65 19.6 M13.1 17.75 L11.15 18.35" fill="none" stroke="#000000" stroke-linecap="round" stroke-linejoin="round" stroke-opacity="0.6627451" stroke-width="1.0"/>
    </g>
    <g id="sprite1" transform="matrix(1.0, 0.0, 0.0, 1.0, 0.0, -0.25)">
      <use height="38.55" transform="matrix(1.0, 0.0, 0.0, 1.0, 0.0, 0.25)" width="69.5" xlink:href="#shape1"/>
    </g>
    <g id="shape1" transform="matrix(1.0, 0.0, 0.0, 1.0, 0.0, -0.25)">
      <path d="M4.2 19.35 Q2.55 18.25 1.5 16.1 -1.8 8.9 2.15 1.05 L2.55 0.25 2.6 0.3 2.45 1.9 Q2.15 8.4 7.35 13.5 L3.4 14.1 5.75 15.15 4.5 16.5 6.85 16.5 4.2 19.35" fill="url(#gradient0)" fill-rule="evenodd" stroke="none"/>
      <path d="M7.35 13.5 Q2.15 8.4 2.45 1.9 L2.6 0.3 2.85 0.3 Q7.65 8.45 15.85 12.0 16.45 12.45 16.55 13.15 16.65 13.95 16.05 15.2 14.9 17.35 13.1 17.75 9.7 15.75 7.35 13.5" fill="url(#gradient1)" fill-rule="evenodd" stroke="none"/>
      <path d="M67.2 13.3 L67.35 12.95 Q68.75 9.65 69.15 5.2 L69.3 2.95 69.4 4.5 Q69.9 11.65 67.6 16.55 L66.65 16.05 67.2 13.3" fill="url(#gradient2)" fill-rule="evenodd" stroke="none"/>
      <path d="M69.3 2.95 L69.15 5.2 Q68.75 9.65 67.35 12.95 L67.2 13.3 Q65.9 16.1 63.85 18.0 63.15 15.55 61.1 12.7 L60.5 11.9 Q63.7 11.25 65.65 8.05 L69.15 1.95 69.3 2.95" fill="url(#gradient3)" fill-rule="evenodd" stroke="none"/>
      <path d="M66.05 24.7 L66.1 24.75 65.95 24.85 66.05 24.7" fill="url(#gradient4)" fill-rule="evenodd" stroke="none"/>
      <path d="M4.2 19.35 L6.85 16.5 4.5 16.5 5.75 15.15 3.4 14.1 7.35 13.5 Q9.7 15.75 13.1 17.75 L11.15 18.35 13.6 20.8 12.0 22.3 14.2 23.15 12.0 24.45 17.75 27.6 14.55 29.95 17.55 38.35 14.3 36.45 12.75 38.8 12.65 35.4 10.55 36.8 10.0 34.8 8.3 35.35 8.0 33.9 6.1 34.95 Q5.65 33.2 7.65 28.95 L5.7 30.2 7.55 25.7 5.6 26.45 8.95 20.95 5.4 22.25 5.9 19.6 3.9 19.6 4.2 19.35" fill="url(#gradient5)" fill-rule="evenodd" stroke="none"/>
      <path d="M63.85 18.0 Q65.9 16.1 67.2 13.3 L66.65 16.05 67.6 16.55 69.1 17.3 67.05 17.95 68.25 20.1 65.7 19.65 67.75 22.75 66.05 24.7 65.95 24.85 66.1 24.75 68.4 27.3 66.85 27.7 68.15 30.85 66.55 32.05 66.65 34.75 65.15 32.8 62.8 35.9 64.4 28.25 63.15 27.05 64.75 23.25 64.6 20.9 64.15 21.3 Q64.35 19.75 63.85 18.0" fill="url(#gradient6)" fill-rule="evenodd" stroke="none"/>
    </g>
    <linearGradient gradientTransform="matrix(-0.011, -0.003, 0.0031, -0.0112, -0.6, 9.15)" gradientUnits="userSpaceOnUse" id="gradient0" spreadMethod="pad" x1="-819.2" x2="819.2">
      <stop offset="0.0" stop-color="#000000"/>
      <stop offset="1.0" stop-color="#ffffff"/>
    </linearGradient>
    <linearGradient gradientTransform="matrix(0.0047, -0.0081, 0.0092, 0.0053, 9.1, 11.4)" gradientUnits="userSpaceOnUse" id="gradient1" spreadMethod="pad" x1="-819.2" x2="819.2">
      <stop offset="0.0" stop-color="#000000"/>
      <stop offset="1.0" stop-color="#ffffff"/>
    </linearGradient>
    <linearGradient gradientTransform="matrix(0.0078, 0.0, 0.0, 0.0083, 71.6, 9.2)" gradientUnits="userSpaceOnUse" id="gradient2" spreadMethod="pad" x1="-819.2" x2="819.2">
      <stop offset="0.0" stop-color="#000000"/>
      <stop offset="1.0" stop-color="#ffffff"/>
    </linearGradient>
    <linearGradient gradientTransform="matrix(-0.0039, -0.0067, 0.0085, -0.0049, 64.95, 10.9)" gradientUnits="userSpaceOnUse" id="gradient3" spreadMethod="pad" x1="-819.2" x2="819.2">
      <stop offset="0.0" stop-color="#000000"/>
      <stop offset="1.0" stop-color="#ffffff"/>
    </linearGradient>
    <linearGradient gradientTransform="matrix(1.0E-4, 0.0, 0.0, 1.0E-4, 66.0, 24.75)" gradientUnits="userSpaceOnUse" id="gradient4" spreadMethod="pad" x1="-819.2" x2="819.2">
      <stop offset="0.0" stop-color="#000000"/>
      <stop offset="1.0" stop-color="#ffffff"/>
    </linearGradient>
    <linearGradient gradientTransform="matrix(-0.0172, 0.0296, -0.0133, -0.0077, 10.65, 26.2)" gradientUnits="userSpaceOnUse" id="gradient5" spreadMethod="pad" x1="-819.2" x2="819.2">
      <stop offset="0.0" stop-color="#000000"/>
      <stop offset="1.0" stop-color="#ffffff"/>
    </linearGradient>
    <linearGradient gradientTransform="matrix(0.0174, 0.0302, -0.0119, 0.0069, 66.0, 24.6)" gradientUnits="userSpaceOnUse" id="gradient6" spreadMethod="pad" x1="-819.2" x2="819.2">
      <stop offset="0.0" stop-color="#000000"/>
      <stop offset="1.0" stop-color="#ffffff"/>
    </linearGradient>
  </defs>
</svg>
