<?xml version="1.0" encoding="UTF-8" standalone="no"?>
<svg xmlns:xlink="http://www.w3.org/1999/xlink" height="531.5px" width="460.6px" xmlns="http://www.w3.org/2000/svg">
  <g transform="matrix(1.0, 0.0, 0.0, 1.0, 193.65, 334.05)">
    <use height="40.8" transform="matrix(1.0, 0.0, 0.0, 1.0, 16.5, -52.35)" width="40.8" xlink:href="#sprite0"/>
  </g>
  <defs>
    <g id="sprite0" transform="matrix(1.0, 0.0, 0.0, 1.0, 20.4, 20.4)">
      <use height="40.8" transform="matrix(1.0, 0.0, 0.0, 1.0, -20.4, -20.4)" width="40.8" xlink:href="#shape0"/>
      <use height="39.8" transform="matrix(1.0, 0.0, 0.0, 1.0, -19.9, -19.9)" width="39.8" xlink:href="#sprite1"/>
    </g>
    <g id="shape0" transform="matrix(1.0, 0.0, 0.0, 1.0, 20.4, 20.4)">
      <path d="M7.4 -14.85 L9.4 -15.4 Q12.3 -15.8 14.05 -14.05 15.75 -12.35 15.35 -9.45 L14.8 -7.4 12.55 -7.85 12.0 -7.9 9.65 -7.55 8.65 -8.65 7.55 -9.6 Q7.9 -10.75 7.9 -12.0 L7.9 -12.45 7.4 -14.85 M-14.8 -7.4 L-15.4 -9.5 Q-15.8 -12.4 -14.05 -14.15 -12.35 -15.85 -9.45 -15.45 L-7.35 -14.9 Q-7.8 -13.75 -7.9 -12.4 L-7.9 -12.0 Q-7.9 -10.75 -7.55 -9.6 L-8.65 -8.65 -9.6 -7.55 -12.0 -7.9 -12.4 -7.9 -14.8 -7.4" fill="#9966cc" fill-rule="evenodd" stroke="none"/>
      <path d="M-7.35 -14.9 Q-6.8 -16.35 -5.6 -17.6 -3.25 -19.9 0.0 -19.9 3.25 -19.9 5.55 -17.6 6.8 -16.35 7.4 -14.85 L7.9 -12.45 7.9 -12.0 Q7.9 -10.75 7.55 -9.6 7.0 -7.85 5.55 -6.45 L5.1 -6.0 Q3.55 -7.4 1.6 -7.75 L0.0 -7.9 -1.6 -7.75 Q-3.55 -7.35 -5.15 -6.0 L-5.6 -6.45 Q-7.0 -7.85 -7.55 -9.6 -7.9 -10.75 -7.9 -12.0 L-7.9 -12.4 Q-7.8 -13.75 -7.35 -14.9 M14.8 -7.4 Q16.35 -6.85 17.6 -5.6 19.9 -3.25 19.9 0.0 19.9 3.25 17.6 5.55 16.3 6.85 14.8 7.4 L12.55 7.9 12.0 7.9 9.65 7.55 Q7.85 7.0 6.45 5.55 L6.0 5.1 Q7.35 3.55 7.75 1.6 L7.9 0.0 7.75 -1.6 Q7.35 -3.55 6.0 -5.1 L6.45 -5.6 Q7.85 -7.0 9.65 -7.55 L12.0 -7.9 12.55 -7.85 14.8 -7.4 M7.4 14.85 Q6.85 16.35 5.6 17.6 3.25 19.9 0.0 19.9 -3.25 19.9 -5.55 17.6 -6.85 16.3 -7.4 14.8 L-7.85 12.55 -7.9 12.0 Q-7.9 10.75 -7.55 9.65 -7.0 7.85 -5.55 6.45 L-5.1 6.05 Q-3.55 7.35 -1.6 7.75 L0.0 7.9 1.55 7.75 Q3.5 7.4 5.1 6.0 L5.6 6.45 Q7.0 7.85 7.55 9.65 7.9 10.75 7.9 12.0 L7.9 12.55 7.4 14.85 M-14.85 7.4 Q-16.35 6.85 -17.6 5.6 -19.9 3.25 -19.9 0.0 -19.9 -3.25 -17.6 -5.55 -16.35 -6.8 -14.8 -7.4 L-12.4 -7.9 -12.0 -7.9 -9.6 -7.55 Q-7.85 -7.0 -6.45 -5.55 L-6.05 -5.1 Q-7.35 -3.6 -7.7 -1.65 L-7.9 0.0 -7.75 1.55 Q-7.4 3.55 -6.0 5.15 L-6.45 5.6 Q-7.85 7.0 -9.6 7.55 L-12.0 7.9 -12.45 7.9 -14.85 7.4" fill="#ffffff" fill-rule="evenodd" stroke="none"/>
      <path d="M14.8 7.4 L15.3 9.4 Q15.7 12.3 13.95 14.05 12.25 15.75 9.35 15.35 L7.4 14.85 7.9 12.55 7.9 12.0 Q7.9 10.75 7.55 9.65 7.0 7.85 5.6 6.45 L5.1 6.0 5.55 5.55 6.0 5.1 6.45 5.55 Q7.85 7.0 9.65 7.55 L12.0 7.9 12.55 7.9 14.8 7.4 M-7.4 14.8 L-9.4 15.3 Q-12.3 15.7 -14.05 13.95 -15.75 12.25 -15.35 9.35 L-14.85 7.4 -12.45 7.9 -12.0 7.9 -9.6 7.55 Q-7.85 7.0 -6.45 5.6 L-6.0 5.15 -5.6 5.55 -5.1 6.05 -5.55 6.45 Q-7.0 7.85 -7.55 9.65 -7.9 10.75 -7.9 12.0 L-7.85 12.55 -7.4 14.8 M-7.55 -9.6 Q-7.0 -7.85 -5.6 -6.45 L-5.15 -6.0 -5.6 -5.6 -6.05 -5.1 -6.45 -5.55 Q-7.85 -7.0 -9.6 -7.55 L-8.65 -8.65 -7.55 -9.6 M5.1 -6.0 L5.55 -6.45 Q7.0 -7.85 7.55 -9.6 L8.65 -8.65 9.65 -7.55 Q7.85 -7.0 6.45 -5.6 L6.0 -5.1 5.55 -5.6 5.1 -6.0" fill="#7241a3" fill-rule="evenodd" stroke="none"/>
      <path d="M-5.15 -6.0 Q-3.55 -7.35 -1.6 -7.75 L0.0 -7.9 1.6 -7.75 Q3.55 -7.4 5.1 -6.0 L5.55 -5.6 6.0 -5.1 Q7.35 -3.55 7.75 -1.6 L7.9 0.0 7.75 1.6 Q7.35 3.55 6.0 5.1 L5.55 5.55 5.1 6.0 Q3.5 7.4 1.55 7.75 L0.0 7.9 -1.6 7.75 Q-3.55 7.35 -5.1 6.05 L-5.6 5.55 -6.0 5.15 Q-7.4 3.55 -7.75 1.55 L-7.9 0.0 -7.7 -1.65 Q-7.35 -3.6 -6.05 -5.1 L-5.6 -5.6 -5.15 -6.0" fill="#ffcc00" fill-rule="evenodd" stroke="none"/>
      <path d="M-7.35 -14.9 Q-6.8 -16.35 -5.6 -17.6 -3.25 -19.9 0.0 -19.9 3.25 -19.9 5.55 -17.6 6.8 -16.35 7.4 -14.85 L9.4 -15.4 Q12.3 -15.8 14.05 -14.05 15.75 -12.35 15.35 -9.45 L14.8 -7.4 Q16.35 -6.85 17.6 -5.6 19.9 -3.25 19.9 0.0 19.9 3.25 17.6 5.55 16.3 6.85 14.8 7.4 L15.3 9.4 Q15.7 12.3 13.95 14.05 12.25 15.75 9.35 15.35 L7.4 14.85 Q6.85 16.35 5.6 17.6 3.25 19.9 0.0 19.9 -3.25 19.9 -5.55 17.6 -6.85 16.3 -7.4 14.8 L-9.4 15.3 Q-12.3 15.7 -14.05 13.95 -15.75 12.25 -15.35 9.35 L-14.85 7.4 Q-16.35 6.85 -17.6 5.6 -19.9 3.25 -19.9 0.0 -19.9 -3.25 -17.6 -5.55 -16.35 -6.8 -14.8 -7.4 L-15.4 -9.5 Q-15.8 -12.4 -14.05 -14.15 -12.35 -15.85 -9.45 -15.45 L-7.35 -14.9 Q-7.8 -13.75 -7.9 -12.4 L-7.9 -12.0 Q-7.9 -10.75 -7.55 -9.6 -7.0 -7.85 -5.6 -6.45 L-5.15 -6.0 Q-3.55 -7.35 -1.6 -7.75 L0.0 -7.9 1.6 -7.75 Q3.55 -7.4 5.1 -6.0 L5.55 -6.45 Q7.0 -7.85 7.55 -9.6 7.9 -10.75 7.9 -12.0 L7.9 -12.45 7.4 -14.85 M9.65 -7.55 L12.0 -7.9 12.55 -7.85 14.8 -7.4 M6.0 -5.1 Q7.35 -3.55 7.75 -1.6 L7.9 0.0 7.75 1.6 Q7.35 3.55 6.0 5.1 L6.45 5.55 Q7.85 7.0 9.65 7.55 L12.0 7.9 12.55 7.9 14.8 7.4 M5.1 -6.0 L5.55 -5.6 6.0 -5.1 6.45 -5.6 Q7.85 -7.0 9.65 -7.55 M6.0 5.1 L5.55 5.55 5.1 6.0 5.6 6.45 Q7.0 7.85 7.55 9.65 7.9 10.75 7.9 12.0 L7.9 12.55 7.4 14.85 M5.1 6.0 Q3.5 7.4 1.55 7.75 L0.0 7.9 -1.6 7.75 Q-3.55 7.35 -5.1 6.05 L-5.55 6.45 Q-7.0 7.85 -7.55 9.65 -7.9 10.75 -7.9 12.0 L-7.85 12.55 -7.4 14.8 M-14.8 -7.4 L-12.4 -7.9 -12.0 -7.9 -9.6 -7.55 Q-7.85 -7.0 -6.45 -5.55 L-6.05 -5.1 -5.6 -5.6 -5.15 -6.0 M-6.0 5.15 Q-7.4 3.55 -7.75 1.55 L-7.9 0.0 -7.7 -1.65 Q-7.35 -3.6 -6.05 -5.1 M-5.1 6.05 L-5.6 5.55 -6.0 5.15 -6.45 5.6 Q-7.85 7.0 -9.6 7.55 L-12.0 7.9 -12.45 7.9 -14.85 7.4" fill="none" stroke="#000000" stroke-linecap="round" stroke-linejoin="round" stroke-opacity="0.6627451" stroke-width="1.0"/>
      <path d="M4.55 4.55 Q2.65 6.45 0.0 6.45 -2.7 6.45 -4.6 4.55 -6.45 2.65 -6.45 0.0 -6.45 -2.7 -4.6 -4.6 -2.7 -6.45 0.0 -6.45 2.65 -6.45 4.55 -4.6 6.45 -2.7 6.45 0.0 6.45 2.65 4.55 4.55" fill="#ff9e00" fill-rule="evenodd" stroke="none"/>
    </g>
    <g id="sprite1" transform="matrix(1.0, 0.0, 0.0, 1.0, 19.9, 19.9)">
      <use height="39.8" transform="matrix(1.0, 0.0, 0.0, 1.0, -19.9, -19.9)" width="39.8" xlink:href="#shape1"/>
    </g>
    <g id="shape1" transform="matrix(1.0, 0.0, 0.0, 1.0, 19.9, 19.9)">
      <path d="M-5.15 -6.0 Q-3.55 -7.35 -1.6 -7.75 L0.0 -7.9 1.6 -7.75 Q3.55 -7.4 5.1 -6.0 L5.55 -5.6 6.0 -5.1 Q7.35 -3.55 7.75 -1.6 L7.9 0.0 7.75 1.6 Q7.35 3.55 6.0 5.1 L5.55 5.55 5.1 6.0 Q3.5 7.4 1.55 7.75 L0.0 7.9 -1.6 7.75 Q-3.55 7.35 -5.1 6.05 L-5.6 5.55 -6.0 5.15 Q-7.4 3.55 -7.75 1.55 L-7.9 0.0 -7.7 -1.65 Q-7.35 -3.6 -6.05 -5.1 L-5.6 -5.6 -5.15 -6.0" fill="url(#gradient0)" fill-rule="evenodd" stroke="none"/>
      <path d="M6.0 -5.1 L6.45 -5.6 Q7.85 -7.0 9.65 -7.55 L12.0 -7.9 12.55 -7.85 14.8 -7.4 Q16.35 -6.85 17.6 -5.6 19.9 -3.25 19.9 0.0 19.9 3.25 17.6 5.55 16.3 6.85 14.8 7.4 L12.55 7.9 12.0 7.9 9.65 7.55 Q7.85 7.0 6.45 5.55 L6.0 5.1 Q7.35 3.55 7.75 1.6 L7.9 0.0 7.75 -1.6 Q7.35 -3.55 6.0 -5.1" fill="url(#gradient1)" fill-rule="evenodd" stroke="none"/>
      <path d="M7.4 14.85 Q6.85 16.35 5.6 17.6 3.25 19.9 0.0 19.9 -3.25 19.9 -5.55 17.6 -6.85 16.3 -7.4 14.8 L-7.85 12.55 -7.9 12.0 Q-7.9 10.75 -7.55 9.65 -7.0 7.85 -5.55 6.45 L-5.1 6.05 Q-3.55 7.35 -1.6 7.75 L0.0 7.9 1.55 7.75 Q3.5 7.4 5.1 6.0 L5.6 6.45 Q7.0 7.85 7.55 9.65 7.9 10.75 7.9 12.0 L7.9 12.55 7.4 14.85" fill="url(#gradient2)" fill-rule="evenodd" stroke="none"/>
      <path d="M6.0 5.1 L6.45 5.55 Q7.85 7.0 9.65 7.55 L12.0 7.9 12.55 7.9 14.8 7.4 15.3 9.4 Q15.7 12.3 13.95 14.05 12.25 15.75 9.35 15.35 L7.4 14.85 7.9 12.55 7.9 12.0 Q7.9 10.75 7.55 9.65 7.0 7.85 5.6 6.45 L5.1 6.0 5.55 5.55 6.0 5.1" fill="url(#gradient3)" fill-rule="evenodd" stroke="none"/>
      <path d="M7.4 -14.85 L7.9 -12.45 7.9 -12.0 Q7.9 -10.75 7.55 -9.6 7.0 -7.85 5.55 -6.45 L5.1 -6.0 Q3.55 -7.4 1.6 -7.75 L0.0 -7.9 -1.6 -7.75 Q-3.55 -7.35 -5.15 -6.0 L-5.6 -6.45 Q-7.0 -7.85 -7.55 -9.6 -7.9 -10.75 -7.9 -12.0 L-7.9 -12.4 Q-7.8 -13.75 -7.35 -14.9 -6.8 -16.35 -5.6 -17.6 -3.25 -19.9 0.0 -19.9 3.25 -19.9 5.55 -17.6 6.8 -16.35 7.4 -14.85" fill="url(#gradient4)" fill-rule="evenodd" stroke="none"/>
      <path d="M-14.85 7.4 Q-16.35 6.85 -17.6 5.6 -19.9 3.25 -19.9 0.0 -19.9 -3.25 -17.6 -5.55 -16.35 -6.8 -14.8 -7.4 L-12.4 -7.9 -12.0 -7.9 -9.6 -7.55 Q-7.85 -7.0 -6.45 -5.55 L-6.05 -5.1 Q-7.35 -3.6 -7.7 -1.65 L-7.9 0.0 -7.75 1.55 Q-7.4 3.55 -6.0 5.15 L-6.45 5.6 Q-7.85 7.0 -9.6 7.55 L-12.0 7.9 -12.45 7.9 -14.85 7.4" fill="url(#gradient5)" fill-rule="evenodd" stroke="none"/>
      <path d="M-7.4 14.8 L-9.4 15.3 Q-12.3 15.7 -14.05 13.95 -15.75 12.25 -15.35 9.35 L-14.85 7.4 -12.45 7.9 -12.0 7.9 -9.6 7.55 Q-7.85 7.0 -6.45 5.6 L-6.0 5.15 -5.6 5.55 -5.1 6.05 -5.55 6.45 Q-7.0 7.85 -7.55 9.65 -7.9 10.75 -7.9 12.0 L-7.85 12.55 -7.4 14.8" fill="url(#gradient6)" fill-rule="evenodd" stroke="none"/>
      <path d="M-7.35 -14.9 Q-7.8 -13.75 -7.9 -12.4 L-7.9 -12.0 Q-7.9 -10.75 -7.55 -9.6 -7.0 -7.85 -5.6 -6.45 L-5.15 -6.0 -5.6 -5.6 -6.05 -5.1 -6.45 -5.55 Q-7.85 -7.0 -9.6 -7.55 L-12.0 -7.9 -12.4 -7.9 -14.8 -7.4 -15.4 -9.5 Q-15.8 -12.4 -14.05 -14.15 -12.35 -15.85 -9.45 -15.45 L-7.35 -14.9" fill="url(#gradient7)" fill-rule="evenodd" stroke="none"/>
      <path d="M5.1 -6.0 L5.55 -6.45 Q7.0 -7.85 7.55 -9.6 7.9 -10.75 7.9 -12.0 L7.9 -12.45 7.4 -14.85 9.4 -15.4 Q12.3 -15.8 14.05 -14.05 15.75 -12.35 15.35 -9.45 L14.8 -7.4 12.55 -7.85 12.0 -7.9 9.65 -7.55 Q7.85 -7.0 6.45 -5.6 L6.0 -5.1 5.55 -5.6 5.1 -6.0" fill="url(#gradient8)" fill-rule="evenodd" stroke="none"/>
    </g>
    <linearGradient gradientTransform="matrix(-0.002, -0.0076, 0.0076, -0.002, 0.0, 0.0)" gradientUnits="userSpaceOnUse" id="gradient0" spreadMethod="pad" x1="-819.2" x2="819.2">
      <stop offset="0.0" stop-color="#000000"/>
      <stop offset="1.0" stop-color="#ffffff"/>
    </linearGradient>
    <linearGradient gradientTransform="matrix(0.0118, 0.0, 0.0, 0.0096, 17.75, 0.4)" gradientUnits="userSpaceOnUse" id="gradient1" spreadMethod="pad" x1="-819.2" x2="819.2">
      <stop offset="0.0" stop-color="#000000"/>
      <stop offset="1.0" stop-color="#ffffff"/>
    </linearGradient>
    <linearGradient gradientTransform="matrix(0.0, 0.0096, -0.0085, 0.0, -0.1, 15.75)" gradientUnits="userSpaceOnUse" id="gradient2" spreadMethod="pad" x1="-819.2" x2="819.2">
      <stop offset="0.0" stop-color="#000000"/>
      <stop offset="1.0" stop-color="#ffffff"/>
    </linearGradient>
    <linearGradient gradientTransform="matrix(0.0044, 0.0044, -0.0045, 0.0045, 10.2, 10.25)" gradientUnits="userSpaceOnUse" id="gradient3" spreadMethod="pad" x1="-819.2" x2="819.2">
      <stop offset="0.0" stop-color="#000000"/>
      <stop offset="1.0" stop-color="#ffffff"/>
    </linearGradient>
    <linearGradient gradientTransform="matrix(0.0, -0.0096, 0.0085, 0.0, 0.0, -12.95)" gradientUnits="userSpaceOnUse" id="gradient4" spreadMethod="pad" x1="-819.2" x2="819.2">
      <stop offset="0.0" stop-color="#000000"/>
      <stop offset="1.0" stop-color="#ffffff"/>
    </linearGradient>
    <linearGradient gradientTransform="matrix(-0.0085, 0.0, 0.0, -0.0096, -12.95, 0.0)" gradientUnits="userSpaceOnUse" id="gradient5" spreadMethod="pad" x1="-819.2" x2="819.2">
      <stop offset="0.0" stop-color="#000000"/>
      <stop offset="1.0" stop-color="#ffffff"/>
    </linearGradient>
    <linearGradient gradientTransform="matrix(-0.0045, 0.0045, -0.0044, -0.0044, -10.3, 10.25)" gradientUnits="userSpaceOnUse" id="gradient6" spreadMethod="pad" x1="-819.2" x2="819.2">
      <stop offset="0.0" stop-color="#000000"/>
      <stop offset="1.0" stop-color="#ffffff"/>
    </linearGradient>
    <linearGradient gradientTransform="matrix(-0.0043, -0.0025, 0.0025, -0.0043, -12.25, -9.4)" gradientUnits="userSpaceOnUse" id="gradient7" spreadMethod="pad" x1="-819.2" x2="819.2">
      <stop offset="0.0" stop-color="#000000"/>
      <stop offset="1.0" stop-color="#ffffff"/>
    </linearGradient>
    <linearGradient gradientTransform="matrix(0.0025, -0.0043, 0.0043, 0.0025, 10.4, -10.85)" gradientUnits="userSpaceOnUse" id="gradient8" spreadMethod="pad" x1="-819.2" x2="819.2">
      <stop offset="0.0" stop-color="#000000"/>
      <stop offset="1.0" stop-color="#ffffff"/>
    </linearGradient>
  </defs>
</svg>
