<?xml version="1.0" encoding="UTF-8" standalone="no"?>
<svg xmlns:xlink="http://www.w3.org/1999/xlink" height="531.5px" width="460.6px" xmlns="http://www.w3.org/2000/svg">
  <g transform="matrix(1.0, 0.0, 0.0, 1.0, 193.65, 334.05)">
    <use height="29.25" transform="matrix(1.9412, 0.0, 0.0, 1.9412, -86.1817, -191.741)" width="87.3" xlink:href="#sprite0"/>
  </g>
  <defs>
    <g id="sprite0" transform="matrix(1.0, 0.0, 0.0, 1.0, 43.65, 14.6)">
      <use height="29.25" transform="matrix(1.0, 0.0, 0.0, 1.0, -43.65, -14.6)" width="87.3" xlink:href="#shape0"/>
      <use height="28.25" transform="matrix(1.0, 0.0, 0.0, 1.0, -43.15, -14.1)" width="86.3" xlink:href="#sprite1"/>
    </g>
    <g id="shape0" transform="matrix(1.0, 0.0, 0.0, 1.0, 43.65, 14.6)">
      <path d="M36.0 -11.6 L35.15 -10.6 34.85 -9.95 33.2 -13.9 Q34.7 -13.4 36.0 -11.6 M-32.75 -10.15 L-33.15 -10.8 Q-33.75 -11.6 -34.25 -11.8 -32.55 -13.6 -30.7 -14.1 L-32.75 -10.15" fill="#cc0000" fill-rule="evenodd" stroke="none"/>
      <path d="M35.05 -8.9 L36.35 -11.7 Q42.6 -6.9 43.1 1.25 42.55 6.7 40.85 10.35 40.45 7.1 39.0 4.85 L38.5 4.1 38.5 4.95 37.85 5.1 36.75 7.45 35.75 9.15 Q34.95 7.15 33.3 5.3 L33.25 5.2 33.25 5.3 32.85 5.45 32.2 6.3 Q31.85 6.75 31.35 6.95 30.5 4.45 29.15 3.8 L27.25 4.7 Q25.95 3.15 26.7 0.8 32.0 -3.15 35.05 -8.9 M33.75 -2.05 L33.25 -1.5 29.7 1.55 30.65 2.35 Q31.6 3.5 31.4 4.4 31.95 4.35 32.45 3.35 32.95 2.4 33.1 2.4 34.15 2.4 34.95 3.45 L35.85 4.5 Q36.25 4.5 36.55 3.1 L36.9 1.2 37.75 1.15 Q38.45 1.25 39.0 1.7 L41.2 3.4 Q41.1 1.65 40.0 -0.5 38.7 -2.95 37.3 -2.6 37.25 -3.05 37.85 -4.25 L38.5 -5.5 38.4 -5.5 36.9 -4.6 34.7 -2.85 33.75 -2.05 M29.25 1.9 L29.7 1.55 29.25 1.9 M30.1 3.35 L29.15 3.8 30.1 3.35 M-34.65 -11.9 L-33.0 -9.1 Q-29.15 -3.35 -22.5 0.6 -21.55 2.95 -23.2 4.5 L-25.55 3.6 Q-27.55 4.3 -28.55 7.45 L-29.6 6.25 -30.5 5.1 -30.7 5.15 -30.75 5.0 -30.9 5.15 Q-33.8 7.8 -34.55 10.7 L-34.6 10.6 -35.7 8.1 -37.4 4.2 -37.4 3.9 -37.45 4.0 Q-39.7 6.4 -40.3 9.95 L-40.4 9.7 Q-41.6 7.1 -41.6 5.8 L-42.15 2.35 -42.6 -2.05 Q-40.95 -8.05 -34.65 -11.9 M-31.4 -2.25 Q-32.1 -2.75 -34.35 -3.7 -37.3 -4.95 -38.1 -5.0 L-39.1 -5.0 -37.45 -4.1 Q-36.8 -3.8 -36.8 -3.2 L-38.55 -1.3 Q-40.3 0.9 -40.3 2.8 L-40.3 2.9 -38.75 1.25 Q-37.15 -0.2 -36.3 0.0 L-35.4 0.0 -35.5 3.1 -35.5 4.8 -35.1 4.1 -34.4 3.2 -33.5 2.45 -32.9 2.4 Q-32.4 2.4 -31.7 3.55 -31.1 4.6 -31.1 5.0 L-30.2 3.85 Q-29.4 2.8 -28.2 2.4 L-25.8 1.7 -25.9 1.6 -26.7 1.05 -31.15 -2.0 -31.4 -2.25 M-26.75 3.15 L-25.55 3.6 -26.75 3.15" fill="#380f52" fill-rule="evenodd" stroke="none"/>
      <path d="M43.1 1.25 Q43.4 6.9 41.0 14.15 41.1 12.1 40.85 10.35 42.55 6.7 43.1 1.25 M38.5 4.95 Q38.3 9.25 36.45 12.3 36.35 10.7 35.75 9.15 L36.75 7.45 37.85 5.1 38.5 4.95 M33.25 5.3 Q32.7 8.65 31.9 9.3 L31.35 6.95 Q31.85 6.75 32.2 6.3 L32.85 5.45 33.25 5.3 M29.7 1.55 L33.25 -1.5 33.75 -2.05 34.7 -2.85 36.9 -4.6 38.4 -5.5 38.5 -5.5 37.85 -4.25 Q37.25 -3.05 37.3 -2.6 38.7 -2.95 40.0 -0.5 41.1 1.65 41.2 3.4 L39.0 1.7 Q38.45 1.25 37.75 1.15 L36.9 1.2 36.55 3.1 Q36.25 4.5 35.85 4.5 L34.95 3.45 Q34.15 2.4 33.1 2.4 32.95 2.4 32.45 3.35 31.95 4.35 31.4 4.4 31.6 3.5 30.65 2.35 L29.7 1.55 M34.35 0.0 L32.8 0.4 34.35 0.0 M-26.7 1.05 L-25.9 1.6 -25.8 1.7 -28.2 2.4 Q-29.4 2.8 -30.2 3.85 L-31.1 5.0 Q-31.1 4.6 -31.7 3.55 -32.4 2.4 -32.9 2.4 L-33.5 2.45 -34.4 3.2 -35.1 4.1 -35.5 4.8 -35.5 3.1 -35.4 0.0 -36.3 0.0 Q-37.15 -0.2 -38.75 1.25 L-40.3 2.9 -40.3 2.8 Q-40.3 0.9 -38.55 -1.3 L-36.8 -3.2 Q-36.8 -3.8 -37.45 -4.1 L-39.1 -5.0 -38.1 -5.0 Q-37.3 -4.95 -34.35 -3.7 -32.1 -2.75 -31.4 -2.25 L-31.15 -2.0 -26.7 1.05 M-28.55 7.45 L-29.05 9.1 Q-30.0 8.45 -30.7 5.15 L-30.5 5.1 -29.6 6.25 -28.55 7.45 M-34.55 10.7 L-34.8 12.1 Q-37.3 8.85 -37.4 4.2 L-35.7 8.1 -34.6 10.6 -34.55 10.7 M-40.3 9.95 Q-40.6 11.8 -40.5 13.95 -44.4 4.6 -42.6 -2.05 L-42.15 2.35 -41.6 5.8 Q-41.6 7.1 -40.4 9.7 L-40.3 9.95 M-32.15 -0.2 L-30.2 0.2 -32.15 -0.2" fill="#220933" fill-rule="evenodd" stroke="none"/>
      <path d="M36.35 -11.7 L36.0 -11.6 35.15 -10.6 34.85 -9.95 Q34.7 -9.35 35.05 -8.9 L36.35 -11.7 Q42.6 -6.9 43.1 1.25 43.4 6.9 41.0 14.15 41.1 12.1 40.85 10.35 40.45 7.1 39.0 4.85 L38.5 4.1 38.5 4.95 Q38.3 9.25 36.45 12.3 36.35 10.7 35.75 9.15 34.95 7.15 33.3 5.3 L33.25 5.2 33.25 5.3 Q32.7 8.65 31.9 9.3 L31.35 6.95 Q30.5 4.45 29.15 3.8 L27.25 4.7 Q25.95 3.15 26.7 0.8 32.0 -3.15 35.05 -8.9 M29.7 1.55 L33.25 -1.5 33.75 -2.05 M29.7 1.55 L29.25 1.9 M32.8 0.4 L34.35 0.0 M29.15 3.8 L30.1 3.35 M-34.25 -11.8 Q-33.75 -11.6 -33.15 -10.8 L-32.75 -10.15 Q-32.55 -9.55 -33.0 -9.1 -29.15 -3.35 -22.5 0.6 -21.55 2.95 -23.2 4.5 L-25.55 3.6 Q-27.55 4.3 -28.55 7.45 L-29.05 9.1 Q-30.0 8.45 -30.7 5.15 L-30.75 5.0 -30.9 5.15 Q-33.8 7.8 -34.55 10.7 L-34.8 12.1 Q-37.3 8.85 -37.4 4.2 L-37.4 3.9 -37.45 4.0 Q-39.7 6.4 -40.3 9.95 -40.6 11.8 -40.5 13.95 -44.4 4.6 -42.6 -2.05 -40.95 -8.05 -34.65 -11.9 L-33.0 -9.1 M-34.25 -11.8 L-34.65 -11.9 M-26.7 1.05 L-31.15 -2.0 -31.4 -2.25 M-25.55 3.6 L-26.75 3.15 M-30.2 0.2 L-32.15 -0.2" fill="none" stroke="#000000" stroke-linecap="round" stroke-linejoin="round" stroke-opacity="0.6627451" stroke-width="1.0"/>
      <path d="M36.0 -11.6 Q34.7 -13.4 33.2 -13.9 L34.85 -9.95 M-32.75 -10.15 L-30.7 -14.1 Q-32.55 -13.6 -34.25 -11.8" fill="none" stroke="#651212" stroke-linecap="round" stroke-linejoin="round" stroke-opacity="0.6627451" stroke-width="1.0"/>
    </g>
    <g id="sprite1" transform="matrix(1.0, 0.0, 0.0, 1.0, 43.15, 14.1)">
      <use height="28.25" transform="matrix(1.0, 0.0, 0.0, 1.0, -43.15, -14.1)" width="86.3" xlink:href="#shape1"/>
    </g>
    <g id="shape1" transform="matrix(1.0, 0.0, 0.0, 1.0, 43.15, 14.1)">
      <path d="M-32.75 -10.15 L-33.15 -10.8 Q-33.75 -11.6 -34.25 -11.8 -32.55 -13.6 -30.7 -14.1 L-32.75 -10.15" fill="url(#gradient0)" fill-rule="evenodd" stroke="none"/>
      <path d="M-34.65 -11.9 L-33.0 -9.1 Q-29.15 -3.35 -22.5 0.6 -21.55 2.95 -23.2 4.5 L-25.55 3.6 Q-27.55 4.3 -28.55 7.45 L-29.05 9.1 Q-30.0 8.45 -30.7 5.15 L-30.75 5.0 -30.9 5.15 Q-33.8 7.8 -34.55 10.7 L-34.8 12.1 Q-37.3 8.85 -37.4 4.2 L-37.4 3.9 -37.45 4.0 Q-39.7 6.4 -40.3 9.95 -40.6 11.8 -40.5 13.95 -44.4 4.6 -42.6 -2.05 -40.95 -8.05 -34.65 -11.9" fill="url(#gradient1)" fill-rule="evenodd" stroke="none"/>
      <path d="M36.35 -11.7 Q42.6 -6.9 43.1 1.25 43.4 6.9 41.0 14.15 41.1 12.1 40.85 10.35 40.45 7.1 39.0 4.85 L38.5 4.1 38.5 4.95 Q38.3 9.25 36.45 12.3 36.35 10.7 35.75 9.15 34.95 7.15 33.3 5.3 L33.25 5.2 33.25 5.3 Q32.7 8.65 31.9 9.3 L31.35 6.95 Q30.5 4.45 29.15 3.8 L27.25 4.7 Q25.95 3.15 26.7 0.8 32.0 -3.15 35.05 -8.9 L36.35 -11.7" fill="url(#gradient2)" fill-rule="evenodd" stroke="none"/>
      <path d="M34.85 -9.95 L33.2 -13.9 Q34.7 -13.4 36.0 -11.6 L35.15 -10.6 34.85 -9.95" fill="url(#gradient3)" fill-rule="evenodd" stroke="none"/>
    </g>
    <linearGradient gradientTransform="matrix(0.0, -0.0077, 0.0024, 0.0, -32.55, -12.1)" gradientUnits="userSpaceOnUse" id="gradient0" spreadMethod="pad" x1="-819.2" x2="819.2">
      <stop offset="0.0" stop-color="#000000"/>
      <stop offset="1.0" stop-color="#ffffff"/>
    </linearGradient>
    <linearGradient gradientTransform="matrix(-0.0068, -0.0253, 0.0152, -0.0041, -32.65, 1.0)" gradientUnits="userSpaceOnUse" id="gradient1" spreadMethod="pad" x1="-819.2" x2="819.2">
      <stop offset="0.0" stop-color="#000000"/>
      <stop offset="1.0" stop-color="#ffffff"/>
    </linearGradient>
    <linearGradient gradientTransform="matrix(-0.0027, -0.02, 0.0156, -0.0021, 34.75, 1.25)" gradientUnits="userSpaceOnUse" id="gradient2" spreadMethod="pad" x1="-819.2" x2="819.2">
      <stop offset="0.0" stop-color="#000000"/>
      <stop offset="1.0" stop-color="#ffffff"/>
    </linearGradient>
    <linearGradient gradientTransform="matrix(-0.0018, -0.0065, 0.0023, -6.0E-4, 34.55, -11.9)" gradientUnits="userSpaceOnUse" id="gradient3" spreadMethod="pad" x1="-819.2" x2="819.2">
      <stop offset="0.0" stop-color="#000000"/>
      <stop offset="1.0" stop-color="#ffffff"/>
    </linearGradient>
  </defs>
</svg>
