<?xml version="1.0" encoding="UTF-8" standalone="no"?>
<svg xmlns:xlink="http://www.w3.org/1999/xlink" height="531.5px" width="460.6px" xmlns="http://www.w3.org/2000/svg">
  <g transform="matrix(1.0, 0.0, 0.0, 1.0, 193.65, 334.05)">
    <use height="156.8" transform="matrix(0.4557, 0.0, 0.0, 0.4557, 6.9221, -89.8779)" width="76.1" xlink:href="#sprite0"/>
  </g>
  <defs>
    <g id="sprite0" transform="matrix(1.0, 0.0, 0.0, 1.0, 0.5, 0.5)">
      <use height="156.8" transform="matrix(1.0, 0.0, 0.0, 1.0, -0.5, -0.5)" width="76.1" xlink:href="#shape0"/>
      <use height="155.8" transform="matrix(1.0, 0.0, 0.0, 1.0, 0.0, 0.0)" width="75.1" xlink:href="#sprite1"/>
    </g>
    <g id="shape0" transform="matrix(1.0, 0.0, 0.0, 1.0, 0.5, 0.5)">
      <path d="M59.15 13.15 Q59.75 16.7 59.6 21.45 L50.65 40.25 17.4 42.5 11.05 31.8 7.4 23.7 Q5.1 16.4 5.9 11.45 8.85 8.95 13.4 7.2 23.45 3.4 34.75 4.8 32.2 6.85 29.35 9.75 L31.25 9.25 Q37.95 7.6 42.05 7.6 50.85 7.6 58.95 13.0 L59.15 13.15 M51.2 48.05 L74.25 99.15 Q74.95 100.6 75.05 101.95 75.2 103.3 74.75 104.65 L71.75 110.9 71.7 110.45 59.3 112.0 53.8 112.65 36.65 114.75 37.1 121.55 51.7 119.65 57.15 118.9 68.6 117.4 52.85 150.55 Q48.55 154.95 44.1 155.65 39.45 156.4 34.7 153.5 L21.2 138.15 10.15 125.0 10.05 115.2 Q10.05 105.5 13.25 87.9 16.95 68.9 18.05 61.2 17.4 61.2 15.2 60.2 L15.0 60.1 18.0 50.3 51.2 48.05 M11.05 31.8 Q21.45 17.6 29.35 9.75 21.45 17.6 11.05 31.8" fill="#001a00" fill-rule="evenodd" stroke="none"/>
      <path d="M5.9 11.45 Q7.05 3.95 15.2 1.8 22.1 0.1 27.8 0.0 34.55 -0.1 39.25 1.7 46.1 0.3 51.4 2.4 57.65 4.4 59.15 13.15 L58.95 13.0 Q50.85 7.6 42.05 7.6 37.95 7.6 31.25 9.25 L29.35 9.75 Q32.2 6.85 34.75 4.8 23.45 3.4 13.4 7.2 8.85 8.95 5.9 11.45 M10.15 125.0 L1.35 113.9 Q0.1 112.25 0.0 110.25 -0.1 109.0 0.35 107.55 L15.0 60.1 15.2 60.2 Q17.4 61.2 18.05 61.2 16.95 68.9 13.25 87.9 10.05 105.5 10.05 115.2 L10.15 125.0 M39.25 1.7 Q37.15 2.85 34.75 4.8 37.15 2.85 39.25 1.7" fill="#003c00" fill-rule="evenodd" stroke="none"/>
      <path d="M50.65 40.25 L51.2 48.05 18.0 50.3 17.4 42.5 50.65 40.25 M59.3 112.0 L58.3 115.3 57.15 118.9 51.7 119.65 53.3 114.45 53.8 112.65 59.3 112.0" fill="#ffffff" fill-rule="evenodd" stroke="none"/>
      <path d="M71.75 110.9 L72.15 117.0 68.6 117.4 57.15 118.9 58.3 115.3 59.3 112.0 71.7 110.45 71.75 110.9 M53.8 112.65 L53.3 114.45 51.7 119.65 37.1 121.55 36.65 114.75 53.8 112.65" fill="#ffd222" fill-rule="evenodd" stroke="none"/>
      <path d="M5.9 11.45 Q7.05 3.95 15.2 1.8 22.1 0.1 27.8 0.0 34.55 -0.1 39.25 1.7 46.1 0.3 51.4 2.4 57.65 4.4 59.15 13.15 59.75 16.7 59.6 21.45 L50.65 40.25 51.2 48.05 74.25 99.15 Q74.95 100.6 75.05 101.95 75.2 103.3 74.75 104.65 L71.75 110.9 72.15 117.0 68.6 117.4 52.85 150.55 Q48.55 154.95 44.1 155.65 39.45 156.4 34.7 153.5 L21.2 138.15 10.15 125.0 1.35 113.9 Q0.1 112.25 0.0 110.25 -0.1 109.0 0.35 107.55 L15.0 60.1 18.0 50.3 17.4 42.5 11.05 31.8 7.4 23.7 Q5.1 16.4 5.9 11.45 M34.75 4.8 Q37.15 2.85 39.25 1.7 M29.35 9.75 Q21.45 17.6 11.05 31.8 M29.35 9.75 Q32.2 6.85 34.75 4.8 M51.2 48.05 L18.0 50.3 M17.4 42.5 L50.65 40.25 M71.75 110.9 L71.7 110.45 59.3 112.0 53.8 112.65 36.65 114.75 37.1 121.55 51.7 119.65 57.15 118.9 68.6 117.4" fill="none" stroke="#000000" stroke-linecap="round" stroke-linejoin="round" stroke-opacity="0.6627451" stroke-width="1.0"/>
    </g>
    <g id="sprite1" transform="matrix(1.0, 0.0, 0.0, 1.0, 0.0, 0.0)">
      <use height="155.8" transform="matrix(1.0, 0.0, 0.0, 1.0, 0.0, 0.0)" width="75.1" xlink:href="#shape1"/>
    </g>
    <g id="shape1" transform="matrix(1.0, 0.0, 0.0, 1.0, 0.0, 0.0)">
      <path d="M50.65 40.25 L51.2 48.05 18.0 50.3 17.4 42.5 50.65 40.25" fill="url(#gradient0)" fill-rule="evenodd" stroke="none"/>
      <path d="M71.75 110.9 L72.15 117.0 68.6 117.4 37.1 121.55 36.65 114.75 71.7 110.45 71.75 110.9" fill="url(#gradient1)" fill-rule="evenodd" stroke="none"/>
      <path d="M11.05 31.8 L7.4 23.7 Q5.1 16.4 5.9 11.45 7.05 3.95 15.2 1.8 22.1 0.1 27.8 0.0 34.55 -0.1 39.25 1.7 37.15 2.85 34.75 4.8 32.2 6.85 29.35 9.75 21.45 17.6 11.05 31.8" fill="url(#gradient2)" fill-rule="evenodd" stroke="none"/>
      <path d="M50.65 40.25 L17.4 42.5 11.05 31.8 Q21.45 17.6 29.35 9.75 32.2 6.85 34.75 4.8 37.15 2.85 39.25 1.7 46.1 0.3 51.4 2.4 57.65 4.4 59.15 13.15 59.75 16.7 59.6 21.45 L50.65 40.25" fill="url(#gradient3)" fill-rule="evenodd" stroke="none"/>
      <path d="M18.0 50.3 L51.2 48.05 74.25 99.15 Q74.95 100.6 75.05 101.95 75.2 103.3 74.75 104.65 L71.75 110.9 71.7 110.45 36.65 114.75 37.1 121.55 68.6 117.4 52.85 150.55 Q48.55 154.95 44.1 155.65 39.45 156.4 34.7 153.5 L21.2 138.15 10.15 125.0 1.35 113.9 Q0.1 112.25 0.0 110.25 -0.1 109.0 0.35 107.55 L18.0 50.3" fill="url(#gradient4)" fill-rule="evenodd" stroke="none"/>
    </g>
    <linearGradient gradientTransform="matrix(0.0206, 0.0, 0.0, 0.0061, 34.3, 45.25)" gradientUnits="userSpaceOnUse" id="gradient0" spreadMethod="pad" x1="-819.2" x2="819.2">
      <stop offset="0.0" stop-color="#000000"/>
      <stop offset="1.0" stop-color="#ffffff"/>
    </linearGradient>
    <linearGradient gradientTransform="matrix(0.0217, 0.0, 0.0, 0.0068, 54.4, 116.0)" gradientUnits="userSpaceOnUse" id="gradient1" spreadMethod="pad" x1="-819.2" x2="819.2">
      <stop offset="0.0" stop-color="#000000"/>
      <stop offset="1.0" stop-color="#ffffff"/>
    </linearGradient>
    <linearGradient gradientTransform="matrix(-0.0037, -0.0201, 0.0191, -0.0035, 22.45, 15.9)" gradientUnits="userSpaceOnUse" id="gradient2" spreadMethod="pad" x1="-819.2" x2="819.2">
      <stop offset="0.0" stop-color="#000000"/>
      <stop offset="1.0" stop-color="#ffffff"/>
    </linearGradient>
    <linearGradient gradientTransform="matrix(-0.0115, -0.0273, 0.0232, -0.0098, 35.1, 25.1)" gradientUnits="userSpaceOnUse" id="gradient3" spreadMethod="pad" x1="-819.2" x2="819.2">
      <stop offset="0.0" stop-color="#000000"/>
      <stop offset="1.0" stop-color="#ffffff"/>
    </linearGradient>
    <linearGradient gradientTransform="matrix(-0.0456, -0.0048, 0.0069, -0.0654, 37.55, 102.0)" gradientUnits="userSpaceOnUse" id="gradient4" spreadMethod="pad" x1="-819.2" x2="819.2">
      <stop offset="0.0" stop-color="#000000"/>
      <stop offset="1.0" stop-color="#ffffff"/>
    </linearGradient>
  </defs>
</svg>
