<?xml version="1.0" encoding="UTF-8" standalone="no"?>
<svg xmlns:xlink="http://www.w3.org/1999/xlink" height="531.5px" width="460.6px" xmlns="http://www.w3.org/2000/svg">
  <g transform="matrix(1.0, 0.0, 0.0, 1.0, 193.65, 334.05)">
    <use height="202.85" transform="matrix(0.4704, -0.0419, 0.0419, 0.4704, -69.1465, -204.45)" width="241.25" xlink:href="#shape0"/>
    <use height="199.35" transform="matrix(0.4704, -0.0419, 0.0419, 0.4704, -68.25, -203.7)" width="237.75" xlink:href="#sprite0"/>
  </g>
  <defs>
    <g id="shape0" transform="matrix(1.0, 0.0, 0.0, 1.0, 1.75, 1.75)">
      <path d="M205.35 134.55 Q210.65 132.8 215.7 130.4 220.1 128.05 225.45 127.7 240.15 130.6 237.25 150.9 233.0 171.4 219.65 183.95 215.05 187.0 210.3 189.5 L210.2 189.35 Q208.8 187.5 207.05 185.9 L206.95 185.85 203.05 182.85 202.8 182.75 202.25 182.4 Q203.55 180.35 204.55 175.45 205.65 170.25 205.65 166.65 205.65 164.1 205.05 163.35 L202.9 160.15 202.15 160.15 Q202.9 160.5 203.1 162.9 L203.15 166.15 Q203.15 170.9 201.9 174.55 200.35 179.05 197.35 180.0 L196.8 179.75 Q193.8 178.6 190.3 177.8 L189.3 177.55 190.6 175.7 Q194.9 168.85 193.95 161.6 198.65 161.0 202.2 159.7 208.55 157.75 208.25 149.45 208.0 144.1 206.2 137.55 L205.35 134.55 M127.85 192.05 L126.6 191.6 126.05 191.35 Q114.25 184.25 108.75 176.15 103.05 167.65 103.05 156.4 103.05 151.85 104.95 147.2 106.3 143.75 109.05 139.65 L108.8 139.35 Q100.55 145.15 100.55 161.4 100.55 166.95 100.95 168.55 101.25 169.75 103.1 172.6 93.4 161.6 90.8 147.8 90.5 126.7 101.65 125.35 115.3 125.9 123.7 129.9 L131.3 132.35 130.4 135.75 130.4 135.85 128.15 144.1 127.25 144.75 Q112.4 154.75 118.9 169.55 123.1 179.2 130.1 183.65 L129.35 184.8 Q122.25 183.2 117.35 171.55 112.65 160.4 114.05 151.65 112.1 154.8 111.75 156.4 111.55 157.2 111.55 160.9 111.55 168.8 115.9 177.2 121.0 187.0 128.35 187.65 127.8 189.9 127.85 192.05 M217.3 145.9 L218.4 148.45 Q219.65 151.65 219.65 153.9 219.65 164.0 217.15 171.55 214.35 180.0 208.65 184.7 L208.85 185.1 Q210.15 187.15 212.15 187.15 L212.6 187.15 Q214.05 185.95 215.3 183.5 L217.15 179.65 218.65 176.15 Q219.3 174.8 220.45 168.9 221.65 162.85 221.65 160.4 221.65 155.4 220.5 151.0 219.55 147.4 218.1 145.5 L217.3 145.9" fill="#3f1e1e" fill-rule="evenodd" stroke="none"/>
      <path d="M126.05 191.35 Q114.8 186.7 106.5 177.25 L106.15 176.85 105.85 176.5 103.1 172.6 Q101.25 169.75 100.95 168.55 100.55 166.95 100.55 161.4 100.55 145.15 108.8 139.35 L109.05 139.65 Q106.3 143.75 104.95 147.2 103.05 151.85 103.05 156.4 103.05 167.65 108.75 176.15 114.25 184.25 126.05 191.35 M197.35 180.0 Q200.35 179.05 201.9 174.55 203.15 170.9 203.15 166.15 L203.1 162.9 Q202.9 160.5 202.15 160.15 L202.9 160.15 205.05 163.35 Q205.65 164.1 205.65 166.65 205.65 170.25 204.55 175.45 203.55 180.35 202.25 182.4 200.0 181.05 197.35 180.0 M217.3 145.9 L218.1 145.5 Q219.55 147.4 220.5 151.0 221.65 155.4 221.65 160.4 221.65 162.85 220.45 168.9 219.3 174.8 218.65 176.15 L217.15 179.65 215.3 183.5 Q214.05 185.95 212.6 187.15 L212.15 187.15 Q210.15 187.15 208.85 185.1 L208.65 184.7 Q214.35 180.0 217.15 171.55 219.65 164.0 219.65 153.9 219.65 151.65 218.4 148.45 L217.3 145.9 M128.35 187.65 Q121.0 187.0 115.9 177.2 111.55 168.8 111.55 160.9 111.55 157.2 111.75 156.4 112.1 154.8 114.05 151.65 112.65 160.4 117.35 171.55 122.25 183.2 129.35 184.8 129.0 185.45 128.8 186.1 L128.35 187.65" fill="#4c2a2a" fill-rule="evenodd" stroke="none"/>
      <path d="M131.3 132.35 Q145.0 136.45 157.7 138.1 L168.1 139.1 167.95 143.35 166.35 143.6 162.55 143.65 Q154.1 143.65 145.5 141.45 137.45 139.45 130.4 135.85 L130.4 135.75 131.3 132.35 M172.15 139.25 Q184.5 139.45 195.7 137.1 L205.35 134.55 206.2 137.55 Q201.4 141.75 191.35 142.65 L181.4 143.0 172.6 143.15 172.15 139.25" fill="#d8d8d8" fill-rule="evenodd" stroke="none"/>
      <path d="M206.2 137.55 Q208.0 144.1 208.25 149.45 208.55 157.75 202.2 159.7 198.65 161.0 193.95 161.6 L187.35 162.0 Q178.3 162.1 175.5 157.35 173.55 150.1 172.6 143.15 L181.4 143.0 191.35 142.65 Q201.4 141.75 206.2 137.55 M130.4 135.85 Q137.45 139.45 145.5 141.45 154.1 143.65 162.55 143.65 L166.35 143.6 167.95 143.35 Q167.7 149.25 166.95 155.15 167.3 161.25 161.7 161.45 L157.55 161.75 Q153.9 161.9 150.45 161.65 140.9 160.9 132.45 156.95 125.35 153.05 127.8 145.45 L128.15 144.1 130.4 135.85 M49.2 24.85 L52.0 24.6 53.15 24.85 Q54.5 25.35 55.1 26.55 L55.3 26.95 53.65 27.5 Q50.65 28.55 47.95 30.25 L44.15 32.95 43.8 32.5 43.7 32.35 Q42.9 30.7 43.95 28.7 44.5 27.75 45.35 27.0 L45.35 26.95 Q46.2 26.15 47.4 25.55 L49.2 24.85" fill="#ffffff" fill-rule="evenodd" stroke="none"/>
      <path d="M168.1 139.1 L172.15 139.25 172.6 143.15 Q173.55 150.1 175.5 157.35 178.3 162.1 187.35 162.0 L193.95 161.6 Q194.9 168.85 190.6 175.7 L189.3 177.55 Q179.1 175.3 165.0 175.95 L164.25 176.9 Q153.75 173.55 138.7 178.55 132.6 180.4 130.1 183.65 123.1 179.2 118.9 169.55 112.4 154.75 127.25 144.75 L127.8 145.45 Q125.35 153.05 132.45 156.95 140.9 160.9 150.45 161.65 151.15 163.95 150.2 167.2 151.3 172.45 155.6 170.65 159.9 168.8 158.7 164.8 L157.7 162.5 157.55 161.75 161.7 161.45 Q167.3 161.25 166.95 155.15 167.7 149.25 167.95 143.35 L168.1 139.1" fill="#1e1111" fill-rule="evenodd" stroke="none"/>
      <path d="M136.9 194.75 L133.2 193.7 Q130.45 193.0 127.85 192.05 127.8 189.9 128.35 187.65 L128.8 186.1 Q129.0 185.45 129.35 184.8 L130.1 183.65 Q132.6 180.4 138.7 178.55 153.75 173.55 164.25 176.9 L164.55 177.0 165.0 175.95 Q179.1 175.3 189.3 177.55 L190.3 177.8 189.65 179.45 188.4 179.4 Q183.35 179.4 177.85 181.55 L174.2 183.15 172.55 183.65 169.1 182.65 Q165.15 181.65 162.3 181.65 146.0 181.65 136.9 194.75 M164.55 177.0 Q169.85 178.75 174.2 183.15 169.85 178.75 164.55 177.0" fill="#6d0000" fill-rule="evenodd" stroke="none"/>
      <path d="M210.2 189.55 Q193.35 198.15 174.0 199.2 161.1 199.85 147.05 197.15 L136.9 194.75 Q146.0 181.65 162.3 181.65 165.15 181.65 169.1 182.65 L172.55 183.65 174.2 183.15 177.85 181.55 Q183.35 179.4 188.4 179.4 L189.65 179.45 190.3 177.8 Q193.8 178.6 196.8 179.75 L197.35 180.0 Q200.0 181.05 202.25 182.4 L202.8 182.75 203.05 182.85 206.95 185.85 207.05 185.9 Q208.8 187.5 210.2 189.35 L210.2 189.55 M194.5 184.65 Q192.9 184.65 192.65 185.15 L193.65 186.45 194.45 187.4 194.45 187.95 Q194.5 189.05 194.95 189.6 195.45 190.15 196.65 190.15 L197.9 189.9 Q198.4 189.55 198.4 188.55 198.4 187.25 197.65 186.15 196.6 184.65 194.5 184.65" fill="#980000" fill-rule="evenodd" stroke="none"/>
      <path d="M194.5 184.65 Q196.6 184.65 197.65 186.15 198.4 187.25 198.4 188.55 198.4 189.55 197.9 189.9 L196.65 190.15 Q195.45 190.15 194.95 189.6 194.5 189.05 194.45 187.95 L194.45 187.4 193.65 186.45 192.65 185.15 Q192.9 184.65 194.5 184.65" fill="#b85151" fill-rule="evenodd" stroke="none"/>
      <path d="M88.6 39.75 Q94.9 46.35 97.85 56.75 L85.55 57.8 Q82.55 47.4 77.2 40.55 81.8 39.65 86.55 39.65 L88.6 39.75" fill="#05a7cf" fill-rule="evenodd" stroke="none"/>
      <path d="M64.9 30.7 L66.3 30.65 Q79.5 30.65 88.2 39.35 L88.6 39.75 86.55 39.65 Q81.8 39.65 77.2 40.55 72.1 34.05 64.9 30.7" fill="#04bcea" fill-rule="evenodd" stroke="none"/>
      <path d="M88.6 39.75 L88.2 39.35 Q79.5 30.65 66.3 30.65 L64.9 30.7 Q60.55 28.65 55.45 27.75 L55.3 26.95 Q64.05 24.25 75.1 26.15 90.1 28.25 98.15 42.7 101.45 48.65 103.6 56.7 100.65 56.65 97.85 56.75 94.9 46.35 88.6 39.75" fill="#30d2fa" fill-rule="evenodd" stroke="none"/>
      <path d="M44.8 16.4 L44.85 16.3 Q56.1 -0.55 72.5 0.0 L75.9 0.25 78.7 1.25 Q81.9 4.35 81.35 6.5 L79.65 5.4 77.3 3.7 Q76.1 3.15 73.3 3.15 61.35 3.15 50.75 11.55 46.3 15.1 43.35 19.1 43.5 18.3 44.8 16.4 M46.05 20.15 L48.05 23.1 44.4 25.6 42.3 22.2 42.8 21.85 42.5 21.65 Q43.7 21.55 44.55 20.7 L45.2 19.85 45.25 19.9 45.3 19.9 45.35 19.9 45.9 20.2 46.05 20.15 M41.55 15.25 Q40.7 17.2 39.45 18.75 L39.0 18.4 Q39.0 17.05 39.95 16.1 40.65 15.4 41.55 15.25 M38.35 19.9 Q36.6 21.6 34.25 22.7 29.85 24.75 20.5 25.35 9.25 26.1 5.8 26.95 2.55 27.75 0.05 29.15 -0.75 24.35 8.1 21.15 14.75 19.4 21.0 20.65 30.95 21.7 38.35 19.9" fill="#d9d9d9" fill-rule="evenodd" stroke="none"/>
      <path d="M81.35 6.5 Q81.1 7.45 80.05 8.25 76.65 10.65 72.3 10.25 59.5 12.1 46.05 20.15 L45.35 19.9 45.3 19.9 45.25 19.9 45.2 19.85 43.65 19.65 Q43.2 19.65 43.35 19.1 43.2 19.65 43.65 19.65 L45.2 19.85 44.55 20.7 Q43.7 21.55 42.5 21.65 L42.25 21.65 42.0 21.65 42.3 22.2 40.65 23.2 38.25 24.55 Q27.1 30.6 13.9 32.35 L11.0 32.9 3.9 33.55 Q2.5 33.45 1.45 32.25 0.3 30.6 0.05 29.15 2.55 27.75 5.8 26.95 9.25 26.1 20.5 25.35 29.85 24.75 34.25 22.7 36.6 21.6 38.35 19.9 L39.25 19.65 39.1 19.15 39.0 18.4 39.45 18.75 Q40.7 17.2 41.55 15.25 L42.25 15.15 42.3 15.15 Q43.6 15.15 44.55 16.1 L44.8 16.4 Q43.5 18.3 43.35 19.1 46.3 15.1 50.75 11.55 61.35 3.15 73.3 3.15 76.1 3.15 77.3 3.7 L79.65 5.4 81.35 6.5 M48.05 23.1 L49.2 24.85 47.4 25.55 Q46.2 26.15 45.35 26.95 L44.4 25.6 48.05 23.1 M42.0 21.65 L41.6 21.6 Q40.65 21.4 39.95 20.7 L39.75 20.5 39.25 19.65 39.75 20.5 39.95 20.7 Q40.65 21.4 41.6 21.6 L42.0 21.65" fill="#848484" fill-rule="evenodd" stroke="none"/>
      <path d="M55.45 27.75 Q60.55 28.65 64.9 30.7 53.8 31.1 45.3 38.55 45.7 36.35 46.4 34.2 47.05 32.2 47.95 30.25 50.65 28.55 53.65 27.5 L55.45 27.75" fill="#fdfd35" fill-rule="evenodd" stroke="none"/>
      <path d="M44.15 32.95 L47.95 30.25 Q47.05 32.2 46.4 34.2 45.7 36.35 45.3 38.55 L44.6 39.15 Q34.55 48.3 34.55 62.15 34.55 65.6 36.75 72.05 L37.45 74.1 39.25 79.6 37.6 81.2 36.1 78.9 Q26.5 63.05 34.6 44.65 38.7 37.5 44.15 33.0 L44.15 32.95" fill="#fc2a2a" fill-rule="evenodd" stroke="none"/>
      <path d="M37.45 74.1 L36.75 72.05 Q34.55 65.6 34.55 62.15 34.55 48.3 44.6 39.15 L45.3 38.55 Q43.5 47.95 47.25 57.6 40.5 64.9 37.45 74.1" fill="#ec0202" fill-rule="evenodd" stroke="none"/>
      <path d="M64.9 30.7 Q72.1 34.05 77.2 40.55 65.5 42.8 54.9 50.7 50.6 53.9 47.25 57.6 43.5 47.95 45.3 38.55 53.8 31.1 64.9 30.7" fill="#e7ed02" fill-rule="evenodd" stroke="none"/>
      <path d="M39.25 79.6 L37.45 74.1 Q40.5 64.9 47.25 57.6 49.4 63.15 53.4 68.8 45.75 73.3 39.25 79.6" fill="#d20202" fill-rule="evenodd" stroke="none"/>
      <path d="M47.25 57.6 Q50.6 53.9 54.9 50.7 65.5 42.8 77.2 40.55 82.55 47.4 85.55 57.8 67.55 60.35 53.4 68.8 49.4 63.15 47.25 57.6" fill="#d2d202" fill-rule="evenodd" stroke="none"/>
      <path d="M157.55 161.75 L157.7 162.5 158.7 164.8 Q159.9 168.8 155.6 170.65 151.3 172.45 150.2 167.2 151.15 163.95 150.45 161.65 153.9 161.9 157.55 161.75" fill="#0f0808" fill-rule="evenodd" stroke="none"/>
      <path d="M205.35 134.55 Q210.65 132.8 215.7 130.4 220.1 128.05 225.45 127.7 240.15 130.6 237.25 150.9 233.0 171.4 219.65 183.95 215.05 187.0 210.3 189.5 L210.2 189.55 Q193.35 198.15 174.0 199.2 161.1 199.85 147.05 197.15 L136.9 194.75 133.2 193.7 Q130.45 193.0 127.85 192.05 L126.6 191.6 M126.05 191.35 Q114.8 186.7 106.5 177.25 M106.15 176.85 L105.85 176.5 103.1 172.6 Q93.4 161.6 90.8 147.8 90.5 126.7 101.65 125.35 115.3 125.9 123.7 129.9 L131.3 132.35 Q145.0 136.45 157.7 138.1 L168.1 139.1 172.15 139.25 Q184.5 139.45 195.7 137.1 L205.35 134.55 206.2 137.55 Q208.0 144.1 208.25 149.45 208.55 157.75 202.2 159.7 198.65 161.0 193.95 161.6 L187.35 162.0 Q178.3 162.1 175.5 157.35 173.55 150.1 172.6 143.15 L172.15 139.25 M189.3 177.55 L190.3 177.8 Q193.8 178.6 196.8 179.75 M202.25 182.4 L202.8 182.75 M203.05 182.85 L206.95 185.85 M207.05 185.9 Q208.8 187.5 210.2 189.35 L210.2 189.55 M167.95 143.35 L168.1 139.1 M167.95 143.35 Q167.7 149.25 166.95 155.15 167.3 161.25 161.7 161.45 L157.55 161.75 Q153.9 161.9 150.45 161.65 140.9 160.9 132.45 156.95 125.35 153.05 127.8 145.45 L128.15 144.1 130.4 135.85 M130.1 183.65 Q132.6 180.4 138.7 178.55 153.75 173.55 164.25 176.9 L165.0 175.95 Q179.1 175.3 189.3 177.55 M174.2 183.15 Q169.85 178.75 164.55 177.0 L164.25 176.9 M197.35 180.0 Q200.0 181.05 202.25 182.4 M97.85 56.75 Q100.65 56.65 103.6 56.7 101.45 48.65 98.15 42.7 90.1 28.25 75.1 26.15 64.05 24.25 55.3 26.95 L55.45 27.75 Q60.55 28.65 64.9 30.7 72.1 34.05 77.2 40.55 82.55 47.4 85.55 57.8 67.55 60.35 53.4 68.8 45.75 73.3 39.25 79.6 L37.6 81.2 36.1 78.9 Q26.5 63.05 34.6 44.65 38.7 37.5 44.15 33.0 L44.15 32.95 47.95 30.25 Q50.65 28.55 53.65 27.5 L55.45 27.75 M85.55 57.8 L97.85 56.75 M44.8 16.4 L44.85 16.3 Q56.1 -0.55 72.5 0.0 L75.9 0.25 78.7 1.25 Q81.9 4.35 81.35 6.5 81.1 7.45 80.05 8.25 76.65 10.65 72.3 10.25 59.5 12.1 46.05 20.15 L48.05 23.1 49.2 24.85 52.0 24.6 53.15 24.85 Q54.5 25.35 55.1 26.55 L55.3 26.95 53.65 27.5 M43.35 19.1 Q43.2 19.65 43.65 19.65 L45.2 19.85 45.25 19.9 45.3 19.9 45.35 19.9 45.9 20.2 46.05 20.15 M44.8 16.4 L44.55 16.1 Q43.6 15.15 42.3 15.15 L42.25 15.15 41.55 15.25 Q40.65 15.4 39.95 16.1 39.0 17.05 39.0 18.4 L39.1 19.15 39.25 19.65 39.75 20.5 39.95 20.7 Q40.65 21.4 41.6 21.6 L42.0 21.65 42.25 21.65 42.5 21.65 Q43.7 21.55 44.55 20.7 L45.2 19.85 M42.3 22.2 L42.8 21.85 42.5 21.65 M0.05 29.15 Q0.3 30.6 1.45 32.25 2.5 33.45 3.9 33.55 L11.0 32.9 13.9 32.35 Q27.1 30.6 38.25 24.55 L40.65 23.2 42.3 22.2 42.0 21.65 M43.35 19.1 Q43.5 18.3 44.8 16.4 M45.35 26.95 Q46.2 26.15 47.4 25.55 L49.2 24.85 M45.35 26.95 L45.35 27.0 Q44.5 27.75 43.95 28.7 42.9 30.7 43.7 32.35 L43.8 32.5 44.15 33.0 M44.4 25.6 L45.35 26.95 M45.3 38.55 Q45.7 36.35 46.4 34.2 47.05 32.2 47.95 30.25 M45.3 38.55 Q43.5 47.95 47.25 57.6 49.4 63.15 53.4 68.8 M42.3 22.2 L44.4 25.6 M0.05 29.15 Q-0.75 24.35 8.1 21.15 14.75 19.4 21.0 20.65 30.95 21.7 38.35 19.9 L39.25 19.65 M130.4 135.75 L131.3 132.35 M129.35 184.8 L130.1 183.65 M129.35 184.8 Q129.0 185.45 128.8 186.1 L128.35 187.65 Q127.8 189.9 127.85 192.05" fill="none" stroke="#000000" stroke-linecap="round" stroke-linejoin="round" stroke-opacity="0.6627451" stroke-width="3.5"/>
    </g>
    <g id="sprite0" transform="matrix(1.0, 0.0, 0.0, 1.0, 0.0, 0.0)">
      <use height="199.35" transform="matrix(1.0, 0.0, 0.0, 1.0, 0.0, 0.0)" width="237.75" xlink:href="#shape1"/>
    </g>
    <g id="shape1" transform="matrix(1.0, 0.0, 0.0, 1.0, 0.0, 0.0)">
      <path d="M88.2 39.75 L88.2 39.35 88.6 39.75 88.2 39.75" fill="url(#gradient0)" fill-rule="evenodd" stroke="none"/>
      <path d="M66.0 31.25 L64.9 30.7 66.3 30.65 66.0 31.25" fill="url(#gradient1)" fill-rule="evenodd" stroke="none"/>
      <path d="M45.35 26.95 L44.4 25.6 42.3 22.2 42.8 21.85 42.5 21.65 Q43.7 21.55 44.55 20.7 L45.2 19.85 45.3 19.9 45.35 19.9 45.9 20.2 46.05 20.15 49.2 24.85 47.4 25.55 Q46.2 26.15 45.35 26.95" fill="url(#gradient2)" fill-rule="evenodd" stroke="none"/>
      <path d="M203.2 160.7 L202.8 161.05 Q202.55 160.35 202.15 160.15 L202.9 160.15 203.2 160.7" fill="url(#gradient3)" fill-rule="evenodd" stroke="none"/>
      <path d="M39.25 19.65 L39.1 19.15 39.0 18.4 Q39.0 17.05 39.95 16.1 40.65 15.4 41.55 15.25 L42.25 15.15 42.3 15.15 Q43.6 15.15 44.55 16.1 L44.8 16.4 44.85 16.3 Q56.1 -0.55 72.5 0.0 L75.9 0.25 78.7 1.25 Q81.9 4.35 81.35 6.5 81.1 7.45 80.05 8.25 76.65 10.65 72.3 10.25 59.5 12.1 46.05 20.15 L45.35 19.9 45.3 19.9 45.2 19.85 44.55 20.7 Q43.7 21.55 42.5 21.65 L42.25 21.65 42.0 21.65 41.6 21.6 Q40.65 21.4 39.95 20.7 L39.75 20.5 39.25 19.65" fill="url(#gradient4)" fill-rule="evenodd" stroke="none"/>
      <path d="M42.3 22.2 L40.65 23.2 38.25 24.55 Q27.1 30.6 13.9 32.35 L11.0 32.9 3.9 33.55 Q2.5 33.45 1.45 32.25 0.3 30.6 0.05 29.15 -0.75 24.35 8.1 21.15 14.75 19.4 21.0 20.65 30.95 21.7 38.35 19.9 L39.25 19.65 39.75 20.5 39.95 20.7 Q40.65 21.4 41.6 21.6 L42.0 21.65 42.3 22.2" fill="url(#gradient5)" fill-rule="evenodd" stroke="none"/>
      <path d="M88.2 39.75 L88.6 39.75 88.2 39.35 88.2 39.75 M49.2 24.85 L52.0 24.6 53.15 24.85 Q54.5 25.35 55.1 26.55 L55.3 26.95 Q64.05 24.25 75.1 26.15 90.1 28.25 98.15 42.7 101.45 48.65 103.6 56.7 100.65 56.65 97.85 56.75 L85.55 57.8 Q67.55 60.35 53.4 68.8 45.75 73.3 39.25 79.6 L37.6 81.2 36.1 78.9 Q26.5 63.05 34.6 44.65 38.7 37.5 44.15 33.0 L44.15 32.95 43.8 32.5 43.7 32.35 Q42.9 30.7 43.95 28.7 44.5 27.75 45.35 27.0 L45.35 26.95 Q46.2 26.15 47.4 25.55 L49.2 24.85 M55.3 26.95 L53.65 27.5 55.45 27.75 55.3 26.95 M66.0 31.25 L66.3 30.65 64.9 30.7 66.0 31.25" fill="url(#gradient6)" fill-rule="evenodd" stroke="none"/>
      <path d="M205.35 134.55 Q210.65 132.8 215.7 130.4 220.1 128.05 225.45 127.7 240.15 130.6 237.25 150.9 233.0 171.4 219.65 183.95 215.05 187.0 210.3 189.5 L210.2 189.35 Q208.8 187.5 207.05 185.9 L206.95 185.85 203.05 182.85 202.8 182.75 202.25 182.4 Q200.0 181.05 197.35 180.0 L196.8 179.75 Q193.8 178.6 190.3 177.8 L189.3 177.55 Q179.1 175.3 165.0 175.95 L164.25 176.9 Q153.75 173.55 138.7 178.55 132.6 180.4 130.1 183.65 L129.35 184.8 Q129.0 185.45 128.8 186.1 L128.35 187.65 Q127.8 189.9 127.85 192.05 L126.6 191.6 126.05 191.35 Q114.8 186.7 106.5 177.25 L106.15 176.85 105.85 176.5 103.1 172.6 Q93.4 161.6 90.8 147.8 90.5 126.7 101.65 125.35 115.3 125.9 123.7 129.9 L131.3 132.35 130.4 135.75 130.4 135.85 128.15 144.1 127.25 144.75 127.8 145.45 Q125.35 153.05 132.45 156.95 140.9 160.9 150.45 161.65 153.9 161.9 157.55 161.75 L161.7 161.45 Q167.3 161.25 166.95 155.15 167.7 149.25 167.95 143.35 L168.1 139.1 172.15 139.25 172.6 143.15 Q173.55 150.1 175.5 157.35 178.3 162.1 187.35 162.0 L193.95 161.6 Q198.55 161.0 202.05 159.8 L202.2 159.7 Q208.55 157.75 208.25 149.45 208.0 144.1 206.2 137.55 L205.35 134.55 M203.2 160.7 L202.9 160.15 202.15 160.15 Q202.55 160.35 202.8 161.05 L203.2 160.7" fill="url(#gradient7)" fill-rule="evenodd" stroke="none"/>
      <path d="M127.85 192.05 Q127.8 189.9 128.35 187.65 L128.8 186.1 Q129.0 185.45 129.35 184.8 L130.1 183.65 Q132.6 180.4 138.7 178.55 153.75 173.55 164.25 176.9 L164.55 177.0 165.0 175.95 Q179.1 175.3 189.3 177.55 L190.3 177.8 Q193.8 178.6 196.8 179.75 L197.35 180.0 Q200.0 181.05 202.25 182.4 L202.8 182.75 203.05 182.85 206.95 185.85 207.05 185.9 Q208.8 187.5 210.2 189.35 L210.2 189.55 Q193.35 198.15 174.0 199.2 161.1 199.85 147.05 197.15 L136.9 194.75 133.2 193.7 Q130.45 193.0 127.85 192.05" fill="url(#gradient8)" fill-rule="evenodd" stroke="none"/>
      <path d="M168.1 139.1 L167.95 143.35 Q167.7 149.25 166.95 155.15 167.3 161.25 161.7 161.45 L157.55 161.75 Q153.9 161.9 150.45 161.65 140.9 160.9 132.45 156.95 125.35 153.05 127.8 145.45 L128.15 144.1 130.4 135.85 130.4 135.75 131.3 132.35 Q145.0 136.45 157.7 138.1 L168.1 139.1" fill="url(#gradient9)" fill-rule="evenodd" stroke="none"/>
      <path d="M205.35 134.55 L206.2 137.55 Q208.0 144.1 208.25 149.45 208.55 157.75 202.2 159.7 L202.05 159.8 Q198.55 161.0 193.95 161.6 L187.35 162.0 Q178.3 162.1 175.5 157.35 173.55 150.1 172.6 143.15 L172.15 139.25 Q184.5 139.45 195.7 137.1 L205.35 134.55" fill="url(#gradient10)" fill-rule="evenodd" stroke="none"/>
    </g>
    <linearGradient gradientTransform="matrix(2.0E-4, 0.0, 0.0, 2.0E-4, 88.4, 39.55)" gradientUnits="userSpaceOnUse" id="gradient0" spreadMethod="pad" x1="-819.2" x2="819.2">
      <stop offset="0.0" stop-color="#000000" stop-opacity="0.5019608"/>
      <stop offset="1.0" stop-color="#ffffff"/>
    </linearGradient>
    <linearGradient gradientTransform="matrix(9.0E-4, 0.0, 0.0, 4.0E-4, 65.6, 30.95)" gradientUnits="userSpaceOnUse" id="gradient1" spreadMethod="pad" x1="-819.2" x2="819.2">
      <stop offset="0.0" stop-color="#000000" stop-opacity="0.5019608"/>
      <stop offset="1.0" stop-color="#ffffff"/>
    </linearGradient>
    <linearGradient gradientTransform="matrix(0.0042, 0.0, 0.0, 0.0043, 45.75, 23.4)" gradientUnits="userSpaceOnUse" id="gradient2" spreadMethod="pad" x1="-819.2" x2="819.2">
      <stop offset="0.0" stop-color="#000000" stop-opacity="0.5019608"/>
      <stop offset="1.0" stop-color="#ffffff"/>
    </linearGradient>
    <linearGradient gradientTransform="matrix(6.0E-4, 0.0, 0.0, 5.0E-4, 202.65, 160.6)" gradientUnits="userSpaceOnUse" id="gradient3" spreadMethod="pad" x1="-819.2" x2="819.2">
      <stop offset="0.0" stop-color="#000000" stop-opacity="0.5019608"/>
      <stop offset="1.0" stop-color="#ffffff"/>
    </linearGradient>
    <linearGradient gradientTransform="matrix(0.0, -0.0161, 0.0132, 0.0, 60.2, 10.8)" gradientUnits="userSpaceOnUse" id="gradient4" spreadMethod="pad" x1="-819.2" x2="819.2">
      <stop offset="0.0" stop-color="#000000" stop-opacity="0.5019608"/>
      <stop offset="1.0" stop-color="#ffffff"/>
    </linearGradient>
    <linearGradient gradientTransform="matrix(-0.013, -0.013, 0.006, -0.006, 21.15, 26.6)" gradientUnits="userSpaceOnUse" id="gradient5" spreadMethod="pad" x1="-819.2" x2="819.2">
      <stop offset="0.0" stop-color="#000000" stop-opacity="0.5019608"/>
      <stop offset="1.0" stop-color="#ffffff"/>
    </linearGradient>
    <linearGradient gradientTransform="matrix(-0.0273, -0.0474, 0.0299, -0.0173, 67.25, 52.95)" gradientUnits="userSpaceOnUse" id="gradient6" spreadMethod="pad" x1="-819.2" x2="819.2">
      <stop offset="0.0" stop-color="#000000" stop-opacity="0.5019608"/>
      <stop offset="1.0" stop-color="#ffffff"/>
    </linearGradient>
    <linearGradient gradientTransform="matrix(0.0065, 0.0716, -0.0405, 0.0037, 156.1, 177.75)" gradientUnits="userSpaceOnUse" id="gradient7" spreadMethod="pad" x1="-819.2" x2="819.2">
      <stop offset="0.0" stop-color="#000000" stop-opacity="0.5019608"/>
      <stop offset="1.0" stop-color="#ffffff"/>
    </linearGradient>
    <linearGradient gradientTransform="matrix(0.0355, 0.0355, -0.0103, 0.0103, 175.15, 193.65)" gradientUnits="userSpaceOnUse" id="gradient8" spreadMethod="pad" x1="-819.2" x2="819.2">
      <stop offset="0.0" stop-color="#000000" stop-opacity="0.5019608"/>
      <stop offset="1.0" stop-color="#ffffff"/>
    </linearGradient>
    <linearGradient gradientTransform="matrix(0.0, 0.025, -0.018, 0.0, 156.7, 141.6)" gradientUnits="userSpaceOnUse" id="gradient9" spreadMethod="pad" x1="-819.2" x2="819.2">
      <stop offset="0.0" stop-color="#000000" stop-opacity="0.5019608"/>
      <stop offset="1.0" stop-color="#ffffff"/>
    </linearGradient>
    <linearGradient gradientTransform="matrix(0.0057, 0.0213, -0.0162, 0.0043, 192.5, 140.6)" gradientUnits="userSpaceOnUse" id="gradient10" spreadMethod="pad" x1="-819.2" x2="819.2">
      <stop offset="0.0" stop-color="#000000" stop-opacity="0.5019608"/>
      <stop offset="1.0" stop-color="#ffffff"/>
    </linearGradient>
  </defs>
</svg>
