<?xml version="1.0" encoding="UTF-8" standalone="no"?>
<svg xmlns:xlink="http://www.w3.org/1999/xlink" height="531.5px" width="460.6px" xmlns="http://www.w3.org/2000/svg">
  <g transform="matrix(1.0, 0.0, 0.0, 1.0, 193.65, 334.05)">
    <use height="27.5" transform="matrix(1.8818, 0.0, 0.0, 1.8818, 17.0591, -60.1909)" width="27.3" xlink:href="#sprite0"/>
  </g>
  <defs>
    <g id="sprite0" transform="matrix(1.0, 0.0, 0.0, 1.0, 0.5, 0.5)">
      <use height="27.5" transform="matrix(1.0, 0.0, 0.0, 1.0, -0.5, -0.5)" width="27.3" xlink:href="#shape0"/>
      <use height="26.5" transform="matrix(1.0, 0.0, 0.0, 1.0, 0.0, 0.0)" width="26.3" xlink:href="#sprite1"/>
    </g>
    <g id="shape0" transform="matrix(1.0, 0.0, 0.0, 1.0, 0.5, 0.5)">
      <path d="M23.8 6.45 L24.95 5.75 26.15 7.7 22.85 9.6 25.05 10.8 23.35 13.05 22.15 12.15 21.0 11.35 20.2 11.8 18.1 12.85 18.1 10.95 16.95 10.25 18.1 10.95 18.1 12.85 18.1 14.25 19.85 15.0 20.85 15.6 22.6 14.65 23.7 13.95 25.05 16.05 23.05 17.2 26.3 19.15 25.05 21.1 23.75 20.25 21.9 19.25 21.9 20.05 21.9 21.7 19.15 21.35 19.4 18.4 16.05 16.85 18.1 15.4 18.1 14.25 18.1 15.4 16.05 16.85 15.65 17.1 15.5 17.2 14.1 18.05 12.95 17.5 14.1 18.05 15.5 17.2 15.6 20.25 18.25 21.55 17.1 24.1 15.8 23.2 14.95 22.8 14.95 23.65 14.9 26.5 13.2 26.5 12.65 26.3 12.7 22.8 10.95 23.75 10.65 23.9 10.25 23.0 9.6 21.55 12.45 20.1 12.5 17.8 12.95 17.5 11.65 16.7 11.6 16.65 9.7 15.65 9.7 14.0 9.7 15.65 11.6 16.65 10.65 17.25 8.6 18.4 8.8 20.9 8.85 21.35 7.9 21.5 6.1 21.7 6.1 21.3 6.15 19.25 4.4 20.2 2.95 21.1 2.35 20.2 1.7 19.15 4.95 17.2 2.95 16.05 3.95 14.5 4.35 13.95 6.15 15.0 7.15 15.6 7.95 15.1 9.7 14.0 9.7 12.85 7.95 11.9 7.0 11.35 6.45 11.75 4.65 13.05 3.95 12.15 2.95 10.8 5.15 9.6 1.95 7.7 2.75 6.25 3.05 5.75 4.6 6.6 6.3 7.6 6.25 5.25 7.1 5.4 8.8 5.45 8.75 8.75 10.15 9.55 11.25 10.1 12.35 9.5 12.55 9.4 12.5 9.4 12.35 6.45 9.7 5.25 10.5 3.3 10.85 2.6 11.25 2.9 12.95 3.95 12.95 0.25 13.6 0.25 15.3 0.25 15.3 2.7 15.3 3.95 16.0 3.5 17.25 2.75 18.4 5.1 18.25 5.15 17.5 5.6 15.5 6.6 15.5 9.4 14.05 8.55 12.55 9.4 14.05 8.55 15.5 9.4 15.8 9.55 16.95 10.25 19.3 8.75 19.2 5.45 20.05 5.4 21.75 5.25 21.75 6.4 21.7 7.6 23.8 6.45 M13.2 14.45 L14.05 14.9 15.4 14.0 15.4 12.45 14.05 11.7 13.6 11.9 12.55 12.45 12.55 14.05 13.2 14.45 M11.25 10.1 L9.7 10.95 9.7 12.85 9.7 10.95 11.25 10.1" fill="#f7f7f7" fill-rule="evenodd" stroke="none"/>
      <path d="M23.8 6.45 L21.7 7.6 21.75 6.4 23.25 5.5 23.8 6.45 M20.05 5.4 L19.2 5.45 19.3 8.75 16.95 10.25 15.8 9.55 17.55 8.45 17.5 5.6 18.25 5.15 20.05 5.05 20.05 5.4 M20.2 11.8 L21.0 11.35 22.15 12.15 21.7 12.8 20.2 11.8 M22.6 14.65 L20.85 15.6 19.85 15.0 21.95 13.7 22.6 14.65 M16.05 16.85 L19.4 18.4 19.15 21.35 17.45 21.1 17.7 18.2 15.65 17.1 16.05 16.85 M21.9 20.05 L21.9 19.25 23.75 20.25 23.35 20.9 21.9 20.05 M11.25 2.9 L11.25 0.0 13.6 0.0 13.6 0.25 12.95 0.25 12.95 3.95 11.25 2.9 M10.5 3.3 L9.7 5.25 12.35 6.45 12.5 9.4 12.3 8.35 10.85 9.2 10.65 6.2 7.95 4.95 9.15 2.45 10.5 3.3 M10.85 9.2 L12.3 8.35 12.5 9.4 12.35 9.5 11.25 10.1 10.15 9.55 10.85 9.2 M14.2 12.25 L13.6 11.9 14.05 11.7 15.4 12.45 15.4 14.0 14.05 14.9 13.2 14.45 14.2 13.9 14.2 12.25 M2.75 6.25 L1.95 7.7 5.15 9.6 2.95 10.8 3.95 12.15 2.95 12.8 1.25 10.55 3.45 9.35 0.2 7.5 1.3 5.5 2.75 6.25 M7.95 11.9 L9.7 12.85 9.7 14.0 7.95 15.1 7.95 13.95 7.95 15.1 7.15 15.6 6.15 15.0 7.95 13.95 7.95 12.4 7.95 11.9 M11.6 16.65 L11.65 16.7 12.5 17.45 12.5 17.8 12.45 20.1 9.6 21.55 10.25 23.0 8.95 23.65 7.9 21.5 8.85 21.35 8.8 20.9 10.7 19.85 10.65 17.25 11.6 16.65 M2.35 20.2 L1.25 20.9 0.0 18.9 3.25 16.95 1.25 15.8 2.6 13.7 3.95 14.5 2.95 16.05 4.95 17.2 1.7 19.15 2.35 20.2 M6.1 21.3 L4.4 21.5 4.4 20.2 6.15 19.25 6.1 21.3 M10.95 23.75 L12.7 22.8 12.65 26.3 10.9 26.2 10.95 23.75" fill="#d0d0d0" fill-rule="evenodd" stroke="none"/>
      <path d="M7.1 5.4 L6.25 5.25 6.3 7.6 4.6 6.6 4.55 5.05 7.1 5.25 7.1 5.4" fill="#e1e1e1" fill-rule="evenodd" stroke="none"/>
      <path d="M22.15 12.15 L23.35 13.05 25.05 10.8 22.85 9.6 26.15 7.7 24.95 5.75 23.8 6.45 21.7 7.6 21.75 6.4 21.75 5.25 20.05 5.4 19.2 5.45 19.3 8.75 16.95 10.25 18.1 10.95 18.1 12.85 20.2 11.8 21.0 11.35 22.15 12.15 M22.6 14.65 L20.85 15.6 19.85 15.0 18.1 14.25 18.1 15.4 16.05 16.85 19.4 18.4 19.15 21.35 21.9 21.7 21.9 20.05 21.9 19.25 23.75 20.25 25.05 21.1 26.3 19.15 23.05 17.2 25.05 16.05 23.7 13.95 22.6 14.65 M13.6 0.25 L15.3 0.25 15.3 2.7 15.3 3.95 16.0 3.5 17.25 2.75 18.4 5.1 18.25 5.15 17.5 5.6 15.5 6.6 15.5 9.4 15.8 9.55 16.95 10.25 M13.6 0.25 L12.95 0.25 12.95 3.95 11.25 2.9 10.85 2.6 10.5 3.3 9.7 5.25 12.35 6.45 12.5 9.4 12.35 9.5 12.55 9.4 14.05 8.55 15.5 9.4 M10.15 9.55 L11.25 10.1 12.35 9.5 M13.2 14.45 L14.05 14.9 15.4 14.0 15.4 12.45 14.05 11.7 13.6 11.9 12.55 12.45 12.55 14.05 13.2 14.45 M4.6 6.6 L6.3 7.6 6.25 5.25 7.1 5.4 8.8 5.45 8.75 8.75 10.15 9.55 M4.6 6.6 L3.05 5.75 2.75 6.25 1.95 7.7 5.15 9.6 2.95 10.8 3.95 12.15 4.65 13.05 6.45 11.75 7.0 11.35 7.95 11.9 9.7 12.85 9.7 10.95 11.25 10.1 M7.95 15.1 L9.7 14.0 9.7 12.85 M6.15 15.0 L7.15 15.6 7.95 15.1 M9.7 14.0 L9.7 15.65 11.6 16.65 10.65 17.25 8.6 18.4 8.8 20.9 8.85 21.35 7.9 21.5 6.1 21.7 6.1 21.3 6.15 19.25 4.4 20.2 2.95 21.1 2.35 20.2 1.7 19.15 4.95 17.2 2.95 16.05 3.95 14.5 4.35 13.95 6.15 15.0 M11.65 16.7 L12.95 17.5 14.1 18.05 15.5 17.2 15.65 17.1 16.05 16.85 M18.1 12.85 L18.1 14.25 M12.5 17.8 L12.45 20.1 9.6 21.55 10.25 23.0 10.65 23.9 10.95 23.75 12.7 22.8 12.65 26.3 12.65 26.45 13.2 26.5 14.9 26.5 14.95 23.65 14.95 22.8 15.8 23.2 17.1 24.1 18.25 21.55 15.6 20.25 15.5 17.2" fill="none" stroke="#808080" stroke-linecap="round" stroke-linejoin="round" stroke-opacity="0.6627451" stroke-width="1.0"/>
      <path d="M22.15 12.15 L21.7 12.8 20.2 11.8 M21.75 6.4 L23.25 5.5 23.8 6.45 M22.6 14.65 L21.95 13.7 19.85 15.0 M15.3 2.7 L15.5 2.55 M18.25 5.15 L20.05 5.05 M11.25 2.9 L11.25 0.0 13.6 0.0 M17.5 5.6 L17.55 8.45 15.8 9.55 M10.85 9.2 L10.65 6.2 7.95 4.95 9.15 2.45 10.5 3.3 M14.2 12.25 L14.2 13.9 13.2 14.45 M7.1 5.25 L4.55 5.05 4.6 6.6 M3.95 12.15 L2.95 12.8 1.25 10.55 3.45 9.35 0.2 7.5 1.3 5.5 2.75 6.25 M7.95 13.95 L6.15 15.0 M7.95 13.95 L7.95 12.4 6.45 11.75 M2.35 20.2 L1.25 20.9 0.0 18.9 3.25 16.95 1.25 15.8 2.6 13.7 3.95 14.5 M6.1 21.3 L4.4 21.5 4.4 20.2 M10.25 23.0 L8.95 23.65 7.9 21.5 M19.15 21.35 L17.45 21.1 17.7 18.2 15.65 17.1 M8.8 20.9 L10.7 19.85 10.65 17.25 M12.65 26.3 L10.9 26.2 10.95 23.75" fill="none" stroke="#5e5e5e" stroke-linecap="round" stroke-linejoin="round" stroke-opacity="0.6627451" stroke-width="1.0"/>
      <path d="M23.75 20.25 L23.35 20.9 21.9 20.05 M15.5 2.55 L16.0 3.5 M20.05 5.05 L20.05 5.4 M13.6 0.0 L13.6 0.25 M12.5 9.4 L12.3 8.35 10.85 9.2 10.15 9.55 M13.6 11.9 L14.2 12.25 M7.1 5.4 L7.1 5.25 M7.95 15.1 L7.95 13.95 M12.5 17.8 L12.5 17.45 11.65 16.7 M12.95 17.5 L12.5 17.8 M12.65 26.3 L13.2 26.5 M15.8 23.2 L15.4 23.9 14.95 23.65 M7.95 11.9 L7.95 12.4" fill="none" stroke="#5e5e5e" stroke-linecap="round" stroke-linejoin="round" stroke-width="1.0"/>
    </g>
    <g id="sprite1" transform="matrix(1.0, 0.0, 0.0, 1.0, 0.0, 0.0)">
      <use height="26.5" transform="matrix(1.0, 0.0, 0.0, 1.0, 0.0, 0.0)" width="26.3" xlink:href="#shape1"/>
    </g>
    <g id="shape1" transform="matrix(1.0, 0.0, 0.0, 1.0, 0.0, 0.0)">
      <path d="M21.75 6.4 L21.7 7.6 23.8 6.45 24.95 5.75 26.15 7.7 22.85 9.6 25.05 10.8 23.35 13.05 22.15 12.15 21.0 11.35 20.2 11.8 18.1 12.85 18.1 14.25 19.85 15.0 20.85 15.6 22.6 14.65 23.7 13.95 25.05 16.05 23.05 17.2 26.3 19.15 25.05 21.1 23.75 20.25 21.9 19.25 21.9 20.05 21.9 21.7 19.15 21.35 19.4 18.4 16.05 16.85 15.65 17.1 15.5 17.2 15.6 20.25 18.25 21.55 17.1 24.1 15.8 23.2 14.95 22.8 14.9 26.5 13.2 26.5 12.65 26.3 12.7 22.8 10.95 23.75 10.65 23.9 10.25 23.0 9.6 21.55 12.45 20.1 12.5 17.8 12.95 17.5 11.65 16.7 11.6 16.65 10.65 17.25 8.6 18.4 8.8 20.9 8.85 21.35 7.9 21.5 6.1 21.7 6.1 21.3 6.15 19.25 4.4 20.2 2.95 21.1 2.35 20.2 1.7 19.15 4.95 17.2 2.95 16.05 3.95 14.5 4.35 13.95 6.15 15.0 7.15 15.6 9.7 14.0 9.7 12.85 7.95 11.9 7.0 11.35 4.65 13.05 3.95 12.15 2.95 10.8 5.15 9.6 1.95 7.7 2.75 6.25 3.05 5.75 4.6 6.6 6.3 7.6 6.25 5.25 7.1 5.4 8.8 5.45 8.75 8.75 10.15 9.55 11.25 10.1 12.35 9.5 12.55 9.4 12.5 9.4 12.35 6.45 9.7 5.25 10.5 3.3 10.85 2.6 11.25 2.9 12.95 3.95 12.95 0.25 13.6 0.25 15.3 0.25 15.3 3.95 17.25 2.75 18.4 5.1 18.25 5.15 17.5 5.6 15.5 6.6 15.5 9.4 15.8 9.55 16.95 10.25 19.3 8.75 19.2 5.45 20.05 5.4 21.75 5.25 21.75 6.4 M13.2 14.45 L14.05 14.9 15.4 14.0 15.4 12.45 14.05 11.7 13.6 11.9 12.55 12.45 12.55 14.05 13.2 14.45" fill="url(#gradient0)" fill-rule="evenodd" stroke="none"/>
      <path d="M23.8 6.45 L21.7 7.6 21.75 6.4 23.25 5.5 23.8 6.45" fill="url(#gradient1)" fill-rule="evenodd" stroke="none"/>
      <path d="M20.2 11.8 L21.0 11.35 22.15 12.15 21.7 12.8 20.2 11.8" fill="url(#gradient2)" fill-rule="evenodd" stroke="none"/>
      <path d="M22.6 14.65 L20.85 15.6 19.85 15.0 21.95 13.7 22.6 14.65" fill="url(#gradient3)" fill-rule="evenodd" stroke="none"/>
      <path d="M21.9 20.05 L21.9 19.25 23.75 20.25 23.35 20.9 21.9 20.05" fill="url(#gradient4)" fill-rule="evenodd" stroke="none"/>
      <path d="M20.05 5.4 L19.2 5.45 19.3 8.75 16.95 10.25 15.8 9.55 17.55 8.45 17.5 5.6 18.25 5.15 20.05 5.05 20.05 5.4" fill="url(#gradient5)" fill-rule="evenodd" stroke="none"/>
      <path d="M13.6 0.25 L12.95 0.25 12.95 3.95 11.25 2.9 11.25 0.0 13.6 0.0 13.6 0.25" fill="url(#gradient6)" fill-rule="evenodd" stroke="none"/>
      <path d="M10.5 3.3 L9.7 5.25 12.35 6.45 12.5 9.4 12.35 9.5 11.25 10.1 10.15 9.55 10.85 9.2 10.65 6.2 7.95 4.95 9.15 2.45 10.5 3.3" fill="url(#gradient7)" fill-rule="evenodd" stroke="none"/>
      <path d="M13.6 11.9 L14.05 11.7 15.4 12.45 15.4 14.0 14.05 14.9 13.2 14.45 14.2 13.9 14.2 12.25 13.6 11.9" fill="url(#gradient8)" fill-rule="evenodd" stroke="none"/>
      <path d="M7.1 5.4 L6.25 5.25 6.3 7.6 4.6 6.6 4.55 5.05 7.1 5.25 7.1 5.4" fill="url(#gradient9)" fill-rule="evenodd" stroke="none"/>
      <path d="M2.75 6.25 L1.95 7.7 5.15 9.6 2.95 10.8 3.95 12.15 2.95 12.8 1.25 10.55 3.45 9.35 0.2 7.5 1.3 5.5 2.75 6.25" fill="url(#gradient10)" fill-rule="evenodd" stroke="none"/>
      <path d="M7.95 11.9 L9.7 12.85 9.7 14.0 7.15 15.6 6.15 15.0 7.95 13.95 7.95 11.9" fill="url(#gradient11)" fill-rule="evenodd" stroke="none"/>
      <path d="M3.95 14.5 L2.95 16.05 4.95 17.2 1.7 19.15 2.35 20.2 1.25 20.9 0.0 18.9 3.25 16.95 1.25 15.8 2.6 13.7 3.95 14.5" fill="url(#gradient12)" fill-rule="evenodd" stroke="none"/>
      <path d="M4.4 20.2 L6.15 19.25 6.1 21.3 4.4 21.5 4.4 20.2" fill="url(#gradient13)" fill-rule="evenodd" stroke="none"/>
      <path d="M7.9 21.5 L8.85 21.35 8.8 20.9 10.7 19.85 10.65 17.25 11.6 16.65 11.65 16.7 12.5 17.45 12.5 17.8 12.45 20.1 9.6 21.55 10.25 23.0 8.95 23.65 7.9 21.5" fill="url(#gradient14)" fill-rule="evenodd" stroke="none"/>
      <path d="M15.65 17.1 L16.05 16.85 19.4 18.4 19.15 21.35 17.45 21.1 17.7 18.2 15.65 17.1" fill="url(#gradient15)" fill-rule="evenodd" stroke="none"/>
      <path d="M10.95 23.75 L12.7 22.8 12.65 26.3 10.9 26.2 10.95 23.75" fill="url(#gradient16)" fill-rule="evenodd" stroke="none"/>
    </g>
    <linearGradient gradientTransform="matrix(-0.0173, -0.0395, 0.0147, -0.0064, 18.1, 21.8)" gradientUnits="userSpaceOnUse" id="gradient0" spreadMethod="pad" x1="-819.2" x2="819.2">
      <stop offset="0.0" stop-color="#000000"/>
      <stop offset="1.0" stop-color="#ffffff"/>
    </linearGradient>
    <linearGradient gradientTransform="matrix(0.0111, 0.0, 0.0, 0.0013, 22.75, 6.55)" gradientUnits="userSpaceOnUse" id="gradient1" spreadMethod="pad" x1="-819.2" x2="819.2">
      <stop offset="0.0" stop-color="#000000"/>
      <stop offset="1.0" stop-color="#ffffff"/>
    </linearGradient>
    <linearGradient gradientTransform="matrix(0.0067, 0.0, 0.0, 9.0E-4, 21.15, 12.05)" gradientUnits="userSpaceOnUse" id="gradient2" spreadMethod="pad" x1="-819.2" x2="819.2">
      <stop offset="0.0" stop-color="#000000"/>
      <stop offset="1.0" stop-color="#ffffff"/>
    </linearGradient>
    <linearGradient gradientTransform="matrix(0.0089, 0.0, 0.0, 0.0012, 21.2, 14.65)" gradientUnits="userSpaceOnUse" id="gradient3" spreadMethod="pad" x1="-819.2" x2="819.2">
      <stop offset="0.0" stop-color="#000000"/>
      <stop offset="1.0" stop-color="#ffffff"/>
    </linearGradient>
    <linearGradient gradientTransform="matrix(0.0049, 0.0, 0.0, 0.001, 22.8, 20.05)" gradientUnits="userSpaceOnUse" id="gradient4" spreadMethod="pad" x1="-819.2" x2="819.2">
      <stop offset="0.0" stop-color="#000000"/>
      <stop offset="1.0" stop-color="#ffffff"/>
    </linearGradient>
    <linearGradient gradientTransform="matrix(0.0079, 0.0, 0.0, 0.0032, 17.9, 7.65)" gradientUnits="userSpaceOnUse" id="gradient5" spreadMethod="pad" x1="-819.2" x2="819.2">
      <stop offset="0.0" stop-color="#000000"/>
      <stop offset="1.0" stop-color="#ffffff"/>
    </linearGradient>
    <linearGradient gradientTransform="matrix(0.0059, 0.0, 0.0, 0.0024, 12.75, 2.25)" gradientUnits="userSpaceOnUse" id="gradient6" spreadMethod="pad" x1="-819.2" x2="819.2">
      <stop offset="0.0" stop-color="#000000"/>
      <stop offset="1.0" stop-color="#ffffff"/>
    </linearGradient>
    <linearGradient gradientTransform="matrix(0.0089, 0.0, 0.0, 0.0047, 10.2, 6.25)" gradientUnits="userSpaceOnUse" id="gradient7" spreadMethod="pad" x1="-819.2" x2="819.2">
      <stop offset="0.0" stop-color="#000000"/>
      <stop offset="1.0" stop-color="#ffffff"/>
    </linearGradient>
    <linearGradient gradientTransform="matrix(0.0081, 0.0, 0.0, 0.002, 14.3, 13.3)" gradientUnits="userSpaceOnUse" id="gradient8" spreadMethod="pad" x1="-819.2" x2="819.2">
      <stop offset="0.0" stop-color="#000000"/>
      <stop offset="1.0" stop-color="#ffffff"/>
    </linearGradient>
    <linearGradient gradientTransform="matrix(0.007, 0.0, 0.0, 0.0016, 5.8, 6.3)" gradientUnits="userSpaceOnUse" id="gradient9" spreadMethod="pad" x1="-819.2" x2="819.2">
      <stop offset="0.0" stop-color="#000000"/>
      <stop offset="1.0" stop-color="#ffffff"/>
    </linearGradient>
    <linearGradient gradientTransform="matrix(0.0083, 0.0, 0.0, 0.0045, 2.65, 9.15)" gradientUnits="userSpaceOnUse" id="gradient10" spreadMethod="pad" x1="-819.2" x2="819.2">
      <stop offset="0.0" stop-color="#000000"/>
      <stop offset="1.0" stop-color="#ffffff"/>
    </linearGradient>
    <linearGradient gradientTransform="matrix(0.0056, 0.0, 0.0, 0.0023, 7.9, 13.75)" gradientUnits="userSpaceOnUse" id="gradient11" spreadMethod="pad" x1="-819.2" x2="819.2">
      <stop offset="0.0" stop-color="#000000"/>
      <stop offset="1.0" stop-color="#ffffff"/>
    </linearGradient>
    <linearGradient gradientTransform="matrix(0.0145, 0.0, 0.0, 0.0044, 2.45, 17.3)" gradientUnits="userSpaceOnUse" id="gradient12" spreadMethod="pad" x1="-819.2" x2="819.2">
      <stop offset="0.0" stop-color="#000000"/>
      <stop offset="1.0" stop-color="#ffffff"/>
    </linearGradient>
    <linearGradient gradientTransform="matrix(0.007, 0.0, 0.0, 0.0014, 5.25, 20.35)" gradientUnits="userSpaceOnUse" id="gradient13" spreadMethod="pad" x1="-819.2" x2="819.2">
      <stop offset="0.0" stop-color="#000000"/>
      <stop offset="1.0" stop-color="#ffffff"/>
    </linearGradient>
    <linearGradient gradientTransform="matrix(0.009, 0.0, 0.0, 0.0043, 10.2, 20.15)" gradientUnits="userSpaceOnUse" id="gradient14" spreadMethod="pad" x1="-819.2" x2="819.2">
      <stop offset="0.0" stop-color="#000000"/>
      <stop offset="1.0" stop-color="#ffffff"/>
    </linearGradient>
    <linearGradient gradientTransform="matrix(0.0079, 0.0, 0.0, 0.0027, 17.5, 19.1)" gradientUnits="userSpaceOnUse" id="gradient15" spreadMethod="pad" x1="-819.2" x2="819.2">
      <stop offset="0.0" stop-color="#000000"/>
      <stop offset="1.0" stop-color="#ffffff"/>
    </linearGradient>
    <linearGradient gradientTransform="matrix(0.0065, 0.0, 0.0, 0.0021, 11.8, 24.55)" gradientUnits="userSpaceOnUse" id="gradient16" spreadMethod="pad" x1="-819.2" x2="819.2">
      <stop offset="0.0" stop-color="#000000"/>
      <stop offset="1.0" stop-color="#ffffff"/>
    </linearGradient>
  </defs>
</svg>
