<?xml version="1.0" encoding="UTF-8" standalone="no"?>
<svg xmlns:xlink="http://www.w3.org/1999/xlink" height="531.5px" width="460.6px" xmlns="http://www.w3.org/2000/svg">
  <g transform="matrix(1.0, 0.0, 0.0, 1.0, 193.65, 334.05)">
    <use height="99.3" transform="matrix(0.4557, 0.0, 0.0, 0.4557, 19.7721, -46.0279)" width="72.5" xlink:href="#sprite0"/>
  </g>
  <defs>
    <g id="sprite0" transform="matrix(1.0, 0.0, 0.0, 1.0, 0.5, 0.5)">
      <use height="99.3" transform="matrix(1.0, 0.0, 0.0, 1.0, -0.5, -0.5)" width="72.5" xlink:href="#shape0"/>
      <use height="98.3" transform="matrix(1.0, 0.0, 0.0, 1.0, 0.0, 0.0)" width="71.5" xlink:href="#sprite1"/>
    </g>
    <g id="shape0" transform="matrix(1.0, 0.0, 0.0, 1.0, 0.5, 0.5)">
      <path d="M36.4 0.0 L71.5 49.35 35.95 98.3 0.0 48.9 36.4 0.0" fill="#e30202" fill-rule="evenodd" stroke="none"/>
      <path d="M36.4 0.0 L71.5 49.35 35.95 98.3 0.0 48.9 36.4 0.0 Z" fill="none" stroke="#000000" stroke-linecap="round" stroke-linejoin="round" stroke-opacity="0.6627451" stroke-width="1.0"/>
    </g>
    <g id="sprite1" transform="matrix(1.0, 0.0, 0.0, 1.0, 0.0, 0.0)">
      <use height="98.3" transform="matrix(1.0, 0.0, 0.0, 1.0, 0.0, 0.0)" width="71.5" xlink:href="#shape1"/>
    </g>
    <g id="shape1" transform="matrix(1.0, 0.0, 0.0, 1.0, 0.0, 0.0)">
      <path d="M36.4 0.0 L71.5 49.35 35.95 98.3 0.0 48.9 36.4 0.0" fill="url(#gradient0)" fill-rule="evenodd" stroke="none"/>
    </g>
    <linearGradient gradientTransform="matrix(-0.013, -0.0652, 0.0588, -0.0118, 35.75, 49.15)" gradientUnits="userSpaceOnUse" id="gradient0" spreadMethod="pad" x1="-819.2" x2="819.2">
      <stop offset="0.0" stop-color="#000000"/>
      <stop offset="1.0" stop-color="#ffffff"/>
    </linearGradient>
  </defs>
</svg>
