<?xml version="1.0" encoding="UTF-8" standalone="no"?>
<svg xmlns:xlink="http://www.w3.org/1999/xlink" height="531.5px" width="460.6px" xmlns="http://www.w3.org/2000/svg">
  <g transform="matrix(1.0, 0.0, 0.0, 1.0, 193.65, 334.05)">
    <use height="74.15" transform="matrix(1.0, 0.0, 0.0, 1.0, -58.55, -76.9)" width="161.85" xlink:href="#shape0"/>
    <use height="80.5" transform="matrix(0.9088, 0.0, 0.0, 0.9088, -1.8522, -76.4297)" width="115.15" xlink:href="#sprite0"/>
    <use height="46.5" transform="matrix(1.0, 0.0, 0.0, 1.0, -58.55, -55.7)" width="116.8" xlink:href="#shape2"/>
  </g>
  <defs>
    <g id="shape0" transform="matrix(1.0, 0.0, 0.0, 1.0, 58.55, 76.9)">
      <path d="M52.9 -46.65 L49.7 -47.3 41.1 -48.3 32.95 -49.55 28.45 -49.9 Q25.85 -50.1 24.9 -51.4 L28.3 -51.65 31.65 -51.25 31.8 -52.7 Q31.95 -54.9 31.5 -56.05 31.0 -57.4 29.45 -58.15 27.9 -58.85 24.4 -59.35 L20.2 -59.8 Q15.75 -60.05 12.7 -58.95 10.0 -58.05 8.65 -55.25 7.95 -53.9 7.55 -52.2 L6.4 -49.35 5.6 -47.35 6.0 -46.8 6.1 -46.35 6.15 -46.15 5.95 -45.95 5.4 -45.65 4.8 -45.65 -11.85 -49.1 -18.75 -49.55 Q-17.9 -50.65 -16.15 -50.9 L-18.4 -52.85 Q-19.2 -53.35 -21.05 -53.9 L-23.45 -54.5 -24.3 -54.75 Q-23.2 -56.75 -18.65 -54.55 -14.35 -52.5 -13.8 -51.0 L-13.75 -50.9 -12.9 -50.8 -9.35 -50.15 3.95 -47.95 4.45 -47.85 Q4.5 -48.9 5.25 -50.6 L6.7 -54.05 Q7.55 -56.45 8.5 -57.7 L9.85 -59.1 Q11.3 -60.15 13.25 -60.7 L15.9 -61.2 26.45 -60.65 Q32.05 -59.55 33.05 -56.9 33.25 -56.2 33.1 -53.25 L32.95 -51.15 36.95 -50.55 42.35 -49.7 51.4 -48.55 Q57.15 -47.7 58.1 -45.1 58.55 -43.85 57.75 -38.7 L57.05 -35.85 Q55.6 -33.1 51.65 -31.75 L45.0 -32.1 43.45 -32.2 44.65 -30.15 44.8 -29.65 Q45.2 -27.7 44.45 -25.85 41.1 -16.9 30.8 -19.05 L30.6 -19.05 Q31.35 -16.95 30.9 -14.95 L30.35 -13.5 Q28.6 -10.65 25.25 -9.9 L24.95 -9.85 22.9 -9.45 17.55 -9.2 14.0 -9.3 -8.0 -10.4 -15.05 -10.55 Q-23.9 -11.0 -32.6 -12.4 -37.15 -13.45 -40.25 -15.6 -48.7 -24.45 -54.2 -35.65 L-56.5 -40.1 -58.25 -44.3 Q-58.7 -45.45 -58.45 -46.2 L-57.7 -45.65 -57.3 -45.35 -56.1 -43.8 -55.75 -43.05 -54.6 -40.75 Q-50.0 -31.1 -43.95 -22.35 -41.5 -18.75 -37.95 -16.4 -35.95 -15.15 -33.3 -14.35 L-21.55 -13.0 -11.55 -12.55 10.75 -11.75 19.75 -11.35 22.15 -11.5 Q24.85 -11.55 26.8 -12.75 28.15 -13.7 29.1 -15.2 L29.5 -15.9 29.65 -16.6 29.65 -18.15 29.35 -19.05 29.2 -19.55 28.7 -20.7 29.4 -20.5 30.2 -20.6 32.25 -20.4 34.85 -20.45 Q42.15 -21.35 43.05 -29.05 L42.9 -29.55 41.85 -30.9 41.4 -31.45 40.85 -32.25 40.8 -32.6 39.15 -32.85 36.7 -33.25 Q36.9 -34.65 38.65 -34.5 L41.45 -33.85 46.0 -33.55 48.35 -33.3 Q50.85 -33.1 51.45 -33.3 54.6 -34.4 55.6 -36.85 L56.15 -39.5 56.6 -41.8 Q56.85 -43.7 56.6 -44.4 56.1 -45.8 52.9 -46.65" fill="#000000" fill-rule="evenodd" stroke="none"/>
      <path d="M-23.45 -54.5 L-21.05 -53.9 Q-19.2 -53.35 -18.4 -52.85 L-16.15 -50.9 Q-17.9 -50.65 -18.75 -49.55 L-11.85 -49.1 4.8 -45.65 5.4 -45.65 5.95 -45.95 6.15 -46.15 6.1 -46.35 6.0 -46.8 5.6 -47.35 6.4 -49.35 7.55 -52.2 Q7.95 -53.9 8.65 -55.25 10.0 -58.05 12.7 -58.95 15.75 -60.05 20.2 -59.8 L24.4 -59.35 Q27.9 -58.85 29.45 -58.15 31.0 -57.4 31.5 -56.05 31.95 -54.9 31.8 -52.7 L31.65 -51.25 28.3 -51.65 24.9 -51.4 Q25.85 -50.1 28.45 -49.9 L32.95 -49.55 41.1 -48.3 49.7 -47.3 52.9 -46.65 53.5 -45.1 Q53.95 -43.15 53.2 -39.55 52.15 -35.7 50.6 -34.3 49.75 -33.55 48.35 -33.3 L46.0 -33.55 41.45 -33.85 38.65 -34.5 Q36.9 -34.65 36.7 -33.25 L39.15 -32.85 40.8 -32.6 40.85 -32.25 41.4 -31.45 40.5 -27.6 Q39.25 -22.4 36.65 -21.15 L34.85 -20.45 32.25 -20.4 30.2 -20.6 29.4 -20.5 28.7 -20.7 29.2 -19.55 29.35 -19.05 27.35 -14.15 26.8 -12.75 Q24.85 -11.55 22.15 -11.5 L19.75 -11.35 10.75 -11.75 -11.55 -12.55 -21.55 -13.0 Q-27.05 -15.15 -29.45 -15.6 -32.85 -16.25 -35.7 -18.0 -38.7 -19.8 -40.65 -22.35 L-49.4 -35.0 Q-53.15 -40.45 -56.1 -43.8 L-57.3 -45.35 -53.5 -47.5 Q-50.7 -48.95 -47.8 -50.0 -40.7 -52.6 -32.8 -53.4 L-23.45 -54.5" fill="#999999" fill-rule="evenodd" stroke="none"/>
      <path d="M52.9 -46.65 Q56.1 -45.8 56.6 -44.4 56.85 -43.7 56.6 -41.8 L56.15 -39.5 55.6 -36.85 Q54.6 -34.4 51.45 -33.3 50.85 -33.1 48.35 -33.3 49.75 -33.55 50.6 -34.3 52.15 -35.7 53.2 -39.55 53.95 -43.15 53.5 -45.1 L52.9 -46.65 M41.4 -31.45 L41.85 -30.9 42.9 -29.55 43.05 -29.05 Q42.15 -21.35 34.85 -20.45 L36.65 -21.15 Q39.25 -22.4 40.5 -27.6 L41.4 -31.45 M29.35 -19.05 L29.65 -18.15 29.65 -16.6 29.5 -15.9 29.1 -15.2 Q28.15 -13.7 26.8 -12.75 L27.35 -14.15 29.35 -19.05 M-21.55 -13.0 L-33.3 -14.35 Q-35.95 -15.15 -37.95 -16.4 -41.5 -18.75 -43.95 -22.35 -50.0 -31.1 -54.6 -40.75 L-55.75 -43.05 -56.1 -43.8 Q-53.15 -40.45 -49.4 -35.0 L-40.65 -22.35 Q-38.7 -19.8 -35.7 -18.0 -32.85 -16.25 -29.45 -15.6 -27.05 -15.15 -21.55 -13.0" fill="#bdbdbd" fill-rule="evenodd" stroke="none"/>
      <path d="M58.6 -60.95 L58.0 -61.95 Q57.4 -63.2 56.2 -64.25 55.05 -65.35 51.0 -65.35 L46.9 -64.9 Q45.4 -64.45 44.35 -63.45 L44.85 -64.5 45.75 -65.4 46.2 -65.65 56.35 -66.05 57.3 -65.4 57.95 -64.5 58.25 -63.15 Q58.35 -62.0 58.6 -60.95 M24.9 -73.3 L26.05 -74.75 26.8 -76.4 28.0 -76.4 27.35 -75.25 Q26.9 -74.2 26.85 -73.25 L26.1 -73.25 24.9 -73.3" fill="#ffffff" fill-rule="evenodd" stroke="none"/>
      <path d="M44.35 -63.45 L44.3 -63.3 43.25 -56.7 43.1 -55.95 29.25 -55.95 29.15 -56.05 Q28.85 -57.4 28.85 -58.7 28.85 -61.45 29.15 -62.6 29.35 -63.45 29.9 -64.5 L44.85 -64.5 44.35 -63.45 M60.8 -55.95 Q59.6 -57.55 58.95 -59.65 L58.6 -60.95 Q58.35 -62.0 58.25 -63.15 L57.95 -64.5 101.2 -64.5 Q102.1 -63.55 102.5 -61.65 L102.55 -61.35 Q103.0 -58.65 102.65 -55.95 L101.4 -55.95 101.45 -57.95 101.45 -58.55 101.25 -62.0 100.9 -63.65 Q100.65 -63.65 100.5 -62.0 100.35 -60.35 100.35 -57.95 L100.35 -56.95 100.4 -56.5 100.4 -55.95 60.8 -55.95 M80.7 -68.95 L30.3 -68.95 30.3 -69.25 30.3 -69.8 30.1 -71.65 Q29.85 -72.85 29.2 -73.0 L26.85 -73.2 26.85 -73.25 30.45 -73.25 26.85 -73.25 Q26.9 -74.2 27.35 -75.25 L28.0 -76.4 30.1 -76.25 30.45 -73.25 31.3 -73.25 80.8 -73.25 Q80.55 -71.5 80.65 -69.8 L80.7 -68.95 M81.5 -67.0 L85.35 -66.9 86.4 -67.0 86.3 -65.4 81.6 -65.4 81.5 -67.0 M81.6 -73.95 L81.65 -74.9 85.85 -75.05 86.2 -74.9 86.3 -73.95 85.8 -74.0 Q83.65 -74.2 81.6 -73.95 M87.05 -73.25 L94.15 -73.25 Q93.9 -71.5 94.0 -69.8 L94.05 -68.95 87.15 -68.95 87.15 -69.8 87.05 -73.25 M94.95 -73.95 L95.0 -74.9 Q97.3 -75.8 99.6 -74.9 L99.65 -73.95 99.1 -74.0 Q97.0 -74.2 94.95 -73.95 M100.4 -73.15 Q101.9 -72.85 102.05 -71.6 L102.05 -69.8 101.95 -69.15 101.9 -68.95 100.5 -68.95 100.55 -69.8 100.4 -73.15 M99.75 -67.0 L99.65 -65.4 94.95 -65.4 94.85 -67.0 98.1 -66.9 98.3 -66.9 99.75 -67.0 M26.8 -76.4 L26.05 -74.75 24.9 -73.3 24.45 -73.3 Q18.4 -73.55 16.9 -72.45 16.85 -74.35 17.2 -76.2 L20.9 -76.2 Q21.2 -74.2 23.5 -73.9 L24.25 -73.9 24.65 -73.9 24.75 -76.1 26.8 -76.4 M22.7 -3.35 L16.35 -3.9 Q11.15 -3.25 4.65 -3.95 1.25 -4.4 1.45 -7.35 2.5 -6.75 3.95 -6.35 11.8 -5.05 19.1 -6.7 20.9 -7.15 22.7 -7.75 L22.8 -7.35 23.05 -5.4 22.7 -3.35 M56.35 -47.3 Q56.0 -45.3 56.9 -42.1 58.25 -39.4 60.7 -37.85 L60.4 -37.8 57.85 -39.5 Q55.95 -41.15 55.3 -43.95 54.9 -45.55 54.95 -47.25 L56.35 -47.3 M98.35 -60.3 L97.05 -60.75 Q96.25 -60.75 95.7 -60.3 95.15 -59.85 95.15 -59.2 95.15 -58.6 95.7 -58.15 96.25 -57.7 97.05 -57.7 97.8 -57.7 98.35 -58.15 98.9 -58.6 98.9 -59.2 98.9 -59.85 98.35 -60.3" fill="#575757" fill-rule="evenodd" stroke="none"/>
      <path d="M57.95 -64.5 L57.3 -65.4 81.6 -65.4 86.3 -65.4 94.95 -65.4 99.65 -65.4 99.9 -65.4 Q100.6 -65.15 101.2 -64.5 L57.95 -64.5 M45.75 -65.4 L44.85 -64.5 29.9 -64.5 Q29.35 -63.45 29.15 -62.6 28.85 -61.45 28.85 -58.7 28.85 -57.4 29.15 -56.05 L29.25 -55.95 30.25 -54.75 Q31.25 -53.85 32.55 -53.35 34.65 -52.5 38.9 -52.5 L41.4 -52.55 41.0 -52.35 Q34.7 -51.6 30.45 -52.25 L28.85 -52.6 27.9 -54.55 27.7 -55.25 27.45 -55.95 Q26.25 -60.35 28.1 -64.5 L28.5 -65.4 30.4 -65.4 45.75 -65.4 M31.3 -73.25 L30.45 -73.25 30.1 -76.25 30.85 -75.95 31.3 -73.25 M24.25 -73.9 L23.5 -73.9 Q21.2 -74.2 20.9 -76.2 L22.45 -76.2 Q22.8 -74.75 24.25 -73.9 M57.25 -49.35 Q56.55 -48.55 56.35 -47.3 L54.95 -47.25 55.2 -49.25 57.25 -49.35" fill="#2e2e2e" fill-rule="evenodd" stroke="none"/>
      <path d="M44.35 -63.45 Q45.4 -64.45 46.9 -64.9 L51.0 -65.35 Q55.05 -65.35 56.2 -64.25 57.4 -63.2 58.0 -61.95 L58.6 -60.95 58.95 -59.65 Q59.6 -57.55 60.8 -55.95 L61.35 -55.25 61.75 -54.85 Q65.55 -51.9 70.2 -50.3 75.85 -39.2 66.25 -33.05 L64.3 -32.45 Q66.25 -33.45 67.7 -35.25 70.5 -38.9 69.7 -43.5 69.0 -47.7 65.8 -50.6 L60.55 -55.95 43.1 -55.95 43.25 -56.7 44.3 -63.3 44.35 -63.45 M27.9 -54.55 L12.9 -54.45 12.9 -54.65 12.6 -55.25 Q9.35 -61.95 15.45 -65.7 L15.45 -65.75 28.95 -66.0 28.5 -65.4 28.1 -64.5 Q26.25 -60.35 27.45 -55.95 L27.7 -55.25 27.9 -54.55 M80.8 -67.9 L80.7 -68.95 80.65 -69.8 85.95 -69.8 85.95 -68.95 85.8 -67.85 85.35 -66.9 81.5 -67.0 80.9 -67.1 80.8 -67.9 M99.3 -69.8 L99.2 -68.95 98.85 -68.0 98.3 -66.9 98.1 -66.9 94.85 -67.0 94.25 -67.1 94.15 -67.9 94.05 -68.95 94.0 -69.8 99.3 -69.8" fill="#999999" fill-rule="evenodd" stroke="none"/>
      <path d="M43.1 -55.95 L60.55 -55.95 65.8 -50.6 Q69.0 -47.7 69.7 -43.5 70.5 -38.9 67.7 -35.25 66.25 -33.45 64.3 -32.45 L60.25 -31.6 Q55.85 -31.0 52.55 -31.6 47.25 -32.65 44.45 -37.05 41.65 -40.85 37.15 -40.9 39.6 -46.0 39.25 -49.5 L31.85 -50.2 30.75 -50.3 30.05 -50.35 24.3 -50.7 Q15.6 -51.05 13.2 -49.95 L13.15 -50.0 12.9 -54.45 27.9 -54.55 28.85 -52.6 30.45 -52.25 Q34.7 -51.6 41.0 -52.35 L41.4 -52.55 Q42.35 -53.4 42.9 -55.25 L43.1 -55.95 M30.3 -68.95 L30.2 -67.9 28.95 -66.0 15.45 -65.75 16.45 -71.9 16.9 -72.45 Q18.4 -73.55 24.45 -73.3 L24.9 -73.3 26.1 -73.25 26.85 -73.2 29.2 -73.0 Q29.85 -72.85 30.1 -71.65 L30.3 -69.8 30.3 -69.25 30.3 -68.95 M85.95 -69.8 L80.65 -69.8 Q80.55 -71.5 80.8 -73.25 L80.9 -73.9 81.6 -73.95 Q83.65 -74.2 85.8 -74.0 L85.85 -72.95 85.95 -70.4 85.95 -69.8 M94.15 -73.25 L94.25 -73.9 94.95 -73.95 Q97.0 -74.2 99.1 -74.0 L99.3 -69.8 94.0 -69.8 Q93.9 -71.5 94.15 -73.25 M48.0 -46.1 Q44.85 -41.65 48.75 -37.2 55.45 -33.2 64.0 -35.65 67.75 -37.65 67.9 -40.85 68.0 -43.55 63.75 -47.45 60.6 -49.25 57.25 -49.35 L55.2 -49.25 Q51.95 -48.9 48.65 -46.95 L48.0 -46.1" fill="#737373" fill-rule="evenodd" stroke="none"/>
      <path d="M70.2 -50.3 Q65.55 -51.9 61.75 -54.85 L61.35 -55.25 60.8 -55.95 100.4 -55.95 100.5 -53.95 Q100.65 -52.3 100.9 -52.3 L101.25 -53.95 101.4 -55.95 102.65 -55.95 102.45 -54.45 Q101.7 -51.0 99.9 -50.3 L70.2 -50.3 M43.1 -55.95 L42.9 -55.25 Q42.35 -53.4 41.4 -52.55 L38.9 -52.5 Q34.65 -52.5 32.55 -53.35 31.25 -53.85 30.25 -54.75 L29.25 -55.95 43.1 -55.95 M80.7 -68.95 L80.8 -67.9 31.25 -67.9 30.2 -67.9 30.3 -68.95 80.7 -68.95 M101.9 -68.95 Q101.6 -68.2 100.4 -67.95 L100.5 -68.95 101.9 -68.95 M24.8 -8.55 Q26.05 -6.75 25.75 -4.5 24.45 -3.65 22.7 -3.35 L23.05 -5.4 22.8 -7.35 22.7 -7.75 24.8 -8.55 M21.4 -32.55 L20.5 -31.3 19.5 -30.45 Q18.4 -29.65 17.2 -29.65 16.65 -30.3 16.65 -31.2 L16.7 -31.6 Q16.8 -32.35 17.3 -32.9 L17.4 -33.05 Q18.15 -33.75 19.2 -33.75 20.25 -33.75 20.95 -33.05 L21.4 -32.55 M60.4 -37.8 Q56.75 -37.3 53.75 -39.2 51.55 -41.2 50.35 -44.2 L49.3 -45.25 Q52.0 -47.0 54.95 -47.25 54.9 -45.55 55.3 -43.95 55.95 -41.15 57.85 -39.5 L60.4 -37.8 M94.05 -68.95 L94.15 -67.9 87.05 -67.9 87.15 -68.95 94.05 -68.95" fill="#404040" fill-rule="evenodd" stroke="none"/>
      <path d="M13.2 -49.95 Q15.6 -51.05 24.3 -50.7 L30.05 -50.35 31.05 -49.5 Q32.5 -48.0 32.5 -46.8 32.5 -45.55 31.7 -44.5 30.8 -43.5 28.75 -42.9 24.5 -41.6 19.65 -41.6 L14.55 -42.05 12.9 -42.5 12.85 -43.0 Q10.9 -48.85 12.9 -49.8 L13.2 -49.95 M1.45 -7.35 Q-4.3 -10.55 -0.05 -19.2 1.55 -22.75 7.5 -31.6 L9.4 -34.4 11.35 -38.05 12.4 -37.3 14.55 -35.45 17.3 -32.9 Q16.8 -32.35 16.7 -31.6 L16.65 -31.2 Q16.65 -30.3 17.2 -29.65 L17.4 -29.45 Q18.15 -28.65 19.2 -28.65 19.9 -28.65 20.5 -29.05 24.35 -22.75 24.35 -16.65 L24.2 -15.15 24.1 -13.95 Q22.55 -9.3 19.1 -6.7 11.8 -5.05 3.95 -6.35 2.5 -6.75 1.45 -7.35" fill="#80460c" fill-rule="evenodd" stroke="none"/>
      <path d="M30.2 -67.9 L31.25 -67.9 30.4 -65.4 28.5 -65.4 28.95 -66.0 30.2 -67.9" fill="#1a1a1a" fill-rule="evenodd" stroke="none"/>
      <path d="M30.05 -50.35 L30.75 -50.3 31.85 -50.2 39.25 -49.5 Q39.6 -46.0 37.15 -40.9 L36.4 -39.5 35.0 -38.1 Q33.65 -34.85 32.75 -31.6 31.65 -27.7 31.15 -23.8 30.35 -14.05 25.55 -8.85 25.2 -8.65 24.8 -8.55 L22.7 -7.75 Q20.9 -7.15 19.1 -6.7 22.55 -9.3 24.1 -13.95 L24.2 -15.15 24.35 -16.65 Q24.35 -22.75 20.5 -29.05 L20.95 -29.45 Q21.75 -30.15 21.75 -31.2 L21.75 -31.6 21.4 -32.55 20.95 -33.05 Q20.25 -33.75 19.2 -33.75 18.15 -33.75 17.4 -33.05 L17.3 -32.9 14.55 -35.45 12.4 -37.3 11.35 -38.05 Q12.85 -41.05 12.9 -42.5 L14.55 -42.05 19.65 -41.6 Q24.5 -41.6 28.75 -42.9 30.8 -43.5 31.7 -44.5 32.5 -45.55 32.5 -46.8 32.5 -48.0 31.05 -49.5 L30.05 -50.35" fill="#592c00" fill-rule="evenodd" stroke="none"/>
      <path d="M21.4 -32.55 L21.75 -31.6 21.75 -31.2 Q21.75 -30.15 20.95 -29.45 L20.5 -29.05 Q19.9 -28.65 19.2 -28.65 18.15 -28.65 17.4 -29.45 L17.2 -29.65 Q18.4 -29.65 19.5 -30.45 L20.5 -31.3 21.4 -32.55 M49.3 -45.25 L48.0 -46.1 48.65 -46.95 Q51.95 -48.9 55.2 -49.25 L54.95 -47.25 Q52.0 -47.0 49.3 -45.25" fill="#212121" fill-rule="evenodd" stroke="none"/>
      <path d="M86.3 -73.95 L86.95 -73.9 87.05 -73.25 87.15 -69.8 85.95 -69.8 85.95 -70.4 85.85 -72.95 85.8 -74.0 86.3 -73.95 M99.65 -73.95 L100.3 -73.9 100.4 -73.15 100.55 -69.8 99.3 -69.8 99.1 -74.0 99.65 -73.95" fill="#9e9e9e" fill-rule="evenodd" stroke="none"/>
      <path d="M85.35 -66.9 L85.8 -67.85 85.95 -68.95 85.95 -69.8 87.15 -69.8 87.15 -68.95 87.05 -67.9 86.95 -67.1 86.4 -67.0 85.35 -66.9 M100.4 -67.95 L100.3 -67.1 99.75 -67.0 98.3 -66.9 98.85 -68.0 99.2 -68.95 99.3 -69.8 100.55 -69.8 100.5 -68.95 100.4 -67.95" fill="#cccccc" fill-rule="evenodd" stroke="none"/>
      <path d="M100.4 -55.95 L100.4 -56.5 100.35 -56.95 100.35 -57.95 Q100.35 -60.35 100.5 -62.0 100.65 -63.65 100.9 -63.65 L101.25 -62.0 101.45 -58.55 101.45 -57.95 101.4 -55.95 101.25 -53.95 100.9 -52.3 Q100.65 -52.3 100.5 -53.95 L100.4 -55.95 M98.35 -60.3 Q98.9 -59.85 98.9 -59.2 98.9 -58.6 98.35 -58.15 97.8 -57.7 97.05 -57.7 96.25 -57.7 95.7 -58.15 95.15 -58.6 95.15 -59.2 95.15 -59.85 95.7 -60.3 96.25 -60.75 97.05 -60.75 L98.35 -60.3" fill="#000000" fill-rule="evenodd" stroke="none"/>
      <path d="M44.35 -63.45 L44.3 -63.3 43.25 -56.7 43.1 -55.95 42.9 -55.25 Q42.35 -53.4 41.4 -52.55 L41.0 -52.35 Q34.7 -51.6 30.45 -52.25 L28.85 -52.6 27.9 -54.55 27.7 -55.25 27.45 -55.95 Q26.25 -60.35 28.1 -64.5 L28.5 -65.4 28.95 -66.0 30.2 -67.9 31.25 -67.9 80.8 -67.9 80.9 -67.1 81.5 -67.0 85.35 -66.9 86.4 -67.0 86.95 -67.1 87.05 -67.9 87.15 -68.95 87.15 -69.8 87.05 -73.25 94.15 -73.25 94.25 -73.9 94.95 -73.95 95.0 -74.9 Q97.3 -75.8 99.6 -74.9 L99.65 -73.95 100.3 -73.9 100.4 -73.15 Q101.9 -72.85 102.05 -71.6 L102.05 -69.8 101.95 -69.15 101.9 -68.95 Q101.6 -68.2 100.4 -67.95 L100.3 -67.1 99.75 -67.0 99.65 -65.4 99.9 -65.4 Q100.6 -65.15 101.2 -64.5 102.1 -63.55 102.5 -61.65 L102.55 -61.35 Q103.0 -58.65 102.65 -55.95 L102.45 -54.45 Q101.7 -51.0 99.9 -50.3 L70.2 -50.3 Q65.55 -51.9 61.75 -54.85 L61.35 -55.25 60.8 -55.95 Q59.6 -57.55 58.95 -59.65 L58.6 -60.95 Q58.35 -62.0 58.25 -63.15 L57.95 -64.5 57.3 -65.4 56.35 -66.05 46.2 -65.65 45.75 -65.4 44.85 -64.5 44.35 -63.45 M64.3 -32.45 L66.25 -33.05 Q75.85 -39.2 70.2 -50.3 M12.9 -54.45 L13.15 -50.0 13.2 -49.95 Q15.6 -51.05 24.3 -50.7 L30.05 -50.35 30.75 -50.3 31.85 -50.2 39.25 -49.5 Q39.6 -46.0 37.15 -40.9 41.65 -40.85 44.45 -37.05 47.25 -32.65 52.55 -31.6 55.85 -31.0 60.25 -31.6 L64.3 -32.45 M80.8 -67.9 L80.7 -68.95 80.65 -69.8 Q80.55 -71.5 80.8 -73.25 L31.3 -73.25 30.45 -73.25 26.85 -73.25 26.1 -73.25 24.9 -73.3 24.45 -73.3 Q18.4 -73.55 16.9 -72.45 16.85 -74.35 17.2 -76.2 L20.9 -76.2 22.45 -76.2 Q22.8 -74.75 24.25 -73.9 L23.5 -73.9 Q21.2 -74.2 20.9 -76.2 M30.3 -68.95 L30.2 -67.9 M26.85 -73.2 L29.2 -73.0 Q29.85 -72.85 30.1 -71.65 L30.3 -69.8 30.3 -69.25 30.3 -68.95 M80.8 -73.25 L80.9 -73.9 81.6 -73.95 81.65 -74.9 85.85 -75.05 86.2 -74.9 86.3 -73.95 86.95 -73.9 87.05 -73.25 M26.8 -76.4 L24.75 -76.1 24.65 -73.9 24.25 -73.9 M28.0 -76.4 L26.8 -76.4 M30.1 -76.25 L30.85 -75.95 31.3 -73.25 M28.0 -76.4 L30.1 -76.25 30.45 -73.25 M15.45 -65.75 L16.45 -71.9 16.9 -72.45 M12.9 -54.45 L12.9 -54.65 12.6 -55.25 Q9.35 -61.95 15.45 -65.7 L15.45 -65.75 M12.9 -42.5 L12.85 -43.0 Q10.9 -48.85 12.9 -49.8 L13.2 -49.95 M31.25 -67.9 L30.4 -65.4 45.75 -65.4 M26.85 -73.2 L26.1 -73.25 M28.5 -65.4 L30.4 -65.4 M37.15 -40.9 L36.4 -39.5 35.0 -38.1 Q33.65 -34.85 32.75 -31.6 31.65 -27.7 31.15 -23.8 30.35 -14.05 25.55 -8.85 25.2 -8.65 24.8 -8.55 26.05 -6.75 25.75 -4.5 24.45 -3.65 22.7 -3.35 L16.35 -3.9 Q11.15 -3.25 4.65 -3.95 1.25 -4.4 1.45 -7.35 -4.3 -10.55 -0.05 -19.2 1.55 -22.75 7.5 -31.6 L9.4 -34.4 11.35 -38.05 Q12.85 -41.05 12.9 -42.5 M21.4 -32.55 L21.75 -31.6 21.75 -31.2 Q21.75 -30.15 20.95 -29.45 L20.5 -29.05 Q19.9 -28.65 19.2 -28.65 18.15 -28.65 17.4 -29.45 L17.2 -29.65 Q16.65 -30.3 16.65 -31.2 L16.7 -31.6 Q16.8 -32.35 17.3 -32.9 L17.4 -33.05 Q18.15 -33.75 19.2 -33.75 20.25 -33.75 20.95 -33.05 L21.4 -32.55 M19.1 -6.7 Q20.9 -7.15 22.7 -7.75 L24.8 -8.55 M1.45 -7.35 Q2.5 -6.75 3.95 -6.35 11.8 -5.05 19.1 -6.7 M48.0 -46.1 Q44.85 -41.65 48.75 -37.2 55.45 -33.2 64.0 -35.65 67.75 -37.65 67.9 -40.85 68.0 -43.55 63.75 -47.45 60.6 -49.25 57.25 -49.35 56.55 -48.55 56.35 -47.3 56.0 -45.3 56.9 -42.1 58.25 -39.4 60.7 -37.85 L60.4 -37.8 Q56.75 -37.3 53.75 -39.2 51.55 -41.2 50.35 -44.2 L49.3 -45.25 48.0 -46.1 48.65 -46.95 Q51.95 -48.9 55.2 -49.25 L57.25 -49.35 M99.1 -74.0 L99.65 -73.95 M100.55 -69.8 L100.5 -68.95 100.4 -67.95 M100.55 -69.8 L100.4 -73.15 M98.3 -66.9 L99.75 -67.0 M94.0 -69.8 L94.05 -68.95 94.15 -67.9 94.25 -67.1 94.85 -67.0 98.1 -66.9 M94.0 -69.8 Q93.9 -71.5 94.15 -73.25 M94.95 -65.4 L94.85 -67.0 M100.4 -55.95 L100.4 -56.5 100.35 -56.95 100.35 -57.95 Q100.35 -60.35 100.5 -62.0 100.65 -63.65 100.9 -63.65 L101.25 -62.0 101.45 -58.55 101.45 -57.95 101.4 -55.95 101.25 -53.95 100.9 -52.3 Q100.65 -52.3 100.5 -53.95 L100.4 -55.95 M94.95 -65.4 L99.65 -65.4 M94.95 -73.95 Q97.0 -74.2 99.1 -74.0 M85.8 -74.0 Q83.65 -74.2 81.6 -73.95 M81.5 -67.0 L81.6 -65.4 86.3 -65.4 86.4 -67.0 M86.3 -73.95 L85.8 -74.0 M98.35 -60.3 Q98.9 -59.85 98.9 -59.2 98.9 -58.6 98.35 -58.15 97.8 -57.7 97.05 -57.7 96.25 -57.7 95.7 -58.15 95.15 -58.6 95.15 -59.2 95.15 -59.85 95.7 -60.3 96.25 -60.75 97.05 -60.75 L98.35 -60.3 M86.3 -65.4 L94.95 -65.4 M94.15 -67.9 L87.05 -67.9 M57.3 -65.4 L81.6 -65.4" fill="none" stroke="#000000" stroke-linecap="round" stroke-linejoin="round" stroke-opacity="0.65882355" stroke-width="1.0"/>
    </g>
    <g id="sprite0" transform="matrix(1.0, 0.0, 0.0, 1.0, 57.55, 40.25)">
      <use height="80.5" transform="matrix(1.0, 0.0, 0.0, 1.0, -57.55, -40.25)" width="115.15" xlink:href="#shape1"/>
    </g>
    <g id="shape1" transform="matrix(1.0, 0.0, 0.0, 1.0, 57.55, 40.25)">
      <path d="M34.25 -37.55 Q36.55 -37.8 38.9 -37.6 L39.45 -37.55 40.15 -37.45 40.25 -36.75 40.4 -32.95 40.35 -32.05 40.25 -30.85 40.15 -30.0 39.55 -29.9 38.4 -29.75 34.15 -29.9 33.5 -30.0 33.4 -30.85 33.25 -32.05 33.2 -32.95 Q33.1 -34.85 33.4 -36.75 L33.5 -37.45 34.25 -37.55" fill="url(#gradient0)" fill-rule="evenodd" stroke="none"/>
      <path d="M39.45 -37.55 L38.9 -37.6 Q36.55 -37.8 34.25 -37.55 L34.3 -38.6 38.95 -38.75 39.35 -38.6 39.45 -37.55" fill="url(#gradient1)" fill-rule="evenodd" stroke="none"/>
      <path d="M40.25 -30.85 L40.35 -32.05 40.4 -32.95 40.25 -36.75 48.1 -36.75 Q47.8 -34.85 47.9 -32.95 L47.95 -32.05 48.1 -30.85 40.25 -30.85" fill="url(#gradient2)" fill-rule="evenodd" stroke="none"/>
      <path d="M33.4 -36.75 Q33.1 -34.85 33.2 -32.95 L33.25 -32.05 33.4 -30.85 -21.15 -30.85 -22.3 -30.85 -22.2 -32.05 -22.2 -32.35 -22.2 -32.95 -22.4 -35.0 Q-22.7 -36.3 -23.4 -36.5 L-25.95 -36.7 -25.95 -36.75 -22.0 -36.75 -21.1 -36.75 33.4 -36.75" fill="url(#gradient3)" fill-rule="evenodd" stroke="none"/>
      <path d="M34.15 -29.9 L38.4 -29.75 39.55 -29.9 39.45 -28.1 34.25 -28.1 34.15 -29.9" fill="url(#gradient4)" fill-rule="evenodd" stroke="none"/>
      <path d="M39.45 -28.1 L48.95 -28.1 54.15 -28.1 54.4 -28.1 Q55.2 -27.85 55.85 -27.15 L8.25 -27.15 7.55 -28.1 34.25 -28.1 39.45 -28.1" fill="url(#gradient5)" fill-rule="evenodd" stroke="none"/>
      <path d="M-5.2 -28.1 L-4.7 -28.4 Q-0.85 -29.95 6.5 -28.85 L7.55 -28.1 8.25 -27.15 8.55 -25.65 8.95 -23.25 9.35 -21.8 Q10.05 -19.5 11.4 -17.7 L12.0 -16.95 12.4 -16.5 Q16.6 -13.25 21.7 -11.5 27.95 0.7 17.4 7.5 L15.25 8.15 10.75 9.05 Q5.95 9.75 2.3 9.05 -3.55 7.9 -6.6 3.1 -9.7 -1.1 -14.65 -1.15 -11.95 -6.8 -12.35 -10.6 L-20.5 -11.4 -21.7 -11.5 -22.45 -11.55 -28.8 -11.95 Q-38.35 -12.35 -41.0 -11.1 L-41.05 -11.15 -41.3 -16.05 -41.35 -16.3 -41.65 -16.95 Q-45.25 -24.3 -38.5 -28.45 L-38.5 -28.5 -37.4 -35.3 -36.9 -35.9 Q-35.3 -37.1 -28.6 -36.8 L-28.1 -36.8 -26.8 -36.75 -25.95 -36.7 -23.4 -36.5 Q-22.7 -36.3 -22.4 -35.0 L-22.2 -32.95 -22.2 -32.35 -22.2 -32.05 -22.3 -30.85 -24.15 -28.1 -24.6 -27.15 Q-26.65 -22.55 -25.3 -17.7 L-25.05 -16.95 -24.8 -16.2 -23.8 -14.05 -22.0 -13.65 Q-17.35 -12.95 -10.4 -13.75 L-9.95 -14.0 Q-8.9 -14.9 -8.3 -16.95 L-8.1 -17.7 -7.95 -18.55 -6.8 -25.8 -6.7 -26.0 -6.15 -27.15 -5.2 -28.1 M7.5 -10.45 L5.2 -10.35 Q1.65 -9.95 -2.0 -7.8 L-2.7 -6.9 Q-6.15 -2.0 -1.9 2.9 5.5 7.3 14.9 4.6 19.05 2.4 19.2 -1.1 19.3 -4.1 14.65 -8.35 11.15 -10.35 7.5 -10.45" fill="url(#gradient6)" fill-rule="evenodd" stroke="none"/>
      <path d="M21.7 -11.5 Q16.6 -13.25 12.4 -16.5 L12.0 -16.95 11.4 -17.7 Q10.05 -19.5 9.35 -21.8 L8.95 -23.25 8.55 -25.65 8.25 -27.15 55.85 -27.15 Q56.8 -26.1 57.25 -24.0 L57.3 -23.65 Q57.8 -20.7 57.45 -17.7 L57.2 -16.1 Q56.4 -12.3 54.4 -11.5 L21.7 -11.5 M56.1 -20.6 L55.9 -24.4 Q55.75 -26.2 55.5 -26.2 55.25 -26.2 55.05 -24.4 54.9 -22.55 54.9 -19.95 L54.9 -18.8 54.95 -18.35 54.95 -17.7 55.05 -15.55 Q55.25 -13.7 55.5 -13.7 55.75 -13.7 55.9 -15.55 L56.05 -17.7 56.1 -19.95 56.1 -20.6 M52.7 -22.5 Q52.1 -23.0 51.25 -23.0 50.4 -23.0 49.8 -22.5 49.2 -22.0 49.2 -21.3 49.2 -20.65 49.8 -20.15 50.4 -19.65 51.25 -19.65 52.1 -19.65 52.7 -20.15 53.3 -20.65 53.3 -21.3 53.3 -22.0 52.7 -22.5" fill="url(#gradient7)" fill-rule="evenodd" stroke="none"/>
      <path d="M-2.7 -6.9 L-2.0 -7.8 Q1.65 -9.95 5.2 -10.35 L7.5 -10.45 Q6.7 -9.6 6.5 -8.2 6.1 -6.0 7.1 -2.5 8.55 0.5 11.25 2.2 L10.95 2.25 Q6.9 2.8 3.6 0.7 1.2 -1.5 -0.1 -4.8 L-1.25 -5.95 -2.7 -6.9" fill="url(#gradient8)" fill-rule="evenodd" stroke="none"/>
      <path d="M48.95 -37.55 L49.0 -38.6 Q51.55 -39.55 54.05 -38.6 L54.15 -37.55 53.5 -37.6 Q51.2 -37.8 48.95 -37.55" fill="url(#gradient9)" fill-rule="evenodd" stroke="none"/>
      <path d="M48.85 -29.9 L48.2 -30.0 48.1 -30.85 47.95 -32.05 47.9 -32.95 Q47.8 -34.85 48.1 -36.75 L48.2 -37.45 48.95 -37.55 Q51.2 -37.8 53.5 -37.6 L54.15 -37.55 54.85 -37.45 54.95 -36.65 55.1 -32.95 55.05 -32.05 54.95 -30.95 54.85 -30.0 54.25 -29.9 52.65 -29.75 52.4 -29.75 48.85 -29.9" fill="url(#gradient10)" fill-rule="evenodd" stroke="none"/>
      <path d="M48.95 -28.1 L48.85 -29.9 52.4 -29.75 52.65 -29.75 54.25 -29.9 54.15 -28.1 48.95 -28.1" fill="url(#gradient11)" fill-rule="evenodd" stroke="none"/>
      <path d="M54.95 -36.65 Q56.6 -36.3 56.75 -34.95 L56.75 -32.95 56.65 -32.25 56.6 -32.05 Q56.3 -31.2 54.95 -30.95 L55.05 -32.05 55.1 -32.95 54.95 -36.65" fill="url(#gradient12)" fill-rule="evenodd" stroke="none"/>
      <path d="M56.1 -20.6 L56.1 -19.95 56.05 -17.7 55.9 -15.55 Q55.75 -13.7 55.5 -13.7 55.25 -13.7 55.05 -15.55 L54.95 -17.7 54.95 -18.35 54.9 -18.8 54.9 -19.95 Q54.9 -22.55 55.05 -24.4 55.25 -26.2 55.5 -26.2 55.75 -26.2 55.9 -24.4 L56.1 -20.6" fill="url(#gradient13)" fill-rule="evenodd" stroke="none"/>
      <path d="M52.7 -22.5 Q53.3 -22.0 53.3 -21.3 53.3 -20.65 52.7 -20.15 52.1 -19.65 51.25 -19.65 50.4 -19.65 49.8 -20.15 49.2 -20.65 49.2 -21.3 49.2 -22.0 49.8 -22.5 50.4 -23.0 51.25 -23.0 52.1 -23.0 52.7 -22.5" fill="url(#gradient14)" fill-rule="evenodd" stroke="none"/>
      <path d="M-14.65 -1.15 L-15.45 0.4 -17.0 1.9 Q-18.5 5.5 -19.5 9.05 -20.7 13.35 -21.25 17.65 -22.15 28.4 -27.4 34.1 L-28.25 34.45 -30.55 35.3 -34.5 36.45 Q-42.55 38.3 -51.2 36.85 -52.75 36.4 -53.9 35.75 -60.25 32.25 -55.6 22.7 -53.8 18.8 -47.25 9.05 L-45.2 6.0 -43.05 2.0 Q-41.4 -1.35 -41.35 -2.9 L-41.4 -3.5 Q-43.5 -9.9 -41.35 -10.95 L-41.0 -11.1 Q-38.35 -12.35 -28.8 -11.95 L-22.45 -11.55 -21.7 -11.5 -20.5 -11.4 -12.35 -10.6 Q-11.95 -6.8 -14.65 -1.15 M-36.4 7.5 L-36.5 7.65 Q-37.05 8.25 -37.15 9.05 L-37.2 9.5 Q-37.2 10.5 -36.6 11.2 L-36.4 11.45 Q-35.55 12.3 -34.4 12.3 -33.6 12.3 -32.95 11.9 L-32.45 11.45 Q-31.6 10.65 -31.6 9.5 L-31.6 9.05 -32.0 8.05 -32.45 7.5 Q-33.25 6.7 -34.4 6.7 -35.55 6.7 -36.4 7.5" fill="url(#gradient15)" fill-rule="evenodd" stroke="none"/>
      <path d="M-5.2 -28.1 L-6.15 -27.15 -6.7 -26.0 -6.8 -25.8 -7.95 -18.55 -8.1 -17.7 -8.3 -16.95 Q-8.9 -14.9 -9.95 -14.0 L-10.4 -13.75 Q-17.35 -12.95 -22.0 -13.65 L-23.8 -14.05 -24.8 -16.2 -25.05 -16.95 -25.3 -17.7 Q-26.65 -22.55 -24.6 -27.15 L-24.15 -28.1 -22.05 -28.1 -5.2 -28.1" fill="url(#gradient16)" fill-rule="evenodd" stroke="none"/>
      <path d="M-36.9 -35.9 Q-37.0 -37.95 -36.6 -40.0 L-32.5 -40.0 Q-32.2 -37.8 -29.65 -37.5 L-28.85 -37.5 -28.4 -37.5 -28.3 -39.9 -26.05 -40.2 -24.7 -40.25 -22.4 -40.05 -22.0 -36.75 -25.95 -36.75 -26.8 -36.75 -28.1 -36.8 -28.6 -36.8 Q-35.3 -37.1 -36.9 -35.9" fill="url(#gradient17)" fill-rule="evenodd" stroke="none"/>
      <path d="M-32.5 -40.0 L-30.8 -40.0 Q-30.45 -38.4 -28.85 -37.5 L-29.65 -37.5 Q-32.2 -37.8 -32.5 -40.0" fill="url(#gradient18)" fill-rule="evenodd" stroke="none"/>
      <path d="M-22.4 -40.05 L-21.6 -39.75 -21.1 -36.75 -22.0 -36.75 -22.4 -40.05" fill="url(#gradient19)" fill-rule="evenodd" stroke="none"/>
      <path d="M-24.15 -28.1 L-22.3 -30.85 -21.15 -30.85 -22.05 -28.1 -24.15 -28.1" fill="url(#gradient20)" fill-rule="evenodd" stroke="none"/>
      <path d="M-36.4 7.5 Q-35.55 6.7 -34.4 6.7 -33.25 6.7 -32.45 7.5 L-32.0 8.05 -31.6 9.05 -31.6 9.5 Q-31.6 10.65 -32.45 11.45 L-32.95 11.9 Q-33.6 12.3 -34.4 12.3 -35.55 12.3 -36.4 11.45 L-36.6 11.2 Q-37.2 10.5 -37.2 9.5 L-37.15 9.05 Q-37.05 8.25 -36.5 7.65 L-36.4 7.5" fill="url(#gradient21)" fill-rule="evenodd" stroke="none"/>
      <path d="M-28.25 34.45 Q-26.85 36.4 -27.2 38.9 -28.6 39.85 -30.55 40.15 -33.4 40.55 -37.55 39.55 -43.25 40.25 -50.4 39.5 -54.15 39.0 -53.9 35.75 -52.75 36.4 -51.2 36.85 -42.55 38.3 -34.5 36.45 L-30.55 35.3 -28.25 34.45" fill="url(#gradient22)" fill-rule="evenodd" stroke="none"/>
    </g>
    <linearGradient gradientTransform="matrix(0.0044, 0.0, 0.0, 0.0049, 36.75, -33.7)" gradientUnits="userSpaceOnUse" id="gradient0" spreadMethod="pad" x1="-819.2" x2="819.2">
      <stop offset="0.0" stop-color="#000000"/>
      <stop offset="1.0" stop-color="#ffffff"/>
    </linearGradient>
    <linearGradient gradientTransform="matrix(0.0032, 0.0, 0.0, 9.0E-4, 36.85, -38.3)" gradientUnits="userSpaceOnUse" id="gradient1" spreadMethod="pad" x1="-819.2" x2="819.2">
      <stop offset="0.0" stop-color="#000000"/>
      <stop offset="1.0" stop-color="#ffffff"/>
    </linearGradient>
    <linearGradient gradientTransform="matrix(0.0048, 0.0, 0.0, 0.0036, 44.15, -33.8)" gradientUnits="userSpaceOnUse" id="gradient2" spreadMethod="pad" x1="-819.2" x2="819.2">
      <stop offset="0.0" stop-color="#000000"/>
      <stop offset="1.0" stop-color="#ffffff"/>
    </linearGradient>
    <linearGradient gradientTransform="matrix(0.0362, 0.0, 0.0, 0.0036, 3.7, -33.8)" gradientUnits="userSpaceOnUse" id="gradient3" spreadMethod="pad" x1="-819.2" x2="819.2">
      <stop offset="0.0" stop-color="#000000"/>
      <stop offset="1.0" stop-color="#ffffff"/>
    </linearGradient>
    <linearGradient gradientTransform="matrix(0.0033, 0.0, 0.0, 0.0011, 36.85, -29.0)" gradientUnits="userSpaceOnUse" id="gradient4" spreadMethod="pad" x1="-819.2" x2="819.2">
      <stop offset="0.0" stop-color="#000000"/>
      <stop offset="1.0" stop-color="#ffffff"/>
    </linearGradient>
    <linearGradient gradientTransform="matrix(0.0295, 0.0, 0.0, 6.0E-4, 31.7, -27.65)" gradientUnits="userSpaceOnUse" id="gradient5" spreadMethod="pad" x1="-819.2" x2="819.2">
      <stop offset="0.0" stop-color="#000000"/>
      <stop offset="1.0" stop-color="#ffffff"/>
    </linearGradient>
    <linearGradient gradientTransform="matrix(0.0409, 0.0, 0.0, 0.0282, -9.45, -13.75)" gradientUnits="userSpaceOnUse" id="gradient6" spreadMethod="pad" x1="-819.2" x2="819.2">
      <stop offset="0.0" stop-color="#000000"/>
      <stop offset="1.0" stop-color="#ffffff"/>
    </linearGradient>
    <linearGradient gradientTransform="matrix(0.0301, 0.0, 0.0, 0.0096, 32.9, -19.35)" gradientUnits="userSpaceOnUse" id="gradient7" spreadMethod="pad" x1="-819.2" x2="819.2">
      <stop offset="0.0" stop-color="#000000"/>
      <stop offset="1.0" stop-color="#ffffff"/>
    </linearGradient>
    <linearGradient gradientTransform="matrix(0.0085, 0.0, 0.0, 0.0078, 4.25, -4.05)" gradientUnits="userSpaceOnUse" id="gradient8" spreadMethod="pad" x1="-819.2" x2="819.2">
      <stop offset="0.0" stop-color="#000000"/>
      <stop offset="1.0" stop-color="#ffffff"/>
    </linearGradient>
    <linearGradient gradientTransform="matrix(0.0032, 0.0, 0.0, 9.0E-4, 51.55, -38.35)" gradientUnits="userSpaceOnUse" id="gradient9" spreadMethod="pad" x1="-819.2" x2="819.2">
      <stop offset="0.0" stop-color="#000000"/>
      <stop offset="1.0" stop-color="#ffffff"/>
    </linearGradient>
    <linearGradient gradientTransform="matrix(0.0044, 0.0, 0.0, 0.0049, 51.45, -33.7)" gradientUnits="userSpaceOnUse" id="gradient10" spreadMethod="pad" x1="-819.2" x2="819.2">
      <stop offset="0.0" stop-color="#000000"/>
      <stop offset="1.0" stop-color="#ffffff"/>
    </linearGradient>
    <linearGradient gradientTransform="matrix(0.0033, 0.0, 0.0, 0.0011, 51.55, -29.0)" gradientUnits="userSpaceOnUse" id="gradient11" spreadMethod="pad" x1="-819.2" x2="819.2">
      <stop offset="0.0" stop-color="#000000"/>
      <stop offset="1.0" stop-color="#ffffff"/>
    </linearGradient>
    <linearGradient gradientTransform="matrix(0.0011, 0.0, 0.0, 0.0035, 55.85, -33.8)" gradientUnits="userSpaceOnUse" id="gradient12" spreadMethod="pad" x1="-819.2" x2="819.2">
      <stop offset="0.0" stop-color="#000000"/>
      <stop offset="1.0" stop-color="#ffffff"/>
    </linearGradient>
    <linearGradient gradientTransform="matrix(7.0E-4, 0.0, 0.0, 0.0076, 55.5, -19.95)" gradientUnits="userSpaceOnUse" id="gradient13" spreadMethod="pad" x1="-819.2" x2="819.2">
      <stop offset="0.0" stop-color="#000000"/>
      <stop offset="1.0" stop-color="#ffffff"/>
    </linearGradient>
    <linearGradient gradientTransform="matrix(0.0025, 0.0, 0.0, 0.002, 51.25, -21.35)" gradientUnits="userSpaceOnUse" id="gradient14" spreadMethod="pad" x1="-819.2" x2="819.2">
      <stop offset="0.0" stop-color="#000000"/>
      <stop offset="1.0" stop-color="#ffffff"/>
    </linearGradient>
    <linearGradient gradientTransform="matrix(0.0276, 0.0, 0.0, 0.0302, -34.95, 12.7)" gradientUnits="userSpaceOnUse" id="gradient15" spreadMethod="pad" x1="-819.2" x2="819.2">
      <stop offset="0.0" stop-color="#000000"/>
      <stop offset="1.0" stop-color="#ffffff"/>
    </linearGradient>
    <linearGradient gradientTransform="matrix(0.0126, 0.0, 0.0, 0.009, -15.55, -20.7)" gradientUnits="userSpaceOnUse" id="gradient16" spreadMethod="pad" x1="-819.2" x2="819.2">
      <stop offset="0.0" stop-color="#000000"/>
      <stop offset="1.0" stop-color="#ffffff"/>
    </linearGradient>
    <linearGradient gradientTransform="matrix(0.0091, 0.0, 0.0, 0.0027, -29.45, -38.1)" gradientUnits="userSpaceOnUse" id="gradient17" spreadMethod="pad" x1="-819.2" x2="819.2">
      <stop offset="0.0" stop-color="#000000"/>
      <stop offset="1.0" stop-color="#ffffff"/>
    </linearGradient>
    <linearGradient gradientTransform="matrix(0.0022, 0.0, 0.0, 0.0015, -30.7, -38.75)" gradientUnits="userSpaceOnUse" id="gradient18" spreadMethod="pad" x1="-819.2" x2="819.2">
      <stop offset="0.0" stop-color="#000000"/>
      <stop offset="1.0" stop-color="#ffffff"/>
    </linearGradient>
    <linearGradient gradientTransform="matrix(8.0E-4, 0.0, 0.0, 0.002, -21.75, -38.4)" gradientUnits="userSpaceOnUse" id="gradient19" spreadMethod="pad" x1="-819.2" x2="819.2">
      <stop offset="0.0" stop-color="#000000"/>
      <stop offset="1.0" stop-color="#ffffff"/>
    </linearGradient>
    <linearGradient gradientTransform="matrix(0.0018, 0.0, 0.0, 0.0017, -22.65, -29.5)" gradientUnits="userSpaceOnUse" id="gradient20" spreadMethod="pad" x1="-819.2" x2="819.2">
      <stop offset="0.0" stop-color="#000000"/>
      <stop offset="1.0" stop-color="#ffffff"/>
    </linearGradient>
    <linearGradient gradientTransform="matrix(0.0034, 0.0, 0.0, 0.0034, -34.4, 9.5)" gradientUnits="userSpaceOnUse" id="gradient21" spreadMethod="pad" x1="-819.2" x2="819.2">
      <stop offset="0.0" stop-color="#000000"/>
      <stop offset="1.0" stop-color="#ffffff"/>
    </linearGradient>
    <linearGradient gradientTransform="matrix(0.0163, 0.0, 0.0, 0.0035, -40.55, 37.35)" gradientUnits="userSpaceOnUse" id="gradient22" spreadMethod="pad" x1="-819.2" x2="819.2">
      <stop offset="0.0" stop-color="#000000"/>
      <stop offset="1.0" stop-color="#ffffff"/>
    </linearGradient>
    <g id="shape2" transform="matrix(1.0, 0.0, 0.0, 1.0, 58.55, 55.7)">
      <path d="M-23.45 -54.5 L-21.05 -53.9 Q-19.2 -53.35 -18.4 -52.85 L-16.15 -50.9 Q-17.9 -50.65 -18.75 -49.55 L-11.85 -49.1 4.8 -45.65 5.4 -45.65 5.95 -45.95 6.15 -46.15 6.1 -46.35 6.0 -46.8 5.6 -47.35 6.4 -49.35 7.55 -52.2 7.75 -52.85 8.75 -52.7 12.05 -52.3 11.7 -52.05 11.3 -51.65 11.3 -51.55 11.45 -51.35 14.35 -51.4 22.95 -50.75 31.65 -49.65 32.95 -49.55 41.1 -48.3 49.7 -47.3 52.9 -46.65 53.5 -45.1 Q53.95 -43.15 53.2 -39.55 52.15 -35.7 50.6 -34.3 49.75 -33.55 48.35 -33.3 L46.0 -33.55 41.45 -33.85 38.65 -34.5 Q36.9 -34.65 36.7 -33.25 L39.15 -32.85 40.8 -32.6 40.85 -32.25 41.4 -31.45 40.5 -27.6 Q39.25 -22.4 36.65 -21.15 L34.85 -20.45 32.25 -20.4 30.2 -20.6 29.4 -20.5 28.7 -20.7 29.2 -19.55 29.35 -19.05 27.35 -14.15 26.8 -12.75 Q24.85 -11.55 22.15 -11.5 L19.75 -11.35 10.75 -11.75 -11.55 -12.55 -21.55 -13.0 Q-27.05 -15.15 -29.45 -15.6 -32.85 -16.25 -35.7 -18.0 -38.7 -19.8 -40.65 -22.35 L-49.4 -35.0 Q-53.15 -40.45 -56.1 -43.8 L-57.3 -45.35 -53.5 -47.5 Q-50.7 -48.95 -47.8 -50.0 -40.7 -52.6 -32.8 -53.4 L-23.45 -54.5" fill="#999999" fill-rule="evenodd" stroke="none"/>
      <path d="M7.75 -52.85 L7.55 -52.2 6.4 -49.35 5.6 -47.35 6.0 -46.8 6.1 -46.35 6.15 -46.15 5.95 -45.95 5.4 -45.65 4.8 -45.65 -11.85 -49.1 -18.75 -49.55 Q-17.9 -50.65 -16.15 -50.9 L-18.4 -52.85 Q-19.2 -53.35 -21.05 -53.9 L-23.45 -54.5 -24.3 -54.75 Q-23.2 -56.75 -18.65 -54.55 -14.35 -52.5 -13.8 -51.0 L-13.75 -50.9 -12.9 -50.8 -9.35 -50.15 3.95 -47.95 4.45 -47.85 Q4.5 -48.9 5.25 -50.6 L6.3 -53.0 7.75 -52.85 M-57.3 -45.35 L-56.1 -43.8 -55.75 -43.05 -54.6 -40.75 Q-50.0 -31.1 -43.95 -22.35 -41.5 -18.75 -37.95 -16.4 -35.95 -15.15 -33.3 -14.35 L-21.55 -13.0 -11.55 -12.55 10.75 -11.75 19.75 -11.35 22.15 -11.5 Q24.85 -11.55 26.8 -12.75 28.15 -13.7 29.1 -15.2 L29.5 -15.9 29.65 -16.6 29.65 -18.15 29.35 -19.05 29.2 -19.55 28.7 -20.7 29.4 -20.5 30.2 -20.6 32.25 -20.4 34.85 -20.45 Q42.15 -21.35 43.05 -29.05 L42.9 -29.55 41.85 -30.9 41.4 -31.45 40.85 -32.25 40.8 -32.6 39.15 -32.85 36.7 -33.25 Q36.9 -34.65 38.65 -34.5 L41.45 -33.85 46.0 -33.55 48.35 -33.3 Q50.85 -33.1 51.45 -33.3 54.6 -34.4 55.6 -36.85 L56.15 -39.5 56.6 -41.8 Q56.85 -43.7 56.6 -44.4 56.1 -45.8 52.9 -46.65 L49.7 -47.3 41.1 -48.3 32.95 -49.55 31.65 -49.65 22.95 -50.75 14.35 -51.4 11.45 -51.35 11.3 -51.55 11.3 -51.65 11.7 -52.05 12.05 -52.3 21.8 -52.65 29.8 -51.6 35.1 -50.8 36.95 -50.55 42.35 -49.7 51.4 -48.55 Q57.15 -47.7 58.1 -45.1 58.55 -43.85 57.75 -38.7 L57.05 -35.85 Q55.6 -33.1 51.65 -31.75 L45.0 -32.1 43.45 -32.2 44.65 -30.15 44.8 -29.65 Q45.2 -27.7 44.45 -25.85 41.1 -16.9 30.8 -19.05 L30.6 -19.05 Q31.35 -16.95 30.9 -14.95 L30.35 -13.5 Q28.6 -10.65 25.25 -9.9 L24.95 -9.85 22.9 -9.45 17.55 -9.2 14.0 -9.3 -8.0 -10.4 -15.05 -10.55 Q-23.9 -11.0 -32.6 -12.4 -37.15 -13.45 -40.25 -15.6 -48.7 -24.45 -54.2 -35.65 L-56.5 -40.1 -58.25 -44.3 Q-58.7 -45.45 -58.45 -46.2 L-57.7 -45.65 -57.3 -45.35" fill="#000000" fill-rule="evenodd" stroke="none"/>
      <path d="M-56.1 -43.8 Q-53.15 -40.45 -49.4 -35.0 L-40.65 -22.35 Q-38.7 -19.8 -35.7 -18.0 -32.85 -16.25 -29.45 -15.6 -27.05 -15.15 -21.55 -13.0 L-33.3 -14.35 Q-35.95 -15.15 -37.95 -16.4 -41.5 -18.75 -43.95 -22.35 -50.0 -31.1 -54.6 -40.75 L-55.75 -43.05 -56.1 -43.8 M26.8 -12.75 L27.35 -14.15 29.35 -19.05 29.65 -18.15 29.65 -16.6 29.5 -15.9 29.1 -15.2 Q28.15 -13.7 26.8 -12.75 M34.85 -20.45 L36.65 -21.15 Q39.25 -22.4 40.5 -27.6 L41.4 -31.45 41.85 -30.9 42.9 -29.55 43.05 -29.05 Q42.15 -21.35 34.85 -20.45 M48.35 -33.3 Q49.75 -33.55 50.6 -34.3 52.15 -35.7 53.2 -39.55 53.95 -43.15 53.5 -45.1 L52.9 -46.65 Q56.1 -45.8 56.6 -44.4 56.85 -43.7 56.6 -41.8 L56.15 -39.5 55.6 -36.85 Q54.6 -34.4 51.45 -33.3 50.85 -33.1 48.35 -33.3" fill="#bdbdbd" fill-rule="evenodd" stroke="none"/>
    </g>
  </defs>
</svg>
