<?xml version="1.0" encoding="UTF-8" standalone="no"?>
<svg xmlns:xlink="http://www.w3.org/1999/xlink" height="531.5px" width="460.6px" xmlns="http://www.w3.org/2000/svg">
  <g transform="matrix(1.0, 0.0, 0.0, 1.0, 193.65, 334.05)">
    <use height="21.7" transform="matrix(2.0067, 0.0, 0.0, 2.0067, 6.3466, -35.1034)" width="23.05" xlink:href="#sprite0"/>
  </g>
  <defs>
    <g id="sprite0" transform="matrix(1.0, 0.0, 0.0, 1.0, 0.5, 0.5)">
      <use height="21.7" transform="matrix(1.0, 0.0, 0.0, 1.0, -0.5, -0.5)" width="23.05" xlink:href="#shape0"/>
      <use height="20.7" transform="matrix(1.0, 0.0, 0.0, 1.0, 0.0, 0.0)" width="22.05" xlink:href="#sprite1"/>
    </g>
    <g id="shape0" transform="matrix(1.0, 0.0, 0.0, 1.0, 0.5, 0.5)">
      <path d="M22.05 11.25 L20.5 13.8 Q18.8 16.1 18.15 16.1 L18.05 16.05 17.5 15.9 19.35 13.6 15.6 15.35 14.25 13.95 11.85 15.25 9.05 13.45 7.45 14.8 4.05 13.35 6.5 16.75 8.95 16.0 11.45 17.25 13.45 16.35 15.9 17.45 15.8 17.5 Q13.8 19.1 11.95 19.1 11.25 19.1 11.1 18.75 L10.65 18.4 9.8 18.6 Q7.85 18.6 5.45 16.3 3.2 14.1 2.6 11.9 L2.2 12.5 Q1.8 11.95 1.8 10.0 1.8 7.5 2.75 5.45 L3.5 4.15 4.5 3.95 Q5.5 3.95 6.4 4.7 L6.45 4.7 Q9.4 3.5 11.7 6.15 11.6 5.95 12.6 5.4 L15.55 5.55 Q16.1 4.55 16.85 4.35 17.8 4.15 19.15 5.25 21.45 7.3 21.95 10.55 L22.05 11.25 M17.65 8.1 Q17.25 6.55 15.55 5.55 17.25 6.55 17.65 8.1 M19.0 8.5 L14.65 11.45 16.15 12.25 Q18.6 11.5 19.05 10.7 20.1 8.95 19.0 8.5 M12.35 8.5 L11.7 6.15 12.35 8.5 M4.85 8.0 Q3.65 8.55 5.05 10.2 5.5 11.0 9.3 11.65 L10.3 10.85 4.85 8.0 M4.05 7.4 Q3.8 5.7 6.45 4.7 3.8 5.7 4.05 7.4" fill="#f76200" fill-rule="evenodd" stroke="none"/>
      <path d="M17.5 15.9 L18.05 16.05 18.15 16.1 Q18.8 16.1 20.5 13.8 L22.05 11.25 Q22.15 14.1 20.1 16.5 L20.05 16.5 20.0 16.95 19.35 17.95 Q18.55 19.0 16.3 19.2 L16.25 19.2 Q15.1 20.3 12.65 20.65 10.15 20.9 9.1 19.55 6.1 19.95 3.6 17.0 L3.55 16.95 3.15 16.35 3.1 16.35 Q0.35 15.65 0.05 11.5 -0.3 7.25 2.0 5.15 2.75 4.45 3.5 4.15 L2.75 5.45 Q1.8 7.5 1.8 10.0 1.8 11.95 2.2 12.5 L2.6 11.9 Q3.2 14.1 5.45 16.3 7.85 18.6 9.8 18.6 L10.65 18.4 11.1 18.75 Q11.25 19.1 11.95 19.1 13.8 19.1 15.8 17.5 L15.9 17.45 16.15 17.55 17.5 15.9 M1.9 14.45 L3.15 16.35 1.9 14.45 M20.2 15.3 L20.05 16.5 20.2 15.3 M18.05 16.05 Q17.75 17.55 16.3 19.2 17.75 17.55 18.05 16.05" fill="#b14701" fill-rule="evenodd" stroke="none"/>
      <path d="M16.85 4.35 Q16.1 4.55 15.55 5.55 L12.6 5.4 Q11.6 5.95 11.7 6.15 9.4 3.5 6.45 4.7 L6.4 4.7 Q5.5 3.95 4.5 3.95 7.35 2.35 9.55 2.9 L10.1 0.0 12.6 1.0 12.45 3.4 Q14.85 3.1 16.85 4.35 M12.35 4.25 L12.45 3.4 12.35 4.25 M9.55 2.9 L9.4 3.45 9.55 2.9" fill="#095e10" fill-rule="evenodd" stroke="none"/>
      <path d="M19.0 8.5 Q20.1 8.95 19.05 10.7 18.6 11.5 16.15 12.25 L14.65 11.45 19.0 8.5 M15.9 17.45 L13.45 16.35 11.45 17.25 8.95 16.0 6.5 16.75 4.05 13.35 7.45 14.8 9.05 13.45 11.85 15.25 14.25 13.95 15.6 15.35 19.35 13.6 17.5 15.9 16.15 17.55 15.9 17.45 M4.85 8.0 L10.3 10.85 9.3 11.65 Q5.5 11.0 5.05 10.2 3.65 8.55 4.85 8.0" fill="#fedc56" fill-rule="evenodd" stroke="none"/>
      <path d="M22.05 11.25 L21.95 10.55 Q21.45 7.3 19.15 5.25 17.8 4.15 16.85 4.35 16.1 4.55 15.55 5.55 17.25 6.55 17.65 8.1 M4.5 3.95 Q7.35 2.35 9.55 2.9 L10.1 0.0 12.6 1.0 12.45 3.4 Q14.85 3.1 16.85 4.35 M4.5 3.95 Q5.5 3.95 6.4 4.7 L6.45 4.7 Q9.4 3.5 11.7 6.15 11.6 5.95 12.6 5.4 L15.55 5.55 M12.45 3.4 L12.35 4.25 M11.7 6.15 L12.35 8.5 M9.4 3.45 L9.55 2.9 M3.1 16.35 Q0.35 15.65 0.05 11.5 -0.3 7.25 2.0 5.15 2.75 4.45 3.5 4.15 L4.5 3.95 M6.45 4.7 Q3.8 5.7 4.05 7.4 M20.0 16.95 L19.35 17.95 Q18.55 19.0 16.3 19.2 L16.25 19.2 Q15.1 20.3 12.65 20.65 10.15 20.9 9.1 19.55 6.1 19.95 3.6 17.0 L3.55 16.95 3.1 16.35 M3.15 16.35 L1.9 14.45 M3.55 16.95 L3.15 16.35 M20.1 16.5 L20.0 16.95 20.05 16.5 20.2 15.3 M20.1 16.5 Q22.15 14.1 22.05 11.25 M16.3 19.2 Q17.75 17.55 18.05 16.05" fill="none" stroke="#000000" stroke-linecap="round" stroke-linejoin="round" stroke-opacity="0.6627451" stroke-width="1.0"/>
    </g>
    <g id="sprite1" transform="matrix(1.0, 0.0, 0.0, 1.0, 0.0, 0.0)">
      <use height="20.7" transform="matrix(1.0, 0.0, 0.0, 1.0, 0.0, 0.0)" width="22.05" xlink:href="#shape1"/>
    </g>
    <g id="shape1" transform="matrix(1.0, 0.0, 0.0, 1.0, 0.0, 0.0)">
      <path d="M4.5 3.95 Q7.35 2.35 9.55 2.9 L10.1 0.0 12.6 1.0 12.45 3.4 Q14.85 3.1 16.85 4.35 16.1 4.55 15.55 5.55 L12.6 5.4 Q11.6 5.95 11.7 6.15 9.4 3.5 6.45 4.7 L6.4 4.7 Q5.5 3.95 4.5 3.95" fill="url(#gradient0)" fill-rule="evenodd" stroke="none"/>
      <path d="M4.85 8.0 L10.3 10.85 9.3 11.65 Q5.5 11.0 5.05 10.2 3.65 8.55 4.85 8.0" fill="url(#gradient1)" fill-rule="evenodd" stroke="none"/>
      <path d="M19.0 8.5 Q20.1 8.95 19.05 10.7 18.6 11.5 16.15 12.25 L14.65 11.45 19.0 8.5" fill="url(#gradient2)" fill-rule="evenodd" stroke="none"/>
      <path d="M6.5 16.75 L4.05 13.35 7.45 14.8 9.05 13.45 11.85 15.25 14.25 13.95 15.6 15.35 19.35 13.6 16.15 17.55 13.45 16.35 11.45 17.25 8.95 16.0 6.5 16.75" fill="url(#gradient3)" fill-rule="evenodd" stroke="none"/>
      <path d="M16.85 4.35 Q17.8 4.15 19.15 5.25 21.45 7.3 21.95 10.55 L22.05 11.25 Q22.15 14.1 20.1 16.5 L20.05 16.5 20.0 16.95 19.35 17.95 Q18.55 19.0 16.3 19.2 L16.25 19.2 Q15.1 20.3 12.65 20.65 10.15 20.9 9.1 19.55 6.1 19.95 3.6 17.0 L3.15 16.35 3.1 16.35 Q0.35 15.65 0.05 11.5 -0.3 7.25 2.0 5.15 2.75 4.45 3.5 4.15 L4.5 3.95 Q5.5 3.95 6.4 4.7 L6.45 4.7 Q9.4 3.5 11.7 6.15 11.6 5.95 12.6 5.4 L15.55 5.55 Q16.1 4.55 16.85 4.35 M19.0 8.5 L14.65 11.45 16.15 12.25 Q18.6 11.5 19.05 10.7 20.1 8.95 19.0 8.5 M4.85 8.0 Q3.65 8.55 5.05 10.2 5.5 11.0 9.3 11.65 L10.3 10.85 4.85 8.0 M6.5 16.75 L8.95 16.0 11.45 17.25 13.45 16.35 16.15 17.55 19.35 13.6 15.6 15.35 14.25 13.95 11.85 15.25 9.05 13.45 7.45 14.8 4.05 13.35 6.5 16.75" fill="url(#gradient4)" fill-rule="evenodd" stroke="none"/>
    </g>
    <linearGradient gradientTransform="matrix(-0.0038, -0.0065, 0.0033, -0.0019, 10.7, 3.1)" gradientUnits="userSpaceOnUse" id="gradient0" spreadMethod="pad" x1="-819.2" x2="819.2">
      <stop offset="0.0" stop-color="#000000"/>
      <stop offset="1.0" stop-color="#ffffff"/>
    </linearGradient>
    <linearGradient gradientTransform="matrix(0.0101, 0.0058, -0.0011, 0.0019, 2.45, 7.2)" gradientUnits="userSpaceOnUse" id="gradient1" spreadMethod="pad" x1="-819.2" x2="819.2">
      <stop offset="0.0" stop-color="#000000"/>
      <stop offset="1.0" stop-color="#ffffff"/>
    </linearGradient>
    <linearGradient gradientTransform="matrix(-0.007, 0.0041, -0.0011, -0.002, 20.9, 7.7)" gradientUnits="userSpaceOnUse" id="gradient2" spreadMethod="pad" x1="-819.2" x2="819.2">
      <stop offset="0.0" stop-color="#000000"/>
      <stop offset="1.0" stop-color="#ffffff"/>
    </linearGradient>
    <linearGradient gradientTransform="matrix(0.0181, 0.0, 0.0, 0.0026, 4.7, 13.45)" gradientUnits="userSpaceOnUse" id="gradient3" spreadMethod="pad" x1="-819.2" x2="819.2">
      <stop offset="0.0" stop-color="#000000"/>
      <stop offset="1.0" stop-color="#ffffff"/>
    </linearGradient>
    <linearGradient gradientTransform="matrix(0.0069, -0.0259, 0.0099, 0.0026, 11.15, 10.9)" gradientUnits="userSpaceOnUse" id="gradient4" spreadMethod="pad" x1="-819.2" x2="819.2">
      <stop offset="0.0" stop-color="#000000"/>
      <stop offset="1.0" stop-color="#ffffff"/>
    </linearGradient>
  </defs>
</svg>
