<?xml version="1.0" encoding="UTF-8" standalone="no"?>
<svg xmlns:xlink="http://www.w3.org/1999/xlink" height="531.5px" width="460.6px" xmlns="http://www.w3.org/2000/svg">
  <g transform="matrix(1.0, 0.0, 0.0, 1.0, 193.65, 334.05)">
    <use height="101.75" transform="matrix(0.0831, 0.6732, -0.6732, 0.0831, 3.1962, -3.8794)" width="60.5" xlink:href="#shape0"/>
    <use height="265.3" transform="matrix(-0.0067, 0.2572, -0.2572, -0.0067, 6.2924, -2.1752)" width="171.5" xlink:href="#sprite0"/>
    <use height="100.5" transform="matrix(1.0, 0.0, 0.0, 1.0, -71.1, -58.3)" width="58.2" xlink:href="#shape2"/>
  </g>
  <defs>
    <g id="shape0" transform="matrix(1.0, 0.0, 0.0, 1.0, 33.35, 51.5)">
      <path d="M1.45 -49.65 L2.3 -50.85 Q3.7 -50.6 5.1 -49.85 L5.3 -49.0 1.45 -49.65 5.3 -49.0 6.25 -48.8 Q2.9 -44.95 -0.7 -42.25 L-2.4 -41.0 -8.45 -42.05 -8.05 -46.0 -7.2 -49.15 -6.4 -50.45 -1.45 -49.95 1.45 -49.65 M15.05 -45.6 Q15.1 -42.5 13.8 -39.0 L12.85 -39.1 11.7 -39.15 10.4 -39.3 2.65 -40.25 Q3.45 -43.6 6.45 -46.85 L8.05 -48.45 15.0 -46.9 15.05 -45.6 M8.45 -28.1 L11.1 -27.65 11.15 -27.65 16.65 -22.65 Q16.55 -22.2 16.6 -21.65 L16.05 -15.9 14.8 -9.0 Q7.85 -8.95 -3.5 -10.8 -12.35 -12.25 -19.5 -14.2 L-18.2 -20.0 Q-17.1 -23.9 -15.35 -25.35 L-11.1 -29.3 Q-10.45 -30.1 -9.95 -30.95 -3.8 -30.3 8.45 -28.1 M-17.1 47.75 Q-24.25 46.0 -29.75 43.05 L-29.65 41.6 -28.2 30.75 -28.15 30.7 Q-20.45 34.2 -10.5 35.95 L-7.25 36.5 Q-11.75 42.3 -17.1 47.75 M-21.75 -26.5 L-23.3 -26.65 Q-27.25 -27.25 -29.9 -30.15 -28.9 -30.75 -27.95 -31.65 -25.95 -29.55 -22.95 -29.1 -19.35 -28.55 -16.4 -30.75 -13.5 -32.85 -12.95 -36.45 -12.4 -40.05 -14.6 -43.0 L-15.2 -43.7 -14.2 -44.95 -13.85 -45.8 -12.65 -44.45 -12.0 -43.45 -12.0 -42.85 -11.65 -42.8 -11.25 -41.8 -12.8 -31.2 -21.6 -27.05 -21.75 -26.5" fill="#999999" fill-rule="evenodd" stroke="none"/>
      <path d="M2.3 -50.85 L1.45 -49.65 -1.45 -49.95 -0.95 -50.75 2.3 -50.85 M-29.75 43.05 Q-30.9 42.4 -31.95 41.85 L-30.6 29.5 -28.15 30.7 -28.2 30.75 -29.65 41.6 -29.75 43.05 M-23.9 -15.55 L-21.75 -26.5 -21.6 -27.05 -12.8 -31.2 -12.55 -31.2 -9.95 -30.95 Q-10.45 -30.1 -11.1 -29.3 L-15.35 -25.35 Q-17.1 -23.9 -18.2 -20.0 L-19.5 -14.2 -23.9 -15.55 M-29.9 -30.15 L-30.65 -31.1 Q-33.4 -34.8 -32.7 -39.4 L-31.9 -42.4 Q-31.4 -41.3 -29.8 -40.9 L-30.3 -39.05 Q-30.85 -35.45 -28.65 -32.55 L-27.95 -31.65 Q-28.9 -30.75 -29.9 -30.15 M-24.75 -48.6 L-20.0 -48.85 Q-16.35 -48.3 -13.85 -45.8 L-14.2 -44.95 -15.2 -43.7 Q-17.2 -45.95 -20.35 -46.4 -22.05 -46.65 -23.55 -46.35 -23.8 -47.25 -24.4 -48.15 L-24.75 -48.6 M-12.0 -43.45 Q-12.05 -47.3 -10.8 -50.75 L-6.4 -50.45 -7.2 -49.15 -8.05 -46.0 -8.45 -42.05 -11.1 -42.65 -11.65 -42.8 -12.0 -42.85 -12.0 -43.45" fill="#d0d0d0" fill-rule="evenodd" stroke="none"/>
      <path d="M20.55 11.8 L22.35 -5.65 Q24.0 -23.05 23.65 -25.5 L23.1 -31.45 Q22.65 -34.25 20.6 -34.95 L16.15 -36.9 12.7 -38.25 12.85 -39.1 13.8 -39.0 Q15.1 -42.5 15.05 -45.6 L24.3 -44.05 Q29.05 -22.9 24.25 19.55 21.7 24.3 19.5 22.65 L20.55 11.8 M11.7 -39.15 L11.65 -38.55 Q11.55 -35.05 10.0 -31.3 L8.45 -28.1 Q-3.8 -30.3 -9.95 -30.95 -9.1 -32.35 -8.9 -33.8 L-8.45 -42.05 -2.4 -41.0 2.65 -40.25 10.4 -39.3 11.7 -39.15" fill="#333333" fill-rule="evenodd" stroke="none"/>
      <path d="M12.7 -38.25 L16.15 -36.9 20.6 -34.95 Q22.65 -34.25 23.1 -31.45 L23.65 -25.5 Q24.0 -23.05 22.35 -5.65 L20.55 11.8 Q23.35 -18.35 20.55 -33.7 L12.2 -34.85 12.7 -38.25 M-8.45 -42.05 L-8.9 -33.8 Q-9.1 -32.35 -9.95 -30.95 L-12.55 -31.2 -12.8 -31.2 -11.25 -41.8 -11.1 -42.65 -8.45 -42.05" fill="#666666" fill-rule="evenodd" stroke="none"/>
      <path d="M12.85 -39.1 L12.7 -38.25 12.2 -34.85 11.15 -27.65 11.1 -27.65 8.45 -28.1 10.0 -31.3 Q11.55 -35.05 11.65 -38.55 L11.7 -39.15 12.85 -39.1" fill="#151515" fill-rule="evenodd" stroke="none"/>
      <path d="M2.65 -40.25 L-2.4 -41.0 -0.7 -42.25 Q2.9 -44.95 6.25 -48.8 L8.05 -48.45 6.45 -46.85 Q3.45 -43.6 2.65 -40.25 M-31.9 -42.4 Q-30.75 -44.95 -28.35 -46.8 -26.6 -48.0 -24.75 -48.6 L-24.4 -48.15 Q-23.8 -47.25 -23.55 -46.35 -25.35 -45.95 -26.85 -44.8 -28.95 -43.2 -29.8 -40.9 -31.4 -41.3 -31.9 -42.4" fill="#ffffff" fill-rule="evenodd" stroke="none"/>
      <path d="M17.05 -9.05 Q14.3 14.85 10.3 36.3 3.75 38.05 -7.25 36.5 -3.15 31.3 0.25 25.8 10.8 9.1 14.8 -9.0 L17.05 -9.05" fill="#38381e" fill-rule="evenodd" stroke="none"/>
      <path d="M16.65 -22.65 L18.4 -21.05 17.05 -9.05 14.8 -9.0 16.05 -15.9 16.6 -21.65 Q16.55 -22.2 16.65 -22.65 M10.3 36.3 L8.05 47.85 Q1.75 51.2 -12.4 48.7 L-17.1 47.75 Q-11.75 42.3 -7.25 36.5 3.75 38.05 10.3 36.3" fill="#626262" fill-rule="evenodd" stroke="none"/>
      <path d="M-30.6 29.5 Q-27.9 5.65 -23.9 -15.55 L-19.5 -14.2 Q-12.35 -12.25 -3.5 -10.8 7.85 -8.95 14.8 -9.0 10.8 9.1 0.25 25.8 -3.15 31.3 -7.25 36.5 L-10.5 35.95 Q-20.45 34.2 -28.15 30.7 L-30.6 29.5" fill="#7a7a42" fill-rule="evenodd" stroke="none"/>
      <path d="M1.45 -49.65 L5.3 -49.0 5.1 -49.85 Q3.7 -50.6 2.3 -50.85 L-0.95 -50.75 -1.45 -49.95 1.45 -49.65 M20.55 11.8 L19.5 22.65 Q21.7 24.3 24.25 19.55 29.05 -22.9 24.3 -44.05 L15.05 -45.6 Q15.1 -42.5 13.8 -39.0 L12.85 -39.1 12.7 -38.25 12.2 -34.85 20.55 -33.7 Q23.35 -18.35 20.55 11.8 M8.45 -28.1 L11.1 -27.65 11.15 -27.65 12.2 -34.85 M12.85 -39.1 L11.7 -39.15 10.4 -39.3 2.65 -40.25 -2.4 -41.0 -8.45 -42.05 -11.1 -42.65 -11.25 -41.8 -12.8 -31.2 -12.55 -31.2 -9.95 -30.95 Q-3.8 -30.3 8.45 -28.1 M8.05 -48.45 L15.0 -46.9 15.05 -45.6 M6.25 -48.8 L5.3 -49.0 M6.25 -48.8 L8.05 -48.45 M16.65 -22.65 L18.4 -21.05 17.05 -9.05 Q14.3 14.85 10.3 36.3 L8.05 47.85 Q1.75 51.2 -12.4 48.7 L-17.1 47.75 Q-24.25 46.0 -29.75 43.05 -30.9 42.4 -31.95 41.85 L-30.6 29.5 Q-27.9 5.65 -23.9 -15.55 L-21.75 -26.5 -23.3 -26.65 Q-27.25 -27.25 -29.9 -30.15 L-30.65 -31.1 Q-33.4 -34.8 -32.7 -39.4 L-31.9 -42.4 Q-30.75 -44.95 -28.35 -46.8 -26.6 -48.0 -24.75 -48.6 L-20.0 -48.85 Q-16.35 -48.3 -13.85 -45.8 L-12.65 -44.45 -12.0 -43.45 Q-12.05 -47.3 -10.8 -50.75 L-6.4 -50.45 -1.45 -49.95 M16.65 -22.65 L11.15 -27.65 M17.05 -9.05 L14.8 -9.0 Q7.85 -8.95 -3.5 -10.8 -12.35 -12.25 -19.5 -14.2 L-23.9 -15.55 M-7.25 36.5 Q3.75 38.05 10.3 36.3 M-15.2 -43.7 L-14.6 -43.0 Q-12.4 -40.05 -12.95 -36.45 -13.5 -32.85 -16.4 -30.75 -19.35 -28.55 -22.95 -29.1 -25.95 -29.55 -27.95 -31.65 L-28.65 -32.55 Q-30.85 -35.45 -30.3 -39.05 L-29.8 -40.9 Q-28.95 -43.2 -26.85 -44.8 -25.35 -45.95 -23.55 -46.35 -22.05 -46.65 -20.35 -46.4 -17.2 -45.95 -15.2 -43.7 M-11.65 -42.8 L-11.25 -41.8 M-12.0 -43.45 L-12.0 -42.85 -11.65 -42.8 -11.1 -42.65 M-12.8 -31.2 L-21.6 -27.05 -21.75 -26.5 M-30.6 29.5 L-28.15 30.7 Q-20.45 34.2 -10.5 35.95 L-7.25 36.5" fill="none" stroke="#000000" stroke-linecap="round" stroke-linejoin="round" stroke-opacity="0.6627451" stroke-width="1.0"/>
      <path d="M-6.45 22.55 L-12.1 23.35 -16.8 22.65 -20.6 21.4 -23.1 15.5 -20.7 15.85 -21.5 -0.1 -14.8 11.1 -5.85 1.1 -9.05 14.15 -2.25 14.35 -9.35 20.95 -6.45 22.55" fill="#ffffff" fill-rule="evenodd" stroke="none"/>
    </g>
    <g id="sprite0" transform="matrix(1.0, 0.0, 0.0, 1.0, 85.75, 132.65)">
      <use height="265.3" transform="matrix(1.0, 0.0, 0.0, 1.0, -85.75, -132.65)" width="171.5" xlink:href="#shape1"/>
    </g>
    <g id="shape1" transform="matrix(1.0, 0.0, 0.0, 1.0, 85.75, 132.65)">
      <path d="M9.65 -129.05 L12.1 -128.95 16.95 -128.75 35.65 -127.25 36.35 -123.95 Q37.7 -115.95 35.65 -106.4 L33.15 -106.2 30.05 -106.0 26.7 -105.8 6.1 -105.15 -7.4 -105.2 -23.5 -105.75 -30.6 -106.2 -32.15 -106.3 -33.05 -106.4 -33.3 -107.8 Q-35.0 -117.85 -33.05 -127.25 L-21.5 -128.35 -8.45 -129.0 -0.65 -129.15 9.65 -129.05" fill="url(#gradient0)" fill-rule="evenodd" stroke="none"/>
      <path d="M-8.45 -129.0 L-7.45 -131.2 Q-3.3 -132.75 0.95 -132.65 4.85 -132.6 8.8 -131.2 L9.65 -129.05 -0.65 -129.15 -8.45 -129.0" fill="url(#gradient1)" fill-rule="evenodd" stroke="none"/>
      <path d="M33.15 -94.85 L33.15 -75.7 32.95 -75.7 25.85 -75.9 Q-6.9 -76.8 -23.05 -76.1 L-29.95 -75.7 -30.6 -75.65 -30.6 -103.9 -30.6 -106.2 -23.5 -105.75 -7.4 -105.2 6.1 -105.15 26.7 -105.8 30.05 -106.0 33.15 -106.2 33.15 -94.85" fill="url(#gradient2)" fill-rule="evenodd" stroke="none"/>
      <path d="M32.95 -75.7 L54.55 -61.4 55.85 -29.55 49.9 -28.45 Q31.8 -25.65 1.65 -26.05 -21.95 -26.35 -41.5 -28.75 L-53.45 -30.45 Q-52.95 -45.45 -52.05 -60.0 L-52.0 -61.4 -30.6 -75.65 -29.95 -75.7 -23.05 -76.1 Q-6.9 -76.8 25.85 -75.9 L32.95 -75.7" fill="url(#gradient3)" fill-rule="evenodd" stroke="none"/>
      <path d="M55.85 -29.55 Q57.9 33.9 55.95 91.3 39.5 98.45 10.3 98.65 L1.65 98.55 Q-25.0 97.85 -46.5 91.7 L-46.55 91.7 -53.35 89.6 Q-55.55 26.35 -53.45 -30.45 L-41.5 -28.75 Q-21.95 -26.35 1.65 -26.05 31.8 -25.65 49.9 -28.45 L55.85 -29.55" fill="url(#gradient4)" fill-rule="evenodd" stroke="none"/>
      <path d="M36.35 -123.95 L60.9 -123.65 Q81.65 -70.35 85.75 42.15 81.05 55.6 74.5 52.15 L73.2 23.45 Q68.6 -56.1 55.25 -95.2 L33.15 -94.85 33.15 -106.2 35.65 -106.4 Q37.7 -115.95 36.35 -123.95" fill="url(#gradient5)" fill-rule="evenodd" stroke="none"/>
      <path d="M-52.05 -60.0 L-56.25 -59.75 Q-66.85 -59.75 -74.75 -66.25 L-77.1 -68.4 Q-85.75 -77.05 -85.75 -89.25 -85.75 -93.5 -84.7 -97.3 -82.75 -104.45 -77.1 -110.1 -73.15 -114.05 -68.45 -116.2 -62.85 -118.75 -56.25 -118.75 -46.5 -118.75 -39.0 -113.2 -37.15 -111.85 -35.4 -110.1 L-33.3 -107.8 -33.05 -106.4 -32.15 -106.3 -30.6 -103.9 -30.6 -75.65 -52.0 -61.4 -52.05 -60.0 M-56.25 -112.35 Q-60.7 -112.35 -64.55 -110.85 -68.95 -109.2 -72.55 -105.6 -77.5 -100.65 -78.85 -94.25 -79.35 -91.85 -79.35 -89.25 -79.35 -79.7 -72.55 -72.9 L-70.3 -70.9 Q-64.25 -66.15 -56.25 -66.15 -46.65 -66.15 -39.9 -72.9 -33.1 -79.7 -33.1 -89.25 -33.1 -98.8 -39.9 -105.6 L-41.7 -107.25 Q-47.9 -112.35 -56.25 -112.35" fill="url(#gradient6)" fill-rule="evenodd" stroke="none"/>
      <path d="M55.95 91.3 L54.55 122.15 Q39.4 133.55 1.6 132.55 L-10.95 131.85 Q-30.2 130.05 -45.85 124.55 L-52.0 122.15 -53.35 89.6 -46.55 91.7 -46.55 91.8 -46.5 91.7 Q-25.0 97.85 1.65 98.55 L10.3 98.65 Q39.5 98.45 55.95 91.3" fill="url(#gradient7)" fill-rule="evenodd" stroke="none"/>
    </g>
    <linearGradient gradientTransform="matrix(0.0433, 0.0, 0.0, 0.0146, 1.4, -117.15)" gradientUnits="userSpaceOnUse" id="gradient0" spreadMethod="pad" x1="-819.2" x2="819.2">
      <stop offset="0.0" stop-color="#ffffff"/>
      <stop offset="1.0" stop-color="#000000"/>
    </linearGradient>
    <linearGradient gradientTransform="matrix(0.011, 0.0, 0.0, 0.0022, 0.6, -130.85)" gradientUnits="userSpaceOnUse" id="gradient1" spreadMethod="pad" x1="-819.2" x2="819.2">
      <stop offset="0.0" stop-color="#ffffff"/>
      <stop offset="1.0" stop-color="#000000"/>
    </linearGradient>
    <linearGradient gradientTransform="matrix(0.0389, 0.0, 0.0, 0.0186, 1.25, -90.95)" gradientUnits="userSpaceOnUse" id="gradient2" spreadMethod="pad" x1="-819.2" x2="819.2">
      <stop offset="0.0" stop-color="#ffffff"/>
      <stop offset="1.0" stop-color="#000000"/>
    </linearGradient>
    <linearGradient gradientTransform="matrix(0.0667, 0.0, 0.0, 0.0307, 1.2, -51.2)" gradientUnits="userSpaceOnUse" id="gradient3" spreadMethod="pad" x1="-819.2" x2="819.2">
      <stop offset="0.0" stop-color="#ffffff"/>
      <stop offset="1.0" stop-color="#000000"/>
    </linearGradient>
    <linearGradient gradientTransform="matrix(0.0589, 0.034, -0.0394, 0.0682, 1.2, 34.1)" gradientUnits="userSpaceOnUse" id="gradient4" spreadMethod="pad" x1="-819.2" x2="819.2">
      <stop offset="0.0" stop-color="#ffffff"/>
      <stop offset="1.0" stop-color="#000000"/>
    </linearGradient>
    <linearGradient gradientTransform="matrix(0.031, 0.0083, -0.0279, 0.1042, 59.45, -35.55)" gradientUnits="userSpaceOnUse" id="gradient5" spreadMethod="pad" x1="-819.2" x2="819.2">
      <stop offset="0.0" stop-color="#ffffff"/>
      <stop offset="1.0" stop-color="#000000"/>
    </linearGradient>
    <linearGradient gradientTransform="matrix(0.0238, 0.0238, -0.0255, 0.0255, -58.2, -89.25)" gradientUnits="userSpaceOnUse" id="gradient6" spreadMethod="pad" x1="-819.2" x2="819.2">
      <stop offset="0.0" stop-color="#ffffff"/>
      <stop offset="1.0" stop-color="#000000"/>
    </linearGradient>
    <linearGradient gradientTransform="matrix(0.0658, 0.0105, -0.0041, 0.0259, 1.3, 111.1)" gradientUnits="userSpaceOnUse" id="gradient7" spreadMethod="pad" x1="-819.2" x2="819.2">
      <stop offset="0.0" stop-color="#ffffff"/>
      <stop offset="1.0" stop-color="#000000"/>
    </linearGradient>
    <g id="shape2" transform="matrix(1.0, 0.0, 0.0, 1.0, 71.1, 58.3)">
      <path d="M-53.35 -57.6 L-53.15 -57.6 -52.05 -57.65 -52.1 -57.55 -53.65 -53.55 -55.75 -48.4 Q-59.35 -39.2 -61.4 -32.6 -63.5 -26.1 -64.95 -20.05 -65.65 -17.6 -65.8 -15.05 L-66.35 -8.1 Q-66.6 -3.65 -65.75 2.15 L-63.65 15.5 Q-62.35 23.1 -61.45 26.35 L-60.15 29.8 -59.0 31.85 -60.5 30.45 -60.7 30.2 Q-62.35 27.95 -63.35 25.1 -64.45 22.0 -66.0 14.75 L-68.5 1.95 Q-69.5 -3.6 -69.25 -7.85 L-68.8 -14.5 Q-68.6 -16.9 -67.9 -19.25 -66.35 -25.05 -64.1 -31.25 -61.9 -37.55 -58.0 -46.35 L-54.95 -53.15 -53.55 -56.35 Q-53.05 -57.6 -53.35 -57.1 L-53.35 -57.15 -53.35 -57.6 M-16.05 -43.45 L-14.05 -40.85 -20.15 -27.05 Q-22.3 -22.05 -23.45 -18.4 L-24.05 -15.9 Q-24.8 -12.65 -24.8 -11.35 L-24.3 -7.5 Q-23.85 -5.05 -23.15 -3.65 L-22.95 -3.1 -24.7 -3.15 -24.9 -3.7 Q-25.55 -5.2 -25.9 -7.75 L-26.3 -11.8 Q-26.3 -13.15 -25.55 -16.55 L-25.0 -19.15 -21.95 -28.2 -16.05 -43.45 M-21.5 -3.05 L-19.75 -3.1 Q-19.05 -3.1 -18.55 -2.3 L-17.75 -0.45 -17.7 -0.3 -16.85 2.35 -16.7 2.65 -16.3 4.2 Q-16.3 4.65 -16.55 4.85 L-17.15 5.1 -17.15 5.15 -17.8 5.25 -19.7 5.75 -20.05 5.6 -19.6 5.5 -19.6 5.45 -19.1 5.15 -18.9 4.85 -18.85 4.5 -19.25 2.85 -19.3 2.55 -20.1 -0.2 -20.1 -0.4 -20.8 -2.3 -21.5 -3.05 M-24.9 9.4 L-25.0 9.75 -25.85 15.4 -25.85 16.3 -25.85 17.05 -25.85 18.1 -26.05 19.25 -26.2 21.5 -26.25 22.5 Q-26.6 24.0 -26.6 28.65 L-27.5 35.25 -28.0 36.65 Q-29.05 39.1 -31.25 40.3 -29.75 37.5 -29.05 33.35 -28.55 30.55 -27.9 20.7 L-27.75 17.75 -27.25 12.9 Q-27.05 11.35 -25.45 9.85 L-24.9 9.4" fill="#bdbdbd" fill-rule="evenodd" stroke="none"/>
      <path d="M-14.05 -40.85 L-13.9 -41.25 -13.35 -40.9 -13.2 -40.75 Q-12.9 -40.35 -12.9 -39.5 -15.55 -34.5 -18.15 -28.4 -23.4 -16.3 -23.4 -10.4 L-22.9 -6.5 -22.45 -4.7 -22.35 -4.45 -20.05 -4.75 -17.7 -4.45 -16.9 -3.05 Q-15.55 -0.4 -15.0 2.6 L-14.85 3.25 Q-14.5 4.95 -14.5 5.55 -14.5 6.45 -15.1 6.7 L-17.0 7.15 -17.45 7.2 Q-19.2 7.45 -20.95 8.4 -22.75 9.3 -23.2 11.05 -23.75 12.75 -23.95 15.35 L-24.05 16.75 -24.1 17.05 -24.4 18.9 -24.55 20.05 -24.5 20.6 -24.75 25.35 -25.25 32.0 -25.75 35.25 -26.1 36.85 Q-27.45 42.0 -32.4 42.2 L-33.4 42.15 Q-36.9 41.9 -39.5 39.6 L-40.8 38.35 -41.2 37.7 Q-44.0 39.05 -45.65 39.05 L-45.95 39.05 Q-47.5 39.0 -48.95 38.35 -51.2 37.4 -53.2 35.05 L-53.2 35.0 -53.4 35.1 -53.85 35.2 -54.9 35.25 Q-62.3 35.25 -65.4 24.75 L-66.85 19.45 -68.1 13.8 -69.8 3.3 Q-71.1 -4.15 -71.1 -7.8 -71.1 -11.5 -69.75 -17.3 -68.4 -23.15 -60.9 -42.85 -54.05 -61.0 -53.4 -57.8 L-53.35 -57.6 -53.35 -57.15 -53.35 -57.1 Q-53.05 -57.6 -53.55 -56.35 L-54.95 -53.15 -58.0 -46.35 Q-61.9 -37.55 -64.1 -31.25 -66.35 -25.05 -67.9 -19.25 -68.6 -16.9 -68.8 -14.5 L-69.25 -7.85 Q-69.5 -3.6 -68.5 1.95 L-66.0 14.75 Q-64.45 22.0 -63.35 25.1 -62.35 27.95 -60.7 30.2 L-60.5 30.45 -59.0 31.85 Q-57.4 32.8 -54.9 33.15 L-54.6 33.2 -55.1 32.45 Q-56.0 31.0 -56.0 30.0 L-55.65 29.2 Q-55.4 28.85 -52.6 32.9 -49.85 36.95 -47.0 36.9 -44.2 36.8 -42.55 35.55 L-41.95 35.15 -41.9 35.0 -41.7 34.8 -41.25 34.75 -40.8 34.85 -39.35 36.75 -38.5 38.25 -35.4 39.95 -33.4 40.45 -31.95 40.65 -31.25 40.3 Q-29.05 39.1 -28.0 36.65 L-27.5 35.25 -26.6 28.65 Q-26.6 24.0 -26.25 22.5 L-26.2 21.5 -26.05 19.25 -25.85 18.1 -25.85 17.05 -25.85 16.3 -25.85 15.4 -25.0 9.75 -24.9 9.4 -24.0 8.15 -22.9 7.3 -22.35 6.95 Q-21.05 6.2 -19.7 5.75 L-17.8 5.25 -17.15 5.15 -17.15 5.1 -16.55 4.85 Q-16.3 4.65 -16.3 4.2 L-16.7 2.65 -16.85 2.35 -17.7 -0.3 -17.75 -0.45 -18.55 -2.3 Q-19.05 -3.1 -19.75 -3.1 L-21.5 -3.05 -22.95 -3.1 -23.15 -3.65 Q-23.85 -5.05 -24.3 -7.5 L-24.8 -11.35 Q-24.8 -12.65 -24.05 -15.9 L-23.45 -18.4 Q-22.3 -22.05 -20.15 -27.05 L-14.05 -40.85" fill="#000000" fill-rule="evenodd" stroke="none"/>
      <path d="M-52.05 -57.65 Q-27.95 -57.95 -16.05 -43.45 L-21.95 -28.2 -25.0 -19.15 -25.55 -16.55 Q-26.3 -13.15 -26.3 -11.8 L-25.9 -7.75 Q-25.55 -5.2 -24.9 -3.7 L-24.7 -3.15 -22.95 -3.1 -21.5 -3.05 -20.8 -2.3 -20.1 -0.4 -20.1 -0.2 -19.3 2.55 -19.25 2.85 -18.85 4.5 -18.9 4.85 -19.1 5.15 -19.6 5.45 -19.6 5.5 -20.05 5.6 -19.7 5.75 Q-21.05 6.2 -22.35 6.95 L-22.9 7.3 -24.0 8.15 -24.9 9.4 -25.45 9.85 Q-27.05 11.35 -27.25 12.9 L-27.75 17.75 -27.9 20.7 Q-28.55 30.55 -29.05 33.35 -29.75 37.5 -31.25 40.3 L-31.95 40.65 -33.4 40.45 -35.4 39.95 -38.5 38.25 -39.35 36.75 -40.8 34.85 -41.25 34.75 -41.7 34.8 -41.9 35.0 -41.95 35.15 -42.55 35.55 Q-44.2 36.8 -47.0 36.9 -49.85 36.95 -52.6 32.9 -55.4 28.85 -55.65 29.2 L-56.0 30.0 Q-56.0 31.0 -55.1 32.45 L-54.6 33.2 -54.9 33.15 Q-57.4 32.8 -59.0 31.85 L-60.15 29.8 -61.45 26.35 Q-62.35 23.1 -63.65 15.5 L-65.75 2.15 Q-66.6 -3.65 -66.35 -8.1 L-65.8 -15.05 Q-65.65 -17.6 -64.95 -20.05 -63.5 -26.1 -61.4 -32.6 -59.35 -39.2 -55.75 -48.4 L-53.65 -53.55 -52.1 -57.55 -52.05 -57.65" fill="#999999" fill-rule="evenodd" stroke="none"/>
    </g>
  </defs>
</svg>
