<?xml version="1.0" encoding="UTF-8" standalone="no"?>
<svg xmlns:xlink="http://www.w3.org/1999/xlink" height="531.5px" width="460.6px" xmlns="http://www.w3.org/2000/svg">
  <g transform="matrix(1.0, 0.0, 0.0, 1.0, 193.65, 334.05)">
    <use height="96.4" transform="matrix(1.0799, 0.0, 0.0, 1.0799, 28.2849, -117.6995)" width="73.05" xlink:href="#sprite0"/>
    <use height="60.1" transform="matrix(1.0, 0.0, 0.0, 1.0, -46.75, -68.5)" width="168.1" xlink:href="#shape2"/>
  </g>
  <defs>
    <g id="sprite0" transform="matrix(1.0, 0.0, 0.0, 1.0, 36.5, 48.2)">
      <use height="96.4" transform="matrix(1.0, 0.0, 0.0, 1.0, -36.5, -48.2)" width="73.05" xlink:href="#shape0"/>
      <use height="95.4" transform="matrix(1.0, 0.0, 0.0, 1.0, -36.0, -47.7)" width="72.05" xlink:href="#sprite1"/>
    </g>
    <g id="shape0" transform="matrix(1.0, 0.0, 0.0, 1.0, 36.5, 48.2)">
      <path d="M-35.8 -41.0 L-35.8 -41.05 Q-35.75 -43.8 -25.35 -45.75 -14.85 -47.7 -0.05 -47.7 14.75 -47.7 25.25 -45.75 35.5 -43.85 35.75 -41.1 L35.75 -40.95 Q35.7 -40.3 35.05 -39.65 L33.85 -38.8 33.85 -39.75 33.85 -39.85 Q33.7 -42.5 24.0 -44.3 14.15 -46.1 0.25 -46.1 -13.65 -46.1 -23.5 -44.3 -33.35 -42.45 -33.35 -39.85 L-33.3 -39.55 -33.3 -38.5 -35.15 -39.7 Q-35.6 -40.15 -35.7 -40.55 L-35.75 -40.7 -35.8 -41.0" fill="#737373" fill-rule="evenodd" stroke="none"/>
      <path d="M32.95 4.65 L33.55 9.85 27.35 14.15 33.25 14.75 32.1 19.25 33.75 36.05 33.85 37.4 Q33.85 40.0 24.0 41.8 L12.1 43.25 Q17.1 30.15 17.1 28.2 L17.1 27.45 13.45 26.35 10.1 25.2 13.95 19.8 Q17.35 14.75 17.35 13.45 L15.35 6.75 32.95 4.65 M-13.85 47.15 L-24.75 45.65 Q-34.2 43.8 -34.95 41.2 L-34.95 41.15 Q-35.4 39.5 -35.05 38.0 L-35.0 38.25 -34.95 38.45 -34.35 39.3 Q-32.55 41.35 -24.75 42.85 L-11.8 44.55 -13.85 47.15 M-33.3 -35.85 Q-35.35 -36.8 -35.7 -37.9 L-35.7 -37.95 Q-36.2 -39.55 -35.8 -41.0 L-35.75 -40.7 -35.7 -40.55 Q-35.6 -40.15 -35.15 -39.7 L-33.3 -38.5 -31.9 -37.95 Q-33.0 -38.65 -33.25 -39.4 L-33.3 -39.55 -33.35 -39.85 Q-33.35 -42.45 -23.5 -44.3 -13.65 -46.1 0.25 -46.1 14.15 -46.1 24.0 -44.3 33.7 -42.5 33.85 -39.85 L33.85 -39.75 Q33.8 -39.1 33.05 -38.45 30.45 -37.3 25.25 -36.35 L13.55 -34.85 9.4 -34.6 -0.05 -34.4 Q-6.0 -34.4 -11.25 -34.7 L-13.3 -32.15 Q-19.9 -32.65 -25.35 -33.7 -30.7 -34.65 -33.3 -35.85 M29.85 -40.25 Q29.85 -41.9 21.2 -43.1 L0.4 -44.35 -20.45 -43.1 Q-29.05 -41.9 -29.05 -40.25 -29.05 -38.55 -20.45 -37.35 L-9.85 -36.4 Q-5.1 -36.15 0.4 -36.15 5.15 -36.15 9.35 -36.3 L21.2 -37.35 Q29.85 -38.55 29.85 -40.25 M19.4 29.8 L18.7 33.65 26.3 29.2 22.6 28.95 19.4 29.8 M16.65 21.8 L27.65 26.55 27.65 16.55 16.65 21.8 M-11.25 -34.7 Q-19.05 -35.2 -25.35 -36.35 -29.4 -37.1 -31.9 -37.95 -29.4 -37.1 -25.35 -36.35 -19.05 -35.2 -11.25 -34.7" fill="#cccccc" fill-rule="evenodd" stroke="none"/>
      <path d="M35.75 -40.95 Q36.4 -39.45 35.75 -38.05 35.55 -37.05 33.85 -36.15 31.25 -34.8 25.25 -33.7 19.35 -32.55 12.05 -32.05 L12.8 -33.55 13.55 -34.85 25.25 -36.35 Q30.45 -37.3 33.05 -38.45 L33.85 -38.8 35.05 -39.65 Q35.7 -40.3 35.75 -40.95" fill="#adadad" fill-rule="evenodd" stroke="none"/>
      <path d="M29.85 -40.25 Q29.85 -38.55 21.2 -37.35 L9.35 -36.3 Q5.15 -36.15 0.4 -36.15 -5.1 -36.15 -9.85 -36.4 L-20.45 -37.35 Q-29.05 -38.55 -29.05 -40.25 -29.05 -41.9 -20.45 -43.1 L0.4 -44.35 21.2 -43.1 Q29.85 -41.9 29.85 -40.25 M13.35 -38.45 Q18.75 -39.2 18.75 -40.25 18.75 -41.3 13.35 -42.05 L0.4 -42.8 -12.55 -42.05 Q-17.9 -41.3 -17.9 -40.25 -17.9 -39.2 -12.55 -38.45 L0.4 -37.7 13.35 -38.45" fill="#bababa" fill-rule="evenodd" stroke="none"/>
      <path d="M33.85 -36.15 L33.8 -33.65 Q21.9 -29.95 9.65 -28.95 L9.6 -28.95 Q-11.3 -27.2 -33.3 -33.25 L-33.3 -35.85 Q-30.7 -34.65 -25.35 -33.7 -19.9 -32.65 -13.3 -32.15 L-0.05 -31.7 9.5 -31.9 12.05 -32.05 Q19.35 -32.55 25.25 -33.7 31.25 -34.8 33.85 -36.15" fill="#363b9c" fill-rule="evenodd" stroke="none"/>
      <path d="M13.35 -38.45 L0.4 -37.7 -12.55 -38.45 Q-17.9 -39.2 -17.9 -40.25 -17.9 -41.3 -12.55 -42.05 L0.4 -42.8 13.35 -42.05 Q18.75 -41.3 18.75 -40.25 18.75 -39.2 13.35 -38.45" fill="#d9d9d9" fill-rule="evenodd" stroke="none"/>
      <path d="M33.8 -33.65 L32.95 4.65 15.35 6.75 13.75 1.3 Q10.1 -11.3 10.1 -14.95 L9.75 -25.65 9.65 -28.35 9.6 -28.95 9.65 -28.95 Q21.9 -29.95 33.8 -33.65" fill="#525bcf" fill-rule="evenodd" stroke="none"/>
      <path d="M-32.1 4.05 L-31.55 0.5 -33.3 -10.0 -33.3 -33.25 Q-11.3 -27.2 9.6 -28.95 L9.65 -28.35 9.75 -25.65 10.1 -14.95 Q10.1 -11.3 13.75 1.3 L15.35 6.75 Q0.05 7.8 -15.45 6.35 L-18.35 6.05 -18.55 6.05 -32.1 4.05" fill="#66b7ff" fill-rule="evenodd" stroke="none"/>
      <path d="M33.55 9.85 L33.85 12.45 33.25 14.75 27.35 14.15 33.55 9.85 M3.5 47.7 L-0.05 47.7 -13.85 47.15 -11.8 44.55 -0.05 44.9 4.8 44.85 4.55 45.35 3.5 47.7 M-33.35 35.75 L-33.35 12.25 -32.1 4.05 -18.55 6.05 -18.35 6.05 -15.45 6.35 Q0.05 7.8 15.35 6.75 L17.35 13.45 Q17.35 14.75 13.95 19.8 L10.1 25.2 13.45 26.35 17.1 27.45 17.1 28.2 Q17.1 30.15 12.1 43.25 L5.4 43.6 0.25 43.65 -10.85 43.35 -23.5 41.8 Q-33.35 40.0 -33.35 37.4 L-33.35 35.75 M13.55 -34.85 L12.8 -33.55 12.05 -32.05 9.5 -31.9 -0.05 -31.7 -13.3 -32.15 -11.25 -34.7 Q-6.0 -34.4 -0.05 -34.4 L9.4 -34.6 13.55 -34.85 M19.4 29.8 L22.6 28.95 26.3 29.2 18.7 33.65 19.4 29.8 M16.65 21.8 L27.65 16.55 27.65 26.55 16.65 21.8" fill="#ffffff" fill-rule="evenodd" stroke="none"/>
      <path d="M34.95 38.05 Q35.6 39.6 34.95 41.05 34.45 43.7 24.7 45.65 18.4 46.9 10.5 47.4 L3.5 47.7 4.55 45.35 4.8 44.85 11.6 44.55 Q18.85 44.0 24.7 42.85 32.35 41.35 34.3 39.4 34.9 38.7 34.95 38.05" fill="#a8a8a8" fill-rule="evenodd" stroke="none"/>
      <path d="M33.75 36.05 Q34.85 36.9 34.95 37.85 L34.95 38.05 Q34.9 38.7 34.3 39.4 32.35 41.35 24.7 42.85 18.85 44.0 11.6 44.55 L4.8 44.85 -0.05 44.9 -11.8 44.55 -24.75 42.85 Q-32.55 41.35 -34.35 39.3 L-34.95 38.45 -35.0 38.25 -35.05 38.0 -35.05 37.95 Q-35.05 36.75 -33.35 35.75 L-33.35 37.4 Q-33.35 40.0 -23.5 41.8 L-10.85 43.35 0.25 43.65 5.4 43.6 12.1 43.25 24.0 41.8 Q33.85 40.0 33.85 37.4 L33.75 36.05" fill="#9c9c9c" fill-rule="evenodd" stroke="none"/>
      <path d="M35.75 -40.95 Q36.4 -39.45 35.75 -38.05 35.55 -37.05 33.85 -36.15 L33.8 -33.65 32.95 4.65 33.55 9.85 33.85 12.45 33.25 14.75 32.1 19.25 33.75 36.05 Q34.85 36.9 34.95 37.85 L34.95 38.05 Q35.6 39.6 34.95 41.05 34.45 43.7 24.7 45.65 18.4 46.9 10.5 47.4 L3.5 47.7 -0.05 47.7 -13.85 47.15 -24.75 45.65 Q-34.2 43.8 -34.95 41.2 L-34.95 41.15 Q-35.4 39.5 -35.05 38.0 L-35.05 37.95 Q-35.05 36.75 -33.35 35.75 L-33.35 12.25 -32.1 4.05 -31.55 0.5 -33.3 -10.0 -33.3 -33.25 -33.3 -35.85 Q-35.35 -36.8 -35.7 -37.9 L-35.7 -37.95 Q-36.2 -39.55 -35.8 -41.0 L-35.8 -41.05 Q-35.75 -43.8 -25.35 -45.75 -14.85 -47.7 -0.05 -47.7 14.75 -47.7 25.25 -45.75 35.5 -43.85 35.75 -41.1 L35.75 -40.95 Q35.7 -40.3 35.05 -39.65 L33.85 -38.8 33.05 -38.45 Q30.45 -37.3 25.25 -36.35 L13.55 -34.85 9.4 -34.6 -0.05 -34.4 Q-6.0 -34.4 -11.25 -34.7 -19.05 -35.2 -25.35 -36.35 -29.4 -37.1 -31.9 -37.95 -33.0 -38.65 -33.25 -39.4 L-33.3 -39.55 -33.35 -39.85 Q-33.35 -42.45 -23.5 -44.3 -13.65 -46.1 0.25 -46.1 14.15 -46.1 24.0 -44.3 33.7 -42.5 33.85 -39.85 L33.85 -39.75 Q33.8 -39.1 33.05 -38.45 M12.05 -32.05 Q19.35 -32.55 25.25 -33.7 31.25 -34.8 33.85 -36.15 M33.85 -38.8 L33.85 -39.75 M15.35 6.75 L32.95 4.65 M-13.3 -32.15 L-0.05 -31.7 9.5 -31.9 12.05 -32.05 M-13.3 -32.15 Q-19.9 -32.65 -25.35 -33.7 -30.7 -34.65 -33.3 -35.85 M12.1 43.25 L24.0 41.8 Q33.85 40.0 33.85 37.4 L33.75 36.05 M-33.35 35.75 L-33.35 37.4 Q-33.35 40.0 -23.5 41.8 L-10.85 43.35 0.25 43.65 5.4 43.6 12.1 43.25 M34.95 38.05 Q34.9 38.7 34.3 39.4 32.35 41.35 24.7 42.85 18.85 44.0 11.6 44.55 L4.8 44.85 -0.05 44.9 -11.8 44.55 -24.75 42.85 Q-32.55 41.35 -34.35 39.3 L-34.95 38.45 -35.0 38.25 -35.05 38.0 M-35.8 -41.0 L-35.75 -40.7 -35.7 -40.55 Q-35.6 -40.15 -35.15 -39.7 L-33.3 -38.5 -33.3 -39.55 M-33.3 -38.5 L-31.9 -37.95 M-32.1 4.05 L-18.55 6.05 -18.35 6.05 -15.45 6.35 Q0.05 7.8 15.35 6.75" fill="none" stroke="#000000" stroke-linecap="round" stroke-linejoin="round" stroke-opacity="0.6627451" stroke-width="1.0"/>
      <path d="M29.85 -40.25 Q29.85 -38.55 21.2 -37.35 L9.35 -36.3 Q5.15 -36.15 0.4 -36.15 -5.1 -36.15 -9.85 -36.4 L-20.45 -37.35 Q-29.05 -38.55 -29.05 -40.25 -29.05 -41.9 -20.45 -43.1 L0.4 -44.35 21.2 -43.1 Q29.85 -41.9 29.85 -40.25 M13.35 -38.45 L0.4 -37.7 -12.55 -38.45 Q-17.9 -39.2 -17.9 -40.25 -17.9 -41.3 -12.55 -42.05 L0.4 -42.8 13.35 -42.05 Q18.75 -41.3 18.75 -40.25 18.75 -39.2 13.35 -38.45" fill="none" stroke="#000000" stroke-linecap="round" stroke-linejoin="round" stroke-opacity="0.6627451" stroke-width="0.5"/>
      <path d="M23.8 -0.55 L10.95 12.45 10.95 -11.3 13.05 -11.3 23.8 -0.55 M4.7 -11.3 L4.7 -1.5 -4.25 -1.5 -4.25 -11.3 4.7 -11.3 M4.75 18.75 L0.5 22.95 -4.25 18.2 -4.25 3.35 4.7 3.35 4.75 18.75 M-12.75 -11.3 L-10.5 -11.3 -10.5 11.9 -23.1 -0.8 -12.75 -11.3" fill="#ffff00" fill-rule="evenodd" stroke="none"/>
      <path d="M29.35 -0.75 L0.5 28.25 -28.6 -1.15 -15.8 -14.15 16.0 -14.15 29.35 -0.75 M23.8 -0.55 L13.05 -11.3 10.95 -11.3 10.95 12.45 23.8 -0.55 M4.7 -11.3 L-4.25 -11.3 -4.25 -1.5 4.7 -1.5 4.7 -11.3 M-12.75 -11.3 L-23.1 -0.8 -10.5 11.9 -10.5 -11.3 -12.75 -11.3 M4.75 18.75 L4.7 3.35 -4.25 3.35 -4.25 18.2 0.5 22.95 4.75 18.75" fill="#ff0000" fill-rule="evenodd" stroke="none"/>
      <path d="M29.35 -0.75 L0.5 28.25 -28.6 -1.15 -15.8 -14.15 16.0 -14.15 29.35 -0.75 M23.8 -0.55 L10.95 12.45 10.95 -11.3 13.05 -11.3 23.8 -0.55 M4.7 -11.3 L-4.25 -11.3 -4.25 -1.5 4.7 -1.5 4.7 -11.3 M4.75 18.75 L0.5 22.95 -4.25 18.2 -4.25 3.35 4.7 3.35 4.75 18.75 M-12.75 -11.3 L-10.5 -11.3 -10.5 11.9 -23.1 -0.8 -12.75 -11.3" fill="none" stroke="#000000" stroke-linecap="round" stroke-linejoin="round" stroke-opacity="0.6627451" stroke-width="1.0"/>
    </g>
    <g id="sprite1" transform="matrix(1.0, 0.0, 0.0, 1.0, 36.0, 47.7)">
      <use height="95.4" transform="matrix(1.0, 0.0, 0.0, 1.0, -36.0, -47.7)" width="72.05" xlink:href="#shape1"/>
    </g>
    <g id="shape1" transform="matrix(1.0, 0.0, 0.0, 1.0, 36.0, 47.7)">
      <path d="M35.75 -40.95 Q36.4 -39.45 35.75 -38.05 35.55 -37.05 33.85 -36.15 31.25 -34.8 25.25 -33.7 19.35 -32.55 12.05 -32.05 L12.8 -33.55 13.55 -34.85 25.25 -36.35 Q30.45 -37.3 33.05 -38.45 L33.85 -38.8 35.05 -39.65 Q35.7 -40.3 35.75 -40.95" fill="url(#gradient0)" fill-rule="evenodd" stroke="none"/>
      <path d="M33.05 -38.45 Q30.45 -37.3 25.25 -36.35 L13.55 -34.85 9.4 -34.6 -0.05 -34.4 Q-6.0 -34.4 -11.25 -34.7 -19.05 -35.2 -25.35 -36.35 -29.4 -37.1 -31.9 -37.95 -33.0 -38.65 -33.25 -39.4 L-33.3 -39.55 -33.35 -39.85 Q-33.35 -42.45 -23.5 -44.3 -13.65 -46.1 0.25 -46.1 14.15 -46.1 24.0 -44.3 33.7 -42.5 33.85 -39.85 L33.85 -39.75 Q33.8 -39.1 33.05 -38.45 M29.85 -40.25 Q29.85 -41.9 21.2 -43.1 L0.4 -44.35 -20.45 -43.1 Q-29.05 -41.9 -29.05 -40.25 -29.05 -38.55 -20.45 -37.35 L-9.85 -36.4 Q-5.1 -36.15 0.4 -36.15 5.15 -36.15 9.35 -36.3 L21.2 -37.35 Q29.85 -38.55 29.85 -40.25" fill="url(#gradient1)" fill-rule="evenodd" stroke="none"/>
      <path d="M29.85 -40.25 Q29.85 -38.55 21.2 -37.35 L9.35 -36.3 Q5.15 -36.15 0.4 -36.15 -5.1 -36.15 -9.85 -36.4 L-20.45 -37.35 Q-29.05 -38.55 -29.05 -40.25 -29.05 -41.9 -20.45 -43.1 L0.4 -44.35 21.2 -43.1 Q29.85 -41.9 29.85 -40.25 M13.35 -38.45 Q18.75 -39.2 18.75 -40.25 18.75 -41.3 13.35 -42.05 L0.4 -42.8 -12.55 -42.05 Q-17.9 -41.3 -17.9 -40.25 -17.9 -39.2 -12.55 -38.45 L0.4 -37.7 13.35 -38.45" fill="url(#gradient2)" fill-rule="evenodd" stroke="none"/>
      <path d="M13.35 -38.45 L0.4 -37.7 -12.55 -38.45 Q-17.9 -39.2 -17.9 -40.25 -17.9 -41.3 -12.55 -42.05 L0.4 -42.8 13.35 -42.05 Q18.75 -41.3 18.75 -40.25 18.75 -39.2 13.35 -38.45" fill="url(#gradient3)" fill-rule="evenodd" stroke="none"/>
      <path d="M35.75 -40.95 Q35.7 -40.3 35.05 -39.65 L33.85 -38.8 33.85 -39.75 33.85 -39.85 Q33.7 -42.5 24.0 -44.3 14.15 -46.1 0.25 -46.1 -13.65 -46.1 -23.5 -44.3 -33.35 -42.45 -33.35 -39.85 L-33.3 -39.55 -33.3 -38.5 -35.15 -39.7 Q-35.6 -40.15 -35.7 -40.55 L-35.75 -40.7 -35.8 -41.0 -35.8 -41.05 Q-35.75 -43.8 -25.35 -45.75 -14.85 -47.7 -0.05 -47.7 14.75 -47.7 25.25 -45.75 35.5 -43.85 35.75 -41.1 L35.75 -40.95" fill="url(#gradient4)" fill-rule="evenodd" stroke="none"/>
      <path d="M33.8 -33.65 L32.95 4.65 22.6 6.1 29.35 -0.75 16.0 -14.15 10.15 -14.15 10.1 -14.95 9.75 -25.65 9.65 -28.35 9.6 -28.95 9.65 -28.95 Q21.9 -29.95 33.8 -33.65" fill="url(#gradient5)" fill-rule="evenodd" stroke="none"/>
      <path d="M13.55 -34.85 L12.8 -33.55 12.05 -32.05 9.5 -31.9 -0.05 -31.7 -13.3 -32.15 -11.25 -34.7 Q-6.0 -34.4 -0.05 -34.4 L9.4 -34.6 13.55 -34.85" fill="url(#gradient6)" fill-rule="evenodd" stroke="none"/>
      <path d="M33.55 9.85 L33.85 12.45 33.25 14.75 27.35 14.15 33.55 9.85" fill="url(#gradient7)" fill-rule="evenodd" stroke="none"/>
      <path d="M32.95 4.65 L33.55 9.85 27.35 14.15 33.25 14.75 32.1 19.25 33.75 36.05 33.85 37.4 Q33.85 40.0 24.0 41.8 L12.1 43.25 Q17.1 30.15 17.1 28.2 L17.1 27.45 13.45 26.35 10.1 25.2 13.95 19.8 Q17.35 14.75 17.35 13.45 L16.85 11.85 22.6 6.1 32.95 4.65 M19.4 29.8 L18.7 33.65 26.3 29.2 22.6 28.95 19.4 29.8 M16.65 21.8 L27.65 26.55 27.65 16.55 16.65 21.8" fill="url(#gradient8)" fill-rule="evenodd" stroke="none"/>
      <path d="M19.4 29.8 L22.6 28.95 26.3 29.2 18.7 33.65 19.4 29.8" fill="url(#gradient9)" fill-rule="evenodd" stroke="none"/>
      <path d="M16.65 21.8 L27.65 16.55 27.65 26.55 16.65 21.8" fill="url(#gradient10)" fill-rule="evenodd" stroke="none"/>
      <path d="M34.95 38.05 Q35.6 39.6 34.95 41.05 34.45 43.7 24.7 45.65 18.4 46.9 10.5 47.4 L3.5 47.7 4.55 45.35 4.8 44.85 11.6 44.55 Q18.85 44.0 24.7 42.85 32.35 41.35 34.3 39.4 34.9 38.7 34.95 38.05" fill="url(#gradient11)" fill-rule="evenodd" stroke="none"/>
      <path d="M3.5 47.7 L-0.05 47.7 -13.85 47.15 -11.8 44.55 -0.05 44.9 4.8 44.85 4.55 45.35 3.5 47.7" fill="url(#gradient12)" fill-rule="evenodd" stroke="none"/>
      <path d="M33.75 36.05 Q34.85 36.9 34.95 37.85 L34.95 38.05 Q34.9 38.7 34.3 39.4 32.35 41.35 24.7 42.85 18.85 44.0 11.6 44.55 L4.8 44.85 -0.05 44.9 -11.8 44.55 -24.75 42.85 Q-32.55 41.35 -34.35 39.3 L-34.95 38.45 -35.0 38.25 -35.05 38.0 -35.05 37.95 Q-35.05 36.75 -33.35 35.75 L-33.35 37.4 Q-33.35 40.0 -23.5 41.8 L-10.85 43.35 0.25 43.65 5.4 43.6 12.1 43.25 24.0 41.8 Q33.85 40.0 33.85 37.4 L33.75 36.05" fill="url(#gradient13)" fill-rule="evenodd" stroke="none"/>
      <path d="M-33.3 -35.85 Q-35.35 -36.8 -35.7 -37.9 L-35.7 -37.95 Q-36.2 -39.55 -35.8 -41.0 L-35.75 -40.7 -35.7 -40.55 Q-35.6 -40.15 -35.15 -39.7 L-33.3 -38.5 -31.9 -37.95 Q-29.4 -37.1 -25.35 -36.35 -19.05 -35.2 -11.25 -34.7 L-13.3 -32.15 Q-19.9 -32.65 -25.35 -33.7 -30.7 -34.65 -33.3 -35.85" fill="url(#gradient14)" fill-rule="evenodd" stroke="none"/>
      <path d="M-13.85 47.15 L-24.75 45.65 Q-34.2 43.8 -34.95 41.2 L-34.95 41.15 Q-35.4 39.5 -35.05 38.0 L-35.0 38.25 -34.95 38.45 -34.35 39.3 Q-32.55 41.35 -24.75 42.85 L-11.8 44.55 -13.85 47.15" fill="url(#gradient15)" fill-rule="evenodd" stroke="none"/>
      <path d="M10.15 -14.15 L16.0 -14.15 29.35 -0.75 22.6 6.1 16.85 11.85 0.5 28.25 -28.6 -1.15 -15.8 -14.15 10.15 -14.15" fill="url(#gradient16)" fill-rule="evenodd" stroke="none"/>
      <path d="M12.05 -32.05 Q19.35 -32.55 25.25 -33.7 31.25 -34.8 33.85 -36.15 L33.8 -33.65 Q21.9 -29.95 9.65 -28.95 L9.6 -28.95 9.65 -28.35 9.75 -25.65 10.1 -14.95 10.15 -14.15 -15.8 -14.15 -28.6 -1.15 0.5 28.25 16.85 11.85 17.35 13.45 Q17.35 14.75 13.95 19.8 L10.1 25.2 13.45 26.35 17.1 27.45 17.1 28.2 Q17.1 30.15 12.1 43.25 L5.4 43.6 0.25 43.65 -10.85 43.35 -23.5 41.8 Q-33.35 40.0 -33.35 37.4 L-33.35 35.75 -33.35 12.25 -31.55 0.5 -33.3 -10.0 -33.3 -35.85 Q-30.7 -34.65 -25.35 -33.7 -19.9 -32.65 -13.3 -32.15 L-0.05 -31.7 9.5 -31.9 12.05 -32.05" fill="url(#gradient17)" fill-rule="evenodd" stroke="none"/>
    </g>
    <linearGradient gradientTransform="matrix(0.0146, 0.0, 0.0, 0.0054, 24.05, -36.5)" gradientUnits="userSpaceOnUse" id="gradient0" spreadMethod="pad" x1="-819.2" x2="819.2">
      <stop offset="0.0" stop-color="#000000"/>
      <stop offset="1.0" stop-color="#ffffff"/>
    </linearGradient>
    <linearGradient gradientTransform="matrix(0.041, 0.0, 0.0, 0.0071, 0.25, -40.25)" gradientUnits="userSpaceOnUse" id="gradient1" spreadMethod="pad" x1="-819.2" x2="819.2">
      <stop offset="0.0" stop-color="#000000"/>
      <stop offset="1.0" stop-color="#ffffff"/>
    </linearGradient>
    <linearGradient gradientTransform="matrix(0.0359, 0.0, 0.0, 0.005, 0.4, -40.25)" gradientUnits="userSpaceOnUse" id="gradient2" spreadMethod="pad" x1="-819.2" x2="819.2">
      <stop offset="0.0" stop-color="#000000"/>
      <stop offset="1.0" stop-color="#ffffff"/>
    </linearGradient>
    <linearGradient gradientTransform="matrix(0.0224, 0.0, 0.0, 0.0031, 0.4, -40.25)" gradientUnits="userSpaceOnUse" id="gradient3" spreadMethod="pad" x1="-819.2" x2="819.2">
      <stop offset="0.0" stop-color="#000000"/>
      <stop offset="1.0" stop-color="#ffffff"/>
    </linearGradient>
    <linearGradient gradientTransform="matrix(0.0437, 0.0, 0.0, 0.0056, -0.05, -43.1)" gradientUnits="userSpaceOnUse" id="gradient4" spreadMethod="pad" x1="-819.2" x2="819.2">
      <stop offset="0.0" stop-color="#000000"/>
      <stop offset="1.0" stop-color="#ffffff"/>
    </linearGradient>
    <linearGradient gradientTransform="matrix(0.0148, 0.0, 0.0, 0.0243, 21.7, -13.8)" gradientUnits="userSpaceOnUse" id="gradient5" spreadMethod="pad" x1="-819.2" x2="819.2">
      <stop offset="0.0" stop-color="#000000"/>
      <stop offset="1.0" stop-color="#ffffff"/>
    </linearGradient>
    <linearGradient gradientTransform="matrix(0.0164, 0.0, 0.0, 0.0019, 0.1, -33.3)" gradientUnits="userSpaceOnUse" id="gradient6" spreadMethod="pad" x1="-819.2" x2="819.2">
      <stop offset="0.0" stop-color="#000000"/>
      <stop offset="1.0" stop-color="#ffffff"/>
    </linearGradient>
    <linearGradient gradientTransform="matrix(0.004, 0.0, 0.0, 0.003, 30.6, 12.3)" gradientUnits="userSpaceOnUse" id="gradient7" spreadMethod="pad" x1="-819.2" x2="819.2">
      <stop offset="0.0" stop-color="#000000"/>
      <stop offset="1.0" stop-color="#ffffff"/>
    </linearGradient>
    <linearGradient gradientTransform="matrix(0.0145, 0.0, 0.0, 0.0236, 21.95, 23.95)" gradientUnits="userSpaceOnUse" id="gradient8" spreadMethod="pad" x1="-819.2" x2="819.2">
      <stop offset="0.0" stop-color="#000000"/>
      <stop offset="1.0" stop-color="#ffffff"/>
    </linearGradient>
    <linearGradient gradientTransform="matrix(0.0046, 0.0, 0.0, 0.0029, 22.5, 31.3)" gradientUnits="userSpaceOnUse" id="gradient9" spreadMethod="pad" x1="-819.2" x2="819.2">
      <stop offset="0.0" stop-color="#000000"/>
      <stop offset="1.0" stop-color="#ffffff"/>
    </linearGradient>
    <linearGradient gradientTransform="matrix(0.0067, 0.0, 0.0, 0.0061, 22.15, 21.55)" gradientUnits="userSpaceOnUse" id="gradient10" spreadMethod="pad" x1="-819.2" x2="819.2">
      <stop offset="0.0" stop-color="#000000"/>
      <stop offset="1.0" stop-color="#ffffff"/>
    </linearGradient>
    <linearGradient gradientTransform="matrix(0.0194, 0.0, 0.0, 0.0059, 19.35, 42.85)" gradientUnits="userSpaceOnUse" id="gradient11" spreadMethod="pad" x1="-819.2" x2="819.2">
      <stop offset="0.0" stop-color="#000000"/>
      <stop offset="1.0" stop-color="#ffffff"/>
    </linearGradient>
    <linearGradient gradientTransform="matrix(0.0114, 0.0, 0.0, 0.0019, -4.55, 46.1)" gradientUnits="userSpaceOnUse" id="gradient12" spreadMethod="pad" x1="-819.2" x2="819.2">
      <stop offset="0.0" stop-color="#000000"/>
      <stop offset="1.0" stop-color="#ffffff"/>
    </linearGradient>
    <linearGradient gradientTransform="matrix(0.0427, 0.0, 0.0, 0.0056, -0.05, 40.3)" gradientUnits="userSpaceOnUse" id="gradient13" spreadMethod="pad" x1="-819.2" x2="819.2">
      <stop offset="0.0" stop-color="#000000"/>
      <stop offset="1.0" stop-color="#ffffff"/>
    </linearGradient>
    <linearGradient gradientTransform="matrix(0.0151, 0.0, 0.0, 0.0054, -23.65, -36.6)" gradientUnits="userSpaceOnUse" id="gradient14" spreadMethod="pad" x1="-819.2" x2="819.2">
      <stop offset="0.0" stop-color="#000000"/>
      <stop offset="1.0" stop-color="#ffffff"/>
    </linearGradient>
    <linearGradient gradientTransform="matrix(0.0143, 0.0, 0.0, 0.0056, -23.5, 42.55)" gradientUnits="userSpaceOnUse" id="gradient15" spreadMethod="pad" x1="-819.2" x2="819.2">
      <stop offset="0.0" stop-color="#000000"/>
      <stop offset="1.0" stop-color="#ffffff"/>
    </linearGradient>
    <linearGradient gradientTransform="matrix(0.0, -0.0212, 0.0259, 0.0, 0.35, 7.05)" gradientUnits="userSpaceOnUse" id="gradient16" spreadMethod="pad" x1="-819.2" x2="819.2">
      <stop offset="0.0" stop-color="#000000"/>
      <stop offset="1.0" stop-color="#ffffff"/>
    </linearGradient>
    <linearGradient gradientTransform="matrix(-0.0265, 0.0, 0.0, -0.0237, -11.6, -13.8)" gradientUnits="userSpaceOnUse" id="gradient17" spreadMethod="pad" x1="-819.2" x2="819.2">
      <stop offset="0.0" stop-color="#000000"/>
      <stop offset="1.0" stop-color="#ffffff"/>
    </linearGradient>
    <g id="shape2" transform="matrix(1.0, 0.0, 0.0, 1.0, 46.75, 68.5)">
      <path d="M-27.8 -60.3 Q-28.55 -61.25 -28.45 -62.35 L-28.05 -62.5 -25.3 -61.1 -24.8 -60.8 -18.8 -57.45 Q-8.75 -52.2 -1.7 -52.25 5.45 -52.3 11.15 -53.6 L18.6 -55.5 Q20.6 -55.85 21.8 -56.35 22.85 -56.85 23.3 -57.5 L23.55 -59.75 23.55 -59.8 Q23.85 -63.0 29.65 -64.85 32.7 -65.9 34.2 -65.45 L34.25 -65.4 Q35.25 -65.05 35.4 -63.9 L37.75 -60.0 Q39.75 -56.4 40.85 -56.4 41.95 -56.45 49.25 -58.05 55.5 -59.5 60.7 -59.95 L61.05 -59.95 62.45 -60.1 Q68.3 -60.5 70.2 -58.2 71.7 -56.35 71.75 -50.6 71.75 -49.75 71.25 -48.95 L70.15 -47.75 69.8 -47.45 Q68.6 -46.5 66.9 -45.7 L63.35 -44.6 60.05 -43.3 60.0 -43.25 Q62.8 -43.5 65.45 -44.35 68.0 -45.3 70.5 -45.85 L70.7 -45.8 71.85 -46.1 71.9 -46.1 72.4 -46.25 73.1 -46.2 74.2 -46.2 74.45 -46.05 74.8 -45.85 75.4 -45.25 76.2 -44.2 76.4 -43.8 76.45 -43.7 76.6 -43.3 77.05 -42.05 78.2 -39.35 78.25 -37.45 Q78.3 -35.4 77.95 -34.85 77.15 -33.4 73.65 -31.95 71.9 -31.2 68.35 -30.15 64.1 -28.9 62.45 -28.85 L62.5 -28.45 Q62.95 -27.7 65.1 -27.7 L69.1 -27.5 69.65 -27.55 73.55 -27.2 Q74.35 -26.75 74.45 -26.05 L74.5 -24.4 Q74.4 -21.0 73.1 -17.75 L72.65 -16.2 Q72.15 -13.45 68.45 -13.4 L63.85 -14.05 59.45 -15.1 52.35 -16.8 48.05 -15.5 Q43.55 -14.1 41.45 -13.65 L35.95 -12.75 30.35 -11.9 8.8 -8.45 5.05 -8.4 Q-7.9 -8.25 -16.3 -9.6 -27.95 -11.4 -35.2 -16.25 L-41.3 -19.7 -42.45 -20.35 Q-44.95 -22.05 -45.95 -23.35 -46.7 -24.15 -46.75 -24.85 L-46.65 -25.55 -46.6 -25.6 -46.0 -25.1 -42.4 -22.55 Q-32.65 -16.3 -20.55 -13.85 -5.85 -10.8 4.2 -11.25 L6.95 -11.4 8.75 -11.4 Q19.7 -11.8 30.4 -14.2 L35.95 -15.4 48.35 -18.0 49.7 -18.95 51.8 -19.15 54.15 -19.05 55.9 -18.65 58.9 -17.9 60.3 -17.5 64.05 -16.65 65.4 -16.35 68.0 -15.9 69.3 -16.2 Q71.05 -19.25 71.85 -22.75 L72.2 -24.4 72.2 -25.05 72.1 -25.3 68.9 -25.15 63.65 -25.65 62.75 -25.9 62.25 -26.05 61.2 -26.65 Q60.25 -27.4 60.3 -28.05 60.25 -28.9 60.45 -29.45 L60.45 -29.75 Q60.4 -30.7 63.7 -31.7 L68.95 -33.2 72.3 -34.5 74.6 -35.35 Q75.65 -35.95 75.65 -37.6 L75.75 -38.35 Q75.7 -39.95 75.1 -40.9 L74.9 -41.35 74.3 -42.25 73.95 -42.75 Q73.55 -43.15 73.15 -43.1 L73.0 -43.05 72.95 -43.2 71.15 -42.8 66.15 -41.25 65.55 -41.05 Q60.05 -39.3 58.65 -39.3 L58.2 -39.3 57.95 -39.4 55.7 -40.2 55.35 -40.35 Q54.75 -40.8 54.75 -41.75 54.75 -43.45 56.9 -44.55 57.95 -45.1 61.75 -46.3 64.6 -47.25 66.3 -48.4 68.65 -50.05 68.7 -52.25 L68.75 -53.05 Q68.75 -54.0 68.15 -55.55 67.3 -57.4 66.35 -57.45 L63.05 -57.3 62.1 -57.2 Q56.7 -56.8 51.25 -55.5 45.05 -54.0 42.15 -53.75 L41.05 -53.65 Q37.7 -53.65 36.55 -55.45 35.95 -56.5 35.45 -58.5 L33.9 -61.2 33.55 -61.85 33.5 -61.85 33.0 -62.35 32.65 -62.35 31.25 -62.15 28.6 -61.25 27.55 -60.6 27.25 -60.45 Q26.95 -60.15 26.95 -59.65 L27.0 -58.15 26.95 -57.5 Q26.8 -56.2 24.15 -54.05 21.6 -51.95 11.3 -50.2 L9.45 -49.9 -3.2 -49.35 Q-7.45 -50.2 -12.6 -51.6 -17.7 -53.05 -20.0 -54.95 L-24.15 -57.3 -25.9 -58.65 -26.65 -59.15 -27.8 -60.3 M100.8 -68.5 L102.55 -68.35 105.7 -67.6 Q107.55 -67.05 111.1 -65.4 L112.3 -64.85 Q119.6 -61.55 120.9 -59.4 121.55 -58.45 121.3 -57.25 L120.6 -54.9 Q119.9 -52.0 119.3 -50.65 118.75 -49.55 117.8 -49.25 L117.0 -49.1 117.05 -48.75 117.05 -47.35 116.8 -45.2 115.9 -42.35 Q115.35 -40.35 114.45 -39.3 116.0 -38.75 116.7 -37.35 117.2 -36.4 117.2 -34.65 L116.8 -31.95 116.2 -28.95 Q115.0 -25.05 113.35 -24.2 L109.9 -23.9 108.85 -23.9 Q104.95 -24.0 102.15 -24.65 L94.7 -27.0 Q91.3 -28.15 90.0 -29.45 89.05 -30.45 89.05 -32.05 L90.3 -38.1 Q90.55 -39.45 91.15 -41.1 L91.2 -41.25 90.15 -41.65 Q87.0 -42.8 86.3 -44.15 L86.15 -44.65 Q86.0 -45.4 86.0 -46.95 L86.05 -49.15 86.15 -49.65 Q86.6 -51.65 87.65 -53.4 88.35 -54.45 89.15 -54.85 L90.55 -55.55 94.6 -54.9 97.45 -54.05 Q93.8 -56.75 95.1 -62.05 L95.75 -64.4 96.55 -66.05 97.2 -66.6 Q98.8 -67.75 100.4 -68.45 L100.8 -68.5 M114.45 -61.3 L111.85 -62.25 104.85 -65.25 100.95 -66.45 100.4 -66.25 100.05 -66.0 99.05 -65.15 97.9 -63.55 Q97.65 -63.3 97.3 -62.0 96.9 -60.7 96.8 -59.7 96.65 -58.75 97.4 -57.65 99.5 -54.7 110.4 -52.05 L113.15 -51.45 116.1 -51.15 Q117.75 -51.6 118.65 -55.3 119.65 -59.35 117.85 -60.05 L114.45 -61.3 M110.9 -49.65 L107.55 -50.4 102.8 -51.7 101.65 -51.75 97.8 -52.45 92.2 -53.1 90.55 -52.9 Q88.85 -51.7 88.5 -49.75 L88.35 -49.15 88.25 -47.0 Q88.25 -45.35 88.45 -45.1 89.0 -44.35 92.15 -43.4 95.35 -42.4 101.55 -41.45 L108.7 -40.6 109.15 -40.6 Q112.2 -40.6 112.8 -41.2 L114.3 -45.35 114.5 -48.1 Q114.55 -48.7 114.75 -49.1 L110.9 -49.65 M111.35 -37.95 L110.8 -38.1 109.15 -38.1 102.15 -38.9 95.15 -40.0 92.85 -40.7 Q92.5 -40.45 92.45 -40.0 L91.8 -37.3 91.15 -34.6 90.75 -32.0 Q90.75 -30.95 92.95 -29.95 94.95 -29.05 98.1 -28.45 L101.95 -27.25 Q105.6 -26.2 109.75 -26.2 L109.85 -26.2 Q112.8 -26.2 113.4 -26.7 113.9 -27.2 114.8 -30.55 L115.4 -34.7 Q115.4 -37.15 112.65 -37.65 L111.35 -37.95" fill="#000000" fill-rule="evenodd" stroke="none"/>
      <path d="M-27.8 -60.3 L-26.65 -59.15 -25.9 -58.65 -24.15 -57.3 -20.0 -54.95 Q-17.7 -53.05 -12.6 -51.6 -7.45 -50.2 -3.2 -49.35 L9.45 -49.9 7.3 -49.5 Q-2.3 -47.9 -6.15 -48.75 -10.1 -49.55 -14.9 -50.9 -19.7 -52.3 -21.8 -54.0 L-25.65 -56.2 -27.3 -57.5 -28.0 -58.0 -29.7 -58.95 -27.8 -60.3 M27.55 -60.6 L28.6 -61.25 31.25 -62.15 32.65 -62.35 33.0 -62.35 33.5 -61.85 33.55 -61.85 33.9 -61.2 35.45 -58.5 Q35.95 -56.5 36.55 -55.45 37.7 -53.65 41.05 -53.65 L42.15 -53.75 34.85 -52.55 Q31.75 -52.6 30.7 -54.25 30.2 -55.25 29.75 -57.1 L28.3 -59.65 27.95 -60.25 27.9 -60.25 27.55 -60.6 M62.1 -57.2 L63.05 -57.3 66.35 -57.45 Q67.3 -57.4 68.15 -55.55 68.75 -54.0 68.75 -53.05 L68.7 -52.25 Q68.65 -50.05 66.3 -48.4 64.6 -47.25 61.75 -46.3 57.95 -45.1 56.9 -44.55 54.75 -43.45 54.75 -41.75 54.75 -40.8 55.35 -40.35 L55.7 -40.2 Q52.15 -39.15 51.1 -39.15 L50.7 -39.15 50.45 -39.25 50.4 -39.25 Q50.25 -39.75 50.25 -40.25 50.35 -43.15 56.8 -45.7 63.25 -48.15 63.35 -51.3 63.4 -53.15 62.3 -56.6 L62.1 -57.2 M66.15 -41.25 L71.15 -42.8 72.95 -43.2 73.0 -43.05 73.15 -43.1 Q73.55 -43.15 73.95 -42.75 L74.3 -42.25 74.9 -41.35 75.1 -40.9 Q75.7 -39.95 75.75 -38.35 L75.65 -37.6 Q75.65 -35.95 74.6 -35.35 L72.3 -34.5 68.95 -33.2 63.7 -31.7 Q60.4 -30.7 60.45 -29.75 L60.45 -29.45 Q60.25 -28.9 60.3 -28.05 60.25 -27.4 61.2 -26.65 L62.25 -26.05 60.65 -26.05 Q56.8 -26.05 54.9 -26.75 54.15 -26.85 53.45 -27.4 52.65 -28.1 52.65 -28.7 52.6 -29.5 52.8 -30.0 L52.8 -30.3 Q52.75 -31.2 55.8 -32.1 L60.65 -33.55 63.85 -34.7 65.95 -35.45 Q66.95 -36.0 66.95 -37.5 L67.05 -38.2 Q67.0 -39.7 66.4 -40.6 L66.25 -41.05 66.15 -41.25 M63.65 -25.65 L68.9 -25.15 72.1 -25.3 72.2 -25.05 72.2 -24.4 71.85 -22.75 Q71.05 -19.25 69.3 -16.2 L68.0 -15.9 65.4 -16.35 64.05 -16.65 60.3 -17.5 60.9 -17.65 Q62.6 -20.5 63.35 -23.75 L63.65 -25.3 63.65 -25.65 M51.8 -19.15 L49.7 -18.95 48.35 -18.0 35.95 -15.4 30.4 -14.2 Q19.7 -11.8 8.75 -11.4 L6.95 -11.4 4.2 -11.25 Q-5.85 -10.8 -20.55 -13.85 -32.65 -16.3 -42.4 -22.55 L-46.0 -25.1 -46.1 -25.9 -46.2 -26.4 -42.7 -24.05 Q-33.7 -18.2 -22.45 -15.9 -8.85 -13.05 0.45 -13.4 L3.1 -13.5 4.8 -13.5 Q14.9 -13.8 24.85 -16.0 L29.95 -17.1 41.5 -19.45 Q42.35 -20.1 43.85 -20.0 L46.85 -20.45 48.5 -20.05 51.3 -19.3 51.8 -19.15 M113.15 -51.45 L114.7 -52.0 Q115.75 -53.05 115.9 -54.2 L115.9 -56.6 Q115.9 -58.85 114.45 -61.3 L117.85 -60.05 Q119.65 -59.35 118.65 -55.3 117.75 -51.6 116.1 -51.15 L113.15 -51.45 M108.7 -40.6 Q108.7 -42.2 109.6 -45.2 L110.9 -49.65 114.75 -49.1 Q114.55 -48.7 114.5 -48.1 L114.3 -45.35 112.8 -41.2 Q112.2 -40.6 109.15 -40.6 L108.7 -40.6 M109.75 -26.2 L110.5 -28.6 111.65 -32.35 111.9 -35.5 Q111.9 -36.9 111.35 -37.95 L112.65 -37.65 Q115.4 -37.15 115.4 -34.7 L114.8 -30.55 Q113.9 -27.2 113.4 -26.7 112.8 -26.2 109.85 -26.2 L109.75 -26.2" fill="#bdbdbd" fill-rule="evenodd" stroke="none"/>
      <path d="M9.45 -49.9 L11.3 -50.2 Q21.6 -51.95 24.15 -54.05 26.8 -56.2 26.95 -57.5 L27.0 -58.15 26.95 -59.65 Q26.95 -60.15 27.25 -60.45 L27.55 -60.6 27.9 -60.25 27.95 -60.25 28.3 -59.65 29.75 -57.1 Q30.2 -55.25 30.7 -54.25 31.75 -52.6 34.85 -52.55 L42.15 -53.75 Q45.05 -54.0 51.25 -55.5 56.7 -56.8 62.1 -57.2 L62.3 -56.6 Q63.4 -53.15 63.35 -51.3 63.25 -48.15 56.8 -45.7 50.35 -43.15 50.25 -40.25 50.25 -39.75 50.4 -39.25 L50.45 -39.25 50.7 -39.15 51.1 -39.15 Q52.15 -39.15 55.7 -40.2 L57.95 -39.4 58.2 -39.3 58.65 -39.3 Q60.05 -39.3 65.55 -41.05 L66.15 -41.25 66.25 -41.05 66.4 -40.6 Q67.0 -39.7 67.05 -38.2 L66.95 -37.5 Q66.95 -36.0 65.95 -35.45 L63.85 -34.7 60.65 -33.55 55.8 -32.1 Q52.75 -31.2 52.8 -30.3 L52.8 -30.0 Q52.6 -29.5 52.65 -28.7 52.65 -28.1 53.45 -27.4 54.15 -26.85 54.9 -26.75 56.8 -26.05 60.65 -26.05 L62.25 -26.05 62.75 -25.9 63.65 -25.65 63.65 -25.3 63.35 -23.75 Q62.6 -20.5 60.9 -17.65 L60.3 -17.5 58.9 -17.9 55.9 -18.65 54.15 -19.05 51.8 -19.15 51.3 -19.3 48.5 -20.05 46.85 -20.45 43.85 -20.0 Q42.35 -20.1 41.5 -19.45 L29.95 -17.1 24.85 -16.0 Q14.9 -13.8 4.8 -13.5 L3.1 -13.5 0.45 -13.4 Q-8.85 -13.05 -22.45 -15.9 -33.7 -18.2 -42.7 -24.05 L-46.2 -26.4 -46.4 -28.3 Q-46.45 -33.2 -44.6 -38.5 -42.95 -43.6 -40.05 -47.7 -37.4 -51.5 -34.15 -54.85 -31.75 -57.45 -29.7 -58.95 L-28.0 -58.0 -27.3 -57.5 -25.65 -56.2 -21.8 -54.0 Q-19.7 -52.3 -14.9 -50.9 -10.1 -49.55 -6.15 -48.75 -2.3 -47.9 7.3 -49.5 L9.45 -49.9 M113.15 -51.45 L110.4 -52.05 Q99.5 -54.7 97.4 -57.65 96.65 -58.75 96.8 -59.7 96.9 -60.7 97.3 -62.0 97.65 -63.3 97.9 -63.55 L99.05 -65.15 100.05 -66.0 100.4 -66.25 100.95 -66.45 104.85 -65.25 111.85 -62.25 114.45 -61.3 Q115.9 -58.85 115.9 -56.6 L115.9 -54.2 Q115.75 -53.05 114.7 -52.0 L113.15 -51.45 M108.7 -40.6 L101.55 -41.45 Q95.35 -42.4 92.15 -43.4 89.0 -44.35 88.45 -45.1 88.25 -45.35 88.25 -47.0 L88.35 -49.15 88.5 -49.75 Q88.85 -51.7 90.55 -52.9 L92.2 -53.1 97.8 -52.45 101.65 -51.75 102.8 -51.7 107.55 -50.4 110.9 -49.65 109.6 -45.2 Q108.7 -42.2 108.7 -40.6 M109.75 -26.2 Q105.6 -26.2 101.95 -27.25 L98.1 -28.45 Q94.95 -29.05 92.95 -29.95 90.75 -30.95 90.75 -32.0 L91.15 -34.6 91.8 -37.3 92.45 -40.0 Q92.5 -40.45 92.85 -40.7 L95.15 -40.0 102.15 -38.9 109.15 -38.1 110.8 -38.1 111.35 -37.95 Q111.9 -36.9 111.9 -35.5 L111.65 -32.35 110.5 -28.6 109.75 -26.2" fill="#999999" fill-rule="evenodd" stroke="none"/>
    </g>
  </defs>
</svg>
