<?xml version="1.0" encoding="UTF-8" standalone="no"?>
<svg xmlns:xlink="http://www.w3.org/1999/xlink" height="531.5px" width="460.6px" xmlns="http://www.w3.org/2000/svg">
  <g transform="matrix(1.0, 0.0, 0.0, 1.0, 193.65, 334.05)">
    <use height="106.75" transform="matrix(0.4997, 0.0, 0.0, 0.4997, 26.2255, -167.7745)" width="115.6" xlink:href="#shape0"/>
    <use height="103.25" transform="matrix(0.4997, 0.0, 0.0, 0.4997, 27.1, -166.9)" width="112.1" xlink:href="#sprite0"/>
  </g>
  <defs>
    <g id="shape0" transform="matrix(1.0, 0.0, 0.0, 1.0, 1.75, 1.75)">
      <path d="M28.35 11.75 Q42.4 0.0 61.25 0.0 72.25 0.0 81.4 4.25 90.2 8.3 97.3 16.3 L101.0 20.8 Q104.2 25.2 106.5 29.9 111.9 41.0 112.1 54.05 112.45 75.55 97.65 88.6 L96.0 90.0 Q88.0 87.9 80.05 83.15 85.15 82.5 88.85 79.85 101.0 66.5 97.25 53.6 91.15 50.05 82.65 52.65 80.35 68.95 73.8 79.0 61.4 69.9 50.45 55.2 39.65 40.8 32.95 24.8 29.95 17.7 28.35 11.75 M91.15 33.1 Q91.55 27.6 82.35 18.3 73.1 8.95 68.05 17.85 L79.35 33.75 Q87.0 39.55 91.15 33.1" fill="#feb4da" fill-rule="evenodd" stroke="none"/>
      <path d="M73.8 79.0 Q80.35 68.95 82.65 52.65 91.15 50.05 97.25 53.6 101.0 66.5 88.85 79.85 85.15 82.5 80.05 83.15 L71.0 82.75 73.8 79.0 M91.15 33.1 Q87.0 39.55 79.35 33.75 L68.05 17.85 Q73.1 8.95 82.35 18.3 91.55 27.6 91.15 33.1" fill="#ffcce6" fill-rule="evenodd" stroke="none"/>
      <path d="M96.0 90.0 Q88.2 96.4 78.55 99.7 L78.5 99.65 78.3 99.8 Q70.35 102.5 61.25 103.1 39.65 104.55 27.35 92.6 24.05 89.45 21.4 86.3 14.05 77.5 11.4 68.8 L0.5 62.6 0.0 59.5 Q9.1 53.3 6.9 51.55 7.35 47.45 8.3 43.55 10.1 36.2 13.75 29.55 17.85 22.05 24.35 15.45 L28.35 11.75 Q29.95 17.7 32.95 24.8 39.65 40.8 50.45 55.2 61.4 69.9 73.8 79.0 L71.0 82.75 80.05 83.15 Q88.0 87.9 96.0 90.0 M9.5 59.7 Q10.05 64.4 11.4 68.8 10.05 64.4 9.5 59.7" fill="#fea3d1" fill-rule="evenodd" stroke="none"/>
      <path d="M78.55 99.7 L78.3 99.8 78.5 99.65 78.55 99.7" fill="#fe89c5" fill-rule="evenodd" stroke="none"/>
      <path d="M28.35 11.75 Q42.4 0.0 61.25 0.0 72.25 0.0 81.4 4.25 90.2 8.3 97.3 16.3 L101.0 20.8 Q104.2 25.2 106.5 29.9 111.9 41.0 112.1 54.05 112.45 75.55 97.65 88.6 L96.0 90.0 Q88.2 96.4 78.55 99.7 L78.3 99.8 Q70.35 102.5 61.25 103.1 39.65 104.55 27.35 92.6 24.05 89.45 21.4 86.3 14.05 77.5 11.4 68.8 L0.5 62.6 0.0 59.5 Q9.1 53.3 6.9 51.55 7.35 47.45 8.3 43.55 10.1 36.2 13.75 29.55 17.85 22.05 24.35 15.45 L28.35 11.75 M11.4 68.8 Q10.05 64.4 9.5 59.7" fill="none" stroke="#ce6c6c" stroke-linecap="round" stroke-linejoin="round" stroke-opacity="0.67058825" stroke-width="3.5"/>
    </g>
    <g id="sprite0" transform="matrix(1.0, 0.0, 0.0, 1.0, 0.0, 0.0)">
      <use height="103.25" transform="matrix(1.0, 0.0, 0.0, 1.0, 0.0, 0.0)" width="112.1" xlink:href="#shape1"/>
    </g>
    <g id="shape1" transform="matrix(1.0, 0.0, 0.0, 1.0, 0.0, 0.0)">
      <path d="M78.55 99.7 L78.3 99.8 78.5 99.65 78.55 99.7" fill="#fe89c5" fill-rule="evenodd" stroke="none"/>
      <path d="M78.3 99.8 Q70.35 102.5 61.25 103.1 39.65 104.55 27.35 92.6 24.05 89.45 21.4 86.3 14.05 77.5 11.4 68.8 L0.5 62.6 0.0 59.5 Q9.1 53.3 6.9 51.55 7.35 47.45 8.3 43.55 10.1 36.2 13.75 29.55 17.85 22.05 24.35 15.45 L28.35 11.75 Q42.4 0.0 61.25 0.0 72.25 0.0 81.4 4.25 90.2 8.3 97.3 16.3 L101.0 20.8 Q104.2 25.2 106.5 29.9 111.9 41.0 112.1 54.05 112.45 75.55 97.65 88.6 L96.0 90.0 Q88.2 96.4 78.55 99.7 L78.5 99.65 78.3 99.8" fill="url(#gradient0)" fill-rule="evenodd" stroke="none"/>
    </g>
    <linearGradient gradientTransform="matrix(0.0771, -0.0771, 0.0446, 0.0446, 56.05, 51.65)" gradientUnits="userSpaceOnUse" id="gradient0" spreadMethod="pad" x1="-819.2" x2="819.2">
      <stop offset="0.0" stop-color="#000000"/>
      <stop offset="1.0" stop-color="#ffffff"/>
    </linearGradient>
  </defs>
</svg>
