<?xml version="1.0" encoding="UTF-8" standalone="no"?>
<svg xmlns:xlink="http://www.w3.org/1999/xlink" height="531.5px" width="460.6px" xmlns="http://www.w3.org/2000/svg">
  <g transform="matrix(1.0, 0.0, 0.0, 1.0, 193.65, 334.05)">
    <use height="27.65" transform="matrix(1.9412, 0.0, 0.0, 1.9412, -89.6317, -191.888)" width="90.75" xlink:href="#sprite0"/>
  </g>
  <defs>
    <g id="sprite0" transform="matrix(1.0, 0.0, 0.0, 1.0, 45.35, 13.8)">
      <use height="27.65" transform="matrix(1.0, 0.0, 0.0, 1.0, -45.35, -13.8)" width="90.75" xlink:href="#shape0"/>
      <use height="26.65" transform="matrix(1.0, 0.0, 0.0, 1.0, -44.85, -13.3)" width="89.75" xlink:href="#sprite1"/>
    </g>
    <g id="shape0" transform="matrix(1.0, 0.0, 0.0, 1.0, 45.35, 13.8)">
      <path d="M34.5 -3.1 Q34.7 -5.2 34.3 -7.55 33.55 -11.9 35.7 -11.95 37.25 -12.05 38.8 -10.95 L39.15 -9.65 Q39.65 -7.35 39.65 -4.7 39.65 -2.0 39.25 -1.1 38.65 0.3 36.65 0.3 L36.5 0.3 35.85 -0.5 35.2 -2.2 34.5 -3.1 M-34.05 -11.95 L-35.4 -9.5 -37.55 -6.1 Q-38.7 -2.75 -38.65 -0.85 L-38.35 3.3 Q-38.35 5.05 -39.95 6.1 -41.2 6.9 -42.55 6.9 L-43.3 6.9 Q-44.3 5.3 -44.75 3.0 -45.65 -6.35 -39.15 -11.7 -34.95 -14.8 -34.05 -11.95" fill="#784711" fill-rule="evenodd" stroke="none"/>
      <path d="M38.8 -10.95 L39.7 -10.2 Q41.6 -8.35 43.65 -3.95 L43.75 -3.8 Q43.6 -0.25 42.95 2.1 41.35 7.8 36.25 9.1 L35.85 9.2 35.85 8.65 35.8 7.15 35.8 7.1 Q35.65 5.4 35.1 3.15 L34.4 1.0 34.15 0.55 33.8 0.15 Q34.35 -1.4 34.5 -3.1 L35.2 -2.2 35.85 -0.5 36.5 0.3 36.65 0.3 Q38.65 0.3 39.25 -1.1 39.65 -2.0 39.65 -4.7 39.65 -7.35 39.15 -9.65 L38.8 -10.95 M-43.3 6.9 L-42.55 6.9 Q-41.2 6.9 -39.95 6.1 -38.35 5.05 -38.35 3.3 L-38.65 -0.85 Q-38.7 -2.75 -37.55 -6.1 L-35.4 -9.5 -34.05 -11.95 -33.95 -11.6 Q-34.7 -5.85 -33.75 -1.1 L-32.25 -0.95 Q-31.85 -0.2 -31.75 1.1 L-31.75 1.8 Q-31.75 2.7 -32.3 5.0 -32.85 7.3 -33.15 7.7 -33.55 8.3 -35.75 8.7 L-39.05 9.3 Q-40.2 9.3 -41.85 8.7 L-43.3 6.9" fill="#5e3300" fill-rule="evenodd" stroke="none"/>
      <path d="M26.8 1.25 L26.55 0.9 Q25.65 0.0 27.45 -0.25 L31.6 -0.6 Q32.85 -0.7 33.8 0.15 L34.15 0.55 33.65 0.6 33.05 0.6 33.05 1.1 32.75 1.1 32.55 0.65 32.2 0.7 32.05 1.0 31.85 1.7 Q31.45 1.8 31.15 1.3 L30.9 0.85 30.65 0.9 30.55 0.9 30.45 1.2 30.35 1.8 30.15 1.8 29.6 1.1 29.45 0.95 28.5 1.0 28.4 1.3 28.45 2.2 28.0 1.5 27.75 1.1 27.8 1.05 27.75 1.05 27.4 1.1 26.8 1.25 M-31.1 -0.85 Q-32.15 -1.8 -30.05 -1.85 L-25.6 -1.75 Q-23.95 -1.7 -23.0 -0.1 L-23.5 -0.1 -24.4 -0.1 -24.45 0.3 -24.65 0.3 -25.0 -0.1 -25.15 -0.3 Q-25.5 -0.7 -25.85 -0.6 L-25.95 -0.15 -26.05 0.5 -27.25 -0.8 -27.35 -0.25 -27.75 0.7 -27.85 0.7 -28.15 0.25 -28.65 -0.1 -28.95 0.0 -29.05 0.7 -29.15 0.6 Q-29.2 0.3 -29.55 0.1 L-29.9 -0.05 -30.3 0.15 -30.45 0.25 -30.5 0.0 -31.1 -0.85" fill="#632100" fill-rule="evenodd" stroke="none"/>
      <path d="M28.6 10.8 Q28.6 8.2 28.15 5.65 L27.1 1.75 26.8 1.25 27.4 1.1 27.75 1.05 27.8 1.05 27.75 1.1 28.0 1.5 28.45 2.2 28.4 1.3 28.5 1.0 29.45 0.95 29.6 1.1 30.15 1.8 30.35 1.8 30.45 1.2 30.55 0.9 30.65 0.9 30.9 0.85 31.15 1.3 Q31.45 1.8 31.85 1.7 L32.05 1.0 32.2 0.7 32.55 0.65 32.75 1.1 33.05 1.1 33.05 0.6 33.65 0.6 34.15 0.55 34.4 1.0 35.1 3.15 Q35.65 5.4 35.8 7.1 L35.3 7.95 34.85 7.5 34.85 7.6 Q34.6 8.0 34.5 8.95 L33.9 9.45 33.9 9.5 33.55 9.1 33.45 9.2 33.3 9.9 32.9 10.1 32.45 9.5 Q32.45 10.2 32.05 10.5 L31.5 10.7 31.05 10.85 30.7 10.9 30.3 11.0 30.25 11.0 29.6 11.05 29.5 10.95 29.0 10.5 28.6 10.8 M-30.45 0.25 L-30.3 0.15 -29.9 -0.05 -29.55 0.1 Q-29.2 0.3 -29.15 0.6 L-29.05 0.7 -28.95 0.0 -28.65 -0.1 -28.15 0.25 -27.85 0.7 -27.75 0.7 -27.35 -0.25 -27.25 -0.8 -26.05 0.5 -25.95 -0.15 -25.85 -0.6 Q-25.5 -0.7 -25.15 -0.3 L-25.0 -0.1 -24.65 0.3 -24.45 0.3 -24.4 -0.1 -23.5 -0.1 -23.0 -0.1 -22.65 0.65 -22.45 1.1 -22.35 1.5 Q-21.6 4.05 -22.0 6.85 L-23.05 8.2 -23.1 8.3 -23.55 8.1 Q-23.95 8.1 -24.15 8.55 L-24.6 9.4 -24.75 9.5 -24.85 9.1 Q-25.05 9.3 -25.35 9.3 L-25.4 8.7 -25.45 8.7 Q-25.45 9.2 -25.9 9.85 L-26.35 9.9 -26.75 9.9 -26.8 9.9 -27.55 9.9 -27.65 9.2 -27.75 9.2 -28.05 9.9 -28.9 9.85 -29.25 9.3 -29.3 9.85 -29.8 9.8 -29.95 8.7 -30.65 9.0 Q-30.85 9.2 -31.15 9.2 -29.8 6.7 -29.95 3.55 -30.1 1.35 -30.45 0.25" fill="#451800" fill-rule="evenodd" stroke="none"/>
      <path d="M35.35 11.8 Q35.1 12.7 34.1 12.85 L28.45 13.35 28.6 11.1 28.6 10.8 29.0 10.5 29.5 10.95 29.6 11.05 30.25 11.0 30.3 11.0 30.7 10.9 31.05 10.85 31.5 10.7 32.05 10.5 Q32.45 10.2 32.45 9.5 L32.9 10.1 33.3 9.9 33.45 9.2 33.55 9.1 33.9 9.5 33.9 9.45 34.5 8.95 Q34.6 8.0 34.85 7.6 L34.85 7.5 35.3 7.95 35.8 7.1 35.8 7.15 35.85 8.65 35.85 9.2 35.75 10.15 35.35 11.8 M-22.0 6.85 L-22.3 8.2 -22.45 8.9 Q-23.3 11.75 -24.8 12.25 L-31.5 11.95 Q-32.9 11.3 -32.5 10.45 L-31.75 10.2 -31.3 9.55 -31.15 9.2 Q-30.85 9.2 -30.65 9.0 L-29.95 8.7 -29.8 9.8 -29.3 9.85 -29.25 9.3 -28.9 9.85 -28.05 9.9 -27.75 9.2 -27.65 9.2 -27.55 9.9 -26.8 9.9 -26.75 9.9 -26.35 9.9 -25.9 9.85 Q-25.45 9.2 -25.45 8.7 L-25.4 8.7 -25.35 9.3 Q-25.05 9.3 -24.85 9.1 L-24.75 9.5 -24.6 9.4 -24.15 8.55 Q-23.95 8.1 -23.55 8.1 L-23.1 8.3 -23.05 8.2 -22.0 6.85" fill="#290d00" fill-rule="evenodd" stroke="none"/>
      <path d="M43.75 -3.8 Q45.65 0.55 44.45 6.2 43.15 11.9 35.35 11.8 L35.75 10.15 35.85 9.2 36.25 9.1 Q41.35 7.8 42.95 2.1 43.6 -0.25 43.75 -3.8 M-41.85 8.7 Q-40.2 9.3 -39.05 9.3 L-35.75 8.7 Q-33.55 8.3 -33.15 7.7 -32.85 7.3 -32.3 5.0 -31.75 2.7 -31.75 1.8 L-31.75 1.1 Q-31.85 -0.2 -32.25 -0.95 L-31.95 -0.9 -31.1 -0.85 -30.5 0.0 -30.45 0.25 Q-30.1 1.35 -29.95 3.55 -29.8 6.7 -31.15 9.2 L-31.3 9.55 -31.75 10.2 -32.5 10.45 -35.5 10.45 Q-39.5 10.75 -41.85 8.7" fill="#402100" fill-rule="evenodd" stroke="none"/>
      <path d="M34.5 -3.1 Q34.7 -5.2 34.3 -7.55 33.55 -11.9 35.7 -11.95 37.25 -12.05 38.8 -10.95 L39.7 -10.2 Q41.6 -8.35 43.65 -3.95 L43.75 -3.8 Q45.65 0.55 44.45 6.2 43.15 11.9 35.35 11.8 35.1 12.7 34.1 12.85 L28.45 13.35 28.6 11.1 28.6 10.8 Q28.6 8.2 28.15 5.65 L27.1 1.75 26.8 1.25 26.55 0.9 Q25.65 0.0 27.45 -0.25 L31.6 -0.6 Q32.85 -0.7 33.8 0.15 34.35 -1.4 34.5 -3.1 M34.15 0.55 L34.4 1.0 35.1 3.15 Q35.65 5.4 35.8 7.1 L35.8 7.15 35.85 8.65 35.85 9.2 35.75 10.15 35.35 11.8 M34.15 0.55 L33.8 0.15 M-43.3 6.9 L-41.85 8.7 Q-39.5 10.75 -35.5 10.45 L-32.5 10.45 -31.75 10.2 -31.3 9.55 -31.15 9.2 Q-29.8 6.7 -29.95 3.55 -30.1 1.35 -30.45 0.25 L-30.5 0.0 -31.1 -0.85 -31.95 -0.9 M-33.75 -1.1 Q-34.7 -5.85 -33.95 -11.6 L-34.05 -11.95 Q-34.95 -14.8 -39.15 -11.7 -45.65 -6.35 -44.75 3.0 -44.3 5.3 -43.3 6.9 M-23.0 -0.1 Q-23.95 -1.7 -25.6 -1.75 L-30.05 -1.85 Q-32.15 -1.8 -31.1 -0.85 M-23.0 -0.1 L-22.65 0.65 M-22.45 1.1 L-22.35 1.5 Q-21.6 4.05 -22.0 6.85 L-22.3 8.2 -22.45 8.9 Q-23.3 11.75 -24.8 12.25 L-31.5 11.95 Q-32.9 11.3 -32.5 10.45" fill="none" stroke="#000000" stroke-linecap="round" stroke-linejoin="round" stroke-opacity="0.6627451" stroke-width="1.0"/>
    </g>
    <g id="sprite1" transform="matrix(1.0, 0.0, 0.0, 1.0, 44.85, 13.3)">
      <use height="26.65" transform="matrix(1.0, 0.0, 0.0, 1.0, -44.85, -13.3)" width="89.75" xlink:href="#shape1"/>
    </g>
    <g id="shape1" transform="matrix(1.0, 0.0, 0.0, 1.0, 44.85, 13.3)">
      <path d="M35.8 7.1 L35.8 7.15 35.8 7.1 M34.85 7.5 L34.9 7.55 34.85 7.6 34.85 7.5" fill="#290d00" fill-rule="evenodd" stroke="none"/>
      <path d="M-32.5 10.45 L-35.5 10.45 Q-39.5 10.75 -41.85 8.7 L-43.3 6.9 Q-44.3 5.3 -44.75 3.0 -45.65 -6.35 -39.15 -11.7 -34.95 -14.8 -34.05 -11.95 L-33.95 -11.6 Q-34.7 -5.85 -33.75 -1.1 L-31.1 -0.85 -30.5 0.0 -30.45 0.25 Q-30.1 1.35 -29.95 3.55 -29.8 6.7 -31.15 9.2 L-31.3 9.55 -31.75 10.2 -32.5 10.45" fill="url(#gradient0)" fill-rule="evenodd" stroke="none"/>
      <path d="M-31.1 -0.85 Q-32.15 -1.8 -30.05 -1.85 L-25.6 -1.75 Q-23.95 -1.7 -23.0 -0.1 L-22.65 0.65 -22.45 1.1 -22.35 1.5 Q-21.6 4.05 -22.0 6.85 L-22.3 8.2 -22.45 8.9 Q-23.3 11.75 -24.8 12.25 L-31.5 11.95 Q-32.9 11.3 -32.5 10.45 L-31.75 10.2 -31.3 9.55 -31.15 9.2 Q-29.8 6.7 -29.95 3.55 -30.1 1.35 -30.45 0.25 L-30.5 0.0 -31.1 -0.85" fill="url(#gradient1)" fill-rule="evenodd" stroke="none"/>
      <path d="M35.35 11.8 Q35.1 12.7 34.1 12.85 L28.45 13.35 28.6 11.1 28.6 10.8 Q28.6 8.2 28.15 5.65 L27.1 1.75 26.8 1.25 26.55 0.9 Q25.65 0.0 27.45 -0.25 L31.6 -0.6 Q32.85 -0.7 33.8 0.15 L34.15 0.55 34.4 1.0 35.1 3.15 Q35.65 5.4 35.8 7.1 L35.8 7.15 35.85 8.65 35.85 9.2 35.75 10.15 35.35 11.8 M34.85 7.5 L34.85 7.6 34.9 7.55 34.85 7.5" fill="url(#gradient2)" fill-rule="evenodd" stroke="none"/>
      <path d="M33.8 0.15 Q34.35 -1.4 34.5 -3.1 34.7 -5.2 34.3 -7.55 33.55 -11.9 35.7 -11.95 37.25 -12.05 38.8 -10.95 L39.7 -10.2 Q41.6 -8.35 43.65 -3.95 L43.75 -3.8 Q45.65 0.55 44.45 6.2 43.15 11.9 35.35 11.8 L35.75 10.15 35.85 9.2 35.85 8.65 35.8 7.15 35.8 7.1 Q35.65 5.4 35.1 3.15 L34.4 1.0 34.15 0.55 33.8 0.15" fill="url(#gradient3)" fill-rule="evenodd" stroke="none"/>
    </g>
    <linearGradient gradientTransform="matrix(-0.0204, -0.0118, 0.0073, -0.0126, -35.05, -0.1)" gradientUnits="userSpaceOnUse" id="gradient0" spreadMethod="pad" x1="-819.2" x2="819.2">
      <stop offset="0.0" stop-color="#000000"/>
      <stop offset="1.0" stop-color="#ffffff"/>
    </linearGradient>
    <linearGradient gradientTransform="matrix(-0.0123, -0.0072, 0.0043, -0.0074, -25.55, 5.55)" gradientUnits="userSpaceOnUse" id="gradient1" spreadMethod="pad" x1="-819.2" x2="819.2">
      <stop offset="0.0" stop-color="#000000"/>
      <stop offset="1.0" stop-color="#ffffff"/>
    </linearGradient>
    <linearGradient gradientTransform="matrix(-0.013, -0.0075, 0.0042, -0.0074, 31.95, 6.55)" gradientUnits="userSpaceOnUse" id="gradient2" spreadMethod="pad" x1="-819.2" x2="819.2">
      <stop offset="0.0" stop-color="#000000"/>
      <stop offset="1.0" stop-color="#ffffff"/>
    </linearGradient>
    <linearGradient gradientTransform="matrix(-0.014, -0.0141, 0.0102, -0.0102, 41.05, 1.55)" gradientUnits="userSpaceOnUse" id="gradient3" spreadMethod="pad" x1="-819.2" x2="819.2">
      <stop offset="0.0" stop-color="#000000"/>
      <stop offset="1.0" stop-color="#ffffff"/>
    </linearGradient>
  </defs>
</svg>
