<?xml version="1.0" encoding="UTF-8" standalone="no"?>
<svg xmlns:xlink="http://www.w3.org/1999/xlink" height="531.5px" width="460.6px" xmlns="http://www.w3.org/2000/svg">
  <g transform="matrix(1.0, 0.0, 0.0, 1.0, 193.65, 334.05)">
    <use height="125.8" transform="matrix(0.4529, 0.0, 0.0, 0.4529, -87.2325, -30.59)" width="328.05" xlink:href="#shape0"/>
    <use height="122.3" transform="matrix(0.4529, 0.0, 0.0, 0.4529, -86.4398, -29.7974)" width="324.55" xlink:href="#sprite0"/>
  </g>
  <defs>
    <g id="shape0" transform="matrix(1.0, 0.0, 0.0, 1.0, 164.0, 62.9)">
      <path d="M160.8 -36.75 L120.25 -29.25 Q95.2 -24.75 74.15 -23.25 L39.05 -21.4 Q24.95 -21.05 5.6 -21.65 L-34.05 -22.75 Q-48.6 -23.1 -70.25 -26.75 -69.85 -28.75 -69.85 -31.55 -69.85 -40.45 -71.85 -45.9 53.7 -31.6 160.3 -39.9 L160.8 -36.75 M-115.8 -42.35 L-114.95 -42.3 -111.8 -43.0 -109.0 -43.7 Q-108.4 -43.7 -107.4 -42.1 -105.85 -40.6 -102.2 -40.8 -97.7 -41.1 -95.1 -38.5 -94.4 -37.8 -91.9 -36.65 -90.0 -35.75 -89.45 -34.25 L-88.0 -30.1 -88.4 -30.2 Q-103.85 -33.4 -115.7 -37.3 L-115.7 -39.7 -115.8 -42.35" fill="#54210a" fill-rule="evenodd" stroke="none"/>
      <path d="M-71.85 -45.9 Q-69.85 -40.45 -69.85 -31.55 -69.85 -28.75 -70.25 -26.75 -48.6 -23.1 -34.05 -22.75 L5.6 -21.65 Q24.95 -21.05 39.05 -21.4 L74.15 -23.25 Q95.2 -24.75 120.25 -29.25 L160.8 -36.75 Q163.6 -18.9 161.2 -14.5 160.85 -13.65 159.55 -12.9 L158.95 -12.65 Q152.1 -11.2 108.3 -7.8 99.3 -7.15 65.75 -6.8 L-6.35 -9.1 -49.55 -12.1 -61.5 -13.25 -72.75 -14.65 -90.45 -17.05 -114.2 -20.55 Q-115.3 -21.05 -115.6 -22.25 L-115.7 -22.75 -115.7 -37.3 Q-103.85 -33.4 -88.4 -30.2 L-88.0 -30.1 -89.45 -34.25 Q-90.0 -35.75 -91.9 -36.65 -94.4 -37.8 -95.1 -38.5 -97.7 -41.1 -102.2 -40.8 -105.85 -40.6 -107.4 -42.1 -108.4 -43.7 -109.0 -43.7 L-111.8 -43.0 -114.95 -42.3 -115.8 -42.35 Q-115.8 -49.5 -112.4 -51.05 L-73.55 -46.1 -71.85 -45.9" fill="#3d1707" fill-rule="evenodd" stroke="none"/>
      <path d="M160.8 -36.75 L160.3 -39.9 Q53.7 -31.6 -71.85 -45.9 L-73.55 -46.1 -112.4 -51.05 Q-115.8 -49.5 -115.8 -42.35 L-115.7 -39.7 -115.7 -37.3 -115.7 -22.75 -115.6 -22.25 Q-115.3 -21.05 -114.2 -20.55 L-90.45 -17.05 -72.75 -14.65 -61.5 -13.25 -49.55 -12.1 -6.35 -9.1 65.75 -6.8 Q99.3 -7.15 108.3 -7.8 152.1 -11.2 158.95 -12.65 L159.55 -12.9 Q160.85 -13.65 161.2 -14.5 163.6 -18.9 160.8 -36.75 Z" fill="none" stroke="#000000" stroke-linecap="round" stroke-linejoin="round" stroke-opacity="0.6627451" stroke-width="3.5"/>
      <path d="M-112.55 -61.15 L-111.95 -60.6 -113.0 -56.85 -113.55 -53.95 -115.5 -53.65 -119.45 -52.9 Q-120.15 -55.2 -120.15 -56.3 L-120.05 -58.4 -120.0 -58.7 Q-119.75 -59.35 -118.8 -59.7 -117.65 -60.2 -112.55 -61.15 M-104.1 -60.75 L-102.15 -61.15 Q-101.45 -61.15 -96.45 -59.6 L-96.5 -59.35 Q-98.35 -57.5 -98.5 -53.2 L-106.55 -54.35 -106.55 -55.05 Q-106.55 -59.55 -104.1 -60.75 M-88.5 -55.7 L-88.15 -55.75 Q-86.35 -55.75 -84.05 -53.4 L-82.15 -51.05 -82.15 -50.3 -82.6 -50.15 Q-85.05 -49.35 -86.9 -47.5 L-87.1 -47.35 Q-89.35 -49.5 -92.5 -51.0 L-92.2 -51.65 Q-90.25 -55.35 -88.5 -55.7" fill="#54210a" fill-rule="evenodd" stroke="none"/>
      <path d="M-111.95 -60.6 L-109.3 -60.8 -104.1 -60.75 Q-106.55 -59.55 -106.55 -55.05 L-106.55 -54.35 -108.15 -54.4 -113.55 -53.95 -113.0 -56.85 -111.95 -60.6 M-96.5 -59.35 L-96.4 -59.3 Q-92.2 -58.1 -88.5 -55.7 -90.25 -55.35 -92.2 -51.65 L-92.5 -51.0 Q-93.75 -51.65 -95.15 -52.15 L-98.5 -53.2 Q-98.35 -57.5 -96.5 -59.35 M-126.0 -18.6 L-125.65 -17.9 Q-125.45 -17.35 -126.15 -13.45 L-123.4 -10.15 Q-124.7 -9.1 -125.5 -7.35 -127.65 -8.85 -129.35 -10.85 L-129.85 -11.5 Q-131.3 -13.4 -132.15 -15.45 -130.25 -18.25 -128.4 -18.85 L-127.2 -19.05 Q-126.45 -19.1 -126.0 -18.6 M-129.1 -17.6 L-127.6 -15.45 -126.15 -13.45 -127.6 -15.45 -129.1 -17.6 M-107.15 -1.0 Q-111.2 -1.15 -115.45 -2.65 L-117.6 -3.5 Q-119.4 -4.35 -120.85 -5.35 L-119.75 -7.15 -119.35 -6.9 -119.3 -6.8 -118.45 -7.2 -117.15 -6.65 -114.8 -5.75 -114.35 -5.6 Q-112.6 -5.05 -110.9 -4.75 L-110.2 -4.6 -107.3 -4.35 -107.2 -1.5 -107.15 -1.0" fill="#37322f" fill-rule="evenodd" stroke="none"/>
      <path d="M-137.1 -19.9 Q-137.55 -22.55 -137.6 -25.45 -137.65 -32.05 -135.7 -38.65 -133.75 -45.25 -129.8 -51.05 -127.3 -54.75 -124.05 -56.7 -122.25 -57.85 -120.15 -58.65 L-120.0 -58.7 -120.05 -58.4 -120.15 -56.3 Q-120.15 -55.2 -119.45 -52.9 L-119.25 -52.2 -119.15 -51.9 Q-121.7 -50.75 -124.55 -48.1 -127.45 -45.5 -128.8 -42.8 -130.2 -40.15 -131.85 -35.75 -133.55 -31.35 -133.55 -27.05 L-133.5 -26.0 Q-135.15 -23.95 -137.1 -19.9 M-86.9 -47.5 Q-83.05 -43.25 -81.1 -38.2 -79.15 -33.2 -79.55 -28.0 -79.95 -22.8 -80.75 -19.25 -81.55 -15.75 -85.95 -9.95 -88.7 -6.4 -93.95 -4.15 -97.3 -2.75 -101.65 -1.85 -101.9 -4.0 -101.75 -5.6 -101.65 -7.3 -101.25 -8.15 L-99.25 -10.0 Q-98.0 -10.75 -94.55 -8.0 L-94.0 -8.3 -93.6 -8.55 -93.2 -8.85 Q-91.3 -10.4 -89.6 -12.4 L-88.05 -16.7 Q-85.3 -25.2 -85.7 -30.95 L-86.0 -33.25 Q-86.8 -37.35 -89.2 -41.1 L-90.15 -42.45 Q-89.55 -44.75 -87.6 -46.8 L-87.6 -46.85 -87.1 -47.35 -86.9 -47.5 M-100.9 -5.05 L-99.55 -5.45 Q-98.9 -5.65 -94.55 -8.0 -98.9 -5.65 -99.55 -5.45 L-100.9 -5.05" fill="#4f4542" fill-rule="evenodd" stroke="none"/>
      <path d="M-82.15 -50.3 Q-68.25 -26.25 -82.15 -7.8 L-82.4 -7.35 Q-86.85 -2.9 -92.55 -0.4 L-92.4 0.05 -93.05 0.2 -93.8 0.45 -93.95 0.5 Q-97.2 1.4 -100.25 1.9 -101.45 0.65 -101.65 -1.65 L-101.65 -1.8 -101.65 -1.85 Q-97.3 -2.75 -93.95 -4.15 -88.7 -6.4 -85.95 -9.95 -81.55 -15.75 -80.75 -19.25 -79.95 -22.8 -79.55 -28.0 -79.15 -33.2 -81.1 -38.2 -83.05 -43.25 -86.9 -47.5 -85.05 -49.35 -82.6 -50.15 L-82.15 -50.3 M-113.55 -53.95 L-108.15 -54.4 -106.55 -54.35 Q-106.45 -51.75 -105.7 -50.15 L-106.9 -50.15 -109.2 -50.0 -112.8 -49.3 -112.8 -49.65 -113.05 -50.9 -113.5 -52.85 -113.55 -53.95 M-119.15 -51.9 L-118.35 -49.95 Q-117.7 -48.7 -116.85 -47.9 -118.75 -47.1 -120.35 -45.95 L-123.8 -42.8 Q-127.8 -36.1 -128.9 -29.4 L-129.3 -26.0 -132.0 -27.5 -133.5 -26.0 -133.55 -27.05 Q-133.55 -31.35 -131.85 -35.75 -130.2 -40.15 -128.8 -42.8 -127.45 -45.5 -124.55 -48.1 -121.7 -50.75 -119.15 -51.9 M-97.8 -48.25 L-98.05 -48.6 -98.4 -49.9 -98.55 -52.15 -98.5 -53.2 -95.15 -52.15 Q-93.75 -51.65 -92.5 -51.0 L-93.9 -47.85 -94.7 -46.35 Q-96.15 -47.5 -97.8 -48.25 M-132.15 -15.45 Q-131.3 -13.4 -129.85 -11.5 L-129.35 -10.85 Q-127.65 -8.85 -125.5 -7.35 -126.55 -5.25 -126.8 -2.2 -126.85 -4.55 -129.7 -6.9 L-131.65 -8.45 -134.7 -11.0 -133.2 -13.8 -132.15 -15.45 M-121.95 -1.5 L-121.95 -1.6 -121.15 -4.65 -120.85 -5.35 Q-119.4 -4.35 -117.6 -3.5 L-115.45 -2.65 Q-111.2 -1.15 -107.15 -1.0 L-107.2 2.25 -111.6 1.75 -111.85 1.7 -114.95 0.95 -116.55 0.5 -118.05 0.0 -121.95 -1.5" fill="#1c1817" fill-rule="evenodd" stroke="none"/>
      <path d="M-119.45 -52.9 L-115.5 -53.65 -113.55 -53.95 -113.5 -52.85 -113.05 -50.9 -112.8 -49.65 -112.8 -49.3 -112.8 -48.7 Q-114.9 -46.8 -116.85 -47.9 -117.7 -48.7 -118.35 -49.95 L-119.15 -51.9 -119.25 -52.2 -119.45 -52.9 M-105.7 -50.15 Q-106.45 -51.75 -106.55 -54.35 L-98.5 -53.2 -98.55 -52.15 -98.4 -49.9 -98.05 -48.6 -97.8 -48.25 Q-97.75 -47.75 -97.95 -47.75 L-100.1 -47.4 Q-103.65 -47.3 -105.15 -49.25 L-105.55 -49.9 -105.7 -50.15 M-90.15 -42.45 L-90.15 -42.4 -90.4 -42.05 -90.4 -42.0 Q-91.45 -42.35 -92.4 -43.05 -93.4 -43.75 -94.0 -44.6 -94.65 -45.45 -94.7 -46.35 L-93.9 -47.85 -92.5 -51.0 Q-89.35 -49.5 -87.1 -47.35 L-87.6 -46.85 -87.6 -46.8 Q-89.55 -44.75 -90.15 -42.45" fill="#3d1707" fill-rule="evenodd" stroke="none"/>
      <path d="M-99.15 59.05 L-99.9 47.65 -100.4 35.5 Q-101.25 13.65 -100.7 10.15 L-106.8 10.15 Q-107.4 8.75 -107.25 4.75 L-107.2 3.1 -107.2 2.4 -107.2 2.25 -107.15 -1.0 -107.2 -1.5 -107.3 -4.35 -107.3 -4.85 -107.25 -7.3 -107.35 -9.2 -107.3 -11.9 -107.05 -15.0 Q-106.95 -16.25 -105.95 -16.5 L-105.5 -16.55 -102.65 -16.6 -100.95 -16.55 -98.0 -16.7 -94.2 -16.65 -94.0 -8.3 -94.55 -8.0 Q-98.0 -10.75 -99.25 -10.0 L-101.25 -8.15 Q-101.65 -7.3 -101.75 -5.6 -101.9 -4.0 -101.65 -1.85 L-101.65 -1.8 -101.65 -1.65 Q-101.45 0.65 -100.25 1.9 L-99.7 2.55 -99.45 2.7 Q-98.0 3.9 -95.4 3.1 L-95.05 2.85 Q-94.35 2.35 -93.95 1.2 -94.0 7.8 -94.2 13.65 -94.95 32.95 -95.45 38.1 -96.4 47.75 -99.15 59.05 M-139.05 54.8 L-139.0 54.0 -137.6 47.45 -136.15 47.6 -135.5 47.7 -133.4 48.25 -133.35 48.1 -133.3 48.1 Q-132.7 48.1 -132.35 46.2 L-132.1 43.8 -132.1 43.2 Q-132.2 42.45 -132.4 42.25 L-133.45 42.05 -133.55 42.05 -136.7 41.45 -136.3 37.85 -136.15 36.15 -136.05 35.5 -133.7 35.8 -130.7 36.25 -128.0 36.55 -127.9 36.15 -127.25 32.2 -127.25 31.95 Q-124.9 18.6 -123.65 13.2 L-122.95 9.85 -122.8 8.95 -122.75 8.5 Q-125.25 8.25 -126.1 5.55 L-126.3 4.75 Q-126.95 1.8 -127.0 -0.65 L-127.0 -0.7 -127.05 -0.65 -127.15 -0.55 -126.85 -1.55 -126.8 -2.2 Q-126.55 -5.25 -125.5 -7.35 -124.7 -9.1 -123.4 -10.15 L-123.05 -10.85 -121.75 -12.15 Q-121.0 -12.85 -120.1 -13.25 -118.4 -14.15 -116.3 -14.15 L-116.25 -14.15 -116.85 -9.2 -118.05 -8.85 -119.3 -7.7 -119.75 -7.15 -120.85 -5.35 -121.15 -4.65 -121.95 -1.6 -121.95 -1.5 Q-121.95 -0.25 -121.4 1.3 -120.9 2.8 -118.65 4.05 L-122.5 30.2 Q-123.65 38.45 -129.9 47.1 L-131.0 48.55 Q-134.05 52.5 -137.2 55.3 L-139.05 54.8 M-158.5 31.85 L-150.65 16.6 -147.35 10.45 -138.6 -5.7 -140.4 -6.8 Q-141.5 -7.4 -141.8 -8.15 L-141.6 -9.15 -141.25 -10.1 -139.05 -15.55 -138.35 -17.2 -137.1 -19.9 Q-135.15 -23.95 -133.5 -26.0 L-132.0 -27.5 -129.3 -26.0 Q-126.4 -24.4 -125.15 -23.6 L-124.2 -22.95 Q-124.85 -21.05 -126.0 -18.6 -126.45 -19.1 -127.2 -19.05 L-128.4 -18.85 Q-130.25 -18.25 -132.15 -15.45 L-133.2 -13.8 -134.7 -11.0 -135.25 -9.65 Q-135.6 -8.75 -134.15 -7.2 -133.6 -6.65 -132.8 -6.45 -137.85 2.3 -139.45 6.1 -142.65 13.7 -151.9 24.7 -155.6 29.1 -158.5 31.85 M-128.0 36.55 L-128.75 41.1 -129.4 44.7 -129.9 47.1 -129.4 44.7 -128.75 41.1 -128.0 36.55" fill="#a07001" fill-rule="evenodd" stroke="none"/>
      <path d="M-92.4 0.05 L-91.75 -0.15 -88.45 -1.5 Q-87.9 6.4 -87.9 7.7 -87.9 9.85 -89.0 10.35 L-91.5 10.6 -93.8 10.5 Q-94.1 23.15 -93.9 36.3 -93.0 42.85 -92.4 43.55 -91.8 44.2 -87.25 44.05 L-86.9 46.2 Q-86.75 47.15 -87.1 49.95 L-92.85 49.95 -92.55 54.5 -86.65 54.2 Q-86.1 56.25 -86.65 59.8 L-96.1 60.35 -99.0 60.35 -99.15 59.05 Q-96.4 47.75 -95.45 38.1 -94.95 32.95 -94.2 13.65 -94.0 7.8 -93.95 1.2 L-93.8 0.45 -93.05 0.2 -92.4 0.05 M-107.2 3.1 Q-108.7 7.05 -110.7 8.45 L-112.65 9.45 -115.45 9.55 -119.05 29.4 -120.65 37.45 -114.75 38.6 -115.3 43.5 -116.65 43.2 -119.8 42.95 -120.8 47.45 -115.85 48.15 -116.3 51.9 -121.2 51.35 -122.05 55.0 -120.15 55.3 -116.7 55.55 -117.25 59.35 -121.05 59.0 -124.5 58.7 Q-124.5 59.05 -125.0 60.2 -125.5 61.3 -128.75 61.15 -132.15 61.05 -132.55 59.5 L-131.95 56.75 -131.9 56.6 -130.75 51.2 -129.9 47.1 -130.75 51.2 -131.9 56.6 -136.0 55.6 -137.2 55.3 Q-134.05 52.5 -131.0 48.55 L-129.9 47.1 Q-123.65 38.45 -122.5 30.2 L-118.65 4.05 -118.4 4.15 -114.2 4.05 -113.05 3.2 -112.25 2.55 -111.85 1.7 -111.6 1.75 -107.2 2.25 -107.2 2.4 -107.2 3.1 M-127.15 -0.55 Q-128.35 0.8 -129.2 0.95 -132.8 -0.7 -133.6 -1.55 L-139.35 10.45 -146.7 24.95 -146.8 25.1 -146.85 25.1 -146.75 25.15 -145.9 25.35 -142.45 26.55 Q-142.15 27.35 -142.6 29.3 -143.15 31.3 -143.85 32.55 L-147.2 30.95 Q-148.3 31.5 -148.75 32.85 L-149.7 35.7 Q-148.0 36.75 -145.6 37.15 L-147.2 41.7 -150.75 40.45 Q-151.85 40.05 -152.65 39.5 L-154.75 43.3 Q-156.65 43.85 -159.1 42.75 L-159.2 42.75 Q-161.5 41.8 -162.25 39.95 L-162.2 39.75 -158.5 31.85 Q-155.6 29.1 -151.9 24.7 -142.65 13.7 -139.45 6.1 -137.85 2.3 -132.8 -6.45 -131.55 -6.2 -129.7 -6.9 -126.85 -4.55 -126.8 -2.2 L-126.85 -1.55 -127.15 -0.55 M-126.15 -13.45 Q-125.45 -17.35 -125.65 -17.9 L-126.0 -18.6 Q-124.85 -21.05 -124.2 -22.95 -119.35 -19.8 -118.85 -18.55 -118.6 -17.85 -118.85 -16.6 -119.05 -15.65 -119.6 -14.45 L-120.1 -13.25 Q-121.0 -12.85 -121.75 -12.15 L-123.05 -10.85 -123.4 -10.15 -126.15 -13.45 M-116.25 -14.15 Q-114.6 -14.15 -111.95 -12.95 L-111.1 -12.45 Q-109.25 -11.35 -107.7 -9.6 L-107.35 -9.2 -107.25 -7.3 -107.3 -4.85 -107.3 -4.35 -110.2 -4.6 Q-112.35 -8.4 -113.35 -8.85 -114.85 -9.65 -116.85 -9.2 L-116.25 -14.15 M-105.5 -16.55 L-101.0 -16.75 -94.2 -16.75 -92.45 -16.8 -88.95 -16.75 -88.05 -16.7 -89.6 -12.4 Q-91.3 -10.4 -93.2 -8.85 L-93.6 -8.55 -94.0 -8.3 -94.2 -16.65 -98.0 -16.7 -100.95 -16.55 -102.65 -16.6 -105.5 -16.55 M-88.95 -16.75 Q-92.55 -16.55 -93.9 -16.65 L-94.2 -16.65 -93.9 -16.65 Q-92.55 -16.55 -88.95 -16.75 M-152.65 39.5 Q-153.5 38.95 -155.55 38.25 L-151.95 30.1 -149.1 24.35 -146.85 25.1 -149.1 24.35 -151.95 30.1 -155.55 38.25 Q-153.5 38.95 -152.65 39.5 M-124.5 58.7 L-126.4 58.45 -125.95 55.15 -125.2 50.65 -122.9 37.35 -120.65 37.45 -122.9 37.35 -125.2 50.65 -125.95 55.15 -126.4 58.45 -124.5 58.7" fill="#4f3800" fill-rule="evenodd" stroke="none"/>
      <path d="M-133.35 56.65 L-135.35 56.25 -135.35 56.2 -133.35 56.65 M-119.35 -6.9 L-119.0 -7.1 -118.5 -7.3 -118.45 -7.2 -119.3 -6.8 -119.35 -6.9" fill="#959595" fill-rule="evenodd" stroke="none"/>
      <path d="M-111.95 -60.6 L-111.85 -60.75 -111.7 -60.95 -112.55 -61.15 Q-117.65 -60.2 -118.8 -59.7 -119.75 -59.35 -120.0 -58.7 L-120.05 -58.4 -120.15 -56.3 Q-120.15 -55.2 -119.45 -52.9 L-119.25 -52.2 -119.15 -51.9 -118.35 -49.95 Q-117.7 -48.7 -116.85 -47.9 -114.9 -46.8 -112.8 -48.7 L-112.8 -49.3 -112.8 -49.65 -113.05 -50.9 -113.5 -52.85 -113.55 -53.95 -113.0 -56.85 -111.95 -60.6 -109.3 -60.8 -104.1 -60.75 -102.15 -61.15 Q-101.45 -61.15 -96.45 -59.6 L-96.35 -59.55 -96.5 -59.35 -96.4 -59.3 Q-92.2 -58.1 -88.5 -55.7 L-88.15 -55.75 Q-86.35 -55.75 -84.05 -53.4 L-82.15 -51.05 -82.15 -50.3 Q-68.25 -26.25 -82.15 -7.8 L-82.4 -7.35 Q-86.85 -2.9 -92.55 -0.4 M-92.4 0.05 L-91.75 -0.15 -88.45 -1.5 Q-87.9 6.4 -87.9 7.7 -87.9 9.85 -89.0 10.35 L-91.5 10.6 -93.8 10.5 Q-94.1 23.15 -93.9 36.3 -93.0 42.85 -92.4 43.55 -91.8 44.2 -87.25 44.05 L-86.9 46.2 Q-86.75 47.15 -87.1 49.95 L-92.85 49.95 -92.55 54.5 -86.65 54.2 Q-86.1 56.25 -86.65 59.8 L-96.1 60.35 -99.0 60.35 -99.15 59.05 -99.9 47.65 -100.4 35.5 Q-101.25 13.65 -100.7 10.15 L-106.8 10.15 Q-107.4 8.75 -107.25 4.75 L-107.2 3.1 Q-108.7 7.05 -110.7 8.45 L-112.65 9.45 -115.45 9.55 -119.05 29.4 -120.65 37.45 -114.75 38.6 -115.3 43.5 -116.65 43.2 -119.8 42.95 -120.8 47.45 -115.85 48.15 -116.3 51.9 -121.2 51.35 -122.05 55.0 -120.15 55.3 -116.7 55.55 -117.25 59.35 -121.05 59.0 -124.5 58.7 Q-124.5 59.05 -125.0 60.2 -125.5 61.3 -128.75 61.15 -132.15 61.05 -132.55 59.5 L-131.95 56.75 -133.35 56.65 -135.35 56.25 -137.7 55.75 -139.15 55.4 -139.05 54.8 -139.0 54.0 -137.6 47.45 -136.15 47.6 M-135.5 47.7 L-133.4 48.25 -133.35 48.1 -132.4 42.25 -133.45 42.05 -133.55 42.05 -136.7 41.45 -136.9 41.4 -136.15 36.15 -136.05 35.5 -133.7 35.8 -130.7 36.25 -128.0 36.55 -127.9 36.15 -127.25 32.2 -127.25 31.95 Q-124.9 18.6 -123.65 13.2 L-122.95 9.85 -122.8 8.95 -122.75 8.5 Q-125.25 8.25 -126.1 5.55 L-126.3 4.75 Q-126.95 1.8 -127.0 -0.65 L-127.0 -0.7 -127.05 -0.65 -127.15 -0.55 Q-128.35 0.8 -129.2 0.95 -132.8 -0.7 -133.6 -1.55 L-139.35 10.45 -146.7 24.95 -146.8 25.1 -146.85 25.1 -146.75 25.15 -145.9 25.35 -142.45 26.55 Q-142.15 27.35 -142.6 29.3 -143.15 31.3 -143.85 32.55 L-147.2 30.95 Q-148.3 31.5 -148.75 32.85 L-149.7 35.7 Q-148.0 36.75 -145.6 37.15 L-147.2 41.7 -150.75 40.45 Q-151.85 40.05 -152.65 39.5 L-154.75 43.3 Q-156.65 43.85 -159.1 42.75 L-159.2 42.75 Q-161.5 41.8 -162.25 39.95 L-162.2 39.75 -158.5 31.85 -150.65 16.6 -147.35 10.45 -138.6 -5.7 -140.4 -6.8 Q-141.5 -7.4 -141.8 -8.15 L-141.6 -9.15 -141.25 -10.1 -139.05 -15.55 -138.35 -17.2 -137.1 -19.9 Q-137.55 -22.55 -137.6 -25.45 -137.65 -32.05 -135.7 -38.65 -133.75 -45.25 -129.8 -51.05 -127.3 -54.75 -124.05 -56.7 -122.25 -57.85 -120.15 -58.65 L-120.0 -58.7 M-106.55 -54.35 L-106.55 -55.05 Q-106.55 -59.55 -104.1 -60.75 M-133.5 -26.0 L-132.0 -27.5 -129.3 -26.0 -128.9 -29.4 Q-127.8 -36.1 -123.8 -42.8 L-120.35 -45.95 Q-118.75 -47.1 -116.85 -47.9 M-112.8 -49.3 L-109.2 -50.0 -106.9 -50.15 -105.7 -50.15 Q-106.45 -51.75 -106.55 -54.35 M-98.5 -53.2 Q-98.35 -57.5 -96.5 -59.35 M-97.8 -48.25 Q-97.75 -47.75 -97.95 -47.75 L-100.1 -47.4 Q-103.65 -47.3 -105.15 -49.25 L-105.55 -49.9 -105.7 -50.15 M-97.8 -48.25 L-98.05 -48.6 -98.4 -49.9 -98.55 -52.15 -98.5 -53.2 M-92.5 -51.0 L-92.2 -51.65 Q-90.25 -55.35 -88.5 -55.7 M-82.15 -50.3 L-82.6 -50.15 Q-85.05 -49.35 -86.9 -47.5 L-87.1 -47.35 -87.6 -46.85 -87.6 -46.8 Q-89.55 -44.75 -90.15 -42.45 L-90.15 -42.4 -90.4 -42.05 -90.4 -42.0 Q-91.45 -42.35 -92.4 -43.05 -93.4 -43.75 -94.0 -44.6 -94.65 -45.45 -94.7 -46.35 -96.15 -47.5 -97.8 -48.25 M-101.65 -1.8 L-101.65 -1.65 Q-101.45 0.65 -100.25 1.9 -97.2 1.4 -93.95 0.5 L-93.8 0.45 -93.05 0.2 -92.4 0.05 M-126.15 -13.45 Q-125.45 -17.35 -125.65 -17.9 L-126.0 -18.6 Q-126.45 -19.1 -127.2 -19.05 L-128.4 -18.85 Q-130.25 -18.25 -132.15 -15.45 L-133.2 -13.8 -134.7 -11.0 -131.65 -8.45 -129.7 -6.9 Q-126.85 -4.55 -126.8 -2.2 -126.55 -5.25 -125.5 -7.35 -124.7 -9.1 -123.4 -10.15 L-126.15 -13.45 -127.6 -15.45 -129.1 -17.6 M-124.2 -22.95 L-125.15 -23.6 Q-126.4 -24.4 -129.3 -26.0 M-124.2 -22.95 Q-119.35 -19.8 -118.85 -18.55 -118.6 -17.85 -118.85 -16.6 -119.05 -15.65 -119.6 -14.45 L-120.1 -13.25 Q-118.4 -14.15 -116.3 -14.15 L-116.25 -14.15 Q-114.6 -14.15 -111.95 -12.95 L-111.1 -12.45 Q-109.25 -11.35 -107.7 -9.6 L-107.35 -9.2 -107.3 -11.9 -107.05 -15.0 Q-106.95 -16.25 -105.95 -16.5 M-88.05 -16.7 Q-85.3 -25.2 -85.7 -30.95 L-86.0 -33.25 Q-86.8 -37.35 -89.2 -41.1 L-90.15 -42.45 M-134.7 -11.0 L-135.25 -9.65 Q-135.6 -8.75 -134.15 -7.2 -133.6 -6.65 -132.8 -6.45 -131.55 -6.2 -129.7 -6.9 M-120.1 -13.25 Q-121.0 -12.85 -121.75 -12.15 L-123.05 -10.85 -123.4 -10.15 M-126.8 -2.2 L-126.85 -1.55 -127.15 -0.55 M-120.85 -5.35 L-121.15 -4.65 -121.95 -1.6 -121.95 -1.5 -118.05 0.0 -116.55 0.5 -114.95 0.95 -111.85 1.7 -111.6 1.75 -107.2 2.25 -107.15 -1.0 -107.2 -1.5 -107.3 -4.35 -110.2 -4.6 Q-112.35 -8.4 -113.35 -8.85 -114.85 -9.65 -116.85 -9.2 L-118.05 -8.85 -119.3 -7.7 -119.75 -7.15 -120.85 -5.35 M-137.1 -19.9 Q-135.15 -23.95 -133.5 -26.0 M-92.5 -51.0 L-93.9 -47.85 -94.7 -46.35 M-105.5 -16.55 L-102.65 -16.6 -100.95 -16.55 -98.0 -16.7 -94.2 -16.65 -93.9 -16.65 Q-92.55 -16.55 -88.95 -16.75 M-118.45 -7.2 L-117.15 -6.65 -114.8 -5.75 -114.35 -5.6 Q-112.6 -5.05 -110.9 -4.75 L-110.2 -4.6 M-118.45 -7.2 L-119.3 -6.8 M-107.3 -4.35 L-107.3 -4.85 -107.25 -7.3 -107.35 -9.2 M-94.55 -8.0 Q-98.0 -10.75 -99.25 -10.0 L-101.25 -8.15 Q-101.65 -7.3 -101.75 -5.6 -101.9 -4.0 -101.65 -1.85 M-88.05 -16.7 L-89.6 -12.4 Q-91.3 -10.4 -93.2 -8.85 L-93.6 -8.55 -94.0 -8.3 -94.55 -8.0 Q-98.9 -5.65 -99.55 -5.45 L-100.9 -5.05 M-93.95 1.2 L-93.8 0.45 M-100.25 1.9 L-99.7 2.55 -99.45 2.7 Q-98.0 3.9 -95.4 3.1 L-95.05 2.85 Q-94.35 2.35 -93.95 1.2 M-107.2 3.1 L-107.2 2.4 -107.2 2.25 M-118.65 4.05 L-118.4 4.15 -114.2 4.05 -113.05 3.2 -112.25 2.55 -111.85 1.7 M-121.95 -1.5 Q-121.95 -0.25 -121.4 1.3 -120.9 2.8 -118.65 4.05 M-129.9 47.1 L-130.75 51.2 -131.9 56.6 -131.95 56.75 M-146.85 25.1 L-149.1 24.35 -151.95 30.1 -155.55 38.25 Q-153.5 38.95 -152.65 39.5 M-129.9 47.1 L-129.4 44.7 -128.75 41.1 -128.0 36.55 M-120.65 37.45 L-122.9 37.35 -125.2 50.65 -125.95 55.15 -126.4 58.45 -124.5 58.7" fill="none" stroke="#000000" stroke-linecap="round" stroke-linejoin="round" stroke-opacity="0.6627451" stroke-width="3.5"/>
    </g>
    <g id="sprite0" transform="matrix(1.0, 0.0, 0.0, 1.0, 162.25, 61.15)">
      <use height="122.3" transform="matrix(1.0, 0.0, 0.0, 1.0, -162.25, -61.15)" width="324.55" xlink:href="#shape1"/>
    </g>
    <g id="shape1" transform="matrix(1.0, 0.0, 0.0, 1.0, 162.25, 61.15)">
      <path d="M-135.35 56.25 L-135.35 56.2 -133.35 56.65 -135.35 56.25" fill="url(#gradient0)" fill-rule="evenodd" stroke="none"/>
      <path d="M-118.45 -7.2 L-119.3 -6.8 -119.35 -6.9 -119.0 -7.1 -118.5 -7.3 -118.45 -7.2" fill="url(#gradient1)" fill-rule="evenodd" stroke="none"/>
      <path d="M-96.5 -59.35 L-96.4 -59.3 Q-92.2 -58.1 -88.5 -55.7 -90.25 -55.35 -92.2 -51.65 L-92.5 -51.0 -93.6 -48.5 -93.9 -47.85 -94.7 -46.35 Q-96.15 -47.5 -97.8 -48.25 L-98.05 -48.6 -98.25 -49.1 -98.4 -49.9 -98.55 -52.15 -98.5 -53.2 Q-98.35 -57.5 -96.5 -59.35" fill="url(#gradient2)" fill-rule="evenodd" stroke="none"/>
      <path d="M-111.95 -60.6 L-109.3 -60.8 -104.1 -60.75 Q-106.55 -59.55 -106.55 -55.05 L-106.55 -54.35 Q-106.45 -51.75 -105.7 -50.15 L-106.0 -50.15 -106.9 -50.15 -109.2 -50.0 -112.8 -49.3 -112.8 -49.65 -113.0 -50.7 -113.05 -50.9 -113.5 -52.85 -113.55 -53.95 -113.0 -56.85 -111.95 -60.6" fill="url(#gradient3)" fill-rule="evenodd" stroke="none"/>
      <path d="M-77.75 -15.3 Q-79.4 -11.45 -82.15 -7.8 L-82.4 -7.35 Q-86.85 -2.9 -92.55 -0.4 L-92.4 0.05 -91.75 -0.15 -88.45 -1.5 Q-87.9 6.4 -87.9 7.7 -87.9 9.85 -89.0 10.35 L-91.5 10.6 -93.8 10.5 Q-94.1 23.15 -93.9 36.3 -93.0 42.85 -92.4 43.55 -91.8 44.2 -87.25 44.05 L-86.9 46.2 Q-86.75 47.15 -87.1 49.95 L-92.85 49.95 -92.55 54.5 -86.65 54.2 Q-86.1 56.25 -86.65 59.8 L-96.1 60.35 -99.0 60.35 -99.15 59.05 -99.9 47.65 -100.4 35.5 Q-101.25 13.65 -100.7 10.15 L-106.8 10.15 Q-107.4 8.75 -107.25 4.75 L-107.2 3.1 Q-108.7 7.05 -110.7 8.45 L-112.65 9.45 -115.45 9.55 -119.05 29.4 -120.65 37.45 -114.75 38.6 -115.3 43.5 -116.65 43.2 -119.8 42.95 -120.8 47.45 -115.85 48.15 -116.3 51.9 -121.2 51.35 -122.05 55.0 -120.15 55.3 -116.7 55.55 -117.25 59.35 -121.05 59.0 -124.5 58.7 Q-124.5 59.05 -125.0 60.2 -125.5 61.3 -128.75 61.15 -132.15 61.05 -132.55 59.5 L-131.95 56.75 -131.9 56.6 -136.0 55.6 -137.2 55.3 -138.4 55.0 -139.05 54.8 -139.0 54.0 -137.6 47.45 -136.15 47.6 -135.5 47.7 -133.4 48.25 -133.35 48.1 -133.3 48.1 Q-132.7 48.1 -132.35 46.2 L-132.1 43.8 -132.1 43.2 Q-132.2 42.45 -132.4 42.25 L-133.45 42.05 -133.55 42.05 -136.7 41.45 -136.3 37.85 -136.15 36.15 -136.05 35.5 -133.7 35.8 -130.7 36.25 -128.0 36.55 -127.9 36.15 -127.25 32.2 -127.25 31.95 Q-124.9 18.6 -123.65 13.2 L-122.95 9.85 -122.8 8.95 -122.75 8.5 Q-125.25 8.25 -126.1 5.55 L-126.3 4.75 Q-126.95 1.8 -127.0 -0.65 L-127.0 -0.7 -127.05 -0.65 -127.15 -0.55 Q-128.35 0.8 -129.2 0.95 -132.8 -0.7 -133.6 -1.55 L-138.4 8.5 -139.35 10.45 -146.7 24.95 -146.8 25.1 -146.85 25.1 -146.75 25.15 -145.9 25.35 -142.45 26.55 Q-142.15 27.35 -142.6 29.3 -143.15 31.3 -143.85 32.55 L-147.2 30.95 Q-148.3 31.5 -148.75 32.85 L-149.7 35.7 Q-148.0 36.75 -145.6 37.15 L-147.2 41.7 -150.75 40.45 Q-151.85 40.05 -152.65 39.5 L-154.75 43.3 Q-156.65 43.85 -159.1 42.75 L-159.2 42.75 Q-161.5 41.8 -162.25 39.95 L-162.2 39.75 -158.5 31.85 -150.65 16.6 -147.35 10.45 -138.6 -5.7 -140.4 -6.8 Q-141.5 -7.4 -141.8 -8.15 L-141.6 -9.15 -141.25 -10.1 -139.05 -15.55 -138.4 -17.1 -138.35 -17.2 -137.1 -19.9 Q-137.55 -22.55 -137.6 -25.45 -137.65 -32.05 -135.7 -38.65 -133.75 -45.25 -129.8 -51.05 -127.3 -54.75 -124.05 -56.7 -122.25 -57.85 -120.15 -58.65 L-120.0 -58.7 -120.05 -58.4 -120.15 -56.3 Q-120.15 -55.2 -119.45 -52.9 L-119.25 -52.2 -119.15 -51.9 -118.35 -49.95 Q-117.7 -48.7 -116.85 -47.9 -118.75 -47.1 -120.35 -45.95 L-123.8 -42.8 Q-127.8 -36.1 -128.9 -29.4 L-129.3 -26.0 Q-126.4 -24.4 -125.15 -23.6 L-124.2 -22.95 Q-119.35 -19.8 -118.85 -18.55 -118.6 -17.85 -118.85 -16.6 -119.05 -15.65 -119.6 -14.45 L-120.1 -13.25 Q-118.4 -14.15 -116.3 -14.15 L-116.25 -14.15 Q-114.6 -14.15 -111.95 -12.95 L-111.1 -12.45 Q-109.25 -11.35 -107.7 -9.6 L-107.35 -9.2 -107.3 -11.9 -107.05 -15.0 Q-106.95 -16.25 -105.95 -16.5 L-105.5 -16.55 -101.0 -16.75 -94.2 -16.75 -92.45 -16.8 -88.95 -16.75 -88.05 -16.7 Q-85.6 -24.25 -85.65 -29.65 L-85.7 -30.95 -86.0 -33.25 Q-86.8 -37.35 -89.2 -41.1 L-90.15 -42.45 Q-89.55 -44.75 -87.6 -46.8 L-87.6 -46.85 -87.1 -47.35 -86.9 -47.5 -86.75 -47.65 Q-84.95 -49.4 -82.6 -50.15 L-82.15 -50.3 -80.3 -46.85 Q-75.2 -36.75 -75.2 -27.65 -75.2 -21.25 -77.75 -15.3 M-135.25 -9.65 Q-135.6 -8.75 -134.15 -7.2 -133.6 -6.65 -132.8 -6.45 -131.55 -6.2 -129.7 -6.9 L-131.65 -8.45 -134.7 -11.0 -135.25 -9.65 M-118.45 -7.2 L-117.15 -6.65 -114.8 -5.75 -114.35 -5.6 Q-112.6 -5.05 -110.9 -4.75 L-110.2 -4.6 Q-112.35 -8.4 -113.35 -8.85 -114.85 -9.65 -116.85 -9.2 L-118.05 -8.85 -119.3 -7.7 -119.75 -7.15 -119.35 -6.9 -119.3 -6.8 -118.45 -7.2 M-112.25 2.55 L-111.85 1.7 -114.95 0.95 -116.55 0.5 -118.05 0.0 -121.95 -1.5 Q-121.95 -0.25 -121.4 1.3 -120.9 2.8 -118.65 4.05 L-118.4 4.15 -114.2 4.05 -113.05 3.2 -112.25 2.55 M-93.95 1.2 L-93.8 0.45 -93.95 0.5 Q-97.2 1.4 -100.25 1.9 L-99.7 2.55 -99.45 2.7 Q-98.0 3.9 -95.4 3.1 L-95.05 2.85 Q-94.35 2.35 -93.95 1.2" fill="url(#gradient4)" fill-rule="evenodd" stroke="none"/>
      <path d="M-120.0 -58.7 Q-119.75 -59.35 -118.8 -59.7 -117.65 -60.2 -112.55 -61.15 L-111.95 -60.6 -113.0 -56.85 -113.55 -53.95 -113.5 -52.85 -113.05 -50.9 -113.0 -50.7 -112.8 -49.65 -112.8 -49.3 -109.2 -50.0 -106.9 -50.15 -106.0 -50.15 -105.7 -50.1 -105.7 -50.15 Q-106.45 -51.75 -106.55 -54.35 L-106.55 -55.05 Q-106.55 -59.55 -104.1 -60.75 L-102.15 -61.15 Q-101.45 -61.15 -96.45 -59.6 L-96.5 -59.35 Q-98.35 -57.5 -98.5 -53.2 L-98.55 -52.15 -98.4 -49.9 -98.25 -49.1 -98.05 -48.6 -97.8 -48.25 Q-96.15 -47.5 -94.7 -46.35 L-93.9 -47.85 -93.6 -48.5 -92.5 -51.0 -92.2 -51.65 Q-90.25 -55.35 -88.5 -55.7 L-88.15 -55.75 Q-86.35 -55.75 -84.05 -53.4 L-82.15 -51.05 -82.15 -50.3 -82.6 -50.15 Q-84.95 -49.4 -86.75 -47.65 L-86.9 -47.5 -87.1 -47.35 -87.6 -46.85 -87.6 -46.8 Q-89.55 -44.75 -90.15 -42.45 L-89.2 -41.1 Q-86.8 -37.35 -86.0 -33.25 L-85.7 -30.95 -85.65 -29.65 Q-85.6 -24.25 -88.05 -16.7 L-90.45 -17.05 -114.2 -20.55 Q-115.3 -21.05 -115.6 -22.25 L-115.7 -22.75 -115.7 -39.7 Q-116.05 -44.65 -115.15 -47.5 -116.0 -47.45 -116.85 -47.9 -117.7 -48.7 -118.35 -49.95 L-119.15 -51.9 -119.25 -52.2 -119.45 -52.9 Q-120.15 -55.2 -120.15 -56.3 L-120.05 -58.4 -120.0 -58.7" fill="url(#gradient5)" fill-rule="evenodd" stroke="none"/>
      <path d="M-80.3 -46.85 Q50.15 -31.3 160.3 -39.9 L160.8 -36.75 Q163.6 -18.9 161.2 -14.5 160.85 -13.65 159.55 -12.9 L158.95 -12.65 Q152.1 -11.2 108.3 -7.8 99.3 -7.15 65.75 -6.8 L-6.35 -9.1 -49.55 -12.1 -61.5 -13.25 -72.75 -14.65 -77.75 -15.3 Q-75.2 -21.25 -75.2 -27.65 -75.2 -36.75 -80.3 -46.85" fill="url(#gradient6)" fill-rule="evenodd" stroke="none"/>
    </g>
    <linearGradient gradientTransform="matrix(0.0012, 0.0, 0.0, 3.0E-4, -134.35, 56.4)" gradientUnits="userSpaceOnUse" id="gradient0" spreadMethod="pad" x1="-819.2" x2="819.2">
      <stop offset="0.0" stop-color="#000000"/>
      <stop offset="1.0" stop-color="#ffffff"/>
    </linearGradient>
    <linearGradient gradientTransform="matrix(5.0E-4, 0.0, 0.0, 3.0E-4, -118.9, -7.05)" gradientUnits="userSpaceOnUse" id="gradient1" spreadMethod="pad" x1="-819.2" x2="819.2">
      <stop offset="0.0" stop-color="#000000"/>
      <stop offset="1.0" stop-color="#ffffff"/>
    </linearGradient>
    <linearGradient gradientTransform="matrix(-0.0039, -0.0147, 0.0077, -0.0021, -93.4, -49.95)" gradientUnits="userSpaceOnUse" id="gradient2" spreadMethod="pad" x1="-819.2" x2="819.2">
      <stop offset="0.0" stop-color="#000000"/>
      <stop offset="1.0" stop-color="#ffffff"/>
    </linearGradient>
    <linearGradient gradientTransform="matrix(-0.0033, -0.0121, 0.0068, -0.0018, -108.4, -51.75)" gradientUnits="userSpaceOnUse" id="gradient3" spreadMethod="pad" x1="-819.2" x2="819.2">
      <stop offset="0.0" stop-color="#000000"/>
      <stop offset="1.0" stop-color="#ffffff"/>
    </linearGradient>
    <linearGradient gradientTransform="matrix(-0.0397, -0.085, 0.0662, -0.0309, -90.6, 38.75)" gradientUnits="userSpaceOnUse" id="gradient4" spreadMethod="pad" x1="-819.2" x2="819.2">
      <stop offset="0.0" stop-color="#000000"/>
      <stop offset="1.0" stop-color="#ffffff"/>
    </linearGradient>
    <linearGradient gradientTransform="matrix(0.0118, -0.0442, 0.0262, 0.007, -104.75, -20.5)" gradientUnits="userSpaceOnUse" id="gradient5" spreadMethod="pad" x1="-819.2" x2="819.2">
      <stop offset="0.0" stop-color="#000000"/>
      <stop offset="1.0" stop-color="#ffffff"/>
    </linearGradient>
    <linearGradient gradientTransform="matrix(0.0069, -0.0745, 0.0243, 0.0023, 40.85, -3.8)" gradientUnits="userSpaceOnUse" id="gradient6" spreadMethod="pad" x1="-819.2" x2="819.2">
      <stop offset="0.0" stop-color="#000000"/>
      <stop offset="1.0" stop-color="#ffffff"/>
    </linearGradient>
  </defs>
</svg>
