<?xml version="1.0" encoding="UTF-8" standalone="no"?>
<svg xmlns:xlink="http://www.w3.org/1999/xlink" height="531.5px" width="460.6px" xmlns="http://www.w3.org/2000/svg">
  <g transform="matrix(1.0, 0.0, 0.0, 1.0, 193.65, 334.05)">
    <use height="20.0" transform="matrix(2.0067, 0.0, 0.0, 2.0067, 28.7466, -192.5034)" width="23.45" xlink:href="#sprite0"/>
  </g>
  <defs>
    <g id="sprite0" transform="matrix(1.0, 0.0, 0.0, 1.0, 0.5, 0.5)">
      <use height="20.0" transform="matrix(1.0, 0.0, 0.0, 1.0, -0.5, -0.5)" width="23.45" xlink:href="#shape0"/>
      <use height="19.0" transform="matrix(1.0, 0.0, 0.0, 1.0, 1.1, 0.0)" width="21.35" xlink:href="#sprite1"/>
    </g>
    <g id="shape0" transform="matrix(1.0, 0.0, 0.0, 1.0, 0.5, 0.5)">
      <path d="M7.5 11.8 Q8.7 10.2 9.8 10.0 10.85 9.75 11.3 9.05 11.85 7.6 12.2 7.4 13.0 6.25 17.6 3.75 L18.05 3.55 13.4 6.45 Q11.9 8.55 12.15 11.05 10.15 12.25 8.9 14.0 8.1 15.15 7.6 16.5 L8.8 12.75 6.3 15.1 7.5 11.8 M5.7 13.4 L7.15 12.15 5.6 13.9 5.55 13.9 5.7 13.45 5.7 13.4" fill="#737373" fill-rule="evenodd" stroke="none"/>
      <path d="M18.05 3.55 L17.6 3.75 Q13.0 6.25 12.2 7.4 11.85 7.6 11.3 9.05 10.85 9.75 9.8 10.0 8.7 10.2 7.5 11.8 L7.6 11.55 7.2 12.05 7.15 12.15 5.7 13.4 Q6.15 12.25 6.9 11.25 7.7 10.05 8.85 9.05 L10.15 9.15 Q10.85 8.45 11.15 6.4 15.9 2.8 18.95 1.2 20.6 0.3 21.75 0.05 23.3 -0.3 21.4 1.2 L18.05 3.55" fill="#bfbfbf" fill-rule="evenodd" stroke="none"/>
      <path d="M6.9 11.25 Q6.15 12.25 5.7 13.4 L5.7 13.45 Q4.7 13.55 3.8 14.0 L2.85 14.5 1.65 15.6 1.35 15.4 1.15 14.85 Q0.95 14.5 1.5 12.4 L1.95 12.05 Q2.85 11.3 3.7 10.95 5.55 10.15 6.9 11.25" fill="#996695" fill-rule="evenodd" stroke="none"/>
      <path d="M7.15 12.15 L7.2 12.05 7.6 11.55 7.5 11.8 6.3 15.1 8.8 12.75 7.6 16.5 Q8.1 15.15 8.9 14.0 9.7 17.0 8.1 18.25 7.65 18.85 5.6 19.0 L4.7 18.9 4.65 18.7 4.25 18.25 Q3.8 18.4 2.9 17.4 L1.95 16.05 1.85 15.75 1.8 15.7 1.65 15.6 2.85 14.5 3.8 14.0 Q4.7 13.55 5.7 13.45 L5.55 13.9 3.8 14.0 5.55 13.9 5.5 14.0 5.6 13.9 7.15 12.15" fill="#70486b" fill-rule="evenodd" stroke="none"/>
      <path d="M18.05 3.55 L21.4 1.2 Q23.3 -0.3 21.75 0.05 20.6 0.3 18.95 1.2 15.9 2.8 11.15 6.4 10.85 8.45 10.15 9.15 L8.85 9.05 Q7.7 10.05 6.9 11.25 6.15 12.25 5.7 13.4 L5.7 13.45 5.55 13.9 5.6 13.9 7.15 12.15 M7.2 12.05 L7.6 11.55 7.5 11.8 6.3 15.1 8.8 12.75 7.6 16.5 Q8.1 15.15 8.9 14.0 10.15 12.25 12.15 11.05 11.9 8.55 13.4 6.45 L18.05 3.55 M0.0 11.1 L1.95 12.05 Q2.85 11.3 3.7 10.95 L3.3 9.8 M6.9 11.25 Q5.55 10.15 3.7 10.95 M3.8 14.0 L5.55 13.9 5.5 14.0 5.6 13.9 M8.9 14.0 Q9.7 17.0 8.1 18.25 L9.1 19.0 M4.7 18.9 L5.6 19.0 Q7.65 18.85 8.1 18.25 M1.95 12.05 L1.5 12.4 Q0.95 14.5 1.15 14.85 L1.35 15.4" fill="none" stroke="#000000" stroke-linecap="round" stroke-linejoin="round" stroke-opacity="0.6627451" stroke-width="1.0"/>
    </g>
    <g id="sprite1" transform="matrix(1.0, 0.0, 0.0, 1.0, -1.1, 0.0)">
      <use height="19.0" transform="matrix(1.0, 0.0, 0.0, 1.0, 1.1, 0.0)" width="21.35" xlink:href="#shape1"/>
    </g>
    <g id="shape1" transform="matrix(1.0, 0.0, 0.0, 1.0, -1.1, 0.0)">
      <path d="M17.65 3.8 L17.6 3.75 18.05 3.55 17.65 3.8" fill="url(#gradient0)" fill-rule="evenodd" stroke="none"/>
      <path d="M5.55 13.9 L5.6 13.9 5.55 13.9" fill="url(#gradient1)" fill-rule="evenodd" stroke="none"/>
      <path d="M6.9 11.25 Q6.15 12.25 5.7 13.4 L5.7 13.45 5.55 13.9 5.5 14.0 5.6 13.9 7.15 12.15 7.2 12.05 7.6 11.55 6.3 15.1 8.8 12.75 7.6 16.5 Q8.1 15.15 8.9 14.0 9.7 17.0 8.1 18.25 7.65 18.85 5.6 19.0 L4.7 18.9 4.65 18.7 4.25 18.25 Q3.8 18.4 2.9 17.4 L1.95 16.05 1.85 15.75 1.8 15.7 1.65 15.6 1.35 15.4 1.15 14.85 Q0.95 14.5 1.5 12.4 L1.95 12.05 Q2.85 11.3 3.7 10.95 5.55 10.15 6.9 11.25" fill="url(#gradient2)" fill-rule="evenodd" stroke="none"/>
      <path d="M18.05 3.55 L17.6 3.75 17.65 3.8 13.4 6.45 Q11.9 8.55 12.15 11.05 10.15 12.25 8.9 14.0 8.1 15.15 7.6 16.5 L8.8 12.75 6.3 15.1 7.6 11.55 7.2 12.05 7.15 12.15 5.6 13.9 5.55 13.9 5.7 13.45 5.7 13.4 Q6.15 12.25 6.9 11.25 7.7 10.05 8.85 9.05 L10.15 9.15 Q10.85 8.45 11.15 6.4 15.9 2.8 18.95 1.2 20.6 0.3 21.75 0.05 23.3 -0.3 21.4 1.2 L18.05 3.55" fill="url(#gradient3)" fill-rule="evenodd" stroke="none"/>
    </g>
    <linearGradient gradientTransform="matrix(3.0E-4, 0.0, 0.0, 2.0E-4, 17.8, 3.65)" gradientUnits="userSpaceOnUse" id="gradient0" spreadMethod="pad" x1="-819.2" x2="819.2">
      <stop offset="0.0" stop-color="#000000"/>
      <stop offset="1.0" stop-color="#ffffff"/>
    </linearGradient>
    <linearGradient gradientTransform="matrix(0.0, 0.0, 0.0, 0.0, 5.55, 13.9)" gradientUnits="userSpaceOnUse" id="gradient1" spreadMethod="pad" x1="-819.2" x2="819.2">
      <stop offset="0.0" stop-color="#000000"/>
      <stop offset="1.0" stop-color="#ffffff"/>
    </linearGradient>
    <linearGradient gradientTransform="matrix(0.0219, 0.0, 0.0, 0.0051, 5.1, 14.8)" gradientUnits="userSpaceOnUse" id="gradient2" spreadMethod="pad" x1="-819.2" x2="819.2">
      <stop offset="0.0" stop-color="#000000"/>
      <stop offset="1.0" stop-color="#ffffff"/>
    </linearGradient>
    <linearGradient gradientTransform="matrix(-0.0049, -0.0182, 0.0097, -0.0026, 13.9, 7.95)" gradientUnits="userSpaceOnUse" id="gradient3" spreadMethod="pad" x1="-819.2" x2="819.2">
      <stop offset="0.0" stop-color="#000000"/>
      <stop offset="1.0" stop-color="#ffffff"/>
    </linearGradient>
  </defs>
</svg>
