<?xml version="1.0" encoding="UTF-8" standalone="no"?>
<svg xmlns:xlink="http://www.w3.org/1999/xlink" height="531.5px" width="460.6px" xmlns="http://www.w3.org/2000/svg">
  <g transform="matrix(1.0, 0.0, 0.0, 1.0, 193.65, 334.05)">
    <use height="101.25" transform="matrix(1.0, 0.0, 0.0, 1.0, -56.75, -80.6)" width="225.6" xlink:href="#shape0"/>
    <use height="123.5" transform="matrix(0.7782, -0.0204, 0.0204, 0.7782, -10.8081, -75.4583)" width="229.55" xlink:href="#sprite0"/>
    <use height="75.2" transform="matrix(1.0, 0.0, 0.0, 1.0, 36.45, -82.0)" width="90.0" xlink:href="#shape2"/>
    <use height="95.3" transform="matrix(0.7782, -0.0204, 0.0204, 0.7782, 36.3978, -79.7179)" width="113.85" xlink:href="#sprite1"/>
    <use height="62.8" transform="matrix(1.0, 0.0, 0.0, 1.0, -56.75, -57.55)" width="187.9" xlink:href="#shape4"/>
  </g>
  <defs>
    <g id="shape0" transform="matrix(1.0, 0.0, 0.0, 1.0, 56.75, 80.6)">
      <path d="M-20.55 -53.4 L-18.45 -52.0 -16.35 -50.1 -14.9 -47.5 Q-16.65 -47.85 -17.75 -47.15 -15.05 -46.3 -11.5 -44.35 L3.0 -35.4 3.55 -35.2 4.15 -35.3 4.4 -35.4 4.5 -35.65 4.55 -36.05 4.3 -36.75 5.75 -38.35 7.85 -40.65 9.9 -43.15 Q12.15 -45.25 14.95 -45.2 18.2 -45.2 22.3 -43.45 L26.15 -41.6 Q29.2 -39.95 30.45 -38.7 31.65 -37.5 31.65 -36.05 31.65 -34.85 30.75 -32.8 L30.15 -31.5 Q29.05 -32.0 27.15 -33.0 25.1 -34.0 23.85 -33.95 24.35 -32.4 26.65 -31.3 L30.75 -29.45 38.0 -25.5 45.8 -21.6 48.55 -19.9 48.55 -18.2 Q48.35 -16.25 46.4 -13.1 44.05 -9.85 42.15 -9.05 L39.7 -8.9 37.6 -9.9 33.45 -11.8 31.0 -13.35 Q29.4 -14.1 28.75 -12.85 L30.85 -11.6 Q31.75 -11.1 32.35 -10.85 L32.3 -10.5 32.55 -9.55 30.4 -6.25 Q27.4 -1.8 24.55 -1.5 L22.65 -1.45 Q21.45 -1.75 20.15 -2.3 19.2 -2.65 18.3 -3.15 L17.5 -3.35 16.95 -3.8 17.0 -2.5 17.0 -2.0 13.4 1.9 12.4 3.0 Q10.15 3.5 7.6 2.6 L5.3 1.95 -3.05 -1.5 Q-13.35 -5.95 -23.7 -9.9 -28.4 -11.7 -32.95 -13.75 -37.35 -17.65 -39.5 -18.9 -42.45 -20.65 -44.55 -23.3 -46.75 -26.0 -47.7 -29.1 L-51.55 -43.95 Q-53.2 -50.4 -54.9 -54.5 -55.1 -55.6 -55.45 -56.4 L-51.15 -57.1 -45.0 -57.5 Q-37.4 -57.5 -29.7 -55.6 -24.05 -53.95 -20.55 -53.4" fill="#999999" fill-rule="evenodd" stroke="none"/>
      <path d="M48.55 -19.9 L45.8 -21.6 38.0 -25.5 30.75 -29.45 26.65 -31.3 Q24.35 -32.4 23.85 -33.95 25.1 -34.0 27.15 -33.0 29.05 -32.0 30.15 -31.5 L30.75 -32.8 Q31.65 -34.85 31.65 -36.05 31.65 -37.5 30.45 -38.7 29.2 -39.95 26.15 -41.6 L22.3 -43.45 Q18.2 -45.2 14.95 -45.2 12.15 -45.25 9.9 -43.15 L7.85 -40.65 5.75 -38.35 4.3 -36.75 4.55 -36.05 4.5 -35.65 4.4 -35.4 4.15 -35.3 3.55 -35.2 3.0 -35.4 -11.5 -44.35 Q-15.05 -46.3 -17.75 -47.15 -16.65 -47.85 -14.9 -47.5 L-16.35 -50.1 -18.45 -52.0 -20.55 -53.4 -21.25 -53.95 Q-19.55 -55.45 -16.0 -51.8 -12.65 -48.4 -12.65 -46.8 L-12.65 -46.7 -11.85 -46.35 -8.8 -44.5 3.0 -37.85 3.4 -37.6 Q3.85 -38.55 5.1 -39.95 L7.65 -42.65 Q9.25 -44.65 10.6 -45.5 L12.35 -46.35 16.1 -46.65 18.75 -46.2 Q24.3 -44.7 28.5 -42.15 33.4 -39.15 33.4 -36.3 33.4 -35.6 32.2 -32.85 L31.35 -30.95 Q32.3 -30.35 34.9 -29.05 37.85 -27.6 39.65 -26.35 L47.8 -22.2 Q52.9 -19.45 52.9 -16.7 52.9 -15.35 50.4 -10.75 L48.75 -8.35 Q46.45 -6.25 42.25 -6.3 L36.15 -8.9 34.7 -9.55 35.15 -7.2 35.15 -6.7 Q34.8 -4.7 33.5 -3.2 27.25 4.05 18.3 -1.5 L18.15 -1.55 Q18.15 0.65 17.05 2.35 L16.05 3.55 Q13.4 5.6 9.95 5.2 L9.7 5.15 7.6 4.75 2.5 3.2 -0.8 1.9 Q-10.8 -2.9 -21.15 -6.65 L-27.7 -9.25 Q-35.8 -12.65 -43.55 -16.95 -47.45 -19.5 -49.6 -22.6 -54.55 -33.8 -55.9 -46.2 L-56.55 -51.15 -56.75 -55.75 Q-56.75 -57.0 -56.25 -57.55 L-55.7 -56.8 -55.45 -56.4 Q-55.1 -55.6 -54.9 -54.5 L-54.8 -53.7 -54.5 -51.1 Q-53.5 -40.55 -50.8 -30.2 -49.7 -26.0 -47.2 -22.55 -45.7 -20.7 -43.55 -19.05 -38.35 -16.2 -32.95 -13.75 -28.4 -11.7 -23.7 -9.9 -13.35 -5.95 -3.05 -1.5 L5.3 1.95 7.6 2.6 Q10.15 3.5 12.4 3.0 14.0 2.6 15.45 1.5 L16.05 1.0 16.4 0.4 16.95 -1.1 17.0 -2.0 17.0 -2.5 16.95 -3.8 17.5 -3.35 18.3 -3.15 Q19.2 -2.65 20.15 -2.3 21.45 -1.75 22.65 -1.45 29.8 0.2 33.25 -6.75 L33.3 -7.25 32.8 -8.85 32.55 -9.55 32.3 -10.5 32.35 -10.85 Q31.75 -11.1 30.85 -11.6 L28.75 -12.85 Q29.4 -14.1 31.0 -13.35 L33.45 -11.8 37.6 -9.9 39.7 -8.9 Q42.0 -7.85 42.65 -7.85 45.95 -7.8 47.75 -9.75 L49.15 -12.05 50.35 -14.05 Q51.25 -15.8 51.25 -16.5 51.25 -18.0 48.55 -19.9" fill="#000000" fill-rule="evenodd" stroke="none"/>
      <path d="M-54.9 -54.5 Q-53.2 -50.4 -51.55 -43.95 L-47.7 -29.1 Q-46.75 -26.0 -44.55 -23.3 -42.45 -20.65 -39.5 -18.9 -37.35 -17.65 -32.95 -13.75 -38.35 -16.2 -43.55 -19.05 -45.7 -20.7 -47.2 -22.55 -49.7 -26.0 -50.8 -30.2 -53.5 -40.55 -54.5 -51.1 L-54.8 -53.7 -54.9 -54.5 M12.4 3.0 L13.4 1.9 17.0 -2.0 16.95 -1.1 16.4 0.4 16.05 1.0 15.45 1.5 Q14.0 2.6 12.4 3.0 M22.65 -1.45 L24.55 -1.5 Q27.4 -1.8 30.4 -6.25 L32.55 -9.55 32.8 -8.85 33.3 -7.25 33.25 -6.75 Q29.8 0.2 22.65 -1.45 M39.7 -8.9 L42.15 -9.05 Q44.05 -9.85 46.4 -13.1 48.35 -16.25 48.55 -18.2 L48.55 -19.9 Q51.25 -18.0 51.25 -16.5 51.25 -15.8 50.35 -14.05 L49.15 -12.05 47.75 -9.75 Q45.95 -7.8 42.65 -7.85 42.0 -7.85 39.7 -8.9" fill="#bdbdbd" fill-rule="evenodd" stroke="none"/>
      <path d="M111.35 -48.45 L111.55 -63.6 Q115.15 -65.6 125.85 -66.35 L146.55 -67.0 153.8 -67.25 160.0 -67.55 Q161.1 -67.6 164.6 -69.65 166.55 -70.75 167.9 -71.25 168.6 -59.9 168.15 -51.4 L165.15 -50.7 Q158.85 -49.45 153.6 -49.3 L140.8 -49.35 134.5 -48.85 125.85 -48.35 116.05 -48.35 111.35 -48.45 M154.7 -39.55 Q154.2 -37.9 152.85 -36.35 L123.3 -35.6 123.4 -38.75 154.7 -39.55 M-8.6 -1.95 Q-8.25 -10.55 -6.4 -19.8 L-4.1 -23.45 Q0.45 -29.85 4.7 -31.9 7.35 -33.2 11.8 -34.65 L19.25 -37.05 Q21.65 -37.8 23.45 -38.65 L29.5 -39.7 28.85 -42.9 29.0 -43.25 28.8 -43.45 Q28.35 -46.85 28.65 -50.25 L30.8 -51.0 33.65 -52.35 Q32.35 -55.25 30.5 -57.5 28.2 -60.4 26.25 -60.35 L20.35 -60.85 16.45 -61.3 Q16.4 -62.85 16.95 -64.55 17.9 -64.05 19.0 -63.7 L23.2 -63.4 Q26.65 -63.45 27.7 -64.85 L28.35 -66.95 29.2 -66.8 Q31.25 -66.5 31.3 -64.85 32.6 -62.05 34.3 -60.95 L34.2 -60.35 Q34.2 -59.45 34.85 -59.25 L36.0 -59.05 Q37.35 -59.1 41.1 -60.65 42.2 -61.15 43.25 -61.45 L42.55 -54.55 Q41.45 -43.8 43.15 -33.2 44.65 -24.3 50.55 -18.85 L42.3 -18.5 36.15 -17.8 Q34.55 -17.45 33.3 -16.75 L33.35 -16.85 Q34.4 -19.95 34.35 -22.7 34.15 -28.15 29.55 -32.4 14.35 -33.25 1.45 -26.75 -1.9 -18.4 -2.85 -6.85 L-3.15 -2.6 -3.65 -2.4 Q-5.55 -1.5 -6.15 -1.45 L-8.6 -1.95 M60.25 -8.45 L68.05 -7.75 68.75 -5.2 64.45 -5.4 Q61.95 -6.05 60.3 -8.25 L60.25 -8.45" fill="#4d4d4d" fill-rule="evenodd" stroke="none"/>
      <path d="M43.45 -64.9 L46.15 -62.2 47.85 -60.05 Q54.55 -50.45 55.2 -38.65 55.8 -27.25 54.5 -15.85 52.3 -17.2 50.55 -18.85 44.65 -24.3 43.15 -33.2 41.45 -43.8 42.55 -54.55 L43.25 -61.45 43.45 -64.9 M51.75 -40.5 Q51.2 -45.25 49.9 -48.55 48.7 -51.85 47.45 -51.7 46.2 -51.6 45.7 -48.1 45.1 -44.6 45.7 -39.85 46.2 -35.1 47.45 -31.8 48.75 -28.55 50.0 -28.65 51.25 -28.8 51.75 -32.25 52.25 -35.75 51.75 -40.5" fill="#171717" fill-rule="evenodd" stroke="none"/>
      <path d="M111.55 -63.6 L111.6 -71.3 159.2 -72.55 164.9 -80.1 Q167.4 -78.25 167.85 -72.2 L167.9 -71.25 Q166.55 -70.75 164.6 -69.65 161.1 -67.6 160.0 -67.55 L153.8 -67.25 146.55 -67.0 125.85 -66.35 Q115.15 -65.6 111.55 -63.6 M-6.4 -19.8 Q-5.3 -25.4 -3.7 -31.25 -2.35 -33.7 6.4 -35.9 L23.45 -38.65 Q21.65 -37.8 19.25 -37.05 L11.8 -34.65 Q7.35 -33.2 4.7 -31.9 0.45 -29.85 -4.1 -23.45 L-6.4 -19.8 M16.95 -64.55 L17.85 -66.9 Q22.9 -68.05 28.35 -66.95 L27.7 -64.85 Q26.65 -63.45 23.2 -63.4 L19.0 -63.7 Q17.9 -64.05 16.95 -64.55 M34.3 -60.95 L34.9 -60.7 Q37.85 -64.1 43.45 -64.9 L43.25 -61.45 Q42.2 -61.15 41.1 -60.65 37.35 -59.1 36.0 -59.05 L34.85 -59.25 Q34.2 -59.45 34.2 -60.35 L34.3 -60.95" fill="#cccccc" fill-rule="evenodd" stroke="none"/>
      <path d="M54.5 -15.85 L111.0 -16.05 111.35 -48.45 116.05 -48.35 125.85 -48.35 134.5 -48.85 140.8 -49.35 153.6 -49.3 Q158.85 -49.45 165.15 -50.7 L168.15 -51.4 167.45 -43.9 154.8 -43.05 Q155.15 -41.25 154.7 -39.55 L123.4 -38.75 123.3 -35.6 122.9 -7.6 Q122.25 -3.05 110.9 -4.35 L110.9 -5.1 83.6 -4.3 Q77.35 5.65 67.85 5.8 58.7 5.1 50.5 -5.9 L46.8 -15.1 42.55 -15.15 Q37.25 -14.15 35.55 -8.5 33.9 -2.75 28.6 0.75 23.3 4.25 18.45 9.85 L9.45 20.15 Q-3.8 19.65 -8.15 13.05 -9.0 5.8 -8.6 -1.95 L-6.15 -1.45 Q-5.55 -1.5 -3.65 -2.4 L-3.15 -2.6 Q-3.5 3.55 -3.2 10.55 6.75 17.9 25.05 -3.05 L33.3 -16.75 Q34.55 -17.45 36.15 -17.8 L42.3 -18.5 50.55 -18.85 Q52.3 -17.2 54.5 -15.85 M28.65 -50.25 L29.2 -54.0 Q25.85 -58.45 17.7 -57.2 16.5 -59.1 16.45 -61.3 L20.35 -60.85 26.25 -60.35 Q28.2 -60.4 30.5 -57.5 32.35 -55.25 33.65 -52.35 L30.8 -51.0 28.65 -50.25 M51.75 -40.5 Q52.25 -35.75 51.75 -32.25 51.25 -28.8 50.0 -28.65 48.75 -28.55 47.45 -31.8 46.2 -35.1 45.7 -39.85 45.1 -44.6 45.7 -48.1 46.2 -51.6 47.45 -51.7 48.7 -51.85 49.9 -48.55 51.2 -45.25 51.75 -40.5 M60.25 -8.45 L60.15 -8.45 54.55 -9.05 Q56.35 -4.55 60.0 -1.1 63.85 1.9 67.5 2.2 69.85 3.0 72.2 2.95 75.3 2.85 78.6 0.2 82.05 -2.45 82.0 -4.85 81.95 -5.5 81.2 -6.15 L80.7 -6.55 81.1 -7.1 79.6 -7.15 68.05 -7.75 60.25 -8.45 M119.3 -13.3 Q118.25 -14.25 116.85 -14.2 115.45 -14.15 114.55 -13.2 113.55 -12.15 113.6 -10.75 113.65 -9.35 114.65 -8.45 115.65 -7.45 117.05 -7.5 118.45 -7.55 119.4 -8.55 120.35 -9.55 120.3 -10.95 120.25 -12.35 119.3 -13.3 M123.4 -38.75 L123.45 -42.25 Q140.5 -42.3 154.8 -43.05 140.5 -42.3 123.45 -42.25 L123.4 -38.75 M110.9 -5.1 L119.55 -5.35 Q123.4 -10.7 119.35 -16.15 L111.0 -16.05 119.35 -16.15 Q123.4 -10.7 119.55 -5.35 L110.9 -5.1" fill="#292929" fill-rule="evenodd" stroke="none"/>
      <path d="M30.25 -27.4 Q28.95 -28.7 27.05 -28.65 25.15 -28.6 23.75 -27.2 22.5 -25.85 22.55 -23.95 22.6 -22.05 23.95 -20.7 25.35 -19.4 27.25 -19.45 29.15 -19.5 30.45 -20.9 31.8 -22.3 31.75 -24.2 31.7 -26.1 30.25 -27.4 M34.35 -22.7 L31.8 -19.15 Q28.65 -15.0 25.0 -11.45 20.4 -6.85 15.45 -3.2 8.55 2.05 5.2 2.15 2.35 2.2 -0.65 -2.55 -2.1 -4.9 -2.85 -6.85 -1.9 -18.4 1.45 -26.75 14.35 -33.25 29.55 -32.4 34.15 -28.15 34.35 -22.7" fill="#824410" fill-rule="evenodd" stroke="none"/>
      <path d="M30.25 -27.4 Q31.7 -26.1 31.75 -24.2 31.8 -22.3 30.45 -20.9 29.15 -19.5 27.25 -19.45 25.35 -19.4 23.95 -20.7 22.6 -22.05 22.55 -23.95 22.5 -25.85 23.75 -27.2 25.15 -28.6 27.05 -28.65 28.95 -28.7 30.25 -27.4 M28.9 -25.1 L25.45 -22.95 28.9 -25.1 M119.3 -13.3 Q120.25 -12.35 120.3 -10.95 120.35 -9.55 119.4 -8.55 118.45 -7.55 117.05 -7.5 115.65 -7.45 114.65 -8.45 113.65 -9.35 113.6 -10.75 113.55 -12.15 114.55 -13.2 115.45 -14.15 116.85 -14.2 118.25 -14.25 119.3 -13.3" fill="#a6a6a6" fill-rule="evenodd" stroke="none"/>
      <path d="M34.35 -22.7 Q34.4 -19.95 33.35 -16.85 L33.3 -16.75 25.05 -3.05 Q6.75 17.9 -3.2 10.55 -3.5 3.55 -3.15 -2.6 L-2.85 -6.85 Q-2.1 -4.9 -0.65 -2.55 2.35 2.2 5.2 2.15 8.55 2.05 15.45 -3.2 20.4 -6.85 25.0 -11.45 28.65 -15.0 31.8 -19.15 L34.35 -22.7" fill="#4a2100" fill-rule="evenodd" stroke="none"/>
      <path d="M80.7 -6.55 L81.2 -6.15 Q81.95 -5.5 82.0 -4.85 82.05 -2.45 78.6 0.2 75.3 2.85 72.2 2.95 69.85 3.0 67.5 2.2 71.25 2.5 74.85 -0.25 78.5 -3.0 80.7 -6.55 M68.75 -5.2 Q69.55 -3.05 71.0 -1.2 67.25 -1.3 63.55 -3.45 61.3 -5.2 60.3 -8.25 61.95 -6.05 64.45 -5.4 L68.75 -5.2" fill="#a2a2a2" fill-rule="evenodd" stroke="none"/>
      <path d="M43.45 -64.9 L46.15 -62.2 47.85 -60.05 Q54.55 -50.45 55.2 -38.65 55.8 -27.25 54.5 -15.85 L111.0 -16.05 111.35 -48.45 111.55 -63.6 111.6 -71.3 159.2 -72.55 164.9 -80.1 Q167.4 -78.25 167.85 -72.2 L167.9 -71.25 Q168.6 -59.9 168.15 -51.4 L167.45 -43.9 154.8 -43.05 Q155.15 -41.25 154.7 -39.55 154.2 -37.9 152.85 -36.35 L123.3 -35.6 122.9 -7.6 Q122.25 -3.05 110.9 -4.35 L110.9 -5.1 83.6 -4.3 Q77.35 5.65 67.85 5.8 58.7 5.1 50.5 -5.9 L46.8 -15.1 42.55 -15.15 Q37.25 -14.15 35.55 -8.5 33.9 -2.75 28.6 0.75 23.3 4.25 18.45 9.85 L9.45 20.15 Q-3.8 19.65 -8.15 13.05 -9.0 5.8 -8.6 -1.95 -8.25 -10.55 -6.4 -19.8 -5.3 -25.4 -3.7 -31.25 -2.35 -33.7 6.4 -35.9 L23.45 -38.65 29.5 -39.7 28.85 -42.9 28.8 -43.45 Q28.35 -46.85 28.65 -50.25 L29.2 -54.0 Q25.85 -58.45 17.7 -57.2 16.5 -59.1 16.45 -61.3 16.4 -62.85 16.95 -64.55 L17.85 -66.9 Q22.9 -68.05 28.35 -66.95 L29.2 -66.8 Q31.25 -66.5 31.3 -64.85 32.6 -62.05 34.3 -60.95 L34.9 -60.7 Q37.85 -64.1 43.45 -64.9 L43.25 -61.45 42.55 -54.55 Q41.45 -43.8 43.15 -33.2 44.65 -24.3 50.55 -18.85 52.3 -17.2 54.5 -15.85 M30.25 -27.4 Q31.7 -26.1 31.75 -24.2 31.8 -22.3 30.45 -20.9 29.15 -19.5 27.25 -19.45 25.35 -19.4 23.95 -20.7 22.6 -22.05 22.55 -23.95 22.5 -25.85 23.75 -27.2 25.15 -28.6 27.05 -28.65 28.95 -28.7 30.25 -27.4 M34.35 -22.7 Q34.4 -19.95 33.35 -16.85 L33.3 -16.75 25.05 -3.05 Q6.75 17.9 -3.2 10.55 -3.5 3.55 -3.15 -2.6 L-2.85 -6.85 Q-1.9 -18.4 1.45 -26.75 14.35 -33.25 29.55 -32.4 34.15 -28.15 34.35 -22.7 M25.45 -22.95 L28.9 -25.1 M51.75 -40.5 Q52.25 -35.75 51.75 -32.25 51.25 -28.8 50.0 -28.65 48.75 -28.55 47.45 -31.8 46.2 -35.1 45.7 -39.85 45.1 -44.6 45.7 -48.1 46.2 -51.6 47.45 -51.7 48.7 -51.85 49.9 -48.55 51.2 -45.25 51.75 -40.5 M67.5 2.2 Q63.85 1.9 60.0 -1.1 56.35 -4.55 54.55 -9.05 L60.15 -8.45 60.25 -8.45 68.05 -7.75 79.6 -7.15 81.1 -7.1 80.7 -6.55 Q78.5 -3.0 74.85 -0.25 71.25 2.5 67.5 2.2 M60.3 -8.25 L60.25 -8.45 M68.75 -5.2 Q69.55 -3.05 71.0 -1.2 67.25 -1.3 63.55 -3.45 61.3 -5.2 60.3 -8.25 M68.75 -5.2 L68.05 -7.75 M119.3 -13.3 Q120.25 -12.35 120.3 -10.95 120.35 -9.55 119.4 -8.55 118.45 -7.55 117.05 -7.5 115.65 -7.45 114.65 -8.45 113.65 -9.35 113.6 -10.75 113.55 -12.15 114.55 -13.2 115.45 -14.15 116.85 -14.2 118.25 -14.25 119.3 -13.3 M111.0 -16.05 L119.35 -16.15 Q123.4 -10.7 119.55 -5.35 L110.9 -5.1 M154.8 -43.05 Q140.5 -42.3 123.45 -42.25 L123.4 -38.75 123.3 -35.6" fill="none" stroke="#000000" stroke-linecap="round" stroke-linejoin="round" stroke-opacity="0.6627451" stroke-width="1.0"/>
    </g>
    <g id="sprite0" transform="matrix(1.0, 0.0, 0.0, 1.0, 114.75, 61.75)">
      <use height="123.5" transform="matrix(1.0, 0.0, 0.0, 1.0, -114.75, -61.75)" width="229.55" xlink:href="#shape1"/>
    </g>
    <g id="shape1" transform="matrix(1.0, 0.0, 0.0, 1.0, 114.75, 61.75)">
      <path d="M56.15 -6.0 L56.55 -14.55 Q78.45 -14.0 96.8 -14.5 97.2 -12.15 96.55 -10.05 95.9 -7.9 94.1 -6.0 L56.15 -6.0" fill="url(#gradient0)" fill-rule="evenodd" stroke="none"/>
      <path d="M50.2 22.5 Q51.45 23.75 51.45 25.55 51.45 27.35 50.2 28.6 48.95 29.85 47.15 29.85 45.35 29.85 44.1 28.6 42.85 27.35 42.85 25.55 42.85 23.75 44.1 22.5 45.35 21.25 47.15 21.25 48.95 21.25 50.2 22.5" fill="url(#gradient1)" fill-rule="evenodd" stroke="none"/>
      <path d="M-25.75 26.7 L-15.75 27.85 -14.95 31.2 Q-14.05 34.0 -12.25 36.4 -17.0 36.2 -21.7 33.25 -24.5 30.95 -25.7 27.0 L-25.75 26.7" fill="url(#gradient2)" fill-rule="evenodd" stroke="none"/>
      <path d="M-67.75 11.5 Q-70.2 11.5 -71.95 9.75 -73.65 8.05 -73.65 5.6 -73.65 3.15 -71.95 1.4 -70.2 -0.3 -67.75 -0.3 -65.3 -0.3 -63.6 1.4 -61.85 3.15 -61.85 5.6 -61.85 8.05 -63.6 9.75 -65.3 11.5 -67.75 11.5" fill="url(#gradient3)" fill-rule="evenodd" stroke="none"/>
      <path d="M-43.4 -14.05 Q-43.95 -20.2 -43.15 -24.65 -42.35 -29.1 -40.75 -29.25 -39.15 -29.4 -37.65 -25.1 -36.15 -20.85 -35.6 -14.7 -35.1 -8.6 -35.9 -4.15 -36.65 0.3 -38.25 0.45 -39.85 0.6 -41.4 -3.7 -42.9 -7.95 -43.4 -14.05" fill="url(#gradient4)" fill-rule="evenodd" stroke="none"/>
      <path d="M-45.45 -46.3 L-42.05 -42.75 -39.9 -39.9 Q-31.65 -27.4 -31.25 -12.2 -30.85 2.45 -32.9 17.0 -35.65 15.2 -37.85 13.05 -45.25 5.85 -46.85 -5.6 -48.7 -19.25 -46.9 -33.05 L-45.85 -41.9 -45.45 -46.3 M-43.4 -14.05 Q-42.9 -7.95 -41.4 -3.7 -39.85 0.6 -38.25 0.45 -36.65 0.3 -35.9 -4.15 -35.1 -8.6 -35.6 -14.7 -36.15 -20.85 -37.65 -25.1 -39.15 -29.4 -40.75 -29.25 -42.35 -29.1 -43.15 -24.65 -43.95 -20.2 -43.4 -14.05" fill="url(#gradient5)" fill-rule="evenodd" stroke="none"/>
      <path d="M96.8 -14.5 Q78.45 -14.0 56.55 -14.55 L56.15 -6.0 54.65 29.95 Q53.7 35.8 39.15 33.75 L39.2 32.75 50.3 32.7 Q55.45 25.95 50.4 18.8 L39.7 18.7 42.35 -52.25 103.5 -52.25 111.1 -61.75 Q114.25 -59.25 114.55 -51.5 L114.6 -50.25 Q115.15 -35.65 114.25 -24.75 113.85 -19.55 113.1 -15.2 L96.8 -14.5" fill="url(#gradient6)" fill-rule="evenodd" stroke="none"/>
      <path d="M39.7 18.7 L50.4 18.8 Q55.45 25.95 50.3 32.7 L39.2 32.75 4.1 32.8 Q-4.25 45.45 -16.45 45.3 -28.25 44.05 -38.4 29.65 L-42.8 17.7 -48.3 17.55 Q-55.1 18.6 -57.45 25.85 -59.8 33.15 -66.7 37.5 -73.65 41.8 -80.05 48.8 L-91.95 61.75 Q-108.9 60.65 -114.35 52.05 -115.15 42.7 -114.4 32.75 -113.65 21.7 -111.0 9.9 -109.4 2.75 -107.15 -4.7 -105.25 -7.8 -93.95 -10.35 L-64.2 -14.4 -64.9 -18.55 -64.7 -19.05 -65.0 -19.3 Q-65.45 -23.65 -64.9 -28.0 L-64.05 -32.75 Q-68.25 -38.6 -78.7 -37.25 -80.2 -39.8 -80.2 -42.6 -80.2 -44.6 -79.5 -46.75 L-78.2 -49.75 Q-71.7 -51.05 -64.7 -49.5 L-63.7 -49.25 Q-61.05 -48.8 -61.05 -46.65 -59.45 -43.0 -57.35 -41.6 L-56.55 -41.2 Q-52.65 -45.5 -45.45 -46.3 L-45.85 -41.9 -46.9 -33.05 Q-48.7 -19.25 -46.85 -5.6 -45.25 5.85 -37.85 13.05 -35.65 15.2 -32.9 17.0 L12.1 18.4 39.7 18.7 M50.2 22.5 Q48.95 21.25 47.15 21.25 45.35 21.25 44.1 22.5 42.85 23.75 42.85 25.55 42.85 27.35 44.1 28.6 45.35 29.85 47.15 29.85 48.95 29.85 50.2 28.6 51.45 27.35 51.45 25.55 51.45 23.75 50.2 22.5 M-25.75 26.7 L-25.9 26.7 -33.05 25.75 Q-30.9 31.6 -26.3 36.15 -21.45 40.15 -16.8 40.65 -11.95 41.15 -7.3 37.8 -2.5 34.35 0.45 29.9 L0.95 29.15 -0.95 29.05 -15.75 27.85 -25.75 26.7 M-60.05 15.0 Q-58.55 11.1 -58.55 7.55 -58.6 0.55 -64.4 -5.0 -83.85 -6.65 -100.65 1.25 -105.2 11.85 -106.85 26.65 L-107.4 32.1 Q-108.0 40.0 -107.9 49.05 -95.35 58.8 -71.15 32.5 L-60.1 15.15 -60.05 15.0" fill="url(#gradient7)" fill-rule="evenodd" stroke="none"/>
      <path d="M-60.05 15.0 L-60.1 15.15 -71.15 32.5 Q-95.35 58.8 -107.9 49.05 -108.0 40.0 -107.4 32.1 L-106.85 26.65 Q-105.2 11.85 -100.65 1.25 -83.85 -6.65 -64.4 -5.0 -58.6 0.55 -58.55 7.55 -58.55 11.1 -60.05 15.0 M-67.75 11.5 Q-65.3 11.5 -63.6 9.75 -61.85 8.05 -61.85 5.6 -61.85 3.15 -63.6 1.4 -65.3 -0.3 -67.75 -0.3 -70.2 -0.3 -71.95 1.4 -73.65 3.15 -73.65 5.6 -73.65 8.05 -71.95 9.75 -70.2 11.5 -67.75 11.5" fill="url(#gradient8)" fill-rule="evenodd" stroke="none"/>
    </g>
    <linearGradient gradientTransform="matrix(0.0249, 0.0, 0.0, 0.0052, 76.55, -10.3)" gradientUnits="userSpaceOnUse" id="gradient0" spreadMethod="pad" x1="-819.2" x2="819.2">
      <stop offset="0.0" stop-color="#ffffff"/>
      <stop offset="1.0" stop-color="#000000"/>
    </linearGradient>
    <linearGradient gradientTransform="matrix(0.0052, 0.0, 0.0, 0.0052, 47.15, 25.55)" gradientUnits="userSpaceOnUse" id="gradient1" spreadMethod="pad" x1="-819.2" x2="819.2">
      <stop offset="0.0" stop-color="#ffffff"/>
      <stop offset="1.0" stop-color="#000000"/>
    </linearGradient>
    <linearGradient gradientTransform="matrix(0.0082, 0.0, 0.0, 0.0059, -19.0, 31.55)" gradientUnits="userSpaceOnUse" id="gradient2" spreadMethod="pad" x1="-819.2" x2="819.2">
      <stop offset="0.0" stop-color="#ffffff"/>
      <stop offset="1.0" stop-color="#000000"/>
    </linearGradient>
    <linearGradient gradientTransform="matrix(-0.0019, 0.007, -0.007, -0.0019, -67.75, 5.6)" gradientUnits="userSpaceOnUse" id="gradient3" spreadMethod="pad" x1="-819.2" x2="819.2">
      <stop offset="0.0" stop-color="#ffffff"/>
      <stop offset="1.0" stop-color="#000000"/>
    </linearGradient>
    <linearGradient gradientTransform="matrix(0.0, 0.015, -0.0181, 0.0, -39.5, -14.4)" gradientUnits="userSpaceOnUse" id="gradient4" spreadMethod="pad" x1="-819.2" x2="819.2">
      <stop offset="0.0" stop-color="#ffffff"/>
      <stop offset="1.0" stop-color="#000000"/>
    </linearGradient>
    <linearGradient gradientTransform="matrix(0.0, 0.03, -0.0386, 0.0, -39.5, -14.65)" gradientUnits="userSpaceOnUse" id="gradient5" spreadMethod="pad" x1="-819.2" x2="819.2">
      <stop offset="0.0" stop-color="#ffffff"/>
      <stop offset="1.0" stop-color="#000000"/>
    </linearGradient>
    <linearGradient gradientTransform="matrix(0.0, 0.0506, -0.0586, 0.0, 76.95, -13.75)" gradientUnits="userSpaceOnUse" id="gradient6" spreadMethod="pad" x1="-819.2" x2="819.2">
      <stop offset="0.0" stop-color="#ffffff"/>
      <stop offset="1.0" stop-color="#000000"/>
    </linearGradient>
    <linearGradient gradientTransform="matrix(0.0, 0.0569, -0.0684, 0.0, -30.95, 5.7)" gradientUnits="userSpaceOnUse" id="gradient7" spreadMethod="pad" x1="-819.2" x2="819.2">
      <stop offset="0.0" stop-color="#ffffff"/>
      <stop offset="1.0" stop-color="#808080"/>
    </linearGradient>
    <linearGradient gradientTransform="matrix(-0.0078, 0.0291, -0.0336, -0.009, -83.25, 23.2)" gradientUnits="userSpaceOnUse" id="gradient8" spreadMethod="pad" x1="-819.2" x2="819.2">
      <stop offset="0.0" stop-color="#ffffff"/>
      <stop offset="1.0" stop-color="#ff9966"/>
    </linearGradient>
    <g id="shape2" transform="matrix(1.0, 0.0, 0.0, 1.0, -36.45, 82.0)">
      <path d="M97.2 -58.15 L88.05 -57.8 Q78.9 -57.35 72.05 -57.6 L52.7 -58.2 Q42.95 -58.75 36.95 -60.25 L36.95 -60.75 Q36.9 -63.3 37.6 -65.35 42.2 -68.8 52.2 -70.5 60.3 -71.9 72.95 -72.25 L87.4 -71.8 96.15 -70.85 97.2 -58.15 M49.3 -47.25 Q69.6 -50.3 92.0 -49.15 L97.65 -48.8 97.7 -46.05 Q97.95 -38.4 97.85 -30.5 L97.85 -30.35 70.8 -29.15 Q64.65 -29.0 50.35 -31.9 41.7 -33.65 37.6 -35.0 37.6 -40.35 41.1 -43.8 42.6 -45.4 44.9 -46.55 L49.3 -47.25" fill="#333333" fill-rule="evenodd" stroke="none"/>
      <path d="M96.15 -70.85 L87.4 -71.8 72.95 -72.25 Q60.3 -71.9 52.2 -70.5 42.2 -68.8 37.6 -65.35 39.05 -69.8 44.2 -72.45 66.9 -76.25 92.3 -74.95 L95.7 -74.75 95.95 -72.85 96.15 -70.85" fill="#b3b3b3" fill-rule="evenodd" stroke="none"/>
      <path d="M36.95 -60.25 Q42.95 -58.75 52.7 -58.2 L72.05 -57.6 Q78.9 -57.35 88.05 -57.8 L97.2 -58.15 97.45 -53.4 97.65 -48.8 92.0 -49.15 Q69.6 -50.3 49.3 -47.25 L45.25 -48.1 Q43.0 -49.1 41.4 -50.4 36.65 -54.15 36.95 -60.25 M93.25 -13.05 Q62.95 -11.8 47.8 -14.05 39.2 -16.35 39.95 -21.6 39.9 -23.45 41.0 -24.95 37.25 -28.75 37.65 -34.6 L37.6 -35.0 Q41.7 -33.65 50.35 -31.9 64.65 -29.0 70.8 -29.15 L97.85 -30.35 97.55 -19.3 97.2 -13.15 93.25 -13.05 M41.0 -24.95 Q42.9 -23.0 45.95 -21.6 61.65 -17.6 92.9 -19.1 L97.55 -19.3 92.9 -19.1 Q61.65 -17.6 45.95 -21.6 42.9 -23.0 41.0 -24.95" fill="#1a1a1a" fill-rule="evenodd" stroke="none"/>
      <path d="M41.4 -50.4 Q43.0 -49.1 45.25 -48.1 L49.3 -47.25 44.9 -46.55 Q42.6 -45.4 41.1 -43.8 L41.4 -50.4" fill="#0d0d0d" fill-rule="evenodd" stroke="none"/>
      <path d="M124.3 -73.05 L123.65 -72.95 Q104.4 -72.45 96.75 -72.85 L95.95 -72.85 95.7 -74.75 92.3 -74.95 92.4 -76.35 Q92.8 -79.4 95.4 -80.85 107.85 -82.05 119.15 -81.1 123.0 -80.1 123.9 -76.9 L124.3 -73.05 M95.3 -78.25 L95.7 -74.75 95.3 -78.25" fill="#ff8d69" fill-rule="evenodd" stroke="none"/>
      <path d="M97.2 -58.15 L96.15 -70.85 95.95 -72.85 96.75 -72.85 Q104.4 -72.45 123.65 -72.95 L124.3 -73.05 Q125.3 -63.5 125.7 -53.8 L119.65 -53.8 118.8 -53.75 Q104.2 -53.05 98.45 -53.45 L97.45 -53.4 97.2 -58.15" fill="#ff6633" fill-rule="evenodd" stroke="none"/>
      <path d="M97.65 -48.8 L97.45 -53.4 98.45 -53.45 Q104.2 -53.05 118.8 -53.75 L119.65 -53.8 125.7 -53.8 Q126.5 -33.7 124.95 -12.95 124.45 -9.75 121.65 -8.15 109.3 -6.8 97.35 -7.55 94.25 -8.55 93.4 -11.1 L93.25 -13.05 97.2 -13.15 97.55 -19.3 97.85 -30.35 97.85 -30.5 Q97.95 -38.4 97.7 -46.05 L97.65 -48.8 M97.05 -11.4 L97.2 -13.15 97.05 -11.4" fill="#cf451a" fill-rule="evenodd" stroke="none"/>
      <path d="M97.2 -58.15 L96.15 -70.85 95.95 -72.85 95.7 -74.75 95.3 -78.25 M37.6 -65.35 Q36.9 -63.3 36.95 -60.75 L36.95 -60.25 Q36.65 -54.15 41.4 -50.4 43.0 -49.1 45.25 -48.1 L49.3 -47.25 Q69.6 -50.3 92.0 -49.15 L97.65 -48.8 97.45 -53.4 97.2 -58.15 M93.25 -13.05 Q62.95 -11.8 47.8 -14.05 39.2 -16.35 39.95 -21.6 39.9 -23.45 41.0 -24.95 37.25 -28.75 37.65 -34.6 L37.6 -35.0 Q37.6 -40.35 41.1 -43.8 L41.4 -50.4 M97.85 -30.35 L97.85 -30.5 Q97.95 -38.4 97.7 -46.05 L97.65 -48.8 M49.3 -47.25 L44.9 -46.55 Q42.6 -45.4 41.1 -43.8 M97.55 -19.3 L92.9 -19.1 Q61.65 -17.6 45.95 -21.6 42.9 -23.0 41.0 -24.95 M92.3 -74.95 Q66.9 -76.25 44.2 -72.45 39.05 -69.8 37.6 -65.35 M125.7 -53.8 Q125.3 -63.5 124.3 -73.05 L123.9 -76.9 Q123.0 -80.1 119.15 -81.1 107.85 -82.05 95.4 -80.85 92.8 -79.4 92.4 -76.35 L92.3 -74.95 95.7 -74.75 M125.7 -53.8 Q126.5 -33.7 124.95 -12.95 124.45 -9.75 121.65 -8.15 109.3 -6.8 97.35 -7.55 94.25 -8.55 93.4 -11.1 L93.25 -13.05 97.2 -13.15 97.55 -19.3 97.85 -30.35 M97.2 -13.15 L97.05 -11.4" fill="none" stroke="#000000" stroke-linecap="round" stroke-linejoin="round" stroke-opacity="0.6627451" stroke-width="1.0"/>
    </g>
    <g id="sprite1" transform="matrix(1.0, 0.0, 0.0, 1.0, 56.9, 47.65)">
      <use height="95.3" transform="matrix(1.0, 0.0, 0.0, 1.0, -56.9, -47.65)" width="113.85" xlink:href="#shape3"/>
    </g>
    <g id="shape3" transform="matrix(1.0, 0.0, 0.0, 1.0, 56.9, 47.65)">
      <path d="M-51.45 -9.9 Q-49.45 -8.2 -46.6 -6.85 L-41.4 -5.6 -47.1 -4.85 Q-50.05 -3.4 -52.1 -1.4 L-51.45 -9.9" fill="url(#gradient9)" fill-rule="evenodd" stroke="none"/>
      <path d="M13.85 39.85 L18.9 39.8 19.55 31.9 20.35 17.75 20.35 17.5 Q20.75 7.4 20.75 -2.45 L20.7 -6.0 20.6 -11.9 20.45 -18.0 19.55 -34.3 19.35 -36.9 19.15 -39.35 14.75 -39.7 14.85 -41.5 Q15.5 -45.45 18.95 -47.15 34.9 -48.35 49.45 -46.75 54.35 -45.3 55.35 -41.15 L55.75 -36.2 Q56.7 -23.9 56.9 -11.45 57.3 14.4 54.6 41.0 53.8 45.1 50.15 47.0 34.3 48.35 18.95 47.0 15.0 45.6 13.95 42.35 L13.85 39.85" fill="url(#gradient10)" fill-rule="evenodd" stroke="none"/>
      <path d="M14.75 -39.7 L19.15 -39.35 19.35 -36.9 19.55 -34.3 20.45 -18.0 20.6 -11.9 20.7 -6.0 20.75 -2.45 Q20.75 7.4 20.35 17.5 L20.35 17.75 19.55 31.9 18.9 39.8 13.85 39.85 Q-25.1 40.4 -44.5 37.0 -55.4 33.7 -54.3 27.05 -54.35 24.65 -52.85 22.75 -57.55 17.75 -56.8 10.3 L-56.8 9.75 Q-56.7 2.9 -52.1 -1.4 -50.05 -3.4 -47.1 -4.85 L-41.4 -5.6 -46.6 -6.85 Q-49.45 -8.2 -51.45 -9.9 -57.4 -14.85 -56.85 -22.7 L-56.8 -23.35 Q-56.85 -26.6 -55.85 -29.25 -53.8 -34.9 -47.1 -38.1 -17.8 -42.25 14.75 -39.7" fill="url(#gradient11)" fill-rule="evenodd" stroke="none"/>
    </g>
    <linearGradient gradientTransform="matrix(0.0065, 0.0, 0.0, 0.0052, -46.75, -5.65)" gradientUnits="userSpaceOnUse" id="gradient9" spreadMethod="pad" x1="-819.2" x2="819.2">
      <stop offset="0.0" stop-color="#000000" stop-opacity="0.6"/>
      <stop offset="1.0" stop-color="#000000" stop-opacity="0.5411765"/>
    </linearGradient>
    <linearGradient gradientTransform="matrix(0.0, 0.0408, -0.0582, 0.0, 33.5, -14.15)" gradientUnits="userSpaceOnUse" id="gradient10" spreadMethod="pad" x1="-819.2" x2="819.2">
      <stop offset="0.0" stop-color="#ffffff"/>
      <stop offset="1.0" stop-color="#000000"/>
    </linearGradient>
    <linearGradient gradientTransform="matrix(0.0, 0.0466, -1.0, 0.0, -15.15, -0.35)" gradientUnits="userSpaceOnUse" id="gradient11" spreadMethod="pad" x1="-819.2" x2="819.2">
      <stop offset="0.0" stop-color="#ffffff"/>
      <stop offset="1.0" stop-color="#000000"/>
    </linearGradient>
    <g id="shape4" transform="matrix(1.0, 0.0, 0.0, 1.0, 56.75, 57.55)">
      <path d="M12.1 -39.2 L11.65 -39.1 11.2 -38.85 11.15 -38.7 11.2 -38.5 13.95 -37.55 Q18.0 -36.1 21.8 -34.0 L29.6 -30.0 30.75 -29.45 38.0 -25.5 45.8 -21.6 48.55 -19.9 48.55 -18.2 Q48.35 -16.25 46.4 -13.1 44.05 -9.85 42.15 -9.05 L39.7 -8.9 37.6 -9.9 33.45 -11.8 31.0 -13.35 Q29.4 -14.1 28.75 -12.85 L30.85 -11.6 Q31.75 -11.1 32.35 -10.85 L32.3 -10.5 32.55 -9.55 30.4 -6.25 Q27.4 -1.8 24.55 -1.5 L22.65 -1.45 Q21.45 -1.75 20.15 -2.3 19.2 -2.65 18.3 -3.15 L17.5 -3.35 16.95 -3.8 17.0 -2.5 17.0 -2.0 13.4 1.9 12.4 3.0 Q10.15 3.5 7.6 2.6 L5.3 1.95 -3.05 -1.5 Q-13.35 -5.95 -23.7 -9.9 -28.4 -11.7 -32.95 -13.75 -37.35 -17.65 -39.5 -18.9 -42.45 -20.65 -44.55 -23.3 -46.75 -26.0 -47.7 -29.1 L-51.55 -43.95 Q-53.2 -50.4 -54.9 -54.5 -55.1 -55.6 -55.45 -56.4 L-51.15 -57.1 -45.0 -57.5 Q-37.4 -57.5 -29.7 -55.6 -24.05 -53.95 -20.55 -53.4 L-18.45 -52.0 -16.35 -50.1 -14.9 -47.5 Q-16.65 -47.85 -17.75 -47.15 -15.05 -46.3 -11.5 -44.35 L3.0 -35.4 3.55 -35.2 4.15 -35.3 4.4 -35.4 4.5 -35.65 4.55 -36.05 4.3 -36.75 5.75 -38.35 7.85 -40.65 8.2 -41.15 9.1 -40.7 12.1 -39.2" fill="#999999" fill-rule="evenodd" stroke="none"/>
      <path d="M48.55 -19.9 L45.8 -21.6 38.0 -25.5 30.75 -29.45 29.6 -30.0 21.8 -34.0 Q18.0 -36.1 13.95 -37.55 L11.2 -38.5 11.15 -38.7 11.2 -38.85 11.65 -39.1 12.1 -39.2 Q16.9 -38.4 21.35 -36.15 L28.55 -32.45 33.25 -29.9 34.9 -29.05 Q37.85 -27.6 39.65 -26.35 L47.8 -22.2 Q52.9 -19.45 52.9 -16.7 52.9 -15.35 50.4 -10.75 L48.75 -8.35 Q46.45 -6.25 42.25 -6.3 L36.15 -8.9 34.7 -9.55 35.15 -7.2 35.15 -6.7 Q34.8 -4.7 33.5 -3.2 27.25 4.05 18.3 -1.5 L18.15 -1.55 Q18.15 0.65 17.05 2.35 L16.05 3.55 Q13.4 5.6 9.95 5.2 L9.7 5.15 7.6 4.75 2.5 3.2 -0.8 1.9 Q-10.8 -2.9 -21.15 -6.65 L-27.7 -9.25 Q-35.8 -12.65 -43.55 -16.95 -47.45 -19.5 -49.6 -22.6 -54.55 -33.8 -55.9 -46.2 L-56.55 -51.15 -56.75 -55.75 Q-56.75 -57.0 -56.25 -57.55 L-55.7 -56.8 -55.45 -56.4 Q-55.1 -55.6 -54.9 -54.5 L-54.8 -53.7 -54.5 -51.1 Q-53.5 -40.55 -50.8 -30.2 -49.7 -26.0 -47.2 -22.55 -45.7 -20.7 -43.55 -19.05 -38.35 -16.2 -32.95 -13.75 -28.4 -11.7 -23.7 -9.9 -13.35 -5.95 -3.05 -1.5 L5.3 1.95 7.6 2.6 Q10.15 3.5 12.4 3.0 14.0 2.6 15.45 1.5 L16.05 1.0 16.4 0.4 16.95 -1.1 17.0 -2.0 17.0 -2.5 16.95 -3.8 17.5 -3.35 18.3 -3.15 Q19.2 -2.65 20.15 -2.3 21.45 -1.75 22.65 -1.45 29.8 0.2 33.25 -6.75 L33.3 -7.25 32.8 -8.85 32.55 -9.55 32.3 -10.5 32.35 -10.85 Q31.75 -11.1 30.85 -11.6 L28.75 -12.85 Q29.4 -14.1 31.0 -13.35 L33.45 -11.8 37.6 -9.9 39.7 -8.9 Q42.0 -7.85 42.65 -7.85 45.95 -7.8 47.75 -9.75 L49.15 -12.05 50.35 -14.05 Q51.25 -15.8 51.25 -16.5 51.25 -18.0 48.55 -19.9 M8.2 -41.15 L7.85 -40.65 5.75 -38.35 4.3 -36.75 4.55 -36.05 4.5 -35.65 4.4 -35.4 4.15 -35.3 3.55 -35.2 3.0 -35.4 -11.5 -44.35 Q-15.05 -46.3 -17.75 -47.15 -16.65 -47.85 -14.9 -47.5 L-16.35 -50.1 -18.45 -52.0 -20.55 -53.4 -21.25 -53.95 Q-19.55 -55.45 -16.0 -51.8 -12.65 -48.4 -12.65 -46.8 L-12.65 -46.7 -11.85 -46.35 -8.8 -44.5 3.0 -37.85 3.4 -37.6 Q3.85 -38.55 5.1 -39.95 L6.9 -41.8 8.2 -41.15" fill="#000000" fill-rule="evenodd" stroke="none"/>
      <path d="M-54.9 -54.5 Q-53.2 -50.4 -51.55 -43.95 L-47.7 -29.1 Q-46.75 -26.0 -44.55 -23.3 -42.45 -20.65 -39.5 -18.9 -37.35 -17.65 -32.95 -13.75 -38.35 -16.2 -43.55 -19.05 -45.7 -20.7 -47.2 -22.55 -49.7 -26.0 -50.8 -30.2 -53.5 -40.55 -54.5 -51.1 L-54.8 -53.7 -54.9 -54.5 M12.4 3.0 L13.4 1.9 17.0 -2.0 16.95 -1.1 16.4 0.4 16.05 1.0 15.45 1.5 Q14.0 2.6 12.4 3.0 M22.65 -1.45 L24.55 -1.5 Q27.4 -1.8 30.4 -6.25 L32.55 -9.55 32.8 -8.85 33.3 -7.25 33.25 -6.75 Q29.8 0.2 22.65 -1.45 M39.7 -8.9 L42.15 -9.05 Q44.05 -9.85 46.4 -13.1 48.35 -16.25 48.55 -18.2 L48.55 -19.9 Q51.25 -18.0 51.25 -16.5 51.25 -15.8 50.35 -14.05 L49.15 -12.05 47.75 -9.75 Q45.95 -7.8 42.65 -7.85 42.0 -7.85 39.7 -8.9" fill="#bdbdbd" fill-rule="evenodd" stroke="none"/>
      <path d="M98.2 -4.25 L97.95 -6.6 Q97.8 -8.25 98.1 -9.6 98.85 -13.75 103.3 -15.05 L106.4 -14.75 Q106.65 -15.85 107.3 -17.0 109.25 -20.1 112.3 -20.3 L115.15 -19.95 116.8 -19.4 117.25 -19.05 118.0 -18.05 118.4 -17.5 118.5 -17.45 119.6 -18.05 119.95 -18.15 Q122.65 -18.95 125.4 -18.95 L125.6 -18.95 Q127.25 -18.85 127.9 -18.3 L129.0 -17.1 129.5 -16.15 Q130.65 -13.0 130.65 -10.05 L131.15 -4.1 Q131.15 -1.1 129.7 0.0 128.6 0.9 125.95 0.9 L125.85 0.9 Q121.75 0.9 119.65 -0.95 L119.05 -0.6 115.85 -0.15 Q112.55 -0.15 110.5 -1.0 109.85 1.85 105.85 2.0 L105.35 2.0 Q100.05 2.0 98.4 -2.7 L98.2 -4.25 M99.1 -9.1 Q98.45 -6.95 99.2 -4.25 99.5 -2.55 100.15 -1.55 101.4 0.3 104.35 0.55 L105.3 0.6 Q108.4 0.6 109.0 -1.25 L109.0 -1.3 109.05 -1.75 108.35 -2.55 107.3 -5.35 106.75 -7.25 106.6 -7.85 106.15 -11.0 Q106.15 -13.1 106.3 -14.2 L105.65 -14.25 103.3 -13.95 102.2 -13.25 Q99.75 -11.5 99.1 -9.1 M117.2 -15.05 L117.25 -15.3 117.05 -16.95 116.8 -17.7 Q115.0 -18.95 113.35 -19.0 110.85 -19.1 108.65 -16.4 L108.2 -15.65 Q107.4 -13.8 107.4 -11.1 107.4 -10.2 108.05 -7.25 L108.7 -5.7 110.6 -2.55 Q111.75 -1.6 113.25 -1.5 L114.45 -1.55 115.85 -1.5 118.65 -1.85 118.75 -1.95 Q118.05 -2.95 117.75 -4.75 L117.7 -5.15 Q117.2 -8.0 117.05 -10.8 L117.0 -11.55 117.0 -13.85 117.2 -15.05 M126.0 -17.7 L119.95 -17.15 118.85 -16.05 Q118.15 -15.0 118.15 -13.75 L118.2 -11.55 118.7 -5.15 Q118.75 -4.1 119.2 -3.2 L119.8 -2.3 119.9 -2.25 120.0 -2.05 Q121.75 -0.4 125.85 -0.4 L126.4 -0.4 Q128.7 -0.55 129.55 -2.1 L129.9 -3.9 130.0 -8.7 Q130.0 -11.25 129.25 -13.5 L128.55 -15.45 127.6 -17.45 126.0 -17.7" fill="#000000" fill-rule="evenodd" stroke="none"/>
      <path d="M99.1 -9.1 Q100.05 -8.5 100.4 -7.6 L100.9 -5.75 101.4 -3.9 Q102.3 -1.8 103.45 -0.4 L104.35 0.55 Q101.4 0.3 100.15 -1.55 99.5 -2.55 99.2 -4.25 98.45 -6.95 99.1 -9.1 M113.35 -19.0 Q115.0 -18.95 116.8 -17.7 L117.05 -16.95 117.25 -15.3 117.2 -15.05 Q115.9 -15.1 114.65 -17.05 L113.35 -19.0 M126.4 -0.4 L126.7 -1.8 Q126.9 -2.9 126.9 -6.25 126.9 -12.25 126.5 -15.4 L126.0 -17.7 127.6 -17.45 128.55 -15.45 129.25 -13.5 Q130.0 -11.25 130.0 -8.7 L129.9 -3.9 129.55 -2.1 Q128.7 -0.55 126.4 -0.4" fill="#bdbdbd" fill-rule="evenodd" stroke="none"/>
      <path d="M104.35 0.55 L103.45 -0.4 Q102.3 -1.8 101.4 -3.9 L100.9 -5.75 100.4 -7.6 Q100.05 -8.5 99.1 -9.1 99.75 -11.5 102.2 -13.25 L103.3 -13.95 105.65 -14.25 106.3 -14.2 Q106.15 -13.1 106.15 -11.0 L106.6 -7.85 106.75 -7.25 107.3 -5.35 108.35 -2.55 109.05 -1.75 109.0 -1.3 109.0 -1.25 Q108.4 0.6 105.3 0.6 L104.35 0.55 M113.35 -19.0 L114.65 -17.05 Q115.9 -15.1 117.2 -15.05 L117.0 -13.85 117.0 -11.55 117.05 -10.8 Q117.2 -8.0 117.7 -5.15 L117.75 -4.75 Q118.05 -2.95 118.75 -1.95 L118.65 -1.85 115.85 -1.5 114.45 -1.55 113.25 -1.5 Q111.75 -1.6 110.6 -2.55 L108.7 -5.7 108.05 -7.25 Q107.4 -10.2 107.4 -11.1 107.4 -13.8 108.2 -15.65 L108.65 -16.4 Q110.85 -19.1 113.35 -19.0 M126.4 -0.4 L125.85 -0.4 Q121.75 -0.4 120.0 -2.05 L119.9 -2.25 119.8 -2.3 119.2 -3.2 Q118.75 -4.1 118.7 -5.15 L118.2 -11.55 118.15 -13.75 Q118.15 -15.0 118.85 -16.05 L119.95 -17.15 126.0 -17.7 126.5 -15.4 Q126.9 -12.25 126.9 -6.25 126.9 -2.9 126.7 -1.8 L126.4 -0.4" fill="#999999" fill-rule="evenodd" stroke="none"/>
    </g>
  </defs>
</svg>
