<?xml version="1.0" encoding="UTF-8" standalone="no"?>
<svg xmlns:xlink="http://www.w3.org/1999/xlink" height="531.5px" width="460.6px" xmlns="http://www.w3.org/2000/svg">
  <g transform="matrix(1.0, 0.0, 0.0, 1.0, 193.65, 334.05)">
    <use height="80.1" transform="matrix(1.0, 0.0, 0.0, 1.0, 17.85, -46.6)" width="83.95" xlink:href="#shape0"/>
    <use height="85.7" transform="matrix(0.9167, 0.0, 0.0, 0.9167, 18.5956, -45.8294)" width="89.95" xlink:href="#sprite0"/>
    <use height="73.2" transform="matrix(0.9167, 0.0, 0.0, 0.9167, 41.7874, -43.6002)" width="58.55" xlink:href="#shape2"/>
    <use height="77.45" transform="matrix(1.0, 0.0, 0.0, 1.0, -56.8, -58.4)" width="153.05" xlink:href="#shape3"/>
  </g>
  <defs>
    <g id="shape0" transform="matrix(1.0, 0.0, 0.0, 1.0, -17.85, 46.6)">
      <path d="M40.25 -29.2 Q32.55 -30.75 28.95 -28.55 28.1 -27.25 27.55 -25.7 26.4 -24.55 25.95 -22.65 25.5 -20.9 25.5 -17.2 25.5 -13.9 26.05 -12.3 L27.5 -9.15 Q28.15 -6.2 29.15 -2.85 32.25 1.15 35.3 3.05 L35.3 3.35 35.6 3.75 35.75 3.95 36.8 4.4 38.85 5.2 39.85 5.4 Q41.05 5.4 41.05 2.1 L40.85 -1.7 41.0 -9.4 41.0 -12.0 40.8 -14.45 40.9 -20.7 41.1 -20.4 41.55 -20.4 Q41.85 -20.8 42.05 -24.85 L42.25 -30.65 Q42.25 -32.8 41.9 -33.1 L41.55 -32.4 Q41.55 -32.95 40.9 -33.35 L40.4 -33.65 40.3 -33.7 39.95 -33.7 38.7 -33.75 36.65 -33.3 Q35.3 -32.75 35.3 -31.95 35.3 -31.45 36.95 -31.0 L39.15 -30.7 Q40.2 -30.7 40.85 -31.15 L41.05 -31.3 40.75 -30.5 40.25 -29.2 M23.15 -28.4 Q24.35 -31.25 26.8 -33.1 30.05 -35.5 34.3 -34.9 L37.15 -34.85 40.1 -34.25 41.9 -34.25 41.9 -34.45 Q40.9 -35.6 37.3 -36.2 L30.9 -36.75 Q25.95 -36.75 22.75 -32.55 19.8 -28.55 19.8 -22.85 19.8 -21.0 20.15 -17.4 L20.6 -19.55 21.15 -22.3 23.15 -28.4 M68.25 -45.8 L70.55 -45.8 96.6 -44.05 Q96.45 -11.9 98.2 17.95 L98.25 18.4 Q105.65 29.5 93.55 31.45 L70.5 32.75 68.65 32.75 67.2 32.75 44.1 31.45 Q32.0 29.5 39.4 18.4 L39.45 17.95 39.75 12.35 Q31.45 12.75 22.65 1.5 14.75 -24.55 22.3 -35.55 28.15 -39.1 41.05 -35.95 L41.05 -44.05 67.1 -45.8 68.25 -45.8 M94.55 -43.0 L94.05 -43.25 93.45 -43.4 93.35 -43.4 85.5 -44.45 Q79.7 -44.45 79.5 -43.15 L87.4 -40.55 90.85 -39.0 Q93.25 -37.9 94.15 -37.9 95.15 -37.9 95.4 -38.35 L95.65 -40.0 Q95.65 -41.35 95.15 -42.3 L94.55 -43.0 M76.75 18.8 L76.6 18.75 Q75.8 18.75 75.45 19.15 L80.4 19.5 86.45 19.0 90.85 18.5 89.9 18.5 89.15 18.5 88.65 18.5 86.95 18.7 78.0 18.7 76.75 18.8 M86.15 19.95 L76.5 20.7 66.1 21.45 59.25 21.0 51.7 19.1 46.85 18.35 51.0 20.2 Q55.3 21.55 59.85 22.1 L68.0 22.45 76.1 22.3 Q80.65 22.25 84.7 20.6 L86.15 19.95 M88.55 20.3 L92.5 19.9 94.4 18.55 94.15 13.3 Q93.65 17.95 89.65 19.85 L88.55 20.3 M82.05 23.85 L73.8 24.7 76.95 29.15 82.05 28.85 97.95 26.95 Q98.0 23.3 95.55 20.75 88.8 22.85 82.05 23.85 M37.75 9.55 L36.65 9.85 35.3 9.65 34.8 9.65 Q35.2 10.4 36.55 10.85 L38.95 11.4 40.85 11.4 40.85 10.9 38.8 5.2 38.25 5.2 38.15 5.75 38.1 6.1 38.0 7.55 37.75 9.55 M40.8 18.65 L40.8 18.55 40.65 18.55 40.8 18.65 40.8 21.35 Q38.55 23.65 39.35 26.95 50.55 28.75 61.65 29.2 L68.35 29.35 67.3 24.85 61.65 24.6 Q52.4 23.85 43.2 21.25 L44.45 20.2 44.65 19.4 41.7 19.05 41.4 19.05 41.2 18.85 40.8 18.65 M42.85 15.85 L42.85 16.65 Q45.65 18.0 48.8 18.05 L50.85 18.0 Q48.65 17.15 46.85 15.6 L44.4 13.25 43.05 10.55 42.85 15.85 M54.6 29.75 L53.75 29.6 Q55.55 30.55 61.45 31.15 L69.6 31.65 74.95 31.1 79.05 30.4 Q79.0 30.1 78.3 30.05 L77.05 30.05 71.7 30.45 65.0 30.85 58.4 30.25 54.6 29.75 M53.45 29.55 L53.35 29.55 53.65 29.6 53.45 29.55" fill="#d9d9d9" fill-opacity="0.7019608" fill-rule="evenodd" stroke="none"/>
      <path d="M41.05 -31.3 L40.85 -31.15 Q40.2 -30.7 39.15 -30.7 L36.95 -31.0 Q35.3 -31.45 35.3 -31.95 35.3 -32.75 36.65 -33.3 L38.7 -33.75 39.95 -33.7 40.3 -33.7 40.4 -33.65 40.9 -33.35 Q41.55 -32.95 41.55 -32.4 41.55 -31.75 41.05 -31.3 M23.15 -28.4 L21.15 -22.3 20.6 -19.55 20.15 -17.4 Q19.8 -21.0 19.8 -22.85 19.8 -28.55 22.75 -32.55 25.95 -36.75 30.9 -36.75 L37.3 -36.2 Q40.9 -35.6 41.9 -34.45 L41.9 -34.25 40.1 -34.25 37.15 -34.85 34.3 -34.9 Q30.05 -35.5 26.8 -33.1 24.35 -31.25 23.15 -28.4 M94.55 -43.0 L95.15 -42.3 Q95.65 -41.35 95.65 -40.0 L95.4 -38.35 Q95.15 -37.9 94.15 -37.9 93.25 -37.9 90.85 -39.0 L87.4 -40.55 79.5 -43.15 Q79.7 -44.45 85.5 -44.45 L93.35 -43.4 93.45 -43.4 94.05 -43.25 94.55 -43.0 M38.1 6.1 L38.15 5.75 38.25 5.2 38.8 5.2 40.85 10.9 40.85 11.4 38.95 11.4 36.55 10.85 Q35.2 10.4 34.8 9.65 L35.3 9.65 36.65 9.85 37.75 9.55 38.1 8.65 38.1 6.1 M82.05 23.85 Q88.8 22.85 95.55 20.75 98.0 23.3 97.95 26.95 L82.05 28.85 76.95 29.15 73.8 24.7 82.05 23.85 M43.2 21.25 Q52.4 23.85 61.65 24.6 L67.3 24.85 68.35 29.35 61.65 29.2 Q50.55 28.75 39.35 26.95 38.55 23.65 40.8 21.35 40.9 23.15 41.15 24.95 L41.35 26.05 42.7 21.7 43.2 21.25" fill="#ffffff" fill-rule="evenodd" stroke="none"/>
      <path d="M40.25 -29.2 L40.75 -30.5 41.05 -31.3 Q41.55 -31.75 41.55 -32.4 L41.9 -33.1 Q42.25 -32.8 42.25 -30.65 L42.05 -24.85 Q41.85 -20.8 41.55 -20.4 L41.1 -20.4 40.9 -20.7 41.0 -29.0 40.25 -29.2 M40.8 -14.45 L41.0 -12.0 41.0 -9.4 40.85 -1.7 41.05 2.1 Q41.05 5.4 39.85 5.4 L38.85 5.2 36.8 4.4 35.75 3.95 35.6 3.75 35.3 3.35 35.3 3.05 Q37.7 4.55 40.15 4.7 L40.8 -14.45 M27.5 -9.15 L26.05 -12.3 Q25.5 -13.9 25.5 -17.2 25.5 -20.9 25.95 -22.65 26.4 -24.55 27.55 -25.7 25.25 -19.65 27.5 -9.15 M78.0 18.7 L86.95 18.7 88.65 18.5 89.15 18.5 89.9 18.5 90.85 18.5 86.45 19.0 80.4 19.5 75.45 19.15 Q75.8 18.75 76.6 18.75 L76.75 18.8 78.0 18.8 78.0 18.7 M88.55 20.3 L89.65 19.85 Q93.65 17.95 94.15 13.3 L94.4 18.55 92.5 19.9 88.55 20.3 M86.15 19.95 L84.7 20.6 Q80.65 22.25 76.1 22.3 L68.0 22.45 59.85 22.1 Q55.3 21.55 51.0 20.2 L46.85 18.35 51.7 19.1 59.25 21.0 66.1 21.45 76.5 20.7 86.15 19.95 M40.8 18.65 L41.2 18.85 41.4 19.05 41.7 19.05 44.65 19.4 44.45 20.2 43.2 21.25 42.7 21.7 41.35 26.05 41.15 24.95 Q40.9 23.15 40.8 21.35 L40.8 18.65 M42.85 15.85 L44.4 13.25 46.85 15.6 Q48.65 17.15 50.85 18.0 L48.8 18.05 Q45.65 18.0 42.85 16.65 L42.85 15.85 M54.6 29.75 L58.4 30.25 65.0 30.85 71.7 30.45 77.05 30.05 78.3 30.05 Q79.0 30.1 79.05 30.4 L74.95 31.1 69.6 31.65 61.45 31.15 Q55.55 30.55 53.75 29.6 L54.6 29.75" fill="#404040" fill-rule="evenodd" stroke="none"/>
      <path d="M44.4 13.25 L42.85 15.85 43.05 10.55 44.4 13.25" fill="#787878" fill-opacity="0.77254903" fill-rule="evenodd" stroke="none"/>
      <path d="M27.55 -25.7 Q28.1 -27.25 28.95 -28.55 32.55 -30.75 40.25 -29.2 L41.0 -29.0 40.9 -20.7 40.8 -14.45 40.15 4.7 Q37.7 4.55 35.3 3.05 32.25 1.15 29.15 -2.85 28.15 -6.2 27.5 -9.15 25.25 -19.65 27.55 -25.7 M68.25 -45.8 L67.1 -45.8 41.05 -44.05 41.05 -35.95 Q28.15 -39.1 22.3 -35.55 14.75 -24.55 22.65 1.5 31.45 12.75 39.75 12.35 L39.45 17.95 39.4 18.4 Q32.0 29.5 44.1 31.45 L67.2 32.75 68.65 32.75 70.5 32.75 93.55 31.45 Q105.65 29.5 98.25 18.4 L98.2 17.95 Q96.45 -11.9 96.6 -44.05 L70.55 -45.8 68.25 -45.8" fill="none" stroke="#000000" stroke-linecap="round" stroke-linejoin="round" stroke-opacity="0.32941177" stroke-width="1.5"/>
    </g>
    <g id="sprite0" transform="matrix(1.0, 0.0, 0.0, 1.0, 44.95, 42.85)">
      <use height="85.7" transform="matrix(1.0, 0.0, 0.0, 1.0, -44.95, -42.85)" width="89.95" xlink:href="#shape1"/>
    </g>
    <g id="shape1" transform="matrix(1.0, 0.0, 0.0, 1.0, 44.95, 42.85)">
      <path d="M37.9 -39.75 L37.35 -40.05 36.7 -40.2 36.6 -40.2 28.05 -41.35 Q21.7 -41.35 21.5 -39.95 L30.1 -37.1 33.85 -35.4 Q36.5 -34.2 37.45 -34.2 38.55 -34.2 38.85 -34.7 L39.1 -36.5 Q39.1 -37.95 38.55 -39.0 L37.9 -39.75 M-19.75 27.9 L-18.9 25.5 -18.7 25.1 -18.75 25.05 -18.7 25.05 -18.5 24.45 -16.8 21.6 -14.65 19.25 Q-10.8 15.65 -3.4 10.65 2.25 6.85 10.05 3.1 11.9 2.2 21.35 -1.95 30.8 -6.2 34.2 -6.2 37.2 -6.2 38.05 -4.8 38.55 -4.05 39.1 -0.1 L39.25 -7.15 39.0 -18.9 39.05 -22.3 39.75 -25.45 39.75 -28.45 39.5 -28.45 38.1 -26.9 35.35 -24.45 27.25 -18.45 22.05 -14.5 16.35 -10.45 Q4.95 -3.55 -3.0 -0.55 -9.45 1.95 -14.65 2.15 L-14.75 2.15 -18.25 1.8 -19.3 0.55 -19.3 2.6 -19.5 5.7 -20.0 14.45 -20.4 25.45 -20.4 27.2 -20.3 27.7 -20.75 27.5 -20.75 30.45 Q-23.2 32.95 -22.3 36.55 -10.1 38.5 2.0 39.0 L9.35 39.15 8.2 34.25 2.0 33.95 Q-8.05 33.15 -18.1 30.3 L-16.75 29.2 -16.55 28.3 -19.75 27.9 M-20.75 27.5 L-20.75 27.4 -20.9 27.4 -20.75 27.5 M7.95 -42.85 L9.2 -42.85 11.75 -42.8 40.15 -40.9 Q40.0 -5.85 41.9 26.7 L41.95 27.2 Q50.0 39.3 36.8 41.45 L11.65 42.85 9.65 42.85 8.05 42.85 -17.1 41.45 Q-30.3 39.3 -22.25 27.2 L-22.2 26.7 -21.85 20.6 Q-30.95 21.05 -40.55 8.8 -49.15 -19.65 -40.9 -31.65 -34.55 -35.5 -20.45 -32.1 L-20.45 -40.9 7.95 -42.85 M19.85 27.65 L19.85 27.55 18.5 27.65 19.85 27.65 M18.7 38.95 L24.25 38.6 41.6 36.55 Q41.65 32.55 39.0 29.8 31.65 32.05 24.25 33.15 L15.3 34.1 18.7 38.95 M-43.65 -17.8 L-43.25 -11.85 -42.75 -14.2 -42.15 -17.2 -40.0 -23.85 Q-38.65 -26.95 -36.0 -28.95 -32.45 -31.6 -27.8 -30.95 L-24.7 -30.9 -21.5 -30.2 -19.5 -30.2 -19.5 -30.45 Q-20.6 -31.7 -24.55 -32.35 L-31.55 -32.95 Q-36.95 -32.95 -40.4 -28.35 -43.65 -24.0 -43.65 -17.8 M-23.65 13.8 L-23.8 15.4 -24.05 17.55 -25.25 17.9 -26.75 17.65 -27.25 17.65 Q-26.85 18.5 -25.35 18.95 L-22.75 19.55 -20.65 19.55 -20.65 19.05 Q-22.3 13.85 -22.9 12.8 L-23.5 12.8 -23.6 13.4 -23.65 13.8 M-20.6 -15.45 L-20.5 -24.5 -21.35 -24.7 Q-29.75 -26.4 -33.65 -24.0 -34.6 -22.6 -35.2 -20.9 -37.7 -14.3 -35.25 -2.85 L-33.45 4.05 Q-30.05 8.4 -26.75 10.45 -24.1 12.1 -21.45 12.25 L-20.75 -8.65 -20.6 -15.45 M-7.2 39.4 L-6.6 39.45 -6.9 39.4 -7.2 39.4" fill="url(#gradient0)" fill-rule="evenodd" stroke="none"/>
      <path d="M37.9 -39.75 L38.55 -39.0 Q39.1 -37.95 39.1 -36.5 L38.85 -34.7 Q38.55 -34.2 37.45 -34.2 36.5 -34.2 33.85 -35.4 L30.1 -37.1 21.5 -39.95 Q21.7 -41.35 28.05 -41.35 L36.6 -40.2 36.7 -40.2 37.35 -40.05 37.9 -39.75" fill="url(#gradient1)" fill-rule="evenodd" stroke="none"/>
      <path d="M-20.3 27.7 L-20.4 27.2 -20.4 25.45 -20.0 14.45 -19.5 5.7 -19.3 2.6 -19.3 0.55 -18.25 1.8 -14.75 2.15 -14.65 2.15 Q-9.45 1.95 -3.0 -0.55 4.95 -3.55 16.35 -10.45 L22.05 -14.5 27.25 -18.45 35.35 -24.45 38.1 -26.9 39.5 -28.45 39.75 -28.45 39.75 -25.45 39.05 -22.3 39.0 -18.9 39.25 -7.15 39.1 -0.1 Q38.55 -4.05 38.05 -4.8 37.2 -6.2 34.2 -6.2 30.8 -6.2 21.35 -1.95 11.9 2.2 10.05 3.1 2.25 6.85 -3.4 10.65 -10.8 15.65 -14.65 19.25 L-16.8 21.6 -18.5 24.45 -18.7 25.05 -18.75 25.05 -18.7 25.1 -18.9 25.5 -19.75 27.9 -20.3 27.7" fill="url(#gradient2)" fill-rule="evenodd" stroke="none"/>
      <path d="M-18.1 30.3 Q-8.05 33.15 2.0 33.95 L8.2 34.25 9.35 39.15 2.0 39.0 Q-10.1 38.5 -22.3 36.55 -23.2 32.95 -20.75 30.45 L-20.35 34.35 -20.15 35.55 -18.65 30.8 -18.1 30.3" fill="url(#gradient3)" fill-rule="evenodd" stroke="none"/>
      <path d="M-19.75 27.9 L-16.55 28.3 -16.75 29.2 -18.1 30.3 -18.65 30.8 -20.15 35.55 -20.35 34.35 -20.75 30.45 -20.75 27.5 -20.3 27.7 -20.05 27.9 -19.75 27.9" fill="url(#gradient4)" fill-rule="evenodd" stroke="none"/>
      <path d="M-20.3 27.7 L-19.75 27.9 -20.05 27.9 -20.3 27.7" fill="url(#gradient5)" fill-rule="evenodd" stroke="none"/>
      <path d="M18.7 38.95 L15.3 34.1 24.25 33.15 Q31.65 32.05 39.0 29.8 41.65 32.55 41.6 36.55 L24.25 38.6 18.7 38.95" fill="url(#gradient6)" fill-rule="evenodd" stroke="none"/>
      <path d="M-43.65 -17.8 Q-43.65 -24.0 -40.4 -28.35 -36.95 -32.95 -31.55 -32.95 L-24.55 -32.35 Q-20.6 -31.7 -19.5 -30.45 L-19.5 -30.2 -21.5 -30.2 -24.7 -30.9 -27.8 -30.95 Q-32.45 -31.6 -36.0 -28.95 -38.65 -26.95 -40.0 -23.85 L-42.15 -17.2 -42.75 -14.2 -43.25 -11.85 -43.65 -17.8" fill="url(#gradient7)" fill-rule="evenodd" stroke="none"/>
      <path d="M-23.65 13.8 L-23.6 13.4 -23.5 12.8 -22.9 12.8 Q-22.3 13.85 -20.65 19.05 L-20.65 19.55 -22.75 19.55 -25.35 18.95 Q-26.85 18.5 -27.25 17.65 L-26.75 17.65 -25.25 17.9 -24.05 17.55 Q-23.7 17.2 -23.65 16.6 L-23.65 13.8" fill="url(#gradient8)" fill-rule="evenodd" stroke="none"/>
    </g>
    <linearGradient gradientTransform="matrix(0.0549, 0.0, 0.0, 0.0523, 0.0, 0.0)" gradientUnits="userSpaceOnUse" id="gradient0" spreadMethod="pad" x1="-819.2" x2="819.2">
      <stop offset="0.0" stop-color="#000000" stop-opacity="0.7921569"/>
      <stop offset="1.0" stop-color="#ffffff" stop-opacity="0.8"/>
    </linearGradient>
    <linearGradient gradientTransform="matrix(0.0107, 0.0, 0.0, 0.0044, 30.3, -37.8)" gradientUnits="userSpaceOnUse" id="gradient1" spreadMethod="pad" x1="-819.2" x2="819.2">
      <stop offset="0.0" stop-color="#000000" stop-opacity="0.7921569"/>
      <stop offset="1.0" stop-color="#ffffff" stop-opacity="0.8"/>
    </linearGradient>
    <linearGradient gradientTransform="matrix(0.0367, 0.0, 0.0, 0.0344, 9.65, -0.3)" gradientUnits="userSpaceOnUse" id="gradient2" spreadMethod="pad" x1="-819.2" x2="819.2">
      <stop offset="0.0" stop-color="#000000" stop-opacity="0.7921569"/>
      <stop offset="1.0" stop-color="#ffffff" stop-opacity="0.8"/>
    </linearGradient>
    <linearGradient gradientTransform="matrix(0.0195, 0.0, 0.0, 0.0054, -6.6, 34.7)" gradientUnits="userSpaceOnUse" id="gradient3" spreadMethod="pad" x1="-819.2" x2="819.2">
      <stop offset="0.0" stop-color="#000000" stop-opacity="0.7921569"/>
      <stop offset="1.0" stop-color="#ffffff" stop-opacity="0.8"/>
    </linearGradient>
    <linearGradient gradientTransform="matrix(0.0026, 0.0, 0.0, 0.0049, -18.65, 31.5)" gradientUnits="userSpaceOnUse" id="gradient4" spreadMethod="pad" x1="-819.2" x2="819.2">
      <stop offset="0.0" stop-color="#000000" stop-opacity="0.7921569"/>
      <stop offset="1.0" stop-color="#ffffff" stop-opacity="0.8"/>
    </linearGradient>
    <linearGradient gradientTransform="matrix(3.0E-4, 0.0, 0.0, 1.0E-4, -20.05, 27.8)" gradientUnits="userSpaceOnUse" id="gradient5" spreadMethod="pad" x1="-819.2" x2="819.2">
      <stop offset="0.0" stop-color="#000000" stop-opacity="0.7921569"/>
      <stop offset="1.0" stop-color="#ffffff" stop-opacity="0.8"/>
    </linearGradient>
    <linearGradient gradientTransform="matrix(0.0161, 0.0, 0.0, 0.0056, 28.45, 34.35)" gradientUnits="userSpaceOnUse" id="gradient6" spreadMethod="pad" x1="-819.2" x2="819.2">
      <stop offset="0.0" stop-color="#000000" stop-opacity="0.7921569"/>
      <stop offset="1.0" stop-color="#ffffff" stop-opacity="0.8"/>
    </linearGradient>
    <linearGradient gradientTransform="matrix(0.0147, 0.0, 0.0, 0.0129, -31.6, -22.4)" gradientUnits="userSpaceOnUse" id="gradient7" spreadMethod="pad" x1="-819.2" x2="819.2">
      <stop offset="0.0" stop-color="#000000" stop-opacity="0.7921569"/>
      <stop offset="1.0" stop-color="#ffffff" stop-opacity="0.8"/>
    </linearGradient>
    <linearGradient gradientTransform="matrix(0.004, 0.0, 0.0, 0.0041, -23.95, 16.15)" gradientUnits="userSpaceOnUse" id="gradient8" spreadMethod="pad" x1="-819.2" x2="819.2">
      <stop offset="0.0" stop-color="#000000" stop-opacity="0.7921569"/>
      <stop offset="1.0" stop-color="#ffffff" stop-opacity="0.8"/>
    </linearGradient>
    <g id="shape2" transform="matrix(1.0, 0.0, 0.0, 1.0, 29.25, 36.6)">
      <path d="M-28.05 -23.5 L-27.8 -34.8 Q1.2 -38.5 28.3 -34.55 L28.5 -22.35 Q-6.35 -17.85 -28.05 -23.5" fill="#ffffff" fill-opacity="0.9019608" fill-rule="evenodd" stroke="none"/>
      <path d="M28.5 -22.35 L29.3 32.35 Q0.3 40.85 -29.25 32.35 L-28.05 -23.5 Q-6.35 -17.85 28.5 -22.35" fill="url(#gradient9)" fill-rule="evenodd" stroke="none"/>
    </g>
    <linearGradient gradientTransform="matrix(0.0357, 1.0E-4, -1.0E-4, 0.0367, 0.1, 6.6)" gradientUnits="userSpaceOnUse" id="gradient9" spreadMethod="pad" x1="-819.2" x2="819.2">
      <stop offset="0.0" stop-color="#fff1bd" stop-opacity="0.8"/>
      <stop offset="0.5058823529411764" stop-color="#ffffff" stop-opacity="0.8"/>
      <stop offset="1.0" stop-color="#fffac4" stop-opacity="0.8"/>
    </linearGradient>
    <g id="shape3" transform="matrix(1.0, 0.0, 0.0, 1.0, 56.8, 58.4)">
      <path d="M43.05 -4.9 L46.3 -4.55 46.35 -4.55 Q51.15 -4.75 57.05 -7.05 64.35 -9.8 74.8 -16.1 76.45 -17.1 80.0 -19.85 L84.8 -23.45 92.2 -28.95 94.7 -31.2 96.0 -32.6 96.25 -32.6 96.25 -29.85 95.6 -27.0 95.55 -23.85 95.8 -13.1 95.65 -6.65 Q95.15 -10.25 94.7 -10.95 93.9 -12.25 91.15 -12.25 88.05 -12.25 79.35 -8.35 L69.0 -3.7 Q61.85 -0.25 56.7 3.2 49.9 7.8 46.35 11.1 45.4 12.0 44.4 13.25 L43.05 10.55 42.85 15.85 42.65 16.4 42.6 16.4 42.65 16.45 42.45 16.85 41.7 19.05 41.2 18.85 41.1 18.4 41.1 16.8 Q41.1 13.25 41.45 6.7 L41.9 -1.3 42.1 -4.15 42.1 -6.05 Q42.45 -5.15 43.05 -4.9" fill="#ffffff" fill-opacity="0.8" fill-rule="evenodd" stroke="none"/>
      <path d="M31.15 -28.45 L24.3 -29.1 23.2 -29.15 23.2 -29.0 19.35 -29.15 20.25 -29.7 20.3 -29.7 Q20.1 -30.2 20.15 -31.1 20.15 -32.55 20.45 -33.65 L20.7 -34.55 20.35 -34.65 16.4 -34.75 Q15.3 -34.45 14.75 -33.8 14.2 -33.35 13.8 -32.5 13.3 -31.55 12.9 -30.1 L12.1 -28.8 Q11.95 -28.6 -0.85 -28.45 L-5.4 -28.4 -7.9 -28.35 -8.95 -28.4 -9.0 -28.4 -10.4 -28.25 -16.35 -27.6 -16.4 -27.8 -16.5 -28.5 Q-16.5 -29.4 -13.95 -29.6 L-12.05 -29.7 -11.35 -29.75 -12.1 -30.1 -13.5 -30.7 -16.25 -31.25 -18.8 -31.95 Q-17.3 -32.85 -13.0 -31.95 L-12.2 -31.75 -11.0 -31.4 -11.05 -31.7 -11.05 -35.5 -10.95 -41.05 Q-10.7 -43.55 -9.9 -44.85 L-9.25 -45.7 -9.25 -44.45 -9.3 -37.15 Q-9.3 -33.25 -8.95 -30.3 L-8.7 -29.95 -6.4 -30.2 -0.85 -30.3 11.1 -30.65 11.55 -31.45 12.2 -32.8 Q12.75 -34.75 14.65 -35.55 16.5 -36.4 18.25 -36.2 L20.55 -36.25 21.0 -36.15 Q21.85 -35.85 22.0 -34.95 L22.15 -34.25 22.05 -34.1 21.9 -33.1 21.85 -32.6 21.8 -31.6 21.85 -30.95 21.9 -30.45 Q21.9 -30.2 22.05 -30.1 L22.45 -30.1 22.5 -30.1 22.5 -30.05 23.1 -30.05 23.2 -30.05 23.2 -30.0 24.3 -30.0 25.45 -30.0 29.85 -29.65 30.8 -29.55 33.15 -29.15 35.0 -28.4 35.2 -28.35 36.2 -27.5 36.5 -27.15 36.95 -26.45 Q37.6 -25.2 37.6 -22.8 L37.35 -20.4 36.9 -19.35 38.1 -18.65 Q39.1 -18.1 39.75 -16.75 L40.45 -15.05 Q40.8 -13.75 40.8 -11.85 40.8 -8.95 39.35 -7.3 L38.45 -6.45 38.1 -6.25 37.85 -6.1 36.45 -5.55 36.5 -5.45 36.9 -4.95 37.55 -2.85 37.55 -2.55 37.6 -2.4 37.75 -1.15 Q37.75 0.9 36.7 2.95 35.8 4.65 34.8 5.1 L34.45 5.4 34.25 5.5 33.45 5.75 33.3 5.8 32.45 6.1 29.55 6.65 Q28.3 6.85 27.65 7.15 L27.25 7.35 27.2 7.35 26.8 7.6 23.15 8.45 18.85 9.25 10.6 10.5 -6.5 11.3 Q-16.75 11.15 -31.8 8.25 -35.35 7.3 -38.55 5.75 -40.9 4.6 -43.05 3.15 -45.6 0.65 -47.8 -3.7 -50.7 -9.4 -52.25 -15.95 -56.0 -32.15 -56.45 -39.85 -56.9 -47.15 -56.8 -49.5 -56.55 -54.85 -54.65 -58.4 L-54.35 -58.1 -54.25 -57.75 -54.2 -57.35 -54.5 -51.8 -54.75 -46.15 Q-53.7 -28.7 -50.5 -16.7 -47.55 -5.65 -43.05 -0.15 L-41.25 1.35 -41.1 1.45 Q-36.7 4.6 -31.8 6.3 L-22.0 8.35 -0.4 9.6 17.5 8.15 25.75 6.6 26.5 6.3 28.3 5.7 30.05 5.3 32.6 4.85 33.1 4.7 33.3 4.65 33.95 4.3 34.8 3.65 35.05 3.3 35.85 1.6 35.95 1.35 36.0 1.3 36.35 -1.3 36.05 -3.5 35.55 -4.55 35.1 -5.0 35.0 -5.05 34.7 -5.15 34.5 -5.15 34.2 -5.15 33.45 -5.1 33.5 -5.15 33.25 -5.15 33.45 -5.45 35.0 -6.35 35.15 -6.4 35.75 -6.6 36.9 -7.0 38.25 -8.25 39.2 -9.75 39.5 -10.75 39.6 -11.25 39.65 -11.5 39.45 -13.05 39.0 -14.75 Q38.4 -16.25 37.8 -16.8 36.9 -17.65 35.5 -17.5 L34.5 -17.5 34.05 -17.5 34.0 -17.6 33.9 -17.6 Q33.4 -17.6 33.4 -17.95 L33.95 -18.45 34.1 -18.5 35.0 -18.8 35.6 -19.15 35.9 -19.75 36.2 -20.8 36.35 -22.85 Q36.35 -24.7 35.95 -25.95 L35.4 -26.9 Q34.25 -27.9 31.15 -28.45" fill="#000000" fill-rule="evenodd" stroke="none"/>
      <path d="M-12.05 -29.7 L-13.95 -29.6 Q-16.5 -29.4 -16.5 -28.5 L-16.4 -27.8 -16.35 -27.6 -10.4 -28.25 -9.0 -28.4 -8.95 -28.4 -7.9 -28.35 -5.4 -28.4 -0.85 -28.45 Q11.95 -28.6 12.1 -28.8 L12.9 -30.1 Q13.3 -31.55 13.8 -32.5 14.2 -33.35 14.75 -33.8 15.3 -34.45 16.4 -34.75 L20.35 -34.65 20.7 -34.55 20.45 -33.65 Q20.15 -32.55 20.15 -31.1 20.1 -30.2 20.3 -29.7 L20.25 -29.7 19.35 -29.15 23.2 -29.0 23.2 -29.15 24.3 -29.1 31.15 -28.45 32.35 -26.0 33.5 -20.5 34.1 -18.5 33.95 -18.45 33.4 -17.95 Q33.4 -17.6 33.9 -17.6 L34.0 -17.6 34.05 -17.5 34.5 -17.5 35.65 -15.55 Q37.0 -13.65 37.0 -10.75 37.0 -9.2 35.75 -6.6 L35.15 -6.4 35.0 -6.35 33.45 -5.45 33.25 -5.15 33.5 -5.15 33.45 -5.1 34.2 -5.15 34.5 -5.15 34.7 -5.15 35.0 -5.05 35.1 -5.0 Q34.7 -3.55 35.0 -2.25 35.4 -0.4 34.45 2.6 L33.95 4.3 33.3 4.65 33.1 4.7 32.6 4.85 30.05 5.3 28.3 5.7 26.5 6.3 25.75 6.6 17.5 8.15 -0.4 9.6 -22.0 8.35 -31.8 6.3 Q-36.7 4.6 -41.1 1.45 L-41.25 1.35 Q-47.4 -9.45 -50.15 -21.95 -52.75 -33.85 -52.75 -55.0 L-52.65 -57.85 Q-41.3 -58.2 -31.3 -55.0 -20.65 -51.6 -16.0 -48.65 L-12.15 -46.2 -12.5 -37.25 -12.2 -31.75 -13.0 -31.95 Q-17.3 -32.85 -18.8 -31.95 L-16.25 -31.25 -13.5 -30.7 -12.1 -30.1 -12.05 -29.7" fill="#999999" fill-rule="evenodd" stroke="none"/>
      <path d="M31.15 -28.45 Q34.25 -27.9 35.4 -26.9 L35.95 -25.95 Q36.35 -24.7 36.35 -22.85 L36.2 -20.8 35.9 -19.75 35.6 -19.15 35.0 -18.8 34.1 -18.5 33.5 -20.5 32.35 -26.0 31.15 -28.45 M34.5 -17.5 L35.5 -17.5 Q36.9 -17.65 37.8 -16.8 38.4 -16.25 39.0 -14.75 L39.45 -13.05 39.65 -11.5 39.6 -11.25 39.5 -10.75 39.2 -9.75 38.25 -8.25 36.9 -7.0 35.75 -6.6 Q37.0 -9.2 37.0 -10.75 37.0 -13.65 35.65 -15.55 L34.5 -17.5 M35.1 -5.0 L35.55 -4.55 36.05 -3.5 36.35 -1.3 36.0 1.3 35.95 1.35 35.85 1.6 35.05 3.3 34.8 3.65 33.95 4.3 34.45 2.6 Q35.4 -0.4 35.0 -2.25 34.7 -3.55 35.1 -5.0 M-41.25 1.35 L-43.05 -0.15 Q-47.55 -5.65 -50.5 -16.7 -53.7 -28.7 -54.75 -46.15 L-54.5 -51.8 -54.2 -57.35 -54.25 -57.75 -52.65 -57.85 -52.75 -55.0 Q-52.75 -33.85 -50.15 -21.95 -47.4 -9.45 -41.25 1.35 M-9.9 -44.85 Q-10.7 -43.55 -10.95 -41.05 L-11.05 -35.5 -11.05 -31.7 -11.0 -31.4 -12.2 -31.75 -12.5 -37.25 -12.15 -46.2 -9.9 -44.85" fill="#bdbdbd" fill-rule="evenodd" stroke="none"/>
    </g>
  </defs>
</svg>
