<?xml version="1.0" encoding="UTF-8" standalone="no"?>
<svg xmlns:xlink="http://www.w3.org/1999/xlink" height="531.5px" width="460.6px" xmlns="http://www.w3.org/2000/svg">
  <g transform="matrix(1.0, 0.0, 0.0, 1.0, 193.65, 334.05)">
    <use height="23.2" transform="matrix(1.9412, 0.0, 0.0, 1.9412, -59.4557, -149.8675)" width="21.9" xlink:href="#sprite0"/>
  </g>
  <defs>
    <g id="sprite0" transform="matrix(1.0, 0.0, 0.0, 1.0, 10.95, 11.6)">
      <use height="23.2" transform="matrix(1.0, 0.0, 0.0, 1.0, -10.95, -11.6)" width="21.9" xlink:href="#shape0"/>
      <use height="22.2" transform="matrix(1.0, 0.0, 0.0, 1.0, -10.45, -11.1)" width="20.9" xlink:href="#sprite1"/>
    </g>
    <g id="shape0" transform="matrix(1.0, 0.0, 0.0, 1.0, 10.95, 11.6)">
      <path d="M5.45 -5.35 L7.45 -7.0 8.45 -7.8 6.35 -4.85 5.45 -5.35 M3.55 -3.7 L4.85 -2.95 1.8 0.55 0.65 -0.85 0.95 -1.2 3.55 -3.7 M0.15 2.25 L-2.5 4.85 -3.8 3.9 -1.0 0.9 0.15 2.25 M-4.3 6.5 Q-7.3 9.05 -10.45 11.1 L-9.85 10.15 -5.45 5.6 -4.3 6.5" fill="#a60000" fill-rule="evenodd" stroke="none"/>
      <path d="M8.45 -7.8 L7.45 -7.0 5.45 -5.35 4.2 -6.05 Q7.25 -8.75 10.45 -11.1 L8.45 -7.8 M3.55 -3.7 L0.95 -1.2 0.65 -0.85 -0.15 -1.9 2.35 -4.4 3.55 -3.7 M-9.85 10.15 L-6.25 5.05 -5.45 5.6 -9.85 10.15 M-4.75 3.2 L-1.85 -0.2 -1.0 0.9 -3.8 3.9 -4.75 3.2" fill="#d10000" fill-rule="evenodd" stroke="none"/>
      <path d="M5.45 -5.35 L6.35 -4.85 8.0 -3.9 6.8 -1.85 4.85 -2.95 3.55 -3.7 2.35 -4.4 0.95 -5.2 2.15 -7.25 4.2 -6.05 5.45 -5.35 M0.65 -0.85 L1.8 0.55 3.05 2.1 1.2 3.6 0.15 2.25 -1.0 0.9 -1.85 -0.2 -3.0 -1.65 -1.15 -3.15 -0.15 -1.9 0.65 -0.85 M-2.5 4.85 L-1.1 5.9 -2.5 7.8 -4.3 6.5 -5.45 5.6 -6.25 5.05 -7.9 3.8 -6.5 1.9 -4.75 3.2 -3.8 3.9 -2.5 4.85" fill="#ebebeb" fill-rule="evenodd" stroke="none"/>
      <path d="M5.45 -5.35 L6.35 -4.85 8.45 -7.8 10.45 -11.1 Q7.25 -8.75 4.2 -6.05 L5.45 -5.35 M4.85 -2.95 L3.55 -3.7 2.35 -4.4 -0.15 -1.9 0.65 -0.85 1.8 0.55 4.85 -2.95 6.8 -1.85 8.0 -3.9 6.35 -4.85 M2.35 -4.4 L0.95 -5.2 2.15 -7.25 4.2 -6.05 M1.8 0.55 L3.05 2.1 1.2 3.6 0.15 2.25 -2.5 4.85 -1.1 5.9 -2.5 7.8 -4.3 6.5 Q-7.3 9.05 -10.45 11.1 L-9.85 10.15 -6.25 5.05 -7.9 3.8 -6.5 1.9 -4.75 3.2 -1.85 -0.2 -3.0 -1.65 -1.15 -3.15 -0.15 -1.9 M-1.0 0.9 L-1.85 -0.2 M-3.8 3.9 L-2.5 4.85 M-4.75 3.2 L-3.8 3.9 M-5.45 5.6 L-6.25 5.05 M-4.3 6.5 L-5.45 5.6 M0.15 2.25 L-1.0 0.9" fill="none" stroke="#000000" stroke-linecap="round" stroke-linejoin="round" stroke-opacity="0.6627451" stroke-width="1.0"/>
    </g>
    <g id="sprite1" transform="matrix(1.0, 0.0, 0.0, 1.0, 10.45, 11.1)">
      <use height="22.2" transform="matrix(1.0, 0.0, 0.0, 1.0, -10.45, -11.1)" width="20.9" xlink:href="#shape1"/>
    </g>
    <g id="shape1" transform="matrix(1.0, 0.0, 0.0, 1.0, 10.45, 11.1)">
      <path d="M6.35 -4.85 L4.2 -6.05 Q7.25 -8.75 10.45 -11.1 L8.45 -7.8 6.35 -4.85" fill="url(#gradient0)" fill-rule="evenodd" stroke="none"/>
      <path d="M4.85 -2.95 L2.35 -4.4 0.95 -5.2 2.15 -7.25 4.2 -6.05 6.35 -4.85 8.0 -3.9 6.8 -1.85 4.85 -2.95" fill="url(#gradient1)" fill-rule="evenodd" stroke="none"/>
      <path d="M2.35 -4.4 L4.85 -2.95 1.8 0.55 -0.15 -1.9 2.35 -4.4" fill="url(#gradient2)" fill-rule="evenodd" stroke="none"/>
      <path d="M-0.15 -1.9 L1.8 0.55 3.05 2.1 1.2 3.6 0.15 2.25 -1.85 -0.2 -3.0 -1.65 -1.15 -3.15 -0.15 -1.9" fill="url(#gradient3)" fill-rule="evenodd" stroke="none"/>
      <path d="M0.15 2.25 L-2.5 4.85 -4.75 3.2 -1.85 -0.2 0.15 2.25" fill="url(#gradient4)" fill-rule="evenodd" stroke="none"/>
      <path d="M-2.5 4.85 L-1.1 5.9 -2.5 7.8 -4.3 6.5 -6.25 5.05 -7.9 3.8 -6.5 1.9 -4.75 3.2 -2.5 4.85" fill="url(#gradient5)" fill-rule="evenodd" stroke="none"/>
      <path d="M-4.3 6.5 Q-7.3 9.05 -10.45 11.1 L-9.85 10.15 -6.25 5.05 -4.3 6.5" fill="url(#gradient6)" fill-rule="evenodd" stroke="none"/>
    </g>
    <linearGradient gradientTransform="matrix(0.0019, -0.0071, 0.0037, 0.001, 7.3, -8.0)" gradientUnits="userSpaceOnUse" id="gradient0" spreadMethod="pad" x1="-819.2" x2="819.2">
      <stop offset="0.0" stop-color="#000000"/>
      <stop offset="1.0" stop-color="#ffffff"/>
    </linearGradient>
    <linearGradient gradientTransform="matrix(-0.0017, -0.0062, 0.0032, -9.0E-4, 4.45, -4.55)" gradientUnits="userSpaceOnUse" id="gradient1" spreadMethod="pad" x1="-819.2" x2="819.2">
      <stop offset="0.0" stop-color="#000000"/>
      <stop offset="1.0" stop-color="#ffffff"/>
    </linearGradient>
    <linearGradient gradientTransform="matrix(0.0, -0.0062, 0.003, 0.0, 2.3, -1.9)" gradientUnits="userSpaceOnUse" id="gradient2" spreadMethod="pad" x1="-819.2" x2="819.2">
      <stop offset="0.0" stop-color="#000000"/>
      <stop offset="1.0" stop-color="#ffffff"/>
    </linearGradient>
    <linearGradient gradientTransform="matrix(0.0025, -0.0044, 0.0036, 0.0021, 0.0, 0.2)" gradientUnits="userSpaceOnUse" id="gradient3" spreadMethod="pad" x1="-819.2" x2="819.2">
      <stop offset="0.0" stop-color="#000000"/>
      <stop offset="1.0" stop-color="#ffffff"/>
    </linearGradient>
    <linearGradient gradientTransform="matrix(0.0014, -0.0054, 0.003, 8.0E-4, -2.3, 2.3)" gradientUnits="userSpaceOnUse" id="gradient4" spreadMethod="pad" x1="-819.2" x2="819.2">
      <stop offset="0.0" stop-color="#000000"/>
      <stop offset="1.0" stop-color="#ffffff"/>
    </linearGradient>
    <linearGradient gradientTransform="matrix(0.0015, -0.0056, 0.0035, 9.0E-4, -4.5, 4.85)" gradientUnits="userSpaceOnUse" id="gradient5" spreadMethod="pad" x1="-819.2" x2="819.2">
      <stop offset="0.0" stop-color="#000000"/>
      <stop offset="1.0" stop-color="#ffffff"/>
    </linearGradient>
    <linearGradient gradientTransform="matrix(0.0034, -0.0058, 0.0032, 0.0018, -7.45, 8.1)" gradientUnits="userSpaceOnUse" id="gradient6" spreadMethod="pad" x1="-819.2" x2="819.2">
      <stop offset="0.0" stop-color="#000000"/>
      <stop offset="1.0" stop-color="#ffffff"/>
    </linearGradient>
  </defs>
</svg>
