<?xml version="1.0" encoding="UTF-8" standalone="no"?>
<svg xmlns:xlink="http://www.w3.org/1999/xlink" height="531.5px" width="460.6px" xmlns="http://www.w3.org/2000/svg">
  <g transform="matrix(1.0, 0.0, 0.0, 1.0, 193.65, 334.05)">
    <use height="49.15" transform="matrix(1.9412, 0.0, 0.0, 1.9412, -61.6966, -170.6055)" width="61.35" xlink:href="#sprite0"/>
  </g>
  <defs>
    <g id="sprite0" transform="matrix(1.0, 0.0, 0.0, 1.0, 30.65, 24.55)">
      <use height="49.15" transform="matrix(1.0, 0.0, 0.0, 1.0, -30.65, -24.55)" width="61.35" xlink:href="#shape0"/>
      <use height="48.15" transform="matrix(1.0, 0.0, 0.0, 1.0, -30.15, -24.05)" width="60.35" xlink:href="#sprite1"/>
    </g>
    <g id="shape0" transform="matrix(1.0, 0.0, 0.0, 1.0, 30.65, 24.55)">
      <path d="M1.5 -21.15 Q2.85 -22.25 4.55 -23.05 10.15 -25.0 15.95 -23.05 L18.65 -20.65 Q20.35 -18.75 21.4 -16.55 18.7 -14.8 17.6 -14.45 L15.05 -14.25 Q11.9 -14.25 9.75 -15.15 L6.35 -17.05 3.15 -19.45 Q2.15 -20.25 1.5 -21.15" fill="#eff3f5" fill-rule="evenodd" stroke="none"/>
      <path d="M21.4 -16.55 L22.0 -15.0 19.25 -14.7 Q16.45 -12.1 11.9 -11.65 6.4 -12.2 3.15 -14.7 1.7 -16.1 -0.9 -16.35 L-2.4 -16.25 Q-1.25 -18.8 0.9 -20.65 L1.5 -21.15 Q2.15 -20.25 3.15 -19.45 L6.35 -17.05 9.75 -15.15 Q11.9 -14.25 15.05 -14.25 L17.6 -14.45 Q18.7 -14.8 21.4 -16.55" fill="#d6dadb" fill-rule="evenodd" stroke="none"/>
      <path d="M-0.8 -9.25 L0.95 -9.2 Q2.35 -8.9 3.3 -7.9 L4.2 -6.5 Q2.5 -7.15 0.95 -8.05 L-0.8 -9.25 M19.5 -5.1 L19.0 -5.4 Q18.35 -5.9 18.35 -6.95 18.35 -7.95 19.0 -8.8 19.6 -9.8 20.4 -10.05 21.25 -10.35 21.9 -9.8 22.5 -9.3 22.5 -8.3 22.5 -7.25 21.9 -6.4 L21.7 -6.1 20.4 -5.15 19.5 -5.1" fill="#28374a" fill-rule="evenodd" stroke="none"/>
      <path d="M4.2 -6.5 L4.3 -5.85 Q4.3 -4.8 3.3 -4.3 L0.95 -4.1 Q-0.45 -4.45 -1.45 -5.45 -2.4 -6.4 -2.4 -7.45 -2.4 -8.5 -1.45 -9.05 L-0.8 -9.25 0.95 -8.05 Q2.5 -7.15 4.2 -6.5" fill="#161d29" fill-rule="evenodd" stroke="none"/>
      <path d="M22.5 -4.65 Q20.7 -3.25 17.7 -1.4 L15.4 -0.35 Q10.25 1.6 4.4 0.15 2.15 -0.4 -0.15 -1.4 L-5.0 -4.45 Q-4.6 -8.95 -6.45 -13.1 L-7.75 -13.35 -7.35 -14.05 Q-6.75 -14.8 -5.85 -15.3 -3.95 -11.7 -0.8 -9.25 L-1.45 -9.05 Q-2.4 -8.5 -2.4 -7.45 -2.4 -6.4 -1.45 -5.45 -0.45 -4.45 0.95 -4.1 L3.3 -4.3 Q4.3 -4.8 4.3 -5.85 L4.2 -6.5 Q8.65 -4.85 14.35 -4.85 L18.3 -4.9 19.5 -5.1 20.4 -5.15 21.7 -6.1 22.15 -6.45 24.9 -8.8 24.95 -8.85 25.0 -7.55 24.5 -6.6 22.5 -4.65" fill="#2d3d54" fill-rule="evenodd" stroke="none"/>
      <path d="M22.0 -15.0 L23.1 -14.45 23.25 -14.25 24.45 -11.6 24.95 -8.85 24.9 -8.8 22.15 -6.45 21.7 -6.1 21.9 -6.4 Q22.5 -7.25 22.5 -8.3 22.5 -9.3 21.9 -9.8 21.25 -10.35 20.4 -10.05 19.6 -9.8 19.0 -8.8 18.35 -7.95 18.35 -6.95 18.35 -5.9 19.0 -5.4 L19.5 -5.1 18.3 -4.9 14.35 -4.85 Q8.65 -4.85 4.2 -6.5 L3.3 -7.9 Q2.35 -8.9 0.95 -9.2 L-0.8 -9.25 Q-3.95 -11.7 -5.85 -15.3 -4.5 -16.05 -2.4 -16.25 L-0.9 -16.35 Q1.7 -16.1 3.15 -14.7 6.4 -12.2 11.9 -11.65 16.45 -12.1 19.25 -14.7 L22.0 -15.0" fill="#435d7d" fill-rule="evenodd" stroke="none"/>
      <path d="M23.1 -14.45 L25.1 -14.25 25.3 -13.8 Q26.0 -12.0 26.3 -10.25 26.65 -7.8 26.1 -5.35 L26.0 -5.0 22.5 -4.65 24.5 -6.6 25.0 -7.55 24.95 -8.85 24.45 -11.6 23.25 -14.25 23.1 -14.45 M-5.0 -4.45 L-5.05 -3.95 Q-9.75 -2.55 -13.65 -3.55 L-13.65 -3.6 Q-14.75 -7.65 -13.8 -12.0 L-13.65 -12.6 Q-10.7 -13.75 -7.75 -13.35 L-6.45 -13.1 Q-4.6 -8.95 -5.0 -4.45" fill="#acb5aa" fill-rule="evenodd" stroke="none"/>
      <path d="M25.3 -13.8 L29.0 -13.7 Q30.85 -9.5 29.8 -5.65 L26.1 -5.35 Q26.65 -7.8 26.3 -10.25 26.0 -12.0 25.3 -13.8 M-13.65 -3.6 Q-21.35 -1.9 -28.9 -1.85 -31.1 -5.85 -29.4 -9.65 -22.0 -12.0 -13.8 -12.0 -14.75 -7.65 -13.65 -3.6" fill="#784b32" fill-rule="evenodd" stroke="none"/>
      <path d="M24.25 12.1 L24.4 16.45 24.35 18.0 21.9 18.55 16.9 19.3 18.75 18.15 Q21.9 16.15 24.25 12.1 M-0.2 6.1 L0.2 4.65 6.35 5.4 11.85 5.55 17.75 5.15 18.05 5.1 Q15.4 8.05 11.9 10.65 9.0 12.75 6.3 14.0 L4.1 14.0 Q3.0 12.75 2.05 11.15 0.4 8.5 -0.2 6.1 M4.1 14.0 L6.3 14.0 4.7 14.7 4.1 14.0" fill="#514063" fill-rule="evenodd" stroke="none"/>
      <path d="M15.5 1.05 L20.85 1.5 18.05 5.1 17.75 5.15 11.85 5.55 6.35 5.4 0.2 4.65 Q0.7 3.5 1.65 2.7 L4.55 2.0 4.7 4.15 15.7 3.3 15.5 1.05 M24.35 18.0 Q24.05 21.15 22.95 21.9 16.2 24.05 9.3 24.1 L3.4 23.75 Q1.2 22.75 1.0 20.85 L0.25 15.7 Q-0.3 10.9 -0.25 6.2 L-0.2 6.1 Q0.4 8.5 2.05 11.15 3.0 12.75 4.1 14.0 L4.7 14.7 6.55 16.35 Q9.6 18.7 10.55 18.75 L13.6 19.15 15.85 19.35 16.9 19.3 21.9 18.55 24.35 18.0 M18.3 2.8 L15.7 3.3 18.3 2.8 M3.65 4.1 L4.7 4.15 3.65 4.1 M4.1 14.0 L1.85 13.85 4.1 14.0" fill="#382c45" fill-rule="evenodd" stroke="none"/>
      <path d="M20.85 1.5 L21.35 1.8 Q22.7 2.75 23.4 5.45 L24.25 12.1 Q21.9 16.15 18.75 18.15 L16.9 19.3 15.85 19.35 13.6 19.15 10.55 18.75 Q9.6 18.7 6.55 16.35 L4.7 14.7 6.3 14.0 Q9.0 12.75 11.9 10.65 15.4 8.05 18.05 5.1 L20.85 1.5 M22.1 12.05 Q14.3 14.0 6.3 14.0 14.3 14.0 22.1 12.05" fill="#5e4a73" fill-rule="evenodd" stroke="none"/>
      <path d="M15.4 -0.35 L15.5 1.05 15.7 3.3 4.7 4.15 4.55 2.0 4.4 0.15 Q10.25 1.6 15.4 -0.35" fill="#362a42" fill-rule="evenodd" stroke="none"/>
      <path d="M1.5 -21.15 Q2.85 -22.25 4.55 -23.05 10.15 -25.0 15.95 -23.05 L18.65 -20.65 Q20.35 -18.75 21.4 -16.55 L22.0 -15.0 23.1 -14.45 25.1 -14.25 25.3 -13.8 29.0 -13.7 Q30.85 -9.5 29.8 -5.65 L26.1 -5.35 26.0 -5.0 22.5 -4.65 Q20.7 -3.25 17.7 -1.4 L15.4 -0.35 15.5 1.05 20.85 1.5 21.35 1.8 Q22.7 2.75 23.4 5.45 L24.25 12.1 24.4 16.45 24.35 18.0 Q24.05 21.15 22.95 21.9 16.2 24.05 9.3 24.1 L3.4 23.75 Q1.2 22.75 1.0 20.85 L0.25 15.7 Q-0.3 10.9 -0.25 6.2 L-0.2 6.1 0.2 4.65 Q0.7 3.5 1.65 2.7 L4.55 2.0 4.4 0.15 Q2.15 -0.4 -0.15 -1.4 L-5.0 -4.45 -5.05 -3.95 Q-9.75 -2.55 -13.65 -3.55 L-13.65 -3.6 Q-21.35 -1.9 -28.9 -1.85 -31.1 -5.85 -29.4 -9.65 -22.0 -12.0 -13.8 -12.0 L-13.65 -12.6 Q-10.7 -13.75 -7.75 -13.35 L-7.35 -14.05 Q-6.75 -14.8 -5.85 -15.3 -4.5 -16.05 -2.4 -16.25 -1.25 -18.8 0.9 -20.65 L1.5 -21.15 M24.95 -8.85 L24.45 -11.6 23.25 -14.25 23.1 -14.45 M-2.4 -16.25 L-0.9 -16.35 Q1.7 -16.1 3.15 -14.7 6.4 -12.2 11.9 -11.65 16.45 -12.1 19.25 -14.7 L22.0 -15.0 M24.95 -8.85 L25.0 -7.55 24.5 -6.6 22.5 -4.65 M25.3 -13.8 Q26.0 -12.0 26.3 -10.25 26.65 -7.8 26.1 -5.35 M15.7 3.3 L18.3 2.8 M15.5 1.05 L15.7 3.3 4.7 4.15 3.65 4.1 M4.7 4.15 L4.55 2.0 M1.85 13.85 L4.1 14.0 6.3 14.0 Q14.3 14.0 22.1 12.05 M15.4 -0.35 Q10.25 1.6 4.4 0.15 M-7.75 -13.35 L-6.45 -13.1 Q-4.6 -8.95 -5.0 -4.45 M-13.65 -3.6 Q-14.75 -7.65 -13.8 -12.0" fill="none" stroke="#000000" stroke-linecap="round" stroke-linejoin="round" stroke-opacity="0.6627451" stroke-width="1.0"/>
      <path d="M-0.8 -9.25 L0.95 -9.2 Q2.35 -8.9 3.3 -7.9 L4.2 -6.5 4.3 -5.85 Q4.3 -4.8 3.3 -4.3 L0.95 -4.1 Q-0.45 -4.45 -1.45 -5.45 -2.4 -6.4 -2.4 -7.45 -2.4 -8.5 -1.45 -9.05 L-0.8 -9.25 M19.5 -5.1 L19.0 -5.4 Q18.35 -5.9 18.35 -6.95 18.35 -7.95 19.0 -8.8 19.6 -9.8 20.4 -10.05 21.25 -10.35 21.9 -9.8 22.5 -9.3 22.5 -8.3 22.5 -7.25 21.9 -6.4 L21.7 -6.1 20.4 -5.15 19.5 -5.1" fill="none" stroke="#000000" stroke-linecap="round" stroke-linejoin="round" stroke-opacity="0.6627451" stroke-width="0.5"/>
    </g>
    <g id="sprite1" transform="matrix(1.0, 0.0, 0.0, 1.0, 30.15, 24.05)">
      <use height="48.15" transform="matrix(1.0, 0.0, 0.0, 1.0, -30.15, -24.05)" width="60.35" xlink:href="#shape1"/>
    </g>
    <g id="shape1" transform="matrix(1.0, 0.0, 0.0, 1.0, 30.15, 24.05)">
      <path d="M-2.4 -16.25 Q-1.25 -18.8 0.9 -20.65 L1.5 -21.15 Q2.85 -22.25 4.55 -23.05 10.15 -25.0 15.95 -23.05 L18.65 -20.65 Q20.35 -18.75 21.4 -16.55 L22.0 -15.0 19.25 -14.7 Q16.45 -12.1 11.9 -11.65 6.4 -12.2 3.15 -14.7 1.7 -16.1 -0.9 -16.35 L-2.4 -16.25" fill="url(#gradient0)" fill-rule="evenodd" stroke="none"/>
      <path d="M-5.0 -4.45 L-5.05 -3.95 Q-9.75 -2.55 -13.65 -3.55 L-13.65 -3.6 Q-14.75 -7.65 -13.8 -12.0 L-13.65 -12.6 Q-10.7 -13.75 -7.75 -13.35 L-6.45 -13.1 Q-4.6 -8.95 -5.0 -4.45" fill="url(#gradient1)" fill-rule="evenodd" stroke="none"/>
      <path d="M-13.65 -3.6 Q-21.35 -1.9 -28.9 -1.85 -31.1 -5.85 -29.4 -9.65 -22.0 -12.0 -13.8 -12.0 -14.75 -7.65 -13.65 -3.6" fill="url(#gradient2)" fill-rule="evenodd" stroke="none"/>
      <path d="M23.1 -14.45 L25.1 -14.25 25.3 -13.8 Q26.0 -12.0 26.3 -10.25 26.65 -7.8 26.1 -5.35 L26.0 -5.0 22.5 -4.65 24.5 -6.6 25.0 -7.55 24.95 -8.85 24.45 -11.6 23.25 -14.25 23.1 -14.45" fill="url(#gradient3)" fill-rule="evenodd" stroke="none"/>
      <path d="M25.3 -13.8 L29.0 -13.7 Q30.85 -9.5 29.8 -5.65 L26.1 -5.35 Q26.65 -7.8 26.3 -10.25 26.0 -12.0 25.3 -13.8" fill="url(#gradient4)" fill-rule="evenodd" stroke="none"/>
      <path d="M19.0 -5.4 Q18.35 -5.9 18.35 -6.95 18.35 -7.95 19.0 -8.8 19.6 -9.8 20.4 -10.05 21.25 -10.35 21.9 -9.8 22.5 -9.3 22.5 -8.3 22.5 -7.25 21.9 -6.4 L21.7 -6.1 20.4 -5.15 19.5 -5.1 19.0 -5.4" fill="url(#gradient5)" fill-rule="evenodd" stroke="none"/>
      <path d="M3.3 -7.9 L4.2 -6.5 4.3 -5.85 Q4.3 -4.8 3.3 -4.3 L0.95 -4.1 Q-0.45 -4.45 -1.45 -5.45 -2.4 -6.4 -2.4 -7.45 -2.4 -8.5 -1.45 -9.05 L-0.8 -9.25 0.95 -9.2 Q2.35 -8.9 3.3 -7.9" fill="url(#gradient6)" fill-rule="evenodd" stroke="none"/>
      <path d="M15.4 -0.35 L15.5 1.05 15.7 3.3 4.7 4.15 4.55 2.0 4.4 0.15 Q10.25 1.6 15.4 -0.35" fill="url(#gradient7)" fill-rule="evenodd" stroke="none"/>
      <path d="M15.5 1.05 L20.85 1.5 21.35 1.8 Q22.7 2.75 23.4 5.45 L24.25 12.1 24.4 16.45 24.35 18.0 Q24.05 21.15 22.95 21.9 16.2 24.05 9.3 24.1 L3.4 23.75 Q1.2 22.75 1.0 20.85 L0.25 15.7 Q-0.3 10.9 -0.25 6.2 L-0.2 6.1 0.2 4.65 Q0.7 3.5 1.65 2.7 L4.55 2.0 4.7 4.15 15.7 3.3 15.5 1.05" fill="url(#gradient8)" fill-rule="evenodd" stroke="none"/>
      <path d="M22.0 -15.0 L23.1 -14.45 23.25 -14.25 24.45 -11.6 24.95 -8.85 25.0 -7.55 24.5 -6.6 22.5 -4.65 Q20.7 -3.25 17.7 -1.4 L15.4 -0.35 Q10.25 1.6 4.4 0.15 2.15 -0.4 -0.15 -1.4 L-5.0 -4.45 Q-4.6 -8.95 -6.45 -13.1 L-7.75 -13.35 -7.35 -14.05 Q-6.75 -14.8 -5.85 -15.3 -4.5 -16.05 -2.4 -16.25 L-0.9 -16.35 Q1.7 -16.1 3.15 -14.7 6.4 -12.2 11.9 -11.65 16.45 -12.1 19.25 -14.7 L22.0 -15.0 M3.3 -7.9 Q2.35 -8.9 0.95 -9.2 L-0.8 -9.25 -1.45 -9.05 Q-2.4 -8.5 -2.4 -7.45 -2.4 -6.4 -1.45 -5.45 -0.45 -4.45 0.95 -4.1 L3.3 -4.3 Q4.3 -4.8 4.3 -5.85 L4.2 -6.5 3.3 -7.9 M19.0 -5.4 L19.5 -5.1 20.4 -5.15 21.7 -6.1 21.9 -6.4 Q22.5 -7.25 22.5 -8.3 22.5 -9.3 21.9 -9.8 21.25 -10.35 20.4 -10.05 19.6 -9.8 19.0 -8.8 18.35 -7.95 18.35 -6.95 18.35 -5.9 19.0 -5.4" fill="url(#gradient9)" fill-rule="evenodd" stroke="none"/>
    </g>
    <linearGradient gradientTransform="matrix(-0.0197, -0.0342, 0.0066, -0.0038, 16.8, -11.65)" gradientUnits="userSpaceOnUse" id="gradient0" spreadMethod="pad" x1="-819.2" x2="819.2">
      <stop offset="0.0" stop-color="#000000"/>
      <stop offset="1.0" stop-color="#ffffff"/>
    </linearGradient>
    <linearGradient gradientTransform="matrix(-0.0039, -0.0145, 0.0061, -0.0016, -9.6, -8.3)" gradientUnits="userSpaceOnUse" id="gradient1" spreadMethod="pad" x1="-819.2" x2="819.2">
      <stop offset="0.0" stop-color="#000000"/>
      <stop offset="1.0" stop-color="#ffffff"/>
    </linearGradient>
    <linearGradient gradientTransform="matrix(-0.0026, -0.0097, 0.006, -0.0016, -21.95, -6.9)" gradientUnits="userSpaceOnUse" id="gradient2" spreadMethod="pad" x1="-819.2" x2="819.2">
      <stop offset="0.0" stop-color="#000000"/>
      <stop offset="1.0" stop-color="#ffffff"/>
    </linearGradient>
    <linearGradient gradientTransform="matrix(0.0, -0.0068, 0.006, 0.0, 24.45, -9.55)" gradientUnits="userSpaceOnUse" id="gradient3" spreadMethod="pad" x1="-819.2" x2="819.2">
      <stop offset="0.0" stop-color="#000000"/>
      <stop offset="1.0" stop-color="#ffffff"/>
    </linearGradient>
    <linearGradient gradientTransform="matrix(0.0, -0.0139, 0.0052, 0.0, 27.75, -9.6)" gradientUnits="userSpaceOnUse" id="gradient4" spreadMethod="pad" x1="-819.2" x2="819.2">
      <stop offset="0.0" stop-color="#000000"/>
      <stop offset="1.0" stop-color="#ffffff"/>
    </linearGradient>
    <linearGradient gradientTransform="matrix(-0.0037, -0.0063, 0.0027, -0.0016, 20.4, -7.6)" gradientUnits="userSpaceOnUse" id="gradient5" spreadMethod="pad" x1="-819.2" x2="819.2">
      <stop offset="0.0" stop-color="#000000"/>
      <stop offset="1.0" stop-color="#ffffff"/>
    </linearGradient>
    <linearGradient gradientTransform="matrix(-0.0025, -0.0095, 0.0032, -8.0E-4, 0.9, -6.6)" gradientUnits="userSpaceOnUse" id="gradient6" spreadMethod="pad" x1="-819.2" x2="819.2">
      <stop offset="0.0" stop-color="#000000"/>
      <stop offset="1.0" stop-color="#ffffff"/>
    </linearGradient>
    <linearGradient gradientTransform="matrix(-0.0164, 0.0, 0.0, -0.0027, 10.05, 1.9)" gradientUnits="userSpaceOnUse" id="gradient7" spreadMethod="pad" x1="-819.2" x2="819.2">
      <stop offset="0.0" stop-color="#000000"/>
      <stop offset="1.0" stop-color="#ffffff"/>
    </linearGradient>
    <linearGradient gradientTransform="matrix(-0.0123, -0.0458, 0.0136, -0.0036, 12.0, 12.6)" gradientUnits="userSpaceOnUse" id="gradient8" spreadMethod="pad" x1="-819.2" x2="819.2">
      <stop offset="0.0" stop-color="#000000"/>
      <stop offset="1.0" stop-color="#ffffff"/>
    </linearGradient>
    <linearGradient gradientTransform="matrix(-0.0077, -0.0184, 0.0096, -0.004, 11.2, -3.0)" gradientUnits="userSpaceOnUse" id="gradient9" spreadMethod="pad" x1="-819.2" x2="819.2">
      <stop offset="0.0" stop-color="#000000"/>
      <stop offset="1.0" stop-color="#ffffff"/>
    </linearGradient>
  </defs>
</svg>
