<?xml version="1.0" encoding="UTF-8" standalone="no"?>
<svg xmlns:xlink="http://www.w3.org/1999/xlink" height="531.5px" width="460.6px" xmlns="http://www.w3.org/2000/svg">
  <g transform="matrix(1.0, 0.0, 0.0, 1.0, 193.65, 334.05)">
    <use height="407.75" transform="matrix(0.4591, 0.0, 0.0, 0.4591, -81.0796, -286.0171)" width="333.4" xlink:href="#sprite0"/>
  </g>
  <defs>
    <g id="sprite0" transform="matrix(1.0, 0.0, 0.0, 1.0, 0.5, 26.5)">
      <use height="381.75" transform="matrix(1.0, 0.0, 0.0, 1.0, -0.5, -0.5)" width="333.4" xlink:href="#shape0"/>
      <use height="380.75" transform="matrix(1.0, 0.0, 0.0, 1.0, 0.0, 0.0)" width="317.8" xlink:href="#sprite1"/>
      <use height="152.0" transform="matrix(0.8946, 0.0, 0.0, 0.8946, 51.95, -26.5)" width="152.0" xlink:href="#sprite2"/>
    </g>
    <g id="shape0" transform="matrix(1.0, 0.0, 0.0, 1.0, 0.5, 0.5)">
      <path d="M177.95 64.6 L175.7 65.15 171.2 48.95 Q164.75 24.45 160.85 12.85 L160.35 11.35 Q158.8 6.75 158.05 5.4 160.5 6.45 161.65 8.7 L177.95 64.6 M155.45 4.5 L158.25 13.15 Q162.15 25.6 168.5 48.15 L173.45 65.75 167.45 67.25 Q161.5 48.95 156.65 28.1 L153.35 13.75 151.9 7.5 150.8 3.15 155.45 4.5 M146.15 2.05 L148.85 12.25 149.05 13.0 149.45 14.35 Q153.3 28.35 156.55 41.65 153.25 35.8 147.55 32.0 L146.85 31.55 142.25 15.5 142.15 15.2 149.05 13.0 142.15 15.2 138.0 0.65 146.15 2.05 M160.75 59.05 L163.55 68.15 163.1 68.25 158.35 69.3 Q160.55 64.35 160.75 59.05 M80.8 57.0 L76.05 24.1 Q75.8 23.35 75.9 22.6 76.15 21.05 78.0 19.4 L78.35 19.1 79.2 22.95 81.1 32.35 86.35 60.2 Q83.3 58.65 80.8 57.0 M81.35 16.65 L85.9 13.25 88.05 23.3 82.15 23.2 88.05 23.3 89.35 29.4 96.65 64.65 89.3 61.65 Q85.55 44.3 83.45 31.5 L82.15 23.2 81.35 16.65 M90.4 10.4 L92.1 9.4 94.7 22.9 95.6 27.35 99.95 49.3 103.6 66.95 100.8 66.05 Q97.95 55.2 96.1 42.95 L93.75 27.95 92.9 23.05 94.7 22.9 92.9 23.05 Q91.45 14.8 90.4 10.4 M95.6 7.5 L98.55 6.1 102.8 25.05 108.7 54.5 111.5 69.05 108.6 68.35 107.6 61.5 Q106.15 54.15 100.4 32.1 L99.05 26.25 98.2 22.45 Q96.35 13.7 95.6 7.5 M102.8 4.4 L105.05 3.6 110.0 22.95 114.3 40.0 113.8 40.9 Q109.55 49.55 111.3 59.3 L109.7 50.95 Q107.95 40.65 105.75 24.2 L104.6 15.85 Q103.6 8.45 102.8 4.4 M116.5 0.85 L122.85 0.15 Q123.5 3.75 124.65 8.6 L127.1 18.55 129.5 28.35 128.55 28.55 Q126.0 29.2 123.8 30.4 L120.85 20.05 Q117.4 7.5 116.5 0.85 M124.75 0.05 Q129.55 -0.15 134.5 0.3 L139.25 16.0 139.25 16.05 143.0 29.55 Q137.55 27.25 131.85 27.95 L129.25 18.25 129.2 18.1 Q126.25 6.8 124.75 0.05 M139.25 16.0 L138.3 16.2 129.25 18.25 138.3 16.2 139.25 16.0 M121.7 31.65 L121.65 31.65 121.3 30.3 121.7 31.65 M101.45 21.9 L98.2 22.45 101.45 21.9 M111.9 62.05 Q113.05 66.3 115.05 69.8 L113.65 69.5 111.9 62.05 M75.9 22.6 L79.2 22.95 75.9 22.6" fill="#ff0303" fill-opacity="0.72156864" fill-rule="evenodd" stroke="none"/>
      <path d="M158.05 5.4 Q158.8 6.75 160.35 11.35 L160.85 12.85 Q164.75 24.45 171.2 48.95 L175.7 65.15 177.95 64.6 183.05 82.1 181.05 82.25 178.2 82.45 172.85 82.9 168.9 83.25 162.0 83.95 156.75 84.5 149.9 85.3 143.65 86.1 141.2 86.45 136.85 87.05 136.25 87.15 135.3 83.65 136.0 83.7 140.3 83.5 142.95 82.95 143.0 82.95 Q145.85 82.2 148.25 80.85 151.9 78.85 154.6 75.5 156.35 73.25 157.75 70.5 L157.95 70.1 158.35 69.3 157.95 70.1 157.75 70.5 Q156.35 73.25 154.6 75.5 151.9 78.85 148.25 80.85 145.85 82.2 143.0 82.95 L142.95 82.95 140.3 83.5 136.0 83.7 135.3 83.65 132.15 71.9 132.95 71.95 134.75 72.0 136.9 72.5 139.8 72.55 140.6 72.45 143.35 71.65 144.9 71.5 153.35 70.25 157.75 69.4 158.35 69.3 163.1 68.25 163.55 68.15 160.75 59.05 Q160.95 54.4 159.65 49.45 158.55 45.15 156.55 41.65 153.3 28.35 149.45 14.35 L149.05 13.0 148.85 12.25 146.15 2.05 150.8 3.15 151.9 7.5 153.35 13.75 156.65 28.1 Q161.5 48.95 167.45 67.25 L173.45 65.75 168.5 48.15 Q162.15 25.6 158.25 13.15 L155.45 4.5 157.15 5.05 157.6 5.2 158.05 5.4 M86.45 96.55 L80.8 57.0 Q83.3 58.65 86.35 60.2 L81.1 32.35 79.2 22.95 78.35 19.1 81.35 16.65 82.15 23.2 83.45 31.5 Q85.55 44.3 89.3 61.65 L96.65 64.65 89.35 29.4 88.05 23.3 85.9 13.25 Q88.1 11.7 90.4 10.4 91.45 14.8 92.9 23.05 L88.05 23.3 92.9 23.05 93.75 27.95 96.1 42.95 Q97.95 55.2 100.8 66.05 L103.6 66.95 108.05 87.5 109.05 91.75 102.7 93.0 98.8 93.8 96.35 94.35 92.5 95.2 89.75 95.8 86.45 96.55 M98.55 6.1 L102.8 4.4 Q103.6 8.45 104.6 15.85 L105.75 24.2 Q107.95 40.65 109.7 50.95 L111.3 59.3 111.85 61.85 111.9 62.05 113.65 69.5 115.05 69.8 Q118.35 75.6 124.0 79.4 L124.15 79.5 126.4 88.65 118.95 89.95 115.6 90.55 112.15 91.15 111.1 85.05 108.6 68.35 111.5 69.05 108.7 54.5 102.8 25.05 98.55 6.1 M113.65 1.35 L116.5 0.85 Q117.4 7.5 120.85 20.05 L123.8 30.4 121.7 31.65 121.3 30.3 118.75 20.6 113.65 1.35 M122.85 0.15 L124.75 0.05 Q126.25 6.8 129.2 18.1 L129.25 18.25 128.05 18.35 129.25 18.25 131.85 27.95 129.5 28.35 127.1 18.55 124.65 8.6 Q123.5 3.75 122.85 0.15 M134.5 0.3 L138.0 0.65 142.15 15.2 142.25 15.5 146.85 31.55 143.0 29.55 139.25 16.05 139.25 16.0 142.15 15.2 139.25 16.0 134.5 0.3 M82.15 23.2 L79.2 22.95 82.15 23.2" fill="#e10404" fill-rule="evenodd" stroke="none"/>
      <path d="M136.25 87.15 L136.85 87.05 141.2 86.45 143.65 86.1 149.9 85.3 156.75 84.5 162.0 83.95 168.9 83.25 172.85 82.9 178.2 82.45 181.05 82.25 183.05 82.1 Q198.85 79.0 200.85 104.9 L189.55 106.0 158.7 109.55 125.5 114.45 111.35 116.9 101.1 118.8 97.6 119.5 Q97.0 112.9 96.15 110.8 95.1 108.2 95.1 103.0 95.1 98.4 95.45 97.45 95.75 96.55 96.6 95.65 97.45 94.75 98.8 93.8 L102.7 93.0 109.05 91.75 109.95 91.6 112.15 91.15 115.6 90.55 118.95 89.95 126.4 88.65 136.25 87.15 M237.7 190.9 Q245.45 192.35 253.35 194.9 L254.95 195.55 261.4 198.4 Q270.1 202.5 278.3 207.6 260.55 207.7 222.85 210.65 L225.45 206.95 Q231.85 198.0 237.7 190.9 M291.1 216.4 L310.6 217.7 Q321.3 224.7 316.05 231.95 306.15 230.45 292.95 229.45 L257.4 227.8 Q263.15 221.35 267.3 215.6 L291.1 216.4 M28.55 273.1 Q27.55 268.85 27.45 262.45 L32.15 260.05 Q48.05 252.15 65.7 245.6 97.65 233.7 135.3 226.35 L135.45 226.15 135.5 226.1 141.2 226.6 149.1 226.55 142.25 228.1 149.1 226.55 163.55 223.65 Q182.6 220.15 202.65 218.2 L218.65 216.85 251.6 215.55 Q248.35 219.2 244.1 223.1 L238.9 227.6 238.85 227.65 238.8 227.6 Q198.95 227.35 173.35 232.1 160.1 234.55 157.05 236.3 156.15 235.7 153.3 235.6 148.6 235.45 96.65 251.45 44.7 267.45 28.55 273.1 M83.9 96.95 L86.45 96.55 89.75 95.8 Q88.25 97.2 87.75 98.55 87.1 100.25 87.1 108.25 87.1 114.7 87.35 116.4 87.6 118.3 88.45 121.3 L75.25 124.1 74.8 122.55 Q70.55 106.65 76.95 100.45 79.55 97.9 83.9 96.95 M149.65 213.75 Q185.1 186.1 225.45 189.25 218.3 200.55 215.55 204.25 212.55 208.35 209.45 211.75 L208.1 211.85 Q167.55 215.25 143.7 218.6 L149.65 213.75 M130.55 231.15 L135.3 226.35 130.55 231.15" fill="#777777" fill-rule="evenodd" stroke="none"/>
      <path d="M190.75 174.2 L198.8 173.85 Q212.1 172.3 218.6 163.6 225.05 154.9 223.9 148.05 222.75 141.15 220.0 138.45 219.0 146.0 212.95 153.15 208.05 158.9 198.55 159.8 L193.9 159.95 190.2 159.8 Q179.85 159.1 173.8 155.6 166.6 151.55 159.45 145.25 158.9 153.9 163.55 160.05 168.2 166.3 176.8 170.8 L180.15 172.25 Q184.85 173.95 190.75 174.2 M111.35 116.9 L125.5 114.45 158.7 109.55 189.55 106.0 200.85 104.9 Q241.7 118.6 264.8 157.75 265.8 163.35 265.8 169.0 265.8 178.1 261.1 187.35 258.45 192.55 254.95 195.55 L253.35 194.9 Q245.45 192.35 237.7 190.9 231.5 189.7 225.45 189.25 185.1 186.1 149.65 213.75 136.05 216.1 119.4 220.15 96.95 225.65 64.05 235.65 61.5 212.3 68.7 176.1 76.1 148.0 98.45 127.35 L98.7 127.1 Q104.5 121.75 111.35 116.9 M290.6 348.7 Q279.35 364.95 251.65 371.4 L251.65 358.45 Q277.95 352.5 283.8 334.3 289.5 316.55 287.9 286.2 L288.5 289.8 Q290.95 305.2 290.95 329.75 290.95 341.15 290.6 348.7 M193.95 376.1 Q122.45 384.25 81.1 354.35 56.1 334.7 43.2 298.1 L51.5 293.4 Q55.5 291.15 59.05 289.4 69.5 322.25 89.8 339.0 122.75 361.45 150.75 362.75 176.35 365.55 192.6 363.55 L193.95 376.1" fill="#1f1d2e" fill-rule="evenodd" stroke="none"/>
      <path d="M198.55 159.8 Q208.05 158.9 212.95 153.15 219.0 146.0 220.0 138.45 222.75 141.15 223.9 148.05 225.05 154.9 218.6 163.6 212.1 172.3 198.8 173.85 L190.75 174.2 197.0 162.55 198.55 159.8 M180.15 172.25 L176.8 170.8 Q168.2 166.3 163.55 160.05 158.9 153.9 159.45 145.25 166.6 151.55 173.8 155.6 179.85 159.1 190.2 159.8 L185.65 165.8 180.15 172.25 M251.65 371.4 L251.65 376.75 219.95 379.0 Q222.3 373.75 227.15 367.65 230.65 363.3 239.0 354.75 L251.65 353.7 251.65 358.45 251.65 371.4 M211.0 379.6 L194.45 380.75 193.95 376.1 192.6 363.55 192.05 358.5 230.0 355.45 Q227.45 360.95 222.35 367.7 216.75 375.1 211.0 379.6" fill="#d5d5d5" fill-rule="evenodd" stroke="none"/>
      <path d="M135.3 83.65 L136.25 87.15 126.4 88.65 124.15 79.5 122.05 71.0 118.05 55.0 114.3 40.0 110.0 22.95 105.05 3.6 Q108.4 2.45 111.9 1.7 L113.65 1.35 118.75 20.6 121.3 30.3 121.65 31.65 126.65 50.85 128.05 56.15 Q126.7 58.95 127.05 62.2 127.55 67.0 131.3 70.0 127.55 67.0 127.05 62.2 126.7 58.95 128.05 56.15 L131.65 69.95 131.3 70.0 131.75 70.35 132.15 71.9 135.3 83.65 Q129.6 83.15 124.15 79.5 129.6 83.15 135.3 83.65 M190.75 174.2 Q184.85 173.95 180.15 172.25 L185.65 165.8 190.2 159.8 193.9 159.95 198.55 159.8 197.0 162.55 190.75 174.2 M219.95 379.0 L211.0 379.6 Q216.75 375.1 222.35 367.7 227.45 360.95 230.0 355.45 L239.0 354.75 Q230.65 363.3 227.15 367.65 222.3 373.75 219.95 379.0 M92.1 9.4 Q93.8 8.4 95.6 7.5 96.35 13.7 98.2 22.45 L99.05 26.25 100.4 32.1 Q106.15 54.15 107.6 61.5 L108.6 68.35 111.1 85.05 112.15 91.15 109.95 91.6 109.05 91.75 108.05 87.5 103.6 66.95 99.95 49.3 95.6 27.35 94.7 22.9 92.1 9.4 M98.2 22.45 L94.7 22.9 98.2 22.45 M121.65 31.65 Q117.15 34.7 114.3 40.0 117.15 34.7 121.65 31.65" fill="#ffffff" fill-rule="evenodd" stroke="none"/>
      <path d="M225.45 189.25 Q231.5 189.7 237.7 190.9 231.85 198.0 225.45 206.95 L222.85 210.65 218.65 216.85 202.65 218.2 Q206.1 215.35 209.45 211.75 212.55 208.35 215.55 204.25 218.3 200.55 225.45 189.25 M98.8 93.8 Q97.45 94.75 96.6 95.65 95.75 96.55 95.45 97.45 95.1 98.4 95.1 103.0 95.1 108.2 96.15 110.8 97.0 112.9 97.6 119.5 L96.8 119.65 88.45 121.3 Q87.6 118.3 87.35 116.4 87.1 114.7 87.1 108.25 87.1 100.25 87.75 98.55 88.25 97.2 89.75 95.8 L92.5 95.2 96.35 94.35 98.8 93.8 M238.85 227.65 L238.9 227.6 244.1 223.1 Q248.35 219.2 251.6 215.55 L267.3 215.6 Q263.15 221.35 257.4 227.8 L252.85 232.8 Q242.15 232.75 231.6 233.05 L238.85 227.65" fill="#aeaeae" fill-rule="evenodd" stroke="none"/>
      <path d="M254.95 195.55 Q258.45 192.55 261.1 187.35 265.8 178.1 265.8 169.0 265.8 163.35 264.8 157.75 277.35 178.95 284.65 207.7 L285.85 212.6 278.3 207.6 Q270.1 202.5 261.4 198.4 L254.95 195.55 M64.05 235.65 Q96.95 225.65 119.4 220.15 136.05 216.1 149.65 213.75 L143.7 218.6 Q139.55 222.15 135.5 226.1 L135.45 226.15 135.3 226.35 Q97.65 233.7 65.7 245.6 64.6 240.95 64.05 235.65" fill="#181724" fill-rule="evenodd" stroke="none"/>
      <path d="M264.8 157.75 Q241.7 118.6 200.85 104.9 237.15 110.8 259.7 141.1 278.35 166.1 287.65 207.8 L289.15 214.95 285.85 212.6 284.65 207.7 Q277.35 178.95 264.8 157.75 M146.35 337.0 Q142.05 338.35 140.6 333.7 L147.8 321.2 Q151.45 320.45 153.55 324.5 L146.35 337.0 M209.9 330.3 L209.9 344.7 Q206.85 348.0 203.25 344.7 L203.25 330.3 Q206.05 327.8 209.9 330.3 M261.0 331.7 Q260.0 336.1 255.25 335.05 L248.05 322.55 Q249.2 319.0 253.8 319.2 L261.0 331.7" fill="#1a1a1a" fill-rule="evenodd" stroke="none"/>
      <path d="M156.55 41.65 Q158.55 45.15 159.65 49.45 160.95 54.4 160.75 59.05 160.55 64.35 158.35 69.3 L157.75 69.4 153.35 70.25 144.9 71.5 143.35 71.65 144.7 70.95 Q146.3 69.9 147.6 68.25 150.6 64.55 150.1 59.75 149.6 55.0 145.85 51.95 142.3 49.15 137.8 49.45 L137.35 49.5 134.85 50.05 Q132.5 50.8 130.7 52.5 L129.55 53.7 128.5 55.25 128.05 56.15 126.65 50.85 121.65 31.65 121.7 31.65 123.8 30.4 Q126.0 29.2 128.55 28.55 L129.5 28.35 131.85 27.95 Q137.55 27.25 143.0 29.55 L146.85 31.55 147.55 32.0 Q153.25 35.8 156.55 41.65 M111.3 59.3 Q109.55 49.55 113.8 40.9 L114.3 40.0 118.05 55.0 122.05 71.0 124.15 79.5 124.0 79.4 Q118.35 75.6 115.05 69.8 113.05 66.3 111.9 62.05 L111.85 61.85 111.3 59.3 M131.75 70.35 L132.7 71.0 Q133.7 71.6 134.75 72.0 L132.95 71.95 132.15 71.9 131.75 70.35" fill="#ff0303" fill-rule="evenodd" stroke="none"/>
      <path d="M128.05 56.15 L128.5 55.25 129.55 53.7 130.7 52.5 Q132.5 50.8 134.85 50.05 L137.35 49.5 137.8 49.45 Q142.3 49.15 145.85 51.95 149.6 55.0 150.1 59.75 150.6 64.55 147.6 68.25 146.3 69.9 144.7 70.95 L143.35 71.65 140.6 72.45 139.8 72.55 136.9 72.5 134.75 72.0 Q133.7 71.6 132.7 71.0 L131.75 70.35 131.3 70.0 131.65 69.95 128.05 56.15" fill="#c10202" fill-rule="evenodd" stroke="none"/>
      <path d="M37.45 172.8 Q9.7 171.25 1.75 153.15 -3.25 138.25 5.95 124.35 15.15 110.4 31.05 106.85 37.5 95.25 50.15 94.5 50.95 92.65 52.15 90.8 65.9 75.8 83.9 96.95 79.55 97.9 76.95 100.45 66.1 88.1 60.15 92.1 58.3 93.3 57.1 94.55 71.5 100.25 71.45 108.3 71.4 116.35 63.6 117.9 55.8 119.45 50.85 110.0 48.4 105.3 48.7 100.6 43.3 102.9 38.8 108.55 49.35 110.35 53.1 116.4 56.85 122.4 52.9 126.8 48.9 131.1 41.55 130.45 26.05 129.6 27.85 115.5 21.25 116.45 17.2 122.1 -6.1 155.85 40.15 165.9 38.65 169.25 37.45 172.8 M54.7 100.15 Q57.35 113.9 63.95 110.8 67.2 104.75 54.7 100.15 54.35 97.3 57.1 94.55 54.35 97.3 54.7 100.15 M31.05 106.85 Q29.45 109.8 28.2 113.45 L27.85 115.5 28.2 113.45 Q29.45 109.8 31.05 106.85 M35.25 113.6 Q33.95 115.45 35.3 118.85 40.65 126.5 46.4 122.4 47.35 117.35 35.25 113.6 36.95 110.8 38.8 108.55 36.95 110.8 35.25 113.6 M48.7 100.6 Q48.85 97.55 50.15 94.5 48.85 97.55 48.7 100.6" fill="#3c3c3c" fill-rule="evenodd" stroke="none"/>
      <path d="M32.15 260.05 Q24.65 208.55 37.45 172.8 38.65 169.25 40.15 165.9 51.5 139.6 74.8 122.55 L75.25 124.1 88.45 121.3 96.8 119.65 97.6 119.5 101.1 118.8 111.35 116.9 Q104.5 121.75 98.7 127.1 L98.45 127.35 Q76.1 148.0 68.7 176.1 61.5 212.3 64.05 235.65 64.6 240.95 65.7 245.6 48.05 252.15 32.15 260.05" fill="#0e0e14" fill-rule="evenodd" stroke="none"/>
      <path d="M289.15 214.95 L291.1 216.4 267.3 215.6 251.6 215.55 218.65 216.85 222.85 210.65 Q260.55 207.7 278.3 207.6 L285.85 212.6 289.15 214.95 M316.05 231.95 Q314.75 233.7 312.5 235.45 L293.35 234.1 Q294.15 241.15 290.85 245.3 288.9 247.75 283.35 250.4 L277.7 233.35 Q265.2 232.85 252.85 232.8 L257.4 227.8 292.95 229.45 Q306.15 230.45 316.05 231.95 M37.4 278.35 L32.25 280.2 Q29.75 278.3 28.55 273.1 44.7 267.45 96.65 251.45 148.6 235.45 153.3 235.6 156.15 235.7 157.05 236.3 160.1 234.55 173.35 232.1 198.95 227.35 238.8 227.6 L238.85 227.65 231.6 233.05 Q195.25 234.0 160.25 238.75 L157.55 239.15 137.05 242.35 54.45 272.2 37.4 278.35 M209.45 211.75 Q206.1 215.35 202.65 218.2 182.6 220.15 163.55 223.65 L149.1 226.55 141.2 226.6 135.5 226.1 Q139.55 222.15 143.7 218.6 167.55 215.25 208.1 211.85 L209.45 211.75 M277.7 233.35 L293.35 234.1 277.7 233.35" fill="#515151" fill-rule="evenodd" stroke="none"/>
      <path d="M297.2 278.3 Q304.2 280.05 311.1 281.1 321.15 281.4 322.45 276.75 325.25 266.95 314.0 266.55 322.25 262.15 328.7 267.65 338.8 281.1 321.2 286.65 309.1 287.25 298.0 286.1 L287.8 284.6 287.6 284.55 Q283.0 283.7 276.95 281.9 L255.5 275.25 Q250.05 274.0 245.9 275.35 232.6 279.35 227.55 268.5 222.45 257.6 234.8 254.5 242.15 254.15 245.75 256.75 266.5 268.75 285.15 274.75 L287.45 275.45 Q293.1 277.25 297.2 278.3 M109.2 279.3 L118.95 276.45 121.25 275.75 Q139.9 269.75 160.65 257.75 164.25 255.15 171.6 255.5 183.95 258.6 178.85 269.5 173.8 280.35 160.5 276.35 156.35 275.0 150.9 276.25 L129.45 282.9 Q123.4 284.7 118.8 285.55 L118.6 285.6 108.4 287.1 Q97.3 288.25 85.2 287.65 67.6 282.1 77.7 268.65 84.15 263.15 92.4 267.55 81.15 267.95 83.95 277.75 85.25 282.4 95.3 282.1 102.2 281.05 109.2 279.3" fill="#000000" fill-rule="evenodd" stroke="none"/>
      <path d="M290.85 245.3 Q295.2 262.25 297.2 278.3 293.1 277.25 287.45 275.45 L283.35 250.4 Q288.9 247.75 290.85 245.3 M298.0 286.1 Q300.4 312.7 296.2 336.9 294.3 343.3 290.6 348.7 290.95 341.15 290.95 329.75 290.95 305.2 288.5 289.8 L287.9 286.2 287.8 284.6 298.0 286.1 M43.2 298.1 Q39.9 288.8 37.4 278.35 L54.45 272.2 Q56.4 281.3 59.05 289.4 55.5 291.15 51.5 293.4 L43.2 298.1" fill="#11111a" fill-rule="evenodd" stroke="none"/>
      <path d="M177.95 64.6 L161.65 8.7 Q160.5 6.45 158.05 5.4 M157.6 5.2 L157.15 5.05 155.45 4.5 150.8 3.15 146.15 2.05 138.0 0.65 134.5 0.3 Q129.55 -0.15 124.75 0.05 L122.85 0.15 116.5 0.85 113.65 1.35 111.9 1.7 Q108.4 2.45 105.05 3.6 L102.8 4.4 98.55 6.1 95.6 7.5 Q93.8 8.4 92.1 9.4 L90.4 10.4 Q88.1 11.7 85.9 13.25 L81.35 16.65 78.35 19.1 78.0 19.4 Q76.15 21.05 75.9 22.6 75.8 23.35 76.05 24.1 L80.8 57.0 86.45 96.55 83.9 96.95 Q65.9 75.8 52.15 90.8 50.95 92.65 50.15 94.5 48.85 97.55 48.7 100.6 43.3 102.9 38.8 108.55 49.35 110.35 53.1 116.4 56.85 122.4 52.9 126.8 48.9 131.1 41.55 130.45 26.05 129.6 27.85 115.5 21.25 116.45 17.2 122.1 -6.1 155.85 40.15 165.9 51.5 139.6 74.8 122.55 70.55 106.65 76.95 100.45 79.55 97.9 83.9 96.95 M156.55 41.65 Q158.55 45.15 159.65 49.45 160.95 54.4 160.75 59.05 160.55 64.35 158.35 69.3 L157.95 70.1 157.75 70.5 Q156.35 73.25 154.6 75.5 151.9 78.85 148.25 80.85 145.85 82.2 143.0 82.95 L142.95 82.95 140.3 83.5 136.0 83.7 135.3 83.65 Q129.6 83.15 124.15 79.5 L124.0 79.4 Q118.35 75.6 115.05 69.8 113.05 66.3 111.9 62.05 M136.25 87.15 L136.85 87.05 141.2 86.45 143.65 86.1 149.9 85.3 156.75 84.5 162.0 83.95 168.9 83.25 172.85 82.9 178.2 82.45 181.05 82.25 183.05 82.1 177.95 64.6 M198.55 159.8 Q208.05 158.9 212.95 153.15 219.0 146.0 220.0 138.45 222.75 141.15 223.9 148.05 225.05 154.9 218.6 163.6 212.1 172.3 198.8 173.85 L190.75 174.2 Q184.85 173.95 180.15 172.25 L176.8 170.8 Q168.2 166.3 163.55 160.05 158.9 153.9 159.45 145.25 166.6 151.55 173.8 155.6 179.85 159.1 190.2 159.8 L193.9 159.95 198.55 159.8 M111.35 116.9 L125.5 114.45 158.7 109.55 189.55 106.0 200.85 104.9 Q198.85 79.0 183.05 82.1 M225.45 189.25 Q231.5 189.7 237.7 190.9 245.45 192.35 253.35 194.9 L254.95 195.55 261.4 198.4 Q270.1 202.5 278.3 207.6 L285.85 212.6 289.15 214.95 291.1 216.4 310.6 217.7 Q321.3 224.7 316.05 231.95 314.75 233.7 312.5 235.45 L293.35 234.1 Q294.15 241.15 290.85 245.3 295.2 262.25 297.2 278.3 304.2 280.05 311.1 281.1 321.15 281.4 322.45 276.75 325.25 266.95 314.0 266.55 322.25 262.15 328.7 267.65 338.8 281.1 321.2 286.65 309.1 287.25 298.0 286.1 300.4 312.7 296.2 336.9 294.3 343.3 290.6 348.7 279.35 364.95 251.65 371.4 L251.65 376.75 219.95 379.0 211.0 379.6 194.45 380.75 193.95 376.1 Q122.45 384.25 81.1 354.35 56.1 334.7 43.2 298.1 39.9 288.8 37.4 278.35 L32.25 280.2 Q29.75 278.3 28.55 273.1 27.55 268.85 27.45 262.45 L32.15 260.05 Q24.65 208.55 37.45 172.8 9.7 171.25 1.75 153.15 -3.25 138.25 5.95 124.35 15.15 110.4 31.05 106.85 37.5 95.25 50.15 94.5 M264.8 157.75 Q241.7 118.6 200.85 104.9 237.15 110.8 259.7 141.1 278.35 166.1 287.65 207.8 L289.15 214.95 M149.05 13.0 L142.15 15.2 139.25 16.0 138.3 16.2 129.25 18.25 128.05 18.35 M146.85 31.55 L147.55 32.0 Q153.25 35.8 156.55 41.65 M143.0 29.55 L146.85 31.55 M123.8 30.4 Q126.0 29.2 128.55 28.55 L129.5 28.35 131.85 27.95 Q137.55 27.25 143.0 29.55 M121.7 31.65 L123.8 30.4 M121.65 31.65 L121.7 31.65 M128.05 56.15 L128.5 55.25 129.55 53.7 130.7 52.5 Q132.5 50.8 134.85 50.05 L137.35 49.5 137.8 49.45 Q142.3 49.15 145.85 51.95 149.6 55.0 150.1 59.75 150.6 64.55 147.6 68.25 146.3 69.9 144.7 70.95 L143.35 71.65 140.6 72.45 139.8 72.55 136.9 72.5 134.75 72.0 Q133.7 71.6 132.7 71.0 L131.75 70.35 131.3 70.0 Q127.55 67.0 127.05 62.2 126.7 58.95 128.05 56.15 M111.3 59.3 Q109.55 49.55 113.8 40.9 L114.3 40.0 Q117.15 34.7 121.65 31.65 M82.15 23.2 L88.05 23.3 92.9 23.05 94.7 22.9 98.2 22.45 101.45 21.9 M97.6 119.5 L101.1 118.8 111.35 116.9 Q104.5 121.75 98.7 127.1 L98.45 127.35 Q76.1 148.0 68.7 176.1 61.5 212.3 64.05 235.65 64.6 240.95 65.7 245.6 97.65 233.7 135.3 226.35 L130.55 231.15 M149.65 213.75 Q185.1 186.1 225.45 189.25 M202.65 218.2 L218.65 216.85 251.6 215.55 267.3 215.6 291.1 216.4 M89.75 95.8 L86.45 96.55 M89.75 95.8 L92.5 95.2 96.35 94.35 98.8 93.8 102.7 93.0 109.05 91.75 109.95 91.6 112.15 91.15 115.6 90.55 118.95 89.95 126.4 88.65 136.25 87.15 M79.2 22.95 L75.9 22.6 M79.2 22.95 L82.15 23.2 M76.95 100.45 Q66.1 88.1 60.15 92.1 58.3 93.3 57.1 94.55 71.5 100.25 71.45 108.3 71.4 116.35 63.6 117.9 55.8 119.45 50.85 110.0 48.4 105.3 48.7 100.6 M54.7 100.15 Q67.2 104.75 63.95 110.8 57.35 113.9 54.7 100.15 54.35 97.3 57.1 94.55 M74.8 122.55 L75.25 124.1 88.45 121.3 96.8 119.65 97.6 119.5 M27.85 115.5 L28.2 113.45 Q29.45 109.8 31.05 106.85 M35.25 113.6 Q47.35 117.35 46.4 122.4 40.65 126.5 35.3 118.85 33.95 115.45 35.25 113.6 36.95 110.8 38.8 108.55 M40.15 165.9 Q38.65 169.25 37.45 172.8 M143.7 218.6 L149.65 213.75 M135.5 226.1 L135.45 226.15 135.3 226.35 M135.5 226.1 Q139.55 222.15 143.7 218.6 M149.1 226.55 L142.25 228.1 M231.6 233.05 Q195.25 234.0 160.25 238.75 L157.55 239.15 137.05 242.35 54.45 272.2 Q56.4 281.3 59.05 289.4 69.5 322.25 89.8 339.0 122.75 361.45 150.75 362.75 176.35 365.55 192.6 363.55 L192.05 358.5 230.0 355.45 239.0 354.75 251.65 353.7 251.65 358.45 Q277.95 352.5 283.8 334.3 289.5 316.55 287.9 286.2 L287.8 284.6 287.6 284.55 Q283.0 283.7 276.95 281.9 L255.5 275.25 Q250.05 274.0 245.9 275.35 232.6 279.35 227.55 268.5 222.45 257.6 234.8 254.5 242.15 254.15 245.75 256.75 266.5 268.75 285.15 274.75 L287.45 275.45 283.35 250.4 277.7 233.35 Q265.2 232.85 252.85 232.8 242.15 232.75 231.6 233.05 M109.2 279.3 Q102.2 281.05 95.3 282.1 85.25 282.4 83.95 277.75 81.15 267.95 92.4 267.55 84.15 263.15 77.7 268.65 67.6 282.1 85.2 287.65 97.3 288.25 108.4 287.1 L118.6 285.6 118.8 285.55 Q123.4 284.7 129.45 282.9 L150.9 276.25 Q156.35 275.0 160.5 276.35 173.8 280.35 178.85 269.5 183.95 258.6 171.6 255.5 164.25 255.15 160.65 257.75 139.9 269.75 121.25 275.75 L118.95 276.45 109.2 279.3 M65.7 245.6 Q48.05 252.15 32.15 260.05 M54.45 272.2 L37.4 278.35 M146.35 337.0 Q142.05 338.35 140.6 333.7 L147.8 321.2 Q151.45 320.45 153.55 324.5 L146.35 337.0 M264.8 157.75 Q277.35 178.95 284.65 207.7 L285.85 212.6 M298.0 286.1 L287.8 284.6 M287.45 275.45 Q293.1 277.25 297.2 278.3 M290.85 245.3 Q288.9 247.75 283.35 250.4 M293.35 234.1 L277.7 233.35 M202.65 218.2 Q182.6 220.15 163.55 223.65 L149.1 226.55 M209.9 330.3 L209.9 344.7 Q206.85 348.0 203.25 344.7 L203.25 330.3 Q206.05 327.8 209.9 330.3 M192.6 363.55 L193.95 376.1 M261.0 331.7 Q260.0 336.1 255.25 335.05 L248.05 322.55 Q249.2 319.0 253.8 319.2 L261.0 331.7 M251.65 371.4 L251.65 358.45" fill="none" stroke="#000000" stroke-linecap="round" stroke-linejoin="round" stroke-opacity="0.6627451" stroke-width="1.0"/>
    </g>
    <g id="sprite1" transform="matrix(1.0, 0.0, 0.0, 1.0, 0.0, 0.0)">
      <use height="380.75" transform="matrix(1.0, 0.0, 0.0, 1.0, 0.0, 0.0)" width="317.8" xlink:href="#shape1"/>
    </g>
    <g id="shape1" transform="matrix(1.0, 0.0, 0.0, 1.0, 0.0, 0.0)">
      <path d="M121.7 31.65 L121.65 31.65 121.3 30.3 121.7 31.65" fill="url(#gradient0)" fill-rule="evenodd" stroke="none"/>
      <path d="M113.65 69.5 L111.9 62.05 Q113.05 66.3 115.05 69.8 L113.65 69.5" fill="url(#gradient1)" fill-rule="evenodd" stroke="none"/>
      <path d="M131.75 70.35 L132.7 71.0 Q133.7 71.6 134.75 72.0 L132.95 71.95 132.15 71.9 131.75 70.35" fill="url(#gradient2)" fill-rule="evenodd" stroke="none"/>
      <path d="M285.85 212.6 L284.65 207.7 Q277.35 178.95 264.8 157.75 241.7 118.6 200.85 104.9 237.15 110.8 259.7 141.1 278.35 166.1 287.65 207.8 L289.15 214.95 285.85 212.6" fill="url(#gradient3)" fill-rule="evenodd" stroke="none"/>
      <path d="M192.6 363.55 L192.05 358.5 251.65 353.7 251.65 358.45 251.65 371.4 251.65 376.75 194.45 380.75 193.95 376.1 192.6 363.55" fill="url(#gradient4)" fill-rule="evenodd" stroke="none"/>
      <path d="M54.45 272.2 Q56.4 281.3 59.05 289.4 69.5 322.25 89.8 339.0 122.75 361.45 150.75 362.75 176.35 365.55 192.6 363.55 L193.95 376.1 Q122.45 384.25 81.1 354.35 56.1 334.7 43.2 298.1 39.9 288.8 37.4 278.35 L54.45 272.2" fill="url(#gradient5)" fill-rule="evenodd" stroke="none"/>
      <path d="M251.65 358.45 Q277.95 352.5 283.8 334.3 289.5 316.55 287.9 286.2 L287.8 284.6 298.0 286.1 Q300.4 312.7 296.2 336.9 294.3 343.3 290.6 348.7 279.35 364.95 251.65 371.4 L251.65 358.45" fill="url(#gradient6)" fill-rule="evenodd" stroke="none"/>
      <path d="M290.85 245.3 Q295.2 262.25 297.2 278.3 293.1 277.25 287.45 275.45 L283.35 250.4 Q288.9 247.75 290.85 245.3" fill="url(#gradient7)" fill-rule="evenodd" stroke="none"/>
      <path d="M293.35 234.1 Q294.15 241.15 290.85 245.3 288.9 247.75 283.35 250.4 L277.7 233.35 293.35 234.1" fill="url(#gradient8)" fill-rule="evenodd" stroke="none"/>
      <path d="M135.5 226.1 Q139.55 222.15 143.7 218.6 L149.65 213.75 Q185.1 186.1 225.45 189.25 231.5 189.7 237.7 190.9 245.45 192.35 253.35 194.9 L254.95 195.55 261.4 198.4 Q270.1 202.5 278.3 207.6 L285.85 212.6 289.15 214.95 291.1 216.4 267.3 215.6 251.6 215.55 218.65 216.85 202.65 218.2 Q182.6 220.15 163.55 223.65 L149.1 226.55 141.2 226.6 135.5 226.1" fill="url(#gradient9)" fill-rule="evenodd" stroke="none"/>
      <path d="M223.9 148.05 Q225.05 154.9 218.6 163.6 212.1 172.3 198.8 173.85 L190.75 174.2 Q184.85 173.95 180.15 172.25 L176.8 170.8 Q168.2 166.3 163.55 160.05 158.9 153.9 159.45 145.25 166.6 151.55 173.8 155.6 179.85 159.1 190.2 159.8 L193.9 159.95 198.55 159.8 Q208.05 158.9 212.95 153.15 219.0 146.0 220.0 138.45 222.75 141.15 223.9 148.05" fill="url(#gradient10)" fill-rule="evenodd" stroke="none"/>
      <path d="M183.05 82.1 L181.05 82.25 178.2 82.45 172.85 82.9 168.9 83.25 162.0 83.95 156.75 84.5 149.9 85.3 143.65 86.1 141.2 86.45 136.85 87.05 136.25 87.15 126.4 88.65 118.95 89.95 115.6 90.55 112.15 91.15 109.95 91.6 109.05 91.75 102.7 93.0 98.8 93.8 96.35 94.35 92.5 95.2 89.75 95.8 86.45 96.55 76.05 24.1 Q75.8 23.35 75.9 22.6 76.15 21.05 78.0 19.4 L78.35 19.1 81.35 16.65 85.9 13.25 Q88.1 11.7 90.4 10.4 L92.1 9.4 Q93.8 8.4 95.6 7.5 L97.9 6.4 98.55 6.1 102.8 4.4 105.05 3.6 Q108.4 2.45 111.9 1.7 L113.65 1.35 116.5 0.85 122.85 0.15 124.75 0.05 Q129.55 -0.15 134.5 0.3 L138.0 0.65 146.15 2.05 150.8 3.15 155.45 4.5 157.15 5.05 157.6 5.2 158.05 5.4 159.75 6.4 Q160.95 7.35 161.65 8.7 L183.05 82.1 M121.7 31.65 L121.3 30.3 121.65 31.65 121.7 31.65 M113.65 69.5 L115.05 69.8 Q113.05 66.3 111.9 62.05 L113.65 69.5 M131.75 70.35 L132.15 71.9 132.95 71.95 134.75 72.0 Q133.7 71.6 132.7 71.0 L131.75 70.35" fill="url(#gradient11)" fill-rule="evenodd" stroke="none"/>
      <path d="M86.45 96.55 L89.75 95.8 92.5 95.2 96.35 94.35 98.8 93.8 102.7 93.0 109.05 91.75 109.95 91.6 112.15 91.15 115.6 90.55 118.95 89.95 126.4 88.65 136.25 87.15 136.85 87.05 141.2 86.45 143.65 86.1 149.9 85.3 156.75 84.5 162.0 83.95 168.9 83.25 172.85 82.9 178.2 82.45 181.05 82.25 183.05 82.1 Q198.85 79.0 200.85 104.9 L189.55 106.0 158.7 109.55 125.5 114.45 111.35 116.9 101.1 118.8 97.6 119.5 96.8 119.65 88.45 121.3 75.25 124.1 74.8 122.55 Q70.55 106.65 76.95 100.45 79.55 97.9 83.9 96.95 L86.45 96.55" fill="url(#gradient12)" fill-rule="evenodd" stroke="none"/>
      <path d="M74.8 122.55 L75.25 124.1 88.45 121.3 96.8 119.65 97.6 119.5 101.1 118.8 111.35 116.9 Q104.5 121.75 98.7 127.1 L98.45 127.35 Q76.1 148.0 68.7 176.1 61.5 212.3 64.05 235.65 64.6 240.95 65.7 245.6 48.05 252.15 32.15 260.05 24.65 208.55 37.45 172.8 38.65 169.25 40.15 165.9 51.5 139.6 74.8 122.55" fill="url(#gradient13)" fill-rule="evenodd" stroke="none"/>
      <path d="M111.35 116.9 L125.5 114.45 158.7 109.55 189.55 106.0 200.85 104.9 Q241.7 118.6 264.8 157.75 277.35 178.95 284.65 207.7 L285.85 212.6 278.3 207.6 Q270.1 202.5 261.4 198.4 L254.95 195.55 253.35 194.9 Q245.45 192.35 237.7 190.9 231.5 189.7 225.45 189.25 185.1 186.1 149.65 213.75 L143.7 218.6 Q139.55 222.15 135.5 226.1 L135.45 226.15 135.3 226.35 Q97.65 233.7 65.7 245.6 64.6 240.95 64.05 235.65 61.5 212.3 68.7 176.1 76.1 148.0 98.45 127.35 L98.7 127.1 Q104.5 121.75 111.35 116.9 M223.9 148.05 Q222.75 141.15 220.0 138.45 219.0 146.0 212.95 153.15 208.05 158.9 198.55 159.8 L193.9 159.95 190.2 159.8 Q179.85 159.1 173.8 155.6 166.6 151.55 159.45 145.25 158.9 153.9 163.55 160.05 168.2 166.3 176.8 170.8 L180.15 172.25 Q184.85 173.95 190.75 174.2 L198.8 173.85 Q212.1 172.3 218.6 163.6 225.05 154.9 223.9 148.05" fill="url(#gradient14)" fill-rule="evenodd" stroke="none"/>
      <path d="M83.9 96.95 Q79.55 97.9 76.95 100.45 66.1 88.1 60.15 92.1 58.3 93.3 57.1 94.55 71.5 100.25 71.45 108.3 71.4 116.35 63.6 117.9 55.8 119.45 50.85 110.0 48.4 105.3 48.7 100.6 43.3 102.9 38.8 108.55 49.35 110.35 53.1 116.4 56.85 122.4 52.9 126.8 48.9 131.1 41.55 130.45 26.05 129.6 27.85 115.5 21.25 116.45 17.2 122.1 -6.1 155.85 40.15 165.9 38.65 169.25 37.45 172.8 9.7 171.25 1.75 153.15 -3.25 138.25 5.95 124.35 15.15 110.4 31.05 106.85 37.5 95.25 50.15 94.5 50.95 92.65 52.15 90.8 65.9 75.8 83.9 96.95 M35.25 113.6 Q33.95 115.45 35.3 118.85 40.65 126.5 46.4 122.4 47.35 117.35 35.25 113.6 M54.7 100.15 Q57.35 113.9 63.95 110.8 67.2 104.75 54.7 100.15" fill="url(#gradient15)" fill-rule="evenodd" stroke="none"/>
      <path d="M291.1 216.4 L310.6 217.7 Q321.3 224.7 316.05 231.95 314.75 233.7 312.5 235.45 L293.35 234.1 277.7 233.35 Q265.2 232.85 252.85 232.8 242.15 232.75 231.6 233.05 195.25 234.0 160.25 238.75 L157.55 239.15 137.05 242.35 54.45 272.2 37.4 278.35 32.25 280.2 Q29.75 278.3 28.55 273.1 27.55 268.85 27.45 262.45 L32.15 260.05 Q48.05 252.15 65.7 245.6 97.65 233.7 135.3 226.35 L135.45 226.15 135.5 226.1 141.2 226.6 149.1 226.55 163.55 223.65 Q182.6 220.15 202.65 218.2 L218.65 216.85 251.6 215.55 267.3 215.6 291.1 216.4" fill="url(#gradient16)" fill-rule="evenodd" stroke="none"/>
    </g>
    <linearGradient gradientTransform="matrix(2.0E-4, 0.0, 0.0, 8.0E-4, 121.5, 30.95)" gradientUnits="userSpaceOnUse" id="gradient0" spreadMethod="pad" x1="-819.2" x2="819.2">
      <stop offset="0.0" stop-color="#000000"/>
      <stop offset="1.0" stop-color="#ffffff"/>
    </linearGradient>
    <linearGradient gradientTransform="matrix(0.0019, 0.0, 0.0, 0.0047, 113.45, 65.9)" gradientUnits="userSpaceOnUse" id="gradient1" spreadMethod="pad" x1="-819.2" x2="819.2">
      <stop offset="0.0" stop-color="#000000"/>
      <stop offset="1.0" stop-color="#ffffff"/>
    </linearGradient>
    <linearGradient gradientTransform="matrix(0.0018, 0.0, 0.0, 0.001, 133.25, 71.15)" gradientUnits="userSpaceOnUse" id="gradient2" spreadMethod="pad" x1="-819.2" x2="819.2">
      <stop offset="0.0" stop-color="#000000"/>
      <stop offset="1.0" stop-color="#ffffff"/>
    </linearGradient>
    <linearGradient gradientTransform="matrix(0.0539, 0.0, 0.0, 0.0672, 245.0, 159.9)" gradientUnits="userSpaceOnUse" id="gradient3" spreadMethod="pad" x1="-819.2" x2="819.2">
      <stop offset="0.0" stop-color="#000000"/>
      <stop offset="1.0" stop-color="#ffffff"/>
    </linearGradient>
    <linearGradient gradientTransform="matrix(-0.0057, -0.0359, 0.0163, -0.0026, 221.85, 367.2)" gradientUnits="userSpaceOnUse" id="gradient4" spreadMethod="pad" x1="-819.2" x2="819.2">
      <stop offset="0.0" stop-color="#000000"/>
      <stop offset="1.0" stop-color="#ffffff"/>
    </linearGradient>
    <linearGradient gradientTransform="matrix(0.1302, 0.0, 0.0, 0.0645, 115.65, 325.0)" gradientUnits="userSpaceOnUse" id="gradient5" spreadMethod="pad" x1="-819.2" x2="819.2">
      <stop offset="0.0" stop-color="#000000"/>
      <stop offset="1.0" stop-color="#ffffff"/>
    </linearGradient>
    <linearGradient gradientTransform="matrix(-0.0209, 0.0703, -0.0507, -0.0151, 275.25, 328.0)" gradientUnits="userSpaceOnUse" id="gradient6" spreadMethod="pad" x1="-819.2" x2="819.2">
      <stop offset="0.0" stop-color="#000000"/>
      <stop offset="1.0" stop-color="#ffffff"/>
    </linearGradient>
    <linearGradient gradientTransform="matrix(0.0356, 0.0, 0.0, 0.0201, 306.45, 261.4)" gradientUnits="userSpaceOnUse" id="gradient7" spreadMethod="pad" x1="-819.2" x2="819.2">
      <stop offset="0.0" stop-color="#000000"/>
      <stop offset="1.0" stop-color="#ffffff"/>
    </linearGradient>
    <linearGradient gradientTransform="matrix(0.0438, 0.0, 0.0, 0.0104, 304.45, 243.35)" gradientUnits="userSpaceOnUse" id="gradient8" spreadMethod="pad" x1="-819.2" x2="819.2">
      <stop offset="0.0" stop-color="#000000"/>
      <stop offset="1.0" stop-color="#ffffff"/>
    </linearGradient>
    <linearGradient gradientTransform="matrix(0.0093, -0.0552, 0.0226, 0.0038, 213.3, 207.75)" gradientUnits="userSpaceOnUse" id="gradient9" spreadMethod="pad" x1="-819.2" x2="819.2">
      <stop offset="0.0" stop-color="#000000"/>
      <stop offset="1.0" stop-color="#ffffff"/>
    </linearGradient>
    <linearGradient gradientTransform="matrix(-0.0165, -0.0358, 0.0198, -0.0091, 191.65, 156.35)" gradientUnits="userSpaceOnUse" id="gradient10" spreadMethod="pad" x1="-819.2" x2="819.2">
      <stop offset="0.0" stop-color="#000000"/>
      <stop offset="1.0" stop-color="#ffffff"/>
    </linearGradient>
    <linearGradient gradientTransform="matrix(-0.0248, -0.0605, 0.0544, -0.0224, 129.45, 48.25)" gradientUnits="userSpaceOnUse" id="gradient11" spreadMethod="pad" x1="-819.2" x2="819.2">
      <stop offset="0.0" stop-color="#000000"/>
      <stop offset="1.0" stop-color="#ffffff"/>
    </linearGradient>
    <linearGradient gradientTransform="matrix(-0.0549, -0.0552, 0.0183, -0.0182, 137.15, 103.05)" gradientUnits="userSpaceOnUse" id="gradient12" spreadMethod="pad" x1="-819.2" x2="819.2">
      <stop offset="0.0" stop-color="#000000"/>
      <stop offset="1.0" stop-color="#ffffff"/>
    </linearGradient>
    <linearGradient gradientTransform="matrix(0.043, -0.0822, 0.0772, 0.0404, 71.8, 187.2)" gradientUnits="userSpaceOnUse" id="gradient13" spreadMethod="pad" x1="-819.2" x2="819.2">
      <stop offset="0.0" stop-color="#000000"/>
      <stop offset="1.0" stop-color="#ffffff"/>
    </linearGradient>
    <linearGradient gradientTransform="matrix(0.0822, -0.3281, 0.083, 0.0208, 172.65, 178.1)" gradientUnits="userSpaceOnUse" id="gradient14" spreadMethod="pad" x1="-819.2" x2="819.2">
      <stop offset="0.0" stop-color="#000000"/>
      <stop offset="1.0" stop-color="#ffffff"/>
    </linearGradient>
    <linearGradient gradientTransform="matrix(-0.0045, -0.1716, 0.0538, -0.0014, 41.95, 128.7)" gradientUnits="userSpaceOnUse" id="gradient15" spreadMethod="pad" x1="-819.2" x2="819.2">
      <stop offset="0.0" stop-color="#000000"/>
      <stop offset="1.0" stop-color="#ffffff"/>
    </linearGradient>
    <linearGradient gradientTransform="matrix(0.3199, 0.0, 0.0, 0.0395, 172.6, 247.85)" gradientUnits="userSpaceOnUse" id="gradient16" spreadMethod="pad" x1="-819.2" x2="819.2">
      <stop offset="0.0" stop-color="#000000"/>
      <stop offset="1.0" stop-color="#ffffff"/>
    </linearGradient>
    <g id="sprite2" transform="matrix(1.0, 0.0, 0.0, 1.0, 0.0, 0.0)">
      <use height="55.0" transform="matrix(2.7636, 0.0, 0.0, 2.7636, 0.0, 0.0)" width="55.0" xlink:href="#shape2"/>
    </g>
    <g id="shape2" transform="matrix(1.0, 0.0, 0.0, 1.0, 0.0, 0.0)">
      <path d="M46.95 8.05 Q55.0 16.1 55.0 27.5 55.0 38.9 46.95 46.95 38.9 55.0 27.5 55.0 16.1 55.0 8.05 46.95 0.0 38.9 0.0 27.5 0.0 16.1 8.05 8.05 16.1 0.0 27.5 0.0 38.9 0.0 46.95 8.05" fill="#ff0000" fill-rule="evenodd" stroke="none"/>
    </g>
  </defs>
</svg>
