<?xml version="1.0" encoding="UTF-8" standalone="no"?>
<svg xmlns:xlink="http://www.w3.org/1999/xlink" height="531.5px" width="460.6px" xmlns="http://www.w3.org/2000/svg">
  <g transform="matrix(1.0, 0.0, 0.0, 1.0, 193.65, 334.05)">
    <use height="17.05" transform="matrix(1.9412, 0.0, 0.0, 1.9412, 23.1794, -34.9706)" width="16.05" xlink:href="#sprite0"/>
  </g>
  <defs>
    <g id="sprite0" transform="matrix(1.0, 0.0, 0.0, 1.0, 0.5, 0.5)">
      <use height="17.05" transform="matrix(1.0, 0.0, 0.0, 1.0, -0.5, -0.5)" width="16.05" xlink:href="#shape0"/>
      <use height="16.05" transform="matrix(1.0, 0.0, 0.0, 1.0, 0.0, 0.0)" width="15.05" xlink:href="#sprite1"/>
    </g>
    <g id="shape0" transform="matrix(1.0, 0.0, 0.0, 1.0, 0.5, 0.5)">
      <path d="M11.15 3.75 L10.8 3.3 Q10.65 3.25 10.45 3.7 L10.35 4.95 Q10.35 5.65 10.5 6.2 L10.85 6.75 11.2 6.2 11.35 5.0 11.15 3.75 M4.4 9.95 Q4.8 11.05 5.55 11.35 6.6 11.9 8.2 11.85 9.55 11.85 10.5 11.25 11.4 10.7 11.5 10.05 11.4 10.7 10.5 11.25 9.55 11.85 8.2 11.85 6.6 11.9 5.55 11.35 4.8 11.05 4.4 9.95 M15.05 8.0 Q15.1 11.05 13.2 13.4 11.2 15.85 8.2 16.05 4.9 16.25 2.55 13.9 0.0 11.4 0.0 7.9 0.0 4.3 2.5 2.0 4.75 -0.25 7.95 0.0 10.85 0.2 12.9 2.6 14.95 4.85 15.05 8.0 M5.45 3.5 L5.1 3.0 Q4.85 2.95 4.7 3.5 4.5 4.0 4.55 4.8 4.55 5.5 4.7 6.05 L5.1 6.65 5.45 6.1 5.7 4.85 5.45 3.5" fill="#ffd222" fill-rule="evenodd" stroke="none"/>
      <path d="M11.15 3.75 L11.35 5.0 11.2 6.2 10.85 6.75 10.5 6.2 Q10.35 5.65 10.35 4.95 L10.45 3.7 Q10.65 3.25 10.8 3.3 L11.15 3.75 M5.45 3.5 L5.7 4.85 5.45 6.1 5.1 6.65 4.7 6.05 Q4.55 5.5 4.55 4.8 4.5 4.0 4.7 3.5 4.85 2.95 5.1 3.0 L5.45 3.5" fill="#000000" fill-rule="evenodd" stroke="none"/>
      <path d="M11.5 10.05 Q11.4 10.7 10.5 11.25 9.55 11.85 8.2 11.85 6.6 11.9 5.55 11.35 4.8 11.05 4.4 9.95 M15.05 8.0 Q15.1 11.05 13.2 13.4 11.2 15.85 8.2 16.05 4.9 16.25 2.55 13.9 0.0 11.4 0.0 7.9 0.0 4.3 2.5 2.0 4.75 -0.25 7.95 0.0 10.85 0.2 12.9 2.6 14.95 4.85 15.05 8.0" fill="none" stroke="#000000" stroke-linecap="round" stroke-linejoin="round" stroke-opacity="0.6627451" stroke-width="1.0"/>
    </g>
    <g id="sprite1" transform="matrix(1.0, 0.0, 0.0, 1.0, 0.0, 0.0)">
      <use height="16.05" transform="matrix(1.0, 0.0, 0.0, 1.0, 0.0, 0.0)" width="15.05" xlink:href="#shape1"/>
    </g>
    <g id="shape1" transform="matrix(1.0, 0.0, 0.0, 1.0, 0.0, 0.0)">
      <path d="M11.35 5.0 L11.15 3.75 10.8 3.3 Q10.65 3.25 10.45 3.7 L10.35 4.95 Q10.35 5.65 10.5 6.2 L10.85 6.75 11.2 6.2 11.35 5.0 M15.05 8.0 Q15.1 11.05 13.2 13.4 11.2 15.85 8.2 16.05 4.9 16.25 2.55 13.9 0.0 11.4 0.0 7.9 0.0 4.3 2.5 2.0 4.75 -0.25 7.95 0.0 10.85 0.2 12.9 2.6 14.95 4.85 15.05 8.0 M5.45 6.1 L5.7 4.85 5.45 3.5 5.1 3.0 Q4.85 2.95 4.7 3.5 4.5 4.0 4.55 4.8 4.55 5.5 4.7 6.05 L5.1 6.65 5.45 6.1" fill="url(#gradient0)" fill-rule="evenodd" stroke="none"/>
    </g>
    <linearGradient gradientTransform="matrix(-0.0155, -0.009, 0.0049, -0.0085, 9.2, 8.8)" gradientUnits="userSpaceOnUse" id="gradient0" spreadMethod="pad" x1="-819.2" x2="819.2">
      <stop offset="0.0" stop-color="#000000"/>
      <stop offset="1.0" stop-color="#ffffff"/>
    </linearGradient>
  </defs>
</svg>
