<?xml version="1.0" encoding="UTF-8" standalone="no"?>
<svg xmlns:xlink="http://www.w3.org/1999/xlink" height="531.5px" width="460.6px" xmlns="http://www.w3.org/2000/svg">
  <g transform="matrix(1.0, 0.0, 0.0, 1.0, 193.65, 334.05)">
    <use height="21.45" transform="matrix(2.0067, 0.0, 0.0, 2.0067, -0.7534, -33.6534)" width="25.55" xlink:href="#sprite0"/>
  </g>
  <defs>
    <g id="sprite0" transform="matrix(1.0, 0.0, 0.0, 1.0, 0.5, 0.5)">
      <use height="21.45" transform="matrix(1.0, 0.0, 0.0, 1.0, -0.5, -0.5)" width="25.55" xlink:href="#shape0"/>
      <use height="20.45" transform="matrix(1.0, 0.0, 0.0, 1.0, 0.0, 0.0)" width="24.55" xlink:href="#sprite1"/>
    </g>
    <g id="shape0" transform="matrix(1.0, 0.0, 0.0, 1.0, 0.5, 0.5)">
      <path d="M20.1 15.75 L19.4 19.3 17.9 17.7 Q17.45 16.3 17.3 15.3 L17.25 14.5 18.2 14.7 20.5 14.75 20.15 15.4 20.1 15.75 M15.4 16.3 L12.85 19.05 12.1 17.8 11.45 16.75 13.65 15.25 13.95 16.15 Q14.05 16.4 14.8 16.4 L15.4 16.3 M9.1 5.9 L6.2 2.2 12.3 4.1 15.4 0.0 16.3 5.1 22.3 3.7 21.25 6.3 16.6 6.5 Q15.45 7.5 16.5 8.7 L19.2 9.05 Q17.95 10.75 17.5 12.4 L15.7 12.6 Q16.55 10.2 14.15 7.55 14.55 6.95 13.8 6.3 L9.1 5.9" fill="#5c0101" fill-rule="evenodd" stroke="none"/>
      <path d="M23.05 9.6 L23.3 9.7 21.9 12.3 17.45 12.55 17.5 12.4 20.1 11.5 Q22.05 10.65 23.05 9.6" fill="#7e0101" fill-rule="evenodd" stroke="none"/>
      <path d="M21.25 8.6 L23.05 9.6 Q22.05 10.65 20.1 11.5 L17.5 12.4 Q17.95 10.75 19.2 9.05 L21.25 8.6" fill="#a00101" fill-rule="evenodd" stroke="none"/>
      <path d="M21.25 6.3 L20.45 8.15 21.25 8.6 19.2 9.05 16.5 8.7 Q15.45 7.5 16.6 6.5 L21.25 6.3 M21.9 12.3 L21.05 13.8 20.5 14.75 18.2 14.7 17.25 14.5 17.2 14.5 Q15.85 13.15 17.3 12.5 L17.45 12.55 21.9 12.3 M9.95 7.0 L9.1 5.9 13.8 6.3 Q14.55 6.95 14.15 7.55 L14.0 8.1 10.05 8.35 10.6 7.85 9.95 7.0 M11.6 11.3 L12.3 11.3 Q12.85 11.5 13.05 11.9 13.25 12.5 12.8 13.5 L7.2 13.3 5.2 12.7 7.75 10.45 11.6 11.3" fill="#feffee" fill-rule="evenodd" stroke="none"/>
      <path d="M21.8 14.4 L23.3 15.7 Q26.35 17.3 22.1 19.3 L20.1 15.75 20.15 15.4 20.5 14.75 21.8 14.4 M12.1 17.8 L11.2 20.1 Q10.35 21.0 9.9 19.7 10.4 18.25 10.2 16.85 9.3 14.5 6.95 14.3 L5.4 13.65 Q3.45 15.3 2.15 14.55 0.25 13.85 2.25 12.35 L4.95 10.25 Q3.3 9.8 4.65 8.55 L6.25 7.95 0.7 5.65 Q-1.4 2.7 2.9 5.0 6.75 6.85 9.95 7.0 L10.6 7.85 10.05 8.35 9.95 8.5 9.9 8.5 9.3 9.05 7.75 10.45 5.2 12.7 7.2 13.3 9.9 14.15 11.45 16.75 12.1 17.8" fill="#d50000" fill-rule="evenodd" stroke="none"/>
      <path d="M13.05 11.9 Q12.85 11.5 12.3 11.3 L11.6 11.3 Q9.35 10.2 9.3 9.05 L9.9 8.5 9.95 8.5 10.05 8.35 14.0 8.1 14.15 7.55 Q16.55 10.2 15.7 12.6 14.7 12.6 13.05 11.9" fill="#6b0342" fill-rule="evenodd" stroke="none"/>
      <path d="M13.05 11.9 Q14.7 12.6 15.7 12.6 15.2 13.9 13.75 15.2 L13.65 15.25 11.45 16.75 9.9 14.15 7.2 13.3 12.8 13.5 Q13.25 12.5 13.05 11.9 M9.3 9.05 Q9.35 10.2 11.6 11.3 L7.75 10.45 9.3 9.05" fill="#420229" fill-rule="evenodd" stroke="none"/>
      <path d="M17.9 17.7 L16.0 15.65 15.4 16.3 14.8 16.4 Q14.05 16.4 13.95 16.15 L13.65 15.25 13.75 15.2 Q15.2 13.9 15.7 12.6 L17.5 12.4 17.45 12.55 17.3 12.5 Q15.85 13.15 17.2 14.5 L17.25 14.5 17.3 15.3 Q17.45 16.3 17.9 17.7" fill="#6d0101" fill-rule="evenodd" stroke="none"/>
      <path d="M21.25 6.3 L20.45 8.15 21.25 8.6 23.05 9.6 23.3 9.7 21.9 12.3 21.05 13.8 21.8 14.4 23.3 15.7 Q26.35 17.3 22.1 19.3 L20.1 15.75 19.4 19.3 17.9 17.7 16.0 15.65 15.4 16.3 12.85 19.05 12.1 17.8 11.2 20.1 Q10.35 21.0 9.9 19.7 10.4 18.25 10.2 16.85 9.3 14.5 6.95 14.3 L5.4 13.65 Q3.45 15.3 2.15 14.55 0.25 13.85 2.25 12.35 L4.95 10.25 Q3.3 9.8 4.65 8.55 L6.25 7.95 0.7 5.65 Q-1.4 2.7 2.9 5.0 6.75 6.85 9.95 7.0 L9.1 5.9 6.2 2.2 12.3 4.1 15.4 0.0 16.3 5.1 22.3 3.7 21.25 6.3 16.6 6.5 Q15.45 7.5 16.5 8.7 L19.2 9.05 21.25 8.6 M20.5 14.75 L21.8 14.4 M21.05 13.8 L20.5 14.75 20.15 15.4 20.1 15.75 M11.6 11.3 L12.3 11.3 Q12.85 11.5 13.05 11.9 13.25 12.5 12.8 13.5 L7.2 13.3 5.2 12.7 7.75 10.45 9.3 9.05 9.9 8.5 M15.7 12.6 Q16.55 10.2 14.15 7.55 L14.0 8.1 10.05 8.35 9.95 8.5 M11.6 11.3 L7.75 10.45 M9.1 5.9 L13.8 6.3 Q14.55 6.95 14.15 7.55 M11.45 16.75 L9.9 14.15 7.2 13.3 M17.25 14.5 L17.3 15.3 Q17.45 16.3 17.9 17.7 M17.45 12.55 L17.5 12.4 Q17.95 10.75 19.2 9.05 M15.7 12.6 Q15.2 13.9 13.75 15.2 M17.25 14.5 L17.2 14.5 Q15.85 13.15 17.3 12.5 L17.45 12.55 21.9 12.3 M20.5 14.75 L18.2 14.7 17.25 14.5 M13.65 15.25 L11.45 16.75 12.1 17.8 M10.05 8.35 L10.6 7.85 9.95 7.0" fill="none" stroke="#000000" stroke-linecap="round" stroke-linejoin="round" stroke-opacity="0.6627451" stroke-width="1.0"/>
    </g>
    <g id="sprite1" transform="matrix(1.0, 0.0, 0.0, 1.0, 0.0, 0.0)">
      <use height="20.45" transform="matrix(1.0, 0.0, 0.0, 1.0, 0.0, 0.0)" width="24.55" xlink:href="#shape1"/>
    </g>
    <g id="shape1" transform="matrix(1.0, 0.0, 0.0, 1.0, 0.0, 0.0)">
      <path d="M9.95 7.0 L9.1 5.9 13.8 6.3 Q14.55 6.95 14.15 7.55 L14.0 8.1 10.05 8.35 10.6 7.85 9.95 7.0" fill="url(#gradient0)" fill-rule="evenodd" stroke="none"/>
      <path d="M14.15 7.55 Q16.55 10.2 15.7 12.6 15.2 13.9 13.75 15.2 L13.65 15.25 11.45 16.75 9.9 14.15 7.2 13.3 12.8 13.5 Q13.25 12.5 13.05 11.9 12.85 11.5 12.3 11.3 L11.6 11.3 7.75 10.45 9.9 8.5 9.95 8.5 10.05 8.35 14.0 8.1 14.15 7.55" fill="url(#gradient1)" fill-rule="evenodd" stroke="none"/>
      <path d="M7.75 10.45 L11.6 11.3 12.3 11.3 Q12.85 11.5 13.05 11.9 13.25 12.5 12.8 13.5 L7.2 13.3 5.2 12.7 7.75 10.45" fill="url(#gradient2)" fill-rule="evenodd" stroke="none"/>
      <path d="M17.5 12.55 L17.45 12.55 17.5 12.4 17.5 12.55" fill="url(#gradient3)" fill-rule="evenodd" stroke="none"/>
      <path d="M17.3 12.5 L17.3 12.45 17.5 12.4 17.45 12.55 17.3 12.5" fill="url(#gradient4)" fill-rule="evenodd" stroke="none"/>
      <path d="M20.5 14.75 L21.8 14.4 23.3 15.7 Q26.35 17.3 22.1 19.3 L20.1 15.75 20.15 15.4 20.5 14.75" fill="url(#gradient5)" fill-rule="evenodd" stroke="none"/>
      <path d="M12.1 17.8 L11.2 20.1 Q10.35 21.0 9.9 19.7 10.4 18.25 10.2 16.85 9.3 14.5 6.95 14.3 L5.4 13.65 Q3.45 15.3 2.15 14.55 0.25 13.85 2.25 12.35 L4.95 10.25 Q3.3 9.8 4.65 8.55 L6.25 7.95 0.7 5.65 Q-1.4 2.7 2.9 5.0 6.75 6.85 9.95 7.0 L10.6 7.85 10.05 8.35 9.95 8.5 9.9 8.5 7.75 10.45 5.2 12.7 7.2 13.3 9.9 14.15 11.45 16.75 12.1 17.8" fill="url(#gradient6)" fill-rule="evenodd" stroke="none"/>
      <path d="M21.25 6.3 L20.45 8.15 21.25 8.6 19.2 9.05 16.5 8.7 Q15.45 7.5 16.6 6.5 L21.25 6.3" fill="url(#gradient7)" fill-rule="evenodd" stroke="none"/>
      <path d="M21.9 12.3 L20.5 14.75 18.2 14.7 17.25 14.5 17.2 14.5 Q15.85 13.15 17.3 12.5 L17.45 12.55 17.5 12.55 21.9 12.3" fill="url(#gradient8)" fill-rule="evenodd" stroke="none"/>
      <path d="M9.1 5.9 L6.2 2.2 12.3 4.1 15.4 0.0 16.3 5.1 22.3 3.7 21.25 6.3 16.6 6.5 Q15.45 7.5 16.5 8.7 L19.2 9.05 Q17.95 10.75 17.5 12.4 L17.3 12.45 17.3 12.5 Q15.85 13.15 17.2 14.5 L17.25 14.5 17.3 15.3 Q17.45 16.3 17.9 17.7 L16.0 15.65 12.85 19.05 12.1 17.8 11.45 16.75 13.65 15.25 13.75 15.2 Q15.2 13.9 15.7 12.6 16.55 10.2 14.15 7.55 14.55 6.95 13.8 6.3 L9.1 5.9" fill="url(#gradient9)" fill-rule="evenodd" stroke="none"/>
      <path d="M21.25 8.6 L23.05 9.6 23.3 9.7 21.9 12.3 17.5 12.55 17.5 12.4 Q17.95 10.75 19.2 9.05 L21.25 8.6" fill="url(#gradient10)" fill-rule="evenodd" stroke="none"/>
      <path d="M20.1 15.75 L19.4 19.3 17.9 17.7 Q17.45 16.3 17.3 15.3 L17.25 14.5 18.2 14.7 20.5 14.75 20.15 15.4 20.1 15.75" fill="url(#gradient11)" fill-rule="evenodd" stroke="none"/>
    </g>
    <linearGradient gradientTransform="matrix(0.0032, 0.0, 0.0, 0.0017, 11.7, 7.25)" gradientUnits="userSpaceOnUse" id="gradient0" spreadMethod="pad" x1="-819.2" x2="819.2">
      <stop offset="0.0" stop-color="#000000"/>
      <stop offset="1.0" stop-color="#ffffff"/>
    </linearGradient>
    <linearGradient gradientTransform="matrix(0.0053, 0.0, 0.0, 0.0056, 11.55, 12.15)" gradientUnits="userSpaceOnUse" id="gradient1" spreadMethod="pad" x1="-819.2" x2="819.2">
      <stop offset="0.0" stop-color="#000000"/>
      <stop offset="1.0" stop-color="#ffffff"/>
    </linearGradient>
    <linearGradient gradientTransform="matrix(0.0048, 0.0, 0.0, 0.002, 9.15, 12.05)" gradientUnits="userSpaceOnUse" id="gradient2" spreadMethod="pad" x1="-819.2" x2="819.2">
      <stop offset="0.0" stop-color="#000000"/>
      <stop offset="1.0" stop-color="#ffffff"/>
    </linearGradient>
    <linearGradient gradientTransform="matrix(0.0, 0.0, 0.0, 1.0E-4, 17.45, 12.45)" gradientUnits="userSpaceOnUse" id="gradient3" spreadMethod="pad" x1="-819.2" x2="819.2">
      <stop offset="0.0" stop-color="#000000"/>
      <stop offset="1.0" stop-color="#ffffff"/>
    </linearGradient>
    <linearGradient gradientTransform="matrix(1.0E-4, 0.0, 0.0, 1.0E-4, 17.4, 12.45)" gradientUnits="userSpaceOnUse" id="gradient4" spreadMethod="pad" x1="-819.2" x2="819.2">
      <stop offset="0.0" stop-color="#000000"/>
      <stop offset="1.0" stop-color="#ffffff"/>
    </linearGradient>
    <linearGradient gradientTransform="matrix(0.01, 0.0, 0.0, 0.003, 22.3, 16.85)" gradientUnits="userSpaceOnUse" id="gradient5" spreadMethod="pad" x1="-819.2" x2="819.2">
      <stop offset="0.0" stop-color="#000000"/>
      <stop offset="1.0" stop-color="#ffffff"/>
    </linearGradient>
    <linearGradient gradientTransform="matrix(-0.0217, -0.0125, 0.005, -0.0087, 6.05, 12.35)" gradientUnits="userSpaceOnUse" id="gradient6" spreadMethod="pad" x1="-819.2" x2="819.2">
      <stop offset="0.0" stop-color="#000000"/>
      <stop offset="1.0" stop-color="#ffffff"/>
    </linearGradient>
    <linearGradient gradientTransform="matrix(-0.0061, 0.0, 0.0, -0.0017, 19.8, 8.15)" gradientUnits="userSpaceOnUse" id="gradient7" spreadMethod="pad" x1="-819.2" x2="819.2">
      <stop offset="0.0" stop-color="#000000"/>
      <stop offset="1.0" stop-color="#ffffff"/>
    </linearGradient>
    <linearGradient gradientTransform="matrix(-0.0066, -0.0018, 4.0E-4, -0.0015, 20.55, 13.75)" gradientUnits="userSpaceOnUse" id="gradient8" spreadMethod="pad" x1="-819.2" x2="819.2">
      <stop offset="0.0" stop-color="#000000"/>
      <stop offset="1.0" stop-color="#ffffff"/>
    </linearGradient>
    <linearGradient gradientTransform="matrix(0.0173, 0.0, 0.0, 0.0116, 15.6, 9.9)" gradientUnits="userSpaceOnUse" id="gradient9" spreadMethod="pad" x1="-819.2" x2="819.2">
      <stop offset="0.0" stop-color="#000000"/>
      <stop offset="1.0" stop-color="#ffffff"/>
    </linearGradient>
    <linearGradient gradientTransform="matrix(-0.0049, -0.0029, 0.0012, -0.0021, 20.4, 10.8)" gradientUnits="userSpaceOnUse" id="gradient10" spreadMethod="pad" x1="-819.2" x2="819.2">
      <stop offset="0.0" stop-color="#000000"/>
      <stop offset="1.0" stop-color="#ffffff"/>
    </linearGradient>
    <linearGradient gradientTransform="matrix(-0.0036, -0.001, 8.0E-4, -0.0028, 18.85, 16.9)" gradientUnits="userSpaceOnUse" id="gradient11" spreadMethod="pad" x1="-819.2" x2="819.2">
      <stop offset="0.0" stop-color="#000000"/>
      <stop offset="1.0" stop-color="#ffffff"/>
    </linearGradient>
  </defs>
</svg>
