<?xml version="1.0" encoding="UTF-8" standalone="no"?>
<svg xmlns:xlink="http://www.w3.org/1999/xlink" height="531.5px" width="460.6px" xmlns="http://www.w3.org/2000/svg">
  <g transform="matrix(1.0, 0.0, 0.0, 1.0, 193.65, 334.05)">
    <use height="52.3" transform="matrix(0.7797, 0.0, 0.0, 0.7797, 9.5551, -145.8224)" width="104.3" xlink:href="#sprite0"/>
  </g>
  <defs>
    <g id="sprite0" transform="matrix(1.0, 0.0, 0.0, 1.0, 52.0, 26.0)">
      <use height="52.3" transform="matrix(1.0, 0.0, 0.0, 1.0, -52.0, -26.0)" width="104.3" xlink:href="#shape0"/>
      <use height="51.05" transform="matrix(1.0, 0.0, 0.0, 1.0, -51.5, -25.5)" width="103.05" xlink:href="#sprite1"/>
    </g>
    <g id="shape0" transform="matrix(1.0, 0.0, 0.0, 1.0, 52.0, 26.0)">
      <path d="M10.5 -14.55 L9.6 -14.55 8.1 -13.5 7.6 -12.95 Q7.45 -12.75 7.45 -12.45 7.45 -12.15 7.95 -11.95 L8.65 -11.8 Q9.45 -11.8 10.6 -12.8 11.65 -13.7 11.65 -14.15 11.65 -14.4 10.7 -14.5 L10.5 -14.55 M14.0 -13.95 L13.75 -13.65 Q13.8 -13.05 14.35 -12.7 14.95 -12.25 15.75 -12.15 L17.15 -11.9 18.85 -11.6 20.65 -11.35 22.35 -10.9 23.45 -10.7 24.4 -9.75 23.15 -8.55 Q21.3 -6.95 19.05 -5.9 21.3 -6.95 23.15 -8.55 L23.45 -8.5 23.3 -8.35 23.05 -7.7 Q23.05 -7.5 25.8 -6.8 28.5 -6.1 30.25 -5.25 L29.2 -4.2 29.15 -4.15 Q28.45 -3.7 28.45 -3.55 L28.45 -3.5 Q28.6 -3.25 30.95 -2.5 L34.1 -1.45 36.65 0.1 37.55 0.9 36.95 1.35 36.3 1.55 35.8 2.05 Q35.8 2.5 36.4 2.65 L37.5 2.85 Q38.05 3.0 39.85 4.05 41.0 4.6 42.35 5.7 L43.05 6.3 43.2 6.55 42.75 6.9 42.1 7.1 Q41.6 7.35 41.5 7.7 L41.45 7.95 Q41.45 8.9 43.1 9.3 43.55 9.4 44.25 9.95 L45.65 11.05 48.2 13.5 48.7 15.1 Q48.1 15.3 47.6 15.6 L46.75 14.3 Q44.75 13.3 43.05 13.8 L42.8 13.2 Q42.4 12.2 41.25 11.25 40.2 10.35 38.75 10.1 L36.6 9.8 36.55 9.6 Q39.15 9.1 41.5 7.7 39.15 9.1 36.55 9.6 L36.5 9.0 36.3 7.95 35.8 7.35 35.35 6.8 Q32.65 4.15 30.8 4.15 L30.3 4.15 30.25 4.0 30.2 3.9 30.05 3.6 30.05 3.5 30.05 3.4 28.85 2.1 30.05 3.4 30.05 3.5 30.05 3.6 30.15 4.0 30.2 4.4 30.3 5.55 30.35 5.85 30.35 6.0 30.35 7.0 30.35 7.15 30.45 6.0 30.6 6.0 33.6 9.75 Q36.15 12.75 36.65 14.4 L36.65 14.55 36.75 14.55 36.75 13.0 36.75 11.85 36.9 11.9 Q38.7 12.85 40.65 14.75 L43.3 17.45 43.6 17.45 43.45 16.6 42.9 14.6 42.7 13.9 43.05 13.8 43.25 14.45 43.3 14.65 Q44.75 14.95 45.85 16.0 L47.8 18.1 Q49.45 19.95 50.65 22.05 51.3 23.9 51.55 25.55 L50.45 25.5 50.05 25.45 49.55 25.25 Q46.4 24.0 44.05 21.7 L44.0 23.6 43.95 24.6 42.9 24.45 40.25 21.75 Q37.8 19.0 36.45 15.7 L36.65 14.4 36.45 15.7 35.75 18.8 35.45 19.6 34.5 18.45 32.6 15.75 30.85 12.4 30.0 10.2 30.35 7.2 30.35 7.15 30.35 7.2 30.0 10.2 29.3 13.0 28.6 14.7 Q27.4 13.7 25.55 10.1 23.8 6.65 23.25 4.45 23.15 6.15 22.65 7.85 L21.85 9.95 20.9 9.6 19.85 8.4 17.8 4.85 16.8 2.85 16.85 5.85 16.7 6.85 15.9 6.8 13.55 5.4 10.55 2.75 8.45 0.4 8.15 -2.5 8.45 0.4 8.3 3.0 7.95 4.8 6.5 4.55 Q3.45 2.55 1.35 -0.1 -1.65 -3.95 -1.65 -7.7 L-1.6 -8.65 -1.3 -9.05 -0.75 -9.1 Q-0.4 -9.15 -0.4 -9.5 L-0.9 -9.95 -1.25 -10.1 -1.55 -10.25 Q-16.9 -16.9 -34.8 -21.35 L-51.45 -24.9 -51.45 -25.5 Q-42.95 -24.15 -34.8 -22.25 -23.0 -19.5 -12.0 -15.7 -6.75 -13.95 -1.6 -11.85 -1.5 -13.2 -1.0 -14.25 L-0.7 -12.8 Q-0.4 -11.9 0.0 -11.9 0.95 -13.25 2.95 -14.6 6.5 -17.05 11.05 -17.3 13.3 -16.65 15.0 -15.35 L14.0 -13.95 M10.4 -6.75 L10.0 -6.7 9.3 -6.7 10.0 -6.7 10.4 -6.75 M-1.65 -11.35 L-1.6 -11.85 -1.65 -11.35 M7.15 -6.25 L9.3 -6.7 Q8.6 -7.65 8.15 -8.85 L8.2 -9.1 6.2 -8.1 4.7 -7.55 3.6 -7.65 3.0 -7.8 1.9 -8.2 3.65 -6.95 6.6 -4.35 8.15 -2.5 Q7.85 -4.35 7.15 -6.25 M13.85 -5.3 L13.35 -5.75 12.95 -5.95 12.7 -6.1 12.35 -6.05 11.95 -6.25 11.35 -6.4 11.3 -6.35 11.0 -6.35 12.65 -4.7 14.3 -2.1 Q15.85 0.45 16.4 1.95 L16.8 2.85 Q16.55 0.5 15.7 -1.7 L15.75 -1.7 16.8 -1.9 18.1 -2.0 Q20.9 -2.0 22.1 0.15 L23.05 2.55 23.1 1.8 23.3 1.8 23.3 1.85 23.3 3.5 23.25 4.45 23.3 3.5 23.3 1.85 24.2 0.95 23.7 -0.55 23.85 -0.9 24.55 -1.15 Q23.45 -1.7 21.85 -3.05 20.0 -4.6 19.05 -5.9 18.0 -5.35 16.8 -4.95 L14.5 -4.35 14.05 -5.2 13.85 -5.3 M17.5 -8.5 Q17.05 -7.85 17.05 -7.45 17.05 -7.05 17.4 -6.85 L17.9 -6.7 Q19.05 -6.7 20.55 -7.85 21.9 -8.95 21.9 -9.6 L21.8 -10.1 21.5 -10.15 19.85 -9.65 18.9 -9.45 18.65 -9.4 Q18.05 -9.1 17.5 -8.5 M8.2 -9.1 Q11.45 -10.9 13.75 -13.65 11.45 -10.9 8.2 -9.1 M24.0 -3.1 L24.6 -3.0 Q25.85 -3.0 27.1 -3.8 L28.35 -4.9 27.25 -5.2 27.05 -5.2 25.2 -4.5 Q23.6 -3.85 23.6 -3.4 L24.0 -3.1 M25.4 0.65 L24.6 0.65 Q24.35 0.75 24.2 0.95 24.35 0.75 24.6 0.65 L25.4 0.65 25.45 0.65 26.2 0.7 25.9 0.6 25.55 0.5 25.4 0.65 M28.45 -3.5 Q26.75 -2.1 24.55 -1.15 26.75 -2.1 28.45 -3.5 M33.95 -0.1 L33.35 -0.05 32.55 -0.05 Q29.75 0.85 29.75 1.4 L30.3 1.8 31.2 1.95 33.45 1.4 Q34.6 0.85 34.6 0.25 34.6 0.05 34.05 -0.05 L33.95 -0.1 M40.65 5.35 L40.6 5.35 39.55 5.3 Q38.6 5.3 37.9 5.65 37.2 6.0 37.2 6.5 37.2 7.05 37.8 7.2 L38.8 7.25 40.3 7.0 Q41.2 6.65 41.2 6.1 41.2 5.6 40.65 5.35 M45.15 12.0 L43.85 11.85 43.25 11.95 Q43.05 12.05 43.05 12.3 43.05 12.65 43.4 12.8 L44.0 13.0 45.85 13.0 45.85 12.45 45.35 12.1 45.25 12.0 45.15 12.0 M44.05 21.7 L43.6 17.45 44.05 21.7 M35.8 2.05 Q33.2 3.5 30.25 4.0 33.2 3.5 35.8 2.05" fill="#ffcc00" fill-rule="evenodd" stroke="none"/>
      <path d="M13.75 -13.65 L14.0 -13.95 Q20.15 -13.5 23.45 -10.7 L22.35 -10.9 20.65 -11.35 18.85 -11.6 17.15 -11.9 15.75 -12.15 Q14.95 -12.25 14.35 -12.7 13.8 -13.05 13.75 -13.65 M11.05 -17.3 Q6.5 -17.05 2.95 -14.6 0.95 -13.25 0.0 -11.9 -0.4 -11.9 -0.7 -12.8 L-1.0 -14.25 -0.95 -14.35 Q0.0 -16.3 2.25 -17.6 L11.05 -17.3 M8.45 0.4 L10.55 2.75 13.55 5.4 15.9 6.8 Q12.15 6.4 8.3 3.0 L8.45 0.4 M16.85 5.85 L16.8 2.85 17.8 4.85 19.85 8.4 20.9 9.6 Q19.3 8.8 17.95 7.25 L16.85 5.85 M22.65 7.85 Q23.15 6.15 23.25 4.45 23.8 6.65 25.55 10.1 27.4 13.7 28.6 14.7 L28.55 14.75 Q25.05 13.15 22.65 7.85 M30.25 -5.25 Q28.5 -6.1 25.8 -6.8 23.05 -7.5 23.05 -7.7 L23.3 -8.35 23.45 -8.5 Q28.0 -8.05 30.5 -5.65 L30.25 -5.25 M28.45 -3.5 L29.15 -4.15 Q35.25 -2.85 37.55 0.9 L36.65 0.1 34.1 -1.45 30.95 -2.5 Q28.6 -3.25 28.45 -3.5 M36.65 1.55 Q41.2 3.05 43.05 6.3 L42.35 5.7 Q41.0 4.6 39.85 4.05 38.05 3.0 37.5 2.85 L36.4 2.65 Q35.8 2.5 35.8 2.05 L36.65 1.55 M42.15 7.3 Q46.7 9.85 48.2 13.5 L45.65 11.05 44.25 9.95 Q43.55 9.4 43.1 9.3 41.45 8.9 41.45 7.95 L41.5 7.7 42.15 7.3 M47.6 15.6 Q49.55 19.05 50.65 22.05 49.45 19.95 47.8 18.1 L45.85 16.0 Q44.75 14.95 43.3 14.65 L43.25 14.45 43.05 13.8 Q44.75 13.3 46.75 14.3 L47.6 15.6 M50.05 25.45 Q46.8 25.1 44.0 23.6 L44.05 21.7 Q46.4 24.0 49.55 25.25 L50.05 25.45 M42.9 24.45 Q39.25 23.6 35.75 18.8 L36.45 15.7 Q37.8 19.0 40.25 21.75 L42.9 24.45 M35.45 19.6 L35.35 19.8 Q31.9 18.35 29.3 13.0 L30.0 10.2 30.85 12.4 32.6 15.75 34.5 18.45 35.45 19.6 M6.5 4.55 Q2.7 3.55 -0.85 -0.45 L-2.55 -2.6 Q-3.45 -6.1 -1.6 -8.65 L-1.65 -7.7 Q-1.65 -3.95 1.35 -0.1 3.45 2.55 6.5 4.55" fill="#fff34f" fill-rule="evenodd" stroke="none"/>
      <path d="M10.5 -14.55 L10.7 -14.5 Q11.65 -14.4 11.65 -14.15 11.65 -13.7 10.6 -12.8 9.45 -11.8 8.65 -11.8 L7.95 -11.95 Q7.45 -12.15 7.45 -12.45 7.45 -12.75 7.6 -12.95 L8.1 -13.5 9.6 -14.55 10.5 -14.55 M17.5 -8.5 Q18.05 -9.1 18.65 -9.4 L18.9 -9.45 19.85 -9.65 21.5 -10.15 21.8 -10.1 21.9 -9.6 Q21.9 -8.95 20.55 -7.85 19.05 -6.7 17.9 -6.7 L17.4 -6.85 Q17.05 -7.05 17.05 -7.45 17.05 -7.85 17.5 -8.5 M24.0 -3.1 L23.6 -3.4 Q23.6 -3.85 25.2 -4.5 L27.05 -5.2 27.25 -5.2 28.35 -4.9 27.1 -3.8 Q25.85 -3.0 24.6 -3.0 L24.0 -3.1 M40.65 5.35 Q41.2 5.6 41.2 6.1 41.2 6.65 40.3 7.0 L38.8 7.25 37.8 7.2 Q37.2 7.05 37.2 6.5 37.2 6.0 37.9 5.65 38.6 5.3 39.55 5.3 L40.6 5.35 40.65 5.35 M33.95 -0.1 L34.05 -0.05 Q34.6 0.05 34.6 0.25 34.6 0.85 33.45 1.4 L31.2 1.95 30.3 1.8 29.75 1.4 Q29.75 0.85 32.55 -0.05 L33.35 -0.05 33.95 -0.1 M45.15 12.0 L45.25 12.0 45.35 12.1 45.85 12.45 45.85 13.0 44.0 13.0 43.4 12.8 Q43.05 12.65 43.05 12.3 43.05 12.05 43.25 11.95 L43.85 11.85 45.15 12.0" fill="#ffffff" fill-rule="evenodd" stroke="none"/>
      <path d="M6.2 -8.1 L8.2 -9.1 8.15 -8.85 Q8.6 -7.65 9.3 -6.7 L7.15 -6.25 6.45 -7.9 6.2 -8.1 6.45 -7.9 7.15 -6.25 Q7.85 -4.35 8.15 -2.5 L6.6 -4.35 3.65 -6.95 1.9 -8.2 3.0 -7.8 3.6 -7.65 4.7 -7.55 6.2 -8.1 M16.8 2.85 L16.4 1.95 Q15.85 0.45 14.3 -2.1 L12.65 -4.7 11.0 -6.35 11.3 -6.35 11.35 -6.4 11.95 -6.25 12.35 -6.05 12.7 -6.1 12.95 -5.95 13.35 -5.75 13.85 -5.3 14.05 -5.2 14.5 -4.35 16.8 -4.95 Q18.0 -5.35 19.05 -5.9 20.0 -4.6 21.85 -3.05 23.45 -1.7 24.55 -1.15 L23.85 -0.9 23.7 -0.55 24.2 0.95 23.3 1.85 23.3 1.8 23.1 1.8 23.05 2.55 22.1 0.15 Q20.9 -2.0 18.1 -2.0 L16.8 -1.9 15.75 -1.7 15.7 -1.7 15.65 -1.75 15.65 -1.7 15.7 -1.7 15.65 -1.9 15.7 -1.7 Q16.55 0.5 16.8 2.85 M16.9 -3.25 L17.2 -3.45 17.95 -3.5 17.2 -3.45 16.9 -3.25 15.65 -1.9 14.5 -4.35 15.65 -1.9 16.9 -3.25 16.6 -3.85 16.9 -3.25 M13.85 -5.3 L13.1 -5.75 12.95 -5.95 13.1 -5.75 13.85 -5.3 M21.1 -2.5 L22.8 -0.9 22.9 -0.6 23.3 1.8 22.9 -0.6 22.8 -0.9 21.1 -2.5 M25.4 0.65 L25.55 0.5 25.9 0.6 26.2 0.7 25.45 0.65 25.4 0.65 M22.9 -0.6 L23.85 -0.9 22.9 -0.6 M36.55 9.6 L36.6 9.8 38.75 10.1 Q40.2 10.35 41.25 11.25 42.4 12.2 42.8 13.2 L43.05 13.8 42.7 13.9 42.9 14.6 43.45 16.6 43.6 17.45 43.3 17.45 40.65 14.75 Q38.7 12.85 36.9 11.9 L36.75 11.85 36.75 13.0 36.7 13.7 36.65 14.4 Q36.15 12.75 33.6 9.75 L30.6 6.0 30.45 6.0 30.35 7.15 30.35 7.0 30.35 6.0 30.35 5.85 30.3 5.55 30.2 4.4 30.15 4.0 30.25 4.0 30.15 4.0 30.05 3.6 30.2 3.9 30.25 4.0 30.3 4.15 30.8 4.15 Q32.65 4.15 35.35 6.8 L35.8 7.35 36.3 7.95 36.5 9.0 36.55 9.6 M42.4 13.25 L42.7 13.9 42.4 13.25 M36.6 9.8 L36.75 11.55 36.75 11.85 36.75 11.55 36.6 9.8 M38.7 11.15 Q37.75 11.15 36.75 11.55 37.75 11.15 38.7 11.15 M-1.3 -9.05 L-1.05 -9.3 -1.5 -9.5 -12.0 -13.25 Q-23.15 -17.05 -34.8 -20.1 L-50.25 -23.75 Q-51.35 -24.05 -51.45 -24.9 L-34.8 -21.35 Q-16.9 -16.9 -1.55 -10.25 L-1.25 -10.1 -0.9 -9.95 -0.4 -9.5 Q-0.4 -9.15 -0.75 -9.1 L-1.3 -9.05" fill="#ed9b21" fill-rule="evenodd" stroke="none"/>
      <path d="M14.0 -13.95 L13.75 -13.65 Q11.45 -10.9 8.2 -9.1 L6.2 -8.1 6.45 -7.9 7.15 -6.25 Q7.85 -4.35 8.15 -2.5 L8.45 0.4 8.3 3.0 Q12.15 6.4 15.9 6.8 L16.7 6.85 16.85 5.85 16.8 2.85 Q16.55 0.5 15.7 -1.7 L15.65 -1.9 16.9 -3.25 16.6 -3.85 M23.45 -10.7 Q20.15 -13.5 14.0 -13.95 L15.0 -15.35 Q13.3 -16.65 11.05 -17.3 L2.25 -17.6 Q0.0 -16.3 -0.95 -14.35 L-1.0 -14.25 Q-1.5 -13.2 -1.6 -11.85 L-1.65 -11.35 M9.3 -6.7 L10.0 -6.7 10.4 -6.75 M7.15 -6.25 L9.3 -6.7 Q8.6 -7.65 8.15 -8.85 L8.2 -9.1 M13.85 -5.3 L14.05 -5.2 14.5 -4.35 16.8 -4.95 Q18.0 -5.35 19.05 -5.9 21.3 -6.95 23.15 -8.55 L24.4 -9.75 23.45 -10.7 M6.2 -8.1 L4.7 -7.55 3.6 -7.65 3.0 -7.8 1.9 -8.2 M12.95 -5.95 L13.1 -5.75 13.85 -5.3 M14.5 -4.35 L15.65 -1.9 M17.95 -3.5 L17.2 -3.45 16.9 -3.25 M23.3 1.8 L22.9 -0.6 22.8 -0.9 21.1 -2.5 M20.9 9.6 L21.85 9.95 22.65 7.85 Q23.15 6.15 23.25 4.45 L23.3 3.5 23.3 1.85 23.3 1.8 M30.25 -5.25 L30.5 -5.65 Q28.0 -8.05 23.45 -8.5 L23.15 -8.55 M24.55 -1.15 L23.85 -0.9 23.7 -0.55 24.2 0.95 Q24.35 0.75 24.6 0.65 L25.4 0.65 25.45 0.65 26.2 0.7 M23.85 -0.9 L22.9 -0.6 M24.55 -1.15 Q26.75 -2.1 28.45 -3.5 L29.15 -4.15 29.2 -4.2 30.25 -5.25 M37.55 0.9 Q35.25 -2.85 29.15 -4.15 M37.55 0.9 L36.95 1.35 36.65 1.55 Q41.2 3.05 43.05 6.3 L43.2 6.55 42.75 6.9 42.15 7.3 Q46.7 9.85 48.2 13.5 L48.7 15.1 Q48.1 15.3 47.6 15.6 49.55 19.05 50.65 22.05 51.3 23.9 51.55 25.55 L50.45 25.5 50.05 25.45 Q46.8 25.1 44.0 23.6 L43.95 24.6 42.9 24.45 Q39.25 23.6 35.75 18.8 L35.45 19.6 35.35 19.8 Q31.9 18.35 29.3 13.0 L28.6 14.7 28.55 14.75 Q25.05 13.15 22.65 7.85 M41.5 7.7 Q39.15 9.1 36.55 9.6 L36.6 9.8 36.75 11.55 Q37.75 11.15 38.7 11.15 M43.05 13.8 Q44.75 13.3 46.75 14.3 L47.6 15.6 M41.5 7.7 L42.15 7.3 M43.6 17.45 L43.45 16.6 42.9 14.6 42.7 13.9 42.4 13.25 M43.6 17.45 L44.05 21.7 44.0 23.6 M43.05 13.8 L42.7 13.9 M35.8 2.05 L36.65 1.55 M36.65 14.4 L36.7 13.7 36.75 13.0 36.75 11.85 36.75 11.55 M36.55 9.6 L36.5 9.0 36.3 7.95 35.8 7.35 M30.25 4.0 L30.15 4.0 30.2 4.4 30.3 5.55 30.35 5.85 30.35 6.0 30.35 7.0 30.35 7.15 30.35 7.2 30.0 10.2 29.3 13.0 M30.05 3.6 L30.05 3.5 30.05 3.4 28.85 2.1 M30.25 4.0 Q33.2 3.5 35.8 2.05 M30.15 4.0 L30.05 3.6 M23.3 1.85 L24.2 0.95 M36.45 15.7 L36.65 14.4 M36.45 15.7 L35.75 18.8 M20.9 9.6 Q19.3 8.8 17.95 7.25 L16.85 5.85 M8.3 3.0 L7.95 4.8 6.5 4.55 Q2.7 3.55 -0.85 -0.45 L-2.55 -2.6 Q-3.45 -6.1 -1.6 -8.65 L-1.3 -9.05 -1.05 -9.3" fill="none" stroke="#000000" stroke-linecap="round" stroke-linejoin="round" stroke-opacity="0.6627451" stroke-width="1.5"/>
      <path d="M-1.05 -9.3 L-1.5 -9.5 -12.0 -13.25 Q-23.15 -17.05 -34.8 -20.1 L-50.25 -23.75 Q-51.35 -24.05 -51.45 -24.9 L-51.45 -25.5 Q-42.95 -24.15 -34.8 -22.25 -23.0 -19.5 -12.0 -15.7 -6.75 -13.95 -1.6 -11.85" fill="none" stroke="#000000" stroke-linecap="round" stroke-linejoin="round" stroke-opacity="0.6627451" stroke-width="1.0"/>
    </g>
    <g id="sprite1" transform="matrix(1.0, 0.0, 0.0, 1.0, 51.5, 25.5)">
      <use height="51.05" transform="matrix(1.0, 0.0, 0.0, 1.0, -51.5, -25.5)" width="103.05" xlink:href="#shape1"/>
    </g>
    <g id="shape1" transform="matrix(1.0, 0.0, 0.0, 1.0, 51.5, 25.5)">
      <path d="M30.25 -5.25 Q28.5 -6.1 25.8 -6.8 23.05 -7.5 23.05 -7.7 L23.3 -8.35 23.45 -8.5 Q28.0 -8.05 30.5 -5.65 L30.25 -5.25" fill="url(#gradient0)" fill-rule="evenodd" stroke="none"/>
      <path d="M50.65 22.05 Q49.45 19.95 47.8 18.1 L45.85 16.0 Q44.75 14.95 43.3 14.65 L43.25 14.45 43.05 13.8 Q44.75 13.3 46.75 14.3 L47.6 15.6 Q49.55 19.05 50.65 22.05" fill="url(#gradient1)" fill-rule="evenodd" stroke="none"/>
      <path d="M16.85 5.85 L16.8 2.85 17.8 4.85 19.85 8.4 20.9 9.6 Q19.3 8.8 17.95 7.25 L16.85 5.85" fill="url(#gradient2)" fill-rule="evenodd" stroke="none"/>
      <path d="M-51.45 -24.9 Q-23.85 -19.9 -1.55 -10.25 L-1.25 -10.1 -0.9 -9.95 -0.4 -9.5 Q-0.4 -9.15 -0.75 -9.1 L-1.3 -9.05 -1.05 -9.3 -1.5 -9.5 -12.0 -13.25 Q-30.4 -19.55 -50.25 -23.75 -51.35 -24.05 -51.45 -24.9" fill="url(#gradient3)" fill-rule="evenodd" stroke="none"/>
      <path d="M10.7 -14.5 Q11.65 -14.4 11.65 -14.15 11.65 -13.7 10.6 -12.8 9.45 -11.8 8.65 -11.8 L7.95 -11.95 Q7.45 -12.15 7.45 -12.45 7.45 -12.75 7.6 -12.95 L8.1 -13.5 9.6 -14.55 10.5 -14.55 10.7 -14.5" fill="url(#gradient4)" fill-rule="evenodd" stroke="none"/>
      <path d="M18.9 -9.45 L19.85 -9.65 21.5 -10.15 21.8 -10.1 21.9 -9.6 Q21.9 -8.95 20.55 -7.85 19.05 -6.7 17.9 -6.7 L17.4 -6.85 Q17.05 -7.05 17.05 -7.45 17.05 -7.85 17.5 -8.5 18.05 -9.1 18.65 -9.4 L18.9 -9.45" fill="url(#gradient5)" fill-rule="evenodd" stroke="none"/>
      <path d="M32.55 -0.05 L33.35 -0.05 33.95 -0.1 34.05 -0.05 Q34.6 0.05 34.6 0.25 34.6 0.85 33.45 1.4 L31.2 1.95 30.3 1.8 29.75 1.4 Q29.75 0.85 32.55 -0.05" fill="url(#gradient6)" fill-rule="evenodd" stroke="none"/>
      <path d="M23.6 -3.4 Q23.6 -3.85 25.2 -4.5 L27.05 -5.2 27.25 -5.2 28.35 -4.9 27.1 -3.8 Q25.85 -3.0 24.6 -3.0 L24.0 -3.1 23.6 -3.4" fill="url(#gradient7)" fill-rule="evenodd" stroke="none"/>
      <path d="M40.65 5.35 Q41.2 5.6 41.2 6.1 41.2 6.65 40.3 7.0 L38.8 7.25 37.8 7.2 Q37.2 7.05 37.2 6.5 37.2 6.0 37.9 5.65 38.6 5.3 39.55 5.3 L40.6 5.35 40.65 5.35" fill="url(#gradient8)" fill-rule="evenodd" stroke="none"/>
      <path d="M45.15 12.0 L45.25 12.0 45.35 12.1 45.85 12.45 45.85 13.0 44.0 13.0 43.4 12.8 Q43.05 12.65 43.05 12.3 43.05 12.05 43.25 11.95 L43.85 11.85 45.15 12.0" fill="url(#gradient9)" fill-rule="evenodd" stroke="none"/>
      <path d="M8.15 -8.85 Q8.6 -7.65 9.3 -6.7 L7.15 -6.25 Q7.85 -4.35 8.15 -2.5 L6.6 -4.35 3.65 -6.95 1.9 -8.2 3.0 -7.8 3.6 -7.65 4.7 -7.55 6.2 -8.1 8.2 -9.1 8.15 -8.85" fill="url(#gradient10)" fill-rule="evenodd" stroke="none"/>
      <path d="M25.55 0.5 L25.9 0.6 26.2 0.7 25.45 0.65 25.4 0.65 25.55 0.5" fill="url(#gradient11)" fill-rule="evenodd" stroke="none"/>
      <path d="M23.45 -10.7 L22.35 -10.9 20.65 -11.35 18.85 -11.6 17.15 -11.9 15.75 -12.15 Q14.95 -12.25 14.35 -12.7 13.8 -13.05 13.75 -13.65 L14.0 -13.95 Q20.15 -13.5 23.45 -10.7" fill="url(#gradient12)" fill-rule="evenodd" stroke="none"/>
      <path d="M37.55 0.9 L36.65 0.1 34.1 -1.45 30.95 -2.5 Q28.6 -3.25 28.45 -3.5 L29.15 -4.15 Q35.25 -2.85 37.55 0.9" fill="url(#gradient13)" fill-rule="evenodd" stroke="none"/>
      <path d="M48.2 13.5 L45.65 11.05 44.25 9.95 Q43.55 9.4 43.1 9.3 41.45 8.9 41.45 7.95 L41.5 7.7 42.15 7.3 Q46.7 9.85 48.2 13.5" fill="url(#gradient14)" fill-rule="evenodd" stroke="none"/>
      <path d="M43.05 6.3 L42.35 5.7 Q41.0 4.6 39.85 4.05 38.05 3.0 37.5 2.85 L36.4 2.65 Q35.8 2.5 35.8 2.05 L36.65 1.55 Q41.2 3.05 43.05 6.3" fill="url(#gradient15)" fill-rule="evenodd" stroke="none"/>
      <path d="M44.0 23.6 L44.05 21.7 Q46.4 24.0 49.55 25.25 L50.05 25.45 Q46.8 25.1 44.0 23.6" fill="url(#gradient16)" fill-rule="evenodd" stroke="none"/>
      <path d="M22.65 7.85 Q23.15 6.15 23.25 4.45 23.8 6.65 25.55 10.1 27.4 13.7 28.6 14.7 L28.55 14.75 Q25.05 13.15 22.65 7.85" fill="url(#gradient17)" fill-rule="evenodd" stroke="none"/>
      <path d="M29.3 13.0 L30.0 10.2 30.85 12.4 32.6 15.75 34.5 18.45 35.45 19.6 35.35 19.8 Q31.9 18.35 29.3 13.0" fill="url(#gradient18)" fill-rule="evenodd" stroke="none"/>
      <path d="M35.75 18.8 L36.45 15.7 Q37.8 19.0 40.25 21.75 L42.9 24.45 Q39.25 23.6 35.75 18.8" fill="url(#gradient19)" fill-rule="evenodd" stroke="none"/>
      <path d="M8.3 3.0 L8.45 0.4 10.55 2.75 13.55 5.4 15.9 6.8 Q12.15 6.4 8.3 3.0" fill="url(#gradient20)" fill-rule="evenodd" stroke="none"/>
      <path d="M14.0 -13.95 L13.75 -13.65 Q13.8 -13.05 14.35 -12.7 14.95 -12.25 15.75 -12.15 L17.15 -11.9 18.85 -11.6 20.65 -11.35 22.35 -10.9 23.45 -10.7 24.4 -9.75 23.15 -8.55 23.45 -8.5 23.3 -8.35 23.05 -7.7 Q23.05 -7.5 25.8 -6.8 28.5 -6.1 30.25 -5.25 L29.2 -4.2 29.15 -4.15 Q28.45 -3.7 28.45 -3.55 L28.45 -3.5 Q28.6 -3.25 30.95 -2.5 L34.1 -1.45 36.65 0.1 37.55 0.9 36.95 1.35 36.3 1.55 35.8 2.05 Q35.8 2.5 36.4 2.65 L37.5 2.85 Q38.05 3.0 39.85 4.05 41.0 4.6 42.35 5.7 L43.05 6.3 43.2 6.55 42.75 6.9 42.1 7.1 Q41.6 7.35 41.5 7.7 L41.45 7.95 Q41.45 8.9 43.1 9.3 43.55 9.4 44.25 9.95 L45.65 11.05 48.2 13.5 48.7 15.1 Q48.1 15.3 47.6 15.6 L46.75 14.3 Q44.75 13.3 43.05 13.8 L43.25 14.45 43.3 14.65 Q44.75 14.95 45.85 16.0 L47.8 18.1 Q49.45 19.95 50.65 22.05 51.3 23.9 51.55 25.55 L50.45 25.5 50.05 25.45 49.55 25.25 Q46.4 24.0 44.05 21.7 L44.0 23.6 43.95 24.6 42.9 24.45 40.25 21.75 Q37.8 19.0 36.45 15.7 L35.75 18.8 35.45 19.6 34.5 18.45 32.6 15.75 30.85 12.4 30.0 10.2 29.3 13.0 28.6 14.7 Q27.4 13.7 25.55 10.1 23.8 6.65 23.25 4.45 23.15 6.15 22.65 7.85 L21.85 9.95 20.9 9.6 19.85 8.4 17.8 4.85 16.8 2.85 16.85 5.85 16.7 6.85 15.9 6.8 13.55 5.4 10.55 2.75 8.45 0.4 8.3 3.0 7.95 4.8 6.5 4.55 Q3.45 2.55 1.35 -0.1 -1.65 -3.95 -1.65 -7.7 L-1.6 -8.65 -1.3 -9.05 -0.75 -9.1 Q-0.4 -9.15 -0.4 -9.5 L-0.9 -9.95 -1.25 -10.1 -1.55 -10.25 Q-23.85 -19.9 -51.45 -24.9 L-51.45 -25.5 Q-30.55 -22.15 -12.0 -15.7 -6.75 -13.95 -1.6 -11.85 -1.5 -13.2 -1.0 -14.25 L-0.7 -12.8 Q-0.4 -11.9 0.0 -11.9 0.95 -13.25 2.95 -14.6 6.5 -17.05 11.05 -17.3 13.3 -16.65 15.0 -15.35 L14.0 -13.95 M16.8 2.85 Q16.55 0.5 15.7 -1.7 L15.75 -1.7 16.8 -1.9 18.1 -2.0 Q20.9 -2.0 22.1 0.15 L23.05 2.55 23.1 1.8 23.3 1.8 23.3 1.85 24.2 0.95 23.7 -0.55 23.85 -0.9 24.55 -1.15 Q23.45 -1.7 21.85 -3.05 20.0 -4.6 19.05 -5.9 18.0 -5.35 16.8 -4.95 L14.5 -4.35 14.05 -5.2 13.85 -5.3 13.35 -5.75 12.95 -5.95 12.7 -6.1 12.35 -6.05 11.95 -6.25 11.35 -6.4 11.3 -6.35 11.0 -6.35 12.65 -4.7 14.3 -2.1 Q15.85 0.45 16.4 1.95 L16.8 2.85 M36.75 13.0 L36.75 11.85 36.9 11.9 Q38.7 12.85 40.65 14.75 L43.3 17.45 43.6 17.45 43.45 16.6 42.9 14.6 42.7 13.9 43.05 13.8 42.8 13.2 Q42.4 12.2 41.25 11.25 40.2 10.35 38.75 10.1 L36.6 9.8 36.55 9.6 36.5 9.0 36.3 7.95 35.8 7.35 35.35 6.8 Q32.65 4.15 30.8 4.15 L30.3 4.15 30.25 4.0 30.2 3.9 30.05 3.6 30.15 4.0 30.2 4.4 30.3 5.55 30.35 5.85 30.35 6.0 30.35 7.0 30.35 7.15 30.45 6.0 30.6 6.0 33.6 9.75 Q36.15 12.75 36.65 14.4 L36.65 14.55 36.75 14.55 36.75 13.0 M10.7 -14.5 L10.5 -14.55 9.6 -14.55 8.1 -13.5 7.6 -12.95 Q7.45 -12.75 7.45 -12.45 7.45 -12.15 7.95 -11.95 L8.65 -11.8 Q9.45 -11.8 10.6 -12.8 11.65 -13.7 11.65 -14.15 11.65 -14.4 10.7 -14.5 M8.15 -8.85 L8.2 -9.1 6.2 -8.1 4.7 -7.55 3.6 -7.65 3.0 -7.8 1.9 -8.2 3.65 -6.95 6.6 -4.35 8.15 -2.5 Q7.85 -4.35 7.15 -6.25 L9.3 -6.7 Q8.6 -7.65 8.15 -8.85 M18.9 -9.45 L18.65 -9.4 Q18.05 -9.1 17.5 -8.5 17.05 -7.85 17.05 -7.45 17.05 -7.05 17.4 -6.85 L17.9 -6.7 Q19.05 -6.7 20.55 -7.85 21.9 -8.95 21.9 -9.6 L21.8 -10.1 21.5 -10.15 19.85 -9.65 18.9 -9.45 M23.6 -3.4 L24.0 -3.1 24.6 -3.0 Q25.85 -3.0 27.1 -3.8 L28.35 -4.9 27.25 -5.2 27.05 -5.2 25.2 -4.5 Q23.6 -3.85 23.6 -3.4 M32.55 -0.05 Q29.75 0.85 29.75 1.4 L30.3 1.8 31.2 1.95 33.45 1.4 Q34.6 0.85 34.6 0.25 34.6 0.05 34.05 -0.05 L33.95 -0.1 33.35 -0.05 32.55 -0.05 M40.65 5.35 L40.6 5.35 39.55 5.3 Q38.6 5.3 37.9 5.65 37.2 6.0 37.2 6.5 37.2 7.05 37.8 7.2 L38.8 7.25 40.3 7.0 Q41.2 6.65 41.2 6.1 41.2 5.6 40.65 5.35 M45.15 12.0 L43.85 11.85 43.25 11.95 Q43.05 12.05 43.05 12.3 43.05 12.65 43.4 12.8 L44.0 13.0 45.85 13.0 45.85 12.45 45.35 12.1 45.25 12.0 45.15 12.0 M25.55 0.5 L25.4 0.65 25.45 0.65 26.2 0.7 25.9 0.6 25.55 0.5" fill="url(#gradient21)" fill-rule="evenodd" stroke="none"/>
      <path d="M43.05 13.8 L42.7 13.9 42.9 14.6 43.45 16.6 43.6 17.45 43.3 17.45 40.65 14.75 Q38.7 12.85 36.9 11.9 L36.75 11.85 36.75 13.0 36.7 13.7 36.65 14.4 Q36.15 12.75 33.6 9.75 L30.6 6.0 30.45 6.0 30.35 7.15 30.35 7.0 30.35 6.0 30.35 5.85 30.3 5.55 30.2 4.4 30.15 4.0 30.05 3.6 30.2 3.9 30.25 4.0 30.3 4.15 30.8 4.15 Q32.65 4.15 35.35 6.8 L35.8 7.35 36.3 7.95 36.5 9.0 36.55 9.6 36.6 9.8 38.75 10.1 Q40.2 10.35 41.25 11.25 42.4 12.2 42.8 13.2 L43.05 13.8" fill="url(#gradient22)" fill-rule="evenodd" stroke="none"/>
      <path d="M16.8 2.85 L16.4 1.95 Q15.85 0.45 14.3 -2.1 L12.65 -4.7 11.0 -6.35 11.3 -6.35 11.35 -6.4 11.95 -6.25 12.35 -6.05 12.7 -6.1 12.95 -5.95 13.35 -5.75 13.85 -5.3 14.05 -5.2 14.5 -4.35 16.8 -4.95 Q18.0 -5.35 19.05 -5.9 20.0 -4.6 21.85 -3.05 23.45 -1.7 24.55 -1.15 L23.85 -0.9 23.7 -0.55 24.2 0.95 23.3 1.85 23.3 1.8 23.1 1.8 23.05 2.55 22.1 0.15 Q20.9 -2.0 18.1 -2.0 L16.8 -1.9 15.75 -1.7 15.7 -1.7 Q16.55 0.5 16.8 2.85 M15.7 -1.7 L15.65 -1.75 15.65 -1.7 15.7 -1.7" fill="url(#gradient23)" fill-rule="evenodd" stroke="none"/>
      <path d="M11.05 -17.3 Q6.5 -17.05 2.95 -14.6 0.95 -13.25 0.0 -11.9 -0.4 -11.9 -0.7 -12.8 L-1.0 -14.25 -0.95 -14.35 Q0.0 -16.3 2.25 -17.6 L11.05 -17.3" fill="url(#gradient24)" fill-rule="evenodd" stroke="none"/>
      <path d="M-1.6 -8.65 L-1.65 -7.7 Q-1.65 -3.95 1.35 -0.1 3.45 2.55 6.5 4.55 2.7 3.55 -0.85 -0.45 L-2.55 -2.6 Q-3.45 -6.1 -1.6 -8.65" fill="url(#gradient25)" fill-rule="evenodd" stroke="none"/>
    </g>
    <linearGradient gradientTransform="matrix(0.0045, 0.0, 0.0, 0.002, 26.75, -6.9)" gradientUnits="userSpaceOnUse" id="gradient0" spreadMethod="pad" x1="-819.2" x2="819.2">
      <stop offset="0.0" stop-color="#000000"/>
      <stop offset="1.0" stop-color="#ffffff"/>
    </linearGradient>
    <linearGradient gradientTransform="matrix(0.0046, 0.0, 0.0, 0.0051, 46.85, 17.85)" gradientUnits="userSpaceOnUse" id="gradient1" spreadMethod="pad" x1="-819.2" x2="819.2">
      <stop offset="0.0" stop-color="#000000"/>
      <stop offset="1.0" stop-color="#ffffff"/>
    </linearGradient>
    <linearGradient gradientTransform="matrix(0.0025, 0.0, 0.0, 0.0041, 18.85, 6.2)" gradientUnits="userSpaceOnUse" id="gradient2" spreadMethod="pad" x1="-819.2" x2="819.2">
      <stop offset="0.0" stop-color="#000000"/>
      <stop offset="1.0" stop-color="#ffffff"/>
    </linearGradient>
    <linearGradient gradientTransform="matrix(0.0312, 0.0, 0.0, 0.0097, -25.95, -17.0)" gradientUnits="userSpaceOnUse" id="gradient3" spreadMethod="pad" x1="-819.2" x2="819.2">
      <stop offset="0.0" stop-color="#000000"/>
      <stop offset="1.0" stop-color="#ffffff"/>
    </linearGradient>
    <linearGradient gradientTransform="matrix(0.0026, 0.0, 0.0, 0.0017, 9.55, -13.2)" gradientUnits="userSpaceOnUse" id="gradient4" spreadMethod="pad" x1="-819.2" x2="819.2">
      <stop offset="0.0" stop-color="#000000"/>
      <stop offset="1.0" stop-color="#ffffff"/>
    </linearGradient>
    <linearGradient gradientTransform="matrix(0.003, 0.0, 0.0, 0.0021, 19.45, -8.45)" gradientUnits="userSpaceOnUse" id="gradient5" spreadMethod="pad" x1="-819.2" x2="819.2">
      <stop offset="0.0" stop-color="#000000"/>
      <stop offset="1.0" stop-color="#ffffff"/>
    </linearGradient>
    <linearGradient gradientTransform="matrix(0.003, 0.0, 0.0, 0.0013, 32.15, 0.9)" gradientUnits="userSpaceOnUse" id="gradient6" spreadMethod="pad" x1="-819.2" x2="819.2">
      <stop offset="0.0" stop-color="#000000"/>
      <stop offset="1.0" stop-color="#ffffff"/>
    </linearGradient>
    <linearGradient gradientTransform="matrix(0.0029, 0.0, 0.0, 0.0013, 25.95, -4.1)" gradientUnits="userSpaceOnUse" id="gradient7" spreadMethod="pad" x1="-819.2" x2="819.2">
      <stop offset="0.0" stop-color="#000000"/>
      <stop offset="1.0" stop-color="#ffffff"/>
    </linearGradient>
    <linearGradient gradientTransform="matrix(0.0024, 0.0, 0.0, 0.0012, 39.2, 6.25)" gradientUnits="userSpaceOnUse" id="gradient8" spreadMethod="pad" x1="-819.2" x2="819.2">
      <stop offset="0.0" stop-color="#000000"/>
      <stop offset="1.0" stop-color="#ffffff"/>
    </linearGradient>
    <linearGradient gradientTransform="matrix(0.0017, 0.0, 0.0, 7.0E-4, 44.45, 12.4)" gradientUnits="userSpaceOnUse" id="gradient9" spreadMethod="pad" x1="-819.2" x2="819.2">
      <stop offset="0.0" stop-color="#000000"/>
      <stop offset="1.0" stop-color="#ffffff"/>
    </linearGradient>
    <linearGradient gradientTransform="matrix(0.0045, 0.0, 0.0, 0.004, 5.6, -5.8)" gradientUnits="userSpaceOnUse" id="gradient10" spreadMethod="pad" x1="-819.2" x2="819.2">
      <stop offset="0.0" stop-color="#000000"/>
      <stop offset="1.0" stop-color="#ffffff"/>
    </linearGradient>
    <linearGradient gradientTransform="matrix(5.0E-4, 0.0, 0.0, 1.0E-4, 25.8, 0.6)" gradientUnits="userSpaceOnUse" id="gradient11" spreadMethod="pad" x1="-819.2" x2="819.2">
      <stop offset="0.0" stop-color="#000000"/>
      <stop offset="1.0" stop-color="#ffffff"/>
    </linearGradient>
    <linearGradient gradientTransform="matrix(0.0059, 0.0, 0.0, 0.002, 18.6, -12.35)" gradientUnits="userSpaceOnUse" id="gradient12" spreadMethod="pad" x1="-819.2" x2="819.2">
      <stop offset="0.0" stop-color="#000000"/>
      <stop offset="1.0" stop-color="#ffffff"/>
    </linearGradient>
    <linearGradient gradientTransform="matrix(0.0056, 0.0, 0.0, 0.0031, 33.0, -1.65)" gradientUnits="userSpaceOnUse" id="gradient13" spreadMethod="pad" x1="-819.2" x2="819.2">
      <stop offset="0.0" stop-color="#000000"/>
      <stop offset="1.0" stop-color="#ffffff"/>
    </linearGradient>
    <linearGradient gradientTransform="matrix(0.0041, 0.0, 0.0, 0.0038, 44.8, 10.4)" gradientUnits="userSpaceOnUse" id="gradient14" spreadMethod="pad" x1="-819.2" x2="819.2">
      <stop offset="0.0" stop-color="#000000"/>
      <stop offset="1.0" stop-color="#ffffff"/>
    </linearGradient>
    <linearGradient gradientTransform="matrix(0.0044, 0.0, 0.0, 0.0029, 39.4, 3.9)" gradientUnits="userSpaceOnUse" id="gradient15" spreadMethod="pad" x1="-819.2" x2="819.2">
      <stop offset="0.0" stop-color="#000000"/>
      <stop offset="1.0" stop-color="#ffffff"/>
    </linearGradient>
    <linearGradient gradientTransform="matrix(0.0037, 0.0, 0.0, 0.0023, 47.0, 23.55)" gradientUnits="userSpaceOnUse" id="gradient16" spreadMethod="pad" x1="-819.2" x2="819.2">
      <stop offset="0.0" stop-color="#000000"/>
      <stop offset="1.0" stop-color="#ffffff"/>
    </linearGradient>
    <linearGradient gradientTransform="matrix(0.0036, 0.0, 0.0, 0.0063, 25.6, 9.6)" gradientUnits="userSpaceOnUse" id="gradient17" spreadMethod="pad" x1="-819.2" x2="819.2">
      <stop offset="0.0" stop-color="#000000"/>
      <stop offset="1.0" stop-color="#ffffff"/>
    </linearGradient>
    <linearGradient gradientTransform="matrix(0.0038, 0.0, 0.0, 0.0059, 32.35, 15.0)" gradientUnits="userSpaceOnUse" id="gradient18" spreadMethod="pad" x1="-819.2" x2="819.2">
      <stop offset="0.0" stop-color="#000000"/>
      <stop offset="1.0" stop-color="#ffffff"/>
    </linearGradient>
    <linearGradient gradientTransform="matrix(0.0044, 0.0, 0.0, 0.0053, 39.3, 20.05)" gradientUnits="userSpaceOnUse" id="gradient19" spreadMethod="pad" x1="-819.2" x2="819.2">
      <stop offset="0.0" stop-color="#000000"/>
      <stop offset="1.0" stop-color="#ffffff"/>
    </linearGradient>
    <linearGradient gradientTransform="matrix(0.0046, 0.0, 0.0, 0.0039, 12.1, 3.6)" gradientUnits="userSpaceOnUse" id="gradient20" spreadMethod="pad" x1="-819.2" x2="819.2">
      <stop offset="0.0" stop-color="#000000"/>
      <stop offset="1.0" stop-color="#ffffff"/>
    </linearGradient>
    <linearGradient gradientTransform="matrix(0.0416, 0.0101, -0.0073, 0.0303, 11.35, 1.3)" gradientUnits="userSpaceOnUse" id="gradient21" spreadMethod="pad" x1="-819.2" x2="819.2">
      <stop offset="0.0" stop-color="#000000"/>
      <stop offset="1.0" stop-color="#ffffff"/>
    </linearGradient>
    <linearGradient gradientTransform="matrix(0.0083, 0.0, 0.0, 0.0085, 31.2, 6.2)" gradientUnits="userSpaceOnUse" id="gradient22" spreadMethod="pad" x1="-819.2" x2="819.2">
      <stop offset="0.0" stop-color="#000000"/>
      <stop offset="1.0" stop-color="#ffffff"/>
    </linearGradient>
    <linearGradient gradientTransform="matrix(0.0083, 0.0, 0.0, 0.0056, 16.0, -4.6)" gradientUnits="userSpaceOnUse" id="gradient23" spreadMethod="pad" x1="-819.2" x2="819.2">
      <stop offset="0.0" stop-color="#000000"/>
      <stop offset="1.0" stop-color="#ffffff"/>
    </linearGradient>
    <linearGradient gradientTransform="matrix(0.0074, 0.0, 0.0, 0.0037, 0.8, -15.2)" gradientUnits="userSpaceOnUse" id="gradient24" spreadMethod="pad" x1="-819.2" x2="819.2">
      <stop offset="0.0" stop-color="#000000"/>
      <stop offset="1.0" stop-color="#ffffff"/>
    </linearGradient>
    <linearGradient gradientTransform="matrix(0.0057, 0.0, 0.0, 0.0081, -0.2, -2.0)" gradientUnits="userSpaceOnUse" id="gradient25" spreadMethod="pad" x1="-819.2" x2="819.2">
      <stop offset="0.0" stop-color="#000000"/>
      <stop offset="1.0" stop-color="#ffffff"/>
    </linearGradient>
  </defs>
</svg>
