<?xml version="1.0" encoding="UTF-8" standalone="no"?>
<svg xmlns:xlink="http://www.w3.org/1999/xlink" height="531.5px" width="460.6px" xmlns="http://www.w3.org/2000/svg">
  <g transform="matrix(1.0, 0.0, 0.0, 1.0, 193.65, 334.05)">
    <use height="94.1" transform="matrix(1.733, 0.0, 0.0, 1.733, -76.6574, -220.3356)" width="84.25" xlink:href="#shape0"/>
  </g>
  <defs>
    <g id="shape0" transform="matrix(1.0, 0.0, 0.0, 1.0, 42.1, 47.05)">
      <path d="M-26.9 -26.75 Q-26.9 -26.25 -26.55 -25.9 -26.2 -25.6 -25.7 -25.6 -25.2 -25.6 -24.85 -25.9 -24.5 -26.25 -24.5 -26.75 -24.5 -27.25 -24.85 -27.6 -25.2 -27.95 -25.7 -27.95 -26.2 -27.95 -26.55 -27.6 L-26.9 -26.75 M-28.45 -34.5 L-19.1 -34.15 -11.45 -33.95 -6.45 -33.9 -2.6 -31.8 Q-1.7 -28.7 -1.85 -25.9 L-1.95 -24.9 Q-2.3 -22.5 -3.4 -20.25 L-23.45 -20.6 Q-25.35 -16.45 -23.45 -12.35 -13.4 -11.95 -3.35 -11.8 -1.9 -9.65 -1.0 -7.0 L-0.95 -6.75 Q0.5 -2.05 0.1 4.1 -1.0 12.85 -6.8 17.4 -1.25 21.55 -0.05 26.25 -14.95 26.15 -29.15 21.15 -30.75 11.4 -31.25 2.15 L-31.45 -2.8 Q-31.8 -19.55 -28.45 -34.5 M-26.55 16.95 L-26.9 17.75 -26.55 18.6 Q-26.2 18.95 -25.7 18.95 -25.2 18.95 -24.85 18.6 -24.5 18.25 -24.5 17.75 -24.5 17.3 -24.85 16.95 -25.2 16.6 -25.7 16.6 -26.2 16.6 -26.55 16.95 M-28.1 -3.65 Q-27.75 -3.3 -27.25 -3.3 -26.75 -3.3 -26.4 -3.65 -26.05 -4.0 -26.05 -4.5 -26.05 -4.95 -26.4 -5.3 -26.75 -5.65 -27.25 -5.65 -27.75 -5.65 -28.1 -5.3 L-28.45 -4.5 Q-28.45 -4.0 -28.1 -3.65 M-28.4 -16.85 Q-28.75 -16.5 -28.75 -16.0 -28.75 -15.55 -28.4 -15.2 -28.05 -14.85 -27.55 -14.85 -27.05 -14.85 -26.7 -15.2 -26.35 -15.55 -26.35 -16.0 -26.35 -16.5 -26.7 -16.85 -27.05 -17.2 -27.55 -17.2 -28.05 -17.2 -28.4 -16.85 M-27.7 7.4 Q-27.7 7.85 -27.35 8.2 -27.0 8.55 -26.55 8.55 -26.05 8.55 -25.7 8.2 -25.35 7.85 -25.35 7.4 -25.35 6.9 -25.7 6.55 -26.05 6.2 -26.55 6.2 -27.0 6.2 -27.35 6.55 -27.7 6.9 -27.7 7.4" fill="url(#gradient0)" fill-rule="evenodd" stroke="none"/>
      <path d="M10.6 -33.15 L11.9 -33.95 13.95 -34.0 22.3 -34.25 35.35 -34.8 Q37.85 -9.7 35.5 18.25 L35.35 20.1 25.35 23.1 17.95 24.7 10.85 25.7 Q12.05 21.25 17.05 17.25 11.05 12.55 9.55 3.5 8.95 -2.45 10.0 -7.0 L10.15 -7.65 Q10.7 -9.9 11.7 -11.8 L32.65 -12.35 Q33.9 -16.2 32.65 -20.6 L12.85 -20.25 Q11.4 -22.5 10.7 -24.9 L10.6 -25.4 Q9.7 -29.05 10.6 -33.15" fill="url(#gradient1)" fill-rule="evenodd" stroke="none"/>
      <path d="M10.85 25.7 L-0.05 26.25 Q-1.25 21.55 -6.8 17.4 -1.0 12.85 0.1 4.1 0.5 -2.05 -0.95 -6.75 L-1.0 -7.0 Q-1.9 -9.65 -3.35 -11.8 -4.75 -14.0 -6.8 -15.7 -4.65 -17.85 -3.4 -20.25 -2.3 -22.5 -1.95 -24.9 L-1.85 -25.9 Q2.35 -28.25 10.6 -25.4 L10.7 -24.9 Q11.4 -22.5 12.85 -20.25 14.0 -18.5 15.65 -16.9 13.2 -14.75 11.7 -11.8 10.7 -9.9 10.15 -7.65 L10.0 -7.0 Q8.95 -2.45 9.55 3.5 11.05 12.55 17.05 17.25 12.05 21.25 10.85 25.7 M3.0 -0.95 Q2.25 -0.2 2.25 0.8 2.25 1.8 3.0 2.55 3.7 3.25 4.7 3.25 5.75 3.25 6.45 2.55 7.15 1.8 7.15 0.8 7.15 -0.2 6.45 -0.95 5.75 -1.65 4.7 -1.65 3.7 -1.65 3.0 -0.95 M3.0 -18.25 Q2.25 -17.55 2.25 -16.5 2.25 -15.5 3.0 -14.8 3.7 -14.05 4.7 -14.05 5.75 -14.05 6.45 -14.8 7.15 -15.5 7.15 -16.5 7.15 -17.55 6.45 -18.25 5.75 -18.95 4.7 -18.95 3.7 -18.95 3.0 -18.25 M3.3 16.25 Q2.55 16.95 2.55 17.95 2.55 19.0 3.3 19.7 4.0 20.4 5.0 20.4 6.0 20.4 6.75 19.7 7.45 19.0 7.45 17.95 7.45 16.95 6.75 16.25 6.0 15.5 5.0 15.5 4.0 15.5 3.3 16.25" fill="url(#gradient2)" fill-rule="evenodd" stroke="none"/>
      <path d="M3.0 -18.25 Q3.7 -18.95 4.7 -18.95 5.75 -18.95 6.45 -18.25 7.15 -17.55 7.15 -16.5 7.15 -15.5 6.45 -14.8 5.75 -14.05 4.7 -14.05 3.7 -14.05 3.0 -14.8 2.25 -15.5 2.25 -16.5 2.25 -17.55 3.0 -18.25 M3.0 -0.95 Q3.7 -1.65 4.7 -1.65 5.75 -1.65 6.45 -0.95 7.15 -0.2 7.15 0.8 7.15 1.8 6.45 2.55 5.75 3.25 4.7 3.25 3.7 3.25 3.0 2.55 2.25 1.8 2.25 0.8 2.25 -0.2 3.0 -0.95 M3.3 16.25 Q4.0 15.5 5.0 15.5 6.0 15.5 6.75 16.25 7.45 16.95 7.45 17.95 7.45 19.0 6.75 19.7 6.0 20.4 5.0 20.4 4.0 20.4 3.3 19.7 2.55 19.0 2.55 17.95 2.55 16.95 3.3 16.25" fill="#808080" fill-rule="evenodd" stroke="none"/>
      <path d="M-34.25 -34.75 L-28.45 -34.5 Q-31.8 -19.55 -31.45 -2.8 L-31.25 2.15 Q-30.75 11.4 -29.15 21.15 L-34.25 19.2 -34.45 18.15 Q-39.7 -10.0 -34.25 -34.75" fill="#707070" fill-rule="evenodd" stroke="none"/>
      <path d="M-26.9 -26.75 L-26.55 -27.6 Q-26.2 -27.95 -25.7 -27.95 -25.2 -27.95 -24.85 -27.6 -24.5 -27.25 -24.5 -26.75 -24.5 -26.25 -24.85 -25.9 -25.2 -25.6 -25.7 -25.6 -26.2 -25.6 -26.55 -25.9 -26.9 -26.25 -26.9 -26.75 M-28.4 -16.85 Q-28.05 -17.2 -27.55 -17.2 -27.05 -17.2 -26.7 -16.85 -26.35 -16.5 -26.35 -16.0 -26.35 -15.55 -26.7 -15.2 -27.05 -14.85 -27.55 -14.85 -28.05 -14.85 -28.4 -15.2 -28.75 -15.55 -28.75 -16.0 -28.75 -16.5 -28.4 -16.85 M-28.1 -3.65 Q-28.45 -4.0 -28.45 -4.5 L-28.1 -5.3 Q-27.75 -5.65 -27.25 -5.65 -26.75 -5.65 -26.4 -5.3 -26.05 -4.95 -26.05 -4.5 -26.05 -4.0 -26.4 -3.65 -26.75 -3.3 -27.25 -3.3 -27.75 -3.3 -28.1 -3.65 M-26.55 16.95 Q-26.2 16.6 -25.7 16.6 -25.2 16.6 -24.85 16.95 -24.5 17.3 -24.5 17.75 -24.5 18.25 -24.85 18.6 -25.2 18.95 -25.7 18.95 -26.2 18.95 -26.55 18.6 L-26.9 17.75 -26.55 16.95 M-27.7 7.4 Q-27.7 6.9 -27.35 6.55 -27.0 6.2 -26.55 6.2 -26.05 6.2 -25.7 6.55 -25.35 6.9 -25.35 7.4 -25.35 7.85 -25.7 8.2 -26.05 8.55 -26.55 8.55 -27.0 8.55 -27.35 8.2 -27.7 7.85 -27.7 7.4" fill="#8f8f8f" fill-rule="evenodd" stroke="none"/>
      <path d="M-16.85 -44.3 L-18.65 -40.95 -20.4 -45.05 -16.85 -44.3" fill="#c75b18" fill-rule="evenodd" stroke="none"/>
      <path d="M-34.45 18.15 L-34.25 19.2 -29.15 21.15 Q-14.95 26.15 -0.05 26.25 L10.85 25.7 17.95 24.7 Q20.0 30.0 9.45 35.3 -13.85 37.4 -37.4 28.8 -39.8 23.3 -37.4 18.45 L-34.45 18.15 M-35.15 18.85 L-34.25 19.2 -35.15 18.85 M37.9 28.8 Q29.0 32.1 20.05 33.8 17.6 28.75 25.35 23.1 L35.35 20.1 36.75 19.55 35.35 20.1 35.5 18.25 37.9 18.45 Q39.4 24.25 37.9 28.8" fill="url(#gradient3)" fill-rule="evenodd" stroke="none"/>
      <path d="M-28.45 -34.5 L-34.25 -34.75 -35.6 -34.85 Q-37.9 -40.05 -35.6 -44.65 L-20.8 -45.9 -20.4 -45.05 -18.65 -40.95 -16.85 -44.3 -15.9 -46.15 Q2.85 -47.1 21.8 -45.85 21.65 -38.7 13.95 -34.0 L11.9 -33.95 10.6 -33.15 3.4 -28.5 -2.6 -31.8 -6.45 -33.9 -11.45 -33.95 -19.1 -34.15 -28.45 -34.5 M22.3 -34.25 Q19.45 -40.4 27.5 -45.45 L36.05 -44.65 Q37.5 -39.15 36.05 -34.85 L35.35 -34.8 22.3 -34.25" fill="url(#gradient4)" fill-rule="evenodd" stroke="none"/>
      <path d="M13.95 -34.0 Q21.65 -38.7 21.8 -45.85 L27.5 -45.45 Q19.45 -40.4 22.3 -34.25 L13.95 -34.0 M9.45 35.3 Q20.0 30.0 17.95 24.7 L25.35 23.1 Q17.6 28.75 20.05 33.8 L9.45 35.3" fill="#ffffff" fill-rule="evenodd" stroke="none"/>
      <path d="M-2.6 -31.8 L3.4 -28.5 10.6 -33.15 Q9.7 -29.05 10.6 -25.4 2.35 -28.25 -1.85 -25.9 -1.7 -28.7 -2.6 -31.8" fill="#7d7d7d" fill-rule="evenodd" stroke="none"/>
      <path d="M-37.4 28.8 Q-13.85 37.4 9.45 35.3 L20.05 33.8 Q29.0 32.1 37.9 28.8 L41.65 32.55 36.45 32.55 Q39.2 35.8 38.65 40.65 31.25 39.7 25.8 37.15 24.55 42.3 21.05 46.3 12.2 43.85 5.6 39.95 4.1 43.65 0.8 46.55 -5.8 43.0 -10.0 38.6 -14.85 42.7 -22.25 45.4 -24.15 40.2 -24.45 34.3 -32.9 35.4 -41.6 34.3 -40.25 31.55 -37.4 28.8" fill="url(#gradient5)" fill-rule="evenodd" stroke="none"/>
      <path d="M-3.4 -20.25 Q-4.65 -17.85 -6.8 -15.7 -4.75 -14.0 -3.35 -11.8 -13.4 -11.95 -23.45 -12.35 -25.35 -16.45 -23.45 -20.6 L-3.4 -20.25 M11.7 -11.8 Q13.2 -14.75 15.65 -16.9 14.0 -18.5 12.85 -20.25 L32.65 -20.6 Q33.9 -16.2 32.65 -12.35 L11.7 -11.8" fill="url(#gradient6)" fill-rule="evenodd" stroke="none"/>
      <path d="M-26.9 -26.75 L-26.55 -27.6 Q-26.2 -27.95 -25.7 -27.95 -25.2 -27.95 -24.85 -27.6 -24.5 -27.25 -24.5 -26.75 -24.5 -26.25 -24.85 -25.9 -25.2 -25.6 -25.7 -25.6 -26.2 -25.6 -26.55 -25.9 -26.9 -26.25 -26.9 -26.75 M-34.25 -34.75 L-28.45 -34.5 -19.1 -34.15 -11.45 -33.95 -6.45 -33.9 -2.6 -31.8 3.4 -28.5 10.6 -33.15 11.9 -33.95 13.95 -34.0 22.3 -34.25 35.35 -34.8 Q37.85 -9.7 35.5 18.25 L37.9 18.45 Q39.4 24.25 37.9 28.8 29.0 32.1 20.05 33.8 L9.45 35.3 Q-13.85 37.4 -37.4 28.8 -40.25 31.55 -41.6 34.3 -32.9 35.4 -24.45 34.3 -24.15 40.2 -22.25 45.4 -14.85 42.7 -10.0 38.6 -5.8 43.0 0.8 46.55 4.1 43.65 5.6 39.95 12.2 43.85 21.05 46.3 24.55 42.3 25.8 37.15 31.25 39.7 38.65 40.65 39.2 35.8 36.45 32.55 L41.65 32.55 37.9 28.8 M21.8 -45.85 Q2.85 -47.1 -15.9 -46.15 L-16.85 -44.3 -18.65 -40.95 -20.4 -45.05 -20.8 -45.9 -35.6 -44.65 Q-37.9 -40.05 -35.6 -34.85 L-34.25 -34.75 Q-39.7 -10.0 -34.45 18.15 L-34.25 19.2 -29.15 21.15 Q-14.95 26.15 -0.05 26.25 L10.85 25.7 17.95 24.7 25.35 23.1 35.35 20.1 36.75 19.55 M-28.4 -16.85 Q-28.05 -17.2 -27.55 -17.2 -27.05 -17.2 -26.7 -16.85 -26.35 -16.5 -26.35 -16.0 -26.35 -15.55 -26.7 -15.2 -27.05 -14.85 -27.55 -14.85 -28.05 -14.85 -28.4 -15.2 -28.75 -15.55 -28.75 -16.0 -28.75 -16.5 -28.4 -16.85 M-28.1 -3.65 Q-28.45 -4.0 -28.45 -4.5 L-28.1 -5.3 Q-27.75 -5.65 -27.25 -5.65 -26.75 -5.65 -26.4 -5.3 -26.05 -4.95 -26.05 -4.5 -26.05 -4.0 -26.4 -3.65 -26.75 -3.3 -27.25 -3.3 -27.75 -3.3 -28.1 -3.65 M-26.55 16.95 Q-26.2 16.6 -25.7 16.6 -25.2 16.6 -24.85 16.95 -24.5 17.3 -24.5 17.75 -24.5 18.25 -24.85 18.6 -25.2 18.95 -25.7 18.95 -26.2 18.95 -26.55 18.6 L-26.9 17.75 -26.55 16.95 M-34.45 18.15 L-37.4 18.45 Q-39.8 23.3 -37.4 28.8 M-27.7 7.4 Q-27.7 6.9 -27.35 6.55 -27.0 6.2 -26.55 6.2 -26.05 6.2 -25.7 6.55 -25.35 6.9 -25.35 7.4 -25.35 7.85 -25.7 8.2 -26.05 8.55 -26.55 8.55 -27.0 8.55 -27.35 8.2 -27.7 7.85 -27.7 7.4 M-34.25 19.2 L-35.15 18.85 M-1.85 -25.9 Q-1.7 -28.7 -2.6 -31.8 M-1.85 -25.9 L-1.95 -24.9 Q-2.3 -22.5 -3.4 -20.25 -4.65 -17.85 -6.8 -15.7 -4.75 -14.0 -3.35 -11.8 -1.9 -9.65 -1.0 -7.0 L-0.95 -6.75 Q0.5 -2.05 0.1 4.1 -1.0 12.85 -6.8 17.4 -1.25 21.55 -0.05 26.25 M12.85 -20.25 Q11.4 -22.5 10.7 -24.9 L10.6 -25.4 Q9.7 -29.05 10.6 -33.15 M-20.4 -45.05 L-16.85 -44.3 M-3.4 -20.25 L-23.45 -20.6 Q-25.35 -16.45 -23.45 -12.35 -13.4 -11.95 -3.35 -11.8 M11.7 -11.8 Q13.2 -14.75 15.65 -16.9 14.0 -18.5 12.85 -20.25 L32.65 -20.6 Q33.9 -16.2 32.65 -12.35 L11.7 -11.8 Q10.7 -9.9 10.15 -7.65 L10.0 -7.0 Q8.95 -2.45 9.55 3.5 11.05 12.55 17.05 17.25 12.05 21.25 10.85 25.7 M3.0 -18.25 Q3.7 -18.95 4.7 -18.95 5.75 -18.95 6.45 -18.25 7.15 -17.55 7.15 -16.5 7.15 -15.5 6.45 -14.8 5.75 -14.05 4.7 -14.05 3.7 -14.05 3.0 -14.8 2.25 -15.5 2.25 -16.5 2.25 -17.55 3.0 -18.25 M3.0 -0.95 Q3.7 -1.65 4.7 -1.65 5.75 -1.65 6.45 -0.95 7.15 -0.2 7.15 0.8 7.15 1.8 6.45 2.55 5.75 3.25 4.7 3.25 3.7 3.25 3.0 2.55 2.25 1.8 2.25 0.8 2.25 -0.2 3.0 -0.95 M27.5 -45.45 L21.8 -45.85 M27.5 -45.45 L36.05 -44.65 Q37.5 -39.15 36.05 -34.85 L35.35 -34.8 M35.5 18.25 L35.35 20.1 M3.3 16.25 Q4.0 15.5 5.0 15.5 6.0 15.5 6.75 16.25 7.45 16.95 7.45 17.95 7.45 19.0 6.75 19.7 6.0 20.4 5.0 20.4 4.0 20.4 3.3 19.7 2.55 19.0 2.55 17.95 2.55 16.95 3.3 16.25" fill="none" stroke="#000000" stroke-linecap="round" stroke-linejoin="round" stroke-opacity="0.5019608" stroke-width="1.0"/>
      <path d="M-29.15 21.15 Q-30.75 11.4 -31.25 2.15 M-31.45 -2.8 Q-31.8 -19.55 -28.45 -34.5" fill="none" stroke="#000000" stroke-linecap="round" stroke-linejoin="round" stroke-opacity="0.3019608" stroke-width="1.0"/>
    </g>
    <linearGradient gradientTransform="matrix(0.0167, -0.0097, 0.0185, 0.0321, -15.65, -4.1)" gradientUnits="userSpaceOnUse" id="gradient0" spreadMethod="pad" x1="-819.2" x2="819.2">
      <stop offset="0.0" stop-color="#999999"/>
      <stop offset="1.0" stop-color="#cccccc"/>
    </linearGradient>
    <linearGradient gradientTransform="matrix(0.0187, -0.0108, 0.0185, 0.032, 27.45, -4.45)" gradientUnits="userSpaceOnUse" id="gradient1" spreadMethod="pad" x1="-819.2" x2="819.2">
      <stop offset="0.0" stop-color="#999999"/>
      <stop offset="1.0" stop-color="#cccccc"/>
    </linearGradient>
    <linearGradient gradientTransform="matrix(0.0036, -0.0205, 0.0357, 0.0063, 5.1, -3.45)" gradientUnits="userSpaceOnUse" id="gradient2" spreadMethod="pad" x1="-819.2" x2="819.2">
      <stop offset="0.0" stop-color="#999999"/>
      <stop offset="1.0" stop-color="#cccccc"/>
    </linearGradient>
    <linearGradient gradientTransform="matrix(-0.0471, 0.0, 0.0, -0.0107, 0.0, 26.95)" gradientUnits="userSpaceOnUse" id="gradient3" spreadMethod="pad" x1="-819.2" x2="819.2">
      <stop offset="0.0" stop-color="#ffcc00"/>
      <stop offset="1.0" stop-color="#ff9900"/>
    </linearGradient>
    <linearGradient gradientTransform="matrix(-0.0449, 0.0, 0.0, -0.011, 0.0, -37.5)" gradientUnits="userSpaceOnUse" id="gradient4" spreadMethod="pad" x1="-819.2" x2="819.2">
      <stop offset="0.0" stop-color="#ffcc00"/>
      <stop offset="1.0" stop-color="#ff9900"/>
    </linearGradient>
    <linearGradient gradientTransform="matrix(-0.0505, -0.0055, 0.0012, -0.0108, 0.0, 37.7)" gradientUnits="userSpaceOnUse" id="gradient5" spreadMethod="pad" x1="-819.2" x2="819.2">
      <stop offset="0.0" stop-color="#cf4929"/>
      <stop offset="1.0" stop-color="#a82f12"/>
    </linearGradient>
    <linearGradient gradientTransform="matrix(-0.0129, 0.0, 0.0, -0.0054, -13.9, -16.2)" gradientUnits="userSpaceOnUse" id="gradient6" spreadMethod="pad" x1="-819.2" x2="819.2">
      <stop offset="0.0" stop-color="#333333"/>
      <stop offset="1.0" stop-color="#000000"/>
    </linearGradient>
  </defs>
</svg>
