<?xml version="1.0" encoding="UTF-8" standalone="no"?>
<svg xmlns:xlink="http://www.w3.org/1999/xlink" height="531.5px" width="460.6px" xmlns="http://www.w3.org/2000/svg">
  <g transform="matrix(1.0, 0.0, 0.0, 1.0, 193.65, 334.05)">
    <use height="125.85" transform="matrix(1.0, 0.0, 0.0, 1.0, -75.85, -209.0)" width="144.95" xlink:href="#shape0"/>
  </g>
  <defs>
    <g id="shape0" transform="matrix(1.0, 0.0, 0.0, 1.0, 75.85, 209.0)">
      <path d="M51.1 -92.55 Q52.1 -93.5 53.2 -95.65 53.2 -95.95 53.35 -95.95 57.75 -109.55 56.6 -124.2 L56.2 -129.2 Q55.75 -141.25 53.8 -156.15 52.8 -164.85 48.4 -173.8 47.55 -175.6 43.7 -178.05 L42.15 -178.9 38.15 -180.45 28.65 -183.6 22.7 -184.85 Q-2.45 -190.8 -27.3 -187.4 -40.4 -183.6 -50.2 -171.95 -59.15 -161.15 -61.15 -147.8 L-62.7 -111.0 Q-62.55 -106.6 -61.85 -103.9 -60.85 -100.5 -59.15 -98.35 L-57.45 -96.65 -56.3 -96.1 Q-47.65 -93.5 -39.1 -91.8 -9.7 -85.55 20.25 -87.55 L23.95 -87.85 Q43.0 -89.0 50.25 -91.95 L51.1 -92.55 M51.1 -177.45 Q55.9 -170.35 57.5 -158.3 59.6 -141.95 60.15 -129.2 61.6 -114.55 58.75 -100.35 L57.6 -95.95 57.6 -95.8 Q57.6 -93.25 56.75 -91.8 55.2 -89.55 50.65 -87.85 L50.5 -87.85 Q41.55 -84.85 20.25 -84.0 L-3.45 -83.15 Q-30.75 -82.85 -56.3 -91.55 L-57.3 -91.95 -57.6 -92.1 Q-61.85 -94.25 -63.25 -96.5 -65.55 -99.65 -66.25 -105.05 L-66.8 -111.0 -65.4 -147.8 Q-63.7 -166.65 -49.35 -179.9 -39.4 -189.25 -27.3 -192.25 L-20.95 -192.8 Q4.2 -194.35 28.65 -188.25 35.45 -186.55 42.15 -184.15 L45.95 -182.15 Q49.4 -179.9 51.1 -177.45" fill="#000000" fill-rule="evenodd" stroke="none"/>
      <path d="M-57.45 -96.65 L-59.15 -98.35 Q-60.85 -100.5 -61.85 -103.9 -62.55 -106.6 -62.7 -111.0 L-61.15 -147.8 Q-59.15 -161.15 -50.2 -171.95 -40.4 -183.6 -27.3 -187.4 -2.45 -190.8 22.7 -184.85 L28.65 -183.6 38.15 -180.45 42.15 -178.9 43.7 -178.05 Q47.55 -175.6 48.4 -173.8 52.8 -164.85 53.8 -156.15 55.75 -141.25 56.2 -129.2 L56.6 -124.2 Q57.75 -109.55 53.35 -95.95 53.2 -95.95 53.2 -95.65 52.1 -93.5 51.1 -92.55 51.95 -100.9 51.35 -109.45 L51.1 -115.1 Q50.5 -128.75 48.8 -145.8 47.8 -155.3 43.85 -165.55 43.0 -167.55 39.6 -170.2 L38.15 -171.35 34.6 -173.05 Q30.2 -174.9 25.8 -176.45 L20.4 -178.05 Q-2.45 -184.7 -25.2 -180.9 -37.1 -176.45 -45.95 -163.25 -54.15 -151.35 -55.85 -136.3 L-57.45 -96.65" fill="#abbd9a" fill-rule="evenodd" stroke="none"/>
      <path d="M-57.45 -96.65 L-55.85 -136.3 Q-54.15 -151.35 -45.95 -163.25 -37.1 -176.45 -25.2 -180.9 -2.45 -184.7 20.4 -178.05 L25.8 -176.45 Q30.2 -174.9 34.6 -173.05 L38.15 -171.35 39.6 -170.2 Q43.0 -167.55 43.85 -165.55 47.8 -155.3 48.8 -145.8 50.5 -128.75 51.1 -115.1 L51.35 -109.45 Q51.95 -100.9 51.1 -92.55 L50.25 -91.95 Q43.0 -89.0 23.95 -87.85 L20.25 -87.55 Q-9.7 -85.55 -39.1 -91.8 -47.65 -93.5 -56.3 -96.1 L-57.45 -96.65" fill="#889972" fill-rule="evenodd" stroke="none"/>
      <path d="M-9.55 -168.1 Q-9.55 -162.25 -14.4 -157.6 -19.35 -152.9 -26.45 -152.05 -33.55 -150.9 -38.55 -154.15 -43.35 -157.75 -43.35 -163.4 -43.35 -169.25 -38.55 -173.9 -33.55 -178.6 -26.45 -179.75 -19.35 -180.6 -14.4 -177.35 -9.55 -173.8 -9.55 -168.1" fill="url(#gradient0)" fill-rule="evenodd" stroke="none"/>
      <path d="M-17.4 -159.55 Q-21.05 -156.0 -26.45 -155.3 -31.85 -154.45 -35.55 -157.0 -39.25 -159.7 -39.25 -164.1 -39.25 -168.4 -35.55 -171.95 -31.85 -175.5 -26.45 -176.35 -21.05 -177.05 -17.4 -174.5 -13.7 -171.95 -13.7 -167.55 -13.7 -163.25 -17.4 -159.55" fill="url(#gradient1)" fill-rule="evenodd" stroke="none"/>
      <path d="M-33.85 -161.7 Q-34.7 -162.85 -34.7 -163.85 -34.7 -165.8 -33.0 -167.95 -31.0 -170.35 -28.45 -170.95 -22.2 -172.8 -19.35 -169.8 -17.65 -167.8 -17.65 -165.4 -17.65 -164.1 -19.1 -163.55 -20.2 -163.0 -23.9 -162.25 L-31.3 -160.3 Q-32.85 -160.3 -33.85 -161.7" fill="#ffffff" fill-rule="evenodd" stroke="none"/>
      <path d="M-33.85 -161.7 Q-32.85 -160.3 -31.3 -160.3 L-23.9 -162.25 Q-20.2 -163.0 -19.1 -163.55 -17.65 -164.1 -17.65 -165.4 -17.65 -167.8 -19.35 -169.8 -22.2 -172.8 -28.45 -170.95 -31.0 -170.35 -33.0 -167.95 -34.7 -165.8 -34.7 -163.85 -34.7 -162.85 -33.85 -161.7 M-35.85 -163.7 Q-35.85 -167.1 -32.7 -169.65 -30.0 -172.05 -26.2 -172.5 -22.2 -173.05 -19.65 -171.35 -16.65 -169.35 -16.65 -165.25 -16.65 -161.85 -22.65 -161.3 L-26.6 -160.15 Q-30.0 -159.15 -31.45 -159.15 -33.55 -159.15 -34.85 -161.15 -35.85 -162.55 -35.85 -163.7" fill="#000000" fill-rule="evenodd" stroke="none"/>
      <path d="M43.55 -157.3 Q40.0 -154.9 34.6 -155.45 29.35 -156.3 25.65 -159.85 21.95 -163.4 21.95 -167.65 21.95 -172.05 25.65 -174.65 29.35 -177.2 34.6 -176.35 40.0 -175.6 43.55 -172.05 47.4 -168.5 47.4 -164.25 47.4 -159.85 43.55 -157.3" fill="url(#gradient2)" fill-rule="evenodd" stroke="none"/>
      <path d="M42.7 -158.3 Q39.3 -156.0 34.6 -156.75 29.9 -157.45 26.65 -160.55 23.25 -163.7 23.25 -167.55 23.25 -171.35 26.65 -173.8 29.9 -175.9 34.6 -175.2 39.3 -174.65 42.7 -171.5 45.95 -168.25 45.95 -164.4 45.95 -160.55 42.7 -158.3" fill="url(#gradient3)" fill-rule="evenodd" stroke="none"/>
      <path d="M41.0 -161.85 Q41.7 -163.0 41.7 -164.1 41.7 -165.95 40.15 -168.1 38.75 -170.5 36.6 -171.1 31.6 -173.05 29.35 -169.95 27.95 -167.95 27.95 -165.55 27.95 -164.25 29.05 -163.7 29.9 -163.1 33.05 -162.4 38.45 -160.4 38.85 -160.4 40.15 -160.4 41.0 -161.85 M42.4 -163.85 Q42.4 -162.7 41.7 -161.3 40.7 -159.3 39.0 -159.3 37.85 -159.3 35.2 -160.3 L31.9 -161.4 Q27.1 -162.0 27.1 -165.4 27.1 -169.65 29.5 -171.5 31.6 -173.2 34.75 -172.65 37.85 -172.2 40.15 -169.8 42.4 -167.25 42.4 -163.85" fill="#000000" fill-rule="evenodd" stroke="none"/>
      <path d="M41.0 -161.85 Q40.15 -160.4 38.85 -160.4 38.45 -160.4 33.05 -162.4 29.9 -163.1 29.05 -163.7 27.95 -164.25 27.95 -165.55 27.95 -167.95 29.35 -169.95 31.6 -173.05 36.6 -171.1 38.75 -170.5 40.15 -168.1 41.7 -165.95 41.7 -164.1 41.7 -163.0 41.0 -161.85" fill="#ffffff" fill-rule="evenodd" stroke="none"/>
      <path d="M-13.55 -143.65 Q-12.05 -144.95 -4.7 -146.5 2.7 -148.1 10.45 -148.75 L18.1 -148.15 26.0 -147.6 27.8 -147.4 Q34.75 -146.45 41.95 -144.2 L32.35 -143.1 -13.55 -143.1 -13.55 -143.65" fill="#401126" fill-rule="evenodd" stroke="none"/>
      <path d="M-61.6 -200.0 L-62.1 -198.7 Q-63.2 -195.4 -63.2 -193.15 -63.2 -190.85 -61.9 -189.55 -60.5 -188.25 -58.0 -188.25 -55.4 -188.25 -52.8 -189.35 L-47.2 -191.95 -47.2 -191.55 Q-52.45 -186.6 -57.2 -174.9 -61.8 -163.45 -62.7 -153.8 L-62.7 -152.2 -60.15 -152.05 -57.6 -151.95 -57.45 -151.7 -57.35 -151.25 -57.55 -149.4 Q-61.8 -144.75 -64.95 -139.85 L-66.0 -138.25 -60.5 -138.05 Q-49.6 -140.25 -38.65 -145.0 L-39.15 -144.5 Q-43.05 -140.35 -44.0 -137.5 L-46.9 -132.15 Q-49.6 -126.9 -49.6 -125.6 -49.6 -124.9 -45.6 -120.35 -41.7 -115.8 -41.6 -114.6 L-74.65 -114.6 Q-75.15 -120.15 -72.4 -125.2 -74.9 -130.3 -75.35 -137.4 -74.65 -142.85 -68.85 -148.05 -67.7 -158.25 -64.85 -166.9 -73.95 -180.0 -70.45 -195.6 -66.1 -198.05 -61.6 -200.0 M-68.25 -116.65 L-72.4 -125.2 -68.25 -116.65 M-59.0 -179.65 Q-56.4 -184.25 -53.05 -188.2 -56.4 -184.25 -59.0 -179.65 -62.5 -173.75 -64.85 -166.9 -62.5 -173.75 -59.0 -179.65 L-60.25 -184.45 -59.0 -179.65 M-69.6 -139.6 L-67.25 -138.65 -66.0 -138.25 -67.25 -138.65 -69.6 -139.6" fill="url(#gradient4)" fill-rule="evenodd" stroke="none"/>
      <path d="M-57.55 -149.4 L-57.35 -151.25 -57.45 -151.7 -57.6 -151.95 -60.15 -152.05 -62.7 -152.2 -62.7 -153.8 Q-61.8 -163.45 -57.2 -174.9 -52.45 -186.6 -47.2 -191.55 L-47.2 -191.95 -52.8 -189.35 Q-55.4 -188.25 -58.0 -188.25 -60.5 -188.25 -61.9 -189.55 -63.2 -190.85 -63.2 -193.15 -63.2 -195.4 -62.1 -198.7 L-61.6 -200.0 Q-44.55 -207.55 -25.05 -208.5 4.1 -208.1 30.9 -199.25 34.15 -197.7 37.0 -195.65 40.95 -192.85 44.05 -189.1 46.85 -184.15 48.1 -179.15 49.0 -175.5 52.65 -167.4 53.0 -166.6 56.35 -162.25 59.55 -157.75 59.55 -155.8 L58.95 -153.25 Q58.5 -151.65 58.4 -150.7 L58.25 -149.65 Q58.25 -147.9 61.15 -145.25 64.1 -142.65 64.1 -140.45 64.1 -139.75 60.9 -131.8 57.7 -123.85 57.7 -122.3 57.7 -121.55 59.85 -118.85 61.95 -116.1 61.95 -115.2 L61.9 -114.6 -41.6 -114.6 Q-41.7 -115.8 -45.6 -120.35 -49.6 -124.9 -49.6 -125.6 -49.6 -126.9 -46.9 -132.15 L-44.0 -137.5 Q-43.05 -140.35 -39.15 -144.5 L-38.65 -145.0 Q-35.45 -146.4 -32.2 -148.05 -4.05 -160.95 16.45 -163.95 24.45 -164.7 55.85 -143.35 55.5 -148.75 54.4 -153.5 52.2 -162.6 46.85 -169.5 25.85 -182.35 7.05 -183.45 -24.55 -179.2 -41.35 -165.7 -51.0 -156.95 -57.55 -149.4 M63.35 -141.2 Q59.95 -140.5 56.6 -142.8 L55.85 -143.35 56.6 -142.8 Q59.95 -140.5 63.35 -141.2 M-13.55 -143.65 L-13.55 -143.1 32.35 -143.1 41.95 -144.2 Q34.75 -146.45 27.8 -147.4 L26.0 -147.6 18.1 -148.15 10.45 -148.75 Q2.7 -148.1 -4.7 -146.5 -12.05 -144.95 -13.55 -143.65" fill="url(#gradient5)" fill-rule="evenodd" stroke="none"/>
      <path d="M-57.55 -149.4 Q-51.0 -156.95 -41.35 -165.7 -24.55 -179.2 7.05 -183.45 25.85 -182.35 46.85 -169.5 52.2 -162.6 54.4 -153.5 55.5 -148.75 55.85 -143.35 24.45 -164.7 16.45 -163.95 -4.05 -160.95 -32.2 -148.05 -35.45 -146.4 -38.65 -145.0 -49.6 -140.25 -60.5 -138.05 L-66.0 -138.25 -64.95 -139.85 Q-61.8 -144.75 -57.55 -149.4" fill="url(#gradient6)" fill-rule="evenodd" stroke="none"/>
      <path d="M44.05 -189.1 L47.05 -184.95 60.55 -163.5 Q62.75 -158.75 62.55 -151.9 L62.35 -149.15 62.2 -147.75 67.8 -139.55 68.1 -136.4 Q67.95 -132.4 65.75 -127.3 68.2 -121.5 68.55 -114.6 L61.9 -114.6 61.95 -115.2 Q61.95 -116.1 59.85 -118.85 57.7 -121.55 57.7 -122.3 57.7 -123.85 60.9 -131.8 64.1 -139.75 64.1 -140.45 64.1 -142.65 61.15 -145.25 58.25 -147.9 58.25 -149.65 L58.4 -150.7 Q58.5 -151.65 58.95 -153.25 L59.55 -155.8 Q59.55 -157.75 56.35 -162.25 53.0 -166.6 52.65 -167.4 49.0 -175.5 48.1 -179.15 46.85 -184.15 44.05 -189.1 M63.35 -122.5 L65.75 -127.3 63.35 -122.5" fill="url(#gradient7)" fill-rule="evenodd" stroke="none"/>
      <path d="M68.55 -114.6 L68.6 -111.4 68.3 -109.95 Q66.55 -103.95 56.5 -95.25 53.75 -93.4 48.7 -91.85 L52.25 -94.8 Q54.8 -97.25 56.65 -100.2 61.35 -111.65 61.9 -114.6 L68.55 -114.6" fill="url(#gradient8)" fill-rule="evenodd" stroke="none"/>
      <path d="M48.7 -91.85 Q36.7 -88.4 11.95 -86.65 L-24.4 -88.2 Q-30.0 -90.1 -34.8 -92.85 -44.5 -98.4 -46.8 -105.0 -46.25 -106.8 -44.25 -110.15 L-41.6 -114.55 -41.6 -114.6 61.9 -114.6 Q61.35 -111.65 56.65 -100.2 54.8 -97.25 52.25 -94.8 L48.7 -91.85 M51.9 -103.15 Q30.15 -96.6 3.85 -96.25 30.15 -96.6 51.9 -103.15" fill="url(#gradient9)" fill-rule="evenodd" stroke="none"/>
      <path d="M-24.4 -88.2 L-43.6 -90.75 Q-55.8 -92.85 -66.95 -96.0 -73.95 -105.85 -74.65 -114.6 L-41.6 -114.6 -41.6 -114.55 -44.25 -110.15 Q-46.25 -106.8 -46.8 -105.0 -44.5 -98.4 -34.8 -92.85 -30.0 -90.1 -24.4 -88.2" fill="url(#gradient10)" fill-rule="evenodd" stroke="none"/>
      <path d="M-57.55 -149.4 Q-51.0 -156.95 -41.35 -165.7 -24.55 -179.2 7.05 -183.45 25.85 -182.35 46.85 -169.5 52.2 -162.6 54.4 -153.5 55.5 -148.75 55.85 -143.35 L56.6 -142.8 Q59.95 -140.5 63.35 -141.2 M-74.65 -114.6 Q-75.15 -120.15 -72.4 -125.2 -74.9 -130.3 -75.35 -137.4 -74.65 -142.85 -68.85 -148.05 -67.7 -158.25 -64.85 -166.9 -73.95 -180.0 -70.45 -195.6 -66.1 -198.05 -61.6 -200.0 -44.55 -207.55 -25.05 -208.5 4.1 -208.1 30.9 -199.25 34.15 -197.7 37.0 -195.65 40.95 -192.85 44.05 -189.1 L47.05 -184.95 60.55 -163.5 Q62.75 -158.75 62.55 -151.9 L62.35 -149.15 62.2 -147.75 67.8 -139.55 68.1 -136.4 Q67.95 -132.4 65.75 -127.3 68.2 -121.5 68.55 -114.6 L68.6 -111.4 68.3 -109.95 Q66.55 -103.95 56.5 -95.25 53.75 -93.4 48.7 -91.85 36.7 -88.4 11.95 -86.65 L-24.4 -88.2 -43.6 -90.75 Q-55.8 -92.85 -66.95 -96.0 -73.95 -105.85 -74.65 -114.6 M-38.65 -145.0 Q-49.6 -140.25 -60.5 -138.05 L-66.0 -138.25 -67.25 -138.65 -69.6 -139.6 M-64.85 -166.9 Q-62.5 -173.75 -59.0 -179.65 L-60.25 -184.45 M-53.05 -188.2 Q-56.4 -184.25 -59.0 -179.65 M-72.4 -125.2 L-68.25 -116.65 M-57.55 -149.4 Q-61.8 -144.75 -64.95 -139.85 L-66.0 -138.25 M55.85 -143.35 Q24.45 -164.7 16.45 -163.95 -4.05 -160.95 -32.2 -148.05 -35.45 -146.4 -38.65 -145.0 M65.75 -127.3 L63.35 -122.5 M3.85 -96.25 Q30.15 -96.6 51.9 -103.15" fill="none" stroke="#000000" stroke-linecap="round" stroke-linejoin="round" stroke-opacity="0.5019608" stroke-width="1.0"/>
      <path d="M-54.6 -131.75 Q-55.3 -131.85 -55.3 -131.45 L-54.9 -131.15 Q-54.6 -130.75 -54.15 -130.75 -53.45 -130.75 -52.9 -131.3 -52.3 -131.75 -52.3 -132.3 L-52.45 -132.6 -52.75 -132.6 Q-53.05 -132.6 -53.6 -132.0 L-54.6 -131.75 M-55.3 -131.15 L-56.0 -131.85 -55.85 -132.85 Q-55.6 -133.6 -54.15 -133.6 -52.2 -133.6 -52.2 -132.85 -52.2 -130.6 -53.75 -130.6 -54.6 -130.6 -55.3 -131.15 M-54.05 -124.9 L-55.45 -124.65 -57.15 -123.65 Q-58.3 -123.05 -59.15 -123.05 L-59.7 -122.8 -60.3 -122.35 Q-60.3 -121.95 -59.7 -121.95 L-58.0 -122.2 -57.15 -122.5 -56.3 -122.95 Q-54.05 -124.05 -54.05 -124.9 M-52.75 -125.9 Q-52.75 -124.75 -55.45 -123.05 -58.0 -121.5 -59.15 -121.5 -60.4 -121.5 -60.7 -122.05 L-60.7 -122.65 Q-60.7 -124.5 -56.7 -125.9 -52.75 -127.2 -52.75 -125.9 M-40.25 -113.55 L-40.55 -113.25 -42.4 -112.0 -44.8 -110.55 -47.5 -109.85 -48.05 -109.55 Q-50.2 -109.85 -51.2 -111.4 -52.05 -112.85 -52.05 -114.55 -52.05 -116.55 -50.75 -119.5 L-49.35 -122.35 Q-49.35 -122.95 -50.2 -124.35 -51.05 -125.5 -51.05 -127.05 -51.05 -130.9 -47.9 -132.6 -45.5 -133.85 -42.8 -133.85 -40.8 -133.85 -39.4 -132.3 -40.1 -132.85 -40.1 -132.3 -40.1 -131.45 -39.25 -129.9 -38.55 -127.9 -38.55 -127.35 -38.1 -125.05 -38.1 -122.2 L-38.4 -119.8 -39.25 -117.55 Q-39.4 -116.4 -40.4 -115.1 L-41.25 -113.85 Q-41.8 -113.25 -41.8 -112.85 L-41.55 -112.7 -40.95 -113.25 -40.25 -113.55 M-38.7 -131.15 Q-37.95 -130.05 -37.55 -128.3 -36.7 -125.5 -36.85 -122.5 -36.85 -118.1 -39.25 -114.55 L-39.7 -114.0 -38.1 -117.1 Q-37.0 -119.95 -37.0 -122.2 L-37.55 -127.6 Q-37.7 -129.2 -38.25 -130.3 L-38.7 -131.15 M-44.2 -106.45 L-44.65 -106.45 -44.95 -105.45 -44.95 -105.05 -44.8 -104.75 Q-44.2 -104.75 -44.2 -105.9 L-44.2 -106.3 -44.1 -105.45 Q-44.1 -104.45 -44.95 -104.45 -45.95 -104.45 -45.95 -105.6 -45.95 -106.85 -44.95 -106.85 -44.5 -107.0 -44.2 -106.45 M-37.4 -106.15 Q-37.55 -105.15 -38.1 -105.15 -39.1 -105.15 -39.25 -105.9 L-39.25 -106.75 Q-39.25 -107.85 -38.7 -109.0 -38.4 -109.85 -37.7 -109.3 -37.1 -108.85 -37.1 -108.45 L-37.1 -107.85 Q-37.25 -108.45 -37.55 -108.7 L-37.85 -108.15 -37.95 -107.3 Q-37.95 -107.0 -38.1 -106.75 L-38.4 -105.9 -38.4 -105.6 Q-38.25 -105.45 -38.1 -105.45 -37.7 -105.45 -37.4 -106.15" fill="#990000" fill-rule="evenodd" stroke="none"/>
      <path d="M-54.6 -131.75 L-53.6 -132.0 Q-53.05 -132.6 -52.75 -132.6 L-52.45 -132.6 -52.3 -132.3 Q-52.3 -131.75 -52.9 -131.3 -53.45 -130.75 -54.15 -130.75 -54.6 -130.75 -54.9 -131.15 L-55.3 -131.45 Q-55.3 -131.85 -54.6 -131.75 M-54.05 -124.9 Q-54.05 -124.05 -56.3 -122.95 L-57.15 -122.5 -58.0 -122.2 -59.7 -121.95 Q-60.3 -121.95 -60.3 -122.35 L-59.7 -122.8 -59.15 -123.05 Q-58.3 -123.05 -57.15 -123.65 L-55.45 -124.65 -54.05 -124.9 M-40.25 -113.55 L-40.95 -113.25 -41.55 -112.7 -41.8 -112.85 Q-41.8 -113.25 -41.25 -113.85 L-40.4 -115.1 Q-39.4 -116.4 -39.25 -117.55 L-38.4 -119.8 -38.1 -122.2 Q-38.1 -125.05 -38.55 -127.35 -38.55 -127.9 -39.25 -129.9 -40.1 -131.45 -40.1 -132.3 -40.1 -132.85 -39.4 -132.3 L-38.85 -131.6 Q-38.7 -131.45 -38.7 -131.15 L-38.25 -130.3 Q-37.7 -129.2 -37.55 -127.6 L-37.0 -122.2 Q-37.0 -119.95 -38.1 -117.1 L-39.7 -114.0 -39.8 -113.85 -39.95 -113.7 -40.25 -113.7 -40.25 -113.55 M-44.2 -106.3 L-44.2 -105.9 Q-44.2 -104.75 -44.8 -104.75 L-44.95 -105.05 -44.95 -105.45 -44.65 -106.45 -44.2 -106.45 -44.2 -106.3 M-37.4 -106.15 Q-37.7 -105.45 -38.1 -105.45 -38.25 -105.45 -38.4 -105.6 L-38.4 -105.9 -38.1 -106.75 Q-37.95 -107.0 -37.95 -107.3 L-37.85 -108.15 -37.55 -108.7 Q-37.25 -108.45 -37.1 -107.85 L-37.1 -107.6 -37.25 -106.45 -37.4 -106.15" fill="#bd1e1e" fill-rule="evenodd" stroke="none"/>
      <path d="M30.05 -128.3 L28.95 -127.75 27.95 -127.05 Q27.95 -126.6 28.95 -126.6 30.05 -126.6 30.9 -127.75 31.6 -128.45 31.6 -128.9 L31.35 -129.3 30.65 -129.05 30.05 -128.3 M26.65 -127.75 Q26.65 -129.3 29.35 -129.9 31.9 -130.6 31.9 -128.75 31.9 -127.9 31.05 -127.2 29.9 -126.5 28.2 -126.5 26.65 -126.5 26.65 -127.75 M33.45 -133.45 Q33.2 -132.85 32.6 -132.85 32.2 -132.85 31.75 -133.45 L31.5 -134.0 Q31.5 -135.4 32.6 -135.3 33.75 -135.0 33.75 -134.15 L33.45 -133.45 M48.25 -139.4 L52.65 -137.85 Q54.2 -137.0 55.05 -135.4 56.35 -133.45 54.2 -132.3 52.5 -131.15 50.35 -131.75 48.95 -132.15 48.1 -132.75 46.8 -133.7 45.1 -133.85 43.85 -133.7 43.25 -134.7 41.7 -137.15 43.85 -138.85 45.7 -140.25 48.25 -139.4 M47.95 -134.7 L47.25 -134.85 Q46.25 -135.4 45.1 -135.4 43.7 -135.4 43.7 -135.0 43.7 -134.7 44.25 -134.55 L45.4 -134.3 47.4 -133.6 48.8 -132.75 Q49.4 -132.3 51.35 -132.3 53.8 -132.3 53.8 -132.85 53.8 -133.45 52.95 -133.45 L52.5 -133.3 50.35 -133.3 49.95 -133.45 48.95 -134.3 47.95 -134.7" fill="#990000" fill-rule="evenodd" stroke="none"/>
      <path d="M30.05 -128.3 L30.65 -129.05 31.35 -129.3 31.6 -128.9 Q31.6 -128.45 30.9 -127.75 30.05 -126.6 28.95 -126.6 27.95 -126.6 27.95 -127.05 L28.95 -127.75 30.05 -128.3 M47.95 -134.7 L48.95 -134.3 49.95 -133.45 50.35 -133.3 52.5 -133.3 52.95 -133.45 Q53.8 -133.45 53.8 -132.85 53.8 -132.3 51.35 -132.3 49.4 -132.3 48.8 -132.75 L47.4 -133.6 45.4 -134.3 44.25 -134.55 Q43.7 -134.7 43.7 -135.0 43.7 -135.4 45.1 -135.4 46.25 -135.4 47.25 -134.85 L47.95 -134.7" fill="#bd1e1e" fill-rule="evenodd" stroke="none"/>
    </g>
    <radialGradient cx="0" cy="0" gradientTransform="matrix(0.0208, -0.0028, 0.0, -0.017, -26.45, -165.8)" gradientUnits="userSpaceOnUse" id="gradient0" r="819.2" spreadMethod="pad">
      <stop offset="0.0" stop-color="#000000"/>
      <stop offset="1.0" stop-color="#000000" stop-opacity="0.0"/>
    </radialGradient>
    <radialGradient cx="0" cy="0" gradientTransform="matrix(0.0158, -0.0021, 0.0, -0.0129, -26.45, -165.8)" gradientUnits="userSpaceOnUse" id="gradient1" r="819.2" spreadMethod="pad">
      <stop offset="0.0" stop-color="#000000"/>
      <stop offset="1.0" stop-color="#000000" stop-opacity="0.0"/>
    </radialGradient>
    <radialGradient cx="0" cy="0" gradientTransform="matrix(0.0157, 0.0021, 0.0, 0.0128, 34.6, -165.95)" gradientUnits="userSpaceOnUse" id="gradient2" r="819.2" spreadMethod="pad">
      <stop offset="0.0" stop-color="#000000"/>
      <stop offset="1.0" stop-color="#000000" stop-opacity="0.0"/>
    </radialGradient>
    <radialGradient cx="0" cy="0" gradientTransform="matrix(0.014, 0.0019, 0.0, 0.0114, 34.6, -165.95)" gradientUnits="userSpaceOnUse" id="gradient3" r="819.2" spreadMethod="pad">
      <stop offset="0.0" stop-color="#000000"/>
      <stop offset="1.0" stop-color="#000000" stop-opacity="0.0"/>
    </radialGradient>
    <linearGradient gradientTransform="matrix(-0.0428, 0.0491, -0.05, -0.0436, -81.2, -172.15)" gradientUnits="userSpaceOnUse" id="gradient4" spreadMethod="pad" x1="-819.2" x2="819.2">
      <stop offset="0.0" stop-color="#4d142f"/>
      <stop offset="1.0" stop-color="#2e0417"/>
    </linearGradient>
    <linearGradient gradientTransform="matrix(-0.0048, -0.0775, 0.0724, -0.0045, 0.35, -149.05)" gradientUnits="userSpaceOnUse" id="gradient5" spreadMethod="pad" x1="-819.2" x2="819.2">
      <stop offset="0.0" stop-color="#4d142f"/>
      <stop offset="0.9803921568627451" stop-color="#6b2c47"/>
    </linearGradient>
    <radialGradient cx="0" cy="0" gradientTransform="matrix(0.0783, 0.0, 0.0, 0.0783, 1.7, -160.4)" gradientUnits="userSpaceOnUse" id="gradient6" r="819.2" spreadMethod="pad">
      <stop offset="0.43137254901960786" stop-color="#000000" stop-opacity="0.0"/>
      <stop offset="1.0" stop-color="#000000" stop-opacity="0.5529412"/>
    </radialGradient>
    <linearGradient gradientTransform="matrix(0.0168, 0.0629, -0.0559, 0.015, 58.15, -134.1)" gradientUnits="userSpaceOnUse" id="gradient7" spreadMethod="pad" x1="-819.2" x2="819.2">
      <stop offset="0.0" stop-color="#4d142f"/>
      <stop offset="1.0" stop-color="#2e0417"/>
    </linearGradient>
    <linearGradient gradientTransform="matrix(0.0168, 0.0704, -0.0559, 0.0168, 58.15, -136.4)" gradientUnits="userSpaceOnUse" id="gradient8" spreadMethod="pad" x1="-819.2" x2="819.2">
      <stop offset="0.0" stop-color="#4d142f"/>
      <stop offset="1.0" stop-color="#2e0417"/>
    </linearGradient>
    <linearGradient gradientTransform="matrix(-0.0048, -0.0868, 0.0724, -0.005, 0.35, -153.15)" gradientUnits="userSpaceOnUse" id="gradient9" spreadMethod="pad" x1="-819.2" x2="819.2">
      <stop offset="0.0" stop-color="#4d142f"/>
      <stop offset="0.9803921568627451" stop-color="#6b2c47"/>
    </linearGradient>
    <linearGradient gradientTransform="matrix(-0.0428, 0.055, -0.05, -0.0488, -81.2, -179.05)" gradientUnits="userSpaceOnUse" id="gradient10" spreadMethod="pad" x1="-819.2" x2="819.2">
      <stop offset="0.0" stop-color="#4d142f"/>
      <stop offset="1.0" stop-color="#2e0417"/>
    </linearGradient>
  </defs>
</svg>
