<?xml version="1.0" encoding="UTF-8" standalone="no"?>
<svg xmlns:xlink="http://www.w3.org/1999/xlink" height="531.5px" width="460.6px" xmlns="http://www.w3.org/2000/svg">
  <g transform="matrix(1.0, 0.0, 0.0, 1.0, 193.65, 334.05)">
    <use height="190.55" transform="matrix(1.0, 0.0, 0.0, 1.0, -87.5, -276.55)" width="154.9" xlink:href="#shape0"/>
  </g>
  <defs>
    <g id="shape0" transform="matrix(1.0, 0.0, 0.0, 1.0, 87.5, 276.55)">
      <path d="M-10.85 -140.5 Q-9.4 -141.7 -2.5 -143.15 4.55 -144.7 11.85 -145.3 L19.1 -144.75 26.6 -144.25 28.3 -144.05 Q34.85 -143.1 41.7 -141.0 L32.6 -140.0 -10.85 -140.0 -10.85 -140.5" fill="#401126" fill-rule="evenodd" stroke="none"/>
      <path d="M-56.35 -193.8 L-56.8 -192.6 Q-57.85 -189.45 -57.85 -187.35 -57.85 -185.15 -56.6 -183.95 -55.3 -182.7 -52.9 -182.7 -50.45 -182.7 -48.0 -183.75 L-42.7 -186.25 -42.7 -185.85 Q-47.65 -181.15 -52.15 -170.05 -56.5 -159.25 -57.35 -150.1 L-57.35 -148.6 -54.95 -148.45 -52.55 -148.35 -52.4 -148.15 -52.3 -147.65 -52.5 -145.95 Q-56.5 -141.5 -59.5 -136.9 L-60.5 -135.4 -55.3 -135.2 Q-45.0 -137.25 -34.6 -141.75 L-35.1 -141.3 Q-38.75 -137.35 -39.7 -134.7 L-42.4 -129.6 Q-45.0 -124.65 -45.0 -123.4 -45.0 -122.75 -41.2 -118.4 -37.5 -114.1 -37.4 -113.0 L-68.7 -113.0 Q-69.15 -118.25 -66.55 -123.0 -68.95 -127.85 -69.35 -134.6 -68.7 -139.75 -63.2 -144.65 -62.1 -154.3 -59.4 -162.5 -68.05 -174.9 -64.7 -189.65 -60.6 -192.0 -56.35 -193.8 M-62.6 -114.9 L-66.55 -123.0 -62.6 -114.9 M-53.9 -174.55 Q-51.4 -178.9 -48.2 -182.65 -51.4 -178.9 -53.9 -174.55 -57.15 -169.0 -59.4 -162.5 -57.15 -169.0 -53.9 -174.55 L-55.05 -179.1 -53.9 -174.55 M-63.9 -136.65 Q-62.75 -136.1 -61.65 -135.75 L-60.5 -135.4 -61.65 -135.75 Q-62.75 -136.1 -63.9 -136.65" fill="url(#gradient0)" fill-rule="evenodd" stroke="none"/>
      <path d="M-52.5 -145.95 L-52.3 -147.65 -52.4 -148.15 -52.55 -148.35 -54.95 -148.45 -57.35 -148.6 -57.35 -150.1 Q-56.5 -159.25 -52.15 -170.05 -47.65 -181.15 -42.7 -185.85 L-42.7 -186.25 -48.0 -183.75 Q-50.45 -182.7 -52.9 -182.7 -55.3 -182.7 -56.6 -183.95 -57.85 -185.15 -57.85 -187.35 -57.85 -189.45 -56.8 -192.6 L-56.35 -193.8 Q-40.2 -201.0 -21.75 -201.9 5.85 -201.5 31.25 -193.1 34.3 -191.65 37.0 -189.7 40.75 -187.05 43.65 -183.5 46.35 -178.8 47.5 -174.1 48.35 -170.6 51.8 -163.0 52.15 -162.25 55.35 -158.1 58.35 -153.85 58.35 -151.95 L57.75 -149.6 57.25 -147.15 57.1 -146.15 Q57.1 -144.5 59.9 -142.0 62.65 -139.55 62.65 -137.45 62.65 -136.8 59.65 -129.3 56.6 -121.75 56.6 -120.3 56.6 -119.55 58.6 -117.0 60.65 -114.4 60.65 -113.55 L60.6 -113.0 -37.4 -113.0 Q-37.5 -114.1 -41.2 -118.4 -45.0 -122.75 -45.0 -123.4 -45.0 -124.65 -42.4 -129.6 L-39.7 -134.7 Q-38.75 -137.35 -35.1 -141.3 L-34.6 -141.75 Q-31.6 -143.05 -28.5 -144.65 -1.85 -156.85 17.55 -159.7 25.1 -160.4 54.85 -140.2 54.55 -145.3 53.45 -149.8 51.4 -158.45 46.35 -164.95 26.45 -177.15 8.65 -178.15 -21.3 -174.15 -37.15 -161.35 -46.3 -153.1 -52.5 -145.95 M61.95 -138.15 Q58.7 -137.5 55.55 -139.7 L54.85 -140.2 55.55 -139.7 Q58.7 -137.5 61.95 -138.15 M-10.85 -140.5 L-10.85 -140.0 32.6 -140.0 41.7 -141.0 Q34.85 -143.1 28.3 -144.05 L26.6 -144.25 19.1 -144.75 11.85 -145.3 Q4.55 -144.7 -2.5 -143.15 -9.4 -141.7 -10.85 -140.5" fill="url(#gradient1)" fill-rule="evenodd" stroke="none"/>
      <path d="M-52.5 -145.95 Q-46.3 -153.1 -37.15 -161.35 -21.3 -174.15 8.65 -178.15 26.45 -177.15 46.35 -164.95 51.4 -158.45 53.45 -149.8 54.55 -145.3 54.85 -140.2 25.1 -160.4 17.55 -159.7 -1.85 -156.85 -28.5 -144.65 -31.6 -143.05 -34.6 -141.75 -45.0 -137.25 -55.3 -135.2 L-60.5 -135.4 -59.5 -136.9 Q-56.5 -141.5 -52.5 -145.95" fill="url(#gradient2)" fill-rule="evenodd" stroke="none"/>
      <path d="M43.65 -183.5 L46.55 -179.55 59.3 -159.3 Q61.4 -154.8 61.2 -148.3 L61.0 -145.7 60.85 -144.4 66.15 -136.6 66.45 -133.6 Q66.3 -129.85 64.25 -125.05 66.55 -119.5 66.85 -113.0 L60.6 -113.0 60.65 -113.55 Q60.65 -114.4 58.6 -117.0 56.6 -119.55 56.6 -120.3 56.6 -121.75 59.65 -129.3 62.65 -136.8 62.65 -137.45 62.65 -139.55 59.9 -142.0 57.1 -144.5 57.1 -146.15 L57.25 -147.15 57.75 -149.6 58.35 -151.95 Q58.35 -153.85 55.35 -158.1 52.15 -162.25 51.8 -163.0 48.35 -170.6 47.5 -174.1 46.35 -178.8 43.65 -183.5 M61.95 -120.5 L64.25 -125.05 61.95 -120.5" fill="url(#gradient3)" fill-rule="evenodd" stroke="none"/>
      <path d="M66.85 -113.0 L66.9 -109.95 66.65 -108.6 Q65.0 -102.9 55.5 -94.65 52.85 -92.95 48.05 -91.45 L51.45 -94.25 Q53.85 -96.6 55.6 -99.35 60.05 -110.15 60.6 -113.0 L66.85 -113.0" fill="url(#gradient4)" fill-rule="evenodd" stroke="none"/>
      <path d="M48.05 -91.45 Q36.75 -88.2 13.3 -86.5 L-21.15 -88.0 Q-26.45 -89.8 -31.0 -92.4 -40.15 -97.65 -42.3 -103.9 -41.8 -105.6 -39.95 -108.75 L-37.4 -112.95 -37.4 -113.0 60.6 -113.0 Q60.05 -110.15 55.6 -99.35 53.85 -96.6 51.45 -94.25 L48.05 -91.45 M51.1 -102.15 Q30.5 -95.95 5.6 -95.6 30.5 -95.95 51.1 -102.15" fill="url(#gradient5)" fill-rule="evenodd" stroke="none"/>
      <path d="M-21.15 -88.0 L-39.25 -90.4 Q-50.85 -92.4 -61.4 -95.35 -68.05 -104.7 -68.7 -113.0 L-37.4 -113.0 -37.4 -112.95 -39.95 -108.75 Q-41.8 -105.6 -42.3 -103.9 -40.15 -97.65 -31.0 -92.4 -26.45 -89.8 -21.15 -88.0" fill="url(#gradient6)" fill-rule="evenodd" stroke="none"/>
      <path d="M-52.5 -145.95 Q-46.3 -153.1 -37.15 -161.35 -21.3 -174.15 8.65 -178.15 26.45 -177.15 46.35 -164.95 51.4 -158.45 53.45 -149.8 54.55 -145.3 54.85 -140.2 L55.55 -139.7 Q58.7 -137.5 61.95 -138.15 M-68.7 -113.0 Q-69.15 -118.25 -66.55 -123.0 -68.95 -127.85 -69.35 -134.6 -68.7 -139.75 -63.2 -144.65 -62.1 -154.3 -59.4 -162.5 -68.05 -174.9 -64.7 -189.65 -60.6 -192.0 -56.35 -193.8 -40.2 -201.0 -21.75 -201.9 5.85 -201.5 31.25 -193.1 34.3 -191.65 37.0 -189.7 40.75 -187.05 43.65 -183.5 L46.55 -179.55 59.3 -159.3 Q61.4 -154.8 61.2 -148.3 L61.0 -145.7 60.85 -144.4 66.15 -136.6 66.45 -133.6 Q66.3 -129.85 64.25 -125.05 66.55 -119.5 66.85 -113.0 L66.9 -109.95 66.65 -108.6 Q65.0 -102.9 55.5 -94.65 52.85 -92.95 48.05 -91.45 36.75 -88.2 13.3 -86.5 L-21.15 -88.0 -39.25 -90.4 Q-50.85 -92.4 -61.4 -95.35 -68.05 -104.7 -68.7 -113.0 M-34.6 -141.75 Q-45.0 -137.25 -55.3 -135.2 L-60.5 -135.4 -61.65 -135.75 Q-62.75 -136.1 -63.9 -136.65 M-59.4 -162.5 Q-57.15 -169.0 -53.9 -174.55 L-55.05 -179.1 M-48.2 -182.65 Q-51.4 -178.9 -53.9 -174.55 M-66.55 -123.0 L-62.6 -114.9 M-52.5 -145.95 Q-56.5 -141.5 -59.5 -136.9 L-60.5 -135.4 M54.85 -140.2 Q25.1 -160.4 17.55 -159.7 -1.85 -156.85 -28.5 -144.65 -31.6 -143.05 -34.6 -141.75 M64.25 -125.05 L61.95 -120.5 M5.6 -95.6 Q30.5 -95.95 51.1 -102.15" fill="none" stroke="#000000" stroke-linecap="round" stroke-linejoin="round" stroke-opacity="0.5019608" stroke-width="1.0"/>
      <path d="M-45.7 -261.8 L-38.3 -267.8 -28.95 -254.8 -34.4 -250.4 -39.6 -258.65 -39.95 -245.95 -47.55 -239.7 -45.7 -261.8 M-49.45 -217.5 L-40.6 -224.6 -41.3 -203.45 -51.25 -195.2 -49.45 -217.5 M-25.85 -236.65 L-19.55 -241.7 -10.15 -228.55 -17.25 -222.95 -25.85 -236.65 M-0.15 -195.35 L-8.7 -209.1 -0.8 -215.5 8.6 -202.55 -0.15 -195.35" fill="#611b52" fill-opacity="0.6" fill-rule="evenodd" stroke="none"/>
      <path d="M-38.3 -267.8 L-45.7 -261.8 -44.55 -276.3 -38.3 -267.8 M-47.55 -239.7 L-39.95 -245.95 -40.6 -224.6 -49.45 -217.5 -47.55 -239.7 M-34.4 -250.4 L-28.95 -254.8 -19.55 -241.7 -25.85 -236.65 -34.4 -250.4 M-41.3 -203.45 L-42.0 -182.1 -45.6 -179.2 -52.6 -180.45 -51.25 -195.2 -41.3 -203.45 M-8.7 -209.1 L-17.25 -222.95 -10.15 -228.55 -0.8 -215.5 -8.7 -209.1 M4.7 -187.5 L-0.15 -195.35 8.6 -202.55 14.85 -193.95 Q9.9 -190.35 4.7 -187.5" fill="#966a8c" fill-opacity="0.6" fill-rule="evenodd" stroke="none"/>
      <path d="M-39.95 -245.95 L-39.6 -258.65 -34.4 -250.4 Q-37.1 -248.15 -39.95 -245.95 M-17.25 -222.95 Q-29.2 -213.15 -41.3 -203.45 L-40.6 -224.6 -25.85 -236.65 -17.25 -222.95 M-42.0 -182.1 L-8.7 -209.1 -0.15 -195.35 -19.95 -179.4 Q-30.6 -177.8 -42.15 -178.85 L-42.0 -182.1" fill="#240a1d" fill-opacity="0.6" fill-rule="evenodd" stroke="none"/>
      <path d="M-40.6 -224.6 L-39.95 -245.95 Q-37.1 -248.15 -34.4 -250.4 L-25.85 -236.65 -40.6 -224.6 M-41.3 -203.45 Q-29.2 -213.15 -17.25 -222.95 L-8.7 -209.1 -42.0 -182.1 -41.3 -203.45 M-19.95 -179.4 L-0.15 -195.35 4.7 -187.5 Q-6.95 -181.45 -19.95 -179.4" fill="#613b58" fill-opacity="0.6" fill-rule="evenodd" stroke="none"/>
      <path d="M-45.6 -179.2 L-42.0 -182.1 -42.15 -178.85 -45.6 -179.2" fill="#611b55" fill-rule="evenodd" stroke="none"/>
      <path d="M-42.1 -272.9 L-44.0 -275.45 M-46.3 -255.45 L-46.55 -252.3 M-43.2 -263.95 L-45.7 -261.8 -45.95 -258.6 M-36.45 -265.35 L-38.3 -267.8 -40.7 -265.8 M-45.2 -267.65 L-45.5 -264.45 M-30.85 -257.4 L-27.15 -252.2 M-32.45 -251.95 L-29.95 -254.05 M-37.5 -247.9 L-35.05 -249.85 M-32.7 -260.1 L-34.6 -262.65 M-44.75 -274.05 L-45.0 -270.85 M-38.3 -267.8 L-40.2 -270.4 M-42.55 -243.85 L-39.95 -245.95 M-48.3 -230.2 L-48.05 -233.35 M-34.65 -229.4 L-37.25 -227.35 M-39.75 -225.2 L-40.6 -224.6 -42.1 -223.35 M-47.35 -242.75 L-47.55 -239.7 -45.0 -241.7 M-46.85 -249.15 L-47.05 -245.9 M-49.65 -214.25 L-49.2 -220.65 M-50.2 -207.9 L-49.9 -211.1 M-44.6 -221.45 L-47.05 -219.45 M-48.9 -223.85 L-48.65 -227.0 M-47.85 -236.55 L-47.55 -239.7 M-21.45 -244.45 L-19.55 -241.7 -17.65 -239.05 M-15.85 -236.4 L-13.95 -233.85 M-19.55 -241.7 L-22.1 -239.75 M-8.3 -225.9 L-10.15 -228.55 -11.1 -227.85 M-4.45 -220.85 L-6.4 -223.35 M-16.3 -223.65 L-13.75 -225.8 M-25.95 -215.95 L-23.3 -218.0 M-29.6 -233.6 L-32.15 -231.55 M-31.05 -211.8 L-28.55 -213.9 M-36.3 -207.7 L-33.7 -209.7 M-41.3 -203.45 L-38.75 -205.55 M-20.95 -199.0 L-23.55 -196.95 M-15.85 -203.2 L-18.5 -201.15 M-10.8 -207.3 L-13.3 -205.2 M-20.8 -220.1 L-18.25 -222.2 M12.4 -197.35 L14.35 -194.85 M-3.3 -213.5 L-0.8 -215.5 -2.6 -218.1 M1.05 -212.85 L-0.8 -215.5 M4.9 -207.75 L3.0 -210.25 M0.15 -195.6 L2.65 -197.75 M-4.35 -183.5 L-7.35 -182.45 M-9.75 -187.8 L-7.2 -189.7 M-4.6 -191.75 L-2.1 -193.9 M12.95 -192.65 L10.25 -190.85 M7.45 -189.1 L4.7 -187.5 M1.6 -186.0 L-1.35 -184.7 M10.5 -199.9 L6.75 -205.05 M5.25 -199.75 L7.75 -201.9 M-24.55 -237.65 L-27.15 -235.75 M-12.05 -231.3 L-10.15 -228.55 M-5.8 -211.4 L-8.3 -209.45 M-25.3 -249.5 L-23.35 -246.95 M-16.45 -180.05 L-19.6 -179.7 -19.95 -179.4 -23.2 -179.05 M-19.6 -179.7 L-17.45 -181.55 M-10.35 -181.6 L-13.4 -180.8 M-39.4 -178.65 L-42.15 -178.85 -42.85 -178.9 M-32.9 -178.4 L-36.0 -178.45 M-26.45 -178.7 L-29.6 -178.5 M-36.2 -186.85 L-38.7 -184.7 M-31.2 -190.85 L-33.7 -188.75 M-41.3 -182.8 L-43.45 -180.95 M-51.5 -193.1 L-51.25 -195.2 -50.95 -198.4 M-52.15 -186.65 L-51.85 -189.85 M-46.35 -199.4 L-43.8 -201.35 M-51.25 -195.2 L-48.8 -197.25 M-45.6 -179.2 L-48.95 -179.75 M-52.6 -180.45 L-52.45 -183.5 M-50.7 -201.55 L-50.45 -204.7 M-26.2 -194.95 L-28.65 -192.8 M-14.85 -183.65 L-12.25 -185.65" fill="none" stroke="#000000" stroke-linecap="round" stroke-linejoin="round" stroke-opacity="0.4" stroke-width="1.0"/>
    </g>
    <linearGradient gradientTransform="matrix(-0.0405, 0.0465, -0.0473, -0.0412, -74.9, -167.5)" gradientUnits="userSpaceOnUse" id="gradient0" spreadMethod="pad" x1="-819.2" x2="819.2">
      <stop offset="0.0" stop-color="#4d142f"/>
      <stop offset="1.0" stop-color="#2e0417"/>
    </linearGradient>
    <linearGradient gradientTransform="matrix(-0.0045, -0.0734, 0.0686, -0.0042, 2.3, -145.6)" gradientUnits="userSpaceOnUse" id="gradient1" spreadMethod="pad" x1="-819.2" x2="819.2">
      <stop offset="0.0" stop-color="#4d142f"/>
      <stop offset="0.9803921568627451" stop-color="#6b2c47"/>
    </linearGradient>
    <radialGradient cx="0" cy="0" gradientTransform="matrix(0.0741, 0.0, 0.0, 0.0741, 3.6, -156.35)" gradientUnits="userSpaceOnUse" id="gradient2" r="819.2" spreadMethod="pad">
      <stop offset="0.43137254901960786" stop-color="#000000" stop-opacity="0.0"/>
      <stop offset="1.0" stop-color="#000000" stop-opacity="0.5529412"/>
    </radialGradient>
    <linearGradient gradientTransform="matrix(0.0159, 0.0595, -0.0529, 0.0142, 57.0, -131.45)" gradientUnits="userSpaceOnUse" id="gradient3" spreadMethod="pad" x1="-819.2" x2="819.2">
      <stop offset="0.0" stop-color="#4d142f"/>
      <stop offset="1.0" stop-color="#2e0417"/>
    </linearGradient>
    <linearGradient gradientTransform="matrix(0.0159, 0.0666, -0.0529, 0.0159, 57.0, -133.6)" gradientUnits="userSpaceOnUse" id="gradient4" spreadMethod="pad" x1="-819.2" x2="819.2">
      <stop offset="0.0" stop-color="#4d142f"/>
      <stop offset="1.0" stop-color="#2e0417"/>
    </linearGradient>
    <linearGradient gradientTransform="matrix(-0.0045, -0.0822, 0.0686, -0.0047, 2.3, -149.5)" gradientUnits="userSpaceOnUse" id="gradient5" spreadMethod="pad" x1="-819.2" x2="819.2">
      <stop offset="0.0" stop-color="#4d142f"/>
      <stop offset="0.9803921568627451" stop-color="#6b2c47"/>
    </linearGradient>
    <linearGradient gradientTransform="matrix(-0.0405, 0.052, -0.0473, -0.0462, -74.9, -174.0)" gradientUnits="userSpaceOnUse" id="gradient6" spreadMethod="pad" x1="-819.2" x2="819.2">
      <stop offset="0.0" stop-color="#4d142f"/>
      <stop offset="1.0" stop-color="#2e0417"/>
    </linearGradient>
  </defs>
</svg>
