<?xml version="1.0" encoding="UTF-8" standalone="no"?>
<svg xmlns:xlink="http://www.w3.org/1999/xlink" height="531.5px" width="460.6px" xmlns="http://www.w3.org/2000/svg">
  <g transform="matrix(1.0, 0.0, 0.0, 1.0, 193.65, 334.05)">
    <use height="76.0" transform="matrix(1.3366, 0.0, 0.0, 1.3366, -72.0811, -189.4906)" width="100.9" xlink:href="#shape0"/>
    <use height="16.7" transform="matrix(1.0279, 0.0, 0.0, 1.0279, -32.0304, -172.8832)" width="73.8" xlink:href="#sprite0"/>
    <use height="14.85" transform="matrix(1.3366, 0.0, 0.0, 1.3366, -33.3868, -174.1866)" width="58.75" xlink:href="#shape2"/>
  </g>
  <defs>
    <g id="shape0" transform="matrix(1.0, 0.0, 0.0, 1.0, 50.45, 38.0)">
      <path d="M-37.5 -16.05 Q-31.15 -23.45 -23.9 -27.0 -14.85 -31.4 -1.45 -31.4 L11.3 -30.75 19.95 -29.4 Q27.05 -28.25 30.5 -26.85 33.9 -25.45 35.8 -24.35 37.7 -23.3 40.05 -20.0 L43.4 -14.7 41.0 -12.9 32.25 -6.55 17.25 -16.75 -7.35 -5.05 -23.75 -11.0 -37.5 -16.05" fill="url(#gradient0)" fill-rule="evenodd" stroke="none"/>
      <path d="M29.0 31.9 L26.45 33.25 26.4 33.1 26.55 31.1 26.85 28.25 27.8 22.95 28.35 17.95 28.35 16.85 Q28.25 16.45 27.4 16.45 24.3 16.45 23.7 19.25 23.35 20.95 23.0 25.2 22.4 27.9 21.7 33.35 L21.35 35.95 18.4 37.5 22.65 9.2 17.25 -16.75 32.25 -6.55 41.0 -12.9 38.55 -1.4 37.4 4.3 37.45 4.3 42.9 -3.05 42.15 4.55 41.7 9.25 40.1 10.5 35.65 14.1 33.5 15.85 31.7 17.3 29.0 31.9 M37.4 4.3 L33.2 0.15 37.4 4.3" fill="url(#gradient1)" fill-rule="evenodd" stroke="none"/>
      <path d="M-33.5 -26.85 L-32.55 -27.9 Q-29.4 -31.15 -25.4 -33.2 -17.4 -37.35 -4.7 -37.35 L-4.5 -37.35 -0.25 -37.5 Q10.4 -37.0 20.9 -35.2 31.95 -33.4 39.55 -25.2 41.05 -23.0 43.0 -18.55 L42.45 -19.25 43.6 -14.85 43.4 -14.7 40.05 -20.0 Q37.7 -23.3 35.8 -24.35 33.9 -25.45 30.5 -26.85 27.05 -28.25 19.95 -29.4 L11.3 -30.75 -1.45 -31.4 Q-14.85 -31.4 -23.9 -27.0 -31.15 -23.45 -37.5 -16.05 L-38.35 -16.35 -36.8 -21.45 -37.7 -20.55 Q-35.9 -24.05 -33.5 -26.85" fill="url(#gradient2)" fill-rule="evenodd" stroke="none"/>
      <path d="M43.0 -18.55 L49.55 -9.85 46.3 -1.0 48.0 4.15 42.45 8.6 41.7 9.25 42.15 4.55 42.9 -3.05 37.45 4.3 37.4 4.3 38.55 -1.4 41.0 -12.9 43.4 -14.7 43.6 -14.85 42.45 -19.25 43.0 -18.55 M45.15 -6.1 L42.9 -3.05 45.15 -6.1" fill="url(#gradient3)" fill-rule="evenodd" stroke="none"/>
      <path d="M3.55 33.6 L-45.8 20.75 -49.95 11.3 -43.5 -1.0 -44.6 -3.55 -44.5 -3.4 -42.2 0.1 -41.9 0.45 -42.0 0.5 -43.2 2.1 Q-43.9 3.45 -43.9 5.25 L-43.55 8.6 Q-42.6 12.45 -39.4 15.55 -38.05 16.85 -36.25 18.0 -33.35 19.9 -30.25 20.95 -27.4 21.9 -24.45 22.15 L-22.4 22.25 Q-16.55 22.25 -12.9 20.05 L-12.2 19.55 Q-8.75 17.05 -8.75 13.2 L-8.75 12.3 1.55 17.25 3.55 33.6" fill="url(#gradient4)" fill-rule="evenodd" stroke="none"/>
      <path d="M-44.6 -3.55 L-44.6 -3.65 -47.8 -10.7 -37.75 -20.5 -37.7 -20.55 -36.8 -21.45 -38.35 -16.35 -37.5 -16.05 -23.75 -11.0 -20.85 -5.2 -19.1 -1.7 -31.6 -7.4 Q-30.8 -3.4 -28.45 2.8 L-32.25 0.95 -34.8 -0.25 Q-36.9 -1.05 -37.7 -1.05 -40.2 -1.05 -41.9 0.45 L-42.2 0.1 -44.5 -3.4 -44.6 -3.55 M-38.35 -16.35 L-39.65 -16.85 -38.35 -16.35 M-32.75 -7.9 L-31.6 -7.4 -32.75 -7.9 M-38.3 -1.95 L-34.8 -0.25 -38.3 -1.95" fill="url(#gradient5)" fill-rule="evenodd" stroke="none"/>
      <path d="M-41.9 0.45 Q-40.2 -1.05 -37.7 -1.05 -36.9 -1.05 -34.8 -0.25 L-32.25 0.95 -28.45 2.8 -28.0 3.05 -23.7 5.1 -14.55 9.55 -8.75 12.3 -8.75 13.2 Q-8.75 17.05 -12.2 19.55 L-12.9 20.05 Q-16.55 22.25 -22.4 22.25 L-24.45 22.15 Q-27.4 21.9 -30.25 20.95 -33.35 19.9 -36.25 18.0 -38.05 16.85 -39.4 15.55 -42.6 12.45 -43.55 8.6 L-43.9 5.25 Q-43.9 3.45 -43.2 2.1 L-42.0 0.5 -41.9 0.45 M-39.4 15.55 L-34.0 11.95 -39.6 5.95 -32.25 0.95 -39.6 5.95 -34.0 11.95 -39.4 15.55 M-30.25 20.95 L-27.5 18.95 -34.0 11.95 -25.25 6.15 -28.0 3.05 -25.25 6.15 -34.0 11.95 -27.5 18.95 -30.25 20.95 M-14.55 9.55 L-19.25 12.95 -25.25 6.15 -23.7 5.1 -25.25 6.15 -19.25 12.95 -14.55 9.55 M-24.45 22.15 L-27.5 18.95 -19.25 12.95 -12.9 20.05 -19.25 12.95 -27.5 18.95 -24.45 22.15 M-43.55 8.6 L-39.6 5.95 -43.2 2.1 -39.6 5.95 -43.55 8.6" fill="url(#gradient6)" fill-rule="evenodd" stroke="none"/>
      <path d="M18.4 37.5 L14.45 36.45 14.45 36.4 14.4 33.6 14.35 32.5 14.65 25.4 14.9 19.65 Q14.9 17.95 14.7 17.6 14.4 17.05 12.6 17.05 9.4 17.05 8.6 19.85 L8.2 25.75 7.95 31.7 7.95 31.95 7.9 34.75 3.55 33.6 1.55 17.25 -8.75 12.3 -14.55 9.55 -23.7 5.1 -28.0 3.05 -28.45 2.8 Q-30.8 -3.4 -31.6 -7.4 L-19.1 -1.7 1.2 7.45 6.1 1.1 1.2 7.45 -19.1 -1.7 -20.85 -5.2 -23.75 -11.0 -7.35 -5.05 17.25 -16.75 22.65 9.2 18.4 37.5 M-17.2 1.45 L-17.4 1.5 -17.2 1.85 -17.2 1.45" fill="url(#gradient7)" fill-rule="evenodd" stroke="none"/>
      <path d="M49.7 11.25 L49.8 11.85 49.4 11.7 49.7 11.25 M-17.2 1.45 L-17.2 1.85 -17.4 1.5 -17.2 1.45" fill="#ffcc00" fill-rule="evenodd" stroke="none"/>
      <path d="M48.0 4.15 L48.45 6.1 49.7 11.25 49.4 11.7 45.6 10.05 40.6 16.95 43.35 18.55 40.6 16.95 45.6 10.05 49.4 11.7 Q47.15 15.2 44.55 17.6 L43.35 18.55 Q40.35 20.8 37.65 21.1 L40.6 16.95 36.7 14.75 40.1 10.5 36.7 14.75 40.6 16.95 37.65 21.1 37.05 21.1 Q35.15 21.1 34.15 19.6 L33.65 18.55 Q33.35 17.75 33.35 16.75 L33.5 15.85 35.65 14.1 40.1 10.5 41.7 9.25 42.45 8.6 48.0 4.15 M42.45 8.6 L45.6 10.05 42.45 8.6 M48.45 6.1 L45.6 10.05 48.45 6.1 M35.65 14.1 L36.7 14.75 33.65 18.55 36.7 14.75 35.65 14.1" fill="url(#gradient8)" fill-rule="evenodd" stroke="none"/>
      <path d="M49.8 11.85 L49.95 12.45 47.85 21.9 29.0 31.9 31.7 17.3 33.5 15.85 33.35 16.75 Q33.35 17.75 33.65 18.55 L34.15 19.6 Q35.15 21.1 37.05 21.1 L37.65 21.1 Q40.35 20.8 43.35 18.55 L44.55 17.6 Q47.15 15.2 49.4 11.7 L49.8 11.85" fill="url(#gradient9)" fill-rule="evenodd" stroke="none"/>
      <path d="M26.55 31.1 L21.7 33.35 Q22.4 27.9 23.0 25.2 23.35 20.95 23.7 19.25 24.3 16.45 27.4 16.45 28.25 16.45 28.35 16.85 L28.35 17.95 27.8 22.95 26.85 28.25 26.55 31.1" fill="url(#gradient10)" fill-rule="evenodd" stroke="none"/>
      <path d="M14.4 33.6 L7.95 31.7 8.2 25.75 8.6 19.85 Q9.4 17.05 12.6 17.05 14.4 17.05 14.7 17.6 14.9 17.95 14.9 19.65 L14.65 25.4 14.35 32.5 14.4 33.6" fill="url(#gradient11)" fill-rule="evenodd" stroke="none"/>
      <path d="M-33.5 -26.85 L-32.55 -27.9 Q-29.4 -31.15 -25.4 -33.2 -17.4 -37.35 -4.7 -37.35 L-4.5 -37.35 -0.25 -37.5 Q10.4 -37.0 20.9 -35.2 31.95 -33.4 39.55 -25.2 41.05 -23.0 43.0 -18.55 L49.55 -9.85 46.3 -1.0 48.0 4.15 48.45 6.1 49.7 11.25 49.8 11.85 49.95 12.45 47.85 21.9 29.0 31.9 26.45 33.25 26.4 33.3 26.4 33.1 26.55 31.1 21.7 33.35 21.35 35.95 18.4 37.5 14.45 36.45 14.45 36.4 14.4 33.6 7.95 31.7 7.95 31.95 7.9 34.75 3.55 33.6 -45.8 20.75 -49.95 11.3 -43.5 -1.0 -44.6 -3.55 -44.6 -3.65 -47.8 -10.7 -37.75 -20.5 Q-36.05 -24.5 -33.5 -26.85 -35.9 -24.05 -37.7 -20.55 L-36.8 -21.45 -38.35 -16.35 -37.5 -16.05 Q-31.15 -23.45 -23.9 -27.0 -14.85 -31.4 -1.45 -31.4 L11.3 -30.75 19.95 -29.4 Q27.05 -28.25 30.5 -26.85 33.9 -25.45 35.8 -24.35 37.7 -23.3 40.05 -20.0 L43.4 -14.7 43.6 -14.85 42.45 -19.25 43.0 -18.55 M17.25 -16.75 L32.25 -6.55 41.0 -12.9 43.4 -14.7 M42.9 -3.05 L45.15 -6.1 M41.7 9.25 L42.45 8.6 48.0 4.15 M49.4 11.7 L49.8 11.85 M49.4 11.7 L45.6 10.05 40.6 16.95 43.35 18.55 44.55 17.6 Q47.15 15.2 49.4 11.7 L49.7 11.25 M45.6 10.05 L42.45 8.6 M41.7 9.25 L40.1 10.5 36.7 14.75 40.6 16.95 37.65 21.1 Q40.35 20.8 43.35 18.55 M45.6 10.05 L48.45 6.1 M37.4 4.3 L37.45 4.3 42.9 -3.05 M33.2 0.15 L37.4 4.3 M21.7 33.35 Q22.4 27.9 23.0 25.2 23.35 20.95 23.7 19.25 24.3 16.45 27.4 16.45 28.25 16.45 28.35 16.85 L28.35 17.95 27.8 22.95 26.85 28.25 26.55 31.1 M33.65 18.55 L36.7 14.75 35.65 14.1 33.5 15.85 33.35 16.75 Q33.35 17.75 33.65 18.55 L34.15 19.6 Q35.15 21.1 37.05 21.1 L37.65 21.1 M33.5 15.85 L31.7 17.3 29.0 31.9 M40.1 10.5 L35.65 14.1 M7.95 31.7 L8.2 25.75 8.6 19.85 Q9.4 17.05 12.6 17.05 14.4 17.05 14.7 17.6 14.9 17.95 14.9 19.65 L14.65 25.4 14.35 32.5 14.4 33.6 M-19.1 -1.7 L1.2 7.45 6.1 1.1 M-8.75 12.3 L1.55 17.25 3.55 33.6 M17.25 -16.75 L22.65 9.2 18.4 37.5 M-37.7 -20.55 L-37.75 -20.5 M-39.65 -16.85 L-38.35 -16.35 M-41.9 0.45 Q-40.2 -1.05 -37.7 -1.05 -36.9 -1.05 -34.8 -0.25 L-38.3 -1.95 M-31.6 -7.4 L-32.75 -7.9 M-19.1 -1.7 L-31.6 -7.4 M-28.45 2.8 L-28.0 3.05 -23.7 5.1 -14.55 9.55 -8.75 12.3 -8.75 13.2 Q-8.75 17.05 -12.2 19.55 L-12.9 20.05 Q-16.55 22.25 -22.4 22.25 L-24.45 22.15 Q-27.4 21.9 -30.25 20.95 -33.35 19.9 -36.25 18.0 -38.05 16.85 -39.4 15.55 -42.6 12.45 -43.55 8.6 L-43.9 5.25 Q-43.9 3.45 -43.2 2.1 L-42.0 0.5 -41.9 0.45 M-37.5 -16.05 L-23.75 -11.0 -7.35 -5.05 17.25 -16.75 M-12.9 20.05 L-19.25 12.95 -27.5 18.95 -24.45 22.15 M-23.7 5.1 L-25.25 6.15 -19.25 12.95 -14.55 9.55 M-28.0 3.05 L-25.25 6.15 -34.0 11.95 -27.5 18.95 -30.25 20.95 M-32.25 0.95 L-39.6 5.95 -34.0 11.95 -39.4 15.55 M-34.8 -0.25 L-32.25 0.95 -28.45 2.8 M-43.2 2.1 L-39.6 5.95 -43.55 8.6" fill="none" stroke="#000000" stroke-linecap="round" stroke-linejoin="round" stroke-opacity="0.5019608" stroke-width="1.0"/>
    </g>
    <linearGradient gradientTransform="matrix(0.0, 0.0071, -0.0161, 0.0, 16.55, -16.0)" gradientUnits="userSpaceOnUse" id="gradient0" spreadMethod="pad" x1="-819.2" x2="819.2">
      <stop offset="0.0" stop-color="#cccccc"/>
      <stop offset="1.0" stop-color="#6e6e6e"/>
    </linearGradient>
    <linearGradient gradientTransform="matrix(-0.0111, 0.0111, -0.0234, -0.0234, 32.55, 4.3)" gradientUnits="userSpaceOnUse" id="gradient1" spreadMethod="pad" x1="-819.2" x2="819.2">
      <stop offset="0.0" stop-color="#ffe24c"/>
      <stop offset="1.0" stop-color="#ffcc00"/>
    </linearGradient>
    <linearGradient gradientTransform="matrix(0.0188, 0.0, 0.0, 0.0139, 0.55, -26.35)" gradientUnits="userSpaceOnUse" id="gradient2" spreadMethod="pad" x1="-819.2" x2="819.2">
      <stop offset="0.0" stop-color="#242424"/>
      <stop offset="1.0" stop-color="#333333"/>
    </linearGradient>
    <linearGradient gradientTransform="matrix(0.0072, 0.0019, -0.0045, 0.0168, 40.2, -6.55)" gradientUnits="userSpaceOnUse" id="gradient3" spreadMethod="pad" x1="-819.2" x2="819.2">
      <stop offset="0.0" stop-color="#c8881c"/>
      <stop offset="1.0" stop-color="#ffcc00"/>
    </linearGradient>
    <linearGradient gradientTransform="matrix(0.0115, 0.0154, -0.0183, 0.0137, -23.5, 14.6)" gradientUnits="userSpaceOnUse" id="gradient4" spreadMethod="pad" x1="-819.2" x2="819.2">
      <stop offset="0.0" stop-color="#ffcc00"/>
      <stop offset="1.0" stop-color="#c7871d"/>
    </linearGradient>
    <linearGradient gradientTransform="matrix(-0.0152, 0.0088, -0.0074, -0.0128, -11.95, 5.1)" gradientUnits="userSpaceOnUse" id="gradient5" spreadMethod="pad" x1="-819.2" x2="819.2">
      <stop offset="0.0" stop-color="#c8881c"/>
      <stop offset="1.0" stop-color="#ffcc00"/>
    </linearGradient>
    <linearGradient gradientTransform="matrix(0.0016, -0.0062, 0.0062, 0.0016, -25.75, 8.8)" gradientUnits="userSpaceOnUse" id="gradient6" spreadMethod="pad" x1="-819.2" x2="819.2">
      <stop offset="0.0" stop-color="#333333"/>
      <stop offset="1.0" stop-color="#191a14"/>
    </linearGradient>
    <linearGradient gradientTransform="matrix(-0.004, 0.01, -0.0307, -0.0124, 0.75, 2.35)" gradientUnits="userSpaceOnUse" id="gradient7" spreadMethod="pad" x1="-819.2" x2="819.2">
      <stop offset="0.0" stop-color="#ffe24c"/>
      <stop offset="1.0" stop-color="#ffcc00"/>
    </linearGradient>
    <linearGradient gradientTransform="matrix(-0.0011, -0.0041, 0.0037, -0.001, 37.05, 17.95)" gradientUnits="userSpaceOnUse" id="gradient8" spreadMethod="pad" x1="-819.2" x2="819.2">
      <stop offset="0.0" stop-color="#333333"/>
      <stop offset="1.0" stop-color="#191a14"/>
    </linearGradient>
    <linearGradient gradientTransform="matrix(-0.0089, 0.0051, -0.0062, -0.0107, 45.0, 18.7)" gradientUnits="userSpaceOnUse" id="gradient9" spreadMethod="pad" x1="-819.2" x2="819.2">
      <stop offset="0.0" stop-color="#ffcc00"/>
      <stop offset="1.0" stop-color="#c7871d"/>
    </linearGradient>
    <linearGradient gradientTransform="matrix(-0.0022, -0.0082, 0.0099, -0.0027, 25.05, 24.9)" gradientUnits="userSpaceOnUse" id="gradient10" spreadMethod="pad" x1="-819.2" x2="819.2">
      <stop offset="0.0" stop-color="#333333"/>
      <stop offset="1.0" stop-color="#191a14"/>
    </linearGradient>
    <linearGradient gradientTransform="matrix(0.0024, -0.009, 0.0098, 0.0026, 11.4, 25.3)" gradientUnits="userSpaceOnUse" id="gradient11" spreadMethod="pad" x1="-819.2" x2="819.2">
      <stop offset="0.0" stop-color="#333333"/>
      <stop offset="1.0" stop-color="#191a14"/>
    </linearGradient>
    <g id="sprite0" transform="matrix(1.0, 0.0, 0.0, 1.0, 36.9, 8.35)">
      <use height="16.7" transform="matrix(1.0, 0.0, 0.0, 1.0, -36.9, -8.35)" width="73.8" xlink:href="#shape1"/>
    </g>
    <g id="shape1" transform="matrix(1.0, 0.0, 0.0, 1.0, 36.9, 8.35)">
      <path d="M35.6 -3.05 Q36.55 -1.95 36.65 -0.45 L36.9 4.45 Q36.95 6.05 36.15 7.1 35.25 8.25 33.9 8.35 32.6 8.4 31.6 7.35 30.6 6.35 30.5 4.75 L30.25 -0.15 Q30.2 -1.65 31.05 -2.8 31.9 -4.0 33.2 -4.05 34.55 -4.15 35.6 -3.05 M-33.15 -8.35 Q-31.55 -8.35 -30.45 -7.0 -29.35 -5.65 -29.35 -3.85 L-29.35 1.9 Q-29.35 3.8 -30.45 5.05 -31.55 6.35 -33.15 6.35 -34.7 6.35 -35.85 5.05 -36.85 3.8 -36.9 1.9 L-36.9 -3.85 Q-36.9 -5.65 -35.85 -7.0 -34.7 -8.35 -33.15 -8.35" fill="#000000" fill-rule="evenodd" stroke="none"/>
    </g>
    <g id="shape2" transform="matrix(1.0, 0.0, 0.0, 1.0, 21.5, 26.55)">
      <path d="M35.25 -21.5 Q36.0 -20.65 36.05 -19.5 L36.25 -15.7 Q36.3 -14.5 35.7 -13.7 L35.55 -13.5 Q34.85 -12.8 33.95 -12.7 32.95 -12.7 32.2 -13.5 31.4 -14.25 31.35 -15.5 L31.15 -19.25 Q31.1 -20.4 31.75 -21.3 32.4 -22.2 33.4 -22.25 34.45 -22.35 35.25 -21.5 M-20.5 -22.1 Q-20.5 -23.5 -19.7 -24.5 -18.8 -25.55 -17.6 -25.55 -16.4 -25.55 -15.55 -24.5 -14.7 -23.5 -14.7 -22.1 L-14.7 -17.7 Q-14.7 -16.2 -15.55 -15.25 -16.4 -14.25 -17.6 -14.25 -18.8 -14.25 -19.7 -15.25 -20.45 -16.2 -20.5 -17.7 L-20.5 -22.1" fill="#ffffff" fill-rule="evenodd" stroke="none"/>
      <path d="M35.25 -21.5 Q36.0 -20.65 36.05 -19.5 L36.25 -15.7 Q36.3 -14.5 35.7 -13.7 L35.55 -13.5 Q34.85 -12.8 33.95 -12.7 32.95 -12.7 32.2 -13.5 31.4 -14.25 31.35 -15.5 L31.15 -19.25 Q31.1 -20.4 31.75 -21.3 32.4 -22.2 33.4 -22.25 34.45 -22.35 35.25 -21.5 M-20.5 -22.1 Q-20.5 -23.5 -19.7 -24.5 -18.8 -25.55 -17.6 -25.55 -16.4 -25.55 -15.55 -24.5 -14.7 -23.5 -14.7 -22.1 L-14.7 -17.7 Q-14.7 -16.2 -15.55 -15.25 -16.4 -14.25 -17.6 -14.25 -18.8 -14.25 -19.7 -15.25 -20.45 -16.2 -20.5 -17.7 L-20.5 -22.1" fill="none" stroke="#000000" stroke-linecap="round" stroke-linejoin="round" stroke-opacity="0.2" stroke-width="2.0"/>
    </g>
  </defs>
</svg>
