<?xml version="1.0" encoding="UTF-8" standalone="no"?>
<svg xmlns:xlink="http://www.w3.org/1999/xlink" height="531.5px" width="460.6px" xmlns="http://www.w3.org/2000/svg">
  <g transform="matrix(1.0, 0.0, 0.0, 1.0, 193.65, 334.05)">
    <use height="78.8" transform="matrix(1.6415, 0.0, 0.0, 1.6415, -94.7104, -213.2604)" width="95.35" xlink:href="#shape0"/>
  </g>
  <defs>
    <g id="shape0" transform="matrix(1.0, 0.0, 0.0, 1.0, 0.25, 0.25)">
      <path d="M84.55 22.6 L83.5 22.3 Q81.75 22.3 80.3 23.15 77.8 24.5 75.95 28.25 L75.2 30.05 Q74.3 32.2 73.7 34.5 72.65 38.65 72.65 43.05 72.7 46.6 74.25 49.55 76.0 52.9 78.8 52.9 83.75 52.95 86.7 46.25 89.15 40.6 89.1 34.05 L89.1 33.05 Q88.95 30.0 87.95 27.55 87.4 26.1 86.45 24.75 L85.45 23.5 84.9 22.8 84.55 22.6 M92.45 33.65 L91.05 34.3 90.5 34.55 90.15 34.6 90.5 34.55 91.05 34.3 92.45 33.65 M90.25 45.05 L88.35 44.55 90.25 45.05 M72.1 13.6 Q74.5 15.05 76.05 16.5 L79.5 16.05 Q85.15 16.05 89.95 23.8 L90.5 24.8 Q94.3 31.35 94.3 37.5 94.3 41.1 93.5 43.85 92.75 46.65 92.75 48.3 92.75 49.6 93.6 52.1 L92.4 54.15 92.3 54.15 90.5 57.05 90.3 57.35 86.3 63.5 84.8 62.2 Q83.35 61.0 82.2 61.0 80.65 61.0 80.4 64.05 80.25 65.65 80.25 68.15 79.6 70.9 78.6 71.25 L76.3 71.5 Q75.5 71.55 75.5 72.95 75.55 73.95 77.3 76.3 76.25 77.65 75.4 77.65 65.75 78.75 49.05 78.05 L38.85 77.05 35.85 76.45 35.6 76.4 33.0 73.15 31.65 71.3 32.7 68.95 33.45 66.45 Q33.45 65.95 32.9 65.55 L32.1 65.0 33.55 62.35 Q34.4 60.7 34.4 58.95 34.35 57.3 32.65 55.85 31.1 54.55 29.75 54.55 L27.5 55.0 25.4 55.5 Q24.5 55.5 24.2 54.45 L24.15 54.15 24.25 54.15 24.15 52.2 Q24.15 51.1 24.65 48.6 L25.1 45.15 Q25.1 42.85 24.15 41.0 22.9 38.5 20.65 38.5 19.85 38.5 18.25 39.3 18.65 36.0 19.8 31.65 L19.9 31.2 Q21.55 25.0 23.6 22.05 L24.0 21.5 Q26.8 17.8 31.6 17.15 L32.8 17.15 Q33.45 16.35 34.55 15.75 35.65 15.0 37.1 14.5 L37.95 14.3 42.95 12.65 43.45 12.45 Q44.15 12.1 44.9 11.85 46.85 11.1 48.45 10.65 L50.2 10.2 56.55 9.6 Q60.75 9.6 64.3 10.45 L64.35 10.65 65.05 12.4 Q66.6 15.85 68.9 15.85 70.65 15.85 71.6 14.55 L72.1 13.6 M84.65 54.15 L84.45 54.15 83.6 54.75 Q82.55 55.65 81.25 57.35 L78.5 61.15 75.8 65.05 Q74.15 67.35 73.65 68.7 L73.75 68.7 Q77.0 65.75 79.75 61.6 84.75 55.05 84.75 54.45 L84.65 54.15 M86.7 53.75 L85.55 52.75 84.55 51.6 85.55 52.75 86.7 53.75 M65.75 21.35 Q65.75 18.75 63.4 16.1 62.35 14.9 61.4 14.3 L61.25 14.2 60.55 13.85 59.45 13.6 58.95 13.55 Q56.85 13.55 55.35 14.5 53.95 15.45 53.95 16.65 53.95 18.3 54.85 18.9 L57.9 20.1 Q58.6 20.35 60.25 23.5 61.85 26.35 63.05 26.35 64.5 26.35 65.25 24.25 65.75 22.8 65.75 21.35 M79.95 21.65 L78.75 19.65 79.95 21.65 M42.4 17.85 Q42.4 17.15 42.7 15.9 42.4 17.15 42.4 17.85 M41.7 18.55 L41.65 18.55 Q40.8 18.2 40.15 18.2 36.75 18.2 34.95 20.35 L34.8 20.55 Q33.15 22.65 33.0 26.8 L33.0 29.1 33.0 29.3 Q33.25 35.1 35.95 41.25 37.75 45.15 41.2 48.3 45.1 52.0 48.8 52.0 55.3 52.0 55.85 44.55 56.25 39.65 54.3 33.95 L53.15 31.1 51.4 27.75 Q50.1 25.7 48.5 23.95 46.35 21.55 43.35 19.5 L42.25 18.75 42.15 18.7 41.7 18.55 M59.7 30.9 L56.95 32.6 59.7 30.9 M57.85 48.4 L56.75 48.95 60.55 49.7 71.4 49.7 72.0 49.1 71.4 48.45 65.15 48.45 60.65 48.3 57.85 48.4 M61.55 48.05 L56.95 47.55 61.55 48.05 M72.65 33.8 L69.1 31.65 72.65 33.8 M32.4 29.3 L29.1 29.15 32.4 29.3 M34.6 42.45 L32.4 43.65 34.6 42.45 M36.1 52.25 L35.85 52.25 35.85 52.95 36.3 54.15 36.2 54.15 39.35 60.2 41.2 63.95 Q42.5 66.2 43.95 67.55 L44.15 67.35 44.25 67.0 42.55 63.55 40.45 59.7 38.4 56.0 37.1 54.15 37.2 54.15 36.1 52.25 M74.65 51.95 L72.65 53.5 74.65 51.95 M71.1 58.55 L70.85 58.55 70.1 58.6 69.95 58.65 Q69.45 58.8 69.2 59.25 68.85 59.9 68.85 60.5 68.85 62.65 70.85 62.65 71.85 62.65 72.35 61.85 72.75 61.3 72.75 60.5 72.75 59.35 71.95 58.85 L71.1 58.55 M62.25 69.7 L61.8 71.95 61.55 75.3 61.65 76.55 61.85 76.5 Q63.05 73.95 63.4 70.0 L63.9 66.5 64.05 63.4 64.0 63.2 63.85 63.25 Q63.25 63.9 62.8 65.3 L62.35 67.55 62.25 69.7 M70.55 72.05 L79.95 56.45 70.55 72.05 M49.1 57.3 Q48.8 56.35 48.0 56.4 48.15 57.7 49.0 59.9 49.8 62.2 50.15 62.2 L50.4 62.15 50.45 62.0 50.45 61.5 50.15 60.05 49.75 58.75 49.1 57.3 M40.1 55.35 L40.55 54.15 41.6 50.8 40.55 54.15 40.1 55.35 M51.8 74.65 L45.5 60.95 51.8 74.65" fill="#ffecdb" fill-rule="evenodd" stroke="none"/>
      <path d="M84.55 22.6 L84.7 22.65 84.9 22.8 85.45 23.5 86.45 24.75 84.75 25.35 80.3 23.15 Q81.75 22.3 83.5 22.3 L84.55 22.6 M34.95 20.35 Q36.75 18.2 40.15 18.2 40.8 18.2 41.65 18.55 L41.7 18.55 41.9 18.6 42.15 18.7 42.25 18.75 Q39.1 19.15 35.2 20.5 L34.95 20.35" fill="#000000" fill-rule="evenodd" stroke="none"/>
      <path d="M84.75 25.35 L86.45 24.75 Q87.4 26.1 87.95 27.55 88.95 30.0 89.1 33.05 L88.4 34.3 Q85.1 40.5 81.0 41.2 77.95 40.75 76.1 38.95 74.4 37.25 73.7 34.5 74.3 32.2 75.2 30.05 L75.95 28.25 78.1 27.55 78.7 28.4 78.1 27.55 84.75 25.35 M87.05 33.55 L88.4 34.3 87.05 33.55 M84.3 37.6 L84.35 39.15 84.3 37.6 M51.4 27.75 L53.15 31.1 54.3 33.95 53.5 35.35 Q49.45 41.45 43.05 40.75 33.55 34.2 33.0 29.3 L33.0 29.1 33.0 26.8 Q33.15 22.65 34.8 20.55 L34.95 20.35 35.2 20.5 34.8 20.55 35.2 20.5 38.55 22.0 46.0 25.3 51.4 27.75 M51.9 34.4 L53.5 35.35 51.9 34.4 M48.85 39.3 L47.95 37.3 48.85 39.3 M44.75 27.65 L46.0 25.3 44.75 27.65 M38.7 22.9 L38.55 22.0 38.7 22.9 M77.25 37.8 L76.1 38.95 77.25 37.8 M38.6 34.2 L37.2 35.6 38.6 34.2" fill="#ffffff" fill-rule="evenodd" stroke="none"/>
      <path d="M80.3 23.15 L84.75 25.35 78.1 27.55 75.95 28.25 Q77.8 24.5 80.3 23.15 M73.7 34.5 Q74.4 37.25 76.1 38.95 77.95 40.75 81.0 41.2 85.1 40.5 88.4 34.3 L89.1 33.05 89.1 34.05 Q89.15 40.6 86.7 46.25 83.75 52.95 78.8 52.9 76.0 52.9 74.25 49.55 72.7 46.6 72.65 43.05 72.65 38.65 73.7 34.5 M42.25 18.75 L43.35 19.5 Q46.35 21.55 48.5 23.95 50.1 25.7 51.4 27.75 L46.0 25.3 38.55 22.0 35.2 20.5 Q39.1 19.15 42.25 18.75 M54.3 33.95 Q56.25 39.65 55.85 44.55 55.3 52.0 48.8 52.0 45.1 52.0 41.2 48.3 37.75 45.15 35.95 41.25 33.25 35.1 33.0 29.3 33.55 34.2 43.05 40.75 49.45 41.45 53.5 35.35 L54.3 33.95" fill="#000000" fill-opacity="0.5019608" fill-rule="evenodd" stroke="none"/>
      <path d="M93.6 52.1 L94.4 54.15 94.3 54.15 94.85 55.55 Q94.85 56.35 90.75 63.2 L90.5 63.7 87.35 68.95 84.05 74.2 82.85 75.85 81.5 77.5 78.8 77.65 75.4 77.65 Q76.25 77.65 77.3 76.3 82.15 69.8 86.3 63.5 L90.3 57.35 90.5 57.05 92.3 54.15 92.4 54.15 93.6 52.1 M35.6 76.4 L34.45 76.1 30.9 75.15 Q28.15 74.7 26.2 72.25 L25.5 71.35 Q23.35 67.2 21.95 65.3 L21.05 63.85 18.9 59.3 Q17.4 55.9 16.95 54.15 L17.05 54.15 16.85 52.9 Q16.85 52.35 17.35 50.55 L17.95 48.3 18.0 48.15 20.9 54.15 20.8 54.15 21.55 55.65 Q24.35 60.65 27.6 65.55 29.45 68.45 31.65 71.3 L33.0 73.15 35.6 76.4 M91.25 59.35 L90.3 57.35 91.25 59.35 M87.3 66.6 L86.25 64.9 87.3 66.6 M84.05 74.2 L82.7 71.9 84.05 74.2 M90.15 61.9 L90.75 63.2 90.15 61.9 M30.8 73.85 L33.0 73.15 30.8 73.85 M22.15 62.8 L21.05 63.85 22.15 62.8 M26.45 66.35 L27.6 65.55 26.45 66.35 M28.0 71.85 L26.2 72.25 28.0 71.85 M20.75 57.1 L21.55 55.65 20.75 57.1" fill="#fffaf7" fill-rule="evenodd" stroke="none"/>
      <path d="M84.65 54.15 L84.75 54.45 Q84.75 55.05 79.75 61.6 77.0 65.75 73.75 68.7 L73.65 68.7 Q74.15 67.35 75.8 65.05 L78.5 61.15 81.25 57.35 Q82.55 55.65 83.6 54.75 L84.45 54.15 84.65 54.15 M57.85 48.4 L60.65 48.3 65.15 48.45 71.4 48.45 72.0 49.1 71.4 49.7 60.55 49.7 56.75 48.95 57.85 48.4 M36.1 52.25 L37.2 54.15 37.1 54.15 38.4 56.0 40.45 59.7 42.55 63.55 44.25 67.0 44.15 67.35 43.95 67.55 Q42.5 66.2 41.2 63.95 L39.35 60.2 36.2 54.15 36.3 54.15 35.85 52.95 35.85 52.25 36.1 52.25 M62.25 69.7 L62.35 67.55 62.8 65.3 Q63.25 63.9 63.85 63.25 L64.0 63.2 64.05 63.4 63.9 66.5 63.4 70.0 Q63.05 73.95 61.85 76.5 L61.65 76.55 61.55 75.3 61.8 71.95 62.25 69.7 M49.1 57.3 L49.75 58.75 50.15 60.05 50.45 61.5 50.45 62.0 50.4 62.15 50.15 62.2 Q49.8 62.2 49.0 59.9 48.15 57.7 48.0 56.4 48.8 56.35 49.1 57.3" fill="#eddbcb" fill-rule="evenodd" stroke="none"/>
      <path d="M77.3 76.3 Q75.55 73.95 75.5 72.95 75.5 71.55 76.3 71.5 L78.6 71.25 Q79.6 70.9 80.25 68.15 80.25 65.65 80.4 64.05 80.65 61.0 82.2 61.0 83.35 61.0 84.8 62.2 L86.3 63.5 Q82.15 69.8 77.3 76.3 M71.1 58.55 L71.95 58.85 Q72.75 59.35 72.75 60.5 72.75 61.3 72.35 61.85 71.85 62.65 70.85 62.65 68.85 62.65 68.85 60.5 68.85 59.9 69.2 59.25 69.45 58.8 69.95 58.65 L70.1 58.6 70.85 58.55 71.1 58.55" fill="#d8c9bb" fill-rule="evenodd" stroke="none"/>
      <path d="M18.0 48.15 L18.0 45.7 18.0 44.5 17.95 43.05 Q17.95 41.4 18.25 39.3 19.85 38.5 20.65 38.5 22.9 38.5 24.15 41.0 25.1 42.85 25.1 45.15 L24.65 48.6 Q24.15 51.1 24.15 52.2 L24.25 54.15 24.15 54.15 24.2 54.45 Q24.5 55.5 25.4 55.5 L27.5 55.0 29.75 54.55 Q31.1 54.55 32.65 55.85 34.35 57.3 34.4 58.95 34.4 60.7 33.55 62.35 L32.1 65.0 32.9 65.55 Q33.45 65.95 33.45 66.45 L32.7 68.95 31.65 71.3 Q29.45 68.45 27.6 65.55 24.35 60.65 21.55 55.65 L20.8 54.15 20.9 54.15 18.0 48.15 M64.3 10.45 L65.2 10.65 Q68.55 11.5 71.25 13.1 L72.1 13.6 71.6 14.55 Q70.65 15.85 68.9 15.85 66.6 15.85 65.05 12.4 L64.35 10.65 64.3 10.45" fill="#e5e5c6" fill-rule="evenodd" stroke="none"/>
      <path d="M65.75 21.35 Q65.75 22.8 65.25 24.25 64.5 26.35 63.05 26.35 61.85 26.35 60.25 23.5 58.6 20.35 57.9 20.1 L54.85 18.9 Q53.95 18.3 53.95 16.65 53.95 15.45 55.35 14.5 56.85 13.55 58.95 13.55 L59.45 13.6 60.55 13.85 61.25 14.2 61.4 14.3 Q62.35 14.9 63.4 16.1 65.75 18.75 65.75 21.35" fill="#d3d8bb" fill-rule="evenodd" stroke="none"/>
      <path d="M0.05 38.05 Q0.3 33.6 2.75 29.2 3.75 27.45 5.05 25.7 10.4 18.65 15.55 20.45 L14.05 19.75 14.65 19.8 Q16.1 20.0 16.5 20.45 11.6 20.35 5.75 28.2 4.05 30.45 2.75 32.6 1.1 35.4 0.05 38.05 M1.1 10.2 Q6.65 6.3 9.45 5.15 13.35 3.6 19.8 3.6 L27.8 4.05 Q32.9 4.8 33.7 6.4 L31.8 3.05 30.1 0.0 31.05 0.0 Q34.4 0.3 39.5 5.1 42.8 8.15 44.25 10.65 L44.9 11.85 Q44.15 12.1 43.45 12.45 L42.35 10.65 40.05 8.3 Q37.35 5.8 35.8 5.4 L36.7 7.35 Q37.25 8.35 37.25 9.2 35.1 8.4 27.4 7.15 L16.55 5.95 Q13.15 5.95 5.0 8.75 L1.1 10.2" fill="#7a5c52" fill-rule="evenodd" stroke="none"/>
      <path d="M18.0 44.5 L17.4 44.9 15.3 45.95 13.45 47.85 12.0 49.45 11.35 45.25 Q11.35 43.75 12.2 42.05 13.05 40.4 14.0 39.9 L10.35 38.95 6.6 38.5 Q4.85 38.5 3.45 39.05 L2.75 39.4 0.1 40.35 0.0 39.05 0.05 38.05 Q1.1 35.4 2.75 32.6 4.05 30.45 5.75 28.2 11.6 20.35 16.5 20.45 16.1 20.0 14.65 19.8 L14.05 19.75 Q8.85 17.1 7.5 15.45 5.8 13.4 2.75 12.0 L0.0 10.9 1.1 10.2 5.0 8.75 Q13.15 5.95 16.55 5.95 L27.4 7.15 Q35.1 8.4 37.25 9.2 37.25 8.35 36.7 7.35 L35.8 5.4 Q37.35 5.8 40.05 8.3 L42.35 10.65 43.45 12.45 42.95 12.65 37.95 14.3 Q37.25 13.7 36.0 13.3 L32.75 12.75 Q30.7 12.75 28.85 13.4 25.65 14.6 22.9 17.75 20.35 20.85 19.45 23.9 19.05 25.35 19.05 26.85 19.05 29.55 19.9 31.2 L19.8 31.65 Q18.65 36.0 18.25 39.3 17.95 41.4 17.95 43.05 L18.0 44.5" fill="#664033" fill-rule="evenodd" stroke="none"/>
      <path d="M34.55 15.75 Q33.45 16.35 32.8 17.15 L31.6 17.15 Q26.8 17.8 24.0 21.5 L22.3 22.2 Q20.65 22.9 19.45 23.9 20.35 20.85 22.9 17.75 25.65 14.6 28.85 13.4 30.6 13.5 32.85 14.7 L34.55 15.75" fill="#e8c8a6" fill-rule="evenodd" stroke="none"/>
      <path d="M24.0 21.5 L23.6 22.05 Q21.55 25.0 19.9 31.2 19.05 29.55 19.05 26.85 19.05 25.35 19.45 23.9 20.65 22.9 22.3 22.2 L24.0 21.5" fill="#bf9f7e" fill-rule="evenodd" stroke="none"/>
      <path d="M37.95 14.3 L37.1 14.5 Q35.65 15.0 34.55 15.75 L32.85 14.7 Q30.6 13.5 28.85 13.4 30.7 12.75 32.75 12.75 L36.0 13.3 Q37.25 13.7 37.95 14.3" fill="#d3b697" fill-rule="evenodd" stroke="none"/>
      <path d="M84.9 22.8 L84.7 22.65 84.55 22.6 83.5 22.3 Q81.75 22.3 80.3 23.15 77.8 24.5 75.95 28.25 L75.2 30.05 Q74.3 32.2 73.7 34.5 72.65 38.65 72.65 43.05 72.7 46.6 74.25 49.55 76.0 52.9 78.8 52.9 83.75 52.95 86.7 46.25 89.15 40.6 89.1 34.05 L89.1 33.05 Q88.95 30.0 87.95 27.55 87.4 26.1 86.45 24.75 L85.45 23.5 84.9 22.8 84.55 22.6 M84.75 25.35 L86.45 24.75 M90.15 34.6 L90.5 34.55 91.05 34.3 92.45 33.65 M89.1 33.05 L88.4 34.3 Q85.1 40.5 81.0 41.2 77.95 40.75 76.1 38.95 74.4 37.25 73.7 34.5 M88.35 44.55 L90.25 45.05 M72.1 13.6 Q74.5 15.05 76.05 16.5 L79.5 16.05 Q85.15 16.05 89.95 23.8 L90.5 24.8 Q94.3 31.35 94.3 37.5 94.3 41.1 93.5 43.85 92.75 46.65 92.75 48.3 92.75 49.6 93.6 52.1 L94.4 54.15 M94.3 54.15 L94.85 55.55 Q94.85 56.35 90.75 63.2 L90.5 63.7 87.35 68.95 84.05 74.2 82.85 75.85 81.5 77.5 78.8 77.65 75.4 77.65 Q65.75 78.75 49.05 78.05 L38.85 77.05 35.85 76.45 35.6 76.4 34.45 76.1 30.9 75.15 Q28.15 74.7 26.2 72.25 L25.5 71.35 Q23.35 67.2 21.95 65.3 L21.05 63.85 18.9 59.3 Q17.4 55.9 16.95 54.15 M17.05 54.15 L16.85 52.9 Q16.85 52.35 17.35 50.55 L17.95 48.3 18.0 48.15 18.0 45.7 18.0 44.5 17.4 44.9 15.3 45.95 13.45 47.85 12.0 49.45 11.35 45.25 Q11.35 43.75 12.2 42.05 13.05 40.4 14.0 39.9 L10.35 38.95 6.6 38.5 Q4.85 38.5 3.45 39.05 L2.75 39.4 0.1 40.35 0.0 39.05 0.05 38.05 Q0.3 33.6 2.75 29.2 3.75 27.45 5.05 25.7 10.4 18.65 15.55 20.45 L14.05 19.75 Q8.85 17.1 7.5 15.45 5.8 13.4 2.75 12.0 L0.0 10.9 1.1 10.2 Q6.65 6.3 9.45 5.15 13.35 3.6 19.8 3.6 L27.8 4.05 Q32.9 4.8 33.7 6.4 L31.8 3.05 30.1 0.0 31.05 0.0 Q34.4 0.3 39.5 5.1 42.8 8.15 44.25 10.65 L44.9 11.85 Q46.85 11.1 48.45 10.65 L50.2 10.2 56.55 9.6 Q60.75 9.6 64.3 10.45 L65.2 10.65 Q68.55 11.5 71.25 13.1 L72.1 13.6 M93.6 52.1 L92.4 54.15 M92.3 54.15 L90.5 57.05 90.3 57.35 91.25 59.35 M84.55 51.6 L85.55 52.75 86.7 53.75 M86.3 63.5 L90.3 57.35 M90.75 63.2 L90.15 61.9 M82.7 71.9 L84.05 74.2 M86.25 64.9 L87.3 66.6 M78.75 19.65 L79.95 21.65 M43.45 12.45 L42.95 12.65 37.95 14.3 37.1 14.5 Q35.65 15.0 34.55 15.75 33.45 16.35 32.8 17.15 L31.6 17.15 Q26.8 17.8 24.0 21.5 L23.6 22.05 Q21.55 25.0 19.9 31.2 L19.8 31.65 Q18.65 36.0 18.25 39.3 17.95 41.4 17.95 43.05 L18.0 44.5 M31.65 71.3 L33.0 73.15 35.6 76.4 M42.7 15.9 Q42.4 17.15 42.4 17.85 M34.95 20.35 Q36.75 18.2 40.15 18.2 40.8 18.2 41.65 18.55 L41.7 18.55 42.15 18.7 42.25 18.75 43.35 19.5 Q46.35 21.55 48.5 23.95 50.1 25.7 51.4 27.75 L53.15 31.1 54.3 33.95 Q56.25 39.65 55.85 44.55 55.3 52.0 48.8 52.0 45.1 52.0 41.2 48.3 37.75 45.15 35.95 41.25 33.25 35.1 33.0 29.3 L33.0 29.1 33.0 26.8 Q33.15 22.65 34.8 20.55 L34.95 20.35 35.2 20.5 34.8 20.55 M41.7 18.55 L41.9 18.6 42.15 18.7 M44.9 11.85 Q44.15 12.1 43.45 12.45 M54.3 33.95 L53.5 35.35 Q49.45 41.45 43.05 40.75 33.55 34.2 33.0 29.3 M56.95 32.6 L59.7 30.9 M51.4 27.75 L46.0 25.3 38.55 22.0 35.2 20.5 M78.1 27.55 L75.95 28.25 M69.1 31.65 L72.65 33.8 M56.95 47.55 L61.55 48.05 M28.85 13.4 Q25.65 14.6 22.9 17.75 20.35 20.85 19.45 23.9 20.65 22.9 22.3 22.2 L24.0 21.5 M37.95 14.3 Q37.25 13.7 36.0 13.3 L32.75 12.75 Q30.7 12.75 28.85 13.4 30.6 13.5 32.85 14.7 L34.55 15.75 M19.45 23.9 Q19.05 25.35 19.05 26.85 19.05 29.55 19.9 31.2 M32.4 43.65 L34.6 42.45 M29.1 29.15 L32.4 29.3 M20.8 54.15 L21.55 55.65 Q24.35 60.65 27.6 65.55 29.45 68.45 31.65 71.3 M21.55 55.65 L20.75 57.1 M26.2 72.25 L28.0 71.85 M27.6 65.55 L26.45 66.35 M21.05 63.85 L22.15 62.8 M33.0 73.15 L30.8 73.85 M72.65 53.5 L74.65 51.95 M79.95 56.45 L70.55 72.05 M41.6 50.8 L40.55 54.15 40.1 55.35 M77.3 76.3 Q76.25 77.65 75.4 77.65 M45.5 60.95 L51.8 74.65 M18.0 48.15 L20.9 54.15 M86.3 63.5 Q82.15 69.8 77.3 76.3 M84.75 25.35 L78.1 27.55" fill="none" stroke="#000000" stroke-linecap="round" stroke-linejoin="round" stroke-opacity="0.4" stroke-width="0.5"/>
      <path d="M88.4 34.3 L87.05 33.55 M84.35 39.15 L84.3 37.6 M53.5 35.35 L51.9 34.4 M46.0 25.3 L44.75 27.65 M47.95 37.3 L48.85 39.3 M38.55 22.0 L38.7 22.9 M78.1 27.55 L78.7 28.4 M76.1 38.95 L77.25 37.8 M37.2 35.6 L38.6 34.2" fill="none" stroke="#ff0000" stroke-linecap="round" stroke-linejoin="round" stroke-opacity="0.4" stroke-width="0.5"/>
    </g>
  </defs>
</svg>
