<?xml version="1.0" encoding="UTF-8" standalone="no"?>
<svg xmlns:xlink="http://www.w3.org/1999/xlink" height="531.5px" width="460.6px" xmlns="http://www.w3.org/2000/svg">
  <g transform="matrix(1.0, 0.0, 0.0, 1.0, 193.65, 334.05)">
    <use height="149.5" transform="matrix(1.0, 0.0, 0.0, 1.0, -70.15, -224.35)" width="141.8" xlink:href="#shape0"/>
  </g>
  <defs>
    <g id="shape0" transform="matrix(1.0, 0.0, 0.0, 1.0, 70.15, 224.35)">
      <path d="M45.1 -200.45 Q33.6 -205.75 20.2 -206.25 3.35 -208.7 -14.15 -204.35 L-23.7 -204.0 -26.65 -203.7 Q-38.0 -205.15 -38.0 -206.65 -38.0 -209.45 -28.05 -216.1 -24.5 -218.55 -21.7 -220.1 16.25 -232.35 48.6 -207.3 58.15 -203.3 58.0 -193.7 53.0 -198.45 45.1 -200.45 M59.35 -149.15 L59.05 -147.55 Q61.4 -138.65 65.95 -131.55 67.6 -129.1 68.4 -126.25 66.5 -119.0 61.5 -113.1 L56.8 -107.85 Q54.75 -105.4 54.75 -103.5 54.75 -103.25 58.55 -101.1 62.3 -98.65 62.3 -96.35 62.3 -93.15 56.0 -87.35 L54.9 -86.3 Q46.2 -83.35 36.35 -80.85 L34.3 -80.85 Q24.1 -80.85 9.5 -83.45 -2.7 -85.7 -8.9 -87.75 -15.55 -90.15 -26.95 -91.7 -34.35 -92.85 -36.1 -95.55 -40.3 -101.8 -45.4 -116.95 L-49.6 -130.95 Q-49.6 -139.3 -35.2 -151.7 L-23.9 -160.45 -29.25 -153.9 Q-26.0 -120.85 -1.6 -102.85 8.85 -95.15 25.25 -90.05 35.9 -94.75 44.15 -106.85 52.35 -119.0 53.7 -130.95 55.05 -142.8 55.3 -148.65 L55.9 -148.65 59.35 -149.15" fill="#cc1010" fill-rule="evenodd" stroke="none"/>
      <path d="M20.2 -206.25 Q33.6 -205.75 45.1 -200.45 37.95 -194.85 33.1 -187.8 L29.85 -182.65 Q28.1 -179.5 26.9 -176.2 L26.8 -176.2 25.4 -175.95 Q9.95 -174.1 -0.3 -175.95 0.55 -179.05 1.85 -182.0 2.7 -184.2 3.9 -186.45 9.55 -197.5 20.2 -206.25 M-23.7 -204.0 L-14.15 -204.35 -15.8 -202.6 Q-21.3 -197.1 -24.9 -190.75 -27.75 -185.75 -29.5 -180.3 L-33.4 -180.0 -36.75 -180.3 Q-38.3 -180.8 -38.3 -182.45 -38.3 -187.3 -29.25 -198.15 L-23.7 -204.0 M61.75 -189.0 Q64.75 -184.3 65.15 -177.6 L65.15 -177.4 Q65.7 -167.35 58.85 -163.95 55.45 -167.5 50.05 -170.05 L48.55 -170.85 48.85 -171.8 Q50.5 -175.8 52.8 -179.2 54.95 -182.45 57.65 -185.35 L61.75 -189.0" fill="#f0b31d" fill-rule="evenodd" stroke="none"/>
      <path d="M45.1 -200.45 Q53.0 -198.45 58.0 -193.7 60.05 -191.6 61.75 -189.0 L57.65 -185.35 Q54.95 -182.45 52.8 -179.2 50.5 -175.8 48.85 -171.8 L48.55 -170.85 Q37.65 -171.95 26.8 -176.2 L26.9 -176.2 Q28.1 -179.5 29.85 -182.65 L33.1 -187.8 Q37.95 -194.85 45.1 -200.45 M-14.15 -204.35 Q3.35 -208.7 20.2 -206.25 9.55 -197.5 3.9 -186.45 2.7 -184.2 1.85 -182.0 0.55 -179.05 -0.3 -175.95 L-2.05 -175.45 Q-8.25 -176.2 -13.1 -177.75 -21.6 -180.65 -25.3 -180.65 L-29.5 -180.3 Q-27.75 -185.75 -24.9 -190.75 -21.3 -197.1 -15.8 -202.6 L-14.15 -204.35" fill="#ff9900" fill-rule="evenodd" stroke="none"/>
      <path d="M-21.7 -220.1 Q-24.5 -218.55 -28.05 -216.1 -38.0 -209.45 -38.0 -206.65 -38.0 -205.15 -26.65 -203.7 -35.2 -202.6 -42.6 -199.65 L-43.75 -199.35 Q-50.9 -197.5 -56.3 -195.25 L-56.95 -195.05 Q-58.6 -202.85 -48.65 -207.3 -34.9 -215.85 -21.7 -220.1 M50.05 -170.05 Q55.45 -167.5 58.85 -163.95 60.8 -157.9 59.35 -149.15 L55.9 -148.65 55.3 -148.65 55.3 -160.85 Q52.8 -165.85 50.05 -170.05 M68.4 -126.25 Q70.3 -119.95 67.95 -111.9 75.4 -101.9 66.75 -90.75 61.15 -88.4 54.9 -86.3 L56.0 -87.35 Q62.3 -93.15 62.3 -96.35 62.3 -98.65 58.55 -101.1 54.75 -103.25 54.75 -103.5 54.75 -105.4 56.8 -107.85 L61.5 -113.1 Q66.5 -119.0 68.4 -126.25 M36.35 -80.85 Q23.55 -77.55 8.6 -75.1 -40.7 -79.1 -58.05 -86.85 -75.55 -94.75 -67.25 -103.8 -72.75 -114.4 -66.3 -129.9 -69.35 -136.6 -69.65 -145.25 -69.8 -151.95 -62.65 -164.2 L-62.0 -164.95 -58.1 -166.0 Q-44.85 -165.85 -31.55 -171.75 -23.05 -171.55 -13.8 -173.0 L-23.9 -160.45 -35.2 -151.7 Q-49.6 -139.3 -49.6 -130.95 L-45.4 -116.95 Q-40.3 -101.8 -36.1 -95.55 -34.35 -92.85 -26.95 -91.7 -15.55 -90.15 -8.9 -87.75 -2.7 -85.7 9.5 -83.45 24.1 -80.85 34.3 -80.85 L36.35 -80.85" fill="#a80b0b" fill-rule="evenodd" stroke="none"/>
      <path d="M-0.3 -175.95 Q9.95 -174.1 25.4 -175.95 L26.8 -176.2 Q37.65 -171.95 48.55 -170.85 L50.05 -170.05 Q52.8 -165.85 55.3 -160.85 L55.3 -148.65 Q55.05 -142.8 53.7 -130.95 52.35 -119.0 44.15 -106.85 35.9 -94.75 25.25 -90.05 8.85 -95.15 -1.6 -102.85 -26.0 -120.85 -29.25 -153.9 L-23.9 -160.45 -13.8 -173.0 Q-8.1 -173.95 -2.05 -175.45 L-0.3 -175.95" fill="url(#gradient0)" fill-rule="evenodd" stroke="none"/>
      <path d="M-62.65 -164.2 L-63.85 -162.6 Q-69.2 -169.05 -69.4 -177.95 -69.55 -189.55 -57.25 -194.85 L-56.95 -195.05 -56.3 -195.25 Q-50.9 -197.5 -43.75 -199.35 L-42.6 -199.65 Q-45.4 -196.95 -47.6 -194.0 -57.25 -181.9 -58.1 -166.0 L-62.0 -164.95 -62.65 -164.2 M-29.5 -180.3 L-25.3 -180.65 Q-21.6 -180.65 -13.1 -177.75 -8.25 -176.2 -2.05 -175.45 -8.1 -173.95 -13.8 -173.0 -23.05 -171.55 -31.55 -171.75 -30.85 -176.2 -29.5 -180.3" fill="#e66e00" fill-rule="evenodd" stroke="none"/>
      <path d="M-26.65 -203.7 L-23.7 -204.0 -29.25 -198.15 Q-38.3 -187.3 -38.3 -182.45 -38.3 -180.8 -36.75 -180.3 L-33.4 -180.0 -29.5 -180.3 Q-30.85 -176.2 -31.55 -171.75 -44.85 -165.85 -58.1 -166.0 -57.25 -181.9 -47.6 -194.0 -45.4 -196.95 -42.6 -199.65 -35.2 -202.6 -26.65 -203.7" fill="#d99c13" fill-rule="evenodd" stroke="none"/>
      <path d="M20.2 -206.25 Q33.6 -205.75 45.1 -200.45 53.0 -198.45 58.0 -193.7 58.15 -203.3 48.6 -207.3 16.25 -232.35 -21.7 -220.1 -34.9 -215.85 -48.65 -207.3 -58.6 -202.85 -56.95 -195.05 L-56.3 -195.25 Q-50.9 -197.5 -43.75 -199.35 L-42.6 -199.65 Q-35.2 -202.6 -26.65 -203.7 L-23.7 -204.0 -14.15 -204.35 Q3.35 -208.7 20.2 -206.25 M-0.3 -175.95 Q9.95 -174.1 25.4 -175.95 L26.8 -176.2 Q37.65 -171.95 48.55 -170.85 L50.05 -170.05 Q55.45 -167.5 58.85 -163.95 60.8 -157.9 59.35 -149.15 L59.05 -147.55 Q61.4 -138.65 65.95 -131.55 67.6 -129.1 68.4 -126.25 70.3 -119.95 67.95 -111.9 75.4 -101.9 66.75 -90.75 61.15 -88.4 54.9 -86.3 46.2 -83.35 36.35 -80.85 23.55 -77.55 8.6 -75.1 -40.7 -79.1 -58.05 -86.85 -75.55 -94.75 -67.25 -103.8 -72.75 -114.4 -66.3 -129.9 -69.35 -136.6 -69.65 -145.25 -69.8 -151.95 -62.65 -164.2 L-63.85 -162.6 Q-69.2 -169.05 -69.4 -177.95 -69.55 -189.55 -57.25 -194.85 L-56.95 -195.05 M58.85 -163.95 Q65.7 -167.35 65.15 -177.4 L65.15 -177.6 Q64.75 -184.3 61.75 -189.0 60.05 -191.6 58.0 -193.7 M55.3 -148.65 Q55.05 -142.8 53.7 -130.95 52.35 -119.0 44.15 -106.85 35.9 -94.75 25.25 -90.05 8.85 -95.15 -1.6 -102.85 -26.0 -120.85 -29.25 -153.9 L-23.9 -160.45 -13.8 -173.0 Q-23.05 -171.55 -31.55 -171.75 -44.85 -165.85 -58.1 -166.0 L-62.0 -164.95 -62.65 -164.2 M55.3 -148.65 L55.3 -160.85 Q52.8 -165.85 50.05 -170.05 M-2.05 -175.45 L-0.3 -175.95 M-2.05 -175.45 Q-8.1 -173.95 -13.8 -173.0" fill="none" stroke="#000000" stroke-linecap="round" stroke-linejoin="round" stroke-opacity="0.5019608" stroke-width="0.5"/>
      <path d="M49.95 -169.65 Q55.35 -167.1 58.75 -163.55 60.7 -157.5 59.25 -148.75 L59.15 -148.35 55.2 -150.55 52.9 -151.7 Q40.7 -152.9 28.65 -157.5 10.35 -155.2 -1.6 -157.25 -9.4 -155.25 -16.8 -154.05 L-29.35 -152.7 Q-33.0 -152.55 -36.6 -152.65 -51.45 -146.3 -66.35 -146.35 L-69.75 -145.5 Q-69.6 -152.1 -62.75 -163.75 L-62.1 -164.55 -58.2 -165.6 Q-44.95 -165.45 -31.65 -171.35 -23.15 -171.15 -13.9 -172.6 -7.3 -173.7 -0.4 -175.55 10.35 -173.65 26.7 -175.8 37.55 -171.55 48.45 -170.45 L49.95 -169.65" fill="url(#gradient1)" fill-rule="evenodd" stroke="none"/>
      <path d="M33.65 -160.65 Q34.65 -162.0 36.2 -162.1 37.85 -162.2 39.15 -160.9 40.25 -159.55 40.3 -157.8 L40.65 -151.9 Q40.65 -149.95 39.75 -148.75 38.65 -147.4 37.05 -147.25 35.55 -147.15 34.35 -148.4 33.15 -149.6 33.0 -151.55 L32.7 -157.4 Q32.6 -159.25 33.65 -160.65" fill="#ffffff" fill-rule="evenodd" stroke="none"/>
      <path d="M5.5 -162.25 Q7.25 -162.35 8.6 -161.0 9.8 -159.5 9.95 -157.55 L10.25 -151.35 Q10.25 -149.2 9.3 -147.85 8.1 -146.45 6.35 -146.3 4.75 -146.2 3.4 -147.55 2.15 -148.8 2.05 -150.95 L1.75 -157.15 Q1.6 -159.1 2.8 -160.65 3.8 -162.2 5.5 -162.25" fill="#ffffff" fill-rule="evenodd" stroke="none"/>
    </g>
    <linearGradient gradientTransform="matrix(0.0291, 0.0131, -0.0215, 0.0478, 14.8, -126.0)" gradientUnits="userSpaceOnUse" id="gradient0" spreadMethod="pad" x1="-819.2" x2="819.2">
      <stop offset="0.0" stop-color="#1a1a1a"/>
      <stop offset="0.9882352941176471" stop-color="#303030"/>
    </linearGradient>
    <linearGradient gradientTransform="matrix(0.0, -0.0105, 0.0185, 0.0, -5.5, -163.55)" gradientUnits="userSpaceOnUse" id="gradient1" spreadMethod="pad" x1="-819.2" x2="819.2">
      <stop offset="0.0" stop-color="#000000" stop-opacity="0.0"/>
      <stop offset="0.9882352941176471" stop-color="#000000" stop-opacity="0.3137255"/>
    </linearGradient>
  </defs>
</svg>
