<?xml version="1.0" encoding="UTF-8" standalone="no"?>
<svg xmlns:xlink="http://www.w3.org/1999/xlink" height="531.5px" width="460.6px" xmlns="http://www.w3.org/2000/svg">
  <g transform="matrix(1.0, 0.0, 0.0, 1.0, 193.65, 334.05)">
    <use height="127.95" transform="matrix(1.0, 0.0, 0.0, 1.0, -111.65, -243.65)" width="190.0" xlink:href="#shape0"/>
  </g>
  <defs>
    <g id="shape0" transform="matrix(1.0, 0.0, 0.0, 1.0, 111.65, 243.65)">
      <path d="M77.6 -194.9 L77.6 -196.05 77.85 -195.65 77.6 -194.9" fill="#7d3d1c" fill-rule="evenodd" stroke="none"/>
      <path d="M77.6 -194.9 L77.85 -195.65 77.6 -196.05" fill="none" stroke="#000000" stroke-linecap="round" stroke-linejoin="round" stroke-opacity="0.6627451" stroke-width="1.0"/>
      <path d="M-74.75 -188.65 Q-73.9 -189.75 -72.5 -190.85 -68.3 -194.1 -63.6 -196.7 -58.95 -199.35 -57.1 -200.8 L-47.05 -209.15 Q-37.35 -216.75 -35.8 -216.75 -32.8 -216.75 -26.75 -213.85 L-24.45 -212.85 -23.5 -212.3 -24.85 -212.5 -28.75 -213.0 -28.95 -213.0 -29.1 -213.0 Q-33.75 -213.0 -37.65 -210.65 L-40.8 -208.9 Q-45.3 -206.05 -50.9 -200.8 -54.85 -197.1 -61.2 -192.1 L-68.85 -186.2 -74.75 -188.65" fill="#965636" fill-rule="evenodd" stroke="none"/>
      <path d="M-68.85 -186.2 L-61.2 -192.1 Q-54.85 -197.1 -50.9 -200.8 -45.3 -206.05 -40.8 -208.9 L-37.65 -210.65 Q-33.75 -213.0 -29.1 -213.0 L-28.95 -213.0 -28.75 -213.0 -24.85 -212.5 -23.5 -212.3 -22.15 -211.55 -31.7 -204.8 Q-30.75 -203.0 -29.7 -200.15 L-29.65 -200.0 Q-28.7 -197.3 -27.2 -191.65 L-36.4 -193.4 -37.5 -193.7 -47.5 -195.6 Q-47.75 -194.35 -46.5 -192.85 -45.25 -191.25 -45.15 -189.6 -48.85 -186.75 -53.8 -181.5 -60.05 -183.15 -65.65 -185.05 L-67.35 -185.65 -68.85 -186.2" fill="url(#gradient0)" fill-rule="evenodd" stroke="none"/>
      <path d="M-23.5 -212.3 L-24.45 -212.85 -26.75 -213.85 Q-32.8 -216.75 -35.8 -216.75 -37.35 -216.75 -47.05 -209.15 L-57.1 -200.8 Q-58.95 -199.35 -63.6 -196.7 -68.3 -194.1 -72.5 -190.85 -73.9 -189.75 -74.75 -188.65 M-23.5 -212.3 L-22.15 -211.55" fill="none" stroke="#000000" stroke-linecap="round" stroke-linejoin="round" stroke-opacity="0.6627451" stroke-width="1.0"/>
      <path d="M-58.05 -194.55 L-56.95 -194.65 Q-53.2 -194.65 -50.6 -192.05 -47.9 -189.35 -47.9 -185.6 -47.9 -181.8 -50.6 -179.3 -53.2 -176.6 -56.95 -176.6 L-58.05 -176.7 Q-61.05 -177.0 -63.35 -179.3 -65.95 -181.8 -65.95 -185.6 -65.95 -189.35 -63.35 -192.05 -61.05 -194.25 -58.05 -194.55 M-56.95 -191.9 L-57.75 -191.8 Q-59.9 -191.65 -61.45 -190.0 -63.25 -188.2 -63.25 -185.6 -63.25 -183.0 -61.45 -181.1 -59.9 -179.6 -57.75 -179.35 L-56.95 -179.3 Q-54.35 -179.3 -52.55 -181.1 -50.65 -183.0 -50.65 -185.6 -50.65 -188.2 -52.55 -190.0 -54.35 -191.9 -56.95 -191.9" fill="#ff9900" fill-rule="evenodd" stroke="none"/>
      <path d="M-56.95 -191.9 Q-54.35 -191.9 -52.55 -190.0 -50.65 -188.2 -50.65 -185.6 -50.65 -183.0 -52.55 -181.1 -54.35 -179.3 -56.95 -179.3 L-57.75 -179.35 Q-59.9 -179.6 -61.45 -181.1 -63.25 -183.0 -63.25 -185.6 -63.25 -188.2 -61.45 -190.0 -59.9 -191.65 -57.75 -191.8 L-56.95 -191.9" fill="#ffb700" fill-rule="evenodd" stroke="none"/>
      <path d="M-58.05 -176.7 L-59.25 -176.6 Q-62.95 -176.6 -65.65 -179.3 -68.25 -181.8 -68.25 -185.6 -68.25 -189.35 -65.65 -192.05 -62.95 -194.65 -59.25 -194.65 L-58.05 -194.55 Q-61.05 -194.25 -63.35 -192.05 -65.95 -189.35 -65.95 -185.6 -65.95 -181.8 -63.35 -179.3 -61.05 -177.0 -58.05 -176.7" fill="#ff6600" fill-rule="evenodd" stroke="none"/>
      <path d="M-58.05 -176.7 L-59.25 -176.6 Q-62.95 -176.6 -65.65 -179.3 -68.25 -181.8 -68.25 -185.6 -68.25 -189.35 -65.65 -192.05 -62.95 -194.65 -59.25 -194.65 L-58.05 -194.55 -56.95 -194.65 Q-53.2 -194.65 -50.6 -192.05 -47.9 -189.35 -47.9 -185.6 -47.9 -181.8 -50.6 -179.3 -53.2 -176.6 -56.95 -176.6 L-58.05 -176.7 Q-61.05 -177.0 -63.35 -179.3 -65.95 -181.8 -65.95 -185.6 -65.95 -189.35 -63.35 -192.05 -61.05 -194.25 -58.05 -194.55" fill="none" stroke="#000000" stroke-linecap="round" stroke-linejoin="round" stroke-opacity="0.6627451" stroke-width="1.0"/>
      <path d="M-48.55 -202.35 L-47.45 -202.45 Q-43.65 -202.45 -41.05 -199.85 -38.4 -197.15 -38.4 -193.4 -38.4 -189.6 -41.05 -187.1 -43.65 -184.4 -47.45 -184.4 L-48.55 -184.5 Q-51.55 -184.8 -53.8 -187.1 -56.4 -189.6 -56.4 -193.4 -56.4 -197.15 -53.8 -199.85 -51.55 -202.05 -48.55 -202.35 M-47.45 -199.7 L-48.2 -199.6 Q-50.35 -199.45 -51.95 -197.8 -53.75 -196.0 -53.75 -193.4 -53.75 -190.8 -51.95 -188.9 -50.35 -187.4 -48.2 -187.15 L-47.45 -187.1 Q-44.85 -187.1 -43.05 -188.9 -41.15 -190.8 -41.15 -193.4 -41.15 -196.0 -43.05 -197.8 -44.85 -199.7 -47.45 -199.7" fill="#ff9900" fill-rule="evenodd" stroke="none"/>
      <path d="M-47.45 -199.7 Q-44.85 -199.7 -43.05 -197.8 -41.15 -196.0 -41.15 -193.4 -41.15 -190.8 -43.05 -188.9 -44.85 -187.1 -47.45 -187.1 L-48.2 -187.15 Q-50.35 -187.4 -51.95 -188.9 -53.75 -190.8 -53.75 -193.4 -53.75 -196.0 -51.95 -197.8 -50.35 -199.45 -48.2 -199.6 L-47.45 -199.7" fill="#ffb700" fill-rule="evenodd" stroke="none"/>
      <path d="M-48.55 -184.5 L-49.7 -184.4 Q-53.4 -184.4 -56.1 -187.1 -58.7 -189.6 -58.7 -193.4 -58.7 -197.15 -56.1 -199.85 -53.4 -202.45 -49.7 -202.45 L-48.55 -202.35 Q-51.55 -202.05 -53.8 -199.85 -56.4 -197.15 -56.4 -193.4 -56.4 -189.6 -53.8 -187.1 -51.55 -184.8 -48.55 -184.5" fill="#ff6600" fill-rule="evenodd" stroke="none"/>
      <path d="M-48.55 -184.5 L-49.7 -184.4 Q-53.4 -184.4 -56.1 -187.1 -58.7 -189.6 -58.7 -193.4 -58.7 -197.15 -56.1 -199.85 -53.4 -202.45 -49.7 -202.45 L-48.55 -202.35 -47.45 -202.45 Q-43.65 -202.45 -41.05 -199.85 -38.4 -197.15 -38.4 -193.4 -38.4 -189.6 -41.05 -187.1 -43.65 -184.4 -47.45 -184.4 L-48.55 -184.5 Q-51.55 -184.8 -53.8 -187.1 -56.4 -189.6 -56.4 -193.4 -56.4 -197.15 -53.8 -199.85 -51.55 -202.05 -48.55 -202.35" fill="none" stroke="#000000" stroke-linecap="round" stroke-linejoin="round" stroke-opacity="0.6627451" stroke-width="1.0"/>
      <path d="M38.85 -238.75 L38.45 -237.8 Q37.9 -236.15 37.9 -234.15 37.9 -232.7 39.4 -230.45 41.05 -227.95 42.8 -227.95 43.9 -227.95 46.2 -228.65 L49.1 -229.7 Q49.9 -226.0 51.3 -224.95 52.35 -224.15 55.65 -224.15 L57.0 -224.25 63.45 -217.95 61.45 -211.8 Q60.05 -207.95 58.65 -205.2 L58.65 -204.8 Q59.1 -204.95 63.85 -207.4 68.0 -209.6 69.4 -209.6 71.0 -209.6 77.6 -196.6 L77.6 -195.45 Q76.45 -192.6 68.4 -184.55 L64.45 -180.45 Q59.05 -174.9 59.05 -174.1 59.05 -172.35 59.8 -170.0 60.7 -167.7 60.7 -166.45 60.7 -164.35 56.45 -159.5 L52.25 -154.65 Q51.0 -164.55 45.1 -169.7 20.35 -182.3 -24.35 -180.65 -53.1 -171.95 -60.75 -143.85 L-61.45 -118.1 -64.9 -119.75 Q-69.65 -122.3 -71.15 -124.15 -72.25 -125.45 -72.15 -127.8 -72.1 -130.25 -72.85 -131.1 L-75.45 -133.75 Q-76.1 -134.7 -76.1 -137.45 -76.1 -139.5 -75.55 -141.95 L-75.0 -140.45 Q-74.05 -137.85 -71.85 -138.6 -71.4 -140.05 -71.4 -141.1 -72.4 -143.85 -72.4 -145.1 L-70.65 -145.1 Q-69.65 -144.55 -69.25 -144.55 -68.45 -144.55 -67.1 -145.35 -65.65 -146.2 -65.65 -147.3 -65.65 -148.35 -67.5 -148.8 -69.4 -149.3 -69.4 -149.9 -69.4 -150.95 -66.95 -153.55 -64.45 -156.15 -66.1 -156.55 L-67.35 -156.55 -69.95 -154.0 -70.45 -153.55 Q-62.3 -167.25 -42.65 -187.25 L-36.4 -193.4 -27.2 -191.65 Q-28.7 -197.3 -29.65 -200.0 L-17.5 -211.5 -4.5 -224.1 -4.45 -224.15 Q22.95 -243.15 27.55 -243.15 30.45 -243.15 34.45 -241.2 L33.6 -236.0 37.55 -239.6 38.85 -238.75 M29.1 -232.35 Q27.05 -228.2 24.0 -224.8 21.0 -228.1 18.55 -232.3 L13.65 -227.3 Q17.85 -225.25 21.25 -222.05 17.9 -219.2 13.65 -216.85 L18.55 -211.95 Q20.75 -216.0 23.9 -219.35 26.8 -216.05 29.1 -211.9 L34.05 -216.85 Q30.05 -219.05 26.75 -222.05 29.9 -224.95 34.05 -227.4 L29.1 -232.35 M57.15 -214.5 Q57.15 -215.65 56.1 -216.55 L54.4 -217.5 Q56.35 -221.95 47.2 -222.05 L46.45 -221.5 Q44.85 -220.15 44.85 -218.75 44.85 -218.1 45.4 -217.4 45.95 -216.7 46.65 -216.45 L45.0 -213.95 Q43.65 -211.75 43.65 -210.1 43.65 -209.2 44.4 -208.5 45.1 -207.7 45.8 -207.7 47.7 -207.7 49.35 -210.25 50.5 -211.9 50.85 -213.25 L53.35 -213.25 Q54.4 -212.75 54.75 -212.75 57.15 -212.75 57.15 -214.5 M8.0 -194.25 L6.2 -194.25 Q2.0 -194.25 -1.0 -195.5 2.0 -194.25 6.2 -194.25 L8.0 -194.25 M27.7 -197.15 L20.9 -196.15 17.7 -195.5 20.9 -196.15 27.7 -197.15 M63.05 -185.2 Q61.4 -189.75 58.85 -192.5 61.4 -189.75 63.05 -185.2 M52.5 -196.45 Q47.75 -198.05 40.7 -198.05 L39.9 -198.05 40.7 -198.05 Q47.75 -198.05 52.5 -196.45 M-6.35 -200.8 Q-6.8 -202.1 -6.8 -203.7 L-6.4 -206.05 -5.85 -207.8 -6.4 -206.05 -6.8 -203.7 Q-6.8 -202.1 -6.35 -200.8 M-1.0 -211.95 Q2.9 -214.9 6.75 -215.45 2.9 -214.9 -1.0 -211.95" fill="url(#gradient1)" fill-rule="evenodd" stroke="none"/>
      <path d="M57.0 -224.25 L55.65 -224.15 Q52.35 -224.15 51.3 -224.95 49.9 -226.0 49.1 -229.7 L46.2 -228.65 Q43.9 -227.95 42.8 -227.95 41.05 -227.95 39.4 -230.45 37.9 -232.7 37.9 -234.15 37.9 -236.15 38.45 -237.8 L38.85 -238.75 Q43.35 -235.9 48.95 -231.35 L57.0 -224.25 M-70.45 -153.55 L-69.95 -154.0 -67.35 -156.55 -66.1 -156.55 Q-64.45 -156.15 -66.95 -153.55 -69.4 -150.95 -69.4 -149.9 -69.4 -149.3 -67.5 -148.8 -65.65 -148.35 -65.65 -147.3 -65.65 -146.2 -67.1 -145.35 -68.45 -144.55 -69.25 -144.55 -69.65 -144.55 -70.65 -145.1 L-72.4 -145.1 Q-72.4 -143.85 -71.4 -141.1 -71.4 -140.05 -71.85 -138.6 -74.05 -137.85 -75.0 -140.45 L-75.55 -141.95 Q-76.2 -143.3 -76.75 -143.3 L-79.65 -142.85 Q-80.6 -142.85 -81.4 -143.3 -82.1 -143.75 -82.1 -144.15 L-79.65 -146.6 Q-77.75 -148.5 -76.9 -150.8 L-78.25 -152.9 Q-79.35 -154.4 -78.4 -154.8 -78.25 -154.8 -78.25 -154.95 L-77.75 -155.05 Q-76.5 -155.05 -75.25 -153.55 -74.05 -152.05 -72.8 -152.05 -71.85 -152.05 -70.45 -153.55 M57.15 -214.5 Q57.15 -212.75 54.75 -212.75 54.4 -212.75 53.35 -213.25 L50.85 -213.25 Q50.5 -211.9 49.35 -210.25 47.7 -207.7 45.8 -207.7 45.1 -207.7 44.4 -208.5 43.65 -209.2 43.65 -210.1 43.65 -211.75 45.0 -213.95 L46.65 -216.45 Q45.95 -216.7 45.4 -217.4 44.85 -218.1 44.85 -218.75 44.85 -220.15 46.45 -221.5 L47.2 -222.05 Q56.35 -221.95 54.4 -217.5 L56.1 -216.55 Q57.15 -215.65 57.15 -214.5" fill="#7d611c" fill-rule="evenodd" stroke="none"/>
      <path d="M29.1 -232.35 L34.05 -227.4 Q29.9 -224.95 26.75 -222.05 30.05 -219.05 34.05 -216.85 L29.1 -211.9 Q26.8 -216.05 23.9 -219.35 20.75 -216.0 18.55 -211.95 L13.65 -216.85 Q17.9 -219.2 21.25 -222.05 17.85 -225.25 13.65 -227.3 L18.55 -232.3 Q21.0 -228.1 24.0 -224.8 27.05 -228.2 29.1 -232.35" fill="#000000" fill-rule="evenodd" stroke="none"/>
      <path d="M-97.85 -190.1 Q-98.7 -188.6 -99.65 -188.05 -100.2 -187.55 -101.3 -187.25 -101.4 -188.95 -99.5 -191.65 -97.45 -194.4 -95.55 -194.4 L-94.85 -194.25 Q-94.15 -193.95 -94.15 -193.55 -93.75 -190.85 -97.35 -186.6 -101.0 -182.45 -103.75 -182.45 L-105.0 -182.65 Q-105.45 -183.0 -105.65 -184.15 -106.25 -188.8 -102.25 -194.4 -98.25 -200.0 -94.15 -200.0 L-91.75 -199.6 Q-90.9 -199.3 -90.35 -198.6 -90.9 -199.3 -91.75 -199.6 L-94.15 -200.0 Q-98.25 -200.0 -102.25 -194.4 -106.25 -188.8 -105.65 -184.15 -105.45 -183.0 -105.0 -182.65 L-103.75 -182.45 Q-101.0 -182.45 -97.35 -186.6 -93.75 -190.85 -94.15 -193.55 -94.15 -193.95 -94.85 -194.25 L-95.55 -194.4 Q-97.45 -194.4 -99.5 -191.65 -101.4 -188.95 -101.3 -187.25 -100.2 -187.55 -99.65 -188.05 -98.7 -188.6 -97.85 -190.1 M-76.35 -189.35 L-76.55 -189.5 Q-82.8 -192.35 -90.35 -198.6 L-90.2 -198.35 Q-89.5 -197.55 -89.35 -196.15 -88.45 -190.25 -94.7 -183.45 -100.85 -176.85 -106.2 -176.85 L-106.5 -176.85 -107.75 -177.25 Q-108.7 -177.65 -109.5 -178.65 -110.65 -180.25 -111.0 -182.6 -112.1 -190.4 -106.0 -197.4 -101.0 -203.3 -94.2 -205.6 -89.4 -197.25 -76.4 -189.6 L-74.75 -188.65 -76.35 -189.35 -74.75 -188.65 -68.85 -186.2 -67.35 -185.65 -65.65 -185.05 -66.65 -184.7 Q-68.15 -184.0 -67.65 -182.85 L-67.9 -182.85 -70.65 -184.7 -72.95 -185.8 Q-73.35 -185.8 -73.35 -185.35 L-72.65 -182.35 Q-71.85 -179.45 -71.85 -178.65 L-72.0 -177.55 -74.35 -180.0 -74.35 -180.85 Q-74.35 -183.45 -75.85 -188.05 L-76.35 -189.35" fill="#cc9f72" fill-rule="evenodd" stroke="none"/>
      <path d="M-106.5 -176.85 L-106.2 -176.85 Q-100.85 -176.85 -94.7 -183.45 -88.45 -190.25 -89.35 -196.15 -89.5 -197.55 -90.2 -198.35 L-90.35 -198.6 Q-82.8 -192.35 -76.55 -189.5 L-76.35 -189.35 -75.85 -188.05 Q-74.35 -183.45 -74.35 -180.85 L-74.35 -180.0 -74.55 -180.15 Q-75.25 -180.8 -77.3 -180.8 -78.7 -180.8 -79.65 -179.85 L-81.4 -178.05 -83.4 -181.35 Q-85.15 -183.8 -86.25 -183.8 -87.75 -183.8 -88.85 -182.35 -89.8 -181.1 -89.8 -179.5 L-89.55 -178.4 -88.6 -177.4 -88.8 -177.15 -91.6 -174.95 Q-92.95 -174.0 -94.15 -173.55 L-106.5 -176.85 M-78.15 -186.7 L-78.4 -186.75 -78.55 -186.75 -79.1 -186.75 -80.2 -185.8 Q-80.65 -185.35 -80.65 -184.8 -80.65 -184.0 -79.9 -183.55 L-78.7 -183.15 Q-77.75 -183.15 -77.1 -183.8 -76.5 -184.4 -76.5 -185.1 -76.5 -185.65 -77.3 -186.2 L-78.15 -186.7 M-83.65 -188.1 L-84.05 -188.65 -85.15 -189.2 -86.25 -189.6 Q-86.95 -189.6 -86.95 -188.2 -86.95 -187.0 -86.0 -185.8 -85.0 -184.65 -83.9 -184.65 -83.1 -184.65 -83.1 -186.15 -83.1 -187.25 -83.65 -188.1" fill="#ffcc99" fill-rule="evenodd" stroke="none"/>
      <path d="M-4.5 -224.1 L-17.5 -211.5 -29.65 -200.0 -29.7 -200.15 Q-30.75 -203.0 -31.7 -204.8 L-22.15 -211.55 -21.45 -212.05 -20.9 -212.35 -4.5 -224.1 M-36.4 -193.4 L-42.65 -187.25 Q-62.3 -167.25 -70.45 -153.55 -71.85 -152.05 -72.8 -152.05 -74.05 -152.05 -75.25 -153.55 -76.5 -155.05 -77.75 -155.05 L-78.25 -154.95 Q-78.25 -154.8 -78.4 -154.8 -79.35 -154.4 -78.25 -152.9 L-76.9 -150.8 Q-77.75 -148.5 -79.65 -146.6 L-82.1 -144.15 Q-82.1 -143.75 -81.4 -143.3 -80.6 -142.85 -79.65 -142.85 L-76.75 -143.3 Q-76.2 -143.3 -75.55 -141.95 -76.1 -139.5 -76.1 -137.45 -76.1 -134.7 -75.45 -133.75 L-72.85 -131.1 Q-72.1 -130.25 -72.15 -127.8 -72.25 -125.45 -71.15 -124.15 -69.65 -122.3 -64.9 -119.75 L-61.45 -118.1 -61.55 -116.2 Q-64.35 -116.2 -71.45 -118.8 -79.5 -121.65 -79.5 -123.95 L-78.85 -126.3 -78.25 -128.6 -87.1 -129.6 Q-92.3 -130.3 -93.4 -132.6 -94.55 -134.9 -95.1 -141.95 L-95.4 -149.75 Q-95.4 -155.65 -95.8 -158.5 -81.75 -157.0 -70.5 -165.05 L-68.95 -166.15 -66.4 -168.25 Q-63.6 -170.85 -56.1 -178.95 L-53.8 -181.5 Q-48.85 -186.75 -45.15 -189.6 -45.25 -191.25 -46.5 -192.85 -47.75 -194.35 -47.5 -195.6 L-37.5 -193.7 -36.4 -193.4" fill="#99512d" fill-rule="evenodd" stroke="none"/>
      <path d="M-53.8 -181.5 L-56.1 -178.95 Q-63.6 -170.85 -66.4 -168.25 L-68.95 -166.15 -71.05 -166.75 -79.65 -169.35 Q-74.6 -172.6 -74.35 -180.0 L-72.0 -177.55 -71.85 -178.65 Q-71.85 -179.45 -72.65 -182.35 L-73.35 -185.35 Q-73.35 -185.8 -72.95 -185.8 L-70.65 -184.7 -67.9 -182.85 -67.65 -182.85 Q-68.15 -184.0 -66.65 -184.7 L-65.65 -185.05 Q-60.05 -183.15 -53.8 -181.5" fill="#b89367" fill-rule="evenodd" stroke="none"/>
      <path d="M-94.15 -173.55 Q-92.95 -174.0 -91.6 -174.95 L-88.8 -177.15 -88.6 -177.4 -89.55 -178.4 -89.8 -179.5 Q-89.8 -181.1 -88.85 -182.35 -87.75 -183.8 -86.25 -183.8 -85.15 -183.8 -83.4 -181.35 L-81.4 -178.05 -79.65 -179.85 Q-78.7 -180.8 -77.3 -180.8 -75.25 -180.8 -74.55 -180.15 L-74.35 -180.0 Q-74.6 -172.6 -79.65 -169.35 L-91.05 -172.65 -94.15 -173.55 M-78.15 -186.7 L-77.3 -186.2 Q-76.5 -185.65 -76.5 -185.1 -76.5 -184.4 -77.1 -183.8 -77.75 -183.15 -78.7 -183.15 L-79.9 -183.55 Q-80.65 -184.0 -80.65 -184.8 -80.65 -185.35 -80.2 -185.8 L-79.1 -186.75 -78.55 -186.75 -78.4 -186.75 -78.15 -186.7 M-83.65 -188.1 Q-83.1 -187.25 -83.1 -186.15 -83.1 -184.65 -83.9 -184.65 -85.0 -184.65 -86.0 -185.8 -86.95 -187.0 -86.95 -188.2 -86.95 -189.6 -86.25 -189.6 L-85.15 -189.2 -84.05 -188.65 -83.65 -188.1" fill="#d6b680" fill-rule="evenodd" stroke="none"/>
      <path d="M-71.05 -166.75 L-68.95 -166.15 -70.5 -165.05 -71.05 -166.75" fill="#965636" fill-rule="evenodd" stroke="none"/>
      <path d="M38.85 -238.75 L37.55 -239.6 33.6 -236.0 34.45 -241.2 Q30.45 -243.15 27.55 -243.15 22.95 -243.15 -4.45 -224.15 L-4.5 -224.1 -20.9 -212.35 -21.45 -212.05 -22.15 -211.55 -31.7 -204.8 Q-30.75 -203.0 -29.7 -200.15 L-29.65 -200.0 Q-28.7 -197.3 -27.2 -191.65 L-36.4 -193.4 -37.5 -193.7 -47.5 -195.6 Q-47.75 -194.35 -46.5 -192.85 -45.25 -191.25 -45.15 -189.6 -48.85 -186.75 -53.8 -181.5 -60.05 -183.15 -65.65 -185.05 L-67.35 -185.65 -68.85 -186.2 -74.75 -188.65 -76.4 -189.6 Q-89.4 -197.25 -94.2 -205.6 -101.0 -203.3 -106.0 -197.4 -112.1 -190.4 -111.0 -182.6 -110.65 -180.25 -109.5 -178.65 -108.7 -177.65 -107.75 -177.25 L-106.5 -176.85 -94.15 -173.55 -91.05 -172.65 -79.65 -169.35 -71.05 -166.75 -68.95 -166.15 -70.5 -165.05 Q-81.75 -157.0 -95.8 -158.5 -95.4 -155.65 -95.4 -149.75 L-95.1 -141.95 Q-94.55 -134.9 -93.4 -132.6 -92.3 -130.3 -87.1 -129.6 L-78.25 -128.6 -78.85 -126.3 -79.5 -123.95 Q-79.5 -121.65 -71.45 -118.8 -64.35 -116.2 -61.55 -116.2 L-61.45 -118.1 -60.75 -143.85 Q-53.1 -171.95 -24.35 -180.65 20.35 -182.3 45.1 -169.7 51.0 -164.55 52.25 -154.65 L56.45 -159.5 Q60.7 -164.35 60.7 -166.45 60.7 -167.7 59.8 -170.0 59.05 -172.35 59.05 -174.1 59.05 -174.9 64.45 -180.45 L68.4 -184.55 Q76.45 -192.6 77.6 -195.45 M77.6 -196.6 Q71.0 -209.6 69.4 -209.6 68.0 -209.6 63.85 -207.4 59.1 -204.95 58.65 -204.8 L58.65 -205.2 Q60.05 -207.95 61.45 -211.8 L63.45 -217.95 57.0 -224.25 48.95 -231.35 Q43.35 -235.9 38.85 -238.75 M29.1 -232.35 L34.05 -227.4 Q29.9 -224.95 26.75 -222.05 30.05 -219.05 34.05 -216.85 L29.1 -211.9 Q26.8 -216.05 23.9 -219.35 20.75 -216.0 18.55 -211.95 L13.65 -216.85 Q17.9 -219.2 21.25 -222.05 17.85 -225.25 13.65 -227.3 L18.55 -232.3 Q21.0 -228.1 24.0 -224.8 27.05 -228.2 29.1 -232.35 M-90.35 -198.6 Q-90.9 -199.3 -91.75 -199.6 L-94.15 -200.0 Q-98.25 -200.0 -102.25 -194.4 -106.25 -188.8 -105.65 -184.15 -105.45 -183.0 -105.0 -182.65 L-103.75 -182.45 Q-101.0 -182.45 -97.35 -186.6 -93.75 -190.85 -94.15 -193.55 -94.15 -193.95 -94.85 -194.25 L-95.55 -194.4 Q-97.45 -194.4 -99.5 -191.65 -101.4 -188.95 -101.3 -187.25 -100.2 -187.55 -99.65 -188.05 -98.7 -188.6 -97.85 -190.1 M-106.5 -176.85 L-106.2 -176.85 Q-100.85 -176.85 -94.7 -183.45 -88.45 -190.25 -89.35 -196.15 -89.5 -197.55 -90.2 -198.35 L-90.35 -198.6 Q-82.8 -192.35 -76.55 -189.5 L-76.35 -189.35 -74.75 -188.65 M-68.95 -166.15 L-66.4 -168.25 Q-63.6 -170.85 -56.1 -178.95 L-53.8 -181.5 M-70.5 -165.05 L-71.05 -166.75" fill="none" stroke="#000000" stroke-linecap="round" stroke-linejoin="round" stroke-opacity="0.6627451" stroke-width="1.0"/>
      <path d="M39.9 -198.05 L40.7 -198.05 Q47.75 -198.05 52.5 -196.45 M58.85 -192.5 Q61.4 -189.75 63.05 -185.2 M17.7 -195.5 L20.9 -196.15 27.7 -197.15 M-1.0 -195.5 Q2.0 -194.25 6.2 -194.25 L8.0 -194.25 M-5.85 -207.8 L-6.4 -206.05 -6.8 -203.7 Q-6.8 -202.1 -6.35 -200.8 M6.75 -215.45 Q2.9 -214.9 -1.0 -211.95" fill="none" stroke="#000000" stroke-linecap="square" stroke-linejoin="round" stroke-opacity="0.6627451" stroke-width="3.0"/>
      <path d="M6.65 -157.4 L7.15 -157.5 7.2 -157.5 8.0 -157.55 9.25 -157.65 9.4 -157.65 9.55 -157.65 10.85 -157.55 11.85 -157.5 12.15 -157.5 14.3 -157.65 16.5 -157.8 16.9 -157.85 18.85 -158.1 20.45 -158.25 20.6 -158.25 20.7 -158.2 24.2 -155.8 25.65 -154.65 28.95 -151.35 Q31.45 -148.4 32.1 -145.8 L32.25 -145.35 34.55 -137.4 Q36.45 -130.45 36.45 -127.85 36.45 -126.85 35.55 -125.25 L34.45 -123.4 34.15 -123.85 Q32.55 -127.0 30.45 -135.75 L28.25 -143.75 26.1 -149.6 25.3 -151.35 24.2 -153.4 Q22.9 -155.65 21.25 -157.55 L20.7 -158.2 21.25 -157.55 Q22.9 -155.65 24.2 -153.4 L25.3 -151.35 26.1 -149.6 28.25 -143.75 30.45 -135.75 Q32.55 -127.0 34.15 -123.85 L34.45 -123.4 33.45 -121.8 32.1 -121.8 31.7 -121.8 28.95 -121.95 28.25 -121.95 24.2 -122.3 22.7 -122.45 19.9 -122.65 18.0 -122.85 16.75 -122.9 14.85 -123.05 14.85 -123.15 15.3 -131.75 15.8 -139.35 Q15.8 -150.15 14.4 -157.3 L14.3 -157.65 14.4 -157.3 Q15.8 -150.15 15.8 -139.35 L15.3 -131.75 14.85 -123.15 14.85 -123.05 9.75 -123.4 9.4 -123.4 9.0 -123.4 0.75 -122.85 1.3 -124.7 Q2.15 -128.65 2.65 -137.0 3.2 -145.9 4.0 -149.75 4.85 -154.0 6.6 -157.25 L6.65 -157.4 6.6 -157.25 Q4.85 -154.0 4.0 -149.75 3.2 -145.9 2.65 -137.0 2.15 -128.65 1.3 -124.7 L0.75 -122.85 -1.05 -122.65 -11.55 -121.9 -13.05 -121.8 Q-12.3 -122.65 -11.7 -123.85 L-11.55 -124.1 Q-9.9 -127.25 -7.65 -135.75 -5.15 -145.2 -3.05 -149.6 -1.05 -153.85 1.6 -156.9 -1.05 -153.85 -3.05 -149.6 -5.15 -145.2 -7.65 -135.75 -9.9 -127.25 -11.55 -124.1 L-11.7 -123.85 Q-12.3 -122.65 -13.05 -121.8 L-13.2 -121.8 -19.0 -122.2 -19.8 -122.3 -23.2 -124.5 Q-20.65 -125.5 -19.0 -127.55 -16.8 -130.25 -14.5 -137.3 L-11.55 -145.65 -9.8 -149.6 Q-7.65 -153.45 -4.75 -156.55 -7.65 -153.45 -9.8 -149.6 L-11.55 -145.65 -14.5 -137.3 Q-16.8 -130.25 -19.0 -127.55 -20.65 -125.5 -23.2 -124.5 L-24.2 -125.45 Q-27.45 -128.35 -28.7 -131.95 L-28.95 -132.6 -28.95 -133.85 Q-25.25 -133.7 -23.1 -135.65 -21.35 -137.3 -20.25 -140.85 -18.7 -146.0 -14.5 -151.65 L-13.25 -153.3 Q-12.65 -154.1 -11.55 -154.7 -9.25 -156.05 -4.75 -156.55 L-1.0 -156.75 1.6 -156.9 6.65 -157.4 M9.55 -157.65 L9.5 -157.3 Q7.9 -150.15 7.9 -139.35 L8.55 -131.75 9.0 -123.4 8.55 -131.75 7.9 -139.35 Q7.9 -150.15 9.5 -157.3 L9.55 -157.65 M16.9 -157.85 L17.2 -157.25 Q18.45 -154.65 19.25 -151.35 L19.55 -149.75 Q20.35 -145.9 20.85 -137.0 21.25 -128.65 22.15 -124.7 22.35 -123.6 22.7 -122.6 L22.7 -122.45 22.7 -122.6 Q22.35 -123.6 22.15 -124.7 21.25 -128.65 20.85 -137.0 20.35 -145.9 19.55 -149.75 L19.25 -151.35 Q18.45 -154.65 17.2 -157.25 L16.9 -157.85 M28.4 -124.15 L28.95 -121.95 28.4 -124.15 M-28.7 -131.95 L-27.35 -131.9 Q-22.25 -131.9 -19.55 -137.3 L-16.4 -146.05 -14.9 -150.7 -14.5 -151.65 -14.9 -150.7 -16.4 -146.05 -19.55 -137.3 Q-22.25 -131.9 -27.35 -131.9 L-28.7 -131.95 M-16.5 -124.85 L-19.0 -122.2 -16.5 -124.85" fill="#666666" fill-rule="evenodd" stroke="none"/>
      <path d="M6.75 -157.5 L7.0 -157.5 7.15 -157.5 6.65 -157.4 6.75 -157.5 6.65 -157.4 1.6 -156.9 -1.0 -156.75 -4.75 -156.55 -3.1 -158.2 -2.8 -158.4 -3.1 -158.2 -4.75 -156.55 Q-9.25 -156.05 -11.55 -154.7 -12.65 -154.1 -13.25 -153.3 L-14.5 -151.65 -12.85 -155.6 -11.55 -157.3 -10.8 -158.1 -10.65 -158.25 -10.8 -158.1 -11.55 -157.3 -12.85 -155.6 -14.5 -151.65 Q-18.7 -146.0 -20.25 -140.85 -21.35 -137.3 -23.1 -135.65 -25.25 -133.7 -28.95 -133.85 L-28.95 -132.6 -28.7 -131.95 Q-27.45 -128.35 -24.2 -125.45 L-23.2 -124.5 -19.8 -122.3 Q-22.65 -122.85 -25.4 -123.85 L-23.2 -124.5 -25.4 -123.85 Q-27.35 -124.65 -29.25 -125.6 -36.75 -129.35 -37.45 -134.8 L-37.6 -136.05 -37.35 -136.75 -36.35 -136.9 -33.6 -136.7 -31.35 -136.55 Q-26.1 -136.55 -24.5 -139.3 -22.85 -144.1 -21.0 -148.1 -17.3 -156.0 -11.55 -158.05 L-10.65 -158.25 -7.35 -158.75 -2.8 -158.4 0.05 -158.1 2.4 -157.8 2.15 -157.55 1.6 -156.9 2.15 -157.55 2.4 -157.8 6.75 -157.5 M-28.7 -131.95 L-34.45 -133.45 -37.45 -134.8 -34.45 -133.45 -28.7 -131.95 M-30.05 -135.6 Q-32.15 -135.75 -33.6 -136.7 -32.15 -135.75 -30.05 -135.6" fill="#8a8a8a" fill-rule="evenodd" stroke="none"/>
      <path d="M20.6 -158.25 L21.7 -158.4 24.2 -158.65 25.65 -158.75 26.2 -158.75 29.25 -158.35 Q32.95 -157.5 35.95 -154.25 L38.1 -151.35 39.8 -148.1 41.05 -145.35 42.55 -141.5 43.35 -139.3 44.15 -138.25 Q45.8 -136.7 49.6 -136.55 L50.3 -136.55 52.65 -136.75 52.75 -136.75 55.1 -136.9 56.1 -136.75 56.35 -136.05 56.35 -135.45 56.1 -133.75 55.5 -133.45 Q51.8 -132.1 49.6 -131.9 L48.8 -131.9 Q46.1 -131.9 44.15 -133.7 42.65 -134.95 41.55 -137.3 L38.85 -145.35 38.65 -146.05 37.15 -150.7 37.0 -151.35 35.95 -154.25 37.0 -151.35 37.15 -150.7 38.65 -146.05 38.85 -145.35 41.55 -137.3 Q42.65 -134.95 44.15 -133.7 46.1 -131.9 48.8 -131.9 L49.6 -131.9 Q51.8 -132.1 55.5 -133.45 L56.1 -133.75 Q55.3 -131.0 52.8 -128.65 L49.6 -126.35 48.15 -125.6 45.4 -124.3 44.6 -123.95 44.15 -123.75 39.8 -122.6 35.4 -121.95 34.45 -123.4 35.4 -121.95 33.45 -121.8 34.45 -123.4 35.55 -125.25 Q36.45 -126.85 36.45 -127.85 36.45 -130.45 34.55 -137.4 L32.25 -145.35 32.1 -145.8 Q31.45 -148.4 28.95 -151.35 L25.65 -154.65 24.2 -155.8 20.7 -158.2 20.6 -158.25 M25.65 -158.75 L26.1 -158.2 Q29.25 -155.2 31.45 -151.35 L32.4 -149.6 Q33.3 -147.95 34.2 -145.35 L36.8 -137.3 Q39.0 -130.25 41.0 -127.55 42.35 -125.9 44.15 -124.85 44.7 -124.55 45.4 -124.3 44.7 -124.55 44.15 -124.85 42.35 -125.9 41.0 -127.55 39.0 -130.25 36.8 -137.3 L34.2 -145.35 Q33.3 -147.95 32.4 -149.6 L31.45 -151.35 Q29.25 -155.2 26.1 -158.2 L25.65 -158.75 M38.85 -123.6 L39.8 -122.6 38.85 -123.6 M56.65 -139.85 Q55.4 -138.1 52.9 -136.85 L52.75 -136.75 52.9 -136.85 Q55.4 -138.1 56.65 -139.85 M49.6 -135.45 L52.65 -136.75 49.6 -135.45 M40.75 -143.55 Q40.9 -142.75 41.6 -142.1 42.0 -141.75 42.55 -141.5 42.0 -141.75 41.6 -142.1 40.9 -142.75 40.75 -143.55 M49.9 -129.15 L52.0 -128.75 52.8 -128.65 52.0 -128.75 49.9 -129.15" fill="#474747" fill-rule="evenodd" stroke="none"/>
      <path d="M7.15 -157.5 L7.0 -157.5 6.75 -157.5 2.4 -157.8 0.05 -158.1 -2.8 -158.4 -7.35 -158.75 -10.65 -158.25 -11.55 -158.05 Q-17.3 -156.0 -21.0 -148.1 -22.85 -144.1 -24.5 -139.3 -26.1 -136.55 -31.35 -136.55 L-33.6 -136.7 -36.35 -136.9 -37.35 -136.75 -37.6 -136.05 -37.45 -134.8 Q-36.75 -129.35 -29.25 -125.6 -27.35 -124.65 -25.4 -123.85 -22.65 -122.85 -19.8 -122.3 L-19.0 -122.2 -13.2 -121.8 -13.05 -121.8 -11.55 -121.9 -1.05 -122.65 0.75 -122.85 9.0 -123.4 9.4 -123.4 9.75 -123.4 14.85 -123.05 16.75 -122.9 18.0 -122.85 19.9 -122.65 22.7 -122.45 24.2 -122.3 28.25 -121.95 28.95 -121.95 31.7 -121.8 32.1 -121.8 33.45 -121.8 35.4 -121.95 39.8 -122.6 44.15 -123.75 44.6 -123.95 45.4 -124.3 48.15 -125.6 49.6 -126.35 52.8 -128.65 Q55.3 -131.0 56.1 -133.75 L56.35 -135.45 56.35 -136.05 56.1 -136.75 55.1 -136.9 52.75 -136.75 M7.15 -157.5 L7.2 -157.5 8.0 -157.55 9.25 -157.65 9.4 -157.65 9.55 -157.65 10.85 -157.55 11.85 -157.5 12.15 -157.5 14.3 -157.65 16.5 -157.8 16.9 -157.85 18.85 -158.1 20.45 -158.25 20.6 -158.25 21.7 -158.4 24.2 -158.65 25.65 -158.75 26.2 -158.75 29.25 -158.35 Q32.95 -157.5 35.95 -154.25 L38.1 -151.35 39.8 -148.1 41.05 -145.35 42.55 -141.5 43.35 -139.3 44.15 -138.25 Q45.8 -136.7 49.6 -136.55 L50.3 -136.55 52.65 -136.75" fill="none" stroke="#000000" stroke-linecap="round" stroke-linejoin="round" stroke-opacity="0.6627451" stroke-width="1.0"/>
      <path d="M6.75 -157.5 L6.65 -157.4 6.6 -157.25 Q4.85 -154.0 4.0 -149.75 3.2 -145.9 2.65 -137.0 2.15 -128.65 1.3 -124.7 L0.75 -122.85 M42.55 -141.5 L44.15 -141.2 M9.0 -123.4 L8.55 -131.75 7.9 -139.35 Q7.9 -150.15 9.5 -157.3 L9.55 -157.65 M-2.8 -158.4 L-3.1 -158.2 -4.75 -156.55 Q-7.65 -153.45 -9.8 -149.6 L-11.55 -145.65 -14.5 -137.3 Q-16.8 -130.25 -19.0 -127.55 -20.65 -125.5 -23.2 -124.5 L-25.4 -123.85 M1.6 -156.9 L2.15 -157.55 2.4 -157.8 M1.6 -156.9 Q-1.05 -153.85 -3.05 -149.6 -5.15 -145.2 -7.65 -135.75 -9.9 -127.25 -11.55 -124.1 L-11.7 -123.85 Q-12.3 -122.65 -13.05 -121.8 M22.7 -122.45 L22.7 -122.6 Q22.35 -123.6 22.15 -124.7 21.25 -128.65 20.85 -137.0 20.35 -145.9 19.55 -149.75 L19.25 -151.35 Q18.45 -154.65 17.2 -157.25 L16.9 -157.85 M14.3 -157.65 L14.4 -157.3 Q15.8 -150.15 15.8 -139.35 L15.3 -131.75 14.85 -123.15 14.85 -123.05 M28.95 -121.95 L28.4 -124.15 M45.4 -124.3 Q44.7 -124.55 44.15 -124.85 42.35 -125.9 41.0 -127.55 39.0 -130.25 36.8 -137.3 L34.2 -145.35 Q33.3 -147.95 32.4 -149.6 L31.45 -151.35 Q29.25 -155.2 26.1 -158.2 L25.65 -158.75 M34.45 -123.4 L35.4 -121.95 M39.8 -122.6 L38.85 -123.6 M20.6 -158.25 L20.7 -158.2 21.25 -157.55 Q22.9 -155.65 24.2 -153.4 L25.3 -151.35 26.1 -149.6 28.25 -143.75 30.45 -135.75 Q32.55 -127.0 34.15 -123.85 L34.45 -123.4 M35.95 -154.25 L37.0 -151.35 37.15 -150.7 38.65 -146.05 38.85 -145.35 41.55 -137.3 Q42.65 -134.95 44.15 -133.7 46.1 -131.9 48.8 -131.9 L49.6 -131.9 Q51.8 -132.1 55.5 -133.45 L56.1 -133.75 M52.75 -136.75 L52.9 -136.85 Q55.4 -138.1 56.65 -139.85 M39.8 -122.6 L40.45 -121.8 Q41.8 -120.4 42.9 -120.15 M28.95 -121.95 L29.95 -118.95 M52.75 -136.75 L52.65 -136.75 49.6 -135.45 M42.55 -141.5 Q42.0 -141.75 41.6 -142.1 40.9 -142.75 40.75 -143.55 M52.8 -128.65 L52.0 -128.75 49.9 -129.15 M52.8 -128.65 L54.0 -128.6 56.35 -128.65 Q57.75 -128.8 59.1 -129.6 M-10.65 -158.25 L-10.8 -158.1 -11.55 -157.3 -12.85 -155.6 -14.5 -151.65 -14.9 -150.7 -16.4 -146.05 -19.55 -137.3 Q-22.25 -131.9 -27.35 -131.9 L-28.7 -131.95 -34.45 -133.45 -37.45 -134.8 M-19.0 -122.2 L-16.5 -124.85 M-35.7 -139.6 Q-35.45 -138.1 -34.05 -137.1 L-33.6 -136.7 Q-32.15 -135.75 -30.05 -135.6 M-21.6 -119.6 L-19.0 -122.2" fill="none" stroke="#000000" stroke-linecap="round" stroke-linejoin="round" stroke-opacity="0.32941177" stroke-width="0.4"/>
    </g>
    <linearGradient gradientTransform="matrix(0.0091, 0.0158, -0.0167, 0.0096, -41.85, -192.6)" gradientUnits="userSpaceOnUse" id="gradient0" spreadMethod="pad" x1="-819.2" x2="819.2">
      <stop offset="0.0" stop-color="#66351c"/>
      <stop offset="1.0" stop-color="#3d1b0b"/>
    </linearGradient>
    <linearGradient gradientTransform="matrix(0.0654, 0.0175, -0.0198, 0.0737, 0.75, -180.65)" gradientUnits="userSpaceOnUse" id="gradient1" spreadMethod="pad" x1="-819.2" x2="819.2">
      <stop offset="0.0" stop-color="#7d3d1c"/>
      <stop offset="1.0" stop-color="#5e2b12"/>
    </linearGradient>
  </defs>
</svg>
