<?xml version="1.0" encoding="UTF-8" standalone="no"?>
<svg xmlns:xlink="http://www.w3.org/1999/xlink" height="531.5px" width="460.6px" xmlns="http://www.w3.org/2000/svg">
  <g transform="matrix(1.0, 0.0, 0.0, 1.0, 193.65, 334.05)">
    <use height="53.75" transform="matrix(1.5962, 0.0, 0.0, 1.5962, -31.0798, -149.9077)" width="52.6" xlink:href="#shape0"/>
    <use height="97.75" transform="matrix(1.0, 0.0, 0.0, 1.0, -52.5, -260.95)" width="67.9" xlink:href="#shape1"/>
  </g>
  <defs>
    <g id="shape0" transform="matrix(1.0, 0.0, 0.0, 1.0, 26.3, 26.85)">
      <path d="M11.55 -22.95 L11.55 -23.6 11.45 -24.25 14.7 -23.9 Q16.5 -23.95 18.4 -22.55 L18.5 -22.5 18.55 -22.35 18.4 -22.4 16.85 -22.75 15.95 -22.9 14.25 -23.35 12.05 -23.1 11.55 -22.95 M0.4 -23.0 L0.25 -23.65 -0.15 -24.85 -0.15 -24.95 5.05 -25.05 9.95 -24.45 10.55 -24.35 10.65 -23.5 10.7 -23.3 10.75 -23.05 10.6 -23.15 10.25 -23.45 7.35 -24.0 Q4.0 -24.0 0.4 -23.0 M14.6 2.7 L15.2 2.8 15.2 2.75 17.7 2.3 Q19.25 2.15 20.15 1.3 L20.95 0.55 21.2 0.3 21.4 1.15 21.4 1.3 21.35 1.35 20.9 2.15 19.95 2.9 20.2 2.9 18.45 3.7 17.55 4.1 15.1 4.5 14.6 2.7 M21.55 -0.95 L23.1 -1.7 23.15 -1.3 Q22.75 0.05 22.2 0.7 L22.15 0.75 21.75 -0.35 21.55 -0.95 M-22.6 -17.85 L-23.2 -18.7 -23.45 -19.1 -22.6 -20.45 -22.3 -20.85 Q-21.35 -22.35 -18.3 -23.2 L-14.35 -23.9 -13.35 -24.05 -12.9 -22.7 -12.85 -22.45 -12.5 -21.5 -13.2 -21.65 -13.95 -21.85 -18.45 -21.1 -20.6 -19.9 -22.3 -18.4 Q-22.3 -18.15 -22.45 -18.05 L-22.6 -17.85 M-11.8 -22.05 L-12.1 -23.5 -12.45 -24.15 -1.25 -24.9 -1.15 -24.6 -1.05 -24.45 -0.75 -23.7 -0.6 -23.0 -0.55 -22.8 -0.9 -23.0 -1.1 -23.2 -1.85 -23.4 -3.45 -23.55 -8.7 -23.0 Q-11.0 -22.6 -11.8 -22.05 M-7.65 -17.3 L-7.8 -17.35 -7.65 -17.35 -7.65 -17.3 M-4.6 4.2 L-4.45 4.9 -4.25 5.5 -5.8 5.5 -6.5 5.55 -8.05 5.6 -10.4 5.0 -9.7 5.1 -6.9 4.85 -4.6 4.2" fill="#cccccc" fill-rule="evenodd" stroke="none"/>
      <path d="M-9.55 8.1 L-9.65 8.0 -9.9 7.95 -10.95 7.5 -11.45 7.2 -12.4 6.4 -14.0 4.75 -14.5 4.35 -14.75 4.25 -15.0 3.9 Q-19.5 -0.75 -21.3 -3.6 L-22.55 -5.95 -23.05 -7.0 Q-24.1 -9.2 -24.8 -10.1 L-25.2 -11.15 Q-26.15 -13.55 -26.25 -15.05 -26.6 -18.55 -24.6 -21.35 L-22.5 -23.4 -21.4 -23.95 -19.1 -24.6 Q0.7 -28.65 17.1 -25.45 L18.45 -25.05 19.95 -24.3 Q25.55 -20.7 26.25 -13.15 26.4 -11.5 26.05 -7.35 L25.65 -3.6 25.4 -2.2 Q25.25 0.2 23.3 2.5 L22.45 3.5 21.45 4.25 21.0 4.75 20.0 5.15 20.05 5.1 19.9 5.15 19.6 5.25 19.5 5.3 19.2 5.55 15.25 7.0 15.55 8.75 15.4 11.9 15.25 14.8 14.6 16.35 14.05 17.55 14.0 17.55 13.65 18.5 13.15 19.05 Q11.95 20.05 8.5 20.35 L6.95 20.45 6.9 20.5 6.35 20.55 6.35 20.4 Q3.45 20.25 1.45 19.0 -1.85 16.8 -2.25 11.65 L-2.45 9.05 -2.55 8.3 -8.95 8.1 -8.75 8.3 -9.55 8.1 M18.55 -22.35 L18.5 -22.5 18.4 -22.55 Q16.5 -23.95 14.7 -23.9 L11.45 -24.25 11.55 -23.6 11.55 -22.95 11.4 -21.75 11.15 -20.35 12.1 -19.45 Q13.2 -18.7 14.6 -18.45 L16.25 -18.4 Q18.15 -18.6 18.8 -19.6 19.15 -20.2 19.05 -21.05 L18.55 -22.35 M17.0 -6.15 L17.45 -6.3 Q20.8 -6.6 22.25 -5.45 23.0 -4.85 23.5 -3.6 L23.6 -3.3 23.7 -3.6 23.75 -3.85 24.3 -8.15 24.6 -13.05 Q24.3 -16.2 21.15 -19.95 L19.9 -21.4 19.9 -21.1 Q20.0 -19.85 19.45 -18.8 18.65 -17.3 16.45 -17.1 14.05 -16.85 12.35 -17.8 L11.75 -18.1 10.75 -19.1 10.4 -18.6 Q9.25 -17.3 6.35 -17.0 L2.85 -17.2 Q1.65 -17.5 1.2 -17.8 L0.3 -18.5 -0.15 -19.05 -0.4 -18.7 Q-0.85 -17.95 -1.5 -17.35 -2.9 -16.15 -5.15 -15.95 L-7.6 -15.9 -7.7 -15.9 -8.9 -16.15 -9.75 -16.6 -11.15 -18.1 -11.45 -18.6 Q-11.6 -17.0 -12.2 -16.1 L-12.85 -15.5 -14.2 -15.0 -16.15 -14.75 Q-20.2 -14.6 -20.9 -14.75 L-21.05 -14.8 Q-21.55 -15.0 -21.75 -15.15 L-23.0 -16.45 -23.9 -17.6 -24.05 -17.85 Q-24.75 -16.35 -24.65 -15.3 -24.45 -13.3 -22.75 -9.5 L-21.85 -7.6 Q-20.2 -4.2 -18.95 -2.25 L-18.0 -1.2 -17.8 -1.15 -17.65 -0.85 -17.3 -0.6 -17.3 -0.65 -17.15 -0.55 Q-15.55 -3.45 -12.9 -5.6 L-12.05 -6.2 -12.0 -6.25 Q-10.05 -7.6 -7.6 -8.25 L-7.55 -8.2 -7.5 -8.3 -6.25 -8.6 -3.35 -8.35 -2.5 -8.4 Q-1.75 -8.9 -0.65 -8.8 1.45 -8.6 4.25 -7.45 L5.0 -7.15 8.45 -5.3 8.7 -5.15 8.9 -5.15 9.85 -5.3 12.4 -5.75 13.55 -5.6 14.85 -5.55 15.3 -5.65 16.1 -5.9 17.0 -6.15 M10.75 -23.05 L10.7 -23.3 10.65 -23.5 10.55 -24.35 9.95 -24.45 5.05 -25.05 -0.15 -24.95 -0.15 -24.85 0.25 -23.65 0.4 -23.0 0.5 -22.2 Q0.6 -21.2 0.3 -20.25 L0.35 -20.25 1.25 -19.3 Q2.4 -18.5 4.15 -18.3 L6.2 -18.35 Q9.5 -18.65 10.4 -20.95 10.75 -21.8 10.75 -23.05 M4.9 -6.1 L4.4 -6.35 2.7 -7.05 -1.15 -7.9 Q1.2 -6.8 2.8 -5.3 L3.3 -4.8 4.05 -3.95 4.35 -3.6 Q6.05 -1.55 7.25 0.9 L7.2 1.15 7.15 1.45 6.9 1.6 5.25 -0.55 3.1 -3.5 3.05 -3.6 1.9 -4.65 Q0.95 -5.4 -0.45 -6.15 -3.65 -7.85 -6.35 -7.6 L-6.7 -7.55 -7.05 -7.5 -7.25 -7.45 -8.3 -7.05 -8.8 -6.85 -8.85 -6.85 -10.15 -6.25 -10.8 -5.9 Q-12.85 -4.75 -14.0 -3.6 L-14.05 -3.55 -14.95 -2.5 -15.8 -1.25 -16.25 0.05 -16.3 0.15 -15.0 1.7 Q-14.95 0.15 -14.25 -0.65 L-14.0 -0.9 Q-12.15 -2.65 -7.1 -0.9 L-7.05 -0.9 Q-6.2 -0.6 -5.55 0.05 -5.3 -0.3 -4.55 0.8 L-4.25 1.2 -3.95 1.7 -3.3 2.9 Q-2.9 3.7 -2.65 4.65 -1.95 7.1 -1.6 10.2 L-1.2 13.05 -0.3 15.7 Q0.45 17.15 1.35 17.75 2.95 18.9 5.55 19.05 L6.6 19.05 8.3 19.0 Q11.05 18.75 12.2 18.05 13.9 16.95 14.5 13.8 L14.65 11.1 14.7 8.9 14.65 8.55 13.55 4.15 13.5 3.85 13.55 3.8 12.7 1.05 10.75 -1.95 9.25 -3.3 8.8 -3.6 8.15 -4.0 7.9 -4.35 7.55 -4.5 Q7.35 -4.6 7.25 -4.65 L7.3 -4.7 6.7 -5.1 6.35 -5.25 6.05 -5.45 6.0 -5.5 5.5 -5.75 4.9 -6.1 M11.75 -2.4 L12.2 -1.75 12.35 -1.65 12.85 -0.95 Q12.85 -1.45 13.15 -1.95 L14.15 -2.85 14.6 -3.0 14.5 -3.1 14.45 -3.25 14.4 -3.4 14.3 -3.5 14.15 -3.6 14.1 -3.65 13.3 -4.4 12.65 -4.5 10.15 -4.1 10.7 -3.6 11.75 -2.4 M21.2 0.3 L21.15 0.2 21.05 -0.1 20.95 -0.3 Q20.55 -1.25 19.8 -1.7 18.8 -2.3 17.2 -2.15 14.15 -1.9 13.75 -1.1 L13.6 -0.5 13.4 -0.05 13.75 0.45 14.3 1.85 14.55 2.6 14.6 2.7 15.1 4.5 17.55 4.1 18.45 3.7 20.2 2.9 19.95 2.9 20.9 2.15 21.35 1.35 21.4 1.3 21.4 1.15 21.2 0.3 M18.45 -3.75 L19.15 -3.6 20.7 -2.75 21.55 -0.95 21.75 -0.35 22.15 0.75 22.2 0.7 Q22.75 0.05 23.15 -1.3 L23.1 -1.7 23.0 -2.55 22.55 -3.6 Q21.7 -4.7 19.75 -4.9 L17.5 -4.9 16.95 -4.75 16.75 -4.55 15.8 -3.6 15.55 -3.35 16.5 -3.6 17.05 -3.7 18.45 -3.75 M-12.5 -21.5 L-12.85 -22.45 -12.9 -22.7 -13.35 -24.05 -14.35 -23.9 -18.3 -23.2 Q-21.35 -22.35 -22.3 -20.85 L-22.6 -20.45 -23.45 -19.1 -23.2 -18.7 -22.6 -17.85 -22.5 -17.7 -22.35 -17.45 -21.9 -16.95 -21.35 -16.35 -20.25 -16.0 -20.1 -15.95 -17.4 -16.0 -16.35 -16.1 -14.7 -16.3 Q-13.65 -16.55 -13.2 -16.9 L-12.75 -17.45 Q-12.5 -17.85 -12.4 -18.4 L-12.3 -19.15 -12.3 -19.25 -12.35 -20.6 -12.5 -21.5 M-0.55 -22.8 L-0.6 -23.0 -0.75 -23.7 -1.05 -24.45 -1.15 -24.6 -1.25 -24.9 -12.45 -24.15 -12.1 -23.5 -11.8 -22.05 -11.55 -20.65 -11.55 -20.6 -11.15 -20.05 -10.8 -19.3 -10.45 -18.75 -10.4 -18.7 -9.8 -18.1 Q-9.0 -17.55 -7.8 -17.35 L-7.65 -17.3 Q-6.65 -17.15 -5.35 -17.3 -3.85 -17.45 -2.75 -18.05 -1.75 -18.6 -1.15 -19.6 -0.3 -20.95 -0.4 -22.2 L-0.55 -22.8 M-10.4 5.0 L-8.05 5.6 -6.5 5.55 -5.8 5.5 -4.25 5.5 -4.45 4.9 -4.6 4.2 -5.1 2.6 Q-5.35 2.0 -5.75 1.55 -7.55 -0.75 -12.4 -0.3 -13.65 -0.2 -14.0 1.2 L-14.1 1.8 -14.1 2.6 -14.0 2.7 Q-12.3 4.25 -10.4 5.0" fill="#000000" fill-rule="evenodd" stroke="none"/>
      <path d="M11.55 -22.95 L12.05 -23.1 14.25 -23.35 15.95 -22.9 16.85 -22.75 18.4 -22.4 18.55 -22.35 19.05 -21.05 Q19.15 -20.2 18.8 -19.6 18.15 -18.6 16.25 -18.4 L14.6 -18.45 Q13.2 -18.7 12.1 -19.45 L11.15 -20.35 11.4 -21.75 11.55 -22.95 M0.4 -23.0 Q4.0 -24.0 7.35 -24.0 L10.25 -23.45 10.6 -23.15 10.75 -23.05 Q10.75 -21.8 10.4 -20.95 9.5 -18.65 6.2 -18.35 L4.15 -18.3 Q2.4 -18.5 1.25 -19.3 L0.35 -20.25 0.3 -20.25 Q0.6 -21.2 0.5 -22.2 L0.4 -23.0 M14.6 2.7 L14.55 2.6 14.3 1.85 13.75 0.45 13.4 -0.05 13.6 -0.5 13.75 -1.1 Q14.15 -1.9 17.2 -2.15 18.8 -2.3 19.8 -1.7 20.55 -1.25 20.95 -0.3 L21.05 -0.1 21.15 0.2 21.2 0.3 20.95 0.55 20.15 1.3 Q19.25 2.15 17.7 2.3 L15.2 2.75 15.2 2.8 14.6 2.7 M21.55 -0.95 L20.7 -2.75 19.15 -3.6 18.45 -3.75 Q18.65 -4.45 19.35 -4.75 L19.75 -4.9 Q21.7 -4.7 22.55 -3.6 L23.0 -2.55 23.1 -1.7 21.55 -0.95 M-22.6 -17.85 L-22.45 -18.05 Q-22.3 -18.15 -22.3 -18.4 L-20.6 -19.9 -18.45 -21.1 -13.95 -21.85 -13.2 -21.65 -12.5 -21.5 -12.35 -20.6 -12.3 -19.25 -12.3 -19.15 -12.4 -18.4 Q-12.5 -17.85 -12.75 -17.45 L-13.2 -16.9 Q-13.65 -16.55 -14.7 -16.3 L-16.35 -16.1 -17.4 -16.0 -20.1 -15.95 -20.25 -16.0 -21.35 -16.35 -21.9 -16.95 -22.35 -17.45 -22.5 -17.7 -22.6 -17.85 M-11.8 -22.05 Q-11.0 -22.6 -8.7 -23.0 L-3.45 -23.55 -1.85 -23.4 -1.1 -23.2 -0.9 -23.0 -0.55 -22.8 -0.4 -22.2 Q-0.3 -20.95 -1.15 -19.6 -1.75 -18.6 -2.75 -18.05 -3.85 -17.45 -5.35 -17.3 -6.65 -17.15 -7.65 -17.3 L-7.65 -17.35 -7.8 -17.35 Q-9.0 -17.55 -9.8 -18.1 L-10.4 -18.7 -10.45 -18.75 -10.8 -19.3 -11.15 -20.05 -11.55 -20.6 -11.55 -20.65 -11.8 -22.05 M-4.6 4.2 L-6.9 4.85 -9.7 5.1 -10.4 5.0 Q-12.3 4.25 -14.0 2.7 L-14.1 2.6 -14.1 1.8 -14.0 1.2 Q-13.65 -0.2 -12.4 -0.3 -7.55 -0.75 -5.75 1.55 -5.35 2.0 -5.1 2.6 L-4.6 4.2 M0.7 14.2 L0.75 14.15 Q1.25 14.0 1.45 14.5 1.8 15.3 2.1 15.55 L4.05 16.6 Q4.7 16.8 4.8 17.2 L4.8 17.3 Q4.8 18.0 3.9 18.0 L3.25 17.85 Q2.9 17.85 1.95 17.15 L0.95 16.25 0.4 15.35 Q0.25 15.05 0.25 14.6 L0.7 14.2 M3.5 13.05 Q4.15 13.1 4.15 13.7 L3.95 14.05 3.5 14.3 3.4 14.3 3.7 14.5 4.35 14.65 4.6 15.3 Q4.3 15.85 3.85 15.85 3.25 15.85 2.75 15.4 L2.3 14.75 Q2.3 14.2 3.05 14.2 L3.15 14.2 2.95 14.05 2.8 13.7 Q2.8 13.0 3.5 13.05" fill="#ffffff" fill-rule="evenodd" stroke="none"/>
      <path d="M-1.5 -17.35 Q-0.85 -17.95 -0.4 -18.7 L-0.15 -19.05 0.3 -18.5 1.2 -17.8 Q1.65 -17.5 2.85 -17.2 L6.35 -17.0 Q9.25 -17.3 10.4 -18.6 L10.75 -19.1 11.75 -18.1 12.35 -17.8 Q14.05 -16.85 16.45 -17.1 18.65 -17.3 19.45 -18.8 20.0 -19.85 19.9 -21.1 L19.9 -21.4 21.15 -19.95 Q24.3 -16.2 24.6 -13.05 L24.3 -8.15 23.75 -3.85 23.7 -3.6 23.6 -3.3 23.5 -3.6 Q23.0 -4.85 22.25 -5.45 20.8 -6.6 17.45 -6.3 L17.0 -6.15 16.5 -8.95 Q16.25 -10.5 14.95 -13.0 L13.45 -16.1 13.0 -16.25 14.15 -12.95 14.9 -10.05 15.3 -5.65 14.85 -5.55 13.55 -5.6 12.4 -5.75 9.85 -5.3 9.6 -6.75 9.0 -9.5 8.1 -12.5 7.5 -13.95 Q7.1 -14.9 6.7 -14.95 L7.0 -14.15 7.3 -13.3 7.55 -12.4 7.8 -11.55 8.15 -8.95 8.5 -6.0 8.45 -5.3 5.0 -7.15 4.25 -7.45 Q4.05 -13.2 -0.4 -16.7 L-1.5 -17.35 M-22.75 -9.5 Q-24.45 -13.3 -24.65 -15.3 -24.75 -16.35 -24.05 -17.85 L-23.9 -17.6 -23.0 -16.45 -21.75 -15.15 Q-21.55 -15.0 -21.05 -14.8 L-20.9 -14.75 -21.35 -13.9 Q-22.35 -11.95 -22.75 -9.5" fill="#401f1f" fill-rule="evenodd" stroke="none"/>
      <path d="M-1.5 -17.35 L-0.4 -16.7 Q4.05 -13.2 4.25 -7.45 1.45 -8.6 -0.65 -8.8 -1.75 -8.9 -2.5 -8.4 L-3.35 -8.35 -6.25 -8.6 -7.5 -8.3 -7.55 -8.2 -7.55 -8.3 -7.55 -9.75 -7.55 -9.8 Q-7.8 -11.1 -8.9 -11.9 -9.2 -12.2 -9.6 -12.3 L-9.75 -16.6 -8.9 -16.15 -7.7 -15.9 -7.6 -15.9 -5.15 -15.95 Q-2.9 -16.15 -1.5 -17.35 M-22.75 -9.5 Q-22.35 -11.95 -21.35 -13.9 L-20.9 -14.75 Q-20.2 -14.6 -16.15 -14.75 L-14.2 -15.0 -12.85 -11.75 -13.5 -11.15 Q-14.3 -10.05 -14.05 -8.7 -13.85 -7.65 -13.15 -6.9 L-13.05 -6.8 -12.75 -6.55 -12.65 -6.5 -12.0 -6.25 -12.05 -6.2 -12.9 -5.6 Q-15.55 -3.45 -17.15 -0.55 L-17.3 -0.65 -17.3 -0.6 -17.65 -0.85 -17.8 -1.15 -18.0 -1.2 -18.95 -2.25 Q-20.2 -4.2 -21.85 -7.6 L-22.75 -9.5" fill="#1f1111" fill-rule="evenodd" stroke="none"/>
      <path d="M-14.2 -15.0 L-12.85 -15.5 -12.2 -16.1 Q-11.6 -17.0 -11.45 -18.6 L-11.15 -18.1 -9.75 -16.6 -9.6 -12.3 Q-9.2 -12.2 -8.9 -11.9 -7.8 -11.1 -7.55 -9.8 L-7.55 -9.75 -7.55 -8.3 -7.55 -8.2 -7.6 -8.25 Q-10.05 -7.6 -12.0 -6.25 L-12.65 -6.5 -12.75 -6.55 -13.05 -6.8 -13.15 -6.9 Q-13.85 -7.65 -14.05 -8.7 -14.3 -10.05 -13.5 -11.15 L-12.85 -11.75 -14.2 -15.0" fill="#0f0808" fill-rule="evenodd" stroke="none"/>
      <path d="M2.8 -5.3 Q1.2 -6.8 -1.15 -7.9 L2.7 -7.05 4.4 -6.35 4.9 -6.1 Q3.7 -6.05 2.8 -5.3 M-7.1 -0.9 Q-12.15 -2.65 -14.0 -0.9 L-14.25 -0.65 Q-14.95 0.15 -15.0 1.7 L-16.3 0.15 -16.25 0.05 -15.8 -1.25 -14.95 -2.5 -14.05 -3.55 -14.0 -3.6 Q-12.85 -4.75 -10.8 -5.9 L-10.15 -6.25 -8.85 -6.85 -8.8 -6.85 -8.3 -7.05 -7.25 -7.45 -7.05 -7.5 -6.7 -7.55 -6.35 -7.6 Q-3.65 -7.85 -0.45 -6.15 0.95 -5.4 1.9 -4.65 L0.95 -4.5 -1.0 -4.1 -2.2 -3.6 -5.15 -2.15 -7.1 -0.9" fill="#6e0000" fill-rule="evenodd" stroke="none"/>
      <path d="M4.9 -6.1 L5.5 -5.75 6.0 -5.5 6.05 -5.45 6.35 -5.25 6.7 -5.1 7.3 -4.7 7.25 -4.65 Q7.35 -4.6 7.55 -4.5 L7.9 -4.35 8.15 -4.0 8.8 -3.6 9.25 -3.3 10.75 -1.95 12.7 1.05 13.55 3.8 13.5 3.85 13.55 4.15 14.65 8.55 Q14.4 11.75 13.1 14.6 11.0 19.15 5.5 17.4 L4.8 17.2 Q4.7 16.8 4.05 16.6 L2.1 15.55 Q1.8 15.3 1.45 14.5 1.25 14.0 0.75 14.15 L0.7 14.2 Q-0.9 12.0 -0.95 8.9 -1.0 4.55 -3.9 1.55 L-4.25 1.2 -4.55 0.8 Q-5.3 -0.3 -5.55 0.05 -6.2 -0.6 -7.05 -0.9 L-7.1 -0.9 -5.15 -2.15 -2.2 -3.6 -1.0 -4.1 0.95 -4.5 1.9 -4.65 3.05 -3.6 3.1 -3.5 5.25 -0.55 6.9 1.6 7.15 1.45 7.2 1.15 7.25 0.9 Q6.05 -1.55 4.35 -3.6 L4.05 -3.95 3.3 -4.8 2.8 -5.3 Q3.7 -6.05 4.9 -6.1 M3.5 13.05 Q2.8 13.0 2.8 13.7 L2.95 14.05 3.15 14.2 3.05 14.2 Q2.3 14.2 2.3 14.75 L2.75 15.4 Q3.25 15.85 3.85 15.85 4.3 15.85 4.6 15.3 L4.35 14.65 3.7 14.5 3.4 14.3 3.5 14.3 3.95 14.05 4.15 13.7 Q4.15 13.1 3.5 13.05" fill="#990000" fill-rule="evenodd" stroke="none"/>
      <path d="M8.45 -5.3 L8.5 -6.0 8.15 -8.95 7.8 -11.55 7.55 -12.4 7.3 -13.3 7.0 -14.15 6.7 -14.95 Q7.1 -14.9 7.5 -13.95 L8.1 -12.5 9.0 -9.5 9.6 -6.75 9.85 -5.3 8.9 -5.15 8.7 -5.15 8.45 -5.3 M15.3 -5.65 L14.9 -10.05 14.15 -12.95 13.0 -16.25 13.45 -16.1 14.95 -13.0 Q16.25 -10.5 16.5 -8.95 L17.0 -6.15 16.1 -5.9 15.3 -5.65" fill="#4d2b2b" fill-rule="evenodd" stroke="none"/>
      <path d="M11.75 -2.4 L10.7 -3.6 10.15 -4.1 12.65 -4.5 13.3 -4.4 14.1 -3.65 14.15 -3.6 14.3 -3.5 12.7 -2.85 11.75 -2.4" fill="#707070" fill-rule="evenodd" stroke="none"/>
      <path d="M14.3 -3.5 L14.4 -3.4 14.45 -3.25 14.5 -3.1 14.6 -3.0 14.15 -2.85 13.15 -1.95 Q12.85 -1.45 12.85 -0.95 L12.35 -1.65 12.2 -1.75 11.75 -2.4 12.7 -2.85 14.3 -3.5 M19.75 -4.9 L19.35 -4.75 Q18.65 -4.45 18.45 -3.75 L17.05 -3.7 16.5 -3.6 15.55 -3.35 15.8 -3.6 16.75 -4.55 16.95 -4.75 17.5 -4.9 19.75 -4.9" fill="#969696" fill-rule="evenodd" stroke="none"/>
      <path d="M21.0 4.75 L20.6 5.2 20.0 6.25 Q19.9 6.6 19.95 7.35 L20.0 8.45 Q19.75 9.6 18.45 9.9 17.15 10.25 16.95 10.65 16.55 11.5 16.5 12.85 L16.6 15.2 16.4 18.35 Q16.15 19.4 15.25 19.5 14.55 19.55 14.05 18.75 L13.8 18.3 13.75 18.3 13.65 18.5 14.0 17.55 14.05 17.55 14.05 17.65 14.35 18.1 Q14.7 18.9 15.2 18.85 16.1 18.75 16.15 16.7 L16.15 14.3 16.1 12.05 Q16.15 10.7 16.85 9.8 16.95 9.7 18.1 9.35 L19.45 8.8 19.6 8.3 19.55 7.7 19.45 6.6 19.75 5.45 20.0 5.15 21.0 4.75 M6.9 20.5 L6.8 20.8 6.55 21.8 Q6.1 22.85 5.4 23.15 L4.3 23.3 2.8 23.0 1.35 21.7 Q-0.25 19.8 -0.65 19.85 -1.35 19.9 -2.75 20.7 L-4.2 21.45 Q-5.05 21.55 -5.8 20.15 -6.45 18.95 -6.5 17.95 L-6.85 16.0 -7.3 14.15 -7.7 12.25 -8.25 10.3 -8.7 9.35 -9.3 8.4 -9.55 8.1 -8.75 8.3 -8.1 9.45 -7.45 11.35 -7.05 13.35 -6.55 15.25 -6.2 17.15 Q-5.95 18.7 -5.5 19.65 -4.95 20.9 -4.3 20.8 L-2.95 20.05 Q-1.5 19.25 -1.1 19.2 -0.35 19.15 0.6 20.0 L1.4 20.95 2.4 22.0 Q3.3 22.75 4.25 22.65 5.95 22.5 6.3 21.0 L6.35 20.55 6.9 20.5 M6.5 24.45 Q6.3 24.75 6.35 25.15 L6.55 25.85 Q6.8 26.3 7.3 26.25 7.95 26.2 8.05 25.8 L8.1 25.35 7.8 24.65 7.4 24.45 Q6.8 24.1 6.5 24.45 M7.05 23.55 Q8.3 23.55 8.5 25.35 L8.35 26.25 Q8.1 26.85 7.35 26.9 6.55 27.0 6.2 26.1 L5.9 25.2 Q5.85 24.45 6.2 24.0 6.5 23.55 7.05 23.55" fill="#4bcccc" fill-opacity="0.7019608" fill-rule="evenodd" stroke="none"/>
      <path d="M-8.75 8.3 L-8.95 8.1 -2.55 8.3 -2.45 9.05 -2.25 11.65 Q-1.85 16.8 1.45 19.0 3.45 20.25 6.35 20.4 L6.35 20.55 6.3 21.0 Q5.95 22.5 4.25 22.65 3.3 22.75 2.4 22.0 L1.4 20.95 0.6 20.0 Q-0.35 19.15 -1.1 19.2 -1.5 19.25 -2.95 20.05 L-4.3 20.8 Q-4.95 20.9 -5.5 19.65 -5.95 18.7 -6.2 17.15 L-6.55 15.25 -7.05 13.35 -7.45 11.35 -8.1 9.45 -8.75 8.3 M19.9 5.15 L20.05 5.1 20.0 5.15 19.75 5.45 19.45 6.6 19.55 7.7 19.6 8.3 19.45 8.8 18.1 9.35 Q16.95 9.7 16.85 9.8 16.15 10.7 16.1 12.05 L16.15 14.3 16.15 16.7 Q16.1 18.75 15.2 18.85 14.7 18.9 14.35 18.1 L14.05 17.65 14.05 17.55 14.6 16.35 15.25 14.8 15.4 11.9 15.55 8.75 15.25 7.0 19.2 5.55 19.9 5.15 M6.5 24.45 Q6.8 24.1 7.4 24.45 L7.8 24.65 8.1 25.35 8.05 25.8 Q7.95 26.2 7.3 26.25 6.8 26.3 6.55 25.85 L6.35 25.15 Q6.3 24.75 6.5 24.45" fill="#ffffff" fill-opacity="0.5019608" fill-rule="evenodd" stroke="none"/>
      <path d="M19.2 5.55 L19.5 5.3 19.6 5.25 19.9 5.15 19.2 5.55" fill="#6ccccc" fill-opacity="0.5137255" fill-rule="evenodd" stroke="none"/>
      <path d="M14.65 8.55 L14.7 8.9 14.65 11.1 14.5 13.8 Q13.9 16.95 12.2 18.05 11.05 18.75 8.3 19.0 L6.6 19.05 5.55 19.05 Q2.95 18.9 1.35 17.75 0.45 17.15 -0.3 15.7 L-1.2 13.05 -1.6 10.2 Q-1.95 7.1 -2.65 4.65 -2.9 3.7 -3.3 2.9 L-3.95 1.7 -4.25 1.2 -3.9 1.55 Q-1.0 4.55 -0.95 8.9 -0.9 12.0 0.7 14.2 L0.25 14.6 Q0.25 15.05 0.4 15.35 L0.95 16.25 1.95 17.15 Q2.9 17.85 3.25 17.85 L3.9 18.0 Q4.8 18.0 4.8 17.3 L4.8 17.2 5.5 17.4 Q11.0 19.15 13.1 14.6 14.4 11.75 14.65 8.55" fill="#bf2222" fill-rule="evenodd" stroke="none"/>
      <path d="M10.5 -2.2 L12.15 0.1 Q9.5 1.85 6.85 4.35 1.2 9.65 -0.5 15.3 L-1.2 13.05 -1.6 10.2 -1.85 8.15 -1.8 8.1 Q1.25 6.65 3.9 4.45 L6.9 1.6 7.15 1.45 7.2 1.25 9.2 -0.85 10.5 -2.2" fill="#ffffff" fill-opacity="0.32156864" fill-rule="evenodd" stroke="none"/>
    </g>
    <g id="shape1" transform="matrix(1.0, 0.0, 0.0, 1.0, 52.5, 260.95)">
      <path d="M8.9 -187.45 L0.05 -180.4 -8.15 -194.0 -0.2 -200.35 8.9 -187.45 M-32.9 -234.85 L-37.85 -242.95 -38.4 -230.35 -46.05 -224.25 -43.9 -246.1 -36.5 -252.0 -27.5 -239.1 -32.9 -234.85 M-24.7 -221.2 L-18.4 -226.25 -9.3 -213.3 -16.4 -207.65 -24.7 -221.2 M-50.45 -180.25 L-48.3 -202.25 -39.45 -209.35 -40.5 -188.35 -50.45 -180.25 M-41.7 -164.15 L-45.05 -164.5 -41.5 -167.3 -41.7 -164.15" fill="#ff99ff" fill-rule="evenodd" stroke="none"/>
      <path d="M-8.15 -194.0 L0.05 -180.4 -19.75 -164.65 Q-30.25 -163.05 -41.7 -164.15 L-41.5 -167.3 -8.15 -194.0 M-38.4 -230.35 L-37.85 -242.95 -32.9 -234.85 -38.4 -230.35 M-40.5 -188.35 L-39.45 -209.35 -24.7 -221.2 -16.4 -207.65 -40.5 -188.35" fill="#db83d9" fill-rule="evenodd" stroke="none"/>
      <path d="M0.05 -180.4 L8.9 -187.45 14.9 -178.95 Q9.95 -175.4 4.75 -172.65 L0.05 -180.4 M-0.2 -200.35 L-8.15 -194.0 -16.4 -207.65 -9.3 -213.3 -0.2 -200.35 M-32.9 -234.85 L-27.5 -239.1 -18.4 -226.25 -24.7 -221.2 -32.9 -234.85 M-36.5 -252.0 L-43.9 -246.1 -42.5 -260.45 -36.5 -252.0 M-46.05 -224.25 L-38.4 -230.35 -39.45 -209.35 -48.3 -202.25 -46.05 -224.25 M-50.45 -180.25 L-40.5 -188.35 -41.5 -167.3 -45.05 -164.5 -52.0 -165.65 -50.45 -180.25" fill="#00cc33" fill-rule="evenodd" stroke="none"/>
      <path d="M0.05 -180.4 L4.75 -172.65 Q-6.8 -166.6 -19.75 -164.65 L0.05 -180.4 M-38.4 -230.35 L-32.9 -234.85 -24.7 -221.2 -39.45 -209.35 -38.4 -230.35 M-16.4 -207.65 L-8.15 -194.0 -41.5 -167.3 -40.5 -188.35 -16.4 -207.65" fill="#00a627" fill-rule="evenodd" stroke="none"/>
      <path d="M0.05 -180.4 L8.9 -187.45 -0.2 -200.35 -8.15 -194.0 -41.5 -167.3 -45.05 -164.5 -52.0 -165.65 -50.45 -180.25 -40.5 -188.35 -16.4 -207.65 -9.3 -213.3 -18.4 -226.25 -27.5 -239.1 -36.5 -252.0 -43.9 -246.1 -46.05 -224.25 -38.4 -230.35 -32.9 -234.85 -27.5 -239.1 M4.75 -172.65 Q9.95 -175.4 14.9 -178.95 L8.9 -187.45 M-24.7 -221.2 L-18.4 -226.25 M-48.3 -202.25 L-50.45 -180.25 M-39.45 -209.35 L-48.3 -202.25 -46.05 -224.25 M-24.7 -221.2 L-39.45 -209.35 M-36.5 -252.0 L-42.5 -260.45 -43.9 -246.1 M-19.75 -164.65 Q-30.25 -163.05 -41.7 -164.15 L-45.05 -164.5 M0.05 -180.4 L-19.75 -164.65 Q-6.8 -166.6 4.75 -172.65 M-9.3 -213.3 L-0.2 -200.35" fill="none" stroke="#000000" stroke-linecap="round" stroke-linejoin="round" stroke-opacity="0.6627451" stroke-width="1.0"/>
    </g>
  </defs>
</svg>
