<?xml version="1.0" encoding="UTF-8" standalone="no"?>
<svg xmlns:xlink="http://www.w3.org/1999/xlink" height="531.5px" width="460.6px" xmlns="http://www.w3.org/2000/svg">
  <g transform="matrix(1.0, 0.0, 0.0, 1.0, 193.65, 334.05)">
    <use height="132.95" transform="matrix(1.0, 0.0, 0.0, 1.0, -72.6, -239.4)" width="134.15" xlink:href="#shape0"/>
  </g>
  <defs>
    <g id="shape0" transform="matrix(1.0, 0.0, 0.0, 1.0, 72.6, 239.4)">
      <path d="M8.9 -198.2 Q8.9 -200.75 5.95 -203.6 2.25 -205.75 -1.3 -204.85 -3.0 -202.55 -1.05 -199.35 3.8 -196.9 8.9 -198.2 M19.55 -205.75 Q16.45 -206.15 14.05 -202.55 13.0 -200.1 13.65 -198.2 17.85 -198.2 21.05 -201.0 22.2 -203.7 19.55 -205.75 M17.25 -187.45 L16.2 -190.25 Q15.05 -192.7 14.3 -192.7 L14.3 -192.55 15.55 -189.85 16.45 -187.7 15.7 -186.3 9.3 -185.65 8.4 -186.4 7.9 -189.25 Q7.1 -191.9 6.5 -192.8 L6.25 -192.55 7.65 -187.2 5.45 -185.5 4.7 -185.4 Q-0.05 -184.75 -1.7 -189.85 L-2.35 -193.85 -5.15 -195.1 Q-11.3 -200.65 -8.5 -205.75 -7.85 -207.15 -6.55 -208.45 5.45 -215.35 17.25 -211.0 28.25 -204.1 19.4 -195.25 L21.3 -193.05 Q22.75 -190.25 19.8 -187.7 18.5 -186.8 17.25 -187.45 M-4.9 -205.1 Q-4.0 -207.55 -2.1 -207.55 2.65 -207.55 2.65 -209.2 2.65 -212.05 -1.95 -209.6 -6.55 -207.15 -6.55 -203.85 -6.7 -202.8 -5.9 -202.8 L-4.9 -205.1" fill="#ececd6" fill-rule="evenodd" stroke="none"/>
      <path d="M19.55 -205.75 Q22.2 -203.7 21.05 -201.0 17.85 -198.2 13.65 -198.2 13.0 -200.1 14.05 -202.55 16.45 -206.15 19.55 -205.75 M8.9 -198.2 Q3.8 -196.9 -1.05 -199.35 -3.0 -202.55 -1.3 -204.85 2.25 -205.75 5.95 -203.6 8.9 -200.75 8.9 -198.2 M47.55 -193.85 Q49.05 -190.75 50.1 -187.3 48.45 -184.9 45.1 -189.75 47.65 -190.9 47.55 -193.85 M53.65 -165.4 Q54.3 -159.5 54.55 -152.35 L54.55 -148.75 54.55 -147.75 Q54.7 -143.25 54.3 -138.15 L54.3 -135.45 52.25 -135.45 52.15 -138.15 Q52.15 -140.95 51.75 -144.4 51.35 -146.45 51.1 -148.75 L51.0 -150.3 51.0 -150.55 50.75 -152.35 Q49.2 -160.95 47.0 -165.55 53.3 -165.3 53.65 -165.4 M50.5 -118.3 L49.45 -133.8 51.35 -132.65 52.65 -118.3 50.5 -118.3 M-39.05 -127.1 Q-38.9 -122.25 -39.8 -118.15 -39.8 -118.05 -39.95 -117.9 -40.7 -114.95 -43.25 -113.05 L-46.6 -111.0 -46.6 -112.55 Q-43.25 -113.3 -41.2 -117.65 L-40.45 -126.5 -40.2 -126.5 -39.05 -127.1 M16.45 -187.7 L15.55 -189.85 14.3 -192.55 14.3 -192.7 Q15.05 -192.7 16.2 -190.25 L17.25 -187.45 17.25 -187.2 17.1 -186.3 16.85 -186.05 Q16.6 -186.3 16.6 -187.2 L16.45 -187.7 M7.65 -187.2 L6.25 -192.55 6.5 -192.8 Q7.1 -191.9 7.9 -189.25 L8.4 -186.4 Q8.55 -185.8 7.75 -185.65 L7.5 -185.65 7.5 -185.9 7.65 -186.05 Q7.9 -186.05 7.9 -186.4 L7.65 -187.2 M-58.25 -125.35 L-56.2 -124.7 -54.75 -121.5 Q-53.75 -119.8 -52.75 -119.05 L-51.85 -118.8 -52.75 -118.65 -54.75 -119.2 Q-57.1 -121.0 -58.25 -125.35" fill="#000000" fill-rule="evenodd" stroke="none"/>
      <path d="M-11.55 -217.55 L-11.95 -216.15 Q-10.9 -213.8 -7.6 -213.05 -2.45 -212.3 1.25 -214.1 2.5 -214.95 2.9 -216.0 L2.9 -216.9 Q16.7 -215.5 31.15 -209.7 39.6 -206.25 45.0 -198.6 L45.1 -198.2 Q46.15 -196.4 42.8 -195.1 L37.2 -196.15 Q33.1 -196.55 29.75 -193.35 26.2 -188.6 25.4 -183.45 19.0 -183.85 12.1 -183.45 L7.5 -183.35 -0.7 -182.85 Q-2.85 -187.3 -12.85 -193.05 -18.85 -196.8 -25.25 -197.55 -35.7 -198.05 -38.9 -196.15 -46.2 -193.85 -50.3 -196.8 -50.7 -193.6 -48.5 -190.25 -46.45 -187.2 -39.45 -186.55 -36.35 -185.65 -36.5 -184.6 -43.4 -183.85 -50.05 -181.7 -55.65 -178.1 -56.55 -174.65 -57.2 -171.2 -60.65 -170.15 -63.85 -168.75 -67.45 -170.15 -67.05 -166.55 -64.35 -164.65 -60.4 -161.95 -55.95 -161.85 -55.95 -159.65 -57.85 -158.0 -60.65 -156.95 -61.05 -155.45 -59.25 -154.0 -55.15 -152.75 -49.4 -151.05 -44.15 -151.7 -39.45 -152.6 -37.0 -155.05 L-37.25 -152.6 -37.15 -145.8 -36.6 -138.9 -36.6 -136.1 Q-36.85 -134.7 -37.5 -133.4 L-38.4 -132.1 Q-39.7 -130.6 -41.6 -129.55 L-42.75 -129.05 Q-49.3 -126.35 -57.45 -128.15 L-58.1 -128.3 Q-59.65 -128.8 -60.9 -129.55 -62.7 -130.6 -64.35 -132.1 L-65.25 -133.0 -65.65 -133.4 -67.3 -135.2 Q-71.15 -140.05 -71.15 -143.9 L-71.9 -173.75 Q-71.65 -193.85 -49.15 -208.2 L-45.7 -209.85 -36.1 -212.8 -29.05 -214.6 Q-24.35 -215.75 -18.85 -216.5 L-13.45 -217.4 -11.55 -217.55 M-35.45 -212.15 L-36.1 -212.8 -35.45 -212.15 M17.25 -187.45 Q18.5 -186.8 19.8 -187.7 22.75 -190.25 21.3 -193.05 L19.4 -195.25 Q28.25 -204.1 17.25 -211.0 5.45 -215.35 -6.55 -208.45 -7.85 -207.15 -8.5 -205.75 -11.3 -200.65 -5.15 -195.1 L-2.35 -193.85 -1.7 -189.85 Q-0.05 -184.75 4.7 -185.4 L5.45 -185.5 7.65 -187.2 7.9 -186.4 Q7.9 -186.05 7.65 -186.05 L7.5 -185.9 7.5 -185.65 7.75 -185.65 Q8.55 -185.8 8.4 -186.4 L9.3 -185.65 15.7 -186.3 16.45 -187.7 16.6 -187.2 Q16.6 -186.3 16.85 -186.05 L17.1 -186.3 17.25 -187.2 17.25 -187.45" fill="url(#gradient0)" fill-rule="evenodd" stroke="none"/>
      <path d="M2.9 -216.9 L2.9 -216.0 Q2.5 -214.95 1.25 -214.1 -2.45 -212.3 -7.6 -213.05 -10.9 -213.8 -11.95 -216.15 L-11.55 -217.55 -10.8 -219.85 Q-9.9 -219.05 -8.6 -218.55 -6.3 -217.55 -3.25 -217.55 -0.8 -217.55 2.15 -219.7 L2.9 -216.9" fill="#353535" fill-rule="evenodd" stroke="none"/>
      <path d="M45.1 -198.2 L47.55 -193.85 Q47.65 -190.9 45.1 -189.75 48.45 -184.9 50.1 -187.3 L51.65 -181.55 Q49.45 -180.25 45.25 -182.85 L42.7 -186.05 Q40.25 -188.35 37.95 -187.05 L35.65 -182.45 25.4 -183.45 Q26.2 -188.6 29.75 -193.35 33.1 -196.55 37.2 -196.15 L42.8 -195.1 Q46.15 -196.4 45.1 -198.2" fill="url(#gradient1)" fill-rule="evenodd" stroke="none"/>
      <path d="M51.65 -181.55 Q51.75 -180.0 52.15 -178.35 44.35 -181.3 35.65 -182.45 L37.95 -187.05 Q40.25 -188.35 42.7 -186.05 L45.25 -182.85 Q49.45 -180.25 51.65 -181.55" fill="url(#gradient2)" fill-rule="evenodd" stroke="none"/>
      <path d="M58.3 -173.25 Q63.8 -167.6 58.3 -165.4 L53.65 -165.4 Q53.3 -165.3 47.0 -165.55 L42.4 -165.95 33.6 -166.45 29.75 -166.55 Q23.25 -166.95 14.3 -166.45 L5.95 -166.2 -1.7 -165.55 -31.75 -162.7 Q-33.05 -162.7 -34.55 -164.4 -35.2 -165.05 -35.85 -167.7 -37.25 -171.55 -35.6 -174.1 -32.15 -171.3 -27.55 -171.05 -18.95 -168.85 -14.1 -168.85 -8.85 -168.85 -5.55 -169.0 L2.9 -169.0 11.45 -169.25 21.7 -169.65 21.7 -169.4 22.1 -169.65 25.55 -169.75 Q61.5 -167.7 58.3 -173.25" fill="#202020" fill-rule="evenodd" stroke="none"/>
      <path d="M54.3 -135.45 Q55.7 -134.15 54.05 -132.35 L53.4 -132.35 51.35 -132.65 49.45 -133.8 48.8 -138.15 48.45 -141.1 51.75 -144.4 Q52.15 -140.95 52.15 -138.15 L52.25 -135.45 54.3 -135.45 M54.55 -118.65 L53.8 -116.5 51.35 -115.2 50.5 -118.3 52.65 -118.3 54.55 -118.65 M47.8 -146.1 L47.3 -148.75 46.75 -152.35 Q44.7 -163.5 42.4 -165.95 L47.0 -165.55 Q49.2 -160.95 50.75 -152.35 L51.0 -150.55 49.05 -147.75 47.8 -146.1 M-31.75 -162.7 Q-34.95 -155.45 -33.65 -143.0 -35.7 -144.3 -37.15 -145.8 L-37.25 -152.6 -37.0 -155.05 -36.75 -158.65 Q-36.35 -160.8 -34.55 -164.4 -33.05 -162.7 -31.75 -162.7 M-33.55 -133.0 L-33.95 -132.1 -34.45 -131.2 -34.45 -131.1 -35.6 -129.7 -35.7 -129.55 Q-37.0 -128.3 -38.9 -127.1 L-39.05 -127.1 -40.2 -126.5 -40.45 -126.5 Q-41.2 -126.1 -42.0 -125.85 L-42.25 -125.7 -44.95 -124.95 -48.65 -124.3 -49.0 -124.2 -50.8 -124.2 -53.6 -124.45 -55.8 -124.55 -56.2 -124.7 -58.25 -125.35 Q-59.25 -125.45 -60.25 -125.85 L-57.45 -128.15 Q-49.3 -126.35 -42.75 -129.05 L-41.6 -129.55 Q-39.7 -130.6 -38.4 -132.1 L-37.5 -133.4 Q-36.85 -134.7 -36.6 -136.1 L-33.55 -133.0 M-46.6 -111.0 Q-46.45 -109.85 -48.1 -109.95 L-48.25 -107.4 Q-50.95 -106.25 -54.9 -108.05 L-57.2 -111.25 -58.25 -111.75 -59.25 -113.7 -46.6 -112.55 -46.6 -111.0 M-68.7 -131.6 L-69.1 -132.1 -69.85 -133.4 Q-70.75 -134.7 -71.25 -136.35 -72.95 -140.55 -71.15 -143.9 -71.15 -140.05 -67.3 -135.2 L-65.65 -133.4 -65.25 -133.0 Q-67.05 -132.0 -68.7 -131.6 M-48.1 -109.95 Q-52.35 -110.2 -57.2 -111.25 -52.35 -110.2 -48.1 -109.95" fill="#666666" fill-rule="evenodd" stroke="none"/>
      <path d="M48.45 -141.1 L47.8 -146.1 49.05 -147.75 51.0 -150.55 51.0 -150.3 51.1 -148.75 Q51.35 -146.45 51.75 -144.4 L48.45 -141.1 M-33.65 -143.0 L-33.05 -137.75 Q-32.8 -135.3 -33.4 -133.4 L-33.55 -133.0 -36.6 -136.1 -36.6 -138.9 -37.15 -145.8 Q-35.7 -144.3 -33.65 -143.0 M-68.05 -130.85 L-68.45 -131.35 -68.7 -131.6 Q-67.05 -132.0 -65.25 -133.0 L-64.35 -132.1 Q-62.7 -130.6 -60.9 -129.55 -59.65 -128.8 -58.1 -128.3 L-57.45 -128.15 -60.25 -125.85 Q-64.25 -127.1 -66.8 -129.55 L-67.55 -130.35 -68.05 -130.85" fill="#8e8e8e" fill-rule="evenodd" stroke="none"/>
      <path d="M52.15 -178.35 Q56.0 -175.55 58.3 -173.25 61.5 -167.7 25.55 -169.75 21.95 -174.4 16.6 -178.1 11.1 -181.8 7.5 -183.35 L12.1 -183.45 Q19.0 -183.85 25.4 -183.45 L35.65 -182.45 Q44.35 -181.3 52.15 -178.35 M11.45 -169.25 L2.9 -169.0 -2.6 -175.25 -9.5 -181.4 -4.15 -182.2 -2.7 -182.3 Q1.25 -180.0 5.45 -176.45 9.55 -172.7 11.45 -169.25 M-5.55 -169.0 Q-8.85 -168.85 -14.1 -168.85 -18.95 -168.85 -27.55 -171.05 -32.15 -171.3 -35.6 -174.1 -33.65 -176.95 -28.05 -178.1 L-15.15 -180.5 -9.35 -174.65 Q-6.7 -171.95 -5.55 -169.0 M22.1 -169.65 L21.7 -169.4 21.7 -169.65 22.1 -169.65" fill="#333333" fill-rule="evenodd" stroke="none"/>
      <path d="M7.5 -183.35 Q11.1 -181.8 16.6 -178.1 21.95 -174.4 25.55 -169.75 L22.1 -169.65 21.7 -169.65 11.45 -169.25 Q9.55 -172.7 5.45 -176.45 1.25 -180.0 -2.7 -182.3 -1.7 -182.45 -0.7 -182.85 L7.5 -183.35 M2.9 -169.0 L-5.55 -169.0 Q-6.7 -171.95 -9.35 -174.65 L-15.15 -180.5 -11.15 -181.15 -9.5 -181.4 -2.6 -175.25 2.9 -169.0" fill="#414141" fill-rule="evenodd" stroke="none"/>
      <path d="M-4.0 -162.2 L-4.25 -161.85 -4.4 -159.8 -2.85 -161.45 -2.45 -161.45 -2.35 -158.65 -2.35 -158.5 Q-1.95 -158.5 -0.05 -160.15 0.45 -159.65 0.45 -157.6 1.6 -159.25 2.4 -159.5 L2.5 -156.2 4.45 -158.5 4.55 -158.5 4.55 -155.7 4.55 -155.55 5.45 -156.45 6.1 -157.45 6.35 -157.45 6.6 -155.3 Q7.0 -155.3 7.65 -155.8 L8.4 -156.7 8.9 -155.3 Q9.3 -155.15 10.05 -156.2 10.95 -157.45 11.6 -157.2 L12.1 -158.35 16.95 -159.0 17.1 -159.0 18.0 -159.65 18.5 -158.35 Q18.9 -157.45 19.65 -157.45 L21.85 -158.65 Q22.35 -158.65 23.1 -158.0 L24.0 -158.65 Q24.9 -159.4 25.3 -159.4 26.05 -159.4 26.8 -158.65 L26.95 -158.65 27.05 -160.05 27.35 -160.15 27.7 -159.8 Q27.95 -159.5 28.35 -159.5 L30.25 -161.05 Q30.65 -160.8 31.05 -160.7 34.0 -159.15 35.9 -156.85 37.55 -154.9 38.35 -152.5 L38.7 -151.35 39.1 -149.9 39.2 -148.15 36.15 -151.05 36.15 -150.8 36.9 -149.55 36.9 -147.85 36.15 -147.85 Q35.65 -149.0 32.45 -151.7 L32.85 -150.3 33.2 -148.75 33.2 -147.75 32.95 -147.75 31.55 -148.75 Q30.4 -149.8 30.0 -149.8 L30.0 -148.65 30.55 -147.25 30.55 -145.3 30.0 -145.3 Q28.6 -146.1 26.2 -149.8 L26.2 -149.55 26.55 -148.0 Q26.95 -146.6 26.95 -145.2 L26.95 -144.8 25.05 -144.8 23.9 -146.1 Q21.55 -148.65 21.05 -150.8 L20.3 -150.05 Q19.65 -150.05 19.0 -151.45 L18.0 -153.65 17.75 -153.1 16.7 -153.1 Q16.35 -154.55 16.35 -155.05 L16.1 -155.05 15.2 -153.25 Q14.65 -152.2 13.9 -152.2 12.35 -152.85 12.6 -154.65 L12.0 -154.65 11.1 -152.6 Q10.2 -150.7 9.45 -150.05 9.15 -150.8 9.15 -152.2 L8.8 -152.2 Q7.9 -152.1 5.95 -149.4 L3.65 -146.35 2.5 -144.55 1.75 -144.55 1.75 -146.1 1.9 -148.15 1.75 -147.85 Q1.5 -146.85 0.6 -146.45 L0.6 -147.75 0.85 -151.45 0.6 -151.45 -0.7 -149.0 -0.8 -152.5 -1.05 -152.5 -1.2 -151.7 -1.7 -150.8 -2.1 -151.95 Q-3.35 -150.95 -6.2 -146.1 L-6.7 -146.45 -6.7 -148.75 -6.95 -148.65 Q-6.95 -147.75 -7.85 -146.7 -8.6 -145.8 -9.25 -145.8 -9.65 -145.8 -9.5 -146.1 L-9.5 -149.55 -9.65 -149.55 Q-9.65 -148.75 -10.25 -148.0 -10.9 -147.25 -11.7 -146.85 L-11.7 -147.85 Q-11.55 -149.3 -11.55 -151.7 -13.35 -148.65 -13.85 -148.15 L-13.85 -148.4 Q-13.7 -149.3 -13.7 -152.2 L-14.6 -150.45 Q-15.25 -149.0 -16.4 -148.65 L-16.0 -150.7 Q-15.5 -152.2 -15.5 -152.6 L-15.5 -153.75 Q-16.65 -153.75 -18.85 -151.35 L-20.5 -149.4 Q-20.1 -152.35 -18.05 -154.8 L-17.2 -155.8 -16.0 -156.95 -15.25 -157.6 Q-12.55 -159.9 -8.5 -161.85 L-5.4 -162.2 -4.0 -162.2 M24.75 -144.8 L23.35 -144.8 23.0 -146.45 24.65 -144.9 24.75 -144.8 M3.4 -144.55 L3.15 -144.55 3.4 -145.2 3.4 -144.55 M19.8 -133.8 L19.8 -133.4 Q19.8 -131.6 19.0 -129.15 L18.25 -126.75 17.75 -127.75 17.35 -129.05 17.25 -129.05 Q17.1 -128.15 16.45 -127.75 16.1 -127.9 15.7 -129.3 L14.8 -131.2 Q14.3 -128.15 12.9 -127.5 12.5 -127.9 12.1 -129.45 L11.85 -131.6 11.6 -131.6 10.85 -129.55 Q10.45 -128.4 10.05 -128.4 L9.95 -128.4 Q9.7 -129.05 9.7 -130.45 9.7 -132.5 10.45 -134.3 L10.6 -134.55 Q14.8 -136.75 19.8 -133.8" fill="#383838" fill-rule="evenodd" stroke="none"/>
      <path d="M12.1 -158.35 L11.6 -157.2 Q10.95 -157.45 10.05 -156.2 9.3 -155.15 8.9 -155.3 L8.4 -156.7 7.65 -155.8 Q7.0 -155.3 6.6 -155.3 L6.35 -157.45 6.1 -157.45 5.45 -156.45 4.55 -155.55 4.55 -155.7 4.55 -158.5 4.45 -158.5 2.5 -156.2 2.4 -159.5 Q1.6 -159.25 0.45 -157.6 0.45 -159.65 -0.05 -160.15 -1.95 -158.5 -2.35 -158.5 L-2.35 -158.65 -2.45 -161.45 -2.85 -161.45 -4.4 -159.8 -4.25 -161.85 -4.0 -162.2 2.25 -161.7 Q5.6 -161.05 8.65 -159.8 L10.6 -158.9 11.1 -158.75 11.1 -158.65 11.6 -158.35 12.1 -158.35 M-20.5 -149.4 L-18.85 -151.35 Q-16.65 -153.75 -15.5 -153.75 L-15.5 -152.6 Q-15.5 -152.2 -16.0 -150.7 L-16.4 -148.65 Q-15.25 -149.0 -14.6 -150.45 L-13.7 -152.2 Q-13.7 -149.3 -13.85 -148.4 L-13.85 -148.15 Q-13.35 -148.65 -11.55 -151.7 -11.55 -149.3 -11.7 -147.85 L-11.7 -146.85 Q-10.9 -147.25 -10.25 -148.0 -9.65 -148.75 -9.65 -149.55 L-9.5 -149.55 -9.5 -146.1 Q-9.65 -145.8 -9.25 -145.8 -8.6 -145.8 -7.85 -146.7 -6.95 -147.75 -6.95 -148.65 L-6.7 -148.75 -6.7 -146.45 -6.2 -146.1 Q-3.35 -150.95 -2.1 -151.95 L-1.7 -150.8 -1.2 -151.7 -1.05 -152.5 -0.8 -152.5 -0.7 -149.0 0.6 -151.45 0.85 -151.45 0.6 -147.75 0.6 -146.45 Q1.5 -146.85 1.75 -147.85 L1.9 -148.15 1.75 -146.1 1.75 -144.55 -0.7 -144.55 Q-8.75 -138.9 -10.25 -132.75 L-6.05 -126.6 -1.85 -124.05 -0.4 -114.7 -10.15 -119.05 -15.75 -127.1 -16.9 -124.2 Q-18.6 -130.7 -18.95 -134.15 -21.0 -134.3 -21.0 -134.8 -21.25 -139.8 -20.9 -145.95 L-20.65 -148.5 -20.5 -149.4 M2.5 -144.55 L3.65 -146.35 5.95 -149.4 Q7.9 -152.1 8.8 -152.2 L9.15 -152.2 Q9.15 -150.8 9.45 -150.05 10.2 -150.7 11.1 -152.6 L12.0 -154.65 12.6 -154.65 Q12.35 -152.85 13.9 -152.2 14.65 -152.2 15.2 -153.25 L16.1 -155.05 16.35 -155.05 Q16.35 -154.55 16.7 -153.1 L17.75 -153.1 18.0 -153.65 19.0 -151.45 Q19.65 -150.05 20.3 -150.05 L21.05 -150.8 Q21.55 -148.65 23.9 -146.1 L25.05 -144.8 24.75 -144.8 24.65 -144.9 23.0 -146.45 23.35 -144.8 17.25 -144.8 15.3 -145.8 13.15 -144.65 3.4 -144.55 3.4 -145.2 3.15 -144.55 2.5 -144.55 M26.95 -144.8 L26.95 -145.2 Q26.95 -146.6 26.55 -148.0 L26.2 -149.55 26.2 -149.8 Q28.6 -146.1 30.0 -145.3 L30.55 -145.3 30.55 -147.25 30.0 -148.65 30.0 -149.8 Q30.4 -149.8 31.55 -148.75 L32.95 -147.75 33.2 -147.75 33.2 -148.75 32.85 -150.3 32.45 -151.7 Q35.65 -149.0 36.15 -147.85 L36.9 -147.85 36.9 -149.55 36.15 -150.8 36.15 -151.05 39.2 -148.15 39.1 -149.9 39.2 -149.8 40.35 -145.55 Q41.15 -142.0 41.55 -138.15 L40.65 -137.0 40.9 -134.55 41.55 -127.9 39.75 -129.8 Q37.95 -119.3 32.45 -114.45 L31.05 -121.6 36.05 -131.2 Q35.25 -137.5 29.0 -144.8 L26.95 -144.8 M30.25 -161.05 L28.35 -159.5 Q27.95 -159.5 27.7 -159.8 L27.35 -160.15 27.05 -160.05 26.95 -158.65 26.8 -158.65 Q26.05 -159.4 25.3 -159.4 24.9 -159.4 24.0 -158.65 L23.1 -158.0 Q22.35 -158.65 21.85 -158.65 L19.65 -157.45 Q18.9 -157.45 18.5 -158.35 L18.0 -159.65 18.25 -160.05 18.4 -160.05 20.8 -161.55 Q21.2 -161.85 21.55 -161.95 25.55 -163.6 29.25 -161.45 L30.25 -161.05 M10.6 -134.55 L10.45 -134.3 Q9.7 -132.5 9.7 -130.45 9.7 -129.05 9.95 -128.4 L10.05 -128.4 Q10.45 -128.4 10.85 -129.55 L11.6 -131.6 11.85 -131.6 12.1 -129.45 Q12.5 -127.9 12.9 -127.5 14.3 -128.15 14.8 -131.2 L15.7 -129.3 Q16.1 -127.9 16.45 -127.75 17.1 -128.15 17.25 -129.05 L17.35 -129.05 17.75 -127.75 18.25 -126.75 19.0 -129.15 Q19.8 -131.6 19.8 -133.4 L19.8 -133.8 21.05 -133.0 Q23.6 -125.45 21.3 -116.1 L18.9 -119.8 15.95 -111.25 11.6 -119.05 9.8 -116.6 Q5.6 -125.45 8.9 -133.55 L10.6 -134.55" fill="#252525" fill-rule="evenodd" stroke="none"/>
      <path d="M53.4 -132.35 L54.95 -126.6 54.55 -118.65 52.65 -118.3 51.35 -132.65 53.4 -132.35 M-59.25 -113.7 L-62.2 -115.2 Q-64.1 -116.1 -66.65 -120.2 L-68.05 -130.85 -67.55 -130.35 -66.8 -129.55 Q-64.25 -127.1 -60.25 -125.85 -59.25 -125.45 -58.25 -125.35 -57.1 -121.0 -54.75 -119.2 L-52.75 -118.65 -51.85 -118.8 -51.2 -119.05 Q-49.65 -120.35 -49.0 -124.2 L-48.65 -124.3 -44.95 -124.95 -42.25 -125.7 -42.0 -125.85 Q-41.2 -126.1 -40.45 -126.5 L-41.2 -117.65 Q-43.25 -113.3 -46.6 -112.55 L-59.25 -113.7 M-43.4 -117.8 L-42.75 -120.35 -43.4 -117.8 M-44.8 -115.85 L-46.1 -114.3 -44.8 -115.85 M-42.35 -123.65 L-42.25 -125.7 -42.35 -123.65" fill="url(#gradient3)" fill-rule="evenodd" stroke="none"/>
      <path d="M-45.7 -209.85 Q-47.35 -214.7 -47.75 -220.75 -42.0 -218.45 -36.1 -212.8 L-45.7 -209.85" fill="url(#gradient4)" fill-rule="evenodd" stroke="none"/>
      <path d="M-18.85 -216.5 Q-24.35 -215.75 -29.05 -214.6 L-29.3 -217.15 Q-26.25 -217.55 -22.95 -219.05 L-21.0 -220.1 -18.85 -216.5" fill="#515151" fill-rule="evenodd" stroke="none"/>
      <path d="M-21.0 -220.1 L-22.95 -219.05 Q-26.25 -217.55 -29.3 -217.15 -30.1 -224.7 -29.05 -232.4 -24.6 -226.25 -21.0 -220.1" fill="url(#gradient5)" fill-rule="evenodd" stroke="none"/>
      <path d="M2.15 -219.7 Q-0.8 -217.55 -3.25 -217.55 -6.3 -217.55 -8.6 -218.55 -9.9 -219.05 -10.8 -219.85 -7.7 -229.2 -3.75 -238.9 -0.4 -229.2 2.15 -219.7" fill="url(#gradient6)" fill-rule="evenodd" stroke="none"/>
      <path d="M-4.9 -205.1 L-5.9 -202.8 Q-6.7 -202.8 -6.55 -203.85 -6.55 -207.15 -1.95 -209.6 2.65 -212.05 2.65 -209.2 2.65 -207.55 -2.1 -207.55 -4.0 -207.55 -4.9 -205.1" fill="#ffffff" fill-rule="evenodd" stroke="none"/>
      <path d="M-35.6 -174.1 Q-37.25 -171.55 -35.85 -167.7 -35.2 -165.05 -34.55 -164.4 -36.35 -160.8 -36.75 -158.65 -39.05 -157.75 -44.05 -157.45 -48.75 -156.85 -50.05 -159.65 -46.6 -163.1 -45.3 -166.2 -51.6 -165.15 -55.55 -169.25 -52.45 -168.85 -49.9 -171.8 -45.8 -177.3 -37.65 -179.0 -30.1 -180.25 -26.75 -183.2 -25.35 -184.6 -27.3 -186.8 L-31.5 -189.0 Q-27.65 -189.6 -24.35 -189.1 -21.15 -188.85 -16.9 -186.8 -12.55 -184.9 -11.15 -181.15 L-15.15 -180.5 -28.05 -178.1 Q-33.65 -176.95 -35.6 -174.1" fill="url(#gradient7)" fill-rule="evenodd" stroke="none"/>
      <path d="M-2.7 -182.3 L-4.15 -182.2 -9.5 -181.4 -11.15 -181.15 Q-12.55 -184.9 -16.9 -186.8 -21.15 -188.85 -24.35 -189.1 -27.65 -189.6 -31.5 -189.0 L-27.3 -186.8 Q-25.35 -184.6 -26.75 -183.2 -30.1 -180.25 -37.65 -179.0 -45.8 -177.3 -49.9 -171.8 -52.45 -168.85 -55.55 -169.25 -51.6 -165.15 -45.3 -166.2 -46.6 -163.1 -50.05 -159.65 -48.75 -156.85 -44.05 -157.45 -39.05 -157.75 -36.75 -158.65 L-37.0 -155.05 Q-39.45 -152.6 -44.15 -151.7 -49.4 -151.05 -55.15 -152.75 -59.25 -154.0 -61.05 -155.45 -60.65 -156.95 -57.85 -158.0 -55.95 -159.65 -55.95 -161.85 -60.4 -161.95 -64.35 -164.65 -67.05 -166.55 -67.45 -170.15 -63.85 -168.75 -60.65 -170.15 -57.2 -171.2 -56.55 -174.65 -55.65 -178.1 -50.05 -181.7 -43.4 -183.85 -36.5 -184.6 -36.35 -185.65 -39.45 -186.55 -46.45 -187.2 -48.5 -190.25 -50.7 -193.6 -50.3 -196.8 -46.2 -193.85 -38.9 -196.15 -35.7 -198.05 -25.25 -197.55 -18.85 -196.8 -12.85 -193.05 -2.85 -187.3 -0.7 -182.85 -1.7 -182.45 -2.7 -182.3" fill="url(#gradient8)" fill-rule="evenodd" stroke="none"/>
      <path d="M2.9 -216.9 L2.9 -216.0 Q2.5 -214.95 1.25 -214.1 -2.45 -212.3 -7.6 -213.05 -10.9 -213.8 -11.95 -216.15 L-11.55 -217.55 -13.45 -217.4 -18.85 -216.5 Q-24.35 -215.75 -29.05 -214.6 L-36.1 -212.8 -35.45 -212.15 M2.15 -219.7 L2.9 -216.9 Q16.7 -215.5 31.15 -209.7 39.6 -206.25 45.0 -198.6 L45.1 -198.2 47.55 -193.85 Q49.05 -190.75 50.1 -187.3 L51.65 -181.55 Q51.75 -180.0 52.15 -178.35 56.0 -175.55 58.3 -173.25 63.8 -167.6 58.3 -165.4 L53.65 -165.4 Q54.3 -159.5 54.55 -152.35 L54.55 -148.75 54.55 -147.75 Q54.7 -143.25 54.3 -138.15 L54.3 -135.45 Q55.7 -134.15 54.05 -132.35 L53.4 -132.35 54.95 -126.6 54.55 -118.65 53.8 -116.5 51.35 -115.2 50.5 -118.3 49.45 -133.8 48.8 -138.15 48.45 -141.1 47.8 -146.1 47.3 -148.75 46.75 -152.35 Q44.7 -163.5 42.4 -165.95 L33.6 -166.45 29.75 -166.55 Q23.25 -166.95 14.3 -166.45 L5.95 -166.2 -1.7 -165.55 -31.75 -162.7 Q-34.95 -155.45 -33.65 -143.0 L-33.05 -137.75 Q-32.8 -135.3 -33.4 -133.4 L-33.55 -133.0 -33.95 -132.1 -34.45 -131.2 -34.45 -131.1 -35.6 -129.7 -35.7 -129.55 Q-37.0 -128.3 -38.9 -127.1 L-39.05 -127.1 Q-38.9 -122.25 -39.8 -118.15 -39.8 -118.05 -39.95 -117.9 -40.7 -114.95 -43.25 -113.05 L-46.6 -111.0 Q-46.45 -109.85 -48.1 -109.95 L-48.25 -107.4 Q-50.95 -106.25 -54.9 -108.05 L-57.2 -111.25 -58.25 -111.75 -59.25 -113.7 -62.2 -115.2 Q-64.1 -116.1 -66.65 -120.2 L-68.05 -130.85 -68.45 -131.35 -68.7 -131.6 -69.1 -132.1 -69.85 -133.4 Q-70.75 -134.7 -71.25 -136.35 -72.95 -140.55 -71.15 -143.9 L-71.9 -173.75 Q-71.65 -193.85 -49.15 -208.2 L-45.7 -209.85 Q-47.35 -214.7 -47.75 -220.75 -42.0 -218.45 -36.1 -212.8 L-45.7 -209.85 M50.1 -187.3 Q48.45 -184.9 45.1 -189.75 47.65 -190.9 47.55 -193.85 M47.0 -165.55 L42.4 -165.95 M51.75 -144.4 Q51.35 -146.45 51.1 -148.75 L51.0 -150.3 51.0 -150.55 50.75 -152.35 Q49.2 -160.95 47.0 -165.55 53.3 -165.3 53.65 -165.4 M45.1 -198.2 Q46.15 -196.4 42.8 -195.1 L37.2 -196.15 Q33.1 -196.55 29.75 -193.35 26.2 -188.6 25.4 -183.45 L35.65 -182.45 Q44.35 -181.3 52.15 -178.35 M25.4 -183.45 Q19.0 -183.85 12.1 -183.45 L7.5 -183.35 -0.7 -182.85 Q-2.85 -187.3 -12.85 -193.05 -18.85 -196.8 -25.25 -197.55 -35.7 -198.05 -38.9 -196.15 -46.2 -193.85 -50.3 -196.8 -50.7 -193.6 -48.5 -190.25 -46.45 -187.2 -39.45 -186.55 -36.35 -185.65 -36.5 -184.6 -43.4 -183.85 -50.05 -181.7 -55.65 -178.1 -56.55 -174.65 -57.2 -171.2 -60.65 -170.15 -63.85 -168.75 -67.45 -170.15 -67.05 -166.55 -64.35 -164.65 -60.4 -161.95 -55.95 -161.85 -55.95 -159.65 -57.85 -158.0 -60.65 -156.95 -61.05 -155.45 -59.25 -154.0 -55.15 -152.75 -49.4 -151.05 -44.15 -151.7 -39.45 -152.6 -37.0 -155.05 L-36.75 -158.65 Q-36.35 -160.8 -34.55 -164.4 -33.05 -162.7 -31.75 -162.7 M-4.0 -162.2 L-5.4 -162.2 -8.5 -161.85 Q-12.55 -159.9 -15.25 -157.6 L-16.0 -156.95 -17.2 -155.8 -18.05 -154.8 Q-20.1 -152.35 -20.5 -149.4 L-20.65 -148.5 -20.9 -145.95 Q-21.25 -139.8 -21.0 -134.8 -21.0 -134.3 -18.95 -134.15 -18.6 -130.7 -16.9 -124.2 L-15.75 -127.1 -10.15 -119.05 -0.4 -114.7 -1.85 -124.05 -6.05 -126.6 -10.25 -132.75 Q-8.75 -138.9 -0.7 -144.55 L1.75 -144.55 2.5 -144.55 3.15 -144.55 3.4 -144.55 13.15 -144.65 15.3 -145.8 17.25 -144.8 23.35 -144.8 24.75 -144.8 25.05 -144.8 26.95 -144.8 29.0 -144.8 Q35.25 -137.5 36.05 -131.2 L31.05 -121.6 32.45 -114.45 Q37.95 -119.3 39.75 -129.8 L41.55 -127.9 40.9 -134.55 40.65 -137.0 41.55 -138.15 Q41.15 -142.0 40.35 -145.55 L39.2 -149.8 39.1 -149.9 38.7 -151.35 38.35 -152.5 Q37.55 -154.9 35.9 -156.85 34.0 -159.15 31.05 -160.7 30.65 -160.8 30.25 -161.05 L29.25 -161.45 Q25.55 -163.6 21.55 -161.95 21.2 -161.85 20.8 -161.55 L18.4 -160.05 18.25 -160.05 18.0 -159.65 17.1 -159.0 16.95 -159.0 12.1 -158.35 11.6 -158.35 11.1 -158.65 11.1 -158.75 10.6 -158.9 8.65 -159.8 Q5.6 -161.05 2.25 -161.7 L-4.0 -162.2 M-35.6 -174.1 Q-37.25 -171.55 -35.85 -167.7 -35.2 -165.05 -34.55 -164.4 M-2.7 -182.3 L-4.15 -182.2 -9.5 -181.4 -11.15 -181.15 -15.15 -180.5 -28.05 -178.1 Q-33.65 -176.95 -35.6 -174.1 M19.8 -133.8 Q14.8 -136.75 10.6 -134.55 L8.9 -133.55 Q5.6 -125.45 9.8 -116.6 L11.6 -119.05 15.95 -111.25 18.9 -119.8 21.3 -116.1 Q23.6 -125.45 21.05 -133.0 L19.8 -133.8 M54.3 -135.45 L52.25 -135.45 52.15 -138.15 Q52.15 -140.95 51.75 -144.4 M51.35 -132.65 L53.4 -132.35 M51.35 -132.65 L49.45 -133.8 M54.55 -118.65 L52.65 -118.3 50.5 -118.3 M52.65 -118.3 L51.35 -132.65 M-29.3 -217.15 L-29.05 -214.6 M-29.3 -217.15 Q-30.1 -224.7 -29.05 -232.4 -24.6 -226.25 -21.0 -220.1 L-18.85 -216.5 M-10.8 -219.85 L-11.55 -217.55 M-10.8 -219.85 Q-7.7 -229.2 -3.75 -238.9 -0.4 -229.2 2.15 -219.7 M-2.7 -182.3 Q-1.7 -182.45 -0.7 -182.85 M-37.15 -145.8 L-37.25 -152.6 -37.0 -155.05 M-56.2 -124.7 L-55.8 -124.55 -53.6 -124.45 -50.8 -124.2 -49.0 -124.2 -48.65 -124.3 -44.95 -124.95 -42.25 -125.7 -42.0 -125.85 Q-41.2 -126.1 -40.45 -126.5 L-40.2 -126.5 -39.05 -127.1 M-58.25 -125.35 L-56.2 -124.7 -54.75 -121.5 Q-53.75 -119.8 -52.75 -119.05 L-51.85 -118.8 -51.2 -119.05 Q-49.65 -120.35 -49.0 -124.2 M-65.25 -133.0 L-64.35 -132.1 Q-62.7 -130.6 -60.9 -129.55 -59.65 -128.8 -58.1 -128.3 L-57.45 -128.15 Q-49.3 -126.35 -42.75 -129.05 L-41.6 -129.55 Q-39.7 -130.6 -38.4 -132.1 L-37.5 -133.4 Q-36.85 -134.7 -36.6 -136.1 L-36.6 -138.9 -37.15 -145.8 M-60.25 -125.85 Q-59.25 -125.45 -58.25 -125.35 -57.1 -121.0 -54.75 -119.2 L-52.75 -118.65 -51.85 -118.8 M-60.25 -125.85 Q-64.25 -127.1 -66.8 -129.55 L-67.55 -130.35 -68.05 -130.85 M-65.25 -133.0 L-65.65 -133.4 -67.3 -135.2 Q-71.15 -140.05 -71.15 -143.9 M-42.75 -120.35 L-43.4 -117.8 M-46.6 -112.55 Q-43.25 -113.3 -41.2 -117.65 L-40.45 -126.5 M-46.1 -114.3 L-44.8 -115.85 M-59.25 -113.7 L-46.6 -112.55 -46.6 -111.0 M-57.2 -111.25 Q-52.35 -110.2 -48.1 -109.95 M-42.25 -125.7 L-42.35 -123.65" fill="none" stroke="#000000" stroke-linecap="round" stroke-linejoin="round" stroke-opacity="0.4" stroke-width="1.0"/>
      <path d="M-28.95 -205.5 Q-25.6 -200.9 -29.85 -197.3 -34.05 -193.85 -38.9 -191.05 -43.9 -188.2 -46.95 -179.5 -50.15 -170.8 -58.25 -167.1 -66.3 -163.35 -65.0 -176.95 -63.75 -190.65 -55.8 -197.8 -48.0 -205.1 -40.2 -207.65 -32.25 -210.35 -28.95 -205.5" fill="url(#gradient9)" fill-rule="evenodd" stroke="none"/>
    </g>
    <radialGradient cx="0" cy="0" gradientTransform="matrix(0.0473, 0.0, 0.0, 0.0472, -39.45, -194.75)" gradientUnits="userSpaceOnUse" id="gradient0" r="819.2" spreadMethod="pad">
      <stop offset="0.0" stop-color="#727272"/>
      <stop offset="1.0" stop-color="#000000"/>
    </radialGradient>
    <radialGradient cx="0" cy="0" gradientTransform="matrix(0.0262, 0.0, 0.0, 0.0262, 31.05, -187.3)" gradientUnits="userSpaceOnUse" id="gradient1" r="819.2" spreadMethod="pad">
      <stop offset="0.0" stop-color="#ff0000"/>
      <stop offset="1.0" stop-color="#ff4c00"/>
    </radialGradient>
    <radialGradient cx="0" cy="0" gradientTransform="matrix(0.0218, 0.0, 0.0, 0.0218, 40.75, -178.6)" gradientUnits="userSpaceOnUse" id="gradient2" r="819.2" spreadMethod="pad">
      <stop offset="0.0" stop-color="#ff7200"/>
      <stop offset="1.0" stop-color="#ffff00"/>
    </radialGradient>
    <linearGradient gradientTransform="matrix(0.0, -0.0069, 0.0112, 1.0E-4, -53.75, -119.55)" gradientUnits="userSpaceOnUse" id="gradient3" spreadMethod="pad" x1="-819.2" x2="819.2">
      <stop offset="0.0" stop-color="#2e2e2e"/>
      <stop offset="1.0" stop-color="#1c1c1c"/>
    </linearGradient>
    <linearGradient gradientTransform="matrix(0.0062, -0.0036, 0.0034, 0.0057, -42.0, -215.35)" gradientUnits="userSpaceOnUse" id="gradient4" spreadMethod="pad" x1="-819.2" x2="819.2">
      <stop offset="0.0" stop-color="#666666"/>
      <stop offset="0.26666666666666666" stop-color="#8c8c8c"/>
      <stop offset="0.984313725490196" stop-color="#414141"/>
    </linearGradient>
    <linearGradient gradientTransform="matrix(0.0065, -0.0011, 0.0018, 0.0106, -24.45, -221.5)" gradientUnits="userSpaceOnUse" id="gradient5" spreadMethod="pad" x1="-819.2" x2="819.2">
      <stop offset="0.0" stop-color="#666666"/>
      <stop offset="0.26666666666666666" stop-color="#8c8c8c"/>
      <stop offset="0.984313725490196" stop-color="#414141"/>
    </linearGradient>
    <linearGradient gradientTransform="matrix(0.0069, 0.001, -0.0022, 0.0158, -3.75, -226.25)" gradientUnits="userSpaceOnUse" id="gradient6" spreadMethod="pad" x1="-819.2" x2="819.2">
      <stop offset="0.0" stop-color="#666666"/>
      <stop offset="0.26666666666666666" stop-color="#8c8c8c"/>
      <stop offset="0.9764705882352941" stop-color="#3c3c3c"/>
    </linearGradient>
    <radialGradient cx="0" cy="0" gradientTransform="matrix(0.0254, -0.0205, 0.0135, 0.0167, -28.05, -172.85)" gradientUnits="userSpaceOnUse" id="gradient7" r="819.2" spreadMethod="pad">
      <stop offset="0.0" stop-color="#ff7200"/>
      <stop offset="1.0" stop-color="#ffff00"/>
    </radialGradient>
    <linearGradient gradientTransform="matrix(0.0347, 0.0211, -0.0146, 0.024, -25.35, -174.5)" gradientUnits="userSpaceOnUse" id="gradient8" spreadMethod="pad" x1="-819.2" x2="819.2">
      <stop offset="0.0" stop-color="#ff4c00"/>
      <stop offset="0.5843137254901961" stop-color="#ff0000"/>
    </linearGradient>
    <radialGradient cx="0" cy="0" gradientTransform="matrix(0.0467, 0.0, 0.0, 0.0467, -42.1, -198.45)" gradientUnits="userSpaceOnUse" id="gradient9" r="819.2" spreadMethod="pad">
      <stop offset="0.0" stop-color="#ffffff" stop-opacity="0.3019608"/>
      <stop offset="0.9921568627450981" stop-color="#ffffff" stop-opacity="0.101960786"/>
    </radialGradient>
  </defs>
</svg>
