<?xml version="1.0" encoding="UTF-8" standalone="no"?>
<svg xmlns:xlink="http://www.w3.org/1999/xlink" height="531.5px" width="460.6px" xmlns="http://www.w3.org/2000/svg">
  <g transform="matrix(1.0, 0.0, 0.0, 1.0, 193.65, 334.05)">
    <use height="140.15" transform="matrix(0.6637, 0.0, 0.0, 0.6637, -68.1755, -222.4178)" width="211.15" xlink:href="#shape0"/>
  </g>
  <defs>
    <g id="shape0" transform="matrix(1.0, 0.0, 0.0, 1.0, 8.25, -6.0)">
      <path d="M142.4 51.7 Q143.7 54.2 143.7 56.8 L142.45 59.2 140.65 61.9 Q140.0 62.8 138.2 63.05 136.35 63.3 136.05 63.7 137.7 63.7 139.5 65.55 L140.3 66.4 Q142.4 69.05 142.4 71.05 142.4 73.6 141.55 75.45 139.45 80.1 132.15 80.1 127.45 80.1 125.55 76.35 L125.2 75.45 124.1 73.05 Q123.25 71.1 122.25 70.05 121.0 73.75 118.1 75.45 115.6 76.95 111.8 76.95 107.7 76.95 104.7 75.45 103.7 75.05 102.95 74.45 99.05 71.7 99.05 66.95 L99.2 65.55 Q99.75 63.25 102.4 61.2 L103.05 60.7 Q105.65 58.85 108.0 58.85 L110.55 59.15 Q109.4 58.3 107.5 53.35 L107.4 53.15 Q105.65 48.9 105.3 46.15 L105.15 44.75 Q105.15 40.25 107.75 38.45 109.6 37.2 113.35 37.2 122.45 37.2 124.6 46.15 125.3 49.25 125.2 53.35 L125.05 55.55 125.3 55.25 127.1 53.35 130.0 51.3 Q134.05 48.65 138.1 48.65 140.85 48.65 142.4 51.7 M118.45 59.85 L118.0 60.7 Q117.45 61.85 117.45 63.25 117.45 64.6 118.45 65.55 L118.95 66.0 Q120.4 67.0 122.0 67.0 124.65 67.0 125.85 66.0 L126.35 65.55 Q127.1 64.55 127.1 62.7 127.1 61.55 126.75 60.7 L125.95 59.45 Q124.55 57.85 121.75 58.15 119.65 58.2 118.45 59.85" fill="#f4d599" fill-rule="evenodd" stroke="none"/>
      <path d="M118.45 59.85 Q119.65 58.2 121.75 58.15 124.55 57.85 125.95 59.45 L126.75 60.7 Q127.1 61.55 127.1 62.7 127.1 64.55 126.35 65.55 L125.85 66.0 Q124.65 67.0 122.0 67.0 120.4 67.0 118.95 66.0 L118.45 65.55 Q117.45 64.6 117.45 63.25 117.45 61.85 118.0 60.7 L118.45 59.85" fill="#c1a264" fill-rule="evenodd" stroke="none"/>
      <path d="M142.4 51.7 Q143.7 54.2 143.7 56.8 L142.45 59.2 140.65 61.9 Q140.0 62.8 138.2 63.05 136.35 63.3 136.05 63.7 137.7 63.7 139.5 65.55 L140.3 66.4 Q142.4 69.05 142.4 71.05 142.4 73.6 141.55 75.45 139.45 80.1 132.15 80.1 127.45 80.1 125.55 76.35 L125.2 75.45 124.1 73.05 Q123.25 71.1 122.25 70.05 121.0 73.75 118.1 75.45 115.6 76.95 111.8 76.95 107.7 76.95 104.7 75.45 103.7 75.05 102.95 74.45 99.05 71.7 99.05 66.95 L99.2 65.55 Q99.75 63.25 102.4 61.2 L103.05 60.7 Q105.65 58.85 108.0 58.85 L110.55 59.15 Q109.4 58.3 107.5 53.35 L107.4 53.15 Q105.65 48.9 105.3 46.15 L105.15 44.75 Q105.15 40.25 107.75 38.45 109.6 37.2 113.35 37.2 122.45 37.2 124.6 46.15 125.3 49.25 125.2 53.35 L125.05 55.55 125.3 55.25 127.1 53.35 130.0 51.3 Q134.05 48.65 138.1 48.65 140.85 48.65 142.4 51.7 Z" fill="none" stroke="#000000" stroke-linecap="round" stroke-linejoin="round" stroke-opacity="0.4" stroke-width="0.8"/>
      <path d="M139.8 70.9 Q143.6 67.9 147.2 67.9 146.4 66.85 145.5 65.05 143.1 60.3 143.1 55.8 143.1 49.0 147.0 49.0 152.4 49.0 155.4 53.5 158.1 57.55 158.1 63.7 L157.55 67.05 157.45 67.6 Q158.55 65.5 162.05 62.85 167.55 58.6 172.2 58.6 174.7 58.6 176.7 61.3 178.5 63.7 178.5 65.7 178.5 70.6 173.7 73.65 169.55 76.35 164.55 76.35 L162.4 76.3 Q162.05 76.25 160.8 75.45 L160.5 75.45 163.75 79.9 Q165.0 82.3 165.0 85.85 165.0 90.2 162.0 93.2 159.35 95.85 156.3 95.85 153.7 95.85 151.95 88.85 150.75 84.1 150.6 79.95 L150.6 79.65 Q150.25 83.15 148.9 84.2 147.9 85.05 145.1 85.05 142.75 85.05 139.2 82.65 135.6 80.25 135.6 78.45 135.6 74.25 139.8 70.9 M150.1 71.45 L149.85 71.7 149.7 71.95 Q148.9 73.15 148.9 74.55 148.9 75.85 150.45 76.8 151.85 77.7 153.25 77.7 154.6 77.7 155.25 76.65 155.75 75.95 155.75 74.95 155.75 73.6 154.55 72.3 153.3 70.95 152.05 70.95 L150.1 71.45" fill="#fffbc4" fill-rule="evenodd" stroke="none"/>
      <path d="M150.1 71.45 L152.05 70.95 Q153.3 70.95 154.55 72.3 155.75 73.6 155.75 74.95 155.75 75.95 155.25 76.65 154.6 77.7 153.25 77.7 151.85 77.7 150.45 76.8 148.9 75.85 148.9 74.55 148.9 73.15 149.7 71.95 L149.85 71.7 150.1 71.45" fill="#bcb563" fill-rule="evenodd" stroke="none"/>
      <path d="M139.8 70.9 Q143.6 67.9 147.2 67.9 146.4 66.85 145.5 65.05 143.1 60.3 143.1 55.8 143.1 49.0 147.0 49.0 152.4 49.0 155.4 53.5 158.1 57.55 158.1 63.7 L157.55 67.05 157.45 67.6 Q158.55 65.5 162.05 62.85 167.55 58.6 172.2 58.6 174.7 58.6 176.7 61.3 178.5 63.7 178.5 65.7 178.5 70.6 173.7 73.65 169.55 76.35 164.55 76.35 L162.4 76.3 Q162.05 76.25 160.8 75.45 L160.5 75.45 163.75 79.9 Q165.0 82.3 165.0 85.85 165.0 90.2 162.0 93.2 159.35 95.85 156.3 95.85 153.7 95.85 151.95 88.85 150.75 84.1 150.6 79.95 L150.6 79.65 Q150.25 83.15 148.9 84.2 147.9 85.05 145.1 85.05 142.75 85.05 139.2 82.65 135.6 80.25 135.6 78.45 135.6 74.25 139.8 70.9 Z" fill="none" stroke="#000000" stroke-linecap="round" stroke-linejoin="round" stroke-opacity="0.4" stroke-width="0.8"/>
      <path d="M80.45 50.15 Q81.3 50.75 81.3 52.3 81.3 55.65 77.4 58.3 73.95 60.65 69.45 61.35 75.9 65.1 75.9 71.3 75.9 73.1 75.3 73.8 74.5 74.65 72.35 74.65 70.15 74.65 66.3 71.35 62.7 68.25 62.6 66.95 L62.4 66.95 Q62.4 68.95 59.85 70.55 57.3 72.15 54.3 72.15 51.35 72.15 49.1 71.3 46.4 70.3 46.55 67.8 46.7 65.8 50.35 62.7 L50.75 62.4 52.55 61.0 55.05 59.2 51.8 59.7 Q48.7 59.7 46.6 58.95 43.6 57.85 43.6 55.5 43.6 52.65 45.35 51.5 46.85 50.45 49.95 50.45 L52.4 50.6 55.55 51.8 Q56.3 52.15 57.35 53.5 L58.55 55.2 58.25 54.15 Q57.2 50.55 57.2 48.05 57.2 44.75 59.3 42.65 60.75 41.2 61.55 41.2 64.7 41.2 66.35 44.3 67.8 47.1 67.8 51.8 67.8 53.5 67.4 55.0 L67.0 56.45 Q69.85 52.8 71.7 51.4 74.2 49.5 77.45 49.5 79.65 49.5 80.45 50.15 M66.95 56.8 L67.0 56.45 66.95 56.8 M64.8 62.3 Q65.9 61.25 65.9 59.75 65.9 58.25 64.8 57.15 63.75 56.1 62.25 56.1 60.75 56.1 59.65 57.15 58.6 58.25 58.6 59.75 58.6 61.25 59.65 62.3 60.75 63.35 62.25 63.35 63.75 63.35 64.8 62.3" fill="#ffcccc" fill-rule="evenodd" stroke="none"/>
      <path d="M64.8 62.3 Q63.75 63.35 62.25 63.35 60.75 63.35 59.65 62.3 58.6 61.25 58.6 59.75 58.6 58.25 59.65 57.15 60.75 56.1 62.25 56.1 63.75 56.1 64.8 57.15 65.9 58.25 65.9 59.75 65.9 61.25 64.8 62.3" fill="#e2a0a0" fill-rule="evenodd" stroke="none"/>
      <path d="M80.45 50.15 Q81.3 50.75 81.3 52.3 81.3 55.65 77.4 58.3 73.95 60.65 69.45 61.35 75.9 65.1 75.9 71.3 75.9 73.1 75.3 73.8 74.5 74.65 72.35 74.65 70.15 74.65 66.3 71.35 62.7 68.25 62.6 66.95 L62.4 66.95 Q62.4 68.95 59.85 70.55 57.3 72.15 54.3 72.15 51.35 72.15 49.1 71.3 46.4 70.3 46.55 67.8 46.7 65.8 50.35 62.7 L50.75 62.4 52.55 61.0 55.05 59.2 51.8 59.7 Q48.7 59.7 46.6 58.95 43.6 57.85 43.6 55.5 43.6 52.65 45.35 51.5 46.85 50.45 49.95 50.45 L52.4 50.6 55.55 51.8 Q56.3 52.15 57.35 53.5 L58.55 55.2 58.25 54.15 Q57.2 50.55 57.2 48.05 57.2 44.75 59.3 42.65 60.75 41.2 61.55 41.2 64.7 41.2 66.35 44.3 67.8 47.1 67.8 51.8 67.8 53.5 67.4 55.0 L67.0 56.45 Q69.85 52.8 71.7 51.4 74.2 49.5 77.45 49.5 79.65 49.5 80.45 50.15 M67.0 56.45 L66.95 56.8" fill="none" stroke="#000000" stroke-linecap="round" stroke-linejoin="round" stroke-opacity="0.4" stroke-width="0.8"/>
      <path d="M40.95 9.0 Q41.85 6.4 43.8 6.4 47.7 6.4 50.4 12.0 52.2 15.55 54.4 24.25 54.65 17.95 58.0 13.4 61.75 8.3 67.45 8.3 69.3 8.3 70.7 10.95 71.85 13.3 71.85 15.85 71.85 20.7 66.95 26.3 62.2 31.5 57.7 32.55 66.3 32.05 71.15 35.65 75.95 39.15 75.95 45.7 75.95 47.8 75.25 48.35 74.65 48.85 72.25 48.85 68.3 48.85 63.2 46.8 58.1 44.75 57.1 42.55 L57.5 44.1 57.95 46.8 Q57.95 50.6 54.6 53.4 51.5 56.05 48.0 56.05 44.7 56.05 43.1 54.85 41.65 53.8 41.65 52.1 41.65 48.35 50.05 39.95 L47.4 40.7 43.55 41.4 Q38.3 41.4 36.15 39.5 34.45 38.0 34.45 35.05 34.45 33.0 37.1 31.35 39.35 29.9 41.15 29.9 42.75 29.9 44.4 30.75 43.15 29.9 41.9 27.05 39.95 22.75 39.95 17.65 39.95 11.8 40.95 9.0 M44.85 30.95 L44.4 30.75 44.85 30.95 45.0 31.1 45.25 31.1 44.85 30.95 M54.35 25.1 L54.6 25.1 54.4 24.25 54.35 25.1 M49.55 30.85 Q48.35 32.3 48.35 34.45 48.35 35.85 50.05 37.1 51.65 38.3 53.05 38.3 54.3 38.3 55.1 37.1 55.8 36.0 55.8 34.45 55.8 32.45 54.35 31.05 53.0 29.7 51.2 29.65 50.3 30.0 49.55 30.85 M57.0 42.1 L57.0 42.35 57.1 42.55 57.0 42.1" fill="#b0f499" fill-rule="evenodd" stroke="none"/>
      <path d="M49.55 30.85 Q50.3 30.0 51.2 29.65 53.0 29.7 54.35 31.05 55.8 32.45 55.8 34.45 55.8 36.0 55.1 37.1 54.3 38.3 53.05 38.3 51.65 38.3 50.05 37.1 48.35 35.85 48.35 34.45 48.35 32.3 49.55 30.85" fill="#6fb259" fill-rule="evenodd" stroke="none"/>
      <path d="M40.95 9.0 Q41.85 6.4 43.8 6.4 47.7 6.4 50.4 12.0 52.2 15.55 54.4 24.25 54.65 17.95 58.0 13.4 61.75 8.3 67.45 8.3 69.3 8.3 70.7 10.95 71.85 13.3 71.85 15.85 71.85 20.7 66.95 26.3 62.2 31.5 57.7 32.55 66.3 32.05 71.15 35.65 75.95 39.15 75.95 45.7 75.95 47.8 75.25 48.35 74.65 48.85 72.25 48.85 68.3 48.85 63.2 46.8 58.1 44.75 57.1 42.55 L57.5 44.1 57.95 46.8 Q57.95 50.6 54.6 53.4 51.5 56.05 48.0 56.05 44.7 56.05 43.1 54.85 41.65 53.8 41.65 52.1 41.65 48.35 50.05 39.95 L47.4 40.7 43.55 41.4 Q38.3 41.4 36.15 39.5 34.45 38.0 34.45 35.05 34.45 33.0 37.1 31.35 39.35 29.9 41.15 29.9 42.75 29.9 44.4 30.75 43.15 29.9 41.9 27.05 39.95 22.75 39.95 17.65 39.95 11.8 40.95 9.0 M44.4 30.75 L44.85 30.95 45.25 31.1 45.0 31.1 44.85 30.95 M54.35 25.1 L54.6 25.1 54.4 24.25 54.35 25.1 M57.0 42.1 L57.0 42.35 57.1 42.55 57.0 42.1" fill="none" stroke="#000000" stroke-linecap="round" stroke-linejoin="round" stroke-opacity="0.4" stroke-width="0.8"/>
      <path d="M61.9 47.3 Q62.8 48.8 62.8 50.6 62.8 53.35 58.6 59.0 54.35 64.8 51.0 66.1 56.05 64.65 64.1 67.25 72.25 69.75 72.25 73.15 72.25 74.95 69.7 76.6 66.85 78.45 63.1 78.45 61.3 78.45 59.15 77.4 L56.0 75.55 Q52.45 73.45 52.1 73.3 52.75 75.15 53.5 76.5 53.95 77.55 53.95 80.9 53.95 85.55 51.7 89.0 49.1 93.3 44.45 93.3 42.0 93.3 40.5 91.05 39.2 89.1 39.2 86.45 39.2 84.0 40.4 80.85 41.45 77.95 43.05 75.9 L41.1 76.2 38.65 76.45 Q32.35 76.45 26.8 74.55 20.1 72.35 20.1 68.85 20.1 66.4 25.1 64.8 29.2 63.55 33.45 63.55 L36.95 63.85 40.1 64.05 Q38.15 62.1 37.45 58.0 36.95 55.1 36.95 49.55 36.95 44.3 38.1 42.5 38.9 41.15 40.75 41.15 44.0 41.15 45.75 48.0 46.65 51.4 47.65 60.95 L47.9 61.15 Q47.9 54.8 51.7 50.0 55.3 45.6 59.4 45.6 60.9 45.6 61.9 47.3 M46.7 65.65 L46.15 65.4 45.35 65.35 Q43.7 65.35 42.5 66.55 41.4 67.55 41.4 69.05 41.4 71.15 42.65 72.15 43.75 73.15 45.25 73.15 46.95 73.15 48.25 72.05 49.5 70.9 49.5 69.6 49.5 67.75 47.65 66.3 L46.7 65.65" fill="#f4d599" fill-rule="evenodd" stroke="none"/>
      <path d="M46.7 65.65 L47.65 66.3 Q49.5 67.75 49.5 69.6 49.5 70.9 48.25 72.05 46.95 73.15 45.25 73.15 43.75 73.15 42.65 72.15 41.4 71.15 41.4 69.05 41.4 67.55 42.5 66.55 43.7 65.35 45.35 65.35 L46.15 65.4 46.7 65.65" fill="#c1a264" fill-rule="evenodd" stroke="none"/>
      <path d="M61.9 47.3 Q62.8 48.8 62.8 50.6 62.8 53.35 58.6 59.0 54.35 64.8 51.0 66.1 56.05 64.65 64.1 67.25 72.25 69.75 72.25 73.15 72.25 74.95 69.7 76.6 66.85 78.45 63.1 78.45 61.3 78.45 59.15 77.4 L56.0 75.55 Q52.45 73.45 52.1 73.3 52.75 75.15 53.5 76.5 53.95 77.55 53.95 80.9 53.95 85.55 51.7 89.0 49.1 93.3 44.45 93.3 42.0 93.3 40.5 91.05 39.2 89.1 39.2 86.45 39.2 84.0 40.4 80.85 41.45 77.95 43.05 75.9 L41.1 76.2 38.65 76.45 Q32.35 76.45 26.8 74.55 20.1 72.35 20.1 68.85 20.1 66.4 25.1 64.8 29.2 63.55 33.45 63.55 L36.95 63.85 40.1 64.05 Q38.15 62.1 37.45 58.0 36.95 55.1 36.95 49.55 36.95 44.3 38.1 42.5 38.9 41.15 40.75 41.15 44.0 41.15 45.75 48.0 46.65 51.4 47.65 60.95 L47.9 61.15 Q47.9 54.8 51.7 50.0 55.3 45.6 59.4 45.6 60.9 45.6 61.9 47.3 Z" fill="none" stroke="#000000" stroke-linecap="round" stroke-linejoin="round" stroke-opacity="0.4" stroke-width="1.0"/>
      <path d="M25.15 79.6 Q27.0 79.6 29.1 80.8 31.75 82.3 31.75 84.5 31.75 85.2 31.25 85.7 L30.1 86.8 Q31.5 86.1 35.7 86.1 39.45 86.1 43.5 88.95 47.85 92.0 47.85 95.3 47.85 97.0 45.9 98.55 43.8 100.25 41.1 100.25 37.15 100.25 33.85 99.2 L31.65 98.3 31.75 102.05 Q31.75 106.3 30.1 109.35 27.75 113.65 22.65 113.65 18.0 113.65 15.45 110.55 13.05 107.6 13.05 102.85 13.05 100.0 13.5 98.45 13.75 97.7 14.7 96.15 L7.45 99.2 Q3.15 100.7 -0.85 100.7 L-1.1 100.7 Q-3.8 100.65 -5.65 99.5 -7.85 98.2 -7.85 95.9 -7.85 91.55 -1.1 88.25 L0.35 87.5 Q3.25 86.2 5.95 85.65 L7.55 85.55 Q5.25 84.35 3.15 82.35 1.05 80.4 1.05 77.1 1.05 73.85 5.85 73.85 10.3 73.85 14.85 76.8 18.85 79.35 19.75 81.75 23.55 79.6 25.15 79.6 M24.3 86.0 L22.2 85.2 21.7 85.05 19.75 84.7 Q17.55 84.9 16.4 86.1 15.2 87.3 15.2 89.2 15.2 91.7 17.1 92.55 L21.1 93.05 Q23.35 93.05 25.3 92.1 27.2 91.1 27.2 90.05 27.2 87.6 24.3 86.0" fill="#fffbc4" fill-rule="evenodd" stroke="none"/>
      <path d="M24.3 86.0 Q27.2 87.6 27.2 90.05 27.2 91.1 25.3 92.1 23.35 93.05 21.1 93.05 L17.1 92.55 Q15.2 91.7 15.2 89.2 15.2 87.3 16.4 86.1 17.55 84.9 19.75 84.7 L21.7 85.05 22.2 85.2 24.3 86.0" fill="#bcb563" fill-rule="evenodd" stroke="none"/>
      <path d="M25.15 79.6 Q23.55 79.6 19.75 81.75 18.85 79.35 14.85 76.8 10.3 73.85 5.85 73.85 1.05 73.85 1.05 77.1 1.05 80.4 3.15 82.35 5.25 84.35 7.55 85.55 L5.95 85.65 Q3.25 86.2 0.35 87.5 L-1.1 88.25 Q-7.85 91.55 -7.85 95.9 -7.85 98.2 -5.65 99.5 -3.8 100.65 -1.1 100.7 L-0.85 100.7 Q3.15 100.7 7.45 99.2 L14.7 96.15 Q13.75 97.7 13.5 98.45 13.05 100.0 13.05 102.85 13.05 107.6 15.45 110.55 18.0 113.65 22.65 113.65 27.75 113.65 30.1 109.35 31.75 106.3 31.75 102.05 L31.65 98.3 33.85 99.2 Q37.15 100.25 41.1 100.25 43.8 100.25 45.9 98.55 47.85 97.0 47.85 95.3 47.85 92.0 43.5 88.95 39.45 86.1 35.7 86.1 31.5 86.1 30.1 86.8 L31.25 85.7 Q31.75 85.2 31.75 84.5 31.75 82.3 29.1 80.8 27.0 79.6 25.15 79.6 Z" fill="none" stroke="#000000" stroke-linecap="round" stroke-linejoin="round" stroke-opacity="0.4" stroke-width="0.8"/>
      <path d="M91.85 31.05 Q90.0 31.05 88.65 32.35 87.35 33.65 87.35 35.55 87.35 37.4 88.65 38.7 90.0 40.0 91.85 40.0 93.7 40.0 95.0 38.7 96.35 37.4 96.35 35.55 96.35 33.65 95.0 32.35 93.7 31.05 91.85 31.05 M92.7 28.55 Q93.5 21.9 99.95 16.65 105.45 12.1 109.65 12.1 111.1 12.1 111.25 14.8 111.25 17.55 107.6 22.45 L99.9 31.85 104.15 30.5 108.15 30.35 116.35 30.65 Q119.65 31.35 119.65 33.85 119.65 36.75 115.55 38.15 112.15 39.35 107.55 39.35 L104.4 39.3 Q102.95 39.2 102.0 38.45 101.8 39.35 103.55 41.15 105.8 43.55 106.5 44.75 107.45 46.5 108.05 48.85 108.6 50.95 108.6 52.45 108.6 54.9 106.5 55.55 L102.0 55.85 Q99.4 55.85 95.25 50.05 92.15 45.6 91.2 43.25 89.45 45.05 84.0 48.25 77.5 51.95 74.25 51.95 72.0 51.95 71.1 51.35 70.2 50.75 70.2 49.15 70.2 47.15 72.85 43.5 75.35 40.1 77.4 38.75 L81.95 35.25 Q84.15 33.35 85.2 33.35 84.25 32.25 82.15 25.5 79.8 17.9 79.8 13.9 79.8 6.4 82.2 6.4 85.95 6.4 89.35 15.45 91.9 22.35 92.7 28.55" fill="#f4d599" fill-rule="evenodd" stroke="none"/>
      <path d="M91.85 31.05 Q93.7 31.05 95.0 32.35 96.35 33.65 96.35 35.55 96.35 37.4 95.0 38.7 93.7 40.0 91.85 40.0 90.0 40.0 88.65 38.7 87.35 37.4 87.35 35.55 87.35 33.65 88.65 32.35 90.0 31.05 91.85 31.05" fill="#c1a264" fill-rule="evenodd" stroke="none"/>
      <path d="M92.7 28.55 Q93.5 21.9 99.95 16.65 105.45 12.1 109.65 12.1 111.1 12.1 111.25 14.8 111.25 17.55 107.6 22.45 L99.9 31.85 104.15 30.5 108.15 30.35 116.35 30.65 Q119.65 31.35 119.65 33.85 119.65 36.75 115.55 38.15 112.15 39.35 107.55 39.35 L104.4 39.3 Q102.95 39.2 102.0 38.45 101.8 39.35 103.55 41.15 105.8 43.55 106.5 44.75 107.45 46.5 108.05 48.85 108.6 50.95 108.6 52.45 108.6 54.9 106.5 55.55 L102.0 55.85 Q99.4 55.85 95.25 50.05 92.15 45.6 91.2 43.25 89.45 45.05 84.0 48.25 77.5 51.95 74.25 51.95 72.0 51.95 71.1 51.35 70.2 50.75 70.2 49.15 70.2 47.15 72.85 43.5 75.35 40.1 77.4 38.75 L81.95 35.25 Q84.15 33.35 85.2 33.35 84.25 32.25 82.15 25.5 79.8 17.9 79.8 13.9 79.8 6.4 82.2 6.4 85.95 6.4 89.35 15.45 91.9 22.35 92.7 28.55 Z" fill="none" stroke="#000000" stroke-linecap="round" stroke-linejoin="round" stroke-opacity="0.4" stroke-width="0.8"/>
      <path d="M65.1 49.7 Q66.6 48.8 68.95 48.8 72.7 48.8 75.6 51.1 L81.1 56.7 80.05 54.35 Q79.3 52.1 79.3 49.85 79.3 45.85 81.65 42.8 83.85 39.95 86.1 39.95 87.35 39.95 88.15 41.45 88.8 42.7 88.8 44.0 L88.0 49.1 86.8 55.9 Q90.7 52.75 94.55 50.9 98.45 49.0 101.15 49.0 103.95 49.0 105.75 49.85 107.9 50.9 107.9 52.8 107.9 55.55 101.1 59.45 94.3 63.3 91.1 62.55 94.55 65.65 95.9 67.85 97.8 70.8 97.8 74.05 97.8 76.65 96.6 78.35 95.25 80.1 93.15 80.1 89.1 80.1 86.85 76.6 L84.05 70.8 Q83.4 72.9 80.05 75.3 76.3 77.95 72.95 77.95 70.2 77.95 68.5 75.95 67.0 74.2 67.0 71.55 67.0 69.15 70.45 67.3 73.25 65.8 75.15 65.85 71.65 63.85 68.75 61.6 63.1 57.3 63.1 53.1 63.1 50.75 65.1 49.7 M82.3 58.55 Q81.0 58.85 79.9 60.0 78.65 61.45 78.65 63.35 78.65 65.25 79.9 66.7 81.1 68.05 82.5 68.05 84.75 68.05 86.15 65.65 87.25 63.9 87.25 62.5 87.25 60.55 85.85 59.45 L84.45 58.75 83.1 58.5 82.3 58.55" fill="#fffbc4" fill-rule="evenodd" stroke="none"/>
      <path d="M84.45 58.75 L85.85 59.45 Q87.25 60.55 87.25 62.5 87.25 63.9 86.15 65.65 84.75 68.05 82.5 68.05 81.1 68.05 79.9 66.7 78.65 65.25 78.65 63.35 78.65 61.45 79.9 60.0 81.0 58.85 82.3 58.55 L82.5 58.7 84.45 58.75" fill="#bcb563" fill-rule="evenodd" stroke="none"/>
      <path d="M65.1 49.7 Q66.6 48.8 68.95 48.8 72.7 48.8 75.6 51.1 L81.1 56.7 80.05 54.35 Q79.3 52.1 79.3 49.85 79.3 45.85 81.65 42.8 83.85 39.95 86.1 39.95 87.35 39.95 88.15 41.45 88.8 42.7 88.8 44.0 L88.0 49.1 86.8 55.9 Q90.7 52.75 94.55 50.9 98.45 49.0 101.15 49.0 103.95 49.0 105.75 49.85 107.9 50.9 107.9 52.8 107.9 55.55 101.1 59.45 94.3 63.3 91.1 62.55 94.55 65.65 95.9 67.85 97.8 70.8 97.8 74.05 97.8 76.65 96.6 78.35 95.25 80.1 93.15 80.1 89.1 80.1 86.85 76.6 L84.05 70.8 Q83.4 72.9 80.05 75.3 76.3 77.95 72.95 77.95 70.2 77.95 68.5 75.95 67.0 74.2 67.0 71.55 67.0 69.15 70.45 67.3 73.25 65.8 75.15 65.85 71.65 63.85 68.75 61.6 63.1 57.3 63.1 53.1 63.1 50.75 65.1 49.7 Z" fill="none" stroke="#000000" stroke-linecap="round" stroke-linejoin="round" stroke-opacity="0.4" stroke-width="0.8"/>
      <path d="M170.7 36.85 Q171.65 37.55 171.65 39.35 171.65 43.2 167.15 46.25 163.15 49.0 158.0 49.8 165.45 54.1 165.45 61.3 165.45 63.35 164.7 64.2 163.8 65.15 161.35 65.15 158.75 65.15 154.35 61.35 150.2 57.8 150.1 56.3 L149.85 56.3 Q149.85 58.55 146.9 60.4 143.95 62.25 140.5 62.25 137.05 62.25 134.5 61.3 131.35 60.1 131.55 57.25 131.7 54.95 135.9 51.35 L136.4 51.0 138.45 49.4 141.3 47.35 137.6 47.9 Q134.0 47.9 131.6 47.05 128.15 45.8 128.15 43.0 128.15 39.8 130.15 38.4 131.9 37.2 135.45 37.2 L138.25 37.4 141.9 38.75 Q142.8 39.2 144.0 40.75 L145.4 42.7 145.05 41.45 Q143.85 37.35 143.85 34.45 143.85 30.6 146.25 28.2 147.9 26.55 148.9 26.55 152.45 26.55 154.4 30.15 156.05 33.35 156.05 38.75 156.05 40.75 155.6 42.5 L155.15 44.15 Q158.4 39.9 160.55 38.3 163.45 36.15 167.25 36.15 169.75 36.15 170.7 36.85 M155.1 44.5 L155.15 44.15 155.1 44.5 M149.35 47.65 Q148.4 49.0 148.4 49.8 148.4 53.15 151.5 53.15 153.0 53.15 154.15 51.7 155.1 50.5 155.1 49.7 155.1 45.7 152.85 45.7 152.15 45.7 151.75 45.95 150.5 45.95 149.35 47.65" fill="#b0f499" fill-rule="evenodd" stroke="none"/>
      <path d="M149.35 47.65 Q150.5 45.95 151.75 45.95 152.15 45.7 152.85 45.7 155.1 45.7 155.1 49.7 155.1 50.5 154.15 51.7 153.0 53.15 151.5 53.15 148.4 53.15 148.4 49.8 148.4 49.0 149.35 47.65" fill="#6fb259" fill-rule="evenodd" stroke="none"/>
      <path d="M170.7 36.85 Q171.65 37.55 171.65 39.35 171.65 43.2 167.15 46.25 163.15 49.0 158.0 49.8 165.45 54.1 165.45 61.3 165.45 63.35 164.7 64.2 163.8 65.15 161.35 65.15 158.75 65.15 154.35 61.35 150.2 57.8 150.1 56.3 L149.85 56.3 Q149.85 58.55 146.9 60.4 143.95 62.25 140.5 62.25 137.05 62.25 134.5 61.3 131.35 60.1 131.55 57.25 131.7 54.95 135.9 51.35 L136.4 51.0 138.45 49.4 141.3 47.35 137.6 47.9 Q134.0 47.9 131.6 47.05 128.15 45.8 128.15 43.0 128.15 39.8 130.15 38.4 131.9 37.2 135.45 37.2 L138.25 37.4 141.9 38.75 Q142.8 39.2 144.0 40.75 L145.4 42.7 145.05 41.45 Q143.85 37.35 143.85 34.45 143.85 30.6 146.25 28.2 147.9 26.55 148.9 26.55 152.45 26.55 154.4 30.15 156.05 33.35 156.05 38.75 156.05 40.75 155.6 42.5 L155.15 44.15 Q158.4 39.9 160.55 38.3 163.45 36.15 167.25 36.15 169.75 36.15 170.7 36.85 M155.15 44.15 L155.1 44.5" fill="none" stroke="#000000" stroke-linecap="round" stroke-linejoin="round" stroke-opacity="0.4" stroke-width="0.8"/>
      <path d="M173.2 80.9 Q173.8 76.3 178.2 72.65 182.05 69.5 184.95 69.5 185.9 69.5 186.05 71.4 186.05 73.3 183.5 76.7 L178.15 83.2 181.1 82.25 183.9 82.15 189.55 82.35 Q191.85 82.8 191.85 84.55 191.85 86.55 189.0 87.55 186.65 88.35 183.5 88.35 L181.3 88.35 Q180.3 88.25 179.6 87.75 179.5 88.35 180.7 89.6 L182.75 92.1 183.8 94.9 Q184.2 96.35 184.2 97.4 184.2 99.1 182.75 99.55 L179.6 99.75 Q177.85 99.75 175.0 95.75 172.85 92.7 172.15 91.05 170.95 92.3 167.2 94.5 162.7 97.1 160.45 97.1 158.9 97.1 158.3 96.65 157.65 96.25 157.65 95.15 157.65 93.75 159.5 91.25 161.2 88.85 162.65 87.95 L165.8 85.5 Q167.3 84.25 168.0 84.25 167.35 83.45 165.9 78.8 164.3 73.55 164.3 70.75 164.3 65.55 165.95 65.55 168.55 65.55 170.9 71.85 172.65 76.6 173.2 80.9 M170.4 83.5 Q169.5 84.45 169.5 85.7 169.5 87.0 170.4 87.9 171.35 88.85 172.6 88.85 173.9 88.85 174.8 87.9 175.75 87.0 175.75 85.7 175.75 84.45 174.8 83.5 173.9 82.6 172.6 82.6 171.35 82.6 170.4 83.5" fill="#f4d599" fill-rule="evenodd" stroke="none"/>
      <path d="M170.4 83.5 Q171.35 82.6 172.6 82.6 173.9 82.6 174.8 83.5 175.75 84.45 175.75 85.7 175.75 87.0 174.8 87.9 173.9 88.85 172.6 88.85 171.35 88.85 170.4 87.9 169.5 87.0 169.5 85.7 169.5 84.45 170.4 83.5" fill="#c1a264" fill-rule="evenodd" stroke="none"/>
      <path d="M173.2 80.9 Q173.8 76.3 178.2 72.65 182.05 69.5 184.95 69.5 185.9 69.5 186.05 71.4 186.05 73.3 183.5 76.7 L178.15 83.2 181.1 82.25 183.9 82.15 189.55 82.35 Q191.85 82.8 191.85 84.55 191.85 86.55 189.0 87.55 186.65 88.35 183.5 88.35 L181.3 88.35 Q180.3 88.25 179.6 87.75 179.5 88.35 180.7 89.6 L182.75 92.1 183.8 94.9 Q184.2 96.35 184.2 97.4 184.2 99.1 182.75 99.55 L179.6 99.75 Q177.85 99.75 175.0 95.75 172.85 92.7 172.15 91.05 170.95 92.3 167.2 94.5 162.7 97.1 160.45 97.1 158.9 97.1 158.3 96.65 157.65 96.25 157.65 95.15 157.65 93.75 159.5 91.25 161.2 88.85 162.65 87.95 L165.8 85.5 Q167.3 84.25 168.0 84.25 167.35 83.45 165.9 78.8 164.3 73.55 164.3 70.75 164.3 65.55 165.95 65.55 168.55 65.55 170.9 71.85 172.65 76.6 173.2 80.9 Z" fill="none" stroke="#000000" stroke-linecap="round" stroke-linejoin="round" stroke-opacity="0.4" stroke-width="0.8"/>
      <path d="M93.75 31.0 Q94.4 29.15 95.8 29.15 98.5 29.15 100.4 33.1 101.7 35.6 103.25 41.7 103.4 37.3 105.8 34.1 108.4 30.5 112.4 30.5 113.7 30.5 114.7 32.35 115.5 34.0 115.5 35.8 115.5 39.25 112.05 43.15 108.75 46.85 105.55 47.55 111.6 47.2 115.0 49.75 118.4 52.2 118.4 56.85 118.4 58.3 117.9 58.7 L115.75 59.0 Q113.0 59.0 109.4 57.6 105.8 56.15 105.15 54.6 L105.4 55.7 105.75 57.6 Q105.75 60.25 103.35 62.2 101.2 64.1 98.75 64.1 96.4 64.1 95.25 63.25 94.25 62.5 94.25 61.3 94.25 58.7 100.15 52.8 L98.3 53.3 95.6 53.8 Q91.9 53.8 90.4 52.45 89.2 51.4 89.2 49.3 89.2 47.9 91.05 46.7 92.65 45.7 93.9 45.7 95.0 45.7 96.2 46.3 95.3 45.7 94.45 43.7 93.1 40.65 93.1 37.1 93.1 32.95 93.75 31.0 M96.5 46.45 L96.2 46.3 96.5 46.45 96.6 46.55 96.8 46.55 96.5 46.45 M103.2 42.3 L103.35 42.3 103.25 41.7 103.2 42.3 M99.85 46.35 Q99.0 47.4 99.0 48.9 99.0 49.85 100.15 50.75 101.3 51.6 102.25 51.6 103.15 51.6 103.7 50.75 104.2 50.0 104.2 48.9 104.2 47.5 103.2 46.5 102.25 45.55 100.95 45.5 100.35 45.75 99.85 46.35 M105.05 54.3 L105.05 54.45 105.15 54.6 105.05 54.3" fill="#b0f499" fill-rule="evenodd" stroke="none"/>
      <path d="M99.85 46.35 Q100.35 45.75 100.95 45.5 102.25 45.55 103.2 46.5 104.2 47.5 104.2 48.9 104.2 50.0 103.7 50.75 103.15 51.6 102.25 51.6 101.3 51.6 100.15 50.75 99.0 49.85 99.0 48.9 99.0 47.4 99.85 46.35" fill="#6fb259" fill-rule="evenodd" stroke="none"/>
      <path d="M93.75 31.0 Q94.4 29.15 95.8 29.15 98.5 29.15 100.4 33.1 101.7 35.6 103.25 41.7 103.4 37.3 105.8 34.1 108.4 30.5 112.4 30.5 113.7 30.5 114.7 32.35 115.5 34.0 115.5 35.8 115.5 39.25 112.05 43.15 108.75 46.85 105.55 47.55 111.6 47.2 115.0 49.75 118.4 52.2 118.4 56.85 118.4 58.3 117.9 58.7 L115.75 59.0 Q113.0 59.0 109.4 57.6 105.8 56.15 105.15 54.6 L105.4 55.7 105.75 57.6 Q105.75 60.25 103.35 62.2 101.2 64.1 98.75 64.1 96.4 64.1 95.25 63.25 94.25 62.5 94.25 61.3 94.25 58.7 100.15 52.8 L98.3 53.3 95.6 53.8 Q91.9 53.8 90.4 52.45 89.2 51.4 89.2 49.3 89.2 47.9 91.05 46.7 92.65 45.7 93.9 45.7 95.0 45.7 96.2 46.3 95.3 45.7 94.45 43.7 93.1 40.65 93.1 37.1 93.1 32.95 93.75 31.0 M96.2 46.3 L96.5 46.45 96.8 46.55 96.6 46.55 96.5 46.45 M103.2 42.3 L103.35 42.3 103.25 41.7 103.2 42.3 M105.05 54.3 L105.05 54.45 105.15 54.6 105.05 54.3" fill="none" stroke="#000000" stroke-linecap="round" stroke-linejoin="round" stroke-opacity="0.4" stroke-width="0.8"/>
      <path d="M166.1 85.95 Q166.75 84.1 168.15 84.1 170.85 84.1 172.75 88.05 174.05 90.55 175.6 96.65 175.75 92.25 178.15 89.05 180.75 85.45 184.75 85.45 186.05 85.45 187.05 87.3 187.85 88.95 187.85 90.75 187.85 94.2 184.4 98.1 181.1 101.8 177.9 102.5 183.95 102.15 187.35 104.7 190.75 107.15 190.75 111.8 190.75 113.25 190.25 113.65 L188.1 113.95 Q185.35 113.95 181.75 112.55 178.15 111.1 177.5 109.55 L177.75 110.65 178.1 112.55 Q178.1 115.2 175.7 117.15 173.55 119.05 171.1 119.05 168.75 119.05 167.6 118.2 166.6 117.45 166.6 116.25 166.6 113.65 172.5 107.75 L170.65 108.25 167.95 108.75 Q164.25 108.75 162.75 107.4 161.55 106.35 161.55 104.25 161.55 102.85 163.4 101.65 165.0 100.65 166.25 100.65 167.35 100.65 168.55 101.25 167.65 100.65 166.8 98.65 165.45 95.6 165.45 92.05 165.45 87.9 166.1 85.95 M168.85 101.4 L168.55 101.25 168.85 101.4 168.95 101.5 169.15 101.5 168.85 101.4 M175.55 97.25 L175.7 97.25 175.6 96.65 175.55 97.25 M172.2 101.3 Q171.35 102.35 171.35 103.85 171.35 104.8 172.5 105.7 173.65 106.55 174.6 106.55 175.5 106.55 176.05 105.7 176.55 104.95 176.55 103.85 176.55 102.45 175.55 101.45 174.6 100.5 173.3 100.45 172.7 100.7 172.2 101.3 M177.4 109.25 L177.4 109.4 177.5 109.55 177.4 109.25" fill="#b0f499" fill-rule="evenodd" stroke="none"/>
      <path d="M172.2 101.3 Q172.7 100.7 173.3 100.45 174.6 100.5 175.55 101.45 176.55 102.45 176.55 103.85 176.55 104.95 176.05 105.7 175.5 106.55 174.6 106.55 173.65 106.55 172.5 105.7 171.35 104.8 171.35 103.85 171.35 102.35 172.2 101.3" fill="#6fb259" fill-rule="evenodd" stroke="none"/>
      <path d="M166.1 85.95 Q166.75 84.1 168.15 84.1 170.85 84.1 172.75 88.05 174.05 90.55 175.6 96.65 175.75 92.25 178.15 89.05 180.75 85.45 184.75 85.45 186.05 85.45 187.05 87.3 187.85 88.95 187.85 90.75 187.85 94.2 184.4 98.1 181.1 101.8 177.9 102.5 183.95 102.15 187.35 104.7 190.75 107.15 190.75 111.8 190.75 113.25 190.25 113.65 L188.1 113.95 Q185.35 113.95 181.75 112.55 178.15 111.1 177.5 109.55 L177.75 110.65 178.1 112.55 Q178.1 115.2 175.7 117.15 173.55 119.05 171.1 119.05 168.75 119.05 167.6 118.2 166.6 117.45 166.6 116.25 166.6 113.65 172.5 107.75 L170.65 108.25 167.95 108.75 Q164.25 108.75 162.75 107.4 161.55 106.35 161.55 104.25 161.55 102.85 163.4 101.65 165.0 100.65 166.25 100.65 167.35 100.65 168.55 101.25 167.65 100.65 166.8 98.65 165.45 95.6 165.45 92.05 165.45 87.9 166.1 85.95 M168.55 101.25 L168.85 101.4 169.15 101.5 168.95 101.5 168.85 101.4 M175.55 97.25 L175.7 97.25 175.6 96.65 175.55 97.25 M177.4 109.25 L177.4 109.4 177.5 109.55 177.4 109.25" fill="none" stroke="#000000" stroke-linecap="round" stroke-linejoin="round" stroke-opacity="0.4" stroke-width="0.8"/>
      <path d="M11.85 55.9 Q12.5 54.05 13.9 54.05 16.6 54.05 18.5 58.0 19.8 60.5 21.35 66.6 21.5 62.2 23.9 59.0 26.5 55.4 30.5 55.4 31.8 55.4 32.8 57.25 33.6 58.9 33.6 60.7 33.6 64.15 30.15 68.05 26.85 71.75 23.65 72.45 29.7 72.1 33.1 74.65 36.5 77.1 36.5 81.75 36.5 83.2 36.0 83.6 L33.85 83.9 Q31.1 83.9 27.5 82.5 23.9 81.05 23.25 79.5 L23.5 80.6 23.85 82.5 Q23.85 85.15 21.45 87.1 19.3 89.0 16.85 89.0 14.5 89.0 13.35 88.15 12.35 87.4 12.35 86.2 12.35 83.6 18.25 77.7 L16.4 78.2 13.7 78.7 Q10.0 78.7 8.5 77.35 7.3 76.3 7.3 74.2 7.3 72.8 9.15 71.6 10.75 70.6 12.0 70.6 13.1 70.6 14.3 71.2 13.4 70.6 12.55 68.6 11.2 65.55 11.2 62.0 11.2 57.85 11.85 55.9 M14.6 71.35 L14.3 71.2 14.6 71.35 14.7 71.45 14.9 71.45 14.6 71.35 M21.3 67.2 L21.45 67.2 21.35 66.6 21.3 67.2 M17.95 71.25 Q17.1 72.3 17.1 73.8 17.1 74.75 18.25 75.65 19.4 76.5 20.35 76.5 21.25 76.5 21.8 75.65 22.3 74.9 22.3 73.8 22.3 72.4 21.3 71.4 20.35 70.45 19.05 70.4 18.45 70.65 17.95 71.25 M23.15 79.2 L23.15 79.35 23.25 79.5 23.15 79.2" fill="#b0f499" fill-rule="evenodd" stroke="none"/>
      <path d="M17.95 71.25 Q18.45 70.65 19.05 70.4 20.35 70.45 21.3 71.4 22.3 72.4 22.3 73.8 22.3 74.9 21.8 75.65 21.25 76.5 20.35 76.5 19.4 76.5 18.25 75.65 17.1 74.75 17.1 73.8 17.1 72.3 17.95 71.25" fill="#6fb259" fill-rule="evenodd" stroke="none"/>
      <path d="M11.85 55.9 Q12.5 54.05 13.9 54.05 16.6 54.05 18.5 58.0 19.8 60.5 21.35 66.6 21.5 62.2 23.9 59.0 26.5 55.4 30.5 55.4 31.8 55.4 32.8 57.25 33.6 58.9 33.6 60.7 33.6 64.15 30.15 68.05 26.85 71.75 23.65 72.45 29.7 72.1 33.1 74.65 36.5 77.1 36.5 81.75 36.5 83.2 36.0 83.6 L33.85 83.9 Q31.1 83.9 27.5 82.5 23.9 81.05 23.25 79.5 L23.5 80.6 23.85 82.5 Q23.85 85.15 21.45 87.1 19.3 89.0 16.85 89.0 14.5 89.0 13.35 88.15 12.35 87.4 12.35 86.2 12.35 83.6 18.25 77.7 L16.4 78.2 13.7 78.7 Q10.0 78.7 8.5 77.35 7.3 76.3 7.3 74.2 7.3 72.8 9.15 71.6 10.75 70.6 12.0 70.6 13.1 70.6 14.3 71.2 13.4 70.6 12.55 68.6 11.2 65.55 11.2 62.0 11.2 57.85 11.85 55.9 M14.3 71.2 L14.6 71.35 14.9 71.45 14.7 71.45 14.6 71.35 M21.3 67.2 L21.45 67.2 21.35 66.6 21.3 67.2 M23.15 79.2 L23.15 79.35 23.25 79.5 23.15 79.2" fill="none" stroke="#000000" stroke-linecap="round" stroke-linejoin="round" stroke-opacity="0.4" stroke-width="0.8"/>
      <path d="M23.3 137.1 Q22.9 138.65 21.9 140.5 L18.55 145.75 17.1 143.2 Q16.55 141.8 16.55 140.0 L16.8 137.35 13.85 138.3 10.75 138.9 7.15 138.35 3.5 137.8 0.0 138.0 Q0.3 135.1 4.35 131.8 8.4 128.5 11.25 128.6 L11.25 128.35 Q7.9 126.95 5.55 123.8 L1.5 118.2 2.75 118.25 Q8.35 118.85 12.5 120.65 15.95 122.2 19.15 124.95 L18.05 126.2 Q17.3 127.7 17.3 129.85 17.3 133.3 19.1 135.25 20.65 137.05 22.95 137.05 L23.3 137.1 M25.55 127.3 L28.3 126.45 30.7 126.15 33.55 126.65 36.25 127.2 38.35 124.4 Q41.0 121.0 44.3 120.1 47.2 119.3 52.85 118.75 L58.75 118.25 Q61.75 114.5 63.4 113.05 66.9 109.9 70.45 109.95 L75.95 110.55 76.65 110.45 Q78.45 108.6 80.55 107.35 84.3 105.15 87.95 105.2 91.0 105.25 97.35 107.3 100.75 108.35 106.2 108.45 107.8 107.75 116.95 106.1 L125.7 106.45 Q132.85 109.05 138.6 115.7 L142.55 114.35 Q147.15 112.6 149.75 112.65 152.35 112.65 154.9 113.85 157.0 114.85 158.5 116.3 159.55 117.3 161.45 120.05 L163.45 122.2 165.7 121.7 169.7 121.0 Q171.7 121.05 176.0 123.85 L177.7 124.95 178.7 124.7 180.35 124.4 Q181.95 124.45 183.05 125.45 L184.45 126.75 184.9 127.0 184.8 127.35 185.65 127.25 187.55 127.5 187.55 128.7 187.2 130.05 187.1 130.45 186.75 131.15 Q186.3 131.75 184.65 131.75 183.1 131.7 181.9 131.05 180.7 130.3 179.95 130.3 179.0 130.3 177.15 131.9 175.3 133.5 174.15 133.5 170.5 133.45 167.1 130.8 163.75 128.1 163.0 128.05 162.65 128.05 160.55 129.35 158.4 130.55 155.7 130.5 151.65 130.45 145.95 127.8 141.1 125.5 139.1 123.3 L132.7 124.3 Q125.85 123.75 121.95 119.55 112.35 120.0 106.0 116.9 100.45 121.4 94.2 121.3 L88.0 120.35 Q84.2 119.45 82.4 119.5 80.6 119.6 74.9 124.15 69.15 128.7 68.45 128.65 66.7 128.65 62.9 127.25 59.1 125.8 58.3 125.8 56.45 125.75 49.9 130.7 43.3 135.6 40.55 135.55 37.65 135.55 30.1 133.25 L27.1 132.4 23.1 130.9 23.1 129.0 23.6 128.65 Q25.3 127.4 25.55 127.3 M187.25 124.4 L187.65 122.55 Q188.3 120.4 189.35 118.8 190.25 117.35 192.55 116.25 194.5 115.25 195.65 115.25 L196.1 115.25 195.7 116.55 Q195.35 117.75 195.35 118.85 L195.75 121.85 Q195.75 123.15 194.95 124.6 194.15 125.9 193.35 126.35 L193.35 126.45 193.75 126.5 196.1 126.45 Q198.45 126.5 200.35 127.25 202.05 127.9 202.5 128.75 L199.6 129.5 197.15 130.4 195.15 130.9 192.65 130.5 192.6 130.5 Q193.05 130.9 193.35 131.65 L193.65 133.15 193.3 135.9 192.15 135.0 189.9 133.55 188.7 132.25 190.0 131.3 Q190.85 130.3 190.85 129.1 190.85 127.1 190.1 125.8 189.3 124.4 187.9 124.4 L187.25 124.4 M166.3 124.1 L163.45 122.2 166.3 124.1 M181.2 126.7 Q180.55 126.65 177.7 124.95 180.55 126.65 181.2 126.7 M140.1 117.55 L138.6 115.7 140.1 117.55 M141.45 122.9 L139.1 123.3 141.45 122.9 M106.8 116.2 L106.0 116.9 106.8 116.2 M73.55 114.25 Q74.95 112.1 76.65 110.45 74.95 112.1 73.55 114.25 M57.3 120.0 L58.75 118.25 57.3 120.0 M32.8 131.7 L36.25 127.2 36.55 127.2 36.25 127.2 32.8 131.7 M16.8 137.35 L17.05 137.25 16.8 137.25 16.8 137.35" fill="#c1a78e" fill-rule="evenodd" stroke="none"/>
      <path d="M19.15 124.95 Q19.8 124.5 21.7 124.15 23.55 123.85 24.65 125.25 25.7 126.6 25.55 127.3 25.3 127.4 23.6 128.65 L23.1 129.0 23.1 130.9 27.1 132.4 Q27.25 133.9 25.75 135.45 24.4 136.85 23.3 137.1 L22.95 137.05 Q20.65 137.05 19.1 135.25 17.3 133.3 17.3 129.85 17.3 127.7 18.05 126.2 L19.15 124.95 M184.9 127.0 Q185.25 125.55 185.75 125.05 186.2 124.65 186.9 124.5 L187.25 124.4 187.9 124.4 Q189.3 124.4 190.1 125.8 190.85 127.1 190.85 129.1 190.85 130.3 190.0 131.3 L188.7 132.25 188.2 132.35 188.0 132.35 Q187.4 132.3 186.8 131.5 L187.2 130.05 187.55 128.7 187.55 127.5 187.55 127.15 185.65 127.25 184.8 127.35 184.9 127.0 185.65 127.25 184.9 127.0" fill="#ffcccc" fill-rule="evenodd" stroke="none"/>
      <path d="M23.3 137.1 Q22.9 138.65 21.9 140.5 L18.55 145.75 17.1 143.2 Q16.55 141.8 16.55 140.0 L16.8 137.35 13.85 138.3 10.75 138.9 7.15 138.35 3.5 137.8 0.0 138.0 Q0.3 135.1 4.35 131.8 8.4 128.5 11.25 128.6 L11.25 128.35 Q7.9 126.95 5.55 123.8 L1.5 118.2 2.75 118.25 Q8.35 118.85 12.5 120.65 15.95 122.2 19.15 124.95 19.8 124.5 21.7 124.15 23.55 123.85 24.65 125.25 25.7 126.6 25.55 127.3 L28.3 126.45 30.7 126.15 33.55 126.65 36.25 127.2 38.35 124.4 Q41.0 121.0 44.3 120.1 47.2 119.3 52.85 118.75 L58.75 118.25 Q61.75 114.5 63.4 113.05 66.9 109.9 70.45 109.95 L75.95 110.55 76.65 110.45 Q78.45 108.6 80.55 107.35 84.3 105.15 87.95 105.2 91.0 105.25 97.35 107.3 100.75 108.35 106.2 108.45 107.8 107.75 116.95 106.1 L125.7 106.45 Q132.85 109.05 138.6 115.7 L142.55 114.35 Q147.15 112.6 149.75 112.65 152.35 112.65 154.9 113.85 157.0 114.85 158.5 116.3 159.55 117.3 161.45 120.05 L163.45 122.2 165.7 121.7 169.7 121.0 Q171.7 121.05 176.0 123.85 L177.7 124.95 178.7 124.7 180.35 124.4 Q181.95 124.45 183.05 125.45 L184.45 126.75 184.9 127.0 Q185.25 125.55 185.75 125.05 186.2 124.65 186.9 124.5 L187.25 124.4 187.65 122.55 Q188.3 120.4 189.35 118.8 190.25 117.35 192.55 116.25 194.5 115.25 195.65 115.25 L196.1 115.25 195.7 116.55 Q195.35 117.75 195.35 118.85 L195.75 121.85 Q195.75 123.15 194.95 124.6 194.15 125.9 193.35 126.35 L193.35 126.45 193.75 126.5 196.1 126.45 Q198.45 126.5 200.35 127.25 202.05 127.9 202.5 128.75 L199.6 129.5 197.15 130.4 195.15 130.9 192.65 130.5 192.6 130.5 Q193.05 130.9 193.35 131.65 L193.65 133.15 193.3 135.9 192.15 135.0 189.9 133.55 188.7 132.25 188.2 132.35 188.0 132.35 Q187.4 132.3 186.8 131.5 L187.2 130.05 187.55 128.7 187.55 127.5 187.55 127.15 185.65 127.25 184.8 127.35 184.9 127.0 185.65 127.25 M187.1 130.45 L186.75 131.15 Q186.3 131.75 184.65 131.75 183.1 131.7 181.9 131.05 180.7 130.3 179.95 130.3 179.0 130.3 177.15 131.9 175.3 133.5 174.15 133.5 170.5 133.45 167.1 130.8 163.75 128.1 163.0 128.05 162.65 128.05 160.55 129.35 158.4 130.55 155.7 130.5 151.65 130.45 145.95 127.8 141.1 125.5 139.1 123.3 L132.7 124.3 Q125.85 123.75 121.95 119.55 112.35 120.0 106.0 116.9 100.45 121.4 94.2 121.3 L88.0 120.35 Q84.2 119.45 82.4 119.5 80.6 119.6 74.9 124.15 69.15 128.7 68.45 128.65 66.7 128.65 62.9 127.25 59.1 125.8 58.3 125.8 56.45 125.75 49.9 130.7 43.3 135.6 40.55 135.55 37.65 135.55 30.1 133.25 L27.1 132.4 Q27.25 133.9 25.75 135.45 24.4 136.85 23.3 137.1 L22.95 137.05 Q20.65 137.05 19.1 135.25 17.3 133.3 17.3 129.85 17.3 127.7 18.05 126.2 L19.15 124.95 M58.75 118.25 L57.3 120.0 M76.65 110.45 Q74.95 112.1 73.55 114.25 M106.0 116.9 L106.8 116.2 M139.1 123.3 L141.45 122.9 M138.6 115.7 L140.1 117.55 M177.7 124.95 Q180.55 126.65 181.2 126.7 M163.45 122.2 L166.3 124.1 M187.25 124.4 L187.9 124.4 Q189.3 124.4 190.1 125.8 190.85 127.1 190.85 129.1 190.85 130.3 190.0 131.3 L188.7 132.25 M36.55 127.2 L36.25 127.2 32.8 131.7 M27.1 132.4 L23.1 130.9 23.1 129.0 23.6 128.65 Q25.3 127.4 25.55 127.3 M16.8 137.35 L16.8 137.25 17.05 137.25 16.8 137.35" fill="none" stroke="#000000" stroke-linecap="round" stroke-linejoin="round" stroke-opacity="0.4" stroke-width="0.8"/>
      <path d="M121.0 109.0 Q122.6 107.8 124.05 107.8 L123.4 106.6 Q122.4 104.6 122.4 102.75 122.4 99.95 124.0 99.95 126.25 99.95 127.5 101.8 128.6 103.5 128.6 106.05 L128.4 107.45 128.35 107.65 Q128.8 106.8 130.25 105.7 132.55 103.9 134.45 103.9 135.5 103.9 136.3 105.05 137.05 106.05 137.05 106.85 137.05 108.9 135.05 110.15 133.35 111.3 131.3 111.3 L130.4 111.25 129.7 110.9 129.6 110.9 130.95 112.75 Q131.45 113.75 131.45 115.2 131.45 117.05 130.2 118.3 129.1 119.35 127.85 119.35 126.8 119.35 126.05 116.45 125.55 114.5 125.5 112.8 L125.5 112.65 Q125.35 114.1 124.8 114.55 L123.2 114.9 Q122.25 114.9 120.75 113.9 119.25 112.9 119.25 112.15 119.25 110.4 121.0 109.0 M125.3 109.25 L125.2 109.35 125.1 109.45 Q124.8 109.95 124.8 110.55 124.8 111.05 125.45 111.45 126.0 111.85 126.6 111.85 127.15 111.85 127.45 111.4 L127.65 110.7 Q127.65 110.15 127.15 109.6 126.6 109.05 126.1 109.05 L125.3 109.25" fill="#fffbc4" fill-rule="evenodd" stroke="none"/>
      <path d="M125.3 109.25 L126.1 109.05 Q126.6 109.05 127.15 109.6 127.65 110.15 127.65 110.7 L127.45 111.4 Q127.15 111.85 126.6 111.85 126.0 111.85 125.45 111.45 124.8 111.05 124.8 110.55 124.8 109.95 125.1 109.45 L125.2 109.35 125.3 109.25" fill="#bcb563" fill-rule="evenodd" stroke="none"/>
      <path d="M121.0 109.0 Q122.6 107.8 124.05 107.8 L123.4 106.6 Q122.4 104.6 122.4 102.75 122.4 99.95 124.0 99.95 126.25 99.95 127.5 101.8 128.6 103.5 128.6 106.05 L128.4 107.45 128.35 107.65 Q128.8 106.8 130.25 105.7 132.55 103.9 134.45 103.9 135.5 103.9 136.3 105.05 137.05 106.05 137.05 106.85 137.05 108.9 135.05 110.15 133.35 111.3 131.3 111.3 L130.4 111.25 129.7 110.9 129.6 110.9 130.95 112.75 Q131.45 113.75 131.45 115.2 131.45 117.05 130.2 118.3 129.1 119.35 127.85 119.35 126.8 119.35 126.05 116.45 125.55 114.5 125.5 112.8 L125.5 112.65 Q125.35 114.1 124.8 114.55 L123.2 114.9 Q122.25 114.9 120.75 113.9 119.25 112.9 119.25 112.15 119.25 110.4 121.0 109.0 Z" fill="none" stroke="#000000" stroke-linecap="round" stroke-linejoin="round" stroke-opacity="0.4" stroke-width="0.8"/>
      <path d="M53.0 117.1 Q53.25 116.3 53.8 116.3 54.95 116.3 55.75 117.95 L56.9 121.5 Q56.95 119.7 57.95 118.35 59.0 116.9 60.7 116.9 61.2 116.9 61.6 117.65 61.95 118.3 61.95 119.05 61.95 120.5 60.55 122.1 59.15 123.6 57.85 123.9 60.35 123.75 61.75 124.8 63.15 125.8 63.15 127.75 L62.95 128.5 62.05 128.65 59.45 128.05 Q57.95 127.45 57.7 126.8 L57.8 127.25 57.95 128.05 Q57.95 129.15 56.95 129.95 56.05 130.75 55.05 130.75 54.1 130.75 53.6 130.4 53.2 130.1 53.2 129.6 53.2 128.5 55.65 126.05 L54.85 126.25 53.75 126.5 Q52.2 126.5 51.6 125.9 51.1 125.5 51.1 124.65 51.1 124.05 51.85 123.55 52.55 123.15 53.05 123.15 L54.0 123.4 Q53.65 123.15 53.25 122.3 52.7 121.05 52.7 119.6 52.7 117.9 53.0 117.1 M54.1 123.45 L54.0 123.4 54.1 123.45 54.15 123.5 54.25 123.5 54.1 123.45 M56.9 121.75 L56.95 121.75 56.9 121.5 56.9 121.75 M55.5 123.4 Q55.15 123.85 55.15 124.45 55.15 124.85 55.65 125.25 L56.5 125.6 57.1 125.25 57.3 124.45 Q57.3 123.9 56.9 123.45 56.5 123.1 55.95 123.05 L55.5 123.4 M57.65 126.7 L57.65 126.75 57.7 126.8 57.65 126.7" fill="#b0f499" fill-rule="evenodd" stroke="none"/>
      <path d="M55.5 123.4 L55.95 123.05 Q56.5 123.1 56.9 123.45 57.3 123.9 57.3 124.45 L57.1 125.25 56.5 125.6 55.65 125.25 Q55.15 124.85 55.15 124.45 55.15 123.85 55.5 123.4" fill="#6fb259" fill-rule="evenodd" stroke="none"/>
      <path d="M53.0 117.1 Q53.25 116.3 53.8 116.3 54.95 116.3 55.75 117.95 L56.9 121.5 Q56.95 119.7 57.95 118.35 59.0 116.9 60.7 116.9 61.2 116.9 61.6 117.65 61.95 118.3 61.95 119.05 61.95 120.5 60.55 122.1 59.15 123.6 57.85 123.9 60.35 123.75 61.75 124.8 63.15 125.8 63.15 127.75 L62.95 128.5 62.05 128.65 59.45 128.05 Q57.95 127.45 57.7 126.8 L57.8 127.25 57.95 128.05 Q57.95 129.15 56.95 129.95 56.05 130.75 55.05 130.75 54.1 130.75 53.6 130.4 53.2 130.1 53.2 129.6 53.2 128.5 55.65 126.05 L54.85 126.25 53.75 126.5 Q52.2 126.5 51.6 125.9 51.1 125.5 51.1 124.65 51.1 124.05 51.85 123.55 52.55 123.15 53.05 123.15 L54.0 123.4 Q53.65 123.15 53.25 122.3 52.7 121.05 52.7 119.6 52.7 117.9 53.0 117.1 M54.0 123.4 L54.1 123.45 54.25 123.5 54.15 123.5 54.1 123.45 M56.9 121.75 L56.95 121.75 56.9 121.5 56.9 121.75 M57.65 126.7 L57.65 126.75 57.7 126.8 57.65 126.7" fill="none" stroke="#000000" stroke-linecap="round" stroke-linejoin="round" stroke-opacity="0.4" stroke-width="0.8"/>
      <path d="M137.7 28.9 Q138.4 29.4 138.4 30.7 138.4 33.55 135.15 35.75 132.2 37.8 128.45 38.35 133.85 41.5 133.85 46.75 133.85 48.25 133.35 48.85 132.7 49.55 130.9 49.55 129.0 49.55 125.75 46.8 122.75 44.15 122.65 43.1 L122.45 43.1 Q122.45 44.75 120.3 46.1 118.2 47.45 115.65 47.45 L111.25 46.75 Q109.0 45.9 109.1 43.8 109.25 42.1 112.3 39.5 L112.65 39.2 114.15 38.05 116.25 36.55 113.55 36.95 Q110.9 36.95 109.15 36.35 106.6 35.4 106.6 33.4 106.6 31.05 108.1 30.0 109.35 29.15 111.95 29.15 L114.0 29.3 Q114.5 29.35 116.7 30.3 117.35 30.6 118.2 31.75 L119.25 33.2 118.95 32.25 Q118.1 29.25 118.1 27.15 118.1 24.35 119.85 22.6 121.05 21.35 121.75 21.35 124.4 21.35 125.8 24.0 127.05 26.35 127.05 30.3 127.05 31.75 126.7 33.0 L126.35 34.25 Q128.75 31.1 130.3 29.95 132.4 28.35 135.2 28.35 137.0 28.35 137.7 28.9 M126.35 34.5 L126.35 34.25 126.35 34.5 M124.5 39.15 Q125.4 38.25 125.4 37.0 125.4 35.7 124.5 34.8 123.6 33.9 122.35 33.9 121.05 33.9 120.15 34.8 119.25 35.7 119.25 37.0 119.25 38.25 120.15 39.15 121.05 40.05 122.35 40.05 123.6 40.05 124.5 39.15" fill="#ffcccc" fill-rule="evenodd" stroke="none"/>
      <path d="M124.5 39.15 Q123.6 40.05 122.35 40.05 121.05 40.05 120.15 39.15 119.25 38.25 119.25 37.0 119.25 35.7 120.15 34.8 121.05 33.9 122.35 33.9 123.6 33.9 124.5 34.8 125.4 35.7 125.4 37.0 125.4 38.25 124.5 39.15" fill="#e2a0a0" fill-rule="evenodd" stroke="none"/>
      <path d="M137.7 28.9 Q138.4 29.4 138.4 30.7 138.4 33.55 135.15 35.75 132.2 37.8 128.45 38.35 133.85 41.5 133.85 46.75 133.85 48.25 133.35 48.85 132.7 49.55 130.9 49.55 129.0 49.55 125.75 46.8 122.75 44.15 122.65 43.1 L122.45 43.1 Q122.45 44.75 120.3 46.1 118.2 47.45 115.65 47.45 L111.25 46.75 Q109.0 45.9 109.1 43.8 109.25 42.1 112.3 39.5 L112.65 39.2 114.15 38.05 116.25 36.55 113.55 36.95 Q110.9 36.95 109.15 36.35 106.6 35.4 106.6 33.4 106.6 31.05 108.1 30.0 109.35 29.15 111.95 29.15 L114.0 29.3 Q114.5 29.35 116.7 30.3 117.35 30.6 118.2 31.75 L119.25 33.2 118.95 32.25 Q118.1 29.25 118.1 27.15 118.1 24.35 119.85 22.6 121.05 21.35 121.75 21.35 124.4 21.35 125.8 24.0 127.05 26.35 127.05 30.3 127.05 31.75 126.7 33.0 L126.35 34.25 Q128.75 31.1 130.3 29.95 132.4 28.35 135.2 28.35 137.0 28.35 137.7 28.9 M126.35 34.25 L126.35 34.5" fill="none" stroke="#000000" stroke-linecap="round" stroke-linejoin="round" stroke-opacity="0.4" stroke-width="0.8"/>
      <path d="M31.25 31.85 Q32.05 31.5 33.2 32.15 35.65 33.55 35.9 37.55 36.2 41.1 34.8 44.6 40.25 41.5 44.8 44.15 46.1 44.85 46.35 45.65 46.6 46.6 45.7 48.15 44.8 49.75 40.8 51.2 37.0 52.5 36.0 52.0 L35.9 52.15 Q37.35 52.95 37.45 55.55 37.55 58.1 36.3 60.3 35.05 62.45 33.5 63.75 31.6 65.25 29.85 64.1 28.45 63.15 27.75 59.2 L27.65 58.7 27.4 56.85 27.15 54.3 26.15 56.8 Q24.85 59.1 23.4 60.3 21.35 62.05 19.6 61.05 17.55 59.85 17.45 58.05 17.3 56.5 18.6 54.3 19.4 52.9 19.75 52.6 L21.95 50.8 Q22.55 50.35 24.0 50.15 L25.75 50.05 24.8 49.8 Q21.7 49.0 19.9 47.95 17.45 46.55 16.85 44.2 16.4 42.55 16.75 41.95 18.1 39.65 21.05 39.75 23.7 39.85 27.15 41.85 28.4 42.55 29.3 43.5 L30.2 44.35 Q28.7 40.75 28.5 38.8 28.15 36.2 29.5 33.8 30.45 32.25 31.25 31.85 M30.4 44.55 L30.2 44.35 30.4 44.55 M33.5 48.45 Q33.25 47.25 32.15 46.6 31.05 45.95 29.75 46.3 28.6 46.6 27.95 47.7 27.3 48.8 27.6 50.05 27.95 51.25 29.05 51.9 30.15 52.55 31.35 52.2 32.6 51.9 33.25 50.8 33.9 49.7 33.5 48.45" fill="#ffcccc" fill-rule="evenodd" stroke="none"/>
      <path d="M33.5 48.45 Q33.9 49.7 33.25 50.8 32.6 51.9 31.35 52.2 30.15 52.55 29.05 51.9 27.95 51.25 27.6 50.05 27.3 48.8 27.95 47.7 28.6 46.6 29.75 46.3 31.05 45.95 32.15 46.6 33.25 47.25 33.5 48.45" fill="#e2a0a0" fill-rule="evenodd" stroke="none"/>
      <path d="M31.25 31.85 Q32.05 31.5 33.2 32.15 35.65 33.55 35.9 37.55 36.2 41.1 34.8 44.6 40.25 41.5 44.8 44.15 46.1 44.85 46.35 45.65 46.6 46.6 45.7 48.15 44.8 49.75 40.8 51.2 37.0 52.5 36.0 52.0 L35.9 52.15 Q37.35 52.95 37.45 55.55 37.55 58.1 36.3 60.3 35.05 62.45 33.5 63.75 31.6 65.25 29.85 64.1 28.45 63.15 27.75 59.2 L27.65 58.7 27.4 56.85 27.15 54.3 26.15 56.8 Q24.85 59.1 23.4 60.3 21.35 62.05 19.6 61.05 17.55 59.85 17.45 58.05 17.3 56.5 18.6 54.3 19.4 52.9 19.75 52.6 L21.95 50.8 Q22.55 50.35 24.0 50.15 L25.75 50.05 24.8 49.8 Q21.7 49.0 19.9 47.95 17.45 46.55 16.85 44.2 16.4 42.55 16.75 41.95 18.1 39.65 21.05 39.75 23.7 39.85 27.15 41.85 28.4 42.55 29.3 43.5 L30.2 44.35 Q28.7 40.75 28.5 38.8 28.15 36.2 29.5 33.8 30.45 32.25 31.25 31.85 M30.2 44.35 L30.4 44.55" fill="none" stroke="#000000" stroke-linecap="round" stroke-linejoin="round" stroke-opacity="0.4" stroke-width="0.8"/>
      <path d="M97.55 53.9 L98.75 54.1 Q100.2 54.95 100.35 57.3 100.55 59.4 99.7 61.55 103.0 59.65 105.7 61.25 L106.65 62.2 Q106.85 62.7 106.3 63.65 105.7 64.65 103.3 65.45 101.05 66.25 100.4 66.0 L100.35 66.1 Q101.2 66.6 101.3 68.1 101.35 69.6 100.6 70.95 99.85 72.25 98.9 73.0 97.75 73.95 96.7 73.25 95.9 72.65 95.45 70.25 L95.4 70.05 95.25 68.9 95.1 67.35 94.5 68.85 92.85 70.95 Q91.6 72.0 90.55 71.4 89.35 70.7 89.25 69.6 89.2 68.7 89.95 67.35 L90.65 66.3 Q90.8 66.1 92.0 65.25 92.3 65.0 93.2 64.9 L94.25 64.75 93.7 64.65 Q91.85 64.2 90.75 63.55 89.3 62.7 88.9 61.3 88.65 60.25 88.85 59.9 89.65 58.5 91.4 58.6 93.05 58.65 95.1 59.85 L96.4 60.85 96.95 61.4 Q96.05 59.2 95.85 58.05 95.7 56.45 96.55 55.0 97.1 54.05 97.55 53.9 M97.05 61.45 L96.95 61.4 97.05 61.45 M98.9 63.85 Q98.75 63.1 98.1 62.7 L96.65 62.55 Q95.95 62.75 95.55 63.4 95.2 64.05 95.35 64.8 95.6 65.55 96.25 65.9 L97.6 66.1 Q98.4 65.9 98.75 65.25 99.15 64.6 98.9 63.85" fill="#ffcccc" fill-rule="evenodd" stroke="none"/>
      <path d="M98.9 63.85 Q99.15 64.6 98.75 65.25 98.4 65.9 97.6 66.1 L96.25 65.9 Q95.6 65.55 95.35 64.8 95.2 64.05 95.55 63.4 95.95 62.75 96.65 62.55 L98.1 62.7 Q98.75 63.1 98.9 63.85" fill="#e2a0a0" fill-rule="evenodd" stroke="none"/>
      <path d="M97.55 53.9 L98.75 54.1 Q100.2 54.95 100.35 57.3 100.55 59.4 99.7 61.55 103.0 59.65 105.7 61.25 L106.65 62.2 Q106.85 62.7 106.3 63.65 105.7 64.65 103.3 65.45 101.05 66.25 100.4 66.0 L100.35 66.1 Q101.2 66.6 101.3 68.1 101.35 69.6 100.6 70.95 99.85 72.25 98.9 73.0 97.75 73.95 96.7 73.25 95.9 72.65 95.45 70.25 L95.4 70.05 95.25 68.9 95.1 67.35 94.5 68.85 92.85 70.95 Q91.6 72.0 90.55 71.4 89.35 70.7 89.25 69.6 89.2 68.7 89.95 67.35 L90.65 66.3 Q90.8 66.1 92.0 65.25 92.3 65.0 93.2 64.9 L94.25 64.75 93.7 64.65 Q91.85 64.2 90.75 63.55 89.3 62.7 88.9 61.3 88.65 60.25 88.85 59.9 89.65 58.5 91.4 58.6 93.05 58.65 95.1 59.85 L96.4 60.85 96.95 61.4 Q96.05 59.2 95.85 58.05 95.7 56.45 96.55 55.0 97.1 54.05 97.55 53.9 M96.95 61.4 L97.05 61.45" fill="none" stroke="#000000" stroke-linecap="round" stroke-linejoin="round" stroke-opacity="0.4" stroke-width="0.8"/>
      <path d="M6.0 95.8 Q6.5 94.4 7.5 94.4 9.55 94.4 10.95 97.35 11.9 99.2 13.05 103.75 13.2 100.45 14.95 98.05 16.9 95.4 19.85 95.4 20.8 95.4 21.55 96.8 22.15 98.0 22.15 99.35 22.15 101.9 19.6 104.8 17.15 107.5 14.8 108.05 19.25 107.8 21.8 109.7 24.3 111.5 24.3 114.95 24.3 116.05 23.9 116.3 L22.35 116.55 Q20.3 116.55 17.65 115.5 14.95 114.45 14.45 113.3 L14.65 114.1 14.9 115.5 Q14.9 117.5 13.15 118.95 11.55 120.3 9.7 120.3 8.0 120.3 7.15 119.7 6.4 119.15 6.4 118.25 6.4 116.3 10.8 111.95 L9.4 112.3 7.4 112.7 Q4.65 112.7 3.5 111.7 2.65 110.9 2.65 109.35 2.65 108.3 4.0 107.45 5.2 106.7 6.15 106.7 L7.85 107.1 Q7.2 106.7 6.5 105.2 5.5 102.95 5.5 100.3 5.5 97.25 6.0 95.8 M8.05 107.25 L7.85 107.1 8.05 107.25 8.15 107.3 8.25 107.3 8.05 107.25 M13.05 104.15 L13.15 104.15 13.05 103.75 13.05 104.15 M10.55 107.2 Q9.9 107.95 9.9 109.05 9.9 109.8 10.8 110.45 11.6 111.05 12.35 111.05 13.0 111.05 13.4 110.45 13.8 109.85 13.8 109.05 13.8 108.0 13.05 107.25 12.3 106.6 11.35 106.55 10.9 106.75 10.55 107.2 M14.4 113.05 L14.4 113.2 14.45 113.3 14.4 113.05" fill="#b0f499" fill-rule="evenodd" stroke="none"/>
      <path d="M10.55 107.2 Q10.9 106.75 11.35 106.55 12.3 106.6 13.05 107.25 13.8 108.0 13.8 109.05 13.8 109.85 13.4 110.45 13.0 111.05 12.35 111.05 11.6 111.05 10.8 110.45 9.9 109.8 9.9 109.05 9.9 107.95 10.55 107.2" fill="#6fb259" fill-rule="evenodd" stroke="none"/>
      <path d="M6.0 95.8 Q6.5 94.4 7.5 94.4 9.55 94.4 10.95 97.35 11.9 99.2 13.05 103.75 13.2 100.45 14.95 98.05 16.9 95.4 19.85 95.4 20.8 95.4 21.55 96.8 22.15 98.0 22.15 99.35 22.15 101.9 19.6 104.8 17.15 107.5 14.8 108.05 19.25 107.8 21.8 109.7 24.3 111.5 24.3 114.95 24.3 116.05 23.9 116.3 L22.35 116.55 Q20.3 116.55 17.65 115.5 14.95 114.45 14.45 113.3 L14.65 114.1 14.9 115.5 Q14.9 117.5 13.15 118.95 11.55 120.3 9.7 120.3 8.0 120.3 7.15 119.7 6.4 119.15 6.4 118.25 6.4 116.3 10.8 111.95 L9.4 112.3 7.4 112.7 Q4.65 112.7 3.5 111.7 2.65 110.9 2.65 109.35 2.65 108.3 4.0 107.45 5.2 106.7 6.15 106.7 L7.85 107.1 Q7.2 106.7 6.5 105.2 5.5 102.95 5.5 100.3 5.5 97.25 6.0 95.8 M7.85 107.1 L8.05 107.25 8.25 107.3 8.15 107.3 8.05 107.25 M13.05 104.15 L13.15 104.15 13.05 103.75 13.05 104.15 M14.4 113.05 L14.4 113.2 14.45 113.3 14.4 113.05" fill="none" stroke="#000000" stroke-linecap="round" stroke-linejoin="round" stroke-opacity="0.4" stroke-width="0.8"/>
      <path d="M62.25 22.25 Q64.95 20.1 67.5 20.1 L66.3 18.05 Q64.6 14.7 64.6 11.5 64.6 6.65 67.35 6.65 71.2 6.65 73.35 9.85 75.25 12.7 75.25 17.1 L74.85 19.5 74.8 19.9 Q75.6 18.4 78.05 16.5 82.0 13.5 85.25 13.5 87.05 13.5 88.45 15.4 89.75 17.1 89.75 18.5 89.75 22.0 86.35 24.2 83.4 26.1 79.85 26.1 L78.3 26.05 Q78.05 26.05 77.15 25.45 L76.95 25.45 79.25 28.65 Q80.15 30.35 80.15 32.85 80.15 35.95 78.0 38.1 76.15 39.95 73.95 39.95 72.15 39.95 70.9 35.0 70.05 31.6 69.9 28.65 L69.9 28.45 Q69.65 30.95 68.7 31.7 68.0 32.3 66.0 32.3 64.35 32.3 61.8 30.6 59.25 28.9 59.25 27.6 59.25 24.6 62.25 22.25 M69.55 22.6 L69.4 22.8 69.3 22.95 Q68.7 23.8 68.7 24.85 68.7 25.75 69.85 26.4 70.8 27.05 71.8 27.05 72.75 27.05 73.25 26.3 73.6 25.8 73.6 25.1 73.6 24.15 72.75 23.2 71.85 22.25 70.95 22.25 L69.55 22.6" fill="#fffbc4" fill-rule="evenodd" stroke="none"/>
      <path d="M69.55 22.6 L70.95 22.25 Q71.85 22.25 72.75 23.2 73.6 24.15 73.6 25.1 73.6 25.8 73.25 26.3 72.75 27.05 71.8 27.05 70.8 27.05 69.85 26.4 68.7 25.75 68.7 24.85 68.7 23.8 69.3 22.95 L69.4 22.8 69.55 22.6" fill="#bcb563" fill-rule="evenodd" stroke="none"/>
      <path d="M62.25 22.25 Q64.95 20.1 67.5 20.1 L66.3 18.05 Q64.6 14.7 64.6 11.5 64.6 6.65 67.35 6.65 71.2 6.65 73.35 9.85 75.25 12.7 75.25 17.1 L74.85 19.5 74.8 19.9 Q75.6 18.4 78.05 16.5 82.0 13.5 85.25 13.5 87.05 13.5 88.45 15.4 89.75 17.1 89.75 18.5 89.75 22.0 86.35 24.2 83.4 26.1 79.85 26.1 L78.3 26.05 Q78.05 26.05 77.15 25.45 L76.95 25.45 79.25 28.65 Q80.15 30.35 80.15 32.85 80.15 35.95 78.0 38.1 76.15 39.95 73.95 39.95 72.15 39.95 70.9 35.0 70.05 31.6 69.9 28.65 L69.9 28.45 Q69.65 30.95 68.7 31.7 68.0 32.3 66.0 32.3 64.35 32.3 61.8 30.6 59.25 28.9 59.25 27.6 59.25 24.6 62.25 22.25 Z" fill="none" stroke="#000000" stroke-linecap="round" stroke-linejoin="round" stroke-opacity="0.4" stroke-width="0.8"/>
    </g>
  </defs>
</svg>
