<?xml version="1.0" encoding="UTF-8" standalone="no"?>
<svg xmlns:xlink="http://www.w3.org/1999/xlink" height="531.5px" width="460.6px" xmlns="http://www.w3.org/2000/svg">
  <g transform="matrix(1.0, 0.0, 0.0, 1.0, 193.65, 334.05)">
    <use height="197.7" transform="matrix(1.0, 0.0, 0.0, 1.0, -84.95, -270.4)" width="161.65" xlink:href="#shape0"/>
  </g>
  <defs>
    <g id="shape0" transform="matrix(1.0, 0.0, 0.0, 1.0, 84.95, 270.4)">
      <path d="M14.1 -241.6 Q15.45 -254.25 15.45 -257.9 15.45 -262.85 9.5 -264.55 5.7 -265.7 -3.4 -265.7 L-16.3 -264.15 -19.3 -263.8 -7.35 -267.8 Q20.15 -270.4 29.95 -269.75 34.35 -269.1 34.95 -266.7 L34.9 -261.55 34.9 -260.7 34.8 -259.7 Q34.5 -251.75 33.8 -244.0 L28.3 -243.35 14.1 -241.6 M28.35 -246.3 L28.3 -243.35 28.35 -246.3 M30.95 -223.55 L29.3 -215.2 12.5 -208.7 9.5 -207.55 11.5 -221.25 15.4 -221.75 30.95 -223.55 M76.2 -193.2 L76.2 -193.1 76.2 -192.85 Q76.2 -189.9 66.5 -183.35 59.0 -178.35 50.55 -174.2 L50.15 -175.9 48.4 -180.0 Q46.1 -184.75 39.65 -189.05 L41.35 -189.35 Q66.5 -194.25 72.65 -194.25 L75.25 -194.0 75.95 -193.65 76.2 -193.2 M-62.6 -157.65 L-67.5 -157.95 -74.15 -158.8 Q-84.45 -160.35 -84.45 -163.1 L-84.45 -163.25 -84.0 -163.8 Q-81.7 -165.85 -67.5 -168.75 L-59.5 -170.4 -55.7 -171.1 -53.35 -171.55 -53.85 -171.1 Q-58.6 -166.7 -60.05 -163.7 L-61.95 -159.5 -62.6 -157.65 M15.3 -216.75 L15.4 -221.75 15.3 -216.75 M38.95 -164.4 Q40.05 -162.0 40.05 -158.8 40.05 -155.5 38.95 -153.1 37.9 -150.8 36.35 -150.8 34.9 -150.8 33.8 -153.1 32.75 -155.5 32.75 -158.8 32.75 -162.0 33.8 -164.4 34.9 -166.7 36.35 -166.7 37.9 -166.7 38.95 -164.4 M17.1 -112.3 Q17.9 -113.45 19.25 -113.5 20.4 -113.6 21.2 -112.35 22.05 -111.2 22.05 -109.5 22.05 -107.85 21.2 -106.55 20.4 -105.3 19.25 -105.25 17.9 -105.25 17.1 -106.4 16.25 -107.6 16.25 -109.3 16.25 -111.0 17.1 -112.3 M6.05 -103.15 Q4.9 -103.15 4.05 -104.4 3.2 -105.7 3.2 -107.55 3.2 -109.35 4.05 -110.75 4.9 -112.05 6.05 -112.15 7.35 -112.15 8.2 -110.85 9.0 -109.6 9.0 -107.75 9.0 -105.9 8.2 -104.55 7.35 -103.25 6.05 -103.15 M34.6 -115.05 Q35.4 -114.0 35.4 -112.45 35.4 -110.9 34.6 -109.9 33.65 -108.75 32.45 -108.7 31.3 -108.7 30.45 -109.7 29.6 -110.75 29.6 -112.3 29.6 -113.75 30.45 -114.8 31.3 -115.95 32.45 -115.95 33.65 -116.05 34.6 -115.05 M41.5 -116.05 Q41.5 -117.3 42.4 -118.25 43.25 -119.2 44.4 -119.2 45.65 -119.25 46.55 -118.35 47.4 -117.5 47.4 -116.3 47.4 -115.05 46.55 -114.05 45.65 -113.2 44.4 -113.15 43.25 -113.15 42.4 -114.0 41.5 -114.75 41.5 -116.05 M-31.65 -162.65 Q-31.35 -164.0 -30.65 -165.1 -29.1 -167.45 -27.05 -167.45 -24.9 -167.45 -23.45 -165.1 L-22.75 -163.65 Q-22.0 -161.8 -22.0 -159.35 -22.0 -156.05 -23.45 -153.65 -24.9 -151.25 -27.05 -151.25 -29.1 -151.25 -30.65 -153.65 -32.1 -156.05 -32.1 -159.35 -32.1 -161.2 -31.65 -162.65 M-22.15 -114.0 Q-20.9 -114.0 -20.05 -113.0 -19.15 -111.9 -19.15 -110.35 -19.15 -108.85 -20.05 -107.85 -20.9 -106.7 -22.15 -106.7 -23.35 -106.6 -24.2 -107.6 -25.05 -108.7 -25.05 -110.2 -25.05 -111.65 -24.2 -112.75 -23.35 -113.9 -22.15 -114.0 M-36.2 -115.3 Q-35.35 -116.2 -34.1 -116.2 -32.9 -116.3 -31.95 -115.45 -31.1 -114.6 -31.1 -113.35 -31.1 -112.05 -31.95 -111.15 -32.9 -110.2 -34.1 -110.15 -35.35 -110.15 -36.2 -111.0 -37.05 -111.85 -37.05 -113.15 -37.05 -114.35 -36.2 -115.3 M-11.8 -108.2 Q-11.8 -109.9 -10.95 -111.2 -10.0 -112.45 -8.8 -112.5 -7.55 -112.5 -6.7 -111.3 -5.85 -110.15 -5.85 -108.45 -5.85 -106.75 -6.7 -105.45 -7.55 -104.25 -8.8 -104.25 -10.0 -104.15 -10.95 -105.3 -11.8 -106.55 -11.8 -108.2" fill="#1a1a1a" fill-rule="evenodd" stroke="none"/>
      <path d="M-19.3 -263.8 L-16.3 -264.15 -3.4 -265.7 Q5.7 -265.7 9.5 -264.55 15.45 -262.85 15.45 -257.9 15.45 -254.25 14.1 -241.6 L13.45 -241.6 13.45 -245.6 13.45 -241.6 4.05 -240.45 Q-0.2 -240.0 -0.2 -235.75 L-0.2 -229.65 -0.2 -224.2 Q-0.2 -219.9 4.05 -220.35 L11.5 -221.25 9.5 -207.55 -2.8 -202.75 -49.45 -193.65 -55.9 -213.65 Q-50.4 -216.35 -46.4 -220.1 L-43.25 -217.3 -46.4 -220.1 -43.7 -223.05 Q-39.95 -227.65 -38.2 -233.45 L-34.25 -232.65 -38.2 -233.45 Q-37.55 -235.55 -37.2 -237.85 -36.5 -241.9 -36.7 -246.5 L-36.85 -248.65 Q-37.1 -252.1 -37.8 -255.8 -29.75 -260.05 -19.3 -263.8 M-32.65 -247.0 L-36.7 -246.5 -32.65 -247.0 M-3.25 -229.15 L-0.2 -229.65 -3.25 -229.15" fill="#262626" fill-rule="evenodd" stroke="none"/>
      <path d="M14.1 -241.6 L28.3 -243.35 33.8 -244.0 Q32.75 -233.6 30.95 -223.55 L15.4 -221.75 11.5 -221.25 4.05 -220.35 Q-0.2 -219.9 -0.2 -224.2 L-0.2 -229.65 -0.2 -235.75 Q-0.2 -240.0 4.05 -240.45 L13.45 -241.6 14.1 -241.6 M28.3 -240.3 L28.3 -243.35 28.3 -240.3 M13.45 -236.85 L13.45 -241.6 13.45 -236.85 M3.75 -230.25 L-0.2 -229.65 3.75 -230.25 M15.45 -223.5 L15.4 -221.75 15.45 -223.5" fill="#36312b" fill-rule="evenodd" stroke="none"/>
      <path d="M-51.0 -173.85 L-49.45 -193.65 -2.8 -202.75 9.5 -207.55 12.5 -208.7 9.4 -206.9 3.55 -203.45 Q-10.7 -194.95 -12.15 -193.55 L-12.15 -192.8 -4.35 -191.65 -0.2 -191.1 10.65 -189.4 11.0 -189.4 Q10.25 -187.6 8.4 -185.45 L7.55 -184.45 -16.85 -179.8 -51.0 -173.85 M-30.65 -186.9 L-4.35 -191.65 -30.65 -186.9 M-2.8 -202.75 L-19.55 -196.4 -2.8 -202.75" fill="#ab1e1e" fill-rule="evenodd" stroke="none"/>
      <path d="M29.3 -215.2 L39.25 -190.8 7.55 -184.45 8.4 -185.45 Q10.25 -187.6 11.0 -189.4 L10.65 -189.4 -0.2 -191.1 -4.35 -191.65 -12.15 -192.8 -12.15 -193.55 Q-10.7 -194.95 3.55 -203.45 L9.4 -206.9 12.5 -208.7 29.3 -215.2 M5.4 -193.4 L-4.35 -191.65 5.4 -193.4" fill="#751515" fill-rule="evenodd" stroke="none"/>
      <path d="M39.25 -190.8 L41.35 -191.2 Q66.5 -196.15 72.65 -196.15 L75.25 -195.95 75.7 -195.7 76.2 -193.2 75.95 -193.65 75.25 -194.0 72.65 -194.25 Q66.5 -194.25 41.35 -189.35 L39.65 -189.05 4.9 -182.05 4.65 -182.05 -16.85 -177.9 -53.35 -171.55 -55.7 -171.1 -59.5 -170.4 -67.5 -168.75 Q-81.7 -165.85 -84.0 -163.8 L-84.45 -163.25 -84.45 -165.1 Q-83.9 -167.25 -67.5 -170.7 L-65.4 -171.1 -59.5 -172.3 -51.0 -173.85 -16.85 -179.8 7.55 -184.45 39.25 -190.8" fill="#333333" fill-rule="evenodd" stroke="none"/>
      <path d="M50.55 -174.2 L50.7 -172.75 50.85 -171.1 51.45 -164.8 51.45 -164.5 Q51.9 -160.5 52.75 -159.05 57.45 -150.75 59.6 -146.15 64.95 -134.75 64.95 -128.85 64.95 -125.7 61.2 -117.2 L60.6 -115.8 60.5 -115.95 59.6 -119.35 60.35 -121.8 Q61.15 -124.5 61.15 -126.4 61.15 -129.4 59.05 -132.3 L58.7 -132.85 Q56.0 -136.0 54.4 -138.25 53.6 -139.3 53.9 -141.6 L54.4 -145.65 53.75 -149.15 Q53.15 -151.65 52.55 -152.8 48.85 -159.65 44.35 -163.65 41.05 -166.55 37.05 -167.95 L35.8 -168.25 30.05 -167.7 15.45 -166.25 -11.8 -162.1 -16.85 -162.85 Q-20.2 -163.65 -21.7 -163.65 L-22.75 -163.65 -23.45 -165.1 Q-24.9 -167.45 -27.05 -167.45 -29.1 -167.45 -30.65 -165.1 -31.35 -164.0 -31.65 -162.65 L-37.95 -160.85 Q-46.55 -157.7 -51.05 -152.05 -53.55 -148.8 -54.9 -147.75 L-55.6 -147.3 Q-55.35 -149.65 -54.7 -152.2 -53.7 -155.75 -52.0 -157.8 -53.7 -155.75 -54.7 -152.2 -55.35 -149.65 -55.6 -147.3 -58.0 -145.75 -62.3 -144.5 -66.1 -143.45 -69.25 -140.7 L-68.35 -143.85 -67.5 -145.3 -65.65 -148.3 Q-63.8 -151.2 -63.65 -152.65 -63.5 -154.95 -62.6 -157.65 L-61.95 -159.5 -60.05 -163.7 Q-58.6 -166.7 -53.85 -171.1 L-53.35 -171.55 -16.85 -177.9 4.65 -182.05 4.9 -182.05 39.65 -189.05 Q46.1 -184.75 48.4 -180.0 L50.15 -175.9 50.55 -174.2 M55.6 -142.15 Q56.15 -141.7 57.2 -139.05 58.7 -135.7 58.7 -133.15 L58.7 -132.85 58.7 -133.15 Q58.7 -135.7 57.2 -139.05 56.15 -141.7 55.6 -142.15" fill="url(#gradient0)" fill-rule="evenodd" stroke="none"/>
      <path d="M60.6 -115.8 L57.45 -109.3 57.7 -108.55 57.9 -107.85 Q57.9 -97.85 54.3 -93.2 49.55 -86.95 33.9 -80.45 29.35 -78.65 25.5 -78.05 L19.15 -77.2 Q15.1 -76.0 10.7 -75.05 2.4 -73.2 -5.85 -73.2 -18.9 -73.2 -31.75 -76.9 -42.7 -80.15 -46.7 -84.45 -48.45 -84.9 -50.4 -85.9 -53.9 -87.65 -56.0 -90.25 -59.15 -94.25 -60.45 -97.3 -60.9 -98.4 -62.65 -101.0 -64.1 -103.25 -64.35 -104.55 -65.65 -111.9 -67.5 -116.9 L-68.95 -120.25 Q-70.7 -123.65 -70.7 -132.65 -70.7 -134.85 -69.7 -139.05 L-69.25 -140.7 Q-66.1 -143.45 -62.3 -144.5 -58.0 -145.75 -55.6 -147.3 L-54.9 -147.75 Q-53.55 -148.8 -51.05 -152.05 -46.55 -157.7 -37.95 -160.85 L-31.65 -162.65 Q-32.1 -161.2 -32.1 -159.35 -32.1 -156.05 -30.65 -153.65 -29.1 -151.25 -27.05 -151.25 -24.9 -151.25 -23.45 -153.65 -22.0 -156.05 -22.0 -159.35 -22.0 -161.8 -22.75 -163.65 L-21.7 -163.65 Q-20.2 -163.65 -16.85 -162.85 L-11.8 -162.1 15.45 -166.25 30.05 -167.7 35.8 -168.25 37.05 -167.95 Q41.05 -166.55 44.35 -163.65 48.85 -159.65 52.55 -152.8 53.15 -151.65 53.75 -149.15 L54.4 -145.65 53.9 -141.6 Q53.6 -139.3 54.4 -138.25 56.0 -136.0 58.7 -132.85 L58.15 -128.85 57.0 -124.4 58.15 -128.85 58.7 -132.85 59.05 -132.3 Q61.15 -129.4 61.15 -126.4 61.15 -124.5 60.35 -121.8 L59.6 -119.35 60.5 -115.95 60.6 -115.8 M38.95 -164.4 Q37.9 -166.7 36.35 -166.7 34.9 -166.7 33.8 -164.4 32.75 -162.0 32.75 -158.8 32.75 -155.5 33.8 -153.1 34.9 -150.8 36.35 -150.8 37.9 -150.8 38.95 -153.1 40.05 -155.5 40.05 -158.8 40.05 -162.0 38.95 -164.4 M24.9 -145.6 Q15.15 -148.65 9.85 -148.65 5.4 -148.65 1.35 -147.45 L-7.1 -144.6 -9.85 -143.75 -10.25 -143.6 Q-22.35 -139.85 -25.3 -138.25 L-22.7 -137.85 -22.3 -137.85 35.65 -140.05 Q35.2 -142.35 24.9 -145.6 M17.1 -112.3 Q16.25 -111.0 16.25 -109.3 16.25 -107.6 17.1 -106.4 17.9 -105.25 19.25 -105.25 20.4 -105.3 21.2 -106.55 22.05 -107.85 22.05 -109.5 22.05 -111.2 21.2 -112.35 20.4 -113.6 19.25 -113.5 17.9 -113.45 17.1 -112.3 M6.05 -103.15 Q7.35 -103.25 8.2 -104.55 9.0 -105.9 9.0 -107.75 9.0 -109.6 8.2 -110.85 7.35 -112.15 6.05 -112.15 4.9 -112.05 4.05 -110.75 3.2 -109.35 3.2 -107.55 3.2 -105.7 4.05 -104.4 4.9 -103.15 6.05 -103.15 M34.6 -115.05 Q33.65 -116.05 32.45 -115.95 31.3 -115.95 30.45 -114.8 29.6 -113.75 29.6 -112.3 29.6 -110.75 30.45 -109.7 31.3 -108.7 32.45 -108.7 33.65 -108.75 34.6 -109.9 35.4 -110.9 35.4 -112.45 35.4 -114.0 34.6 -115.05 M41.5 -116.05 Q41.5 -114.75 42.4 -114.0 43.25 -113.15 44.4 -113.15 45.65 -113.2 46.55 -114.05 47.4 -115.05 47.4 -116.3 47.4 -117.5 46.55 -118.35 45.65 -119.25 44.4 -119.2 43.25 -119.2 42.4 -118.25 41.5 -117.3 41.5 -116.05 M22.45 -94.25 L15.95 -91.95 Q11.8 -90.5 7.95 -90.5 L2.55 -91.05 7.95 -90.5 Q11.8 -90.5 15.95 -91.95 L22.45 -94.25 M43.5 -94.5 Q46.25 -95.4 48.6 -98.85 50.25 -101.25 51.15 -104.1 50.25 -101.25 48.6 -98.85 46.25 -95.4 43.5 -94.5 M-54.55 -138.7 Q-55.75 -142.2 -55.75 -145.2 L-55.7 -146.45 -55.7 -146.6 -55.6 -147.3 -55.7 -146.6 -55.7 -146.45 -55.75 -145.2 Q-55.75 -142.2 -54.55 -138.7 M-61.35 -120.65 L-62.35 -124.7 Q-63.2 -128.15 -63.2 -129.7 -63.2 -133.55 -60.75 -138.9 -58.35 -144.0 -55.7 -146.45 -58.35 -144.0 -60.75 -138.9 -63.2 -133.55 -63.2 -129.7 -63.2 -128.15 -62.35 -124.7 L-61.35 -120.65 M-11.8 -108.2 Q-11.8 -106.55 -10.95 -105.3 -10.0 -104.15 -8.8 -104.25 -7.55 -104.25 -6.7 -105.45 -5.85 -106.75 -5.85 -108.45 -5.85 -110.15 -6.7 -111.3 -7.55 -112.5 -8.8 -112.5 -10.0 -112.45 -10.95 -111.2 -11.8 -109.9 -11.8 -108.2 M-36.2 -115.3 Q-37.05 -114.35 -37.05 -113.15 -37.05 -111.85 -36.2 -111.0 -35.35 -110.15 -34.1 -110.15 -32.9 -110.2 -31.95 -111.15 -31.1 -112.05 -31.1 -113.35 -31.1 -114.6 -31.95 -115.45 -32.9 -116.3 -34.1 -116.2 -35.35 -116.2 -36.2 -115.3 M-22.15 -114.0 Q-23.35 -113.9 -24.2 -112.75 -25.05 -111.65 -25.05 -110.2 -25.05 -108.7 -24.2 -107.6 -23.35 -106.6 -22.15 -106.7 -20.9 -106.7 -20.05 -107.85 -19.15 -108.85 -19.15 -110.35 -19.15 -111.9 -20.05 -113.0 -20.9 -114.0 -22.15 -114.0 M-48.7 -91.25 Q-52.4 -92.65 -55.2 -97.3 -58.15 -102.1 -57.35 -106.15 -58.15 -102.1 -55.2 -97.3 -52.4 -92.65 -48.7 -91.25 M-15.25 -80.75 Q-17.75 -80.35 -21.35 -81.5 L-25.75 -83.05 -21.35 -81.5 Q-17.75 -80.35 -15.25 -80.75" fill="#ffffff" fill-rule="evenodd" stroke="none"/>
      <path d="M24.9 -145.6 Q35.2 -142.35 35.65 -140.05 L-22.3 -137.85 -22.7 -137.85 -25.3 -138.25 Q-22.35 -139.85 -10.25 -143.6 L-9.85 -143.75 -7.1 -144.6 1.35 -147.45 Q5.4 -148.65 9.85 -148.65 15.15 -148.65 24.9 -145.6" fill="#e6e6e6" fill-rule="evenodd" stroke="none"/>
      <path d="M-37.8 -255.8 Q-37.1 -252.1 -36.85 -248.65 L-36.7 -246.5 Q-36.5 -241.9 -37.2 -237.85 -37.55 -235.55 -38.2 -233.45 -39.95 -227.65 -43.7 -223.05 L-46.4 -220.1 Q-50.4 -216.35 -55.9 -213.65 L-63.5 -237.25 Q-64.1 -240.85 -59.0 -245.2 L-37.8 -255.8 M-48.7 -222.25 L-46.4 -220.1 -48.7 -222.25 M-38.2 -233.45 L-40.35 -233.95 -38.2 -233.45 M-39.4 -246.15 L-36.7 -246.5 -39.4 -246.15" fill="#283628" fill-rule="evenodd" stroke="none"/>
      <path d="M14.1 -241.6 L28.3 -243.35 28.35 -246.3 M33.8 -244.0 Q34.5 -251.75 34.8 -259.7 L34.9 -260.7 34.9 -261.55 34.95 -266.7 Q34.35 -269.1 29.95 -269.75 20.15 -270.4 -7.35 -267.8 L-19.3 -263.8 Q-29.75 -260.05 -37.8 -255.8 -37.1 -252.1 -36.85 -248.65 L-36.7 -246.5 -32.65 -247.0 M28.3 -243.35 L33.8 -244.0 Q32.75 -233.6 30.95 -223.55 L29.3 -215.2 39.25 -190.8 41.35 -191.2 Q66.5 -196.15 72.65 -196.15 L75.25 -195.95 75.7 -195.7 76.2 -193.2 76.2 -193.1 76.2 -192.85 Q76.2 -189.9 66.5 -183.35 59.0 -178.35 50.55 -174.2 L50.7 -172.75 50.85 -171.1 51.45 -164.8 51.45 -164.5 Q51.9 -160.5 52.75 -159.05 57.45 -150.75 59.6 -146.15 64.95 -134.75 64.95 -128.85 64.95 -125.7 61.2 -117.2 L60.6 -115.8 57.45 -109.3 57.7 -108.55 57.9 -107.85 Q57.9 -97.85 54.3 -93.2 49.55 -86.95 33.9 -80.45 29.35 -78.65 25.5 -78.05 L19.15 -77.2 Q15.1 -76.0 10.7 -75.05 2.4 -73.2 -5.85 -73.2 -18.9 -73.2 -31.75 -76.9 -42.7 -80.15 -46.7 -84.45 -48.45 -84.9 -50.4 -85.9 -53.9 -87.65 -56.0 -90.25 -59.15 -94.25 -60.45 -97.3 -60.9 -98.4 -62.65 -101.0 -64.1 -103.25 -64.35 -104.55 -65.65 -111.9 -67.5 -116.9 L-68.95 -120.25 Q-70.7 -123.65 -70.7 -132.65 -70.7 -134.85 -69.7 -139.05 L-69.25 -140.7 -68.35 -143.85 -67.5 -145.3 -65.65 -148.3 Q-63.8 -151.2 -63.65 -152.65 -63.5 -154.95 -62.6 -157.65 L-67.5 -157.95 -74.15 -158.8 Q-84.45 -160.35 -84.45 -163.1 L-84.45 -163.25 -84.45 -165.1 Q-83.9 -167.25 -67.5 -170.7 L-65.4 -171.1 -59.5 -172.3 -51.0 -173.85 -49.45 -193.65 -55.9 -213.65 -63.5 -237.25 Q-64.1 -240.85 -59.0 -245.2 L-37.8 -255.8 M28.3 -243.35 L28.3 -240.3 M14.1 -241.6 L13.45 -241.6 13.45 -236.85 M13.45 -245.6 L13.45 -241.6 4.05 -240.45 Q-0.2 -240.0 -0.2 -235.75 L-0.2 -229.65 3.75 -230.25 M11.5 -221.25 L4.05 -220.35 Q-0.2 -219.9 -0.2 -224.2 L-0.2 -229.65 -3.25 -229.15 M-4.35 -191.65 L5.4 -193.4 M9.5 -207.55 L12.5 -208.7 29.3 -215.2 M15.4 -221.75 L15.3 -216.75 M11.5 -221.25 L15.4 -221.75 15.45 -223.5 M30.95 -223.55 L15.4 -221.75 M39.65 -189.05 L41.35 -189.35 Q66.5 -194.25 72.65 -194.25 L75.25 -194.0 75.95 -193.65 76.2 -193.2 M39.65 -189.05 Q46.1 -184.75 48.4 -180.0 L50.15 -175.9 50.55 -174.2 M58.7 -132.85 L58.7 -133.15 Q58.7 -135.7 57.2 -139.05 56.15 -141.7 55.6 -142.15 M4.9 -182.05 L39.65 -189.05 M7.55 -184.45 L39.25 -190.8 M38.95 -164.4 Q40.05 -162.0 40.05 -158.8 40.05 -155.5 38.95 -153.1 37.9 -150.8 36.35 -150.8 34.9 -150.8 33.8 -153.1 32.75 -155.5 32.75 -158.8 32.75 -162.0 33.8 -164.4 34.9 -166.7 36.35 -166.7 37.9 -166.7 38.95 -164.4 M17.1 -112.3 Q16.25 -111.0 16.25 -109.3 16.25 -107.6 17.1 -106.4 17.9 -105.25 19.25 -105.25 20.4 -105.3 21.2 -106.55 22.05 -107.85 22.05 -109.5 22.05 -111.2 21.2 -112.35 20.4 -113.6 19.25 -113.5 17.9 -113.45 17.1 -112.3 M6.05 -103.15 Q4.9 -103.15 4.05 -104.4 3.2 -105.7 3.2 -107.55 3.2 -109.35 4.05 -110.75 4.9 -112.05 6.05 -112.15 7.35 -112.15 8.2 -110.85 9.0 -109.6 9.0 -107.75 9.0 -105.9 8.2 -104.55 7.35 -103.25 6.05 -103.15 M34.6 -115.05 Q33.65 -116.05 32.45 -115.95 31.3 -115.95 30.45 -114.8 29.6 -113.75 29.6 -112.3 29.6 -110.75 30.45 -109.7 31.3 -108.7 32.45 -108.7 33.65 -108.75 34.6 -109.9 35.4 -110.9 35.4 -112.45 35.4 -114.0 34.6 -115.05 M58.7 -132.85 L58.15 -128.85 57.0 -124.4 M41.5 -116.05 Q41.5 -114.75 42.4 -114.0 43.25 -113.15 44.4 -113.15 45.65 -113.2 46.55 -114.05 47.4 -115.05 47.4 -116.3 47.4 -117.5 46.55 -118.35 45.65 -119.25 44.4 -119.2 43.25 -119.2 42.4 -118.25 41.5 -117.3 41.5 -116.05 M51.15 -104.1 Q50.25 -101.25 48.6 -98.85 46.25 -95.4 43.5 -94.5 M2.55 -91.05 L7.95 -90.5 Q11.8 -90.5 15.95 -91.95 L22.45 -94.25 M-55.9 -213.65 Q-50.4 -216.35 -46.4 -220.1 L-48.7 -222.25 M-46.4 -220.1 L-43.25 -217.3 M-38.2 -233.45 Q-39.95 -227.65 -43.7 -223.05 L-46.4 -220.1 M-38.2 -233.45 L-34.25 -232.65 M-40.35 -233.95 L-38.2 -233.45 Q-37.55 -235.55 -37.2 -237.85 -36.5 -241.9 -36.7 -246.5 L-39.4 -246.15 M-31.65 -162.65 Q-31.35 -164.0 -30.65 -165.1 -29.1 -167.45 -27.05 -167.45 -24.9 -167.45 -23.45 -165.1 L-22.75 -163.65 Q-22.0 -161.8 -22.0 -159.35 -22.0 -156.05 -23.45 -153.65 -24.9 -151.25 -27.05 -151.25 -29.1 -151.25 -30.65 -153.65 -32.1 -156.05 -32.1 -159.35 -32.1 -161.2 -31.65 -162.65 M-55.6 -147.3 L-55.7 -146.6 -55.7 -146.45 -55.75 -145.2 Q-55.75 -142.2 -54.55 -138.7 M-4.35 -191.65 L-30.65 -186.9 M-53.35 -171.55 L-53.85 -171.1 Q-58.6 -166.7 -60.05 -163.7 L-61.95 -159.5 -62.6 -157.65 M-84.45 -163.25 L-84.0 -163.8 Q-81.7 -165.85 -67.5 -168.75 L-59.5 -170.4 -55.7 -171.1 -53.35 -171.55 -16.85 -177.9 4.65 -182.05 M-52.0 -157.8 Q-53.7 -155.75 -54.7 -152.2 -55.35 -149.65 -55.6 -147.3 M-55.7 -146.45 Q-58.35 -144.0 -60.75 -138.9 -63.2 -133.55 -63.2 -129.7 -63.2 -128.15 -62.35 -124.7 L-61.35 -120.65 M-22.15 -114.0 Q-20.9 -114.0 -20.05 -113.0 -19.15 -111.9 -19.15 -110.35 -19.15 -108.85 -20.05 -107.85 -20.9 -106.7 -22.15 -106.7 -23.35 -106.6 -24.2 -107.6 -25.05 -108.7 -25.05 -110.2 -25.05 -111.65 -24.2 -112.75 -23.35 -113.9 -22.15 -114.0 M-36.2 -115.3 Q-35.35 -116.2 -34.1 -116.2 -32.9 -116.3 -31.95 -115.45 -31.1 -114.6 -31.1 -113.35 -31.1 -112.05 -31.95 -111.15 -32.9 -110.2 -34.1 -110.15 -35.35 -110.15 -36.2 -111.0 -37.05 -111.85 -37.05 -113.15 -37.05 -114.35 -36.2 -115.3 M-11.8 -108.2 Q-11.8 -109.9 -10.95 -111.2 -10.0 -112.45 -8.8 -112.5 -7.55 -112.5 -6.7 -111.3 -5.85 -110.15 -5.85 -108.45 -5.85 -106.75 -6.7 -105.45 -7.55 -104.25 -8.8 -104.25 -10.0 -104.15 -10.95 -105.3 -11.8 -106.55 -11.8 -108.2 M7.55 -184.45 L-16.85 -179.8 -51.0 -173.85 M-25.75 -83.05 L-21.35 -81.5 Q-17.75 -80.35 -15.25 -80.75 M-57.35 -106.15 Q-58.15 -102.1 -55.2 -97.3 -52.4 -92.65 -48.7 -91.25 M-49.45 -193.65 L-2.8 -202.75 9.5 -207.55 M-19.55 -196.4 L-2.8 -202.75" fill="none" stroke="#000000" stroke-linecap="round" stroke-linejoin="round" stroke-opacity="0.6627451" stroke-width="1.0"/>
    </g>
    <linearGradient gradientTransform="matrix(0.0028, 0.0204, -0.0443, 0.0061, 0.25, -168.25)" gradientUnits="userSpaceOnUse" id="gradient0" spreadMethod="pad" x1="-819.2" x2="819.2">
      <stop offset="0.0" stop-color="#666666"/>
      <stop offset="1.0" stop-color="#ffffff"/>
    </linearGradient>
  </defs>
</svg>
