<?xml version="1.0" encoding="UTF-8" standalone="no"?>
<svg xmlns:xlink="http://www.w3.org/1999/xlink" height="531.5px" width="460.6px" xmlns="http://www.w3.org/2000/svg">
  <g transform="matrix(1.0, 0.0, 0.0, 1.0, 193.65, 334.05)">
    <use height="165.4" transform="matrix(0.858, 0.0, 0.0, 0.858, -81.1893, -208.453)" width="184.65" xlink:href="#shape0"/>
  </g>
  <defs>
    <g id="shape0" transform="matrix(1.0, 0.0, 0.0, 1.0, 92.3, 82.7)">
      <path d="M-27.75 -23.5 L-27.75 -30.7 Q-27.75 -32.75 -26.35 -34.2 -24.9 -35.6 -22.85 -35.6 -20.8 -35.6 -19.4 -34.2 -17.95 -32.75 -17.95 -30.7 L-17.95 -27.25 -17.95 -22.1 Q-17.95 -20.05 -19.4 -18.65 -20.8 -17.2 -22.85 -17.2 -24.9 -17.2 -26.35 -18.65 -27.75 -20.05 -27.75 -22.1 L-27.75 -23.5 M50.05 -23.9 L50.05 -27.7 Q50.05 -29.4 51.25 -30.6 52.45 -31.8 54.15 -31.8 55.85 -31.8 57.05 -30.6 58.25 -29.4 58.25 -27.7 L58.25 -20.3 58.05 -18.9 Q57.75 -18.1 57.05 -17.4 L57.0 -17.35 56.3 -16.8 Q55.35 -16.2 54.15 -16.2 52.95 -16.2 52.0 -16.8 L51.25 -17.4 Q50.05 -18.6 50.05 -20.3 L50.05 -23.9" fill="#000000" fill-rule="evenodd" stroke="none"/>
      <path d="M-17.95 -27.25 Q-11.85 -29.3 -6.85 -30.4 L3.85 -32.1 15.1 -32.25 16.6 -32.2 16.7 -32.2 27.4 -31.85 Q39.75 -30.7 48.6 -24.9 L50.05 -23.9 50.05 -20.3 Q50.05 -18.6 51.25 -17.4 L52.0 -16.8 Q52.95 -16.2 54.15 -16.2 55.35 -16.2 56.3 -16.8 L57.0 -17.35 57.35 -16.95 Q60.55 -13.0 62.5 -8.75 L57.85 -10.75 48.25 -14.05 Q36.4 -17.5 24.05 -18.0 1.1 -14.1 -13.75 1.0 -13.95 3.2 -10.55 6.7 L-9.6 9.1 Q-8.45 11.3 -5.95 14.6 13.3 27.8 22.05 28.4 27.9 28.4 48.8 13.4 L63.6 13.6 64.3 13.6 63.45 16.1 Q60.15 24.65 51.3 31.05 L47.85 33.3 19.45 36.4 Q6.5 37.3 -9.7 35.3 -16.8 32.8 -23.35 29.15 L-24.35 28.6 Q-34.8 22.5 -41.3 14.85 -48.35 6.65 -48.35 -0.8 -48.35 -14.25 -27.75 -23.5 L-27.75 -22.1 Q-27.75 -20.05 -26.35 -18.65 -24.9 -17.2 -22.85 -17.2 -20.8 -17.2 -19.4 -18.65 -17.95 -20.05 -17.95 -22.1 L-17.95 -27.25" fill="#ffffff" fill-rule="evenodd" stroke="none"/>
      <path d="M16.6 -32.2 L15.1 -32.25 3.85 -32.1 -6.85 -30.4 Q-11.85 -29.3 -17.95 -27.25 L-17.95 -30.7 Q-17.95 -32.75 -19.4 -34.2 -20.8 -35.6 -22.85 -35.6 -24.9 -35.6 -26.35 -34.2 -27.75 -32.75 -27.75 -30.7 L-27.75 -23.5 Q-48.35 -14.25 -48.35 -0.8 -48.35 6.65 -41.3 14.85 -34.8 22.5 -24.35 28.6 L-23.35 29.15 Q-16.8 32.8 -9.7 35.3 L-16.45 34.35 -24.75 32.9 Q-48.45 25.9 -62.55 16.2 -62.0 4.95 -55.35 -4.0 -50.75 -38.8 -36.55 -54.6 -17.5 -55.1 16.6 -32.2 M16.7 -32.2 Q39.4 -49.15 54.45 -50.0 63.95 -42.45 68.8 -30.1 L63.1 -8.5 62.5 -8.75 Q60.55 -13.0 57.35 -16.95 L57.0 -17.35 57.05 -17.4 Q57.75 -18.1 58.05 -18.9 L58.25 -20.3 58.25 -27.7 Q58.25 -29.4 57.05 -30.6 55.85 -31.8 54.15 -31.8 52.45 -31.8 51.25 -30.6 50.05 -29.4 50.05 -27.7 L50.05 -23.9 48.6 -24.9 Q39.75 -30.7 27.4 -31.85 L16.7 -32.2 M67.05 13.5 L69.95 25.0 Q68.8 26.8 66.25 28.4 62.7 30.55 56.55 32.35 L47.85 33.3 51.3 31.05 Q60.15 24.65 63.45 16.1 L64.3 13.6 65.8 13.6 67.05 13.5" fill="#dddddd" fill-rule="evenodd" stroke="none"/>
      <path d="M16.2 -10.7 Q16.85 -10.35 16.85 -9.2 16.85 -8.2 14.75 -6.9 12.6 -5.6 10.9 -5.6 L8.85 -5.9 Q7.85 -6.2 7.85 -6.65 7.85 -7.6 11.05 -9.6 L14.05 -11.15 16.2 -10.7" fill="#a56300" fill-rule="evenodd" stroke="none"/>
      <path d="M16.2 -10.7 L14.05 -11.15 11.05 -9.6 Q7.85 -7.6 7.85 -6.65 7.85 -6.2 8.85 -5.9 L10.9 -5.6 Q12.6 -5.6 14.75 -6.9 16.85 -8.2 16.85 -9.2 16.85 -10.35 16.2 -10.7 M62.5 -8.75 L63.1 -8.5 63.9 -8.1 67.55 -6.35 Q80.0 0.0 91.85 9.8 83.1 11.95 72.1 13.05 L67.05 13.5 65.8 13.6 64.3 13.6 63.6 13.6 48.8 13.4 2.7 10.75 1.55 10.6 -9.6 9.1 -10.55 6.7 Q-13.95 3.2 -13.75 1.0 1.1 -14.1 24.05 -18.0 36.4 -17.5 48.25 -14.05 L57.85 -10.75 62.5 -8.75 M-9.5 7.75 L-10.55 6.7 -9.5 7.75" fill="#ff9900" fill-rule="evenodd" stroke="none"/>
      <path d="M79.25 50.15 Q90.2 67.9 90.05 79.6 79.35 79.3 64.7 68.4 L68.85 66.4 Q77.2 60.15 79.25 50.15 M-41.75 63.9 Q-70.35 84.1 -91.15 82.0 -94.9 64.65 -77.7 48.05 -76.55 50.85 -74.8 53.25 L-74.45 53.45 Q-66.65 58.25 -41.75 63.9" fill="#333333" fill-rule="evenodd" stroke="none"/>
      <path d="M38.85 -62.15 Q35.5 -61.2 31.85 -59.6 35.5 -61.2 38.85 -62.15 50.3 -65.3 59.4 -62.5 66.55 -55.7 71.05 -42.2 73.05 -31.65 69.45 -19.8 67.05 -13.55 67.55 -6.35 L63.9 -8.1 63.1 -8.5 68.8 -30.1 Q63.95 -42.45 54.45 -50.0 39.4 -49.15 16.7 -32.2 L16.6 -32.2 Q-17.5 -55.1 -36.55 -54.6 -50.75 -38.8 -55.35 -4.0 -62.0 4.95 -62.55 16.2 -48.45 25.9 -24.75 32.9 L-16.45 34.35 -9.7 35.3 Q6.5 37.3 19.45 36.4 L47.85 33.3 56.55 32.35 Q62.7 30.55 66.25 28.4 68.8 26.8 69.95 25.0 L67.05 13.5 72.1 13.05 79.85 40.8 Q80.15 45.8 79.25 50.15 77.2 60.15 68.85 66.4 L64.7 68.4 Q54.5 72.75 41.45 73.0 L-32.75 65.8 -41.75 63.9 Q-66.65 58.25 -74.45 53.45 L-74.8 53.25 Q-76.55 50.85 -77.7 48.05 -79.15 44.45 -79.55 40.2 -80.2 33.0 -73.15 20.6 L-75.15 -0.8 Q-78.15 -19.25 -73.15 -32.6 -71.15 -37.3 -68.45 -41.5 -77.55 -43.55 -83.15 -49.8 -86.35 -54.05 -73.15 -63.0 -50.65 -77.85 -29.95 -82.2 -7.95 -82.15 29.85 -65.6 35.75 -65.3 38.85 -62.15 M-57.75 -54.0 Q-64.05 -48.35 -68.45 -41.5 -64.05 -48.35 -57.75 -54.0 M69.45 -28.4 L68.8 -30.1 69.45 -28.4 M70.85 22.2 Q70.8 23.65 69.95 25.0 70.8 23.65 70.85 22.2 M-21.95 -63.6 Q-30.05 -68.0 -39.85 -67.05 -45.6 -64.1 -49.95 -59.8 -45.6 -64.1 -39.85 -67.05 -30.05 -68.0 -21.95 -63.6" fill="url(#gradient0)" fill-rule="evenodd" stroke="none"/>
      <path d="M48.8 13.4 Q27.9 28.4 22.05 28.4 13.3 27.8 -5.95 14.6 -8.45 11.3 -9.6 9.1 L1.55 10.6 2.7 10.75 48.8 13.4" fill="#db8300" fill-rule="evenodd" stroke="none"/>
      <path d="M31.85 -59.6 Q35.5 -61.2 38.85 -62.15 35.75 -65.3 29.85 -65.6 -7.95 -82.15 -29.95 -82.2 -50.65 -77.85 -73.15 -63.0 -86.35 -54.05 -83.15 -49.8 -77.55 -43.55 -68.45 -41.5 -64.05 -48.35 -57.75 -54.0 M16.6 -32.2 Q-17.5 -55.1 -36.55 -54.6 -50.75 -38.8 -55.35 -4.0 -62.0 4.95 -62.55 16.2 -48.45 25.9 -24.75 32.9 L-16.45 34.35 -9.7 35.3 Q6.5 37.3 19.45 36.4 L47.85 33.3 56.55 32.35 Q62.7 30.55 66.25 28.4 68.8 26.8 69.95 25.0 70.8 23.65 70.85 22.2 M-27.75 -23.5 L-27.75 -30.7 Q-27.75 -32.75 -26.35 -34.2 -24.9 -35.6 -22.85 -35.6 -20.8 -35.6 -19.4 -34.2 -17.95 -32.75 -17.95 -30.7 L-17.95 -27.25 -17.95 -22.1 Q-17.95 -20.05 -19.4 -18.65 -20.8 -17.2 -22.85 -17.2 -24.9 -17.2 -26.35 -18.65 -27.75 -20.05 -27.75 -22.1 L-27.75 -23.5 M16.6 -32.2 L16.7 -32.2 Q39.4 -49.15 54.45 -50.0 63.95 -42.45 68.8 -30.1 L69.45 -28.4 M16.2 -10.7 L14.05 -11.15 11.05 -9.6 Q7.85 -7.6 7.85 -6.65 7.85 -6.2 8.85 -5.9 L10.9 -5.6 Q12.6 -5.6 14.75 -6.9 16.85 -8.2 16.85 -9.2 16.85 -10.35 16.2 -10.7 M50.05 -23.9 L50.05 -27.7 Q50.05 -29.4 51.25 -30.6 52.45 -31.8 54.15 -31.8 55.85 -31.8 57.05 -30.6 58.25 -29.4 58.25 -27.7 L58.25 -20.3 58.05 -18.9 Q57.75 -18.1 57.05 -17.4 L57.0 -17.35 56.3 -16.8 Q55.35 -16.2 54.15 -16.2 52.95 -16.2 52.0 -16.8 L51.25 -17.4 Q50.05 -18.6 50.05 -20.3 L50.05 -23.9 M62.5 -8.75 L63.1 -8.5 68.8 -30.1 M-9.6 9.1 L-10.55 6.7 Q-13.95 3.2 -13.75 1.0 1.1 -14.1 24.05 -18.0 36.4 -17.5 48.25 -14.05 L57.85 -10.75 62.5 -8.75 M67.55 -6.35 Q67.05 -13.55 69.45 -19.8 73.05 -31.65 71.05 -42.2 66.55 -55.7 59.4 -62.5 50.3 -65.3 38.85 -62.15 M63.1 -8.5 L63.9 -8.1 67.55 -6.35 Q80.0 0.0 91.85 9.8 83.1 11.95 72.1 13.05 L79.85 40.8 Q80.15 45.8 79.25 50.15 90.2 67.9 90.05 79.6 79.35 79.3 64.7 68.4 54.5 72.75 41.45 73.0 L-32.75 65.8 -41.75 63.9 Q-70.35 84.1 -91.15 82.0 -94.9 64.65 -77.7 48.05 -79.15 44.45 -79.55 40.2 -80.2 33.0 -73.15 20.6 L-75.15 -0.8 Q-78.15 -19.25 -73.15 -32.6 -71.15 -37.3 -68.45 -41.5 M64.3 13.6 L63.6 13.6 48.8 13.4 Q27.9 28.4 22.05 28.4 13.3 27.8 -5.95 14.6 -8.45 11.3 -9.6 9.1 M1.55 10.6 L2.7 10.75 48.8 13.4 M72.1 13.05 L67.05 13.5 69.95 25.0 M67.05 13.5 L65.8 13.6 64.3 13.6 M64.7 68.4 L68.85 66.4 Q77.2 60.15 79.25 50.15 M-49.95 -59.8 Q-45.6 -64.1 -39.85 -67.05 -30.05 -68.0 -21.95 -63.6 M-10.55 6.7 L-9.5 7.75 M-77.7 48.05 Q-76.55 50.85 -74.8 53.25 L-74.45 53.45 Q-66.65 58.25 -41.75 63.9" fill="none" stroke="#000000" stroke-linecap="round" stroke-linejoin="round" stroke-opacity="0.4" stroke-width="1.0"/>
    </g>
    <linearGradient gradientTransform="matrix(-0.0031, -0.0998, 0.0947, -0.003, -1.95, -4.6)" gradientUnits="userSpaceOnUse" id="gradient0" spreadMethod="pad" x1="-819.2" x2="819.2">
      <stop offset="0.0" stop-color="#000000"/>
      <stop offset="1.0" stop-color="#191919"/>
    </linearGradient>
  </defs>
</svg>
