<?xml version="1.0" encoding="UTF-8" standalone="no"?>
<svg xmlns:xlink="http://www.w3.org/1999/xlink" height="531.5px" width="460.6px" xmlns="http://www.w3.org/2000/svg">
  <g transform="matrix(1.0, 0.0, 0.0, 1.0, 193.65, 334.05)">
    <use height="73.35" transform="matrix(1.0, 0.0, 0.0, 1.0, -79.5, -222.6)" width="161.85" xlink:href="#shape0"/>
  </g>
  <defs>
    <g id="shape0" transform="matrix(1.0, 0.0, 0.0, 1.0, 79.5, 222.6)">
      <path d="M-19.55 -216.55 Q-15.6 -213.55 -12.25 -211.9 -6.65 -209.2 -1.0 -209.2 3.25 -209.2 9.8 -210.7 L14.45 -211.9 Q-1.2 -213.05 -19.55 -216.55 L-21.05 -216.75 -19.55 -216.55 M18.7 -211.65 L14.45 -211.9 18.7 -211.65 M51.0 -168.35 L52.0 -168.1 52.4 -167.95 55.8 -167.0 57.05 -166.0 Q59.0 -164.15 59.0 -161.55 59.0 -157.65 52.4 -155.75 45.15 -153.55 29.5 -153.55 L20.9 -153.55 11.0 -154.4 5.85 -155.25 -12.15 -158.75 -28.75 -161.8 Q-82.25 -171.1 -78.8 -174.65 -74.45 -177.15 -51.7 -181.2 L-51.7 -180.45 Q-24.9 -173.4 -3.2 -170.0 L-0.6 -169.5 9.4 -167.8 14.3 -167.15 14.95 -167.1 17.35 -166.7 26.1 -165.35 36.05 -164.1 45.65 -163.7 Q47.45 -163.7 49.2 -164.35 L50.2 -165.05 51.0 -165.65 51.3 -166.7 51.0 -168.35 M-50.1 -197.1 Q-48.6 -208.6 -46.55 -217.0 -31.2 -222.45 -17.45 -222.1 9.55 -222.3 32.1 -218.8 41.95 -202.45 47.55 -184.65 42.9 -182.75 25.7 -184.8 -12.85 -188.2 -50.1 -197.1" fill="#660000" fill-rule="evenodd" stroke="none"/>
      <path d="M14.45 -211.9 L9.8 -210.7 Q3.25 -209.2 -1.0 -209.2 -6.65 -209.2 -12.25 -211.9 -15.6 -213.55 -19.55 -216.55 -1.2 -213.05 14.45 -211.9 M55.8 -167.0 L79.1 -160.1 Q85.5 -156.3 77.0 -152.75 65.3 -148.75 44.45 -150.05 30.15 -150.8 16.2 -153.45 L11.0 -154.4 20.9 -153.55 29.5 -153.55 Q45.15 -153.55 52.4 -155.75 59.0 -157.65 59.0 -161.55 59.0 -164.15 57.05 -166.0 L55.8 -167.0" fill="#4a0000" fill-rule="evenodd" stroke="none"/>
      <path d="M47.55 -184.65 L47.75 -183.8 48.0 -183.15 Q47.9 -173.4 40.7 -170.3 35.0 -167.95 14.95 -167.1 L14.3 -167.15 9.4 -167.8 -0.6 -169.5 -3.2 -170.0 Q-24.9 -173.4 -51.7 -180.45 L-51.7 -181.2 Q-52.25 -189.75 -50.1 -197.1 -12.85 -188.2 25.7 -184.8 42.9 -182.75 47.55 -184.65 M30.75 -172.9 L33.65 -173.15 33.65 -173.45 Q21.6 -172.75 4.6 -176.55 L-22.8 -182.6 -30.75 -182.35 Q-24.7 -181.2 -10.9 -177.65 6.65 -173.15 14.95 -173.15 L30.75 -172.9" fill="#ffeded" fill-rule="evenodd" stroke="none"/>
      <path d="M48.0 -183.15 Q50.3 -176.45 50.6 -172.6 50.85 -168.25 51.0 -168.35 L51.3 -166.7 51.0 -165.65 50.2 -165.05 49.2 -164.35 Q47.45 -163.7 45.65 -163.7 L36.05 -164.1 26.1 -165.35 17.35 -166.7 14.95 -167.1 Q35.0 -167.95 40.7 -170.3 47.9 -173.4 48.0 -183.15 M30.75 -172.9 L14.95 -173.15 Q6.65 -173.15 -10.9 -177.65 -24.7 -181.2 -30.75 -182.35 L-22.8 -182.6 4.6 -176.55 Q21.6 -172.75 33.65 -173.45 L33.65 -173.15 30.75 -172.9" fill="#e3c2c2" fill-rule="evenodd" stroke="none"/>
      <path d="M14.45 -211.9 Q-1.2 -213.05 -19.55 -216.55 L-21.05 -216.75 M14.45 -211.9 L18.7 -211.65 M47.55 -184.65 L47.75 -183.8 M48.0 -183.15 Q50.3 -176.45 50.6 -172.6 50.85 -168.25 51.0 -168.35 L52.0 -168.1 M52.4 -167.95 L55.8 -167.0 79.1 -160.1 Q85.5 -156.3 77.0 -152.75 65.3 -148.75 44.45 -150.05 30.15 -150.8 16.2 -153.45 L11.0 -154.4 5.85 -155.25 -12.15 -158.75 -28.75 -161.8 Q-82.25 -171.1 -78.8 -174.65 -74.45 -177.15 -51.7 -181.2 -52.25 -189.75 -50.1 -197.1 -48.6 -208.6 -46.55 -217.0 -31.2 -222.45 -17.45 -222.1 9.55 -222.3 32.1 -218.8 41.95 -202.45 47.55 -184.65 42.9 -182.75 25.7 -184.8 -12.85 -188.2 -50.1 -197.1 M51.0 -168.35 L51.3 -166.7 51.0 -165.65 50.2 -165.05 49.2 -164.35 Q47.45 -163.7 45.65 -163.7 L36.05 -164.1 26.1 -165.35 17.35 -166.7 14.95 -167.1 M14.3 -167.15 L9.4 -167.8 -0.6 -169.5 -3.2 -170.0 Q-24.9 -173.4 -51.7 -180.45 L-51.7 -181.2" fill="none" stroke="#000000" stroke-linecap="round" stroke-linejoin="round" stroke-opacity="0.6627451" stroke-width="1.0"/>
    </g>
  </defs>
</svg>
