<?xml version="1.0" encoding="UTF-8" standalone="no"?>
<svg xmlns:xlink="http://www.w3.org/1999/xlink" height="531.5px" width="460.6px" xmlns="http://www.w3.org/2000/svg">
  <g transform="matrix(1.0, 0.0, 0.0, 1.0, 193.65, 334.05)">
    <use height="106.25" transform="matrix(1.0, 0.0, 0.0, 1.0, -112.45, -218.0)" width="200.45" xlink:href="#shape0"/>
  </g>
  <defs>
    <g id="shape0" transform="matrix(1.0, 0.0, 0.0, 1.0, 112.45, 218.0)">
      <path d="M-44.3 -154.65 L-44.3 -167.0 Q-36.45 -174.45 -26.75 -177.3 -2.65 -180.55 21.45 -174.85 L27.15 -173.55 Q31.8 -172.25 36.45 -170.5 L40.2 -169.05 41.75 -168.15 Q45.4 -165.9 46.3 -164.15 L46.4 -164.0 46.4 -149.2 44.35 -149.2 43.55 -151.8 41.9 -156.2 Q41.2 -158.15 37.85 -160.75 L36.35 -161.7 32.95 -163.35 Q28.7 -165.3 24.55 -166.7 L19.35 -168.25 Q-2.75 -174.65 -24.65 -171.0 -35.9 -166.75 -44.3 -154.65" fill="#bdbdbd" fill-rule="evenodd" stroke="none"/>
      <path d="M44.35 -149.2 L-44.3 -149.2 -44.3 -154.65 Q-35.9 -166.75 -24.65 -171.0 -2.75 -174.65 19.35 -168.25 L24.55 -166.7 Q28.7 -165.3 32.95 -163.35 L36.35 -161.7 37.85 -160.75 Q41.2 -158.15 41.9 -156.2 L43.55 -151.8 44.35 -149.2" fill="#999999" fill-rule="evenodd" stroke="none"/>
      <path d="M34.4 -157.75 L34.4 -161.8 Q34.4 -163.7 35.55 -165.05 36.7 -166.35 38.25 -166.35 39.8 -166.35 40.95 -165.05 42.05 -163.7 42.05 -161.8 L42.05 -156.2 Q38.4 -157.75 34.8 -157.75 L34.4 -157.75 M-20.55 -165.45 L-20.55 -161.15 -21.05 -161.15 Q-25.6 -161.15 -30.2 -159.5 L-30.2 -165.45 Q-30.2 -167.4 -28.8 -168.9 -27.35 -170.3 -25.4 -170.3 -23.4 -170.3 -22.05 -168.9 -20.55 -167.4 -20.55 -165.45" fill="#000000" fill-rule="evenodd" stroke="none"/>
      <path d="M-20.5 -156.25 L-17.5 -156.6 -15.35 -156.2 -13.1 -155.35 -12.45 -155.05 -9.15 -153.4 -4.95 -150.95 -4.3 -150.55 Q-0.35 -148.3 2.9 -146.9 6.8 -145.35 9.75 -145.35 L10.2 -145.35 13.05 -146.15 16.65 -147.65 19.2 -148.85 22.3 -150.25 24.8 -151.3 28.95 -152.45 31.15 -152.7 35.55 -152.05 36.45 -151.7 36.45 -150.95 Q36.35 -148.75 35.45 -144.85 L35.3 -144.15 Q34.6 -141.7 33.25 -140.85 32.45 -140.3 31.5 -140.3 L29.7 -140.6 28.95 -141.05 Q27.25 -142.0 25.35 -144.35 L24.9 -145.0 25.7 -145.5 24.9 -145.0 Q20.65 -142.35 17.8 -141.05 L16.65 -140.55 13.05 -139.55 8.6 -139.15 Q4.25 -139.15 -2.15 -141.5 -6.9 -143.25 -9.1 -144.8 L-9.15 -144.8 -9.75 -145.25 Q-13.15 -142.75 -14.95 -142.75 L-15.35 -142.75 Q-17.05 -143.05 -18.55 -145.5 L-18.95 -146.15 -19.1 -146.5 Q-20.75 -149.85 -20.75 -154.0 L-20.5 -156.25 M-7.95 -146.75 L-9.15 -145.65 -9.75 -145.25 -9.15 -145.65 -7.95 -146.75" fill="#ebebcc" fill-rule="evenodd" stroke="none"/>
      <path d="M-20.5 -156.25 L-20.75 -154.0 Q-20.75 -149.85 -19.1 -146.5 L-18.95 -146.15 -18.55 -145.5 Q-17.05 -143.05 -15.35 -142.75 L-14.95 -142.75 Q-13.15 -142.75 -9.75 -145.25 L-9.15 -144.8 -9.1 -144.8 -9.15 -144.6 -10.25 -142.1 Q-12.1 -137.05 -12.1 -131.6 -12.1 -127.9 -11.05 -124.8 -12.6 -125.45 -13.95 -125.45 L-15.35 -125.25 Q-16.5 -124.8 -17.8 -123.75 L-20.35 -121.5 -21.65 -122.95 -23.85 -125.8 -25.85 -129.15 Q-29.7 -136.2 -29.7 -143.65 -29.7 -148.75 -26.45 -152.5 L-25.85 -153.1 Q-23.5 -155.45 -20.5 -156.25 M33.25 -140.85 Q34.6 -141.7 35.3 -144.15 L35.45 -144.85 Q36.35 -148.75 36.45 -150.95 L36.45 -151.7 37.0 -151.45 Q39.65 -150.3 41.65 -148.1 43.4 -146.35 44.45 -144.15 46.05 -140.7 46.05 -136.3 46.05 -128.5 40.7 -121.9 L39.65 -120.6 39.55 -120.6 39.15 -121.3 37.65 -123.2 Q35.8 -125.15 34.35 -125.15 33.5 -125.15 31.4 -123.85 L30.1 -123.05 Q34.35 -128.4 34.35 -135.1 34.35 -138.1 33.25 -140.85" fill="#3b1637" fill-rule="evenodd" stroke="none"/>
      <path d="M33.25 -140.85 Q34.35 -138.1 34.35 -135.1 34.35 -128.4 30.1 -123.05 L29.7 -122.7 28.95 -122.2 28.15 -121.65 27.4 -121.7 Q27.0 -122.7 27.0 -124.1 27.0 -125.25 27.65 -126.3 L28.3 -127.1 28.95 -127.35 29.3 -127.5 29.7 -127.65 Q32.4 -129.2 32.4 -132.0 32.4 -134.45 29.7 -135.8 L28.95 -136.15 28.45 -136.4 Q25.05 -137.7 19.25 -137.7 L16.65 -137.55 13.05 -136.9 Q8.75 -135.8 4.35 -133.15 -3.55 -128.4 -4.35 -121.8 L-6.95 -121.3 Q-7.6 -122.6 -9.15 -123.7 L-9.9 -124.15 -11.05 -124.8 Q-12.1 -127.9 -12.1 -131.6 -12.1 -137.05 -10.25 -142.1 L-9.15 -144.6 -9.1 -144.8 Q-6.9 -143.25 -2.15 -141.5 4.25 -139.15 8.6 -139.15 L13.05 -139.55 16.65 -140.55 17.8 -141.05 Q20.65 -142.35 24.9 -145.0 L25.35 -144.35 Q27.25 -142.0 28.95 -141.05 L29.7 -140.6 31.5 -140.3 Q32.45 -140.3 33.25 -140.85" fill="#2e0f2b" fill-rule="evenodd" stroke="none"/>
      <path d="M-4.35 -121.8 Q-3.55 -128.4 4.35 -133.15 8.75 -135.8 13.05 -136.9 L16.65 -137.55 19.25 -137.7 Q25.05 -137.7 28.45 -136.4 L28.95 -136.15 29.7 -135.8 Q32.4 -134.45 32.4 -132.0 32.4 -129.2 29.7 -127.65 L29.3 -127.5 28.95 -127.35 28.3 -127.1 27.65 -126.3 Q27.0 -125.25 27.0 -124.1 27.0 -122.7 27.4 -121.7 L27.1 -121.7 24.9 -121.4 24.4 -121.55 24.25 -121.7 Q22.45 -123.35 20.9 -123.35 19.35 -123.35 16.65 -122.45 15.25 -122.05 13.55 -121.3 L13.05 -121.3 0.35 -122.05 -4.35 -121.8 M20.65 -125.3 Q26.6 -126.55 28.3 -127.1 26.6 -126.55 20.65 -125.3 M18.05 -127.1 L16.65 -126.75 13.05 -125.8 12.9 -125.8 10.2 -125.0 12.9 -125.8 13.05 -125.8 16.65 -126.75 18.05 -127.1" fill="#a12626" fill-rule="evenodd" stroke="none"/>
      <path d="M30.1 -123.05 L31.4 -123.85 Q33.5 -125.15 34.35 -125.15 35.8 -125.15 37.65 -123.2 L39.15 -121.3 39.55 -120.6 39.55 -120.5 36.8 -118.0 35.3 -117.0 Q33.45 -116.0 31.8 -116.0 L29.7 -116.45 28.95 -116.85 Q27.65 -117.65 26.45 -119.2 L26.0 -119.7 24.4 -121.55 24.9 -121.4 27.1 -121.7 27.4 -121.7 28.15 -121.65 28.95 -122.2 29.7 -122.7 30.1 -123.05 M13.55 -121.3 L13.05 -121.05 Q11.1 -120.35 8.9 -119.3 1.25 -115.7 -3.8 -115.2 L-5.1 -115.2 -9.15 -115.55 Q-15.05 -116.6 -19.6 -120.85 L-20.35 -121.5 -17.8 -123.75 Q-16.5 -124.8 -15.35 -125.25 L-13.95 -125.45 Q-12.6 -125.45 -11.05 -124.8 L-9.9 -124.15 -9.15 -123.7 Q-7.6 -122.6 -6.95 -121.3 L-4.35 -121.8 0.35 -122.05 13.05 -121.3 13.55 -121.3 M-10.95 -119.6 L-9.15 -120.5 -9.1 -120.6 -6.95 -121.3 -9.1 -120.6 -9.15 -120.5 -10.95 -119.6 M35.3 -117.0 L35.15 -117.15 Q33.1 -120.0 31.65 -120.9 L29.7 -121.55 28.95 -121.65 28.15 -121.65 28.95 -121.65 29.7 -121.55 31.65 -120.9 Q33.1 -120.0 35.15 -117.15 L35.3 -117.0" fill="#d9d9b4" fill-rule="evenodd" stroke="none"/>
      <path d="M34.4 -157.75 L34.4 -161.8 Q34.4 -163.7 35.55 -165.05 36.7 -166.35 38.25 -166.35 39.8 -166.35 40.95 -165.05 42.05 -163.7 42.05 -161.8 L42.05 -156.2 44.45 -154.95 M36.45 -151.7 L35.55 -152.05 31.15 -152.7 28.95 -152.45 24.8 -151.3 22.3 -150.25 19.2 -148.85 16.65 -147.65 13.05 -146.15 10.2 -145.35 9.75 -145.35 Q6.8 -145.35 2.9 -146.9 -0.35 -148.3 -4.3 -150.55 L-4.95 -150.95 -9.15 -153.4 -12.45 -155.05 -13.1 -155.35 -15.35 -156.2 -17.5 -156.6 -20.5 -156.25 -20.75 -154.0 Q-20.75 -149.85 -19.1 -146.5 L-18.95 -146.15 -18.55 -145.5 Q-17.05 -143.05 -15.35 -142.75 L-14.95 -142.75 Q-13.15 -142.75 -9.75 -145.25 L-9.15 -145.65 -7.95 -146.75 M34.4 -157.75 L32.55 -157.65 30.9 -157.15 M36.45 -151.7 L36.45 -150.95 Q36.35 -148.75 35.45 -144.85 L35.3 -144.15 Q34.6 -141.7 33.25 -140.85 32.45 -140.3 31.5 -140.3 L29.7 -140.6 28.95 -141.05 Q27.25 -142.0 25.35 -144.35 L24.9 -145.0 25.7 -145.5 M30.1 -123.05 L31.4 -123.85 Q33.5 -125.15 34.35 -125.15 35.8 -125.15 37.65 -123.2 L39.15 -121.3 39.55 -120.6 39.65 -120.6 40.7 -121.9 Q46.05 -128.5 46.05 -136.3 46.05 -140.7 44.45 -144.15 43.4 -146.35 41.65 -148.1 39.65 -150.3 37.0 -151.45 L36.45 -151.7 M42.05 -156.2 Q38.4 -157.75 34.8 -157.75 L34.4 -157.75 M-4.35 -121.8 Q-3.55 -128.4 4.35 -133.15 8.75 -135.8 13.05 -136.9 L16.65 -137.55 19.25 -137.7 Q25.05 -137.7 28.45 -136.4 L28.95 -136.15 29.7 -135.8 Q32.4 -134.45 32.4 -132.0 32.4 -129.2 29.7 -127.65 L29.3 -127.5 28.95 -127.35 28.3 -127.1 27.65 -126.3 Q27.0 -125.25 27.0 -124.1 27.0 -122.7 27.4 -121.7 L28.15 -121.65 28.95 -122.2 29.7 -122.7 30.1 -123.05 M28.3 -127.1 Q26.6 -126.55 20.65 -125.3 M-9.1 -144.8 Q-6.9 -143.25 -2.15 -141.5 4.25 -139.15 8.6 -139.15 L13.05 -139.55 16.65 -140.55 17.8 -141.05 Q20.65 -142.35 24.9 -145.0 M10.2 -125.0 L12.9 -125.8 13.05 -125.8 16.65 -126.75 18.05 -127.1 M13.55 -121.3 L13.05 -121.05 Q11.1 -120.35 8.9 -119.3 1.25 -115.7 -3.8 -115.2 L-5.1 -115.2 -9.15 -115.55 Q-15.05 -116.6 -19.6 -120.85 L-20.35 -121.5 -21.65 -122.95 -23.85 -125.8 -25.85 -129.15 Q-29.7 -136.2 -29.7 -143.65 -29.7 -148.75 -26.45 -152.5 L-25.85 -153.1 Q-23.5 -155.45 -20.5 -156.25 M13.55 -121.3 L13.05 -121.3 0.35 -122.05 -4.35 -121.8 -6.95 -121.3 -9.1 -120.6 -9.15 -120.5 -10.95 -119.6 M20.0 -116.65 L16.4 -112.1 M24.25 -121.7 Q22.45 -123.35 20.9 -123.35 19.35 -123.35 16.65 -122.45 15.25 -122.05 13.55 -121.3 M39.55 -120.6 L39.55 -120.5 36.8 -118.0 35.3 -117.0 Q33.45 -116.0 31.8 -116.0 L29.7 -116.45 28.95 -116.85 Q27.65 -117.65 26.45 -119.2 L26.0 -119.7 24.4 -121.55 24.25 -121.55 24.25 -121.7 24.4 -121.55 24.9 -121.4 27.1 -121.7 27.4 -121.7 M28.15 -121.65 L28.95 -121.65 29.7 -121.55 31.65 -120.9 Q33.1 -120.0 35.15 -117.15 L35.3 -117.0 M21.15 -113.9 L20.8 -112.6 M-20.55 -165.45 Q-20.55 -167.4 -22.05 -168.9 -23.4 -170.3 -25.4 -170.3 -27.35 -170.3 -28.8 -168.9 -30.2 -167.4 -30.2 -165.45 L-30.2 -159.5 Q-25.6 -161.15 -21.05 -161.15 L-20.55 -161.15 -20.55 -165.45 M-33.2 -158.2 L-30.2 -159.5 M-20.55 -161.15 L-18.2 -161.05 -16.15 -160.6 M-9.1 -144.8 L-9.15 -144.8 -9.75 -145.25 M-20.35 -121.5 L-17.8 -123.75 Q-16.5 -124.8 -15.35 -125.25 L-13.95 -125.45 Q-12.6 -125.45 -11.05 -124.8 L-9.9 -124.15 -9.15 -123.7 Q-7.6 -122.6 -6.95 -121.3" fill="none" stroke="#000000" stroke-linecap="round" stroke-linejoin="round" stroke-opacity="0.4" stroke-width="0.7000000000000001"/>
      <path d="M-12.85 -211.25 Q2.15 -217.7 20.95 -217.5 41.0 -213.15 59.4 -194.15 73.1 -174.6 72.2 -143.15 L71.9 -142.9 Q68.8 -161.25 61.55 -174.45 51.95 -191.8 36.6 -196.6 L33.35 -196.6 33.35 -195.1 Q35.8 -190.65 39.55 -179.5 41.5 -173.6 42.7 -168.75 33.05 -178.25 8.25 -172.95 6.95 -185.65 2.15 -197.0 -3.0 -206.45 -12.85 -211.25" fill="#333333" fill-rule="evenodd" stroke="none"/>
      <path d="M-59.45 -155.35 L-59.45 -155.45 -59.35 -155.35 -59.45 -155.35" fill="#660099" fill-rule="evenodd" stroke="none"/>
      <path d="M42.7 -168.75 Q41.5 -173.6 39.55 -179.5 35.8 -190.65 33.35 -195.1 L33.35 -196.6 36.6 -196.6 Q51.95 -191.8 61.55 -174.45 68.8 -161.25 71.9 -142.9 L68.95 -141.5 Q67.35 -157.0 54.95 -162.55 59.2 -148.85 55.45 -126.55 L50.45 -133.15 48.2 -141.95 Q50.85 -160.65 42.7 -168.75 M42.95 -184.45 Q50.8 -175.75 54.95 -162.55 50.8 -175.75 42.95 -184.45" fill="#1a1a1a" fill-rule="evenodd" stroke="none"/>
      <path d="M-67.35 -194.55 Q-69.3 -193.1 -71.55 -191.8 -82.0 -185.75 -90.65 -185.6 L-90.8 -188.2 -90.65 -185.6 -91.1 -185.6 Q-96.6 -185.6 -99.85 -187.05 -92.0 -203.6 -72.2 -211.0 L-57.55 -213.2 -57.55 -212.45 Q-57.55 -209.15 -58.55 -206.05 -60.65 -199.6 -67.35 -194.55 L-70.6 -197.65 -67.35 -194.55 M-61.45 -206.75 L-58.55 -206.05 -61.45 -206.75" fill="#8633b0" fill-rule="evenodd" stroke="none"/>
      <path d="M-59.45 -155.45 L-59.5 -155.6 Q-59.9 -156.9 -60.65 -158.05 -62.55 -160.85 -66.6 -162.85 -91.95 -150.9 -96.35 -128.0 L-98.6 -128.9 Q-97.55 -144.45 -90.0 -158.15 -81.25 -173.95 -70.65 -173.95 -62.2 -173.95 -57.9 -167.0 -56.65 -165.05 -54.15 -159.5 L-48.25 -147.8 -42.55 -136.8 -47.35 -130.75 Q-54.2 -126.85 -61.15 -123.05 -64.4 -136.2 -60.15 -147.85 -58.55 -152.05 -59.45 -155.35 L-59.35 -155.35 -59.45 -155.45" fill="#3b005c" fill-rule="evenodd" stroke="none"/>
      <path d="M-12.85 -211.25 Q-3.0 -206.45 2.15 -197.0 6.95 -185.65 8.25 -172.95 -56.15 -184.55 -39.25 -141.05 L-42.55 -136.8 -48.25 -147.8 -54.15 -159.5 Q-56.65 -165.05 -57.9 -167.0 -62.2 -173.95 -70.65 -173.95 -81.25 -173.95 -90.0 -158.15 -97.55 -144.45 -98.6 -128.9 L-100.25 -129.55 Q-109.95 -165.8 -99.85 -187.05 -96.6 -185.6 -91.1 -185.6 L-90.65 -185.6 -90.45 -182.35 -90.65 -185.6 Q-82.0 -185.75 -71.55 -191.8 -69.3 -193.1 -67.35 -194.55 L-64.4 -191.8 -67.35 -194.55 Q-60.65 -199.6 -58.55 -206.05 -57.55 -209.15 -57.55 -212.45 L-57.55 -213.2 Q-37.05 -215.15 -12.85 -211.25 M-54.6 -205.15 L-58.55 -206.05 -54.6 -205.15" fill="url(#gradient0)" fill-rule="evenodd" stroke="none"/>
      <path d="M71.9 -142.9 L72.2 -143.15 Q73.1 -174.6 59.4 -194.15 41.0 -213.15 20.95 -217.5 2.15 -217.7 -12.85 -211.25 -3.0 -206.45 2.15 -197.0 6.95 -185.65 8.25 -172.95 33.05 -178.25 42.7 -168.75 50.85 -160.65 48.2 -141.95 L50.45 -133.15 55.45 -126.55 Q59.2 -148.85 54.95 -162.55 50.8 -175.75 42.95 -184.45 M71.9 -142.9 L68.95 -141.5 Q67.35 -157.0 54.95 -162.55 M-99.85 -187.05 Q-92.0 -203.6 -72.2 -211.0 L-57.55 -213.2 Q-37.05 -215.15 -12.85 -211.25 M-59.45 -155.45 L-59.5 -155.6 Q-59.9 -156.9 -60.65 -158.05 -62.55 -160.85 -66.6 -162.85 -91.95 -150.9 -96.35 -128.0 L-98.6 -128.9 -100.25 -129.55 Q-109.95 -165.8 -99.85 -187.05 M-59.45 -155.35 Q-58.55 -152.05 -60.15 -147.85 -64.4 -136.2 -61.15 -123.05 -54.2 -126.85 -47.35 -130.75 L-42.55 -136.8 -39.25 -141.05 Q-56.15 -184.55 8.25 -172.95 M-59.45 -155.35 L-59.45 -155.45" fill="none" stroke="#000000" stroke-linecap="round" stroke-linejoin="round" stroke-opacity="0.4" stroke-width="1.0"/>
      <path d="M-90.65 -185.6 L-90.45 -182.35 M-90.65 -185.6 Q-82.0 -185.75 -71.55 -191.8 -69.3 -193.1 -67.35 -194.55 L-70.6 -197.65 M-90.65 -185.6 L-90.8 -188.2 M-99.85 -187.05 Q-96.6 -185.6 -91.1 -185.6 L-90.65 -185.6 M-67.35 -194.55 L-64.4 -191.8 M-58.55 -206.05 L-61.45 -206.75 M-67.35 -194.55 Q-60.65 -199.6 -58.55 -206.05 -57.55 -209.15 -57.55 -212.45 L-57.55 -213.2 M-58.55 -206.05 L-54.6 -205.15" fill="none" stroke="#000000" stroke-linecap="round" stroke-linejoin="round" stroke-opacity="0.2" stroke-width="0.7000000000000001"/>
      <path d="M-91.25 -135.8 Q-89.9 -134.4 -89.9 -132.5 -89.9 -130.65 -91.25 -129.4 -92.5 -128.05 -94.35 -128.05 -96.25 -128.05 -97.65 -129.4 -98.85 -130.65 -98.85 -132.5 -98.85 -134.4 -97.65 -135.8 -96.25 -137.0 -94.35 -137.0 -92.5 -137.0 -91.25 -135.8" fill="#ffffff" fill-rule="evenodd" stroke="none"/>
      <path d="M-91.25 -135.8 Q-92.5 -137.0 -94.35 -137.0 -96.25 -137.0 -97.65 -135.8 -98.85 -134.4 -98.85 -132.5 -98.85 -130.65 -97.65 -129.4 -96.25 -128.05 -94.35 -128.05 -92.5 -128.05 -91.25 -129.4 -89.9 -130.65 -89.9 -132.5 -89.9 -134.4 -91.25 -135.8 M-102.5 -113.7 Q-105.95 -114.75 -108.3 -117.1 -111.95 -120.8 -111.95 -126.1 -111.95 -131.4 -108.3 -135.15 -104.55 -138.8 -99.25 -138.8 -93.95 -138.8 -90.3 -135.15 -86.55 -131.4 -86.55 -126.1 -86.55 -120.8 -90.3 -117.1 -93.95 -113.4 -99.25 -113.4 L-99.35 -113.4 -99.65 -114.25 -99.9 -115.55 -99.9 -116.0 -99.9 -116.05 -100.0 -117.05 -99.85 -118.6 Q-99.0 -118.9 -98.2 -119.5 L-98.05 -119.75 Q-96.75 -120.95 -96.75 -122.85 L-96.75 -123.4 Q-96.95 -124.95 -98.05 -126.0 -98.85 -126.8 -99.85 -127.05 L-101.2 -127.3 Q-103.0 -127.3 -104.3 -126.0 -105.6 -124.7 -105.6 -122.85 -105.6 -120.95 -104.3 -119.75 L-103.1 -118.85 -103.1 -118.45 Q-103.4 -116.4 -103.0 -114.6 L-102.5 -113.8 -102.5 -113.7" fill="url(#gradient1)" fill-rule="evenodd" stroke="none"/>
      <path d="M-99.9 -116.0 Q-100.4 -114.9 -101.2 -114.35 L-102.45 -113.7 -102.5 -113.8 -103.0 -114.6 Q-103.4 -116.4 -103.1 -118.45 L-103.1 -118.85 -104.3 -119.75 Q-105.6 -120.95 -105.6 -122.85 -105.6 -124.7 -104.3 -126.0 -103.0 -127.3 -101.2 -127.3 L-99.85 -127.05 Q-98.85 -126.8 -98.05 -126.0 -96.95 -124.95 -96.75 -123.4 L-96.75 -122.85 Q-96.75 -120.95 -98.05 -119.75 L-98.2 -119.5 Q-99.0 -118.9 -99.85 -118.6 L-100.0 -117.05 -99.9 -116.05 -99.9 -116.0" fill="#1a0505" fill-rule="evenodd" stroke="none"/>
      <path d="M-102.5 -113.7 Q-105.95 -114.75 -108.3 -117.1 -111.95 -120.8 -111.95 -126.1 -111.95 -131.4 -108.3 -135.15 -104.55 -138.8 -99.25 -138.8 -93.95 -138.8 -90.3 -135.15 -86.55 -131.4 -86.55 -126.1 -86.55 -120.8 -90.3 -117.1 -93.95 -113.4 -99.25 -113.4 L-99.35 -113.4 -99.65 -114.25 -99.9 -115.55 -99.9 -116.0 Q-100.4 -114.9 -101.2 -114.35 L-102.45 -113.7 -102.6 -113.7 -102.5 -113.7 -102.45 -113.7 -102.5 -113.7 M-102.5 -113.8 L-103.0 -114.6 Q-103.4 -116.4 -103.1 -118.45 L-103.1 -118.85 -104.3 -119.75 Q-105.6 -120.95 -105.6 -122.85 -105.6 -124.7 -104.3 -126.0 -103.0 -127.3 -101.2 -127.3 L-99.85 -127.05 Q-98.85 -126.8 -98.05 -126.0 -96.95 -124.95 -96.75 -123.4 L-96.75 -122.85 Q-96.75 -120.95 -98.05 -119.75 L-98.2 -119.5 Q-99.0 -118.9 -99.85 -118.6 L-100.0 -117.05 -99.9 -116.05 -99.9 -116.0 M-102.5 -113.8 L-102.45 -113.7" fill="none" stroke="#000000" stroke-linecap="round" stroke-linejoin="round" stroke-opacity="0.5019608" stroke-width="1.0"/>
      <path d="M78.6 -143.5 L79.9 -144.0 Q80.85 -144.25 81.9 -144.0 83.8 -143.45 84.75 -141.8 85.65 -140.2 85.1 -138.45 84.7 -136.6 83.05 -135.7 81.45 -134.7 79.55 -135.3 77.85 -135.7 76.95 -137.35 L76.8 -137.55 Q75.95 -139.1 76.4 -140.85 76.95 -142.55 78.6 -143.5" fill="#ffffff" fill-rule="evenodd" stroke="none"/>
      <path d="M78.1 -121.75 Q77.5 -121.85 77.25 -122.25 76.05 -123.55 75.25 -125.45 L75.05 -125.85 73.55 -126.0 Q71.9 -126.4 70.9 -128.05 70.0 -129.65 70.45 -131.45 70.9 -133.25 72.45 -134.15 L73.75 -134.55 Q74.75 -134.8 75.9 -134.55 77.25 -134.25 78.35 -132.95 L78.6 -132.45 Q79.55 -130.8 79.0 -129.1 L79.0 -128.85 Q78.6 -127.9 78.0 -127.25 78.25 -126.5 78.65 -125.85 L79.25 -125.05 79.25 -124.95 Q79.4 -123.8 78.9 -122.9 L78.15 -121.7 78.1 -121.75" fill="#1a0505" fill-rule="evenodd" stroke="none"/>
      <path d="M78.6 -143.5 Q76.95 -142.55 76.4 -140.85 75.95 -139.1 76.8 -137.55 L76.95 -137.35 Q77.85 -135.7 79.55 -135.3 81.45 -134.7 83.05 -135.7 84.7 -136.6 85.1 -138.45 85.65 -140.2 84.75 -141.8 83.8 -143.45 81.9 -144.0 80.85 -144.25 79.9 -144.0 L78.6 -143.5 M79.25 -124.95 L79.25 -125.05 78.65 -125.85 Q78.25 -126.5 78.0 -127.25 78.6 -127.9 79.0 -128.85 L79.0 -129.1 Q79.55 -130.8 78.6 -132.45 L78.35 -132.95 Q77.25 -134.25 75.9 -134.55 74.75 -134.8 73.75 -134.55 L72.45 -134.15 Q70.9 -133.25 70.45 -131.45 70.0 -129.65 70.9 -128.05 71.9 -126.4 73.55 -126.0 L75.05 -125.85 75.25 -125.45 Q76.05 -123.55 77.25 -122.25 77.5 -121.85 78.1 -121.75 L78.1 -121.7 Q74.65 -120.85 71.4 -121.7 66.45 -123.05 63.75 -127.7 61.15 -132.3 62.45 -137.35 63.85 -142.4 68.4 -145.05 72.95 -147.65 78.0 -146.35 83.15 -145.0 85.75 -140.4 88.45 -135.8 86.95 -130.75 85.65 -125.7 81.1 -123.05 L81.0 -123.0 80.35 -123.55 79.45 -124.6 79.25 -124.95" fill="url(#gradient2)" fill-rule="evenodd" stroke="none"/>
      <path d="M78.1 -121.75 Q77.5 -121.85 77.25 -122.25 76.05 -123.55 75.25 -125.45 L75.05 -125.85 73.55 -126.0 Q71.9 -126.4 70.9 -128.05 70.0 -129.65 70.45 -131.45 70.9 -133.25 72.45 -134.15 L73.75 -134.55 Q74.75 -134.8 75.9 -134.55 77.25 -134.25 78.35 -132.95 L78.6 -132.45 Q79.55 -130.8 79.0 -129.1 L79.0 -128.85 Q78.6 -127.9 78.0 -127.25 78.25 -126.5 78.65 -125.85 L79.25 -125.05 79.25 -124.95 79.45 -124.6 80.35 -123.55 81.0 -123.0 81.1 -123.05 Q85.65 -125.7 86.95 -130.75 88.45 -135.8 85.75 -140.4 83.15 -145.0 78.0 -146.35 72.95 -147.65 68.4 -145.05 63.85 -142.4 62.45 -137.35 61.15 -132.3 63.75 -127.7 66.45 -123.05 71.4 -121.7 74.65 -120.85 78.1 -121.7 L78.15 -121.7 78.9 -122.9 Q79.4 -123.8 79.25 -124.95 M78.1 -121.75 L78.15 -121.7" fill="none" stroke="#000000" stroke-linecap="round" stroke-linejoin="round" stroke-opacity="0.5019608" stroke-width="1.0"/>
    </g>
    <linearGradient gradientTransform="matrix(0.007, 0.0513, -0.0513, 0.007, -38.1, -167.2)" gradientUnits="userSpaceOnUse" id="gradient0" spreadMethod="pad" x1="-819.2" x2="819.2">
      <stop offset="0.0" stop-color="#6a0c99"/>
      <stop offset="0.9882352941176471" stop-color="#390457"/>
    </linearGradient>
    <linearGradient gradientTransform="matrix(0.005, 0.0097, -0.0138, 0.0071, -98.35, -123.7)" gradientUnits="userSpaceOnUse" id="gradient1" spreadMethod="pad" x1="-819.2" x2="819.2">
      <stop offset="0.0" stop-color="#ff9900"/>
      <stop offset="1.0" stop-color="#b06800"/>
    </linearGradient>
    <linearGradient gradientTransform="matrix(0.0092, 0.0059, -0.0084, 0.013, 76.8, -132.45)" gradientUnits="userSpaceOnUse" id="gradient2" spreadMethod="pad" x1="-819.2" x2="819.2">
      <stop offset="0.0" stop-color="#ff9900"/>
      <stop offset="1.0" stop-color="#b06800"/>
    </linearGradient>
  </defs>
</svg>
