<?xml version="1.0" encoding="UTF-8" standalone="no"?>
<svg xmlns:xlink="http://www.w3.org/1999/xlink" height="531.5px" width="460.6px" xmlns="http://www.w3.org/2000/svg">
  <g transform="matrix(1.0, 0.0, 0.0, 1.0, 193.65, 334.05)">
    <use height="68.75" transform="matrix(1.6014, 0.0, 0.0, 1.6014, -77.1007, -243.3787)" width="100.25" xlink:href="#shape0"/>
    <use height="24.25" transform="matrix(1.6014, 0.0, 0.0, 1.6014, 2.1, -236.15)" width="24.25" xlink:href="#sprite0"/>
    <use height="24.25" transform="matrix(1.2521, 0.0, 0.0, 1.2521, 6.35, -231.95)" width="24.25" xlink:href="#sprite0"/>
    <use height="83.35" transform="matrix(1.6014, 0.0, 0.0, 1.6014, -73.4175, -254.8287)" width="93.85" xlink:href="#shape2"/>
    <use height="24.25" transform="matrix(2.2631, 0.0, 0.0, 2.2631, -5.9, -244.2)" width="24.25" xlink:href="#sprite0"/>
    <use height="11.5" transform="matrix(1.6014, 0.0, 0.0, 1.6014, -42.27, -171.9558)" width="61.05" xlink:href="#shape3"/>
  </g>
  <defs>
    <g id="shape0" transform="matrix(1.0, 0.0, 0.0, 1.0, 0.5, -0.95)">
      <path d="M62.9 2.35 L64.55 2.6 Q66.1 2.95 67.55 3.6 70.15 4.8 72.25 7.05 76.1 11.1 76.45 16.5 L76.45 18.05 Q76.3 22.15 74.35 25.4 73.25 27.2 71.6 28.75 67.3 32.85 61.5 32.95 L61.2 32.95 59.85 32.9 59.0 32.85 57.75 32.6 Q53.25 31.6 49.9 28.1 45.55 23.5 45.75 17.15 45.9 11.8 49.2 7.85 L50.55 6.4 Q52.45 4.6 54.6 3.6 56.0 2.95 57.55 2.6 L58.65 2.4 60.2 2.25 62.9 2.35 M69.9 9.3 Q66.8 5.95 62.45 5.5 L60.35 5.45 59.15 5.55 Q56.1 6.05 53.75 8.0 L52.8 8.8 Q49.1 12.25 48.95 17.25 48.8 22.25 52.3 25.9 54.85 28.65 58.45 29.4 L59.45 29.6 61.2 29.7 61.4 29.7 Q66.0 29.6 69.4 26.4 73.05 22.95 73.2 17.95 73.3 13.95 71.2 10.85 L69.9 9.3" fill="#d3b438" fill-rule="evenodd" stroke="none"/>
      <path d="M63.7 10.55 Q64.65 9.65 66.0 9.7 L66.05 9.7 Q67.4 9.7 68.25 10.7 69.1 11.65 69.1 13.0 L68.8 22.25 Q68.75 23.55 67.85 24.45 66.9 25.3 65.55 25.3 L65.5 25.3 Q64.15 25.25 63.3 24.3 62.4 23.35 62.45 22.05 L62.75 12.8 Q62.75 11.45 63.7 10.55 M57.3 9.4 L57.35 9.4 Q58.7 9.45 59.55 10.45 60.45 11.35 60.45 12.7 L60.15 21.95 Q60.1 23.25 59.15 24.2 58.2 25.05 56.85 25.0 L56.8 25.0 Q55.45 25.0 54.6 24.05 53.7 23.1 53.75 21.8 L54.05 12.55 Q54.05 11.2 55.0 10.3 55.95 9.4 57.3 9.4" fill="#ffffff" fill-rule="evenodd" stroke="none"/>
      <path d="M69.9 9.3 L71.2 10.85 Q73.3 13.95 73.2 17.95 73.05 22.95 69.4 26.4 66.0 29.6 61.4 29.7 L61.2 29.7 59.45 29.6 58.45 29.4 Q54.85 28.65 52.3 25.9 48.8 22.25 48.95 17.25 49.1 12.25 52.8 8.8 L53.75 8.0 Q56.1 6.05 59.15 5.55 L60.35 5.45 62.45 5.5 Q66.8 5.95 69.9 9.3 M63.7 10.55 Q62.75 11.45 62.75 12.8 L62.45 22.05 Q62.4 23.35 63.3 24.3 64.15 25.25 65.5 25.3 L65.55 25.3 Q66.9 25.3 67.85 24.45 68.75 23.55 68.8 22.25 L69.1 13.0 Q69.1 11.65 68.25 10.7 67.4 9.7 66.05 9.7 L66.0 9.7 Q64.65 9.65 63.7 10.55 M57.3 9.4 Q55.95 9.4 55.0 10.3 54.05 11.2 54.05 12.55 L53.75 21.8 Q53.7 23.1 54.6 24.05 55.45 25.0 56.8 25.0 L56.85 25.0 Q58.2 25.05 59.15 24.2 60.1 23.25 60.15 21.95 L60.45 12.7 Q60.45 11.35 59.55 10.45 58.7 9.45 57.35 9.4 L57.3 9.4" fill="#ffff99" fill-rule="evenodd" stroke="none"/>
      <path d="M15.5 34.85 Q15.75 29.6 16.45 25.6 L42.35 25.85 44.0 27.95 Q47.25 31.35 51.55 32.35 L59.0 32.85 59.85 32.9 60.65 32.95 61.2 32.95 61.5 32.95 Q67.3 32.85 71.6 28.75 73.25 27.2 74.35 25.4 L78.75 24.35 79.15 28.25 79.7 34.9 51.9 35.6 15.5 34.85 M18.6 17.9 Q20.1 14.45 22.3 12.95 26.9 10.6 32.8 9.35 L32.85 9.35 32.9 9.35 34.4 9.0 Q39.25 10.15 40.15 14.4 L39.85 16.95 39.85 17.1 18.6 17.9" fill="#10262b" fill-rule="evenodd" stroke="none"/>
      <path d="M16.45 25.6 L14.8 25.55 Q14.65 24.05 14.9 22.65 15.15 21.15 15.9 19.85 L16.55 21.15 Q19.7 26.35 23.65 21.65 28.1 24.55 33.45 23.85 L35.0 22.25 35.55 23.05 Q38.0 26.45 41.5 24.45 L42.35 25.85 16.45 25.6" fill="#0b1a23" fill-rule="evenodd" stroke="none"/>
      <path d="M79.7 34.9 L82.25 34.9 Q84.05 41.05 83.0 47.65 L82.2 47.7 82.3 46.2 77.2 46.25 76.7 46.2 73.5 46.3 73.6 48.0 52.2 48.7 13.2 48.7 Q11.15 41.8 13.35 34.85 L15.5 34.85 51.9 35.6 79.7 34.9 M76.65 47.9 L76.7 47.45 76.7 47.9 76.65 47.9" fill="url(#gradient0)" fill-rule="evenodd" stroke="none"/>
      <path d="M76.45 16.5 L77.05 17.8 78.85 17.85 80.05 24.0 78.75 24.35 74.35 25.4 Q76.3 22.15 76.45 18.05 L76.45 16.5" fill="url(#gradient1)" fill-rule="evenodd" stroke="none"/>
      <path d="M49.0 3.35 Q50.0 2.9 51.05 2.6 L54.4 2.1 60.2 2.25 58.65 2.4 57.55 2.6 Q56.0 2.95 54.6 3.6 52.45 4.6 50.55 6.4 L49.2 7.85 Q45.9 11.8 45.75 17.15 45.55 23.5 49.9 28.1 53.25 31.6 57.75 32.6 L59.0 32.85 51.55 32.35 Q47.25 31.35 44.0 27.95 L42.35 25.85 41.5 24.45 Q39.75 21.1 39.85 17.1 L39.85 16.95 40.15 14.4 Q40.8 10.85 43.05 8.0 L44.65 6.25 Q46.4 4.6 48.4 3.6 L49.0 3.35" fill="url(#gradient2)" fill-rule="evenodd" stroke="none"/>
      <path d="M32.85 9.35 Q34.4 5.4 36.45 3.6 L37.85 2.6 Q41.65 0.35 47.3 2.6 L49.0 3.35 48.4 3.6 Q46.4 4.6 44.65 6.25 L43.05 8.0 Q40.8 10.85 40.15 14.4 39.25 10.15 34.4 9.0 L32.9 9.35 32.85 9.35" fill="url(#gradient3)" fill-rule="evenodd" stroke="none"/>
      <path d="M15.9 19.85 L17.2 17.95 18.6 17.9 39.85 17.1 Q39.75 21.1 41.5 24.45 38.0 26.45 35.55 23.05 L35.0 22.25 33.45 23.85 Q28.1 24.55 23.65 21.65 19.7 26.35 16.55 21.15 L15.9 19.85" fill="url(#gradient4)" fill-rule="evenodd" stroke="none"/>
      <path d="M79.7 34.9 L82.25 34.9 Q84.05 41.05 83.0 47.65 L82.2 47.7 M73.6 48.0 L52.2 48.7 13.2 48.7 Q11.15 41.8 13.35 34.85 L15.5 34.85 Q15.75 29.6 16.45 25.6 L14.8 25.55 Q14.65 24.05 14.9 22.65 15.15 21.15 15.9 19.85 L17.2 17.95 18.6 17.9 Q20.1 14.45 22.3 12.95 26.9 10.6 32.8 9.35 L32.85 9.35 Q34.4 5.4 36.45 3.6 L37.85 2.6 Q41.65 0.35 47.3 2.6 L49.0 3.35 Q50.0 2.9 51.05 2.6 L54.4 2.1 60.2 2.25 61.55 2.25 62.9 2.35 64.55 2.6 Q66.1 2.95 67.55 3.6 70.15 4.8 72.25 7.05 76.1 11.1 76.45 16.5 L77.05 17.8 78.85 17.85 80.05 24.0 78.75 24.35 79.15 28.25 79.7 34.9 51.9 35.6 15.5 34.85 M76.45 16.5 L76.45 18.05 Q76.3 22.15 74.35 25.4 L78.75 24.35 M60.2 2.25 L58.65 2.4 57.55 2.6 Q56.0 2.95 54.6 3.6 52.45 4.6 50.55 6.4 L49.2 7.85 Q45.9 11.8 45.75 17.15 45.55 23.5 49.9 28.1 53.25 31.6 57.75 32.6 L59.0 32.85 59.85 32.9 61.2 32.95 61.5 32.95 Q67.3 32.85 71.6 28.75 73.25 27.2 74.35 25.4 M40.15 14.4 Q40.8 10.85 43.05 8.0 L44.65 6.25 Q46.4 4.6 48.4 3.6 L49.0 3.35 M61.2 32.95 L60.65 32.95 59.85 32.9 M59.0 32.85 L51.55 32.35 Q47.25 31.35 44.0 27.95 L42.35 25.85 16.45 25.6 M76.7 47.9 L76.65 47.9 M62.9 2.35 L60.2 2.25 M42.35 25.85 L41.5 24.45 Q39.75 21.1 39.85 17.1 L18.6 17.9 M32.85 9.35 L32.9 9.35 34.4 9.0 Q39.25 10.15 40.15 14.4 L39.85 16.95 39.85 17.1" fill="none" stroke="#000000" stroke-linecap="round" stroke-linejoin="round" stroke-opacity="0.4" stroke-width="1.0"/>
      <path d="M69.9 9.3 L71.2 10.85 Q73.3 13.95 73.2 17.95 73.05 22.95 69.4 26.4 66.0 29.6 61.4 29.7 L61.2 29.7 59.45 29.6 58.45 29.4 Q54.85 28.65 52.3 25.9 48.8 22.25 48.95 17.25 49.1 12.25 52.8 8.8 L53.75 8.0 Q56.1 6.05 59.15 5.55 L60.35 5.45 62.45 5.5 Q66.8 5.95 69.9 9.3" fill="none" stroke="#000000" stroke-linecap="round" stroke-linejoin="round" stroke-opacity="0.2509804" stroke-width="1.0"/>
      <path d="M21.75 45.05 L21.4 44.4 21.75 45.05 M21.4 44.4 Q21.75 42.4 22.65 40.55 L26.1 43.65 Q27.75 38.05 30.8 34.6 35.95 38.5 38.2 44.25 39.8 42.5 42.7 41.55 43.9 45.0 42.7 49.1 32.2 51.1 21.35 49.1 21.0 46.65 21.4 44.4 M30.0 47.95 L28.75 45.95 30.0 47.95 M34.35 45.45 L35.25 43.05 34.35 45.45" fill="#ffffff" fill-rule="evenodd" stroke="none"/>
      <path d="M21.4 44.4 Q21.75 42.4 22.65 40.55 L26.1 43.65 Q27.75 38.05 30.8 34.6 35.95 38.5 38.2 44.25 39.8 42.5 42.7 41.55 43.9 45.0 42.7 49.1 32.2 51.1 21.35 49.1 21.0 46.65 21.4 44.4" fill="none" stroke="#000000" stroke-linecap="round" stroke-linejoin="round" stroke-opacity="0.2" stroke-width="1.0"/>
      <path d="M21.4 44.4 L21.75 45.05 M21.4 44.4 L20.25 42.2 M35.25 43.05 L34.35 45.45 M28.75 45.95 L30.0 47.95" fill="none" stroke="#000000" stroke-linecap="round" stroke-linejoin="round" stroke-opacity="0.2" stroke-width="0.6000000000000001"/>
      <path d="M76.2 42.25 L77.6 44.95 Q78.8 43.2 81.3 42.25 82.75 45.7 82.05 49.8 72.9 51.8 63.0 49.8 62.0 45.2 63.35 41.25 L66.7 44.35 Q67.1 41.85 67.85 39.8 L68.75 41.95 67.85 39.8 Q68.7 37.2 70.05 35.3 73.8 38.25 76.2 42.25 L75.85 44.05 76.2 42.25 M79.25 47.95 L80.1 45.95 79.25 47.95 M70.35 48.55 L68.6 46.55 70.35 48.55" fill="#ffffff" fill-rule="evenodd" stroke="none"/>
      <path d="M76.2 42.25 L77.6 44.95 Q78.8 43.2 81.3 42.25 82.75 45.7 82.05 49.8 72.9 51.8 63.0 49.8 62.0 45.2 63.35 41.25 L66.7 44.35 Q67.1 41.85 67.85 39.8 68.7 37.2 70.05 35.3 73.8 38.25 76.2 42.25" fill="none" stroke="#000000" stroke-linecap="round" stroke-linejoin="round" stroke-opacity="0.2" stroke-width="1.0"/>
      <path d="M67.85 39.8 L67.6 39.2 M68.6 46.55 L70.35 48.55 M67.85 39.8 L68.75 41.95 M76.2 42.25 L75.85 44.05 M80.1 45.95 L79.25 47.95 M76.2 42.25 L76.6 39.8" fill="none" stroke="#000000" stroke-linecap="round" stroke-linejoin="round" stroke-opacity="0.2" stroke-width="0.6000000000000001"/>
      <path d="M82.2 57.4 L82.4 57.4 99.25 58.2 Q94.65 59.3 88.9 63.3 L88.75 63.35 Q84.45 66.0 79.05 67.5 L77.35 66.7 79.05 67.5 76.25 68.2 Q67.95 67.05 60.8 64.5 56.85 63.1 53.3 61.3 43.85 65.6 32.55 68.0 L26.1 69.2 Q20.0 67.1 14.6 64.35 L16.75 64.05 14.6 64.35 Q6.55 60.25 0.0 54.7 5.6 53.65 12.6 54.7 L16.2 55.35 Q19.4 56.5 26.1 57.2 30.95 55.4 34.95 54.25 L41.6 52.6 49.0 52.2 52.2 52.85 Q59.55 52.1 64.75 53.5 67.35 54.2 69.45 55.45 L82.2 57.4 80.85 57.8 82.2 57.4 M87.0 62.95 L88.9 63.3 87.0 62.95 M63.25 53.95 L64.75 53.5 63.25 53.95 M60.8 64.5 L59.1 62.2 60.8 64.5 M57.0 56.55 L53.25 55.55 57.0 56.55 M48.75 59.2 L50.85 58.3 48.75 59.2 M42.85 53.8 L41.6 52.6 42.85 53.8 M44.0 61.8 L39.75 62.2 44.0 61.8 M34.0 66.65 L32.55 68.0 34.0 66.65 M36.75 54.55 L34.95 54.25 36.75 54.55 M45.1 58.05 L50.75 57.3 45.1 58.05" fill="#ffffff" fill-rule="evenodd" stroke="none"/>
      <path d="M82.2 57.4 L82.4 57.4 99.25 58.2 Q94.65 59.3 88.9 63.3 L88.75 63.35 Q84.45 66.0 79.05 67.5 L76.25 68.2 Q67.95 67.05 60.8 64.5 56.85 63.1 53.3 61.3 43.85 65.6 32.55 68.0 L26.1 69.2 Q20.0 67.1 14.6 64.35 6.55 60.25 0.0 54.7 5.6 53.65 12.6 54.7 L16.2 55.35 Q19.4 56.5 26.1 57.2 30.95 55.4 34.95 54.25 L41.6 52.6 49.0 52.2 52.2 52.85 Q59.55 52.1 64.75 53.5 67.35 54.2 69.45 55.45 L82.2 57.4" fill="none" stroke="#000000" stroke-linecap="round" stroke-linejoin="round" stroke-opacity="0.2" stroke-width="1.0"/>
      <path d="M88.9 63.3 L90.0 63.45 M79.05 67.5 L80.75 68.3 M77.35 66.7 L79.05 67.5 M88.9 63.3 L87.0 62.95 M60.8 64.5 L62.1 66.3 M82.2 57.4 L85.75 56.2 M80.85 57.8 L82.2 57.4 M64.75 53.5 L63.25 53.95 M32.55 68.0 L31.75 68.75 M50.85 58.3 L48.75 59.2 M53.25 55.55 L57.0 56.55 M59.1 62.2 L60.8 64.5 M64.75 53.5 L66.5 52.95 M39.75 62.2 L44.0 61.8 M41.6 52.6 L42.85 53.8 M34.95 54.25 L33.25 53.95 M14.6 64.35 L11.35 64.8 M32.55 68.0 L34.0 66.65 M41.6 52.6 L40.25 51.3 M34.95 54.25 L36.75 54.55 M12.6 54.7 L10.5 52.95 M14.6 64.35 L16.75 64.05 M50.75 57.3 L45.1 58.05" fill="none" stroke="#000000" stroke-linecap="round" stroke-linejoin="round" stroke-opacity="0.2" stroke-width="0.6000000000000001"/>
      <path d="M45.0 19.8 L45.45 21.9 45.25 27.25 Q45.05 30.1 43.1 30.7 41.15 31.15 40.6 26.15 40.45 21.7 40.2 21.65 42.15 20.1 45.0 19.8" fill="url(#gradient5)" fill-rule="evenodd" stroke="none"/>
      <path d="M53.5 29.35 L53.3 36.1 Q53.1 39.65 51.2 40.35 49.3 40.9 48.75 34.75 L48.35 27.6 53.4 26.9 53.5 26.9 54.15 26.9 62.15 25.85 Q62.05 35.05 61.6 39.3 60.75 47.8 58.5 48.6 55.1 49.85 53.85 38.95 L53.5 29.35" fill="url(#gradient6)" fill-rule="evenodd" stroke="none"/>
      <path d="M68.0 34.55 Q67.85 29.1 67.6 29.05 69.6 27.05 72.65 26.7 L72.75 26.7 72.75 29.15 72.55 35.9 Q72.35 39.45 70.45 40.15 68.55 40.7 68.0 34.55" fill="url(#gradient7)" fill-rule="evenodd" stroke="none"/>
    </g>
    <linearGradient gradientTransform="matrix(0.0431, 0.0, 0.0, 0.0085, 47.7, 41.75)" gradientUnits="userSpaceOnUse" id="gradient0" spreadMethod="pad" x1="-819.2" x2="819.2">
      <stop offset="0.0" stop-color="#3e4e54"/>
      <stop offset="1.0" stop-color="#64777c"/>
    </linearGradient>
    <linearGradient gradientTransform="matrix(0.0035, 0.0, 0.0, 0.0054, 77.2, 20.95)" gradientUnits="userSpaceOnUse" id="gradient1" spreadMethod="pad" x1="-819.2" x2="819.2">
      <stop offset="0.0" stop-color="#061316"/>
      <stop offset="1.0" stop-color="#02080a"/>
    </linearGradient>
    <linearGradient gradientTransform="matrix(0.0018, 0.0123, -0.0186, 0.0027, 50.05, 17.5)" gradientUnits="userSpaceOnUse" id="gradient2" spreadMethod="pad" x1="-819.2" x2="819.2">
      <stop offset="0.0" stop-color="#ff9900"/>
      <stop offset="1.0" stop-color="#e84100"/>
    </linearGradient>
    <linearGradient gradientTransform="matrix(0.0045, 0.0045, -0.0056, 0.0056, 42.3, 8.9)" gradientUnits="userSpaceOnUse" id="gradient3" spreadMethod="pad" x1="-819.2" x2="819.2">
      <stop offset="0.0" stop-color="#061316"/>
      <stop offset="1.0" stop-color="#02080a"/>
    </linearGradient>
    <linearGradient gradientTransform="matrix(0.0168, 0.0, 0.0, 0.0053, 28.55, 21.45)" gradientUnits="userSpaceOnUse" id="gradient4" spreadMethod="pad" x1="-819.2" x2="819.2">
      <stop offset="0.0" stop-color="#061316"/>
      <stop offset="1.0" stop-color="#02080a"/>
    </linearGradient>
    <linearGradient gradientTransform="matrix(0.0019, -0.007, -0.0141, 0.0011, 50.45, 25.1)" gradientUnits="userSpaceOnUse" id="gradient5" spreadMethod="pad" x1="-819.2" x2="819.2">
      <stop offset="0.0" stop-color="#a3fff0"/>
      <stop offset="1.0" stop-color="#09cdc9" stop-opacity="0.0"/>
    </linearGradient>
    <linearGradient gradientTransform="matrix(0.0019, -0.0086, -0.0138, 0.0013, 58.35, 33.5)" gradientUnits="userSpaceOnUse" id="gradient6" spreadMethod="pad" x1="-819.2" x2="819.2">
      <stop offset="0.0" stop-color="#a3fff0"/>
      <stop offset="1.0" stop-color="#09cdc9" stop-opacity="0.0"/>
    </linearGradient>
    <linearGradient gradientTransform="matrix(0.0019, -0.0086, -0.0138, 0.0013, 77.6, 33.3)" gradientUnits="userSpaceOnUse" id="gradient7" spreadMethod="pad" x1="-819.2" x2="819.2">
      <stop offset="0.0" stop-color="#a3fff0"/>
      <stop offset="1.0" stop-color="#09cdc9" stop-opacity="0.0"/>
    </linearGradient>
    <g id="sprite0" transform="matrix(1.0, 0.0, 0.0, 1.0, 0.0, 0.0)">
      <use height="24.25" transform="matrix(1.0, 0.0, 0.0, 1.0, 0.0, 0.0)" width="24.25" xlink:href="#shape1"/>
    </g>
    <g id="shape1" transform="matrix(1.0, 0.0, 0.0, 1.0, 0.0, 0.0)">
      <path d="M22.25 5.4 Q24.35 8.5 24.25 12.5 24.1 17.5 20.45 20.95 17.05 24.15 12.45 24.25 L12.25 24.25 10.5 24.15 9.5 23.95 Q5.9 23.2 3.35 20.45 -0.15 16.8 0.0 11.8 0.15 6.8 3.85 3.35 L4.8 2.55 Q7.15 0.6 10.2 0.1 L11.4 0.0 13.5 0.05 Q17.85 0.5 20.95 3.85 L22.25 5.4" fill="#ffff66" fill-rule="evenodd" stroke="none"/>
    </g>
    <g id="shape2" transform="matrix(1.0, 0.0, 0.0, 1.0, -1.8, 6.2)">
      <path d="M61.15 -4.65 Q59.5 -4.65 56.25 -1.15 53.25 2.1 53.25 3.0 53.25 4.15 59.25 5.95 65.0 7.7 67.9 7.7 L69.8 7.65 71.75 6.7 71.1 5.9 Q68.9 1.4 66.3 -1.45 63.4 -4.65 61.15 -4.65" fill="url(#gradient8)" fill-rule="evenodd" stroke="none"/>
      <path d="M31.1 18.65 L22.45 18.9 20.55 18.45 18.6 17.0 Q18.65 16.65 19.25 16.25 21.45 11.55 24.05 8.9 26.95 5.8 29.2 6.25 30.85 6.6 34.1 11.2 37.1 15.5 37.1 16.5 37.1 17.8 31.1 18.65" fill="url(#gradient9)" fill-rule="evenodd" stroke="none"/>
      <path d="M18.9 36.05 L16.7 35.75 14.4 34.8 Q14.45 34.55 15.15 34.3 17.75 31.25 20.8 29.5 24.2 27.5 26.8 27.75 28.75 28.0 32.55 31.0 36.05 33.8 36.05 34.45 36.05 35.3 29.05 35.85 22.3 36.4 18.9 36.05" fill="url(#gradient10)" fill-rule="evenodd" stroke="none"/>
      <path d="M47.55 -1.15 Q48.55 0.05 51.95 2.45 54.15 3.95 54.15 5.5 54.15 7.2 44.3 8.85 L29.35 10.75 27.9 10.7 28.75 8.15 29.75 6.6 Q32.35 1.2 35.85 -2.6 39.05 -6.25 40.5 -6.2 42.85 -6.1 47.55 -1.15" fill="url(#gradient11)" fill-rule="evenodd" stroke="none"/>
      <path d="M95.65 60.3 L95.45 67.05 Q95.25 70.6 93.35 71.3 91.45 71.85 90.9 65.7 90.75 60.25 90.5 60.2 92.5 58.2 95.55 57.85 L95.65 57.85 95.65 60.3" fill="url(#gradient12)" fill-rule="evenodd" stroke="none"/>
      <path d="M81.75 68.95 Q81.1 72.0 79.7 71.7 78.3 71.35 78.25 69.6 L78.35 66.25 77.7 71.0 Q76.45 76.4 73.9 75.8 72.15 75.4 71.85 71.2 71.65 69.1 71.85 64.5 L77.9 65.05 78.5 65.05 82.3 65.4 Q82.05 66.2 81.75 68.95" fill="url(#gradient13)" fill-rule="evenodd" stroke="none"/>
      <path d="M33.05 59.25 L33.5 61.85 33.3 68.4 Q33.1 71.95 31.2 72.65 29.3 73.2 28.75 67.05 28.6 61.6 28.35 61.55 30.25 59.65 33.05 59.25" fill="url(#gradient14)" fill-rule="evenodd" stroke="none"/>
      <path d="M24.9 58.75 L28.7 59.1 Q28.45 59.9 28.15 62.65 27.5 65.7 26.1 65.4 24.7 65.05 24.65 63.3 L24.75 59.95 24.1 64.7 Q22.85 70.1 20.3 69.5 18.55 69.1 18.25 64.9 18.05 62.8 18.25 58.2 L24.3 58.75 24.9 58.75" fill="url(#gradient15)" fill-rule="evenodd" stroke="none"/>
      <path d="M40.7 65.9 L40.25 63.3 40.1 63.15 Q43.45 61.85 48.55 61.65 L48.7 61.65 48.7 63.2 Q48.4 64.7 48.4 67.6 48.05 69.9 44.85 70.35 41.7 70.7 40.75 66.7 L40.7 65.9" fill="url(#gradient16)" fill-rule="evenodd" stroke="none"/>
      <path d="M40.7 65.9 L40.5 72.45 Q40.3 76.0 38.4 76.7 36.5 77.25 35.95 71.1 35.8 65.65 35.55 65.6 37.45 63.7 40.25 63.3 L40.7 65.9" fill="url(#gradient17)" fill-rule="evenodd" stroke="none"/>
      <path d="M1.8 55.15 L6.85 54.95 7.6 55.05 15.65 54.9 Q15.15 64.05 14.55 68.2 13.35 76.55 11.0 77.1 7.55 78.0 6.8 67.0 L6.85 57.45 Q6.55 59.7 6.35 64.15 6.0 67.65 4.1 68.15 2.2 68.5 1.85 62.3 L1.8 55.15" fill="url(#gradient18)" fill-rule="evenodd" stroke="none"/>
      <path d="M70.3 61.45 L70.4 61.45 70.4 63.35 70.2 68.5 Q70.0 71.25 68.1 71.8 66.2 72.2 65.65 67.5 65.5 63.3 65.25 63.25 67.25 61.75 70.3 61.45" fill="url(#gradient19)" fill-rule="evenodd" stroke="none"/>
      <path d="M64.05 67.25 Q63.15 73.55 61.35 73.95 58.8 74.65 58.2 66.35 L58.25 59.15 57.9 64.2 Q57.6 66.85 56.2 67.2 54.75 67.5 54.5 62.8 L54.45 57.45 58.25 57.3 58.8 57.35 59.1 57.35 59.25 57.5 60.5 57.3 64.85 57.25 Q64.5 64.15 64.05 67.25" fill="url(#gradient20)" fill-rule="evenodd" stroke="none"/>
    </g>
    <linearGradient gradientTransform="matrix(0.0, 0.0013, 0.0075, 0.0, 62.65, 5.7)" gradientUnits="userSpaceOnUse" id="gradient8" spreadMethod="pad" x1="-819.2" x2="819.2">
      <stop offset="0.0" stop-color="#ffffff"/>
      <stop offset="1.0" stop-color="#ffffff" stop-opacity="0.0"/>
    </linearGradient>
    <linearGradient gradientTransform="matrix(7.0E-4, 0.0025, -0.0077, 5.0E-4, 27.85, 14.95)" gradientUnits="userSpaceOnUse" id="gradient9" spreadMethod="pad" x1="-819.2" x2="819.2">
      <stop offset="0.0" stop-color="#ffffff"/>
      <stop offset="1.0" stop-color="#ffffff" stop-opacity="0.0"/>
    </linearGradient>
    <linearGradient gradientTransform="matrix(8.0E-4, 0.0016, -0.009, 3.0E-4, 25.25, 33.45)" gradientUnits="userSpaceOnUse" id="gradient10" spreadMethod="pad" x1="-819.2" x2="819.2">
      <stop offset="0.0" stop-color="#ffffff"/>
      <stop offset="1.0" stop-color="#ffffff" stop-opacity="0.0"/>
    </linearGradient>
    <linearGradient gradientTransform="matrix(7.0E-4, 0.0026, -0.0074, 0.0019, 41.25, 6.05)" gradientUnits="userSpaceOnUse" id="gradient11" spreadMethod="pad" x1="-819.2" x2="819.2">
      <stop offset="0.0" stop-color="#ffffff"/>
      <stop offset="1.0" stop-color="#ffffff" stop-opacity="0.0"/>
    </linearGradient>
    <linearGradient gradientTransform="matrix(0.0019, -0.0086, -0.0138, 0.0013, 100.5, 64.45)" gradientUnits="userSpaceOnUse" id="gradient12" spreadMethod="pad" x1="-819.2" x2="819.2">
      <stop offset="0.0" stop-color="#a3fff0"/>
      <stop offset="1.0" stop-color="#09cdc9" stop-opacity="0.0"/>
    </linearGradient>
    <linearGradient gradientTransform="matrix(-0.0011, -0.0043, 0.0104, 7.0E-4, 74.5, 68.3)" gradientUnits="userSpaceOnUse" id="gradient13" spreadMethod="pad" x1="-819.2" x2="819.2">
      <stop offset="0.0" stop-color="#a3fff0"/>
      <stop offset="1.0" stop-color="#09cdc9" stop-opacity="0.0"/>
    </linearGradient>
    <linearGradient gradientTransform="matrix(0.0019, -0.0086, -0.0138, 0.0013, 38.35, 65.8)" gradientUnits="userSpaceOnUse" id="gradient14" spreadMethod="pad" x1="-819.2" x2="819.2">
      <stop offset="0.0" stop-color="#a3fff0"/>
      <stop offset="1.0" stop-color="#09cdc9" stop-opacity="0.0"/>
    </linearGradient>
    <linearGradient gradientTransform="matrix(-0.0011, -0.0043, 0.0104, 7.0E-4, 20.9, 62.0)" gradientUnits="userSpaceOnUse" id="gradient15" spreadMethod="pad" x1="-819.2" x2="819.2">
      <stop offset="0.0" stop-color="#a3fff0"/>
      <stop offset="1.0" stop-color="#09cdc9" stop-opacity="0.0"/>
    </linearGradient>
    <linearGradient gradientTransform="matrix(0.0032, -0.0056, -0.0231, 9.0E-4, 56.85, 65.9)" gradientUnits="userSpaceOnUse" id="gradient16" spreadMethod="pad" x1="-819.2" x2="819.2">
      <stop offset="0.0" stop-color="#a3fff0"/>
      <stop offset="1.0" stop-color="#09cdc9" stop-opacity="0.0"/>
    </linearGradient>
    <linearGradient gradientTransform="matrix(0.0019, -0.0086, -0.0138, 0.0013, 45.55, 69.85)" gradientUnits="userSpaceOnUse" id="gradient17" spreadMethod="pad" x1="-819.2" x2="819.2">
      <stop offset="0.0" stop-color="#a3fff0"/>
      <stop offset="1.0" stop-color="#09cdc9" stop-opacity="0.0"/>
    </linearGradient>
    <linearGradient gradientTransform="matrix(0.0023, -0.0084, -0.0139, -2.0E-4, 11.55, 62.1)" gradientUnits="userSpaceOnUse" id="gradient18" spreadMethod="pad" x1="-819.2" x2="819.2">
      <stop offset="0.0" stop-color="#a3fff0"/>
      <stop offset="1.0" stop-color="#09cdc9" stop-opacity="0.0"/>
    </linearGradient>
    <linearGradient gradientTransform="matrix(0.0019, -0.0066, -0.0138, 0.001, 75.25, 66.55)" gradientUnits="userSpaceOnUse" id="gradient19" spreadMethod="pad" x1="-819.2" x2="819.2">
      <stop offset="0.0" stop-color="#a3fff0"/>
      <stop offset="1.0" stop-color="#09cdc9" stop-opacity="0.0"/>
    </linearGradient>
    <linearGradient gradientTransform="matrix(0.0017, -0.0063, -0.0104, -1.0E-4, 61.8, 62.65)" gradientUnits="userSpaceOnUse" id="gradient20" spreadMethod="pad" x1="-819.2" x2="819.2">
      <stop offset="0.0" stop-color="#a3fff0"/>
      <stop offset="1.0" stop-color="#09cdc9" stop-opacity="0.0"/>
    </linearGradient>
    <g id="shape3" transform="matrix(1.0, 0.0, 0.0, 1.0, -21.25, -45.55)">
      <path d="M82.3 46.2 L82.2 47.7 81.6 52.65 81.6 52.85 Q80.8 56.75 79.35 57.0 77.3 57.4 76.75 52.85 L76.65 52.1 76.7 47.9 76.7 47.45 76.65 47.9 76.4 50.7 Q76.15 52.4 74.95 52.65 73.75 52.8 73.55 49.8 L73.6 48.0 73.5 46.3 76.7 46.2 77.2 46.25 82.3 46.2" fill="url(#gradient21)" fill-rule="evenodd" stroke="none"/>
      <path d="M26.05 45.55 L26.5 47.65 26.3 53.0 Q26.1 55.85 24.15 56.45 22.2 56.9 21.65 51.9 21.5 47.45 21.25 47.4 23.2 45.85 26.05 45.55" fill="url(#gradient22)" fill-rule="evenodd" stroke="none"/>
    </g>
    <linearGradient gradientTransform="matrix(0.0014, -0.0041, -0.0088, -1.0E-4, 79.7, 49.7)" gradientUnits="userSpaceOnUse" id="gradient21" spreadMethod="pad" x1="-819.2" x2="819.2">
      <stop offset="0.0" stop-color="#a3fff0"/>
      <stop offset="1.0" stop-color="#09cdc9" stop-opacity="0.0"/>
    </linearGradient>
    <linearGradient gradientTransform="matrix(0.0019, -0.007, -0.0141, 0.0011, 31.5, 50.85)" gradientUnits="userSpaceOnUse" id="gradient22" spreadMethod="pad" x1="-819.2" x2="819.2">
      <stop offset="0.0" stop-color="#a3fff0"/>
      <stop offset="1.0" stop-color="#09cdc9" stop-opacity="0.0"/>
    </linearGradient>
  </defs>
</svg>
