<?xml version="1.0" encoding="UTF-8" standalone="no"?>
<svg xmlns:xlink="http://www.w3.org/1999/xlink" height="531.5px" width="460.6px" xmlns="http://www.w3.org/2000/svg">
  <g transform="matrix(1.0, 0.0, 0.0, 1.0, 193.65, 334.05)">
    <use height="137.45" transform="matrix(1.0, 0.0, 0.0, 1.0, -120.1, -212.15)" width="177.75" xlink:href="#shape0"/>
  </g>
  <defs>
    <g id="shape0" transform="matrix(1.0, 0.0, 0.0, 1.0, 120.1, 212.15)">
      <path d="M-117.0 -100.1 L-117.1 -101.3 Q-117.1 -106.6 -116.1 -111.2 -114.95 -116.4 -112.5 -120.8 -110.35 -124.9 -107.05 -128.35 -108.3 -125.1 -109.35 -121.25 -111.3 -113.85 -111.15 -109.8 L-111.15 -108.8 -109.95 -108.8 Q-107.15 -110.35 -102.85 -112.1 -97.3 -114.35 -94.85 -114.45 L-92.45 -114.45 -98.1 -104.0 Q-100.9 -98.9 -102.95 -93.35 L-101.5 -93.1 Q-99.55 -93.1 -94.75 -94.65 L-89.45 -96.35 Q-89.8 -95.0 -94.5 -87.5 L-94.5 -87.05 -91.45 -87.05 -87.95 -88.15 -81.45 -90.2 -79.6 -90.9 -82.15 -89.2 Q-85.05 -87.3 -87.7 -85.75 L-87.95 -88.15 -87.7 -85.75 Q-93.5 -82.55 -97.9 -80.85 L-94.1 -84.65 -97.9 -80.85 Q-100.5 -79.95 -102.6 -79.55 L-105.75 -78.95 -110.8 -78.35 -112.5 -82.1 -114.3 -86.55 -115.3 -90.3 -116.0 -92.95 Q-116.95 -97.2 -117.0 -100.1 L-115.15 -104.55 -117.0 -100.1 M-110.1 -121.65 L-112.5 -120.8 -110.1 -121.65 M-113.8 -113.25 L-116.1 -111.2 -113.8 -113.25 M-113.5 -100.35 L-111.4 -105.4 -113.5 -100.35 M-114.4 -92.7 L-115.3 -90.3 -114.4 -92.7 M-111.4 -84.25 L-112.5 -82.1 -111.4 -84.25 M-104.5 -81.4 L-105.75 -78.95 -104.5 -81.4 M-107.55 -92.1 L-105.75 -97.1 -107.55 -92.1" fill="#e8e0da" fill-rule="evenodd" stroke="none"/>
      <path d="M-82.4 -139.9 L-84.95 -141.95 -82.4 -139.9 M-84.95 -141.95 L-79.15 -144.6 Q-76.0 -146.0 -73.2 -147.35 -68.6 -149.55 -64.9 -151.6 L-59.55 -154.95 -48.7 -158.15 Q-57.3 -145.05 -60.3 -132.4 L-60.65 -131.05 -62.6 -120.75 -63.9 -122.85 -62.6 -120.75 -62.7 -120.2 Q-63.9 -113.65 -65.5 -108.7 L-65.6 -108.3 -66.9 -110.15 -65.6 -108.3 Q-67.45 -103.35 -70.95 -98.9 L-71.75 -101.55 -70.95 -98.9 Q-73.85 -95.4 -77.9 -92.15 L-79.6 -90.9 -81.45 -90.2 -87.95 -88.15 -91.45 -87.05 -94.5 -87.05 -94.5 -87.5 Q-89.8 -95.0 -89.45 -96.35 L-94.75 -94.65 Q-99.55 -93.1 -101.5 -93.1 L-102.95 -93.35 Q-100.9 -98.9 -98.1 -104.0 L-92.45 -114.45 -94.85 -114.45 Q-97.3 -114.35 -102.85 -112.1 -107.15 -110.35 -109.95 -108.8 L-111.15 -108.8 -111.15 -109.8 Q-111.3 -113.85 -109.35 -121.25 -108.3 -125.1 -107.05 -128.35 L-103.95 -131.25 Q-101.15 -133.6 -97.75 -135.65 L-93.75 -137.8 -90.4 -137.55 -93.75 -137.8 -84.95 -141.95 M-99.45 -131.75 L-103.95 -131.25 -99.45 -131.75 M-78.15 -94.75 L-77.9 -92.15 -78.15 -94.75 M-99.1 -125.25 L-93.5 -129.1 -99.1 -125.25 M-104.5 -114.45 L-103.7 -118.45 -104.5 -114.45 M-92.8 -108.8 L-88.95 -114.45 -92.8 -108.8 M-91.25 -97.1 L-84.8 -101.7 -91.25 -97.1 M-70.95 -145.4 L-73.2 -147.35 -70.95 -145.4 M-68.75 -140.2 L-66.8 -142.15 -68.75 -140.2 M-61.25 -150.85 L-64.9 -151.6 -61.25 -150.85 M-77.2 -103.75 L-76.0 -107.35 -77.2 -103.75 M-70.35 -120.8 L-70.2 -126.3 -70.35 -120.8 M-79.0 -116.2 L-76.45 -123.05 -79.0 -116.2" fill="url(#gradient0)" fill-rule="evenodd" stroke="none"/>
      <path d="M-84.95 -141.95 L-82.4 -139.9 M-87.25 -143.75 L-84.95 -141.95 -79.15 -144.6 Q-76.0 -146.0 -73.2 -147.35 L-75.75 -149.65 M-117.0 -100.1 L-118.4 -97.1 M-116.1 -111.2 Q-117.1 -106.6 -117.1 -101.3 L-117.0 -100.1 -115.15 -104.55 M-93.75 -137.8 L-90.4 -137.55 M-93.75 -137.8 L-97.75 -135.65 Q-101.15 -133.6 -103.95 -131.25 L-99.45 -131.75 M-96.05 -137.95 L-93.75 -137.8 -84.95 -141.95 M-79.6 -90.9 L-77.9 -92.15 -78.15 -94.75 M-103.95 -131.25 L-107.55 -130.9 M-112.5 -120.8 L-110.1 -121.65 M-107.05 -128.35 Q-110.35 -124.9 -112.5 -120.8 -114.95 -116.4 -116.1 -111.2 L-113.8 -113.25 M-103.95 -131.25 L-107.05 -128.35 M-111.4 -105.4 L-113.5 -100.35 M-84.8 -101.7 L-91.25 -97.1 M-88.95 -114.45 L-92.8 -108.8 M-103.7 -118.45 L-104.5 -114.45 M-93.5 -129.1 L-99.1 -125.25 M-116.1 -111.2 L-119.6 -108.2 M-112.5 -120.8 L-116.6 -119.45 M-73.2 -147.35 Q-68.6 -149.55 -64.9 -151.6 L-69.95 -152.65 M-66.8 -142.15 L-68.75 -140.2 M-73.2 -147.35 L-70.95 -145.4 M-64.9 -151.6 L-59.55 -154.95 -48.7 -158.15 Q-57.3 -145.05 -60.3 -132.4 L-60.65 -131.05 -62.6 -120.75 -59.9 -116.2 M-64.9 -151.6 L-61.25 -150.85 M-62.6 -120.75 L-63.9 -122.85 M-62.6 -120.75 L-62.7 -120.2 Q-63.9 -113.65 -65.5 -108.7 L-65.6 -108.3 -64.65 -106.75 M-70.2 -126.3 L-70.35 -120.8 M-76.0 -107.35 L-77.2 -103.75 M-65.6 -108.3 L-66.9 -110.15 M-65.6 -108.3 Q-67.45 -103.35 -70.95 -98.9 L-70.1 -96.1 M-70.95 -98.9 L-71.75 -101.55 M-76.45 -123.05 L-79.0 -116.2 M-77.9 -92.15 L-77.55 -88.5 M-87.95 -88.15 L-87.7 -85.75 Q-85.05 -87.3 -82.15 -89.2 L-79.6 -90.9 M-94.1 -84.65 L-97.9 -80.85 Q-93.5 -82.55 -87.7 -85.75 L-87.6 -83.65 M-117.0 -100.1 Q-116.95 -97.2 -116.0 -92.95 L-115.3 -90.3 -114.4 -92.7 M-115.3 -90.3 L-114.3 -86.55 -112.5 -82.1 -111.4 -84.25 M-112.5 -82.1 L-114.8 -77.85 M-112.5 -82.1 L-110.8 -78.35 -105.75 -78.95 -104.5 -81.4 M-105.75 -78.95 L-102.6 -79.55 Q-100.5 -79.95 -97.9 -80.85 L-101.5 -77.4 M-105.75 -78.95 L-107.7 -75.2 M-115.3 -90.3 L-117.2 -85.85 M-105.75 -97.1 L-107.55 -92.1 M-70.95 -98.9 Q-73.85 -95.4 -77.9 -92.15" fill="none" stroke="#000000" stroke-linecap="round" stroke-linejoin="round" stroke-opacity="0.5019608" stroke-width="1.0"/>
      <path d="M27.65 -210.75 L38.5 -209.45 Q40.8 -208.75 42.9 -207.45 46.65 -205.15 49.75 -201.25 L50.15 -199.6 47.55 -200.35 50.15 -199.6 51.35 -194.0 52.65 -185.45 53.15 -180.65 51.15 -180.8 53.15 -180.65 53.35 -177.7 53.25 -177.7 50.05 -178.2 53.25 -177.7 53.35 -177.7 53.5 -168.25 53.25 -163.05 52.75 -161.1 51.45 -158.8 Q50.4 -157.5 48.95 -156.5 L44.05 -156.1 42.8 -157.1 44.05 -156.1 30.1 -154.9 27.5 -155.55 11.7 -158.3 -4.7 -159.2 -18.2 -159.7 Q-31.9 -161.8 -38.3 -166.05 -43.7 -169.65 -45.15 -175.1 L-41.5 -176.55 -45.15 -175.1 Q-45.8 -177.2 -45.8 -179.75 -45.8 -186.35 -39.55 -198.7 L-39.4 -199.05 Q-37.2 -203.7 -32.3 -207.6 -1.9 -213.55 27.65 -210.75 L25.2 -208.1 27.65 -210.75 M34.45 -204.5 L30.7 -202.3 34.45 -204.5 M42.9 -207.45 L39.4 -205.15 42.9 -207.45 M47.3 -176.55 L43.7 -178.05 47.3 -176.55 M49.5 -187.25 L52.65 -185.45 49.5 -187.25 M51.35 -194.0 L49.15 -195.3 51.35 -194.0 M46.3 -167.35 L43.7 -168.5 46.3 -167.35 M52.1 -168.75 L53.5 -168.25 52.1 -168.75 M52.75 -161.1 L50.05 -163.05 52.75 -161.1 M50.45 -159.7 L51.45 -158.8 50.45 -159.7 M42.5 -160.5 L38.5 -162.15 42.5 -160.5 M39.9 -197.25 L32.65 -193.85 39.9 -197.25 M36.45 -185.6 L30.35 -185.6 36.45 -185.6 M25.7 -169.15 L21.7 -173.15 25.7 -169.15 M-38.25 -198.65 L-39.55 -198.7 -38.25 -198.65" fill="url(#gradient1)" fill-rule="evenodd" stroke="none"/>
      <path d="M-45.15 -175.1 Q-43.7 -169.65 -38.3 -166.05 -31.9 -161.8 -18.2 -159.7 L-4.7 -159.2 11.7 -158.3 27.5 -155.55 30.1 -154.9 -53.55 -147.8 -53.95 -147.8 -57.05 -148.15 Q-59.4 -148.8 -61.05 -150.4 -62.85 -152.3 -63.65 -155.55 L-64.15 -157.5 -64.8 -164.6 -63.35 -165.7 -64.8 -164.6 -65.05 -170.35 -61.6 -172.55 -65.05 -170.35 -65.1 -176.7 -64.7 -185.45 -64.4 -189.85 -64.15 -192.45 -63.15 -194.65 Q-61.3 -198.65 -58.2 -200.75 L-57.15 -201.5 Q-44.65 -205.3 -32.3 -207.6 -37.2 -203.7 -39.4 -199.05 L-39.55 -198.7 -45.75 -199.2 -39.55 -198.7 Q-45.8 -186.35 -45.8 -179.75 -45.8 -177.2 -45.15 -175.1 L-46.15 -174.75 -45.15 -175.1 M-56.1 -199.05 L-58.2 -200.75 -56.1 -199.05 M-61.45 -194.9 L-63.15 -194.65 -61.45 -194.9 M-55.5 -182.6 L-51.85 -185.1 -55.5 -182.6 M-33.6 -152.2 L-30.5 -155.45 -33.6 -152.2 M-61.15 -191.05 L-64.4 -189.85 -61.15 -191.05 M-61.15 -187.25 L-64.7 -185.45 -61.15 -187.25 M-63.65 -177.15 L-65.1 -176.7 -63.65 -177.15 M-61.05 -150.4 L-59.1 -152.7 -61.05 -150.4 M-52.1 -155.6 L-46.8 -160.5 -52.1 -155.6 M-58.7 -160.1 L-53.3 -162.85 -58.7 -160.1 M-55.2 -171.5 L-52.15 -172.9 -55.2 -171.5 M-62.1 -156.7 L-63.65 -155.55 -62.1 -156.7 M-56.1 -149.45 L-57.05 -148.15 -56.1 -149.45 M-43.55 -154.3 L-40.1 -157.4 -43.55 -154.3 M-51.85 -150.0 L-53.55 -147.8 -51.85 -150.0" fill="url(#gradient2)" fill-rule="evenodd" stroke="none"/>
      <path d="M42.9 -207.45 Q40.8 -208.75 38.5 -209.45 L27.65 -210.75 25.2 -208.1 M30.7 -202.3 L34.45 -204.5 M42.9 -207.45 Q46.65 -205.15 49.75 -201.25 L50.15 -199.6 52.1 -199.05 M42.9 -207.45 L45.35 -209.0 M50.15 -199.6 L47.55 -200.35 M39.4 -205.15 L42.9 -207.45 M51.35 -194.0 L54.55 -192.7 M43.7 -178.05 L47.3 -176.55 M53.15 -180.65 L54.05 -180.55 M51.15 -180.8 L53.15 -180.65 52.65 -185.45 49.5 -187.25 M50.05 -178.2 L53.25 -177.7 53.35 -177.7 53.15 -180.65 M53.35 -177.7 L56.2 -177.55 M52.65 -185.45 Q54.2 -184.6 55.7 -183.8 M51.35 -194.0 L52.65 -185.45 M49.15 -195.3 L51.35 -194.0 50.15 -199.6 M53.5 -168.25 L53.65 -168.15 56.2 -167.5 M52.75 -161.1 L53.25 -163.05 53.5 -168.25 52.1 -168.75 M43.7 -168.5 L46.3 -167.35 M44.05 -156.1 L42.8 -157.1 M51.45 -158.8 Q50.4 -157.5 48.95 -156.5 L44.05 -156.1 46.3 -154.0 M51.45 -158.8 L52.9 -157.6 55.35 -155.6 M52.75 -161.1 L53.75 -160.45 57.15 -158.05 M52.75 -161.1 L51.45 -158.8 50.45 -159.7 M50.05 -163.05 L52.75 -161.1 M53.35 -177.7 L53.5 -168.25 M30.1 -154.9 L44.05 -156.1 M21.7 -173.15 L25.7 -169.15 M30.35 -185.6 L36.45 -185.6 M32.65 -193.85 L39.9 -197.25 M38.5 -162.15 L42.5 -160.5 M-58.2 -200.75 L-56.1 -199.05 M-58.2 -200.75 L-60.3 -202.2 M-32.3 -207.6 Q-44.65 -205.3 -57.15 -201.5 L-58.2 -200.75 Q-61.3 -198.65 -63.15 -194.65 L-61.45 -194.9 M-39.55 -198.7 L-38.25 -198.65 M-39.55 -198.7 L-45.75 -199.2 M-30.5 -155.45 L-33.6 -152.2 M-51.85 -185.1 L-55.5 -182.6 M-45.15 -175.1 L-46.15 -174.75 M-45.15 -175.1 L-41.5 -176.55 M-64.4 -189.85 L-61.15 -191.05 M-63.15 -194.65 L-64.15 -192.45 -64.4 -189.85 -64.7 -185.45 -61.15 -187.25 M-66.75 -194.65 L-64.4 -194.65 -63.15 -194.65 M-64.4 -189.85 Q-67.65 -188.7 -68.15 -188.2 M-68.95 -183.15 L-64.7 -185.45 -65.1 -176.7 -63.65 -177.15 M-65.1 -176.7 L-69.75 -174.75 M-64.8 -164.6 L-63.35 -165.7 M-68.4 -162.15 Q-67.75 -162.45 -64.8 -164.6 L-65.05 -170.35 -68.2 -168.5 M-65.05 -170.35 L-61.6 -172.55 M-63.65 -155.55 L-64.15 -157.5 -64.8 -164.6 M-61.05 -150.4 Q-62.85 -152.3 -63.65 -155.55 L-65.75 -153.9 -67.75 -152.05 M-63.65 -155.55 L-62.1 -156.7 M-52.15 -172.9 L-55.2 -171.5 M-53.3 -162.85 L-58.7 -160.1 M-46.8 -160.5 L-52.1 -155.6 M-59.1 -152.7 L-61.05 -150.4 Q-59.4 -148.8 -57.05 -148.15 L-56.1 -149.45 M-65.05 -170.35 L-65.1 -176.7 M-53.55 -147.8 L-53.95 -147.8 -57.05 -148.15 -58.5 -146.15 M-53.55 -147.8 L-56.4 -144.2 M-53.55 -147.8 L-51.85 -150.0 M-40.1 -157.4 L-43.55 -154.3 M-61.05 -150.4 L-64.0 -147.25 M30.1 -154.9 L-53.55 -147.8 M27.65 -210.75 Q-1.9 -213.55 -32.3 -207.6" fill="none" stroke="#000000" stroke-linecap="round" stroke-linejoin="round" stroke-opacity="0.5019608" stroke-width="1.0"/>
      <path d="M-21.55 -192.85 L-35.2 -192.85 -27.0 -199.2 -21.55 -192.85" fill="#7a4a1f" fill-rule="evenodd" stroke="none"/>
      <path d="M9.5 -177.95 L16.2 -180.8 17.8 -171.6 9.5 -177.95" fill="#7a4a1f" fill-rule="evenodd" stroke="none"/>
      <path d="M-26.85 -166.05 L-22.85 -175.75 -18.35 -170.1 -26.85 -166.05" fill="#7a4a1f" fill-rule="evenodd" stroke="none"/>
      <path d="M23.85 -197.0 L13.5 -195.6 16.1 -202.3 23.85 -197.0" fill="#7a4a1f" fill-rule="evenodd" stroke="none"/>
    </g>
    <linearGradient gradientTransform="matrix(0.0202, -0.0202, 0.0307, 0.0307, -63.7, -134.3)" gradientUnits="userSpaceOnUse" id="gradient0" spreadMethod="pad" x1="-819.2" x2="819.2">
      <stop offset="0.0" stop-color="#6a3e14"/>
      <stop offset="1.0" stop-color="#40240c"/>
    </linearGradient>
    <linearGradient gradientTransform="matrix(0.022, -0.0219, 0.0244, 0.0245, 39.0, -194.8)" gradientUnits="userSpaceOnUse" id="gradient1" spreadMethod="pad" x1="-819.2" x2="819.2">
      <stop offset="0.0" stop-color="#825324"/>
      <stop offset="1.0" stop-color="#996f45"/>
    </linearGradient>
    <linearGradient gradientTransform="matrix(-0.0037, 0.0277, -0.036, -0.0047, -58.95, -164.9)" gradientUnits="userSpaceOnUse" id="gradient2" spreadMethod="pad" x1="-819.2" x2="819.2">
      <stop offset="0.0" stop-color="#7a4a1f"/>
      <stop offset="1.0" stop-color="#522b04"/>
    </linearGradient>
  </defs>
</svg>
