<?xml version="1.0" encoding="UTF-8" standalone="no"?>
<svg xmlns:xlink="http://www.w3.org/1999/xlink" height="531.5px" width="460.6px" xmlns="http://www.w3.org/2000/svg">
  <g transform="matrix(1.0, 0.0, 0.0, 1.0, 193.65, 334.05)">
    <use height="140.1" transform="matrix(1.0, 0.0, 0.0, 1.0, -75.5, -217.4)" width="141.65" xlink:href="#shape0"/>
  </g>
  <defs>
    <g id="shape0" transform="matrix(1.0, 0.0, 0.0, 1.0, 75.5, 217.4)">
      <path d="M-55.45 -90.3 L-57.1 -91.9 Q-58.8 -93.9 -59.7 -97.15 -60.4 -99.9 -60.65 -104.1 L-59.05 -139.45 Q-57.1 -152.35 -48.5 -162.55 -39.15 -173.75 -26.55 -177.5 -2.55 -180.8 21.55 -175.05 L27.25 -173.75 36.45 -170.8 40.2 -169.35 41.75 -168.45 Q45.4 -166.15 46.2 -164.45 50.4 -155.8 51.5 -147.55 53.3 -133.15 53.85 -121.55 L54.15 -116.75 Q55.3 -102.65 50.95 -89.6 L50.8 -89.4 Q49.8 -87.25 48.8 -86.25 49.65 -94.25 49.1 -102.65 L48.8 -108.05 Q48.35 -121.1 46.7 -137.4 45.7 -146.7 41.9 -156.45 41.1 -158.45 37.85 -161.05 L36.4 -162.05 32.95 -163.7 Q28.75 -165.6 24.6 -167.0 L19.3 -168.5 Q-2.65 -174.9 -24.5 -171.25 -35.95 -167.0 -44.45 -154.4 -52.3 -142.8 -54.1 -128.35 L-55.45 -90.3" fill="#c7d1be" fill-rule="evenodd" stroke="none"/>
      <path d="M43.85 -172.45 Q47.2 -170.35 48.9 -167.9 53.45 -161.2 55.0 -149.55 56.95 -133.85 57.6 -121.55 58.95 -107.45 56.15 -93.9 L55.15 -89.6 55.15 -89.4 Q55.15 -86.95 54.3 -85.65 52.8 -83.45 48.35 -81.85 L48.2 -81.75 Q39.75 -78.9 19.25 -78.05 L-3.6 -77.3 Q-29.75 -76.95 -54.45 -85.45 L-55.35 -85.8 -55.7 -85.95 Q-59.7 -87.95 -61.15 -90.15 -63.3 -93.15 -64.0 -98.3 L-64.45 -104.1 -63.15 -139.45 Q-61.55 -157.6 -47.75 -170.35 -38.15 -179.25 -26.55 -182.15 L-20.4 -182.7 Q3.75 -184.3 27.25 -178.4 33.8 -176.8 40.2 -174.45 L43.85 -172.45 M48.8 -86.25 Q49.8 -87.25 50.8 -89.4 L50.95 -89.6 Q55.3 -102.65 54.15 -116.75 L53.85 -121.55 Q53.3 -133.15 51.5 -147.55 50.4 -155.8 46.2 -164.45 45.4 -166.15 41.75 -168.45 L40.2 -169.35 36.45 -170.8 27.25 -173.75 21.55 -175.05 Q-2.55 -180.8 -26.55 -177.5 -39.15 -173.75 -48.5 -162.55 -57.1 -152.35 -59.05 -139.45 L-60.65 -104.1 Q-60.4 -99.9 -59.7 -97.15 -58.8 -93.9 -57.1 -91.9 L-55.45 -90.3 -54.45 -89.7 Q-46.15 -87.35 -37.85 -85.65 -9.55 -79.55 19.25 -81.55 L22.65 -81.75 Q41.05 -82.9 47.95 -85.75 L48.8 -86.25" fill="#000000" fill-rule="evenodd" stroke="none"/>
      <path d="M-55.45 -90.3 L-54.1 -128.35 Q-52.3 -142.8 -44.45 -154.4 -35.95 -167.0 -24.5 -171.25 -2.65 -174.9 19.3 -168.5 L24.6 -167.0 Q28.75 -165.6 32.95 -163.7 L36.4 -162.05 37.85 -161.05 Q41.1 -158.45 41.9 -156.45 45.7 -146.7 46.7 -137.4 48.35 -121.1 48.8 -108.05 L49.1 -102.65 Q49.65 -94.25 48.8 -86.25 L47.95 -85.75 Q41.05 -82.9 22.65 -81.75 L19.25 -81.55 Q-9.55 -79.55 -37.85 -85.65 -46.15 -87.35 -54.45 -89.7 L-55.45 -90.3" fill="#b8c2ac" fill-rule="evenodd" stroke="none"/>
      <path d="M13.3 -151.6 L14.15 -150.4 14.85 -148.1 15.85 -143.65 17.3 -137.95 17.95 -134.85 18.8 -136.05 Q19.5 -137.05 20.0 -137.05 L20.8 -136.9 20.95 -136.35 21.3 -135.5 21.95 -133.9 22.55 -132.25 22.9 -131.1 24.6 -131.1 Q28.85 -131.65 30.1 -129.55 L30.3 -129.1 31.85 -127.95 Q32.35 -127.5 37.15 -124.9 L42.05 -121.95 Q46.15 -119.05 46.15 -118.45 46.15 -117.4 42.9 -116.85 L32.7 -115.65 32.35 -115.45 Q33.35 -113.95 35.7 -111.35 37.55 -109.05 37.85 -107.25 37.85 -106.85 39.55 -103.6 41.2 -100.4 41.2 -99.25 41.2 -98.35 39.7 -98.35 38.0 -98.35 30.85 -102.45 L30.0 -103.0 29.15 -103.45 26.5 -105.05 Q22.0 -106.55 21.1 -107.25 20.95 -105.7 19.85 -105.4 18.4 -105.05 18.05 -104.25 L17.65 -102.45 Q17.5 -101.45 16.5 -101.45 L15.7 -101.6 15.55 -101.6 14.3 -101.45 8.9 -102.3 1.5 -103.15 Q0.05 -103.15 -2.7 -101.0 L-5.75 -98.25 -7.55 -95.95 Q-9.4 -94.05 -10.75 -94.05 -12.6 -94.05 -15.1 -95.65 -17.3 -97.25 -17.8 -97.35 -19.7 -97.8 -21.45 -98.8 L-23.95 -100.55 -25.95 -97.65 Q-27.3 -95.6 -27.75 -94.35 L-29.15 -91.15 Q-30.3 -88.7 -31.4 -88.7 -32.95 -88.7 -32.95 -90.3 -32.7 -92.25 -32.8 -92.6 L-33.3 -96.65 -31.65 -110.6 -31.8 -111.2 -31.55 -111.8 -31.35 -115.3 Q-31.2 -117.15 -31.35 -118.05 -31.5 -119.6 -32.55 -120.35 -33.65 -121.1 -34.0 -121.4 L-34.75 -122.4 Q-36.2 -124.1 -36.2 -124.6 -36.2 -125.6 -27.85 -127.65 L-27.85 -127.95 -27.45 -127.8 -25.8 -128.2 Q-19.75 -129.75 -12.0 -129.9 L9.8 -130.05 10.2 -131.65 10.55 -133.9 10.75 -135.05 10.9 -135.6 10.95 -136.2 11.2 -138.35 11.5 -142.75 Q11.4 -145.75 11.8 -147.2 L12.0 -151.6 Q12.55 -152.35 13.3 -151.6 M11.95 -137.2 Q11.4 -133.6 10.65 -130.55 L10.55 -130.4 Q10.1 -129.2 10.1 -128.45 -12.0 -128.65 -16.7 -128.3 L-21.95 -127.5 -25.95 -126.9 -24.85 -126.05 Q-22.2 -124.25 -19.45 -124.25 L-16.35 -125.6 Q-13.05 -127.15 -12.2 -127.15 -11.7 -127.15 -11.45 -126.55 L-11.55 -126.15 -11.05 -126.15 -6.95 -125.7 Q-3.7 -125.7 -0.7 -126.45 L5.0 -127.15 Q7.3 -127.15 10.8 -126.05 L14.1 -125.0 Q15.55 -125.0 19.5 -127.3 22.3 -128.9 22.3 -127.0 22.3 -126.6 21.7 -126.0 L22.15 -125.85 24.2 -125.4 Q25.45 -125.4 26.05 -126.45 L26.5 -127.6 Q27.5 -128.75 28.25 -128.45 L28.7 -128.15 28.7 -128.45 28.05 -129.05 26.2 -129.55 21.85 -129.75 21.3 -131.5 20.95 -132.75 19.95 -135.45 Q18.6 -132.7 17.8 -132.7 17.15 -132.7 16.8 -133.75 L16.65 -134.9 15.85 -138.65 15.15 -141.15 Q13.95 -146.95 13.15 -149.6 L12.15 -139.2 11.95 -137.2 M20.35 -125.0 L19.65 -124.55 Q16.75 -122.95 14.75 -122.95 13.6 -122.95 10.35 -124.0 7.0 -125.1 5.0 -125.1 L-0.15 -124.4 -5.35 -123.85 Q-9.85 -123.85 -12.75 -125.0 -14.75 -123.55 -19.05 -122.05 -21.2 -122.05 -23.25 -123.15 L-25.55 -124.55 Q-26.9 -125.0 -27.55 -126.15 L-27.7 -126.45 -34.4 -124.4 Q-33.95 -123.5 -31.95 -122.2 -30.2 -121.1 -30.05 -119.95 -29.75 -118.05 -29.75 -115.45 L-29.75 -114.25 -28.6 -115.7 Q-27.1 -118.05 -21.45 -118.6 -19.25 -118.2 -18.55 -116.25 -17.6 -117.4 -15.7 -118.45 -11.4 -120.8 -4.9 -120.8 L-1.0 -120.45 3.1 -119.95 7.05 -120.2 9.8 -121.1 Q13.55 -122.65 14.7 -122.35 15.55 -122.05 18.35 -120.35 L22.0 -117.9 25.8 -117.7 29.25 -116.15 Q30.0 -115.3 31.25 -112.75 31.9 -111.5 31.9 -109.6 L32.2 -107.55 31.45 -104.2 Q32.6 -103.6 34.65 -102.75 L38.85 -100.55 39.0 -100.55 Q36.8 -104.4 35.7 -108.4 L33.05 -112.2 Q30.55 -115.3 30.55 -115.7 30.55 -116.55 34.75 -117.7 L42.75 -119.05 33.2 -125.25 Q30.85 -126.7 29.4 -127.8 28.65 -127.45 28.35 -126.85 L28.1 -125.55 27.55 -125.1 Q26.2 -123.7 24.75 -123.7 22.7 -123.7 21.0 -124.55 L20.35 -125.0 M-17.7 -113.5 L-16.85 -114.1 Q-14.35 -115.3 -10.25 -115.3 L-7.05 -114.8 Q-5.6 -114.1 -5.05 -114.1 -3.75 -114.1 -1.45 -115.25 0.8 -116.4 4.55 -116.4 6.9 -116.4 13.4 -114.4 L14.6 -114.8 17.8 -115.25 19.1 -116.3 19.5 -116.45 18.4 -117.4 Q16.3 -119.2 15.7 -119.2 L7.6 -118.5 3.25 -117.9 -1.9 -118.5 -6.05 -119.2 Q-13.0 -119.2 -15.65 -116.9 L-17.8 -113.55 -18.25 -113.4 -18.25 -113.1 -17.7 -113.5 M-3.15 -103.75 L-2.85 -104.1 Q-1.4 -105.65 -0.3 -105.65 L8.3 -104.8 Q11.85 -103.95 15.15 -103.95 L15.85 -103.8 16.45 -105.25 Q17.75 -107.85 19.35 -107.1 19.05 -107.85 19.05 -108.3 19.1 -109.05 20.8 -109.05 L24.6 -107.6 29.25 -105.55 29.3 -107.7 29.4 -108.6 29.3 -108.9 29.3 -111.5 Q29.0 -113.2 26.75 -114.8 24.75 -116.15 23.85 -116.15 L22.25 -115.95 Q21.85 -115.45 21.3 -115.45 L21.15 -115.45 20.4 -115.15 20.95 -115.1 22.25 -114.8 Q24.35 -114.05 24.35 -113.05 L24.2 -112.35 23.3 -112.2 Q22.75 -112.2 21.85 -112.75 L18.8 -112.9 Q15.85 -112.9 15.15 -112.35 14.45 -111.9 14.0 -111.9 6.3 -114.1 4.85 -114.1 1.8 -114.1 -1.4 -112.9 L-4.6 -111.6 Q-5.75 -111.6 -7.1 -112.5 -8.5 -113.5 -12.8 -113.5 -15.05 -113.5 -16.4 -112.65 L-18.0 -111.65 -17.6 -109.7 Q-17.6 -108.0 -18.75 -108.0 -20.2 -108.0 -20.3 -109.3 -20.05 -110.75 -20.15 -111.0 L-20.35 -114.1 Q-20.35 -116.75 -21.9 -116.75 -25.55 -116.75 -28.45 -113.65 L-29.9 -111.75 -30.35 -107.85 -30.75 -105.7 -30.75 -105.4 Q-31.9 -99.1 -31.9 -96.65 L-31.55 -94.35 Q-31.25 -92.3 -31.25 -91.15 L-27.85 -97.8 Q-25.25 -102.6 -23.7 -102.6 -22.9 -102.6 -21.3 -100.55 L-16.85 -99.0 -14.4 -97.35 Q-12.45 -96.1 -10.6 -96.1 -10.25 -96.1 -8.35 -98.35 L-5.75 -101.15 -3.15 -103.75" fill="#000000" fill-rule="evenodd" stroke="none"/>
      <path d="M15.85 -138.65 L16.65 -134.9 16.8 -133.75 Q17.15 -132.7 17.8 -132.7 18.6 -132.7 19.95 -135.45 L20.95 -132.75 21.3 -131.5 21.85 -129.75 26.2 -129.55 28.05 -129.05 28.7 -128.45 28.7 -128.15 28.25 -128.45 Q27.5 -128.75 26.5 -127.6 L26.05 -126.45 Q25.45 -125.4 24.2 -125.4 L22.15 -125.85 21.7 -126.0 Q22.3 -126.6 22.3 -127.0 22.3 -128.9 19.5 -127.3 15.55 -125.0 14.1 -125.0 L10.8 -126.05 Q7.3 -127.15 5.0 -127.15 L-0.7 -126.45 Q-3.7 -125.7 -6.95 -125.7 L-11.05 -126.15 -11.55 -126.15 -11.45 -126.55 Q-11.7 -127.15 -12.2 -127.15 -13.05 -127.15 -16.35 -125.6 L-19.45 -124.25 Q-22.2 -124.25 -24.85 -126.05 L-25.95 -126.9 -21.95 -127.5 -16.7 -128.3 Q-12.0 -128.65 10.1 -128.45 10.1 -129.2 10.55 -130.4 L10.65 -130.55 Q11.4 -133.6 11.95 -137.2 L12.5 -137.65 Q13.6 -138.7 14.9 -138.7 L15.85 -138.65 M-30.75 -105.7 L-30.35 -107.85 -29.9 -111.75 -28.45 -113.65 Q-25.55 -116.75 -21.9 -116.75 -20.35 -116.75 -20.35 -114.1 L-20.15 -111.0 Q-20.05 -110.75 -20.3 -109.3 -20.2 -108.0 -18.75 -108.0 -17.6 -108.0 -17.6 -109.7 L-18.0 -111.65 -16.4 -112.65 Q-15.05 -113.5 -12.8 -113.5 -8.5 -113.5 -7.1 -112.5 -5.75 -111.6 -4.6 -111.6 L-1.4 -112.9 Q1.8 -114.1 4.85 -114.1 6.3 -114.1 14.0 -111.9 14.45 -111.9 15.15 -112.35 15.85 -112.9 18.8 -112.9 L21.85 -112.75 Q22.75 -112.2 23.3 -112.2 L24.2 -112.35 24.35 -113.05 Q24.35 -114.05 22.25 -114.8 L20.95 -115.1 20.4 -115.15 21.15 -115.45 21.3 -115.45 Q21.85 -115.45 22.25 -115.95 L23.85 -116.15 Q24.75 -116.15 26.75 -114.8 29.0 -113.2 29.3 -111.5 L29.3 -108.9 29.4 -108.6 29.3 -107.7 29.25 -105.55 24.6 -107.6 20.8 -109.05 Q19.1 -109.05 19.05 -108.3 19.05 -107.85 19.35 -107.1 17.75 -107.85 16.45 -105.25 L15.85 -103.8 15.15 -103.95 Q11.85 -103.95 8.3 -104.8 L-0.3 -105.65 Q-1.4 -105.65 -2.85 -104.1 L-3.15 -103.75 -3.55 -103.75 Q-5.3 -103.75 -7.8 -102.05 -10.3 -100.4 -11.05 -100.4 -12.2 -100.4 -15.4 -102.35 -18.55 -104.35 -19.9 -104.35 L-23.7 -103.65 -27.0 -103.0 Q-29.95 -103.0 -30.6 -105.4 L-30.75 -105.7" fill="#ffe7b5" fill-rule="evenodd" stroke="none"/>
      <path d="M20.35 -125.0 L21.0 -124.55 Q22.7 -123.7 24.75 -123.7 26.2 -123.7 27.55 -125.1 L28.1 -125.55 28.35 -126.85 Q28.65 -127.45 29.4 -127.8 30.85 -126.7 33.2 -125.25 L42.75 -119.05 34.75 -117.7 Q30.55 -116.55 30.55 -115.7 30.55 -115.3 33.05 -112.2 L35.7 -108.4 Q36.8 -104.4 39.0 -100.55 L38.85 -100.55 34.65 -102.75 Q32.6 -103.6 31.45 -104.2 L32.2 -107.55 31.9 -109.6 Q31.9 -111.5 31.25 -112.75 30.0 -115.3 29.25 -116.15 L25.8 -117.7 22.0 -117.9 18.35 -120.35 Q15.55 -122.05 14.7 -122.35 13.55 -122.65 9.8 -121.1 L7.05 -120.2 3.1 -119.95 -1.0 -120.45 -4.9 -120.8 Q-11.4 -120.8 -15.7 -118.45 -17.6 -117.4 -18.55 -116.25 -19.25 -118.2 -21.45 -118.6 -27.1 -118.05 -28.6 -115.7 L-29.75 -114.25 -29.75 -115.45 Q-29.75 -118.05 -30.05 -119.95 -30.2 -121.1 -31.95 -122.2 -33.95 -123.5 -34.4 -124.4 L-27.7 -126.45 -27.55 -126.15 Q-26.9 -125.0 -25.55 -124.55 L-23.25 -123.15 Q-21.2 -122.05 -19.05 -122.05 -14.75 -123.55 -12.75 -125.0 -9.85 -123.85 -5.35 -123.85 L-0.15 -124.4 5.0 -125.1 Q7.0 -125.1 10.35 -124.0 13.6 -122.95 14.75 -122.95 16.75 -122.95 19.65 -124.55 L20.35 -125.0" fill="#470e0e" fill-rule="evenodd" stroke="none"/>
      <path d="M15.85 -138.65 L14.9 -138.7 Q13.6 -138.7 12.5 -137.65 L11.95 -137.2 12.15 -139.2 13.15 -149.6 Q13.95 -146.95 15.15 -141.15 L15.85 -138.65 M-30.6 -105.4 Q-29.95 -103.0 -27.0 -103.0 L-23.7 -103.65 -19.9 -104.35 Q-18.55 -104.35 -15.4 -102.35 -12.2 -100.4 -11.05 -100.4 -10.3 -100.4 -7.8 -102.05 -5.3 -103.75 -3.55 -103.75 L-3.15 -103.75 -5.75 -101.15 -8.35 -98.35 Q-10.25 -96.1 -10.6 -96.1 -12.45 -96.1 -14.4 -97.35 L-16.85 -99.0 -21.3 -100.55 Q-22.9 -102.6 -23.7 -102.6 -25.25 -102.6 -27.85 -97.8 L-31.25 -91.15 Q-31.25 -92.3 -31.55 -94.35 L-31.9 -96.65 Q-31.9 -99.1 -30.75 -105.4 L-30.6 -105.4" fill="#e65252" fill-rule="evenodd" stroke="none"/>
      <path d="M-17.8 -113.55 L-15.65 -116.9 Q-13.0 -119.2 -6.05 -119.2 L-1.9 -118.5 3.25 -117.9 7.6 -118.5 15.7 -119.2 Q16.3 -119.2 18.4 -117.4 L19.5 -116.45 19.1 -116.3 17.8 -115.25 14.6 -114.8 13.4 -114.4 Q6.9 -116.4 4.55 -116.4 0.8 -116.4 -1.45 -115.25 -3.75 -114.1 -5.05 -114.1 -5.6 -114.1 -7.05 -114.8 L-10.25 -115.3 Q-14.35 -115.3 -16.85 -114.1 L-17.7 -113.5 -17.8 -113.55" fill="#cc3333" fill-rule="evenodd" stroke="none"/>
      <path d="M6.1 -210.0 L6.75 -213.5 7.6 -213.55 9.35 -213.65 Q17.3 -213.35 24.65 -211.1 L28.25 -209.85 Q31.0 -208.85 33.65 -207.45 37.3 -205.0 40.05 -202.0 45.25 -196.1 47.25 -187.9 47.25 -187.05 47.55 -185.6 L48.55 -179.7 50.8 -169.15 Q51.8 -164.65 52.85 -163.5 54.0 -162.25 57.15 -161.5 60.85 -160.35 62.85 -159.05 59.45 -157.0 52.85 -155.4 L56.45 -157.7 Q54.95 -160.8 51.75 -161.95 48.9 -162.9 46.95 -164.65 L46.45 -165.1 Q43.5 -175.55 40.15 -183.45 33.15 -199.9 24.35 -205.95 20.95 -208.3 17.2 -209.05 L6.1 -210.0 M-62.35 -130.2 L-66.3 -131.15 Q-69.15 -131.7 -71.75 -132.6 L-71.8 -133.0 -70.8 -135.75 -69.75 -138.7 -67.1 -145.8 -64.9 -151.2 -61.45 -148.95 Q-63.95 -140.15 -63.75 -131.4 L-62.35 -130.2 M-58.8 -175.0 L-59.55 -175.05 -63.35 -175.6 -64.35 -175.85 -64.4 -183.4 Q-64.1 -185.9 -63.3 -188.4 -61.6 -192.3 -58.3 -195.5 L-54.6 -198.85 Q-48.35 -203.1 -41.35 -205.7 -29.0 -210.0 -15.95 -211.75 -6.55 -213.25 2.7 -213.5 L3.8 -213.5 4.85 -210.0 Q-12.15 -210.6 -28.6 -206.7 L-33.25 -205.5 Q-40.35 -203.35 -46.3 -198.95 L-46.95 -199.4 Q-47.9 -199.45 -48.05 -198.3 L-48.05 -198.25 Q-51.6 -196.5 -54.6 -193.75 -55.95 -192.45 -57.7 -189.8 -59.0 -188.25 -59.3 -186.95 -60.15 -186.8 -60.15 -186.35 L-59.4 -186.2 -59.3 -186.2 -59.3 -185.95 Q-59.45 -184.35 -59.25 -182.7 -58.95 -178.9 -58.8 -175.0 M-66.4 -173.15 Q-66.95 -171.5 -67.75 -164.95 -68.6 -158.45 -68.3 -155.25 L-68.25 -154.8 -70.35 -155.1 -70.5 -158.3 -70.5 -162.35 -69.9 -170.2 -69.0 -173.95 -66.4 -173.15" fill="#718240" fill-rule="evenodd" stroke="none"/>
      <path d="M52.85 -155.4 Q59.45 -157.0 62.85 -159.05 60.85 -160.35 57.15 -161.5 54.0 -162.25 52.85 -163.5 51.8 -164.65 50.8 -169.15 L48.55 -179.7 47.55 -185.6 Q47.25 -187.05 47.25 -187.9 45.25 -196.1 40.05 -202.0 37.3 -205.0 33.65 -207.45 31.0 -208.85 28.25 -209.85 L24.65 -211.1 Q17.3 -213.35 9.35 -213.65 L7.6 -213.55 6.75 -213.5 6.1 -210.0 5.55 -207.55 4.85 -210.0 3.8 -213.5 2.7 -213.5 Q-6.55 -213.25 -15.95 -211.75 -29.0 -210.0 -41.35 -205.7 -48.35 -203.1 -54.6 -198.85 L-58.3 -195.5 Q-61.6 -192.3 -63.3 -188.4 -64.1 -185.9 -64.4 -183.4 L-64.35 -175.85 -63.35 -175.6 -59.55 -175.05 -58.8 -175.0 -53.15 -174.1 Q-52.05 -173.85 -51.4 -171.05 L-51.3 -170.6 Q-50.95 -168.8 -50.95 -167.3 L-51.6 -158.25 Q-51.6 -155.35 -52.15 -153.95 -53.3 -150.9 -56.95 -150.9 L-60.85 -151.05 -61.05 -151.15 -62.65 -151.35 -64.65 -151.75 Q-64.7 -151.5 -64.9 -151.2 L-67.1 -145.8 -69.75 -138.7 -70.8 -135.75 -71.8 -133.0 -71.75 -132.6 Q-69.15 -131.7 -66.3 -131.15 L-62.35 -130.2 Q-56.5 -128.9 -51.4 -129.1 L-46.65 -129.2 -43.25 -129.35 Q-41.4 -130.65 -41.1 -132.85 L-40.95 -134.4 Q-40.55 -136.15 -40.5 -138.05 L-40.25 -139.85 Q-40.05 -144.3 -39.55 -146.5 L-38.65 -149.7 Q-38.3 -150.85 -37.35 -151.7 L-34.25 -151.45 -30.1 -150.55 -26.3 -149.55 Q-20.0 -148.85 -1.85 -149.45 17.6 -150.0 27.85 -151.6 L48.2 -154.5 52.85 -155.4 M-64.8 -125.75 L-64.8 -125.85 -65.05 -125.85 -70.35 -127.3 -72.95 -128.5 Q-74.55 -129.05 -75.15 -130.85 -75.6 -132.3 -75.45 -133.6 -75.4 -134.85 -71.75 -144.75 L-68.85 -152.65 -69.15 -152.75 -71.45 -153.05 -72.1 -153.1 Q-72.8 -156.8 -72.65 -160.45 L-72.5 -162.8 -72.35 -166.25 -71.95 -170.05 -71.2 -175.25 -69.15 -175.9 -68.1 -176.0 -68.0 -184.6 -67.25 -187.95 Q-65.55 -191.7 -63.2 -195.2 -62.05 -196.85 -60.7 -198.1 -54.3 -203.4 -46.5 -207.15 -34.25 -213.2 -20.6 -215.55 -9.1 -217.3 2.55 -217.35 L3.35 -217.35 3.5 -217.35 5.4 -211.35 6.6 -217.35 7.55 -217.35 Q20.65 -217.35 32.75 -212.55 L34.75 -211.5 Q46.8 -204.4 49.9 -189.25 L50.05 -188.35 Q50.95 -177.0 55.0 -167.2 55.75 -165.4 58.0 -165.1 L62.5 -163.25 Q66.45 -161.3 66.15 -158.7 65.7 -154.5 48.45 -150.55 L42.95 -149.4 26.05 -146.65 Q13.3 -144.8 -1.75 -144.9 L-6.9 -144.75 Q-14.5 -144.2 -22.05 -144.65 L-25.7 -145.2 -32.95 -146.35 Q-34.4 -146.4 -35.15 -145.9 L-36.2 -139.5 -37.8 -128.5 Q-37.95 -127.0 -40.1 -125.9 -41.8 -125.0 -44.45 -124.9 L-47.4 -124.85 -47.4 -124.75 -49.1 -124.7 -49.1 -124.75 -50.0 -124.75 -51.0 -124.7 -51.0 -124.6 -52.55 -124.55 -52.55 -124.7 -55.95 -124.7 -56.65 -124.7 -60.7 -125.15 -61.85 -125.25 -64.8 -125.75 M44.95 -164.7 Q42.35 -162.75 36.2 -161.2 L26.1 -159.2 Q19.8 -157.75 12.7 -156.85 -1.25 -155.25 -11.4 -156.55 L-21.75 -158.4 -2.7 -159.2 15.4 -160.15 26.2 -162.4 Q36.65 -164.4 38.55 -164.15 L41.0 -164.55 44.95 -164.7 M-48.05 -198.25 L-48.05 -198.3 Q-47.9 -199.45 -46.95 -199.4 L-46.3 -198.95 -46.05 -197.7 -45.9 -194.35 Q-46.3 -190.95 -48.85 -188.55 -52.15 -185.45 -57.95 -185.9 L-58.4 -185.95 -58.55 -185.95 -59.3 -186.2 -59.4 -186.2 -60.15 -186.35 Q-60.15 -186.8 -59.3 -186.95 L-59.1 -187.05 -58.7 -187.1 -55.95 -187.5 Q-52.6 -187.65 -50.6 -189.5 -48.85 -191.45 -48.7 -192.05 -47.8 -194.2 -47.8 -194.5 L-48.05 -197.7 -48.05 -198.25 M-41.65 -199.0 Q-39.1 -199.25 -38.65 -199.85 L-37.8 -201.35 Q-37.45 -202.0 -36.9 -201.9 -36.35 -201.75 -36.45 -201.3 -36.9 -196.85 -43.7 -197.65 L-44.55 -198.45 -41.65 -199.0 M-68.25 -154.8 L-64.9 -154.25 -58.4 -153.45 -58.1 -157.15 -57.95 -160.65 -57.7 -163.35 Q-57.35 -167.05 -57.35 -170.4 L-56.85 -172.0 -58.7 -172.4 -60.4 -172.7 -62.95 -172.95 -66.4 -173.15 -69.0 -173.95 -69.9 -170.2 -70.5 -162.35 -70.5 -158.3 -70.35 -155.1 -68.25 -154.8 M-54.6 -171.65 L-56.1 -171.85 -55.8 -169.05 -56.2 -162.5 -56.65 -155.35 -56.95 -153.5 -56.95 -153.45 -56.85 -153.45 Q-55.05 -153.6 -54.5 -155.35 L-54.35 -157.45 -53.45 -168.35 Q-53.45 -169.75 -53.9 -170.6 L-54.6 -171.65" fill="#101408" fill-rule="evenodd" stroke="none"/>
      <path d="M6.1 -210.0 L17.2 -209.05 Q20.95 -208.3 24.35 -205.95 33.15 -199.9 40.15 -183.45 43.5 -175.55 46.45 -165.1 L46.95 -164.65 Q48.9 -162.9 51.75 -161.95 54.95 -160.8 56.45 -157.7 L52.85 -155.4 48.2 -154.5 27.85 -151.6 Q17.6 -150.0 -1.85 -149.45 -20.0 -148.85 -26.3 -149.55 L-30.1 -150.55 -34.25 -151.45 -37.35 -151.7 Q-38.3 -150.85 -38.65 -149.7 L-39.55 -146.5 Q-40.05 -144.3 -40.25 -139.85 L-40.5 -138.05 Q-40.55 -136.15 -40.95 -134.4 L-41.1 -132.85 Q-41.4 -130.65 -43.25 -129.35 L-46.65 -129.2 -51.4 -129.1 Q-56.5 -128.9 -62.35 -130.2 L-63.75 -131.4 Q-63.95 -140.15 -61.45 -148.95 -57.95 -147.2 -54.0 -147.7 L-52.4 -148.3 Q-46.5 -159.05 -51.3 -170.6 L-51.4 -171.05 Q-52.05 -173.85 -53.15 -174.1 L-58.8 -175.0 Q-58.95 -178.9 -59.25 -182.7 -59.45 -184.35 -59.3 -185.95 L-59.3 -186.2 -58.55 -185.95 -58.4 -185.95 -57.95 -185.9 Q-52.15 -185.45 -48.85 -188.55 -46.3 -190.95 -45.9 -194.35 L-46.05 -197.7 -46.3 -198.95 Q-40.35 -203.35 -33.25 -205.5 L-28.6 -206.7 Q-12.15 -210.6 4.85 -210.0 L5.55 -207.55 6.1 -210.0 M44.95 -164.7 L41.0 -164.55 38.55 -164.15 Q36.65 -164.4 26.2 -162.4 L15.4 -160.15 -2.7 -159.2 -21.75 -158.4 -11.4 -156.55 Q-1.25 -155.25 12.7 -156.85 19.8 -157.75 26.1 -159.2 L36.2 -161.2 Q42.35 -162.75 44.95 -164.7 M-41.65 -199.0 L-44.55 -198.45 -43.7 -197.65 Q-36.9 -196.85 -36.45 -201.3 -36.35 -201.75 -36.9 -201.9 -37.45 -202.0 -37.8 -201.35 L-38.65 -199.85 Q-39.1 -199.25 -41.65 -199.0 M-66.4 -173.15 L-62.95 -172.95 -60.4 -172.7 -58.7 -172.4 -56.85 -172.0 -57.35 -170.4 Q-57.35 -167.05 -57.7 -163.35 L-57.95 -160.65 -58.1 -157.15 -58.4 -153.45 -64.9 -154.25 -68.25 -154.8 -68.3 -155.25 Q-68.6 -158.45 -67.75 -164.95 -66.95 -171.5 -66.4 -173.15" fill="#4d5c27" fill-rule="evenodd" stroke="none"/>
      <path d="M-48.05 -198.25 L-48.05 -197.7 -47.8 -194.5 Q-47.8 -194.2 -48.7 -192.05 -48.85 -191.45 -50.6 -189.5 -52.6 -187.65 -55.95 -187.5 L-58.7 -187.1 -59.1 -187.05 -59.3 -186.95 Q-59.0 -188.25 -57.7 -189.8 -55.95 -192.45 -54.6 -193.75 -51.6 -196.5 -48.05 -198.25" fill="#485027" fill-rule="evenodd" stroke="none"/>
      <path d="M-64.9 -151.2 Q-64.7 -151.5 -64.65 -151.75 L-62.65 -151.35 -61.05 -151.15 -60.85 -151.05 -56.95 -150.9 Q-53.3 -150.9 -52.15 -153.95 -51.6 -155.35 -51.6 -158.25 L-50.95 -167.3 Q-50.95 -168.8 -51.3 -170.6 -46.5 -159.05 -52.4 -148.3 L-54.0 -147.7 Q-57.95 -147.2 -61.45 -148.95 L-64.9 -151.2" fill="#324013" fill-rule="evenodd" stroke="none"/>
      <path d="M-54.6 -171.65 L-53.9 -170.6 Q-53.45 -169.75 -53.45 -168.35 L-54.35 -157.45 -54.5 -155.35 Q-55.05 -153.6 -56.85 -153.45 L-56.95 -153.45 -56.95 -153.5 -56.65 -155.35 -56.2 -162.5 -55.8 -169.05 -56.1 -171.85 -54.6 -171.65" fill="#2e3b14" fill-rule="evenodd" stroke="none"/>
      <path d="M-47.4 -124.75 L-47.35 -122.4 Q-47.25 -120.05 -47.5 -117.6 -47.65 -116.25 -49.4 -115.95 L-51.0 -115.8 -50.95 -115.55 -52.55 -115.45 -52.45 -115.8 -57.35 -115.7 -63.3 -116.7 -63.3 -116.6 -65.2 -117.25 -65.8 -117.85 Q-66.4 -118.45 -66.25 -119.5 -66.1 -121.05 -65.35 -123.3 L-65.25 -123.85 -64.8 -125.75 -61.85 -125.25 -60.7 -125.15 -60.9 -124.45 -60.9 -124.4 -61.0 -122.5 Q-60.85 -121.7 -60.1 -121.35 L-59.3 -121.2 -55.1 -121.05 -54.8 -121.1 Q-52.55 -121.35 -52.4 -122.8 L-52.55 -124.3 -52.55 -124.55 -51.0 -124.6 -51.1 -124.1 -51.1 -121.95 Q-51.4 -119.15 -56.7 -119.35 L-58.7 -119.5 Q-60.85 -119.75 -61.75 -120.35 L-62.3 -120.95 Q-62.5 -121.35 -62.3 -123.0 L-62.05 -124.25 -61.85 -125.25 -63.5 -125.55 -63.8 -124.0 -64.9 -118.85 -64.8 -118.85 -58.45 -117.7 -58.25 -117.7 Q-49.1 -117.3 -49.0 -118.2 -48.85 -119.8 -49.0 -123.4 L-48.95 -123.65 -49.1 -124.7 -47.4 -124.75" fill="#1e1e1e" fill-rule="evenodd" stroke="none"/>
      <path d="M-51.0 -124.6 L-51.0 -124.7 -50.0 -124.75 -49.1 -124.75 -49.1 -124.7 -48.95 -123.65 -49.4 -123.7 -50.15 -123.85 -51.1 -124.1 -51.0 -124.6 M-63.8 -124.0 L-63.5 -125.55 -61.85 -125.25 -62.05 -124.25 -63.8 -124.0" fill="#151515" fill-rule="evenodd" stroke="none"/>
      <path d="M-51.1 -124.1 L-50.15 -123.85 -49.4 -123.7 -48.95 -123.65 -49.0 -123.4 Q-48.85 -119.8 -49.0 -118.2 -49.1 -117.3 -58.25 -117.7 L-57.5 -118.5 -56.7 -119.35 Q-51.4 -119.15 -51.1 -121.95 L-51.1 -124.1 M-62.05 -124.25 L-62.3 -123.0 Q-62.5 -121.35 -62.3 -120.95 L-61.75 -120.35 -62.3 -120.3 -62.65 -120.45 -62.65 -120.8 -64.8 -118.85 -64.9 -118.85 -63.8 -124.0 -62.05 -124.25" fill="#666666" fill-rule="evenodd" stroke="none"/>
      <path d="M-56.7 -119.35 L-57.5 -118.5 -58.25 -117.7 -58.45 -117.7 -64.8 -118.85 -62.65 -120.8 -62.65 -120.45 -62.3 -120.3 -61.75 -120.35 Q-60.85 -119.75 -58.7 -119.5 L-56.7 -119.35" fill="#ffffff" fill-rule="evenodd" stroke="none"/>
      <path d="M-50.95 -115.55 Q-50.7 -114.8 -50.7 -113.2 L-50.8 -111.05 Q-51.0 -108.55 -52.85 -106.5 -55.6 -103.45 -60.7 -103.95 -67.4 -104.75 -66.8 -110.05 L-66.15 -111.45 -65.7 -112.75 -65.05 -114.85 -65.05 -115.45 -64.4 -116.9 Q-64.9 -117.0 -65.2 -117.25 L-63.3 -116.6 -63.5 -115.3 -64.1 -112.35 Q-64.2 -111.8 -64.8 -110.85 L-65.55 -109.3 Q-65.95 -106.35 -60.9 -105.8 -56.25 -105.25 -54.0 -107.85 -52.55 -109.55 -52.3 -111.6 L-52.45 -113.85 -52.55 -115.45 -50.95 -115.55 M-61.3 -113.25 Q-60.45 -114.8 -59.25 -114.65 -56.4 -114.35 -57.1 -110.9 -57.35 -108.85 -60.15 -109.15 -62.15 -109.4 -61.9 -111.5 L-61.3 -113.25 M-60.55 -111.95 Q-60.6 -110.85 -59.75 -110.75 L-58.7 -110.9 Q-58.55 -110.9 -58.45 -111.5 -58.3 -112.75 -59.3 -112.9 -60.4 -113.05 -60.55 -111.95" fill="#1a0f05" fill-rule="evenodd" stroke="none"/>
      <path d="M-63.3 -116.6 L-63.3 -116.7 -57.35 -115.7 -52.45 -115.8 -52.55 -115.45 -52.45 -113.85 -56.25 -115.1 -63.5 -115.3 -63.3 -116.6" fill="#4a2500" fill-rule="evenodd" stroke="none"/>
      <path d="M-63.5 -115.3 L-56.25 -115.1 -52.45 -113.85 -52.3 -111.6 Q-52.55 -109.55 -54.0 -107.85 -56.25 -105.25 -60.9 -105.8 -65.95 -106.35 -65.55 -109.3 L-64.8 -110.85 Q-64.2 -111.8 -64.1 -112.35 L-63.5 -115.3 M-61.3 -113.25 L-61.9 -111.5 Q-62.15 -109.4 -60.15 -109.15 -57.35 -108.85 -57.1 -110.9 -56.4 -114.35 -59.25 -114.65 -60.45 -114.8 -61.3 -113.25" fill="#663300" fill-rule="evenodd" stroke="none"/>
      <path d="M-43.0 -158.3 L-42.15 -158.1 Q-39.2 -157.75 -38.2 -159.2 L-37.65 -160.8 Q-37.6 -161.75 -38.2 -162.55 -38.9 -163.55 -40.35 -164.1 L-42.3 -164.35 -43.3 -164.15 Q-44.4 -163.7 -44.55 -162.65 L-44.55 -160.8 Q-44.55 -160.15 -44.0 -159.3 L-43.0 -158.3 M-36.55 -160.65 Q-36.7 -159.05 -37.2 -158.25 -38.6 -156.25 -42.15 -156.65 L-42.25 -156.65 Q-43.4 -156.8 -44.45 -158.0 -45.2 -158.9 -45.45 -159.7 -45.75 -160.65 -45.5 -162.95 -45.45 -164.0 -44.15 -164.85 -42.8 -165.85 -40.8 -165.6 -39.35 -165.45 -38.2 -164.7 L-37.05 -163.4 Q-36.3 -162.2 -36.55 -160.65" fill="#101408" fill-rule="evenodd" stroke="none"/>
      <path d="M-42.3 -164.35 L-40.35 -164.1 Q-38.9 -163.55 -38.2 -162.55 -37.6 -161.75 -37.65 -160.8 L-38.2 -159.2 Q-39.2 -157.75 -42.15 -158.1 L-43.0 -158.3 Q-43.55 -159.9 -43.55 -161.3 L-42.85 -163.25 -42.3 -164.35" fill="#2e3b14" fill-rule="evenodd" stroke="none"/>
      <path d="M-42.3 -164.35 L-42.85 -163.25 -43.55 -161.3 Q-43.55 -159.9 -43.0 -158.3 L-44.0 -159.3 Q-44.55 -160.15 -44.55 -160.8 L-44.55 -162.65 Q-44.4 -163.7 -43.3 -164.15 L-42.3 -164.35" fill="#1f290d" fill-rule="evenodd" stroke="none"/>
      <path d="M0.5 -199.4 Q0.65 -199.9 1.05 -200.2 L2.05 -200.6 3.1 -200.45 3.95 -199.75 7.35 -194.35 9.45 -194.3 9.65 -189.85 10.95 -194.2 13.8 -194.15 14.75 -193.8 Q14.9 -193.65 15.0 -193.65 L15.45 -193.0 15.7 -191.9 15.2 -190.95 11.1 -186.05 12.85 -179.85 12.85 -178.8 Q12.8 -178.25 12.35 -177.9 11.85 -177.5 11.25 -177.45 L10.25 -177.5 4.3 -179.85 -0.95 -176.3 Q-1.4 -176.0 -1.9 -176.0 L-3.0 -176.2 -3.75 -177.0 -4.0 -178.05 -3.6 -184.45 -8.65 -188.35 -9.25 -189.15 -9.3 -190.25 -9.15 -190.6 -9.15 -190.85 -8.8 -191.25 -7.95 -191.75 -1.7 -193.35 0.5 -199.4" fill="#38471e" fill-rule="evenodd" stroke="none"/>
    </g>
  </defs>
</svg>
