<?xml version="1.0" encoding="UTF-8" standalone="no"?>
<svg xmlns:xlink="http://www.w3.org/1999/xlink" height="531.5px" width="460.6px" xmlns="http://www.w3.org/2000/svg">
  <g transform="matrix(1.0, 0.0, 0.0, 1.0, 193.65, 334.05)">
    <use height="126.1" transform="matrix(1.496, 0.0, 0.0, 1.496, -85.574, -261.774)" width="111.5" xlink:href="#shape0"/>
  </g>
  <defs>
    <g id="shape0" transform="matrix(1.0, 0.0, 0.0, 1.0, 0.25, 0.25)">
      <path d="M66.75 81.35 L71.1 81.7 75.65 82.05 76.7 82.15 Q80.7 82.7 84.85 84.05 L79.3 84.65 52.9 84.65 52.9 84.35 Q53.8 83.6 58.0 82.7 62.3 81.75 66.75 81.35" fill="#401126" fill-rule="evenodd" stroke="none"/>
      <path d="M25.3 51.35 Q35.15 46.9 46.35 46.35 63.1 46.6 78.5 51.8 80.35 52.7 81.95 53.9 84.25 55.55 86.0 57.75 87.65 60.65 88.35 63.55 88.9 65.7 90.95 70.45 L93.1 73.45 Q94.95 76.1 94.95 77.25 L94.6 78.7 94.25 80.2 94.2 80.85 Q94.2 81.85 95.85 83.4 97.55 84.95 97.55 86.2 L95.7 91.3 Q93.9 95.95 93.9 96.85 93.9 97.3 95.1 98.9 96.35 100.5 96.35 101.0 L96.3 101.35 36.8 101.35 Q36.75 100.65 34.5 98.0 32.2 95.3 32.2 94.9 32.2 94.15 33.8 91.1 L35.45 87.95 Q36.0 86.3 38.25 83.85 L38.5 83.55 42.2 81.8 Q58.4 74.2 70.15 72.45 74.75 72.0 92.8 84.55 92.6 81.35 91.95 78.6 90.7 73.25 87.65 69.2 75.55 61.65 64.75 61.05 46.6 63.5 36.95 71.45 31.4 76.55 27.65 80.95 L27.75 79.9 27.7 79.6 27.6 79.5 26.15 79.45 24.7 79.35 24.7 78.4 Q25.2 72.75 27.85 66.05 30.6 59.2 33.6 56.3 L33.6 56.05 30.4 57.6 27.4 58.25 Q25.95 58.25 25.15 57.45 24.4 56.7 24.4 55.35 24.4 54.05 25.05 52.1 L25.3 51.35 M97.15 85.8 Q95.15 86.2 93.25 84.85 L92.8 84.55 93.25 84.85 Q95.15 86.2 97.15 85.8 M66.75 81.35 Q62.3 81.75 58.0 82.7 53.8 83.6 52.9 84.35 L52.9 84.65 79.3 84.65 84.85 84.05 Q80.7 82.7 76.7 82.15 L75.65 82.05 71.1 81.7 66.75 81.35" fill="url(#gradient0)" fill-rule="evenodd" stroke="none"/>
      <path d="M25.3 51.35 L25.05 52.1 Q24.4 54.05 24.4 55.35 24.4 56.7 25.15 57.45 25.95 58.25 27.4 58.25 L30.4 57.6 33.6 56.05 33.6 56.3 Q30.6 59.2 27.85 66.05 25.2 72.75 24.7 78.4 L24.7 79.35 26.15 79.45 27.6 79.5 27.7 79.6 27.75 79.9 27.65 80.95 Q25.2 83.7 23.4 86.55 L22.8 87.5 25.95 87.65 Q32.2 86.35 38.5 83.55 L38.25 83.85 Q36.0 86.3 35.45 87.95 L33.8 91.1 Q32.2 94.15 32.2 94.9 32.2 95.3 34.5 98.0 36.75 100.65 36.8 101.35 L17.85 101.35 Q17.55 98.1 19.1 95.15 17.7 92.15 17.45 88.0 17.85 84.8 21.15 81.8 21.8 75.8 23.5 70.75 24.85 66.7 26.8 63.25 28.3 60.6 30.25 58.25 28.3 60.6 26.8 63.25 24.85 66.7 23.5 70.75 18.25 63.05 20.25 53.9 22.75 52.5 25.3 51.35 M26.1 60.45 L26.8 63.25 26.1 60.45 M21.5 100.15 L19.1 95.15 21.5 100.15 M20.75 86.7 L22.1 87.3 22.8 87.5 22.1 87.3 20.75 86.7" fill="url(#gradient1)" fill-rule="evenodd" stroke="none"/>
      <path d="M86.0 57.75 L87.75 60.15 95.5 72.7 Q96.8 75.5 96.65 79.55 L96.55 81.1 96.45 81.95 99.65 86.75 99.85 88.6 Q99.75 90.95 98.5 93.9 99.9 97.3 100.1 101.35 L96.3 101.35 96.35 101.0 Q96.35 100.5 95.1 98.9 93.9 97.3 93.9 96.85 93.9 95.95 95.7 91.3 L97.55 86.2 Q97.55 84.95 95.85 83.4 94.2 81.85 94.2 80.85 L94.25 80.2 94.6 78.7 94.95 77.25 Q94.95 76.1 93.1 73.45 L90.95 70.45 Q88.9 65.7 88.35 63.55 87.65 60.65 86.0 57.75 M97.15 96.7 L98.5 93.9 97.15 96.7" fill="url(#gradient2)" fill-rule="evenodd" stroke="none"/>
      <path d="M96.3 101.35 L100.1 101.35 100.15 103.25 100.0 104.05 Q98.95 107.6 93.2 112.7 91.6 113.75 88.7 114.65 L90.75 112.95 93.25 109.8 Q95.95 103.1 96.3 101.35" fill="url(#gradient3)" fill-rule="evenodd" stroke="none"/>
      <path d="M96.3 101.35 Q95.95 103.1 93.25 109.8 L90.75 112.95 88.7 114.65 Q81.8 116.7 67.6 117.75 L46.7 116.85 Q43.5 115.7 40.7 114.1 35.15 110.85 33.85 107.0 34.15 105.9 35.3 104.0 L36.8 101.4 36.8 101.35 96.3 101.35 M90.55 108.1 Q78.05 111.9 62.9 112.1 78.05 111.9 90.55 108.1" fill="url(#gradient4)" fill-rule="evenodd" stroke="none"/>
      <path d="M46.7 116.85 L35.7 115.35 Q28.65 114.1 22.25 112.25 18.25 106.5 17.85 101.35 L36.8 101.35 36.8 101.4 35.3 104.0 Q34.15 105.9 33.85 107.0 35.15 110.85 40.7 114.1 43.5 115.7 46.7 116.85" fill="url(#gradient5)" fill-rule="evenodd" stroke="none"/>
      <path d="M27.65 80.95 Q31.4 76.55 36.95 71.45 46.6 63.5 64.75 61.05 75.55 61.65 87.65 69.2 90.7 73.25 91.95 78.6 92.6 81.35 92.8 84.55 74.75 72.0 70.15 72.45 58.4 74.2 42.2 81.8 L38.5 83.55 Q32.2 86.35 25.95 87.65 L22.8 87.5 23.4 86.55 Q25.2 83.7 27.65 80.95" fill="#000000" fill-opacity="0.8392157" fill-rule="evenodd" stroke="none"/>
      <path d="M86.0 57.75 Q84.25 55.55 81.95 53.9 80.35 52.7 78.5 51.8 63.1 46.6 46.35 46.35 35.15 46.9 25.3 51.35 22.75 52.5 20.25 53.9 18.25 63.05 23.5 70.75 21.8 75.8 21.15 81.8 17.85 84.8 17.45 88.0 17.7 92.15 19.1 95.15 L21.5 100.15 M27.65 80.95 Q31.4 76.55 36.95 71.45 46.6 63.5 64.75 61.05 75.55 61.65 87.65 69.2 90.7 73.25 91.95 78.6 92.6 81.35 92.8 84.55 L93.25 84.85 Q95.15 86.2 97.15 85.8 M98.5 93.9 Q99.75 90.95 99.85 88.6 L99.65 86.75 96.45 81.95 96.55 81.1 96.65 79.55 Q96.8 75.5 95.5 72.7 L87.75 60.15 86.0 57.75 M100.1 101.35 Q99.9 97.3 98.5 93.9 L97.15 96.7 M88.7 114.65 Q91.6 113.75 93.2 112.7 98.95 107.6 100.0 104.05 L100.15 103.25 100.1 101.35 M38.5 83.55 L42.2 81.8 Q58.4 74.2 70.15 72.45 74.75 72.0 92.8 84.55 M30.25 58.25 Q28.3 60.6 26.8 63.25 24.85 66.7 23.5 70.75 M26.8 63.25 L26.1 60.45 M27.65 80.95 Q25.2 83.7 23.4 86.55 L22.8 87.5 25.95 87.65 Q32.2 86.35 38.5 83.55 M22.8 87.5 L22.1 87.3 20.75 86.7 M17.85 101.35 Q18.25 106.5 22.25 112.25 28.65 114.1 35.7 115.35 L46.7 116.85 67.6 117.75 Q81.8 116.7 88.7 114.65 M17.85 101.35 Q17.55 98.1 19.1 95.15 M62.9 112.1 Q78.05 111.9 90.55 108.1" fill="none" stroke="#000000" stroke-linecap="round" stroke-linejoin="round" stroke-opacity="0.5019608" stroke-width="1.0"/>
      <path d="M95.1 83.2 Q88.8 88.55 81.25 88.55 73.7 88.55 69.4 83.2 65.0 77.9 66.45 70.35 67.85 62.8 74.2 57.5 80.5 52.15 88.05 52.15 95.6 52.15 99.9 57.5 104.25 62.8 102.85 70.35 101.4 77.9 95.1 83.2" fill="url(#gradient6)" fill-rule="evenodd" stroke="none"/>
      <path d="M34.5 83.2 Q28.2 77.9 26.75 70.35 25.35 62.8 29.7 57.5 34.0 52.15 41.55 52.15 49.1 52.15 55.4 57.5 61.75 62.8 63.15 70.35 64.6 77.9 60.2 83.2 55.9 88.55 48.35 88.55 40.8 88.55 34.5 83.2" fill="url(#gradient7)" fill-rule="evenodd" stroke="none"/>
      <path d="M91.85 64.4 Q91.7 69.45 88.1 74.3 83.9 76.8 80.0 76.7 75.35 75.7 74.85 71.8 74.75 71.1 74.8 70.3 L91.3 59.9 Q91.9 62.15 91.85 64.4 M51.65 73.75 Q50.45 75.95 47.1 76.7 43.2 76.8 39.0 74.3 34.2 67.85 35.55 61.1 L35.8 59.9 51.9 70.05 52.85 70.8 51.9 73.25 51.65 73.75" fill="#ffffff" fill-rule="evenodd" stroke="none"/>
      <path d="M91.85 64.4 L92.2 67.65 Q92.2 71.5 89.4 76.2 86.55 80.9 82.75 80.5 78.9 80.1 77.05 77.6 75.2 75.1 74.85 71.8 75.35 75.7 80.0 76.7 83.9 76.8 88.1 74.3 91.7 69.45 91.85 64.4 M51.65 73.75 L51.5 74.25 Q50.85 76.0 49.9 77.1 49.45 77.6 46.6 78.85 L42.9 80.1 Q39.4 80.1 36.5 76.8 33.4 73.2 33.4 68.15 33.4 65.85 34.4 63.3 35.0 61.85 35.55 61.1 34.2 67.85 39.0 74.3 43.2 76.8 47.1 76.7 50.45 75.95 51.65 73.75" fill="#000000" fill-opacity="0.50980395" fill-rule="evenodd" stroke="none"/>
      <path d="M91.85 64.4 Q91.7 69.45 88.1 74.3 83.9 76.8 80.0 76.7 75.35 75.7 74.85 71.8 74.75 71.1 74.8 70.3 L91.3 59.9 Q91.9 62.15 91.85 64.4 M51.65 73.75 Q50.45 75.95 47.1 76.7 43.2 76.8 39.0 74.3 34.2 67.85 35.55 61.1 L35.8 59.9 51.9 70.05 52.85 70.8 51.9 73.25 51.65 73.75" fill="none" stroke="#000000" stroke-linecap="round" stroke-linejoin="round" stroke-opacity="0.4" stroke-width="0.5"/>
      <path d="M90.6 74.8 L92.75 73.85 92.75 70.8 96.75 70.8 106.25 74.65 90.6 74.8" fill="#430551" fill-rule="evenodd" stroke="none"/>
      <path d="M106.25 74.65 L106.25 79.9 96.95 79.9 86.0 79.7 86.05 74.85 90.6 74.8 106.25 74.65 M29.15 125.6 L23.75 123.8 24.65 75.2 26.5 75.65 29.8 75.6 57.55 75.3 57.5 79.3 37.35 80.1 29.7 80.7 29.8 75.6 29.7 80.7 29.15 125.6 M15.05 120.2 L12.8 119.05 Q12.05 98.45 12.75 77.85 L12.9 72.5 15.55 73.1 15.05 120.2" fill="#771c8c" fill-rule="evenodd" stroke="none"/>
      <path d="M106.25 79.9 L106.2 104.2 101.75 105.4 99.9 105.9 105.9 107.1 106.15 107.15 105.85 123.35 85.4 124.45 85.65 106.0 81.3 106.25 73.8 106.65 72.8 106.65 72.8 106.5 85.7 103.2 85.7 102.65 82.1 102.35 85.7 101.0 86.0 79.7 96.95 79.9 106.25 79.9 M56.9 125.25 L47.65 125.5 29.15 125.6 29.7 80.7 37.35 80.1 57.5 79.3 56.9 125.25" fill="#ab34c4" fill-rule="evenodd" stroke="none"/>
      <path d="M57.55 75.3 L86.05 74.85 86.0 79.7 80.85 79.55 Q71.4 79.25 63.4 79.25 L57.5 79.3 57.55 75.3" fill="#e8b600" fill-rule="evenodd" stroke="none"/>
      <path d="M23.75 123.8 Q19.0 122.1 15.05 120.2 L15.55 73.1 15.4 72.55 12.95 62.9 17.2 63.9 22.45 65.15 24.65 75.2 23.75 123.8 M19.05 77.45 Q19.1 71.45 17.2 63.9 19.1 71.45 19.05 77.45" fill="#e6b500" fill-rule="evenodd" stroke="none"/>
      <path d="M85.4 124.45 L56.9 125.25 57.5 79.3 63.4 79.25 Q71.4 79.25 80.85 79.55 L86.0 79.7 85.7 101.0 82.1 102.35 85.7 102.65 85.7 103.2 72.8 106.5 72.8 106.65 73.8 106.65 81.3 106.25 85.65 106.0 85.4 124.45" fill="#ffce17" fill-rule="evenodd" stroke="none"/>
      <path d="M101.75 105.4 L105.9 107.1 99.9 105.9 101.75 105.4" fill="#712282" fill-rule="evenodd" stroke="none"/>
      <path d="M90.6 74.8 L92.75 73.85 92.75 70.8 96.75 70.8 106.25 74.65 106.25 79.9 106.2 104.2 101.75 105.4 105.9 107.1 106.15 107.15 105.85 123.35 85.4 124.45 56.9 125.25 47.65 125.5 29.15 125.6 23.75 123.8 Q19.0 122.1 15.05 120.2 L12.8 119.05 Q12.05 98.45 12.75 77.85 L12.9 72.5 15.4 72.55 12.95 62.9 M22.45 65.15 L24.65 75.2 26.5 75.65 29.8 75.6 57.55 75.3 86.05 74.85 90.6 74.8 106.25 74.65 M86.0 79.7 L85.7 101.0 82.1 102.35 85.7 102.65 85.7 103.2 72.8 106.5 72.8 106.65 73.8 106.65 81.3 106.25 85.65 106.0 85.4 124.45 M86.0 79.7 L86.05 74.85 M15.55 73.1 L12.9 72.5 M15.55 73.1 L15.4 72.55 M57.5 79.3 L57.55 75.3 M29.8 75.6 L29.7 80.7 29.15 125.6 M17.2 63.9 Q19.1 71.45 19.05 77.45 M105.9 107.1 L99.9 105.9 101.75 105.4 M57.5 79.3 L56.9 125.25 M15.05 120.2 L15.55 73.1 M23.75 123.8 L24.65 75.2" fill="none" stroke="#000000" stroke-linecap="round" stroke-linejoin="round" stroke-opacity="0.4" stroke-width="0.5"/>
      <path d="M88.45 5.85 L87.6 3.55 Q89.75 2.2 91.3 1.35 93.7 0.05 94.55 0.0 95.4 0.0 96.85 1.1 99.05 2.8 102.6 7.15 L103.6 8.8 Q104.1 9.75 104.1 10.8 L104.25 12.15 104.3 12.8 Q104.7 18.3 105.9 23.65 L106.25 24.9 106.85 26.05 Q107.8 27.1 109.4 29.9 111.0 32.8 111.0 33.3 111.0 33.7 108.8 37.15 L108.7 37.3 105.5 41.75 102.55 45.3 Q97.75 47.9 92.4 45.2 L86.95 42.5 84.85 41.55 83.7 41.05 78.85 38.7 67.4 39.25 69.45 38.1 72.0 36.55 73.85 36.45 72.7 35.85 73.0 35.65 73.5 34.55 Q73.45 34.0 70.8 31.0 L67.25 33.85 Q62.9 37.2 61.6 37.3 60.8 37.3 60.6 36.5 L60.65 36.45 63.2 34.95 60.65 36.45 60.6 36.5 60.45 35.65 Q60.4 34.8 60.85 33.5 61.25 32.15 62.0 30.4 L64.05 25.95 63.85 25.95 59.05 28.55 Q55.05 30.5 53.3 30.55 52.65 30.6 49.25 29.05 L46.1 27.4 46.25 26.8 45.75 25.95 45.65 24.3 45.65 23.75 45.65 24.3 45.75 25.95 46.25 26.8 46.95 27.5 46.25 26.8 46.1 27.4 46.0 27.55 48.25 29.5 50.2 30.85 Q51.7 31.65 52.35 32.2 L52.9 32.95 51.45 36.2 51.05 36.9 50.75 37.65 50.25 39.05 49.6 39.2 44.25 39.9 Q41.2 37.0 38.0 31.5 L35.1 26.2 Q32.95 22.0 31.25 17.6 38.9 20.6 45.65 23.75 45.8 22.35 47.2 20.8 50.65 19.15 54.2 18.05 L52.4 19.1 Q49.75 20.75 49.8 22.0 49.8 22.8 51.15 22.85 L53.8 22.75 Q58.35 22.5 61.45 21.1 63.7 20.05 64.45 18.65 L65.15 18.95 72.6 13.55 76.65 19.5 Q78.1 21.55 79.45 24.3 80.85 27.55 82.05 31.85 L82.75 34.65 78.4 35.1 76.1 35.35 78.5 36.25 82.3 37.4 89.25 39.85 Q90.35 40.3 92.7 41.75 95.05 42.95 97.05 42.85 L97.4 42.85 97.7 42.85 97.8 42.85 98.35 42.65 99.2 42.3 102.95 39.75 105.65 37.45 106.05 37.0 Q107.05 36.0 107.05 35.35 107.0 34.65 101.55 34.25 L100.65 34.2 96.95 34.0 Q90.3 30.9 84.0 23.0 L82.05 20.35 Q79.55 17.0 77.9 14.0 L76.65 11.7 76.3 11.0 76.6 10.8 80.65 8.05 85.25 5.05 86.9 7.15 90.7 11.9 88.45 5.85 M86.2 61.9 L85.1 62.0 57.95 63.6 57.55 57.4 70.55 54.2 57.35 54.2 56.95 48.5 68.75 46.9 Q76.65 46.55 85.35 49.25 L86.2 61.9 M8.4 38.9 Q4.55 33.1 1.6 26.8 L0.0 23.35 Q-0.15 19.1 1.1 15.3 2.6 10.6 5.35 10.5 10.3 10.25 20.4 13.6 L22.5 16.95 Q26.65 24.15 28.7 28.85 30.9 34.1 31.9 41.45 L32.05 42.55 Q28.55 43.6 25.05 45.05 L23.1 45.75 19.3 47.2 17.4 47.9 Q11.3 50.2 11.35 51.35 11.35 51.9 14.4 53.35 L16.6 54.35 17.8 54.7 18.15 54.8 18.2 54.8 19.25 54.7 Q20.95 54.5 24.2 53.15 L32.0 49.8 32.95 49.35 36.5 47.0 36.6 46.95 Q37.15 46.45 37.75 46.05 L38.65 45.45 38.9 45.35 40.2 44.7 40.8 44.4 46.5 41.8 46.75 41.7 49.95 40.45 49.95 40.5 Q49.95 41.4 51.4 42.0 L26.45 55.35 25.55 55.85 24.15 56.6 21.2 58.1 19.5 58.1 18.45 58.0 Q15.35 57.5 12.5 56.35 L10.35 55.55 Q10.15 55.4 10.0 55.35 7.85 54.5 6.8 52.5 6.55 51.8 6.65 51.2 L7.9 45.15 8.5 42.4 9.0 39.8 8.7 39.55 8.4 38.9 M84.45 22.9 L84.0 23.0 84.45 22.9 M79.7 29.2 L69.5 29.55 67.95 27.8 68.1 27.45 79.45 24.3 68.1 27.45 67.95 27.8 69.5 29.55 79.7 29.2 M68.1 27.45 L68.5 26.6 Q70.45 22.65 70.4 20.7 70.35 19.35 68.0 19.0 L65.15 18.95 68.0 19.0 Q70.35 19.35 70.4 20.7 70.45 22.65 68.5 26.6 L68.1 27.45 M65.05 28.5 L62.35 31.85 60.85 33.5 62.35 31.85 65.05 28.5 M40.9 33.9 L52.35 32.2 40.9 33.9 M75.8 35.35 L73.0 35.65 75.8 35.35 M70.8 31.0 L70.75 30.95 69.5 29.55 70.75 30.95 70.8 31.0 M65.9 31.8 L66.05 31.3 67.95 27.8 66.05 31.3 65.9 31.8 M73.85 36.45 L76.8 37.7 78.85 38.7 76.8 37.7 69.45 38.1 76.8 37.7 73.85 36.45 M12.35 44.5 L12.2 44.25 10.2 41.65 9.05 39.95 9.0 39.8 9.05 39.95 10.2 41.65 12.2 44.25 12.35 44.5 M35.1 26.2 L48.25 29.5 35.1 26.2" fill="#ffce17" fill-rule="evenodd" stroke="none"/>
      <path d="M86.9 7.15 L88.45 5.85 90.7 11.9 86.9 7.15 M97.9 37.75 L99.25 36.6 99.55 36.25 100.45 35.35 101.55 34.25 100.45 35.35 99.55 36.25 99.25 36.6 97.9 37.75 M96.95 34.0 L100.65 34.2 101.55 34.25 Q107.0 34.65 107.05 35.35 107.05 36.0 106.05 37.0 L105.65 37.45 102.95 39.75 99.2 42.3 98.35 42.65 97.8 42.85 97.7 42.85 97.4 42.85 97.05 42.85 Q95.05 42.95 92.7 41.75 90.35 40.3 89.25 39.85 L82.3 37.4 78.5 36.25 76.1 35.35 78.4 35.1 82.75 34.65 89.45 34.0 Q93.1 33.85 96.95 34.0 M95.65 42.25 Q96.2 42.8 97.4 42.85 96.2 42.8 95.65 42.25 M50.25 39.05 L50.25 39.15 50.0 40.1 49.95 40.45 46.75 41.7 46.5 41.8 40.8 44.4 40.2 44.7 38.9 45.35 38.65 45.45 37.75 46.05 Q37.15 46.45 36.6 46.95 L36.5 47.0 32.95 49.35 32.0 49.8 24.2 53.15 Q20.95 54.5 19.25 54.7 L18.2 54.8 18.15 54.8 17.8 54.7 16.6 54.35 14.4 53.35 Q11.35 51.9 11.35 51.35 11.3 50.2 17.4 47.9 L19.3 47.2 23.1 45.75 25.05 45.05 Q28.55 43.6 32.05 42.55 36.1 41.3 40.15 40.55 L41.05 40.4 44.25 39.9 49.6 39.2 50.25 39.05" fill="#bf7600" fill-rule="evenodd" stroke="none"/>
      <path d="M20.4 13.6 L30.0 17.05 31.25 17.6 Q32.95 22.0 35.1 26.2 L38.0 31.5 Q41.2 37.0 44.25 39.9 L41.05 40.4 40.15 40.55 Q36.1 41.3 32.05 42.55 L31.9 41.45 Q30.9 34.1 28.7 28.85 26.65 24.15 22.5 16.95 L20.4 13.6 M54.2 18.05 L58.6 16.85 59.25 16.7 64.45 18.65 Q63.7 20.05 61.45 21.1 58.35 22.5 53.8 22.75 L51.15 22.85 Q49.8 22.8 49.8 22.0 49.75 20.75 52.4 19.1 L54.2 18.05 M72.6 13.55 L76.3 11.0 76.65 11.7 77.9 14.0 Q79.55 17.0 82.05 20.35 L84.0 23.0 Q90.3 30.9 96.95 34.0 93.1 33.85 89.45 34.0 L82.75 34.65 82.05 31.85 Q80.85 27.55 79.45 24.3 L84.0 23.0 79.45 24.3 Q78.1 21.55 76.65 19.5 L72.6 13.55 M28.7 24.55 L35.1 26.2 28.7 24.55" fill="#ffffff" fill-rule="evenodd" stroke="none"/>
      <path d="M108.7 37.3 Q109.85 42.65 110.15 48.2 L108.85 48.7 Q99.6 53.0 98.15 53.1 97.15 53.15 87.4 49.8 L85.35 49.25 84.85 41.55 86.95 42.5 92.4 45.2 Q97.75 47.9 102.55 45.3 L105.5 41.75 108.7 37.3 M24.7 65.55 L19.6 64.7 19.5 58.1 21.2 58.1 24.15 56.6 24.35 60.65 24.45 61.45 24.7 65.55 M10.45 63.05 L6.1 62.25 6.0 61.55 5.6 58.45 Q4.8 50.75 5.05 42.9 L5.3 39.05 8.4 38.9 8.7 39.55 9.0 39.8 8.5 42.4 7.9 45.15 6.65 51.2 Q6.55 51.8 6.8 52.5 7.85 54.5 10.0 55.35 10.15 55.4 10.35 55.55 L10.45 63.05 M56.6 43.25 L56.95 48.5 46.8 50.55 Q33.65 53.3 26.45 55.35 L51.4 42.0 53.1 42.6 56.6 43.25 M72.0 36.55 L72.7 35.85 73.85 36.45 72.0 36.55 M5.3 39.05 L8.7 39.55 5.3 39.05" fill="#771c8c" fill-rule="evenodd" stroke="none"/>
      <path d="M84.85 41.55 L85.35 49.25 Q76.65 46.55 68.75 46.9 L56.95 48.5 56.6 43.25 57.65 43.25 Q59.6 43.15 66.3 39.8 L67.4 39.25 66.3 39.8 Q59.6 43.15 57.65 43.25 L56.6 43.25 53.1 42.6 51.4 42.0 Q49.95 41.4 49.95 40.5 L49.95 40.45 50.0 40.1 50.25 39.15 50.25 39.05 50.75 37.65 51.05 36.9 51.45 36.2 52.9 32.95 52.35 32.2 Q51.7 31.65 50.2 30.85 L48.25 29.5 46.0 27.55 46.1 27.4 49.25 29.05 Q52.65 30.6 53.3 30.55 55.05 30.5 59.05 28.55 L63.85 25.95 64.05 25.95 62.0 30.4 Q61.25 32.15 60.85 33.5 60.4 34.8 60.45 35.65 L60.6 36.5 Q59.65 36.95 59.35 37.2 59.65 36.95 60.6 36.5 60.8 37.3 61.6 37.3 62.9 37.2 67.25 33.85 L70.8 31.0 Q73.45 34.0 73.5 34.55 L73.0 35.65 72.7 35.85 72.0 36.55 69.45 38.1 67.4 39.25 78.85 38.7 83.7 41.05 84.85 41.55 M57.85 35.85 L60.85 33.5 57.85 35.85" fill="#e8b600" fill-rule="evenodd" stroke="none"/>
      <path d="M110.15 48.2 Q110.35 52.35 109.95 56.65 L109.9 57.45 109.5 60.55 105.1 60.8 97.55 61.25 86.2 61.9 85.35 49.25 87.4 49.8 Q97.15 53.15 98.15 53.1 99.6 53.0 108.85 48.7 L110.15 48.2 M56.6 63.7 L24.7 65.55 24.45 61.45 24.35 60.65 24.15 56.6 25.55 55.85 26.45 55.35 Q33.65 53.3 46.8 50.55 L56.95 48.5 57.35 54.2 70.55 54.2 57.55 57.4 57.95 63.6 56.6 63.7" fill="#ab34c4" fill-rule="evenodd" stroke="none"/>
      <path d="M105.1 60.8 L105.3 65.35 101.05 62.65 97.75 64.15 97.55 61.25 105.1 60.8 M85.1 62.0 L85.0 64.55 82.0 63.15 77.4 65.95 64.4 64.25 56.6 66.45 56.6 63.7 57.95 63.6 85.1 62.0 M19.6 64.7 L10.45 63.05 10.35 55.55 12.5 56.35 Q15.35 57.5 18.45 58.0 L19.5 58.1 19.6 64.7" fill="#e6b500" fill-rule="evenodd" stroke="none"/>
      <path d="M88.45 5.85 L87.6 3.55 Q89.75 2.2 91.3 1.35 93.7 0.05 94.55 0.0 95.4 0.0 96.85 1.1 99.05 2.8 102.6 7.15 L103.6 8.8 Q104.1 9.75 104.1 10.8 L104.25 12.15 104.3 12.8 Q104.7 18.3 105.9 23.65 L106.25 24.9 106.85 26.05 Q107.8 27.1 109.4 29.9 111.0 32.8 111.0 33.3 111.0 33.7 108.8 37.15 L108.7 37.3 105.5 41.75 102.55 45.3 Q97.75 47.9 92.4 45.2 L86.95 42.5 84.85 41.55 85.35 49.25 86.2 61.9 M105.1 60.8 L105.3 65.35 101.05 62.65 97.75 64.15 97.55 61.25 105.1 60.8 M85.1 62.0 L85.0 64.55 82.0 63.15 77.4 65.95 64.4 64.25 56.6 66.45 56.6 63.7 M8.4 38.9 Q4.55 33.1 1.6 26.8 L0.0 23.35 Q-0.15 19.1 1.1 15.3 2.6 10.6 5.35 10.5 10.3 10.25 20.4 13.6 L30.0 17.05 31.25 17.6 Q38.9 20.6 45.65 23.75 45.8 22.35 47.2 20.8 50.65 19.15 54.2 18.05 L58.6 16.85 59.25 16.7 64.45 18.65 65.15 18.95 72.6 13.55 76.3 11.0 76.6 10.8 80.65 8.05 85.25 5.05 86.9 7.15 88.45 5.85 90.7 11.9 86.9 7.15 M84.0 23.0 L84.45 22.9 M101.55 34.25 L100.45 35.35 99.55 36.25 99.25 36.6 97.9 37.75 M96.95 34.0 L100.65 34.2 101.55 34.25 Q107.0 34.65 107.05 35.35 107.05 36.0 106.05 37.0 L105.65 37.45 102.95 39.75 99.2 42.3 M98.35 42.65 L97.8 42.85 97.7 42.85 97.4 42.85 Q96.2 42.8 95.65 42.25 M76.1 35.35 L78.4 35.1 82.75 34.65 89.45 34.0 Q93.1 33.85 96.95 34.0 M79.45 24.3 L68.1 27.45 67.95 27.8 69.5 29.55 79.7 29.2 M84.0 23.0 L79.45 24.3 M84.85 41.55 L83.7 41.05 78.85 38.7 67.4 39.25 66.3 39.8 Q59.6 43.15 57.65 43.25 L56.6 43.25 56.95 48.5 57.35 54.2 70.55 54.2 57.55 57.4 57.95 63.6 M65.15 18.95 L68.0 19.0 Q70.35 19.35 70.4 20.7 70.45 22.65 68.5 26.6 L68.1 27.45 M45.65 23.75 L45.65 24.3 45.75 25.95 46.25 26.8 46.95 27.5 M60.6 36.5 L60.65 36.45 63.2 34.95 M60.85 33.5 L57.85 35.85 M46.1 27.4 L46.0 27.55 48.25 29.5 50.2 30.85 Q51.7 31.65 52.35 32.2 L52.9 32.95 51.45 36.2 51.05 36.9 50.75 37.65 50.25 39.05 50.25 39.15 50.0 40.1 49.95 40.45 49.95 40.5 Q49.95 41.4 51.4 42.0 L53.1 42.6 56.6 43.25 M60.85 33.5 L62.35 31.85 65.05 28.5 M46.25 26.8 L46.1 27.4 M40.8 44.4 L46.5 41.8 46.75 41.7 49.95 40.45 M44.25 39.9 L49.6 39.2 50.25 39.05 M32.05 42.55 Q36.1 41.3 40.15 40.55 L41.05 40.4 44.25 39.9 M35.1 26.2 L28.7 24.55 M52.35 32.2 L40.9 33.9 M60.6 36.5 Q59.65 36.95 59.35 37.2 M72.7 35.85 L73.0 35.65 73.5 34.55 Q73.45 34.0 70.8 31.0 L70.75 30.95 69.5 29.55 M73.0 35.65 L75.8 35.35 M72.7 35.85 L72.0 36.55 73.85 36.45 72.7 35.85 M67.95 27.8 L66.05 31.3 65.9 31.8 M67.4 39.25 L69.45 38.1 72.0 36.55 M78.85 38.7 L76.8 37.7 69.45 38.1 M76.8 37.7 L73.85 36.45 M32.05 42.55 Q28.55 43.6 25.05 45.05 L23.1 45.75 19.3 47.2 17.4 47.9 Q11.3 50.2 11.35 51.35 11.35 51.9 14.4 53.35 L16.6 54.35 M10.35 55.55 Q10.15 55.4 10.0 55.35 7.85 54.5 6.8 52.5 6.55 51.8 6.65 51.2 L7.9 45.15 8.5 42.4 9.0 39.8 8.7 39.55 5.3 39.05 M8.4 38.9 L8.7 39.55 M9.0 39.8 L9.05 39.95 10.2 41.65 12.2 44.25 12.35 44.5 M25.55 55.85 L24.15 56.6 24.35 60.65 24.45 61.45 24.7 65.55 M24.15 56.6 L21.2 58.1 19.5 58.1 19.6 64.7 M19.5 58.1 L18.45 58.0 Q15.35 57.5 12.5 56.35 L10.35 55.55 10.45 63.05 M26.45 55.35 L51.4 42.0 M48.25 29.5 L35.1 26.2" fill="none" stroke="#000000" stroke-linecap="round" stroke-linejoin="round" stroke-opacity="0.2509804" stroke-width="0.5"/>
      <path d="M108.7 37.3 Q109.85 42.65 110.15 48.2 110.35 52.35 109.95 56.65 L109.9 57.45 109.5 60.55 105.1 60.8 M97.55 61.25 L86.2 61.9 85.1 62.0 57.95 63.6 56.6 63.7 24.7 65.55 19.6 64.7 10.45 63.05 6.1 62.25 6.0 61.55 5.6 58.45 Q4.8 50.75 5.05 42.9 L5.3 39.05 8.4 38.9" fill="none" stroke="#000000" stroke-linecap="round" stroke-linejoin="round" stroke-opacity="0.4" stroke-width="0.5"/>
    </g>
    <linearGradient gradientTransform="matrix(-0.0027, -0.0454, 0.0416, -0.0026, 60.95, 81.2)" gradientUnits="userSpaceOnUse" id="gradient0" spreadMethod="pad" x1="-819.2" x2="819.2">
      <stop offset="0.0" stop-color="#4d142f"/>
      <stop offset="0.9803921568627451" stop-color="#6b2c47"/>
    </linearGradient>
    <linearGradient gradientTransform="matrix(-0.0246, 0.0287, -0.0287, -0.0255, 14.05, 67.65)" gradientUnits="userSpaceOnUse" id="gradient1" spreadMethod="pad" x1="-819.2" x2="819.2">
      <stop offset="0.0" stop-color="#4d142f"/>
      <stop offset="1.0" stop-color="#2e0417"/>
    </linearGradient>
    <linearGradient gradientTransform="matrix(0.0097, 0.0368, -0.0321, 0.0088, 94.1, 89.95)" gradientUnits="userSpaceOnUse" id="gradient2" spreadMethod="pad" x1="-819.2" x2="819.2">
      <stop offset="0.0" stop-color="#4d142f"/>
      <stop offset="1.0" stop-color="#2e0417"/>
    </linearGradient>
    <linearGradient gradientTransform="matrix(0.0097, 0.0412, -0.0321, 0.0098, 94.1, 88.6)" gradientUnits="userSpaceOnUse" id="gradient3" spreadMethod="pad" x1="-819.2" x2="819.2">
      <stop offset="0.0" stop-color="#4d142f"/>
      <stop offset="1.0" stop-color="#2e0417"/>
    </linearGradient>
    <linearGradient gradientTransform="matrix(-0.0027, -0.0509, 0.0416, -0.0029, 60.95, 78.8)" gradientUnits="userSpaceOnUse" id="gradient4" spreadMethod="pad" x1="-819.2" x2="819.2">
      <stop offset="0.0" stop-color="#4d142f"/>
      <stop offset="0.9803921568627451" stop-color="#6b2c47"/>
    </linearGradient>
    <linearGradient gradientTransform="matrix(-0.0246, 0.0322, -0.0287, -0.0286, 14.05, 63.6)" gradientUnits="userSpaceOnUse" id="gradient5" spreadMethod="pad" x1="-819.2" x2="819.2">
      <stop offset="0.0" stop-color="#4d142f"/>
      <stop offset="1.0" stop-color="#2e0417"/>
    </linearGradient>
    <radialGradient cx="0" cy="0" gradientTransform="matrix(0.0223, 0.0, -0.0042, 0.0223, 84.65, 70.35)" gradientUnits="userSpaceOnUse" id="gradient6" r="819.2" spreadMethod="pad">
      <stop offset="0.0" stop-color="#000000" stop-opacity="0.67058825"/>
      <stop offset="1.0" stop-color="#000000" stop-opacity="0.0"/>
    </radialGradient>
    <radialGradient cx="0" cy="0" gradientTransform="matrix(-0.0223, 0.0, 0.0042, 0.0223, 44.95, 70.35)" gradientUnits="userSpaceOnUse" id="gradient7" r="819.2" spreadMethod="pad">
      <stop offset="0.0" stop-color="#000000" stop-opacity="0.67058825"/>
      <stop offset="1.0" stop-color="#000000" stop-opacity="0.0"/>
    </radialGradient>
  </defs>
</svg>
