<?xml version="1.0" encoding="UTF-8" standalone="no"?>
<svg xmlns:xlink="http://www.w3.org/1999/xlink" height="531.5px" width="460.6px" xmlns="http://www.w3.org/2000/svg">
  <g transform="matrix(1.0, 0.0, 0.0, 1.0, 193.65, 334.05)">
    <use height="88.15" transform="matrix(1.0, 0.0, 0.0, 1.0, -91.5, -221.15)" width="162.1" xlink:href="#shape0"/>
  </g>
  <defs>
    <g id="shape0" transform="matrix(1.0, 0.0, 0.0, 1.0, 91.5, 221.15)">
      <path d="M20.45 -197.2 Q20.55 -197.2 20.65 -197.3 L20.8 -196.8 20.45 -197.2 5.15 -192.35 0.2 -207.8 5.25 -209.45 Q13.05 -205.2 20.45 -197.2 M26.35 -190.2 L29.45 -185.9 27.8 -185.55 26.35 -190.2 M67.3 -190.3 L67.4 -190.3 69.25 -189.55 69.9 -189.1 70.1 -189.0 69.45 -188.35 68.2 -187.55 67.9 -188.5 67.3 -190.3 M65.5 -186.25 L65.3 -186.05 60.7 -184.85 59.4 -184.5 54.85 -183.3 53.05 -182.8 49.65 -181.65 46.45 -180.7 44.1 -180.05 39.3 -178.5 31.95 -176.2 30.65 -176.55 46.2 -181.5 49.3 -182.55 59.35 -185.75 64.8 -187.55 65.2 -186.25 65.5 -186.25 M-45.0 -156.65 L-44.8 -155.85 -47.85 -154.8 -51.3 -153.65 -48.05 -155.25 -45.0 -156.65 M-86.3 -139.05 L-84.3 -140.45 -84.1 -139.8 -86.3 -139.05 M-65.9 -152.5 L-65.65 -157.05 Q-65.4 -161.85 -64.75 -166.5 L-58.55 -168.45 Q-58.7 -163.1 -57.65 -157.05 L-59.1 -156.35 -61.95 -154.7 -63.25 -153.95 -64.4 -153.3 -65.9 -152.5 M-64.15 -170.1 Q-62.7 -179.45 -59.75 -188.6 L-59.2 -190.2 -58.8 -188.9 -56.35 -181.4 Q-57.9 -177.0 -58.4 -171.95 L-64.15 -170.1 M-57.15 -194.3 Q-51.55 -201.2 -43.95 -205.55 L-43.65 -205.7 -41.7 -199.5 -41.2 -198.05 -45.75 -196.55 Q-43.9 -198.1 -41.7 -199.5 -43.9 -198.1 -45.75 -196.55 L-56.75 -193.05 -57.15 -194.3 M-47.15 -216.75 L-46.8 -216.75 -47.15 -216.7 -47.15 -216.75 M-31.0 -218.4 Q-29.4 -219.45 -27.75 -219.95 L-26.3 -220.45 -24.5 -220.6 -24.1 -220.6 -24.5 -220.5 -27.6 -219.55 -31.0 -218.4 M-22.4 -213.85 L-21.9 -212.45 Q-14.0 -213.45 -4.85 -212.8 L-3.95 -209.95 -19.3 -204.95 -19.5 -204.95 -19.5 -205.05 -19.3 -204.95 -19.5 -205.05 -21.9 -212.45 -23.1 -212.3 -22.4 -213.85 M-1.3 -212.3 L1.0 -211.5 -0.85 -210.9 -1.3 -212.3 M6.15 -189.25 L21.6 -194.2 24.55 -185.0 13.05 -182.55 10.3 -181.9 6.65 -187.75 10.3 -181.9 8.65 -181.5 6.65 -187.75 5.75 -189.1 6.15 -189.25 6.65 -187.75 6.15 -189.25 M-2.9 -206.85 L1.1 -194.55 3.55 -191.75 2.05 -191.35 1.1 -194.55 Q-5.35 -201.15 -12.95 -203.6 L-2.9 -206.85 M48.65 -184.7 L45.4 -184.2 45.25 -184.6 45.4 -184.2 43.1 -183.85 45.25 -184.6 48.35 -185.65 48.65 -184.7 M46.2 -181.5 L46.45 -180.7 46.2 -181.5 M49.65 -181.65 L49.3 -182.55 49.65 -181.65 M65.2 -186.25 L59.35 -185.75 65.2 -186.25 65.3 -186.05 65.2 -186.25 M67.9 -188.5 L69.9 -189.1 67.9 -188.5 M-27.75 -219.95 L-27.6 -219.55 -27.75 -219.95 M-24.5 -220.6 L-24.5 -220.5 -24.5 -220.6 M-40.7 -207.25 L-40.95 -208.05 -40.05 -207.5 -39.4 -207.8 -38.4 -208.2 Q-38.75 -206.1 -38.5 -204.3 -38.35 -202.85 -37.75 -201.7 L-38.75 -201.15 -40.7 -207.25 -40.05 -207.5 -40.7 -207.25 M-35.15 -209.45 L-33.55 -210.0 -31.5 -210.6 -25.15 -211.95 -23.05 -205.2 Q-27.65 -205.2 -32.65 -204.0 L-34.5 -203.15 -35.0 -204.45 Q-35.55 -206.65 -35.15 -209.45 M-54.4 -186.05 L-55.7 -189.95 -50.8 -191.5 Q-52.9 -189.0 -54.4 -186.05 M-59.75 -188.6 L-58.8 -188.9 -59.75 -188.6 M-25.3 -162.05 L-26.1 -161.7 -26.1 -161.8 -25.3 -162.05 M-47.85 -154.8 L-48.05 -155.25 -47.85 -154.8 M-65.65 -157.05 L-64.4 -153.3 -65.65 -157.05 M-65.45 -145.75 L-67.9 -144.9 -65.65 -146.25 -65.45 -145.75" fill="#4e6643" fill-rule="evenodd" stroke="none"/>
      <path d="M27.0 -177.35 L24.45 -177.9 18.75 -179.3 25.85 -180.85 26.6 -178.65 24.45 -177.9 26.6 -178.65 27.0 -177.35 M-57.9 -150.3 Q-58.65 -149.25 -59.2 -147.7 -60.15 -145.25 -60.65 -141.4 L-62.35 -146.7 -62.7 -147.8 -57.9 -150.3 M-63.5 -139.8 Q-72.5 -135.95 -79.0 -134.5 L-80.15 -137.9 Q-74.0 -141.6 -67.9 -144.9 L-65.45 -145.75 -63.5 -139.8 M-82.25 -133.85 L-87.2 -133.5 -83.0 -136.2 -82.25 -133.85 M29.7 -179.65 L29.1 -181.5 43.1 -183.85 29.7 -179.65 M49.3 -182.55 L48.65 -184.7 59.35 -185.75 49.3 -182.55 M-59.2 -147.7 L-62.35 -146.7 -59.2 -147.7" fill="#25381e" fill-rule="evenodd" stroke="none"/>
      <path d="M20.45 -197.2 L20.8 -196.8 22.85 -194.55 26.35 -190.2 27.8 -185.55 24.55 -185.0 27.8 -185.55 29.1 -181.5 25.85 -180.85 24.55 -185.0 21.6 -194.2 6.15 -189.25 5.15 -192.35 6.15 -189.25 5.75 -189.1 3.05 -188.25 2.05 -191.35 3.05 -188.25 -12.5 -183.3 -13.5 -186.4 -12.5 -183.3 -15.6 -182.3 -16.6 -185.4 -13.5 -186.4 -16.6 -185.4 -15.6 -182.3 -12.5 -183.3 -10.3 -176.35 -13.4 -175.4 -10.3 -176.35 -8.7 -171.4 -11.8 -170.35 -13.4 -175.4 -15.6 -182.3 -31.1 -177.35 -34.2 -176.35 -35.15 -179.45 -34.2 -176.35 -49.75 -171.4 -46.8 -162.35 -49.85 -160.9 -46.8 -162.35 -45.0 -156.65 -48.05 -155.25 -49.85 -160.9 -52.85 -170.35 -53.8 -173.45 -50.7 -174.5 -53.8 -173.45 -52.85 -170.35 -58.55 -168.45 -64.75 -166.5 -64.15 -170.1 -58.4 -171.95 -58.55 -168.45 -58.4 -171.95 -53.8 -173.45 -56.35 -181.4 -58.8 -188.9 -59.2 -190.2 -58.45 -192.5 -58.4 -192.75 -57.15 -194.3 -56.75 -193.05 -58.45 -192.5 -56.75 -193.05 -55.7 -189.95 -58.8 -188.9 -55.7 -189.95 -54.4 -186.05 -50.7 -174.5 -35.15 -179.45 -32.05 -180.45 -31.1 -177.35 -32.05 -180.45 -16.6 -185.4 -21.55 -200.9 -22.6 -204.0 -23.05 -205.2 -19.5 -205.05 -23.05 -205.2 -25.15 -211.95 -23.1 -212.3 -21.9 -212.45 -19.5 -205.05 -19.5 -204.95 -22.6 -204.0 -19.5 -204.95 -18.45 -201.85 -13.5 -186.4 2.05 -191.35 3.55 -191.75 5.15 -192.35 20.45 -197.2 M63.8 -190.6 L63.95 -190.6 67.3 -190.3 67.9 -188.5 68.2 -187.55 65.5 -186.25 65.2 -186.25 64.8 -187.55 63.8 -190.6 M-84.3 -140.45 L-81.5 -142.4 -81.05 -140.75 -80.15 -137.9 -83.0 -136.2 -84.1 -139.8 -84.3 -140.45 M20.8 -196.8 L21.6 -194.2 20.8 -196.8 M3.55 -191.75 L5.75 -189.1 3.55 -191.75 M22.85 -194.55 L21.6 -194.2 22.85 -194.55 M64.8 -187.55 L67.9 -188.5 64.8 -187.55 M-54.4 -186.05 Q-55.55 -183.85 -56.35 -181.4 -55.55 -183.85 -54.4 -186.05 M-18.45 -201.85 L-21.55 -200.9 -18.45 -201.85 M-52.85 -170.35 L-49.75 -171.4 -50.7 -174.5 -49.75 -171.4 -52.85 -170.35 M-81.05 -140.75 L-84.1 -139.8 -81.05 -140.75" fill="#5c3621" fill-rule="evenodd" stroke="none"/>
      <path d="M30.65 -176.55 L27.0 -177.35 26.6 -178.65 25.85 -180.85 29.1 -181.5 29.7 -179.65 30.65 -176.55 M-79.0 -134.5 L-82.25 -133.85 -83.0 -136.2 -80.15 -137.9 -79.0 -134.5 M29.7 -179.65 L26.6 -178.65 29.7 -179.65" fill="#361200" fill-rule="evenodd" stroke="none"/>
      <path d="M-38.4 -208.2 L-35.15 -209.45 Q-35.55 -206.65 -35.0 -204.45 L-34.5 -203.15 -37.75 -201.7 Q-38.35 -202.85 -38.5 -204.3 -38.75 -206.1 -38.4 -208.2" fill="#331f0b" fill-rule="evenodd" stroke="none"/>
      <path d="M44.1 -188.2 L46.55 -188.6 47.35 -188.65 48.35 -185.65 45.25 -184.6 44.1 -188.2 M10.05 -177.1 L6.95 -176.2 5.5 -180.7 3.05 -188.25 5.75 -189.1 6.65 -187.75 8.65 -181.5 10.05 -177.1 M-27.0 -164.55 L-30.05 -163.35 -31.75 -168.8 -34.2 -176.35 -31.1 -177.35 -28.75 -170.0 -27.0 -164.55 M-51.3 -153.65 L-57.9 -150.3 -62.7 -147.8 -63.35 -149.8 -62.7 -147.8 -65.65 -146.25 -66.45 -148.85 -63.35 -149.8 -66.45 -148.85 -65.65 -146.25 -67.9 -144.9 -81.05 -140.75 -81.5 -142.4 -77.2 -145.35 Q-71.8 -147.05 -66.45 -148.85 L-67.35 -151.6 -65.9 -152.5 -64.4 -153.3 -63.35 -149.8 -51.3 -153.65 M-4.85 -212.8 L-2.15 -212.6 -1.3 -212.3 -0.85 -210.9 1.0 -211.5 5.25 -209.45 0.2 -207.8 5.15 -192.35 3.55 -191.75 1.1 -194.55 -2.9 -206.85 -3.95 -209.95 -0.85 -210.9 0.2 -207.8 -2.9 -206.85 0.2 -207.8 -0.85 -210.9 -3.95 -209.95 -2.9 -206.85 -12.95 -203.6 Q-16.0 -204.65 -19.3 -204.95 -16.0 -204.65 -12.95 -203.6 L-18.45 -201.85 -19.5 -204.95 -19.3 -204.95 -3.95 -209.95 -4.85 -212.8 M8.65 -181.5 L5.5 -180.7 8.65 -181.5 M-43.65 -205.7 L-40.7 -207.25 -38.75 -201.15 -38.1 -199.0 -41.2 -198.05 -38.1 -199.0 -37.05 -195.9 -40.15 -194.95 -41.2 -198.05 -40.15 -194.95 -37.05 -195.9 -38.1 -199.0 -22.6 -204.0 -21.55 -200.9 -37.05 -195.9 -32.05 -180.45 -35.15 -179.45 -40.15 -194.95 -50.8 -191.5 Q-48.6 -194.3 -45.75 -196.55 -48.6 -194.3 -50.8 -191.5 L-55.7 -189.95 -56.75 -193.05 -45.75 -196.55 -41.2 -198.05 -41.7 -199.5 Q-40.3 -200.4 -38.75 -201.15 -40.3 -200.4 -41.7 -199.5 L-43.65 -205.7 M-28.75 -170.0 L-31.75 -168.8 -28.75 -170.0" fill="#283b21" fill-rule="evenodd" stroke="none"/>
      <path d="M-60.65 -141.4 L-60.75 -141.0 -61.95 -140.45 -63.5 -139.8 -65.45 -145.75 -65.65 -146.25 -62.7 -147.8 -62.35 -146.7 -60.65 -141.4 M29.7 -179.65 L43.1 -183.85 45.4 -184.2 48.65 -184.7 49.3 -182.55 46.2 -181.5 30.65 -176.55 29.7 -179.65 M46.2 -181.5 L45.4 -184.2 46.2 -181.5 M-65.45 -145.75 L-62.35 -146.7 -65.45 -145.75" fill="#182414" fill-rule="evenodd" stroke="none"/>
      <path d="M3.05 -188.25 L5.5 -180.7 -10.3 -176.35 -12.5 -183.3 3.05 -188.25 M1.1 -194.55 L2.05 -191.35 -13.5 -186.4 -18.45 -201.85 -12.95 -203.6 Q-5.35 -201.15 1.1 -194.55 M-38.75 -201.15 L-37.75 -201.7 -34.5 -203.15 -32.65 -204.0 Q-27.65 -205.2 -23.05 -205.2 L-22.6 -204.0 -38.1 -199.0 -38.75 -201.15 M-50.8 -191.5 L-40.15 -194.95 -35.15 -179.45 -50.7 -174.5 -54.4 -186.05 Q-52.9 -189.0 -50.8 -191.5 M-32.05 -180.45 L-37.05 -195.9 -21.55 -200.9 -16.6 -185.4 -32.05 -180.45 M-31.1 -177.35 L-15.6 -182.3 -13.4 -175.4 -17.8 -174.0 -28.75 -170.0 -31.1 -177.35 M-34.2 -176.35 L-31.75 -168.8 Q-39.4 -165.8 -46.8 -162.35 L-49.75 -171.4 -34.2 -176.35 M-52.85 -170.35 L-49.85 -160.9 -54.8 -158.55 -57.55 -157.15 -57.65 -157.05 Q-58.7 -163.1 -58.55 -168.45 L-52.85 -170.35 M-53.8 -173.45 L-58.4 -171.95 Q-57.9 -177.0 -56.35 -181.4 L-53.8 -173.45" fill="#666136" fill-rule="evenodd" stroke="none"/>
      <path d="M29.45 -185.9 L44.1 -188.2 45.25 -184.6 43.1 -183.85 29.1 -181.5 27.8 -185.55 29.45 -185.9 M47.35 -188.65 L54.85 -189.55 58.25 -190.05 59.4 -190.3 63.8 -190.6 64.8 -187.55 59.35 -185.75 48.65 -184.7 48.35 -185.65 47.35 -188.65 M18.75 -179.3 L10.05 -177.1 8.65 -181.5 10.3 -181.9 13.05 -182.55 24.55 -185.0 25.85 -180.85 18.75 -179.3 M6.95 -176.2 Q-0.85 -174.1 -8.7 -171.4 L-10.3 -176.35 5.5 -180.7 6.95 -176.2 M-11.8 -170.35 Q-19.45 -167.65 -27.0 -164.55 L-28.75 -170.0 -17.8 -174.0 -13.4 -175.4 -11.8 -170.35 M-30.05 -163.35 Q-37.55 -160.25 -45.0 -156.65 L-46.8 -162.35 Q-39.4 -165.8 -31.75 -168.8 L-30.05 -163.35 M-87.2 -133.5 L-90.3 -133.95 -90.95 -134.35 Q-91.3 -135.9 -89.1 -137.2 L-86.3 -139.05 -84.1 -139.8 -83.0 -136.2 -87.2 -133.5 M-77.2 -145.35 L-76.2 -146.05 -75.4 -146.65 -71.4 -149.1 -67.4 -151.6 -67.35 -151.6 -66.45 -148.85 Q-71.8 -147.05 -77.2 -145.35 M-57.65 -157.05 L-57.55 -157.15 -54.8 -158.55 -49.85 -160.9 -48.05 -155.25 -51.3 -153.65 -63.35 -149.8 -64.4 -153.3 -63.25 -153.95 -61.95 -154.7 -59.1 -156.35 -57.65 -157.05 M-67.9 -144.9 Q-74.0 -141.6 -80.15 -137.9 L-81.05 -140.75 -67.9 -144.9" fill="#6a7a56" fill-rule="evenodd" stroke="none"/>
      <path d="M-43.95 -205.55 L-44.8 -205.85 Q-49.0 -207.55 -51.3 -210.25 L-52.35 -211.55 Q-53.5 -213.45 -52.9 -214.8 -52.1 -216.7 -48.55 -216.85 L-47.15 -216.75 -47.15 -216.7 -46.8 -216.75 -43.55 -216.1 -40.95 -215.25 -40.85 -215.25 Q-38.75 -214.35 -37.05 -213.25 L-34.2 -210.9 -33.55 -210.0 -35.15 -209.45 -38.4 -208.2 -39.4 -207.8 -40.05 -207.5 -40.95 -208.05 -40.7 -207.25 -43.65 -205.7 -43.95 -205.55 M-45.1 -210.4 L-40.95 -208.05 -45.1 -210.4" fill="#374d2f" fill-rule="evenodd" stroke="none"/>
      <path d="M-37.05 -213.25 Q-35.65 -215.15 -33.35 -216.85 L-31.0 -218.4 -27.6 -219.55 -24.5 -220.5 -24.1 -220.6 Q-22.3 -220.6 -21.5 -219.55 -20.25 -217.9 -21.9 -214.8 L-22.4 -213.85 -23.1 -212.3 -25.15 -211.95 -31.5 -210.6 -33.55 -210.0 -34.2 -210.9 -37.05 -213.25 M-28.1 -214.75 L-31.5 -210.6 -28.1 -214.75" fill="#293b22" fill-rule="evenodd" stroke="none"/>
      <path d="M36.3 -148.1 L31.4 -150.05 Q27.25 -150.85 26.85 -151.45 L26.9 -152.4 Q28.6 -153.5 32.95 -151.45 36.85 -149.65 37.25 -148.75 37.0 -148.1 36.3 -148.1 M39.6 -150.7 Q40.9 -150.95 43.05 -149.9 45.3 -148.65 45.8 -147.1 L45.75 -146.65 Q45.55 -146.4 45.1 -146.4 44.4 -146.4 41.9 -148.2 L39.45 -150.05 39.6 -150.7 M42.0 -147.45 L41.35 -147.05 Q41.1 -147.05 40.0 -147.6 38.95 -148.25 38.65 -148.65 L40.45 -148.75 Q41.65 -148.2 42.0 -147.45 M31.4 -147.8 Q30.5 -147.8 29.45 -148.35 28.45 -148.9 28.45 -149.25 28.45 -150.2 29.9 -149.65 31.3 -149.15 31.9 -148.1 31.7 -147.8 31.4 -147.8 M21.3 -153.9 Q26.5 -152.15 26.65 -150.8 26.65 -149.9 25.85 -149.9 L20.65 -151.1 Q16.25 -152.4 15.35 -153.05 15.9 -155.6 21.3 -153.9 M4.45 -153.65 L-0.85 -151.45 -5.75 -149.5 -7.7 -149.75 Q-3.7 -154.7 4.1 -154.35 4.1 -154.15 4.45 -153.65 M-26.95 -148.85 Q-23.35 -151.1 -21.0 -151.05 L-20.85 -150.3 Q-27.9 -145.35 -29.55 -144.75 L-30.1 -144.9 Q-30.3 -145.0 -30.3 -145.6 -30.3 -146.7 -26.95 -148.85 M-23.5 -147.55 Q-22.15 -148.5 -21.5 -148.0 L-21.4 -147.8 Q-21.4 -147.45 -24.65 -145.8 L-24.9 -146.25 -23.5 -147.55 M-8.85 -151.95 L-11.95 -151.05 -14.9 -149.65 Q-16.6 -148.75 -17.8 -148.45 L-18.3 -148.45 -18.45 -149.0 Q-18.45 -150.55 -14.45 -152.25 -10.5 -154.05 -7.3 -153.95 L-7.15 -153.9 -7.05 -153.3 Q-7.05 -152.6 -8.85 -151.95 M-13.15 -148.65 L-11.3 -149.95 Q-9.65 -150.85 -8.95 -150.3 L-8.85 -150.05 Q-8.85 -149.65 -12.45 -148.6 L-13.15 -148.65" fill="#333333" fill-rule="evenodd" stroke="none"/>
      <path d="M20.45 -197.2 L20.8 -196.8 22.85 -194.55 26.35 -190.2 29.45 -185.9 44.1 -188.2 46.55 -188.6 47.35 -188.65 54.85 -189.55 58.25 -190.05 59.4 -190.3 63.8 -190.6 63.95 -190.6 67.3 -190.3 67.4 -190.3 69.25 -189.55 69.9 -189.1 70.1 -189.0 69.45 -188.35 68.2 -187.55 65.5 -186.25 65.3 -186.05 60.7 -184.85 59.4 -184.5 54.85 -183.3 53.05 -182.8 49.65 -181.65 46.45 -180.7 44.1 -180.05 39.3 -178.5 31.95 -176.2 30.65 -176.55 27.0 -177.35 24.45 -177.9 18.75 -179.3 10.05 -177.1 6.95 -176.2 Q-0.85 -174.1 -8.7 -171.4 L-11.8 -170.35 Q-19.45 -167.65 -27.0 -164.55 L-30.05 -163.35 Q-37.55 -160.25 -45.0 -156.65 L-48.05 -155.25 -51.3 -153.65 -57.9 -150.3 Q-58.65 -149.25 -59.2 -147.7 -60.15 -145.25 -60.65 -141.4 L-60.75 -141.0 -61.95 -140.45 -63.5 -139.8 Q-72.5 -135.95 -79.0 -134.5 L-82.25 -133.85 -87.2 -133.5 -90.3 -133.95 -90.95 -134.35 Q-91.3 -135.9 -89.1 -137.2 L-86.3 -139.05 -84.3 -140.45 -81.5 -142.4 -77.2 -145.35 -76.2 -146.05 -75.4 -146.65 -71.4 -149.1 -67.4 -151.6 -67.35 -151.6 -65.9 -152.5 -65.65 -157.05 Q-65.4 -161.85 -64.75 -166.5 L-64.15 -170.1 Q-62.7 -179.45 -59.75 -188.6 L-59.2 -190.2 -58.45 -192.5 -58.4 -192.75 -57.15 -194.3 Q-51.55 -201.2 -43.95 -205.55 L-44.8 -205.85 Q-49.0 -207.55 -51.3 -210.25 L-52.35 -211.55 Q-53.5 -213.45 -52.9 -214.8 -52.1 -216.7 -48.55 -216.85 L-47.15 -216.75 -46.8 -216.75 -43.55 -216.1 -40.95 -215.25 -40.85 -215.25 Q-38.75 -214.35 -37.05 -213.25 -35.65 -215.15 -33.35 -216.85 L-31.0 -218.4 Q-29.4 -219.45 -27.75 -219.95 L-26.3 -220.45 -24.5 -220.6 -24.1 -220.6 Q-22.3 -220.6 -21.5 -219.55 -20.25 -217.9 -21.9 -214.8 L-22.4 -213.85 -23.1 -212.3 -25.15 -211.95 -31.5 -210.6 -33.55 -210.0 -34.2 -210.9 -37.05 -213.25 M-21.9 -212.45 Q-14.0 -213.45 -4.85 -212.8 L-2.15 -212.6 -1.3 -212.3 1.0 -211.5 5.25 -209.45 Q13.05 -205.2 20.45 -197.2 M1.1 -194.55 L3.55 -191.75 5.75 -189.1 6.65 -187.75 10.3 -181.9 13.05 -182.55 24.55 -185.0 27.8 -185.55 29.45 -185.9 M-19.3 -204.95 Q-16.0 -204.65 -12.95 -203.6 -5.35 -201.15 1.1 -194.55 M5.5 -180.7 L8.65 -181.5 10.3 -181.9 M29.1 -181.5 L25.85 -180.85 18.75 -179.3 M43.1 -183.85 L29.1 -181.5 M48.65 -184.7 L45.4 -184.2 43.1 -183.85 M59.35 -185.75 L48.65 -184.7 M65.2 -186.25 L65.5 -186.25 M59.35 -185.75 L65.2 -186.25 M-40.7 -207.25 L-40.05 -207.5 -40.95 -208.05 -45.1 -210.4 M-40.05 -207.5 L-39.4 -207.8 -38.4 -208.2 -35.15 -209.45 -33.55 -210.0 M-43.95 -205.55 L-43.65 -205.7 -40.7 -207.25 M-38.75 -201.15 L-37.75 -201.7 Q-38.35 -202.85 -38.5 -204.3 -38.75 -206.1 -38.4 -208.2 M-38.75 -201.15 Q-40.3 -200.4 -41.7 -199.5 -43.9 -198.1 -45.75 -196.55 -48.6 -194.3 -50.8 -191.5 -52.9 -189.0 -54.4 -186.05 -55.55 -183.85 -56.35 -181.4 -57.9 -177.0 -58.4 -171.95 L-58.55 -168.45 Q-58.7 -163.1 -57.65 -157.05 L-57.55 -157.15 -54.8 -158.55 -49.85 -160.9 -46.8 -162.35 Q-39.4 -165.8 -31.75 -168.8 L-28.75 -170.0 -17.8 -174.0 -13.4 -175.4 -10.3 -176.35 5.5 -180.7 M-23.05 -205.2 Q-27.65 -205.2 -32.65 -204.0 L-34.5 -203.15 -37.75 -201.7 M-19.5 -205.05 L-23.05 -205.2 M-19.3 -204.95 L-19.5 -205.05 M-21.9 -212.45 L-23.1 -212.3 M-34.5 -203.15 L-35.0 -204.45 Q-35.55 -206.65 -35.15 -209.45 M-31.5 -210.6 L-28.1 -214.75 M-62.7 -147.8 L-57.9 -150.3 M-57.65 -157.05 L-59.1 -156.35 -61.95 -154.7 -63.25 -153.95 -64.4 -153.3 -65.9 -152.5 M-65.65 -146.25 L-62.7 -147.8 M-67.9 -144.9 Q-74.0 -141.6 -80.15 -137.9 L-83.0 -136.2 -87.2 -133.5 M-65.65 -146.25 L-67.9 -144.9" fill="none" stroke="#000000" stroke-linecap="round" stroke-linejoin="round" stroke-opacity="0.4" stroke-width="1.0"/>
      <path d="M20.8 -196.8 L20.65 -197.3 Q20.55 -197.2 20.45 -197.2 L5.15 -192.35 6.15 -189.25 21.6 -194.2 20.8 -196.8 M-47.85 -154.8 L-51.3 -153.65 -63.35 -149.8 -62.7 -147.8 -62.35 -146.7 -59.2 -147.7 M-22.4 -213.85 L-21.9 -212.45 -19.5 -205.05 -19.5 -204.95 -19.3 -204.95 -3.95 -209.95 -2.9 -206.85 1.1 -194.55 2.05 -191.35 -13.5 -186.4 -12.5 -183.3 3.05 -188.25 5.75 -189.1 6.15 -189.25 6.65 -187.75 8.65 -181.5 10.05 -177.1 M-2.9 -206.85 L0.2 -207.8 -0.85 -210.9 -3.95 -209.95 -4.85 -212.8 M3.55 -191.75 L5.15 -192.35 0.2 -207.8 5.25 -209.45 M-1.3 -212.3 L-0.85 -210.9 1.0 -211.5 M-12.95 -203.6 L-2.9 -206.85 M3.55 -191.75 L2.05 -191.35 3.05 -188.25 5.5 -180.7 6.95 -176.2 M24.55 -185.0 L21.6 -194.2 22.85 -194.55 M25.85 -180.85 L24.55 -185.0 M27.8 -185.55 L26.35 -190.2 M26.6 -178.65 L24.45 -177.9 M25.85 -180.85 L26.6 -178.65 29.7 -179.65 29.1 -181.5 27.8 -185.55 M27.0 -177.35 L26.6 -178.65 M29.7 -179.65 L43.1 -183.85 45.25 -184.6 44.1 -188.2 M30.65 -176.55 L29.7 -179.65 M49.3 -182.55 L48.65 -184.7 48.35 -185.65 45.25 -184.6 45.4 -184.2 46.2 -181.5 49.3 -182.55 59.35 -185.75 64.8 -187.55 65.2 -186.25 65.3 -186.05 M49.3 -182.55 L49.65 -181.65 M46.45 -180.7 L46.2 -181.5 30.65 -176.55 M48.35 -185.65 L47.35 -188.65 M67.9 -188.5 L64.8 -187.55 63.8 -190.6 M68.2 -187.55 L67.9 -188.5 67.3 -190.3 M69.9 -189.1 L67.9 -188.5 M-27.6 -219.55 L-27.75 -219.95 M-24.1 -220.6 L-24.5 -220.5 -27.6 -219.55 -31.0 -218.4 M-24.5 -220.5 L-24.5 -220.6 M-40.95 -208.05 L-40.7 -207.25 -38.75 -201.15 -38.1 -199.0 -22.6 -204.0 -23.05 -205.2 -25.15 -211.95 M-46.8 -216.75 L-47.15 -216.7 -47.15 -216.75 M-41.7 -199.5 L-43.65 -205.7 M-41.7 -199.5 L-41.2 -198.05 -38.1 -199.0 -37.05 -195.9 -21.55 -200.9 -22.6 -204.0 -19.5 -204.95 -18.45 -201.85 -12.95 -203.6 M-45.75 -196.55 L-41.2 -198.05 -40.15 -194.95 -37.05 -195.9 -32.05 -180.45 -16.6 -185.4 -21.55 -200.9 -18.45 -201.85 -13.5 -186.4 -16.6 -185.4 -15.6 -182.3 -12.5 -183.3 -10.3 -176.35 -8.7 -171.4 M-57.15 -194.3 L-56.75 -193.05 -45.75 -196.55 M-50.8 -191.5 L-40.15 -194.95 -35.15 -179.45 -32.05 -180.45 -31.1 -177.35 -15.6 -182.3 -13.4 -175.4 -11.8 -170.35 M-56.75 -193.05 L-58.45 -192.5 M-58.8 -188.9 L-55.7 -189.95 -56.75 -193.05 M-59.2 -190.2 L-58.8 -188.9 -56.35 -181.4 -53.8 -173.45 -52.85 -170.35 -58.55 -168.45 -64.75 -166.5 M-54.4 -186.05 L-55.7 -189.95 -50.8 -191.5 M-54.4 -186.05 L-50.7 -174.5 -35.15 -179.45 -34.2 -176.35 -31.1 -177.35 -28.75 -170.0 -27.0 -164.55 M-58.8 -188.9 L-59.75 -188.6 M-31.75 -168.8 L-34.2 -176.35 -49.75 -171.4 -46.8 -162.35 -45.0 -156.65 M-31.75 -168.8 L-30.05 -163.35 M-50.7 -174.5 L-49.75 -171.4 -52.85 -170.35 -49.85 -160.9 -48.05 -155.25 -47.85 -154.8 M-50.7 -174.5 L-53.8 -173.45 -58.4 -171.95 -64.15 -170.1 M-64.4 -153.3 L-63.35 -149.8 -66.45 -148.85 -65.65 -146.25 -65.45 -145.75 -67.9 -144.9 -81.05 -140.75 -80.15 -137.9 -79.0 -134.5 M-64.4 -153.3 L-65.65 -157.05 M-67.35 -151.6 L-66.45 -148.85 Q-71.8 -147.05 -77.2 -145.35 M-63.5 -139.8 L-65.45 -145.75 -62.35 -146.7 -60.65 -141.4 M-83.0 -136.2 L-82.25 -133.85 M-84.3 -140.45 L-84.1 -139.8 -81.05 -140.75 -81.5 -142.4 M-86.3 -139.05 L-84.1 -139.8 -83.0 -136.2" fill="none" stroke="#000000" stroke-linecap="round" stroke-linejoin="round" stroke-opacity="0.4" stroke-width="0.25"/>
      <path d="M-41.3 -214.85 L-41.2 -214.85 Q-39.1 -213.95 -37.35 -212.9 -36.0 -214.75 -33.7 -216.5 L-31.35 -218.0 Q-29.7 -219.1 -28.1 -219.55 L-26.6 -220.05 -24.8 -220.2 -24.4 -220.2 Q-22.6 -220.2 -21.8 -219.15 -20.6 -217.55 -22.2 -214.45 L-22.7 -213.45 -22.2 -212.1 -14.25 -212.65 -14.25 -169.25 -27.35 -164.2 -30.35 -162.95 -45.35 -156.3 -45.1 -155.45 -51.6 -153.25 -58.2 -149.9 Q-58.95 -148.85 -59.5 -147.3 -60.5 -144.85 -61.0 -141.05 L-61.05 -140.65 -62.3 -140.05 -63.85 -139.4 Q-72.8 -135.6 -79.3 -134.1 L-82.6 -133.45 -87.55 -133.15 -90.65 -133.55 -91.3 -133.95 Q-91.6 -135.5 -89.4 -136.8 L-76.55 -145.7 -75.75 -146.25 -71.75 -148.7 -67.75 -151.2 -67.65 -151.2 -66.2 -152.1 -65.95 -156.7 Q-65.7 -161.5 -65.05 -166.15 L-64.5 -169.7 Q-63.05 -179.1 -60.1 -188.2 L-59.5 -189.85 -58.8 -192.1 -58.7 -192.35 -57.5 -193.9 Q-51.85 -200.85 -44.3 -205.15 L-45.1 -205.5 Q-49.35 -207.2 -51.6 -209.9 L-52.7 -211.2 Q-53.8 -213.05 -53.25 -214.45 -52.45 -216.3 -48.85 -216.5 L-47.45 -216.4 -47.15 -216.4 -43.9 -215.75 -41.3 -214.85" fill="url(#gradient0)" fill-rule="evenodd" stroke="none"/>
      <path d="M-25.65 -161.65 L-26.45 -161.35 -26.45 -161.4 -25.65 -161.65" fill="url(#gradient1)" fill-rule="evenodd" stroke="none"/>
    </g>
    <linearGradient gradientTransform="matrix(0.0268, -0.0155, 0.0266, 0.0461, -33.3, -157.4)" gradientUnits="userSpaceOnUse" id="gradient0" spreadMethod="pad" x1="-819.2" x2="819.2">
      <stop offset="0.0" stop-color="#000000" stop-opacity="0.2509804"/>
      <stop offset="1.0" stop-color="#000000" stop-opacity="0.0"/>
    </linearGradient>
    <linearGradient gradientTransform="matrix(6.0E-4, 0.0, 0.0, 2.0E-4, -25.95, -161.55)" gradientUnits="userSpaceOnUse" id="gradient1" spreadMethod="pad" x1="-819.2" x2="819.2">
      <stop offset="0.0" stop-color="#000000" stop-opacity="0.2509804"/>
      <stop offset="1.0" stop-color="#000000" stop-opacity="0.0"/>
    </linearGradient>
  </defs>
</svg>
