<?xml version="1.0" encoding="UTF-8" standalone="no"?>
<svg xmlns:xlink="http://www.w3.org/1999/xlink" height="531.5px" width="460.6px" xmlns="http://www.w3.org/2000/svg">
  <g transform="matrix(1.0, 0.0, 0.0, 1.0, 193.65, 334.05)">
    <use height="175.35" transform="matrix(1.0, 0.0, 0.0, 1.0, -106.55, -249.9)" width="209.8" xlink:href="#shape0"/>
  </g>
  <defs>
    <g id="shape0" transform="matrix(1.0, 0.0, 0.0, 1.0, 106.55, 249.9)">
      <path d="M-55.7 -172.2 L-58.2 -174.25 Q-62.35 -178.1 -62.35 -180.25 -62.35 -184.4 -50.0 -192.65 L-37.5 -200.1 Q-26.95 -205.85 -6.4 -205.85 L2.65 -204.85 Q8.7 -203.95 11.75 -202.85 13.25 -202.45 14.1 -201.8 L14.15 -201.8 14.25 -201.7 14.4 -201.6 Q24.95 -194.15 43.65 -171.7 51.95 -161.75 56.5 -154.45 L58.4 -151.3 Q62.25 -144.35 62.15 -140.2 61.8 -131.15 59.85 -125.45 57.7 -119.8 57.7 -117.9 57.7 -117.65 61.1 -114.15 64.4 -110.7 64.7 -106.55 64.9 -102.5 63.0 -97.5 61.1 -92.55 60.0 -90.95 L55.25 -83.6 54.35 -82.0 Q40.75 -73.55 21.45 -75.15 -34.9 -78.3 -62.85 -89.4 -65.15 -91.95 -65.15 -93.8 -65.15 -95.45 -60.45 -96.85 L-55.45 -98.0 Q-57.35 -98.6 -64.35 -105.3 -71.8 -112.6 -71.7 -118.4 -71.6 -124.1 -66.8 -137.15 -63.5 -146.15 -61.85 -151.3 L-60.85 -154.45 -60.7 -155.05 -56.8 -166.8 Q-54.3 -173.85 -53.65 -176.25 L-55.7 -172.2 M-51.05 -181.4 L-51.55 -180.4 -53.65 -176.25 -51.55 -180.4 -51.05 -181.4 M50.05 -112.85 Q53.7 -123.7 55.2 -137.3 52.6 -144.75 49.65 -151.3 L48.05 -154.45 Q42.6 -165.4 35.65 -173.95 L30.3 -179.9 Q25.2 -185.1 19.3 -189.1 13.35 -184.05 7.95 -178.8 L2.3 -173.0 Q-3.9 -166.55 -9.3 -159.75 L-13.25 -154.45 -15.5 -151.3 Q-21.15 -143.25 -25.8 -134.8 -23.7 -86.0 17.9 -80.75 32.65 -81.45 42.6 -97.0 46.9 -104.05 50.05 -112.85" fill="#faffbc" fill-rule="evenodd" stroke="none"/>
      <path d="M54.35 -82.0 L55.25 -83.6 60.0 -90.95 Q61.1 -92.55 63.0 -97.5 64.9 -102.5 64.7 -106.55 64.4 -110.7 61.1 -114.15 57.7 -117.65 57.7 -117.9 57.7 -119.8 59.85 -125.45 61.8 -131.15 62.15 -140.2 62.25 -144.35 58.4 -151.3 L56.5 -154.45 Q51.95 -161.75 43.65 -171.7 24.95 -194.15 14.4 -201.6 L14.25 -201.7 14.15 -201.8 14.1 -201.8 Q13.25 -202.45 11.75 -202.85 8.7 -203.95 2.65 -204.85 L-6.4 -205.85 Q-26.95 -205.85 -37.5 -200.1 L-50.0 -192.65 Q-62.35 -184.4 -62.35 -180.25 -62.35 -178.1 -58.2 -174.25 L-55.7 -172.2 -55.95 -171.55 Q-60.1 -172.35 -63.1 -173.5 -72.95 -177.5 -70.7 -185.8 -70.3 -189.45 -63.1 -195.15 L-55.15 -200.8 Q-34.65 -213.9 -2.65 -212.8 23.1 -206.4 40.6 -185.6 54.95 -169.6 61.55 -154.45 L62.8 -151.3 Q65.05 -145.5 66.15 -139.8 65.3 -132.55 62.65 -125.2 67.85 -117.0 69.05 -105.3 68.45 -102.55 67.2 -100.15 67.3 -95.6 64.2 -90.55 59.85 -85.5 54.35 -82.0 M61.65 -92.55 Q65.05 -96.1 67.2 -100.15 65.05 -96.1 61.65 -92.55 M59.1 -117.0 Q61.15 -121.15 62.65 -125.2 61.15 -121.15 59.1 -117.0" fill="url(#gradient0)" fill-rule="evenodd" stroke="none"/>
      <path d="M35.65 -173.95 Q42.6 -165.4 48.05 -154.45 L49.65 -151.3 Q52.6 -144.75 55.2 -137.3 53.7 -123.7 50.05 -112.85 50.95 -117.65 50.95 -124.85 50.95 -141.85 38.7 -151.3 L33.9 -154.45 32.15 -155.35 Q19.45 -161.75 2.5 -161.75 -3.35 -161.75 -9.3 -159.75 -3.9 -166.55 2.3 -173.0 L35.65 -173.95" fill="#050403" fill-rule="evenodd" stroke="none"/>
      <path d="M35.65 -173.95 L2.3 -173.0 7.95 -178.8 11.1 -179.55 Q17.65 -181.0 21.45 -181.0 L27.35 -180.25 30.3 -179.9 35.65 -173.95" fill="#b0e56d" fill-rule="evenodd" stroke="none"/>
      <path d="M30.3 -179.9 L27.35 -180.25 21.45 -181.0 Q17.65 -181.0 11.1 -179.55 L7.95 -178.8 Q13.35 -184.05 19.3 -189.1 25.2 -185.1 30.3 -179.9" fill="#7fad45" fill-rule="evenodd" stroke="none"/>
      <path d="M-9.3 -159.75 Q-3.35 -161.75 2.5 -161.75 19.45 -161.75 32.15 -155.35 L33.9 -154.45 38.7 -151.3 Q50.95 -141.85 50.95 -124.85 50.95 -117.65 50.05 -112.85 46.9 -104.05 42.6 -97.0 32.65 -81.45 17.9 -80.75 -23.7 -86.0 -25.8 -134.8 -21.15 -143.25 -15.5 -151.3 L-13.25 -154.45 -9.3 -159.75" fill="#14100c" fill-rule="evenodd" stroke="none"/>
      <path d="M-55.7 -172.2 L-53.65 -176.25 Q-54.3 -173.85 -56.8 -166.8 L-60.7 -155.05 -60.85 -154.45 -61.85 -151.3 Q-63.5 -146.15 -66.8 -137.15 -71.6 -124.1 -71.7 -118.4 -71.8 -112.6 -64.35 -105.3 -57.35 -98.6 -55.45 -98.0 L-60.45 -96.85 Q-65.15 -95.45 -65.15 -93.8 -65.15 -91.95 -62.85 -89.4 -74.1 -93.85 -80.65 -99.6 -79.5 -104.25 -75.45 -108.8 -78.25 -111.95 -80.1 -115.9 -77.9 -124.2 -73.6 -134.0 L-65.75 -151.3 -63.1 -156.95 -55.95 -171.55 -55.7 -172.2 M-61.75 -99.4 Q-72.05 -104.95 -75.45 -108.8 -72.05 -104.95 -61.75 -99.4" fill="#bac978" fill-rule="evenodd" stroke="none"/>
      <path d="M-55.7 -172.2 L-53.65 -176.25 -51.55 -180.4 -51.05 -181.4 M-55.95 -171.55 Q-60.1 -172.35 -63.1 -173.5 -72.95 -177.5 -70.7 -185.8 -70.3 -189.45 -63.1 -195.15 L-55.15 -200.8 Q-34.65 -213.9 -2.65 -212.8 23.1 -206.4 40.6 -185.6 54.95 -169.6 61.55 -154.45 L62.8 -151.3 Q65.05 -145.5 66.15 -139.8 65.3 -132.55 62.65 -125.2 67.85 -117.0 69.05 -105.3 68.45 -102.55 67.2 -100.15 67.3 -95.6 64.2 -90.55 59.85 -85.5 54.35 -82.0 40.75 -73.55 21.45 -75.15 -34.9 -78.3 -62.85 -89.4 -74.1 -93.85 -80.65 -99.6 -79.5 -104.25 -75.45 -108.8 -78.25 -111.95 -80.1 -115.9 -77.9 -124.2 -73.6 -134.0 L-65.75 -151.3 -63.1 -156.95 -55.95 -171.55 -55.7 -172.2 M50.05 -112.85 Q53.7 -123.7 55.2 -137.3 52.6 -144.75 49.65 -151.3 L48.05 -154.45 Q42.6 -165.4 35.65 -173.95 L2.3 -173.0 Q-3.9 -166.55 -9.3 -159.75 L-13.25 -154.45 -15.5 -151.3 Q-21.15 -143.25 -25.8 -134.8 -23.7 -86.0 17.9 -80.75 32.65 -81.45 42.6 -97.0 46.9 -104.05 50.05 -112.85 M35.65 -173.95 L30.3 -179.9 Q25.2 -185.1 19.3 -189.1 13.35 -184.05 7.95 -178.8 L2.3 -173.0 M62.65 -125.2 Q61.15 -121.15 59.1 -117.0 M67.2 -100.15 Q65.05 -96.1 61.65 -92.55 M-75.45 -108.8 Q-72.05 -104.95 -61.75 -99.4" fill="none" stroke="#000000" stroke-linecap="round" stroke-linejoin="round" stroke-opacity="0.4" stroke-width="0.7000000000000001"/>
      <path d="M34.7 -158.1 Q36.4 -158.25 37.6 -156.95 38.8 -155.55 38.85 -153.8 L39.2 -148.0 Q39.2 -146.0 38.3 -144.75 37.2 -143.35 35.55 -143.25 34.05 -143.2 32.8 -144.4 31.65 -145.65 31.55 -147.55 L31.25 -153.45 Q31.15 -155.2 32.25 -156.6 33.25 -158.1 34.7 -158.1" fill="#ffffff" fill-rule="evenodd" stroke="none"/>
      <path d="M4.05 -158.45 Q5.7 -158.5 7.05 -157.1 8.3 -155.6 8.45 -153.7 L8.7 -147.5 Q8.75 -145.4 7.8 -144.0 6.6 -142.6 4.9 -142.45 3.2 -142.35 2.0 -143.75 0.75 -145.0 0.55 -147.1 L0.25 -153.4 Q0.15 -155.3 1.25 -156.75 2.4 -158.35 4.05 -158.45" fill="#ffffff" fill-rule="evenodd" stroke="none"/>
      <path d="M-40.3 -180.5 L-39.2 -185.05 -38.65 -179.65 Q-38.65 -180.15 -35.55 -183.3 L-35.5 -183.3 Q-37.4 -179.4 -37.5 -178.4 L-37.5 -178.3 -35.65 -179.75 -33.85 -180.8 Q-33.9 -180.25 -35.3 -178.5 L-36.9 -176.75 -33.1 -177.5 -33.0 -177.4 Q-33.65 -176.65 -35.25 -175.65 L-35.65 -175.85 -38.8 -176.0 -39.3 -175.9 -39.8 -175.75 Q-41.3 -175.25 -42.35 -174.0 L-42.55 -173.75 -45.2 -174.1 -45.1 -174.25 -41.55 -175.5 -43.7 -176.25 Q-45.75 -177.1 -46.2 -177.5 L-44.1 -177.5 -41.85 -177.25 -41.85 -177.35 -46.0 -180.4 -45.95 -180.5 Q-41.7 -179.3 -41.35 -179.0 L-43.6 -183.85 -40.3 -180.5" fill="#1a891a" fill-rule="evenodd" stroke="none"/>
      <path d="M-38.7 -175.65 L-39.05 -175.0 -39.65 -175.35 -39.05 -175.0 -38.7 -175.65 -35.75 -175.35 -36.75 -173.5 -39.05 -175.0 -40.3 -172.5 -42.05 -173.7 -40.3 -172.5 -39.05 -175.0 -36.75 -173.5 -35.75 -175.35 Q-35.05 -175.15 -34.5 -174.7 L-33.4 -173.85 Q-32.25 -172.7 -31.65 -171.2 L-32.0 -170.45 -31.35 -170.1 -32.0 -170.45 -31.65 -171.2 -31.5 -170.6 -31.35 -170.1 Q-31.1 -168.3 -31.5 -166.8 L-33.25 -167.95 -34.55 -165.55 -36.9 -167.05 -35.65 -169.55 -37.95 -170.95 -36.75 -173.5 -34.35 -171.95 -32.0 -170.45 -33.25 -167.95 -35.65 -169.55 -34.35 -171.95 -35.65 -169.55 -33.25 -167.95 -32.0 -170.45 -34.35 -171.95 -36.75 -173.5 -37.95 -170.95 -35.65 -169.55 -36.9 -167.05 -34.55 -165.55 -33.25 -167.95 -31.5 -166.8 -32.0 -165.55 -32.75 -164.4 Q-33.75 -163.15 -35.25 -162.65 L-35.65 -162.5 -36.25 -162.35 -39.15 -162.65 -40.4 -163.3 -41.45 -164.25 Q-42.6 -165.3 -43.2 -167.05 L-43.3 -167.55 -43.35 -167.95 Q-43.75 -169.55 -43.3 -171.2 L-42.85 -172.5 -42.05 -173.7 Q-41.1 -174.95 -39.65 -175.35 L-39.2 -175.5 -38.7 -175.65 M-34.35 -171.95 L-33.4 -173.85 -34.35 -171.95 M-32.75 -164.4 L-34.55 -165.55 -35.8 -163.0 -38.15 -164.5 -36.9 -167.05 -39.3 -168.45 -37.95 -170.95 -40.3 -172.5 -37.95 -170.95 -39.3 -168.45 -36.9 -167.05 -38.15 -164.5 -35.8 -163.0 -34.55 -165.55 -32.75 -164.4 M-38.15 -164.5 L-40.55 -166.05 -39.3 -168.45 -41.6 -170.05 -40.3 -172.5 -41.6 -170.05 -39.3 -168.45 -40.55 -166.05 -38.15 -164.5 -39.15 -162.65 -38.15 -164.5 M-43.2 -167.05 L-42.85 -167.55 -40.55 -166.05 -41.45 -164.25 -40.55 -166.05 -42.85 -167.55 -43.2 -167.05 M-43.3 -171.2 L-41.6 -170.05 -42.85 -167.55 -43.35 -167.95 -42.85 -167.55 -41.6 -170.05 -43.3 -171.2 M-35.25 -162.65 L-35.8 -163.0 -36.25 -162.35 -35.8 -163.0 -35.25 -162.65" fill="#ffd455" fill-rule="evenodd" stroke="none"/>
      <path d="M-39.65 -175.35 L-39.05 -175.0 -38.7 -175.65 M-42.05 -173.7 L-40.3 -172.5 -39.05 -175.0 -36.75 -173.5 -35.75 -175.35 M-34.35 -171.95 L-35.65 -169.55 -33.25 -167.95 -32.0 -170.45 -34.35 -171.95 -36.75 -173.5 -37.95 -170.95 -35.65 -169.55 -36.9 -167.05 -34.55 -165.55 -33.25 -167.95 -31.5 -166.8 M-31.35 -170.1 L-32.0 -170.45 -31.65 -171.2 M-33.4 -173.85 L-34.35 -171.95 M-40.3 -172.5 L-37.95 -170.95 -39.3 -168.45 -36.9 -167.05 -38.15 -164.5 -35.8 -163.0 -34.55 -165.55 -32.75 -164.4 M-36.25 -162.35 L-35.8 -163.0 -35.25 -162.65 M-38.15 -164.5 L-39.15 -162.65 M-43.35 -167.95 L-42.85 -167.55 -41.6 -170.05 -43.3 -171.2 M-41.45 -164.25 L-40.55 -166.05 -42.85 -167.55 -43.2 -167.05 M-40.3 -172.5 L-41.6 -170.05 -39.3 -168.45 -40.55 -166.05 -38.15 -164.5" fill="none" stroke="#000000" stroke-linecap="round" stroke-linejoin="round" stroke-opacity="0.14901961" stroke-width="0.30000000000000004"/>
      <path d="M-2.35 -193.8 L-2.25 -193.75 Q-5.55 -192.75 -6.25 -192.25 L-4.3 -191.85 -2.75 -191.4 -4.8 -191.0 -6.9 -190.9 Q-6.15 -190.5 -4.25 -189.1 L-4.15 -189.0 -6.5 -189.35 -6.65 -189.7 Q-7.2 -190.9 -8.4 -191.6 L-8.65 -191.85 -9.05 -191.9 Q-10.2 -192.6 -11.45 -192.5 L-11.8 -192.5 -13.1 -194.15 -12.95 -194.15 -10.1 -192.85 -10.95 -194.5 -11.7 -196.55 -10.55 -195.4 -9.4 -194.05 Q-9.2 -194.75 -9.85 -198.2 L-8.05 -194.75 -6.65 -198.8 -6.65 -195.0 -3.35 -196.95 -6.05 -193.6 -2.35 -193.8" fill="#1a891a" fill-rule="evenodd" stroke="none"/>
      <path d="M-6.9 -189.45 L-8.55 -188.95 -9.05 -191.1 -8.45 -191.35 -9.05 -191.1 -8.55 -188.95 -6.9 -189.45 Q-6.65 -189.0 -6.65 -188.35 -6.5 -187.85 -6.5 -187.2 -6.4 -185.95 -6.95 -184.7 L-7.2 -184.3 -7.45 -183.9 Q-8.3 -182.7 -9.4 -182.05 L-10.45 -181.7 -11.55 -181.45 Q-12.85 -181.3 -13.95 -181.9 -14.1 -181.9 -14.25 -182.05 L-14.7 -182.3 Q-15.7 -182.95 -16.15 -184.15 L-16.4 -185.2 -16.6 -186.35 Q-16.65 -187.6 -16.0 -188.95 L-15.75 -189.35 -15.5 -189.6 Q-14.85 -190.75 -13.7 -191.4 L-12.7 -191.9 -11.55 -192.1 Q-10.2 -192.25 -9.15 -191.65 L-8.8 -191.5 -8.45 -191.35 Q-7.45 -190.65 -6.9 -189.45 M-6.5 -187.2 L-8.15 -186.7 -8.55 -188.95 -10.8 -188.2 -11.2 -190.45 -9.05 -191.1 -9.15 -191.65 -9.05 -191.1 -11.2 -190.45 -10.8 -188.2 -8.55 -188.95 -8.15 -186.7 -6.5 -187.2 M-9.4 -182.05 L-9.7 -183.8 -11.85 -183.15 -12.35 -185.3 -10.2 -185.95 -9.7 -183.8 -10.2 -185.95 -12.35 -185.3 -11.85 -183.15 -11.55 -181.45 -11.85 -183.15 -9.7 -183.8 -7.65 -184.55 -7.45 -183.9 -7.65 -184.55 -9.7 -183.8 -9.4 -182.05 M-13.95 -181.9 L-14.1 -182.4 -11.85 -183.15 -14.1 -182.4 -13.95 -181.9 M-16.15 -184.15 L-14.5 -184.6 -14.1 -182.4 -14.7 -182.3 -14.1 -182.4 -14.5 -184.6 -16.15 -184.15 M-11.2 -190.45 L-11.55 -192.1 -11.2 -190.45 -13.35 -189.75 -12.95 -187.5 -10.8 -188.2 -12.95 -187.5 -13.35 -189.75 -11.2 -190.45 M-15.0 -186.8 L-12.95 -187.5 -12.35 -185.3 -14.5 -184.6 -15.0 -186.8 -16.6 -186.35 -15.0 -186.8 -15.5 -189.1 -16.0 -188.95 -15.5 -189.1 -15.0 -186.8 -14.5 -184.6 -12.35 -185.3 -12.95 -187.5 -15.0 -186.8 M-6.95 -184.7 L-7.65 -184.55 -8.15 -186.7 -10.2 -185.95 -10.8 -188.2 -10.2 -185.95 -8.15 -186.7 -7.65 -184.55 -6.95 -184.7 M-13.7 -191.4 L-13.35 -189.75 -15.5 -189.1 -15.5 -189.6 -15.5 -189.1 -13.35 -189.75 -13.7 -191.4" fill="#ffd455" fill-rule="evenodd" stroke="none"/>
      <path d="M-8.45 -191.35 L-9.05 -191.1 -8.55 -188.95 -6.9 -189.45 M-9.15 -191.65 L-9.05 -191.1 -11.2 -190.45 -10.8 -188.2 -8.55 -188.95 -8.15 -186.7 -6.5 -187.2 M-15.5 -189.6 L-15.5 -189.1 -13.35 -189.75 -13.7 -191.4 M-16.6 -186.35 L-15.0 -186.8 -15.5 -189.1 -16.0 -188.95 M-10.8 -188.2 L-10.2 -185.95 -8.15 -186.7 -7.65 -184.55 -6.95 -184.7 M-15.0 -186.8 L-14.5 -184.6 -12.35 -185.3 -12.95 -187.5 -15.0 -186.8 M-11.2 -190.45 L-13.35 -189.75 -12.95 -187.5 -10.8 -188.2 M-11.55 -192.1 L-11.2 -190.45 M-11.85 -183.15 L-9.7 -183.8 -10.2 -185.95 -12.35 -185.3 -11.85 -183.15 -11.55 -181.45 M-14.7 -182.3 L-14.1 -182.4 -14.5 -184.6 -16.15 -184.15 M-11.85 -183.15 L-14.1 -182.4 -13.95 -181.9 M-9.7 -183.8 L-7.65 -184.55 -7.45 -183.9 M-9.7 -183.8 L-9.4 -182.05" fill="none" stroke="#000000" stroke-linecap="round" stroke-linejoin="round" stroke-opacity="0.14901961" stroke-width="0.30000000000000004"/>
      <path d="M-34.8 -153.2 L-34.8 -149.4 -31.5 -151.4 -34.25 -148.0 -30.5 -148.25 -30.45 -148.15 Q-33.75 -147.15 -34.4 -146.65 L-32.5 -146.25 -30.95 -145.85 -33.0 -145.4 -35.05 -145.35 -32.4 -143.5 -32.35 -143.45 -34.65 -143.75 -34.8 -144.1 Q-35.4 -145.35 -36.55 -146.0 L-36.8 -146.25 -37.25 -146.35 Q-38.4 -147.0 -39.65 -146.9 L-39.95 -146.9 -41.3 -148.55 -41.1 -148.55 -38.3 -147.25 -39.15 -148.9 -39.9 -150.95 -38.7 -149.8 -37.55 -148.5 Q-37.4 -149.15 -38.05 -152.65 L-36.25 -149.15 -34.8 -153.2" fill="#1a891a" fill-rule="evenodd" stroke="none"/>
      <path d="M-43.7 -144.0 Q-43.05 -145.15 -41.85 -145.85 L-40.85 -146.35 -39.7 -146.5 -37.3 -146.1 -37.0 -145.9 -36.65 -145.75 Q-35.65 -145.1 -35.05 -143.85 L-34.8 -142.75 -34.65 -141.6 Q-34.55 -140.35 -35.15 -139.1 L-35.4 -138.7 -35.65 -138.3 Q-36.5 -137.15 -37.55 -136.45 L-38.65 -136.15 -39.7 -135.9 Q-41.05 -135.7 -42.1 -136.3 L-42.45 -136.45 -42.85 -136.7 Q-43.85 -137.4 -44.35 -138.55 L-44.6 -139.6 -44.75 -140.8 Q-44.85 -142.0 -44.2 -143.35 L-43.95 -143.75 -43.7 -144.0 -43.7 -143.5 -41.55 -144.2 -41.85 -145.85 -41.55 -144.2 -43.7 -143.5 -43.7 -144.0 M-35.8 -138.95 L-35.15 -139.1 -35.8 -138.95 -35.65 -138.3 -35.8 -138.95 -37.9 -138.2 -37.55 -136.45 -37.9 -138.2 -35.8 -138.95 -36.3 -141.1 -34.65 -141.6 -36.3 -141.1 -35.8 -138.95 M-38.4 -140.35 L-37.9 -138.2 -40.05 -137.55 -40.55 -139.7 -38.4 -140.35 -38.95 -142.6 -36.75 -143.35 -36.3 -141.1 -38.4 -140.35 -36.3 -141.1 -36.75 -143.35 -38.95 -142.6 -41.1 -141.95 -40.55 -139.7 -42.7 -139.05 -43.2 -141.2 -41.1 -141.95 -43.2 -141.2 -42.7 -139.05 -40.55 -139.7 -41.1 -141.95 -41.55 -144.2 -39.4 -144.85 -39.7 -146.5 -39.4 -144.85 -41.55 -144.2 -41.1 -141.95 -38.95 -142.6 -39.4 -144.85 -38.95 -142.6 -38.4 -140.35 -40.55 -139.7 -40.05 -137.55 -37.9 -138.2 -38.4 -140.35 M-37.3 -146.1 L-37.25 -145.5 -39.4 -144.85 -37.25 -145.5 -37.3 -146.1 M-35.05 -143.85 L-36.75 -143.35 -37.25 -145.5 -36.65 -145.75 -37.25 -145.5 -36.75 -143.35 -35.05 -143.85 M-44.35 -138.55 L-42.7 -139.05 -42.3 -136.8 -42.85 -136.7 -42.3 -136.8 -42.7 -139.05 -44.35 -138.55 M-42.1 -136.3 L-42.3 -136.8 -40.05 -137.55 -39.7 -135.9 -40.05 -137.55 -42.3 -136.8 -42.1 -136.3 M-44.2 -143.35 L-43.7 -143.5 -43.2 -141.2 -44.75 -140.8 -43.2 -141.2 -43.7 -143.5 -44.2 -143.35" fill="#ffd455" fill-rule="evenodd" stroke="none"/>
      <path d="M-43.7 -144.0 L-43.7 -143.5 -41.55 -144.2 -41.85 -145.85 M-44.75 -140.8 L-43.2 -141.2 -43.7 -143.5 -44.2 -143.35 M-41.1 -141.95 L-43.2 -141.2 -42.7 -139.05 -40.55 -139.7 -41.1 -141.95 -41.55 -144.2 -39.4 -144.85 -39.7 -146.5 M-39.7 -135.9 L-40.05 -137.55 -42.3 -136.8 -42.1 -136.3 M-42.85 -136.7 L-42.3 -136.8 -42.7 -139.05 -44.35 -138.55 M-36.65 -145.75 L-37.25 -145.5 -36.75 -143.35 -35.05 -143.85 M-39.4 -144.85 L-37.25 -145.5 -37.3 -146.1 M-41.1 -141.95 L-38.95 -142.6 -39.4 -144.85 M-38.95 -142.6 L-38.4 -140.35 -36.3 -141.1 -36.75 -143.35 -38.95 -142.6 M-35.65 -138.3 L-35.8 -138.95 -37.9 -138.2 -37.55 -136.45 M-38.4 -140.35 L-40.55 -139.7 -40.05 -137.55 -37.9 -138.2 -38.4 -140.35 M-35.8 -138.95 L-36.3 -141.1 -34.65 -141.6 M-35.15 -139.1 L-35.8 -138.95" fill="none" stroke="#000000" stroke-linecap="round" stroke-linejoin="round" stroke-opacity="0.14901961" stroke-width="0.30000000000000004"/>
      <path d="M52.05 -103.55 L53.2 -102.4 54.35 -101.1 Q54.55 -101.75 53.85 -105.2 L55.7 -101.75 57.1 -105.8 57.1 -102.0 60.4 -104.0 57.7 -100.6 61.4 -100.85 61.5 -100.75 Q58.15 -99.75 57.5 -99.25 L59.4 -98.85 61.0 -98.4 58.9 -98.0 56.85 -97.95 59.5 -96.1 59.6 -96.0 57.25 -96.35 57.1 -96.7 Q56.5 -97.95 55.35 -98.6 L55.1 -98.85 54.7 -98.9 Q53.55 -99.6 52.3 -99.5 L51.95 -99.5 50.65 -101.15 50.8 -101.15 53.6 -99.85 52.8 -101.5 Q52.05 -103.25 52.05 -103.55" fill="#1a891a" fill-rule="evenodd" stroke="none"/>
      <path d="M57.25 -94.2 Q57.35 -92.95 56.75 -91.7 L56.5 -91.3 56.25 -90.9 Q55.45 -89.7 54.35 -89.05 L53.3 -88.75 52.2 -88.5 Q50.9 -88.3 49.8 -88.9 49.65 -88.9 49.45 -89.05 L49.05 -89.3 Q48.05 -89.95 47.55 -91.15 L47.3 -92.2 Q47.15 -92.7 47.15 -93.35 47.05 -94.6 47.75 -95.95 L48.0 -96.35 48.25 -96.6 Q48.9 -97.75 50.05 -98.4 L51.05 -98.9 52.2 -99.1 Q53.55 -99.25 54.6 -98.65 54.7 -98.6 54.95 -98.5 55.0 -98.4 55.25 -98.35 56.25 -97.7 56.85 -96.45 L57.1 -95.35 57.25 -94.2 55.6 -93.7 56.1 -91.55 56.75 -91.7 56.1 -91.55 55.6 -93.7 57.25 -94.2 M47.55 -91.15 L49.2 -91.65 49.65 -89.4 49.05 -89.3 49.65 -89.4 49.2 -91.65 47.55 -91.15 M47.75 -95.95 L48.25 -96.1 48.75 -93.8 47.15 -93.35 48.75 -93.8 48.25 -96.1 47.75 -95.95 M50.05 -98.4 L50.4 -96.75 48.25 -96.1 48.25 -96.6 48.25 -96.1 50.4 -96.75 50.05 -98.4 M50.8 -94.55 L51.4 -92.3 49.2 -91.65 48.75 -93.8 50.8 -94.55 50.4 -96.75 52.55 -97.45 52.95 -95.2 50.8 -94.55 52.95 -95.2 55.2 -95.95 55.6 -93.7 53.55 -92.95 54.05 -90.8 56.1 -91.55 56.25 -90.9 56.1 -91.55 54.05 -90.8 53.55 -92.95 55.6 -93.7 55.2 -95.95 52.95 -95.2 52.55 -97.45 50.4 -96.75 50.8 -94.55 48.75 -93.8 49.2 -91.65 51.4 -92.3 50.8 -94.55 M49.8 -88.9 L49.65 -89.4 51.85 -90.15 52.2 -88.5 51.85 -90.15 49.65 -89.4 49.8 -88.9 M54.35 -89.05 L54.05 -90.8 51.85 -90.15 51.4 -92.3 53.55 -92.95 52.95 -95.2 53.55 -92.95 51.4 -92.3 51.85 -90.15 54.05 -90.8 54.35 -89.05 M56.85 -96.45 L55.2 -95.95 54.7 -98.1 55.25 -98.35 54.7 -98.1 55.2 -95.95 56.85 -96.45 M54.6 -98.65 L54.7 -98.1 52.55 -97.45 52.2 -99.1 52.55 -97.45 54.7 -98.1 54.6 -98.65" fill="#ffd455" fill-rule="evenodd" stroke="none"/>
      <path d="M57.25 -94.2 L55.6 -93.7 56.1 -91.55 56.75 -91.7 M52.2 -99.1 L52.55 -97.45 54.7 -98.1 54.6 -98.65 M55.25 -98.35 L54.7 -98.1 55.2 -95.95 56.85 -96.45 M52.95 -95.2 L52.55 -97.45 50.4 -96.75 50.8 -94.55 52.95 -95.2 55.2 -95.95 55.6 -93.7 53.55 -92.95 54.05 -90.8 56.1 -91.55 56.25 -90.9 M52.95 -95.2 L53.55 -92.95 51.4 -92.3 51.85 -90.15 54.05 -90.8 54.35 -89.05 M52.2 -88.5 L51.85 -90.15 49.65 -89.4 49.8 -88.9 M50.8 -94.55 L48.75 -93.8 49.2 -91.65 51.4 -92.3 50.8 -94.55 M48.25 -96.6 L48.25 -96.1 50.4 -96.75 50.05 -98.4 M47.15 -93.35 L48.75 -93.8 48.25 -96.1 47.75 -95.95 M49.05 -89.3 L49.65 -89.4 49.2 -91.65 47.55 -91.15" fill="none" stroke="#000000" stroke-linecap="round" stroke-linejoin="round" stroke-opacity="0.14901961" stroke-width="0.30000000000000004"/>
      <path d="M-58.35 -135.9 L-58.2 -135.9 -60.45 -131.0 -58.35 -132.25 -56.6 -133.3 -58.05 -131.1 -59.85 -129.25 -55.9 -129.9 -55.7 -129.9 -58.1 -128.2 -58.45 -128.35 -61.75 -128.5 -62.15 -128.45 -62.6 -128.2 Q-64.15 -127.7 -65.25 -126.5 -65.3 -126.25 -65.5 -126.25 L-68.25 -126.5 -68.05 -126.7 -64.4 -128.0 -66.55 -128.85 Q-68.7 -129.65 -69.05 -130.0 L-67.0 -129.9 -64.85 -129.75 Q-65.25 -130.5 -68.95 -133.05 L-64.15 -131.6 -66.55 -136.45 -63.15 -133.05 -62.0 -137.7 -61.45 -132.3 Q-61.5 -132.75 -58.35 -135.9" fill="#1a891a" fill-rule="evenodd" stroke="none"/>
      <path d="M-56.2 -126.25 L-57.1 -124.35 -59.5 -125.95 -58.55 -127.95 -59.5 -125.95 -57.1 -124.35 -56.2 -126.25 Q-54.95 -125.2 -54.4 -123.6 L-54.8 -122.85 -57.1 -124.35 -58.3 -121.8 -60.85 -123.3 -59.5 -125.95 -61.85 -127.45 -61.6 -128.2 -61.85 -127.45 -59.5 -125.95 -60.85 -123.3 -58.3 -121.8 -57.1 -124.35 -54.8 -122.85 -54.4 -123.6 -54.3 -123.05 -54.05 -122.45 -54.8 -122.85 -55.95 -120.4 -58.3 -121.8 -59.7 -119.3 -62.15 -120.8 -60.85 -123.3 -63.15 -124.95 -64.5 -122.45 -66.3 -123.6 -64.5 -122.45 -63.15 -124.95 -60.85 -123.3 -62.15 -120.8 -59.7 -119.3 -58.3 -121.8 -55.95 -120.4 -54.8 -122.85 -54.05 -122.45 Q-53.8 -120.7 -54.2 -119.15 L-55.95 -120.4 -57.3 -117.9 -59.7 -119.3 -61.0 -116.8 -63.35 -118.3 -62.15 -120.8 -64.5 -122.45 -62.15 -120.8 -63.35 -118.3 -61.0 -116.8 -59.7 -119.3 -57.3 -117.9 -55.95 -120.4 -54.2 -119.15 -54.8 -117.9 -55.55 -116.65 -57.3 -117.9 -58.6 -115.25 -61.0 -116.8 -62.0 -115.0 -61.0 -116.8 -58.6 -115.25 -57.3 -117.9 -55.55 -116.65 Q-56.6 -115.4 -58.05 -115.0 L-58.55 -114.85 -59.05 -114.65 Q-60.5 -114.35 -62.0 -115.0 L-63.15 -115.65 -64.4 -116.6 Q-65.55 -117.55 -66.15 -119.3 L-66.3 -119.95 -66.25 -120.4 Q-66.75 -122.05 -66.3 -123.6 L-65.8 -124.95 -65.0 -126.1 Q-63.9 -127.45 -62.5 -127.85 L-62.0 -128.1 -61.6 -128.2 -58.55 -127.95 Q-57.85 -127.75 -57.3 -127.2 L-56.2 -126.25 M-62.5 -127.85 L-61.85 -127.45 -63.15 -124.95 -65.0 -126.1 -63.15 -124.95 -61.85 -127.45 -62.5 -127.85 M-66.15 -119.3 L-65.8 -119.95 -63.35 -118.3 -64.4 -116.6 -63.35 -118.3 -65.8 -119.95 -66.15 -119.3 M-64.5 -122.45 L-65.8 -119.95 -66.25 -120.4 -65.8 -119.95 -64.5 -122.45 M-58.05 -115.0 L-58.6 -115.25 -59.05 -114.65 -58.6 -115.25 -58.05 -115.0" fill="#ffd455" fill-rule="evenodd" stroke="none"/>
      <path d="M-58.55 -127.95 L-59.5 -125.95 -57.1 -124.35 -56.2 -126.25 M-61.6 -128.2 L-61.85 -127.45 -59.5 -125.95 -60.85 -123.3 -58.3 -121.8 -57.1 -124.35 -54.8 -122.85 -54.4 -123.6 M-65.0 -126.1 L-63.15 -124.95 -61.85 -127.45 -62.5 -127.85 M-66.3 -123.6 L-64.5 -122.45 -63.15 -124.95 -60.85 -123.3 -62.15 -120.8 -59.7 -119.3 -58.3 -121.8 -55.95 -120.4 -54.8 -122.85 -54.05 -122.45 M-64.5 -122.45 L-62.15 -120.8 -63.35 -118.3 -61.0 -116.8 -59.7 -119.3 -57.3 -117.9 -55.95 -120.4 -54.2 -119.15 M-66.25 -120.4 L-65.8 -119.95 -64.5 -122.45 M-64.4 -116.6 L-63.35 -118.3 -65.8 -119.95 -66.15 -119.3 M-62.0 -115.0 L-61.0 -116.8 -58.6 -115.25 -57.3 -117.9 -55.55 -116.65 M-59.05 -114.65 L-58.6 -115.25 -58.05 -115.0" fill="none" stroke="#000000" stroke-linecap="round" stroke-linejoin="round" stroke-opacity="0.14901961" stroke-width="0.30000000000000004"/>
      <path d="M-34.5 -204.35 L-34.4 -204.45 -31.1 -203.25 -32.75 -206.9 -30.25 -204.45 -29.45 -207.75 -29.0 -203.75 Q-29.0 -204.2 -26.8 -206.5 L-26.7 -206.5 -28.2 -202.85 -26.85 -203.85 -25.45 -204.7 Q-25.55 -204.25 -26.6 -202.95 L-27.8 -201.6 -24.95 -202.2 -24.9 -202.1 Q-25.35 -201.6 -26.55 -200.85 L-26.85 -200.95 -29.2 -201.1 -29.5 -201.05 -29.95 -200.95 Q-31.0 -200.55 -31.75 -199.65 L-31.9 -199.45 -33.9 -199.7 -33.85 -199.8 -31.2 -200.7 Q-31.2 -200.8 -32.75 -201.3 -34.35 -201.85 -34.55 -202.2 L-33.1 -202.2 -31.4 -202.05 -31.4 -202.1 Q-31.75 -202.6 -34.5 -204.35" fill="#1a891a" fill-rule="evenodd" stroke="none"/>
      <path d="M-31.5 -199.4 Q-30.85 -200.3 -29.75 -200.6 L-29.45 -200.7 -29.1 -200.85 -26.85 -200.6 -25.95 -200.1 -25.2 -199.55 Q-24.3 -198.65 -23.9 -197.55 L-23.8 -197.15 -23.65 -196.7 Q-23.45 -195.4 -23.8 -194.3 L-24.15 -193.4 -24.7 -192.5 Q-25.45 -191.6 -26.55 -191.25 L-26.85 -191.1 -27.3 -191.0 -29.45 -191.25 -30.35 -191.75 -31.1 -192.4 Q-32.0 -193.15 -32.4 -194.5 L-32.5 -194.8 -32.5 -195.15 Q-32.85 -196.3 -32.5 -197.55 L-32.15 -198.55 -31.5 -199.4 -30.25 -198.55 -29.35 -200.35 -29.75 -200.6 -29.35 -200.35 -30.25 -198.55 -31.5 -199.4 M-31.25 -196.7 L-30.25 -198.55 -28.5 -197.4 -27.6 -199.3 -29.35 -200.35 -27.6 -199.3 -28.5 -197.4 -30.25 -198.55 -31.25 -196.7 -29.5 -195.55 -27.8 -194.5 -28.7 -192.6 -30.45 -193.75 -29.5 -195.55 -30.45 -193.75 -28.7 -192.6 -27.8 -194.5 -29.5 -195.55 -31.25 -196.7 -32.15 -194.8 -30.45 -193.75 -31.1 -192.4 -30.45 -193.75 -32.15 -194.8 -31.25 -196.7 -32.5 -197.55 -31.25 -196.7 M-32.15 -194.8 L-32.5 -195.15 -32.15 -194.8 -32.4 -194.5 -32.15 -194.8 M-29.45 -191.25 L-28.7 -192.6 -26.95 -191.5 -27.3 -191.0 -26.95 -191.5 -28.7 -192.6 -29.45 -191.25 M-26.55 -191.25 L-26.95 -191.5 -26.05 -193.4 -24.7 -192.5 -26.05 -193.4 -26.95 -191.5 -26.55 -191.25 M-26.85 -196.3 L-28.5 -197.4 -29.5 -195.55 -28.5 -197.4 -26.85 -196.3 -25.85 -198.15 -24.15 -196.95 -25.05 -195.15 -26.85 -196.3 -25.05 -195.15 -24.15 -196.95 -23.9 -197.55 -24.15 -196.95 -25.85 -198.15 -26.85 -196.3 -27.8 -194.5 -26.05 -193.4 -25.05 -195.15 -26.05 -193.4 -27.8 -194.5 -26.85 -196.3 M-23.8 -194.3 L-25.05 -195.15 -23.8 -194.3 M-23.65 -196.7 L-24.15 -196.95 -23.65 -196.7 M-25.2 -199.55 L-25.85 -198.15 -27.6 -199.3 -26.85 -200.6 -27.6 -199.3 -25.85 -198.15 -25.2 -199.55 M-29.1 -200.85 L-29.35 -200.35 -29.1 -200.85" fill="#ffd455" fill-rule="evenodd" stroke="none"/>
      <path d="M-31.5 -199.4 L-30.25 -198.55 -29.35 -200.35 -29.75 -200.6 M-29.35 -200.35 L-29.1 -200.85 M-26.85 -200.6 L-27.6 -199.3 -25.85 -198.15 -25.2 -199.55 M-30.25 -198.55 L-28.5 -197.4 -27.6 -199.3 -29.35 -200.35 M-24.15 -196.95 L-25.85 -198.15 -26.85 -196.3 -25.05 -195.15 -24.15 -196.95 -23.9 -197.55 M-24.15 -196.95 L-23.65 -196.7 M-25.05 -195.15 L-23.8 -194.3 M-29.5 -195.55 L-30.45 -193.75 -28.7 -192.6 -27.8 -194.5 -29.5 -195.55 -31.25 -196.7 -32.15 -194.8 -30.45 -193.75 -31.1 -192.4 M-26.85 -196.3 L-27.8 -194.5 -26.05 -193.4 -25.05 -195.15 M-29.5 -195.55 L-28.5 -197.4 -26.85 -196.3 M-24.7 -192.5 L-26.05 -193.4 -26.95 -191.5 -26.55 -191.25 M-27.3 -191.0 L-26.95 -191.5 -28.7 -192.6 -29.45 -191.25 M-31.25 -196.7 L-32.5 -197.55 M-32.15 -194.8 L-32.4 -194.5 M-32.5 -195.15 L-32.15 -194.8 M-30.25 -198.55 L-31.25 -196.7" fill="none" stroke="#000000" stroke-linecap="round" stroke-linejoin="round" stroke-opacity="0.14901961" stroke-width="0.30000000000000004"/>
      <path d="M-37.0 -100.65 L-36.8 -100.65 -34.0 -99.35 -34.8 -101.0 -35.55 -103.05 -34.4 -101.9 -33.25 -100.6 Q-33.1 -101.25 -33.75 -104.7 L-31.9 -101.25 -30.5 -105.3 -30.5 -101.5 -27.2 -103.5 -29.95 -100.1 -26.2 -100.35 -26.1 -100.25 Q-29.45 -99.25 -30.1 -98.75 L-28.2 -98.35 -26.6 -97.95 -28.7 -97.5 -30.75 -97.45 -28.1 -95.6 -28.05 -95.5 -30.35 -95.85 -30.5 -96.2 Q-31.1 -97.45 -32.25 -98.1 L-32.5 -98.35 -32.9 -98.4 Q-34.1 -99.1 -35.3 -99.0 L-35.65 -99.0 -37.0 -100.65" fill="#1a891a" fill-rule="evenodd" stroke="none"/>
      <path d="M-30.75 -95.95 L-32.4 -95.45 -32.9 -97.6 -32.35 -97.85 -32.9 -97.6 -32.4 -95.45 -30.75 -95.95 Q-30.5 -95.5 -30.5 -94.85 -30.35 -94.35 -30.35 -93.7 -30.25 -92.45 -30.85 -91.2 L-31.1 -90.8 -31.35 -90.4 Q-32.15 -89.2 -33.25 -88.55 L-34.35 -88.25 -35.4 -88.0 Q-36.75 -87.8 -37.8 -88.4 L-38.15 -88.55 -38.55 -88.8 Q-39.55 -89.45 -40.05 -90.65 L-40.3 -91.7 -40.45 -92.85 Q-40.55 -94.1 -39.9 -95.45 -39.7 -95.6 -39.65 -95.85 L-39.4 -96.1 -37.55 -97.95 -36.55 -98.4 -35.4 -98.6 Q-34.1 -98.75 -33.0 -98.15 L-32.65 -98.0 Q-32.6 -97.95 -32.35 -97.85 -31.35 -97.2 -30.75 -95.95 M-30.35 -93.7 L-32.0 -93.2 -32.4 -95.45 -34.65 -94.7 -35.05 -96.95 -32.9 -97.6 -33.0 -98.15 -32.9 -97.6 -35.05 -96.95 -34.65 -94.7 -32.4 -95.45 -32.0 -93.2 -30.35 -93.7 M-33.25 -88.55 L-33.6 -90.3 -31.5 -91.05 -32.0 -93.2 -34.1 -92.45 -34.65 -94.7 -36.8 -94.05 -37.25 -96.25 -35.05 -96.95 -35.4 -98.6 -35.05 -96.95 -37.25 -96.25 -36.8 -94.05 -34.65 -94.7 -34.1 -92.45 -32.0 -93.2 -31.5 -91.05 -30.85 -91.2 -31.5 -91.05 -31.35 -90.4 -31.5 -91.05 -33.6 -90.3 -33.25 -88.55 M-35.75 -89.65 L-36.25 -91.8 -34.1 -92.45 -33.6 -90.3 -35.75 -89.65 -35.4 -88.0 -35.75 -89.65 -37.95 -88.9 -37.8 -88.4 -37.95 -88.9 -35.75 -89.65 -33.6 -90.3 -34.1 -92.45 -36.25 -91.8 -35.75 -89.65 M-40.05 -90.65 L-38.4 -91.15 -37.95 -88.9 -38.55 -88.8 -37.95 -88.9 -38.4 -91.15 -40.05 -90.65 M-38.9 -93.3 L-36.8 -94.05 -36.25 -91.8 -38.4 -91.15 -38.9 -93.3 -40.45 -92.85 -38.9 -93.3 -39.4 -95.6 -39.9 -95.45 -39.4 -95.6 -38.9 -93.3 -38.4 -91.15 -36.25 -91.8 -36.8 -94.05 -38.9 -93.3 M-37.55 -97.95 L-37.25 -96.25 -39.4 -95.6 -39.4 -96.1 -39.4 -95.6 -37.25 -96.25 -37.55 -97.95" fill="#ffd455" fill-rule="evenodd" stroke="none"/>
      <path d="M-32.35 -97.85 L-32.9 -97.6 -32.4 -95.45 -30.75 -95.95 M-33.0 -98.15 L-32.9 -97.6 -35.05 -96.95 -34.65 -94.7 -32.4 -95.45 -32.0 -93.2 -30.35 -93.7 M-35.4 -98.6 L-35.05 -96.95 -37.25 -96.25 -36.8 -94.05 -34.65 -94.7 -34.1 -92.45 -32.0 -93.2 -31.5 -91.05 -30.85 -91.2 M-39.4 -96.1 L-39.4 -95.6 -37.25 -96.25 -37.55 -97.95 M-40.45 -92.85 L-38.9 -93.3 -39.4 -95.6 -39.9 -95.45 M-38.9 -93.3 L-38.4 -91.15 -36.25 -91.8 -36.8 -94.05 -38.9 -93.3 M-38.55 -88.8 L-37.95 -88.9 -38.4 -91.15 -40.05 -90.65 M-35.4 -88.0 L-35.75 -89.65 -37.95 -88.9 -37.8 -88.4 M-35.75 -89.65 L-33.6 -90.3 -34.1 -92.45 -36.25 -91.8 -35.75 -89.65 M-31.5 -91.05 L-31.35 -90.4 M-31.5 -91.05 L-33.6 -90.3 -33.25 -88.55" fill="none" stroke="#000000" stroke-linecap="round" stroke-linejoin="round" stroke-opacity="0.14901961" stroke-width="0.30000000000000004"/>
      <path d="M-62.65 -107.8 Q-46.7 -94.45 -18.15 -91.15" fill="none" stroke="#000000" stroke-linecap="round" stroke-linejoin="round" stroke-opacity="0.5019608" stroke-width="1.0"/>
      <path d="M-40.85 -118.15 L-40.7 -118.3 -39.45 -119.55 -38.8 -119.9 -38.05 -120.05 Q-37.15 -120.15 -36.4 -119.7 L-36.25 -119.65 -36.0 -119.55 Q-35.3 -119.05 -34.9 -118.25 -34.75 -118.0 -34.75 -117.5 L-34.65 -116.75 Q-34.55 -115.9 -35.0 -115.1 L-35.15 -114.75 -35.3 -114.5 Q-35.9 -113.65 -36.55 -113.25 L-37.3 -113.0 -38.05 -112.85 Q-38.95 -112.75 -39.65 -113.2 L-39.9 -113.25 -40.15 -113.45 Q-40.85 -113.85 -41.2 -114.65 L-41.35 -115.4 -41.45 -116.15 Q-41.55 -117.0 -41.05 -117.9 L-40.85 -118.15 M-39.45 -119.55 L-39.3 -118.5 -40.7 -118.0 -40.7 -118.3 -40.7 -118.0 -39.3 -118.5 -39.45 -119.55 M-41.05 -117.9 L-40.7 -118.0 -40.4 -116.4 -41.45 -116.15 -40.4 -116.4 -40.7 -118.0 -41.05 -117.9 M-35.75 -116.4 L-35.4 -114.9 -35.0 -115.1 -35.4 -114.9 -35.75 -116.4 -37.15 -115.9 -37.55 -117.4 -36.05 -117.9 -35.75 -116.4 -36.05 -117.9 -37.55 -117.4 -37.15 -115.9 -35.75 -116.4 -34.65 -116.75 -35.75 -116.4 M-37.15 -115.9 L-38.65 -115.4 -38.3 -114.0 -36.8 -114.4 -37.15 -115.9 -36.8 -114.4 -38.3 -114.0 -38.65 -115.4 -37.15 -115.9 M-36.55 -113.25 L-36.8 -114.4 -35.4 -114.9 -35.3 -114.5 -35.4 -114.9 -36.8 -114.4 -36.55 -113.25 M-41.2 -114.65 L-40.05 -115.0 -39.8 -113.5 -40.15 -113.45 -39.8 -113.5 -40.05 -115.0 -41.2 -114.65 M-39.65 -113.2 L-39.8 -113.5 -38.3 -114.0 -38.05 -112.85 -38.3 -114.0 -39.8 -113.5 -39.65 -113.2 M-40.4 -116.4 L-38.95 -117.0 -38.65 -115.4 -40.05 -115.0 -40.4 -116.4 -40.05 -115.0 -38.65 -115.4 -38.95 -117.0 -40.4 -116.4 M-39.3 -118.5 L-37.8 -118.9 -37.55 -117.4 -38.95 -117.0 -39.3 -118.5 -38.95 -117.0 -37.55 -117.4 -37.8 -118.9 -39.3 -118.5 M-36.4 -119.7 L-36.4 -119.4 -37.8 -118.9 -38.05 -120.05 -37.8 -118.9 -36.4 -119.4 -36.4 -119.7 M-34.9 -118.25 L-36.05 -117.9 -36.4 -119.4 -36.0 -119.55 -36.4 -119.4 -36.05 -117.9 -34.9 -118.25" fill="#ffd455" fill-rule="evenodd" stroke="none"/>
      <path d="M-31.85 -121.2 L-31.75 -121.15 -34.5 -120.15 -33.15 -119.9 -32.1 -119.55 -33.5 -119.3 -34.9 -119.25 -33.15 -118.0 -34.65 -118.15 -34.75 -118.4 Q-35.15 -119.25 -35.9 -119.7 L-36.05 -119.9 -36.4 -119.9 Q-37.15 -120.4 -37.95 -120.3 L-38.2 -120.3 -39.15 -121.4 -38.95 -121.4 -37.05 -120.55 -37.65 -121.65 -38.15 -123.05 -37.4 -122.3 -36.55 -121.4 -36.9 -124.1 Q-35.75 -122.05 -35.75 -121.8 L-34.75 -124.55 -34.75 -121.95 -32.5 -123.3 -34.35 -121.05 -31.85 -121.2" fill="#1a891a" fill-rule="evenodd" stroke="none"/>
      <path d="M-41.45 -116.15 L-40.4 -116.4 -40.7 -118.0 -41.05 -117.9 M-40.7 -118.3 L-40.7 -118.0 -39.3 -118.5 -39.45 -119.55 M-36.0 -119.55 L-36.4 -119.4 -36.05 -117.9 -34.9 -118.25 M-38.05 -120.05 L-37.8 -118.9 -36.4 -119.4 -36.4 -119.7 M-39.3 -118.5 L-38.95 -117.0 -37.55 -117.4 -37.8 -118.9 -39.3 -118.5 M-35.75 -116.4 L-36.05 -117.9 -37.55 -117.4 -37.15 -115.9 -35.75 -116.4 -34.65 -116.75 M-40.4 -116.4 L-40.05 -115.0 -38.65 -115.4 -38.95 -117.0 -40.4 -116.4 M-38.05 -112.85 L-38.3 -114.0 -39.8 -113.5 -39.65 -113.2 M-40.15 -113.45 L-39.8 -113.5 -40.05 -115.0 -41.2 -114.65 M-35.3 -114.5 L-35.4 -114.9 -36.8 -114.4 -36.55 -113.25 M-37.15 -115.9 L-36.8 -114.4 -38.3 -114.0 -38.65 -115.4 -37.15 -115.9 M-35.0 -115.1 L-35.4 -114.9 -35.75 -116.4" fill="none" stroke="#000000" stroke-linecap="round" stroke-linejoin="round" stroke-opacity="0.14901961" stroke-width="0.30000000000000004"/>
      <path d="M40.6 -88.95 L40.7 -88.95 Q40.25 -87.15 40.35 -86.75 L41.0 -87.5 41.7 -88.05 41.25 -87.05 40.7 -86.05 42.35 -86.8 41.6 -85.8 41.35 -85.8 40.1 -85.6 39.85 -85.5 39.7 -85.35 38.8 -84.35 38.7 -84.15 37.55 -84.0 37.6 -84.1 39.05 -85.1 37.95 -85.1 36.85 -85.35 37.7 -85.5 38.6 -85.75 36.55 -86.65 38.7 -86.5 37.1 -88.25 38.85 -87.25 38.85 -89.4 39.7 -87.15 40.6 -88.95" fill="#1a891a" fill-rule="evenodd" stroke="none"/>
      <path d="M40.1 -85.4 L41.45 -85.65 42.0 -85.5 42.6 -85.25 43.6 -84.35 43.75 -84.1 43.9 -83.9 44.15 -82.5 44.1 -81.95 43.9 -81.35 Q43.6 -80.7 43.1 -80.35 L42.85 -80.2 Q42.85 -80.1 42.65 -80.1 L41.45 -79.95 40.85 -80.0 40.25 -80.25 39.3 -81.25 39.1 -81.5 39.05 -81.7 Q38.7 -82.25 38.7 -83.0 L38.8 -83.6 38.95 -84.25 39.75 -85.15 39.95 -85.35 40.1 -85.35 40.1 -85.4 M39.3 -81.5 L39.05 -81.7 39.3 -81.5 39.55 -82.75 40.7 -82.35 41.0 -83.5 42.2 -83.15 41.95 -82.0 41.7 -80.75 40.5 -81.1 40.7 -82.35 41.95 -82.0 40.7 -82.35 40.5 -81.1 41.7 -80.75 41.95 -82.0 42.2 -83.15 41.0 -83.5 40.7 -82.35 39.55 -82.75 39.3 -81.5 40.5 -81.1 40.25 -80.25 40.5 -81.1 39.3 -81.5 39.3 -81.25 39.3 -81.5 M39.75 -85.15 L40.0 -85.1 39.75 -83.9 38.95 -84.25 39.75 -83.9 40.0 -85.1 39.75 -85.15 M41.45 -79.95 L41.7 -80.75 42.75 -80.35 42.65 -80.1 42.75 -80.35 41.7 -80.75 41.45 -79.95 M43.1 -80.35 L42.75 -80.35 43.0 -81.7 43.9 -81.35 43.0 -81.7 42.75 -80.35 43.1 -80.35 M38.7 -83.0 L39.55 -82.75 39.75 -83.9 41.0 -83.5 41.25 -84.75 40.0 -85.1 40.1 -85.35 40.0 -85.1 41.25 -84.75 41.45 -85.65 41.25 -84.75 42.35 -84.35 42.6 -85.25 42.35 -84.35 41.25 -84.75 41.0 -83.5 39.75 -83.9 39.55 -82.75 38.7 -83.0 M44.15 -82.5 L43.25 -82.85 43.5 -84.0 42.35 -84.35 42.2 -83.15 43.25 -82.85 43.0 -81.7 41.95 -82.0 43.0 -81.7 43.25 -82.85 42.2 -83.15 42.35 -84.35 43.5 -84.0 43.25 -82.85 44.15 -82.5 M43.9 -83.9 L43.5 -84.0 43.6 -84.35 43.5 -84.0 43.9 -83.9" fill="#ffd455" fill-rule="evenodd" stroke="none"/>
      <path d="M40.1 -85.35 L40.1 -85.4 M43.6 -84.35 L43.5 -84.0 43.9 -83.9 M40.1 -85.35 L40.0 -85.1 41.25 -84.75 41.45 -85.65 M41.25 -84.75 L42.35 -84.35 42.6 -85.25 M41.95 -82.0 L40.7 -82.35 40.5 -81.1 41.7 -80.75 41.95 -82.0 42.2 -83.15 41.0 -83.5 40.7 -82.35 39.55 -82.75 39.3 -81.5 40.5 -81.1 40.25 -80.25 M41.95 -82.0 L43.0 -81.7 43.25 -82.85 42.2 -83.15 42.35 -84.35 43.5 -84.0 43.25 -82.85 44.15 -82.5 M41.25 -84.75 L41.0 -83.5 39.75 -83.9 39.55 -82.75 38.7 -83.0 M43.9 -81.35 L43.0 -81.7 42.75 -80.35 43.1 -80.35 M42.65 -80.1 L42.75 -80.35 41.7 -80.75 41.45 -79.95 M38.95 -84.25 L39.75 -83.9 40.0 -85.1 39.75 -85.15 M39.3 -81.5 L39.3 -81.25 M39.05 -81.7 L39.3 -81.5" fill="none" stroke="#000000" stroke-linecap="round" stroke-linejoin="round" stroke-opacity="0.14901961" stroke-width="0.30000000000000004"/>
      <path d="M58.1 -151.8 Q58.75 -151.4 59.0 -150.7 L59.1 -150.15 59.25 -149.55 Q59.25 -148.9 58.9 -148.25 L58.85 -148.0 58.75 -147.75 57.6 -146.85 57.1 -146.6 56.5 -146.4 55.25 -146.65 54.95 -146.75 54.8 -146.9 Q54.3 -147.25 54.05 -147.9 L53.8 -148.4 53.8 -149.05 Q53.7 -149.75 54.1 -150.5 L54.3 -150.65 54.35 -150.65 54.3 -150.8 Q54.6 -151.45 55.25 -151.8 L55.85 -152.05 56.5 -152.2 57.75 -151.95 58.0 -151.9 58.1 -151.7 58.1 -151.8 M54.1 -150.5 L54.35 -150.55 54.55 -149.3 53.8 -149.05 54.55 -149.3 54.35 -150.55 54.1 -150.5 M55.25 -151.8 L55.5 -150.95 54.35 -150.55 54.35 -150.65 54.35 -150.55 55.5 -150.95 55.25 -151.8 M54.05 -147.9 L54.85 -148.15 55.1 -146.9 54.8 -146.9 55.1 -146.9 54.85 -148.15 54.05 -147.9 M55.25 -146.65 L55.1 -146.9 56.25 -147.4 56.5 -146.4 56.25 -147.4 55.1 -146.9 55.25 -146.65 M57.6 -146.85 L57.5 -147.75 56.25 -147.4 56.1 -148.5 57.2 -148.8 56.85 -150.05 58.1 -150.5 58.25 -149.3 57.2 -148.8 58.25 -149.3 58.1 -150.5 56.85 -150.05 57.2 -148.8 57.5 -147.75 58.6 -148.15 58.25 -149.3 59.25 -149.55 58.25 -149.3 58.6 -148.15 57.5 -147.75 57.2 -148.8 56.1 -148.5 56.25 -147.4 57.5 -147.75 57.6 -146.85 M58.75 -147.75 L58.6 -148.15 58.9 -148.25 58.6 -148.15 58.75 -147.75 M54.55 -149.3 L55.7 -149.75 56.1 -148.5 54.85 -148.15 54.55 -149.3 54.85 -148.15 56.1 -148.5 55.7 -149.75 54.55 -149.3 M56.7 -151.4 L56.85 -150.05 55.7 -149.75 55.5 -150.95 56.7 -151.4 56.5 -152.2 56.7 -151.4 57.75 -151.7 57.75 -151.95 57.75 -151.7 56.7 -151.4 55.5 -150.95 55.7 -149.75 56.85 -150.05 56.7 -151.4 M59.0 -150.7 L58.1 -150.5 57.75 -151.7 58.1 -151.7 57.75 -151.7 58.1 -150.5 59.0 -150.7" fill="#ffd455" fill-rule="evenodd" stroke="none"/>
      <path d="M59.35 -152.2 L60.35 -152.05 61.15 -151.8 60.15 -151.65 58.9 -151.65 60.4 -150.55 59.25 -150.65 59.1 -150.9 Q58.85 -151.65 58.25 -151.9 L58.0 -152.05 57.85 -152.05 56.5 -152.4 56.25 -152.4 55.6 -153.3 55.75 -153.3 57.25 -152.55 56.75 -153.55 56.45 -154.55 56.95 -153.85 57.7 -153.3 57.35 -155.45 58.35 -153.55 59.1 -155.8 59.0 -153.8 60.9 -154.85 59.4 -152.95 61.5 -153.15 61.5 -153.05 59.35 -152.2" fill="#1a891a" fill-rule="evenodd" stroke="none"/>
      <path d="M54.35 -150.65 L54.3 -150.8 M58.1 -151.7 L58.1 -151.8 M54.35 -150.65 L54.35 -150.55 55.5 -150.95 55.25 -151.8 M53.8 -149.05 L54.55 -149.3 54.35 -150.55 54.1 -150.5 M56.5 -152.2 L56.7 -151.4 57.75 -151.7 57.75 -151.95 M58.1 -151.7 L57.75 -151.7 58.1 -150.5 59.0 -150.7 M56.7 -151.4 L55.5 -150.95 55.7 -149.75 56.85 -150.05 56.7 -151.4 M57.2 -148.8 L58.25 -149.3 58.1 -150.5 56.85 -150.05 57.2 -148.8 57.5 -147.75 58.6 -148.15 58.25 -149.3 59.25 -149.55 M54.55 -149.3 L54.85 -148.15 56.1 -148.5 55.7 -149.75 54.55 -149.3 M58.9 -148.25 L58.6 -148.15 58.75 -147.75 M57.2 -148.8 L56.1 -148.5 56.25 -147.4 57.5 -147.75 57.6 -146.85 M56.5 -146.4 L56.25 -147.4 55.1 -146.9 55.25 -146.65 M54.8 -146.9 L55.1 -146.9 54.85 -148.15 54.05 -147.9" fill="none" stroke="#000000" stroke-linecap="round" stroke-linejoin="round" stroke-opacity="0.14901961" stroke-width="0.30000000000000004"/>
      <path d="M61.4 -154.7 Q33.0 -155.8 16.3 -150.4 -9.95 -153.7 -43.1 -154.45 -50.4 -158.25 -60.7 -161.85 L-55.95 -171.55 Q-60.1 -172.35 -63.1 -173.5 -72.95 -177.5 -70.7 -185.8 -70.3 -189.45 -63.1 -195.15 L-55.15 -200.8 Q-34.65 -213.9 -2.65 -212.8 23.1 -206.4 40.6 -185.6 54.85 -169.8 61.4 -154.7" fill="#000000" fill-opacity="0.3019608" fill-rule="evenodd" stroke="none"/>
      <path d="M-3.35 -247.3 L2.05 -249.55 0.3 -233.3 -1.95 -233.3 -4.25 -233.35 -6.7 -233.35 -8.65 -233.45 -10.65 -244.3 -3.35 -247.3 -3.35 -241.8 -3.35 -247.3" fill="#ad6f31" fill-rule="evenodd" stroke="none"/>
      <path d="M86.3 -171.05 L63.2 -143.35 61.95 -146.85 79.45 -171.2 82.85 -171.35 86.3 -171.05 M-89.3 -170.85 Q-76.7 -158.0 -61.05 -144.35 L-62.8 -142.5 -91.45 -168.15 -89.3 -170.85" fill="#c6ab90" fill-rule="evenodd" stroke="none"/>
      <path d="M89.95 -175.5 L86.3 -171.05 82.85 -171.35 79.45 -171.2 82.85 -175.85 89.95 -175.5 M-98.95 -174.75 L-93.7 -175.45 -89.3 -170.85 -91.45 -168.15 -98.95 -174.75" fill="#9e8166" fill-rule="evenodd" stroke="none"/>
      <path d="M-8.65 -233.45 L-6.7 -233.35 -42.25 -166.4 Q-60.45 -179.0 -93.7 -175.45 L-98.95 -174.75 -106.2 -173.6 -8.65 -233.45" fill="url(#gradient1)" fill-rule="evenodd" stroke="none"/>
      <path d="M-6.7 -233.35 L-4.25 -233.35 15.55 -166.65 Q-9.4 -181.25 -42.25 -166.4 L-6.7 -233.35" fill="url(#gradient2)" fill-rule="evenodd" stroke="none"/>
      <path d="M-4.25 -233.35 L-1.95 -233.3 55.55 -169.7 Q31.45 -177.75 15.55 -166.65 L-4.25 -233.35" fill="url(#gradient3)" fill-rule="evenodd" stroke="none"/>
      <path d="M-1.95 -233.3 L0.3 -233.3 102.9 -173.75 89.95 -175.5 82.85 -175.85 Q65.5 -176.1 55.55 -169.7 L-1.95 -233.3" fill="url(#gradient4)" fill-rule="evenodd" stroke="none"/>
      <path d="M0.3 -233.3 L2.05 -249.55 -3.35 -247.3 -3.35 -241.8 M-1.95 -233.3 L0.3 -233.3 102.9 -173.75 89.95 -175.5 86.3 -171.05 63.2 -143.35 64.0 -141.1 M-4.25 -233.35 L-1.95 -233.3 M55.55 -169.7 Q65.5 -176.1 82.85 -175.85 L89.95 -175.5 M-6.7 -233.35 L-4.25 -233.35 M15.55 -166.65 Q31.45 -177.75 55.55 -169.7 M-8.65 -233.45 L-6.7 -233.35 M-42.25 -166.4 Q-9.4 -181.25 15.55 -166.65 M-3.35 -247.3 L-10.65 -244.3 -8.65 -233.45 -106.2 -173.6 -98.95 -174.75 -93.7 -175.45 Q-60.45 -179.0 -42.25 -166.4 M-61.05 -144.35 L-59.45 -146.1 M-93.7 -175.45 L-89.3 -170.85 Q-76.7 -158.0 -61.05 -144.35 L-62.8 -142.5 -64.05 -141.2 M-91.45 -168.15 L-62.8 -142.5 M-91.45 -168.15 L-98.95 -174.75 M82.85 -175.85 L79.45 -171.2 61.95 -146.85 63.2 -143.35 M61.95 -146.85 L60.9 -149.65" fill="none" stroke="#000000" stroke-linecap="round" stroke-linejoin="round" stroke-opacity="0.4" stroke-width="0.7000000000000001"/>
    </g>
    <linearGradient gradientTransform="matrix(0.0028, -0.0424, 0.0797, 0.0053, 7.6, -181.55)" gradientUnits="userSpaceOnUse" id="gradient0" spreadMethod="pad" x1="-819.2" x2="819.2">
      <stop offset="0.0" stop-color="#bac978"/>
      <stop offset="1.0" stop-color="#dde8b0"/>
    </linearGradient>
    <linearGradient gradientTransform="matrix(0.0094, -0.0218, 0.0375, 0.0162, -56.5, -199.95)" gradientUnits="userSpaceOnUse" id="gradient1" spreadMethod="pad" x1="-819.2" x2="819.2">
      <stop offset="0.0" stop-color="#59b30e"/>
      <stop offset="0.9921568627450981" stop-color="#6dd11b"/>
    </linearGradient>
    <linearGradient gradientTransform="matrix(0.006, -0.0347, 0.0403, 0.0069, -13.4, -199.9)" gradientUnits="userSpaceOnUse" id="gradient2" spreadMethod="pad" x1="-819.2" x2="819.2">
      <stop offset="0.0" stop-color="#ff3333"/>
      <stop offset="0.9921568627450981" stop-color="#ff7070"/>
    </linearGradient>
    <linearGradient gradientTransform="matrix(0.007, 0.0358, -0.0399, 0.0078, 25.65, -200.05)" gradientUnits="userSpaceOnUse" id="gradient3" spreadMethod="pad" x1="-819.2" x2="819.2">
      <stop offset="0.0" stop-color="#ffd551"/>
      <stop offset="0.9921568627450981" stop-color="#ffcd2c"/>
    </linearGradient>
    <linearGradient gradientTransform="matrix(-0.0047, -0.0341, 0.0384, -0.0053, 50.45, -201.55)" gradientUnits="userSpaceOnUse" id="gradient4" spreadMethod="pad" x1="-819.2" x2="819.2">
      <stop offset="0.0" stop-color="#3369ff"/>
      <stop offset="0.9921568627450981" stop-color="#8eacff"/>
    </linearGradient>
  </defs>
</svg>
