<?xml version="1.0" encoding="UTF-8" standalone="no"?>
<svg xmlns:xlink="http://www.w3.org/1999/xlink" height="531.5px" width="460.6px" xmlns="http://www.w3.org/2000/svg">
  <g transform="matrix(1.0, 0.0, 0.0, 1.0, 193.65, 334.05)">
    <use height="62.05" transform="matrix(1.6424, 0.0, 0.0, 1.6424, -66.3215, -186.6606)" width="78.2" xlink:href="#shape0"/>
    <use height="20.8" transform="matrix(-0.5461, 2.0384, -1.5224, -0.1283, -5.0, -173.6)" width="9.9" xlink:href="#sprite0"/>
    <use height="13.4" transform="matrix(1.6424, 0.0, 0.0, 1.6424, 22.863, -174.5065)" width="16.35" xlink:href="#shape2"/>
    <use height="20.8" transform="matrix(-0.8744, 1.738, -1.1916, -0.4926, 51.95, -167.75)" width="9.9" xlink:href="#sprite0"/>
    <use height="44.3" transform="matrix(1.6424, 0.0, 0.0, 1.6424, -67.0606, -132.2137)" width="78.55" xlink:href="#shape3"/>
  </g>
  <defs>
    <g id="shape0" transform="matrix(1.0, 0.0, 0.0, 1.0, -0.2, 0.25)">
      <path d="M1.85 33.0 Q38.8 15.25 75.4 25.6 L75.4 51.8 Q42.65 71.55 1.85 51.8 L1.85 33.0 M14.25 53.85 Q7.3 44.2 9.05 32.95 7.3 44.2 14.25 53.85 M14.65 51.05 Q11.2 42.75 11.75 33.25 11.2 42.75 14.65 51.05" fill="#5e0808" fill-rule="evenodd" stroke="none"/>
      <path d="M1.85 33.0 Q38.8 15.25 75.4 25.6 L75.4 51.8 Q42.65 71.55 1.85 51.8 L1.85 33.0 M11.75 33.25 Q11.2 42.75 14.65 51.05 M9.05 32.95 Q7.3 44.2 14.25 53.85" fill="none" stroke="#000000" stroke-linecap="round" stroke-linejoin="round" stroke-opacity="0.2" stroke-width="0.30000000000000004"/>
      <path d="M76.65 31.95 L77.6 35.85 Q75.55 38.55 71.7 38.45 70.85 32.35 71.7 27.15 74.6 24.75 77.3 24.75 L76.65 31.95" fill="#dde8a7" fill-rule="evenodd" stroke="none"/>
      <path d="M76.65 31.95 L77.6 35.85 Q75.55 38.55 71.7 38.45 70.85 32.35 71.7 27.15 74.6 24.75 77.3 24.75 L76.65 31.95 Z" fill="none" stroke="#000000" stroke-linecap="round" stroke-linejoin="round" stroke-opacity="0.4" stroke-width="0.30000000000000004"/>
      <path d="M74.35 37.65 Q74.2 45.35 70.25 48.0 68.35 50.7 65.0 52.45 42.85 60.95 20.8 51.9 15.65 49.7 15.2 37.85 14.2 29.85 18.3 29.2 L69.25 29.2 Q73.05 29.75 74.35 37.65" fill="#1e0000" fill-rule="evenodd" stroke="none"/>
      <path d="M74.35 37.65 Q74.2 45.35 70.25 48.0 68.35 50.7 65.0 52.45 42.85 60.95 20.8 51.9 15.65 49.7 15.2 37.85 14.2 29.85 18.3 29.2 L69.25 29.2 Q73.05 29.75 74.35 37.65 Z" fill="none" stroke="#000000" stroke-linecap="round" stroke-linejoin="round" stroke-opacity="0.4" stroke-width="0.30000000000000004"/>
      <path d="M57.9 50.7 Q45.65 55.4 32.55 50.7 L30.95 46.2 Q37.05 40.0 45.9 44.3 55.9 41.55 59.6 48.2 L57.9 50.7" fill="#8e352a" fill-rule="evenodd" stroke="none"/>
      <path d="M57.9 50.7 Q45.65 55.4 32.55 50.7 L30.95 46.2 Q37.05 40.0 45.9 44.3 55.9 41.55 59.6 48.2 L57.9 50.7 Z" fill="none" stroke="#000000" stroke-linecap="round" stroke-linejoin="round" stroke-opacity="0.2" stroke-width="0.30000000000000004"/>
      <path d="M1.35 17.4 L19.1 5.7 Q29.95 2.0 40.7 0.0 L62.45 4.3 67.45 15.7 28.45 20.1 2.9 24.9 1.35 17.4" fill="#dde8a7" fill-rule="evenodd" stroke="none"/>
      <path d="M1.35 17.4 L19.1 5.7 Q29.95 2.0 40.7 0.0 L62.45 4.3 67.45 15.7 28.45 20.1 2.9 24.9 1.35 17.4 Z" fill="none" stroke="#000000" stroke-linecap="round" stroke-linejoin="round" stroke-opacity="0.4" stroke-width="0.5"/>
      <path d="M72.3 28.5 L71.6 30.8 Q71.05 32.25 70.5 32.9 L69.35 33.55 Q68.9 33.55 68.35 33.1 L67.85 32.5 67.55 32.75 66.55 33.35 66.1 33.35 66.0 33.3 64.1 32.9 62.05 32.4 60.6 33.05 58.9 33.75 54.6 35.1 54.3 35.1 Q52.85 35.0 50.6 34.0 L47.55 32.55 44.5 33.75 41.75 34.4 Q40.35 34.45 38.1 32.7 36.1 31.2 35.9 30.7 34.65 31.6 31.8 33.1 L31.35 33.25 Q28.25 34.85 27.25 34.85 25.0 34.9 22.85 32.8 L22.1 31.9 Q19.85 29.05 19.85 26.5 L20.3 26.5 Q46.6 18.75 72.5 26.65 L72.25 28.5 72.3 28.5 M68.55 30.7 L67.85 32.5 68.55 30.7" fill="#eae187" fill-rule="evenodd" stroke="none"/>
      <path d="M72.3 28.5 L71.6 30.8 Q71.05 32.25 70.5 32.9 L69.35 33.55 Q68.9 33.55 68.35 33.1 L67.85 32.5 67.55 32.75 66.55 33.35 66.1 33.35 66.0 33.3 64.1 32.9 62.05 32.4 60.6 33.05 58.9 33.75 54.6 35.1 54.3 35.1 Q52.85 35.0 50.6 34.0 L47.55 32.55 44.5 33.75 41.75 34.4 Q40.35 34.45 38.1 32.7 36.1 31.2 35.9 30.7 34.65 31.6 31.8 33.1 L31.35 33.25 Q28.25 34.85 27.25 34.85 25.0 34.9 22.85 32.8 L22.1 31.9 Q19.85 29.05 19.85 26.5 L20.3 26.5 Q46.6 18.75 72.5 26.65 L72.25 28.5 M67.85 32.5 L68.55 30.7" fill="none" stroke="#000000" stroke-linecap="round" stroke-linejoin="round" stroke-opacity="0.4" stroke-width="0.30000000000000004"/>
      <path d="M2.1 31.35 L11.8 28.05 20.15 29.4 2.1 37.85 Q1.5 34.85 2.1 31.35" fill="#bfcc84" fill-rule="evenodd" stroke="none"/>
      <path d="M2.1 31.35 L11.8 28.05 20.15 29.4 2.1 37.85 Q1.5 34.85 2.1 31.35 Z" fill="none" stroke="#000000" stroke-linecap="round" stroke-linejoin="round" stroke-opacity="0.4" stroke-width="0.5"/>
      <path d="M1.3 27.95 L0.45 27.5 Q0.55 23.95 2.75 22.45 11.75 21.3 21.65 17.8 38.55 12.75 50.65 11.25 64.5 12.65 76.75 21.75 77.9 22.65 78.15 23.35 78.25 26.2 76.4 27.95 77.45 30.0 76.1 32.4 L76.05 32.5 74.35 31.05 68.55 26.2 Q55.45 22.95 42.1 25.0 33.85 27.55 25.65 29.25 L1.3 27.95 M76.4 27.95 Q65.9 16.0 50.65 11.25 65.9 16.0 76.4 27.95 M56.35 19.15 Q41.65 17.8 26.65 21.95 41.65 17.8 56.35 19.15" fill="#dde8a7" fill-rule="evenodd" stroke="none"/>
      <path d="M25.65 29.25 Q13.85 31.65 3.1 32.4 2.0 33.35 1.75 34.2 -0.1 30.35 1.3 27.95 L25.65 29.25" fill="#bfcc84" fill-rule="evenodd" stroke="none"/>
      <path d="M25.65 29.25 Q13.85 31.65 3.1 32.4 2.0 33.35 1.75 34.2 -0.1 30.35 1.3 27.95 L0.45 27.5 Q0.55 23.95 2.75 22.45 11.75 21.3 21.65 17.8 38.55 12.75 50.65 11.25 64.5 12.65 76.75 21.75 77.9 22.65 78.15 23.35 78.25 26.2 76.4 27.95 77.45 30.0 76.1 32.4 M74.35 31.05 L68.55 26.2 Q55.45 22.95 42.1 25.0 33.85 27.55 25.65 29.25" fill="none" stroke="#000000" stroke-linecap="round" stroke-linejoin="round" stroke-opacity="0.4" stroke-width="0.5"/>
      <path d="M25.65 29.25 L1.3 27.95 M26.65 21.95 Q41.65 17.8 56.35 19.15 M50.65 11.25 Q65.9 16.0 76.4 27.95" fill="none" stroke="#000000" stroke-linecap="round" stroke-linejoin="round" stroke-opacity="0.2" stroke-width="0.5"/>
      <path d="M31.15 9.45 L31.7 9.75 32.4 10.25 Q33.4 11.0 33.7 12.0 L33.2 11.6 Q30.95 9.85 29.25 9.75 L25.0 10.1 29.25 9.75 Q30.95 9.85 33.2 11.6 L33.7 12.0 33.8 12.55 33.75 13.8 Q33.45 15.0 32.35 15.85 L32.35 15.9 30.6 17.0 27.9 17.85 27.85 17.85 25.0 17.9 24.8 17.95 23.95 17.85 23.3 17.7 22.45 17.5 Q21.5 17.2 20.65 16.65 L21.3 16.95 21.5 17.0 20.55 16.25 19.9 15.8 18.65 14.65 19.55 15.9 18.65 14.65 19.9 15.8 20.55 16.25 21.5 17.0 21.3 16.95 20.65 16.65 19.9 16.2 19.8 16.05 19.55 15.9 19.15 15.5 18.7 14.8 18.65 14.65 18.65 14.6 18.55 14.65 18.5 14.5 18.55 14.65 18.5 14.65 18.5 14.5 Q18.15 13.6 18.45 12.55 18.7 11.65 19.3 10.95 L20.15 10.1 20.3 10.05 20.45 9.95 21.55 9.4 21.6 9.35 21.7 9.25 21.8 9.2 21.7 9.25 21.6 9.35 21.55 9.4 20.45 9.95 20.8 9.75 21.35 9.45 Q21.5 9.3 21.6 9.3 L21.8 9.2 22.1 9.1 23.05 8.95 23.15 8.95 23.25 8.95 25.05 8.4 24.85 8.4 25.05 8.4 23.25 8.95 23.15 8.95 23.05 8.95 22.1 9.1 21.8 9.2 21.95 9.15 Q23.4 8.55 24.85 8.4 L25.9 8.35 25.05 8.4 26.0 8.5 26.55 8.5 26.7 8.5 26.8 8.5 28.25 8.5 28.45 8.5 28.25 8.5 26.8 8.5 27.4 8.4 27.45 8.4 27.75 8.35 27.9 8.4 28.45 8.5 28.5 8.55 Q30.05 8.8 31.15 9.45 L26.4 8.55 23.3 9.25 26.4 8.55 31.15 9.45 M22.0 9.6 L20.0 10.45 19.7 10.65 20.15 10.1 19.7 10.65 20.0 10.45 22.0 9.6 M23.25 8.95 L24.35 8.7 26.0 8.5 26.4 8.55 26.0 8.5 24.35 8.7 23.25 8.95 M21.55 9.4 L21.35 9.45 21.55 9.4 M26.4 8.55 L26.55 8.5 26.4 8.55 M22.45 17.5 L21.6 17.1 22.6 17.35 Q21.5 16.9 20.55 16.25 21.5 16.9 22.6 17.35 L22.65 17.35 Q20.65 16.0 19.45 14.3 20.65 16.0 22.65 17.35 L22.6 17.35 21.6 17.1 22.45 17.5 M22.65 17.35 L22.75 17.4 22.8 17.4 22.85 17.45 22.9 17.45 23.3 17.7 22.9 17.45 22.85 17.45 22.8 17.4 22.75 17.4 22.65 17.35 M21.5 17.0 L21.6 17.1 21.5 17.0 M23.95 17.85 L22.9 17.45 24.9 17.8 27.85 17.85 24.9 17.8 22.9 17.45 23.95 17.85 M18.7 12.65 Q18.75 11.75 19.7 10.7 L19.7 10.65 19.7 10.7 Q18.75 11.75 18.7 12.65 M19.3 10.95 L19.7 10.65 19.3 10.95" fill="#000000" fill-rule="evenodd" stroke="none"/>
      <path d="M26.8 6.7 Q25.7 6.55 23.9 7.3 L24.1 7.25 26.75 7.0 28.95 6.85 Q31.6 7.05 33.5 8.0 L34.65 8.6 Q36.15 9.6 36.2 10.25 L36.2 10.5 36.35 11.4 36.4 11.9 36.4 12.1 36.35 13.15 34.85 15.2 34.45 15.85 33.35 16.95 32.0 17.65 31.5 17.85 31.35 17.85 29.5 18.3 29.25 18.35 25.0 18.65 Q25.4 18.95 25.85 19.05 L26.95 19.1 27.05 19.05 27.15 19.1 27.2 19.1 27.9 19.0 28.75 18.95 M31.45 8.2 L31.0 8.0 31.15 8.2 31.45 8.2 Q32.2 8.4 32.45 8.55 M31.0 8.0 L30.95 8.0 30.95 7.95 30.9 7.9 28.25 7.35 25.8 7.25 25.35 7.45 25.3 7.55 25.25 7.55 25.05 7.6 24.15 8.0 25.2 8.0 28.6 7.75 Q29.6 7.9 30.5 8.2 L31.05 8.15 31.15 8.2 M30.45 8.5 L28.8 8.3 Q31.1 8.5 32.8 9.65 L32.85 9.7 33.4 9.85 33.2 9.6 33.15 9.55 33.15 9.5 32.8 9.25 32.5 9.05 32.3 9.0 32.15 8.95 31.25 8.55 30.45 8.5 M32.15 8.95 L32.1 8.9 31.25 8.55 29.8 8.15 29.6 8.1 28.25 8.25 28.5 8.25 28.8 8.3 M30.5 8.2 Q31.45 8.5 32.35 8.95 L32.5 9.05 M31.85 9.65 L32.25 9.85 33.65 10.85 33.75 10.85 33.75 10.9 34.3 11.35 34.05 10.8 33.85 10.5 32.85 9.7 32.4 9.6 31.85 9.65 31.15 9.45 26.4 8.55 23.3 9.25 M31.7 9.75 Q31.8 9.65 31.85 9.65 M27.9 8.4 L28.35 8.4 Q30.2 8.6 31.95 9.3 L32.35 9.45 32.8 9.65 M33.6 9.95 L33.45 9.85 33.55 9.95 33.65 10.1 34.1 10.5 33.65 9.95 33.6 9.95 33.2 9.6 M33.4 9.85 L33.45 9.85 M33.65 10.1 L33.85 10.5 34.05 10.65 35.2 12.15 34.9 10.95 34.9 10.9 34.75 10.75 Q34.35 10.2 33.65 9.95 M25.0 10.1 L29.25 9.75 Q30.95 9.85 33.2 11.6 L33.7 12.0 34.75 13.05 34.75 12.3 34.4 11.65 33.75 10.9 33.65 10.85 M34.75 12.3 L34.6 11.8 34.3 11.35 34.4 11.65 M34.9 10.95 L35.35 12.25 35.35 12.45 Q35.75 13.2 35.55 13.9 L34.95 14.85 34.85 15.1 34.85 15.2 34.05 15.85 M32.35 9.45 L30.5 8.85 28.5 8.55 28.45 8.5 28.25 8.5 26.8 8.5 26.7 8.5 26.55 8.5 26.4 8.55 26.0 8.5 24.35 8.7 23.25 8.95 25.05 8.4 24.85 8.4 M33.5 8.0 Q33.7 8.5 35.2 9.55 36.15 10.45 36.35 11.4 M32.85 9.7 L33.65 10.1 M25.25 7.55 L25.15 7.5 25.05 7.6 Q24.5 7.65 23.65 8.05 L24.15 8.0 23.55 8.45 25.2 8.0 M25.15 7.5 L23.3 7.9 22.9 8.05 21.85 8.6 Q22.8 8.25 23.65 8.05 L21.85 8.95 21.2 9.3 21.3 9.25 22.8 8.75 23.55 8.45 M22.8 8.75 L23.45 8.55 23.85 8.45 24.1 8.4 24.25 8.4 24.8 8.2 25.8 8.05 27.95 7.8 28.75 8.0 28.95 8.05 29.6 8.1 30.5 8.2 M21.8 9.2 L22.1 9.1 23.05 8.95 23.15 8.95 23.25 8.95 M21.95 9.15 L21.8 9.2 21.7 9.25 21.6 9.35 21.55 9.4 20.45 9.95 M20.3 10.05 L20.15 10.1 19.7 10.65 20.0 10.45 22.0 9.6 M24.8 8.2 L25.0 8.25 Q26.15 8.1 28.0 8.25 L28.1 8.25 28.15 8.25 28.25 8.25 M23.9 7.3 L22.35 7.7 Q22.2 7.75 22.0 7.85 21.4 7.95 20.7 8.4 L20.45 8.55 19.7 9.25 18.95 10.05 20.65 9.05 21.85 8.6 21.75 8.7 20.45 9.25 19.85 9.7 Q18.65 10.6 18.25 11.9 L18.2 12.05 19.3 10.95 19.7 10.65 19.7 10.7 Q18.75 11.75 18.7 12.65 M20.3 10.05 L20.5 9.8 21.2 9.3 M20.8 9.75 L21.35 9.45 21.55 9.4 M21.95 9.15 L22.8 8.75 M28.1 8.25 L28.1 8.3 28.0 8.25 27.45 8.4 27.4 8.4 26.8 8.5 M27.75 8.35 L27.9 8.4 M28.75 8.0 L28.45 7.95 25.8 8.05 M30.9 7.9 L29.85 7.35 28.0 7.1 26.75 7.0 25.75 7.25 25.8 7.25 M25.9 8.35 L25.05 8.4 26.0 8.5 26.55 8.5 M27.4 8.4 L27.05 8.4 26.9 8.35 26.75 8.35 26.6 8.35 26.5 8.35 25.9 8.35 M26.9 8.35 L28.0 8.25 M25.15 7.5 L25.75 7.25 24.1 7.25 M34.95 14.85 L35.15 14.3 35.15 14.25 35.25 14.0 35.05 13.5 34.7 14.45 Q34.35 15.3 33.9 15.35 L33.35 15.95 Q32.35 16.9 30.95 17.45 L29.65 17.9 28.45 18.15 28.45 18.2 28.4 18.25 26.45 18.45 26.25 18.45 25.95 18.55 25.0 18.65 24.4 18.65 23.45 18.65 23.9 18.75 25.85 19.05 26.0 19.15 26.95 19.1 27.15 19.1 M26.8 18.35 L25.05 18.15 23.55 17.9 24.2 18.3 24.6 18.5 26.25 18.45 26.35 18.4 26.8 18.35 29.75 17.75 28.2 17.8 27.9 17.85 27.85 17.85 24.9 17.8 22.9 17.45 23.95 17.85 24.8 17.95 25.0 17.9 M23.3 17.7 L23.55 17.9 22.45 17.5 21.6 17.1 21.5 17.0 20.55 16.25 19.9 15.8 18.65 14.65 19.55 15.9 19.8 16.1 19.8 16.15 Q19.9 16.1 19.9 16.2 M20.65 16.65 L20.15 16.45 20.3 16.65 22.1 17.85 23.85 18.5 23.95 18.5 24.6 18.5 24.8 18.6 26.25 18.45 M26.45 18.45 L26.9 18.4 28.4 18.25 M29.75 17.75 L29.85 17.7 29.9 17.75 29.9 17.7 30.25 17.55 30.35 17.5 32.5 15.85 32.35 15.85 32.35 15.9 M29.9 17.75 L29.95 17.7 29.9 17.7 M30.25 17.55 L29.95 17.7 M29.9 17.75 L29.65 17.9 M20.65 16.65 L21.3 16.95 21.5 17.0 M20.6 17.6 L20.85 17.7 22.55 18.3 21.7 17.95 21.5 17.8 20.6 17.6 19.8 17.05 19.1 16.45 18.9 16.25 18.85 16.25 18.7 16.15 18.5 15.95 17.65 15.6 19.0 17.25 M20.55 16.25 Q21.5 16.9 22.6 17.35 L22.65 17.35 Q20.65 16.0 19.45 14.3 M22.6 17.35 L21.6 17.1 M23.3 17.7 L22.9 17.45 22.85 17.45 22.8 17.4 22.75 17.4 22.65 17.35 M18.9 16.25 L21.5 17.8 22.1 17.85 M23.85 18.5 L23.8 18.5 22.55 18.3 23.45 18.65 22.35 18.55 M24.4 18.65 L24.1 18.6 23.95 18.5 M24.4 18.65 L24.7 18.65 24.8 18.6 24.9 18.65 25.0 18.65 M24.4 19.9 Q22.5 19.9 20.7 18.8 M29.85 20.0 L29.1 20.0 Q27.7 19.9 26.0 19.15 24.8 19.25 23.9 18.75 M34.75 13.05 L35.05 13.5 35.1 13.3 35.2 12.15 35.35 12.45 35.25 14.0 35.15 14.3 M33.8 12.55 Q34.35 12.7 34.25 13.2 33.9 14.35 32.65 15.7 L32.5 15.85 Q33.5 15.5 34.1 14.55 L34.7 13.3 34.75 13.05 M34.7 14.45 L34.0 15.25 33.9 15.35 M33.35 15.95 L31.7 16.9 30.35 17.5 M29.85 7.35 Q32.6 7.9 33.6 8.85 M33.05 17.65 L30.3 19.1 M17.65 15.6 L17.7 15.55 17.65 15.55 17.45 14.95 17.35 14.65 17.55 13.5 17.65 13.0 17.45 11.8 17.75 10.35 17.4 10.85 16.75 12.05 16.7 12.7 16.8 13.3 M18.85 10.1 L19.35 9.35 Q18.6 9.9 18.2 10.75 L18.85 10.1 18.95 10.05 18.85 10.15 18.55 10.9 19.85 9.7 M18.2 9.95 L17.75 10.35 M18.85 10.1 L18.85 10.15 18.0 11.75 18.55 10.9 18.25 11.9 M18.5 14.5 L18.55 14.65 18.7 14.8 19.15 15.5 19.55 15.9 M18.65 14.6 L18.65 14.65 M18.2 10.75 Q17.65 11.2 17.45 11.8 M18.2 12.05 Q17.95 12.95 18.05 13.6 L18.05 13.65 18.2 14.0 18.4 14.4 18.4 14.45 18.5 14.5 M18.5 14.65 L18.55 14.65 M18.4 14.45 L18.5 14.65 M19.15 15.5 L18.3 14.4 18.2 14.2 Q17.8 13.7 17.7 13.25 L17.65 13.0 17.7 12.95 17.75 12.45 18.0 11.75 M18.2 14.2 L18.2 14.1 18.15 14.0 17.7 13.25 17.7 12.95 18.2 12.05 M18.4 14.4 L18.2 14.1 M18.2 14.2 L18.4 14.45 M18.15 14.0 L18.05 13.65 M19.8 16.15 L19.95 16.3 20.15 16.45 20.1 16.45 20.3 16.65 M18.55 15.45 Q18.9 15.95 20.1 16.45 L19.95 16.3 M20.6 17.6 L19.1 16.45 M20.7 8.4 Q19.95 8.55 19.35 9.35 L20.45 8.55" fill="none" stroke="#000000" stroke-linecap="round" stroke-linejoin="round" stroke-opacity="0.7019608" stroke-width="0.2"/>
    </g>
    <g id="sprite0" transform="matrix(1.0, 0.0, 0.0, 1.0, 0.0, 0.0)">
      <use height="20.8" transform="matrix(1.0, 0.0, 0.0, 1.0, 0.0, 0.0)" width="9.9" xlink:href="#shape1"/>
    </g>
    <g id="shape1" transform="matrix(1.0, 0.0, 0.0, 1.0, 0.0, 0.0)">
      <path d="M8.45 17.75 Q7.0 20.8 4.95 20.8 2.9 20.8 1.45 17.75 0.0 14.7 0.0 10.4 0.0 6.1 1.45 3.05 2.9 0.0 4.95 0.0 7.0 0.0 8.45 3.05 9.9 6.1 9.9 10.4 9.9 14.7 8.45 17.75" fill="#000000" fill-rule="evenodd" stroke="none"/>
    </g>
    <g id="shape2" transform="matrix(1.0, 0.0, 0.0, 1.0, -54.5, -7.15)">
      <path d="M62.95 8.8 L62.3 8.7 63.0 8.95 63.45 9.1 63.55 9.15 63.65 9.15 64.1 9.2 64.15 9.25 64.45 9.25 64.5 9.35 64.9 9.55 65.0 9.65 66.9 11.1 63.3 9.1 63.45 9.1 63.3 9.1 66.9 11.1 67.3 11.55 67.7 12.15 Q68.35 13.1 68.4 14.05 L68.4 14.6 68.05 15.75 Q67.55 16.75 66.5 17.3 L66.5 17.35 64.9 17.9 62.8 18.05 62.75 18.05 62.5 18.05 62.45 18.05 Q61.35 17.9 60.2 17.4 L60.0 17.4 59.35 17.05 58.9 16.75 58.6 16.4 58.55 16.4 58.5 16.35 58.4 16.3 58.35 16.3 57.0 14.75 56.55 14.15 55.8 12.8 56.55 14.15 57.0 14.75 58.35 16.3 58.4 16.3 Q57.1 14.55 56.5 12.7 57.1 14.55 58.4 16.3 L58.5 16.35 58.55 16.4 58.6 16.4 58.9 16.75 58.2 16.35 56.95 15.15 56.45 14.55 56.45 14.4 56.25 14.2 55.8 12.8 56.25 14.2 56.0 13.75 55.8 13.0 55.8 12.8 55.8 12.75 55.75 12.8 55.7 12.65 Q55.6 11.8 56.05 10.9 L56.1 10.8 Q56.45 10.1 57.1 9.6 L57.95 9.0 58.1 9.0 58.25 8.95 58.6 8.85 59.05 8.7 59.3 8.65 59.4 8.65 59.4 8.6 59.5 8.6 59.6 8.6 59.65 8.6 59.7 8.55 59.75 8.6 59.8 8.6 Q61.0 8.4 62.05 8.6 L62.95 8.8 M63.65 9.15 L64.8 9.55 64.9 9.55 64.8 9.55 63.65 9.15 M62.3 8.7 L62.25 8.65 62.15 8.65 62.05 8.6 62.15 8.65 62.25 8.65 62.3 8.7 M59.8 8.6 L60.55 8.65 60.6 8.65 61.6 8.75 63.0 8.95 63.3 9.1 60.7 9.0 63.3 9.1 63.0 8.95 61.6 8.75 60.6 8.65 60.55 8.65 59.8 8.6 M68.4 14.05 L68.1 13.6 Q66.65 11.45 65.35 10.9 63.9 10.3 61.85 10.2 63.9 10.3 65.35 10.9 66.65 11.45 68.1 13.6 L68.4 14.05 M57.95 9.0 L57.5 9.4 57.1 9.6 57.5 9.4 57.95 9.0 M58.25 8.95 L59.25 8.75 59.05 8.7 59.25 8.75 59.25 8.7 59.4 8.65 59.25 8.7 59.25 8.75 58.25 8.95 M59.5 8.6 L59.65 8.6 59.75 8.6 59.65 8.6 59.5 8.6 M59.55 9.0 L57.8 9.3 57.5 9.4 57.8 9.3 59.55 9.0 M55.7 12.65 L55.75 12.8 55.7 12.8 55.7 12.65 M57.5 9.4 Q56.5 10.2 56.05 10.9 56.5 10.2 57.5 9.4 M57.0 14.75 L57.6 15.65 57.45 15.55 56.95 15.15 57.45 15.55 57.6 15.65 57.0 14.75 M57.6 15.65 L57.6 15.8 58.2 16.35 57.6 15.8 57.6 15.65 M59.35 17.05 L58.6 16.4 60.1 17.25 62.45 18.05 60.1 17.25 58.6 16.4 59.35 17.05 M57.6 15.8 L58.35 16.3 57.6 15.8 M60.6 8.65 L62.15 8.65 60.6 8.65" fill="#000000" fill-rule="evenodd" stroke="none"/>
      <path d="M64.1 9.2 L63.85 9.15 63.75 9.05 63.65 9.0 63.5 8.95 63.45 8.95 62.95 8.8 62.3 8.7 63.0 8.95 63.45 9.1 63.55 9.15 63.65 9.15 64.1 9.2 64.15 9.25 64.65 9.2 63.75 9.05 M63.45 9.1 L63.3 9.1 66.9 11.1 Q67.3 11.25 67.45 11.45 L67.85 11.55 68.25 11.75 68.2 11.7 Q67.1 10.25 65.3 9.45 L65.05 9.35 64.85 9.3 64.75 9.25 64.7 9.25 64.7 9.3 64.65 9.2 62.25 8.5 62.2 8.45 62.1 8.45 61.6 8.45 61.45 8.4 61.25 8.4 60.95 8.4 60.4 8.45 59.75 8.6 59.8 8.6 60.55 8.65 60.6 8.65 61.6 8.75 63.0 8.95 63.3 9.1 60.7 9.0 M65.0 9.65 L64.9 9.55 64.8 9.55 63.65 9.15 M64.45 9.25 L64.5 9.35 64.85 9.45 Q66.35 10.1 67.6 11.2 L67.9 11.4 68.2 11.7 M64.85 9.3 L66.0 9.5 65.45 9.3 65.3 9.2 65.05 9.1 62.95 8.55 62.2 8.45 M64.65 9.2 L64.7 9.25 M62.95 8.55 L64.7 8.8 65.3 9.2 M64.05 7.5 L61.55 7.35 61.7 7.35 63.9 7.75 Q64.95 7.8 65.7 8.2 67.8 9.0 69.1 10.35 L69.9 11.2 Q70.85 12.45 70.75 13.1 L70.7 13.35 70.7 14.15 70.55 14.7 70.55 14.85 70.3 15.75 68.65 17.3 68.15 17.8 67.1 18.55 65.85 18.85 65.4 18.95 65.3 18.9 63.7 18.85 63.5 18.8 60.0 18.1 60.6 18.65 61.5 18.95 61.6 18.95 61.65 19.0 61.7 19.0 62.25 19.1 62.95 19.25 M63.9 7.75 L63.05 7.75 63.1 7.8 65.05 8.5 Q65.95 8.85 67.05 9.65 L66.35 8.85 64.9 8.15 63.9 7.75 M61.2 8.0 L59.55 8.35 59.0 8.55 59.1 8.5 60.4 8.45 61.05 8.3 Q61.35 8.1 61.6 8.05 L61.2 8.0 59.65 8.05 59.55 8.15 58.4 8.3 57.8 8.55 Q56.65 9.1 56.05 10.2 L56.0 10.3 57.1 9.6 57.5 9.4 57.95 9.0 58.1 9.0 58.3 8.8 59.0 8.55 M63.1 7.8 L62.65 7.85 62.65 7.95 62.6 7.95 62.45 7.95 61.6 8.05 62.45 8.35 Q63.85 8.4 65.25 8.9 L66.65 9.85 67.1 9.9 67.15 10.0 67.1 9.75 67.05 9.75 67.05 9.7 67.05 9.65 M61.55 7.35 L60.2 7.35 59.95 7.4 58.75 7.55 58.55 7.65 57.8 8.1 57.0 8.7 58.6 8.15 59.65 8.05 60.6 7.8 61.0 7.75 62.5 7.85 62.65 7.85 63.05 7.75 61.7 7.35 M62.6 7.95 L62.5 7.85 62.45 7.95 61.2 8.0 M62.05 8.6 L62.15 8.65 62.25 8.65 62.3 8.7 M62.45 8.35 L61.05 8.3 M61.85 10.2 Q63.9 10.3 65.35 10.9 66.65 11.45 68.1 13.6 L68.4 14.05 69.0 15.35 69.2 14.65 69.0 13.95 68.7 13.1 68.6 13.0 67.7 11.75 67.45 11.45 67.3 11.55 M68.15 10.6 L67.4 10.05 67.15 10.0 M67.4 10.05 L67.1 9.75 M66.0 9.5 L66.65 9.85 68.0 10.95 68.1 11.05 68.3 11.35 68.5 11.65 68.45 11.7 68.5 11.75 68.6 11.85 68.8 12.2 Q69.35 12.6 69.5 13.2 L69.6 13.35 69.55 13.4 Q69.8 13.9 69.7 14.75 L69.65 14.95 69.5 16.3 68.8 17.05 68.7 17.2 68.65 17.3 67.85 17.7 M65.3 9.45 L66.55 10.05 Q67.0 10.35 67.2 10.3 L66.1 9.6 66.0 9.5 M68.1 11.05 L67.95 11.0 67.8 10.9 67.2 10.3 67.8 10.85 67.8 10.9 M67.9 11.4 L66.5 10.4 Q66.05 10.0 65.0 9.65 M68.6 11.85 L68.6 12.05 68.65 12.05 68.8 12.2 69.05 12.9 68.75 12.3 68.85 12.75 69.0 12.95 69.55 14.6 69.55 13.4 M68.65 12.05 L68.75 12.2 68.75 12.3 68.25 11.75 68.85 12.75 68.95 13.05 69.05 13.6 69.2 14.15 69.2 14.65 M69.1 10.35 Q69.15 10.85 70.1 12.2 70.7 13.25 70.7 14.15 M68.25 11.75 L68.6 12.05 M66.35 8.85 Q68.45 10.05 69.0 11.15 M68.6 13.0 L68.7 13.05 68.7 13.1 69.05 13.6 69.0 13.95 M68.4 14.6 Q68.8 14.9 68.6 15.3 68.05 16.3 66.75 17.2 L66.7 17.3 Q67.5 17.25 68.2 16.5 L68.9 15.5 69.0 15.35 69.2 15.8 69.25 15.6 69.55 14.6 69.65 14.95 69.2 16.3 69.05 16.6 68.8 17.05 M66.5 17.3 L66.6 17.3 66.7 17.3 M66.5 17.3 L66.5 17.35 M62.8 18.05 L64.0 18.4 64.15 18.35 64.1 18.45 64.15 18.4 64.45 18.3 64.55 18.3 Q65.7 18.0 66.6 17.3 M69.05 16.6 L69.05 16.55 69.2 16.3 69.2 15.8 68.65 16.55 Q68.25 17.3 67.85 17.2 L67.3 17.65 65.05 18.4 63.9 18.5 62.9 18.45 62.85 18.5 62.8 18.5 61.2 18.25 61.05 18.2 60.8 18.2 60.0 18.1 59.5 17.95 58.75 17.7 59.1 17.85 60.6 18.65 60.7 18.75 61.5 18.95 61.65 19.0 M68.65 16.55 L67.95 17.15 67.85 17.2 M61.2 18.25 L61.6 18.3 62.8 18.5 M61.55 18.2 L60.2 17.6 59.05 17.0 59.45 17.55 59.7 17.85 59.75 17.9 59.85 17.95 61.05 18.2 61.15 18.15 61.55 18.2 64.0 18.4 M62.8 18.05 L62.75 18.05 62.5 18.05 62.45 18.05 60.1 17.25 58.6 16.4 59.35 17.05 60.0 17.4 60.2 17.4 M58.9 16.75 L59.0 17.0 59.05 17.0 M64.45 18.3 L64.2 18.4 64.1 18.45 63.9 18.5 M64.2 18.4 L64.15 18.4 M67.3 17.65 L65.75 18.1 64.55 18.3 M60.7 18.75 Q61.9 19.9 63.05 20.3 L63.65 20.45 M66.7 19.1 L64.2 19.8 M55.5 15.3 L54.8 13.4 54.75 12.8 54.75 12.5 55.2 11.5 55.35 11.05 55.45 9.9 56.0 8.65 55.6 9.0 Q55.0 9.55 54.85 9.95 L54.65 10.55 54.6 11.1 M56.0 13.75 L55.6 12.55 55.6 12.5 55.55 12.3 55.35 11.3 55.35 11.05 55.4 11.05 55.55 10.6 55.9 10.0 56.9 8.7 56.9 8.65 56.25 9.1 Q55.7 9.4 55.45 9.9 M55.35 11.3 L55.4 11.05 56.0 10.3 Q55.6 11.1 55.55 11.7 L55.55 11.75 55.55 11.85 55.55 11.9 55.55 12.1 55.65 12.5 55.6 12.55 55.7 12.65 55.75 12.8 55.8 13.0 56.0 13.75 56.25 14.2 56.4 14.45 56.4 14.5 56.45 14.55 M55.55 12.3 L55.55 12.2 55.5 12.1 55.35 11.3 M55.5 12.1 L55.55 11.9 M58.6 8.85 L59.05 8.7 59.25 8.75 59.25 8.7 59.4 8.65 59.4 8.6 59.5 8.6 59.6 8.6 59.65 8.6 59.7 8.55 59.75 8.6 59.65 8.6 59.5 8.6 M59.25 8.75 L58.25 8.95 M56.45 8.4 L56.0 8.65 M57.0 8.7 L56.9 8.7 56.55 9.35 Q57.05 8.85 57.8 8.55 M56.25 9.1 Q56.75 8.45 57.45 8.15 58.15 7.55 58.75 7.55 M56.9 8.65 L57.45 8.15 58.55 7.65 M57.0 8.7 L56.9 8.65 M57.5 9.4 L57.8 9.3 59.55 9.0 M56.05 10.2 L56.55 9.35 55.9 10.0 M56.05 10.9 Q56.5 10.2 57.5 9.4 M55.7 12.8 L55.75 12.8 M55.8 12.75 L55.8 12.8 56.55 14.15 57.0 14.75 58.35 16.3 58.4 16.3 Q57.1 14.55 56.5 12.7 M55.8 12.8 L56.25 14.2 M56.95 15.15 L57.45 15.55 57.6 15.65 57.0 14.75 M56.4 14.5 L56.5 14.65 56.5 14.75 56.55 14.75 56.6 14.85 56.95 15.15 M58.2 16.35 L57.6 15.8 57.6 15.65 M55.75 14.6 L56.7 16.0 57.4 16.4 55.7 14.4 55.75 14.6 56.2 15.3 56.7 16.0 56.9 16.15 58.15 17.15 57.5 16.6 57.4 16.4 57.85 16.6 Q57.2 16.0 56.7 15.05 L56.55 14.8 Q55.7 14.1 55.55 13.55 M56.7 15.05 L56.6 14.85 56.55 14.8 56.55 14.75 M58.9 16.75 L58.6 16.4 58.55 16.4 58.5 16.35 58.4 16.3 M59.7 17.85 L59.2 17.65 59.3 17.8 59.5 17.95 59.75 18.0 59.9 18.0 59.85 17.95 M59.2 17.65 L59.1 17.65 58.15 17.15 58.75 17.7 57.9 17.35 M60.0 18.1 L59.9 18.05 59.9 18.0 61.05 18.2 M58.2 16.35 L59.0 17.0 M57.85 16.6 L59.1 17.65 M58.35 16.3 L57.6 15.8 M54.8 13.4 L54.85 13.45 55.4 14.0 55.5 14.25 55.6 14.3 55.7 14.4 M60.7 18.75 Q59.75 18.6 59.1 17.85 M59.25 19.1 Q57.75 18.6 56.55 17.1 M55.6 12.55 L55.7 12.8 M55.65 12.5 L55.55 12.2 M62.15 8.65 L60.6 8.65" fill="none" stroke="#000000" stroke-linecap="round" stroke-linejoin="round" stroke-opacity="0.7019608" stroke-width="0.2"/>
    </g>
    <g id="shape3" transform="matrix(1.0, 0.0, 0.0, 1.0, 0.25, -32.9)">
      <path d="M41.65 47.1 L43.55 46.5 45.9 45.9 Q47.05 45.9 51.5 48.05 51.8 47.75 52.45 47.35 L52.65 47.35 Q53.25 47.35 54.9 48.6 L55.6 46.15 56.15 46.0 56.65 47.3 Q57.0 45.6 57.1 45.45 58.0 45.85 59.75 47.2 L60.8 46.5 61.7 45.85 61.8 45.9 62.1 45.9 Q62.45 45.9 62.9 45.35 L63.25 46.05 Q63.1 45.25 63.55 45.7 63.95 46.15 64.3 46.15 L65.25 45.55 67.15 46.9 68.65 48.45 Q64.55 52.4 59.15 53.85 53.6 55.35 47.8 55.75 42.3 56.5 36.8 55.75 L26.05 53.3 Q22.65 52.35 19.95 50.55 L21.05 49.3 Q22.5 47.65 23.45 46.9 24.75 45.9 27.6 44.3 32.4 41.6 34.65 44.5 L36.45 46.9 37.6 46.25 Q38.3 45.85 38.75 45.85 L40.15 46.45 41.65 47.1" fill="#d8cd56" fill-rule="evenodd" stroke="none"/>
      <path d="M41.65 47.1 L40.15 46.45 38.75 45.85 Q38.3 45.85 37.6 46.25 L36.45 46.9 34.65 44.5 Q32.4 41.6 27.6 44.3 24.75 45.9 23.45 46.9 22.5 47.65 21.05 49.3 L19.95 50.55 Q22.65 52.35 26.05 53.3 L36.8 55.75 Q42.3 56.5 47.8 55.75 53.6 55.35 59.15 53.85 64.55 52.4 68.65 48.45 L67.15 46.9 65.25 45.55 64.3 46.15 Q63.95 46.15 63.55 45.7 63.1 45.25 63.25 46.05 L62.9 45.35 Q62.45 45.9 62.1 45.9 L61.8 45.9 61.7 45.85 60.8 46.5 59.75 47.2 Q58.0 45.85 57.1 45.45 57.0 45.6 56.65 47.3 L56.15 46.0 55.6 46.15 54.9 48.6 Q53.25 47.35 52.65 47.35 L52.45 47.35 Q51.8 47.75 51.5 48.05 47.05 45.9 45.9 45.9 L43.55 46.5 41.65 47.1 Z" fill="none" stroke="#000000" stroke-linecap="round" stroke-linejoin="round" stroke-opacity="0.4" stroke-width="0.30000000000000004"/>
      <path d="M9.35 45.3 Q24.5 54.6 41.15 60.5 L22.0 62.55 1.45 49.5 1.85 40.4 9.35 45.3 22.0 62.55 9.35 45.3" fill="#bfcc84" fill-rule="evenodd" stroke="none"/>
      <path d="M9.35 45.3 Q24.5 54.6 41.15 60.5 L22.0 62.55 1.45 49.5 1.85 40.4 9.35 45.3" fill="none" stroke="#000000" stroke-linecap="round" stroke-linejoin="round" stroke-opacity="0.4" stroke-width="0.5"/>
      <path d="M9.35 45.3 L22.0 62.55" fill="none" stroke="#000000" stroke-linecap="round" stroke-linejoin="round" stroke-opacity="0.2" stroke-width="0.5"/>
      <path d="M0.6 50.95 L9.35 62.5 0.6 50.95 Q0.3 48.95 0.55 46.65 7.9 49.3 12.85 53.3 L15.1 57.3 18.95 65.4 13.0 64.95 9.35 62.5 Q4.2 58.8 0.0 54.4 0.0 52.65 0.6 50.95" fill="#dde8a7" fill-rule="evenodd" stroke="none"/>
      <path d="M18.95 65.4 L15.1 57.3 47.2 59.1 Q52.55 60.25 57.4 62.1 60.6 63.3 63.55 64.85 L71.0 68.35 Q69.75 73.25 66.35 76.95 56.3 69.3 45.4 64.6 L45.05 64.65 32.2 65.2 Q25.75 65.7 18.95 65.4 M45.05 64.65 L57.4 62.1 45.05 64.65" fill="#bfcc84" fill-rule="evenodd" stroke="none"/>
      <path d="M0.6 50.95 Q0.0 52.65 0.0 54.4 4.2 58.8 9.35 62.5 L13.0 64.95 18.95 65.4 Q25.75 65.7 32.2 65.2 L45.05 64.65 45.4 64.6 Q56.3 69.3 66.35 76.95 69.75 73.25 71.0 68.35 L63.55 64.85 Q60.6 63.3 57.4 62.1 52.55 60.25 47.2 59.1 L15.1 57.3 12.85 53.3 Q7.9 49.3 0.55 46.65 0.3 48.95 0.6 50.95" fill="none" stroke="#000000" stroke-linecap="round" stroke-linejoin="round" stroke-opacity="0.4" stroke-width="0.5"/>
      <path d="M9.35 62.5 L0.6 50.95 M18.95 65.4 L15.1 57.3 M57.4 62.1 L45.05 64.65" fill="none" stroke="#000000" stroke-linecap="round" stroke-linejoin="round" stroke-opacity="0.2" stroke-width="0.5"/>
      <path d="M78.0 43.8 L77.75 47.3 75.1 53.8 Q66.6 61.4 49.6 66.55 L46.2 64.95 37.75 64.95 70.75 49.25 78.0 43.8 M52.95 64.35 L46.2 64.95 52.95 64.35" fill="#dde8a7" fill-rule="evenodd" stroke="none"/>
      <path d="M70.75 49.25 Q73.7 46.7 74.9 42.4 L75.75 36.4 76.95 33.15 Q78.25 37.5 78.0 43.8 L70.75 49.25" fill="#bfcc84" fill-rule="evenodd" stroke="none"/>
      <path d="M78.0 43.8 L77.75 47.3 75.1 53.8 Q66.6 61.4 49.6 66.55 L46.2 64.95 37.75 64.95 70.75 49.25 Q73.7 46.7 74.9 42.4 L75.75 36.4 76.95 33.15 Q78.25 37.5 78.0 43.8" fill="none" stroke="#000000" stroke-linecap="round" stroke-linejoin="round" stroke-opacity="0.4" stroke-width="0.5"/>
      <path d="M78.0 43.8 L70.75 49.25 M46.2 64.95 L52.95 64.35" fill="none" stroke="#000000" stroke-linecap="round" stroke-linejoin="round" stroke-opacity="0.2" stroke-width="0.5"/>
      <path d="M70.0 58.5 Q69.95 62.25 69.45 60.75 68.4 57.0 66.75 61.75 63.0 75.8 60.55 70.05 L56.75 57.75 Q57.05 60.7 55.8 63.6 51.35 68.2 48.55 62.5 45.25 64.85 42.95 62.7 38.6 58.35 37.15 62.05 L36.3 64.55 Q34.45 71.2 31.3 70.75 29.0 70.1 28.3 66.6 L27.05 60.3 Q23.85 77.05 19.25 70.6 16.6 58.45 19.25 49.15 19.75 47.55 21.15 47.95 27.65 52.25 36.55 53.85 56.6 54.85 65.8 48.3 L67.45 46.55 Q69.95 44.95 70.5 47.75 70.2 49.4 70.0 58.5" fill="#00ffcc" fill-opacity="0.34117648" fill-rule="evenodd" stroke="none"/>
      <path d="M70.0 58.5 Q69.95 62.25 69.45 60.75 68.4 57.0 66.75 61.75 63.0 75.8 60.55 70.05 L56.75 57.75 Q57.05 60.7 55.8 63.6 51.35 68.2 48.55 62.5 45.25 64.85 42.95 62.7 38.6 58.35 37.15 62.05 L36.3 64.55 Q34.45 71.2 31.3 70.75 29.0 70.1 28.3 66.6 L27.05 60.3 Q23.85 77.05 19.25 70.6 16.6 58.45 19.25 49.15 19.75 47.55 21.15 47.95 27.65 52.25 36.55 53.85 56.6 54.85 65.8 48.3 L67.45 46.55 Q69.95 44.95 70.5 47.75 70.2 49.4 70.0 58.5 Z" fill="none" stroke="#ffffff" stroke-linecap="round" stroke-linejoin="round" stroke-opacity="0.2" stroke-width="0.30000000000000004"/>
    </g>
  </defs>
</svg>
