<?xml version="1.0" encoding="UTF-8" standalone="no"?>
<svg xmlns:xlink="http://www.w3.org/1999/xlink" height="531.5px" width="460.6px" xmlns="http://www.w3.org/2000/svg">
  <g transform="matrix(1.0, 0.0, 0.0, 1.0, 193.65, 334.05)">
    <use height="74.0" transform="matrix(1.5233, 0.0, 0.0, 1.5233, -72.3117, -219.5117)" width="91.95" xlink:href="#shape0"/>
  </g>
  <defs>
    <g id="shape0" transform="matrix(1.0, 0.0, 0.0, 1.0, 0.5, 0.5)">
      <path d="M52.05 4.2 L52.75 0.15 65.7 1.6 Q77.6 6.05 79.9 18.1 L82.65 33.5 Q89.7 35.8 90.95 37.0 89.45 38.75 84.15 40.25 L80.35 37.0 Q79.25 36.1 79.0 35.05 77.05 27.0 75.7 18.95 74.9 13.85 70.75 10.75 62.5 4.55 52.05 4.2 M3.1 56.9 Q1.4 56.15 0.0 54.85 1.25 49.3 4.0 43.3 L6.55 44.1 5.4 48.45 Q3.9 53.05 3.1 56.9 M4.65 40.85 L1.3 40.6 Q0.45 34.0 2.3 27.2 L5.25 27.4 5.05 25.0 Q3.45 15.8 14.3 8.85 28.6 -0.65 50.45 0.05 L51.65 4.15 Q42.6 3.05 33.8 5.1 25.25 7.15 17.6 11.6 L17.45 11.7 15.15 13.65 Q12.15 16.15 9.65 19.1 L9.05 19.1 9.65 19.1 9.05 20.7 Q7.9 24.15 8.55 27.65 L5.5 27.45 5.25 27.4 5.5 27.45 Q5.0 29.25 4.65 31.85 4.15 35.1 4.15 37.5 4.15 38.55 4.5 40.15 L4.65 40.85" fill="#ff89b0" fill-rule="evenodd" stroke="none"/>
      <path d="M84.15 40.25 Q76.0 42.55 58.6 44.35 39.4 46.15 24.45 43.9 23.4 52.25 21.9 58.25 L16.6 58.8 14.1 58.8 7.85 58.25 5.5 57.8 3.1 56.9 Q3.9 53.05 5.4 48.45 L6.55 44.1 6.65 44.1 10.5 44.75 Q12.6 44.75 14.1 43.3 15.55 41.85 15.55 39.9 15.55 36.25 14.3 32.4 L14.65 28.05 10.95 27.8 8.55 27.65 10.95 27.8 10.05 41.2 4.75 40.85 4.65 40.85 4.5 40.15 Q4.15 38.55 4.15 37.5 4.15 35.1 4.65 31.85 5.0 29.25 5.5 27.45 L8.55 27.65 Q7.9 24.15 9.05 20.7 L9.65 19.1 Q16.65 18.55 17.45 11.7 L17.6 11.6 Q25.25 7.15 33.8 5.1 42.6 3.05 51.65 4.15 L51.9 5.15 52.05 4.2 Q62.5 4.55 70.75 10.75 74.9 13.85 75.7 18.95 77.05 27.0 79.0 35.05 79.25 36.1 80.35 37.0 L84.15 40.25 M76.85 34.6 Q68.3 36.65 54.7 37.25 68.3 36.65 76.85 34.6 M18.85 33.5 Q18.0 34.45 18.0 35.7 18.0 36.95 18.85 37.8 19.8 38.75 21.05 38.75 22.3 38.75 23.15 37.8 24.1 36.95 24.1 35.7 24.1 34.45 23.15 33.5 22.3 32.65 21.05 32.65 19.8 32.65 18.85 33.5 M23.55 9.4 Q22.15 11.15 19.9 11.35 22.15 11.15 23.55 9.4 M54.1 37.25 Q45.7 37.55 35.45 37.35 45.7 37.55 54.1 37.25" fill="#ff6699" fill-rule="evenodd" stroke="none"/>
      <path d="M9.65 19.1 Q12.15 16.15 15.15 13.65 L17.45 11.7 Q16.65 18.55 9.65 19.1" fill="#e0477a" fill-rule="evenodd" stroke="none"/>
      <path d="M18.85 33.5 Q19.8 32.65 21.05 32.65 22.3 32.65 23.15 33.5 24.1 34.45 24.1 35.7 24.1 36.95 23.15 37.8 22.3 38.75 21.05 38.75 19.8 38.75 18.85 37.8 18.0 36.95 18.0 35.7 18.0 34.45 18.85 33.5" fill="#990033" fill-rule="evenodd" stroke="none"/>
      <path d="M4.0 43.3 L4.6 42.0 4.75 42.0 4.7 41.45 4.75 40.85 10.05 41.2 10.95 27.8 14.65 28.05 14.3 32.4 Q15.55 36.25 15.55 39.9 15.55 41.85 14.1 43.3 12.6 44.75 10.5 44.75 L6.65 44.1 6.55 44.1 4.0 43.3 M14.3 32.4 L13.65 41.5 10.05 41.2 13.65 41.5 14.3 32.4" fill="#cc3567" fill-rule="evenodd" stroke="none"/>
      <path d="M4.6 42.0 L4.7 41.45 4.75 42.0 4.6 42.0" fill="#4d5c27" fill-rule="evenodd" stroke="none"/>
      <path d="M16.6 58.8 L16.25 61.65 13.8 60.85 14.1 58.8 16.6 58.8 M5.15 59.95 L5.5 57.8 7.85 58.25 Q7.65 59.15 7.6 60.0 L5.15 59.95" fill="#525252" fill-rule="evenodd" stroke="none"/>
      <path d="M16.25 61.65 L15.3 65.35 14.25 65.3 10.0 64.9 12.75 62.35 13.3 62.35 13.45 62.05 13.8 60.85 16.25 61.65 M6.25 64.1 L4.8 63.7 Q4.9 61.85 5.15 59.95 L7.6 60.0 7.5 61.45 10.2 62.15 7.25 64.3 6.25 64.1" fill="#666666" fill-rule="evenodd" stroke="none"/>
      <path d="M14.25 65.3 Q14.55 67.0 14.25 68.45 L13.1 67.35 11.25 66.45 Q10.45 65.95 9.3 65.8 L7.35 65.75 6.05 65.8 6.2 65.1 6.25 64.1 7.25 64.3 10.0 64.9 14.25 65.3" fill="#aa4545" fill-rule="evenodd" stroke="none"/>
      <path d="M14.25 68.45 Q13.95 70.1 12.9 71.3 8.55 74.7 4.7 71.3 4.15 70.35 5.05 68.45 L6.05 65.8 7.35 65.75 9.3 65.8 Q10.45 65.95 11.25 66.45 L13.1 67.35 14.25 68.45 M9.05 66.65 Q8.5 66.65 8.15 67.05 7.8 67.45 7.8 68.05 7.8 68.6 8.15 69.05 8.5 69.45 9.05 69.45 9.55 69.45 9.9 69.05 10.3 68.6 10.3 68.05 10.3 67.45 9.9 67.05 9.55 66.65 9.05 66.65" fill="#d85858" fill-rule="evenodd" stroke="none"/>
      <path d="M10.2 62.15 L12.75 62.35 10.0 64.9 7.25 64.3 10.2 62.15" fill="#ffffff" fill-rule="evenodd" stroke="none"/>
      <path d="M52.05 4.2 L52.75 0.15 65.7 1.6 Q77.6 6.05 79.9 18.1 L82.65 33.5 Q89.7 35.8 90.95 37.0 89.45 38.75 84.15 40.25 76.0 42.55 58.6 44.35 39.4 46.15 24.45 43.9 23.4 52.25 21.9 58.25 L16.6 58.8 16.25 61.65 15.3 65.35 14.25 65.3 Q14.55 67.0 14.25 68.45 13.95 70.1 12.9 71.3 8.55 74.7 4.7 71.3 4.15 70.35 5.05 68.45 L6.05 65.8 6.2 65.1 6.25 64.1 4.8 63.7 Q4.9 61.85 5.15 59.95 L5.5 57.8 3.1 56.9 Q1.4 56.15 0.0 54.85 1.25 49.3 4.0 43.3 L4.6 42.0 4.7 41.45 4.75 40.85 4.65 40.85 1.3 40.6 Q0.45 34.0 2.3 27.2 L5.25 27.4 5.05 25.0 Q3.45 15.8 14.3 8.85 28.6 -0.65 50.45 0.05 L51.65 4.15 51.9 5.15 52.05 4.2 M9.65 19.1 L9.05 19.1 M17.45 11.7 Q16.65 18.55 9.65 19.1 M10.95 27.8 L14.65 28.05 14.3 32.4 13.65 41.5 10.05 41.2 4.75 40.85 M18.85 33.5 Q19.8 32.65 21.05 32.65 22.3 32.65 23.15 33.5 24.1 34.45 24.1 35.7 24.1 36.95 23.15 37.8 22.3 38.75 21.05 38.75 19.8 38.75 18.85 37.8 18.0 36.95 18.0 35.7 18.0 34.45 18.85 33.5 M5.5 27.45 L8.55 27.65 10.95 27.8 10.05 41.2 M5.25 27.4 L5.5 27.45 M19.9 11.35 Q22.15 11.15 23.55 9.4 M14.1 58.8 L16.6 58.8 M13.8 60.85 L14.1 58.8 7.85 58.25 Q7.65 59.15 7.6 60.0 L7.5 61.45 10.2 62.15 12.75 62.35 13.3 62.35 13.45 62.05 13.8 60.85 M5.5 57.8 L7.85 58.25 M7.25 64.3 L6.25 64.1 M9.05 66.65 Q9.55 66.65 9.9 67.05 10.3 67.45 10.3 68.05 10.3 68.6 9.9 69.05 9.55 69.45 9.05 69.45 8.5 69.45 8.15 69.05 7.8 68.6 7.8 68.05 7.8 67.45 8.15 67.05 8.5 66.65 9.05 66.65 M10.0 64.9 L7.25 64.3 M14.25 65.3 L10.0 64.9" fill="none" stroke="#000000" stroke-linecap="round" stroke-linejoin="round" stroke-opacity="0.5019608" stroke-width="1.0"/>
      <path d="M54.7 37.25 Q68.3 36.65 76.85 34.6 M35.45 37.35 Q45.7 37.55 54.1 37.25" fill="none" stroke="#000000" stroke-linecap="round" stroke-linejoin="round" stroke-opacity="0.3019608" stroke-width="1.0"/>
      <path d="M49.7 15.65 L50.05 15.1 Q51.4 13.55 53.4 13.4 55.5 13.2 57.05 14.55 L57.65 15.0 Q58.7 16.3 58.85 18.0 L58.75 19.6 58.7 19.7 58.7 19.75 Q57.0 26.15 51.0 30.4 L50.9 30.45 50.65 30.65 50.45 30.5 50.35 30.45 Q43.7 27.2 41.4 21.0 41.1 20.3 41.05 19.45 40.9 17.75 41.85 16.3 L42.25 15.8 Q43.6 14.2 45.65 14.05 47.75 13.9 49.3 15.2 L49.7 15.65" fill="#99123f" fill-rule="evenodd" stroke="none"/>
    </g>
  </defs>
</svg>
