<?xml version="1.0" encoding="UTF-8" standalone="no"?>
<svg xmlns:xlink="http://www.w3.org/1999/xlink" height="531.5px" width="460.6px" xmlns="http://www.w3.org/2000/svg">
  <g transform="matrix(1.0, 0.0, 0.0, 1.0, 193.65, 334.05)">
    <use height="202.8" transform="matrix(1.0, 0.0, 0.0, 1.0, -91.7, -275.65)" width="172.45" xlink:href="#shape0"/>
  </g>
  <defs>
    <g id="shape0" transform="matrix(1.0, 0.0, 0.0, 1.0, 91.7, 275.65)">
      <path d="M-45.35 -201.45 Q-36.9 -205.85 -26.35 -208.05 L-21.95 -208.9 -23.2 -212.05 Q-43.75 -255.55 -76.5 -272.55 L-80.65 -274.65 -76.85 -275.3 Q-34.15 -259.45 -13.7 -214.95 -9.3 -214.7 -7.7 -210.4 1.5 -215.35 5.8 -208.9 L11.75 -208.9 14.85 -207.4 Q27.5 -201.1 38.45 -191.9 L44.65 -186.25 Q54.55 -176.75 62.75 -164.65 L65.55 -160.4 68.2 -156.1 Q74.0 -156.6 79.9 -154.35 76.75 -148.65 71.45 -145.65 55.2 -167.55 36.4 -183.2 L37.65 -183.95 Q38.7 -183.05 40.05 -182.4 L38.95 -184.7 Q40.45 -185.75 41.75 -186.95 L37.9 -185.75 35.25 -187.2 Q35.7 -186.0 36.4 -185.2 L34.9 -184.55 Q23.85 -193.5 12.0 -200.45 -24.6 -193.3 -66.4 -151.65 L-77.5 -140.5 Q-86.35 -143.5 -91.35 -148.55 -85.6 -153.95 -76.35 -157.25 -88.7 -171.5 -78.15 -191.75 -69.2 -191.4 -64.0 -188.1 -66.95 -187.5 -69.85 -185.1 -72.55 -182.7 -73.95 -179.8 -77.5 -172.7 -73.75 -162.5 -66.0 -162.3 -60.5 -163.75 -57.2 -164.65 -54.7 -166.15 L-53.4 -167.15 -52.3 -168.05 Q-49.25 -169.6 -47.6 -171.5 -43.7 -179.05 -48.05 -184.45 -53.15 -189.65 -58.75 -191.9 L-55.35 -194.95 Q-50.8 -198.7 -45.35 -201.45 M-41.3 -182.4 Q-24.1 -200.6 11.75 -208.9 -24.1 -200.6 -41.3 -182.4 M-74.85 -155.7 L-76.35 -157.25 -74.85 -155.7 M69.8 -153.35 L68.2 -156.1 69.8 -153.35" fill="#5b9dff" fill-rule="evenodd" stroke="none"/>
      <path d="M-28.85 -159.1 L-30.9 -161.9 -34.15 -166.2 Q-39.3 -162.0 -41.6 -157.85 -44.35 -153.1 -44.35 -146.8 L-44.25 -145.4 Q-50.05 -150.95 -52.45 -158.15 -32.4 -178.75 4.05 -177.25 38.85 -175.85 56.55 -157.85 55.35 -155.45 53.8 -153.35 L50.05 -149.2 Q50.0 -156.7 41.45 -162.55 L40.85 -156.2 38.8 -161.05 Q37.65 -157.2 33.15 -154.85 28.6 -160.0 27.35 -166.05 24.85 -160.4 18.65 -155.85 12.2 -161.0 6.65 -168.55 1.5 -161.9 -6.8 -156.95 -15.35 -162.0 -20.05 -168.6 -24.95 -164.05 -28.85 -159.1 M-19.25 -169.35 L-20.05 -168.6 -19.25 -169.35 M61.85 -123.7 L59.35 -120.2 Q45.65 -102.55 11.75 -92.45 1.35 -89.95 -17.5 -95.95 -40.55 -109.0 -57.25 -124.5 L-53.2 -127.35 -50.3 -128.1 Q-46.85 -129.1 -45.35 -128.9 L-42.75 -128.9 -40.05 -129.15 Q-36.7 -129.15 -36.55 -127.5 L-36.55 -124.5 -36.65 -120.2 -35.7 -113.9 Q-34.8 -109.25 -34.4 -109.25 L-28.35 -110.6 -21.05 -111.9 Q-18.4 -111.9 -12.2 -104.95 L-5.9 -98.1 0.4 -103.95 Q6.95 -109.85 8.35 -109.85 L15.4 -106.45 22.2 -103.2 22.4 -102.95 22.45 -103.05 Q24.7 -102.05 26.1 -101.55 31.0 -110.1 31.9 -110.1 33.8 -109.0 35.7 -108.05 39.7 -105.95 40.45 -105.7 41.2 -107.35 42.35 -111.2 L44.2 -117.0 44.75 -118.8 45.25 -120.9 46.15 -124.25 Q47.65 -128.5 49.75 -128.5 L54.95 -127.75 56.45 -127.5 58.35 -127.6 58.6 -127.6 61.85 -123.7" fill="#efe2c6" fill-rule="evenodd" stroke="none"/>
      <path d="M-28.85 -159.1 Q-24.95 -164.05 -20.05 -168.6 -15.35 -162.0 -6.8 -156.95 1.5 -161.9 6.65 -168.55 12.2 -161.0 18.65 -155.85 24.85 -160.4 27.35 -166.05 28.6 -160.0 33.15 -154.85 37.65 -157.2 38.8 -161.05 L40.85 -156.2 Q42.75 -150.7 43.1 -144.5 47.0 -146.4 50.05 -149.2 L53.8 -153.35 56.45 -137.2 45.75 -141.2 Q25.85 -147.75 3.5 -152.6 -11.75 -150.45 -31.9 -146.15 L-37.9 -144.25 -37.05 -146.05 Q-33.75 -152.95 -28.85 -159.1 M-62.1 -145.5 Q-57.85 -152.6 -52.45 -158.15 -50.05 -150.95 -44.25 -145.4 L-42.45 -143.75 -41.6 -143.0 -45.9 -141.75 -62.1 -136.95 -62.1 -145.5" fill="#000000" fill-opacity="0.5019608" fill-rule="evenodd" stroke="none"/>
      <path d="M-2.65 -186.35 Q-1.75 -187.95 -0.75 -188.75 0.4 -189.6 1.15 -189.15 1.8 -188.75 1.65 -187.45 1.55 -186.0 0.65 -184.45 -0.25 -182.85 -1.4 -182.15 -2.5 -181.3 -3.15 -181.7 -3.9 -182.15 -3.8 -183.45 -3.55 -184.8 -2.65 -186.35 M-63.4 -129.35 Q-67.45 -130.5 -67.95 -133.65 -68.55 -136.8 -64.9 -140.35 L-62.1 -145.5 -62.1 -136.95 -65.05 -136.15 -63.4 -129.35 M56.55 -157.85 Q62.25 -152.05 66.15 -144.5 68.3 -143.4 69.35 -140.95 68.95 -138.8 67.15 -136.05 L66.2 -133.0 65.9 -132.0 Q64.65 -128.75 62.9 -125.6 L60.4 -131.4 62.15 -135.15 56.45 -137.2 53.8 -153.35 Q55.35 -155.45 56.55 -157.85 M20.65 -187.5 Q21.65 -186.85 22.4 -185.45 23.2 -184.05 23.35 -182.7 23.45 -181.55 22.9 -181.2 22.2 -180.8 21.15 -181.55 20.2 -182.3 19.5 -183.7 18.65 -185.1 18.5 -186.25 18.3 -187.5 19.0 -187.85 19.55 -188.25 20.65 -187.5" fill="#2b0f0f" fill-rule="evenodd" stroke="none"/>
      <path d="M-53.4 -167.15 L-54.7 -166.15 Q-57.2 -164.65 -60.5 -163.75 L-60.85 -163.75 Q-65.9 -163.75 -71.2 -168.3 -72.55 -169.45 -73.35 -173.25 -74.0 -176.25 -74.0 -178.5 L-73.95 -179.8 Q-72.55 -182.7 -69.85 -185.1 -66.95 -187.5 -64.0 -188.1 L-63.3 -188.2 Q-57.95 -188.9 -52.4 -183.45 L-50.95 -179.45 Q-50.15 -176.9 -50.15 -175.25 -50.15 -170.7 -52.95 -167.55 L-53.4 -167.15 M-57.7 -181.7 L-61.65 -177.25 -66.05 -181.45 -67.8 -179.65 -63.4 -175.35 -68.3 -169.8 -66.4 -168.1 -61.6 -173.6 -57.05 -169.3 -55.3 -171.1 -59.95 -175.5 -55.8 -180.15 -57.7 -181.7" fill="#ffffff" fill-rule="evenodd" stroke="none"/>
      <path d="M62.9 -125.6 L61.85 -123.7 58.6 -127.6 Q56.7 -129.5 54.6 -130.9 L52.9 -132.05 Q45.75 -136.15 36.05 -135.95 L37.8 -129.85 28.7 -129.5 Q-1.75 -128.4 -15.6 -123.95 L-6.4 -124.75 8.6 -125.6 Q17.4 -125.6 33.5 -122.8 L39.55 -121.8 40.35 -116.15 41.05 -110.25 Q37.7 -113.85 33.15 -114.8 L32.1 -115.05 31.65 -114.65 Q26.85 -110.0 22.45 -103.05 L22.4 -102.95 22.2 -103.2 Q17.25 -109.85 9.45 -113.65 L9.1 -113.85 8.85 -113.65 Q-1.15 -108.7 -6.9 -100.55 -10.05 -109.85 -14.9 -116.9 -23.6 -117.25 -32.75 -111.9 -31.65 -116.9 -31.1 -121.6 -30.25 -128.6 -30.5 -134.95 -38.7 -134.2 -46.15 -131.0 -51.05 -133.7 -54.95 -134.3 L-54.95 -134.95 Q-50.25 -139.2 -45.9 -141.75 L-41.6 -143.0 -39.1 -141.2 -37.9 -144.25 -31.9 -146.15 Q-11.75 -150.45 3.5 -152.6 25.85 -147.75 45.75 -141.2 L56.45 -137.2 62.15 -135.15 60.4 -131.4 62.9 -125.6 M10.1 -135.8 Q4.0 -134.45 -5.4 -135.8 4.0 -134.45 10.1 -135.8 M59.45 -129.35 L60.4 -131.4 59.45 -129.35 M27.1 -139.7 Q3.15 -142.1 -22.2 -140.35 3.15 -142.1 27.1 -139.7" fill="#8c2f2f" fill-rule="evenodd" stroke="none"/>
      <path d="M-57.7 -181.7 L-55.8 -180.15 -59.95 -175.5 -55.3 -171.1 -57.05 -169.3 -61.6 -173.6 -66.4 -168.1 -68.3 -169.8 -63.4 -175.35 -67.8 -179.65 -66.05 -181.45 -61.65 -177.25 -57.7 -181.7 M63.0 -185.1 L65.05 -183.7 61.9 -179.25 65.8 -174.0 63.8 -172.5 60.4 -177.05 57.85 -173.35 55.8 -174.75 58.85 -179.15 54.3 -185.2 56.3 -186.7 60.35 -181.3 63.0 -185.1" fill="#000000" fill-opacity="0.70980394" fill-rule="evenodd" stroke="none"/>
      <path d="M38.45 -191.9 Q55.2 -200.6 67.05 -195.05 76.75 -179.0 65.55 -160.4 L62.75 -164.65 Q74.0 -177.05 66.05 -189.9 51.15 -194.15 44.65 -186.25 L38.45 -191.9" fill="#4b82d3" fill-rule="evenodd" stroke="none"/>
      <path d="M44.65 -186.25 Q51.15 -194.15 66.05 -189.9 74.0 -177.05 62.75 -164.65 54.55 -176.75 44.65 -186.25 M63.0 -185.1 L60.35 -181.3 56.3 -186.7 54.3 -185.2 58.85 -179.15 55.8 -174.75 57.85 -173.35 60.4 -177.05 63.8 -172.5 65.8 -174.0 61.9 -179.25 65.05 -183.7 63.0 -185.1" fill="#d3d3d3" fill-rule="evenodd" stroke="none"/>
      <path d="M-73.2 -264.7 L-69.95 -262.6 Q-63.8 -258.8 -59.45 -258.05 L-60.6 -255.25 -60.65 -252.9 Q-60.65 -248.35 -55.85 -245.1 -51.45 -242.15 -44.5 -241.05 -44.9 -239.8 -47.5 -234.85 -49.9 -229.1 -49.9 -222.8 -49.9 -217.1 -48.4 -215.3 -47.15 -213.7 -42.0 -212.45 L-45.0 -209.5 Q-47.0 -207.5 -47.0 -205.6 -47.0 -204.1 -45.75 -202.1 L-45.35 -201.45 Q-50.8 -198.7 -55.35 -194.95 -56.1 -214.35 -59.25 -226.7 L-50.55 -230.05 -60.9 -234.85 -52.05 -238.15 Q-57.6 -242.65 -63.15 -244.95 -69.05 -255.5 -73.2 -264.7" fill="#ddeeff" fill-rule="evenodd" stroke="none"/>
      <path d="M-45.35 -201.45 L-45.75 -202.1 Q-47.0 -204.1 -47.0 -205.6 -47.0 -207.5 -45.0 -209.5 L-42.0 -212.45 Q-47.15 -213.7 -48.4 -215.3 -49.9 -217.1 -49.9 -222.8 -49.9 -229.1 -47.5 -234.85 -44.9 -239.8 -44.5 -241.05 -51.45 -242.15 -55.85 -245.1 -60.65 -248.35 -60.65 -252.9 L-60.6 -255.25 -59.45 -258.05 Q-63.8 -258.8 -69.95 -262.6 L-73.2 -264.7 -76.5 -272.55 Q-43.75 -255.55 -23.2 -212.05 L-21.95 -208.9 -26.35 -208.05 Q-36.9 -205.85 -45.35 -201.45" fill="#c9ddfc" fill-rule="evenodd" stroke="none"/>
      <path d="M-44.25 -145.4 L-44.35 -146.8 Q-44.35 -153.1 -41.6 -157.85 -39.3 -162.0 -34.15 -166.2 L-30.9 -161.9 -28.85 -159.1 Q-33.75 -152.95 -37.05 -146.05 L-37.9 -144.25 -39.1 -141.2 -41.6 -143.0 -42.45 -143.75 -44.25 -145.4 M22.2 -103.2 L15.4 -106.45 8.35 -109.85 Q6.95 -109.85 0.4 -103.95 L-5.9 -98.1 -12.2 -104.95 Q-18.4 -111.9 -21.05 -111.9 L-28.35 -110.6 -34.4 -109.25 Q-34.8 -109.25 -35.7 -113.9 L-36.65 -120.2 -36.55 -124.5 -36.55 -127.5 Q-36.7 -129.15 -40.05 -129.15 L-42.75 -128.9 -45.35 -128.9 Q-46.85 -129.1 -50.3 -128.1 L-53.2 -127.35 Q-49.8 -129.5 -46.15 -131.0 -38.7 -134.2 -30.5 -134.95 -30.25 -128.6 -31.1 -121.6 -31.65 -116.9 -32.75 -111.9 -23.6 -117.25 -14.9 -116.9 -10.05 -109.85 -6.9 -100.55 -1.15 -108.7 8.85 -113.65 L9.1 -113.85 9.45 -113.65 Q17.25 -109.85 22.2 -103.2 M37.8 -129.85 L36.05 -135.95 Q45.75 -136.15 52.9 -132.05 L54.6 -130.9 Q56.7 -129.5 58.6 -127.6 L58.35 -127.6 56.45 -127.5 54.95 -127.75 49.75 -128.5 Q47.65 -128.5 46.15 -124.25 L45.25 -120.9 44.75 -118.8 44.2 -117.0 42.35 -111.2 Q41.2 -107.35 40.45 -105.7 39.7 -105.95 35.7 -108.05 33.8 -109.0 31.9 -110.1 31.0 -110.1 26.1 -101.55 24.7 -102.05 22.45 -103.05 26.85 -110.0 31.65 -114.65 L32.1 -115.05 33.15 -114.8 Q37.7 -113.85 41.05 -110.25 L40.35 -116.15 39.55 -121.8 37.8 -129.85 M40.85 -156.2 L41.45 -162.55 Q50.0 -156.7 50.05 -149.2 47.0 -146.4 43.1 -144.5 42.75 -150.7 40.85 -156.2" fill="#fff5e0" fill-rule="evenodd" stroke="none"/>
      <path d="M-57.25 -124.5 L-63.4 -129.35 -65.05 -136.15 -62.1 -136.95 -45.9 -141.75 Q-50.25 -139.2 -54.95 -134.95 L-54.95 -134.3 Q-51.05 -133.7 -46.15 -131.0 -49.8 -129.5 -53.2 -127.35 L-57.25 -124.5 M39.55 -121.8 L33.5 -122.8 Q17.4 -125.6 8.6 -125.6 L-6.4 -124.75 -15.6 -123.95 Q-1.75 -128.4 28.7 -129.5 L37.8 -129.85 39.55 -121.8" fill="#702525" fill-rule="evenodd" stroke="none"/>
      <path d="M34.9 -184.55 L36.4 -185.2 Q35.7 -186.0 35.25 -187.2 L37.9 -185.75 41.75 -186.95 Q40.45 -185.75 38.95 -184.7 L40.05 -182.4 Q38.7 -183.05 37.65 -183.95 L36.4 -183.2 35.45 -182.8 36.4 -180.65 Q35.05 -181.3 34.0 -182.15 L31.25 -181.15 32.0 -179.4 30.1 -180.7 27.7 -180.2 29.4 -181.45 Q28.75 -182.2 28.45 -183.1 L30.4 -181.95 32.8 -183.45 Q32.1 -184.35 31.65 -185.45 L34.05 -184.2 34.9 -184.55 M-60.9 -109.25 Q-60.5 -111.75 -59.25 -113.65 L-64.15 -118.9 Q-60.75 -117.4 -57.6 -115.55 -55.85 -117.15 -53.15 -118.05 -53.9 -115.8 -55.1 -114.0 L-51.4 -111.25 Q-49.65 -112.65 -47.15 -113.5 -47.9 -111.25 -49.15 -109.45 L-45.35 -105.8 Q-44.0 -106.95 -42.0 -107.55 -42.7 -105.6 -43.75 -104.15 L-41.2 -101.0 -44.85 -102.95 Q-46.25 -101.75 -48.05 -100.75 -47.75 -102.7 -46.75 -104.15 -49.15 -105.6 -51.2 -107.1 -52.9 -105.7 -54.95 -104.7 -54.6 -107.05 -53.55 -108.75 L-57.2 -111.75 Q-58.75 -110.35 -60.9 -109.25" fill="#e27373" fill-rule="evenodd" stroke="none"/>
      <path d="M79.9 -154.35 L80.4 -154.2 Q80.3 -143.9 77.0 -133.7 75.5 -129.4 73.5 -125.0 L71.3 -121.6 Q44.35 -82.75 4.7 -78.95 4.05 -74.55 -1.9 -73.2 -6.2 -75.85 -6.65 -78.6 -49.5 -88.65 -78.15 -123.1 -87.05 -134.2 -91.35 -148.55 -86.35 -143.5 -77.5 -140.5 L-66.4 -151.65 Q-24.6 -193.3 12.0 -200.45 23.85 -193.5 34.9 -184.55 L34.05 -184.2 31.65 -185.45 Q32.1 -184.35 32.8 -183.45 L30.4 -181.95 28.45 -183.1 Q28.75 -182.2 29.4 -181.45 L27.7 -180.2 30.1 -180.7 32.0 -179.4 31.25 -181.15 34.0 -182.15 Q35.05 -181.3 36.4 -180.65 L35.45 -182.8 36.4 -183.2 Q55.2 -167.55 71.45 -145.65 76.75 -148.65 79.9 -154.35 M-2.65 -186.35 Q-3.55 -184.8 -3.8 -183.45 -3.9 -182.15 -3.15 -181.7 -2.5 -181.3 -1.4 -182.15 -0.25 -182.85 0.65 -184.45 1.55 -186.0 1.65 -187.45 1.8 -188.75 1.15 -189.15 0.4 -189.6 -0.75 -188.75 -1.75 -187.95 -2.65 -186.35 M-62.1 -145.5 L-64.9 -140.35 Q-68.55 -136.8 -67.95 -133.65 -67.45 -130.5 -63.4 -129.35 L-57.25 -124.5 Q-40.55 -109.0 -17.5 -95.95 1.35 -89.95 11.75 -92.45 45.65 -102.55 59.35 -120.2 L61.85 -123.7 62.9 -125.6 Q64.65 -128.75 65.9 -132.0 L66.2 -133.0 67.15 -136.05 Q68.95 -138.8 69.35 -140.95 68.3 -143.4 66.15 -144.5 62.25 -152.05 56.55 -157.85 38.85 -175.85 4.05 -177.25 -32.4 -178.75 -52.45 -158.15 -57.85 -152.6 -62.1 -145.5 M-72.35 -137.45 Q-70.7 -143.65 -65.75 -146.55 -70.7 -143.65 -72.35 -137.45 M-60.9 -109.25 Q-58.75 -110.35 -57.2 -111.75 L-53.55 -108.75 Q-54.6 -107.05 -54.95 -104.7 -52.9 -105.7 -51.2 -107.1 -49.15 -105.6 -46.75 -104.15 -47.75 -102.7 -48.05 -100.75 -46.25 -101.75 -44.85 -102.95 L-41.2 -101.0 -43.75 -104.15 Q-42.7 -105.6 -42.0 -107.55 -44.0 -106.95 -45.35 -105.8 L-49.15 -109.45 Q-47.9 -111.25 -47.15 -113.5 -49.65 -112.65 -51.4 -111.25 L-55.1 -114.0 Q-53.9 -115.8 -53.15 -118.05 -55.85 -117.15 -57.6 -115.55 -60.75 -117.4 -64.15 -118.9 L-59.25 -113.65 Q-60.5 -111.75 -60.9 -109.25 M20.65 -187.5 Q19.55 -188.25 19.0 -187.85 18.3 -187.5 18.5 -186.25 18.65 -185.1 19.5 -183.7 20.2 -182.3 21.15 -181.55 22.2 -180.8 22.9 -181.2 23.45 -181.55 23.35 -182.7 23.2 -184.05 22.4 -185.45 21.65 -186.85 20.65 -187.5 M31.9 -93.7 Q0.0 -77.1 -26.35 -96.35 0.0 -77.1 31.9 -93.7" fill="url(#gradient0)" fill-rule="evenodd" stroke="none"/>
      <path d="M-52.3 -168.05 L-53.4 -167.15 -52.95 -167.55 Q-50.15 -170.7 -50.15 -175.25 -50.15 -176.9 -50.95 -179.45 L-52.4 -183.45 Q-50.25 -181.3 -48.05 -178.25 -48.4 -171.85 -52.3 -168.05 M-60.5 -163.75 Q-66.0 -162.3 -73.75 -162.5 -77.5 -172.7 -73.95 -179.8 L-74.0 -178.5 Q-74.0 -176.25 -73.35 -173.25 -72.55 -169.45 -71.2 -168.3 -65.9 -163.75 -60.85 -163.75 L-60.5 -163.75" fill="#e5e5e5" fill-rule="evenodd" stroke="none"/>
      <path d="M-78.15 -191.75 Q-67.8 -195.55 -58.75 -191.9 -53.15 -189.65 -48.05 -184.45 -43.7 -179.05 -47.6 -171.5 -49.25 -169.6 -52.3 -168.05 -48.4 -171.85 -48.05 -178.25 -50.25 -181.3 -52.4 -183.45 -57.95 -188.9 -63.3 -188.2 L-64.0 -188.1 Q-69.2 -191.4 -78.15 -191.75" fill="#4e87db" fill-rule="evenodd" stroke="none"/>
      <path d="M-45.35 -201.45 Q-36.9 -205.85 -26.35 -208.05 M-23.2 -212.05 Q-43.75 -255.55 -76.5 -272.55 L-73.2 -264.7 Q-69.05 -255.5 -63.15 -244.95 -57.6 -242.65 -52.05 -238.15 L-60.9 -234.85 -50.55 -230.05 -59.25 -226.7 Q-56.1 -214.35 -55.35 -194.95 -50.8 -198.7 -45.35 -201.45 M-76.5 -272.55 L-80.65 -274.65 -76.85 -275.3 Q-34.15 -259.45 -13.7 -214.95 -9.3 -214.7 -7.7 -210.4 1.5 -215.35 5.8 -208.9 L11.75 -208.9 14.85 -207.4 Q27.5 -201.1 38.45 -191.9 55.2 -200.6 67.05 -195.05 76.75 -179.0 65.55 -160.4 L68.2 -156.1 Q74.0 -156.6 79.9 -154.35 L80.4 -154.2 Q80.3 -143.9 77.0 -133.7 75.5 -129.4 73.5 -125.0 L71.3 -121.6 Q44.35 -82.75 4.7 -78.95 4.05 -74.55 -1.9 -73.2 -6.2 -75.85 -6.65 -78.6 -49.5 -88.65 -78.15 -123.1 -87.05 -134.2 -91.35 -148.55 -85.6 -153.95 -76.35 -157.25 -88.7 -171.5 -78.15 -191.75 -67.8 -195.55 -58.75 -191.9 L-55.35 -194.95 M-28.85 -159.1 Q-24.95 -164.05 -20.05 -168.6 L-19.25 -169.35 M-52.3 -168.05 L-53.4 -167.15 -54.7 -166.15 Q-57.2 -164.65 -60.5 -163.75 -66.0 -162.3 -73.75 -162.5 -77.5 -172.7 -73.95 -179.8 -72.55 -182.7 -69.85 -185.1 -66.95 -187.5 -64.0 -188.1 M-2.65 -186.35 Q-1.75 -187.95 -0.75 -188.75 0.4 -189.6 1.15 -189.15 1.8 -188.75 1.65 -187.45 1.55 -186.0 0.65 -184.45 -0.25 -182.85 -1.4 -182.15 -2.5 -181.3 -3.15 -181.7 -3.9 -182.15 -3.8 -183.45 -3.55 -184.8 -2.65 -186.35 M11.75 -208.9 Q-24.1 -200.6 -41.3 -182.4 M-52.4 -183.45 Q-57.95 -188.9 -63.3 -188.2 M-63.4 -129.35 Q-67.45 -130.5 -67.95 -133.65 -68.55 -136.8 -64.9 -140.35 L-62.1 -145.5 Q-57.85 -152.6 -52.45 -158.15 -32.4 -178.75 4.05 -177.25 38.85 -175.85 56.55 -157.85 62.25 -152.05 66.15 -144.5 68.3 -143.4 69.35 -140.95 68.95 -138.8 67.15 -136.05 L66.2 -133.0 65.9 -132.0 Q64.65 -128.75 62.9 -125.6 L61.85 -123.7 59.35 -120.2 Q45.65 -102.55 11.75 -92.45 1.35 -89.95 -17.5 -95.95 -40.55 -109.0 -57.25 -124.5 L-63.4 -129.35 -65.05 -136.15 -62.1 -136.95 -62.1 -145.5 M-76.35 -157.25 L-74.85 -155.7 M-65.75 -146.55 Q-70.7 -143.65 -72.35 -137.45 M22.2 -103.2 Q17.25 -109.85 9.45 -113.65 L9.1 -113.85 8.85 -113.65 Q-1.15 -108.7 -6.9 -100.55 -10.05 -109.85 -14.9 -116.9 -23.6 -117.25 -32.75 -111.9 -31.65 -116.9 -31.1 -121.6 -30.25 -128.6 -30.5 -134.95 -38.7 -134.2 -46.15 -131.0 -49.8 -129.5 -53.2 -127.35 L-57.25 -124.5 M-5.4 -135.8 Q4.0 -134.45 10.1 -135.8 M37.8 -129.85 L36.05 -135.95 Q45.75 -136.15 52.9 -132.05 L54.6 -130.9 Q56.7 -129.5 58.6 -127.6 L61.85 -123.7 M-41.6 -143.0 L-42.45 -143.75 -44.25 -145.4 Q-50.05 -150.95 -52.45 -158.15 M-41.6 -143.0 L-45.9 -141.75 -62.1 -136.95 M-37.9 -144.25 L-39.1 -141.2 -41.6 -143.0 M-37.9 -144.25 L-37.05 -146.05 Q-33.75 -152.95 -28.85 -159.1 M56.45 -137.2 L45.75 -141.2 Q25.85 -147.75 3.5 -152.6 -11.75 -150.45 -31.9 -146.15 L-37.9 -144.25 M-20.05 -168.6 Q-15.35 -162.0 -6.8 -156.95 1.5 -161.9 6.65 -168.55 12.2 -161.0 18.65 -155.85 24.85 -160.4 27.35 -166.05 28.6 -160.0 33.15 -154.85 37.65 -157.2 38.8 -161.05 L40.85 -156.2 Q42.75 -150.7 43.1 -144.5 47.0 -146.4 50.05 -149.2 L53.8 -153.35 Q55.35 -155.45 56.55 -157.85 M-58.75 -191.9 Q-53.15 -189.65 -48.05 -184.45 M-52.3 -168.05 Q-48.4 -171.85 -48.05 -178.25 -50.25 -181.3 -52.4 -183.45 M38.45 -191.9 L44.65 -186.25 Q51.15 -194.15 66.05 -189.9 74.0 -177.05 62.75 -164.65 L65.55 -160.4 M20.65 -187.5 Q19.55 -188.25 19.0 -187.85 18.3 -187.5 18.5 -186.25 18.65 -185.1 19.5 -183.7 20.2 -182.3 21.15 -181.55 22.2 -180.8 22.9 -181.2 23.45 -181.55 23.35 -182.7 23.2 -184.05 22.4 -185.45 21.65 -186.85 20.65 -187.5 M44.65 -186.25 Q54.55 -176.75 62.75 -164.65 M60.4 -131.4 L59.45 -129.35 M22.45 -103.05 L22.4 -102.95 22.2 -103.2 M56.45 -137.2 L62.15 -135.15 60.4 -131.4 62.9 -125.6 M53.8 -153.35 L56.45 -137.2 M68.2 -156.1 L69.8 -153.35 M39.55 -121.8 L37.8 -129.85 M22.45 -103.05 Q26.85 -110.0 31.65 -114.65 L32.1 -115.05 33.15 -114.8 Q37.7 -113.85 41.05 -110.25 L40.35 -116.15 39.55 -121.8 M-22.2 -140.35 Q3.15 -142.1 27.1 -139.7" fill="none" stroke="#000000" stroke-linecap="round" stroke-linejoin="round" stroke-opacity="0.4" stroke-width="0.7000000000000001"/>
      <path d="M-26.35 -96.35 Q0.0 -77.1 31.9 -93.7" fill="none" stroke="#000000" stroke-linecap="round" stroke-linejoin="round" stroke-opacity="0.2" stroke-width="0.7000000000000001"/>
    </g>
    <linearGradient gradientTransform="matrix(-0.0635, 0.0017, -0.0021, -0.0776, -5.45, -136.7)" gradientUnits="userSpaceOnUse" id="gradient0" spreadMethod="pad" x1="-819.2" x2="819.2">
      <stop offset="0.00392156862745098" stop-color="#c6ddff"/>
      <stop offset="1.0" stop-color="#ffffff"/>
    </linearGradient>
  </defs>
</svg>
