<?xml version="1.0" encoding="UTF-8" standalone="no"?>
<svg xmlns:xlink="http://www.w3.org/1999/xlink" height="531.5px" width="460.6px" xmlns="http://www.w3.org/2000/svg">
  <g transform="matrix(1.0, 0.0, 0.0, 1.0, 193.65, 334.05)">
    <use height="205.3" transform="matrix(0.4599, -7.0E-4, 7.0E-4, 0.4599, -71.2494, -188.8244)" width="259.1" xlink:href="#sprite0"/>
  </g>
  <defs>
    <g id="sprite0" transform="matrix(1.0, 0.0, 0.0, 1.0, 129.65, 102.75)">
      <use height="205.3" transform="matrix(1.0, 0.0, 0.0, 1.0, -129.65, -102.75)" width="259.1" xlink:href="#shape0"/>
    </g>
    <g id="shape0" transform="matrix(1.0, 0.0, 0.0, 1.0, 129.65, 102.75)">
      <path d="M-84.65 -47.9 Q-83.4 -55.35 -80.25 -61.8 -69.75 -83.65 -38.05 -93.55 -24.65 -96.65 -11.7 -95.95 -4.35 -98.95 4.7 -100.8 41.05 -105.2 64.6 -81.1 M-42.6 -60.35 Q-37.8 -85.4 -11.7 -95.95 10.3 -94.8 30.9 -82.55 M-128.4 43.5 L-126.5 -7.05 -103.1 34.45 -103.1 -15.45 -82.0 24.25" fill="none" stroke="#000000" stroke-linecap="round" stroke-linejoin="round" stroke-opacity="0.6627451" stroke-width="2.5"/>
      <path d="M32.25 -33.7 Q48.0 -35.35 63.4 -34.05 L67.8 -32.9 80.35 -29.1 Q94.5 -24.0 102.55 -14.75 L110.05 -6.15 Q114.3 -0.55 115.2 4.75 115.85 8.5 118.0 16.0 119.7 21.8 119.95 26.75 120.05 28.35 119.65 30.35 L119.1 30.5 Q112.05 33.05 103.6 34.25 L102.8 34.35 97.4 34.9 89.55 35.25 80.25 35.05 74.6 34.65 65.95 33.7 61.5 33.05 Q9.55 18.2 -8.95 27.65 -13.4 29.9 -15.9 33.55 -23.45 50.4 -5.3 58.7 5.6 63.7 25.85 65.55 L49.7 66.5 Q63.85 66.2 75.0 63.7 78.45 62.2 70.85 59.3 65.85 56.7 65.6 51.35 L65.25 42.6 Q70.3 45.4 76.0 45.4 L78.65 45.2 78.85 53.0 79.1 54.3 79.05 57.15 Q79.25 61.2 82.25 62.7 85.25 64.2 85.45 68.2 85.9 75.3 70.55 88.75 64.4 94.15 58.55 97.85 L54.45 100.2 Q47.8 101.65 40.25 101.55 L34.85 101.45 Q14.55 100.65 -4.55 89.7 L-7.6 87.85 -15.75 80.95 -18.55 78.25 Q-21.65 73.1 -24.05 67.65 -31.05 51.95 -32.05 35.0 -33.8 4.7 -4.35 -16.45 7.6 -25.0 22.9 -30.65 L32.25 -33.7 M20.0 84.4 Q26.55 84.4 29.55 83.0 37.0 79.45 41.55 77.95 L41.45 76.3 40.35 76.3 35.1 76.25 19.6 75.4 0.35 74.5 -5.45 75.1 Q-4.9 78.75 5.1 81.8 13.7 84.4 20.0 84.4" fill="#ad944a" fill-rule="evenodd" stroke="none"/>
      <path d="M-18.55 78.25 L-24.65 71.3 Q-39.45 52.6 -38.3 26.5 -37.9 18.25 -35.95 11.25 -25.7 -14.6 -0.35 -26.05 L2.85 -27.45 Q11.0 -30.45 21.1 -32.15 L32.25 -33.7 22.9 -30.65 Q7.6 -25.0 -4.35 -16.45 -33.8 4.7 -32.05 35.0 -31.05 51.95 -24.05 67.65 -21.65 73.1 -18.55 78.25 M63.4 -34.05 Q73.1 -33.25 82.7 -31.25 112.8 -25.05 123.1 4.5 124.3 8.05 125.1 11.75 133.85 25.95 119.65 30.35 120.05 28.35 119.95 26.75 119.7 21.8 118.0 16.0 115.85 8.5 115.2 4.75 114.3 -0.55 110.05 -6.15 L102.55 -14.75 Q94.5 -24.0 80.35 -29.1 L67.8 -32.9 63.4 -34.05 M79.1 54.3 Q80.5 58.95 88.05 62.4 92.0 64.7 91.6 69.65 L91.0 72.65 88.55 74.8 Q84.45 78.85 81.5 83.75 70.9 96.65 54.45 100.2 L58.55 97.85 Q64.4 94.15 70.55 88.75 85.9 75.3 85.45 68.2 85.25 64.2 82.25 62.7 79.25 61.2 79.05 57.15 L79.1 54.3 M20.0 84.4 Q13.7 84.4 5.1 81.8 -4.9 78.75 -5.45 75.1 L0.35 74.5 19.6 75.4 35.1 76.25 40.35 76.3 41.45 76.3 41.55 77.95 Q37.0 79.45 29.55 83.0 26.55 84.4 20.0 84.4" fill="#d9bf77" fill-rule="evenodd" stroke="none"/>
      <path d="M90.15 45.05 L88.75 44.7 83.85 43.35 Q83.1 43.35 81.2 44.4 80.15 44.95 78.65 45.2 L76.0 45.4 Q70.3 45.4 65.25 42.6 L64.55 42.2 59.05 39.0 56.15 40.75 Q54.75 41.55 53.35 41.95 L53.35 41.55 Q52.95 35.35 39.25 33.55 L27.25 32.25 Q20.1 31.4 16.2 30.0 L9.3 30.0 9.35 30.9 6.9 32.05 2.95 32.65 Q-1.85 32.65 -6.05 30.0 -7.7 28.95 -8.95 27.65 9.55 18.2 61.5 33.05 L65.95 33.7 74.6 34.65 80.25 35.05 89.55 35.25 97.4 34.9 Q97.0 38.95 93.9 41.9 L90.15 45.05" fill="#e6e6e6" fill-rule="evenodd" stroke="none"/>
      <path d="M103.6 34.25 Q103.35 38.45 101.35 41.75 98.8 46.0 94.7 46.0 L90.15 45.05 93.9 41.9 Q97.0 38.95 97.4 34.9 L102.8 34.35 103.6 34.25 M53.35 41.95 L50.15 42.45 Q47.8 42.45 41.55 40.05 L40.6 39.65 35.7 37.6 Q34.8 37.6 32.2 38.45 L28.15 39.3 Q22.45 39.3 17.45 37.25 11.5 34.8 10.45 30.6 L9.95 30.6 9.35 30.9 9.3 30.0 16.2 30.0 Q20.1 31.4 27.25 32.25 L39.25 33.55 Q52.95 35.35 53.35 41.55 L53.35 41.95" fill="#ffffff" fill-rule="evenodd" stroke="none"/>
      <path d="M40.85 59.4 L41.75 56.95 Q43.3 52.35 43.05 47.8 42.9 45.45 41.15 40.95 L40.6 39.65 41.55 40.05 Q47.8 42.45 50.15 42.45 L53.35 41.95 Q54.75 41.55 56.15 40.75 L59.05 39.0 64.55 42.2 65.25 42.6 65.6 51.35 Q65.85 56.7 70.85 59.3 78.45 62.2 75.0 63.7 63.85 66.2 49.7 66.5 47.05 63.1 42.35 60.25 L40.85 59.4" fill="#360000" fill-rule="evenodd" stroke="none"/>
      <path d="M40.6 39.65 L41.15 40.95 Q42.9 45.45 43.05 47.8 43.3 52.35 41.75 56.95 L40.85 59.4 Q34.7 56.05 28.65 56.05 L23.2 56.65 23.2 57.1 21.15 56.15 Q15.55 53.8 10.85 53.8 3.0 53.8 -0.15 55.2 L-5.3 58.7 Q-23.45 50.4 -15.9 33.55 -13.4 29.9 -8.95 27.65 -7.7 28.95 -6.05 30.0 -1.85 32.65 2.95 32.65 L6.9 32.05 9.35 30.9 9.95 30.6 10.45 30.6 Q11.5 34.8 17.45 37.25 22.45 39.3 28.15 39.3 L32.2 38.45 Q34.8 37.6 35.7 37.6 L40.6 39.65" fill="#1f0000" fill-rule="evenodd" stroke="none"/>
      <path d="M40.85 59.4 L42.35 60.25 Q47.05 63.1 49.7 66.5 L25.85 65.55 Q5.6 63.7 -5.3 58.7 L-0.15 55.2 Q3.0 53.8 10.85 53.8 15.55 53.8 21.15 56.15 L23.2 57.1 23.2 56.65 28.65 56.05 Q34.7 56.05 40.85 59.4 M27.8 61.0 Q27.0 59.0 23.2 57.1 27.0 59.0 27.8 61.0" fill="#ff0000" fill-rule="evenodd" stroke="none"/>
      <path d="M-18.55 78.25 L-24.65 71.3 Q-39.45 52.6 -38.3 26.5 -37.9 18.25 -35.95 11.25 -25.7 -14.6 -0.35 -26.05 L2.85 -27.45 Q11.0 -30.45 21.1 -32.15 L32.25 -33.7 Q48.0 -35.35 63.4 -34.05 73.1 -33.25 82.7 -31.25 112.8 -25.05 123.1 4.5 124.3 8.05 125.1 11.75 133.85 25.95 119.65 30.35 L119.1 30.5 Q112.05 33.05 103.6 34.25 103.35 38.45 101.35 41.75 98.8 46.0 94.7 46.0 L90.15 45.05 88.75 44.7 83.85 43.35 Q83.1 43.35 81.2 44.4 80.15 44.95 78.65 45.2 L78.85 53.0 79.1 54.3 Q80.5 58.95 88.05 62.4 92.0 64.7 91.6 69.65 L91.0 72.65 88.55 74.8 Q84.45 78.85 81.5 83.75 70.9 96.65 54.45 100.2 47.8 101.65 40.25 101.55 L34.85 101.45 Q14.55 100.65 -4.55 89.7 L-7.6 87.85 -15.75 80.95 -18.55 78.25 M-8.95 27.65 Q9.55 18.2 61.5 33.05 L65.95 33.7 74.6 34.65 80.25 35.05 89.55 35.25 97.4 34.9 102.8 34.35 103.6 34.25 M40.85 59.4 L42.35 60.25 Q47.05 63.1 49.7 66.5 63.85 66.2 75.0 63.7 78.45 62.2 70.85 59.3 65.85 56.7 65.6 51.35 L65.25 42.6 64.55 42.2 59.05 39.0 56.15 40.75 Q54.75 41.55 53.35 41.95 L50.15 42.45 Q47.8 42.45 41.55 40.05 L40.6 39.65 35.7 37.6 Q34.8 37.6 32.2 38.45 L28.15 39.3 Q22.45 39.3 17.45 37.25 11.5 34.8 10.45 30.6 L9.95 30.6 9.35 30.9 6.9 32.05 2.95 32.65 Q-1.85 32.65 -6.05 30.0 -7.7 28.95 -8.95 27.65 -13.4 29.9 -15.9 33.55 -23.45 50.4 -5.3 58.7 L-0.15 55.2 Q3.0 53.8 10.85 53.8 15.55 53.8 21.15 56.15 L23.2 57.1 23.2 56.65 28.65 56.05 Q34.7 56.05 40.85 59.4 M65.25 42.6 Q70.3 45.4 76.0 45.4 L78.65 45.2 M23.2 57.1 Q27.0 59.0 27.8 61.0 M49.7 66.5 L25.85 65.55 Q5.6 63.7 -5.3 58.7" fill="none" stroke="#000000" stroke-linecap="round" stroke-linejoin="round" stroke-opacity="0.6627451" stroke-width="2.0"/>
    </g>
  </defs>
</svg>
