<?xml version="1.0" encoding="UTF-8" standalone="no"?>
<svg xmlns:xlink="http://www.w3.org/1999/xlink" height="531.5px" width="460.6px" xmlns="http://www.w3.org/2000/svg">
  <g transform="matrix(1.0, 0.0, 0.0, 1.0, 193.65, 334.05)">
    <use height="170.7" transform="matrix(1.0, 0.0, 0.0, 1.0, -135.3, -249.75)" width="222.15" xlink:href="#shape0"/>
  </g>
  <defs>
    <g id="shape0" transform="matrix(1.0, 0.0, 0.0, 1.0, 135.3, 249.75)">
      <path d="M63.65 -130.15 L62.75 -132.1 Q60.9 -135.45 61.75 -138.4 63.25 -144.35 59.45 -153.3 57.55 -157.65 51.95 -167.25 46.85 -175.55 43.55 -179.6 L38.35 -184.5 32.5 -190.2 Q28.3 -194.75 19.05 -199.35 L17.45 -200.15 Q9.1 -203.85 3.5 -204.35 L2.2 -204.35 -4.9 -205.75 -12.9 -206.9 -23.7 -207.75 -26.8 -207.65 Q-34.05 -207.05 -42.35 -203.4 -53.5 -198.4 -53.5 -192.75 -53.5 -191.1 -47.4 -188.25 L-47.4 -188.15 Q-47.75 -187.75 -47.75 -186.75 L-48.35 -186.0 -48.95 -185.9 -49.3 -186.2 -53.35 -187.45 -54.5 -187.75 Q-59.8 -189.25 -59.8 -191.1 -59.8 -193.75 -57.05 -197.7 L-56.15 -198.9 -54.4 -200.45 -51.3 -202.85 Q-47.35 -205.1 -43.0 -206.45 L-34.65 -209.05 -26.6 -211.0 -17.55 -212.35 -16.3 -212.65 -16.95 -212.35 -8.3 -211.85 -5.5 -211.4 -1.25 -210.15 -0.9 -210.15 2.2 -209.3 Q10.45 -206.8 17.45 -203.45 30.05 -197.4 38.65 -188.45 47.0 -179.85 59.25 -160.55 66.6 -150.6 64.8 -133.35 L63.85 -130.85 63.65 -130.15 M-45.1 -186.9 L-43.55 -185.6 Q-41.1 -183.4 -41.1 -180.15 L-41.8 -177.2 -45.15 -169.5 Q-45.8 -163.65 -48.05 -153.65 L-50.45 -144.05 Q-51.0 -141.35 -52.95 -137.0 L-56.15 -130.4 Q-57.45 -127.1 -60.65 -121.75 -61.75 -119.7 -61.95 -116.45 L-61.95 -115.35 -61.25 -111.85 Q-60.25 -108.55 -58.15 -106.2 -55.1 -102.75 -47.75 -98.25 -52.3 -99.75 -60.25 -104.1 -62.95 -105.55 -65.0 -106.9 -65.3 -108.85 -67.55 -111.4 -70.3 -114.45 -70.2 -115.5 -70.05 -116.85 -65.95 -128.1 -61.35 -140.0 -60.7 -142.1 -59.7 -146.95 -57.3 -153.65 -55.05 -160.3 -51.45 -168.8 L-47.4 -178.2 -46.4 -180.15 Q-45.1 -184.5 -45.1 -186.5 L-45.1 -186.9 M-60.65 -99.45 Q-60.8 -98.95 -61.35 -98.75 L-62.65 -97.25 Q-67.0 -98.75 -68.9 -100.15 L-66.4 -102.45 Q-64.3 -100.75 -60.65 -99.45 M68.5 -101.45 Q68.45 -102.15 68.05 -102.55 L68.6 -103.4 70.1 -105.2 Q69.7 -103.65 68.5 -101.45 M66.9 -103.15 L66.25 -103.15 66.4 -104.55 67.6 -108.35 67.9 -112.1 Q68.05 -114.45 67.8 -115.45 L66.8 -119.5 Q66.6 -120.35 65.1 -122.35 64.4 -123.4 64.25 -124.45 L65.25 -126.8 66.1 -128.5 67.05 -126.5 Q69.85 -121.45 70.1 -120.2 70.55 -116.55 70.25 -109.55 69.45 -106.75 68.45 -105.25 L66.9 -103.15 M-54.65 -106.8 Q-56.05 -107.6 -58.4 -110.1 L-58.3 -110.45 -56.15 -110.25 Q-39.2 -102.95 -29.55 -99.8 -24.95 -98.25 -19.4 -97.5 L-9.45 -95.75 Q-12.1 -94.75 -13.85 -94.2 L-20.9 -95.25 -23.4 -95.6 -25.7 -96.15 -30.7 -97.95 -35.7 -99.9 -40.5 -101.45 Q-44.3 -102.4 -49.15 -104.8 L-55.8 -108.35 -56.05 -108.35 -54.65 -106.8" fill="#66380a" fill-rule="evenodd" stroke="none"/>
      <path d="M28.55 -204.8 Q31.05 -203.0 42.3 -191.5 47.15 -186.75 52.8 -177.8 60.45 -165.5 62.15 -163.2 65.7 -158.3 68.05 -148.35 68.6 -145.7 68.35 -141.4 68.05 -136.0 68.2 -134.35 68.2 -133.0 69.55 -130.7 L71.55 -127.1 Q73.4 -123.85 73.35 -120.1 L73.05 -115.2 73.35 -113.75 73.05 -111.8 73.4 -110.1 Q74.1 -108.15 74.1 -107.2 73.8 -103.45 69.55 -96.85 65.5 -90.55 62.05 -87.85 56.25 -83.35 49.65 -81.7 32.85 -77.6 -2.65 -79.85 -40.1 -82.0 -63.15 -90.5 -74.65 -94.9 -74.3 -100.6 -74.3 -101.2 -72.4 -103.45 -70.6 -105.55 -70.45 -106.75 L-72.7 -110.55 Q-74.95 -114.2 -74.85 -115.85 -74.7 -117.45 -70.6 -129.0 L-65.4 -143.3 Q-63.45 -149.45 -62.25 -153.65 L-61.25 -157.05 Q-58.7 -165.05 -55.95 -170.6 L-50.6 -182.3 Q-55.45 -182.5 -59.45 -184.8 -64.0 -187.45 -64.0 -190.85 -64.0 -194.75 -61.95 -198.55 L-60.7 -200.75 Q-58.3 -203.4 -55.35 -205.4 -51.3 -207.45 -47.05 -209.05 -43.3 -210.8 -39.35 -212.2 L-31.0 -214.35 -21.85 -215.7 -13.3 -216.4 -4.9 -216.3 3.05 -214.75 Q11.3 -212.75 17.45 -210.3 24.2 -207.75 28.55 -204.8 M63.65 -130.15 L63.85 -130.85 64.8 -133.35 Q66.6 -150.6 59.25 -160.55 47.0 -179.85 38.65 -188.45 30.05 -197.4 17.45 -203.45 10.45 -206.8 2.2 -209.3 L-0.9 -210.15 -1.25 -210.15 -5.5 -211.4 -8.3 -211.85 -16.95 -212.35 -16.3 -212.65 -17.55 -212.35 -26.6 -211.0 -34.65 -209.05 -43.0 -206.45 Q-47.35 -205.1 -51.3 -202.85 L-54.4 -200.45 -56.15 -198.9 -57.05 -197.7 Q-59.8 -193.75 -59.8 -191.1 -59.8 -189.25 -54.5 -187.75 L-53.35 -187.45 -49.3 -186.2 -48.95 -185.9 -48.35 -186.0 -47.75 -186.75 Q-47.75 -187.75 -47.4 -188.15 L-47.2 -188.4 Q-45.15 -190.5 -45.1 -186.9 L-45.1 -186.5 Q-45.1 -184.5 -46.4 -180.15 L-47.4 -178.2 -51.45 -168.8 Q-55.05 -160.3 -57.3 -153.65 -59.7 -146.95 -60.7 -142.1 -61.35 -140.0 -65.95 -128.1 -70.05 -116.85 -70.2 -115.5 -70.3 -114.45 -67.55 -111.4 -65.3 -108.85 -65.0 -106.9 -62.95 -105.55 -60.25 -104.1 -52.3 -99.75 -47.75 -98.25 L-45.8 -97.85 -48.8 -97.1 Q-53.5 -97.4 -58.3 -98.75 L-60.65 -99.45 Q-64.3 -100.75 -66.4 -102.45 L-68.9 -100.15 Q-67.0 -98.75 -62.65 -97.25 -56.75 -95.15 -46.1 -92.8 L-26.8 -88.95 Q-5.9 -85.25 18.15 -83.85 39.85 -82.55 52.1 -86.9 58.2 -88.95 60.75 -91.65 63.1 -93.15 66.5 -98.1 L68.5 -101.45 Q69.7 -103.65 70.1 -105.2 L68.6 -103.4 68.05 -102.55 Q63.65 -96.65 58.25 -94.6 L58.1 -94.75 Q61.45 -96.65 64.15 -99.9 L66.9 -103.15 68.45 -105.25 Q69.45 -106.75 70.25 -109.55 70.55 -116.55 70.1 -120.2 69.85 -121.45 67.05 -126.5 L66.1 -128.5 65.25 -126.8 64.25 -124.45 Q62.75 -121.35 61.75 -120.05 L61.55 -120.05 62.3 -125.3 Q62.75 -128.05 63.65 -130.15 M54.45 -156.6 Q59.1 -145.05 58.8 -140.5 58.2 -132.1 56.45 -126.8 L49.45 -110.25 Q42.7 -93.75 37.05 -88.85 31.9 -84.35 21.8 -84.9 -2.55 -86.45 -14.75 -108.35 -18.8 -115.85 -20.8 -124.45 -22.4 -130.75 -22.15 -133.8 -21.75 -142.25 -14.9 -153.65 L-8.45 -163.25 Q-4.95 -167.95 14.5 -190.8 15.8 -192.25 17.45 -192.8 20.3 -193.85 24.05 -191.4 27.1 -189.5 30.95 -185.3 L38.5 -178.9 Q43.85 -174.25 46.85 -170.95 49.95 -167.6 54.45 -156.6 M11.05 -181.55 L7.65 -177.35 17.45 -178.6 30.6 -180.0 27.6 -182.25 27.3 -182.3 17.9 -189.25 17.45 -188.8 11.05 -181.55 M20.8 -177.5 L17.45 -176.95 13.15 -176.5 6.15 -175.8 Q-0.2 -167.95 -6.2 -159.55 L-10.15 -153.65 Q-17.5 -142.35 -17.55 -137.15 -17.85 -130.7 -16.25 -124.8 -14.15 -117.15 -10.25 -110.55 1.1 -91.1 21.95 -89.85 34.85 -89.0 38.5 -94.55 39.6 -96.25 41.6 -101.55 43.85 -107.45 46.15 -111.25 L52.2 -122.75 Q55.25 -129.45 55.55 -134.65 56.1 -143.75 54.6 -147.85 50.65 -155.2 46.3 -164.3 43.55 -169.95 33.6 -177.8 L32.5 -178.6 20.8 -177.5 M-54.65 -106.8 L-56.05 -108.35 -55.8 -108.35 -49.15 -104.8 Q-44.3 -102.4 -40.5 -101.45 L-35.7 -99.9 -30.7 -97.95 -25.7 -96.15 -23.4 -95.6 -20.9 -95.25 -13.85 -94.2 -9.65 -93.75 -22.85 -93.6 Q-28.2 -93.9 -30.8 -95.05 -37.7 -97.8 -43.3 -99.6 -48.35 -101.2 -51.6 -103.85 L-54.1 -106.25 -54.65 -106.8" fill="#0d0600" fill-rule="evenodd" stroke="none"/>
      <path d="M-47.4 -188.15 L-47.4 -188.25 Q-53.5 -191.1 -53.5 -192.75 -53.5 -198.4 -42.35 -203.4 -34.05 -207.05 -26.8 -207.65 L-23.7 -207.75 -12.9 -206.9 -4.9 -205.75 2.2 -204.35 3.5 -204.35 Q9.1 -203.85 17.45 -200.15 L19.05 -199.35 Q28.3 -194.75 32.5 -190.2 L38.35 -184.5 43.55 -179.6 Q46.85 -175.55 51.95 -167.25 57.55 -157.65 59.45 -153.3 63.25 -144.35 61.75 -138.4 60.9 -135.45 62.75 -132.1 L63.65 -130.15 Q62.75 -128.05 62.3 -125.3 L61.55 -120.05 61.75 -120.05 Q62.75 -121.35 64.25 -124.45 64.4 -123.4 65.1 -122.35 66.6 -120.35 66.8 -119.5 L67.8 -115.45 Q68.05 -114.45 67.9 -112.1 L67.6 -108.35 66.4 -104.55 66.25 -103.15 66.9 -103.15 64.15 -99.9 Q61.45 -96.65 58.1 -94.75 L58.25 -94.6 Q63.65 -96.65 68.05 -102.55 68.45 -102.15 68.5 -101.45 L66.5 -98.1 Q63.1 -93.15 60.75 -91.65 58.2 -88.95 52.1 -86.9 39.85 -82.55 18.15 -83.85 -5.9 -85.25 -26.8 -88.95 L-46.1 -92.8 Q-56.75 -95.15 -62.65 -97.25 L-61.35 -98.75 Q-60.8 -98.95 -60.65 -99.45 L-58.3 -98.75 Q-53.5 -97.4 -48.8 -97.1 L-45.8 -97.85 -47.75 -98.25 Q-55.1 -102.75 -58.15 -106.2 -60.25 -108.55 -61.25 -111.85 L-61.95 -115.35 -61.95 -116.45 Q-61.75 -119.7 -60.65 -121.75 -57.45 -127.1 -56.15 -130.4 L-52.95 -137.0 Q-51.0 -141.35 -50.45 -144.05 L-48.05 -153.65 Q-45.8 -163.65 -45.15 -169.5 L-41.8 -177.2 -41.1 -180.15 Q-41.1 -183.4 -43.55 -185.6 L-45.1 -186.9 Q-45.15 -190.5 -47.2 -188.4 L-47.4 -188.15 M54.45 -156.6 Q49.95 -167.6 46.85 -170.95 43.85 -174.25 38.5 -178.9 L30.95 -185.3 Q27.1 -189.5 24.05 -191.4 20.3 -193.85 17.45 -192.8 15.8 -192.25 14.5 -190.8 -4.95 -167.95 -8.45 -163.25 L-14.9 -153.65 Q-21.75 -142.25 -22.15 -133.8 -22.4 -130.75 -20.8 -124.45 -18.8 -115.85 -14.75 -108.35 -2.55 -86.45 21.8 -84.9 31.9 -84.35 37.05 -88.85 42.7 -93.75 49.45 -110.25 L56.45 -126.8 Q58.2 -132.1 58.8 -140.5 59.1 -145.05 54.45 -156.6 M-13.85 -94.2 Q-12.1 -94.75 -9.45 -95.75 L-19.4 -97.5 Q-24.95 -98.25 -29.55 -99.8 -39.2 -102.95 -56.15 -110.25 L-58.3 -110.45 -58.4 -110.1 Q-56.05 -107.6 -54.65 -106.8 L-54.1 -106.25 -51.6 -103.85 Q-48.35 -101.2 -43.3 -99.6 -37.7 -97.8 -30.8 -95.05 -28.2 -93.9 -22.85 -93.6 L-9.65 -93.75 -13.85 -94.2" fill="#4a2500" fill-rule="evenodd" stroke="none"/>
      <path d="M11.05 -181.55 L13.0 -182.3 Q15.35 -183.2 17.45 -183.5 L21.55 -183.9 Q23.75 -183.65 27.3 -182.3 L27.6 -182.25 30.6 -180.0 17.45 -178.6 7.65 -177.35 11.05 -181.55" fill="#8f5f2f" fill-rule="evenodd" stroke="none"/>
      <path d="M27.3 -182.3 Q23.75 -183.65 21.55 -183.9 L17.45 -183.5 Q15.35 -183.2 13.0 -182.3 L11.05 -181.55 17.45 -188.8 17.9 -189.25 27.3 -182.3" fill="#6e4114" fill-rule="evenodd" stroke="none"/>
      <path d="M20.8 -177.5 L32.5 -178.6 33.6 -177.8 Q43.55 -169.95 46.3 -164.3 50.65 -155.2 54.6 -147.85 56.1 -143.75 55.55 -134.65 55.25 -129.45 52.2 -122.75 L46.15 -111.25 Q43.85 -107.45 41.6 -101.55 39.6 -96.25 38.5 -94.55 34.85 -89.0 21.95 -89.85 1.1 -91.1 -10.25 -110.55 -14.15 -117.15 -16.25 -124.8 -17.85 -130.7 -17.55 -137.15 -17.5 -142.35 -10.15 -153.65 L-6.2 -159.55 Q-0.2 -167.95 6.15 -175.8 L13.15 -176.5 17.45 -176.95 20.8 -177.5" fill="#14100c" fill-rule="evenodd" stroke="none"/>
      <path d="M42.15 -156.9 L42.4 -151.15 Q42.45 -149.2 41.55 -148.05 40.45 -146.65 38.9 -146.55 37.4 -146.45 36.25 -147.7 35.1 -148.9 34.95 -150.85 L34.6 -156.5 Q34.55 -158.3 35.55 -159.7 36.55 -161.1 38.1 -161.15 39.65 -161.25 40.9 -160.0 42.0 -158.7 42.15 -156.9" fill="#ffffff" fill-rule="evenodd" stroke="none"/>
      <path d="M12.15 -156.9 L12.45 -150.75 Q12.45 -148.65 11.5 -147.35 10.35 -145.95 8.65 -145.75 7.0 -145.7 5.75 -147.0 4.55 -148.25 4.35 -150.35 L4.05 -156.5 Q4.0 -158.35 5.05 -159.95 6.15 -161.4 7.8 -161.5 9.5 -161.55 10.8 -160.25 12.0 -158.75 12.15 -156.9" fill="#ffffff" fill-rule="evenodd" stroke="none"/>
      <path d="M33.55 -208.7 Q72.0 -212.9 86.35 -216.6 84.1 -197.95 54.3 -186.7 L48.85 -185.1 Q59.05 -190.4 68.6 -197.5 78.1 -204.7 82.7 -214.05 L80.9 -214.05 54.45 -210.65 33.55 -208.7 M-43.15 -163.9 L-57.9 -160.95 Q-70.2 -158.2 -77.05 -165.75 L-77.45 -166.15 Q-82.5 -171.6 -85.0 -179.85 -86.4 -186.2 -81.85 -189.8 -78.05 -191.75 -70.9 -193.65 -78.15 -190.0 -78.15 -183.5 -78.15 -179.45 -75.1 -174.4 -72.4 -169.55 -69.45 -167.55 -68.35 -166.75 -67.1 -166.15 -61.25 -163.1 -53.4 -163.1 L-43.15 -163.9 M-60.4 -196.15 L-60.15 -197.65 Q-59.8 -201.45 -58.85 -204.8 L-53.65 -205.8 Q-54.4 -203.95 -54.8 -201.9 L-54.8 -197.35 -60.4 -196.15 M-53.15 -218.4 Q-48.1 -226.2 -39.55 -229.3 -29.55 -234.05 -0.7 -219.55 10.9 -212.55 25.45 -207.9 L23.9 -207.65 15.5 -209.05 Q8.8 -210.8 -0.15 -215.3 -20.6 -225.65 -31.5 -225.65 -39.2 -225.65 -46.35 -217.6 -48.9 -214.75 -50.75 -211.85 L-50.85 -212.25 Q-51.75 -215.6 -53.15 -218.4 M18.3 -190.1 Q-6.9 -183.2 -30.4 -183.2 L-42.6 -183.5 Q-35.0 -185.5 -11.05 -187.55 L18.15 -190.1 18.3 -190.1" fill="#339933" fill-rule="evenodd" stroke="none"/>
      <path d="M25.45 -207.9 L33.55 -208.7 54.45 -210.65 80.9 -214.05 82.7 -214.05 Q78.1 -204.7 68.6 -197.5 59.05 -190.4 48.85 -185.1 21.1 -177.35 -25.65 -167.55 L-36.7 -165.2 -43.15 -163.9 -53.4 -163.1 Q-61.25 -163.1 -67.1 -166.15 -68.35 -166.75 -69.45 -167.55 -72.4 -169.55 -75.1 -174.4 -78.15 -179.45 -78.15 -183.5 -78.15 -190.0 -70.9 -193.65 -66.4 -195.0 -60.4 -196.15 L-54.8 -197.35 Q-31.95 -201.75 7.35 -206.1 L23.9 -207.65 25.45 -207.9 M18.3 -190.1 L18.15 -190.1 -11.05 -187.55 Q-35.0 -185.5 -42.6 -183.5 L-30.4 -183.2 Q-6.9 -183.2 18.3 -190.1" fill="url(#gradient0)" fill-rule="evenodd" stroke="none"/>
      <path d="M23.9 -207.65 L7.35 -206.1 Q-31.95 -201.75 -54.8 -197.35 L-54.8 -201.9 Q-54.4 -203.95 -53.65 -205.8 -52.15 -206.25 -50.75 -206.9 L-48.8 -204.8 -47.2 -205.95 -49.9 -207.9 -50.75 -211.85 Q-48.9 -214.75 -46.35 -217.6 -39.2 -225.65 -31.5 -225.65 -20.6 -225.65 -0.15 -215.3 8.8 -210.8 15.5 -209.05 L23.9 -207.65 M-44.6 -207.9 L-47.2 -205.95 -44.6 -207.9 M-48.8 -204.8 L-51.85 -202.6 -48.8 -204.8" fill="url(#gradient1)" fill-rule="evenodd" stroke="none"/>
      <path d="M-87.0 -217.55 L-91.45 -221.3 Q-100.05 -229.0 -109.7 -235.1 -119.2 -241.1 -128.85 -246.1 L-133.8 -248.75 -134.3 -248.95 -131.85 -248.2 -131.0 -247.85 -128.5 -246.95 -125.95 -246.15 -122.3 -244.85 Q-103.4 -237.9 -86.45 -230.15 L-82.0 -228.05 -77.2 -225.7 -76.2 -225.15 -82.95 -220.5 -87.0 -217.55" fill="#b32a00" fill-rule="evenodd" stroke="none"/>
      <path d="M-77.5 -210.8 Q-82.5 -213.95 -87.0 -217.55 L-82.95 -220.5 -76.2 -225.15 -69.2 -220.65 -77.5 -210.8" fill="#ff9978" fill-rule="evenodd" stroke="none"/>
      <path d="M-83.5 -237.2 L-77.8 -235.6 -79.15 -233.25 -82.0 -228.05 -86.45 -230.15 -84.75 -234.35 -83.5 -237.2" fill="#ffbd8a" fill-rule="evenodd" stroke="none"/>
      <path d="M-122.3 -244.85 Q-113.9 -241.95 -104.75 -241.2 -94.7 -239.95 -85.35 -237.6 L-83.5 -237.2 -84.75 -234.35 -86.45 -230.15 Q-103.4 -237.9 -122.3 -244.85" fill="#cc3300" fill-rule="evenodd" stroke="none"/>
      <path d="M-77.8 -235.6 Q-71.35 -233.5 -65.4 -230.3 -57.15 -225.95 -53.15 -218.4 -51.75 -215.6 -50.85 -212.25 L-50.75 -211.85 -49.9 -207.9 -49.9 -207.3 -52.25 -209.0 -56.5 -212.05 -69.2 -220.65 -76.2 -225.15 -77.2 -225.7 -82.0 -228.05 -79.15 -233.25 -77.8 -235.6" fill="url(#gradient2)" fill-rule="evenodd" stroke="none"/>
      <path d="M-58.85 -204.8 Q-65.95 -204.35 -72.55 -208.0 L-77.5 -210.8 -69.2 -220.65 -56.5 -212.05 -52.25 -209.0 -49.9 -207.3 Q-50.3 -207.05 -50.75 -206.9 -52.15 -206.25 -53.65 -205.8 L-58.85 -204.8" fill="url(#gradient3)" fill-rule="evenodd" stroke="none"/>
      <path d="M-49.9 -207.9 L-47.2 -205.95 -48.8 -204.8 -50.75 -206.9 Q-50.3 -207.05 -49.9 -207.3 L-49.9 -207.9" fill="#ffcc33" fill-rule="evenodd" stroke="none"/>
      <path d="M25.45 -207.9 L33.55 -208.7 Q72.0 -212.9 86.35 -216.6 84.1 -197.95 54.3 -186.7 L48.85 -185.1 Q21.1 -177.35 -25.65 -167.55 L-36.7 -165.2 -43.15 -163.9 -57.9 -160.95 Q-70.2 -158.2 -77.05 -165.75 L-77.45 -166.15 Q-82.5 -171.6 -85.0 -179.85 -86.4 -186.2 -81.85 -189.8 -78.05 -191.75 -70.9 -193.65 -66.4 -195.0 -60.4 -196.15 L-60.15 -197.65 Q-59.8 -201.45 -58.85 -204.8 -65.95 -204.35 -72.55 -208.0 L-77.5 -210.8 Q-82.5 -213.95 -87.0 -217.55 L-91.45 -221.3 Q-100.05 -229.0 -109.7 -235.1 -119.2 -241.1 -128.85 -246.1 L-133.8 -248.75 -134.3 -248.95 -134.8 -249.25 -131.85 -248.2 -131.0 -247.85 -128.5 -246.95 -125.95 -246.15 -122.3 -244.85 Q-113.9 -241.95 -104.75 -241.2 -94.7 -239.95 -85.35 -237.6 L-83.5 -237.2 -77.8 -235.6 Q-71.35 -233.5 -65.4 -230.3 -57.15 -225.95 -53.15 -218.4 -48.1 -226.2 -39.55 -229.3 -29.55 -234.05 -0.7 -219.55 10.9 -212.55 25.45 -207.9 L23.9 -207.65 7.35 -206.1 Q-31.95 -201.75 -54.8 -197.35 L-60.4 -196.15 M-50.75 -211.85 L-49.9 -207.9 -47.2 -205.95 -44.6 -207.9 M-131.85 -248.2 L-134.3 -248.95 M-86.45 -230.15 L-82.0 -228.05 -77.2 -225.7 -76.2 -225.15 -69.2 -220.65 -56.5 -212.05 -52.25 -209.0 -49.9 -207.3 Q-50.3 -207.05 -50.75 -206.9 -52.15 -206.25 -53.65 -205.8 L-58.85 -204.8 M-86.45 -230.15 Q-103.4 -237.9 -122.3 -244.85 M-53.15 -218.4 Q-51.75 -215.6 -50.85 -212.25 L-50.75 -211.85 M-50.75 -206.9 L-48.8 -204.8 -47.2 -205.95 M-49.9 -207.3 L-49.9 -207.9 M-51.85 -202.6 L-48.8 -204.8" fill="none" stroke="#000000" stroke-linecap="round" stroke-linejoin="round" stroke-opacity="0.6627451" stroke-width="1.0"/>
    </g>
    <linearGradient gradientTransform="matrix(0.0046, 0.0257, -1.9975, 0.3518, 71.1, -200.3)" gradientUnits="userSpaceOnUse" id="gradient0" spreadMethod="pad" x1="-819.2" x2="819.2">
      <stop offset="0.0" stop-color="#398248"/>
      <stop offset="1.0" stop-color="#2a612a"/>
    </linearGradient>
    <linearGradient gradientTransform="matrix(0.0019, 0.0119, -2.0036, 0.3147, 70.45, -221.9)" gradientUnits="userSpaceOnUse" id="gradient1" spreadMethod="pad" x1="-819.2" x2="819.2">
      <stop offset="0.0" stop-color="#327332"/>
      <stop offset="1.0" stop-color="#224e21"/>
    </linearGradient>
    <linearGradient gradientTransform="matrix(0.0196, 0.0, 0.0, 0.0173, -65.95, -221.5)" gradientUnits="userSpaceOnUse" id="gradient2" spreadMethod="pad" x1="-819.2" x2="819.2">
      <stop offset="0.0" stop-color="#cc3300"/>
      <stop offset="1.0" stop-color="#fe7e5f"/>
    </linearGradient>
    <linearGradient gradientTransform="matrix(-0.0146, -0.0084, 0.0049, -0.0084, -63.6, -212.75)" gradientUnits="userSpaceOnUse" id="gradient3" spreadMethod="pad" x1="-819.2" x2="819.2">
      <stop offset="0.0" stop-color="#b30000"/>
      <stop offset="1.0" stop-color="#b32a00"/>
    </linearGradient>
  </defs>
</svg>
