<?xml version="1.0" encoding="UTF-8" standalone="no"?>
<svg xmlns:xlink="http://www.w3.org/1999/xlink" height="531.5px" width="460.6px" xmlns="http://www.w3.org/2000/svg">
  <g transform="matrix(1.0, 0.0, 0.0, 1.0, 193.65, 334.05)">
    <use height="163.7" transform="matrix(1.0, 0.0, 0.0, 1.0, -89.5, -221.5)" width="157.5" xlink:href="#shape0"/>
  </g>
  <defs>
    <g id="shape0" transform="matrix(1.0, 0.0, 0.0, 1.0, 89.5, 221.5)">
      <path d="M-70.0 -175.4 L-75.2 -178.6 -75.85 -179.0 Q-83.45 -183.95 -78.55 -191.95 L-73.85 -199.8 -73.45 -199.55 Q-69.2 -196.45 -64.45 -194.05 L-65.2 -192.85 -66.25 -190.4 -66.4 -189.35 Q-66.75 -186.15 -62.9 -183.9 L-61.15 -182.75 -61.55 -182.35 Q-64.65 -178.25 -66.65 -173.65 L-66.75 -173.45 -70.0 -175.4" fill="#cccccc" fill-rule="evenodd" stroke="none"/>
      <path d="M-75.85 -179.0 L-75.2 -178.6 -70.0 -175.4 Q-71.0 -173.45 -72.05 -172.1 L-72.8 -171.45 -73.5 -171.35 Q-74.55 -171.2 -75.45 -171.75 -76.35 -172.15 -76.95 -172.8 L-78.05 -174.6 -77.75 -175.6 Q-77.2 -177.3 -75.85 -179.0 M-66.75 -173.45 L-66.65 -173.65 Q-64.65 -178.25 -61.55 -182.35 L-61.15 -182.75 -59.85 -184.4 Q-55.25 -182.4 -51.85 -179.65 -54.55 -172.3 -59.65 -166.8 -64.55 -168.65 -67.65 -171.5 L-66.75 -173.45 M-64.45 -194.05 Q-69.2 -196.45 -73.45 -199.55 L-73.85 -199.8 -75.45 -200.9 Q-74.8 -203.85 -72.85 -205.25 -65.85 -201.8 -59.6 -197.35 -60.4 -194.65 -62.2 -193.0 -63.15 -193.4 -64.0 -193.85 L-64.45 -194.05" fill="#999999" fill-rule="evenodd" stroke="none"/>
      <path d="M-77.75 -175.6 L-78.05 -174.6 -76.95 -172.8 Q-81.15 -169.15 -88.65 -170.55 -90.05 -176.0 -85.9 -177.8 -81.5 -177.95 -77.75 -175.6 M-75.45 -171.75 Q-74.55 -171.2 -73.5 -171.35 L-72.8 -171.45 -72.05 -172.1 Q-68.7 -169.95 -66.9 -166.4 -66.5 -161.8 -72.15 -160.5 -76.75 -166.4 -75.45 -171.75" fill="#736e6e" fill-rule="evenodd" stroke="none"/>
      <path d="M-75.85 -179.0 L-75.2 -178.6 -70.0 -175.4 -66.75 -173.45 -66.65 -173.65 Q-64.65 -178.25 -61.55 -182.35 L-61.15 -182.75 -62.9 -183.9 Q-66.75 -186.15 -66.4 -189.35 L-66.25 -190.4 -65.2 -192.85 -64.45 -194.05 Q-69.2 -196.45 -73.45 -199.55 L-73.85 -199.8 -78.55 -191.95 Q-83.45 -183.95 -75.85 -179.0 -77.2 -177.3 -77.75 -175.6 L-78.05 -174.6 -76.95 -172.8 Q-76.35 -172.15 -75.45 -171.75 -74.55 -171.2 -73.5 -171.35 L-72.8 -171.45 -72.05 -172.1 Q-71.0 -173.45 -70.0 -175.4 M-73.85 -199.8 L-75.45 -200.9 Q-74.8 -203.85 -72.85 -205.25 -65.85 -201.8 -59.6 -197.35 -60.4 -194.65 -62.2 -193.0 -63.15 -193.4 -64.0 -193.85 L-64.45 -194.05 M-61.15 -182.75 L-59.85 -184.4 Q-55.25 -182.4 -51.85 -179.65 -54.55 -172.3 -59.65 -166.8 -64.55 -168.65 -67.65 -171.5 L-66.75 -173.45 M-76.95 -172.8 Q-81.15 -169.15 -88.65 -170.55 -90.05 -176.0 -85.9 -177.8 -81.5 -177.95 -77.75 -175.6 M-72.05 -172.1 Q-68.7 -169.95 -66.9 -166.4 -66.5 -161.8 -72.15 -160.5 -76.75 -166.4 -75.45 -171.75" fill="none" stroke="#000000" stroke-linecap="round" stroke-linejoin="round" stroke-opacity="0.4" stroke-width="1.0"/>
      <path d="M-62.15 -198.6 Q-60.4 -197.45 -60.6 -197.2 -60.75 -196.9 -62.65 -197.7 L-66.9 -199.95 Q-69.35 -201.35 -71.05 -202.5 -72.65 -203.7 -72.5 -204.0 -72.3 -204.25 -70.55 -203.4 -68.6 -202.6 -66.15 -201.2 L-62.15 -198.6" fill="#333333" fill-rule="evenodd" stroke="none"/>
      <path d="M40.6 -113.65 L40.35 -117.65 Q55.85 -111.05 64.25 -108.6 52.45 -107.5 41.45 -110.1 L40.6 -113.65" fill="#e85d35" fill-rule="evenodd" stroke="none"/>
      <path d="M40.6 -113.65 L40.35 -117.65 Q55.85 -111.05 64.25 -108.6 52.45 -107.5 41.45 -110.1 L40.6 -113.65 Z" fill="none" stroke="#000000" stroke-linecap="round" stroke-linejoin="round" stroke-opacity="0.4" stroke-width="0.7000000000000001"/>
      <path d="M47.8 -123.55 Q57.25 -119.95 66.2 -120.0 59.75 -115.3 51.7 -112.6 L48.35 -115.45 47.8 -123.55" fill="#e85d35" fill-rule="evenodd" stroke="none"/>
      <path d="M47.8 -123.55 Q57.25 -119.95 66.2 -120.0 59.75 -115.3 51.7 -112.6 L48.35 -115.45 47.8 -123.55 Z" fill="none" stroke="#000000" stroke-linecap="round" stroke-linejoin="round" stroke-opacity="0.4" stroke-width="0.7000000000000001"/>
      <path d="M-46.65 -106.0 L-47.05 -101.6 Q-54.8 -98.05 -62.75 -97.05 -56.15 -103.15 -51.75 -112.2 L-46.65 -106.0" fill="#e85d35" fill-rule="evenodd" stroke="none"/>
      <path d="M-46.65 -106.0 L-51.75 -112.2 Q-56.15 -103.15 -62.75 -97.05 -54.8 -98.05 -47.05 -101.6 L-46.65 -106.0 Z" fill="none" stroke="#000000" stroke-linecap="round" stroke-linejoin="round" stroke-opacity="0.4" stroke-width="0.7000000000000001"/>
      <path d="M-46.95 -110.1 L-47.55 -106.1 -48.65 -102.6 Q-59.85 -100.9 -71.5 -103.0 -62.9 -104.8 -46.95 -110.1" fill="#e85d35" fill-rule="evenodd" stroke="none"/>
      <path d="M-46.95 -110.1 Q-62.9 -104.8 -71.5 -103.0 -59.85 -100.9 -48.65 -102.6 L-47.55 -106.1 -46.95 -110.1 Z" fill="none" stroke="#000000" stroke-linecap="round" stroke-linejoin="round" stroke-opacity="0.4" stroke-width="0.7000000000000001"/>
      <path d="M-58.7 -106.0 Q-66.5 -109.45 -72.55 -114.65 -63.65 -113.85 -53.9 -116.6 L-55.1 -108.6 -58.7 -106.0" fill="#e85d35" fill-rule="evenodd" stroke="none"/>
      <path d="M-53.9 -116.6 Q-63.65 -113.85 -72.55 -114.65 -66.5 -109.45 -58.7 -106.0" fill="none" stroke="#000000" stroke-linecap="round" stroke-linejoin="round" stroke-opacity="0.4" stroke-width="0.7000000000000001"/>
      <path d="M25.05 -152.1 Q20.0 -151.7 10.65 -149.05 L-16.8 -147.8 Q-36.45 -147.55 -52.6 -126.95 L-60.55 -124.65 Q-43.55 -148.3 -22.5 -148.45 L4.95 -149.7 Q20.1 -154.1 24.1 -152.6 L25.05 -152.1 M-45.0 -126.8 L-37.9 -128.9 Q-48.6 -107.8 -53.0 -87.35 -44.85 -78.55 -34.15 -72.1 L-34.65 -69.9 Q-48.6 -77.1 -58.7 -88.1 -54.6 -107.25 -45.0 -126.8" fill="#f28554" fill-rule="evenodd" stroke="none"/>
      <path d="M-52.6 -126.95 Q-36.45 -147.55 -16.8 -147.8 L10.65 -149.05 Q20.0 -151.7 25.05 -152.1 28.3 -150.75 31.4 -145.7 41.75 -129.55 55.85 -116.2 L51.85 -115.55 Q48.95 -115.4 46.1 -116.2 51.95 -107.15 60.75 -98.75 47.4 -73.9 25.85 -63.25 L22.6 -61.85 12.35 -70.65 15.2 -59.65 3.4 -59.25 -4.7 -60.3 -10.4 -61.8 Q-19.9 -64.45 -30.35 -69.9 L-32.15 -81.75 -34.15 -72.1 Q-44.85 -78.55 -53.0 -87.35 -48.6 -107.8 -37.9 -128.9 L-45.0 -126.8 -43.6 -129.55 -52.6 -126.95 M37.1 -126.45 L33.95 -129.65 37.1 -126.45 M21.8 -134.5 Q10.65 -135.25 2.75 -140.3 L5.75 -140.7 2.75 -140.3 Q10.65 -135.25 21.8 -134.5 M-10.4 -65.95 L-10.4 -61.8 -10.4 -65.95 M-34.8 -103.9 L-31.95 -111.65 -34.8 -103.9 M0.35 -144.15 Q-1.9 -142.25 -4.25 -140.7 -15.2 -133.55 -28.65 -132.35 -15.2 -133.55 -4.25 -140.7 -1.9 -142.25 0.35 -144.15 M26.35 -81.25 L23.35 -87.1 26.35 -81.25 M2.75 -140.3 L-4.25 -140.7 2.75 -140.3 M2.4 -134.5 Q-1.5 -132.0 -7.05 -132.0 -1.5 -132.0 2.4 -134.5" fill="url(#gradient0)" fill-rule="evenodd" stroke="none"/>
      <path d="M25.05 -152.1 L24.1 -152.6 Q20.1 -154.1 4.95 -149.7 L-22.5 -148.45 Q-43.55 -148.3 -60.55 -124.65 L-52.6 -126.95 -43.6 -129.55 -45.0 -126.8 Q-54.6 -107.25 -58.7 -88.1 -48.6 -77.1 -34.65 -69.9 L-34.15 -72.1 -32.15 -81.75 -30.35 -69.9 Q-19.9 -64.45 -10.4 -61.8 L-10.4 -65.95 M5.75 -140.7 L2.75 -140.3 Q10.65 -135.25 21.8 -134.5 M33.95 -129.65 L37.1 -126.45 M25.05 -152.1 Q28.3 -150.75 31.4 -145.7 41.75 -129.55 55.85 -116.2 L51.85 -115.55 Q48.95 -115.4 46.1 -116.2 51.95 -107.15 60.75 -98.75 47.4 -73.9 25.85 -63.25 L22.6 -61.85 12.35 -70.65 15.2 -59.65 3.4 -59.25 -4.7 -60.3 -10.4 -61.8 -10.4 -58.3 M23.35 -87.1 L26.35 -81.25 M-28.65 -132.35 Q-15.2 -133.55 -4.25 -140.7 -1.9 -142.25 0.35 -144.15 M-31.95 -111.65 L-34.8 -103.9 M-7.05 -132.0 Q-1.5 -132.0 2.4 -134.5 M-4.25 -140.7 L2.75 -140.3" fill="none" stroke="#000000" stroke-linecap="round" stroke-linejoin="round" stroke-opacity="0.5019608" stroke-width="1.0"/>
      <path d="M-23.9 -135.6 L-16.35 -132.75 -14.45 -128.75 Q-19.35 -121.75 -25.7 -116.85 -23.1 -125.4 -23.9 -135.6" fill="#c9592d" fill-rule="evenodd" stroke="none"/>
      <path d="M-23.9 -135.6 Q-23.1 -125.4 -25.7 -116.85 -19.35 -121.75 -14.45 -128.75" fill="none" stroke="#000000" stroke-linecap="round" stroke-linejoin="round" stroke-opacity="0.4" stroke-width="0.7000000000000001"/>
      <path d="M19.75 -194.0 L35.7 -194.0 41.75 -188.55 Q59.1 -170.85 60.15 -146.35 L60.15 -143.9 60.15 -143.25 60.05 -138.35 Q59.65 -128.65 57.8 -119.75 56.45 -129.2 52.95 -137.1 51.4 -125.8 47.9 -112.85 46.3 -106.9 44.5 -101.75 L43.45 -102.25 44.75 -110.3 41.4 -103.3 33.85 -108.3 37.9 -126.7 32.95 -122.85 Q33.75 -130.3 34.0 -138.35 L34.0 -143.25 34.0 -143.9 34.0 -146.35 Q33.35 -170.85 23.25 -188.55 L19.75 -194.0 M12.8 -125.9 L-0.8 -128.65 -3.0 -128.25 -3.0 -194.0 8.25 -194.0 Q10.1 -188.45 11.1 -182.75 12.55 -173.55 12.95 -164.6 L13.2 -158.95 13.55 -146.35 13.45 -138.35 12.95 -128.5 12.8 -125.9 M-23.95 -124.4 L-25.55 -124.15 -28.35 -127.35 -28.0 -114.05 -36.5 -109.85 -41.85 -107.25 -46.35 -113.35 -47.25 -104.95 Q-49.45 -117.65 -52.5 -125.45 -56.2 -133.45 -58.15 -138.35 L-59.6 -142.1 Q-62.3 -149.75 -62.3 -161.9 L-62.2 -164.35 Q-57.75 -177.7 -47.15 -188.55 L-41.1 -194.0 -38.0 -194.0 Q-43.15 -187.7 -47.65 -177.35 -51.7 -167.75 -52.75 -161.8 L-52.75 -161.4 Q-52.7 -163.35 -49.2 -170.5 -45.9 -177.1 -42.4 -182.9 -40.05 -186.9 -36.05 -191.55 L-33.95 -194.0 -31.2 -194.0 -35.65 -187.2 Q-42.0 -175.9 -42.0 -164.9 -42.0 -157.5 -39.1 -152.95 -37.45 -173.3 -28.75 -188.55 L-25.15 -194.0 -17.75 -194.0 -19.2 -188.05 -20.9 -178.5 Q-27.5 -163.25 -29.55 -146.55 L-24.4 -146.25 -24.65 -139.4 -24.65 -138.35 Q-24.6 -131.85 -23.95 -124.4 M37.25 -146.0 L48.0 -146.55 Q45.95 -163.25 39.35 -178.5 L37.25 -146.0 M-36.5 -109.85 Q-39.1 -123.1 -39.4 -138.35 L-39.5 -143.25 -39.5 -143.9 -39.4 -146.35 -39.1 -152.95 -39.4 -146.35 -39.5 -143.9 -39.5 -143.25 -39.4 -138.35 Q-39.1 -123.1 -36.5 -109.85" fill="#825120" fill-rule="evenodd" stroke="none"/>
      <path d="M37.25 -146.0 L39.35 -178.5 Q45.95 -163.25 48.0 -146.55 L37.25 -146.0 M-20.9 -178.5 L-18.8 -146.0 -24.4 -146.25 -29.55 -146.55 Q-27.5 -163.25 -20.9 -178.5" fill="#361d05" fill-opacity="0.4" fill-rule="evenodd" stroke="none"/>
      <path d="M14.35 -194.0 L19.75 -194.0 23.25 -188.55 Q33.35 -170.85 34.0 -146.35 L34.0 -143.9 34.0 -143.25 34.0 -138.35 Q33.75 -130.3 32.95 -122.85 L31.8 -121.95 12.8 -125.9 12.95 -128.5 13.45 -138.35 13.55 -146.35 13.2 -158.95 Q16.7 -174.05 14.35 -194.0 M57.8 -119.75 Q55.75 -110.55 52.05 -102.25 L51.25 -110.0 47.0 -100.55 44.5 -101.75 Q46.3 -106.9 47.9 -112.85 51.4 -125.8 52.95 -137.1 56.45 -129.2 57.8 -119.75 M-47.25 -104.95 L-48.7 -92.55 -52.35 -92.55 Q-64.4 -112.45 -65.5 -138.35 L-65.55 -143.25 -65.55 -143.9 -65.5 -146.35 Q-65.05 -155.85 -62.2 -164.35 L-62.3 -161.9 Q-62.3 -149.75 -59.6 -142.1 L-58.15 -138.35 Q-56.2 -133.45 -52.5 -125.45 -49.45 -117.65 -47.25 -104.95" fill="#7a571e" fill-rule="evenodd" stroke="none"/>
      <path d="M-31.2 -194.0 L-25.15 -194.0 -28.75 -188.55 Q-37.45 -173.3 -39.1 -152.95 -42.0 -157.5 -42.0 -164.9 -42.0 -175.9 -35.65 -187.2 L-31.2 -194.0" fill="#824a20" fill-rule="evenodd" stroke="none"/>
      <path d="M-3.0 -128.25 L-23.95 -124.4 Q-24.6 -131.85 -24.65 -138.35 L-24.65 -139.4 -24.4 -146.25 -18.8 -146.0 -20.9 -178.5 -19.2 -188.05 -17.75 -194.0 -3.0 -194.0 -3.0 -128.25" fill="#78441e" fill-rule="evenodd" stroke="none"/>
      <path d="M13.2 -158.95 L12.95 -164.6 Q12.55 -173.55 11.1 -182.75 10.1 -188.45 8.25 -194.0 L14.35 -194.0 Q16.7 -174.05 13.2 -158.95" fill="#6e441a" fill-rule="evenodd" stroke="none"/>
      <path d="M-38.0 -194.0 L-33.95 -194.0 -36.05 -191.55 Q-40.05 -186.9 -42.4 -182.9 -45.9 -177.1 -49.2 -170.5 -52.7 -163.35 -52.75 -161.4 L-52.75 -161.8 Q-51.7 -167.75 -47.65 -177.35 -43.15 -187.7 -38.0 -194.0" fill="#73471b" fill-rule="evenodd" stroke="none"/>
      <path d="M8.25 -194.0 Q10.1 -188.45 11.1 -182.75 12.55 -173.55 12.95 -164.6 L13.2 -158.95 Q16.7 -174.05 14.35 -194.0 M13.2 -158.95 L13.55 -146.35 13.45 -138.35 12.95 -128.5 12.8 -125.9 M57.8 -119.75 Q56.45 -129.2 52.95 -137.1 51.4 -125.8 47.9 -112.85 46.3 -106.9 44.5 -101.75 M-38.0 -194.0 Q-43.15 -187.7 -47.65 -177.35 -51.7 -167.75 -52.75 -161.8 L-52.75 -161.4 Q-52.7 -163.35 -49.2 -170.5 -45.9 -177.1 -42.4 -182.9 -40.05 -186.9 -36.05 -191.55 L-33.95 -194.0 M-31.2 -194.0 L-35.65 -187.2 Q-42.0 -175.9 -42.0 -164.9 -42.0 -157.5 -39.1 -152.95 M-17.75 -194.0 L-19.2 -188.05 M-24.4 -146.25 L-24.65 -139.4 -24.65 -138.35 Q-24.6 -131.85 -23.95 -124.4 M-47.25 -104.95 Q-49.45 -117.65 -52.5 -125.45 -56.2 -133.45 -58.15 -138.35 L-59.6 -142.1 Q-62.3 -149.75 -62.3 -161.9 L-62.2 -164.35" fill="none" stroke="#000000" stroke-linecap="round" stroke-linejoin="round" stroke-opacity="0.15294118" stroke-width="0.30000000000000004"/>
      <path d="M35.7 -194.0 L41.75 -188.55 Q59.1 -170.85 60.15 -146.35 L60.15 -143.9 60.15 -143.25 60.05 -138.35 Q59.65 -128.65 57.8 -119.75 55.75 -110.55 52.05 -102.25 L51.25 -110.0 47.0 -100.55 44.5 -101.75 43.45 -102.25 44.75 -110.3 41.4 -103.3 33.85 -108.3 37.9 -126.7 32.95 -122.85 31.8 -121.95 12.8 -125.9 -0.8 -128.65 -3.0 -128.25 -23.95 -124.4 -25.55 -124.15 -28.35 -127.35 -28.0 -114.05 -36.5 -109.85 -41.85 -107.25 -46.35 -113.35 -47.25 -104.95 -48.7 -92.55 -52.35 -92.55 Q-64.4 -112.45 -65.5 -138.35 L-65.55 -143.25 -65.55 -143.9 -65.5 -146.35 Q-65.05 -155.85 -62.2 -164.35 -57.75 -177.7 -47.15 -188.55 L-41.1 -194.0 M-3.0 -194.0 L-3.0 -195.6 M19.75 -194.0 L23.25 -188.55 Q33.35 -170.85 34.0 -146.35 L34.0 -143.9 34.0 -143.25 34.0 -138.35 Q33.75 -130.3 32.95 -122.85 M-3.0 -194.0 L-3.0 -128.25 M37.25 -146.0 L48.0 -146.55 Q45.95 -163.25 39.35 -178.5 L37.25 -146.0 M-39.1 -152.95 Q-37.45 -173.3 -28.75 -188.55 L-25.15 -194.0 M-19.2 -188.05 L-20.9 -178.5 -18.8 -146.0 -24.4 -146.25 -29.55 -146.55 Q-27.5 -163.25 -20.9 -178.5 M-39.1 -152.95 L-39.4 -146.35 -39.5 -143.9 -39.5 -143.25 -39.4 -138.35 Q-39.1 -123.1 -36.5 -109.85" fill="none" stroke="#000000" stroke-linecap="round" stroke-linejoin="round" stroke-opacity="0.4" stroke-width="0.7000000000000001"/>
      <path d="M-34.15 -218.5 Q-17.15 -223.15 -3.7 -219.1 -4.2 -205.5 -7.1 -191.55 L-30.35 -191.55 Q-33.6 -205.4 -34.15 -218.5" fill="#debc9a" fill-rule="evenodd" stroke="none"/>
      <path d="M-34.15 -218.5 Q-17.15 -223.15 -3.7 -219.1 -4.2 -205.5 -7.1 -191.55 L-30.35 -191.55 Q-33.6 -205.4 -34.15 -218.5 Z" fill="none" stroke="#000000" stroke-linecap="round" stroke-linejoin="round" stroke-opacity="0.4" stroke-width="1.0"/>
      <path d="M-23.4 -209.15 Q-24.65 -207.75 -26.55 -207.75 -28.45 -207.75 -29.85 -209.15 -31.1 -210.4 -31.1 -212.3 -31.1 -214.2 -29.85 -215.6 -28.45 -216.85 -26.55 -216.85 -24.65 -216.85 -23.4 -215.6 -22.0 -214.2 -22.0 -212.3 -22.0 -210.4 -23.4 -209.15" fill="#b09379" fill-rule="evenodd" stroke="none"/>
      <path d="M-9.8 -215.3 Q-10.45 -214.55 -11.45 -214.55 -12.45 -214.55 -13.2 -215.3 -13.85 -215.95 -13.85 -216.95 -13.85 -217.95 -13.2 -218.7 -12.45 -219.35 -11.45 -219.35 -10.45 -219.35 -9.8 -218.7 -9.05 -217.95 -9.05 -216.95 -9.05 -215.95 -9.8 -215.3" fill="#b09379" fill-rule="evenodd" stroke="none"/>
      <path d="M-14.45 -206.2 Q-15.1 -205.5 -16.05 -205.5 -17.0 -205.5 -17.7 -206.2 -18.35 -206.85 -18.35 -207.8 -18.35 -208.75 -17.7 -209.45 -17.0 -210.1 -16.05 -210.1 -15.1 -210.1 -14.45 -209.45 -13.75 -208.75 -13.75 -207.8 -13.75 -206.85 -14.45 -206.2" fill="#b09379" fill-rule="evenodd" stroke="none"/>
      <path d="M-6.1 -208.55 Q-6.5 -207.6 -7.65 -207.6 -8.8 -207.6 -9.65 -208.5 -10.4 -209.2 -10.4 -210.35 -10.4 -211.5 -9.65 -212.4 -8.8 -213.15 -7.65 -213.15 -6.5 -213.15 -5.7 -212.3 -4.95 -211.5 -5.25 -210.5 L-6.1 -208.55" fill="#b09379" fill-rule="evenodd" stroke="none"/>
      <path d="M28.7 -206.85 L38.05 -206.55 Q40.2 -202.85 41.0 -198.95 41.65 -194.95 40.85 -190.5 L30.15 -190.5 31.15 -192.25 Q32.35 -194.4 32.35 -197.15 32.35 -201.55 29.9 -205.3 L28.7 -206.85" fill="#cccccc" fill-rule="evenodd" stroke="none"/>
      <path d="M7.2 -207.25 L25.95 -206.95 18.2 -201.3 7.2 -207.25" fill="#ffffff" fill-rule="evenodd" stroke="none"/>
      <path d="M30.15 -190.5 L1.25 -190.5 Q-4.95 -191.7 -10.8 -194.7 -17.0 -197.8 -23.75 -203.45 L-27.85 -207.0 Q-10.35 -207.5 7.2 -207.25 L18.2 -201.3 25.95 -206.95 28.7 -206.85 29.9 -205.3 Q32.35 -201.55 32.35 -197.15 32.35 -194.4 31.15 -192.25 L30.15 -190.5" fill="url(#gradient1)" fill-rule="evenodd" stroke="none"/>
      <path d="M1.25 -190.5 L-46.6 -190.5 Q-47.95 -194.7 -47.15 -198.8 -46.4 -202.7 -43.65 -206.55 L-27.85 -207.0 -23.75 -203.45 Q-17.0 -197.8 -10.8 -194.7 -4.95 -191.7 1.25 -190.5" fill="url(#gradient2)" fill-rule="evenodd" stroke="none"/>
      <path d="M28.7 -206.85 L38.05 -206.55 Q40.2 -202.85 41.0 -198.95 41.65 -194.95 40.85 -190.5 L30.15 -190.5 1.25 -190.5 -46.6 -190.5 Q-47.95 -194.7 -47.15 -198.8 -46.4 -202.7 -43.65 -206.55 L-27.85 -207.0 Q-10.35 -207.5 7.2 -207.25 L25.95 -206.95 28.7 -206.85 Z" fill="none" stroke="#000000" stroke-linecap="round" stroke-linejoin="round" stroke-opacity="0.4" stroke-width="0.7000000000000001"/>
      <path d="M57.7 -119.7 Q55.95 -111.65 52.85 -104.2 L-58.35 -104.2 Q-64.8 -119.7 -65.55 -138.25 L60.0 -138.25 Q59.6 -128.6 57.7 -119.7" fill="url(#gradient3)" fill-rule="evenodd" stroke="none"/>
      <path d="M67.65 -132.65 Q67.65 -129.4 64.4 -129.4 L-67.7 -129.4 Q-70.95 -129.4 -70.95 -132.65 L-70.95 -151.45 Q-70.95 -154.7 -67.7 -154.7 L64.4 -154.7 Q67.65 -154.7 67.65 -151.45 L67.65 -132.65" fill="url(#gradient4)" fill-rule="evenodd" stroke="none"/>
      <path d="M67.65 -132.65 L67.65 -151.45 Q67.65 -154.7 64.4 -154.7 L-67.7 -154.7 Q-70.95 -154.7 -70.95 -151.45 L-70.95 -132.65 Q-70.95 -129.4 -67.7 -129.4 L64.4 -129.4 Q67.65 -129.4 67.65 -132.65 Z" fill="none" stroke="#000000" stroke-linecap="round" stroke-linejoin="round" stroke-opacity="0.4" stroke-width="0.7000000000000001"/>
      <path d="M16.35 -120.85 Q16.0 -113.45 18.05 -107.15 13.35 -110.65 9.6 -115.7 L10.8 -118.65 16.35 -120.85" fill="#c9592d" fill-rule="evenodd" stroke="none"/>
      <path d="M16.35 -120.85 Q16.0 -113.45 18.05 -107.15 13.35 -110.65 9.6 -115.7" fill="none" stroke="#000000" stroke-linecap="round" stroke-linejoin="round" stroke-opacity="0.4" stroke-width="0.7000000000000001"/>
      <path d="M30.25 -69.35 L30.85 -69.6 Q33.2 -71.0 33.55 -71.3 L35.0 -72.7 Q37.45 -68.85 40.55 -65.55 35.3 -67.0 30.25 -69.35" fill="url(#gradient5)" fill-rule="evenodd" stroke="none"/>
      <path d="M30.25 -69.35 Q35.3 -67.0 40.55 -65.55 37.45 -68.85 35.0 -72.7" fill="none" stroke="#000000" stroke-linecap="round" stroke-linejoin="round" stroke-opacity="0.4" stroke-width="0.7000000000000001"/>
      <path d="M12.5 -77.5 Q9.75 -73.85 7.65 -69.85 7.2 -75.2 7.8 -80.75 L8.2 -80.35 10.7 -78.4 12.5 -77.5" fill="url(#gradient6)" fill-rule="evenodd" stroke="none"/>
      <path d="M7.8 -80.75 Q7.2 -75.2 7.65 -69.85 9.75 -73.85 12.5 -77.5" fill="none" stroke="#000000" stroke-linecap="round" stroke-linejoin="round" stroke-opacity="0.4" stroke-width="0.7000000000000001"/>
    </g>
    <linearGradient gradientTransform="matrix(0.0177, 0.067, -0.0549, 0.0145, 3.8, -105.85)" gradientUnits="userSpaceOnUse" id="gradient0" spreadMethod="pad" x1="-819.2" x2="819.2">
      <stop offset="0.0" stop-color="#eb7636"/>
      <stop offset="1.0" stop-color="#e85335"/>
    </linearGradient>
    <linearGradient gradientTransform="matrix(0.0367, 0.0, 0.0, 0.0103, 2.2, -198.95)" gradientUnits="userSpaceOnUse" id="gradient1" spreadMethod="pad" x1="-819.2" x2="819.2">
      <stop offset="0.0" stop-color="#999999"/>
      <stop offset="1.0" stop-color="#b8b8b8"/>
    </linearGradient>
    <linearGradient gradientTransform="matrix(-0.0297, 0.0, 0.0, -0.0101, -23.1, -198.65)" gradientUnits="userSpaceOnUse" id="gradient2" spreadMethod="pad" x1="-819.2" x2="819.2">
      <stop offset="0.0" stop-color="#878787"/>
      <stop offset="1.0" stop-color="#3d3d3d"/>
    </linearGradient>
    <linearGradient gradientTransform="matrix(0.0, 0.0138, -0.0279, 0.0, -2.95, -118.55)" gradientUnits="userSpaceOnUse" id="gradient3" spreadMethod="pad" x1="-819.2" x2="819.2">
      <stop offset="0.0" stop-color="#000000" stop-opacity="0.2509804"/>
      <stop offset="1.0" stop-color="#000000" stop-opacity="0.0"/>
    </linearGradient>
    <linearGradient gradientTransform="matrix(-0.0957, 0.0, 0.0, -0.0101, -12.1, -193.9)" gradientUnits="userSpaceOnUse" id="gradient4" spreadMethod="pad" x1="-819.2" x2="819.2">
      <stop offset="0.0" stop-color="#d1d1d1"/>
      <stop offset="0.1803921568627451" stop-color="#878787"/>
      <stop offset="1.0" stop-color="#3d3d3d"/>
    </linearGradient>
    <linearGradient gradientTransform="matrix(0.0262, 0.067, -0.0582, 0.0145, -15.1, -99.65)" gradientUnits="userSpaceOnUse" id="gradient5" spreadMethod="pad" x1="-819.2" x2="819.2">
      <stop offset="0.0" stop-color="#eb7636"/>
      <stop offset="1.0" stop-color="#e85335"/>
    </linearGradient>
    <linearGradient gradientTransform="matrix(-0.0543, 0.0471, -0.0331, -0.0499, 21.15, -133.55)" gradientUnits="userSpaceOnUse" id="gradient6" spreadMethod="pad" x1="-819.2" x2="819.2">
      <stop offset="0.0" stop-color="#eb7636"/>
      <stop offset="1.0" stop-color="#e85335"/>
    </linearGradient>
  </defs>
</svg>
