<?xml version="1.0" encoding="UTF-8" standalone="no"?>
<svg xmlns:xlink="http://www.w3.org/1999/xlink" height="531.5px" width="460.6px" xmlns="http://www.w3.org/2000/svg">
  <g transform="matrix(1.0, 0.0, 0.0, 1.0, 193.65, 334.05)">
    <use height="124.45" transform="matrix(1.0, 0.0, 0.0, 1.0, -107.5, -203.75)" width="185.55" xlink:href="#shape0"/>
  </g>
  <defs>
    <g id="shape0" transform="matrix(1.0, 0.0, 0.0, 1.0, 107.5, 203.75)">
      <path d="M57.25 -168.7 L59.25 -169.1 60.6 -169.6 60.9 -169.6 62.65 -170.05 Q59.0 -167.25 58.7 -163.7 58.35 -160.2 60.35 -158.2 62.2 -156.3 64.6 -156.2 L64.65 -155.65 62.45 -155.25 62.5 -155.35 61.65 -155.1 59.9 -154.65 57.8 -154.25 55.25 -153.9 57.8 -154.25 59.9 -154.65 61.65 -155.1 61.95 -155.1 62.45 -155.25 Q60.1 -153.2 58.85 -151.2 57.5 -149.2 57.2 -147.15 56.6 -143.25 59.8 -139.05 61.95 -136.2 64.4 -135.3 L71.95 -131.55 Q68.3 -129.65 57.5 -129.35 L53.85 -129.35 51.75 -147.15 52.75 -147.3 54.25 -150.9 55.25 -153.9 Q57.5 -161.25 57.25 -168.7" fill="#d9d9d9" fill-rule="evenodd" stroke="none"/>
      <path d="M62.65 -170.05 Q68.7 -171.15 71.75 -167.5 75.7 -160.1 71.4 -155.35 73.65 -154.55 75.1 -152.95 80.65 -139.9 74.45 -133.4 L72.7 -132.05 72.3 -131.7 71.95 -131.55 64.4 -135.3 Q61.95 -136.2 59.8 -139.05 56.6 -143.25 57.2 -147.15 57.5 -149.2 58.85 -151.2 60.1 -153.2 62.45 -155.25 L64.65 -155.65 64.6 -156.2 Q62.2 -156.3 60.35 -158.2 58.35 -160.2 58.7 -163.7 59.0 -167.25 62.65 -170.05 M51.75 -147.15 Q46.3 -146.3 46.6 -151.2 L46.7 -152.7 46.85 -153.3 Q48.75 -162.75 43.4 -167.5 41.75 -169.0 39.35 -170.0 30.0 -174.9 23.15 -165.35 8.6 -179.9 -13.9 -176.6 -36.45 -173.25 -30.65 -150.9 -29.1 -143.55 -33.9 -141.75 -34.2 -135.45 -38.0 -131.4 -38.8 -130.55 -39.75 -129.9 L-40.25 -129.5 Q-44.05 -127.25 -55.2 -126.8 L-61.8 -127.05 Q-66.4 -127.5 -70.8 -128.7 L-72.3 -131.15 Q-73.5 -133.7 -73.5 -137.6 L-73.2 -141.2 -72.8 -143.25 -72.3 -147.65 Q-72.05 -149.8 -70.65 -152.7 L-69.75 -154.45 -66.5 -153.85 Q-67.3 -155.75 -67.3 -157.15 -67.3 -159.65 -66.4 -161.85 -65.7 -163.85 -64.35 -165.5 -62.85 -167.5 -60.2 -169.6 -54.5 -169.75 -47.55 -171.5 L-47.15 -171.65 -47.15 -173.3 Q-47.15 -185.65 -29.05 -195.25 -17.35 -201.4 -5.0 -203.2 2.2 -202.75 9.85 -201.25 47.5 -202.25 54.85 -182.05 57.0 -175.25 57.25 -168.7 57.5 -161.25 55.25 -153.9 L54.25 -150.9 52.75 -147.3 51.75 -147.15 M-63.85 -122.4 L-62.35 -119.8 Q-60.55 -116.05 -60.55 -111.6 -60.55 -99.9 -70.8 -89.75 -81.15 -79.65 -93.05 -79.65 -96.55 -79.65 -100.4 -81.3 -103.1 -82.55 -105.45 -84.4 L-103.55 -84.9 Q-97.2 -85.9 -96.1 -86.45 -86.95 -91.1 -84.8 -97.45 -83.85 -100.25 -83.3 -105.0 L-82.15 -113.25 Q-81.3 -118.9 -79.2 -122.75 L-77.65 -125.2 Q-73.4 -122.9 -68.8 -121.7 L-65.45 -120.9 -63.85 -122.4 M61.65 -155.1 L62.5 -155.35 61.95 -155.1 61.65 -155.1 M64.25 -160.2 Q63.7 -160.75 63.7 -161.55 63.7 -162.35 64.1 -163.0 64.6 -163.7 65.2 -163.7 66.65 -163.7 67.75 -162.8 68.85 -161.95 68.85 -160.45 68.85 -159.1 68.0 -157.8 66.9 -156.2 64.8 -156.2 L64.6 -156.2 64.8 -156.2 Q66.9 -156.2 68.0 -157.8 68.85 -159.1 68.85 -160.45 68.85 -161.95 67.75 -162.8 66.65 -163.7 65.2 -163.7 64.6 -163.7 64.1 -163.0 63.7 -162.35 63.7 -161.55 63.7 -160.75 64.25 -160.2 M67.75 -142.15 Q67.2 -141.45 66.5 -141.45 65.45 -141.45 64.5 -142.8 63.6 -144.15 63.6 -145.5 63.6 -146.85 64.6 -147.8 65.7 -148.8 67.6 -148.8 69.85 -148.8 71.5 -147.15 73.5 -145.3 73.5 -142.05 73.5 -139.1 71.65 -137.05 69.65 -134.9 66.7 -134.9 L64.4 -135.3 66.7 -134.9 Q69.65 -134.9 71.65 -137.05 73.5 -139.1 73.5 -142.05 73.5 -145.3 71.5 -147.15 69.85 -148.8 67.6 -148.8 65.7 -148.8 64.6 -147.8 63.6 -146.85 63.6 -145.5 63.6 -144.15 64.5 -142.8 65.45 -141.45 66.5 -141.45 67.2 -141.45 67.75 -142.15 M71.4 -155.35 L64.65 -155.65 71.4 -155.35 M-33.9 -141.75 Q-33.65 -146.85 -35.65 -153.3 -36.45 -154.4 -37.45 -155.1 L-37.15 -155.4 Q-31.65 -160.9 -35.3 -170.95 -38.25 -174.35 -46.15 -171.95 L-47.15 -171.65 -46.15 -171.95 Q-38.25 -174.35 -35.3 -170.95 -31.65 -160.9 -37.15 -155.4 L-37.45 -155.1 Q-36.45 -154.4 -35.65 -153.3 -33.65 -146.85 -33.9 -141.75 M-46.15 -171.95 L-47.15 -171.4 -49.4 -169.35 Q-51.7 -166.65 -51.7 -162.0 L-51.7 -161.55 -51.6 -161.05 Q-51.25 -156.45 -45.9 -156.45 L-45.45 -156.45 -49.0 -155.75 -49.1 -155.75 -54.65 -154.25 Q-57.6 -153.5 -60.45 -153.45 L-64.1 -153.6 -66.5 -153.85 -64.1 -153.6 -60.45 -153.45 Q-57.6 -153.5 -54.65 -154.25 L-49.1 -155.75 -49.0 -155.75 -45.45 -156.45 -45.9 -156.45 Q-51.25 -156.45 -51.6 -161.05 L-51.7 -161.55 -51.7 -162.0 Q-51.7 -166.65 -49.4 -169.35 L-47.15 -171.4 -46.15 -171.95 M-49.1 -155.75 Q-51.55 -154.45 -53.0 -152.5 L-53.95 -150.95 Q-55.45 -148.35 -55.75 -144.35 L-55.85 -142.15 -55.85 -141.5 -55.75 -140.85 Q-55.2 -134.2 -48.7 -133.7 -45.5 -133.45 -42.85 -137.05 -41.2 -139.35 -40.75 -141.35 L-40.55 -142.95 Q-40.55 -147.15 -45.25 -147.55 -46.75 -147.7 -47.8 -146.6 -49.1 -145.5 -49.1 -143.25 L-49.1 -143.0 Q-49.0 -142.05 -48.3 -141.5 -47.8 -141.1 -47.15 -141.05 -46.05 -140.95 -45.5 -142.3 -46.05 -140.95 -47.15 -141.05 -47.8 -141.1 -48.3 -141.5 -49.0 -142.05 -49.1 -143.0 L-49.1 -143.25 Q-49.1 -145.5 -47.8 -146.6 -46.75 -147.7 -45.25 -147.55 -40.55 -147.15 -40.55 -142.95 L-40.75 -141.35 Q-41.2 -139.35 -42.85 -137.05 -45.5 -133.45 -48.7 -133.7 -55.2 -134.2 -55.75 -140.85 L-55.85 -141.5 -55.85 -142.15 -55.75 -144.35 Q-55.45 -148.35 -53.95 -150.95 L-53.0 -152.5 Q-51.55 -154.45 -49.1 -155.75 M-43.2 -163.05 Q-43.65 -161.65 -44.6 -161.65 L-45.6 -161.95 Q-46.2 -162.35 -46.2 -163.15 -46.2 -164.75 -45.2 -165.5 -44.3 -166.3 -43.1 -166.3 -39.3 -166.3 -39.3 -163.4 -39.3 -161.45 -41.2 -159.15 -43.05 -156.85 -45.15 -156.5 L-45.45 -156.45 -45.15 -156.5 Q-43.05 -156.85 -41.2 -159.15 -39.3 -161.45 -39.3 -163.4 -39.3 -166.3 -43.1 -166.3 -44.3 -166.3 -45.2 -165.5 -46.2 -164.75 -46.2 -163.15 -46.2 -162.35 -45.6 -161.95 L-44.6 -161.65 Q-43.65 -161.65 -43.2 -163.05 M-68.65 -117.35 Q-68.5 -118.85 -68.7 -120.6 L-68.8 -121.7 -68.7 -120.6 Q-68.5 -118.85 -68.65 -117.35 M-37.45 -155.1 Q-40.3 -157.05 -45.15 -156.5 -40.3 -157.05 -37.45 -155.1" fill="#ffffff" fill-rule="evenodd" stroke="none"/>
      <path d="M-105.45 -84.4 L-107.15 -85.9 Q-104.45 -85.9 -100.8 -89.4 -96.9 -93.15 -96.0 -97.3 -94.0 -107.05 -93.85 -112.45 -93.6 -118.1 -90.05 -123.15 -86.15 -128.6 -80.8 -128.85 L-80.55 -127.05 -80.5 -126.95 -78.2 -125.5 -79.85 -124.35 Q-81.95 -122.75 -83.45 -120.5 -81.95 -122.75 -79.85 -124.35 L-78.2 -125.5 -77.65 -125.2 -79.2 -122.75 Q-81.3 -118.9 -82.15 -113.25 L-83.3 -105.0 Q-83.85 -100.25 -84.8 -97.45 -86.95 -91.1 -96.1 -86.45 -97.2 -85.9 -103.55 -84.9 L-105.45 -84.4 M-80.1 -132.3 L-80.65 -132.6 Q-88.35 -136.8 -89.15 -142.7 -90.2 -150.65 -84.65 -157.0 -81.35 -158.55 -77.05 -157.1 -78.6 -158.7 -78.8 -160.5 -79.7 -166.15 -75.15 -170.95 L-73.2 -171.55 Q-70.65 -171.95 -67.55 -170.95 -66.1 -170.45 -64.5 -169.75 L-60.2 -169.6 Q-62.85 -167.5 -64.35 -165.5 -65.7 -163.85 -66.4 -161.85 -67.3 -159.65 -67.3 -157.15 -67.3 -155.75 -66.5 -153.85 L-69.75 -154.45 -70.65 -152.7 Q-72.05 -149.8 -72.3 -147.65 L-72.8 -143.25 -73.2 -141.2 -73.5 -137.6 Q-73.5 -133.7 -72.3 -131.15 L-70.8 -128.7 Q-74.35 -129.65 -77.7 -131.15 L-80.1 -132.3 M-69.75 -154.45 Q-70.45 -154.55 -70.95 -154.8 L-77.05 -157.1 -70.95 -154.8 Q-70.45 -154.55 -69.75 -154.45" fill="url(#gradient0)" fill-rule="evenodd" stroke="none"/>
      <path d="M-73.2 -171.55 Q-70.3 -180.25 -57.85 -190.2 -33.15 -204.95 -5.0 -203.2 -17.35 -201.4 -29.05 -195.25 -47.15 -185.65 -47.15 -173.3 L-47.15 -171.65 -47.55 -171.5 Q-54.5 -169.75 -60.2 -169.6 L-64.5 -169.75 Q-66.1 -170.45 -67.55 -170.95 -70.65 -171.95 -73.2 -171.55" fill="url(#gradient1)" fill-rule="evenodd" stroke="none"/>
      <path d="M-61.8 -127.05 Q-62.1 -124.5 -63.85 -122.4 L-65.45 -120.9 -68.8 -121.7 Q-73.4 -122.9 -77.65 -125.2 L-78.2 -125.5 -80.5 -126.95 -80.55 -127.05 -80.8 -128.85 -80.75 -130.3 -80.1 -132.3 -77.7 -131.15 Q-74.35 -129.65 -70.8 -128.7 -66.4 -127.5 -61.8 -127.05" fill="#ff9900" fill-rule="evenodd" stroke="none"/>
      <path d="M57.25 -168.7 L59.25 -169.1 60.6 -169.6 60.9 -169.6 62.65 -170.05 Q68.7 -171.15 71.75 -167.5 75.7 -160.1 71.4 -155.35 73.65 -154.55 75.1 -152.95 80.65 -139.9 74.45 -133.4 L72.7 -132.05 72.3 -131.7 71.95 -131.55 Q68.3 -129.65 57.5 -129.35 L53.85 -129.35 51.75 -147.15 Q46.3 -146.3 46.6 -151.2 L46.7 -152.7 46.85 -153.3 Q48.75 -162.75 43.4 -167.5 41.75 -169.0 39.35 -170.0 30.0 -174.9 23.15 -165.35 8.6 -179.9 -13.9 -176.6 -36.45 -173.25 -30.65 -150.9 -29.1 -143.55 -33.9 -141.75 -34.2 -135.45 -38.0 -131.4 -38.8 -130.55 -39.75 -129.9 L-40.25 -129.5 Q-44.05 -127.25 -55.2 -126.8 L-61.8 -127.05 Q-62.1 -124.5 -63.85 -122.4 L-62.35 -119.8 Q-60.55 -116.05 -60.55 -111.6 -60.55 -99.9 -70.8 -89.75 -81.15 -79.65 -93.05 -79.65 -96.55 -79.65 -100.4 -81.3 -103.1 -82.55 -105.45 -84.4 L-107.15 -85.9 Q-104.45 -85.9 -100.8 -89.4 -96.9 -93.15 -96.0 -97.3 -94.0 -107.05 -93.85 -112.45 -93.6 -118.1 -90.05 -123.15 -86.15 -128.6 -80.8 -128.85 L-80.75 -130.3 -80.1 -132.3 -80.65 -132.6 Q-88.35 -136.8 -89.15 -142.7 -90.2 -150.65 -84.65 -157.0 -81.35 -158.55 -77.05 -157.1 -78.6 -158.7 -78.8 -160.5 -79.7 -166.15 -75.15 -170.95 L-73.2 -171.55 Q-70.3 -180.25 -57.85 -190.2 -33.15 -204.95 -5.0 -203.2 2.2 -202.75 9.85 -201.25 47.5 -202.25 54.85 -182.05 57.0 -175.25 57.25 -168.7 57.5 -161.25 55.25 -153.9 L57.8 -154.25 59.9 -154.65 61.65 -155.1 62.5 -155.35 62.45 -155.25 64.65 -155.65 71.4 -155.35 M64.6 -156.2 Q62.2 -156.3 60.35 -158.2 58.35 -160.2 58.7 -163.7 59.0 -167.25 62.65 -170.05 M55.25 -153.9 L54.25 -150.9 52.75 -147.3 51.75 -147.15 M64.6 -156.2 L64.8 -156.2 Q66.9 -156.2 68.0 -157.8 68.85 -159.1 68.85 -160.45 68.85 -161.95 67.75 -162.8 66.65 -163.7 65.2 -163.7 64.6 -163.7 64.1 -163.0 63.7 -162.35 63.7 -161.55 63.7 -160.75 64.25 -160.2 M61.95 -155.1 L62.45 -155.25 Q60.1 -153.2 58.85 -151.2 57.5 -149.2 57.2 -147.15 56.6 -143.25 59.8 -139.05 61.95 -136.2 64.4 -135.3 L66.7 -134.9 Q69.65 -134.9 71.65 -137.05 73.5 -139.1 73.5 -142.05 73.5 -145.3 71.5 -147.15 69.85 -148.8 67.6 -148.8 65.7 -148.8 64.6 -147.8 63.6 -146.85 63.6 -145.5 63.6 -144.15 64.5 -142.8 65.45 -141.45 66.5 -141.45 67.2 -141.45 67.75 -142.15 M61.65 -155.1 L61.95 -155.1 62.5 -155.35 M-47.15 -171.65 L-46.15 -171.95 Q-38.25 -174.35 -35.3 -170.95 -31.65 -160.9 -37.15 -155.4 L-37.45 -155.1 Q-36.45 -154.4 -35.65 -153.3 -33.65 -146.85 -33.9 -141.75 M-60.2 -169.6 L-64.5 -169.75 Q-66.1 -170.45 -67.55 -170.95 -70.65 -171.95 -73.2 -171.55 M-77.05 -157.1 L-70.95 -154.8 Q-70.45 -154.55 -69.75 -154.45 L-66.5 -153.85 -64.1 -153.6 -60.45 -153.45 Q-57.6 -153.5 -54.65 -154.25 L-49.1 -155.75 -49.0 -155.75 -45.45 -156.45 -45.9 -156.45 Q-51.25 -156.45 -51.6 -161.05 L-51.7 -161.55 -51.7 -162.0 Q-51.7 -166.65 -49.4 -169.35 L-47.15 -171.4 -46.15 -171.95 M-70.8 -128.7 Q-66.4 -127.5 -61.8 -127.05 M-60.2 -169.6 Q-54.5 -169.75 -47.55 -171.5 L-47.15 -171.65 M-45.45 -156.45 L-45.15 -156.5 Q-43.05 -156.85 -41.2 -159.15 -39.3 -161.45 -39.3 -163.4 -39.3 -166.3 -43.1 -166.3 -44.3 -166.3 -45.2 -165.5 -46.2 -164.75 -46.2 -163.15 -46.2 -162.35 -45.6 -161.95 L-44.6 -161.65 Q-43.65 -161.65 -43.2 -163.05 M-45.5 -142.3 Q-46.05 -140.95 -47.15 -141.05 -47.8 -141.1 -48.3 -141.5 -49.0 -142.05 -49.1 -143.0 L-49.1 -143.25 Q-49.1 -145.5 -47.8 -146.6 -46.75 -147.7 -45.25 -147.55 -40.55 -147.15 -40.55 -142.95 L-40.75 -141.35 Q-41.2 -139.35 -42.85 -137.05 -45.5 -133.45 -48.7 -133.7 -55.2 -134.2 -55.75 -140.85 L-55.85 -141.5 -55.85 -142.15 -55.75 -144.35 Q-55.45 -148.35 -53.95 -150.95 L-53.0 -152.5 Q-51.55 -154.45 -49.1 -155.75 M-70.8 -128.7 Q-74.35 -129.65 -77.7 -131.15 L-80.1 -132.3 M-78.2 -125.5 L-80.5 -126.95 -80.55 -127.05 -80.8 -128.85 M-78.2 -125.5 L-79.85 -124.35 Q-81.95 -122.75 -83.45 -120.5 M-77.65 -125.2 L-78.2 -125.5 M-68.8 -121.7 L-68.7 -120.6 Q-68.5 -118.85 -68.65 -117.35 M-63.85 -122.4 L-65.45 -120.9 -68.8 -121.7 Q-73.4 -122.9 -77.65 -125.2 M-45.15 -156.5 Q-40.3 -157.05 -37.45 -155.1" fill="none" stroke="#000000" stroke-linecap="round" stroke-linejoin="round" stroke-opacity="0.4" stroke-width="0.7000000000000001"/>
      <path d="M33.4 -143.95 L33.25 -143.95 Q32.75 -143.15 32.45 -143.1 L31.4 -143.0 28.55 -143.15 26.5 -143.5 25.35 -143.75 9.95 -143.75 10.25 -145.3 Q10.35 -146.65 9.6 -148.2 10.35 -146.65 10.25 -145.3 L7.25 -145.5 4.95 -145.5 1.35 -145.3 -5.9 -143.5 Q-12.1 -141.9 -13.7 -141.9 L-15.65 -142.0 -15.75 -142.0 Q-16.7 -142.2 -17.6 -143.25 L-17.6 -144.35 -16.0 -144.9 -14.1 -145.5 Q-4.15 -147.65 5.95 -148.05 L7.0 -148.1 9.6 -148.2 27.65 -147.25 28.45 -147.05 33.0 -146.45 33.4 -143.95 33.0 -146.45 34.1 -146.2 Q39.7 -145.1 43.0 -142.45 L44.55 -140.8 44.45 -140.55 43.9 -140.55 Q42.0 -140.55 37.55 -142.3 L33.4 -143.9 33.4 -143.95 M45.55 -131.25 Q44.2 -129.35 41.25 -127.75 39.15 -126.7 35.7 -126.95 L35.25 -128.55 35.65 -128.55 39.85 -129.35 41.25 -129.75 41.6 -129.9 45.55 -131.25 M34.25 -127.2 Q29.5 -127.8 22.75 -130.75 L23.15 -131.15 26.5 -130.15 Q30.85 -128.85 33.9 -129.35 L34.1 -129.35 34.1 -129.25 34.2 -128.55 34.25 -127.2 M-0.3 -132.75 L-7.25 -130.7 -7.3 -130.7 Q-16.95 -128.05 -20.15 -128.85 -22.05 -129.25 -23.25 -130.05 L-21.55 -132.5 Q-20.9 -131.95 -19.35 -131.8 L-15.45 -131.7 -13.45 -131.7 -8.65 -132.3 -8.35 -132.45 -2.85 -133.05 -0.3 -132.75" fill="#e6e6e6" fill-rule="evenodd" stroke="none"/>
      <path d="M9.95 -143.75 L25.35 -143.75 26.5 -143.5 28.55 -143.15 31.4 -143.0 32.45 -143.1 Q32.75 -143.15 33.25 -143.95 L33.4 -143.95 33.4 -143.9 Q33.65 -140.8 32.2 -139.35 33.65 -140.8 33.4 -143.9 L37.55 -142.3 Q42.0 -140.55 43.9 -140.55 L44.45 -140.55 Q44.0 -139.2 41.35 -138.9 L37.15 -138.7 32.2 -139.35 31.55 -138.8 29.25 -138.1 Q27.35 -137.55 25.2 -137.35 L23.95 -137.3 Q16.8 -137.05 7.95 -140.8 9.4 -142.2 9.95 -143.75 9.4 -142.2 7.95 -140.8 L7.85 -140.8 7.3 -140.3 3.9 -139.3 0.55 -138.65 Q-4.0 -137.95 -9.0 -138.5 L-12.9 -139.05 -13.55 -139.2 Q-14.8 -139.6 -15.6 -140.25 -18.8 -142.0 -17.75 -144.3 L-17.6 -144.35 -17.6 -143.25 Q-16.7 -142.2 -15.75 -142.0 L-15.65 -142.0 -13.7 -141.9 Q-12.1 -141.9 -5.9 -143.5 L1.35 -145.3 4.95 -145.5 7.25 -145.5 10.25 -145.3 9.95 -143.75 M46.7 -133.65 Q46.35 -132.35 45.55 -131.25 L41.6 -129.9 41.25 -129.75 39.85 -129.35 35.65 -128.55 35.25 -128.55 35.25 -128.7 35.15 -129.2 Q35.05 -130.45 35.7 -131.4 L37.05 -131.95 Q39.75 -133.05 42.45 -133.4 L43.35 -133.55 46.7 -133.65 M22.75 -130.75 L19.95 -132.05 19.9 -132.1 19.8 -132.1 17.95 -132.5 16.3 -132.85 10.9 -133.7 9.95 -133.7 Q9.7 -134.45 10.0 -134.9 10.4 -135.45 11.45 -135.7 16.8 -135.85 23.0 -135.45 L25.35 -135.3 29.1 -135.0 30.3 -134.75 Q33.4 -133.7 34.1 -129.35 L33.9 -129.35 Q30.85 -128.85 26.5 -130.15 L23.15 -131.15 22.75 -130.75 M3.65 -133.55 L0.65 -133.05 -0.3 -132.75 -2.85 -133.05 -8.35 -132.45 -8.65 -132.3 -13.45 -131.7 -15.45 -131.7 -19.35 -131.8 Q-20.9 -131.95 -21.55 -132.5 L-20.05 -134.25 Q-17.8 -135.4 -14.8 -135.7 L-13.7 -135.8 -9.3 -135.8 -3.35 -135.0 3.65 -133.55" fill="#ffffff" fill-rule="evenodd" stroke="none"/>
      <path d="M25.2 -137.35 Q27.35 -137.55 29.25 -138.1 L31.55 -138.8 32.2 -139.35 37.15 -138.7 Q37.7 -137.35 37.7 -135.0 37.7 -133.4 37.05 -131.95 L35.7 -131.4 Q35.05 -130.45 35.15 -129.2 L35.25 -128.7 35.25 -128.55 35.7 -126.95 34.25 -127.2 34.2 -128.55 34.1 -129.25 34.1 -129.35 Q33.4 -133.7 30.3 -134.75 L29.1 -135.0 25.35 -135.3 25.35 -135.95 25.2 -137.35 M44.45 -140.55 L44.55 -140.8 44.6 -140.55 46.05 -138.4 Q47.25 -135.85 46.7 -133.65 L43.35 -133.55 42.45 -133.4 42.45 -134.05 Q42.45 -136.9 41.35 -138.9 44.0 -139.2 44.45 -140.55 M3.75 -133.65 L3.65 -133.55 -3.35 -135.0 -9.3 -135.8 -9.0 -138.5 Q-4.0 -137.95 0.55 -138.65 L3.9 -139.3 3.75 -138.8 Q3.5 -138.3 3.5 -135.95 3.5 -134.6 3.75 -133.65 M-23.25 -130.05 Q-28.5 -133.25 -22.5 -141.35 -20.45 -143.15 -17.75 -144.3 -18.8 -142.0 -15.6 -140.25 -14.8 -139.6 -13.55 -139.2 L-12.9 -139.05 -13.15 -138.55 Q-13.6 -137.45 -13.7 -135.8 L-14.8 -135.7 Q-17.8 -135.4 -20.05 -134.25 L-21.55 -132.5 -23.25 -130.05" fill="#4d1353" fill-rule="evenodd" stroke="none"/>
      <path d="M7.95 -140.8 Q16.8 -137.05 23.95 -137.3 L25.2 -137.35 25.35 -135.95 25.35 -135.3 23.0 -135.45 Q16.8 -135.85 11.45 -135.7 10.4 -135.45 10.0 -134.9 9.7 -134.45 9.95 -133.7 6.7 -133.95 3.75 -133.65 3.5 -134.6 3.5 -135.95 3.5 -138.3 3.75 -138.8 L3.9 -139.3 7.3 -140.3 7.85 -140.8 7.95 -140.8 M37.05 -131.95 Q37.7 -133.4 37.7 -135.0 37.7 -137.35 37.15 -138.7 L41.35 -138.9 Q42.45 -136.9 42.45 -134.05 L42.45 -133.4 Q39.75 -133.05 37.05 -131.95 M-9.0 -138.5 L-9.3 -135.8 -13.7 -135.8 Q-13.6 -137.45 -13.15 -138.55 L-12.9 -139.05 -9.0 -138.5" fill="#330d37" fill-rule="evenodd" stroke="none"/>
      <path d="M33.4 -143.95 L33.0 -146.45 28.45 -147.05 27.65 -147.25 9.6 -148.2 Q10.35 -146.65 10.25 -145.3 L9.95 -143.75 Q9.4 -142.2 7.95 -140.8 16.8 -137.05 23.95 -137.3 L25.2 -137.35 Q27.35 -137.55 29.25 -138.1 L31.55 -138.8 32.2 -139.35 Q33.65 -140.8 33.4 -143.9 M44.55 -140.8 L43.0 -142.45 Q39.7 -145.1 34.1 -146.2 L33.0 -146.45 M37.15 -138.7 L32.2 -139.35 M44.45 -140.55 L44.55 -140.8 44.6 -140.55 46.05 -138.4 Q47.25 -135.85 46.7 -133.65 46.35 -132.35 45.55 -131.25 44.2 -129.35 41.25 -127.75 39.15 -126.7 35.7 -126.95 L34.25 -127.2 Q29.5 -127.8 22.75 -130.75 L19.95 -132.05 19.9 -132.1 19.8 -132.1 17.95 -132.5 16.3 -132.85 10.9 -133.7 9.95 -133.7 Q6.7 -133.95 3.75 -133.65 L3.65 -133.55 0.65 -133.05 -0.3 -132.75 -7.25 -130.7 -7.3 -130.7 Q-16.95 -128.05 -20.15 -128.85 -22.05 -129.25 -23.25 -130.05 -28.5 -133.25 -22.5 -141.35 -20.45 -143.15 -17.75 -144.3 L-17.6 -144.35 -16.0 -144.9 -14.1 -145.5 Q-4.15 -147.65 5.95 -148.05 L7.0 -148.1 9.6 -148.2 M9.95 -133.7 Q9.7 -134.45 10.0 -134.9 10.4 -135.45 11.45 -135.7 16.8 -135.85 23.0 -135.45 L25.35 -135.3 29.1 -135.0 30.3 -134.75 Q33.4 -133.7 34.1 -129.35 L34.1 -129.25 34.2 -128.55 34.25 -127.2 M37.05 -131.95 Q39.75 -133.05 42.45 -133.4 L43.35 -133.55 46.7 -133.65 M41.35 -138.9 L37.15 -138.7 M35.25 -128.55 L35.25 -128.7 35.15 -129.2 Q35.05 -130.45 35.7 -131.4 L37.05 -131.95 M35.7 -126.95 L35.25 -128.55 M3.9 -139.3 L0.55 -138.65 Q-4.0 -137.95 -9.0 -138.5 L-12.9 -139.05 -13.55 -139.2 Q-14.8 -139.6 -15.6 -140.25 -18.8 -142.0 -17.75 -144.3 M-9.3 -135.8 L-3.35 -135.0 3.65 -133.55 M7.95 -140.8 L7.85 -140.8 7.3 -140.3 3.9 -139.3 M44.45 -140.55 Q44.0 -139.2 41.35 -138.9 M-21.55 -132.5 L-20.05 -134.25 Q-17.8 -135.4 -14.8 -135.7 L-13.7 -135.8 -9.3 -135.8 M-23.25 -130.05 L-21.55 -132.5" fill="none" stroke="#000000" stroke-linecap="round" stroke-linejoin="round" stroke-opacity="0.6627451" stroke-width="1.0"/>
    </g>
    <linearGradient gradientTransform="matrix(0.0087, 0.0023, -0.0028, 0.0105, -72.05, -162.5)" gradientUnits="userSpaceOnUse" id="gradient0" spreadMethod="pad" x1="-819.2" x2="819.2">
      <stop offset="0.0" stop-color="#cccccc"/>
      <stop offset="0.9882352941176471" stop-color="#ffffff"/>
    </linearGradient>
    <linearGradient gradientTransform="matrix(0.0, -0.0194, 0.0206, 0.0, -48.45, -180.8)" gradientUnits="userSpaceOnUse" id="gradient1" spreadMethod="pad" x1="-819.2" x2="819.2">
      <stop offset="0.0" stop-color="#cccccc"/>
      <stop offset="0.9882352941176471" stop-color="#ffffff"/>
    </linearGradient>
  </defs>
</svg>
