<?xml version="1.0" encoding="UTF-8" standalone="no"?>
<svg xmlns:xlink="http://www.w3.org/1999/xlink" height="531.5px" width="460.6px" xmlns="http://www.w3.org/2000/svg">
  <g transform="matrix(1.0, 0.0, 0.0, 1.0, 193.65, 334.05)">
    <use height="123.25" transform="matrix(1.0, 0.0, 0.0, 1.0, -84.45, -231.0)" width="155.05" xlink:href="#shape0"/>
  </g>
  <defs>
    <g id="shape0" transform="matrix(1.0, 0.0, 0.0, 1.0, 84.45, 231.0)">
      <path d="M18.55 -219.55 L0.35 -202.25 0.35 -173.3 36.85 -175.45 39.2 -175.55 37.3 -202.25 20.0 -220.9 18.55 -219.55 M18.4 -230.05 L19.2 -230.2 26.0 -224.2 Q32.8 -218.35 43.1 -205.15 L45.5 -172.05 45.8 -168.8 22.85 -167.5 -8.75 -165.75 -8.25 -203.15 -7.55 -203.85 18.4 -230.05" fill="#333333" fill-rule="evenodd" stroke="none"/>
      <path d="M18.55 -219.55 L20.0 -220.9 37.3 -202.25 39.2 -175.55 36.85 -175.45 34.95 -201.85 18.55 -219.55" fill="#969696" fill-rule="evenodd" stroke="none"/>
      <path d="M36.85 -175.45 L0.35 -173.3 0.35 -202.25 18.55 -219.55 34.95 -201.85 36.85 -175.45 M30.55 -196.55 L22.6 -195.9 19.1 -203.0 17.35 -195.35 9.4 -194.15 16.25 -190.0 14.8 -182.25 20.95 -187.5 27.85 -183.75 24.85 -191.05 30.55 -196.55" fill="#e3e3e3" fill-rule="evenodd" stroke="none"/>
      <path d="M50.85 -164.75 L51.85 -164.8 52.35 -163.3 Q57.1 -146.85 67.95 -138.5 71.25 -135.7 69.45 -132.7 66.35 -125.75 61.8 -121.85 60.0 -132.85 57.9 -141.45 55.6 -150.35 50.85 -164.75 M-34.8 -153.5 Q-35.15 -132.3 -34.0 -121.65 L-33.8 -119.25 Q-33.25 -108.75 -38.3 -108.4 L-40.85 -108.4 Q-39.35 -114.0 -39.05 -120.05 -38.9 -128.65 -38.55 -132.9 -37.75 -143.8 -37.2 -146.7 -36.4 -151.2 -34.8 -153.5" fill="#decfb1" fill-rule="evenodd" stroke="none"/>
      <path d="M18.4 -230.05 L-7.55 -203.85 -23.35 -202.85 -17.25 -212.75 -18.2 -213.0 Q-21.55 -213.9 -25.45 -214.1 L-28.45 -214.2 Q-33.45 -214.2 -40.55 -212.75 -32.6 -219.75 -25.45 -221.35 L-20.4 -222.65 -17.65 -223.05 -11.1 -222.85 -9.85 -225.5 -8.35 -227.25 18.4 -230.05 M22.85 -167.5 L45.8 -168.8 45.5 -172.05 50.6 -172.35 59.75 -172.05 Q61.8 -171.65 62.7 -169.8 63.5 -167.9 58.3 -166.1 L51.85 -164.8 50.85 -164.75 48.6 -164.5 34.55 -163.05 Q31.25 -163.8 28.1 -165.05 24.9 -166.3 22.85 -167.5 M-79.75 -162.9 L-80.05 -163.05 Q-85.25 -166.4 -83.5 -169.2 -76.95 -171.75 -59.85 -170.15 L-59.85 -169.6 -60.05 -168.4 -64.3 -168.4 -64.55 -168.25 -70.95 -166.25 -79.75 -162.9 M30.55 -196.55 L24.85 -191.05 27.85 -183.75 20.95 -187.5 14.8 -182.25 16.25 -190.0 9.4 -194.15 17.35 -195.35 19.1 -203.0 22.6 -195.9 30.55 -196.55 M-17.65 -223.05 L-20.35 -220.7 Q-23.2 -218.0 -25.45 -214.1 -23.2 -218.0 -20.35 -220.7 L-17.65 -223.05 M-11.1 -222.85 L-17.25 -212.75 -11.1 -222.85" fill="#cc0000" fill-rule="evenodd" stroke="none"/>
      <path d="M50.85 -164.75 Q55.6 -150.35 57.9 -141.45 60.0 -132.85 61.8 -121.85 L58.05 -119.25 56.55 -118.5 56.55 -119.25 Q55.35 -141.75 49.1 -162.9 L48.6 -164.5 50.85 -164.75 M-34.75 -159.15 L-34.8 -153.5 Q-36.4 -151.2 -37.2 -146.7 -37.75 -143.8 -38.55 -132.9 -38.9 -128.65 -39.05 -120.05 -39.35 -114.0 -40.85 -108.4 L-48.65 -109.2 Q-45.15 -116.6 -44.05 -124.95 L-45.5 -125.6 Q-43.35 -134.9 -42.3 -144.7 -41.75 -149.45 -41.5 -154.25 L-40.05 -154.15 -39.6 -159.0 -34.75 -159.15 M-64.65 -114.05 Q-69.0 -115.9 -73.45 -118.35 L-74.5 -119.25 Q-76.75 -121.65 -75.8 -124.25 -64.55 -136.4 -62.75 -159.15 L-58.6 -159.1 -54.7 -158.95 -55.0 -155.35 -53.25 -155.2 Q-54.3 -141.6 -57.7 -129.2 L-59.8 -129.5 Q-63.15 -122.2 -64.65 -114.05" fill="#bda880" fill-rule="evenodd" stroke="none"/>
      <path d="M-7.55 -203.85 L-8.25 -203.15 -8.75 -165.75 22.85 -167.5 Q24.9 -166.3 28.1 -165.05 31.25 -163.8 34.55 -163.05 L21.0 -162.1 -34.75 -159.15 -39.6 -159.0 -54.7 -158.95 -58.6 -159.1 -62.75 -159.15 Q-72.45 -159.8 -79.75 -162.9 L-70.95 -166.25 -64.55 -168.25 -64.3 -168.4 -60.05 -168.4 -59.85 -169.6 -59.85 -170.15 Q-58.3 -190.5 -52.4 -200.3 -46.25 -207.9 -40.55 -212.75 -33.45 -214.2 -28.45 -214.2 L-25.45 -214.1 Q-21.55 -213.9 -18.2 -213.0 L-17.25 -212.75 -23.35 -202.85 -7.55 -203.85 M-8.75 -165.75 L-24.55 -167.3 -23.35 -202.85 -24.55 -167.3 -8.75 -165.75 M-60.05 -168.4 L-35.55 -167.45 -24.55 -167.3 -35.55 -167.45 -60.05 -168.4 M-35.55 -167.45 Q-34.4 -199.1 -25.45 -214.1 -34.4 -199.1 -35.55 -167.45" fill="#990000" fill-rule="evenodd" stroke="none"/>
      <path d="M-18.9 -225.9 L-9.85 -225.5 -11.1 -222.85 -17.65 -223.05 -20.4 -222.65 Q-20.2 -224.55 -19.05 -225.75 L-18.9 -225.9" fill="#ff9900" fill-rule="evenodd" stroke="none"/>
      <path d="M-25.45 -221.35 Q-27.1 -223.2 -24.15 -225.15 L-18.9 -225.9 -19.05 -225.75 Q-20.2 -224.55 -20.4 -222.65 L-25.45 -221.35" fill="#c47400" fill-rule="evenodd" stroke="none"/>
      <path d="M-52.45 -108.9 Q-58.9 -110.15 -64.9 -112.7 L-64.65 -114.05 Q-63.15 -122.2 -59.8 -129.5 L-57.7 -129.2 Q-52.55 -128.4 -47.85 -126.65 -47.4 -126.4 -47.0 -126.25 -47.55 -122.4 -49.2 -117.0 -50.8 -112.1 -52.45 -108.9 M-39.6 -159.0 L-40.05 -154.15 -41.5 -154.25 -53.25 -155.2 -55.0 -155.35 -54.7 -158.95 -39.6 -159.0" fill="#999999" fill-rule="evenodd" stroke="none"/>
      <path d="M-53.25 -155.2 L-41.5 -154.25 Q-41.75 -149.45 -42.3 -144.7 L-44.35 -138.15 -47.85 -126.65 Q-52.55 -128.4 -57.7 -129.2 -54.3 -141.6 -53.25 -155.2" fill="#575248" fill-rule="evenodd" stroke="none"/>
      <path d="M-48.65 -109.2 L-49.15 -108.25 -52.45 -108.9 Q-50.8 -112.1 -49.2 -117.0 -47.55 -122.4 -47.0 -126.25 L-45.5 -125.6 -44.05 -124.95 Q-45.15 -116.6 -48.65 -109.2" fill="#bdbdbd" fill-rule="evenodd" stroke="none"/>
      <path d="M-42.3 -144.7 Q-43.35 -134.9 -45.5 -125.6 L-47.0 -126.25 Q-47.4 -126.4 -47.85 -126.65 L-44.35 -138.15 -42.3 -144.7" fill="#6e6960" fill-rule="evenodd" stroke="none"/>
      <path d="M36.85 -175.45 L0.35 -173.3 0.35 -202.25 18.55 -219.55 20.0 -220.9 37.3 -202.25 39.2 -175.55 36.85 -175.45 M18.4 -230.05 L19.2 -230.2 18.85 -230.5 18.4 -230.05 -7.55 -203.85 -8.25 -203.15 -8.75 -165.75 22.85 -167.5 45.8 -168.8 45.5 -172.05 43.1 -205.15 Q32.8 -218.35 26.0 -224.2 L19.2 -230.2 M51.85 -164.8 L50.85 -164.75 48.6 -164.5 34.55 -163.05 21.0 -162.1 -34.75 -159.15 -34.8 -153.5 Q-35.15 -132.3 -34.0 -121.65 L-33.8 -119.25 Q-33.25 -108.75 -38.3 -108.4 L-40.85 -108.4 -48.65 -109.2 -49.15 -108.25 -52.45 -108.9 Q-58.9 -110.15 -64.9 -112.7 L-64.65 -114.05 Q-69.0 -115.9 -73.45 -118.35 L-74.5 -119.25 Q-76.75 -121.65 -75.8 -124.25 -64.55 -136.4 -62.75 -159.15 -72.45 -159.8 -79.75 -162.9 L-80.05 -163.05 Q-85.25 -166.4 -83.5 -169.2 -76.95 -171.75 -59.85 -170.15 -58.3 -190.5 -52.4 -200.3 -46.25 -207.9 -40.55 -212.75 -32.6 -219.75 -25.45 -221.35 -27.1 -223.2 -24.15 -225.15 L-18.9 -225.9 -9.85 -225.5 -8.35 -227.25 18.4 -230.05 M61.8 -121.85 Q66.35 -125.75 69.45 -132.7 71.25 -135.7 67.95 -138.5 57.1 -146.85 52.35 -163.3 L51.85 -164.8 58.3 -166.1 Q63.5 -167.9 62.7 -169.8 61.8 -171.65 59.75 -172.05 L50.6 -172.35 45.5 -172.05 M61.8 -121.85 L58.05 -119.25 56.55 -118.5 56.55 -119.25 Q55.35 -141.75 49.1 -162.9 L48.6 -164.5 M30.55 -196.55 L24.85 -191.05 27.85 -183.75 20.95 -187.5 14.8 -182.25 16.25 -190.0 9.4 -194.15 17.35 -195.35 19.1 -203.0 22.6 -195.9 30.55 -196.55 M-20.4 -222.65 L-17.65 -223.05 -11.1 -222.85 -9.85 -225.5 M-25.45 -214.1 Q-23.2 -218.0 -20.35 -220.7 L-17.65 -223.05 M-25.45 -221.35 L-20.4 -222.65 M-17.25 -212.75 L-11.1 -222.85 M-7.55 -203.85 L-23.35 -202.85 -24.55 -167.3 -8.75 -165.75 M-17.25 -212.75 L-23.35 -202.85 M-39.6 -159.0 L-34.75 -159.15 M-41.5 -154.25 L-40.05 -154.15 -39.6 -159.0 -54.7 -158.95 -55.0 -155.35 -53.25 -155.2 -41.5 -154.25 Q-41.75 -149.45 -42.3 -144.7 -43.35 -134.9 -45.5 -125.6 L-44.05 -124.95 Q-45.15 -116.6 -48.65 -109.2 M-24.55 -167.3 L-35.55 -167.45 -60.05 -168.4 -64.3 -168.4 M-60.05 -168.4 L-59.85 -169.6 -59.85 -170.15 M-62.75 -159.15 L-58.6 -159.1 -54.7 -158.95 M-57.7 -129.2 Q-52.55 -128.4 -47.85 -126.65 -47.4 -126.4 -47.0 -126.25 L-45.5 -125.6 M-64.65 -114.05 Q-63.15 -122.2 -59.8 -129.5 L-57.7 -129.2 Q-54.3 -141.6 -53.25 -155.2 M-25.45 -214.1 Q-34.4 -199.1 -35.55 -167.45" fill="none" stroke="#000000" stroke-linecap="round" stroke-linejoin="round" stroke-opacity="0.5019608" stroke-width="1.0"/>
    </g>
  </defs>
</svg>
