<?xml version="1.0" encoding="UTF-8" standalone="no"?>
<svg xmlns:xlink="http://www.w3.org/1999/xlink" height="531.5px" width="460.6px" xmlns="http://www.w3.org/2000/svg">
  <g transform="matrix(1.0, 0.0, 0.0, 1.0, 193.65, 334.05)">
    <use height="107.75" transform="matrix(1.0, 0.0, 0.0, 1.0, -65.45, -182.95)" width="124.75" xlink:href="#shape0"/>
  </g>
  <defs>
    <g id="shape0" transform="matrix(1.0, 0.0, 0.0, 1.0, 65.45, 182.95)">
      <path d="M45.05 -175.45 L46.1 -175.8 46.2 -175.6 43.8 -172.85 44.8 -172.15 Q48.3 -169.95 50.0 -167.5 L50.5 -166.75 51.35 -166.75 Q52.05 -166.45 51.65 -164.6 L52.45 -163.1 Q55.1 -157.2 56.15 -148.85 L57.0 -142.3 Q58.35 -130.15 58.85 -120.35 60.2 -105.95 57.4 -92.15 L56.3 -87.8 56.3 -87.55 Q56.3 -85.1 55.5 -83.75 53.95 -81.55 49.45 -79.85 L49.3 -79.85 Q40.6 -76.8 19.8 -76.05 L-3.5 -75.2 Q-26.6 -75.0 -48.4 -81.3 L-55.25 -83.45 -56.15 -83.9 -56.5 -84.05 Q-60.6 -86.05 -62.1 -88.3 -64.25 -91.35 -65.0 -96.7 -65.4 -99.05 -65.45 -102.5 L-64.2 -138.55 Q-62.65 -155.55 -50.7 -167.8 L-48.5 -170.0 Q-38.7 -179.1 -26.9 -182.05 L-20.6 -182.6 Q4.05 -184.2 27.9 -178.25 34.6 -176.6 41.05 -174.2 L42.2 -173.7 42.75 -174.45 43.45 -175.35 Q43.9 -175.8 44.25 -175.75 L45.05 -175.45 M41.15 -158.35 L43.8 -161.1 Q45.4 -162.65 47.25 -163.85 L47.3 -163.85 47.25 -164.0 Q46.5 -165.7 43.15 -167.8 L39.95 -163.1 38.5 -160.65 36.8 -157.6 34.2 -151.95 32.7 -149.15 32.1 -147.55 Q31.6 -146.25 31.1 -146.4 30.4 -146.55 30.85 -153.25 31.3 -159.5 31.85 -161.5 32.15 -162.55 32.75 -163.6 L34.15 -165.7 37.8 -169.55 38.35 -170.1 37.25 -170.5 27.9 -173.55 22.1 -174.8 Q-2.45 -180.6 -26.9 -177.35 L-31.65 -175.6 -31.65 -175.5 -30.85 -174.6 -29.95 -173.6 -27.5 -171.75 -25.75 -170.55 -25.1 -169.95 -20.8 -166.2 Q-18.75 -164.15 -18.2 -162.1 -17.7 -160.05 -17.45 -153.7 -17.3 -147.0 -18.2 -146.85 -18.85 -146.6 -19.45 -147.9 L-20.05 -149.5 -21.75 -152.25 -24.55 -157.85 -28.15 -163.25 -31.5 -167.6 -32.1 -168.4 Q-32.3 -169.4 -31.4 -169.65 L-30.35 -169.5 -29.4 -169.05 Q-31.0 -171.95 -33.85 -174.5 -40.45 -171.25 -46.05 -165.5 L-49.25 -162.1 Q-58.0 -151.65 -60.0 -138.55 L-61.6 -102.5 Q-61.35 -98.25 -60.6 -95.5 -59.75 -92.15 -58.0 -90.15 L-56.35 -88.45 -55.25 -87.85 -48.4 -86.05 -38.35 -83.75 Q-9.6 -77.55 19.8 -79.55 L23.3 -79.8 Q42.0 -80.95 49.1 -83.8 L49.9 -84.35 Q50.9 -85.35 51.9 -87.55 L52.05 -87.8 Q56.45 -101.05 55.35 -115.4 55.1 -117.9 55.0 -120.35 L55.0 -121.1 54.1 -116.9 51.2 -105.95 50.15 -101.3 49.85 -100.15 Q48.9 -96.85 47.85 -94.5 L46.65 -91.6 45.05 -88.8 Q43.95 -87.25 42.0 -86.25 L41.7 -86.1 Q39.25 -85.1 35.75 -84.65 L24.85 -84.35 18.9 -84.45 18.3 -84.3 13.95 -83.9 Q11.8 -83.9 9.45 -84.6 L-17.1 -84.95 -27.2 -85.4 -32.0 -86.5 Q-33.0 -86.8 -35.05 -87.95 -37.05 -89.0 -37.5 -89.4 L-40.85 -92.3 -43.9 -95.5 Q-45.6 -97.9 -47.85 -102.25 L-48.4 -103.35 Q-49.9 -106.25 -50.4 -107.7 -51.6 -110.95 -53.2 -119.85 L-53.9 -125.95 -54.75 -128.4 -54.95 -128.95 -55.85 -132.0 -55.65 -133.9 Q-55.25 -135.4 -54.5 -135.4 L-53.45 -135.05 -51.9 -134.1 -51.85 -134.8 -51.6 -134.8 -51.05 -133.5 -48.4 -131.45 -48.1 -131.15 Q-43.9 -127.65 -41.15 -124.6 -36.6 -119.65 -24.7 -117.15 -16.6 -115.4 -9.9 -115.4 L-1.0 -115.9 10.8 -116.5 24.15 -116.9 31.15 -117.65 Q34.65 -117.95 38.2 -118.8 41.15 -119.4 42.15 -119.95 44.6 -121.25 46.05 -122.75 47.7 -124.5 47.7 -126.35 47.7 -126.75 48.45 -127.8 L48.55 -127.9 49.4 -129.15 50.0 -132.0 50.9 -134.9 51.95 -137.55 Q52.9 -139.0 53.65 -138.3 53.35 -140.2 53.2 -142.3 L52.6 -146.8 Q51.8 -153.05 49.25 -159.5 L48.45 -158.75 48.25 -158.5 47.3 -156.9 47.0 -154.95 46.8 -152.85 Q46.4 -151.6 45.9 -149.0 L45.5 -147.9 43.2 -142.3 42.15 -139.9 Q40.9 -137.55 39.0 -135.65 L36.5 -133.95 Q35.0 -133.05 33.9 -132.85 L34.05 -132.75 Q35.3 -131.75 37.55 -131.15 39.25 -130.7 41.7 -133.6 43.3 -135.5 44.1 -137.5 L45.7 -141.15 46.2 -142.3 46.65 -143.35 47.3 -145.35 Q48.6 -149.9 48.25 -157.15 L48.45 -156.6 Q48.85 -155.55 48.9 -153.55 L48.85 -151.5 Q48.6 -147.9 47.95 -145.35 L46.85 -142.45 46.85 -142.35 46.8 -142.3 45.9 -139.6 Q45.65 -138.7 43.05 -134.3 40.45 -131.0 39.45 -130.45 38.2 -129.7 35.3 -130.45 34.0 -130.85 33.15 -131.75 32.55 -132.35 32.45 -132.9 L31.85 -133.15 Q31.6 -132.3 31.45 -129.85 L31.45 -128.25 31.6 -126.6 Q32.1 -124.45 33.2 -123.7 33.85 -123.3 36.95 -122.45 37.95 -122.15 40.6 -124.9 43.35 -127.65 44.25 -129.8 L46.25 -134.3 47.55 -137.8 47.8 -138.55 48.6 -142.3 Q49.15 -145.1 49.3 -148.0 L49.6 -153.05 49.6 -153.1 49.85 -153.55 50.3 -150.95 50.2 -150.2 50.0 -146.0 49.55 -142.3 49.55 -142.05 48.55 -138.4 47.85 -135.8 47.25 -134.3 44.8 -129.3 Q43.8 -127.4 41.85 -125.05 L40.9 -124.0 39.7 -123.25 Q38.05 -122.45 37.4 -121.85 L34.05 -122.55 Q31.95 -123.05 31.3 -124.5 31.0 -125.2 31.0 -126.1 L31.15 -129.55 Q31.0 -132.7 31.15 -133.5 L31.15 -133.75 30.85 -134.5 31.4 -138.95 32.15 -142.3 32.85 -145.0 Q34.05 -149.6 35.15 -151.4 36.35 -153.55 40.75 -158.0 L41.15 -158.35 M45.5 -158.0 L46.2 -159.75 42.6 -156.4 40.15 -153.85 Q41.05 -152.35 41.4 -149.35 41.85 -145.85 41.25 -143.65 L40.85 -142.3 39.7 -139.55 Q40.75 -140.75 41.25 -142.3 L41.4 -142.75 Q41.55 -143.75 42.75 -146.45 L44.25 -150.35 45.5 -158.0 M30.85 -164.45 L29.5 -161.05 Q28.05 -156.9 27.15 -153.4 L26.75 -149.8 26.6 -149.45 26.35 -149.45 Q26.05 -151.6 26.3 -153.8 L27.3 -158.0 29.2 -163.7 29.7 -164.9 Q31.1 -168.1 32.3 -169.05 L32.3 -168.25 30.85 -164.45 M39.55 -153.25 L38.05 -151.4 38.25 -150.05 38.35 -146.8 38.05 -144.05 37.7 -142.3 37.4 -141.15 36.65 -138.7 Q36.1 -137.5 35.35 -136.85 L36.75 -137.4 Q38.2 -138.6 38.7 -140.0 L39.55 -141.8 39.8 -142.3 40.3 -143.9 Q40.75 -145.7 40.45 -148.9 L39.55 -153.25 M36.8 -147.85 Q36.25 -145.8 36.05 -142.95 L36.05 -142.3 35.75 -139.75 Q35.6 -139.4 35.6 -138.4 L35.45 -137.25 35.65 -137.4 36.25 -139.7 36.8 -141.45 37.05 -142.3 Q37.85 -145.8 37.55 -149.45 L36.8 -147.85 M32.4 -137.15 L33.2 -137.0 33.9 -136.8 Q34.45 -136.65 35.15 -136.8 34.75 -139.3 35.05 -142.3 35.35 -145.0 36.2 -148.05 L36.8 -149.75 Q34.5 -146.45 33.85 -143.8 L33.45 -142.3 32.4 -137.15 M-44.2 -125.3 L-44.35 -125.35 -47.5 -128.25 -48.4 -129.15 -49.55 -130.3 -49.85 -130.55 -49.7 -130.15 Q-48.65 -127.35 -48.4 -125.3 -48.25 -123.45 -46.8 -120.65 L-43.85 -115.75 -41.15 -111.25 Q-39.8 -108.9 -38.35 -107.05 L-37.5 -106.85 -37.45 -106.7 -37.35 -106.25 -37.5 -106.1 -33.15 -102.1 Q-29.2 -99.05 -26.6 -99.05 -25.0 -99.05 -23.8 -100.65 L-22.4 -103.2 -21.75 -104.25 Q-21.1 -103.7 -20.15 -103.7 L-21.55 -101.35 -21.4 -101.2 -21.35 -101.05 -20.9 -101.2 -17.25 -99.75 Q-13.35 -98.4 -11.95 -98.4 -10.2 -98.4 -7.45 -99.3 L-4.45 -100.5 -3.05 -101.05 -1.3 -101.65 0.55 -102.2 Q1.75 -102.55 20.4 -102.55 L25.9 -102.25 27.9 -101.35 Q29.4 -100.75 31.0 -100.75 L32.1 -100.6 31.85 -101.65 32.1 -101.95 33.6 -100.3 33.6 -100.2 34.45 -99.2 36.2 -97.4 Q38.2 -97.4 42.9 -107.0 L45.35 -112.25 Q45.9 -113.85 45.9 -116.75 L46.4 -120.8 46.4 -120.95 46.55 -121.45 Q44.8 -120.05 42.45 -118.9 40.0 -117.75 38.5 -117.65 L33.45 -116.8 21.8 -115.75 10.15 -115.55 -0.6 -114.75 -4.25 -114.25 -9.9 -114.0 -13.1 -114.1 -14.5 -114.85 Q-16.0 -115.3 -17.6 -114.4 L-21.55 -115.0 -32.8 -117.65 Q-34.9 -118.2 -37.45 -119.7 -39.85 -121.15 -41.0 -122.45 L-44.2 -125.3 M20.8 -99.7 L20.25 -99.6 19.95 -99.5 19.05 -99.2 Q18.65 -99.2 18.6 -99.35 L18.5 -99.45 18.15 -99.35 7.85 -99.35 8.15 -98.85 8.0 -98.4 7.0 -98.25 Q5.7 -98.25 5.1 -98.7 L3.95 -99.3 1.45 -99.9 -1.2 -99.85 -3.0 -99.7 -3.15 -99.7 Q-3.95 -99.35 -4.65 -99.15 -6.1 -98.55 -7.45 -98.1 -10.2 -97.15 -11.9 -97.15 -14.35 -97.15 -17.7 -98.45 -20.15 -99.35 -21.4 -100.3 L-21.55 -100.3 -22.2 -100.5 Q-24.45 -97.4 -26.45 -97.4 -29.35 -97.4 -33.7 -100.6 -36.65 -102.9 -38.55 -105.0 L-38.8 -105.3 -39.1 -105.1 -39.65 -104.7 -42.25 -102.7 -43.6 -100.65 -44.5 -99.7 -42.45 -96.65 Q-41.15 -94.8 -36.15 -90.75 -33.85 -89.0 -31.0 -88.15 -29.65 -88.45 -28.2 -89.45 -25.55 -91.15 -23.7 -91.05 L-23.4 -90.15 Q-23.1 -89.3 -22.4 -88.7 -20.2 -86.85 -13.65 -86.85 L-7.95 -87.55 0.2 -88.3 Q4.05 -88.3 7.7 -87.25 L10.9 -86.4 17.7 -86.35 18.45 -86.5 20.05 -86.95 25.3 -86.7 25.45 -86.65 25.55 -86.2 Q30.2 -86.2 33.0 -86.35 L33.75 -86.85 Q35.6 -88.0 36.05 -88.95 36.95 -90.75 39.8 -89.1 L41.15 -88.1 42.2 -88.8 Q46.1 -91.9 49.55 -107.0 L49.85 -108.15 50.75 -111.5 49.6 -112.4 49.55 -112.5 48.45 -113.7 47.55 -114.85 46.95 -112.85 Q45.9 -108.45 45.1 -107.3 L41.55 -100.75 Q38.25 -95.7 36.2 -95.7 35.0 -95.7 33.9 -97.15 L33.2 -98.25 32.6 -99.35 31.0 -99.2 31.7 -98.75 31.6 -98.45 31.1 -98.4 28.25 -99.05 20.95 -99.85 20.7 -99.75 20.8 -99.7 M0.9 -101.05 L0.55 -100.9 0.9 -100.9 2.9 -100.65 6.45 -100.0 7.0 -100.45 11.35 -100.9 14.3 -100.9 18.15 -100.5 19.2 -100.3 Q20.7 -101.2 24.25 -100.9 L20.4 -101.35 0.9 -101.05 M48.75 -124.85 L48.6 -124.45 47.4 -122.3 47.85 -122.0 48.15 -119.65 47.8 -116.15 49.4 -115.0 49.55 -114.9 51.2 -113.4 52.2 -117.45 Q54.05 -125.0 54.05 -128.7 L53.95 -131.0 52.9 -133.65 Q52.5 -132.9 51.8 -130.55 51.3 -128.65 50.35 -127.55 L48.75 -124.85 M37.25 -88.15 L35.75 -86.5 Q37.55 -86.7 39.0 -87.2 L37.25 -88.15 M-40.55 -159.75 Q-41.75 -161.1 -42.3 -163.1 L-42.4 -163.55 Q-42.9 -165.85 -41.9 -166.3 -40.95 -166.75 -38.7 -165.0 L-38.7 -165.05 -38.2 -165.05 -38.35 -164.7 -37.05 -163.55 Q-36.95 -163.55 -36.8 -163.4 L-33.0 -160.95 -29.4 -158.0 Q-24.3 -153.7 -22.95 -151.65 -21.75 -149.9 -20.5 -145.35 L-19.75 -142.3 -19.15 -139.25 -18.7 -134.75 -19.05 -133.95 -19.15 -133.65 Q-19.05 -132.85 -19.3 -129.7 L-19.45 -126.25 Q-19.35 -125.35 -19.9 -124.5 -20.8 -123.05 -23.35 -122.3 -27.05 -121.3 -27.6 -121.45 -28.3 -122.0 -30.25 -122.6 L-31.65 -123.45 -32.8 -124.45 Q-35.05 -126.75 -36.15 -128.55 L-38.85 -133.45 -40.25 -137.55 -41.15 -141.3 -41.4 -142.3 -41.55 -145.25 -41.6 -149.45 -41.55 -150.3 Q-41.45 -152.1 -40.85 -152.95 L-40.65 -152.5 -40.55 -147.3 -40.25 -142.3 -39.35 -137.8 -37.65 -133.5 -35.5 -129.1 Q-34.45 -126.95 -31.35 -124.35 -28.15 -121.8 -26.9 -122.1 -23.1 -123.15 -22.25 -123.6 -20.8 -124.45 -20.15 -126.6 L-19.75 -128.4 -19.65 -129.95 -19.95 -133.2 -20.8 -133.0 Q-20.9 -132.45 -21.75 -131.85 -22.8 -130.75 -24.45 -130.3 L-29.6 -130.1 Q-30.7 -130.6 -33.7 -133.65 -36.65 -138.1 -36.9 -139.0 L-37.95 -141.75 -38.1 -142.3 -39.05 -144.65 Q-39.8 -147.25 -39.8 -150.9 L-39.7 -152.7 -39.55 -154.1 Q-39.35 -155.75 -38.7 -156.7 -39.55 -149.3 -38.25 -144.7 L-37.35 -142.3 -36.6 -140.55 -34.85 -136.85 Q-33.9 -135.05 -32.0 -133.15 -29.35 -130.3 -27.2 -130.9 -24.3 -131.7 -22.7 -132.75 L-22.5 -132.85 Q-23.85 -133.05 -25.7 -133.8 L-28.65 -135.35 Q-30.85 -137.15 -32.15 -139.45 L-33.55 -142.3 Q-36.0 -147.25 -36.3 -148.55 L-37.1 -152.4 -37.35 -154.45 -37.6 -156.45 Q-37.8 -157.35 -39.05 -158.45 L-39.1 -158.45 -39.8 -159.05 -40.55 -159.75 M-34.15 -150.05 L-32.6 -146.15 Q-31.25 -143.4 -31.1 -142.5 L-31.0 -142.3 Q-30.55 -140.6 -29.25 -139.3 L-30.55 -142.3 -30.85 -143.4 Q-31.5 -145.65 -30.7 -149.15 -30.1 -152.2 -28.9 -153.85 L-36.0 -159.45 -35.3 -157.65 -34.15 -150.05 M-28.3 -153.25 L-29.6 -148.85 Q-30.2 -145.5 -29.75 -143.65 L-29.2 -142.3 -28.9 -141.6 -28.0 -139.75 Q-27.45 -138.4 -25.75 -137.35 L-24.1 -136.85 Q-25.0 -137.5 -25.55 -138.7 L-26.3 -141.15 -26.6 -142.3 -26.9 -143.95 -27.2 -146.8 Q-27.05 -146.95 -26.85 -150.05 L-26.55 -151.4 -28.3 -153.25 M-14.8 -164.55 Q-13.5 -161.55 -12.75 -158.8 -11.95 -156.05 -11.8 -154.65 -11.6 -152.4 -12.2 -150.2 L-12.5 -150.15 -12.65 -150.5 -12.8 -154.15 Q-13.8 -157.65 -15.3 -161.8 L-18.35 -169.05 -18.3 -169.7 Q-16.6 -168.75 -14.8 -164.55 M-53.8 -133.35 L-54.35 -132.15 -54.2 -131.3 -53.45 -129.1 Q-52.45 -126.9 -52.35 -126.1 L-51.9 -123.25 -51.45 -120.2 Q-51.45 -117.9 -50.55 -114.4 L-48.8 -108.45 -48.4 -107.35 Q-47.35 -104.4 -45.1 -100.75 -44.35 -102.8 -41.9 -104.95 -40.7 -106.1 -39.8 -106.55 -42.05 -109.75 -44.65 -114.55 L-47.55 -119.4 -48.4 -120.95 Q-49.4 -122.9 -49.6 -124.3 L-50.85 -128.85 -51.7 -132.15 -53.6 -133.65 -53.8 -133.35 M-25.25 -147.9 L-26.0 -149.5 Q-26.6 -145.8 -25.75 -142.3 L-25.55 -141.35 -25.1 -139.7 -24.45 -137.4 -24.15 -137.25 -24.25 -138.4 -24.3 -139.85 -24.45 -142.3 -24.55 -143.05 Q-24.7 -145.85 -25.25 -147.9 M-20.45 -137.4 L-21.35 -142.3 -21.75 -144.05 Q-22.5 -146.7 -25.1 -149.9 L-24.3 -148.2 Q-23.5 -145.0 -23.35 -142.3 -23.15 -139.3 -23.8 -136.8 L-22.35 -136.85 -21.4 -137.15 -20.45 -137.4 M-28.45 -87.65 L-24.75 -86.95 -22.35 -86.95 Q-23.7 -88.0 -24.6 -89.75 L-27.2 -88.3 -28.45 -87.65" fill="#000000" fill-rule="evenodd" stroke="none"/>
      <path d="M38.5 -160.65 L39.95 -163.1 43.15 -167.8 Q46.5 -165.7 47.25 -164.0 L47.3 -163.85 47.25 -163.85 Q45.4 -162.65 43.8 -161.1 L41.15 -158.35 38.7 -160.5 38.5 -160.65 M49.85 -108.15 L49.6 -112.4 50.75 -111.5 49.85 -108.15" fill="#abbd9a" fill-rule="evenodd" stroke="none"/>
      <path d="M49.6 -153.05 L49.3 -148.0 Q49.15 -145.1 48.6 -142.3 L47.8 -138.55 47.55 -137.8 46.25 -134.3 44.25 -129.8 Q43.35 -127.65 40.6 -124.9 37.95 -122.15 36.95 -122.45 33.85 -123.3 33.2 -123.7 32.1 -124.45 31.6 -126.6 L31.45 -128.25 31.45 -129.85 Q31.6 -132.3 31.85 -133.15 L32.45 -132.9 Q32.55 -132.35 33.15 -131.75 34.0 -130.85 35.3 -130.45 38.2 -129.7 39.45 -130.45 40.45 -131.0 43.05 -134.3 45.65 -138.7 45.9 -139.6 L46.8 -142.3 46.85 -142.35 46.85 -142.45 47.95 -145.35 Q48.6 -147.9 48.85 -151.5 L48.9 -153.55 Q48.85 -155.55 48.45 -156.6 L48.25 -157.15 Q48.6 -149.9 47.3 -145.35 L46.65 -143.35 46.2 -142.3 45.7 -141.15 44.1 -137.5 Q43.3 -135.5 41.7 -133.6 39.25 -130.7 37.55 -131.15 35.3 -131.75 34.05 -132.75 L33.9 -132.85 Q35.0 -133.05 36.5 -133.95 L39.0 -135.65 Q40.9 -137.55 42.15 -139.9 L43.2 -142.3 45.5 -147.9 45.9 -149.0 Q46.4 -151.6 46.8 -152.85 L47.0 -154.95 47.3 -156.9 48.25 -158.5 48.45 -158.75 49.0 -156.25 49.6 -153.05 M-40.85 -152.95 L-40.0 -155.9 -39.1 -158.45 -39.05 -158.45 Q-37.8 -157.35 -37.6 -156.45 L-37.35 -154.45 -37.1 -152.4 -36.3 -148.55 Q-36.0 -147.25 -33.55 -142.3 L-32.15 -139.45 Q-30.85 -137.15 -28.65 -135.35 L-25.7 -133.8 Q-23.85 -133.05 -22.5 -132.85 L-22.7 -132.75 Q-24.3 -131.7 -27.2 -130.9 -29.35 -130.3 -32.0 -133.15 -33.9 -135.05 -34.85 -136.85 L-36.6 -140.55 -37.35 -142.3 -38.25 -144.7 Q-39.55 -149.3 -38.7 -156.7 -39.35 -155.75 -39.55 -154.1 L-39.7 -152.7 -39.8 -150.9 Q-39.8 -147.25 -39.05 -144.65 L-38.1 -142.3 -37.95 -141.75 -36.9 -139.0 Q-36.65 -138.1 -33.7 -133.65 -30.7 -130.6 -29.6 -130.1 L-24.45 -130.3 Q-22.8 -130.75 -21.75 -131.85 -20.9 -132.45 -20.8 -133.0 L-19.95 -133.2 -19.65 -129.95 -19.75 -128.4 -20.15 -126.6 Q-20.8 -124.45 -22.25 -123.6 -23.1 -123.15 -26.9 -122.1 -28.15 -121.8 -31.35 -124.35 -34.45 -126.95 -35.5 -129.1 L-37.65 -133.5 -39.35 -137.8 -40.25 -142.3 -40.55 -147.3 -40.65 -152.5 -40.85 -152.95" fill="#606e51" fill-rule="evenodd" stroke="none"/>
      <path d="M47.85 -135.8 L48.55 -138.4 49.55 -142.05 49.55 -142.3 50.0 -146.0 50.2 -150.2 50.3 -150.95 49.85 -153.55 49.6 -153.1 49.6 -153.05 49.0 -156.25 48.45 -158.75 49.25 -159.5 Q51.8 -153.05 52.6 -146.8 L53.2 -142.3 Q53.35 -140.2 53.65 -138.3 52.9 -139.0 51.95 -137.55 L50.9 -134.9 50.0 -132.0 49.4 -129.15 48.55 -127.9 47.85 -135.8 M-53.45 -135.05 L-54.5 -135.4 Q-55.25 -135.4 -55.65 -133.9 L-55.85 -132.0 -54.95 -128.95 -54.75 -128.4 -54.9 -127.2 -56.35 -88.45 -58.0 -90.15 Q-59.75 -92.15 -60.6 -95.5 -61.35 -98.25 -61.6 -102.5 L-60.0 -138.55 Q-58.0 -151.65 -49.25 -162.1 L-46.05 -165.5 Q-40.45 -171.25 -33.85 -174.5 -31.0 -171.95 -29.4 -169.05 L-30.35 -169.5 -31.4 -169.65 Q-32.3 -169.4 -32.1 -168.4 L-31.5 -167.6 Q-34.2 -165.85 -36.8 -163.4 -36.95 -163.55 -37.05 -163.55 L-38.35 -164.7 -38.2 -165.05 -38.7 -165.05 -38.7 -165.0 Q-40.95 -166.75 -41.9 -166.3 -42.9 -165.85 -42.4 -163.55 L-42.3 -163.1 Q-41.75 -161.1 -40.55 -159.75 L-45.1 -153.7 Q-50.9 -145.2 -53.45 -135.05 M50.15 -101.3 L51.2 -105.95 54.1 -116.9 55.0 -121.1 55.0 -120.35 Q55.1 -117.9 55.35 -115.4 56.45 -101.05 52.05 -87.8 L51.9 -87.55 Q50.9 -85.35 49.9 -84.35 50.75 -92.6 50.15 -101.05 L50.15 -101.3 M-25.75 -170.55 L-27.5 -171.75 -29.95 -173.6 -30.85 -174.6 -31.65 -175.5 -31.65 -175.6 -26.9 -177.35 Q-2.45 -180.6 22.1 -174.8 L27.9 -173.55 37.25 -170.5 38.35 -170.1 37.8 -169.55 34.15 -165.7 32.75 -163.6 30.85 -164.45 32.3 -168.25 32.3 -169.05 Q31.1 -168.1 29.7 -164.9 27.45 -165.85 25.2 -166.6 L19.9 -168.1 Q-2.45 -174.65 -24.75 -170.95 -25.25 -170.7 -25.75 -170.55" fill="#c7d1be" fill-rule="evenodd" stroke="none"/>
      <path d="M41.15 -158.35 L40.75 -158.0 Q36.35 -153.55 35.15 -151.4 34.05 -149.6 32.85 -145.0 L32.15 -142.3 31.4 -138.95 30.85 -134.5 31.15 -133.75 31.15 -133.5 Q31.0 -132.7 31.15 -129.55 L31.0 -126.1 Q31.0 -125.2 31.3 -124.5 31.95 -123.05 34.05 -122.55 L37.4 -121.85 Q38.05 -122.45 39.7 -123.25 L40.9 -124.0 41.85 -125.05 Q43.8 -127.4 44.8 -129.3 L47.25 -134.3 47.85 -135.8 48.55 -127.9 48.45 -127.8 Q47.7 -126.75 47.7 -126.35 47.7 -124.5 46.05 -122.75 44.6 -121.25 42.15 -119.95 41.15 -119.4 38.2 -118.8 34.65 -117.95 31.15 -117.65 L24.15 -116.9 10.8 -116.5 -1.0 -115.9 -9.9 -115.4 Q-16.6 -115.4 -24.7 -117.15 -36.6 -119.65 -41.15 -124.6 -43.9 -127.65 -48.1 -131.15 L-48.4 -131.45 -51.05 -133.5 -51.6 -134.8 -51.85 -134.8 -51.9 -134.1 -53.45 -135.05 Q-50.9 -145.2 -45.1 -153.7 L-40.55 -159.75 -39.8 -159.05 -39.1 -158.45 -40.0 -155.9 -40.85 -152.95 Q-41.45 -152.1 -41.55 -150.3 L-41.6 -149.45 -41.55 -145.25 -41.4 -142.3 -41.15 -141.3 -40.25 -137.55 -38.85 -133.45 -36.15 -128.55 Q-35.05 -126.75 -32.8 -124.45 L-31.65 -123.45 -30.25 -122.6 Q-28.3 -122.0 -27.6 -121.45 -27.05 -121.3 -23.35 -122.3 -20.8 -123.05 -19.9 -124.5 -19.35 -125.35 -19.45 -126.25 L-19.3 -129.7 Q-19.05 -132.85 -19.15 -133.65 L-19.05 -133.95 -18.7 -134.75 -19.15 -139.25 -19.75 -142.3 -20.5 -145.35 Q-21.75 -149.9 -22.95 -151.65 -24.3 -153.7 -29.4 -158.0 L-33.0 -160.95 -36.8 -163.4 Q-34.2 -165.85 -31.5 -167.6 L-28.15 -163.25 -24.55 -157.85 -21.75 -152.25 -20.05 -149.5 -19.45 -147.9 Q-18.85 -146.6 -18.2 -146.85 -17.3 -147.0 -17.45 -153.7 -17.7 -160.05 -18.2 -162.1 -18.75 -164.15 -20.8 -166.2 L-25.1 -169.95 -25.75 -170.55 Q-25.25 -170.7 -24.75 -170.95 -2.45 -174.65 19.9 -168.1 L25.2 -166.6 Q27.45 -165.85 29.7 -164.9 L29.2 -163.7 27.3 -158.0 26.3 -153.8 Q26.05 -151.6 26.35 -149.45 L26.6 -149.45 26.75 -149.8 27.15 -153.4 Q28.05 -156.9 29.5 -161.05 L30.85 -164.45 32.75 -163.6 Q32.15 -162.55 31.85 -161.5 31.3 -159.5 30.85 -153.25 30.4 -146.55 31.1 -146.4 31.6 -146.25 32.1 -147.55 L32.7 -149.15 34.2 -151.95 36.8 -157.6 38.5 -160.65 38.7 -160.5 41.15 -158.35 M-54.75 -128.4 L-53.9 -125.95 -53.2 -119.85 Q-51.6 -110.95 -50.4 -107.7 -49.9 -106.25 -48.4 -103.35 L-47.85 -102.25 Q-45.6 -97.9 -43.9 -95.5 L-40.85 -92.3 -37.5 -89.4 Q-37.05 -89.0 -35.05 -87.95 -33.0 -86.8 -32.0 -86.5 L-27.2 -85.4 -17.1 -84.95 9.45 -84.6 Q11.8 -83.9 13.95 -83.9 L18.3 -84.3 18.9 -84.45 24.85 -84.35 35.75 -84.65 Q39.25 -85.1 41.7 -86.1 L42.0 -86.25 Q43.95 -87.25 45.05 -88.8 L46.65 -91.6 47.85 -94.5 Q48.9 -96.85 49.85 -100.15 L50.15 -101.3 50.15 -101.05 Q50.75 -92.6 49.9 -84.35 L49.1 -83.8 Q42.0 -80.95 23.3 -79.8 L19.8 -79.55 Q-9.6 -77.55 -38.35 -83.75 L-48.4 -86.05 -55.25 -87.85 -56.35 -88.45 -54.9 -127.2 -54.75 -128.4 M-14.8 -164.55 Q-16.6 -168.75 -18.3 -169.7 L-18.35 -169.05 -15.3 -161.8 Q-13.8 -157.65 -12.8 -154.15 L-12.65 -150.5 -12.5 -150.15 -12.2 -150.2 Q-11.6 -152.4 -11.8 -154.65 -11.95 -156.05 -12.75 -158.8 -13.5 -161.55 -14.8 -164.55" fill="#b8c2ac" fill-rule="evenodd" stroke="none"/>
      <path d="M45.5 -158.0 L44.25 -150.35 42.75 -146.45 Q41.55 -143.75 41.4 -142.75 L41.25 -142.3 Q40.75 -140.75 39.7 -139.55 L40.85 -142.3 41.25 -143.65 Q41.85 -145.85 41.4 -149.35 41.05 -152.35 40.15 -153.85 L42.6 -156.4 46.2 -159.75 45.5 -158.0 M-34.15 -150.05 L-35.3 -157.65 -36.0 -159.45 -28.9 -153.85 Q-30.1 -152.2 -30.7 -149.15 -31.5 -145.65 -30.85 -143.4 L-30.55 -142.3 -29.25 -139.3 Q-30.55 -140.6 -31.0 -142.3 L-31.1 -142.5 Q-31.25 -143.4 -32.6 -146.15 L-34.15 -150.05" fill="#cc0000" fill-rule="evenodd" stroke="none"/>
      <path d="M39.55 -153.25 L40.45 -148.9 Q40.75 -145.7 40.3 -143.9 L39.8 -142.3 39.55 -141.8 38.7 -140.0 Q38.2 -138.6 36.75 -137.4 L35.35 -136.85 Q36.1 -137.5 36.65 -138.7 L37.4 -141.15 37.7 -142.3 38.05 -144.05 38.35 -146.8 38.25 -150.05 38.05 -151.4 39.55 -153.25 M32.4 -137.15 L33.45 -142.3 33.85 -143.8 Q34.5 -146.45 36.8 -149.75 L36.2 -148.05 Q35.35 -145.0 35.05 -142.3 34.75 -139.3 35.15 -136.8 34.45 -136.65 33.9 -136.8 L33.2 -137.0 32.4 -137.15 M-28.3 -153.25 L-26.55 -151.4 -26.85 -150.05 Q-27.05 -146.95 -27.2 -146.8 L-26.9 -143.95 -26.6 -142.3 -26.3 -141.15 -25.55 -138.7 Q-25.0 -137.5 -24.1 -136.85 L-25.75 -137.35 Q-27.45 -138.4 -28.0 -139.75 L-28.9 -141.6 -29.2 -142.3 -29.75 -143.65 Q-30.2 -145.5 -29.6 -148.85 L-28.3 -153.25 M-20.45 -137.4 L-21.4 -137.15 -22.35 -136.85 -23.8 -136.8 Q-23.15 -139.3 -23.35 -142.3 -23.5 -145.0 -24.3 -148.2 L-25.1 -149.9 Q-22.5 -146.7 -21.75 -144.05 L-21.35 -142.3 -20.45 -137.4" fill="#ffcc00" fill-rule="evenodd" stroke="none"/>
      <path d="M36.8 -147.85 L37.55 -149.45 Q37.85 -145.8 37.05 -142.3 L36.8 -141.45 36.25 -139.7 35.65 -137.4 35.45 -137.25 35.6 -138.4 Q35.6 -139.4 35.75 -139.75 L36.05 -142.3 36.05 -142.95 Q36.25 -145.8 36.8 -147.85 M-25.25 -147.9 Q-24.7 -145.85 -24.55 -143.05 L-24.45 -142.3 -24.3 -139.85 -24.25 -138.4 -24.15 -137.25 -24.45 -137.4 -25.1 -139.7 -25.55 -141.35 -25.75 -142.3 Q-26.6 -145.8 -26.0 -149.5 L-25.25 -147.9" fill="#ffffff" fill-rule="evenodd" stroke="none"/>
      <path d="M-44.2 -125.3 L-44.15 -125.2 Q-42.6 -123.0 -35.2 -118.05 -28.75 -113.8 -26.7 -112.95 -21.25 -110.65 -13.1 -110.65 L-7.1 -111.1 -2.0 -112.0 2.75 -112.2 7.1 -112.25 17.05 -112.7 25.35 -112.95 33.05 -113.25 Q37.4 -113.55 40.3 -115.0 43.75 -116.8 45.65 -119.55 L46.4 -120.8 45.9 -116.75 Q45.9 -113.85 45.35 -112.25 L42.9 -107.0 Q38.2 -97.4 36.2 -97.4 L34.45 -99.2 33.6 -100.2 33.6 -100.3 32.1 -101.95 31.85 -101.65 32.1 -100.6 31.0 -100.75 Q29.4 -100.75 27.9 -101.35 L25.9 -102.25 20.4 -102.55 Q1.75 -102.55 0.55 -102.2 L-1.3 -101.65 -3.05 -101.05 -4.45 -100.5 -7.45 -99.3 Q-10.2 -98.4 -11.95 -98.4 -13.35 -98.4 -17.25 -99.75 L-20.9 -101.2 -21.35 -101.05 -21.4 -101.2 -21.55 -101.35 -20.15 -103.7 Q-21.1 -103.7 -21.75 -104.25 L-22.4 -103.2 -23.8 -100.65 Q-25.0 -99.05 -26.6 -99.05 -29.2 -99.05 -33.15 -102.1 L-37.5 -106.1 -37.35 -106.25 -37.45 -106.7 -37.5 -106.85 -38.35 -107.05 Q-39.8 -108.9 -41.15 -111.25 L-43.85 -115.75 -46.8 -120.65 Q-48.25 -123.45 -48.4 -125.3 -48.65 -127.35 -49.7 -130.15 L-49.55 -130.3 -48.4 -129.15 -47.5 -128.25 -44.35 -125.35 -44.2 -125.3 M-39.65 -104.7 L-36.5 -101.9 -32.8 -98.9 Q-27.8 -95.95 -25.85 -95.95 -24.7 -95.95 -22.95 -96.95 L-21.1 -97.9 -17.0 -97.1 -11.2 -96.25 -3.05 -97.0 1.15 -97.45 5.1 -97.45 10.65 -97.15 17.2 -96.95 24.1 -97.3 29.55 -97.7 31.95 -97.45 33.7 -97.15 33.9 -97.15 Q35.0 -95.7 36.2 -95.7 38.25 -95.7 41.55 -100.75 L45.1 -107.3 Q45.9 -108.45 46.95 -112.85 L47.55 -114.85 48.45 -113.7 49.55 -112.5 49.6 -112.4 49.85 -108.15 49.55 -107.0 Q46.1 -91.9 42.2 -88.8 L41.15 -88.1 39.8 -89.1 Q36.95 -90.75 36.05 -88.95 35.6 -88.0 33.75 -86.85 L33.0 -86.35 Q30.2 -86.2 25.55 -86.2 L25.45 -86.65 25.3 -86.7 20.05 -86.95 18.45 -86.5 17.7 -86.35 10.9 -86.4 7.7 -87.25 Q4.05 -88.3 0.2 -88.3 L-7.95 -87.55 -13.65 -86.85 Q-20.2 -86.85 -22.4 -88.7 -23.1 -89.3 -23.4 -90.15 L-23.7 -91.05 Q-25.55 -91.15 -28.2 -89.45 -29.65 -88.45 -31.0 -88.15 -33.85 -89.0 -36.15 -90.75 -41.15 -94.8 -42.45 -96.65 L-44.5 -99.7 -43.6 -100.65 -42.25 -102.7 -39.65 -104.7 M40.0 -110.05 Q39.4 -108.5 37.5 -105.45 L36.35 -103.2 35.5 -101.9 Q35.2 -101.6 35.2 -100.8 L35.2 -100.3 Q35.45 -99.75 36.5 -99.75 37.4 -99.75 38.35 -100.6 39.4 -101.5 40.0 -103.2 L40.9 -105.15 41.85 -107.0 43.5 -110.8 Q44.6 -113.3 44.6 -114.55 L44.5 -115.75 44.1 -115.9 43.6 -116.05 43.05 -116.6 Q42.5 -116.3 42.5 -115.7 L42.15 -114.55 41.05 -112.35 40.0 -110.05" fill="#ffe7b5" fill-rule="evenodd" stroke="none"/>
      <path d="M46.4 -120.8 L45.65 -119.55 Q43.75 -116.8 40.3 -115.0 37.4 -113.55 33.05 -113.25 L25.35 -112.95 17.05 -112.7 7.1 -112.25 2.75 -112.2 -2.0 -112.0 -7.1 -111.1 -13.1 -110.65 Q-21.25 -110.65 -26.7 -112.95 -28.75 -113.8 -35.2 -118.05 -42.6 -123.0 -44.15 -125.2 L-44.2 -125.3 -41.0 -122.45 Q-39.85 -121.15 -37.45 -119.7 -34.9 -118.2 -32.8 -117.65 L-21.55 -115.0 -17.6 -114.4 Q-16.0 -115.3 -14.5 -114.85 L-13.1 -114.1 -9.9 -114.0 -4.25 -114.25 -0.6 -114.75 10.15 -115.55 21.8 -115.75 33.45 -116.8 38.5 -117.65 Q40.0 -117.75 42.45 -118.9 44.8 -120.05 46.55 -121.45 L46.4 -120.95 46.4 -120.8 M-39.65 -104.7 L-39.1 -105.1 -38.8 -105.3 -38.55 -105.0 Q-36.65 -102.9 -33.7 -100.6 -29.35 -97.4 -26.45 -97.4 -24.45 -97.4 -22.2 -100.5 L-21.55 -100.3 -21.4 -100.3 Q-20.15 -99.35 -17.7 -98.45 -14.35 -97.15 -11.9 -97.15 -10.2 -97.15 -7.45 -98.1 -6.1 -98.55 -4.65 -99.15 -3.95 -99.35 -3.15 -99.7 L-3.0 -99.7 -1.2 -99.85 1.45 -99.9 3.95 -99.3 5.1 -98.7 Q5.7 -98.25 7.0 -98.25 L8.0 -98.4 8.15 -98.85 7.85 -99.35 18.15 -99.35 18.5 -99.45 18.6 -99.35 Q18.65 -99.2 19.05 -99.2 L19.95 -99.5 20.25 -99.6 20.8 -99.7 20.95 -99.85 28.25 -99.05 31.1 -98.4 31.6 -98.45 31.7 -98.75 31.0 -99.2 32.6 -99.35 33.2 -98.25 33.9 -97.15 33.7 -97.15 31.95 -97.45 29.55 -97.7 24.1 -97.3 17.2 -96.95 10.65 -97.15 5.1 -97.45 1.15 -97.45 -3.05 -97.0 -11.2 -96.25 -17.0 -97.1 -21.1 -97.9 -22.95 -96.95 Q-24.7 -95.95 -25.85 -95.95 -27.8 -95.95 -32.8 -98.9 L-36.5 -101.9 -39.65 -104.7" fill="#e0ca9e" fill-rule="evenodd" stroke="none"/>
      <path d="M0.9 -100.9 L0.9 -101.05 20.4 -101.35 24.25 -100.9 Q20.7 -101.2 19.2 -100.3 L18.15 -100.5 14.3 -100.9 11.35 -100.9 7.0 -100.45 6.45 -100.0 2.9 -100.65 0.9 -100.9" fill="#1a1a2b" fill-rule="evenodd" stroke="none"/>
      <path d="M40.0 -110.05 L41.05 -112.35 42.15 -114.55 42.5 -115.7 Q42.5 -116.3 43.05 -116.6 L43.6 -116.05 44.1 -115.9 44.5 -115.75 44.6 -114.55 Q44.6 -113.3 43.5 -110.8 L41.85 -107.0 40.9 -105.15 40.0 -103.2 Q39.4 -101.5 38.35 -100.6 37.4 -99.75 36.5 -99.75 35.45 -99.75 35.2 -100.3 L35.2 -100.8 Q35.2 -101.6 35.5 -101.9 L36.35 -103.2 37.5 -105.45 Q39.4 -108.5 40.0 -110.05" fill="#fff9eb" fill-rule="evenodd" stroke="none"/>
      <path d="M48.75 -124.85 L50.35 -127.55 Q51.3 -128.65 51.8 -130.55 52.5 -132.9 52.9 -133.65 L53.95 -131.0 54.05 -128.7 Q54.05 -125.0 52.2 -117.45 L51.2 -113.4 49.55 -114.9 49.4 -115.0 47.8 -116.15 48.15 -119.65 47.85 -122.0 47.4 -122.3 48.6 -124.45 48.75 -124.85 M-53.8 -133.35 L-53.6 -133.65 -51.7 -132.15 -50.85 -128.85 -49.6 -124.3 Q-49.4 -122.9 -48.4 -120.95 L-47.55 -119.4 -44.65 -114.55 Q-42.05 -109.75 -39.8 -106.55 -40.7 -106.1 -41.9 -104.95 -44.35 -102.8 -45.1 -100.75 -47.35 -104.4 -48.4 -107.35 L-48.8 -108.45 -50.55 -114.4 Q-51.45 -117.9 -51.45 -120.2 L-51.9 -123.25 -52.35 -126.1 Q-52.45 -126.9 -53.45 -129.1 L-54.2 -131.3 -54.35 -132.15 -53.8 -133.35" fill="#000000" fill-opacity="0.83137256" fill-rule="evenodd" stroke="none"/>
      <path d="M37.25 -88.15 L39.0 -87.2 Q37.55 -86.7 35.75 -86.5 L37.25 -88.15 M-28.45 -87.65 L-27.2 -88.3 -24.6 -89.75 Q-23.7 -88.0 -22.35 -86.95 L-24.75 -86.95 -28.45 -87.65" fill="#850000" fill-rule="evenodd" stroke="none"/>
      <path d="M-9.55 -163.85 Q-1.7 -156.0 -1.7 -144.8 -1.7 -133.75 -9.55 -125.8 -17.4 -117.95 -28.5 -117.95 -39.65 -117.95 -47.5 -125.8 -55.35 -133.75 -55.35 -144.8 -55.35 -156.0 -47.5 -163.85 -39.65 -171.6 -28.5 -171.6 -17.4 -171.6 -9.55 -163.85" fill="url(#gradient0)" fill-rule="evenodd" stroke="none"/>
      <path d="M35.45 -171.6 Q44.2 -171.6 50.3 -163.85 56.4 -156.0 56.4 -144.8 56.4 -133.75 50.3 -125.8 44.2 -117.95 35.45 -117.95 26.75 -117.95 20.65 -125.8 14.5 -133.75 14.5 -144.8 14.5 -156.0 20.65 -163.85 26.75 -171.6 35.45 -171.6" fill="url(#gradient1)" fill-rule="evenodd" stroke="none"/>
    </g>
    <radialGradient cx="0" cy="0" gradientTransform="matrix(0.0332, 0.0, 0.0, 0.0332, -28.5, -144.8)" gradientUnits="userSpaceOnUse" id="gradient0" r="819.2" spreadMethod="pad">
      <stop offset="0.0" stop-color="#ff3100" stop-opacity="0.57254905"/>
      <stop offset="1.0" stop-color="#ff3100" stop-opacity="0.0"/>
    </radialGradient>
    <radialGradient cx="0" cy="0" gradientTransform="matrix(0.026, 0.0, 0.0, 0.0332, 35.45, -144.8)" gradientUnits="userSpaceOnUse" id="gradient1" r="819.2" spreadMethod="pad">
      <stop offset="0.0" stop-color="#ff3100" stop-opacity="0.57254905"/>
      <stop offset="1.0" stop-color="#ff3100" stop-opacity="0.0"/>
    </radialGradient>
  </defs>
</svg>
