<?xml version="1.0" encoding="UTF-8" standalone="no"?>
<svg xmlns:xlink="http://www.w3.org/1999/xlink" height="531.5px" width="460.6px" xmlns="http://www.w3.org/2000/svg">
  <g transform="matrix(1.0, 0.0, 0.0, 1.0, 193.65, 334.05)">
    <use height="185.85" transform="matrix(1.0, 0.0, 0.0, 1.0, -92.3, -245.85)" width="175.3" xlink:href="#shape0"/>
  </g>
  <defs>
    <g id="shape0" transform="matrix(1.0, 0.0, 0.0, 1.0, 92.3, 245.85)">
      <path d="M-56.2 -89.65 L-57.85 -91.25 Q-59.45 -93.2 -60.3 -96.4 -61.0 -98.95 -61.2 -103.1 L-59.7 -137.55 Q-58.8 -143.7 -56.25 -149.25 -53.65 -155.0 -49.5 -160.0 -40.35 -170.9 -28.05 -174.55 -4.75 -177.7 18.75 -172.2 L24.3 -170.9 33.3 -168.0 36.85 -166.65 38.45 -165.75 Q42.0 -163.5 42.8 -161.85 45.85 -155.45 47.25 -149.25 L47.6 -147.5 Q44.4 -150.4 41.75 -150.4 L41.2 -150.5 40.55 -150.8 39.7 -151.2 38.65 -154.05 Q37.8 -156.0 34.6 -158.55 L33.2 -159.5 29.85 -161.1 Q25.8 -162.9 21.7 -164.35 L16.6 -165.8 Q-4.75 -172.05 -26.0 -168.5 -37.2 -164.35 -45.5 -152.0 L-47.25 -149.25 Q-53.35 -139.15 -54.8 -126.7 L-56.2 -89.65" fill="#abbd9a" fill-rule="evenodd" stroke="none"/>
      <path d="M47.6 -147.5 L47.25 -149.25 Q45.85 -155.45 42.8 -161.85 42.0 -163.5 38.45 -165.75 L36.85 -166.65 33.3 -168.0 24.3 -170.9 18.75 -172.2 Q-4.75 -177.7 -28.05 -174.55 -40.35 -170.9 -49.5 -160.0 -53.65 -155.0 -56.25 -149.25 -58.8 -143.7 -59.7 -137.55 L-61.2 -103.1 Q-61.0 -98.95 -60.3 -96.4 -59.45 -93.2 -57.85 -91.25 L-56.2 -89.65 -55.2 -89.05 -46.5 -86.75 -47.9 -82.6 Q-51.55 -83.65 -55.2 -84.85 L-56.1 -85.25 -56.4 -85.4 Q-60.3 -87.4 -61.75 -89.5 -63.8 -92.4 -64.55 -97.5 L-64.95 -103.1 -63.75 -137.55 Q-63.2 -143.7 -61.15 -149.25 -57.4 -159.55 -48.7 -167.55 -39.35 -176.25 -28.05 -179.05 L-22.05 -179.6 Q1.45 -181.15 24.3 -175.5 30.7 -173.9 36.85 -171.6 38.8 -170.75 40.45 -169.6 43.8 -167.55 45.4 -165.2 49.45 -159.2 51.05 -149.25 L51.3 -147.35 51.9 -142.65 Q49.6 -145.7 47.6 -147.5" fill="#000000" fill-rule="evenodd" stroke="none"/>
      <path d="M-46.5 -86.75 L-55.2 -89.05 -56.2 -89.65 -54.8 -126.7 Q-53.35 -139.15 -47.25 -149.25 L-45.5 -152.0 Q-37.2 -164.35 -26.0 -168.5 -4.75 -172.05 16.6 -165.8 L21.7 -164.35 Q25.8 -162.9 29.85 -161.1 L33.2 -159.5 34.6 -158.55 Q37.8 -156.0 38.65 -154.05 L39.7 -151.2 39.25 -151.25 35.1 -150.85 31.0 -150.1 28.55 -149.25 25.8 -148.35 Q22.0 -146.55 20.5 -146.15 15.9 -144.95 7.75 -144.95 L-4.15 -146.05 -4.65 -146.05 -4.9 -146.05 Q-9.6 -146.05 -15.2 -144.55 -19.45 -143.35 -24.25 -141.2 -32.55 -137.45 -35.85 -134.4 L-43.3 -126.5 Q-49.8 -119.15 -49.8 -117.65 L-49.7 -116.4 Q-49.4 -115.45 -47.65 -115.45 -47.05 -115.45 -41.95 -117.5 -36.75 -119.55 -34.85 -119.7 L-35.05 -119.45 -39.65 -108.05 Q-42.85 -99.45 -42.85 -98.45 L-46.5 -86.75 M15.0 -135.5 L15.0 -135.4 14.9 -135.4 15.0 -135.5 M12.95 -135.8 L12.8 -135.7 12.95 -136.0 12.95 -135.8 M-45.0 -119.95 L-44.75 -120.15 -44.7 -120.0 -45.0 -119.95" fill="#889972" fill-rule="evenodd" stroke="none"/>
      <path d="M-56.0 -90.2 L-57.7 -91.8 Q-59.35 -93.8 -60.3 -97.1 -60.95 -99.8 -61.2 -104.0 L-59.6 -139.4 Q-57.7 -152.25 -49.1 -162.45 -39.7 -173.65 -27.15 -177.4 -3.15 -180.7 20.95 -174.95 L26.65 -173.65 35.9 -170.7 39.65 -169.25 41.15 -168.35 Q44.8 -166.05 45.65 -164.35 49.85 -155.7 50.9 -147.45 52.75 -133.05 53.25 -121.45 53.35 -119.1 53.6 -116.65 54.7 -102.55 50.4 -89.55 L50.2 -89.3 Q49.25 -87.15 48.25 -86.2 49.1 -94.2 48.55 -102.55 L48.25 -108.0 Q47.8 -121.0 46.1 -137.3 45.1 -146.6 41.3 -156.35 40.55 -158.35 37.25 -160.95 L35.8 -161.95 32.4 -163.6 24.0 -166.9 18.75 -168.4 Q-3.2 -174.8 -25.1 -171.15 -36.5 -166.9 -45.05 -154.3 -52.9 -142.75 -54.65 -128.25 L-56.0 -90.2" fill="#c7d1be" fill-rule="evenodd" stroke="none"/>
      <path d="M43.3 -172.4 Q46.65 -170.25 48.3 -167.8 52.9 -161.1 54.4 -149.45 56.4 -133.75 57.0 -121.45 58.4 -107.35 55.55 -93.8 L54.55 -89.55 54.55 -89.3 Q54.55 -86.85 53.75 -85.55 52.2 -83.35 47.8 -81.75 L47.65 -81.7 Q39.15 -78.8 18.65 -77.95 L-4.2 -77.2 Q-30.35 -76.9 -55.05 -85.35 L-55.95 -85.7 -56.25 -85.9 Q-60.3 -87.85 -61.75 -90.05 -63.85 -93.05 -64.55 -98.2 -64.95 -100.65 -65.0 -104.0 L-63.7 -139.4 Q-62.1 -157.5 -48.3 -170.25 -38.7 -179.15 -27.15 -182.05 L-20.95 -182.6 Q3.2 -184.2 26.65 -178.3 33.25 -176.7 39.65 -174.35 L43.3 -172.4 M48.25 -86.2 Q49.25 -87.15 50.2 -89.3 L50.4 -89.55 Q54.7 -102.55 53.6 -116.65 53.35 -119.1 53.25 -121.45 52.75 -133.05 50.9 -147.45 49.85 -155.7 45.65 -164.35 44.8 -166.05 41.15 -168.35 L39.65 -169.25 35.9 -170.7 26.65 -173.65 20.95 -174.95 Q-3.15 -180.7 -27.15 -177.4 -39.7 -173.65 -49.1 -162.45 -57.7 -152.25 -59.6 -139.4 L-61.2 -104.0 Q-60.95 -99.8 -60.3 -97.1 -59.35 -93.8 -57.7 -91.8 L-56.0 -90.2 -55.05 -89.6 Q-46.7 -87.25 -38.4 -85.55 -10.15 -79.45 18.65 -81.45 L22.1 -81.7 Q40.45 -82.85 47.4 -85.65 L48.25 -86.2" fill="#000000" fill-rule="evenodd" stroke="none"/>
      <path d="M-56.0 -90.2 L-54.65 -128.25 Q-52.9 -142.75 -45.05 -154.3 -36.5 -166.9 -25.1 -171.15 -3.2 -174.8 18.75 -168.4 L24.0 -166.9 32.4 -163.6 35.8 -161.95 37.25 -160.95 Q40.55 -158.35 41.3 -156.35 45.1 -146.6 46.1 -137.3 47.8 -121.0 48.25 -108.0 L48.55 -102.55 Q49.1 -94.2 48.25 -86.2 L47.4 -85.65 Q40.45 -82.85 22.1 -81.7 L18.65 -81.45 Q-10.15 -79.45 -38.4 -85.55 -46.7 -87.25 -55.05 -89.6 L-56.0 -90.2" fill="#b8c2ac" fill-rule="evenodd" stroke="none"/>
      <path d="M40.4 -161.95 L40.45 -161.7 Q38.85 -160.95 38.05 -160.7 38.2 -159.9 37.95 -158.8 L37.4 -156.85 Q37.05 -154.6 36.2 -153.85 35.45 -153.0 33.6 -152.8 31.85 -152.7 30.4 -154.1 L29.7 -154.75 Q30.35 -153.4 31.0 -152.65 32.3 -150.95 34.75 -149.9 36.1 -149.3 39.85 -148.2 39.25 -147.7 38.95 -147.7 36.65 -147.6 33.45 -149.45 32.15 -150.15 31.2 -151.05 L32.45 -149.65 34.9 -147.45 Q35.8 -146.6 39.25 -145.4 L43.0 -144.05 Q42.6 -143.7 42.35 -143.7 37.95 -143.25 33.7 -146.85 28.8 -151.1 26.65 -158.9 26.15 -160.85 27.0 -159.8 L27.6 -160.2 35.05 -161.15 40.4 -161.95 M36.6 -160.35 L36.65 -160.4 36.6 -160.4 36.6 -160.35" fill="#000000" fill-rule="evenodd" stroke="none"/>
      <path d="M40.15 -245.1 Q41.3 -246.55 43.05 -245.25 44.45 -243.65 45.35 -240.95 L48.0 -232.45 Q50.3 -223.8 50.3 -215.35 L50.2 -210.7 48.0 -204.4 45.35 -198.9 Q43.65 -195.6 42.55 -194.4 L42.85 -192.65 Q42.85 -190.8 42.3 -190.2 L40.6 -188.3 43.35 -184.65 45.2 -184.8 Q45.65 -184.9 46.05 -184.1 L46.8 -182.05 48.1 -178.4 49.0 -174.45 Q49.7 -172.05 49.7 -170.8 L49.55 -169.5 49.55 -169.4 49.55 -168.95 Q49.55 -168.25 45.35 -167.4 L45.05 -167.4 Q38.25 -166.2 34.45 -165.05 L27.8 -163.25 19.6 -161.1 Q6.4 -158.35 -13.4 -152.95 -29.35 -148.7 -38.65 -145.1 L-39.1 -144.95 -41.25 -144.25 -46.4 -142.9 -52.8 -141.2 -54.05 -140.85 -56.95 -139.75 -60.0 -138.6 -60.95 -138.25 -64.0 -137.15 -68.5 -137.1 -68.8 -137.3 -69.75 -138.3 -70.35 -144.5 -71.1 -150.95 Q-71.1 -153.7 -67.35 -156.75 -68.15 -159.2 -68.15 -164.35 L-68.05 -165.9 -69.45 -166.8 -70.55 -167.95 -70.65 -168.1 -70.8 -168.35 -70.75 -168.35 -71.1 -169.65 -70.8 -171.85 Q-74.75 -174.45 -77.2 -176.35 -79.1 -177.85 -81.1 -180.3 L-84.15 -184.4 Q-86.65 -187.6 -89.25 -192.55 L-90.75 -196.75 -91.0 -198.05 -91.15 -198.45 Q-92.3 -202.35 -92.3 -203.15 L-92.05 -204.7 -92.0 -204.7 -91.9 -204.6 Q-91.7 -204.9 -91.15 -204.9 L-88.8 -204.4 -86.05 -203.6 -85.95 -203.6 -85.95 -204.85 -86.5 -209.5 -86.6 -211.65 Q-86.6 -213.15 -85.95 -213.15 L-76.45 -211.4 Q-75.85 -211.4 -75.45 -214.9 L-75.05 -217.2 Q-74.7 -218.35 -73.45 -217.5 -69.5 -214.2 -67.3 -210.05 L-64.85 -206.3 -62.5 -202.65 Q-61.65 -201.2 -58.3 -198.3 L-57.1 -198.3 -57.0 -198.65 -57.15 -198.75 -55.5 -201.25 Q-52.45 -205.45 -48.85 -208.5 -44.95 -212.0 -36.9 -216.6 L-36.05 -217.05 -36.05 -217.1 Q-36.05 -219.25 -30.5 -223.2 -25.6 -226.7 -22.7 -227.55 L-18.15 -228.6 Q-10.65 -229.85 -5.05 -224.5 L-3.45 -223.0 0.6 -219.1 1.3 -218.35 Q3.1 -218.1 5.65 -216.9 L12.75 -213.1 18.75 -209.2 21.2 -207.6 Q21.8 -208.35 23.15 -208.95 25.45 -210.05 27.95 -209.05 L30.05 -212.3 32.6 -216.65 Q35.0 -221.9 36.2 -225.1 39.4 -233.9 39.85 -242.05 L40.0 -244.1 Q40.0 -244.85 40.15 -245.1 M35.45 -184.8 L37.25 -184.8 38.7 -184.7 39.25 -184.7 37.9 -186.3 33.55 -191.8 29.65 -196.6 Q27.0 -199.65 24.4 -201.65 17.4 -207.05 11.95 -210.5 8.0 -212.9 3.65 -215.15 L5.1 -212.55 7.7 -207.0 Q11.6 -198.15 11.6 -195.75 11.6 -193.85 10.6 -193.55 L10.5 -193.55 Q9.85 -193.55 8.75 -194.8 L6.95 -196.9 Q5.8 -199.0 4.7 -199.95 L-2.15 -206.6 Q-5.7 -210.2 -10.9 -213.1 L-13.25 -214.45 -14.7 -215.15 -17.85 -215.95 -24.9 -216.8 -28.8 -217.2 Q-30.7 -215.95 -34.6 -214.0 -43.9 -209.1 -49.0 -203.95 -51.9 -200.95 -54.2 -197.85 L-52.45 -196.75 -52.15 -196.55 Q-49.25 -194.8 -48.45 -191.95 -48.1 -190.5 -48.1 -186.95 -48.1 -179.55 -50.15 -175.5 L-51.45 -172.7 Q-52.35 -170.85 -53.25 -169.8 -54.65 -168.05 -56.3 -166.9 -57.75 -165.9 -58.25 -165.65 -60.35 -164.75 -63.05 -164.75 L-63.55 -164.75 -65.1 -164.9 -65.25 -158.45 -63.4 -159.55 -63.2 -159.75 -62.9 -159.9 Q-53.75 -165.3 -34.35 -171.6 L-34.0 -171.7 -33.7 -171.9 -33.6 -171.9 -31.95 -172.55 -27.75 -173.9 Q5.7 -184.7 26.15 -184.55 L35.45 -184.8 M-23.25 -219.8 Q-18.9 -219.4 -14.7 -218.4 -9.15 -216.5 -4.8 -212.3 -2.9 -210.4 0.85 -207.45 3.75 -205.05 5.1 -203.4 L5.5 -203.4 Q2.3 -211.65 -2.15 -217.25 -4.55 -220.25 -7.8 -222.6 L-8.25 -223.0 Q-11.45 -224.5 -14.65 -225.05 L-15.25 -225.1 -18.15 -225.2 Q-23.15 -224.8 -25.9 -223.35 L-30.85 -219.55 -28.8 -220.1 -25.75 -220.0 -23.25 -219.8 M40.85 -197.6 L41.6 -196.4 43.75 -199.95 45.1 -202.7 46.35 -205.45 48.25 -211.45 48.4 -216.45 47.95 -223.3 46.55 -230.15 Q44.3 -239.0 41.9 -243.8 41.4 -233.95 38.35 -225.75 37.05 -222.2 34.45 -216.75 33.05 -213.75 30.85 -210.8 L29.05 -208.6 29.4 -208.35 30.4 -207.8 Q33.85 -206.05 36.45 -203.25 L40.45 -198.15 40.85 -197.6 M25.4 -204.7 L25.9 -204.3 Q28.75 -202.35 35.95 -194.1 L37.5 -192.25 39.5 -189.75 39.8 -190.3 Q40.55 -191.45 40.55 -192.1 40.55 -193.05 39.25 -195.25 L38.65 -196.25 35.8 -200.2 Q33.15 -203.3 29.7 -205.55 L28.05 -206.45 Q25.9 -207.6 24.55 -207.6 23.3 -207.6 22.65 -206.65 L22.65 -206.6 25.4 -204.7 M44.8 -169.4 Q46.65 -169.7 47.1 -170.7 L47.4 -171.55 46.4 -175.6 Q44.9 -182.05 43.15 -182.05 L41.4 -182.05 Q26.15 -181.9 9.9 -179.55 -3.35 -177.65 -8.7 -175.8 L-30.4 -169.65 -31.55 -169.35 -36.8 -167.6 -38.85 -166.75 -51.0 -161.7 Q-59.0 -158.2 -63.25 -155.6 -67.9 -152.8 -67.9 -150.95 -67.9 -149.3 -67.0 -144.2 L-66.25 -139.3 -64.65 -140.15 Q-63.35 -140.85 -61.65 -141.45 -58.75 -142.75 -54.65 -144.05 L-52.8 -144.65 -47.35 -146.4 -40.6 -148.2 -39.85 -148.45 -19.2 -154.85 Q-14.0 -156.5 -2.6 -159.1 L15.25 -163.15 30.35 -166.2 32.9 -166.95 34.9 -167.6 41.15 -168.95 44.5 -169.4 44.8 -169.4 M-85.35 -211.3 L-84.75 -204.85 -84.75 -204.55 -84.75 -203.1 Q-84.85 -202.0 -85.5 -202.0 -86.45 -202.0 -87.5 -202.7 L-87.65 -202.8 -90.55 -203.4 -90.15 -201.7 -87.8 -200.05 -87.1 -199.65 -85.65 -198.9 Q-84.45 -198.15 -80.2 -196.0 L-80.4 -199.95 -80.4 -202.5 -80.2 -203.7 -79.95 -203.95 -77.3 -204.0 -71.85 -204.1 -71.7 -206.45 Q-71.7 -208.8 -72.1 -210.35 L-72.25 -212.4 -72.55 -213.9 -74.15 -215.65 -74.75 -212.75 -75.0 -210.7 Q-75.2 -210.05 -76.2 -210.05 L-80.2 -210.55 -85.3 -211.65 -85.35 -211.3 M-86.45 -197.9 L-88.5 -199.3 -89.85 -200.35 -88.2 -195.55 -87.2 -192.95 -85.5 -190.0 -84.6 -188.75 -81.95 -185.25 -78.8 -181.3 Q-76.9 -179.0 -74.4 -177.25 L-68.6 -173.3 Q-67.75 -172.6 -65.15 -171.3 -63.95 -170.7 -63.5 -170.1 L-62.65 -170.6 -61.8 -171.15 -61.75 -171.15 -61.45 -171.4 Q-59.9 -172.45 -59.2 -173.35 -57.7 -175.1 -56.25 -178.25 -54.65 -181.3 -54.65 -187.9 L-54.85 -190.45 -55.55 -192.9 -56.0 -193.95 -56.4 -194.7 -57.9 -195.6 -59.75 -197.0 -62.35 -199.6 Q-63.85 -201.1 -66.15 -205.0 L-69.8 -210.35 -71.1 -212.1 -70.95 -211.0 -70.65 -208.8 -70.5 -207.6 -70.5 -206.35 -70.8 -203.0 -77.65 -202.95 -79.4 -202.8 -79.35 -202.35 -79.35 -197.55 -79.1 -195.75 Q-79.05 -194.5 -79.8 -194.5 L-85.65 -197.55 -86.45 -197.9 M-50.15 -189.45 L-50.45 -191.45 Q-50.55 -193.05 -52.15 -194.35 L-54.2 -195.6 -56.1 -196.25 -56.1 -196.15 -55.35 -195.15 -55.4 -194.8 -55.35 -194.7 -54.4 -193.4 -53.9 -191.95 -53.65 -190.95 -53.5 -190.15 Q-53.25 -188.6 -53.25 -186.0 -53.25 -181.2 -55.25 -176.8 -56.5 -173.9 -59.45 -171.1 L-61.3 -169.55 Q-62.8 -168.5 -63.7 -168.5 L-64.25 -168.55 Q-65.4 -168.55 -69.3 -170.85 -69.2 -169.85 -68.35 -168.85 L-67.7 -167.95 -67.3 -167.75 Q-65.45 -166.75 -63.5 -166.65 L-63.2 -166.65 Q-60.95 -166.65 -58.4 -168.1 L-58.0 -168.4 Q-55.5 -169.95 -54.65 -171.3 L-52.95 -174.05 -51.75 -176.55 Q-50.0 -179.6 -50.0 -186.95 L-50.15 -189.45" fill="#000000" fill-rule="evenodd" stroke="none"/>
      <path d="M5.1 -212.55 L3.65 -215.15 Q8.0 -212.9 11.95 -210.5 17.4 -207.05 24.4 -201.65 27.0 -199.65 29.65 -196.6 L33.55 -191.8 37.9 -186.3 39.25 -184.7 38.7 -184.7 37.25 -184.8 35.45 -184.8 Q30.5 -192.35 23.25 -199.5 14.1 -208.45 5.1 -212.55 M-63.4 -159.55 L-65.25 -158.45 -65.1 -164.9 -63.55 -164.75 -63.55 -164.15 -63.4 -162.45 -63.4 -159.55 M-52.15 -196.55 L-52.45 -196.75 -54.2 -197.85 Q-51.9 -200.95 -49.0 -203.95 -43.9 -209.1 -34.6 -214.0 -30.7 -215.95 -28.8 -217.2 L-24.9 -216.8 Q-31.4 -214.15 -37.95 -209.05 -41.4 -206.35 -52.15 -196.55" fill="#4d3316" fill-rule="evenodd" stroke="none"/>
      <path d="M-14.65 -225.05 Q-11.45 -224.5 -8.25 -223.0 L-7.8 -222.6 Q-4.55 -220.25 -2.15 -217.25 2.3 -211.65 5.5 -203.4 L5.1 -203.4 Q3.75 -205.05 0.85 -207.45 -2.9 -210.4 -4.8 -212.3 -9.15 -216.5 -14.7 -218.4 -18.9 -219.4 -23.25 -219.8 -21.95 -221.4 -18.2 -223.35 L-14.65 -225.05 M25.4 -204.7 L26.75 -205.7 28.05 -206.45 29.7 -205.55 Q33.15 -203.3 35.8 -200.2 L38.65 -196.25 39.25 -195.25 38.7 -194.0 37.5 -192.25 35.95 -194.1 Q28.75 -202.35 25.9 -204.3 L25.4 -204.7 M41.4 -182.05 L44.8 -169.5 44.5 -169.4 41.15 -168.95 34.9 -167.6 32.9 -166.95 30.35 -166.2 15.25 -163.15 -2.6 -159.1 Q-14.0 -156.5 -19.2 -154.85 L-39.85 -148.45 -40.6 -148.2 Q-39.65 -152.85 -36.5 -158.95 -34.35 -163.3 -30.4 -169.65 L-8.7 -175.8 Q-3.35 -177.65 9.9 -179.55 26.15 -181.9 41.4 -182.05 M-54.65 -144.05 Q-58.75 -142.75 -61.65 -141.45 L-62.2 -144.55 Q-62.9 -149.2 -63.25 -155.6 -59.0 -158.2 -51.0 -161.7 L-38.85 -166.75 -36.8 -167.6 -40.8 -160.65 Q-45.05 -153.1 -46.7 -151.5 -47.4 -150.8 -50.05 -149.3 -52.3 -148.05 -53.45 -146.3 L-54.65 -144.05 M-53.9 -191.95 L-52.5 -191.05 -50.15 -189.45 -50.0 -186.95 Q-50.0 -179.6 -51.75 -176.55 L-52.95 -174.05 -54.65 -171.3 Q-55.5 -169.95 -58.0 -168.4 L-58.4 -168.1 Q-59.15 -168.25 -59.75 -168.55 L-61.3 -169.55 -59.45 -171.1 Q-56.5 -173.9 -55.25 -176.8 -53.25 -181.2 -53.25 -186.0 -53.25 -188.6 -53.5 -190.15 L-53.65 -190.95 -53.9 -191.95" fill="#ff9900" fill-rule="evenodd" stroke="none"/>
      <path d="M5.1 -212.55 Q14.1 -208.45 23.25 -199.5 30.5 -192.35 35.45 -184.8 L26.15 -184.55 Q5.7 -184.7 -27.75 -173.9 L-31.95 -172.55 -33.6 -171.9 -33.7 -171.9 -34.0 -171.7 -34.35 -171.6 Q-53.75 -165.3 -62.9 -159.9 L-63.2 -159.75 -63.4 -159.55 -63.4 -162.45 -63.55 -164.15 -63.55 -164.75 -63.05 -164.75 Q-60.35 -164.75 -58.25 -165.65 -57.75 -165.9 -56.3 -166.9 -54.65 -168.05 -53.25 -169.8 -52.35 -170.85 -51.45 -172.7 L-50.15 -175.5 Q-48.1 -179.55 -48.1 -186.95 -48.1 -190.5 -48.45 -191.95 -49.25 -194.8 -52.15 -196.55 -41.4 -206.35 -37.95 -209.05 -31.4 -214.15 -24.9 -216.8 L-17.85 -215.95 -14.7 -215.15 -13.25 -214.45 -10.9 -213.1 Q-5.7 -210.2 -2.15 -206.6 L4.7 -199.95 Q5.8 -199.0 6.95 -196.9 L8.75 -194.8 Q9.85 -193.55 10.5 -193.55 L10.6 -193.55 Q11.6 -193.85 11.6 -195.75 11.6 -198.15 7.7 -207.0 L5.1 -212.55" fill="#331f09" fill-rule="evenodd" stroke="none"/>
      <path d="M30.4 -207.8 L29.4 -208.35 29.05 -208.6 30.85 -210.8 Q33.05 -213.75 34.45 -216.75 37.05 -222.2 38.35 -225.75 41.4 -233.95 41.9 -243.8 44.3 -239.0 46.55 -230.15 L47.95 -223.3 48.4 -216.45 48.25 -211.45 46.35 -205.45 45.1 -202.7 43.75 -199.95 41.6 -196.4 40.85 -197.6 Q42.3 -199.9 43.9 -204.3 46.1 -210.4 46.1 -214.5 46.1 -222.15 45.65 -225.95 44.8 -232.2 42.45 -235.5 40.6 -223.75 30.4 -207.8 M-61.75 -171.15 L-61.8 -171.15 -62.65 -170.6 -63.5 -170.1 Q-63.95 -170.7 -65.15 -171.3 -67.75 -172.6 -68.6 -173.3 L-74.4 -177.25 Q-76.9 -179.0 -78.8 -181.3 L-81.95 -185.25 -84.6 -188.75 -85.5 -190.0 -87.2 -192.95 -88.2 -195.55 -89.85 -200.35 -88.5 -199.3 -86.45 -197.9 Q-85.2 -195.0 -83.3 -192.25 L-77.05 -184.55 -69.45 -176.35 Q-65.15 -172.3 -61.75 -171.15 M-70.5 -207.6 L-70.65 -208.8 -70.95 -211.0 -71.1 -212.1 -69.8 -210.35 -66.15 -205.0 Q-63.85 -201.1 -62.35 -199.6 L-59.75 -197.0 -57.9 -195.6 -56.4 -194.7 -56.0 -193.95 -55.55 -192.9 -54.85 -190.45 Q-58.7 -191.9 -63.65 -197.45 -68.2 -202.65 -70.5 -207.6" fill="#d6c59e" fill-rule="evenodd" stroke="none"/>
      <path d="M-14.65 -225.05 L-18.2 -223.35 Q-21.95 -221.4 -23.25 -219.8 L-25.75 -220.0 -28.8 -220.1 -30.85 -219.55 -25.9 -223.35 Q-23.15 -224.8 -18.15 -225.2 L-15.25 -225.1 -14.65 -225.05 M28.05 -206.45 L26.75 -205.7 25.4 -204.7 22.65 -206.6 22.65 -206.65 Q23.3 -207.6 24.55 -207.6 25.9 -207.6 28.05 -206.45 M37.5 -192.25 L38.7 -194.0 39.25 -195.25 Q40.55 -193.05 40.55 -192.1 40.55 -191.45 39.8 -190.3 L39.5 -189.75 37.5 -192.25 M41.4 -182.05 L43.15 -182.05 Q44.9 -182.05 46.4 -175.6 L47.4 -171.55 47.1 -170.7 Q46.65 -169.7 44.8 -169.4 L44.8 -169.5 41.4 -182.05 M-61.65 -141.45 Q-63.35 -140.85 -64.65 -140.15 L-66.25 -139.3 -67.0 -144.2 Q-67.9 -149.3 -67.9 -150.95 -67.9 -152.8 -63.25 -155.6 -62.9 -149.2 -62.2 -144.55 L-61.65 -141.45 M-53.9 -191.95 L-54.4 -193.4 -55.35 -194.7 -55.4 -194.8 -55.35 -195.15 -56.1 -196.15 -56.1 -196.25 -54.2 -195.6 -52.15 -194.35 Q-50.55 -193.05 -50.45 -191.45 L-50.15 -189.45 -52.5 -191.05 -53.9 -191.95 M-58.4 -168.1 Q-60.95 -166.65 -63.2 -166.65 L-63.5 -166.65 Q-65.45 -166.75 -67.3 -167.75 L-67.7 -167.95 -68.35 -168.85 Q-69.2 -169.85 -69.3 -170.85 -65.4 -168.55 -64.25 -168.55 L-63.7 -168.5 Q-62.8 -168.5 -61.3 -169.55 L-59.75 -168.55 Q-59.15 -168.25 -58.4 -168.1" fill="#ffb342" fill-rule="evenodd" stroke="none"/>
      <path d="M30.4 -207.8 Q40.6 -223.75 42.45 -235.5 44.8 -232.2 45.65 -225.95 46.1 -222.15 46.1 -214.5 46.1 -210.4 43.9 -204.3 42.3 -199.9 40.85 -197.6 L40.45 -198.15 36.45 -203.25 Q33.85 -206.05 30.4 -207.8 M-61.75 -171.15 Q-65.15 -172.3 -69.45 -176.35 L-77.05 -184.55 -83.3 -192.25 Q-85.2 -195.0 -86.45 -197.9 L-85.65 -197.55 -79.8 -194.5 Q-79.05 -194.5 -79.1 -195.75 L-79.35 -197.55 -79.35 -202.35 -79.4 -202.8 -77.65 -202.95 -70.8 -203.0 -70.5 -206.35 -70.5 -207.6 Q-68.2 -202.65 -63.65 -197.45 -58.7 -191.9 -54.85 -190.45 L-54.65 -187.9 Q-54.65 -181.3 -56.25 -178.25 -57.7 -175.1 -59.2 -173.35 -59.9 -172.45 -61.45 -171.4 L-61.75 -171.15" fill="#baab89" fill-rule="evenodd" stroke="none"/>
      <path d="M-85.35 -211.3 L-85.3 -211.65 -80.2 -210.55 -76.2 -210.05 Q-75.2 -210.05 -75.0 -210.7 L-74.75 -212.75 -74.15 -215.65 -72.55 -213.9 -72.25 -212.4 -72.1 -210.35 Q-71.7 -208.8 -71.7 -206.45 L-71.85 -204.1 -77.3 -204.0 -79.95 -203.95 -80.2 -203.7 -80.4 -202.5 -80.4 -199.95 -80.2 -196.0 Q-84.45 -198.15 -85.65 -198.9 L-87.1 -199.65 -87.8 -200.05 -90.15 -201.7 -90.55 -203.4 -87.65 -202.8 -87.5 -202.7 Q-86.45 -202.0 -85.5 -202.0 -84.85 -202.0 -84.75 -203.1 L-84.75 -204.55 -84.75 -204.85 -85.35 -211.3" fill="#948461" fill-rule="evenodd" stroke="none"/>
      <path d="M-40.6 -148.2 L-47.35 -146.4 -52.8 -144.65 -54.65 -144.05 -53.45 -146.3 Q-52.3 -148.05 -50.05 -149.3 -47.4 -150.8 -46.7 -151.5 -45.05 -153.1 -40.8 -160.65 L-36.8 -167.6 -31.55 -169.35 -30.4 -169.65 Q-34.35 -163.3 -36.5 -158.95 -39.65 -152.85 -40.6 -148.2" fill="#ffffff" fill-rule="evenodd" stroke="none"/>
      <path d="M34.6 -127.55 Q34.05 -131.45 33.4 -133.3 32.15 -136.25 30.25 -137.25 L30.25 -139.6 29.7 -141.6 28.45 -142.95 Q32.7 -143.8 36.3 -147.05 L40.0 -151.5 43.75 -155.45 43.9 -153.5 44.3 -150.2 Q44.75 -148.75 45.8 -147.75 L44.9 -146.25 Q39.95 -143.1 37.05 -137.45 34.5 -132.45 34.6 -127.55 M53.65 -129.7 L53.1 -127.05 Q52.75 -123.45 53.5 -114.6 54.25 -106.75 65.4 -100.3 L72.1 -96.25 72.1 -96.15 69.75 -95.55 Q67.7 -94.35 67.35 -92.8 61.75 -93.65 55.8 -96.0 L51.0 -97.75 Q50.05 -100.8 47.7 -105.7 L42.15 -116.8 Q40.7 -119.7 37.7 -123.45 L46.5 -126.4 48.85 -127.35 48.7 -125.75 Q48.6 -124.65 49.1 -119.65 L49.6 -113.75 Q50.2 -110.25 52.15 -107.8 L56.4 -102.25 Q59.85 -98.75 62.7 -99.15 57.85 -104.1 55.7 -106.6 51.9 -111.05 51.2 -113.75 L50.45 -121.6 50.6 -125.75 50.85 -128.1 53.65 -129.7 M35.15 -106.75 Q34.9 -104.55 35.15 -101.5 35.3 -97.15 36.05 -91.2 36.45 -82.3 32.6 -78.1 L32.55 -78.05 Q29.4 -77.65 25.4 -75.05 26.35 -77.65 26.3 -80.6 L26.15 -84.5 26.0 -85.1 27.9 -85.55 Q31.0 -86.95 32.15 -91.3 32.85 -94.25 32.45 -98.05 31.8 -105.9 30.95 -109.6 29.95 -114.15 28.6 -116.6 L32.1 -113.0 33.7 -109.9 35.15 -106.75 M-0.6 -71.0 L-2.0 -71.8 Q-6.95 -74.5 -8.9 -74.05 -13.25 -77.65 -14.55 -86.35 -14.95 -92.2 -15.45 -96.45 L-15.55 -96.85 -16.6 -102.5 Q-16.15 -105.6 -14.1 -110.25 -11.6 -116.0 -10.75 -119.2 -10.45 -118.2 -10.5 -117.75 -10.5 -116.95 -10.9 -115.9 L-11.35 -114.05 Q-12.9 -111.4 -13.05 -105.45 -13.05 -101.65 -12.35 -93.65 -11.95 -89.9 -10.65 -87.15 -8.25 -81.9 -3.2 -82.35 L-2.95 -82.35 -3.15 -79.7 Q-3.15 -74.45 -0.6 -71.0 M-33.3 -88.15 L-34.85 -87.25 Q-40.25 -83.8 -45.75 -82.05 -46.2 -83.45 -48.3 -84.2 L-50.85 -84.45 -50.85 -84.5 -45.2 -89.6 Q-35.45 -98.2 -36.15 -106.0 -37.05 -114.9 -38.05 -118.25 L-39.1 -120.95 -36.35 -119.8 -36.05 -119.8 -35.45 -117.45 Q-34.55 -114.75 -34.55 -113.45 L-33.7 -105.6 Q-33.75 -102.85 -36.75 -97.75 -38.4 -94.8 -42.15 -89.1 -39.2 -89.25 -36.65 -93.25 L-33.4 -99.65 Q-32.1 -102.4 -32.3 -105.9 L-32.85 -111.85 -33.6 -117.9 Q-33.75 -118.95 -34.2 -120.0 L-33.45 -120.1 -22.25 -121.4 Q-22.5 -127.7 -28.1 -132.9 L-30.05 -134.5 -33.25 -138.25 -34.9 -140.05 Q-33.9 -141.2 -33.85 -142.65 L-34.05 -145.95 -34.3 -147.9 -29.9 -144.7 -25.4 -141.15 Q-21.2 -138.6 -16.9 -138.6 L-17.85 -137.0 Q-18.2 -136.0 -18.15 -134.95 L-17.55 -132.65 Q-19.3 -131.2 -19.9 -128.15 -20.35 -125.6 -19.8 -120.7 L-19.6 -119.55 -19.8 -118.9 Q-23.0 -110.35 -24.75 -106.2 -25.45 -104.45 -30.2 -95.5 -32.4 -91.05 -33.3 -88.15" fill="#ff9966" fill-rule="evenodd" stroke="none"/>
      <path d="M45.8 -153.65 Q45.9 -152.8 46.7 -151.2 L47.15 -149.95 49.7 -154.1 Q54.4 -159.5 58.4 -158.8 55.2 -160.95 49.6 -160.5 47.0 -160.2 46.1 -157.15 45.65 -155.3 45.8 -153.65 M44.9 -146.25 L45.8 -147.75 Q44.75 -148.75 44.3 -150.2 L43.9 -153.5 43.75 -155.45 40.0 -151.5 36.3 -147.05 Q32.7 -143.8 28.45 -142.95 L29.7 -141.6 30.25 -139.6 30.25 -137.25 Q32.15 -136.25 33.4 -133.3 34.05 -131.45 34.6 -127.55 L34.6 -127.05 34.75 -125.95 34.7 -125.6 34.7 -122.85 Q34.05 -120.0 31.85 -119.7 30.4 -119.65 30.4 -119.95 29.85 -122.1 26.0 -124.45 L25.3 -124.9 25.15 -123.85 Q24.85 -122.7 24.85 -122.0 25.05 -120.25 25.85 -119.5 L26.2 -119.1 26.45 -118.8 Q27.6 -118.25 28.6 -116.6 29.95 -114.15 30.95 -109.6 31.8 -105.9 32.45 -98.05 32.85 -94.25 32.15 -91.3 31.0 -86.95 27.9 -85.55 L26.0 -85.1 25.7 -85.2 Q23.4 -84.9 22.25 -86.05 22.1 -85.05 20.65 -85.05 19.45 -85.05 19.0 -85.4 L18.8 -85.5 18.75 -85.65 18.2 -85.1 Q17.75 -84.65 17.0 -84.6 L16.7 -84.65 16.6 -84.65 Q16.4 -83.8 15.1 -83.9 L13.85 -83.95 12.95 -84.5 12.8 -84.6 Q12.2 -84.1 11.45 -84.05 L11.2 -83.95 10.95 -83.95 10.3 -83.95 10.15 -83.9 9.85 -83.6 7.75 -83.3 5.95 -83.6 5.85 -83.65 5.8 -83.6 5.5 -83.5 Q4.8 -83.45 4.25 -83.75 L4.05 -83.8 3.95 -83.75 3.45 -83.5 2.05 -83.3 Q1.05 -83.3 0.3 -84.2 L0.25 -84.25 Q-0.6 -82.65 -2.95 -82.35 L-3.2 -82.35 Q-8.25 -81.9 -10.65 -87.15 -11.95 -89.9 -12.35 -93.65 -13.05 -101.65 -13.05 -105.45 -12.9 -111.4 -11.35 -114.05 L-10.9 -115.9 Q-10.5 -116.95 -10.5 -117.75 -10.45 -118.2 -10.75 -119.2 L-10.8 -119.35 -11.2 -120.65 Q-14.35 -117.6 -14.4 -115.6 -14.5 -115.3 -15.95 -115.15 -18.05 -114.9 -19.05 -117.75 L-19.6 -119.55 -19.8 -120.7 Q-20.35 -125.6 -19.9 -128.15 -19.3 -131.2 -17.55 -132.65 L-18.15 -134.95 Q-18.2 -136.0 -17.85 -137.0 L-16.9 -138.6 Q-21.2 -138.6 -25.4 -141.15 L-29.9 -144.7 -34.3 -147.9 -34.05 -145.95 -33.85 -142.65 Q-33.9 -141.2 -34.9 -140.05 L-33.25 -138.25 -30.05 -134.5 Q-27.95 -132.0 -27.2 -130.55 L-26.7 -129.25 Q-26.45 -127.1 -26.75 -126.8 -27.65 -125.8 -32.55 -125.3 L-42.45 -125.6 Q-40.55 -123.7 -39.1 -120.95 L-38.05 -118.25 Q-37.05 -114.9 -36.15 -106.0 -35.45 -98.2 -45.2 -89.6 L-50.85 -84.5 -50.85 -84.45 -48.3 -84.2 Q-46.2 -83.45 -45.75 -82.05 -40.25 -83.8 -34.85 -87.25 L-33.3 -88.15 Q-26.05 -92.8 -22.55 -93.65 L-21.65 -93.8 -18.9 -93.75 -18.75 -93.25 -18.6 -91.95 Q-18.0 -85.95 -27.75 -76.35 -22.5 -77.95 -14.5 -77.8 L-15.4 -81.15 -16.9 -92.1 -17.15 -95.95 -17.55 -103.35 -16.9 -103.5 -16.6 -102.5 -15.55 -96.85 -15.45 -96.45 Q-14.95 -92.2 -14.55 -86.35 -13.25 -77.65 -8.9 -74.05 -6.95 -74.5 -2.0 -71.8 L-0.6 -71.0 Q7.15 -66.95 10.0 -67.35 15.6 -67.8 21.95 -72.7 L25.4 -75.05 Q29.4 -77.65 32.55 -78.05 L32.6 -78.1 Q36.45 -82.3 36.05 -91.2 35.3 -97.15 35.15 -101.5 34.9 -104.55 35.15 -106.75 L35.2 -108.35 35.75 -108.45 36.8 -101.5 37.4 -97.3 37.95 -86.2 37.7 -82.85 Q45.4 -84.6 50.9 -83.9 39.65 -91.45 39.0 -97.45 L38.95 -98.75 39.0 -99.35 41.7 -99.9 43.75 -99.8 Q46.5 -99.45 51.0 -97.75 L55.8 -96.0 Q61.75 -93.65 67.35 -92.8 67.7 -94.35 69.75 -95.55 L72.1 -96.15 72.1 -96.25 65.4 -100.3 Q54.25 -106.75 53.5 -114.6 52.75 -123.45 53.1 -127.05 L53.65 -129.7 Q54.4 -132.75 56.1 -135.1 52.15 -133.5 46.35 -133.0 L40.4 -133.2 Q40.1 -133.6 39.95 -135.65 39.7 -137.55 44.6 -145.8 L44.9 -146.25 M22.85 -144.95 Q25.4 -144.5 30.25 -144.95 30.85 -144.95 37.8 -151.65 41.85 -155.75 44.05 -157.5 45.1 -162.75 52.15 -162.25 55.7 -161.85 58.7 -160.1 61.75 -158.5 61.9 -156.9 L61.9 -156.05 62.85 -154.25 Q63.7 -152.1 64.0 -148.85 64.45 -143.8 63.1 -141.15 61.8 -138.45 59.0 -136.65 L57.1 -131.2 Q54.65 -124.45 55.1 -120.0 55.8 -112.45 59.6 -107.9 62.25 -104.85 67.35 -102.2 70.65 -100.65 72.55 -99.5 L74.0 -99.2 Q75.6 -98.6 75.7 -97.45 L75.6 -97.4 Q78.55 -97.55 80.55 -94.4 82.45 -91.15 82.9 -86.8 83.3 -82.65 81.6 -78.8 78.55 -72.0 70.2 -71.1 67.6 -70.85 65.25 -73.2 63.4 -75.05 63.25 -76.75 L63.2 -76.9 Q59.75 -78.5 54.25 -81.75 L53.9 -81.9 45.4 -82.45 37.5 -81.85 Q36.5 -75.95 33.05 -75.6 L32.7 -75.5 30.5 -74.65 Q25.3 -72.9 23.3 -70.7 21.4 -68.95 18.15 -67.35 15.95 -66.3 12.75 -65.35 9.55 -64.45 9.35 -64.9 6.1 -64.7 3.3 -66.35 L-1.75 -69.25 -5.7 -71.15 -7.6 -72.15 Q-7.95 -71.6 -8.75 -71.55 -12.1 -71.25 -14.2 -76.9 L-22.05 -75.9 Q-27.75 -75.35 -30.2 -73.85 L-30.65 -73.55 Q-35.2 -69.35 -38.4 -67.15 L-38.35 -66.95 Q-38.2 -65.3 -39.7 -63.15 -41.7 -60.35 -44.35 -60.1 -52.6 -59.35 -56.85 -65.6 -59.3 -68.95 -59.7 -73.05 -60.2 -77.4 -58.85 -81.05 -57.45 -84.5 -54.55 -84.95 L-54.55 -85.05 Q-54.65 -86.05 -53.2 -86.95 L-52.0 -87.55 -47.4 -91.2 Q-42.7 -94.8 -40.8 -98.35 -37.9 -103.5 -38.65 -111.05 -39.1 -115.45 -42.85 -121.7 L-45.65 -126.55 Q-48.7 -127.8 -50.6 -130.15 -52.35 -132.5 -52.9 -137.6 L-52.95 -139.55 Q-53.05 -142.95 -52.3 -145.15 L-52.35 -145.85 Q-52.5 -147.4 -49.85 -149.75 -47.0 -151.95 -43.8 -152.95 -37.1 -155.0 -34.9 -149.9 -32.45 -148.6 -27.65 -145.4 -19.65 -140.2 -19.15 -140.3 L-12.95 -141.2 Q-11.2 -141.65 -10.35 -142.25 -8.4 -143.7 -5.55 -143.95 -4.1 -144.1 -3.45 -143.5 -4.9 -141.9 -9.4 -140.45 -13.05 -139.05 -15.45 -138.75 L-15.55 -138.7 -15.25 -137.4 -15.45 -135.4 -15.7 -133.5 -14.85 -133.6 -15.55 -133.9 -14.1 -133.75 -12.35 -133.35 -11.45 -133.05 Q-8.75 -132.05 -8.0 -130.4 L-7.7 -126.9 Q-5.35 -127.4 -1.6 -128.65 L4.1 -128.5 4.9 -128.55 9.3 -129.3 10.65 -129.45 Q13.05 -130.55 15.4 -130.25 L21.65 -129.7 21.35 -133.2 Q21.7 -135.05 24.15 -136.5 L25.4 -137.15 26.85 -137.8 27.95 -138.1 27.35 -137.6 28.1 -137.7 27.65 -139.6 27.05 -141.45 27.05 -142.75 27.05 -142.8 20.65 -143.25 Q15.95 -143.85 14.25 -145.15 15.0 -146.0 16.4 -146.1 19.2 -146.4 21.35 -145.3 L22.85 -144.95 M-11.95 -144.85 Q-11.2 -145.7 -8.25 -147.05 -4.05 -149.0 -1.6 -148.85 L-0.3 -148.45 Q0.05 -150.5 4.65 -151.1 9.15 -151.8 10.0 -149.45 10.75 -149.65 11.5 -150.05 L18.3 -149.75 Q21.25 -149.0 22.35 -148.45 L22.95 -147.75 22.85 -147.0 Q22.55 -146.75 22.0 -147.25 20.75 -147.25 19.2 -148.05 17.0 -148.7 11.75 -148.15 L10.0 -147.7 9.35 -147.45 8.85 -147.05 8.75 -147.55 7.7 -148.3 Q6.65 -149.15 5.1 -149.05 3.75 -148.9 2.3 -147.85 L1.5 -147.15 1.6 -146.3 0.7 -146.7 0.05 -146.85 -1.35 -146.9 Q-6.65 -146.4 -8.75 -145.4 -10.0 -144.25 -11.35 -144.05 -12.2 -142.9 -12.25 -144.4 L-11.95 -144.85 M43.45 -137.7 L42.55 -136.2 Q44.65 -137.0 49.0 -137.25 L55.5 -138.15 Q62.5 -139.9 61.65 -149.15 L61.35 -151.4 Q59.5 -161.85 52.15 -151.9 48.3 -146.4 43.45 -137.7 M27.45 -136.4 L26.15 -136.7 25.9 -136.8 Q23.1 -134.9 23.15 -132.3 23.15 -131.35 23.6 -129.45 L23.6 -128.35 Q25.7 -127.85 28.2 -125.95 31.55 -123.45 32.25 -123.15 32.75 -125.65 32.45 -129.1 L32.45 -129.45 Q32.1 -131.7 30.2 -134.05 28.9 -135.85 27.45 -136.4 M29.85 -91.35 Q30.85 -93.9 31.0 -98.15 L30.1 -110.2 Q29.95 -112.1 28.35 -114.75 L27.15 -116.65 Q25.45 -116.65 24.55 -118.65 23.95 -119.95 23.7 -121.45 23.7 -121.9 24.25 -123.6 24.6 -124.65 24.9 -125.15 L22.35 -126.9 Q22.0 -126.95 21.85 -127.2 L21.85 -127.4 Q15.7 -126.25 15.1 -127.65 L14.7 -128.7 Q14.4 -129.15 13.35 -129.1 L12.55 -128.8 12.65 -128.65 Q11.65 -127.4 9.45 -126.8 L4.5 -126.1 2.65 -126.2 0.9 -126.5 -0.9 -126.55 -0.75 -126.05 Q-1.3 -124.6 -7.45 -124.6 L-7.45 -124.35 -7.8 -124.0 -10.15 -121.55 -10.3 -121.45 -10.2 -121.4 -10.0 -120.4 -9.7 -118.25 -9.6 -116.3 -9.75 -115.65 -9.6 -115.75 -11.45 -110.85 Q-12.4 -108.0 -12.2 -106.15 L-11.3 -97.15 -10.8 -94.2 Q-8.6 -84.25 -3.45 -84.8 L-1.7 -85.35 Q-1.85 -87.3 -1.2 -90.05 -0.45 -94.05 1.35 -94.2 L2.6 -93.95 3.2 -90.9 4.1 -87.65 4.1 -87.3 4.7 -89.7 Q5.4 -91.5 7.25 -91.75 7.85 -91.75 9.75 -89.4 L10.8 -88.1 11.6 -89.6 Q13.1 -92.3 13.7 -92.3 15.55 -92.5 16.55 -90.85 L17.6 -88.7 17.6 -89.0 17.6 -92.35 17.7 -95.5 18.8 -95.85 Q20.75 -96.0 22.4 -92.3 23.3 -90.0 23.6 -88.1 L23.7 -87.8 25.45 -87.55 Q28.5 -87.8 29.85 -91.35 M16.0 -134.75 L16.0 -134.95 Q15.75 -137.6 17.75 -139.75 19.95 -141.95 22.25 -139.6 18.8 -138.85 17.85 -137.1 L17.55 -136.4 Q17.3 -135.2 17.7 -133.45 L17.05 -133.15 Q16.25 -133.5 16.0 -134.75 M-4.95 -134.65 L-4.65 -134.2 -3.8 -132.2 Q-3.75 -131.15 -4.55 -131.05 -5.1 -131.05 -5.8 -132.5 -6.55 -134.05 -6.95 -134.4 L-7.7 -135.4 -8.45 -135.95 Q-9.45 -136.7 -11.5 -136.2 L-11.9 -136.35 Q-11.3 -137.8 -9.15 -137.45 -7.1 -137.25 -6.15 -136.5 -5.7 -136.1 -4.95 -134.65 M50.85 -128.1 L50.6 -125.75 50.45 -121.6 51.2 -113.75 Q51.9 -111.05 55.7 -106.6 57.85 -104.1 62.7 -99.15 59.85 -98.75 56.4 -102.25 L52.15 -107.8 Q50.2 -110.25 49.6 -113.75 L49.1 -119.65 Q48.6 -124.65 48.7 -125.75 L48.85 -127.35 Q49.1 -129.45 50.0 -131.6 50.7 -131.2 50.85 -129.1 L50.85 -128.1 M42.7 -110.25 L46.65 -104.6 Q46.7 -103.2 46.35 -103.85 42.0 -108.45 37.5 -116.6 L42.7 -110.25 M73.4 -95.25 Q71.5 -94.7 70.35 -93.4 L69.65 -92.65 74.1 -92.5 75.05 -92.65 Q76.0 -92.65 77.05 -92.05 L78.25 -91.5 78.95 -90.85 78.95 -90.15 79.05 -90.05 79.25 -90.05 79.25 -88.25 Q79.2 -86.7 78.8 -85.2 L78.2 -83.35 Q75.85 -76.05 68.15 -75.3 L66.4 -75.5 66.45 -75.3 Q67.7 -73.45 72.8 -73.9 75.45 -74.15 78.4 -78.1 81.6 -82.35 81.25 -86.55 L81.25 -86.65 Q80.85 -90.7 79.35 -93.05 77.3 -96.4 73.4 -95.8 L73.3 -95.7 73.4 -95.25 M73.95 -97.1 L73.3 -97.25 73.3 -96.95 73.95 -97.1 M76.0 -84.95 L76.8 -89.0 76.65 -89.15 76.5 -90.35 76.35 -90.7 Q75.35 -90.2 71.2 -89.85 66.45 -89.3 59.6 -91.95 49.55 -95.8 41.1 -97.45 L41.45 -97.1 43.45 -94.35 Q44.95 -92.2 46.2 -90.85 48.85 -87.85 52.0 -86.05 L59.2 -81.55 Q66.15 -77.85 72.25 -78.5 74.25 -78.65 75.75 -84.1 L76.0 -84.95 M21.35 -87.8 Q20.9 -91.5 19.9 -92.6 L19.65 -92.2 19.65 -88.3 Q19.5 -87.1 19.15 -86.25 L20.35 -86.1 20.65 -86.1 21.4 -86.5 21.35 -86.55 21.65 -87.0 21.35 -87.8 M1.0 -90.75 Q0.45 -89.55 0.55 -85.9 L0.55 -85.35 0.75 -85.05 Q1.6 -84.45 2.35 -84.45 2.9 -84.45 3.1 -84.75 L3.2 -84.65 Q2.6 -85.5 2.15 -86.7 1.45 -88.3 1.35 -90.45 L1.0 -90.75 M9.05 -84.8 L8.4 -86.05 6.95 -88.9 Q6.85 -85.95 6.4 -84.65 L8.55 -84.45 Q8.9 -84.45 9.05 -84.8 M14.95 -85.05 Q15.75 -85.05 16.0 -85.35 15.25 -86.5 14.5 -89.6 14.1 -89.1 13.8 -86.5 L13.35 -85.4 13.5 -85.35 Q14.1 -85.05 14.95 -85.05 M-30.5 -130.6 Q-35.65 -136.7 -39.8 -140.75 L-41.9 -142.8 Q-51.9 -152.2 -50.6 -138.4 L-50.4 -136.65 Q-48.95 -129.1 -42.6 -128.7 L-36.05 -129.0 -29.35 -129.3 -30.5 -130.6 M-14.65 -132.35 Q-15.95 -131.45 -16.9 -129.45 -18.5 -126.55 -18.3 -124.2 L-18.15 -123.15 Q-17.85 -120.4 -17.0 -118.5 -16.25 -118.95 -13.5 -122.0 -11.15 -124.35 -9.3 -125.2 L-9.55 -126.35 -9.7 -129.15 Q-10.05 -131.6 -13.05 -133.0 L-13.2 -133.0 -14.65 -132.35 M-36.15 -145.7 Q-36.3 -147.45 -37.05 -149.05 -38.4 -152.05 -41.0 -151.8 -46.4 -151.2 -49.15 -148.35 -45.65 -149.95 -39.85 -145.4 L-36.65 -141.9 -36.45 -143.2 Q-36.05 -144.85 -36.15 -145.7 M-34.2 -120.0 Q-33.75 -118.95 -33.6 -117.9 L-32.85 -111.85 -32.3 -105.9 Q-32.1 -102.4 -33.4 -99.65 L-36.65 -93.25 Q-39.2 -89.25 -42.15 -89.1 -38.4 -94.8 -36.75 -97.75 -33.75 -102.85 -33.7 -105.6 L-34.55 -113.45 Q-34.55 -114.75 -35.45 -117.45 L-36.05 -119.8 -36.3 -120.8 Q-36.45 -122.85 -35.9 -123.35 -34.75 -121.6 -34.2 -120.0 M-20.65 -110.95 Q-23.65 -102.1 -27.15 -96.75 -27.35 -96.1 -27.5 -97.6 -27.6 -98.15 -24.7 -103.8 -21.85 -109.45 -20.65 -110.95 M-21.05 -90.5 L-20.9 -91.05 -20.9 -91.15 -20.65 -91.5 Q-28.65 -88.25 -37.8 -82.75 -44.0 -78.85 -48.65 -78.35 L-53.5 -78.2 -53.6 -78.2 -54.05 -77.7 -54.05 -77.65 -54.05 -76.5 -54.1 -76.45 Q-53.65 -74.8 -52.2 -71.7 L-52.15 -71.45 Q-49.6 -66.75 -47.65 -66.95 -41.7 -67.45 -35.45 -72.4 L-29.2 -78.25 Q-26.5 -80.7 -24.4 -84.1 -22.95 -86.35 -21.05 -90.5 M-51.9 -83.3 L-51.9 -83.75 -51.9 -83.8 Q-55.95 -83.65 -57.3 -79.95 -58.25 -77.25 -57.85 -73.2 -57.45 -68.9 -53.5 -65.55 -49.85 -62.25 -47.25 -62.5 -42.15 -62.95 -41.4 -64.9 L-41.3 -65.15 -42.9 -64.6 Q-50.55 -63.85 -54.5 -70.55 L-54.85 -71.3 -56.4 -75.3 -56.5 -76.1 -56.65 -76.2 -56.7 -76.5 -56.65 -76.8 -56.7 -77.05 -56.65 -76.95 -56.3 -77.65 -55.25 -78.7 -53.95 -79.7 -52.65 -80.0 -52.45 -80.4 -47.85 -81.3 -48.65 -82.05 Q-49.9 -83.05 -51.9 -83.3 M-52.8 -85.05 L-52.05 -84.9 -52.3 -85.35 -52.8 -85.05" fill="#000000" fill-rule="evenodd" stroke="none"/>
      <path d="M45.8 -153.65 Q45.65 -155.3 46.1 -157.15 47.0 -160.2 49.6 -160.5 55.2 -160.95 58.4 -158.8 54.4 -159.5 49.7 -154.1 L47.15 -149.95 46.7 -151.2 Q45.9 -152.8 45.8 -153.65 M73.4 -95.25 L73.3 -95.7 73.4 -95.8 Q77.3 -96.4 79.35 -93.05 80.85 -90.7 81.25 -86.65 L81.25 -86.55 Q81.6 -82.35 78.4 -78.1 75.45 -74.15 72.8 -73.9 67.7 -73.45 66.45 -75.3 L66.4 -75.5 68.15 -75.3 Q75.85 -76.05 78.2 -83.35 L78.8 -85.2 Q79.2 -86.7 79.25 -88.25 L79.25 -90.05 79.05 -90.05 78.95 -90.15 78.95 -90.85 78.25 -91.5 77.05 -92.05 Q76.0 -92.65 75.05 -92.65 L74.1 -92.5 69.65 -92.65 70.35 -93.4 Q71.5 -94.7 73.4 -95.25 M-36.15 -145.7 Q-36.05 -144.85 -36.45 -143.2 L-36.65 -141.9 -39.85 -145.4 Q-45.65 -149.95 -49.15 -148.35 -46.4 -151.2 -41.0 -151.8 -38.4 -152.05 -37.05 -149.05 -36.3 -147.45 -36.15 -145.7 M-51.9 -83.3 Q-49.9 -83.05 -48.65 -82.05 L-47.85 -81.3 -52.45 -80.4 -52.65 -80.0 -53.95 -79.7 -55.25 -78.7 -56.3 -77.65 -56.65 -76.95 -56.7 -77.05 -56.65 -76.8 -56.7 -76.5 -56.65 -76.2 -56.5 -76.1 -56.4 -75.3 -54.85 -71.3 -54.5 -70.55 Q-50.55 -63.85 -42.9 -64.6 L-41.3 -65.15 -41.4 -64.9 Q-42.15 -62.95 -47.25 -62.5 -49.85 -62.25 -53.5 -65.55 -57.45 -68.9 -57.85 -73.2 -58.25 -77.25 -57.3 -79.95 -55.95 -83.65 -51.9 -83.8 L-51.9 -83.75 -51.9 -83.3" fill="#f24141" fill-rule="evenodd" stroke="none"/>
      <path d="M61.35 -151.4 L61.65 -149.15 Q62.5 -139.9 55.5 -138.15 L49.0 -137.25 Q44.65 -137.0 42.55 -136.2 L43.45 -137.7 Q45.25 -138.75 47.8 -139.75 52.75 -141.65 54.85 -143.5 57.7 -145.8 60.65 -150.35 L61.35 -151.4 M43.45 -94.35 Q50.85 -89.45 56.8 -87.3 65.7 -84.1 76.0 -84.95 L75.75 -84.1 Q74.25 -78.65 72.25 -78.5 66.15 -77.85 59.2 -81.55 L52.0 -86.05 Q48.85 -87.85 46.2 -90.85 44.95 -92.2 43.45 -94.35 M-50.4 -136.65 Q-47.35 -134.05 -43.35 -132.6 -38.85 -131.0 -30.5 -130.6 L-29.35 -129.3 -36.05 -129.0 -42.6 -128.7 Q-48.95 -129.1 -50.4 -136.65 M-52.15 -71.45 Q-44.9 -72.45 -36.9 -77.8 -33.25 -80.15 -21.05 -90.5 -22.95 -86.35 -24.4 -84.1 -26.5 -80.7 -29.2 -78.25 L-35.45 -72.4 Q-41.7 -67.45 -47.65 -66.95 -49.6 -66.75 -52.15 -71.45" fill="#c9c968" fill-rule="evenodd" stroke="none"/>
      <path d="M3.95 -83.75 L4.05 -83.8 4.25 -83.75 3.95 -83.75 M5.8 -83.6 L5.85 -83.65 5.95 -83.6 5.8 -83.6 M9.85 -83.6 L10.15 -83.9 10.3 -83.95 10.95 -83.95 11.2 -83.95 11.45 -84.05 Q12.2 -84.1 12.8 -84.6 L12.95 -84.5 13.85 -83.95 9.85 -83.6 M18.2 -85.1 L18.75 -85.65 18.8 -85.5 19.0 -85.4 18.2 -85.1 M61.35 -151.4 L60.65 -150.35 Q57.7 -145.8 54.85 -143.5 52.75 -141.65 47.8 -139.75 45.25 -138.75 43.45 -137.7 48.3 -146.4 52.15 -151.9 59.5 -161.85 61.35 -151.4 M27.45 -136.4 Q28.9 -135.85 30.2 -134.05 32.1 -131.7 32.45 -129.45 L32.45 -129.1 Q32.75 -125.65 32.25 -123.15 31.55 -123.45 28.2 -125.95 25.7 -127.85 23.6 -128.35 L23.6 -129.45 Q23.15 -131.35 23.15 -132.3 23.1 -134.9 25.9 -136.8 L26.15 -136.7 27.45 -136.4 M43.45 -94.35 L41.45 -97.1 41.1 -97.45 Q49.55 -95.8 59.6 -91.95 66.45 -89.3 71.2 -89.85 75.35 -90.2 76.35 -90.7 L76.5 -90.35 76.65 -89.15 76.8 -89.0 76.0 -84.95 Q65.7 -84.1 56.8 -87.3 50.85 -89.45 43.45 -94.35 M21.35 -87.8 L21.65 -87.0 21.35 -86.55 21.4 -86.5 20.65 -86.1 20.35 -86.1 19.15 -86.25 Q19.5 -87.1 19.65 -88.3 L19.65 -92.2 19.9 -92.6 Q20.9 -91.5 21.35 -87.8 M9.05 -84.8 Q8.9 -84.45 8.55 -84.45 L6.4 -84.65 Q6.85 -85.95 6.95 -88.9 L8.4 -86.05 9.05 -84.8 M1.0 -90.75 L1.35 -90.45 Q1.45 -88.3 2.15 -86.7 2.6 -85.5 3.2 -84.65 L3.1 -84.75 Q2.9 -84.45 2.35 -84.45 1.6 -84.45 0.75 -85.05 L0.55 -85.35 0.55 -85.9 Q0.45 -89.55 1.0 -90.75 M14.95 -85.05 Q14.1 -85.05 13.5 -85.35 L13.35 -85.4 13.8 -86.5 Q14.1 -89.1 14.5 -89.6 15.25 -86.5 16.0 -85.35 15.75 -85.05 14.95 -85.05 M-50.4 -136.65 L-50.6 -138.4 Q-51.9 -152.2 -41.9 -142.8 L-39.8 -140.75 Q-35.65 -136.7 -30.5 -130.6 -38.85 -131.0 -43.35 -132.6 -47.35 -134.05 -50.4 -136.65 M-14.65 -132.35 L-13.2 -133.0 -13.05 -133.0 Q-10.05 -131.6 -9.7 -129.15 L-9.55 -126.35 -9.3 -125.2 Q-11.15 -124.35 -13.5 -122.0 -16.25 -118.95 -17.0 -118.5 -17.85 -120.4 -18.15 -123.15 L-18.3 -124.2 Q-18.5 -126.55 -16.9 -129.45 -15.95 -131.45 -14.65 -132.35 M-52.15 -71.45 L-52.2 -71.7 Q-53.65 -74.8 -54.1 -76.45 L-54.05 -76.5 -54.05 -77.65 -54.05 -77.7 -53.6 -78.2 -53.5 -78.2 -48.65 -78.35 Q-44.0 -78.85 -37.8 -82.75 -28.65 -88.25 -20.65 -91.5 L-20.9 -91.15 -20.9 -91.05 -21.05 -90.5 Q-33.25 -80.15 -36.9 -77.8 -44.9 -72.45 -52.15 -71.45" fill="#eded86" fill-rule="evenodd" stroke="none"/>
      <path d="M22.85 -144.95 L21.35 -145.3 Q19.2 -146.4 16.4 -146.1 15.0 -146.0 14.25 -145.15 15.95 -143.85 20.65 -143.25 L27.05 -142.8 27.05 -142.75 27.05 -141.45 27.65 -139.6 28.1 -137.7 27.35 -137.6 27.95 -138.1 26.85 -137.8 25.4 -137.15 24.75 -137.55 21.2 -138.1 Q19.45 -137.95 18.0 -136.8 L17.55 -136.4 17.85 -137.1 Q18.8 -138.85 22.25 -139.6 19.95 -141.95 17.75 -139.75 15.75 -137.6 16.0 -134.95 L16.0 -134.75 15.85 -134.5 Q11.95 -136.1 7.75 -135.7 5.4 -135.5 3.3 -134.65 L-0.55 -133.8 Q-1.9 -133.65 -4.55 -134.6 L-4.95 -134.65 Q-5.7 -136.1 -6.15 -136.5 -7.1 -137.25 -9.15 -137.45 -11.3 -137.8 -11.9 -136.35 L-11.5 -136.2 Q-9.45 -136.7 -8.45 -135.95 L-7.7 -135.4 -7.85 -135.4 Q-9.05 -135.25 -12.35 -133.35 L-14.1 -133.75 -15.55 -133.9 -14.85 -133.6 -15.7 -133.5 -15.45 -135.4 -15.25 -137.4 -15.55 -138.7 -15.45 -138.75 Q-13.05 -139.05 -9.4 -140.45 -4.9 -141.9 -3.45 -143.5 -4.1 -144.1 -5.55 -143.95 -8.4 -143.7 -10.35 -142.25 -11.2 -141.65 -12.95 -141.2 -13.5 -141.75 -13.4 -142.35 -13.5 -142.9 -13.05 -143.8 -12.6 -144.65 -11.95 -144.85 L-12.25 -144.4 Q-12.2 -142.9 -11.35 -144.05 -10.0 -144.25 -8.75 -145.4 -6.65 -146.4 -1.35 -146.9 L0.05 -146.85 0.7 -146.7 1.6 -146.3 1.5 -147.15 2.3 -147.85 Q3.75 -148.9 5.1 -149.05 6.65 -149.15 7.7 -148.3 L8.75 -147.55 8.85 -147.05 9.35 -147.45 10.0 -147.7 11.75 -148.15 Q17.0 -148.7 19.2 -148.05 20.75 -147.25 22.0 -147.25 22.55 -146.75 22.85 -147.0 L23.15 -145.8 Q23.1 -145.15 22.85 -144.95" fill="#b8c2ac" fill-rule="evenodd" stroke="none"/>
      <path d="M25.4 -137.15 L24.15 -136.5 Q21.7 -135.05 21.35 -133.2 L21.65 -129.7 15.4 -130.25 Q13.05 -130.55 10.65 -129.45 L9.3 -129.3 4.9 -128.55 4.1 -128.5 -1.6 -128.65 Q-5.35 -127.4 -7.7 -126.9 L-8.0 -130.4 Q-8.75 -132.05 -11.45 -133.05 L-12.35 -133.35 Q-9.05 -135.25 -7.85 -135.4 L-7.7 -135.4 -6.95 -134.4 Q-6.55 -134.05 -5.8 -132.5 -5.1 -131.05 -4.55 -131.05 -3.75 -131.15 -3.8 -132.2 L-4.65 -134.2 -4.95 -134.65 -4.55 -134.6 Q-1.9 -133.65 -0.55 -133.8 L3.3 -134.65 Q5.4 -135.5 7.75 -135.7 11.95 -136.1 15.85 -134.5 L16.0 -134.75 Q16.25 -133.5 17.05 -133.15 L17.7 -133.45 Q17.3 -135.2 17.55 -136.4 L18.0 -136.8 Q19.45 -137.95 21.2 -138.1 L24.75 -137.55 25.4 -137.15" fill="#8b9483" fill-rule="evenodd" stroke="none"/>
      <path d="M-11.3 -97.15 L-12.2 -106.15 Q-12.4 -108.0 -11.45 -110.85 L-9.6 -115.75 -9.75 -115.65 -9.6 -116.3 -9.7 -118.25 -10.0 -120.4 -10.2 -121.4 -10.3 -121.45 -10.15 -121.55 -7.8 -124.0 -7.45 -124.35 -7.45 -124.6 Q-1.3 -124.6 -0.75 -126.05 L-0.9 -126.55 0.9 -126.5 2.65 -126.2 4.5 -126.1 9.45 -126.8 Q11.65 -127.4 12.65 -128.65 L12.55 -128.8 13.35 -129.1 Q14.4 -129.15 14.7 -128.7 L15.1 -127.65 Q15.7 -126.25 21.85 -127.4 L21.85 -127.2 Q22.0 -126.95 22.35 -126.9 L24.9 -125.15 Q24.6 -124.65 24.25 -123.6 23.7 -121.9 23.7 -121.45 23.95 -119.95 24.55 -118.65 25.45 -116.65 27.15 -116.65 L28.35 -114.75 Q29.95 -112.1 30.1 -110.2 L31.0 -98.15 Q30.85 -93.9 29.85 -91.35 30.1 -93.1 29.95 -94.5 29.05 -104.7 21.95 -110.2 15.1 -115.65 4.55 -114.75 -3.45 -114.0 -8.15 -105.55 -10.5 -101.25 -11.3 -97.15" fill="#33110b" fill-rule="evenodd" stroke="none"/>
      <path d="M51.0 -97.75 Q46.5 -99.45 43.75 -99.8 L42.35 -100.6 Q40.85 -101.4 37.4 -101.5 L36.8 -101.5 35.75 -108.45 35.2 -108.35 35.15 -106.75 33.7 -109.9 32.1 -113.0 28.6 -116.6 Q27.6 -118.25 26.45 -118.8 L26.2 -119.1 25.85 -119.5 Q25.05 -120.25 24.85 -122.0 24.85 -122.7 25.15 -123.85 L25.3 -124.9 26.0 -124.45 Q29.85 -122.1 30.4 -119.95 30.4 -119.65 31.85 -119.7 34.05 -120.0 34.7 -122.85 L34.7 -125.6 34.75 -125.95 34.6 -127.05 37.7 -123.45 Q40.7 -119.7 42.15 -116.8 L47.7 -105.7 Q50.05 -100.8 51.0 -97.75 M-16.6 -102.5 L-16.9 -103.5 -17.55 -103.35 -17.15 -95.95 Q-19.2 -95.4 -21.85 -94.05 -22.25 -93.8 -22.55 -93.65 -26.05 -92.8 -33.3 -88.15 -32.4 -91.05 -30.2 -95.5 -25.45 -104.45 -24.75 -106.2 -23.0 -110.35 -19.8 -118.9 L-19.6 -119.55 -19.05 -117.75 Q-18.05 -114.9 -15.95 -115.15 -14.5 -115.3 -14.4 -115.6 -14.35 -117.6 -11.2 -120.65 L-10.8 -119.35 -10.75 -119.2 Q-11.6 -116.0 -14.1 -110.25 -16.15 -105.6 -16.6 -102.5 M42.7 -110.25 L37.5 -116.6 Q42.0 -108.45 46.35 -103.85 46.7 -103.2 46.65 -104.6 L42.7 -110.25 M-20.65 -110.95 Q-21.85 -109.45 -24.7 -103.8 -27.6 -98.15 -27.5 -97.6 -27.35 -96.1 -27.15 -96.75 -23.65 -102.1 -20.65 -110.95" fill="#e06950" fill-rule="evenodd" stroke="none"/>
      <path d="M34.6 -127.55 Q34.5 -132.45 37.05 -137.45 39.95 -143.1 44.9 -146.25 L44.6 -145.8 Q39.7 -137.55 39.95 -135.65 40.1 -133.6 40.4 -133.2 L46.35 -133.0 Q52.15 -133.5 56.1 -135.1 54.4 -132.75 53.65 -129.7 L50.85 -128.1 50.85 -129.1 Q50.7 -131.2 50.0 -131.6 49.1 -129.45 48.85 -127.35 L46.5 -126.4 37.7 -123.45 34.6 -127.05 34.6 -127.55 M-39.1 -120.95 Q-40.55 -123.7 -42.45 -125.6 L-32.55 -125.3 Q-27.65 -125.8 -26.75 -126.8 -26.45 -127.1 -26.7 -129.25 L-27.2 -130.55 Q-27.95 -132.0 -30.05 -134.5 L-28.1 -132.9 Q-22.5 -127.7 -22.25 -121.4 L-33.45 -120.1 -34.2 -120.0 Q-34.75 -121.6 -35.9 -123.35 -36.45 -122.85 -36.3 -120.8 L-36.05 -119.8 -36.35 -119.8 -39.1 -120.95" fill="#d97745" fill-rule="evenodd" stroke="none"/>
      <path d="M43.75 -99.8 L41.7 -99.9 39.0 -99.35 38.95 -98.75 39.0 -97.45 Q39.65 -91.45 50.9 -83.9 45.4 -84.6 37.7 -82.85 L37.95 -86.2 37.4 -97.3 36.8 -101.5 37.4 -101.5 Q40.85 -101.4 42.35 -100.6 L43.75 -99.8 M-17.15 -95.95 L-16.9 -92.1 -15.4 -81.15 -14.5 -77.8 Q-22.5 -77.95 -27.75 -76.35 -18.0 -85.95 -18.6 -91.95 L-18.75 -93.25 -18.9 -93.75 -21.65 -93.8 -22.55 -93.65 Q-22.25 -93.8 -21.85 -94.05 -19.2 -95.4 -17.15 -95.95" fill="#a64936" fill-rule="evenodd" stroke="none"/>
      <path d="M-11.3 -97.15 Q-10.5 -101.25 -8.15 -105.55 -3.45 -114.0 4.55 -114.75 15.1 -115.65 21.95 -110.2 29.05 -104.7 29.95 -94.5 30.1 -93.1 29.85 -91.35 28.5 -87.8 25.45 -87.55 L23.7 -87.8 23.6 -88.1 Q23.3 -90.0 22.4 -92.3 20.75 -96.0 18.8 -95.85 L17.7 -95.5 17.6 -92.35 17.6 -89.0 17.6 -88.7 16.55 -90.85 Q15.55 -92.5 13.7 -92.3 13.1 -92.3 11.6 -89.6 L10.8 -88.1 9.75 -89.4 Q7.85 -91.75 7.25 -91.75 5.4 -91.5 4.7 -89.7 L4.1 -87.3 4.1 -87.65 3.2 -90.9 2.6 -93.95 1.35 -94.2 Q-0.45 -94.05 -1.2 -90.05 -1.85 -87.3 -1.7 -85.35 L-3.45 -84.8 Q-8.6 -84.25 -10.8 -94.2 L-11.3 -97.15" fill="#140604" fill-rule="evenodd" stroke="none"/>
      <path d="M25.4 -75.05 L21.95 -72.7 Q15.6 -67.8 10.0 -67.35 7.15 -66.95 -0.6 -71.0 -3.15 -74.45 -3.15 -79.7 L-2.95 -82.35 Q-0.6 -82.65 0.25 -84.25 L0.3 -84.2 Q1.05 -83.3 2.05 -83.3 L3.45 -83.5 3.95 -83.75 4.25 -83.75 Q4.8 -83.45 5.5 -83.5 L5.8 -83.6 5.95 -83.6 7.75 -83.3 9.85 -83.6 13.85 -83.95 15.1 -83.9 Q16.4 -83.8 16.6 -84.65 L16.7 -84.65 17.0 -84.6 Q17.75 -84.65 18.2 -85.1 L19.0 -85.4 Q19.45 -85.05 20.65 -85.05 22.1 -85.05 22.25 -86.05 23.4 -84.9 25.7 -85.2 L26.0 -85.1 26.15 -84.5 26.3 -80.6 Q26.35 -77.65 25.4 -75.05" fill="#ffdb9e" fill-rule="evenodd" stroke="none"/>
    </g>
  </defs>
</svg>
