<?xml version="1.0" encoding="UTF-8" standalone="no"?>
<svg xmlns:xlink="http://www.w3.org/1999/xlink" height="531.5px" width="460.6px" xmlns="http://www.w3.org/2000/svg">
  <g transform="matrix(1.0, 0.0, 0.0, 1.0, 193.65, 334.05)">
    <use height="149.9" transform="matrix(1.0, 0.0, 0.0, 1.0, -79.25, -229.9)" width="150.35" xlink:href="#shape0"/>
  </g>
  <defs>
    <g id="shape0" transform="matrix(1.0, 0.0, 0.0, 1.0, 79.25, 229.9)">
      <path d="M45.65 -125.0 L-31.5 -126.05 -31.15 -153.0 44.05 -152.6 47.5 -140.8 45.65 -125.0" fill="#999999" fill-rule="evenodd" stroke="none"/>
      <path d="M24.2 -132.1 Q22.25 -129.4 19.55 -129.4 16.65 -129.4 14.5 -132.65 L14.2 -133.25 M13.85 -147.1 L14.5 -148.3 Q16.65 -151.55 19.55 -151.55 22.5 -151.55 24.6 -148.3 L25.1 -147.5" fill="none" stroke="#000000" stroke-linecap="round" stroke-linejoin="round" stroke-opacity="0.4" stroke-width="0.5"/>
      <path d="M21.95 -137.5 Q21.1 -136.2 19.9 -136.2 18.75 -136.2 17.95 -137.5 17.05 -138.8 17.05 -140.65 17.05 -142.45 17.95 -143.75 18.75 -145.05 19.9 -145.05 21.1 -145.05 21.95 -143.75 22.85 -142.45 22.85 -140.65 22.85 -138.8 21.95 -137.5" fill="#1c1c1c" fill-rule="evenodd" stroke="none"/>
      <path d="M21.95 -137.5 Q21.1 -136.2 19.9 -136.2 18.75 -136.2 17.95 -137.5 17.05 -138.8 17.05 -140.65 17.05 -142.45 17.95 -143.75 18.75 -145.05 19.9 -145.05 21.1 -145.05 21.95 -143.75 22.85 -142.45 22.85 -140.65 22.85 -138.8 21.95 -137.5 Z" fill="none" stroke="#000000" stroke-linecap="round" stroke-linejoin="round" stroke-opacity="0.4" stroke-width="0.5"/>
      <path d="M-37.5 -153.15 Q-29.75 -151.1 -27.4 -145.5 -31.15 -140.25 -38.7 -141.3 L-39.6 -141.5 Q-45.05 -142.95 -49.2 -148.1 -52.4 -145.55 -56.2 -144.35 -54.25 -150.05 -54.1 -156.3 -50.85 -153.45 -48.9 -149.8 -44.35 -152.8 -38.7 -153.05 L-37.5 -153.15 M-33.25 -147.9 Q-33.25 -148.65 -33.5 -149.2 -33.75 -149.7 -34.15 -149.7 L-34.8 -149.2 -35.05 -147.9 -34.8 -146.7 Q-34.55 -146.15 -34.15 -146.15 -33.75 -146.15 -33.5 -146.7 -33.25 -147.2 -33.25 -147.9" fill="#cc0000" fill-rule="evenodd" stroke="none"/>
      <path d="M-33.25 -147.9 Q-33.25 -147.2 -33.5 -146.7 -33.75 -146.15 -34.15 -146.15 -34.55 -146.15 -34.8 -146.7 L-35.05 -147.9 -34.8 -149.2 -34.15 -149.7 Q-33.75 -149.7 -33.5 -149.2 -33.25 -148.65 -33.25 -147.9" fill="#333333" fill-rule="evenodd" stroke="none"/>
      <path d="M-37.5 -153.15 Q-29.75 -151.1 -27.4 -145.5 -31.15 -140.25 -38.7 -141.3 L-39.6 -141.5 Q-45.05 -142.95 -49.2 -148.1 -52.4 -145.55 -56.2 -144.35 -54.25 -150.05 -54.1 -156.3 -50.85 -153.45 -48.9 -149.8 -44.35 -152.8 -38.7 -153.05 L-37.5 -153.15 M-33.25 -147.9 Q-33.25 -147.2 -33.5 -146.7 -33.75 -146.15 -34.15 -146.15 -34.55 -146.15 -34.8 -146.7 L-35.05 -147.9 -34.8 -149.2 -34.15 -149.7 Q-33.75 -149.7 -33.5 -149.2 -33.25 -148.65 -33.25 -147.9" fill="none" stroke="#000000" stroke-linecap="round" stroke-linejoin="round" stroke-opacity="0.4" stroke-width="0.5"/>
      <path d="M43.95 -105.5 L29.3 -104.55 20.95 -103.5 Q17.4 -104.55 13.55 -106.0 17.4 -104.55 20.95 -103.5 14.4 -102.45 9.9 -100.8 -0.6 -96.9 -16.15 -93.3 L-27.5 -91.25 -28.65 -91.45 Q-39.95 -95.5 -49.25 -103.55 L-50.15 -104.4 Q-10.0 -116.2 8.75 -107.95 11.2 -106.9 13.55 -106.0 32.95 -105.6 49.75 -111.7 47.1 -108.55 43.95 -105.5" fill="#f5b83d" fill-rule="evenodd" stroke="none"/>
      <path d="M20.95 -103.5 L29.3 -104.55 43.95 -105.5 41.75 -103.55 39.4 -101.55 Q34.35 -97.6 28.8 -94.75 25.15 -92.8 21.2 -91.45 -1.25 -87.45 -27.5 -91.25 L-16.15 -93.3 Q-0.6 -96.9 9.9 -100.8 14.4 -102.45 20.95 -103.5 L26.25 -102.2 20.95 -103.5" fill="#e3a238" fill-rule="evenodd" stroke="none"/>
      <path d="M49.75 -111.7 Q32.95 -105.6 13.55 -106.0 17.4 -104.55 20.95 -103.5 L26.25 -102.2 M13.55 -106.0 Q11.2 -106.9 8.75 -107.95 -10.0 -116.2 -50.15 -104.4" fill="none" stroke="#000000" stroke-linecap="round" stroke-linejoin="round" stroke-opacity="0.4" stroke-width="1.0"/>
      <path d="M26.1 -220.0 L26.1 -144.3 Q25.95 -141.1 23.15 -139.6 21.45 -138.6 19.2 -138.6 17.45 -141.3 19.2 -143.95 L19.45 -144.05 20.15 -144.3 Q20.8 -144.55 21.65 -145.7 L21.65 -221.35 Q22.05 -225.75 25.3 -227.8 28.55 -229.9 33.2 -228.95 33.7 -226.35 33.05 -223.3 27.35 -223.55 26.1 -220.0" fill="#ffffff" fill-rule="evenodd" stroke="none"/>
      <path d="M26.1 -220.0 L26.1 -144.3 Q25.95 -141.1 23.15 -139.6 21.45 -138.6 19.2 -138.6 17.45 -141.3 19.2 -143.95 L19.45 -144.05 20.15 -144.3 Q20.8 -144.55 21.65 -145.7 L21.65 -221.35 Q22.05 -225.75 25.3 -227.8 28.55 -229.9 33.2 -228.95 33.7 -226.35 33.05 -223.3 27.35 -223.55 26.1 -220.0 Z" fill="none" stroke="#000000" stroke-linecap="round" stroke-linejoin="round" stroke-opacity="0.4" stroke-width="0.5"/>
      <path d="M33.6 -224.85 Q33.45 -223.95 33.2 -223.95 32.95 -223.95 32.7 -224.85 32.55 -225.65 32.55 -226.8 32.55 -227.95 32.7 -228.85 32.95 -229.65 33.2 -229.65 33.45 -229.65 33.6 -228.85 L33.85 -226.8 33.6 -224.85 Z" fill="none" stroke="#000000" stroke-linecap="round" stroke-linejoin="round" stroke-opacity="0.4" stroke-width="0.5"/>
      <path d="M-34.4 -104.4 L-35.25 -104.15 -38.05 -103.45 -42.2 -130.55 -38.5 -131.1 -34.4 -104.4" fill="#b8906c" fill-rule="evenodd" stroke="none"/>
      <path d="M-38.05 -103.45 L-42.2 -130.55 -38.5 -131.1 -34.4 -104.4" fill="none" stroke="#000000" stroke-linecap="round" stroke-linejoin="round" stroke-opacity="0.4" stroke-width="0.5"/>
      <path d="M-27.2 -114.6 L-49.7 -111.15 -52.2 -127.6 -29.7 -131.05 -27.2 -114.6" fill="#b8906c" fill-rule="evenodd" stroke="none"/>
      <path d="M-27.2 -114.6 L-49.7 -111.15 -52.2 -127.6 -29.7 -131.05 -27.2 -114.6 Z" fill="none" stroke="#000000" stroke-linecap="round" stroke-linejoin="round" stroke-opacity="0.4" stroke-width="0.5"/>
      <path d="M23.6 -116.6 Q18.7 -115.3 17.2 -111.75 19.55 -108.4 24.4 -109.1 L24.95 -109.2 Q28.4 -110.1 31.05 -113.4 33.1 -111.8 35.5 -111.0 34.25 -114.65 34.15 -118.6 32.1 -116.8 30.85 -114.45 27.95 -116.4 24.4 -116.55 L23.6 -116.6 M20.9 -113.3 L21.05 -114.1 Q21.25 -114.4 21.5 -114.4 L21.9 -114.1 22.05 -113.3 21.9 -112.5 21.5 -112.15 Q21.25 -112.15 21.05 -112.5 20.9 -112.8 20.9 -113.3" fill="#cc0000" fill-rule="evenodd" stroke="none"/>
      <path d="M20.9 -113.3 Q20.9 -112.8 21.05 -112.5 21.25 -112.15 21.5 -112.15 L21.9 -112.5 22.05 -113.3 21.9 -114.1 21.5 -114.4 Q21.25 -114.4 21.05 -114.1 L20.9 -113.3" fill="#333333" fill-rule="evenodd" stroke="none"/>
      <path d="M23.6 -116.6 Q18.7 -115.3 17.2 -111.75 19.55 -108.4 24.4 -109.1 L24.95 -109.2 Q28.4 -110.1 31.05 -113.4 33.1 -111.8 35.5 -111.0 34.25 -114.65 34.15 -118.6 32.1 -116.8 30.85 -114.45 27.95 -116.4 24.4 -116.55 L23.6 -116.6 M20.9 -113.3 Q20.9 -112.8 21.05 -112.5 21.25 -112.15 21.5 -112.15 L21.9 -112.5 22.05 -113.3 21.9 -114.1 21.5 -114.4 Q21.25 -114.4 21.05 -114.1 L20.9 -113.3" fill="none" stroke="#000000" stroke-linecap="round" stroke-linejoin="round" stroke-opacity="0.4" stroke-width="0.5"/>
      <path d="M-51.55 -192.05 L-52.5 -192.75 Q-55.7 -196.2 -55.6 -200.0 -55.7 -204.65 -52.5 -206.8 -49.35 -209.3 -44.85 -208.9 -6.3 -206.35 31.9 -208.75 L36.3 -209.05 Q40.7 -209.55 44.05 -206.85 47.3 -204.4 47.3 -200.0 47.3 -196.2 44.05 -192.85 L43.15 -192.2 Q40.3 -190.5 31.9 -189.0 L18.45 -187.25 Q-3.8 -184.95 -26.5 -187.25 -46.8 -189.25 -51.55 -192.05 -46.8 -189.25 -26.5 -187.25 -3.8 -184.95 18.45 -187.25 L31.9 -189.0 Q40.3 -190.5 43.15 -192.2 L48.75 -187.8 53.4 -183.4 Q70.6 -165.95 70.6 -142.35 70.6 -139.1 70.25 -135.9 69.6 -129.4 67.5 -123.35 64.3 -114.15 57.9 -106.2 53.95 -101.3 48.75 -96.8 41.65 -90.7 33.7 -86.6 30.0 -84.75 26.2 -83.3 L24.9 -82.8 Q-1.85 -78.15 -32.95 -82.8 L-34.25 -83.3 Q-46.65 -87.95 -56.9 -96.8 -77.9 -114.9 -78.65 -140.3 L-78.75 -142.35 Q-78.75 -169.0 -56.9 -187.8 L-51.55 -192.05 M46.55 -178.25 L46.15 -178.7 Q44.2 -179.25 34.0 -176.3 L31.95 -176.25 31.9 -176.25 -3.65 -175.85 -21.05 -175.75 -39.3 -177.95 Q-50.45 -179.5 -53.4 -178.85 -53.9 -178.85 -53.9 -178.45 L-53.95 -178.35 -54.3 -177.95 Q-68.05 -163.1 -68.05 -143.25 L-68.0 -140.3 Q-66.9 -119.45 -50.15 -104.4 L-49.25 -103.55 Q-39.95 -95.5 -28.65 -91.45 L-27.5 -91.25 Q-1.25 -87.45 21.2 -91.45 25.15 -92.8 28.8 -94.75 34.35 -97.6 39.4 -101.55 L41.75 -103.55 43.95 -105.5 Q47.1 -108.55 49.75 -111.7 54.15 -117.25 56.75 -123.35 59.25 -129.3 60.15 -135.9 60.65 -139.5 60.65 -143.25 60.65 -163.3 46.55 -178.25" fill="#b2e6ff" fill-opacity="0.5019608" fill-rule="evenodd" stroke="none"/>
      <path d="M46.15 -178.7 L46.55 -178.25 Q46.4 -176.65 34.0 -176.3 L32.4 -175.85 31.9 -175.65 Q17.9 -171.75 -3.0 -173.85 L-21.05 -175.75 -39.45 -176.05 Q-53.1 -176.55 -54.3 -177.95 L-53.95 -178.35 -53.9 -178.45 -53.65 -178.7 -53.4 -178.85 Q-50.45 -179.5 -39.3 -177.95 L-21.05 -175.75 -3.65 -175.85 31.9 -176.25 31.95 -176.25 34.0 -176.3 Q44.2 -179.25 46.15 -178.7" fill="#134b6b" fill-opacity="0.4" fill-rule="evenodd" stroke="none"/>
      <path d="M46.55 -178.25 Q60.65 -163.3 60.65 -143.25 60.65 -139.5 60.15 -135.9 59.25 -129.3 56.75 -123.35 54.15 -117.25 49.75 -111.7 47.1 -108.55 43.95 -105.5 L41.75 -103.55 39.4 -101.55 Q34.35 -97.6 28.8 -94.75 25.15 -92.8 21.2 -91.45 -1.25 -87.45 -27.5 -91.25 L-28.65 -91.45 Q-39.95 -95.5 -49.25 -103.55 L-50.15 -104.4 Q-66.9 -119.45 -68.0 -140.3 L-68.05 -143.25 Q-68.05 -163.1 -54.3 -177.95 -53.1 -176.55 -39.45 -176.05 L-21.05 -175.75 -3.0 -173.85 Q17.9 -171.75 31.9 -175.65 L32.4 -175.85 34.0 -176.3 Q46.4 -176.65 46.55 -178.25" fill="#2c6e8f" fill-opacity="0.4" fill-rule="evenodd" stroke="none"/>
      <path d="M43.15 -192.2 L44.05 -192.85 Q47.3 -196.2 47.3 -200.0 47.3 -204.4 44.05 -206.85 40.7 -209.55 36.3 -209.05 L31.9 -208.75 Q-6.3 -206.35 -44.85 -208.9 -49.35 -209.3 -52.5 -206.8 -55.7 -204.65 -55.6 -200.0 -55.7 -196.2 -52.5 -192.75 L-51.55 -192.05 Q-46.8 -189.25 -26.5 -187.25 -3.8 -184.95 18.45 -187.25 L31.9 -189.0 Q40.3 -190.5 43.15 -192.2 L48.75 -187.8 53.4 -183.4 Q70.6 -165.95 70.6 -142.35 70.6 -139.1 70.25 -135.9 69.6 -129.4 67.5 -123.35 64.3 -114.15 57.9 -106.2 53.95 -101.3 48.75 -96.8 41.65 -90.7 33.7 -86.6 30.0 -84.75 26.2 -83.3 L24.9 -82.8 Q-1.85 -78.15 -32.95 -82.8 L-34.25 -83.3 Q-46.65 -87.95 -56.9 -96.8 -77.9 -114.9 -78.65 -140.3 L-78.75 -142.35 Q-78.75 -169.0 -56.9 -187.8 L-51.55 -192.05" fill="none" stroke="#000000" stroke-linecap="round" stroke-linejoin="round" stroke-opacity="0.4" stroke-width="1.0"/>
      <path d="M46.15 -178.7 L46.55 -178.25 Q60.65 -163.3 60.65 -143.25 60.65 -139.5 60.15 -135.9 59.25 -129.3 56.75 -123.35 54.15 -117.25 49.75 -111.7 47.1 -108.55 43.95 -105.5 L41.75 -103.55 39.4 -101.55 Q34.35 -97.6 28.8 -94.75 25.15 -92.8 21.2 -91.45 -1.25 -87.45 -27.5 -91.25 L-28.65 -91.45 Q-39.95 -95.5 -49.25 -103.55 L-50.15 -104.4 Q-66.9 -119.45 -68.0 -140.3 L-68.05 -143.25 Q-68.05 -163.1 -54.3 -177.95 L-53.95 -178.35 -53.9 -178.45 -53.65 -178.7 -53.4 -178.85" fill="none" stroke="#000000" stroke-linecap="round" stroke-linejoin="round" stroke-opacity="0.2" stroke-width="1.0"/>
      <path d="M-53.9 -178.45 Q-53.9 -178.85 -53.4 -178.85 -50.45 -179.5 -39.3 -177.95 L-21.05 -175.75 -3.65 -175.85 31.9 -176.25 31.95 -176.25 34.0 -176.3 Q44.2 -179.25 46.15 -178.7 M46.55 -178.25 Q46.4 -176.65 34.0 -176.3 L32.4 -175.85 31.9 -175.65 Q17.9 -171.75 -3.0 -173.85 L-21.05 -175.75 -39.45 -176.05 Q-53.1 -176.55 -54.3 -177.95" fill="none" stroke="#000000" stroke-linecap="round" stroke-linejoin="round" stroke-opacity="0.2" stroke-width="0.5"/>
      <path d="M0.9 -148.9 Q-2.65 -148.9 -5.2 -151.4 -7.7 -153.95 -7.7 -157.55 -7.7 -161.1 -5.2 -163.65 -2.65 -166.15 0.9 -166.15 4.5 -166.15 7.05 -163.65 9.55 -161.1 9.55 -157.55 9.55 -153.95 7.05 -151.4 4.5 -148.9 0.9 -148.9" fill="#ffffff" fill-opacity="0.2509804" fill-rule="evenodd" stroke="none"/>
      <path d="M42.2 -142.15 Q39.7 -142.15 37.95 -143.9 36.15 -145.65 36.15 -148.15 36.15 -150.65 37.95 -152.45 39.7 -154.2 42.2 -154.2 44.7 -154.2 46.45 -152.45 48.25 -150.65 48.25 -148.15 48.25 -145.65 46.45 -143.9 44.7 -142.15 42.2 -142.15" fill="#ffffff" fill-opacity="0.2509804" fill-rule="evenodd" stroke="none"/>
      <path d="M-22.45 -129.9 Q-23.65 -129.9 -24.5 -130.75 -25.35 -131.6 -25.35 -132.8 -25.35 -134.0 -24.5 -134.85 -23.65 -135.7 -22.45 -135.7 -21.2 -135.7 -20.35 -134.85 -19.55 -134.0 -19.55 -132.8 -19.55 -131.6 -20.35 -130.75 -21.2 -129.9 -22.45 -129.9" fill="#ffffff" fill-opacity="0.2509804" fill-rule="evenodd" stroke="none"/>
      <path d="M28.3 -113.45 Q27.1 -113.45 26.25 -114.3 25.4 -115.15 25.4 -116.35 25.4 -117.55 26.25 -118.4 27.1 -119.25 28.3 -119.25 29.55 -119.25 30.4 -118.4 31.2 -117.55 31.2 -116.35 31.2 -115.15 30.4 -114.3 29.55 -113.45 28.3 -113.45" fill="#ffffff" fill-opacity="0.2509804" fill-rule="evenodd" stroke="none"/>
      <path d="M-28.3 -151.5 Q-29.6 -151.5 -30.5 -152.4 -31.45 -153.3 -31.45 -154.65 -31.45 -155.95 -30.5 -156.85 -29.6 -157.8 -28.3 -157.8 -26.95 -157.8 -26.05 -156.85 -25.1 -155.95 -25.1 -154.65 -25.1 -153.3 -26.05 -152.4 -26.95 -151.5 -28.3 -151.5" fill="#ffffff" fill-opacity="0.2509804" fill-rule="evenodd" stroke="none"/>
      <path d="M-32.7 -159.1 Q-33.35 -159.1 -33.8 -159.55 -34.25 -160.0 -34.25 -160.65 -34.25 -161.25 -33.8 -161.7 -33.35 -162.15 -32.7 -162.15 -32.05 -162.15 -31.6 -161.7 -31.15 -161.25 -31.15 -160.65 -31.15 -160.0 -31.6 -159.55 -32.05 -159.1 -32.7 -159.1" fill="#ffffff" fill-opacity="0.2509804" fill-rule="evenodd" stroke="none"/>
      <path d="M-23.8 -150.25 Q-24.45 -150.25 -24.9 -150.7 -25.35 -151.15 -25.35 -151.8 L-24.9 -152.85 Q-24.45 -153.3 -23.8 -153.3 -23.15 -153.3 -22.7 -152.85 -22.25 -152.4 -22.25 -151.8 -22.25 -151.15 -22.7 -150.7 -23.15 -150.25 -23.8 -150.25" fill="#ffffff" fill-opacity="0.2509804" fill-rule="evenodd" stroke="none"/>
      <path d="M-22.35 -164.95 Q-23.0 -164.95 -23.45 -165.4 -23.9 -165.85 -23.9 -166.5 L-23.45 -167.55 Q-23.0 -168.0 -22.35 -168.0 -21.7 -168.0 -21.25 -167.55 -20.8 -167.1 -20.8 -166.5 -20.8 -165.85 -21.25 -165.4 -21.7 -164.95 -22.35 -164.95" fill="#ffffff" fill-opacity="0.2509804" fill-rule="evenodd" stroke="none"/>
      <path d="M-15.15 -163.7 Q-15.8 -163.7 -16.25 -164.15 -16.7 -164.6 -16.7 -165.25 -16.7 -165.85 -16.25 -166.3 -15.8 -166.75 -15.15 -166.75 -14.5 -166.75 -14.05 -166.3 -13.6 -165.85 -13.6 -165.25 -13.6 -164.6 -14.05 -164.15 -14.5 -163.7 -15.15 -163.7" fill="#ffffff" fill-opacity="0.2509804" fill-rule="evenodd" stroke="none"/>
      <path d="M6.5 -126.45 Q5.85 -126.45 5.4 -126.9 4.95 -127.35 4.95 -128.0 4.95 -128.6 5.4 -129.05 L6.5 -129.5 Q7.15 -129.5 7.6 -129.05 L8.05 -128.0 7.6 -126.9 Q7.15 -126.45 6.5 -126.45" fill="#ffffff" fill-opacity="0.2509804" fill-rule="evenodd" stroke="none"/>
      <path d="M33.8 -160.65 Q33.15 -160.65 32.7 -161.1 32.25 -161.55 32.25 -162.2 32.25 -162.8 32.7 -163.25 33.15 -163.7 33.8 -163.7 L34.9 -163.25 35.35 -162.2 Q35.35 -161.55 34.9 -161.1 34.45 -160.65 33.8 -160.65" fill="#ffffff" fill-opacity="0.2509804" fill-rule="evenodd" stroke="none"/>
      <path d="M14.2 -117.15 Q12.9 -117.15 12.0 -118.05 11.05 -118.95 11.05 -120.3 11.05 -121.6 12.0 -122.5 12.9 -123.45 14.2 -123.45 15.55 -123.45 16.45 -122.5 17.4 -121.6 17.4 -120.3 17.4 -118.95 16.45 -118.05 15.55 -117.15 14.2 -117.15" fill="#ffffff" fill-opacity="0.2509804" fill-rule="evenodd" stroke="none"/>
      <path d="M9.8 -125.05 Q9.15 -125.05 8.7 -125.5 8.25 -125.95 8.25 -126.6 8.25 -127.2 8.7 -127.65 9.15 -128.1 9.8 -128.1 10.45 -128.1 10.9 -127.65 L11.35 -126.6 10.9 -125.5 Q10.45 -125.05 9.8 -125.05" fill="#ffffff" fill-opacity="0.2509804" fill-rule="evenodd" stroke="none"/>
      <path d="M19.15 -116.3 Q18.5 -116.3 18.05 -116.75 17.6 -117.2 17.6 -117.85 17.6 -118.45 18.05 -118.9 18.5 -119.35 19.15 -119.35 L20.25 -118.9 20.7 -117.85 Q20.7 -117.2 20.25 -116.75 19.8 -116.3 19.15 -116.3" fill="#ffffff" fill-opacity="0.2509804" fill-rule="evenodd" stroke="none"/>
      <path d="M20.45 -130.9 Q19.8 -130.9 19.35 -131.35 18.9 -131.8 18.9 -132.45 18.9 -133.05 19.35 -133.5 L20.45 -133.95 Q21.1 -133.95 21.55 -133.5 L22.0 -132.45 21.55 -131.35 Q21.1 -130.9 20.45 -130.9" fill="#ffffff" fill-opacity="0.2509804" fill-rule="evenodd" stroke="none"/>
      <path d="M23.2 -122.15 Q22.55 -122.15 22.1 -122.6 21.65 -123.05 21.65 -123.7 21.65 -124.3 22.1 -124.75 22.55 -125.2 23.2 -125.2 L24.3 -124.75 24.75 -123.7 Q24.75 -123.05 24.3 -122.6 23.85 -122.15 23.2 -122.15" fill="#ffffff" fill-opacity="0.2509804" fill-rule="evenodd" stroke="none"/>
    </g>
  </defs>
</svg>
