<?xml version="1.0" encoding="UTF-8" standalone="no"?>
<svg xmlns:xlink="http://www.w3.org/1999/xlink" height="531.5px" width="460.6px" xmlns="http://www.w3.org/2000/svg">
  <g transform="matrix(1.0, 0.0, 0.0, 1.0, 193.65, 334.05)">
    <use height="166.55" transform="matrix(1.0, 0.0, 0.0, 1.0, -89.85, -236.8)" width="187.95" xlink:href="#shape0"/>
  </g>
  <defs>
    <g id="shape0" transform="matrix(1.0, 0.0, 0.0, 1.0, 89.85, 236.8)">
      <path d="M44.7 -196.25 Q22.05 -221.85 18.65 -225.15 16.5 -227.25 12.8 -227.8 L6.0 -227.95 -15.75 -228.25 Q-33.95 -228.25 -41.2 -221.75 L-57.65 -209.25 Q-65.35 -203.4 -70.5 -198.8 -71.45 -200.8 -71.5 -202.55 L-69.6 -204.85 -66.9 -208.05 Q-55.7 -220.85 -42.3 -230.1 -14.65 -240.4 16.85 -233.55 31.45 -217.45 44.7 -196.25 M-54.45 -197.15 L-52.7 -201.0 -49.45 -204.0 -43.6 -208.75 -35.5 -214.05 -30.25 -216.15 Q-19.9 -219.9 -16.85 -219.9 -14.35 -219.9 -7.8 -217.9 L0.45 -215.3 0.45 -214.65 Q-1.0 -213.9 -9.95 -211.5 -20.3 -208.8 -27.65 -205.95 -45.7 -198.95 -57.95 -187.35 L-56.0 -193.3 -54.45 -197.15" fill="#332824" fill-rule="evenodd" stroke="none"/>
      <path d="M-70.5 -198.8 Q-65.35 -203.4 -57.65 -209.25 L-41.2 -221.75 Q-33.95 -228.25 -15.75 -228.25 L6.0 -227.95 12.8 -227.8 Q16.5 -227.25 18.65 -225.15 22.05 -221.85 44.7 -196.25 L45.55 -194.9 Q37.7 -192.7 30.2 -189.05 17.65 -195.15 3.05 -199.45 -11.05 -192.2 -24.3 -183.65 -34.25 -187.05 -45.15 -189.0 -53.15 -181.45 -60.1 -173.85 -59.95 -177.25 -59.4 -180.65 -58.85 -184.05 -57.95 -187.35 -45.7 -198.95 -27.65 -205.95 -20.3 -208.8 -9.95 -211.5 -1.0 -213.9 0.45 -214.65 L0.45 -215.3 -7.8 -217.9 Q-14.35 -219.9 -16.85 -219.9 -19.9 -219.9 -30.25 -216.15 L-35.5 -214.05 -43.6 -208.75 -49.45 -204.0 -52.7 -201.0 -54.45 -197.15 -68.05 -195.0 Q-69.65 -197.0 -70.5 -198.8" fill="#241b17" fill-rule="evenodd" stroke="none"/>
      <path d="M-66.9 -208.05 L-69.6 -204.85 -73.3 -208.5 -73.75 -204.8 -73.45 -196.75 -83.0 -200.65 -80.7 -194.4 Q-85.3 -197.55 -89.35 -202.35 -84.1 -204.65 -77.75 -205.65 -78.9 -210.25 -77.2 -216.9 -71.45 -212.5 -66.9 -208.05 M-60.1 -173.85 Q-53.15 -181.45 -45.15 -189.0 -34.25 -187.05 -24.3 -183.65 -11.05 -192.2 3.05 -199.45 17.65 -195.15 30.2 -189.05 37.7 -192.7 45.55 -194.9 L45.85 -195.0 49.35 -196.0 53.95 -190.7 58.0 -184.8 Q62.3 -183.35 65.15 -180.05 L65.15 -179.95 62.3 -180.65 Q54.9 -182.5 48.05 -185.15 L44.8 -186.5 32.85 -181.05 Q31.05 -181.05 22.6 -186.15 14.15 -191.2 10.0 -191.2 6.15 -191.2 -7.8 -184.3 L-21.3 -177.35 Q-34.8 -180.75 -37.05 -180.75 -39.9 -180.75 -45.6 -177.1 L-53.85 -171.15 Q-56.8 -169.1 -62.8 -168.8 L-68.1 -168.8 -69.45 -168.8 -70.05 -169.8 Q-65.55 -171.4 -61.7 -172.15 L-60.1 -173.85" fill="#695f5c" fill-rule="evenodd" stroke="none"/>
      <path d="M-69.6 -204.85 L-71.5 -202.55 Q-71.45 -200.8 -70.5 -198.8 -69.65 -197.0 -68.05 -195.0 L-54.45 -197.15 -56.0 -193.3 -59.0 -193.3 -57.95 -187.35 Q-58.85 -184.05 -59.4 -180.65 L-62.65 -182.45 Q-65.1 -184.05 -66.95 -186.15 -71.6 -181.75 -78.55 -180.2 -79.4 -185.8 -78.75 -191.45 L-78.55 -193.05 Q-79.7 -193.7 -80.7 -194.4 L-83.0 -200.65 -73.45 -196.75 -73.75 -204.8 -73.3 -208.5 -69.6 -204.85 M-69.45 -168.8 L-68.1 -168.8 -62.8 -168.8 Q-56.8 -169.1 -53.85 -171.15 L-45.6 -177.1 Q-39.9 -180.75 -37.05 -180.75 -34.8 -180.75 -21.3 -177.35 L-7.8 -184.3 Q6.15 -191.2 10.0 -191.2 14.15 -191.2 22.6 -186.15 31.05 -181.05 32.85 -181.05 L44.8 -186.5 48.05 -185.15 Q54.9 -182.5 62.3 -180.65 L65.15 -179.95 Q62.3 -176.05 58.35 -173.4 59.75 -168.85 58.35 -163.75 53.05 -163.9 47.95 -166.45 42.45 -164.05 36.0 -163.6 27.65 -165.85 20.4 -169.95 8.4 -162.7 -5.8 -157.85 -18.9 -158.45 -31.1 -162.2 -41.6 -154.95 -54.25 -149.9 L-54.25 -155.3 Q-60.25 -152.65 -66.8 -151.45 -66.55 -157.5 -64.25 -162.45 -67.05 -164.9 -69.45 -168.8" fill="#473e3a" fill-rule="evenodd" stroke="none"/>
      <path d="M11.45 -156.2 Q-9.45 -147.5 -25.45 -141.55 L-54.85 -130.05 -60.35 -127.9 -43.0 -138.25 Q-53.6 -137.25 -65.5 -140.15 L9.55 -156.9 11.45 -156.2 M19.65 -154.9 Q20.4 -155.5 22.4 -155.65 L97.6 -134.9 75.8 -137.3 Q64.9 -141.15 54.1 -144.5 31.85 -150.8 19.65 -154.9 M44.0 -119.65 L30.15 -124.2 35.9 -109.55 24.35 -122.65 27.5 -98.5 14.95 -122.65 3.6 -107.1 8.6 -127.9 -18.55 -109.7 -24.7 -107.7 1.3 -135.25 Q16.85 -138.6 25.9 -132.4 L44.0 -119.65" fill="#666666" fill-rule="evenodd" stroke="none"/>
      <path d="M11.45 -156.2 Q12.1 -156.0 12.45 -155.6 13.5 -154.8 12.45 -152.8 -21.9 -132.15 -59.8 -112.5 L-47.0 -126.75 -71.5 -121.25 -60.35 -127.9 -54.85 -130.05 -25.45 -141.55 Q-9.45 -147.5 11.45 -156.2 M19.65 -154.9 Q31.85 -150.8 54.1 -144.5 64.9 -141.15 75.8 -137.3 L74.0 -137.55 92.45 -124.2 68.25 -131.75 78.9 -120.25 18.95 -153.65 Q18.95 -154.45 19.65 -154.9 M-18.55 -109.7 L8.6 -127.9 3.6 -107.1 14.95 -122.65 27.5 -98.5 24.35 -122.65 35.9 -109.55 30.15 -124.2 44.0 -119.65 53.75 -112.95 36.15 -116.1 54.5 -89.9 31.15 -105.3 31.15 -70.75 15.15 -106.4 -9.5 -77.3 -1.85 -115.0 -18.55 -109.7" fill="#525252" fill-rule="evenodd" stroke="none"/>
      <path d="M44.7 -196.25 Q31.45 -217.45 16.85 -233.55 -14.65 -240.4 -42.3 -230.1 -55.7 -220.85 -66.9 -208.05 L-69.6 -204.85 -71.5 -202.55 Q-71.45 -200.8 -70.5 -198.8 -69.65 -197.0 -68.05 -195.0 L-54.45 -197.15 -52.7 -201.0 -49.45 -204.0 -43.6 -208.75 -35.5 -214.05 M-57.95 -187.35 Q-58.85 -184.05 -59.4 -180.65 -59.95 -177.25 -60.1 -173.85 -53.15 -181.45 -45.15 -189.0 -34.25 -187.05 -24.3 -183.65 -11.05 -192.2 3.05 -199.45 17.65 -195.15 30.2 -189.05 37.7 -192.7 45.55 -194.9 L44.7 -196.25 M65.15 -179.95 L65.15 -180.05 Q62.3 -183.35 58.0 -184.8 L53.95 -190.7 49.35 -196.0 45.85 -195.0 45.55 -194.9 M65.15 -179.95 Q62.3 -176.05 58.35 -173.4 59.75 -168.85 58.35 -163.75 53.05 -163.9 47.95 -166.45 42.45 -164.05 36.0 -163.6 27.65 -165.85 20.4 -169.95 8.4 -162.7 -5.8 -157.85 -18.9 -158.45 -31.1 -162.2 -41.6 -154.95 -54.25 -149.9 L-54.25 -155.3 Q-60.25 -152.65 -66.8 -151.45 -66.55 -157.5 -64.25 -162.45 -67.05 -164.9 -69.45 -168.8 L-70.05 -169.8 Q-65.55 -171.4 -61.7 -172.15 L-60.1 -173.85 M-60.35 -127.9 L-71.5 -121.25 -47.0 -126.75 -59.8 -112.5 Q-21.9 -132.15 12.45 -152.8 13.5 -154.8 12.45 -155.6 12.1 -156.0 11.45 -156.2 L9.55 -156.9 -65.5 -140.15 Q-53.6 -137.25 -43.0 -138.25 L-60.35 -127.9 M75.8 -137.3 L97.6 -134.9 22.4 -155.65 Q20.4 -155.5 19.65 -154.9 18.95 -154.45 18.95 -153.65 L78.9 -120.25 68.25 -131.75 92.45 -124.2 74.0 -137.55 75.8 -137.3 M44.0 -119.65 L25.9 -132.4 Q16.85 -138.6 1.3 -135.25 L-24.7 -107.7 -18.55 -109.7 -1.85 -115.0 -9.5 -77.3 15.15 -106.4 31.15 -70.75 31.15 -105.3 54.5 -89.9 36.15 -116.1 53.75 -112.95 44.0 -119.65 M-80.7 -194.4 Q-85.3 -197.55 -89.35 -202.35 -84.1 -204.65 -77.75 -205.65 -78.9 -210.25 -77.2 -216.9 -71.45 -212.5 -66.9 -208.05 M-80.7 -194.4 Q-79.7 -193.7 -78.55 -193.05 L-78.75 -191.45 Q-79.4 -185.8 -78.55 -180.2 -71.6 -181.75 -66.95 -186.15 -65.1 -184.05 -62.65 -182.45 L-59.4 -180.65 M-57.95 -187.35 L-59.0 -193.3 -56.0 -193.3 -54.45 -197.15 M-56.0 -193.3 L-57.95 -187.35" fill="none" stroke="#000000" stroke-linecap="round" stroke-linejoin="round" stroke-opacity="0.4" stroke-width="1.0"/>
      <path d="M47.3 -185.1 Q52.5 -179.55 54.65 -172.3 46.15 -164.55 34.4 -160.6 29.5 -165.55 27.05 -173.4 38.0 -178.65 47.3 -185.1" fill="#1a1a1a" fill-rule="evenodd" stroke="none"/>
      <path d="M47.3 -185.1 Q52.5 -179.55 54.65 -172.3 46.15 -164.55 34.4 -160.6 29.5 -165.55 27.05 -173.4 38.0 -178.65 47.3 -185.1 Z" fill="none" stroke="#000000" stroke-linecap="round" stroke-linejoin="round" stroke-opacity="0.4" stroke-width="1.0"/>
      <path d="M-29.7 -185.05 Q-34.35 -178.75 -35.05 -170.9 -23.2 -163.75 -8.6 -160.9 -4.15 -166.6 -3.25 -175.05 -17.3 -179.35 -29.7 -185.05" fill="#1a1a1a" fill-rule="evenodd" stroke="none"/>
      <path d="M-29.7 -185.05 Q-34.35 -178.75 -35.05 -170.9 -23.2 -163.75 -8.6 -160.9 -4.15 -166.6 -3.25 -175.05 -17.3 -179.35 -29.7 -185.05 Z" fill="none" stroke="#000000" stroke-linecap="round" stroke-linejoin="round" stroke-opacity="0.4" stroke-width="1.0"/>
    </g>
  </defs>
</svg>
