<?xml version="1.0" encoding="UTF-8" standalone="no"?>
<svg xmlns:xlink="http://www.w3.org/1999/xlink" height="531.5px" width="460.6px" xmlns="http://www.w3.org/2000/svg">
  <g transform="matrix(1.0, 0.0, 0.0, 1.0, 193.65, 334.05)">
    <use height="214.75" transform="matrix(1.0, 0.0, 0.0, 1.0, -79.75, -257.3)" width="168.0" xlink:href="#shape0"/>
  </g>
  <defs>
    <g id="shape0" transform="matrix(1.0, 0.0, 0.0, 1.0, 79.75, 257.3)">
      <path d="M41.15 -154.85 L39.65 -151.5 Q48.95 -146.15 57.0 -130.3 65.15 -117.9 75.1 -110.0 L73.5 -109.4 71.65 -109.85 72.2 -109.15 Q68.9 -108.6 65.0 -109.85 L79.1 -88.9 Q63.65 -59.85 43.15 -49.55 L34.0 -58.15 37.45 -44.7 Q32.0 -43.05 25.65 -43.05 L20.55 -43.35 19.0 -43.6 Q7.35 -45.45 -7.05 -54.05 L-11.55 -70.25 -13.65 -62.05 -16.3 -70.25 -19.25 -60.5 -38.35 -78.5 Q-34.0 -101.15 -22.95 -124.9 L-30.75 -122.2 -29.35 -124.9 -36.7 -122.7 Q-25.85 -140.6 -9.95 -145.3 L-12.85 -147.9 -2.85 -146.95 -2.15 -146.85 13.9 -145.55 18.5 -146.0 41.15 -154.85 M71.25 -110.0 L71.65 -109.85 71.25 -110.0 M15.7 -138.2 L15.4 -137.95 Q2.25 -129.95 -14.8 -128.0 2.25 -129.95 15.4 -137.95 L15.7 -138.2 21.0 -141.85 15.7 -138.2 Q19.0 -136.15 25.25 -136.25 L28.55 -136.45 25.25 -136.25 Q19.0 -136.15 15.7 -138.2 M25.4 -115.5 Q22.35 -110.55 14.3 -109.25 22.35 -110.55 25.4 -115.5 M44.9 -129.4 Q32.45 -130.75 25.25 -136.25 32.45 -130.75 44.9 -129.4 M26.35 -112.75 L29.85 -116.45 26.35 -112.75" fill="#ffd94a" fill-rule="evenodd" stroke="none"/>
      <path d="M73.5 -109.4 L75.1 -110.0 Q65.15 -117.9 57.0 -130.3 48.95 -146.15 39.65 -151.5 L41.15 -154.85 44.9 -156.35 42.45 -151.5 Q53.2 -146.15 62.4 -130.3 71.8 -117.9 83.2 -110.0 79.0 -108.3 73.5 -109.4 M-12.85 -147.9 L-9.95 -145.3 Q-25.85 -140.6 -36.7 -122.7 L-47.3 -119.55 Q-34.3 -140.2 -14.5 -145.3 L-18.55 -148.5 -12.85 -147.9 M-30.75 -122.2 L-22.95 -124.9 Q-34.0 -101.15 -38.35 -78.5 L-19.25 -60.5 -20.45 -56.65 -47.15 -78.5 Q-42.35 -99.9 -30.75 -122.2 M-13.65 -62.05 L-11.55 -70.25 -7.05 -54.05 Q7.35 -45.45 19.0 -43.6 5.55 -45.45 -11.15 -54.05 L-13.65 -62.05 M43.15 -49.55 Q63.65 -59.85 79.1 -88.9 L65.0 -109.85 Q68.9 -108.6 72.2 -109.15 L87.75 -88.9 Q69.2 -58.45 44.2 -48.6 L43.15 -49.55" fill="#ffde63" fill-rule="evenodd" stroke="none"/>
      <path d="M41.15 -154.85 L18.5 -146.0 13.9 -145.55 -2.15 -146.85 -2.85 -146.95 -12.85 -147.9 -18.55 -148.5 -14.5 -145.3 Q-34.3 -140.2 -47.3 -119.55 L-36.7 -122.7 -29.35 -124.9 -30.75 -122.2 Q-42.35 -99.9 -47.15 -78.5 L-20.45 -56.65 -19.25 -60.5 -16.3 -70.25 -13.65 -62.05 -11.15 -54.05 Q5.55 -45.45 19.0 -43.6 L20.55 -43.35 25.65 -43.05 Q32.0 -43.05 37.45 -44.7 L34.0 -58.15 43.15 -49.55 44.2 -48.6 Q69.2 -58.45 87.75 -88.9 L72.2 -109.15 71.65 -109.85 71.25 -110.0 M41.15 -154.85 L44.9 -156.35 42.45 -151.5 Q53.2 -146.15 62.4 -130.3 71.8 -117.9 83.2 -110.0 79.0 -108.3 73.5 -109.4 L71.65 -109.85 M-2.85 -146.95 L-2.6 -146.95 -2.15 -146.85 M21.0 -141.85 L15.7 -138.2 Q19.0 -136.15 25.25 -136.25 L28.55 -136.45 M14.3 -109.25 Q22.35 -110.55 25.4 -115.5 M-14.8 -128.0 Q2.25 -129.95 15.4 -137.95 L15.7 -138.2 M29.85 -116.45 L26.35 -112.75 M25.25 -136.25 Q32.45 -130.75 44.9 -129.4" fill="none" stroke="#9e5f0b" stroke-linecap="round" stroke-linejoin="round" stroke-width="1.0"/>
      <path d="M27.85 -224.95 L31.1 -228.95 Q39.4 -243.35 41.15 -256.8 48.0 -249.35 51.2 -233.35 L51.25 -232.95 Q48.6 -231.3 47.85 -231.3 L45.25 -233.35 Q42.65 -235.35 41.7 -235.35 41.15 -235.35 27.85 -224.95 M-74.05 -191.0 L-76.25 -201.35 -63.6 -202.75 -59.35 -199.7 -56.45 -197.55 -55.2 -196.7 Q-55.05 -194.3 -55.3 -192.1 L-60.0 -193.65 -65.45 -195.4 -56.45 -197.55 -65.45 -195.4 -67.65 -195.95 Q-69.2 -195.95 -71.5 -193.65 L-74.05 -191.0 M49.4 -213.6 L38.85 -223.85 Q42.5 -225.1 46.5 -226.7 49.0 -222.15 49.4 -213.6" fill="#d6c59e" fill-rule="evenodd" stroke="none"/>
      <path d="M27.85 -224.95 Q41.15 -235.35 41.7 -235.35 42.65 -235.35 45.25 -233.35 L47.85 -231.3 Q48.6 -231.3 51.25 -232.95 52.15 -226.5 52.3 -220.5 51.6 -216.5 50.0 -212.9 L49.4 -211.65 Q45.65 -204.95 39.75 -197.9 35.0 -207.05 28.4 -211.65 L23.55 -214.95 20.9 -216.6 27.85 -224.95 M-77.9 -185.05 L-73.6 -188.9 -74.05 -191.0 -71.5 -193.65 Q-69.2 -195.95 -67.65 -195.95 L-65.45 -195.4 -60.0 -193.65 -55.3 -192.1 Q-55.75 -187.85 -57.55 -184.25 -58.1 -183.1 -58.8 -182.0 L-77.9 -185.05 M38.2 -223.65 L38.85 -223.85 38.2 -223.65 M33.8 -218.75 L28.4 -211.65 33.8 -218.75 M49.4 -213.6 L49.4 -211.65 49.4 -213.6 Q49.0 -222.15 46.5 -226.7 42.5 -225.1 38.85 -223.85 L49.4 -213.6 M-69.4 -187.85 L-68.15 -194.75 -65.45 -195.4 -68.15 -194.75 -69.4 -187.85" fill="#baab89" fill-rule="evenodd" stroke="none"/>
      <path d="M39.75 -197.9 L40.7 -194.9 Q40.25 -193.6 38.65 -191.7 29.3 -203.35 19.65 -210.5 L21.55 -212.65 23.55 -214.95 28.4 -211.65 Q35.0 -207.05 39.75 -197.9 M45.95 -170.5 Q15.2 -160.7 -16.5 -152.2 L-17.9 -152.1 Q-21.4 -152.1 -24.0 -153.35 -27.45 -155.0 -27.45 -158.55 -27.45 -161.9 -22.75 -171.5 -21.2 -174.7 -17.65 -178.7 L-17.2 -179.2 Q10.75 -187.55 39.2 -186.6 L42.45 -182.15 Q45.25 -176.75 45.95 -170.5 M-44.4 -144.9 L-61.0 -140.9 Q-62.35 -143.65 -62.8 -145.45 -63.75 -148.9 -63.75 -156.5 L-63.75 -158.85 Q-55.9 -163.4 -48.1 -167.15 L-47.8 -167.3 -40.9 -170.4 -33.15 -173.65 Q-31.5 -171.6 -31.5 -167.75 -31.5 -162.7 -35.65 -155.95 -38.85 -150.8 -44.4 -144.9 M-65.45 -169.15 Q-67.65 -169.7 -68.75 -170.65 L-70.5 -172.55 -70.8 -174.65 -68.3 -173.3 Q-62.1 -177.0 -58.8 -182.0 -58.1 -183.1 -57.55 -184.25 L-53.9 -181.6 -50.3 -178.5 Q-53.75 -171.35 -59.6 -169.0 L-61.85 -168.3 -65.45 -168.8 -65.45 -169.15 M-48.35 -205.8 Q-42.7 -225.25 -23.6 -231.35 L-19.45 -231.05 Q-17.75 -228.3 -17.75 -225.65 -17.75 -222.7 -18.5 -221.5 -18.9 -220.9 -19.8 -220.35 L-20.55 -220.5 -25.8 -220.2 Q-38.85 -218.45 -47.3 -206.75 L-47.8 -206.35 -48.35 -205.8 M-13.35 -229.8 Q-4.05 -227.15 2.3 -219.7 7.3 -213.85 10.45 -204.95 11.7 -197.1 6.1 -204.4 0.2 -211.75 -7.55 -215.9 L-9.2 -218.0 Q-14.0 -224.15 -14.0 -227.55 -14.0 -228.55 -13.35 -229.8" fill="#ff9900" fill-rule="evenodd" stroke="none"/>
      <path d="M38.65 -191.7 L42.6 -186.55 39.2 -186.6 Q10.75 -187.55 -17.2 -179.2 -25.25 -176.85 -33.15 -173.65 L-40.9 -170.4 -47.8 -167.3 -48.1 -167.15 Q-55.9 -163.4 -63.75 -158.85 L-65.8 -157.65 Q-66.25 -162.35 -65.45 -168.8 L-61.85 -168.3 -59.6 -169.0 Q-53.75 -171.35 -50.3 -178.5 L-49.8 -179.65 Q-46.55 -186.7 -48.9 -196.95 -50.3 -198.6 -52.1 -199.7 L-53.5 -200.3 -48.35 -205.8 -47.8 -206.35 -47.3 -206.75 Q-38.85 -218.45 -25.8 -220.2 L-20.55 -220.5 -19.8 -220.35 Q-13.2 -218.95 -7.55 -215.9 0.2 -211.75 6.1 -204.4 11.7 -197.1 10.45 -204.95 7.3 -213.85 2.3 -219.7 8.0 -217.9 13.65 -214.55 L19.65 -210.5 Q29.3 -203.35 38.65 -191.7" fill="#331f09" fill-rule="evenodd" stroke="none"/>
      <path d="M42.6 -186.55 L46.1 -186.4 Q50.15 -180.5 49.7 -171.75 L45.95 -170.5 Q45.25 -176.75 42.45 -182.15 L39.2 -186.6 42.6 -186.55 M-61.0 -140.9 L-67.05 -139.5 Q-71.9 -145.85 -69.55 -155.4 -67.65 -156.55 -65.8 -157.65 L-63.75 -158.85 -63.75 -156.5 Q-63.75 -148.9 -62.8 -145.45 -62.35 -143.65 -61.0 -140.9 M-59.35 -199.7 L-56.8 -201.25 Q-55.0 -200.95 -53.5 -200.3 L-52.1 -199.7 Q-50.3 -198.6 -48.9 -196.95 -46.55 -186.7 -49.8 -179.65 L-50.3 -178.5 -53.9 -181.6 -57.55 -184.25 Q-55.75 -187.85 -55.3 -192.1 -55.05 -194.3 -55.2 -196.7 L-56.45 -197.55 -59.35 -199.7 M13.65 -214.55 Q14.75 -215.95 17.3 -217.5 L20.9 -216.6 23.55 -214.95 21.55 -212.65 19.65 -210.5 13.65 -214.55 M-55.3 -197.9 L-55.2 -196.7 -55.3 -197.9" fill="#ffb342" fill-rule="evenodd" stroke="none"/>
      <path d="M-16.5 -152.2 L-44.4 -144.9 Q-38.85 -150.8 -35.65 -155.95 -31.5 -162.7 -31.5 -167.75 -31.5 -171.6 -33.15 -173.65 -25.25 -176.85 -17.2 -179.2 L-17.65 -178.7 Q-21.2 -174.7 -22.75 -171.5 -27.45 -161.9 -27.45 -158.55 -27.45 -155.0 -24.0 -153.35 -21.4 -152.1 -17.9 -152.1 L-16.5 -152.2 M-19.45 -231.05 L-13.35 -229.8 Q-14.0 -228.55 -14.0 -227.55 -14.0 -224.15 -9.2 -218.0 L-7.55 -215.9 Q-13.2 -218.95 -19.8 -220.35 -18.9 -220.9 -18.5 -221.5 -17.75 -222.7 -17.75 -225.65 -17.75 -228.3 -19.45 -231.05" fill="#ffffff" fill-rule="evenodd" stroke="none"/>
      <path d="M-70.8 -174.65 L-74.6 -176.7 -79.25 -183.95 -77.9 -185.05 -58.8 -182.0 Q-62.1 -177.0 -68.3 -173.3 L-70.8 -174.65" fill="#9e9175" fill-rule="evenodd" stroke="none"/>
      <path d="M51.25 -232.95 L51.2 -233.35 Q48.0 -249.35 41.15 -256.8 39.4 -243.35 31.1 -228.95 L27.85 -224.95 20.9 -216.6 23.55 -214.95 28.4 -211.65 33.8 -218.75 M51.25 -232.95 Q52.15 -226.5 52.3 -220.5 51.6 -216.5 50.0 -212.9 L49.4 -211.65 Q45.65 -204.95 39.75 -197.9 L40.7 -194.9 Q40.25 -193.6 38.65 -191.7 L42.6 -186.55 46.1 -186.4 Q50.15 -180.5 49.7 -171.75 L45.95 -170.5 Q15.2 -160.7 -16.5 -152.2 L-44.4 -144.9 -61.0 -140.9 -67.05 -139.5 Q-71.9 -145.85 -69.55 -155.4 -67.65 -156.55 -65.8 -157.65 -66.25 -162.35 -65.45 -168.8 L-66.0 -169.0 -65.45 -169.15 Q-67.65 -169.7 -68.75 -170.65 L-70.5 -172.55 -70.8 -174.65 -74.6 -176.7 -79.25 -183.95 -77.9 -185.05 -73.6 -188.9 -74.05 -191.0 -76.25 -201.35 -63.6 -202.75 -59.35 -199.7 -56.8 -201.25 Q-55.0 -200.95 -53.5 -200.3 L-48.35 -205.8 Q-42.7 -225.25 -23.6 -231.35 L-19.45 -231.05 -13.35 -229.8 Q-4.05 -227.15 2.3 -219.7 8.0 -217.9 13.65 -214.55 14.75 -215.95 17.3 -217.5 L20.9 -216.6 M38.85 -223.85 L38.2 -223.65 M-7.55 -215.9 Q0.2 -211.75 6.1 -204.4 11.7 -197.1 10.45 -204.95 7.3 -213.85 2.3 -219.7 M19.65 -210.5 L13.65 -214.55 M19.65 -210.5 Q29.3 -203.35 38.65 -191.7 M49.4 -211.65 L49.4 -213.6 Q49.0 -222.15 46.5 -226.7 42.5 -225.1 38.85 -223.85 M39.2 -186.6 L42.6 -186.55 M39.75 -197.9 Q35.0 -207.05 28.4 -211.65 M-48.35 -205.8 L-47.8 -206.35 -47.3 -206.75 Q-38.85 -218.45 -25.8 -220.2 L-20.55 -220.5 -19.8 -220.35 Q-13.2 -218.95 -7.55 -215.9 M-53.5 -200.3 L-52.1 -199.7 Q-50.3 -198.6 -48.9 -196.95 -46.55 -186.7 -49.8 -179.65 L-50.3 -178.5 Q-53.75 -171.35 -59.6 -169.0 L-61.85 -168.3 -65.45 -168.8 -65.45 -169.15 M-17.2 -179.2 Q-25.25 -176.85 -33.15 -173.65 L-40.9 -170.4 -47.8 -167.3 -48.1 -167.15 Q-55.9 -163.4 -63.75 -158.85 L-65.8 -157.65 M-55.2 -196.7 L-55.3 -197.9 M-55.3 -192.1 Q-55.05 -194.3 -55.2 -196.7 L-56.45 -197.55 -65.45 -195.4 -68.15 -194.75 -69.4 -187.85 M-57.55 -184.25 Q-58.1 -183.1 -58.8 -182.0 -62.1 -177.0 -68.3 -173.3 L-70.8 -174.65 M-57.55 -184.25 Q-55.75 -187.85 -55.3 -192.1 M-56.45 -197.55 L-59.35 -199.7 M-17.2 -179.2 Q10.75 -187.55 39.2 -186.6" fill="none" stroke="#000000" stroke-linecap="round" stroke-linejoin="round" stroke-opacity="0.5019608" stroke-width="1.0"/>
    </g>
  </defs>
</svg>
