<?xml version="1.0" encoding="UTF-8" standalone="no"?>
<svg xmlns:xlink="http://www.w3.org/1999/xlink" height="531.5px" width="460.6px" xmlns="http://www.w3.org/2000/svg">
  <g transform="matrix(1.0, 0.0, 0.0, 1.0, 193.65, 334.05)">
    <use height="195.9" transform="matrix(0.9313, 0.0, 0.0, 0.9313, -108.4656, -260.9156)" width="218.2" xlink:href="#shape0"/>
  </g>
  <defs>
    <g id="shape0" transform="matrix(1.0, 0.0, 0.0, 1.0, 0.5, 0.5)">
      <path d="M179.15 137.6 Q181.55 131.65 181.55 131.1 181.55 128.85 178.5 126.15 175.5 123.5 175.5 121.65 L175.65 120.55 176.2 117.9 176.85 115.35 Q176.85 113.3 173.6 108.7 L169.75 103.4 Q166.0 95.1 165.05 91.35 163.8 86.2 160.9 81.1 L164.0 85.35 177.8 107.4 Q180.1 112.3 179.9 119.35 L179.7 122.15 179.6 123.55 185.3 132.0 Q185.65 133.55 185.65 135.25 185.5 139.4 183.25 144.55 185.75 150.55 186.1 157.6 186.1 159.25 188.4 165.5 190.75 171.75 188.5 171.95 186.15 172.05 176.45 178.55 170.9 179.4 167.1 182.75 167.6 179.6 169.3 178.0 171.95 175.45 173.85 172.4 178.7 160.75 179.25 157.6 L179.3 157.05 Q179.3 156.1 177.15 153.3 174.95 150.45 174.95 149.7 174.95 148.15 178.2 139.95 L179.15 137.6 180.75 137.4 179.15 137.6 M52.4 69.95 L51.9 71.25 Q50.75 74.65 50.75 76.95 50.75 79.3 52.1 80.6 53.55 81.95 56.1 81.95 58.75 81.95 61.4 80.8 L67.2 78.15 67.2 78.55 Q61.8 83.65 56.95 95.7 52.15 107.45 51.3 117.35 L51.3 119.0 53.85 119.2 56.45 119.3 56.65 119.5 56.75 120.0 56.5 121.85 Q54.1 126.35 52.05 129.15 50.0 131.85 48.05 140.55 L47.9 143.2 Q47.2 133.15 46.6 132.95 L44.2 132.0 46.6 132.95 Q47.2 133.15 47.9 143.2 L48.7 140.7 Q51.1 141.1 53.55 140.7 61.4 139.1 69.45 136.2 L67.55 139.65 Q64.7 145.05 64.7 146.3 64.7 147.05 68.8 151.75 72.85 156.45 72.9 157.6 L72.9 157.65 70.2 162.2 Q68.15 165.6 67.6 167.5 70.0 174.3 79.9 180.0 84.85 182.8 91.05 189.25 85.95 187.5 81.95 186.75 63.5 184.6 33.3 174.05 32.4 167.85 38.4 162.0 39.2 160.4 39.0 157.6 38.5 151.9 41.3 146.8 38.7 141.5 38.25 134.25 39.0 128.6 44.95 123.3 46.15 112.8 49.05 103.9 39.65 90.45 43.35 74.45 47.75 71.9 52.4 69.95 M180.75 149.5 L183.25 144.55 180.75 149.5 M55.05 90.8 Q57.75 86.1 61.2 82.05 57.75 86.1 55.05 90.8 51.5 96.85 49.05 103.9 51.5 96.85 55.05 90.8 L53.8 85.9 55.05 90.8 M45.6 155.55 L41.3 146.8 45.6 155.55 M142.35 123.75 L144.25 123.95 Q151.4 124.9 158.8 127.25 L148.85 128.3 101.7 128.3 101.7 127.75 Q103.35 126.5 110.8 124.9 118.45 123.2 126.4 122.6 L134.25 123.2 142.35 123.75" fill="#000000" fill-rule="evenodd" stroke="none"/>
      <path d="M160.9 81.1 Q163.8 86.2 165.05 91.35 166.0 95.1 169.75 103.4 L173.6 108.7 Q176.85 113.3 176.85 115.35 L176.2 117.9 175.65 120.55 175.5 121.65 Q175.5 123.5 178.5 126.15 181.55 128.85 181.55 131.1 181.55 131.65 179.15 137.6 176.85 137.6 174.6 136.35 176.85 137.6 179.15 137.6 L178.2 139.95 Q174.95 148.15 174.95 149.7 174.95 150.45 177.15 153.3 179.3 156.1 179.3 157.05 L179.25 157.6 Q178.7 160.75 173.85 172.4 171.95 175.45 169.3 178.0 167.6 179.6 167.1 182.75 159.2 189.45 138.95 194.9 105.05 193.75 91.05 189.25 84.85 182.8 79.9 180.0 70.0 174.3 67.6 167.5 68.15 165.6 70.2 162.2 L72.9 157.65 72.9 157.6 Q72.85 156.45 68.8 151.75 64.7 147.05 64.7 146.3 64.7 145.05 67.55 139.65 L69.45 136.2 75.95 133.55 82.6 130.4 Q111.5 117.15 132.55 114.1 139.85 113.35 166.05 130.6 L173.0 135.25 173.8 135.8 174.6 136.35 Q172.65 122.2 171.55 117.7 169.3 108.35 163.8 101.25 158.7 96.5 153.55 92.65 139.15 81.75 124.25 77.4 105.25 85.25 91.45 93.05 80.7 99.1 73.15 105.15 63.25 114.1 56.5 121.85 L56.75 120.0 56.65 119.5 56.45 119.3 53.85 119.2 51.3 119.0 51.3 117.35 Q52.15 107.45 56.95 95.7 61.8 83.65 67.2 78.55 L67.2 78.15 61.4 80.8 Q58.75 81.95 56.1 81.95 53.55 81.95 52.1 80.6 50.75 79.3 50.75 76.95 50.75 74.65 51.9 71.25 L52.4 69.95 Q69.9 62.15 89.95 61.2 119.85 61.6 147.45 70.7 150.75 72.25 153.7 74.35 157.7 77.3 160.9 81.1 M142.35 123.75 L134.25 123.2 126.4 122.6 Q118.45 123.2 110.8 124.9 103.35 126.5 101.7 127.75 L101.7 128.3 148.85 128.3 158.8 127.25 Q151.4 124.9 144.25 123.95 L142.35 123.75 M169.0 169.4 Q146.65 176.1 119.6 176.5 146.65 176.1 169.0 169.4" fill="#333333" fill-rule="evenodd" stroke="none"/>
      <path d="M56.5 121.85 Q63.25 114.1 73.15 105.15 80.7 99.1 91.45 93.05 126.1 80.8 153.55 92.65 158.7 96.5 163.8 101.25 169.3 108.35 171.55 117.7 172.65 122.2 174.6 136.35 L173.8 135.8 173.0 135.25 166.05 130.6 Q139.85 113.35 132.55 114.1 111.5 117.15 82.6 130.4 L75.95 133.55 69.45 136.2 Q61.4 139.1 53.55 140.7 51.1 141.1 48.7 140.7 L47.9 143.2 48.05 140.55 Q50.0 131.85 52.05 129.15 54.1 126.35 56.5 121.85 M48.7 140.7 L48.05 140.55 48.7 140.7" fill="url(#gradient0)" fill-rule="evenodd" stroke="none"/>
      <path d="M91.45 93.05 Q105.25 85.25 124.25 77.4 139.15 81.75 153.55 92.65 126.1 80.8 91.45 93.05" fill="#999999" fill-rule="evenodd" stroke="none"/>
      <path d="M160.9 81.1 Q157.7 77.3 153.7 74.35 150.75 72.25 147.45 70.7 119.85 61.6 89.95 61.2 69.9 62.15 52.4 69.95 47.75 71.9 43.35 74.45 39.65 90.45 49.05 103.9 51.5 96.85 55.05 90.8 L53.8 85.9 M56.5 121.85 Q63.25 114.1 73.15 105.15 80.7 99.1 91.45 93.05 105.25 85.25 124.25 77.4 139.15 81.75 153.55 92.65 158.7 96.5 163.8 101.25 169.3 108.35 171.55 117.7 172.65 122.2 174.6 136.35 176.85 137.6 179.15 137.6 L180.75 137.4 M160.9 81.1 L164.0 85.35 177.8 107.4 Q180.1 112.3 179.9 119.35 L179.7 122.15 179.6 123.55 185.3 132.0 Q185.65 133.55 185.65 135.25 185.5 139.4 183.25 144.55 185.75 150.55 186.1 157.6 186.1 159.25 188.4 165.5 190.75 171.75 188.5 171.95 186.15 172.05 176.45 178.55 170.9 179.4 167.1 182.75 159.2 189.45 138.95 194.9 105.05 193.75 91.05 189.25 85.95 187.5 81.95 186.75 63.5 184.6 33.3 174.05 32.4 167.85 38.4 162.0 39.2 160.4 39.0 157.6 38.5 151.9 41.3 146.8 38.7 141.5 38.25 134.25 39.0 128.6 44.95 123.3 46.15 112.8 49.05 103.9 M69.45 136.2 L75.95 133.55 82.6 130.4 Q111.5 117.15 132.55 114.1 139.85 113.35 166.05 130.6 L173.0 135.25 173.8 135.8 174.6 136.35 M183.25 144.55 L180.75 149.5 M91.45 93.05 Q126.1 80.8 153.55 92.65 M61.2 82.05 Q57.75 86.1 55.05 90.8 M47.9 143.2 Q47.2 133.15 46.6 132.95 L44.2 132.0 M56.5 121.85 Q54.1 126.35 52.05 129.15 50.0 131.85 48.05 140.55 L48.7 140.7 Q51.1 141.1 53.55 140.7 61.4 139.1 69.45 136.2 M48.05 140.55 L47.9 143.2 M41.3 146.8 L45.6 155.55 M119.6 176.5 Q146.65 176.1 169.0 169.4" fill="none" stroke="#000000" stroke-linecap="round" stroke-linejoin="round" stroke-opacity="0.5019608" stroke-width="1.0"/>
      <path d="M114.35 71.25 L109.5 65.95 129.55 0.0 122.75 72.05 114.35 71.25 121.05 41.75 114.35 71.25" fill="url(#gradient1)" fill-rule="evenodd" stroke="none"/>
      <path d="M91.85 61.5 L81.3 61.85 79.6 11.25 91.85 61.5" fill="url(#gradient2)" fill-rule="evenodd" stroke="none"/>
      <path d="M47.7 108.45 L45.65 118.0 19.05 95.9 47.7 108.45" fill="url(#gradient3)" fill-rule="evenodd" stroke="none"/>
      <path d="M177.15 105.05 L203.65 95.9 179.85 114.9 177.15 105.05" fill="url(#gradient4)" fill-rule="evenodd" stroke="none"/>
      <path d="M152.0 73.75 L185.3 41.45 159.45 80.9 154.7 78.15 152.0 73.75" fill="url(#gradient5)" fill-rule="evenodd" stroke="none"/>
      <path d="M65.7 83.95 L64.0 90.4 56.85 91.8 23.9 34.0 65.7 83.95" fill="url(#gradient6)" fill-rule="evenodd" stroke="none"/>
      <path d="M45.65 152.65 L50.05 157.05 46.65 163.15 0.0 162.55 45.65 152.65" fill="url(#gradient7)" fill-rule="evenodd" stroke="none"/>
      <path d="M184.95 141.1 L217.2 147.55 185.6 151.25 183.25 143.8 184.95 141.1" fill="url(#gradient8)" fill-rule="evenodd" stroke="none"/>
      <path d="M184.95 141.1 L217.2 147.55 185.6 151.25 183.25 143.8 184.95 141.1 M177.15 105.05 L203.65 95.9 179.85 114.9 177.15 105.05 M114.35 71.25 L122.75 72.05 129.55 0.0 109.5 65.95 114.35 71.25 121.05 41.75 M91.85 61.5 L79.6 11.25 81.3 61.85 91.85 61.5 M152.0 73.75 L185.3 41.45 159.45 80.9 154.7 78.15 152.0 73.75 M65.7 83.95 L23.9 34.0 56.85 91.8 64.0 90.4 65.7 83.95 M47.7 108.45 L19.05 95.9 45.65 118.0 47.7 108.45 M45.65 152.65 L0.0 162.55 46.65 163.15 50.05 157.05 45.65 152.65" fill="none" stroke="#000000" stroke-linecap="round" stroke-linejoin="round" stroke-opacity="0.5019608" stroke-width="1.0"/>
    </g>
    <radialGradient cx="0" cy="0" gradientTransform="matrix(0.0804, 0.0, 0.0, 0.0804, 117.4, 110.6)" gradientUnits="userSpaceOnUse" id="gradient0" r="819.2" spreadMethod="pad">
      <stop offset="0.43137254901960786" stop-color="#000000" stop-opacity="0.0"/>
      <stop offset="1.0" stop-color="#000000" stop-opacity="0.5529412"/>
    </radialGradient>
    <linearGradient gradientTransform="matrix(-0.0053, 0.0198, -0.0425, -0.0114, 113.1, 52.65)" gradientUnits="userSpaceOnUse" id="gradient1" spreadMethod="pad" x1="-819.2" x2="819.2">
      <stop offset="0.0" stop-color="#dbdbdb"/>
      <stop offset="1.0" stop-color="#4f4f4f"/>
    </linearGradient>
    <linearGradient gradientTransform="matrix(0.0, 0.017, -0.0309, 0.0, 87.5, 49.0)" gradientUnits="userSpaceOnUse" id="gradient2" spreadMethod="pad" x1="-819.2" x2="819.2">
      <stop offset="0.0" stop-color="#dbdbdb"/>
      <stop offset="1.0" stop-color="#4f4f4f"/>
    </linearGradient>
    <linearGradient gradientTransform="matrix(0.0108, 0.0029, -0.0035, 0.013, 37.05, 110.75)" gradientUnits="userSpaceOnUse" id="gradient3" spreadMethod="pad" x1="-819.2" x2="819.2">
      <stop offset="0.0" stop-color="#dbdbdb"/>
      <stop offset="1.0" stop-color="#4f4f4f"/>
    </linearGradient>
    <linearGradient gradientTransform="matrix(-0.0156, 0.0042, -0.003, -0.0112, 182.95, 109.15)" gradientUnits="userSpaceOnUse" id="gradient4" spreadMethod="pad" x1="-819.2" x2="819.2">
      <stop offset="0.0" stop-color="#dbdbdb"/>
      <stop offset="1.0" stop-color="#4f4f4f"/>
    </linearGradient>
    <linearGradient gradientTransform="matrix(-0.0045, 0.0078, -0.0209, -0.012, 161.2, 73.95)" gradientUnits="userSpaceOnUse" id="gradient5" spreadMethod="pad" x1="-819.2" x2="819.2">
      <stop offset="0.0" stop-color="#999999"/>
      <stop offset="1.0" stop-color="#4f4f4f"/>
    </linearGradient>
    <linearGradient gradientTransform="matrix(0.0121, 0.0121, -0.0249, 0.0249, 52.7, 75.3)" gradientUnits="userSpaceOnUse" id="gradient6" spreadMethod="pad" x1="-819.2" x2="819.2">
      <stop offset="0.0" stop-color="#dbdbdb"/>
      <stop offset="1.0" stop-color="#4f4f4f"/>
    </linearGradient>
    <linearGradient gradientTransform="matrix(0.0201, 0.0, 0.0, 0.0064, 36.0, 158.5)" gradientUnits="userSpaceOnUse" id="gradient7" spreadMethod="pad" x1="-819.2" x2="819.2">
      <stop offset="0.0" stop-color="#dbdbdb"/>
      <stop offset="1.0" stop-color="#4f4f4f"/>
    </linearGradient>
    <linearGradient gradientTransform="matrix(-0.0079, 0.0, 0.0, -0.0062, 192.55, 149.35)" gradientUnits="userSpaceOnUse" id="gradient8" spreadMethod="pad" x1="-819.2" x2="819.2">
      <stop offset="0.0" stop-color="#dbdbdb"/>
      <stop offset="1.0" stop-color="#4f4f4f"/>
    </linearGradient>
  </defs>
</svg>
