<?xml version="1.0" encoding="UTF-8" standalone="no"?>
<svg xmlns:xlink="http://www.w3.org/1999/xlink" height="531.5px" width="460.6px" xmlns="http://www.w3.org/2000/svg">
  <g transform="matrix(1.0, 0.0, 0.0, 1.0, 193.65, 334.05)">
    <use height="139.8" transform="matrix(1.0, 0.0, 0.0, 1.0, -86.6, -219.9)" width="173.4" xlink:href="#shape0"/>
  </g>
  <defs>
    <g id="shape0" transform="matrix(1.0, 0.0, 0.0, 1.0, 86.6, 219.9)">
      <path d="M-13.8 -113.85 Q-12.5 -114.65 -11.85 -114.75 -9.4 -114.25 -7.8 -112.1 -6.5 -110.4 -6.5 -109.1 -6.5 -105.05 -11.55 -105.05 -14.45 -105.05 -15.95 -107.05 -16.9 -108.3 -16.9 -109.25 -16.9 -111.15 -15.7 -112.35 L-13.8 -113.85" fill="#333333" fill-rule="evenodd" stroke="none"/>
      <path d="M48.25 -87.6 Q49.15 -88.5 50.15 -90.7 L50.3 -90.95 Q52.1 -96.25 52.9 -101.8 54.2 -109.6 53.55 -117.8 53.3 -120.2 53.2 -122.55 52.65 -134.05 50.95 -148.45 49.8 -156.6 45.75 -165.25 44.9 -166.85 41.25 -169.15 L39.7 -170.05 35.95 -171.5 Q31.4 -173.15 26.85 -174.45 L21.15 -175.75 13.0 -177.45 Q-6.8 -180.9 -26.6 -178.2 -39.1 -174.45 -48.45 -163.35 -56.9 -153.1 -58.85 -140.4 L-60.4 -105.2 Q-60.15 -101.1 -59.5 -98.45 -58.7 -95.1 -57.0 -93.2 L-55.3 -91.6 -54.3 -90.95 Q-46.1 -88.6 -37.75 -86.95 -10.5 -81.0 17.3 -82.7 L18.85 -82.9 22.25 -83.05 23.8 -83.1 Q40.75 -84.35 47.35 -87.1 47.85 -87.2 48.25 -87.6 M43.3 -173.15 Q46.6 -171.0 48.35 -168.65 52.8 -161.9 54.35 -150.35 56.4 -134.85 56.9 -122.55 57.8 -113.35 56.95 -104.3 56.5 -99.65 55.5 -95.1 L54.7 -91.35 Q45.0 -80.5 12.75 -80.1 -35.25 -79.7 -61.7 -92.65 -63.2 -95.4 -63.75 -99.6 L-64.25 -105.2 -62.95 -140.4 Q-61.4 -158.4 -47.7 -171.1 -38.1 -179.9 -26.6 -182.75 L-20.5 -183.3 Q-7.55 -184.15 5.1 -182.85 16.0 -181.75 26.85 -179.1 33.25 -177.45 39.7 -175.1 41.55 -174.3 43.3 -173.15" fill="#000000" fill-rule="evenodd" stroke="none"/>
      <path d="M13.0 -177.45 L21.15 -175.75 26.85 -174.45 Q31.4 -173.15 35.95 -171.5 L39.7 -170.05 41.25 -169.15 Q44.9 -166.85 45.75 -165.25 49.8 -156.6 50.95 -148.45 52.65 -134.05 53.2 -122.55 53.3 -120.2 53.55 -117.8 54.2 -109.6 52.9 -101.8 52.1 -96.25 50.3 -90.95 L50.15 -90.7 Q49.15 -88.5 48.25 -87.6 48.8 -93.3 48.75 -99.0 L48.5 -103.8 48.25 -109.25 Q47.75 -122.15 46.15 -138.35 45.15 -147.55 41.35 -157.25 40.6 -159.2 37.35 -161.8 L35.85 -162.8 32.45 -164.4 Q28.4 -166.3 24.15 -167.75 L24.05 -167.75 23.5 -168.35 Q18.6 -173.15 13.0 -177.45" fill="#f0f0f0" fill-rule="evenodd" stroke="none"/>
      <path d="M24.05 -167.75 L24.15 -167.75 Q28.4 -166.3 32.45 -164.4 L35.85 -162.8 37.35 -161.8 Q40.6 -159.2 41.35 -157.25 45.15 -147.55 46.15 -138.35 47.75 -122.15 48.25 -109.25 L48.5 -103.8 48.75 -99.0 Q48.8 -93.3 48.25 -87.6 47.85 -87.2 47.35 -87.1 40.75 -84.35 23.8 -83.1 L22.25 -83.05 18.85 -82.9 17.3 -82.7 Q27.4 -87.2 34.25 -92.65 45.65 -101.8 45.65 -111.15 45.65 -114.15 43.05 -119.35 L38.9 -128.25 Q37.6 -132.1 37.0 -138.05 L35.55 -149.1 Q34.0 -157.5 24.05 -167.75" fill="#e6e6e6" fill-rule="evenodd" stroke="none"/>
      <path d="M17.3 -82.7 Q-10.5 -81.0 -37.75 -86.95 -46.1 -88.6 -54.3 -90.95 L-55.3 -91.6 -53.9 -129.3 Q-52.2 -143.75 -44.45 -155.2 -35.9 -167.75 -24.5 -171.9 -2.8 -175.6 18.95 -169.25 L24.05 -167.75 Q34.0 -157.5 35.55 -149.1 L37.0 -138.05 Q37.6 -132.1 38.9 -128.25 L43.05 -119.35 Q45.65 -114.15 45.65 -111.15 45.65 -101.8 34.25 -92.65 27.4 -87.2 17.3 -82.7" fill="#f2f2f2" fill-rule="evenodd" stroke="none"/>
      <path d="M13.0 -177.45 Q18.6 -173.15 23.5 -168.35 L24.05 -167.75 18.95 -169.25 Q-2.8 -175.6 -24.5 -171.9 -35.9 -167.75 -44.45 -155.2 -52.2 -143.75 -53.9 -129.3 L-55.3 -91.6 -57.0 -93.2 Q-58.7 -95.1 -59.5 -98.45 -60.15 -101.1 -60.4 -105.2 L-58.85 -140.4 Q-56.9 -153.1 -48.45 -163.35 -39.1 -174.45 -26.6 -178.2 -6.8 -180.9 13.0 -177.45" fill="#ffffff" fill-rule="evenodd" stroke="none"/>
      <path d="M18.85 -108.2 Q25.15 -107.35 27.15 -106.35 L27.15 -106.0 Q22.05 -104.6 -2.05 -104.35 -12.0 -104.35 -19.8 -104.65 L-26.55 -105.0 -8.0 -107.7 6.0 -109.05 18.85 -108.2" fill="#cccccc" fill-rule="evenodd" stroke="none"/>
      <path d="M38.85 -100.8 L36.75 -99.95 Q35.45 -99.95 35.45 -101.3 35.45 -102.85 39.85 -104.15 L40.25 -104.25 40.15 -105.0 Q40.15 -106.45 43.1 -106.6 46.15 -106.7 46.15 -105.15 L45.7 -104.15 44.8 -103.85 44.2 -103.75 44.3 -103.35 Q44.3 -102.05 41.45 -101.65 L38.85 -100.8 M21.45 -110.55 Q20.7 -109.55 20.35 -107.8 20.2 -106.7 18.5 -104.9 16.75 -103.0 15.25 -103.0 12.75 -103.0 12.75 -106.2 12.75 -110.4 17.45 -114.4 22.15 -118.35 22.15 -112.8 22.15 -111.4 21.45 -110.55 M11.15 -128.5 Q11.75 -129.25 13.15 -129.35 15.85 -129.5 15.85 -126.75 L15.6 -125.3 15.4 -124.9 15.4 -125.15 Q15.4 -128.5 11.55 -128.5 L11.15 -128.5 M25.15 -139.35 L24.9 -139.5 24.8 -139.35 25.15 -139.35 M44.6 -126.4 L43.85 -125.9 Q42.75 -128.15 38.6 -126.65 34.55 -125.15 33.3 -122.2 32.85 -122.9 32.85 -123.8 L33.05 -125.55 Q32.55 -126.75 32.55 -127.35 32.55 -132.8 38.9 -133.1 45.3 -133.45 45.3 -128.4 45.3 -127.25 44.6 -126.4 M40.7 -117.45 Q42.35 -116.65 42.35 -114.65 L42.1 -113.25 Q41.5 -111.7 39.75 -111.7 L37.15 -111.8 36.8 -111.45 36.4 -111.45 Q32.2 -111.45 32.2 -107.7 32.2 -106.25 32.95 -105.35 31.8 -104.35 30.7 -104.35 L30.0 -104.4 29.85 -103.85 Q29.0 -101.55 26.85 -100.65 26.65 -99.55 25.9 -98.8 L22.9 -97.85 Q22.2 -97.45 21.2 -97.3 L20.05 -96.95 Q18.8 -96.95 18.0 -98.05 L17.45 -98.55 Q16.45 -99.55 16.45 -100.55 16.45 -101.3 16.85 -102.05 17.5 -103.35 19.1 -103.35 L20.1 -103.35 20.8 -103.6 21.65 -104.0 22.8 -104.6 Q23.15 -106.5 25.0 -109.05 L25.25 -109.35 25.3 -109.7 Q26.65 -113.75 28.5 -113.8 L28.95 -114.5 Q32.95 -119.85 37.05 -119.7 39.85 -119.6 40.7 -117.45 M16.0 -155.2 L17.2 -156.1 Q18.8 -156.45 20.35 -157.2 22.45 -158.05 25.9 -159.9 29.35 -161.65 30.0 -165.35 L30.7 -165.65 Q32.85 -165.6 33.45 -164.5 33.8 -164.0 33.8 -162.5 33.8 -159.2 31.3 -156.0 L29.1 -154.1 Q29.7 -152.0 32.1 -151.25 L33.8 -151.9 Q36.55 -152.75 37.75 -151.9 L38.15 -151.75 Q40.0 -150.8 40.0 -148.4 40.0 -146.8 38.9 -144.8 L36.75 -141.15 Q35.05 -137.55 33.4 -136.05 31.05 -133.85 27.4 -133.85 L26.6 -133.85 26.6 -133.55 26.5 -132.95 Q27.6 -131.1 27.6 -128.0 L26.9 -123.8 Q25.8 -119.8 23.3 -119.8 22.3 -119.8 21.55 -120.45 L21.4 -120.45 20.85 -120.45 20.95 -120.8 21.4 -124.3 Q21.4 -126.15 20.7 -127.25 19.95 -126.5 18.8 -126.5 17.25 -126.5 16.5 -127.65 15.25 -129.6 12.8 -131.1 L7.8 -133.95 Q5.95 -134.95 5.95 -136.15 5.95 -137.65 6.6 -138.4 6.85 -142.25 14.15 -140.35 L18.1 -138.9 Q19.7 -139.65 19.7 -140.9 19.7 -142.6 16.75 -144.85 L15.25 -146.1 Q14.25 -146.45 13.65 -147.7 13.15 -148.8 13.15 -150.15 13.15 -153.6 16.0 -155.2 M16.5 -157.2 L16.45 -157.1 Q15.6 -155.5 14.85 -155.5 14.25 -155.5 14.25 -156.2 L14.4 -156.6 Q14.4 -157.6 15.6 -158.2 16.7 -158.9 16.7 -157.7 L16.5 -157.2 M13.05 -154.25 Q12.55 -154.25 12.55 -154.95 12.55 -156.2 13.25 -156.35 14.0 -156.55 14.0 -155.5 13.85 -154.25 13.05 -154.25 M-32.9 -151.9 Q-31.65 -152.75 -28.65 -151.9 L-26.7 -151.25 Q-24.1 -152.0 -23.45 -154.1 L-25.8 -156.0 Q-28.65 -159.2 -28.65 -162.5 -28.65 -164.0 -28.2 -164.5 -27.55 -165.6 -25.2 -165.65 L-24.45 -165.35 Q-23.7 -161.65 -19.9 -159.9 -16.15 -158.05 -13.85 -157.2 L-10.35 -156.1 Q-9.5 -155.7 -9.0 -155.2 -5.9 -153.6 -5.9 -150.15 -5.9 -148.8 -6.5 -147.7 -7.05 -146.45 -8.15 -146.1 L-9.85 -144.85 Q-13.1 -142.6 -13.1 -140.9 -13.1 -139.65 -11.35 -138.9 L-7.0 -140.35 Q1.0 -142.25 1.3 -138.4 2.0 -137.65 2.0 -136.15 2.0 -134.95 0.05 -133.95 L-5.55 -131.1 Q-8.15 -129.6 -9.6 -127.65 -10.4 -126.5 -12.0 -126.5 -13.35 -126.5 -14.2 -127.25 -14.95 -126.15 -14.95 -124.3 L-14.45 -120.8 -14.35 -120.45 -14.95 -120.45 -15.1 -120.45 Q-15.9 -119.8 -17.05 -119.8 -19.8 -119.8 -21.1 -123.8 L-21.75 -128.0 Q-21.75 -131.1 -20.6 -132.95 L-20.65 -133.55 -20.65 -133.85 -21.6 -133.85 Q-25.55 -133.85 -28.15 -136.05 -30.0 -137.55 -31.8 -141.15 L-34.15 -144.8 Q-35.45 -146.8 -35.45 -148.4 -35.45 -150.8 -33.4 -151.75 L-32.9 -151.9 M-7.05 -156.2 Q-7.05 -155.5 -7.75 -155.5 -8.5 -155.5 -9.5 -157.1 L-9.6 -157.2 -9.75 -157.7 Q-9.75 -158.9 -8.5 -158.2 -7.25 -157.6 -7.25 -156.6 L-7.05 -156.2 M-6.0 -156.35 Q-5.2 -156.2 -5.2 -154.95 -5.2 -154.25 -5.8 -154.25 -6.65 -154.25 -6.8 -155.5 -6.8 -156.55 -6.0 -156.35 M-19.05 -139.35 L-18.75 -139.35 -18.8 -139.5 Q-18.9 -139.4 -19.05 -139.35 M-27.8 -125.55 Q-27.95 -125.15 -27.55 -123.8 -27.55 -122.9 -28.05 -122.2 -29.4 -125.15 -33.85 -126.65 -38.45 -128.15 -39.7 -125.9 L-40.45 -126.4 Q-41.2 -127.25 -41.2 -128.4 -41.2 -133.45 -34.15 -133.1 -27.2 -132.8 -27.2 -127.35 -27.2 -126.75 -27.8 -125.55 M-22.75 -113.8 Q-20.75 -113.75 -19.25 -109.7 L-19.15 -109.35 -18.9 -109.05 Q-16.9 -106.5 -16.45 -104.6 L-15.2 -104.0 -14.3 -103.6 -13.55 -103.35 -12.45 -103.35 Q-10.7 -103.35 -10.0 -102.05 -9.5 -101.3 -9.5 -100.55 -9.5 -99.55 -10.6 -98.55 L-11.25 -98.05 Q-12.0 -96.95 -13.45 -96.95 L-14.7 -97.3 -16.65 -97.85 -19.9 -98.8 Q-20.75 -99.55 -21.0 -100.65 -23.25 -101.55 -24.25 -103.85 L-24.45 -104.4 -25.2 -104.35 Q-26.35 -104.35 -27.7 -105.35 -26.8 -106.25 -26.8 -107.7 -26.8 -111.45 -31.5 -111.45 L-31.9 -111.45 -32.3 -111.8 -35.1 -111.7 Q-37.1 -111.7 -37.7 -113.25 L-37.95 -114.65 Q-37.95 -116.65 -36.2 -117.45 -35.25 -119.6 -32.25 -119.7 -27.65 -119.85 -23.2 -114.5 L-22.75 -113.8 M-16.45 -112.8 Q-16.45 -118.35 -10.95 -114.4 -5.4 -110.4 -5.4 -106.2 -5.4 -103.0 -8.4 -103.0 -10.15 -103.0 -12.25 -104.9 -14.2 -106.7 -14.45 -107.8 -14.8 -109.55 -15.7 -110.55 -16.45 -111.4 -16.45 -112.8 M-3.9 -128.15 Q-7.4 -128.1 -7.4 -124.65 L-7.3 -124.05 Q-8.15 -124.45 -8.5 -125.3 L-8.85 -126.75 Q-8.85 -129.5 -5.9 -129.35 -4.05 -129.25 -3.4 -128.15 L-3.9 -128.15 M-37.0 -101.65 Q-40.15 -102.05 -40.15 -103.35 L-40.05 -103.75 -40.7 -103.85 -41.65 -104.15 -42.15 -105.15 Q-42.15 -106.7 -38.85 -106.6 -35.6 -106.45 -35.6 -105.0 L-35.75 -104.25 -35.25 -104.15 Q-30.4 -102.85 -30.4 -101.3 -30.4 -99.95 -31.8 -99.95 L-34.1 -100.8 -37.0 -101.65" fill="#333333" fill-rule="evenodd" stroke="none"/>
      <path d="M-22.4 -213.4 Q-18.2 -210.1 -14.45 -208.4 -8.55 -205.55 -2.4 -205.55 2.05 -205.55 9.05 -207.1 L14.1 -208.4 Q-2.75 -209.65 -22.4 -213.4 L-24.0 -213.7 -22.4 -213.4 M18.7 -208.15 L14.1 -208.4 18.7 -208.15 M10.35 -146.65 L4.9 -147.7 -14.45 -151.45 -32.3 -154.75 Q-89.6 -164.65 -85.85 -168.4 -81.2 -171.2 -56.9 -175.5 L-56.75 -174.75 Q-28.1 -167.1 -4.85 -163.35 L-2.1 -162.95 8.65 -161.15 12.5 -160.6 11.9 -160.6 13.95 -160.35 17.15 -159.95 26.6 -158.55 37.15 -157.1 47.5 -156.75 Q49.45 -156.7 51.25 -157.4 L52.4 -158.15 53.2 -158.9 Q53.55 -159.35 53.55 -159.95 L53.3 -161.75 54.35 -161.4 54.85 -161.35 58.35 -160.25 59.75 -159.2 Q61.85 -157.25 61.85 -154.4 61.85 -150.25 54.85 -148.15 47.05 -145.75 30.25 -145.75 L20.95 -145.85 10.35 -146.65 M-55.1 -192.55 Q-53.6 -204.85 -51.4 -213.95 -34.9 -219.75 -20.1 -219.4 8.8 -219.55 33.0 -215.75 43.55 -198.25 49.55 -179.15 44.6 -177.15 26.1 -179.35 -15.3 -183.1 -55.1 -192.55" fill="#8a5c2f" fill-rule="evenodd" stroke="none"/>
      <path d="M14.1 -208.4 L9.05 -207.1 Q2.05 -205.55 -2.4 -205.55 -8.55 -205.55 -14.45 -208.4 -18.2 -210.1 -22.4 -213.4 -2.75 -209.65 14.1 -208.4 M58.35 -160.25 L83.45 -152.85 Q90.2 -148.8 81.1 -145.05 68.6 -140.65 46.15 -142.1 30.9 -142.9 15.9 -145.75 L10.35 -146.65 20.95 -145.85 30.25 -145.75 Q47.05 -145.75 54.85 -148.15 61.85 -150.25 61.85 -154.4 61.85 -157.25 59.75 -159.2 L58.35 -160.25" fill="#69421b" fill-rule="evenodd" stroke="none"/>
      <path d="M-56.9 -175.5 Q-57.5 -184.7 -55.1 -192.55 -15.3 -183.1 26.1 -179.35 44.6 -177.15 49.55 -179.15 L49.8 -178.25 50.05 -177.6 Q49.95 -167.1 42.15 -163.85 36.2 -161.25 12.5 -160.6 L8.65 -161.15 -2.1 -162.95 -4.85 -163.35 Q-28.1 -167.1 -56.75 -174.75 L-56.9 -175.5 M34.65 -166.95 L34.65 -167.2 Q21.8 -166.45 3.55 -170.55 L-25.8 -176.95 -34.35 -176.65 Q-27.9 -175.4 -13.15 -171.6 5.75 -166.95 14.55 -166.95 L31.45 -166.6 34.65 -166.95" fill="#660000" fill-rule="evenodd" stroke="none"/>
      <path d="M50.05 -177.6 Q52.5 -170.35 52.8 -166.2 53.15 -161.65 53.3 -161.75 L53.55 -159.95 Q53.55 -159.35 53.2 -158.9 L52.4 -158.15 51.25 -157.4 Q49.45 -156.7 47.5 -156.75 L37.15 -157.1 26.6 -158.55 17.15 -159.95 13.95 -160.35 11.9 -160.6 12.5 -160.6 Q36.2 -161.25 42.15 -163.85 49.95 -167.1 50.05 -177.6 M12.5 -160.6 L13.95 -160.35 12.5 -160.6 M34.65 -166.95 L31.45 -166.6 14.55 -166.95 Q5.75 -166.95 -13.15 -171.6 -27.9 -175.4 -34.35 -176.65 L-25.8 -176.95 3.55 -170.55 Q21.8 -166.45 34.65 -167.2 L34.65 -166.95" fill="#4a0000" fill-rule="evenodd" stroke="none"/>
      <path d="M14.1 -208.4 Q-2.75 -209.65 -22.4 -213.4 L-24.0 -213.7 M14.1 -208.4 L18.7 -208.15 M58.35 -160.25 L83.45 -152.85 Q90.2 -148.8 81.1 -145.05 68.6 -140.65 46.15 -142.1 30.9 -142.9 15.9 -145.75 L10.35 -146.65 4.9 -147.7 -14.45 -151.45 -32.3 -154.75 Q-89.6 -164.65 -85.85 -168.4 -81.2 -171.2 -56.9 -175.5 -57.5 -184.7 -55.1 -192.55 -53.6 -204.85 -51.4 -213.95 -34.9 -219.75 -20.1 -219.4 8.8 -219.55 33.0 -215.75 43.55 -198.25 49.55 -179.15 L49.8 -178.25 M50.05 -177.6 Q52.5 -170.35 52.8 -166.2 53.15 -161.65 53.3 -161.75 L54.35 -161.4 M54.85 -161.35 L58.35 -160.25 M53.3 -161.75 L53.55 -159.95 Q53.55 -159.35 53.2 -158.9 L52.4 -158.15 51.25 -157.4 Q49.45 -156.7 47.5 -156.75 L37.15 -157.1 26.6 -158.55 17.15 -159.95 13.95 -160.35 11.9 -160.6 M12.5 -160.6 L8.65 -161.15 -2.1 -162.95 -4.85 -163.35 Q-28.1 -167.1 -56.75 -174.75 L-56.9 -175.5 M13.95 -160.35 L12.5 -160.6 M49.55 -179.15 Q44.6 -177.15 26.1 -179.35 -15.3 -183.1 -55.1 -192.55" fill="none" stroke="#000000" stroke-linecap="round" stroke-linejoin="round" stroke-opacity="0.6627451" stroke-width="1.0"/>
    </g>
  </defs>
</svg>
