<?xml version="1.0" encoding="UTF-8" standalone="no"?>
<svg xmlns:xlink="http://www.w3.org/1999/xlink" height="531.5px" width="460.6px" xmlns="http://www.w3.org/2000/svg">
  <g transform="matrix(1.0, 0.0, 0.0, 1.0, 193.65, 334.05)">
    <use height="70.6" transform="matrix(1.5999, 0.0, 0.0, 1.5999, -66.9433, -185.3248)" width="92.05" xlink:href="#shape0"/>
  </g>
  <defs>
    <g id="shape0" transform="matrix(1.0, 0.0, 0.0, 1.0, 46.0, 35.3)">
      <path d="M31.8 -1.4 Q30.9 -7.1 28.9 -11.4 28.25 -7.75 23.75 -5.6 20.95 -11.8 15.95 -16.15 13.4 -11.5 8.05 -8.4 2.55 -14.5 -4.0 -18.6 -7.05 -11.35 -11.85 -6.65 -17.85 -10.7 -22.1 -15.95 -26.45 -10.05 -29.2 -1.75 -34.6 -6.4 -38.9 -13.55 L-44.1 -2.7 -43.5 -7.15 Q-38.1 -37.15 -3.65 -33.35 12.9 -32.6 23.45 -26.75 28.5 -23.9 30.55 -13.25 L31.15 -9.6 31.8 -1.4 M-44.35 0.35 L-38.95 -9.65 Q-35.5 -1.1 -29.95 6.75 -26.8 -0.05 -21.6 -4.1 -17.15 4.9 -9.35 12.8 L-3.85 6.55 Q0.75 12.75 6.55 17.35 12.65 14.1 17.6 9.15 20.25 11.15 23.2 15.1 27.55 9.45 29.35 3.15 L31.45 9.45 Q29.55 21.65 19.7 24.7 L20.1 24.7 19.6 24.8 19.7 24.7 19.6 24.8 Q9.15 26.65 -10.5 26.3 -42.35 25.4 -43.9 16.2 -44.55 9.8 -44.5 4.2 L-44.5 3.8 -44.4 0.8 -44.35 0.35" fill="#cafdff" fill-rule="evenodd" stroke="none"/>
      <path d="M-44.1 -2.7 L-38.9 -13.55 Q-34.6 -6.4 -29.2 -1.75 -26.45 -10.05 -22.1 -15.95 -17.85 -10.7 -11.85 -6.65 -7.05 -11.35 -4.0 -18.6 2.55 -14.5 8.05 -8.4 13.4 -11.5 15.95 -16.15 20.95 -11.8 23.75 -5.6 28.25 -7.75 28.9 -11.4 30.9 -7.1 31.8 -1.4 L31.9 2.3 Q31.95 6.2 31.45 9.45 L29.35 3.15 Q27.55 9.45 23.2 15.1 20.25 11.15 17.6 9.15 12.65 14.1 6.55 17.35 0.75 12.75 -3.85 6.55 L-9.35 12.8 Q-17.15 4.9 -21.6 -4.1 -26.8 -0.05 -29.95 6.75 -35.5 -1.1 -38.95 -9.65 L-44.35 0.35 -44.25 -1.3 -44.1 -2.7" fill="url(#gradient0)" fill-rule="evenodd" stroke="none"/>
      <path d="M-44.1 -2.7 L-38.9 -13.55 Q-34.6 -6.4 -29.2 -1.75 -26.45 -10.05 -22.1 -15.95 -17.85 -10.7 -11.85 -6.65 -7.05 -11.35 -4.0 -18.6 2.55 -14.5 8.05 -8.4 13.4 -11.5 15.95 -16.15 20.95 -11.8 23.75 -5.6 28.25 -7.75 28.9 -11.4 30.9 -7.1 31.8 -1.4 L31.15 -9.6 30.55 -13.25 Q28.5 -23.9 23.45 -26.75 12.9 -32.6 -3.65 -33.35 -38.1 -37.15 -43.5 -7.15 L-44.1 -2.7 -44.25 -1.3 -44.35 0.35 -38.95 -9.65 Q-35.5 -1.1 -29.95 6.75 -26.8 -0.05 -21.6 -4.1 -17.15 4.9 -9.35 12.8 L-3.85 6.55 Q0.75 12.75 6.55 17.35 12.65 14.1 17.6 9.15 20.25 11.15 23.2 15.1 27.55 9.45 29.35 3.15 L31.45 9.45 Q31.95 6.2 31.9 2.3 L31.8 -1.4 M19.7 24.7 L19.6 24.8 20.1 24.7 M19.7 24.7 Q29.55 21.65 31.45 9.45 M-44.35 0.35 L-44.4 0.8 -44.5 3.8 -44.5 4.2 Q-44.55 9.8 -43.9 16.2 -42.35 25.4 -10.5 26.3 9.15 26.65 19.6 24.8" fill="none" stroke="#ffffff" stroke-linecap="round" stroke-linejoin="round" stroke-opacity="0.4" stroke-width="3.0"/>
      <path d="M19.75 -28.45 Q23.75 -28.45 26.6 -25.6 29.45 -22.75 29.45 -18.75 29.45 -14.75 26.6 -11.9 23.75 -9.05 19.75 -9.05 15.75 -9.05 12.9 -11.9 10.05 -14.75 10.05 -18.75 10.05 -22.75 12.9 -25.6 15.75 -28.45 19.75 -28.45" fill="url(#gradient1)" fill-rule="evenodd" stroke="none"/>
      <path d="M-13.4 -14.55 Q-16.25 -11.7 -20.25 -11.7 -24.25 -11.7 -27.1 -14.55 -29.95 -17.4 -29.95 -21.4 -29.95 -25.4 -27.1 -28.25 -24.25 -31.1 -20.25 -31.1 -16.25 -31.1 -13.4 -28.25 -10.55 -25.4 -10.55 -21.4 -10.55 -17.4 -13.4 -14.55" fill="url(#gradient2)" fill-rule="evenodd" stroke="none"/>
      <path d="M19.9 -23.55 Q20.75 -23.6 21.4 -22.95 22.0 -22.2 22.05 -21.3 L22.2 -18.3 Q22.2 -17.3 21.75 -16.65 21.2 -15.95 20.35 -15.9 19.55 -15.85 18.95 -16.5 18.35 -17.1 18.25 -18.1 L18.1 -21.1 Q18.05 -22.05 18.6 -22.75 19.15 -23.5 19.9 -23.55 M-21.0 -26.2 Q-20.0 -26.2 -19.35 -25.35 -18.65 -24.5 -18.65 -23.4 L-18.65 -19.85 Q-18.65 -18.7 -19.35 -17.95 -20.0 -17.1 -21.0 -17.1 -21.95 -17.1 -22.65 -17.95 -23.3 -18.7 -23.35 -19.85 L-23.35 -23.4 Q-23.35 -24.5 -22.65 -25.35 -21.95 -26.2 -21.0 -26.2" fill="#ffffff" fill-rule="evenodd" stroke="none"/>
      <path d="M19.9 -23.55 Q20.75 -23.6 21.4 -22.95 22.0 -22.2 22.05 -21.3 L22.2 -18.3 Q22.2 -17.3 21.75 -16.65 21.2 -15.95 20.35 -15.9 19.55 -15.85 18.95 -16.5 18.35 -17.1 18.25 -18.1 L18.1 -21.1 Q18.05 -22.05 18.6 -22.75 19.15 -23.5 19.9 -23.55 M-21.0 -26.2 Q-20.0 -26.2 -19.35 -25.35 -18.65 -24.5 -18.65 -23.4 L-18.65 -19.85 Q-18.65 -18.7 -19.35 -17.95 -20.0 -17.1 -21.0 -17.1 -21.95 -17.1 -22.65 -17.95 -23.3 -18.7 -23.35 -19.85 L-23.35 -23.4 Q-23.35 -24.5 -22.65 -25.35 -21.95 -26.2 -21.0 -26.2" fill="none" stroke="#ffffff" stroke-linecap="round" stroke-linejoin="round" stroke-opacity="0.4" stroke-width="3.0"/>
      <path d="M-2.05 2.35 Q0.85 -0.2 4.65 -0.65 L10.35 -0.2 Q13.2 0.45 16.4 2.05 23.4 -0.2 29.95 2.45 L31.35 3.05 31.9 3.35 33.15 4.05 Q35.55 5.45 37.85 7.55 L38.15 7.9 38.55 8.4 40.75 11.4 Q44.85 17.7 44.55 23.45 43.3 31.1 34.3 33.4 L28.95 33.8 Q21.15 33.45 13.65 27.8 12.35 26.65 11.6 25.05 10.55 23.0 10.35 20.15 L10.3 17.65 10.25 16.75 10.05 15.3 Q9.6 12.75 8.6 11.4 L7.75 10.55 Q6.75 9.85 5.45 9.95 -1.35 8.9 -2.05 2.35 M25.25 10.0 L23.25 7.6 Q20.0 4.1 16.4 2.05 20.0 4.1 23.25 7.6 L25.25 10.0" fill="url(#gradient3)" fill-rule="evenodd" stroke="none"/>
      <path d="M10.05 15.3 L6.55 17.35 Q0.75 12.75 -3.85 6.55 L-7.6 10.8 Q-5.35 5.2 -2.05 2.35 -1.35 8.9 5.45 9.95 6.75 9.85 7.75 10.55 L8.6 11.4 Q9.6 12.75 10.05 15.3" fill="url(#gradient4)" fill-rule="evenodd" stroke="none"/>
      <path d="M-2.05 2.35 Q0.85 -0.2 4.65 -0.65 L10.35 -0.2 Q13.2 0.45 16.4 2.05 23.4 -0.2 29.95 2.45 L31.35 3.05 31.9 3.35 33.15 4.05 Q35.55 5.45 37.85 7.55 L38.15 7.9 38.55 8.4 40.75 11.4 Q44.85 17.7 44.55 23.45 43.3 31.1 34.3 33.4 L28.95 33.8 Q21.15 33.45 13.65 27.8 12.35 26.65 11.6 25.05 10.55 23.0 10.35 20.15 L10.3 17.65 10.25 16.75 10.05 15.3 Q9.6 12.75 8.6 11.4 L7.75 10.55 Q6.75 9.85 5.45 9.95 M-7.6 10.8 Q-5.35 5.2 -2.05 2.35 M16.4 2.05 Q20.0 4.1 23.25 7.6 L25.25 10.0" fill="none" stroke="#ffffff" stroke-linecap="round" stroke-linejoin="round" stroke-opacity="0.2" stroke-width="3.0"/>
    </g>
    <linearGradient gradientTransform="matrix(-0.0102, 0.0131, -0.0199, -0.0154, 120.4, 85.2)" gradientUnits="userSpaceOnUse" id="gradient0" spreadMethod="pad" x1="-819.2" x2="819.2">
      <stop offset="0.058823529411764705" stop-color="#74cdc7"/>
      <stop offset="1.0" stop-color="#37a8a1"/>
    </linearGradient>
    <radialGradient cx="0" cy="0" gradientTransform="matrix(0.013, 0.0, 0.0, 0.013, 19.75, -18.75)" gradientUnits="userSpaceOnUse" id="gradient1" r="819.2" spreadMethod="pad">
      <stop offset="0.0" stop-color="#31825e"/>
      <stop offset="0.8392156862745098" stop-color="#ffffff" stop-opacity="0.0"/>
    </radialGradient>
    <radialGradient cx="0" cy="0" gradientTransform="matrix(0.013, 0.0, 0.0, 0.013, -20.25, -21.4)" gradientUnits="userSpaceOnUse" id="gradient2" r="819.2" spreadMethod="pad">
      <stop offset="0.0" stop-color="#31825e"/>
      <stop offset="0.8392156862745098" stop-color="#ffffff" stop-opacity="0.0"/>
    </radialGradient>
    <linearGradient gradientTransform="matrix(0.0069, -7.0E-4, 0.002, 0.0206, 4.6, 0.35)" gradientUnits="userSpaceOnUse" id="gradient3" spreadMethod="pad" x1="-819.2" x2="819.2">
      <stop offset="0.0" stop-color="#ffd0ca"/>
      <stop offset="1.0" stop-color="#ffa296"/>
    </linearGradient>
    <linearGradient gradientTransform="matrix(-0.0028, 0.0104, -0.0128, -0.0034, -0.1, 20.8)" gradientUnits="userSpaceOnUse" id="gradient4" spreadMethod="pad" x1="-819.2" x2="819.2">
      <stop offset="0.0" stop-color="#ffd0ca"/>
      <stop offset="1.0" stop-color="#cafdff"/>
    </linearGradient>
  </defs>
</svg>
