<?xml version="1.0" encoding="UTF-8" standalone="no"?>
<svg xmlns:xlink="http://www.w3.org/1999/xlink" height="531.5px" width="460.6px" xmlns="http://www.w3.org/2000/svg">
  <g transform="matrix(1.0, 0.0, 0.0, 1.0, 193.65, 334.05)">
    <use height="101.2" transform="matrix(1.6056, 0.0, 0.0, 1.6056, -117.8225, -240.9444)" width="118.3" xlink:href="#shape0"/>
  </g>
  <defs>
    <g id="shape0" transform="matrix(1.0, 0.0, 0.0, 1.0, 59.15, 50.6)">
      <path d="M-16.5 -28.75 Q-6.75 -33.7 6.7 -34.1 L10.3 -34.15 11.85 -34.1 Q16.7 -32.9 21.05 -30.85 L24.15 -29.25 Q28.35 -26.9 32.1 -23.65 33.8 -24.8 36.05 -22.95 L37.55 -21.5 Q46.8 -12.35 50.55 0.95 48.45 -3.75 45.15 -8.6 42.1 -13.1 37.95 -17.7 L34.8 -21.15 32.1 -23.65 34.8 -21.15 37.95 -17.7 Q42.1 -13.1 45.15 -8.6 48.45 -3.75 50.55 0.95 L51.05 2.15 51.9 4.5 Q52.85 7.25 53.35 9.95 52.85 14.3 51.25 18.75 54.4 23.7 55.1 30.75 54.75 32.4 54.0 33.85 54.05 36.6 52.2 39.65 49.55 42.7 46.25 44.8 L45.15 45.45 Q37.3 49.85 26.4 48.95 L12.4 47.9 11.5 47.8 5.55 47.15 1.3 47.6 Q0.2 47.8 -1.8 46.75 L-1.55 42.25 Q-3.35 43.35 -4.9 45.3 -14.15 41.0 -20.75 41.7 -24.35 42.05 -27.15 43.85 -25.45 40.9 -26.25 39.65 -29.3 41.6 -35.15 40.55 -36.05 32.65 -40.85 35.05 -45.7 37.45 -48.2 37.8 -50.7 38.15 -50.3 31.8 -50.4 24.25 -57.65 23.8 -54.05 19.95 -45.1 22.1 -45.5 17.4 -51.1 15.05 -45.35 14.3 -41.8 17.6 -37.5 20.65 -33.6 20.2 L-32.05 19.85 -31.65 19.45 Q-28.6 16.2 -27.65 9.25 L-26.8 5.4 Q-22.05 7.85 -14.85 8.9 -13.25 12.75 -9.35 13.35 -4.55 14.95 -1.4 11.75 L-1.6 12.1 -1.4 11.75 Q-4.55 14.95 -9.35 13.35 -13.25 12.75 -14.85 8.9 L-8.85 9.5 -8.4 9.5 -8.05 9.45 Q2.0 1.95 2.95 -8.3 2.9 -21.95 -8.95 -23.7 L-10.2 -23.85 -15.45 -24.6 -16.5 -28.75 M7.05 -5.25 Q9.15 -13.25 4.9 -19.1 9.15 -13.25 7.05 -5.25 M5.25 -25.55 Q-0.25 -29.1 -4.05 -26.75 -9.0 -28.05 -10.2 -23.85 -9.0 -28.05 -4.05 -26.75 -0.25 -29.1 5.25 -25.55 M46.6 13.05 L46.75 11.45 45.15 7.15 44.55 5.65 42.9 2.05 Q39.45 -5.15 34.95 -10.65 L31.75 -14.25 Q28.65 -17.4 25.1 -19.8 L23.6 -18.45 22.15 -17.2 18.25 -13.6 14.85 -10.1 Q11.1 -6.2 7.85 -2.1 L6.25 0.05 2.2 5.8 1.95 6.15 1.85 6.35 1.1 7.5 -0.4 9.95 -1.4 11.75 -0.4 9.95 1.1 7.5 1.85 6.35 -0.35 10.15 -1.6 12.1 -1.7 12.35 -1.75 12.4 -2.05 12.9 -2.1 12.95 Q-0.85 42.4 24.25 45.55 33.15 45.15 39.15 35.75 L39.55 35.1 Q42.35 34.75 44.3 39.45 44.3 32.85 42.0 30.35 L43.45 26.8 43.55 26.5 43.65 26.2 45.15 21.0 Q46.05 17.25 46.6 13.05 M49.1 23.7 L51.25 18.75 49.1 23.7 M-0.4 9.95 L-0.35 10.15 -0.4 9.95 M-4.05 -26.75 L-1.8 -25.95 -4.05 -26.75 M-45.1 22.1 Q-43.8 22.4 -42.4 22.85 -37.0 22.75 -33.9 21.15 L-32.05 19.85 -33.9 21.15 Q-37.0 22.75 -42.4 22.85 -43.8 22.4 -45.1 22.1 M2.5 39.3 Q-14.7 37.3 -24.35 29.25 -14.7 37.3 2.5 39.3" fill="#cafdff" fill-rule="evenodd" stroke="none"/>
      <path d="M1.85 6.35 L1.95 6.15 2.2 5.8 6.25 0.05 7.85 -2.1 Q11.1 -6.2 14.85 -10.1 L18.25 -13.6 22.15 -17.2 23.6 -18.45 25.1 -19.8 Q28.65 -17.4 31.75 -14.25 L34.95 -10.65 Q39.45 -5.15 42.9 2.05 L44.55 5.65 45.15 7.15 46.75 11.45 46.6 13.05 45.55 14.25 45.4 14.4 45.15 14.7 Q44.65 15.25 44.0 15.55 42.65 16.25 40.65 16.1 L40.55 16.1 40.2 16.1 40.65 16.5 Q42.35 21.0 41.25 24.7 L40.2 25.15 39.55 25.3 39.65 24.45 Q40.0 21.45 39.05 17.75 L38.85 17.6 Q37.75 16.3 36.6 16.2 L37.75 15.55 36.6 16.2 Q37.75 16.3 38.85 17.6 L39.05 17.75 Q40.0 21.45 39.65 24.45 L39.55 25.3 38.95 27.25 Q37.4 30.95 36.75 29.8 L36.5 29.4 35.25 30.4 34.85 30.6 Q32.4 31.65 29.25 29.35 L28.0 30.4 27.6 30.6 Q25.15 31.65 22.0 29.35 21.75 28.1 21.65 26.85 L20.85 28.95 Q19.55 32.9 16.45 27.9 15.8 25.85 15.85 23.15 L15.45 24.35 Q12.8 25.65 10.2 24.35 9.2 20.9 10.6 16.8 1.35 17.85 0.5 13.7 L-0.35 10.15 1.85 6.35 M37.75 15.55 L40.2 16.1 37.75 15.55 34.7 14.4 37.75 15.55 M36.5 29.4 L36.5 29.35 Q37.05 27.3 37.2 25.15 37.4 22.0 36.7 18.55 L35.75 17.05 35.25 16.45 Q32.25 13.1 29.45 18.55 25.85 12.05 22.55 17.95 L22.35 17.45 Q21.05 15.95 19.65 15.95 18.1 15.9 16.45 17.65 L16.35 18.35 16.2 17.25 15.1 16.05 16.2 17.25 16.35 18.35 16.45 17.65 Q18.1 15.9 19.65 15.95 21.05 15.95 22.35 17.45 L22.55 17.95 Q25.85 12.05 29.45 18.55 32.25 13.1 35.25 16.45 L36.3 16.2 36.35 16.2 36.6 16.2 36.35 16.2 36.3 16.2 35.25 16.45 35.75 17.05 36.7 18.55 Q37.4 22.0 37.2 25.15 37.05 27.3 36.5 29.35 L36.5 29.4 M22.55 17.95 L22.2 18.55 Q21.35 22.9 21.65 26.85 21.35 22.9 22.2 18.55 L22.55 17.95 M16.35 18.35 Q15.9 20.95 15.85 23.15 15.9 20.95 16.35 18.35 M10.6 16.8 L13.3 16.4 15.1 16.05 13.3 16.4 10.6 16.8 M29.25 29.35 Q30.6 24.35 29.45 18.55 30.6 24.35 29.25 29.35 M20.3 14.85 L15.1 16.05 20.3 14.85" fill="url(#gradient0)" fill-rule="evenodd" stroke="none"/>
      <path d="M37.55 -21.5 L39.9 -22.15 39.95 -22.15 Q41.65 -31.7 41.25 -47.0 42.2 -49.55 44.95 -47.0 61.05 -27.1 56.75 1.4 55.3 3.4 51.9 4.5 L51.05 2.15 50.55 0.95 Q46.8 -12.35 37.55 -21.5 M48.45 -17.15 Q46.95 -20.65 43.1 -22.45 41.75 -23.0 39.95 -22.15 41.75 -23.0 43.1 -22.45 46.95 -20.65 48.45 -17.15" fill="url(#gradient1)" fill-rule="evenodd" stroke="none"/>
      <path d="M-26.8 5.4 Q-37.05 0.1 -35.8 -11.7 L-35.75 -11.65 -35.65 -11.35 Q-34.95 -9.75 -33.7 -9.3 L-33.0 -9.15 Q-30.95 -9.0 -28.85 -11.5 L-28.05 -12.6 Q-26.65 -14.8 -26.0 -17.75 -25.45 -20.4 -25.7 -22.55 L-26.05 -24.3 Q-27.0 -27.1 -29.05 -27.25 L-30.15 -27.15 Q-31.25 -26.9 -32.3 -25.85 L-32.6 -25.55 -32.65 -25.5 Q-28.55 -38.85 -20.8 -48.85 -18.4 -49.75 -17.6 -47.3 -18.15 -36.9 -16.5 -28.75 L-15.45 -24.6 -10.2 -23.85 -8.95 -23.7 Q2.9 -21.95 2.95 -8.3 2.0 1.95 -8.05 9.45 L-8.4 9.5 -8.85 9.5 -14.85 8.9 Q-22.05 7.85 -26.8 5.4 M-13.65 -14.1 Q-13.2 -19.35 -15.45 -24.6 -13.2 -19.35 -13.65 -14.1" fill="url(#gradient2)" fill-rule="evenodd" stroke="none"/>
      <path d="M-33.7 -9.3 Q-32.95 -9.8 -32.0 -11.5 -30.6 -14.0 -29.8 -17.75 -28.95 -21.5 -29.1 -24.3 -29.25 -26.7 -30.15 -27.15 L-29.05 -27.25 Q-27.0 -27.1 -26.05 -24.3 L-25.7 -22.55 Q-25.45 -20.4 -26.0 -17.75 -26.65 -14.8 -28.05 -12.6 L-28.85 -11.5 Q-30.95 -9.0 -33.0 -9.15 L-33.7 -9.3" fill="#7cd7d4" fill-rule="evenodd" stroke="none"/>
      <path d="M46.6 13.05 Q46.05 17.25 45.15 21.0 L43.65 26.2 43.55 26.5 43.45 26.8 42.0 30.35 Q44.3 32.85 44.3 39.45 42.35 34.75 39.55 35.1 L39.15 35.75 Q33.15 45.15 24.25 45.55 -0.85 42.4 -2.1 12.95 L-2.05 12.9 -1.75 12.4 -1.7 12.35 -1.6 12.1 -0.35 10.15 0.5 13.7 Q1.35 17.85 10.6 16.8 9.2 20.9 10.2 24.35 12.8 25.65 15.45 24.35 L15.85 23.15 Q15.8 25.85 16.45 27.9 19.55 32.9 20.85 28.95 L21.65 26.85 Q21.75 28.1 22.0 29.35 25.15 31.65 27.6 30.6 L28.0 30.4 29.25 29.35 Q32.4 31.65 34.85 30.6 L35.25 30.4 36.5 29.4 36.75 29.8 Q37.4 30.95 38.95 27.25 L39.55 25.3 40.2 25.15 41.25 24.7 Q42.35 21.0 40.65 16.5 L40.2 16.1 40.55 16.1 40.65 16.1 Q42.65 16.25 44.0 15.55 44.65 15.25 45.15 14.7 L45.4 14.4 45.55 14.25 46.6 13.05" fill="url(#gradient3)" fill-rule="evenodd" stroke="none"/>
      <path d="M-16.5 -28.75 Q-6.75 -33.7 6.7 -34.1 L10.3 -34.15 11.85 -34.1 Q16.7 -32.9 21.05 -30.85 L24.15 -29.25 Q28.35 -26.9 32.1 -23.65 33.8 -24.8 36.05 -22.95 L37.55 -21.5 39.9 -22.15 39.95 -22.15 Q41.65 -31.7 41.25 -47.0 42.2 -49.55 44.95 -47.0 61.05 -27.1 56.75 1.4 55.3 3.4 51.9 4.5 52.85 7.25 53.35 9.95 52.85 14.3 51.25 18.75 54.4 23.7 55.1 30.75 54.75 32.4 54.0 33.85 54.05 36.6 52.2 39.65 49.55 42.7 46.25 44.8 L45.15 45.45 Q37.3 49.85 26.4 48.95 L12.4 47.9 11.5 47.8 5.55 47.15 1.3 47.6 Q0.2 47.8 -1.8 46.75 L-1.55 42.25 Q-3.35 43.35 -4.9 45.3 -14.15 41.0 -20.75 41.7 -24.35 42.05 -27.15 43.85 -25.45 40.9 -26.25 39.65 -29.3 41.6 -35.15 40.55 -36.05 32.65 -40.85 35.05 -45.7 37.45 -48.2 37.8 -50.7 38.15 -50.3 31.8 -50.4 24.25 -57.65 23.8 -54.05 19.95 -45.1 22.1 -45.5 17.4 -51.1 15.05 -45.35 14.3 -41.8 17.6 -37.5 20.65 -33.6 20.2 L-32.05 19.85 -31.65 19.45 Q-28.6 16.2 -27.65 9.25 L-26.8 5.4 Q-37.05 0.1 -35.8 -11.7 L-35.75 -11.65 -35.65 -11.35 Q-34.95 -9.75 -33.7 -9.3 -32.95 -9.8 -32.0 -11.5 -30.6 -14.0 -29.8 -17.75 -28.95 -21.5 -29.1 -24.3 -29.25 -26.7 -30.15 -27.15 -31.25 -26.9 -32.3 -25.85 L-32.6 -25.55 -32.65 -25.5 Q-28.55 -38.85 -20.8 -48.85 -18.4 -49.75 -17.6 -47.3 -18.15 -36.9 -16.5 -28.75 L-15.45 -24.6 -10.2 -23.85 M-14.85 8.9 Q-22.05 7.85 -26.8 5.4 M50.55 0.95 Q46.8 -12.35 37.55 -21.5 M39.95 -22.15 Q41.75 -23.0 43.1 -22.45 46.95 -20.65 48.45 -17.15 M51.05 2.15 L51.9 4.5 M40.2 16.1 L40.55 16.1 40.65 16.1 Q42.65 16.25 44.0 15.55 44.65 15.25 45.15 14.7 L45.4 14.4 45.55 14.25 46.6 13.05 M40.2 16.1 L37.75 15.55 34.7 14.4 M10.6 16.8 Q1.35 17.85 0.5 13.7 L-0.35 10.15 M51.25 18.75 L49.1 23.7 M15.1 16.05 L13.3 16.4 10.6 16.8 M15.1 16.05 L20.3 14.85 M-8.4 9.5 L-8.85 9.5 -14.85 8.9 M-15.45 -24.6 Q-13.2 -19.35 -13.65 -14.1 M-32.05 19.85 L-33.9 21.15 Q-37.0 22.75 -42.4 22.85 -43.8 22.4 -45.1 22.1" fill="none" stroke="#ffffff" stroke-linecap="round" stroke-linejoin="round" stroke-opacity="0.4" stroke-width="3.0"/>
      <path d="M-10.2 -23.85 Q-9.0 -28.05 -4.05 -26.75 -0.25 -29.1 5.25 -25.55 M4.9 -19.1 Q9.15 -13.25 7.05 -5.25 M1.85 6.35 L1.95 6.15 2.2 5.8 6.25 0.05 7.85 -2.1 Q11.1 -6.2 14.85 -10.1 L18.25 -13.6 22.15 -17.2 23.6 -18.45 25.1 -19.8 Q28.65 -17.4 31.75 -14.25 L34.95 -10.65 Q39.45 -5.15 42.9 2.05 L44.55 5.65 45.15 7.15 46.75 11.45 46.6 13.05 Q46.05 17.25 45.15 21.0 L43.65 26.2 43.55 26.5 43.45 26.8 42.0 30.35 Q44.3 32.85 44.3 39.45 42.35 34.75 39.55 35.1 L39.15 35.75 Q33.15 45.15 24.25 45.55 -0.85 42.4 -2.1 12.95 L-2.05 12.9 -1.75 12.4 -1.7 12.35 -1.6 12.1 -1.4 11.75 Q-4.55 14.95 -9.35 13.35 -13.25 12.75 -14.85 8.9 M32.1 -23.65 L34.8 -21.15 37.95 -17.7 Q42.1 -13.1 45.15 -8.6 48.45 -3.75 50.55 0.95 L51.05 2.15 M39.55 25.3 L40.2 25.15 41.25 24.7 Q42.35 21.0 40.65 16.5 L40.2 16.1 M37.75 15.55 L36.6 16.2 Q37.75 16.3 38.85 17.6 L39.05 17.75 Q40.0 21.45 39.65 24.45 L39.55 25.3 38.95 27.25 Q37.4 30.95 36.75 29.8 L36.5 29.4 35.25 30.4 34.85 30.6 Q32.4 31.65 29.25 29.35 L28.0 30.4 27.6 30.6 Q25.15 31.65 22.0 29.35 21.75 28.1 21.65 26.85 L20.85 28.95 Q19.55 32.9 16.45 27.9 15.8 25.85 15.85 23.15 L15.45 24.35 Q12.8 25.65 10.2 24.35 9.2 20.9 10.6 16.8 M-0.35 10.15 L-1.6 12.1 M15.1 16.05 L16.2 17.25 16.35 18.35 16.45 17.65 Q18.1 15.9 19.65 15.95 21.05 15.95 22.35 17.45 L22.55 17.95 Q25.85 12.05 29.45 18.55 32.25 13.1 35.25 16.45 L36.3 16.2 36.35 16.2 36.6 16.2 M21.65 26.85 Q21.35 22.9 22.2 18.55 L22.55 17.95 M35.25 16.45 L35.75 17.05 36.7 18.55 Q37.4 22.0 37.2 25.15 37.05 27.3 36.5 29.35 L36.5 29.4 M-1.4 11.75 L-0.4 9.95 1.1 7.5 1.85 6.35 -0.35 10.15 -0.4 9.95 M15.85 23.15 Q15.9 20.95 16.35 18.35 M29.45 18.55 Q30.6 24.35 29.25 29.35 M-1.8 -25.95 L-4.05 -26.75 M-30.15 -27.15 L-29.05 -27.25 Q-27.0 -27.1 -26.05 -24.3 L-25.7 -22.55 Q-25.45 -20.4 -26.0 -17.75 -26.65 -14.8 -28.05 -12.6 L-28.85 -11.5 Q-30.95 -9.0 -33.0 -9.15 L-33.7 -9.3 M-10.2 -23.85 L-8.95 -23.7 Q2.9 -21.95 2.95 -8.3 2.0 1.95 -8.05 9.45 L-8.4 9.5 M-24.35 29.25 Q-14.7 37.3 2.5 39.3" fill="none" stroke="#2ec1a7" stroke-linecap="round" stroke-linejoin="round" stroke-opacity="0.4" stroke-width="0.7000000000000001"/>
      <path d="M22.8 -2.75 Q25.65 0.1 25.65 4.1 25.65 8.1 22.8 10.95 19.95 13.8 15.95 13.8 11.95 13.8 9.1 10.95 6.25 8.1 6.25 4.1 6.25 0.1 9.1 -2.75 11.95 -5.6 15.95 -5.6 19.95 -5.6 22.8 -2.75" fill="url(#gradient4)" fill-rule="evenodd" stroke="none"/>
      <path d="M33.95 -5.4 Q37.95 -5.4 40.8 -2.55 43.65 0.3 43.65 4.3 43.65 8.3 40.8 11.15 37.95 14.0 33.95 14.0 29.95 14.0 27.1 11.15 24.25 8.3 24.25 4.3 24.25 0.3 27.1 -2.55 29.95 -5.4 33.95 -5.4" fill="url(#gradient5)" fill-rule="evenodd" stroke="none"/>
      <path d="M36.15 -0.4 Q36.85 0.45 36.9 1.5 L37.1 5.0 Q37.1 6.2 36.55 6.95 35.9 7.8 34.9 7.85 34.0 7.9 33.25 7.15 32.55 6.4 32.5 5.25 L32.3 1.7 Q32.25 0.65 32.9 -0.2 33.5 -1.1 34.4 -1.1 35.4 -1.2 36.15 -0.4" fill="#ffffff" fill-rule="evenodd" stroke="none"/>
      <path d="M17.7 -0.5 Q18.45 0.4 18.55 1.55 L18.7 5.3 Q18.75 6.55 18.15 7.4 17.45 8.25 16.4 8.35 15.4 8.4 14.65 7.55 13.9 6.8 13.8 5.55 L13.6 1.75 Q13.55 0.6 14.2 -0.3 14.9 -1.25 15.9 -1.3 16.9 -1.35 17.7 -0.5" fill="#ffffff" fill-rule="evenodd" stroke="none"/>
    </g>
    <linearGradient gradientTransform="matrix(0.0, -0.0201, 0.0204, 0.0, 155.4, 9.3)" gradientUnits="userSpaceOnUse" id="gradient0" spreadMethod="pad" x1="-819.2" x2="819.2">
      <stop offset="0.0" stop-color="#cafdff"/>
      <stop offset="1.0" stop-color="#3dbab2"/>
    </linearGradient>
    <linearGradient gradientTransform="matrix(-0.0151, 0.014, -0.0115, -0.0164, 53.25, -9.95)" gradientUnits="userSpaceOnUse" id="gradient1" spreadMethod="pad" x1="-819.2" x2="819.2">
      <stop offset="0.08627450980392157" stop-color="#85eae3"/>
      <stop offset="1.0" stop-color="#3dbab2"/>
    </linearGradient>
    <linearGradient gradientTransform="matrix(0.0242, 0.0085, -0.0083, 0.0238, -16.5, -1.55)" gradientUnits="userSpaceOnUse" id="gradient2" spreadMethod="pad" x1="-819.2" x2="819.2">
      <stop offset="0.058823529411764705" stop-color="#85eae3"/>
      <stop offset="1.0" stop-color="#3dbab2"/>
    </linearGradient>
    <linearGradient gradientTransform="matrix(0.002, -0.0219, 0.0279, 0.0026, 28.8, -5.0)" gradientUnits="userSpaceOnUse" id="gradient3" spreadMethod="pad" x1="-819.2" x2="819.2">
      <stop offset="0.4196078431372549" stop-color="#41c0b8"/>
      <stop offset="1.0" stop-color="#21877f"/>
    </linearGradient>
    <radialGradient cx="0" cy="0" gradientTransform="matrix(0.013, 0.0, 0.0, 0.013, 15.95, 4.1)" gradientUnits="userSpaceOnUse" id="gradient4" r="819.2" spreadMethod="pad">
      <stop offset="0.0" stop-color="#91ffcf"/>
      <stop offset="0.8392156862745098" stop-color="#ffffff" stop-opacity="0.0"/>
    </radialGradient>
    <radialGradient cx="0" cy="0" gradientTransform="matrix(0.013, 0.0, 0.0, 0.013, 33.95, 4.3)" gradientUnits="userSpaceOnUse" id="gradient5" r="819.2" spreadMethod="pad">
      <stop offset="0.0" stop-color="#91ffcf"/>
      <stop offset="0.8392156862745098" stop-color="#ffffff" stop-opacity="0.0"/>
    </radialGradient>
  </defs>
</svg>
