<?xml version="1.0" encoding="UTF-8" standalone="no"?>
<svg xmlns:xlink="http://www.w3.org/1999/xlink" height="531.5px" width="460.6px" xmlns="http://www.w3.org/2000/svg">
  <g transform="matrix(1.0, 0.0, 0.0, 1.0, 193.65, 334.05)">
    <use height="177.55" transform="matrix(1.0, 0.0, 0.0, 1.0, -88.3, -248.4)" width="169.3" xlink:href="#shape0"/>
  </g>
  <defs>
    <g id="shape0" transform="matrix(1.0, 0.0, 0.0, 1.0, 88.3, 248.4)">
      <path d="M44.95 -242.2 L44.55 -241.9 Q34.3 -237.1 25.25 -228.9 L22.45 -226.35 18.45 -222.15 13.0 -215.8 10.9 -219.05 Q13.3 -222.55 15.85 -225.55 18.95 -229.45 22.45 -232.75 33.95 -243.55 48.95 -247.9 L50.6 -244.35 44.95 -242.2 M-24.1 -227.4 Q-19.8 -222.05 -16.05 -215.55 L-15.65 -213.55 -21.15 -213.9 -26.4 -220.9 Q-29.9 -225.1 -33.7 -228.85 -40.85 -236.05 -49.3 -241.5 L-53.5 -244.4 -51.9 -247.3 Q-41.9 -243.55 -33.7 -236.85 -28.55 -232.75 -24.1 -227.4" fill="#6b0000" fill-rule="evenodd" stroke="none"/>
      <path d="M13.0 -215.8 L18.45 -222.15 22.45 -226.35 25.25 -228.9 Q34.3 -237.1 44.55 -241.9 L44.95 -242.2 50.6 -244.35 Q58.45 -225.9 49.95 -206.35 L47.5 -201.3 46.15 -199.0 44.7 -198.6 43.35 -202.9 41.6 -203.4 Q36.05 -204.6 30.15 -204.35 31.35 -207.2 31.35 -210.0 L31.35 -210.85 30.85 -213.95 28.65 -214.05 24.1 -214.1 22.45 -214.05 14.25 -213.15 13.0 -215.8 M-4.75 -201.8 L1.85 -202.1 12.5 -201.25 Q17.65 -200.45 22.45 -198.7 29.2 -196.3 35.15 -192.25 L34.7 -192.15 32.45 -190.2 Q18.3 -183.25 12.35 -168.95 10.25 -163.95 5.1 -162.1 2.3 -164.4 -1.1 -170.8 -6.05 -180.95 -16.55 -186.2 -12.05 -194.25 -4.75 -201.8 M-57.1 -236.15 Q-55.75 -240.35 -53.5 -244.4 L-49.3 -241.5 Q-40.85 -236.05 -33.7 -228.85 -29.9 -225.1 -26.4 -220.9 L-21.15 -213.9 -26.05 -213.55 -28.2 -207.85 Q-31.0 -208.15 -33.7 -209.1 -41.9 -212.2 -49.0 -221.45 -55.0 -229.4 -57.1 -236.15 M46.45 -182.15 Q58.45 -168.15 58.0 -149.7 57.85 -143.7 56.35 -138.05 L56.3 -138.0 Q47.0 -131.9 34.6 -135.4 L30.55 -136.4 Q20.35 -139.05 11.55 -140.4 L4.15 -139.75 Q-5.95 -138.1 -21.15 -132.1 L-22.5 -131.8 Q-24.1 -139.85 -24.15 -149.3 L-23.05 -149.85 -18.45 -146.45 Q-19.3 -149.3 -20.5 -152.15 -19.3 -153.45 -18.6 -154.95 -17.15 -157.75 -17.15 -161.05 -17.15 -166.55 -21.0 -170.45 L-22.15 -171.5 -21.4 -174.35 -20.1 -173.8 Q-14.2 -171.0 -10.0 -165.55 -5.85 -160.2 -3.0 -154.95 L-3.0 -154.8 Q1.3 -146.7 9.1 -146.35 15.05 -146.3 20.7 -154.95 L22.45 -157.9 23.8 -160.5 Q30.7 -175.0 38.25 -177.75 44.95 -180.5 46.45 -182.15 M49.65 -123.7 Q46.05 -118.5 40.9 -114.05 L37.25 -111.05 Q22.1 -99.6 1.85 -99.6 L-3.7 -99.85 Q-14.8 -107.8 -19.8 -121.8 L-18.9 -122.1 Q-7.15 -126.0 2.65 -127.65 L6.55 -128.25 Q4.45 -127.25 2.7 -125.5 L1.85 -124.5 Q-1.2 -120.9 -1.2 -116.15 -1.2 -110.55 2.7 -106.65 6.6 -102.85 12.1 -102.85 14.95 -102.85 17.45 -103.8 19.65 -104.85 21.55 -106.65 25.4 -110.55 25.4 -116.15 25.4 -121.65 21.55 -125.5 L19.35 -127.25 Q35.5 -123.55 49.55 -123.7 L49.65 -123.7 M43.6 -173.9 L40.9 -174.2 38.05 -173.9 Q34.6 -173.1 31.9 -170.3 28.15 -166.5 28.15 -160.9 28.15 -155.45 31.9 -151.55 32.6 -150.75 33.4 -150.2 32.95 -147.0 32.85 -143.95 L35.9 -147.8 36.35 -148.45 Q38.45 -147.65 40.9 -147.65 46.15 -147.65 49.95 -151.55 53.6 -155.45 53.6 -160.9 53.6 -166.5 49.95 -170.3 48.55 -171.8 46.8 -172.7 L47.65 -178.4 43.6 -173.9" fill="#d62424" fill-rule="evenodd" stroke="none"/>
      <path d="M15.85 -225.55 Q13.3 -222.55 10.9 -219.05 L13.0 -215.8 14.25 -213.15 22.45 -214.05 24.1 -214.1 28.65 -214.05 30.85 -213.95 31.35 -210.85 31.35 -210.0 Q31.35 -207.2 30.15 -204.35 36.05 -204.6 41.6 -203.4 L43.35 -202.9 44.7 -198.6 46.15 -199.0 47.5 -201.3 49.95 -206.35 Q53.4 -203.4 57.05 -198.95 64.75 -189.6 64.75 -183.65 64.75 -182.3 62.9 -180.9 61.75 -179.9 60.7 -179.45 67.3 -172.2 70.7 -167.2 77.65 -157.2 77.65 -150.2 77.65 -142.95 73.5 -141.25 L71.25 -140.85 77.4 -131.8 Q80.25 -127.65 80.25 -123.2 80.25 -119.95 77.8 -116.85 75.25 -113.6 71.85 -113.45 L71.85 -113.3 Q75.15 -112.4 77.9 -108.35 80.5 -104.35 80.5 -100.65 80.5 -95.8 73.5 -95.8 L75.0 -91.0 Q75.65 -88.2 75.65 -85.35 75.65 -82.65 72.45 -81.6 68.75 -80.25 50.3 -84.0 51.05 -82.2 51.0 -80.25 51.0 -78.45 49.55 -77.4 46.05 -74.8 42.0 -74.45 L39.3 -78.2 Q35.25 -81.55 35.25 -82.2 35.25 -82.75 36.3 -83.7 37.25 -84.7 37.25 -85.9 37.25 -90.45 29.3 -92.45 L18.45 -94.05 18.45 -94.25 Q25.7 -99.7 30.8 -104.35 34.6 -107.85 37.25 -111.05 L40.9 -114.05 Q46.05 -118.5 49.65 -123.7 54.4 -124.8 57.6 -130.3 59.2 -136.8 56.4 -138.1 L56.35 -138.05 Q57.85 -143.7 58.0 -149.7 58.45 -168.15 46.45 -182.15 L46.7 -182.4 Q48.2 -186.45 44.65 -190.4 40.75 -194.1 35.15 -192.25 29.2 -196.3 22.45 -198.7 17.65 -200.45 12.5 -201.25 L10.2 -205.7 Q5.9 -212.6 1.55 -212.6 0.15 -212.6 -1.8 -210.6 -3.0 -215.4 -10.15 -222.65 -13.65 -226.3 -17.0 -228.9 -12.45 -228.85 -7.4 -227.1 L-4.05 -225.65 Q-5.3 -229.25 -5.3 -234.0 L-3.55 -234.0 Q-0.3 -234.0 6.2 -231.2 12.65 -228.5 15.85 -225.55 M46.15 -199.0 L49.65 -199.9 51.15 -200.1 51.45 -198.95 52.65 -196.0 51.45 -198.95 51.15 -200.1 49.65 -199.9 46.15 -199.0 M3.3 -217.0 Q4.4 -220.55 6.8 -223.5 9.15 -221.45 10.9 -219.05 9.15 -221.45 6.8 -223.5 4.4 -220.55 3.3 -217.0 M49.55 -84.25 L50.3 -84.0 49.55 -84.25 M59.1 -91.95 Q60.2 -91.9 60.95 -92.3 61.65 -92.7 61.65 -93.4 61.65 -94.25 61.0 -95.6 L60.15 -97.45 63.3 -98.4 Q64.85 -99.2 64.85 -100.65 64.85 -102.6 63.55 -104.75 62.05 -107.3 60.05 -107.45 62.05 -107.3 63.55 -104.75 64.85 -102.6 64.85 -100.65 64.85 -99.2 63.3 -98.4 L60.15 -97.45 61.0 -95.6 Q61.65 -94.25 61.65 -93.4 61.65 -92.7 60.95 -92.3 60.2 -91.9 59.1 -91.95 M69.5 -140.95 L71.25 -140.85 69.5 -140.95 M-2.35 -222.3 L-4.05 -225.65 -2.35 -222.3" fill="#fff9eb" fill-rule="evenodd" stroke="none"/>
      <path d="M12.5 -201.25 L1.85 -202.1 -4.75 -201.8 Q-21.15 -200.2 -33.7 -190.65 L-34.2 -190.2 Q-38.25 -190.5 -42.7 -189.3 -47.3 -188.1 -49.95 -183.6 -53.2 -177.95 -49.0 -175.45 L-48.4 -175.3 -48.25 -175.3 -47.7 -175.3 Q-54.7 -163.85 -54.4 -149.7 -54.15 -140.1 -50.5 -131.75 L-50.55 -131.75 Q-51.85 -128.25 -49.75 -124.0 -48.0 -121.45 -43.25 -120.1 -40.6 -116.95 -37.3 -114.05 -23.05 -101.45 -3.7 -99.85 L1.85 -99.6 Q22.1 -99.6 37.25 -111.05 34.6 -107.85 30.8 -104.35 25.7 -99.7 18.45 -94.25 L18.45 -94.05 29.3 -92.45 Q37.25 -90.45 37.25 -85.9 37.25 -84.7 36.3 -83.7 35.25 -82.75 35.25 -82.2 35.25 -81.55 39.3 -78.2 L42.0 -74.45 Q39.15 -74.15 36.05 -74.95 31.85 -75.8 27.6 -78.05 22.9 -71.2 14.95 -75.0 10.65 -77.1 7.0 -79.85 L2.3 -76.0 Q-11.7 -69.3 -20.05 -72.3 -28.4 -75.35 -26.95 -80.35 -38.95 -80.25 -41.0 -90.2 -55.35 -79.8 -66.8 -79.8 -71.9 -79.8 -74.9 -84.1 -77.6 -87.9 -77.6 -93.1 -77.6 -94.9 -77.2 -96.65 -76.8 -98.3 -76.35 -98.8 -79.2 -98.1 -80.85 -99.75 -82.3 -101.2 -82.3 -103.5 -82.3 -106.5 -79.9 -110.0 -78.1 -112.9 -75.2 -115.2 -75.95 -114.7 -76.75 -114.65 L-78.3 -114.65 Q-82.55 -114.65 -85.15 -117.1 -87.8 -119.7 -87.8 -124.1 -87.8 -130.6 -82.2 -137.95 -77.55 -144.05 -70.85 -148.35 L-74.05 -148.1 -77.45 -148.5 Q-79.3 -149.3 -79.3 -151.6 -79.3 -156.7 -75.7 -162.9 -72.5 -168.4 -67.75 -172.3 L-70.45 -171.35 Q-74.1 -170.05 -76.4 -170.05 L-78.0 -170.0 -78.65 -170.3 Q-76.8 -181.1 -69.55 -189.3 -63.05 -196.8 -54.45 -202.05 L-53.05 -198.85 -51.45 -201.65 Q-45.25 -201.85 -40.55 -199.9 -40.7 -202.35 -39.85 -205.2 L-39.45 -206.5 -33.7 -207.35 -28.95 -207.45 -28.4 -207.45 -28.2 -207.85 -26.05 -213.55 -21.15 -213.9 -15.65 -213.55 -16.05 -215.55 Q-19.8 -222.05 -24.1 -227.4 L-23.7 -227.65 Q-21.55 -228.9 -17.4 -228.9 L-17.0 -228.9 Q-13.65 -226.3 -10.15 -222.65 -3.0 -215.4 -1.8 -210.6 0.15 -212.6 1.55 -212.6 5.9 -212.6 10.2 -205.7 L12.5 -201.25 M-11.5 -219.3 Q-13.6 -220.4 -16.2 -220.9 -16.3 -217.6 -16.05 -215.55 -16.3 -217.6 -16.2 -220.9 -13.6 -220.4 -11.5 -219.3 M-54.4 -194.25 Q-54.15 -196.6 -53.05 -198.85 -54.15 -196.6 -54.4 -194.25 M-66.25 -172.75 L-67.75 -172.3 -66.25 -172.75 M-44.85 -101.25 L-48.1 -99.6 -49.95 -99.2 -52.95 -98.55 Q-55.25 -98.4 -55.5 -99.45 -55.75 -100.4 -53.45 -103.95 L-50.1 -108.4 -53.45 -103.95 Q-55.75 -100.4 -55.5 -99.45 -55.25 -98.4 -52.95 -98.55 L-49.95 -99.2 -48.1 -99.6 -44.85 -101.25 M-37.3 -93.15 L-41.0 -90.2 -37.3 -93.15 M-48.1 -99.6 Q-48.75 -98.3 -48.4 -97.7 -46.45 -95.95 -43.95 -96.95 L-42.3 -97.45 -43.95 -96.95 Q-46.45 -95.95 -48.4 -97.7 -48.75 -98.3 -48.1 -99.6" fill="url(#gradient0)" fill-rule="evenodd" stroke="none"/>
      <path d="M-16.55 -186.2 Q-6.05 -180.95 -1.1 -170.8 2.3 -164.4 5.1 -162.1 7.0 -160.5 8.6 -160.85 L10.2 -161.15 8.45 -156.4 Q8.45 -155.25 9.15 -154.45 9.9 -153.75 10.65 -153.75 15.35 -153.75 20.45 -162.5 25.0 -170.3 25.0 -174.75 25.0 -176.4 23.85 -179.2 L23.3 -180.55 Q27.35 -185.8 32.45 -190.2 L34.7 -192.15 35.15 -192.25 Q40.75 -194.1 44.65 -190.4 48.2 -186.45 46.7 -182.4 L46.45 -182.15 Q44.95 -180.5 38.25 -177.75 30.7 -175.0 23.8 -160.5 L22.45 -157.9 20.7 -154.95 Q15.05 -146.3 9.1 -146.35 1.3 -146.7 -3.0 -154.8 L-3.0 -154.95 Q-5.85 -160.2 -10.0 -165.55 -14.2 -171.0 -20.1 -173.8 L-21.4 -174.35 Q-25.05 -175.8 -29.0 -176.2 L-29.15 -177.7 Q-29.15 -183.35 -24.7 -187.55 L-23.35 -188.75 -22.55 -188.6 Q-19.3 -187.55 -16.55 -186.2 M56.35 -138.05 L56.4 -138.1 Q59.2 -136.8 57.6 -130.3 54.4 -124.8 49.65 -123.7 L49.55 -123.7 Q35.5 -123.55 19.35 -127.25 L13.6 -128.8 6.55 -128.25 2.65 -127.65 Q-7.15 -126.0 -18.9 -122.1 L-19.8 -121.8 Q-25.3 -120.05 -29.9 -119.3 L-31.15 -120.6 Q-33.7 -123.6 -33.7 -126.9 -33.7 -128.55 -33.15 -130.3 L-22.5 -131.8 -21.15 -132.1 Q-5.95 -138.1 4.15 -139.75 1.2 -138.5 1.2 -137.05 1.2 -135.25 10.45 -132.7 19.35 -130.15 24.35 -130.15 27.55 -130.15 29.5 -131.4 31.25 -132.5 31.25 -134.2 31.25 -135.15 30.55 -136.4 L34.6 -135.4 Q47.0 -131.9 56.3 -138.0 L56.35 -138.05" fill="#f2e2c4" fill-rule="evenodd" stroke="none"/>
      <path d="M38.05 -173.9 L40.9 -174.2 43.6 -173.9 Q45.25 -173.55 46.8 -172.7 48.55 -171.8 49.95 -170.3 53.6 -166.5 53.6 -160.9 53.6 -155.45 49.95 -151.55 46.15 -147.65 40.9 -147.65 38.45 -147.65 36.35 -148.45 35.65 -148.75 34.95 -149.15 L34.75 -149.45 Q32.55 -153.5 32.55 -159.1 32.55 -164.0 33.75 -167.2 34.85 -170.2 38.05 -173.9 M-22.15 -171.5 L-21.0 -170.45 Q-17.15 -166.55 -17.15 -161.05 -17.15 -157.75 -18.6 -154.95 -19.3 -153.45 -20.5 -152.15 L-21.0 -151.7 -23.05 -149.85 -24.15 -149.3 Q-26.45 -148.05 -29.15 -147.8 -31.65 -148.6 -33.8 -150.9 -37.45 -154.85 -37.45 -160.85 -37.45 -165.15 -34.9 -170.3 L-33.7 -172.45 -32.5 -174.1 -30.45 -174.35 -28.7 -174.2 Q-25.05 -173.8 -22.15 -171.5 M6.55 -128.25 L13.6 -128.8 19.35 -127.25 21.55 -125.5 Q25.4 -121.65 25.4 -116.15 25.4 -110.55 21.55 -106.65 19.65 -104.85 17.45 -103.8 13.2 -104.75 8.7 -108.6 1.7 -114.55 1.7 -122.75 L1.85 -124.5 2.7 -125.5 Q4.45 -127.25 6.55 -128.25 M18.05 -121.25 Q16.0 -123.3 13.15 -123.3 10.25 -123.3 8.3 -121.25 6.2 -119.25 6.2 -116.4 6.2 -113.5 8.3 -111.45 10.25 -109.4 13.15 -109.4 16.0 -109.4 18.05 -111.45 20.15 -113.5 20.15 -116.4 20.15 -119.25 18.05 -121.25 M-22.5 -162.6 Q-22.5 -164.35 -23.2 -165.7 L-24.55 -167.45 Q-26.55 -169.5 -29.4 -169.5 -31.9 -169.5 -33.7 -168.0 L-34.35 -167.45 Q-36.4 -165.45 -36.4 -162.6 -36.4 -159.65 -34.35 -157.65 L-33.7 -157.1 Q-31.9 -155.6 -29.4 -155.6 -26.55 -155.6 -24.55 -157.65 L-23.9 -158.3 Q-22.5 -160.1 -22.5 -162.6" fill="#ffc247" fill-rule="evenodd" stroke="none"/>
      <path d="M43.6 -173.9 L47.65 -178.4 46.8 -172.7 Q45.25 -173.55 43.6 -173.9 M36.35 -148.45 L35.9 -147.8 32.85 -143.95 Q32.95 -147.0 33.4 -150.2 34.2 -149.6 34.95 -149.15 35.65 -148.75 36.35 -148.45 M-20.5 -152.15 Q-19.3 -149.3 -18.45 -146.45 L-23.05 -149.85 -21.0 -151.7 -20.5 -152.15 M-39.45 -170.85 L-41.65 -175.85 Q-39.05 -174.45 -36.75 -172.75 -38.15 -172.05 -39.45 -170.85" fill="#000000" fill-rule="evenodd" stroke="none"/>
      <path d="M-4.75 -201.8 Q-12.05 -194.25 -16.55 -186.2 -19.3 -187.55 -22.55 -188.6 L-23.35 -188.75 -33.7 -190.2 -34.0 -190.2 -34.2 -190.2 -33.7 -190.65 Q-21.15 -200.2 -4.75 -201.8 M5.1 -162.1 Q10.25 -163.95 12.35 -168.95 18.3 -183.25 32.45 -190.2 27.35 -185.8 23.3 -180.55 L22.45 -179.5 19.75 -175.65 Q16.95 -171.15 15.05 -167.05 12.75 -162.25 10.2 -161.15 L8.6 -160.85 Q7.0 -160.5 5.1 -162.1 M-54.45 -202.05 Q-62.1 -220.1 -57.1 -236.15 -55.0 -229.4 -49.0 -221.45 -41.9 -212.2 -33.7 -209.1 -31.0 -208.15 -28.2 -207.85 L-28.4 -207.45 -28.95 -207.45 -33.7 -207.35 -39.45 -206.5 -39.85 -205.2 Q-40.7 -202.35 -40.55 -199.9 -45.25 -201.85 -51.45 -201.65 L-53.05 -198.85 -54.45 -202.05 M-21.4 -174.35 L-22.15 -171.5 Q-25.05 -173.8 -28.7 -174.2 L-30.45 -174.35 -32.5 -174.1 -33.7 -173.95 Q-35.3 -173.55 -36.75 -172.75 -39.05 -174.45 -41.65 -175.85 L-39.45 -170.85 -39.85 -170.45 Q-43.75 -166.55 -43.75 -161.05 -43.75 -155.5 -39.85 -151.7 -35.95 -147.8 -30.45 -147.8 L-29.15 -147.8 Q-26.45 -148.05 -24.15 -149.3 -24.1 -139.85 -22.5 -131.8 L-33.15 -130.3 Q-42.6 -129.65 -50.5 -131.75 -54.15 -140.1 -54.4 -149.7 -54.7 -163.85 -47.7 -175.3 L-33.7 -176.4 -33.45 -176.4 -29.0 -176.2 Q-25.05 -175.8 -21.4 -174.35 M-19.8 -121.8 Q-14.8 -107.8 -3.7 -99.85 -23.05 -101.45 -37.3 -114.05 -40.6 -116.95 -43.25 -120.1 L-39.1 -119.25 Q-35.05 -118.6 -29.9 -119.3 -25.3 -120.05 -19.8 -121.8" fill="#bd0505" fill-rule="evenodd" stroke="none"/>
      <path d="M10.2 -161.15 Q12.75 -162.25 15.05 -167.05 16.95 -171.15 19.75 -175.65 L22.45 -179.5 23.3 -180.55 23.85 -179.2 Q25.0 -176.4 25.0 -174.75 25.0 -170.3 20.45 -162.5 15.35 -153.75 10.65 -153.75 9.9 -153.75 9.15 -154.45 8.45 -155.25 8.45 -156.4 L10.2 -161.15 M4.15 -139.75 L11.55 -140.4 Q20.35 -139.05 30.55 -136.4 31.25 -135.15 31.25 -134.2 31.25 -132.5 29.5 -131.4 27.55 -130.15 24.35 -130.15 19.35 -130.15 10.45 -132.7 1.2 -135.25 1.2 -137.05 1.2 -138.5 4.15 -139.75" fill="#fcf0d8" fill-rule="evenodd" stroke="none"/>
      <path d="M33.4 -150.2 Q32.6 -150.75 31.9 -151.55 28.15 -155.45 28.15 -160.9 28.15 -166.5 31.9 -170.3 34.6 -173.1 38.05 -173.9 34.85 -170.2 33.75 -167.2 32.55 -164.0 32.55 -159.1 32.55 -153.5 34.75 -149.45 L34.95 -149.15 Q34.2 -149.6 33.4 -150.2 M1.85 -124.5 L1.7 -122.75 Q1.7 -114.55 8.7 -108.6 13.2 -104.75 17.45 -103.8 14.95 -102.85 12.1 -102.85 6.6 -102.85 2.7 -106.65 -1.2 -110.55 -1.2 -116.15 -1.2 -120.9 1.85 -124.5 M-36.75 -172.75 Q-35.3 -173.55 -33.7 -173.95 L-32.5 -174.1 -33.7 -172.45 -34.9 -170.3 Q-37.45 -165.15 -37.45 -160.85 -37.45 -154.85 -33.8 -150.9 -31.65 -148.6 -29.15 -147.8 L-30.45 -147.8 Q-35.95 -147.8 -39.85 -151.7 -43.75 -155.5 -43.75 -161.05 -43.75 -166.55 -39.85 -170.45 L-39.45 -170.85 Q-38.15 -172.05 -36.75 -172.75" fill="#e87925" fill-rule="evenodd" stroke="none"/>
      <path d="M18.05 -121.25 Q20.15 -119.25 20.15 -116.4 20.15 -113.5 18.05 -111.45 16.0 -109.4 13.15 -109.4 10.25 -109.4 8.3 -111.45 6.2 -113.5 6.2 -116.4 6.2 -119.25 8.3 -121.25 10.25 -123.3 13.15 -123.3 16.0 -123.3 18.05 -121.25 M-22.5 -162.6 Q-22.5 -160.1 -23.9 -158.3 L-24.55 -157.65 Q-26.55 -155.6 -29.4 -155.6 -31.9 -155.6 -33.7 -157.1 L-34.35 -157.65 Q-36.4 -159.65 -36.4 -162.6 -36.4 -165.45 -34.35 -167.45 L-33.7 -168.0 Q-31.9 -169.5 -29.4 -169.5 -26.55 -169.5 -24.55 -167.45 L-23.2 -165.7 Q-22.5 -164.35 -22.5 -162.6" fill="#171717" fill-rule="evenodd" stroke="none"/>
      <path d="M-23.35 -188.75 L-24.7 -187.55 Q-29.15 -183.35 -29.15 -177.7 L-29.0 -176.2 -33.45 -176.4 -33.7 -176.4 -47.7 -175.3 -48.25 -175.3 -48.4 -175.3 -49.0 -175.45 Q-53.2 -177.95 -49.95 -183.6 -47.3 -188.1 -42.7 -189.3 -38.25 -190.5 -34.2 -190.2 L-34.0 -190.2 -33.7 -190.2 -23.35 -188.75 M-50.5 -131.75 Q-42.6 -129.65 -33.15 -130.3 -33.7 -128.55 -33.7 -126.9 -33.7 -123.6 -31.15 -120.6 L-29.9 -119.3 Q-35.05 -118.6 -39.1 -119.25 L-43.25 -120.1 Q-48.0 -121.45 -49.75 -124.0 -51.85 -128.25 -50.55 -131.75 L-50.5 -131.75" fill="#d4bd93" fill-rule="evenodd" stroke="none"/>
      <path d="M13.0 -215.8 L18.45 -222.15 22.45 -226.35 25.25 -228.9 Q34.3 -237.1 44.55 -241.9 L44.95 -242.2 M-21.15 -213.9 L-26.4 -220.9 Q-29.9 -225.1 -33.7 -228.85 -40.85 -236.05 -49.3 -241.5" fill="none" stroke="#000000" stroke-linecap="round" stroke-linejoin="round" stroke-opacity="0.2509804" stroke-width="1.0"/>
      <path d="M50.6 -244.35 L48.95 -247.9 Q33.95 -243.55 22.45 -232.75 18.95 -229.45 15.85 -225.55 13.3 -222.55 10.9 -219.05 L13.0 -215.8 14.25 -213.15 22.45 -214.05 24.1 -214.1 28.65 -214.05 30.85 -213.95 31.35 -210.85 31.35 -210.0 Q31.35 -207.2 30.15 -204.35 36.05 -204.6 41.6 -203.4 L43.35 -202.9 44.7 -198.6 46.15 -199.0 47.5 -201.3 49.95 -206.35 Q58.45 -225.9 50.6 -244.35 M-17.0 -228.9 Q-12.45 -228.85 -7.4 -227.1 L-4.05 -225.65 Q-5.3 -229.25 -5.3 -234.0 L-3.55 -234.0 Q-0.3 -234.0 6.2 -231.2 12.65 -228.5 15.85 -225.55 M12.5 -201.25 L1.85 -202.1 -4.75 -201.8 Q-21.15 -200.2 -33.7 -190.65 L-34.2 -190.2 -34.0 -190.2 -33.7 -190.2 -23.35 -188.75 -22.55 -188.6 Q-19.3 -187.55 -16.55 -186.2 -6.05 -180.95 -1.1 -170.8 2.3 -164.4 5.1 -162.1 7.0 -160.5 8.6 -160.85 L10.2 -161.15 Q12.75 -162.25 15.05 -167.05 16.95 -171.15 19.75 -175.65 L22.45 -179.5 23.3 -180.55 Q27.35 -185.8 32.45 -190.2 L34.7 -192.15 35.15 -192.25 Q29.2 -196.3 22.45 -198.7 17.65 -200.45 12.5 -201.25 M-17.0 -228.9 L-17.4 -228.9 Q-21.55 -228.9 -23.7 -227.65 L-24.1 -227.4 Q-19.8 -222.05 -16.05 -215.55 -16.3 -217.6 -16.2 -220.9 -13.6 -220.4 -11.5 -219.3 M10.9 -219.05 Q9.15 -221.45 6.8 -223.5 4.4 -220.55 3.3 -217.0 M52.65 -196.0 L51.45 -198.95 51.15 -200.1 49.65 -199.9 46.15 -199.0 M49.95 -206.35 Q53.4 -203.4 57.05 -198.95 64.75 -189.6 64.75 -183.65 64.75 -182.3 62.9 -180.9 61.75 -179.9 60.7 -179.45 67.3 -172.2 70.7 -167.2 77.65 -157.2 77.65 -150.2 77.65 -142.95 73.5 -141.25 L71.25 -140.85 77.4 -131.8 Q80.25 -127.65 80.25 -123.2 80.25 -119.95 77.8 -116.85 75.25 -113.6 71.85 -113.45 L71.85 -113.3 Q75.15 -112.4 77.9 -108.35 80.5 -104.35 80.5 -100.65 80.5 -95.8 73.5 -95.8 L75.0 -91.0 Q75.65 -88.2 75.65 -85.35 75.65 -82.65 72.45 -81.6 68.75 -80.25 50.3 -84.0 51.05 -82.2 51.0 -80.25 51.0 -78.45 49.55 -77.4 46.05 -74.8 42.0 -74.45 39.15 -74.15 36.05 -74.95 31.85 -75.8 27.6 -78.05 22.9 -71.2 14.95 -75.0 10.65 -77.1 7.0 -79.85 L2.3 -76.0 Q-11.7 -69.3 -20.05 -72.3 -28.4 -75.35 -26.95 -80.35 -38.95 -80.25 -41.0 -90.2 -55.35 -79.8 -66.8 -79.8 -71.9 -79.8 -74.9 -84.1 -77.6 -87.9 -77.6 -93.1 -77.6 -94.9 -77.2 -96.65 -76.8 -98.3 -76.35 -98.8 -79.2 -98.1 -80.85 -99.75 -82.3 -101.2 -82.3 -103.5 -82.3 -106.5 -79.9 -110.0 -78.1 -112.9 -75.2 -115.2 -75.95 -114.7 -76.75 -114.65 L-78.3 -114.65 Q-82.55 -114.65 -85.15 -117.1 -87.8 -119.7 -87.8 -124.1 -87.8 -130.6 -82.2 -137.95 -77.55 -144.05 -70.85 -148.35 L-74.05 -148.1 -77.45 -148.5 Q-79.3 -149.3 -79.3 -151.6 -79.3 -156.7 -75.7 -162.9 -72.5 -168.4 -67.75 -172.3 L-70.45 -171.35 Q-74.1 -170.05 -76.4 -170.05 L-78.0 -170.0 -78.65 -170.3 Q-76.8 -181.1 -69.55 -189.3 -63.05 -196.8 -54.45 -202.05 -62.1 -220.1 -57.1 -236.15 -55.75 -240.35 -53.5 -244.4 L-51.9 -247.3 Q-41.9 -243.55 -33.7 -236.85 -28.55 -232.75 -24.1 -227.4 M35.15 -192.25 Q40.75 -194.1 44.65 -190.4 48.2 -186.45 46.7 -182.4 L46.45 -182.15 Q58.45 -168.15 58.0 -149.7 57.85 -143.7 56.35 -138.05 L56.4 -138.1 Q59.2 -136.8 57.6 -130.3 54.4 -124.8 49.65 -123.7 46.05 -118.5 40.9 -114.05 L37.25 -111.05 Q22.1 -99.6 1.85 -99.6 L-3.7 -99.85 Q-23.05 -101.45 -37.3 -114.05 -40.6 -116.95 -43.25 -120.1 -48.0 -121.45 -49.75 -124.0 -51.85 -128.25 -50.55 -131.75 L-50.5 -131.75 Q-42.6 -129.65 -33.15 -130.3 L-22.5 -131.8 -21.15 -132.1 Q-5.95 -138.1 4.15 -139.75 L11.55 -140.4 Q20.35 -139.05 30.55 -136.4 L34.6 -135.4 Q47.0 -131.9 56.3 -138.0 L56.35 -138.05 M38.05 -173.9 L40.9 -174.2 43.6 -173.9 47.65 -178.4 46.8 -172.7 Q48.55 -171.8 49.95 -170.3 53.6 -166.5 53.6 -160.9 53.6 -155.45 49.95 -151.55 46.15 -147.65 40.9 -147.65 38.45 -147.65 36.35 -148.45 L35.9 -147.8 32.85 -143.95 Q32.95 -147.0 33.4 -150.2 32.6 -150.75 31.9 -151.55 28.15 -155.45 28.15 -160.9 28.15 -166.5 31.9 -170.3 34.6 -173.1 38.05 -173.9 M34.95 -149.15 Q35.65 -148.75 36.35 -148.45 M46.8 -172.7 Q45.25 -173.55 43.6 -173.9 M46.45 -182.15 Q44.95 -180.5 38.25 -177.75 30.7 -175.0 23.8 -160.5 L22.45 -157.9 20.7 -154.95 Q15.05 -146.3 9.1 -146.35 1.3 -146.7 -3.0 -154.8 L-3.0 -154.95 Q-5.85 -160.2 -10.0 -165.55 -14.2 -171.0 -20.1 -173.8 L-21.4 -174.35 Q-25.05 -175.8 -29.0 -176.2 L-33.45 -176.4 -33.7 -176.4 -47.7 -175.3 Q-54.7 -163.85 -54.4 -149.7 -54.15 -140.1 -50.5 -131.75 M-22.15 -171.5 L-21.0 -170.45 Q-17.15 -166.55 -17.15 -161.05 -17.15 -157.75 -18.6 -154.95 -19.3 -153.45 -20.5 -152.15 -19.3 -149.3 -18.45 -146.45 L-23.05 -149.85 -24.15 -149.3 Q-26.45 -148.05 -29.15 -147.8 L-30.45 -147.8 Q-35.95 -147.8 -39.85 -151.7 -43.75 -155.5 -43.75 -161.05 -43.75 -166.55 -39.85 -170.45 L-39.45 -170.85 -41.65 -175.85 Q-39.05 -174.45 -36.75 -172.75 -38.15 -172.05 -39.45 -170.85 M33.4 -150.2 Q34.2 -149.6 34.95 -149.15 M19.35 -127.25 L13.6 -128.8 6.55 -128.25 Q4.45 -127.25 2.7 -125.5 L1.85 -124.5 Q-1.2 -120.9 -1.2 -116.15 -1.2 -110.55 2.7 -106.65 6.6 -102.85 12.1 -102.85 14.95 -102.85 17.45 -103.8 19.65 -104.85 21.55 -106.65 25.4 -110.55 25.4 -116.15 25.4 -121.65 21.55 -125.5 L19.35 -127.25 Q35.5 -123.55 49.55 -123.7 L49.65 -123.7 M6.55 -128.25 L2.65 -127.65 Q-7.15 -126.0 -18.9 -122.1 L-19.8 -121.8 Q-25.3 -120.05 -29.9 -119.3 -35.05 -118.6 -39.1 -119.25 L-43.25 -120.1 M18.05 -121.25 Q20.15 -119.25 20.15 -116.4 20.15 -113.5 18.05 -111.45 16.0 -109.4 13.15 -109.4 10.25 -109.4 8.3 -111.45 6.2 -113.5 6.2 -116.4 6.2 -119.25 8.3 -121.25 10.25 -123.3 13.15 -123.3 16.0 -123.3 18.05 -121.25 M71.25 -140.85 L69.5 -140.95 M60.05 -107.45 Q62.05 -107.3 63.55 -104.75 64.85 -102.6 64.85 -100.65 64.85 -99.2 63.3 -98.4 L60.15 -97.45 61.0 -95.6 Q61.65 -94.25 61.65 -93.4 61.65 -92.7 60.95 -92.3 60.2 -91.9 59.1 -91.95 M50.3 -84.0 L49.55 -84.25 M-28.2 -207.85 L-28.4 -207.45 -28.95 -207.45 -33.7 -207.35 -39.45 -206.5 -39.85 -205.2 Q-40.7 -202.35 -40.55 -199.9 -45.25 -201.85 -51.45 -201.65 L-53.05 -198.85 Q-54.15 -196.6 -54.4 -194.25 M-53.05 -198.85 L-54.45 -202.05 M-28.2 -207.85 L-26.05 -213.55 -21.15 -213.9 -15.65 -213.55 -16.05 -215.55 M-4.05 -225.65 L-2.35 -222.3 M-36.75 -172.75 Q-35.3 -173.55 -33.7 -173.95 L-32.5 -174.1 -30.45 -174.35 -28.7 -174.2 Q-25.05 -173.8 -22.15 -171.5 M-22.5 -162.6 Q-22.5 -160.1 -23.9 -158.3 L-24.55 -157.65 Q-26.55 -155.6 -29.4 -155.6 -31.9 -155.6 -33.7 -157.1 L-34.35 -157.65 Q-36.4 -159.65 -36.4 -162.6 -36.4 -165.45 -34.35 -167.45 L-33.7 -168.0 Q-31.9 -169.5 -29.4 -169.5 -26.55 -169.5 -24.55 -167.45 L-23.2 -165.7 Q-22.5 -164.35 -22.5 -162.6 M-20.5 -152.15 L-21.0 -151.7 -23.05 -149.85 M-47.7 -175.3 L-48.25 -175.3 -48.4 -175.3 -49.0 -175.45 Q-53.2 -177.95 -49.95 -183.6 -47.3 -188.1 -42.7 -189.3 -38.25 -190.5 -34.2 -190.2 M-67.75 -172.3 L-66.25 -172.75 M-50.1 -108.4 L-53.45 -103.95 Q-55.75 -100.4 -55.5 -99.45 -55.25 -98.4 -52.95 -98.55 L-49.95 -99.2 -48.1 -99.6 -44.85 -101.25 M-42.3 -97.45 L-43.95 -96.95 Q-46.45 -95.95 -48.4 -97.7 -48.75 -98.3 -48.1 -99.6 M-41.0 -90.2 L-37.3 -93.15" fill="none" stroke="#000000" stroke-linecap="round" stroke-linejoin="round" stroke-opacity="0.5019608" stroke-width="1.0"/>
      <path d="M48.2 -161.45 Q48.2 -158.6 46.2 -156.55 44.15 -154.45 41.2 -154.45 38.35 -154.45 36.25 -156.55 34.2 -158.6 34.2 -161.45 34.2 -164.35 36.25 -166.3 38.35 -168.4 41.2 -168.4 44.15 -168.4 46.2 -166.3 48.2 -164.35 48.2 -161.45" fill="#171717" fill-rule="evenodd" stroke="none"/>
      <path d="M48.2 -161.45 Q48.2 -164.35 46.2 -166.3 44.15 -168.4 41.2 -168.4 38.35 -168.4 36.25 -166.3 34.2 -164.35 34.2 -161.45 34.2 -158.6 36.25 -156.55 38.35 -154.45 41.2 -154.45 44.15 -154.45 46.2 -156.55 48.2 -158.6 48.2 -161.45 Z" fill="none" stroke="#000000" stroke-linecap="round" stroke-linejoin="round" stroke-opacity="0.5019608" stroke-width="1.0"/>
    </g>
    <linearGradient gradientTransform="matrix(0.0792, 0.0, 0.0, 0.0962, -22.9, -150.2)" gradientUnits="userSpaceOnUse" id="gradient0" spreadMethod="pad" x1="-819.2" x2="819.2">
      <stop offset="0.0" stop-color="#d4c19d"/>
      <stop offset="0.9882352941176471" stop-color="#ebe0c9"/>
    </linearGradient>
  </defs>
</svg>
