<?xml version="1.0" encoding="UTF-8" standalone="no"?>
<svg xmlns:xlink="http://www.w3.org/1999/xlink" height="531.5px" width="460.6px" xmlns="http://www.w3.org/2000/svg">
  <g transform="matrix(1.0, 0.0, 0.0, 1.0, 193.65, 334.05)">
    <use height="152.35" transform="matrix(1.0, 0.0, 0.0, 1.0, -74.1, -236.55)" width="149.05" xlink:href="#shape0"/>
  </g>
  <defs>
    <g id="shape0" transform="matrix(1.0, 0.0, 0.0, 1.0, 74.1, 236.55)">
      <path d="M56.15 -108.3 Q55.75 -100.7 54.2 -92.85 43.45 -87.35 28.3 -86.1 -41.9 -80.45 -64.25 -97.4 L-62.2 -146.35 52.3 -145.55 Q57.4 -127.35 56.15 -108.3" fill="#000000" fill-rule="evenodd" stroke="none"/>
      <path d="M56.15 -108.3 Q55.75 -100.7 54.2 -92.85 43.45 -87.35 28.3 -86.1 -41.9 -80.45 -64.25 -97.4 L-62.2 -146.35 52.3 -145.55 Q57.4 -127.35 56.15 -108.3 Z" fill="none" stroke="#000000" stroke-linecap="round" stroke-linejoin="round" stroke-opacity="0.9882353" stroke-width="1.0"/>
      <path d="M41.55 -187.1 Q57.6 -178.45 55.55 -168.35 63.65 -134.55 50.85 -130.35 6.35 -146.15 -38.9 -130.15 -64.9 -121.6 -66.15 -147.6 -67.45 -173.5 -46.65 -187.0 -32.15 -196.6 -11.85 -196.95 -3.95 -197.5 4.05 -196.7 25.5 -195.7 41.55 -187.1" fill="#511b1b" fill-rule="evenodd" stroke="none"/>
      <path d="M41.55 -187.1 Q57.6 -178.45 55.55 -168.35 63.65 -134.55 50.85 -130.35 6.35 -146.15 -38.9 -130.15 -64.9 -121.6 -66.15 -147.6 -67.45 -173.5 -46.65 -187.0 -32.15 -196.6 -11.85 -196.95 -3.95 -197.5 4.05 -196.7 25.5 -195.7 41.55 -187.1 Z" fill="none" stroke="url(#gradient0)" stroke-linecap="round" stroke-linejoin="round" stroke-width="1.0"/>
      <path d="M-39.95 -145.65 Q-39.55 -145.8 -39.25 -146.15 -37.7 -147.45 -35.4 -147.45 -32.8 -144.85 -32.9 -141.25 -33.1 -137.65 -29.2 -133.6 -25.45 -129.6 -23.75 -137.85 -21.2 -138.8 -19.2 -137.1 L-19.1 -135.8 -19.2 -136.3 -19.1 -134.8 Q-21.2 -120.65 -25.55 -122.1 -29.85 -123.75 -35.0 -128.95 -40.15 -134.0 -41.75 -138.95 -43.3 -143.35 -39.95 -145.65" fill="#000000" fill-rule="evenodd" stroke="none"/>
      <path d="M-18.6 -130.4 L-18.35 -128.15 -18.2 -127.95 -18.2 -127.5 -18.2 -126.45 -18.2 -126.35 -18.45 -126.6 -18.2 -126.45 -18.45 -126.65 -18.6 -130.4 M-18.2 -127.5 L-18.35 -128.15 -18.2 -127.5" fill="#cfc4a9" fill-rule="evenodd" stroke="none"/>
      <path d="M-19.2 -137.1 L-13.25 -136.3 Q-7.05 -135.45 -3.95 -134.0 1.6 -131.5 3.25 -126.1 L7.9 -126.65 13.5 -126.9 18.5 -127.15 29.3 -127.25 Q33.15 -127.15 40.75 -128.85 45.8 -129.95 47.15 -128.85 L47.75 -134.9 52.0 -133.75 Q52.7 -137.65 52.4 -139.6 55.55 -148.25 56.7 -147.75 58.5 -139.85 57.6 -129.7 53.45 -125.55 53.7 -119.25 48.95 -110.65 43.85 -106.95 38.45 -103.8 26.05 -102.65 -3.55 -101.45 -8.65 -103.05 -13.7 -104.75 -18.85 -105.4 -24.55 -106.55 -27.9 -111.55 -31.15 -119.35 -39.95 -124.95 -48.85 -130.8 -48.45 -133.9 -47.8 -137.1 -47.4 -144.35 -42.6 -144.6 -39.95 -145.65 -43.3 -143.35 -41.75 -138.95 -40.15 -134.0 -35.0 -128.95 -29.85 -123.75 -25.55 -122.1 -21.2 -120.65 -19.1 -134.8 L-19.2 -136.3 -19.1 -135.8 -19.2 -137.1 M-18.6 -130.4 L-18.7 -131.0 Q-18.95 -131.65 -19.0 -133.45 L-19.1 -134.8 -19.0 -133.45 Q-18.95 -131.65 -18.7 -131.0 L-18.6 -130.4 -18.45 -126.65 -18.2 -126.45 -18.45 -126.6 -18.2 -126.35 -18.2 -126.45 -18.2 -127.5 -18.2 -127.95 -18.35 -128.15 -18.6 -130.4 M30.2 -118.7 L29.3 -127.25 30.2 -118.7 M41.45 -118.85 L40.75 -128.85 41.45 -118.85 M48.05 -123.5 L47.15 -128.85 48.05 -123.5 M-2.4 -119.4 L-3.95 -134.0 -2.4 -119.4 M8.85 -117.65 L7.9 -126.65 8.85 -117.65 M19.2 -118.1 L18.5 -127.15 19.2 -118.1 M-18.2 -123.5 L-18.3 -123.9 -18.1 -126.2 -18.2 -126.35 -18.1 -126.2 -18.3 -123.9 -18.2 -123.5 M-12.15 -118.7 L-13.25 -136.3 -12.15 -118.7" fill="#511b1b" fill-rule="evenodd" stroke="none"/>
      <path d="M-19.2 -137.1 L-13.25 -136.3 Q-7.05 -135.45 -3.95 -134.0 1.6 -131.5 3.25 -126.1 L7.9 -126.65 13.5 -126.9 18.5 -127.15 29.3 -127.25 Q33.15 -127.15 40.75 -128.85 45.8 -129.95 47.15 -128.85 L47.75 -134.9 52.0 -133.75 Q52.7 -137.65 52.4 -139.6 55.55 -148.25 56.7 -147.75 58.5 -139.85 57.6 -129.7 53.45 -125.55 53.7 -119.25 48.95 -110.65 43.85 -106.95 38.45 -103.8 26.05 -102.65 -3.55 -101.45 -8.65 -103.05 -13.7 -104.75 -18.85 -105.4 -24.55 -106.55 -27.9 -111.55 -31.15 -119.35 -39.95 -124.95 -48.85 -130.8 -48.45 -133.9 -47.8 -137.1 -47.4 -144.35 -42.6 -144.6 -39.95 -145.65 -39.55 -145.8 -39.25 -146.15 -37.7 -147.45 -35.4 -147.45 -32.8 -144.85 -32.9 -141.25 -33.1 -137.65 -29.2 -133.6 -25.45 -129.6 -23.75 -137.85 -21.2 -138.8 -19.2 -137.1 M-19.2 -136.3 L-19.1 -134.8 -19.0 -133.45 Q-18.95 -131.65 -18.7 -131.0 L-18.6 -130.4 -18.35 -128.15 -18.2 -127.5 -18.2 -126.45 -18.2 -126.35 -18.1 -126.2 -18.3 -123.9 -18.2 -123.5 M18.5 -127.15 L19.2 -118.1 M7.9 -126.65 L8.85 -117.65 M-3.95 -134.0 L-2.4 -119.4 M47.15 -128.85 L48.05 -123.5 M40.75 -128.85 L41.45 -118.85 M29.3 -127.25 L30.2 -118.7 M-13.25 -136.3 L-12.15 -118.7" fill="none" stroke="#000000" stroke-linecap="round" stroke-linejoin="round" stroke-opacity="0.4" stroke-width="1.0"/>
      <path d="M-14.85 -128.15 L-14.85 -127.9 -14.8 -127.5 -14.85 -127.55 -15.0 -127.8 -15.1 -127.95 -14.95 -128.05 -14.85 -128.15 -15.0 -127.8 -14.85 -128.15 M-14.85 -127.9 L-14.85 -127.55 -14.85 -127.9" fill="#3f3c38" fill-rule="evenodd" stroke="none"/>
      <path d="M-15.35 -128.2 Q-35.75 -128.8 -39.15 -136.35 -40.8 -140.05 -40.55 -142.95 L-40.2 -148.8 Q-40.05 -151.85 -35.95 -157.8 -40.05 -172.05 -25.05 -185.6 -12.0 -193.85 9.2 -192.7 29.55 -193.05 37.15 -189.3 40.75 -187.6 42.1 -185.8 53.85 -170.4 55.15 -158.2 L57.1 -140.6 Q57.7 -135.3 55.15 -131.25 52.55 -127.1 43.35 -127.75 43.75 -120.75 40.65 -115.1 38.55 -115.25 36.25 -114.2 34.2 -112.65 32.25 -114.6 29.4 -110.65 23.7 -112.65 19.4 -110.2 12.3 -111.85 6.5 -110.55 4.85 -112.85 1.7 -111.2 -2.95 -114.3 -6.7 -112.35 -11.75 -115.05 -15.6 -120.4 -14.85 -127.5 L-15.2 -127.8 -15.25 -127.95 -15.2 -127.95 -15.1 -127.95 -15.0 -127.8 -15.1 -127.9 -15.2 -127.95 -15.1 -127.9 -15.0 -127.8 -14.85 -127.55 -14.85 -127.5 -14.8 -127.4 -14.8 -127.5 -14.8 -127.4 -14.85 -127.5 -14.85 -127.55 -15.1 -127.9 -15.2 -127.8 -15.1 -127.9 -14.85 -127.55 -14.8 -127.5 -14.85 -127.9 -14.85 -128.15 -15.35 -128.2 -14.85 -128.15 -14.95 -128.05 -15.2 -128.05 -15.35 -128.2 M48.15 -133.2 L47.25 -135.05 48.15 -133.2 M1.95 -132.05 L2.0 -134.15 1.95 -132.05 M30.05 -127.25 Q30.15 -127.4 30.3 -127.4 L29.0 -127.5 30.05 -127.25" fill="#ede6d4" fill-rule="evenodd" stroke="none"/>
      <path d="M2.0 -134.15 L1.95 -132.05 M47.25 -135.05 L48.15 -133.2" fill="none" stroke="#000000" stroke-linecap="round" stroke-linejoin="round" stroke-opacity="0.4" stroke-width="1.0"/>
      <path d="M-15.35 -128.2 Q-35.75 -128.8 -39.15 -136.35 -40.8 -140.05 -40.55 -142.95 L-40.2 -148.8 Q-40.05 -151.85 -35.95 -157.8 -40.05 -172.05 -25.05 -185.6 -12.0 -193.85 9.2 -192.7 29.55 -193.05 37.15 -189.3 40.75 -187.6 42.1 -185.8 53.85 -170.4 55.15 -158.2 L57.1 -140.6 Q57.7 -135.3 55.15 -131.25 52.55 -127.1 43.35 -127.75 43.75 -120.75 40.65 -115.1 38.55 -115.25 36.25 -114.2 34.2 -112.65 32.25 -114.6 29.4 -110.65 23.7 -112.65 19.4 -110.2 12.3 -111.85 6.5 -110.55 4.85 -112.85 1.7 -111.2 -2.95 -114.3 -6.7 -112.35 -11.75 -115.05 -15.6 -120.4 -14.85 -127.5 L-15.2 -127.8 -15.25 -127.95 -15.35 -128.2 -14.85 -128.15 -14.85 -127.9 -14.8 -127.5 -14.8 -127.4 -14.85 -127.5 -14.85 -127.55 -15.1 -127.9 -15.2 -127.8 M-15.1 -127.95 L-15.0 -127.8 -14.85 -128.15 M-15.2 -128.05 L-15.1 -127.95 M-15.2 -127.95 L-15.1 -127.9 -15.0 -127.8 -14.85 -127.55 -14.85 -127.9 M-15.2 -128.05 L-15.35 -128.2 -15.2 -127.95 M-14.85 -127.55 L-14.8 -127.5" fill="none" stroke="#540000" stroke-linecap="round" stroke-linejoin="round" stroke-opacity="0.9882353" stroke-width="1.0"/>
      <path d="M-9.55 -133.05 L-13.1 -131.3 -17.8 -131.45 Q-22.0 -133.15 -25.1 -137.4 L-29.5 -144.0 Q-27.05 -142.9 -23.8 -140.2 -20.6 -137.7 -16.95 -135.8 -13.35 -134.0 -9.55 -133.05" fill="#cfc4a9" fill-rule="evenodd" stroke="none"/>
      <path d="M37.35 -134.9 L40.25 -133.0 44.1 -132.85 Q47.45 -134.45 49.9 -138.65 L53.35 -145.25 Q51.4 -144.25 48.8 -141.6 46.25 -139.15 43.35 -137.35 40.45 -135.7 37.35 -134.9" fill="#cfc4a9" fill-rule="evenodd" stroke="none"/>
      <path d="M-6.65 -139.4 Q-2.35 -140.25 0.95 -144.0 5.05 -148.4 5.05 -154.7 5.15 -160.85 1.05 -165.1 -2.25 -168.45 -6.6 -169.15 L-4.4 -169.4 Q1.4 -169.6 5.55 -165.2 9.6 -161.05 9.5 -154.85 9.5 -148.6 5.45 -144.05 1.3 -139.5 -4.5 -139.3 L-6.65 -139.4" fill="#1f1e1b" fill-rule="evenodd" stroke="none"/>
      <path d="M-6.6 -169.15 Q-2.25 -168.45 1.05 -165.1 5.15 -160.85 5.05 -154.7 5.05 -148.4 0.95 -144.0 -2.35 -140.25 -6.65 -139.4 -11.0 -139.95 -14.35 -143.4 -18.5 -147.65 -18.5 -153.95 -18.4 -160.1 -14.3 -164.55 -10.9 -168.2 -6.6 -169.15" fill="#0f0d0c" fill-rule="evenodd" stroke="none"/>
      <path d="M-6.65 -139.4 L-4.5 -139.3 Q1.3 -139.5 5.45 -144.05 9.5 -148.6 9.5 -154.85 9.6 -161.05 5.55 -165.2 1.4 -169.6 -4.4 -169.4 L-6.6 -169.15 Q-10.9 -168.2 -14.3 -164.55 -18.4 -160.1 -18.5 -153.95 -18.5 -147.65 -14.35 -143.4 -11.0 -139.95 -6.65 -139.4 Z" fill="none" stroke="#000000" stroke-linecap="round" stroke-linejoin="round" stroke-opacity="0.4" stroke-width="1.0"/>
      <path d="M34.2 -168.25 L36.05 -168.55 Q41.0 -168.75 45.1 -164.45 49.05 -160.3 49.65 -154.1 50.25 -148.1 47.2 -143.7 44.15 -139.25 39.2 -139.05 L37.25 -139.15 Q40.9 -140.05 43.35 -143.6 46.4 -147.9 45.8 -154.1 45.2 -160.2 41.25 -164.35 38.05 -167.75 34.2 -168.25" fill="#1f1e1b" fill-rule="evenodd" stroke="none"/>
      <path d="M34.2 -168.25 Q38.05 -167.75 41.25 -164.35 45.2 -160.2 45.8 -154.1 46.4 -147.9 43.35 -143.6 40.9 -140.05 37.25 -139.15 33.4 -139.85 30.15 -143.2 26.1 -147.35 25.55 -153.4 24.85 -159.5 28.0 -163.95 30.55 -167.5 34.2 -168.25" fill="#0f0d0c" fill-rule="evenodd" stroke="none"/>
      <path d="M37.25 -139.15 L39.2 -139.05 Q44.15 -139.25 47.2 -143.7 50.25 -148.1 49.65 -154.1 49.05 -160.3 45.1 -164.45 41.0 -168.75 36.05 -168.55 L34.2 -168.25 Q30.55 -167.5 28.0 -163.95 24.85 -159.5 25.55 -153.4 26.1 -147.35 30.15 -143.2 33.4 -139.85 37.25 -139.15 Z" fill="none" stroke="#000000" stroke-linecap="round" stroke-linejoin="round" stroke-opacity="0.4" stroke-width="1.0"/>
      <path d="M22.5 -135.95 L19.35 -138.05 Q16.65 -135.45 14.95 -135.3 13.2 -135.1 12.25 -136.85 11.2 -138.6 11.85 -140.8 12.4 -143.0 14.05 -144.55 L16.25 -147.1 Q18.2 -147.6 19.8 -145.6 22.45 -142.7 23.0 -138.3 L22.5 -135.95" fill="#0f0d0c" fill-rule="evenodd" stroke="none"/>
      <path d="M16.25 -147.1 L18.5 -150.85 21.3 -147.4 Q22.65 -145.55 25.1 -143.2 27.5 -140.75 26.5 -138.05 25.55 -135.45 22.5 -135.95 L23.0 -138.3 Q22.45 -142.7 19.8 -145.6 18.2 -147.6 16.25 -147.1" fill="#1f1e1b" fill-rule="evenodd" stroke="none"/>
      <path d="M16.25 -147.1 L18.5 -150.85 21.3 -147.4 Q22.65 -145.55 25.1 -143.2 27.5 -140.75 26.5 -138.05 25.55 -135.45 22.5 -135.95 L19.35 -138.05 Q16.65 -135.45 14.95 -135.3 13.2 -135.1 12.25 -136.85 11.2 -138.6 11.85 -140.8 12.4 -143.0 14.05 -144.55 L16.25 -147.1 Z" fill="none" stroke="#000000" stroke-linecap="round" stroke-linejoin="round" stroke-opacity="0.4" stroke-width="1.0"/>
      <path d="M42.75 -179.7 L45.55 -178.9 45.95 -178.35 46.35 -177.65 47.05 -174.5 46.5 -172.7 46.35 -172.3 46.2 -172.0 Q45.55 -171.15 44.3 -172.7 L43.85 -172.95 43.6 -173.65 Q43.2 -174.6 43.2 -176.4 43.85 -174.2 44.7 -174.2 46.1 -174.2 45.25 -176.7 44.7 -178.5 43.6 -179.3 L42.75 -179.7 M35.2 -181.25 L35.3 -180.4 35.2 -179.6 34.5 -179.45 Q34.1 -179.45 33.8 -179.7 L33.55 -180.7 Q33.55 -181.25 33.8 -181.5 34.1 -181.8 34.5 -181.8 L35.2 -181.25 M33.55 -186.2 L33.8 -185.8 33.65 -185.35 33.25 -185.25 Q33.0 -185.25 33.0 -185.35 L32.85 -185.95 33.0 -186.2 33.25 -186.5 33.55 -186.2 M30.5 -183.45 Q29.8 -180.8 25.0 -181.8 21.1 -183.7 18.9 -187.45 L17.8 -189.8 Q21.4 -186.35 26.1 -185.65 29.55 -185.1 30.35 -184.15 30.75 -183.7 30.5 -183.45 M15.6 -187.6 Q16.15 -185.95 17.4 -184.4 19.45 -181.95 17.4 -178.9 16.85 -178.35 15.05 -180.4 13.1 -182.9 14.35 -185.65 L15.6 -187.6 M0.7 -183.45 Q0.55 -183.7 0.85 -184.15 1.4 -184.95 4.7 -185.65 9.1 -186.2 12.0 -189.65 11.05 -184.25 6.65 -181.8 2.1 -180.8 0.7 -183.45 M-5.1 -186.05 Q-4.4 -186.05 -4.0 -185.65 -3.45 -185.25 -3.3 -184.7 -3.0 -184.15 -3.45 -183.7 -3.55 -183.15 -4.25 -183.15 L-5.25 -183.3 Q-5.65 -183.6 -5.8 -184.25 -6.05 -184.95 -5.8 -185.35 L-5.1 -186.05 M-18.35 -182.35 Q-22.05 -181.95 -23.0 -179.15 -23.55 -176.55 -20.95 -176.4 -19.3 -176.0 -18.45 -178.6 -17.5 -175.6 -19.45 -174.05 -21.5 -172.4 -23.0 -173.8 -24.8 -175.3 -25.8 -177.1 -25.9 -179.85 -24.0 -182.05 L-18.35 -182.35" fill="#d00000" fill-rule="evenodd" stroke="none"/>
      <path d="M37.25 -184.15 L38.1 -183.15 Q38.5 -182.6 39.05 -182.35 40.3 -180.95 41.95 -180.25 L42.75 -179.7 45.55 -178.9 45.95 -178.35 46.35 -177.65 47.05 -174.5 46.5 -172.7 46.35 -172.3 46.2 -172.0 Q45.55 -171.15 44.3 -172.7 L43.85 -172.95 43.6 -173.65 Q43.2 -174.6 43.2 -176.4 43.85 -174.2 44.7 -174.2 46.1 -174.2 45.25 -176.7 44.7 -178.5 43.6 -179.3 L42.75 -179.7 M33.55 -186.2 L33.25 -186.5 33.0 -186.2 32.85 -185.95 33.0 -185.35 Q33.0 -185.25 33.25 -185.25 L33.65 -185.35 33.8 -185.8 33.55 -186.2 M35.2 -181.25 L34.5 -181.8 Q34.1 -181.8 33.8 -181.5 33.55 -181.25 33.55 -180.7 L33.8 -179.7 Q34.1 -179.45 34.5 -179.45 L35.2 -179.6 35.3 -180.4 35.2 -181.25 M30.5 -183.45 Q29.8 -180.8 25.0 -181.8 21.1 -183.7 18.9 -187.45 L17.8 -189.8 Q21.4 -186.35 26.1 -185.65 29.55 -185.1 30.35 -184.15 30.75 -183.7 30.5 -183.45 M15.6 -187.6 Q16.15 -185.95 17.4 -184.4 19.45 -181.95 17.4 -178.9 16.85 -178.35 15.05 -180.4 13.1 -182.9 14.35 -185.65 L15.6 -187.6 M0.7 -183.45 Q2.1 -180.8 6.65 -181.8 11.05 -184.25 12.0 -189.65 9.1 -186.2 4.7 -185.65 1.4 -184.95 0.85 -184.15 0.55 -183.7 0.7 -183.45 M-2.6 -189.35 L-2.35 -189.9 -2.75 -190.35 Q-3.0 -190.6 -3.15 -190.5 -3.45 -190.5 -3.55 -190.2 L-3.45 -189.65 -3.3 -189.25 Q-2.9 -189.1 -2.9 -189.25 L-2.6 -189.35 M-5.1 -186.05 L-5.8 -185.35 Q-6.05 -184.95 -5.8 -184.25 -5.65 -183.6 -5.25 -183.3 L-4.25 -183.15 Q-3.55 -183.15 -3.45 -183.7 -3.0 -184.15 -3.3 -184.7 -3.45 -185.25 -4.0 -185.65 -4.4 -186.05 -5.1 -186.05 M-18.35 -182.35 Q-22.05 -181.95 -23.0 -179.15 -23.55 -176.55 -20.95 -176.4 -19.3 -176.0 -18.45 -178.6 -17.5 -175.6 -19.45 -174.05 -21.5 -172.4 -23.0 -173.8 -24.8 -175.3 -25.8 -177.1 -25.9 -179.85 -24.0 -182.05 L-18.35 -182.35 Q-12.55 -183.15 -8.4 -186.2" fill="none" stroke="#a80000" stroke-linecap="round" stroke-linejoin="round" stroke-opacity="0.9882353" stroke-width="1.0"/>
      <path d="M53.1 -171.45 Q52.7 -171.85 52.55 -172.4 L49.25 -176.95 Q47.45 -177.65 45.8 -178.9 L43.45 -180.4 42.5 -180.95 41.55 -182.5 Q32.55 -185.8 32.3 -189.65 28.15 -195.85 34.5 -197.25 L38.5 -195.0 37.8 -197.65 Q39.6 -208.55 45.8 -206.35 L49.65 -204.55 Q51.75 -206.2 54.5 -206.35 54.9 -204.55 54.9 -202.9 L54.9 -202.6 54.9 -201.8 Q52.85 -201.35 51.2 -198.6 49.25 -194.6 50.9 -192.4 L48.55 -191.15 44.7 -196.55 Q46.2 -202.35 49.65 -204.55 46.2 -202.35 44.7 -196.55 L48.55 -191.15 50.9 -192.4 Q49.25 -194.6 51.2 -198.6 52.85 -201.35 54.9 -201.8 54.65 -199.55 53.65 -196.95 53.55 -196.15 53.1 -195.3 L52.4 -193.65 52.0 -192.95 52.95 -193.35 Q55.45 -192.0 57.4 -189.65 60.0 -186.5 60.0 -182.9 L59.85 -180.4 Q60.7 -180.95 61.25 -181.95 L64.4 -181.65 61.25 -181.95 62.65 -185.95 Q64.3 -185.95 65.4 -186.5 67.75 -188.0 66.9 -192.4 L66.65 -193.1 Q68.4 -192.4 69.95 -190.2 71.75 -187.45 71.75 -184.4 71.75 -182.5 71.05 -181.4 L66.35 -181.65 64.4 -181.65 Q63.75 -178.35 61.4 -176.55 L58.1 -174.6 55.45 -172.95 54.9 -172.7 53.1 -171.45 M49.25 -176.95 Q53.25 -175.05 55.45 -175.7 L55.75 -175.45 58.1 -174.6 55.75 -175.45 55.45 -175.7 Q53.25 -175.05 49.25 -176.95 M53.65 -193.5 L55.6 -194.9 57.55 -195.45 Q60.55 -195.45 63.2 -192.25 65.4 -189.5 65.4 -186.9 L65.4 -186.5 Q64.3 -185.95 62.65 -185.95 62.9 -188.95 59.2 -192.15 57.65 -193.65 55.45 -193.65 L53.65 -193.5 M59.3 -180.25 L59.85 -180.4 59.3 -180.25 Q58.5 -186.5 54.65 -188.4 L50.2 -189.35 48.95 -187.45 46.9 -184.4 Q51.05 -183.15 53.55 -180.4 55.45 -178.35 55.75 -175.7 L58.75 -177.5 59.3 -180.25 M55.45 -175.7 L55.75 -175.7 55.45 -175.7 M50.9 -192.4 L52.0 -192.95 50.9 -192.4 M50.2 -189.35 L48.0 -189.8 Q43.75 -191.3 40.7 -187.45 L38.5 -195.0 40.7 -187.45 Q43.75 -191.3 48.0 -189.8 L48.55 -191.15 48.0 -189.8 50.2 -189.35 M40.7 -187.45 Q39.75 -185.95 41.55 -182.5 39.75 -185.95 40.7 -187.45" fill="#791515" fill-rule="evenodd" stroke="none"/>
      <path d="M54.5 -206.35 L56.4 -206.05 Q58.65 -205.9 61.4 -204.55 62.2 -200.15 61.4 -196.55 L68.7 -197.65 74.9 -192.15 71.45 -181.4 71.05 -181.4 Q71.75 -182.5 71.75 -184.4 71.75 -187.45 69.95 -190.2 68.4 -192.4 66.65 -193.1 L66.9 -192.4 Q67.75 -188.0 65.4 -186.5 L65.4 -186.9 Q65.4 -189.5 63.2 -192.25 60.55 -195.45 57.55 -195.45 L55.6 -194.9 53.65 -193.5 52.95 -193.35 53.65 -193.5 55.45 -193.65 Q57.65 -193.65 59.2 -192.15 62.9 -188.95 62.65 -185.95 L61.25 -181.95 Q60.7 -180.95 59.85 -180.4 L60.0 -182.9 Q60.0 -186.5 57.4 -189.65 55.45 -192.0 52.95 -193.35 L52.0 -192.95 52.4 -193.65 53.1 -195.3 Q53.55 -196.15 53.65 -196.95 54.65 -199.55 54.9 -201.8 L54.9 -202.6 54.9 -202.9 Q54.9 -204.55 54.5 -206.35 M66.35 -181.65 L69.4 -178.05 Q70.9 -174.6 62.5 -173.4 64.15 -170.35 60.95 -168.15 56.4 -166.75 53.1 -171.45 L54.9 -172.7 55.45 -172.95 58.1 -174.6 61.4 -176.55 Q63.75 -178.35 64.4 -181.65 L66.35 -181.65 M61.4 -196.55 L61.4 -196.4 58.75 -196.15 Q58.5 -199.3 57.25 -201.1 L56.4 -201.9 54.9 -201.8 56.4 -201.9 57.25 -201.1 Q58.5 -199.3 58.75 -196.15 L61.4 -196.4 61.4 -196.55 M58.75 -196.15 L56.85 -195.85 55.6 -194.9 56.85 -195.85 58.75 -196.15 M61.4 -196.4 Q65.4 -195.85 66.65 -193.1 65.4 -195.85 61.4 -196.4 M59.3 -180.25 L58.75 -177.5 55.75 -175.7 Q55.45 -178.35 53.55 -180.4 51.05 -183.15 46.9 -184.4 L48.95 -187.45 50.2 -189.35 54.65 -188.4 Q58.5 -186.5 59.3 -180.25 M62.5 -173.4 L58.1 -174.6 62.5 -173.4" fill="#ad1e1e" fill-rule="evenodd" stroke="none"/>
      <path d="M53.1 -171.45 Q52.7 -171.85 52.55 -172.4 L49.25 -176.95 Q47.45 -177.65 45.8 -178.9 L43.45 -180.4 42.5 -180.95 41.55 -182.5 Q32.55 -185.8 32.3 -189.65 28.15 -195.85 34.5 -197.25 L38.5 -195.0 37.8 -197.65 Q39.6 -208.55 45.8 -206.35 L49.65 -204.55 Q51.75 -206.2 54.5 -206.35 L56.4 -206.05 Q58.65 -205.9 61.4 -204.55 62.2 -200.15 61.4 -196.55 L68.7 -197.65 74.9 -192.15 71.45 -181.4 71.05 -181.4 66.35 -181.65 69.4 -178.05 Q70.9 -174.6 62.5 -173.4 64.15 -170.35 60.95 -168.15 56.4 -166.75 53.1 -171.45 M58.1 -174.6 L55.75 -175.45 55.45 -175.7 Q53.25 -175.05 49.25 -176.95 M54.9 -201.8 L56.4 -201.9 57.25 -201.1 Q58.5 -199.3 58.75 -196.15 L61.4 -196.4 61.4 -196.55 M49.65 -204.55 Q46.2 -202.35 44.7 -196.55 L48.55 -191.15 50.9 -192.4 Q49.25 -194.6 51.2 -198.6 52.85 -201.35 54.9 -201.8 M52.0 -192.95 L52.95 -193.35 53.65 -193.5 55.6 -194.9 56.85 -195.85 58.75 -196.15 M65.4 -186.5 Q67.75 -188.0 66.9 -192.4 L66.65 -193.1 Q65.4 -195.85 61.4 -196.4 M62.65 -185.95 Q64.3 -185.95 65.4 -186.5 M64.4 -181.65 L61.25 -181.95 Q60.7 -180.95 59.85 -180.4 L59.3 -180.25 58.75 -177.5 55.75 -175.7 55.45 -175.7 M64.4 -181.65 L66.35 -181.65 M62.65 -185.95 L61.25 -181.95 M53.65 -193.5 L55.45 -193.65 Q57.65 -193.65 59.2 -192.15 62.9 -188.95 62.65 -185.95 M52.0 -192.95 L50.9 -192.4 M38.5 -195.0 L40.7 -187.45 Q43.75 -191.3 48.0 -189.8 L48.55 -191.15 M48.0 -189.8 L50.2 -189.35 54.65 -188.4 Q58.5 -186.5 59.3 -180.25 M58.1 -174.6 L62.5 -173.4 M41.55 -182.5 Q39.75 -185.95 40.7 -187.45" fill="none" stroke="#000000" stroke-linecap="round" stroke-linejoin="round" stroke-opacity="0.4" stroke-width="0.1"/>
      <path d="M11.3 -211.55 L7.85 -215.85 16.55 -227.3 17.25 -227.3 Q19.2 -225.35 20.55 -222.3 L24.3 -222.6 27.75 -222.3 28.0 -222.3 29.8 -218.6 29.65 -218.3 29.8 -218.6 30.1 -218.9 Q31.85 -218.2 33.0 -217.1 L34.1 -216.0 Q35.2 -214.75 36.95 -211.55 37.25 -210.9 38.2 -210.45 39.3 -209.8 41.55 -209.35 L42.5 -209.35 Q43.45 -209.2 44.15 -208.65 L43.3 -207.15 41.65 -204.7 40.3 -203.15 32.3 -202.45 40.3 -203.15 41.65 -204.7 43.3 -207.15 Q44.55 -204.4 44.55 -200.25 44.55 -198.45 43.3 -196.55 L42.75 -196.4 47.45 -194.2 Q42.9 -192.7 38.5 -189.65 L34.2 -186.05 Q31.45 -187.05 28.0 -189.35 L25.8 -188.95 23.45 -189.65 Q20.0 -190.6 17.4 -191.85 12.7 -194.2 12.15 -196.95 L11.85 -201.1 14.2 -204.0 14.35 -204.0 Q20.3 -207.3 24.55 -206.35 20.3 -207.3 14.35 -204.0 L14.2 -204.0 11.85 -201.1 12.15 -196.95 Q12.7 -194.2 17.4 -191.85 L10.35 -191.45 Q2.65 -190.6 1.0 -195.7 0.85 -200.55 5.25 -201.25 1.25 -210.2 5.65 -211.55 L11.3 -211.55 14.9 -207.15 18.35 -211.15 Q15.05 -216.25 21.65 -220.0 15.05 -216.25 18.35 -211.15 L14.9 -207.15 11.3 -211.55 M29.65 -218.3 Q26.2 -221.9 21.8 -220.1 L21.65 -220.0 22.1 -218.75 Q22.35 -217.5 22.9 -216.25 L25.1 -217.1 30.2 -217.35 31.05 -216.0 32.0 -213.9 31.3 -208.8 Q30.1 -212.65 26.35 -212.65 L23.6 -213.1 Q20.85 -213.1 19.2 -212.0 L18.35 -211.15 19.2 -212.0 Q20.85 -213.1 23.6 -213.1 L26.35 -212.65 Q30.1 -212.65 31.3 -208.8 L32.0 -213.9 31.05 -216.0 30.2 -217.35 29.65 -218.3 M33.8 -197.9 Q34.65 -195.6 33.55 -192.25 32.4 -190.05 28.0 -189.35 32.4 -190.05 33.55 -192.25 34.65 -195.6 33.8 -197.9 33.0 -199.85 31.2 -201.1 L25.8 -206.05 24.55 -206.35 24.85 -201.65 24.55 -196.15 27.6 -195.85 Q31.75 -195.85 33.8 -197.9 M14.2 -204.0 L14.2 -204.8 14.9 -207.15 14.2 -204.8 14.2 -204.0 M31.3 -208.8 Q32.15 -207.7 32.0 -205.65 L32.3 -202.45 31.2 -201.1 32.3 -202.45 32.0 -205.65 Q32.15 -207.7 31.3 -208.8 M31.05 -216.0 L33.0 -217.1 31.05 -216.0 M32.0 -205.65 Q35.3 -206.05 38.2 -210.45 35.3 -206.05 32.0 -205.65 M33.55 -192.25 L42.75 -196.4 33.55 -192.25 M5.25 -201.25 Q8.85 -198.2 12.15 -196.95 8.85 -198.2 5.25 -201.25" fill="#791515" fill-rule="evenodd" stroke="none"/>
      <path d="M21.65 -220.0 L21.8 -220.1 Q26.2 -221.9 29.65 -218.3 L30.2 -217.35 25.1 -217.1 22.9 -216.25 Q22.35 -217.5 22.1 -218.75 L21.65 -220.0 M28.0 -222.3 L27.75 -222.3 24.3 -222.6 20.55 -222.3 Q19.2 -225.35 17.25 -227.3 L26.2 -226.05 28.0 -222.3 M33.8 -197.9 Q31.75 -195.85 27.6 -195.85 L24.55 -196.15 24.85 -201.65 24.55 -206.35 25.8 -206.05 31.2 -201.1 Q33.0 -199.85 33.8 -197.9 M33.0 -217.1 Q36.0 -218.6 38.35 -217.9 40.7 -215.85 38.2 -210.6 L38.2 -210.45 38.2 -210.6 Q40.7 -215.85 38.35 -217.9 36.0 -218.6 33.0 -217.1 31.85 -218.2 30.1 -218.9 L31.75 -220.55 Q34.35 -222.85 37.95 -224.8 46.1 -220.4 45.55 -213.75 45.55 -211.45 44.15 -208.65 45.55 -211.45 45.55 -213.75 L49.65 -211.85 Q50.75 -211.15 51.45 -210.05 53.95 -205.9 45.95 -197.65 L43.3 -196.55 Q44.55 -198.45 44.55 -200.25 44.55 -204.4 43.3 -207.15 L44.15 -208.65 Q43.45 -209.2 42.5 -209.35 L41.55 -209.35 Q39.3 -209.8 38.2 -210.45 37.25 -210.9 36.95 -211.55 35.2 -214.75 34.1 -216.0 L33.0 -217.1 M47.45 -194.2 Q50.2 -187.3 40.95 -186.35 38.5 -184.7 34.2 -186.05 L38.5 -189.65 Q42.9 -192.7 47.45 -194.2" fill="#ad1e1e" fill-rule="evenodd" stroke="none"/>
      <path d="M17.25 -227.3 L16.55 -227.3 7.85 -215.85 11.3 -211.55 14.9 -207.15 18.35 -211.15 Q15.05 -216.25 21.65 -220.0 L21.8 -220.1 Q26.2 -221.9 29.65 -218.3 L29.8 -218.6 28.0 -222.3 26.2 -226.05 17.25 -227.3 M18.35 -211.15 L19.2 -212.0 Q20.85 -213.1 23.6 -213.1 L26.35 -212.65 Q30.1 -212.65 31.3 -208.8 L32.0 -213.9 31.05 -216.0 30.2 -217.35 29.65 -218.3 M24.55 -206.35 Q20.3 -207.3 14.35 -204.0 L14.2 -204.0 11.85 -201.1 12.15 -196.95 Q12.7 -194.2 17.4 -191.85 20.0 -190.6 23.45 -189.65 L25.8 -188.95 28.0 -189.35 Q32.4 -190.05 33.55 -192.25 34.65 -195.6 33.8 -197.9 33.0 -199.85 31.2 -201.1 L32.3 -202.45 32.0 -205.65 Q32.15 -207.7 31.3 -208.8 M24.55 -206.35 L25.8 -206.05 31.2 -201.1 M14.9 -207.15 L14.2 -204.8 14.2 -204.0 M17.4 -191.85 L10.35 -191.45 Q2.65 -190.6 1.0 -195.7 0.85 -200.55 5.25 -201.25 1.25 -210.2 5.65 -211.55 L11.3 -211.55 M38.2 -210.45 L38.2 -210.6 Q40.7 -215.85 38.35 -217.9 36.0 -218.6 33.0 -217.1 L31.05 -216.0 M44.15 -208.65 Q45.55 -211.45 45.55 -213.75 46.1 -220.4 37.95 -224.8 34.35 -222.85 31.75 -220.55 L30.1 -218.9 29.8 -218.6 M32.3 -202.45 L40.3 -203.15 41.65 -204.7 43.3 -207.15 44.15 -208.65 M38.2 -210.45 Q35.3 -206.05 32.0 -205.65 M43.3 -196.55 L45.95 -197.65 Q53.95 -205.9 51.45 -210.05 50.75 -211.15 49.65 -211.85 L45.55 -213.75 M47.45 -194.2 Q50.2 -187.3 40.95 -186.35 38.5 -184.7 34.2 -186.05 31.45 -187.05 28.0 -189.35 M42.75 -196.4 L43.3 -196.55 M47.45 -194.2 L42.75 -196.4 33.55 -192.25 M12.15 -196.95 Q8.85 -198.2 5.25 -201.25" fill="none" stroke="#000000" stroke-linecap="round" stroke-linejoin="round" stroke-opacity="0.4" stroke-width="0.1"/>
      <path d="M-19.85 -231.95 Q-16.95 -235.4 -10.75 -236.5 -6.35 -231.85 -4.4 -227.0 L1.55 -234.05 12.15 -232.1 15.6 -221.65 Q12.15 -217.65 7.75 -217.65 L7.3 -218.3 Q6.1 -220.1 3.75 -221.65 0.15 -223.7 -3.55 -223.7 L-7.45 -223.3 -6.35 -224.55 -7.45 -223.3 -9.35 -222.6 Q-9.65 -222.3 -9.9 -222.3 L-10.45 -221.75 -11.0 -222.45 Q-12.95 -224.8 -15.45 -226.3 -17.5 -227.3 -19.85 -227.7 L-20.1 -230.3 -19.85 -231.95 M12.3 -213.1 L17.25 -211.7 Q17.1 -208.0 15.6 -206.6 10.65 -201.9 7.75 -200.4 L8.3 -202.2 7.2 -205.1 Q5.0 -202.2 3.2 -200.7 1.0 -199.3 -1.8 -198.9 L-1.65 -199.85 Q-1.25 -202.75 -1.25 -204.95 -1.25 -208.4 -2.35 -212.0 2.1 -211.3 6.75 -206.05 7.45 -207.15 7.2 -209.5 L12.3 -213.1 M18.1 -196.55 Q18.35 -194.9 17.8 -192.7 14.9 -187.7 8.15 -190.2 9.95 -193.65 15.3 -195.6 L18.1 -196.55 M-4.4 -227.0 L-4.4 -226.75 -6.35 -224.55 Q-10.05 -229.1 -13.5 -229.2 -15.0 -228.4 -15.45 -226.3 -15.0 -228.4 -13.5 -229.2 -10.05 -229.1 -6.35 -224.55 L-4.4 -226.75 -4.4 -227.0 M5.1 -215.15 L7.2 -209.5 Q7.45 -207.15 6.75 -206.05 2.1 -211.3 -2.35 -212.0 L-3.85 -215.55 Q-5.1 -218.05 -6.35 -219.55 L-2.9 -219.85 Q3.2 -218.9 5.1 -215.15 M-4.4 -226.75 Q0.45 -229.5 4.45 -226.3 8.45 -221.9 7.3 -218.3 8.45 -221.9 4.45 -226.3 0.45 -229.5 -4.4 -226.75 M6.75 -206.05 L7.2 -205.1 6.75 -206.05" fill="#ad1e1e" fill-rule="evenodd" stroke="none"/>
      <path d="M15.6 -221.65 L17.25 -216.8 12.3 -213.1 7.2 -209.5 5.1 -215.15 Q6.5 -216.4 7.05 -217.65 L7.3 -218.3 7.05 -217.65 Q6.5 -216.4 5.1 -215.15 3.2 -218.9 -2.9 -219.85 L-6.35 -219.55 Q-7.45 -219.15 -8.25 -218.2 L-9.1 -216.95 -8.25 -222.45 -7.45 -223.3 -8.25 -222.45 -9.1 -216.95 -8.25 -218.2 Q-7.45 -219.15 -6.35 -219.55 -5.1 -218.05 -3.85 -215.55 L-2.35 -212.0 Q-1.25 -208.4 -1.25 -204.95 -1.25 -202.75 -1.65 -199.85 L-1.8 -198.9 Q1.0 -199.3 3.2 -200.7 5.0 -202.2 7.2 -205.1 L8.3 -202.2 7.75 -200.4 Q10.65 -201.9 15.6 -206.6 17.1 -208.0 17.25 -211.7 L18.1 -211.45 Q22.35 -208.4 15.05 -199.85 17.65 -198.75 18.1 -196.55 L15.3 -195.6 Q9.95 -193.65 8.15 -190.2 L6.65 -190.9 -0.4 -193.9 -5.8 -193.35 -10.05 -193.5 Q-11.0 -193.9 -12.25 -194.6 -23.0 -191.3 -26.45 -195.7 -35.7 -199.85 -30.75 -206.6 L-24.95 -207.0 -27.85 -209.65 -28.8 -211.85 Q-31.45 -217.75 -31.0 -221.35 -30.6 -225.2 -26.9 -226.3 L-22.2 -227.15 Q-22.05 -227.55 -22.05 -227.95 -21.35 -230.3 -19.85 -231.95 L-20.1 -230.3 -19.85 -227.7 Q-17.5 -227.3 -15.45 -226.3 -12.95 -224.8 -11.0 -222.45 L-10.45 -221.75 -9.9 -222.3 Q-9.65 -222.3 -9.35 -222.6 L-7.45 -223.3 -3.55 -223.7 Q0.15 -223.7 3.75 -221.65 6.1 -220.1 7.3 -218.3 L7.75 -217.65 Q12.15 -217.65 15.6 -221.65 M-12.25 -194.6 Q-16.4 -196.95 -16.8 -199.55 -16.8 -204.7 -14.05 -206.9 -13.1 -207.85 -11.45 -208.4 L-4.25 -212.1 -2.35 -212.0 -4.25 -212.1 -11.45 -208.4 Q-13.1 -207.85 -14.05 -206.9 -16.8 -204.7 -16.8 -199.55 -16.4 -196.95 -12.25 -194.6 M15.05 -199.85 Q10.65 -197.9 6.65 -197.65 5.25 -194.9 -0.4 -193.9 5.25 -194.9 6.65 -197.65 L7.75 -200.4 6.65 -197.65 Q10.65 -197.9 15.05 -199.85 M-16.8 -199.55 L-24.95 -207.0 -16.8 -199.55 M-11.0 -213.9 L-12.25 -210.35 -11.45 -208.4 -12.25 -210.35 -20.25 -213.65 -20.7 -214.9 Q-23.3 -222.3 -22.2 -227.15 -23.3 -222.3 -20.7 -214.9 L-20.25 -213.65 -12.25 -210.35 -11.0 -213.9 Q-13.1 -214.9 -14.45 -217.75 L-15.3 -220.25 -15.55 -221.2 Q-16.0 -224.25 -15.45 -226.3 -16.0 -224.25 -15.55 -221.2 L-15.3 -220.25 -14.45 -217.75 Q-13.1 -214.9 -11.0 -213.9 -10.35 -215.85 -9.1 -216.95 -10.35 -215.85 -11.0 -213.9" fill="#791515" fill-rule="evenodd" stroke="none"/>
      <path d="M-19.85 -231.95 Q-16.95 -235.4 -10.75 -236.5 -6.35 -231.85 -4.4 -227.0 L1.55 -234.05 12.15 -232.1 15.6 -221.65 17.25 -216.8 12.3 -213.1 17.25 -211.7 18.1 -211.45 Q22.35 -208.4 15.05 -199.85 17.65 -198.75 18.1 -196.55 18.35 -194.9 17.8 -192.7 14.9 -187.7 8.15 -190.2 L6.65 -190.9 -0.4 -193.9 -5.8 -193.35 -10.05 -193.5 Q-11.0 -193.9 -12.25 -194.6 -23.0 -191.3 -26.45 -195.7 -35.7 -199.85 -30.75 -206.6 L-24.95 -207.0 -27.85 -209.65 -28.8 -211.85 Q-31.45 -217.75 -31.0 -221.35 -30.6 -225.2 -26.9 -226.3 L-22.2 -227.15 Q-22.05 -227.55 -22.05 -227.95 -21.35 -230.3 -19.85 -231.95 M-15.45 -226.3 Q-15.0 -228.4 -13.5 -229.2 -10.05 -229.1 -6.35 -224.55 L-4.4 -226.75 -4.4 -227.0 M7.3 -218.3 L7.05 -217.65 Q6.5 -216.4 5.1 -215.15 L7.2 -209.5 12.3 -213.1 M7.3 -218.3 Q8.45 -221.9 4.45 -226.3 0.45 -229.5 -4.4 -226.75 M7.75 -200.4 L8.3 -202.2 7.2 -205.1 6.75 -206.05 Q7.45 -207.15 7.2 -209.5 M-2.35 -212.0 L-4.25 -212.1 -11.45 -208.4 Q-13.1 -207.85 -14.05 -206.9 -16.8 -204.7 -16.8 -199.55 -16.4 -196.95 -12.25 -194.6 M-2.35 -212.0 Q2.1 -211.3 6.75 -206.05 M-0.4 -193.9 Q5.25 -194.9 6.65 -197.65 L7.75 -200.4 M6.65 -197.65 Q10.65 -197.9 15.05 -199.85 M-6.35 -224.55 L-7.45 -223.3 -8.25 -222.45 -9.1 -216.95 -8.25 -218.2 Q-7.45 -219.15 -6.35 -219.55 L-2.9 -219.85 Q3.2 -218.9 5.1 -215.15 M-15.45 -226.3 Q-16.0 -224.25 -15.55 -221.2 L-15.3 -220.25 -14.45 -217.75 Q-13.1 -214.9 -11.0 -213.9 -10.35 -215.85 -9.1 -216.95 M-11.45 -208.4 L-12.25 -210.35 -20.25 -213.65 -20.7 -214.9 Q-23.3 -222.3 -22.2 -227.15 M-12.25 -210.35 L-11.0 -213.9 M-24.95 -207.0 L-16.8 -199.55" fill="none" stroke="#000000" stroke-linecap="round" stroke-linejoin="round" stroke-opacity="0.4" stroke-width="0.1"/>
      <path d="M-3.45 -196.0 Q-3.55 -193.25 -8.0 -190.75 -10.45 -186.6 -20.25 -188.4 L-22.05 -187.45 -25.9 -186.9 -30.45 -187.05 -36.25 -183.7 Q-42.75 -180.0 -46.05 -184.15 -48.0 -188.7 -44.65 -190.75 -51.7 -197.35 -48.4 -200.4 L-43.45 -202.35 -48.25 -205.1 -45.25 -218.9 -42.9 -219.55 -43.3 -217.65 -43.45 -214.2 Q-43.45 -211.3 -42.2 -209.2 L-40.0 -208.25 -39.55 -207.15 -39.0 -207.85 -36.1 -209.8 Q-33.25 -211.55 -32.0 -211.55 -30.75 -211.55 -28.7 -209.65 L-30.9 -209.35 Q-35.0 -208.4 -36.65 -206.05 L-37.25 -204.8 -34.6 -203.55 -34.35 -203.7 -29.65 -204.1 -24.8 -203.45 Q-23.3 -202.9 -21.9 -201.65 L-22.45 -200.4 -28.95 -202.75 Q-30.9 -202.75 -32.7 -201.65 -35.45 -200.25 -37.9 -196.55 -38.75 -197.65 -38.75 -199.85 L-37.35 -204.7 -37.25 -204.8 -37.35 -204.7 -38.75 -199.85 Q-38.75 -197.65 -37.9 -196.55 -35.45 -200.25 -32.7 -201.65 -28.7 -196.7 -26.75 -189.8 -20.8 -189.8 -16.7 -192.95 L-16.7 -193.25 -12.55 -197.9 -16.7 -193.25 Q-17.1 -196.4 -18.6 -198.2 -13.65 -200.25 -11.85 -201.35 L-11.55 -201.65 Q-8.55 -203.55 -7.15 -206.35 L-8.25 -202.75 -10.35 -200.4 -12.55 -197.9 -12.55 -197.35 Q-12.55 -195.3 -11.85 -194.6 -11.15 -193.9 -9.1 -193.9 -7.3 -193.9 -5.8 -194.9 L-3.45 -196.0 M-15.0 -217.5 L-15.0 -217.35 Q-13.1 -213.1 -15.3 -205.8 L-21.8 -202.2 -23.3 -205.1 Q-24.1 -206.6 -25.25 -207.45 L-26.45 -212.25 -28.25 -213.9 -27.3 -215.3 Q-26.45 -213.1 -24.8 -211.45 -23.0 -209.5 -20.55 -209.35 -21.5 -206.2 -23.3 -205.1 -21.5 -206.2 -20.55 -209.35 -20.25 -209.9 -20.25 -210.75 L-20.1 -210.75 Q-17.8 -210.75 -16.25 -213.65 -15.3 -215.55 -15.0 -217.5 M-20.25 -188.4 Q-16.8 -190.75 -16.7 -192.95 -16.8 -190.75 -20.25 -188.4 M-39.55 -207.15 Q-39.15 -206.05 -37.9 -205.1 L-37.35 -204.7 -37.9 -205.1 Q-39.15 -206.05 -39.55 -207.15 M-30.45 -187.05 Q-35.45 -187.15 -37.1 -189.5 L-38.9 -193.25 -37.9 -196.55 -38.9 -193.25 -37.1 -189.5 Q-35.45 -187.15 -30.45 -187.05 M-38.75 -199.85 L-43.45 -202.35 -38.75 -199.85 M-44.65 -190.75 Q-40.55 -189.35 -37.1 -189.5 -40.55 -189.35 -44.65 -190.75" fill="#791515" fill-rule="evenodd" stroke="none"/>
      <path d="M-42.9 -219.55 L-36.25 -221.35 -30.45 -215.7 Q-29.25 -220.1 -25.65 -224.55 -17.1 -223.7 -15.0 -217.5 -15.3 -215.55 -16.25 -213.65 -17.8 -210.75 -20.1 -210.75 L-20.25 -210.75 -20.1 -211.7 Q-20.0 -217.35 -22.75 -218.45 -25.1 -217.9 -27.3 -215.3 -25.1 -217.9 -22.75 -218.45 -20.0 -217.35 -20.1 -211.7 L-20.25 -210.75 Q-20.25 -209.9 -20.55 -209.35 -23.0 -209.5 -24.8 -211.45 -26.45 -213.1 -27.3 -215.3 L-28.25 -213.9 -26.45 -212.25 -25.25 -207.45 Q-24.1 -206.6 -23.3 -205.1 L-21.8 -202.2 -21.9 -201.65 -21.8 -202.2 -15.3 -205.8 Q-13.1 -213.1 -15.0 -217.35 L-10.75 -216.95 Q-4.8 -216.1 -7.15 -206.35 -8.55 -203.55 -11.55 -201.65 L-11.85 -201.35 Q-13.65 -200.25 -18.6 -198.2 -17.1 -196.4 -16.7 -193.25 L-16.7 -192.95 Q-20.8 -189.8 -26.75 -189.8 -28.7 -196.7 -32.7 -201.65 -30.9 -202.75 -28.95 -202.75 L-22.45 -200.4 -21.9 -201.65 Q-23.3 -202.9 -24.8 -203.45 L-29.65 -204.1 -34.35 -203.7 -34.6 -203.55 -37.25 -204.8 -36.65 -206.05 Q-35.0 -208.4 -30.9 -209.35 L-28.7 -209.65 Q-30.75 -211.55 -32.0 -211.55 -33.25 -211.55 -36.1 -209.8 L-39.0 -207.85 -39.55 -207.15 -40.0 -208.25 -42.2 -209.2 Q-43.45 -211.3 -43.45 -214.2 L-43.3 -217.65 -42.9 -219.55 M-10.35 -200.4 L-5.5 -200.4 Q-3.3 -198.2 -3.45 -196.0 L-5.8 -194.9 Q-7.3 -193.9 -9.1 -193.9 -11.15 -193.9 -11.85 -194.6 -12.55 -195.3 -12.55 -197.35 L-12.55 -197.9 -10.35 -200.4 M-40.0 -208.25 Q-40.55 -210.9 -37.9 -214.45 -34.9 -217.5 -30.45 -215.55 L-28.25 -213.9 -30.45 -215.55 Q-34.9 -217.5 -37.9 -214.45 -40.55 -210.9 -40.0 -208.25 M-30.45 -215.55 L-30.45 -215.7 -30.45 -215.55 M-25.25 -207.45 Q-26.75 -209.65 -28.7 -209.65 -26.75 -209.65 -25.25 -207.45 M-22.45 -200.4 Q-20.0 -199.85 -18.6 -198.2 -20.0 -199.85 -22.45 -200.4" fill="#ad1e1e" fill-rule="evenodd" stroke="none"/>
      <path d="M-3.45 -196.0 Q-3.55 -193.25 -8.0 -190.75 -10.45 -186.6 -20.25 -188.4 L-22.05 -187.45 -25.9 -186.9 -30.45 -187.05 -36.25 -183.7 Q-42.75 -180.0 -46.05 -184.15 -48.0 -188.7 -44.65 -190.75 -51.7 -197.35 -48.4 -200.4 L-43.45 -202.35 -48.25 -205.1 -45.25 -218.9 -42.9 -219.55 -36.25 -221.35 -30.45 -215.7 Q-29.25 -220.1 -25.65 -224.55 -17.1 -223.7 -15.0 -217.5 L-15.0 -217.35 -10.75 -216.95 Q-4.8 -216.1 -7.15 -206.35 L-8.25 -202.75 -10.35 -200.4 -5.5 -200.4 Q-3.3 -198.2 -3.45 -196.0 M-12.55 -197.9 L-16.7 -193.25 -16.7 -192.95 Q-16.8 -190.75 -20.25 -188.4 M-27.3 -215.3 Q-25.1 -217.9 -22.75 -218.45 -20.0 -217.35 -20.1 -211.7 L-20.25 -210.75 Q-20.25 -209.9 -20.55 -209.35 -21.5 -206.2 -23.3 -205.1 -24.1 -206.6 -25.25 -207.45 L-26.45 -212.25 -28.25 -213.9 -30.45 -215.55 Q-34.9 -217.5 -37.9 -214.45 -40.55 -210.9 -40.0 -208.25 L-39.55 -207.15 Q-39.15 -206.05 -37.9 -205.1 L-37.35 -204.7 -38.75 -199.85 Q-38.75 -197.65 -37.9 -196.55 -35.45 -200.25 -32.7 -201.65 -30.9 -202.75 -28.95 -202.75 L-22.45 -200.4 -21.9 -201.65 -21.8 -202.2 -23.3 -205.1 M-27.3 -215.3 L-28.25 -213.9 M-28.7 -209.65 Q-26.75 -209.65 -25.25 -207.45 M-30.45 -215.7 L-30.45 -215.55 M-28.7 -209.65 L-30.9 -209.35 Q-35.0 -208.4 -36.65 -206.05 L-37.25 -204.8 -37.35 -204.7 M-18.6 -198.2 Q-17.1 -196.4 -16.7 -193.25 M-21.8 -202.2 L-15.3 -205.8 Q-13.1 -213.1 -15.0 -217.35 M-18.6 -198.2 Q-20.0 -199.85 -22.45 -200.4 M-43.45 -202.35 L-38.75 -199.85 M-37.9 -196.55 L-38.9 -193.25 -37.1 -189.5 Q-35.45 -187.15 -30.45 -187.05 M-37.1 -189.5 Q-40.55 -189.35 -44.65 -190.75 M-12.55 -197.9 L-10.35 -200.4" fill="none" stroke="#000000" stroke-linecap="round" stroke-linejoin="round" stroke-opacity="0.4" stroke-width="0.1"/>
      <path d="M-52.65 -197.25 Q-50.45 -198.6 -46.45 -198.6 L-46.35 -198.6 Q-48.4 -201.65 -50.6 -202.75 L-48.8 -204.1 Q-47.15 -203.15 -46.2 -201.5 L-45.25 -198.6 -44.95 -198.05 -43.0 -195.15 Q-41.1 -192.25 -40.65 -192.25 L-38.6 -194.05 -37.8 -194.9 -37.9 -194.45 -35.85 -196.25 Q-34.9 -191.7 -34.2 -189.65 -33.25 -187.45 -31.45 -186.2 -33.25 -183.45 -38.35 -180.25 L-39.15 -178.5 Q-42.2 -174.75 -44.95 -172.95 L-47.55 -167.05 Q-48.65 -164.4 -50.05 -162.9 -51.7 -163.75 -52.65 -163.75 L-56.1 -163.45 -56.65 -163.2 -57.35 -162.9 Q-58.35 -164.3 -57.5 -166.35 L-58.2 -166.35 Q-57.35 -167.2 -56.65 -168.4 -57.25 -171.6 -58.6 -173.65 -59.45 -174.75 -60.65 -175.45 L-63.15 -174.75 -68.4 -173.8 -72.1 -181.25 -71.7 -180.8 Q-68.55 -178.75 -64.55 -178.75 L-61.1 -178.6 -60.4 -179.15 -59.85 -179.7 -60.1 -180.25 -60.4 -181.95 -60.1 -180.25 -61.9 -180.25 -63.15 -180.55 -63.55 -180.8 -63.55 -182.5 Q-63.55 -187.15 -59.15 -190.35 -57.8 -191.45 -56.4 -192.15 -54.6 -192.95 -52.8 -192.95 L-49.8 -192.7 Q-49.35 -190.9 -49.9 -189.35 L-52.65 -189.8 Q-56.1 -190.35 -57.9 -187.45 -60.4 -184.4 -60.4 -181.95 -58.35 -183.7 -55.85 -184.95 -52.55 -186.9 -49.9 -186.9 L-47.55 -186.5 -52.8 -184.25 Q-55.3 -182.05 -55.85 -177.65 L-54.6 -176.55 Q-52.95 -175.3 -50.45 -175.3 -46.2 -175.3 -41.9 -180.25 -39.0 -183.6 -38.45 -185.95 L-38.35 -185.65 -37.9 -194.45 -38.35 -185.65 -38.45 -185.95 Q-42.6 -189.35 -46.6 -186.9 L-47.15 -188.4 -49.9 -189.35 Q-49.35 -190.9 -49.8 -192.7 -50.2 -194.2 -51.3 -195.85 L-52.65 -197.25 M-38.35 -185.65 Q-37.1 -184.15 -38.35 -180.25 -37.1 -184.15 -38.35 -185.65 M-47.15 -188.4 L-44.4 -194.9 -46.35 -198.6 -44.4 -194.9 -47.15 -188.4 M-44.95 -172.95 Q-48.8 -169.8 -51.3 -170.35 L-54.75 -171.75 -56.0 -174.5 Q-56.1 -176.25 -55.85 -177.65 -56.1 -176.25 -56.0 -174.5 L-54.75 -171.75 -51.3 -170.35 Q-48.8 -169.8 -44.95 -172.95 M-52.65 -189.8 L-56.4 -192.15 -52.65 -189.8 M-56.0 -174.5 Q-57.1 -174.75 -58.2 -175.85 L-58.35 -176.0 -59.85 -179.7 -58.35 -176.0 -58.2 -175.85 Q-57.1 -174.75 -56.0 -174.5 M-58.35 -176.0 L-60.65 -175.45 -58.35 -176.0 M-57.5 -166.35 Q-57.1 -166.5 -56.65 -166.75 -53.5 -168.3 -51.3 -170.35 -53.5 -168.3 -56.65 -166.75 -57.1 -166.5 -57.5 -166.35" fill="#791515" fill-rule="evenodd" stroke="none"/>
      <path d="M-61.1 -192.15 Q-62.9 -195.7 -62.6 -200.7 -55.7 -205.65 -50.6 -202.75 -48.4 -201.65 -46.35 -198.6 L-46.45 -198.6 Q-50.45 -198.6 -52.65 -197.25 -55.15 -199.45 -57.1 -198.6 -58.9 -196.4 -58.6 -192.15 L-61.1 -192.15 -58.6 -192.15 Q-58.9 -196.4 -57.1 -198.6 -55.15 -199.45 -52.65 -197.25 L-51.3 -195.85 Q-50.2 -194.2 -49.8 -192.7 L-52.8 -192.95 Q-54.6 -192.95 -56.4 -192.15 -57.8 -191.45 -59.15 -190.35 -63.55 -187.15 -63.55 -182.5 L-63.55 -180.8 -63.15 -180.55 Q-65.8 -181.65 -65.9 -186.5 -65.35 -190.35 -61.1 -192.15 -65.35 -190.35 -65.9 -186.5 -65.8 -181.65 -63.15 -180.55 L-61.9 -180.25 -60.1 -180.25 -59.85 -179.7 -60.4 -179.15 -61.1 -178.6 -64.55 -178.75 Q-68.55 -178.75 -71.7 -180.8 L-72.1 -181.25 -74.05 -184.7 -68.65 -192.15 -61.1 -192.15 M-48.8 -204.1 L-47.45 -205.35 Q-41.5 -208.8 -37.5 -197.35 L-37.8 -194.9 -38.6 -194.05 -40.65 -192.25 Q-41.1 -192.25 -43.0 -195.15 L-44.95 -198.05 -45.25 -198.6 -46.2 -201.5 Q-47.15 -203.15 -48.8 -204.1 M-35.85 -196.25 L-34.35 -197.65 Q-27.3 -197.1 -30.6 -189.65 -30.45 -188.0 -31.45 -186.2 -33.25 -187.45 -34.2 -189.65 -34.9 -191.7 -35.85 -196.25 M-50.05 -162.9 Q-52.1 -160.7 -55.0 -161.1 -56.25 -161.65 -56.95 -162.5 L-57.35 -162.9 -56.65 -163.2 -56.1 -163.45 -52.65 -163.75 Q-51.7 -163.75 -50.05 -162.9 M-58.2 -166.35 Q-66.6 -166.35 -65.65 -170.35 L-63.15 -174.75 -60.65 -175.45 Q-59.45 -174.75 -58.6 -173.65 -57.25 -171.6 -56.65 -168.4 -57.35 -167.2 -58.2 -166.35 M-58.6 -192.15 L-56.4 -192.15 -58.6 -192.15 M-60.4 -181.95 Q-60.4 -184.4 -57.9 -187.45 -56.1 -190.35 -52.65 -189.8 L-49.9 -189.35 -47.15 -188.4 -46.6 -186.9 -47.55 -186.5 -46.6 -186.9 Q-42.6 -189.35 -38.45 -185.95 -39.0 -183.6 -41.9 -180.25 -46.2 -175.3 -50.45 -175.3 -52.95 -175.3 -54.6 -176.55 L-55.85 -177.65 Q-55.3 -182.05 -52.8 -184.25 L-47.55 -186.5 -49.9 -186.9 Q-52.55 -186.9 -55.85 -184.95 -58.35 -183.7 -60.4 -181.95" fill="#ad1e1e" fill-rule="evenodd" stroke="none"/>
      <path d="M-50.6 -202.75 Q-55.7 -205.65 -62.6 -200.7 -62.9 -195.7 -61.1 -192.15 L-58.6 -192.15 Q-58.9 -196.4 -57.1 -198.6 -55.15 -199.45 -52.65 -197.25 L-51.3 -195.85 Q-50.2 -194.2 -49.8 -192.7 -49.35 -190.9 -49.9 -189.35 L-52.65 -189.8 Q-56.1 -190.35 -57.9 -187.45 -60.4 -184.4 -60.4 -181.95 L-60.1 -180.25 -59.85 -179.7 -58.35 -176.0 -58.2 -175.85 Q-57.1 -174.75 -56.0 -174.5 L-54.75 -171.75 -51.3 -170.35 Q-48.8 -169.8 -44.95 -172.95 L-47.55 -167.05 Q-48.65 -164.4 -50.05 -162.9 -52.1 -160.7 -55.0 -161.1 -56.25 -161.65 -56.95 -162.5 L-57.35 -162.9 Q-58.35 -164.3 -57.5 -166.35 L-58.2 -166.35 Q-66.6 -166.35 -65.65 -170.35 L-63.15 -174.75 -68.4 -173.8 -72.1 -181.25 -74.05 -184.7 -68.65 -192.15 -61.1 -192.15 Q-65.35 -190.35 -65.9 -186.5 -65.8 -181.65 -63.15 -180.55 L-61.9 -180.25 -60.1 -180.25 M-46.35 -198.6 Q-48.4 -201.65 -50.6 -202.75 L-48.8 -204.1 -47.45 -205.35 Q-41.5 -208.8 -37.5 -197.35 L-37.8 -194.9 -37.9 -194.45 -35.85 -196.25 -34.35 -197.65 Q-27.3 -197.1 -30.6 -189.65 -30.45 -188.0 -31.45 -186.2 -33.25 -183.45 -38.35 -180.25 L-39.15 -178.5 Q-42.2 -174.75 -44.95 -172.95 M-56.4 -192.15 L-58.6 -192.15 M-38.45 -185.95 L-38.35 -185.65 -37.9 -194.45 M-38.35 -180.25 Q-37.1 -184.15 -38.35 -185.65 M-46.6 -186.9 L-47.15 -188.4 -49.9 -189.35 M-47.55 -186.5 L-46.6 -186.9 Q-42.6 -189.35 -38.45 -185.95 M-55.85 -177.65 Q-56.1 -176.25 -56.0 -174.5 M-46.35 -198.6 L-44.4 -194.9 -47.15 -188.4 M-56.4 -192.15 L-52.65 -189.8 M-60.65 -175.45 L-63.15 -174.75 M-60.65 -175.45 L-58.35 -176.0 M-55.85 -177.65 Q-55.3 -182.05 -52.8 -184.25 L-47.55 -186.5 M-51.3 -170.35 Q-53.5 -168.3 -56.65 -166.75 -57.1 -166.5 -57.5 -166.35" fill="none" stroke="#000000" stroke-linecap="round" stroke-linejoin="round" stroke-opacity="0.4" stroke-width="0.1"/>
      <path d="M16.55 -121.8 L17.65 -116.15 Q17.8 -114.8 18.1 -113.8 17.8 -115.05 18.35 -117.8 L18.35 -121.55 M18.1 -113.8 L18.1 -113.55 Q17.95 -113.4 18.1 -113.15 17.95 -112.85 18.2 -112.6 23.2 -111.35 25.4 -113.15 24.85 -114.1 24.55 -118.25 24.15 -119.9 24.0 -121.7 M8.85 -122.1 L9.4 -118.1 9.95 -114.25 Q9.8 -115.35 10.1 -118.1 L10.35 -122.1 M1.4 -121.8 Q1.95 -119.6 2.1 -117.55 L2.65 -113.8 2.65 -117.55 Q2.65 -121.4 3.6 -122.65 M-1.8 -121.7 Q-1.8 -119.9 -2.2 -118.1 -2.35 -116.3 -2.75 -115.6 -2.6 -114.35 -2.9 -113.8 -2.35 -113.95 -2.6 -113.7 0.15 -111.2 2.65 -113.15 L2.65 -113.7 2.65 -113.8 M2.65 -113.15 Q6.65 -110.35 10.1 -112.6 L9.95 -113.4 Q9.8 -113.8 9.95 -114.25 M18.2 -112.6 Q13.95 -110.8 10.1 -112.6 M35.75 -121.95 L35.75 -118.5 35.3 -115.05 35.3 -114.8 Q37.4 -113.8 39.05 -116.15 39.45 -118.8 39.3 -120.05 38.9 -121.15 38.75 -124.0 M31.3 -122.65 Q30.75 -121.7 31.05 -119.05 30.9 -116.2 31.05 -114.55 L31.05 -114.35 31.05 -113.8 Q33.65 -113.15 35.3 -114.8 M35.3 -115.05 L34.9 -119.9 Q34.75 -120.85 34.75 -122.1 M39.05 -116.15 L39.6 -116.15 Q41.4 -115.2 42.2 -116.7 L42.5 -117.55 42.1 -123.35 M31.05 -114.55 L30.5 -118.1 Q29.8 -120.85 29.95 -122.1 M25.8 -121.55 L25.25 -117.95 Q25.1 -115.35 25.4 -113.15 28.85 -111.9 31.05 -113.8 M43.3 -121.55 Q43.75 -118.35 42.2 -116.7 M-12.95 -121.8 L-13.1 -121.15 Q-13.5 -119.05 -12.55 -115.6 -10.75 -113.7 -9.25 -114.5 -9.1 -115.5 -9.1 -116.6 L-9.1 -116.85 Q-8.8 -117.4 -9.1 -119.35 L-9.1 -121.55 M-6.9 -121.25 L-7.0 -119.75 Q-7.3 -117.55 -6.35 -114.8 L-5.1 -113.8 -3.55 -113.7 -3.0 -113.8 Q-2.6 -116.7 -3.3 -121.15 M-9.1 -116.6 L-8.8 -114.5 -9.25 -114.5 M-7.85 -115.35 L-6.35 -114.8 M-2.9 -113.8 L-3.0 -113.8 M-12.55 -115.6 L-14.05 -116.15 Q-14.75 -117.8 -14.05 -121.8" fill="none" stroke="#540000" stroke-linecap="round" stroke-linejoin="round" stroke-opacity="0.9882353" stroke-width="1.0"/>
      <path d="M20.3 -173.95 L21.55 -174.2 23.05 -173.65 23.85 -172.0 23.3 -170.6 Q22.75 -169.95 21.8 -169.95 22.2 -169.65 22.75 -169.5 23.2 -169.1 23.3 -168.15 23.45 -167.3 22.75 -166.5 22.1 -165.95 21.1 -166.05 20.3 -166.2 20.3 -166.5 19.85 -166.5 19.85 -165.8 19.85 -165.25 19.2 -164.7 18.65 -164.0 17.65 -164.0 16.85 -164.0 16.15 -164.7 15.45 -165.1 15.45 -165.95 L15.85 -167.2 15.6 -167.05 Q15.05 -166.2 14.1 -166.2 13.4 -166.2 12.55 -166.75 11.85 -167.45 12.0 -168.3 11.85 -169.1 12.4 -169.65 12.85 -170.2 13.4 -170.2 L12.4 -170.75 Q11.75 -171.3 11.75 -172.4 11.6 -173.1 12.4 -173.65 13.0 -174.5 13.8 -174.5 14.65 -174.5 15.6 -173.95 L15.45 -174.6 Q15.6 -175.45 16.3 -176.0 16.85 -176.7 18.1 -176.7 19.2 -176.85 19.85 -176.0 L20.55 -174.75 20.3 -173.95 M19.05 -169.4 Q19.6 -169.8 19.45 -170.6 19.6 -171.3 19.05 -171.85 L17.8 -172.15 Q17.0 -172.15 16.55 -171.75 16.15 -171.3 16.0 -170.5 16.0 -169.8 16.55 -169.4 17.1 -168.85 17.8 -168.85 18.65 -168.85 19.05 -169.4" fill="#a80000" fill-opacity="0.9882353" fill-rule="evenodd" stroke="none"/>
      <path d="M19.05 -169.4 Q18.65 -168.85 17.8 -168.85 17.1 -168.85 16.55 -169.4 16.0 -169.8 16.0 -170.5 16.15 -171.3 16.55 -171.75 17.0 -172.15 17.8 -172.15 L19.05 -171.85 Q19.6 -171.3 19.45 -170.6 19.6 -169.8 19.05 -169.4" fill="#d00000" fill-rule="evenodd" stroke="none"/>
      <path d="M41.8 -169.1 L42.75 -168.4 Q43.3 -168.0 43.85 -165.95 L44.0 -166.05 44.0 -165.25 44.0 -165.1 Q47.05 -166.2 48.0 -160.85 52.95 -158.5 49.25 -153.4 50.9 -152.55 51.2 -150.75 51.45 -149.0 49.25 -147.6 49.95 -146.2 48.85 -144.15 47.6 -142.2 46.2 -143.2 46.35 -142.2 45.1 -139.9 43.75 -137.4 40.15 -139.35 36.3 -136.55 33.55 -140.0 30.5 -139.75 28.85 -141.1 27.2 -142.5 27.2 -145.0 L27.85 -145.0 Q21.8 -146.75 25.1 -152.7 22.65 -154.75 23.45 -156.85 24.3 -158.9 25.1 -159.3 24.0 -164.3 28.55 -164.0 28.7 -169.5 34.1 -168.0 36.15 -172.0 39.05 -167.6 40.15 -169.25 40.85 -169.25 L41.8 -169.1 M44.0 -165.25 L43.85 -165.95 44.0 -165.25 M41.8 -163.6 Q39.85 -165.1 37.95 -165.5 L35.75 -165.8 34.1 -165.5 Q31.85 -164.95 30.1 -163.2 L29.0 -161.95 Q27.85 -160.15 27.3 -158.1 26.75 -155.75 27.05 -153.25 L27.05 -152.7 Q27.6 -149.55 29.1 -146.75 L30.75 -144.55 Q32.0 -143.3 33.55 -142.5 35.05 -141.65 36.7 -141.25 L38.35 -141.25 40.15 -141.4 Q42.75 -142.5 44.3 -144.3 L44.85 -145.0 46.5 -148.55 Q47.05 -150.5 46.9 -153.4 L46.9 -153.8 Q46.5 -156.85 45.25 -159.2 44.55 -160.95 43.2 -162.35 L41.8 -163.6 43.85 -165.95 41.8 -163.6 M49.25 -147.6 L46.5 -148.55 49.25 -147.6 M46.2 -143.2 L44.3 -144.3 46.2 -143.2 M29.1 -146.75 L27.85 -145.0 29.1 -146.75 M40.15 -139.35 L40.15 -141.4 40.15 -139.35 M33.55 -140.0 L33.55 -142.5 33.55 -140.0 M25.1 -159.3 L27.3 -158.1 25.1 -159.3 M27.05 -152.7 L25.1 -152.7 27.05 -152.7 M30.1 -163.2 L28.55 -164.0 30.1 -163.2 M39.05 -167.6 L37.95 -165.5 39.05 -167.6 M34.1 -168.0 L34.1 -165.5 34.1 -168.0 M48.0 -160.85 L45.25 -159.2 48.0 -160.85 M49.25 -153.4 L46.9 -153.4 49.25 -153.4" fill="#d00000" fill-rule="evenodd" stroke="none"/>
      <path d="M41.8 -169.1 L42.75 -168.4 Q43.3 -168.0 43.85 -165.95 L44.0 -166.05 44.0 -165.25 44.0 -165.1 Q47.05 -166.2 48.0 -160.85 52.95 -158.5 49.25 -153.4 50.9 -152.55 51.2 -150.75 51.45 -149.0 49.25 -147.6 49.95 -146.2 48.85 -144.15 47.6 -142.2 46.2 -143.2 46.35 -142.2 45.1 -139.9 43.75 -137.4 40.15 -139.35 36.3 -136.55 33.55 -140.0 30.5 -139.75 28.85 -141.1 27.2 -142.5 27.2 -145.0 L27.85 -145.0 Q21.8 -146.75 25.1 -152.7 22.65 -154.75 23.45 -156.85 24.3 -158.9 25.1 -159.3 24.0 -164.3 28.55 -164.0 28.7 -169.5 34.1 -168.0 36.15 -172.0 39.05 -167.6 40.15 -169.25 40.85 -169.25 L41.8 -169.1 M43.85 -165.95 L44.0 -165.25 M41.8 -163.6 Q39.85 -165.1 37.95 -165.5 L35.75 -165.8 34.1 -165.5 Q31.85 -164.95 30.1 -163.2 L29.0 -161.95 Q27.85 -160.15 27.3 -158.1 26.75 -155.75 27.05 -153.25 L27.05 -152.7 Q27.6 -149.55 29.1 -146.75 L30.75 -144.55 Q32.0 -143.3 33.55 -142.5 35.05 -141.65 36.7 -141.25 L38.35 -141.25 40.15 -141.4 Q42.75 -142.5 44.3 -144.3 L44.85 -145.0 46.5 -148.55 Q47.05 -150.5 46.9 -153.4 L46.9 -153.8 Q46.5 -156.85 45.25 -159.2 44.55 -160.95 43.2 -162.35 L41.8 -163.6 43.85 -165.95 M46.9 -153.4 L49.25 -153.4 M45.25 -159.2 L48.0 -160.85 M34.1 -165.5 L34.1 -168.0 M37.95 -165.5 L39.05 -167.6 M28.55 -164.0 L30.1 -163.2 M25.1 -152.7 L27.05 -152.7 M27.3 -158.1 L25.1 -159.3 M33.55 -142.5 L33.55 -140.0 M40.15 -141.4 L40.15 -139.35 M27.85 -145.0 L29.1 -146.75 M44.3 -144.3 L46.2 -143.2 M46.5 -148.55 L49.25 -147.6" fill="none" stroke="#540000" stroke-linecap="round" stroke-linejoin="round" stroke-opacity="0.9882353" stroke-width="0.1"/>
      <path d="M22.9 -143.05 Q27.45 -142.1 24.4 -139.35 25.0 -138.8 25.0 -137.55 24.85 -136.15 21.95 -137.55 20.15 -133.25 17.95 -137.8 17.1 -134.35 14.2 -136.3 10.1 -135.05 12.3 -139.45 8.85 -141.4 13.0 -142.75 9.95 -145.8 15.6 -145.4 11.85 -147.75 16.3 -148.3 17.55 -151.2 19.6 -148.3 22.1 -147.85 21.55 -146.2 23.6 -146.5 24.3 -143.9 L22.9 -143.05 21.95 -143.9 Q21.1 -144.45 20.55 -145.25 L19.2 -146.75 Q18.9 -146.9 18.9 -147.2 18.35 -147.85 17.65 -148.0 17.1 -148.15 16.3 -147.05 L15.6 -145.4 14.9 -144.3 Q14.5 -144.15 13.8 -142.75 12.55 -141.0 12.4 -139.9 L12.3 -139.45 Q12.3 -139.05 12.55 -138.8 13.1 -137.25 14.2 -137.1 15.3 -136.85 17.95 -139.05 L20.55 -137.55 Q21.0 -137.25 21.95 -137.55 22.75 -137.55 23.3 -139.05 L23.45 -139.35 Q24.0 -141.1 22.9 -143.05 M17.95 -137.8 L17.95 -139.05 17.95 -137.8 M14.2 -136.3 L14.2 -137.1 14.2 -136.3 M13.8 -142.75 L13.0 -142.75 13.8 -142.75 M16.3 -147.05 L16.3 -148.3 16.3 -147.05 M18.9 -147.2 L19.6 -148.3 18.9 -147.2 M24.4 -139.35 L23.45 -139.35 24.4 -139.35 M21.55 -146.2 L20.55 -145.25 21.55 -146.2" fill="#d00000" fill-rule="evenodd" stroke="none"/>
      <path d="M22.9 -143.05 Q27.45 -142.1 24.4 -139.35 25.0 -138.8 25.0 -137.55 24.85 -136.15 21.95 -137.55 20.15 -133.25 17.95 -137.8 17.1 -134.35 14.2 -136.3 10.1 -135.05 12.3 -139.45 8.85 -141.4 13.0 -142.75 9.95 -145.8 15.6 -145.4 11.85 -147.75 16.3 -148.3 17.55 -151.2 19.6 -148.3 22.1 -147.85 21.55 -146.2 23.6 -146.5 24.3 -143.9 L22.9 -143.05 21.95 -143.9 Q21.1 -144.45 20.55 -145.25 L19.2 -146.75 Q18.9 -146.9 18.9 -147.2 18.35 -147.85 17.65 -148.0 17.1 -148.15 16.3 -147.05 L15.6 -145.4 14.9 -144.3 Q14.5 -144.15 13.8 -142.75 12.55 -141.0 12.4 -139.9 L12.3 -139.45 Q12.3 -139.05 12.55 -138.8 13.1 -137.25 14.2 -137.1 15.3 -136.85 17.95 -139.05 L20.55 -137.55 Q21.0 -137.25 21.95 -137.55 22.75 -137.55 23.3 -139.05 L23.45 -139.35 Q24.0 -141.1 22.9 -143.05 M20.55 -145.25 L21.55 -146.2 M23.45 -139.35 L24.4 -139.35 M19.6 -148.3 L18.9 -147.2 M16.3 -148.3 L16.3 -147.05 M13.0 -142.75 L13.8 -142.75 M14.2 -137.1 L14.2 -136.3 M17.95 -139.05 L17.95 -137.8" fill="none" stroke="#540000" stroke-linecap="round" stroke-linejoin="round" stroke-opacity="0.9882353" stroke-width="1.0"/>
      <path d="M5.4 -166.2 Q10.65 -164.15 8.15 -160.15 13.0 -155.6 9.0 -153.0 11.75 -148.3 6.65 -147.05 8.15 -140.3 1.4 -141.1 -0.55 -136.3 -5.9 -138.5 -11.0 -136.55 -13.1 -140.3 -16.25 -139.75 -17.9 -141.0 -19.55 -142.35 -18.75 -145.0 -24.55 -147.85 -20.55 -152.0 -25.1 -155.45 -20.1 -158.9 -23.0 -164.7 -17.9 -164.0 -17.9 -169.5 -13.1 -168.0 -11.7 -173.65 -7.15 -170.9 -2.9 -174.2 0.0 -169.95 5.4 -170.75 5.4 -166.2 L2.75 -164.15 5.4 -166.2 M5.65 -159.2 Q5.0 -162.05 2.75 -164.15 L2.65 -164.3 Q1.0 -166.2 -1.25 -167.2 -3.55 -168.3 -6.2 -168.15 L-7.15 -168.0 -8.15 -168.0 Q-10.2 -167.45 -11.7 -166.5 -13.5 -165.5 -15.0 -163.75 L-15.85 -162.75 -17.9 -164.0 -15.85 -162.75 Q-17.65 -160.7 -18.35 -158.1 -18.9 -156.3 -18.9 -154.2 L-18.75 -152.0 Q-18.35 -149.25 -16.8 -146.75 L-15.15 -144.7 Q-13.8 -143.3 -12.1 -142.35 -10.35 -141.25 -8.25 -141.1 L-6.35 -141.0 Q-3.3 -141.1 -0.15 -143.05 1.1 -143.45 2.65 -145.25 5.4 -148.3 6.2 -153.0 L6.35 -155.05 Q6.35 -157.25 5.65 -159.2 L8.15 -160.15 5.65 -159.2 M9.0 -153.0 L6.2 -153.0 9.0 -153.0 M-7.15 -170.9 L-7.15 -168.0 -7.15 -170.9 M6.65 -147.05 L5.1 -147.05 6.65 -147.05 M1.4 -141.1 L-0.15 -143.05 1.4 -141.1 M0.0 -169.95 L-1.25 -167.2 0.0 -169.95 M-13.1 -168.0 L-11.7 -166.5 -13.1 -168.0 M-18.75 -145.0 L-16.8 -146.75 -18.75 -145.0 M-13.1 -140.3 L-12.1 -142.35 -13.1 -140.3 M-5.9 -138.5 L-5.9 -140.0 -5.9 -138.5 M-20.55 -152.0 L-18.75 -152.0 -20.55 -152.0 M-20.1 -158.9 L-18.35 -158.1 -20.1 -158.9" fill="#d00000" fill-rule="evenodd" stroke="none"/>
      <path d="M5.4 -166.2 Q10.65 -164.15 8.15 -160.15 13.0 -155.6 9.0 -153.0 11.75 -148.3 6.65 -147.05 8.15 -140.3 1.4 -141.1 -0.55 -136.3 -5.9 -138.5 -11.0 -136.55 -13.1 -140.3 -16.25 -139.75 -17.9 -141.0 -19.55 -142.35 -18.75 -145.0 -24.55 -147.85 -20.55 -152.0 -25.1 -155.45 -20.1 -158.9 -23.0 -164.7 -17.9 -164.0 -17.9 -169.5 -13.1 -168.0 -11.7 -173.65 -7.15 -170.9 -2.9 -174.2 0.0 -169.95 5.4 -170.75 5.4 -166.2 L2.75 -164.15 Q5.0 -162.05 5.65 -159.2 L8.15 -160.15 M-1.25 -167.2 Q1.0 -166.2 2.65 -164.3 L2.75 -164.15 M6.2 -153.0 L9.0 -153.0 M5.65 -159.2 Q6.35 -157.25 6.35 -155.05 L6.2 -153.0 Q5.4 -148.3 2.65 -145.25 1.1 -143.45 -0.15 -143.05 L1.4 -141.1 M5.1 -147.05 L6.65 -147.05 M-7.15 -168.0 L-7.15 -170.9 M-11.7 -166.5 Q-10.2 -167.45 -8.15 -168.0 L-7.15 -168.0 -6.2 -168.15 Q-3.55 -168.3 -1.25 -167.2 L0.0 -169.95 M-15.85 -162.75 L-15.0 -163.75 Q-13.5 -165.5 -11.7 -166.5 L-13.1 -168.0 M-17.9 -164.0 L-15.85 -162.75 Q-17.65 -160.7 -18.35 -158.1 -18.9 -156.3 -18.9 -154.2 L-18.75 -152.0 Q-18.35 -149.25 -16.8 -146.75 L-15.15 -144.7 Q-13.8 -143.3 -12.1 -142.35 -10.35 -141.25 -8.25 -141.1 L-6.35 -141.0 Q-3.3 -141.1 -0.15 -143.05 M-18.35 -158.1 L-20.1 -158.9 M-18.75 -152.0 L-20.55 -152.0 M-5.9 -140.0 L-5.9 -138.5 M-12.1 -142.35 L-13.1 -140.3 M-16.8 -146.75 L-18.75 -145.0" fill="none" stroke="#540000" stroke-linecap="round" stroke-linejoin="round" stroke-opacity="0.9882353" stroke-width="0.1"/>
      <path d="M1.4 -175.7 Q1.4 -174.9 0.7 -174.5 0.45 -173.95 -0.4 -173.95 -1.1 -173.8 -1.65 -174.35 -2.05 -174.75 -2.05 -175.6 -2.05 -176.25 -1.65 -176.85 L-0.4 -177.25 0.7 -176.95 Q1.4 -176.4 1.4 -175.7 M7.05 -173.65 L7.3 -172.85 7.05 -172.0 Q6.65 -171.6 6.2 -171.6 L5.4 -171.85 Q5.1 -172.3 5.1 -172.7 5.1 -173.25 5.4 -173.65 L6.2 -173.95 7.05 -173.65 M15.6 -160.55 Q16.85 -156.95 13.25 -154.9 13.4 -156.3 12.7 -157.95 11.6 -160.4 13.55 -162.05 14.9 -162.75 15.6 -160.55 M4.15 -127.75 Q2.2 -126.25 1.4 -127.6 0.55 -129.95 2.9 -131.6 4.45 -132.7 5.1 -133.95 7.2 -130.1 4.15 -127.75 M-7.7 -176.95 Q-7.15 -176.4 -7.15 -175.7 -7.15 -174.9 -7.7 -174.5 -8.0 -173.95 -8.8 -173.95 -9.65 -173.8 -10.05 -174.35 -10.6 -174.75 -10.6 -175.6 -10.6 -176.25 -10.05 -176.85 -9.65 -177.25 -8.8 -177.25 L-7.7 -176.95 M-24.0 -164.7 Q-24.55 -163.75 -26.05 -163.75 -27.3 -163.45 -28.1 -164.7 -29.1 -165.5 -29.1 -167.05 -29.1 -168.3 -28.1 -169.1 -27.3 -169.95 -26.05 -170.2 -24.55 -170.2 -24.0 -169.25 -23.0 -168.4 -23.0 -166.9 -23.0 -165.8 -24.0 -164.7 M-33.1 -158.65 L-30.75 -159.05 Q-26.2 -158.35 -25.8 -153.25 -27.45 -154.2 -29.65 -154.2 -33.25 -154.5 -34.05 -157.25 -33.9 -158.2 -33.1 -158.65 M-38.2 -147.45 L-36.65 -149.1 Q-31.55 -151.6 -25.9 -149.25 -28.55 -147.2 -32.0 -143.6 -35.55 -140.0 -38.75 -142.75 L-38.75 -143.45 -38.2 -147.45 M-17.25 -136.3 Q-17.25 -135.35 -17.9 -134.8 -18.45 -134.1 -19.3 -134.1 -20.1 -134.1 -20.8 -134.8 -21.25 -135.35 -21.25 -136.3 -21.25 -137.25 -20.8 -137.8 L-19.3 -138.2 Q-18.45 -138.2 -17.9 -137.8 -17.25 -137.25 -17.25 -136.3 M-12.55 -135.05 Q-11.85 -135.05 -11.55 -134.65 L-11.3 -133.8 Q-11.3 -133.25 -11.55 -133.0 -11.85 -132.7 -12.55 -132.7 -12.95 -132.7 -13.35 -133.0 L-13.5 -133.8 -13.35 -134.65 Q-12.95 -135.05 -12.55 -135.05 M-0.4 -134.8 L-0.25 -134.1 Q-0.25 -133.8 -0.4 -133.65 -0.7 -133.25 -1.1 -133.25 L-1.65 -133.65 -1.9 -134.25 -1.65 -134.8 -1.1 -135.05 -0.4 -134.8 M-5.9 -133.8 L-5.65 -132.85 Q-5.65 -132.55 -5.9 -132.3 -6.35 -132.0 -6.6 -132.0 -7.0 -132.0 -7.3 -132.3 L-7.55 -133.0 -7.3 -133.8 -6.6 -133.95 -5.9 -133.8 M-23.7 -143.05 Q-23.3 -140.45 -25.5 -139.35 -26.9 -139.05 -27.15 -141.25 -27.45 -145.0 -23.7 -146.1 -24.0 -144.55 -23.7 -143.05" fill="#d00000" fill-rule="evenodd" stroke="none"/>
      <path d="M1.4 -175.7 Q1.4 -174.9 0.7 -174.5 0.45 -173.95 -0.4 -173.95 -1.1 -173.8 -1.65 -174.35 -2.05 -174.75 -2.05 -175.6 -2.05 -176.25 -1.65 -176.85 L-0.4 -177.25 0.7 -176.95 Q1.4 -176.4 1.4 -175.7 M7.05 -173.65 L7.3 -172.85 7.05 -172.0 Q6.65 -171.6 6.2 -171.6 L5.4 -171.85 Q5.1 -172.3 5.1 -172.7 5.1 -173.25 5.4 -173.65 L6.2 -173.95 7.05 -173.65 M15.6 -160.55 Q16.85 -156.95 13.25 -154.9 13.4 -156.3 12.7 -157.95 11.6 -160.4 13.55 -162.05 14.9 -162.75 15.6 -160.55 M4.15 -127.75 Q7.2 -130.1 5.1 -133.95 4.45 -132.7 2.9 -131.6 0.55 -129.95 1.4 -127.6 2.2 -126.25 4.15 -127.75 M-7.7 -176.95 Q-7.15 -176.4 -7.15 -175.7 -7.15 -174.9 -7.7 -174.5 -8.0 -173.95 -8.8 -173.95 -9.65 -173.8 -10.05 -174.35 -10.6 -174.75 -10.6 -175.6 -10.6 -176.25 -10.05 -176.85 -9.65 -177.25 -8.8 -177.25 L-7.7 -176.95 M-24.0 -164.7 Q-24.55 -163.75 -26.05 -163.75 -27.3 -163.45 -28.1 -164.7 -29.1 -165.5 -29.1 -167.05 -29.1 -168.3 -28.1 -169.1 -27.3 -169.95 -26.05 -170.2 -24.55 -170.2 -24.0 -169.25 -23.0 -168.4 -23.0 -166.9 -23.0 -165.8 -24.0 -164.7 M-17.25 -136.3 Q-17.25 -135.35 -17.9 -134.8 -18.45 -134.1 -19.3 -134.1 -20.1 -134.1 -20.8 -134.8 -21.25 -135.35 -21.25 -136.3 -21.25 -137.25 -20.8 -137.8 L-19.3 -138.2 Q-18.45 -138.2 -17.9 -137.8 -17.25 -137.25 -17.25 -136.3 M-12.55 -135.05 Q-11.85 -135.05 -11.55 -134.65 L-11.3 -133.8 Q-11.3 -133.25 -11.55 -133.0 -11.85 -132.7 -12.55 -132.7 -12.95 -132.7 -13.35 -133.0 L-13.5 -133.8 -13.35 -134.65 Q-12.95 -135.05 -12.55 -135.05 M-0.4 -134.8 L-0.25 -134.1 Q-0.25 -133.8 -0.4 -133.65 -0.7 -133.25 -1.1 -133.25 L-1.65 -133.65 -1.9 -134.25 -1.65 -134.8 -1.1 -135.05 -0.4 -134.8 M-5.9 -133.8 L-5.65 -132.85 Q-5.65 -132.55 -5.9 -132.3 -6.35 -132.0 -6.6 -132.0 -7.0 -132.0 -7.3 -132.3 L-7.55 -133.0 -7.3 -133.8 -6.6 -133.95 -5.9 -133.8" fill="none" stroke="#a80000" stroke-linecap="round" stroke-linejoin="round" stroke-opacity="0.9882353" stroke-width="1.0"/>
      <path d="M-33.1 -158.65 L-30.75 -159.05 Q-26.2 -158.35 -25.8 -153.25 -27.45 -154.2 -29.65 -154.2 -33.25 -154.5 -34.05 -157.25 -33.9 -158.2 -33.1 -158.65 M-38.2 -147.45 L-36.65 -149.1 Q-31.55 -151.6 -25.9 -149.25 -28.55 -147.2 -32.0 -143.6 -35.55 -140.0 -38.75 -142.75 -40.1 -145.0 -38.2 -147.45 M-38.75 -143.45 L-38.75 -142.75 M-23.7 -143.05 Q-23.3 -140.45 -25.5 -139.35 -26.9 -139.05 -27.15 -141.25 -27.45 -145.0 -23.7 -146.1 -24.0 -144.55 -23.7 -143.05" fill="none" stroke="#540000" stroke-linecap="round" stroke-linejoin="round" stroke-opacity="0.9882353" stroke-width="1.0"/>
      <path d="M47.85 -167.2 Q48.0 -168.0 48.7 -168.3 L50.1 -168.4 Q50.9 -168.15 51.2 -167.6 51.75 -167.05 51.45 -166.2 51.2 -165.25 50.5 -164.95 49.95 -164.55 49.1 -164.7 48.4 -164.95 48.0 -165.5 47.6 -166.2 47.85 -167.2 M40.85 -172.4 L40.3 -171.75 39.05 -171.85 Q38.65 -172.0 38.5 -172.55 38.2 -173.25 38.5 -173.8 L39.05 -174.2 39.3 -174.35 40.15 -174.2 40.95 -173.65 Q41.1 -172.95 40.85 -172.4 M34.75 -173.5 Q34.9 -172.85 34.65 -172.3 L34.1 -171.75 Q33.55 -171.45 33.0 -171.75 32.4 -172.0 32.3 -172.4 32.0 -173.1 32.4 -173.65 32.55 -174.2 33.0 -174.2 L33.1 -174.2 Q33.55 -174.5 33.95 -174.2 L34.75 -173.5 M28.55 -171.15 L28.85 -170.9 28.85 -169.95 28.55 -169.65 28.3 -169.5 Q27.75 -169.25 27.3 -169.5 26.75 -169.65 26.65 -170.2 L26.75 -171.05 27.3 -171.75 28.15 -171.6 28.55 -171.15 M28.4 -170.2 L28.4 -170.75 28.0 -171.15 27.45 -171.15 Q27.3 -171.05 27.3 -170.75 L27.05 -170.2 27.45 -169.95 Q27.75 -169.65 28.0 -169.95 28.3 -169.95 28.4 -170.2 28.3 -169.95 28.0 -169.95 27.75 -169.65 27.45 -169.95 L27.05 -170.2 27.3 -170.75 Q27.3 -171.05 27.45 -171.15 L28.0 -171.15 28.4 -170.75 28.4 -170.2 M21.8 -158.2 Q21.0 -156.85 20.85 -155.6 18.35 -157.95 19.6 -160.7 20.55 -162.35 21.65 -161.65 22.9 -160.15 21.95 -158.5 L21.8 -158.2 M28.0 -130.5 Q28.3 -131.75 29.25 -132.85 L29.25 -132.7 30.1 -131.6 31.3 -130.5 Q33.55 -128.55 32.3 -126.65 30.9 -125.8 29.4 -127.2 27.6 -128.85 28.0 -130.5 M40.3 -132.15 L39.6 -132.0 Q39.05 -132.15 39.05 -132.55 38.75 -132.85 39.05 -133.25 L39.05 -133.8 39.85 -133.8 40.3 -133.4 Q40.7 -133.0 40.4 -132.55 L40.3 -132.15 M34.65 -135.35 L34.75 -134.8 34.5 -134.25 Q34.2 -133.95 33.8 -134.1 33.55 -134.1 33.55 -134.65 33.25 -134.9 33.4 -135.2 33.25 -135.75 33.55 -135.75 L34.2 -135.9 34.65 -135.35 M52.95 -139.2 Q52.7 -138.5 52.0 -138.1 51.3 -137.55 50.35 -137.65 49.65 -137.95 49.25 -138.8 48.95 -139.45 48.95 -140.55 48.95 -141.1 49.55 -141.65 50.35 -142.2 51.2 -141.95 51.85 -141.8 52.4 -141.0 53.1 -140.0 52.95 -139.2 M45.95 -136.55 L46.75 -135.9 46.9 -134.8 Q46.9 -134.35 46.5 -134.1 L46.5 -133.95 45.65 -133.8 44.7 -134.5 44.55 -135.45 44.95 -136.45 45.95 -136.55" fill="#d00000" fill-rule="evenodd" stroke="none"/>
      <path d="M47.85 -167.2 Q48.0 -168.0 48.7 -168.3 L50.1 -168.4 Q50.9 -168.15 51.2 -167.6 51.75 -167.05 51.45 -166.2 51.2 -165.25 50.5 -164.95 49.95 -164.55 49.1 -164.7 48.4 -164.95 48.0 -165.5 47.6 -166.2 47.85 -167.2 M40.85 -172.4 L40.3 -171.75 39.05 -171.85 Q38.65 -172.0 38.5 -172.55 38.2 -173.25 38.5 -173.8 L39.05 -174.2 39.3 -174.35 40.15 -174.2 40.95 -173.65 Q41.1 -172.95 40.85 -172.4 M34.75 -173.5 Q34.9 -172.85 34.65 -172.3 L34.1 -171.75 Q33.55 -171.45 33.0 -171.75 32.4 -172.0 32.3 -172.4 32.0 -173.1 32.4 -173.65 32.55 -174.2 33.0 -174.2 L33.1 -174.2 Q33.55 -174.5 33.95 -174.2 L34.75 -173.5 M28.4 -170.2 Q28.3 -169.95 28.0 -169.95 27.75 -169.65 27.45 -169.95 L27.05 -170.2 27.3 -170.75 Q27.3 -171.05 27.45 -171.15 L28.0 -171.15 28.4 -170.75 28.4 -170.2 M21.8 -158.2 L21.95 -158.5 Q22.9 -160.15 21.65 -161.65 20.55 -162.35 19.6 -160.7 18.35 -157.95 20.85 -155.6 21.0 -156.85 21.8 -158.2 M28.0 -130.5 Q28.3 -131.75 29.25 -132.85 L29.25 -132.7 30.1 -131.6 31.3 -130.5 Q33.55 -128.55 32.3 -126.65 30.9 -125.8 29.4 -127.2 27.6 -128.85 28.0 -130.5 M40.3 -132.15 L39.6 -132.0 Q39.05 -132.15 39.05 -132.55 38.75 -132.85 39.05 -133.25 L39.05 -133.8 39.85 -133.8 40.3 -133.4 Q40.7 -133.0 40.4 -132.55 L40.3 -132.15 M34.65 -135.35 L34.75 -134.8 34.5 -134.25 Q34.2 -133.95 33.8 -134.1 33.55 -134.1 33.55 -134.65 33.25 -134.9 33.4 -135.2 33.25 -135.75 33.55 -135.75 L34.2 -135.9 34.65 -135.35 M52.95 -139.2 Q52.7 -138.5 52.0 -138.1 51.3 -137.55 50.35 -137.65 49.65 -137.95 49.25 -138.8 48.95 -139.45 48.95 -140.55 48.95 -141.1 49.55 -141.65 50.35 -142.2 51.2 -141.95 51.85 -141.8 52.4 -141.0 53.1 -140.0 52.95 -139.2 M45.95 -136.55 L46.75 -135.9 46.9 -134.8 Q46.9 -134.35 46.5 -134.1 L46.5 -133.95 45.65 -133.8 44.7 -134.5 44.55 -135.45 44.95 -136.45 45.95 -136.55" fill="none" stroke="#a80000" stroke-linecap="round" stroke-linejoin="round" stroke-opacity="0.9882353" stroke-width="1.0"/>
      <path d="M4.45 -109.15 Q5.4 -111.9 10.2 -110.95 15.05 -108.45 16.55 -102.5 13.25 -106.4 8.7 -106.95 5.25 -107.35 4.55 -108.3 4.3 -108.6 4.45 -109.15 M0.15 -109.25 L-0.8 -109.0 -1.65 -109.25 Q-2.05 -109.8 -2.05 -110.5 -2.05 -111.05 -1.65 -111.6 L-0.8 -111.9 Q-0.15 -111.9 0.15 -111.6 0.55 -111.05 0.55 -110.35 0.55 -109.8 0.15 -109.25 M17.65 -107.5 Q15.85 -109.8 18.2 -111.9 18.9 -112.3 20.55 -110.35 22.1 -108.05 20.55 -105.85 L19.3 -104.7 Q18.9 -105.95 17.65 -107.5 M37.8 -114.8 L38.5 -114.9 39.2 -114.8 39.45 -113.8 39.2 -113.0 Q38.9 -112.6 38.5 -112.6 L37.8 -113.0 Q37.4 -113.15 37.4 -113.7 L37.8 -114.8 M23.3 -105.25 Q25.1 -109.25 28.55 -111.35 33.55 -112.6 34.5 -109.8 34.65 -109.25 34.35 -109.0 33.65 -108.05 30.2 -107.35 25.65 -106.5 22.35 -102.8 22.65 -104.15 23.3 -105.25 M36.7 -108.15 L36.95 -108.6 37.25 -108.7 37.65 -108.6 37.8 -108.3 37.65 -107.6 37.25 -107.5 36.95 -107.6 36.7 -108.15 M46.9 -113.55 L47.75 -113.8 Q48.95 -114.8 49.4 -116.45 50.2 -119.05 48.95 -119.2 48.0 -119.35 47.3 -116.85 47.3 -118.8 47.85 -120.05 48.0 -120.6 48.4 -120.85 49.65 -122.35 50.35 -121.25 L50.35 -121.0 Q51.05 -120.05 51.2 -118.65 51.2 -117.0 50.35 -115.35 L50.1 -114.65 49.8 -114.1 46.9 -113.55 M-21.5 -108.6 Q-23.7 -110.35 -24.25 -113.0 -23.85 -115.05 -22.6 -116.6 -21.35 -118.35 -19.15 -117.15 -17.1 -116.15 -17.25 -113.15 -18.75 -115.35 -20.25 -114.8 -22.35 -114.1 -21.25 -111.35 -19.7 -109.15 -16.25 -109.25 L-21.5 -108.6" fill="#000000" fill-rule="evenodd" stroke="none"/>
      <path d="M4.45 -109.15 Q5.4 -111.9 10.2 -110.95 15.05 -108.45 16.55 -102.5 13.25 -106.4 8.7 -106.95 5.25 -107.35 4.55 -108.3 4.3 -108.6 4.45 -109.15 M0.15 -109.25 L-0.8 -109.0 -1.65 -109.25 Q-2.05 -109.8 -2.05 -110.5 -2.05 -111.05 -1.65 -111.6 L-0.8 -111.9 Q-0.15 -111.9 0.15 -111.6 0.55 -111.05 0.55 -110.35 0.55 -109.8 0.15 -109.25 M2.65 -105.4 Q2.35 -105.15 2.1 -105.15 1.8 -105.15 1.65 -105.4 L1.55 -105.85 1.65 -106.4 2.1 -106.5 2.65 -106.4 2.65 -105.85 2.65 -105.4 M17.65 -107.5 Q15.85 -109.8 18.2 -111.9 18.9 -112.3 20.55 -110.35 22.1 -108.05 20.55 -105.85 L19.3 -104.7 Q18.9 -105.95 17.65 -107.5 M37.8 -114.8 L38.5 -114.9 39.2 -114.8 39.45 -113.8 39.2 -113.0 Q38.9 -112.6 38.5 -112.6 L37.8 -113.0 Q37.4 -113.15 37.4 -113.7 L37.8 -114.8 M23.3 -105.25 Q22.65 -104.15 22.35 -102.8 25.65 -106.5 30.2 -107.35 33.65 -108.05 34.35 -109.0 34.65 -109.25 34.5 -109.8 33.55 -112.6 28.55 -111.35 25.1 -109.25 23.3 -105.25 M36.7 -108.15 L36.95 -108.6 37.25 -108.7 37.65 -108.6 37.8 -108.3 37.65 -107.6 37.25 -107.5 36.95 -107.6 36.7 -108.15 M46.9 -113.55 L47.75 -113.8 Q48.95 -114.8 49.4 -116.45 50.2 -119.05 48.95 -119.2 48.0 -119.35 47.3 -116.85 47.3 -118.8 47.85 -120.05 48.0 -120.6 48.4 -120.85 49.65 -122.35 50.35 -121.25 L50.35 -121.0 Q51.05 -120.05 51.2 -118.65 51.2 -117.0 50.35 -115.35 L50.1 -114.65 49.8 -114.1 46.9 -113.55 46.2 -113.15 Q44.4 -112.6 43.05 -111.35 L41.25 -109.55 M-21.5 -108.6 L-16.25 -109.25 Q-19.7 -109.15 -21.25 -111.35 -22.35 -114.1 -20.25 -114.8 -18.75 -115.35 -17.25 -113.15 -17.1 -116.15 -19.15 -117.15 -21.35 -118.35 -22.6 -116.6 -23.85 -115.05 -24.25 -113.0 -23.7 -110.35 -21.5 -108.6 M-6.2 -107.6 Q-10.45 -109.55 -16.25 -109.25" fill="none" stroke="#250000" stroke-linecap="round" stroke-linejoin="round" stroke-opacity="0.9882353" stroke-width="1.0"/>
      <path d="M40.55 -154.75 Q40.15 -154.35 39.75 -154.35 L40.3 -153.95 Q40.7 -153.8 40.7 -153.25 40.85 -152.4 40.3 -152.0 39.85 -151.45 39.3 -151.6 L38.5 -151.75 38.5 -151.3 Q38.5 -150.9 37.95 -150.5 37.55 -150.1 36.95 -150.1 36.3 -149.95 35.75 -150.35 35.2 -150.75 35.2 -151.3 L35.3 -152.15 Q35.05 -151.6 34.2 -151.6 33.55 -151.45 33.1 -152.0 32.55 -152.3 32.55 -152.85 32.55 -153.55 33.0 -153.95 L33.55 -154.5 Q33.25 -154.5 33.0 -154.75 32.4 -155.2 32.3 -155.85 L32.55 -156.85 33.65 -157.4 35.05 -157.25 34.9 -157.55 Q34.75 -158.2 35.3 -158.5 35.75 -159.05 36.55 -159.05 L37.95 -158.75 38.35 -157.95 38.2 -157.25 39.05 -157.25 Q39.75 -157.25 40.3 -156.85 L40.85 -156.0 40.55 -154.75 M37.55 -155.75 L36.55 -155.85 Q36.0 -155.75 35.75 -155.45 35.3 -155.05 35.3 -154.5 35.3 -154.1 35.85 -153.8 36.3 -153.4 36.85 -153.4 37.4 -153.4 37.55 -153.95 37.95 -154.2 37.95 -154.65 L37.55 -155.75 37.95 -154.65 Q37.95 -154.2 37.55 -153.95 37.4 -153.4 36.85 -153.4 36.3 -153.4 35.85 -153.8 35.3 -154.1 35.3 -154.5 35.3 -155.05 35.75 -155.45 36.0 -155.75 36.55 -155.85 L37.55 -155.75" fill="#ffffff" fill-rule="evenodd" stroke="none"/>
      <path d="M40.55 -154.75 Q40.15 -154.35 39.75 -154.35 L40.3 -153.95 Q40.7 -153.8 40.7 -153.25 40.85 -152.4 40.3 -152.0 39.85 -151.45 39.3 -151.6 L38.5 -151.75 38.5 -151.3 Q38.5 -150.9 37.95 -150.5 37.55 -150.1 36.95 -150.1 36.3 -149.95 35.75 -150.35 35.2 -150.75 35.2 -151.3 L35.3 -152.15 Q35.05 -151.6 34.2 -151.6 33.55 -151.45 33.1 -152.0 32.55 -152.3 32.55 -152.85 32.55 -153.55 33.0 -153.95 L33.55 -154.5 Q33.25 -154.5 33.0 -154.75 32.4 -155.2 32.3 -155.85 L32.55 -156.85 33.65 -157.4 35.05 -157.25 34.9 -157.55 Q34.75 -158.2 35.3 -158.5 35.75 -159.05 36.55 -159.05 L37.95 -158.75 38.35 -157.95 38.2 -157.25 39.05 -157.25 Q39.75 -157.25 40.3 -156.85 L40.85 -156.0 40.55 -154.75 M37.55 -155.75 L37.95 -154.65 Q37.95 -154.2 37.55 -153.95 37.4 -153.4 36.85 -153.4 36.3 -153.4 35.85 -153.8 35.3 -154.1 35.3 -154.5 35.3 -155.05 35.75 -155.45 36.0 -155.75 36.55 -155.85 L37.55 -155.75" fill="none" stroke="#ffffff" stroke-linecap="round" stroke-linejoin="round" stroke-opacity="0.9882353" stroke-width="1.0"/>
      <path d="M-3.55 -158.5 Q-3.0 -157.95 -3.0 -157.55 L-3.15 -156.95 -2.35 -157.1 -1.1 -156.7 -0.55 -155.75 Q-0.55 -155.05 -0.8 -154.5 -1.25 -154.1 -1.8 -154.1 L-1.25 -153.8 Q-0.8 -153.55 -0.7 -153.0 -0.55 -152.3 -1.1 -151.75 -1.5 -151.2 -2.05 -151.3 -2.75 -151.3 -2.9 -151.6 L-2.9 -151.05 Q-2.9 -150.65 -3.45 -150.2 -3.85 -149.8 -4.55 -149.8 -5.1 -149.65 -5.65 -150.1 -6.2 -150.5 -6.2 -151.05 -6.35 -151.4 -6.1 -151.7 -6.5 -151.3 -7.15 -151.3 -7.85 -151.2 -8.25 -151.75 -8.8 -152.0 -8.8 -152.7 L-8.55 -153.8 Q-8.15 -153.95 -7.85 -154.2 L-8.55 -154.5 -9.1 -155.75 -8.8 -156.7 -7.7 -157.25 -6.35 -156.95 -6.45 -157.25 Q-6.6 -157.95 -6.05 -158.35 -5.8 -158.75 -4.8 -158.9 -4.15 -158.9 -3.55 -158.5 M-3.85 -155.45 L-4.8 -155.75 -5.8 -155.2 -6.05 -154.35 Q-6.05 -153.8 -5.5 -153.55 -5.1 -153.1 -4.55 -153.25 -4.15 -153.25 -3.85 -153.65 -3.45 -153.95 -3.55 -154.5 -3.55 -155.05 -3.85 -155.45 -3.55 -155.05 -3.55 -154.5 -3.45 -153.95 -3.85 -153.65 -4.15 -153.25 -4.55 -153.25 -5.1 -153.1 -5.5 -153.55 -6.05 -153.8 -6.05 -154.35 L-5.8 -155.2 -4.8 -155.75 -3.85 -155.45" fill="#ffffff" fill-rule="evenodd" stroke="none"/>
      <path d="M-3.55 -158.5 Q-3.0 -157.95 -3.0 -157.55 L-3.15 -156.95 -2.35 -157.1 -1.1 -156.7 -0.55 -155.75 Q-0.55 -155.05 -0.8 -154.5 -1.25 -154.1 -1.8 -154.1 L-1.25 -153.8 Q-0.8 -153.55 -0.7 -153.0 -0.55 -152.3 -1.1 -151.75 -1.5 -151.2 -2.05 -151.3 -2.75 -151.3 -2.9 -151.6 L-2.9 -151.05 Q-2.9 -150.65 -3.45 -150.2 -3.85 -149.8 -4.55 -149.8 -5.1 -149.65 -5.65 -150.1 -6.2 -150.5 -6.2 -151.05 -6.35 -151.4 -6.1 -151.7 -6.5 -151.3 -7.15 -151.3 -7.85 -151.2 -8.25 -151.75 -8.8 -152.0 -8.8 -152.7 L-8.55 -153.8 Q-8.15 -153.95 -7.85 -154.2 L-8.55 -154.5 -9.1 -155.75 -8.8 -156.7 -7.7 -157.25 -6.35 -156.95 -6.45 -157.25 Q-6.6 -157.95 -6.05 -158.35 -5.8 -158.75 -4.8 -158.9 -4.15 -158.9 -3.55 -158.5 M-3.85 -155.45 Q-3.55 -155.05 -3.55 -154.5 -3.45 -153.95 -3.85 -153.65 -4.15 -153.25 -4.55 -153.25 -5.1 -153.1 -5.5 -153.55 -6.05 -153.8 -6.05 -154.35 L-5.8 -155.2 -4.8 -155.75 -3.85 -155.45" fill="none" stroke="#ffffff" stroke-linecap="round" stroke-linejoin="round" stroke-opacity="0.9882353" stroke-width="1.0"/>
    </g>
    <linearGradient gradientTransform="matrix(0.0016, 0.0195, -0.0663, 0.0, -2.0, -124.9)" gradientUnits="userSpaceOnUse" id="gradient0" spreadMethod="pad" x1="-819.2" x2="819.2">
      <stop offset="0.0" stop-color="#000000" stop-opacity="0.5019608"/>
      <stop offset="1.0" stop-color="#000000" stop-opacity="0.0"/>
    </linearGradient>
  </defs>
</svg>
