<?xml version="1.0" encoding="UTF-8" standalone="no"?>
<svg xmlns:xlink="http://www.w3.org/1999/xlink" height="531.5px" width="460.6px" xmlns="http://www.w3.org/2000/svg">
  <g transform="matrix(1.0, 0.0, 0.0, 1.0, 193.65, 334.05)">
    <use height="128.2" transform="matrix(1.6227, 0.0, 0.0, 1.6227, -84.3429, -266.3168)" width="121.7" xlink:href="#shape0"/>
  </g>
  <defs>
    <g id="shape0" transform="matrix(1.0, 0.0, 0.0, 1.0, 60.85, 64.1)">
      <path d="M9.1 -42.25 L17.95 -48.9 Q18.55 -48.9 20.2 -47.6 L21.85 -46.3 Q22.35 -46.3 24.05 -47.35 L24.7 -39.4 Q24.25 -36.85 23.25 -34.55 L22.85 -33.75 22.85 -35.0 22.85 -33.75 21.7 -31.8 Q19.6 -28.45 16.7 -24.95 14.55 -29.1 11.8 -31.8 L9.45 -33.75 6.35 -35.85 4.65 -36.9 9.1 -42.25 M12.9 -38.3 L9.45 -33.75 12.9 -38.3 M22.85 -35.0 Q22.6 -40.45 21.0 -43.35 L16.1 -41.55 22.85 -35.0 M15.7 -41.4 L16.1 -41.55 15.7 -41.4 M-58.5 -16.75 L-55.75 -19.2 -56.05 -20.55 -54.4 -22.25 Q-52.95 -23.7 -51.95 -23.7 L-50.55 -23.35 -47.05 -22.25 -44.05 -21.25 Q-44.35 -18.55 -45.5 -16.25 L-46.3 -14.8 -58.5 -16.75 M-53.05 -18.55 L-52.25 -22.95 -50.55 -23.35 -52.25 -22.95 -53.05 -18.55" fill="#69eabc" fill-rule="evenodd" stroke="none"/>
      <path d="M24.05 -47.35 Q22.35 -46.3 21.85 -46.3 L20.2 -47.6 Q18.55 -48.9 17.95 -48.9 L9.1 -42.25 11.15 -44.8 Q16.45 -54.0 17.6 -62.6 21.95 -57.85 24.0 -47.6 L24.05 -47.35 M16.1 -41.55 L21.0 -43.35 Q22.6 -40.45 22.85 -35.0 L16.1 -41.55 M-56.05 -20.55 L-57.45 -27.15 -49.35 -28.05 -46.65 -26.1 -44.8 -24.75 -44.0 -24.2 Q-43.9 -22.65 -44.05 -21.25 L-47.05 -22.25 -50.55 -23.35 -51.95 -23.7 Q-52.95 -23.7 -54.4 -22.25 L-56.05 -20.55 M-50.55 -23.35 L-44.8 -24.75 -50.55 -23.35" fill="#8ef9c6" fill-rule="evenodd" stroke="none"/>
      <path d="M6.35 -35.85 L9.45 -33.75 11.8 -31.8 Q14.55 -29.1 16.7 -24.95 L17.3 -23.05 16.0 -21.0 Q10.75 -27.5 5.4 -31.8 L3.85 -33.0 5.05 -34.4 6.35 -35.85 M-50.55 -6.35 L-52.65 -7.55 -53.75 -8.75 -53.95 -10.1 -52.35 -9.25 -49.25 -11.45 -47.7 -12.95 -46.3 -14.8 -45.5 -16.25 -43.15 -14.55 -41.25 -12.95 -40.85 -12.55 Q-41.95 -10.3 -43.4 -8.8 -44.9 -7.25 -46.8 -6.5 L-48.25 -6.05 -50.55 -6.35 M-39.6 -30.0 L-39.5 -30.25 -38.95 -32.0 -42.15 -36.5 -36.8 -36.5 Q-35.15 -39.2 -32.85 -41.25 L-35.75 -51.45 -28.25 -44.5 -26.6 -45.3 -24.85 -46.0 Q-21.5 -41.5 -24.2 -39.3 L-25.2 -39.2 -26.6 -38.95 Q-34.0 -37.45 -38.95 -30.6 L-39.25 -30.35 -39.35 -30.25 -39.6 -30.0 M-22.05 -46.25 L-21.15 -46.15 -20.95 -46.1 -17.7 -55.85 -16.7 -45.2 Q-13.15 -44.1 -10.25 -41.8 L-7.95 -39.7 -3.15 -43.75 -4.15 -37.75 -4.6 -35.15 -2.95 -31.8 -2.6 -30.9 -2.05 -29.45 Q-1.25 -24.45 -4.8 -29.1 L-5.75 -30.25 -7.25 -31.8 -10.25 -34.35 -13.0 -36.15 -13.55 -36.45 -15.1 -37.2 -16.7 -37.9 Q-22.5 -43.85 -22.05 -46.25 M15.75 -17.75 L16.35 -17.75 17.65 -16.0 18.4 -14.9 Q20.05 -11.75 20.6 -8.1 20.6 -7.85 19.8 -7.15 L19.5 -7.05 Q0.4 -1.05 -19.25 4.25 L-20.15 4.3 Q-22.4 4.3 -24.05 3.5 L-25.25 2.7 Q-26.25 1.7 -26.25 0.2 -26.25 -1.6 -24.15 -6.2 L-23.25 -8.1 -22.2 -9.9 -21.8 -10.45 -20.0 -12.7 -19.75 -12.95 -19.7 -13.0 -18.5 -13.3 -16.2 -13.95 -11.5 -15.1 -11.25 -15.15 -10.25 -15.4 -7.25 -16.0 -6.35 -16.15 -2.6 -16.7 0.2 -17.1 1.2 -17.2 3.4 -17.4 6.3 -17.6 8.2 -17.7 8.45 -17.7 11.4 -17.8 15.75 -17.75 Q14.9 -14.9 11.4 -17.8 14.9 -14.9 15.75 -17.75 M-31.9 2.5 L-34.2 -3.8 -34.2 2.3 -36.05 1.1 -36.05 4.35 Q-37.3 4.45 -38.35 5.0 L-40.95 1.9 -41.4 7.95 -41.5 8.15 -43.75 9.35 Q-44.75 9.95 -45.15 10.85 L-47.7 11.45 -48.85 8.55 Q-49.45 6.35 -49.45 1.5 L-49.45 0.0 -49.2 -0.15 -43.4 -3.3 -39.45 -5.3 -39.25 -5.4 -38.65 -5.65 -34.85 -7.4 -29.9 -9.45 Q-28.85 -8.15 -28.85 -5.7 -28.85 -2.45 -31.5 1.85 L-31.9 2.5 M9.4 -14.65 L6.3 -17.6 9.4 -14.65 M16.2 11.7 Q19.55 10.05 20.95 15.75 22.85 23.1 22.7 27.6 22.5 33.35 18.2 33.45 18.0 27.6 13.55 25.95 16.5 21.05 14.95 15.9 L16.2 11.7 M-23.0 34.2 Q-26.85 29.25 -27.6 24.55 -28.05 22.15 -27.6 19.85 -26.85 15.3 -23.05 11.15 -21.8 9.75 -20.4 8.85 -19.6 9.9 -18.7 11.45 -21.0 14.35 -20.9 18.7 -20.8 22.2 -19.1 26.65 -22.55 28.85 -23.0 34.2 M-18.5 -13.3 L-21.45 -10.5 -21.8 -10.45 -21.45 -10.5 -18.5 -13.3 M-6.35 -16.15 L-10.55 -12.15 -6.35 -16.15 M-14.05 24.65 L-12.1 23.15 Q-12.05 25.2 -11.25 27.85 -12.4 25.9 -14.05 24.65" fill="#4cd5cd" fill-rule="evenodd" stroke="none"/>
      <path d="M4.65 -36.9 L6.35 -35.85 5.05 -34.4 3.85 -33.0 0.0 -35.6 Q0.7 -36.5 2.35 -37.5 L4.65 -36.9 M18.5 -17.7 L20.75 -17.6 21.7 -16.0 Q23.3 -12.7 23.05 -8.25 L22.6 -8.1 21.45 -7.7 19.6 -7.0 19.8 -7.15 Q20.6 -7.85 20.6 -8.1 20.05 -11.75 18.4 -14.9 L17.65 -16.0 16.35 -17.75 18.5 -17.7 M-47.7 11.45 L-48.6 11.65 -49.25 11.85 -51.55 12.35 Q-54.65 8.3 -53.15 2.2 L-50.75 0.75 -49.45 0.0 -49.45 1.5 Q-49.45 6.35 -48.85 8.55 L-47.7 11.45 M-46.65 -26.1 L-45.0 -27.1 -42.9 -26.5 -42.4 -26.3 -42.0 -26.1 -41.2 -25.55 -39.95 -24.35 Q-38.45 -17.8 -40.55 -13.3 L-40.7 -12.95 -41.25 -12.95 -43.15 -14.55 -45.5 -16.25 Q-44.35 -18.55 -44.05 -21.25 -43.9 -22.65 -44.0 -24.2 L-44.8 -24.75 -46.65 -26.1 M-44.05 -24.95 L-44.0 -24.2 -44.05 -24.95" fill="#85eae3" fill-rule="evenodd" stroke="none"/>
      <path d="M16.0 -21.0 L18.5 -17.7 16.35 -17.75 15.75 -17.75 16.0 -19.4 Q15.05 -20.3 14.1 -21.95 14.55 -16.35 8.3 -22.75 L7.95 -21.25 Q9.9 -19.0 11.4 -17.8 L8.45 -17.7 8.2 -17.7 4.95 -20.55 5.3 -22.75 4.0 -24.55 Q4.0 -23.25 3.5 -21.75 L-1.7 -25.8 Q-3.45 -23.0 -5.6 -20.5 -8.05 -22.15 -10.45 -24.15 L-11.45 -22.3 -6.75 -19.2 Q-8.85 -17.05 -11.25 -15.15 L-11.5 -15.1 -16.2 -13.95 -18.5 -13.3 Q-17.05 -15.05 -16.05 -17.1 L-17.75 -18.05 Q-18.7 -15.45 -22.6 -12.65 L-35.3 -13.0 Q-35.55 -11.3 -36.75 -9.8 -33.05 -9.5 -29.35 -9.65 L-29.9 -9.45 -34.85 -7.4 -38.65 -5.65 -39.25 -5.4 -39.45 -5.3 -43.4 -3.3 -49.2 -0.15 -49.45 0.0 -50.75 0.75 -50.8 -0.15 -50.85 -0.95 -44.4 -3.9 -43.1 -4.7 Q-34.05 -10.85 -36.0 -22.8 -32.8 -25.05 -32.05 -13.45 -30.6 -13.3 -29.2 -13.45 -29.6 -29.15 -38.0 -25.0 -35.45 -9.85 -46.25 -4.7 L-46.95 -4.4 Q-49.75 -3.25 -50.8 -3.35 L-50.55 -6.35 -48.25 -6.05 -46.8 -6.5 Q-44.9 -7.25 -43.4 -8.8 -41.95 -10.3 -40.85 -12.55 L-40.7 -12.95 -40.55 -13.3 Q-38.45 -17.8 -39.95 -24.35 L-41.2 -25.55 Q-30.9 -31.3 -22.55 -28.8 L-19.8 -27.75 -19.25 -29.6 -18.25 -31.55 Q-15.2 -30.15 -12.55 -27.55 L-15.45 -20.65 Q-18.8 -24.4 -16.8 -28.2 L-18.5 -29.35 Q-21.05 -23.15 -16.15 -19.0 L-15.0 -18.1 -10.65 -25.45 -10.65 -25.4 -10.45 -25.7 -9.6 -27.4 Q-13.3 -31.05 -17.45 -32.8 -15.6 -35.4 -13.0 -36.15 L-10.25 -34.35 -7.25 -31.8 -5.75 -30.25 -4.8 -29.1 Q-1.25 -24.45 -2.05 -29.45 L-2.6 -30.9 -2.95 -31.8 -4.6 -35.15 -4.15 -37.75 -3.75 -37.55 Q1.65 -32.45 1.95 -28.05 L7.05 -21.35 Q9.95 -28.45 3.2 -31.95 L4.05 -30.35 Q7.65 -27.7 6.65 -24.05 L3.25 -28.05 Q2.05 -33.7 -1.75 -36.55 L0.0 -35.6 3.85 -33.0 5.4 -31.8 Q10.75 -27.5 16.0 -21.0 M-42.9 -26.5 L-41.6 -27.95 Q-29.25 -35.4 -20.0 -32.25 L-20.8 -30.4 Q-29.45 -34.25 -42.4 -26.3 L-42.9 -26.5 M4.7 -27.7 L5.7 -26.4 5.7 -27.7 4.6 -28.85 4.7 -27.7 M2.95 -20.35 L1.2 -17.2 0.2 -17.1 -3.6 -19.2 -0.75 -22.95 2.95 -20.35 M3.4 -17.4 L4.45 -19.2 6.3 -17.6 3.4 -17.4 M-6.35 -16.15 L-4.65 -17.95 -2.6 -16.7 -6.35 -16.15 M-15.1 -37.2 Q-17.6 -36.15 -19.3 -33.45 -26.5 -35.6 -35.0 -32.15 L-39.6 -30.0 -39.35 -30.25 -39.25 -30.35 -38.95 -30.6 Q-34.0 -37.45 -26.6 -38.95 L-25.2 -39.2 -24.2 -39.3 -21.85 -39.4 -21.35 -39.3 Q-18.95 -38.8 -16.7 -37.9 L-15.1 -37.2 M-15.6 -27.2 L-16.35 -25.25 -14.6 -24.2 -13.85 -26.1 -15.6 -27.2" fill="#98e3e7" fill-rule="evenodd" stroke="none"/>
      <path d="M-50.85 -0.95 L-50.8 -3.35 Q-49.75 -3.25 -46.95 -4.4 L-46.25 -4.7 Q-35.45 -9.85 -38.0 -25.0 -29.6 -29.15 -29.2 -13.45 -30.6 -13.3 -32.05 -13.45 -32.8 -25.05 -36.0 -22.8 -34.05 -10.85 -43.1 -4.7 L-44.4 -3.9 -50.85 -0.95 M-41.6 -27.95 L-39.6 -30.0 -35.0 -32.15 Q-26.5 -35.6 -19.3 -33.45 -17.6 -36.15 -15.1 -37.2 L-13.55 -36.45 -13.0 -36.15 Q-15.6 -35.4 -17.45 -32.8 -13.3 -31.05 -9.6 -27.4 L-10.45 -25.7 -10.65 -25.45 -10.45 -25.7 -10.65 -25.4 -10.65 -25.45 -15.0 -18.1 -16.15 -19.0 Q-21.05 -23.15 -18.5 -29.35 L-16.8 -28.2 Q-18.8 -24.4 -15.45 -20.65 L-12.55 -27.55 Q-15.2 -30.15 -18.25 -31.55 L-19.25 -29.6 -19.8 -27.75 -22.55 -28.8 Q-30.9 -31.3 -41.2 -25.55 L-42.0 -26.1 -42.4 -26.3 Q-29.45 -34.25 -20.8 -30.4 L-20.0 -32.25 Q-29.25 -35.4 -41.6 -27.95 M-3.75 -37.55 L-2.6 -37.0 -1.75 -36.55 Q2.05 -33.7 3.25 -28.05 L6.65 -24.05 Q7.65 -27.7 4.05 -30.35 L3.2 -31.95 Q9.95 -28.45 7.05 -21.35 L1.95 -28.05 Q1.65 -32.45 -3.75 -37.55 M4.7 -27.7 L4.6 -28.85 5.7 -27.7 5.7 -26.4 4.7 -27.7 M15.75 -17.75 L11.4 -17.8 Q9.9 -19.0 7.95 -21.25 L8.3 -22.75 Q14.55 -16.35 14.1 -21.95 15.05 -20.3 16.0 -19.4 L15.75 -17.75 M8.2 -17.7 L6.3 -17.6 4.45 -19.2 3.4 -17.4 1.2 -17.2 2.95 -20.35 4.45 -19.2 2.95 -20.35 -0.75 -22.95 -3.6 -19.2 -4.65 -17.95 -3.6 -19.2 0.2 -17.1 -2.6 -16.7 -4.65 -17.95 -6.35 -16.15 -7.25 -16.0 -10.25 -15.4 -11.25 -15.15 Q-8.85 -17.05 -6.75 -19.2 L-5.6 -20.5 -6.75 -19.2 -11.45 -22.3 -10.45 -24.15 Q-8.05 -22.15 -5.6 -20.5 -3.45 -23.0 -1.7 -25.8 L3.5 -21.75 Q4.0 -23.25 4.0 -24.55 L5.3 -22.75 4.95 -20.55 8.2 -17.7 M3.5 -21.75 L4.95 -20.55 3.5 -21.75 M-29.35 -9.65 Q-33.05 -9.5 -36.75 -9.8 -35.55 -11.3 -35.3 -13.0 L-22.6 -12.65 Q-18.7 -15.45 -17.75 -18.05 L-16.05 -17.1 Q-17.05 -15.05 -18.5 -13.3 L-19.7 -13.0 -19.85 -12.95 -22.2 -12.25 Q-25.85 -11.1 -29.35 -9.65 M-15.6 -27.2 L-13.85 -26.1 -14.6 -24.2 -16.35 -25.25 -15.6 -27.2" fill="#78cdd3" fill-rule="evenodd" stroke="none"/>
      <path d="M19.6 -7.0 Q23.8 -4.65 25.95 3.1 23.9 4.3 21.8 6.15 19.8 8.15 21.1 10.85 L26.15 11.0 Q24.0 13.3 25.6 13.1 L27.55 12.6 27.95 18.5 23.2 17.4 Q25.85 19.9 26.9 25.55 L25.05 24.95 Q27.35 29.55 26.35 33.85 24.8 33.15 23.3 33.85 23.45 36.7 24.15 38.4 L20.2 35.75 Q21.35 39.25 21.25 40.65 17.55 38.5 16.1 36.7 L17.25 40.45 18.8 43.9 Q12.5 45.45 1.7 45.9 -5.35 46.2 -14.35 46.05 L-16.5 46.0 -16.5 45.9 -16.5 45.75 -17.3 43.3 -18.05 41.8 Q-19.2 43.4 -19.9 43.65 -21.45 42.2 -23.0 39.3 -24.55 41.35 -26.55 42.1 -28.55 42.55 -28.55 37.3 -32.1 41.3 -35.0 40.9 L-32.85 37.2 Q-34.2 36.55 -37.2 37.65 -36.2 35.8 -33.65 32.9 L-37.8 32.7 Q-34.7 31.3 -31.9 28.0 L-35.55 27.45 Q-33.55 25.65 -31.7 24.7 L-29.45 23.55 -31.4 23.1 -35.0 22.3 -35.9 22.15 -47.55 21.65 -48.3 21.7 -47.7 11.45 -45.15 10.85 Q-44.75 9.95 -43.75 9.35 L-41.5 8.15 -41.4 7.95 -40.95 1.9 -38.35 5.0 Q-37.3 4.45 -36.05 4.35 L-36.05 1.1 -34.2 2.3 -34.2 -3.8 -31.9 2.5 -29.8 7.05 -29.3 6.95 -19.25 4.25 Q0.4 -1.05 19.5 -7.05 L19.6 -7.0 M-48.0 32.8 L-48.05 32.6 -47.85 32.7 -48.0 32.8 M9.7 16.95 Q7.8 18.05 5.9 18.15 3.25 18.3 0.5 16.35 L-2.8 13.35 Q-9.1 7.45 -14.3 7.15 L-17.3 7.45 Q-18.9 7.85 -20.4 8.85 -21.8 9.75 -23.05 11.15 -26.85 15.3 -27.6 19.85 -28.05 22.15 -27.6 24.55 -26.85 29.25 -23.0 34.2 L-20.6 37.0 -19.75 37.85 -17.3 39.3 Q-14.25 40.7 -10.7 40.75 -7.35 40.7 -3.1 39.3 L-3.2 39.3 Q1.35 37.7 6.6 34.2 10.1 31.2 13.95 32.55 16.45 33.4 18.2 33.45 22.5 33.35 22.7 27.6 22.85 23.1 20.95 15.75 19.55 10.05 16.2 11.7 L13.9 13.3 12.15 14.95 9.7 16.95" fill="#cafdff" fill-rule="evenodd" stroke="none"/>
      <path d="M25.95 3.1 Q29.65 0.9 33.25 0.75 32.2 5.0 30.35 7.85 L34.0 7.65 Q30.5 11.45 27.55 12.6 L25.6 13.1 Q24.0 13.3 26.15 11.0 L21.1 10.85 Q19.8 8.15 21.8 6.15 23.9 4.3 25.95 3.1 M27.95 18.5 L28.65 18.65 32.0 19.55 Q39.5 21.6 47.1 24.7 L39.5 28.35 Q53.75 31.85 58.4 45.9 L59.35 49.4 Q48.2 48.6 40.25 45.9 36.45 44.6 33.35 42.85 L33.4 45.9 Q32.7 51.1 26.7 54.35 L22.1 49.1 21.5 48.25 20.35 46.5 20.0 45.9 18.8 43.9 17.25 40.45 16.1 36.7 Q17.55 38.5 21.25 40.65 21.35 39.25 20.2 35.75 L24.15 38.4 Q23.45 36.7 23.3 33.85 24.8 33.15 26.35 33.85 27.35 29.55 25.05 24.95 L26.9 25.55 Q25.85 19.9 23.2 17.4 L27.95 18.5 M-16.5 46.0 Q-16.5 49.1 -17.3 52.4 -18.5 57.3 -21.6 62.6 -27.35 56.9 -30.75 48.25 -33.5 51.75 -38.5 54.05 -39.7 50.95 -39.5 48.5 -39.55 47.05 -39.15 45.9 L-39.05 45.55 -39.45 45.9 -42.95 48.25 -46.25 49.6 -46.45 48.15 -56.1 49.65 -59.35 49.85 -58.25 45.9 Q-57.35 43.15 -56.1 40.9 -54.15 37.35 -51.35 35.0 -49.85 33.7 -48.0 32.8 L-47.85 32.7 -48.05 32.6 -51.7 29.65 Q-54.0 27.6 -56.1 24.95 L-57.5 23.05 -56.1 22.75 -51.55 22.0 -48.3 21.7 -47.55 21.65 -35.9 22.15 -35.0 22.3 -31.4 23.1 -29.45 23.55 -31.7 24.7 Q-33.55 25.65 -35.55 27.45 L-31.9 28.0 Q-34.7 31.3 -37.8 32.7 L-33.65 32.9 Q-36.2 35.8 -37.2 37.65 -34.2 36.55 -32.85 37.2 L-35.0 40.9 Q-32.1 41.3 -28.55 37.3 -28.55 42.55 -26.55 42.1 -24.55 41.35 -23.0 39.3 -21.45 42.2 -19.9 43.65 -19.2 43.4 -18.05 41.8 L-17.3 43.3 -16.5 45.75 -16.5 45.9 -16.5 46.0 M26.65 8.0 L30.35 7.85 26.65 8.0 M-35.0 40.9 L-36.5 42.85 -37.05 43.5 -39.05 45.55 -37.05 43.5 -36.5 42.85 -35.0 40.9 M-30.9 47.8 L-30.75 48.25 -30.9 47.8 M-46.45 48.15 L-46.6 45.9 Q-46.6 43.3 -45.9 40.7 L-45.6 39.6 Q-44.9 37.3 -43.65 35.0 -45.9 34.05 -47.85 32.7 -45.9 34.05 -43.65 35.0 -44.9 37.3 -45.6 39.6 L-45.9 40.7 Q-46.6 43.3 -46.6 45.9 L-46.45 48.15" fill="#91ffcf" fill-rule="evenodd" stroke="none"/>
      <path d="M0.5 16.35 Q3.25 18.3 5.9 18.15 7.8 18.05 9.7 16.95 L11.35 16.95 Q12.85 15.45 14.95 15.95 L14.95 15.9 Q16.5 21.05 13.55 25.95 18.0 27.6 18.2 33.45 16.45 33.4 13.95 32.55 10.1 31.2 6.6 34.2 1.35 37.7 -3.2 39.3 L-3.1 39.3 Q-8.3 40.5 -12.1 38.3 -14.7 38.9 -17.3 38.3 -18.95 37.9 -20.6 37.0 L-23.0 34.2 Q-22.55 28.85 -19.1 26.65 L-17.3 26.25 Q-15.65 25.7 -14.05 24.65 -12.4 25.9 -11.25 27.85 -12.05 25.2 -12.1 23.15 L-11.4 22.0 -11.45 21.95 Q-10.45 16.45 -14.9 15.75 -19.7 14.5 -20.9 18.7 -21.0 14.35 -18.7 11.45 L-18.6 11.5 -17.3 11.0 Q-12.35 9.4 -8.95 15.15 -4.4 13.0 -1.85 17.4 -0.65 16.6 0.5 16.35 M-10.5 20.4 L-11.4 22.0 -10.5 20.4 M10.85 27.35 Q9.5 26.75 7.4 26.85 6.75 28.0 4.05 28.65 3.05 28.45 1.35 27.65 -2.25 29.35 -3.0 29.5 -5.2 27.65 -5.4 26.65 -7.9 28.0 -10.25 28.1 -7.9 28.0 -5.4 26.65 -5.2 27.65 -3.0 29.5 -2.25 29.35 1.35 27.65 3.05 28.45 4.05 28.65 6.75 28.0 7.4 26.85 9.5 26.75 10.85 27.35 M-5.05 23.8 Q-6.95 17.15 -11.1 22.95 -10.15 26.0 -9.6 26.15 L-8.35 26.2 Q-7.65 26.1 -5.05 23.8 -4.55 26.4 -3.2 27.55 -0.6 27.8 0.65 25.95 -0.85 20.3 -5.05 23.8 M-11.05 32.95 Q-7.7 34.5 -4.8 33.55 -3.8 30.6 -5.8 29.0 -8.35 28.3 -11.0 30.35 -11.7 28.1 -14.2 25.8 -17.05 28.75 -20.05 27.5 -22.1 38.45 -11.3 32.85 L-11.05 32.95 Q-11.25 35.8 -12.1 38.05 -11.25 35.8 -11.05 32.95 M-3.1 36.65 L-3.45 33.05 -3.1 36.65" fill="#e0fffa" fill-rule="evenodd" stroke="none"/>
      <path d="M9.7 16.95 L12.15 14.95 13.9 13.3 16.2 11.7 14.95 15.9 14.95 15.95 Q12.85 15.45 11.35 16.95 L9.7 16.95 M-3.1 39.3 Q-7.35 40.7 -10.7 40.75 -14.25 40.7 -17.3 39.3 L-19.75 37.85 -20.6 37.0 Q-18.95 37.9 -17.3 38.3 -14.7 38.9 -12.1 38.3 -8.3 40.5 -3.1 39.3 M-20.4 8.85 Q-18.9 7.85 -17.3 7.45 L-14.3 7.15 Q-9.1 7.45 -2.8 13.35 L0.5 16.35 Q-0.65 16.6 -1.85 17.4 -4.4 13.0 -8.95 15.15 -12.35 9.4 -17.3 11.0 L-18.6 11.5 -18.7 11.45 Q-19.6 9.9 -20.4 8.85" fill="#ffd0ca" fill-rule="evenodd" stroke="none"/>
      <path d="M-53.95 -10.1 L-56.4 -11.4 -59.35 -16.05 -58.5 -16.75 -46.3 -14.8 -47.7 -12.95 -49.25 -11.45 -52.35 -9.25 -53.95 -10.1" fill="#5ccea5" fill-rule="evenodd" stroke="none"/>
      <path d="M-24.85 -46.0 L-23.8 -46.35 -22.05 -46.25 Q-22.5 -43.85 -16.7 -37.9 -18.95 -38.8 -21.35 -39.3 L-21.85 -39.4 -24.2 -39.3 Q-21.5 -41.5 -24.85 -46.0 M-19.25 4.25 L-29.3 6.95 -29.8 7.05 -31.9 2.5 -31.5 1.85 Q-28.85 -2.45 -28.85 -5.7 -28.85 -8.15 -29.9 -9.45 L-29.35 -9.65 -21.8 -10.45 -29.35 -9.65 Q-25.85 -11.1 -22.2 -12.25 L-19.85 -12.95 -19.7 -13.0 -19.75 -12.95 -20.0 -12.7 -21.8 -10.45 -22.2 -9.9 -23.25 -8.1 -24.15 -6.2 Q-26.25 -1.6 -26.25 0.2 -26.25 1.7 -25.25 2.7 L-24.05 3.5 Q-22.4 4.3 -20.15 4.3 L-19.25 4.25 M-20.9 18.7 Q-19.7 14.5 -14.9 15.75 -10.45 16.45 -11.45 21.95 L-11.4 22.0 -12.1 23.15 -14.05 24.65 Q-15.65 25.7 -17.3 26.25 L-19.1 26.65 Q-20.8 22.2 -20.9 18.7 M-5.05 23.8 Q-0.85 20.3 0.65 25.95 -0.6 27.8 -3.2 27.55 -4.55 26.4 -5.05 23.8 -7.65 26.1 -8.35 26.2 L-9.6 26.15 Q-10.15 26.0 -11.1 22.95 -6.95 17.15 -5.05 23.8 M-11.05 32.95 L-11.3 32.85 Q-22.1 38.45 -20.05 27.5 -17.05 28.75 -14.2 25.8 -11.7 28.1 -11.0 30.35 -8.35 28.3 -5.8 29.0 -3.8 30.6 -4.8 33.55 -7.7 34.5 -11.05 32.95" fill="#ffffff" fill-rule="evenodd" stroke="none"/>
      <path d="M4.65 -36.9 L6.35 -35.85 9.45 -33.75 12.9 -38.3 M22.85 -35.0 L22.85 -33.75 M16.1 -41.55 L21.0 -43.35 Q22.6 -40.45 22.85 -35.0 M16.1 -41.55 L15.7 -41.4 M3.85 -33.0 L0.0 -35.6 M3.85 -33.0 L5.4 -31.8 Q10.75 -27.5 16.0 -21.0 M16.7 -24.95 Q14.55 -29.1 11.8 -31.8 L9.45 -33.75 M15.75 -17.75 L16.35 -17.75 18.5 -17.7 M19.8 -7.15 L19.6 -7.0 M19.5 -7.05 Q0.4 -1.05 -19.25 4.25 L-29.3 6.95 -29.8 7.05 -31.9 2.5 -34.2 -3.8 -34.2 2.3 -36.05 1.1 -36.05 4.35 Q-37.3 4.45 -38.35 5.0 L-40.95 1.9 -41.4 7.95 -41.5 8.15 -43.75 9.35 Q-44.75 9.95 -45.15 10.85 L-47.7 11.45 M-49.45 0.0 L-50.75 0.75 M15.75 -17.75 L11.4 -17.8 8.45 -17.7 M8.2 -17.7 L6.3 -17.6 3.4 -17.4 1.2 -17.2 0.2 -17.1 -2.6 -16.7 -6.35 -16.15 -7.25 -16.0 -10.25 -15.4 -11.25 -15.15 M19.8 -7.15 L19.5 -7.05 M0.5 16.35 Q3.25 18.3 5.9 18.15 7.8 18.05 9.7 16.95 L12.15 14.95 13.9 13.3 16.2 11.7 Q19.55 10.05 20.95 15.75 22.85 23.1 22.7 27.6 22.5 33.35 18.2 33.45 16.45 33.4 13.95 32.55 10.1 31.2 6.6 34.2 1.35 37.7 -3.2 39.3 L-3.1 39.3 Q-7.35 40.7 -10.7 40.75 -14.25 40.7 -17.3 39.3 L-19.75 37.85 -20.6 37.0 -23.0 34.2 Q-26.85 29.25 -27.6 24.55 -28.05 22.15 -27.6 19.85 -26.85 15.3 -23.05 11.15 -21.8 9.75 -20.4 8.85 -18.9 7.85 -17.3 7.45 L-14.3 7.15 Q-9.1 7.45 -2.8 13.35 L0.5 16.35 Q-0.65 16.6 -1.85 17.4 -4.4 13.0 -8.95 15.15 -12.35 9.4 -17.3 11.0 L-18.6 11.5 -18.7 11.45 Q-21.0 14.35 -20.9 18.7 -20.8 22.2 -19.1 26.65 -22.55 28.85 -23.0 34.2 M-11.4 22.0 L-10.5 20.4 M14.95 15.9 L14.95 15.95 Q12.85 15.45 11.35 16.95 L9.7 16.95 M14.95 15.9 L16.2 11.7 M18.2 33.45 Q18.0 27.6 13.55 25.95 16.5 21.05 14.95 15.9 M-10.25 28.1 Q-7.9 28.0 -5.4 26.65 -5.2 27.65 -3.0 29.5 -2.25 29.35 1.35 27.65 3.05 28.45 4.05 28.65 6.75 28.0 7.4 26.85 9.5 26.75 10.85 27.35 M-42.9 -26.5 L-42.4 -26.3 -42.0 -26.1 -41.2 -25.55 -39.95 -24.35 Q-38.45 -17.8 -40.55 -13.3 L-40.7 -12.95 -40.85 -12.55 Q-41.95 -10.3 -43.4 -8.8 -44.9 -7.25 -46.8 -6.5 L-48.25 -6.05 -50.55 -6.35 M-13.0 -36.15 L-13.55 -36.45 -15.1 -37.2 -16.7 -37.9 Q-18.95 -38.8 -21.35 -39.3 L-21.85 -39.4 -24.2 -39.3 -25.2 -39.2 -26.6 -38.95 Q-34.0 -37.45 -38.95 -30.6 L-39.25 -30.35 -39.35 -30.25 -39.6 -30.0 M-44.05 -21.25 Q-43.9 -22.65 -44.0 -24.2 L-44.8 -24.75 -50.55 -23.35 -52.25 -22.95 -53.05 -18.55 M-44.05 -21.25 Q-44.35 -18.55 -45.5 -16.25 L-46.3 -14.8 -47.7 -12.95 -49.25 -11.45 -52.35 -9.25 -53.95 -10.1 M-49.45 0.0 L-49.2 -0.15 -43.4 -3.3 -39.45 -5.3 -39.25 -5.4 -38.65 -5.65 -34.85 -7.4 -29.9 -9.45 -29.35 -9.65 Q-25.85 -11.1 -22.2 -12.25 L-19.85 -12.95 -19.7 -13.0 -18.5 -13.3 -16.2 -13.95 -11.5 -15.1 M-44.8 -24.75 L-46.65 -26.1 M-44.0 -24.2 L-44.05 -24.95 M-4.6 -35.15 L-2.95 -31.8 -2.6 -30.9 -2.05 -29.45 Q-1.25 -24.45 -4.8 -29.1 L-5.75 -30.25 -7.25 -31.8 -10.25 -34.35 -13.0 -36.15 M-14.05 24.65 L-12.1 23.15 -11.4 22.0 M-30.75 48.25 L-30.9 47.8 M-11.05 32.95 Q-11.25 35.8 -12.1 38.05 M-3.45 33.05 L-3.1 36.65 M-19.1 26.65 L-17.3 26.25 Q-15.65 25.7 -14.05 24.65 -12.4 25.9 -11.25 27.85 -12.05 25.2 -12.1 23.15 M-20.6 37.0 Q-18.95 37.9 -17.3 38.3 -14.7 38.9 -12.1 38.3 -8.3 40.5 -3.1 39.3 M-20.4 8.85 Q-19.6 9.9 -18.7 11.45" fill="none" stroke="#2ec1a7" stroke-linecap="round" stroke-linejoin="round" stroke-opacity="0.4" stroke-width="0.7000000000000001"/>
      <path d="M9.1 -42.25 L4.65 -36.9 2.35 -37.5 Q0.7 -36.5 0.0 -35.6 L-1.75 -36.55 -2.6 -37.0 -3.75 -37.55 -4.15 -37.75 -4.6 -35.15 M22.85 -33.75 L23.25 -34.55 Q24.25 -36.85 24.7 -39.4 L24.05 -47.35 24.0 -47.6 Q21.95 -57.85 17.6 -62.6 16.45 -54.0 11.15 -44.8 L9.1 -42.25 M22.85 -33.75 L21.7 -31.8 Q19.6 -28.45 16.7 -24.95 L17.3 -23.05 16.0 -21.0 18.5 -17.7 20.75 -17.6 21.7 -16.0 Q23.3 -12.7 23.05 -8.25 L22.6 -8.1 21.45 -7.7 19.6 -7.0 Q23.8 -4.65 25.95 3.1 29.65 0.9 33.25 0.75 32.2 5.0 30.35 7.85 L34.0 7.65 Q30.5 11.45 27.55 12.6 L27.95 18.5 28.65 18.65 32.0 19.55 Q39.5 21.6 47.1 24.7 L39.5 28.35 Q53.75 31.85 58.4 45.9 L59.35 49.4 Q48.2 48.6 40.25 45.9 36.45 44.6 33.35 42.85 L33.4 45.9 Q32.7 51.1 26.7 54.35 L22.1 49.1 21.5 48.25 20.35 46.5 20.0 45.9 18.8 43.9 Q12.5 45.45 1.7 45.9 -5.35 46.2 -14.35 46.05 L-16.5 46.0 Q-16.5 49.1 -17.3 52.4 -18.5 57.3 -21.6 62.6 -27.35 56.9 -30.75 48.25 -33.5 51.75 -38.5 54.05 -39.7 50.95 -39.5 48.5 -39.55 47.05 -39.15 45.9 L-39.05 45.55 -39.45 45.9 -42.95 48.25 -46.25 49.6 -46.45 48.15 -56.1 49.65 -59.35 49.85 -58.25 45.9 Q-57.35 43.15 -56.1 40.9 -54.15 37.35 -51.35 35.0 -49.85 33.7 -48.0 32.8 L-48.05 32.6 -51.7 29.65 Q-54.0 27.6 -56.1 24.95 L-57.5 23.05 -56.1 22.75 -51.55 22.0 -48.3 21.7 -47.7 11.45 -48.6 11.65 -49.25 11.85 -51.55 12.35 Q-54.65 8.3 -53.15 2.2 L-50.75 0.75 -50.8 -0.15 -50.85 -0.95 -50.8 -3.35 -50.55 -6.35 -52.65 -7.55 -53.75 -8.75 -53.95 -10.1 -56.4 -11.4 -59.35 -16.05 -58.5 -16.75 -55.75 -19.2 -56.05 -20.55 -57.45 -27.15 -49.35 -28.05 -46.65 -26.1 -45.0 -27.1 -42.9 -26.5 -41.6 -27.95 -39.6 -30.0 -39.5 -30.25 -38.95 -32.0 -42.15 -36.5 -36.8 -36.5 Q-35.15 -39.2 -32.85 -41.25 L-35.75 -51.45 -28.25 -44.5 -26.6 -45.3 -24.85 -46.0 -23.8 -46.35 -22.05 -46.25 -21.15 -46.15 M-20.95 -46.1 L-17.7 -55.85 -16.7 -45.2 Q-13.15 -44.1 -10.25 -41.8 L-7.95 -39.7 -3.15 -43.75 -4.15 -37.75 M19.6 -7.0 L19.5 -7.05 M30.35 7.85 L26.65 8.0 M27.55 12.6 L25.6 13.1 Q24.0 13.3 26.15 11.0 L21.1 10.85 Q19.8 8.15 21.8 6.15 23.9 4.3 25.95 3.1 M18.8 43.9 L17.25 40.45 16.1 36.7 Q17.55 38.5 21.25 40.65 21.35 39.25 20.2 35.75 L24.15 38.4 Q23.45 36.7 23.3 33.85 24.8 33.15 26.35 33.85 27.35 29.55 25.05 24.95 L26.9 25.55 Q25.85 19.9 23.2 17.4 L27.95 18.5 M-48.3 21.7 L-47.55 21.65 -35.9 22.15 -35.0 22.3 -31.4 23.1 -29.45 23.55 -31.7 24.7 Q-33.55 25.65 -35.55 27.45 L-31.9 28.0 Q-34.7 31.3 -37.8 32.7 L-33.65 32.9 Q-36.2 35.8 -37.2 37.65 -34.2 36.55 -32.85 37.2 L-35.0 40.9 Q-32.1 41.3 -28.55 37.3 -28.55 42.55 -26.55 42.1 -24.55 41.35 -23.0 39.3 -21.45 42.2 -19.9 43.65 -19.2 43.4 -18.05 41.8 L-17.3 43.3 -16.5 45.75 -16.5 45.9 -16.5 46.0 M-39.05 45.55 L-37.05 43.5 -36.5 42.85 -35.0 40.9 M-48.0 32.8 L-47.85 32.7 -48.05 32.6 M-47.85 32.7 Q-45.9 34.05 -43.65 35.0 -44.9 37.3 -45.6 39.6 L-45.9 40.7 Q-46.6 43.3 -46.6 45.9 L-46.45 48.15" fill="none" stroke="#ffffff" stroke-linecap="round" stroke-linejoin="round" stroke-opacity="0.4" stroke-width="3.0"/>
      <path d="M4.7 -27.7 L5.7 -26.4 5.7 -27.7 4.6 -28.85 4.7 -27.7 M-1.75 -36.55 Q2.05 -33.7 3.25 -28.05 L6.65 -24.05 Q7.65 -27.7 4.05 -30.35 L3.2 -31.95 Q9.95 -28.45 7.05 -21.35 L1.95 -28.05 Q1.65 -32.45 -3.75 -37.55 M11.4 -17.8 Q14.9 -14.9 15.75 -17.75 L16.0 -19.4 Q15.05 -20.3 14.1 -21.95 14.55 -16.35 8.3 -22.75 L7.95 -21.25 Q9.9 -19.0 11.4 -17.8 M8.45 -17.7 L8.2 -17.7 4.95 -20.55 3.5 -21.75 -1.7 -25.8 Q-3.45 -23.0 -5.6 -20.5 L-6.75 -19.2 Q-8.85 -17.05 -11.25 -15.15 L-11.5 -15.1 M6.3 -17.6 L9.4 -14.65 M4.45 -19.2 L2.95 -20.35 1.2 -17.2 M3.4 -17.4 L4.45 -19.2 6.3 -17.6 M-6.35 -16.15 L-4.65 -17.95 -3.6 -19.2 -0.75 -22.95 2.95 -20.35 M3.5 -21.75 Q4.0 -23.25 4.0 -24.55 L5.3 -22.75 4.95 -20.55 M-42.4 -26.3 Q-29.45 -34.25 -20.8 -30.4 L-20.0 -32.25 Q-29.25 -35.4 -41.6 -27.95 M-41.2 -25.55 Q-30.9 -31.3 -22.55 -28.8 L-19.8 -27.75 -19.25 -29.6 -18.25 -31.55 Q-15.2 -30.15 -12.55 -27.55 L-15.45 -20.65 Q-18.8 -24.4 -16.8 -28.2 L-18.5 -29.35 Q-21.05 -23.15 -16.15 -19.0 L-15.0 -18.1 -10.65 -25.45 -10.45 -25.7 -9.6 -27.4 Q-13.3 -31.05 -17.45 -32.8 -15.6 -35.4 -13.0 -36.15 M-15.1 -37.2 Q-17.6 -36.15 -19.3 -33.45 -26.5 -35.6 -35.0 -32.15 L-39.6 -30.0 M-50.85 -0.95 L-44.4 -3.9 -43.1 -4.7 Q-34.05 -10.85 -36.0 -22.8 -32.8 -25.05 -32.05 -13.45 -30.6 -13.3 -29.2 -13.45 -29.6 -29.15 -38.0 -25.0 -35.45 -9.85 -46.25 -4.7 L-46.95 -4.4 Q-49.75 -3.25 -50.8 -3.35 M-29.35 -9.65 Q-33.05 -9.5 -36.75 -9.8 -35.55 -11.3 -35.3 -13.0 L-22.6 -12.65 Q-18.7 -15.45 -17.75 -18.05 L-16.05 -17.1 Q-17.05 -15.05 -18.5 -13.3 L-21.45 -10.5 -21.8 -10.45 -29.35 -9.65 M-15.6 -27.2 L-13.85 -26.1 -14.6 -24.2 -16.35 -25.25 -15.6 -27.2 M-10.45 -25.7 L-10.65 -25.4 -10.65 -25.45 M-2.6 -16.7 L-4.65 -17.95 M0.2 -17.1 L-3.6 -19.2 M-6.75 -19.2 L-11.45 -22.3 -10.45 -24.15 Q-8.05 -22.15 -5.6 -20.5 M-10.55 -12.15 L-6.35 -16.15" fill="none" stroke="#ff0000" stroke-linecap="round" stroke-linejoin="round" stroke-opacity="0.0" stroke-width="0.1"/>
      <path d="M17.75 -10.35 Q22.55 -10.2 25.05 -6.85 27.5 -3.5 26.25 1.15 25.0 5.8 20.75 8.9 16.5 12.05 11.7 11.9 6.85 11.75 4.4 8.4 1.9 5.05 3.2 0.4 4.45 -4.25 8.7 -7.4 12.95 -10.5 17.75 -10.35" fill="url(#gradient0)" fill-rule="evenodd" stroke="none"/>
      <path d="M13.05 7.8 Q10.65 6.45 8.15 4.1 L19.5 -2.1 Q23.3 4.4 15.15 6.4 15.55 8.2 18.55 9.35 16.2 9.35 13.7 8.1 L13.05 7.8" fill="url(#gradient1)" fill-rule="evenodd" stroke="none"/>
      <path d="M8.15 4.1 Q13.05 -3.85 18.5 -6.25 20.9 1.2 17.85 4.0 14.9 6.65 8.15 4.1" fill="#ffffff" fill-rule="evenodd" stroke="none"/>
    </g>
    <radialGradient cx="0" cy="0" gradientTransform="matrix(0.0081, 0.0109, -0.0139, 0.0103, 14.75, 0.75)" gradientUnits="userSpaceOnUse" id="gradient0" r="819.2" spreadMethod="pad">
      <stop offset="0.0" stop-color="#91ffcf"/>
      <stop offset="0.8392156862745098" stop-color="#ffffff" stop-opacity="0.0"/>
    </radialGradient>
    <linearGradient gradientTransform="matrix(0.0, 0.01, -0.0102, 0.0, 100.85, 7.0)" gradientUnits="userSpaceOnUse" id="gradient1" spreadMethod="pad" x1="-819.2" x2="819.2">
      <stop offset="0.0" stop-color="#bbe8e5"/>
      <stop offset="1.0" stop-color="#38bbb3"/>
    </linearGradient>
  </defs>
</svg>
