<?xml version="1.0" encoding="UTF-8" standalone="no"?>
<svg xmlns:xlink="http://www.w3.org/1999/xlink" height="531.5px" width="460.6px" xmlns="http://www.w3.org/2000/svg">
  <g transform="matrix(1.0, 0.0, 0.0, 1.0, 193.65, 334.05)">
    <use height="66.45" transform="matrix(1.0, 0.0, 0.0, 1.0, -64.45, -208.2)" width="137.55" xlink:href="#shape0"/>
  </g>
  <defs>
    <g id="shape0" transform="matrix(1.0, 0.0, 0.0, 1.0, 64.45, 208.2)">
      <path d="M46.75 -187.25 L46.9 -184.4 Q46.9 -180.45 46.25 -178.95 45.0 -176.2 41.25 -176.2 38.55 -176.2 33.35 -177.55 28.25 -178.95 24.75 -178.95 17.35 -178.95 4.15 -176.15 -8.95 -173.4 -11.05 -173.4 -17.3 -173.4 -20.2 -177.55 -22.95 -181.5 -22.95 -189.55 L-22.65 -192.85 Q-20.25 -199.45 -16.75 -204.15 L-15.85 -205.25 -12.65 -205.75 -2.4 -206.55 Q13.9 -207.15 24.0 -203.05 34.0 -198.95 39.4 -194.65 44.3 -190.7 46.75 -187.25" fill="#ffffff" fill-rule="evenodd" stroke="none"/>
      <path d="M-22.65 -192.85 L-22.95 -189.55 Q-22.95 -181.5 -20.2 -177.55 -17.3 -173.4 -11.05 -173.4 -8.95 -173.4 4.15 -176.15 17.35 -178.95 24.75 -178.95 28.25 -178.95 33.35 -177.55 38.55 -176.2 41.25 -176.2 45.0 -176.2 46.25 -178.95 46.9 -180.45 46.9 -184.4 L46.75 -187.25 47.3 -186.4 Q49.65 -182.5 50.9 -178.65 53.05 -172.05 53.65 -165.6 42.15 -171.35 26.25 -172.3 -2.65 -169.45 -27.6 -151.1 L-28.0 -150.65 Q-28.6 -177.0 -22.65 -192.85" fill="#ededed" fill-rule="evenodd" stroke="none"/>
      <path d="M-12.65 -205.75 L-15.85 -205.25 -20.1 -204.4 Q-20.1 -205.6 -19.4 -207.4 L-13.35 -207.65 Q-12.7 -206.6 -12.65 -205.75 M-16.75 -204.15 Q-20.25 -199.45 -22.65 -192.85 -28.6 -177.0 -28.0 -150.65 L-27.6 -151.1 Q-2.65 -169.45 26.25 -172.3 42.15 -171.35 53.65 -165.6 64.95 -159.9 71.85 -149.5 L72.75 -148.2 72.75 -147.8 71.45 -148.6 70.9 -149.05 Q68.15 -151.1 66.6 -153.05 64.85 -155.25 61.85 -157.15 L57.2 -159.5 Q52.8 -161.65 47.85 -162.5 L37.85 -163.15 Q32.9 -163.15 24.0 -160.8 16.8 -158.8 11.95 -156.85 8.4 -155.45 -0.5 -150.55 L-2.0 -149.75 Q-5.6 -148.6 -8.2 -148.2 L-19.95 -147.65 -23.9 -147.65 -28.3 -148.25 -28.95 -148.25 -28.95 -148.75 -29.4 -148.6 Q-35.8 -146.15 -46.9 -145.1 L-50.5 -144.4 -55.45 -143.45 Q-56.9 -144.5 -57.5 -146.05 -58.4 -148.1 -58.4 -153.2 -58.4 -160.95 -56.55 -168.9 -54.6 -177.0 -51.35 -182.9 -48.15 -188.75 -42.7 -193.45 L-39.15 -196.3 Q-43.6 -192.35 -46.55 -187.95 L-46.55 -187.8 -30.45 -197.65 Q-25.15 -200.55 -20.05 -202.85 L-16.75 -204.15 M-28.95 -148.75 Q-28.85 -149.6 -28.0 -150.65 -28.85 -149.6 -28.95 -148.75" fill="#cc0000" fill-rule="evenodd" stroke="none"/>
      <path d="M-15.85 -205.25 L-16.75 -204.15 -20.05 -202.85 Q-25.15 -200.55 -30.45 -197.65 L-46.55 -187.8 -46.55 -187.95 Q-43.6 -192.35 -39.15 -196.3 L-37.6 -197.7 -34.35 -200.15 -33.6 -200.45 -27.75 -202.5 -26.0 -203.0 -24.85 -203.3 -24.75 -203.0 -23.95 -203.55 -22.8 -203.85 -20.1 -204.4 -15.85 -205.25 M-28.95 -148.25 L-28.3 -148.25 -23.9 -147.65 -19.95 -147.65 -8.2 -148.2 Q-5.6 -148.6 -2.0 -149.75 L-0.5 -150.55 Q8.4 -155.45 11.95 -156.85 16.8 -158.8 24.0 -160.8 32.9 -163.15 37.85 -163.15 L47.85 -162.5 Q52.8 -161.65 57.2 -159.5 L61.85 -157.15 Q64.85 -155.25 66.6 -153.05 68.15 -151.1 70.9 -149.05 L71.45 -148.6 72.75 -147.8 Q72.65 -145.9 69.75 -147.3 57.6 -157.5 43.05 -159.75 28.0 -160.8 1.55 -147.85 -3.25 -145.25 -7.2 -145.2 L-24.75 -146.2 Q-28.75 -146.6 -28.95 -148.25" fill="#a60000" fill-rule="evenodd" stroke="none"/>
      <path d="M-55.45 -143.45 L-59.35 -142.65 -62.0 -142.1 Q-63.95 -143.15 -64.05 -145.75 L-63.9 -150.0 Q-62.85 -164.9 -59.35 -175.25 -55.15 -187.65 -47.35 -193.45 -41.2 -197.4 -34.35 -200.15 L-37.6 -197.7 -39.15 -196.3 -42.7 -193.45 Q-48.15 -188.75 -51.35 -182.9 -54.6 -177.0 -56.55 -168.9 -58.4 -160.95 -58.4 -153.2 -58.4 -148.1 -57.5 -146.05 -56.9 -144.5 -55.45 -143.45 M-22.8 -203.85 Q-23.25 -204.95 -22.95 -206.2 -21.05 -207.0 -19.4 -207.4 -20.1 -205.6 -20.1 -204.4 L-22.8 -203.85" fill="#e32626" fill-rule="evenodd" stroke="none"/>
      <path d="M46.75 -187.25 Q44.3 -190.7 39.4 -194.65 34.0 -198.95 24.0 -203.05 13.9 -207.15 -2.4 -206.55 L-12.65 -205.75 -15.85 -205.25 -16.75 -204.15 Q-20.25 -199.45 -22.65 -192.85 -28.6 -177.0 -28.0 -150.65 L-27.6 -151.1 Q-2.65 -169.45 26.25 -172.3 42.15 -171.35 53.65 -165.6 53.05 -172.05 50.9 -178.65 49.65 -182.5 47.3 -186.4 L46.75 -187.25 M72.75 -147.8 L72.75 -148.2 71.85 -149.5 Q64.95 -159.9 53.65 -165.6 M72.75 -147.8 Q72.65 -145.9 69.75 -147.3 57.6 -157.5 43.05 -159.75 28.0 -160.8 1.55 -147.85 -3.25 -145.25 -7.2 -145.2 L-24.75 -146.2 Q-28.75 -146.6 -28.95 -148.25 L-28.95 -148.75 -29.4 -148.6 Q-35.8 -146.15 -46.9 -145.1 L-50.5 -144.4 -55.45 -143.45 -59.35 -142.65 -62.0 -142.1 Q-63.95 -143.15 -64.05 -145.75 L-63.9 -150.0 Q-62.85 -164.9 -59.35 -175.25 -55.15 -187.65 -47.35 -193.45 -41.2 -197.4 -34.35 -200.15 L-33.6 -200.45 -27.75 -202.5 -26.0 -203.0 -24.85 -203.3 -23.95 -203.55 -22.8 -203.85 Q-23.25 -204.95 -22.95 -206.2 -21.05 -207.0 -19.4 -207.4 L-13.35 -207.65 Q-12.7 -206.6 -12.65 -205.75 M-15.85 -205.25 L-20.1 -204.4 -22.8 -203.85 M-28.0 -150.65 Q-28.85 -149.6 -28.95 -148.75" fill="none" stroke="#000000" stroke-linecap="round" stroke-linejoin="round" stroke-opacity="0.6627451" stroke-width="0.75"/>
      <path d="M11.7 -203.0 L14.85 -199.45 7.35 -174.95 2.95 -174.4 6.9 -187.15 3.2 -188.8 4.2 -192.1 7.85 -190.65 11.7 -203.0" fill="#333399" fill-rule="evenodd" stroke="none"/>
      <path d="M18.4 -185.65 L15.25 -187.15 18.0 -196.15 34.55 -177.85 11.8 -175.45 12.7 -178.75 28.1 -180.45 19.65 -189.75 18.4 -185.65" fill="#000000" fill-rule="evenodd" stroke="none"/>
    </g>
  </defs>
</svg>
