<?xml version="1.0" encoding="UTF-8" standalone="no"?>
<svg xmlns:xlink="http://www.w3.org/1999/xlink" height="531.5px" width="460.6px" xmlns="http://www.w3.org/2000/svg">
  <g transform="matrix(1.0, 0.0, 0.0, 1.0, 193.65, 334.05)">
    <use height="89.4" transform="matrix(1.6424, 0.0, 0.0, 1.6424, -74.0427, -210.2427)" width="89.5" xlink:href="#shape0"/>
    <use height="20.8" transform="matrix(2.1109, 0.0, 0.27, 1.5042, 30.5, -176.8)" width="9.9" xlink:href="#sprite0"/>
    <use height="19.4" transform="matrix(1.6424, 0.0, 0.0, 1.6424, -29.4505, -177.7224)" width="14.05" xlink:href="#shape2"/>
    <use height="20.8" transform="matrix(2.1109, 0.0, 0.108, 1.5042, -29.6, -176.8)" width="9.9" xlink:href="#sprite0"/>
    <use height="58.1" transform="matrix(1.6424, 0.0, 0.0, 1.6424, 5.4514, -180.6788)" width="43.85" xlink:href="#shape3"/>
  </g>
  <defs>
    <g id="shape0" transform="matrix(1.0, 0.0, 0.0, 1.0, 0.3, 0.3)">
      <path d="M46.9 14.7 L6.95 14.7 Q4.35 9.75 4.6 4.8 25.3 -1.95 45.35 1.75 L46.9 14.7" fill="#dde8a7" fill-rule="evenodd" stroke="none"/>
      <path d="M46.9 14.7 L6.95 14.7 Q4.35 9.75 4.6 4.8 25.3 -1.95 45.35 1.75 L46.9 14.7 Z" fill="none" stroke="#000000" stroke-linecap="round" stroke-linejoin="round" stroke-opacity="0.4" stroke-width="0.6000000000000001"/>
      <path d="M16.15 16.8 L17.6 31.1 7.85 31.1 Q6.25 24.25 6.4 16.8 L16.15 16.8" fill="#bfcc84" fill-rule="evenodd" stroke="none"/>
      <path d="M16.15 16.8 L17.6 31.1 7.85 31.1 Q6.25 24.25 6.4 16.8 L16.15 16.8 Z" fill="none" stroke="#000000" stroke-linecap="round" stroke-linejoin="round" stroke-opacity="0.4" stroke-width="0.6000000000000001"/>
      <path d="M21.05 27.65 Q14.05 22.8 3.15 16.95 -0.95 9.1 0.65 4.15 18.45 4.95 34.35 9.55 L21.05 27.65" fill="#dde8a7" fill-rule="evenodd" stroke="none"/>
      <path d="M21.05 27.65 Q14.05 22.8 3.15 16.95 -0.95 9.1 0.65 4.15 18.45 4.95 34.35 9.55 L21.05 27.65 Z" fill="none" stroke="#000000" stroke-linecap="round" stroke-linejoin="round" stroke-opacity="0.4" stroke-width="0.6000000000000001"/>
      <path d="M16.8 72.8 L16.8 37.2 79.8 37.2 79.8 73.8 Q48.3 78.1 16.8 72.8" fill="url(#gradient0)" fill-rule="evenodd" stroke="none"/>
      <path d="M16.8 72.8 L16.8 37.2 79.8 37.2 79.8 73.8 Q48.3 78.1 16.8 72.8 Z" fill="none" stroke="#000000" stroke-linecap="round" stroke-linejoin="round" stroke-opacity="0.4" stroke-width="0.6000000000000001"/>
      <path d="M13.9 57.65 L19.3 58.8 30.55 60.3 43.5 60.55 Q55.55 60.55 65.15 58.95 74.15 57.45 82.0 54.45 M13.9 41.65 L19.3 42.8 30.55 44.3 43.5 44.55 Q55.55 44.55 65.15 42.95 74.15 41.45 82.0 38.45 M13.9 45.65 L19.3 46.8 30.55 48.3 43.5 48.55 Q55.55 48.55 65.15 46.95 74.15 45.45 82.0 42.45 M13.9 49.65 L19.3 50.8 30.55 52.3 43.5 52.55 Q55.55 52.55 65.15 50.95 74.15 49.45 82.0 46.45 M13.9 53.65 L19.3 54.8 30.55 56.3 43.5 56.55 Q55.55 56.55 65.15 54.95 74.15 53.45 82.0 50.45 M13.9 65.65 L19.3 66.8 30.55 68.3 43.5 68.55 Q55.55 68.55 65.15 66.95 74.15 65.45 82.0 62.45 M13.9 69.65 L19.3 70.8 30.55 72.3 43.5 72.55 Q55.55 72.55 65.15 70.95 74.15 69.45 82.0 66.45 M13.9 61.65 L19.3 62.8 30.55 64.3 43.5 64.55 Q55.55 64.55 65.15 62.95 74.15 61.45 82.0 58.45 M37.35 77.55 L43.5 77.55 Q55.55 77.55 65.15 75.95 74.15 74.45 82.0 71.45" fill="none" stroke="#000000" stroke-linecap="round" stroke-linejoin="round" stroke-opacity="0.4" stroke-width="0.30000000000000004"/>
      <path d="M35.6 51.25 Q37.1 53.4 38.7 53.4 L41.65 51.9 43.6 53.85 44.6 53.2 45.7 52.8 46.9 53.4 48.25 54.05 50.0 53.45 52.1 52.85 Q53.1 52.85 57.15 55.0 L58.0 54.3 58.2 54.3 Q58.9 54.3 61.25 53.05 61.9 52.65 62.45 52.4 L64.6 54.15 65.55 53.45 66.3 52.8 66.4 52.85 66.7 52.85 67.4 52.3 67.6 52.05 68.0 52.65 68.7 53.1 Q69.1 53.1 69.5 52.5 L71.25 53.85 72.6 55.4 Q70.65 57.65 68.05 59.25 66.15 60.45 64.0 61.0 L59.5 61.75 48.4 62.25 41.65 61.8 35.8 60.85 Q33.8 60.55 31.7 59.25 30.0 58.3 29.05 57.2 L29.7 56.25 Q30.95 54.6 31.85 53.85 L35.6 51.25" fill="#d8cd56" fill-rule="evenodd" stroke="none"/>
      <path d="M33.6 43.5 L33.45 44.85 Q33.45 47.4 35.05 50.3 L35.6 51.25 31.85 53.85 Q30.95 54.6 29.7 56.25 L29.05 57.2 28.75 56.95 Q26.0 53.65 25.8 51.25 L25.05 46.55 Q25.05 45.5 27.4 44.3 29.6 43.25 31.05 43.25 L33.6 43.5 M41.65 51.9 L41.95 51.75 44.9 49.45 Q45.05 49.95 46.45 51.5 48.05 53.3 49.05 53.3 49.75 53.3 51.0 52.7 L53.2 51.6 55.35 53.1 Q56.95 54.15 58.0 54.3 L57.15 55.0 Q53.1 52.85 52.1 52.85 L50.0 53.45 48.25 54.05 46.9 53.4 45.7 52.8 44.6 53.2 43.6 53.85 41.65 51.9 M62.45 52.4 L63.5 51.8 64.95 52.35 66.3 52.8 65.55 53.45 64.6 54.15 62.45 52.4 M72.6 55.4 L71.25 53.85 69.5 52.5 70.3 50.45 Q70.9 48.05 70.9 46.4 L70.85 45.4 70.85 45.35 72.05 45.2 73.4 45.0 Q74.75 45.1 75.4 45.95 76.05 46.8 76.05 48.55 76.05 50.7 73.85 53.8 L72.6 55.4" fill="#1e0000" fill-rule="evenodd" stroke="none"/>
      <path d="M33.6 43.5 L35.9 43.75 42.85 44.45 50.35 45.4 57.9 46.25 67.65 45.65 70.35 45.35 70.85 45.4 70.9 46.4 Q70.9 48.05 70.3 50.45 L69.5 52.5 Q69.1 53.1 68.7 53.1 L68.0 52.65 67.6 52.05 67.4 52.3 66.7 52.85 66.4 52.85 66.3 52.8 64.95 52.35 63.5 51.8 62.45 52.4 Q61.9 52.65 61.25 53.05 58.9 54.3 58.2 54.3 L58.0 54.3 Q56.95 54.15 55.35 53.1 L53.2 51.6 51.0 52.7 Q49.75 53.3 49.05 53.3 48.05 53.3 46.45 51.5 45.05 49.95 44.9 49.45 L41.95 51.75 41.65 51.9 38.7 53.4 Q37.1 53.4 35.6 51.25 L35.05 50.3 Q33.45 47.4 33.45 44.85 L33.6 43.5 M68.1 50.25 L67.6 52.05 68.1 50.25" fill="#eae187" fill-rule="evenodd" stroke="none"/>
      <path d="M70.85 45.4 L70.35 45.35 67.65 45.65 57.9 46.25 50.35 45.4 42.85 44.45 35.9 43.75 33.6 43.5 33.45 44.85 Q33.45 47.4 35.05 50.3 L35.6 51.25 Q37.1 53.4 38.7 53.4 L41.65 51.9 41.95 51.75 44.9 49.45 Q45.05 49.95 46.45 51.5 48.05 53.3 49.05 53.3 49.75 53.3 51.0 52.7 L53.2 51.6 55.35 53.1 Q56.95 54.15 58.0 54.3 L58.2 54.3 Q58.9 54.3 61.25 53.05 61.9 52.65 62.45 52.4 L63.5 51.8 64.95 52.35 66.3 52.8 66.4 52.85 66.7 52.85 67.4 52.3 67.6 52.05 68.1 50.25 M33.6 43.5 L31.05 43.25 Q29.6 43.25 27.4 44.3 25.05 45.5 25.05 46.55 L25.8 51.25 Q26.0 53.65 28.75 56.95 L29.05 57.2 29.7 56.25 Q30.95 54.6 31.85 53.85 L35.6 51.25 M29.05 57.2 Q30.0 58.3 31.7 59.25 33.8 60.55 35.8 60.85 L41.65 61.8 48.4 62.25 59.5 61.75 64.0 61.0 Q66.15 60.45 68.05 59.25 70.65 57.65 72.6 55.4 L71.25 53.85 69.5 52.5 Q69.1 53.1 68.7 53.1 L68.0 52.65 67.6 52.05 M72.6 55.4 L73.85 53.8 Q76.05 50.7 76.05 48.55 76.05 46.8 75.4 45.95 74.75 45.1 73.4 45.0 L72.05 45.2 70.85 45.35 70.85 45.4 70.9 46.4 Q70.9 48.05 70.3 50.45 L69.5 52.5 M72.05 45.2 L73.0 44.95 73.4 45.0 M70.35 45.35 L70.85 45.35 M62.45 52.4 L64.6 54.15 65.55 53.45 66.3 52.8 M41.65 51.9 L43.6 53.85 44.6 53.2 45.7 52.8 46.9 53.4 48.25 54.05 50.0 53.45 52.1 52.85 Q53.1 52.85 57.15 55.0 L58.0 54.3 M49.5 65.7 Q55.15 66.0 60.75 64.45" fill="none" stroke="#000000" stroke-linecap="round" stroke-linejoin="round" stroke-opacity="0.4" stroke-width="0.30000000000000004"/>
      <path d="M7.65 61.95 L11.65 56.05 23.75 53.55 Q26.2 57.55 23.75 61.5 L7.65 61.95" fill="#bfcc84" fill-rule="evenodd" stroke="none"/>
      <path d="M7.65 61.95 L11.65 56.05 23.75 53.55 Q26.2 57.55 23.75 61.5 L7.65 61.95 Z" fill="none" stroke="#000000" stroke-linecap="round" stroke-linejoin="round" stroke-opacity="0.4" stroke-width="0.6000000000000001"/>
      <path d="M60.35 32.0 L62.35 42.15 Q57.85 43.65 52.55 37.95 48.7 44.05 44.05 43.15 L44.05 32.0 60.35 32.0" fill="#bfcc84" fill-rule="evenodd" stroke="none"/>
      <path d="M60.35 32.0 L62.35 42.15 Q57.85 43.65 52.55 37.95 48.7 44.05 44.05 43.15 L44.05 32.0 60.35 32.0 Z" fill="none" stroke="#000000" stroke-linecap="round" stroke-linejoin="round" stroke-opacity="0.4" stroke-width="0.6000000000000001"/>
      <path d="M9.5 57.9 L11.4 48.9 Q28.9 39.65 46.9 33.4 46.2 38.7 44.85 43.5 28.8 53.2 13.45 60.55 L9.5 57.9" fill="#bfcc84" fill-rule="evenodd" stroke="none"/>
      <path d="M9.5 57.9 L11.4 48.9 Q28.9 39.65 46.9 33.4 46.2 38.7 44.85 43.5 28.8 53.2 13.45 60.55 L9.5 57.9 Z" fill="none" stroke="#000000" stroke-linecap="round" stroke-linejoin="round" stroke-opacity="0.4" stroke-width="0.6000000000000001"/>
      <path d="M50.0 32.55 Q34.55 41.9 19.05 51.2 15.8 45.55 18.65 39.55 L51.4 19.85 Q51.1 26.05 50.0 32.55" fill="#a9b575" fill-rule="evenodd" stroke="none"/>
      <path d="M50.0 32.55 Q34.55 41.9 19.05 51.2 15.8 45.55 18.65 39.55 L51.4 19.85 Q51.1 26.05 50.0 32.55 Z" fill="none" stroke="#000000" stroke-linecap="round" stroke-linejoin="round" stroke-opacity="0.4" stroke-width="0.6000000000000001"/>
      <path d="M71.55 13.2 Q76.3 18.1 77.5 24.05 L62.15 24.8 Q56.5 20.1 55.65 13.9 L71.55 13.2" fill="#dde8a7" fill-rule="evenodd" stroke="none"/>
      <path d="M71.55 13.2 Q76.3 18.1 77.5 24.05 L62.15 24.8 Q56.5 20.1 55.65 13.9 L71.55 13.2 Z" fill="none" stroke="#000000" stroke-linecap="round" stroke-linejoin="round" stroke-opacity="0.4" stroke-width="0.6000000000000001"/>
      <path d="M67.8 5.25 Q71.6 9.25 71.85 15.35 64.35 19.6 54.5 22.25 L50.45 12.15 Q57.45 7.3 67.8 5.25" fill="#c2cc92" fill-rule="evenodd" stroke="none"/>
      <path d="M67.8 5.25 Q71.6 9.25 71.85 15.35 64.35 19.6 54.5 22.25 L50.45 12.15 Q57.45 7.3 67.8 5.25 Z" fill="none" stroke="#000000" stroke-linecap="round" stroke-linejoin="round" stroke-opacity="0.4" stroke-width="0.6000000000000001"/>
      <path d="M41.55 1.15 Q51.35 -1.3 57.05 2.8 L4.75 50.45 Q2.95 38.15 6.8 28.95 L41.55 1.15" fill="#dde8a7" fill-rule="evenodd" stroke="none"/>
      <path d="M41.55 1.15 Q51.35 -1.3 57.05 2.8 L4.75 50.45 Q2.95 38.15 6.8 28.95 L41.55 1.15 Z" fill="none" stroke="#000000" stroke-linecap="round" stroke-linejoin="round" stroke-opacity="0.4" stroke-width="0.6000000000000001"/>
      <path d="M60.35 73.4 Q67.7 78.5 70.55 84.5 66.9 88.2 60.0 88.8 56.7 82.85 49.8 77.7 L60.35 73.4" fill="#a9b575" fill-rule="evenodd" stroke="none"/>
      <path d="M60.35 73.4 Q67.7 78.5 70.55 84.5 66.9 88.2 60.0 88.8 56.7 82.85 49.8 77.7 L60.35 73.4 Z" fill="none" stroke="#000000" stroke-linecap="round" stroke-linejoin="round" stroke-opacity="0.4" stroke-width="0.6000000000000001"/>
      <path d="M11.05 62.7 Q40.75 77.2 78.1 68.1 L79.4 73.7 Q59.45 80.25 30.55 77.75 18.75 75.1 8.05 69.1 L11.05 62.7" fill="#a9b575" fill-rule="evenodd" stroke="none"/>
      <path d="M11.05 62.7 Q40.75 77.2 78.1 68.1 L79.4 73.7 Q59.45 80.25 30.55 77.75 18.75 75.1 8.05 69.1 L11.05 62.7 Z" fill="none" stroke="#000000" stroke-linecap="round" stroke-linejoin="round" stroke-opacity="0.4" stroke-width="0.6000000000000001"/>
      <path d="M88.9 58.05 L80.15 63.95 Q72.9 58.55 70.8 52.2 L84.7 47.1 Q88.5 51.55 88.9 58.05" fill="#bfcc84" fill-rule="evenodd" stroke="none"/>
      <path d="M88.9 58.05 L80.15 63.95 Q72.9 58.55 70.8 52.2 L84.7 47.1 Q88.5 51.55 88.9 58.05 Z" fill="none" stroke="#000000" stroke-linecap="round" stroke-linejoin="round" stroke-opacity="0.4" stroke-width="0.6000000000000001"/>
      <path d="M64.25 46.35 L77.4 38.95 Q83.15 41.5 85.25 46.8 L70.85 53.7 Q65.35 50.3 64.25 46.35" fill="#bfcc84" fill-rule="evenodd" stroke="none"/>
      <path d="M64.25 46.35 L77.4 38.95 Q83.15 41.5 85.25 46.8 L70.85 53.7 Q65.35 50.3 64.25 46.35 Z" fill="none" stroke="#000000" stroke-linecap="round" stroke-linejoin="round" stroke-opacity="0.4" stroke-width="0.6000000000000001"/>
      <path d="M54.9 32.55 L85.85 51.2 Q89.1 45.55 86.25 39.55 L53.5 19.85 Q53.8 26.05 54.9 32.55" fill="#a9b575" fill-rule="evenodd" stroke="none"/>
      <path d="M54.9 32.55 L85.85 51.2 Q89.1 45.55 86.25 39.55 L53.5 19.85 Q53.8 26.05 54.9 32.55 Z" fill="none" stroke="#000000" stroke-linecap="round" stroke-linejoin="round" stroke-opacity="0.4" stroke-width="0.6000000000000001"/>
      <path d="M78.75 32.2 Q84.25 34.7 84.0 41.45 L64.5 46.3 Q57.35 39.9 57.85 33.7 L78.75 32.2" fill="#dde8a7" fill-rule="evenodd" stroke="none"/>
      <path d="M78.75 32.2 Q84.25 34.7 84.0 41.45 L64.5 46.3 Q57.35 39.9 57.85 33.7 L78.75 32.2 Z" fill="none" stroke="#000000" stroke-linecap="round" stroke-linejoin="round" stroke-opacity="0.4" stroke-width="0.6000000000000001"/>
      <path d="M81.15 25.3 Q83.45 31.8 81.15 37.95 L45.65 20.7 Q48.85 14.4 54.0 13.45 L81.15 25.3" fill="#dde8a7" fill-rule="evenodd" stroke="none"/>
      <path d="M81.15 25.3 Q83.45 31.8 81.15 37.95 L45.65 20.7 Q48.85 14.4 54.0 13.45 L81.15 25.3 Z" fill="none" stroke="#000000" stroke-linecap="round" stroke-linejoin="round" stroke-opacity="0.4" stroke-width="0.6000000000000001"/>
      <path d="M23.65 61.15 Q22.5 72.05 16.05 73.7 8.45 73.15 0.8 68.8 -0.25 61.35 5.0 57.45 L23.65 61.15" fill="#bfcc84" fill-rule="evenodd" stroke="none"/>
      <path d="M23.65 61.15 Q22.5 72.05 16.05 73.7 8.45 73.15 0.8 68.8 -0.25 61.35 5.0 57.45 L23.65 61.15 Z" fill="none" stroke="#000000" stroke-linecap="round" stroke-linejoin="round" stroke-opacity="0.4" stroke-width="0.6000000000000001"/>
      <path d="M65.8 5.55 L31.95 39.6 2.15 69.55 Q-0.05 64.5 1.9 57.75 -0.1 56.0 0.0 52.2 26.8 23.4 52.7 0.0 61.85 0.5 65.8 5.55 M31.95 39.6 Q20.4 42.05 1.9 57.75 20.4 42.05 31.95 39.6" fill="#dde8a7" fill-rule="evenodd" stroke="none"/>
      <path d="M65.8 5.55 L31.95 39.6 2.15 69.55 Q-0.05 64.5 1.9 57.75 -0.1 56.0 0.0 52.2 26.8 23.4 52.7 0.0 61.85 0.5 65.8 5.55" fill="none" stroke="#000000" stroke-linecap="round" stroke-linejoin="round" stroke-opacity="0.4" stroke-width="0.6000000000000001"/>
      <path d="M1.9 57.75 Q20.4 42.05 31.95 39.6" fill="none" stroke="#000000" stroke-linecap="round" stroke-linejoin="round" stroke-opacity="0.2" stroke-width="0.30000000000000004"/>
      <path d="M68.2 22.45 L68.75 22.2 69.95 21.95 Q71.15 21.95 72.3 22.75 L72.35 22.75 73.85 24.15 75.35 26.55 75.35 26.6 Q75.95 27.85 76.2 29.35 L76.25 29.5 76.4 30.4 76.4 31.05 76.45 31.9 76.1 33.85 75.85 34.65 75.85 34.7 75.75 34.85 75.65 35.1 75.35 35.6 74.8 36.25 74.7 36.3 75.65 35.1 74.7 36.3 74.65 36.35 74.7 36.4 74.6 36.5 74.7 36.4 74.7 36.45 74.6 36.5 Q73.75 37.05 72.65 37.05 L70.9 36.65 69.9 36.0 69.65 35.8 68.7 34.75 68.6 34.65 68.7 34.75 69.65 35.8 69.35 35.5 68.95 35.05 68.75 34.85 68.6 34.65 68.5 34.5 Q67.55 33.3 67.05 31.95 L66.7 30.95 66.55 30.4 66.5 30.25 66.5 30.1 66.45 29.95 66.45 29.8 66.35 29.5 66.35 29.45 66.25 29.15 66.25 29.0 66.2 28.4 66.25 28.6 66.6 30.0 66.65 30.1 66.7 30.3 66.75 30.45 Q66.3 27.25 66.4 25.55 L66.55 25.0 66.85 24.15 Q67.35 23.0 68.2 22.45 L67.95 23.05 Q66.9 25.65 67.2 27.3 67.5 29.15 68.65 31.35 67.5 29.15 67.2 27.3 66.9 25.65 67.95 23.05 L68.2 22.45 M74.1 35.6 Q75.45 34.0 76.25 31.7 L76.25 31.8 75.75 34.05 75.45 34.8 74.7 36.3 75.45 34.8 75.75 34.05 76.25 31.8 76.25 31.7 Q75.45 34.0 74.1 35.6 M75.75 34.05 L76.25 32.85 76.2 33.15 76.1 33.85 76.2 33.15 76.25 32.85 75.75 34.05 M76.25 31.8 L76.25 32.8 76.25 32.85 76.25 32.8 76.25 31.8 M76.25 31.7 L76.25 31.6 76.25 31.55 76.3 31.45 76.4 31.05 76.3 31.45 76.25 31.55 76.25 31.6 76.25 31.7 M76.45 31.9 L76.25 32.8 76.45 31.9 M76.4 30.4 L76.3 31.45 76.4 30.4 M66.4 25.55 Q66.3 27.25 66.75 30.45 L66.7 30.3 66.65 30.1 66.6 30.0 66.25 28.6 66.2 28.4 66.2 28.35 Q66.05 26.8 66.4 25.55 M76.25 31.55 L76.1 29.45 75.35 26.6 76.1 29.45 76.25 31.55 M66.6 30.0 L66.35 29.5 66.6 30.0 M68.25 33.2 L66.75 30.45 66.8 30.8 66.7 30.3 66.8 30.8 66.75 30.45 68.25 33.2 M66.7 30.95 L67.0 31.7 67.05 31.95 67.0 31.7 66.7 30.95 M68.0 33.55 L67.45 32.35 66.8 30.8 67.0 31.7 68.0 33.55 68.45 34.4 68.6 34.65 68.45 34.4 68.0 33.55 67.0 31.7 66.8 30.8 67.45 32.35 68.0 33.55 M68.7 34.75 L68.95 35.05 68.7 34.75 M68.95 34.35 L70.25 36.05 70.55 36.35 69.9 36.0 70.55 36.35 70.25 36.05 68.95 34.35 M72.75 36.75 Q71.85 36.95 70.6 36.35 L70.55 36.35 70.6 36.35 Q71.85 36.95 72.75 36.75 M70.9 36.65 L70.55 36.35 70.9 36.65" fill="#000000" fill-rule="evenodd" stroke="none"/>
      <path d="M65.7 24.6 L65.7 24.75 65.55 25.7 65.7 26.5 65.9 28.15 Q65.5 25.8 66.2 23.85 L66.2 23.3 66.05 23.55 66.0 23.6 65.95 23.65 65.7 24.35 65.7 24.6 M65.2 24.6 L65.1 25.6 65.2 25.95 65.2 26.05 65.35 26.55 65.65 24.55 65.7 24.35 65.8 24.0 65.95 23.65 M64.4 23.7 Q64.85 23.35 65.5 21.65 66.25 20.2 67.45 19.85 L66.95 20.0 66.15 20.45 65.9 20.5 Q65.25 20.7 64.7 22.4 L64.4 23.7 Q63.95 25.75 64.45 28.35 64.6 29.4 65.2 30.5 L64.95 29.25 64.75 27.4 Q64.55 24.6 65.2 23.4 M68.75 22.2 Q68.75 21.65 69.25 21.65 70.45 21.65 72.05 22.5 L72.25 22.6 Q71.65 21.75 70.6 21.4 L69.2 21.15 68.95 21.15 68.2 22.45 67.95 23.05 Q66.9 25.65 67.2 27.3 67.5 29.15 68.65 31.35 M72.3 22.75 L72.25 22.6 Q73.4 23.25 74.4 24.25 L73.5 23.15 72.15 21.8 71.4 21.35 71.25 21.3 70.35 20.85 69.3 20.75 68.95 21.15 68.2 21.35 67.7 21.9 67.15 22.65 67.15 22.75 Q66.7 23.25 66.5 24.45 L66.4 24.85 66.55 25.0 M69.3 20.75 L69.1 20.75 67.95 20.95 Q67.4 21.5 66.8 22.45 L66.7 22.7 67.0 22.4 67.45 22.05 67.8 21.65 68.2 21.35 M71.85 21.1 L71.0 20.55 70.9 20.55 70.65 20.5 70.1 20.45 70.05 20.45 69.8 20.45 69.3 20.75 M70.65 20.5 Q70.25 20.2 69.55 20.2 68.85 20.2 68.2 20.75 L69.8 20.45 70.1 20.45 M66.05 23.55 L66.25 23.1 66.25 23.05 Q66.3 22.3 66.75 21.8 67.05 21.15 68.0 20.8 L68.2 20.75 67.95 20.95 66.9 21.6 66.75 21.8 M71.0 20.55 Q69.35 19.6 68.65 19.6 L67.6 19.8 67.45 19.85 M67.15 22.75 L67.1 22.7 67.15 22.65 67.45 22.05 67.7 21.9 M66.25 23.1 L66.2 23.3 66.3 23.15 66.4 23.0 66.7 22.35 66.25 23.05 M66.4 23.0 L66.7 22.7 66.2 23.85 66.25 24.3 66.4 24.85 66.4 25.55 Q66.3 27.25 66.75 30.45 L68.25 33.2 M66.25 29.0 L66.15 28.55 Q65.85 26.7 66.05 24.85 L66.1 24.4 66.2 23.85 66.4 23.0 M72.15 21.8 Q73.3 22.5 74.2 23.7 L74.95 24.85 75.5 25.9 75.55 25.95 75.6 26.0 76.35 27.8 76.4 28.0 76.55 28.25 76.9 29.25 76.9 29.15 Q76.6 27.45 75.5 25.1 L75.4 24.9 74.5 23.2 74.45 23.1 74.1 22.6 73.1 21.5 Q72.85 21.1 71.75 20.75 L71.0 20.55 M72.3 22.75 L72.35 22.75 M75.35 26.55 L75.25 26.3 74.8 24.8 74.75 24.7 74.75 24.65 74.7 24.65 74.4 24.25 74.7 24.6 74.95 24.85 M74.7 24.6 L74.7 24.65 M73.85 21.65 Q75.15 22.75 75.95 23.9 M70.35 20.85 Q71.2 20.95 71.4 21.35 M76.9 29.15 L77.1 28.2 76.8 27.15 76.75 27.05 76.75 26.95 76.75 26.9 76.5 26.25 76.2 25.45 M76.35 27.8 L76.15 27.35 75.6 26.0 M76.75 26.95 L76.8 27.15 77.15 28.05 Q77.4 26.2 77.15 24.85 L76.95 24.1 M76.4 28.0 L76.9 29.35 76.9 29.25 M74.8 24.8 L76.15 27.5 76.3 27.9 76.4 28.0 76.85 29.55 76.9 29.35 76.95 29.45 77.0 29.7 76.9 29.15 M77.55 30.15 Q77.55 29.2 77.15 28.05 L77.1 28.2 77.3 30.65 77.5 31.7 M76.85 29.55 L77.0 30.2 77.05 30.0 77.0 29.7 77.3 30.65 77.2 31.55 77.05 33.4 77.0 33.65 76.7 34.55 76.3 35.4 76.15 35.65 76.15 35.7 76.1 35.85 76.0 36.1 75.85 37.0 77.05 35.3 M76.15 27.5 L76.4 29.25 76.55 30.75 76.75 30.0 76.85 29.55 M77.0 30.2 L77.0 30.25 77.05 30.35 77.2 31.55 77.05 32.5 76.95 32.75 77.0 33.65 76.3 35.4 M76.2 29.35 L76.25 29.5 76.4 30.4 76.3 31.45 76.25 31.55 76.25 31.6 76.25 31.7 Q75.45 34.0 74.1 35.6 M76.4 31.05 L76.55 30.75 76.45 31.9 76.25 32.8 76.25 31.8 76.25 31.7 M76.1 33.85 L76.05 34.35 76.2 34.2 76.85 32.15 77.0 30.25 M75.35 26.55 L75.35 26.6 76.1 29.45 76.25 31.55 M74.6 36.5 L74.7 36.4 74.7 36.45 74.55 36.6 74.6 36.5 M74.65 36.35 L74.7 36.3 75.45 34.8 75.75 34.05 76.25 31.8 M75.65 35.1 L75.8 34.85 75.85 34.8 75.85 34.7 75.85 34.65 M76.1 33.85 L76.2 33.15 76.25 32.85 75.75 34.05 M74.5 36.6 L74.15 36.95 74.35 36.85 74.55 36.6 74.5 36.6 74.15 36.9 73.85 37.15 74.15 36.95 73.55 37.6 74.35 36.85 74.55 36.7 75.35 35.6 74.8 36.25 74.7 36.4 M73.55 37.6 L73.35 37.7 73.85 37.7 75.0 37.55 75.25 37.4 75.8 37.05 75.8 37.0 75.85 37.0 M75.35 35.6 L75.65 35.1 74.7 36.3 M76.4 31.05 L76.3 31.45 M76.25 32.85 L76.25 32.8 M76.15 35.65 L76.95 32.75 76.85 32.15 M76.2 34.2 L76.05 34.4 Q75.85 35.7 75.45 36.2 M76.05 34.4 L75.95 34.6 75.85 34.8 M75.95 34.6 L76.05 34.35 76.05 34.4 M78.25 29.4 Q78.75 31.2 78.15 33.3 M66.2 28.4 L66.25 28.6 66.6 30.0 66.65 30.1 66.7 30.3 66.75 30.45 66.8 30.8 67.45 32.35 68.0 33.55 67.0 31.7 66.8 30.8 66.7 30.3 M66.2 28.35 L66.2 28.4 M66.25 29.0 L66.25 29.15 M66.35 29.45 L66.35 29.5 66.6 30.0 M65.55 25.7 L65.55 27.2 65.55 27.45 66.0 28.65 65.95 28.45 65.9 28.15 M66.0 28.65 L66.05 28.75 66.1 28.85 66.1 28.95 66.35 29.45 M65.55 27.45 L65.65 28.05 65.65 28.25 65.7 28.55 66.45 31.1 66.9 32.05 66.85 31.85 Q66.4 30.75 66.1 28.95 L66.05 28.8 66.05 28.75 M66.05 28.8 L66.1 28.85 M66.45 29.95 L66.45 29.8 66.35 29.5 M66.5 30.1 L66.45 29.95 66.5 30.25 66.55 30.4 66.7 30.95 67.0 31.7 67.05 31.95 M66.45 29.95 L66.1 28.95 M66.1 24.4 L66.0 26.35 Q65.95 27.1 66.2 28.35 M65.7 24.75 L65.65 24.8 65.55 25.7 M65.2 25.95 L65.05 26.1 65.05 26.15 65.0 26.2 65.0 26.25 Q64.9 27.75 65.15 28.95 L65.7 31.3 66.0 31.65 66.1 31.75 66.2 31.95 66.8 32.7 66.55 31.7 Q65.75 30.2 65.45 28.45 L65.35 26.55 65.55 27.45 M65.1 25.6 Q65.0 25.8 65.05 26.1 M65.0 26.2 Q64.75 26.55 64.75 27.4 M65.65 28.25 L65.65 29.1 Q65.95 30.6 66.45 31.1 M65.2 30.5 L65.7 31.35 65.7 31.3 M68.5 34.5 L68.6 34.65 68.45 34.4 68.0 33.55 M66.1 31.75 L66.1 31.9 66.2 31.95 67.0 33.15 66.8 32.7 67.4 33.15 66.55 31.7 M64.9 30.5 Q65.0 31.6 66.2 33.1 L66.1 32.95 65.2 30.5 M67.0 33.15 L68.3 34.7 68.85 35.25 68.8 35.15 67.9 33.85 67.4 33.15 M67.9 33.85 L67.55 33.2 67.35 32.85 67.25 32.65 67.2 32.5 66.9 32.05 M66.2 33.1 L67.0 34.5 67.25 34.85 Q67.5 35.4 68.1 35.95 L68.35 36.15 69.2 36.7 70.15 37.2 68.75 35.8 68.0 34.8 67.2 33.9 66.95 33.55 66.1 31.9 65.7 31.35 66.1 32.95 M67.0 33.15 L68.0 34.8 68.1 34.9 69.0 35.95 69.55 36.45 Q70.75 37.35 72.1 37.4 L72.25 37.4 Q71.55 37.15 70.9 36.65 L70.55 36.35 70.25 36.05 68.95 34.35 M69.9 36.0 L69.5 35.75 68.85 35.25 M69.35 35.5 L68.95 35.05 68.7 34.75 69.65 35.8 M68.6 34.65 L68.7 34.75 M69.9 36.0 L70.55 36.35 70.6 36.35 Q71.85 36.95 72.75 36.75 M68.1 35.95 Q68.45 36.65 69.35 37.0 L68.35 36.15 M68.5 34.5 L67.9 33.85 M70.15 37.2 L70.3 37.25 71.05 37.35 69.55 36.45 M70.15 37.2 L70.25 37.25 70.3 37.25 72.05 37.7 71.05 37.35 72.1 37.4 M70.25 37.95 L70.75 38.3 72.2 38.2 71.0 37.8 Q70.1 37.55 69.35 37.0 L70.25 37.25 71.0 37.8 M72.25 37.4 L73.8 37.15 73.85 37.15 M73.55 37.6 L73.3 37.7 73.35 37.7 72.2 38.2 M72.05 37.7 L72.8 37.75 73.3 37.7 72.25 37.4 M70.75 38.3 L71.35 38.5 72.65 38.8 73.3 38.7 73.85 38.45" fill="none" stroke="#000000" stroke-linecap="round" stroke-linejoin="round" stroke-opacity="0.7019608" stroke-width="0.2"/>
    </g>
    <radialGradient cx="0" cy="0" gradientTransform="matrix(0.04, 0.0, 0.0, 0.0319, 49.2, 60.8)" gradientUnits="userSpaceOnUse" id="gradient0" r="819.2" spreadMethod="pad">
      <stop offset="0.00784313725490196" stop-color="#991a1a"/>
      <stop offset="0.8274509803921568" stop-color="#420000"/>
    </radialGradient>
    <g id="sprite0" transform="matrix(1.0, 0.0, 0.0, 1.0, 0.0, 0.0)">
      <use height="20.8" transform="matrix(1.0, 0.0, 0.0, 1.0, 0.0, 0.0)" width="9.9" xlink:href="#shape1"/>
    </g>
    <g id="shape1" transform="matrix(1.0, 0.0, 0.0, 1.0, 0.0, 0.0)">
      <path d="M8.45 17.75 Q7.0 20.8 4.95 20.8 2.9 20.8 1.45 17.75 0.0 14.7 0.0 10.4 0.0 6.1 1.45 3.05 2.9 0.0 4.95 0.0 7.0 0.0 8.45 3.05 9.9 6.1 9.9 10.4 9.9 14.7 8.45 17.75" fill="#000000" fill-rule="evenodd" stroke="none"/>
    </g>
    <g id="shape2" transform="matrix(1.0, 0.0, 0.0, 1.0, -26.85, -19.5)">
      <path d="M28.75 28.35 Q28.75 26.8 29.25 25.55 L29.45 25.0 29.85 24.15 Q30.5 23.0 31.4 22.45 L31.95 22.2 33.2 21.95 Q34.45 21.95 35.5 22.75 L36.85 24.15 38.1 26.6 Q38.55 27.85 38.65 29.35 L38.65 29.5 38.75 30.4 38.5 31.45 38.75 30.4 38.7 31.05 38.5 31.45 38.45 31.55 38.5 29.45 38.1 26.6 38.5 29.45 38.45 31.55 38.45 31.6 38.45 31.8 37.7 34.05 38.45 31.8 38.5 31.45 38.7 31.05 38.65 31.9 38.3 32.8 38.45 31.8 38.3 32.8 38.65 31.9 38.1 33.85 38.25 33.15 38.3 32.8 37.7 34.05 37.3 34.8 36.4 36.3 36.35 36.35 Q35.45 37.05 34.25 37.05 L32.6 36.65 31.65 36.0 31.4 35.8 31.15 35.5 30.75 35.05 30.6 34.85 30.4 34.5 30.5 34.65 30.55 34.7 30.75 35.05 30.55 34.7 30.5 34.65 30.4 34.5 Q29.6 33.3 29.2 31.95 L28.95 30.85 28.85 30.1 28.8 29.85 28.8 29.75 28.8 29.65 28.75 29.5 28.75 29.45 28.75 29.15 28.75 28.35 28.75 28.6 28.95 30.0 29.0 30.1 29.05 30.25 29.05 30.3 29.1 30.45 29.1 30.8 29.55 32.35 30.0 33.55 30.35 34.4 30.5 34.65 30.35 34.4 30.0 33.55 29.55 32.35 29.1 30.8 29.1 30.45 29.05 30.3 29.05 30.25 29.0 30.1 28.95 30.0 28.75 28.6 28.75 28.35 M31.4 22.45 L31.05 23.05 Q29.75 25.65 29.85 27.3 30.0 29.15 30.9 31.35 30.0 29.15 29.85 27.3 29.75 25.65 31.05 23.05 L31.4 22.45 M30.85 34.35 L32.0 36.05 32.25 36.35 31.65 36.0 32.25 36.35 32.0 36.05 30.85 34.35 M32.6 36.65 L32.25 36.35 32.3 36.35 Q33.5 36.95 34.4 36.75 33.5 36.95 32.3 36.35 L32.25 36.35 32.6 36.65 M30.55 34.7 L31.4 35.8 30.55 34.7 M36.5 36.25 L36.4 36.3 37.45 35.1 37.1 35.6 36.5 36.25 M30.3 33.2 L29.1 30.45 Q28.95 27.25 29.25 25.55 28.95 27.25 29.1 30.45 L30.3 33.2 M30.0 33.55 L29.2 31.7 29.1 30.8 29.05 30.3 29.1 30.8 29.2 31.7 30.0 33.55 M28.95 30.0 L28.75 29.5 28.95 30.0 M28.95 30.85 L29.2 31.7 29.2 31.95 29.2 31.7 28.95 30.85" fill="#000000" fill-rule="evenodd" stroke="none"/>
      <path d="M27.25 30.5 Q27.2 31.55 28.15 32.95 L27.55 30.5 Q27.05 29.4 27.0 28.35 26.8 25.75 27.45 23.7 27.6 23.0 27.9 22.4 28.65 20.7 29.3 20.5 L29.55 20.45 Q29.8 20.25 30.4 20.0 L30.9 19.85 31.05 19.8 32.15 19.6 Q32.85 19.6 34.35 20.55 L35.15 20.75 36.4 21.5 37.25 22.6 37.55 23.1 37.6 23.2 38.35 24.9 38.4 25.1 Q39.25 27.45 39.4 29.15 L39.65 28.2 39.5 27.15 39.45 27.05 39.45 26.95 39.3 26.25 39.1 25.45 M28.15 24.6 L27.95 25.6 28.0 25.95 28.0 26.05 28.1 26.55 28.6 24.55 28.7 24.35 28.8 24.0 29.0 23.65 29.35 23.1 29.35 23.05 Q29.5 22.3 30.0 21.8 30.35 21.15 31.35 20.8 L31.6 20.75 Q32.3 20.2 33.0 20.2 33.7 20.2 34.05 20.5 L34.25 20.55 34.35 20.55 35.15 21.1 M29.35 23.1 L29.3 23.3 29.4 23.15 29.55 23.0 30.1 22.1 29.35 23.05 M30.35 22.65 L30.7 22.05 30.2 22.4 29.9 22.7 29.25 23.85 29.25 24.3 29.35 24.85 29.45 24.45 Q29.8 23.25 30.3 22.75 L30.3 22.7 30.35 22.65 30.95 21.9 30.7 22.05 31.05 21.65 31.55 21.35 32.25 21.15 32.7 20.75 32.5 20.75 31.3 20.95 30.0 22.45 29.9 22.7 29.55 23.0 29.25 23.85 29.3 23.3 29.0 23.65 28.7 24.35 28.65 24.6 28.6 24.8 28.4 25.7 28.45 26.5 28.45 27.7 Q28.45 25.6 29.25 23.85 L29.1 24.4 28.8 26.35 Q28.65 27.1 28.75 28.35 L28.75 28.6 28.95 30.0 29.0 30.1 29.05 30.25 29.05 30.3 29.1 30.45 29.1 30.8 29.55 32.35 30.0 33.55 30.35 34.4 30.5 34.65 30.4 34.5 29.9 33.85 30.6 35.15 30.7 35.25 31.25 35.75 31.65 36.0 32.25 36.35 32.0 36.05 30.85 34.35 M29.25 25.55 L29.35 24.85 29.45 25.0 M31.4 22.45 L32.25 21.15 32.5 21.15 33.9 21.4 Q34.9 21.75 35.4 22.6 36.5 23.25 37.4 24.25 L36.6 23.15 35.4 21.8 34.75 21.35 34.6 21.3 33.7 20.85 32.7 20.75 33.2 20.45 31.6 20.75 31.3 20.95 Q30.7 21.15 30.2 21.6 L30.0 21.8 M27.45 23.7 L28.75 21.65 Q29.7 20.2 30.9 19.85 M34.05 20.5 L33.5 20.45 33.45 20.45 33.2 20.45 33.5 20.45 M33.7 20.85 Q34.55 20.95 34.75 21.35 M31.95 22.2 Q32.0 21.65 32.5 21.65 33.7 21.65 35.2 22.5 L35.4 22.6 35.5 22.75 M38.1 26.6 L38.05 26.3 37.75 24.8 37.7 24.7 37.7 24.65 37.65 24.65 37.4 24.25 37.65 24.6 37.7 24.65 37.9 24.85 37.25 23.7 Q36.45 22.5 35.4 21.8 M30.9 31.35 Q30.0 29.15 29.85 27.3 29.75 25.65 31.05 23.05 L31.4 22.45 M30.95 21.9 L31.55 21.35 M37.65 24.6 L37.65 24.65 M37.1 21.65 Q38.3 22.75 38.95 23.9 M37.9 24.85 L38.3 25.9 38.35 25.95 38.4 26.0 38.9 27.65 38.95 27.75 38.95 27.8 39.0 28.0 39.15 28.25 39.35 29.25 39.4 29.15 39.45 29.7 39.6 30.65 39.65 30.15 39.65 28.2 39.7 28.05 39.5 27.15 39.45 26.95 M38.4 26.0 L38.8 27.35 38.9 27.65 M39.35 29.25 L39.35 29.35 39.35 29.45 39.4 29.55 39.45 29.7 39.4 30.0 39.35 30.2 39.4 30.35 39.4 31.55 39.6 30.65 39.7 31.7 M37.75 24.8 L38.75 27.5 38.9 27.9 39.0 28.0 39.35 29.35 39.25 29.55 39.35 30.2 39.0 32.15 39.05 32.75 39.15 32.5 39.4 31.55 39.05 33.4 38.95 33.65 38.6 34.55 38.2 35.25 38.1 35.4 37.9 35.7 37.75 36.1 37.45 37.0 38.85 35.3 M38.75 30.4 L38.65 29.35 M38.1 26.6 L38.5 29.45 38.45 31.55 38.5 31.45 38.75 30.4 M38.7 31.05 L38.85 30.75 38.85 29.25 38.75 27.5 M38.85 30.75 L39.1 30.0 39.25 29.55 39.0 28.0 M39.4 30.0 L39.4 29.55 M39.65 30.15 Q40.0 29.2 39.7 28.05 40.2 26.2 40.1 24.85 L40.0 24.1 M31.15 35.5 L30.75 35.05 30.55 34.7 30.5 34.65 M28.95 30.85 L28.8 30.0 28.8 29.95 28.8 29.85 28.8 29.75 28.75 29.5 28.6 28.95 28.55 28.8 28.5 28.7 Q28.7 30.65 29.05 31.85 L29.05 31.9 29.1 32.0 29.15 32.2 29.2 32.25 29.2 32.35 29.4 32.85 29.6 33.2 29.9 33.85 29.45 33.15 28.9 32.7 29.05 33.15 30.2 34.7 30.7 35.25 M30.75 35.95 L29.95 34.9 29.85 34.8 30.5 35.8 31.75 37.2 31.85 37.25 32.65 37.35 31.2 36.45 30.75 35.95 M34.4 36.75 Q33.5 36.95 32.3 36.35 L32.25 36.35 32.6 36.65 Q33.15 37.15 33.85 37.4 L33.7 37.4 Q32.35 37.35 31.2 36.45 M36.35 36.35 L36.4 36.3 37.3 34.8 37.7 34.05 38.45 31.8 38.45 31.6 38.45 31.55 M31.4 35.8 L30.55 34.7 M38.7 31.05 L38.5 31.45 38.45 31.8 38.3 32.8 38.65 31.9 38.85 30.75 M39.05 32.75 L38.95 33.65 38.2 35.25 M38.1 33.85 L38.25 33.15 38.3 32.8 37.7 34.05 M37.45 35.1 L37.65 34.85 37.7 34.8 37.85 34.55 37.95 34.35 38.1 33.85 M37.15 36.2 L37.95 34.4 37.85 34.55 M37.95 34.4 L38.1 34.2 37.95 34.35 37.95 34.4 M36.5 36.25 L37.1 35.6 37.45 35.1 36.4 36.3 M36.35 36.35 L36.3 36.4 36.2 36.6 35.8 36.95 36.0 36.85 36.5 36.25 36.2 36.6 M36.3 36.4 L35.8 36.9 35.45 37.15 35.8 36.95 35.1 37.6 36.0 36.85 36.2 36.7 37.1 35.6 M37.75 36.1 L37.8 35.85 37.9 35.7 39.05 32.75 M35.1 37.6 L34.9 37.7 35.4 37.7 36.55 37.55 36.85 37.4 37.4 37.05 37.4 37.0 37.45 37.0 M39.0 32.15 L38.1 34.2 M38.45 31.6 Q37.4 33.95 35.85 35.6 M29.25 25.55 Q28.95 27.25 29.1 30.45 L30.3 33.2 M28.1 26.55 L28.2 27.45 28.25 27.2 Q28.25 26.45 28.4 25.7 M27.8 26.1 Q27.5 26.5 27.4 27.4 L27.4 29.25 27.55 30.5 27.95 31.35 27.95 31.3 27.65 28.95 Q27.55 27.75 27.8 26.25 L27.8 26.1 27.95 25.6 M28.5 28.7 L28.5 28.65 28.2 27.45 28.2 28.05 28.25 28.55 Q28.35 29.75 28.75 31.1 L29.05 31.9 M28.2 28.05 L28.15 29.1 Q28.25 30.6 28.75 31.1 M28.75 29.15 L28.7 28.55 Q28.55 26.7 29.0 24.85 L29.1 24.4 M28.45 27.7 L28.45 28.15 28.5 28.45 28.55 28.8 M28.5 28.45 L28.5 28.65 M28.8 29.75 L28.8 29.65 28.75 29.5 28.75 29.45 28.6 28.95 M28.8 30.0 L28.85 30.1 M28.75 29.5 L28.95 30.0 M29.05 30.3 L29.1 30.8 29.2 31.7 30.0 33.55 M27.95 31.3 L28.2 31.65 28.3 31.75 28.35 31.95 28.9 32.7 28.75 31.7 Q28.1 30.2 28.0 28.45 27.9 27.5 28.1 26.55 M28.0 25.95 L27.8 26.1 M29.2 31.95 L29.2 31.7 28.95 30.85 M28.3 31.75 L28.3 31.9 28.35 31.95 29.05 33.15 29.85 34.8 29.15 33.9 28.95 33.55 28.3 31.9 27.95 31.35 28.15 32.95 28.25 33.1 28.9 34.5 29.1 34.85 Q29.3 35.4 29.85 35.95 L30.05 36.15 30.85 36.7 31.75 37.2 31.8 37.25 31.85 37.25 33.6 37.7 32.65 37.35 33.7 37.4 M29.45 33.15 L28.75 31.7 M35.1 37.6 L34.85 37.7 34.9 37.7 33.7 38.2 32.25 38.3 32.8 38.5 34.1 38.8 34.75 38.7 35.3 38.45 M33.6 37.7 L34.35 37.75 34.85 37.7 33.85 37.4 35.4 37.15 35.45 37.15 M31.8 37.25 L32.5 37.8 33.7 38.2 M31.75 37.95 L32.25 38.3 M29.85 35.95 Q30.15 36.65 30.95 37.0 L30.05 36.15 M31.8 37.25 L30.95 37.0 32.5 37.8 M27.4 27.4 Q27.5 24.6 28.3 23.4 M40.7 29.4 Q41.0 31.2 40.2 33.3" fill="none" stroke="#000000" stroke-linecap="round" stroke-linejoin="round" stroke-opacity="0.7019608" stroke-width="0.2"/>
    </g>
    <g id="shape3" transform="matrix(1.0, 0.0, 0.0, 1.0, -48.1, -17.7)">
      <path d="M53.85 23.4 L54.15 26.1 54.45 28.55 54.6 30.25 51.65 30.25 50.1 30.25 49.85 27.3 49.55 24.4 51.15 25.0 52.9 23.05 53.85 23.4 M52.8 28.1 L51.5 27.75 49.85 27.3 51.5 27.75 53.0 25.65 51.15 25.0 53.0 25.65 51.5 27.75 52.8 28.1 54.45 28.55 52.8 28.1 51.65 30.25 52.8 28.1 M53.0 25.65 L54.15 26.1 53.0 25.65" fill="#cccccc" fill-rule="evenodd" stroke="none"/>
      <path d="M49.55 24.4 L49.3 21.9 49.4 21.8 50.9 20.35 53.25 18.0 53.55 20.45 53.85 23.4 52.9 23.05 51.15 25.0 49.55 24.4 M51.2 22.45 L52.55 21.25 53.55 20.45 52.55 21.25 51.2 22.45 52.9 23.05 51.2 22.45 49.4 21.8 51.2 22.45 M52.55 21.25 L50.9 20.35 52.55 21.25" fill="#afafaf" fill-rule="evenodd" stroke="none"/>
      <path d="M49.55 24.4 L49.3 21.9 49.4 21.8 50.9 20.35 53.25 18.0 53.55 20.45 53.85 23.4 54.15 26.1 54.45 28.55 54.6 30.25 51.65 30.25 50.1 30.25 49.85 27.3 49.55 24.4" fill="none" stroke="#000000" stroke-linecap="round" stroke-linejoin="round" stroke-opacity="0.4" stroke-width="0.6000000000000001"/>
      <path d="M49.55 24.4 L51.15 25.0 52.9 23.05 51.2 22.45 49.4 21.8 M53.55 20.45 L52.55 21.25 51.2 22.45 M52.9 23.05 L53.85 23.4 M49.85 27.3 L51.5 27.75 53.0 25.65 51.15 25.0 M54.15 26.1 L53.0 25.65 M54.45 28.55 L52.8 28.1 51.65 30.25 M51.5 27.75 L52.8 28.1 M50.9 20.35 L52.55 21.25" fill="none" stroke="#000000" stroke-linecap="round" stroke-linejoin="round" stroke-opacity="0.2" stroke-width="0.30000000000000004"/>
      <path d="M55.3 29.8 Q56.55 33.35 55.7 36.9 L55.3 38.3 49.4 38.3 48.75 36.55 Q48.1 34.1 48.7 31.25 L49.4 29.8 Q52.35 28.75 55.3 29.8 M55.55 31.7 Q53.95 33.9 55.7 36.9 53.95 33.9 55.55 31.7 M48.75 36.55 Q50.4 34.45 48.7 31.25 50.4 34.45 48.75 36.55" fill="#999999" fill-rule="evenodd" stroke="none"/>
      <path d="M55.3 29.8 Q56.55 33.35 55.7 36.9 L55.3 38.3 49.4 38.3 48.75 36.55 Q48.1 34.1 48.7 31.25 L49.4 29.8 Q52.35 28.75 55.3 29.8" fill="none" stroke="#000000" stroke-linecap="round" stroke-linejoin="round" stroke-opacity="0.4" stroke-width="0.6000000000000001"/>
      <path d="M48.7 31.25 Q50.4 34.45 48.75 36.55 M55.7 36.9 Q53.95 33.9 55.55 31.7" fill="none" stroke="#000000" stroke-linecap="round" stroke-linejoin="round" stroke-opacity="0.2" stroke-width="0.30000000000000004"/>
      <path d="M55.3 37.7 L58.55 49.2 Q55.0 51.15 49.5 49.2 47.8 43.15 49.5 37.7 L55.3 37.7 M56.7 47.85 L54.5 39.7 Q52.4 39.15 50.6 39.7 50.35 43.7 51.1 47.5 53.9 49.1 56.7 47.85" fill="#999999" fill-rule="evenodd" stroke="none"/>
      <path d="M56.7 47.85 Q53.9 49.1 51.1 47.5 50.35 43.7 50.6 39.7 52.4 39.15 54.5 39.7 L56.7 47.85" fill="#848484" fill-rule="evenodd" stroke="none"/>
      <path d="M55.3 37.7 L58.55 49.2 Q55.0 51.15 49.5 49.2 47.8 43.15 49.5 37.7 L55.3 37.7" fill="none" stroke="#000000" stroke-linecap="round" stroke-linejoin="round" stroke-opacity="0.4" stroke-width="0.6000000000000001"/>
      <path d="M56.7 47.85 L54.5 39.7 Q52.4 39.15 50.6 39.7 50.35 43.7 51.1 47.5 53.9 49.1 56.7 47.85" fill="none" stroke="#000000" stroke-linecap="round" stroke-linejoin="round" stroke-opacity="0.2" stroke-width="0.30000000000000004"/>
      <path d="M91.65 66.0 Q86.6 73.1 77.95 75.5 75.7 69.5 77.7 63.3 L87.9 57.65 Q90.65 61.4 91.65 66.0" fill="#bfcc84" fill-rule="evenodd" stroke="none"/>
      <path d="M91.65 66.0 Q86.6 73.1 77.95 75.5 75.7 69.5 77.7 63.3 L87.9 57.65 Q90.65 61.4 91.65 66.0 Z" fill="none" stroke="#000000" stroke-linecap="round" stroke-linejoin="round" stroke-opacity="0.4" stroke-width="0.6000000000000001"/>
    </g>
  </defs>
</svg>
