<?xml version="1.0" encoding="UTF-8" standalone="no"?>
<svg xmlns:xlink="http://www.w3.org/1999/xlink" height="531.5px" width="460.6px" xmlns="http://www.w3.org/2000/svg">
  <g transform="matrix(1.0, 0.0, 0.0, 1.0, 193.65, 334.05)">
    <use height="52.95" transform="matrix(1.0, 0.0, 0.0, 1.0, -61.8, -199.4)" width="129.2" xlink:href="#shape0"/>
  </g>
  <defs>
    <g id="shape0" transform="matrix(1.0, 0.0, 0.0, 1.0, 61.8, 199.4)">
      <path d="M47.1 -162.65 L46.75 -162.9 46.55 -162.9 46.25 -162.9 Q-38.05 -154.2 -54.6 -154.5 -54.2 -155.2 -53.65 -155.2 -53.2 -155.2 -52.6 -154.8 -51.5 -154.8 -51.5 -156.75 L-51.55 -159.25 Q-51.5 -160.1 -50.65 -161.8 -50.15 -162.8 -50.0 -163.45 L-49.95 -164.0 Q-49.95 -164.45 -50.85 -165.15 L-52.2 -166.15 Q-52.9 -166.85 -53.05 -167.7 -53.05 -168.65 -53.2 -168.95 -53.85 -171.9 -53.85 -176.3 -53.85 -184.85 -50.0 -189.2 -46.2 -193.6 -36.65 -196.05 L-33.05 -196.5 -28.1 -195.5 Q-22.9 -193.85 -18.6 -193.25 L-3.45 -191.6 Q6.85 -190.5 13.5 -189.2 L30.1 -185.7 Q40.45 -182.8 44.7 -179.3 48.75 -175.8 55.2 -172.3 58.0 -170.75 58.0 -167.65 58.0 -164.85 54.35 -163.15 52.25 -162.2 49.9 -161.8 L47.1 -162.65 M13.75 -168.95 Q29.55 -167.2 38.4 -165.25 43.7 -164.15 46.55 -162.9 43.7 -164.15 38.4 -165.25 29.55 -167.2 13.75 -168.95 M-47.0 -183.35 Q-48.55 -180.85 -48.55 -177.85 -48.55 -172.8 -44.4 -169.3 -40.2 -165.7 -34.4 -165.7 -28.55 -165.7 -24.35 -169.3 -20.25 -172.8 -20.25 -177.85 -20.25 -182.9 -24.35 -186.45 -28.55 -189.95 -34.4 -189.95 L-38.5 -189.5 Q-41.85 -188.7 -44.4 -186.45 -46.15 -185.05 -47.0 -183.35" fill="#006633" fill-rule="evenodd" stroke="none"/>
      <path d="M49.9 -161.8 Q52.25 -162.2 54.35 -163.15 58.0 -164.85 58.0 -167.65 58.0 -170.75 55.2 -172.3 48.75 -175.8 44.7 -179.3 40.45 -182.8 30.1 -185.7 L13.5 -189.2 Q6.85 -190.5 -3.45 -191.6 L-18.6 -193.25 Q-22.9 -193.85 -28.1 -195.5 L-33.05 -196.5 -36.65 -196.05 Q-46.2 -193.6 -50.0 -189.2 -53.85 -184.85 -53.85 -176.3 -53.85 -171.9 -53.2 -168.95 -53.05 -168.65 -53.05 -167.7 -52.9 -166.85 -52.2 -166.15 L-50.85 -165.15 Q-49.95 -164.45 -49.95 -164.0 L-50.0 -163.45 Q-50.15 -162.8 -50.65 -161.8 -51.5 -160.1 -51.55 -159.25 L-51.5 -156.75 Q-51.5 -154.8 -52.6 -154.8 -53.2 -155.2 -53.65 -155.2 -54.2 -155.2 -54.6 -154.5 -59.45 -154.6 -58.65 -155.45 L-58.9 -156.2 Q-59.65 -159.55 -57.7 -163.9 -62.3 -172.0 -59.1 -185.15 -52.8 -197.2 -39.45 -198.9 -1.4 -199.05 30.3 -190.6 52.95 -183.65 62.65 -174.55 69.35 -166.3 65.45 -162.2 59.15 -159.4 49.9 -161.8 M-50.0 -163.45 L-57.7 -163.9 -55.3 -161.9 -57.7 -163.9 -50.0 -163.45" fill="#008040" fill-rule="evenodd" stroke="none"/>
      <path d="M-44.5 -179.1 L-44.5 -178.7 Q-44.5 -174.65 -41.25 -172.25 -38.35 -170.0 -33.7 -170.0 -29.95 -170.0 -26.9 -172.6 -23.65 -175.6 -23.65 -179.7 -23.65 -182.4 -26.7 -185.4 -29.4 -187.95 -30.95 -187.95 L-34.3 -187.8 -34.75 -187.8 -35.0 -187.8 -36.0 -188.55 Q-37.1 -189.25 -38.5 -189.5 L-34.4 -189.95 Q-28.55 -189.95 -24.35 -186.45 -20.25 -182.9 -20.25 -177.85 -20.25 -172.8 -24.35 -169.3 -28.55 -165.7 -34.4 -165.7 -40.2 -165.7 -44.4 -169.3 -48.55 -172.8 -48.55 -177.85 -48.55 -180.85 -47.0 -183.35 L-47.15 -182.35 Q-47.15 -179.7 -44.5 -179.1" fill="#ff9900" fill-rule="evenodd" stroke="none"/>
      <path d="M-35.0 -187.8 Q-34.15 -186.8 -34.15 -185.2 -34.15 -182.9 -36.65 -180.85 -39.2 -178.85 -42.55 -178.85 L-44.5 -179.1 Q-47.15 -179.7 -47.15 -182.35 L-47.0 -183.35 Q-46.15 -185.05 -44.4 -186.45 -41.85 -188.7 -38.5 -189.5 -37.1 -189.25 -36.0 -188.55 L-35.0 -187.8" fill="#ffffff" fill-rule="evenodd" stroke="none"/>
      <path d="M-35.0 -187.8 L-34.75 -187.8 -34.3 -187.8 -30.95 -187.95 Q-29.4 -187.95 -26.7 -185.4 -23.65 -182.4 -23.65 -179.7 -23.65 -175.6 -26.9 -172.6 -29.95 -170.0 -33.7 -170.0 -38.35 -170.0 -41.25 -172.25 -44.5 -174.65 -44.5 -178.7 L-44.5 -179.1 -42.55 -178.85 Q-39.2 -178.85 -36.65 -180.85 -34.15 -182.9 -34.15 -185.2 -34.15 -186.8 -35.0 -187.8" fill="#ffb700" fill-rule="evenodd" stroke="none"/>
      <path d="M-55.3 -147.65 Q-60.15 -146.65 -60.9 -147.05 -62.15 -152.15 -59.6 -156.15 L-58.9 -156.2 -58.65 -155.45 Q-59.45 -154.6 -54.6 -154.5 L-55.25 -152.8 -55.6 -149.75 -55.3 -147.65" fill="#333333" fill-rule="evenodd" stroke="none"/>
      <path d="M-54.6 -154.5 Q-38.05 -154.2 46.25 -162.9 19.9 -157.55 -25.6 -153.5 -39.35 -151.7 -49.55 -149.0 L-55.3 -147.65 -55.6 -149.75 -55.25 -152.8 -54.6 -154.5" fill="#000000" fill-rule="evenodd" stroke="none"/>
      <path d="M47.1 -162.65 L46.75 -162.9 46.55 -162.9 47.1 -162.65 49.9 -161.8 Q59.15 -159.4 65.45 -162.2 69.35 -166.3 62.65 -174.55 52.95 -183.65 30.3 -190.6 -1.4 -199.05 -39.45 -198.9 -52.8 -197.2 -59.1 -185.15 -62.3 -172.0 -57.7 -163.9 L-50.0 -163.45 M-54.6 -154.5 Q-38.05 -154.2 46.25 -162.9 L46.55 -162.9 Q43.7 -164.15 38.4 -165.25 29.55 -167.2 13.75 -168.95 M-58.9 -156.2 Q-59.65 -159.55 -57.7 -163.9 L-55.3 -161.9 M-47.0 -183.35 Q-48.55 -180.85 -48.55 -177.85 -48.55 -172.8 -44.4 -169.3 -40.2 -165.7 -34.4 -165.7 -28.55 -165.7 -24.35 -169.3 -20.25 -172.8 -20.25 -177.85 -20.25 -182.9 -24.35 -186.45 -28.55 -189.95 -34.4 -189.95 L-38.5 -189.5 Q-41.85 -188.7 -44.4 -186.45 -46.15 -185.05 -47.0 -183.35 M-55.3 -147.65 Q-60.15 -146.65 -60.9 -147.05 -62.15 -152.15 -59.6 -156.15 L-58.9 -156.2 -58.65 -155.45 Q-59.45 -154.6 -54.6 -154.5 M-55.3 -147.65 L-49.55 -149.0 Q-39.35 -151.7 -25.6 -153.5 19.9 -157.55 46.25 -162.9" fill="none" stroke="#000000" stroke-linecap="round" stroke-linejoin="round" stroke-opacity="0.6627451" stroke-width="1.0"/>
    </g>
  </defs>
</svg>
