<?xml version="1.0" encoding="UTF-8" standalone="no"?>
<svg xmlns:xlink="http://www.w3.org/1999/xlink" height="531.5px" width="460.6px" xmlns="http://www.w3.org/2000/svg">
  <g transform="matrix(1.0, 0.0, 0.0, 1.0, 193.65, 334.05)">
    <use height="130.95" transform="matrix(1.0, 0.0, 0.0, 1.0, -96.3, -214.4)" width="162.95" xlink:href="#shape0"/>
  </g>
  <defs>
    <g id="shape0" transform="matrix(1.0, 0.0, 0.0, 1.0, 96.3, 214.4)">
      <path d="M10.05 -199.9 L10.2 -200.2 14.4 -197.5 Q15.65 -198.85 16.7 -198.85 L16.85 -198.55 14.7 -197.2 16.15 -196.0 14.0 -194.9 16.15 -196.0 Q17.65 -194.65 18.9 -192.9 L19.7 -193.3 22.7 -193.7 22.95 -193.7 23.1 -193.4 22.95 -193.15 22.7 -193.15 Q20.4 -192.9 19.45 -192.45 L19.3 -192.35 19.3 -192.2 Q22.4 -187.45 22.4 -182.45 L22.3 -180.7 Q22.15 -178.1 21.2 -175.95 L19.0 -174.35 16.7 -176.75 17.8 -181.5 Q18.05 -184.2 17.65 -186.9 16.85 -190.85 14.0 -194.9 12.9 -197.5 10.05 -199.9 M41.8 -169.2 L34.9 -172.05 Q38.55 -173.65 41.7 -173.65 L42.5 -173.65 Q43.05 -171.9 41.8 -169.2 M27.05 -174.05 L26.2 -174.6 23.5 -173.9 23.1 -176.1 30.3 -184.1 Q31.25 -186.4 31.25 -188.7 31.25 -191.1 30.15 -193.7 L30.0 -193.95 30.15 -193.85 Q32.2 -191.95 33.0 -190.45 L33.4 -188.4 35.7 -187.85 Q36.8 -187.45 36.65 -186.9 36.8 -186.8 36.4 -186.8 L33.55 -187.85 33.55 -186.9 Q33.55 -185.05 32.45 -182.75 L32.7 -182.75 Q34.35 -182.3 34.6 -181.65 34.75 -181.5 34.35 -181.5 L32.05 -182.2 31.5 -181.1 27.05 -174.05 M12.9 -175.55 L12.35 -174.45 8.05 -179.6 Q7.5 -182.2 6.4 -184.35 L5.3 -186.5 Q3.3 -189.65 0.95 -192.05 L-0.5 -193.7 -0.8 -194.5 2.75 -195.45 Q4.75 -194.25 6.25 -192.2 L6.95 -192.35 8.45 -192.6 8.55 -192.35 Q8.55 -192.05 7.35 -191.8 L6.8 -191.65 7.6 -190.3 9.65 -186.0 10.9 -182.45 12.9 -175.55 M-4.3 -176.65 L-8.95 -177.15 Q-10.15 -178.0 -11.35 -177.6 -11.65 -181.8 -10.95 -184.35 -11.65 -181.8 -11.35 -177.6 -13.15 -179.35 -13.4 -178.25 L-15.15 -180.15 -17.5 -181.1 -24.15 -184.1 -26.55 -185.05 -27.4 -185.3 Q-30.8 -186.25 -34.45 -186.1 -35.65 -188.15 -35.95 -190.15 L-32.55 -190.6 -27.95 -190.15 -27.95 -190.3 -27.95 -191.4 -27.5 -193.15 Q-26.7 -193.4 -26.7 -192.75 L-27.4 -190.3 -27.4 -190.15 -23.7 -189.35 -22.9 -190.3 -22.75 -190.3 -22.65 -190.05 Q-22.65 -189.65 -22.9 -189.25 L-18.0 -187.6 -14.1 -186.0 Q-13.95 -185.85 -13.8 -185.85 -13.4 -187.85 -12.85 -188.4 L-12.6 -188.4 -12.45 -188.15 -12.85 -186.0 -13.0 -185.45 -10.95 -184.35 -6.2 -181.1 -6.1 -181.25 -5.0 -182.2 -4.7 -182.05 Q-4.85 -181.35 -5.65 -180.7 L-3.9 -178.8 -4.3 -176.65 M-22.75 -175.95 L-24.0 -175.8 -34.05 -169.6 Q-37.0 -167.85 -37.15 -162.4 L-43.4 -162.55 -43.4 -163.5 Q-43.4 -167.3 -41.75 -170.15 -40.55 -172.45 -37.95 -174.05 -35.0 -175.95 -31.6 -176.5 L-29.0 -176.75 -29.0 -176.65 -28.9 -176.75 -25.2 -176.5 -22.75 -175.95 M-77.85 -159.15 L-77.7 -159.3 Q-78.15 -159.55 -73.65 -162.15 -72.95 -162.55 -72.15 -163.1 -68.65 -165.4 -66.75 -168.8 -67.0 -168.5 -67.95 -168.1 -67.15 -169.3 -62.95 -172.15 L-62.4 -172.55 -60.9 -173.5 Q-58.05 -175.3 -54.8 -176.75 -53.45 -177.6 -51.65 -178.1 -53.55 -174.05 -54.25 -170.95 -54.8 -167.95 -54.25 -165.8 L-54.1 -165.1 -51.8 -152.55 -51.4 -150.35 -54.95 -137.25 -57.1 -137.65 Q-56.95 -138.05 -56.95 -138.45 L-56.85 -139.95 Q-58.2 -140.75 -59.25 -140.9 L-59.25 -141.3 Q-58.75 -141.55 -57.35 -141.0 L-56.85 -140.75 -56.7 -141.45 Q-56.55 -143.75 -56.7 -144.4 -56.85 -145.5 -57.8 -145.5 -59.15 -145.5 -61.05 -142.5 L-62.65 -139.65 -65.35 -130.05 -68.2 -130.05 -65.35 -130.05 -66.2 -128.0 -68.65 -119.35 -69.7 -119.6 Q-68.2 -126.1 -68.2 -130.05 L-68.2 -130.45 Q-68.2 -134.8 -69.05 -135.6 L-69.7 -135.75 Q-71.05 -135.75 -72.0 -134.8 L-72.3 -134.4 -74.05 -132.5 -61.6 -153.2 -63.05 -154.0 Q-62.65 -154.4 -62.55 -154.95 L-58.85 -161.35 Q-57.35 -164.15 -57.35 -166.05 -57.35 -167.4 -57.8 -167.85 -58.05 -168.25 -59.15 -168.25 L-59.4 -168.25 -62.95 -172.15 -59.4 -168.25 -59.55 -168.25 Q-60.75 -168.25 -64.3 -165.8 -62.95 -164.7 -62.65 -163.75 L-63.05 -163.65 Q-63.9 -163.65 -64.95 -165.4 -65.65 -164.85 -66.45 -164.45 -67.7 -163.5 -68.9 -162.7 L-68.65 -162.3 -67.7 -160.5 -67.8 -160.4 -69.6 -162.3 Q-71.05 -161.45 -72.7 -160.8 -75.15 -159.7 -77.85 -159.15 M42.5 -179.6 L43.7 -180.0 44.0 -181.25 46.55 -180.0 Q47.65 -179.5 48.35 -178.8 49.55 -177.7 49.8 -176.25 L48.05 -177.3 Q46.15 -178.1 43.05 -178.1 L42.5 -179.6 M-18.0 -187.6 Q-18.3 -184.6 -17.5 -181.1 -18.3 -184.6 -18.0 -187.6 M-31.45 -174.85 L-31.6 -176.5 -31.45 -174.85 M-40.4 -168.35 L-41.75 -170.15 -40.4 -168.35 M-54.1 -165.1 L-60.5 -155.1 -61.6 -153.2 -60.5 -155.1 -54.1 -165.1 M-51.8 -152.55 L-55.45 -152.95 -51.8 -152.55 M-60.5 -155.1 L-62.65 -139.65 -60.5 -155.1" fill="#895613" fill-rule="evenodd" stroke="none"/>
      <path d="M9.25 -200.35 Q13.45 -206.85 22.95 -205.75 L29.05 -196.25 29.05 -195.3 30.0 -193.95 30.15 -193.7 Q31.25 -191.1 31.25 -188.7 31.25 -186.4 30.3 -184.1 L23.1 -176.1 21.2 -175.95 Q22.15 -178.1 22.3 -180.7 L22.4 -182.45 Q22.4 -187.45 19.3 -192.2 L19.3 -192.35 19.45 -192.45 Q20.4 -192.9 22.7 -193.15 L22.95 -193.15 23.1 -193.4 22.95 -193.7 22.7 -193.7 19.7 -193.3 18.9 -192.9 Q17.65 -194.65 16.15 -196.0 L14.7 -197.2 16.85 -198.55 16.7 -198.85 Q15.65 -198.85 14.4 -197.5 L10.2 -200.2 10.05 -199.9 9.25 -200.35 M24.85 -196.0 Q19.85 -197.5 16.15 -196.0 19.85 -197.5 24.85 -196.0 M25.95 -189.75 L31.25 -188.7 25.95 -189.75" fill="url(#gradient0)" fill-rule="evenodd" stroke="none"/>
      <path d="M-21.95 -201.4 Q-15.3 -204.0 -9.75 -203.85 L-1.45 -202.9 6.8 -201.8 9.25 -200.35 10.05 -199.9 Q12.9 -197.5 14.0 -194.9 16.85 -190.85 17.65 -186.9 13.45 -187.85 9.65 -186.0 13.45 -187.85 17.65 -186.9 18.05 -184.2 17.8 -181.5 L16.7 -176.75 15.9 -174.2 13.75 -176.9 12.9 -175.55 10.9 -182.45 9.65 -186.0 7.6 -190.3 6.8 -191.65 7.35 -191.8 Q8.55 -192.05 8.55 -192.35 L8.45 -192.6 6.95 -192.35 6.25 -192.2 Q4.75 -194.25 2.75 -195.45 L1.9 -196.0 Q-1.85 -198.3 -7.3 -198.3 L-9.05 -198.15 -10.7 -198.15 -13.4 -197.9 -13.55 -197.9 Q-17.5 -199.1 -21.4 -199.65 L-21.95 -201.4 M5.2 -196.15 L2.75 -195.45 5.2 -196.15" fill="url(#gradient1)" fill-rule="evenodd" stroke="none"/>
      <path d="M22.95 -205.75 Q13.45 -206.85 9.25 -200.35 L6.8 -201.8 -1.45 -202.9 -9.75 -203.85 Q-15.3 -204.0 -21.95 -201.4 L-25.2 -200.2 Q-27.4 -201.55 -32.95 -200.2 L-38.1 -200.45 -38.25 -200.45 -38.1 -203.7 Q-38.1 -204.25 -38.8 -204.0 L-38.9 -201.8 Q-39.05 -200.6 -38.8 -200.35 -40.4 -199.8 -41.35 -198.85 L-44.75 -198.95 -44.6 -202.1 -44.9 -202.5 Q-45.45 -201.95 -45.45 -200.2 -45.45 -199.25 -45.15 -198.95 -48.4 -198.85 -51.4 -197.75 L-54.65 -196.4 -55.2 -196.15 Q-56.0 -195.7 -57.1 -195.3 L-63.05 -192.2 -64.55 -191.4 -67.25 -190.05 -69.05 -189.1 Q-73.65 -191.0 -71.9 -198.05 L-64.95 -202.1 Q-56.55 -206.15 -45.7 -208.85 L-37.0 -211.05 -15.7 -212.8 -2.15 -213.85 Q10.05 -214.4 20.1 -210.1 L22.95 -205.75 M-22.1 -204.95 Q-22.9 -208.7 -15.7 -212.8 -22.9 -208.7 -22.1 -204.95 M-58.3 -201.15 Q-60.5 -196.65 -57.1 -195.3 -60.5 -196.65 -58.3 -201.15 M-51.4 -197.75 Q-51.55 -204.65 -45.7 -208.85 -51.55 -204.65 -51.4 -197.75 M1.9 -209.4 Q-1.35 -207.35 -1.45 -202.9 -1.35 -207.35 1.9 -209.4" fill="url(#gradient2)" fill-rule="evenodd" stroke="none"/>
      <path d="M29.05 -195.3 L29.6 -195.6 Q30.7 -196.55 32.2 -196.8 35.05 -197.35 38.95 -195.7 44.25 -193.4 45.5 -189.65 L44.95 -187.2 43.05 -185.3 44.4 -183.65 44.0 -181.25 43.7 -180.0 42.5 -179.6 35.15 -176.9 29.9 -173.65 27.15 -172.45 27.05 -174.05 31.5 -181.1 32.05 -182.2 34.35 -181.5 Q34.75 -181.5 34.6 -181.65 34.35 -182.3 32.7 -182.75 L32.45 -182.75 Q33.55 -185.05 33.55 -186.9 L33.55 -187.85 36.4 -186.8 Q36.8 -186.8 36.65 -186.9 36.8 -187.45 35.7 -187.85 L33.4 -188.4 33.0 -190.45 Q32.2 -191.95 30.15 -193.85 L30.0 -193.95 29.05 -195.3 M35.55 -190.45 Q40.2 -188.4 43.05 -185.3 40.2 -188.4 35.55 -190.45" fill="url(#gradient3)" fill-rule="evenodd" stroke="none"/>
      <path d="M44.95 -187.2 Q48.05 -186.8 49.55 -185.55 L50.65 -183.95 Q53.5 -178.1 51.2 -174.35 L49.8 -176.25 Q49.55 -177.7 48.35 -178.8 47.65 -179.5 46.55 -180.0 L44.0 -181.25 44.4 -183.65 44.95 -187.2" fill="url(#gradient4)" fill-rule="evenodd" stroke="none"/>
      <path d="M44.4 -183.65 L43.05 -185.3 44.95 -187.2 44.4 -183.65" fill="url(#gradient5)" fill-rule="evenodd" stroke="none"/>
      <path d="M51.2 -174.35 L54.55 -171.5 58.25 -163.1 Q61.2 -161.35 61.5 -151.3 L61.35 -150.75 Q60.4 -147.25 57.55 -145.5 56.05 -144.8 54.85 -144.55 56.05 -144.8 57.55 -145.5 60.4 -147.25 61.35 -150.75 L61.65 -150.65 62.6 -143.6 62.6 -142.65 Q63.0 -137.35 62.45 -135.2 L62.15 -134.25 62.45 -133.3 61.5 -132.2 60.55 -131.0 Q58.8 -129.25 57.0 -129.25 L55.95 -129.35 55.65 -129.35 55.4 -129.5 55.4 -131.95 Q54.85 -133.05 55.0 -135.05 L54.85 -137.25 55.8 -137.5 Q56.75 -137.9 57.0 -138.2 L56.9 -138.3 54.85 -137.75 54.7 -138.05 55.0 -141.15 54.85 -144.55 54.45 -147.8 Q55.95 -148.05 56.75 -149.3 L56.6 -149.4 Q56.05 -149.55 55.8 -149.15 L55.25 -148.75 54.45 -148.6 Q53.5 -154.55 51.2 -161.35 L50.35 -163.65 50.25 -163.9 Q48.45 -167.95 46.85 -170.4 44.65 -173.25 42.5 -173.65 L41.7 -173.65 Q38.55 -173.65 34.9 -172.05 L31.5 -172.85 29.75 -172.05 29.9 -173.65 35.15 -176.9 40.05 -177.45 Q41.8 -175.55 42.5 -173.65 41.8 -175.55 40.05 -177.45 L43.05 -178.1 Q46.15 -178.1 48.05 -177.3 L49.8 -176.25 51.2 -174.35 Q52.0 -171.75 52.15 -169.45 52.0 -171.75 51.2 -174.35 M42.5 -95.95 L40.2 -97.55 39.5 -98.25 38.4 -101.6 38.4 -101.75 Q37.45 -104.75 38.85 -105.95 L40.85 -107.3 48.75 -112.45 52.0 -112.6 53.9 -112.2 55.95 -111.65 57.0 -111.1 58.25 -110.4 59.85 -109.45 60.15 -109.35 58.65 -104.75 Q56.9 -100.95 54.3 -100.95 L53.6 -101.5 52.0 -102.7 Q50.35 -103.8 49.0 -104.2 L47.9 -104.45 47.4 -104.45 Q45.05 -104.45 43.45 -103.25 42.5 -102.45 41.95 -101.05 41.55 -100.0 41.55 -98.65 41.55 -97.3 42.5 -95.95 M57.3 -155.5 Q59.6 -158.35 58.25 -163.1 59.6 -158.35 57.3 -155.5 M55.0 -129.65 L54.85 -129.8 54.85 -130.05 55.0 -129.65 M41.95 -101.05 L41.4 -102.15 Q40.45 -106.9 47.1 -105.55 L48.05 -104.85 49.0 -104.2 48.05 -104.85 47.1 -105.55 Q40.45 -106.9 41.4 -102.15 L41.95 -101.05" fill="url(#gradient6)" fill-rule="evenodd" stroke="none"/>
      <path d="M40.05 -177.45 L35.15 -176.9 42.5 -179.6 43.05 -178.1 40.05 -177.45" fill="url(#gradient7)" fill-rule="evenodd" stroke="none"/>
      <path d="M-13.4 -197.9 L-10.7 -198.15 -9.05 -198.15 -7.3 -198.3 Q-1.85 -198.3 1.9 -196.0 L2.75 -195.45 -0.8 -194.5 -1.35 -194.25 Q-4.2 -196.25 -9.45 -197.2 L-11.65 -197.5 -13.4 -197.9 M62.45 -133.3 L63.25 -130.05 62.45 -122.75 62.15 -122.75 62.05 -122.85 61.5 -123.15 57.85 -124.1 57.4 -124.1 51.2 -125.05 52.0 -127.75 52.55 -127.9 53.35 -129.35 54.85 -129.25 55.65 -129.35 55.95 -129.35 57.0 -129.25 Q58.8 -129.25 60.55 -131.0 L61.5 -132.2 62.45 -133.3 M62.3 -105.95 Q62.7 -101.5 60.25 -98.35 57.4 -94.85 54.7 -93.5 53.1 -92.7 50.65 -92.95 47.9 -93.1 44.4 -94.7 L42.65 -95.8 Q42.5 -95.8 42.5 -95.95 41.55 -97.3 41.55 -98.65 41.55 -100.0 41.95 -101.05 42.5 -102.45 43.45 -103.25 45.05 -104.45 47.4 -104.45 L47.9 -104.45 49.0 -104.2 Q50.35 -103.8 52.0 -102.7 L53.6 -101.5 54.3 -100.95 Q56.9 -100.95 58.65 -104.75 L60.15 -109.35 62.3 -105.95 M35.85 -99.3 L35.85 -101.35 36.65 -101.5 35.85 -99.3 M49.8 -144.95 Q48.45 -148.85 47.5 -159.85 L46.95 -160.25 41.8 -169.2 Q43.05 -171.9 42.5 -173.65 44.65 -173.25 46.85 -170.4 48.45 -167.95 50.25 -163.9 L50.35 -163.65 51.2 -161.35 Q53.5 -154.55 54.45 -148.6 L55.25 -148.75 55.8 -149.15 Q56.05 -149.55 56.6 -149.4 L56.75 -149.3 Q55.95 -148.05 54.45 -147.8 L54.85 -144.55 55.0 -141.15 54.7 -138.05 54.85 -137.75 56.9 -138.3 57.0 -138.2 Q56.75 -137.9 55.8 -137.5 L54.85 -137.25 55.0 -135.05 Q54.85 -133.05 55.4 -131.95 L55.4 -129.5 55.65 -129.35 54.85 -129.25 53.35 -129.35 52.55 -127.9 52.0 -127.75 52.0 -128.3 51.7 -127.75 52.25 -129.5 52.95 -132.1 52.25 -137.35 51.3 -143.2 51.3 -143.6 49.8 -144.95 M-37.15 -162.4 L-37.0 -158.35 -36.75 -153.6 -34.85 -148.2 -35.0 -146.3 -35.0 -145.2 -35.0 -144.95 -35.1 -142.9 -35.25 -142.65 -35.25 -142.5 -35.4 -142.5 -39.2 -141.3 -35.4 -142.5 -35.25 -142.5 -35.4 -139.8 Q-35.8 -134.5 -36.35 -129.35 L-36.75 -126.55 -37.7 -119.1 -38.65 -113.55 -39.75 -113.8 -41.2 -114.2 Q-44.2 -115.7 -47.35 -115.85 L-48.0 -115.95 -52.2 -115.7 -52.9 -115.55 Q-55.05 -115.15 -57.25 -114.2 L-58.05 -112.05 Q-58.85 -107.15 -57.9 -103.65 L-57.8 -103.5 -57.25 -103.65 -52.6 -103.9 -51.65 -103.9 -51.0 -103.9 -46.25 -103.4 -40.7 -102.3 -39.75 -101.9 -40.8 -92.25 Q-44.35 -90.25 -47.85 -90.25 -52.2 -90.25 -56.55 -93.2 L-56.7 -93.35 -56.15 -93.65 Q-55.45 -93.9 -54.95 -94.3 L-54.8 -94.15 -53.55 -93.75 Q-51.55 -93.75 -49.25 -95.25 L-47.75 -96.45 Q-45.7 -98.35 -44.6 -100.25 L-44.6 -101.35 -46.5 -101.6 -50.6 -101.5 -57.9 -101.2 -58.2 -99.2 Q-59.25 -97.95 -60.65 -97.15 L-58.45 -121.65 -58.05 -126.0 -57.1 -137.65 -54.95 -137.25 -57.25 -128.0 -57.25 -125.7 -58.05 -126.0 -57.25 -125.7 -57.25 -119.1 -55.75 -119.75 -46.8 -119.1 -42.85 -129.1 -42.7 -129.65 -41.2 -134.1 -43.0 -134.4 -43.0 -134.65 -43.0 -134.95 -41.1 -134.65 -40.95 -134.65 -39.85 -138.45 -40.4 -138.45 -40.7 -138.85 -39.85 -139.0 -39.75 -139.0 -39.2 -141.3 -39.05 -142.65 -38.8 -145.6 -38.9 -147.4 Q-39.3 -149.3 -40.25 -152.1 L-41.2 -152.25 -41.2 -152.65 -40.55 -152.8 -40.95 -154.15 -42.05 -154.15 -42.3 -154.3 -42.3 -154.55 -41.2 -154.85 Q-43.1 -159.7 -43.4 -162.55 L-37.15 -162.4 M-77.7 -159.3 L-78.4 -159.05 -78.8 -158.75 -83.3 -156.6 Q-86.95 -155.65 -89.25 -158.5 -87.65 -159.05 -85.6 -160.1 L-87.9 -163.5 -87.9 -163.65 Q-87.75 -163.65 -87.65 -163.75 L-85.75 -161.45 -84.9 -160.5 -84.35 -160.8 -85.2 -162.0 Q-84.35 -162.0 -83.55 -161.35 L-82.35 -162.0 Q-80.3 -160.5 -77.7 -159.3 M-76.35 -184.5 L-75.55 -184.9 -74.35 -185.85 Q-74.05 -181.9 -71.6 -178.25 -69.6 -175.0 -67.0 -174.05 L-64.95 -175.7 Q-63.05 -177.45 -62.1 -178.0 L-61.85 -178.25 -63.2 -179.5 -63.05 -179.75 -61.45 -178.55 -60.65 -179.35 -60.75 -179.6 Q-61.45 -181.1 -61.7 -182.75 L-61.6 -183.0 -60.2 -180.0 -60.1 -179.6 -54.65 -183.15 -54.1 -183.4 Q-55.05 -184.5 -55.45 -185.45 -54.5 -185.15 -53.45 -183.8 L-49.25 -185.7 -50.2 -188.0 -50.2 -188.95 -48.7 -186.5 -48.3 -186.1 -42.3 -188.3 -42.85 -190.85 -42.7 -191.0 Q-42.15 -190.45 -41.75 -188.8 L-41.75 -188.55 -39.05 -189.35 -39.3 -190.15 -39.3 -191.25 Q-38.5 -191.25 -38.35 -190.7 L-38.25 -189.5 -35.95 -190.15 Q-35.65 -188.15 -34.45 -186.1 -38.25 -186.0 -42.3 -184.35 L-43.95 -183.8 Q-51.8 -180.55 -51.65 -178.1 -53.45 -177.6 -54.8 -176.75 -58.05 -175.3 -60.9 -173.5 -63.35 -174.45 -64.95 -175.7 -63.35 -174.45 -60.9 -173.5 L-62.4 -172.55 -62.95 -172.15 Q-67.15 -169.3 -67.95 -168.1 L-69.45 -168.5 -70.8 -169.05 -72.0 -169.85 Q-75.3 -171.9 -76.35 -176.25 -76.75 -178.4 -76.65 -180.95 L-76.35 -184.5 M46.95 -160.25 L50.35 -163.65 46.95 -160.25 M54.85 -144.55 L51.3 -143.6 54.85 -144.55 M55.0 -129.65 L54.85 -130.05 54.85 -129.8 55.0 -129.65 M49.0 -104.2 Q50.9 -102.55 52.4 -99.7 L52.65 -99.2 Q53.9 -96.75 54.7 -93.5 53.9 -96.75 52.65 -99.2 L52.4 -99.7 Q50.9 -102.55 49.0 -104.2 M48.85 -100.55 Q51.6 -96.05 48.05 -96.45 46.0 -97.4 44.55 -98.5 42.9 -99.7 41.95 -101.05 42.9 -99.7 44.55 -98.5 46.0 -97.4 48.05 -96.45 51.6 -96.05 48.85 -100.55 M-45.15 -198.95 Q-45.45 -199.25 -45.45 -200.2 -45.45 -201.95 -44.9 -202.5 L-44.6 -202.1 -44.75 -198.95 -44.9 -198.95 -45.15 -198.85 -45.15 -198.95 M-38.8 -200.35 Q-39.05 -200.6 -38.9 -201.8 L-38.8 -204.0 Q-38.1 -204.25 -38.1 -203.7 L-38.25 -200.45 -38.25 -200.2 -38.35 -200.2 -38.8 -200.35 M-57.25 -180.15 L-54.65 -179.05 Q-53.45 -178.55 -51.65 -178.1 -53.45 -178.55 -54.65 -179.05 L-57.25 -180.15 M-36.75 -126.55 Q-39.6 -128.7 -42.85 -129.1 -39.6 -128.7 -36.75 -126.55 M-57.25 -114.2 L-57.25 -119.1 -57.25 -114.2 M-57.9 -101.2 L-57.8 -103.5 -57.9 -101.2 M-37.7 -119.1 Q-39.6 -120.05 -41.35 -120.55 -39.6 -120.05 -37.7 -119.1 M-44.35 -94.3 Q-46.4 -93.5 -48.8 -93.2 L-52.75 -92.95 -56.55 -93.2 -52.75 -92.95 -48.8 -93.2 Q-46.4 -93.5 -44.35 -94.3" fill="#aa7a28" fill-rule="evenodd" stroke="none"/>
      <path d="M29.9 -110.0 L29.45 -110.3 27.45 -108.8 27.05 -107.15 26.6 -107.45 26.5 -107.55 23.9 -108.25 24.05 -107.55 24.05 -107.3 24.05 -107.15 Q24.05 -105.0 23.25 -105.0 L22.7 -105.15 22.7 -105.25 Q22.7 -105.95 23.25 -106.35 L23.5 -107.3 23.35 -107.55 23.25 -108.25 22.55 -108.25 21.85 -108.5 20.9 -109.6 20.9 -109.75 20.8 -110.15 Q20.25 -111.1 20.25 -111.65 L18.6 -110.8 18.35 -110.7 17.8 -110.4 14.4 -110.4 10.05 -111.9 10.75 -111.25 10.05 -111.1 10.05 -110.4 10.05 -109.9 9.4 -108.8 9.1 -108.5 9.1 -108.4 8.85 -108.4 8.45 -108.5 8.05 -108.1 7.2 -108.1 6.55 -107.05 Q6.15 -106.1 5.85 -106.1 L5.45 -106.1 Q5.3 -106.9 6.0 -108.1 L6.4 -108.5 5.45 -108.5 4.9 -108.25 3.95 -107.45 Q3.7 -107.05 3.7 -105.8 L3.3 -105.7 Q2.85 -105.7 2.85 -106.1 L2.85 -106.5 3.15 -108.1 1.5 -107.15 1.5 -106.2 Q1.5 -105.55 2.35 -103.1 L2.2 -102.85 Q0.85 -103.25 0.85 -105.8 L0.85 -106.35 0.85 -107.45 -0.1 -106.65 -0.1 -107.3 -0.1 -108.0 -0.1 -108.5 0.05 -108.95 Q0.45 -111.25 2.85 -112.45 L3.55 -112.7 2.85 -112.7 2.85 -113.65 -2.4 -114.6 Q-5.8 -115.55 -7.45 -116.9 L-11.35 -120.7 -11.9 -121.4 Q-14.5 -123.55 -15.6 -123.55 -16.65 -123.55 -17.2 -122.35 -17.75 -121.0 -17.35 -119.9 L-17.75 -119.9 Q-19.8 -121.4 -21.8 -126.8 -23.05 -130.05 -23.85 -133.45 L-23.3 -136.3 Q-22.65 -138.85 -20.45 -143.3 L-19.65 -143.85 -19.1 -144.25 -18.3 -143.75 Q-17.2 -142.9 -16.95 -142.9 L-16.65 -143.3 -18.15 -144.55 -18.45 -144.7 Q-16.65 -145.75 -15.45 -146.05 L-15.3 -146.05 -11.9 -144.4 -11.65 -144.8 Q-11.65 -145.35 -13.55 -146.05 L-14.5 -146.3 -14.2 -146.3 -12.45 -146.55 Q-11.65 -145.6 -8.1 -145.6 L-7.7 -145.75 Q-7.85 -146.55 -9.9 -147.0 L-8.65 -147.25 -6.5 -147.5 Q-4.45 -147.95 -3.35 -148.35 L-3.65 -149.0 -4.85 -149.55 -6.2 -149.8 -3.75 -150.35 -8.65 -152.65 -6.1 -153.5 -5.0 -153.6 0.05 -153.75 1.1 -153.9 Q1.25 -153.75 1.4 -153.75 L3.4 -152.4 5.3 -151.3 5.85 -151.05 Q6.25 -151.05 6.15 -151.2 L5.3 -151.85 3.3 -153.2 2.35 -153.75 4.1 -153.6 4.5 -153.6 5.6 -153.5 7.1 -153.2 8.05 -152.55 10.35 -151.05 10.45 -151.05 10.6 -151.3 Q10.45 -152.0 8.85 -152.8 L10.05 -152.55 13.85 -151.3 16.45 -150.9 16.6 -150.9 17.55 -150.9 22.4 -152.25 23.65 -152.65 Q23.9 -152.65 24.05 -152.8 L23.25 -151.7 23.35 -151.3 23.5 -151.3 25.25 -152.95 25.4 -153.05 27.85 -153.5 Q26.5 -152.65 26.5 -152.1 L26.6 -151.85 26.75 -151.85 29.6 -153.6 32.7 -153.75 34.5 -153.75 38.55 -153.5 38.7 -154.0 42.5 -152.65 43.6 -152.1 44.55 -151.7 38.4 -149.55 40.45 -148.85 Q40.05 -148.6 39.65 -148.45 38.55 -147.8 38.3 -147.4 L38.3 -147.1 Q39.8 -147.25 41.55 -146.45 L41.7 -146.45 Q42.1 -146.15 42.65 -145.9 L42.9 -145.75 Q42.65 -145.75 42.65 -145.6 L42.1 -145.35 41.4 -144.7 41.15 -144.25 41.25 -144.15 41.4 -144.0 42.5 -144.55 43.45 -145.35 44.4 -144.55 44.1 -144.4 Q43.7 -144.0 43.85 -143.6 L44.25 -143.45 44.95 -144.25 47.25 -141.85 47.9 -142.35 48.6 -142.5 49.0 -141.15 49.15 -140.75 49.8 -137.5 50.75 -133.05 51.05 -129.5 47.25 -124.25 Q46.7 -124.25 46.0 -125.2 L45.2 -126.0 43.7 -123.3 Q42.75 -121.65 40.85 -119.6 38.95 -117.6 37.9 -116.9 L36.4 -115.85 36.65 -115.85 37.45 -115.85 38.15 -115.95 39.5 -115.0 39.65 -114.9 40.75 -113.65 41.25 -112.85 41.55 -111.1 41.55 -109.9 41.0 -109.35 39.35 -108.0 38.7 -107.55 Q38.55 -107.55 38.4 -107.7 L38.3 -107.7 Q38.0 -107.7 37.05 -108.25 L36.8 -107.85 36.0 -109.35 35.85 -109.35 34.9 -110.3 34.75 -110.4 34.9 -110.4 Q33.55 -111.75 32.7 -111.75 31.9 -111.75 31.25 -111.35 31.1 -111.35 31.1 -111.25 L30.85 -111.1 30.8 -111.05 Q30.15 -110.7 29.9 -110.0 M32.7 -147.65 L31.25 -148.2 Q31.1 -148.2 30.95 -148.35 23.9 -150.65 12.8 -150.65 8.85 -150.65 4.9 -149.7 L0.55 -148.35 -2.7 -146.85 Q-7.85 -143.85 -7.85 -139.25 -7.85 -137.9 -6.75 -136.7 L-6.75 -136.55 -5.95 -135.85 -5.8 -130.05 -5.4 -129.65 Q-5.4 -125.05 -2.4 -122.75 L-3.5 -122.6 Q-5.4 -122.2 -5.65 -121.8 L-5.65 -121.25 -5.4 -121.0 -5.15 -121.25 Q-4.6 -121.8 -2.95 -122.05 L-1.85 -122.35 Q-0.65 -121.65 0.85 -121.25 -1.75 -120.05 -1.75 -119.2 L-1.2 -119.2 Q-0.65 -119.2 0.7 -120.05 L1.9 -120.85 2.85 -120.7 3.7 -120.7 3.55 -120.55 2.2 -119.6 2.2 -119.35 2.6 -119.35 Q2.85 -119.35 4.1 -120.15 L4.65 -120.55 5.3 -120.55 6.15 -120.55 6.0 -120.45 6.15 -120.15 6.25 -120.15 Q6.8 -120.45 7.2 -120.55 13.75 -121.0 13.75 -124.1 L13.75 -124.25 13.85 -124.25 Q14.15 -124.5 15.2 -123.95 L17.55 -123.8 Q18.6 -123.95 17.4 -125.6 L15.2 -127.5 14.4 -128.0 Q14.0 -129.25 13.2 -130.3 14.4 -131.15 15.35 -131.25 L18.35 -131.4 20.65 -131.4 21.6 -131.4 22.95 -131.4 25.25 -130.85 Q24.3 -129.9 23.9 -128.85 23.1 -128.3 21.85 -127.2 20.65 -126.1 20.4 -124.9 19.95 -123.4 21.2 -124.1 22.4 -124.75 23.75 -124.75 L24.2 -123.7 24.85 -123.4 Q25.0 -122.2 25.95 -121.8 27.15 -121.25 29.75 -121.25 L30.15 -121.25 Q30.85 -120.3 33.25 -119.6 33.65 -119.6 33.55 -119.75 33.0 -120.3 31.1 -121.25 L31.8 -121.4 32.7 -121.5 33.65 -120.85 35.55 -120.55 Q36.1 -120.55 36.25 -120.85 35.85 -121.4 34.6 -121.8 L33.95 -121.95 Q34.5 -122.05 34.9 -122.35 L36.25 -122.2 Q36.95 -121.8 37.45 -121.8 L37.9 -122.05 Q37.6 -123.0 36.4 -123.15 L36.95 -123.4 37.05 -123.4 38.4 -123.3 38.7 -123.15 Q39.1 -123.15 39.1 -123.3 L38.55 -123.8 37.9 -123.95 37.6 -123.95 38.7 -125.3 Q40.2 -127.05 40.3 -129.1 L40.3 -129.5 40.3 -130.45 40.05 -131.4 39.65 -131.8 39.65 -134.8 40.05 -135.05 40.2 -135.2 Q41.0 -135.75 41.0 -137.9 L40.85 -139.95 Q39.65 -144.8 33.25 -147.4 33.0 -147.5 32.85 -147.65 L32.7 -147.65 M37.45 -149.3 L38.4 -149.55 37.45 -149.3 M40.2 -124.9 L40.05 -124.9 Q39.1 -125.3 38.7 -124.9 L38.4 -124.5 38.7 -124.25 Q39.35 -124.65 40.05 -124.25 L40.45 -124.1 Q41.4 -123.55 41.55 -123.55 41.8 -123.55 41.8 -123.7 L41.8 -123.8 Q41.4 -124.5 40.2 -124.9 M5.85 -110.4 L4.75 -110.4 1.4 -109.75 Q0.55 -109.35 0.05 -108.95 0.55 -109.35 1.4 -109.75 L4.75 -110.4 5.85 -110.4 M10.9 -115.7 Q7.1 -115.7 3.55 -112.7 7.1 -115.7 10.9 -115.7 M35.05 -115.95 L36.4 -115.85 35.05 -115.95 M27.45 -108.8 Q26.75 -111.75 24.6 -115.45 L24.05 -116.35 18.5 -116.65 24.05 -116.35 24.6 -115.45 Q26.75 -111.75 27.45 -108.8 M29.45 -110.3 L30.8 -111.05 29.45 -110.3 M36.65 -111.75 L34.9 -110.4 36.65 -111.75 M41.55 -111.1 L39.35 -111.35 41.55 -111.1 M-2.7 -149.55 L-3.75 -150.35 -2.7 -149.55" fill="url(#gradient8)" fill-rule="evenodd" stroke="none"/>
      <path d="M-21.4 -199.65 Q-17.5 -199.1 -13.55 -197.9 L-13.4 -197.9 -12.6 -196.95 -11.65 -197.5 -9.45 -197.2 Q-4.2 -196.25 -1.35 -194.25 L-0.5 -193.7 0.95 -192.05 Q3.3 -189.65 5.3 -186.5 L6.4 -184.35 Q7.5 -182.2 8.05 -179.6 L8.7 -175.15 4.65 -176.9 3.3 -175.4 0.7 -176.25 -1.6 -176.25 -4.3 -176.65 -3.9 -178.8 -5.65 -180.7 Q-4.85 -181.35 -4.7 -182.05 L-5.0 -182.2 -6.1 -181.25 -6.2 -181.1 -10.95 -184.35 -13.0 -185.45 -12.85 -186.0 -12.45 -188.15 -12.6 -188.4 -12.85 -188.4 Q-13.4 -187.85 -13.8 -185.85 -13.95 -185.85 -14.1 -186.0 L-18.0 -187.6 Q-17.5 -193.7 -12.6 -196.95 -17.5 -193.7 -18.0 -187.6 L-22.9 -189.25 Q-22.65 -189.65 -22.65 -190.05 L-22.75 -190.3 -22.9 -190.3 -23.7 -189.35 -27.4 -190.15 -27.4 -190.3 -26.7 -192.75 Q-26.7 -193.4 -27.5 -193.15 L-27.95 -191.4 -27.95 -190.3 -27.95 -190.15 -32.55 -190.6 -35.95 -190.15 -38.25 -189.5 -38.35 -190.7 Q-38.5 -191.25 -39.3 -191.25 L-39.3 -190.15 -39.05 -189.35 -41.75 -188.55 -41.75 -188.8 Q-42.15 -190.45 -42.7 -191.0 L-42.85 -190.85 -42.3 -188.3 -48.3 -186.1 -48.7 -186.5 -50.2 -188.95 -50.2 -188.0 -49.25 -185.7 -53.45 -183.8 Q-54.5 -185.15 -55.45 -185.45 -55.05 -184.5 -54.1 -183.4 L-54.65 -183.15 -60.1 -179.6 -60.2 -180.0 -61.6 -183.0 -61.7 -182.75 Q-61.45 -181.1 -60.75 -179.6 L-60.65 -179.35 -61.45 -178.55 -63.05 -179.75 -63.2 -179.5 -61.85 -178.25 -62.1 -178.0 Q-63.05 -177.45 -64.95 -175.7 -67.15 -177.15 -68.2 -178.95 -68.9 -179.9 -69.15 -180.95 -68.9 -179.9 -68.2 -178.95 -67.15 -177.15 -64.95 -175.7 L-67.0 -174.05 Q-69.6 -175.0 -71.6 -178.25 -74.05 -181.9 -74.35 -185.85 L-69.05 -189.1 -67.25 -190.05 -64.55 -191.4 -63.05 -192.2 -57.1 -195.3 Q-56.0 -195.7 -55.2 -196.15 L-54.65 -196.4 -51.4 -197.75 Q-48.4 -198.85 -45.15 -198.95 L-45.15 -198.85 -44.9 -198.95 -44.75 -198.95 -41.35 -198.85 Q-40.4 -199.8 -38.8 -200.35 L-38.35 -200.2 -38.25 -200.2 -38.25 -200.45 -38.1 -200.45 -32.95 -200.2 Q-27.4 -201.55 -25.2 -200.2 L-21.4 -199.65 Q-22.9 -198.45 -23.85 -196.8 -22.9 -198.45 -21.4 -199.65 M-89.25 -158.5 Q-98.2 -164.15 -94.95 -171.5 -94.7 -173.65 -90.9 -175.7 L-87.9 -177.85 -88.05 -174.75 -87.9 -172.05 Q-87.65 -169.6 -86.55 -167.4 -85.2 -164.3 -82.35 -162.0 L-83.55 -161.35 Q-84.35 -162.0 -85.2 -162.0 L-84.35 -160.8 -84.9 -160.5 -85.75 -161.45 -87.65 -163.75 Q-87.75 -163.65 -87.9 -163.65 L-87.9 -163.5 -85.6 -160.1 Q-87.65 -159.05 -89.25 -158.5 -94.15 -164.6 -93.75 -170.25 -94.15 -164.6 -89.25 -158.5 M-10.7 -185.3 L-10.95 -184.35 -10.7 -185.3 M5.3 -186.5 Q1.5 -186.0 -0.8 -183.95 -2.95 -182.05 -3.9 -178.8 -2.95 -182.05 -0.8 -183.95 1.5 -186.0 5.3 -186.5 M-69.7 -186.4 Q-69.6 -187.75 -69.05 -189.1 -69.6 -187.75 -69.7 -186.4 M-62.65 -191.4 Q-63.5 -188.4 -62.55 -185.85 -63.5 -188.4 -62.65 -191.4 M-44.5 -190.45 Q-45.15 -193.85 -41.35 -198.85 -45.15 -193.85 -44.5 -190.45 M-32.95 -200.2 Q-36.9 -195.2 -35.95 -190.15 -36.9 -195.2 -32.95 -200.2" fill="url(#gradient9)" fill-rule="evenodd" stroke="none"/>
      <path d="M-24.0 -131.95 L-24.25 -135.45 -24.25 -138.45 -23.3 -143.45 Q-20.75 -147.25 -18.15 -148.05 -15.6 -149.0 -13.4 -149.4 L-6.35 -149.8 -6.2 -149.8 -4.85 -149.55 -3.65 -149.0 -3.35 -148.35 Q-4.45 -147.95 -6.5 -147.5 L-8.65 -147.25 -9.9 -147.0 Q-7.85 -146.55 -7.7 -145.75 L-8.1 -145.6 Q-11.65 -145.6 -12.45 -146.55 L-14.2 -146.3 -14.5 -146.3 -13.55 -146.05 Q-11.65 -145.35 -11.65 -144.8 L-11.9 -144.4 -15.3 -146.05 -15.45 -146.05 Q-16.65 -145.75 -18.45 -144.7 L-18.15 -144.55 -16.65 -143.3 -16.95 -142.9 Q-17.2 -142.9 -18.3 -143.75 L-19.1 -144.25 -19.65 -143.85 -20.45 -143.3 Q-22.65 -138.85 -23.3 -136.3 L-23.85 -133.45 -24.0 -131.95 M-8.65 -152.65 L-11.1 -153.9 -5.95 -154.95 3.0 -155.35 5.3 -155.25 5.6 -155.25 9.1 -154.85 10.6 -154.55 Q14.8 -153.35 16.6 -152.1 17.8 -153.2 22.3 -154.4 24.05 -155.1 26.35 -155.65 L35.15 -154.95 38.7 -154.0 38.55 -153.5 34.5 -153.75 32.7 -153.75 29.6 -153.6 26.75 -151.85 26.6 -151.85 26.5 -152.1 Q26.5 -152.65 27.85 -153.5 L25.4 -153.05 25.25 -152.95 23.5 -151.3 23.35 -151.3 23.25 -151.7 24.05 -152.8 Q23.9 -152.65 23.65 -152.65 L22.4 -152.25 17.55 -150.9 16.6 -150.9 16.45 -150.9 13.85 -151.3 10.05 -152.55 8.85 -152.8 Q10.45 -152.0 10.6 -151.3 L10.45 -151.05 10.35 -151.05 8.05 -152.55 7.1 -153.2 5.6 -153.5 4.5 -153.6 4.1 -153.6 2.35 -153.75 3.3 -153.2 5.3 -151.85 6.15 -151.2 Q6.25 -151.05 5.85 -151.05 L5.3 -151.3 3.4 -152.4 1.4 -153.75 Q1.25 -153.75 1.1 -153.9 L0.05 -153.75 -5.0 -153.6 -6.1 -153.5 -8.65 -152.65 M40.45 -148.85 L41.0 -148.6 41.8 -148.2 42.9 -147.65 43.45 -147.25 Q46.7 -145.2 47.9 -142.35 L47.25 -141.85 44.95 -144.25 44.25 -143.45 43.85 -143.6 Q43.7 -144.0 44.1 -144.4 L44.4 -144.55 43.45 -145.35 42.5 -144.55 41.4 -144.0 41.25 -144.15 41.15 -144.25 41.4 -144.7 42.1 -145.35 42.65 -145.6 Q42.65 -145.75 42.9 -145.75 L42.65 -145.9 Q42.1 -146.15 41.7 -146.45 L41.55 -146.45 Q39.8 -147.25 38.3 -147.1 L38.3 -147.4 Q38.55 -147.8 39.65 -148.45 40.05 -148.6 40.45 -148.85 M48.45 -142.8 L49.8 -144.95 51.3 -143.6 51.3 -143.2 50.25 -142.35 Q51.3 -141.15 51.2 -139.4 L51.05 -139.25 50.75 -139.25 50.25 -140.6 49.8 -141.85 49.8 -142.1 49.15 -141.3 49.0 -141.15 48.6 -142.5 48.45 -142.8 M-35.0 -146.3 L-34.45 -145.5 -32.55 -143.2 -32.65 -141.15 -33.35 -141.55 Q-33.35 -138.45 -34.15 -137.75 L-34.45 -137.75 -34.45 -138.05 -33.6 -141.7 -35.25 -142.65 -35.1 -142.9 -35.0 -144.95 -35.0 -145.2 -35.0 -146.3 M40.3 -129.1 Q40.2 -127.05 38.7 -125.3 L37.6 -123.95 37.9 -123.95 38.55 -123.8 39.1 -123.3 Q39.1 -123.15 38.7 -123.15 L38.4 -123.3 37.05 -123.4 36.95 -123.4 36.4 -123.15 Q37.6 -123.0 37.9 -122.05 L37.45 -121.8 Q36.95 -121.8 36.25 -122.2 L34.9 -122.35 Q34.5 -122.05 33.95 -121.95 L34.6 -121.8 Q35.85 -121.4 36.25 -120.85 36.1 -120.55 35.55 -120.55 L33.65 -120.85 32.7 -121.5 31.8 -121.4 31.1 -121.25 Q33.0 -120.3 33.55 -119.75 33.65 -119.6 33.25 -119.6 30.85 -120.3 30.15 -121.25 L29.75 -121.25 Q27.15 -121.25 25.95 -121.8 25.0 -122.2 24.85 -123.4 L31.25 -123.0 Q33.55 -123.4 35.7 -124.75 L39.8 -129.25 40.3 -129.1 M25.25 -130.85 L22.95 -131.4 21.6 -131.4 20.65 -131.4 18.35 -131.4 15.35 -131.25 Q14.4 -131.15 13.2 -130.3 L11.4 -132.1 Q16.05 -133.85 21.45 -132.9 L21.85 -132.9 25.55 -131.95 25.95 -131.4 25.25 -130.85 M13.75 -124.1 Q13.75 -121.0 7.2 -120.55 6.8 -120.45 6.25 -120.15 L6.15 -120.15 6.0 -120.45 6.15 -120.55 5.3 -120.55 4.65 -120.55 4.1 -120.15 Q2.85 -119.35 2.6 -119.35 L2.2 -119.35 2.2 -119.6 3.55 -120.55 3.7 -120.7 2.85 -120.7 1.9 -120.85 0.7 -120.05 Q-0.65 -119.2 -1.2 -119.2 L-1.75 -119.2 Q-1.75 -120.05 0.85 -121.25 -0.65 -121.65 -1.85 -122.35 L-2.95 -122.05 Q-4.6 -121.8 -5.15 -121.25 L-5.4 -121.0 -5.65 -121.25 -5.65 -121.8 Q-5.4 -122.2 -3.5 -122.6 L-2.4 -122.75 Q-5.4 -125.05 -5.4 -129.65 L-0.65 -124.25 Q1.8 -123.3 4.1 -123.0 9.25 -122.2 13.75 -124.1 M-26.7 -137.25 Q-26.85 -136.7 -27.25 -136.7 L-27.4 -136.7 Q-27.4 -135.05 -27.95 -134.8 L-28.2 -134.8 -28.2 -135.05 -28.05 -136.4 -27.95 -136.7 -28.6 -136.95 -29.0 -132.9 -29.15 -132.9 -29.4 -134.25 -29.15 -137.25 -29.3 -137.35 -29.4 -136.7 -29.85 -134.25 -29.7 -131.8 Q-29.7 -130.2 -30.35 -129.65 -30.8 -129.9 -30.8 -131.0 L-30.35 -135.45 -29.85 -137.75 -30.9 -138.6 -30.65 -141.55 -27.65 -139.65 Q-27.1 -139.55 -26.7 -139.25 L-26.7 -137.25" fill="#e8ba47" fill-rule="evenodd" stroke="none"/>
      <path d="M35.85 -101.35 L35.3 -105.8 Q34.9 -107.05 33.25 -108.0 L32.85 -108.25 32.05 -108.8 31.5 -109.05 29.9 -110.0 Q30.15 -110.7 30.8 -111.05 L30.85 -111.1 31.1 -111.25 Q31.1 -111.35 31.25 -111.35 31.9 -111.75 32.7 -111.75 33.55 -111.75 34.9 -110.4 L34.75 -110.4 34.5 -110.0 Q33.8 -109.2 33.4 -108.25 L33.25 -108.0 33.4 -108.25 Q33.8 -109.2 34.5 -110.0 L34.75 -110.4 34.9 -110.3 35.85 -109.35 36.8 -107.85 37.6 -106.9 Q37.6 -103.5 36.95 -102.15 L36.65 -101.5 35.85 -101.35 M19.45 -95.0 Q19.0 -96.05 18.9 -97.3 L18.75 -98.9 19.3 -100.8 20.25 -104.2 17.8 -110.4 18.35 -110.7 18.6 -110.8 20.25 -111.65 Q20.25 -111.1 20.8 -110.15 L20.9 -109.75 20.9 -109.6 21.85 -108.5 21.85 -108.25 22.15 -107.7 22.7 -105.25 22.7 -105.15 22.95 -103.4 22.15 -101.5 22.0 -101.2 19.3 -100.8 22.0 -101.2 20.5 -97.55 19.45 -95.0 M14.4 -110.4 L8.45 -104.85 7.9 -102.55 6.4 -97.95 6.25 -97.8 6.25 -97.7 5.85 -101.2 6.25 -103.25 8.15 -106.9 9.1 -108.4 9.1 -108.5 9.4 -108.8 10.05 -109.9 10.05 -110.4 10.05 -111.1 10.75 -111.25 10.05 -111.9 14.4 -110.4 M2.85 -112.7 Q-5.8 -112.3 -12.2 -117.45 L-12.6 -117.85 -16.25 -114.9 Q-22.9 -118.4 -24.0 -131.95 L-23.85 -133.45 Q-23.05 -130.05 -21.8 -126.8 -19.8 -121.4 -17.75 -119.9 L-17.35 -119.9 Q-17.75 -121.0 -17.2 -122.35 -16.65 -123.55 -15.6 -123.55 -14.5 -123.55 -11.9 -121.4 L-11.35 -120.7 -7.45 -116.9 Q-5.8 -115.55 -2.4 -114.6 L2.85 -113.65 2.85 -112.7 M-32.95 -123.4 L-32.95 -123.0 -32.65 -120.3 Q-36.2 -123.4 -36.75 -126.55 L-36.35 -129.35 Q-35.8 -127.5 -34.7 -125.85 L-32.95 -123.4 M-5.95 -135.85 L-6.75 -136.55 -6.75 -136.7 Q-7.85 -137.9 -7.85 -139.25 -7.85 -143.85 -2.7 -146.85 L0.55 -148.35 4.9 -149.7 Q8.85 -150.65 12.8 -150.65 23.9 -150.65 30.95 -148.35 31.1 -148.2 31.25 -148.2 L32.7 -147.65 31.1 -147.95 26.35 -148.45 Q15.65 -149.55 5.7 -147.95 L4.5 -147.65 3.4 -147.5 Q3.3 -147.4 3.15 -147.4 -1.85 -145.6 -4.45 -142.8 L-5.95 -140.75 -6.1 -140.5 -5.95 -135.85 M33.25 -147.4 Q39.65 -144.8 40.85 -139.95 L41.0 -137.9 Q41.0 -135.75 40.2 -135.2 L40.05 -135.05 39.65 -134.8 39.65 -137.5 39.5 -138.2 Q38.55 -142.25 36.5 -144.8 35.15 -146.45 33.25 -147.4 M23.75 -124.75 Q22.4 -124.75 21.2 -124.1 19.95 -123.4 20.4 -124.9 20.65 -126.1 21.85 -127.2 23.1 -128.3 23.9 -128.85 23.1 -126.95 23.75 -124.75 M14.4 -128.0 L15.2 -127.5 17.4 -125.6 Q18.6 -123.95 17.55 -123.8 L15.2 -123.95 Q14.15 -124.5 13.85 -124.25 L14.25 -125.6 14.4 -128.0 M7.9 -102.55 L6.25 -103.25 7.9 -102.55 M38.15 -115.95 L37.45 -115.85 36.65 -115.85 36.4 -115.85 37.9 -116.9 Q38.95 -117.6 40.85 -119.6 42.75 -121.65 43.7 -123.3 L45.2 -126.0 46.0 -125.2 Q46.7 -124.25 47.25 -124.25 L51.05 -129.5 51.2 -126.65 51.05 -129.5 50.75 -133.05 52.25 -137.35 52.95 -132.1 52.25 -129.5 51.2 -126.65 Q49.8 -123.8 47.8 -121.8 L45.9 -124.25 Q44.1 -119.9 41.7 -117.75 L40.05 -116.65 39.5 -116.35 38.15 -115.95 M-31.2 -125.7 Q-29.95 -123.4 -28.05 -121.5 -26.15 -119.5 -24.65 -118.95 L-24.15 -117.2 Q-29.15 -117.6 -30.5 -119.75 L-30.5 -120.05 -31.2 -125.7" fill="#a0652a" fill-rule="evenodd" stroke="none"/>
      <path d="M39.65 -131.8 L40.05 -131.4 40.3 -130.45 40.3 -129.5 40.3 -129.1 39.8 -129.25 39.65 -131.8" fill="#fcc439" fill-rule="evenodd" stroke="none"/>
      <path d="M40.2 -124.9 Q41.4 -124.5 41.8 -123.8 L41.8 -123.7 Q41.8 -123.55 41.55 -123.55 41.4 -123.55 40.45 -124.1 L40.05 -124.25 Q39.35 -124.65 38.7 -124.25 L38.4 -124.5 38.7 -124.9 Q39.1 -125.3 40.05 -124.9 L40.2 -124.9" fill="#deac32" fill-rule="evenodd" stroke="none"/>
      <path d="M6.25 -97.7 Q3.95 -93.75 4.35 -89.7 L6.95 -85.25 Q6.25 -83.05 4.25 -84.55 3.7 -88.75 0.45 -92.15 0.3 -94.55 2.45 -97.15 L1.1 -101.05 Q-0.1 -103.8 -0.1 -106.65 L0.85 -107.45 0.85 -106.35 0.85 -105.8 Q0.85 -103.25 2.2 -102.85 L2.35 -103.1 Q1.5 -105.55 1.5 -106.2 L1.5 -107.15 3.15 -108.1 2.85 -106.5 2.85 -106.1 Q2.85 -105.7 3.3 -105.7 L3.7 -105.8 Q3.7 -107.05 3.95 -107.45 L4.9 -108.25 5.45 -108.5 6.4 -108.5 6.0 -108.1 Q5.3 -106.9 5.45 -106.1 L5.85 -106.1 Q6.15 -106.1 6.55 -107.05 L7.2 -108.1 8.05 -108.1 8.45 -108.5 8.85 -108.4 9.1 -108.4 8.15 -106.9 6.25 -103.25 5.85 -101.2 6.25 -97.7 M6.25 -103.25 L3.3 -104.2 6.25 -103.25" fill="url(#gradient10)" fill-rule="evenodd" stroke="none"/>
      <path d="M27.05 -107.15 L23.5 -92.0 23.25 -87.15 20.25 -85.35 21.45 -91.3 Q20.25 -92.95 19.45 -95.0 L20.5 -97.55 22.0 -101.2 22.15 -101.5 22.95 -103.4 22.7 -105.15 23.25 -105.0 Q24.05 -105.0 24.05 -107.15 L24.05 -107.3 24.05 -107.55 23.9 -108.25 26.5 -107.55 26.6 -107.45 27.05 -107.15 M21.85 -108.5 L22.55 -108.25 23.25 -108.25 23.35 -107.55 23.5 -107.3 23.25 -106.35 Q22.7 -105.95 22.7 -105.25 L22.15 -107.7 21.85 -108.25 21.85 -108.5" fill="url(#gradient11)" fill-rule="evenodd" stroke="none"/>
      <path d="M39.5 -98.25 L39.35 -94.85 Q38.15 -91.75 40.05 -86.45 37.05 -87.4 36.4 -90.1 L35.85 -99.3 36.65 -101.5 36.95 -102.15 Q37.6 -103.5 37.6 -106.9 L36.8 -107.85 35.85 -109.35 36.0 -109.35 36.8 -107.85 37.05 -108.25 Q38.0 -107.7 38.3 -107.7 L38.4 -107.7 Q38.55 -107.55 38.7 -107.55 L39.35 -108.0 41.0 -109.35 41.55 -109.9 41.55 -109.35 Q41.4 -108.1 40.85 -107.3 L38.85 -105.95 Q37.45 -104.75 38.4 -101.75 L38.4 -101.6 39.5 -98.25" fill="url(#gradient12)" fill-rule="evenodd" stroke="none"/>
      <path d="M-32.65 -141.15 L-33.1 -136.8 Q-33.5 -130.3 -32.95 -123.4 L-34.7 -125.85 Q-35.8 -127.5 -36.35 -129.35 -35.8 -134.5 -35.4 -139.8 L-35.25 -142.5 -35.25 -142.65 -33.6 -141.7 -34.45 -138.05 -34.45 -137.75 -34.15 -137.75 Q-33.35 -138.45 -33.35 -141.55 L-32.65 -141.15 M49.0 -141.15 L49.15 -141.3 49.8 -142.1 49.8 -141.85 50.25 -140.6 50.75 -139.25 51.05 -139.25 51.2 -139.4 Q51.3 -141.15 50.25 -142.35 L51.3 -143.2 52.25 -137.35 50.75 -133.05 49.8 -137.5 49.15 -140.75 49.0 -141.15 M-30.9 -138.6 L-29.85 -137.75 -30.35 -135.45 -30.8 -131.0 Q-30.8 -129.9 -30.35 -129.65 -29.7 -130.2 -29.7 -131.8 L-29.85 -134.25 -29.4 -136.7 -29.3 -137.35 -29.15 -137.25 -29.4 -134.25 -29.15 -132.9 -29.0 -132.9 -28.6 -136.95 -27.95 -136.7 -28.05 -136.4 -28.2 -135.05 -28.2 -134.8 -27.95 -134.8 Q-27.4 -135.05 -27.4 -136.7 L-27.25 -136.7 Q-26.85 -136.7 -26.7 -137.25 L-26.7 -135.45 Q-26.7 -126.55 -24.65 -118.95 -26.15 -119.5 -28.05 -121.5 -29.95 -123.4 -31.2 -125.7 -31.45 -131.0 -31.2 -136.15 L-30.9 -138.6" fill="#bf7a14" fill-rule="evenodd" stroke="none"/>
      <path d="M62.15 -122.75 Q63.95 -122.05 65.0 -121.0 L63.65 -117.3 63.55 -117.45 Q62.7 -118.25 61.75 -118.15 L61.75 -117.75 63.4 -116.65 62.45 -114.6 62.3 -114.6 Q61.1 -115.45 60.55 -115.3 L60.55 -114.9 60.95 -114.6 62.15 -114.05 60.7 -112.7 60.15 -112.7 60.15 -112.3 58.9 -111.9 59.2 -112.7 59.85 -114.6 Q60.4 -115.0 60.4 -115.95 L60.4 -116.25 Q61.9 -120.7 62.05 -122.85 L62.15 -122.75 M-87.9 -177.85 L-86.4 -179.75 Q-83.4 -183.4 -76.35 -186.0 L-76.35 -184.5 Q-77.45 -185.85 -78.15 -182.75 -78.55 -181.25 -78.4 -179.5 L-82.75 -176.25 -83.4 -178.65 -83.15 -180.7 -83.4 -181.1 -83.95 -179.9 -84.1 -178.65 Q-83.85 -176.25 -83.3 -175.8 L-87.35 -172.55 -87.9 -172.05 -88.05 -174.75 -87.9 -177.85 M48.75 -112.45 L48.75 -114.05 49.55 -116.65 Q50.75 -121.0 51.2 -125.05 L57.4 -124.1 57.85 -124.1 Q57.15 -120.45 55.1 -115.15 L53.9 -112.2 52.0 -112.6 48.75 -112.45 M54.55 -118.15 L53.2 -118.55 Q52.0 -118.8 52.0 -118.25 52.0 -117.85 52.15 -117.85 L54.3 -117.45 55.25 -117.2 Q55.5 -117.2 55.5 -117.75 L54.55 -118.15 M-77.85 -174.85 L-77.6 -173.8 Q-76.1 -170.55 -73.5 -168.5 L-72.85 -168.1 -71.05 -167.4 -70.4 -167.15 -71.5 -166.05 -73.1 -164.7 Q-74.45 -165.0 -76.1 -166.5 L-76.75 -167.0 Q-78.8 -169.05 -79.75 -169.05 L-79.75 -168.8 -76.9 -165.8 Q-75.15 -164.45 -73.9 -164.05 -75.55 -163.25 -77.45 -163.25 L-79.75 -163.75 Q-81.95 -164.85 -84.35 -167.85 L-85.05 -168.65 -83.4 -169.85 Q-82.9 -169.3 -81.4 -169.3 -80.15 -169.3 -80.15 -170.55 L-80.55 -171.6 -80.85 -172.05 -80.3 -172.7 -80.05 -172.15 -79.75 -172.45 -79.75 -173.1 -77.85 -174.85 M-80.45 -181.8 L-80.7 -182.45 Q-81.25 -181.9 -81.25 -180.0 -81.4 -178.4 -80.7 -178.4 L-80.45 -178.55 -80.7 -180.0 -80.45 -181.8 M-81.4 -171.6 L-81.1 -171.2 -80.7 -170.55 -80.85 -170.25 Q-81.1 -169.85 -81.8 -169.85 -82.6 -169.85 -83.0 -170.25 L-82.45 -170.8 Q-82.35 -170.65 -81.95 -170.65 L-81.4 -171.1 -81.8 -171.35 -81.4 -171.6 M-52.2 -115.7 L-52.35 -114.5 -52.5 -113.25 -54.25 -113.25 -56.15 -112.85 -56.0 -112.6 -54.1 -112.45 -52.6 -112.45 Q-52.6 -111.65 -52.75 -110.8 L-53.7 -110.8 Q-56.15 -110.95 -56.85 -110.4 L-56.85 -110.15 -56.15 -110.0 -53.55 -110.3 -52.75 -110.3 -52.75 -108.1 -54.1 -108.1 -56.55 -107.7 Q-56.55 -107.3 -56.15 -107.3 L-53.05 -107.55 -52.75 -107.55 -52.75 -104.45 -57.25 -103.65 -57.8 -103.5 -57.9 -103.65 Q-58.85 -107.15 -58.05 -112.05 L-57.25 -114.2 Q-55.05 -115.15 -52.9 -115.55 L-52.2 -115.7 M-46.4 -104.3 L-46.8 -105.8 -47.2 -107.7 -45.95 -107.7 Q-45.3 -108.1 -45.15 -108.5 L-45.15 -109.2 -45.3 -110.3 Q-45.7 -111.1 -46.8 -111.1 L-47.45 -111.1 -47.85 -110.8 -48.0 -110.15 Q-48.3 -109.35 -47.35 -109.2 L-47.05 -109.2 Q-46.5 -109.2 -46.5 -109.6 L-46.5 -109.9 -46.65 -109.9 -47.35 -109.75 -47.45 -109.75 -47.45 -110.55 -46.8 -110.55 -45.85 -109.9 -45.7 -109.2 Q-45.7 -108.5 -46.1 -108.25 L-47.45 -108.25 -48.4 -109.05 -48.4 -110.0 -48.3 -110.95 -47.45 -111.65 -46.5 -111.9 Q-46.25 -111.1 -45.85 -111.1 L-45.55 -111.25 -45.55 -111.65 Q-45.55 -112.85 -47.2 -112.2 L-47.45 -112.05 -47.35 -115.85 Q-44.2 -115.7 -41.2 -114.2 L-39.75 -113.8 Q-39.6 -113.0 -39.6 -111.65 -39.6 -110.4 -39.75 -109.45 L-41.1 -109.75 -43.65 -110.15 -43.65 -109.75 -40.0 -108.5 Q-41.1 -105.8 -44.05 -104.75 L-46.4 -104.3 M-85.85 -177.85 L-85.6 -176.35 -85.05 -175.3 Q-84.65 -175.4 -84.65 -175.8 L-84.8 -176.9 Q-84.9 -178.0 -85.75 -178.0 L-85.85 -177.85" fill="#999999" fill-rule="evenodd" stroke="none"/>
      <path d="M60.4 -116.25 Q60.15 -117.05 59.2 -117.2 L58.8 -117.2 Q57.85 -117.2 57.85 -116.35 L58.25 -116.25 Q58.65 -116.25 58.8 -116.5 58.65 -116.65 59.05 -116.65 59.85 -116.65 59.85 -115.95 60.0 -115.15 58.8 -115.15 L58.5 -115.15 Q57.95 -115.3 57.7 -115.55 57.3 -115.95 57.3 -116.5 L57.55 -117.45 Q58.1 -118.4 59.2 -118.4 L59.6 -118.15 59.85 -117.75 60.15 -118.15 59.85 -118.8 Q59.2 -119.75 58.1 -118.8 56.75 -117.6 56.75 -116.35 56.75 -115.85 57.15 -115.45 57.4 -114.9 58.25 -114.5 L59.05 -114.5 59.85 -114.6 59.2 -112.7 58.9 -111.9 58.25 -110.4 57.0 -111.1 55.95 -111.65 53.9 -112.2 55.1 -115.15 Q57.15 -120.45 57.85 -124.1 L61.5 -123.15 62.05 -122.85 Q61.9 -120.7 60.4 -116.25 M-78.4 -179.5 Q-78.4 -177.3 -77.85 -174.85 L-79.75 -173.1 Q-83.95 -175.15 -83.95 -171.5 L-83.85 -170.25 -83.4 -169.85 -85.05 -168.65 -86.55 -167.4 Q-87.65 -169.6 -87.9 -172.05 L-87.35 -172.55 -83.3 -175.8 -83.0 -175.7 -82.75 -175.7 -82.75 -176.25 -78.4 -179.5 M-81.4 -171.6 L-81.8 -171.35 -82.05 -171.6 -81.65 -172.05 -81.4 -171.6 M-82.45 -170.8 L-83.0 -170.25 -83.3 -171.5 Q-83.3 -173.4 -81.25 -173.4 -80.7 -173.4 -80.45 -173.0 L-80.3 -172.7 -80.85 -172.05 Q-81.25 -172.55 -81.8 -172.55 -82.75 -172.55 -82.75 -171.5 L-82.45 -170.8 M-52.2 -115.7 L-48.0 -115.95 -47.35 -115.85 -47.45 -112.05 Q-48.95 -111.25 -48.95 -109.9 L-48.8 -108.65 Q-48.4 -108.0 -47.2 -107.7 L-46.8 -105.8 -46.4 -104.3 -46.4 -104.05 -47.45 -104.2 -51.15 -104.45 -52.75 -104.45 -52.75 -107.55 -52.6 -107.55 Q-52.5 -107.55 -52.5 -107.85 L-52.75 -108.1 -52.75 -110.3 -52.1 -110.3 -50.05 -110.4 -50.05 -110.8 -50.85 -110.95 -52.2 -110.7 -52.75 -110.8 Q-52.6 -111.65 -52.6 -112.45 L-52.5 -112.6 -52.35 -112.6 -52.1 -112.6 -52.35 -113.25 -52.5 -113.25 -52.35 -114.5 -52.2 -115.7" fill="#c4c4c4" fill-rule="evenodd" stroke="none"/>
      <path d="M59.85 -114.6 L59.05 -114.5 58.25 -114.5 Q57.4 -114.9 57.15 -115.45 56.75 -115.85 56.75 -116.35 56.75 -117.6 58.1 -118.8 59.2 -119.75 59.85 -118.8 L60.15 -118.15 59.85 -117.75 59.6 -118.15 59.2 -118.4 Q58.1 -118.4 57.55 -117.45 L57.3 -116.5 Q57.3 -115.95 57.7 -115.55 57.95 -115.3 58.5 -115.15 L58.8 -115.15 Q60.0 -115.15 59.85 -115.95 59.85 -116.65 59.05 -116.65 58.65 -116.65 58.8 -116.5 58.65 -116.25 58.25 -116.25 L57.85 -116.35 Q57.85 -117.2 58.8 -117.2 L59.2 -117.2 Q60.15 -117.05 60.4 -116.25 L60.4 -115.95 Q60.4 -115.0 59.85 -114.6 M54.55 -118.15 L55.5 -117.75 Q55.5 -117.2 55.25 -117.2 L54.3 -117.45 52.15 -117.85 Q52.0 -117.85 52.0 -118.25 52.0 -118.8 53.2 -118.55 L54.55 -118.15 M62.15 -114.05 L60.95 -114.6 60.55 -114.9 60.55 -115.3 Q61.1 -115.45 62.3 -114.6 L62.45 -114.6 Q63.65 -113.95 63.55 -113.4 L63.25 -113.4 62.15 -114.05 M63.4 -116.65 L61.75 -117.75 61.75 -118.15 Q62.7 -118.25 63.55 -117.45 L63.65 -117.3 Q64.35 -116.9 64.35 -116.35 L64.05 -116.25 63.4 -116.65 M60.15 -112.3 L60.15 -112.7 60.7 -112.7 61.9 -112.2 Q62.6 -111.75 62.45 -111.1 L62.45 -110.95 Q62.45 -110.8 62.15 -110.8 L60.7 -112.2 60.15 -112.3 M-80.45 -181.8 L-80.7 -180.0 -80.45 -178.55 -80.7 -178.4 Q-81.4 -178.4 -81.25 -180.0 -81.25 -181.9 -80.7 -182.45 L-80.45 -181.8 M-80.85 -172.05 L-80.55 -171.6 -80.15 -170.55 Q-80.15 -169.3 -81.4 -169.3 -82.9 -169.3 -83.4 -169.85 L-83.85 -170.25 -83.95 -171.5 Q-83.95 -175.15 -79.75 -173.1 L-79.75 -172.45 -80.05 -172.15 -80.3 -172.7 -80.45 -173.0 Q-80.7 -173.4 -81.25 -173.4 -83.3 -173.4 -83.3 -171.5 L-83.0 -170.25 Q-82.6 -169.85 -81.8 -169.85 -81.1 -169.85 -80.85 -170.25 L-80.7 -170.55 -81.1 -171.2 -81.4 -171.6 -81.65 -172.05 -82.05 -171.6 -81.8 -171.35 -81.4 -171.1 -81.95 -170.65 Q-82.35 -170.65 -82.45 -170.8 L-82.75 -171.5 Q-82.75 -172.55 -81.8 -172.55 -81.25 -172.55 -80.85 -172.05 M-73.9 -164.05 Q-75.15 -164.45 -76.9 -165.8 L-79.75 -168.8 -79.75 -169.05 Q-78.8 -169.05 -76.75 -167.0 L-76.1 -166.5 Q-74.45 -165.0 -73.1 -164.7 L-72.85 -164.6 -72.85 -164.05 -73.25 -163.9 -73.9 -164.05 M-52.5 -113.25 L-52.35 -113.25 -52.1 -112.6 -52.35 -112.6 -52.5 -112.6 -52.6 -112.45 -54.1 -112.45 -56.0 -112.6 -56.15 -112.85 -54.25 -113.25 -52.5 -113.25 M-52.75 -110.8 L-52.2 -110.7 -50.85 -110.95 -50.05 -110.8 -50.05 -110.4 -52.1 -110.3 -52.75 -110.3 -53.55 -110.3 -56.15 -110.0 -56.85 -110.15 -56.85 -110.4 Q-56.15 -110.95 -53.7 -110.8 L-52.75 -110.8 M-52.75 -108.1 L-52.5 -107.85 Q-52.5 -107.55 -52.6 -107.55 L-52.75 -107.55 -53.05 -107.55 -56.15 -107.3 Q-56.55 -107.3 -56.55 -107.7 L-54.1 -108.1 -52.75 -108.1 M-47.2 -107.7 Q-48.4 -108.0 -48.8 -108.65 L-48.95 -109.9 Q-48.95 -111.25 -47.45 -112.05 L-47.2 -112.2 Q-45.55 -112.85 -45.55 -111.65 L-45.55 -111.25 -45.85 -111.1 Q-46.25 -111.1 -46.5 -111.9 L-47.45 -111.65 -48.3 -110.95 -48.4 -110.0 -48.4 -109.05 -47.45 -108.25 -46.1 -108.25 Q-45.7 -108.5 -45.7 -109.2 L-45.85 -109.9 -46.8 -110.55 -47.45 -110.55 -47.45 -109.75 -47.35 -109.75 -46.65 -109.9 -46.5 -109.9 -46.5 -109.6 Q-46.5 -109.2 -47.05 -109.2 L-47.35 -109.2 Q-48.3 -109.35 -48.0 -110.15 L-47.85 -110.8 -47.45 -111.1 -46.8 -111.1 Q-45.7 -111.1 -45.3 -110.3 L-45.15 -109.2 -45.15 -108.5 Q-45.3 -108.1 -45.95 -107.7 L-47.2 -107.7 M-40.0 -108.5 L-43.65 -109.75 -43.65 -110.15 -41.1 -109.75 -39.75 -109.45 Q-39.05 -109.2 -39.05 -108.95 -39.05 -108.4 -39.45 -108.4 L-40.0 -108.5 M-83.3 -175.8 Q-83.85 -176.25 -84.1 -178.65 L-83.95 -179.9 -83.4 -181.1 -83.15 -180.7 -83.4 -178.65 -82.75 -176.25 -82.75 -175.7 -83.0 -175.7 -83.3 -175.8 M-85.85 -177.85 L-85.75 -178.0 Q-84.9 -178.0 -84.8 -176.9 L-84.65 -175.8 Q-84.65 -175.4 -85.05 -175.3 L-85.6 -176.35 -85.85 -177.85" fill="#666666" fill-rule="evenodd" stroke="none"/>
      <path d="M65.0 -121.0 Q65.95 -119.9 66.1 -118.55 66.35 -115.7 65.3 -114.05 64.5 -109.9 62.3 -105.95 L60.15 -109.35 59.85 -109.45 58.25 -110.4 58.9 -111.9 60.15 -112.3 60.7 -112.2 62.15 -110.8 Q62.45 -110.8 62.45 -110.95 L62.45 -111.1 Q62.6 -111.75 61.9 -112.2 L60.7 -112.7 62.15 -114.05 63.25 -113.4 63.55 -113.4 Q63.65 -113.95 62.45 -114.6 L63.4 -116.65 64.05 -116.25 64.35 -116.35 Q64.35 -116.9 63.65 -117.3 L65.0 -121.0 M-38.65 -113.55 L-37.7 -110.95 Q-37.15 -102.3 -39.75 -101.9 L-40.7 -102.3 Q-43.65 -103.5 -46.4 -104.05 L-46.4 -104.3 -44.05 -104.75 Q-41.1 -105.8 -40.0 -108.5 L-39.45 -108.4 Q-39.05 -108.4 -39.05 -108.95 -39.05 -109.2 -39.75 -109.45 -39.6 -110.4 -39.6 -111.65 -39.6 -113.0 -39.75 -113.8 L-38.65 -113.55 M-70.4 -167.15 Q-67.8 -166.6 -67.95 -168.1 -67.0 -168.5 -66.75 -168.8 -68.65 -165.4 -72.15 -163.1 -72.95 -162.55 -73.65 -162.15 -78.15 -159.55 -77.7 -159.3 -80.3 -160.5 -82.35 -162.0 -85.2 -164.3 -86.55 -167.4 L-85.05 -168.65 -84.35 -167.85 Q-81.95 -164.85 -79.75 -163.75 L-77.45 -163.25 Q-75.55 -163.25 -73.9 -164.05 L-73.25 -163.9 -72.85 -164.05 -72.85 -164.6 -73.1 -164.7 -71.5 -166.05 -70.4 -167.15" fill="#6d6d6d" fill-rule="evenodd" stroke="none"/>
      <path d="M-21.95 -201.4 L-21.4 -199.65 -25.2 -200.2 -21.95 -201.4 M-0.5 -193.7 L-1.35 -194.25 -0.8 -194.5 -0.5 -193.7" fill="url(#gradient13)" fill-rule="evenodd" stroke="none"/>
      <path d="M-11.65 -197.5 L-12.6 -196.95 -13.4 -197.9 -11.65 -197.5" fill="url(#gradient14)" fill-rule="evenodd" stroke="none"/>
      <path d="M-12.3 -177.3 L-22.75 -175.95 -25.2 -176.5 -28.9 -176.75 -29.0 -176.65 -29.0 -176.75 -31.6 -176.5 -32.0 -179.75 Q-30.9 -184.6 -27.4 -185.3 -30.9 -184.6 -32.0 -179.75 L-31.6 -176.5 Q-35.0 -175.95 -37.95 -174.05 -40.55 -172.45 -41.75 -170.15 -46.9 -176.75 -43.95 -183.8 -46.9 -176.75 -41.75 -170.15 -43.4 -167.3 -43.4 -163.5 L-43.4 -162.55 Q-43.1 -159.7 -41.2 -154.85 L-42.3 -154.55 -42.3 -154.3 -42.05 -154.15 -40.95 -154.15 -40.55 -152.8 -41.2 -152.65 -41.2 -152.25 -40.25 -152.1 Q-39.3 -149.3 -38.9 -147.4 L-38.8 -145.6 -39.05 -142.65 -39.2 -141.3 Q-43.8 -139.95 -46.4 -140.5 L-47.75 -140.9 -46.4 -140.5 Q-43.8 -139.95 -39.2 -141.3 L-39.75 -139.0 -39.85 -139.0 -40.7 -138.85 -40.4 -138.45 -39.85 -138.45 -40.95 -134.65 -41.1 -134.65 -43.0 -134.95 -43.0 -134.65 -43.0 -134.4 -41.2 -134.1 -42.7 -129.65 -42.85 -129.1 Q-45.55 -129.65 -48.4 -129.1 -45.55 -129.65 -42.85 -129.1 L-46.8 -119.1 -55.75 -119.75 -57.25 -119.1 -57.25 -125.7 -57.25 -128.0 -54.95 -137.25 -51.4 -150.35 -51.8 -152.55 -54.1 -165.1 -52.2 -166.35 Q-53.85 -168.25 -54.25 -170.95 -53.55 -174.05 -51.65 -178.1 -51.8 -180.55 -43.95 -183.8 L-42.3 -184.35 Q-38.25 -186.0 -34.45 -186.1 -30.8 -186.25 -27.4 -185.3 L-26.55 -185.05 -24.15 -184.1 -17.5 -181.1 -15.15 -180.15 -13.4 -178.25 -12.3 -177.3 M-56.7 -93.35 L-57.25 -93.75 -58.6 -94.85 -58.2 -99.2 -57.9 -101.2 -50.6 -101.5 -46.5 -101.6 -44.6 -101.35 -44.6 -100.25 Q-45.7 -98.35 -47.75 -96.45 L-49.25 -95.25 Q-51.55 -93.75 -53.55 -93.75 L-54.8 -94.15 -54.95 -94.3 Q-55.45 -93.9 -56.15 -93.65 L-56.7 -93.35 M-40.15 -148.75 L-41.2 -148.35 Q-45.95 -146.85 -51.4 -150.35 -45.95 -146.85 -41.2 -148.35 L-40.15 -148.75 M-47.35 -163.35 L-43.4 -162.55 -47.35 -163.35 M-51.55 -121.25 L-53.55 -120.55 -55.75 -119.75 -53.55 -120.55 -51.55 -121.25" fill="url(#gradient15)" fill-rule="evenodd" stroke="none"/>
      <path d="M-78.4 -179.5 Q-78.55 -181.25 -78.15 -182.75 -77.45 -185.85 -76.35 -184.5 L-76.65 -180.95 Q-76.75 -178.4 -76.35 -176.25 -75.3 -171.9 -72.0 -169.85 L-70.8 -169.05 -69.45 -168.5 -67.95 -168.1 Q-67.8 -166.6 -70.4 -167.15 L-71.05 -167.4 -72.85 -168.1 -73.5 -168.5 Q-76.1 -170.55 -77.6 -173.8 L-77.85 -174.85 Q-78.4 -177.3 -78.4 -179.5 M-52.75 -104.45 L-51.15 -104.45 -47.45 -104.2 -46.4 -104.05 Q-43.65 -103.5 -40.7 -102.3 L-46.25 -103.4 -51.0 -103.9 -51.65 -103.9 -52.6 -103.9 -57.25 -103.65 -52.75 -104.45" fill="#626262" fill-rule="evenodd" stroke="none"/>
      <path d="M-80.7 -123.7 Q-83.15 -123.8 -84.9 -125.2 -87.75 -127.35 -88.7 -132.75 L-85.3 -143.6 -84.1 -147.5 -83.3 -149.3 Q-81.1 -154.4 -77.85 -159.15 -75.15 -159.7 -72.7 -160.8 -71.05 -161.45 -69.6 -162.3 L-67.8 -160.4 -67.7 -160.5 -68.65 -162.3 -68.9 -162.7 Q-67.7 -163.5 -66.45 -164.45 -65.65 -164.85 -64.95 -165.4 -63.9 -163.65 -63.05 -163.65 L-62.65 -163.75 Q-62.95 -164.7 -64.3 -165.8 -60.75 -168.25 -59.55 -168.25 L-59.4 -168.25 -59.15 -168.25 Q-58.05 -168.25 -57.8 -167.85 -57.35 -167.4 -57.35 -166.05 -57.35 -164.15 -58.85 -161.35 L-62.55 -154.95 Q-62.65 -154.4 -63.05 -154.0 L-61.6 -153.2 -74.05 -132.5 -79.75 -123.0 -80.7 -123.7 M-63.05 -154.0 L-67.4 -156.6 -63.05 -154.0 M-76.5 -145.1 L-84.1 -147.5 -76.5 -145.1" fill="url(#gradient16)" fill-rule="evenodd" stroke="none"/>
      <path d="M-54.25 -170.95 Q-53.85 -168.25 -52.2 -166.35 L-54.1 -165.1 -54.25 -165.8 Q-54.8 -167.95 -54.25 -170.95" fill="url(#gradient17)" fill-rule="evenodd" stroke="none"/>
      <path d="M-60.65 -97.15 Q-65.65 -94.3 -71.2 -98.35 L-71.2 -102.15 -71.2 -110.7 -68.65 -119.35 -66.2 -128.0 -65.35 -130.05 -62.65 -139.65 -61.05 -142.5 Q-59.15 -145.5 -57.8 -145.5 -56.85 -145.5 -56.7 -144.4 -56.55 -143.75 -56.7 -141.45 L-56.85 -140.75 -57.35 -141.0 Q-58.75 -141.55 -59.25 -141.3 L-59.25 -140.9 Q-58.2 -140.75 -56.85 -139.95 L-56.95 -138.45 Q-56.95 -138.05 -57.1 -137.65 L-58.75 -138.05 -59.4 -137.9 -58.75 -138.05 -57.1 -137.65 -58.05 -126.0 -59.25 -126.25 -58.05 -126.0 -58.45 -121.65 -60.65 -97.15 M-63.05 -127.05 L-66.2 -128.0 -63.05 -127.05 M-61.05 -108.65 L-71.2 -110.7 -61.05 -108.65" fill="url(#gradient18)" fill-rule="evenodd" stroke="none"/>
      <path d="M-71.2 -102.15 Q-72.7 -101.05 -74.05 -100.55 -77.3 -99.7 -80.85 -102.0 L-82.45 -116.35 -80.7 -123.7 -80.05 -122.75 -79.75 -123.0 -74.05 -132.5 -72.3 -134.4 -72.0 -134.8 Q-71.05 -135.75 -69.7 -135.75 L-69.05 -135.6 Q-68.2 -134.8 -68.2 -130.45 L-68.2 -130.05 -70.8 -130.05 -68.2 -130.05 Q-68.2 -126.1 -69.7 -119.6 L-68.65 -119.35 -71.2 -110.7 -71.2 -102.15 M-75.3 -118.55 Q-78.95 -118.95 -80.05 -122.75 -78.95 -118.95 -75.3 -118.55 M-69.7 -119.6 L-71.9 -120.3 -69.7 -119.6" fill="url(#gradient19)" fill-rule="evenodd" stroke="none"/>
      <path d="M-80.7 -123.7 L-79.75 -123.0 -80.05 -122.75 -80.7 -123.7" fill="url(#gradient20)" fill-rule="evenodd" stroke="none"/>
      <path d="M9.25 -200.35 Q13.45 -206.85 22.95 -205.75 L20.1 -210.1 Q10.05 -214.4 -2.15 -213.85 L-15.7 -212.8 Q-22.9 -208.7 -22.1 -204.95 M9.25 -200.35 L6.8 -201.8 -1.45 -202.9 -9.75 -203.85 Q-15.3 -204.0 -21.95 -201.4 L-25.2 -200.2 -21.4 -199.65 Q-22.9 -198.45 -23.85 -196.8 M-21.4 -199.65 Q-17.5 -199.1 -13.55 -197.9 L-13.4 -197.9 -11.65 -197.5 -12.6 -196.95 Q-17.5 -193.7 -18.0 -187.6 -18.3 -184.6 -17.5 -181.1 L-24.15 -184.1 -26.55 -185.05 -27.4 -185.3 Q-30.9 -184.6 -32.0 -179.75 L-31.6 -176.5 -31.45 -174.85 M2.75 -195.45 L5.2 -196.15 M10.05 -199.9 L9.25 -200.35 M10.05 -199.9 Q12.9 -197.5 14.0 -194.9 L16.15 -196.0 Q19.85 -197.5 24.85 -196.0 M29.05 -195.3 L29.6 -195.6 Q30.7 -196.55 32.2 -196.8 35.05 -197.35 38.95 -195.7 44.25 -193.4 45.5 -189.65 L44.95 -187.2 Q48.05 -186.8 49.55 -185.55 L50.65 -183.95 Q53.5 -178.1 51.2 -174.35 L54.55 -171.5 58.25 -163.1 Q61.2 -161.35 61.5 -151.3 L61.65 -150.75 61.65 -150.65 62.6 -143.6 62.6 -142.65 Q63.0 -137.35 62.45 -135.2 L62.15 -134.25 62.45 -133.3 63.25 -130.05 62.45 -122.75 62.15 -122.75 Q63.95 -122.05 65.0 -121.0 65.95 -119.9 66.1 -118.55 66.35 -115.7 65.3 -114.05 64.5 -109.9 62.3 -105.95 62.7 -101.5 60.25 -98.35 57.4 -94.85 54.7 -93.5 53.1 -92.7 50.65 -92.95 47.9 -93.1 44.4 -94.7 L42.65 -95.8 Q42.5 -95.8 42.5 -95.95 L40.2 -97.55 39.5 -98.25 39.35 -94.85 Q38.15 -91.75 40.05 -86.45 37.05 -87.4 36.4 -90.1 L35.85 -99.3 35.85 -101.35 35.3 -105.8 Q34.9 -107.05 33.25 -108.0 L32.85 -108.25 32.05 -108.8 31.5 -109.05 29.9 -110.0 29.45 -110.3 27.45 -108.8 27.05 -107.15 23.5 -92.0 23.25 -87.15 20.25 -85.35 21.45 -91.3 Q20.25 -92.95 19.45 -95.0 19.0 -96.05 18.9 -97.3 L18.75 -98.9 19.3 -100.8 20.25 -104.2 17.8 -110.4 14.4 -110.4 8.45 -104.85 7.9 -102.55 6.4 -97.95 6.25 -97.8 6.25 -97.7 Q3.95 -93.75 4.35 -89.7 L6.95 -85.25 Q6.25 -83.05 4.25 -84.55 3.7 -88.75 0.45 -92.15 0.3 -94.55 2.45 -97.15 L1.1 -101.05 Q-0.1 -103.8 -0.1 -106.65 L-0.1 -107.3 -0.1 -108.0 -0.1 -108.5 0.05 -108.95 Q0.45 -111.25 2.85 -112.45 L3.55 -112.7 2.85 -112.7 Q-5.8 -112.3 -12.2 -117.45 L-12.6 -117.85 -16.25 -114.9 Q-22.9 -118.4 -24.0 -131.95 L-24.25 -135.45 -24.25 -138.45 -23.3 -143.45 Q-20.75 -147.25 -18.15 -148.05 -15.6 -149.0 -13.4 -149.4 L-6.35 -149.8 -6.2 -149.8 -3.75 -150.35 -8.65 -152.65 -11.1 -153.9 -5.95 -154.95 3.0 -155.35 5.3 -155.25 5.6 -155.25 9.1 -154.85 10.6 -154.55 Q14.8 -153.35 16.6 -152.1 17.8 -153.2 22.3 -154.4 24.05 -155.1 26.35 -155.65 L35.15 -154.95 38.7 -154.0 42.5 -152.65 43.6 -152.1 44.55 -151.7 38.4 -149.55 40.45 -148.85 M41.0 -148.6 L41.8 -148.2 42.9 -147.65 43.45 -147.25 Q46.7 -145.2 47.9 -142.35 L48.45 -142.8 49.8 -144.95 Q48.45 -148.85 47.5 -159.85 L46.95 -160.25 41.8 -169.2 34.9 -172.05 31.5 -172.85 M29.75 -172.05 L29.9 -173.65 27.15 -172.45 27.05 -174.05 26.2 -174.6 23.5 -173.9 23.1 -176.1 21.2 -175.95 19.0 -174.35 16.7 -176.75 15.9 -174.2 13.75 -176.9 12.9 -175.55 12.35 -174.45 8.05 -179.6 8.7 -175.15 4.65 -176.9 3.3 -175.4 0.7 -176.25 -1.6 -176.25 -4.3 -176.65 -8.95 -177.15 Q-10.15 -178.0 -11.35 -177.6 L-12.3 -177.3 -22.75 -175.95 -24.0 -175.8 -34.05 -169.6 Q-37.0 -167.85 -37.15 -162.4 L-37.0 -158.35 -36.75 -153.6 -34.85 -148.2 -35.0 -146.3 -34.45 -145.5 -32.55 -143.2 -32.65 -141.15 -33.1 -136.8 Q-33.5 -130.3 -32.95 -123.4 M-32.95 -123.0 L-32.65 -120.3 Q-36.2 -123.4 -36.75 -126.55 L-37.7 -119.1 -38.65 -113.55 -37.7 -110.95 Q-37.15 -102.3 -39.75 -101.9 L-40.8 -92.25 Q-44.35 -90.25 -47.85 -90.25 -52.2 -90.25 -56.55 -93.2 L-56.7 -93.35 -57.25 -93.75 -58.6 -94.85 -58.2 -99.2 Q-59.25 -97.95 -60.65 -97.15 -65.65 -94.3 -71.2 -98.35 L-71.2 -102.15 Q-72.7 -101.05 -74.05 -100.55 -77.3 -99.7 -80.85 -102.0 L-82.45 -116.35 -80.7 -123.7 Q-83.15 -123.8 -84.9 -125.2 -87.75 -127.35 -88.7 -132.75 L-85.3 -143.6 -84.1 -147.5 -83.3 -149.3 Q-81.1 -154.4 -77.85 -159.15 L-77.7 -159.3 -78.4 -159.05 M-78.8 -158.75 L-83.3 -156.6 Q-86.95 -155.65 -89.25 -158.5 -98.2 -164.15 -94.95 -171.5 -94.7 -173.65 -90.9 -175.7 L-87.9 -177.85 -86.4 -179.75 Q-83.4 -183.4 -76.35 -186.0 L-76.35 -184.5 -75.55 -184.9 -74.35 -185.85 -69.05 -189.1 Q-73.65 -191.0 -71.9 -198.05 L-64.95 -202.1 Q-56.55 -206.15 -45.7 -208.85 L-37.0 -211.05 -15.7 -212.8 M42.5 -179.6 L43.7 -180.0 44.0 -181.25 44.4 -183.65 43.05 -185.3 Q40.2 -188.4 35.55 -190.45 M42.5 -173.65 Q41.8 -175.55 40.05 -177.45 L35.15 -176.9 29.9 -173.65 M43.05 -178.1 Q46.15 -178.1 48.05 -177.3 L49.8 -176.25 51.2 -174.35 Q52.0 -171.75 52.15 -169.45 M42.5 -179.6 L35.15 -176.9 M44.95 -187.2 L44.4 -183.65 M50.25 -163.9 L50.35 -163.65 46.95 -160.25 M54.85 -144.55 Q56.05 -144.8 57.55 -145.5 60.4 -147.25 61.35 -150.75 L61.5 -151.3 M58.25 -163.1 Q59.6 -158.35 57.3 -155.5 M42.5 -173.65 Q43.05 -171.9 41.8 -169.2 M29.05 -195.3 L30.0 -193.95 30.15 -193.7 Q31.25 -191.1 31.25 -188.7 31.25 -186.4 30.3 -184.1 L23.1 -176.1 M22.95 -205.75 L29.05 -196.25 29.05 -195.3 M31.25 -188.7 L25.95 -189.75 M17.65 -186.9 Q16.85 -190.85 14.0 -194.9 M9.65 -186.0 Q13.45 -187.85 17.65 -186.9 18.05 -184.2 17.8 -181.5 L16.7 -176.75 M5.3 -186.5 Q3.3 -189.65 0.95 -192.05 L-0.5 -193.7 -1.35 -194.25 Q-4.2 -196.25 -9.45 -197.2 L-11.65 -197.5 M-10.95 -184.35 L-10.7 -185.3 M5.3 -186.5 L6.4 -184.35 Q7.5 -182.2 8.05 -179.6 M-5.95 -135.85 L-6.1 -140.5 -5.95 -140.75 -4.45 -142.8 Q-1.85 -145.6 3.15 -147.4 3.3 -147.4 3.4 -147.5 L4.5 -147.65 5.7 -147.95 Q15.65 -149.55 26.35 -148.45 L31.1 -147.95 32.7 -147.65 32.85 -147.65 Q33.0 -147.5 33.25 -147.4 35.15 -146.45 36.5 -144.8 38.55 -142.25 39.5 -138.2 L39.65 -137.5 39.65 -134.8 39.65 -131.8 39.8 -129.25 35.7 -124.75 Q33.55 -123.4 31.25 -123.0 L24.85 -123.4 24.2 -123.7 23.75 -124.75 Q23.1 -126.95 23.9 -128.85 24.3 -129.9 25.25 -130.85 L25.95 -131.4 M13.2 -130.3 Q14.0 -129.25 14.4 -128.0 L14.25 -125.6 13.85 -124.25 13.75 -124.25 13.75 -124.1 Q9.25 -122.2 4.1 -123.0 1.8 -123.3 -0.65 -124.25 L-5.4 -129.65 -5.8 -130.05 -5.95 -135.85 M38.4 -149.55 L37.45 -149.3 M48.6 -142.5 L48.45 -142.8 M25.55 -131.95 L21.85 -132.9 21.45 -132.9 Q16.05 -133.85 11.4 -132.1 L13.2 -130.3 M10.05 -111.9 L14.4 -110.4 M0.05 -108.95 Q0.55 -109.35 1.4 -109.75 L4.75 -110.4 5.85 -110.4 M6.25 -103.25 L7.9 -102.55 M3.3 -104.2 L6.25 -103.25 M17.8 -110.4 L18.35 -110.7 M18.6 -110.8 L20.25 -111.65 M22.55 -108.25 L23.25 -108.25 M23.9 -108.25 L26.5 -107.55 26.6 -107.45 27.05 -107.15 M3.55 -112.7 Q7.1 -115.7 10.9 -115.7 M36.4 -115.85 L36.65 -115.85 37.45 -115.85 38.15 -115.95 39.5 -116.35 40.05 -116.65 41.7 -117.75 Q44.1 -119.9 45.9 -124.25 L47.8 -121.8 Q49.8 -123.8 51.2 -126.65 L51.05 -129.5 50.75 -133.05 49.8 -137.5 49.15 -140.75 49.0 -141.15 48.6 -142.5 M36.4 -115.85 L35.05 -115.95 M38.15 -115.95 L39.5 -115.0 39.65 -114.9 40.75 -113.65 41.25 -112.85 41.55 -111.1 41.55 -109.9 41.55 -109.35 Q41.4 -108.1 40.85 -107.3 L48.75 -112.45 48.75 -114.05 49.55 -116.65 Q50.75 -121.0 51.2 -125.05 L52.0 -127.75 51.7 -127.75 52.25 -129.5 51.2 -126.65 M18.5 -116.65 L24.05 -116.35 24.6 -115.45 Q26.75 -111.75 27.45 -108.8 M22.0 -101.2 L22.15 -101.5 M34.75 -110.4 L34.5 -110.0 Q33.8 -109.2 33.4 -108.25 L33.25 -108.0 M34.75 -110.4 L34.9 -110.4 36.65 -111.75 M31.25 -111.35 Q31.1 -111.35 31.1 -111.25 L30.85 -111.1 30.8 -111.05 29.45 -110.3 M35.85 -101.35 L36.65 -101.5 M40.85 -107.3 L38.85 -105.95 Q37.45 -104.75 38.4 -101.75 L38.4 -101.6 39.5 -98.25 M19.3 -100.8 L22.0 -101.2 M51.3 -143.6 L54.85 -144.55 M51.3 -143.2 L51.3 -143.6 49.8 -144.95 M51.3 -143.2 L52.25 -137.35 52.95 -132.1 52.25 -129.5 M52.0 -127.75 L52.55 -127.9 53.35 -129.35 54.85 -129.25 55.65 -129.35 M52.0 -128.3 L52.0 -127.75 M57.85 -124.1 L57.4 -124.1 51.2 -125.05 M62.05 -122.85 L61.5 -123.15 57.85 -124.1 M53.9 -112.2 L55.95 -111.65 57.0 -111.1 58.25 -110.4 59.85 -109.45 60.15 -109.35 62.3 -105.95 M48.75 -112.45 L52.0 -112.6 53.9 -112.2 M49.0 -104.2 L48.05 -104.85 47.1 -105.55 Q40.45 -106.9 41.4 -102.15 L41.95 -101.05 Q42.9 -99.7 44.55 -98.5 46.0 -97.4 48.05 -96.45 51.6 -96.05 48.85 -100.55 M54.7 -93.5 Q53.9 -96.75 52.65 -99.2 L52.4 -99.7 Q50.9 -102.55 49.0 -104.2 M62.15 -122.75 L62.05 -122.85 M39.35 -111.35 L41.55 -111.1 M40.05 -177.45 L43.05 -178.1 M-44.9 -198.95 L-44.75 -198.95 -41.35 -198.85 Q-40.4 -199.8 -38.8 -200.35 M-38.25 -200.45 L-38.1 -200.45 -32.95 -200.2 Q-27.4 -201.55 -25.2 -200.2 M-0.8 -194.5 L-1.35 -194.25 M-0.8 -194.5 L2.75 -195.45 M-13.4 -178.25 L-15.15 -180.15 -17.5 -181.1 M-10.95 -184.35 Q-11.65 -181.8 -11.35 -177.6 -13.15 -179.35 -13.4 -178.25 L-12.3 -177.3 M-4.3 -176.65 L-3.9 -178.8 Q-2.95 -182.05 -0.8 -183.95 1.5 -186.0 5.3 -186.5 M-35.95 -190.15 Q-35.65 -188.15 -34.45 -186.1 -30.8 -186.25 -27.4 -185.3 M-64.95 -175.7 Q-63.35 -174.45 -60.9 -173.5 -58.05 -175.3 -54.8 -176.75 -53.45 -177.6 -51.65 -178.1 -53.45 -178.55 -54.65 -179.05 L-57.25 -180.15 M-3.75 -150.35 L-2.7 -149.55 M-45.15 -198.95 Q-48.4 -198.85 -51.4 -197.75 L-54.65 -196.4 -55.2 -196.15 Q-56.0 -195.7 -57.1 -195.3 L-63.05 -192.2 -64.55 -191.4 -67.25 -190.05 -69.05 -189.1 Q-69.6 -187.75 -69.7 -186.4 M-34.45 -186.1 Q-38.25 -186.0 -42.3 -184.35 L-43.95 -183.8 Q-46.9 -176.75 -41.75 -170.15 L-40.4 -168.35 M-43.95 -183.8 Q-51.8 -180.55 -51.65 -178.1 -53.55 -174.05 -54.25 -170.95 -53.85 -168.25 -52.2 -166.35 M-54.1 -165.1 L-51.8 -152.55 -51.4 -150.35 Q-45.95 -146.85 -41.2 -148.35 L-40.15 -148.75 M-62.55 -185.85 Q-63.5 -188.4 -62.65 -191.4 M-76.35 -184.5 Q-77.45 -185.85 -78.15 -182.75 -78.55 -181.25 -78.4 -179.5 -78.4 -177.3 -77.85 -174.85 L-77.6 -173.8 Q-76.1 -170.55 -73.5 -168.5 L-72.85 -168.1 -71.05 -167.4 -70.4 -167.15 Q-67.8 -166.6 -67.95 -168.1 L-69.45 -168.5 -70.8 -169.05 -72.0 -169.85 Q-75.3 -171.9 -76.35 -176.25 -76.75 -178.4 -76.65 -180.95 L-76.35 -184.5 M-64.95 -175.7 Q-67.15 -177.15 -68.2 -178.95 -68.9 -179.9 -69.15 -180.95 M-60.9 -173.5 L-62.4 -172.55 -62.95 -172.15 -59.4 -168.25 -59.15 -168.25 M-63.05 -154.0 L-61.6 -153.2 -60.5 -155.1 -54.1 -165.1 -54.25 -165.8 Q-54.8 -167.95 -54.25 -170.95 M-67.95 -168.1 Q-67.0 -168.5 -66.75 -168.8 -68.65 -165.4 -72.15 -163.1 -72.95 -162.55 -73.65 -162.15 -78.15 -159.55 -77.7 -159.3 -80.3 -160.5 -82.35 -162.0 -85.2 -164.3 -86.55 -167.4 -87.65 -169.6 -87.9 -172.05 L-88.05 -174.75 -87.9 -177.85 M-89.25 -158.5 Q-94.15 -164.6 -93.75 -170.25 M-62.95 -172.15 Q-67.15 -169.3 -67.95 -168.1 M-67.4 -156.6 L-63.05 -154.0 M-43.4 -162.55 L-47.35 -163.35 M-43.4 -162.55 L-37.15 -162.4 M-55.45 -152.95 L-51.8 -152.55 M-47.75 -140.9 L-46.4 -140.5 Q-43.8 -139.95 -39.2 -141.3 L-35.4 -142.5 -35.25 -142.5 -35.25 -142.65 -35.1 -142.9 -35.0 -144.95 -35.0 -145.2 -35.0 -146.3 M-57.1 -137.65 L-54.95 -137.25 -51.4 -150.35 M-57.1 -137.65 L-58.75 -138.05 -59.4 -137.9 M-57.25 -125.7 L-57.25 -128.0 -54.95 -137.25 M-59.25 -126.25 L-58.05 -126.0 -57.25 -125.7 -57.25 -119.1 -55.75 -119.75 -53.55 -120.55 -51.55 -121.25 M-42.85 -129.1 Q-45.55 -129.65 -48.4 -129.1 M-42.85 -129.1 Q-39.6 -128.7 -36.75 -126.55 L-36.35 -129.35 Q-35.8 -134.5 -35.4 -139.8 L-35.25 -142.5 M-68.2 -130.05 L-65.35 -130.05 -62.65 -139.65 -60.5 -155.1 M-66.2 -128.0 L-63.05 -127.05 M-68.65 -119.35 L-66.2 -128.0 -65.35 -130.05 M-68.2 -130.05 L-70.8 -130.05 M-69.7 -119.6 L-68.65 -119.35 -71.2 -110.7 -61.05 -108.65 M-80.7 -123.7 L-80.05 -122.75 -79.75 -123.0 -74.05 -132.5 -61.6 -153.2 M-80.05 -122.75 Q-78.95 -118.95 -75.3 -118.55 M-71.2 -110.7 L-71.2 -102.15 M-71.9 -120.3 L-69.7 -119.6 M-47.35 -115.85 L-48.0 -115.95 -52.2 -115.7 -52.9 -115.55 Q-55.05 -115.15 -57.25 -114.2 L-58.05 -112.05 Q-58.85 -107.15 -57.9 -103.65 L-57.8 -103.5 -57.25 -103.65 -52.75 -104.45 -51.15 -104.45 -47.45 -104.2 -46.4 -104.05 Q-43.65 -103.5 -40.7 -102.3 L-39.75 -101.9 M-47.35 -115.85 Q-44.2 -115.7 -41.2 -114.2 L-39.75 -113.8 -38.65 -113.55 M-57.25 -119.1 L-57.25 -114.2 M-57.9 -101.2 L-58.2 -99.2 M-57.8 -103.5 L-57.9 -101.2 M-57.25 -103.65 L-52.6 -103.9 -51.65 -103.9 -51.0 -103.9 -46.25 -103.4 -40.7 -102.3 M-26.7 -137.25 L-26.7 -139.25 Q-27.1 -139.55 -27.65 -139.65 L-30.65 -141.55 -30.9 -138.6 -31.2 -136.15 Q-31.45 -131.0 -31.2 -125.7 L-30.5 -120.05 -30.5 -119.75 Q-29.15 -117.6 -24.15 -117.2 L-24.65 -118.95 Q-26.7 -126.55 -26.7 -135.45 L-26.7 -137.25 M-41.35 -120.55 Q-39.6 -120.05 -37.7 -119.1 M-56.55 -93.2 L-52.75 -92.95 -48.8 -93.2 Q-46.4 -93.5 -44.35 -94.3 M-84.1 -147.5 L-76.5 -145.1 M-41.35 -198.85 Q-45.15 -193.85 -44.5 -190.45 M-45.7 -208.85 Q-51.55 -204.65 -51.4 -197.75 M-57.1 -195.3 Q-60.5 -196.65 -58.3 -201.15 M-35.95 -190.15 Q-36.9 -195.2 -32.95 -200.2 M-1.45 -202.9 Q-1.35 -207.35 1.9 -209.4" fill="none" stroke="#000000" stroke-linecap="round" stroke-linejoin="round" stroke-opacity="0.4" stroke-width="1.0"/>
    </g>
    <radialGradient cx="0" cy="0" gradientTransform="matrix(0.0707, 0.0, 0.0, 0.0706, 23.9, -181.65)" gradientUnits="userSpaceOnUse" id="gradient0" r="819.2" spreadMethod="pad">
      <stop offset="0.0" stop-color="#9f5900"/>
      <stop offset="1.0" stop-color="#fcc439"/>
    </radialGradient>
    <radialGradient cx="0" cy="0" gradientTransform="matrix(0.0479, 0.0, 0.0, 0.0478, 14.0, -177.15)" gradientUnits="userSpaceOnUse" id="gradient1" r="819.2" spreadMethod="pad">
      <stop offset="0.0" stop-color="#9f5900"/>
      <stop offset="1.0" stop-color="#e8ba47"/>
    </radialGradient>
    <radialGradient cx="0" cy="0" gradientTransform="matrix(0.0707, 0.0, 0.0, 0.0706, 23.9, -181.65)" gradientUnits="userSpaceOnUse" id="gradient2" r="819.2" spreadMethod="pad">
      <stop offset="0.0" stop-color="#9f5900"/>
      <stop offset="1.0" stop-color="#e8ba47"/>
    </radialGradient>
    <radialGradient cx="0" cy="0" gradientTransform="matrix(0.0338, 0.0, 0.0, 0.0337, 27.3, -174.45)" gradientUnits="userSpaceOnUse" id="gradient3" r="819.2" spreadMethod="pad">
      <stop offset="0.0" stop-color="#9f5900"/>
      <stop offset="1.0" stop-color="#e8ba47"/>
    </radialGradient>
    <radialGradient cx="0" cy="0" gradientTransform="matrix(0.0311, 0.0, 0.0, 0.031, 37.6, -175.8)" gradientUnits="userSpaceOnUse" id="gradient4" r="819.2" spreadMethod="pad">
      <stop offset="0.0" stop-color="#9f5900"/>
      <stop offset="1.0" stop-color="#e8ba47"/>
    </radialGradient>
    <radialGradient cx="0" cy="0" gradientTransform="matrix(0.0338, 0.0, 0.0, 0.0337, 27.3, -174.45)" gradientUnits="userSpaceOnUse" id="gradient5" r="819.2" spreadMethod="pad">
      <stop offset="0.0" stop-color="#9f5900"/>
      <stop offset="1.0" stop-color="#fcc439"/>
    </radialGradient>
    <radialGradient cx="0" cy="0" gradientTransform="matrix(0.0581, 0.0, 0.0, 0.0579, 31.8, -173.5)" gradientUnits="userSpaceOnUse" id="gradient6" r="819.2" spreadMethod="pad">
      <stop offset="0.0" stop-color="#9f5900"/>
      <stop offset="1.0" stop-color="#e8ba47"/>
    </radialGradient>
    <radialGradient cx="0" cy="0" gradientTransform="matrix(0.0311, 0.0, 0.0, 0.031, 37.6, -175.8)" gradientUnits="userSpaceOnUse" id="gradient7" r="819.2" spreadMethod="pad">
      <stop offset="0.0" stop-color="#9f5900"/>
      <stop offset="1.0" stop-color="#fcc439"/>
    </radialGradient>
    <radialGradient cx="0" cy="0" gradientTransform="matrix(-0.0048, -0.0898, 0.129, -0.0069, 14.4, -133.7)" gradientUnits="userSpaceOnUse" id="gradient8" r="819.2" spreadMethod="pad">
      <stop offset="0.00392156862745098" stop-color="#bf7a14"/>
      <stop offset="1.0" stop-color="#e8ba47"/>
    </radialGradient>
    <radialGradient cx="0" cy="0" gradientTransform="matrix(0.0653, 0.0, 0.0, 0.0651, -2.95, -176.35)" gradientUnits="userSpaceOnUse" id="gradient9" r="819.2" spreadMethod="pad">
      <stop offset="0.0" stop-color="#9f5900"/>
      <stop offset="1.0" stop-color="#e8ba47"/>
    </radialGradient>
    <radialGradient cx="0" cy="0" gradientTransform="matrix(0.028, 0.0, 0.0, 0.028, 8.05, -117.05)" gradientUnits="userSpaceOnUse" id="gradient10" r="819.2" spreadMethod="pad">
      <stop offset="0.0" stop-color="#9f5900"/>
      <stop offset="1.0" stop-color="#e8ba47"/>
    </radialGradient>
    <radialGradient cx="0" cy="0" gradientTransform="matrix(0.0236, 0.0, 0.0, 0.0236, 20.5, -114.05)" gradientUnits="userSpaceOnUse" id="gradient11" r="819.2" spreadMethod="pad">
      <stop offset="0.0" stop-color="#9f5900"/>
      <stop offset="1.0" stop-color="#e8ba47"/>
    </radialGradient>
    <radialGradient cx="0" cy="0" gradientTransform="matrix(0.0247, 0.0, 0.0, 0.0246, 36.0, -115.15)" gradientUnits="userSpaceOnUse" id="gradient12" r="819.2" spreadMethod="pad">
      <stop offset="0.0" stop-color="#9f5900"/>
      <stop offset="1.0" stop-color="#e8ba47"/>
    </radialGradient>
    <radialGradient cx="0" cy="0" gradientTransform="matrix(0.0591, 0.0, 0.0, 0.059, 14.0, -177.15)" gradientUnits="userSpaceOnUse" id="gradient13" r="819.2" spreadMethod="pad">
      <stop offset="0.0" stop-color="#9f5900"/>
      <stop offset="1.0" stop-color="#fcc439"/>
    </radialGradient>
    <radialGradient cx="0" cy="0" gradientTransform="matrix(0.0988, 0.0, 0.0, 0.0986, 5.45, -174.85)" gradientUnits="userSpaceOnUse" id="gradient14" r="819.2" spreadMethod="pad">
      <stop offset="0.0" stop-color="#9f5900"/>
      <stop offset="1.0" stop-color="#fcc439"/>
    </radialGradient>
    <radialGradient cx="0" cy="0" gradientTransform="matrix(0.0477, 0.0, 0.0, 0.0476, -19.5, -175.8)" gradientUnits="userSpaceOnUse" id="gradient15" r="819.2" spreadMethod="pad">
      <stop offset="0.0" stop-color="#9f5900"/>
      <stop offset="1.0" stop-color="#e8ba47"/>
    </radialGradient>
    <radialGradient cx="0" cy="0" gradientTransform="matrix(0.068, 0.0, 0.0, 0.0679, -43.1, -180.7)" gradientUnits="userSpaceOnUse" id="gradient16" r="819.2" spreadMethod="pad">
      <stop offset="0.0" stop-color="#9f5900"/>
      <stop offset="1.0" stop-color="#e8ba47"/>
    </radialGradient>
    <radialGradient cx="0" cy="0" gradientTransform="matrix(0.0696, 0.0, 0.0, 0.0695, -15.45, -180.3)" gradientUnits="userSpaceOnUse" id="gradient17" r="819.2" spreadMethod="pad">
      <stop offset="0.0" stop-color="#9f5900"/>
      <stop offset="1.0" stop-color="#fcc439"/>
    </radialGradient>
    <radialGradient cx="0" cy="0" gradientTransform="matrix(0.0778, 0.0, 0.0, 0.0777, -36.9, -182.05)" gradientUnits="userSpaceOnUse" id="gradient18" r="819.2" spreadMethod="pad">
      <stop offset="0.0" stop-color="#9f5900"/>
      <stop offset="1.0" stop-color="#e8ba47"/>
    </radialGradient>
    <radialGradient cx="0" cy="0" gradientTransform="matrix(0.0568, 0.0, 0.0, 0.0567, -59.15, -154.4)" gradientUnits="userSpaceOnUse" id="gradient19" r="819.2" spreadMethod="pad">
      <stop offset="0.0" stop-color="#9f5900"/>
      <stop offset="1.0" stop-color="#e8ba47"/>
    </radialGradient>
    <radialGradient cx="0" cy="0" gradientTransform="matrix(0.068, 0.0, 0.0, 0.0679, -43.1, -180.7)" gradientUnits="userSpaceOnUse" id="gradient20" r="819.2" spreadMethod="pad">
      <stop offset="0.0" stop-color="#9f5900"/>
      <stop offset="1.0" stop-color="#fcc439"/>
    </radialGradient>
  </defs>
</svg>
