<?xml version="1.0" encoding="UTF-8" standalone="no"?>
<svg xmlns:xlink="http://www.w3.org/1999/xlink" height="531.5px" width="460.6px" xmlns="http://www.w3.org/2000/svg">
  <g transform="matrix(1.0, 0.0, 0.0, 1.0, 193.65, 334.05)">
    <use height="103.7" transform="matrix(1.5869, 0.0, 0.0, 1.5869, -86.6164, -248.4913)" width="101.45" xlink:href="#shape0"/>
  </g>
  <defs>
    <g id="shape0" transform="matrix(1.0, 0.0, 0.0, 1.0, 49.95, 51.1)">
      <path d="M17.5 -14.85 L12.85 -18.05 15.25 -19.65 12.85 -18.05 9.3 -15.05 5.1 -19.0 13.7 -25.85 15.25 -19.65 17.5 -19.35 17.5 -14.85 17.5 -19.35 17.6 -23.55 22.5 -14.25 16.05 -12.25 17.5 -14.85" fill="#6cc9a0" fill-rule="evenodd" stroke="none"/>
      <path d="M12.85 -18.05 L17.5 -14.85 16.05 -12.25 9.3 -15.05 12.85 -18.05 M17.5 -19.35 L15.25 -19.65 13.7 -25.85 17.6 -23.55 17.5 -19.35 M5.1 -19.0 L9.3 -15.05 5.0 -13.85 3.15 -16.05 5.1 -19.0 M15.95 -0.45 L16.05 -12.25 22.5 -14.25 19.55 -1.45 15.95 -0.45" fill="#91ffcf" fill-rule="evenodd" stroke="none"/>
      <path d="M9.3 -15.05 L16.05 -12.25 15.95 -0.45 10.4 -4.7 9.3 -15.05 10.4 -4.7 9.4 -3.75 6.85 -11.7 5.0 -13.85 9.3 -15.05" fill="#469572" fill-rule="evenodd" stroke="none"/>
      <path d="M12.85 -18.05 L17.5 -14.85 17.5 -19.35 15.25 -19.65 12.85 -18.05 9.3 -15.05 16.05 -12.25 17.5 -14.85 M17.6 -23.55 L17.5 -19.35 M5.1 -19.0 L9.3 -15.05 10.4 -4.7 M15.95 -0.45 L16.05 -12.25 22.5 -14.25 M13.7 -25.85 L15.25 -19.65 M5.0 -13.85 L9.3 -15.05" fill="none" stroke="#ffffff" stroke-linecap="round" stroke-linejoin="round" stroke-opacity="0.3019608" stroke-width="0.4"/>
      <path d="M10.4 -4.7 L15.95 -0.45 19.55 -1.45 22.5 -14.25 17.6 -23.55 13.7 -25.85 5.1 -19.0 3.15 -16.05 5.0 -13.85 6.85 -11.7 9.4 -3.75 10.4 -4.7" fill="none" stroke="#ffffff" stroke-linecap="round" stroke-linejoin="round" stroke-opacity="0.4" stroke-width="3.0"/>
      <path d="M-10.25 -30.55 L-10.25 -30.6 -2.85 -31.05 0.7 -26.95 7.7 -18.8 9.4 -13.4 2.0 -17.0 0.7 -26.95 -7.7 -21.85 -7.9 -22.2 -10.25 -30.55 M-23.55 21.7 L-46.55 4.3 -38.15 1.1 -31.95 6.45 -38.15 1.1 -43.55 -8.1 -32.95 -9.1 -31.95 6.45 -23.55 21.7 M-30.85 -5.85 L-31.55 -19.8 -27.3 -14.75 -20.55 -6.7 -22.75 1.95 -30.6 0.15 -30.85 -5.85 M-25.25 -23.35 L-19.55 -30.1 -16.3 -20.5 -25.25 -23.35 M-12.35 -20.35 L-11.75 -22.95 -9.95 -21.15 -7.8 -21.85 -7.7 -21.85 -2.7 -16.35 -2.05 -10.0 -8.7 -8.85 -8.75 -8.85 -8.8 -8.9 -12.35 -20.35 M-9.95 -21.15 L-8.7 -8.85 -9.95 -21.15" fill="#6cc9a0" fill-rule="evenodd" stroke="none"/>
      <path d="M9.4 -13.4 L14.5 2.5 2.45 10.45 -4.85 1.8 -7.95 -4.25 -8.7 -8.55 -7.95 -4.25 -13.75 -5.45 -14.35 -15.25 -13.75 -5.45 -2.85 7.45 -10.5 10.85 -13.2 9.4 -23.55 21.7 -31.95 6.45 -27.95 1.6 -30.6 0.15 -22.75 1.95 -20.55 -6.7 -21.6 -11.1 -16.3 -20.5 -19.55 -30.1 -12.1 -28.55 -10.25 -30.55 -11.75 -22.95 -12.35 -20.35 -14.8 -19.55 -14.65 -25.1 -12.1 -28.55 -14.65 -25.1 -14.8 -19.55 -14.35 -15.25 -8.8 -8.9 -8.7 -8.55 -8.65 -8.4 -8.7 -8.85 -2.05 -10.0 2.0 -17.0 9.4 -13.4 M-45.6 0.6 L-42.95 -3.0 -43.55 -8.1 -38.15 1.1 -45.6 0.6 M-13.2 9.4 L-27.95 1.6 -13.2 9.4 M-2.05 -10.0 L-1.75 -3.3 -4.85 1.8 -1.75 -3.3 -2.05 -10.0" fill="#469572" fill-rule="evenodd" stroke="none"/>
      <path d="M2.45 10.45 L-2.2 8.2 -2.85 7.45 -13.75 -5.45 -7.95 -4.25 -4.85 1.8 2.45 10.45 M-46.55 4.3 L-45.6 0.6 -38.15 1.1 -46.55 4.3 M-32.95 -9.1 L-30.85 -5.85 -30.6 0.15 -27.95 1.6 -31.95 6.45 -32.95 -9.1 M-31.55 -19.8 L-25.25 -23.35 -16.3 -20.5 -21.6 -11.1 -20.55 -6.7 -27.3 -14.75 -31.55 -19.8 M-10.25 -30.55 L-7.9 -22.2 -7.7 -21.85 0.7 -26.95 2.0 -17.0 -2.05 -10.0 -2.7 -16.35 -7.7 -21.85 -7.8 -21.85 -9.95 -21.15 -11.75 -22.95 -10.25 -30.55 M-14.8 -19.55 L-12.35 -20.35 -8.8 -8.9 -14.35 -15.25 -14.8 -19.55 M-27.3 -14.75 L-21.6 -11.1 -27.3 -14.75 M-7.8 -21.85 L-7.9 -22.2 -7.8 -21.85 M-8.7 -8.55 L-8.75 -8.85 -8.7 -8.55 -8.8 -8.9 -8.75 -8.85 -8.7 -8.85 -8.65 -8.4 -8.7 -8.55" fill="#91ffcf" fill-rule="evenodd" stroke="none"/>
      <path d="M-10.25 -30.55 L-7.9 -22.2 -7.7 -21.85 0.7 -26.95 2.0 -17.0 9.4 -13.4 M-12.1 -28.55 L-14.65 -25.1 -14.8 -19.55 -12.35 -20.35 -11.75 -22.95 -10.25 -30.55 M-20.55 -6.7 L-21.6 -11.1 -27.3 -14.75 -20.55 -6.7 -22.75 1.95 -30.6 0.15 M-27.3 -14.75 L-31.55 -19.8 M-7.9 -22.2 L-7.8 -21.85 -7.7 -21.85 -2.7 -16.35 -2.05 -10.0 2.0 -17.0 M-11.75 -22.95 L-9.95 -21.15 -7.8 -21.85 M-14.8 -19.55 L-14.35 -15.25 -8.8 -8.9 -12.35 -20.35 M-8.75 -8.85 L-8.7 -8.55 -8.65 -8.4 -8.7 -8.85 -8.75 -8.85 -8.8 -8.9 -8.7 -8.55 -7.95 -4.25 -4.85 1.8 -1.75 -3.3 -2.05 -10.0 -8.7 -8.85 -9.95 -21.15 M-14.35 -15.25 L-13.75 -5.45 -7.95 -4.25 M-16.3 -20.5 L-19.55 -30.1 M-16.3 -20.5 L-21.6 -11.1 M-25.25 -23.35 L-16.3 -20.5 M-23.55 21.7 L-31.95 6.45 -38.15 1.1 -46.55 4.3 M-31.95 6.45 L-27.95 1.6 M-38.15 1.1 L-45.6 0.6 M-13.75 -5.45 L-2.85 7.45 M-31.95 6.45 L-32.95 -9.1 M-43.55 -8.1 L-38.15 1.1 M-4.85 1.8 L2.45 10.45" fill="none" stroke="#ffffff" stroke-linecap="round" stroke-linejoin="round" stroke-opacity="0.3019608" stroke-width="0.4"/>
      <path d="M-10.25 -30.55 L-10.25 -30.6 -2.85 -31.05 0.7 -26.95 7.7 -18.8 9.4 -13.4 14.5 2.5 2.45 10.45 -2.2 8.2 -2.85 7.45 -10.5 10.85 -13.2 9.4 -23.55 21.7 -46.55 4.3 -45.6 0.6 -42.95 -3.0 -43.55 -8.1 -32.95 -9.1 -30.85 -5.85 -31.55 -19.8 -25.25 -23.35 -19.55 -30.1 -12.1 -28.55 -10.25 -30.55 M-30.6 0.15 L-27.95 1.6 -13.2 9.4 M-30.6 0.15 L-30.85 -5.85" fill="none" stroke="#ffffff" stroke-linecap="round" stroke-linejoin="round" stroke-opacity="0.4" stroke-width="3.0"/>
      <path d="M5.45 -8.6 Q22.0 -7.85 32.55 -2.0 42.85 3.8 40.6 41.75 42.15 51.8 -1.4 51.05 -33.25 50.15 -34.8 40.95 -40.35 -13.6 5.45 -8.6" fill="#cafdff" fill-rule="evenodd" stroke="none"/>
      <path d="M5.45 -8.6 Q-40.35 -13.6 -34.8 40.95 -33.25 50.15 -1.4 51.05 42.15 51.8 40.6 41.75 42.85 3.8 32.55 -2.0 22.0 -7.85 5.45 -8.6 Z" fill="none" stroke="#ffffff" stroke-linecap="round" stroke-linejoin="round" stroke-opacity="0.4" stroke-width="3.0"/>
      <path d="M-38.55 6.2 L-38.2 12.95 -34.25 11.2 -35.9 17.7 -37.45 14.5 -38.2 12.95 -39.1 13.85 -44.25 17.1 -45.05 16.7 -44.05 9.85 -38.95 12.6 -41.8 9.75 Q-41.75 8.8 -40.9 7.8 L-39.2 6.7 -38.55 6.2 M-38.65 12.7 L-38.2 12.95 -38.65 12.7" fill="#5abc91" fill-rule="evenodd" stroke="none"/>
      <path d="M-38.55 6.2 L-33.05 9.3 -32.95 9.4 -34.25 11.2 -38.2 12.95 -38.55 6.2 M-30.3 25.85 L-33.75 27.85 Q-38.35 25.1 -42.55 20.85 -43.2 19.7 -39.85 18.55 L-38.05 18.15 -35.9 17.7 -34.25 19.9 -34.1 20.1 -34.1 21.65 -32.75 23.0 -30.3 25.85" fill="#469572" fill-rule="evenodd" stroke="none"/>
      <path d="M-34.25 11.2 L-32.95 9.4 -27.5 18.4 -30.3 25.85 -30.25 25.55 -30.4 25.65 -31.65 20.9 -32.55 20.7 -34.25 19.9 -35.9 17.7 -34.25 11.2" fill="#6cc9a0" fill-rule="evenodd" stroke="none"/>
      <path d="M-39.1 13.85 L-38.2 12.95 -37.45 14.5 -37.3 17.15 -38.05 18.15 -39.85 18.55 -39.6 18.45 -40.15 18.55 -45.15 19.55 -39.1 13.85 M-32.75 23.0 L-34.1 21.65 -34.1 20.1 -34.25 19.9 -32.55 20.7 -32.35 22.3 -32.75 23.0" fill="#91ffcf" fill-rule="evenodd" stroke="none"/>
      <path d="M-33.75 27.85 L-34.3 28.2 Q-35.05 27.75 -35.6 27.6 L-45.3 19.7 -45.15 19.55 -40.15 18.55 -39.6 18.45 -39.85 18.55 Q-43.2 19.7 -42.55 20.85 -38.35 25.1 -33.75 27.85 M-45.4 19.6 L-45.05 16.7 -44.25 17.1 -39.1 13.85 -45.15 19.55 -45.4 19.6 M-44.05 9.85 L-40.9 7.8 Q-41.75 8.8 -41.8 9.75 L-38.95 12.6 -44.05 9.85 M-38.05 18.15 L-37.3 17.15 -37.45 14.5 -35.9 17.7 -38.05 18.15 M-40.15 18.55 L-39.85 18.55 -40.15 18.55 M-32.55 20.7 L-31.65 20.9 -30.4 25.65 -30.3 25.85 -32.75 23.0 -32.35 22.3 -32.55 20.7" fill="#ffffff" fill-rule="evenodd" stroke="none"/>
      <path d="M-30.4 25.65 L-30.25 25.55 -30.3 25.85 -30.4 25.65" fill="#78cdd3" fill-rule="evenodd" stroke="none"/>
      <path d="M-32.95 9.4 L-33.05 9.3 -38.55 6.2 -39.2 6.7 M-32.95 9.4 L-27.5 18.4 -30.3 25.85 -33.75 27.85 -34.3 28.2 Q-35.05 27.75 -35.6 27.6 L-45.3 19.7 -45.4 19.6 -45.05 16.7 -44.05 9.85 -40.9 7.8 M-30.4 25.65 L-30.25 25.55 -30.3 25.85 -30.4 25.65 M-45.15 19.55 L-45.3 19.7 M-45.4 19.6 L-45.15 19.55" fill="none" stroke="#ffffff" stroke-linecap="round" stroke-linejoin="round" stroke-opacity="0.4" stroke-width="3.0"/>
      <path d="M-38.55 6.2 L-38.2 12.95 -34.25 11.2 -32.95 9.4 M-39.1 13.85 L-38.2 12.95 -38.65 12.7 M-39.85 18.55 L-38.05 18.15 -35.9 17.7 -37.45 14.5 -38.2 12.95 M-39.1 13.85 L-45.15 19.55 -40.15 18.55 -39.6 18.45 M-39.85 18.55 L-40.15 18.55 M-32.55 20.7 L-31.65 20.9 -30.4 25.65 M-30.3 25.85 L-32.75 23.0 -34.1 21.65 -34.1 20.1 -34.25 19.9 -35.9 17.7 -34.25 11.2 M-32.55 20.7 L-34.25 19.9 M-38.95 12.6 L-44.05 9.85" fill="none" stroke="#2ec1a7" stroke-linecap="round" stroke-linejoin="round" stroke-opacity="0.2" stroke-width="0.2"/>
      <path d="M-33.9 -30.8 L-34.6 -32.6 Q-36.05 -33.65 -36.45 -34.65 L-34.15 -34.35 Q-34.35 -36.0 -33.4 -36.5 -32.65 -35.55 -33.0 -34.35 -32.15 -34.9 -31.1 -34.75 -31.2 -33.7 -32.35 -32.8 L-32.25 -32.55 -32.05 -31.9 -31.45 -30.8 -32.85 -31.15 Q-33.55 -31.25 -33.9 -30.8 -33.55 -31.25 -32.85 -31.15 L-31.45 -30.8 Q-31.0 -30.0 -30.55 -29.75 -32.25 -29.45 -32.65 -28.9 -32.25 -29.45 -30.55 -29.75 L-29.85 -29.3 Q-31.1 -28.65 -32.45 -28.35 L-32.65 -28.9 -33.65 -30.35 -33.9 -30.8 M-34.0 -33.3 Q-33.05 -33.75 -32.25 -32.55 -33.05 -33.75 -34.0 -33.3" fill="#d3bf8d" fill-rule="evenodd" stroke="none"/>
      <path d="M-31.45 -30.8 L-32.05 -31.9 -31.85 -32.05 -31.6 -32.25 Q-26.85 -34.55 -24.7 -33.05 -22.6 -28.45 -21.35 -24.4 -20.6 -22.4 -21.85 -21.05 L-20.6 -13.0 -14.5 -5.9 Q-17.7 -2.95 -15.6 -0.95 L-24.45 0.6 Q-26.45 1.15 -26.9 1.85 L-28.6 -0.25 -28.65 -0.1 Q-29.4 0.9 -30.35 0.35 -32.9 -1.4 -32.35 -11.25 L-32.3 -11.4 -32.3 -11.5 -32.35 -11.5 -32.35 -11.65 -32.4 -11.75 -32.85 -15.2 Q-34.25 -21.05 -36.3 -24.25 -37.55 -25.85 -35.9 -27.9 -35.5 -28.35 -34.75 -28.15 -34.45 -29.25 -33.65 -30.35 L-32.65 -28.9 -32.45 -28.35 Q-31.1 -28.65 -29.85 -29.3 L-30.55 -29.75 Q-31.0 -30.0 -31.45 -30.8 M-29.75 -5.45 L-29.25 -3.95 Q-28.2 -0.7 -28.6 -0.25 -28.2 -0.7 -29.25 -3.95 L-29.75 -5.45 M-34.0 -27.95 L-32.45 -28.35 -34.0 -27.95 M-27.8 -30.8 L-29.85 -29.3 -27.8 -30.8 M-35.0 -23.85 Q-34.0 -23.4 -32.8 -24.3 -30.2 -21.5 -29.05 -24.3 -25.95 -21.0 -25.95 -26.05 -23.25 -20.3 -21.85 -21.05 -23.25 -20.3 -25.95 -26.05 -25.95 -21.0 -29.05 -24.3 -30.2 -21.5 -32.8 -24.3 -34.0 -23.4 -35.0 -23.85" fill="url(#gradient0)" fill-rule="evenodd" stroke="none"/>
      <path d="M-32.4 -11.75 L-32.35 -11.65 -32.35 -11.5 -32.4 -11.75" fill="#fff8e0" fill-rule="evenodd" stroke="none"/>
      <path d="M-32.25 -32.55 L-32.35 -32.8 Q-31.2 -33.7 -31.1 -34.75 -32.15 -34.9 -33.0 -34.35 -32.65 -35.55 -33.4 -36.5 -34.35 -36.0 -34.15 -34.35 L-36.45 -34.65 Q-36.05 -33.65 -34.6 -32.6 L-33.9 -30.8 Q-33.55 -31.25 -32.85 -31.15 L-31.45 -30.8 -32.05 -31.9 -32.25 -32.55 Q-33.05 -33.75 -34.0 -33.3 M-32.65 -28.9 Q-32.25 -29.45 -30.55 -29.75 -31.0 -30.0 -31.45 -30.8 M-33.65 -30.35 L-32.65 -28.9 -32.45 -28.35 Q-31.1 -28.65 -29.85 -29.3 L-30.55 -29.75 M-32.45 -28.35 L-34.0 -27.95 M-33.9 -30.8 L-33.65 -30.35 M-29.85 -29.3 L-27.8 -30.8" fill="none" stroke="#2ec1a7" stroke-linecap="round" stroke-linejoin="round" stroke-opacity="0.4" stroke-width="0.2"/>
      <path d="M-21.85 -21.05 Q-20.6 -22.4 -21.35 -24.4 -22.6 -28.45 -24.7 -33.05 -26.85 -34.55 -31.6 -32.25 L-31.85 -32.05 -32.05 -31.9 M-33.65 -30.35 Q-34.45 -29.25 -34.75 -28.15 -35.5 -28.35 -35.9 -27.9 -37.55 -25.85 -36.3 -24.25 -34.25 -21.05 -32.85 -15.2 L-32.4 -11.75 -32.35 -11.65 -32.35 -11.5 -32.3 -11.5 -32.3 -11.4 -32.35 -11.25 Q-32.9 -1.4 -30.35 0.35 -29.4 0.9 -28.65 -0.1 L-28.6 -0.25 Q-28.2 -0.7 -29.25 -3.95 L-29.75 -5.45 M-14.5 -5.9 L-20.6 -13.0 -21.85 -21.05 Q-23.25 -20.3 -25.95 -26.05 -25.95 -21.0 -29.05 -24.3 -30.2 -21.5 -32.8 -24.3 -34.0 -23.4 -35.0 -23.85 M-32.4 -11.75 L-32.35 -11.5 M-28.6 -0.25 L-26.9 1.85" fill="none" stroke="#000000" stroke-linecap="round" stroke-linejoin="round" stroke-opacity="0.14901961" stroke-width="0.6000000000000001"/>
      <path d="M-42.85 -20.15 Q-37.05 -16.05 -30.1 -17.2 -23.15 -18.35 -19.05 -24.1 -14.95 -29.85 -16.1 -36.8 -17.3 -43.75 -23.0 -47.85 -28.75 -52.0 -35.7 -50.85 -42.65 -49.7 -46.8 -43.9 -50.9 -38.15 -49.7 -31.2 -48.55 -24.25 -42.85 -20.15" fill="url(#gradient1)" fill-rule="evenodd" stroke="none"/>
      <path d="M28.95 -3.55 Q32.95 -3.55 35.8 -0.7 38.65 2.15 38.65 6.15 38.65 10.15 35.8 13.0 32.95 15.85 28.95 15.85 24.95 15.85 22.1 13.0 19.25 10.15 19.25 6.15 19.25 2.15 22.1 -0.7 24.95 -3.55 28.95 -3.55" fill="url(#gradient2)" fill-rule="evenodd" stroke="none"/>
      <path d="M-11.05 -6.2 Q-7.05 -6.2 -4.2 -3.35 -1.35 -0.5 -1.35 3.5 -1.35 7.5 -4.2 10.35 -7.05 13.2 -11.05 13.2 -15.05 13.2 -17.9 10.35 -20.75 7.5 -20.75 3.5 -20.75 -0.5 -17.9 -3.35 -15.05 -6.2 -11.05 -6.2" fill="url(#gradient3)" fill-rule="evenodd" stroke="none"/>
      <path d="M-10.15 -0.45 Q-9.45 0.4 -9.45 1.5 L-9.45 5.05 Q-9.45 6.2 -10.15 6.95 -10.8 7.8 -11.8 7.8 -12.75 7.8 -13.45 6.95 -14.1 6.2 -14.15 5.05 L-14.15 1.5 Q-14.15 0.4 -13.45 -0.45 -12.75 -1.3 -11.8 -1.3 -10.8 -1.3 -10.15 -0.45 M30.95 8.25 Q30.4 8.95 29.55 9.0 28.75 9.05 28.15 8.4 27.55 7.8 27.45 6.8 L27.3 3.8 Q27.25 2.85 27.8 2.15 28.35 1.4 29.1 1.35 29.95 1.3 30.6 1.95 31.2 2.7 31.25 3.6 L31.4 6.6 Q31.4 7.6 30.95 8.25" fill="#ffffff" fill-rule="evenodd" stroke="none"/>
      <path d="M-10.15 -0.45 Q-9.45 0.4 -9.45 1.5 L-9.45 5.05 Q-9.45 6.2 -10.15 6.95 -10.8 7.8 -11.8 7.8 -12.75 7.8 -13.45 6.95 -14.1 6.2 -14.15 5.05 L-14.15 1.5 Q-14.15 0.4 -13.45 -0.45 -12.75 -1.3 -11.8 -1.3 -10.8 -1.3 -10.15 -0.45 M30.95 8.25 Q30.4 8.95 29.55 9.0 28.75 9.05 28.15 8.4 27.55 7.8 27.45 6.8 L27.3 3.8 Q27.25 2.85 27.8 2.15 28.35 1.4 29.1 1.35 29.95 1.3 30.6 1.95 31.2 2.7 31.25 3.6 L31.4 6.6 Q31.4 7.6 30.95 8.25" fill="none" stroke="#ffffff" stroke-linecap="round" stroke-linejoin="round" stroke-opacity="0.4" stroke-width="3.0"/>
      <path d="M0.7 -26.3 L6.55 -14.85 3.65 -12.7 Q3.1 -18.45 0.7 -26.3 M10.65 -13.15 L13.3 -10.05 11.9 -10.15 10.65 -13.15 M11.85 -6.2 L10.8 -3.55 8.25 -6.55 10.85 -5.9 11.85 -6.2 M-10.7 -29.95 L-3.55 -28.75 Q-4.1 -27.15 -4.05 -25.85 L-4.05 -25.75 Q-5.9 -21.75 -6.55 -17.1 L-7.85 -19.55 -6.55 -17.1 -6.55 -17.05 Q-7.65 -14.5 -5.85 -12.85 L-10.8 -13.0 Q-8.55 -18.0 -9.7 -20.8 L-7.85 -19.55 -4.85 -25.35 -6.95 -23.5 Q-7.55 -29.2 -10.7 -29.95 M-4.85 -25.35 L-4.05 -25.85 -4.85 -25.35 M6.15 -9.25 L6.0 -9.2 5.0 -12.05 8.35 -15.85 8.35 -14.65 6.75 -12.0 6.15 -9.25" fill="#ffffff" fill-rule="evenodd" stroke="none"/>
      <path d="M-3.55 -28.75 L-0.25 -28.15 0.7 -26.3 Q3.1 -18.45 3.65 -12.7 L2.55 -11.85 0.4 -16.75 -1.3 -22.1 -1.2 -22.45 -0.25 -28.15 -4.05 -25.85 -0.25 -28.15 -1.2 -22.45 -1.3 -22.1 -3.8 -18.0 -3.4 -15.45 -3.5 -15.1 -4.25 -12.85 -6.55 -17.1 -4.25 -12.85 -5.85 -12.85 Q-7.65 -14.5 -6.55 -17.05 L-6.55 -17.1 Q-5.9 -21.75 -4.05 -25.75 L-4.05 -25.85 Q-4.1 -27.15 -3.55 -28.75 M8.35 -15.85 L10.0 -13.95 10.65 -13.15 11.9 -10.15 13.3 -10.05 11.85 -6.2 10.85 -5.9 8.25 -6.55 6.0 -9.2 6.15 -9.25 8.35 -10.5 8.35 -14.65 8.35 -15.85 M-18.2 -14.75 L-12.55 -20.7 -13.25 -13.05 -18.2 -14.75 M8.35 -10.5 L11.9 -10.15 8.35 -10.5" fill="#91ffcf" fill-rule="evenodd" stroke="none"/>
      <path d="M10.8 -3.55 L4.7 -2.95 6.0 -9.2 8.25 -6.55 10.8 -3.55 M-1.3 -22.1 L0.4 -16.75 -3.5 -15.1 -3.4 -15.45 -3.8 -18.0 -1.3 -22.1 M8.35 -10.5 L6.15 -9.25 6.75 -12.0 8.35 -14.65 8.35 -10.5" fill="#5abc91" fill-rule="evenodd" stroke="none"/>
      <path d="M4.7 -2.95 L3.55 -4.95 Q1.4 -4.0 -0.75 -1.4 L-4.25 -12.85 -3.5 -15.1 0.4 -16.75 2.55 -11.85 1.35 -9.95 2.25 -7.35 2.75 -6.45 6.0 -9.2 4.7 -2.95 M-4.85 -25.35 L-7.85 -19.55 -9.7 -20.8 -9.9 -20.95 -9.7 -20.8 Q-8.55 -18.0 -10.8 -13.0 L-13.25 -13.05 -12.55 -20.7 -9.9 -20.95 -6.95 -23.5 -4.85 -25.35 M2.75 -6.45 L3.55 -4.95 2.75 -6.45" fill="#6cc9a0" fill-rule="evenodd" stroke="none"/>
      <path d="M6.55 -14.85 L8.35 -15.85 5.0 -12.05 6.0 -9.2 2.75 -6.45 2.25 -7.35 1.35 -9.95 2.55 -11.85 3.65 -12.7 6.55 -14.85 M-0.75 -1.4 Q-8.0 -6.6 -15.05 -6.35 L-18.2 -14.75 -13.25 -13.05 -10.8 -13.0 -5.85 -12.85 -4.25 -12.85 -0.75 -1.4 M-12.55 -20.7 L-10.85 -30.0 -10.7 -29.95 Q-7.55 -29.2 -6.95 -23.5 L-9.9 -20.95 -12.55 -20.7" fill="#469572" fill-rule="evenodd" stroke="none"/>
      <path d="M-3.55 -28.75 L-0.25 -28.15 0.7 -26.3 6.55 -14.85 M3.55 -4.95 Q1.4 -4.0 -0.75 -1.4 -8.0 -6.6 -15.05 -6.35 L-18.2 -14.75 -12.55 -20.7 -10.85 -30.0 -10.7 -29.95 -3.55 -28.75" fill="none" stroke="#ffffff" stroke-linecap="round" stroke-linejoin="round" stroke-opacity="0.4" stroke-width="3.0"/>
      <path d="M6.55 -14.85 L8.35 -15.85 10.0 -13.95 M10.65 -13.15 L13.3 -10.05 11.85 -6.2 10.8 -3.55 4.7 -2.95 3.55 -4.95 2.75 -6.45 6.0 -9.2 8.25 -6.55 10.8 -3.55 M-4.05 -25.85 L-0.25 -28.15 -1.2 -22.45 -1.3 -22.1 0.4 -16.75 2.55 -11.85 3.65 -12.7 6.55 -14.85 M-4.05 -25.85 L-4.85 -25.35 -7.85 -19.55 -6.55 -17.1 -4.25 -12.85 -3.5 -15.1 -3.4 -15.45 -3.8 -18.0 -1.3 -22.1 M-6.95 -23.5 L-4.85 -25.35 M-9.7 -20.8 L-9.9 -20.95 -12.55 -20.7 -13.25 -13.05 -10.8 -13.0 -5.85 -12.85 -4.25 -12.85 -0.75 -1.4 M-9.7 -20.8 L-7.85 -19.55 M-18.2 -14.75 L-13.25 -13.05 M13.3 -10.05 L11.9 -10.15 8.35 -10.5 6.15 -9.25 6.0 -9.2 4.7 -2.95 M8.35 -10.5 L8.35 -14.65 8.35 -15.85 5.0 -12.05 6.0 -9.2 M2.55 -11.85 L1.35 -9.95 2.25 -7.35 2.75 -6.45 M-6.95 -23.5 L-9.9 -20.95 M-3.5 -15.1 L0.4 -16.75" fill="none" stroke="#2ec1a7" stroke-linecap="round" stroke-linejoin="round" stroke-opacity="0.2" stroke-width="0.2"/>
      <path d="M44.1 18.45 L41.95 18.45 Q40.25 17.0 38.95 10.45 L39.55 10.5 45.6 16.75 44.1 18.45 M19.15 16.25 L14.6 18.7 10.3 22.3 10.3 19.25 Q15.75 16.5 19.15 16.25 M9.4 6.5 L12.45 7.9 14.15 11.1 Q14.9 13.6 12.65 15.8 L10.3 17.25 9.5 14.15 8.75 7.9 9.4 6.5 M32.0 9.65 L36.85 10.2 Q39.55 14.05 37.85 17.6 L32.0 9.65 M19.75 15.65 L19.95 15.75 19.9 15.8 19.55 15.75 19.75 15.65" fill="#91ffcf" fill-rule="evenodd" stroke="none"/>
      <path d="M38.5 18.45 L33.3 19.9 29.3 17.1 32.0 9.65 37.85 17.6 38.5 18.45 M-2.2 20.9 L-14.05 18.9 -11.4 14.7 -10.8 14.4 -1.3 14.9 1.25 15.05 -0.4 17.9 -2.2 20.9 M15.7 9.4 L24.5 6.25 26.25 7.05 26.5 7.15 29.6 9.9 29.9 10.7 22.75 14.2 19.75 15.65 15.45 13.95 15.7 9.4" fill="#469572" fill-rule="evenodd" stroke="none"/>
      <path d="M29.3 17.1 L25.5 16.6 Q23.6 15.6 22.75 14.2 L29.9 10.7 32.0 9.65 29.3 17.1 M19.9 15.8 L19.5 16.05 19.15 16.25 Q15.75 16.5 10.3 19.25 L10.3 17.25 -1.8 20.95 -2.2 20.9 -0.4 17.9 Q3.35 13.9 7.95 11.6 L9.0 12.35 9.5 14.15 10.3 17.25 12.65 15.8 15.45 13.95 19.75 15.65 19.55 15.75 19.9 15.8" fill="#6cc9a0" fill-rule="evenodd" stroke="none"/>
      <path d="M-10.8 14.4 L7.3 5.5 7.3 10.2 1.55 14.2 -1.3 14.9 -10.8 14.4" fill="#5abc91" fill-rule="evenodd" stroke="none"/>
      <path d="M44.1 18.45 L45.6 16.75 47.25 18.45 44.1 18.45 M38.95 10.45 Q40.25 17.0 41.95 18.45 L38.5 18.45 37.85 17.6 Q39.55 14.05 36.85 10.2 L38.95 10.45 M25.5 16.6 L19.9 15.8 19.95 15.75 19.75 15.65 22.75 14.2 Q23.6 15.6 25.5 16.6 M7.3 5.5 L9.4 6.5 8.75 7.9 9.5 14.15 9.0 12.35 7.95 11.6 Q3.35 13.9 -0.4 17.9 L1.25 15.05 -1.3 14.9 1.55 14.2 7.3 10.2 7.3 5.5 M12.45 7.9 L15.7 9.4 15.45 13.95 12.65 15.8 Q14.9 13.6 14.15 11.1 L12.45 7.9 M26.5 7.15 L32.0 9.65 29.9 10.7 29.6 9.9 26.5 7.15" fill="#ffffff" fill-rule="evenodd" stroke="none"/>
      <path d="M41.95 18.45 L44.1 18.45 47.25 18.45 45.6 16.75 39.55 10.5 38.95 10.45 36.85 10.2 32.0 9.65 26.5 7.15 M41.95 18.45 L38.5 18.45 33.3 19.9 29.3 17.1 25.5 16.6 19.9 15.8 19.5 16.05 M19.15 16.25 L14.6 18.7 10.3 22.3 10.3 19.25 10.3 17.25 -1.8 20.95 M-2.2 20.9 L-14.05 18.9 -11.4 14.7 M-10.8 14.4 L7.3 5.5 9.4 6.5 12.45 7.9 15.7 9.4 24.5 6.25 26.25 7.05" fill="none" stroke="#ffffff" stroke-linecap="round" stroke-linejoin="round" stroke-opacity="0.4" stroke-width="1.0"/>
      <path d="M18.5 32.25 L18.35 32.1 21.6 23.9 22.65 24.35 25.05 27.4 24.2 29.85 19.95 31.9 18.5 32.25 M30.65 34.2 L27.25 41.5 27.05 41.25 26.9 38.5 27.55 35.5 28.75 34.4 30.65 34.2 M24.35 30.85 L26.7 32.0 26.7 34.55 25.05 34.25 24.6 33.55 24.25 31.6 24.35 30.85" fill="#6cc9a0" fill-rule="evenodd" stroke="none"/>
      <path d="M18.5 32.25 L19.95 31.9 24.35 30.85 25.8 28.75 27.2 28.55 30.55 33.45 30.75 33.9 30.65 34.2 28.75 34.4 26.7 34.55 26.7 32.0 24.35 30.85 24.25 31.6 23.9 34.0 18.55 32.3 18.5 32.25" fill="#91ffcf" fill-rule="evenodd" stroke="none"/>
      <path d="M19.95 31.9 L24.2 29.85 25.05 27.4 22.65 24.35 27.5 26.3 30.55 33.45 27.2 28.55 25.8 28.75 24.35 30.85 19.95 31.9 M26.7 34.55 L28.75 34.4 27.55 35.5 26.9 38.5 26.7 34.55 M25.05 34.25 L23.95 34.0 23.9 34.0 24.25 31.6 24.6 33.55 25.05 34.25" fill="#ffffff" fill-rule="evenodd" stroke="none"/>
      <path d="M27.05 41.25 L18.55 32.3 23.9 34.0 23.95 34.0 25.05 34.25 26.7 34.55 26.9 38.5 27.05 41.25" fill="#469572" fill-rule="evenodd" stroke="none"/>
      <path d="M22.65 24.35 L21.6 23.9 18.35 32.1 18.5 32.25 18.55 32.3 27.05 41.25 27.25 41.5 30.65 34.2 30.75 33.9 30.55 33.45 27.5 26.3 22.65 24.35 Z" fill="none" stroke="#ffffff" stroke-linecap="round" stroke-linejoin="round" stroke-opacity="0.4" stroke-width="1.0"/>
      <path d="M-28.45 16.6 Q-30.25 14.1 -29.9 14.2 L-29.8 14.2 Q-29.45 14.15 -28.45 13.5 -27.35 12.75 -25.25 13.85 L-24.9 15.1 Q-24.3 18.1 -25.85 18.55 L-26.25 18.6 -28.05 20.2 Q-27.8 19.15 -28.45 16.6" fill="url(#gradient4)" fill-rule="evenodd" stroke="none"/>
      <path d="M-26.25 38.1 Q-25.8 41.6 -28.2 38.8 -28.8 38.25 -29.2 36.05 -29.5 34.2 -28.9 30.5 -28.5 27.8 -27.2 24.15 -28.15 29.55 -26.6 36.4 L-26.25 38.1" fill="url(#gradient5)" fill-rule="evenodd" stroke="none"/>
      <path d="M-28.45 16.6 Q-27.8 19.15 -28.05 20.2 L-26.25 18.6 -25.85 18.55 M-24.9 15.1 L-25.25 13.85 Q-27.35 12.75 -28.45 13.5 -29.45 14.15 -29.8 14.2 M-27.2 24.15 Q-28.5 27.8 -28.9 30.5 -29.5 34.2 -29.2 36.05 -28.8 38.25 -28.2 38.8 -25.8 41.6 -26.25 38.1" fill="none" stroke="#000000" stroke-linecap="round" stroke-linejoin="round" stroke-opacity="0.14901961" stroke-width="0.6000000000000001"/>
      <path d="M24.75 -25.25 L26.7 -29.45 Q26.3 -28.4 26.7 -26.95 L27.55 -25.65 Q30.35 -21.55 35.2 -17.3 L35.4 -17.1 37.85 -15.0 Q36.05 -12.3 34.65 -9.0 36.05 -12.3 37.85 -15.0 L44.95 -18.0 44.05 -16.35 43.7 -16.85 39.7 -15.2 36.45 -10.35 36.8 -10.05 34.65 -9.0 Q33.3 -9.25 32.25 -9.85 L32.2 -9.8 31.15 -10.5 Q29.85 -11.5 28.5 -13.7 L25.95 -17.6 24.2 -20.15 24.95 -22.35 26.0 -25.2 23.65 -22.8 24.75 -25.25" fill="#78cdd3" fill-rule="evenodd" stroke="none"/>
      <path d="M26.7 -29.45 L26.7 -29.6 28.45 -30.3 29.2 -30.6 Q26.65 -27.5 35.4 -17.1 L35.2 -17.3 Q30.35 -21.55 27.55 -25.65 L26.7 -26.95 Q26.3 -28.4 26.7 -29.45" fill="#c9fbff" fill-rule="evenodd" stroke="none"/>
      <path d="M28.45 -30.3 Q22.1 -37.6 13.35 -39.85 L8.35 -40.7 Q23.1 -42.15 31.85 -31.75 L34.2 -32.75 Q35.5 -32.6 36.75 -31.7 L44.25 -21.2 Q45.85 -19.2 44.95 -18.0 L37.85 -15.0 35.4 -17.1 Q26.65 -27.5 29.2 -30.6 L28.45 -30.3 M44.05 -16.35 Q52.15 -3.2 49.25 11.2 45.8 -3.85 41.55 -12.25 L39.7 -15.2 43.7 -16.85 44.05 -16.35 M24.95 -22.35 L23.65 -22.8 26.0 -25.2 24.95 -22.35 M39.0 -21.75 L40.45 -22.95 37.2 -27.35 Q35.8 -28.6 34.55 -27.7 L33.35 -25.35 Q34.6 -23.0 37.5 -20.6 L39.0 -21.75 M31.85 -31.75 L29.2 -30.6 31.85 -31.75" fill="#98e3e7" fill-rule="evenodd" stroke="none"/>
      <path d="M13.35 -39.85 Q19.75 -36.55 25.5 -30.65 L26.7 -29.45 24.75 -25.25 Q18.55 -34.85 8.35 -40.7 L13.35 -39.85 M49.25 11.2 Q44.95 -1.3 36.8 -10.05 L36.45 -10.35 39.7 -15.2 41.55 -12.25 Q45.8 -3.85 49.25 11.2" fill="#4cd5cd" fill-rule="evenodd" stroke="none"/>
      <path d="M26.7 -29.45 L25.5 -30.65 Q19.75 -36.55 13.35 -39.85 22.1 -37.6 28.45 -30.3 L26.7 -29.6 26.7 -29.45" fill="#b0e2df" fill-rule="evenodd" stroke="none"/>
      <path d="M39.0 -21.75 L37.5 -20.6 Q34.6 -23.0 33.35 -25.35 L34.55 -27.7 Q35.8 -28.6 37.2 -27.35 L40.45 -22.95 39.0 -21.75 Q37.5 -22.25 35.1 -25.75 37.5 -22.25 39.0 -21.75" fill="url(#gradient6)" fill-rule="evenodd" stroke="none"/>
      <path d="M32.2 -9.8 L24.6 -0.9 Q22.0 2.35 19.6 2.6 16.6 2.1 18.5 -4.95 L25.95 -17.6 28.5 -13.7 Q29.85 -11.5 31.15 -10.5 L32.2 -9.8" fill="url(#gradient7)" fill-rule="evenodd" stroke="none"/>
      <path d="M26.7 -29.45 L26.7 -29.6 28.45 -30.3 Q22.1 -37.6 13.35 -39.85 L8.35 -40.7 M24.75 -25.25 L26.7 -29.45 Q26.3 -28.4 26.7 -26.95 L27.55 -25.65 Q30.35 -21.55 35.2 -17.3 L35.4 -17.1 37.85 -15.0 44.95 -18.0 M29.2 -30.6 L28.45 -30.3 M24.95 -22.35 L23.65 -22.8 26.0 -25.2 24.95 -22.35 M39.0 -21.75 L40.45 -22.95 37.2 -27.35 Q35.8 -28.6 34.55 -27.7 L33.35 -25.35 Q34.6 -23.0 37.5 -20.6 L39.0 -21.75 Q37.5 -22.25 35.1 -25.75 M29.2 -30.6 L31.85 -31.75 M25.95 -17.6 L28.5 -13.7 Q29.85 -11.5 31.15 -10.5 L32.2 -9.8 M39.7 -15.2 L36.45 -10.35 36.8 -10.05 M34.65 -9.0 Q36.05 -12.3 37.85 -15.0 M44.05 -16.35 L43.7 -16.85 39.7 -15.2 41.55 -12.25 Q45.8 -3.85 49.25 11.2" fill="none" stroke="#2ec1a7" stroke-linecap="round" stroke-linejoin="round" stroke-opacity="0.4" stroke-width="0.7000000000000001"/>
      <path d="M8.35 -40.7 Q18.55 -34.85 24.75 -25.25 L23.65 -22.8 M8.35 -40.7 Q23.1 -42.15 31.85 -31.75 L34.2 -32.75 Q35.5 -32.6 36.75 -31.7 L44.25 -21.2 Q45.85 -19.2 44.95 -18.0 L44.05 -16.35 Q52.15 -3.2 49.25 11.2 44.95 -1.3 36.8 -10.05 L34.65 -9.0 Q33.3 -9.25 32.25 -9.85 L32.2 -9.8 24.6 -0.9 M18.5 -4.95 L25.95 -17.6 24.2 -20.15 24.95 -22.35" fill="none" stroke="#ffffff" stroke-linecap="round" stroke-linejoin="round" stroke-opacity="0.4" stroke-width="3.0"/>
    </g>
    <linearGradient gradientTransform="matrix(0.0094, 0.0163, 0.0188, -0.0108, -26.35, -15.9)" gradientUnits="userSpaceOnUse" id="gradient0" spreadMethod="pad" x1="-819.2" x2="819.2">
      <stop offset="0.0" stop-color="#fff8e0"/>
      <stop offset="0.6784313725490196" stop-color="#c6b64d"/>
      <stop offset="1.0" stop-color="#cafdff"/>
    </linearGradient>
    <radialGradient cx="0" cy="0" gradientTransform="matrix(-0.0213, 0.0035, 0.0035, 0.0213, -32.9, -34.0)" gradientUnits="userSpaceOnUse" id="gradient1" r="819.2" spreadMethod="pad">
      <stop offset="0.0" stop-color="#ffffff" stop-opacity="0.8"/>
      <stop offset="0.16470588235294117" stop-color="#f5ffd4" stop-opacity="0.7490196"/>
      <stop offset="1.0" stop-color="#ffffff" stop-opacity="0.0"/>
    </radialGradient>
    <radialGradient cx="0" cy="0" gradientTransform="matrix(0.013, 0.0, 0.0, 0.013, 28.95, 6.15)" gradientUnits="userSpaceOnUse" id="gradient2" r="819.2" spreadMethod="pad">
      <stop offset="0.0" stop-color="#31825e"/>
      <stop offset="0.8392156862745098" stop-color="#ffffff" stop-opacity="0.0"/>
    </radialGradient>
    <radialGradient cx="0" cy="0" gradientTransform="matrix(0.013, 0.0, 0.0, 0.013, -11.05, 3.5)" gradientUnits="userSpaceOnUse" id="gradient3" r="819.2" spreadMethod="pad">
      <stop offset="0.0" stop-color="#31825e"/>
      <stop offset="0.8392156862745098" stop-color="#ffffff" stop-opacity="0.0"/>
    </radialGradient>
    <linearGradient gradientTransform="matrix(-0.0039, -0.0024, -0.0053, 0.0113, -30.15, 24.0)" gradientUnits="userSpaceOnUse" id="gradient4" spreadMethod="pad" x1="-819.2" x2="819.2">
      <stop offset="0.0" stop-color="#ffe774"/>
      <stop offset="0.6784313725490196" stop-color="#f4eed4"/>
    </linearGradient>
    <linearGradient gradientTransform="matrix(-0.0039, -0.0024, -0.0053, 0.0113, -23.6, 29.3)" gradientUnits="userSpaceOnUse" id="gradient5" spreadMethod="pad" x1="-819.2" x2="819.2">
      <stop offset="0.21568627450980393" stop-color="#ffe774"/>
      <stop offset="0.6784313725490196" stop-color="#f4eed4"/>
    </linearGradient>
    <linearGradient gradientTransform="matrix(-0.001, 0.0074, -0.0319, -0.0041, 30.45, -4.5)" gradientUnits="userSpaceOnUse" id="gradient6" spreadMethod="pad" x1="-819.2" x2="819.2">
      <stop offset="0.0" stop-color="#8ef9c6"/>
      <stop offset="1.0" stop-color="#5ccea5"/>
    </linearGradient>
    <linearGradient gradientTransform="matrix(-0.0059, 0.0101, -0.0278, -0.016, 30.4, -3.75)" gradientUnits="userSpaceOnUse" id="gradient7" spreadMethod="pad" x1="-819.2" x2="819.2">
      <stop offset="0.0" stop-color="#98e3e7"/>
      <stop offset="0.6862745098039216" stop-color="#60b3ba"/>
      <stop offset="1.0" stop-color="#cafdff"/>
    </linearGradient>
  </defs>
</svg>
