<?xml version="1.0" encoding="UTF-8" standalone="no"?>
<svg xmlns:xlink="http://www.w3.org/1999/xlink" height="531.5px" width="460.6px" xmlns="http://www.w3.org/2000/svg">
  <g transform="matrix(1.0, 0.0, 0.0, 1.0, 193.65, 334.05)">
    <use height="96.1" transform="matrix(1.496, 0.0, 0.0, 1.496, -81.724, -209.874)" width="105.35" xlink:href="#shape0"/>
  </g>
  <defs>
    <g id="shape0" transform="matrix(1.0, 0.0, 0.0, 1.0, 0.25, 0.25)">
      <path d="M81.35 20.95 L82.05 20.8 78.65 19.8 74.55 19.8 Q70.85 20.35 70.55 20.8 L70.65 20.9 71.0 20.95 72.1 20.7 78.7 20.5 81.35 20.95 M85.05 21.45 L84.0 21.15 83.5 21.15 83.5 21.3 Q84.1 22.1 85.0 22.1 L85.35 21.75 85.05 21.45 M83.8 18.8 L83.6 18.7 78.6 17.75 73.65 17.2 61.55 18.2 58.25 18.25 49.15 17.05 Q44.65 16.7 40.6 16.85 L35.3 17.2 35.3 17.4 41.25 17.45 44.45 17.6 48.35 17.9 49.85 18.15 58.25 19.4 61.55 19.4 70.25 18.6 74.7 17.95 80.0 18.6 83.15 19.2 83.85 18.95 83.8 18.8 M15.95 40.35 Q17.5 38.3 19.4 36.45 L18.7 32.45 Q18.75 28.1 24.3 25.8 23.0 22.8 23.6 19.25 24.4 16.2 26.1 14.3 L26.15 14.25 Q28.8 11.25 33.65 11.05 L29.1 9.85 Q36.75 7.25 44.95 7.6 L42.75 6.0 Q50.25 6.65 55.75 9.15 L53.55 6.0 Q59.0 8.0 63.25 10.95 64.6 8.65 66.75 7.7 L66.75 9.3 Q68.65 8.1 70.55 7.9 L69.4 9.35 Q76.05 8.0 84.15 15.85 88.35 19.95 88.7 26.3 L89.9 25.25 90.1 28.55 Q91.3 29.9 91.8 32.45 91.3 34.3 90.1 35.5 L90.55 38.75 95.5 46.45 Q95.15 50.45 92.45 53.9 L92.35 55.4 Q92.35 57.2 92.9 59.5 L95.05 68.25 95.3 68.7 Q97.6 72.45 98.35 74.6 L98.25 74.6 Q97.9 73.65 96.8 72.55 95.6 71.35 94.25 70.7 93.3 70.25 91.8 69.05 L90.45 68.0 90.25 68.0 90.9 70.75 91.15 72.3 91.35 73.5 91.25 73.5 90.4 72.95 91.15 75.25 91.65 77.6 91.55 77.6 Q89.6 75.35 83.65 73.95 L81.7 73.5 76.9 66.95 76.75 66.95 Q77.35 68.6 78.95 70.75 L81.35 73.4 75.0 71.6 74.55 70.7 73.6 68.9 72.0 64.95 Q71.1 62.65 70.35 61.7 L70.25 61.9 70.15 62.35 70.95 66.1 71.9 69.65 73.65 73.25 75.4 74.95 76.75 75.95 76.75 76.25 76.45 79.4 76.55 81.2 70.55 73.9 67.6 70.9 67.2 69.85 65.9 63.55 65.75 63.55 65.55 64.6 65.85 66.7 66.1 68.3 66.15 68.8 66.15 69.2 66.2 70.55 66.05 72.3 Q66.05 75.8 66.35 77.3 L66.35 77.9 66.25 77.9 Q65.15 76.35 64.15 74.1 63.25 72.0 63.05 70.7 62.95 71.25 61.95 72.0 L62.15 67.75 61.1 60.7 Q60.75 60.9 60.75 63.6 L60.4 68.95 60.1 73.2 Q57.85 74.5 55.65 75.1 53.15 75.7 50.95 77.9 L50.7 76.15 Q53.6 73.4 55.1 69.35 56.5 65.75 56.5 62.1 L56.9 59.85 56.85 59.55 56.7 59.5 Q55.8 60.8 54.95 63.4 L53.65 67.55 50.6 75.65 50.55 75.5 50.35 73.0 Q50.35 71.8 50.7 69.7 L50.95 68.25 51.05 67.5 47.4 69.65 43.3 71.65 Q45.55 69.75 47.35 67.45 51.3 62.5 51.5 57.95 50.1 59.0 48.2 62.0 L44.95 66.6 41.2 71.1 39.05 73.25 35.25 73.9 33.7 74.15 32.55 74.4 32.25 74.3 Q32.5 72.75 33.45 70.65 L33.7 70.0 Q35.05 67.05 36.35 66.5 L36.25 66.5 32.6 67.85 29.1 68.3 27.25 68.05 26.95 68.0 30.5 66.15 Q32.85 64.65 35.3 61.9 34.2 62.15 32.55 63.35 L29.9 65.25 26.35 67.15 25.15 67.85 Q23.45 68.05 21.65 69.3 L21.65 68.6 22.4 66.65 23.35 64.2 Q24.1 62.65 25.55 61.3 L25.45 61.3 21.0 62.0 Q17.8 62.65 17.05 63.3 16.7 61.65 16.65 60.0 L16.9 58.6 16.95 57.5 Q17.05 54.95 16.55 52.4 13.75 50.25 11.95 47.2 13.5 43.5 15.95 40.35 M88.9 27.3 Q89.6 28.75 89.35 30.0 89.6 28.75 88.9 27.3 M88.8 29.35 L88.15 28.7 Q84.15 24.95 80.4 27.75 79.25 28.55 78.15 30.0 L78.0 30.2 77.55 30.85 77.2 31.3 76.8 31.85 76.25 32.15 76.2 32.7 76.3 33.6 75.7 33.25 Q75.55 33.8 75.55 34.35 75.55 36.45 78.05 37.9 78.9 38.4 79.8 38.7 L82.35 39.1 Q84.15 39.1 86.0 38.2 87.4 37.75 88.5 36.55 87.4 37.75 86.0 38.2 L88.05 36.9 88.5 36.55 Q90.85 34.6 90.85 32.8 L90.4 31.7 90.2 31.05 90.4 31.7 90.15 31.35 90.1 31.3 90.2 31.05 89.45 30.1 89.35 30.0 88.9 29.45 88.8 29.35 M79.7 42.9 L78.8 44.1 78.15 43.9 76.9 43.6 Q78.95 42.6 79.8 38.7 78.95 42.6 76.9 43.6 L78.15 43.9 78.8 44.1 79.7 42.9 M89.6 41.05 L89.45 41.05 87.65 45.45 Q87.2 46.6 87.2 48.9 L87.45 51.7 87.6 53.3 Q87.85 54.85 88.55 54.85 88.85 54.85 88.85 54.4 L88.75 53.7 88.45 52.65 88.2 50.8 87.8 47.1 88.1 45.7 88.8 44.25 89.7 41.4 89.6 41.05 M90.55 38.75 L89.85 37.8 90.55 38.75 M90.95 44.35 Q89.8 46.05 89.6 47.1 L89.5 49.7 89.6 52.45 Q90.05 52.25 90.05 49.8 L90.1 47.3 Q90.25 46.4 91.2 44.5 L90.95 44.35 M84.9 47.7 Q84.25 47.25 83.8 47.35 L83.8 47.55 84.45 48.25 84.45 48.55 Q84.55 48.85 85.1 48.85 85.5 48.85 85.5 48.5 85.5 48.2 84.9 47.7 M83.3 55.5 L82.95 55.5 82.95 56.25 83.15 57.1 83.25 59.3 83.75 61.95 84.4 64.45 Q85.1 65.85 87.2 66.75 L87.2 66.7 87.25 66.55 86.5 65.2 Q85.6 64.3 85.5 63.85 L84.45 61.05 83.3 55.5 M84.1 52.0 L83.5 50.35 Q81.5 47.75 80.5 47.45 L80.45 47.7 Q80.45 48.2 81.35 49.2 L82.65 50.7 Q83.55 52.5 84.7 53.65 L84.1 52.0 M81.9 55.55 L81.95 55.3 Q81.95 54.55 80.35 52.55 L78.65 50.6 76.55 48.25 75.8 47.0 75.0 45.85 74.95 45.85 74.95 45.8 74.9 45.9 75.25 47.2 75.7 48.3 Q76.35 49.5 77.6 50.75 L79.9 53.6 Q81.5 55.6 81.8 55.6 L81.9 55.55 M86.95 56.8 L86.95 53.6 86.95 56.8 M81.05 61.95 L81.65 65.15 Q82.1 66.9 82.95 68.25 L85.3 71.3 Q87.85 74.2 89.55 74.2 L90.0 74.15 90.0 74.05 Q84.05 67.7 81.35 61.85 L81.05 61.95 M89.95 68.3 L86.05 63.4 89.95 68.3 M89.35 70.85 L88.0 69.3 89.35 70.85 M90.55 71.85 L91.15 72.3 90.55 71.85 M91.9 66.75 L92.75 67.85 92.95 67.8 Q92.95 67.05 92.4 66.15 91.8 65.15 91.15 65.4 91.15 65.85 91.9 66.75 M88.05 62.0 L90.85 56.7 88.05 62.0 M95.45 70.0 L95.05 68.25 95.45 70.0 M87.45 60.7 L91.35 49.0 87.45 60.7 M63.35 21.75 L63.3 22.0 63.5 24.05 63.7 25.1 63.9 26.15 64.1 28.95 Q64.15 29.6 64.75 30.3 L64.85 31.0 Q64.9 31.5 65.2 31.65 L65.25 31.55 65.35 29.6 Q65.0 28.1 65.0 27.65 L64.65 26.65 64.3 25.7 64.0 23.65 63.5 21.75 63.35 21.75 M69.9 14.35 L70.25 14.4 74.0 14.6 77.55 15.05 81.4 15.8 Q78.55 14.15 71.55 14.0 L71.8 13.95 71.75 13.85 70.45 13.6 69.3 13.5 63.35 14.1 57.45 14.7 50.45 14.1 43.35 13.65 36.15 13.65 30.4 14.55 30.55 14.6 43.3 14.25 48.55 14.6 50.8 15.05 54.0 15.55 57.6 15.9 64.95 15.1 69.9 14.35 M63.35 12.3 L65.1 12.05 67.25 11.85 69.25 11.9 69.7 11.6 Q68.05 10.85 66.25 11.0 L58.2 11.75 53.45 11.5 48.55 11.2 46.5 11.5 46.95 11.65 49.55 11.65 52.55 12.05 54.5 12.4 58.5 12.65 60.55 12.55 63.35 12.3 M57.25 34.3 Q57.25 33.45 56.9 33.0 L56.55 33.75 56.3 34.9 Q56.3 37.25 56.45 37.8 56.7 38.8 58.35 40.7 L58.55 40.6 58.55 40.0 57.8 38.5 Q57.45 37.7 57.5 37.15 L57.5 35.7 57.4 34.8 57.25 34.3 M52.75 37.1 L52.7 36.55 52.15 35.25 Q51.75 34.55 51.2 34.5 L51.15 34.7 51.85 37.1 Q52.0 38.05 52.35 38.3 L53.05 38.95 Q53.55 39.4 54.0 39.4 L54.35 39.1 53.2 37.8 52.75 37.1 M57.55 23.4 L57.1 20.55 57.0 20.55 56.9 21.3 57.05 22.05 57.2 22.95 56.55 28.7 56.8 30.15 56.5 31.5 56.65 31.85 57.0 31.2 57.0 30.55 57.55 29.1 57.9 26.2 57.75 25.05 57.55 23.4 M51.35 20.8 Q51.05 21.05 51.05 22.25 L51.25 24.8 Q51.25 25.65 49.9 27.65 L48.5 29.55 48.55 29.85 Q48.7 30.15 49.05 30.15 50.5 30.15 52.45 26.4 L52.25 26.1 51.2 27.0 Q52.0 25.1 52.0 23.25 L51.85 21.9 Q51.7 20.9 51.35 20.8 M44.35 19.8 L44.4 19.75 44.2 19.55 Q43.55 19.2 40.9 18.9 L37.15 18.45 34.9 18.8 33.05 19.1 Q30.9 19.45 30.9 19.75 L31.05 20.0 36.95 18.85 44.35 19.8 M44.9 11.8 L45.4 11.6 45.25 11.5 43.15 11.5 41.95 11.8 42.15 11.95 44.9 11.8 M59.85 33.7 Q60.3 35.1 60.25 38.25 59.95 40.0 60.35 41.95 L58.85 41.75 58.35 41.8 57.1 41.9 Q55.45 39.65 55.05 36.45 54.6 33.2 52.4 30.45 54.6 33.2 55.05 36.45 55.45 39.65 57.1 41.9 L58.35 41.8 58.85 41.75 60.35 41.95 Q59.95 40.0 60.25 38.25 60.3 35.1 59.85 33.7 M43.15 27.75 Q43.8 26.4 43.95 24.85 43.8 26.4 43.15 27.75 37.7 24.05 32.15 25.25 L29.5 26.05 Q28.95 26.25 28.45 26.55 27.75 26.85 27.1 27.3 26.45 28.35 26.45 29.35 26.45 31.65 28.4 33.55 L29.05 34.1 Q31.6 36.1 34.9 36.1 L38.5 35.65 41.35 34.7 Q45.35 33.05 45.35 30.8 45.35 29.8 44.95 28.95 L44.65 28.5 44.3 28.35 43.6 28.0 43.15 27.75 M48.25 22.0 Q49.0 26.25 46.6 28.7 L44.65 28.5 46.6 28.7 Q49.0 26.25 48.25 22.0 M47.7 39.15 L46.75 37.9 45.75 36.9 Q46.25 38.25 47.3 39.4 49.2 41.85 50.2 41.85 50.8 41.85 50.8 41.3 L50.35 40.7 49.45 40.2 47.7 39.15 M40.2 49.9 Q41.35 48.15 43.4 46.65 45.25 45.3 45.75 43.55 L47.45 43.25 49.25 42.95 46.75 40.45 49.25 42.95 51.15 42.65 53.5 42.3 Q51.75 41.45 51.15 40.25 49.4 36.75 46.8 33.9 49.4 36.75 51.15 40.25 51.75 41.45 53.5 42.3 L51.15 42.65 49.25 42.95 47.45 43.25 45.75 43.55 Q45.25 45.3 43.4 46.65 41.35 48.15 40.2 49.9 M49.4 47.25 L48.65 48.3 47.05 50.9 44.9 53.0 Q43.6 54.35 43.4 55.25 L46.0 53.65 Q47.45 52.5 48.1 51.35 L48.4 50.2 48.65 49.2 48.7 49.15 48.85 48.95 48.9 48.9 49.2 48.45 50.0 47.4 50.85 46.4 50.95 46.3 51.7 45.4 51.6 45.3 51.55 45.35 51.55 45.4 50.95 45.9 50.35 46.45 51.45 44.8 51.4 44.7 Q51.05 44.75 50.85 45.05 L50.5 45.65 49.75 46.7 49.4 47.25 M41.55 46.15 L41.5 46.05 Q40.95 46.25 40.0 46.9 L38.8 47.95 37.5 50.0 Q37.2 50.4 36.95 52.0 L36.4 54.15 36.45 54.25 38.75 50.25 39.65 48.15 Q40.2 47.05 41.55 46.15 M44.35 48.3 L44.3 48.15 Q43.25 48.5 42.5 49.55 L41.5 51.4 Q40.85 52.45 40.65 53.2 L39.9 55.0 41.65 53.5 42.6 51.8 43.35 50.1 Q44.35 48.8 44.35 48.3 M41.05 41.95 L42.8 42.35 43.25 42.1 Q43.1 41.5 41.45 40.85 L39.9 40.5 38.65 40.2 36.85 39.05 Q35.85 38.4 34.85 38.05 L34.8 38.05 36.35 39.15 37.6 40.25 Q38.15 41.1 39.75 41.5 L41.05 41.95 M55.1 42.1 L54.2 42.25 53.5 42.3 54.2 42.25 55.1 42.1 53.5 39.9 55.1 42.1 56.2 42.0 57.1 41.9 56.2 42.0 55.1 42.1 M38.5 37.0 Q41.4 38.35 43.5 40.35 44.9 41.9 47.45 43.25 44.9 41.9 43.5 40.35 41.4 38.35 38.5 37.0 M45.75 43.55 L41.4 44.45 45.75 43.55 M45.7 48.7 Q46.35 46.75 48.4 45.1 50.05 43.95 51.15 42.65 50.05 43.95 48.4 45.1 46.35 46.75 45.7 48.7 M59.5 48.5 Q59.2 48.5 59.1 49.1 L59.0 49.95 Q58.35 51.25 58.45 51.6 58.1 53.95 58.1 54.9 58.1 56.4 58.7 56.85 L59.3 53.9 59.5 50.4 59.65 48.9 59.5 48.5 M55.2 47.8 L55.4 46.65 55.4 46.5 55.3 46.5 Q54.6 47.05 54.2 48.9 L53.5 51.45 53.25 56.55 53.35 56.9 54.0 55.65 54.4 54.35 54.6 53.1 54.65 51.8 54.7 50.2 54.75 50.0 54.8 50.0 55.2 48.75 55.55 48.0 55.95 47.0 55.9 46.95 56.75 45.05 56.1 45.95 55.45 47.15 55.2 47.8 M55.05 44.25 L56.2 42.0 55.05 44.25 M51.7 51.05 Q52.7 48.8 53.0 46.3 53.05 44.15 54.2 42.25 53.05 44.15 53.0 46.3 52.7 48.8 51.7 51.05 M56.65 54.6 Q56.75 50.4 57.65 48.2 59.5 43.85 58.35 41.8 59.5 43.85 57.65 48.2 56.75 50.4 56.65 54.6 M80.4 27.75 L79.85 26.45 80.4 27.75 M72.25 33.0 Q72.75 32.95 72.75 32.5 L71.7 31.65 Q70.65 30.95 70.65 30.2 L70.75 30.0 70.85 29.8 70.25 27.0 Q70.25 25.75 69.65 25.7 69.1 25.65 69.1 27.0 L69.5 30.0 Q69.75 32.15 72.25 33.0 M77.55 30.85 Q76.25 29.5 75.5 26.95 76.25 29.5 77.55 30.85 M72.55 23.6 Q70.95 28.9 72.9 31.2 74.3 32.8 76.05 32.2 L76.25 32.15 76.05 32.2 Q74.3 32.8 72.9 31.2 70.95 28.9 72.55 23.6 M67.45 36.05 Q67.45 34.35 67.05 34.15 66.6 34.6 66.5 35.3 L66.4 36.4 66.6 39.55 66.45 40.25 66.25 41.2 Q66.25 41.45 66.35 41.3 L66.9 39.95 67.15 38.7 67.45 36.05 M62.1 34.65 L61.7 36.7 61.4 39.0 61.45 39.6 Q61.6 40.15 62.1 40.15 62.5 40.15 62.5 39.7 L62.25 38.2 62.55 35.55 62.45 35.1 62.25 34.65 62.1 34.65 M63.65 53.35 Q62.85 51.2 63.0 48.9 L63.75 45.75 Q63.9 43.8 63.25 42.35 L62.45 42.25 63.05 40.15 62.45 42.25 63.25 42.35 64.35 42.55 63.25 42.35 Q63.9 43.8 63.75 45.75 L63.0 48.9 Q62.85 51.2 63.65 53.35 M62.45 42.25 L61.05 42.05 60.35 41.95 61.05 42.05 62.45 42.25 M68.75 42.9 L67.3 42.95 66.55 43.0 64.35 42.55 Q65.25 38.05 64.1 32.2 65.25 38.05 64.35 42.55 L66.55 43.0 67.3 42.95 68.75 42.9 Q69.55 39.6 68.9 35.6 69.55 39.6 68.75 42.9 L70.8 42.8 Q71.6 41.2 71.9 38.9 71.6 41.2 70.8 42.8 L68.75 42.9 M65.0 46.8 L64.8 48.8 64.7 50.8 Q64.7 52.5 65.15 54.3 65.65 56.3 66.55 57.65 L66.7 56.8 65.25 50.5 65.1 46.8 65.0 46.8 M69.75 51.5 L68.6 49.2 Q68.0 48.25 67.95 47.25 68.1 45.05 67.3 42.95 68.1 45.05 67.95 47.25 68.0 48.25 68.6 49.2 L69.75 51.5 M70.1 44.8 Q69.85 44.8 69.85 45.8 69.85 47.25 70.9 48.95 L73.05 52.35 73.1 52.3 73.15 52.1 72.4 50.1 71.4 47.85 71.0 46.7 70.65 45.7 Q70.55 44.8 70.1 44.8 M60.75 47.75 Q61.45 45.15 61.05 42.05 61.45 45.15 60.75 47.75 M74.6 37.95 L74.6 37.8 74.5 37.8 Q74.0 38.05 73.65 38.9 L73.1 40.2 73.85 39.2 74.6 37.95 M77.4 37.5 Q76.95 37.4 76.85 37.95 L76.85 38.85 Q76.75 41.0 75.7 42.2 L75.95 42.35 77.4 40.75 77.7 39.2 Q77.7 37.85 77.4 37.5 M74.7 44.3 L74.05 43.0 72.9 42.8 72.1 42.7 71.7 42.75 70.8 42.8 71.7 42.75 72.1 42.7 72.9 42.8 Q73.25 41.3 75.15 39.95 73.25 41.3 72.9 42.8 L74.05 43.0 75.2 43.2 76.9 43.6 75.2 43.2 74.05 43.0 74.7 44.3 M76.25 53.35 Q74.05 50.9 73.05 47.9 72.85 45.5 71.7 42.75 72.85 45.5 73.05 47.9 74.05 50.9 76.25 53.35 M75.2 43.2 L79.5 48.45 75.2 43.2 M84.0 49.35 L80.95 46.55 78.15 43.9 80.95 46.55 84.0 49.35 M78.8 44.1 L79.75 44.35 83.2 45.65 79.75 44.35 78.8 44.1 M55.55 26.9 L55.0 21.4 55.55 26.9 M61.4 28.35 L61.9 22.45 61.4 28.35 M68.55 30.65 Q66.05 25.85 65.8 21.2 66.05 25.85 68.55 30.65 M59.3 28.8 L59.45 21.55 59.3 28.8 M19.05 54.1 Q17.7 53.35 16.55 52.4 17.7 53.35 19.05 54.1 M18.85 44.45 L18.8 44.6 19.4 45.6 20.25 47.2 Q21.05 49.1 21.55 49.8 L22.45 51.1 23.65 52.45 25.2 55.05 25.3 54.85 24.35 52.45 Q23.3 50.3 22.65 49.45 21.5 48.05 20.85 46.75 19.55 44.6 18.85 44.45 M25.95 28.0 Q25.75 26.35 26.2 25.25 25.75 26.35 25.95 28.0 L27.1 27.3 25.95 28.0 23.25 30.15 25.95 28.0 M30.55 38.55 L30.5 38.9 Q30.5 39.3 31.35 41.5 L32.55 44.4 Q33.5 45.95 33.5 50.05 33.5 51.9 32.6 55.0 L31.15 57.35 29.2 59.85 Q32.3 57.4 33.45 55.2 34.45 53.3 34.45 50.55 34.45 47.3 33.75 45.5 32.25 42.4 30.7 38.55 L30.55 38.55 M23.4 37.75 L23.35 37.9 Q23.35 38.6 24.7 41.2 L25.8 44.5 26.8 47.8 27.25 49.5 Q27.55 50.5 28.2 51.05 L28.25 50.7 Q28.25 48.35 26.4 43.7 24.8 39.7 23.5 37.75 L23.4 37.75 M27.6 40.85 L27.45 41.15 28.85 44.7 Q30.25 47.75 30.25 48.35 L29.85 51.2 Q29.4 53.2 29.4 54.0 L29.6 54.9 Q30.5 53.65 30.6 52.2 L30.95 49.35 30.7 47.6 29.55 45.15 27.6 40.85 M20.55 35.4 L19.4 36.45 20.55 35.4 M30.9 54.85 L30.65 53.75 30.9 54.85 M23.1 57.8 L23.15 57.55 Q22.25 55.8 21.65 55.85 L21.65 56.0 22.05 56.95 Q22.5 57.9 22.9 57.9 L23.1 57.8 M35.4 57.9 L32.3 60.3 26.4 64.55 26.6 64.6 29.85 62.85 Q30.9 62.4 33.25 60.8 L36.35 58.4 37.6 57.15 Q38.4 56.3 38.3 55.85 L35.4 57.9 M29.3 60.65 L25.85 53.35 29.3 60.65 M37.85 67.3 Q35.75 69.2 33.45 70.65 35.75 69.2 37.85 67.3 M39.15 65.1 L39.65 65.35 44.35 61.45 Q47.65 57.6 47.65 56.85 L47.6 56.55 47.55 56.65 Q46.5 56.9 44.95 58.4 43.75 59.55 42.85 60.9 L41.0 63.05 39.15 65.1 M53.1 61.8 Q52.75 65.2 50.95 68.25 52.75 65.2 53.1 61.8 M39.75 61.35 Q36.1 64.85 31.75 67.55 36.1 64.85 39.75 61.35 M78.35 54.25 L77.0 52.85 78.35 54.25 M74.85 60.4 L75.0 61.8 75.15 62.95 Q75.3 63.55 76.1 64.55 L77.0 65.5 77.15 65.45 77.15 65.4 77.2 65.25 76.3 63.0 75.7 60.6 Q74.85 57.75 74.5 55.85 L74.4 55.85 74.35 56.3 74.6 58.35 74.85 60.4 M71.2 55.55 L71.3 55.1 70.95 54.15 Q70.55 53.3 70.2 53.15 L70.2 53.2 70.15 53.4 70.5 54.5 Q70.6 55.2 71.2 55.55 M68.5 54.25 L66.85 50.5 68.5 54.25 M48.85 53.25 L50.1 50.9 48.85 53.25 M64.65 74.5 L63.25 60.4 64.65 74.5 M56.05 74.3 Q58.15 67.35 58.25 63.1 58.15 67.35 56.05 74.3 M72.95 76.3 Q67.7 71.05 67.15 63.8 67.7 71.05 72.95 76.3 M26.4 59.85 Q23.25 52.25 17.9 47.55 23.25 52.25 26.4 59.85 M29.6 56.85 L23.35 44.65 29.6 56.85 M45.85 63.2 Q42.7 66.75 38.6 69.55 42.7 66.75 45.85 63.2 M85.05 73.8 Q80.2 69.25 78.75 65.1 80.2 69.25 85.05 73.8 M83.45 42.3 Q82.85 43.7 79.75 44.35 82.85 43.7 83.45 42.3" fill="#a7ccc3" fill-rule="evenodd" stroke="none"/>
      <path d="M83.8 18.8 L83.85 18.95 83.15 19.2 80.0 18.6 74.7 17.95 70.25 18.6 61.55 19.4 58.25 19.4 49.85 18.15 48.35 17.9 44.45 17.6 41.25 17.45 35.3 17.4 35.3 17.2 40.6 16.85 Q44.65 16.7 49.15 17.05 L58.25 18.25 61.55 18.2 73.65 17.2 78.6 17.75 83.6 18.7 83.8 18.8 M85.05 21.45 L85.35 21.75 85.0 22.1 Q84.1 22.1 83.5 21.3 L83.5 21.15 84.0 21.15 85.05 21.45 M81.35 20.95 L78.7 20.5 72.1 20.7 71.0 20.95 70.65 20.9 70.55 20.8 Q70.85 20.35 74.55 19.8 L78.65 19.8 82.05 20.8 81.35 20.95 M89.6 41.05 L89.7 41.4 88.8 44.25 88.1 45.7 87.8 47.1 88.2 50.8 88.45 52.65 88.75 53.7 88.85 54.4 Q88.85 54.85 88.55 54.85 87.85 54.85 87.6 53.3 L87.45 51.7 87.2 48.9 Q87.2 46.6 87.65 45.45 L89.45 41.05 89.6 41.05 M84.9 47.7 Q85.5 48.2 85.5 48.5 85.5 48.85 85.1 48.85 84.55 48.85 84.45 48.55 L84.45 48.25 83.8 47.55 83.8 47.35 Q84.25 47.25 84.9 47.7 M90.95 44.35 L91.2 44.5 Q90.25 46.4 90.1 47.3 L90.05 49.8 Q90.05 52.25 89.6 52.45 L89.5 49.7 89.6 47.1 Q89.8 46.05 90.95 44.35 M81.9 55.55 L81.8 55.6 Q81.5 55.6 79.9 53.6 L77.6 50.75 Q76.35 49.5 75.7 48.3 L75.25 47.2 74.9 45.9 74.95 45.8 74.95 45.85 75.0 45.85 75.8 47.0 76.55 48.25 78.65 50.6 80.35 52.55 Q81.95 54.55 81.95 55.3 L81.9 55.55 M84.1 52.0 L84.7 53.65 Q83.55 52.5 82.65 50.7 L81.35 49.2 Q80.45 48.2 80.45 47.7 L80.5 47.45 Q81.5 47.75 83.5 50.35 L84.1 52.0 M83.3 55.5 L84.45 61.05 85.5 63.85 Q85.6 64.3 86.5 65.2 L87.25 66.55 87.2 66.7 87.2 66.75 Q85.1 65.85 84.4 64.45 L83.75 61.95 83.25 59.3 83.15 57.1 82.95 56.25 82.95 55.5 83.3 55.5 M81.05 61.95 L81.35 61.85 Q84.05 67.7 90.0 74.05 L90.0 74.15 89.55 74.2 Q87.85 74.2 85.3 71.3 L82.95 68.25 Q82.1 66.9 81.65 65.15 L81.05 61.95 M81.7 73.5 L82.1 74.05 81.35 73.4 78.95 70.75 Q77.35 68.6 76.75 66.95 L76.9 66.95 81.7 73.5 M75.0 71.6 L75.75 72.65 77.35 74.45 Q78.35 75.75 78.35 76.4 78.65 76.5 78.15 76.5 77.6 76.5 76.75 75.95 L75.4 74.95 73.65 73.25 71.9 69.65 70.95 66.1 70.15 62.35 70.25 61.9 70.35 61.7 Q71.1 62.65 72.0 64.95 L73.6 68.9 74.55 70.7 75.0 71.6 M67.6 70.9 L68.3 72.75 Q69.15 74.9 69.15 76.0 L69.95 78.25 69.85 78.35 Q67.3 75.6 66.65 73.7 66.25 72.65 66.2 70.55 L66.15 69.2 66.15 68.8 66.1 68.3 65.85 66.7 65.55 64.6 65.75 63.55 65.9 63.55 67.2 69.85 67.6 70.9 M61.95 72.0 L61.75 74.1 Q61.25 78.55 60.75 79.75 L60.65 79.85 60.15 77.55 60.05 75.75 60.1 73.2 60.4 68.95 60.75 63.6 Q60.75 60.9 61.1 60.7 L62.15 67.75 61.95 72.0 M50.7 76.15 L50.55 76.25 Q50.45 76.5 50.45 76.0 L50.6 75.65 53.65 67.55 54.95 63.4 Q55.8 60.8 56.7 59.5 L56.85 59.55 56.9 59.85 56.5 62.1 Q56.5 65.75 55.1 69.35 53.6 73.4 50.7 76.15 M91.9 66.75 Q91.15 65.85 91.15 65.4 91.8 65.15 92.4 66.15 92.95 67.05 92.95 67.8 L92.75 67.85 91.9 66.75 M63.35 12.3 L60.55 12.55 58.5 12.65 54.5 12.4 52.55 12.05 49.55 11.65 46.95 11.65 46.5 11.5 48.55 11.2 53.45 11.5 58.2 11.75 66.25 11.0 Q68.05 10.85 69.7 11.6 L69.25 11.9 67.25 11.85 65.1 12.05 63.35 12.3 M69.9 14.35 L64.95 15.1 57.6 15.9 54.0 15.55 50.8 15.05 48.55 14.6 43.3 14.25 30.55 14.6 30.4 14.55 36.15 13.65 43.35 13.65 50.45 14.1 57.45 14.7 63.35 14.1 69.3 13.5 70.45 13.6 71.75 13.85 71.8 13.95 71.55 14.0 Q78.55 14.15 81.4 15.8 L77.55 15.05 74.0 14.6 70.25 14.4 69.9 14.35 M63.35 21.75 L63.5 21.75 64.0 23.65 64.3 25.7 64.65 26.65 65.0 27.65 Q65.0 28.1 65.35 29.6 L65.25 31.55 65.2 31.65 Q64.9 31.5 64.85 31.0 L64.75 30.3 Q64.15 29.6 64.1 28.95 L63.9 26.15 63.7 25.1 63.5 24.05 63.3 22.0 63.35 21.75 M44.9 11.8 L42.15 11.95 41.95 11.8 43.15 11.5 45.25 11.5 45.4 11.6 44.9 11.8 M44.35 19.8 L36.95 18.85 31.05 20.0 30.9 19.75 Q30.9 19.45 33.05 19.1 L34.9 18.8 37.15 18.45 40.9 18.9 Q43.55 19.2 44.2 19.55 L44.4 19.75 44.35 19.8 M51.35 20.8 Q51.7 20.9 51.85 21.9 L52.0 23.25 Q52.0 25.1 51.2 27.0 L52.25 26.1 52.45 26.4 Q50.5 30.15 49.05 30.15 48.7 30.15 48.55 29.85 L48.5 29.55 49.9 27.65 Q51.25 25.65 51.25 24.8 L51.05 22.25 Q51.05 21.05 51.35 20.8 M57.55 23.4 L57.75 25.05 57.9 26.2 57.55 29.1 57.0 30.55 57.0 31.2 56.65 31.85 56.5 31.5 56.8 30.15 56.55 28.7 57.2 22.95 57.05 22.05 56.9 21.3 57.0 20.55 57.1 20.55 57.55 23.4 M52.75 37.1 L53.2 37.8 54.35 39.1 54.0 39.4 Q53.55 39.4 53.05 38.95 L52.35 38.3 Q52.0 38.05 51.85 37.1 L51.15 34.7 51.2 34.5 Q51.75 34.55 52.15 35.25 L52.7 36.55 52.75 37.1 M57.25 34.3 L57.4 34.8 57.5 35.7 57.5 37.15 Q57.45 37.7 57.8 38.5 L58.55 40.0 58.55 40.6 58.35 40.7 Q56.7 38.8 56.45 37.8 56.3 37.25 56.3 34.9 L56.55 33.75 56.9 33.0 Q57.25 33.45 57.25 34.3 M47.7 39.15 L49.45 40.2 50.35 40.7 50.8 41.3 Q50.8 41.85 50.2 41.85 49.2 41.85 47.3 39.4 46.25 38.25 45.75 36.9 L46.75 37.9 47.7 39.15 M41.05 41.95 L39.75 41.5 Q38.15 41.1 37.6 40.25 L36.35 39.15 34.8 38.05 34.85 38.05 Q35.85 38.4 36.85 39.05 L38.65 40.2 39.9 40.5 41.45 40.85 Q43.1 41.5 43.25 42.1 L42.8 42.35 41.05 41.95 M44.35 48.3 Q44.35 48.8 43.35 50.1 L42.6 51.8 41.65 53.5 39.9 55.0 40.65 53.2 Q40.85 52.45 41.5 51.4 L42.5 49.55 Q43.25 48.5 44.3 48.15 L44.35 48.3 M41.55 46.15 Q40.2 47.05 39.65 48.15 L38.75 50.25 36.45 54.25 36.4 54.15 36.95 52.0 Q37.2 50.4 37.5 50.0 L38.8 47.95 40.0 46.9 Q40.95 46.25 41.5 46.05 L41.55 46.15 M49.4 47.25 L49.75 46.7 50.5 45.65 50.85 45.05 Q51.05 44.75 51.4 44.7 L51.45 44.8 50.35 46.45 50.95 45.9 51.55 45.4 51.55 45.35 51.6 45.3 51.7 45.4 50.95 46.3 50.85 46.4 50.0 47.4 49.2 48.45 48.9 48.9 48.85 48.95 48.7 49.15 48.65 49.2 48.4 50.2 48.1 51.35 Q47.45 52.5 46.0 53.65 L43.4 55.25 Q43.6 54.35 44.9 53.0 L47.05 50.9 48.65 48.3 49.4 47.25 M55.2 47.8 L55.45 47.15 56.1 45.95 56.75 45.05 55.9 46.95 55.95 47.0 55.55 48.0 55.2 48.75 54.8 50.0 54.75 50.0 54.7 50.2 54.65 51.8 54.6 53.1 54.4 54.35 54.0 55.65 53.35 56.9 53.25 56.55 53.5 51.45 54.2 48.9 Q54.6 47.05 55.3 46.5 L55.4 46.5 55.4 46.65 55.2 47.8 M59.5 48.5 L59.65 48.9 59.5 50.4 59.3 53.9 58.7 56.85 Q58.1 56.4 58.1 54.9 58.1 53.95 58.45 51.6 58.35 51.25 59.0 49.95 L59.1 49.1 Q59.2 48.5 59.5 48.5 M72.25 33.0 Q69.75 32.15 69.5 30.0 L69.1 27.0 Q69.1 25.65 69.65 25.7 70.25 25.75 70.25 27.0 L70.85 29.8 70.75 30.0 70.65 30.2 Q70.65 30.95 71.7 31.65 L72.75 32.5 Q72.75 32.95 72.25 33.0 M62.1 34.65 L62.25 34.65 62.45 35.1 62.55 35.55 62.25 38.2 62.5 39.7 Q62.5 40.15 62.1 40.15 61.6 40.15 61.45 39.6 L61.4 39.0 61.7 36.7 62.1 34.65 M67.45 36.05 L67.15 38.7 66.9 39.95 66.35 41.3 Q66.25 41.45 66.25 41.2 L66.45 40.25 66.6 39.55 66.4 36.4 66.5 35.3 Q66.6 34.6 67.05 34.15 67.45 34.35 67.45 36.05 M65.0 46.8 L65.1 46.8 65.25 50.5 66.7 56.8 66.55 57.65 Q65.65 56.3 65.15 54.3 64.7 52.5 64.7 50.8 L64.8 48.8 65.0 46.8 M70.1 44.8 Q70.55 44.8 70.65 45.7 L71.0 46.7 71.4 47.85 72.4 50.1 73.15 52.1 73.1 52.3 73.05 52.35 70.9 48.95 Q69.85 47.25 69.85 45.8 69.85 44.8 70.1 44.8 M77.4 37.5 Q77.7 37.85 77.7 39.2 L77.4 40.75 75.95 42.35 75.7 42.2 Q76.75 41.0 76.85 38.85 L76.85 37.95 Q76.95 37.4 77.4 37.5 M74.6 37.95 L73.85 39.2 73.1 40.2 73.65 38.9 Q74.0 38.05 74.5 37.8 L74.6 37.8 74.6 37.95 M18.85 44.45 Q19.55 44.6 20.85 46.75 21.5 48.05 22.65 49.45 23.3 50.3 24.35 52.45 L25.3 54.85 25.2 55.05 23.65 52.45 22.45 51.1 21.55 49.8 Q21.05 49.1 20.25 47.2 L19.4 45.6 18.8 44.6 18.85 44.45 M27.6 40.85 L29.55 45.15 30.7 47.6 30.95 49.35 30.6 52.2 Q30.5 53.65 29.6 54.9 L29.4 54.0 Q29.4 53.2 29.85 51.2 L30.25 48.35 Q30.25 47.75 28.85 44.7 L27.45 41.15 27.6 40.85 M23.4 37.75 L23.5 37.75 Q24.8 39.7 26.4 43.7 28.25 48.35 28.25 50.7 L28.2 51.05 Q27.55 50.5 27.25 49.5 L26.8 47.8 25.8 44.5 24.7 41.2 Q23.35 38.6 23.35 37.9 L23.4 37.75 M30.55 38.55 L30.7 38.55 Q32.25 42.4 33.75 45.5 34.45 47.3 34.45 50.55 34.45 53.3 33.45 55.2 32.3 57.4 29.2 59.85 L31.15 57.35 32.6 55.0 Q33.5 51.9 33.5 50.05 33.5 45.95 32.55 44.4 L31.35 41.5 Q30.5 39.3 30.5 38.9 L30.55 38.55 M35.4 57.9 L38.3 55.85 Q38.4 56.3 37.6 57.15 L36.35 58.4 33.25 60.8 Q30.9 62.4 29.85 62.85 L26.6 64.6 26.4 64.55 32.3 60.3 35.4 57.9 M23.1 57.8 L22.9 57.9 Q22.5 57.9 22.05 56.95 L21.65 56.0 21.65 55.85 Q22.25 55.8 23.15 57.55 L23.1 57.8 M25.15 67.85 L26.35 67.15 29.9 65.25 32.55 63.35 Q34.2 62.15 35.3 61.9 32.85 64.65 30.5 66.15 L26.95 68.0 24.3 69.0 Q24.2 69.25 24.2 68.75 24.2 68.45 25.15 67.85 M39.15 65.1 L41.0 63.05 42.85 60.9 Q43.75 59.55 44.95 58.4 46.5 56.9 47.55 56.65 L47.6 56.55 47.65 56.85 Q47.65 57.6 44.35 61.45 L39.65 65.35 39.15 65.1 M39.05 73.25 L41.2 71.1 44.95 66.6 48.2 62.0 Q50.1 59.0 51.5 57.95 51.3 62.5 47.35 67.45 45.55 69.75 43.3 71.65 40.45 74.05 36.85 75.8 36.5 76.05 36.5 75.55 L38.2 74.0 39.05 73.25 M16.9 58.6 L16.65 60.0 16.65 59.55 16.9 58.6 M71.2 55.55 Q70.6 55.2 70.5 54.5 L70.15 53.4 70.2 53.2 70.2 53.15 Q70.55 53.3 70.95 54.15 L71.3 55.1 71.2 55.55 M74.85 60.4 L74.6 58.35 74.35 56.3 74.4 55.85 74.5 55.85 Q74.85 57.75 75.7 60.6 L76.3 63.0 77.2 65.25 77.15 65.4 77.15 65.45 77.0 65.5 76.1 64.55 Q75.3 63.55 75.15 62.95 L75.0 61.8 74.85 60.4" fill="#78aa9e" fill-rule="evenodd" stroke="none"/>
      <path d="M58.1 3.75 L59.55 3.8 Q74.3 6.05 85.65 15.4 88.55 18.3 89.75 23.0 L89.9 25.25 88.7 26.3 Q88.35 19.95 84.15 15.85 76.05 8.0 69.4 9.35 L70.55 7.9 Q68.65 8.1 66.75 9.3 L66.75 7.7 Q64.6 8.65 63.25 10.95 59.0 8.0 53.55 6.0 L55.75 9.15 Q50.25 6.65 42.75 6.0 L44.95 7.6 Q36.75 7.25 29.1 9.85 L33.65 11.05 Q28.8 11.25 26.15 14.25 L26.1 14.3 Q24.4 16.2 23.6 19.25 23.0 22.8 24.3 25.8 18.75 28.1 18.7 32.45 L19.4 36.45 Q17.5 38.3 15.95 40.35 13.5 43.5 11.95 47.2 13.75 50.25 16.55 52.4 17.05 54.95 16.95 57.5 L16.9 58.6 16.65 59.55 16.65 60.0 Q16.7 61.65 17.05 63.3 17.8 62.65 21.0 62.0 L25.45 61.3 25.55 61.3 Q24.1 62.65 23.35 64.2 L22.4 66.65 21.65 68.6 21.65 69.3 Q23.45 68.05 25.15 67.85 24.2 68.45 24.2 68.75 24.2 69.25 24.3 69.0 L26.95 68.0 27.25 68.05 29.1 68.3 32.6 67.85 36.25 66.5 36.35 66.5 Q35.05 67.05 33.7 70.0 L33.45 70.65 Q32.5 72.75 32.25 74.3 L32.55 74.4 33.7 74.15 35.25 73.9 39.05 73.25 38.2 74.0 36.5 75.55 Q36.5 76.05 36.85 75.8 40.45 74.05 43.3 71.65 L47.4 69.65 51.05 67.5 50.95 68.25 50.7 69.7 Q50.35 71.8 50.35 73.0 L50.55 75.5 50.6 75.65 50.45 76.0 Q50.45 76.5 50.55 76.25 L50.7 76.15 50.95 77.9 Q53.15 75.7 55.65 75.1 57.85 74.5 60.1 73.2 L60.05 75.75 60.15 77.55 60.65 79.85 60.75 79.75 Q61.25 78.55 61.75 74.1 L61.95 72.0 Q62.95 71.25 63.05 70.7 63.25 72.0 64.15 74.1 65.15 76.35 66.25 77.9 L66.35 77.9 66.35 77.3 Q66.05 75.8 66.05 72.3 L66.2 70.55 Q66.25 72.65 66.65 73.7 67.3 75.6 69.85 78.35 L69.95 78.25 69.15 76.0 Q69.15 74.9 68.3 72.75 L67.6 70.9 70.55 73.9 76.55 81.2 76.45 79.4 76.75 76.25 76.75 75.95 Q77.6 76.5 78.15 76.5 78.65 76.5 78.35 76.4 78.35 75.75 77.35 74.45 L75.75 72.65 75.0 71.6 81.35 73.4 82.1 74.05 81.7 73.5 83.65 73.95 Q89.6 75.35 91.55 77.6 L91.65 77.6 91.15 75.25 90.4 72.95 91.25 73.5 91.35 73.5 91.15 72.3 90.9 70.75 90.25 68.0 90.45 68.0 91.8 69.05 Q93.3 70.25 94.25 70.7 95.6 71.35 96.8 72.55 97.9 73.65 98.25 74.6 L98.35 74.6 Q97.6 72.45 95.3 68.7 L95.05 68.25 92.9 59.5 Q92.35 57.2 92.35 55.4 L94.7 60.85 99.0 67.7 101.55 71.5 Q103.15 74.35 104.05 77.6 105.0 81.2 104.6 83.2 L101.5 80.4 Q101.45 84.0 100.2 86.15 98.75 81.1 95.6 78.5 L95.3 80.25 Q94.25 84.0 95.35 87.9 L91.2 88.5 90.75 88.0 89.25 86.2 90.75 88.0 91.2 88.5 Q86.65 88.5 82.85 85.65 82.85 87.15 82.2 88.45 L78.15 84.55 Q79.15 90.2 74.65 95.6 73.65 91.6 70.9 89.95 66.8 87.65 64.05 83.8 61.05 90.1 54.55 92.2 54.75 90.2 53.75 87.35 52.45 85.15 51.95 82.4 51.4 83.75 49.65 84.85 L44.95 87.3 Q44.15 84.35 46.45 81.9 43.05 84.35 35.75 84.55 L32.9 84.5 Q28.4 84.8 26.2 87.45 23.05 80.6 25.2 76.05 L19.05 76.55 18.45 76.55 Q15.3 76.5 13.35 78.05 L12.7 78.6 Q8.55 71.4 13.95 66.1 11.1 66.95 9.3 68.85 8.15 64.85 10.9 62.35 15.4 60.0 16.95 57.5 15.4 60.0 10.9 62.35 8.15 64.85 9.3 68.85 11.1 66.95 13.95 66.1 8.55 71.4 12.7 78.6 L13.35 78.05 Q13.95 80.65 13.1 83.35 L12.5 81.75 Q11.8 85.2 8.85 86.4 9.1 84.5 8.9 81.55 5.85 84.55 4.85 88.7 0.2 81.8 3.3 74.25 L3.5 73.7 Q4.75 70.1 4.9 66.25 L0.0 70.35 Q0.8 65.95 3.75 62.4 5.7 60.5 7.0 57.75 10.0 52.6 11.4 45.7 12.2 41.85 12.4 37.95 13.25 33.85 13.45 29.75 L10.7 31.15 Q11.6 27.4 13.55 24.35 15.35 21.4 15.9 18.05 11.35 19.65 6.65 18.8 11.05 17.55 15.0 15.75 L19.3 13.6 15.65 13.1 21.45 12.3 Q23.15 11.15 25.1 10.2 L26.15 9.7 Q30.9 7.55 36.45 6.05 45.8 3.45 58.1 3.75 58.95 5.1 60.25 5.6 58.95 5.1 58.1 3.75 M92.95 73.3 L91.15 72.3 92.95 73.3 M44.35 75.25 Q48.75 71.95 50.95 68.25 48.75 71.95 44.35 75.25 M81.75 81.35 Q82.85 83.7 82.85 85.65 82.85 83.7 81.75 81.35 M95.65 76.2 L95.6 78.5 95.65 76.2 M101.55 71.5 L99.65 70.6 101.55 71.5 M18.05 15.4 L15.65 15.8 15.0 15.75 15.65 15.8 18.05 15.4 M14.05 29.4 L13.45 29.75 14.05 29.4 M15.95 40.35 L15.95 35.85 15.95 40.35 M16.55 27.05 Q16.9 24.0 17.6 21.5 16.9 24.0 16.55 27.05 M33.45 70.65 Q30.8 72.3 27.85 73.4 30.8 72.3 33.45 70.65 M5.65 70.6 L3.5 73.7 5.65 70.6 M19.25 75.6 L18.45 76.55 19.25 75.6 M38.65 82.2 Q37.05 83.0 35.75 84.55 37.05 83.0 38.65 82.2 M12.6 80.75 L12.5 81.75 12.6 80.75 M52.15 81.75 L51.95 82.4 52.15 81.75" fill="#effffb" fill-rule="evenodd" stroke="none"/>
      <path d="M88.8 29.35 L88.9 29.45 89.35 30.0 89.45 30.1 90.2 31.05 90.1 31.3 89.6 33.3 Q87.65 35.25 84.75 35.9 L80.55 35.7 Q78.6 35.05 76.3 33.6 L76.2 32.7 76.25 32.15 76.8 31.85 77.2 31.3 77.55 30.85 78.0 30.2 78.15 30.0 Q78.55 35.35 83.8 35.2 87.4 35.0 88.8 29.35 M43.6 28.0 L44.3 28.35 Q45.9 33.7 38.1 33.0 28.75 32.7 27.35 29.85 26.75 27.6 28.45 26.55 28.95 26.25 29.5 26.05 L32.15 25.25 Q30.45 32.1 37.15 32.3 42.25 32.6 43.6 28.0" fill="#008989" fill-rule="evenodd" stroke="none"/>
      <path d="M80.4 27.75 Q84.15 24.95 88.15 28.7 L88.8 29.35 Q87.4 35.0 83.8 35.2 78.55 35.35 78.15 30.0 79.25 28.55 80.4 27.75 M43.15 27.75 L43.6 28.0 Q42.25 32.6 37.15 32.3 30.45 32.1 32.15 25.25 37.7 24.05 43.15 27.75" fill="#00ffff" fill-rule="evenodd" stroke="none"/>
      <path d="M90.4 31.7 L90.85 32.8 Q90.85 34.6 88.5 36.55 L88.05 36.9 86.0 38.2 Q84.15 39.1 82.35 39.1 L79.8 38.7 Q78.9 38.4 78.05 37.9 75.55 36.45 75.55 34.35 75.55 33.8 75.7 33.25 L76.3 33.6 Q78.6 35.05 80.55 35.7 L84.75 35.9 Q87.65 35.25 89.6 33.3 L90.1 31.3 90.15 31.35 90.4 31.7 M44.3 28.35 L44.65 28.5 44.95 28.95 Q45.35 29.8 45.35 30.8 45.35 33.05 41.35 34.7 L38.5 35.65 Q33.05 35.65 28.4 33.55 26.45 31.65 26.45 29.35 26.45 28.35 27.1 27.3 27.75 26.85 28.45 26.55 26.75 27.6 27.35 29.85 28.75 32.7 38.1 33.0 45.9 33.7 44.3 28.35 M79.25 37.5 Q82.95 39.2 86.0 38.2 82.95 39.2 79.25 37.5" fill="#77a89b" fill-rule="evenodd" stroke="none"/>
      <path d="M38.5 35.65 L34.9 36.1 Q31.6 36.1 29.05 34.1 L28.4 33.55 Q33.05 35.65 38.5 35.65" fill="#8eb2b2" fill-rule="evenodd" stroke="none"/>
      <path d="M89.9 25.25 L89.75 23.0 Q88.55 18.3 85.65 15.4 74.3 6.05 59.55 3.8 L58.1 3.75 Q58.95 5.1 60.25 5.6 M15.95 40.35 Q17.5 38.3 19.4 36.45 L18.7 32.45 Q18.75 28.1 24.3 25.8 23.0 22.8 23.6 19.25 24.4 16.2 26.1 14.3 L26.15 14.25 Q28.8 11.25 33.65 11.05 L29.1 9.85 Q36.75 7.25 44.95 7.6 L42.75 6.0 Q50.25 6.65 55.75 9.15 L53.55 6.0 Q59.0 8.0 63.25 10.95 64.6 8.65 66.75 7.7 L66.75 9.3 Q68.65 8.1 70.55 7.9 L69.4 9.35 Q76.05 8.0 84.15 15.85 88.35 19.95 88.7 26.3 L89.9 25.25 90.1 28.55 Q91.3 29.9 91.8 32.45 91.3 34.3 90.1 35.5 L90.55 38.75 95.5 46.45 Q95.15 50.45 92.45 53.9 L92.35 55.4 94.7 60.85 99.0 67.7 101.55 71.5 Q101.8 71.6 101.9 71.65 103.95 72.75 104.85 74.0 M89.35 30.0 Q89.6 28.75 88.9 27.3 M80.4 27.75 Q84.15 24.95 88.15 28.7 L88.8 29.35 88.9 29.45 89.35 30.0 89.45 30.1 90.2 31.05 90.4 31.7 M88.5 36.55 Q87.4 37.75 86.0 38.2 82.95 39.2 79.25 37.5 M90.1 31.3 L90.2 31.05 M90.1 31.3 L89.6 33.3 Q87.65 35.25 84.75 35.9 L80.55 35.7 Q78.6 35.05 76.3 33.6 L75.7 33.25 M88.8 29.35 Q87.4 35.0 83.8 35.2 78.55 35.35 78.15 30.0 L78.0 30.2 77.55 30.85 77.2 31.3 76.8 31.85 76.25 32.15 76.2 32.7 76.3 33.6 M89.85 37.8 L90.55 38.75 M92.35 55.4 Q92.35 57.2 92.9 59.5 L95.05 68.25 95.45 70.0 M91.15 72.3 L92.95 73.3 M86.95 53.6 L86.95 56.8 M50.95 68.25 Q48.75 71.95 44.35 75.25 M91.15 72.3 L90.55 71.85 M88.0 69.3 L89.35 70.85 M86.05 63.4 L89.95 68.3 M90.85 56.7 L88.05 62.0 M101.55 71.5 Q103.15 74.35 104.05 77.6 105.0 81.2 104.6 83.2 L101.5 80.4 Q101.45 84.0 100.2 86.15 98.75 81.1 95.6 78.5 L95.3 80.25 Q94.25 84.0 95.35 87.9 L91.2 88.5 93.45 90.0 M95.6 78.5 L95.65 76.2 M82.85 85.65 Q82.85 83.7 81.75 81.35 M89.25 86.2 L90.75 88.0 91.2 88.5 Q86.65 88.5 82.85 85.65 82.85 87.15 82.2 88.45 L78.15 84.55 Q79.15 90.2 74.65 95.6 73.65 91.6 70.9 89.95 66.8 87.65 64.05 83.8 61.05 90.1 54.55 92.2 54.75 90.2 53.75 87.35 52.45 85.15 51.95 82.4 51.4 83.75 49.65 84.85 L44.95 87.3 Q44.15 84.35 46.45 81.9 43.05 84.35 35.75 84.55 L35.15 85.3 Q34.0 86.95 33.85 87.8 M99.65 70.6 L101.55 71.5 M91.35 49.0 L87.45 60.7 M56.85 0.0 Q57.25 2.35 58.1 3.75 45.8 3.45 36.45 6.05 30.9 7.55 26.15 9.7 L25.1 10.2 Q23.15 11.15 21.45 12.3 L15.65 13.1 19.3 13.6 15.0 15.75 15.65 15.8 18.05 15.4 M43.95 24.85 Q43.8 26.4 43.15 27.75 L43.6 28.0 44.3 28.35 44.65 28.5 46.6 28.7 Q49.0 26.25 48.25 22.0 M80.4 27.75 Q79.25 28.55 78.15 30.0 M79.85 26.45 L80.4 27.75 M76.25 32.15 L76.05 32.2 Q74.3 32.8 72.9 31.2 70.95 28.9 72.55 23.6 M75.5 26.95 Q76.25 29.5 77.55 30.85 M59.45 21.55 L59.3 28.8 M65.8 21.2 Q66.05 25.85 68.55 30.65 M61.9 22.45 L61.4 28.35 M55.0 21.4 L55.55 26.9 M15.0 15.75 Q11.05 17.55 6.65 18.8 11.35 19.65 15.9 18.05 15.35 21.4 13.55 24.35 11.6 27.4 10.7 31.15 L13.45 29.75 14.05 29.4 M13.25 15.0 Q13.85 15.6 15.0 15.75 M3.5 73.7 Q4.75 70.1 4.9 66.25 L0.0 70.35 Q0.8 65.95 3.75 62.4 5.7 60.5 7.0 57.75 10.0 52.6 11.4 45.7 12.2 41.85 12.4 37.95 13.25 33.85 13.45 29.75 M15.95 40.35 Q13.5 43.5 11.95 47.2 13.75 50.25 16.55 52.4 17.7 53.35 19.05 54.1 M15.95 35.85 L15.95 40.35 M43.6 28.0 Q42.25 32.6 37.15 32.3 30.45 32.1 32.15 25.25 L29.5 26.05 Q28.95 26.25 28.45 26.55 26.75 27.6 27.35 29.85 28.75 32.7 38.1 33.0 45.9 33.7 44.3 28.35 M38.5 35.65 Q33.05 35.65 28.4 33.55 M27.1 27.3 L25.95 28.0 23.25 30.15 M26.2 25.25 Q25.75 26.35 25.95 28.0 M28.45 26.55 Q27.75 26.85 27.1 27.3 M19.4 36.45 L20.55 35.4 M17.6 21.5 Q16.9 24.0 16.55 27.05 M30.65 53.75 L30.9 54.85 M33.45 70.65 Q35.75 69.2 37.85 67.3 M25.85 53.35 L29.3 60.65 M50.95 68.25 Q52.75 65.2 53.1 61.8 M31.75 67.55 Q36.1 64.85 39.75 61.35 M27.85 73.4 Q30.8 72.3 33.45 70.65 M16.55 52.4 Q17.05 54.95 16.95 57.5 L16.9 58.6 16.65 60.0 M3.5 73.7 L5.65 70.6 M16.95 57.5 Q15.4 60.0 10.9 62.35 8.15 64.85 9.3 68.85 11.1 66.95 13.95 66.1 8.55 71.4 12.7 78.6 L13.35 78.05 Q15.3 76.5 18.45 76.55 L19.25 75.6 M18.45 76.55 L19.05 76.55 25.2 76.05 Q23.05 80.6 26.2 87.45 28.4 84.8 32.9 84.5 L35.75 84.55 Q37.05 83.0 38.65 82.2 M18.45 76.55 L18.05 77.0 M12.5 81.75 L12.6 80.75 M13.35 78.05 Q13.95 80.65 13.1 83.35 L12.5 81.75 Q11.8 85.2 8.85 86.4 9.1 84.5 8.9 81.55 5.85 84.55 4.85 88.7 0.2 81.8 3.3 74.25 L3.5 73.7 2.25 75.05 0.45 76.4 M77.0 52.85 L78.35 54.25 M66.85 50.5 L68.5 54.25 M50.1 50.9 L48.85 53.25 M51.95 82.4 L52.15 81.75 M67.15 63.8 Q67.7 71.05 72.95 76.3 M58.25 63.1 Q58.15 67.35 56.05 74.3 M63.25 60.4 L64.65 74.5 M43.15 27.75 Q37.7 24.05 32.15 25.25 M38.6 69.55 Q42.7 66.75 45.85 63.2 M23.35 44.65 L29.6 56.85 M17.9 47.55 Q23.25 52.25 26.4 59.85 M78.75 65.1 Q80.2 69.25 85.05 73.8" fill="none" stroke="#000000" stroke-linecap="round" stroke-linejoin="round" stroke-opacity="0.4" stroke-width="0.5"/>
      <path d="M79.8 38.7 Q78.95 42.6 76.9 43.6 L78.15 43.9 78.8 44.1 79.7 42.9 M52.4 30.45 Q54.6 33.2 55.05 36.45 55.45 39.65 57.1 41.9 L58.35 41.8 58.85 41.75 60.35 41.95 Q59.95 40.0 60.25 38.25 60.3 35.1 59.85 33.7 M46.75 40.45 L49.25 42.95 51.15 42.65 53.5 42.3 Q51.75 41.45 51.15 40.25 49.4 36.75 46.8 33.9 M49.25 42.95 L47.45 43.25 45.75 43.55 Q45.25 45.3 43.4 46.65 41.35 48.15 40.2 49.9 M51.15 42.65 Q50.05 43.95 48.4 45.1 46.35 46.75 45.7 48.7 M41.4 44.45 L45.75 43.55 M47.45 43.25 Q44.9 41.9 43.5 40.35 41.4 38.35 38.5 37.0 M53.5 39.9 L55.1 42.1 56.2 42.0 57.1 41.9 M53.5 42.3 L54.2 42.25 55.1 42.1 M58.35 41.8 Q59.5 43.85 57.65 48.2 56.75 50.4 56.65 54.6 M54.2 42.25 Q53.05 44.15 53.0 46.3 52.7 48.8 51.7 51.05 M56.2 42.0 L55.05 44.25 M68.9 35.6 Q69.55 39.6 68.75 42.9 L70.8 42.8 Q71.6 41.2 71.9 38.9 M64.1 32.2 Q65.25 38.05 64.35 42.55 L66.55 43.0 67.3 42.95 68.75 42.9 M63.05 40.15 L62.45 42.25 63.25 42.35 64.35 42.55 M60.35 41.95 L61.05 42.05 62.45 42.25 M63.25 42.35 Q63.9 43.8 63.75 45.75 L63.0 48.9 Q62.85 51.2 63.65 53.35 M67.3 42.95 Q68.1 45.05 67.95 47.25 68.0 48.25 68.6 49.2 L69.75 51.5 M61.05 42.05 Q61.45 45.15 60.75 47.75 M70.8 42.8 L71.7 42.75 72.1 42.7 72.9 42.8 Q73.25 41.3 75.15 39.95 M72.9 42.8 L74.05 43.0 75.2 43.2 76.9 43.6 M83.2 45.65 L79.75 44.35 78.8 44.1 M78.15 43.9 L80.95 46.55 84.0 49.35 M79.5 48.45 L75.2 43.2 M71.7 42.75 Q72.85 45.5 73.05 47.9 74.05 50.9 76.25 53.35 M74.05 43.0 L74.7 44.3 M79.75 44.35 Q82.85 43.7 83.45 42.3" fill="none" stroke="#000000" stroke-linecap="round" stroke-linejoin="round" stroke-opacity="0.6" stroke-width="0.6000000000000001"/>
      <path d="M93.35 41.65 Q88.75 46.25 82.3 46.25 75.9 46.25 71.3 41.65 66.7 37.1 66.7 30.65 66.7 24.2 71.3 19.6 75.9 15.05 82.3 15.05 88.75 15.05 93.35 19.6 97.9 24.2 97.9 30.65 97.9 37.1 93.35 41.65" fill="url(#gradient0)" fill-rule="evenodd" stroke="none"/>
      <path d="M48.95 38.75 Q44.35 43.35 37.9 43.35 31.5 43.35 26.9 38.75 22.3 34.2 22.3 27.75 22.3 21.3 26.9 16.7 31.5 12.15 37.9 12.15 44.35 12.15 48.95 16.7 53.5 21.3 53.5 27.75 53.5 34.2 48.95 38.75" fill="url(#gradient1)" fill-rule="evenodd" stroke="none"/>
    </g>
    <radialGradient cx="0" cy="0" gradientTransform="matrix(0.0191, 0.0, 0.0, 0.0191, 82.3, 30.65)" gradientUnits="userSpaceOnUse" id="gradient0" r="819.2" spreadMethod="pad">
      <stop offset="0.00784313725490196" stop-color="#00e1ff" stop-opacity="0.81960785"/>
      <stop offset="1.0" stop-color="#00ddff" stop-opacity="0.0"/>
    </radialGradient>
    <radialGradient cx="0" cy="0" gradientTransform="matrix(0.0191, 0.0, 0.0, 0.0191, 37.9, 27.75)" gradientUnits="userSpaceOnUse" id="gradient1" r="819.2" spreadMethod="pad">
      <stop offset="0.00784313725490196" stop-color="#00e1ff" stop-opacity="0.81960785"/>
      <stop offset="1.0" stop-color="#00ddff" stop-opacity="0.0"/>
    </radialGradient>
  </defs>
</svg>
