<?xml version="1.0" encoding="UTF-8" standalone="no"?>
<svg xmlns:xlink="http://www.w3.org/1999/xlink" height="531.5px" width="460.6px" xmlns="http://www.w3.org/2000/svg">
  <g transform="matrix(1.0, 0.0, 0.0, 1.0, 193.65, 334.05)">
    <use height="118.55" transform="matrix(1.0, 0.0, 0.0, 1.0, -65.25, -183.1)" width="123.15" xlink:href="#shape0"/>
  </g>
  <defs>
    <g id="shape0" transform="matrix(1.0, 0.0, 0.0, 1.0, 65.25, 183.1)">
      <path d="M48.65 -88.6 Q49.55 -89.5 50.6 -91.7 L50.8 -91.9 Q52.55 -97.05 53.4 -102.5 54.7 -110.25 54.05 -118.3 53.7 -120.7 53.65 -123.05 53.15 -134.35 51.35 -148.45 50.3 -156.45 46.15 -165.0 45.25 -166.6 41.55 -168.8 L39.95 -169.7 36.3 -171.2 Q31.55 -172.8 27.0 -174.05 L21.2 -175.35 13.0 -177.05 Q-7.15 -180.4 -27.2 -177.8 -39.75 -174.05 -49.25 -163.1 -57.9 -153.1 -59.85 -140.55 L-61.4 -105.95 Q-61.15 -101.85 -60.5 -99.25 -59.7 -96.0 -58.0 -94.1 L-56.25 -92.55 -55.2 -91.9 Q-46.9 -89.55 -38.5 -87.95 -10.9 -82.15 17.3 -83.75 L18.95 -83.95 22.35 -84.1 23.9 -84.2 Q41.1 -85.4 47.75 -88.1 48.25 -88.15 48.65 -88.6 M43.6 -172.8 Q47.05 -170.6 48.75 -168.35 53.3 -161.75 54.85 -150.35 56.9 -135.1 57.4 -123.05 58.35 -113.9 57.45 -105.05 56.95 -100.45 56.05 -96.0 L55.2 -92.35 Q45.3 -81.65 12.65 -81.25 -35.9 -80.85 -62.7 -93.55 -64.25 -96.25 -64.8 -100.4 L-65.25 -105.95 -64.0 -140.55 Q-62.35 -158.25 -48.55 -170.7 -38.85 -179.4 -27.2 -182.2 L-21.0 -182.75 Q-7.9 -183.65 5.0 -182.25 16.0 -181.2 27.0 -178.6 33.5 -177.05 39.95 -174.7 L43.6 -172.8" fill="#000000" fill-rule="evenodd" stroke="none"/>
      <path d="M13.0 -177.05 L21.2 -175.35 27.0 -174.05 Q31.55 -172.8 36.3 -171.2 L39.95 -169.7 41.55 -168.8 Q45.25 -166.6 46.15 -165.0 50.3 -156.45 51.35 -148.45 53.15 -134.35 53.65 -123.05 53.7 -120.7 54.05 -118.3 54.7 -110.25 53.4 -102.5 52.55 -97.05 50.8 -91.9 L50.6 -91.7 Q49.55 -89.5 48.65 -88.6 49.25 -94.2 49.15 -99.8 L48.9 -104.55 48.65 -109.9 Q48.15 -122.65 46.55 -138.5 45.5 -147.65 41.65 -157.1 40.9 -159.15 37.6 -161.65 L36.1 -162.55 32.7 -164.2 Q28.55 -166.05 24.2 -167.45 L24.15 -167.45 23.55 -168.0 Q18.7 -172.8 13.0 -177.05" fill="#f0f0f0" fill-rule="evenodd" stroke="none"/>
      <path d="M24.15 -167.45 L24.2 -167.45 Q28.55 -166.05 32.7 -164.2 L36.1 -162.55 37.6 -161.65 Q40.9 -159.15 41.65 -157.1 45.5 -147.65 46.55 -138.5 48.15 -122.65 48.65 -109.9 L48.9 -104.55 49.15 -99.8 Q49.25 -94.2 48.65 -88.6 48.25 -88.15 47.75 -88.1 41.1 -85.4 23.9 -84.2 L22.35 -84.1 18.95 -83.95 17.3 -83.75 Q27.55 -88.15 34.5 -93.55 46.05 -102.5 46.05 -111.8 46.05 -114.75 43.35 -119.85 39.8 -127.05 39.2 -128.65 37.85 -132.35 37.25 -138.2 L35.8 -149.1 Q34.15 -157.35 24.15 -167.45 M25.2 -116.7 L40.9 -113.1 40.9 -112.45 Q27.5 -110.75 9.4 -110.5 L-31.15 -110.5 -8.1 -116.45 Q2.7 -119.05 9.15 -119.05 15.1 -119.05 25.2 -116.7" fill="#e6e6e6" fill-rule="evenodd" stroke="none"/>
      <path d="M17.3 -83.75 Q-10.9 -82.15 -38.5 -87.95 -46.9 -89.55 -55.2 -91.9 L-56.25 -92.55 -54.8 -129.65 Q-53.1 -143.8 -45.2 -155.15 -36.65 -167.45 -25.05 -171.6 -3.05 -175.15 19.0 -168.9 L24.15 -167.45 Q34.15 -157.35 35.8 -149.1 L37.25 -138.2 Q37.85 -132.35 39.2 -128.65 39.8 -127.05 43.35 -119.85 46.05 -114.75 46.05 -111.8 46.05 -102.5 34.5 -93.55 27.55 -88.15 17.3 -83.75 M25.2 -116.7 Q15.1 -119.05 9.15 -119.05 2.7 -119.05 -8.1 -116.45 L-31.15 -110.5 9.4 -110.5 Q27.5 -110.75 40.9 -112.45 L40.9 -113.1 25.2 -116.7" fill="#f2f2f2" fill-rule="evenodd" stroke="none"/>
      <path d="M13.0 -177.05 Q18.7 -172.8 23.55 -168.0 L24.15 -167.45 19.0 -168.9 Q-3.05 -175.15 -25.05 -171.6 -36.65 -167.45 -45.2 -155.15 -53.1 -143.8 -54.8 -129.65 L-56.25 -92.55 -58.0 -94.1 Q-59.7 -96.0 -60.5 -99.25 -61.15 -101.85 -61.4 -105.95 L-59.85 -140.55 Q-57.9 -153.1 -49.25 -163.1 -39.75 -174.05 -27.2 -177.8 -7.15 -180.4 13.0 -177.05" fill="#ffffff" fill-rule="evenodd" stroke="none"/>
      <path d="M12.8 -80.3 L-7.95 -65.05 Q-41.75 -72.45 -60.65 -96.4 -28.75 -82.95 12.8 -80.3 47.15 -89.0 54.65 -98.3 52.4 -80.9 34.55 -67.0 L12.8 -80.3" fill="#ffffff" fill-rule="evenodd" stroke="none"/>
      <path d="M12.8 -80.3 L-7.95 -65.05 Q-41.75 -72.45 -60.65 -96.4 -28.75 -82.95 12.8 -80.3 47.15 -89.0 54.65 -98.3 52.4 -80.9 34.55 -67.0 L12.8 -80.3 Z" fill="none" stroke="#000000" stroke-linecap="round" stroke-linejoin="round" stroke-opacity="0.5019608" stroke-width="1.0"/>
    </g>
  </defs>
</svg>
