<?xml version="1.0" encoding="UTF-8" standalone="no"?>
<svg xmlns:xlink="http://www.w3.org/1999/xlink" height="531.5px" width="460.6px" xmlns="http://www.w3.org/2000/svg">
  <g transform="matrix(1.0, 0.0, 0.0, 1.0, 193.65, 334.05)">
    <use height="91.3" transform="matrix(1.0, 0.0, 0.0, 1.0, -65.45, -228.25)" width="129.15" xlink:href="#shape0"/>
    <use height="87.6" transform="matrix(0.5552, -0.0784, 0.1073, 0.7595, 15.8336, -238.6318)" width="87.6" xlink:href="#sprite0"/>
    <use height="87.6" transform="matrix(0.5121, -0.0723, 0.0951, 0.673, 12.707, -234.4083)" width="87.6" xlink:href="#sprite0"/>
    <use height="87.6" transform="matrix(0.673, -0.095, 0.125, 0.8844, 2.6508, -242.273)" width="87.6" xlink:href="#sprite0"/>
    <use height="73.0" transform="matrix(0.88, -0.1243, 0.1243, 0.88, -71.0527, -212.6753)" width="143.9" xlink:href="#sprite1"/>
    <use height="173.1" transform="matrix(1.0, 0.0, 0.0, 1.0, -79.85, -246.85)" width="161.8" xlink:href="#shape3"/>
  </g>
  <defs>
    <g id="shape0" transform="matrix(1.0, 0.0, 0.0, 1.0, 65.45, 228.25)">
      <path d="M13.95 -147.35 L13.0 -148.95 12.85 -149.25 12.55 -149.8 12.55 -150.1 Q12.55 -151.9 12.8 -153.5 13.4 -158.35 15.8 -161.75 26.45 -162.4 31.35 -160.3 36.25 -158.05 40.75 -154.15 45.3 -150.1 53.05 -149.25 L52.25 -146.55 51.5 -144.85 50.7 -143.55 Q49.5 -142.8 48.7 -142.4 45.95 -140.95 43.45 -140.95 37.75 -140.95 31.85 -144.65 25.95 -148.35 22.25 -148.35 19.4 -148.35 13.95 -147.35" fill="#333333" fill-rule="evenodd" stroke="none"/>
      <path d="M13.95 -147.35 Q19.4 -148.35 22.25 -148.35 25.95 -148.35 31.85 -144.65 37.75 -140.95 43.45 -140.95 45.95 -140.95 48.7 -142.4 49.5 -142.8 50.7 -143.55 49.85 -142.25 48.85 -141.5 41.15 -135.75 32.35 -138.15 27.6 -139.4 23.2 -142.4 17.4 -142.15 13.95 -147.35" fill="#1a1a1a" fill-rule="evenodd" stroke="none"/>
      <path d="M50.7 -143.55 L51.5 -144.85 52.25 -146.55 53.05 -149.25 Q45.3 -150.1 40.75 -154.15 36.25 -158.05 31.35 -160.3 26.45 -162.4 15.8 -161.75 13.4 -158.35 12.8 -153.5 12.55 -151.9 12.55 -150.1 L12.55 -149.8 12.85 -149.25 13.0 -148.95 13.95 -147.35 Q17.4 -142.15 23.2 -142.4 27.6 -139.4 32.35 -138.15 41.15 -135.75 48.85 -141.5 49.85 -142.25 50.7 -143.55 Z" fill="none" stroke="#000000" stroke-linecap="round" stroke-linejoin="round" stroke-opacity="0.6627451" stroke-width="1.0"/>
      <path d="M19.35 -161.75 Q22.95 -157.5 23.35 -151.05 L23.35 -150.95 23.65 -151.05 23.35 -149.8 23.05 -149.25 22.4 -148.35 22.25 -148.35 Q18.25 -148.35 9.25 -146.5 -1.95 -144.2 -8.5 -143.4 -16.35 -143.4 -21.75 -145.7 -24.75 -147.05 -27.3 -149.25 -17.7 -150.1 -12.05 -154.15 -6.35 -158.05 -0.25 -160.3 5.9 -162.4 19.35 -161.75" fill="#333333" fill-rule="evenodd" stroke="none"/>
      <path d="M22.4 -148.35 Q21.5 -147.05 20.4 -146.05 16.25 -142.15 10.0 -142.4 4.55 -139.4 -1.5 -138.15 -12.5 -135.75 -22.25 -141.5 -24.95 -143.1 -26.7 -147.25 L-27.45 -149.25 -27.3 -149.25 Q-24.75 -147.05 -21.75 -145.7 -16.35 -143.4 -8.5 -143.4 -1.95 -144.2 9.25 -146.5 18.25 -148.35 22.25 -148.35 L22.4 -148.35 M3.6 -144.1 Q6.15 -141.95 9.4 -142.35 L10.0 -142.4 9.4 -142.35 Q6.15 -141.95 3.6 -144.1" fill="#1a1a1a" fill-rule="evenodd" stroke="none"/>
      <path d="M20.4 -146.05 Q16.25 -142.15 10.0 -142.4 4.55 -139.4 -1.5 -138.15 -12.5 -135.75 -22.25 -141.5 -24.95 -143.1 -26.7 -147.25 L-27.45 -149.25 -27.3 -149.25 Q-17.7 -150.1 -12.05 -154.15 -6.35 -158.05 -0.25 -160.3 5.9 -162.4 19.35 -161.75 M10.0 -142.4 L9.4 -142.35 Q6.15 -141.95 3.6 -144.1" fill="none" stroke="#000000" stroke-linecap="round" stroke-linejoin="round" stroke-opacity="0.6627451" stroke-width="1.0"/>
      <path d="M35.1 -227.55 L35.55 -227.6 35.7 -227.7 35.9 -227.7 36.6 -227.75 Q42.0 -228.1 46.7 -223.05 51.8 -217.6 53.05 -208.95 53.4 -206.1 53.35 -203.55 L52.65 -203.35 51.9 -203.15 51.55 -208.7 Q50.5 -216.5 45.95 -221.55 41.55 -226.45 36.25 -225.7 30.9 -225.0 27.95 -219.0 L27.6 -218.2 27.5 -218.05 26.65 -215.5 Q25.35 -210.8 26.1 -205.1 26.8 -200.45 28.65 -196.7 L26.65 -196.4 Q24.8 -200.15 24.1 -204.85 23.5 -209.2 24.05 -213.05 24.25 -214.45 24.6 -215.6 L24.65 -215.95 24.9 -216.8 25.65 -218.9 25.9 -219.3 26.3 -220.15 Q29.5 -226.45 35.0 -227.55 L35.1 -227.55 M35.55 -227.6 L35.9 -227.7 35.55 -227.6" fill="#616e55" fill-rule="evenodd" stroke="none"/>
      <path d="M40.75 -179.55 Q42.7 -177.8 45.4 -176.55 L44.0 -175.0 40.85 -171.4 Q42.3 -171.8 48.25 -175.55 L49.5 -175.2 50.25 -175.0 47.7 -173.15 47.7 -173.1 48.7 -173.25 51.65 -173.85 53.5 -174.4 63.05 -173.85 Q63.6 -170.8 62.0 -169.25 L60.75 -168.45 Q41.6 -163.6 15.35 -159.5 L11.1 -158.85 1.0 -157.45 -0.1 -157.3 -1.4 -158.6 -4.2 -160.75 Q-4.25 -160.2 -5.4 -157.75 L-6.05 -156.45 -18.7 -154.95 -28.85 -153.9 -29.4 -154.35 -31.55 -156.35 Q-32.2 -157.3 -32.35 -158.5 -32.55 -160.0 -31.8 -161.85 -31.1 -163.6 -31.15 -164.05 -31.15 -164.4 -32.1 -165.1 -33.05 -165.75 -33.1 -166.4 -33.35 -167.8 -32.8 -168.95 L-32.25 -169.8 -21.3 -171.5 -32.25 -169.8 -32.5 -169.8 -36.05 -168.6 -59.3 -165.3 -59.4 -168.1 -58.45 -168.25 -47.0 -169.85 -44.6 -170.15 20.4 -179.25 20.55 -178.2 8.75 -176.25 10.1 -176.1 Q11.7 -176.05 12.55 -175.35 13.25 -174.95 14.0 -173.15 L15.35 -170.25 Q15.8 -169.25 20.9 -169.3 L27.05 -169.95 31.5 -170.7 Q33.2 -171.1 33.55 -171.4 L33.7 -172.4 33.55 -173.25 35.9 -173.85 40.15 -175.4 Q40.7 -177.5 40.75 -179.55 M21.9 -218.6 Q23.05 -219.45 22.5 -221.7 22.1 -224.0 25.05 -225.45 27.65 -227.05 35.1 -227.55 L35.0 -227.55 Q29.5 -226.45 26.3 -220.15 L25.9 -219.3 25.65 -218.9 22.9 -216.75 15.95 -212.05 11.6 -209.25 12.25 -212.65 Q15.25 -216.15 19.65 -217.9 L21.9 -218.6 M24.65 -215.95 L24.6 -215.6 Q24.25 -214.45 24.05 -213.05 23.5 -209.2 24.1 -204.85 24.8 -200.15 26.65 -196.4 L22.4 -195.6 20.4 -195.3 15.65 -194.9 15.65 -195.3 Q15.55 -195.75 13.55 -197.0 L12.15 -197.75 Q11.45 -200.45 11.3 -203.35 L13.85 -206.4 16.65 -209.5 22.75 -214.5 24.65 -215.95 M19.55 -208.1 L16.0 -207.65 Q15.55 -204.55 16.0 -201.95 16.4 -199.85 17.4 -198.15 L20.95 -198.6 19.55 -208.1 M-21.3 -171.5 L-22.0 -168.4 -22.05 -168.3 -21.25 -168.45 -19.9 -168.85 -17.35 -169.3 -16.75 -169.1 Q-15.35 -168.25 -13.9 -167.6 L-7.5 -173.7 -21.3 -171.5 M-27.3 -163.75 Q-28.1 -164.3 -29.1 -164.15 -30.0 -164.05 -30.65 -163.4 -31.15 -162.55 -31.0 -161.55 -30.85 -160.6 -30.15 -160.05 -29.4 -159.5 -28.5 -159.6 -27.45 -159.75 -26.85 -160.45 -26.3 -161.3 -26.45 -162.2 -26.6 -163.25 -27.3 -163.75 M-0.7 -169.55 L-2.25 -165.55 2.2 -167.8 Q-0.35 -169.65 -0.7 -169.55 M-7.5 -173.7 L8.75 -176.25 -7.5 -173.7" fill="#6b8553" fill-rule="evenodd" stroke="none"/>
      <path d="M13.95 -184.05 Q9.4 -184.6 8.7 -188.15 5.55 -200.95 -1.95 -208.25 -6.75 -212.5 -4.7 -213.6 -0.8 -214.95 5.05 -216.15 L11.7 -217.2 12.8 -217.35 13.3 -217.45 19.65 -217.9 Q15.25 -216.15 12.25 -212.65 L11.6 -209.25 Q11.15 -206.2 11.3 -203.35 11.45 -200.45 12.15 -197.75 L13.15 -194.7 Q13.85 -192.7 15.0 -190.6 L17.95 -186.3 Q18.7 -185.75 19.65 -185.35 L21.8 -184.75 20.05 -184.35 17.7 -184.05 Q15.55 -183.9 13.95 -184.05" fill="#704116" fill-rule="evenodd" stroke="none"/>
      <path d="M39.45 -184.45 Q40.6 -182.05 40.75 -179.55 40.7 -177.5 40.15 -175.4 L35.9 -173.85 35.9 -174.65 35.6 -177.5 Q35.4 -179.95 35.0 -181.25 L34.35 -183.05 33.9 -183.8 37.05 -184.5 37.25 -185.05 37.25 -185.5 37.7 -185.6 38.1 -185.65 38.7 -185.75 39.0 -185.3 39.45 -184.45 M-59.3 -156.35 Q-61.1 -156.35 -62.5 -156.85 -65.7 -163.6 -64.7 -169.7 -63.95 -170.7 -60.95 -171.3 L-60.55 -165.15 -60.15 -160.9 -59.3 -156.35 M-59.8 -177.5 L-60.4 -186.2 -60.4 -189.3 Q-60.25 -197.1 -54.7 -202.65 -49.3 -208.05 -42.2 -211.05 -38.75 -212.35 -35.25 -213.45 L-33.95 -213.8 -30.7 -209.95 -31.1 -214.6 -30.25 -214.75 -28.7 -215.15 Q-18.75 -217.6 -8.2 -219.0 L12.3 -220.9 Q17.55 -220.6 21.9 -218.6 L19.65 -217.9 13.3 -217.45 12.8 -217.35 11.7 -217.2 5.05 -216.15 Q-0.8 -214.95 -4.7 -213.6 -6.75 -212.5 -1.95 -208.25 5.55 -200.95 8.7 -188.15 9.4 -184.6 13.95 -184.05 5.45 -182.1 -2.8 -180.75 -32.4 -175.8 -59.8 -177.5" fill="#4f2700" fill-rule="evenodd" stroke="none"/>
      <path d="M39.1 -185.8 L39.25 -185.35 39.45 -184.5 39.45 -184.45 39.0 -185.3 38.7 -185.75 38.1 -185.65 39.1 -185.8 M16.0 -201.95 Q15.55 -204.55 16.0 -207.65 L19.55 -208.1 Q19.2 -205.4 19.65 -202.8 L19.5 -202.7 17.2 -202.15 16.0 -201.95 M37.25 -185.5 L29.65 -184.65 37.25 -185.6 37.7 -185.6 37.25 -185.5 37.25 -185.6 37.25 -185.5 M-41.75 -158.7 L-42.75 -158.6 -42.2 -158.75 -41.75 -158.7 M-43.6 -165.15 L-42.5 -165.3 -43.05 -165.1 -43.6 -165.15" fill="#cccccc" fill-rule="evenodd" stroke="none"/>
      <path d="M20.95 -198.6 L17.4 -198.15 Q16.4 -199.85 16.0 -201.95 L17.2 -202.15 19.5 -202.7 19.65 -202.8 Q20.05 -200.65 20.95 -198.6 M-27.3 -163.75 Q-26.6 -163.25 -26.45 -162.2 -26.3 -161.3 -26.85 -160.45 -27.45 -159.75 -28.5 -159.6 -29.4 -159.5 -30.15 -160.05 -30.85 -160.6 -31.0 -161.55 -31.15 -162.55 -30.65 -163.4 -30.0 -164.05 -29.1 -164.15 -28.1 -164.3 -27.3 -163.75" fill="#999999" fill-rule="evenodd" stroke="none"/>
      <path d="M19.55 -208.1 L20.95 -198.6 Q20.05 -200.65 19.65 -202.8 19.2 -205.4 19.55 -208.1" fill="#6e6e6e" fill-rule="evenodd" stroke="none"/>
      <path d="M25.65 -218.9 L24.9 -216.8 24.65 -215.95 22.75 -214.5 16.65 -209.5 13.85 -206.4 11.3 -203.35 Q11.15 -206.2 11.6 -209.25 L15.95 -212.05 22.9 -216.75 25.65 -218.9 M28.65 -196.7 Q26.8 -200.45 26.1 -205.1 25.35 -210.8 26.65 -215.5 L27.5 -218.05 27.6 -218.2 27.95 -219.0 Q30.9 -225.0 36.25 -225.7 41.55 -226.45 45.95 -221.55 50.5 -216.5 51.55 -208.7 L51.9 -203.15 Q51.75 -200.85 51.2 -198.7 L49.65 -194.9 49.1 -193.75 48.0 -196.75 40.6 -192.05 38.6 -192.4 38.0 -191.15 37.0 -188.5 38.0 -191.15 40.85 -188.6 40.15 -188.0 38.55 -188.15 37.0 -188.5 34.9 -189.5 Q33.3 -190.6 31.7 -192.4 L30.75 -193.4 Q29.5 -195.0 28.65 -196.7 M40.45 -199.85 Q37.45 -199.6 35.55 -198.85 L35.4 -198.8 Q33.55 -198.1 33.6 -197.4 33.7 -196.55 35.9 -196.25 L36.25 -196.25 41.0 -196.15 Q43.95 -196.55 45.85 -197.3 L46.85 -197.6 46.95 -197.6 Q47.85 -198.15 47.8 -198.8 47.7 -199.55 45.5 -199.95 43.4 -200.25 40.45 -199.85 M33.0 -205.4 Q35.9 -205.1 39.7 -205.4 44.1 -205.95 47.1 -207.1 L48.55 -207.7 48.65 -207.7 Q50.1 -208.55 50.05 -209.4 49.8 -210.6 46.55 -211.05 43.3 -211.6 38.9 -211.05 34.35 -210.6 31.45 -209.55 28.45 -208.35 28.6 -207.2 28.75 -205.95 32.0 -205.55 L33.0 -205.4 M32.7 -219.05 Q30.65 -218.35 30.75 -217.6 30.85 -216.8 33.0 -216.45 35.15 -216.15 38.15 -216.45 41.1 -216.75 43.0 -217.5 L44.0 -217.9 44.1 -217.9 Q45.0 -218.45 44.95 -219.0 44.8 -219.85 42.65 -220.2 40.55 -220.45 37.6 -220.15 34.6 -219.85 32.7 -219.05 M51.2 -198.7 L48.0 -196.75 51.2 -198.7 M30.75 -193.4 L38.6 -192.4 30.75 -193.4" fill="#ffffff" fill-rule="evenodd" stroke="none"/>
      <path d="M32.7 -219.05 Q34.6 -219.85 37.6 -220.15 40.55 -220.45 42.65 -220.2 44.8 -219.85 44.95 -219.0 45.0 -218.45 44.1 -217.9 L44.0 -217.9 43.0 -217.5 Q41.1 -216.75 38.15 -216.45 35.15 -216.15 33.0 -216.45 30.85 -216.8 30.75 -217.6 30.65 -218.35 32.7 -219.05 M33.0 -205.4 L32.0 -205.55 Q28.75 -205.95 28.6 -207.2 28.45 -208.35 31.45 -209.55 34.35 -210.6 38.9 -211.05 43.3 -211.6 46.55 -211.05 49.8 -210.6 50.05 -209.4 50.1 -208.55 48.65 -207.7 L48.55 -207.7 47.1 -207.1 Q44.1 -205.95 39.7 -205.4 35.9 -205.1 33.0 -205.4 M40.45 -199.85 Q43.4 -200.25 45.5 -199.95 47.7 -199.55 47.8 -198.8 47.85 -198.15 46.95 -197.6 L46.85 -197.6 45.85 -197.3 Q43.95 -196.55 41.0 -196.15 L36.25 -196.25 35.9 -196.25 Q33.7 -196.55 33.6 -197.4 33.55 -198.1 35.4 -198.8 L35.55 -198.85 Q37.45 -199.6 40.45 -199.85" fill="#ffff99" fill-rule="evenodd" stroke="none"/>
      <path d="M53.35 -203.55 Q53.1 -198.25 50.9 -193.75 47.65 -187.2 40.4 -186.15 L39.1 -186.05 37.0 -186.45 Q36.05 -186.75 35.0 -187.3 L34.9 -187.3 Q33.7 -187.9 32.6 -188.9 L30.45 -190.85 Q28.15 -193.3 26.65 -196.4 L28.65 -196.7 Q29.5 -195.0 30.75 -193.4 L31.7 -192.4 Q33.3 -190.6 34.9 -189.5 L37.0 -188.5 38.55 -188.15 40.15 -188.0 41.55 -188.05 43.0 -188.45 Q44.65 -188.9 45.95 -190.0 46.65 -190.45 47.2 -191.05 48.25 -192.15 49.1 -193.75 L49.65 -194.9 51.2 -198.7 Q51.75 -200.85 51.9 -203.15 L52.65 -203.35 53.35 -203.55" fill="#1f2b15" fill-rule="evenodd" stroke="none"/>
      <path d="M49.1 -193.75 Q48.25 -192.15 47.2 -191.05 46.65 -190.45 45.95 -190.0 44.65 -188.9 43.0 -188.45 L41.55 -188.05 40.15 -188.0 40.85 -188.6 42.95 -190.7 43.0 -189.75 43.0 -188.45 43.0 -189.75 42.95 -190.7 40.85 -188.6 38.0 -191.15 38.6 -192.4 40.6 -192.05 48.0 -196.75 49.1 -193.75 M44.5 -192.0 L42.95 -190.7 42.95 -191.75 40.6 -192.05 42.95 -191.75 42.95 -192.4 44.5 -192.0 45.5 -191.6 47.2 -191.05 45.5 -191.6 44.5 -192.0 42.95 -192.4 42.95 -191.75 42.95 -190.7 44.5 -192.0 M43.0 -189.75 L45.95 -190.0 43.0 -189.75" fill="#666666" fill-rule="evenodd" stroke="none"/>
      <path d="M45.4 -176.55 L48.25 -175.55 Q42.3 -171.8 40.85 -171.4 L44.0 -175.0 45.4 -176.55 M50.25 -175.0 L53.5 -174.4 51.65 -173.85 48.7 -173.25 47.7 -173.1 47.7 -173.15 50.25 -175.0 M-0.1 -157.3 L-6.05 -156.45 -5.4 -157.75 Q-4.25 -160.2 -4.2 -160.75 L-1.4 -158.6 -0.1 -157.3 M15.0 -190.6 Q13.85 -192.7 13.15 -194.7 L12.15 -197.75 13.55 -197.0 Q15.55 -195.75 15.65 -195.3 L15.65 -194.9 15.0 -190.6 M20.95 -188.3 L23.6 -191.7 27.45 -190.85 25.95 -190.2 25.6 -189.85 20.95 -188.3 M-7.5 -173.7 L-13.9 -167.6 Q-15.35 -168.25 -16.75 -169.1 L-17.35 -169.3 -19.9 -168.85 -21.25 -168.45 -22.05 -168.3 -22.0 -168.4 -21.3 -171.5 -7.5 -173.7 M-0.7 -169.55 Q-0.35 -169.65 2.2 -167.8 L-2.25 -165.55 -0.7 -169.55" fill="#88967c" fill-rule="evenodd" stroke="none"/>
      <path d="M40.4 -186.15 L39.1 -185.8 38.1 -185.65 37.7 -185.6 37.25 -185.6 29.65 -184.65 23.65 -184.35 22.1 -184.65 Q21.95 -184.65 21.9 -184.75 L21.8 -184.75 19.65 -185.35 Q18.7 -185.75 17.95 -186.3 L15.0 -190.6 15.65 -194.9 20.4 -195.3 22.4 -195.6 26.65 -196.4 Q28.15 -193.3 30.45 -190.85 L32.6 -188.9 Q33.7 -187.9 34.9 -187.3 L35.0 -187.3 Q36.05 -186.75 37.0 -186.45 L39.1 -186.05 40.4 -186.15 M-28.85 -153.9 L-31.15 -153.75 Q-33.35 -153.5 -36.2 -153.65 -37.75 -153.9 -38.65 -154.6 L-49.85 -153.75 -54.1 -153.5 -56.4 -153.45 -57.7 -156.5 Q-58.95 -160.45 -59.3 -165.3 L-36.05 -168.6 -32.5 -169.8 -32.25 -169.8 -32.8 -168.95 Q-33.35 -167.8 -33.1 -166.4 -33.05 -165.75 -32.1 -165.1 -31.15 -164.4 -31.15 -164.05 -31.1 -163.6 -31.8 -161.85 -32.55 -160.0 -32.35 -158.5 -32.2 -157.3 -31.55 -156.35 L-29.4 -154.35 -28.85 -153.9 M20.95 -188.3 L25.6 -189.85 25.95 -190.2 27.45 -190.85 23.6 -191.7 20.95 -188.3 M20.55 -178.2 L20.9 -176.65 Q21.5 -174.65 22.65 -172.95 L33.55 -173.25 33.7 -172.4 33.55 -171.4 Q33.2 -171.1 31.5 -170.7 L27.05 -169.95 20.9 -169.3 Q15.8 -169.25 15.35 -170.25 L14.0 -173.15 Q13.25 -174.95 12.55 -175.35 11.7 -176.05 10.1 -176.1 L8.75 -176.25 20.55 -178.2 M-38.65 -154.6 Q-40.05 -155.6 -39.95 -157.5 -39.5 -159.85 -35.4 -161.6 -34.35 -162.6 -34.8 -163.4 -36.1 -164.0 -36.65 -164.75 -37.25 -165.6 -37.4 -166.6 -37.5 -167.8 -36.05 -168.6 -37.5 -167.8 -37.4 -166.6 -37.25 -165.6 -36.65 -164.75 -36.1 -164.0 -34.8 -163.4 -34.35 -162.6 -35.4 -161.6 -39.5 -159.85 -39.95 -157.5 -40.05 -155.6 -38.65 -154.6 M-41.75 -158.7 L-41.45 -158.75 -41.3 -158.75 Q-39.95 -159.0 -39.2 -160.05 -38.25 -161.15 -38.5 -162.55 -38.65 -163.85 -39.8 -164.6 -40.8 -165.45 -42.15 -165.3 L-42.5 -165.3 -43.6 -165.15 -44.0 -165.1 Q-45.3 -164.9 -46.15 -163.75 -46.9 -162.7 -46.75 -161.4 -46.5 -160.0 -45.5 -159.2 -44.5 -158.45 -43.35 -158.45 L-43.05 -158.5 -42.75 -158.6 -41.75 -158.7" fill="#39472c" fill-rule="evenodd" stroke="none"/>
      <path d="M22.05 -183.95 L22.1 -184.65 23.65 -184.35 29.65 -184.65 37.25 -185.5 37.25 -185.05 37.05 -184.5 33.9 -183.8 23.1 -183.05 22.4 -183.1 22.2 -183.45 22.05 -183.95" fill="#4d613d" fill-rule="evenodd" stroke="none"/>
      <path d="M-57.7 -156.5 L-59.3 -156.35 -60.15 -160.9 -60.55 -165.15 -60.95 -171.3 -59.1 -171.65 -59.8 -177.5 Q-32.4 -175.8 -2.8 -180.75 5.45 -182.1 13.95 -184.05 15.55 -183.9 17.7 -184.05 L20.05 -184.35 21.8 -184.75 21.9 -184.75 Q21.95 -184.65 22.1 -184.65 L22.05 -183.95 22.2 -183.45 22.4 -183.1 23.1 -183.05 33.9 -183.8 34.35 -183.05 35.0 -181.25 Q35.4 -179.95 35.6 -177.5 L35.9 -174.65 35.9 -173.85 33.55 -173.25 22.65 -172.95 Q21.5 -174.65 20.9 -176.65 L20.55 -178.2 20.4 -179.25 -44.6 -170.15 -47.0 -169.85 -58.45 -168.25 -59.4 -168.1 -59.3 -165.3 Q-58.95 -160.45 -57.7 -156.5 M22.05 -183.95 L20.55 -183.5 20.4 -182.65 Q20.25 -180.9 20.4 -179.25 20.25 -180.9 20.4 -182.65 L20.55 -183.5 22.05 -183.95 M-59.1 -171.65 L-58.45 -168.25 -59.1 -171.65" fill="#2e1904" fill-rule="evenodd" stroke="none"/>
      <path d="M-42.5 -165.3 L-42.15 -165.3 Q-40.8 -165.45 -39.8 -164.6 -38.65 -163.85 -38.5 -162.55 -38.25 -161.15 -39.2 -160.05 -39.95 -159.0 -41.3 -158.75 L-41.45 -158.75 -41.75 -158.7 -42.2 -158.75 Q-41.35 -159.05 -40.9 -159.85 -39.95 -160.9 -40.2 -162.3 -40.35 -163.6 -41.5 -164.4 -42.2 -165.0 -43.05 -165.1 L-42.5 -165.3" fill="#636363" fill-rule="evenodd" stroke="none"/>
      <path d="M-42.75 -158.6 L-43.05 -158.5 -43.35 -158.45 Q-44.5 -158.45 -45.5 -159.2 -46.5 -160.0 -46.75 -161.4 -46.9 -162.7 -46.15 -163.75 -45.3 -164.9 -44.0 -165.1 L-43.6 -165.15 -43.05 -165.1 Q-42.2 -165.0 -41.5 -164.4 -40.35 -163.6 -40.2 -162.3 -39.95 -160.9 -40.9 -159.85 -41.35 -159.05 -42.2 -158.75 L-42.75 -158.6" fill="#949494" fill-rule="evenodd" stroke="none"/>
      <path d="M35.1 -227.55 L35.55 -227.6 35.7 -227.7 35.9 -227.7 36.6 -227.75 Q42.0 -228.1 46.7 -223.05 51.8 -217.6 53.05 -208.95 53.4 -206.1 53.35 -203.55 53.1 -198.25 50.9 -193.75 47.65 -187.2 40.4 -186.15 L39.1 -185.8 39.25 -185.35 39.45 -184.5 39.45 -184.45 Q40.6 -182.05 40.75 -179.55 42.7 -177.8 45.4 -176.55 L48.25 -175.55 49.5 -175.2 50.25 -175.0 53.5 -174.4 63.05 -173.85 Q63.6 -170.8 62.0 -169.25 L60.75 -168.45 Q41.6 -163.6 15.35 -159.5 L11.1 -158.85 1.0 -157.45 -0.1 -157.3 -6.05 -156.45 -18.7 -154.95 -28.85 -153.9 -31.15 -153.75 Q-33.35 -153.5 -36.2 -153.65 -37.75 -153.9 -38.65 -154.6 L-49.85 -153.75 -54.1 -153.5 -56.4 -153.45 -57.7 -156.5 -59.3 -156.35 Q-61.1 -156.35 -62.5 -156.85 -65.7 -163.6 -64.7 -169.7 -63.95 -170.7 -60.95 -171.3 L-59.1 -171.65 -59.8 -177.5 -60.4 -186.2 -60.4 -189.3 Q-60.25 -197.1 -54.7 -202.65 -49.3 -208.05 -42.2 -211.05 -38.75 -212.35 -35.25 -213.45 L-33.95 -213.8 -30.7 -209.95 -31.1 -214.6 -30.25 -214.75 -28.7 -215.15 Q-18.75 -217.6 -8.2 -219.0 L12.3 -220.9 Q17.55 -220.6 21.9 -218.6 23.05 -219.45 22.5 -221.7 22.1 -224.0 25.05 -225.45 27.65 -227.05 35.1 -227.55 L35.0 -227.55 Q29.5 -226.45 26.3 -220.15 L25.9 -219.3 25.65 -218.9 24.9 -216.8 24.65 -215.95 24.6 -215.6 Q24.25 -214.45 24.05 -213.05 23.5 -209.2 24.1 -204.85 24.8 -200.15 26.65 -196.4 28.15 -193.3 30.45 -190.85 L32.6 -188.9 Q33.7 -187.9 34.9 -187.3 L35.0 -187.3 Q36.05 -186.75 37.0 -186.45 L39.1 -186.05 40.4 -186.15 M28.65 -196.7 Q26.8 -200.45 26.1 -205.1 25.35 -210.8 26.65 -215.5 L27.5 -218.05 M27.6 -218.2 L27.95 -219.0 Q30.9 -225.0 36.25 -225.7 41.55 -226.45 45.95 -221.55 50.5 -216.5 51.55 -208.7 L51.9 -203.15 Q51.75 -200.85 51.2 -198.7 L49.65 -194.9 49.1 -193.75 Q48.25 -192.15 47.2 -191.05 46.65 -190.45 45.95 -190.0 44.65 -188.9 43.0 -188.45 L41.55 -188.05 40.15 -188.0 38.55 -188.15 37.0 -188.5 34.9 -189.5 Q33.3 -190.6 31.7 -192.4 L30.75 -193.4 Q29.5 -195.0 28.65 -196.7 M35.9 -227.7 L35.55 -227.6 M21.8 -184.75 L19.65 -185.35 Q18.7 -185.75 17.95 -186.3 L15.0 -190.6 Q13.85 -192.7 13.15 -194.7 L12.15 -197.75 Q11.45 -200.45 11.3 -203.35 11.15 -206.2 11.6 -209.25 L12.25 -212.65 Q15.25 -216.15 19.65 -217.9 L21.9 -218.6 M16.0 -201.95 Q15.55 -204.55 16.0 -207.65 L19.55 -208.1 20.95 -198.6 17.4 -198.15 Q16.4 -199.85 16.0 -201.95 M19.65 -202.8 Q19.2 -205.4 19.55 -208.1 M19.65 -202.8 Q20.05 -200.65 20.95 -198.6 M39.1 -185.8 L38.1 -185.65 38.7 -185.75 39.0 -185.3 39.45 -184.45 M20.4 -179.25 Q20.25 -180.9 20.4 -182.65 L20.55 -183.5 22.05 -183.95 22.1 -184.65 Q21.95 -184.65 21.9 -184.75 M22.05 -183.95 L22.2 -183.45 22.4 -183.1 23.1 -183.05 33.9 -183.8 37.05 -184.5 37.25 -185.05 37.25 -185.5 29.65 -184.65 23.65 -184.35 22.1 -184.65 M20.55 -178.2 L20.9 -176.65 Q21.5 -174.65 22.65 -172.95 L33.55 -173.25 35.9 -173.85 40.15 -175.4 Q40.7 -177.5 40.75 -179.55 M20.4 -179.25 L20.55 -178.2 8.75 -176.25 -7.5 -173.7 -21.3 -171.5 -32.25 -169.8 -32.5 -169.8 -36.05 -168.6 Q-37.5 -167.8 -37.4 -166.6 -37.25 -165.6 -36.65 -164.75 -36.1 -164.0 -34.8 -163.4 -34.35 -162.6 -35.4 -161.6 -39.5 -159.85 -39.95 -157.5 -40.05 -155.6 -38.65 -154.6 M37.25 -185.6 L37.25 -185.5 37.7 -185.6 37.25 -185.6 29.65 -184.65 M38.1 -185.65 L37.7 -185.6 M-27.3 -163.75 Q-26.6 -163.25 -26.45 -162.2 -26.3 -161.3 -26.85 -160.45 -27.45 -159.75 -28.5 -159.6 -29.4 -159.5 -30.15 -160.05 -30.85 -160.6 -31.0 -161.55 -31.15 -162.55 -30.65 -163.4 -30.0 -164.05 -29.1 -164.15 -28.1 -164.3 -27.3 -163.75 M-42.5 -165.3 L-42.15 -165.3 Q-40.8 -165.45 -39.8 -164.6 -38.65 -163.85 -38.5 -162.55 -38.25 -161.15 -39.2 -160.05 -39.95 -159.0 -41.3 -158.75 L-41.45 -158.75 -41.75 -158.7 -42.75 -158.6 -43.05 -158.5 -43.35 -158.45 Q-44.5 -158.45 -45.5 -159.2 -46.5 -160.0 -46.75 -161.4 -46.9 -162.7 -46.15 -163.75 -45.3 -164.9 -44.0 -165.1 L-43.6 -165.15 -42.5 -165.3 -43.05 -165.1 Q-42.2 -165.0 -41.5 -164.4 -40.35 -163.6 -40.2 -162.3 -39.95 -160.9 -40.9 -159.85 -41.35 -159.05 -42.2 -158.75 L-41.75 -158.7 M-43.05 -165.1 L-43.6 -165.15 M-58.45 -168.25 L-47.0 -169.85 -44.6 -170.15 20.4 -179.25 M-59.3 -165.3 L-59.4 -168.1 -58.45 -168.25 -59.1 -171.65 M-42.2 -158.75 L-42.75 -158.6 M-57.7 -156.5 Q-58.95 -160.45 -59.3 -165.3" fill="none" stroke="#000000" stroke-linecap="round" stroke-linejoin="round" stroke-opacity="0.6627451" stroke-width="1.0"/>
      <path d="M19.65 -217.9 L13.3 -217.45 12.8 -217.35 11.7 -217.2 5.05 -216.15 Q-0.8 -214.95 -4.7 -213.6 -6.75 -212.5 -1.95 -208.25 5.55 -200.95 8.7 -188.15 9.4 -184.6 13.95 -184.05 15.55 -183.9 17.7 -184.05 L20.05 -184.35 21.8 -184.75 21.9 -184.75 M48.0 -196.75 L49.1 -193.75 M40.6 -192.05 L42.95 -191.75 42.95 -192.4 44.5 -192.0 45.5 -191.6 47.2 -191.05 M42.95 -191.75 L42.95 -190.7 44.5 -192.0 M43.0 -188.45 L43.0 -189.75 42.95 -190.7 40.85 -188.6 40.15 -188.0 M45.95 -190.0 L43.0 -189.75 M38.6 -192.4 L40.6 -192.05 48.0 -196.75 51.2 -198.7 M37.0 -188.5 L38.0 -191.15 38.6 -192.4 30.75 -193.4 M40.85 -188.6 L38.0 -191.15" fill="none" stroke="#000000" stroke-linecap="round" stroke-linejoin="round" stroke-opacity="0.6627451" stroke-width="0.5"/>
      <path d="M32.7 -219.05 Q34.6 -219.85 37.6 -220.15 40.55 -220.45 42.65 -220.2 44.8 -219.85 44.95 -219.0 45.0 -218.45 44.1 -217.9 L44.0 -217.9 43.0 -217.5 Q41.1 -216.75 38.15 -216.45 35.15 -216.15 33.0 -216.45 30.85 -216.8 30.75 -217.6 30.65 -218.35 32.7 -219.05 M33.0 -205.4 L32.0 -205.55 Q28.75 -205.95 28.6 -207.2 28.45 -208.35 31.45 -209.55 34.35 -210.6 38.9 -211.05 43.3 -211.6 46.55 -211.05 49.8 -210.6 50.05 -209.4 50.1 -208.55 48.65 -207.7 L48.55 -207.7 47.1 -207.1 Q44.1 -205.95 39.7 -205.4 35.9 -205.1 33.0 -205.4 M40.45 -199.85 Q43.4 -200.25 45.5 -199.95 47.7 -199.55 47.8 -198.8 47.85 -198.15 46.95 -197.6 L46.85 -197.6 45.85 -197.3 Q43.95 -196.55 41.0 -196.15 L36.25 -196.25 35.9 -196.25 Q33.7 -196.55 33.6 -197.4 33.55 -198.1 35.4 -198.8 L35.55 -198.85 Q37.45 -199.6 40.45 -199.85" fill="none" stroke="#000000" stroke-linecap="round" stroke-linejoin="round" stroke-opacity="0.33333334" stroke-width="0.5"/>
      <path d="M-40.95 -206.4 Q-40.5 -204.0 -42.8 -201.7 -45.0 -199.6 -47.2 -199.25 M-10.45 -192.75 L-9.9 -191.7 -9.05 -190.0 -8.65 -190.35 Q-5.2 -194.45 -3.1 -197.55 M-9.05 -190.0 L-7.75 -187.6 M-14.65 -195.9 L-13.0 -192.55 -10.6 -195.45 M-11.95 -186.6 L-10.65 -188.15 -11.6 -189.85 -13.5 -187.75 -10.9 -182.65 M-11.6 -189.85 L-13.0 -192.55 -14.85 -190.45 -14.05 -188.9 -13.5 -187.75 -19.15 -181.05 M-20.05 -184.1 L-15.9 -189.2 -14.85 -190.45 -16.35 -193.6 M-9.05 -190.0 L-10.65 -188.15 -7.95 -182.6 M-11.6 -189.85 L-9.9 -191.7 M-22.4 -162.05 L-23.3 -160.35 -21.75 -160.6 -20.75 -162.3 -22.4 -162.05 -21.7 -163.3 M-24.15 -162.0 L-22.4 -162.05 M-25.3 -156.9 L-23.3 -160.35 -24.25 -160.3 M-20.15 -160.85 L-21.75 -160.6 -23.1 -158.45 M-20.05 -164.0 L-20.75 -162.3 -19.05 -162.55 M-57.55 -193.3 Q-54.7 -193.15 -52.15 -195.7 -49.7 -198.1 -49.6 -200.45" fill="none" stroke="#000000" stroke-linecap="round" stroke-linejoin="round" stroke-opacity="0.6627451" stroke-width="0.5"/>
    </g>
    <g id="sprite0" transform="matrix(1.0, 0.0, 0.0, 1.0, 43.8, 43.8)">
      <use height="86.0" transform="matrix(1.0186, 0.0, 0.0, 1.0186, -43.8, -43.8)" width="86.0" xlink:href="#shape1"/>
    </g>
    <g id="shape1" transform="matrix(1.0, 0.0, 0.0, 1.0, 0.0, 0.0)">
      <path d="M73.4 12.6 Q86.0 25.2 86.0 43.0 86.0 60.8 73.4 73.4 60.8 86.0 43.0 86.0 25.2 86.0 12.6 73.4 0.0 60.8 0.0 43.0 0.0 25.2 12.6 12.6 25.2 0.0 43.0 0.0 60.8 0.0 73.4 12.6" fill="#ffffff" fill-rule="evenodd" stroke="none"/>
    </g>
    <g id="sprite1" transform="matrix(1.0, 0.0, 0.0, 1.0, 71.95, 36.5)">
      <use height="73.0" transform="matrix(1.0, 0.0, 0.0, 1.0, -71.95, -36.5)" width="143.9" xlink:href="#shape2"/>
    </g>
    <g id="shape2" transform="matrix(1.0, 0.0, 0.0, 1.0, 71.95, 36.5)">
      <path d="M33.1 -28.35 L33.15 -28.35 Q34.5 -29.15 34.4 -31.75 34.3 -34.35 37.75 -35.6 41.15 -36.85 50.2 -36.35 L49.95 -36.35 49.2 -36.3 Q42.9 -35.95 38.3 -29.45 L37.7 -28.55 37.45 -28.1 36.25 -25.95 35.85 -25.05 35.7 -24.65 Q35.15 -23.35 34.75 -21.9 33.5 -17.7 33.5 -12.8 33.5 -7.4 34.95 -2.9 36.15 0.8 38.3 3.9 L40.4 6.45 Q41.5 7.65 42.75 8.5 L42.9 8.6 45.0 9.8 47.15 10.5 48.65 10.75 47.2 10.8 46.05 10.85 45.6 10.85 45.35 10.8 45.35 10.85 44.75 12.05 41.15 12.25 28.15 11.25 27.95 10.8 27.9 10.2 Q27.9 9.85 28.05 9.5 L27.75 9.35 27.7 9.35 Q26.45 8.9 25.45 8.25 L23.7 7.0 Q22.15 4.3 21.1 1.65 20.2 -0.75 19.65 -3.1 19.2 -4.95 19.05 -6.75 18.65 -9.9 18.95 -13.05 19.25 -16.3 20.25 -19.6 20.75 -21.45 21.5 -23.3 25.35 -26.7 30.55 -27.9 L33.1 -28.35 M28.9 -17.05 L24.9 -17.05 Q23.95 -13.75 24.05 -10.8 24.15 -8.4 24.9 -6.25 L28.9 -6.25 28.9 -17.05" fill="url(#gradient0)" fill-rule="evenodd" stroke="none"/>
      <path d="M-23.65 20.65 L-23.65 20.75 -23.7 20.7 -23.65 20.65" fill="url(#gradient1)" fill-rule="evenodd" stroke="none"/>
      <path d="M-48.2 20.9 L-47.0 20.9 -47.65 21.05 -48.2 20.9" fill="url(#gradient2)" fill-rule="evenodd" stroke="none"/>
      <path d="M-47.1 28.3 L-48.25 28.3 -47.65 28.2 -47.1 28.3" fill="url(#gradient3)" fill-rule="evenodd" stroke="none"/>
      <path d="M46.05 10.85 L47.2 10.8 47.35 12.4 47.35 12.5 46.7 10.85 46.05 10.85" fill="url(#gradient4)" fill-rule="evenodd" stroke="none"/>
      <path d="M27.9 10.2 L27.95 10.8 28.15 11.25 41.15 12.25 44.75 12.05 45.35 10.85 45.35 10.8 45.6 10.85 46.05 10.85 46.7 10.85 47.35 12.5 Q48.3 15.3 48.0 18.1 47.7 20.35 46.7 22.6 L41.7 23.65 39.0 23.95 Q32.6 24.4 26.85 22.6 25.8 20.5 25.45 18.2 L25.3 16.45 25.3 15.2 Q25.4 12.9 26.15 10.5 L27.9 10.2" fill="url(#gradient5)" fill-rule="evenodd" stroke="none"/>
      <path d="M39.45 -27.05 L39.95 -27.85 Q44.2 -34.1 50.2 -34.1 56.25 -34.1 60.4 -27.85 64.7 -21.55 64.7 -12.7 64.7 -9.45 64.15 -6.5 63.6 -3.95 62.65 -1.65 61.7 0.5 60.4 2.4 L59.6 3.55 57.0 6.25 55.5 7.3 Q53.85 8.25 52.0 8.55 L50.2 8.7 48.75 8.6 46.9 8.2 45.2 7.45 Q44.1 6.85 43.15 6.05 41.45 4.6 39.95 2.4 L39.1 1.05 Q38.0 -0.85 37.25 -3.0 35.75 -7.4 35.75 -12.7 35.75 -19.15 38.0 -24.2 L39.35 -26.9 39.45 -27.05" fill="url(#gradient6)" fill-rule="evenodd" stroke="none"/>
      <path d="M48.65 10.75 L47.15 10.5 45.0 9.8 42.9 8.6 42.75 8.5 Q41.5 7.65 40.4 6.45 L38.3 3.9 Q36.15 0.8 34.95 -2.9 33.5 -7.4 33.5 -12.8 33.5 -17.7 34.75 -21.9 35.15 -23.35 35.7 -24.65 L35.85 -25.05 36.25 -25.95 37.45 -28.1 37.7 -28.55 38.3 -29.45 Q42.9 -35.95 49.2 -36.3 L49.95 -36.35 50.2 -36.35 51.0 -36.3 Q57.05 -35.8 61.5 -29.45 66.35 -22.55 66.35 -12.8 66.35 -9.55 65.85 -6.65 64.75 -0.75 61.5 3.9 56.85 10.6 48.65 10.75 M39.45 -27.05 L39.35 -26.9 38.0 -24.2 Q35.75 -19.15 35.75 -12.7 35.75 -7.4 37.25 -3.0 38.0 -0.85 39.1 1.05 L39.95 2.4 Q41.45 4.6 43.15 6.05 44.1 6.85 45.2 7.45 L46.9 8.2 48.75 8.6 50.2 8.7 52.0 8.55 Q53.85 8.25 55.5 7.3 L57.0 6.25 59.6 3.55 60.4 2.4 Q61.7 0.5 62.65 -1.65 63.6 -3.95 64.15 -6.5 64.7 -9.45 64.7 -12.7 64.7 -21.55 60.4 -27.85 56.25 -34.1 50.2 -34.1 44.2 -34.1 39.95 -27.85 L39.45 -27.05" fill="url(#gradient7)" fill-rule="evenodd" stroke="none"/>
      <path d="M28.9 -6.25 L24.9 -6.25 Q24.15 -8.4 24.05 -10.8 23.95 -13.75 24.9 -17.05 L28.9 -17.05 Q28.1 -14.05 28.15 -11.15 28.2 -8.7 28.9 -6.25" fill="url(#gradient8)" fill-rule="evenodd" stroke="none"/>
      <path d="M28.9 -6.25 Q28.2 -8.7 28.15 -11.15 28.1 -14.05 28.9 -17.05 L28.9 -6.25" fill="url(#gradient9)" fill-rule="evenodd" stroke="none"/>
      <path d="M25.3 16.45 L25.45 18.2 Q25.8 20.5 26.85 22.6 32.6 24.4 39.0 23.95 L41.7 23.65 46.7 22.6 Q47.7 20.35 48.0 18.1 49.95 20.35 52.8 22.15 L55.75 23.7 57.1 24.3 57.9 24.65 61.45 25.8 Q66.05 27.15 71.95 27.9 72.1 31.45 70.05 32.9 L68.55 33.6 Q46.5 35.95 16.6 36.35 L11.75 36.45 0.25 36.5 -0.95 36.5 -7.7 36.45 -22.1 36.1 -36.2 35.5 -41.8 34.8 Q-43.45 34.25 -44.35 33.4 -45.75 32.1 -45.35 29.9 -44.5 27.45 -39.7 26.05 -38.3 25.15 -38.75 24.2 -40.0 23.35 -40.55 22.35 -41.1 21.35 -41.05 20.2 -41.0 18.9 -39.25 18.2 -37.8 17.6 -35.1 17.45 L25.3 16.45 M-23.65 20.65 L-23.7 20.7 -23.65 20.75 -23.65 20.65 M-30.35 28.65 Q-29.6 27.9 -29.6 26.8 -29.6 25.7 -30.35 24.95 -31.1 24.2 -32.2 24.2 -33.3 24.2 -34.05 24.95 -34.8 25.7 -34.8 26.8 -34.8 27.9 -34.05 28.65 -33.3 29.4 -32.2 29.4 -31.1 29.4 -30.35 28.65" fill="url(#gradient10)" fill-rule="evenodd" stroke="none"/>
      <path d="M33.1 -28.35 L30.55 -27.9 Q25.35 -26.7 21.5 -23.3 20.75 -21.45 20.25 -19.6 19.25 -16.3 18.95 -13.05 18.65 -9.9 19.05 -6.75 19.2 -4.95 19.65 -3.1 20.2 -0.75 21.1 1.65 22.15 4.3 23.7 7.0 L25.45 8.25 Q26.45 8.9 27.7 9.35 L27.75 9.35 28.05 9.5 Q27.9 9.85 27.9 10.2 L26.15 10.5 Q25.4 12.9 25.3 15.2 L-48.55 15.1 -51.3 15.1 -64.3 15.1 -65.4 15.1 -65.7 18.2 Q-66.1 23.7 -65.25 28.2 L-67.15 28.15 Q-69.15 27.9 -70.5 27.15 -73.1 19.1 -71.05 12.5 -70.05 11.45 -66.6 11.25 L-64.45 11.2 -64.35 4.55 -63.6 -5.2 -63.2 -8.65 Q-61.8 -17.3 -54.65 -22.7 -47.85 -27.85 -39.4 -30.0 L-31.35 -31.65 -29.75 -31.9 -26.85 -27.1 -26.5 -32.25 -25.5 -32.35 -23.7 -32.5 Q-1.45 -34.6 22.85 -32.5 28.65 -31.3 33.1 -28.35" fill="url(#gradient11)" fill-rule="evenodd" stroke="none"/>
      <path d="M-65.25 28.2 Q-66.1 23.7 -65.7 18.2 L-65.4 15.1 -64.3 15.1 -51.3 15.1 -48.55 15.1 25.3 15.2 25.3 16.45 -35.1 17.45 Q-37.8 17.6 -39.25 18.2 -41.0 18.9 -41.05 20.2 -41.1 21.35 -40.55 22.35 -40.0 23.35 -38.75 24.2 -38.3 25.15 -39.7 26.05 -44.5 27.45 -45.35 29.9 -45.75 32.1 -44.35 33.4 L-56.95 32.65 -61.8 32.2 -64.3 31.9 -65.25 28.2 M-48.2 20.9 L-48.6 20.9 Q-50.15 20.9 -51.25 22.0 -52.3 23.05 -52.3 24.6 -52.3 26.15 -51.25 27.2 -50.3 28.15 -48.95 28.3 L-48.6 28.3 -48.25 28.3 -47.1 28.3 -46.75 28.3 -46.65 28.3 -46.6 28.3 Q-45.1 28.3 -44.05 27.2 -42.95 26.15 -42.95 24.6 -42.95 23.05 -44.05 22.0 -45.05 20.95 -46.55 20.9 L-46.65 20.9 -47.0 20.9 -48.2 20.9" fill="url(#gradient12)" fill-rule="evenodd" stroke="none"/>
      <path d="M-30.35 28.65 Q-31.1 29.4 -32.2 29.4 -33.3 29.4 -34.05 28.65 -34.8 27.9 -34.8 26.8 -34.8 25.7 -34.05 24.95 -33.3 24.2 -32.2 24.2 -31.1 24.2 -30.35 24.95 -29.6 25.7 -29.6 26.8 -29.6 27.9 -30.35 28.65" fill="url(#gradient13)" fill-rule="evenodd" stroke="none"/>
      <path d="M-48.25 28.3 L-48.6 28.3 -48.95 28.3 Q-50.3 28.15 -51.25 27.2 -52.3 26.15 -52.3 24.6 -52.3 23.05 -51.25 22.0 -50.15 20.9 -48.6 20.9 L-48.2 20.9 -47.65 21.05 -47.0 20.9 -46.65 20.9 -46.55 20.9 Q-45.05 20.95 -44.05 22.0 -42.95 23.05 -42.95 24.6 -42.95 26.15 -44.05 27.2 -45.1 28.3 -46.6 28.3 L-46.65 28.3 -46.75 28.3 -47.1 28.3 -47.65 28.2 -48.25 28.3" fill="url(#gradient14)" fill-rule="evenodd" stroke="none"/>
    </g>
    <linearGradient gradientTransform="matrix(0.0192, 0.0, 0.0, 0.0298, 34.5, -12.15)" gradientUnits="userSpaceOnUse" id="gradient0" spreadMethod="pad" x1="-819.2" x2="819.2">
      <stop offset="0.0" stop-color="#000000"/>
      <stop offset="1.0" stop-color="#ffffff"/>
    </linearGradient>
    <linearGradient gradientTransform="matrix(0.0, 0.0, 0.0, 1.0E-4, -23.7, 20.7)" gradientUnits="userSpaceOnUse" id="gradient1" spreadMethod="pad" x1="-819.2" x2="819.2">
      <stop offset="0.0" stop-color="#000000"/>
      <stop offset="1.0" stop-color="#ffffff"/>
    </linearGradient>
    <linearGradient gradientTransform="matrix(7.0E-4, 0.0, 0.0, 1.0E-4, -47.6, 20.95)" gradientUnits="userSpaceOnUse" id="gradient2" spreadMethod="pad" x1="-819.2" x2="819.2">
      <stop offset="0.0" stop-color="#000000"/>
      <stop offset="1.0" stop-color="#ffffff"/>
    </linearGradient>
    <linearGradient gradientTransform="matrix(7.0E-4, 0.0, 0.0, 1.0E-4, -47.7, 28.25)" gradientUnits="userSpaceOnUse" id="gradient3" spreadMethod="pad" x1="-819.2" x2="819.2">
      <stop offset="0.0" stop-color="#000000"/>
      <stop offset="1.0" stop-color="#ffffff"/>
    </linearGradient>
    <linearGradient gradientTransform="matrix(8.0E-4, 0.0, 0.0, 0.001, 46.7, 11.65)" gradientUnits="userSpaceOnUse" id="gradient4" spreadMethod="pad" x1="-819.2" x2="819.2">
      <stop offset="0.0" stop-color="#000000"/>
      <stop offset="1.0" stop-color="#ffffff"/>
    </linearGradient>
    <linearGradient gradientTransform="matrix(0.0139, 0.0, 0.0, 0.0085, 36.65, 17.1)" gradientUnits="userSpaceOnUse" id="gradient5" spreadMethod="pad" x1="-819.2" x2="819.2">
      <stop offset="0.0" stop-color="#000000"/>
      <stop offset="1.0" stop-color="#ffffff"/>
    </linearGradient>
    <linearGradient gradientTransform="matrix(0.0, -0.0233, 0.0261, 0.0, 50.2, -12.7)" gradientUnits="userSpaceOnUse" id="gradient6" spreadMethod="pad" x1="-819.2" x2="819.2">
      <stop offset="0.0" stop-color="#000000"/>
      <stop offset="1.0" stop-color="#ffffff"/>
    </linearGradient>
    <linearGradient gradientTransform="matrix(0.0142, -0.0142, 0.0203, 0.0203, 49.9, -12.8)" gradientUnits="userSpaceOnUse" id="gradient7" spreadMethod="pad" x1="-819.2" x2="819.2">
      <stop offset="0.0" stop-color="#000000"/>
      <stop offset="1.0" stop-color="#ffffff"/>
    </linearGradient>
    <linearGradient gradientTransform="matrix(0.0, -0.0059, 0.0066, 0.0, 26.45, -11.65)" gradientUnits="userSpaceOnUse" id="gradient8" spreadMethod="pad" x1="-819.2" x2="819.2">
      <stop offset="0.0" stop-color="#000000"/>
      <stop offset="1.0" stop-color="#ffffff"/>
    </linearGradient>
    <linearGradient gradientTransform="matrix(0.0, -0.0048, 0.0066, 0.0, 28.5, -11.65)" gradientUnits="userSpaceOnUse" id="gradient9" spreadMethod="pad" x1="-819.2" x2="819.2">
      <stop offset="0.0" stop-color="#000000"/>
      <stop offset="1.0" stop-color="#ffffff"/>
    </linearGradient>
    <linearGradient gradientTransform="matrix(0.0571, 0.0, 0.0, 0.0122, 13.25, 26.45)" gradientUnits="userSpaceOnUse" id="gradient10" spreadMethod="pad" x1="-819.2" x2="819.2">
      <stop offset="0.0" stop-color="#000000"/>
      <stop offset="1.0" stop-color="#ffffff"/>
    </linearGradient>
    <linearGradient gradientTransform="matrix(0.0, -0.028, 0.0377, 0.0, -16.6, -8.0)" gradientUnits="userSpaceOnUse" id="gradient11" spreadMethod="pad" x1="-819.2" x2="819.2">
      <stop offset="0.0" stop-color="#000000"/>
      <stop offset="1.0" stop-color="#ffffff"/>
    </linearGradient>
    <linearGradient gradientTransform="matrix(-0.0355, 0.0, 0.0, -0.0112, -34.55, 22.85)" gradientUnits="userSpaceOnUse" id="gradient12" spreadMethod="pad" x1="-819.2" x2="819.2">
      <stop offset="0.0" stop-color="#000000"/>
      <stop offset="1.0" stop-color="#ffffff"/>
    </linearGradient>
    <linearGradient gradientTransform="matrix(0.0, -0.0032, 0.0032, 0.0, -32.2, 26.8)" gradientUnits="userSpaceOnUse" id="gradient13" spreadMethod="pad" x1="-819.2" x2="819.2">
      <stop offset="0.0" stop-color="#000000"/>
      <stop offset="1.0" stop-color="#ffffff"/>
    </linearGradient>
    <linearGradient gradientTransform="matrix(0.0, -0.0042, 0.0045, 0.0, -47.65, 24.6)" gradientUnits="userSpaceOnUse" id="gradient14" spreadMethod="pad" x1="-819.2" x2="819.2">
      <stop offset="0.0" stop-color="#000000"/>
      <stop offset="1.0" stop-color="#ffffff"/>
    </linearGradient>
    <g id="shape3" transform="matrix(1.0, 0.0, 0.0, 1.0, 79.85, 246.85)">
      <path d="M27.0 -127.3 L27.15 -125.55 Q27.15 -123.7 26.65 -122.0 26.05 -119.7 24.8 -119.7 24.3 -119.7 23.75 -120.15 L22.95 -120.7 22.05 -119.0 Q20.25 -116.15 18.25 -116.15 14.95 -116.15 13.5 -121.05 L12.8 -120.15 Q11.85 -118.9 11.5 -118.9 10.65 -118.9 9.55 -120.45 8.45 -122.0 8.45 -123.25 8.45 -124.25 8.8 -125.6 L9.5 -125.85 11.4 -126.3 15.9 -125.85 20.35 -125.4 Q23.3 -125.4 25.6 -126.45 L27.0 -127.3 M24.05 -124.6 Q23.75 -122.55 22.95 -120.7 23.75 -122.55 24.05 -124.6 M12.95 -123.25 L13.5 -121.05 12.95 -123.25" fill="#1a1a1a" fill-rule="evenodd" stroke="none"/>
      <path d="M8.8 -125.6 L9.1 -126.8 Q9.5 -128.25 10.3 -129.5 11.95 -130.8 14.7 -131.8 17.55 -132.8 20.1 -132.8 23.6 -132.8 25.45 -130.8 26.65 -129.4 27.0 -127.3 L25.6 -126.45 Q23.3 -125.4 20.35 -125.4 L15.9 -125.85 11.4 -126.3 9.5 -125.85 8.8 -125.6" fill="#333333" fill-rule="evenodd" stroke="none"/>
      <path d="M27.0 -127.3 L27.15 -125.55 Q27.15 -123.7 26.65 -122.0 26.05 -119.7 24.8 -119.7 24.3 -119.7 23.75 -120.15 L22.95 -120.7 22.05 -119.0 Q20.25 -116.15 18.25 -116.15 14.95 -116.15 13.5 -121.05 L12.8 -120.15 Q11.85 -118.9 11.5 -118.9 10.65 -118.9 9.55 -120.45 8.45 -122.0 8.45 -123.25 8.45 -124.25 8.8 -125.6 L9.1 -126.8 Q9.5 -128.25 10.3 -129.5 11.95 -130.8 14.7 -131.8 17.55 -132.8 20.1 -132.8 23.6 -132.8 25.45 -130.8 26.65 -129.4 27.0 -127.3 M13.5 -121.05 L12.95 -123.25 M22.95 -120.7 Q23.75 -122.55 24.05 -124.6" fill="none" stroke="#000000" stroke-linecap="round" stroke-linejoin="round" stroke-opacity="0.6627451" stroke-width="1.0"/>
      <path d="M-36.55 -239.55 L-18.4 -202.85 -5.3 -178.95 -4.2 -229.3 21.4 -246.35 28.25 -164.7 44.5 -227.55 65.95 -231.65 70.6 -206.65 44.85 -155.05 69.5 -162.75 81.45 -167.4 70.65 -122.3 54.1 -99.15 67.6 -107.25 79.9 -122.3 67.6 -93.35 29.5 -74.25 -4.05 -86.8 -3.0 -116.5 -29.2 -127.65 -21.75 -79.85 -65.05 -97.6 -79.35 -123.45 -69.6 -128.45 -75.8 -194.75 -54.65 -170.85 -58.2 -199.4 -36.55 -239.55 M55.25 -197.1 L65.95 -231.65 55.25 -197.1 M-54.65 -110.3 L-79.35 -123.45 -54.65 -110.3 M56.8 -140.0 L14.0 -121.5 51.0 -115.7 56.8 -140.0 M-4.9 -157.35 L-42.3 -180.1 -16.1 -133.85 Q-10.45 -145.55 -4.9 -157.35 M-39.6 -109.55 L-29.2 -127.65 -39.6 -109.55 M58.3 -121.5 L81.45 -167.4 58.3 -121.5" fill="#66dbff" fill-opacity="0.5019608" fill-rule="evenodd" stroke="none"/>
      <path d="M-18.4 -202.85 L-36.55 -239.55 -4.2 -229.3 -5.3 -178.95 -18.4 -202.85 M-58.2 -199.4 L-54.65 -170.85 -75.8 -194.75 -58.2 -199.4 M21.4 -246.35 L44.5 -227.55 28.25 -164.7 21.4 -246.35 M70.6 -206.65 L79.9 -206.65 69.5 -162.75 44.85 -155.05 70.6 -206.65 M70.65 -122.3 L79.9 -122.3 67.6 -107.25 54.1 -99.15 70.65 -122.3 M-4.05 -86.8 Q-12.85 -83.35 -21.75 -79.85 L-29.2 -127.65 -3.0 -116.5 -4.05 -86.8 M56.8 -140.0 L51.0 -115.7 14.0 -121.5 56.8 -140.0 M-4.9 -157.35 Q-10.45 -145.55 -16.1 -133.85 L-42.3 -180.1 -4.9 -157.35" fill="#a8e9ff" fill-opacity="0.5019608" fill-rule="evenodd" stroke="none"/>
      <path d="M-4.2 -229.3 L-36.55 -239.55 -58.2 -199.4 -75.8 -194.75 -69.6 -128.45 -79.35 -123.45 -65.05 -97.6 -21.75 -79.85 Q-12.85 -83.35 -4.05 -86.8 L29.5 -74.25 67.6 -93.35 79.9 -122.3 70.65 -122.3 81.45 -167.4 69.5 -162.75 79.9 -206.65 70.6 -206.65 65.95 -231.65 44.5 -227.55 21.4 -246.35 -4.2 -229.3" fill="none" stroke="#000000" stroke-linecap="round" stroke-linejoin="round" stroke-opacity="0.2509804" stroke-width="1.0"/>
      <path d="M-36.55 -239.55 L-18.4 -202.85 M-54.65 -170.85 L-75.8 -194.75 M-79.35 -123.45 L-54.65 -110.3 M65.95 -231.65 L55.25 -197.1 M67.6 -107.25 L79.9 -122.3 M-29.2 -127.65 L-39.6 -109.55 M-3.0 -116.5 L-29.2 -127.65 -21.75 -79.85 M81.45 -167.4 L58.3 -121.5" fill="none" stroke="#000000" stroke-linecap="round" stroke-linejoin="round" stroke-opacity="0.2" stroke-width="1.0"/>
    </g>
  </defs>
</svg>
