<?xml version="1.0" encoding="UTF-8" standalone="no"?>
<svg xmlns:xlink="http://www.w3.org/1999/xlink" height="531.5px" width="460.6px" xmlns="http://www.w3.org/2000/svg">
  <g transform="matrix(1.0, 0.0, 0.0, 1.0, 193.65, 334.05)">
    <use height="110.1" transform="matrix(1.0, 0.0, 0.0, 1.0, -67.95, -243.85)" width="135.4" xlink:href="#shape0"/>
    <use height="87.6" transform="matrix(0.582, -0.0822, 0.1125, 0.7961, 16.4801, -240.8187)" width="87.6" xlink:href="#sprite0"/>
    <use height="87.6" transform="matrix(0.5368, -0.0758, 0.0997, 0.7056, 13.6717, -236.9822)" width="87.6" xlink:href="#sprite0"/>
    <use height="20.1" transform="matrix(1.0, 0.0, 0.0, 1.0, 29.1, -218.65)" width="25.5" xlink:href="#shape2"/>
    <use height="87.6" transform="matrix(0.7054, -0.0996, 0.1309, 0.9269, 2.9219, -245.4838)" width="87.6" xlink:href="#sprite0"/>
    <use height="18.45" transform="matrix(1.0, 0.0, 0.0, 1.0, 2.2, -129.55)" width="20.55" xlink:href="#shape3"/>
  </g>
  <defs>
    <g id="shape0" transform="matrix(1.0, 0.0, 0.0, 1.0, 67.95, 243.85)">
      <path d="M9.0 -144.6 L7.95 -146.3 7.8 -146.65 7.5 -147.2 7.5 -147.5 7.7 -151.1 Q8.35 -156.2 10.85 -159.75 22.0 -160.35 27.2 -158.15 32.3 -155.9 37.05 -151.75 41.85 -147.5 49.95 -146.65 L49.15 -143.8 48.3 -142.0 47.5 -140.65 45.4 -139.4 Q42.5 -137.9 39.9 -137.9 33.95 -137.9 27.75 -141.75 21.55 -145.7 17.7 -145.7 14.7 -145.7 9.0 -144.6" fill="#333333" fill-rule="evenodd" stroke="none"/>
      <path d="M9.0 -144.6 Q14.7 -145.7 17.7 -145.7 21.55 -145.7 27.75 -141.75 33.95 -137.9 39.9 -137.9 42.5 -137.9 45.4 -139.4 L47.5 -140.65 Q46.65 -139.25 45.55 -138.45 37.45 -132.5 28.3 -135.0 23.25 -136.25 18.65 -139.4 12.6 -139.2 9.0 -144.6" fill="#1a1a1a" fill-rule="evenodd" stroke="none"/>
      <path d="M47.5 -140.65 L48.3 -142.0 49.15 -143.8 49.95 -146.65 Q41.85 -147.5 37.05 -151.75 32.3 -155.9 27.2 -158.15 22.0 -160.35 10.85 -159.75 8.35 -156.2 7.7 -151.1 L7.5 -147.5 7.5 -147.2 7.8 -146.65 7.95 -146.3 9.0 -144.6 Q12.6 -139.2 18.65 -139.4 23.25 -136.25 28.3 -135.0 37.45 -132.5 45.55 -138.45 46.65 -139.25 47.5 -140.65 Z" fill="none" stroke="#000000" stroke-linecap="round" stroke-linejoin="round" stroke-opacity="0.6627451" stroke-width="1.0"/>
      <path d="M17.85 -145.7 L17.7 -145.7 Q13.45 -145.7 4.05 -143.75 -7.75 -141.3 -14.55 -140.5 -22.8 -140.5 -28.45 -142.95 -31.65 -144.3 -34.35 -146.65 -24.2 -147.5 -18.3 -151.75 -12.3 -155.9 -5.95 -158.15 0.5 -160.35 14.65 -159.75 18.4 -155.25 18.8 -148.5 L18.8 -148.45 19.1 -148.5 Q18.8 -147.75 18.8 -147.2 L18.45 -146.65 17.85 -145.7" fill="#333333" fill-rule="evenodd" stroke="none"/>
      <path d="M-34.35 -146.65 Q-31.65 -144.3 -28.45 -142.95 -22.8 -140.5 -14.55 -140.5 -7.75 -141.3 4.05 -143.75 13.45 -145.7 17.7 -145.7 L17.85 -145.7 15.75 -143.25 Q11.35 -139.2 4.8 -139.4 -0.9 -136.25 -7.25 -135.0 -18.8 -132.5 -29.0 -138.45 -31.8 -140.2 -33.6 -144.5 L-34.5 -146.65 -34.35 -146.65 M-1.95 -141.2 Q0.75 -138.95 4.2 -139.35 L4.8 -139.4 4.2 -139.35 Q0.75 -138.95 -1.95 -141.2" fill="#1a1a1a" fill-rule="evenodd" stroke="none"/>
      <path d="M-34.35 -146.65 L-34.5 -146.65 -33.6 -144.5 Q-31.8 -140.2 -29.0 -138.45 -18.8 -132.5 -7.25 -135.0 -0.9 -136.25 4.8 -139.4 L4.2 -139.35 Q0.75 -138.95 -1.95 -141.2 M15.75 -143.25 Q11.35 -139.2 4.8 -139.4 M-34.35 -146.65 Q-24.2 -147.5 -18.3 -151.75 -12.3 -155.9 -5.95 -158.15 0.5 -160.35 14.65 -159.75" fill="none" stroke="#000000" stroke-linecap="round" stroke-linejoin="round" stroke-opacity="0.6627451" stroke-width="1.0"/>
      <path d="M23.65 -220.75 Q24.85 -221.7 24.3 -224.05 23.9 -226.4 26.95 -228.0 29.7 -229.65 37.4 -230.25 L37.4 -230.2 Q31.65 -229.0 28.2 -222.4 L27.8 -221.55 27.55 -221.1 24.65 -218.9 17.35 -213.95 12.9 -211.05 13.55 -214.55 Q16.65 -218.2 21.3 -220.05 L23.65 -220.75 M17.05 -196.0 L17.05 -196.35 Q17.0 -196.85 14.85 -198.2 L13.45 -198.95 Q12.65 -201.8 12.5 -204.75 L15.2 -208.05 18.1 -211.3 24.5 -216.55 26.55 -218.05 26.45 -217.65 25.85 -214.95 Q25.3 -210.95 25.95 -206.4 26.7 -201.45 28.6 -197.55 L24.2 -196.7 22.1 -196.35 17.05 -196.0 M21.2 -209.8 L17.45 -209.3 Q17.0 -206.1 17.45 -203.35 17.85 -201.15 18.95 -199.35 L22.65 -199.8 21.2 -209.8" fill="#ffcc00" fill-rule="evenodd" stroke="none"/>
      <path d="M37.9 -230.25 L37.95 -230.25 38.1 -230.35 38.3 -230.35 39.05 -230.4 Q44.7 -230.75 49.6 -225.5 54.95 -219.75 56.3 -210.75 56.7 -207.65 56.6 -205.0 L55.9 -204.75 55.05 -204.6 54.7 -210.4 Q53.6 -218.6 48.85 -223.85 44.2 -229.0 38.65 -228.25 33.05 -227.5 30.0 -221.15 L29.6 -220.4 29.55 -220.2 Q29.0 -218.95 28.6 -217.55 27.25 -212.6 28.05 -206.65 28.85 -201.8 30.7 -197.85 L28.6 -197.55 Q26.7 -201.45 25.95 -206.4 25.3 -210.95 25.85 -214.95 L26.45 -217.65 26.55 -218.05 26.8 -218.95 27.55 -221.1 27.8 -221.55 28.2 -222.4 Q31.65 -229.0 37.4 -230.2 L37.9 -230.25 M38.3 -230.35 L37.95 -230.25 38.3 -230.35" fill="#616e55" fill-rule="evenodd" stroke="none"/>
      <path d="M37.4 -230.25 L37.9 -230.25 37.4 -230.2 37.4 -230.25" fill="#6b8553" fill-rule="evenodd" stroke="none"/>
      <path d="M-59.35 -235.45 L-59.35 -235.5 -59.3 -235.45 Q-48.7 -226.75 -42.55 -213.15 L-36.3 -215.35 -34.9 -215.75 -31.5 -211.75 -31.9 -216.6 -31.05 -216.75 -29.4 -217.15 Q-18.95 -219.75 -7.9 -221.15 L3.4 -222.4 10.7 -220.95 10.7 -222.05 10.25 -225.25 Q9.7 -227.9 9.7 -229.8 L9.9 -240.85 11.1 -243.35 Q18.7 -234.9 22.7 -223.45 L23.65 -220.75 21.3 -220.05 14.65 -219.6 14.1 -219.5 13.0 -219.35 6.0 -218.2 Q-0.1 -217.0 -4.3 -215.5 -6.4 -214.4 -1.4 -209.95 6.45 -202.25 9.75 -188.85 10.55 -185.15 15.25 -184.6 6.4 -182.55 -2.25 -181.05 -30.25 -176.45 -56.2 -177.4 -56.6 -180.6 -56.6 -182.9 -56.6 -184.7 -55.65 -191.45 L-54.9 -198.4 -57.3 -210.1 Q-59.75 -222.2 -59.75 -228.05 L-59.3 -235.45 -59.35 -235.45" fill="url(#gradient0)" fill-rule="evenodd" stroke="none"/>
      <path d="M-62.05 -177.7 L-62.65 -186.9 -62.65 -190.1 -62.55 -191.05 Q-65.8 -216.3 -59.35 -235.45 L-59.3 -235.45 -59.75 -228.05 Q-59.75 -222.2 -57.3 -210.1 L-54.9 -198.4 -55.65 -191.45 Q-56.6 -184.7 -56.6 -182.9 -56.6 -180.6 -56.2 -177.4 L-62.05 -177.7 M3.4 -222.4 L5.9 -222.65 Q6.0 -232.15 9.9 -240.85 L9.7 -229.8 Q9.7 -227.9 10.25 -225.25 L10.7 -222.05 10.7 -220.95 3.4 -222.4" fill="url(#gradient1)" fill-rule="evenodd" stroke="none"/>
      <path d="M-61.25 -171.6 L-62.05 -177.7 -56.2 -177.4 Q-30.25 -176.45 -2.25 -181.05 6.4 -182.55 15.25 -184.6 10.55 -185.15 9.75 -188.85 6.45 -202.25 -1.4 -209.95 -6.4 -214.4 -4.3 -215.5 -0.1 -217.0 6.0 -218.2 L13.0 -219.35 14.1 -219.5 14.65 -219.6 21.3 -220.05 Q16.65 -218.2 13.55 -214.55 L12.9 -211.05 Q12.35 -207.75 12.5 -204.75 12.65 -201.8 13.45 -198.95 L14.45 -195.75 Q15.2 -193.65 16.45 -191.45 17.75 -189.15 19.5 -186.95 L21.3 -185.95 23.55 -185.3 23.65 -185.3 23.9 -185.25 23.8 -184.55 23.95 -183.9 24.2 -183.6 24.9 -183.5 36.2 -184.35 36.65 -183.5 37.4 -181.7 38.0 -177.7 38.3 -174.7 38.3 -173.95 35.8 -173.25 24.45 -172.9 Q23.2 -174.7 22.55 -176.85 L22.25 -178.4 22.1 -179.6 Q21.9 -181.25 22.1 -183.1 L22.25 -184.05 23.8 -184.55 22.25 -184.05 22.1 -183.1 Q21.9 -181.25 22.1 -179.6 L-46.1 -170.0 -48.6 -169.7 -55.2 -168.75 -60.6 -167.95 -61.25 -171.6 M15.25 -184.6 Q17.0 -184.45 19.25 -184.6 L21.7 -184.9 23.55 -185.3 21.7 -184.9 19.25 -184.6 Q17.0 -184.45 15.25 -184.6" fill="#050512" fill-rule="evenodd" stroke="none"/>
      <path d="M12.9 -211.05 L17.35 -213.95 24.65 -218.9 27.55 -221.1 26.8 -218.95 26.55 -218.05 24.5 -216.55 18.1 -211.3 15.2 -208.05 12.5 -204.75 Q12.35 -207.75 12.9 -211.05 M40.15 -222.4 Q37.0 -222.1 34.95 -221.25 32.85 -220.55 32.9 -219.75 33.0 -218.95 35.25 -218.5 37.55 -218.2 40.7 -218.5 43.75 -218.9 45.8 -219.65 L46.8 -220.05 46.85 -220.05 Q47.9 -220.6 47.8 -221.15 47.65 -222.1 45.4 -222.5 43.2 -222.75 40.15 -222.4 M30.7 -197.85 Q28.85 -201.8 28.05 -206.65 27.25 -212.6 28.6 -217.55 29.0 -218.95 29.55 -220.2 L29.6 -220.4 30.0 -221.15 Q33.05 -227.5 38.65 -228.25 44.2 -229.0 48.85 -223.85 53.6 -218.6 54.7 -210.4 L55.05 -204.6 Q54.9 -202.2 54.35 -199.9 53.7 -197.85 52.7 -196.0 L52.15 -194.8 51.05 -197.95 43.25 -193.0 41.15 -193.3 40.5 -192.05 43.5 -189.4 42.8 -188.7 41.05 -188.85 39.5 -189.25 Q38.3 -189.7 37.3 -190.35 35.6 -191.45 33.85 -193.3 L32.9 -194.35 Q31.65 -196.05 30.7 -197.85 M30.65 -208.85 Q30.8 -207.5 34.25 -207.1 L35.25 -206.95 Q38.3 -206.65 42.3 -206.95 46.85 -207.5 50.0 -208.75 50.95 -209.1 51.6 -209.4 L51.65 -209.4 Q53.25 -210.25 53.15 -211.2 52.9 -212.4 49.45 -212.85 46.1 -213.5 41.45 -212.85 36.65 -212.4 33.6 -211.35 30.5 -210.0 30.65 -208.85 M37.95 -200.15 L37.75 -200.05 Q35.8 -199.3 35.9 -198.55 35.95 -197.7 38.3 -197.4 38.4 -197.25 38.65 -197.4 L43.65 -197.25 Q46.7 -197.7 48.75 -198.5 L49.8 -198.8 49.85 -198.8 Q50.85 -199.35 50.8 -200.05 50.7 -200.85 48.35 -201.25 46.15 -201.55 43.1 -201.15 39.95 -200.9 37.95 -200.15 M32.9 -194.35 L41.15 -193.3 32.9 -194.35 M54.35 -199.9 L51.05 -197.95 54.35 -199.9 M39.5 -189.25 L40.5 -192.05 39.5 -189.25" fill="#ffffff" fill-rule="evenodd" stroke="none"/>
      <path d="M41.6 -186.4 L41.75 -185.95 42.0 -185.05 42.0 -185.0 41.55 -185.85 41.2 -186.35 40.6 -186.25 41.6 -186.4 M17.45 -203.35 Q17.0 -206.1 17.45 -209.3 L21.2 -209.8 Q20.75 -206.95 21.3 -204.2 L21.15 -204.15 18.7 -203.6 17.45 -203.35 M40.15 -186.15 L39.75 -186.1 39.75 -186.15 39.75 -186.1 31.8 -185.25 39.75 -186.15 40.15 -186.15 M-43.05 -158.0 L-44.15 -157.95 -43.6 -158.1 -43.05 -158.0 M-45.0 -164.75 L-43.9 -164.9 -44.45 -164.7 -45.0 -164.75" fill="#cccccc" fill-rule="evenodd" stroke="none"/>
      <path d="M22.65 -199.8 L18.95 -199.35 Q17.85 -201.15 17.45 -203.35 L18.7 -203.6 21.15 -204.15 21.3 -204.2 Q21.7 -201.95 22.65 -199.8 M-28.0 -163.35 Q-27.25 -162.8 -27.05 -161.7 -26.9 -160.75 -27.5 -159.8 -28.15 -159.1 -29.15 -158.95 -30.15 -158.85 -30.95 -159.4 -31.65 -159.95 -31.8 -161.0 -32.0 -162.0 -31.45 -162.95 -30.8 -163.65 -29.8 -163.75 -28.75 -163.9 -28.0 -163.35" fill="#999999" fill-rule="evenodd" stroke="none"/>
      <path d="M43.4 -179.9 Q45.45 -178.0 48.3 -176.75 L46.8 -175.1 43.5 -171.35 Q45.05 -171.75 51.25 -175.65 51.8 -175.4 52.5 -175.25 L53.4 -175.1 50.7 -173.15 50.7 -173.05 51.75 -173.25 54.8 -173.95 Q55.95 -174.15 56.75 -174.5 L66.8 -173.95 Q67.35 -170.65 65.6 -169.05 L64.35 -168.3 Q44.3 -163.2 16.75 -158.85 L12.25 -158.15 1.7 -156.65 0.6 -156.5 -0.85 -157.95 -3.75 -160.2 Q-3.8 -159.6 -5.0 -157.0 L-5.6 -155.65 -18.85 -154.1 -29.55 -153.0 -30.15 -153.45 -32.35 -155.55 Q-33.05 -156.5 -33.25 -157.85 -33.45 -159.35 -32.7 -161.3 -31.9 -163.2 -32.0 -163.65 L-33.0 -164.7 Q-33.95 -165.45 -34.0 -166.1 -34.25 -167.5 -33.7 -168.75 L-33.25 -169.45 -33.15 -169.6 -21.6 -171.4 -33.15 -169.6 -33.4 -169.6 -37.1 -168.45 -61.5 -164.9 -61.55 -167.8 -60.6 -167.95 -55.2 -168.75 -48.6 -169.7 -46.1 -170.0 22.1 -179.6 22.25 -178.4 9.85 -176.45 11.25 -176.3 Q13.0 -176.2 13.85 -175.4 14.55 -175.05 15.35 -173.15 L16.75 -170.1 Q17.2 -169.05 22.55 -169.15 L29.05 -169.75 33.7 -170.55 35.8 -171.35 Q36.05 -171.65 35.95 -172.35 L35.8 -173.25 38.3 -173.95 42.8 -175.5 Q43.35 -177.7 43.4 -179.9 M13.45 -198.95 L14.85 -198.2 Q17.0 -196.85 17.05 -196.35 L17.05 -196.0 16.45 -191.45 Q15.2 -193.65 14.45 -195.75 L13.45 -198.95 M22.65 -189.0 L25.4 -192.6 29.45 -191.65 27.9 -191.05 27.5 -190.65 22.65 -189.0 M-7.2 -173.8 L9.85 -176.45 -7.2 -173.8 -21.6 -171.4 -22.4 -168.2 -22.5 -168.15 -22.4 -168.15 Q-22.0 -167.95 -21.55 -168.3 L-20.2 -168.7 -17.55 -169.15 -16.9 -168.9 Q-15.4 -167.95 -13.95 -167.35 L-7.2 -173.8 M-28.0 -163.35 Q-28.75 -163.9 -29.8 -163.75 -30.8 -163.65 -31.45 -162.95 -32.0 -162.0 -31.8 -161.0 -31.65 -159.95 -30.95 -159.4 -30.15 -158.85 -29.15 -158.95 -28.15 -159.1 -27.5 -159.8 -26.9 -160.75 -27.05 -161.7 -27.25 -162.8 -28.0 -163.35 M-0.05 -169.4 L-1.7 -165.15 3.0 -167.5 Q0.35 -169.45 -0.05 -169.4" fill="#ffdf45" fill-rule="evenodd" stroke="none"/>
      <path d="M40.15 -222.4 Q43.2 -222.75 45.4 -222.5 47.65 -222.1 47.8 -221.15 47.9 -220.6 46.85 -220.05 L46.8 -220.05 45.8 -219.65 Q43.75 -218.9 40.7 -218.5 37.55 -218.2 35.25 -218.5 33.0 -218.95 32.9 -219.75 32.85 -220.55 34.95 -221.25 37.0 -222.1 40.15 -222.4 M37.95 -200.15 Q39.95 -200.9 43.1 -201.15 46.15 -201.55 48.35 -201.25 50.7 -200.85 50.8 -200.05 50.85 -199.35 49.85 -198.8 L49.8 -198.8 48.75 -198.5 Q46.7 -197.7 43.65 -197.25 L38.65 -197.4 Q38.4 -197.25 38.3 -197.4 35.95 -197.7 35.9 -198.55 35.8 -199.3 37.75 -200.05 L37.95 -200.15 M30.65 -208.85 Q30.5 -210.0 33.6 -211.35 36.65 -212.4 41.45 -212.85 46.1 -213.5 49.45 -212.85 52.9 -212.4 53.15 -211.2 53.25 -210.25 51.65 -209.4 L51.6 -209.4 Q50.95 -209.1 50.0 -208.75 46.85 -207.5 42.3 -206.95 38.3 -206.65 35.25 -206.95 L34.25 -207.1 Q30.8 -207.5 30.65 -208.85" fill="#ffff99" fill-rule="evenodd" stroke="none"/>
      <path d="M21.2 -209.8 L22.65 -199.8 Q21.7 -201.95 21.3 -204.2 20.75 -206.95 21.2 -209.8" fill="#6e6e6e" fill-rule="evenodd" stroke="none"/>
      <path d="M56.6 -205.0 Q56.35 -199.45 54.0 -194.8 50.65 -187.9 43.05 -186.8 L41.6 -186.7 39.5 -187.1 37.4 -188.0 37.3 -188.0 Q35.95 -188.6 34.85 -189.7 33.6 -190.55 32.6 -191.65 30.15 -194.25 28.6 -197.55 L30.7 -197.85 Q31.65 -196.05 32.9 -194.35 L33.85 -193.3 Q35.6 -191.45 37.3 -190.35 38.3 -189.7 39.5 -189.25 L41.05 -188.85 42.8 -188.7 44.2 -188.75 45.8 -189.15 Q47.5 -189.7 48.85 -190.8 L50.15 -191.9 Q51.25 -193.1 52.15 -194.8 L52.7 -196.0 Q53.7 -197.85 54.35 -199.9 54.9 -202.2 55.05 -204.6 L55.9 -204.75 56.6 -205.0" fill="#1f2b15" fill-rule="evenodd" stroke="none"/>
      <path d="M52.15 -194.8 Q51.25 -193.1 50.15 -191.9 L48.85 -190.8 Q47.5 -189.7 45.8 -189.15 L44.2 -188.75 42.8 -188.7 43.5 -189.4 45.7 -191.5 45.8 -190.55 48.85 -190.8 45.8 -190.55 45.8 -189.15 45.8 -190.55 45.7 -191.5 43.5 -189.4 40.5 -192.05 41.15 -193.3 43.25 -193.0 51.05 -197.95 52.15 -194.8 M50.15 -191.9 L48.35 -192.55 47.25 -192.9 45.7 -193.3 45.7 -192.7 43.25 -193.0 45.7 -192.7 45.7 -193.3 47.25 -192.9 48.35 -192.55 50.15 -191.9 M47.25 -192.9 L45.7 -191.5 45.7 -192.7 45.7 -191.5 47.25 -192.9" fill="#666666" fill-rule="evenodd" stroke="none"/>
      <path d="M42.0 -185.0 Q43.25 -182.5 43.4 -179.9 43.35 -177.7 42.8 -175.5 L38.3 -173.95 38.3 -174.7 38.0 -177.7 37.4 -181.7 36.65 -183.5 36.2 -184.35 39.6 -185.05 39.75 -185.6 39.75 -186.1 40.15 -186.15 40.2 -186.15 40.6 -186.25 41.2 -186.35 41.55 -185.85 42.0 -185.0 M-59.85 -155.75 L-61.5 -155.55 -64.85 -156.05 Q-68.2 -163.2 -67.2 -169.55 -66.35 -170.55 -63.2 -171.25 L-61.25 -171.6 -60.6 -167.95 -61.55 -167.8 -61.5 -164.9 Q-61.1 -159.8 -59.85 -155.75" fill="#010105" fill-rule="evenodd" stroke="none"/>
      <path d="M41.7 -186.4 L41.6 -186.4 40.6 -186.25 40.2 -186.15 40.15 -186.15 39.75 -186.15 31.8 -185.25 25.45 -184.9 23.9 -185.25 23.65 -185.3 23.55 -185.3 21.3 -185.95 19.5 -186.95 Q17.75 -189.15 16.45 -191.45 L17.05 -196.0 22.1 -196.35 24.2 -196.7 28.6 -197.55 Q30.15 -194.25 32.6 -191.65 33.6 -190.55 34.85 -189.7 35.95 -188.6 37.3 -188.0 L37.4 -188.0 39.5 -187.1 41.6 -186.7 41.7 -186.4 M22.65 -189.0 L27.5 -190.65 27.9 -191.05 29.45 -191.65 25.4 -192.6 22.65 -189.0" fill="#eb8100" fill-rule="evenodd" stroke="none"/>
      <path d="M43.05 -186.8 L41.7 -186.4 41.6 -186.7 43.05 -186.8 M-33.15 -169.6 L-33.25 -169.45 -33.4 -169.6 -33.15 -169.6" fill="#39472c" fill-rule="evenodd" stroke="none"/>
      <path d="M48.3 -176.75 L51.25 -175.65 Q45.05 -171.75 43.5 -171.35 L46.8 -175.1 48.3 -176.75 M53.4 -175.1 L56.75 -174.5 Q55.95 -174.15 54.8 -173.95 L51.75 -173.25 50.7 -173.05 50.7 -173.15 53.4 -175.1 M0.6 -156.5 L-5.6 -155.65 -5.0 -157.0 Q-3.8 -159.6 -3.75 -160.2 L-0.85 -157.95 0.6 -156.5 M-29.55 -153.0 L-32.0 -152.85 Q-34.25 -152.6 -37.25 -152.75 -38.9 -153.0 -39.8 -153.7 L-51.6 -152.85 -52.0 -152.75 -56.0 -152.6 -58.4 -152.5 Q-59.3 -154.0 -59.85 -155.75 -61.1 -159.8 -61.5 -164.9 L-37.1 -168.45 Q-38.65 -167.5 -38.55 -166.3 -38.4 -165.2 -37.7 -164.35 -37.15 -163.6 -35.8 -162.95 -35.35 -162.1 -36.45 -161.05 -40.75 -159.2 -41.25 -156.75 -41.3 -154.8 -39.8 -153.7 -41.3 -154.8 -41.25 -156.75 -40.75 -159.2 -36.45 -161.05 -35.35 -162.1 -35.8 -162.95 -37.15 -163.6 -37.7 -164.35 -38.4 -165.2 -38.55 -166.3 -38.65 -167.5 -37.1 -168.45 L-33.4 -169.6 -33.25 -169.45 -33.7 -168.75 Q-34.25 -167.5 -34.0 -166.1 -33.95 -165.45 -33.0 -164.7 L-32.0 -163.65 Q-31.9 -163.2 -32.7 -161.3 -33.45 -159.35 -33.25 -157.85 -33.05 -156.5 -32.35 -155.55 L-30.15 -153.45 -29.55 -153.0 M22.25 -178.4 L22.55 -176.85 Q23.2 -174.7 24.45 -172.9 L35.8 -173.25 35.95 -172.35 Q36.05 -171.65 35.8 -171.35 L33.7 -170.55 29.05 -169.75 22.55 -169.15 Q17.2 -169.05 16.75 -170.1 L15.35 -173.15 Q14.55 -175.05 13.85 -175.4 13.0 -176.2 11.25 -176.3 L9.85 -176.45 22.25 -178.4 M-7.2 -173.8 L-13.95 -167.35 Q-15.4 -167.95 -16.9 -168.9 L-17.55 -169.15 -20.2 -168.7 -21.55 -168.3 Q-22.0 -167.95 -22.4 -168.15 L-22.4 -168.2 -21.6 -171.4 -7.2 -173.8 M-43.05 -158.0 L-42.75 -158.1 -42.55 -158.1 Q-41.25 -158.3 -40.35 -159.4 -39.45 -160.6 -39.65 -162.0 -39.8 -163.4 -41.1 -164.2 -42.1 -165.05 -43.5 -164.9 L-43.9 -164.9 -45.0 -164.75 -45.4 -164.7 Q-46.8 -164.5 -47.65 -163.35 -48.45 -162.15 -48.3 -160.85 -48.05 -159.35 -47.05 -158.55 -46.0 -157.75 -44.75 -157.75 L-44.45 -157.85 -44.15 -157.95 -43.05 -158.0 M-0.05 -169.4 Q0.35 -169.45 3.0 -167.5 L-1.7 -165.15 -0.05 -169.4" fill="#ee9a33" fill-rule="evenodd" stroke="none"/>
      <path d="M39.75 -186.1 L39.75 -185.6 39.6 -185.05 36.2 -184.35 24.9 -183.5 24.2 -183.6 23.95 -183.9 23.8 -184.55 23.9 -185.25 25.45 -184.9 31.8 -185.25 39.75 -186.1" fill="#4d613d" fill-rule="evenodd" stroke="none"/>
      <path d="M-22.4 -168.15 L-22.5 -168.15 -22.4 -168.2 -22.4 -168.15" fill="#88967c" fill-rule="evenodd" stroke="none"/>
      <path d="M-43.9 -164.9 L-43.5 -164.9 Q-42.1 -165.05 -41.1 -164.2 -39.8 -163.4 -39.65 -162.0 -39.45 -160.6 -40.35 -159.4 -41.25 -158.3 -42.55 -158.1 L-42.75 -158.1 -43.05 -158.0 -43.6 -158.1 Q-42.65 -158.4 -42.2 -159.2 -41.25 -160.35 -41.45 -161.75 -41.65 -163.2 -42.8 -163.95 -43.6 -164.6 -44.45 -164.7 L-43.9 -164.9" fill="#636363" fill-rule="evenodd" stroke="none"/>
      <path d="M-44.15 -157.95 L-44.45 -157.85 -44.75 -157.75 Q-46.0 -157.75 -47.05 -158.55 -48.05 -159.35 -48.3 -160.85 -48.45 -162.15 -47.65 -163.35 -46.8 -164.5 -45.4 -164.7 L-45.0 -164.75 -44.45 -164.7 Q-43.6 -164.6 -42.8 -163.95 -41.65 -163.2 -41.45 -161.75 -41.25 -160.35 -42.2 -159.2 -42.65 -158.4 -43.6 -158.1 L-44.15 -157.95" fill="#949494" fill-rule="evenodd" stroke="none"/>
      <path d="M23.65 -220.75 Q24.85 -221.7 24.3 -224.05 23.9 -226.4 26.95 -228.0 29.7 -229.65 37.4 -230.25 L37.9 -230.25 37.95 -230.25 38.1 -230.35 38.3 -230.35 39.05 -230.4 Q44.7 -230.75 49.6 -225.5 54.95 -219.75 56.3 -210.75 56.7 -207.65 56.6 -205.0 56.35 -199.45 54.0 -194.8 50.65 -187.9 43.05 -186.8 L41.7 -186.4 41.6 -186.4 41.75 -185.95 42.0 -185.05 42.0 -185.0 Q43.25 -182.5 43.4 -179.9 45.45 -178.0 48.3 -176.75 L51.25 -175.65 Q51.8 -175.4 52.5 -175.25 L53.4 -175.1 56.75 -174.5 66.8 -173.95 Q67.35 -170.65 65.6 -169.05 L64.35 -168.3 Q44.3 -163.2 16.75 -158.85 L12.25 -158.15 1.7 -156.65 0.6 -156.5 -5.6 -155.65 -18.85 -154.1 -29.55 -153.0 -32.0 -152.85 Q-34.25 -152.6 -37.25 -152.75 -38.9 -153.0 -39.8 -153.7 L-51.6 -152.85 -52.0 -152.75 -56.0 -152.6 -58.4 -152.5 Q-59.3 -154.0 -59.85 -155.75 L-61.5 -155.55 -64.85 -156.05 Q-68.2 -163.2 -67.2 -169.55 -66.35 -170.55 -63.2 -171.25 L-61.25 -171.6 -62.05 -177.7 -62.65 -186.9 -62.65 -190.1 -62.55 -191.05 Q-65.8 -216.3 -59.35 -235.45 L-59.35 -235.5 -59.3 -235.45 Q-48.7 -226.75 -42.55 -213.15 L-36.3 -215.35 -34.9 -215.75 -31.5 -211.75 -31.9 -216.6 -31.05 -216.75 -29.4 -217.15 Q-18.95 -219.75 -7.9 -221.15 L3.4 -222.4 5.9 -222.65 Q6.0 -232.15 9.9 -240.85 L11.1 -243.35 Q18.7 -234.9 22.7 -223.45 L23.65 -220.75 21.3 -220.05 Q16.65 -218.2 13.55 -214.55 L12.9 -211.05 Q12.35 -207.75 12.5 -204.75 12.65 -201.8 13.45 -198.95 L14.45 -195.75 Q15.2 -193.65 16.45 -191.45 17.75 -189.15 19.5 -186.95 L21.3 -185.95 23.55 -185.3 M27.55 -221.1 L27.8 -221.55 28.2 -222.4 Q31.65 -229.0 37.4 -230.2 L37.9 -230.25 M37.95 -230.25 L38.3 -230.35 M28.6 -197.55 Q26.7 -201.45 25.95 -206.4 25.3 -210.95 25.85 -214.95 L26.45 -217.65 26.55 -218.05 26.8 -218.95 27.55 -221.1 M17.45 -203.35 Q17.0 -206.1 17.45 -209.3 L21.2 -209.8 22.65 -199.8 18.95 -199.35 Q17.85 -201.15 17.45 -203.35 M21.3 -204.2 Q20.75 -206.95 21.2 -209.8 M30.7 -197.85 Q28.85 -201.8 28.05 -206.65 27.25 -212.6 28.6 -217.55 29.0 -218.95 29.55 -220.2 M29.6 -220.4 L30.0 -221.15 Q33.05 -227.5 38.65 -228.25 44.2 -229.0 48.85 -223.85 53.6 -218.6 54.7 -210.4 L55.05 -204.6 Q54.9 -202.2 54.35 -199.9 53.7 -197.85 52.7 -196.0 L52.15 -194.8 Q51.25 -193.1 50.15 -191.9 L48.85 -190.8 Q47.5 -189.7 45.8 -189.15 L44.2 -188.75 42.8 -188.7 41.05 -188.85 39.5 -189.25 Q38.3 -189.7 37.3 -190.35 35.6 -191.45 33.85 -193.3 L32.9 -194.35 Q31.65 -196.05 30.7 -197.85 M22.65 -199.8 Q21.7 -201.95 21.3 -204.2 M28.6 -197.55 Q30.15 -194.25 32.6 -191.65 33.6 -190.55 34.85 -189.7 35.95 -188.6 37.3 -188.0 L37.4 -188.0 39.5 -187.1 41.6 -186.7 43.05 -186.8 M42.0 -185.0 L41.55 -185.85 41.2 -186.35 40.6 -186.25 40.2 -186.15 40.15 -186.15 39.75 -186.1 39.75 -185.6 39.6 -185.05 36.2 -184.35 24.9 -183.5 24.2 -183.6 23.95 -183.9 23.8 -184.55 22.25 -184.05 22.1 -183.1 Q21.9 -181.25 22.1 -179.6 L22.25 -178.4 22.55 -176.85 Q23.2 -174.7 24.45 -172.9 L35.8 -173.25 38.3 -173.95 42.8 -175.5 Q43.35 -177.7 43.4 -179.9 M40.6 -186.25 L41.6 -186.4 M31.8 -185.25 L39.75 -186.15 40.15 -186.15 M39.75 -186.15 L39.75 -186.1 31.8 -185.25 25.45 -184.9 23.9 -185.25 23.8 -184.55 M23.65 -185.3 L23.9 -185.25 M9.85 -176.45 L-7.2 -173.8 -21.6 -171.4 -33.15 -169.6 -33.4 -169.6 -37.1 -168.45 Q-38.65 -167.5 -38.55 -166.3 -38.4 -165.2 -37.7 -164.35 -37.15 -163.6 -35.8 -162.95 -35.35 -162.1 -36.45 -161.05 -40.75 -159.2 -41.25 -156.75 -41.3 -154.8 -39.8 -153.7 M22.25 -178.4 L9.85 -176.45 M-28.0 -163.35 Q-27.25 -162.8 -27.05 -161.7 -26.9 -160.75 -27.5 -159.8 -28.15 -159.1 -29.15 -158.95 -30.15 -158.85 -30.95 -159.4 -31.65 -159.95 -31.8 -161.0 -32.0 -162.0 -31.45 -162.95 -30.8 -163.65 -29.8 -163.75 -28.75 -163.9 -28.0 -163.35 M-61.5 -164.9 Q-61.1 -159.8 -59.85 -155.75 M-43.9 -164.9 L-43.5 -164.9 Q-42.1 -165.05 -41.1 -164.2 -39.8 -163.4 -39.65 -162.0 -39.45 -160.6 -40.35 -159.4 -41.25 -158.3 -42.55 -158.1 L-42.75 -158.1 -43.05 -158.0 -44.15 -157.95 -44.45 -157.85 -44.75 -157.75 Q-46.0 -157.75 -47.05 -158.55 -48.05 -159.35 -48.3 -160.85 -48.45 -162.15 -47.65 -163.35 -46.8 -164.5 -45.4 -164.7 L-45.0 -164.75 -43.9 -164.9 -44.45 -164.7 Q-43.6 -164.6 -42.8 -163.95 -41.65 -163.2 -41.45 -161.75 -41.25 -160.35 -42.2 -159.2 -42.65 -158.4 -43.6 -158.1 L-43.05 -158.0 M-61.5 -164.9 L-61.55 -167.8 -60.6 -167.95 -61.25 -171.6 M-60.6 -167.95 L-55.2 -168.75 -48.6 -169.7 -46.1 -170.0 22.1 -179.6 M-44.45 -164.7 L-45.0 -164.75 M-43.6 -158.1 L-44.15 -157.95" fill="none" stroke="#000000" stroke-linecap="round" stroke-linejoin="round" stroke-opacity="0.6627451" stroke-width="1.0"/>
      <path d="M15.25 -184.6 Q10.55 -185.15 9.75 -188.85 6.45 -202.25 -1.4 -209.95 -6.4 -214.4 -4.3 -215.5 -0.1 -217.0 6.0 -218.2 L13.0 -219.35 14.1 -219.5 14.65 -219.6 21.3 -220.05 M51.05 -197.95 L52.15 -194.8 M43.25 -193.0 L45.7 -192.7 45.7 -193.3 47.25 -192.9 48.35 -192.55 50.15 -191.9 M40.5 -192.05 L41.15 -193.3 32.9 -194.35 M41.15 -193.3 L43.25 -193.0 51.05 -197.95 54.35 -199.9 M43.5 -189.4 L42.8 -188.7 M48.85 -190.8 L45.8 -190.55 45.8 -189.15 M45.8 -190.55 L45.7 -191.5 43.5 -189.4 40.5 -192.05 39.5 -189.25 M45.7 -192.7 L45.7 -191.5 47.25 -192.9 M23.55 -185.3 L23.65 -185.3 M23.55 -185.3 L21.7 -184.9 19.25 -184.6 Q17.0 -184.45 15.25 -184.6" fill="none" stroke="#000000" stroke-linecap="round" stroke-linejoin="round" stroke-opacity="0.6627451" stroke-width="0.5"/>
      <path d="M40.15 -222.4 Q43.2 -222.75 45.4 -222.5 47.65 -222.1 47.8 -221.15 47.9 -220.6 46.85 -220.05 L46.8 -220.05 45.8 -219.65 Q43.75 -218.9 40.7 -218.5 37.55 -218.2 35.25 -218.5 33.0 -218.95 32.9 -219.75 32.85 -220.55 34.95 -221.25 37.0 -222.1 40.15 -222.4 M37.95 -200.15 Q39.95 -200.9 43.1 -201.15 46.15 -201.55 48.35 -201.25 50.7 -200.85 50.8 -200.05 50.85 -199.35 49.85 -198.8 L49.8 -198.8 48.75 -198.5 Q46.7 -197.7 43.65 -197.25 L38.65 -197.4 Q38.4 -197.25 38.3 -197.4 35.95 -197.7 35.9 -198.55 35.8 -199.3 37.75 -200.05 L37.95 -200.15 M30.65 -208.85 Q30.5 -210.0 33.6 -211.35 36.65 -212.4 41.45 -212.85 46.1 -213.5 49.45 -212.85 52.9 -212.4 53.15 -211.2 53.25 -210.25 51.65 -209.4 L51.6 -209.4 Q50.95 -209.1 50.0 -208.75 46.85 -207.5 42.3 -206.95 38.3 -206.65 35.25 -206.95 L34.25 -207.1 Q30.8 -207.5 30.65 -208.85" fill="none" stroke="#000000" stroke-linecap="round" stroke-linejoin="round" stroke-opacity="0.33333334" stroke-width="0.5"/>
      <path d="M-42.2 -208.05 Q-41.7 -205.65 -44.15 -203.3 -46.4 -201.0 -48.75 -200.6 M-10.15 -193.85 L-9.6 -192.7 -8.65 -190.95 -8.35 -191.35 Q-4.65 -195.65 -2.5 -198.8 M-8.65 -190.95 L-7.4 -188.35 M-14.65 -197.25 L-12.9 -193.55 -10.3 -196.7 M-11.8 -187.45 L-10.5 -189.0 -11.35 -190.7 -11.35 -190.8 -13.4 -188.6 -10.7 -183.2 M-11.35 -190.8 L-12.9 -193.55 -14.8 -191.45 -14.0 -189.8 -13.4 -188.6 -19.35 -181.6 M-20.3 -184.75 L-15.9 -190.1 -14.8 -191.45 -16.35 -194.65 M-8.65 -190.95 L-10.5 -189.0 -7.6 -183.2 M-11.35 -190.8 L-9.6 -192.7 M-20.35 -163.75 L-21.05 -161.95 -19.25 -162.15 M-24.6 -161.55 L-22.7 -161.7 -22.0 -163.05 M-22.7 -161.7 L-23.75 -159.9 -22.1 -160.1 -21.05 -161.95 -22.7 -161.7 M-20.45 -160.35 L-22.1 -160.1 -23.4 -157.85 M-25.8 -156.3 L-23.75 -159.9 -24.7 -159.8 M-59.6 -194.35 Q-56.6 -194.25 -53.95 -196.9 -51.3 -199.45 -51.3 -201.95" fill="none" stroke="#000000" stroke-linecap="round" stroke-linejoin="round" stroke-opacity="0.6627451" stroke-width="0.5"/>
    </g>
    <linearGradient gradientTransform="matrix(0.0211, 0.021, -0.0616, 0.0619, -430.85, 205.8)" gradientUnits="userSpaceOnUse" id="gradient0" spreadMethod="pad" x1="-819.2" x2="819.2">
      <stop offset="0.0" stop-color="#323299"/>
      <stop offset="1.0" stop-color="#1b1b2e"/>
    </linearGradient>
    <linearGradient gradientTransform="matrix(-0.0035, -0.0254, 0.0784, -0.0109, -223.5, -171.25)" gradientUnits="userSpaceOnUse" id="gradient1" spreadMethod="pad" x1="-819.2" x2="819.2">
      <stop offset="0.0" stop-color="#ffffff"/>
      <stop offset="1.0" stop-color="#303093"/>
    </linearGradient>
    <g id="sprite0" transform="matrix(1.0, 0.0, 0.0, 1.0, 43.8, 43.8)">
      <use height="86.0" transform="matrix(1.0186, 0.0, 0.0, 1.0186, -43.8, -43.8)" width="86.0" xlink:href="#shape1"/>
    </g>
    <g id="shape1" transform="matrix(1.0, 0.0, 0.0, 1.0, 0.0, 0.0)">
      <path d="M73.4 12.6 Q86.0 25.2 86.0 43.0 86.0 60.8 73.4 73.4 60.8 86.0 43.0 86.0 25.2 86.0 12.6 73.4 0.0 60.8 0.0 43.0 0.0 25.2 12.6 12.6 25.2 0.0 43.0 0.0 60.8 0.0 73.4 12.6" fill="#ffffff" fill-rule="evenodd" stroke="none"/>
    </g>
    <g id="shape2" transform="matrix(1.0, 0.0, 0.0, 1.0, -29.1, 218.65)">
      <path d="M33.6 -212.7 Q34.55 -211.6 35.5 -211.75 36.5 -211.9 37.05 -213.15 L37.6 -215.75 Q37.6 -217.0 37.2 -217.95 37.45 -217.4 37.95 -216.95 38.85 -215.9 39.8 -216.0 40.7 -216.15 41.05 -217.3 L41.2 -218.65 Q41.55 -217.4 42.1 -216.3 42.65 -215.05 43.8 -214.1 45.0 -213.15 46.0 -213.3 47.05 -213.5 47.25 -214.75 47.6 -215.9 46.95 -217.55 L47.05 -217.65 48.7 -216.75 Q53.15 -214.4 54.25 -210.35 55.45 -206.2 52.45 -202.75 51.65 -201.65 50.5 -200.85 50.5 -202.2 50.15 -203.1 49.7 -204.7 48.85 -204.6 48.2 -204.55 47.65 -203.65 46.85 -205.1 46.1 -204.9 45.15 -204.85 44.75 -203.1 44.2 -201.45 44.45 -199.3 L44.45 -198.65 44.35 -198.55 44.15 -199.2 Q43.25 -201.4 41.95 -202.75 40.5 -204.15 39.65 -204.05 38.8 -203.9 38.85 -202.4 38.0 -203.05 37.4 -202.95 36.5 -202.9 36.85 -201.25 37.0 -200.3 37.75 -199.1 36.3 -199.5 34.85 -200.3 30.55 -202.65 29.4 -206.8 28.3 -210.9 31.1 -214.35 L32.35 -215.45 Q32.65 -213.8 33.6 -212.7" fill="#000000" fill-rule="evenodd" stroke="none"/>
    </g>
    <g id="shape3" transform="matrix(1.0, 0.0, 0.0, 1.0, -2.2, 129.55)">
      <path d="M22.1 -123.3 L22.25 -121.45 Q22.25 -119.5 21.75 -117.75 21.1 -115.3 19.85 -115.3 19.25 -115.3 18.7 -115.8 L17.9 -116.35 16.9 -114.55 Q15.05 -111.6 12.95 -111.6 9.5 -111.6 7.95 -116.75 L7.2 -115.8 Q6.25 -114.5 5.85 -114.5 4.95 -114.5 3.8 -116.1 2.7 -117.75 2.7 -119.0 2.7 -120.05 3.0 -121.55 L3.75 -121.75 5.75 -122.25 10.45 -121.75 15.15 -121.3 Q18.2 -121.3 20.65 -122.4 21.45 -122.8 22.1 -123.3 M19.0 -120.45 Q18.7 -118.3 17.9 -116.35 18.7 -118.3 19.0 -120.45 M7.4 -119.0 Q7.6 -117.8 7.95 -116.75 7.6 -117.8 7.4 -119.0" fill="#1a1a1a" fill-rule="evenodd" stroke="none"/>
      <path d="M3.0 -121.55 L3.35 -122.75 Q3.75 -124.25 4.65 -125.55 6.35 -126.95 9.25 -128.0 12.25 -129.05 14.9 -129.05 18.55 -129.05 20.45 -126.95 21.75 -125.5 22.1 -123.3 21.45 -122.8 20.65 -122.4 18.2 -121.3 15.15 -121.3 L10.45 -121.75 5.75 -122.25 3.75 -121.75 3.0 -121.55" fill="#333333" fill-rule="evenodd" stroke="none"/>
      <path d="M22.1 -123.3 L22.25 -121.45 Q22.25 -119.5 21.75 -117.75 21.1 -115.3 19.85 -115.3 19.25 -115.3 18.7 -115.8 L17.9 -116.35 16.9 -114.55 Q15.05 -111.6 12.95 -111.6 9.5 -111.6 7.95 -116.75 L7.2 -115.8 Q6.25 -114.5 5.85 -114.5 4.95 -114.5 3.8 -116.1 2.7 -117.75 2.7 -119.0 2.7 -120.05 3.0 -121.55 L3.35 -122.75 Q3.75 -124.25 4.65 -125.55 6.35 -126.95 9.25 -128.0 12.25 -129.05 14.9 -129.05 18.55 -129.05 20.45 -126.95 21.75 -125.5 22.1 -123.3 M7.95 -116.75 Q7.6 -117.8 7.4 -119.0 M17.9 -116.35 Q18.7 -118.3 19.0 -120.45" fill="none" stroke="#000000" stroke-linecap="round" stroke-linejoin="round" stroke-opacity="0.6627451" stroke-width="1.0"/>
    </g>
  </defs>
</svg>
