<?xml version="1.0" encoding="UTF-8" standalone="no"?>
<svg xmlns:xlink="http://www.w3.org/1999/xlink" height="531.5px" width="460.6px" xmlns="http://www.w3.org/2000/svg">
  <g transform="matrix(1.0, 0.0, 0.0, 1.0, 193.65, 334.05)">
    <use height="156.9" transform="matrix(1.6014, 0.0, 0.0, 1.6014, -74.1975, -281.3753)" width="109.0" xlink:href="#shape0"/>
    <use height="81.3" transform="matrix(1.6015, 0.0, 0.0, 1.6015, -72.0355, -281.2751)" width="79.3" xlink:href="#sprite0"/>
    <use height="92.1" transform="matrix(1.6014, 0.0, 0.0, 1.6014, -76.5196, -273.5284)" width="85.8" xlink:href="#shape2"/>
  </g>
  <defs>
    <g id="shape0" transform="matrix(1.0, 0.0, 0.0, 1.0, -1.75, 10.85)">
      <path d="M77.0 86.7 Q79.9 90.05 83.3 92.75 85.65 94.65 88.3 96.05 L91.05 97.55 91.2 97.55 86.55 89.35 82.25 82.05 78.05 85.6 77.0 86.7 M74.65 74.65 L77.1 76.35 79.1 77.65 Q80.5 78.5 81.6 78.8 L84.65 79.8 84.85 79.65 Q83.55 79.0 81.8 76.95 79.7 74.45 78.0 73.65 76.2 72.8 73.5 72.3 70.95 71.85 69.9 71.25 L73.6 73.9 74.65 74.65 72.85 74.3 71.9 73.95 72.85 74.3 74.65 74.65 M68.85 67.25 L78.5 63.45 76.95 66.55 Q83.8 69.95 89.7 80.1 95.7 88.0 103.0 93.05 100.3 94.15 96.8 93.45 L95.6 93.15 105.9 106.55 Q103.45 110.6 100.8 114.05 L99.9 113.45 98.35 112.3 99.9 113.45 100.8 114.05 Q90.75 127.3 78.05 132.3 L71.55 126.2 73.75 134.8 Q70.25 135.85 66.2 135.85 L62.95 135.65 61.95 135.5 55.9 134.2 53.95 130.75 51.25 125.4 51.25 127.7 51.25 129.35 51.5 131.95 51.55 132.8 45.5 130.2 42.7 128.8 39.4 118.45 36.75 127.15 24.2 116.9 19.7 113.2 Q20.6 109.15 21.9 105.05 24.95 95.25 30.15 85.25 L31.05 83.55 19.6 86.95 Q27.9 73.75 40.55 70.5 L37.95 68.45 48.0 69.45 48.45 69.5 55.65 70.25 58.7 70.35 61.65 70.05 68.85 67.25 66.9 69.25 65.8 70.0 66.9 69.25 68.85 67.25 M95.35 93.05 L95.6 93.15 95.35 93.05 M82.95 102.6 Q84.6 105.5 89.05 109.8 93.8 114.4 95.55 114.75 L93.85 111.15 91.4 106.2 89.9 102.7 Q89.25 101.7 88.05 101.7 L83.9 102.2 82.95 102.6 M82.35 120.85 L83.4 121.2 82.4 123.25 83.4 121.2 82.35 120.85 M84.65 121.6 L83.4 121.2 84.65 118.5 83.4 121.2 84.65 121.6 M68.05 76.15 L65.95 76.3 Q61.95 76.35 59.85 75.05 L59.65 75.2 Q51.25 80.3 40.35 81.55 51.25 80.3 59.65 75.2 L59.85 75.05 63.25 72.7 59.85 75.05 Q61.95 76.35 65.95 76.3 L68.05 76.15 M57.95 71.8 L55.85 70.45 55.65 70.25 55.85 70.45 57.95 71.8 M23.45 104.15 L21.9 105.05 23.45 104.15 M37.65 76.05 L35.0 77.95 33.05 79.5 33.05 79.65 Q35.55 78.4 44.1 77.1 49.45 76.2 51.15 74.7 50.0 73.9 44.2 73.8 L40.95 74.7 Q39.7 74.95 37.65 76.05 M41.1 96.9 L40.95 102.75 40.8 106.45 40.8 109.15 Q40.85 109.8 41.45 109.8 42.05 109.8 44.75 103.15 L47.45 96.15 Q46.4 95.55 44.9 94.9 L41.6 93.45 Q41.15 95.6 41.1 96.9 M51.7 112.85 Q51.8 116.25 52.55 120.25 53.65 126.25 55.4 129.75 L55.4 129.9 57.25 120.3 58.2 114.25 Q58.2 113.15 57.4 113.05 L54.75 113.1 51.85 112.85 51.7 112.85 M66.65 91.3 L68.9 88.95 66.65 91.3 M67.85 100.5 L70.95 107.35 Q74.0 113.5 75.45 114.95 L75.45 112.55 Q75.05 111.9 74.4 109.3 L73.5 105.0 Q73.2 103.0 72.4 100.9 71.7 99.2 71.75 98.4 L71.6 98.1 Q70.8 98.9 68.95 99.9 L67.85 100.5 M66.05 89.55 Q64.1 92.7 58.95 93.55 64.1 92.7 66.05 89.55 M30.1 98.4 L28.8 103.05 Q27.75 107.85 27.75 111.7 27.75 113.2 28.15 114.5 L28.55 116.15 28.95 116.15 29.55 113.65 30.8 109.1 32.35 105.4 Q33.2 103.75 33.2 102.65 L31.1 99.8 30.1 98.4 M25.1 114.9 L24.2 116.9 25.1 114.9 M78.5 80.65 Q70.55 79.8 65.95 76.3 70.55 79.8 78.5 80.65 M45.25 127.15 L45.25 128.65 45.5 130.2 45.25 128.65 45.25 127.15" fill="#d4ffc6" fill-rule="evenodd" stroke="none"/>
      <path d="M77.0 86.7 L78.05 85.6 82.25 82.05 86.55 89.35 91.2 97.55 91.05 97.55 88.3 96.05 Q85.65 94.65 83.3 92.75 79.9 90.05 77.0 86.7" fill="url(#gradient0)" fill-rule="evenodd" stroke="none"/>
      <path d="M74.65 74.65 L73.6 73.9 69.9 71.25 Q70.95 71.85 73.5 72.3 76.2 72.8 78.0 73.65 79.7 74.45 81.8 76.95 83.55 79.0 84.85 79.65 L84.65 79.8 81.6 78.8 Q80.5 78.5 79.1 77.65 L77.1 76.35 74.65 74.65" fill="url(#gradient1)" fill-rule="evenodd" stroke="none"/>
      <path d="M41.1 96.9 Q41.15 95.6 41.6 93.45 L44.9 94.9 Q46.4 95.55 47.45 96.15 L44.75 103.15 Q42.05 109.8 41.45 109.8 40.85 109.8 40.8 109.15 L40.8 106.45 40.95 102.75 41.1 96.9" fill="url(#gradient2)" fill-rule="evenodd" stroke="none"/>
      <path d="M30.1 98.4 L31.1 99.8 33.2 102.65 Q33.2 103.75 32.35 105.4 L30.8 109.1 29.55 113.65 28.95 116.15 28.55 116.15 28.15 114.5 Q27.75 113.2 27.75 111.7 27.75 107.85 28.8 103.05 L30.1 98.4" fill="url(#gradient3)" fill-rule="evenodd" stroke="none"/>
      <path d="M51.7 112.85 L51.85 112.85 54.75 113.1 57.4 113.05 Q58.2 113.15 58.2 114.25 L57.25 120.3 55.4 129.9 55.4 129.75 Q53.65 126.25 52.55 120.25 51.8 116.25 51.7 112.85" fill="url(#gradient4)" fill-rule="evenodd" stroke="none"/>
      <path d="M67.85 100.5 L68.95 99.9 Q70.8 98.9 71.6 98.1 L71.75 98.4 Q71.7 99.2 72.4 100.9 73.2 103.0 73.5 105.0 L74.4 109.3 Q75.05 111.9 75.45 112.55 L75.45 114.95 Q74.0 113.5 70.95 107.35 L67.85 100.5" fill="url(#gradient5)" fill-rule="evenodd" stroke="none"/>
      <path d="M82.95 102.6 L83.9 102.2 88.05 101.7 Q89.25 101.7 89.9 102.7 L91.4 106.2 93.85 111.15 95.55 114.75 Q93.8 114.4 89.05 109.8 84.6 105.5 82.95 102.6" fill="url(#gradient6)" fill-rule="evenodd" stroke="none"/>
      <path d="M37.65 76.05 Q39.7 74.95 40.95 74.7 L44.2 73.8 Q50.0 73.9 51.15 74.7 49.45 76.2 44.1 77.1 35.55 78.4 33.05 79.65 L33.05 79.5 35.0 77.95 37.65 76.05" fill="url(#gradient7)" fill-rule="evenodd" stroke="none"/>
      <path d="M74.65 74.65 L72.85 74.3 71.9 73.95 M68.85 67.25 L78.5 63.45 76.95 66.55 Q83.8 69.95 89.7 80.1 95.7 88.0 103.0 93.05 100.3 94.15 96.8 93.45 L95.6 93.15 105.9 106.55 Q103.45 110.6 100.8 114.05 L102.3 115.0 M95.6 93.15 L95.35 93.05 M98.35 112.3 L99.9 113.45 100.8 114.05 Q90.75 127.3 78.05 132.3 L71.55 126.2 73.75 134.8 Q70.25 135.85 66.2 135.85 L62.95 135.65 61.95 135.5 55.9 134.2 53.95 130.75 51.25 125.4 51.25 127.7 51.25 129.35 51.5 131.95 51.55 132.8 45.5 130.2 46.1 132.1 M84.65 118.5 L83.4 121.2 84.65 121.6 M82.4 123.25 L83.4 121.2 82.35 120.85 M68.85 67.25 L69.5 66.35 M65.8 70.0 L66.9 69.25 68.85 67.25 61.65 70.05 58.7 70.35 55.65 70.25 55.85 70.45 57.95 71.8 M40.35 81.55 Q51.25 80.3 59.65 75.2 L59.85 75.05 63.25 72.7 M59.85 75.05 Q61.95 76.35 65.95 76.3 L68.05 76.15 M54.25 68.95 L55.65 70.25 48.45 69.5 48.0 69.45 37.95 68.45 40.55 70.5 Q27.9 73.75 19.6 86.95 L31.05 83.55 30.15 85.25 Q24.95 95.25 21.9 105.05 L23.45 104.15 M48.0 69.45 L48.15 69.45 48.45 69.5 M68.9 88.95 L66.65 91.3 M58.95 93.55 Q64.1 92.7 66.05 89.55 M21.9 105.05 L20.5 105.7 18.7 106.55 M24.2 116.9 L19.7 113.2 Q20.6 109.15 21.9 105.05 M24.2 116.9 L25.1 114.9 M23.35 118.85 L24.2 116.9 36.75 127.15 39.4 118.45 42.7 128.8 45.5 130.2 45.25 128.65 45.25 127.15 M65.95 76.3 Q70.55 79.8 78.5 80.65" fill="none" stroke="#000000" stroke-linecap="round" stroke-linejoin="round" stroke-opacity="0.3019608" stroke-width="1.0"/>
      <path d="M60.95 10.7 L64.2 7.2 Q67.05 9.2 70.15 14.2 L60.95 10.7" fill="#d6daf4" fill-rule="evenodd" stroke="none"/>
      <path d="M64.7 2.25 L69.4 9.35 Q70.3 11.9 70.7 14.45 L70.75 15.35 Q70.95 20.25 66.5 32.55 L51.5 28.2 49.5 19.2 54.6 12.75 Q58.35 3.3 58.65 3.1 L61.3 3.55 63.3 4.05 Q63.8 3.9 64.7 2.25 M60.75 11.0 L60.95 10.7 60.75 11.0 M70.15 14.2 Q67.05 9.2 64.2 7.2 L60.95 10.7 70.15 14.2 70.75 15.35 70.15 14.2 M59.9 15.0 L59.35 20.55 59.9 15.0" fill="#a5aacc" fill-rule="evenodd" stroke="none"/>
      <path d="M54.6 12.75 L55.0 9.5 Q54.7 -1.05 51.05 -9.5 57.3 -6.7 64.5 2.05 L64.7 2.25 Q63.8 3.9 63.3 4.05 L61.3 3.55 58.65 3.1 Q58.35 3.3 54.6 12.75" fill="#d6e4f4" fill-rule="evenodd" stroke="none"/>
      <path d="M60.95 10.7 L60.75 11.0 M70.15 14.2 Q67.05 9.2 64.2 7.2 L60.95 10.7 M70.15 14.2 L70.75 15.35 M59.35 20.55 L59.9 15.0" fill="none" stroke="#000000" stroke-linecap="round" stroke-linejoin="round" stroke-opacity="0.31764707" stroke-width="1.0"/>
      <path d="M64.7 2.25 L69.4 9.35 Q70.3 11.9 70.7 14.45 L70.75 15.35 Q70.95 20.25 66.5 32.55 L51.5 28.2 49.5 19.2 54.6 12.75 55.0 9.5 Q54.7 -1.05 51.05 -9.5 57.3 -6.7 64.5 2.05 L64.7 2.25" fill="none" stroke="#000000" stroke-linecap="round" stroke-linejoin="round" stroke-opacity="0.5019608" stroke-width="1.0"/>
      <path d="M44.25 16.55 Q43.8 17.3 43.75 17.95 43.65 20.05 46.45 24.3 L47.4 25.75 Q43.95 23.45 39.85 22.2 L40.7 21.5 Q41.25 20.8 41.35 18.95 41.45 17.25 40.45 15.4 L44.25 16.55 M39.25 65.75 L21.15 68.8 Q24.95 65.4 27.2 62.25 30.1 58.25 30.3 55.0 30.45 52.55 29.45 51.15 34.65 49.55 39.9 48.55 L39.55 48.8 Q37.15 51.15 36.05 53.1 32.65 59.0 32.55 61.1 32.4 63.35 34.55 64.6 36.15 65.55 38.4 65.75 L39.25 65.75" fill="#ffffff" fill-rule="evenodd" stroke="none"/>
      <path d="M47.4 25.75 L46.45 24.3 Q43.65 20.05 43.75 17.95 43.8 17.3 44.25 16.55 50.1 18.8 53.85 23.85 56.85 27.9 58.5 33.75 59.0 38.8 55.7 33.85 54.05 31.5 52.1 29.55 50.25 27.7 48.15 26.2 L47.4 25.75 M40.45 15.4 Q41.45 17.25 41.35 18.95 41.25 20.8 40.7 21.5 L39.85 22.2 39.35 22.05 36.0 21.95 Q27.55 22.3 21.7 29.3 L21.4 29.5 21.0 29.85 Q25.4 17.75 37.8 14.95 L40.45 15.4 M79.8 57.7 Q59.8 62.2 39.25 65.75 L38.4 65.75 Q36.15 65.55 34.55 64.6 32.4 63.35 32.55 61.1 32.65 59.0 36.05 53.1 37.15 51.15 39.55 48.8 L39.9 48.55 Q45.6 47.35 51.35 46.8 L60.85 46.25 76.1 47.1 78.0 50.1 Q79.6 53.65 79.8 57.7 M21.15 68.8 L10.45 70.4 Q9.7 68.55 9.5 67.4 9.0 65.15 9.3 60.3 L9.4 58.8 Q14.5 56.4 19.65 54.45 L19.85 54.35 Q22.15 53.5 24.4 52.75 L29.45 51.15 Q30.45 52.55 30.3 55.0 30.1 58.25 27.2 62.25 24.95 65.4 21.15 68.8" fill="#27845e" fill-rule="evenodd" stroke="none"/>
      <path d="M39.85 22.2 Q43.95 23.45 47.4 25.75 L48.15 26.2 Q50.25 27.7 52.1 29.55 54.05 31.5 55.7 33.85 59.0 38.8 58.5 33.75 56.85 27.9 53.85 23.85 57.45 25.35 60.9 27.8 L64.6 30.75 Q66.85 32.7 69.35 35.55 L68.85 40.3 74.1 40.5 Q74.8 42.15 75.95 43.8 L78.25 47.3 76.1 47.1 60.85 46.25 51.35 46.8 Q45.6 47.35 39.9 48.55 34.65 49.55 29.45 51.15 L24.4 52.75 Q22.15 53.5 19.85 54.35 L19.65 54.45 Q14.5 56.4 9.4 58.8 L8.05 59.45 Q7.95 56.45 8.7 52.4 11.3 40.3 17.5 33.0 19.1 31.3 21.0 29.85 L21.4 29.5 21.7 29.3 Q27.55 22.3 36.0 21.95 L39.35 22.05 39.85 22.2 M64.0 40.4 L63.5 36.1 64.0 40.4 M71.45 45.1 L67.15 44.2 71.45 45.1 M32.35 42.9 L36.35 44.4 34.5 47.1 36.35 44.4 32.35 42.9 M40.4 45.8 L36.35 44.4 37.9 42.05 36.35 44.4 40.4 45.8" fill="#85c1ba" fill-rule="evenodd" stroke="none"/>
      <path d="M78.25 47.3 L80.5 47.6 Q82.9 51.55 82.25 57.15 L79.8 57.7 Q79.6 53.65 78.0 50.1 L76.1 47.1 78.25 47.3 M10.45 70.4 L6.55 70.95 Q3.7 66.6 5.55 60.65 L8.05 59.45 9.4 58.8 9.3 60.3 Q9.0 65.15 9.5 67.4 9.7 68.55 10.45 70.4" fill="#44aa80" fill-rule="evenodd" stroke="none"/>
      <path d="M44.25 16.55 L40.45 15.4 37.8 14.95 Q25.4 17.75 21.0 29.85 19.1 31.3 17.5 33.0 11.3 40.3 8.7 52.4 7.95 56.45 8.05 59.45 L5.55 60.65 Q3.7 66.6 6.55 70.95 L10.45 70.4 21.15 68.8 39.25 65.75 Q59.8 62.2 79.8 57.7 L82.25 57.15 Q82.9 51.55 80.5 47.6 L78.25 47.3 75.95 43.8 Q74.8 42.15 74.1 40.5 L68.85 40.3 69.35 35.55 Q66.85 32.7 64.6 30.75 L60.9 27.8 Q57.45 25.35 53.85 23.85 50.1 18.8 44.25 16.55 M39.85 22.2 Q43.95 23.45 47.4 25.75 L48.15 26.2 M52.1 29.55 Q54.05 31.5 55.7 33.85 59.0 38.8 58.5 33.75 56.85 27.9 53.85 23.85 M76.1 47.1 L78.25 47.3 M60.85 46.25 L76.1 47.1 M39.85 22.2 L39.35 22.05 36.0 21.95 Q27.55 22.3 21.7 29.3 L21.4 29.5 21.0 29.85 M39.9 48.55 Q34.65 49.55 29.45 51.15 L24.4 52.75 Q22.15 53.5 19.85 54.35 L19.65 54.45 Q14.5 56.4 9.4 58.8 L8.05 59.45 M39.9 48.55 Q45.6 47.35 51.35 46.8" fill="none" stroke="#000000" stroke-linecap="round" stroke-linejoin="round" stroke-opacity="0.5019608" stroke-width="1.0"/>
      <path d="M67.15 44.2 L71.45 45.1 M63.5 36.1 L64.0 40.4 M37.9 42.05 L36.35 44.4 40.4 45.8 M34.5 47.1 L36.35 44.4 32.35 42.9" fill="none" stroke="#000000" stroke-linecap="round" stroke-linejoin="round" stroke-opacity="0.2509804" stroke-width="1.0"/>
      <path d="M18.9 11.55 Q11.55 3.8 11.2 3.8 10.65 3.7 8.8 4.95 L7.0 6.1 Q6.5 6.05 4.95 4.85 L5.0 4.6 Q8.65 -5.95 13.6 -10.35 13.45 -1.3 17.25 8.75 L18.9 11.55" fill="#d6e4f4" fill-rule="evenodd" stroke="none"/>
      <path d="M4.95 4.85 Q6.5 6.05 7.0 6.1 L8.8 4.95 Q10.65 3.7 11.2 3.8 11.55 3.8 18.9 11.55 L28.7 25.85 29.45 26.9 27.0 30.5 23.9 35.0 Q20.1 36.95 16.25 38.85 L15.4 39.3 13.05 40.45 11.9 37.8 Q5.65 23.4 4.1 19.05 L3.8 18.2 Q3.15 15.75 3.1 13.1 3.85 9.05 4.95 4.85 M4.25 17.75 Q4.1 18.35 4.1 19.05 4.1 18.35 4.25 17.75 L11.95 11.65 7.35 9.3 Q5.4 12.2 4.25 17.75 M12.25 11.8 L11.95 11.65 12.25 11.8 M14.6 15.3 L17.25 20.35 14.6 15.3 M14.85 26.7 L15.4 39.3 14.85 26.7 M18.65 24.05 L20.3 28.1 26.05 24.7 18.65 24.05 M16.15 26.7 L15.85 24.65 16.15 26.7" fill="#a5aacc" fill-rule="evenodd" stroke="none"/>
      <path d="M4.25 17.75 Q5.4 12.2 7.35 9.3 L11.95 11.65 4.25 17.75 M26.05 24.7 L20.3 28.1 18.65 24.05 26.05 24.7" fill="#d6daf4" fill-rule="evenodd" stroke="none"/>
      <path d="M16.25 38.85 L16.5 39.5 16.65 39.65 18.2 43.05 19.0 44.0 19.15 44.4 20.55 45.7 Q16.45 47.1 11.4 47.15 9.85 41.9 11.9 37.8 L13.05 40.45 15.4 39.3 16.25 38.85 M31.35 35.65 Q29.9 32.7 27.2 30.75 L27.0 30.5 29.45 26.9 28.7 25.85 31.7 26.7 Q33.4 29.25 32.4 33.25 L31.35 35.65" fill="#27845e" fill-rule="evenodd" stroke="none"/>
      <path d="M20.55 45.7 L19.15 44.4 19.0 44.0 18.2 43.05 16.65 39.65 16.5 39.5 16.25 38.85 Q20.1 36.95 23.9 35.0 L27.0 30.5 27.2 30.75 Q29.9 32.7 31.35 35.65 28.75 40.6 23.6 44.3 L20.55 45.7" fill="#43ad81" fill-rule="evenodd" stroke="none"/>
      <path d="M4.95 4.85 Q3.85 9.05 3.1 13.1 3.15 15.75 3.8 18.2 L4.1 19.05 Q4.1 18.35 4.25 17.75 M11.95 11.65 L12.25 11.8 M18.9 11.55 L17.25 8.75 Q13.45 -1.3 13.6 -10.35 8.65 -5.95 5.0 4.6 L4.95 4.85 M20.55 45.7 L23.6 44.3 Q28.75 40.6 31.35 35.65 L32.4 33.25 Q33.4 29.25 31.7 26.7 L28.7 25.85 18.9 11.55 M27.0 30.5 L23.9 35.0 Q20.1 36.95 16.25 38.85 L15.4 39.3 13.05 40.45 11.9 37.8 Q9.85 41.9 11.4 47.15 16.45 47.1 20.55 45.7 M27.0 30.5 L29.45 26.9 28.7 25.85 M11.9 37.8 Q5.65 23.4 4.1 19.05" fill="none" stroke="#000000" stroke-linecap="round" stroke-linejoin="round" stroke-opacity="0.5019608" stroke-width="1.0"/>
      <path d="M4.25 17.75 Q5.4 12.2 7.35 9.3 L11.95 11.65 M17.25 20.35 L14.6 15.3 M15.4 39.3 L14.85 26.7 M26.05 24.7 L18.65 24.05 M15.85 24.65 L16.15 26.7" fill="none" stroke="#000000" stroke-linecap="round" stroke-linejoin="round" stroke-opacity="0.30980393" stroke-width="1.0"/>
      <path d="M52.05 -5.5 L48.7 -5.5 Q49.25 -5.95 49.65 -7.25 L52.1 -7.65 52.05 -5.5" fill="url(#gradient8)" fill-rule="evenodd" stroke="none"/>
      <path d="M72.95 80.2 L71.8 79.7 77.5 66.65 77.75 66.7 Q80.4 67.8 82.25 68.75 L88.2 72.25 Q91.95 74.9 92.0 76.7 L91.9 77.3 91.9 77.35 Q90.8 79.35 84.55 78.55 80.3 78.05 78.05 77.2 78.8 77.55 79.45 78.1 80.65 79.25 80.1 80.45 L80.05 80.55 Q79.6 81.35 78.8 81.6 L76.6 81.5 76.35 81.4 72.95 80.2" fill="url(#gradient9)" fill-rule="evenodd" stroke="none"/>
      <path d="M93.9 93.8 Q94.85 96.35 94.8 97.55 94.75 98.3 94.35 98.55 93.75 98.9 90.15 95.35 86.95 92.15 86.45 91.35 L86.3 91.1 84.95 89.3 84.4 88.0 Q84.25 87.55 84.55 87.4 L86.8 86.1 89.5 85.85 89.85 85.8 90.8 87.25 91.25 87.95 91.45 88.3 93.9 93.8" fill="url(#gradient10)" fill-rule="evenodd" stroke="none"/>
      <path d="M84.65 98.6 L85.4 100.65 85.65 101.65 85.75 102.15 86.9 109.6 Q87.4 115.0 85.95 115.4 85.1 115.6 81.95 110.25 79.1 105.3 78.8 104.2 L77.65 101.2 Q77.3 100.15 77.35 99.55 77.35 99.0 77.75 98.85 L80.85 98.05 84.25 98.6 84.65 98.6" fill="url(#gradient11)" fill-rule="evenodd" stroke="none"/>
      <path d="M91.25 87.95 L92.85 87.0 95.55 86.7 95.9 86.65 97.45 89.15 Q102.05 98.45 100.4 99.4 99.8 99.75 96.2 96.2 L93.9 93.8 91.45 88.3 91.25 87.95" fill="url(#gradient12)" fill-rule="evenodd" stroke="none"/>
      <path d="M37.05 81.5 L36.3 82.0 Q34.4 83.1 33.9 82.3 33.35 81.3 34.15 79.85 L38.3 73.9 49.1 72.15 45.35 79.1 Q43.75 81.85 40.4 85.3 37.55 88.3 37.15 88.05 L37.05 88.05 36.05 88.65 Q35.7 88.75 35.35 88.1 34.85 87.25 35.8 84.25 36.35 82.45 37.05 81.5 L37.75 80.85 37.8 80.75 37.7 80.8 37.75 80.85 37.05 81.5" fill="url(#gradient13)" fill-rule="evenodd" stroke="none"/>
      <path d="M20.9 84.75 L26.45 82.55 26.45 83.25 25.25 87.95 Q23.75 92.65 22.4 92.65 21.05 92.65 20.9 89.75 L20.9 84.75" fill="url(#gradient14)" fill-rule="evenodd" stroke="none"/>
      <path d="M32.1 92.2 L38.85 94.75 46.7 97.6 40.65 99.45 Q37.55 100.35 35.45 99.15 34.15 98.4 33.0 95.45 32.1 93.05 32.1 92.2" fill="url(#gradient15)" fill-rule="evenodd" stroke="none"/>
      <path d="M72.95 80.2 L76.35 81.4 76.6 81.5 76.65 82.7 76.65 83.4 76.65 83.75 76.1 88.95 Q75.45 92.65 74.4 92.65 73.8 92.65 72.65 88.5 71.65 84.7 71.65 83.9 L71.4 81.7 Q71.35 81.15 71.45 80.85 72.3 80.8 72.95 80.2" fill="url(#gradient16)" fill-rule="evenodd" stroke="none"/>
      <path d="M72.25 103.55 L72.3 103.8 72.75 109.6 72.65 117.6 Q72.25 124.1 70.45 124.35 68.45 124.55 66.35 117.65 64.9 113.05 64.55 110.25 L64.5 112.25 Q64.15 114.05 63.0 114.2 61.25 114.4 60.65 111.0 L60.0 105.35 72.25 103.55" fill="url(#gradient17)" fill-rule="evenodd" stroke="none"/>
      <path d="M50.55 102.4 L51.9 102.85 52.65 103.05 53.55 103.35 52.25 107.6 51.6 109.6 50.3 112.6 48.5 115.45 Q48.0 115.95 47.7 115.85 46.8 115.6 46.45 113.55 46.15 111.4 46.8 108.75 L46.85 108.55 48.45 103.5 48.85 102.35 48.95 101.9 49.15 101.95 50.55 102.4" fill="url(#gradient18)" fill-rule="evenodd" stroke="none"/>
      <path d="M43.45 121.7 Q43.75 121.1 44.1 121.25 L47.25 122.05 49.9 124.15 50.25 124.45 49.9 126.65 49.6 127.7 49.45 128.2 Q48.0 132.5 46.75 135.3 44.4 140.2 42.95 139.85 42.05 139.6 42.05 133.35 42.05 127.6 42.35 126.45 L42.85 123.2 Q43.1 122.1 43.45 121.7" fill="url(#gradient19)" fill-rule="evenodd" stroke="none"/>
      <path d="M58.45 131.2 L58.1 127.2 63.3 126.0 65.5 125.5 66.15 125.35 Q65.85 125.7 65.85 126.35 L66.0 127.9 66.7 130.95 67.0 131.95 67.6 133.85 67.85 134.55 67.5 139.05 66.6 143.35 Q65.9 146.05 64.7 146.05 60.0 146.05 58.45 131.2" fill="url(#gradient20)" fill-rule="evenodd" stroke="none"/>
      <path d="M71.85 126.65 L73.25 131.7 Q73.85 134.1 74.05 136.65 L74.1 138.65 Q74.1 142.9 72.9 142.9 70.85 142.9 68.85 137.75 L68.45 136.4 67.85 134.55 67.6 133.85 67.0 131.95 66.7 130.95 66.0 127.9 65.85 126.35 Q65.85 125.7 66.15 125.35 L66.4 125.15 67.95 124.5 71.25 124.5 71.85 126.65" fill="url(#gradient21)" fill-rule="evenodd" stroke="none"/>
      <path d="M102.9 102.95 L103.95 104.3 106.35 107.8 109.05 111.85 109.15 112.0 Q110.75 115.0 110.75 118.4 L110.6 119.95 Q110.4 120.4 109.65 120.4 107.9 120.4 104.1 117.05 L102.95 116.0 96.0 109.55 94.5 108.15 94.55 108.1 94.75 108.0 97.2 106.5 97.25 106.45 102.8 102.85 102.9 102.95" fill="url(#gradient22)" fill-rule="evenodd" stroke="none"/>
      <path d="M96.0 109.55 L102.95 116.0 Q104.9 118.55 104.9 120.6 104.9 121.75 104.55 122.2 104.15 122.75 103.0 122.75 100.55 122.75 97.45 120.65 94.75 118.95 92.35 116.2 L92.35 116.35 Q93.15 118.15 95.4 121.55 L95.4 126.15 94.3 126.15 Q91.3 124.95 89.85 122.75 L87.85 119.55 87.05 118.35 88.15 117.1 88.35 116.9 93.0 112.3 96.0 109.55" fill="url(#gradient23)" fill-rule="evenodd" stroke="none"/>
      <path d="M52.05 -5.5 L52.1 -7.65 49.65 -7.25 M12.2 67.65 L5.7 67.9 5.3 73.8 Q5.25 75.8 5.85 79.6 L6.75 84.4 7.6 88.0 Q8.15 90.55 8.95 90.1 9.7 89.65 10.0 86.85 L10.45 82.95 10.75 80.95 12.2 72.3 M2.25 67.95 L5.7 67.9 6.0 65.95" fill="none" stroke="#ff0000" stroke-linecap="round" stroke-linejoin="round" stroke-opacity="0.0" stroke-width="1.0"/>
      <path d="M85.5 79.5 L86.9 80.35 Q88.3 81.05 90.7 81.05 92.3 81.05 92.85 80.65 93.35 80.3 93.35 79.35 93.35 78.6 91.9 77.35 M39.5 65.45 L31.25 66.95 24.1 68.1 26.55 70.5 Q29.05 72.45 30.5 72.45 32.95 72.45 35.15 70.1 L39.5 65.45 40.5 65.2 41.75 65.2 M24.1 68.1 L21.75 68.45 21.75 68.7 M12.2 72.3 L12.55 70.55 12.5 67.95 M12.55 70.55 L12.65 74.1 Q13.1 79.45 14.75 79.45 16.8 79.45 18.55 73.4 L20.0 66.95 12.2 67.65 M37.05 81.5 Q36.35 82.45 35.8 84.25 34.85 87.25 35.35 88.1 35.7 88.75 36.05 88.65 L37.05 88.05 37.15 88.05 Q37.55 88.3 40.4 85.3 43.75 81.85 45.35 79.1 L49.1 72.15 38.3 73.9 34.15 79.85 Q33.35 81.3 33.9 82.3 34.4 83.1 36.3 82.0 L37.05 81.5 37.75 80.85 37.7 80.8 37.8 80.75 37.75 80.85 M20.0 66.95 L21.75 66.7 M60.1 62.5 L60.1 62.8 Q60.5 66.45 62.5 66.45 64.0 66.45 64.65 62.5 M50.8 62.5 Q51.05 66.95 51.4 69.55 52.45 78.2 54.85 78.2 58.6 78.2 59.55 66.2 L59.7 62.5 M39.55 71.8 L41.25 72.45 42.7 71.8 M49.6 74.8 L48.85 75.3 51.45 76.3 M72.25 103.55 L60.0 105.35 60.65 111.0 Q61.25 114.4 63.0 114.2 64.15 114.05 64.5 112.25 L64.55 110.25 Q64.9 113.05 66.35 117.65 68.45 124.55 70.45 124.35 72.25 124.1 72.65 117.6 L72.75 109.6 72.3 103.8 72.25 103.55 M71.95 98.05 L71.95 101.8 76.05 101.65 M59.8 102.15 L62.5 102.1 62.45 101.55 M51.9 102.85 L51.95 102.45 50.95 102.4 50.55 102.4 M51.6 109.6 L51.15 112.25 Q50.35 116.05 49.5 116.05 48.95 116.05 48.5 115.45 M46.8 108.75 L47.0 103.95 47.1 102.25 44.95 102.05 M52.05 99.8 L51.95 102.45 53.35 102.65 54.55 102.8 M47.2 100.55 L47.1 102.25 47.3 102.25 48.85 102.35 M58.2 131.3 L58.45 131.2 M65.5 125.5 L65.3 124.65 M74.05 136.65 L74.05 135.8 Q74.05 133.5 73.5 131.3 L72.2 126.65 71.85 126.65 M109.05 111.85 Q108.75 110.55 108.1 109.4 L106.05 106.3 104.25 103.7 103.4 102.6 102.9 102.95 M94.75 108.0 L94.55 108.1 93.8 108.4 M103.4 102.6 L102.3 101.4 M103.4 102.6 L106.55 99.9 M96.0 109.55 L93.0 112.3 88.35 116.9 88.15 117.1 87.05 118.35 87.85 119.55 89.85 122.75 Q91.3 124.95 94.3 126.15 L95.4 126.15 95.4 121.55 Q93.15 118.15 92.35 116.35 L92.35 116.2 Q94.75 118.95 97.45 120.65 100.55 122.75 103.0 122.75 104.15 122.75 104.55 122.2 104.9 121.75 104.9 120.6 104.9 118.55 102.95 116.0 M96.3 105.65 L97.2 106.5 M88.2 116.55 L88.35 116.9" fill="none" stroke="#d6d6d6" stroke-linecap="round" stroke-linejoin="round" stroke-opacity="0.0" stroke-width="1.0"/>
      <path d="M33.7 116.4 Q31.45 122.95 29.55 122.45 27.6 121.95 28.2 118.3 L29.65 111.35 26.75 121.45 Q22.75 132.8 19.1 131.8 16.8 131.2 18.0 122.6 18.6 118.1 20.75 108.5 L29.55 108.8 30.35 108.85 35.95 108.95 33.7 116.4" fill="url(#gradient24)" fill-rule="evenodd" stroke="none"/>
      <path d="M78.45 124.25 L80.35 130.7 Q81.15 134.15 79.55 135.3 77.95 136.35 75.5 130.6 L73.0 123.85 77.65 121.9 78.35 121.7 Q82.6 119.85 85.75 118.65 88.45 127.45 89.3 131.65 91.05 139.95 89.1 141.3 86.2 143.4 81.75 133.3 L78.45 124.25" fill="url(#gradient25)" fill-rule="evenodd" stroke="none"/>
      <path d="M41.15 60.75 Q40.65 60.35 40.55 59.5 L40.0 55.9 Q39.85 55.0 40.3 54.55 L43.8 57.2 41.15 60.75 M46.45 53.65 Q46.95 54.0 47.1 54.85 L47.65 58.45 Q47.75 59.3 47.35 59.85 L43.8 57.2 46.45 53.65" fill="#478e72" fill-rule="evenodd" stroke="none"/>
      <path d="M43.8 57.2 L40.3 54.55 Q40.65 54.1 41.5 53.95 L45.1 53.4 46.45 53.65 43.8 57.2" fill="#99ffd2" fill-rule="evenodd" stroke="none"/>
      <path d="M41.15 60.75 L43.8 57.2 47.35 59.85 Q47.05 60.35 46.15 60.45 L42.55 61.0 41.15 60.75" fill="#295141" fill-rule="evenodd" stroke="none"/>
      <path d="M40.3 54.55 Q39.85 55.0 40.0 55.9 L40.55 59.5 Q40.65 60.35 41.15 60.75 L43.8 57.2 40.3 54.55 Q40.65 54.1 41.5 53.95 L45.1 53.4 46.45 53.65 Q46.95 54.0 47.1 54.85 L47.65 58.45 Q47.75 59.3 47.35 59.85 47.05 60.35 46.15 60.45 L42.55 61.0 41.15 60.75 M43.8 57.2 L47.35 59.85 M46.45 53.65 L43.8 57.2" fill="none" stroke="#000000" stroke-linecap="round" stroke-linejoin="round" stroke-opacity="0.14901961" stroke-width="1.0"/>
      <path d="M70.75 49.95 L71.3 51.1 71.75 54.35 Q71.8 55.05 71.45 55.65 L69.25 52.95 70.75 49.95 M65.75 56.35 Q65.4 55.95 65.3 55.1 L64.85 51.95 Q64.75 51.1 65.15 50.65 L69.25 52.95 65.75 56.35" fill="#478e72" fill-rule="evenodd" stroke="none"/>
      <path d="M70.75 49.95 L69.25 52.95 65.15 50.65 Q65.45 50.35 66.3 50.15 L69.5 49.75 70.75 49.95" fill="#99ffd2" fill-rule="evenodd" stroke="none"/>
      <path d="M69.25 52.95 L71.45 55.65 Q71.15 56.0 70.35 56.15 L67.05 56.55 65.75 56.35 69.25 52.95" fill="#295141" fill-rule="evenodd" stroke="none"/>
      <path d="M71.45 55.65 Q71.8 55.05 71.75 54.35 L71.3 51.1 70.75 49.95 69.25 52.95 71.45 55.65 Q71.15 56.0 70.35 56.15 L67.05 56.55 65.75 56.35 Q65.4 55.95 65.3 55.1 L64.85 51.95 Q64.75 51.1 65.15 50.65 65.45 50.35 66.3 50.15 L69.5 49.75 70.75 49.95 M65.75 56.35 L69.25 52.95 65.15 50.65" fill="none" stroke="#000000" stroke-linecap="round" stroke-linejoin="round" stroke-opacity="0.14901961" stroke-width="1.0"/>
      <path d="M21.25 58.9 Q21.7 59.25 21.85 60.0 L22.35 63.15 Q22.4 63.9 22.05 64.4 L18.0 62.2 21.25 58.9 M16.6 65.2 Q16.15 64.85 16.05 64.1 L15.55 60.9 Q15.45 60.1 15.85 59.7 L18.0 62.2 16.6 65.2" fill="#478e72" fill-rule="evenodd" stroke="none"/>
      <path d="M18.0 62.2 L22.05 64.4 Q21.8 64.85 21.0 64.95 L17.8 65.45 16.6 65.2 18.0 62.2" fill="#295141" fill-rule="evenodd" stroke="none"/>
      <path d="M21.25 58.9 L18.0 62.2 15.85 59.7 Q16.15 59.3 16.9 59.2 L20.1 58.7 21.25 58.9" fill="#99ffd2" fill-rule="evenodd" stroke="none"/>
      <path d="M22.05 64.4 Q22.4 63.9 22.35 63.15 L21.85 60.0 Q21.7 59.25 21.25 58.9 L18.0 62.2 22.05 64.4 Q21.8 64.85 21.0 64.95 L17.8 65.45 16.6 65.2 Q16.15 64.85 16.05 64.1 L15.55 60.9 Q15.45 60.1 15.85 59.7 16.15 59.3 16.9 59.2 L20.1 58.7 21.25 58.9 M15.85 59.7 L18.0 62.2 16.6 65.2" fill="none" stroke="#000000" stroke-linecap="round" stroke-linejoin="round" stroke-opacity="0.14901961" stroke-width="1.0"/>
    </g>
    <linearGradient gradientTransform="matrix(0.0043, 0.0075, -0.0082, 0.0047, 85.7, 92.05)" gradientUnits="userSpaceOnUse" id="gradient0" spreadMethod="pad" x1="-819.2" x2="819.2">
      <stop offset="0.023529411764705882" stop-color="#d4ffc6"/>
      <stop offset="1.0" stop-color="#ffffff"/>
    </linearGradient>
    <linearGradient gradientTransform="matrix(0.0091, 0.0, 0.0, 0.0052, 77.35, 75.5)" gradientUnits="userSpaceOnUse" id="gradient1" spreadMethod="pad" x1="-819.2" x2="819.2">
      <stop offset="0.023529411764705882" stop-color="#d4ffc6"/>
      <stop offset="1.0" stop-color="#ffffff"/>
    </linearGradient>
    <linearGradient gradientTransform="matrix(0.0, 0.0041, -0.01, 0.0, 44.15, 101.65)" gradientUnits="userSpaceOnUse" id="gradient2" spreadMethod="pad" x1="-819.2" x2="819.2">
      <stop offset="0.023529411764705882" stop-color="#d4ffc6"/>
      <stop offset="1.0" stop-color="#ffffff"/>
    </linearGradient>
    <linearGradient gradientTransform="matrix(-9.0E-4, 0.0032, -0.0105, -0.0028, 30.5, 107.3)" gradientUnits="userSpaceOnUse" id="gradient3" spreadMethod="pad" x1="-819.2" x2="819.2">
      <stop offset="0.023529411764705882" stop-color="#d4ffc6"/>
      <stop offset="1.0" stop-color="#ffffff"/>
    </linearGradient>
    <linearGradient gradientTransform="matrix(0.001, 0.0038, -0.0101, 0.0027, 54.8, 118.1)" gradientUnits="userSpaceOnUse" id="gradient4" spreadMethod="pad" x1="-819.2" x2="819.2">
      <stop offset="0.023529411764705882" stop-color="#d4ffc6"/>
      <stop offset="1.0" stop-color="#ffffff"/>
    </linearGradient>
    <linearGradient gradientTransform="matrix(0.0012, 0.0045, -0.0099, 0.0027, 71.7, 106.55)" gradientUnits="userSpaceOnUse" id="gradient5" spreadMethod="pad" x1="-819.2" x2="819.2">
      <stop offset="0.023529411764705882" stop-color="#d4ffc6"/>
      <stop offset="1.0" stop-color="#ffffff"/>
    </linearGradient>
    <linearGradient gradientTransform="matrix(0.0067, 0.0038, -0.004, 0.0069, 88.5, 107.55)" gradientUnits="userSpaceOnUse" id="gradient6" spreadMethod="pad" x1="-819.2" x2="819.2">
      <stop offset="0.023529411764705882" stop-color="#d4ffc6"/>
      <stop offset="1.0" stop-color="#ffffff"/>
    </linearGradient>
    <linearGradient gradientTransform="matrix(-0.0107, 0.0029, -9.0E-4, -0.0034, 42.1, 76.7)" gradientUnits="userSpaceOnUse" id="gradient7" spreadMethod="pad" x1="-819.2" x2="819.2">
      <stop offset="0.023529411764705882" stop-color="#d4ffc6"/>
      <stop offset="1.0" stop-color="#ffffff"/>
    </linearGradient>
    <linearGradient gradientTransform="matrix(0.0, -0.0087, 0.0114, 0.0, 50.15, 1.75)" gradientUnits="userSpaceOnUse" id="gradient8" spreadMethod="pad" x1="-819.2" x2="819.2">
      <stop offset="0.0" stop-color="#7cffeb"/>
      <stop offset="1.0" stop-color="#09cdc9" stop-opacity="0.0"/>
    </linearGradient>
    <linearGradient gradientTransform="matrix(-0.0057, -0.0029, 0.0069, -0.0127, 79.25, 74.85)" gradientUnits="userSpaceOnUse" id="gradient9" spreadMethod="pad" x1="-819.2" x2="819.2">
      <stop offset="0.023529411764705882" stop-color="#7cffeb"/>
      <stop offset="1.0" stop-color="#09cdc9" stop-opacity="0.0"/>
    </linearGradient>
    <linearGradient gradientTransform="matrix(-0.0019, -0.0032, 0.0077, -0.0044, 90.3, 92.45)" gradientUnits="userSpaceOnUse" id="gradient10" spreadMethod="pad" x1="-819.2" x2="819.2">
      <stop offset="0.0" stop-color="#7cffeb"/>
      <stop offset="1.0" stop-color="#09cdc9" stop-opacity="0.0"/>
    </linearGradient>
    <linearGradient gradientTransform="matrix(-0.0012, -0.0045, 0.0107, -0.0029, 83.05, 106.8)" gradientUnits="userSpaceOnUse" id="gradient11" spreadMethod="pad" x1="-819.2" x2="819.2">
      <stop offset="0.0" stop-color="#7cffeb"/>
      <stop offset="1.0" stop-color="#09cdc9" stop-opacity="0.0"/>
    </linearGradient>
    <linearGradient gradientTransform="matrix(-0.0019, -0.0032, 0.0077, -0.0044, 96.35, 93.3)" gradientUnits="userSpaceOnUse" id="gradient12" spreadMethod="pad" x1="-819.2" x2="819.2">
      <stop offset="0.0" stop-color="#7cffeb"/>
      <stop offset="1.0" stop-color="#09cdc9" stop-opacity="0.0"/>
    </linearGradient>
    <linearGradient gradientTransform="matrix(4.0E-4, -0.0053, 1.3473, 0.1002, -542.55, 35.4)" gradientUnits="userSpaceOnUse" id="gradient13" spreadMethod="pad" x1="-819.2" x2="819.2">
      <stop offset="0.023529411764705882" stop-color="#7cffeb"/>
      <stop offset="1.0" stop-color="#09cdc9" stop-opacity="0.0"/>
    </linearGradient>
    <linearGradient gradientTransform="matrix(0.0, -0.0032, 0.0043, 0.0, 36.85, 87.15)" gradientUnits="userSpaceOnUse" id="gradient14" spreadMethod="pad" x1="-819.2" x2="819.2">
      <stop offset="0.023529411764705882" stop-color="#7cffeb"/>
      <stop offset="1.0" stop-color="#09cdc9" stop-opacity="0.0"/>
    </linearGradient>
    <linearGradient gradientTransform="matrix(8.0E-4, -0.0013, 0.0037, 0.0021, 38.35, 96.0)" gradientUnits="userSpaceOnUse" id="gradient15" spreadMethod="pad" x1="-819.2" x2="819.2">
      <stop offset="0.0" stop-color="#7cffeb"/>
      <stop offset="1.0" stop-color="#09cdc9" stop-opacity="0.0"/>
    </linearGradient>
    <linearGradient gradientTransform="matrix(0.0, -0.0032, 0.0076, 0.0, 74.0, 86.4)" gradientUnits="userSpaceOnUse" id="gradient16" spreadMethod="pad" x1="-819.2" x2="819.2">
      <stop offset="0.0" stop-color="#7cffeb"/>
      <stop offset="1.0" stop-color="#09cdc9" stop-opacity="0.0"/>
    </linearGradient>
    <linearGradient gradientTransform="matrix(-3.0E-4, -0.0075, 0.0124, -5.0E-4, 66.8, 110.05)" gradientUnits="userSpaceOnUse" id="gradient17" spreadMethod="pad" x1="-819.2" x2="819.2">
      <stop offset="0.023529411764705882" stop-color="#7cffeb"/>
      <stop offset="1.0" stop-color="#09cdc9" stop-opacity="0.0"/>
    </linearGradient>
    <linearGradient gradientTransform="matrix(0.0012, -0.0029, 0.0078, 0.0032, 50.15, 105.7)" gradientUnits="userSpaceOnUse" id="gradient18" spreadMethod="pad" x1="-819.2" x2="819.2">
      <stop offset="0.023529411764705882" stop-color="#7cffeb"/>
      <stop offset="1.0" stop-color="#09cdc9" stop-opacity="0.0"/>
    </linearGradient>
    <linearGradient gradientTransform="matrix(0.0012, -0.0045, 0.0108, 0.0029, 44.75, 130.9)" gradientUnits="userSpaceOnUse" id="gradient19" spreadMethod="pad" x1="-819.2" x2="819.2">
      <stop offset="0.0" stop-color="#7cffeb"/>
      <stop offset="1.0" stop-color="#09cdc9" stop-opacity="0.0"/>
    </linearGradient>
    <linearGradient gradientTransform="matrix(-0.0015, -0.0055, 0.0122, -0.0033, 77.6, 127.9)" gradientUnits="userSpaceOnUse" id="gradient20" spreadMethod="pad" x1="-819.2" x2="819.2">
      <stop offset="0.023529411764705882" stop-color="#7cffeb"/>
      <stop offset="1.0" stop-color="#09cdc9" stop-opacity="0.0"/>
    </linearGradient>
    <linearGradient gradientTransform="matrix(-0.0013, -0.0049, 0.0108, -0.0029, 69.95, 131.45)" gradientUnits="userSpaceOnUse" id="gradient21" spreadMethod="pad" x1="-819.2" x2="819.2">
      <stop offset="0.023529411764705882" stop-color="#7cffeb"/>
      <stop offset="1.0" stop-color="#09cdc9" stop-opacity="0.0"/>
    </linearGradient>
    <linearGradient gradientTransform="matrix(-0.0023, -0.0047, 0.0096, -0.0047, 100.9, 109.65)" gradientUnits="userSpaceOnUse" id="gradient22" spreadMethod="pad" x1="-819.2" x2="819.2">
      <stop offset="0.023529411764705882" stop-color="#7cffeb"/>
      <stop offset="1.0" stop-color="#09cdc9" stop-opacity="0.0"/>
    </linearGradient>
    <linearGradient gradientTransform="matrix(-0.002, -0.0034, 0.009, -0.0052, 96.0, 117.7)" gradientUnits="userSpaceOnUse" id="gradient23" spreadMethod="pad" x1="-819.2" x2="819.2">
      <stop offset="0.023529411764705882" stop-color="#7cffeb"/>
      <stop offset="1.0" stop-color="#09cdc9" stop-opacity="0.0"/>
    </linearGradient>
    <linearGradient gradientTransform="matrix(0.0, -0.0087, 0.0153, 0.0, 23.05, 116.15)" gradientUnits="userSpaceOnUse" id="gradient24" spreadMethod="pad" x1="-819.2" x2="819.2">
      <stop offset="0.0" stop-color="#7cffeb"/>
      <stop offset="1.0" stop-color="#09cdc9" stop-opacity="0.0"/>
    </linearGradient>
    <linearGradient gradientTransform="matrix(-8.0E-4, -0.0087, -0.0129, 0.0049, 84.45, 126.9)" gradientUnits="userSpaceOnUse" id="gradient25" spreadMethod="pad" x1="-819.2" x2="819.2">
      <stop offset="0.0" stop-color="#7cffeb"/>
      <stop offset="1.0" stop-color="#09cdc9" stop-opacity="0.0"/>
    </linearGradient>
    <g id="sprite0" transform="matrix(1.0, 0.0, 0.0, 1.0, -3.1, 10.35)">
      <use height="81.3" transform="matrix(1.0, 0.0, 0.0, 1.0, 3.1, -10.35)" width="79.3" xlink:href="#shape1"/>
    </g>
    <g id="shape1" transform="matrix(1.0, 0.0, 0.0, 1.0, -3.1, 10.35)">
      <path d="M54.6 12.75 L55.0 9.5 Q54.7 -1.05 51.05 -9.5 57.3 -6.7 64.5 2.05 L64.7 2.25 Q63.8 3.9 63.3 4.05 L61.3 3.55 58.65 3.1 Q58.35 3.3 54.6 12.75" fill="url(#gradient26)" fill-rule="evenodd" stroke="none"/>
      <path d="M64.7 2.25 L69.4 9.35 Q70.3 11.9 70.7 14.45 L70.75 15.35 Q70.95 20.25 66.5 32.55 L64.6 30.75 60.9 27.8 Q57.45 25.35 53.85 23.85 51.95 21.3 49.6 19.5 L49.5 19.2 54.6 12.75 Q58.35 3.3 58.65 3.1 L61.3 3.55 63.3 4.05 Q63.8 3.9 64.7 2.25 M60.95 10.7 L70.15 14.2 Q67.05 9.2 64.2 7.2 L60.95 10.7" fill="url(#gradient27)" fill-rule="evenodd" stroke="none"/>
      <path d="M60.95 10.7 L64.2 7.2 Q67.05 9.2 70.15 14.2 L60.95 10.7" fill="url(#gradient28)" fill-rule="evenodd" stroke="none"/>
      <path d="M40.45 15.4 L44.25 16.55 Q43.8 17.3 43.75 17.95 43.65 20.05 46.45 24.3 L47.4 25.75 Q43.95 23.45 39.85 22.2 L40.7 21.5 Q41.25 20.8 41.35 18.95 41.45 17.25 40.45 15.4" fill="url(#gradient29)" fill-rule="evenodd" stroke="none"/>
      <path d="M44.25 16.55 Q47.15 17.65 49.6 19.5 51.95 21.3 53.85 23.85 55.8 26.45 57.2 29.85 L58.5 33.75 Q59.0 38.8 55.7 33.85 54.05 31.5 52.1 29.55 50.25 27.7 48.15 26.2 L47.4 25.75 46.45 24.3 Q43.65 20.05 43.75 17.95 43.8 17.3 44.25 16.55" fill="url(#gradient30)" fill-rule="evenodd" stroke="none"/>
      <path d="M25.85 21.65 Q30.35 16.65 37.8 14.95 L40.45 15.4 Q41.45 17.25 41.35 18.95 41.25 20.8 40.7 21.5 L39.85 22.2 39.35 22.05 36.0 21.95 Q31.45 22.15 27.65 24.3 L25.85 21.65" fill="url(#gradient31)" fill-rule="evenodd" stroke="none"/>
      <path d="M78.25 47.3 L80.5 47.6 Q82.9 51.55 82.25 57.15 L79.8 57.7 Q79.6 53.65 78.0 50.1 L76.1 47.1 78.25 47.3" fill="url(#gradient32)" fill-rule="evenodd" stroke="none"/>
      <path d="M11.9 37.8 Q5.65 23.4 4.1 19.05 L3.8 18.2 Q3.15 15.75 3.1 13.1 3.85 9.05 4.95 4.85 6.5 6.05 7.0 6.1 L8.8 4.95 Q10.65 3.7 11.2 3.8 11.55 3.8 18.9 11.55 L25.85 21.65 27.65 24.3 28.7 25.85 29.45 26.9 27.0 30.5 23.9 35.0 Q20.1 36.95 16.25 38.85 L13.05 40.45 12.9 40.1 11.9 37.8 M11.95 11.65 L7.35 9.3 Q5.4 12.2 4.25 17.75 L11.95 11.65 M26.05 24.7 L18.65 24.05 20.3 28.1 26.05 24.7" fill="url(#gradient33)" fill-rule="evenodd" stroke="none"/>
      <path d="M11.95 11.65 L4.25 17.75 Q5.4 12.2 7.35 9.3 L11.95 11.65" fill="url(#gradient34)" fill-rule="evenodd" stroke="none"/>
      <path d="M26.05 24.7 L20.3 28.1 18.65 24.05 26.05 24.7" fill="url(#gradient35)" fill-rule="evenodd" stroke="none"/>
      <path d="M4.95 4.85 L5.0 4.6 Q8.65 -5.95 13.6 -10.35 13.45 -1.3 17.25 8.75 L18.9 11.55 Q11.55 3.8 11.2 3.8 10.65 3.7 8.8 4.95 L7.0 6.1 Q6.5 6.05 4.95 4.85" fill="url(#gradient36)" fill-rule="evenodd" stroke="none"/>
      <path d="M31.35 35.65 Q28.75 40.6 23.6 44.3 L20.55 45.7 19.15 44.4 19.0 44.0 18.2 43.05 16.65 39.65 16.5 39.5 16.25 38.85 Q20.1 36.95 23.9 35.0 L27.0 30.5 27.2 30.75 Q29.9 32.7 31.35 35.65" fill="url(#gradient37)" fill-rule="evenodd" stroke="none"/>
      <path d="M10.9 44.75 Q10.35 40.95 11.9 37.8 L12.9 40.1 13.05 40.45 16.25 38.85 16.5 39.5 16.65 39.65 18.2 43.05 19.0 44.0 19.15 44.4 20.55 45.7 Q16.45 47.1 11.4 47.15 L10.9 44.75" fill="url(#gradient38)" fill-rule="evenodd" stroke="none"/>
      <path d="M28.7 25.85 L31.7 26.7 Q33.4 29.25 32.4 33.25 L31.35 35.65 Q29.9 32.7 27.2 30.75 L27.0 30.5 29.45 26.9 28.7 25.85" fill="url(#gradient39)" fill-rule="evenodd" stroke="none"/>
      <path d="M79.8 57.7 Q59.8 62.2 39.25 65.75 L21.15 68.8 10.45 70.4 6.55 70.95 Q3.7 66.6 5.55 60.65 L8.05 59.45 9.4 58.8 Q14.5 56.4 19.65 54.45 L19.85 54.35 Q22.15 53.5 24.4 52.75 L29.45 51.15 Q34.65 49.55 39.9 48.55 45.6 47.35 51.35 46.8 L60.85 46.25 76.1 47.1 78.0 50.1 Q79.6 53.65 79.8 57.7" fill="url(#gradient40)" fill-rule="evenodd" stroke="none"/>
      <path d="M66.5 32.55 L69.35 35.55 68.85 40.3 74.1 40.5 Q74.8 42.15 75.95 43.8 L78.25 47.3 76.1 47.1 60.85 46.25 51.35 46.8 Q45.6 47.35 39.9 48.55 34.65 49.55 29.45 51.15 L24.4 52.75 Q22.15 53.5 19.85 54.35 L19.65 54.45 Q14.5 56.4 9.4 58.8 L8.05 59.45 Q7.95 56.45 8.7 52.4 9.6 48.3 10.9 44.75 L11.4 47.15 Q16.45 47.1 20.55 45.7 L23.6 44.3 Q28.75 40.6 31.35 35.65 L32.4 33.25 Q33.4 29.25 31.7 26.7 L28.7 25.85 27.65 24.3 Q31.45 22.15 36.0 21.95 L39.35 22.05 39.85 22.2 Q43.95 23.45 47.4 25.75 L48.15 26.2 Q50.25 27.7 52.1 29.55 54.05 31.5 55.7 33.85 59.0 38.8 58.5 33.75 L57.2 29.85 Q55.8 26.45 53.85 23.85 57.45 25.35 60.9 27.8 L64.6 30.75 66.5 32.55" fill="url(#gradient41)" fill-rule="evenodd" stroke="none"/>
    </g>
    <linearGradient gradientTransform="matrix(0.0083, 0.0, 0.0, 0.0136, 57.85, 1.6)" gradientUnits="userSpaceOnUse" id="gradient26" spreadMethod="pad" x1="-819.2" x2="819.2">
      <stop offset="0.023529411764705882" stop-color="#ffffff"/>
      <stop offset="0.9450980392156862" stop-color="#00ffff" stop-opacity="0.9882353"/>
    </linearGradient>
    <linearGradient gradientTransform="matrix(0.013, 0.0, 0.0, 0.0185, 60.1, 17.4)" gradientUnits="userSpaceOnUse" id="gradient27" spreadMethod="pad" x1="-819.2" x2="819.2">
      <stop offset="0.023529411764705882" stop-color="#ffffff"/>
      <stop offset="0.9450980392156862" stop-color="#00ffff" stop-opacity="0.9882353"/>
    </linearGradient>
    <linearGradient gradientTransform="matrix(0.0056, 0.0, 0.0, 0.0043, 65.55, 10.7)" gradientUnits="userSpaceOnUse" id="gradient28" spreadMethod="pad" x1="-819.2" x2="819.2">
      <stop offset="0.023529411764705882" stop-color="#ffffff"/>
      <stop offset="0.9450980392156862" stop-color="#00ffff" stop-opacity="0.9882353"/>
    </linearGradient>
    <linearGradient gradientTransform="matrix(0.0046, 0.0, 0.0, 0.0063, 43.6, 20.55)" gradientUnits="userSpaceOnUse" id="gradient29" spreadMethod="pad" x1="-819.2" x2="819.2">
      <stop offset="0.023529411764705882" stop-color="#ffffff"/>
      <stop offset="0.9450980392156862" stop-color="#00ffff" stop-opacity="0.9882353"/>
    </linearGradient>
    <linearGradient gradientTransform="matrix(0.009, 0.0, 0.0, 0.0121, 51.15, 26.4)" gradientUnits="userSpaceOnUse" id="gradient30" spreadMethod="pad" x1="-819.2" x2="819.2">
      <stop offset="0.023529411764705882" stop-color="#ffffff"/>
      <stop offset="0.9450980392156862" stop-color="#00ffff" stop-opacity="0.9882353"/>
    </linearGradient>
    <linearGradient gradientTransform="matrix(0.0095, 0.0, 0.0, 0.0057, 33.6, 19.6)" gradientUnits="userSpaceOnUse" id="gradient31" spreadMethod="pad" x1="-819.2" x2="819.2">
      <stop offset="0.023529411764705882" stop-color="#ffffff"/>
      <stop offset="0.9450980392156862" stop-color="#00ffff" stop-opacity="0.9882353"/>
    </linearGradient>
    <linearGradient gradientTransform="matrix(0.0038, 0.0, 0.0, 0.0065, 79.25, 52.4)" gradientUnits="userSpaceOnUse" id="gradient32" spreadMethod="pad" x1="-819.2" x2="819.2">
      <stop offset="0.023529411764705882" stop-color="#ffffff"/>
      <stop offset="0.9450980392156862" stop-color="#00ffff" stop-opacity="0.9882353"/>
    </linearGradient>
    <linearGradient gradientTransform="matrix(0.0161, 0.0, 0.0, 0.0224, 16.25, 22.1)" gradientUnits="userSpaceOnUse" id="gradient33" spreadMethod="pad" x1="-819.2" x2="819.2">
      <stop offset="0.023529411764705882" stop-color="#ffffff"/>
      <stop offset="0.9450980392156862" stop-color="#00ffff" stop-opacity="0.9882353"/>
    </linearGradient>
    <linearGradient gradientTransform="matrix(0.0047, 0.0, 0.0, 0.0052, 8.1, 13.5)" gradientUnits="userSpaceOnUse" id="gradient34" spreadMethod="pad" x1="-819.2" x2="819.2">
      <stop offset="0.023529411764705882" stop-color="#ffffff"/>
      <stop offset="0.9450980392156862" stop-color="#00ffff" stop-opacity="0.9882353"/>
    </linearGradient>
    <linearGradient gradientTransform="matrix(0.0045, 0.0, 0.0, 0.0025, 22.35, 26.05)" gradientUnits="userSpaceOnUse" id="gradient35" spreadMethod="pad" x1="-819.2" x2="819.2">
      <stop offset="0.023529411764705882" stop-color="#ffffff"/>
      <stop offset="0.9450980392156862" stop-color="#00ffff" stop-opacity="0.9882353"/>
    </linearGradient>
    <linearGradient gradientTransform="matrix(0.0085, 0.0, 0.0, 0.0134, 11.9, 0.6)" gradientUnits="userSpaceOnUse" id="gradient36" spreadMethod="pad" x1="-819.2" x2="819.2">
      <stop offset="0.023529411764705882" stop-color="#ffffff"/>
      <stop offset="0.9450980392156862" stop-color="#00ffff" stop-opacity="0.9882353"/>
    </linearGradient>
    <linearGradient gradientTransform="matrix(0.0092, 0.0, 0.0, 0.0093, 23.8, 38.1)" gradientUnits="userSpaceOnUse" id="gradient37" spreadMethod="pad" x1="-819.2" x2="819.2">
      <stop offset="0.023529411764705882" stop-color="#ffffff"/>
      <stop offset="0.9450980392156862" stop-color="#00ffff" stop-opacity="0.9882353"/>
    </linearGradient>
    <linearGradient gradientTransform="matrix(0.006, 0.0, 0.0, 0.0057, 15.65, 42.45)" gradientUnits="userSpaceOnUse" id="gradient38" spreadMethod="pad" x1="-819.2" x2="819.2">
      <stop offset="0.023529411764705882" stop-color="#ffffff"/>
      <stop offset="0.9450980392156862" stop-color="#00ffff" stop-opacity="0.9882353"/>
    </linearGradient>
    <linearGradient gradientTransform="matrix(0.0035, 0.0, 0.0, 0.006, 29.85, 30.75)" gradientUnits="userSpaceOnUse" id="gradient39" spreadMethod="pad" x1="-819.2" x2="819.2">
      <stop offset="0.023529411764705882" stop-color="#ffffff"/>
      <stop offset="0.9450980392156862" stop-color="#00ffff" stop-opacity="0.9882353"/>
    </linearGradient>
    <linearGradient gradientTransform="matrix(-0.0279, 0.0075, -0.0031, -0.0115, 36.6, 66.25)" gradientUnits="userSpaceOnUse" id="gradient40" spreadMethod="pad" x1="-819.2" x2="819.2">
      <stop offset="0.023529411764705882" stop-color="#ffffff"/>
      <stop offset="0.9450980392156862" stop-color="#00ffff" stop-opacity="0.9882353"/>
    </linearGradient>
    <linearGradient gradientTransform="matrix(-0.019, 0.0, 0.0, -0.0229, 20.75, 42.7)" gradientUnits="userSpaceOnUse" id="gradient41" spreadMethod="pad" x1="-819.2" x2="819.2">
      <stop offset="0.023529411764705882" stop-color="#ffffff"/>
      <stop offset="0.9450980392156862" stop-color="#00ffff" stop-opacity="0.9882353"/>
    </linearGradient>
    <g id="shape2" transform="matrix(1.0, 0.0, 0.0, 1.0, -0.3, 5.95)">
      <path d="M9.85 -2.65 L12.05 -2.45 14.1 -1.3 14.4 -1.2 14.4 0.3 14.4 1.0 14.35 1.35 13.5 6.45 Q12.6 10.1 11.55 10.0 10.95 9.95 10.05 5.7 9.3 1.85 9.35 1.05 L9.25 -1.15 Q9.25 -1.95 9.4 -2.3 L9.85 -2.65" fill="url(#gradient42)" fill-rule="evenodd" stroke="none"/>
      <path d="M52.0 -5.45 L52.25 -5.55 55.6 -5.25 54.75 3.95 Q54.35 8.65 52.4 11.1 L52.3 10.9 52.15 10.8 52.0 7.35 52.0 2.4 52.0 -5.45" fill="url(#gradient43)" fill-rule="evenodd" stroke="none"/>
      <path d="M82.55 53.45 Q82.4 56.75 82.55 62.6 L82.45 64.6 82.3 65.3 Q81.85 66.95 80.75 66.85 79.6 66.75 78.8 64.95 77.9 63.1 77.5 59.25 L77.2 53.7 79.75 53.6 82.55 53.45" fill="url(#gradient44)" fill-rule="evenodd" stroke="none"/>
      <path d="M60.85 4.95 Q60.8 6.25 61.1 8.3 L61.35 12.6 Q61.2 15.2 60.55 18.1 59.55 22.55 58.2 22.75 57.45 19.65 57.5 15.1 L57.55 13.8 58.05 4.95 58.8 5.05 60.85 4.95" fill="url(#gradient45)" fill-rule="evenodd" stroke="none"/>
      <path d="M63.85 20.15 L63.95 16.0 66.85 16.0 67.25 16.05 71.8 16.0 70.8 23.65 70.0 26.85 Q69.4 28.35 68.8 28.65 L68.7 28.65 Q66.65 29.1 66.55 22.95 L66.75 17.4 66.35 21.2 Q66.0 23.2 64.95 23.45 63.85 23.7 63.85 20.15" fill="url(#gradient46)" fill-rule="evenodd" stroke="none"/>
      <path d="M43.9 7.8 L44.6 7.7 46.3 7.5 47.05 7.6 Q47.85 7.75 48.1 8.15 L48.45 9.25 48.85 10.65 49.1 11.85 49.45 13.65 51.0 14.0 51.9 14.3 Q52.7 14.85 53.3 16.25 54.1 18.1 54.25 19.95 54.3 21.3 54.7 23.1 L55.2 25.95 55.15 26.4 54.65 26.1 54.05 25.8 53.8 25.7 52.1 24.95 51.9 24.9 49.15 23.35 49.2 22.25 48.95 22.15 47.4 21.3 45.75 21.15 45.4 21.45 41.8 19.6 Q37.25 17.3 35.2 17.15 L33.7 17.2 33.2 17.15 34.0 15.75 34.1 15.45 34.35 15.15 34.35 15.1 Q36.25 12.9 38.35 12.65 L40.25 12.45 Q40.95 12.3 41.2 11.75 L41.25 11.6 Q41.45 10.75 42.1 9.9 L43.2 8.5 43.75 7.85 43.9 7.8" fill="url(#gradient47)" fill-rule="evenodd" stroke="none"/>
      <path d="M54.1 35.45 Q53.25 39.05 52.2 39.0 51.6 38.95 50.7 34.65 49.9 30.85 49.95 30.05 L49.85 27.8 Q49.85 27.0 50.0 26.65 50.15 26.3 50.45 26.3 L52.65 26.5 54.75 27.65 55.05 27.75 55.05 29.3 55.0 30.0 55.0 30.35 54.1 35.45" fill="url(#gradient48)" fill-rule="evenodd" stroke="none"/>
      <path d="M55.0 30.0 L56.6 30.15 58.7 31.25 59.0 31.4 58.95 33.95 Q57.8 42.75 56.15 42.6 55.55 42.55 54.65 38.3 L54.1 35.45 55.0 30.35 55.0 30.0" fill="url(#gradient49)" fill-rule="evenodd" stroke="none"/>
      <path d="M33.75 34.1 L33.65 33.4 34.4 33.35 Q36.75 33.25 38.3 33.4 L41.55 33.9 44.2 34.45 Q44.15 36.75 42.2 39.15 40.05 42.0 37.2 41.75 35.15 41.55 34.35 38.9 33.9 37.4 33.75 34.55 L34.3 34.3 33.75 34.1" fill="url(#gradient50)" fill-rule="evenodd" stroke="none"/>
      <path d="M14.55 16.45 L16.55 14.7 16.35 14.2 16.55 14.0 17.85 12.95 19.3 12.3 19.65 12.3 19.95 12.15 18.75 19.1 18.7 19.2 17.3 26.2 16.8 26.15 Q14.7 23.75 14.55 18.75 L14.5 17.85 14.55 16.45" fill="url(#gradient51)" fill-rule="evenodd" stroke="none"/>
      <path d="M2.9 20.0 L2.65 14.25 Q3.1 12.9 5.5 13.25 7.1 13.5 9.15 13.2 L12.05 12.85 11.9 15.2 Q10.85 33.55 9.4 31.6 8.1 30.4 7.55 27.4 L6.9 22.85 6.65 23.1 5.6 24.3 Q5.0 25.2 4.75 26.0 3.45 29.8 3.25 25.55 2.9 23.95 2.9 20.0" fill="url(#gradient52)" fill-rule="evenodd" stroke="none"/>
      <path d="M17.6 30.55 L19.25 30.0 19.95 29.8 20.7 29.85 21.95 30.15 Q22.7 30.4 23.05 30.75 L24.2 30.8 25.9 30.2 28.85 29.85 30.0 29.95 30.3 30.0 30.45 30.2 30.85 30.35 31.45 30.55 29.6 31.3 Q27.7 32.2 24.0 35.0 L21.3 37.2 21.05 37.4 20.7 37.35 19.2 38.0 17.95 39.05 17.75 39.25 17.95 39.75 15.9 41.55 15.8 41.55 15.55 41.65 14.15 42.75 14.0 42.85 13.5 43.2 13.4 43.25 13.1 43.6 13.0 43.4 12.9 41.7 12.7 39.9 12.65 39.1 Q12.65 38.35 12.9 37.65 13.2 36.65 13.85 36.1 14.2 35.8 14.6 35.65 L15.9 34.85 15.85 33.85 15.9 33.1 16.0 32.25 16.15 31.5 Q16.25 31.25 16.95 30.9 17.25 30.7 17.6 30.55" fill="url(#gradient53)" fill-rule="evenodd" stroke="none"/>
      <path d="M38.8 64.3 L34.15 68.55 Q31.8 70.7 29.35 70.5 27.9 70.35 25.5 68.2 23.6 66.35 23.2 65.55 L30.45 65.05 38.8 64.3" fill="url(#gradient54)" fill-rule="evenodd" stroke="none"/>
      <path d="M11.55 67.0 L11.1 68.7 9.15 77.15 8.7 79.15 8.05 83.0 Q7.55 85.7 6.8 86.1 5.95 86.5 5.55 83.95 L4.9 80.25 Q4.65 79.2 4.3 75.4 3.95 71.5 4.1 69.6 4.45 66.1 4.9 63.7 L11.4 64.05 19.2 64.05 17.35 70.35 Q15.25 76.2 13.2 76.05 11.6 75.9 11.45 70.55 L11.55 67.0" fill="url(#gradient55)" fill-rule="evenodd" stroke="none"/>
      <path d="M55.6 -5.25 L54.75 3.95 Q54.35 8.65 52.4 11.1 L52.3 10.9 52.15 10.8 52.0 7.35 51.6 6.05 Q51.1 5.3 49.2 5.15 L46.9 5.4 45.8 5.65 44.95 6.45 43.9 7.8 M41.2 11.75 L41.0 11.8 38.5 12.05 Q35.65 12.35 33.1 15.35 L32.8 15.75 32.6 16.2 31.6 18.05 32.25 18.1 34.25 18.05 35.1 18.2 M81.0 30.55 L81.0 29.8 79.5 29.7 78.45 29.85 78.2 29.9 78.2 30.55 Q77.45 30.4 77.2 30.0 L78.2 29.9 M60.85 4.95 L58.8 5.05 58.05 4.95 57.55 13.8 57.5 15.1 Q57.45 19.65 58.2 22.75 59.55 22.55 60.55 18.1 61.2 15.2 61.35 12.6 L61.1 8.3 Q60.8 6.25 60.85 4.95 M52.0 -5.45 L52.0 2.4 52.0 7.35 M57.15 14.65 L57.5 15.1 M55.0 30.0 L56.6 30.15 M59.0 31.4 L58.95 33.95 Q57.8 42.75 56.15 42.6 55.55 42.55 54.65 38.3 L54.1 35.45 M33.75 34.1 L33.65 33.4 34.4 33.35 Q36.75 33.25 38.3 33.4 L41.55 33.9 44.2 34.45 Q44.15 36.75 42.2 39.15 40.05 42.0 37.2 41.75 35.15 41.55 34.35 38.9 33.9 37.4 33.75 34.55 M19.95 12.15 L18.75 19.1 M14.55 18.75 L14.5 17.85 14.55 16.45 M2.9 20.0 Q2.9 23.95 3.25 25.55 3.45 29.8 4.75 26.0 5.0 25.2 5.6 24.3 L6.65 23.1 6.9 22.85 7.55 27.4 Q8.1 30.4 9.4 31.6 10.85 33.55 11.9 15.2 L12.05 12.85 9.15 13.2 Q7.1 13.5 5.5 13.25 3.1 12.9 2.65 14.25 L2.9 20.0 M14.1 32.75 L14.15 32.0 15.0 32.1 M0.95 41.45 Q0.75 42.35 0.8 44.6 M30.75 28.4 L30.8 29.65 28.85 29.85" fill="none" stroke="#ff0000" stroke-linecap="round" stroke-linejoin="round" stroke-opacity="0.0" stroke-width="1.0"/>
      <path d="M82.55 53.45 Q82.4 56.75 82.55 62.6 L82.45 64.6 82.3 65.3 Q81.85 66.95 80.75 66.85 79.6 66.75 78.8 64.95 77.9 63.1 77.5 59.25 L77.2 53.7 74.1 53.95 73.75 53.95 M82.55 53.45 L82.6 53.0 M82.55 53.45 L85.6 53.25 M18.75 19.1 L18.7 19.2 17.3 26.2 16.8 26.15 Q14.7 23.75 14.55 18.75 M77.2 53.7 L76.95 50.95 M77.2 53.7 L79.75 53.6 82.55 53.45 M65.6 52.2 L65.35 52.2 65.25 53.0 68.3 52.45 M64.05 63.65 L64.55 60.75 65.25 53.0 59.75 53.85 59.55 56.45 59.5 63.2 M59.1 63.2 L59.55 56.45 59.3 56.4 M59.75 53.85 L58.95 53.9 50.25 55.2 50.2 62.4 M59.85 52.2 L59.75 53.85 M45.8 55.7 L50.25 55.2 50.25 52.6" fill="none" stroke="#d6d6d6" stroke-linecap="round" stroke-linejoin="round" stroke-opacity="0.0" stroke-width="1.0"/>
      <path d="M61.65 67.4 Q59.65 67.2 59.5 63.5 L59.55 56.45 58.75 66.85 Q57.05 78.75 53.3 78.4 50.9 78.2 50.4 69.5 50.05 65.0 50.25 55.2 L58.95 53.9 59.75 53.85 65.25 53.0 64.55 60.75 Q63.6 67.55 61.65 67.4" fill="url(#gradient56)" fill-rule="evenodd" stroke="none"/>
    </g>
    <linearGradient gradientTransform="matrix(2.0E-4, -0.0032, 0.0076, 7.0E-4, 11.55, 3.75)" gradientUnits="userSpaceOnUse" id="gradient42" spreadMethod="pad" x1="-819.2" x2="819.2">
      <stop offset="0.0" stop-color="#7cffeb"/>
      <stop offset="1.0" stop-color="#09cdc9" stop-opacity="0.0"/>
    </linearGradient>
    <linearGradient gradientTransform="matrix(5.0E-4, -0.0087, 0.0114, 0.001, 53.25, 1.8)" gradientUnits="userSpaceOnUse" id="gradient43" spreadMethod="pad" x1="-819.2" x2="819.2">
      <stop offset="0.0" stop-color="#7cffeb"/>
      <stop offset="1.0" stop-color="#09cdc9" stop-opacity="0.0"/>
    </linearGradient>
    <linearGradient gradientTransform="matrix(2.0E-4, -0.0036, 0.0083, 7.0E-4, 79.4, 56.95)" gradientUnits="userSpaceOnUse" id="gradient44" spreadMethod="pad" x1="-819.2" x2="819.2">
      <stop offset="0.0" stop-color="#7cffeb"/>
      <stop offset="1.0" stop-color="#09cdc9" stop-opacity="0.0"/>
    </linearGradient>
    <linearGradient gradientTransform="matrix(2.0E-4, -0.004, 0.011, 0.001, 59.7, 12.1)" gradientUnits="userSpaceOnUse" id="gradient45" spreadMethod="pad" x1="-819.2" x2="819.2">
      <stop offset="0.0" stop-color="#7cffeb"/>
      <stop offset="1.0" stop-color="#09cdc9" stop-opacity="0.0"/>
    </linearGradient>
    <linearGradient gradientTransform="matrix(0.0015, -0.0047, -0.0079, -2.0E-4, 69.35, 20.1)" gradientUnits="userSpaceOnUse" id="gradient46" spreadMethod="pad" x1="-819.2" x2="819.2">
      <stop offset="0.0" stop-color="#7cffeb"/>
      <stop offset="1.0" stop-color="#09cdc9" stop-opacity="0.0"/>
    </linearGradient>
    <linearGradient gradientTransform="matrix(-4.0E-4, 0.006, -0.011, -0.001, 44.5, 16.4)" gradientUnits="userSpaceOnUse" id="gradient47" spreadMethod="pad" x1="-819.2" x2="819.2">
      <stop offset="0.0" stop-color="#7cffeb"/>
      <stop offset="1.0" stop-color="#09cdc9" stop-opacity="0.0"/>
    </linearGradient>
    <linearGradient gradientTransform="matrix(2.0E-4, -0.0032, 0.0076, 7.0E-4, 52.15, 32.75)" gradientUnits="userSpaceOnUse" id="gradient48" spreadMethod="pad" x1="-819.2" x2="819.2">
      <stop offset="0.0" stop-color="#7cffeb"/>
      <stop offset="1.0" stop-color="#09cdc9" stop-opacity="0.0"/>
    </linearGradient>
    <linearGradient gradientTransform="matrix(2.0E-4, -0.0032, 0.0076, 7.0E-4, 56.1, 36.3)" gradientUnits="userSpaceOnUse" id="gradient49" spreadMethod="pad" x1="-819.2" x2="819.2">
      <stop offset="0.0" stop-color="#7cffeb"/>
      <stop offset="1.0" stop-color="#09cdc9" stop-opacity="0.0"/>
    </linearGradient>
    <linearGradient gradientTransform="matrix(3.0E-4, -0.0044, 0.0051, 5.0E-4, 38.75, 37.65)" gradientUnits="userSpaceOnUse" id="gradient50" spreadMethod="pad" x1="-819.2" x2="819.2">
      <stop offset="0.0" stop-color="#7cffeb"/>
      <stop offset="1.0" stop-color="#09cdc9" stop-opacity="0.0"/>
    </linearGradient>
    <linearGradient gradientTransform="matrix(4.0E-4, -0.0061, 0.0114, 0.001, 16.5, 16.7)" gradientUnits="userSpaceOnUse" id="gradient51" spreadMethod="pad" x1="-819.2" x2="819.2">
      <stop offset="0.0" stop-color="#7cffeb"/>
      <stop offset="1.0" stop-color="#09cdc9" stop-opacity="0.0"/>
    </linearGradient>
    <linearGradient gradientTransform="matrix(3.0E-4, -0.0056, 0.0116, 0.0011, 7.35, 19.0)" gradientUnits="userSpaceOnUse" id="gradient52" spreadMethod="pad" x1="-819.2" x2="819.2">
      <stop offset="0.0" stop-color="#7cffeb"/>
      <stop offset="1.0" stop-color="#09cdc9" stop-opacity="0.0"/>
    </linearGradient>
    <linearGradient gradientTransform="matrix(0.0015, 0.003, 0.0098, -0.0046, 20.95, 34.45)" gradientUnits="userSpaceOnUse" id="gradient53" spreadMethod="pad" x1="-819.2" x2="819.2">
      <stop offset="0.0" stop-color="#7cffeb"/>
      <stop offset="1.0" stop-color="#09cdc9" stop-opacity="0.0"/>
    </linearGradient>
    <linearGradient gradientTransform="matrix(1.0E-4, -0.0015, 0.0043, 4.0E-4, 30.55, 66.45)" gradientUnits="userSpaceOnUse" id="gradient54" spreadMethod="pad" x1="-819.2" x2="819.2">
      <stop offset="0.0" stop-color="#7cffeb"/>
      <stop offset="1.0" stop-color="#09cdc9" stop-opacity="0.0"/>
    </linearGradient>
    <linearGradient gradientTransform="matrix(4.0E-4, -0.0062, 0.0137, 0.0012, 11.4, 69.5)" gradientUnits="userSpaceOnUse" id="gradient55" spreadMethod="pad" x1="-819.2" x2="819.2">
      <stop offset="0.0" stop-color="#7cffeb"/>
      <stop offset="1.0" stop-color="#09cdc9" stop-opacity="0.0"/>
    </linearGradient>
    <linearGradient gradientTransform="matrix(-0.0017, -0.0086, 0.015, -0.0026, 54.05, 62.25)" gradientUnits="userSpaceOnUse" id="gradient56" spreadMethod="pad" x1="-819.2" x2="819.2">
      <stop offset="0.0" stop-color="#7cffeb"/>
      <stop offset="1.0" stop-color="#09cdc9" stop-opacity="0.0"/>
    </linearGradient>
  </defs>
</svg>
