<?xml version="1.0" encoding="UTF-8" standalone="no"?>
<svg xmlns:xlink="http://www.w3.org/1999/xlink" height="531.5px" width="460.6px" xmlns="http://www.w3.org/2000/svg">
  <g transform="matrix(1.0, 0.0, 0.0, 1.0, 193.65, 334.05)">
    <use height="128.7" transform="matrix(1.4906, 0.0, 0.0, 1.4906, -86.0991, -274.2701)" width="111.95" xlink:href="#shape0"/>
  </g>
  <defs>
    <g id="shape0" transform="matrix(1.0, 0.0, 0.0, 1.0, 55.95, 64.35)">
      <path d="M15.1 13.1 Q17.95 10.25 21.95 10.25 25.95 10.25 28.8 13.1 31.65 15.95 31.65 19.95 31.65 23.95 28.8 26.8 25.95 29.65 21.95 29.65 17.95 29.65 15.1 26.8 12.25 23.95 12.25 19.95 12.25 15.95 15.1 13.1" fill="url(#gradient0)" fill-rule="evenodd" stroke="none"/>
      <path d="M-20.95 26.8 Q-23.8 23.95 -23.8 19.95 -23.8 15.95 -20.95 13.1 -18.1 10.25 -14.1 10.25 -10.1 10.25 -7.25 13.1 -4.4 15.95 -4.4 19.95 -4.4 23.95 -7.25 26.8 -10.1 29.65 -14.1 29.65 -18.1 29.65 -20.95 26.8" fill="url(#gradient1)" fill-rule="evenodd" stroke="none"/>
      <path d="M43.85 28.9 L50.0 34.65 Q48.6 39.9 54.5 47.3 L47.65 45.7 Q36.0 44.8 32.4 20.5 L33.4 20.3 34.9 20.0 35.65 19.95 35.85 19.95 35.95 19.95 38.1 19.45 38.2 19.4 38.35 19.4 41.1 18.7 Q42.15 24.05 43.85 28.9" fill="#41b8b1" fill-rule="evenodd" stroke="none"/>
      <path d="M43.85 28.9 Q42.15 24.05 41.1 18.7 L38.35 19.4 38.2 19.4 38.1 19.45 35.95 19.95 35.85 19.95 35.65 19.95 34.9 20.0 33.4 20.3 32.4 20.5 Q36.0 44.8 47.65 45.7 L54.5 47.3 Q48.6 39.9 50.0 34.65 L43.85 28.9 Z" fill="none" stroke="#ffffff" stroke-linecap="round" stroke-linejoin="round" stroke-opacity="0.4" stroke-width="3.0"/>
      <path d="M2.7 3.15 Q19.25 3.9 29.8 9.75 34.2 12.2 36.3 20.5 39.15 31.7 37.85 53.5 38.5 57.7 31.25 60.05 24.95 62.05 12.7 62.65 5.35 62.95 -4.15 62.8 -17.75 62.4 -25.8 60.55 -36.65 58.0 -37.55 52.7 -43.1 -1.85 2.7 3.15 M30.05 50.65 L30.25 50.4 30.2 50.4 30.05 50.65" fill="#cafdff" fill-rule="evenodd" stroke="none"/>
      <path d="M30.05 50.65 L30.2 50.4 30.25 50.4 30.05 50.65" fill="#4cd5cd" fill-rule="evenodd" stroke="none"/>
      <path d="M2.7 3.15 Q-43.1 -1.85 -37.55 52.7 -36.65 58.0 -25.8 60.55 -17.75 62.4 -4.15 62.8 5.35 62.95 12.7 62.65 24.95 62.05 31.25 60.05 38.5 57.7 37.85 53.5 39.15 31.7 36.3 20.5 34.2 12.2 29.8 9.75 19.25 3.9 2.7 3.15 Z" fill="none" stroke="#ffffff" stroke-linecap="round" stroke-linejoin="round" stroke-opacity="0.4" stroke-width="3.0"/>
      <path d="M0.6 -28.3 L7.8 -28.35 10.7 -28.4 14.55 -28.55 16.9 -28.55 18.55 -27.65 18.65 -27.55 14.3 -27.5 -0.3 -27.2 -2.1 -27.8 Q-9.35 -29.8 -15.45 -29.6 L-16.35 -29.5 Q-20.5 -29.35 -24.1 -28.1 L-24.45 -27.95 -26.5 -27.15 Q-29.8 -25.85 -32.65 -23.75 -29.8 -25.85 -26.5 -27.15 L-24.45 -27.95 -24.1 -28.1 Q-20.5 -29.35 -16.35 -29.5 L-15.45 -29.6 Q-9.35 -29.8 -2.1 -27.8 L-0.3 -27.2 -0.15 -26.1 0.45 -20.2 Q0.4 -18.95 0.6 -18.75 L-1.05 -19.25 -9.7 -21.65 -22.1 -20.9 Q-28.1 -19.15 -32.7 -16.05 L-36.1 -13.6 -36.95 -12.95 -38.2 -11.7 -37.75 -14.5 Q-37.0 -17.8 -35.35 -20.25 L-34.35 -21.7 Q-33.7 -22.85 -32.65 -23.75 -30.1 -25.85 -27.05 -27.2 L-24.6 -28.15 -24.1 -28.4 Q-20.65 -29.65 -16.6 -29.95 L-15.5 -30.0 -14.75 -30.05 Q-8.5 -30.4 -1.4 -28.4 L0.6 -28.3" fill="#7dd8d3" fill-rule="evenodd" stroke="none"/>
      <path d="M16.9 -28.55 L14.55 -28.55 10.7 -28.4 7.8 -28.35 0.6 -28.3 Q-1.4 -30.85 -4.35 -41.65 L-4.9 -43.5 -3.85 -37.7 -3.6 -37.1 -2.45 -32.1 -1.8 -29.75 -1.4 -28.4 Q-8.5 -30.4 -14.75 -30.05 L-15.5 -30.0 -17.05 -36.1 -14.45 -31.7 Q-17.5 -41.15 -19.05 -52.75 -17.8 -53.75 -16.35 -54.45 L-12.1 -36.85 -14.85 -55.3 Q-10.8 -57.55 -6.2 -58.6 L-6.1 -58.25 Q-2.25 -33.65 2.35 -39.3 4.5 -31.65 6.2 -33.05 L7.4 -54.95 Q8.9 -43.8 11.45 -37.85 L14.1 -49.55 Q14.05 -44.25 17.0 -35.35 18.55 -38.45 21.35 -49.5 20.8 -39.0 18.7 -28.15 18.5 -28.0 18.55 -27.65 L16.9 -28.55 M-16.6 -29.95 Q-20.65 -29.65 -24.1 -28.4 L-24.6 -28.15 -27.05 -27.2 Q-30.1 -25.85 -32.65 -23.75 -33.7 -22.85 -34.35 -21.7 -36.65 -22.85 -38.95 -25.2 -37.4 -22.15 -35.35 -20.25 -37.0 -17.8 -37.75 -14.5 L-38.2 -11.7 Q-40.8 -9.2 -41.75 -6.4 -41.75 -12.1 -41.2 -18.15 L-39.8 -17.65 -41.2 -18.9 -40.7 -23.95 -40.25 -26.9 Q-39.0 -34.05 -36.2 -36.15 L-36.1 -36.1 -35.45 -35.2 Q-33.85 -33.3 -31.55 -29.9 L-34.15 -36.7 Q-33.4 -41.5 -29.8 -44.7 L-29.5 -44.95 -24.6 -35.0 -24.55 -35.75 -24.55 -36.6 Q-25.3 -39.35 -27.95 -45.0 -25.1 -48.35 -21.85 -50.85 -19.85 -42.75 -16.9 -36.85 -20.2 -41.05 -22.7 -46.7 -20.25 -37.15 -16.6 -29.95 M8.3 -38.3 L7.8 -28.35 8.3 -38.3 M11.2 -34.7 L10.7 -28.4 11.2 -34.7 M-25.15 -33.15 L-29.8 -44.7 -25.15 -33.15" fill="#7edeb0" fill-rule="evenodd" stroke="none"/>
      <path d="M0.6 -28.3 L-1.4 -28.4 -1.8 -29.75 -2.45 -32.1 -3.6 -37.1 -3.85 -37.7 -4.9 -43.5 -4.35 -41.65 Q-1.4 -30.85 0.6 -28.3 M-15.5 -30.0 L-16.6 -29.95 Q-20.25 -37.15 -22.7 -46.7 -20.2 -41.05 -16.9 -36.85 -19.85 -42.75 -21.85 -50.85 -25.1 -48.35 -27.95 -45.0 -25.3 -39.35 -24.55 -36.6 L-24.55 -35.75 -24.6 -35.0 -29.5 -44.95 -29.8 -44.7 Q-33.4 -41.5 -34.15 -36.7 L-31.55 -29.9 Q-33.85 -33.3 -35.45 -35.2 L-36.1 -36.1 -36.2 -36.15 Q-39.0 -34.05 -40.25 -26.9 L-40.7 -23.95 -41.2 -18.9 -42.0 -19.7 -41.2 -18.9 -39.8 -17.65 -41.2 -18.15 Q-41.75 -12.1 -41.75 -6.4 L-42.25 -4.2 Q-44.55 -11.95 -44.5 -19.45 L-42.0 -19.7 -44.15 -21.75 Q-43.95 -24.45 -43.3 -26.75 -42.4 -30.8 -40.95 -33.9 L-43.5 -35.85 -40.05 -35.95 Q-38.35 -40.0 -35.5 -42.65 L-38.25 -45.5 -34.3 -43.85 Q-24.05 -55.6 -6.15 -62.8 L25.15 -61.55 Q26.85 -52.5 25.4 -43.55 23.8 -35.6 19.1 -28.25 L18.65 -27.55 18.55 -27.65 Q18.5 -28.0 18.7 -28.15 20.8 -39.0 21.35 -49.5 18.55 -38.45 17.0 -35.35 14.05 -44.25 14.1 -49.55 L11.45 -37.85 Q8.9 -43.8 7.4 -54.95 L6.2 -33.05 Q4.5 -31.65 2.35 -39.3 -2.25 -33.65 -6.1 -58.25 L-6.2 -58.6 Q-10.8 -57.55 -14.85 -55.3 L-12.1 -36.85 -16.35 -54.45 Q-17.8 -53.75 -19.05 -52.75 -17.5 -41.15 -14.45 -31.7 L-17.05 -36.1 -15.5 -30.0 M-44.5 -19.45 L-41.2 -18.15 -44.5 -19.45 M-6.15 -62.8 L-6.1 -61.3 -6.2 -58.6 -6.1 -61.3 -6.15 -62.8 M-27.0 -42.1 L-24.55 -36.6 -27.0 -42.1 M-3.85 -37.7 L-4.35 -41.65 -3.85 -37.7 M-34.35 -21.7 L-35.35 -20.25 Q-37.4 -22.15 -38.95 -25.2 -36.65 -22.85 -34.35 -21.7" fill="#8ef9c6" fill-rule="evenodd" stroke="none"/>
      <path d="M-0.3 -27.2 L14.3 -27.5 Q12.7 -23.95 4.15 -19.05 L2.35 -18.9 2.25 -18.9 1.4 -19.0 1.45 -18.75 0.6 -18.75 Q0.4 -18.95 0.45 -20.2 L-0.15 -26.1 -0.3 -27.2 M18.65 -27.55 L19.85 -27.55 19.65 -24.2 19.4 -20.05 17.05 -19.95 Q15.9 -21.8 16.0 -23.65 16.5 -25.25 18.5 -27.1 L18.75 -27.25 18.65 -27.55 M-40.9 1.7 L-41.05 1.7 -41.2 1.7 -41.6 1.65 Q-42.65 -1.5 -42.25 -4.2 L-41.75 -6.4 Q-40.8 -9.2 -38.2 -11.7 L-36.95 -12.95 -36.1 -13.6 -32.7 -16.05 Q-28.1 -19.15 -22.1 -20.9 L-9.7 -21.65 -1.05 -19.25 Q-8.3 -19.8 -14.75 -18.4 L-17.4 -17.7 Q-19.95 -17.2 -22.1 -16.2 -27.75 -14.15 -32.25 -10.85 L-32.35 -10.75 Q-31.9 -3.95 -38.3 -3.35 L-38.6 -1.75 Q-38.95 0.35 -38.35 2.55 -39.7 1.6 -40.9 1.7 M18.6 -25.0 L18.75 -27.25 18.6 -25.0 M-9.7 -21.65 Q-12.9 -20.55 -14.75 -18.4 -12.9 -20.55 -9.7 -21.65" fill="#85eae3" fill-rule="evenodd" stroke="none"/>
      <path d="M14.3 -27.5 L18.65 -27.55 18.75 -27.25 18.5 -27.1 Q16.5 -25.25 16.0 -23.65 15.9 -21.8 17.05 -19.95 L4.15 -19.05 Q12.7 -23.95 14.3 -27.5" fill="#ffffff" fill-rule="evenodd" stroke="none"/>
      <path d="M19.65 -24.2 Q25.5 -23.55 30.5 -20.8 L25.55 -15.75 18.85 -15.15 17.85 -5.25 -23.25 5.55 -36.8 2.85 -37.9 2.85 -38.35 2.55 Q-38.95 0.35 -38.6 -1.75 L-38.3 -3.35 Q-31.9 -3.95 -32.35 -10.75 L-32.25 -10.85 Q-27.75 -14.15 -22.1 -16.2 -19.95 -17.2 -17.4 -17.7 L-14.75 -18.4 Q-8.3 -19.8 -1.05 -19.25 L0.6 -18.75 1.45 -18.75 2.25 -18.9 2.35 -18.9 4.15 -19.05 17.05 -19.95 19.4 -20.05 19.65 -24.2 M-16.75 -1.5 Q-19.75 -13.05 -14.75 -18.4 -19.75 -13.05 -16.75 -1.5" fill="#4cd5cd" fill-rule="evenodd" stroke="none"/>
      <path d="M1.45 -18.75 L1.4 -19.0 2.25 -18.9 1.45 -18.75" fill="#60d8ae" fill-rule="evenodd" stroke="none"/>
      <path d="M-37.9 2.85 L-38.25 2.8 Q-39.65 1.65 -40.9 1.7 -39.7 1.6 -38.35 2.55 L-37.9 2.85" fill="url(#gradient2)" fill-rule="evenodd" stroke="none"/>
      <path d="M16.9 -28.55 L14.55 -28.55 10.7 -28.4 7.8 -28.35 0.6 -28.3 -1.4 -28.4 Q-8.5 -30.4 -14.75 -30.05 L-15.5 -30.0 -16.6 -29.95 Q-20.65 -29.65 -24.1 -28.4 L-24.6 -28.15 -27.05 -27.2 Q-30.1 -25.85 -32.65 -23.75 -29.8 -25.85 -26.5 -27.15 L-24.45 -27.95 -24.1 -28.1 Q-20.5 -29.35 -16.35 -29.5 L-15.45 -29.6 Q-9.35 -29.8 -2.1 -27.8 L-0.3 -27.2 14.3 -27.5 18.65 -27.55 19.85 -27.55 19.65 -24.2 Q25.5 -23.55 30.5 -20.8 L25.55 -15.75 18.85 -15.15 17.85 -5.25 -23.25 5.55 -36.8 2.85 M-42.25 -4.2 L-41.75 -6.4 Q-40.8 -9.2 -38.2 -11.7 L-36.95 -12.95 -36.1 -13.6 -32.7 -16.05 Q-28.1 -19.15 -22.1 -20.9 L-9.7 -21.65 -1.05 -19.25 0.6 -18.75 1.45 -18.75 2.25 -18.9 2.35 -18.9 4.15 -19.05 17.05 -19.95 19.4 -20.05 19.65 -24.2 M-41.2 -18.15 L-44.5 -19.45 M-14.75 -18.4 Q-19.75 -13.05 -16.75 -1.5 M-0.3 -27.2 L-0.15 -26.1 0.45 -20.2 Q0.4 -18.95 0.6 -18.75 M-6.2 -58.6 L-6.1 -61.3 -6.15 -62.8 M-6.2 -58.6 L-6.1 -58.25 M-42.0 -19.7 L-41.2 -18.9 -39.8 -17.65 -41.2 -18.15 M-4.35 -41.65 L-3.85 -37.7 -3.6 -37.1 M-35.35 -20.25 L-34.35 -21.7 Q-33.7 -22.85 -32.65 -23.75 M-35.35 -20.25 Q-37.0 -17.8 -37.75 -14.5 L-38.2 -11.7 M-14.75 -18.4 Q-12.9 -20.55 -9.7 -21.65" fill="none" stroke="#2ec1a7" stroke-linecap="round" stroke-linejoin="round" stroke-opacity="0.4" stroke-width="0.7000000000000001"/>
      <path d="M-42.25 -4.2 Q-44.55 -11.95 -44.5 -19.45 L-42.0 -19.7 -44.15 -21.75 Q-43.95 -24.45 -43.3 -26.75 -42.4 -30.8 -40.95 -33.9 L-43.5 -35.85 -40.05 -35.95 Q-38.35 -40.0 -35.5 -42.65 L-38.25 -45.5 -34.3 -43.85 Q-24.05 -55.6 -6.15 -62.8 L25.15 -61.55 Q26.85 -52.5 25.4 -43.55 23.8 -35.6 19.1 -28.25 L18.65 -27.55 18.75 -27.25 18.6 -25.0 M-40.9 1.7 L-41.05 1.7 M-41.6 1.65 Q-42.65 -1.5 -42.25 -4.2 M-38.35 2.55 L-37.9 2.85 M-40.9 1.7 Q-39.7 1.6 -38.35 2.55" fill="none" stroke="#ffffff" stroke-linecap="round" stroke-linejoin="round" stroke-opacity="0.4" stroke-width="3.0"/>
      <path d="M10.7 -28.4 L11.2 -34.7 M7.8 -28.35 L8.3 -38.3 M-24.55 -36.6 L-27.0 -42.1 M-29.8 -44.7 L-25.15 -33.15" fill="none" stroke="#63e2cb" stroke-linecap="round" stroke-linejoin="round" stroke-opacity="0.4" stroke-width="0.7000000000000001"/>
      <path d="M31.8 -26.6 L32.1 -26.35 32.85 -25.7 Q39.25 -19.85 43.6 -10.1 L43.95 -8.8 Q45.4 -2.6 45.45 3.45 L45.15 8.9 44.8 8.95 44.6 8.95 44.5 9.0 43.35 3.4 Q40.4 -8.25 33.25 -19.95 L32.85 -20.6 32.8 -20.9 32.8 -21.1 31.8 -26.6 32.8 -21.1 Q32.75 -20.85 32.85 -20.6 L32.95 -19.9 Q33.7 -15.05 34.05 -10.45 L34.1 -9.55 Q29.5 -21.1 24.05 -21.25 L22.45 -21.05 Q15.95 -19.3 11.6 -16.5 7.25 -13.75 5.95 -12.15 L4.55 -10.6 4.25 -10.25 4.2 -5.55 4.2 -4.95 Q3.35 -6.9 1.45 -7.0 -0.75 -7.1 -4.35 -4.75 -10.85 0.1 -20.95 1.3 L-21.25 1.3 -21.25 1.1 -21.25 1.0 Q-18.45 0.15 -15.85 -1.05 L-14.35 -1.75 -13.15 -2.4 -10.35 -4.05 -9.9 -4.35 -8.55 -5.25 -6.5 -6.65 -1.3 -10.2 1.2 -11.8 2.8 -12.75 4.35 -13.8 6.3 -14.95 10.9 -17.65 12.8 -18.75 19.05 -21.95 19.35 -22.1 21.9 -23.3 21.9 -23.35 26.9 -25.25 Q29.5 -26.25 31.75 -26.65 L31.8 -26.6 M4.35 -13.8 L4.35 -13.6 4.25 -10.25 4.35 -13.6 4.35 -13.8 M25.1 12.3 Q28.65 11.35 31.35 9.9 L31.45 9.85 Q32.7 8.0 33.5 5.75 L34.25 3.4 34.1 4.85 33.5 9.75 33.5 9.95 33.25 11.2 33.15 11.2 31.65 11.45 29.3 11.75 27.0 12.0 25.65 12.25 25.1 12.3" fill="#ffffff" fill-rule="evenodd" stroke="none"/>
      <path d="M-35.6 24.5 L-35.3 25.6 Q-37.45 28.35 -39.3 32.5 -39.9 35.6 -40.15 39.5 -40.45 43.35 -41.3 44.05 -46.8 44.15 -48.95 50.9 -51.15 57.55 -52.5 55.6 -56.35 42.6 -52.55 35.7 -48.8 28.8 -45.6 24.05 -43.4 19.4 -35.6 24.5 M-37.4 2.8 L-37.1 2.8 -26.15 2.15 -21.25 1.0 -21.25 1.1 -21.25 1.3 -20.95 1.3 Q-10.85 0.1 -4.35 -4.75 -0.75 -7.1 1.45 -7.0 3.35 -6.9 4.2 -4.95 L4.2 -5.55 4.25 -10.25 4.55 -10.6 5.95 -12.15 Q7.25 -13.75 11.6 -16.5 15.95 -19.3 22.45 -21.05 L24.05 -21.25 Q29.5 -21.1 34.1 -9.55 L34.2 -8.9 34.35 -1.1 34.65 0.45 35.2 3.3 36.6 10.0 36.7 10.65 33.55 11.2 33.45 11.2 33.25 11.2 33.5 9.95 33.5 9.75 34.1 4.85 34.25 3.4 33.5 5.75 Q32.7 8.0 31.45 9.85 L31.35 9.9 Q28.65 11.35 25.1 12.3 L24.8 12.3 23.5 12.5 15.65 13.2 15.1 13.25 12.45 13.5 10.6 13.65 7.25 13.85 6.7 13.9 4.95 13.9 4.65 13.9 4.45 9.6 Q4.15 4.75 4.15 -0.6 L4.2 -4.95 4.15 -0.6 Q4.15 4.75 4.45 9.6 L4.65 13.9 3.95 13.95 -0.8 14.0 -16.15 13.3 -18.5 13.05 -21.45 12.7 -21.45 12.65 -21.6 9.3 Q-21.7 5.5 -21.25 1.3 -21.7 5.5 -21.6 9.3 L-21.45 12.65 -21.45 12.7 -24.25 12.3 -34.65 9.5 -34.65 9.15 Q-34.85 6.9 -35.8 5.05 L-36.4 4.1 -37.4 2.85 -37.4 2.8 M34.3 2.35 L34.35 -1.1 34.3 2.35 M-34.8 11.9 L-24.4 14.7 -21.15 15.15 -20.85 15.2 -18.8 15.45 -15.75 15.75 Q-6.1 16.65 4.9 16.3 L5.2 16.3 5.95 16.3 6.65 16.25 10.0 16.05 11.8 15.9 14.4 15.65 14.95 15.6 22.7 14.8 24.0 14.7 26.15 14.4 28.4 14.15 30.75 13.8 32.25 13.6 32.85 13.55 33.45 13.4 36.45 12.85 37.25 12.75 Q37.65 13.65 38.5 14.35 L39.05 14.9 37.65 15.2 36.65 15.3 33.45 15.95 32.6 16.05 32.5 16.05 32.25 16.1 31.0 16.25 28.65 16.6 26.35 16.85 24.25 17.15 22.95 17.35 15.15 18.05 14.6 18.15 12.0 18.4 10.15 18.5 6.85 18.7 6.15 18.75 5.45 18.75 5.15 18.75 4.4 18.8 -0.9 18.85 -16.25 18.15 -18.6 17.9 -20.75 17.6 -24.25 17.15 -35.35 14.15 -35.3 14.1 -35.2 13.75 -34.95 12.75 -34.8 11.9 M4.9 16.3 L5.15 18.75 4.9 16.3 M32.85 13.55 L32.85 13.6 32.25 16.1 32.85 13.6 32.85 13.55 M-21.15 15.15 L-20.75 17.6 -21.15 15.15" fill="#78cdd3" fill-rule="evenodd" stroke="none"/>
      <path d="M44.8 11.1 L44.8 11.15 44.2 13.7 43.7 13.75 40.35 14.65 40.3 14.7 40.15 14.7 40.05 14.65 39.95 14.7 39.3 14.85 39.05 14.9 38.5 14.35 Q37.65 13.65 37.25 12.75 L37.4 12.75 37.45 12.75 39.7 12.25 39.8 12.2 39.95 12.2 43.45 11.3 44.8 11.1 M32.85 -20.6 L33.25 -19.95 Q40.4 -8.25 43.35 3.4 L44.5 9.0 41.0 9.85 40.9 9.85 40.8 9.9 40.1 10.0 38.45 10.35 37.45 10.45 37.0 10.6 36.7 10.65 36.6 10.0 35.2 3.3 34.65 0.45 34.35 -1.1 34.2 -8.9 34.1 -9.55 34.05 -10.45 Q33.7 -15.05 32.95 -19.9 L32.85 -20.6" fill="#98e3e7" fill-rule="evenodd" stroke="none"/>
      <path d="M42.6 18.3 L42.5 18.3 42.35 18.35 41.8 18.5 41.1 18.7 38.35 19.4 38.2 19.4 38.1 19.45 35.95 19.95 35.85 19.95 35.65 19.95 34.9 20.0 33.4 20.3 32.4 20.5 30.85 20.75 29.35 20.95 27.05 21.3 24.8 21.6 22.75 21.9 21.45 22.0 13.9 22.75 13.3 22.8 10.8 23.1 9.05 23.2 5.75 23.4 1.4 23.55 -16.5 22.95 -19.2 22.65 -24.7 21.85 -36.15 19.1 Q-36.1 16.7 -35.45 14.45 L-35.35 14.15 -24.25 17.15 -20.75 17.6 -18.6 17.9 -16.25 18.15 -0.9 18.85 4.4 18.8 5.15 18.75 5.45 18.75 6.15 18.75 6.85 18.7 10.15 18.5 12.0 18.4 14.6 18.15 15.15 18.05 22.95 17.35 24.25 17.15 26.35 16.85 28.65 16.6 31.0 16.25 32.25 16.1 32.5 16.05 32.6 16.05 33.45 15.95 36.65 15.3 37.65 15.2 39.05 14.9 37.85 15.2 Q34.4 16.1 33.45 16.65 32.75 17.0 33.45 17.25 L34.85 17.35 35.05 17.35 42.7 18.25 42.6 18.3 M-45.4 18.05 L-50.5 17.65 Q-51.95 10.05 -50.5 2.4 L-42.05 1.9 -42.55 2.15 -42.8 2.4 -42.85 2.4 -44.45 4.0 Q-45.9 6.15 -46.05 9.05 L-46.15 10.05 Q-46.15 11.7 -45.8 13.1 L-45.6 13.85 -45.4 18.05 M4.65 13.9 L4.95 13.9 6.7 13.9 7.25 13.85 10.6 13.65 12.45 13.5 15.1 13.25 15.65 13.2 23.5 12.5 24.8 12.3 25.1 12.3 25.65 12.25 27.0 12.0 29.3 11.75 31.65 11.45 33.15 11.2 33.25 11.2 33.45 11.2 33.55 11.2 36.7 10.65 36.55 10.75 Q33.75 12.1 35.05 12.35 L37.25 12.75 36.45 12.85 33.45 13.4 32.85 13.55 32.25 13.6 30.75 13.8 28.4 14.15 26.15 14.4 24.0 14.7 22.7 14.8 14.95 15.6 14.4 15.65 11.8 15.9 10.0 16.05 6.65 16.25 5.95 16.3 5.2 16.3 4.9 16.3 Q-6.1 16.65 -15.75 15.75 L-18.8 15.45 -20.85 15.2 -21.15 15.15 -24.4 14.7 -34.8 11.9 -34.7 10.15 -34.65 9.5 -24.25 12.3 -21.45 12.7 -18.5 13.05 -16.15 13.3 -0.8 14.0 3.95 13.95 4.65 13.9" fill="#4cd5cd" fill-rule="evenodd" stroke="none"/>
      <path d="M-42.05 1.9 L-40.75 1.6 -40.35 1.55 -40.2 1.55 Q-38.7 1.6 -37.4 2.8 L-37.4 2.85 -36.4 4.1 -35.8 5.05 Q-34.85 6.9 -34.65 9.15 L-34.65 9.5 -34.7 10.15 -34.8 11.9 -34.95 12.75 -35.2 13.75 -35.3 14.1 -35.35 14.15 -35.45 14.45 -36.25 15.95 -36.45 16.2 -36.65 16.55 Q-37.75 17.95 -39.0 18.4 L-39.3 18.5 -39.5 18.55 -40.35 18.7 -40.5 18.7 -41.75 18.5 -42.1 18.4 -42.2 18.35 -43.15 17.7 -43.4 17.5 -44.5 16.1 -45.6 13.85 -45.8 13.1 Q-46.15 11.7 -46.15 10.05 L-46.05 9.05 Q-45.9 6.15 -44.45 4.0 L-42.85 2.4 -42.8 2.4 -42.55 2.15 -42.05 1.9" fill="url(#gradient3)" fill-rule="evenodd" stroke="none"/>
      <path d="M-36.15 19.1 Q-36.25 21.7 -35.6 24.5 -43.4 19.4 -45.6 24.05 L-45.4 18.05 -45.6 13.85 -44.5 16.1 -43.4 17.5 -43.15 17.7 -42.2 18.35 -42.1 18.4 -41.75 18.5 -40.5 18.7 -40.35 18.7 -39.5 18.55 -39.3 18.5 -39.0 18.4 Q-37.75 17.95 -36.65 16.55 L-36.45 16.2 -36.25 15.95 -35.45 14.45 Q-36.1 16.7 -36.15 19.1 M-43.55 18.2 L-43.4 17.5 -43.55 18.2" fill="#41b8b1" fill-rule="evenodd" stroke="none"/>
      <path d="M45.15 8.9 L45.45 8.7 45.5 8.7 45.7 8.75 Q47.25 8.95 47.0 10.1 L46.85 10.65 44.8 11.1 43.45 11.3 39.95 12.2 39.8 12.2 39.7 12.25 37.45 12.75 37.4 12.75 37.25 12.75 35.05 12.35 Q33.75 12.1 36.55 10.75 L36.7 10.65 37.0 10.6 37.45 10.45 38.45 10.35 40.1 10.0 40.8 9.9 40.9 9.85 41.0 9.85 44.5 9.0 44.6 8.95 44.8 8.95 45.15 8.9 M44.2 13.7 L44.35 13.65 44.55 13.6 44.6 13.55 44.6 13.85 Q46.6 15.25 44.25 17.85 L42.9 18.25 42.6 18.3 42.7 18.25 35.05 17.35 34.85 17.35 33.45 17.25 Q32.75 17.0 33.45 16.65 34.4 16.1 37.85 15.2 L39.05 14.9 39.3 14.85 39.95 14.7 40.05 14.65 40.15 14.7 40.3 14.7 40.35 14.65 43.7 13.75 44.2 13.7" fill="#85eae3" fill-rule="evenodd" stroke="none"/>
      <path d="M31.8 -26.6 L32.1 -26.35 32.85 -25.7 Q39.25 -19.85 43.6 -10.1 L43.95 -8.8 Q45.4 -2.6 45.45 3.45 L45.15 8.9 45.45 8.7 45.5 8.7 45.7 8.75 Q47.25 8.95 47.0 10.1 L46.85 10.65 44.8 11.1 44.8 11.15 44.2 13.7 44.35 13.65 44.55 13.6 44.6 13.55 44.6 13.85 Q46.6 15.25 44.25 17.85 L42.9 18.25 42.6 18.3 42.5 18.3 42.35 18.35 41.8 18.5 41.1 18.7 38.35 19.4 38.2 19.4 38.1 19.45 35.95 19.95 35.85 19.95 35.65 19.95 34.9 20.0 33.4 20.3 32.4 20.5 30.85 20.75 29.35 20.95 27.05 21.3 24.8 21.6 22.75 21.9 21.45 22.0 13.9 22.75 13.3 22.8 10.8 23.1 9.05 23.2 5.75 23.4 1.4 23.55 -16.5 22.95 -19.2 22.65 -24.7 21.85 -36.15 19.1 Q-36.25 21.7 -35.6 24.5 L-35.3 25.6 Q-37.45 28.35 -39.3 32.5 -39.9 35.6 -40.15 39.5 -40.45 43.35 -41.3 44.05 -46.8 44.15 -48.95 50.9 -51.15 57.55 -52.5 55.6 -56.35 42.6 -52.55 35.7 -48.8 28.8 -45.6 24.05 L-45.4 18.05 -50.5 17.65 Q-51.95 10.05 -50.5 2.4 L-42.05 1.9 -40.75 1.6 -40.35 1.55 -40.2 1.55 Q-38.7 1.6 -37.4 2.8 L-37.1 2.8 -26.15 2.15 -21.25 1.0 Q-18.45 0.15 -15.85 -1.05 L-14.35 -1.75 -13.15 -2.4 -10.35 -4.05 -9.9 -4.35 -8.55 -5.25 -6.5 -6.65 -1.3 -10.2 1.2 -11.8 2.8 -12.75 4.35 -13.8 6.3 -14.95 10.9 -17.65 12.8 -18.75 19.05 -21.95 19.35 -22.1 21.9 -23.3 21.9 -23.35 26.9 -25.25 Q29.5 -26.25 31.75 -26.65 M-35.45 14.45 Q-36.1 16.7 -36.15 19.1 M-37.4 2.8 L-37.4 2.85 -36.4 4.1 -35.8 5.05 Q-34.85 6.9 -34.65 9.15 L-34.65 9.5 -34.7 10.15 -34.8 11.9 -34.95 12.75 -35.2 13.75 -35.3 14.1 -35.35 14.15 M-35.45 14.45 L-36.25 15.95 -36.45 16.2 -36.65 16.55 Q-37.75 17.95 -39.0 18.4 L-39.3 18.5 -39.5 18.55 -40.35 18.7 -40.5 18.7 -41.75 18.5 -42.1 18.4 -42.2 18.35 -43.15 17.7 -43.4 17.5 -44.5 16.1 -45.6 13.85 -45.4 18.05 M-45.6 13.85 L-45.8 13.1 Q-46.15 11.7 -46.15 10.05 L-46.05 9.05 Q-45.9 6.15 -44.45 4.0 L-42.85 2.4 -42.8 2.4 -42.55 2.15 -42.05 1.9" fill="none" stroke="#ffffff" stroke-linecap="round" stroke-linejoin="round" stroke-opacity="0.4" stroke-width="3.0"/>
      <path d="M31.75 -26.65 L31.8 -26.6 32.8 -21.1 32.8 -20.9 32.85 -20.6 32.95 -19.9 Q33.7 -15.05 34.05 -10.45 L34.1 -9.55 34.2 -8.9 34.35 -1.1 34.3 2.35 M44.5 9.0 L44.6 8.95 44.8 8.95 45.15 8.9 M4.25 -10.25 L4.35 -13.6 4.35 -13.8 M4.25 -10.25 L4.2 -5.55 4.2 -4.95 4.15 -0.6 Q4.15 4.75 4.45 9.6 L4.65 13.9 4.95 13.9 6.7 13.9 7.25 13.85 10.6 13.65 12.45 13.5 15.1 13.25 15.65 13.2 23.5 12.5 24.8 12.3 25.1 12.3 25.65 12.25 27.0 12.0 29.3 11.75 31.65 11.45 33.15 11.2 33.25 11.2 33.45 11.2 33.55 11.2 36.7 10.65 37.0 10.6 37.45 10.45 38.45 10.35 40.1 10.0 40.8 9.9 40.9 9.85 41.0 9.85 44.5 9.0 M34.25 3.4 L34.1 4.85 33.5 9.75 33.5 9.95 33.25 11.2 M-21.25 1.3 Q-21.7 5.5 -21.6 9.3 L-21.45 12.65 -21.45 12.7 -18.5 13.05 -16.15 13.3 -0.8 14.0 3.95 13.95 4.65 13.9 M37.4 12.75 L37.45 12.75 39.7 12.25 39.8 12.2 39.95 12.2 43.45 11.3 44.8 11.1 M39.05 14.9 L39.3 14.85 39.95 14.7 40.05 14.65 40.15 14.7 40.3 14.7 40.35 14.65 43.7 13.75 44.2 13.7 M-34.8 11.9 L-24.4 14.7 -21.15 15.15 -20.85 15.2 -18.8 15.45 -15.75 15.75 Q-6.1 16.65 4.9 16.3 L5.2 16.3 5.95 16.3 6.65 16.25 10.0 16.05 11.8 15.9 14.4 15.65 14.95 15.6 22.7 14.8 24.0 14.7 26.15 14.4 28.4 14.15 30.75 13.8 32.25 13.6 32.85 13.55 33.45 13.4 36.45 12.85 37.25 12.75 M39.05 14.9 L37.65 15.2 36.65 15.3 33.45 15.95 32.6 16.05 32.5 16.05 32.25 16.1 31.0 16.25 28.65 16.6 26.35 16.85 24.25 17.15 22.95 17.35 15.15 18.05 14.6 18.15 12.0 18.4 10.15 18.5 6.85 18.7 6.15 18.75 5.45 18.75 5.15 18.75 4.4 18.8 -0.9 18.85 -16.25 18.15 -18.6 17.9 -20.75 17.6 -24.25 17.15 -35.35 14.15 -35.45 14.45 M32.25 16.1 L32.85 13.6 32.85 13.55 M5.15 18.75 L4.9 16.3 M-21.25 1.3 L-21.25 1.1 -21.25 1.0 M-34.65 9.5 L-24.25 12.3 -21.45 12.7 M-43.4 17.5 L-43.55 18.2 M-20.75 17.6 L-21.15 15.15" fill="none" stroke="#2ec1a7" stroke-linecap="round" stroke-linejoin="round" stroke-opacity="0.4" stroke-width="0.7000000000000001"/>
      <path d="M-9.65 25.05 Q-7.3 24.1 0.15 26.45 L0.8 26.65 Q6.95 28.55 11.95 28.6 L12.5 28.6 13.3 28.55 21.8 28.15 22.8 27.95 23.4 27.8 25.15 27.35 Q24.5 29.6 23.35 31.7 L19.75 31.1 Q18.6 31.95 16.0 32.4 13.45 31.95 12.1 31.1 L11.95 31.15 9.2 31.4 Q4.7 29.0 1.4 29.55 -6.35 25.8 -8.7 28.65 L-9.65 25.05 M26.55 46.35 L26.45 46.35 25.2 46.7 Q18.5 44.6 11.95 47.7 L10.45 48.45 7.9 50.1 Q6.35 49.45 5.0 47.8 -0.15 57.5 -5.0 47.2 -7.8 51.05 -9.75 49.5 L-11.7 45.9 -11.75 45.65 -11.8 45.6 -12.55 44.15 -12.65 43.95 -12.65 43.25 -12.6 42.9 Q-12.35 40.2 -10.95 37.65 L-10.9 37.5 Q-10.65 36.85 -9.9 36.65 -12.05 39.7 -11.7 42.5 -9.5 49.85 -4.4 44.6 L-4.3 44.55 Q-0.75 52.85 4.9 45.6 7.55 47.45 11.95 45.45 L12.9 44.95 Q13.35 43.65 13.1 43.2 14.65 45.6 17.05 43.1 L16.35 40.7 Q14.7 38.95 12.95 39.5 13.3 40.5 13.0 42.25 12.65 40.4 11.95 39.6 L11.7 39.35 Q8.0 38.4 6.5 39.7 5.95 39.65 5.3 43.0 L5.2 43.4 Q3.95 40.4 2.15 38.75 3.35 39.0 4.45 39.6 7.3 37.7 11.95 38.05 L16.0 38.75 Q17.5 38.1 18.9 38.05 19.65 36.8 21.45 36.5 25.15 36.45 26.65 38.75 27.05 42.4 26.75 44.6 L26.6 46.25 26.55 46.35 M21.7 29.75 L19.75 31.1 21.7 29.75 M5.1 41.25 L5.3 43.0 5.1 41.25 M18.9 38.05 Q20.9 38.0 23.0 39.4 20.9 38.0 18.9 38.05" fill="#e0fffa" fill-rule="evenodd" stroke="none"/>
      <path d="M25.15 27.35 Q26.55 26.35 27.35 27.9 28.65 30.45 28.2 39.85 28.3 42.5 27.6 44.5 L27.35 45.05 27.25 45.25 26.65 46.25 26.55 46.35 26.6 46.25 26.75 44.6 Q27.05 42.4 26.65 38.75 25.15 36.45 21.45 36.5 19.7 33.25 11.95 33.95 L8.1 34.5 6.3 34.3 Q0.85 33.75 -3.45 35.85 L-5.65 37.05 -7.1 36.65 -8.1 36.55 -9.9 36.65 Q-10.65 36.85 -10.9 37.5 L-10.95 37.65 Q-12.35 40.2 -12.6 42.9 L-12.65 43.25 -12.65 43.95 Q-17.1 28.7 -9.65 25.05 L-8.7 28.65 -8.1 30.0 Q-6.65 32.9 -4.4 33.2 L0.0 31.1 6.1 31.5 9.2 31.4 11.95 31.15 12.1 31.1 Q13.45 31.95 16.0 32.4 18.6 31.95 19.75 31.1 L23.35 31.7 Q24.5 29.6 25.15 27.35" fill="#4cd5cd" fill-rule="evenodd" stroke="none"/>
      <path d="M10.3 35.1 L11.1 35.25 11.95 35.5 12.15 35.6 12.95 35.9 Q15.0 36.7 14.9 37.3 14.65 37.65 13.3 37.65 L11.95 37.4 8.9 37.1 2.45 37.55 0.35 37.6 Q-2.55 37.55 -2.15 36.8 -1.7 35.95 1.0 35.35 L7.0 34.75 10.3 35.1 M13.05 35.6 L12.85 35.1 Q12.85 34.85 13.8 34.6 L15.75 34.35 Q17.35 34.35 18.3 35.15 19.0 35.8 19.0 36.4 L18.15 36.9 16.3 37.05 16.25 37.05 14.45 36.2 13.05 35.6" fill="#ffa296" fill-rule="evenodd" stroke="none"/>
      <path d="M10.3 35.1 L7.0 34.75 1.0 35.35 Q-1.7 35.95 -2.15 36.8 -2.55 37.55 0.35 37.6 L2.45 37.55 8.9 37.1 11.95 37.4 13.3 37.65 Q14.65 37.65 14.9 37.3 15.0 36.7 12.95 35.9 L12.15 35.6 11.95 35.5 11.1 35.25 10.3 35.1 M14.45 36.2 L16.25 37.05 16.3 37.05 18.15 36.9 19.0 36.4 Q19.0 35.8 18.3 35.15 17.35 34.35 15.75 34.35 L13.8 34.6 Q12.85 34.85 12.85 35.1 L13.05 35.6 14.45 36.2 M8.1 34.5 L11.95 35.25 13.05 35.6 11.95 35.25 8.1 34.5 11.95 33.95 Q19.7 33.25 21.45 36.5 19.65 36.8 18.9 38.05 17.5 38.1 16.0 38.75 L11.95 38.05 Q7.3 37.7 4.45 39.6 3.35 39.0 2.15 38.75 -0.65 38.2 -4.05 39.25 -3.9 37.75 -5.65 37.05 L-3.45 35.85 Q0.85 33.75 6.3 34.3 L8.1 34.5" fill="#e09c93" fill-rule="evenodd" stroke="none"/>
      <path d="M-8.7 28.65 Q-6.35 25.8 1.4 29.55 4.7 29.0 9.2 31.4 L6.1 31.5 0.0 31.1 -4.4 33.2 Q-6.65 32.9 -8.1 30.0 L-8.7 28.65 M-5.65 37.05 Q-3.9 37.75 -4.05 39.25 -0.65 38.2 2.15 38.75 3.95 40.4 5.2 43.4 L5.3 43.0 Q5.95 39.65 6.5 39.7 8.0 38.4 11.7 39.35 L11.95 39.6 Q12.65 40.4 13.0 42.25 13.3 40.5 12.95 39.5 14.7 38.95 16.35 40.7 L17.05 43.1 Q14.65 45.6 13.1 43.2 13.35 43.65 12.9 44.95 L11.95 45.45 Q7.55 47.45 4.9 45.6 -0.75 52.85 -4.3 44.55 L-4.4 44.6 Q-9.5 49.85 -11.7 42.5 -12.05 39.7 -9.9 36.65 L-8.1 36.55 -7.1 36.65 -5.65 37.05 M1.5 30.1 L0.0 31.1 1.5 30.1 M4.9 45.3 Q5.3 44.35 5.3 43.0 5.3 44.35 4.9 45.3 M-6.1 30.25 L-6.35 30.0 -7.3 28.4 -6.35 30.0 -6.1 30.25 -6.1 28.4 -6.1 30.25 -6.1 30.3 -5.0 31.35 -6.1 30.3 -6.1 30.25 M-5.85 31.7 L-6.1 30.3 -5.85 31.7 M-4.05 40.85 L-4.05 39.25 -4.05 40.85 M-4.25 43.25 L-4.4 44.6 -4.25 43.25" fill="#ffffff" fill-rule="evenodd" stroke="none"/>
      <path d="M7.9 50.1 Q-4.15 57.25 -9.75 49.5 -7.8 51.05 -5.0 47.2 -0.15 57.5 5.0 47.8 6.35 49.45 7.9 50.1" fill="#ffd0ca" fill-rule="evenodd" stroke="none"/>
      <path d="M-9.65 25.05 Q-7.3 24.1 0.15 26.45 L0.8 26.65 Q6.95 28.55 11.95 28.6 L12.5 28.6 13.3 28.55 21.8 28.15 22.8 27.95 23.4 27.8 25.15 27.35 Q26.55 26.35 27.35 27.9 28.65 30.45 28.2 39.85 28.3 42.5 27.6 44.5 L27.35 45.05 27.25 45.25 26.65 46.25 26.55 46.35 26.45 46.35 25.2 46.7 Q18.5 44.6 11.95 47.7 L10.45 48.45 7.9 50.1 Q-4.15 57.25 -9.75 49.5 -10.85 48.6 -11.7 45.9 L-11.75 45.65 -11.8 45.6 -12.55 44.15 -12.65 43.95 Q-17.1 28.7 -9.65 25.05 L-8.7 28.65 -8.1 30.0 Q-6.65 32.9 -4.4 33.2 L0.0 31.1 1.5 30.1 M9.2 31.4 L11.95 31.15 12.1 31.1 Q13.45 31.95 16.0 32.4 18.6 31.95 19.75 31.1 L21.7 29.75 M14.45 36.2 L13.05 35.6 11.95 35.25 8.1 34.5 6.3 34.3 Q0.85 33.75 -3.45 35.85 L-5.65 37.05 Q-3.9 37.75 -4.05 39.25 -0.65 38.2 2.15 38.75 3.35 39.0 4.45 39.6 7.3 37.7 11.95 38.05 L16.0 38.75 Q17.5 38.1 18.9 38.05 19.65 36.8 21.45 36.5 19.7 33.25 11.95 33.95 L8.1 34.5 M9.2 31.4 L6.1 31.5 0.0 31.1 M5.3 43.0 L5.1 41.25 M5.3 43.0 Q5.3 44.35 4.9 45.3 M25.15 27.35 Q24.5 29.6 23.35 31.7 L19.75 31.1 M21.45 36.5 Q25.15 36.45 26.65 38.75 27.05 42.4 26.75 44.6 L26.6 46.25 26.55 46.35 M23.0 39.4 Q20.9 38.0 18.9 38.05 M-6.1 28.4 L-6.1 30.25 -6.1 30.3 -5.0 31.35 M-7.3 28.4 L-6.35 30.0 -6.1 30.25 M-9.9 36.65 L-8.1 36.55 -7.1 36.65 -5.65 37.05 M-6.1 30.3 L-5.85 31.7 M-12.65 43.95 L-12.65 43.25 -12.6 42.9 Q-12.35 40.2 -10.95 37.65 L-10.9 37.5 Q-10.65 36.85 -9.9 36.65 M-4.4 44.6 L-4.25 43.25 M-4.05 39.25 L-4.05 40.85" fill="none" stroke="#2ec1a7" stroke-linecap="round" stroke-linejoin="round" stroke-opacity="0.4" stroke-width="0.7000000000000001"/>
    </g>
    <radialGradient cx="0" cy="0" gradientTransform="matrix(0.013, 0.0, 0.0, 0.013, 21.95, 19.95)" gradientUnits="userSpaceOnUse" id="gradient0" r="819.2" spreadMethod="pad">
      <stop offset="0.0" stop-color="#91ffcf"/>
      <stop offset="0.8392156862745098" stop-color="#ffffff" stop-opacity="0.0"/>
    </radialGradient>
    <radialGradient cx="0" cy="0" gradientTransform="matrix(0.013, 0.0, 0.0, 0.013, -14.1, 19.95)" gradientUnits="userSpaceOnUse" id="gradient1" r="819.2" spreadMethod="pad">
      <stop offset="0.0" stop-color="#91ffcf"/>
      <stop offset="0.8392156862745098" stop-color="#ffffff" stop-opacity="0.0"/>
    </radialGradient>
    <radialGradient cx="0" cy="0" gradientTransform="matrix(0.0069, 1.0E-4, -8.0E-4, 0.0113, -42.25, 4.85)" gradientUnits="userSpaceOnUse" id="gradient2" r="819.2" spreadMethod="pad">
      <stop offset="0.0" stop-color="#8ef9c6"/>
      <stop offset="1.0" stop-color="#5bcba3"/>
    </radialGradient>
    <radialGradient cx="0" cy="0" gradientTransform="matrix(0.0069, 1.0E-4, -1.0E-4, 0.0113, -42.35, 4.85)" gradientUnits="userSpaceOnUse" id="gradient3" r="819.2" spreadMethod="pad">
      <stop offset="0.0" stop-color="#8ef9c6"/>
      <stop offset="1.0" stop-color="#5bcba3"/>
    </radialGradient>
  </defs>
</svg>
