<?xml version="1.0" encoding="UTF-8" standalone="no"?>
<svg xmlns:xlink="http://www.w3.org/1999/xlink" height="531.5px" width="460.6px" xmlns="http://www.w3.org/2000/svg">
  <g transform="matrix(1.0, 0.0, 0.0, 1.0, 193.65, 334.05)">
    <use height="14.85" transform="matrix(1.6424, 0.0, 0.0, 1.6424, -65.8699, -144.2364)" width="3.1" xlink:href="#shape0"/>
    <use height="48.3" transform="matrix(1.6424, 0.0, 0.0, 1.6424, -64.1464, -161.8964)" width="73.3" xlink:href="#shape1"/>
    <clipPath id="clipPath0" transform="matrix(1.6424, 0.0, 0.0, 1.6424, -63.9, -161.65)">
      <path d="M72.3 43.95 Q59.5 47.6 37.55 48.0 17.55 47.3 2.7 43.1 L2.1 42.65 Q0.15 40.85 0.0 38.05 L1.7 9.95 2.1 9.75 Q20.5 1.1 41.6 1.0 59.1 -2.95 70.8 8.55 71.75 13.2 72.3 18.2 73.3 27.2 72.9 37.35 L72.35 43.9 72.3 43.95" fill="#5e0808" fill-opacity="0.67058825" fill-rule="evenodd" stroke="none"/>
    </clipPath>
    <g clip-path="url(#clipPath0)">
      <use height="53.25" transform="matrix(1.6424, 0.0, 0.0, 1.6424, -74.2474, -167.2343)" width="86.4" xlink:href="#shape3"/>
    </g>
    <use height="47.95" transform="matrix(1.6424, 0.0, 0.0, 1.6424, -67.7587, -203.6106)" width="78.2" xlink:href="#shape4"/>
    <use height="20.8" transform="matrix(2.0398, 0.4879, 0.3117, 1.201, -47.9, -178.95)" width="9.9" xlink:href="#sprite0"/>
    <use height="73.35" transform="matrix(1.6424, 0.0, 0.0, 1.6424, -74.0, -182.8337)" width="81.4" xlink:href="#shape6"/>
    <use height="20.8" transform="matrix(-1.9323, 0.4879, -0.047, 1.201, 43.2, -179.2)" width="9.9" xlink:href="#sprite0"/>
    <use height="15.45" transform="matrix(1.6424, 0.0, 0.0, 1.6424, -31.2965, -144.0721)" width="41.8" xlink:href="#shape7"/>
  </g>
  <defs>
    <g id="shape0" transform="matrix(1.0, 0.0, 0.0, 1.0, -4.95, -35.9)">
      <path d="M6.85 50.5 L6.1 48.7 5.2 38.65 Q6.35 36.85 7.8 36.15 L6.85 50.5" fill="#bfcc84" fill-rule="evenodd" stroke="none"/>
      <path d="M6.85 50.5 L6.1 48.7 5.2 38.65 Q6.35 36.85 7.8 36.15 L6.85 50.5 Z" fill="none" stroke="#000000" stroke-linecap="round" stroke-linejoin="round" stroke-opacity="0.4" stroke-width="0.5"/>
    </g>
    <g id="shape1" transform="matrix(1.0, 0.0, 0.0, 1.0, 0.15, 0.15)">
      <path d="M72.3 43.95 Q59.5 47.6 37.55 48.0 17.55 47.3 2.7 43.1 L2.1 42.65 Q0.15 40.85 0.0 38.05 L1.7 9.95 2.1 9.75 Q20.5 1.1 41.6 1.0 59.1 -2.95 70.8 8.55 71.75 13.2 72.3 18.2 73.3 27.2 72.9 37.35 L72.35 43.9 72.3 43.95" fill="#5e0808" fill-rule="evenodd" stroke="none"/>
      <path d="M72.3 43.95 Q59.5 47.6 37.55 48.0 17.55 47.3 2.7 43.1 L2.1 42.65 Q0.15 40.85 0.0 38.05 L1.7 9.95 2.1 9.75 Q20.5 1.1 41.6 1.0 59.1 -2.95 70.8 8.55 71.75 13.2 72.3 18.2 73.3 27.2 72.9 37.35 L72.35 43.9 72.3 43.95 Z" fill="none" stroke="#000000" stroke-linecap="round" stroke-linejoin="round" stroke-opacity="0.4" stroke-width="0.30000000000000004"/>
    </g>
    <g id="shape3" transform="matrix(1.0, 0.0, 0.0, 1.0, 6.3, 3.4)">
      <path d="M-6.15 4.75 L0.7 6.05 Q8.45 7.4 14.9 7.75 19.7 8.05 31.25 8.05 46.5 8.05 58.65 6.2 70.0 4.55 79.95 1.15 M-6.15 31.75 L0.7 33.05 Q8.45 34.4 14.9 34.75 L31.25 35.0 Q46.5 35.0 58.65 33.2 70.0 31.5 79.95 28.15 M-6.15 40.8 L0.7 42.1 Q8.45 43.45 14.9 43.8 L31.25 44.05 Q46.5 44.05 58.65 42.25 70.0 40.55 79.95 37.15 M-6.15 36.25 L0.7 37.55 Q8.45 38.9 14.9 39.25 19.7 39.55 31.25 39.55 46.5 39.55 58.65 37.75 70.0 36.05 79.95 32.65 M23.5 49.7 L31.25 49.7 Q46.5 49.7 58.65 47.9 70.0 46.2 79.95 42.8 M-6.15 18.2 L0.7 19.5 Q8.45 20.85 14.9 21.2 L31.25 21.45 Q46.5 21.45 58.65 19.65 70.0 17.95 79.95 14.6 M-6.15 13.65 L0.7 14.95 Q8.45 16.35 14.9 16.65 19.7 16.95 31.25 16.95 46.5 16.95 58.65 15.15 70.0 13.45 79.95 10.05 M-6.15 9.15 L0.7 10.45 Q8.45 11.8 14.9 12.15 19.7 12.45 31.25 12.45 46.5 12.45 58.65 10.6 70.0 8.95 79.95 5.55 M-6.15 27.25 L0.7 28.55 14.9 30.2 Q19.7 30.5 31.25 30.5 46.5 30.5 58.65 28.7 70.0 27.0 79.95 23.6 M-6.15 22.7 L0.7 24.0 Q8.45 25.35 14.9 25.7 19.7 26.0 31.25 26.0 46.5 26.0 58.65 24.2 70.0 22.5 79.95 19.1 M-6.15 0.35 L0.7 1.65 Q8.45 3.0 14.9 3.35 19.7 3.65 31.25 3.65 46.5 3.65 58.65 1.8 70.0 0.15 79.95 -3.25" fill="none" stroke="#000000" stroke-linecap="round" stroke-linejoin="round" stroke-opacity="0.4" stroke-width="0.30000000000000004"/>
    </g>
    <g id="shape4" transform="matrix(1.0, 0.0, 0.0, 1.0, -3.8, 0.25)">
      <path d="M22.8 42.4 Q23.95 42.15 24.85 41.3 26.0 40.1 26.0 38.45 26.0 36.8 24.85 35.6 23.95 34.75 22.8 34.55 21.65 34.75 20.8 35.6 19.65 36.8 19.65 38.45 19.65 40.1 20.8 41.3 21.65 42.15 22.8 42.4" fill="#1e0000" fill-rule="evenodd" stroke="none"/>
      <path d="M22.8 34.55 L22.0 34.45 Q20.35 34.45 19.15 35.6 18.0 36.8 18.0 38.45 18.0 40.1 19.15 41.3 20.35 42.45 22.0 42.45 L22.8 42.4 Q21.65 42.15 20.8 41.3 19.65 40.1 19.65 38.45 19.65 36.8 20.8 35.6 21.65 34.75 22.8 34.55" fill="#3f1206" fill-rule="evenodd" stroke="none"/>
      <path d="M22.8 34.55 L22.0 34.45 Q20.35 34.45 19.15 35.6 18.0 36.8 18.0 38.45 18.0 40.1 19.15 41.3 20.35 42.45 22.0 42.45 L22.8 42.4 Q23.95 42.15 24.85 41.3 26.0 40.1 26.0 38.45 26.0 36.8 24.85 35.6 23.95 34.75 22.8 34.55 Z" fill="none" stroke="#000000" stroke-linecap="round" stroke-linejoin="round" stroke-opacity="0.4" stroke-width="0.30000000000000004"/>
      <path d="M24.5 10.45 L16.4 16.35 Q12.2 9.75 12.6 2.8 17.8 0.25 23.8 0.0 22.45 5.95 24.5 10.45" fill="#e8f4af" fill-rule="evenodd" stroke="none"/>
      <path d="M24.5 10.45 Q22.45 5.95 23.8 0.0 17.8 0.25 12.6 2.8 12.2 9.75 16.4 16.35 L24.5 10.45 Z" fill="none" stroke="#000000" stroke-linecap="round" stroke-linejoin="round" stroke-opacity="0.4" stroke-width="0.5"/>
      <path d="M66.05 9.4 L71.05 20.8 32.05 25.2 6.5 30.0 4.95 22.5 22.7 10.8 Q33.55 7.1 44.3 5.1 L66.05 9.4" fill="#dde8a7" fill-rule="evenodd" stroke="none"/>
      <path d="M66.05 9.4 L71.05 20.8 32.05 25.2 6.5 30.0 4.95 22.5 22.7 10.8 Q33.55 7.1 44.3 5.1 L66.05 9.4 Z" fill="none" stroke="#000000" stroke-linecap="round" stroke-linejoin="round" stroke-opacity="0.4" stroke-width="0.5"/>
      <path d="M78.85 47.55 L78.25 41.4 77.4 35.45 Q78.55 35.0 79.7 35.0 L79.2 42.2 80.2 46.1 78.85 47.55" fill="#dde8a7" fill-rule="evenodd" stroke="none"/>
      <path d="M78.85 47.55 L80.2 46.1 79.2 42.2 79.7 35.0 Q78.55 35.0 77.4 35.45 L78.25 41.4 78.85 47.55 Z" fill="none" stroke="#000000" stroke-linecap="round" stroke-linejoin="round" stroke-opacity="0.4" stroke-width="0.30000000000000004"/>
      <path d="M4.9 33.05 L4.05 32.6 Q4.15 29.05 6.35 27.55 15.35 26.4 25.25 22.9 42.15 17.85 54.25 16.35 68.1 17.75 80.35 26.85 L81.75 28.45 Q81.85 31.3 80.0 33.05 81.05 35.1 79.7 37.5 L79.65 37.6 77.95 36.15 72.15 31.3 Q59.05 28.05 45.7 30.1 37.45 32.65 29.25 34.35 L4.9 33.05 M80.0 33.05 Q69.5 21.1 54.25 16.35 69.5 21.1 80.0 33.05 M59.95 24.25 Q45.25 22.9 30.25 27.05 45.25 22.9 59.95 24.25" fill="#dde8a7" fill-rule="evenodd" stroke="none"/>
      <path d="M29.25 34.35 L22.35 35.65 21.85 34.55 20.7 35.9 20.5 35.95 17.65 34.65 17.95 36.3 6.7 37.5 Q5.6 38.45 5.65 39.85 3.5 35.45 4.9 33.05 L29.25 34.35" fill="#bfcc84" fill-rule="evenodd" stroke="none"/>
      <path d="M4.9 33.05 L4.05 32.6 Q4.15 29.05 6.35 27.55 15.35 26.4 25.25 22.9 42.15 17.85 54.25 16.35 68.1 17.75 80.35 26.85 L81.75 28.45 Q81.85 31.3 80.0 33.05 81.05 35.1 79.7 37.5 M77.95 36.15 L72.15 31.3 Q59.05 28.05 45.7 30.1 37.45 32.65 29.25 34.35 L22.35 35.65 21.85 34.55 20.7 35.9 20.5 35.95 17.65 34.65 17.95 36.3 6.7 37.5 M5.65 39.85 Q3.5 35.45 4.9 33.05" fill="none" stroke="#000000" stroke-linecap="round" stroke-linejoin="round" stroke-opacity="0.4" stroke-width="0.5"/>
      <path d="M4.9 33.05 L29.25 34.35 M30.25 27.05 Q45.25 22.9 59.95 24.25 M54.25 16.35 Q69.5 21.1 80.0 33.05" fill="none" stroke="#000000" stroke-linecap="round" stroke-linejoin="round" stroke-opacity="0.2" stroke-width="0.5"/>
      <path d="M20.85 18.35 L21.4 18.35 22.55 18.4 Q23.75 18.7 24.9 19.55 L26.4 20.95 27.85 23.0 27.95 23.15 28.85 25.45 28.9 25.55 28.9 25.6 29.1 26.3 29.15 26.8 29.0 27.05 29.1 26.3 29.0 27.05 29.15 26.8 29.2 27.45 29.0 28.05 29.0 28.1 29.0 28.15 28.55 28.9 28.3 29.4 27.65 30.35 28.45 29.65 28.25 29.95 28.1 30.1 27.7 30.35 27.65 30.35 27.6 30.4 25.7 30.45 24.05 29.8 23.0 29.0 22.8 28.9 22.7 28.8 22.65 28.75 21.85 27.85 21.75 27.75 21.85 27.85 22.65 28.75 22.6 28.7 22.45 28.55 22.0 28.1 21.85 27.9 21.75 27.75 21.7 27.7 21.7 27.65 21.6 27.55 21.7 27.65 21.7 27.7 21.6 27.55 21.5 27.45 21.45 27.4 21.05 26.75 20.5 25.7 19.8 24.35 20.05 25.1 19.95 24.95 20.05 25.1 19.8 24.35 19.75 24.1 19.7 23.9 19.6 23.8 19.55 23.75 19.55 23.7 19.35 23.35 19.3 23.3 19.3 23.25 19.25 23.0 19.2 22.7 19.15 22.6 19.15 22.45 19.15 22.4 Q18.9 21.2 19.25 20.3 L19.35 19.9 19.6 19.35 Q20.1 18.6 20.85 18.35 L20.65 18.75 Q19.75 20.5 20.05 21.8 20.45 23.3 21.65 25.25 20.45 23.3 20.05 21.8 19.75 20.5 20.65 18.75 L20.85 18.35 M21.3 26.55 L19.75 24.1 Q19.2 21.6 19.25 20.3 19.2 21.6 19.75 24.1 L21.3 26.55 M19.4 23.55 L19.4 23.45 19.35 23.35 19.55 23.7 19.55 23.75 19.6 23.8 19.7 23.9 19.75 24.1 19.8 24.35 20.5 25.7 21.05 26.75 21.45 27.4 20.1 25.3 20.1 25.2 19.95 24.95 19.95 24.9 19.8 24.6 19.7 24.4 19.45 23.75 19.45 23.7 19.4 23.55 M19.55 23.7 L19.2 22.7 19.55 23.7 M20.05 25.1 L20.1 25.2 20.05 25.1 M27.05 29.7 Q28.25 28.75 29.0 27.2 L29.0 27.35 28.55 28.9 29.0 27.35 29.0 27.2 Q28.25 28.75 27.05 29.7 M29.0 27.2 L29.0 27.05 28.95 27.15 29.0 27.2 M28.95 27.15 L28.75 25.5 27.95 23.15 28.75 25.5 28.95 27.15 M28.95 28.85 L29.0 28.35 29.0 28.15 29.0 28.1 29.0 28.05 29.2 27.45 28.95 28.85 M29.0 28.05 L29.0 27.35 29.0 28.05 M22.0 27.6 L23.35 29.15 23.65 29.45 23.0 29.0 23.65 29.45 23.35 29.15 22.0 27.6 M25.7 30.45 L23.7 29.45 23.65 29.45 23.7 29.45 25.7 30.45 M24.05 29.8 L23.65 29.45 24.05 29.8 M20.1 25.2 L21.05 26.75 20.1 25.2" fill="#000000" fill-rule="evenodd" stroke="none"/>
      <path d="M20.6 17.2 L21.75 17.3 21.95 17.35 Q22.05 17.25 22.35 17.2 L20.85 17.1 20.6 17.2 19.5 18.05 19.45 18.2 19.7 18.1 20.15 17.9 20.45 17.65 20.85 17.55 21.55 17.55 21.95 17.35 22.9 17.65 Q23.7 17.95 23.95 18.3 L24.7 18.8 26.75 20.7 27.5 21.75 28.05 22.65 28.1 22.7 28.15 22.75 28.4 23.25 28.75 23.9 28.85 24.2 28.9 24.25 28.9 24.3 29.0 24.45 29.15 24.7 29.5 25.55 29.55 25.45 28.05 22.05 27.95 21.9 26.95 20.4 26.9 20.3 26.6 19.85 25.6 18.8 24.45 18.0 Q23.9 17.9 23.5 17.6 L23.4 17.55 23.2 17.45 22.65 17.3 22.6 17.3 22.35 17.2 22.65 17.3 M18.05 19.3 L18.0 20.05 18.1 20.3 18.1 20.4 18.3 20.85 Q18.3 20.05 18.45 19.35 L18.55 19.25 18.6 19.0 18.75 18.75 18.8 18.75 18.85 18.7 19.0 18.55 19.0 18.45 19.0 18.4 Q19.05 17.8 19.45 17.55 19.7 17.1 20.6 17.1 L20.85 17.1 22.1 16.95 23.2 17.45 M20.15 17.9 L20.4 17.85 20.85 17.55 M21.4 18.35 Q21.35 17.9 21.85 18.0 23.0 18.3 24.6 19.3 L24.8 19.45 23.2 18.15 21.8 17.6 21.55 17.55 20.85 18.35 20.65 18.75 Q19.75 20.5 20.05 21.8 20.45 23.3 21.65 25.25 M24.9 19.55 L24.8 19.45 Q25.95 20.2 26.9 21.2 L26.0 20.1 24.7 18.8 M22.9 17.65 L23.8 18.25 23.95 18.3 M23.35 30.6 L23.9 30.95 25.3 31.25 24.1 30.65 22.45 29.65 21.25 28.6 20.4 27.5 20.15 27.2 19.35 25.95 19.2 25.85 Q18.05 24.55 18.2 23.6 17.65 22.75 17.45 22.0 16.9 19.9 17.25 18.45 17.3 17.9 17.5 17.55 18.0 16.35 18.6 16.35 L18.85 16.4 19.6 16.2 19.95 16.25 20.05 16.25 20.2 16.2 21.25 16.35 Q21.9 16.5 23.5 17.6 L24.3 17.9 24.45 18.0 M27.85 23.0 L27.85 22.95 27.35 21.65 27.25 21.55 27.2 21.55 26.9 21.2 27.2 21.5 27.5 21.75 M27.2 21.5 L27.2 21.55 M27.85 23.0 L27.95 23.15 28.75 25.5 28.95 27.15 29.0 27.2 Q28.25 28.75 27.05 29.7 M28.85 25.45 L28.9 25.55 29.1 26.3 29.0 27.05 29.15 26.8 29.25 26.55 29.05 25.4 28.7 24.0 27.35 21.65 M28.75 22.5 L29.05 23.2 29.3 23.75 29.35 23.95 29.7 24.65 Q29.95 23.35 29.65 22.25 L29.45 21.65 M28.4 23.25 L28.85 24.2 M28.7 24.0 L28.85 24.4 29.0 24.45 29.5 25.6 29.5 25.55 M29.55 25.45 L29.65 24.75 29.35 23.95 29.3 23.8 29.3 23.75 M26.3 19.05 L28.35 21.25 M20.6 17.2 L19.6 17.45 19.45 17.55 M19.0 18.55 L19.0 18.95 19.2 18.4 19.05 18.45 19.0 18.45 19.0 18.5 19.0 18.55 19.0 18.5 M19.0 18.4 L19.55 17.9 19.2 18.4 19.45 18.2 19.0 18.95 19.05 19.3 19.25 19.8 19.3 19.5 Q19.5 18.65 19.85 18.35 L19.85 18.3 19.9 18.3 20.15 17.9 M19.95 16.25 Q18.9 16.25 18.2 17.15 17.7 18.3 17.25 18.45 M19.25 20.3 Q19.2 21.6 19.75 24.1 L21.3 26.55 M19.25 19.8 L19.35 19.9 M18.55 19.25 L18.75 18.75 M19.25 23.0 L19.1 22.55 Q18.7 21.05 18.9 19.7 18.85 19.5 18.95 19.35 L19.0 18.95 Q18.45 20.15 18.75 21.8 L18.8 22.15 18.9 22.4 19.0 22.7 19.3 23.25 19.3 23.3 19.4 23.45 19.4 23.55 19.4 23.65 19.45 23.7 19.45 23.75 19.7 24.4 19.8 24.6 19.95 24.9 19.95 24.95 20.05 25.1 19.8 24.35 19.75 24.1 19.7 23.9 19.6 23.8 19.55 23.75 19.55 23.7 19.35 23.35 19.3 23.3 M19.2 22.7 L19.15 22.6 19.15 22.45 19.15 22.4 Q18.85 21.35 18.9 20.8 L18.95 19.35 M18.3 20.85 L18.5 21.55 18.5 21.35 18.4 20.2 18.5 19.55 18.5 19.4 18.55 19.25 M18.4 20.2 L18.6 20.85 18.75 21.8 M18.1 20.3 L17.9 20.4 17.95 20.5 Q17.9 21.6 18.15 22.6 L18.8 24.5 19.1 24.8 19.2 24.95 19.25 25.1 19.9 25.8 Q19.6 25.4 19.6 25.0 18.8 23.7 18.45 22.25 18.2 21.5 18.3 20.85 M19.25 20.3 L19.25 19.8 M18.0 20.05 L17.9 20.4 17.7 21.35 17.95 22.8 18.3 23.75 18.8 24.55 18.8 24.5 M18.7 22.8 Q19.0 24.0 19.5 24.55 L18.7 22.4 18.6 22.0 18.7 22.8 M18.9 22.4 L18.9 22.55 18.95 22.6 19.0 22.7 M18.2 23.6 L18.3 23.75 19.2 25.85 18.8 24.55 19.2 25.05 19.2 24.95 M19.35 23.35 L19.4 23.45 M19.2 22.7 L19.55 23.7 M18.9 22.55 L18.5 21.55 18.6 22.0 M17.7 21.35 Q17.4 19.15 18.05 18.4 M18.85 18.7 L19.0 18.55 M20.1 25.3 L20.1 25.2 20.05 25.1 M18.95 22.6 L19.9 25.15 20.0 25.3 20.05 25.5 20.15 25.6 20.4 26.05 20.65 26.4 21.0 26.95 21.45 27.4 21.5 27.45 21.6 27.55 21.7 27.65 21.7 27.7 21.75 27.75 21.85 27.85 22.65 28.75 22.7 28.8 M19.2 25.05 L19.25 25.1 20.1 26.2 19.9 25.8 Q20.05 26.05 20.5 26.3 L19.6 25.0 M19.2 25.05 L20.05 26.5 20.3 26.85 21.05 27.7 20.1 26.2 21.4 27.7 22.0 28.25 21.85 28.1 21.0 26.95 20.5 26.3 M30.85 25.95 Q31.35 27.4 30.9 28.9 M29.5 25.6 L29.55 25.7 29.6 25.8 29.65 25.9 29.55 25.45 M29.5 25.6 L29.45 25.75 29.65 26.2 29.65 26.15 29.6 25.8 M29.65 26.2 L29.65 26.3 29.7 26.4 29.85 27.35 29.95 26.7 29.65 25.9 29.65 26.15 M29.25 26.55 L29.35 26.1 29.45 25.75 29.0 24.45 M29.2 27.45 L29.25 26.55 M28.55 28.9 L29.0 27.35 29.0 27.2 29.0 27.05 28.95 27.15 M29.7 24.65 Q30.15 25.65 29.95 26.3 L29.95 26.7 30.2 27.5 M29.65 26.3 L29.55 27.7 29.7 28.2 29.75 28.05 29.85 27.35 29.8 28.7 29.7 28.9 29.55 29.5 29.35 29.85 29.3 29.9 29.15 30.05 29.0 30.25 28.9 30.5 28.7 31.15 29.9 30.1 M29.7 24.65 L29.65 24.75 29.95 26.3 M26.85 30.8 L27.1 30.75 27.15 30.7 27.45 30.55 27.15 30.65 26.85 30.8 26.8 30.8 25.35 30.6 26.3 31.1 26.55 31.05 27.1 30.75 M27.6 30.4 L27.6 30.45 27.7 30.35 28.1 30.1 27.5 30.6 27.3 30.7 27.6 30.45 27.55 30.45 27.5 30.5 27.45 30.55 27.6 30.45 M27.65 30.35 L27.6 30.4 M24.05 29.8 L25.35 30.6 25.2 30.6 25.1 30.6 25.0 30.55 24.15 30.35 25.1 30.8 25.9 31.05 26.3 31.1 26.35 31.1 26.55 31.05 27.3 30.7 27.15 30.7 M29.7 28.2 L29.7 28.9 29.35 29.85 M28.45 29.65 L28.65 29.5 28.8 29.35 28.85 29.2 28.95 28.85 29.0 28.35 29.0 28.15 28.55 28.9 28.3 29.4 27.65 30.35 28.45 29.65 28.25 29.95 28.1 30.1 M29.2 27.45 L29.0 28.05 29.0 28.1 29.0 28.15 M28.85 29.2 L29.0 29.1 29.55 27.7 M28.9 30.5 L28.9 30.35 29.0 30.25 29.7 28.2 M28.35 30.5 Q28.7 30.2 28.85 29.2 M29.0 27.35 L29.0 28.05 M22.8 28.9 L23.0 29.0 23.65 29.45 23.35 29.15 22.0 27.6 M19.8 24.35 L20.5 25.7 21.05 26.75 21.45 27.4 M21.05 27.7 L21.2 27.75 22.15 28.8 22.65 29.25 Q23.75 30.15 25.0 30.55 M21.6 27.55 L21.7 27.7 M22.45 28.55 L22.0 28.1 21.85 27.9 21.75 27.75 M22.6 28.7 L22.8 28.9 M22.6 28.7 L22.0 28.25 M21.25 28.6 L21.45 28.8 22.35 29.4 23.25 30.0 21.85 28.6 21.05 27.7 M22.45 29.65 L21.45 28.8 M23.65 29.45 L23.7 29.45 25.7 30.45 M23.3 30.05 L23.35 30.05 23.25 30.0 23.3 30.05 22.45 29.65 M23.65 29.45 L24.05 29.8 M23.3 30.05 L24.1 30.65 M25.1 30.8 L23.35 30.05 24.15 30.35 22.65 29.25 M23.9 30.95 L24.5 31.3 25.75 31.8 26.35 31.9 26.85 31.8 M26.35 31.1 L26.85 31.25 27.95 31.4 28.25 31.3 28.7 31.2 28.65 31.15 28.7 31.15 M25.3 31.25 L26.35 31.1 M19.5 24.55 L19.9 25.15 M21.05 26.75 L20.1 25.2 M20.4 17.85 L19.9 18.3" fill="none" stroke="#000000" stroke-linecap="round" stroke-linejoin="round" stroke-opacity="0.7019608" stroke-width="0.2"/>
    </g>
    <g id="sprite0" transform="matrix(1.0, 0.0, 0.0, 1.0, 0.0, 0.0)">
      <use height="20.8" transform="matrix(1.0, 0.0, 0.0, 1.0, 0.0, 0.0)" width="9.9" xlink:href="#shape5"/>
    </g>
    <g id="shape5" transform="matrix(1.0, 0.0, 0.0, 1.0, 0.0, 0.0)">
      <path d="M8.45 17.75 Q7.0 20.8 4.95 20.8 2.9 20.8 1.45 17.75 0.0 14.7 0.0 10.4 0.0 6.1 1.45 3.05 2.9 0.0 4.95 0.0 7.0 0.0 8.45 3.05 9.9 6.1 9.9 10.4 9.9 14.7 8.45 17.75" fill="#000000" fill-rule="evenodd" stroke="none"/>
    </g>
    <g id="shape6" transform="matrix(1.0, 0.0, 0.0, 1.0, 0.0, -12.4)">
      <path d="M45.15 21.7 Q43.8 21.45 42.8 20.45 41.45 19.1 41.45 17.15 41.45 15.25 42.8 13.9 43.8 12.9 45.15 12.65 46.45 12.9 47.45 13.9 48.8 15.25 48.8 17.15 48.8 19.1 47.45 20.45 46.45 21.45 45.15 21.7" fill="#1e0000" fill-rule="evenodd" stroke="none"/>
      <path d="M45.15 12.65 L46.1 12.55 Q48.0 12.55 49.35 13.9 50.7 15.25 50.7 17.15 50.7 19.1 49.35 20.45 48.0 21.8 46.1 21.8 L45.15 21.7 Q46.45 21.45 47.45 20.45 48.8 19.1 48.8 17.15 48.8 15.25 47.45 13.9 46.45 12.9 45.15 12.65" fill="#3f1206" fill-rule="evenodd" stroke="none"/>
      <path d="M45.15 12.65 L46.1 12.55 Q48.0 12.55 49.35 13.9 50.7 15.25 50.7 17.15 50.7 19.1 49.35 20.45 48.0 21.8 46.1 21.8 L45.15 21.7 Q43.8 21.45 42.8 20.45 41.45 19.1 41.45 17.15 41.45 15.25 42.8 13.9 43.8 12.9 45.15 12.65 Z" fill="none" stroke="#000000" stroke-linecap="round" stroke-linejoin="round" stroke-opacity="0.4" stroke-width="0.30000000000000004"/>
      <path d="M42.5 18.55 Q44.05 19.4 45.6 19.45 47.35 19.65 48.6 19.0 49.8 18.8 49.95 19.4 50.15 21.0 48.9 23.25 47.65 25.4 45.8 22.15 44.45 28.6 42.9 24.95 L41.65 18.55 Q41.6 17.85 42.5 18.55" fill="#990000" fill-rule="evenodd" stroke="none"/>
      <path d="M42.5 18.55 Q44.05 19.4 45.6 19.45 47.35 19.65 48.6 19.0 49.8 18.8 49.95 19.4 50.15 21.0 48.9 23.25 47.65 25.4 45.8 22.15 44.45 28.6 42.9 24.95 L41.65 18.55 Q41.6 17.85 42.5 18.55 Z" fill="none" stroke="#990000" stroke-linecap="round" stroke-linejoin="round" stroke-opacity="0.4" stroke-width="0.30000000000000004"/>
      <path d="M21.95 58.2 Q21.1 58.05 20.45 57.4 19.55 56.5 19.55 55.25 19.55 54.0 20.45 53.15 21.1 52.5 21.95 52.35 22.8 52.5 23.45 53.15 24.3 54.0 24.3 55.25 24.3 56.5 23.45 57.4 22.8 58.05 21.95 58.2" fill="#1e0000" fill-rule="evenodd" stroke="none"/>
      <path d="M21.95 52.35 L22.55 52.25 Q23.8 52.25 24.7 53.15 25.55 54.0 25.55 55.25 25.55 56.5 24.7 57.4 23.8 58.25 22.55 58.25 L21.95 58.2 Q22.8 58.05 23.45 57.4 24.3 56.5 24.3 55.25 24.3 54.0 23.45 53.15 22.8 52.5 21.95 52.35" fill="#3f1206" fill-rule="evenodd" stroke="none"/>
      <path d="M21.95 52.35 L22.55 52.25 Q23.8 52.25 24.7 53.15 25.55 54.0 25.55 55.25 25.55 56.5 24.7 57.4 23.8 58.25 22.55 58.25 L21.95 58.2 Q21.1 58.05 20.45 57.4 19.55 56.5 19.55 55.25 19.55 54.0 20.45 53.15 21.1 52.5 21.95 52.35 Z" fill="none" stroke="#000000" stroke-linecap="round" stroke-linejoin="round" stroke-opacity="0.4" stroke-width="0.30000000000000004"/>
      <path d="M20.5 60.3 L19.7 56.15 Q19.65 55.7 20.25 56.15 21.25 56.7 22.25 56.75 L24.2 56.45 Q25.0 56.3 25.1 56.7 25.2 57.75 24.4 59.2 23.6 60.6 22.4 58.5 21.5 62.7 20.5 60.3" fill="#990000" fill-rule="evenodd" stroke="none"/>
      <path d="M20.5 60.3 L19.7 56.15 Q19.65 55.7 20.25 56.15 21.25 56.7 22.25 56.75 L24.2 56.45 Q25.0 56.3 25.1 56.7 25.2 57.75 24.4 59.2 23.6 60.6 22.4 58.5 21.5 62.7 20.5 60.3 Z" fill="none" stroke="#990000" stroke-linecap="round" stroke-linejoin="round" stroke-opacity="0.4" stroke-width="0.30000000000000004"/>
      <path d="M70.3 39.0 Q71.25 39.2 72.0 39.95 73.0 40.95 73.0 42.4 73.0 43.85 72.0 44.85 71.25 45.6 70.3 45.8 69.25 45.6 68.5 44.85 67.5 43.85 67.5 42.4 67.5 40.95 68.5 39.95 69.25 39.2 70.3 39.0" fill="#1e0000" fill-rule="evenodd" stroke="none"/>
      <path d="M70.3 39.0 L71.0 38.95 Q72.4 38.95 73.45 39.95 74.45 40.95 74.45 42.4 74.45 43.85 73.45 44.85 72.4 45.85 71.0 45.85 L70.3 45.8 Q71.25 45.6 72.0 44.85 73.0 43.85 73.0 42.4 73.0 40.95 72.0 39.95 71.25 39.2 70.3 39.0" fill="#3f1206" fill-rule="evenodd" stroke="none"/>
      <path d="M70.3 45.8 L71.0 45.85 Q72.4 45.85 73.45 44.85 74.45 43.85 74.45 42.4 74.45 40.95 73.45 39.95 72.4 38.95 71.0 38.95 L70.3 39.0 Q69.25 39.2 68.5 39.95 67.5 40.95 67.5 42.4 67.5 43.85 68.5 44.85 69.25 45.6 70.3 45.8 Z" fill="none" stroke="#000000" stroke-linecap="round" stroke-linejoin="round" stroke-opacity="0.4" stroke-width="0.30000000000000004"/>
      <path d="M39.45 67.45 Q38.7 67.35 38.15 66.8 37.45 66.05 37.45 65.0 37.45 64.0 38.15 63.25 38.7 62.7 39.45 62.6 40.15 62.7 40.7 63.25 41.4 64.0 41.4 65.0 41.4 66.05 40.7 66.8 40.15 67.35 39.45 67.45" fill="#1e0000" fill-rule="evenodd" stroke="none"/>
      <path d="M39.45 62.6 L39.95 62.55 Q40.95 62.55 41.7 63.25 42.45 64.0 42.45 65.0 42.45 66.05 41.7 66.8 40.95 67.5 39.95 67.5 L39.45 67.45 Q40.15 67.35 40.7 66.8 41.4 66.05 41.4 65.0 41.4 64.0 40.7 63.25 40.15 62.7 39.45 62.6" fill="#3f1206" fill-rule="evenodd" stroke="none"/>
      <path d="M39.45 62.6 L39.95 62.55 Q40.95 62.55 41.7 63.25 42.45 64.0 42.45 65.0 42.45 66.05 41.7 66.8 40.95 67.5 39.95 67.5 L39.45 67.45 Q38.7 67.35 38.15 66.8 37.45 66.05 37.45 65.0 37.45 64.0 38.15 63.25 38.7 62.7 39.45 62.6 Z" fill="none" stroke="#000000" stroke-linecap="round" stroke-linejoin="round" stroke-opacity="0.4" stroke-width="0.30000000000000004"/>
      <path d="M12.95 30.0 Q12.25 30.1 11.7 30.65 11.0 31.4 11.0 32.4 11.0 33.45 11.7 34.2 12.25 34.75 12.95 34.85 13.7 34.75 14.25 34.2 14.95 33.45 14.95 32.4 14.95 31.4 14.25 30.65 13.7 30.1 12.95 30.0" fill="#1e0000" fill-rule="evenodd" stroke="none"/>
      <path d="M12.95 30.0 L12.45 29.95 Q11.45 29.95 10.7 30.65 9.95 31.4 9.95 32.4 9.95 33.45 10.7 34.2 11.45 34.9 12.45 34.9 L12.95 34.85 Q12.25 34.75 11.7 34.2 11.0 33.45 11.0 32.4 11.0 31.4 11.7 30.65 12.25 30.1 12.95 30.0" fill="#3f1206" fill-rule="evenodd" stroke="none"/>
      <path d="M12.95 34.85 L12.45 34.9 Q11.45 34.9 10.7 34.2 9.95 33.45 9.95 32.4 9.95 31.4 10.7 30.65 11.45 29.95 12.45 29.95 L12.95 30.0 Q13.7 30.1 14.25 30.65 14.95 31.4 14.95 32.4 14.95 33.45 14.25 34.2 13.7 34.75 12.95 34.85 Z" fill="none" stroke="#000000" stroke-linecap="round" stroke-linejoin="round" stroke-opacity="0.4" stroke-width="0.30000000000000004"/>
      <path d="M33.75 76.15 Q33.75 74.5 35.9 74.65 38.0 74.75 38.0 76.6 38.0 77.95 36.2 77.95 34.7 77.95 34.1 77.1 33.75 76.65 33.75 76.15 M31.1 73.4 L29.85 74.85 25.35 82.65 27.2 77.3 Q25.0 78.6 22.15 78.3 18.65 77.8 17.55 75.7 L15.7 71.9 Q11.3 80.6 4.9 77.4 4.1 76.65 3.75 75.1 3.85 71.8 4.1 69.35 L0.0 70.8 4.3 67.5 4.35 67.1 Q4.8 64.0 6.65 64.25 16.6 67.15 30.2 68.5 60.85 70.05 74.9 66.55 L77.45 65.6 Q80.05 64.4 80.4 66.2 81.65 67.4 81.35 72.85 81.25 75.05 80.5 74.2 78.95 71.9 76.4 74.6 L76.3 74.75 77.65 78.25 75.5 75.8 Q70.35 82.55 66.9 79.3 L61.05 71.75 Q61.55 73.55 59.65 75.2 52.85 77.75 47.75 72.4 42.35 76.5 37.8 73.9 33.3 71.3 31.1 73.4 M48.9 77.5 Q47.8 77.5 47.8 76.65 47.8 75.85 48.9 75.9 50.05 75.95 50.05 76.7 L49.8 77.2 48.9 77.5 M14.1 76.5 Q14.1 75.3 15.55 75.35 16.95 75.45 16.95 76.85 16.95 77.65 15.65 77.65 14.6 77.65 14.25 77.1 14.1 76.85 14.1 76.5 M62.0 81.4 L62.45 85.75 60.0 76.7 64.85 84.25 62.0 81.4" fill="#990000" fill-opacity="0.92941177" fill-rule="evenodd" stroke="none"/>
      <path d="M70.2 63.05 Q68.9 62.9 67.9 62.05 66.45 60.8 66.3 58.95 66.15 57.1 67.4 55.65 68.3 54.6 69.55 54.25 70.85 54.45 71.85 55.3 73.25 56.55 73.4 58.4 73.55 60.25 72.35 61.7 71.45 62.75 70.2 63.05" fill="#1e0000" fill-rule="evenodd" stroke="none"/>
      <path d="M69.55 54.25 L70.45 54.1 Q72.35 53.95 73.75 55.15 75.15 56.4 75.3 58.25 75.45 60.1 74.25 61.55 73.05 62.95 71.15 63.1 L70.2 63.05 Q71.45 62.75 72.35 61.7 73.55 60.25 73.4 58.4 73.25 56.55 71.85 55.3 70.85 54.45 69.55 54.25" fill="#3f1206" fill-rule="evenodd" stroke="none"/>
      <path d="M69.55 54.25 L70.45 54.1 Q72.35 53.95 73.75 55.15 75.15 56.4 75.3 58.25 75.45 60.1 74.25 61.55 73.05 62.95 71.15 63.1 L70.2 63.05 Q68.9 62.9 67.9 62.05 66.45 60.8 66.3 58.95 66.15 57.1 67.4 55.65 68.3 54.6 69.55 54.25 Z" fill="none" stroke="#000000" stroke-linecap="round" stroke-linejoin="round" stroke-opacity="0.4" stroke-width="0.30000000000000004"/>
      <path d="M68.25 66.3 L66.55 60.2 67.4 60.15 Q68.95 60.9 70.45 60.9 72.15 60.85 73.4 60.15 74.55 59.9 74.7 60.45 L73.7 65.85 Q73.25 68.75 71.0 69.05 68.9 68.75 68.25 66.3" fill="#990000" fill-rule="evenodd" stroke="none"/>
      <path d="M68.25 66.3 L66.55 60.2 67.4 60.15 Q68.95 60.9 70.45 60.9 72.15 60.85 73.4 60.15 74.55 59.9 74.7 60.45 L73.7 65.85 Q73.25 68.75 71.0 69.05 68.9 68.75 68.25 66.3 Z" fill="none" stroke="#990000" stroke-linecap="round" stroke-linejoin="round" stroke-opacity="0.4" stroke-width="0.30000000000000004"/>
      <path d="M67.2 18.2 Q68.0 18.45 68.7 19.2 L69.05 19.75 69.25 20.15 Q69.8 21.05 69.8 22.25 L69.8 22.3 69.85 22.45 69.8 22.55 69.85 22.85 69.85 23.1 69.85 23.15 69.8 23.2 69.8 23.3 69.8 23.4 69.8 23.55 69.8 23.6 69.7 24.25 69.65 24.45 69.5 24.95 69.5 25.1 69.5 25.15 68.75 27.15 68.7 27.2 68.65 27.25 68.6 27.25 68.85 26.6 69.5 25.1 69.45 25.05 69.5 24.95 69.55 24.45 69.6 24.3 69.6 24.2 69.6 23.95 69.6 23.75 69.65 23.65 69.7 23.6 69.8 23.2 69.7 23.6 69.65 23.65 69.6 23.75 69.6 23.95 69.6 24.2 69.6 24.3 69.55 24.45 69.5 24.95 69.45 25.05 69.5 25.1 68.85 26.6 68.6 27.25 68.55 27.3 68.5 27.4 68.4 27.55 68.4 27.6 68.3 27.75 68.2 27.95 67.85 28.4 67.75 28.55 67.75 28.6 67.7 28.6 67.65 28.65 67.6 28.75 67.4 28.85 66.55 29.65 65.05 30.3 66.8 29.3 66.85 29.3 66.55 29.65 66.85 29.3 66.8 29.3 65.05 30.3 63.1 30.25 63.05 30.2 63.0 30.2 62.55 29.95 62.35 29.8 62.1 29.5 63.05 30.2 62.2 29.25 61.85 28.75 61.3 28.1 61.25 28.05 61.2 27.95 61.2 27.9 60.85 27.3 61.2 27.9 61.05 27.2 61.0 27.05 61.05 27.0 61.05 26.95 60.9 25.35 61.15 23.0 60.9 25.35 61.05 26.95 61.0 26.9 60.7 26.15 61.0 26.9 61.0 27.05 Q62.1 28.6 63.5 29.55 62.1 28.6 61.0 27.05 L61.05 27.2 61.2 27.9 61.2 27.95 61.25 28.05 61.3 28.1 61.25 28.2 61.45 28.7 60.85 27.3 60.75 26.65 60.7 26.15 60.75 25.45 60.75 25.4 60.8 25.3 Q60.8 24.1 61.15 23.0 L61.25 22.85 62.25 20.8 63.45 19.4 Q64.4 18.55 65.5 18.25 L66.65 18.2 67.2 18.2 67.5 18.6 Q68.8 20.35 68.75 21.65 68.7 23.15 67.95 25.1 68.7 23.15 68.75 21.65 68.8 20.35 67.5 18.6 L67.2 18.2 M69.7 23.6 L69.8 22.55 69.7 23.6 M69.6 23.75 Q69.6 21.4 69.25 20.15 69.6 21.4 69.6 23.75 M68.85 26.6 L69.2 25.55 69.55 24.45 69.2 25.55 68.85 26.6 M68.4 27.55 L68.4 27.5 68.5 27.4 68.4 27.5 68.4 27.55 M68.4 27.6 L68.3 27.7 67.7 28.6 68.3 27.7 68.4 27.6 M68.1 27.45 L67.1 29.0 66.85 29.3 67.4 28.85 66.85 29.3 67.1 29.0 68.1 27.45 M60.75 26.65 L61.0 26.9 60.75 26.65 M61.05 27.2 L61.85 28.75 61.05 27.2 M68.55 26.4 L69.6 23.95 68.55 26.4" fill="#000000" fill-rule="evenodd" stroke="none"/>
      <path d="M60.25 22.35 L60.1 23.05 59.95 23.6 59.95 23.8 59.8 24.6 60.1 25.3 Q60.2 23.95 60.85 21.9 L60.9 21.75 61.55 20.25 61.6 20.15 61.8 19.7 62.55 18.65 Q62.8 18.3 63.55 17.85 L63.65 17.75 64.4 17.45 Q65.75 16.35 66.35 16.2 L67.4 16.05 67.55 16.1 67.65 16.1 67.75 16.1 68.0 16.05 68.8 16.25 69.0 16.2 Q69.6 16.2 70.4 17.4 L70.85 18.3 Q71.5 19.75 71.4 21.85 71.4 22.6 71.0 23.45 71.4 24.4 70.5 25.7 L70.4 25.8 69.85 27.05 69.7 27.35 69.05 28.45 68.1 29.5 Q67.5 30.1 66.65 30.5 L65.6 31.1 66.95 30.8 67.4 30.45 M66.95 16.95 L65.45 17.05 65.9 17.2 66.1 17.15 67.2 17.05 67.0 16.95 66.95 16.95 65.65 16.8 Q65.0 17.0 64.65 17.3 L65.2 17.15 Q65.3 17.05 65.45 17.05 L65.25 17.15 65.2 17.15 M69.05 19.75 L69.15 19.65 69.0 19.35 Q68.65 18.5 68.2 18.2 L68.2 18.15 68.15 18.15 Q67.95 17.95 67.55 17.7 L67.05 17.4 66.35 17.4 67.2 18.2 67.5 18.6 Q68.8 20.35 68.75 21.65 68.7 23.15 67.95 25.1 M69.25 20.15 L69.15 19.65 69.2 19.15 69.2 18.8 68.6 18.05 68.3 17.95 67.8 17.75 68.15 18.15 M66.65 18.2 Q66.6 17.75 66.15 17.85 65.05 18.15 63.65 19.15 L63.5 19.3 63.45 19.4 M66.35 17.4 L65.9 17.2 65.0 17.5 64.25 18.1 64.1 18.15 63.45 18.65 62.45 19.95 Q62.0 20.45 61.8 21.05 L63.5 19.3 Q64.0 18.5 64.8 18.0 L66.1 17.45 66.35 17.4 M67.55 17.7 L67.8 17.75 67.45 17.5 67.05 17.4 M67.2 17.05 L68.25 17.3 68.45 17.4 Q68.1 16.95 67.2 16.95 L67.0 16.95 M67.2 17.05 L68.5 17.9 68.6 18.05 68.85 18.25 68.55 17.8 69.05 18.25 Q68.9 17.65 68.45 17.4 M69.1 18.3 L69.05 18.3 68.85 18.25 69.2 18.8 69.1 18.4 69.1 18.35 69.1 18.3 69.05 18.25 M69.1 18.35 L69.15 18.4 69.1 18.3 M69.1 18.4 L69.25 18.5 69.15 18.4 69.1 18.4 M67.75 16.1 Q68.7 16.1 69.6 17.0 70.35 18.15 70.85 18.3 M64.65 17.3 L64.5 17.4 64.4 17.45 Q64.05 17.75 63.55 17.85 M65.0 17.5 Q64.25 17.8 64.1 18.15 M61.55 21.4 L61.8 21.05 61.55 21.35 61.55 21.4 61.5 21.4 61.45 21.5 61.25 22.8 61.25 22.85 61.15 23.0 60.9 25.35 61.05 26.95 61.05 27.0 61.0 27.05 Q62.1 28.6 63.5 29.55 M63.45 18.65 L61.85 20.55 61.3 21.6 61.5 21.4 61.55 21.35 M61.3 21.6 L60.95 22.5 60.9 22.55 60.9 22.6 60.75 23.1 60.5 24.05 60.45 24.1 60.45 24.15 60.4 24.3 60.55 24.25 Q60.5 24.0 60.6 23.85 60.95 22.65 61.45 21.5 M69.2 18.8 Q70.0 20.0 70.05 21.65 L70.0 20.7 Q69.95 20.25 70.05 20.05 L69.85 19.4 69.8 19.25 69.7 19.1 69.4 18.6 69.35 18.6 69.25 18.5 M70.2 19.15 L70.45 19.9 70.6 20.25 71.0 21.2 Q70.85 19.0 70.0 18.25 M70.05 20.05 L70.2 21.2 70.25 21.4 70.3 20.7 69.85 19.2 69.7 19.1 69.6 18.85 69.4 18.6 M69.8 22.25 L69.7 20.65 69.35 19.2 69.2 18.8 M69.85 22.85 L69.9 22.4 Q69.95 20.9 69.45 19.55 L69.35 19.2 M70.4 20.15 L70.4 20.25 70.3 20.7 Q70.55 21.35 70.45 22.1 70.45 23.55 69.95 24.85 L69.8 25.65 70.3 24.95 70.3 24.8 70.4 24.65 70.6 24.35 70.85 22.45 70.6 20.35 70.6 20.25 70.4 20.15 70.45 19.9 M70.05 21.65 L70.1 22.0 70.05 22.25 70.1 22.4 70.25 21.4 70.25 21.85 70.35 22.65 69.95 24.4 69.65 25.0 69.6 25.15 69.6 25.35 69.5 25.45 69.35 25.9 69.2 26.25 68.95 26.8 69.3 26.15 69.95 24.85 M69.8 22.25 L69.8 22.3 69.85 22.45 69.8 22.55 69.7 23.6 69.65 23.65 69.6 23.75 69.6 23.95 69.6 24.2 69.6 24.3 69.55 24.45 69.5 24.95 69.45 25.05 69.5 25.1 68.85 26.6 68.6 27.25 68.65 27.25 68.7 27.2 68.75 27.15 68.95 26.8 68.35 27.95 68.25 28.1 68.7 27.55 69.7 26.05 69.8 25.65 69.3 26.15 M69.85 23.1 L70.0 22.55 70.05 22.25 M69.65 25.0 L70.05 22.45 70.0 22.55 M69.85 23.1 L69.85 23.15 69.8 23.3 69.8 23.4 69.85 23.5 69.8 23.55 69.8 23.6 69.7 24.25 69.65 24.45 69.5 24.95 69.5 25.1 69.5 25.15 M69.85 23.15 L69.8 23.2 69.8 23.3 M70.25 21.85 L70.25 22.25 69.95 24.4 M70.1 22.4 L70.05 22.45 M69.8 23.2 L69.7 23.6 M70.6 24.35 L70.65 24.4 70.95 23.6 71.1 22.65 71.0 21.2 M69.25 20.15 Q69.6 21.4 69.6 23.75 M71.0 23.45 L70.95 23.6 70.5 25.7 Q70.5 25.0 70.65 24.4 L70.35 24.9 69.8 26.35 69.65 26.7 69.05 27.55 68.45 28.45 67.4 29.85 68.15 29.25 68.9 28.65 69.05 28.45 M59.95 23.8 L59.75 24.5 59.8 24.6 59.85 26.15 59.95 26.55 60.1 25.75 60.1 25.65 60.1 25.3 60.15 25.4 60.3 24.55 60.4 24.5 60.4 24.4 60.4 24.3 M60.4 24.5 L60.4 24.45 60.4 24.5 60.25 25.6 60.4 25.95 60.6 26.4 60.55 25.25 60.6 23.85 M60.4 24.45 L60.4 24.4 M60.75 23.1 L60.55 23.75 60.5 24.05 M59.85 26.15 Q59.5 25.5 59.75 24.5 59.2 23.2 59.25 22.1 L59.35 21.5 M60.15 25.4 L60.15 25.45 60.4 24.5 M60.25 25.6 L60.15 26.05 60.15 26.15 60.55 27.55 Q60.85 28.3 61.45 28.95 L61.6 29.05 61.45 28.7 61.25 28.2 61.3 28.1 61.85 28.75 61.05 27.2 61.0 27.05 61.0 26.9 60.75 26.65 60.6 26.4 60.85 27.3 61.2 27.9 61.05 27.2 M60.7 26.15 Q60.65 25.8 60.75 25.4 L60.8 25.3 M60.15 26.15 L60.15 26.25 60.2 27.2 60.45 27.9 60.55 28.05 60.55 27.55 M60.15 26.05 L60.15 26.0 60.1 25.75 M60.1 25.65 L60.15 25.55 60.15 25.45 60.25 25.6 M59.9 27.35 L59.95 26.55 60.2 27.2 Q60.25 28.0 60.55 28.55 L60.7 28.75 60.55 28.05 61.7 30.1 61.8 30.2 61.8 30.25 61.85 30.35 62.2 31.0 62.25 31.0 62.2 31.05 62.65 31.15 63.0 31.25 64.05 31.1 64.5 30.95 64.3 30.9 63.5 30.55 63.25 30.45 62.55 29.95 62.35 29.8 62.1 29.5 61.85 29.35 61.7 29.2 61.6 29.05 Q61.95 30.05 62.4 30.35 M58.9 25.8 Q58.7 27.25 59.5 28.75 M70.35 24.9 L70.3 24.95 69.7 26.05 69.05 27.55 68.95 27.6 68.2 28.65 67.8 29.1 66.55 30.2 67.3 29.9 67.4 29.85 67.35 29.9 68.1 29.5 68.9 28.65 M70.3 24.8 L70.35 24.9 M68.6 27.25 L68.55 27.3 68.5 27.4 68.4 27.55 68.4 27.6 68.3 27.75 68.2 27.95 67.85 28.4 M67.75 28.55 L68.25 28.1 M68.5 27.4 L68.4 27.5 68.4 27.55 M69.55 24.45 L69.2 25.55 68.85 26.6 M67.75 28.6 L67.75 28.55 M67.4 28.85 L67.6 28.75 67.75 28.6 M67.65 28.65 L67.7 28.6 68.3 27.7 68.4 27.6 M66.55 29.65 L66.85 29.3 66.8 29.3 65.05 30.3 M67.4 28.85 L66.85 29.3 67.1 29.0 68.1 27.45 M67.3 29.9 L67.35 29.9 66.65 30.5 M60.7 26.15 L61.0 26.9 61.05 26.95 M61.2 27.9 L61.2 27.95 61.25 28.05 61.3 28.1 M61.8 30.25 L61.7 30.1 61.5 29.9 61.35 29.8 61.25 29.7 60.95 29.35 60.7 28.75 61.25 29.7 M63.1 30.25 L63.05 30.2 62.2 29.25 61.85 28.75 M63.0 30.2 L63.1 30.25 63.1 30.3 63.15 30.3 63.2 30.3 63.3 30.4 63.6 30.5 63.95 30.65 64.0 30.65 65.4 30.45 66.55 29.65 M63.15 30.3 L63.1 30.25 M62.1 29.5 L63.05 30.2 M63.0 30.2 L62.55 29.95 M63.3 30.4 L63.65 30.55 63.7 30.6 63.95 30.65 M63.65 30.55 L63.5 30.55 63.1 30.3 M64.3 30.9 L63.7 30.6 M65.4 30.45 L64.55 30.95 64.95 30.9 65.7 30.65 66.55 30.2 65.75 30.4 65.65 30.45 65.55 30.45 65.4 30.45 M63.15 30.3 L63.3 30.4 M66.95 30.8 L66.4 31.15 65.3 31.65 64.7 31.75 64.2 31.65 M64.5 30.95 L64.55 30.95 64.3 30.9 M65.6 31.1 L64.5 30.95 M60.75 29.95 L62.2 31.0 M67.8 29.1 Q66.9 30.0 65.75 30.4 M65.7 30.65 L67.3 29.9 M61.9 18.9 Q60.85 20.05 60.35 21.1 M69.6 23.95 L68.55 26.4" fill="none" stroke="#000000" stroke-linecap="round" stroke-linejoin="round" stroke-opacity="0.7019608" stroke-width="0.2"/>
    </g>
    <g id="shape7" transform="matrix(1.0, 0.0, 0.0, 1.0, -26.0, -36.0)">
      <path d="M27.95 36.85 Q28.2 39.0 29.75 40.9 28.15 41.85 27.4 43.5 26.15 42.05 26.15 40.25 26.15 38.05 27.25 37.2 L27.95 36.85 M65.55 37.6 Q67.65 38.35 67.65 40.0 67.65 42.5 65.75 44.2 L65.45 44.45 Q64.8 42.6 62.9 41.65 64.55 39.8 65.55 37.6" fill="#1e0000" fill-rule="evenodd" stroke="none"/>
      <path d="M62.0 42.5 L62.9 41.65 62.0 42.5 M39.35 37.25 L40.2 37.35 43.7 37.65 46.35 37.7 52.25 37.3 59.15 36.95 64.15 37.2 65.55 37.6 Q64.55 39.8 62.9 41.65 64.8 42.6 65.45 44.45 63.4 46.05 60.2 46.05 L53.9 45.4 48.25 44.7 42.6 45.75 39.9 46.35 38.75 45.1 Q38.55 46.35 37.8 46.7 L36.3 46.8 Q32.1 46.8 29.15 44.95 28.1 44.3 27.4 43.5 28.15 41.85 29.75 40.9 28.2 39.0 27.95 36.85 L31.8 36.15 37.15 36.95 37.35 37.0 38.05 38.55 39.35 37.25 M36.75 40.8 L35.8 41.7 Q34.3 42.8 32.3 43.2 30.75 42.1 29.75 40.9 30.75 42.1 32.3 43.2 34.3 42.8 35.8 41.7 L36.75 40.8 M51.85 42.4 L50.05 41.35 48.05 42.25 50.05 41.35 51.85 42.4 52.9 41.8 51.85 42.4 52.25 42.6 51.85 42.4 M36.75 43.1 L35.8 41.7 36.75 43.1" fill="#eae187" fill-rule="evenodd" stroke="none"/>
      <path d="M39.35 37.25 L38.05 38.55 37.35 37.0 39.35 37.25 M39.9 46.35 L37.8 46.7 Q38.55 46.35 38.75 45.1 L39.9 46.35" fill="#ff9966" fill-rule="evenodd" stroke="none"/>
      <path d="M62.9 41.65 L62.0 42.5 M65.55 37.6 L64.15 37.2 59.15 36.95 52.25 37.3 46.35 37.7 43.7 37.65 40.2 37.35 39.35 37.25 38.05 38.55 37.35 37.0 37.15 36.95 31.8 36.15 27.95 36.85 Q28.2 39.0 29.75 40.9 30.75 42.1 32.3 43.2 34.3 42.8 35.8 41.7 L36.75 40.8 M65.45 44.45 L65.75 44.2 Q67.65 42.5 67.65 40.0 67.65 38.35 65.55 37.6 64.55 39.8 62.9 41.65 64.8 42.6 65.45 44.45 63.4 46.05 60.2 46.05 L53.9 45.4 48.25 44.7 42.6 45.75 39.9 46.35 37.8 46.7 36.3 46.8 Q32.1 46.8 29.15 44.95 28.1 44.3 27.4 43.5 26.15 42.05 26.15 40.25 26.15 38.05 27.25 37.2 L27.95 36.85 M52.9 41.8 L51.85 42.4 52.25 42.6 M48.05 42.25 L50.05 41.35 51.85 42.4 M39.35 37.25 L37.35 37.0 M35.8 41.7 L36.75 43.1 M51.25 46.8 Q49.8 48.05 47.0 49.3 M49.5 49.85 L47.85 51.3 M37.8 46.7 Q38.55 46.35 38.75 45.1 L39.9 46.35 M29.75 40.9 Q28.15 41.85 27.4 43.5" fill="none" stroke="#000000" stroke-linecap="round" stroke-linejoin="round" stroke-opacity="0.4" stroke-width="0.30000000000000004"/>
    </g>
  </defs>
</svg>
