<?xml version="1.0" encoding="UTF-8" standalone="no"?>
<svg xmlns:xlink="http://www.w3.org/1999/xlink" height="531.5px" width="460.6px" xmlns="http://www.w3.org/2000/svg">
  <g transform="matrix(1.0, 0.0, 0.0, 1.0, 193.65, 334.05)">
    <use height="88.85" transform="matrix(1.496, 0.0, 0.0, 1.496, -69.024, -205.724)" width="89.55" xlink:href="#shape0"/>
  </g>
  <defs>
    <g id="shape0" transform="matrix(1.0, 0.0, 0.0, 1.0, 0.25, 0.25)">
      <path d="M77.45 79.9 L77.25 79.8 Q77.25 76.95 78.4 75.05 80.2 73.85 82.75 74.0 L83.3 74.3 Q81.5 78.05 77.45 79.9 M12.35 74.35 Q11.35 77.05 13.0 82.6 10.65 81.35 9.0 78.5 9.2 75.75 12.35 74.35 M32.7 83.45 Q33.55 85.45 32.7 87.25 L32.5 87.25 Q30.75 85.85 30.4 84.6 L32.1 83.35 32.7 83.45 M78.3 86.05 L76.25 84.8 Q76.9 83.3 78.15 82.7 L78.3 86.05 M53.15 84.15 Q54.1 85.55 52.65 87.25 50.35 87.2 49.55 85.85 50.55 84.15 53.15 84.15 M62.2 86.05 Q63.1 84.45 65.6 83.6 L69.55 83.35 Q68.35 85.0 65.8 86.05 L62.2 86.05" fill="#edaf7d" fill-rule="evenodd" stroke="none"/>
      <path d="M83.3 74.3 Q84.5 75.1 85.1 76.15 85.2 78.6 84.2 80.15 L77.45 79.9 Q81.5 78.05 83.3 74.3 M51.25 82.3 L50.55 82.45 46.15 80.55 47.6 79.25 51.15 82.3 51.25 82.3 M12.35 74.35 Q15.65 75.25 17.8 79.65 16.4 82.25 13.15 82.65 L13.0 82.6 Q11.35 77.05 12.35 74.35 M32.7 83.45 L37.05 83.95 36.65 85.8 Q35.05 87.35 32.7 87.25 33.55 85.45 32.7 83.45 M78.3 86.05 L78.15 82.7 78.3 82.5 Q79.9 82.7 80.45 84.4 79.6 85.9 78.3 86.05 M69.55 83.35 L68.6 86.0 Q67.8 87.75 65.1 88.35 62.45 87.3 62.2 86.05 L65.8 86.05 Q68.35 85.0 69.55 83.35" fill="#c1895c" fill-rule="evenodd" stroke="none"/>
      <path d="M67.05 25.05 Q65.65 26.5 65.65 28.5 65.65 30.5 67.05 31.9 68.5 33.35 70.5 33.35 72.5 33.35 73.9 31.9 75.35 30.5 75.35 28.5 75.35 26.5 73.9 25.05 72.5 23.65 70.5 23.65 68.5 23.65 67.05 25.05 M38.4 0.3 L42.5 0.05 Q60.15 -0.45 73.75 7.9 87.35 16.25 88.9 41.0 90.45 65.7 75.2 74.5 64.0 80.95 51.6 82.25 L51.45 82.3 51.35 82.3 51.25 82.3 51.15 82.3 47.6 79.25 46.15 80.55 43.95 82.55 42.4 82.5 Q24.85 81.7 12.45 71.1 0.0 60.45 0.0 42.9 0.0 25.35 12.4 12.9 15.55 9.75 19.05 7.4 L19.1 7.4 19.35 7.55 21.7 7.95 Q23.45 8.1 24.4 7.55 L25.95 6.25 Q26.5 5.55 27.6 5.85 L29.75 6.1 Q32.45 6.1 34.2 4.85 35.9 3.6 36.4 2.4 37.85 2.65 38.3 1.95 38.75 1.25 38.4 0.3 M28.8 21.55 Q26.8 21.55 25.35 22.95 23.95 24.4 23.95 26.4 23.95 28.4 25.35 29.8 26.8 31.25 28.8 31.25 30.8 31.25 32.2 29.8 33.65 28.4 33.65 26.4 33.65 24.4 32.2 22.95 30.8 21.55 28.8 21.55 M11.9 37.1 Q10.45 37.25 9.9 37.7 8.8 38.6 8.95 41.35 7.5 41.35 6.35 42.65 5.3 43.9 5.3 45.3 5.3 47.25 6.95 48.35 8.3 49.25 10.05 49.25 11.8 49.25 13.2 48.15 14.8 46.85 14.95 44.75 15.2 44.35 16.05 43.95 16.9 43.6 17.3 42.85 L18.45 40.05 Q18.45 39.15 17.3 37.35 L16.2 36.0 14.65 35.75 Q13.55 35.75 12.55 36.45 L11.9 37.1" fill="url(#gradient0)" fill-rule="evenodd" stroke="none"/>
      <path d="M67.05 25.05 Q68.5 23.65 70.5 23.65 72.5 23.65 73.9 25.05 75.35 26.5 75.35 28.5 75.35 30.5 73.9 31.9 72.5 33.35 70.5 33.35 68.5 33.35 67.05 31.9 65.65 30.5 65.65 28.5 65.65 26.5 67.05 25.05 M28.8 21.55 Q30.8 21.55 32.2 22.95 33.65 24.4 33.65 26.4 33.65 28.4 32.2 29.8 30.8 31.25 28.8 31.25 26.8 31.25 25.35 29.8 23.95 28.4 23.95 26.4 23.95 24.4 25.35 22.95 26.8 21.55 28.8 21.55" fill="#ffffff" fill-rule="evenodd" stroke="none"/>
      <path d="M19.1 7.4 Q23.05 6.95 24.7 4.5 31.4 4.25 34.1 1.1 36.6 1.8 38.4 0.3 38.75 1.25 38.3 1.95 37.85 2.65 36.4 2.4 35.9 3.6 34.2 4.85 32.45 6.1 29.75 6.1 L27.6 5.85 Q26.5 5.55 25.95 6.25 L24.4 7.55 Q23.45 8.1 21.7 7.95 L19.35 7.55 19.1 7.4 M11.9 37.1 L12.55 36.45 Q13.55 35.75 14.65 35.75 L16.2 36.0 17.3 37.35 Q18.45 39.15 18.45 40.05 L17.3 42.85 Q16.9 43.6 16.05 43.95 15.2 44.35 14.95 44.75 14.8 46.85 13.2 48.15 11.8 49.25 10.05 49.25 8.3 49.25 6.95 48.35 5.3 47.25 5.3 45.3 5.3 43.9 6.35 42.65 7.5 41.35 8.95 41.35 8.8 38.6 9.9 37.7 10.45 37.25 11.9 37.1 11.6 37.45 11.55 37.85 11.6 37.45 11.9 37.1" fill="#ffe298" fill-rule="evenodd" stroke="none"/>
      <path d="M83.3 74.3 Q84.5 75.1 85.1 76.15 85.2 78.6 84.2 80.15 L77.45 79.9 77.25 79.8 Q77.25 76.95 78.4 75.05 80.2 73.85 82.75 74.0 L83.3 74.3 Q81.5 78.05 77.45 79.9 M67.05 25.05 Q68.5 23.65 70.5 23.65 72.5 23.65 73.9 25.05 75.35 26.5 75.35 28.5 75.35 30.5 73.9 31.9 72.5 33.35 70.5 33.35 68.5 33.35 67.05 31.9 65.65 30.5 65.65 28.5 65.65 26.5 67.05 25.05 M38.4 0.3 L42.5 0.05 Q60.15 -0.45 73.75 7.9 87.35 16.25 88.9 41.0 90.45 65.7 75.2 74.5 64.0 80.95 51.6 82.25 L51.45 82.3 51.35 82.3 51.25 82.3 50.55 82.45 46.15 80.55 43.95 82.55 42.4 82.5 Q24.85 81.7 12.45 71.1 0.0 60.45 0.0 42.9 0.0 25.35 12.4 12.9 15.55 9.75 19.05 7.4 L19.1 7.4 Q23.05 6.95 24.7 4.5 31.4 4.25 34.1 1.1 36.6 1.8 38.4 0.3 38.75 1.25 38.3 1.95 37.85 2.65 36.4 2.4 35.9 3.6 34.2 4.85 32.45 6.1 29.75 6.1 L27.6 5.85 Q26.5 5.55 25.95 6.25 L24.4 7.55 Q23.45 8.1 21.7 7.95 L19.35 7.55 19.1 7.4 M28.8 21.55 Q30.8 21.55 32.2 22.95 33.65 24.4 33.65 26.4 33.65 28.4 32.2 29.8 30.8 31.25 28.8 31.25 26.8 31.25 25.35 29.8 23.95 28.4 23.95 26.4 23.95 24.4 25.35 22.95 26.8 21.55 28.8 21.55 M13.0 82.6 L13.15 82.65 Q16.4 82.25 17.8 79.65 15.65 75.25 12.35 74.35 11.35 77.05 13.0 82.6 10.65 81.35 9.0 78.5 9.2 75.75 12.35 74.35 M32.7 87.25 Q35.05 87.35 36.65 85.8 L37.05 83.95 32.7 83.45 Q33.55 85.45 32.7 87.25 L32.5 87.25 Q30.75 85.85 30.4 84.6 L32.1 83.35 32.7 83.45 M51.25 82.3 L51.15 82.3 47.6 79.25 46.15 80.55 M53.15 84.15 Q50.55 84.15 49.55 85.85 50.35 87.2 52.65 87.25 54.1 85.55 53.15 84.15 M78.15 82.7 Q76.9 83.3 76.25 84.8 L78.3 86.05 78.15 82.7 78.3 82.5 Q79.9 82.7 80.45 84.4 79.6 85.9 78.3 86.05 M62.2 86.05 Q63.1 84.45 65.6 83.6 L69.55 83.35 68.6 86.0 Q67.8 87.75 65.1 88.35 62.45 87.3 62.2 86.05 L65.8 86.05 Q68.35 85.0 69.55 83.35" fill="none" stroke="#000000" stroke-linecap="round" stroke-linejoin="round" stroke-opacity="0.4" stroke-width="0.5"/>
      <path d="M11.9 37.1 Q10.45 37.25 9.9 37.7 8.8 38.6 8.95 41.35 7.5 41.35 6.35 42.65 5.3 43.9 5.3 45.3 5.3 47.25 6.95 48.35 8.3 49.25 10.05 49.25 11.8 49.25 13.2 48.15 14.8 46.85 14.95 44.75 15.2 44.35 16.05 43.95 16.9 43.6 17.3 42.85 L18.45 40.05 Q18.45 39.15 17.3 37.35 L16.2 36.0 14.65 35.75 Q13.55 35.75 12.55 36.45 L11.9 37.1 Q11.6 37.45 11.55 37.85" fill="none" stroke="#000000" stroke-linecap="round" stroke-linejoin="round" stroke-opacity="0.21960784" stroke-width="0.5"/>
      <path d="M23.55 15.35 Q25.65 14.4 28.5 14.4 31.4 14.4 33.4 15.35 35.5 16.35 35.5 17.8 35.5 19.2 33.3 19.05 31.1 18.9 28.25 19.0 L23.45 19.15 Q21.5 19.2 21.5 17.8 21.5 16.35 23.55 15.35" fill="#aaffff" fill-rule="evenodd" stroke="none"/>
      <path d="M23.55 15.35 Q25.65 14.4 28.5 14.4 31.4 14.4 33.4 15.35 35.5 16.35 35.5 17.8 35.5 19.2 33.3 19.05 31.1 18.9 28.25 19.0 L23.45 19.15 Q21.5 19.2 21.5 17.8 21.5 16.35 23.55 15.35 Z" fill="none" stroke="#000000" stroke-linecap="round" stroke-linejoin="round" stroke-opacity="0.4" stroke-width="0.5"/>
      <path d="M70.45 15.1 Q73.3 15.1 75.4 16.05 77.45 17.05 77.45 18.5 77.45 19.9 75.5 19.85 L70.7 19.7 Q67.85 19.6 65.65 19.75 63.45 19.9 63.45 18.5 63.45 17.05 65.55 16.05 67.55 15.1 70.45 15.1" fill="#aaffff" fill-rule="evenodd" stroke="none"/>
      <path d="M70.45 15.1 Q67.55 15.1 65.55 16.05 63.45 17.05 63.45 18.5 63.45 19.9 65.65 19.75 67.85 19.6 70.7 19.7 L75.5 19.85 Q77.45 19.9 77.45 18.5 77.45 17.05 75.4 16.05 73.3 15.1 70.45 15.1 Z" fill="none" stroke="#000000" stroke-linecap="round" stroke-linejoin="round" stroke-opacity="0.4" stroke-width="0.5"/>
      <path d="M44.25 45.35 Q49.65 47.0 55.1 45.95 60.5 44.85 65.4 42.7 L68.95 42.2 Q71.9 42.2 73.55 43.2 75.45 44.4 75.45 46.8 75.45 52.65 69.35 57.15 62.7 62.1 52.6 62.1 46.35 62.1 37.35 59.55 23.3 55.6 23.3 48.25 23.3 45.4 24.95 43.4 26.85 41.1 30.2 41.1 L34.65 42.05 44.25 45.35 M63.7 55.7 L61.0 56.5 52.6 57.6 51.2 57.3 Q50.0 57.3 50.0 58.65 50.0 59.2 50.5 59.7 L51.4 60.1 54.0 60.2 Q57.95 60.2 61.7 59.2 65.95 58.05 65.95 56.5 65.95 55.25 63.7 55.7 M69.5 54.6 Q69.5 53.1 67.9 53.7 66.25 54.3 66.25 55.3 66.25 56.2 66.95 56.35 L67.4 56.45 Q68.3 56.4 68.95 55.75 69.5 55.15 69.5 54.6 M68.1 50.2 Q50.95 56.1 34.0 50.2 50.95 56.1 68.1 50.2" fill="#ff6666" fill-rule="evenodd" stroke="none"/>
      <path d="M69.5 54.6 Q69.5 55.15 68.95 55.75 68.3 56.4 67.4 56.45 L66.95 56.35 Q66.25 56.2 66.25 55.3 66.25 54.3 67.9 53.7 69.5 53.1 69.5 54.6 M63.7 55.7 Q65.95 55.25 65.95 56.5 65.95 58.05 61.7 59.2 57.95 60.2 54.0 60.2 L51.4 60.1 50.5 59.7 Q50.0 59.2 50.0 58.65 50.0 57.3 51.2 57.3 L52.6 57.6 61.0 56.5 63.7 55.7" fill="#ff8282" fill-rule="evenodd" stroke="none"/>
      <path d="M44.25 45.35 L34.65 42.05 30.2 41.1 Q26.85 41.1 24.95 43.4 23.3 45.4 23.3 48.25 23.3 55.6 37.35 59.55 46.35 62.1 52.6 62.1 62.7 62.1 69.35 57.15 75.45 52.65 75.45 46.8 75.45 44.4 73.55 43.2 71.9 42.2 68.95 42.2 L65.4 42.7 Q60.5 44.85 55.1 45.95 49.65 47.0 44.25 45.35" fill="none" stroke="#000000" stroke-linecap="round" stroke-linejoin="round" stroke-opacity="0.4" stroke-width="0.5"/>
      <path d="M34.0 50.2 Q50.95 56.1 68.1 50.2" fill="none" stroke="#000000" stroke-linecap="round" stroke-linejoin="round" stroke-opacity="0.3019608" stroke-width="0.5"/>
      <path d="M64.25 74.1 L67.6 73.4 Q68.4 72.85 68.95 73.2 69.4 73.45 69.4 73.9 69.4 74.55 68.5 75.15 67.55 75.75 66.4 75.75 L63.95 75.55 Q63.2 75.3 63.2 74.45 L63.25 74.1 63.3 74.1 64.25 74.1 M80.55 60.95 L79.95 61.85 79.0 62.45 Q78.55 62.45 78.45 62.1 L78.4 61.75 Q78.4 61.25 78.9 60.95 L80.0 60.25 80.55 60.95 M74.65 69.95 Q73.05 71.75 70.6 71.75 68.9 71.75 68.9 70.85 68.9 70.55 70.55 69.7 L72.85 68.45 73.2 67.7 Q73.5 67.05 73.85 66.95 L75.45 66.9 Q75.85 67.1 75.85 67.45 75.85 68.55 74.65 69.95 M80.15 67.9 Q79.3 69.0 78.2 69.35 77.7 68.85 77.7 68.1 77.7 67.6 79.3 65.9 80.9 64.25 80.9 66.25 80.9 66.95 80.15 67.9 M5.3 56.1 Q5.3 57.05 4.8 57.05 3.7 57.05 3.25 55.8 L3.0 54.45 Q3.0 51.95 3.7 51.55 4.25 52.4 5.3 56.1 M16.3 63.95 L15.4 64.2 Q13.9 64.2 13.15 62.5 L12.7 60.8 12.9 60.1 Q13.1 59.55 13.25 59.45 L14.55 61.25 15.8 62.25 Q16.7 62.85 16.7 63.25 16.7 63.7 16.3 63.95 M8.4 55.65 Q8.95 56.05 9.05 57.0 L9.25 58.6 10.35 60.0 Q11.25 61.05 11.25 61.6 11.25 62.45 10.2 62.75 8.9 62.05 8.15 60.7 7.55 59.6 7.55 58.65 7.55 55.95 8.4 55.65 M11.15 65.9 Q11.15 64.8 11.9 65.1 L13.55 66.4 Q14.8 67.2 16.55 67.7 17.45 67.95 17.45 68.7 L17.15 69.4 Q16.85 69.75 16.4 69.75 14.45 69.75 12.65 68.0 11.15 66.55 11.15 65.9 M22.9 74.2 Q22.05 74.2 21.7 73.5 L21.55 72.95 Q21.55 72.0 22.55 72.35 23.5 72.75 23.5 73.55 23.5 74.2 22.9 74.2 M32.7 70.3 Q35.25 71.15 35.25 72.1 L35.0 72.7 Q34.7 73.05 34.2 73.05 33.05 73.05 32.5 72.1 32.15 71.5 32.15 70.9 32.15 70.4 32.7 70.3 M35.0 75.65 L36.45 76.15 38.6 76.25 Q39.75 76.5 39.75 77.45 39.75 78.65 38.0 78.65 35.5 78.65 33.9 77.15 32.75 76.05 32.75 75.35 32.75 74.25 33.5 74.55 L35.0 75.65 M44.1 74.7 Q44.1 75.6 42.7 75.6 L40.95 75.4 Q40.15 75.05 40.15 74.5 40.15 73.85 40.75 73.85 L43.2 73.8 Q44.0 73.8 44.1 74.7 M44.4 78.6 Q43.5 78.6 42.95 78.05 43.35 77.4 44.3 77.2 45.3 77.05 45.3 77.9 45.3 78.6 44.4 78.6 M57.2 78.95 L56.0 78.7 55.55 78.25 Q56.05 77.5 56.8 77.5 57.25 77.5 58.0 78.05 L57.2 78.95" fill="#b78155" fill-rule="evenodd" stroke="none"/>
    </g>
    <linearGradient gradientTransform="matrix(-0.0086, 0.0321, -0.0487, -0.013, 37.4, 54.5)" gradientUnits="userSpaceOnUse" id="gradient0" spreadMethod="pad" x1="-819.2" x2="819.2">
      <stop offset="0.0196078431372549" stop-color="#edaf7d"/>
      <stop offset="1.0" stop-color="#d1915e"/>
    </linearGradient>
  </defs>
</svg>
