<?xml version="1.0" encoding="UTF-8" standalone="no"?>
<svg xmlns:xlink="http://www.w3.org/1999/xlink" height="531.5px" width="460.6px" xmlns="http://www.w3.org/2000/svg">
  <g transform="matrix(1.0, 0.0, 0.0, 1.0, 193.65, 334.05)">
    <use height="239.5" transform="matrix(0.8169, 0.0, 0.0, 0.8169, -79.9466, -270.1786)" width="188.55" xlink:href="#shape0"/>
  </g>
  <defs>
    <g id="shape0" transform="matrix(1.0, 0.0, 0.0, 1.0, 94.25, 119.75)">
      <path d="M7.7 -65.45 Q7.9 -68.15 12.1 -70.0 14.55 -71.1 17.2 -71.5 L18.7 -71.7 20.9 -71.8 23.15 -71.6 23.8 -71.45 26.4 -70.6 28.7 -69.8 Q32.6 -68.9 34.85 -67.2 37.5 -65.2 37.5 -62.4 L37.45 -61.05 37.3 -60.4 Q37.0 -59.6 35.9 -59.6 35.3 -59.6 33.25 -60.5 L31.2 -61.4 Q28.45 -61.4 27.15 -54.9 L26.3 -51.4 Q25.3 -48.4 24.0 -48.4 23.2 -48.4 22.15 -49.4 20.7 -50.7 19.5 -53.4 L18.3 -57.0 17.35 -58.7 Q16.75 -59.6 16.7 -60.0 16.3 -62.35 11.9 -63.05 7.7 -63.7 7.7 -65.2 L7.7 -65.45 M48.6 -31.45 L50.7 -30.6 Q55.1 -29.0 58.85 -26.85 63.7 -24.05 63.7 -22.2 L63.5 -21.4 61.7 -21.7 57.6 -22.5 51.5 -23.2 Q48.35 -23.2 47.85 -20.1 47.4 -17.0 46.7 -17.0 45.3 -17.0 42.5 -22.6 40.95 -25.8 38.3 -27.6 36.4 -28.85 30.6 -30.0 L29.2 -30.25 Q22.9 -31.35 22.9 -31.8 22.9 -32.7 28.9 -34.0 L34.1 -34.0 36.8 -34.4 Q40.65 -34.4 43.05 -33.6 L48.6 -31.45 M61.25 2.3 Q65.65 1.05 73.9 0.35 80.75 0.35 87.25 7.8 91.85 13.05 93.25 18.65 93.8 21.0 93.8 23.45 93.8 33.1 90.5 36.75 88.9 38.5 82.9 41.7 L76.45 42.7 78.25 49.0 Q79.35 53.2 79.35 57.45 L79.1 62.6 76.45 62.05 79.1 62.6 78.75 67.4 78.5 69.8 77.6 79.65 Q77.6 83.35 79.6 88.0 81.55 92.7 81.55 96.05 81.55 99.95 81.25 100.2 L76.3 100.9 Q77.1 104.45 75.8 109.1 74.85 107.0 72.75 105.7 74.35 107.85 74.7 112.4 73.9 114.55 72.4 117.05 70.4 116.4 66.5 115.5 L63.85 114.9 63.85 110.45 63.85 114.9 60.15 114.0 52.25 111.55 Q47.95 110.1 47.0 110.1 46.35 110.1 41.0 114.7 L40.1 115.5 Q35.4 119.25 33.0 119.25 31.3 119.25 20.9 113.35 L10.75 107.45 Q10.45 107.45 5.1 110.95 L3.85 111.75 3.85 109.25 3.85 111.75 Q-0.4 114.45 -1.3 114.45 -3.4 114.45 -7.6 110.75 L-14.2 104.4 Q-17.35 106.95 -29.55 111.9 L-31.15 108.45 -29.55 111.9 -40.85 116.2 Q-44.05 114.7 -47.25 109.65 L-51.8 102.2 Q-53.75 103.25 -62.25 106.15 L-65.55 106.75 -60.85 100.35 -70.8 107.3 -80.2 107.05 Q-80.35 104.35 -80.1 102.0 L-79.55 98.2 Q-78.65 94.2 -77.0 90.3 -75.4 86.35 -75.4 85.8 -75.4 83.9 -78.65 79.75 L-79.3 78.95 Q-83.25 74.2 -83.25 69.65 -83.25 63.5 -80.8 54.75 L-80.45 53.65 -76.05 39.5 Q-86.35 38.2 -90.35 31.95 -93.75 26.5 -93.75 14.1 -93.75 6.2 -89.8 1.65 -85.65 -3.15 -78.05 -3.15 -73.2 -3.15 -69.35 -1.75 L-68.05 -1.25 Q-64.45 0.35 -60.1 4.25 -59.0 2.25 -57.55 0.45 L-57.3 1.3 Q-57.95 10.05 -59.0 18.65 -61.7 40.85 -67.3 62.2 L-57.7 60.8 -51.3 71.6 Q-46.3 46.15 -46.25 18.65 L-46.25 18.1 -21.4 14.25 -23.1 15.7 -21.4 14.25 -17.1 13.6 Q-20.25 15.7 -17.9 18.65 L-15.2 21.15 Q-10.65 24.5 -6.6 19.7 L-7.4 18.65 Q-10.9 14.4 -14.2 13.15 L0.2 11.05 30.5 6.85 Q28.35 11.2 28.4 15.65 28.35 11.2 30.5 6.85 L57.4 3.35 57.45 3.45 57.55 3.9 Q58.0 3.55 58.65 3.3 59.7 2.75 61.25 2.3 M82.15 13.05 L81.25 13.05 81.05 13.1 81.05 13.05 81.25 13.05 81.05 13.05 81.05 13.1 Q75.7 13.6 73.6 18.05 L73.35 18.65 Q72.1 22.25 74.7 28.5 L74.85 28.85 74.95 29.05 75.85 29.05 81.55 23.45 85.5 18.65 Q86.85 16.65 86.85 15.55 86.85 14.8 85.55 14.2 L83.45 13.05 82.15 13.05 M75.05 29.3 L74.95 29.05 75.05 29.3 M76.45 42.7 L74.05 42.5 76.45 42.7 M32.3 18.65 L30.95 20.6 Q34.35 25.4 38.3 22.05 40.45 20.2 41.15 18.65 42.45 15.7 38.65 13.65 35.55 14.3 32.3 18.65 M30.5 21.2 L30.95 20.6 30.5 21.2 M27.9 24.45 Q25.15 23.65 21.65 23.65 L13.5 24.05 3.05 25.65 Q1.1 26.1 -0.4 27.95 -2.2 30.15 -2.2 33.25 -2.2 38.55 0.2 42.8 L1.15 44.35 Q3.6 47.8 6.95 49.0 8.5 48.6 9.3 47.65 10.1 46.65 12.3 46.65 L13.9 47.05 14.55 47.7 Q15.4 49.1 16.8 49.65 18.65 50.3 20.45 50.55 L21.25 50.6 23.8 50.65 26.0 50.6 26.95 50.45 Q28.2 49.9 28.5 48.55 28.75 47.2 29.8 47.4 L31.85 48.75 32.8 48.9 34.2 48.55 Q35.4 47.8 36.1 45.85 37.2 42.75 37.75 38.35 L37.8 36.85 Q37.65 33.05 34.5 28.8 32.75 26.5 30.05 25.25 L27.9 24.45 M2.3 16.95 L0.2 11.05 2.3 16.95 M36.1 88.65 L25.6 88.65 36.1 88.65 M38.7 82.55 Q31.45 81.7 13.5 82.1 -7.65 82.55 -10.7 85.15 -7.65 82.55 13.5 82.1 31.45 81.7 38.7 82.55 M78.75 67.4 L77.05 66.25 78.75 67.4 M49.65 86.0 L45.45 69.35 Q42.2 56.3 42.2 52.8 42.2 56.3 45.45 69.35 L49.65 86.0 M66.85 85.05 L61.25 78.05 66.85 85.05 M71.45 81.05 L66.25 79.65 71.45 81.05 M38.65 13.65 Q42.05 12.95 45.1 16.6 42.05 12.95 38.65 13.65 M58.85 101.05 L56.25 92.85 58.85 101.05 M40.1 115.5 L37.25 112.85 40.1 115.5 M-36.7 -60.1 L-35.65 -60.15 -33.65 -60.2 Q-22.3 -60.15 -16.1 -62.25 L-14.5 -62.9 -13.85 -63.1 -11.05 -63.65 -6.7 -63.2 Q-5.65 -62.95 -5.0 -62.45 -4.1 -61.75 -4.1 -60.75 -4.1 -60.05 -5.35 -58.6 -6.7 -57.0 -6.9 -56.1 -9.2 -48.2 -9.95 -48.2 -11.9 -48.2 -15.05 -49.9 -18.3 -51.6 -18.95 -51.6 L-21.4 -51.2 -22.95 -50.65 -24.35 -49.0 Q-25.25 -47.95 -25.7 -47.85 L-29.15 -47.85 Q-31.35 -47.85 -31.85 -46.35 L-31.85 -37.3 Q-31.85 -34.7 -32.4 -31.4 -33.25 -26.0 -35.0 -26.0 -37.6 -26.0 -40.1 -35.2 -42.6 -44.45 -44.6 -44.45 -53.3 -44.45 -57.5 -37.85 L-59.8 -33.35 Q-60.85 -31.25 -61.75 -31.25 -62.5 -31.25 -63.1 -31.9 L-63.7 -32.75 -64.7 -35.6 Q-65.5 -38.7 -65.5 -41.25 -65.5 -44.85 -64.3 -46.6 -63.6 -47.6 -59.95 -50.45 -59.2 -51.15 -56.45 -51.75 -53.75 -52.35 -52.85 -53.1 L-48.5 -57.25 Q-45.5 -59.85 -36.7 -60.1 M-6.15 20.3 L-6.6 19.7 -6.15 20.3 M-70.2 29.1 Q-68.0 21.45 -69.7 17.95 -71.8 13.4 -78.75 13.05 L-79.5 13.0 -78.75 13.05 -81.4 14.8 Q-83.15 15.95 -83.15 16.85 -83.15 18.45 -76.6 23.6 -71.85 27.35 -70.2 29.1 L-70.3 29.4 -70.2 29.1 M-76.05 39.5 L-74.1 39.7 -76.05 39.5 M-76.75 52.65 L-80.45 53.65 -76.75 52.65 M-47.95 83.45 L-55.95 83.45 -47.95 83.45 M-76.35 75.65 L-78.65 79.75 -76.35 75.65 M-14.6 81.2 L-9.85 66.3 Q-6.75 56.35 -5.85 51.85 -6.75 56.35 -9.85 66.3 L-14.6 81.2 M-5.5 49.75 L-5.65 50.5 -5.85 51.85 -5.5 49.75 -5.45 49.35 -5.5 49.75 M-34.15 94.45 L-39.75 98.25 -34.15 94.45 M-52.15 95.45 L-56.15 99.25 -52.15 95.45 M-76.95 99.65 L-80.1 102.0 -76.95 99.65" fill="#ffffff" fill-rule="evenodd" stroke="none"/>
      <path d="M37.45 -61.05 Q41.25 -57.3 43.3 -50.95 46.4 -41.4 48.6 -31.45 L43.05 -33.6 Q40.65 -34.4 36.8 -34.4 L34.1 -34.0 28.9 -34.0 Q22.9 -32.7 22.9 -31.8 22.9 -31.35 29.2 -30.25 L30.6 -30.0 Q36.4 -28.85 38.3 -27.6 40.95 -25.8 42.5 -22.6 45.3 -17.0 46.7 -17.0 47.4 -17.0 47.85 -20.1 48.35 -23.2 51.5 -23.2 L57.6 -22.5 61.7 -21.7 Q67.9 -18.05 72.55 -12.7 71.05 -11.4 68.85 -10.75 L65.05 -9.7 59.5 -12.6 60.7 -9.1 57.95 -9.15 51.7 -9.45 48.15 -9.75 Q47.7 -9.75 45.65 -7.35 L44.9 -6.5 -7.85 -2.5 -10.05 -2.3 -11.1 -2.85 -14.75 -4.55 Q-15.15 -4.55 -16.3 -3.65 -17.5 -2.75 -18.55 -2.75 L-20.55 -3.05 -22.35 -3.35 Q-23.15 -3.35 -24.75 -2.25 -26.35 -1.15 -27.25 -1.15 -29.3 -1.15 -32.75 -3.35 -35.85 -5.55 -36.15 -5.55 L-39.5 -3.15 Q-42.65 -0.75 -47.15 -0.75 -52.55 -0.75 -56.2 -3.2 -58.0 -4.4 -59.45 -6.2 -62.1 -16.25 -63.1 -24.55 L-57.8 -27.4 -63.55 -29.55 -63.65 -31.05 -63.7 -32.75 -63.1 -31.9 Q-62.5 -31.25 -61.75 -31.25 -60.85 -31.25 -59.8 -33.35 L-57.5 -37.85 Q-53.3 -44.45 -44.6 -44.45 -42.6 -44.45 -40.1 -35.2 -37.6 -26.0 -35.0 -26.0 -33.25 -26.0 -32.4 -31.4 -31.85 -34.7 -31.85 -37.3 L-31.85 -46.35 Q-31.35 -47.85 -29.15 -47.85 L-25.7 -47.85 Q-25.25 -47.95 -24.35 -49.0 L-22.95 -50.65 -21.4 -51.2 -18.95 -51.6 Q-18.3 -51.6 -15.05 -49.9 -11.9 -48.2 -9.95 -48.2 -9.2 -48.2 -6.9 -56.1 -6.7 -57.0 -5.35 -58.6 -4.1 -60.05 -4.1 -60.75 -4.1 -61.75 -5.0 -62.45 -5.65 -62.95 -6.7 -63.2 L-5.0 -63.5 -2.6 -63.95 7.7 -65.45 7.7 -65.2 Q7.7 -63.7 11.9 -63.05 16.3 -62.35 16.7 -60.0 16.75 -59.6 17.35 -58.7 L18.3 -57.0 19.5 -53.4 Q20.7 -50.7 22.15 -49.4 23.2 -48.4 24.0 -48.4 25.3 -48.4 26.3 -51.4 L27.15 -54.9 Q28.45 -61.4 31.2 -61.4 L33.25 -60.5 Q35.3 -59.6 35.9 -59.6 37.0 -59.6 37.3 -60.4 L37.45 -61.05 M31.7 -49.6 Q28.7 -50.3 26.3 -51.4 28.7 -50.3 31.7 -49.6 M30.6 -30.0 L22.55 -30.1 30.6 -30.0 M20.85 -30.05 Q18.35 -30.45 16.0 -31.45 L15.2 -31.05 12.65 -31.1 Q11.35 -31.85 10.6 -33.15 9.3 -29.45 5.8 -30.9 1.55 -32.6 0.25 -37.05 L0.3 -35.35 Q0.3 -29.65 -3.5 -25.55 8.25 -29.5 20.85 -30.05 M-17.1 -19.75 Q-10.45 -23.25 -3.5 -25.55 -10.45 -23.25 -17.1 -19.75 M41.5 -44.2 Q35.15 -39.55 26.5 -43.4 35.15 -39.55 41.5 -44.2" fill="#3a3a24" fill-rule="evenodd" stroke="none"/>
      <path d="M72.55 -12.7 L75.9 -8.4 68.6 -7.85 65.05 -9.7 68.85 -10.75 Q71.05 -11.4 72.55 -12.7 M60.7 -9.1 L61.3 -7.35 56.15 -7.35 49.9 -6.85 44.9 -6.5 45.65 -7.35 Q47.7 -9.75 48.15 -9.75 L51.7 -9.45 57.95 -9.15 60.7 -9.1 M-3.5 -25.55 Q0.3 -29.65 0.3 -35.35 L0.25 -37.05 Q1.55 -32.6 5.8 -30.9 9.3 -29.45 10.6 -33.15 11.35 -31.85 12.65 -31.1 L15.2 -31.05 16.0 -31.45 Q18.35 -30.45 20.85 -30.05 8.25 -29.5 -3.5 -25.55 M-59.45 -6.2 Q-58.0 -4.4 -56.2 -3.2 -52.55 -0.75 -47.15 -0.75 -42.65 -0.75 -39.5 -3.15 L-36.15 -5.55 Q-35.85 -5.55 -32.75 -3.35 -29.3 -1.15 -27.25 -1.15 -26.35 -1.15 -24.75 -2.25 -23.15 -3.35 -22.35 -3.35 L-20.55 -3.05 -18.55 -2.75 Q-17.5 -2.75 -16.3 -3.65 -15.15 -4.55 -14.75 -4.55 L-11.1 -2.85 -10.05 -2.3 -15.0 -1.95 -20.9 -1.5 -46.75 0.5 -57.3 1.3 -57.55 0.45 -58.8 -3.95 -59.45 -6.2" fill="#515132" fill-rule="evenodd" stroke="none"/>
      <path d="M44.9 -6.5 L49.9 -6.85 Q51.8 -5.55 53.3 -3.95 56.2 -0.8 57.4 3.35 L30.5 6.85 0.2 11.05 -1.55 6.65 Q-4.3 0.05 -7.85 -2.5 -4.3 0.05 -1.55 6.65 L0.2 11.05 -14.2 13.15 -15.6 12.75 -17.1 13.6 -21.4 14.25 -46.25 18.1 Q-46.25 9.4 -46.75 0.5 L-20.9 -1.5 -15.0 -1.95 -10.05 -2.3 -7.85 -2.5 44.9 -6.5 M34.1 0.8 L31.1 5.6 30.5 6.85 31.1 5.6 34.1 0.8 M-15.6 12.75 Q-18.6 12.2 -21.4 14.25 -18.6 12.2 -15.6 12.75" fill="url(#gradient0)" fill-rule="evenodd" stroke="none"/>
      <path d="M56.15 -7.35 L57.85 -3.95 61.25 2.3 Q59.7 2.75 58.65 3.3 58.0 3.55 57.55 3.9 L57.45 3.45 57.4 3.35 Q56.2 -0.8 53.3 -3.95 51.8 -5.55 49.9 -6.85 L56.15 -7.35" fill="#483122" fill-rule="evenodd" stroke="none"/>
      <path d="M81.05 13.1 L81.25 13.05 82.15 13.05 83.45 13.05 85.55 14.2 Q86.85 14.8 86.85 15.55 86.85 16.65 85.5 18.65 L81.55 23.45 75.85 29.05 74.95 29.05 74.85 28.85 74.7 28.5 Q72.1 22.25 73.35 18.65 L73.6 18.05 Q75.7 13.6 81.05 13.1 L81.05 13.45 81.05 13.1 M79.25 22.15 Q78.75 19.65 77.1 18.65 75.75 17.8 73.6 18.05 75.75 17.8 77.1 18.65 78.75 19.65 79.25 22.15 M-78.75 13.05 Q-71.8 13.4 -69.7 17.95 -68.0 21.45 -70.2 29.1 -71.85 27.35 -76.6 23.6 -83.15 18.45 -83.15 16.85 -83.15 15.95 -81.4 14.8 L-78.75 13.05 M-76.0 22.15 Q-74.8 17.55 -69.7 17.95 -74.8 17.55 -76.0 22.15" fill="#efefef" fill-rule="evenodd" stroke="none"/>
      <path d="M32.3 18.65 Q35.55 14.3 38.65 13.65 42.45 15.7 41.15 18.65 40.45 20.2 38.3 22.05 34.35 25.4 30.95 20.6 L32.3 18.65 M-15.6 12.75 L-14.2 13.15 Q-10.9 14.4 -7.4 18.65 L-6.6 19.7 Q-10.65 24.5 -15.2 21.15 L-17.9 18.65 Q-20.25 15.7 -17.1 13.6 L-15.6 12.75" fill="#000000" fill-rule="evenodd" stroke="none"/>
      <path d="M27.9 24.45 L30.05 25.25 Q32.75 26.5 34.5 28.8 37.65 33.05 37.8 36.85 L37.75 38.35 Q37.2 42.75 36.1 45.85 35.4 47.8 34.2 48.55 L32.8 48.9 31.85 48.75 29.8 47.4 Q28.75 47.2 28.5 48.55 28.2 49.9 26.95 50.45 L26.0 50.6 23.8 50.65 21.25 50.6 20.45 50.55 Q18.65 50.3 16.8 49.65 15.4 49.1 14.55 47.7 L13.9 47.05 12.3 46.65 Q10.1 46.65 9.3 47.65 8.5 48.6 6.95 49.0 3.6 47.8 1.15 44.35 L0.2 42.8 Q-2.2 38.55 -2.2 33.25 -2.2 30.15 -0.4 27.95 1.1 26.1 3.05 25.65 L13.5 24.05 21.65 23.65 Q25.15 23.65 27.9 24.45 M3.55 36.5 Q3.55 37.25 4.2 37.85 L6.05 39.45 Q6.75 40.1 9.65 41.55 L12.45 42.85 13.75 43.35 14.1 43.55 Q13.55 41.35 11.15 37.75 9.95 35.9 8.65 35.4 L5.75 35.05 Q3.55 35.05 3.55 36.5 M14.1 43.55 Q14.4 44.85 14.1 45.65 14.4 44.85 14.1 43.55 M35.25 35.65 L35.25 34.75 Q34.9 34.9 34.65 35.15 32.9 36.65 31.8 41.95 L31.8 42.6 33.45 40.45 34.55 38.5 Q35.15 37.25 35.25 35.65 M31.25 44.95 L31.65 42.8 31.8 42.6 31.65 42.8 31.25 44.95" fill="#2b1610" fill-rule="evenodd" stroke="none"/>
      <path d="M3.55 36.5 Q3.55 35.05 5.75 35.05 L8.65 35.4 Q9.95 35.9 11.15 37.75 13.55 41.35 14.1 43.55 L13.75 43.35 12.45 42.85 9.65 41.55 Q6.75 40.1 6.05 39.45 L4.2 37.85 Q3.55 37.25 3.55 36.5 M35.25 35.65 L34.65 35.15 35.25 35.65 Q35.15 37.25 34.55 38.5 L33.45 40.45 31.8 42.6 31.8 41.95 Q32.9 36.65 34.65 35.15 34.9 34.9 35.25 34.75 L35.25 35.65" fill="#0f0705" fill-rule="evenodd" stroke="none"/>
      <path d="M-36.7 -60.1 L-35.95 -61.1 -34.4 -62.8 -31.2 -65.1 Q-27.35 -67.35 -21.95 -68.2 L-21.8 -68.2 Q-17.0 -68.95 -12.7 -68.25 -10.1 -67.85 -7.7 -66.95 -4.5 -65.7 -2.6 -63.95 L-5.0 -63.5 -6.7 -63.2 -11.05 -63.65 -13.85 -63.1 -14.5 -62.9 -16.1 -62.25 Q-22.3 -60.15 -33.65 -60.2 L-35.65 -60.15 -36.7 -60.1" fill="url(#gradient1)" fill-rule="evenodd" stroke="none"/>
      <path d="M-21.8 -68.2 L-21.95 -68.2 Q-27.35 -67.35 -31.2 -65.1 L-41.1 -72.2 -23.9 -82.2 -21.8 -68.2" fill="#4f4f4f" fill-rule="evenodd" stroke="none"/>
      <path d="M-12.7 -68.25 Q-17.0 -68.95 -21.8 -68.2 L-23.9 -82.2 -8.5 -78.6 -12.7 -68.25" fill="#7a7a7a" fill-rule="evenodd" stroke="none"/>
      <path d="M-35.1 -119.25 L-8.5 -78.6 -23.9 -82.2 -35.1 -119.25" fill="#c9c9c9" fill-rule="evenodd" stroke="none"/>
      <path d="M-41.1 -72.2 L-35.1 -119.25 -23.9 -82.2 -41.1 -72.2" fill="#b5b5b5" fill-rule="evenodd" stroke="none"/>
      <path d="M-46.75 0.5 Q-46.25 9.4 -46.25 18.1 L-46.25 18.65 Q-46.3 46.15 -51.3 71.6 L-57.7 60.8 -67.3 62.2 Q-61.7 40.85 -59.0 18.65 -57.95 10.05 -57.3 1.3 L-46.75 0.5 M-54.0 22.5 Q-54.5 23.15 -54.6 24.1 -54.8 25.05 -54.5 25.7 -54.15 26.45 -53.6 26.5 -53.0 26.6 -52.55 25.95 -52.0 25.4 -51.85 24.5 -51.7 23.55 -52.05 22.8 -52.3 22.15 -52.9 22.05 -53.45 21.95 -54.0 22.5 M-54.15 47.25 Q-53.95 45.7 -54.45 44.5 -54.85 43.4 -55.7 43.3 -56.55 43.15 -57.35 44.05 -58.1 45.1 -58.3 46.65 -58.55 48.2 -58.1 49.25 -57.6 50.45 -56.75 50.6 -55.9 50.7 -55.2 49.7 -54.4 48.8 -54.15 47.25 M-54.3 31.9 Q-54.95 31.75 -55.55 32.45 -56.15 33.3 -56.3 34.5 -56.5 35.7 -56.15 36.55 -55.75 37.45 -55.1 37.6 -54.45 37.65 -53.9 36.9 -53.25 36.2 -53.05 34.95 -52.9 33.75 -53.3 32.8 -53.6 31.95 -54.3 31.9" fill="url(#gradient2)" fill-rule="evenodd" stroke="none"/>
      <path d="M-54.0 22.5 Q-53.45 21.95 -52.9 22.05 -52.3 22.15 -52.05 22.8 -51.7 23.55 -51.85 24.5 -52.0 25.4 -52.55 25.95 -53.0 26.6 -53.6 26.5 -54.15 26.45 -54.5 25.7 -54.8 25.05 -54.6 24.1 -54.5 23.15 -54.0 22.5 M-54.3 31.9 Q-53.6 31.95 -53.3 32.8 -52.9 33.75 -53.05 34.95 -53.25 36.2 -53.9 36.9 -54.45 37.65 -55.1 37.6 -55.75 37.45 -56.15 36.55 -56.5 35.7 -56.3 34.5 -56.15 33.3 -55.55 32.45 -54.95 31.75 -54.3 31.9 M-54.15 47.25 Q-54.4 48.8 -55.2 49.7 -55.9 50.7 -56.75 50.6 -57.6 50.45 -58.1 49.25 -58.55 48.2 -58.3 46.65 -58.1 45.1 -57.35 44.05 -56.55 43.15 -55.7 43.3 -54.85 43.4 -54.45 44.5 -53.95 45.7 -54.15 47.25" fill="#332218" fill-rule="evenodd" stroke="none"/>
      <path d="M7.7 -65.45 Q7.9 -68.15 12.1 -70.0 14.55 -71.1 17.2 -71.5 L18.7 -71.7 23.15 -71.6 23.8 -71.45 26.4 -70.6 28.7 -69.8 Q32.6 -68.9 34.85 -67.2 37.5 -65.2 37.5 -62.4 L37.45 -61.05 37.3 -60.4 Q37.0 -59.6 35.9 -59.6 35.3 -59.6 33.25 -60.5 L31.2 -61.4 Q28.45 -61.4 27.15 -54.9 L26.3 -51.4 Q25.3 -48.4 24.0 -48.4 23.2 -48.4 22.15 -49.4 20.7 -50.7 19.5 -53.4 L18.3 -57.0 17.35 -58.7 Q16.75 -59.6 16.7 -60.0 16.3 -62.35 11.9 -63.05 7.7 -63.7 7.7 -65.2 L7.7 -65.45 M48.6 -31.45 L50.7 -30.6 Q55.1 -29.0 58.85 -26.85 63.7 -24.05 63.7 -22.2 L63.5 -21.4 61.7 -21.7 57.6 -22.5 51.5 -23.2 Q48.35 -23.2 47.85 -20.1 47.4 -17.0 46.7 -17.0 45.3 -17.0 42.5 -22.6 40.95 -25.8 38.3 -27.6 36.4 -28.85 30.6 -30.0 L29.2 -30.25 Q22.9 -31.35 22.9 -31.8 22.9 -32.7 28.9 -34.0 L34.1 -34.0 36.8 -34.4 Q40.65 -34.4 43.05 -33.6 L48.6 -31.45 M23.15 -71.6 L20.9 -71.8 18.7 -71.7 M-36.7 -60.1 L-35.65 -60.15 -33.65 -60.2 Q-22.3 -60.15 -16.1 -62.25 L-14.5 -62.9 -13.85 -63.1 -11.05 -63.65 -6.7 -63.2 Q-5.65 -62.95 -5.0 -62.45 -4.1 -61.75 -4.1 -60.75 -4.1 -60.05 -5.35 -58.6 -6.7 -57.0 -6.9 -56.1 -9.2 -48.2 -9.95 -48.2 -11.9 -48.2 -15.05 -49.9 -18.3 -51.6 -18.95 -51.6 L-21.4 -51.2 -22.95 -50.65 -24.35 -49.0 Q-25.25 -47.95 -25.7 -47.85 L-29.15 -47.85 Q-31.35 -47.85 -31.85 -46.35 L-31.85 -37.3 Q-31.85 -34.7 -32.4 -31.4 -33.25 -26.0 -35.0 -26.0 -37.6 -26.0 -40.1 -35.2 -42.6 -44.45 -44.6 -44.45 -53.3 -44.45 -57.5 -37.85 L-59.8 -33.35 Q-60.85 -31.25 -61.75 -31.25 -62.5 -31.25 -63.1 -31.9 L-63.7 -32.75 -64.7 -35.6 Q-65.5 -38.7 -65.5 -41.25 -65.5 -44.85 -64.3 -46.6 -63.6 -47.6 -59.95 -50.45 -59.2 -51.15 -56.45 -51.75 -53.75 -52.35 -52.85 -53.1 L-48.5 -57.25 Q-45.5 -59.85 -36.7 -60.1" fill="none" stroke="#0099ff" stroke-linecap="round" stroke-linejoin="round" stroke-opacity="0.4509804" stroke-width="1.0"/>
      <path d="M37.45 -61.05 Q41.25 -57.3 43.3 -50.95 46.4 -41.4 48.6 -31.45 M61.7 -21.7 Q67.9 -18.05 72.55 -12.7 L75.9 -8.4 68.6 -7.85 65.05 -9.7 59.5 -12.6 60.7 -9.1 61.3 -7.35 56.15 -7.35 57.85 -3.95 61.25 2.3 Q65.65 1.05 73.9 0.35 80.75 0.35 87.25 7.8 91.85 13.05 93.25 18.65 93.8 21.0 93.8 23.45 93.8 33.1 90.5 36.75 88.9 38.5 82.9 41.7 L76.45 42.7 78.25 49.0 Q79.35 53.2 79.35 57.45 L79.1 62.6 78.75 67.4 78.5 69.8 77.6 79.65 Q77.6 83.35 79.6 88.0 81.55 92.7 81.55 96.05 81.55 99.95 81.25 100.2 L76.3 100.9 Q77.1 104.45 75.8 109.1 74.85 107.0 72.75 105.7 74.35 107.85 74.7 112.4 73.9 114.55 72.4 117.05 70.4 116.4 66.5 115.5 L63.85 114.9 60.15 114.0 52.25 111.55 Q47.95 110.1 47.0 110.1 46.35 110.1 41.0 114.7 L40.1 115.5 Q35.4 119.25 33.0 119.25 31.3 119.25 20.9 113.35 L10.75 107.45 Q10.45 107.45 5.1 110.95 L3.85 111.75 Q-0.4 114.45 -1.3 114.45 -3.4 114.45 -7.6 110.75 L-14.2 104.4 Q-17.35 106.95 -29.55 111.9 L-40.85 116.2 Q-44.05 114.7 -47.25 109.65 L-51.8 102.2 Q-53.75 103.25 -62.25 106.15 L-65.55 106.75 -60.85 100.35 -70.8 107.3 -80.2 107.05 Q-80.35 104.35 -80.1 102.0 L-79.55 98.2 Q-78.65 94.2 -77.0 90.3 -75.4 86.35 -75.4 85.8 -75.4 83.9 -78.65 79.75 L-79.3 78.95 Q-83.25 74.2 -83.25 69.65 -83.25 63.5 -80.8 54.75 L-80.45 53.65 -76.05 39.5 Q-86.35 38.2 -90.35 31.95 -93.75 26.5 -93.75 14.1 -93.75 6.2 -89.8 1.65 -85.65 -3.15 -78.05 -3.15 -73.2 -3.15 -69.35 -1.75 L-68.05 -1.25 Q-64.45 0.35 -60.1 4.25 -59.0 2.25 -57.55 0.45 L-58.8 -3.95 -59.45 -6.2 Q-62.1 -16.25 -63.1 -24.55 L-57.8 -27.4 -63.55 -29.55 -63.65 -31.05 -63.7 -32.75 M26.3 -51.4 Q28.7 -50.3 31.7 -49.6 M22.55 -30.1 L30.6 -30.0 M20.85 -30.05 Q8.25 -29.5 -3.5 -25.55 -10.45 -23.25 -17.1 -19.75 M44.9 -6.5 L49.9 -6.85 56.15 -7.35 M44.9 -6.5 L-7.85 -2.5 Q-4.3 0.05 -1.55 6.65 L0.2 11.05 2.3 16.95 M30.5 6.85 L31.1 5.6 34.1 0.8 M49.9 -6.85 Q51.8 -5.55 53.3 -3.95 56.2 -0.8 57.4 3.35 L57.45 3.45 57.55 3.9 Q58.0 3.55 58.65 3.3 59.7 2.75 61.25 2.3 M26.5 -43.4 Q35.15 -39.55 41.5 -44.2 M82.15 13.05 L81.25 13.05 81.05 13.1 Q75.7 13.6 73.6 18.05 75.75 17.8 77.1 18.65 78.75 19.65 79.25 22.15 M74.95 29.05 L75.05 29.3 M73.6 18.05 L73.35 18.65 Q72.1 22.25 74.7 28.5 M74.85 28.85 L74.95 29.05 M74.05 42.5 L76.45 42.7 M32.3 18.65 L30.95 20.6 Q34.35 25.4 38.3 22.05 40.45 20.2 41.15 18.65 42.45 15.7 38.65 13.65 35.55 14.3 32.3 18.65 M30.95 20.6 L30.5 21.2 M30.5 6.85 Q28.35 11.2 28.4 15.65 M27.9 24.45 L30.05 25.25 Q32.75 26.5 34.5 28.8 37.65 33.05 37.8 36.85 L37.75 38.35 Q37.2 42.75 36.1 45.85 35.4 47.8 34.2 48.55 L32.8 48.9 31.85 48.75 29.8 47.4 Q28.75 47.2 28.5 48.55 28.2 49.9 26.95 50.45 L26.0 50.6 23.8 50.65 21.25 50.6 20.45 50.55 Q18.65 50.3 16.8 49.65 15.4 49.1 14.55 47.7 L13.9 47.05 12.3 46.65 Q10.1 46.65 9.3 47.65 8.5 48.6 6.95 49.0 3.6 47.8 1.15 44.35 L0.2 42.8 Q-2.2 38.55 -2.2 33.25 -2.2 30.15 -0.4 27.95 1.1 26.1 3.05 25.65 L13.5 24.05 21.65 23.65 Q25.15 23.65 27.9 24.45 M3.55 36.5 Q3.55 37.25 4.2 37.85 L6.05 39.45 Q6.75 40.1 9.65 41.55 L12.45 42.85 13.75 43.35 14.1 43.55 Q13.55 41.35 11.15 37.75 9.95 35.9 8.65 35.4 L5.75 35.05 Q3.55 35.05 3.55 36.5 M14.1 45.65 Q14.4 44.85 14.1 43.55 M35.25 34.75 Q34.9 34.9 34.65 35.15 32.9 36.65 31.8 41.95 L31.8 42.6 33.45 40.45 34.55 38.5 Q35.15 37.25 35.25 35.65 M31.8 42.6 L31.65 42.8 31.25 44.95 M-10.7 85.15 Q-7.65 82.55 13.5 82.1 31.45 81.7 38.7 82.55 M25.6 88.65 L36.1 88.65 M42.2 52.8 Q42.2 56.3 45.45 69.35 L49.65 86.0 M45.1 16.6 Q42.05 12.95 38.65 13.65 M-31.2 -65.1 L-34.4 -62.8 -35.95 -61.1 -36.7 -60.1 M-6.7 -63.2 L-5.0 -63.5 -2.6 -63.95 Q-4.5 -65.7 -7.7 -66.95 -10.1 -67.85 -12.7 -68.25 -17.0 -68.95 -21.8 -68.2 L-21.95 -68.2 Q-27.35 -67.35 -31.2 -65.1 L-41.1 -72.2 -35.1 -119.25 -8.5 -78.6 -12.7 -68.25 M-10.05 -2.3 L-7.85 -2.5 M-10.05 -2.3 L-15.0 -1.95 -20.9 -1.5 -46.75 0.5 Q-46.25 9.4 -46.25 18.1 L-46.25 18.65 Q-46.3 46.15 -51.3 71.6 L-57.7 60.8 -67.3 62.2 Q-61.7 40.85 -59.0 18.65 -57.95 10.05 -57.3 1.3 L-46.75 0.5 M-21.4 14.25 Q-18.6 12.2 -15.6 12.75 L-14.2 13.15 Q-10.9 14.4 -7.4 18.65 L-6.6 19.7 -6.15 20.3 M-15.6 12.75 L-17.1 13.6 Q-20.25 15.7 -17.9 18.65 L-15.2 21.15 Q-10.65 24.5 -6.6 19.7 M-21.4 14.25 L-23.1 15.7 M-57.3 1.3 L-57.55 0.45 M-78.75 13.05 Q-71.8 13.4 -69.7 17.95 -68.0 21.45 -70.2 29.1 L-70.3 29.4 M-69.7 17.95 Q-74.8 17.55 -76.0 22.15 M-79.5 13.0 L-78.75 13.05 M-74.1 39.7 L-76.05 39.5 M-5.85 51.85 Q-6.75 56.35 -9.85 66.3 L-14.6 81.2 M-5.85 51.85 L-5.65 50.5 -5.5 49.75 -5.45 49.35 M-5.5 49.75 L-5.85 51.85 M-2.6 -63.95 L7.7 -65.45" fill="none" stroke="#000000" stroke-linecap="round" stroke-linejoin="round" stroke-opacity="0.4509804" stroke-width="1.0"/>
      <path d="M81.05 13.1 L81.05 13.45 M81.05 13.1 L81.05 13.05 81.25 13.05" fill="none" stroke="#0000ff" stroke-linecap="round" stroke-linejoin="round" stroke-opacity="0.2509804" stroke-width="0.7000000000000001"/>
      <path d="M34.65 35.15 L35.25 35.65" fill="none" stroke="#000000" stroke-linecap="round" stroke-linejoin="round" stroke-opacity="0.2" stroke-width="0.7000000000000001"/>
      <path d="M79.1 62.6 L81.45 63.05 M76.45 62.05 L79.1 62.6 M78.75 67.4 L82.85 70.25 M63.85 114.9 L63.85 119.25 M77.05 66.25 L78.75 67.4 M66.25 79.65 L71.45 81.05 M61.25 78.05 L66.85 85.05 M63.85 110.45 L63.85 114.9 M40.1 115.5 L43.25 118.45 M3.85 111.75 L3.85 114.05 M37.25 112.85 L40.1 115.5 M3.85 111.75 L3.85 109.25 M56.25 92.85 L58.85 101.05 M-80.45 53.65 L-76.75 52.65 M-80.45 53.65 L-85.55 55.05 M-78.65 79.75 L-80.15 82.45 M-78.65 79.75 L-76.35 75.65 M-55.95 83.45 L-47.95 83.45 M-39.75 98.25 L-34.15 94.45 M-29.55 111.9 L-27.95 115.45 M-31.15 108.45 L-29.55 111.9 M-80.1 102.0 L-82.15 103.45 M-80.1 102.0 L-76.95 99.65 M-56.15 99.25 L-52.15 95.45" fill="none" stroke="#000000" stroke-linecap="round" stroke-linejoin="round" stroke-opacity="0.14901961" stroke-width="0.7000000000000001"/>
      <path d="M-21.8 -68.2 L-23.9 -82.2 -41.1 -72.2 M-8.5 -78.6 L-23.9 -82.2 -35.1 -119.25" fill="none" stroke="#000000" stroke-linecap="round" stroke-linejoin="round" stroke-opacity="0.2509804" stroke-width="0.7000000000000001"/>
    </g>
    <linearGradient gradientTransform="matrix(-9.0E-4, -0.007, 0.0151, -0.0021, 5.4, 3.9)" gradientUnits="userSpaceOnUse" id="gradient0" spreadMethod="pad" x1="-819.2" x2="819.2">
      <stop offset="0.00784313725490196" stop-color="#ffffff"/>
      <stop offset="1.0" stop-color="#aaaaaa"/>
    </linearGradient>
    <linearGradient gradientTransform="matrix(0.0, 0.0042, -0.0052, 0.0, -19.65, -64.35)" gradientUnits="userSpaceOnUse" id="gradient1" spreadMethod="pad" x1="-819.2" x2="819.2">
      <stop offset="0.00784313725490196" stop-color="#cccccc"/>
      <stop offset="1.0" stop-color="#999999"/>
    </linearGradient>
    <linearGradient gradientTransform="matrix(0.0013, -0.0128, 0.0431, 0.0045, -56.4, 12.5)" gradientUnits="userSpaceOnUse" id="gradient2" spreadMethod="pad" x1="-819.2" x2="819.2">
      <stop offset="0.00784313725490196" stop-color="#6b4933"/>
      <stop offset="1.0" stop-color="#442e20"/>
    </linearGradient>
  </defs>
</svg>
