<?xml version="1.0" encoding="UTF-8" standalone="no"?>
<svg xmlns:xlink="http://www.w3.org/1999/xlink" height="531.5px" width="460.6px" xmlns="http://www.w3.org/2000/svg">
  <g transform="matrix(1.0, 0.0, 0.0, 1.0, 193.65, 334.05)">
    <use height="84.25" transform="matrix(1.6568, 0.0, 0.0, 1.6568, -77.7784, -214.9784)" width="91.3" xlink:href="#shape0"/>
  </g>
  <defs>
    <g id="shape0" transform="matrix(1.0, 0.0, 0.0, 1.0, 0.5, 0.5)">
      <path d="M81.45 78.95 L82.0 78.0 84.85 73.55 86.65 69.6 Q87.8 66.6 87.7 64.15 87.5 61.65 85.5 59.55 L83.45 57.3 Q83.45 56.15 84.75 52.75 85.95 49.3 86.15 43.85 86.3 38.4 75.0 24.85 63.7 11.3 57.35 6.8 L57.25 6.75 57.2 6.7 57.15 6.7 Q56.65 6.3 55.75 6.05 53.9 5.4 50.25 4.85 L44.8 4.25 Q32.4 4.25 26.05 7.7 L18.5 12.2 Q11.05 17.2 11.05 19.7 11.05 21.0 13.55 23.3 L15.05 24.55 16.3 22.1 14.4 27.8 12.05 34.9 Q11.2 37.9 8.35 45.7 5.45 53.55 5.4 57.0 5.35 60.5 9.85 64.9 14.05 68.95 15.2 69.3 L12.2 70.0 Q9.35 70.85 9.35 71.85 9.35 72.95 10.75 74.5 3.95 71.8 0.0 68.35 0.7 65.55 3.15 62.8 1.45 60.9 0.35 58.5 1.65 53.5 4.25 47.6 8.7 37.4 14.9 24.95 4.25 22.9 6.0 16.35 6.35 13.15 15.4 7.3 27.75 -0.6 47.05 0.05 62.6 3.9 73.15 16.45 86.05 30.8 88.55 44.1 88.05 48.45 86.45 52.9 89.6 57.85 90.3 64.9 89.95 66.55 89.2 68.0 89.25 70.75 87.4 73.8 84.75 76.85 81.45 78.95 M84.3 57.85 L86.45 52.9 84.3 57.85 M85.85 72.6 Q87.9 70.45 89.2 68.0 87.9 70.45 85.85 72.6 M11.4 68.45 Q5.2 65.1 3.15 62.8 5.2 65.1 11.4 68.45 M14.9 24.95 L15.05 24.55 14.9 24.95" fill="#ffa0c0" fill-rule="evenodd" stroke="none"/>
      <path d="M15.05 24.55 L13.55 23.3 Q11.05 21.0 11.05 19.7 11.05 17.2 18.5 12.2 L26.05 7.7 Q32.4 4.25 44.8 4.25 L50.25 4.85 Q53.9 5.4 55.75 6.05 56.65 6.3 57.15 6.7 L57.2 6.7 57.25 6.75 57.35 6.8 Q63.7 11.3 75.0 24.85 86.3 38.4 86.15 43.85 85.95 49.3 84.75 52.75 83.45 56.15 83.45 57.3 L85.5 59.55 Q87.5 61.65 87.7 64.15 87.8 66.6 86.65 69.6 L84.85 73.55 82.0 78.0 81.45 78.95 Q73.25 84.05 61.6 83.1 27.6 81.2 10.75 74.5 9.35 72.95 9.35 71.85 9.35 70.85 12.2 70.0 L15.2 69.3 Q14.05 68.95 9.85 64.9 5.35 60.5 5.4 57.0 5.45 53.55 8.35 45.7 11.2 37.9 12.05 34.9 L14.4 27.8 16.3 22.1 15.05 24.55 M17.85 19.0 L17.55 19.6 16.3 22.1 17.55 19.6 17.85 19.0 M53.45 20.55 L50.05 24.05 Q46.3 27.95 43.05 32.05 37.4 39.25 33.1 47.1 34.35 76.55 59.45 79.7 68.35 79.3 74.35 69.9 76.95 65.65 78.85 60.35 81.05 53.8 81.95 45.6 77.4 32.35 70.15 23.5 L66.95 19.9 Q63.85 16.75 60.3 14.35 56.7 17.4 53.45 20.55 M37.7 73.45 Q20.5 71.45 10.85 63.4 20.5 71.45 37.7 73.45" fill="#ff6699" fill-rule="evenodd" stroke="none"/>
      <path d="M53.45 20.55 L55.35 20.1 61.6 19.25 65.15 19.7 66.95 19.9 70.15 23.5 50.05 24.05 53.45 20.55" fill="#8f5f2f" fill-rule="evenodd" stroke="none"/>
      <path d="M66.95 19.9 L65.15 19.7 61.6 19.25 55.35 20.1 53.45 20.55 Q56.7 17.4 60.3 14.35 63.85 16.75 66.95 19.9" fill="#6e4114" fill-rule="evenodd" stroke="none"/>
      <path d="M50.05 24.05 L70.15 23.5 Q77.4 32.35 81.95 45.6 81.05 53.8 78.85 60.35 79.4 57.45 79.4 53.1 79.4 40.4 68.05 34.7 60.4 30.85 50.15 30.85 46.65 30.85 43.05 32.05 46.3 27.95 50.05 24.05" fill="#0c0004" fill-rule="evenodd" stroke="none"/>
      <path d="M43.05 32.05 Q46.65 30.85 50.15 30.85 60.4 30.85 68.05 34.7 79.4 40.4 79.4 53.1 79.4 57.45 78.85 60.35 76.95 65.65 74.35 69.9 68.35 79.3 59.45 79.7 34.35 76.55 33.1 47.1 37.4 39.25 43.05 32.05" fill="#21000b" fill-rule="evenodd" stroke="none"/>
      <path d="M15.05 24.55 L16.3 22.1 17.55 19.6 17.85 19.0 M86.45 52.9 L84.3 57.85 M10.75 74.5 Q3.95 71.8 0.0 68.35 0.7 65.55 3.15 62.8 1.45 60.9 0.35 58.5 1.65 53.5 4.25 47.6 8.7 37.4 14.9 24.95 4.25 22.9 6.0 16.35 6.35 13.15 15.4 7.3 27.75 -0.6 47.05 0.05 62.6 3.9 73.15 16.45 86.05 30.8 88.55 44.1 88.05 48.45 86.45 52.9 89.6 57.85 90.3 64.9 89.95 66.55 89.2 68.0 89.25 70.75 87.4 73.8 84.75 76.85 81.45 78.95 73.25 84.05 61.6 83.1 27.6 81.2 10.75 74.5 M89.2 68.0 Q87.9 70.45 85.85 72.6 M53.45 20.55 L50.05 24.05 70.15 23.5 66.95 19.9 Q63.85 16.75 60.3 14.35 56.7 17.4 53.45 20.55 M78.85 60.35 Q81.05 53.8 81.95 45.6 77.4 32.35 70.15 23.5 M43.05 32.05 Q46.3 27.95 50.05 24.05 M15.05 24.55 L14.9 24.95 M3.15 62.8 Q5.2 65.1 11.4 68.45 M10.85 63.4 Q20.5 71.45 37.7 73.45 M78.85 60.35 Q76.95 65.65 74.35 69.9 68.35 79.3 59.45 79.7 34.35 76.55 33.1 47.1 37.4 39.25 43.05 32.05" fill="none" stroke="#000000" stroke-linecap="round" stroke-linejoin="round" stroke-opacity="0.5019608" stroke-width="1.0"/>
      <path d="M72.15 35.75 L72.35 39.25 Q72.35 40.45 71.8 41.2 71.15 42.05 70.15 42.1 69.25 42.15 68.5 41.4 67.8 40.65 67.75 39.5 L67.55 35.95 Q67.5 34.9 68.15 34.05 68.75 33.15 69.65 33.15 70.65 33.05 71.4 33.85 72.1 34.7 72.15 35.75" fill="#ffffff" fill-rule="evenodd" stroke="none"/>
      <path d="M53.8 35.8 L53.95 39.55 Q54.0 40.8 53.4 41.65 52.7 42.5 51.65 42.6 50.65 42.65 49.9 41.8 49.15 41.05 49.05 39.8 L48.85 36.0 Q48.8 34.85 49.45 33.95 50.15 33.0 51.15 32.95 52.15 32.9 52.95 33.75 53.7 34.65 53.8 35.8" fill="#ffffff" fill-rule="evenodd" stroke="none"/>
    </g>
  </defs>
</svg>
