<?xml version="1.0" encoding="UTF-8" standalone="no"?>
<svg xmlns:xlink="http://www.w3.org/1999/xlink" height="531.5px" width="460.6px" xmlns="http://www.w3.org/2000/svg">
  <g transform="matrix(1.0, 0.0, 0.0, 1.0, 193.65, 334.05)">
    <use height="209.3" transform="matrix(1.0, 0.0, 0.0, 1.0, -85.5, -282.85)" width="162.55" xlink:href="#shape0"/>
  </g>
  <defs>
    <g id="shape0" transform="matrix(1.0, 0.0, 0.0, 1.0, 85.5, 282.85)">
      <path d="M-20.65 -204.1 L-20.65 -204.4 -20.55 -204.15 Q-20.55 -204.1 -20.65 -204.1 M-15.45 -200.55 L-15.2 -200.7 -15.15 -200.45 -15.45 -200.55" fill="#999999" fill-rule="evenodd" stroke="none"/>
      <path d="M49.55 -191.5 L50.1 -190.35 50.1 -190.25 Q52.7 -185.35 58.6 -171.25 60.45 -166.9 62.95 -154.2 66.0 -139.1 66.2 -128.65 66.45 -116.8 61.9 -105.95 60.35 -102.3 58.2 -98.35 L58.1 -98.35 57.15 -98.35 Q46.55 -99.0 44.05 -113.5 43.0 -127.7 41.05 -137.5 37.9 -170.2 23.4 -199.4 37.9 -170.2 41.05 -137.5 43.25 -113.95 39.65 -88.65 L35.4 -87.1 Q14.05 -88.6 3.8 -109.7 -4.3 -126.35 -4.3 -151.25 -4.3 -173.3 -2.05 -184.05 1.35 -200.4 5.5 -203.85 L7.75 -203.85 11.8 -203.55 Q17.75 -202.65 23.4 -199.4 39.0 -201.5 49.55 -191.5 M-8.75 -134.1 L-9.95 -129.7 Q-13.35 -118.4 -17.1 -118.4 -22.75 -118.4 -25.95 -133.95 -28.55 -146.2 -28.55 -160.3 -28.55 -174.2 -27.0 -184.6 -26.05 -191.4 -23.6 -201.25 L-22.25 -201.25 -16.6 -200.8 -15.45 -200.55 -15.15 -200.45 -10.95 -199.4 -8.75 -134.1" fill="#ff9900" fill-rule="evenodd" stroke="none"/>
      <path d="M4.0 -210.3 L3.85 -210.95 4.25 -211.6 4.0 -210.3" fill="#339933" fill-rule="evenodd" stroke="none"/>
      <path d="M23.6 -207.25 Q24.0 -207.95 24.0 -209.65 L24.15 -209.6 23.75 -207.25 23.75 -207.15 23.6 -207.25" fill="#32852b" fill-rule="evenodd" stroke="none"/>
      <path d="M-50.3 -187.05 Q-68.55 -148.3 -53.8 -92.2 -79.65 -93.9 -80.2 -136.25 -80.75 -178.7 -50.3 -187.05" fill="#c96000" fill-rule="evenodd" stroke="none"/>
      <path d="M-50.3 -187.05 Q-41.25 -198.1 -29.75 -200.55 L-25.5 -201.2 -23.6 -201.25 Q-26.05 -191.4 -27.0 -184.6 -28.55 -174.2 -28.55 -160.3 -28.55 -146.2 -25.95 -133.95 -22.75 -118.4 -17.1 -118.4 -13.35 -118.4 -9.95 -129.7 L-8.75 -134.1 -7.2 -87.05 Q-35.85 -80.0 -53.8 -92.2 -68.55 -148.3 -50.3 -187.05" fill="#db7800" fill-rule="evenodd" stroke="none"/>
      <path d="M58.2 -98.35 L55.5 -93.75 53.5 -92.55 52.35 -91.9 Q45.75 -88.1 39.65 -88.65 43.25 -113.95 41.05 -137.5 43.0 -127.7 44.05 -113.5 46.55 -99.0 57.15 -98.35 L58.1 -98.35 58.2 -98.35" fill="#f08b10" fill-rule="evenodd" stroke="none"/>
      <path d="M58.2 -98.35 Q60.35 -102.3 61.9 -105.95 66.45 -116.8 66.2 -128.65 66.0 -139.1 62.95 -154.2 60.45 -166.9 58.6 -171.25 52.7 -185.35 50.1 -190.25 L50.1 -190.35 49.55 -191.5 50.65 -190.35 Q55.7 -185.1 59.4 -176.75 76.45 -138.7 65.7 -105.4 64.75 -102.3 62.15 -99.35 59.55 -96.6 55.5 -93.75 L58.2 -98.35" fill="#ffcc00" fill-rule="evenodd" stroke="none"/>
      <path d="M-10.95 -199.4 Q-7.55 -201.0 -4.2 -202.05 L-0.6 -203.05 0.85 -203.3 3.05 -203.6 4.35 -203.75 5.5 -203.85 Q1.35 -200.4 -2.05 -184.05 -4.3 -173.3 -4.3 -151.25 -4.3 -126.35 3.8 -109.7 14.05 -88.6 35.4 -87.1 14.3 -80.5 -7.2 -87.05 L-8.75 -134.1 -10.95 -199.4" fill="url(#gradient0)" fill-rule="evenodd" stroke="none"/>
      <path d="M55.5 -93.75 Q59.55 -96.6 62.15 -99.35 64.75 -102.3 65.7 -105.4 76.45 -138.7 59.4 -176.75 55.7 -185.1 50.65 -190.35 L49.55 -191.5 Q39.0 -201.5 23.4 -199.4 17.75 -202.65 11.8 -203.55 L7.75 -203.85 M39.65 -88.65 Q45.75 -88.1 52.35 -91.9 L53.5 -92.55 55.5 -93.75 M35.4 -87.1 L39.65 -88.65 M-10.95 -199.4 Q-7.55 -201.0 -4.2 -202.05 L-0.6 -203.05 0.85 -203.3 3.05 -203.6 4.35 -203.75 5.5 -203.85 M-23.6 -201.25 L-25.5 -201.2 -29.75 -200.55 Q-41.25 -198.1 -50.3 -187.05 -80.75 -178.7 -80.2 -136.25 -79.65 -93.9 -53.8 -92.2 -35.85 -80.0 -7.2 -87.05 14.3 -80.5 35.4 -87.1 M-22.25 -201.25 L-16.6 -200.8 -15.45 -200.55 -15.15 -200.45 -10.95 -199.4" fill="none" stroke="#000000" stroke-linecap="round" stroke-linejoin="round" stroke-opacity="0.5019608" stroke-width="1.0"/>
      <path d="M23.4 -199.4 Q37.9 -170.2 41.05 -137.5 43.25 -113.95 39.65 -88.65 M-50.3 -187.05 Q-68.55 -148.3 -53.8 -92.2 M-7.2 -87.05 L-8.75 -134.1 -10.95 -199.4" fill="none" stroke="#000000" stroke-linecap="round" stroke-linejoin="round" stroke-opacity="0.3019608" stroke-width="1.0"/>
      <path d="M54.2 -137.0 Q57.05 -138.55 60.3 -139.5 61.9 -124.0 55.1 -110.5 L49.8 -111.35 Q54.95 -123.4 54.2 -137.0 M-38.6 -107.0 Q-40.5 -106.35 -42.45 -105.8 -58.0 -121.65 -56.2 -138.85 L-50.0 -135.8 Q-50.2 -120.9 -38.6 -107.0" fill="#ad4a00" fill-rule="evenodd" stroke="none"/>
      <path d="M49.8 -111.35 L41.2 -112.9 37.9 -110.75 25.7 -103.45 Q16.15 -108.8 8.55 -113.65 L-10.6 -104.1 Q-19.8 -108.05 -27.25 -109.6 L-29.45 -110.1 -38.6 -107.0 Q-50.2 -120.9 -50.0 -135.8 L-31.3 -126.75 -29.85 -127.95 Q-25.95 -130.95 -20.15 -133.6 L-18.75 -133.05 Q-9.7 -129.4 -3.65 -125.85 L-3.35 -126.0 2.35 -129.4 10.95 -134.0 11.45 -134.25 22.8 -129.1 24.4 -128.25 Q28.45 -132.4 35.55 -137.25 36.6 -138.05 37.8 -138.85 L46.6 -131.1 Q50.0 -134.75 54.2 -137.0 54.95 -123.4 49.8 -111.35" fill="url(#gradient1)" fill-rule="evenodd" stroke="none"/>
      <path d="M54.2 -137.0 Q57.05 -138.55 60.3 -139.5 61.9 -124.0 55.1 -110.5 L49.8 -111.35 41.2 -112.9 37.9 -110.75 25.7 -103.45 Q16.15 -108.8 8.55 -113.65 L-10.6 -104.1 Q-19.8 -108.05 -27.25 -109.6 L-29.45 -110.1 -38.6 -107.0 Q-40.5 -106.35 -42.45 -105.8 -58.0 -121.65 -56.2 -138.85 L-50.0 -135.8 -31.3 -126.75 -29.85 -127.95 Q-25.95 -130.95 -20.15 -133.6 L-18.75 -133.05 Q-9.7 -129.4 -3.65 -125.85 L-3.35 -126.0 2.35 -129.4 10.95 -134.0 11.45 -134.25 22.8 -129.1 24.4 -128.25 Q28.45 -132.4 35.55 -137.25 36.6 -138.05 37.8 -138.85 L46.6 -131.1 Q50.0 -134.75 54.2 -137.0 Z" fill="none" stroke="#000000" stroke-linecap="round" stroke-linejoin="round" stroke-opacity="0.5019608" stroke-width="1.0"/>
      <path d="M50.4 -184.3 L50.35 -184.3 Q50.4 -176.75 47.95 -167.75 43.75 -155.95 36.35 -153.15 28.1 -158.4 25.7 -165.3 35.1 -176.2 50.35 -184.3 L50.4 -184.45 50.4 -184.3 M-10.0 -161.7 Q-12.9 -153.75 -23.75 -147.95 -33.6 -151.0 -39.65 -164.05 -43.2 -174.15 -43.35 -182.8 -22.9 -173.8 -10.0 -161.7" fill="#ffcc00" fill-rule="evenodd" stroke="none"/>
      <path d="M50.4 -184.3 Q51.4 -174.85 48.3 -163.25 44.05 -151.35 36.6 -148.5 26.25 -155.1 24.9 -164.5 L25.7 -165.3 Q28.1 -158.4 36.35 -153.15 43.75 -155.95 47.95 -167.75 50.4 -176.75 50.35 -184.3 L50.4 -184.3 M-10.0 -161.7 L-9.2 -161.0 Q-10.5 -150.45 -23.9 -143.25 -33.85 -146.4 -39.9 -159.5 -44.55 -172.35 -43.5 -182.9 L-43.35 -182.8 Q-43.2 -174.15 -39.65 -164.05 -33.6 -151.0 -23.75 -147.95 -12.9 -153.75 -10.0 -161.7" fill="#ad4a00" fill-rule="evenodd" stroke="none"/>
      <path d="M25.7 -165.3 L24.9 -164.5 Q26.25 -155.1 36.6 -148.5 44.05 -151.35 48.3 -163.25 51.4 -174.85 50.4 -184.3 L50.4 -184.45 50.35 -184.3 Q35.1 -176.2 25.7 -165.3 M-43.35 -182.8 L-43.5 -182.9 Q-44.55 -172.35 -39.9 -159.5 -33.85 -146.4 -23.9 -143.25 -10.5 -150.45 -9.2 -161.0 L-10.0 -161.7 Q-22.9 -173.8 -43.35 -182.8" fill="none" stroke="#000000" stroke-linecap="round" stroke-linejoin="round" stroke-opacity="0.5019608" stroke-width="1.0"/>
      <path d="M62.5 -164.15 Q62.5 -153.55 55.05 -146.1 47.65 -138.7 37.05 -138.7 26.45 -138.7 19.0 -146.1 11.65 -153.55 11.65 -164.15 11.65 -174.7 19.0 -182.1 26.45 -189.55 37.05 -189.55 47.65 -189.55 55.05 -182.1 62.5 -174.7 62.5 -164.15" fill="url(#gradient2)" fill-rule="evenodd" stroke="none"/>
      <path d="M-3.1 -161.85 Q-3.1 -151.25 -10.55 -143.8 -17.95 -136.45 -28.5 -136.45 -39.1 -136.45 -46.55 -143.8 -53.95 -151.25 -53.95 -161.85 -53.95 -172.45 -46.55 -179.8 -39.1 -187.25 -28.5 -187.25 -17.95 -187.25 -10.55 -179.8 -3.1 -172.45 -3.1 -161.85" fill="url(#gradient3)" fill-rule="evenodd" stroke="none"/>
      <path d="M37.15 -155.25 Q30.65 -163.1 37.15 -170.95 43.6 -163.65 37.15 -155.25 M-25.3 -151.0 Q-33.0 -160.45 -25.3 -169.95 -17.45 -161.05 -25.3 -151.0" fill="#ffffff" fill-rule="evenodd" stroke="none"/>
      <path d="M50.8 -102.3 Q31.65 -92.65 4.45 -92.65 -22.9 -92.65 -42.0 -102.3 -61.15 -111.8 -61.15 -125.5 -61.15 -139.25 -42.0 -148.85 -22.9 -158.5 4.45 -158.5 31.65 -158.5 50.8 -148.85 69.95 -139.25 69.95 -125.5 69.95 -111.8 50.8 -102.3" fill="url(#gradient4)" fill-rule="evenodd" stroke="none"/>
      <path d="M25.7 -249.5 L29.0 -253.55 Q37.55 -268.45 39.4 -282.35 46.5 -274.65 49.8 -258.1 L49.85 -257.75 Q47.1 -256.0 46.25 -256.0 46.15 -256.0 43.6 -258.1 40.9 -260.25 39.95 -260.25 39.4 -260.25 25.7 -249.5 M-79.7 -214.4 L-81.95 -225.1 -68.85 -226.5 -64.45 -223.35 -61.5 -221.15 -60.15 -220.3 Q-60.0 -217.8 -60.3 -215.5 L-65.1 -217.15 -70.75 -218.9 -61.5 -221.15 -70.75 -218.9 -73.0 -219.5 Q-74.65 -219.5 -77.0 -217.15 L-79.7 -214.4 M47.9 -237.8 L37.0 -248.4 44.9 -251.3 Q47.5 -246.6 47.9 -237.8" fill="#d6c59e" fill-rule="evenodd" stroke="none"/>
      <path d="M49.85 -257.75 Q50.7 -251.15 50.85 -244.85 50.15 -240.8 48.5 -237.0 L47.9 -235.75 Q44.05 -228.8 37.95 -221.5 33.05 -230.95 26.25 -235.75 L21.2 -239.15 18.45 -240.85 25.7 -249.5 Q39.4 -260.25 39.95 -260.25 40.9 -260.25 43.6 -258.1 46.15 -256.0 46.25 -256.0 47.1 -256.0 49.85 -257.75 M-76.3 -197.45 L-80.25 -199.6 -85.0 -207.1 -79.2 -212.2 -79.7 -214.4 -77.0 -217.15 Q-74.65 -219.5 -73.0 -219.5 L-70.75 -218.9 -73.5 -218.25 -74.8 -211.2 -73.5 -218.25 -70.75 -218.9 -65.1 -217.15 -60.3 -215.5 Q-60.75 -211.2 -62.55 -207.45 -65.95 -200.75 -73.7 -196.15 L-76.3 -197.45 M31.8 -243.15 L26.25 -235.75 31.8 -243.15 M36.35 -248.1 L37.0 -248.4 36.35 -248.1 M47.9 -237.8 L47.9 -235.75 47.9 -237.8 Q47.5 -246.6 44.9 -251.3 L37.0 -248.4 47.9 -237.8" fill="#baab89" fill-rule="evenodd" stroke="none"/>
      <path d="M37.95 -221.5 L38.95 -218.4 Q38.5 -217.1 36.85 -215.1 27.1 -227.2 17.2 -234.5 L19.1 -236.8 21.2 -239.15 26.25 -235.75 Q33.05 -230.95 37.95 -221.5 M44.35 -193.25 Q12.6 -183.1 -20.15 -174.35 L-21.6 -174.25 Q-25.25 -174.25 -27.9 -175.5 -31.5 -177.25 -31.5 -180.85 -31.5 -184.3 -26.65 -194.25 -25.0 -197.55 -21.4 -201.7 L-20.9 -202.2 Q7.95 -210.8 37.4 -209.85 L40.7 -205.25 Q43.6 -199.65 44.35 -193.25 M-49.0 -166.8 L-66.2 -162.65 Q-67.5 -165.45 -68.0 -167.35 -69.0 -170.85 -69.0 -178.7 L-69.0 -181.15 Q-60.95 -185.85 -52.85 -189.8 L-52.55 -189.95 -45.4 -193.15 -37.4 -196.45 Q-35.65 -194.35 -35.65 -190.4 -35.65 -185.15 -40.0 -178.15 -43.25 -172.85 -49.0 -166.8 M-70.75 -191.8 Q-73.0 -192.45 -74.2 -193.4 -75.15 -194.25 -75.9 -195.35 L-76.3 -197.45 -73.7 -196.15 Q-65.95 -200.75 -62.55 -207.45 L-58.8 -204.7 -55.1 -201.45 Q-58.65 -194.1 -64.7 -191.65 L-67.05 -190.95 -70.75 -191.45 -70.75 -191.8 M-53.1 -229.7 Q-47.3 -249.8 -27.5 -256.1 L-23.25 -255.75 Q-21.45 -252.95 -21.45 -250.2 -21.45 -247.15 -22.25 -245.95 -22.65 -245.25 -23.6 -244.7 L-24.35 -244.85 -29.8 -244.55 Q-43.25 -242.75 -52.0 -230.65 L-52.55 -230.25 -53.1 -229.7 M-16.9 -254.5 Q-7.35 -251.75 -0.75 -244.05 4.45 -238.05 7.65 -228.8 8.9 -220.7 3.15 -228.25 -2.95 -235.85 -10.95 -240.05 L-12.7 -242.25 Q-17.55 -248.7 -17.55 -252.15 -17.55 -253.2 -16.9 -254.5" fill="#ff9900" fill-rule="evenodd" stroke="none"/>
      <path d="M40.85 -209.8 L44.5 -209.65 Q48.7 -203.6 48.2 -194.5 L44.35 -193.25 Q43.6 -199.65 40.7 -205.25 L37.4 -209.85 40.85 -209.8 M-66.2 -162.65 L-72.4 -161.2 Q-77.4 -167.75 -74.95 -177.6 L-71.15 -179.95 -69.0 -181.15 -69.0 -178.7 Q-69.0 -170.85 -68.0 -167.35 -67.5 -165.45 -66.2 -162.65 M-64.45 -223.35 L-61.8 -225.0 Q-59.9 -224.7 -58.4 -224.0 L-56.95 -223.35 Q-55.1 -222.25 -53.65 -220.55 -51.2 -209.95 -54.55 -202.65 L-55.1 -201.45 -58.8 -204.7 -62.55 -207.45 Q-60.75 -211.2 -60.3 -215.5 -60.0 -217.8 -60.15 -220.3 L-61.5 -221.15 -64.45 -223.35 M10.95 -238.75 Q12.1 -240.15 14.8 -241.8 L18.45 -240.85 21.2 -239.15 19.1 -236.8 17.2 -234.5 10.95 -238.75 M-60.3 -221.5 L-60.15 -220.3 -60.3 -221.5" fill="#ffb342" fill-rule="evenodd" stroke="none"/>
      <path d="M36.85 -215.1 L40.85 -209.8 37.4 -209.85 Q7.95 -210.8 -20.9 -202.2 -29.25 -199.75 -37.4 -196.45 L-45.4 -193.15 -52.55 -189.95 -52.85 -189.8 Q-60.95 -185.85 -69.0 -181.15 L-71.15 -179.95 Q-71.6 -184.85 -70.75 -191.45 L-67.05 -190.95 -64.7 -191.65 Q-58.65 -194.1 -55.1 -201.45 L-54.55 -202.65 Q-51.2 -209.95 -53.65 -220.55 -55.1 -222.25 -56.95 -223.35 L-58.4 -224.0 -53.1 -229.7 -52.55 -230.25 -52.0 -230.65 Q-43.25 -242.75 -29.8 -244.55 L-24.35 -244.85 -23.6 -244.7 Q-16.75 -243.3 -10.95 -240.05 -2.95 -235.85 3.15 -228.25 8.9 -220.7 7.65 -228.8 4.45 -238.05 -0.75 -244.05 5.15 -242.2 10.95 -238.75 L17.2 -234.5 Q27.1 -227.2 36.85 -215.1" fill="#331f09" fill-rule="evenodd" stroke="none"/>
      <path d="M-20.15 -174.35 L-49.0 -166.8 Q-43.25 -172.85 -40.0 -178.15 -35.65 -185.15 -35.65 -190.4 -35.65 -194.35 -37.4 -196.45 -29.25 -199.75 -20.9 -202.2 L-21.4 -201.7 Q-25.0 -197.55 -26.65 -194.25 -31.5 -184.3 -31.5 -180.85 -31.5 -177.25 -27.9 -175.5 -25.25 -174.25 -21.6 -174.25 L-20.15 -174.35 M-23.25 -255.75 L-16.9 -254.5 Q-17.55 -253.2 -17.55 -252.15 -17.55 -248.7 -12.7 -242.25 L-10.95 -240.05 Q-16.75 -243.3 -23.6 -244.7 -22.65 -245.25 -22.25 -245.95 -21.45 -247.15 -21.45 -250.2 -21.45 -252.95 -23.25 -255.75" fill="#ffffff" fill-rule="evenodd" stroke="none"/>
      <path d="M25.7 -249.5 L29.0 -253.55 Q37.55 -268.45 39.4 -282.35 46.5 -274.65 49.8 -258.1 L49.85 -257.75 Q50.7 -251.15 50.85 -244.85 50.15 -240.8 48.5 -237.0 L47.9 -235.75 Q44.05 -228.8 37.95 -221.5 L38.95 -218.4 Q38.5 -217.1 36.85 -215.1 L40.85 -209.8 44.5 -209.65 Q48.7 -203.6 48.2 -194.5 L44.35 -193.25 Q12.6 -183.1 -20.15 -174.35 L-49.0 -166.8 -66.2 -162.65 -72.4 -161.2 Q-77.4 -167.75 -74.95 -177.6 L-71.15 -179.95 Q-71.6 -184.85 -70.75 -191.45 L-71.35 -191.65 -70.75 -191.8 Q-73.0 -192.45 -74.2 -193.4 -75.15 -194.25 -75.9 -195.35 L-76.3 -197.45 -80.25 -199.6 -85.0 -207.1 -79.2 -212.2 -79.7 -214.4 -81.95 -225.1 -68.85 -226.5 -64.45 -223.35 -61.8 -225.0 Q-59.9 -224.7 -58.4 -224.0 L-53.1 -229.7 Q-47.3 -249.8 -27.5 -256.1 L-23.25 -255.75 -16.9 -254.5 Q-7.35 -251.75 -0.75 -244.05 5.15 -242.2 10.95 -238.75 12.1 -240.15 14.8 -241.8 L18.45 -240.85 25.7 -249.5 M37.0 -248.4 L36.35 -248.1 M26.25 -235.75 L31.8 -243.15 M21.2 -239.15 L26.25 -235.75 Q33.05 -230.95 37.95 -221.5 M-10.95 -240.05 Q-2.95 -235.85 3.15 -228.25 8.9 -220.7 7.65 -228.8 4.45 -238.05 -0.75 -244.05 M10.95 -238.75 L17.2 -234.5 Q27.1 -227.2 36.85 -215.1 M21.2 -239.15 L18.45 -240.85 M47.9 -235.75 L47.9 -237.8 Q47.5 -246.6 44.9 -251.3 L37.0 -248.4 M37.4 -209.85 L40.85 -209.8 M-10.95 -240.05 Q-16.75 -243.3 -23.6 -244.7 L-24.35 -244.85 -29.8 -244.55 Q-43.25 -242.75 -52.0 -230.65 L-52.55 -230.25 -53.1 -229.7 M-58.4 -224.0 L-56.95 -223.35 Q-55.1 -222.25 -53.65 -220.55 -51.2 -209.95 -54.55 -202.65 L-55.1 -201.45 Q-58.65 -194.1 -64.7 -191.65 L-67.05 -190.95 -70.75 -191.45 -70.75 -191.8 M-60.3 -215.5 Q-60.0 -217.8 -60.15 -220.3 L-61.5 -221.15 -70.75 -218.9 -73.5 -218.25 -74.8 -211.2 M-60.15 -220.3 L-60.3 -221.5 M-62.55 -207.45 Q-60.75 -211.2 -60.3 -215.5 M-61.5 -221.15 L-64.45 -223.35 M-69.0 -181.15 Q-60.95 -185.85 -52.85 -189.8 L-52.55 -189.95 -45.4 -193.15 -37.4 -196.45 Q-29.25 -199.75 -20.9 -202.2 7.95 -210.8 37.4 -209.85 M-62.55 -207.45 Q-65.95 -200.75 -73.7 -196.15 L-76.3 -197.45 M-71.15 -179.95 L-69.0 -181.15" fill="none" stroke="#000000" stroke-linecap="round" stroke-linejoin="round" stroke-opacity="0.5019608" stroke-width="1.0"/>
      <path d="M-51.25 -120.5 L-46.85 -123.2 -47.6 -122.15 -41.8 -124.7 -40.9 -124.95 -40.1 -125.45 Q-34.35 -128.5 -29.0 -130.45 L-38.55 -125.6 -30.55 -127.15 -14.15 -130.35 Q-10.9 -131.4 -7.2 -132.95 -2.35 -135.0 1.05 -137.0 -3.55 -133.95 -8.15 -131.85 1.0 -134.15 5.85 -136.1 L11.0 -138.3 Q12.3 -138.8 15.05 -140.15 L15.35 -140.3 Q21.05 -142.75 22.25 -142.6 21.45 -140.9 18.3 -138.8 L23.35 -136.45 25.65 -135.7 31.15 -134.1 Q40.6 -131.65 49.75 -130.95 L49.0 -131.2 Q43.35 -132.65 41.95 -133.6 L42.2 -133.6 Q45.7 -132.45 49.75 -131.25 L51.75 -130.85 Q58.6 -130.55 65.35 -131.2 68.3 -131.9 70.9 -133.7 L71.9 -134.4 69.95 -135.95 66.95 -136.75 66.8 -137.25 69.05 -136.6 65.0 -139.85 Q61.6 -142.6 57.55 -144.9 53.6 -147.25 49.5 -148.7 L45.75 -149.75 Q43.2 -149.95 36.45 -149.6 L39.3 -150.25 43.9 -150.2 40.45 -150.8 38.0 -151.3 Q34.95 -151.0 27.15 -148.95 20.95 -147.35 17.05 -146.85 L13.85 -146.6 5.65 -147.0 -2.5 -146.55 Q-18.1 -145.25 -28.1 -141.85 L-37.35 -136.9 -37.5 -137.0 Q-34.85 -138.85 -32.4 -140.3 -38.45 -137.75 -41.95 -134.15 L-45.2 -130.8 -45.9 -130.05 -46.45 -129.4 -48.9 -125.3 -51.3 -120.65 -51.3 -120.5 -51.25 -120.5 M65.35 -128.9 Q52.9 -126.9 43.6 -128.6 L31.95 -131.1 26.85 -132.55 Q23.95 -133.35 22.4 -134.25 L22.25 -134.35 Q17.55 -135.95 15.15 -137.0 13.1 -135.95 10.45 -134.8 0.8 -130.55 -7.45 -129.0 L-33.55 -123.75 Q-43.5 -121.7 -48.5 -119.8 L-50.45 -118.9 Q-51.9 -117.6 -53.1 -117.1 L-53.65 -117.2 Q-53.9 -117.3 -53.9 -117.9 -53.9 -119.7 -52.75 -122.15 -47.35 -140.15 -23.05 -146.05 -12.9 -148.4 -2.5 -148.55 L17.05 -149.45 Q21.45 -150.0 26.95 -151.45 33.7 -153.25 38.0 -153.65 42.75 -153.65 47.3 -151.95 51.4 -150.35 55.4 -148.0 L63.25 -143.3 71.05 -138.3 77.05 -134.4 77.05 -134.25 75.2 -132.7 Q73.75 -131.65 72.05 -131.1 68.9 -129.55 65.35 -128.9 M36.7 -139.75 L43.2 -138.15 29.1 -141.1 Q32.65 -140.8 36.7 -139.75 M6.15 -140.4 L-0.45 -139.1 -4.05 -138.2 -5.55 -138.2 Q-3.3 -139.25 -1.35 -139.65 L5.6 -140.65 6.15 -140.4 M-1.05 -97.55 L2.5 -98.1 3.95 -97.95 Q3.95 -97.85 4.15 -97.85 L4.3 -97.3 2.85 -95.35 1.45 -93.35 4.6 -96.0 0.5 -91.35 -0.9 -87.95 -0.9 -86.3 Q3.9 -89.45 5.85 -89.8 7.35 -88.9 9.05 -85.5 10.5 -82.75 12.6 -80.5 L12.45 -80.8 Q12.0 -81.8 11.4 -84.4 L11.65 -84.4 Q12.3 -81.55 13.75 -79.35 16.5 -77.0 18.75 -76.15 21.1 -75.3 22.5 -75.25 23.8 -77.1 25.65 -83.0 L25.55 -83.15 Q24.85 -86.4 24.85 -87.35 L24.9 -87.75 25.25 -87.75 26.05 -84.6 26.3 -85.25 Q26.85 -85.9 26.95 -87.2 L27.35 -88.6 29.05 -87.75 33.25 -84.7 Q34.3 -86.15 33.8 -88.1 32.65 -91.75 29.85 -94.25 L29.05 -94.9 28.3 -95.95 Q28.3 -96.9 30.25 -97.45 L34.2 -98.45 35.65 -98.75 35.2 -99.25 Q32.5 -102.15 29.35 -103.8 L28.65 -104.1 29.7 -101.85 Q29.25 -102.0 28.05 -103.6 L26.85 -104.85 26.3 -105.05 Q19.55 -107.9 11.9 -105.95 L11.1 -105.65 Q9.0 -104.25 7.6 -103.55 L10.5 -105.65 Q7.95 -104.9 5.25 -103.6 1.45 -101.1 -1.1 -97.7 L-1.35 -97.55 -1.05 -97.55 M0.25 -101.75 Q2.5 -103.8 5.25 -105.4 15.75 -110.5 26.3 -106.85 29.9 -105.8 32.85 -103.6 35.8 -101.6 37.6 -98.45 L37.6 -97.95 Q37.6 -97.3 36.0 -97.0 L32.9 -96.25 30.95 -95.85 Q33.05 -93.75 34.6 -91.25 36.45 -87.95 35.1 -84.4 L33.95 -82.25 Q33.65 -83.25 31.2 -84.7 28.7 -86.15 28.05 -86.25 27.75 -83.4 26.55 -79.95 L26.45 -79.3 26.2 -79.3 26.1 -79.05 Q24.25 -74.5 22.5 -73.55 18.85 -74.1 16.0 -75.8 12.8 -77.75 10.6 -81.0 8.35 -84.05 6.4 -87.2 L5.85 -88.1 Q3.95 -87.55 1.55 -85.65 -0.7 -83.95 -1.45 -83.95 L-2.15 -84.05 -2.35 -86.55 Q-2.35 -90.2 0.9 -95.7 L-4.35 -96.25 -3.0 -97.95 0.0 -101.5 0.25 -101.75" fill="#9e5f0b" fill-rule="evenodd" stroke="none"/>
      <path d="M-51.3 -120.65 L-48.9 -125.3 -46.45 -129.4 -45.9 -130.05 -45.2 -130.8 -41.95 -134.15 Q-38.45 -137.75 -32.4 -140.3 -34.85 -138.85 -37.5 -137.0 L-37.35 -136.9 -28.1 -141.85 Q-18.1 -145.25 -2.5 -146.55 L5.65 -147.0 13.85 -146.6 17.05 -146.85 Q20.95 -147.35 27.15 -148.95 34.95 -151.0 38.0 -151.3 L40.45 -150.8 43.9 -150.2 39.3 -150.25 36.45 -149.6 Q43.2 -149.95 45.75 -149.75 L49.5 -148.7 Q53.6 -147.25 57.55 -144.9 61.6 -142.6 65.0 -139.85 L69.05 -136.6 66.8 -137.25 66.95 -136.75 69.95 -135.95 71.9 -134.4 70.9 -133.7 Q68.3 -131.9 65.35 -131.2 58.6 -130.55 51.75 -130.85 L49.75 -131.25 Q45.7 -132.45 42.2 -133.6 L41.95 -133.6 Q43.35 -132.65 49.0 -131.2 L49.75 -130.95 Q40.6 -131.65 31.15 -134.1 L25.65 -135.7 23.35 -136.45 18.3 -138.8 Q21.45 -140.9 22.25 -142.6 21.05 -142.75 15.35 -140.3 L15.05 -140.15 Q12.3 -138.8 11.0 -138.3 L5.85 -136.1 Q1.0 -134.15 -8.15 -131.85 -3.55 -133.95 1.05 -137.0 -2.35 -135.0 -7.2 -132.95 -10.9 -131.4 -14.15 -130.35 L-30.55 -127.15 -38.55 -125.6 -29.0 -130.45 Q-34.35 -128.5 -40.1 -125.45 L-40.9 -124.95 -41.8 -124.7 -47.6 -122.15 -46.85 -123.2 -51.25 -120.5 -51.3 -120.65 M-1.1 -97.7 Q1.45 -101.1 5.25 -103.6 7.95 -104.9 10.5 -105.65 L7.6 -103.55 Q9.0 -104.25 11.1 -105.65 L11.9 -105.95 Q19.55 -107.9 26.3 -105.05 L26.85 -104.85 28.05 -103.6 Q29.25 -102.0 29.7 -101.85 L28.65 -104.1 29.35 -103.8 Q32.5 -102.15 35.2 -99.25 L35.65 -98.75 34.2 -98.45 30.25 -97.45 Q28.3 -96.9 28.3 -95.95 L29.05 -94.9 29.85 -94.25 Q32.65 -91.75 33.8 -88.1 34.3 -86.15 33.25 -84.7 L29.05 -87.75 27.35 -88.6 26.95 -87.2 Q26.85 -85.9 26.3 -85.25 L26.05 -84.6 25.25 -87.75 24.9 -87.75 24.85 -87.35 Q24.85 -86.4 25.55 -83.15 L25.65 -83.0 Q23.8 -77.1 22.5 -75.25 21.1 -75.3 18.75 -76.15 16.5 -77.0 13.75 -79.35 12.3 -81.55 11.65 -84.4 L11.4 -84.4 Q12.0 -81.8 12.45 -80.8 L12.6 -80.5 Q10.5 -82.75 9.05 -85.5 7.35 -88.9 5.85 -89.8 3.9 -89.45 -0.9 -86.3 L-0.9 -87.95 0.5 -91.35 4.6 -96.0 1.45 -93.35 2.85 -95.35 4.3 -97.3 4.15 -97.85 Q3.95 -97.85 3.95 -97.95 L2.5 -98.1 -1.05 -97.55 -1.1 -97.7 M6.15 -140.4 L5.6 -140.65 -1.35 -139.65 Q-3.3 -139.25 -5.55 -138.2 L-4.05 -138.2 -0.45 -139.1 6.15 -140.4 M36.7 -139.75 Q32.65 -140.8 29.1 -141.1 L43.2 -138.15 36.7 -139.75" fill="#ffd94a" fill-rule="evenodd" stroke="none"/>
      <path d="M-8.05 -256.95 L-6.25 -259.7 Q-4.3 -261.65 -2.15 -262.35 L1.9 -262.5 Q3.0 -261.95 5.15 -259.55 L3.65 -259.75 1.6 -259.55 Q0.05 -259.05 -1.45 -257.55 L-2.85 -255.35 -3.4 -255.6 Q-5.15 -256.45 -8.05 -256.95 M-5.45 -250.75 Q-3.5 -244.55 -11.8 -241.7 -11.25 -243.3 -11.2 -244.85 L-11.25 -244.95 Q-11.25 -246.2 -11.6 -247.3 L-11.75 -247.9 Q-13.05 -252.15 -16.5 -253.55 L-24.9 -253.25 -26.0 -252.85 Q-23.05 -256.95 -19.9 -257.95 -14.4 -259.7 -11.6 -258.6 -10.55 -258.05 -9.3 -256.8 L-8.45 -255.9 -8.2 -255.7 -6.4 -253.1 -5.45 -250.75 M-49.1 -264.95 L-48.6 -264.95 -48.2 -265.0 Q-41.65 -255.6 -36.6 -245.55 L-36.0 -245.9 Q-34.7 -246.25 -32.85 -244.45 L-31.25 -242.5 -30.95 -241.95 Q-30.9 -239.15 -32.55 -236.95 -34.7 -233.85 -39.45 -232.4 -42.9 -231.3 -45.3 -234.05 -48.15 -238.25 -50.1 -240.55 -51.3 -242.05 -56.6 -246.05 L-61.5 -249.95 Q-62.2 -252.15 -58.55 -256.15 L-56.75 -257.95 -56.7 -258.05 -54.65 -256.15 -55.65 -259.05 -52.75 -261.8 -49.1 -264.95 M-36.6 -245.55 Q-38.9 -244.45 -41.0 -240.85 -38.9 -244.45 -36.6 -245.55" fill="#53ba25" fill-rule="evenodd" stroke="none"/>
      <path d="M-8.05 -256.95 Q-5.15 -256.45 -3.4 -255.6 L-2.85 -255.35 -5.45 -250.75 -6.4 -253.1 -8.2 -255.7 -8.45 -255.9 -8.05 -256.95 M-19.1 -250.75 L-20.2 -250.45 Q-22.9 -249.5 -24.05 -245.35 -24.9 -242.25 -25.25 -239.2 L-25.45 -236.95 -27.6 -236.25 -28.6 -235.85 Q-29.25 -235.5 -29.85 -235.3 -29.4 -237.95 -29.8 -239.15 L-30.95 -241.95 -29.8 -239.15 Q-29.4 -237.95 -29.85 -235.3 L-35.05 -232.55 -40.2 -229.8 -42.8 -224.55 Q-43.35 -225.55 -45.3 -225.55 L-46.25 -226.75 -48.0 -228.85 -49.85 -230.75 -54.1 -234.8 -57.55 -237.5 Q-62.65 -241.25 -67.75 -243.3 -68.75 -251.75 -64.4 -258.6 L-60.55 -261.0 -56.75 -257.95 -58.55 -256.15 Q-62.2 -252.15 -61.5 -249.95 L-56.6 -246.05 Q-51.3 -242.05 -50.1 -240.55 -48.15 -238.25 -45.3 -234.05 -42.9 -231.3 -39.45 -232.4 -34.7 -233.85 -32.55 -236.95 -30.9 -239.15 -30.95 -241.95 L-31.05 -243.3 Q-30.1 -246.1 -28.45 -248.95 L-26.0 -252.85 -24.9 -253.25 -16.5 -253.55 Q-13.05 -252.15 -11.75 -247.9 L-11.6 -247.3 -11.75 -247.3 Q-12.35 -249.4 -14.95 -250.35 -17.0 -251.15 -19.1 -250.75 M-55.65 -259.05 L-57.0 -262.75 Q-53.15 -264.4 -49.1 -264.95 L-52.75 -261.8 -55.65 -259.05" fill="#398f12" fill-rule="evenodd" stroke="none"/>
      <path d="M-11.8 -241.7 L-12.45 -241.55 -15.4 -241.5 -16.75 -241.95 Q-19.1 -243.15 -19.8 -245.25 -20.2 -246.45 -19.1 -250.75 -17.0 -251.15 -14.95 -250.35 -12.35 -249.4 -11.75 -247.3 -11.25 -245.7 -11.4 -244.95 -11.4 -244.55 -12.15 -243.9 -11.4 -244.55 -11.4 -244.95 L-11.2 -244.85 Q-11.25 -243.3 -11.8 -241.7" fill="#30780f" fill-rule="evenodd" stroke="none"/>
      <path d="M-54.1 -234.8 L-49.85 -230.75 -51.6 -229.5 -52.45 -228.7 -52.6 -228.85 -52.55 -228.6 Q-52.3 -227.3 -53.25 -225.4 L-54.55 -224.95 -56.2 -224.3 Q-58.1 -225.7 -58.65 -227.45 -59.2 -229.15 -58.25 -231.15 L-57.3 -232.6 -57.25 -232.85 -55.85 -234.25 -54.1 -234.8 M-53.8 -230.9 Q-52.9 -229.95 -52.6 -228.85 -52.9 -229.95 -53.8 -230.9" fill="#1d4d07" fill-rule="evenodd" stroke="none"/>
      <path d="M-57.55 -237.5 L-54.1 -234.8 -55.85 -234.25 -57.25 -232.85 -57.3 -232.6 -58.25 -231.15 Q-59.2 -229.15 -58.65 -227.45 -58.1 -225.7 -56.2 -224.3 -58.35 -223.5 -60.15 -222.4 L-61.0 -222.9 Q-63.3 -224.55 -64.05 -226.9 -64.4 -228.0 -64.2 -229.25 -66.8 -231.05 -68.45 -231.6 -70.65 -232.25 -74.1 -231.15 L-76.8 -230.25 Q-71.3 -236.8 -63.5 -234.9 L-61.8 -234.5 Q-60.0 -236.55 -57.55 -237.5 M-64.2 -229.25 Q-64.15 -231.05 -62.75 -233.15 L-61.8 -234.5 -62.75 -233.15 Q-64.15 -231.05 -64.2 -229.25" fill="#256309" fill-rule="evenodd" stroke="none"/>
      <path d="M-48.0 -228.85 L-46.25 -226.75 -45.3 -225.55 -49.7 -224.7 -51.45 -223.7 -48.0 -228.85 M-40.2 -229.8 L-35.05 -232.55 -29.85 -231.05 -40.2 -229.8 M-49.7 -224.7 Q-47.95 -225.7 -46.25 -226.75 -47.95 -225.7 -49.7 -224.7" fill="#2e2e00" fill-rule="evenodd" stroke="none"/>
      <path d="M-2.85 -255.35 L-1.45 -257.55 Q0.05 -259.05 1.6 -259.55 L3.65 -259.75 5.15 -259.55 Q3.0 -261.95 1.9 -262.5 L-2.15 -262.35 Q-4.3 -261.65 -6.25 -259.7 L-8.05 -256.95 -8.45 -255.9 -9.3 -256.8 Q-10.55 -258.05 -11.6 -258.6 -14.4 -259.7 -19.9 -257.95 -23.05 -256.95 -26.0 -252.85 L-28.45 -248.95 Q-30.1 -246.1 -31.05 -243.3 M-2.85 -255.35 L-5.45 -250.75 Q-3.5 -244.55 -11.8 -241.7 L-12.45 -241.55 -15.4 -241.5 -16.75 -241.95 Q-19.1 -243.15 -19.8 -245.25 -20.2 -246.45 -19.1 -250.75 L-20.2 -250.45 Q-22.9 -249.5 -24.05 -245.35 -24.9 -242.25 -25.25 -239.2 L-21.55 -240.4 M-30.95 -241.95 L-29.8 -239.15 Q-29.4 -237.95 -29.85 -235.3 -29.25 -235.5 -28.6 -235.85 L-27.6 -236.25 -25.45 -236.95 -25.25 -239.2 M-19.1 -250.75 Q-17.0 -251.15 -14.95 -250.35 -12.35 -249.4 -11.75 -247.3 -11.25 -245.7 -11.4 -244.95 -11.4 -244.55 -12.15 -243.9 M-5.45 -250.75 L-6.4 -253.1 -8.2 -255.7 -8.45 -255.9 M-49.1 -264.95 L-48.6 -264.95 -48.2 -265.0 Q-41.65 -255.6 -36.6 -245.55 L-36.0 -245.9 Q-34.7 -246.25 -32.85 -244.45 L-31.25 -242.5 -30.95 -241.95 M-56.75 -257.95 L-60.55 -261.0 -64.4 -258.6 Q-68.75 -251.75 -67.75 -243.3 -62.65 -241.25 -57.55 -237.5 L-54.1 -234.8 -49.85 -230.75 -48.0 -228.85 -46.25 -226.75 -45.3 -225.55 Q-43.35 -225.55 -42.8 -224.55 L-40.2 -229.8 -35.05 -232.55 -29.85 -235.3 -24.5 -235.45 -19.25 -235.75 M-56.75 -257.95 L-56.7 -258.05 -54.65 -256.15 -55.65 -259.05 -57.0 -262.75 Q-53.15 -264.4 -49.1 -264.95 M-54.1 -234.8 L-55.85 -234.25 -57.25 -232.85 -57.3 -232.6 -58.25 -231.15 Q-59.2 -229.15 -58.65 -227.45 -58.1 -225.7 -56.2 -224.3 L-54.55 -224.95 -53.25 -225.4 Q-52.3 -227.3 -52.55 -228.6 L-52.6 -228.85 Q-52.9 -229.95 -53.8 -230.9 M-49.85 -230.75 L-51.6 -229.5 -52.45 -228.7 M-45.3 -225.55 L-49.7 -224.7 -51.45 -223.7 -53.3 -222.6 M-46.25 -226.75 Q-47.95 -225.7 -49.7 -224.7 M-48.0 -228.85 L-51.45 -223.7 M-56.2 -224.3 Q-58.35 -223.5 -60.15 -222.4 L-61.0 -222.9 Q-63.3 -224.55 -64.05 -226.9 -64.4 -228.0 -64.2 -229.25 -66.8 -231.05 -68.45 -231.6 -70.65 -232.25 -74.1 -231.15 L-76.8 -230.25 Q-71.3 -236.8 -63.5 -234.9 L-61.8 -234.5 Q-60.0 -236.55 -57.55 -237.5 M-61.8 -234.5 L-62.75 -233.15 Q-64.15 -231.05 -64.2 -229.25 M-42.8 -224.55 L-45.3 -219.2 M-40.2 -229.8 L-29.85 -231.05 -35.05 -232.55 M-24.5 -235.45 L-23.65 -232.55 M-41.0 -240.85 Q-38.9 -244.45 -36.6 -245.55" fill="none" stroke="#000000" stroke-linecap="round" stroke-linejoin="round" stroke-opacity="0.5019608" stroke-width="1.0"/>
    </g>
    <linearGradient gradientTransform="matrix(0.0107, -0.0405, 0.0707, 0.0187, 12.45, -153.9)" gradientUnits="userSpaceOnUse" id="gradient0" spreadMethod="pad" x1="-819.2" x2="819.2">
      <stop offset="0.0" stop-color="#db7800"/>
      <stop offset="0.9882352941176471" stop-color="#ff9900"/>
    </linearGradient>
    <linearGradient gradientTransform="matrix(0.0, -0.0087, 1.6167, 0.0, -861.55, -115.8)" gradientUnits="userSpaceOnUse" id="gradient1" spreadMethod="pad" x1="-819.2" x2="819.2">
      <stop offset="0.0" stop-color="#f09f0e"/>
      <stop offset="1.0" stop-color="#ffcc00"/>
    </linearGradient>
    <radialGradient cx="0" cy="0" gradientTransform="matrix(0.0324, 0.0, 0.0, 0.0324, 37.05, -164.15)" gradientUnits="userSpaceOnUse" id="gradient2" r="819.2" spreadMethod="pad">
      <stop offset="0.0" stop-color="#ffff00"/>
      <stop offset="1.0" stop-color="#ffff00" stop-opacity="0.0"/>
    </radialGradient>
    <radialGradient cx="0" cy="0" gradientTransform="matrix(0.0324, 0.0, 0.0, 0.0324, -28.5, -161.85)" gradientUnits="userSpaceOnUse" id="gradient3" r="819.2" spreadMethod="pad">
      <stop offset="0.0" stop-color="#ffff00"/>
      <stop offset="1.0" stop-color="#ffff00" stop-opacity="0.0"/>
    </radialGradient>
    <radialGradient cx="0" cy="0" gradientTransform="matrix(0.0835, 0.0, 0.0, 0.042, 4.45, -125.5)" gradientUnits="userSpaceOnUse" id="gradient4" r="819.2" spreadMethod="pad">
      <stop offset="0.0" stop-color="#ffff00"/>
      <stop offset="1.0" stop-color="#ffff00" stop-opacity="0.0"/>
    </radialGradient>
  </defs>
</svg>
