<?xml version="1.0" encoding="UTF-8" standalone="no"?>
<svg xmlns:xlink="http://www.w3.org/1999/xlink" height="531.5px" width="460.6px" xmlns="http://www.w3.org/2000/svg">
  <g transform="matrix(1.0, 0.0, 0.0, 1.0, 193.65, 334.05)">
    <use height="274.45" transform="matrix(0.6779, 0.0, 0.0, 0.6779, -108.0233, -284.0064)" width="294.0" xlink:href="#sprite0"/>
  </g>
  <defs>
    <g id="sprite0" transform="matrix(1.0, 0.0, 0.0, 1.0, 147.25, 129.45)">
      <use height="274.45" transform="matrix(1.0, 0.0, 0.0, 1.0, -147.25, -129.45)" width="294.0" xlink:href="#shape0"/>
    </g>
    <g id="shape0" transform="matrix(1.0, 0.0, 0.0, 1.0, 147.25, 129.45)">
      <path d="M22.65 -48.0 L21.0 -49.45 20.8 -49.6 21.8 -49.5 Q24.85 -49.5 26.95 -52.3 L28.1 -54.0 28.75 -55.2 Q28.4 -53.75 28.35 -52.35 28.3 -50.9 28.65 -49.45 L28.75 -49.15 Q29.7 -45.55 31.85 -41.55 34.0 -37.6 37.25 -32.25 38.0 -31.1 46.25 -27.15 54.45 -23.25 61.45 -25.25 L76.3 -29.65 Q84.2 -32.1 86.75 -37.75 88.7 -42.0 92.9 -53.35 L95.8 -61.2 96.75 -64.0 96.15 -66.45 94.75 -70.25 Q95.8 -68.2 96.95 -67.2 98.4 -65.85 100.35 -65.85 102.1 -65.85 104.15 -67.4 L105.45 -68.45 104.0 -65.8 103.6 -64.95 102.0 -61.2 Q98.25 -51.25 98.25 -37.25 98.25 -34.6 100.85 -27.85 103.45 -21.15 104.15 -12.65 104.85 -4.15 99.7 7.1 L96.55 13.65 Q97.05 16.6 101.5 18.5 106.5 20.65 106.5 22.15 106.5 23.2 106.0 23.5 L104.5 23.75 Q104.05 23.75 99.65 21.25 95.3 18.75 94.5 18.75 L93.8 18.8 91.9 21.65 Q89.25 24.95 89.25 28.8 89.25 30.95 90.25 37.5 91.25 44.05 91.25 47.05 L91.25 51.8 Q90.95 53.45 89.75 54.0 L88.25 54.3 Q84.45 54.3 79.45 47.95 L73.75 40.8 Q68.25 38.4 62.95 36.7 55.35 34.3 50.5 34.3 44.55 34.3 31.05 36.3 17.55 38.3 10.75 38.3 L-1.45 37.3 -9.75 36.3 Q-14.1 36.3 -17.95 37.25 L-18.0 37.25 Q-28.9 39.95 -36.4 50.1 -39.1 53.7 -43.95 62.35 -48.4 70.3 -51.25 73.8 L-56.85 79.65 -61.95 84.85 Q-66.95 90.85 -65.75 98.3 -67.15 107.55 -69.75 128.3 -70.15 130.75 -71.25 128.3 L-74.0 119.6 Q-75.3 115.15 -79.75 111.3 -82.5 108.95 -84.25 103.25 L-85.35 98.6 Q-68.45 86.3 -57.95 62.85 -43.0 37.9 -14.45 27.55 2.85 21.15 18.25 18.15 L20.3 17.75 Q33.15 13.3 33.75 -6.15 L33.75 -8.0 Q33.75 -12.55 32.45 -19.95 L30.75 -27.45 Q29.35 -33.45 27.6 -38.0 L26.4 -41.05 24.15 -45.9 22.65 -48.0 M76.75 -15.75 Q78.25 -10.35 78.25 -7.6 78.25 -6.15 77.75 -4.75 77.05 -2.75 75.75 -2.75 73.45 -2.75 71.7 -8.55 L70.25 -15.0 71.7 -8.55 Q73.45 -2.75 75.75 -2.75 77.05 -2.75 77.75 -4.75 78.25 -6.15 78.25 -7.6 78.25 -10.35 76.75 -15.75 M90.5 21.0 Q91.8 19.1 93.8 18.8 91.8 19.1 90.5 21.0 M97.0 10.0 Q96.5 12.0 96.5 12.9 L96.55 13.65 96.5 12.9 Q96.5 12.0 97.0 10.0 M64.0 15.0 Q61.1 15.15 58.8 16.15 56.35 17.25 55.25 19.0 L53.55 23.2 Q51.95 26.75 50.65 26.75 L50.0 26.5 Q49.5 26.15 49.5 25.75 49.5 25.0 51.4 21.2 53.25 17.4 53.25 15.65 53.25 13.75 52.0 12.5 53.25 13.75 53.25 15.65 53.25 17.4 51.4 21.2 49.5 25.0 49.5 25.75 49.5 26.15 50.0 26.5 L50.65 26.75 Q51.95 26.75 53.55 23.2 L55.25 19.0 Q56.35 17.25 58.8 16.15 61.1 15.15 64.0 15.0 M29.6 16.3 L20.3 17.75 29.6 16.3" fill="url(#gradient0)" fill-rule="evenodd" stroke="none"/>
      <path d="M-2.4 -50.9 L-1.2 -50.65 5.25 -49.8 Q10.35 -48.15 15.9 -42.45 L23.9 -32.8 24.25 -32.4 Q27.75 -28.1 32.45 -19.95 33.75 -12.55 33.75 -8.0 L33.75 -6.15 Q-12.7 5.4 -47.65 34.9 L-48.3 35.6 -45.4 30.85 Q-37.85 18.6 -36.45 15.9 L-35.85 14.75 -34.4 11.7 Q-29.25 0.45 -29.25 -8.25 L-29.35 -11.6 Q-30.2 -22.05 -36.1 -28.4 -34.0 -32.8 -31.05 -36.5 L-29.3 -38.6 Q-22.6 -46.05 -12.2 -50.6 L-2.4 -50.9" fill="url(#gradient1)" fill-rule="evenodd" stroke="none"/>
      <path d="M89.75 54.0 Q89.4 59.3 87.75 60.25 L86.3 58.7 Q85.25 57.7 84.25 57.25 L80.25 61.25 Q76.6 50.95 74.2 47.1 70.2 40.75 60.5 40.75 53.85 40.75 50.0 44.25 L47.4 46.65 Q46.0 47.75 44.25 47.75 41.75 47.75 37.8 44.0 33.85 40.25 31.0 40.25 25.15 40.25 21.8 48.5 L19.55 54.15 Q18.3 56.75 16.75 56.75 15.45 56.75 14.35 54.55 L12.45 49.75 Q9.55 42.75 4.5 42.75 -4.6 42.75 -8.75 40.0 -11.05 38.45 -11.95 38.1 -14.2 37.25 -17.95 37.25 -14.1 36.3 -9.75 36.3 L-1.45 37.3 10.75 38.3 Q17.55 38.3 31.05 36.3 44.55 34.3 50.5 34.3 55.35 34.3 62.95 36.7 68.25 38.4 73.75 40.8 L79.45 47.95 Q84.45 54.3 88.25 54.3 L89.75 54.0" fill="#9daf00" fill-opacity="0.5019608" fill-rule="evenodd" stroke="none"/>
      <path d="M-85.35 98.6 L-86.75 99.6 Q-98.2 100.5 -101.25 95.85 -105.75 88.65 -99.7 83.35 -98.75 83.15 -98.7 82.9 -93.85 79.3 -89.15 76.6 L-48.3 35.6 -47.65 34.9 Q-12.7 5.4 33.75 -6.15 33.15 13.3 20.3 17.75 L18.25 18.15 Q2.85 21.15 -14.45 27.55 -43.0 37.9 -57.95 62.85 -68.45 86.3 -85.35 98.6 M-49.6 37.65 L-48.3 35.6 -49.6 37.65" fill="url(#gradient2)" fill-rule="evenodd" stroke="none"/>
      <path d="M-137.4 -22.2 L-134.75 -26.15 Q-121.6 -44.05 -104.75 -44.55 L-100.6 -44.15 -96.5 -43.8 -95.9 -44.2 -99.7 -40.45 Q-102.1 -34.8 -102.1 -29.5 -102.15 -22.8 -98.4 -16.65 L-100.45 -14.25 Q-103.8 -9.9 -107.65 -1.45 -112.75 9.65 -111.75 13.65 -110.75 17.65 -110.15 15.55 -110.75 17.65 -111.75 13.65 -112.75 9.65 -107.65 -1.45 -103.8 -9.9 -100.45 -14.25 L-98.4 -16.65 -95.75 -18.75 Q-93.9 -19.95 -91.6 -21.8 -91.25 -25.5 -79.05 -30.8 -71.7 -34.05 -65.55 -35.4 L-58.0 -36.45 Q-50.0 -36.65 -43.95 -34.0 -56.4 -25.6 -65.8 -13.0 -70.65 -6.55 -74.7 1.05 -76.8 -0.85 -78.75 -1.65 -80.15 -2.25 -81.5 -2.2 L-83.7 -1.95 -86.2 -1.15 Q-88.2 -3.95 -89.45 -6.95 -91.2 -11.0 -91.65 -15.25 -92.0 -18.45 -91.6 -21.8 -92.0 -18.45 -91.65 -15.25 -91.2 -11.0 -89.45 -6.95 -88.2 -3.95 -86.2 -1.15 -88.2 -0.2 -89.75 1.55 -92.35 4.55 -92.7 8.8 L-92.75 10.15 -92.65 11.6 -110.15 15.55 -109.7 18.6 -112.5 19.95 Q-115.7 21.6 -119.1 21.6 -124.25 21.6 -128.35 18.5 -131.35 16.15 -133.8 12.2 -139.05 3.7 -139.05 -7.25 -139.05 -15.2 -137.7 -21.1 L-137.4 -22.2" fill="#e2e2c0" fill-rule="evenodd" stroke="none"/>
      <path d="M-138.25 32.5 Q-140.35 29.05 -142.5 24.05 L-144.25 19.55 Q-146.75 12.25 -146.75 6.25 -146.75 -0.25 -144.25 -7.75 L-143.55 -9.8 Q-141.15 -16.35 -137.4 -22.2 L-137.7 -21.1 Q-139.05 -15.2 -139.05 -7.25 -139.05 3.7 -133.8 12.2 -131.35 16.15 -128.35 18.5 -124.25 21.6 -119.1 21.6 -115.7 21.6 -112.5 19.95 L-109.7 18.6 Q-108.75 23.45 -105.9 27.4 L-108.8 29.2 Q-118.75 34.75 -129.5 34.05 -133.8 33.75 -138.25 32.5" fill="#ceceaf" fill-rule="evenodd" stroke="none"/>
      <path d="M-95.9 -44.2 L-92.0 -47.25 Q-86.4 -51.5 -80.8 -55.0 -62.7 -66.3 -50.25 -66.65 -43.65 -66.85 -33.9 -65.25 -24.7 -63.7 -18.25 -61.6 -13.95 -60.2 -11.45 -58.6 -8.3 -56.6 -6.25 -53.45 -5.0 -51.5 -2.4 -50.9 L-12.2 -50.6 Q-22.6 -46.05 -29.3 -38.6 L-31.05 -36.5 Q-34.0 -32.8 -36.1 -28.4 L-39.7 -32.15 Q-42.65 -35.25 -43.95 -34.0 -50.0 -36.65 -58.0 -36.45 L-65.55 -35.4 Q-71.7 -34.05 -79.05 -30.8 -91.25 -25.5 -91.6 -21.8 -93.9 -19.95 -95.75 -18.75 L-98.4 -16.65 Q-102.15 -22.8 -102.1 -29.5 -102.1 -34.8 -99.7 -40.45 L-95.9 -44.2 M-109.7 18.6 L-110.15 15.55 -92.65 11.6 -92.75 10.15 -92.7 8.8 Q-92.35 4.55 -89.75 1.55 -88.2 -0.2 -86.2 -1.15 L-83.7 -1.95 -81.5 -2.2 Q-80.15 -2.25 -78.75 -1.65 -76.8 -0.85 -74.7 1.05 L-72.9 2.9 -83.7 8.45 Q-82.25 9.65 -82.25 11.1 L-82.3 11.6 -82.35 11.7 Q-82.6 12.7 -83.75 14.4 -85.5 16.95 -87.0 17.0 L-87.15 17.0 Q-89.75 17.0 -91.25 15.1 -92.4 13.7 -92.65 11.6 -92.4 13.7 -91.25 15.1 -89.75 17.0 -87.15 17.0 L-89.4 36.5 Q-97.8 36.1 -103.75 30.0 L-105.9 27.4 Q-108.75 23.45 -109.7 18.6 M-83.7 -1.95 L-85.25 7.5 -85.5 7.45 Q-86.65 7.45 -87.25 8.5 L-87.3 8.65 -92.7 8.8 -87.3 8.65 -87.25 8.5 Q-86.65 7.45 -85.5 7.45 L-85.25 7.5 -83.7 -1.95 M-87.65 11.1 L-87.75 10.5 Q-87.75 9.45 -87.3 8.65 -87.75 9.45 -87.75 10.5 L-87.65 11.1 M-85.25 7.5 Q-84.7 7.6 -83.75 8.4 L-83.7 8.45 -83.75 8.4 Q-84.7 7.6 -85.25 7.5" fill="#d1d1a5" fill-rule="evenodd" stroke="none"/>
      <path d="M-99.7 83.35 L-100.25 83.4 -107.7 81.5 -115.75 79.35 Q-120.3 78.1 -122.45 76.6 -125.05 74.85 -128.75 70.25 -134.75 62.75 -137.05 57.05 -139.75 50.3 -139.75 40.8 -139.75 39.55 -139.0 36.55 L-138.45 34.05 -138.25 32.5 Q-133.8 33.75 -129.5 34.05 -118.75 34.75 -108.8 29.2 L-105.9 27.4 -103.75 30.0 Q-97.8 36.1 -89.4 36.5 L-87.5 36.5 -84.3 36.1 Q-76.4 58.7 -89.15 76.6 -93.85 79.3 -98.7 82.9 -99.35 82.75 -99.7 83.35 M-74.7 1.05 Q-70.65 -6.55 -65.8 -13.0 -56.4 -25.6 -43.95 -34.0 -42.65 -35.25 -39.7 -32.15 L-36.1 -28.4 Q-30.2 -22.05 -29.35 -11.6 L-29.25 -8.25 Q-29.25 0.45 -34.4 11.7 L-35.85 14.75 -36.45 15.9 Q-37.85 18.6 -45.4 30.85 -54.85 20.4 -67.95 16.6 L-67.75 13.65 Q-67.75 12.35 -68.05 11.05 -69.0 7.15 -72.75 3.05 L-72.9 2.9 -74.7 1.05" fill="#c6c68e" fill-rule="evenodd" stroke="none"/>
      <path d="M-72.9 2.9 L-72.75 3.05 Q-69.0 7.15 -68.05 11.05 -67.75 12.35 -67.75 13.65 L-67.95 16.6 Q-68.35 18.85 -69.25 21.15 -70.6 24.55 -73.25 28.05 -78.15 34.6 -84.3 36.1 L-87.5 36.5 -89.4 36.5 -87.15 17.0 -87.0 17.0 Q-85.5 16.95 -83.75 14.4 -82.6 12.7 -82.35 11.7 L-82.3 11.6 -82.25 11.1 Q-82.25 9.65 -83.7 8.45 L-72.9 2.9 M-82.35 11.7 L-69.25 21.15 -82.35 11.7" fill="#b5b582" fill-rule="evenodd" stroke="none"/>
      <path d="M-45.4 30.85 L-48.3 35.6 -89.15 76.6 Q-76.4 58.7 -84.3 36.1 -78.15 34.6 -73.25 28.05 -70.6 24.55 -69.25 21.15 -68.35 18.85 -67.95 16.6 -54.85 20.4 -45.4 30.85" fill="#a5a570" fill-rule="evenodd" stroke="none"/>
      <path d="M28.35 -52.35 Q28.3 -50.9 28.65 -49.45 L28.75 -49.15 Q29.7 -45.55 31.85 -41.55 34.0 -37.6 37.25 -32.25 38.0 -31.1 46.25 -27.15 54.45 -23.25 61.45 -25.25 L76.3 -29.65 Q84.2 -32.1 86.75 -37.75 88.7 -42.0 92.9 -53.35 L95.8 -61.2 96.75 -64.0 96.15 -66.45 M103.6 -64.95 L102.0 -61.2 Q98.25 -51.25 98.25 -37.25 98.25 -34.6 100.85 -27.85 103.45 -21.15 104.15 -12.65 104.85 -4.15 99.7 7.1 L96.55 13.65 Q97.05 16.6 101.5 18.5 106.5 20.65 106.5 22.15 106.5 23.2 106.0 23.5 L104.5 23.75 Q104.05 23.75 99.65 21.25 95.3 18.75 94.5 18.75 L93.8 18.8 91.9 21.65 Q89.25 24.95 89.25 28.8 89.25 30.95 90.25 37.5 91.25 44.05 91.25 47.05 L91.25 51.8 Q90.95 53.45 89.75 54.0 L88.25 54.3 Q84.45 54.3 79.45 47.95 L73.75 40.8 Q68.25 38.4 62.95 36.7 55.35 34.3 50.5 34.3 44.55 34.3 31.05 36.3 17.55 38.3 10.75 38.3 L-1.45 37.3 -9.75 36.3 Q-14.1 36.3 -17.95 37.25 M-18.0 37.25 Q-28.9 39.95 -36.4 50.1 -39.1 53.7 -43.95 62.35 -48.4 70.3 -51.25 73.8 L-56.85 79.65 -61.95 84.85 Q-66.95 90.85 -65.75 98.3 -67.15 107.55 -69.75 128.3 -70.15 130.75 -71.25 128.3 L-74.0 119.6 Q-75.3 115.15 -79.75 111.3 -82.5 108.95 -84.25 103.25 L-85.35 98.6 -86.75 99.6 Q-98.2 100.5 -101.25 95.85 -105.75 88.65 -99.7 83.35 L-100.25 83.4 -107.7 81.5 -115.75 79.35 Q-120.3 78.1 -122.45 76.6 -125.05 74.85 -128.75 70.25 -134.75 62.75 -137.05 57.05 -139.75 50.3 -139.75 40.8 -139.75 39.55 -139.0 36.55 L-138.45 34.05 -138.25 32.5 Q-140.35 29.05 -142.5 24.05 L-144.25 19.55 Q-146.75 12.25 -146.75 6.25 -146.75 -0.25 -144.25 -7.75 L-143.55 -9.8 Q-141.15 -16.35 -137.4 -22.2 L-134.75 -26.15 Q-121.6 -44.05 -104.75 -44.55 L-100.6 -44.15 -96.5 -43.8 -95.9 -44.2 -92.0 -47.25 Q-86.4 -51.5 -80.8 -55.0 -62.7 -66.3 -50.25 -66.65 -43.65 -66.85 -33.9 -65.25 -24.7 -63.7 -18.25 -61.6 -13.95 -60.2 -11.45 -58.6 -8.3 -56.6 -6.25 -53.45 -5.0 -51.5 -2.4 -50.9 L-1.2 -50.65 5.25 -49.8 Q10.35 -48.15 15.9 -42.45 L23.9 -32.8 24.25 -32.4 Q27.75 -28.1 32.45 -19.95 L30.75 -27.45 Q29.35 -33.45 27.6 -38.0 L26.4 -41.05 24.15 -45.9 22.65 -48.0 M33.75 -6.15 L33.75 -8.0 Q33.75 -12.55 32.45 -19.95 M96.55 13.65 L96.5 12.9 Q96.5 12.0 97.0 10.0 M93.8 18.8 Q91.8 19.1 90.5 21.0 M52.0 12.5 Q53.25 13.75 53.25 15.65 53.25 17.4 51.4 21.2 49.5 25.0 49.5 25.75 49.5 26.15 50.0 26.5 L50.65 26.75 Q51.95 26.75 53.55 23.2 L55.25 19.0 Q56.35 17.25 58.8 16.15 61.1 15.15 64.0 15.0 M-85.35 98.6 Q-68.45 86.3 -57.95 62.85 -43.0 37.9 -14.45 27.55 2.85 21.15 18.25 18.15 L20.3 17.75 Q33.15 13.3 33.75 -6.15 -12.7 5.4 -47.65 34.9 L-48.3 35.6 -49.6 37.65 M20.3 17.75 L29.6 16.3 M-109.7 18.6 L-110.15 15.55 Q-110.75 17.65 -111.75 13.65 -112.75 9.65 -107.65 -1.45 -103.8 -9.9 -100.45 -14.25 L-98.4 -16.65 Q-102.15 -22.8 -102.1 -29.5 -102.1 -34.8 -99.7 -40.45 L-95.9 -44.2 M-86.2 -1.15 L-83.7 -1.95 -81.5 -2.2 Q-80.15 -2.25 -78.75 -1.65 -76.8 -0.85 -74.7 1.05 -70.65 -6.55 -65.8 -13.0 -56.4 -25.6 -43.95 -34.0 -50.0 -36.65 -58.0 -36.45 L-65.55 -35.4 Q-71.7 -34.05 -79.05 -30.8 -91.25 -25.5 -91.6 -21.8 -92.0 -18.45 -91.65 -15.25 -91.2 -11.0 -89.45 -6.95 -88.2 -3.95 -86.2 -1.15 -88.2 -0.2 -89.75 1.55 -92.35 4.55 -92.7 8.8 L-87.3 8.65 -87.25 8.5 Q-86.65 7.45 -85.5 7.45 L-85.25 7.5 -83.7 -1.95 M-91.6 -21.8 Q-93.9 -19.95 -95.75 -18.75 L-98.4 -16.65 M-2.4 -50.9 L-12.2 -50.6 Q-22.6 -46.05 -29.3 -38.6 L-31.05 -36.5 Q-34.0 -32.8 -36.1 -28.4 -30.2 -22.05 -29.35 -11.6 L-29.25 -8.25 Q-29.25 0.45 -34.4 11.7 L-35.85 14.75 -36.45 15.9 Q-37.85 18.6 -45.4 30.85 L-48.3 35.6 -89.15 76.6 Q-93.85 79.3 -98.7 82.9 -99.35 82.75 -99.7 83.35 M-36.1 -28.4 L-39.7 -32.15 Q-42.65 -35.25 -43.95 -34.0 M-74.7 1.05 L-72.9 2.9 -72.75 3.05 Q-69.0 7.15 -68.05 11.05 -67.75 12.35 -67.75 13.65 L-67.95 16.6 Q-54.85 20.4 -45.4 30.85 M-67.95 16.6 Q-68.35 18.85 -69.25 21.15 -70.6 24.55 -73.25 28.05 -78.15 34.6 -84.3 36.1 -76.4 58.7 -89.15 76.6 M-87.3 8.65 Q-87.75 9.45 -87.75 10.5 L-87.65 11.1 M-87.15 17.0 L-87.0 17.0 Q-85.5 16.95 -83.75 14.4 -82.6 12.7 -82.35 11.7 L-82.3 11.6 -82.25 11.1 Q-82.25 9.65 -83.7 8.45 L-83.75 8.4 Q-84.7 7.6 -85.25 7.5 M-110.15 15.55 L-92.65 11.6 -92.75 10.15 -92.7 8.8 M-87.15 17.0 Q-89.75 17.0 -91.25 15.1 -92.4 13.7 -92.65 11.6 M-138.25 32.5 Q-133.8 33.75 -129.5 34.05 -118.75 34.75 -108.8 29.2 L-105.9 27.4 Q-108.75 23.45 -109.7 18.6 M-105.9 27.4 L-103.75 30.0 Q-97.8 36.1 -89.4 36.5 L-87.15 17.0 M-89.4 36.5 L-87.5 36.5 -84.3 36.1 M-69.25 21.15 L-82.35 11.7 M-72.9 2.9 L-83.7 8.45" fill="none" stroke="#000000" stroke-linecap="round" stroke-linejoin="round" stroke-opacity="0.4" stroke-width="1.0"/>
      <path d="M70.25 -15.0 L71.7 -8.55 Q73.45 -2.75 75.75 -2.75 77.05 -2.75 77.75 -4.75 78.25 -6.15 78.25 -7.6 78.25 -10.35 76.75 -15.75" fill="none" stroke="#000000" stroke-linecap="round" stroke-linejoin="round" stroke-opacity="0.4" stroke-width="2.0"/>
      <path d="M89.75 54.0 Q89.4 59.3 87.75 60.25 L86.3 58.7 Q85.25 57.7 84.25 57.25 L80.25 61.25 Q76.6 50.95 74.2 47.1 70.2 40.75 60.5 40.75 53.85 40.75 50.0 44.25 L47.4 46.65 Q46.0 47.75 44.25 47.75 41.75 47.75 37.8 44.0 33.85 40.25 31.0 40.25 25.15 40.25 21.8 48.5 L19.55 54.15 Q18.3 56.75 16.75 56.75 15.45 56.75 14.35 54.55 L12.45 49.75 Q9.55 42.75 4.5 42.75 -4.6 42.75 -8.75 40.0 -11.05 38.45 -11.95 38.1 -14.2 37.25 -17.95 37.25 L-18.0 37.25" fill="none" stroke="#ffff00" stroke-linecap="round" stroke-linejoin="round" stroke-opacity="0.4" stroke-width="1.0"/>
      <path d="M132.05 -114.85 Q146.75 -100.15 146.75 -79.45 146.75 -58.75 132.05 -44.15 117.45 -29.45 96.75 -29.45 76.05 -29.45 61.35 -44.15 46.75 -58.75 46.75 -79.45 46.75 -100.15 61.35 -114.85 76.05 -129.45 96.75 -129.45 117.45 -129.45 132.05 -114.85" fill="url(#gradient3)" fill-rule="evenodd" stroke="none"/>
      <path d="M62.5 -101.9 Q77.2 -87.2 77.2 -66.5 77.2 -45.8 62.5 -31.2 47.9 -16.5 27.2 -16.5 6.5 -16.5 -8.2 -31.2 -22.8 -45.8 -22.8 -66.5 -22.8 -87.2 -8.2 -101.9 6.5 -116.5 27.2 -116.5 47.9 -116.5 62.5 -101.9" fill="url(#gradient4)" fill-rule="evenodd" stroke="none"/>
      <path d="M20.8 -49.6 L18.25 -50.95 Q13.9 -52.75 12.65 -53.9 10.25 -56.1 10.25 -60.5 10.25 -64.7 12.75 -67.25 15.8 -70.25 22.0 -70.25 24.9 -70.25 27.8 -67.75 30.75 -65.15 30.75 -62.25 30.75 -60.8 29.25 -56.8 L28.75 -55.2 26.95 -52.3 Q24.85 -49.5 21.8 -49.5 L20.8 -49.6 M16.25 -63.55 Q14.9 -61.9 14.9 -60.0 14.9 -57.7 16.8 -56.1 18.55 -54.6 20.7 -54.6 23.0 -54.6 24.55 -55.95 26.15 -57.4 26.15 -59.7 L25.65 -60.75 24.85 -61.2 Q24.05 -60.6 22.95 -60.6 20.95 -60.6 20.9 -62.75 20.85 -64.4 20.4 -65.0 L19.25 -65.65 Q17.5 -65.2 16.25 -63.55 M94.45 -70.9 L94.0 -72.05 Q91.25 -78.75 91.25 -79.0 91.25 -81.75 94.25 -84.75 97.3 -87.75 100.25 -87.75 102.8 -87.75 106.25 -84.75 109.75 -81.7 109.75 -79.25 109.75 -76.25 107.95 -72.85 L105.45 -68.45 104.15 -67.4 Q102.1 -65.85 100.35 -65.85 98.4 -65.85 96.95 -67.2 95.8 -68.2 94.75 -70.25 L94.45 -70.9" fill="#ffffff" fill-rule="evenodd" stroke="none"/>
      <path d="M16.25 -63.55 Q17.5 -65.2 19.25 -65.65 L20.4 -65.0 Q20.85 -64.4 20.9 -62.75 20.95 -60.6 22.95 -60.6 24.05 -60.6 24.85 -61.2 L25.65 -60.75 26.15 -59.7 Q26.15 -57.4 24.55 -55.95 23.0 -54.6 20.7 -54.6 18.55 -54.6 16.8 -56.1 14.9 -57.7 14.9 -60.0 14.9 -61.9 16.25 -63.55" fill="#000000" fill-rule="evenodd" stroke="none"/>
      <path d="M28.75 -55.2 L29.25 -56.8 Q30.75 -60.8 30.75 -62.25 30.75 -65.15 27.8 -67.75 24.9 -70.25 22.0 -70.25 15.8 -70.25 12.75 -67.25 10.25 -64.7 10.25 -60.5 10.25 -56.1 12.65 -53.9 13.9 -52.75 18.25 -50.95 L20.8 -49.6 21.0 -49.45 22.65 -48.0 M28.75 -55.2 Q28.4 -53.75 28.35 -52.35 M105.45 -68.45 L107.95 -72.85 Q109.75 -76.25 109.75 -79.25 109.75 -81.7 106.25 -84.75 102.8 -87.75 100.25 -87.75 97.3 -87.75 94.25 -84.75 91.25 -81.75 91.25 -79.0 91.25 -78.75 94.0 -72.05 L94.45 -70.9 M105.45 -68.45 L104.0 -65.8 103.6 -64.95 M94.75 -70.25 L96.15 -66.45" fill="none" stroke="#000000" stroke-linecap="round" stroke-linejoin="round" stroke-opacity="0.4" stroke-width="1.0"/>
      <path d="M16.25 -63.55 Q14.9 -61.9 14.9 -60.0 14.9 -57.7 16.8 -56.1 18.55 -54.6 20.7 -54.6 23.0 -54.6 24.55 -55.95 26.15 -57.4 26.15 -59.7 L25.65 -60.75 24.85 -61.2 Q24.05 -60.6 22.95 -60.6 20.95 -60.6 20.9 -62.75 20.85 -64.4 20.4 -65.0 L19.25 -65.65 Q17.5 -65.2 16.25 -63.55" fill="none" stroke="#000000" stroke-linecap="round" stroke-linejoin="round" stroke-opacity="0.4" stroke-width="0.1"/>
      <path d="M103.8 -76.1 Q104.55 -75.35 105.6 -75.25 L105.8 -74.3 Q105.8 -73.6 105.45 -73.25 103.8 -71.6 101.7 -71.75 99.6 -71.85 97.95 -73.45 L97.6 -73.8 97.15 -74.55 Q96.45 -75.75 96.3 -77.3 96.05 -79.75 97.7 -81.4 98.9 -82.6 100.7 -82.85 L101.15 -82.95 Q103.2 -83.25 104.8 -82.35 L105.15 -81.1 Q105.0 -80.3 103.9 -79.1 102.4 -77.55 103.8 -76.1" fill="#000000" fill-rule="evenodd" stroke="none"/>
      <path d="M13.75 -52.9 Q10.6 -56.1 10.6 -60.6 10.6 -65.1 13.75 -68.25 16.95 -71.4 21.45 -71.4 25.9 -71.4 29.1 -68.25 32.25 -65.1 32.25 -60.6 32.25 -56.1 29.1 -52.9 25.9 -49.75 21.45 -49.75 16.95 -49.75 13.75 -52.9" fill="url(#gradient5)" fill-rule="evenodd" stroke="none"/>
      <path d="M94.55 -70.0 Q91.5 -73.1 91.5 -77.5 91.5 -81.9 94.55 -85.0 97.7 -88.1 102.05 -88.1 106.45 -88.1 109.55 -85.0 112.6 -81.9 112.6 -77.5 112.6 -73.1 109.55 -70.0 106.45 -66.9 102.05 -66.9 97.7 -66.9 94.55 -70.0" fill="url(#gradient6)" fill-rule="evenodd" stroke="none"/>
      <path d="M29.85 66.4 L30.0 67.95 Q29.85 70.1 29.05 71.0 28.15 72.0 25.5 72.35 L18.55 73.0 Q12.85 73.6 7.2 74.85 L-8.85 77.85 -19.55 79.2 Q-22.7 79.2 -26.5 77.65 -30.35 76.05 -30.45 74.55 -28.65 74.6 -26.85 73.9 -25.0 73.25 -24.0 72.15 -21.55 69.5 -14.9 65.3 -12.45 63.8 -7.1 61.7 -1.2 59.4 3.0 58.55 L11.85 56.95 20.45 56.3 Q28.6 58.05 29.85 66.4 M39.55 67.95 L39.7 66.4 Q40.55 58.05 46.25 56.3 L52.3 56.95 58.5 58.55 Q61.45 59.4 65.6 61.7 L71.05 65.3 Q75.7 69.5 77.4 72.15 78.1 73.25 79.4 73.9 80.7 74.6 81.95 74.55 81.85 76.05 79.15 77.65 76.5 79.2 74.3 79.2 L66.8 77.85 Q60.3 76.4 55.55 74.85 51.6 73.6 47.6 73.0 L42.75 72.35 Q40.85 72.0 40.25 71.0 39.7 70.1 39.55 67.95" fill="#191919" fill-rule="evenodd" stroke="none"/>
      <path d="M29.85 66.4 L30.0 67.95 Q29.85 70.1 29.05 71.0 28.15 72.0 25.5 72.35 L18.55 73.0 Q12.85 73.6 7.2 74.85 L-8.85 77.85 -19.55 79.2 Q-22.7 79.2 -26.5 77.65 -30.35 76.05 -30.45 74.55 -28.65 74.6 -26.85 73.9 -25.0 73.25 -24.0 72.15 -21.55 69.5 -14.9 65.3 -12.45 63.8 -7.1 61.7 -1.2 59.4 3.0 58.55 L11.85 56.95 20.45 56.3 Q28.6 58.05 29.85 66.4 M39.55 67.95 L39.7 66.4 Q40.55 58.05 46.25 56.3 L52.3 56.95 58.5 58.55 Q61.45 59.4 65.6 61.7 L71.05 65.3 Q75.7 69.5 77.4 72.15 78.1 73.25 79.4 73.9 80.7 74.6 81.95 74.55 81.85 76.05 79.15 77.65 76.5 79.2 74.3 79.2 L66.8 77.85 Q60.3 76.4 55.55 74.85 51.6 73.6 47.6 73.0 L42.75 72.35 Q40.85 72.0 40.25 71.0 39.7 70.1 39.55 67.95" fill="none" stroke="#000000" stroke-linecap="round" stroke-linejoin="round" stroke-opacity="0.2" stroke-width="0.7000000000000001"/>
      <path d="M33.75 -6.15 Q-12.7 5.4 -47.65 34.9 L-89.15 76.6 Q-93.85 79.3 -98.7 82.9 -99.35 82.75 -99.7 83.35 L-100.25 83.4 -107.7 81.5 -115.75 79.35 Q-120.3 78.1 -122.45 76.6 -125.05 74.85 -128.75 70.25 -134.75 62.75 -137.05 57.05 -139.75 50.3 -139.75 40.8 -139.75 39.55 -139.0 36.55 L-138.45 34.05 Q-137.15 44.6 -124.5 44.6 -116.6 44.6 -109.9 41.3 -102.9 37.85 -102.9 33.3 -102.9 31.15 -105.25 30.05 -106.75 29.35 -108.8 29.2 -122.7 36.95 -138.25 32.5 -140.35 29.05 -142.5 24.05 L-144.25 19.55 Q-146.75 12.25 -146.75 6.25 -146.75 -0.25 -144.25 -7.75 L-143.55 -9.8 Q-141.15 -16.35 -137.4 -22.2 L-137.7 -21.1 Q-139.05 -15.2 -139.05 -7.25 -139.05 3.7 -133.8 12.2 -128.0 21.6 -119.1 21.6 -115.7 21.6 -112.5 19.95 L-109.7 18.6 -110.15 15.55 -101.3 13.55 Q-102.65 3.15 -92.25 -4.95 L-89.45 -6.95 Q-80.15 -13.1 -68.7 -13.1 L-65.8 -13.0 Q-41.4 -11.75 -34.4 11.7 -29.25 0.45 -29.25 -8.25 L-29.35 -11.6 Q-27.0 -9.45 -22.4 -7.85 -15.85 -5.55 -9.05 -5.55 9.95 -5.55 20.6 -25.45 22.45 -29.0 23.9 -32.8 L24.25 -32.4 Q27.75 -28.1 32.45 -19.95 33.75 -12.55 33.75 -8.0 L33.75 -6.15" fill="#240030" fill-opacity="0.14901961" fill-rule="evenodd" stroke="none"/>
      <path d="M-102.1 -29.5 L-101.25 -29.05 Q-99.3 -28.15 -97.55 -28.15 L-80.5 -32.8 Q-62.1 -37.5 -55.1 -37.5 -49.3 -37.5 -45.25 -35.85 -41.2 -34.25 -38.45 -34.25 -35.25 -34.25 -31.05 -36.5 -34.0 -32.8 -36.1 -28.4 L-39.7 -32.15 Q-42.65 -35.25 -43.95 -34.0 -50.0 -36.65 -58.0 -36.45 -66.85 -36.15 -79.05 -30.8 -91.25 -25.5 -91.6 -21.8 -93.9 -19.95 -95.75 -18.75 L-98.4 -16.65 Q-102.15 -22.8 -102.1 -29.5" fill="#240030" fill-opacity="0.14117648" fill-rule="evenodd" stroke="none"/>
      <path d="M50.85 52.05 L52.15 51.75 53.05 51.85 Q54.6 52.1 55.75 53.3 57.5 55.05 57.5 58.25 57.5 59.8 56.25 61.25 55.0 62.75 53.65 62.75 51.45 62.75 50.25 61.0 49.25 59.5 49.25 57.15 49.25 55.15 49.75 53.75 50.15 52.6 50.85 52.05 M53.5 52.25 L53.05 51.85 53.5 52.25" fill="#9daf00" fill-opacity="0.5019608" fill-rule="evenodd" stroke="none"/>
      <path d="M53.05 51.85 L52.5 51.5 Q51.55 51.5 50.85 52.05 L52.15 51.75 53.05 51.85 Q54.6 52.1 55.75 53.3 57.5 55.05 57.5 58.25 57.5 59.8 56.25 61.25 55.0 62.75 53.65 62.75 51.45 62.75 50.25 61.0 49.25 59.5 49.25 57.15 49.25 55.15 49.75 53.75 50.15 52.6 50.85 52.05 M53.05 51.85 L53.5 52.25" fill="none" stroke="#ffff00" stroke-linecap="round" stroke-linejoin="round" stroke-opacity="0.4" stroke-width="1.0"/>
      <path d="M82.2 97.0 Q82.2 94.15 85.4 95.2 L85.75 95.6 85.9 96.75 85.65 98.05 Q84.8 98.55 84.1 98.65 L82.2 97.0 M73.65 96.55 L74.0 96.75 74.15 98.05 Q74.15 98.55 73.55 99.25 72.8 100.1 71.75 100.55 L69.85 98.8 Q69.85 97.95 70.35 97.1 71.3 95.6 73.65 96.55 M79.1 113.5 L77.2 111.85 Q77.2 109.0 80.55 110.05 L80.8 110.45 Q81.0 110.65 81.0 111.6 L80.65 112.9 Q79.85 113.4 79.1 113.5 M75.2 123.4 L75.45 124.55 75.1 125.85 73.55 126.45 71.75 124.8 Q71.75 121.95 74.95 123.0 L75.2 123.4 M48.6 104.85 L47.05 105.45 45.15 103.8 Q45.15 101.05 48.35 102.1 48.35 102.25 48.7 102.35 L48.8 103.65 48.6 104.85 M55.0 122.8 L53.2 121.1 Q53.2 118.25 56.45 119.35 L56.65 119.7 56.9 120.9 56.55 122.2 55.0 122.8 M46.8 135.75 L47.05 136.9 46.7 138.25 Q45.85 138.7 45.15 138.8 L43.25 137.15 Q43.25 134.3 46.55 135.4 L46.8 135.75 M31.6 117.8 L31.25 119.1 29.7 119.7 27.8 118.05 Q27.8 115.2 31.1 116.25 L31.35 116.6 31.6 117.8 M7.5 105.7 Q7.5 102.85 10.7 103.9 10.7 104.15 11.05 104.25 L11.15 105.45 10.8 106.75 9.25 107.35 7.5 105.7 M16.75 143.35 Q16.75 140.5 19.95 141.55 19.95 141.8 20.3 141.9 L20.45 143.1 20.05 144.4 Q19.35 144.9 18.55 145.0 L16.75 143.35 M1.3 130.75 L0.95 132.05 -0.6 132.65 -2.4 131.0 Q-2.4 128.15 0.85 129.2 L1.05 129.55 1.3 130.75 M86.5 131.1 L86.35 132.55 84.7 133.25 Q82.8 131.6 82.8 131.1 82.8 129.9 84.7 129.2 86.5 128.85 86.5 131.1 M-40.75 81.7 Q-38.85 81.2 -38.85 83.6 L-39.1 84.9 -40.75 85.7 Q-42.55 84.15 -42.55 83.6 -42.55 82.25 -40.75 81.7 M-53.0 82.25 L-52.65 82.65 Q-52.5 82.85 -52.5 83.8 -52.5 85.7 -54.65 85.7 L-56.45 85.35 Q-56.8 85.6 -56.8 84.05 -56.8 82.65 -55.75 82.25 -55.15 82.05 -53.0 82.25 M-52.65 96.15 Q-52.5 96.55 -52.5 97.5 L-52.75 98.65 -54.3 99.25 -56.2 97.6 Q-56.2 94.85 -53.0 95.95 L-52.65 96.15 M-37.8 98.65 Q-37.65 99.0 -37.65 99.85 -37.65 101.75 -39.8 101.75 L-41.7 101.4 Q-41.95 101.65 -41.95 100.1 -41.95 98.65 -40.9 98.3 -40.3 98.05 -38.15 98.3 L-37.8 98.65 M-14.15 101.3 Q-14.15 98.55 -10.95 99.6 L-10.6 99.85 Q-10.45 100.2 -10.45 101.15 L-10.8 102.35 -12.35 102.95 -14.15 101.3 M-24.0 120.9 L-24.35 122.2 -25.9 122.8 -27.8 121.1 Q-27.8 118.25 -24.5 119.35 L-24.25 119.7 Q-24.0 119.95 -24.0 120.9 M-25.3 142.5 L-25.55 143.8 Q-26.4 144.3 -27.1 144.4 L-29.0 142.75 Q-29.0 139.9 -25.8 140.95 L-25.45 141.3 Q-25.3 141.55 -25.3 142.5 M-51.2 114.45 Q-49.45 114.0 -49.45 116.25 L-49.55 117.7 -51.2 118.4 Q-53.1 116.85 -53.1 116.25 -53.1 115.05 -51.2 114.45 M-43.85 133.85 L-45.65 132.15 Q-45.65 129.45 -42.4 130.5 L-42.2 130.75 Q-41.95 131.1 -41.95 132.05 L-42.3 133.25 -43.85 133.85" fill="#000000" fill-rule="evenodd" stroke="none"/>
    </g>
    <linearGradient gradientTransform="matrix(0.008, -0.0386, 0.1193, 0.0248, 21.35, 14.85)" gradientUnits="userSpaceOnUse" id="gradient0" spreadMethod="pad" x1="-819.2" x2="819.2">
      <stop offset="0.0" stop-color="#666600"/>
      <stop offset="1.0" stop-color="#71af00"/>
    </linearGradient>
    <linearGradient gradientTransform="matrix(0.0235, 0.0, 0.0, 0.0528, 18.3, -4.45)" gradientUnits="userSpaceOnUse" id="gradient1" spreadMethod="pad" x1="-819.2" x2="819.2">
      <stop offset="0.0" stop-color="#d1d1a5"/>
      <stop offset="1.0" stop-color="#8c8c59"/>
    </linearGradient>
    <linearGradient gradientTransform="matrix(0.0232, 0.0, 0.0, 0.0646, -0.7, 22.0)" gradientUnits="userSpaceOnUse" id="gradient2" spreadMethod="pad" x1="-819.2" x2="819.2">
      <stop offset="0.0" stop-color="#d1d1a5"/>
      <stop offset="1.0" stop-color="#8c8c59"/>
    </linearGradient>
    <radialGradient cx="0" cy="0" gradientTransform="matrix(0.0623, 0.0, 0.0, 0.0623, 96.75, -79.45)" gradientUnits="userSpaceOnUse" id="gradient3" r="819.2" spreadMethod="pad">
      <stop offset="0.0" stop-color="#ffff66" stop-opacity="0.6509804"/>
      <stop offset="1.0" stop-color="#ffff99" stop-opacity="0.0"/>
    </radialGradient>
    <radialGradient cx="0" cy="0" gradientTransform="matrix(0.0623, 0.0, 0.0, 0.0623, 27.2, -66.5)" gradientUnits="userSpaceOnUse" id="gradient4" r="819.2" spreadMethod="pad">
      <stop offset="0.0" stop-color="#ffff66" stop-opacity="0.6509804"/>
      <stop offset="1.0" stop-color="#ffff99" stop-opacity="0.0"/>
    </radialGradient>
    <radialGradient cx="0" cy="0" gradientTransform="matrix(0.0135, 0.0, 0.0, 0.0135, 21.45, -60.6)" gradientUnits="userSpaceOnUse" id="gradient5" r="819.2" spreadMethod="pad">
      <stop offset="0.0" stop-color="#ffff66" stop-opacity="0.6509804"/>
      <stop offset="1.0" stop-color="#ffff99" stop-opacity="0.0"/>
    </radialGradient>
    <radialGradient cx="0" cy="0" gradientTransform="matrix(0.0132, 0.0, 0.0, 0.0132, 102.05, -77.5)" gradientUnits="userSpaceOnUse" id="gradient6" r="819.2" spreadMethod="pad">
      <stop offset="0.0" stop-color="#ffff66" stop-opacity="0.6509804"/>
      <stop offset="1.0" stop-color="#ffff99" stop-opacity="0.0"/>
    </radialGradient>
  </defs>
</svg>
