<?xml version="1.0" encoding="UTF-8" standalone="no"?>
<svg xmlns:xlink="http://www.w3.org/1999/xlink" height="531.5px" width="460.6px" xmlns="http://www.w3.org/2000/svg">
  <g transform="matrix(1.0, 0.0, 0.0, 1.0, 193.65, 334.05)">
    <use height="98.25" transform="matrix(1.0, 0.0, 0.0, 1.0, 0.05, -65.0)" width="91.5" xlink:href="#shape0"/>
  </g>
  <defs>
    <g id="shape0" transform="matrix(1.0, 0.0, 0.0, 1.0, -0.05, 65.0)">
      <path d="M50.7 -64.2 L52.95 -64.2 53.2 -64.2 56.15 -63.95 57.7 -63.7 59.5 -63.35 Q63.9 -62.35 67.85 -60.1 L62.65 -60.7 58.65 -60.25 58.2 -60.1 57.7 -58.95 57.7 -59.9 Q55.85 -59.15 55.85 -57.75 55.85 -57.15 59.3 -55.25 L63.5 -52.9 66.8 -51.05 69.3 -48.85 Q67.0 -50.65 64.5 -51.8 61.05 -53.5 57.35 -54.05 L54.15 -54.4 53.95 -54.4 53.05 -54.4 52.85 -54.4 52.7 -54.4 52.5 -54.4 52.4 -54.4 52.1 -54.4 Q47.5 -54.3 43.35 -52.65 L41.0 -51.6 Q36.4 -49.2 32.45 -44.8 L31.0 -43.15 Q24.7 -35.35 22.75 -25.3 L22.65 -27.2 Q22.5 -30.25 20.85 -30.25 18.8 -30.25 15.35 -26.2 L13.15 -23.4 Q13.7 -28.5 15.15 -33.15 18.0 -42.45 24.15 -50.1 26.1 -52.45 28.15 -54.4 L29.6 -55.75 36.1 -60.35 Q42.85 -63.95 50.65 -64.2 L50.7 -64.2 M32.1 -62.8 L33.1 -62.85 33.4 -62.9 33.45 -62.9 33.6 -62.9 33.8 -62.9 34.0 -62.9 34.15 -62.9 35.55 -62.85 Q36.35 -62.7 36.35 -62.2 36.35 -61.6 31.7 -60.4 L23.2 -58.25 22.2 -58.25 Q23.05 -59.65 27.15 -61.3 30.1 -62.5 32.1 -62.8" fill="#ffedab" fill-rule="evenodd" stroke="none"/>
      <path d="M50.65 -64.2 Q42.85 -63.95 36.1 -60.35 L29.6 -55.75 28.15 -54.4 Q26.1 -52.45 24.15 -50.1 18.0 -42.45 15.15 -33.15 L15.35 -35.95 15.15 -39.35 Q14.95 -40.6 14.4 -41.4 13.9 -42.25 12.65 -42.9 11.35 -43.55 10.35 -43.55 8.45 -43.55 6.3 -40.35 L4.5 -37.45 Q7.05 -44.25 11.45 -50.1 L13.25 -52.35 Q23.3 -64.25 37.2 -64.25 L50.65 -64.2 M13.15 -23.4 L15.35 -26.2 Q18.8 -30.25 20.85 -30.25 22.5 -30.25 22.65 -27.2 L22.75 -25.3 Q24.7 -35.35 31.0 -43.15 L32.45 -44.8 Q36.4 -49.2 41.0 -51.6 L43.35 -52.65 Q47.5 -54.3 52.1 -54.4 L52.4 -54.4 52.5 -54.4 52.7 -54.4 52.85 -54.4 53.05 -54.4 53.95 -54.4 54.15 -54.4 57.35 -54.05 Q61.05 -53.5 64.5 -51.8 67.0 -50.65 69.3 -48.85 L66.8 -51.05 63.5 -52.9 59.3 -55.25 Q55.85 -57.15 55.85 -57.75 55.85 -59.15 57.7 -59.9 L57.7 -58.95 58.2 -60.1 58.65 -60.25 62.65 -60.7 67.85 -60.1 Q74.1 -56.6 79.35 -50.1 83.35 -45.2 85.9 -39.65 L86.1 -39.2 84.5 -36.4 Q82.85 -33.5 81.45 -31.75 L79.8 -29.15 79.35 -30.35 Q77.3 -35.95 73.45 -40.65 L70.35 -44.05 68.25 -45.8 Q66.25 -47.45 63.95 -48.5 60.85 -50.1 57.45 -50.6 L54.55 -50.95 54.5 -50.65 54.25 -50.65 53.3 -50.8 52.5 -50.85 50.95 -50.7 Q47.55 -50.35 44.75 -49.25 L42.65 -48.3 Q38.45 -46.15 34.85 -42.15 L33.5 -40.65 Q27.8 -33.55 26.1 -24.4 25.25 -20.35 25.25 -15.9 25.25 -1.4 33.5 8.9 L34.15 9.55 37.15 12.7 35.1 15.7 33.35 17.3 30.05 19.85 27.05 21.55 26.8 21.3 24.15 18.35 Q16.95 9.35 14.25 -1.9 12.7 -8.5 12.7 -15.9 12.7 -19.75 13.15 -23.4 M33.4 -62.9 L32.1 -62.8 Q30.1 -62.5 27.15 -61.3 23.05 -59.65 22.2 -58.25 L23.2 -58.25 31.7 -60.4 Q36.35 -61.6 36.35 -62.2 36.35 -62.7 35.55 -62.85 L34.15 -62.9 34.0 -62.9 33.8 -62.9 33.6 -62.9 33.45 -62.9 33.4 -62.9" fill="#ffcc00" fill-rule="evenodd" stroke="none"/>
      <path d="M37.15 12.7 L34.15 9.55 33.5 8.9 Q25.25 -1.4 25.25 -15.9 25.25 -20.35 26.1 -24.4 27.8 -33.55 33.5 -40.65 L34.85 -42.15 Q38.45 -46.15 42.65 -48.3 L44.75 -49.25 Q47.55 -50.35 50.95 -50.7 L52.5 -50.85 53.3 -50.8 54.25 -50.65 54.5 -50.65 54.8 -50.6 Q58.2 -50.1 61.35 -48.5 63.6 -47.45 65.65 -45.8 L67.75 -44.05 70.85 -40.65 72.65 -38.25 Q75.2 -34.55 76.7 -30.35 78.6 -25.25 79.0 -19.35 L79.15 -15.9 79.05 -12.9 Q78.4 -2.0 72.75 6.25 L72.0 7.3 71.55 7.9 70.85 8.9 Q67.65 12.85 63.9 15.35 59.85 17.9 55.25 18.8 L55.2 18.8 53.0 19.05 50.65 18.95 Q47.55 18.55 44.6 17.45 41.2 16.05 38.1 13.5 L37.4 12.9 37.3 12.8 37.2 12.75 37.15 12.7" fill="#d47e00" fill-rule="evenodd" stroke="none"/>
      <path d="M54.5 -50.65 L54.55 -50.95 57.45 -50.6 Q60.85 -50.1 63.95 -48.5 66.25 -47.45 68.25 -45.8 L70.35 -44.05 73.45 -40.65 Q77.3 -35.95 79.35 -30.35 L79.8 -29.15 80.2 -27.85 Q81.35 -23.85 81.7 -19.35 L81.75 -15.9 81.7 -12.9 Q80.95 -0.95 74.15 7.9 L73.45 8.9 Q70.25 12.85 66.5 15.35 61.4 18.6 55.3 19.05 L55.25 18.8 Q59.85 17.9 63.9 15.35 67.65 12.85 70.85 8.9 L71.55 7.9 72.0 7.3 72.75 6.25 Q78.4 -2.0 79.05 -12.9 L79.15 -15.9 79.0 -19.35 Q78.6 -25.25 76.7 -30.35 75.2 -34.55 72.65 -38.25 L70.85 -40.65 67.75 -44.05 65.65 -45.8 Q63.6 -47.45 61.35 -48.5 58.2 -50.1 54.8 -50.6 L54.5 -50.65" fill="#a14500" fill-rule="evenodd" stroke="none"/>
      <path d="M32.1 -62.8 L33.4 -62.9 33.1 -62.85 32.1 -62.8" fill="#a1a1a1" fill-rule="evenodd" stroke="none"/>
      <path d="M15.15 -33.15 Q13.7 -28.5 13.15 -23.4 12.7 -19.75 12.7 -15.9 12.7 -8.5 14.25 -1.9 12.85 5.35 7.9 12.95 0.8 0.5 0.8 -15.9 0.8 -27.7 4.5 -37.45 L6.3 -40.35 Q8.45 -43.55 10.35 -43.55 11.35 -43.55 12.65 -42.9 13.9 -42.25 14.4 -41.4 14.95 -40.6 15.15 -39.35 L15.35 -35.95 15.15 -33.15" fill="#ffb700" fill-rule="evenodd" stroke="none"/>
      <path d="M79.8 -29.15 L81.45 -31.75 Q82.85 -33.5 84.5 -36.4 L86.1 -39.2 Q88.55 -33.8 89.75 -27.7 90.8 -22.1 90.8 -15.9 90.8 0.95 82.75 13.6 L80.05 17.45 79.35 18.35 Q74.1 24.75 67.85 28.35 61.6 31.85 54.25 32.4 L54.1 32.4 49.7 32.45 Q36.8 31.7 27.05 21.55 L30.05 19.85 33.35 17.3 35.1 15.7 37.15 12.7 37.2 12.75 37.3 12.8 37.4 12.9 38.1 13.5 Q41.2 16.05 44.6 17.45 47.55 18.55 50.65 18.95 L53.0 19.05 55.25 19.05 55.3 19.05 Q61.4 18.6 66.5 15.35 70.25 12.85 73.45 8.9 L74.15 7.9 Q80.95 -0.95 81.7 -12.9 L81.75 -15.9 81.7 -19.35 Q81.35 -23.85 80.2 -27.85 L79.8 -29.15 M7.9 12.95 Q12.85 5.35 14.25 -1.9 16.95 9.35 24.15 18.35 L26.8 21.3 22.1 24.05 18.8 26.0 Q14.85 22.9 11.45 18.35 9.5 15.7 7.9 12.95 M50.9 22.65 L51.25 22.65 50.9 22.55 49.9 22.5 50.9 22.65" fill="#ff9900" fill-rule="evenodd" stroke="none"/>
      <path d="M55.25 18.8 L55.3 19.05 55.25 19.05 55.2 18.8 55.25 18.8" fill="#c24a00" fill-rule="evenodd" stroke="none"/>
      <path d="M55.2 18.8 L55.25 19.05 53.0 19.05 55.2 18.8" fill="#1f1f1f" fill-rule="evenodd" stroke="none"/>
      <path d="M50.9 22.65 L50.9 22.55 51.25 22.65 50.9 22.65" fill="#895827" fill-rule="evenodd" stroke="none"/>
      <path d="M50.9 22.55 L50.9 22.65 49.9 22.5 50.9 22.55" fill="#805020" fill-rule="evenodd" stroke="none"/>
      <path d="M49.7 32.45 L37.2 32.5 Q26.95 32.5 18.8 26.0 L22.1 24.05 26.8 21.3 27.05 21.55 Q36.8 31.7 49.7 32.45" fill="#ff6600" fill-rule="evenodd" stroke="none"/>
      <path d="M50.7 -64.2 L52.95 -64.2 51.8 -64.25 50.7 -64.2 50.65 -64.2 Q42.85 -63.95 36.1 -60.35 L29.6 -55.75 28.15 -54.4 Q26.1 -52.45 24.15 -50.1 18.0 -42.45 15.15 -33.15 13.7 -28.5 13.15 -23.4 12.7 -19.75 12.7 -15.9 12.7 -8.5 14.25 -1.9 16.95 9.35 24.15 18.35 L26.8 21.3 27.05 21.55 Q36.8 31.7 49.7 32.45 L37.2 32.5 Q26.95 32.5 18.8 26.0 14.85 22.9 11.45 18.35 9.5 15.7 7.9 12.95 0.8 0.5 0.8 -15.9 0.8 -27.7 4.5 -37.45 7.05 -44.25 11.45 -50.1 L13.25 -52.35 Q23.3 -64.25 37.2 -64.25 L50.65 -64.2 M67.85 -60.1 Q63.9 -62.35 59.5 -63.35 L57.7 -63.7 56.15 -63.95 53.2 -64.2 52.95 -64.2 M86.1 -39.2 L85.9 -39.65 Q83.35 -45.2 79.35 -50.1 74.1 -56.6 67.85 -60.1 M86.1 -39.2 Q88.55 -33.8 89.75 -27.7 90.8 -22.1 90.8 -15.9 90.8 0.95 82.75 13.6 L80.05 17.45 79.35 18.35 Q74.1 24.75 67.85 28.35 61.6 31.85 54.25 32.4 L54.1 32.4 51.8 32.5 49.7 32.45 54.1 32.4" fill="none" stroke="#000000" stroke-linecap="round" stroke-linejoin="round" stroke-opacity="0.4" stroke-width="1.5"/>
      <path d="M37.15 12.7 L34.15 9.55 33.5 8.9 Q25.25 -1.4 25.25 -15.9 25.25 -20.35 26.1 -24.4 27.8 -33.55 33.5 -40.65 L34.85 -42.15 Q38.45 -46.15 42.65 -48.3 L44.75 -49.25 Q47.55 -50.35 50.95 -50.7 L52.5 -50.85 53.3 -50.8 54.25 -50.65 54.5 -50.65 54.8 -50.6 Q58.2 -50.1 61.35 -48.5 63.6 -47.45 65.65 -45.8 L67.75 -44.05 70.85 -40.65 72.65 -38.25 Q75.2 -34.55 76.7 -30.35 78.6 -25.25 79.0 -19.35 L79.15 -15.9 79.05 -12.9 Q78.4 -2.0 72.75 6.25 L72.0 7.3 71.55 7.9 70.85 8.9 Q67.65 12.85 63.9 15.35 59.85 17.9 55.25 18.8 L55.2 18.8 53.0 19.05 55.25 19.05 55.3 19.05 Q61.4 18.6 66.5 15.35 70.25 12.85 73.45 8.9 L74.15 7.9 Q80.95 -0.95 81.7 -12.9 L81.75 -15.9 81.7 -19.35 Q81.35 -23.85 80.2 -27.85 L79.8 -29.15 79.35 -30.35 Q77.3 -35.95 73.45 -40.65 L70.35 -44.05 68.25 -45.8 Q66.25 -47.45 63.95 -48.5 60.85 -50.1 57.45 -50.6 L54.55 -50.95 M37.15 12.7 L37.2 12.75 37.3 12.8 37.4 12.9 38.1 13.5 Q41.2 16.05 44.6 17.45 47.55 18.55 50.65 18.95 L53.0 19.05" fill="none" stroke="#000000" stroke-linecap="round" stroke-linejoin="round" stroke-opacity="0.4" stroke-width="1.0"/>
      <path d="M68.2 -35.55 Q70.55 -35.55 70.55 -33.05 L70.55 -0.7 Q70.55 1.85 68.2 1.85 L38.15 1.85 Q35.8 1.85 35.8 -0.7 L35.8 -33.05 Q35.8 -35.55 38.15 -35.55 L68.2 -35.55" fill="#4f4f4f" fill-rule="evenodd" stroke="none"/>
      <path d="M68.2 -35.55 L38.15 -35.55 Q35.8 -35.55 35.8 -33.05 L35.8 -0.7 Q35.8 1.85 38.15 1.85 L68.2 1.85 Q70.55 1.85 70.55 -0.7 L70.55 -33.05 Q70.55 -35.55 68.2 -35.55 Z" fill="none" stroke="#000000" stroke-linecap="round" stroke-linejoin="round" stroke-opacity="0.4" stroke-width="1.5"/>
      <path d="M71.85 -35.55 Q74.2 -35.55 74.2 -33.05 L74.2 -0.7 Q74.2 1.85 71.85 1.85 L41.8 1.85 Q39.45 1.85 39.45 -0.7 L39.45 -33.05 Q39.45 -35.55 41.8 -35.55 L71.85 -35.55" fill="#ffffff" fill-rule="evenodd" stroke="none"/>
      <path d="M71.85 -35.55 L41.8 -35.55 Q39.45 -35.55 39.45 -33.05 L39.45 -0.7 Q39.45 1.85 41.8 1.85 L71.85 1.85 Q74.2 1.85 74.2 -0.7 L74.2 -33.05 Q74.2 -35.55 71.85 -35.55 Z" fill="none" stroke="#000000" stroke-linecap="round" stroke-linejoin="round" stroke-opacity="0.4" stroke-width="1.5"/>
      <path d="M51.45 -23.1 Q50.1 -21.65 48.2 -21.65 46.25 -21.65 44.9 -23.1 43.55 -24.55 43.55 -26.65 43.55 -28.75 44.9 -30.2 46.25 -31.65 48.2 -31.65 50.1 -31.65 51.45 -30.2 52.85 -28.75 52.85 -26.65 52.85 -24.55 51.45 -23.1" fill="#000000" fill-rule="evenodd" stroke="none"/>
      <path d="M51.45 -23.1 Q50.1 -21.65 48.2 -21.65 46.25 -21.65 44.9 -23.1 43.55 -24.55 43.55 -26.65 43.55 -28.75 44.9 -30.2 46.25 -31.65 48.2 -31.65 50.1 -31.65 51.45 -30.2 52.85 -28.75 52.85 -26.65 52.85 -24.55 51.45 -23.1 Z" fill="none" stroke="#000000" stroke-linecap="round" stroke-linejoin="round" stroke-opacity="0.4" stroke-width="1.5"/>
      <path d="M69.8 -2.55 Q68.45 -1.1 66.55 -1.1 64.6 -1.1 63.25 -2.55 61.9 -4.0 61.9 -6.1 61.9 -8.2 63.25 -9.65 64.6 -11.1 66.55 -11.1 68.45 -11.1 69.8 -9.65 71.2 -8.2 71.2 -6.1 71.2 -4.0 69.8 -2.55" fill="#000000" fill-rule="evenodd" stroke="none"/>
      <path d="M69.8 -2.55 Q68.45 -1.1 66.55 -1.1 64.6 -1.1 63.25 -2.55 61.9 -4.0 61.9 -6.1 61.9 -8.2 63.25 -9.65 64.6 -11.1 66.55 -11.1 68.45 -11.1 69.8 -9.65 71.2 -8.2 71.2 -6.1 71.2 -4.0 69.8 -2.55 Z" fill="none" stroke="#000000" stroke-linecap="round" stroke-linejoin="round" stroke-opacity="0.4" stroke-width="1.5"/>
      <path d="M60.65 -12.55 Q59.3 -11.1 57.4 -11.1 55.45 -11.1 54.1 -12.55 52.75 -14.0 52.75 -16.1 52.75 -18.2 54.1 -19.65 55.45 -21.1 57.4 -21.1 59.3 -21.1 60.65 -19.65 62.05 -18.2 62.05 -16.1 62.05 -14.0 60.65 -12.55" fill="#000000" fill-rule="evenodd" stroke="none"/>
      <path d="M60.65 -12.55 Q59.3 -11.1 57.4 -11.1 55.45 -11.1 54.1 -12.55 52.75 -14.0 52.75 -16.1 52.75 -18.2 54.1 -19.65 55.45 -21.1 57.4 -21.1 59.3 -21.1 60.65 -19.65 62.05 -18.2 62.05 -16.1 62.05 -14.0 60.65 -12.55 Z" fill="none" stroke="#000000" stroke-linecap="round" stroke-linejoin="round" stroke-opacity="0.4" stroke-width="1.5"/>
      <path d="M29.6 -55.75 L28.15 -54.4 Q26.1 -52.45 24.15 -50.1 18.0 -42.45 15.15 -33.15 13.7 -28.5 13.15 -23.4 12.7 -19.75 12.7 -15.9 12.7 -8.5 14.25 -1.9 16.95 9.35 24.15 18.35 L26.8 21.3 27.05 21.55 Q36.8 31.7 49.7 32.45 L37.2 32.5 Q26.95 32.5 18.8 26.0 14.85 22.9 11.45 18.35 9.5 15.7 7.9 12.95 0.8 0.5 0.8 -15.9 0.8 -27.7 4.5 -37.45 7.05 -44.25 11.45 -50.1 L13.25 -52.35 Q23.3 -64.25 37.2 -64.25 L50.65 -64.2 Q42.85 -63.95 36.1 -60.35 L29.6 -55.75 M32.1 -62.8 L33.1 -62.85 33.4 -62.9 32.1 -62.8" fill="#700000" fill-opacity="0.2" fill-rule="evenodd" stroke="none"/>
    </g>
  </defs>
</svg>
