<?xml version="1.0" encoding="UTF-8" standalone="no"?>
<svg xmlns:xlink="http://www.w3.org/1999/xlink" height="531.5px" width="460.6px" xmlns="http://www.w3.org/2000/svg">
  <g transform="matrix(1.0, 0.0, 0.0, 1.0, 193.65, 334.05)">
    <use height="267.4" transform="matrix(0.4388, 0.0094, -0.0094, 0.4388, 22.8853, -72.7741)" width="111.1" xlink:href="#shape0"/>
  </g>
  <defs>
    <g id="shape0" transform="matrix(1.0, 0.0, 0.0, 1.0, 0.5, 0.5)">
      <path d="M77.0 10.55 Q68.4 10.75 65.55 23.05 64.0 29.55 64.0 43.3 64.0 48.65 64.85 62.3 65.6 74.1 66.0 77.6 L66.65 84.6 Q67.05 89.35 67.5 91.6 L68.5 97.9 Q66.4 100.6 64.6 104.9 L62.0 95.05 Q56.3 72.95 52.6 60.8 42.85 28.75 32.0 11.85 42.5 0.0 55.05 0.0 66.9 0.0 77.0 10.55" fill="#ffe393" fill-rule="evenodd" stroke="none"/>
      <path d="M86.2 36.05 L87.35 25.05 86.2 36.05 M77.0 10.55 Q82.4 16.25 87.35 25.05 90.8 31.25 94.0 39.0 110.1 78.0 110.1 133.2 110.1 165.95 104.45 193.0 101.65 199.1 99.95 199.1 96.75 199.1 88.9 176.55 L86.1 168.2 Q89.3 165.4 92.9 161.05 102.85 149.1 102.2 132.6 101.55 116.15 92.25 104.75 83.0 93.35 76.2 93.35 71.95 93.35 68.5 97.9 71.95 93.35 76.2 93.35 83.0 93.35 92.25 104.75 101.55 116.15 102.2 132.6 102.85 149.1 92.9 161.05 89.3 165.4 86.1 168.2 82.95 170.9 80.2 172.1 78.1 173.0 76.2 173.0 69.4 173.0 64.55 161.3 63.2 158.0 62.2 154.4 63.2 158.0 64.55 161.3 69.4 173.0 76.2 173.0 78.1 173.0 80.2 172.1 L85.3 195.5 Q90.45 221.15 90.45 234.6 L90.45 235.3 Q75.4 266.4 55.05 266.4 32.3 266.4 16.15 227.35 0.0 188.35 0.0 133.2 0.0 94.35 8.05 63.5 L17.6 66.9 9.25 59.05 Q12.2 48.55 16.15 39.0 23.4 21.5 32.0 11.85 42.85 28.75 52.6 60.8 56.3 72.95 62.0 95.05 L64.6 104.9 Q66.4 100.6 68.5 97.9 L67.5 91.6 Q67.05 89.35 66.65 84.6 L66.0 77.6 Q65.6 74.1 64.85 62.3 64.0 48.65 64.0 43.3 64.0 29.55 65.55 23.05 68.4 10.75 77.0 10.55 M82.1 45.3 Q85.6 49.2 88.3 54.35 L89.65 51.0 88.3 54.35 Q85.6 49.2 82.1 45.3 M87.0 57.55 L88.3 54.35 Q91.75 60.9 93.8 69.5 91.75 60.9 88.3 54.35 L87.0 57.55 M60.3 143.9 Q59.7 138.8 59.7 133.2 59.7 116.7 64.55 105.0 L64.6 104.9 64.55 105.0 Q59.7 116.7 59.7 133.2 59.7 138.8 60.3 143.9 M33.35 190.2 Q29.45 182.4 27.3 170.55 L30.85 168.05 27.3 170.55 Q29.45 182.4 33.35 190.2 M24.85 146.3 Q25.4 160.0 27.3 170.55 L24.1 172.75 27.3 170.55 Q25.4 160.0 24.85 146.3 M93.0 125.6 Q92.15 128.35 92.15 132.25 92.15 136.15 93.0 138.9 93.85 141.65 95.1 141.65 96.25 141.65 97.1 138.9 97.95 136.15 97.95 132.25 97.95 128.35 97.1 125.6 96.25 122.85 95.1 122.85 93.85 122.85 93.0 125.6 M70.4 248.15 L73.35 244.35 71.95 242.25 73.35 244.35 70.4 248.15 M75.3 247.4 L73.35 244.35 76.65 240.05 73.35 244.35 75.3 247.4" fill="url(#gradient0)" fill-rule="evenodd" stroke="none"/>
      <path d="M93.0 125.6 Q93.85 122.85 95.1 122.85 96.25 122.85 97.1 125.6 97.95 128.35 97.95 132.25 97.95 136.15 97.1 138.9 96.25 141.65 95.1 141.65 93.85 141.65 93.0 138.9 92.15 136.15 92.15 132.25 92.15 128.35 93.0 125.6" fill="#a04500" fill-rule="evenodd" stroke="none"/>
      <path d="M86.1 168.2 L88.9 176.55 Q96.75 199.1 99.95 199.1 101.65 199.1 104.45 193.0 100.55 211.5 94.0 227.35 L90.45 235.3 90.45 234.6 Q90.45 221.15 85.3 195.5 L80.2 172.1 Q82.95 170.9 86.1 168.2" fill="#ffda6d" fill-rule="evenodd" stroke="none"/>
      <path d="M104.45 193.0 Q110.1 165.95 110.1 133.2 110.1 78.0 94.0 39.0 90.8 31.25 87.35 25.05 82.4 16.25 77.0 10.55 66.9 0.0 55.05 0.0 42.5 0.0 32.0 11.85 23.4 21.5 16.15 39.0 12.2 48.55 9.25 59.05 L17.6 66.9 8.05 63.5 Q0.0 94.35 0.0 133.2 0.0 188.35 16.15 227.35 32.3 266.4 55.05 266.4 75.4 266.4 90.45 235.3 L94.0 227.35 Q100.55 211.5 104.45 193.0 M68.5 97.9 Q71.95 93.35 76.2 93.35 83.0 93.35 92.25 104.75 101.55 116.15 102.2 132.6 102.85 149.1 92.9 161.05 89.3 165.4 86.1 168.2 82.95 170.9 80.2 172.1 78.1 173.0 76.2 173.0 69.4 173.0 64.55 161.3 63.2 158.0 62.2 154.4 M64.6 104.9 Q66.4 100.6 68.5 97.9 M64.6 104.9 L64.55 105.0 Q59.7 116.7 59.7 133.2 59.7 138.8 60.3 143.9 M93.0 125.6 Q93.85 122.85 95.1 122.85 96.25 122.85 97.1 125.6 97.95 128.35 97.95 132.25 97.95 136.15 97.1 138.9 96.25 141.65 95.1 141.65 93.85 141.65 93.0 138.9 92.15 136.15 92.15 132.25 92.15 128.35 93.0 125.6" fill="none" stroke="#000000" stroke-linecap="round" stroke-linejoin="round" stroke-opacity="0.5019608" stroke-width="1.0"/>
      <path d="M87.35 25.05 L86.2 36.05 M93.8 69.5 Q91.75 60.9 88.3 54.35 L87.0 57.55 M89.65 51.0 L88.3 54.35 Q85.6 49.2 82.1 45.3 M24.1 172.75 L27.3 170.55 Q25.4 160.0 24.85 146.3 M30.85 168.05 L27.3 170.55 Q29.45 182.4 33.35 190.2 M76.65 240.05 L73.35 244.35 75.3 247.4 M71.95 242.25 L73.35 244.35 70.4 248.15" fill="none" stroke="#000000" stroke-linecap="round" stroke-linejoin="round" stroke-opacity="0.2509804" stroke-width="1.0"/>
      <path d="M29.85 228.4 Q24.05 216.1 20.8 204.95 24.3 214.7 28.9 222.8 40.55 243.35 56.0 246.9 L54.4 249.85 Q52.9 252.4 51.7 252.4 41.15 252.4 29.85 228.4" fill="#ffe393" fill-rule="evenodd" stroke="none"/>
    </g>
    <linearGradient gradientTransform="matrix(0.0122, -0.0612, 0.1523, 0.0304, 51.05, 139.1)" gradientUnits="userSpaceOnUse" id="gradient0" spreadMethod="pad" x1="-819.2" x2="819.2">
      <stop offset="0.0" stop-color="#edaa1c"/>
      <stop offset="1.0" stop-color="#ffcc33"/>
    </linearGradient>
  </defs>
</svg>
