<?xml version="1.0" encoding="UTF-8" standalone="no"?>
<svg xmlns:xlink="http://www.w3.org/1999/xlink" height="531.5px" width="460.6px" xmlns="http://www.w3.org/2000/svg">
  <g transform="matrix(1.0, 0.0, 0.0, 1.0, 193.65, 334.05)">
    <use height="418.4" transform="matrix(0.2466, 0.0, 0.0, 0.2466, 12.9767, -70.4115)" width="346.1" xlink:href="#shape0"/>
  </g>
  <defs>
    <g id="shape0" transform="matrix(1.0, 0.0, 0.0, 1.0, 0.5, 32.9)">
      <path d="M298.1 55.5 L298.75 56.35 Q343.0 112.75 343.0 192.5 343.0 223.4 336.35 250.8 L315.95 246.55 319.05 251.0 331.25 268.5 Q320.2 301.25 298.85 328.55 L298.8 328.6 298.75 328.6 298.75 328.65 Q278.7 335.1 266.85 328.55 265.95 339.4 257.45 347.55 246.0 352.75 235.25 346.75 231.05 368.7 220.1 382.0 207.5 384.8 194.0 385.0 L193.4 385.0 192.35 385.0 192.0 385.0 187.5 384.95 187.45 384.95 183.65 384.75 171.5 383.4 Q122.0 375.5 85.2 328.6 L81.95 324.35 81.95 305.45 65.3 297.85 Q59.4 286.65 54.95 274.65 50.4 259.4 59.8 247.5 46.6 246.55 43.95 232.15 49.15 210.3 70.3 201.5 52.75 203.75 41.0 192.5 41.0 180.3 42.05 168.65 41.0 180.3 41.0 192.5 41.0 213.1 43.95 232.15 45.25 240.7 47.2 248.95 39.3 218.55 23.8 207.5 38.15 190.4 42.05 168.65 43.5 152.4 46.95 137.25 L78.55 149.05 52.55 117.1 Q62.15 88.25 79.75 63.65 L94.9 44.9 Q128.4 8.45 171.5 1.6 L186.0 0.1 190.55 0.0 192.0 0.0 Q214.9 0.0 235.35 7.55 245.7 21.0 239.8 49.05 246.1 34.2 259.85 30.6 278.6 31.9 277.65 50.75 285.75 45.35 298.1 55.5 M295.4 138.85 Q287.0 113.55 272.0 93.55 L269.3 90.05 263.95 83.75 Q256.5 75.55 248.35 69.45 242.95 65.35 237.2 62.2 216.7 50.85 192.0 50.85 L190.9 50.85 187.55 50.95 183.75 51.2 176.95 52.05 Q140.8 57.8 115.15 92.35 101.95 110.1 94.9 131.05 L93.3 136.05 Q91.85 140.95 90.7 146.05 88.0 158.25 87.15 171.4 L86.85 176.9 86.8 178.05 Q86.6 185.15 86.9 192.5 88.65 234.9 107.1 268.35 L101.75 277.2 107.1 268.35 Q114.1 281.15 123.6 292.65 132.55 303.45 142.3 311.45 149.2 317.15 156.55 321.4 171.8 330.25 188.8 332.95 L197.8 333.95 200.6 334.1 203.95 334.15 204.2 334.15 204.95 334.15 205.4 334.15 Q214.55 334.0 223.1 332.2 242.95 327.85 259.35 314.35 265.95 308.85 272.0 301.9 276.15 297.1 280.05 291.6 309.6 249.7 305.1 189.5 303.0 161.95 295.4 138.85 L314.3 127.2 295.4 138.85 M181.75 36.65 L183.75 51.2 181.75 36.65 M224.8 340.75 L223.1 332.2 224.8 340.75" fill="url(#gradient0)" fill-rule="evenodd" stroke="none"/>
      <path d="M248.35 69.45 Q256.5 75.55 263.95 83.75 L269.3 90.05 272.0 93.55 Q287.0 113.55 295.4 138.85 L277.3 149.95 295.4 138.85 Q303.0 161.95 305.1 189.5 309.6 249.7 280.05 291.6 276.15 297.1 272.0 301.9 265.95 308.85 259.35 314.35 242.95 327.85 223.1 332.2 214.55 334.0 205.4 334.15 L204.95 334.15 204.2 334.15 203.95 334.15 200.6 334.1 197.8 333.95 188.8 332.95 Q171.8 330.25 156.55 321.4 149.2 317.15 142.3 311.45 132.55 303.45 123.6 292.65 114.1 281.15 107.1 268.35 88.65 234.9 86.9 192.5 86.6 185.15 86.8 178.05 L86.85 176.9 87.15 171.4 Q88.0 158.25 90.7 146.05 91.85 140.95 93.3 136.05 L94.9 131.05 Q101.95 110.1 115.15 92.35 140.8 57.8 176.95 52.05 L183.75 51.2 187.55 50.95 190.9 50.85 192.0 50.85 Q216.7 50.85 237.2 62.2 242.95 65.35 248.35 69.45 M185.75 66.15 L183.75 51.2 185.75 66.15 M192.4 91.75 L189.6 91.8 Q158.1 93.05 137.25 122.45 115.6 153.05 118.3 196.4 121.0 239.75 146.5 270.35 171.0 299.7 202.7 300.95 L205.5 301.0 Q229.8 301.0 247.9 284.75 252.25 280.85 256.25 276.05 L260.55 270.35 Q282.3 239.75 279.6 196.4 276.9 153.05 251.3 122.45 225.75 91.75 192.4 91.75 M107.1 268.35 L116.75 252.2 107.1 268.35 M221.8 325.75 L223.1 332.2 221.8 325.75" fill="#ffa904" fill-rule="evenodd" stroke="none"/>
      <path d="M235.35 7.55 Q253.05 14.1 268.9 26.3 284.35 38.2 298.1 55.5 285.75 45.35 277.65 50.75 278.6 31.9 259.85 30.6 246.1 34.2 239.8 49.05 245.7 21.0 235.35 7.55" fill="#feb519" fill-rule="evenodd" stroke="none"/>
      <path d="M11.2 119.1 Q22.05 86.25 43.4 58.8 85.7 4.45 145.75 1.1 L186.0 0.1 171.5 1.6 Q128.4 8.45 94.9 44.9 L79.75 63.65 Q62.15 88.25 52.55 117.1 L11.2 119.1" fill="url(#gradient1)" fill-rule="evenodd" stroke="none"/>
      <path d="M192.4 91.75 Q225.75 91.75 251.3 122.45 276.9 153.05 279.6 196.4 282.3 239.75 260.55 270.35 L256.25 276.05 Q252.25 280.85 247.9 284.75 229.8 301.0 205.5 301.0 L202.7 300.95 Q171.0 299.7 146.5 270.35 121.0 239.75 118.3 196.4 115.6 153.05 137.25 122.45 158.1 93.05 189.6 91.8 L192.4 91.75" fill="#ffc916" fill-rule="evenodd" stroke="none"/>
      <path d="M336.35 250.8 L319.05 251.0 315.95 246.55 336.35 250.8 M30.95 139.35 L11.2 119.1 52.55 117.1 78.55 149.05 46.95 137.25 30.95 139.35" fill="#9f5005" fill-rule="evenodd" stroke="none"/>
      <path d="M183.65 384.75 L136.65 383.1 135.6 382.95 Q82.1 375.85 43.4 326.2 0.0 270.4 0.0 192.5 0.0 166.4 4.9 142.8 L30.95 139.35 46.95 137.25 Q43.5 152.4 42.05 168.65 38.15 190.4 23.8 207.5 39.3 218.55 47.2 248.95 L47.45 249.9 48.1 252.55 Q50.95 263.9 54.95 274.65 59.4 286.65 65.3 297.85 L65.25 315.95 81.95 324.35 85.2 328.6 Q122.0 375.5 171.5 383.4 L183.65 384.75" fill="url(#gradient2)" fill-rule="evenodd" stroke="none"/>
      <path d="M41.0 192.5 Q52.75 203.75 70.3 201.5 49.15 210.3 43.95 232.15 46.6 246.55 59.8 247.5 50.4 259.4 54.95 274.65 50.95 263.9 48.1 252.55 L47.45 249.9 47.2 248.95 Q45.25 240.7 43.95 232.15 41.0 213.1 41.0 192.5" fill="#ff811e" fill-rule="evenodd" stroke="none"/>
      <path d="M65.3 297.85 L81.95 305.45 81.95 324.35 65.25 315.95 65.3 297.85" fill="#ffad16" fill-rule="evenodd" stroke="none"/>
      <path d="M298.75 328.65 L293.6 334.7 Q291.85 332.2 288.2 332.2 284.4 332.2 280.95 334.15 279.55 334.9 278.25 336.0 273.75 339.8 272.65 345.2 L272.4 347.4 269.3 346.95 Q264.8 346.95 261.6 350.15 259.7 352.05 259.0 354.45 255.05 351.25 249.8 351.25 245.75 351.25 242.45 353.15 240.8 354.1 239.35 355.55 235.05 359.9 235.05 366.0 235.05 371.85 239.0 376.05 229.8 379.8 220.1 382.0 231.05 368.7 235.25 346.75 246.0 352.75 257.45 347.55 265.95 339.4 266.85 328.55 278.7 335.1 298.75 328.65" fill="#ff8c33" fill-rule="evenodd" stroke="none"/>
      <path d="M293.6 334.7 L280.95 334.15 Q284.4 332.2 288.2 332.2 291.85 332.2 293.6 334.7 M259.0 354.45 L242.45 353.15 Q245.75 351.25 249.8 351.25 255.05 351.25 259.0 354.45" fill="url(#gradient3)" fill-rule="evenodd" stroke="none"/>
      <path d="M298.1 55.5 L298.75 56.35 Q343.0 112.75 343.0 192.5 343.0 223.4 336.35 250.8 L319.05 251.0 331.25 268.5 Q320.2 301.25 298.85 328.55 L298.8 328.6 298.75 328.6 298.75 328.65 293.6 334.7 280.95 334.15 Q279.55 334.9 278.25 336.0 273.75 339.8 272.65 345.2 L272.4 347.4 269.3 346.95 Q264.8 346.95 261.6 350.15 259.7 352.05 259.0 354.45 L242.45 353.15 Q240.8 354.1 239.35 355.55 235.05 359.9 235.05 366.0 235.05 371.85 239.0 376.05 229.8 379.8 220.1 382.0 207.5 384.8 194.0 385.0 L193.4 385.0 192.35 385.0 192.0 385.0 187.5 384.95 187.45 384.95 183.65 384.75 136.65 383.1 135.6 382.95 Q82.1 375.85 43.4 326.2 0.0 270.4 0.0 192.5 0.0 166.4 4.9 142.8 L30.95 139.35 11.2 119.1 Q22.05 86.25 43.4 58.8 85.7 4.45 145.75 1.1 L186.0 0.1 190.55 0.0 192.0 0.0 Q214.9 0.0 235.35 7.55 253.05 14.1 268.9 26.3 284.35 38.2 298.1 55.5 M94.9 44.9 Q128.4 8.45 171.5 1.6 L186.0 0.1 M42.05 168.65 Q41.0 180.3 41.0 192.5 41.0 213.1 43.95 232.15 45.25 240.7 47.2 248.95 L47.45 249.9 48.1 252.55 Q50.95 263.9 54.95 274.65 59.4 286.65 65.3 297.85 L81.95 305.45 81.95 324.35 85.2 328.6 Q122.0 375.5 171.5 383.4 L183.65 384.75 M52.55 117.1 L78.55 149.05 46.95 137.25 Q43.5 152.4 42.05 168.65 M46.95 137.25 L30.95 139.35 M11.2 119.1 L52.55 117.1 Q62.15 88.25 79.75 63.65 M65.3 297.85 L65.25 315.95 81.95 324.35 M336.35 250.8 L315.95 246.55 319.05 251.0 M293.6 334.7 Q291.85 332.2 288.2 332.2 284.4 332.2 280.95 334.15 M259.0 354.45 Q255.05 351.25 249.8 351.25 245.75 351.25 242.45 353.15" fill="none" stroke="#000000" stroke-linecap="round" stroke-linejoin="round" stroke-opacity="0.34901962" stroke-width="1.0"/>
      <path d="M295.4 138.85 Q287.0 113.55 272.0 93.55 L269.3 90.05 263.95 83.75 Q256.5 75.55 248.35 69.45 M237.2 62.2 Q216.7 50.85 192.0 50.85 L190.9 50.85 187.55 50.95 183.75 51.2 185.75 66.15 M93.3 136.05 L94.9 131.05 Q101.95 110.1 115.15 92.35 140.8 57.8 176.95 52.05 L183.75 51.2 181.75 36.65 M295.4 138.85 L314.3 127.2 M277.3 149.95 L295.4 138.85 Q303.0 161.95 305.1 189.5 309.6 249.7 280.05 291.6 276.15 297.1 272.0 301.9 265.95 308.85 259.35 314.35 242.95 327.85 223.1 332.2 L224.8 340.75 M107.1 268.35 Q88.65 234.9 86.9 192.5 86.6 185.15 86.8 178.05 L86.85 176.9 M107.1 268.35 L101.75 277.2 M116.75 252.2 L107.1 268.35 Q114.1 281.15 123.6 292.65 132.55 303.45 142.3 311.45 M156.55 321.4 Q171.8 330.25 188.8 332.95 L197.8 333.95 200.6 334.1 203.95 334.15 204.2 334.15 204.95 334.15 205.4 334.15 Q214.55 334.0 223.1 332.2 L221.8 325.75" fill="none" stroke="#000000" stroke-linecap="round" stroke-linejoin="round" stroke-opacity="0.2" stroke-width="1.0"/>
      <path d="M192.4 91.75 Q225.75 91.75 251.3 122.45 276.9 153.05 279.6 196.4 282.3 239.75 260.55 270.35 L256.25 276.05 Q252.25 280.85 247.9 284.75 229.8 301.0 205.5 301.0 L202.7 300.95 Q171.0 299.7 146.5 270.35 121.0 239.75 118.3 196.4 115.6 153.05 137.25 122.45 158.1 93.05 189.6 91.8 L192.4 91.75" fill="none" stroke="#000000" stroke-linecap="round" stroke-linejoin="round" stroke-opacity="0.14901961" stroke-width="1.0"/>
      <path d="M281.55 162.05 L179.65 341.45 Q151.3 364.15 157.8 333.1 159.8 323.4 165.6 313.55 189.75 240.2 227.1 170.8 243.95 149.6 281.55 162.05" fill="#4c414c" fill-opacity="0.2" fill-rule="evenodd" stroke="none"/>
      <path d="M271.8 158.2 Q279.9 148.6 286.3 130.35 281.5 130.0 275.5 125.0 268.3 118.95 268.3 114.3 268.3 108.7 271.9 105.9 274.55 103.9 277.9 103.9 279.4 103.9 282.9 105.7 L287.1 107.9 Q286.75 105.85 288.55 100.85 290.45 95.65 293.6 90.5 301.7 77.1 309.5 77.1 312.85 77.1 315.1 83.9 317.1 89.95 317.1 97.1 317.1 100.65 316.3 103.05 L314.7 106.7 314.7 107.1 Q318.85 98.55 325.95 94.5 331.25 91.5 336.9 91.5 338.8 91.5 341.1 95.15 343.5 98.9 343.5 102.5 343.5 105.3 334.85 112.25 L321.9 122.7 328.3 121.3 Q334.2 119.9 336.5 119.9 342.05 119.9 343.9 122.3 345.1 123.8 345.1 127.5 345.1 132.5 336.15 136.15 L326.7 139.1 326.3 139.1 Q334.1 139.25 338.15 143.8 341.1 147.05 341.1 150.7 341.1 154.1 335.8 155.3 L320.7 156.3 320.3 156.3 Q321.9 156.6 323.0 157.7 323.9 158.6 323.9 159.3 323.9 161.5 317.5 161.5 314.2 161.5 308.2 158.6 304.05 156.6 302.25 153.65 295.15 158.25 290.5 168.3 287.3 165.0 283.1 162.3 277.5 159.4 271.8 158.2 M309.1 149.1 L302.25 153.65 309.1 149.1 M286.3 127.9 L286.3 130.35 286.3 127.9 M289.1 149.1 L283.1 162.3 289.1 149.1" fill="url(#gradient4)" fill-rule="evenodd" stroke="none"/>
      <path d="M290.5 168.3 Q301.1 179.3 299.9 196.7 291.2 211.75 281.55 225.25 267.35 245.05 251.15 261.5 242.8 275.35 230.1 292.4 213.9 313.95 190.65 340.65 L187.1 344.7 Q173.15 358.2 166.3 357.5 156.35 354.85 162.05 333.2 164.75 323.05 171.7 312.25 L179.2 293.15 Q195.55 252.5 215.3 211.65 225.2 191.15 236.0 170.6 L239.1 164.7 Q255.85 154.8 271.8 158.2 277.5 159.4 283.1 162.3 287.3 165.0 290.5 168.3 M248.5 218.1 Q230.4 205.6 215.3 211.65 230.4 205.6 248.5 218.1 M183.3 332.1 Q188.0 335.0 190.65 340.65 188.0 335.0 183.3 332.1 M230.1 292.4 Q229.3 281.8 214.3 272.3 229.3 281.8 230.1 292.4 M196.3 295.9 Q188.35 291.55 179.2 293.15 188.35 291.55 196.3 295.9 M281.55 225.25 Q276.6 209.55 264.3 202.7 276.6 209.55 281.55 225.25 M256.9 170.9 Q245.4 167.55 236.0 170.6 245.4 167.55 256.9 170.9" fill="url(#gradient5)" fill-rule="evenodd" stroke="none"/>
      <path d="M271.8 158.2 Q279.9 148.6 286.3 130.35 281.5 130.0 275.5 125.0 268.3 118.95 268.3 114.3 268.3 108.7 271.9 105.9 274.55 103.9 277.9 103.9 279.4 103.9 282.9 105.7 L287.1 107.9 Q286.75 105.85 288.55 100.85 290.45 95.65 293.6 90.5 301.7 77.1 309.5 77.1 312.85 77.1 315.1 83.9 317.1 89.95 317.1 97.1 317.1 100.65 316.3 103.05 L314.7 106.7 314.7 107.1 Q318.85 98.55 325.95 94.5 331.25 91.5 336.9 91.5 338.8 91.5 341.1 95.15 343.5 98.9 343.5 102.5 343.5 105.3 334.85 112.25 L321.9 122.7 328.3 121.3 Q334.2 119.9 336.5 119.9 342.05 119.9 343.9 122.3 345.1 123.8 345.1 127.5 345.1 132.5 336.15 136.15 L326.7 139.1 326.3 139.1 Q334.1 139.25 338.15 143.8 341.1 147.05 341.1 150.7 341.1 154.1 335.8 155.3 L320.7 156.3 320.3 156.3 Q321.9 156.6 323.0 157.7 323.9 158.6 323.9 159.3 323.9 161.5 317.5 161.5 314.2 161.5 308.2 158.6 304.05 156.6 302.25 153.65 295.15 158.25 290.5 168.3 287.3 165.0 283.1 162.3 L289.1 149.1 M271.8 158.2 Q277.5 159.4 283.1 162.3 M286.3 130.35 L286.3 127.9 M302.25 153.65 L309.1 149.1" fill="none" stroke="#264c00" stroke-linecap="round" stroke-linejoin="round" stroke-opacity="0.5803922" stroke-width="1.0"/>
      <path d="M290.5 168.3 Q301.1 179.3 299.9 196.7 291.2 211.75 281.55 225.25 267.35 245.05 251.15 261.5 242.8 275.35 230.1 292.4 213.9 313.95 190.65 340.65 L187.1 344.7 Q173.15 358.2 166.3 357.5 156.35 354.85 162.05 333.2 164.75 323.05 171.7 312.25 L179.2 293.15 Q195.55 252.5 215.3 211.65 225.2 191.15 236.0 170.6 L239.1 164.7 Q255.85 154.8 271.8 158.2 M236.0 170.6 Q245.4 167.55 256.9 170.9 M264.3 202.7 Q276.6 209.55 281.55 225.25 M179.2 293.15 Q188.35 291.55 196.3 295.9 M214.3 272.3 Q229.3 281.8 230.1 292.4 M190.65 340.65 Q188.0 335.0 183.3 332.1 M215.3 211.65 Q230.4 205.6 248.5 218.1" fill="none" stroke="#000000" stroke-linecap="round" stroke-linejoin="round" stroke-opacity="0.2509804" stroke-width="1.0"/>
      <path d="M219.95 234.6 Q214.4 227.8 207.7 221.1 203.9 208.2 217.8 204.3 224.3 206.8 229.85 210.05 248.15 220.7 256.35 239.35 260.9 249.65 262.4 262.3 258.2 281.25 242.95 274.45 241.2 269.15 238.75 263.85 232.0 249.25 219.95 234.6 L229.85 210.05 219.95 234.6 M238.75 263.85 L256.35 239.35 238.75 263.85" fill="#e2c069" fill-rule="evenodd" stroke="none"/>
      <path d="M219.95 234.6 Q214.4 227.8 207.7 221.1 203.9 208.2 217.8 204.3 224.3 206.8 229.85 210.05 248.15 220.7 256.35 239.35 260.9 249.65 262.4 262.3 258.2 281.25 242.95 274.45 241.2 269.15 238.75 263.85 232.0 249.25 219.95 234.6" fill="none" stroke="#000000" stroke-linecap="round" stroke-linejoin="round" stroke-opacity="0.34901962" stroke-width="1.0"/>
      <path d="M219.95 234.6 L219.55 235.6 M256.35 239.35 L238.75 263.85 M229.85 210.05 L219.95 234.6 Z" fill="none" stroke="#000000" stroke-linecap="round" stroke-linejoin="round" stroke-opacity="0.14901961" stroke-width="1.0"/>
      <path d="M253.1 225.5 Q264.6 228.35 276.85 234.3 277.5 245.2 266.3 251.95 249.75 248.9 235.05 248.85 238.9 233.8 253.1 225.5 238.9 233.8 235.05 248.85 217.45 248.8 201.9 251.9 L193.75 253.8 Q187.95 243.65 197.95 231.7 209.05 225.6 221.15 223.7 236.35 221.3 253.1 225.5 M201.9 251.9 Q205.15 234.05 221.15 223.7 205.15 234.05 201.9 251.9" fill="#e2c069" fill-rule="evenodd" stroke="none"/>
      <path d="M235.05 248.85 Q249.75 248.9 266.3 251.95 277.5 245.2 276.85 234.3 264.6 228.35 253.1 225.5 236.35 221.3 221.15 223.7 209.05 225.6 197.95 231.7 187.95 243.65 193.75 253.8 L201.9 251.9 Q217.45 248.8 235.05 248.85" fill="none" stroke="#000000" stroke-linecap="round" stroke-linejoin="round" stroke-opacity="0.34901962" stroke-width="1.0"/>
      <path d="M253.1 225.5 Q238.9 233.8 235.05 248.85 M221.15 223.7 Q205.15 234.05 201.9 251.9" fill="none" stroke="#000000" stroke-linecap="round" stroke-linejoin="round" stroke-opacity="0.14901961" stroke-width="1.0"/>
      <path d="M223.9 52.55 L122.0 231.95 Q93.65 254.65 100.15 223.6 102.15 213.9 107.95 204.05 132.1 130.7 169.45 61.3 186.3 40.1 223.9 52.55" fill="#4c414c" fill-opacity="0.2" fill-rule="evenodd" stroke="none"/>
      <path d="M214.15 48.7 Q222.25 39.1 228.65 20.85 223.85 20.5 217.85 15.5 210.65 9.45 210.65 4.8 210.65 -0.8 214.25 -3.6 216.9 -5.6 220.25 -5.6 221.75 -5.6 225.25 -3.8 L229.45 -1.6 Q229.1 -3.65 230.9 -8.65 232.8 -13.85 235.95 -19.0 244.05 -32.4 251.85 -32.4 255.2 -32.4 257.45 -25.6 259.45 -19.55 259.45 -12.4 259.45 -8.85 258.65 -6.45 L257.05 -2.8 257.05 -2.4 Q261.2 -10.95 268.3 -15.0 273.6 -18.0 279.25 -18.0 281.15 -18.0 283.45 -14.35 285.85 -10.6 285.85 -7.0 285.85 -4.2 277.2 2.75 264.9 12.6 264.25 13.2 L270.65 11.8 Q276.55 10.4 278.85 10.4 284.4 10.4 286.25 12.8 287.45 14.3 287.45 18.0 287.45 23.0 278.5 26.65 269.4 29.4 269.05 29.6 L268.65 29.6 Q276.45 29.75 280.5 34.3 283.45 37.55 283.45 41.2 283.45 44.6 278.15 45.8 L263.05 46.8 262.65 46.8 Q264.25 47.1 265.35 48.2 266.25 49.1 266.25 49.8 266.25 52.0 259.85 52.0 256.55 52.0 250.55 49.1 246.4 47.1 244.6 44.15 237.5 48.75 232.85 58.8 229.65 55.5 225.45 52.8 219.85 49.9 214.15 48.7 M228.65 18.4 L228.65 20.85 228.65 18.4 M251.45 39.6 L244.6 44.15 251.45 39.6 M231.45 39.6 L225.45 52.8 231.45 39.6" fill="url(#gradient6)" fill-rule="evenodd" stroke="none"/>
      <path d="M232.85 58.8 Q243.45 69.8 242.25 87.2 233.55 102.25 223.9 115.75 209.7 135.55 193.5 152.0 185.15 165.85 172.45 182.9 156.25 204.45 133.0 231.15 L129.45 235.2 Q115.5 248.7 108.65 248.0 98.7 245.35 104.4 223.7 107.1 213.55 114.05 202.75 L121.55 183.65 Q137.9 143.0 157.65 102.15 167.55 81.65 178.35 61.1 L181.45 55.2 Q198.2 45.3 214.15 48.7 219.85 49.9 225.45 52.8 229.65 55.5 232.85 58.8 M199.25 61.4 Q187.75 58.05 178.35 61.1 187.75 58.05 199.25 61.4 M172.45 182.9 Q171.65 172.3 156.65 162.8 171.65 172.3 172.45 182.9 M190.85 108.6 Q172.75 96.1 157.65 102.15 172.75 96.1 190.85 108.6 M125.65 222.6 Q130.35 225.5 133.0 231.15 130.35 225.5 125.65 222.6 M138.65 186.4 Q130.7 182.05 121.55 183.65 130.7 182.05 138.65 186.4 M223.9 115.75 Q218.95 100.05 206.65 93.2 218.95 100.05 223.9 115.75" fill="url(#gradient7)" fill-rule="evenodd" stroke="none"/>
      <path d="M214.15 48.7 Q222.25 39.1 228.65 20.85 223.85 20.5 217.85 15.5 210.65 9.45 210.65 4.8 210.65 -0.8 214.25 -3.6 216.9 -5.6 220.25 -5.6 221.75 -5.6 225.25 -3.8 L229.45 -1.6 Q229.1 -3.65 230.9 -8.65 232.8 -13.85 235.95 -19.0 244.05 -32.4 251.85 -32.4 255.2 -32.4 257.45 -25.6 259.45 -19.55 259.45 -12.4 259.45 -8.85 258.65 -6.45 L257.05 -2.8 257.05 -2.4 Q261.2 -10.95 268.3 -15.0 273.6 -18.0 279.25 -18.0 281.15 -18.0 283.45 -14.35 285.85 -10.6 285.85 -7.0 285.85 -4.2 277.2 2.75 264.9 12.6 264.25 13.2 L270.65 11.8 Q276.55 10.4 278.85 10.4 284.4 10.4 286.25 12.8 287.45 14.3 287.45 18.0 287.45 23.0 278.5 26.65 269.4 29.4 269.05 29.6 L268.65 29.6 Q276.45 29.75 280.5 34.3 283.45 37.55 283.45 41.2 283.45 44.6 278.15 45.8 L263.05 46.8 262.65 46.8 Q264.25 47.1 265.35 48.2 266.25 49.1 266.25 49.8 266.25 52.0 259.85 52.0 256.55 52.0 250.55 49.1 246.4 47.1 244.6 44.15 237.5 48.75 232.85 58.8 229.65 55.5 225.45 52.8 L231.45 39.6 M214.15 48.7 Q219.85 49.9 225.45 52.8 M244.6 44.15 L251.45 39.6 M228.65 20.85 L228.65 18.4" fill="none" stroke="#264c00" stroke-linecap="round" stroke-linejoin="round" stroke-opacity="0.5803922" stroke-width="1.0"/>
      <path d="M232.85 58.8 Q243.45 69.8 242.25 87.2 233.55 102.25 223.9 115.75 209.7 135.55 193.5 152.0 185.15 165.85 172.45 182.9 156.25 204.45 133.0 231.15 L129.45 235.2 Q115.5 248.7 108.65 248.0 98.7 245.35 104.4 223.7 107.1 213.55 114.05 202.75 L121.55 183.65 Q137.9 143.0 157.65 102.15 167.55 81.65 178.35 61.1 L181.45 55.2 Q198.2 45.3 214.15 48.7 M178.35 61.1 Q187.75 58.05 199.25 61.4 M206.65 93.2 Q218.95 100.05 223.9 115.75 M121.55 183.65 Q130.7 182.05 138.65 186.4 M133.0 231.15 Q130.35 225.5 125.65 222.6 M157.65 102.15 Q172.75 96.1 190.85 108.6 M156.65 162.8 Q171.65 172.3 172.45 182.9" fill="none" stroke="#000000" stroke-linecap="round" stroke-linejoin="round" stroke-opacity="0.2509804" stroke-width="1.0"/>
      <path d="M162.3 125.1 Q156.75 118.3 150.05 111.6 146.25 98.7 160.15 94.8 166.65 97.3 172.2 100.55 190.5 111.2 198.7 129.85 203.25 140.15 204.75 152.8 200.55 171.75 185.3 164.95 183.55 159.65 181.1 154.35 174.35 139.75 162.3 125.1 L172.2 100.55 162.3 125.1 M181.1 154.35 L198.7 129.85 181.1 154.35" fill="#e2c069" fill-rule="evenodd" stroke="none"/>
      <path d="M162.3 125.1 Q156.75 118.3 150.05 111.6 146.25 98.7 160.15 94.8 166.65 97.3 172.2 100.55 190.5 111.2 198.7 129.85 203.25 140.15 204.75 152.8 200.55 171.75 185.3 164.95 183.55 159.65 181.1 154.35 174.35 139.75 162.3 125.1" fill="none" stroke="#000000" stroke-linecap="round" stroke-linejoin="round" stroke-opacity="0.34901962" stroke-width="1.0"/>
      <path d="M162.3 125.1 L161.9 126.1 M198.7 129.85 L181.1 154.35 M172.2 100.55 L162.3 125.1 Z" fill="none" stroke="#000000" stroke-linecap="round" stroke-linejoin="round" stroke-opacity="0.14901961" stroke-width="1.0"/>
      <path d="M195.45 116.0 Q206.95 118.85 219.2 124.8 219.85 135.7 208.65 142.45 192.1 139.4 177.4 139.35 181.25 124.3 195.45 116.0 181.25 124.3 177.4 139.35 159.8 139.3 144.25 142.4 L136.1 144.3 Q130.3 134.15 140.3 122.2 151.4 116.1 163.5 114.2 178.7 111.8 195.45 116.0 M144.25 142.4 Q147.5 124.55 163.5 114.2 147.5 124.55 144.25 142.4" fill="#e2c069" fill-rule="evenodd" stroke="none"/>
      <path d="M177.4 139.35 Q192.1 139.4 208.65 142.45 219.85 135.7 219.2 124.8 206.95 118.85 195.45 116.0 178.7 111.8 163.5 114.2 151.4 116.1 140.3 122.2 130.3 134.15 136.1 144.3 L144.25 142.4 Q159.8 139.3 177.4 139.35" fill="none" stroke="#000000" stroke-linecap="round" stroke-linejoin="round" stroke-opacity="0.34901962" stroke-width="1.0"/>
      <path d="M195.45 116.0 Q181.25 124.3 177.4 139.35 M163.5 114.2 Q147.5 124.55 144.25 142.4" fill="none" stroke="#000000" stroke-linecap="round" stroke-linejoin="round" stroke-opacity="0.14901961" stroke-width="1.0"/>
    </g>
    <linearGradient gradientTransform="matrix(0.0387, -0.1171, 0.2229, 0.0737, 211.5, 107.1)" gradientUnits="userSpaceOnUse" id="gradient0" spreadMethod="pad" x1="-819.2" x2="819.2">
      <stop offset="0.0" stop-color="#fc770e"/>
      <stop offset="1.0" stop-color="#ffa904"/>
      <stop offset="1.0" stop-color="#fc770e"/>
      <stop offset="1.0" stop-color="#fc770e"/>
    </linearGradient>
    <linearGradient gradientTransform="matrix(0.015, -0.0559, 0.0702, 0.0188, 67.75, 71.35)" gradientUnits="userSpaceOnUse" id="gradient1" spreadMethod="pad" x1="-819.2" x2="819.2">
      <stop offset="0.0" stop-color="#e56400"/>
      <stop offset="1.0" stop-color="#fc770e"/>
    </linearGradient>
    <linearGradient gradientTransform="matrix(-0.0113, 0.1115, -0.1502, -0.0153, 91.8, 261.0)" gradientUnits="userSpaceOnUse" id="gradient2" spreadMethod="pad" x1="-819.2" x2="819.2">
      <stop offset="0.0" stop-color="#e56400"/>
      <stop offset="1.0" stop-color="#994a00"/>
      <stop offset="1.0" stop-color="#fc770e"/>
      <stop offset="1.0" stop-color="#fc770e"/>
    </linearGradient>
    <linearGradient gradientTransform="matrix(-0.0113, 0.1115, -0.1502, -0.0153, 91.8, 261.0)" gradientUnits="userSpaceOnUse" id="gradient3" spreadMethod="pad" x1="-819.2" x2="819.2">
      <stop offset="0.0" stop-color="#e56400"/>
      <stop offset="1.0" stop-color="#9f5005"/>
      <stop offset="1.0" stop-color="#fc770e"/>
      <stop offset="1.0" stop-color="#fc770e"/>
    </linearGradient>
    <linearGradient gradientTransform="matrix(-0.0135, 0.0235, -0.0482, -0.0278, 303.3, 137.0)" gradientUnits="userSpaceOnUse" id="gradient4" spreadMethod="pad" x1="-819.2" x2="819.2">
      <stop offset="0.0" stop-color="#4aba4a"/>
      <stop offset="0.9529411764705882" stop-color="#2d932d"/>
    </linearGradient>
    <linearGradient gradientTransform="matrix(0.0497, -0.0694, 0.0992, 0.071, 236.55, 221.05)" gradientUnits="userSpaceOnUse" id="gradient5" spreadMethod="pad" x1="-819.2" x2="819.2">
      <stop offset="0.0" stop-color="#ffa904"/>
      <stop offset="1.0" stop-color="#fc770e"/>
      <stop offset="1.0" stop-color="#fc770e"/>
      <stop offset="1.0" stop-color="#fc770e"/>
    </linearGradient>
    <linearGradient gradientTransform="matrix(-0.0135, 0.0235, -0.0482, -0.0278, 245.65, 27.5)" gradientUnits="userSpaceOnUse" id="gradient6" spreadMethod="pad" x1="-819.2" x2="819.2">
      <stop offset="0.0" stop-color="#4aba4a"/>
      <stop offset="0.9529411764705882" stop-color="#2d932d"/>
    </linearGradient>
    <linearGradient gradientTransform="matrix(0.0497, -0.0694, 0.0992, 0.071, 178.9, 111.55)" gradientUnits="userSpaceOnUse" id="gradient7" spreadMethod="pad" x1="-819.2" x2="819.2">
      <stop offset="0.0" stop-color="#ffa904"/>
      <stop offset="1.0" stop-color="#fc770e"/>
      <stop offset="1.0" stop-color="#fc770e"/>
      <stop offset="1.0" stop-color="#fc770e"/>
    </linearGradient>
  </defs>
</svg>
