<?xml version="1.0" encoding="UTF-8" standalone="no"?>
<svg xmlns:xlink="http://www.w3.org/1999/xlink" height="531.5px" width="460.6px" xmlns="http://www.w3.org/2000/svg">
  <g transform="matrix(1.0, 0.0, 0.0, 1.0, 193.65, 334.05)">
    <use height="110.15" transform="matrix(1.0, 0.0, 0.0, 1.0, -5.75, -70.7)" width="101.05" xlink:href="#shape0"/>
  </g>
  <defs>
    <g id="shape0" transform="matrix(1.0, 0.0, 0.0, 1.0, 5.75, 70.7)">
      <path d="M35.2 -64.4 L40.45 -57.15 35.2 -64.4 M27.75 -37.4 Q36.25 -46.3 48.0 -46.05 59.3 -45.8 67.15 -37.0 74.8 -28.4 74.85 -16.2 74.8 -4.15 67.15 4.85 59.3 13.95 48.0 14.65 36.25 15.3 27.75 6.65 19.1 -2.15 19.15 -15.15 19.1 -28.25 27.75 -37.4 M73.85 -45.15 Q63.3 -57.1 48.0 -57.6 L40.45 -57.15 Q28.85 -55.25 19.8 -45.9 7.65 -33.25 7.65 -14.95 7.65 3.35 19.8 15.5 31.8 27.35 48.0 26.2 55.85 25.6 62.35 22.1 68.85 18.65 74.15 12.45 84.5 0.2 84.55 -16.35 L84.55 -16.45 86.5 -19.3 84.45 -19.0 86.5 -19.3 84.55 -16.45 84.45 -19.0 84.45 -19.3 84.25 -21.8 Q82.85 -34.9 74.15 -44.8 L73.85 -45.15 75.4 -50.15 73.85 -45.15 M31.8 -15.4 Q31.8 -8.1 36.7 -3.1 41.35 1.85 48.0 1.55 54.45 1.3 59.0 -3.85 63.5 -9.0 63.5 -15.95 63.5 -23.05 59.0 -27.95 54.45 -33.0 48.0 -33.0 41.35 -33.05 36.7 -27.9 31.8 -22.7 31.8 -15.4 M90.7 -26.95 L86.95 -22.35 84.25 -21.8 86.95 -22.35 90.7 -26.95 M48.0 -70.15 Q68.1 -69.1 81.7 -53.1 94.8 -37.75 94.8 -16.6 94.8 4.6 81.7 20.55 68.1 36.95 48.0 38.75 26.8 40.55 11.1 25.3 -5.25 9.35 -5.25 -14.7 -5.25 -38.8 11.1 -55.35 26.8 -71.25 48.0 -70.15 M88.1 -19.5 L86.5 -19.3 88.25 -21.7 86.5 -19.3 88.1 -19.5 M90.3 -23.1 L86.95 -22.35 90.3 -23.1 M71.6 23.1 L62.35 22.1 71.6 23.1 M86.95 -22.35 L84.45 -19.3 86.95 -22.35 M8.7 2.45 L5.2 -6.6 8.7 2.45 M14.45 12.9 L2.3 -5.7 14.45 12.9 M8.4 11.75 L1.0 3.4 8.4 11.75 M13.65 22.95 L8.1 16.3 13.65 22.95" fill="url(#gradient0)" fill-rule="evenodd" stroke="none"/>
      <path d="M31.8 -15.4 Q31.8 -22.7 36.7 -27.9 41.35 -33.05 48.0 -33.0 54.45 -33.0 59.0 -27.95 63.5 -23.05 63.5 -15.95 63.5 -9.0 59.0 -3.85 54.45 1.3 48.0 1.55 41.35 1.85 36.7 -3.1 31.8 -8.1 31.8 -15.4" fill="url(#gradient1)" fill-rule="evenodd" stroke="none"/>
      <path d="M27.75 -37.4 Q19.1 -28.25 19.15 -15.15 19.1 -2.15 27.75 6.65 36.25 15.3 48.0 14.65 59.3 13.95 67.15 4.85 74.8 -4.15 74.85 -16.2 74.8 -28.4 67.15 -37.0 59.3 -45.8 48.0 -46.05 36.25 -46.3 27.75 -37.4 M62.35 22.1 Q55.85 25.6 48.0 26.2 31.8 27.35 19.8 15.5 7.65 3.35 7.65 -14.95 7.65 -33.25 19.8 -45.9 28.85 -55.25 40.45 -57.15 L48.0 -57.6 Q63.3 -57.1 73.85 -45.15 L72.7 -41.05 73.85 -45.15 74.15 -44.8 Q82.85 -34.9 84.25 -21.8 L84.45 -19.3 84.45 -19.0 84.2 -19.0 84.45 -19.3 84.2 -19.0 84.45 -19.0 84.55 -16.45 84.55 -16.35 Q84.5 0.2 74.15 12.45 68.85 18.65 62.35 22.1 L56.85 21.6 58.3 20.6 56.85 21.6 62.35 22.1 M43.95 -52.25 L40.45 -57.15 43.95 -52.25 M80.9 -21.05 L84.25 -21.8 80.9 -21.05 M84.55 -16.45 L83.15 -14.4 84.55 -16.45 M79.65 -13.45 L84.2 -19.0 81.4 -18.6 84.2 -19.0 79.65 -13.45 M46.25 20.45 L56.85 21.6 53.45 23.75 56.85 21.6 46.25 20.45" fill="url(#gradient2)" fill-rule="evenodd" stroke="none"/>
      <path d="M40.45 -57.15 L35.2 -64.4 M73.85 -45.15 L75.4 -50.15 M73.85 -45.15 L72.7 -41.05 M84.25 -21.8 L86.95 -22.35 90.7 -26.95 M40.45 -57.15 L43.95 -52.25 M86.95 -22.35 L90.3 -23.1 M88.25 -21.7 L86.5 -19.3 88.1 -19.5 M84.25 -21.8 L80.9 -21.05 M84.45 -19.3 L84.2 -19.0 84.45 -19.0 86.5 -19.3 84.55 -16.45 83.15 -14.4 M62.35 22.1 L71.6 23.1 M81.4 -18.6 L84.2 -19.0 79.65 -13.45 M84.45 -19.3 L86.95 -22.35 M58.3 20.6 L56.85 21.6 62.35 22.1 M53.45 23.75 L56.85 21.6 46.25 20.45 M8.1 16.3 L13.65 22.95 M1.0 3.4 L8.4 11.75 M2.3 -5.7 L14.45 12.9 M5.2 -6.6 L8.7 2.45" fill="none" stroke="#000000" stroke-linecap="round" stroke-linejoin="miter-clip" stroke-miterlimit="3.0" stroke-opacity="0.3019608" stroke-width="1.0"/>
      <path d="M27.75 -37.4 Q36.25 -46.3 48.0 -46.05 59.3 -45.8 67.15 -37.0 74.8 -28.4 74.85 -16.2 74.8 -4.15 67.15 4.85 59.3 13.95 48.0 14.65 36.25 15.3 27.75 6.65 19.1 -2.15 19.15 -15.15 19.1 -28.25 27.75 -37.4 M62.35 22.1 Q55.85 25.6 48.0 26.2 31.8 27.35 19.8 15.5 7.65 3.35 7.65 -14.95 7.65 -33.25 19.8 -45.9 28.85 -55.25 40.45 -57.15 L48.0 -57.6 Q63.3 -57.1 73.85 -45.15 L74.15 -44.8 Q82.85 -34.9 84.25 -21.8 L84.45 -19.3 84.45 -19.0 84.55 -16.45 84.55 -16.35 Q84.5 0.2 74.15 12.45 68.85 18.65 62.35 22.1 M31.8 -15.4 Q31.8 -22.7 36.7 -27.9 41.35 -33.05 48.0 -33.0 54.45 -33.0 59.0 -27.95 63.5 -23.05 63.5 -15.95 63.5 -9.0 59.0 -3.85 54.45 1.3 48.0 1.55 41.35 1.85 36.7 -3.1 31.8 -8.1 31.8 -15.4 M48.0 -70.15 Q68.1 -69.1 81.7 -53.1 94.8 -37.75 94.8 -16.6 94.8 4.6 81.7 20.55 68.1 36.95 48.0 38.75 26.8 40.55 11.1 25.3 -5.25 9.35 -5.25 -14.7 -5.25 -38.8 11.1 -55.35 26.8 -71.25 48.0 -70.15" fill="none" stroke="#000000" stroke-linecap="round" stroke-linejoin="miter-clip" stroke-miterlimit="3.0" stroke-opacity="0.4" stroke-width="1.0"/>
      <path d="M59.25 -60.25 Q61.8 -63.5 65.35 -63.5 68.95 -63.5 71.5 -60.25 74.05 -57.0 74.05 -52.45 74.05 -47.85 71.5 -44.65 68.95 -41.4 65.35 -41.4 61.8 -41.4 59.25 -44.65 56.7 -47.85 56.7 -52.45 56.7 -57.0 59.25 -60.25" fill="#ffffff" fill-rule="evenodd" stroke="none"/>
      <path d="M77.65 -49.4 Q78.4 -50.35 79.5 -50.35 80.55 -50.35 81.3 -49.4 82.05 -48.45 82.05 -47.05 82.05 -45.7 81.3 -44.75 80.55 -43.8 79.5 -43.8 78.4 -43.8 77.65 -44.75 76.9 -45.7 76.9 -47.05 76.9 -48.45 77.65 -49.4" fill="#ffffff" fill-rule="evenodd" stroke="none"/>
      <path d="M39.8 -4.55 L39.35 -4.85 39.15 -5.5 39.15 -27.75 39.35 -28.4 Q39.55 -28.7 39.8 -28.7 L44.65 -28.7 45.1 -28.4 45.3 -27.75 45.3 -20.1 50.55 -28.35 50.75 -28.6 51.05 -28.7 56.2 -28.7 56.6 -28.5 56.85 -28.15 56.9 -27.6 56.75 -27.1 50.5 -17.6 58.95 -6.2 59.15 -5.65 59.15 -5.15 58.9 -4.75 58.5 -4.55 52.5 -4.55 Q52.4 -4.55 52.25 -4.65 L52.0 -4.85 45.3 -13.9 45.3 -5.5 45.1 -4.85 44.65 -4.55 39.8 -4.55" fill="url(#gradient3)" fill-rule="evenodd" stroke="none"/>
    </g>
    <linearGradient gradientTransform="matrix(-0.0199, 0.056, -0.062, -0.0252, 55.6, -25.15)" gradientUnits="userSpaceOnUse" id="gradient0" spreadMethod="pad" x1="-819.2" x2="819.2">
      <stop offset="0.0" stop-color="#ffffff"/>
      <stop offset="0.16470588235294117" stop-color="#ff0000"/>
      <stop offset="1.0" stop-color="#a10000"/>
    </linearGradient>
    <linearGradient gradientTransform="matrix(-0.0078, 0.0209, -0.0195, -0.0084, 49.15, -14.7)" gradientUnits="userSpaceOnUse" id="gradient1" spreadMethod="pad" x1="-819.2" x2="819.2">
      <stop offset="0.0" stop-color="#6559ff"/>
      <stop offset="1.0" stop-color="#241a9e"/>
    </linearGradient>
    <linearGradient gradientTransform="matrix(-0.0206, 0.05, -0.0467, -0.0221, 49.15, -14.7)" gradientUnits="userSpaceOnUse" id="gradient2" spreadMethod="pad" x1="-819.2" x2="819.2">
      <stop offset="0.0" stop-color="#ffffff"/>
      <stop offset="1.0" stop-color="#ccbeb7"/>
    </linearGradient>
    <linearGradient gradientTransform="matrix(-0.0049, 0.0141, -0.0135, -0.0053, 48.05, -15.0)" gradientUnits="userSpaceOnUse" id="gradient3" spreadMethod="pad" x1="-819.2" x2="819.2">
      <stop offset="0.0" stop-color="#ffffff"/>
      <stop offset="1.0" stop-color="#cccccc"/>
    </linearGradient>
  </defs>
</svg>
