<?xml version="1.0" encoding="UTF-8" standalone="no"?>
<svg xmlns:xlink="http://www.w3.org/1999/xlink" height="531.5px" width="460.6px" xmlns="http://www.w3.org/2000/svg">
  <g transform="matrix(1.0, 0.0, 0.0, 1.0, 193.65, 334.05)">
    <use height="211.6" transform="matrix(0.0, 0.3919, -0.3919, 0.0, 20.0068, -1.546)" width="176.65" xlink:href="#shape0"/>
    <use height="97.55" transform="matrix(1.0, 0.0, 0.0, 1.0, -74.8, -58.95)" width="58.2" xlink:href="#shape1"/>
  </g>
  <defs>
    <g id="shape0" transform="matrix(1.0, 0.0, 0.0, 1.0, 0.5, 0.4)">
      <path d="M72.0 75.4 L76.6 78.45 Q79.75 74.4 83.15 70.6 88.85 64.2 90.4 64.2 91.15 64.2 94.6 67.4 L98.4 71.2 101.2 74.95 Q103.4 78.2 103.4 79.45 103.4 82.6 96.15 87.95 92.0 91.05 89.6 92.25 93.4 98.4 94.6 105.45 L87.5 104.9 Q84.15 104.75 70.4 104.75 L49.0 104.95 Q56.35 88.35 72.0 75.4 M15.15 106.75 L15.15 101.75 Q15.85 93.2 23.6 84.25 L18.85 85.45 Q16.0 85.45 11.35 80.7 7.1 76.4 7.1 75.2 7.1 73.3 10.15 70.1 13.2 66.9 15.25 66.7 17.25 66.5 22.35 71.4 27.4 76.25 27.4 77.85 27.4 78.8 26.55 81.1 L27.05 80.6 Q35.8 72.0 44.4 69.95 L45.1 69.8 Q45.8 62.7 51.1 57.4 53.2 55.25 57.65 52.45 L58.1 54.75 Q58.35 56.0 60.15 59.9 L60.4 60.55 Q62.2 64.5 62.2 66.15 L62.15 66.65 Q61.85 68.5 59.4 70.3 62.5 71.0 65.5 72.2 49.7 95.0 25.0 105.9 L15.15 106.75 M41.95 59.8 L42.65 56.95 Q44.85 47.85 44.85 45.75 L44.85 45.25 55.05 45.25 56.45 45.3 56.75 47.75 56.8 47.85 Q52.65 52.15 49.15 54.9 45.55 57.8 41.95 59.8 M76.6 78.45 L74.65 80.95 Q76.0 83.65 81.35 88.45 86.4 92.95 87.3 92.95 88.1 92.95 89.6 92.25 88.1 92.95 87.3 92.95 86.4 92.95 81.35 88.45 76.0 83.65 74.65 80.95 L76.6 78.45 M26.55 81.1 L23.6 84.25 26.55 81.1 M59.4 70.3 L57.2 70.2 52.1 70.0 47.15 69.75 45.1 69.8 47.15 69.75 52.1 70.0 57.2 70.2 59.4 70.3" fill="#cccccc" fill-rule="evenodd" stroke="none"/>
      <path d="M37.0 32.65 Q36.35 32.0 36.35 30.75 36.35 28.95 38.7 28.05 41.1 27.1 41.1 25.3 41.1 23.3 39.85 21.9 L37.0 19.45 Q32.95 15.9 32.95 9.0 32.95 6.4 38.4 5.6 L44.55 5.25 56.75 5.9 58.8 6.05 59.45 6.15 Q61.55 6.55 62.4 7.35 63.2 8.25 63.2 10.35 63.2 16.05 60.15 19.3 L58.05 21.35 Q57.1 22.45 57.1 23.6 57.1 25.4 59.45 28.0 61.85 30.55 61.85 31.65 61.85 32.75 60.3 34.35 L56.75 34.15 47.05 33.45 37.0 32.65" fill="#465aad" fill-rule="evenodd" stroke="none"/>
      <path d="M38.4 5.6 Q37.7 3.3 37.7 2.85 37.7 0.45 41.45 0.0 L46.7 0.0 55.4 0.65 56.75 1.25 Q59.45 2.65 59.45 5.95 L59.45 6.15 58.8 6.05 56.75 5.9 44.55 5.25 38.4 5.6" fill="#333333" fill-rule="evenodd" stroke="none"/>
      <path d="M44.85 45.25 L29.85 45.25 Q27.65 43.25 26.15 41.7 24.5 39.9 23.75 38.7 21.0 34.25 20.7 32.65 21.05 32.1 21.85 32.0 L23.75 31.95 26.15 32.0 37.0 32.65 47.05 33.45 56.75 34.15 60.3 34.35 Q67.05 34.6 71.35 34.35 L77.8 34.35 78.0 34.55 78.15 35.2 Q78.15 37.15 76.4 40.75 74.1 45.4 71.0 45.6 68.35 45.75 63.4 45.5 L56.75 45.3 56.45 45.3 55.05 45.25 44.85 45.25" fill="url(#gradient0)" fill-rule="evenodd" stroke="none"/>
      <path d="M44.4 69.95 L43.9 69.65 Q41.25 68.05 40.6 66.65 L40.4 65.8 41.35 62.3 41.9 59.9 41.95 59.8 Q45.55 57.8 49.15 54.9 52.65 52.15 56.8 47.85 L57.65 52.45 Q53.2 55.25 51.1 57.4 45.8 62.7 45.1 69.8 L44.4 69.95 M65.5 72.2 Q68.8 73.5 72.0 75.4 56.35 88.35 49.0 104.95 L37.15 105.3 25.0 105.9 Q49.7 95.0 65.5 72.2" fill="#e8e8e8" fill-rule="evenodd" stroke="none"/>
      <path d="M81.9 126.7 Q88.45 129.4 94.25 133.6 110.7 145.55 110.7 166.75 110.7 188.0 93.75 196.85 93.3 197.1 92.9 197.3 81.1 200.85 68.6 198.65 95.75 163.0 68.55 126.35 L78.2 125.85 81.9 126.7" fill="url(#gradient1)" fill-rule="evenodd" stroke="none"/>
      <path d="M94.6 105.45 L103.4 106.0 Q107.15 105.95 107.15 112.75 107.15 120.75 105.65 123.3 103.6 126.75 96.65 126.75 L81.9 126.7 78.2 125.85 68.55 126.35 Q55.85 122.25 42.2 125.7 37.0 124.25 31.0 126.0 L30.5 126.0 20.2 126.5 Q12.4 126.4 8.35 121.65 L7.75 116.7 7.15 109.25 Q7.15 107.75 15.15 106.75 L25.0 105.9 37.15 105.3 49.0 104.95 70.4 104.75 Q84.15 104.75 87.5 104.9 L94.6 105.45" fill="url(#gradient2)" fill-rule="evenodd" stroke="none"/>
      <path d="M68.55 126.35 Q95.75 163.0 68.6 198.65 L61.6 200.3 Q55.15 201.75 42.2 198.65 19.5 160.2 42.2 125.7 55.85 122.25 68.55 126.35" fill="url(#gradient3)" fill-rule="evenodd" stroke="none"/>
      <path d="M17.45 197.3 L14.6 195.55 Q-1.5 184.95 0.15 165.3 1.75 145.55 17.15 133.7 23.45 128.85 31.0 126.0 37.0 124.25 42.2 125.7 19.5 160.2 42.2 198.65 29.3 201.25 17.45 197.3" fill="url(#gradient4)" fill-rule="evenodd" stroke="none"/>
      <path d="M92.9 197.3 L97.25 197.3 Q99.7 197.3 101.5 199.05 103.25 200.8 103.25 203.3 103.25 205.8 101.5 207.55 99.7 209.3 97.25 209.3 55.4 212.1 12.6 209.3 10.1 209.3 8.35 207.55 6.6 205.8 6.6 203.3 6.6 200.8 8.35 199.05 10.1 197.3 12.6 197.3 L17.45 197.3 Q29.3 201.25 42.2 198.65 55.15 201.75 61.6 200.3 L68.6 198.65 Q81.1 200.85 92.9 197.3" fill="#9b9b9b" fill-rule="evenodd" stroke="none"/>
      <path d="M72.0 75.4 L76.6 78.45 Q79.75 74.4 83.15 70.6 88.85 64.2 90.4 64.2 91.15 64.2 94.6 67.4 L98.4 71.2 101.2 74.95 Q103.4 78.2 103.4 79.45 103.4 82.6 96.15 87.95 92.0 91.05 89.6 92.25 93.4 98.4 94.6 105.45 L103.4 106.0 Q107.15 105.95 107.15 112.75 107.15 120.75 105.65 123.3 103.6 126.75 96.65 126.75 L81.9 126.7 78.2 125.85 68.55 126.35 Q55.85 122.25 42.2 125.7 37.0 124.25 31.0 126.0 L30.5 126.0 20.2 126.5 Q12.4 126.4 8.35 121.65 L7.75 116.7 7.15 109.25 Q7.15 107.75 15.15 106.75 L15.15 101.75 Q15.85 93.2 23.6 84.25 L18.85 85.45 Q16.0 85.45 11.35 80.7 7.1 76.4 7.1 75.2 7.1 73.3 10.15 70.1 13.2 66.9 15.25 66.7 17.25 66.5 22.35 71.4 27.4 76.25 27.4 77.85 27.4 78.8 26.55 81.1 L27.05 80.6 Q35.8 72.0 44.4 69.95 L43.9 69.65 Q41.25 68.05 40.6 66.65 L40.4 65.8 41.35 62.3 41.9 59.9 41.95 59.8 42.65 56.95 Q44.85 47.85 44.85 45.75 L44.85 45.25 29.85 45.25 Q27.65 43.25 26.15 41.7 24.5 39.9 23.75 38.7 21.0 34.25 20.7 32.65 21.05 32.1 21.85 32.0 L23.75 31.95 26.15 32.0 37.0 32.65 Q36.35 32.0 36.35 30.75 36.35 28.95 38.7 28.05 41.1 27.1 41.1 25.3 41.1 23.3 39.85 21.9 L37.0 19.45 Q32.95 15.9 32.95 9.0 32.95 6.4 38.4 5.6 37.7 3.3 37.7 2.85 37.7 0.45 41.45 0.0 L46.7 0.0 55.4 0.65 56.75 1.25 Q59.45 2.65 59.45 5.95 L59.45 6.15 Q61.55 6.55 62.4 7.35 63.2 8.25 63.2 10.35 63.2 16.05 60.15 19.3 L58.05 21.35 Q57.1 22.45 57.1 23.6 57.1 25.4 59.45 28.0 61.85 30.55 61.85 31.65 61.85 32.75 60.3 34.35 67.05 34.6 71.35 34.35 L77.8 34.35 78.0 34.55 78.15 35.2 Q78.15 37.15 76.4 40.75 74.1 45.4 71.0 45.6 68.35 45.75 63.4 45.5 L56.75 45.3 56.45 45.3 56.75 47.75 56.8 47.85 57.65 52.45 58.1 54.75 Q58.35 56.0 60.15 59.9 L60.4 60.55 Q62.2 64.5 62.2 66.15 L62.15 66.65 Q61.85 68.5 59.4 70.3 62.5 71.0 65.5 72.2 68.8 73.5 72.0 75.4 M49.0 104.95 L70.4 104.75 Q84.15 104.75 87.5 104.9 L94.6 105.45 M89.6 92.25 Q88.1 92.95 87.3 92.95 86.4 92.95 81.35 88.45 76.0 83.65 74.65 80.95 L76.6 78.45 M38.4 5.6 L44.55 5.25 56.75 5.9 58.8 6.05 59.45 6.15 M60.3 34.35 L56.75 34.15 47.05 33.45 37.0 32.65 M56.45 45.3 L55.05 45.25 44.85 45.25 M23.6 84.25 L26.55 81.1 M45.1 69.8 L47.15 69.75 52.1 70.0 57.2 70.2 59.4 70.3 M44.4 69.95 L45.1 69.8 M25.0 105.9 L37.15 105.3 49.0 104.95 M15.15 106.75 L25.0 105.9" fill="none" stroke="#000000" stroke-linecap="round" stroke-linejoin="round" stroke-opacity="0.4" stroke-width="0.8"/>
      <path d="M81.9 126.7 Q88.45 129.4 94.25 133.6 110.7 145.55 110.7 166.75 110.7 188.0 93.75 196.85 93.3 197.1 92.9 197.3 L97.25 197.3 Q99.7 197.3 101.5 199.05 103.25 200.8 103.25 203.3 103.25 205.8 101.5 207.55 99.7 209.3 97.25 209.3 55.4 212.1 12.6 209.3 10.1 209.3 8.35 207.55 6.6 205.8 6.6 203.3 6.6 200.8 8.35 199.05 10.1 197.3 12.6 197.3 L17.45 197.3 14.6 195.55 Q-1.5 184.95 0.15 165.3 1.75 145.55 17.15 133.7 23.45 128.85 31.0 126.0 M68.55 126.35 Q95.75 163.0 68.6 198.65 81.1 200.85 92.9 197.3 M42.2 125.7 Q19.5 160.2 42.2 198.65 55.15 201.75 61.6 200.3 L68.6 198.65 M42.2 198.65 Q29.3 201.25 17.45 197.3" fill="none" stroke="#000000" stroke-linecap="round" stroke-linejoin="round" stroke-opacity="0.4" stroke-width="1.0"/>
      <path d="M76.6 128.5 Q79.3 128.05 86.15 132.75 92.9 137.45 92.55 143.35 92.15 149.25 91.05 151.75 89.9 154.2 88.6 153.25 87.3 152.3 86.3 149.75 85.3 147.2 80.75 141.3 76.15 135.4 75.0 132.2 73.8 128.9 76.6 128.5" fill="#ffffff" fill-opacity="0.38039216" fill-rule="evenodd" stroke="none"/>
      <path d="M146.5 76.75 Q146.9 81.55 146.9 87.0 L146.6 92.5 Q138.45 100.5 130.8 100.85 138.45 100.5 146.6 92.5 145.65 101.15 141.65 108.8 139.3 113.3 135.9 117.45 L132.35 121.4 Q127.3 126.45 120.75 130.5 115.05 134.0 108.25 136.8 L102.9 138.75 Q95.7 141.2 89.85 143.65 80.6 147.45 74.8 151.2 L73.2 152.25 Q68.15 155.8 64.9 159.35 58.7 165.95 58.85 172.45 L58.85 172.75 Q59.1 179.1 61.0 182.95 62.05 185.2 63.7 186.6 67.2 189.55 71.7 189.85 L74.2 189.85 Q80.25 189.3 83.5 187.55 L83.8 187.4 Q86.8 185.7 95.2 179.2 L97.1 177.7 99.95 181.5 105.05 188.4 93.3 198.05 90.85 199.9 Q85.0 204.25 76.2 205.95 L75.45 206.1 Q66.85 207.2 55.4 197.9 L54.7 197.35 Q45.3 189.35 43.75 178.4 43.4 176.2 43.4 173.9 43.4 165.1 50.4 156.5 54.6 151.35 61.3 146.25 L61.8 145.85 Q67.8 141.4 74.85 137.7 82.25 133.75 90.8 130.7 L93.4 129.75 Q100.45 127.4 106.2 124.7 111.9 121.95 116.3 118.9 121.1 115.55 124.35 111.75 L124.95 111.05 Q128.55 106.55 130.8 100.85 133.05 95.1 133.9 88.1 140.65 85.45 146.5 76.75 140.65 85.45 133.9 88.1 134.4 83.8 134.4 79.0 L134.35 75.25 Q134.15 69.6 133.4 66.3 132.6 62.7 131.85 61.5 129.6 58.1 127.1 58.5 L127.0 58.5 Q125.95 58.65 124.7 59.15 128.4 50.6 126.75 43.85 128.4 50.6 124.7 59.15 120.7 60.7 114.45 65.4 L113.65 66.0 Q109.1 69.45 105.4 73.0 L100.7 77.95 Q94.1 73.45 90.9 67.45 L94.4 64.1 102.85 56.6 104.9 54.75 Q109.45 50.45 112.65 48.1 L114.2 47.05 Q119.5 43.7 124.4 43.7 L126.75 43.85 Q134.5 44.75 139.35 51.75 141.75 55.25 143.4 60.25 L143.5 60.55 Q145.75 67.45 146.5 76.75 M130.45 57.55 L127.1 58.5 130.45 57.55 M105.4 73.0 Q105.55 62.4 102.85 56.6 105.55 62.4 105.4 73.0 M112.65 48.1 Q116.3 54.9 114.45 65.4 116.3 54.9 112.65 48.1 M90.8 130.7 Q95.7 136.0 108.25 136.8 95.7 136.0 90.8 130.7 M116.3 118.9 Q122.4 122.35 132.35 121.4 122.4 122.35 116.3 118.9 M106.2 124.7 Q109.4 130.5 120.75 130.5 109.4 130.5 106.2 124.7 M99.95 181.5 L95.2 179.2 99.95 181.5 M75.45 206.1 Q79.05 198.65 71.7 189.85 79.05 198.65 75.45 206.1 M83.8 187.4 Q95.1 192.25 93.3 198.05 95.1 192.25 83.8 187.4 M89.85 143.65 Q79.35 142.9 74.85 137.7 79.35 142.9 89.85 143.65 M61.3 146.25 Q63.4 151.2 74.8 151.2 63.4 151.2 61.3 146.25 M124.95 111.05 Q132.3 112.15 141.65 108.8 132.3 112.15 124.95 111.05 M131.85 61.5 Q137.75 57.7 139.35 51.75 137.75 57.7 131.85 61.5 M143.5 60.55 Q140.35 70.0 134.35 75.25 140.35 70.0 143.5 60.55 M50.4 156.5 Q53.8 162.1 64.9 159.35 53.8 162.1 50.4 156.5 M58.85 172.45 Q49.6 180.35 43.75 178.4 49.6 180.35 58.85 172.45 M54.7 197.35 Q60.9 196.8 61.0 182.95 60.9 196.8 54.7 197.35" fill="#c98860" fill-rule="evenodd" stroke="none"/>
      <path d="M97.1 177.7 L95.45 175.55 Q121.4 149.15 150.2 127.55 151.95 128.2 153.5 128.95 159.7 132.1 161.6 137.4 162.4 139.65 162.45 142.3 136.85 169.65 106.45 190.3 L105.05 188.4 99.95 181.5 97.1 177.7" fill="#663300" fill-rule="evenodd" stroke="none"/>
      <path d="M153.5 128.95 Q157.45 125.15 159.15 120.75 160.7 117.35 162.6 116.55 174.7 118.85 175.75 127.9 175.0 131.25 171.35 132.15 164.05 134.4 161.6 137.4 159.7 132.1 153.5 128.95" fill="#d8c08a" fill-rule="evenodd" stroke="none"/>
      <path d="M146.6 92.5 L146.9 87.0 Q146.9 81.55 146.5 76.75 140.65 85.45 133.9 88.1 133.05 95.1 130.8 100.85 138.45 100.5 146.6 92.5 145.65 101.15 141.65 108.8 139.3 113.3 135.9 117.45 L132.35 121.4 Q127.3 126.45 120.75 130.5 115.05 134.0 108.25 136.8 L102.9 138.75 Q95.7 141.2 89.85 143.65 80.6 147.45 74.8 151.2 L73.2 152.25 Q68.15 155.8 64.9 159.35 58.7 165.95 58.85 172.45 L58.85 172.75 Q59.1 179.1 61.0 182.95 62.05 185.2 63.7 186.6 67.2 189.55 71.7 189.85 L74.2 189.85 Q80.25 189.3 83.5 187.55 L83.8 187.4 Q86.8 185.7 95.2 179.2 L97.1 177.7 95.45 175.55 Q121.4 149.15 150.2 127.55 151.95 128.2 153.5 128.95 157.45 125.15 159.15 120.75 160.7 117.35 162.6 116.55 174.7 118.85 175.75 127.9 175.0 131.25 171.35 132.15 164.05 134.4 161.6 137.4 162.4 139.65 162.45 142.3 136.85 169.65 106.45 190.3 L105.05 188.4 93.3 198.05 90.85 199.9 Q85.0 204.25 76.2 205.95 L75.45 206.1 Q66.85 207.2 55.4 197.9 L54.7 197.35 Q45.3 189.35 43.75 178.4 43.4 176.2 43.4 173.9 43.4 165.1 50.4 156.5 54.6 151.35 61.3 146.25 L61.8 145.85 Q67.8 141.4 74.85 137.7 82.25 133.75 90.8 130.7 L93.4 129.75 Q100.45 127.4 106.2 124.7 111.9 121.95 116.3 118.9 121.1 115.55 124.35 111.75 L124.95 111.05 Q128.55 106.55 130.8 100.85 M90.9 67.45 L94.4 64.1 102.85 56.6 104.9 54.75 Q109.45 50.45 112.65 48.1 L114.2 47.05 Q119.5 43.7 124.4 43.7 L126.75 43.85 Q134.5 44.75 139.35 51.75 141.75 55.25 143.4 60.25 L143.5 60.55 Q145.75 67.45 146.5 76.75 M126.75 43.85 Q128.4 50.6 124.7 59.15 125.95 58.65 127.0 58.5 L127.1 58.5 130.45 57.55 M133.9 88.1 Q134.4 83.8 134.4 79.0 L134.35 75.25 Q134.15 69.6 133.4 66.3 132.6 62.7 131.85 61.5 129.6 58.1 127.1 58.5 M124.7 59.15 Q120.7 60.7 114.45 65.4 L113.65 66.0 Q109.1 69.45 105.4 73.0 L100.7 77.95 101.95 78.55 M114.45 65.4 Q116.3 54.9 112.65 48.1 M102.85 56.6 Q105.55 62.4 105.4 73.0 M90.9 67.45 L90.55 66.05 M120.75 130.5 Q109.4 130.5 106.2 124.7 M132.35 121.4 Q122.4 122.35 116.3 118.9 M108.25 136.8 Q95.7 136.0 90.8 130.7 M90.9 67.45 Q94.1 73.45 100.7 77.95 M74.8 151.2 Q63.4 151.2 61.3 146.25 M74.85 137.7 Q79.35 142.9 89.85 143.65 M93.3 198.05 Q95.1 192.25 83.8 187.4 M71.7 189.85 Q79.05 198.65 75.45 206.1 M95.2 179.2 L99.95 181.5 97.1 177.7 M99.95 181.5 L105.05 188.4 M61.0 182.95 Q60.9 196.8 54.7 197.35 M43.75 178.4 Q49.6 180.35 58.85 172.45 M64.9 159.35 Q53.8 162.1 50.4 156.5 M134.35 75.25 Q140.35 70.0 143.5 60.55 M139.35 51.75 Q137.75 57.7 131.85 61.5 M141.65 108.8 Q132.3 112.15 124.95 111.05 M153.5 128.95 Q159.7 132.1 161.6 137.4" fill="none" stroke="#000000" stroke-linecap="round" stroke-linejoin="round" stroke-opacity="0.4" stroke-width="0.8"/>
      <path d="M31.4 134.25 Q29.7 138.6 25.15 143.95 20.55 149.2 15.75 152.3 10.95 155.5 8.75 154.65 6.6 153.8 8.3 149.4 9.95 145.1 14.55 139.8 19.1 134.5 23.9 131.3 28.7 128.2 30.85 129.05 33.05 129.95 31.4 134.25" fill="#ffffff" fill-opacity="0.38039216" fill-rule="evenodd" stroke="none"/>
      <path d="M55.1 141.8 Q53.55 148.35 48.7 151.9 43.8 155.45 41.55 154.6 39.25 153.75 38.4 152.3 37.5 150.9 38.85 144.4 40.15 137.9 42.7 133.0 45.3 128.2 47.6 127.8 50.0 127.55 53.3 131.4 56.6 135.25 55.1 141.8" fill="#ffffff" fill-opacity="0.38039216" fill-rule="evenodd" stroke="none"/>
    </g>
    <linearGradient gradientTransform="matrix(0.0, -0.0054, 0.0084, 0.0, 49.0, 40.5)" gradientUnits="userSpaceOnUse" id="gradient0" spreadMethod="pad" x1="-819.2" x2="819.2">
      <stop offset="0.0" stop-color="#999999"/>
      <stop offset="1.0" stop-color="#cccccc"/>
    </linearGradient>
    <linearGradient gradientTransform="matrix(0.0182, 0.0182, -0.0319, 0.0319, 89.6, 162.55)" gradientUnits="userSpaceOnUse" id="gradient1" spreadMethod="pad" x1="-819.2" x2="819.2">
      <stop offset="0.0" stop-color="#7f99ff"/>
      <stop offset="1.0" stop-color="#2f4dc4"/>
    </linearGradient>
    <linearGradient gradientTransform="matrix(0.0, -0.0072, 0.0134, 0.0, 57.3, 116.5)" gradientUnits="userSpaceOnUse" id="gradient2" spreadMethod="pad" x1="-819.2" x2="819.2">
      <stop offset="0.0" stop-color="#7a7a7a"/>
      <stop offset="1.0" stop-color="#cccccc"/>
    </linearGradient>
    <linearGradient gradientTransform="matrix(0.0081, 0.0302, -0.0452, 0.0121, 56.55, 162.45)" gradientUnits="userSpaceOnUse" id="gradient3" spreadMethod="pad" x1="-819.2" x2="819.2">
      <stop offset="0.0" stop-color="#7f99ff"/>
      <stop offset="1.0" stop-color="#2f4dc4"/>
    </linearGradient>
    <linearGradient gradientTransform="matrix(-0.0067, 0.0249, -0.044, -0.0118, 21.1, 162.35)" gradientUnits="userSpaceOnUse" id="gradient4" spreadMethod="pad" x1="-819.2" x2="819.2">
      <stop offset="0.0" stop-color="#7f99ff"/>
      <stop offset="1.0" stop-color="#2f4dc4"/>
    </linearGradient>
    <g id="shape1" transform="matrix(1.0, 0.0, 0.0, 1.0, 74.8, 58.95)">
      <path d="M-57.05 -58.25 L-57.05 -57.8 -57.05 -57.75 Q-56.75 -58.25 -57.25 -57.0 L-58.65 -53.8 -61.7 -47.0 Q-65.6 -38.2 -67.8 -31.9 -70.05 -25.7 -71.6 -19.9 -72.3 -17.55 -72.5 -15.15 L-72.95 -8.5 Q-73.2 -4.25 -72.2 1.3 L-69.7 14.1 Q-68.15 21.35 -67.05 24.45 -66.05 27.3 -64.4 29.55 L-64.2 29.8 -62.7 31.2 Q-61.1 32.15 -58.6 32.5 L-58.3 32.55 -58.8 31.8 Q-59.7 30.35 -59.7 29.35 L-59.35 28.55 Q-59.1 28.2 -56.3 32.25 -53.55 36.3 -50.7 36.25 -47.9 36.15 -46.25 34.9 L-45.45 34.4 -44.9 34.1 -44.8 34.05 -44.85 34.0 -45.0 33.4 -45.05 33.1 -44.9 32.05 -44.6 31.8 -42.1 34.15 Q-39.0 36.1 -36.75 36.15 -35.15 36.2 -34.1 35.6 L-33.35 35.05 -33.0 34.65 -32.15 33.3 -32.15 33.25 -32.65 30.5 -32.75 27.95 -32.75 26.0 -32.6 24.5 -32.25 23.55 -30.7 21.3 -30.05 20.35 Q-29.45 19.45 -29.5 17.7 L-29.55 14.75 -28.7 9.1 Q-28.6 8.3 -27.7 7.5 L-26.05 6.3 Q-23.8 5.0 -21.5 4.6 L-20.85 4.5 -20.85 4.45 -20.25 4.2 -20.0 3.55 -20.4 2.0 -20.55 1.7 -21.4 -0.95 -21.45 -1.1 -22.25 -2.95 Q-22.75 -3.75 -23.45 -3.75 L-25.2 -3.7 -26.65 -3.75 -26.85 -4.3 Q-27.55 -5.7 -28.0 -8.15 L-28.5 -12.0 Q-28.5 -13.3 -27.75 -16.55 L-27.15 -19.05 Q-26.0 -22.7 -23.85 -27.7 L-17.75 -41.5 -17.6 -41.9 -17.05 -41.55 -16.9 -41.4 Q-16.6 -41.0 -16.6 -40.15 L-21.85 -29.05 Q-27.1 -16.95 -27.1 -11.05 L-26.6 -7.15 -26.15 -5.35 -26.05 -5.1 -23.75 -5.4 -21.4 -5.1 -20.6 -3.7 Q-19.25 -1.05 -18.7 1.95 L-18.55 2.6 Q-18.2 4.3 -18.2 4.9 -18.2 5.8 -18.8 6.05 L-21.15 6.55 Q-22.9 6.8 -24.65 7.75 -26.45 8.65 -26.9 10.4 -27.45 12.1 -27.65 14.7 L-27.9 19.15 Q-27.95 21.05 -29.15 22.65 -30.4 24.25 -30.75 25.55 L-30.45 28.65 Q-30.45 29.95 -29.8 31.85 L-29.4 33.05 -29.5 34.0 -29.9 34.75 -29.95 34.9 -30.05 34.95 Q-30.6 35.85 -32.0 36.95 -34.2 38.6 -35.9 38.6 -39.85 38.6 -42.75 36.35 L-43.1 36.05 -44.7 36.9 Q-47.65 38.4 -49.35 38.4 L-49.65 38.4 Q-51.2 38.35 -52.65 37.7 -54.9 36.75 -56.9 34.4 L-56.9 34.35 -57.1 34.45 -57.55 34.55 -58.6 34.6 Q-66.0 34.6 -69.1 24.1 L-70.55 18.8 -71.8 13.15 -73.5 2.65 Q-74.8 -4.8 -74.8 -8.45 -74.8 -12.15 -73.45 -17.95 -72.1 -23.8 -64.6 -43.5 -57.75 -61.65 -57.1 -58.45 L-57.05 -58.25" fill="#000000" fill-rule="evenodd" stroke="none"/>
      <path d="M-62.7 31.2 L-64.2 29.8 -64.4 29.55 Q-66.05 27.3 -67.05 24.45 -68.15 21.35 -69.7 14.1 L-72.2 1.3 Q-73.2 -4.25 -72.95 -8.5 L-72.5 -15.15 Q-72.3 -17.55 -71.6 -19.9 -70.05 -25.7 -67.8 -31.9 -65.6 -38.2 -61.7 -47.0 L-58.65 -53.8 -57.25 -57.0 Q-56.75 -58.25 -57.05 -57.75 L-57.05 -57.8 -57.05 -58.25 -56.85 -58.25 -55.75 -58.3 -55.8 -58.2 -57.35 -54.2 -59.45 -49.05 Q-63.05 -39.85 -65.1 -33.25 -67.2 -26.75 -68.65 -20.7 -69.35 -18.25 -69.5 -15.7 L-70.05 -8.75 Q-70.3 -4.3 -69.45 1.5 L-67.35 14.85 Q-66.05 22.45 -65.15 25.7 L-63.85 29.15 -62.7 31.2 M-17.75 -41.5 L-23.85 -27.7 Q-26.0 -22.7 -27.15 -19.05 L-27.75 -16.55 Q-28.5 -13.3 -28.5 -12.0 L-28.0 -8.15 Q-27.55 -5.7 -26.85 -4.3 L-26.65 -3.75 -28.4 -3.8 -28.6 -4.35 Q-29.25 -5.85 -29.6 -8.4 L-30.0 -12.45 Q-30.0 -13.8 -29.25 -17.2 L-28.7 -19.8 -25.65 -28.85 -19.75 -44.1 -17.75 -41.5 M-25.2 -3.7 L-23.45 -3.75 Q-22.75 -3.75 -22.25 -2.95 L-21.45 -1.1 -21.4 -0.95 -20.55 1.7 -20.4 2.0 -20.0 3.55 -20.25 4.2 -20.85 4.45 -20.85 4.5 -21.5 4.6 Q-23.8 5.0 -26.05 6.3 L-27.7 7.5 Q-28.6 8.3 -28.7 9.1 L-29.55 14.75 -29.5 17.7 Q-29.45 19.45 -30.05 20.35 L-30.7 21.3 -32.25 23.55 -32.6 24.5 -32.75 26.0 -32.75 27.95 -32.65 30.5 -32.15 33.25 -32.15 33.3 -33.0 34.65 -33.35 35.05 -34.1 35.6 -33.85 34.95 -33.85 34.9 -33.9 34.25 -34.2 32.05 -34.3 29.35 -34.25 27.3 Q-34.25 25.65 -33.8 24.75 L-33.45 24.1 -31.8 21.4 -31.6 20.9 Q-31.25 20.0 -31.25 18.65 L-31.3 15.55 -30.45 9.65 Q-30.3 8.45 -28.55 7.1 L-28.05 6.7 Q-25.7 5.15 -23.3 4.85 L-23.3 4.8 -22.8 4.5 -22.6 4.2 -22.55 3.85 -22.95 2.2 -23.0 1.9 -23.8 -0.85 -23.8 -1.05 -24.5 -2.95 -25.2 -3.7 M-45.0 33.4 L-44.85 34.0 -44.8 34.05 -44.9 34.1 -45.45 34.4 -45.3 33.7 -45.3 33.65 -45.25 33.6 -45.05 33.4 -45.0 33.4" fill="#bdbdbd" fill-rule="evenodd" stroke="none"/>
      <path d="M-26.65 -3.75 L-25.2 -3.7 -24.5 -2.95 -23.8 -1.05 -23.8 -0.85 -23.0 1.9 -22.95 2.2 -22.55 3.85 -22.6 4.2 -22.8 4.5 -23.3 4.8 -23.3 4.85 Q-25.7 5.15 -28.05 6.7 L-28.55 7.1 Q-30.3 8.45 -30.45 9.65 L-31.3 15.55 -31.25 18.65 Q-31.25 20.0 -31.6 20.9 L-31.8 21.4 -33.45 24.1 -33.8 24.75 Q-34.25 25.65 -34.25 27.3 L-34.3 29.35 -34.2 32.05 -33.9 34.25 -33.85 34.9 -33.85 34.95 -34.1 35.6 Q-35.15 36.2 -36.75 36.15 -39.0 36.1 -42.1 34.15 L-44.6 31.8 -44.9 32.05 -45.05 33.1 -45.0 33.4 -45.05 33.4 -45.25 33.6 -45.3 33.65 -45.3 33.7 -45.45 34.4 -46.25 34.9 Q-47.9 36.15 -50.7 36.25 -53.55 36.3 -56.3 32.25 -59.1 28.2 -59.35 28.55 L-59.7 29.35 Q-59.7 30.35 -58.8 31.8 L-58.3 32.55 -58.6 32.5 Q-61.1 32.15 -62.7 31.2 L-63.85 29.15 -65.15 25.7 Q-66.05 22.45 -67.35 14.85 L-69.45 1.5 Q-70.3 -4.3 -70.05 -8.75 L-69.5 -15.7 Q-69.35 -18.25 -68.65 -20.7 -67.2 -26.75 -65.1 -33.25 -63.05 -39.85 -59.45 -49.05 L-57.35 -54.2 -55.8 -58.2 -55.75 -58.3 Q-31.65 -58.6 -19.75 -44.1 L-25.65 -28.85 -28.7 -19.8 -29.25 -17.2 Q-30.0 -13.8 -30.0 -12.45 L-29.6 -8.4 Q-29.25 -5.85 -28.6 -4.35 L-28.4 -3.8 -26.65 -3.75" fill="#999999" fill-rule="evenodd" stroke="none"/>
    </g>
  </defs>
</svg>
