<?xml version="1.0" encoding="UTF-8" standalone="no"?>
<svg xmlns:xlink="http://www.w3.org/1999/xlink" height="531.5px" width="460.6px" xmlns="http://www.w3.org/2000/svg">
  <g transform="matrix(1.0, 0.0, 0.0, 1.0, 193.65, 334.05)">
    <use height="111.7" transform="matrix(1.0, 0.0, 0.0, 1.0, -163.65, -58.1)" width="251.95" xlink:href="#shape0"/>
  </g>
  <defs>
    <g id="shape0" transform="matrix(1.0, 0.0, 0.0, 1.0, 163.65, 58.1)">
      <path d="M49.6 -1.35 Q68.0 -2.7 79.4 -1.25 85.95 1.1 87.35 11.0 87.75 13.1 87.8 15.5 87.5 20.05 86.55 23.3 L47.5 24.95 43.25 24.65 47.5 24.95 86.55 23.3 Q84.55 30.3 79.4 31.05 L61.35 31.75 Q54.35 31.0 50.05 29.2 45.85 27.5 43.25 24.65 39.3 20.4 39.3 13.5 39.3 5.0 47.45 -0.15 L49.6 -1.35 M48.6 10.45 Q54.0 10.3 59.5 10.3 74.85 10.3 78.5 10.45 L87.35 11.0 78.5 10.45 Q74.85 10.3 59.5 10.3 54.0 10.3 48.6 10.45" fill="#c85a17" fill-rule="evenodd" stroke="none"/>
      <path d="M49.6 -1.35 L47.45 -0.15 Q39.3 5.0 39.3 13.5 39.3 20.4 43.25 24.65 45.85 27.5 50.05 29.2 54.35 31.0 61.35 31.75 48.35 31.45 30.6 29.35 L23.45 28.4 5.55 26.0 Q1.3 24.5 -3.6 21.9 -9.65 18.6 -11.95 15.55 L-0.55 14.35 Q13.4 12.3 28.95 11.25 13.4 12.3 -0.55 14.35 L-11.95 15.55 Q-13.35 13.8 -13.5 12.05 L-13.5 11.6 Q-13.5 8.55 -7.45 5.35 L-2.75 4.85 23.45 1.4 30.6 0.5 49.6 -1.35 M4.75 20.85 L24.85 23.0 43.25 24.65 24.85 23.0 4.75 20.85 M-12.25 12.05 L-13.5 12.05 -12.25 12.05" fill="#d06b15" fill-rule="evenodd" stroke="none"/>
      <path d="M-139.0 -4.25 L-138.55 -4.4 Q-123.15 -11.85 -101.3 -11.85 L-94.1 -11.6 Q-92.7 -9.55 -91.5 -6.85 -90.05 -3.8 -89.1 0.5 L-88.9 1.5 -88.9 5.5 -88.9 9.7 Q-118.55 11.1 -117.7 14.3 L-117.8 14.45 -146.45 14.45 -149.3 14.45 -149.15 14.3 -151.3 13.35 -154.0 12.15 Q-153.1 3.3 -140.55 -3.45 L-138.5 -3.2 -139.0 -4.25" fill="#a3a3a3" fill-rule="evenodd" stroke="none"/>
      <path d="M-139.0 -4.25 L-142.75 -12.3 -136.4 -14.6 -128.45 -17.0 -120.25 -18.6 -111.65 -19.65 -104.5 -19.95 -104.45 -19.5 Q-104.45 -18.9 -107.35 -17.0 L-110.7 -14.9 -109.2 -14.9 -98.65 -17.15 -97.15 -17.15 -97.15 -16.85 -97.6 -16.55 -97.75 -16.0 -95.05 -12.95 -94.1 -11.6 -101.3 -11.85 Q-123.15 -11.85 -138.55 -4.4 L-139.0 -4.25 M-162.1 8.4 L-160.9 4.7 Q-159.2 0.5 -156.2 -2.9 L-155.15 -4.55 -140.55 -3.45 Q-153.1 3.3 -154.0 12.15 L-156.5 10.95 -162.1 8.4" fill="#c7c7c7" fill-rule="evenodd" stroke="none"/>
      <path d="M-94.1 -11.6 L-95.05 -12.95 -97.75 -16.0 -97.6 -16.55 -97.15 -16.85 -97.15 -17.15 -98.65 -17.15 -109.2 -14.9 -110.7 -14.9 -107.35 -17.0 Q-104.45 -18.9 -104.45 -19.5 L-104.5 -19.95 -103.7 -19.95 -95.6 -19.65 -88.9 -19.35 -88.9 -9.45 -88.9 1.5 -89.1 0.5 Q-90.05 -3.8 -91.5 -6.85 -92.7 -9.55 -94.1 -11.6" fill="#b59e9b" fill-rule="evenodd" stroke="none"/>
      <path d="M-88.9 -19.35 L-88.9 -23.55 Q-79.35 -25.4 -69.5 -23.55 L-69.5 -15.2 Q-72.95 -14.7 -79.1 -12.8 -85.0 -11.1 -88.9 -9.45 L-88.9 -19.35" fill="#787878" fill-rule="evenodd" stroke="none"/>
      <path d="M-69.5 -7.6 L-69.5 -3.35 Q-74.15 0.65 -81.2 8.1 L-88.9 16.4 -88.9 14.3 -88.9 9.7 -88.9 5.5 -88.3 5.15 Q-84.85 3.35 -80.85 0.75 -74.35 -3.5 -69.5 -7.6" fill="#ffffff" fill-rule="evenodd" stroke="none"/>
      <path d="M-69.5 -15.2 L-69.5 -7.6 Q-74.35 -3.5 -80.85 0.75 -84.85 3.35 -88.3 5.15 L-88.9 5.5 -88.9 1.5 -88.9 -9.45 Q-85.0 -11.1 -79.1 -12.8 -72.95 -14.7 -69.5 -15.2 M-69.5 -3.35 L-69.5 8.4 -69.5 13.2 -69.5 21.4 -69.5 43.05 -76.0 52.9 Q-83.5 53.5 -88.9 52.05 L-88.9 46.85 -88.9 38.3 -88.9 20.1 -88.9 16.4 -81.2 8.1 Q-74.15 0.65 -69.5 -3.35 M-100.35 13.55 Q-99.85 14.1 -99.85 14.8 -99.85 15.5 -100.35 16.0 -100.85 16.55 -101.55 16.55 -102.3 16.55 -102.8 16.0 -103.35 15.5 -103.35 14.8 -103.35 14.1 -102.8 13.55 -102.3 13.05 -101.55 13.05 -100.85 13.05 -100.35 13.55" fill="#999999" fill-rule="evenodd" stroke="none"/>
      <path d="M-7.45 5.35 Q-13.5 8.55 -13.5 11.6 L-13.5 12.05 Q-13.35 13.8 -11.95 15.55 L-31.25 16.85 Q-42.9 17.45 -47.55 20.25 -42.9 17.45 -31.25 16.85 L-11.95 15.55 Q-9.65 18.6 -3.6 21.9 1.3 24.5 5.55 26.0 L-2.75 24.95 Q-17.2 23.25 -32.2 22.7 L-42.05 22.2 Q-45.15 21.4 -47.55 20.25 L-49.75 19.15 Q-55.0 16.3 -56.05 12.35 L-56.25 10.3 -56.05 8.05 -49.85 7.8 -32.2 7.15 -7.45 5.35 M-56.05 12.35 L-48.65 12.05 -45.15 12.05 -13.5 12.05 -45.15 12.05 -48.65 12.05 -56.05 12.35" fill="#da8524" fill-rule="evenodd" stroke="none"/>
      <path d="M-69.5 8.4 L-56.05 8.05 -56.25 10.3 -56.05 12.35 Q-55.0 16.3 -49.75 19.15 L-47.55 20.25 -49.5 21.9 -47.55 20.25 Q-45.15 21.4 -42.05 22.2 L-49.5 21.9 -51.35 21.8 -69.5 21.4 -69.5 13.2 -69.5 8.4 M-69.5 13.2 L-56.05 12.35 -69.5 13.2 M-88.9 9.7 L-88.9 14.3 -88.9 16.4 -88.9 20.1 -92.25 20.05 Q-118.15 19.35 -117.8 14.45 L-117.7 14.3 Q-118.55 11.1 -88.9 9.7 M-100.35 13.55 Q-100.85 13.05 -101.55 13.05 -102.3 13.05 -102.8 13.55 -103.35 14.1 -103.35 14.8 -103.35 15.5 -102.8 16.0 -102.3 16.55 -101.55 16.55 -100.85 16.55 -100.35 16.0 -99.85 15.5 -99.85 14.8 -99.85 14.1 -100.35 13.55 M-97.0 15.05 L-88.9 14.3 -97.0 15.05" fill="#e4a03a" fill-rule="evenodd" stroke="none"/>
      <path d="M-69.5 43.05 L-69.5 52.05 -76.0 52.9 -69.5 43.05 M-125.1 36.25 L-124.55 35.45 -125.95 36.05 Q-132.75 34.35 -138.55 31.5 -143.8 28.95 -147.3 26.15 L-146.0 25.45 Q-145.1 24.9 -144.9 24.35 L-145.1 23.3 Q-145.5 21.75 -146.7 21.75 -147.65 21.75 -148.55 22.8 -149.15 23.45 -149.35 24.2 L-151.95 20.85 -152.2 20.4 Q-153.3 18.45 -153.75 16.4 L-153.0 15.95 -152.05 15.35 Q-150.4 14.5 -149.4 14.45 L-149.3 14.45 -146.45 14.45 -117.8 14.45 Q-118.15 19.35 -92.25 20.05 L-88.9 20.1 -88.9 38.3 -101.3 38.95 Q-114.35 38.95 -125.1 36.25" fill="#cccccc" fill-rule="evenodd" stroke="none"/>
      <path d="M-88.9 46.85 L-95.6 47.45 -103.7 47.75 -111.65 47.45 -120.25 46.5 -128.45 44.85 -130.2 44.4 -125.1 36.25 Q-114.35 38.95 -101.3 38.95 L-88.9 38.3 -88.9 46.85 M-125.95 36.05 L-138.55 41.65 -142.95 39.85 -142.2 38.5 Q-141.55 37.1 -141.55 35.3 -141.55 33.2 -147.95 30.45 -154.35 27.7 -154.35 25.25 -154.35 24.45 -153.15 22.95 -151.95 21.45 -151.95 20.95 L-151.95 20.85 -149.35 24.2 -149.45 24.95 Q-149.45 26.35 -148.25 26.35 L-147.3 26.15 Q-143.8 28.95 -138.55 31.5 -132.75 34.35 -125.95 36.05 M-153.75 16.4 Q-153.3 18.45 -152.2 20.4 L-152.65 20.2 Q-153.0 19.95 -153.9 19.65 -155.75 19.15 -156.3 18.45 L-153.75 16.4" fill="#ebebeb" fill-rule="evenodd" stroke="none"/>
      <path d="M-162.1 8.4 L-156.5 10.95 -154.0 12.15 -151.3 13.35 -149.15 14.3 -149.3 14.45 -149.4 14.45 Q-150.4 14.5 -152.05 15.35 L-153.0 15.95 -153.75 16.4 -156.3 18.45 Q-155.75 19.15 -153.9 19.65 -153.0 19.95 -152.65 20.2 L-152.2 20.4 -151.95 20.85 -151.95 20.95 Q-151.95 21.45 -153.15 22.95 -154.35 24.45 -154.35 25.25 -154.35 27.7 -147.95 30.45 -141.55 33.2 -141.55 35.3 -141.55 37.1 -142.2 38.5 L-142.95 39.85 -144.15 39.35 -149.6 36.4 Q-153.3 34.1 -156.2 30.7 -159.2 27.35 -160.9 23.1 -162.45 19.0 -163.15 14.45 L-163.15 14.1 -163.15 13.7 -162.1 8.4 M-149.35 24.2 Q-149.15 23.45 -148.55 22.8 -147.65 21.75 -146.7 21.75 -145.5 21.75 -145.1 23.3 L-144.9 24.35 Q-145.1 24.9 -146.0 25.45 L-147.3 26.15 -148.25 26.35 Q-149.45 26.35 -149.45 24.95 L-149.35 24.2 M-149.4 14.45 L-163.15 14.45 -149.4 14.45" fill="#c7b9b7" fill-rule="evenodd" stroke="none"/>
      <path d="M87.35 11.0 Q85.95 1.1 79.4 -1.25 68.0 -2.7 49.6 -1.35 L30.6 0.5 23.45 1.4 -2.75 4.85 -7.45 5.35 -32.2 7.15 -49.85 7.8 -56.05 8.05 -69.5 8.4 -69.5 -3.35 -69.5 -7.6 -69.5 -15.2 -69.5 -23.55 Q-79.35 -25.4 -88.9 -23.55 L-88.9 -19.35 -88.9 -9.45 -88.9 1.5 -88.9 5.5 -88.9 9.7 -88.9 14.3 -88.9 16.4 -88.9 20.1 -88.9 38.3 -88.9 46.85 -95.6 47.45 -103.7 47.75 -111.65 47.45 -120.25 46.5 -128.45 44.85 -130.2 44.4 -125.1 36.25 -124.55 35.45 -125.95 36.05 -138.55 41.65 -142.95 39.85 -144.15 39.35 -149.6 36.4 Q-153.3 34.1 -156.2 30.7 -159.2 27.35 -160.9 23.1 -162.45 19.0 -163.15 14.45 L-163.15 14.1 M86.55 23.3 Q87.5 20.05 87.8 15.5 87.75 13.1 87.35 11.0 M61.35 31.75 L79.4 31.05 Q84.55 30.3 86.55 23.3 M5.55 26.0 L23.45 28.4 30.6 29.35 Q48.35 31.45 61.35 31.75 M-104.5 -19.95 L-111.65 -19.65 -120.25 -18.6 -128.45 -17.0 -136.4 -14.6 -142.75 -12.3 -139.0 -4.25 -138.5 -3.2 -140.55 -3.45 -155.15 -4.55 -156.2 -2.9 Q-159.2 0.5 -160.9 4.7 L-162.1 8.4 -163.15 13.7 M-104.5 -19.95 L-103.7 -19.95 -95.6 -19.65 -88.9 -19.35 M5.55 26.0 L-2.75 24.95 Q-17.2 23.25 -32.2 22.7 L-42.05 22.2 -49.5 21.9 -51.35 21.8 -69.5 21.4 -69.5 43.05 -69.5 52.05 -76.0 52.9 Q-83.5 53.5 -88.9 52.05 L-88.9 46.85 M-69.5 13.2 L-69.5 21.4 M-69.5 13.2 L-69.5 8.4 M-100.35 13.55 Q-100.85 13.05 -101.55 13.05 -102.3 13.05 -102.8 13.55 -103.35 14.1 -103.35 14.8 -103.35 15.5 -102.8 16.0 -102.3 16.55 -101.55 16.55 -100.85 16.55 -100.35 16.0 -99.85 15.5 -99.85 14.8 -99.85 14.1 -100.35 13.55 M-88.9 20.1 L-92.25 20.05 Q-118.15 19.35 -117.8 14.45 L-117.7 14.3 Q-118.55 11.1 -88.9 9.7" fill="none" stroke="#000000" stroke-linecap="round" stroke-linejoin="round" stroke-opacity="0.6627451" stroke-width="1.0"/>
      <path d="M43.25 24.65 L47.5 24.95 86.55 23.3 M87.35 11.0 L78.5 10.45 Q74.85 10.3 59.5 10.3 54.0 10.3 48.6 10.45 M43.25 24.65 L24.85 23.0 4.75 20.85 M-13.5 12.05 L-12.25 12.05 M-11.95 15.55 L-0.55 14.35 Q13.4 12.3 28.95 11.25 M-13.5 12.05 L-45.15 12.05 -48.65 12.05 -56.05 12.35 -69.5 13.2 M-47.55 20.25 Q-42.9 17.45 -31.25 16.85 L-11.95 15.55 M-49.5 21.9 L-47.55 20.25 M-69.5 43.05 L-76.0 52.9 M-88.9 14.3 L-97.0 15.05" fill="none" stroke="#000000" stroke-linecap="round" stroke-linejoin="round" stroke-opacity="0.33333334" stroke-width="1.0"/>
      <path d="M-146.45 14.45 L-149.3 14.45 -149.4 14.45 -163.15 14.45" fill="none" stroke="#010101" stroke-linecap="round" stroke-linejoin="round" stroke-opacity="0.0" stroke-width="0.5"/>
      <path d="M-117.8 14.45 L-146.45 14.45" fill="none" stroke="#000000" stroke-linecap="round" stroke-linejoin="round" stroke-opacity="0.33333334" stroke-width="0.5"/>
      <path d="M-54.05 -57.35 L-53.4 -57.35 -53.65 -56.7 Q-58.2 -45.75 -60.1 -33.7 L-61.4 -24.9 Q-62.4 -18.2 -63.5 -6.65 -64.65 4.9 -63.35 13.95 -62.1 22.95 -61.3 25.95 L-60.25 29.8 Q-62.85 28.55 -63.55 24.95 -65.1 20.35 -65.9 15.35 -67.95 2.0 -66.2 -11.55 L-64.3 -23.95 -62.8 -32.15 Q-60.7 -43.35 -55.55 -53.5 -54.05 -56.95 -54.05 -57.3 L-54.05 -57.35 M-13.7 -46.75 L-10.1 -44.55 -10.65 -44.2 Q-12.15 -43.1 -13.05 -41.85 L-15.9 -37.35 Q-17.25 -34.8 -19.3 -28.45 -21.35 -22.2 -21.9 -19.2 -22.55 -15.75 -22.55 -10.65 L-22.4 -5.75 Q-22.2 -3.05 -21.7 -1.85 L-22.3 -1.95 -23.55 -2.5 -23.95 -2.85 -24.2 -5.3 -24.35 -10.55 Q-24.35 -16.05 -23.75 -19.75 -23.3 -23.0 -21.45 -29.7 -19.65 -36.55 -18.45 -39.3 L-15.9 -44.15 Q-15.1 -45.5 -13.8 -46.7 L-13.7 -46.75 M-20.2 -1.6 L-20.25 -2.65 -17.65 -2.3 Q-14.4 -1.9 -14.25 0.4 L-14.15 4.65 -16.9 4.95 -17.0 1.35 Q-17.1 -1.15 -20.0 -1.6 L-20.2 -1.6 M-22.8 5.75 L-23.3 6.75 Q-24.1 8.55 -24.65 11.3 L-25.3 15.4 -25.4 19.05 -25.45 20.65 -25.4 22.8 -25.45 24.7 -25.25 25.75 -25.6 25.65 -26.05 25.4 -26.45 24.95 -26.7 24.45 -26.9 23.3 -26.9 23.15 -26.9 21.4 -26.8 17.5 -26.2 13.05 Q-25.7 10.1 -25.0 8.15 -23.95 5.25 -22.8 5.65 L-22.8 5.75 M-24.15 25.95 L-24.1 23.0 -22.05 23.3 Q-22.25 26.2 -22.55 27.45 L-23.35 28.6 -24.15 29.25 -23.9 26.0 -24.15 25.95 M-50.2 32.75 L-50.3 32.65 -50.95 31.85 -50.55 31.65 Q-50.3 32.0 -50.2 32.75" fill="#bdbdbd" fill-rule="evenodd" stroke="none"/>
      <path d="M-53.4 -57.35 Q-31.8 -57.15 -13.7 -46.75 L-13.8 -46.7 Q-15.1 -45.5 -15.9 -44.15 L-18.45 -39.3 Q-19.65 -36.55 -21.45 -29.7 -23.3 -23.0 -23.75 -19.75 -24.35 -16.05 -24.35 -10.55 L-24.2 -5.3 -23.95 -2.85 -23.55 -2.5 -22.3 -1.95 -21.7 -1.85 Q-21.35 -0.85 -20.8 -0.85 -20.15 -0.85 -20.2 -1.1 L-20.2 -1.6 -20.0 -1.6 Q-17.1 -1.15 -17.0 1.35 L-16.9 4.95 -20.45 5.25 -20.8 5.3 -20.7 4.85 -20.8 4.4 Q-21.85 4.1 -22.8 5.75 L-22.8 5.65 Q-23.95 5.25 -25.0 8.15 -25.7 10.1 -26.2 13.05 L-26.8 17.5 -26.9 21.4 -26.9 23.15 -26.9 23.3 -26.7 24.45 -26.45 24.95 -26.05 25.4 -25.6 25.65 -25.25 25.75 -24.7 26.45 -24.15 26.25 -24.15 25.95 -23.9 26.0 -24.15 29.25 -24.5 29.4 -29.8 30.05 -35.45 30.3 -36.25 30.0 -36.3 30.0 -36.45 29.15 Q-36.8 28.15 -37.45 27.85 -38.15 27.55 -38.45 28.65 -38.65 29.35 -38.45 30.95 -38.55 32.1 -38.75 32.3 -39.75 33.2 -44.05 33.2 L-47.65 33.3 -50.2 32.75 Q-50.3 32.0 -50.55 31.65 L-50.95 31.85 -51.05 31.7 -51.3 31.2 -51.3 31.05 -51.6 29.9 -51.65 29.9 -51.65 29.85 Q-51.75 28.95 -52.05 28.55 -52.85 28.55 -53.1 30.05 -53.55 30.4 -54.5 30.4 L-55.6 30.4 -57.9 30.35 -60.25 29.8 -61.3 25.95 Q-62.1 22.95 -63.35 13.95 -64.65 4.9 -63.5 -6.65 -62.4 -18.2 -61.4 -24.9 L-60.1 -33.7 Q-58.2 -45.75 -53.65 -56.7 L-53.4 -57.35" fill="#999999" fill-rule="evenodd" stroke="none"/>
      <path d="M-10.1 -44.55 Q-8.7 -45.5 -8.7 -44.05 -8.7 -44.55 -11.25 -41.1 L-13.2 -38.2 -10.15 -39.75 -6.95 -41.4 Q-4.8 -42.15 -4.8 -40.7 -4.8 -39.15 -14.55 -35.7 L-15.55 -33.3 -18.9 -22.55 Q-20.2 -17.7 -20.4 -11.8 L-20.3 -3.85 -17.7 -3.95 -14.65 -3.55 -13.3 -2.5 Q-12.5 -1.65 -12.3 -0.35 L-12.25 1.7 Q-12.25 4.75 -12.4 5.25 -12.85 6.65 -14.95 6.65 L-21.3 6.45 -21.75 7.35 -23.05 10.3 -23.6 12.75 -24.0 15.5 -24.1 20.75 -24.1 21.55 -22.55 21.4 Q-20.3 21.5 -20.45 23.65 L-20.3 27.55 Q-20.3 29.15 -21.4 30.25 -22.7 31.55 -25.35 32.05 L-28.8 32.3 -36.2 31.9 Q-36.25 32.65 -36.45 33.2 L-37.05 34.0 Q-37.6 34.5 -38.5 34.9 -40.5 35.65 -44.1 35.65 L-49.6 35.1 Q-51.5 34.55 -52.4 33.6 L-53.0 32.6 -54.35 32.7 -55.6 32.7 -58.0 32.85 Q-63.5 32.55 -65.7 26.8 L-66.3 24.95 Q-69.7 12.8 -69.4 0.15 -69.15 -12.0 -67.0 -23.95 -65.15 -34.45 -61.65 -44.5 -60.05 -49.1 -58.05 -53.5 -55.65 -58.1 -54.9 -58.1 L-54.35 -57.85 -54.3 -57.8 -54.05 -57.35 -54.05 -57.3 Q-54.05 -56.95 -55.55 -53.5 -60.7 -43.35 -62.8 -32.15 L-64.3 -23.95 -66.2 -11.55 Q-67.95 2.0 -65.9 15.35 -65.1 20.35 -63.55 24.95 -62.85 28.55 -60.25 29.8 L-57.9 30.35 -55.6 30.4 -54.5 30.4 Q-53.55 30.4 -53.1 30.05 -52.85 28.55 -52.05 28.55 -51.75 28.95 -51.65 29.85 L-51.65 29.9 -51.6 29.9 -51.3 31.05 -51.3 31.2 -51.05 31.7 -50.95 31.85 -50.3 32.65 -50.2 32.75 -47.65 33.3 -44.05 33.2 Q-39.75 33.2 -38.75 32.3 -38.55 32.1 -38.45 30.95 -38.65 29.35 -38.45 28.65 -38.15 27.55 -37.45 27.85 -36.8 28.15 -36.45 29.15 L-36.3 30.0 -36.25 30.0 -35.45 30.3 -29.8 30.05 -24.5 29.4 -24.15 29.25 -23.35 28.6 -22.55 27.45 Q-22.25 26.2 -22.05 23.3 L-24.1 23.0 -24.15 25.95 -24.15 26.25 -24.7 26.45 -25.25 25.75 -25.45 24.7 -25.4 22.8 -25.45 20.65 -25.4 19.05 -25.3 15.4 -24.65 11.3 Q-24.1 8.55 -23.3 6.75 L-22.8 5.75 Q-21.85 4.1 -20.8 4.4 L-20.7 4.85 -20.8 5.3 -20.45 5.25 -16.9 4.95 -14.15 4.65 -14.25 0.4 Q-14.4 -1.9 -17.65 -2.3 L-20.25 -2.65 -20.2 -1.6 -20.2 -1.1 Q-20.15 -0.85 -20.8 -0.85 -21.35 -0.85 -21.7 -1.85 -22.2 -3.05 -22.4 -5.75 L-22.55 -10.65 Q-22.55 -15.75 -21.9 -19.2 -21.35 -22.2 -19.3 -28.45 -17.25 -34.8 -15.9 -37.35 L-13.05 -41.85 Q-12.15 -43.1 -10.65 -44.2 L-10.1 -44.55" fill="#000000" fill-rule="evenodd" stroke="none"/>
    </g>
  </defs>
</svg>
