<?xml version="1.0" encoding="UTF-8" standalone="no"?>
<svg xmlns:xlink="http://www.w3.org/1999/xlink" height="531.5px" width="460.6px" xmlns="http://www.w3.org/2000/svg">
  <g transform="matrix(1.0, 0.0, 0.0, 1.0, 193.65, 334.05)">
    <use height="106.85" transform="matrix(1.0, 0.0, 0.0, 1.0, -73.1, -57.95)" width="73.7" xlink:href="#shape0"/>
  </g>
  <defs>
    <g id="shape0" transform="matrix(1.0, 0.0, 0.0, 1.0, 73.1, 57.95)">
      <path d="M-5.4 3.6 Q-3.4 5.75 -3.0 8.55 -5.05 9.8 -8.65 9.15 -9.2 5.25 -5.4 3.6" fill="#428c00" fill-rule="evenodd" stroke="none"/>
      <path d="M-5.4 3.6 Q-3.4 5.75 -3.0 8.55 -5.05 9.8 -8.65 9.15 -9.2 5.25 -5.4 3.6 Z" fill="none" stroke="#000000" stroke-linecap="round" stroke-linejoin="round" stroke-opacity="0.5019608" stroke-width="1.0"/>
      <path d="M-12.9 3.1 Q-9.4 4.8 -6.65 1.7 -8.1 -0.85 -10.6 -2.1 -12.45 -0.55 -12.9 3.1" fill="#8dc757" fill-rule="evenodd" stroke="none"/>
      <path d="M-12.9 3.1 Q-9.4 4.8 -6.65 1.7 -8.1 -0.85 -10.6 -2.1 -12.45 -0.55 -12.9 3.1 Z" fill="none" stroke="#000000" stroke-linecap="round" stroke-linejoin="round" stroke-opacity="0.5019608" stroke-width="1.0"/>
      <path d="M-23.05 4.6 Q-26.15 7.0 -29.4 4.55 -28.6 1.7 -26.4 -0.05 -24.25 1.1 -23.05 4.6" fill="#8dc757" fill-rule="evenodd" stroke="none"/>
      <path d="M-23.05 4.6 Q-26.15 7.0 -29.4 4.55 -28.6 1.7 -26.4 -0.05 -24.25 1.1 -23.05 4.6 Z" fill="none" stroke="#000000" stroke-linecap="round" stroke-linejoin="round" stroke-opacity="0.5019608" stroke-width="1.0"/>
      <path d="M-25.6 10.9 Q-25.9 7.0 -29.9 6.2 -31.45 8.7 -31.25 11.55 -29.0 12.35 -25.6 10.9" fill="#428c00" fill-rule="evenodd" stroke="none"/>
      <path d="M-25.6 10.9 Q-25.9 7.0 -29.9 6.2 -31.45 8.7 -31.25 11.55 -29.0 12.35 -25.6 10.9 Z" fill="none" stroke="#000000" stroke-linecap="round" stroke-linejoin="round" stroke-opacity="0.5019608" stroke-width="1.0"/>
      <path d="M-20.75 20.8 Q-17.35 22.75 -18.25 26.75 -21.2 27.05 -23.65 25.7 -23.45 23.3 -20.75 20.8" fill="#428c00" fill-rule="evenodd" stroke="none"/>
      <path d="M-20.75 20.8 Q-17.35 22.75 -18.25 26.75 -21.2 27.05 -23.65 25.7 -23.45 23.3 -20.75 20.8 Z" fill="none" stroke="#000000" stroke-linecap="round" stroke-linejoin="round" stroke-opacity="0.5019608" stroke-width="1.0"/>
      <path d="M-14.6 21.55 Q-17.85 23.15 -17.05 26.85 -14.35 27.3 -12.05 26.1 -12.2 23.9 -14.6 21.55" fill="#428c00" fill-rule="evenodd" stroke="none"/>
      <path d="M-14.6 21.55 Q-17.85 23.15 -17.05 26.85 -14.35 27.3 -12.05 26.1 -12.2 23.9 -14.6 21.55 Z" fill="none" stroke="#000000" stroke-linecap="round" stroke-linejoin="round" stroke-opacity="0.5019608" stroke-width="1.0"/>
      <path d="M-9.75 19.75 Q-8.15 18.95 -7.35 17.3 -8.3 16.0 -10.55 15.5 -11.6 17.75 -9.75 19.75" fill="#214d00" fill-rule="evenodd" stroke="none"/>
      <path d="M-9.75 19.75 Q-8.15 18.95 -7.35 17.3 -8.3 16.0 -10.55 15.5 -11.6 17.75 -9.75 19.75 Z" fill="none" stroke="#000000" stroke-linecap="round" stroke-linejoin="round" stroke-opacity="0.5019608" stroke-width="1.0"/>
      <path d="M-36.9 2.65 L-37.35 2.15 -28.1 2.45 -24.4 2.85 -18.45 3.85 -12.0 1.35 -11.65 1.2 -10.3 0.75 -8.45 0.1 0.1 -2.35 -0.2 -1.85 Q-10.5 2.1 -18.75 6.9 -22.6 5.65 -29.45 4.05 L-36.9 2.65 M-18.45 3.85 L-19.35 4.2 -18.45 3.85 M-19.35 15.3 L-18.6 15.1 Q-17.75 17.75 -18.75 26.55 -19.9 24.25 -20.65 21.85 -22.1 17.05 -20.5 15.85 -20.1 15.6 -19.35 15.3" fill="#8dc757" fill-rule="evenodd" stroke="none"/>
      <path d="M-4.4 5.6 L-6.45 8.75 -10.05 13.5 -11.0 14.6 -11.15 15.2 -13.0 21.75 -13.6 23.5 -14.65 26.65 -17.5 33.95 -20.85 26.3 -21.6 24.2 -21.95 23.2 -22.0 23.05 -24.1 15.35 -24.35 15.15 -28.7 11.15 -30.6 9.4 -36.9 2.65 -29.45 4.05 Q-22.6 5.65 -18.75 6.9 -10.5 2.1 -0.2 -1.85 -2.15 2.0 -4.4 5.6 M-19.35 15.3 Q-20.1 15.6 -20.5 15.85 -22.1 17.05 -20.65 21.85 -19.9 24.25 -18.75 26.55 -17.75 17.75 -18.6 15.1 L-19.35 15.3" fill="#428c00" fill-rule="evenodd" stroke="none"/>
      <path d="M-10.05 13.5 L-9.25 16.2 -9.2 16.5 -9.0 17.25 -8.95 17.45 -8.75 18.35 -8.7 18.65 -7.8 23.35 Q-10.5 22.75 -13.0 21.75 L-11.15 15.2 -11.0 14.6 -10.05 13.5" fill="#214d00" fill-rule="evenodd" stroke="none"/>
      <path d="M-6.45 8.75 L-10.05 13.5 -9.25 16.2 M-8.7 18.65 L-7.8 23.35 Q-10.5 22.75 -13.0 21.75 L-13.6 23.5 M-14.65 26.65 L-17.5 33.95 -20.85 26.3 M-22.0 23.05 L-24.1 15.35 -24.35 15.15 -28.7 11.15 M-30.6 9.4 L-36.9 2.65 -37.35 2.15 -28.1 2.45 M-24.4 2.85 L-18.45 3.85 -12.0 1.35 M-8.45 0.1 L0.1 -2.35 -0.2 -1.85 Q-2.15 2.0 -4.4 5.6 M-19.35 4.2 L-18.45 3.85 M-10.05 13.5 L-11.0 14.6 -11.15 15.2 -13.0 21.75" fill="none" stroke="#000000" stroke-linecap="round" stroke-linejoin="round" stroke-opacity="0.5019608" stroke-width="1.0"/>
      <path d="M-24.2 13.75 Q-21.25 13.35 -18.75 14.7 -18.95 17.1 -21.6 19.6 -25.05 17.8 -24.2 13.75" fill="#428c00" fill-rule="evenodd" stroke="none"/>
      <path d="M-24.2 13.75 Q-21.25 13.35 -18.75 14.7 -18.95 17.1 -21.6 19.6 -25.05 17.8 -24.2 13.75 Z" fill="none" stroke="#000000" stroke-linecap="round" stroke-linejoin="round" stroke-opacity="0.5019608" stroke-width="1.0"/>
      <path d="M-28.95 19.6 Q-25.5 17.75 -26.4 13.75 -29.35 13.4 -31.85 14.7 -31.65 17.15 -28.95 19.6" fill="#8dc757" fill-rule="evenodd" stroke="none"/>
      <path d="M-28.95 19.6 Q-25.5 17.75 -26.4 13.75 -29.35 13.4 -31.85 14.7 -31.65 17.15 -28.95 19.6 Z" fill="none" stroke="#000000" stroke-linecap="round" stroke-linejoin="round" stroke-opacity="0.5019608" stroke-width="1.0"/>
      <path d="M-33.65 28.65 Q-33.5 32.55 -37.4 33.8 -39.2 31.5 -39.3 28.65 -37.15 27.6 -33.65 28.65" fill="#8dc757" fill-rule="evenodd" stroke="none"/>
      <path d="M-33.65 28.65 Q-33.5 32.55 -37.4 33.8 -39.2 31.5 -39.3 28.65 -37.15 27.6 -33.65 28.65 Z" fill="none" stroke="#000000" stroke-linecap="round" stroke-linejoin="round" stroke-opacity="0.5019608" stroke-width="1.0"/>
      <path d="M-30.0 34.45 Q-33.3 32.35 -36.3 35.15 -35.15 37.9 -32.8 39.4 -30.8 38.05 -30.0 34.45" fill="#428c00" fill-rule="evenodd" stroke="none"/>
      <path d="M-30.0 34.45 Q-33.3 32.35 -36.3 35.15 -35.15 37.9 -32.8 39.4 -30.8 38.05 -30.0 34.45 Z" fill="none" stroke="#000000" stroke-linecap="round" stroke-linejoin="round" stroke-opacity="0.5019608" stroke-width="1.0"/>
      <path d="M-19.15 36.3 Q-15.6 34.65 -12.9 37.75 -14.35 40.35 -16.95 41.5 -18.75 39.95 -19.15 36.3" fill="#428c00" fill-rule="evenodd" stroke="none"/>
      <path d="M-19.15 36.3 Q-15.6 34.65 -12.9 37.75 -14.35 40.35 -16.95 41.5 -18.75 39.95 -19.15 36.3 Z" fill="none" stroke="#000000" stroke-linecap="round" stroke-linejoin="round" stroke-opacity="0.5019608" stroke-width="1.0"/>
      <path d="M-14.85 31.7 Q-15.4 35.25 -11.95 36.85 -10.05 34.9 -9.6 32.3 -11.55 31.15 -14.85 31.7" fill="#428c00" fill-rule="evenodd" stroke="none"/>
      <path d="M-14.85 31.7 Q-15.4 35.25 -11.95 36.85 -10.05 34.9 -9.6 32.3 -11.55 31.15 -14.85 31.7 Z" fill="none" stroke="#000000" stroke-linecap="round" stroke-linejoin="round" stroke-opacity="0.5019608" stroke-width="1.0"/>
      <path d="M-13.6 26.65 Q-13.3 24.9 -14.2 23.3 -15.85 23.3 -17.5 24.85 -16.35 27.0 -13.6 26.65" fill="#214d00" fill-rule="evenodd" stroke="none"/>
      <path d="M-13.6 26.65 Q-13.3 24.9 -14.2 23.3 -15.85 23.3 -17.5 24.85 -16.35 27.0 -13.6 26.65 Z" fill="none" stroke="#000000" stroke-linecap="round" stroke-linejoin="round" stroke-opacity="0.5019608" stroke-width="1.0"/>
      <path d="M-16.15 24.25 L-15.85 24.35 -15.15 24.6 -14.95 24.7 -14.1 25.05 -13.8 25.2 Q-11.65 26.1 -9.45 27.2 L-13.8 30.55 -18.05 25.15 -18.45 24.7 -18.8 23.25 -16.15 24.25" fill="#214d00" fill-rule="evenodd" stroke="none"/>
      <path d="M-18.8 23.25 L-18.45 24.7 -18.05 25.15 -13.8 30.55 -12.75 32.0 -10.85 34.7 -6.55 41.3 -14.7 39.55 -16.85 38.95 -17.8 38.65 -18.05 38.55 Q-21.85 37.35 -25.5 35.75 L-25.8 35.85 -31.6 37.05 -34.2 37.5 -43.3 38.7 -37.8 33.5 Q-32.5 28.85 -29.25 26.5 -28.3 16.95 -25.45 6.35 -23.5 10.1 -21.9 14.05 L-20.55 17.55 Q-19.6 20.35 -18.8 23.25 M-22.95 33.1 Q-22.95 35.1 -18.2 36.75 -15.85 37.55 -13.3 37.95 -19.8 32.0 -22.45 31.15 L-22.75 31.85 -22.95 33.1" fill="#428c00" fill-rule="evenodd" stroke="none"/>
      <path d="M-35.8 28.65 L-31.55 24.45 -29.8 17.75 -29.7 17.35 -29.25 16.0 -28.7 14.15 Q-27.4 10.0 -25.7 5.8 L-25.45 6.35 Q-28.3 16.95 -29.25 26.5 -32.5 28.85 -37.8 33.5 L-43.3 38.7 -43.9 38.75 Q-41.35 34.95 -38.3 31.5 L-35.8 28.65 M-22.95 33.1 L-22.75 31.85 -22.45 31.15 Q-19.8 32.0 -13.3 37.95 -15.85 37.55 -18.2 36.75 -22.95 35.1 -22.95 33.1 M-31.55 24.45 L-31.75 25.35 -31.55 24.45" fill="#8dc757" fill-rule="evenodd" stroke="none"/>
      <path d="M-16.15 24.25 L-18.8 23.25 -18.45 24.7 -18.05 25.15 -13.8 30.55 -9.45 27.2 Q-11.65 26.1 -13.8 25.2 M-35.8 28.65 L-31.55 24.45 -29.8 17.75 M-28.7 14.15 Q-27.4 10.0 -25.7 5.8 L-25.45 6.35 Q-23.5 10.1 -21.9 14.05 M-20.55 17.55 Q-19.6 20.35 -18.8 23.25 M-18.05 38.55 Q-21.85 37.35 -25.5 35.75 L-25.8 35.85 -31.6 37.05 M-34.2 37.5 L-43.3 38.7 -43.9 38.75 Q-41.35 34.95 -38.3 31.5 M-13.8 30.55 L-12.75 32.0 M-10.85 34.7 L-6.55 41.3 -14.7 39.55 M-31.75 25.35 L-31.55 24.45" fill="none" stroke="#000000" stroke-linecap="round" stroke-linejoin="round" stroke-opacity="0.5019608" stroke-width="1.0"/>
      <path d="M-49.5 14.05 Q-47.0 12.1 -43.9 11.95 -42.75 14.3 -43.9 18.1 -48.15 18.25 -49.5 14.05" fill="#428c00" fill-rule="evenodd" stroke="none"/>
      <path d="M-49.5 14.05 Q-47.0 12.1 -43.9 11.95 -42.75 14.3 -43.9 18.1 -48.15 18.25 -49.5 14.05 Z" fill="none" stroke="#000000" stroke-linecap="round" stroke-linejoin="round" stroke-opacity="0.5019608" stroke-width="1.0"/>
      <path d="M-50.75 22.2 Q-48.55 18.6 -51.55 15.3 -54.55 16.55 -56.15 19.2 -54.65 21.3 -50.75 22.2" fill="#8dc757" fill-rule="evenodd" stroke="none"/>
      <path d="M-50.75 22.2 Q-48.55 18.6 -51.55 15.3 -54.55 16.55 -56.15 19.2 -54.65 21.3 -50.75 22.2 Z" fill="none" stroke="#000000" stroke-linecap="round" stroke-linejoin="round" stroke-opacity="0.5019608" stroke-width="1.0"/>
      <path d="M-50.3 33.2 Q-48.05 36.8 -51.05 40.1 -54.0 38.9 -55.65 36.25 -54.2 34.1 -50.3 33.2" fill="#8dc757" fill-rule="evenodd" stroke="none"/>
      <path d="M-50.3 33.2 Q-48.05 36.8 -51.05 40.1 -54.0 38.9 -55.65 36.25 -54.2 34.1 -50.3 33.2 Z" fill="none" stroke="#000000" stroke-linecap="round" stroke-linejoin="round" stroke-opacity="0.5019608" stroke-width="1.0"/>
      <path d="M-43.7 36.75 Q-47.95 36.55 -49.3 40.85 -46.75 42.8 -43.65 42.9 -42.5 40.5 -43.7 36.75" fill="#428c00" fill-rule="evenodd" stroke="none"/>
      <path d="M-43.7 36.75 Q-47.95 36.55 -49.3 40.85 -46.75 42.8 -43.65 42.9 -42.5 40.5 -43.7 36.75 Z" fill="none" stroke="#000000" stroke-linecap="round" stroke-linejoin="round" stroke-opacity="0.5019608" stroke-width="1.0"/>
      <path d="M-32.5 32.55 Q-30.1 29.05 -25.85 30.55 -25.8 33.7 -27.55 36.25 -30.15 35.75 -32.5 32.55" fill="#428c00" fill-rule="evenodd" stroke="none"/>
      <path d="M-32.5 32.55 Q-30.1 29.05 -25.85 30.55 -25.8 33.7 -27.55 36.25 -30.15 35.75 -32.5 32.55 Z" fill="none" stroke="#000000" stroke-linecap="round" stroke-linejoin="round" stroke-opacity="0.5019608" stroke-width="1.0"/>
      <path d="M-31.05 25.95 Q-29.6 29.55 -25.5 29.15 -24.8 26.3 -25.8 23.7 -28.2 23.55 -31.05 25.95" fill="#428c00" fill-rule="evenodd" stroke="none"/>
      <path d="M-31.05 25.95 Q-29.6 29.55 -25.5 29.15 -24.8 26.3 -25.8 23.7 -28.2 23.55 -31.05 25.95 Z" fill="none" stroke="#000000" stroke-linecap="round" stroke-linejoin="round" stroke-opacity="0.5019608" stroke-width="1.0"/>
      <path d="M-32.45 20.5 Q-33.15 18.7 -34.85 17.65 -36.35 18.55 -37.15 20.95 -34.85 22.3 -32.45 20.5" fill="#214d00" fill-rule="evenodd" stroke="none"/>
      <path d="M-32.45 20.5 Q-33.15 18.7 -34.85 17.65 -36.35 18.55 -37.15 20.95 -34.85 22.3 -32.45 20.5 Z" fill="none" stroke="#000000" stroke-linecap="round" stroke-linejoin="round" stroke-opacity="0.5019608" stroke-width="1.0"/>
      <path d="M-30.7 24.3 Q-34.15 22.75 -37.55 21.5 L-38.15 21.3 -39.35 20.15 -36.3 19.6 -35.95 19.55 -35.15 19.4 -34.9 19.4 -33.9 19.25 -33.55 19.2 -28.35 18.8 Q-29.35 21.65 -30.7 24.3" fill="#214d00" fill-rule="evenodd" stroke="none"/>
      <path d="M-39.35 20.15 L-38.15 21.3 -37.55 21.5 Q-34.15 22.75 -30.7 24.3 -29.8 24.65 -28.85 25.1 L-25.6 26.6 Q-21.8 28.35 -18.0 30.45 -22.25 32.1 -26.6 33.25 L-28.95 33.8 -30.05 34.05 -30.3 34.1 -38.8 35.55 -39.05 35.8 -43.8 40.05 -46.0 41.9 -53.95 48.0 -51.65 40.1 Q-49.15 32.85 -47.35 28.85 -51.65 19.4 -54.75 7.85 -50.85 10.3 -47.2 13.15 L-44.05 15.75 -39.35 20.15 M-31.4 32.5 Q-28.7 31.95 -26.1 31.0 -35.5 28.9 -38.4 29.55 L-38.3 30.45 -37.85 31.7 Q-36.75 33.6 -31.4 32.5" fill="#428c00" fill-rule="evenodd" stroke="none"/>
      <path d="M-54.75 7.85 Q-51.65 19.4 -47.35 28.85 -49.15 32.85 -51.65 40.1 L-53.95 48.0 -54.5 48.4 Q-54.15 43.35 -53.2 38.5 L-52.35 34.5 -50.6 28.2 -52.6 20.95 -52.75 20.55 -53.1 19.0 -53.55 16.95 -55.3 7.45 -54.75 7.85 M-31.4 32.5 Q-36.75 33.6 -37.85 31.7 L-38.3 30.45 -38.4 29.55 Q-35.5 28.9 -26.1 31.0 -28.7 31.95 -31.4 32.5 M-50.6 28.2 L-50.3 29.15 -50.6 28.2" fill="#8dc757" fill-rule="evenodd" stroke="none"/>
      <path d="M-39.35 20.15 L-38.15 21.3 -37.55 21.5 Q-34.15 22.75 -30.7 24.3 -29.35 21.65 -28.35 18.8 L-33.55 19.2 M-36.3 19.6 L-39.35 20.15 -44.05 15.75 M-47.2 13.15 Q-50.85 10.3 -54.75 7.85 L-55.3 7.45 -53.55 16.95 M-53.95 48.0 L-46.0 41.9 M-43.8 40.05 L-39.05 35.8 -38.8 35.55 -30.3 34.1 M-26.6 33.25 Q-22.25 32.1 -18.0 30.45 -21.8 28.35 -25.6 26.6 M-28.85 25.1 Q-29.8 24.65 -30.7 24.3 M-50.3 29.15 L-50.6 28.2 -52.35 34.5 M-53.2 38.5 Q-54.15 43.35 -54.5 48.4 L-53.95 48.0 M-50.6 28.2 L-52.6 20.95" fill="none" stroke="#000000" stroke-linecap="round" stroke-linejoin="round" stroke-opacity="0.5019608" stroke-width="1.0"/>
      <path d="M-53.35 -57.25 L-53.35 -56.8 -53.35 -56.75 Q-53.05 -57.25 -53.55 -56.0 L-54.95 -52.8 -58.0 -46.0 Q-61.9 -37.2 -64.1 -30.9 -66.35 -24.7 -67.9 -18.9 -68.6 -16.55 -68.8 -14.15 L-69.25 -7.5 Q-69.5 -3.25 -68.5 2.3 L-66.0 15.1 Q-64.45 22.35 -63.35 25.45 -62.35 28.3 -60.7 30.55 L-60.5 30.8 -59.0 32.2 Q-57.4 33.15 -54.9 33.5 L-54.6 33.55 -55.1 32.8 Q-56.0 31.35 -56.0 30.35 L-55.65 29.55 Q-55.4 29.2 -52.6 33.25 -49.85 37.3 -47.0 37.25 -44.2 37.15 -42.55 35.9 L-41.75 35.4 -41.2 35.1 -41.1 35.05 -41.15 35.0 -41.3 34.4 -41.35 34.1 -41.2 33.05 -40.9 32.8 -38.4 35.15 Q-35.3 37.1 -33.05 37.15 -31.45 37.2 -30.4 36.6 L-29.65 36.05 -29.3 35.65 -28.45 34.3 -28.45 34.25 -28.95 31.5 -29.05 28.95 -29.05 27.0 -28.9 25.5 -28.55 24.55 -27.0 22.3 -26.35 21.35 Q-25.75 20.45 -25.8 18.7 L-25.85 15.75 -25.0 10.1 Q-24.9 9.3 -24.0 8.5 L-22.35 7.3 Q-20.1 6.0 -17.8 5.6 L-17.15 5.5 -17.15 5.45 -16.55 5.2 Q-16.3 5.0 -16.3 4.55 L-16.7 3.0 -16.85 2.7 -17.7 0.05 -17.75 -0.1 -18.55 -1.95 Q-19.05 -2.75 -19.75 -2.75 L-21.5 -2.7 -22.95 -2.75 -23.15 -3.3 Q-23.85 -4.7 -24.3 -7.15 L-24.8 -11.0 Q-24.8 -12.3 -24.05 -15.55 L-23.45 -18.05 Q-22.3 -21.7 -20.15 -26.7 L-14.05 -40.5 -13.9 -40.9 -13.35 -40.55 -13.2 -40.4 Q-12.9 -40.0 -12.9 -39.15 -15.55 -34.15 -18.15 -28.05 -23.4 -15.95 -23.4 -10.05 L-22.9 -6.15 -22.45 -4.35 -22.35 -4.1 -20.05 -4.4 -17.7 -4.1 -16.9 -2.7 Q-15.55 -0.05 -15.0 2.95 L-14.85 3.6 Q-14.5 5.3 -14.5 5.9 -14.5 6.8 -15.1 7.05 L-17.45 7.55 Q-19.2 7.8 -20.95 8.75 -22.75 9.65 -23.2 11.4 -23.75 13.1 -23.95 15.7 L-24.2 20.15 Q-24.25 22.05 -25.45 23.65 -26.7 25.25 -27.05 26.55 L-26.75 29.65 Q-26.75 30.95 -26.1 32.85 L-25.7 34.05 -25.8 35.0 -26.2 35.75 -26.25 35.9 -26.35 35.95 Q-26.9 36.85 -28.3 37.95 -30.5 39.6 -32.2 39.6 -36.15 39.6 -39.05 37.35 L-39.4 37.05 Q-40.05 37.45 -41.0 37.9 -43.95 39.4 -45.65 39.4 L-45.95 39.4 Q-47.5 39.35 -48.95 38.7 -51.2 37.75 -53.2 35.4 L-53.2 35.35 -53.4 35.45 -53.85 35.55 -54.9 35.6 Q-62.3 35.6 -65.4 25.1 L-66.85 19.8 -68.1 14.15 -69.8 3.65 Q-71.1 -3.8 -71.1 -7.45 -71.1 -11.15 -69.75 -16.95 -68.4 -22.8 -60.9 -42.5 -54.05 -60.65 -53.4 -57.45 L-53.35 -57.25" fill="#000000" fill-rule="evenodd" stroke="none"/>
      <path d="M-59.0 32.2 L-60.5 30.8 -60.7 30.55 Q-62.35 28.3 -63.35 25.45 -64.45 22.35 -66.0 15.1 L-68.5 2.3 Q-69.5 -3.25 -69.25 -7.5 L-68.8 -14.15 Q-68.6 -16.55 -67.9 -18.9 -66.35 -24.7 -64.1 -30.9 -61.9 -37.2 -58.0 -46.0 L-54.95 -52.8 -53.55 -56.0 Q-53.05 -57.25 -53.35 -56.75 L-53.35 -56.8 -53.35 -57.25 -53.15 -57.25 -52.05 -57.3 -52.1 -57.2 -53.65 -53.2 -55.75 -48.05 Q-59.35 -38.85 -61.4 -32.25 -63.5 -25.75 -64.95 -19.7 -65.65 -17.25 -65.8 -14.7 L-66.35 -7.75 Q-66.6 -3.3 -65.75 2.5 L-63.65 15.85 Q-62.35 23.45 -61.45 26.7 L-60.15 30.15 -59.0 32.2 M-14.05 -40.5 L-20.15 -26.7 Q-22.3 -21.7 -23.45 -18.05 L-24.05 -15.55 Q-24.8 -12.3 -24.8 -11.0 L-24.3 -7.15 Q-23.85 -4.7 -23.15 -3.3 L-22.95 -2.75 -24.7 -2.8 -24.9 -3.35 Q-25.55 -4.85 -25.9 -7.4 L-26.3 -11.45 Q-26.3 -12.8 -25.55 -16.2 L-25.0 -18.8 -21.95 -27.85 -16.05 -43.1 -14.05 -40.5 M-21.5 -2.7 L-19.75 -2.75 Q-19.05 -2.75 -18.55 -1.95 L-17.75 -0.1 -17.7 0.05 -16.85 2.7 -16.7 3.0 -16.3 4.55 Q-16.3 5.0 -16.55 5.2 L-17.15 5.45 -17.15 5.5 -17.8 5.6 Q-20.1 6.0 -22.35 7.3 L-24.0 8.5 Q-24.9 9.3 -25.0 10.1 L-25.85 15.75 -25.8 18.7 Q-25.75 20.45 -26.35 21.35 L-27.0 22.3 -28.55 24.55 -28.9 25.5 -29.05 27.0 -29.05 28.95 -28.95 31.5 -28.45 34.25 -28.45 34.3 -29.3 35.65 -29.65 36.05 -30.4 36.6 -30.15 35.95 -30.15 35.9 -30.2 35.25 -30.5 33.05 -30.6 30.35 -30.55 28.3 Q-30.55 26.65 -30.1 25.75 L-29.75 25.1 -28.1 22.4 -27.9 21.9 Q-27.55 21.0 -27.55 19.65 L-27.6 16.55 -26.75 10.65 Q-26.6 9.45 -24.85 8.1 L-24.35 7.7 Q-22.0 6.15 -19.6 5.85 L-19.6 5.8 -19.1 5.5 -18.9 5.2 -18.85 4.85 -19.25 3.2 -19.3 2.9 -20.1 0.15 -20.1 -0.05 -20.8 -1.95 -21.5 -2.7 M-41.3 34.4 L-41.15 35.0 -41.1 35.05 -41.2 35.1 -41.75 35.4 -41.6 34.7 -41.6 34.65 -41.55 34.6 -41.35 34.4 -41.3 34.4" fill="#bdbdbd" fill-rule="evenodd" stroke="none"/>
      <path d="M-22.95 -2.75 L-21.5 -2.7 -20.8 -1.95 -20.1 -0.05 -20.1 0.15 -19.3 2.9 -19.25 3.2 -18.85 4.85 -18.9 5.2 -19.1 5.5 -19.6 5.8 -19.6 5.85 Q-22.0 6.15 -24.35 7.7 L-24.85 8.1 Q-26.6 9.45 -26.75 10.65 L-27.6 16.55 -27.55 19.65 Q-27.55 21.0 -27.9 21.9 L-28.1 22.4 -29.75 25.1 -30.1 25.75 Q-30.55 26.65 -30.55 28.3 L-30.6 30.35 -30.5 33.05 -30.2 35.25 -30.15 35.9 -30.15 35.95 -30.4 36.6 Q-31.45 37.2 -33.05 37.15 -35.3 37.1 -38.4 35.15 L-40.9 32.8 -41.2 33.05 -41.35 34.1 -41.3 34.4 -41.35 34.4 -41.55 34.6 -41.6 34.65 -41.6 34.7 -41.75 35.4 -42.55 35.9 Q-44.2 37.15 -47.0 37.25 -49.85 37.3 -52.6 33.25 -55.4 29.2 -55.65 29.55 L-56.0 30.35 Q-56.0 31.35 -55.1 32.8 L-54.6 33.55 -54.9 33.5 Q-57.4 33.15 -59.0 32.2 L-60.15 30.15 -61.45 26.7 Q-62.35 23.45 -63.65 15.85 L-65.75 2.5 Q-66.6 -3.3 -66.35 -7.75 L-65.8 -14.7 Q-65.65 -17.25 -64.95 -19.7 -63.5 -25.75 -61.4 -32.25 -59.35 -38.85 -55.75 -48.05 L-53.65 -53.2 -52.1 -57.2 -52.05 -57.3 Q-27.95 -57.6 -16.05 -43.1 L-21.95 -27.85 -25.0 -18.8 -25.55 -16.2 Q-26.3 -12.8 -26.3 -11.45 L-25.9 -7.4 Q-25.55 -4.85 -24.9 -3.35 L-24.7 -2.8 -22.95 -2.75" fill="#999999" fill-rule="evenodd" stroke="none"/>
      <path d="M-27.2 -22.7 L-22.15 -21.6 Q-19.0 -12.0 -21.1 -4.8 -23.45 -3.85 -25.9 -3.5 -24.7 -12.05 -26.7 -20.6 L-27.2 -22.7" fill="#404040" fill-rule="evenodd" stroke="none"/>
      <path d="M-27.2 -22.7 L-26.7 -20.6 Q-24.7 -12.05 -25.9 -3.5 L-34.1 -4.0 -36.55 -22.7 Q-32.0 -23.45 -27.2 -22.7" fill="#242424" fill-rule="evenodd" stroke="none"/>
      <path d="M-25.9 -3.5 Q-23.45 -3.85 -21.1 -4.8 -19.0 -12.0 -22.15 -21.6 L-27.2 -22.7 Q-32.0 -23.45 -36.55 -22.7 L-34.1 -4.0 -25.9 -3.5 Z" fill="none" stroke="#000000" stroke-linecap="round" stroke-linejoin="round" stroke-opacity="0.5019608" stroke-width="1.0"/>
      <path d="M-71.2 6.2 L-54.65 -11.45 Q-45.4 -20.65 -37.5 -27.6 -34.35 -26.9 -31.3 -25.85 -28.85 -6.35 -31.05 14.85 -47.55 20.15 -65.65 20.35 -69.6 13.7 -71.2 6.2" fill="#404040" fill-rule="evenodd" stroke="none"/>
      <path d="M-71.2 6.2 Q-74.55 -8.0 -70.0 -25.0 -53.15 -31.15 -37.5 -27.6 -45.4 -20.65 -54.65 -11.45 L-71.2 6.2" fill="#595959" fill-rule="evenodd" stroke="none"/>
      <path d="M-37.5 -27.6 Q-53.15 -31.15 -70.0 -25.0 -74.55 -8.0 -71.2 6.2 -69.6 13.7 -65.65 20.35 -47.55 20.15 -31.05 14.85 -28.85 -6.35 -31.3 -25.85 -34.35 -26.9 -37.5 -27.6 Z" fill="none" stroke="#000000" stroke-linecap="round" stroke-linejoin="round" stroke-opacity="0.5019608" stroke-width="1.0"/>
      <path d="M-67.3 -10.55 Q-67.3 -15.0 -66.6 -19.35 L-66.55 -19.75 -66.4 -20.85 -65.15 -21.15 -58.1 -22.45 -54.9 -22.85 -47.3 -23.15 -46.05 -23.15 -38.1 -22.25 -38.05 -22.25 -36.55 -21.95 -35.9 -14.55 -35.8 -13.35 -35.55 -4.5 -35.55 -3.35 Q-35.65 1.4 -36.05 6.05 L-36.1 6.6 -36.6 11.1 -62.55 15.25 -63.65 12.2 -64.5 9.35 Q-65.65 5.2 -66.3 1.2 L-66.55 -0.1 Q-67.15 -4.1 -67.25 -8.05 L-67.3 -10.55" fill="url(#gradient0)" fill-rule="evenodd" stroke="none"/>
      <path d="M-66.6 -19.35 L-66.4 -19.65 -65.15 -21.15 M-67.25 -8.05 L-66.1 -9.5 -67.3 -10.55 M-66.1 -9.5 L-61.25 -15.25 -66.4 -19.65 M-66.1 -9.5 L-61.0 -5.2 -56.2 -10.95 -61.25 -15.25 -56.45 -21.0 -58.1 -22.45 M-47.3 -23.15 L-46.55 -22.5 -46.05 -23.15 M-46.3 -12.4 L-41.25 -8.1 -36.45 -13.9 -41.5 -18.2 -46.3 -12.4 -51.4 -16.7 -56.2 -10.95 -51.15 -6.65 -46.3 -12.4 M-41.5 -18.2 L-46.55 -22.5 -51.4 -16.7 -56.45 -21.0 -54.9 -22.85 M-61.0 -5.2 L-55.95 -0.9 -51.15 -6.65 -46.0 -2.35 -41.25 -8.1 -36.15 -3.8 -35.55 -4.5 M-36.15 -3.8 L-35.55 -3.35 M-35.9 -14.55 L-36.45 -13.9 -35.8 -13.35 M-38.1 -22.25 L-41.5 -18.2 M-40.4 11.7 L-35.8 6.25 -40.95 1.95 -45.75 7.7 -40.95 11.75 M-50.85 3.4 L-55.65 9.15 -50.45 13.35 -45.75 7.7 -50.85 3.4 -55.95 -0.9 -60.7 4.85 -55.65 9.15 -60.4 14.9 -63.65 12.2 M-66.3 1.2 L-65.85 0.55 -66.55 -0.1 M-60.7 4.85 L-64.5 9.35 M-61.0 -5.2 L-65.85 0.55 -60.7 4.85 M-46.0 -2.35 L-40.95 1.95 -36.15 -3.8 M-50.85 3.4 L-46.0 -2.35" fill="none" stroke="#000000" stroke-linecap="round" stroke-linejoin="round" stroke-opacity="0.3019608" stroke-width="0.5"/>
      <path d="M-67.3 -10.55 Q-67.3 -15.0 -66.6 -19.35 L-66.55 -19.75 -66.4 -20.85 -65.15 -21.15 -58.1 -22.45 -54.9 -22.85 -47.3 -23.15 -46.05 -23.15 -38.1 -22.25 -38.05 -22.25 -36.55 -21.95 -35.9 -14.55 -35.8 -13.35 -35.55 -4.5 -35.55 -3.35 Q-35.65 1.4 -36.05 6.05 L-36.1 6.6 -36.6 11.1 -62.55 15.25 -63.65 12.2 -64.5 9.35 Q-65.65 5.2 -66.3 1.2 L-66.55 -0.1 Q-67.15 -4.1 -67.25 -8.05 L-67.3 -10.55 Z" fill="none" stroke="#000000" stroke-linecap="round" stroke-linejoin="round" stroke-opacity="0.5019608" stroke-width="1.0"/>
    </g>
    <linearGradient gradientTransform="matrix(0.0199, -4.0E-4, 5.0E-4, 0.0224, -52.15, -4.9)" gradientUnits="userSpaceOnUse" id="gradient0" spreadMethod="pad" x1="-819.2" x2="819.2">
      <stop offset="0.0" stop-color="#a8a8a8"/>
      <stop offset="0.3215686274509804" stop-color="#cccccc"/>
      <stop offset="0.49411764705882355" stop-color="#cccccc"/>
      <stop offset="0.6588235294117647" stop-color="#cacaca"/>
      <stop offset="0.9803921568627451" stop-color="#9c9c9c"/>
    </linearGradient>
  </defs>
</svg>
