<?xml version="1.0" encoding="UTF-8" standalone="no"?>
<svg xmlns:xlink="http://www.w3.org/1999/xlink" height="531.5px" width="460.6px" xmlns="http://www.w3.org/2000/svg">
  <g transform="matrix(1.0, 0.0, 0.0, 1.0, 193.65, 334.05)">
    <use height="101.1" transform="matrix(0.9259, -1.2134, 1.2134, 0.9259, -94.0846, 24.85)" width="91.6" xlink:href="#sprite0"/>
    <use height="93.75" transform="matrix(1.0, 0.0, 0.0, 1.0, -69.2, -56.35)" width="64.6" xlink:href="#shape1"/>
  </g>
  <defs>
    <g id="sprite0" transform="matrix(1.0, 0.0, 0.0, 1.0, 15.0, 51.3)">
      <use height="101.1" transform="matrix(1.0, 0.0, 0.0, 1.0, -15.0, -51.3)" width="91.6" xlink:href="#shape0"/>
    </g>
    <g id="shape0" transform="matrix(1.0, 0.0, 0.0, 1.0, 15.0, 51.3)">
      <path d="M12.45 -30.9 Q9.55 -34.8 7.2 -36.85 3.6 -40.05 -3.05 -44.75 L-7.65 -47.3 -8.85 -48.1 Q-9.3 -48.45 -9.75 -48.4 L-12.25 -49.55 -12.4 -49.55 Q-11.6 -50.15 -10.4 -50.55 -8.15 -50.05 -7.2 -49.4 -1.1 -45.55 6.2 -39.25 9.6 -36.4 12.8 -32.5 L12.45 -30.9 M-4.9 -45.5 Q-1.75 -44.1 -1.75 -43.3 -1.75 -42.75 -2.45 -41.95 -3.25 -41.05 -4.1 -41.05 -4.5 -41.05 -6.3 -42.2 L-8.05 -43.35 -10.3 -44.5 Q-11.55 -45.2 -11.55 -46.15 L-11.45 -46.85 Q-11.15 -46.9 -10.95 -47.05 L-10.7 -46.15 Q-7.8 -44.75 -5.35 -42.7 -4.45 -42.5 -3.8 -42.7 -3.1 -42.85 -3.05 -43.4 -2.9 -43.9 -3.35 -44.5 L-4.9 -45.5 M19.05 -23.5 L19.35 -23.0 19.8 -22.3 Q26.0 -11.55 28.6 0.1 31.75 11.9 34.3 23.65 L34.55 24.85 33.35 26.25 33.05 26.95 32.95 27.2 32.6 25.55 32.35 24.25 32.55 24.6 33.15 25.05 33.4 24.4 33.25 23.2 32.75 22.05 Q32.5 21.6 32.25 21.65 32.05 21.7 31.95 22.15 L29.15 7.85 Q28.1 0.9 25.75 -6.0 23.4 -12.9 21.9 -15.95 L18.8 -21.3 18.8 -21.35 18.85 -21.45 19.05 -23.5" fill="#cccccc" fill-rule="evenodd" stroke="none"/>
      <path d="M-7.65 -47.3 L-3.05 -44.75 Q3.6 -40.05 7.2 -36.85 9.55 -34.8 12.45 -30.9 L12.0 -29.1 12.55 -28.1 13.05 -26.9 12.35 -23.65 11.85 -21.85 9.8 -25.05 Q5.7 -31.25 -0.6 -36.0 -1.75 -36.85 -7.9 -40.05 -14.05 -43.25 -14.25 -45.95 -14.15 -48.25 -12.4 -49.55 L-12.25 -49.55 -9.75 -48.4 -10.4 -48.2 -10.65 -47.95 Q-11.0 -47.6 -10.95 -47.05 -11.15 -46.9 -11.45 -46.85 L-11.55 -46.15 Q-11.55 -45.2 -10.3 -44.5 L-8.05 -43.35 -6.3 -42.2 Q-4.5 -41.05 -4.1 -41.05 -3.25 -41.05 -2.45 -41.95 -1.75 -42.75 -1.75 -43.3 -1.75 -44.1 -4.9 -45.5 L-7.65 -47.3 M35.65 24.0 Q37.15 23.0 39.5 22.2 45.9 19.95 54.75 20.3 63.55 20.6 69.65 23.25 74.3 25.25 75.3 27.75 L75.55 28.8 74.5 31.05 Q73.4 33.0 67.55 35.2 L65.05 35.95 66.25 34.75 Q67.9 32.9 68.15 30.85 L68.2 30.65 68.25 29.9 Q68.25 27.4 65.2 25.4 63.05 23.95 59.85 22.95 L58.0 22.95 56.9 22.8 56.1 22.75 50.55 22.75 39.85 23.65 Q37.8 23.9 36.0 25.05 L35.65 24.0 M33.6 36.85 L33.55 37.25 30.25 22.8 Q28.25 14.75 24.75 4.8 21.2 -5.2 17.55 -12.0 L16.5 -13.95 16.95 -14.95 Q18.1 -17.35 18.1 -17.85 L18.15 -18.2 17.65 -18.85 18.8 -21.35 18.8 -21.3 21.9 -15.95 Q23.4 -12.9 25.75 -6.0 28.1 0.9 29.15 7.85 L31.95 22.15 31.9 22.25 32.1 23.5 32.35 24.25 32.6 25.55 32.95 27.2 32.85 27.75 32.75 30.0 32.9 32.0 Q33.05 34.1 33.6 36.85" fill="#9d9d9d" fill-rule="evenodd" stroke="none"/>
      <path d="M12.45 -30.9 L12.8 -32.5 12.85 -32.45 Q16.05 -28.5 19.05 -23.5 L18.85 -21.45 18.8 -21.35 17.65 -18.85 18.15 -18.2 18.1 -17.85 Q18.1 -17.35 16.95 -14.95 L16.5 -13.95 11.85 -21.85 12.35 -23.65 13.05 -26.9 12.55 -28.1 12.0 -29.1 12.45 -30.9 M63.75 47.2 Q59.75 48.9 55.4 49.05 L56.75 47.5 Q58.85 44.85 59.85 42.65 L60.35 41.55 Q60.95 39.8 61.35 37.65 L61.5 36.65 63.0 36.4 Q62.6 38.0 62.45 40.8 L62.35 43.4 Q62.35 45.45 62.75 46.15 L63.75 47.2" fill="#ffffff" fill-rule="evenodd" stroke="none"/>
      <path d="M36.0 25.05 Q37.8 23.9 39.85 23.65 L50.55 22.75 56.1 22.75 56.9 22.8 58.0 22.95 59.85 22.95 Q63.05 23.95 65.2 25.4 68.25 27.4 68.25 29.9 L68.2 30.65 68.15 30.85 Q67.9 32.9 66.25 34.75 L65.05 35.95 63.0 36.4 61.5 36.65 53.3 36.95 Q44.9 36.55 38.8 33.9 35.6 32.5 34.15 30.95 L33.8 30.55 33.45 30.05 33.0 27.55 34.65 26.05 36.0 25.05 M36.35 30.45 L36.25 29.4 35.8 28.4 35.7 28.3 Q35.45 28.05 35.3 28.1 35.05 28.15 34.95 28.6 L35.0 29.05 35.1 29.7 35.5 30.65 36.1 31.05 36.35 30.45" fill="#7b7b7b" fill-rule="evenodd" stroke="none"/>
      <path d="M34.55 24.85 L35.65 24.0 36.0 25.05 34.65 26.05 33.0 27.55 33.45 30.05 Q32.85 29.0 32.9 27.85 L32.95 27.65 33.0 27.45 33.05 26.95 33.35 26.25 34.55 24.85 M75.8 30.6 L75.75 33.25 Q74.85 40.2 68.0 44.9 L63.75 47.2 62.75 46.15 Q62.35 45.45 62.35 43.4 L62.45 40.8 Q64.55 39.9 66.65 38.7 72.1 35.55 75.8 30.6 M55.4 49.05 L53.2 49.05 Q45.2 48.6 40.8 45.5 36.35 42.4 35.0 39.75 L34.75 39.3 34.65 37.95 Q37.4 40.1 39.55 40.85 43.35 42.1 46.15 42.45 L53.05 42.65 Q56.65 42.65 60.35 41.55 L59.85 42.65 Q58.85 44.85 56.75 47.5 L55.4 49.05" fill="#8c8c8c" fill-rule="evenodd" stroke="none"/>
      <path d="M75.55 28.8 L75.8 30.6 Q72.1 35.55 66.65 38.7 64.55 39.9 62.45 40.8 62.6 38.0 63.0 36.4 L65.05 35.95 67.55 35.2 Q73.4 33.0 74.5 31.05 L75.55 28.8 M34.75 39.3 L33.75 37.25 33.6 36.85 Q33.05 34.1 32.9 32.0 L32.75 30.0 32.85 27.75 32.95 27.2 33.05 26.95 33.0 27.45 32.95 27.65 32.9 27.85 Q32.85 29.0 33.45 30.05 L33.8 30.55 34.15 30.95 Q35.6 32.5 38.8 33.9 44.9 36.55 53.3 36.95 L61.5 36.65 61.35 37.65 Q60.95 39.8 60.35 41.55 56.65 42.65 53.05 42.65 L46.15 42.45 Q43.35 42.1 39.55 40.85 37.4 40.1 34.65 37.95 L34.75 39.3" fill="#a6a6a6" fill-rule="evenodd" stroke="none"/>
      <path d="M31.95 22.15 Q32.05 21.7 32.25 21.65 32.5 21.6 32.75 22.05 L33.25 23.2 33.4 24.4 33.15 25.05 32.55 24.6 32.35 24.25 32.1 23.5 31.9 22.25 31.95 22.15 M36.35 30.45 L36.1 31.05 35.5 30.65 35.1 29.7 35.0 29.05 34.95 28.6 Q35.05 28.15 35.3 28.1 35.45 28.05 35.7 28.3 L35.8 28.4 36.25 29.4 36.35 30.45" fill="#eaeaea" fill-rule="evenodd" stroke="none"/>
      <path d="M12.8 -32.5 Q9.6 -36.4 6.2 -39.25 -1.1 -45.55 -7.2 -49.4 -8.15 -50.05 -10.4 -50.55 -11.6 -50.15 -12.4 -49.55 -14.15 -48.25 -14.25 -45.95 -14.05 -43.25 -7.9 -40.05 -1.75 -36.85 -0.6 -36.0 5.7 -31.25 9.8 -25.05 L11.85 -21.85 16.5 -13.95 17.55 -12.0 Q21.2 -5.2 24.75 4.8 28.25 14.75 30.25 22.8 L33.55 37.25 33.6 36.85 33.75 37.25 34.75 39.3 35.0 39.75 Q36.35 42.4 40.8 45.5 45.2 48.6 53.2 49.05 L55.4 49.05 Q59.75 48.9 63.75 47.2 L68.0 44.9 Q74.85 40.2 75.75 33.25 L75.8 30.6 75.55 28.8 75.3 27.75 Q74.3 25.25 69.65 23.25 63.55 20.6 54.75 20.3 45.9 19.95 39.5 22.2 37.15 23.0 35.65 24.0 L34.55 24.85 34.3 23.65 Q31.75 11.9 28.6 0.1 26.0 -11.55 19.8 -22.3 L19.35 -23.0 19.05 -23.5 Q16.05 -28.5 12.85 -32.45 L12.8 -32.5 M-9.75 -48.4 Q-9.3 -48.45 -8.85 -48.1 L-7.65 -47.3 -4.9 -45.5 -3.35 -44.5 Q-2.9 -43.9 -3.05 -43.4 -3.1 -42.85 -3.8 -42.7 -4.45 -42.5 -5.35 -42.7 -7.8 -44.75 -10.7 -46.15 L-10.95 -47.05 Q-11.0 -47.6 -10.65 -47.95 L-10.4 -48.2 -9.75 -48.4 M31.95 22.15 Q32.05 21.7 32.25 21.65 32.5 21.6 32.75 22.05 L33.25 23.2 33.4 24.4 33.15 25.05 32.55 24.6 32.35 24.25 32.1 23.5 31.9 22.25 31.95 22.15 M32.95 27.2 L33.05 26.95 33.35 26.25 34.55 24.85 M65.05 35.95 L67.55 35.2 Q73.4 33.0 74.5 31.05 L75.55 28.8 M61.5 36.65 L53.3 36.95 Q44.9 36.55 38.8 33.9 35.6 32.5 34.15 30.95 L33.8 30.55 33.45 30.05 Q32.85 29.0 32.9 27.85 L32.95 27.65 33.0 27.45 33.05 26.95 M63.0 36.4 L65.05 35.95 M61.5 36.65 L63.0 36.4 M36.35 30.45 L36.1 31.05 35.5 30.65 35.1 29.7 35.0 29.05 34.95 28.6 Q35.05 28.15 35.3 28.1 35.45 28.05 35.7 28.3 L35.8 28.4 36.25 29.4 36.35 30.45 M32.95 27.2 L32.85 27.75 32.75 30.0 32.9 32.0 Q33.05 34.1 33.6 36.85" fill="none" stroke="#000000" stroke-linecap="round" stroke-linejoin="round" stroke-opacity="0.6627451" stroke-width="1.5"/>
    </g>
    <g id="shape1" transform="matrix(1.0, 0.0, 0.0, 1.0, 69.2, 56.35)">
      <path d="M-53.85 -55.6 L-53.2 -55.6 -53.45 -54.95 Q-58.0 -44.0 -59.9 -31.95 L-61.2 -23.15 Q-62.2 -16.45 -63.3 -4.9 -64.45 6.65 -63.15 15.7 -61.9 24.7 -61.1 27.7 L-60.05 31.55 Q-62.65 30.3 -63.35 26.7 -64.9 22.1 -65.7 17.1 -67.75 3.75 -66.0 -9.8 L-64.1 -22.2 -62.6 -30.4 Q-60.5 -41.6 -55.35 -51.75 -53.85 -55.2 -53.85 -55.55 L-53.85 -55.6 M-13.5 -45.0 L-9.9 -42.8 -10.45 -42.45 Q-11.95 -41.35 -12.85 -40.1 L-15.7 -35.6 Q-17.05 -33.05 -19.1 -26.7 -21.15 -20.45 -21.7 -17.45 -22.35 -14.0 -22.35 -8.9 L-22.2 -4.0 Q-22.0 -1.3 -21.5 -0.1 L-22.1 -0.2 -23.35 -0.75 -23.75 -1.1 -24.0 -3.55 -24.15 -8.8 Q-24.15 -14.3 -23.55 -18.0 -23.1 -21.25 -21.25 -27.95 -19.45 -34.8 -18.25 -37.55 -17.2 -40.05 -15.7 -42.4 -14.9 -43.75 -13.6 -44.95 L-13.5 -45.0 M-20.0 0.15 L-20.05 -0.9 -17.45 -0.55 Q-14.2 -0.15 -14.05 2.15 L-13.95 3.55 -13.7 4.8 -13.5 6.4 -13.3 8.5 -13.3 8.95 Q-13.3 9.2 -13.6 9.2 L-13.75 9.2 -15.45 9.3 -16.15 9.35 -16.8 3.1 Q-16.9 0.6 -19.8 0.15 L-20.0 0.15 M-22.6 7.5 L-23.1 8.5 Q-23.9 10.3 -24.45 13.05 L-25.1 17.15 -25.2 20.8 -25.25 22.4 -25.2 24.55 -25.25 26.45 -25.05 27.5 -25.4 27.4 -25.85 27.15 -26.25 26.7 -26.5 26.2 -26.7 25.05 -26.7 24.9 -26.7 23.15 -26.6 19.25 -26.0 14.8 Q-25.5 11.85 -24.8 9.9 -23.75 7.0 -22.6 7.4 L-22.6 7.5 M-23.95 27.7 L-23.9 24.75 -23.85 24.75 -23.85 24.5 -23.85 23.95 -23.95 22.7 -23.9 22.4 -23.9 21.45 -22.05 21.55 -22.05 27.3 -22.35 29.2 -23.15 30.35 -23.95 31.0 -23.7 27.75 -23.95 27.7 M-50.0 34.5 L-50.1 34.4 -50.75 33.6 -50.35 33.4 Q-50.1 33.75 -50.0 34.5" fill="#bdbdbd" fill-rule="evenodd" stroke="none"/>
      <path d="M-9.9 -42.8 Q-8.5 -43.75 -8.5 -42.3 -8.5 -42.8 -11.05 -39.35 L-13.0 -36.45 -9.95 -38.0 -6.75 -39.65 Q-4.6 -40.4 -4.6 -38.95 -4.6 -37.4 -14.35 -33.95 L-15.35 -31.55 -18.7 -20.8 Q-20.0 -15.95 -20.2 -10.05 L-20.1 -2.1 -17.5 -2.2 -14.45 -1.8 -13.1 -0.75 Q-12.3 0.1 -12.1 1.4 L-12.05 2.95 -12.05 6.05 Q-12.0 7.0 -12.1 7.7 L-12.35 9.55 -12.35 9.65 -13.0 10.15 -20.1 10.15 -20.2 10.2 -20.65 10.15 -21.05 9.95 -21.7 9.4 -22.85 12.05 -23.4 14.5 -23.8 17.25 -23.9 20.8 -23.65 20.85 -21.65 20.9 -20.9 20.9 -20.4 21.1 -20.3 21.5 -20.25 23.3 Q-20.1 24.4 -20.1 26.95 L-20.1 29.3 Q-20.1 30.9 -21.2 32.0 -22.5 33.3 -25.15 33.8 L-28.6 34.05 -36.0 33.65 Q-36.05 34.4 -36.25 34.95 L-36.85 35.75 -38.3 36.65 Q-40.3 37.4 -43.9 37.4 L-49.4 36.85 Q-51.3 36.3 -52.2 35.35 L-52.8 34.35 -54.15 34.45 -55.4 34.45 -57.8 34.6 Q-63.3 34.3 -65.5 28.55 L-66.1 26.7 Q-69.5 14.55 -69.2 1.9 -68.95 -10.25 -66.8 -22.2 -64.95 -32.7 -61.45 -42.75 -59.85 -47.35 -57.85 -51.75 -55.45 -56.35 -54.7 -56.35 L-54.15 -56.1 -54.1 -56.05 -53.85 -55.6 -53.85 -55.55 Q-53.85 -55.2 -55.35 -51.75 -60.5 -41.6 -62.6 -30.4 L-64.1 -22.2 -66.0 -9.8 Q-67.75 3.75 -65.7 17.1 -64.9 22.1 -63.35 26.7 -62.65 30.3 -60.05 31.55 L-57.7 32.1 -55.4 32.15 -54.3 32.15 Q-53.35 32.15 -52.9 31.8 -52.65 30.3 -51.85 30.3 -51.55 30.7 -51.45 31.6 L-51.45 31.65 -51.4 31.65 -51.1 32.8 -51.1 32.95 -50.85 33.45 -50.75 33.6 -50.1 34.4 -50.0 34.5 -47.45 35.05 -43.85 34.95 Q-39.55 34.95 -38.55 34.05 -38.35 33.85 -38.25 32.7 -38.45 31.1 -38.25 30.4 -37.95 29.3 -37.25 29.6 -36.6 29.9 -36.25 30.9 L-36.1 31.75 -36.05 31.75 -35.25 32.05 -29.6 31.8 -24.3 31.15 -23.95 31.0 -23.15 30.35 -22.35 29.2 -22.05 27.3 -22.05 21.55 -23.9 21.45 -23.9 22.4 -23.95 22.7 -23.85 23.95 -23.85 24.5 -23.85 24.75 -23.9 24.75 -23.95 27.7 -23.95 28.0 -24.5 28.2 -25.05 27.5 -25.25 26.45 -25.2 24.55 -25.25 22.4 -25.2 20.8 -25.1 17.15 -24.45 13.05 Q-23.9 10.3 -23.1 8.5 L-22.6 7.5 Q-22.05 6.55 -21.45 6.25 L-21.4 6.25 Q-20.9 6.25 -20.7 6.55 L-20.7 6.65 -20.95 7.25 -21.25 8.15 -21.05 8.75 -20.5 9.2 -19.25 9.4 -18.9 9.45 -17.8 9.45 -16.2 9.35 -16.15 9.35 -15.45 9.3 -13.75 9.2 -13.6 9.2 Q-13.3 9.2 -13.3 8.95 L-13.3 8.5 -13.5 6.4 -13.7 4.8 -13.95 3.55 -14.05 2.15 Q-14.2 -0.15 -17.45 -0.55 L-20.05 -0.9 -20.0 0.15 -20.0 0.65 Q-19.95 0.9 -20.6 0.9 -21.15 0.9 -21.5 -0.1 -22.0 -1.3 -22.2 -4.0 L-22.35 -8.9 Q-22.35 -14.0 -21.7 -17.45 -21.15 -20.45 -19.1 -26.7 -17.05 -33.05 -15.7 -35.6 L-12.85 -40.1 Q-11.95 -41.35 -10.45 -42.45 L-9.9 -42.8" fill="#000000" fill-rule="evenodd" stroke="none"/>
      <path d="M-53.2 -55.6 Q-31.6 -55.4 -13.5 -45.0 L-13.6 -44.95 Q-14.9 -43.75 -15.7 -42.4 -17.2 -40.05 -18.25 -37.55 -19.45 -34.8 -21.25 -27.95 -23.1 -21.25 -23.55 -18.0 -24.15 -14.3 -24.15 -8.8 L-24.0 -3.55 -23.75 -1.1 -23.35 -0.75 -22.1 -0.2 -21.5 -0.1 Q-21.15 0.9 -20.6 0.9 -19.95 0.9 -20.0 0.65 L-20.0 0.15 -19.8 0.15 Q-16.9 0.6 -16.8 3.1 L-16.15 9.35 -16.2 9.35 -17.8 9.45 -18.9 9.45 -19.25 9.4 -20.5 9.2 -21.05 8.75 -21.25 8.15 -20.95 7.25 -20.7 6.65 -20.7 6.55 Q-20.9 6.25 -21.4 6.25 L-21.45 6.25 Q-22.05 6.55 -22.6 7.5 L-22.6 7.4 Q-23.75 7.0 -24.8 9.9 -25.5 11.85 -26.0 14.8 L-26.6 19.25 -26.7 23.15 -26.7 24.9 -26.7 25.05 -26.5 26.2 -26.25 26.7 -25.85 27.15 -25.4 27.4 -25.05 27.5 -24.5 28.2 -23.95 28.0 -23.95 27.7 -23.7 27.75 -23.95 31.0 -24.3 31.15 -29.6 31.8 -35.25 32.05 -36.05 31.75 -36.1 31.75 -36.25 30.9 Q-36.6 29.9 -37.25 29.6 -37.95 29.3 -38.25 30.4 -38.45 31.1 -38.25 32.7 -38.35 33.85 -38.55 34.05 -39.55 34.95 -43.85 34.95 L-47.45 35.05 -50.0 34.5 Q-50.1 33.75 -50.35 33.4 L-50.75 33.6 -50.85 33.45 -51.1 32.95 -51.1 32.8 -51.4 31.65 -51.45 31.65 -51.45 31.6 Q-51.55 30.7 -51.85 30.3 -52.65 30.3 -52.9 31.8 -53.35 32.15 -54.3 32.15 L-55.4 32.15 -57.7 32.1 -60.05 31.55 -61.1 27.7 Q-61.9 24.7 -63.15 15.7 -64.45 6.65 -63.3 -4.9 -62.2 -16.45 -61.2 -23.15 L-59.9 -31.95 Q-58.0 -44.0 -53.45 -54.95 L-53.2 -55.6" fill="#999999" fill-rule="evenodd" stroke="none"/>
    </g>
  </defs>
</svg>
