<?xml version="1.0" encoding="UTF-8" standalone="no"?>
<svg xmlns:xlink="http://www.w3.org/1999/xlink" height="531.5px" width="460.6px" xmlns="http://www.w3.org/2000/svg">
  <g transform="matrix(1.0, 0.0, 0.0, 1.0, 193.65, 334.05)">
    <use height="43.3" transform="matrix(1.0, 0.0, 0.0, 1.0, -81.25, -10.15)" width="177.75" xlink:href="#shape0"/>
    <use height="0.0" transform="matrix(0.0604, 0.6756, -0.6756, 0.0604, 7.6, 14.45)" width="0.0" xlink:href="#sprite0"/>
    <use height="97.55" transform="matrix(1.0, 0.0, 0.0, 1.0, -71.1, -58.25)" width="58.2" xlink:href="#shape1"/>
  </g>
  <defs>
    <g id="shape0" transform="matrix(1.0, 0.0, 0.0, 1.0, 110.85, 31.8)">
      <path d="M3.85 -21.95 L4.05 -22.95 Q4.4 -24.2 5.0 -24.95 5.5 -25.5 6.1 -25.75 L20.7 -28.2 27.65 -29.05 34.7 -26.25 Q45.85 -21.4 52.6 -15.55 L60.1 -8.75 Q63.1 -5.8 64.95 -2.65 L65.3 -2.05 Q64.9 0.3 64.1 1.35 L63.65 1.8 61.4 2.2 60.9 1.55 26.5 3.0 Q20.7 2.7 16.7 -0.95 13.7 -3.65 11.55 -8.5 9.9 -11.95 7.8 -17.25 L5.45 -23.65 5.55 -22.1 3.95 -21.95 3.85 -21.95 M-109.85 -1.9 Q-109.8 -6.1 -108.2 -10.9 L-108.0 -11.05 -107.45 -10.65 -105.85 -9.65 -105.8 -9.15 Q-104.75 -6.75 -101.85 -7.35 L-101.25 -7.5 Q-99.6 -6.5 -98.25 -4.2 L-96.35 -1.0 -96.3 -0.35 -96.2 0.2 -96.1 0.95 -97.0 1.1 -103.45 0.8 Q-106.25 0.3 -108.95 -1.35 L-109.85 -1.9" fill="#656565" fill-rule="evenodd" stroke="none"/>
      <path d="M27.65 -29.05 L44.4 -30.5 48.65 -27.25 Q59.35 -19.55 62.6 -19.85 63.65 -19.95 64.65 -20.8 L64.9 -21.0 Q66.15 -14.55 65.85 -7.25 65.75 -4.15 65.3 -2.05 L64.95 -2.65 Q63.1 -5.8 60.1 -8.75 L52.6 -15.55 Q45.85 -21.4 34.7 -26.25 L27.65 -29.05 M-90.7 -10.45 L-87.15 -10.75 -86.55 -10.45 Q-84.2 -9.2 -82.35 -9.1 L-82.55 -4.9 -82.5 -4.55 -83.2 -5.45 Q-83.85 -6.35 -84.7 -6.9 L-86.35 -8.05 -88.1 -9.1 -90.7 -10.45 M-105.85 -9.65 L-105.75 -9.7 Q-104.15 -13.45 -100.85 -11.3 -100.3 -10.55 -100.1 -9.7 -99.6 -8.15 -101.25 -7.5 L-101.85 -7.35 Q-104.75 -6.75 -105.8 -9.15 L-105.85 -9.65" fill="#ffffff" fill-rule="evenodd" stroke="none"/>
      <path d="M61.4 2.2 Q35.75 6.55 9.0 6.35 7.0 5.7 6.0 2.2 L5.75 1.2 7.7 1.05 7.6 -0.55 7.0 -8.3 5.55 -22.1 5.45 -23.65 7.8 -17.25 Q9.9 -11.95 11.55 -8.5 13.7 -3.65 16.7 -0.95 20.7 2.7 26.5 3.0 L60.9 1.55 61.4 2.2 M7.85 3.35 L7.7 1.05 7.85 3.35" fill="#404040" fill-rule="evenodd" stroke="none"/>
      <path d="M5.75 1.2 L5.55 1.25 5.0 -0.25 3.35 -14.0 Q3.45 -17.55 3.95 -21.95 L5.55 -22.1 7.0 -8.3 7.6 -0.55 7.7 1.05 5.75 1.2" fill="#666340" fill-rule="evenodd" stroke="none"/>
      <path d="M-27.9 -17.45 L-27.85 -17.65 -27.4 -19.15 -13.6 -20.4 -9.0 -19.25 -4.15 -21.25 3.85 -21.95 3.95 -21.95 Q3.45 -17.55 3.35 -14.0 L-1.3 -15.3 -9.6 -14.25 -13.95 -15.2 -26.45 -14.8 -26.6 -16.15 -27.2 -16.1 -27.55 -16.75 -27.9 -17.45 M-26.75 -17.45 L-26.6 -16.15 -26.75 -17.45" fill="#bfbc98" fill-rule="evenodd" stroke="none"/>
      <path d="M-28.25 -16.0 L-27.9 -17.45 -27.55 -16.75 -27.2 -16.1 -28.25 -16.0 M3.35 -14.0 L5.0 -0.25 Q-7.4 0.85 -16.6 -3.25 -25.2 -7.15 -26.3 -13.6 L-26.4 -14.45 -26.45 -14.8 -13.95 -15.2 -9.6 -14.25 -1.3 -15.3 3.35 -14.0" fill="#a09e77" fill-rule="evenodd" stroke="none"/>
      <path d="M44.4 -30.5 Q52.75 -30.9 60.8 -30.75 63.25 -28.4 64.75 -21.7 L64.9 -21.0 64.65 -20.8 Q63.65 -19.95 62.6 -19.85 59.35 -19.55 48.65 -27.25 L44.4 -30.5 M-108.0 -11.05 Q-102.35 -15.75 -95.05 -11.65 L-94.15 -11.15 -94.05 -10.15 -95.7 -10.0 Q-96.7 -5.4 -96.4 -1.35 L-96.35 -1.0 -98.25 -4.2 Q-99.6 -6.5 -101.25 -7.5 -99.6 -8.15 -100.1 -9.7 -100.3 -10.55 -100.85 -11.3 -104.15 -13.45 -105.75 -9.7 L-105.85 -9.65 -107.45 -10.65 -108.0 -11.05" fill="#808080" fill-rule="evenodd" stroke="none"/>
      <path d="M5.55 1.25 L-25.3 4.0 -27.0 0.4 -25.1 0.25 Q-25.4 -6.65 -26.3 -13.6 -25.2 -7.15 -16.6 -3.25 -7.4 0.85 5.0 -0.25 L5.55 1.25 M-25.0 2.15 L-25.1 0.25 -25.0 2.15" fill="#807c51" fill-rule="evenodd" stroke="none"/>
      <path d="M-92.7 6.3 L-92.6 7.05 Q-98.6 12.9 -106.4 8.85 -109.8 4.15 -109.85 -1.9 L-108.95 -1.35 Q-106.25 0.3 -103.45 0.8 L-97.0 1.1 -96.1 0.95 Q-95.55 3.8 -94.25 6.4 L-92.7 6.3" fill="#4a4a4a" fill-rule="evenodd" stroke="none"/>
      <path d="M-94.05 -10.15 L-90.7 -10.45 -88.1 -9.1 -86.35 -8.05 -88.8 -8.2 -88.9 -8.15 -92.05 -7.85 -92.65 -7.55 Q-93.75 -7.05 -94.8 -5.8 -96.1 -4.25 -96.35 -1.95 L-96.4 -1.35 Q-96.7 -5.4 -95.7 -10.0 L-94.05 -10.15 M-87.15 -10.75 L-82.05 -11.2 -82.2 -10.3 -82.35 -9.1 Q-84.2 -9.2 -86.55 -10.45 L-87.15 -10.75 M-82.45 -2.6 Q-82.7 -4.3 -83.2 -5.45 L-82.5 -4.55 -82.5 -3.0 -82.45 -2.6" fill="#ff9e00" fill-rule="evenodd" stroke="none"/>
      <path d="M-96.35 -1.0 L-96.4 -1.35 -96.35 -1.95 Q-96.1 -4.25 -94.8 -5.8 -93.75 -7.05 -92.65 -7.55 L-92.05 -7.85 -88.9 -8.15 -88.8 -8.2 -86.35 -8.05 -84.7 -6.9 Q-83.85 -6.35 -83.2 -5.45 -82.7 -4.3 -82.45 -2.6 -82.2 0.35 -81.3 3.0 L-84.35 3.05 -89.2 2.5 -94.1 0.65 -95.3 0.1 -95.5 0.05 -95.6 0.0 -96.3 -0.35 -96.35 -1.0" fill="#e37202" fill-rule="evenodd" stroke="none"/>
      <path d="M-82.05 -11.2 L-28.45 -16.0 -28.45 -15.85 Q-31.25 -13.5 -36.1 -12.5 L-39.2 -12.05 -50.1 -10.95 -54.2 -10.6 -71.35 -9.8 -82.2 -10.3 -82.05 -11.2" fill="#b3783e" fill-rule="evenodd" stroke="none"/>
      <path d="M-32.1 -1.95 L-32.1 -2.1 -32.15 -1.95 -32.85 -1.95 -34.4 -1.55 -36.0 -1.15 -39.2 -0.65 -43.8 -0.25 -54.2 0.45 -67.85 1.05 -73.55 1.25 -78.75 0.8 Q-80.8 0.4 -82.1 -2.35 L-82.5 -3.0 -82.5 -4.55 -82.55 -4.9 -82.35 -9.1 -82.2 -10.3 -71.35 -9.8 -54.2 -10.6 -50.1 -10.95 -39.2 -12.05 -36.1 -12.5 Q-31.25 -13.5 -28.45 -15.85 L-27.7 -9.3 Q-27.3 -4.65 -29.15 -2.4 -29.5 -2.0 -30.75 -2.0 L-32.1 -1.95" fill="#895827" fill-rule="evenodd" stroke="none"/>
      <path d="M-27.0 0.4 L-30.75 0.75 -32.1 -1.95 -30.75 -2.0 Q-29.5 -2.0 -29.15 -2.4 -27.3 -4.65 -27.7 -9.3 L-28.45 -15.85 -28.45 -16.0 -28.25 -16.0 -27.2 -16.1 -26.6 -16.15 -26.45 -14.8 -26.4 -14.45 -26.3 -13.6 Q-25.4 -6.65 -25.1 0.25 L-27.0 0.4 M-32.15 -1.95 L-32.8 0.9 -80.45 5.2 -81.3 3.0 Q-82.2 0.35 -82.45 -2.6 L-82.5 -3.0 -82.1 -2.35 Q-80.8 0.4 -78.75 0.8 L-73.55 1.25 -67.85 1.05 -54.2 0.45 -43.8 -0.25 -39.2 -0.65 -36.0 -1.15 -34.4 -1.55 -32.85 -1.95 -32.15 -1.95" fill="#59330d" fill-rule="evenodd" stroke="none"/>
      <path d="M-80.45 5.2 L-92.7 6.3 -94.25 6.4 Q-95.55 3.8 -96.1 0.95 L-96.2 0.2 -96.3 -0.35 -95.6 0.0 -95.5 0.05 -95.3 0.1 -94.1 0.65 -89.2 2.5 -84.35 3.05 -81.3 3.0 -80.45 5.2" fill="#bd5100" fill-rule="evenodd" stroke="none"/>
      <path d="M3.85 -21.95 L4.05 -22.95 Q4.4 -24.2 5.0 -24.95 5.5 -25.5 6.1 -25.75 L20.7 -28.2 27.65 -29.05 44.4 -30.5 Q52.75 -30.9 60.8 -30.75 63.25 -28.4 64.75 -21.7 L64.9 -21.0 Q66.15 -14.55 65.85 -7.25 65.75 -4.15 65.3 -2.05 64.9 0.3 64.1 1.35 L63.65 1.8 61.4 2.2 Q35.75 6.55 9.0 6.35 7.0 5.7 6.0 2.2 L5.75 1.2 5.55 1.25 -25.3 4.0 -27.0 0.4 -30.75 0.75 -32.1 -1.95 -32.1 -2.1 -32.15 -1.95 -32.8 0.9 -80.45 5.2 -92.7 6.3 -92.6 7.05 Q-98.6 12.9 -106.4 8.85 -109.8 4.15 -109.85 -1.9 -109.8 -6.1 -108.2 -10.9 L-108.0 -11.05 Q-102.35 -15.75 -95.05 -11.65 L-94.15 -11.15 -94.05 -10.15 -90.7 -10.45 -87.15 -10.75 -82.05 -11.2 -28.45 -16.0 -28.25 -16.0 -27.9 -17.45 M-27.85 -17.65 L-27.4 -19.15 -13.6 -20.4 -9.0 -19.25 -4.15 -21.25 3.85 -21.95 3.95 -21.95 5.55 -22.1 5.45 -23.65 M5.55 -22.1 L7.0 -8.3 7.6 -0.55 7.7 1.05 7.85 3.35 M7.7 1.05 L5.75 1.2 M-96.35 -1.0 L-96.4 -1.35 Q-96.7 -5.4 -95.7 -10.0 L-94.05 -10.15 M-96.35 -1.0 L-96.3 -0.35 -96.2 0.2 -96.1 0.95 Q-95.55 3.8 -94.25 6.4 L-92.7 6.3 M-81.3 3.0 Q-82.2 0.35 -82.45 -2.6 L-82.5 -3.0 -82.5 -4.55 -82.55 -4.9 -82.35 -9.1 -82.2 -10.3 -82.05 -11.2 M-26.6 -16.15 L-26.75 -17.45 M-27.2 -16.1 L-26.6 -16.15 -26.45 -14.8 -26.4 -14.45 -26.3 -13.6 Q-25.4 -6.65 -25.1 0.25 L-25.0 2.15 M-28.25 -16.0 L-27.2 -16.1 M-25.1 0.25 L-27.0 0.4 M-81.3 3.0 L-80.45 5.2" fill="none" stroke="#000000" stroke-linecap="round" stroke-linejoin="round" stroke-opacity="0.6627451" stroke-width="2.0"/>
    </g>
    <g id="shape1" transform="matrix(1.0, 0.0, 0.0, 1.0, 71.1, 58.25)">
      <path d="M-53.35 -57.55 L-53.35 -57.1 -53.35 -57.05 Q-53.05 -57.55 -53.55 -56.3 L-54.95 -53.1 -58.0 -46.3 Q-61.9 -37.5 -64.1 -31.2 -66.35 -25.0 -67.9 -19.2 -68.6 -16.85 -68.8 -14.45 L-69.25 -7.8 Q-69.5 -3.55 -68.5 2.0 L-66.0 14.8 Q-64.45 22.05 -63.35 25.15 -62.35 28.0 -60.7 30.25 L-60.5 30.5 -59.0 31.9 Q-57.4 32.85 -54.9 33.2 L-54.6 33.25 -55.1 32.5 Q-56.0 31.05 -56.0 30.05 L-55.65 29.25 Q-55.4 28.9 -52.6 32.95 -49.85 37.0 -47.0 36.95 -44.2 36.85 -42.55 35.6 L-41.75 35.1 -41.2 34.8 -41.1 34.75 -41.15 34.7 -41.3 34.1 -41.35 33.8 -41.2 32.75 -40.9 32.5 -38.4 34.85 Q-36.2 36.25 -34.4 36.7 L-34.35 36.7 -32.85 36.95 -32.35 36.95 Q-30.55 36.9 -29.5 36.35 L-28.05 35.3 -27.2 34.35 -26.45 33.45 Q-25.7 32.5 -24.8 29.3 -23.95 26.1 -24.1 25.4 L-24.1 25.1 -23.9 25.1 -23.6 25.05 -23.15 24.95 -22.45 24.9 -22.4 26.05 Q-22.6 27.95 -23.5 30.8 L-24.5 33.0 -25.55 35.05 -27.05 37.1 -27.6 37.75 Q-30.0 39.2 -32.15 39.3 L-32.2 39.3 -32.4 39.3 Q-36.2 39.25 -39.05 37.05 L-39.4 36.75 Q-40.05 37.15 -41.0 37.6 -43.95 39.1 -45.65 39.1 L-45.95 39.1 Q-47.5 39.05 -48.95 38.4 -51.2 37.45 -53.2 35.1 L-53.2 35.05 -53.4 35.15 -53.85 35.25 -54.9 35.3 Q-62.3 35.3 -65.4 24.8 L-66.85 19.5 -68.1 13.85 -69.8 3.35 Q-71.1 -4.1 -71.1 -7.75 -71.1 -11.45 -69.75 -17.25 -68.4 -23.1 -60.9 -42.8 -54.05 -60.95 -53.4 -57.75 L-53.35 -57.55 M-14.05 -40.8 L-13.9 -41.2 -13.35 -40.85 -13.2 -40.7 Q-12.9 -40.3 -12.9 -39.45 -15.55 -34.45 -18.15 -28.35 -23.4 -16.25 -23.4 -10.35 L-22.9 -6.45 -22.45 -4.65 -22.35 -4.4 -20.05 -4.7 -17.7 -4.4 -16.9 -3.0 Q-15.55 -0.35 -15.0 2.65 L-14.85 3.3 Q-14.5 5.0 -14.5 5.6 -14.5 6.5 -15.1 6.75 L-17.0 7.2 -17.45 7.25 Q-19.2 7.5 -20.95 8.45 -22.75 9.35 -23.2 11.1 -23.75 12.8 -23.95 15.4 L-24.05 16.8 -24.1 17.1 -24.4 18.95 -24.55 20.6 Q-24.85 23.35 -25.5 25.0 L-25.6 25.2 -25.6 25.25 -26.05 26.05 -26.85 26.9 -26.95 26.65 -27.0 26.35 -27.15 25.45 -26.5 23.2 -25.9 20.8 -25.95 20.85 -25.8 20.0 -25.85 19.6 -25.85 17.1 -25.85 16.35 -25.85 15.45 -25.0 9.8 -24.9 9.45 -24.0 8.2 -22.9 7.35 -22.35 7.0 Q-21.05 6.25 -19.7 5.8 L-17.8 5.3 -17.15 5.2 -17.15 5.15 -16.55 4.9 Q-16.3 4.7 -16.3 4.25 L-16.7 2.7 -16.85 2.4 -17.7 -0.25 -17.75 -0.4 -18.55 -2.25 Q-19.05 -3.05 -19.75 -3.05 L-21.5 -3.0 -22.95 -3.05 -23.15 -3.6 Q-23.85 -5.0 -24.3 -7.45 L-24.8 -11.3 Q-24.8 -12.6 -24.05 -15.85 L-23.45 -18.35 Q-22.3 -22.0 -20.15 -27.0 L-14.05 -40.8" fill="#000000" fill-rule="evenodd" stroke="none"/>
      <path d="M-59.0 31.9 L-60.5 30.5 -60.7 30.25 Q-62.35 28.0 -63.35 25.15 -64.45 22.05 -66.0 14.8 L-68.5 2.0 Q-69.5 -3.55 -69.25 -7.8 L-68.8 -14.45 Q-68.6 -16.85 -67.9 -19.2 -66.35 -25.0 -64.1 -31.2 -61.9 -37.5 -58.0 -46.3 L-54.95 -53.1 -53.55 -56.3 Q-53.05 -57.55 -53.35 -57.05 L-53.35 -57.1 -53.35 -57.55 -53.15 -57.55 -52.05 -57.6 -52.1 -57.5 -53.65 -53.5 -55.75 -48.35 Q-59.35 -39.15 -61.4 -32.55 -63.5 -26.05 -64.95 -20.0 -65.65 -17.55 -65.8 -15.0 L-66.35 -8.05 Q-66.6 -3.6 -65.75 2.2 L-63.65 15.55 Q-62.35 23.15 -61.45 26.4 L-60.15 29.85 -59.0 31.9 M-23.9 25.1 L-24.1 25.1 -24.1 25.4 Q-23.95 26.1 -24.8 29.3 -25.7 32.5 -26.45 33.45 L-27.2 34.35 Q-26.85 32.3 -26.85 29.8 L-26.95 26.65 -26.85 26.9 -26.05 26.05 -25.6 25.25 -24.25 25.25 -24.25 25.2 -24.1 25.0 -24.05 25.05 -23.9 25.1 M-41.3 34.1 L-41.15 34.7 -41.1 34.75 -41.2 34.8 -41.75 35.1 -41.6 34.4 -41.6 34.35 -41.55 34.3 -41.35 34.1 -41.3 34.1 M-16.05 -43.4 L-14.05 -40.8 -20.15 -27.0 Q-22.3 -22.0 -23.45 -18.35 L-24.05 -15.85 Q-24.8 -12.6 -24.8 -11.3 L-24.3 -7.45 Q-23.85 -5.0 -23.15 -3.6 L-22.95 -3.05 -24.7 -3.1 -24.9 -3.65 Q-25.55 -5.15 -25.9 -7.7 L-26.3 -11.75 Q-26.3 -13.1 -25.55 -16.5 L-25.0 -19.1 -21.95 -28.15 -16.05 -43.4 M-21.5 -3.0 L-19.75 -3.05 Q-19.05 -3.05 -18.55 -2.25 L-17.75 -0.4 -17.7 -0.25 -16.85 2.4 -16.7 2.7 -16.3 4.25 Q-16.3 4.7 -16.55 4.9 L-17.15 5.15 -17.15 5.2 -17.8 5.3 -19.7 5.8 -20.05 5.65 -19.6 5.55 -19.6 5.5 -19.1 5.2 -18.9 4.9 -18.85 4.55 -19.25 2.9 -19.3 2.6 -20.1 -0.15 -20.1 -0.35 -20.8 -2.25 -21.5 -3.0 M-24.9 9.45 L-25.0 9.8 -25.85 15.45 -25.85 16.35 -25.85 17.1 -25.85 19.6 -25.8 20.0 -25.95 20.85 -25.9 20.8 -26.5 23.2 -27.15 25.45 -27.0 26.35 -27.3 26.35 Q-27.85 26.35 -27.95 24.55 L-27.95 21.75 -27.75 17.8 -27.25 12.95 Q-27.05 11.4 -25.45 9.9 L-24.9 9.45" fill="#bdbdbd" fill-rule="evenodd" stroke="none"/>
      <path d="M-27.2 34.35 L-28.05 35.3 -29.5 36.35 Q-30.55 36.9 -32.35 36.95 L-32.85 36.95 -34.35 36.7 -34.4 36.7 Q-36.2 36.25 -38.4 34.85 L-40.9 32.5 -41.2 32.75 -41.35 33.8 -41.3 34.1 -41.35 34.1 -41.55 34.3 -41.6 34.35 -41.6 34.4 -41.75 35.1 -42.55 35.6 Q-44.2 36.85 -47.0 36.95 -49.85 37.0 -52.6 32.95 -55.4 28.9 -55.65 29.25 L-56.0 30.05 Q-56.0 31.05 -55.1 32.5 L-54.6 33.25 -54.9 33.2 Q-57.4 32.85 -59.0 31.9 L-60.15 29.85 -61.45 26.4 Q-62.35 23.15 -63.65 15.55 L-65.75 2.2 Q-66.6 -3.6 -66.35 -8.05 L-65.8 -15.0 Q-65.65 -17.55 -64.95 -20.0 -63.5 -26.05 -61.4 -32.55 -59.35 -39.15 -55.75 -48.35 L-53.65 -53.5 -52.1 -57.5 -52.05 -57.6 Q-27.95 -57.9 -16.05 -43.4 L-21.95 -28.15 -25.0 -19.1 -25.55 -16.5 Q-26.3 -13.1 -26.3 -11.75 L-25.9 -7.7 Q-25.55 -5.15 -24.9 -3.65 L-24.7 -3.1 -22.95 -3.05 -21.5 -3.0 -20.8 -2.25 -20.1 -0.35 -20.1 -0.15 -19.3 2.6 -19.25 2.9 -18.85 4.55 -18.9 4.9 -19.1 5.2 -19.6 5.5 -19.6 5.55 -20.05 5.65 -19.7 5.8 Q-21.05 6.25 -22.35 7.0 L-22.9 7.35 -24.0 8.2 -24.9 9.45 -25.45 9.9 Q-27.05 11.4 -27.25 12.95 L-27.75 17.8 -27.95 21.75 -27.95 24.55 Q-27.85 26.35 -27.3 26.35 L-27.0 26.35 -26.95 26.65 -26.85 29.8 Q-26.85 32.3 -27.2 34.35" fill="#999999" fill-rule="evenodd" stroke="none"/>
    </g>
  </defs>
</svg>
