<?xml version="1.0" encoding="UTF-8" standalone="no"?>
<svg xmlns:xlink="http://www.w3.org/1999/xlink" height="531.5px" width="460.6px" xmlns="http://www.w3.org/2000/svg">
  <g transform="matrix(1.0, 0.0, 0.0, 1.0, 193.65, 334.05)">
    <use height="116.5" transform="matrix(1.0, 0.0, 0.0, 1.0, -46.2, -105.35)" width="161.35" xlink:href="#shape0"/>
  </g>
  <defs>
    <g id="shape0" transform="matrix(1.0, 0.0, 0.0, 1.0, 46.2, 105.35)">
      <path d="M61.25 -26.65 L62.6 -27.2 61.5 -26.4 61.25 -26.65" fill="#ffdf82" fill-rule="evenodd" stroke="none"/>
      <path d="M60.95 -26.9 L61.2 -26.65 61.25 -26.65 60.5 -26.35 60.7 -26.55 60.95 -26.9" fill="#ffbb33" fill-rule="evenodd" stroke="none"/>
      <path d="M53.35 -33.95 L55.45 -28.9 Q54.55 -28.45 54.4 -28.25 L54.3 -26.95 54.2 -25.1 51.85 -26.15 Q50.3 -26.95 49.6 -27.55 48.4 -28.6 48.85 -29.1 49.4 -29.65 50.65 -29.85 L52.55 -30.15 Q48.75 -38.7 48.15 -42.45 46.9 -51.1 52.45 -58.8 L52.55 -58.85 Q49.05 -53.9 49.8 -46.2 50.35 -40.75 52.1 -36.75 L53.35 -33.95 52.9 -30.1 53.35 -33.95 M71.05 -82.05 Q71.5 -86.3 72.25 -90.9 73.9 -100.75 75.85 -102.8 76.65 -103.75 80.8 -101.7 L85.05 -99.35 85.15 -99.25 81.3 -100.05 Q79.25 -100.05 78.0 -98.75 77.1 -97.75 75.05 -93.4 73.0 -89.2 72.4 -87.15 L71.05 -82.05 M74.7 -67.45 L73.9 -66.9 72.05 -66.85 Q68.85 -66.65 67.05 -65.75 65.15 -64.75 62.1 -63.95 L58.8 -62.95 60.05 -64.65 Q60.8 -65.5 62.2 -66.35 L63.15 -66.9 64.05 -67.3 64.7 -67.7 65.7 -68.05 68.4 -68.75 71.7 -68.65 74.7 -67.45 M53.2 -19.6 L55.05 -21.1 46.05 -5.95 45.55 -5.5 43.4 -7.3 Q42.9 -8.2 43.85 -9.55 L45.3 -11.1 49.9 -16.05 50.05 -16.2 51.35 -17.85 53.2 -19.6 M35.1 -25.9 L38.25 -26.65 41.05 -27.6 44.15 -27.5 Q42.7 -26.55 36.5 -24.0 30.55 -21.6 30.4 -21.4 30.2 -21.3 31.05 -19.45 31.7 -17.75 32.1 -17.35 L31.9 -17.4 29.4 -18.5 Q27.35 -19.05 26.35 -17.95 25.25 -16.8 28.8 -9.4 32.25 -2.3 34.15 -0.65 L32.75 -1.7 Q30.5 -3.65 27.8 -7.15 25.55 -10.0 24.65 -11.6 23.6 -13.3 22.25 -17.2 21.35 -19.7 21.25 -20.75 23.3 -22.2 26.1 -23.15 L31.6 -25.0 35.1 -25.9" fill="#ffffff" fill-rule="evenodd" stroke="none"/>
      <path d="M31.95 -0.2 Q21.85 -9.2 19.1 -23.25 19.8 -24.7 22.7 -25.3 36.45 -26.8 49.15 -33.15 46.25 -38.35 46.35 -44.9 46.45 -54.25 52.35 -61.0 55.65 -64.5 60.05 -67.2 L62.3 -68.45 Q64.4 -69.3 67.65 -70.15 L69.25 -70.5 Q66.55 -87.15 73.45 -104.55 78.95 -106.15 89.6 -99.45 L91.2 -97.45 Q94.05 -93.25 93.95 -89.15 93.95 -86.35 88.5 -80.1 83.3 -74.25 81.25 -71.6 L82.4 -70.95 82.8 -70.7 82.85 -70.55 Q82.95 -70.2 82.5 -69.7 L82.0 -69.65 Q81.5 -69.85 80.75 -69.0 81.35 -67.4 81.55 -65.8 L80.9 -67.1 81.55 -65.8 81.75 -63.05 81.65 -62.1 Q76.4 -64.5 70.6 -62.8 L68.15 -61.85 Q63.85 -58.7 61.8 -56.5 55.55 -49.75 55.65 -40.25 55.8 -31.6 60.95 -26.9 L60.7 -26.55 60.5 -26.35 Q58.9 -24.95 55.05 -23.65 L53.1 -23.15 54.5 -22.65 57.55 -22.35 60.15 -22.6 Q59.35 -17.15 56.95 -8.75 53.65 3.0 50.55 6.3 49.1 7.85 41.85 7.15 L39.05 6.8 Q35.3 5.0 31.75 2.2 L31.95 -0.2 35.25 2.5 31.95 -0.2 M53.35 -33.95 L52.1 -36.75 Q50.35 -40.75 49.8 -46.2 49.05 -53.9 52.55 -58.85 L52.45 -58.8 Q46.9 -51.1 48.15 -42.45 48.75 -38.7 52.55 -30.15 L50.65 -29.85 Q49.4 -29.65 48.85 -29.1 48.4 -28.6 49.6 -27.55 50.3 -26.95 51.85 -26.15 L54.2 -25.1 54.3 -26.95 54.4 -28.25 Q54.55 -28.45 55.45 -28.9 L53.35 -33.95 M51.25 -30.25 L49.85 -32.0 49.15 -33.15 49.85 -32.0 51.25 -30.25 M71.05 -82.05 L72.4 -87.15 Q73.0 -89.2 75.05 -93.4 77.1 -97.75 78.0 -98.75 79.25 -100.05 81.3 -100.05 L85.15 -99.25 85.05 -99.35 80.8 -101.7 Q76.65 -103.75 75.85 -102.8 73.9 -100.75 72.25 -90.9 71.5 -86.3 71.05 -82.05 M81.4 -84.6 L79.25 -72.45 Q76.4 -73.4 75.15 -72.05 L74.2 -70.75 69.25 -70.5 74.2 -70.75 75.15 -72.05 Q76.4 -73.4 79.25 -72.45 L81.4 -84.6 M73.9 -66.9 L74.7 -67.45 76.15 -68.55 74.7 -67.45 71.7 -68.65 68.4 -68.75 65.7 -68.05 64.7 -67.7 64.05 -67.3 63.15 -66.9 62.2 -66.35 Q60.8 -65.5 60.05 -64.65 L58.8 -62.95 62.1 -63.95 Q65.15 -64.75 67.05 -65.75 68.85 -66.65 72.05 -66.85 L73.9 -66.9 70.95 -64.7 73.9 -66.9 M79.25 -72.45 L80.0 -72.15 81.25 -71.6 80.0 -72.15 79.25 -72.45 M78.95 -69.75 Q76.65 -70.55 74.2 -70.75 76.65 -70.55 78.95 -69.75 M49.85 -32.0 L49.3 -31.75 47.7 -30.45 Q46.65 -29.25 47.25 -27.75 47.95 -26.2 49.85 -24.8 51.35 -23.85 53.1 -23.15 51.35 -23.85 49.85 -24.8 47.95 -26.2 47.25 -27.75 46.65 -29.25 47.7 -30.45 L49.3 -31.75 49.85 -32.0 M53.2 -19.6 L51.35 -17.85 50.05 -16.2 49.9 -16.05 45.3 -11.1 43.85 -9.55 Q42.9 -8.2 43.4 -7.3 L45.55 -5.5 46.05 -5.95 55.05 -21.1 53.2 -19.6 M58.05 -25.55 L60.5 -26.35 58.05 -25.55 M35.1 -25.9 L31.6 -25.0 26.1 -23.15 Q23.3 -22.2 21.25 -20.75 21.35 -19.7 22.25 -17.2 23.6 -13.3 24.65 -11.6 25.55 -10.0 27.8 -7.15 30.5 -3.65 32.75 -1.7 L34.15 -0.65 Q32.25 -2.3 28.8 -9.4 25.25 -16.8 26.35 -17.95 27.35 -19.05 29.4 -18.5 L31.9 -17.4 32.1 -17.35 Q31.7 -17.75 31.05 -19.45 30.2 -21.3 30.4 -21.4 30.55 -21.6 36.5 -24.0 42.7 -26.55 44.15 -27.5 L41.05 -27.6 38.25 -26.65 35.1 -25.9 M37.95 -6.8 Q33.85 -9.4 30.35 -13.0 33.85 -9.4 37.95 -6.8 M47.85 -15.5 L54.5 -22.65 47.85 -15.5 M47.85 -2.35 Q44.65 -3.35 41.7 -4.75 44.65 -3.35 47.85 -2.35" fill="#0074ff" fill-rule="evenodd" stroke="none"/>
      <path d="M81.25 -71.6 Q83.3 -74.25 88.5 -80.1 93.95 -86.35 93.95 -89.15 94.05 -93.25 91.2 -97.45 L89.6 -99.45 91.0 -98.55 Q92.8 -99.95 96.55 -99.25 114.0 -87.65 114.65 -71.35 103.7 -64.75 90.1 -59.45 92.6 -54.1 91.05 -47.45 L90.65 -45.8 90.65 -46.1 Q91.9 -54.25 86.1 -59.2 84.0 -61.05 81.65 -62.1 L81.75 -63.05 81.55 -65.8 Q81.35 -67.4 80.75 -69.0 81.5 -69.85 82.0 -69.65 L82.5 -69.7 Q82.95 -70.2 82.85 -70.55 L82.8 -70.7 82.4 -70.95 81.25 -71.6 M93.3 -69.3 L86.05 -65.1 85.0 -66.05 85.45 -67.65 Q85.5 -68.55 84.35 -69.5 L82.8 -70.7 84.35 -69.5 Q85.5 -68.55 85.45 -67.65 L85.0 -66.05 86.05 -65.1 93.3 -69.3 M97.45 -93.9 L91.0 -98.55 97.45 -93.9 M82.4 -64.1 L81.55 -65.8 82.4 -64.1 M85.0 -66.05 L84.5 -66.5 Q83.0 -67.75 81.35 -68.6 83.0 -67.75 84.5 -66.5 L85.0 -66.05 M99.5 -80.65 L95.5 -77.5 99.5 -80.65 M93.7 -76.1 L90.0 -73.2 93.7 -76.1 M86.05 -65.1 Q88.75 -62.5 90.1 -59.45 88.75 -62.5 86.05 -65.1 M53.1 -23.15 L55.05 -23.65 Q58.9 -24.95 60.5 -26.35 L61.25 -26.65 61.5 -26.4 Q66.2 -22.7 73.15 -25.0 73.35 -25.05 73.65 -25.25 L73.3 -24.95 Q70.65 -23.8 67.4 -23.6 L63.65 -23.65 62.9 -23.8 62.6 -23.85 Q61.8 -23.25 60.95 -22.95 L60.15 -22.6 60.95 -22.95 Q61.8 -23.25 62.6 -23.85 L60.85 -24.0 62.6 -23.85 62.9 -23.8 63.65 -23.65 67.4 -23.6 69.35 3.75 62.6 6.0 62.45 9.8 Q50.25 12.45 39.05 6.8 L41.85 7.15 Q49.1 7.85 50.55 6.3 53.65 3.0 56.95 -8.75 59.35 -17.15 60.15 -22.6 L57.55 -22.35 54.5 -22.65 53.1 -23.15 M60.2 -19.0 L60.95 -22.95 60.2 -19.0 M63.1 -11.2 L62.6 6.0 63.1 -11.2" fill="#005aeb" fill-rule="evenodd" stroke="none"/>
      <path d="M60.95 -26.9 Q55.8 -31.6 55.65 -40.25 55.55 -49.75 61.8 -56.5 63.85 -58.7 68.15 -61.85 L70.6 -62.8 Q76.4 -64.5 81.65 -62.1 L80.3 -55.65 Q77.95 -56.4 75.5 -56.2 70.75 -55.7 67.55 -52.3 L65.45 -49.5 Q62.4 -45.6 62.95 -40.45 63.45 -35.0 67.2 -31.75 L67.9 -31.25 64.6 -28.75 62.6 -27.2 61.25 -26.65 61.2 -26.65 60.95 -26.9" fill="#82bbff" fill-rule="evenodd" stroke="none"/>
      <path d="M80.3 -55.65 L78.4 -48.65 Q75.1 -38.8 69.2 -32.45 L67.9 -31.25 67.2 -31.75 Q63.45 -35.0 62.95 -40.45 62.4 -45.6 65.45 -49.5 L67.55 -52.3 Q70.75 -55.7 75.5 -56.2 77.95 -56.4 80.3 -55.65" fill="#ccdaff" fill-rule="evenodd" stroke="none"/>
      <path d="M80.3 -55.65 Q82.75 -54.9 85.0 -52.95 89.45 -49.1 90.0 -44.5 L90.1 -43.9 Q87.85 -37.5 83.35 -32.8 L81.15 -30.7 Q79.05 -29.8 76.65 -29.45 71.45 -28.7 67.9 -31.25 L69.2 -32.45 Q75.1 -38.8 78.4 -48.65 L80.3 -55.65" fill="#c0d2f0" fill-rule="evenodd" stroke="none"/>
      <path d="M81.65 -62.1 Q84.0 -61.05 86.1 -59.2 91.9 -54.25 90.65 -46.1 L90.65 -45.8 90.1 -43.9 90.0 -44.5 Q89.45 -49.1 85.0 -52.95 82.75 -54.9 80.3 -55.65 L81.65 -62.1 M67.9 -31.25 Q71.45 -28.7 76.65 -29.45 79.05 -29.8 81.15 -30.7 76.95 -26.8 73.65 -25.25 73.35 -25.05 73.15 -25.0 66.2 -22.7 61.5 -26.4 L62.6 -27.2 64.6 -28.75 67.9 -31.25 M68.1 -30.0 Q65.65 -28.4 62.6 -27.2 65.65 -28.4 68.1 -30.0" fill="#78aded" fill-rule="evenodd" stroke="none"/>
      <path d="M49.15 -33.15 Q36.45 -26.8 22.7 -25.3 19.8 -24.7 19.1 -23.25 21.85 -9.2 31.95 -0.2 L35.25 2.5 M53.35 -33.95 L52.9 -30.1 M69.25 -70.5 L67.65 -70.15 Q64.4 -69.3 62.3 -68.45 L60.05 -67.2 Q55.65 -64.5 52.35 -61.0 46.45 -54.25 46.35 -44.9 46.25 -38.35 49.15 -33.15 L49.85 -32.0 51.25 -30.25 M81.25 -71.6 L82.4 -70.95 M82.8 -70.7 L84.35 -69.5 Q85.5 -68.55 85.45 -67.65 L85.0 -66.05 86.05 -65.1 93.3 -69.3 M90.1 -59.45 Q103.7 -64.75 114.65 -71.35 114.0 -87.65 96.55 -99.25 92.8 -99.95 91.0 -98.55 L97.45 -93.9 M91.0 -98.55 L89.6 -99.45 Q78.95 -106.15 73.45 -104.55 66.55 -87.15 69.25 -70.5 L74.2 -70.75 75.15 -72.05 Q76.4 -73.4 79.25 -72.45 L81.4 -84.6 M74.7 -67.45 L73.9 -66.9 70.95 -64.7 M74.7 -67.45 L76.15 -68.55 M81.25 -71.6 L80.0 -72.15 79.25 -72.45 M81.55 -65.8 L82.4 -64.1 M74.2 -70.75 Q76.65 -70.55 78.95 -69.75 M81.35 -68.6 Q83.0 -67.75 84.5 -66.5 L85.0 -66.05 M81.55 -65.8 L80.9 -67.1 M90.65 -45.8 L91.05 -47.45 Q92.6 -54.1 90.1 -59.45 88.75 -62.5 86.05 -65.1 M90.0 -73.2 L93.7 -76.1 M95.5 -77.5 L99.5 -80.65 M90.1 -43.9 L90.65 -45.8 M81.15 -30.7 L83.35 -32.8 Q87.85 -37.5 90.1 -43.9 M62.6 -27.2 Q65.65 -28.4 68.1 -30.0 M53.1 -23.15 Q51.35 -23.85 49.85 -24.8 47.95 -26.2 47.25 -27.75 46.65 -29.25 47.7 -30.45 L49.3 -31.75 49.85 -32.0 M53.1 -23.15 L54.5 -22.65 57.55 -22.35 60.15 -22.6 60.95 -22.95 Q61.8 -23.25 62.6 -23.85 L60.85 -24.0 M60.5 -26.35 L61.25 -26.65 62.6 -27.2 M73.65 -25.25 Q76.95 -26.8 81.15 -30.7 M60.5 -26.35 L58.05 -25.55 M67.4 -23.6 L63.65 -23.65 62.9 -23.8 62.6 -23.85 M67.4 -23.6 Q70.65 -23.8 73.3 -24.95 L73.65 -25.25 M60.95 -22.95 L60.2 -19.0 M30.35 -13.0 Q33.85 -9.4 37.95 -6.8 M31.95 -0.2 L31.75 2.2 Q35.3 5.0 39.05 6.8 50.25 12.45 62.45 9.8 L62.6 6.0 63.1 -11.2 M62.6 6.0 L69.35 3.75 67.4 -23.6 M41.7 -4.75 Q44.65 -3.35 47.85 -2.35 M54.5 -22.65 L47.85 -15.5" fill="none" stroke="#000000" stroke-linecap="round" stroke-linejoin="round" stroke-opacity="0.6627451" stroke-width="1.0"/>
      <path d="M-27.25 -60.25 Q-28.0 -61.2 -27.9 -62.3 L-27.5 -62.45 -24.75 -61.05 -24.25 -60.75 -18.25 -57.4 Q-8.2 -52.15 -1.15 -52.2 6.0 -52.25 11.7 -53.55 L19.15 -55.45 Q21.15 -55.8 22.35 -56.3 23.4 -56.8 23.85 -57.45 L24.1 -59.7 24.1 -59.75 Q24.4 -62.95 30.2 -64.8 33.25 -65.85 34.75 -65.4 L34.8 -65.35 Q35.8 -65.0 35.95 -63.85 L38.3 -59.95 Q40.3 -56.35 41.4 -56.35 L49.8 -58.0 Q56.05 -59.45 61.25 -59.9 L61.6 -59.9 63.0 -60.05 Q68.85 -60.45 70.75 -58.15 72.25 -56.3 72.3 -50.55 72.3 -49.7 71.8 -48.9 L70.7 -47.7 70.35 -47.4 Q69.15 -46.45 67.45 -45.65 L63.9 -44.55 60.6 -43.25 60.55 -43.2 Q63.35 -43.45 66.0 -44.3 L71.05 -45.8 71.25 -45.75 72.4 -46.05 72.45 -46.05 72.95 -46.2 73.65 -46.15 74.75 -46.15 75.0 -46.0 75.35 -45.8 76.0 -45.15 76.0 -45.2 Q76.65 -45.7 77.35 -46.0 L81.4 -45.6 84.3 -44.9 Q80.5 -47.4 81.5 -52.7 L82.0 -55.1 82.7 -56.8 83.3 -57.4 Q84.85 -58.65 86.4 -59.4 L86.8 -59.5 88.55 -59.45 91.75 -58.9 Q93.65 -58.45 97.25 -57.0 L98.45 -56.55 Q105.95 -53.65 107.4 -51.6 108.1 -50.7 107.9 -49.5 L107.35 -47.1 106.3 -42.8 Q105.8 -41.65 104.9 -41.3 L104.1 -41.1 104.15 -40.75 104.25 -39.35 104.15 -37.2 103.4 -34.35 Q102.95 -32.3 102.15 -31.2 103.7 -30.75 104.5 -29.4 105.05 -28.45 105.15 -26.7 L104.9 -24.0 104.5 -20.95 Q103.5 -17.05 101.9 -16.1 L98.5 -15.6 97.45 -15.5 90.75 -15.9 83.15 -17.75 Q79.75 -18.7 78.35 -19.9 77.35 -20.85 77.25 -22.45 L78.15 -28.6 Q78.3 -29.95 78.8 -31.65 L78.85 -31.8 77.8 -32.1 76.05 -32.75 74.2 -31.9 Q72.45 -31.15 68.9 -30.1 64.65 -28.85 63.0 -28.8 L63.05 -28.4 Q63.5 -27.65 65.65 -27.65 L69.65 -27.45 70.2 -27.5 74.1 -27.15 Q74.9 -26.7 75.0 -26.0 L75.05 -24.35 Q74.95 -20.95 73.65 -17.7 L73.2 -16.15 Q72.7 -13.4 69.0 -13.35 L64.4 -14.0 60.0 -15.05 52.9 -16.75 48.6 -15.45 Q44.1 -14.05 42.0 -13.6 L36.5 -12.7 30.9 -11.85 9.35 -8.4 5.6 -8.35 Q-7.35 -8.2 -15.75 -9.55 -27.4 -11.35 -34.65 -16.2 L-40.75 -19.65 -41.9 -20.3 Q-44.4 -22.0 -45.4 -23.3 -46.15 -24.1 -46.2 -24.8 L-46.1 -25.5 -46.05 -25.55 -45.45 -25.05 -41.85 -22.5 Q-32.1 -16.25 -20.0 -13.8 -5.3 -10.75 4.75 -11.2 L7.5 -11.35 9.3 -11.35 Q20.25 -11.75 30.95 -14.15 L36.5 -15.35 48.9 -17.95 50.25 -18.9 52.35 -19.1 54.7 -19.0 56.45 -18.6 59.45 -17.85 60.85 -17.45 64.6 -16.6 65.95 -16.3 68.55 -15.85 Q69.25 -15.85 69.85 -16.15 71.6 -19.2 72.4 -22.7 L72.75 -24.35 72.75 -25.0 72.65 -25.25 69.45 -25.1 64.2 -25.6 63.3 -25.85 62.8 -26.0 61.75 -26.6 Q60.8 -27.35 60.85 -28.0 60.8 -28.85 61.0 -29.4 L61.0 -29.7 Q60.95 -30.65 64.25 -31.65 L69.5 -33.15 72.85 -34.45 73.65 -34.75 75.15 -35.3 75.75 -35.8 Q76.2 -36.45 76.2 -37.55 L76.3 -38.3 Q76.25 -39.75 75.75 -40.65 L75.65 -40.85 75.45 -41.3 74.85 -42.2 74.5 -42.7 74.25 -42.9 73.7 -43.05 73.55 -43.0 73.5 -43.15 71.7 -42.75 66.7 -41.2 66.1 -41.0 Q60.6 -39.25 59.2 -39.25 L58.75 -39.25 58.5 -39.35 56.25 -40.15 55.9 -40.3 Q55.3 -40.75 55.3 -41.7 55.3 -43.4 57.45 -44.5 58.5 -45.05 62.3 -46.25 65.15 -47.2 66.85 -48.35 69.2 -50.0 69.25 -52.2 L69.3 -53.0 Q69.3 -53.95 68.7 -55.5 67.85 -57.35 66.9 -57.4 L63.6 -57.25 62.65 -57.15 Q57.25 -56.75 51.8 -55.45 45.6 -53.95 42.7 -53.7 L41.6 -53.6 Q38.25 -53.6 37.1 -55.4 36.5 -56.45 36.0 -58.45 L34.45 -61.15 34.1 -61.8 34.05 -61.8 33.55 -62.3 33.2 -62.3 31.8 -62.1 29.15 -61.2 28.1 -60.55 27.8 -60.4 Q27.5 -60.1 27.5 -59.6 L27.55 -58.1 27.5 -57.45 Q27.35 -56.15 24.7 -54.0 22.15 -51.9 11.85 -50.15 L10.0 -49.85 -2.65 -49.3 Q-6.9 -50.15 -12.05 -51.55 -17.15 -53.0 -19.45 -54.9 L-23.6 -57.25 -25.35 -58.6 -26.1 -59.1 -27.25 -60.25 M97.95 -41.3 L94.6 -41.85 89.8 -42.85 88.65 -42.85 84.75 -43.3 79.15 -43.65 77.55 -43.35 77.25 -43.05 77.2 -43.05 77.2 -34.65 78.2 -34.35 79.7 -33.95 Q82.9 -33.15 89.15 -32.6 L96.3 -32.15 96.75 -32.2 Q99.8 -32.35 100.35 -33.0 100.65 -33.35 101.6 -37.2 L101.65 -39.95 101.85 -40.95 97.95 -41.3 M99.1 -29.65 L98.55 -29.8 96.9 -29.7 89.9 -30.1 82.85 -30.75 80.5 -31.35 Q80.2 -31.05 80.2 -30.6 L79.7 -27.85 79.2 -25.15 Q78.9 -23.5 78.95 -22.5 79.0 -21.45 81.25 -20.6 83.3 -19.8 86.45 -19.4 L90.4 -18.4 98.2 -17.9 98.3 -17.9 Q101.25 -18.05 101.8 -18.6 102.3 -19.05 103.0 -22.45 L103.35 -26.65 Q103.2 -29.1 100.45 -29.45 L99.1 -29.65 M100.85 -53.1 L98.15 -53.9 91.05 -56.5 87.1 -57.45 86.55 -57.2 86.2 -56.95 85.25 -56.05 84.2 -54.4 Q83.95 -54.1 83.7 -52.8 83.35 -51.45 83.3 -50.45 83.25 -49.55 84.05 -48.5 86.3 -45.65 97.35 -43.65 L100.1 -43.25 103.1 -43.1 Q104.7 -43.65 105.4 -47.4 106.15 -51.45 104.3 -52.05 L100.85 -53.1" fill="#000000" fill-rule="evenodd" stroke="none"/>
      <path d="M-27.25 -60.25 L-26.1 -59.1 -25.35 -58.6 -23.6 -57.25 -19.45 -54.9 Q-17.15 -53.0 -12.05 -51.55 -6.9 -50.15 -2.65 -49.3 L10.0 -49.85 7.85 -49.45 Q-1.75 -47.85 -5.6 -48.7 L-14.35 -50.85 Q-19.15 -52.25 -21.25 -53.95 L-25.1 -56.15 -26.75 -57.45 -27.45 -57.95 -29.15 -58.9 -27.25 -60.25 M28.1 -60.55 L29.15 -61.2 31.8 -62.1 33.2 -62.3 33.55 -62.3 34.05 -61.8 34.1 -61.8 34.45 -61.15 36.0 -58.45 Q36.5 -56.45 37.1 -55.4 38.25 -53.6 41.6 -53.6 L42.7 -53.7 Q37.5 -52.55 35.4 -52.5 32.3 -52.55 31.25 -54.2 30.75 -55.2 30.3 -57.05 L28.85 -59.6 28.5 -60.2 28.45 -60.2 28.1 -60.55 M62.65 -57.15 L63.6 -57.25 66.9 -57.4 Q67.85 -57.35 68.7 -55.5 69.3 -53.95 69.3 -53.0 L69.25 -52.2 Q69.2 -50.0 66.85 -48.35 65.15 -47.2 62.3 -46.25 58.5 -45.05 57.45 -44.5 55.3 -43.4 55.3 -41.7 55.3 -40.75 55.9 -40.3 L56.25 -40.15 Q52.7 -39.1 51.65 -39.1 L51.25 -39.1 51.0 -39.2 50.95 -39.2 50.8 -40.2 Q50.9 -43.1 57.35 -45.65 63.8 -48.1 63.9 -51.25 63.95 -53.1 62.85 -56.55 L62.65 -57.15 M66.7 -41.2 L71.7 -42.75 73.5 -43.15 73.55 -43.0 73.7 -43.05 74.25 -42.9 74.5 -42.7 74.85 -42.2 75.45 -41.3 75.65 -40.85 75.75 -40.65 Q76.25 -39.75 76.3 -38.3 L76.2 -37.55 Q76.2 -36.45 75.75 -35.8 L75.15 -35.3 73.65 -34.75 72.85 -34.45 69.5 -33.15 64.25 -31.65 Q60.95 -30.65 61.0 -29.7 L61.0 -29.4 Q60.8 -28.85 60.85 -28.0 60.8 -27.35 61.75 -26.6 L62.8 -26.0 61.2 -26.0 Q57.35 -26.0 55.45 -26.7 54.7 -26.8 54.0 -27.35 53.2 -28.05 53.2 -28.65 53.15 -29.45 53.35 -29.95 L53.35 -30.25 Q53.3 -31.15 56.35 -32.05 60.0 -33.0 61.2 -33.5 L64.4 -34.65 66.5 -35.4 Q67.5 -35.95 67.5 -37.45 L67.6 -38.15 Q67.55 -39.65 66.95 -40.55 L66.8 -41.0 66.7 -41.2 M64.2 -25.6 L69.45 -25.1 72.65 -25.25 72.75 -25.0 72.75 -24.35 72.4 -22.7 Q71.6 -19.2 69.85 -16.15 69.25 -15.85 68.55 -15.85 L65.95 -16.3 64.6 -16.6 60.85 -17.45 61.45 -17.6 Q63.15 -20.45 63.9 -23.7 L64.2 -25.25 64.2 -25.6 M52.35 -19.1 L50.25 -18.9 48.9 -17.95 36.5 -15.35 30.95 -14.15 Q20.25 -11.75 9.3 -11.35 L7.5 -11.35 4.75 -11.2 Q-5.3 -10.75 -20.0 -13.8 -32.1 -16.25 -41.85 -22.5 L-45.45 -25.05 -45.55 -25.85 -45.65 -26.35 -42.15 -24.0 Q-33.15 -18.15 -21.9 -15.85 -8.3 -13.0 1.0 -13.35 L3.65 -13.45 5.35 -13.45 Q15.45 -13.75 25.4 -15.95 L30.5 -17.05 42.05 -19.4 Q42.9 -20.05 44.4 -19.95 L47.4 -20.4 49.05 -20.0 51.85 -19.25 52.35 -19.1 M97.95 -41.3 L101.85 -40.95 101.65 -39.95 101.6 -37.2 Q100.65 -33.35 100.35 -33.0 99.8 -32.35 96.75 -32.2 L96.3 -32.15 Q96.2 -33.75 96.95 -36.75 L97.95 -41.3 M98.2 -17.9 L98.8 -20.25 99.75 -24.1 Q99.95 -25.2 99.8 -27.25 99.7 -28.65 99.1 -29.65 L100.45 -29.45 Q103.2 -29.1 103.35 -26.65 L103.0 -22.45 Q102.3 -19.05 101.8 -18.6 101.25 -18.05 98.3 -17.9 L98.2 -17.9 M100.1 -43.25 L101.65 -43.85 Q102.6 -45.0 102.7 -46.15 L102.55 -48.55 Q102.4 -50.75 100.85 -53.1 L104.3 -52.05 Q106.15 -51.45 105.4 -47.4 104.7 -43.65 103.1 -43.1 L100.1 -43.25" fill="#bdbdbd" fill-rule="evenodd" stroke="none"/>
      <path d="M10.0 -49.85 L11.85 -50.15 Q22.15 -51.9 24.7 -54.0 27.35 -56.15 27.5 -57.45 L27.55 -58.1 27.5 -59.6 Q27.5 -60.1 27.8 -60.4 L28.1 -60.55 28.45 -60.2 28.5 -60.2 28.85 -59.6 30.3 -57.05 Q30.75 -55.2 31.25 -54.2 32.3 -52.55 35.4 -52.5 37.5 -52.55 42.7 -53.7 45.6 -53.95 51.8 -55.45 57.25 -56.75 62.65 -57.15 L62.85 -56.55 Q63.95 -53.1 63.9 -51.25 63.8 -48.1 57.35 -45.65 50.9 -43.1 50.8 -40.2 L50.95 -39.2 51.0 -39.2 51.25 -39.1 51.65 -39.1 Q52.7 -39.1 56.25 -40.15 L58.5 -39.35 58.75 -39.25 59.2 -39.25 Q60.6 -39.25 66.1 -41.0 L66.7 -41.2 66.8 -41.0 66.95 -40.55 Q67.55 -39.65 67.6 -38.15 L67.5 -37.45 Q67.5 -35.95 66.5 -35.4 L64.4 -34.65 61.2 -33.5 Q60.0 -33.0 56.35 -32.05 53.3 -31.15 53.35 -30.25 L53.35 -29.95 Q53.15 -29.45 53.2 -28.65 53.2 -28.05 54.0 -27.35 54.7 -26.8 55.45 -26.7 57.35 -26.0 61.2 -26.0 L62.8 -26.0 63.3 -25.85 64.2 -25.6 64.2 -25.25 63.9 -23.7 Q63.15 -20.45 61.45 -17.6 L60.85 -17.45 59.45 -17.85 56.45 -18.6 54.7 -19.0 52.35 -19.1 51.85 -19.25 49.05 -20.0 47.4 -20.4 44.4 -19.95 Q42.9 -20.05 42.05 -19.4 L30.5 -17.05 25.4 -15.95 Q15.45 -13.75 5.35 -13.45 L3.65 -13.45 1.0 -13.35 Q-8.3 -13.0 -21.9 -15.85 -33.15 -18.15 -42.15 -24.0 L-45.65 -26.35 -45.85 -28.25 Q-45.9 -33.15 -44.05 -38.45 -42.4 -43.55 -39.5 -47.65 -36.85 -51.45 -33.6 -54.8 -31.2 -57.4 -29.15 -58.9 L-27.45 -57.95 -26.75 -57.45 -25.1 -56.15 -21.25 -53.95 Q-19.15 -52.25 -14.35 -50.85 L-5.6 -48.7 Q-1.75 -47.85 7.85 -49.45 L10.0 -49.85 M96.3 -32.15 L89.15 -32.6 Q82.9 -33.15 79.7 -33.95 L78.2 -34.35 77.2 -34.65 77.2 -43.05 77.25 -43.05 77.55 -43.35 79.15 -43.65 84.75 -43.3 88.65 -42.85 89.8 -42.85 94.6 -41.85 97.95 -41.3 96.95 -36.75 Q96.2 -33.75 96.3 -32.15 M98.2 -17.9 L90.4 -18.4 86.45 -19.4 Q83.3 -19.8 81.25 -20.6 79.0 -21.45 78.95 -22.5 78.9 -23.5 79.2 -25.15 L79.7 -27.85 80.2 -30.6 Q80.2 -31.05 80.5 -31.35 L82.85 -30.75 89.9 -30.1 96.9 -29.7 98.55 -29.8 99.1 -29.65 Q99.7 -28.65 99.8 -27.25 99.95 -25.2 99.75 -24.1 L98.8 -20.25 98.2 -17.9 M100.1 -43.25 L97.35 -43.65 Q86.3 -45.65 84.05 -48.5 83.25 -49.55 83.3 -50.45 83.35 -51.45 83.7 -52.8 83.95 -54.1 84.2 -54.4 L85.25 -56.05 86.2 -56.95 86.55 -57.2 87.1 -57.45 91.05 -56.5 98.15 -53.9 100.85 -53.1 Q102.4 -50.75 102.55 -48.55 L102.7 -46.15 Q102.6 -45.0 101.65 -43.85 L100.1 -43.25" fill="#999999" fill-rule="evenodd" stroke="none"/>
    </g>
  </defs>
</svg>
