<?xml version="1.0" encoding="UTF-8" standalone="no"?>
<svg xmlns:xlink="http://www.w3.org/1999/xlink" height="531.5px" width="460.6px" xmlns="http://www.w3.org/2000/svg">
  <g transform="matrix(1.0, 0.0, 0.0, 1.0, 193.65, 334.05)">
    <use height="53.15" transform="matrix(1.0, 0.0, 0.0, 1.0, 80.05, -74.4)" width="49.75" xlink:href="#shape0"/>
    <use height="571.7" transform="matrix(0.4897, -0.0042, 0.0042, 0.4897, -37.8688, -187.0954)" width="322.65" xlink:href="#shape1"/>
    <use height="46.1" transform="matrix(1.0, 0.0, 0.0, 1.0, 90.9, -67.35)" width="38.9" xlink:href="#shape2"/>
    <use height="37.65" transform="matrix(0.7313, -0.0062, 0.0062, 0.7313, -7.3187, -62.8625)" width="284.85" xlink:href="#shape3"/>
    <use height="80.8" transform="matrix(0.3508, -0.003, 0.003, 0.3508, 14.8982, -63.4581)" width="523.95" xlink:href="#sprite0"/>
    <use height="69.2" transform="matrix(1.0, 0.0, 0.0, 1.0, -69.5, -72.2)" width="112.4" xlink:href="#shape5"/>
  </g>
  <defs>
    <g id="shape0" transform="matrix(1.0, 0.0, 0.0, 1.0, -79.5, 72.55)">
      <path d="M79.5 -42.35 L79.5 -46.25 Q79.6 -47.85 80.35 -50.55 81.0 -53.0 84.05 -55.7 86.35 -57.75 87.5 -57.95 L87.5 -58.05 Q88.1 -62.85 90.05 -67.35 L90.8 -69.05 91.7 -70.1 Q95.25 -72.6 99.7 -72.4 L101.2 -72.5 105.45 -72.5 107.2 -72.5 Q111.85 -72.45 114.5 -69.55 116.4 -67.5 116.45 -65.45 121.6 -65.6 123.35 -64.55 125.05 -63.5 125.6 -62.7 L126.2 -61.6 127.25 -58.9 Q128.1 -56.1 128.1 -53.95 L127.95 -52.5 128.0 -51.85 127.05 -49.25 126.95 -48.8 127.05 -48.75 Q127.1 -48.5 127.4 -48.4 L127.45 -48.4 Q128.6 -47.6 129.0 -45.3 129.35 -43.55 129.2 -41.65 129.2 -38.5 127.5 -36.7 126.5 -35.6 124.85 -34.85 L125.4 -34.0 125.7 -31.7 Q125.7 -23.7 122.5 -21.25 120.05 -19.4 112.7 -19.4 110.55 -19.4 106.0 -21.0 L105.6 -21.15 104.6 -21.25 104.45 -21.15 Q103.4 -19.6 95.35 -19.6 88.75 -19.6 83.9 -24.45 82.3 -26.05 81.25 -30.45 L79.8 -36.95 Q79.5 -38.65 79.5 -42.35 M123.95 -49.5 L125.85 -51.1 126.6 -52.3 126.85 -53.65 126.75 -54.9 125.8 -59.05 125.3 -60.75 Q124.8 -62.15 122.75 -63.1 L121.85 -63.5 117.7 -64.15 109.1 -63.2 Q104.65 -62.05 102.75 -61.15 L102.4 -60.95 Q100.5 -60.0 99.85 -58.75 99.2 -57.55 98.9 -56.4 98.25 -53.3 98.85 -50.8 L99.05 -49.95 Q99.25 -49.15 99.9 -48.75 100.35 -48.4 101.75 -48.1 L102.5 -48.0 103.1 -47.9 103.25 -47.85 Q111.95 -47.2 118.95 -48.2 121.85 -48.55 123.25 -49.2 L123.95 -49.5 M109.4 -70.1 L105.8 -70.5 101.2 -70.45 Q94.75 -70.7 93.3 -69.2 L91.7 -67.25 Q90.15 -64.3 89.45 -61.0 L88.75 -58.05 88.2 -56.25 87.95 -55.9 Q87.65 -56.35 87.55 -56.9 L86.45 -55.8 84.35 -53.8 Q82.3 -51.6 81.8 -49.9 81.05 -47.45 80.95 -45.85 L81.0 -42.3 Q81.0 -39.4 81.45 -36.95 81.8 -35.0 82.85 -31.15 L83.6 -28.4 Q84.25 -26.65 85.2 -25.6 86.55 -24.2 88.85 -23.0 92.0 -21.35 95.3 -21.3 L95.5 -21.3 99.7 -21.4 101.1 -21.55 103.0 -22.1 99.7 -23.75 97.0 -25.6 Q96.45 -26.25 96.45 -27.8 96.45 -29.8 97.3 -32.75 L98.1 -34.25 98.6 -34.95 98.0 -35.1 96.05 -33.95 Q93.35 -32.5 91.95 -32.5 L90.35 -32.95 Q90.65 -33.45 94.9 -35.0 L96.1 -35.75 Q94.65 -36.3 93.7 -36.95 92.0 -38.1 91.7 -39.7 91.55 -40.55 91.75 -41.75 91.65 -44.8 92.6 -47.15 93.9 -50.2 96.7 -49.8 L96.7 -50.5 96.8 -53.85 95.6 -54.45 93.7 -55.55 Q94.2 -56.7 96.65 -56.15 L97.0 -56.05 Q97.2 -57.8 97.6 -58.65 99.2 -62.0 104.15 -63.65 L108.95 -64.75 112.9 -65.2 114.4 -65.35 114.35 -65.45 113.4 -67.5 Q112.2 -69.45 109.4 -70.1 M124.55 -47.15 L119.05 -46.3 114.1 -46.0 109.25 -46.0 105.15 -46.05 103.25 -46.15 98.95 -46.5 98.6 -46.6 98.4 -46.7 98.15 -46.75 Q97.65 -46.95 97.35 -47.35 L97.2 -47.65 96.5 -47.85 Q95.6 -48.0 94.6 -46.9 93.85 -46.05 93.75 -45.55 93.6 -45.0 93.6 -42.8 93.6 -40.85 93.85 -40.2 94.45 -38.65 96.65 -37.7 L97.4 -37.45 101.85 -36.5 110.95 -35.3 Q115.65 -34.9 118.55 -35.4 L123.0 -36.25 123.95 -36.6 125.95 -37.95 Q127.35 -39.3 127.35 -42.65 L127.05 -45.0 126.9 -46.2 126.85 -46.4 Q126.6 -47.5 125.6 -47.5 125.05 -47.5 124.6 -47.15 L124.55 -47.15 M102.8 -34.15 L102.35 -34.25 100.5 -34.35 100.3 -34.25 100.1 -33.95 Q99.15 -32.7 99.1 -32.25 L98.7 -30.75 98.35 -29.1 98.55 -27.35 99.05 -26.2 99.7 -25.5 100.45 -25.05 Q101.7 -24.3 103.05 -23.65 107.1 -21.85 111.5 -21.65 L113.55 -21.65 115.45 -21.75 Q118.4 -21.75 120.3 -22.55 121.8 -23.25 122.55 -24.5 123.7 -26.35 123.7 -31.3 L123.55 -32.65 122.9 -33.5 121.8 -33.9 116.2 -33.45 102.8 -34.15" fill="#000000" fill-rule="evenodd" stroke="none"/>
      <path d="M121.85 -63.5 L122.75 -63.1 Q124.8 -62.15 125.3 -60.75 L125.8 -59.05 126.75 -54.9 126.85 -53.65 126.6 -52.3 125.85 -51.1 123.95 -49.5 124.25 -51.25 Q124.25 -55.95 123.45 -59.45 122.85 -62.05 121.85 -63.5 M102.5 -48.0 L101.75 -48.1 Q100.35 -48.4 99.9 -48.75 99.25 -49.15 99.05 -49.95 L98.85 -50.8 Q98.25 -53.3 98.9 -56.4 99.2 -57.55 99.85 -58.75 100.5 -60.0 102.4 -60.95 L102.75 -61.15 Q101.65 -58.3 101.65 -53.65 L101.7 -50.55 Q101.9 -49.35 102.5 -48.0 M112.9 -65.2 Q111.75 -65.85 111.2 -67.5 110.65 -69.15 109.4 -70.1 112.2 -69.45 113.4 -67.5 L114.35 -65.45 114.4 -65.35 112.9 -65.2 M98.15 -46.75 L97.55 -46.25 Q96.85 -45.25 96.85 -41.35 96.85 -38.7 97.4 -37.45 L96.65 -37.7 Q94.45 -38.65 93.85 -40.2 93.6 -40.85 93.6 -42.8 93.6 -45.0 93.75 -45.55 93.85 -46.05 94.6 -46.9 95.6 -48.0 96.5 -47.85 L97.2 -47.65 97.35 -47.35 Q97.65 -46.95 98.15 -46.75 M123.95 -36.6 L124.35 -38.55 Q125.05 -41.7 125.05 -44.65 125.05 -46.05 124.55 -47.15 L124.6 -47.15 Q125.05 -47.5 125.6 -47.5 126.6 -47.5 126.85 -46.4 L126.9 -46.2 127.05 -45.0 127.35 -42.65 Q127.35 -39.3 125.95 -37.95 L123.95 -36.6 M100.45 -25.05 L99.7 -25.5 99.05 -26.2 98.55 -27.35 98.35 -29.1 98.7 -30.75 99.1 -32.25 Q99.15 -32.7 100.1 -33.95 L100.3 -34.25 100.5 -34.35 102.35 -34.25 102.8 -34.15 101.75 -30.95 Q100.45 -26.8 100.45 -25.35 L100.45 -25.05 M123.55 -32.65 L123.7 -31.3 Q123.7 -26.35 122.55 -24.5 121.8 -23.25 120.3 -22.55 121.1 -26.25 121.65 -28.05 121.95 -29.15 122.95 -31.05 L123.55 -32.65" fill="#bdbdbd" fill-rule="evenodd" stroke="none"/>
      <path d="M123.95 -49.5 L123.25 -49.2 Q121.85 -48.55 118.95 -48.2 111.95 -47.2 103.25 -47.85 L103.1 -47.9 102.5 -48.0 Q101.9 -49.35 101.7 -50.55 L101.65 -53.65 Q101.65 -58.3 102.75 -61.15 104.65 -62.05 109.1 -63.2 L117.7 -64.15 121.85 -63.5 Q122.85 -62.05 123.45 -59.45 124.25 -55.95 124.25 -51.25 L123.95 -49.5 M112.9 -65.2 L108.95 -64.75 104.15 -63.65 Q99.2 -62.0 97.6 -58.65 97.2 -57.8 97.0 -56.05 L96.65 -56.15 Q94.2 -56.7 93.7 -55.55 L95.6 -54.45 96.8 -53.85 96.7 -50.5 96.7 -49.8 Q93.9 -50.2 92.6 -47.15 91.65 -44.8 91.75 -41.75 91.55 -40.55 91.7 -39.7 92.0 -38.1 93.7 -36.95 94.65 -36.3 96.1 -35.75 L94.9 -35.0 Q90.65 -33.45 90.35 -32.95 L91.95 -32.5 Q93.35 -32.5 96.05 -33.95 L98.0 -35.1 98.6 -34.95 98.1 -34.25 97.3 -32.75 Q96.45 -29.8 96.45 -27.8 96.45 -26.25 97.0 -25.6 L99.7 -23.75 103.0 -22.1 101.1 -21.55 99.7 -21.4 95.5 -21.3 95.3 -21.3 Q92.0 -21.35 88.85 -23.0 86.55 -24.2 85.2 -25.6 84.25 -26.65 83.6 -28.4 L82.85 -31.15 Q81.8 -35.0 81.45 -36.95 81.0 -39.4 81.0 -42.3 L80.95 -45.85 Q81.05 -47.45 81.8 -49.9 82.3 -51.6 84.35 -53.8 L86.45 -55.8 87.55 -56.9 Q87.65 -56.35 87.95 -55.9 L88.2 -56.25 88.75 -58.05 89.45 -61.0 Q90.15 -64.3 91.7 -67.25 L93.3 -69.2 Q94.75 -70.7 101.2 -70.45 L105.8 -70.5 109.4 -70.1 Q110.65 -69.15 111.2 -67.5 111.75 -65.85 112.9 -65.2 M98.15 -46.75 L98.4 -46.7 98.6 -46.6 98.95 -46.5 103.25 -46.15 105.15 -46.05 109.25 -46.0 114.1 -46.0 119.05 -46.3 124.55 -47.15 Q125.05 -46.05 125.05 -44.65 125.05 -41.7 124.35 -38.55 L123.95 -36.6 123.0 -36.25 118.55 -35.4 Q115.65 -34.9 110.95 -35.3 L101.85 -36.5 97.4 -37.45 Q96.85 -38.7 96.85 -41.35 96.85 -45.25 97.55 -46.25 L98.15 -46.75 M100.45 -25.05 L100.45 -25.35 Q100.45 -26.8 101.75 -30.95 L102.8 -34.15 116.2 -33.45 121.8 -33.9 122.9 -33.5 123.55 -32.65 122.95 -31.05 Q121.95 -29.15 121.65 -28.05 121.1 -26.25 120.3 -22.55 118.4 -21.75 115.45 -21.75 L113.55 -21.65 111.5 -21.65 Q107.1 -21.85 103.05 -23.65 101.7 -24.3 100.45 -25.05" fill="#999999" fill-rule="evenodd" stroke="none"/>
    </g>
    <g id="shape1" transform="matrix(1.0, 0.0, 0.0, 1.0, 99.15, -114.85)">
      <path d="M-91.95 122.3 L-99.05 116.45 -67.2 114.85 Q50.75 114.85 134.15 198.2 193.3 257.35 210.5 333.85 L203.9 333.85 Q186.85 260.05 129.6 202.8 48.05 121.3 -67.2 121.3 L-91.95 122.3 M203.8 467.55 L210.4 467.55 Q193.2 544.05 134.05 603.2 50.65 686.55 -67.3 686.55 L-99.15 684.95 -92.05 679.1 -67.3 680.1 Q47.95 680.1 129.5 598.6 186.75 541.35 203.8 467.55" fill="#ea484c" fill-rule="evenodd" stroke="none"/>
      <path d="M168.75 333.85 L162.95 333.85 Q147.05 276.2 101.65 230.8 40.2 169.45 -43.5 161.95 L-51.0 155.85 Q39.75 161.15 105.55 226.9 152.6 273.95 168.75 333.85 M-51.1 645.55 L-43.6 639.45 Q40.1 631.95 101.55 570.6 146.95 525.2 162.85 467.55 L168.65 467.55 Q152.5 527.45 105.45 574.5 39.65 640.25 -51.1 645.55" fill="#9b56a0" fill-rule="evenodd" stroke="none"/>
      <path d="M176.0 333.85 L168.75 333.85 Q152.6 273.95 105.55 226.9 39.75 161.15 -51.0 155.85 L-60.0 148.45 Q39.45 150.9 110.5 221.95 159.65 271.1 176.0 333.85 M168.65 467.55 L175.9 467.55 Q159.55 530.3 110.4 579.45 39.35 650.5 -60.1 652.95 L-51.1 645.55 Q39.65 640.25 105.45 574.5 152.5 527.45 168.65 467.55" fill="#6774b2" fill-rule="evenodd" stroke="none"/>
      <path d="M182.0 333.85 L176.0 333.85 Q159.65 271.1 110.5 221.95 39.45 150.9 -60.0 148.45 L-67.2 142.55 Q39.25 142.55 114.55 217.8 165.45 268.7 182.0 333.85 M175.9 467.55 L181.9 467.55 Q165.35 532.7 114.45 583.6 39.15 658.85 -67.3 658.85 L-60.1 652.95 Q39.35 650.5 110.4 579.45 159.55 530.3 175.9 467.55" fill="#9cd9f4" fill-rule="evenodd" stroke="none"/>
      <path d="M189.6 333.85 L182.0 333.85 Q165.45 268.7 114.55 217.8 39.25 142.55 -67.2 142.55 L-76.05 135.3 -67.2 135.15 Q42.3 135.15 119.8 212.6 172.9 265.7 189.6 333.85 M181.9 467.55 L189.5 467.55 Q172.8 535.7 119.7 588.8 42.2 666.25 -67.3 666.25 L-76.15 666.1 -67.3 658.85 Q39.15 658.85 114.45 583.6 165.35 532.7 181.9 467.55" fill="#6dbd60" fill-rule="evenodd" stroke="none"/>
      <path d="M195.95 333.85 L189.6 333.85 Q172.9 265.7 119.8 212.6 42.3 135.15 -67.2 135.15 L-76.05 135.3 -83.2 129.45 Q-75.3 129.0 -67.2 129.0 44.85 129.0 124.1 208.25 179.05 263.2 195.95 333.85 M189.5 467.55 L195.85 467.55 Q178.95 538.2 124.0 593.15 44.75 672.4 -67.3 672.4 -75.4 672.4 -83.3 671.95 L-76.15 666.1 -67.3 666.25 Q42.2 666.25 119.7 588.8 172.8 535.7 189.5 467.55" fill="#f9ee30" fill-rule="evenodd" stroke="none"/>
      <path d="M-91.95 122.3 L-67.2 121.3 Q48.05 121.3 129.6 202.8 186.85 260.05 203.9 333.85 L195.95 333.85 Q179.05 263.2 124.1 208.25 44.85 129.0 -67.2 129.0 -75.3 129.0 -83.2 129.45 L-91.95 122.3 M195.85 467.55 L203.8 467.55 Q186.75 541.35 129.5 598.6 47.95 680.1 -67.3 680.1 L-92.05 679.1 -83.3 671.95 Q-75.4 672.4 -67.3 672.4 44.75 672.4 124.0 593.15 178.95 538.2 195.85 467.55" fill="#ef9851" fill-rule="evenodd" stroke="none"/>
      <path d="M201.8 368.35 L201.8 384.2 179.35 378.15 179.35 370.7 Q193.2 374.0 201.8 368.35 M201.8 395.45 L201.8 422.7 179.35 417.1 179.35 404.25 201.8 395.45" fill="#d6c2af" fill-opacity="0.972549" fill-rule="evenodd" stroke="none"/>
      <path d="M201.8 384.2 L201.8 395.45 179.35 404.25 179.35 378.15 201.8 384.2" fill="#d6c3af" fill-opacity="0.972549" fill-rule="evenodd" stroke="none"/>
      <path d="M179.35 370.7 L179.35 352.5 201.8 352.5 201.8 368.35 Q193.2 374.0 179.35 370.7 M201.8 431.15 L201.8 433.55 201.8 456.0 179.35 456.0 179.35 440.35 179.35 429.75 Q191.35 428.1 201.8 431.15 M179.35 440.35 L201.8 433.55 179.35 440.35" fill="#bca692" fill-rule="evenodd" stroke="none"/>
      <path d="M201.8 422.7 L201.8 431.15 Q191.35 428.1 179.35 429.75 L179.35 417.1 201.8 422.7" fill="#dbccbe" fill-opacity="0.972549" fill-rule="evenodd" stroke="none"/>
      <path d="M179.35 370.7 L179.35 352.5 201.8 352.5 201.8 368.35 201.8 384.2 201.8 395.45 201.8 422.7 201.8 431.15 201.8 433.55 201.8 456.0 179.35 456.0 179.35 440.35 179.35 429.75 179.35 417.1 179.35 404.25 179.35 378.15 179.35 370.7 M179.35 378.15 L201.8 384.2 M179.35 417.1 L201.8 422.7 M201.8 433.55 L179.35 440.35 M201.8 395.45 L179.35 404.25" fill="none" stroke="#3b2b21" stroke-linecap="round" stroke-linejoin="round" stroke-opacity="0.4" stroke-width="1.0"/>
      <path d="M206.7 362.9 Q193.15 382.45 172.4 367.35 161.3 359.3 161.15 349.35 154.9 344.25 155.0 338.2 155.1 328.95 160.75 318.5 166.35 308.2 177.4 310.15 187.45 293.95 207.1 304.5 211.7 307.05 214.8 311.4 218.2 316.2 216.0 323.2 226.4 334.35 221.3 346.75 218.6 353.4 212.75 359.65 211.25 361.2 208.95 361.35 L208.8 361.4 207.2 361.8 207.05 362.05 206.7 362.9 M191.2 355.2 Q189.7 354.35 188.75 353.05 184.3 346.9 191.5 345.35 210.8 340.9 207.2 361.8 210.8 340.9 191.5 345.35 184.3 346.9 188.75 353.05 189.7 354.35 191.2 355.2" fill="#ffffff" fill-opacity="0.972549" fill-rule="evenodd" stroke="none"/>
      <path d="M207.25 362.0 L206.7 362.9 207.05 362.05 207.2 361.8 207.35 361.85 207.25 362.0 207.05 362.05 207.25 362.0" fill="#e0ca83" fill-opacity="0.972549" fill-rule="evenodd" stroke="none"/>
      <path d="M206.7 362.9 Q193.15 382.45 172.4 367.35 161.3 359.3 161.15 349.35 154.9 344.25 155.0 338.2 155.1 328.95 160.75 318.5 166.35 308.2 177.4 310.15 187.45 293.95 207.1 304.5 211.7 307.05 214.8 311.4 218.2 316.2 216.0 323.2 226.4 334.35 221.3 346.75 218.6 353.4 212.75 359.65 211.25 361.2 208.95 361.35 L208.8 361.4 207.25 362.0 207.05 362.05 207.2 361.8 Q210.8 340.9 191.5 345.35 184.3 346.9 188.75 353.05 189.7 354.35 191.2 355.2 M206.7 362.9 L207.05 362.05 M207.35 361.85 L207.2 361.8 208.8 361.4" fill="none" stroke="#3b2b21" stroke-linecap="round" stroke-linejoin="round" stroke-opacity="0.4" stroke-width="1.0"/>
      <path d="M172.9 439.85 Q185.65 421.45 205.15 435.65 215.6 443.25 215.7 452.6 221.6 457.4 221.5 463.1 221.45 471.8 216.1 481.6 210.85 491.25 200.45 489.45 191.0 504.65 172.5 494.75 168.2 492.4 165.3 488.3 162.1 483.75 164.15 477.2 154.4 466.7 159.15 455.0 161.75 448.8 167.25 442.9 168.65 441.45 170.75 441.35 L170.95 441.3 172.45 440.9 172.55 440.65 172.9 439.85 M187.5 447.1 Q188.9 447.9 189.8 449.15 193.95 454.9 187.2 456.35 169.05 460.5 172.45 440.9 169.05 460.5 187.2 456.35 193.95 454.9 189.8 449.15 188.9 447.9 187.5 447.1" fill="#ffffff" fill-opacity="0.972549" fill-rule="evenodd" stroke="none"/>
      <path d="M172.4 440.7 L172.9 439.85 172.55 440.65 172.45 440.9 172.3 440.85 172.4 440.7 172.55 440.65 172.4 440.7" fill="#e0ca83" fill-opacity="0.972549" fill-rule="evenodd" stroke="none"/>
      <path d="M172.9 439.85 Q185.65 421.45 205.15 435.65 215.6 443.25 215.7 452.6 221.6 457.4 221.5 463.1 221.45 471.8 216.1 481.6 210.85 491.25 200.45 489.45 191.0 504.65 172.5 494.75 168.2 492.4 165.3 488.3 162.1 483.75 164.15 477.2 154.4 466.7 159.15 455.0 161.75 448.8 167.25 442.9 168.65 441.45 170.75 441.35 L170.95 441.3 172.4 440.7 172.55 440.65 172.45 440.9 Q169.05 460.5 187.2 456.35 193.95 454.9 189.8 449.15 188.9 447.9 187.5 447.1 M172.9 439.85 L172.55 440.65 M172.45 440.9 L172.3 440.85 M170.95 441.3 L172.45 440.9" fill="none" stroke="#3b2b21" stroke-linecap="round" stroke-linejoin="round" stroke-opacity="0.4" stroke-width="1.0"/>
    </g>
    <g id="shape2" transform="matrix(1.0, 0.0, 0.0, 1.0, -86.9, 70.2)">
      <path d="M123.8 -63.6 Q124.65 -60.8 124.65 -58.65 L124.5 -57.2 124.55 -56.55 123.6 -53.95 123.5 -53.5 123.6 -53.45 Q123.65 -53.2 123.95 -53.1 L124.0 -53.1 Q125.15 -52.3 125.55 -50.0 125.9 -48.25 125.75 -46.35 125.75 -43.2 124.05 -41.4 123.05 -40.3 121.4 -39.55 L121.95 -38.7 122.25 -36.4 Q122.25 -28.4 119.05 -25.95 116.6 -24.1 109.25 -24.1 107.25 -24.1 103.1 -25.5 L101.8 -26.25 99.4 -26.9 99.35 -26.9 96.25 -28.45 93.55 -30.3 Q93.0 -30.95 93.0 -32.5 93.0 -34.5 93.85 -37.45 L94.65 -38.95 95.15 -39.65 94.55 -39.8 92.6 -38.65 Q89.9 -37.2 88.5 -37.2 87.8 -37.2 86.9 -37.65 87.2 -38.15 91.45 -39.7 L92.65 -40.45 Q91.2 -41.0 90.25 -41.65 88.55 -42.8 88.25 -44.4 88.1 -45.25 88.3 -46.45 88.2 -49.5 89.15 -51.85 90.45 -54.9 93.25 -54.5 L93.25 -55.2 93.35 -58.55 Q92.8 -58.75 92.15 -59.15 L90.25 -60.25 Q90.75 -61.4 93.2 -60.85 L93.55 -60.75 Q93.75 -62.5 94.15 -63.35 95.75 -66.7 100.7 -68.35 102.8 -69.05 105.5 -69.45 L109.45 -69.9 110.55 -70.0 110.85 -70.05 110.95 -70.05 113.15 -70.15 113.75 -70.15 Q118.25 -70.2 119.9 -69.25 121.6 -68.2 122.15 -67.4 L122.75 -66.3 123.8 -63.6 M120.5 -54.2 Q121.75 -54.9 122.4 -55.8 L123.15 -57.0 123.4 -58.35 123.3 -59.6 122.35 -63.75 121.85 -65.45 Q121.35 -66.85 119.3 -67.8 L118.4 -68.2 114.25 -68.85 105.65 -67.9 Q101.2 -66.75 99.3 -65.85 L98.95 -65.65 Q97.05 -64.7 96.4 -63.45 95.75 -62.25 95.45 -61.1 94.8 -58.0 95.4 -55.5 L95.6 -54.65 Q95.8 -53.85 96.45 -53.45 96.9 -53.1 98.3 -52.8 L99.05 -52.7 99.65 -52.6 99.8 -52.55 Q108.5 -51.9 115.5 -52.9 118.4 -53.25 119.8 -53.9 L120.5 -54.2 M120.5 -41.3 L122.5 -42.65 Q123.9 -44.0 123.9 -47.35 L123.6 -49.7 123.45 -50.9 123.4 -51.1 Q123.15 -52.2 122.15 -52.2 121.6 -52.2 121.15 -51.85 L121.1 -51.85 115.6 -51.0 110.65 -50.7 105.8 -50.7 101.7 -50.75 99.8 -50.85 95.5 -51.2 95.15 -51.3 Q95.05 -51.3 94.95 -51.4 L94.7 -51.45 Q94.2 -51.65 93.9 -52.05 L93.75 -52.35 93.05 -52.55 Q92.15 -52.7 91.15 -51.6 L90.3 -50.25 Q90.15 -49.7 90.15 -47.5 90.15 -45.55 90.4 -44.9 91.0 -43.35 93.2 -42.4 L93.95 -42.15 98.4 -41.2 107.5 -40.0 Q112.2 -39.6 115.1 -40.1 L119.55 -40.95 120.5 -41.3 M120.1 -37.35 L119.45 -38.2 Q118.9 -38.35 118.35 -38.6 L112.75 -38.15 99.35 -38.85 98.9 -38.95 97.05 -39.05 96.85 -38.95 96.65 -38.65 Q95.7 -37.4 95.65 -36.95 L95.25 -35.45 94.9 -33.8 95.1 -32.05 Q95.25 -31.4 95.6 -30.9 L96.25 -30.2 97.0 -29.75 Q98.25 -29.0 99.6 -28.35 103.65 -26.55 108.05 -26.35 L110.1 -26.35 112.0 -26.45 Q114.95 -26.45 116.85 -27.25 118.35 -27.95 119.1 -29.2 120.25 -31.05 120.25 -36.0 L120.1 -37.35" fill="#000000" fill-rule="evenodd" stroke="none"/>
      <path d="M118.4 -68.2 L119.3 -67.8 Q121.35 -66.85 121.85 -65.45 L122.35 -63.75 123.3 -59.6 123.4 -58.35 123.15 -57.0 122.4 -55.8 Q121.75 -54.9 120.5 -54.2 L120.8 -55.95 Q120.8 -60.65 120.0 -64.15 119.4 -66.75 118.4 -68.2 M99.05 -52.7 L98.3 -52.8 Q96.9 -53.1 96.45 -53.45 95.8 -53.85 95.6 -54.65 L95.4 -55.5 Q94.8 -58.0 95.45 -61.1 95.75 -62.25 96.4 -63.45 97.05 -64.7 98.95 -65.65 L99.3 -65.85 Q98.2 -63.0 98.2 -58.35 L98.25 -55.25 99.05 -52.7 M121.1 -51.85 L121.15 -51.85 Q121.6 -52.2 122.15 -52.2 123.15 -52.2 123.4 -51.1 L123.45 -50.9 123.6 -49.7 123.9 -47.35 Q123.9 -44.0 122.5 -42.65 L120.5 -41.3 120.9 -43.25 Q121.6 -46.4 121.6 -49.35 121.6 -50.75 121.1 -51.85 M93.95 -42.15 L93.2 -42.4 Q91.0 -43.35 90.4 -44.9 90.15 -45.55 90.15 -47.5 90.15 -49.7 90.3 -50.25 L91.15 -51.6 Q92.15 -52.7 93.05 -52.55 L93.75 -52.35 93.9 -52.05 Q94.2 -51.65 94.7 -51.45 L94.1 -50.95 Q93.4 -49.95 93.4 -46.05 93.4 -43.4 93.95 -42.15 M99.35 -38.85 L98.3 -35.65 Q97.0 -31.5 97.0 -30.05 L97.0 -29.75 96.25 -30.2 95.6 -30.9 Q95.25 -31.4 95.1 -32.05 L94.9 -33.8 95.25 -35.45 95.65 -36.95 Q95.7 -37.4 96.65 -38.65 L96.85 -38.95 97.05 -39.05 98.9 -38.95 99.35 -38.85 M116.85 -27.25 Q117.65 -30.95 118.2 -32.75 118.5 -33.85 119.5 -35.75 L120.1 -37.35 120.25 -36.0 Q120.25 -31.05 119.1 -29.2 118.35 -27.95 116.85 -27.25" fill="#bdbdbd" fill-rule="evenodd" stroke="none"/>
      <path d="M120.5 -54.2 L119.8 -53.9 Q118.4 -53.25 115.5 -52.9 108.5 -51.9 99.8 -52.55 L99.65 -52.6 99.05 -52.7 98.25 -55.25 98.2 -58.35 Q98.2 -63.0 99.3 -65.85 101.2 -66.75 105.65 -67.9 L114.25 -68.85 118.4 -68.2 Q119.4 -66.75 120.0 -64.15 120.8 -60.65 120.8 -55.95 L120.5 -54.2 M120.5 -41.3 L119.55 -40.95 115.1 -40.1 Q112.2 -39.6 107.5 -40.0 L98.4 -41.2 93.95 -42.15 Q93.4 -43.4 93.4 -46.05 93.4 -49.95 94.1 -50.95 L94.7 -51.45 94.95 -51.4 Q95.05 -51.3 95.15 -51.3 L95.5 -51.2 99.8 -50.85 101.7 -50.75 105.8 -50.7 110.65 -50.7 115.6 -51.0 121.1 -51.85 Q121.6 -50.75 121.6 -49.35 121.6 -46.4 120.9 -43.25 L120.5 -41.3 M99.35 -38.85 L112.75 -38.15 118.35 -38.6 Q118.9 -38.35 119.45 -38.2 L120.1 -37.35 119.5 -35.75 Q118.5 -33.85 118.2 -32.75 117.65 -30.95 116.85 -27.25 114.95 -26.45 112.0 -26.45 L110.1 -26.35 108.05 -26.35 Q103.65 -26.55 99.6 -28.35 98.25 -29.0 97.0 -29.75 L97.0 -30.05 Q97.0 -31.5 98.3 -35.65 L99.35 -38.85" fill="#999999" fill-rule="evenodd" stroke="none"/>
    </g>
    <g id="shape3" transform="matrix(1.0, 0.0, 0.0, 1.0, 0.5, 0.5)">
      <path d="M240.9 26.1 L0.0 18.45 240.9 10.55 228.65 1.2 244.25 3.1 241.6 0.0 283.85 18.35 241.6 36.65 244.25 33.55 228.65 35.45 240.9 26.1" fill="#ebebeb" fill-opacity="0.972549" fill-rule="evenodd" stroke="none"/>
      <path d="M240.9 26.1 L0.0 18.45 240.9 10.55 228.65 1.2 244.25 3.1 241.6 0.0 283.85 18.35 241.6 36.65 244.25 33.55 228.65 35.45 240.9 26.1 Z" fill="none" stroke="#3b2b21" stroke-linecap="round" stroke-linejoin="round" stroke-opacity="0.4" stroke-width="1.0"/>
    </g>
    <g id="sprite0" transform="matrix(1.0, 0.0, 0.0, 1.0, -62.3, 2.2)">
      <use height="80.8" transform="matrix(1.0, 0.0, 0.0, 1.0, 62.3, -2.2)" width="523.95" xlink:href="#shape4"/>
    </g>
    <g id="shape4" transform="matrix(1.0, 0.0, 0.0, 1.0, -62.3, 2.2)">
      <path d="M513.15 71.75 L484.4 75.95 506.95 55.4 62.3 38.45 506.95 21.0 484.4 0.45 513.15 4.65 508.3 -2.2 586.25 38.25 508.3 78.6 513.15 71.75" fill="url(#gradient0)" fill-rule="evenodd" stroke="none"/>
    </g>
    <linearGradient gradientTransform="matrix(0.3198, 0.0, 0.0, 0.0493, 324.3, 38.2)" gradientUnits="userSpaceOnUse" id="gradient0" spreadMethod="pad" x1="-819.2" x2="819.2">
      <stop offset="0.0" stop-color="#ff0000"/>
      <stop offset="0.16470588235294117" stop-color="#ffff00"/>
      <stop offset="0.36470588235294116" stop-color="#00ff00"/>
      <stop offset="0.4980392156862745" stop-color="#00ffff"/>
      <stop offset="0.6666666666666666" stop-color="#0000ff"/>
      <stop offset="0.8313725490196079" stop-color="#ff00ff"/>
      <stop offset="1.0" stop-color="#ff0000"/>
    </linearGradient>
    <g id="shape5" transform="matrix(1.0, 0.0, 0.0, 1.0, 69.5, 72.2)">
      <path d="M16.8 -70.45 L17.1 -70.45 19.65 -70.3 Q20.35 -70.0 20.6 -68.4 L20.6 -67.95 20.75 -67.0 Q20.9 -66.4 21.2 -66.1 L20.0 -66.05 19.85 -66.15 Q18.6 -66.95 17.85 -68.6 L16.8 -70.45 M29.95 -64.15 Q31.35 -63.7 32.1 -62.95 32.8 -62.25 32.8 -59.65 L32.75 -55.15 31.8 -52.55 31.05 -50.9 30.3 -51.15 30.65 -53.9 31.0 -57.6 Q31.0 -62.95 30.35 -63.8 L29.95 -64.15 M37.0 -46.55 L40.3 -44.3 40.5 -44.05 Q40.7 -43.65 40.7 -41.75 40.7 -40.25 40.3 -38.75 L40.2 -38.4 Q39.75 -36.8 39.0 -35.95 L36.65 -35.45 37.0 -36.5 Q38.5 -40.6 38.5 -42.1 38.5 -45.15 37.0 -46.55 M35.85 -30.85 Q37.8 -30.3 38.4 -28.85 L38.65 -26.25 38.55 -24.2 Q38.55 -22.05 37.2 -20.85 L36.1 -20.75 36.2 -21.05 Q36.75 -22.55 36.75 -24.75 L36.15 -29.15 35.85 -30.85 M-58.6 -15.2 L-58.6 -15.1 Q-58.6 -13.8 -54.8 -11.6 L-51.85 -10.15 -51.8 -10.1 -51.55 -9.25 -51.6 -9.3 Q-55.95 -10.9 -58.0 -12.05 -67.3 -17.25 -67.3 -28.45 -67.3 -35.3 -64.7 -42.7 -62.5 -48.8 -58.9 -53.35 L-55.7 -56.7 -55.7 -56.85 -54.1 -56.75 Q-55.85 -55.1 -57.35 -52.4 L-60.75 -45.35 Q-62.9 -41.15 -63.65 -36.9 -64.25 -33.6 -64.25 -28.1 -64.25 -23.9 -63.9 -22.95 L-60.5 -17.35 Q-59.85 -16.3 -58.6 -15.2" fill="#bdbdbd" fill-rule="evenodd" stroke="none"/>
      <path d="M20.0 -66.05 L21.2 -66.1 Q20.9 -66.4 20.75 -67.0 L20.6 -67.95 20.6 -68.4 Q20.35 -70.0 19.65 -70.3 L17.1 -70.45 16.8 -70.45 16.75 -70.45 14.65 -70.25 Q11.55 -69.8 7.35 -68.25 L0.8 -65.45 Q-0.55 -64.8 -0.9 -63.75 L-1.05 -62.15 -1.15 -58.9 -1.1 -58.55 -1.05 -58.55 -1.05 -58.25 -1.05 -58.15 2.3 -59.4 1.35 -57.7 1.0 -57.2 -0.65 -56.1 Q-4.45 -54.6 -9.3 -53.8 L-9.75 -53.75 -20.9 -53.15 -24.85 -53.35 -25.8 -53.35 -34.65 -52.95 Q-40.7 -52.3 -45.2 -49.7 -49.75 -47.15 -53.85 -45.2 -51.05 -49.55 -46.45 -52.0 L-42.55 -53.9 Q-40.05 -54.8 -38.4 -54.9 L-29.25 -55.5 -29.45 -56.6 -29.4 -56.85 -29.0 -57.3 -28.0 -55.75 -27.9 -55.55 -24.85 -55.75 Q-16.75 -55.35 -9.75 -56.0 L-9.3 -56.1 -7.45 -56.35 -4.35 -57.05 Q-2.85 -57.5 -2.65 -57.8 L-2.35 -58.1 -2.4 -58.4 -2.4 -58.45 -2.4 -58.65 -2.5 -59.15 -2.55 -60.25 -2.6 -63.7 Q-2.6 -65.55 0.9 -67.45 4.15 -69.25 9.0 -70.45 L13.95 -71.8 15.3 -72.0 15.35 -72.0 17.35 -72.2 17.6 -72.2 17.65 -72.2 Q20.65 -72.25 21.45 -71.0 L21.6 -70.6 21.7 -70.35 22.1 -69.2 22.55 -67.75 22.6 -67.1 22.6 -66.8 22.65 -66.25 22.65 -66.15 22.85 -66.15 24.75 -66.25 25.4 -66.3 Q29.8 -66.05 32.3 -64.6 34.55 -63.3 34.4 -61.75 L34.45 -56.05 Q34.45 -54.25 33.75 -52.15 L32.8 -50.2 Q37.9 -48.8 40.3 -47.4 41.2 -46.85 41.75 -46.3 42.9 -45.1 42.9 -41.8 42.9 -39.35 42.15 -37.15 41.5 -35.3 40.45 -34.2 L39.95 -33.95 39.65 -33.8 38.5 -33.75 36.5 -33.65 35.95 -33.65 32.55 -33.85 Q30.4 -33.9 28.75 -35.05 L27.65 -35.7 23.95 -35.6 23.15 -35.4 23.25 -34.85 35.55 -32.65 36.15 -32.5 Q40.15 -31.35 40.15 -26.3 40.15 -23.9 39.75 -22.4 39.5 -20.85 38.1 -19.35 L36.3 -19.05 35.1 -19.0 33.25 -19.1 31.0 -19.5 29.9 -19.75 27.45 -20.6 27.15 -20.7 27.0 -20.75 21.45 -22.15 20.55 -22.25 18.35 -21.95 17.2 -21.55 Q15.65 -20.85 14.35 -19.55 L5.75 -13.9 Q-7.95 -5.65 -24.35 -3.3 L-30.25 -3.0 -31.8 -3.0 Q-44.75 -3.0 -49.45 -6.3 L-50.0 -6.2 Q-55.45 -6.2 -61.4 -11.1 -65.85 -14.75 -66.6 -16.6 L-69.4 -23.4 -69.5 -28.6 Q-69.5 -38.1 -65.95 -46.0 -62.3 -54.2 -56.2 -57.6 L-55.85 -57.4 Q-55.7 -57.3 -55.7 -56.85 L-55.7 -56.7 -58.9 -53.35 Q-62.5 -48.8 -64.7 -42.7 -67.3 -35.3 -67.3 -28.45 -67.3 -17.25 -58.0 -12.05 -55.95 -10.9 -51.6 -9.3 L-51.55 -9.25 -51.8 -10.1 -51.85 -10.15 -54.8 -11.6 Q-58.6 -13.8 -58.6 -15.1 L-58.6 -15.2 Q-58.6 -19.75 -58.1 -21.4 L-57.25 -24.8 Q-56.5 -26.8 -55.45 -26.55 L-56.0 -24.95 -56.7 -22.2 -56.8 -20.05 -56.7 -18.0 -56.7 -17.85 Q-56.7 -14.75 -51.9 -12.9 -47.05 -11.1 -47.0 -10.1 L-47.2 -9.6 Q-47.4 -9.3 -48.0 -9.3 L-48.9 -9.35 Q-48.15 -8.8 -45.2 -7.3 -42.3 -5.8 -35.9 -5.6 -29.55 -5.4 -21.3 -6.0 -13.1 -6.6 3.15 -14.7 L14.35 -22.1 Q15.25 -23.15 16.4 -23.7 L17.3 -24.1 19.55 -24.4 21.45 -24.35 24.25 -23.5 26.35 -22.7 27.15 -22.4 28.6 -21.85 29.1 -21.7 30.0 -21.45 32.15 -21.0 36.1 -20.75 37.2 -20.85 Q38.55 -22.05 38.55 -24.2 L38.65 -26.25 38.4 -28.85 Q37.8 -30.3 35.85 -30.85 L34.85 -31.05 Q32.05 -31.45 27.55 -32.6 L23.2 -33.85 23.15 -33.9 Q22.65 -34.1 22.5 -34.25 L22.4 -34.3 Q22.0 -34.65 22.0 -35.35 L22.0 -35.4 21.65 -35.4 21.5 -35.55 Q22.1 -36.4 24.25 -37.2 L24.95 -37.5 25.75 -37.7 25.8 -37.7 27.0 -37.8 29.05 -36.6 Q30.65 -35.85 32.55 -35.6 L35.55 -35.45 36.65 -35.45 39.0 -35.95 Q39.75 -36.8 40.2 -38.4 L40.3 -38.75 Q40.7 -40.25 40.7 -41.75 40.7 -43.65 40.5 -44.05 L40.3 -44.3 37.0 -46.55 36.95 -46.6 31.6 -48.25 29.5 -49.05 26.4 -49.7 24.85 -49.55 19.0 -47.1 15.0 -45.5 Q14.6 -45.6 14.45 -45.8 15.0 -46.55 16.95 -47.6 L18.25 -48.4 18.25 -48.6 Q18.25 -50.25 18.6 -50.55 18.95 -50.95 21.6 -52.0 L21.2 -52.85 Q21.9 -52.95 22.4 -52.55 L23.1 -51.95 23.9 -51.5 24.25 -51.35 24.85 -51.45 26.9 -51.65 30.3 -51.15 31.05 -50.9 31.8 -52.55 32.75 -55.15 32.8 -59.65 Q32.8 -62.25 32.1 -62.95 31.35 -63.7 29.95 -64.15 27.8 -64.9 24.1 -65.05 L22.4 -65.15 21.4 -65.15 21.15 -65.15 19.3 -65.0 16.55 -64.65 13.8 -64.3 12.1 -63.95 11.8 -63.9 11.25 -64.15 12.45 -64.85 13.9 -65.35 14.35 -65.45 19.8 -66.0 20.0 -66.05 M22.1 -51.3 Q21.6 -50.85 20.2 -50.3 19.05 -49.75 19.2 -49.25 L19.35 -49.0 22.7 -50.7 22.1 -51.3" fill="#000000" fill-rule="evenodd" stroke="none"/>
      <path d="M16.8 -70.45 L17.85 -68.6 Q18.6 -66.95 19.85 -66.15 L20.0 -66.05 19.8 -66.0 14.35 -65.45 13.9 -65.35 12.45 -64.85 11.25 -64.15 11.8 -63.9 12.1 -63.95 13.8 -64.3 16.55 -64.65 19.3 -65.0 21.15 -65.15 21.4 -65.15 22.4 -65.15 24.1 -65.05 Q27.8 -64.9 29.95 -64.15 L30.35 -63.8 Q31.0 -62.95 31.0 -57.6 L30.65 -53.9 30.3 -51.15 26.9 -51.65 24.85 -51.45 24.25 -51.35 23.9 -51.5 23.1 -51.95 22.4 -52.55 Q21.9 -52.95 21.2 -52.85 L21.6 -52.0 Q18.95 -50.95 18.6 -50.55 18.25 -50.25 18.25 -48.6 L18.25 -48.4 16.95 -47.6 Q15.0 -46.55 14.45 -45.8 14.6 -45.6 15.0 -45.5 L19.0 -47.1 24.85 -49.55 26.4 -49.7 29.5 -49.05 31.6 -48.25 36.95 -46.6 37.0 -46.55 Q38.5 -45.15 38.5 -42.1 38.5 -40.6 37.0 -36.5 L36.65 -35.45 35.55 -35.45 32.55 -35.6 Q30.65 -35.85 29.05 -36.6 L27.0 -37.8 25.8 -37.7 25.75 -37.7 24.95 -37.5 24.25 -37.2 Q22.1 -36.4 21.5 -35.55 L21.65 -35.4 22.0 -35.4 22.0 -35.35 Q22.0 -34.65 22.4 -34.3 L22.5 -34.25 Q22.65 -34.1 23.15 -33.9 L23.2 -33.85 27.55 -32.6 Q32.05 -31.45 34.85 -31.05 L35.85 -30.85 36.15 -29.15 36.75 -24.75 Q36.75 -22.55 36.2 -21.05 L36.1 -20.75 32.15 -21.0 30.0 -21.45 29.1 -21.7 28.6 -21.85 27.15 -22.4 26.35 -22.7 24.25 -23.5 21.45 -24.35 19.55 -24.4 17.3 -24.1 16.4 -23.7 Q15.25 -23.15 14.35 -22.1 L3.15 -14.7 Q-13.1 -6.6 -21.3 -6.0 -29.55 -5.4 -35.9 -5.6 -42.3 -5.8 -45.2 -7.3 -48.15 -8.8 -48.9 -9.35 L-48.0 -9.3 Q-47.4 -9.3 -47.2 -9.6 L-47.0 -10.1 Q-47.05 -11.1 -51.9 -12.9 -56.7 -14.75 -56.7 -17.85 L-56.7 -18.0 -56.8 -20.05 -56.7 -22.2 -56.0 -24.95 -55.45 -26.55 Q-56.5 -26.8 -57.25 -24.8 L-58.1 -21.4 Q-58.6 -19.75 -58.6 -15.2 -59.85 -16.3 -60.5 -17.35 L-63.9 -22.95 Q-64.25 -23.9 -64.25 -28.1 -64.25 -33.6 -63.65 -36.9 -62.9 -41.15 -60.75 -45.35 L-57.35 -52.4 Q-55.85 -55.1 -54.1 -56.75 L-45.85 -56.9 -35.3 -57.3 -32.1 -57.25 -29.4 -56.85 -29.45 -56.6 -29.25 -55.5 -38.4 -54.9 Q-40.05 -54.8 -42.55 -53.9 L-46.45 -52.0 Q-51.05 -49.55 -53.85 -45.2 -49.75 -47.15 -45.2 -49.7 -40.7 -52.3 -34.65 -52.95 L-25.8 -53.35 -24.85 -53.35 -20.9 -53.15 -9.75 -53.75 -9.3 -53.8 Q-4.45 -54.6 -0.65 -56.1 L1.0 -57.2 1.35 -57.7 2.3 -59.4 -1.05 -58.15 -1.05 -58.25 -1.05 -58.55 -1.1 -58.55 -1.15 -58.9 -1.05 -62.15 -0.9 -63.75 Q-0.55 -64.8 0.8 -65.45 L7.35 -68.25 Q11.55 -69.8 14.65 -70.25 L16.75 -70.45 16.8 -70.45" fill="#999999" fill-rule="evenodd" stroke="none"/>
    </g>
  </defs>
</svg>
