<?xml version="1.0" encoding="UTF-8" standalone="no"?>
<svg xmlns:xlink="http://www.w3.org/1999/xlink" height="531.5px" width="460.6px" xmlns="http://www.w3.org/2000/svg">
  <g transform="matrix(1.0, 0.0, 0.0, 1.0, 193.65, 334.05)">
    <use height="75.7" transform="matrix(1.0, 0.0, 0.0, 1.0, -57.65, -77.85)" width="172.1" xlink:href="#shape0"/>
  </g>
  <defs>
    <g id="shape0" transform="matrix(1.0, 0.0, 0.0, 1.0, 57.65, 77.85)">
      <path d="M-22.55 -56.2 L-23.4 -56.45 Q-22.3 -58.45 -17.75 -56.25 -13.45 -54.2 -12.9 -52.7 L-12.85 -52.6 -12.0 -52.5 -8.45 -51.85 4.85 -49.65 5.35 -49.55 Q5.4 -50.6 6.15 -52.3 L7.6 -55.75 Q8.45 -58.15 9.4 -59.4 L10.75 -60.8 Q12.2 -61.85 14.15 -62.4 L16.8 -62.9 27.35 -62.35 Q32.95 -61.25 33.95 -58.6 34.15 -57.9 34.0 -54.95 L33.85 -52.85 37.85 -52.25 43.25 -51.4 52.3 -50.25 Q58.05 -49.4 59.0 -46.8 59.45 -45.55 58.65 -40.4 L57.95 -37.55 Q56.5 -34.8 52.55 -33.45 L45.9 -33.8 44.35 -33.9 45.55 -31.85 45.7 -31.35 Q46.1 -29.4 45.35 -27.55 42.0 -18.6 31.7 -20.75 L31.5 -20.75 Q32.25 -18.65 31.8 -16.65 L31.25 -15.2 Q29.5 -12.35 26.15 -11.6 L25.85 -11.55 23.8 -11.15 18.45 -10.9 14.9 -11.0 -7.1 -12.1 -14.15 -12.25 Q-23.0 -12.7 -31.7 -14.1 -36.25 -15.15 -39.35 -17.3 -47.8 -26.15 -53.3 -37.35 L-55.6 -41.8 -57.35 -46.0 Q-57.8 -47.15 -57.55 -47.9 L-56.8 -47.35 -56.4 -47.05 -55.2 -45.5 -54.85 -44.75 -53.7 -42.45 Q-49.1 -32.8 -43.05 -24.05 -40.6 -20.45 -37.05 -18.1 -35.05 -16.85 -32.4 -16.05 L-20.65 -14.7 -10.65 -14.25 11.65 -13.45 20.65 -13.05 23.05 -13.2 Q25.75 -13.25 27.7 -14.45 29.05 -15.4 30.0 -16.9 L30.4 -17.6 30.55 -18.3 30.55 -19.85 30.25 -20.75 30.1 -21.25 29.6 -22.4 30.3 -22.2 31.1 -22.3 33.15 -22.1 35.75 -22.15 Q43.05 -23.05 43.95 -30.75 L43.8 -31.25 42.75 -32.6 42.3 -33.15 41.75 -33.95 41.7 -34.3 40.05 -34.55 37.6 -34.95 Q37.8 -36.35 39.55 -36.2 L42.35 -35.55 46.9 -35.25 49.25 -35.0 Q51.75 -34.8 52.35 -35.0 55.5 -36.1 56.5 -38.55 L57.05 -41.2 57.5 -43.5 Q57.75 -45.4 57.5 -46.1 57.0 -47.5 53.8 -48.35 L50.6 -49.0 42.0 -50.0 33.85 -51.25 29.35 -51.6 Q26.75 -51.8 25.8 -53.1 L29.2 -53.35 32.55 -52.95 32.7 -54.4 Q32.85 -56.6 32.4 -57.75 31.9 -59.1 30.35 -59.85 28.8 -60.55 25.3 -61.05 L21.1 -61.5 Q16.65 -61.75 13.6 -60.65 10.9 -59.75 9.55 -56.95 8.85 -55.6 8.45 -53.9 L7.3 -51.05 6.5 -49.05 6.9 -48.5 7.0 -48.05 7.05 -47.85 6.85 -47.65 6.3 -47.35 5.7 -47.35 -10.95 -50.8 -17.85 -51.25 Q-17.0 -52.35 -15.25 -52.6 L-17.5 -54.55 Q-18.3 -55.05 -20.15 -55.6 L-22.55 -56.2" fill="#000000" fill-rule="evenodd" stroke="none"/>
      <path d="M-56.4 -47.05 L-52.6 -49.2 Q-49.8 -50.65 -46.9 -51.7 -39.8 -54.3 -31.9 -55.1 L-22.55 -56.2 -20.15 -55.6 Q-18.3 -55.05 -17.5 -54.55 L-15.25 -52.6 Q-17.0 -52.35 -17.85 -51.25 L-10.95 -50.8 5.7 -47.35 6.3 -47.35 6.85 -47.65 7.05 -47.85 7.0 -48.05 6.9 -48.5 6.5 -49.05 7.3 -51.05 8.45 -53.9 Q8.85 -55.6 9.55 -56.95 10.9 -59.75 13.6 -60.65 16.65 -61.75 21.1 -61.5 L25.3 -61.05 Q28.8 -60.55 30.35 -59.85 31.9 -59.1 32.4 -57.75 32.85 -56.6 32.7 -54.4 L32.55 -52.95 29.2 -53.35 25.8 -53.1 Q26.75 -51.8 29.35 -51.6 L33.85 -51.25 42.0 -50.0 50.6 -49.0 53.8 -48.35 54.4 -46.8 Q54.85 -44.85 54.1 -41.25 53.05 -37.4 51.5 -36.0 50.65 -35.25 49.25 -35.0 L46.9 -35.25 42.35 -35.55 39.55 -36.2 Q37.8 -36.35 37.6 -34.95 L40.05 -34.55 41.7 -34.3 41.75 -33.95 42.3 -33.15 41.4 -29.3 Q40.15 -24.1 37.55 -22.85 L35.75 -22.15 33.15 -22.1 31.1 -22.3 30.3 -22.2 29.6 -22.4 30.1 -21.25 30.25 -20.75 28.25 -15.85 27.7 -14.45 Q25.75 -13.25 23.05 -13.2 L20.65 -13.05 11.65 -13.45 -10.65 -14.25 -20.65 -14.7 Q-26.15 -16.85 -28.55 -17.3 -31.95 -17.95 -34.8 -19.7 -37.8 -21.5 -39.75 -24.05 L-48.5 -36.7 Q-52.25 -42.15 -55.2 -45.5 L-56.4 -47.05" fill="#999999" fill-rule="evenodd" stroke="none"/>
      <path d="M53.8 -48.35 Q57.0 -47.5 57.5 -46.1 57.75 -45.4 57.5 -43.5 L57.05 -41.2 56.5 -38.55 Q55.5 -36.1 52.35 -35.0 51.75 -34.8 49.25 -35.0 50.65 -35.25 51.5 -36.0 53.05 -37.4 54.1 -41.25 54.85 -44.85 54.4 -46.8 L53.8 -48.35 M42.3 -33.15 L42.75 -32.6 43.8 -31.25 43.95 -30.75 Q43.05 -23.05 35.75 -22.15 L37.55 -22.85 Q40.15 -24.1 41.4 -29.3 L42.3 -33.15 M30.25 -20.75 L30.55 -19.85 30.55 -18.3 30.4 -17.6 30.0 -16.9 Q29.05 -15.4 27.7 -14.45 L28.25 -15.85 30.25 -20.75 M-20.65 -14.7 L-32.4 -16.05 Q-35.05 -16.85 -37.05 -18.1 -40.6 -20.45 -43.05 -24.05 -49.1 -32.8 -53.7 -42.45 L-54.85 -44.75 -55.2 -45.5 Q-52.25 -42.15 -48.5 -36.7 L-39.75 -24.05 Q-37.8 -21.5 -34.8 -19.7 -31.95 -17.95 -28.55 -17.3 -26.15 -16.85 -20.65 -14.7" fill="#bdbdbd" fill-rule="evenodd" stroke="none"/>
      <path d="M54.25 -67.5 Q51.8 -69.0 51.15 -71.55 51.8 -69.0 54.25 -67.5 M51.15 -71.55 L56.4 -71.55 56.8 -71.55 62.45 -71.45 68.0 -71.3 68.05 -71.3 68.4 -71.3 82.15 -71.05 80.35 -69.0 Q77.35 -64.65 66.45 -65.7 55.5 -66.8 44.25 -66.3 32.85 -66.4 18.35 -62.5 L16.0 -65.25 Q15.65 -65.95 15.55 -66.75 20.8 -69.6 32.8 -70.75 L51.15 -71.55 M66.85 -36.05 Q72.35 -34.4 79.4 -34.4 85.45 -34.4 89.4 -35.5 L97.25 -37.6 97.3 -36.35 91.35 -34.0 67.5 -32.3 45.5 -43.25 44.3 -44.9 Q43.45 -46.0 43.85 -48.0 L44.75 -49.6 49.95 -46.15 50.15 -45.1 64.15 -36.4 Q65.9 -35.55 66.85 -36.05 M41.3 -22.95 L41.15 -23.15 Q40.35 -24.35 40.35 -25.8 40.35 -28.05 43.1 -30.45 L44.6 -31.6 45.5 -30.6 Q46.65 -28.0 45.9 -26.7 45.1 -25.4 43.95 -24.45 43.25 -23.85 43.2 -23.1 L41.3 -22.95 M43.3 -35.25 L41.55 -34.9 Q39.8 -34.9 39.8 -36.4 39.8 -38.05 41.45 -39.2 43.0 -40.25 45.15 -40.25 L46.5 -40.25 Q46.5 -39.0 45.75 -38.05 L44.1 -36.75 43.3 -35.25 M61.3 -67.55 Q57.75 -68.7 56.4 -71.55 57.75 -68.7 61.3 -67.55 M72.0 -67.7 Q69.05 -68.6 68.05 -71.3 69.05 -68.6 72.0 -67.7 M66.55 -67.75 Q63.55 -68.65 62.45 -71.45 63.55 -68.65 66.55 -67.75" fill="#d2d202" fill-rule="evenodd" stroke="none"/>
      <path d="M51.05 -72.25 L51.15 -71.55 51.05 -72.25 M54.55 -55.4 L54.55 -54.8 Q66.95 -52.55 69.25 -47.1 69.95 -45.4 70.1 -42.15 70.35 -38.65 70.85 -37.1 71.2 -37.2 71.35 -37.4 L71.35 -39.0 Q71.05 -40.5 71.1 -44.15 71.15 -47.35 70.5 -49.05 69.15 -51.4 63.85 -53.25 59.65 -54.7 54.55 -55.4 M68.0 -71.3 L62.45 -71.45 56.8 -71.55 56.4 -71.55 51.15 -71.55 32.8 -70.75 Q20.8 -69.6 15.55 -66.75 15.35 -68.75 16.9 -71.3 20.2 -72.95 26.35 -73.7 26.8 -75.65 30.85 -77.35 40.35 -76.1 47.65 -74.25 L84.85 -74.15 82.15 -71.05 84.85 -74.15 97.4 -73.75 99.9 -73.0 99.75 -70.1 99.65 -67.1 96.9 -66.15 96.95 -60.4 Q94.4 -60.1 92.55 -58.2 90.25 -55.9 90.25 -52.7 90.25 -49.5 92.55 -47.2 94.4 -45.3 96.95 -44.95 L97.25 -37.6 89.4 -35.5 Q85.45 -34.4 79.4 -34.4 72.35 -34.4 66.85 -36.05 68.2 -36.75 67.8 -40.25 L67.2 -47.75 60.55 -50.7 55.4 -53.05 53.95 -53.7 Q48.75 -53.15 49.95 -46.15 L44.75 -49.6 46.4 -50.95 44.75 -49.6 43.85 -48.0 Q43.45 -46.0 44.3 -44.9 L45.5 -43.25 45.85 -42.7 Q46.45 -41.35 46.5 -40.25 L45.15 -40.25 Q43.0 -40.25 41.45 -39.2 39.8 -38.05 39.8 -36.4 39.8 -34.9 41.55 -34.9 L43.3 -35.25 Q42.8 -33.75 43.75 -32.4 L44.6 -31.6 43.1 -30.45 Q40.35 -28.05 40.35 -25.8 40.35 -24.35 41.15 -23.15 L41.3 -22.95 38.55 -22.9 Q38.25 -21.7 37.8 -21.1 L33.45 -21.1 22.85 -22.2 19.0 -22.95 Q17.9 -26.35 16.25 -28.9 L16.3 -29.0 16.2 -29.55 14.75 -38.0 Q13.95 -50.95 18.65 -59.95 18.35 -61.5 18.35 -62.5 32.85 -66.4 44.25 -66.3 55.5 -66.8 66.45 -65.7 77.35 -64.65 80.35 -69.0 L82.15 -71.05 68.4 -71.3 68.05 -71.3 68.0 -71.3 M44.45 -73.6 Q33.9 -74.1 27.3 -73.9 L26.35 -73.7 27.3 -73.9 Q33.9 -74.1 44.45 -73.6 M19.9 -70.8 Q18.95 -70.4 18.25 -69.8 L17.1 -68.7 17.3 -68.5 17.9 -68.35 19.65 -69.15 21.65 -69.95 29.0 -70.8 Q30.2 -70.95 30.2 -71.55 L30.1 -72.0 30.0 -71.95 Q22.4 -71.75 19.9 -70.8 M30.75 -75.05 Q32.25 -75.05 32.65 -75.4 L32.85 -75.85 32.65 -76.25 30.6 -76.2 Q30.35 -76.05 30.2 -75.35 L30.3 -75.15 30.75 -75.05 M20.05 -59.8 Q17.7 -57.0 16.45 -53.15 15.2 -49.55 15.2 -45.85 L15.25 -44.0 Q15.35 -42.6 15.75 -42.15 16.05 -42.2 16.3 -42.4 L16.3 -46.85 Q16.3 -49.3 16.85 -50.85 17.25 -52.15 19.0 -55.6 20.55 -58.65 20.55 -59.2 L20.45 -59.7 20.05 -59.8 M37.5 -49.85 Q32.85 -54.2 25.2 -53.4 19.3 -41.1 23.0 -31.95 L19.55 -29.6 Q18.95 -26.3 21.1 -25.6 25.9 -25.3 29.0 -24.1 32.05 -22.95 35.4 -23.35 34.8 -25.45 35.05 -26.85 34.25 -27.75 34.1 -28.35 34.35 -30.85 34.85 -32.75 L36.1 -34.05 Q37.35 -38.1 36.5 -38.55 35.65 -39.0 35.65 -39.4 L35.7 -40.3 35.75 -41.25 35.9 -42.3 36.1 -43.35 Q36.2 -43.8 37.05 -44.6 38.2 -47.5 37.5 -49.85 M40.1 -42.4 L40.1 -41.95 40.1 -41.55 40.3 -41.45 41.05 -41.35 Q42.8 -41.35 43.85 -41.85 44.65 -42.25 44.65 -42.65 L44.55 -43.1 44.4 -43.05 42.35 -42.85 40.2 -42.6 40.1 -42.4 M43.55 -32.25 L41.8 -31.45 Q40.35 -30.65 40.35 -29.95 40.35 -29.5 40.5 -29.4 L40.9 -29.3 42.5 -30.4 44.1 -31.7 43.55 -32.25 M93.95 -69.2 L94.1 -69.45 94.1 -69.9 94.0 -70.4 93.9 -70.5 84.95 -70.75 Q83.95 -70.7 83.95 -70.2 83.95 -69.8 84.05 -69.75 L84.15 -69.7 93.55 -69.15 93.95 -69.2" fill="#eeee00" fill-rule="evenodd" stroke="none"/>
      <path d="M54.55 -55.4 Q59.65 -54.7 63.85 -53.25 69.15 -51.4 70.5 -49.05 71.15 -47.35 71.1 -44.15 71.05 -40.5 71.35 -39.0 L71.35 -37.4 Q71.2 -37.2 70.85 -37.1 70.35 -38.65 70.1 -42.15 69.95 -45.4 69.25 -47.1 66.95 -52.55 54.55 -54.8 L54.55 -55.4 M30.75 -75.05 L30.3 -75.15 30.2 -75.35 Q30.35 -76.05 30.6 -76.2 L32.65 -76.25 32.85 -75.85 32.65 -75.4 Q32.25 -75.05 30.75 -75.05 M19.9 -70.8 Q22.4 -71.75 30.0 -71.95 L30.1 -72.0 30.2 -71.55 Q30.2 -70.95 29.0 -70.8 L21.65 -69.95 19.65 -69.15 17.9 -68.35 17.3 -68.5 17.1 -68.7 18.25 -69.8 Q18.95 -70.4 19.9 -70.8 M20.05 -59.8 L20.45 -59.7 20.55 -59.2 Q20.55 -58.65 19.0 -55.6 17.25 -52.15 16.85 -50.85 16.3 -49.3 16.3 -46.85 L16.3 -42.4 Q16.05 -42.2 15.75 -42.15 15.35 -42.6 15.25 -44.0 L15.2 -45.85 Q15.2 -49.55 16.45 -53.15 17.7 -57.0 20.05 -59.8 M40.1 -42.4 L40.2 -42.6 42.35 -42.85 44.4 -43.05 44.55 -43.1 44.65 -42.65 Q44.65 -42.25 43.85 -41.85 42.8 -41.35 41.05 -41.35 L40.3 -41.45 40.1 -41.55 40.1 -41.95 40.1 -42.4 M43.55 -32.25 L44.1 -31.7 42.5 -30.4 40.9 -29.3 40.5 -29.4 Q40.35 -29.5 40.35 -29.95 40.35 -30.65 41.8 -31.45 L43.55 -32.25 M93.95 -69.2 L93.55 -69.15 84.15 -69.7 84.05 -69.75 Q83.95 -69.8 83.95 -70.2 83.95 -70.7 84.95 -70.75 L93.9 -70.5 94.0 -70.4 94.1 -69.9 94.1 -69.45 93.95 -69.2" fill="#ffffdd" fill-rule="evenodd" stroke="none"/>
      <path d="M55.4 -53.05 L60.55 -50.7 Q58.55 -47.65 61.1 -43.0 61.45 -41.9 59.85 -42.25 56.6 -44.85 55.15 -47.55 54.5 -51.55 55.4 -53.05 M97.25 -37.6 L96.95 -44.95 Q94.4 -45.3 92.55 -47.2 90.25 -49.5 90.25 -52.7 90.25 -55.9 92.55 -58.2 94.4 -60.1 96.95 -60.4 L96.9 -66.15 99.65 -67.1 99.75 -70.1 Q101.5 -69.25 103.75 -68.3 L107.05 -66.85 113.95 -63.9 113.95 -40.55 Q107.05 -35.65 98.75 -33.2 L98.4 -35.4 97.3 -36.35 97.25 -37.6 M16.25 -28.9 Q17.9 -26.35 19.0 -22.95 L22.85 -22.2 33.45 -21.1 37.8 -21.1 Q38.25 -21.7 38.55 -22.9 L41.3 -22.95 43.2 -23.1 Q43.1 -22.55 43.4 -21.85 L43.9 -21.4 Q56.9 -8.5 53.1 -4.9 50.55 -1.35 35.15 -3.35 L34.65 -3.95 Q32.6 -7.0 32.6 -13.4 L32.65 -17.85 29.85 -18.0 24.05 -18.8 24.3 -15.0 Q24.3 -11.1 22.9 -8.0 L21.85 -6.1 16.55 -5.3 Q10.85 -6.9 10.25 -16.4 11.2 -22.0 16.25 -28.9 M37.5 -49.85 Q38.2 -47.5 37.05 -44.6 36.2 -43.8 36.1 -43.35 L35.9 -42.3 35.75 -41.25 35.7 -40.3 35.65 -39.4 Q35.65 -39.0 36.5 -38.55 37.35 -38.1 36.1 -34.05 L34.85 -32.75 Q34.35 -30.85 34.1 -28.35 34.25 -27.75 35.05 -26.85 34.8 -25.45 35.4 -23.35 32.05 -22.95 29.0 -24.1 25.9 -25.3 21.1 -25.6 18.95 -26.3 19.55 -29.6 L23.0 -31.95 Q19.3 -41.1 25.2 -53.4 32.85 -54.2 37.5 -49.85 M99.9 -57.7 Q98.25 -57.7 96.95 -56.75 L96.4 -56.2 Q94.9 -54.75 94.9 -52.7 94.9 -50.65 96.4 -49.15 L96.95 -48.65 Q98.25 -47.7 99.9 -47.7 101.95 -47.7 103.45 -49.15 104.9 -50.65 104.9 -52.7 104.9 -54.75 103.45 -56.2 101.95 -57.7 99.9 -57.7" fill="#000000" fill-rule="evenodd" stroke="none"/>
      <path d="M99.75 -70.1 L99.9 -73.0 Q106.9 -70.7 113.95 -66.65 L113.95 -63.9 107.05 -66.85 103.75 -68.3 Q101.5 -69.25 99.75 -70.1 M21.85 -6.1 L22.9 -8.0 Q24.3 -11.1 24.3 -15.0 L24.05 -18.8 29.85 -18.0 32.65 -17.85 32.6 -13.4 Q32.6 -7.0 34.65 -3.95 L35.15 -3.35 33.6 -3.55 Q28.65 -6.55 21.85 -6.1 M99.9 -57.7 Q101.95 -57.7 103.45 -56.2 104.9 -54.75 104.9 -52.7 104.9 -50.65 103.45 -49.15 101.95 -47.7 99.9 -47.7 98.25 -47.7 96.95 -48.65 L96.4 -49.15 Q94.9 -50.65 94.9 -52.7 94.9 -54.75 96.4 -56.2 L96.95 -56.75 Q98.25 -57.7 99.9 -57.7 M97.3 -36.35 L98.4 -35.4 98.75 -33.2 97.85 -32.95 Q86.45 -31.15 67.5 -32.3 L91.35 -34.0 97.3 -36.35" fill="#1a1a1a" fill-rule="evenodd" stroke="none"/>
      <path d="M51.15 -71.55 Q51.8 -69.0 54.25 -67.5 M51.15 -71.55 L51.05 -72.25 M68.0 -71.3 L68.05 -71.3 Q69.05 -68.6 72.0 -67.7 M82.15 -71.05 L84.85 -74.15 47.65 -74.25 Q40.35 -76.1 30.85 -77.35 26.8 -75.65 26.35 -73.7 L27.3 -73.9 Q33.9 -74.1 44.45 -73.6 M44.75 -49.6 L46.4 -50.95 M55.4 -53.05 L60.55 -50.7 67.2 -47.75 67.8 -40.25 Q68.2 -36.75 66.85 -36.05 65.9 -35.55 64.15 -36.4 L50.15 -45.1 49.95 -46.15 Q48.75 -53.15 53.95 -53.7 L55.4 -53.05 Q54.5 -51.55 55.15 -47.55 56.6 -44.85 59.85 -42.25 61.45 -41.9 61.1 -43.0 58.55 -47.65 60.55 -50.7 M97.25 -37.6 L96.95 -44.95 Q94.4 -45.3 92.55 -47.2 90.25 -49.5 90.25 -52.7 90.25 -55.9 92.55 -58.2 94.4 -60.1 96.95 -60.4 L96.9 -66.15 99.65 -67.1 99.75 -70.1 99.9 -73.0 97.4 -73.75 84.85 -74.15 M82.15 -71.05 L80.35 -69.0 Q77.35 -64.65 66.45 -65.7 55.5 -66.8 44.25 -66.3 32.85 -66.4 18.35 -62.5 18.35 -61.5 18.65 -59.95 13.95 -50.95 14.75 -38.0 L16.2 -29.55 16.3 -29.0 16.25 -28.9 Q17.9 -26.35 19.0 -22.95 L22.85 -22.2 33.45 -21.1 37.8 -21.1 Q38.25 -21.7 38.55 -22.9 L41.3 -22.95 43.2 -23.1 Q43.1 -22.55 43.4 -21.85 L43.9 -21.4 Q56.9 -8.5 53.1 -4.9 50.55 -1.35 35.15 -3.35 L33.6 -3.55 Q28.65 -6.55 21.85 -6.1 L16.55 -5.3 Q10.85 -6.9 10.25 -16.4 11.2 -22.0 16.25 -28.9 L16.2 -29.55 M44.6 -31.6 L43.75 -32.4 Q42.8 -33.75 43.3 -35.25 L44.1 -36.75 45.75 -38.05 Q46.5 -39.0 46.5 -40.25 46.45 -41.35 45.85 -42.7 L45.5 -43.25 44.3 -44.9 Q43.45 -46.0 43.85 -48.0 L44.75 -49.6 M62.45 -71.45 Q63.55 -68.65 66.55 -67.75 M56.4 -71.55 Q57.75 -68.7 61.3 -67.55 M18.35 -62.5 L16.0 -65.25 Q15.65 -65.95 15.55 -66.75 15.35 -68.75 16.9 -71.3 20.2 -72.95 26.35 -73.7 M44.6 -31.6 L45.5 -30.6 Q46.65 -28.0 45.9 -26.7 45.1 -25.4 43.95 -24.45 43.25 -23.85 43.2 -23.1 M67.5 -32.3 L45.5 -43.25 M99.9 -73.0 L99.95 -73.3 M99.9 -57.7 Q101.95 -57.7 103.45 -56.2 104.9 -54.75 104.9 -52.7 104.9 -50.65 103.45 -49.15 101.95 -47.7 99.9 -47.7 98.25 -47.7 96.95 -48.65 L96.4 -49.15 Q94.9 -50.65 94.9 -52.7 94.9 -54.75 96.4 -56.2 L96.95 -56.75 Q98.25 -57.7 99.9 -57.7 M113.95 -63.9 L113.95 -66.65 Q106.9 -70.7 99.9 -73.0 M97.3 -36.35 L98.4 -35.4 98.75 -33.2 Q107.05 -35.65 113.95 -40.55 L113.95 -63.9 M67.5 -32.3 L91.35 -34.0 97.3 -36.35 97.25 -37.6 M98.75 -33.2 L97.85 -32.95 Q86.45 -31.15 67.5 -32.3" fill="none" stroke="#000000" stroke-linecap="round" stroke-linejoin="round" stroke-opacity="0.5019608" stroke-width="1.0"/>
      <path d="M12.95 -54.0 L22.7 -54.35 30.7 -53.3 36.0 -52.5 37.85 -52.25 43.25 -51.4 52.3 -50.25 Q58.05 -49.4 59.0 -46.8 59.45 -45.55 58.65 -40.4 L57.95 -37.55 Q56.5 -34.8 52.55 -33.45 L45.9 -33.8 44.35 -33.9 45.55 -31.85 45.7 -31.35 Q46.1 -29.4 45.35 -27.55 42.0 -18.6 31.7 -20.75 L31.5 -20.75 Q32.25 -18.65 31.8 -16.65 L31.25 -15.2 Q29.5 -12.35 26.15 -11.6 L25.85 -11.55 23.8 -11.15 18.45 -10.9 14.9 -11.0 -7.1 -12.1 -14.15 -12.25 Q-23.0 -12.7 -31.7 -14.1 -36.25 -15.15 -39.35 -17.3 -47.8 -26.15 -53.3 -37.35 L-55.6 -41.8 -57.35 -46.0 Q-57.8 -47.15 -57.55 -47.9 L-56.8 -47.35 -56.4 -47.05 -55.2 -45.5 -54.85 -44.75 -53.7 -42.45 Q-49.1 -32.8 -43.05 -24.05 -40.6 -20.45 -37.05 -18.1 -35.05 -16.85 -32.4 -16.05 L-20.65 -14.7 -10.65 -14.25 11.65 -13.45 20.65 -13.05 23.05 -13.2 Q25.75 -13.25 27.7 -14.45 29.05 -15.4 30.0 -16.9 L30.4 -17.6 30.55 -18.3 30.55 -19.85 30.25 -20.75 30.1 -21.25 29.6 -22.4 30.3 -22.2 31.1 -22.3 33.15 -22.1 35.75 -22.15 Q43.05 -23.05 43.95 -30.75 L43.8 -31.25 42.75 -32.6 42.3 -33.15 41.75 -33.95 41.7 -34.3 40.05 -34.55 37.6 -34.95 Q37.8 -36.35 39.55 -36.2 L42.35 -35.55 46.9 -35.25 49.25 -35.0 Q51.75 -34.8 52.35 -35.0 55.5 -36.1 56.5 -38.55 L57.05 -41.2 57.5 -43.5 Q57.75 -45.4 57.5 -46.1 57.0 -47.5 53.8 -48.35 L50.6 -49.0 42.0 -50.0 33.85 -51.25 32.55 -51.35 23.85 -52.45 15.25 -53.1 12.35 -53.05 12.2 -53.25 12.2 -53.35 12.6 -53.75 12.95 -54.0 M-22.55 -56.2 L-23.4 -56.45 Q-22.3 -58.45 -17.75 -56.25 -13.45 -54.2 -12.9 -52.7 L-12.85 -52.6 -12.0 -52.5 -8.45 -51.85 4.85 -49.65 5.35 -49.55 Q5.4 -50.6 6.15 -52.3 L7.2 -54.7 8.65 -54.55 8.45 -53.9 7.3 -51.05 6.5 -49.05 6.9 -48.5 7.0 -48.05 7.05 -47.85 6.85 -47.65 6.3 -47.35 5.7 -47.35 -10.95 -50.8 -17.85 -51.25 Q-17.0 -52.35 -15.25 -52.6 L-17.5 -54.55 Q-18.3 -55.05 -20.15 -55.6 L-22.55 -56.2" fill="#000000" fill-rule="evenodd" stroke="none"/>
      <path d="M-56.4 -47.05 L-52.6 -49.2 Q-49.8 -50.65 -46.9 -51.7 -39.8 -54.3 -31.9 -55.1 L-22.55 -56.2 -20.15 -55.6 Q-18.3 -55.05 -17.5 -54.55 L-15.25 -52.6 Q-17.0 -52.35 -17.85 -51.25 L-10.95 -50.8 5.7 -47.35 6.3 -47.35 6.85 -47.65 7.05 -47.85 7.0 -48.05 6.9 -48.5 6.5 -49.05 7.3 -51.05 8.45 -53.9 8.65 -54.55 9.65 -54.4 12.95 -54.0 12.6 -53.75 12.2 -53.35 12.2 -53.25 12.35 -53.05 15.25 -53.1 23.85 -52.45 32.55 -51.35 33.85 -51.25 42.0 -50.0 50.6 -49.0 53.8 -48.35 54.4 -46.8 Q54.85 -44.85 54.1 -41.25 53.05 -37.4 51.5 -36.0 50.65 -35.25 49.25 -35.0 L46.9 -35.25 42.35 -35.55 39.55 -36.2 Q37.8 -36.35 37.6 -34.95 L40.05 -34.55 41.7 -34.3 41.75 -33.95 42.3 -33.15 41.4 -29.3 Q40.15 -24.1 37.55 -22.85 L35.75 -22.15 33.15 -22.1 31.1 -22.3 30.3 -22.2 29.6 -22.4 30.1 -21.25 30.25 -20.75 28.25 -15.85 27.7 -14.45 Q25.75 -13.25 23.05 -13.2 L20.65 -13.05 11.65 -13.45 -10.65 -14.25 -20.65 -14.7 Q-26.15 -16.85 -28.55 -17.3 -31.95 -17.95 -34.8 -19.7 -37.8 -21.5 -39.75 -24.05 L-48.5 -36.7 Q-52.25 -42.15 -55.2 -45.5 L-56.4 -47.05" fill="#999999" fill-rule="evenodd" stroke="none"/>
      <path d="M53.8 -48.35 Q57.0 -47.5 57.5 -46.1 57.75 -45.4 57.5 -43.5 L57.05 -41.2 56.5 -38.55 Q55.5 -36.1 52.35 -35.0 51.75 -34.8 49.25 -35.0 50.65 -35.25 51.5 -36.0 53.05 -37.4 54.1 -41.25 54.85 -44.85 54.4 -46.8 L53.8 -48.35 M42.3 -33.15 L42.75 -32.6 43.8 -31.25 43.95 -30.75 Q43.05 -23.05 35.75 -22.15 L37.55 -22.85 Q40.15 -24.1 41.4 -29.3 L42.3 -33.15 M30.25 -20.75 L30.55 -19.85 30.55 -18.3 30.4 -17.6 30.0 -16.9 Q29.05 -15.4 27.7 -14.45 L28.25 -15.85 30.25 -20.75 M-20.65 -14.7 L-32.4 -16.05 Q-35.05 -16.85 -37.05 -18.1 -40.6 -20.45 -43.05 -24.05 -49.1 -32.8 -53.7 -42.45 L-54.85 -44.75 -55.2 -45.5 Q-52.25 -42.15 -48.5 -36.7 L-39.75 -24.05 Q-37.8 -21.5 -34.8 -19.7 -31.95 -17.95 -28.55 -17.3 -26.15 -16.85 -20.65 -14.7" fill="#bdbdbd" fill-rule="evenodd" stroke="none"/>
    </g>
  </defs>
</svg>
