<?xml version="1.0" encoding="UTF-8" standalone="no"?>
<svg xmlns:xlink="http://www.w3.org/1999/xlink" height="531.5px" width="460.6px" xmlns="http://www.w3.org/2000/svg">
  <g transform="matrix(1.0, 0.0, 0.0, 1.0, 193.65, 334.05)">
    <use height="112.65" transform="matrix(1.0, 0.0, 0.0, 1.0, -63.3, -67.5)" width="87.25" xlink:href="#shape0"/>
  </g>
  <defs>
    <g id="shape0" transform="matrix(1.0, 0.0, 0.0, 1.0, 63.3, 67.5)">
      <path d="M1.95 -1.2 L2.05 -1.1 2.15 -1.05 2.1 -0.7 Q-3.7 -0.05 -6.75 4.4 -9.2 7.9 -9.9 13.85 L-9.8 14.6 -9.45 15.75 -9.5 16.0 -11.45 14.7 -11.85 13.75 Q-12.15 12.55 -11.9 10.6 L-11.2 6.45 -10.2 4.85 -9.75 4.1 Q-8.5 2.25 -6.85 1.1 L-5.85 0.55 Q-4.35 -0.3 -2.45 -0.75 L1.95 -1.2 M2.45 -0.85 L2.25 -1.5 Q3.75 -3.3 5.25 -4.5 L5.25 -3.15 Q5.4 -1.5 6.75 -1.35 L7.65 -1.65 8.4 -2.0 8.85 -1.6 8.25 -0.5 8.05 0.05 8.7 -0.35 Q9.6 -0.85 10.45 -1.1 L11.2 -1.3 Q15.0 -2.4 17.0 0.8 18.8 3.85 18.2 5.7 L18.15 5.75 Q17.95 7.2 17.15 7.4 L16.15 7.45 Q15.55 7.4 13.0 2.9 12.15 1.45 10.35 0.9 L7.8 0.55 7.3 2.25 4.85 1.25 Q4.55 1.05 4.25 1.0 L2.45 -0.85 M13.7 -6.85 Q16.8 -6.15 19.9 -3.3 L21.15 -1.7 20.2 -1.8 Q19.25 -2.95 18.1 -3.3 L15.4 -3.65 11.9 -3.7 11.95 -3.9 13.9 -3.85 14.1 -5.65 13.75 -6.25 13.7 -6.85 M17.4 29.7 L16.8 30.7 17.35 30.15 Q17.1 32.1 16.3 33.65 L15.95 34.25 Q14.85 36.15 13.0 37.5 9.75 40.0 6.55 39.65 L5.7 39.55 5.65 39.55 5.7 39.6 Q6.15 40.95 6.9 41.8 8.0 42.85 11.5 43.85 12.1 43.95 12.75 44.2 4.35 46.25 0.75 38.65 L3.15 37.6 3.0 37.6 2.9 36.85 2.85 36.0 2.75 35.85 2.6 35.7 2.1 35.4 Q3.65 35.2 5.45 34.35 7.1 33.5 7.6 32.8 L9.4 32.95 12.1 32.8 Q13.25 32.45 14.65 31.2 L14.65 31.35 14.75 31.3 15.1 30.85 15.5 30.45 17.6 28.15 17.45 29.25 17.4 29.7 M-3.9 37.65 Q-6.0 36.85 -7.9 35.25 -10.45 33.25 -12.7 30.0 L-12.55 28.8 -12.25 26.05 Q-12.0 25.3 -11.2 25.1 L-11.1 25.85 -10.8 27.85 Q-9.95 30.6 -6.6 32.7 -3.05 34.95 0.65 35.35 L0.65 35.45 -0.7 35.75 Q-1.45 35.7 -3.6 34.65 -4.7 34.55 -4.8 35.2 L-4.7 36.85 -3.9 37.65 M-27.3 33.85 L-27.25 30.75 -21.65 30.3 -21.4 30.45 -20.85 30.9 Q-21.45 32.35 -21.7 34.05 L-22.25 33.95 -23.35 34.25 -22.85 33.4 -22.5 32.55 Q-22.35 31.5 -23.9 31.35 -24.6 31.25 -25.55 32.2 L-27.3 33.85 M-39.8 41.45 L-41.05 40.9 -43.0 39.9 -42.9 39.9 Q-41.5 39.25 -41.4 38.7 L-41.7 35.7 -40.15 35.5 -39.4 35.55 -40.2 38.5 Q-40.35 39.95 -39.8 41.45 M-45.05 30.45 L-43.85 24.95 -44.8 18.45 -45.0 13.5 Q-46.9 10.8 -47.35 7.95 -47.7 6.25 -47.5 4.55 -47.2 2.8 -45.3 -0.3 -41.45 -2.9 -37.85 -3.85 -37.7 -3.05 -37.05 -2.45 L-36.65 -2.05 Q-37.65 -1.6 -38.25 -1.15 -39.7 -0.1 -40.65 1.55 -43.75 2.35 -47.5 4.55 -43.75 2.35 -40.65 1.55 -41.65 3.2 -42.3 5.65 L-42.6 7.65 Q-42.9 10.55 -41.4 12.5 -40.25 14.05 -38.65 14.4 L-38.15 14.45 -36.55 14.3 Q-35.4 13.95 -34.95 13.5 L-32.05 12.35 Q-30.15 10.3 -29.95 8.35 L-28.15 8.4 -27.7 8.45 -27.55 12.0 -27.7 8.45 Q-27.6 4.7 -26.8 1.55 -26.1 -0.65 -25.05 -2.5 L-23.2 -5.2 -18.3 -6.2 -20.95 -3.75 Q-22.45 -1.85 -22.95 1.95 L-23.65 2.3 -23.65 2.65 -23.0 2.7 -23.2 4.95 Q-23.4 8.95 -22.65 11.75 -19.3 12.2 -16.35 13.45 -15.3 13.9 -14.35 14.5 L-14.5 15.85 Q-17.3 13.05 -22.1 13.1 L-24.05 13.3 -22.1 13.1 Q-17.3 13.05 -14.5 15.85 L-14.7 17.7 -14.75 17.95 Q-14.75 18.8 -15.3 19.2 L-15.75 19.4 -16.65 19.75 -20.3 20.95 Q-24.2 22.05 -26.15 21.8 -27.35 21.7 -29.9 19.9 -32.45 18.1 -33.6 18.0 -35.9 17.7 -37.85 20.35 -38.65 21.35 -39.05 22.5 -39.45 23.6 -39.5 24.75 L-39.6 25.1 -39.95 25.9 -40.45 28.5 -40.65 32.15 -42.15 31.7 Q-41.6 30.8 -42.0 30.6 L-43.2 30.35 -45.05 30.45 M1.7 23.0 Q2.1 22.95 3.05 25.35 3.35 26.15 3.25 27.45 2.95 29.8 1.2 31.05 -0.05 32.05 -1.45 32.1 L-0.75 31.5 Q0.3 29.7 -0.5 28.7 L-0.25 28.6 Q2.25 25.9 1.7 23.0 M5.2 37.85 L5.1 37.85 4.0 38.15 Q4.2 39.05 4.9 39.35 L5.65 39.55 5.2 37.85 M3.15 37.6 L5.1 37.85 3.15 37.6 M-45.0 13.5 Q-42.3 14.95 -38.65 14.4 -42.3 14.95 -45.0 13.5 M-27.6 12.05 L-27.45 12.0 -27.55 12.0 -27.6 12.05 -27.4 13.65 Q-23.75 19.05 -14.7 17.7 -23.75 19.05 -27.4 13.65 L-27.6 12.05" fill="#8cd185" fill-rule="evenodd" stroke="none"/>
      <path d="M2.15 -1.05 L2.05 -1.1 1.95 -1.2 2.25 -1.5 2.45 -0.85 2.15 -1.05 M8.05 0.05 L8.25 -0.5 8.85 -1.6 Q9.4 -1.2 9.85 -1.15 L10.45 -1.1 Q9.6 -0.85 8.7 -0.35 L8.05 0.05 M14.65 31.2 L14.75 31.3 14.65 31.35 14.65 31.2 M0.65 35.35 L0.7 35.35 0.65 35.45 0.65 35.35 M5.7 39.6 L5.65 39.55 5.7 39.55 5.7 39.6 M5.2 37.85 L5.65 39.55 4.9 39.35 Q4.2 39.05 4.0 38.15 L5.1 37.85 5.2 37.85 M-14.5 15.85 Q-13.75 16.55 -13.15 17.45 L-14.7 17.7 -14.5 15.85 M-34.95 13.5 Q-35.4 13.95 -36.55 14.3 L-38.15 14.45 -38.65 14.4 -35.2 13.65 -34.95 13.5 M-27.55 12.0 L-27.45 12.0 -27.6 12.05 -27.55 12.0 M-34.8 24.65 L-34.65 24.65 -34.65 24.7 -34.8 24.65" fill="#bcfec9" fill-rule="evenodd" stroke="none"/>
      <path d="M-6.75 4.4 Q-3.7 -0.05 2.1 -0.7 L2.15 -1.05 2.45 -0.85 4.25 1.0 Q4.55 1.05 4.85 1.25 L7.3 2.25 7.8 0.55 10.35 0.9 Q12.15 1.45 13.0 2.9 15.55 7.4 16.15 7.45 L17.15 7.4 Q17.95 7.2 18.15 5.75 20.55 7.85 21.85 10.1 21.15 11.35 19.9 12.65 L19.8 12.25 19.7 12.05 17.2 11.55 15.35 11.3 Q14.55 11.35 14.45 12.3 L14.4 13.15 15.2 14.25 12.75 14.95 Q12.0 15.3 11.2 16.4 L11.15 16.4 Q9.5 11.25 7.5 9.05 4.5 5.55 -0.55 5.0 L-6.75 4.4 M21.15 -1.7 Q25.05 3.8 22.3 9.25 21.5 8.05 20.7 5.75 19.25 1.05 18.8 0.25 16.9 -3.0 14.45 -3.0 L11.9 -3.4 11.9 -3.7 15.4 -3.65 18.1 -3.3 Q19.25 -2.95 20.2 -1.8 L21.15 -1.7 M20.5 19.65 Q20.45 22.35 19.65 24.9 L17.95 25.1 Q13.35 24.55 11.95 19.35 L11.1 16.45 11.2 16.4 Q12.05 17.95 15.65 17.85 17.1 17.8 17.4 18.85 17.7 19.9 19.0 20.05 19.85 20.15 20.5 19.65 M-9.2 35.7 L-13.4 36.85 -13.45 37.2 -13.5 37.7 -13.9 42.6 Q-16.15 43.55 -18.5 43.4 L-18.45 42.55 -17.65 39.7 -17.65 39.55 -17.05 37.1 -17.4 35.1 Q-17.65 33.25 -17.5 31.85 -17.4 31.15 -17.15 31.15 L-16.0 31.3 Q-13.9 31.5 -11.7 33.2 -10.25 34.25 -9.2 35.7 M-28.05 30.8 L-29.55 39.15 Q-33.0 36.45 -36.9 35.75 L-36.7 33.95 Q-36.4 31.25 -35.1 29.85 -34.35 29.1 -33.45 28.95 -32.7 29.25 -32.05 29.6 -30.05 30.45 -28.05 30.8 M-29.05 -4.1 L-27.65 -3.75 -27.7 -3.35 Q-27.95 -1.05 -27.15 0.8 L-28.15 2.55 Q-29.5 4.6 -30.25 4.55 L-31.45 4.1 -32.2 3.05 Q-35.25 0.1 -40.65 1.55 -39.7 -0.1 -38.25 -1.15 -37.65 -1.6 -36.65 -2.05 -36.05 -1.65 -35.35 -1.6 -34.7 -1.5 -33.8 -1.9 -32.85 -2.25 -32.65 -2.85 L-30.4 -2.55 Q-29.15 -2.4 -29.0 -3.75 L-29.05 -4.1 M-18.3 -6.2 Q-12.65 -6.75 -9.15 -3.75 L-11.0 -3.55 Q-13.15 -3.8 -13.3 -2.45 L-13.15 -1.95 Q-12.9 -1.65 -12.95 -1.0 L-14.85 -0.75 Q-15.75 -0.7 -15.8 0.05 -16.8 0.4 -17.6 1.05 L-18.0 1.1 Q-18.9 1.3 -19.0 2.35 L-18.95 2.9 Q-20.45 6.05 -21.2 5.95 L-23.2 4.95 -23.0 2.7 -21.7 2.85 Q-21.15 2.5 -20.85 2.45 -21.2 2.0 -21.75 1.95 L-22.6 1.85 -22.95 1.95 Q-22.45 -1.85 -20.95 -3.75 L-18.3 -6.2 M18.5 9.85 L19.7 12.05 18.5 9.85 M15.15 22.2 L17.1 22.4 Q16.7 21.4 15.9 21.3 L14.95 21.35 14.9 22.0 15.15 22.2" fill="#deffe6" fill-rule="evenodd" stroke="none"/>
      <path d="M-5.85 0.55 L-6.85 1.1 Q-8.5 2.25 -9.75 4.1 L-10.2 4.85 -10.65 4.8 Q-12.25 4.7 -13.15 4.0 -14.25 3.2 -14.85 3.15 L-17.6 3.35 -18.95 2.9 -19.0 2.35 Q-18.9 1.3 -18.0 1.1 L-17.6 1.05 -15.5 0.7 Q-15.9 0.65 -15.8 0.05 -15.75 -0.7 -14.85 -0.75 L-12.95 -1.0 Q-12.9 -1.65 -13.15 -1.95 L-13.3 -2.45 Q-13.15 -3.8 -11.0 -3.55 L-9.15 -3.75 -7.05 -1.45 -6.95 -1.35 -5.85 0.55 M7.95 -4.5 Q7.9 -4.15 8.05 -4.2 L8.35 -4.1 Q10.9 -4.75 12.0 -5.3 L12.0 -5.6 11.05 -5.8 9.5 -5.65 Q8.05 -5.3 7.95 -4.5 M8.85 -1.6 L8.4 -2.0 7.65 -1.65 6.75 -1.35 Q5.4 -1.5 5.25 -3.15 L5.25 -4.5 Q7.6 -6.25 9.9 -6.8 11.85 -7.2 13.7 -6.85 L13.75 -6.25 14.1 -5.65 13.9 -3.85 11.95 -3.9 11.9 -3.7 11.9 -3.4 11.6 -1.85 11.2 -1.3 10.45 -1.1 9.85 -1.15 Q9.4 -1.2 8.85 -1.6 M19.9 12.65 L20.2 13.95 Q20.65 16.95 20.5 19.65 19.85 20.15 19.0 20.05 17.7 19.9 17.4 18.85 17.1 17.8 15.65 17.85 12.05 17.95 11.2 16.4 12.0 15.3 12.75 14.95 L15.2 14.25 14.4 13.15 14.45 12.3 Q14.55 11.35 15.35 11.3 L17.2 11.55 19.7 12.05 19.8 12.25 19.9 12.65 M3.0 37.6 L-2.2 38.15 -2.3 38.1 -3.9 37.65 -4.7 36.85 -4.8 35.2 Q-4.7 34.55 -3.6 34.65 -1.45 35.7 -0.7 35.75 L0.65 35.45 0.7 35.35 1.5 35.1 2.1 35.4 2.6 35.7 2.75 35.85 2.85 36.0 2.9 36.85 3.0 37.6 M-23.55 42.3 L-27.6 39.85 -27.4 37.75 -27.3 33.85 -25.55 32.2 Q-24.6 31.25 -23.9 31.35 -22.35 31.5 -22.5 32.55 L-22.85 33.4 -23.35 34.25 -22.25 33.95 -21.7 34.05 -21.45 34.05 -21.65 35.8 -21.7 36.45 -21.2 37.8 -20.55 38.0 Q-20.35 38.45 -20.4 38.85 -20.6 40.5 -22.7 41.8 L-23.15 42.05 -23.55 42.3 M-43.0 39.9 Q-45.1 38.55 -45.7 36.55 -46.1 35.0 -45.65 33.25 L-45.35 32.1 -45.05 30.45 -43.2 30.35 -42.0 30.6 Q-41.6 30.8 -42.15 31.7 L-40.65 32.15 -39.95 32.35 Q-39.1 32.6 -39.2 33.6 L-39.55 34.5 -40.15 35.5 -41.7 35.7 -41.4 38.7 Q-41.5 39.25 -42.9 39.9 L-43.0 39.9 M-37.85 -3.85 Q-34.2 -4.95 -30.65 -4.4 L-29.05 -4.1 -29.0 -3.75 Q-29.15 -2.4 -30.4 -2.55 L-32.65 -2.85 Q-32.85 -2.25 -33.8 -1.9 -34.7 -1.5 -35.35 -1.6 -36.05 -1.65 -36.65 -2.05 L-37.05 -2.45 Q-37.7 -3.05 -37.85 -3.85 M1.25 12.15 Q1.3 11.5 1.5 11.35 2.45 11.5 2.35 12.4 L2.8 13.65 1.65 13.5 Q1.15 12.8 1.25 12.15 M17.35 13.15 Q17.2 12.75 16.85 12.7 L16.2 13.2 16.6 13.6 17.35 13.15 M18.65 13.3 L18.0 13.3 17.75 13.7 Q18.1 14.55 18.65 14.65 L19.15 14.65 Q19.4 13.7 19.1 13.4 L18.65 13.3 M15.15 22.2 L14.9 22.0 14.95 21.35 15.9 21.3 Q16.7 21.4 17.1 22.4 L15.15 22.2 M-36.15 -3.1 L-36.0 -2.75 -35.6 -2.65 -33.45 -3.2 Q-33.6 -3.6 -34.2 -3.65 L-35.1 -3.55 Q-36.1 -3.45 -36.15 -3.1 M-10.95 -2.75 L-11.3 -2.15 Q-11.35 -1.85 -11.0 -1.4 L-10.65 -1.55 -10.55 -2.7 -10.95 -2.75 M-10.15 -2.1 L-10.3 -1.3 Q-10.35 -0.7 -9.9 -0.35 L-9.85 -0.35 -9.45 0.15 -9.65 0.15 -10.15 0.5 -10.5 1.0 -10.1 1.45 Q-9.45 1.25 -9.3 0.35 L-8.9 0.05 Q-8.7 -0.5 -8.9 -1.0 L-9.2 -1.3 -9.15 -1.35 -9.65 -2.25 -10.15 -2.1 M-22.95 1.95 L-22.6 1.85 -21.75 1.95 Q-21.2 2.0 -20.85 2.45 -21.15 2.5 -21.7 2.85 L-23.0 2.7 -23.65 2.65 -23.65 2.3 -22.95 1.95 M-2.85 5.55 L-2.6 5.8 -2.45 6.25 Q-2.0 6.3 -1.4 6.65 -0.2 7.3 -0.3 8.2 -0.45 9.35 -2.6 8.9 -2.0 9.15 -2.2 10.8 -2.3 11.55 -3.15 12.15 -3.9 12.7 -4.45 12.65 -5.6 12.5 -6.45 11.6 -7.3 10.7 -7.2 9.8 -7.05 8.45 -5.55 8.95 -6.15 7.5 -6.05 6.6 -5.85 5.1 -3.6 5.35 L-2.85 5.55 M-33.45 28.95 L-35.8 27.55 -36.25 26.2 -36.05 24.5 -34.8 24.65 -35.7 23.75 Q-36.05 23.3 -35.95 22.25 -35.85 21.35 -34.5 20.45 -33.25 19.4 -32.4 19.5 -31.1 19.65 -30.85 20.25 -30.45 21.15 -30.8 23.6 L-30.5 22.9 -28.9 23.05 -28.55 23.65 Q-28.4 23.85 -28.5 24.4 -28.65 26.0 -30.75 26.7 -30.85 27.25 -30.55 28.4 -30.65 29.2 -30.95 29.3 L-32.05 29.6 Q-32.7 29.25 -33.45 28.95 M-29.95 8.35 Q-30.15 10.3 -32.05 12.35 L-34.95 13.5 -35.2 13.65 Q-35.6 13.25 -36.0 13.0 L-36.6 12.2 -37.6 12.05 -39.15 12.2 Q-40.7 12.05 -40.55 10.65 -40.5 10.2 -38.9 9.3 -37.2 8.5 -37.15 8.25 -36.4 6.5 -35.25 6.3 L-33.55 6.35 -33.5 5.9 Q-34.0 5.35 -33.95 4.65 -33.8 3.7 -32.3 3.9 L-31.45 4.1 Q-29.7 6.15 -29.95 8.35 M-31.6 9.25 Q-31.1 7.95 -31.75 7.9 L-32.3 8.0 Q-33.1 7.9 -33.2 8.7 L-33.15 9.05 -32.85 9.15 -32.55 9.2 -32.75 9.6 -32.95 9.9 Q-33.0 10.3 -32.75 10.3 -32.05 10.4 -31.6 9.25 M-36.15 8.6 L-36.35 9.05 -36.0 9.55 -35.1 8.9 -35.4 8.7 -36.15 8.6 M-34.8 24.65 L-34.65 24.7 -34.65 24.65 -34.8 24.65 M-31.8 23.0 L-32.1 23.0 -32.15 23.55 -31.8 24.15 -31.8 24.2 -31.7 24.5 -31.0 24.6 -30.85 24.55 -30.45 24.6 -30.55 24.3 Q-30.5 24.05 -30.8 23.85 L-31.4 23.8 -31.7 23.05 -31.8 23.0 M-31.15 20.9 L-31.7 20.4 -31.95 20.5 -32.0 21.15 -31.95 21.2 -31.7 21.2 -31.8 21.8 -31.95 21.8 -32.25 21.75 Q-33.05 21.65 -33.1 22.1 L-32.95 22.5 -32.3 22.7 -31.6 22.55 -31.7 22.1 -31.35 21.9 Q-30.85 21.45 -31.15 20.9 M-26.0 33.05 Q-26.05 33.7 -25.7 33.7 L-25.05 34.2 -24.8 34.15 -24.8 34.1 -24.1 32.85 Q-23.75 32.25 -24.2 31.9 -24.65 31.85 -25.3 32.25 -25.95 32.6 -26.0 33.05 M-40.05 33.9 L-39.9 33.55 Q-39.8 32.65 -40.85 32.55 L-41.2 32.5 -41.65 32.65 -41.6 32.9 -40.8 32.9 Q-40.45 32.95 -40.3 33.3 L-40.05 33.9 M-27.4 37.75 L-21.7 37.6 -21.2 37.8 -21.7 37.6 -27.4 37.75 M-41.7 35.7 Q-43.6 35.9 -45.7 36.55 -43.6 35.9 -41.7 35.7" fill="#03c92b" fill-rule="evenodd" stroke="none"/>
      <path d="M7.95 -4.5 Q8.05 -5.3 9.5 -5.65 L11.05 -5.8 12.0 -5.6 12.0 -5.3 Q10.9 -4.75 8.35 -4.1 L8.05 -4.2 Q7.9 -4.15 7.95 -4.5 M18.65 13.3 L19.1 13.4 Q19.4 13.7 19.15 14.65 L18.65 14.65 Q18.1 14.55 17.75 13.7 L18.0 13.3 18.65 13.3 M17.35 13.15 L16.6 13.6 16.2 13.2 16.85 12.7 Q17.2 12.75 17.35 13.15 M-36.15 -3.1 Q-36.1 -3.45 -35.1 -3.55 L-34.2 -3.65 Q-33.6 -3.6 -33.45 -3.2 L-35.6 -2.65 -36.0 -2.75 -36.15 -3.1 M-10.15 -2.1 L-9.65 -2.25 -9.15 -1.35 -9.2 -1.3 -8.9 -1.0 Q-8.7 -0.5 -8.9 0.05 L-9.3 0.35 Q-9.45 1.25 -10.1 1.45 L-10.5 1.0 -10.15 0.5 -9.65 0.15 -9.45 0.15 -9.85 -0.35 -9.9 -0.35 Q-10.35 -0.7 -10.3 -1.3 L-10.15 -2.1 M-10.95 -2.75 L-10.55 -2.7 -10.65 -1.55 -11.0 -1.4 Q-11.35 -1.85 -11.3 -2.15 L-10.95 -2.75 M-36.15 8.6 L-35.4 8.7 -35.1 8.9 -36.0 9.55 -36.35 9.05 -36.15 8.6 M-31.6 9.25 Q-32.05 10.4 -32.75 10.3 -33.0 10.3 -32.95 9.9 L-32.75 9.6 -32.55 9.2 -32.85 9.15 -33.15 9.05 -33.2 8.7 Q-33.1 7.9 -32.3 8.0 L-31.75 7.9 Q-31.1 7.95 -31.6 9.25 M-31.15 20.9 Q-30.85 21.45 -31.35 21.9 L-31.7 22.1 -31.6 22.55 -32.3 22.7 -32.95 22.5 -33.1 22.1 Q-33.05 21.65 -32.25 21.75 L-31.95 21.8 -31.8 21.8 -31.7 21.2 -31.95 21.2 -32.0 21.15 -31.95 20.5 -31.7 20.4 -31.15 20.9 M-31.8 23.0 L-31.7 23.05 -31.4 23.8 -30.8 23.85 Q-30.5 24.05 -30.55 24.3 L-30.45 24.6 -30.85 24.55 -31.0 24.6 -31.7 24.5 -31.8 24.2 -31.8 24.15 -32.15 23.55 -32.1 23.0 -31.8 23.0 M-26.0 33.05 Q-25.95 32.6 -25.3 32.25 -24.65 31.85 -24.2 31.9 -23.75 32.25 -24.1 32.85 L-24.8 34.1 -24.8 34.15 -25.05 34.2 -25.7 33.7 Q-26.05 33.7 -26.0 33.05 M-40.05 33.9 L-40.3 33.3 Q-40.45 32.95 -40.8 32.9 L-41.6 32.9 -41.65 32.65 -41.2 32.5 -40.85 32.55 Q-39.8 32.65 -39.9 33.55 L-40.05 33.9" fill="#ffffff" fill-rule="evenodd" stroke="none"/>
      <path d="M-10.2 4.85 L-11.2 6.45 -11.9 10.6 Q-12.15 12.55 -11.85 13.75 L-11.45 14.7 -9.5 16.0 -9.45 15.75 -9.8 14.6 -9.9 13.85 Q-9.2 7.9 -6.75 4.4 L-0.55 5.0 Q4.5 5.55 7.5 9.05 9.5 11.25 11.15 16.4 L11.2 16.4 11.1 16.45 11.95 19.35 Q13.35 24.55 17.95 25.1 L19.65 24.9 18.9 27.0 18.45 27.9 18.0 28.85 17.4 29.7 17.45 29.25 17.6 28.15 15.5 30.45 15.1 30.85 14.75 31.3 14.65 31.2 Q13.25 32.45 12.1 32.8 L9.4 32.95 7.6 32.8 Q7.1 33.5 5.45 34.35 3.65 35.2 2.1 35.4 L1.5 35.1 0.7 35.35 0.65 35.35 Q-3.05 34.95 -6.6 32.7 -9.95 30.6 -10.8 27.85 L-11.1 25.85 -11.2 25.1 Q-12.0 25.3 -12.25 26.05 L-12.55 28.8 -12.7 30.0 Q-10.45 33.25 -7.9 35.25 L-9.2 35.7 Q-10.25 34.25 -11.7 33.2 -13.9 31.5 -16.0 31.3 L-17.15 31.15 Q-17.4 31.15 -17.5 31.85 -17.65 33.25 -17.4 35.1 L-17.05 37.1 -17.65 39.55 Q-19.05 38.55 -20.55 38.0 -19.05 38.55 -17.65 39.55 L-17.65 39.7 -18.45 42.55 -18.5 43.4 Q-20.8 43.35 -23.1 42.4 L-23.55 42.3 -23.15 42.05 -22.7 41.8 Q-20.6 40.5 -20.4 38.85 -20.35 38.45 -20.55 38.0 L-21.2 37.8 -21.7 36.45 -21.65 35.8 -21.45 34.05 -21.7 34.05 Q-21.45 32.35 -20.85 30.9 L-21.4 30.45 -21.65 30.3 -27.25 30.75 -28.0 30.8 -28.05 30.8 Q-30.05 30.45 -32.05 29.6 L-30.95 29.3 Q-30.65 29.2 -30.55 28.4 -30.85 27.25 -30.75 26.7 -28.65 26.0 -28.5 24.4 -28.4 23.85 -28.55 23.65 L-28.9 23.05 -30.5 22.9 -30.8 23.6 Q-30.45 21.15 -30.85 20.25 -31.1 19.65 -32.4 19.5 -33.25 19.4 -34.5 20.45 -35.85 21.35 -35.95 22.25 -36.05 23.3 -35.7 23.75 L-34.8 24.65 -36.05 24.5 -36.25 26.2 -35.8 27.55 -33.45 28.95 Q-34.35 29.1 -35.1 29.85 -36.4 31.25 -36.7 33.95 L-36.9 35.75 -39.4 35.55 -36.9 35.75 Q-33.0 36.45 -29.55 39.15 -32.65 41.55 -35.75 41.9 L-39.8 41.45 Q-40.35 39.95 -40.2 38.5 L-39.4 35.55 -40.15 35.5 -39.55 34.5 -39.2 33.6 Q-39.1 32.6 -39.95 32.35 L-40.65 32.15 -40.45 28.5 -39.95 25.9 -39.6 25.1 -39.5 24.75 Q-39.45 23.6 -39.05 22.5 -38.65 21.35 -37.85 20.35 -35.9 17.7 -33.6 18.0 -32.45 18.1 -29.9 19.9 -27.35 21.7 -26.15 21.8 -24.2 22.05 -20.3 20.95 L-16.65 19.75 -15.75 19.4 -15.3 19.2 Q-14.75 18.8 -14.75 17.95 L-14.7 17.7 -13.15 17.45 Q-13.75 16.55 -14.5 15.85 L-14.35 14.5 Q-15.3 13.9 -16.35 13.45 -19.3 12.2 -22.65 11.75 -23.4 8.95 -23.2 4.95 L-21.2 5.95 Q-20.45 6.05 -18.95 2.9 L-17.6 3.35 -14.85 3.15 Q-14.25 3.2 -13.15 4.0 -12.25 4.7 -10.65 4.8 L-10.2 4.85 M22.3 9.25 L21.85 10.1 Q20.55 7.85 18.15 5.75 L18.2 5.7 Q18.8 3.85 17.0 0.8 15.0 -2.4 11.2 -1.3 L11.6 -1.85 11.9 -3.4 14.45 -3.0 Q16.9 -3.0 18.8 0.25 19.25 1.05 20.7 5.75 21.5 8.05 22.3 9.25 M17.35 30.15 L18.65 29.05 Q23.45 40.8 13.95 43.8 L12.75 44.2 Q12.1 43.95 11.5 43.85 8.0 42.85 6.9 41.8 6.15 40.95 5.7 39.6 L5.7 39.55 6.55 39.65 Q9.75 40.0 13.0 37.5 14.85 36.15 15.95 34.25 L16.3 33.65 Q17.1 32.1 17.35 30.15 M-27.65 -3.75 L-26.0 -2.95 Q-25.45 -2.85 -25.05 -2.5 -26.1 -0.65 -26.8 1.55 -27.6 4.7 -27.7 8.45 L-28.15 8.4 -29.95 8.35 Q-29.7 6.15 -31.45 4.1 L-30.25 4.55 Q-29.5 4.6 -28.15 2.55 L-27.15 0.8 Q-27.95 -1.05 -27.7 -3.35 L-27.65 -3.75 M1.25 12.15 Q1.15 12.8 1.65 13.5 L2.8 13.65 2.35 12.4 Q2.45 11.5 1.5 11.35 1.3 11.5 1.25 12.15 M-0.5 28.7 Q0.3 29.7 -0.75 31.5 L-1.45 32.1 Q-0.05 32.05 1.2 31.05 2.95 29.8 3.25 27.45 3.35 26.15 3.05 25.35 2.1 22.95 1.7 23.0 2.25 25.9 -0.25 28.6 L-0.5 28.7 M-1.0 17.85 Q1.3 20.6 1.7 23.0 1.3 20.6 -1.0 17.85 M10.0 40.8 Q16.85 40.55 15.95 34.25 16.85 40.55 10.0 40.8 M-40.65 1.55 Q-35.25 0.1 -32.2 3.05 L-31.45 4.1 -32.3 3.9 Q-33.8 3.7 -33.95 4.65 -34.0 5.35 -33.5 5.9 L-33.55 6.35 -35.25 6.3 Q-36.4 6.5 -37.15 8.25 -37.2 8.5 -38.9 9.3 -40.5 10.2 -40.55 10.65 -40.7 12.05 -39.15 12.2 L-37.6 12.05 -36.6 12.2 -36.0 13.0 Q-35.6 13.25 -35.2 13.65 L-38.65 14.4 Q-40.25 14.05 -41.4 12.5 -42.9 10.55 -42.6 7.65 L-42.3 5.65 Q-41.65 3.2 -40.65 1.55 M-2.85 5.55 L-3.6 5.35 Q-5.85 5.1 -6.05 6.6 -6.15 7.5 -5.55 8.95 -7.05 8.45 -7.2 9.8 -7.3 10.7 -6.45 11.6 -5.6 12.5 -4.45 12.65 -3.9 12.7 -3.15 12.15 -2.3 11.55 -2.2 10.8 -2.0 9.15 -2.6 8.9 -0.45 9.35 -0.3 8.2 -0.2 7.3 -1.4 6.65 -2.0 6.3 -2.45 6.25 L-2.6 5.8 -2.85 5.55 M-11.85 13.75 L-13.15 17.45 -11.85 13.75 M-37.2 26.5 L-35.8 27.55 -37.2 26.5 M-5.05 24.75 L-2.65 26.55 -2.0 22.2 -5.05 24.75" fill="#c8ffbd" fill-rule="evenodd" stroke="none"/>
      <path d="M-15.8 0.05 Q-15.9 0.65 -15.5 0.7 L-17.6 1.05 Q-16.8 0.4 -15.8 0.05" fill="#ffd2bd" fill-rule="evenodd" stroke="none"/>
      <path d="M-5.05 24.75 L-2.0 22.2 -2.65 26.55 -5.05 24.75" fill="#d19f85" fill-rule="evenodd" stroke="none"/>
      <path d="M2.15 -1.05 L2.05 -1.1 1.95 -1.2 -2.45 -0.75 Q-4.35 -0.3 -5.85 0.55 L-6.85 1.1 Q-8.5 2.25 -9.75 4.1 L-10.2 4.85 -11.2 6.45 M2.15 -1.05 L2.45 -0.85 4.25 1.0 M2.25 -1.5 L1.95 -1.2 M5.25 -4.5 Q3.75 -3.3 2.25 -1.5 M8.05 0.05 L8.7 -0.35 Q9.6 -0.85 10.45 -1.1 M5.25 -4.5 Q7.6 -6.25 9.9 -6.8 11.85 -7.2 13.7 -6.85 16.8 -6.15 19.9 -3.3 L21.15 -1.7 Q25.05 3.8 22.3 9.25 L21.85 10.1 Q21.15 11.35 19.9 12.65 L20.2 13.95 Q20.65 16.95 20.5 19.65 20.45 22.35 19.65 24.9 L18.9 27.0 18.45 27.9 18.0 28.85 17.4 29.7 16.8 30.7 17.35 30.15 18.65 29.05 Q23.45 40.8 13.95 43.8 L12.75 44.2 Q4.35 46.25 0.75 38.65 L3.15 37.6 3.0 37.6 -2.2 38.15 -2.3 38.1 -3.9 37.65 Q-6.0 36.85 -7.9 35.25 L-9.2 35.7 -13.4 36.85 -13.45 37.2 M-13.5 37.7 L-13.9 42.6 Q-16.15 43.55 -18.5 43.4 -20.8 43.35 -23.1 42.4 L-23.55 42.3 -27.6 39.85 -27.4 37.75 -27.3 33.85 -27.25 30.75 -28.0 30.8 -28.05 30.8 -29.55 39.15 Q-32.65 41.55 -35.75 41.9 L-39.8 41.45 -41.05 40.9 -43.0 39.9 Q-45.1 38.55 -45.7 36.55 -46.1 35.0 -45.65 33.25 L-45.35 32.1 -45.05 30.45 -43.85 24.95 -44.8 18.45 -45.0 13.5 Q-46.9 10.8 -47.35 7.95 -47.7 6.25 -47.5 4.55 -47.2 2.8 -45.3 -0.3 -41.45 -2.9 -37.85 -3.85 -34.2 -4.95 -30.65 -4.4 L-29.05 -4.1 -27.65 -3.75 -26.0 -2.95 Q-25.45 -2.85 -25.05 -2.5 L-23.2 -5.2 -18.3 -6.2 Q-12.65 -6.75 -9.15 -3.75 L-7.05 -1.45 -6.95 -1.35 -5.85 0.55 M11.2 -1.3 Q15.0 -2.4 17.0 0.8 18.8 3.85 18.2 5.7 L18.15 5.75 Q17.95 7.2 17.15 7.4 M19.7 12.05 L18.5 9.85 M19.7 12.05 L19.8 12.25 19.9 12.65 M15.95 34.25 L16.3 33.65 M-0.5 28.7 L-0.25 28.6 Q2.25 25.9 1.7 23.0 1.3 20.6 -1.0 17.85 M15.95 34.25 Q16.85 40.55 10.0 40.8 M5.1 37.85 L3.15 37.6 M-40.65 1.55 Q-35.25 0.1 -32.2 3.05 L-31.45 4.1 Q-29.7 6.15 -29.95 8.35 -30.15 10.3 -32.05 12.35 L-34.95 13.5 -35.2 13.65 -38.65 14.4 Q-42.3 14.95 -45.0 13.5 M-14.5 15.85 Q-13.75 16.55 -13.15 17.45 L-11.85 13.75 M-14.5 15.85 Q-17.3 13.05 -22.1 13.1 L-24.05 13.3 M-13.15 17.45 L-14.7 17.7 Q-23.75 19.05 -27.4 13.65 L-27.6 12.05 -27.55 12.0 -27.7 8.45 Q-27.6 4.7 -26.8 1.55 -26.1 -0.65 -25.05 -2.5 M-40.15 35.5 L-39.4 35.55 -36.9 35.75 Q-33.0 36.45 -29.55 39.15 M-33.45 28.95 L-35.8 27.55 -37.2 26.5 M-21.2 37.8 L-20.55 38.0 Q-19.05 38.55 -17.65 39.55 L-17.65 39.7 M-27.25 30.75 L-21.65 30.3 M-33.45 28.95 Q-32.7 29.25 -32.05 29.6 -30.05 30.45 -28.05 30.8 M-21.2 37.8 L-21.7 37.6 -27.4 37.75 M-5.05 24.75 L-2.0 22.2 -2.65 26.55 -5.05 24.75 M-7.9 35.25 Q-10.45 33.25 -12.7 30.0 M-47.5 4.55 Q-43.75 2.35 -40.65 1.55 M-45.7 36.55 Q-43.6 35.9 -41.7 35.7 L-40.15 35.5" fill="none" stroke="#2e4732" stroke-linecap="round" stroke-linejoin="round" stroke-opacity="0.6627451" stroke-width="1.0"/>
      <path d="M-45.55 -66.8 L-45.35 -66.8 -44.25 -66.85 -44.3 -66.75 -45.85 -62.75 -47.95 -57.6 Q-51.55 -48.4 -53.6 -41.8 -55.7 -35.3 -57.15 -29.25 -57.85 -26.8 -58.0 -24.25 L-58.55 -17.3 Q-58.8 -12.85 -57.95 -7.05 L-55.85 6.3 Q-54.55 13.9 -53.65 17.15 L-52.35 20.6 -51.2 22.65 -52.7 21.25 -52.9 21.0 Q-54.55 18.75 -55.55 15.9 -56.65 12.8 -58.2 5.55 L-60.7 -7.25 Q-61.7 -12.8 -61.45 -17.05 L-61.0 -23.7 Q-60.8 -26.1 -60.1 -28.45 -58.55 -34.25 -56.3 -40.45 -54.1 -46.75 -50.2 -55.55 L-47.15 -62.35 -45.75 -65.55 Q-45.25 -66.8 -45.55 -66.3 L-45.55 -66.35 -45.55 -66.8 M-8.25 -52.65 L-6.25 -50.05 -12.35 -36.25 Q-14.5 -31.25 -15.65 -27.6 L-16.25 -25.1 Q-17.0 -21.85 -17.0 -20.55 L-16.5 -16.7 Q-16.05 -14.25 -15.35 -12.85 L-15.15 -12.3 -16.9 -12.35 -17.1 -12.9 Q-17.75 -14.4 -18.1 -16.95 L-18.5 -21.0 Q-18.5 -22.35 -17.75 -25.75 L-17.2 -28.35 -14.15 -37.4 -8.25 -52.65 M-13.7 -12.25 L-11.95 -12.3 Q-11.25 -12.3 -10.75 -11.5 L-9.95 -9.65 -9.9 -9.5 -9.05 -6.85 -8.9 -6.55 -8.5 -5.0 Q-8.5 -4.55 -8.75 -4.35 -8.9 -4.2 -9.35 -4.1 L-9.35 -4.05 -10.0 -3.95 -11.9 -3.45 -12.25 -3.6 -11.8 -3.7 -11.8 -3.75 Q-11.45 -3.85 -11.3 -4.05 L-11.1 -4.35 -11.05 -4.7 -11.45 -6.35 -11.5 -6.65 -12.3 -9.4 -12.3 -9.6 Q-12.8 -11.25 -13.0 -11.5 L-13.7 -12.25 M-17.1 0.2 L-17.2 0.55 -18.05 6.2 -18.05 7.1 -18.05 7.85 -18.05 8.9 -18.25 10.05 -18.4 12.3 -18.45 13.3 Q-18.8 14.8 -18.8 19.45 L-19.7 26.05 -20.2 27.45 Q-21.25 29.9 -23.45 31.1 -21.95 28.3 -21.25 24.15 -20.75 21.35 -20.1 11.5 L-19.95 8.55 -19.45 3.7 Q-19.25 2.15 -17.65 0.65 L-17.1 0.2" fill="#bdbdbd" fill-rule="evenodd" stroke="none"/>
      <path d="M-6.25 -50.05 L-6.1 -50.45 -5.55 -50.1 -5.4 -49.95 Q-5.1 -49.55 -5.1 -48.7 L-10.35 -37.6 Q-15.6 -25.5 -15.6 -19.6 L-15.1 -15.7 -14.65 -13.9 -14.55 -13.65 -12.25 -13.95 -9.9 -13.65 -9.1 -12.25 Q-7.75 -9.6 -7.2 -6.6 L-7.05 -5.95 Q-6.7 -4.25 -6.7 -3.65 -6.7 -2.75 -7.3 -2.5 L-9.2 -2.05 -9.65 -2.0 Q-11.4 -1.75 -13.15 -0.8 -14.95 0.1 -15.4 1.85 -15.95 3.55 -16.15 6.15 L-16.25 7.55 -16.3 7.85 -16.6 9.7 -16.75 10.85 -16.7 11.4 -16.95 16.15 -17.45 22.8 -17.95 26.05 -18.3 27.65 Q-19.65 32.8 -24.6 33.0 L-25.6 32.95 Q-29.1 32.7 -31.7 30.4 L-33.0 29.15 -33.4 28.5 Q-36.2 29.85 -37.85 29.85 L-38.15 29.85 Q-39.7 29.8 -41.15 29.15 -43.4 28.2 -45.4 25.85 L-45.4 25.8 -45.6 25.9 -46.05 26.0 -47.1 26.05 Q-54.5 26.05 -57.6 15.55 L-59.05 10.25 -60.3 4.6 -62.0 -5.9 Q-63.3 -13.35 -63.3 -17.0 -63.3 -20.7 -61.95 -26.5 -60.6 -32.35 -53.1 -52.05 -46.25 -70.2 -45.6 -67.0 L-45.55 -66.8 -45.55 -66.35 -45.55 -66.3 Q-45.25 -66.8 -45.75 -65.55 L-47.15 -62.35 -50.2 -55.55 Q-54.1 -46.75 -56.3 -40.45 -58.55 -34.25 -60.1 -28.45 -60.8 -26.1 -61.0 -23.7 L-61.45 -17.05 Q-61.7 -12.8 -60.7 -7.25 L-58.2 5.55 Q-56.65 12.8 -55.55 15.9 -54.55 18.75 -52.9 21.0 L-52.7 21.25 -51.2 22.65 Q-49.6 23.6 -47.1 23.95 L-46.8 24.0 -47.3 23.25 Q-48.2 21.8 -48.2 20.8 L-47.85 20.0 Q-47.6 19.65 -44.8 23.7 -42.05 27.75 -39.2 27.7 -36.4 27.6 -34.75 26.35 L-34.15 25.95 -34.1 25.8 -33.9 25.6 -33.45 25.55 -33.0 25.65 -31.55 27.55 -30.7 29.05 Q-29.3 30.15 -27.6 30.75 L-25.6 31.25 -24.15 31.45 -23.45 31.1 Q-21.25 29.9 -20.2 27.45 L-19.7 26.05 -18.8 19.45 Q-18.8 14.8 -18.45 13.3 L-18.4 12.3 -18.25 10.05 -18.05 8.9 -18.05 7.85 -18.05 7.1 -18.05 6.2 -17.2 0.55 -17.1 0.2 -16.2 -1.05 -15.1 -1.9 -14.55 -2.25 -11.9 -3.45 -10.0 -3.95 -9.35 -4.05 -9.35 -4.1 Q-8.9 -4.2 -8.75 -4.35 -8.5 -4.55 -8.5 -5.0 L-8.9 -6.55 -9.05 -6.85 -9.9 -9.5 -9.95 -9.65 -10.75 -11.5 Q-11.25 -12.3 -11.95 -12.3 L-13.7 -12.25 -15.15 -12.3 -15.35 -12.85 Q-16.05 -14.25 -16.5 -16.7 L-17.0 -20.55 Q-17.0 -21.85 -16.25 -25.1 L-15.65 -27.6 Q-14.5 -31.25 -12.35 -36.25 L-6.25 -50.05" fill="#000000" fill-rule="evenodd" stroke="none"/>
      <path d="M-44.25 -66.85 Q-20.15 -67.15 -8.25 -52.65 L-14.15 -37.4 -17.2 -28.35 -17.75 -25.75 Q-18.5 -22.35 -18.5 -21.0 L-18.1 -16.95 Q-17.75 -14.4 -17.1 -12.9 L-16.9 -12.35 -15.15 -12.3 -13.7 -12.25 -13.0 -11.5 Q-12.8 -11.25 -12.3 -9.6 L-12.3 -9.4 -11.5 -6.65 -11.45 -6.35 -11.05 -4.7 -11.1 -4.35 -11.3 -4.05 Q-11.45 -3.85 -11.8 -3.75 L-11.8 -3.7 -12.25 -3.6 -11.9 -3.45 -14.55 -2.25 -15.1 -1.9 -16.2 -1.05 -17.1 0.2 -17.65 0.65 Q-19.25 2.15 -19.45 3.7 L-19.95 8.55 -20.1 11.5 Q-20.75 21.35 -21.25 24.15 -21.95 28.3 -23.45 31.1 L-24.15 31.45 -25.6 31.25 -27.6 30.75 Q-29.3 30.15 -30.7 29.05 L-31.55 27.55 -33.0 25.65 -33.45 25.55 -33.9 25.6 -34.1 25.8 -34.15 25.95 -34.75 26.35 Q-36.4 27.6 -39.2 27.7 -42.05 27.75 -44.8 23.7 -47.6 19.65 -47.85 20.0 L-48.2 20.8 Q-48.2 21.8 -47.3 23.25 L-46.8 24.0 -47.1 23.95 Q-49.6 23.6 -51.2 22.65 L-52.35 20.6 -53.65 17.15 Q-54.55 13.9 -55.85 6.3 L-57.95 -7.05 Q-58.8 -12.85 -58.55 -17.3 L-58.0 -24.25 Q-57.85 -26.8 -57.15 -29.25 -55.7 -35.3 -53.6 -41.8 -51.55 -48.4 -47.95 -57.6 L-45.85 -62.75 -44.3 -66.75 -44.25 -66.85" fill="#999999" fill-rule="evenodd" stroke="none"/>
    </g>
  </defs>
</svg>
