<?xml version="1.0" encoding="UTF-8" standalone="no"?>
<svg xmlns:xlink="http://www.w3.org/1999/xlink" height="531.5px" width="460.6px" xmlns="http://www.w3.org/2000/svg">
  <g transform="matrix(1.0, 0.0, 0.0, 1.0, 193.65, 334.05)">
    <use height="105.9" transform="matrix(1.0, 0.0, 0.0, 1.0, -72.9, -58.25)" width="72.6" xlink:href="#shape0"/>
  </g>
  <defs>
    <g id="shape0" transform="matrix(1.0, 0.0, 0.0, 1.0, 72.9, 58.25)">
      <path d="M-9.5 1.8 L-8.75 -0.05 -0.8 -2.6 -1.05 -2.1 -9.5 1.8 M-19.15 22.5 L-18.45 20.95 -19.9 20.45 Q-21.25 16.35 -19.8 15.25 L-18.75 14.65 -18.05 14.5 Q-17.15 16.95 -17.85 25.3 L-19.15 22.5 M-35.7 3.15 L-36.1 2.7 Q-32.45 2.5 -28.7 2.65 L-26.7 4.7 -28.65 4.3 -35.7 3.15 M-25.6 4.9 L-23.45 3.1 -18.25 3.8 -14.0 1.95 -11.95 3.0 Q-15.3 4.75 -18.4 6.75 -21.15 5.85 -25.6 4.9 M-18.25 3.8 L-19.0 4.15 -18.25 3.8" fill="#f24e46" fill-rule="evenodd" stroke="none"/>
      <path d="M-1.05 -2.1 Q-3.5 3.2 -6.9 8.7 L-10.1 8.15 -8.65 10.85 -9.95 12.7 -10.8 13.8 -11.0 14.35 Q-11.65 17.45 -12.6 20.6 -14.25 26.4 -16.45 32.3 -18.55 28.5 -20.15 24.5 L-19.15 22.5 -17.85 25.3 Q-17.15 16.95 -18.05 14.5 L-18.75 14.65 -19.8 15.25 Q-21.25 16.35 -19.9 20.45 L-21.8 19.8 -23.2 14.85 -23.5 14.65 Q-29.8 9.5 -35.7 3.15 L-28.65 4.3 -26.7 4.7 -26.05 5.3 -25.6 4.9 Q-21.15 5.85 -18.4 6.75 -15.3 4.75 -11.95 3.0 L-10.35 3.7 -9.5 1.8 -1.05 -2.1" fill="#c42119" fill-rule="evenodd" stroke="none"/>
      <path d="M-9.95 12.7 L-9.1 15.55 -10.35 18.0 -8.25 18.6 -7.55 22.0 -12.6 20.6 Q-11.65 17.45 -11.0 14.35 L-10.8 13.8 -9.95 12.7" fill="#8c0700" fill-rule="evenodd" stroke="none"/>
      <path d="M-9.5 1.8 L-8.75 -0.05 -0.8 -2.6 -1.05 -2.1 Q-3.5 3.2 -6.9 8.7 L-10.1 8.15 -8.65 10.85 -9.95 12.7 -9.1 15.55 -10.35 18.0 -8.25 18.6 -7.55 22.0 -12.6 20.6 Q-14.25 26.4 -16.45 32.3 -18.55 28.5 -20.15 24.5 L-19.15 22.5 -18.45 20.95 -19.9 20.45 -21.8 19.8 -23.2 14.85 -23.5 14.65 Q-29.8 9.5 -35.7 3.15 L-36.1 2.7 Q-32.45 2.5 -28.7 2.65 L-26.7 4.7 -26.05 5.3 -25.6 4.9 -23.45 3.1 -18.25 3.8 -14.0 1.95 -11.95 3.0 -10.35 3.7 -9.5 1.8 M-19.0 4.15 L-18.25 3.8 M-9.95 12.7 L-10.8 13.8 -11.0 14.35 Q-11.65 17.45 -12.6 20.6" fill="none" stroke="#000000" stroke-linecap="round" stroke-linejoin="round" stroke-opacity="0.5019608" stroke-width="1.0"/>
      <path d="M-13.4 29.95 Q-15.45 26.95 -17.65 24.2 L-18.05 23.7 -18.4 22.25 -15.3 23.45 -14.1 26.25 -12.05 24.9 -8.7 26.6 -13.4 29.95" fill="#8c0700" fill-rule="evenodd" stroke="none"/>
      <path d="M-18.4 22.25 L-18.05 23.7 -17.65 24.2 Q-15.45 26.95 -13.4 29.95 -9.6 35.35 -6.05 41.45 -10.75 40.6 -15.3 39.2 L-16.35 36.95 -13.0 37.8 Q-19.7 31.35 -22.4 30.4 L-22.75 31.15 -23.05 32.45 Q-23.1 34.45 -18.6 36.15 L-20.5 37.35 -25.7 35.1 -26.05 35.2 Q-34.9 37.05 -44.45 37.75 L-38.55 32.45 -36.85 31.05 -35.9 30.95 -35.9 30.3 -29.4 25.3 -28.05 17.2 -26.35 16.35 -27.45 14.25 -24.9 4.35 Q-22.05 10.1 -19.7 16.8 L-22.35 19.2 -19.0 19.85 -18.4 22.25" fill="#c42119" fill-rule="evenodd" stroke="none"/>
      <path d="M-24.9 4.35 L-27.45 14.25 -28.5 12.4 Q-27.0 8.05 -25.15 3.75 L-24.9 4.35 M-28.05 17.2 L-29.4 25.3 -35.9 30.3 -36.0 27.15 -31.75 23.15 -30.4 18.25 -28.05 17.2 M-36.85 31.05 L-38.55 32.45 -44.45 37.75 -45.1 37.8 Q-42.75 34.45 -40.0 31.4 L-36.85 31.05 M-18.6 36.15 Q-23.1 34.45 -23.05 32.45 L-22.75 31.15 -22.4 30.4 Q-19.7 31.35 -13.0 37.8 L-16.35 36.95 -17.15 35.25 -18.6 36.15 M-31.75 23.15 L-32.0 24.1 -31.75 23.15" fill="#f24e46" fill-rule="evenodd" stroke="none"/>
      <path d="M-18.4 22.25 L-18.05 23.7 -17.65 24.2 Q-15.45 26.95 -13.4 29.95 L-8.7 26.6 -12.05 24.9 -14.1 26.25 -15.3 23.45 -18.4 22.25 -19.0 19.85 -22.35 19.2 -19.7 16.8 Q-22.05 10.1 -24.9 4.35 L-25.15 3.75 Q-27.0 8.05 -28.5 12.4 L-27.45 14.25 -26.35 16.35 -28.05 17.2 -30.4 18.25 -31.75 23.15 -36.0 27.15 -35.9 30.3 -35.9 30.95 -36.85 31.05 -40.0 31.4 Q-42.75 34.45 -45.1 37.8 L-44.45 37.75 Q-34.9 37.05 -26.05 35.2 L-25.7 35.1 -20.5 37.35 -18.6 36.15 -17.15 35.25 -16.35 36.95 -15.3 39.2 Q-10.75 40.6 -6.05 41.45 -9.6 35.35 -13.4 29.95 M-32.0 24.1 L-31.75 23.15" fill="none" stroke="#000000" stroke-linecap="round" stroke-linejoin="round" stroke-opacity="0.5019608" stroke-width="1.0"/>
      <path d="M-30.6 23.35 Q-34.05 21.8 -37.5 20.5 -37.75 20.4 -38.1 20.25 L-39.2 19.15 -35.75 18.55 -33.25 20.4 -32.15 18.15 -28.25 17.9 -30.6 23.35" fill="#8c0700" fill-rule="evenodd" stroke="none"/>
      <path d="M-39.2 19.15 L-38.1 20.25 Q-37.75 20.4 -37.5 20.5 -34.05 21.8 -30.6 23.35 -24.4 26.15 -18.0 29.7 -22.65 31.4 -27.4 32.6 L-29.55 31.15 -26.1 30.15 Q-35.5 27.95 -38.4 28.5 L-38.35 29.4 -37.9 30.65 Q-36.85 32.5 -31.95 31.65 L-33.0 33.7 -38.9 34.5 -39.1 34.8 Q-46.0 41.1 -54.15 46.75 L-51.7 38.9 -50.95 36.8 -50.15 36.15 -50.5 35.6 Q-48.7 30.7 -47.3 27.75 L-50.5 19.75 -49.35 18.15 -51.45 16.9 -54.45 6.7 Q-48.9 10.25 -43.2 15.05 L-44.3 18.55 -41.0 17.35 -39.2 19.15" fill="#c42119" fill-rule="evenodd" stroke="none"/>
      <path d="M-54.45 6.7 L-51.45 16.9 -53.4 15.75 Q-54.4 11.1 -55.0 6.3 L-54.45 6.7 M-50.5 19.75 L-47.3 27.75 Q-48.7 30.7 -50.5 35.6 L-52.25 32.85 -50.55 27.05 -51.95 21.95 -50.5 19.75 M-50.95 36.8 L-51.7 38.9 -54.15 46.75 -54.7 47.15 Q-54.35 42.9 -53.55 38.75 L-50.95 36.8 M-31.95 31.65 Q-36.85 32.5 -37.9 30.65 L-38.35 29.4 -38.4 28.5 Q-35.5 27.95 -26.1 30.15 L-29.55 31.15 -31.15 30.1 -31.95 31.65 M-50.55 27.05 L-50.3 28.0 -50.55 27.05" fill="#f24e46" fill-rule="evenodd" stroke="none"/>
      <path d="M-39.2 19.15 L-38.1 20.25 Q-37.75 20.4 -37.5 20.5 -34.05 21.8 -30.6 23.35 L-28.25 17.9 -32.15 18.15 -33.25 20.4 -35.75 18.55 -39.2 19.15 -41.0 17.35 -44.3 18.55 -43.2 15.05 Q-48.9 10.25 -54.45 6.7 L-55.0 6.3 Q-54.4 11.1 -53.4 15.75 L-51.45 16.9 -49.35 18.15 -50.5 19.75 -51.95 21.95 -50.55 27.05 -52.25 32.85 -50.5 35.6 -50.15 36.15 -50.95 36.8 -53.55 38.75 Q-54.35 42.9 -54.7 47.15 L-54.15 46.75 Q-46.0 41.1 -39.1 34.8 L-38.9 34.5 -33.0 33.7 -31.95 31.65 -31.15 30.1 -29.55 31.15 -27.4 32.6 Q-22.65 31.4 -18.0 29.7 -24.4 26.15 -30.6 23.35 M-50.3 28.0 L-50.55 27.05" fill="none" stroke="#000000" stroke-linecap="round" stroke-linejoin="round" stroke-opacity="0.5019608" stroke-width="1.0"/>
      <path d="M-53.15 -57.55 L-53.15 -57.1 -53.15 -57.05 Q-52.85 -57.55 -53.35 -56.3 L-54.75 -53.1 -57.8 -46.3 Q-61.7 -37.5 -63.9 -31.2 -66.15 -25.0 -67.7 -19.2 -68.4 -16.85 -68.6 -14.45 L-69.05 -7.8 Q-69.3 -3.55 -68.3 2.0 L-65.8 14.8 Q-64.25 22.05 -63.15 25.15 -62.15 28.0 -60.5 30.25 L-60.3 30.5 -58.8 31.9 Q-57.2 32.85 -54.7 33.2 L-54.4 33.25 -54.9 32.5 Q-55.8 31.05 -55.8 30.05 L-55.45 29.25 Q-55.2 28.9 -52.4 32.95 -49.65 37.0 -46.8 36.95 -44.0 36.85 -42.35 35.6 L-41.55 35.1 -41.0 34.8 -40.9 34.75 -40.95 34.7 -41.1 34.1 -41.15 33.8 -41.0 32.75 -40.7 32.5 -38.2 34.85 Q-35.1 36.8 -32.85 36.85 -31.25 36.9 -30.2 36.3 L-29.45 35.75 -29.1 35.35 -28.25 34.0 -28.25 33.95 -28.75 31.2 -28.85 28.65 -28.85 26.7 -28.7 25.2 -28.35 24.25 -26.8 22.0 -26.15 21.05 Q-25.55 20.15 -25.6 18.4 L-25.65 15.45 -24.8 9.8 Q-24.7 9.0 -23.8 8.2 -23.2 7.6 -22.15 7.0 -19.9 5.7 -17.6 5.3 L-16.95 5.2 -16.95 5.15 -16.35 4.9 -16.1 4.25 -16.5 2.7 -16.65 2.4 -17.5 -0.25 -17.55 -0.4 -18.35 -2.25 Q-18.85 -3.05 -19.55 -3.05 L-21.3 -3.0 -22.75 -3.05 -22.95 -3.6 Q-23.65 -5.0 -24.1 -7.45 L-24.6 -11.3 Q-24.6 -12.6 -23.85 -15.85 L-23.25 -18.35 Q-22.1 -22.0 -19.95 -27.0 L-13.85 -40.8 -13.7 -41.2 -13.15 -40.85 -13.0 -40.7 Q-12.7 -40.3 -12.7 -39.45 L-17.95 -28.35 Q-23.2 -16.25 -23.2 -10.35 L-22.7 -6.45 -22.25 -4.65 -22.15 -4.4 -19.85 -4.7 -17.5 -4.4 -16.7 -3.0 Q-15.35 -0.35 -14.8 2.65 L-14.65 3.3 Q-14.3 5.0 -14.3 5.6 -14.3 6.5 -14.9 6.75 L-17.25 7.25 Q-19.0 7.5 -20.75 8.45 -22.55 9.35 -23.0 11.1 -23.55 12.8 -23.75 15.4 L-24.0 19.85 Q-24.05 21.75 -25.25 23.35 -26.5 24.95 -26.85 26.25 L-26.55 29.35 Q-26.55 30.65 -25.9 32.55 L-25.5 33.75 -25.6 34.7 -26.0 35.45 -26.05 35.6 -26.15 35.65 Q-26.7 36.55 -28.1 37.65 -30.3 39.3 -32.0 39.3 -35.95 39.3 -38.85 37.05 L-39.2 36.75 -40.8 37.6 Q-43.75 39.1 -45.45 39.1 L-45.75 39.1 Q-47.3 39.05 -48.75 38.4 -51.0 37.45 -53.0 35.1 L-53.0 35.05 -53.2 35.15 -53.65 35.25 -54.7 35.3 Q-62.1 35.3 -65.2 24.8 L-66.65 19.5 -67.9 13.85 -69.6 3.35 Q-70.9 -4.1 -70.9 -7.75 -70.9 -11.45 -69.55 -17.25 -68.2 -23.1 -60.7 -42.8 -53.85 -60.95 -53.2 -57.75 L-53.15 -57.55" fill="#000000" fill-rule="evenodd" stroke="none"/>
      <path d="M-58.8 31.9 L-60.3 30.5 -60.5 30.25 Q-62.15 28.0 -63.15 25.15 -64.25 22.05 -65.8 14.8 L-68.3 2.0 Q-69.3 -3.55 -69.05 -7.8 L-68.6 -14.45 Q-68.4 -16.85 -67.7 -19.2 -66.15 -25.0 -63.9 -31.2 -61.7 -37.5 -57.8 -46.3 L-54.75 -53.1 -53.35 -56.3 Q-52.85 -57.55 -53.15 -57.05 L-53.15 -57.1 -53.15 -57.55 -52.95 -57.55 -51.85 -57.6 -51.9 -57.5 -53.45 -53.5 -55.55 -48.35 Q-59.15 -39.15 -61.2 -32.55 -63.3 -26.05 -64.75 -20.0 -65.45 -17.55 -65.6 -15.0 L-66.15 -8.05 Q-66.4 -3.6 -65.55 2.2 L-63.45 15.55 Q-62.15 23.15 -61.25 26.4 L-59.95 29.85 -58.8 31.9 M-13.85 -40.8 L-19.95 -27.0 Q-22.1 -22.0 -23.25 -18.35 L-23.85 -15.85 Q-24.6 -12.6 -24.6 -11.3 L-24.1 -7.45 Q-23.65 -5.0 -22.95 -3.6 L-22.75 -3.05 -24.5 -3.1 -24.7 -3.65 Q-25.35 -5.15 -25.7 -7.7 L-26.1 -11.75 Q-26.1 -13.1 -25.35 -16.5 L-24.8 -19.1 -21.75 -28.15 -15.85 -43.4 -13.85 -40.8 M-21.3 -3.0 L-19.55 -3.05 Q-18.85 -3.05 -18.35 -2.25 L-17.55 -0.4 -17.5 -0.25 -16.65 2.4 -16.5 2.7 -16.1 4.25 -16.35 4.9 -16.95 5.15 -16.95 5.2 -17.6 5.3 Q-19.9 5.7 -22.15 7.0 -23.2 7.6 -23.8 8.2 -24.7 9.0 -24.8 9.8 L-25.65 15.45 -25.6 18.4 Q-25.55 20.15 -26.15 21.05 L-26.8 22.0 -28.35 24.25 -28.7 25.2 -28.85 26.7 -28.85 28.65 -28.75 31.2 -28.25 33.95 -28.25 34.0 -29.1 35.35 -29.45 35.75 -30.2 36.3 -29.95 35.65 -29.95 35.6 -30.0 34.95 -30.3 32.75 -30.4 30.05 -30.35 28.0 Q-30.35 26.35 -29.9 25.45 L-29.55 24.8 -27.9 22.1 -27.7 21.6 Q-27.35 20.7 -27.35 19.35 L-27.4 16.25 -26.55 10.35 Q-26.4 9.15 -24.65 7.8 L-24.15 7.4 Q-21.8 5.85 -19.4 5.55 L-19.4 5.5 -18.9 5.2 -18.7 4.9 -18.65 4.55 -19.05 2.9 -19.1 2.6 -19.9 -0.15 -19.9 -0.35 -20.6 -2.25 -21.3 -3.0 M-41.1 34.1 L-40.95 34.7 -40.9 34.75 -41.0 34.8 -41.55 35.1 -41.4 34.4 -41.4 34.35 -41.35 34.3 -41.15 34.1 -41.1 34.1" fill="#bdbdbd" fill-rule="evenodd" stroke="none"/>
      <path d="M-22.75 -3.05 L-21.3 -3.0 -20.6 -2.25 -19.9 -0.35 -19.9 -0.15 -19.1 2.6 -19.05 2.9 -18.65 4.55 -18.7 4.9 -18.9 5.2 -19.4 5.5 -19.4 5.55 Q-21.8 5.85 -24.15 7.4 L-24.65 7.8 Q-26.4 9.15 -26.55 10.35 L-27.4 16.25 -27.35 19.35 Q-27.35 20.7 -27.7 21.6 L-27.9 22.1 -29.55 24.8 -29.9 25.45 Q-30.35 26.35 -30.35 28.0 L-30.4 30.05 -30.3 32.75 -30.0 34.95 -29.95 35.6 -29.95 35.65 -30.2 36.3 Q-31.25 36.9 -32.85 36.85 -35.1 36.8 -38.2 34.85 L-40.7 32.5 -41.0 32.75 -41.15 33.8 -41.1 34.1 -41.15 34.1 -41.35 34.3 -41.4 34.35 -41.4 34.4 -41.55 35.1 -42.35 35.6 Q-44.0 36.85 -46.8 36.95 -49.65 37.0 -52.4 32.95 -55.2 28.9 -55.45 29.25 L-55.8 30.05 Q-55.8 31.05 -54.9 32.5 L-54.4 33.25 -54.7 33.2 Q-57.2 32.85 -58.8 31.9 L-59.95 29.85 -61.25 26.4 Q-62.15 23.15 -63.45 15.55 L-65.55 2.2 Q-66.4 -3.6 -66.15 -8.05 L-65.6 -15.0 Q-65.45 -17.55 -64.75 -20.0 -63.3 -26.05 -61.2 -32.55 -59.15 -39.15 -55.55 -48.35 L-53.45 -53.5 -51.9 -57.5 -51.85 -57.6 Q-27.75 -57.9 -15.85 -43.4 L-21.75 -28.15 -24.8 -19.1 -25.35 -16.5 Q-26.1 -13.1 -26.1 -11.75 L-25.7 -7.7 Q-25.35 -5.15 -24.7 -3.65 L-24.5 -3.1 -22.75 -3.05" fill="#999999" fill-rule="evenodd" stroke="none"/>
      <path d="M-27.0 -23.0 Q-24.5 -22.65 -21.95 -21.9 -18.8 -12.3 -20.9 -5.1 -23.25 -4.15 -25.7 -3.8 -24.5 -12.35 -26.5 -20.9 L-27.0 -23.0" fill="#404040" fill-rule="evenodd" stroke="none"/>
      <path d="M-27.0 -23.0 L-26.5 -20.9 Q-24.5 -12.35 -25.7 -3.8 L-33.9 -4.3 -36.35 -23.0 Q-31.8 -23.75 -27.0 -23.0" fill="#242424" fill-rule="evenodd" stroke="none"/>
      <path d="M-25.7 -3.8 Q-23.25 -4.15 -20.9 -5.1 -18.8 -12.3 -21.95 -21.9 -24.5 -22.65 -27.0 -23.0 -31.8 -23.75 -36.35 -23.0 L-33.9 -4.3 -25.7 -3.8 Z" fill="none" stroke="#000000" stroke-linecap="round" stroke-linejoin="round" stroke-opacity="0.5019608" stroke-width="1.0"/>
      <path d="M-71.0 5.9 L-54.45 -11.75 Q-45.2 -20.95 -37.3 -27.9 -34.15 -27.2 -31.1 -26.15 -28.65 -6.65 -30.85 14.55 -47.35 19.85 -65.45 20.05 -69.4 13.4 -71.0 5.9" fill="#404040" fill-rule="evenodd" stroke="none"/>
      <path d="M-71.0 5.9 Q-74.35 -8.3 -69.8 -25.3 -52.95 -31.45 -37.3 -27.9 -45.2 -20.95 -54.45 -11.75 L-71.0 5.9" fill="#595959" fill-rule="evenodd" stroke="none"/>
      <path d="M-37.3 -27.9 Q-52.95 -31.45 -69.8 -25.3 -74.35 -8.3 -71.0 5.9 -69.4 13.4 -65.45 20.05 -47.35 19.85 -30.85 14.55 -28.65 -6.65 -31.1 -26.15 -34.15 -27.2 -37.3 -27.9 Z" fill="none" stroke="#000000" stroke-linecap="round" stroke-linejoin="round" stroke-opacity="0.5019608" stroke-width="1.0"/>
      <path d="M-67.1 -10.85 Q-67.1 -15.3 -66.4 -19.65 L-66.35 -20.05 -66.2 -21.15 -64.95 -21.45 -57.9 -22.75 -54.7 -23.15 -47.1 -23.45 -45.85 -23.45 -37.9 -22.55 -37.85 -22.55 -36.35 -22.25 -35.7 -14.85 -35.6 -13.65 -35.35 -4.8 -35.35 -3.65 Q-35.45 1.1 -35.85 5.75 L-35.9 6.3 -36.4 10.8 -62.35 14.95 -63.45 11.9 -64.3 9.05 Q-65.45 4.9 -66.1 0.9 L-66.35 -0.4 Q-66.95 -4.4 -67.05 -8.35 L-67.1 -10.85" fill="url(#gradient0)" fill-rule="evenodd" stroke="none"/>
      <path d="M-66.4 -19.65 L-66.2 -19.95 -64.95 -21.45 M-67.05 -8.35 L-65.9 -9.8 -67.1 -10.85 M-65.9 -9.8 L-61.05 -15.55 -66.2 -19.95 M-65.9 -9.8 L-60.8 -5.5 -56.0 -11.25 -61.05 -15.55 -56.25 -21.3 -57.9 -22.75 M-47.1 -23.45 L-46.35 -22.8 -45.85 -23.45 M-46.1 -12.7 L-41.05 -8.4 -36.25 -14.2 -41.3 -18.5 -46.1 -12.7 -51.2 -17.0 -56.0 -11.25 -50.95 -6.95 -46.1 -12.7 M-41.3 -18.5 L-46.35 -22.8 -51.2 -17.0 -56.25 -21.3 -54.7 -23.15 M-60.8 -5.5 L-55.75 -1.2 -50.95 -6.95 -45.8 -2.65 -41.05 -8.4 -35.95 -4.1 -35.35 -4.8 M-35.95 -4.1 L-35.35 -3.65 M-36.25 -14.2 L-35.7 -14.85 M-36.25 -14.2 L-35.6 -13.65 M-37.9 -22.55 L-41.3 -18.5 M-40.2 11.4 L-35.6 5.95 -40.75 1.65 -45.55 7.4 -40.75 11.45 M-55.45 8.85 L-50.25 13.05 -45.55 7.4 -50.65 3.1 -55.45 8.85 -60.5 4.55 -64.3 9.05 M-63.45 11.9 L-60.2 14.6 -55.45 8.85 M-66.1 0.9 L-65.65 0.25 -66.35 -0.4 M-60.8 -5.5 L-65.65 0.25 -60.5 4.55 -55.75 -1.2 -50.65 3.1 -45.8 -2.65 -40.75 1.65 -35.95 -4.1" fill="none" stroke="#000000" stroke-linecap="round" stroke-linejoin="round" stroke-opacity="0.3019608" stroke-width="0.5"/>
      <path d="M-67.1 -10.85 Q-67.1 -15.3 -66.4 -19.65 L-66.35 -20.05 -66.2 -21.15 -64.95 -21.45 -57.9 -22.75 -54.7 -23.15 -47.1 -23.45 -45.85 -23.45 -37.9 -22.55 -37.85 -22.55 -36.35 -22.25 -35.7 -14.85 -35.6 -13.65 -35.35 -4.8 -35.35 -3.65 Q-35.45 1.1 -35.85 5.75 L-35.9 6.3 -36.4 10.8 -62.35 14.95 -63.45 11.9 -64.3 9.05 Q-65.45 4.9 -66.1 0.9 L-66.35 -0.4 Q-66.95 -4.4 -67.05 -8.35 L-67.1 -10.85 Z" fill="none" stroke="#000000" stroke-linecap="round" stroke-linejoin="round" stroke-opacity="0.5019608" stroke-width="1.0"/>
    </g>
    <linearGradient gradientTransform="matrix(0.0199, -4.0E-4, 5.0E-4, 0.0224, -51.95, -5.2)" gradientUnits="userSpaceOnUse" id="gradient0" spreadMethod="pad" x1="-819.2" x2="819.2">
      <stop offset="0.0" stop-color="#a8a8a8"/>
      <stop offset="0.3215686274509804" stop-color="#cccccc"/>
      <stop offset="0.49411764705882355" stop-color="#cccccc"/>
      <stop offset="0.6588235294117647" stop-color="#cacaca"/>
      <stop offset="0.9803921568627451" stop-color="#9c9c9c"/>
    </linearGradient>
  </defs>
</svg>
