<?xml version="1.0" encoding="UTF-8" standalone="no"?>
<svg xmlns:xlink="http://www.w3.org/1999/xlink" height="531.5px" width="460.6px" xmlns="http://www.w3.org/2000/svg">
  <g transform="matrix(1.0, 0.0, 0.0, 1.0, 193.65, 334.05)">
    <use height="97.55" transform="matrix(1.0, 0.0, 0.0, 1.0, -78.4, -57.8)" width="117.95" xlink:href="#shape0"/>
  </g>
  <defs>
    <g id="shape0" transform="matrix(1.0, 0.0, 0.0, 1.0, 78.4, 57.8)">
      <path d="M-33.6 26.95 Q-32.55 22.35 -32.5 18.8 L-32.55 17.3 -32.5 18.8 Q-32.55 22.35 -33.6 26.95 L-38.15 26.95 -39.15 23.1 -40.75 17.3 -39.15 23.1 -38.15 26.95 -42.4 26.9 -46.55 26.9 -50.15 26.9 -53.8 26.85 Q-52.85 24.7 -52.85 22.05 -52.8 19.45 -53.75 17.2 L-52.95 17.25 Q-51.85 19.85 -51.0 23.25 L-50.15 26.9 -51.0 23.25 Q-51.85 19.85 -52.95 17.25 L-47.05 17.25 -41.4 17.3 -40.75 17.3 -32.55 17.3 -29.25 17.35 -30.0 18.55 -28.5 21.85 -30.05 25.1 -28.9 27.0 -33.6 26.95 M-47.05 17.25 Q-46.45 20.75 -46.45 25.0 L-46.55 26.9 -46.45 25.0 Q-46.45 20.75 -47.05 17.25 M-42.4 26.9 L-41.4 17.3 -42.4 26.9" fill="#d4ad7f" fill-rule="evenodd" stroke="none"/>
      <path d="M-28.9 27.0 L-30.05 25.1 -28.5 21.85 -30.0 18.55 -29.25 17.35 -26.45 17.35 -27.2 18.55 -25.7 21.85 -27.25 25.1 -26.1 27.0 -28.9 27.0" fill="#ab8a66" fill-rule="evenodd" stroke="none"/>
      <path d="M-25.7 21.85 L-27.2 18.55 -26.45 17.35 -19.4 6.3 39.05 22.15 -25.7 21.85" fill="url(#gradient0)" fill-rule="evenodd" stroke="none"/>
      <path d="M-26.1 27.0 L-27.25 25.1 -25.7 21.85 39.05 22.15 -19.5 37.5 -26.1 27.0" fill="url(#gradient1)" fill-rule="evenodd" stroke="none"/>
      <path d="M-64.8 29.2 Q-62.2 28.95 -60.25 27.1 -58.15 25.0 -58.15 22.0 -58.1 19.05 -60.2 16.95 -62.15 15.05 -64.75 14.9 L-65.35 14.8 Q-68.35 14.8 -70.45 16.9 -72.55 19.0 -72.6 21.95 -72.6 24.95 -70.5 27.05 -68.4 29.15 -65.4 29.15 L-64.8 29.2 M-53.75 17.2 Q-52.8 19.45 -52.85 22.05 -52.85 24.7 -53.8 26.85 -54.65 29.0 -56.5 30.9 -60.25 34.55 -65.45 34.5 -70.65 34.5 -74.25 30.85 -77.9 27.1 -77.9 21.9 -77.85 16.75 -74.2 13.1 -70.55 9.45 -65.35 9.45 -60.15 9.5 -56.45 13.15 -54.6 15.0 -53.75 17.2" fill="url(#gradient2)" fill-rule="evenodd" stroke="none"/>
      <path d="M-64.8 29.2 L-65.4 29.15 Q-68.4 29.15 -70.5 27.05 -72.6 24.95 -72.6 21.95 -72.55 19.0 -70.45 16.9 -68.35 14.8 -65.35 14.8 L-64.75 14.9 Q-67.35 15.0 -69.2 16.9 -71.3 19.0 -71.35 21.95 -71.35 24.95 -69.25 27.05 -67.4 28.9 -64.8 29.2" fill="#262626" fill-rule="evenodd" stroke="none"/>
      <path d="M-32.55 17.3 L-32.5 18.8 Q-32.55 22.35 -33.6 26.95 L-28.9 27.0 -26.1 27.0 -19.5 37.5 39.05 22.15 -19.4 6.3 -26.45 17.35 -29.25 17.35 -32.55 17.3 -40.75 17.3 -39.15 23.1 -38.15 26.95 -33.6 26.95 M-25.7 21.85 L-27.2 18.55 -26.45 17.35 M-26.1 27.0 L-27.25 25.1 -25.7 21.85 39.05 22.15 M-64.75 14.9 Q-62.15 15.05 -60.2 16.95 -58.1 19.05 -58.15 22.0 -58.15 25.0 -60.25 27.1 -62.2 28.95 -64.8 29.2 L-65.4 29.15 Q-68.4 29.15 -70.5 27.05 -72.6 24.95 -72.6 21.95 -72.55 19.0 -70.45 16.9 -68.35 14.8 -65.35 14.8 L-64.75 14.9 Q-67.35 15.0 -69.2 16.9 -71.3 19.0 -71.35 21.95 -71.35 24.95 -69.25 27.05 -67.4 28.9 -64.8 29.2 M-50.15 26.9 L-51.0 23.25 Q-51.85 19.85 -52.95 17.25 L-53.75 17.2 Q-52.8 19.45 -52.85 22.05 -52.85 24.7 -53.8 26.85 L-50.15 26.9 -46.55 26.9 -46.45 25.0 Q-46.45 20.75 -47.05 17.25 L-52.95 17.25 M-47.05 17.25 L-41.4 17.3 -40.75 17.3 M-53.8 26.85 Q-54.65 29.0 -56.5 30.9 -60.25 34.55 -65.45 34.5 -70.65 34.5 -74.25 30.85 -77.9 27.1 -77.9 21.9 -77.85 16.75 -74.2 13.1 -70.55 9.45 -65.35 9.45 -60.15 9.5 -56.45 13.15 -54.6 15.0 -53.75 17.2 M-38.15 26.95 L-42.4 26.9 -46.55 26.9 M-41.4 17.3 L-42.4 26.9" fill="none" stroke="#000000" stroke-linecap="round" stroke-linejoin="round" stroke-opacity="0.5019608" stroke-width="1.0"/>
      <path d="M-53.1 -57.1 L-52.9 -57.1 -51.8 -57.15 -51.85 -57.05 -53.4 -53.05 -55.5 -47.9 Q-59.1 -38.7 -61.15 -32.1 L-64.7 -19.55 Q-65.4 -17.1 -65.55 -14.55 L-66.1 -7.6 Q-66.35 -3.15 -65.5 2.65 L-63.4 16.0 Q-62.1 23.6 -61.2 26.85 L-59.9 30.3 -58.75 32.35 -60.25 30.95 -60.45 30.7 Q-62.1 28.45 -63.1 25.6 -64.2 22.5 -65.75 15.25 L-68.25 2.45 Q-69.25 -3.1 -69.0 -7.35 L-68.55 -14.0 Q-68.35 -16.4 -67.65 -18.75 -66.1 -24.55 -63.85 -30.75 -61.65 -37.05 -57.75 -45.85 L-54.7 -52.65 -53.3 -55.85 Q-52.8 -57.1 -53.1 -56.6 L-53.1 -56.65 -53.1 -57.1 M-15.8 -42.95 L-13.8 -40.35 -19.9 -26.55 Q-22.05 -21.55 -23.2 -17.9 L-23.8 -15.4 Q-24.55 -12.15 -24.55 -10.85 L-24.05 -7.0 Q-23.6 -4.55 -22.9 -3.15 L-22.7 -2.6 -24.45 -2.65 -24.65 -3.2 Q-25.3 -4.7 -25.65 -7.25 L-26.05 -11.3 Q-26.05 -12.65 -25.3 -16.05 L-24.75 -18.65 -21.7 -27.7 -15.8 -42.95 M-21.25 -2.55 L-19.5 -2.6 Q-18.8 -2.6 -18.3 -1.8 L-17.5 0.05 -17.45 0.2 -16.6 2.85 -16.45 3.15 -16.05 4.7 Q-16.05 5.15 -16.3 5.35 L-16.9 5.6 -16.9 5.65 -17.55 5.75 Q-19.85 6.15 -22.1 7.45 L-23.75 8.65 Q-24.65 9.45 -24.75 10.25 L-25.6 15.9 -25.55 18.85 Q-25.5 20.6 -26.1 21.5 L-26.75 22.45 -28.3 24.7 -28.65 25.65 -28.8 27.15 -28.8 29.1 -28.7 31.65 -28.2 34.4 -28.2 34.45 -29.05 35.8 -29.4 36.2 -30.15 36.75 -29.9 36.1 -29.9 36.05 -29.95 35.4 -30.25 33.2 -30.35 30.5 -30.3 28.45 Q-30.3 26.8 -29.85 25.9 L-29.5 25.25 -27.85 22.55 -27.65 22.05 Q-27.3 21.15 -27.3 19.8 L-27.35 16.7 -26.5 10.8 Q-26.35 9.6 -24.6 8.25 L-24.1 7.85 Q-21.75 6.3 -19.35 6.0 L-19.35 5.95 -18.85 5.65 -18.65 5.35 -18.6 5.0 -19.0 3.35 -19.05 3.05 -19.85 0.3 -19.85 0.1 -20.55 -1.8 -21.25 -2.55 M-41.05 34.55 L-40.9 35.15 -40.85 35.2 -40.95 35.25 -41.5 35.55 -41.35 34.85 -41.35 34.8 -41.3 34.75 -41.1 34.55 -41.05 34.55" fill="#bdbdbd" fill-rule="evenodd" stroke="none"/>
      <path d="M-13.8 -40.35 L-13.65 -40.75 -13.1 -40.4 -12.95 -40.25 Q-12.65 -39.85 -12.65 -39.0 -15.3 -34.0 -17.9 -27.9 -23.15 -15.8 -23.15 -9.9 L-22.65 -6.0 -22.2 -4.2 -22.1 -3.95 -19.8 -4.25 -17.45 -3.95 -16.65 -2.55 Q-15.3 0.1 -14.75 3.1 L-14.6 3.75 Q-14.25 5.45 -14.25 6.05 -14.25 6.95 -14.85 7.2 L-17.2 7.7 Q-18.95 7.95 -20.7 8.9 -22.5 9.8 -22.95 11.55 -23.5 13.25 -23.7 15.85 L-23.95 20.3 Q-24.0 22.2 -25.2 23.8 -26.45 25.4 -26.8 26.7 L-26.5 29.8 Q-26.5 31.1 -25.85 33.0 L-25.45 34.2 -25.55 35.15 -25.95 35.9 -26.0 36.05 -26.1 36.1 Q-26.65 37.0 -28.05 38.1 -30.25 39.75 -31.95 39.75 -35.9 39.75 -38.8 37.5 L-39.15 37.2 -40.75 38.05 Q-43.7 39.55 -45.4 39.55 L-45.7 39.55 Q-47.25 39.5 -48.7 38.85 -50.95 37.9 -52.95 35.55 L-52.95 35.5 -53.15 35.6 -53.6 35.7 -54.65 35.75 Q-62.05 35.75 -65.15 25.25 L-66.6 19.95 -67.85 14.3 -69.55 3.8 Q-70.85 -3.65 -70.85 -7.3 -70.85 -11.0 -69.5 -16.8 -68.15 -22.65 -60.65 -42.35 -53.8 -60.5 -53.15 -57.3 L-53.1 -57.1 -53.1 -56.65 -53.1 -56.6 Q-52.8 -57.1 -53.3 -55.85 L-54.7 -52.65 -57.75 -45.85 Q-61.65 -37.05 -63.85 -30.75 -66.1 -24.55 -67.65 -18.75 -68.35 -16.4 -68.55 -14.0 L-69.0 -7.35 Q-69.25 -3.1 -68.25 2.45 L-65.75 15.25 Q-64.2 22.5 -63.1 25.6 -62.1 28.45 -60.45 30.7 L-60.25 30.95 -58.75 32.35 Q-57.15 33.3 -54.65 33.65 L-54.35 33.7 -54.85 32.95 Q-55.75 31.5 -55.75 30.5 L-55.4 29.7 Q-55.15 29.35 -52.35 33.4 -49.6 37.45 -46.75 37.4 -43.95 37.3 -42.3 36.05 L-41.5 35.55 -40.95 35.25 -40.85 35.2 -40.9 35.15 -41.05 34.55 -41.1 34.25 -40.95 33.2 -40.65 32.95 -38.15 35.3 Q-35.05 37.25 -32.8 37.3 -31.2 37.35 -30.15 36.75 L-29.4 36.2 -29.05 35.8 -28.2 34.45 -28.2 34.4 -28.7 31.65 -28.8 29.1 -28.8 27.15 -28.65 25.65 -28.3 24.7 -26.75 22.45 -26.1 21.5 Q-25.5 20.6 -25.55 18.85 L-25.6 15.9 -24.75 10.25 Q-24.65 9.45 -23.75 8.65 L-22.1 7.45 Q-19.85 6.15 -17.55 5.75 L-16.9 5.65 -16.9 5.6 -16.3 5.35 Q-16.05 5.15 -16.05 4.7 L-16.45 3.15 -16.6 2.85 -17.45 0.2 -17.5 0.05 -18.3 -1.8 Q-18.8 -2.6 -19.5 -2.6 L-21.25 -2.55 -22.7 -2.6 -22.9 -3.15 Q-23.6 -4.55 -24.05 -7.0 L-24.55 -10.85 Q-24.55 -12.15 -23.8 -15.4 L-23.2 -17.9 Q-22.05 -21.55 -19.9 -26.55 L-13.8 -40.35" fill="#000000" fill-rule="evenodd" stroke="none"/>
      <path d="M-51.8 -57.15 Q-27.7 -57.45 -15.8 -42.95 L-21.7 -27.7 -24.75 -18.65 -25.3 -16.05 Q-26.05 -12.65 -26.05 -11.3 L-25.65 -7.25 Q-25.3 -4.7 -24.65 -3.2 L-24.45 -2.65 -22.7 -2.6 -21.25 -2.55 -20.55 -1.8 -19.85 0.1 -19.85 0.3 -19.05 3.05 -19.0 3.35 -18.6 5.0 -18.65 5.35 -18.85 5.65 -19.35 5.95 -19.35 6.0 Q-21.75 6.3 -24.1 7.85 L-24.6 8.25 Q-26.35 9.6 -26.5 10.8 L-27.35 16.7 -27.3 19.8 Q-27.3 21.15 -27.65 22.05 L-27.85 22.55 -29.5 25.25 -29.85 25.9 Q-30.3 26.8 -30.3 28.45 L-30.35 30.5 -30.25 33.2 -29.95 35.4 -29.9 36.05 -29.9 36.1 -30.15 36.75 Q-31.2 37.35 -32.8 37.3 -35.05 37.25 -38.15 35.3 L-40.65 32.95 -40.95 33.2 -41.1 34.25 -41.05 34.55 -41.1 34.55 -41.3 34.75 -41.35 34.8 -41.35 34.85 -41.5 35.55 -42.3 36.05 Q-43.95 37.3 -46.75 37.4 -49.6 37.45 -52.35 33.4 -55.15 29.35 -55.4 29.7 L-55.75 30.5 Q-55.75 31.5 -54.85 32.95 L-54.35 33.7 -54.65 33.65 Q-57.15 33.3 -58.75 32.35 L-59.9 30.3 -61.2 26.85 Q-62.1 23.6 -63.4 16.0 L-65.5 2.65 Q-66.35 -3.15 -66.1 -7.6 L-65.55 -14.55 Q-65.4 -17.1 -64.7 -19.55 L-61.15 -32.1 Q-59.1 -38.7 -55.5 -47.9 L-53.4 -53.05 -51.85 -57.05 -51.8 -57.15" fill="#999999" fill-rule="evenodd" stroke="none"/>
      <path d="M-26.95 -22.55 L-21.9 -21.45 Q-18.75 -11.85 -20.85 -4.65 -23.2 -3.7 -25.65 -3.35 -24.45 -11.9 -26.45 -20.45 L-26.95 -22.55" fill="#404040" fill-rule="evenodd" stroke="none"/>
      <path d="M-26.95 -22.55 L-26.45 -20.45 Q-24.45 -11.9 -25.65 -3.35 L-33.85 -3.85 -36.3 -22.55 Q-31.75 -23.3 -26.95 -22.55" fill="#242424" fill-rule="evenodd" stroke="none"/>
      <path d="M-25.65 -3.35 Q-23.2 -3.7 -20.85 -4.65 -18.75 -11.85 -21.9 -21.45 L-26.95 -22.55 Q-31.75 -23.3 -36.3 -22.55 L-33.85 -3.85 -25.65 -3.35 Z" fill="none" stroke="#000000" stroke-linecap="round" stroke-linejoin="round" stroke-opacity="0.5019608" stroke-width="1.0"/>
      <path d="M-70.95 6.35 L-54.4 -11.3 Q-45.15 -20.5 -37.25 -27.45 L-31.05 -25.7 Q-28.6 -6.2 -30.8 15.0 -47.3 20.3 -65.4 20.5 -69.35 13.85 -70.95 6.35" fill="#404040" fill-rule="evenodd" stroke="none"/>
      <path d="M-70.95 6.35 Q-74.3 -7.85 -69.75 -24.85 -52.9 -31.0 -37.25 -27.45 -45.15 -20.5 -54.4 -11.3 L-70.95 6.35" fill="#595959" fill-rule="evenodd" stroke="none"/>
      <path d="M-37.25 -27.45 Q-52.9 -31.0 -69.75 -24.85 -74.3 -7.85 -70.95 6.35 -69.35 13.85 -65.4 20.5 -47.3 20.3 -30.8 15.0 -28.6 -6.2 -31.05 -25.7 L-37.25 -27.45 Z" fill="none" stroke="#000000" stroke-linecap="round" stroke-linejoin="round" stroke-opacity="0.5019608" stroke-width="1.0"/>
      <path d="M-66.35 -19.2 L-66.3 -19.6 -66.15 -20.7 -64.9 -21.0 -57.85 -22.3 -54.65 -22.7 -47.05 -23.0 -45.8 -23.0 -37.85 -22.1 -37.8 -22.1 -36.3 -21.8 -35.65 -14.4 -35.55 -13.2 -35.3 -4.35 -35.3 -3.2 Q-35.4 1.55 -35.8 6.2 L-35.85 6.75 -36.35 11.25 -62.3 15.4 -63.4 12.35 -64.25 9.5 Q-65.4 5.35 -66.05 1.35 L-66.3 0.05 Q-66.9 -3.95 -67.0 -7.9 L-67.05 -10.4 Q-67.05 -14.85 -66.35 -19.2" fill="url(#gradient3)" fill-rule="evenodd" stroke="none"/>
      <path d="M-66.35 -19.2 L-66.15 -19.5 -64.9 -21.0 M-67.0 -7.9 L-65.85 -9.35 -67.05 -10.4 M-65.85 -9.35 L-61.0 -15.1 -66.15 -19.5 M-47.05 -23.0 L-46.3 -22.35 -45.8 -23.0 M-46.3 -22.35 L-51.15 -16.55 -46.05 -12.25 -41.25 -18.05 -46.3 -22.35 M-56.2 -20.85 L-61.0 -15.1 -55.95 -10.8 -51.15 -16.55 -56.2 -20.85 -57.85 -22.3 M-56.2 -20.85 L-54.65 -22.7 M-50.9 -6.5 L-55.95 -10.8 -60.75 -5.05 -55.7 -0.75 -50.9 -6.5 -46.05 -12.25 -41.0 -7.95 -36.2 -13.75 -41.25 -18.05 -37.85 -22.1 M-45.75 -2.2 L-40.7 2.1 -35.9 -3.65 -41.0 -7.95 -45.75 -2.2 -50.9 -6.5 M-65.85 -9.35 L-60.75 -5.05 -65.6 0.7 -60.45 5.0 -55.7 -0.75 -50.6 3.55 -45.75 -2.2 M-35.3 -4.35 L-35.9 -3.65 -35.3 -3.2 M-35.65 -14.4 L-36.2 -13.75 -35.55 -13.2 M-40.15 11.85 L-35.55 6.4 -40.7 2.1 -45.5 7.85 -40.7 11.9 M-55.4 9.3 L-50.2 13.5 -45.5 7.85 -50.6 3.55 -55.4 9.3 -60.45 5.0 -64.25 9.5 M-63.4 12.35 L-60.15 15.05 -55.4 9.3 M-66.05 1.35 L-65.6 0.7 -66.3 0.05" fill="none" stroke="#000000" stroke-linecap="round" stroke-linejoin="round" stroke-opacity="0.3019608" stroke-width="0.5"/>
      <path d="M-66.35 -19.2 L-66.3 -19.6 -66.15 -20.7 -64.9 -21.0 -57.85 -22.3 -54.65 -22.7 -47.05 -23.0 -45.8 -23.0 -37.85 -22.1 -37.8 -22.1 -36.3 -21.8 -35.65 -14.4 -35.55 -13.2 -35.3 -4.35 -35.3 -3.2 Q-35.4 1.55 -35.8 6.2 L-35.85 6.75 -36.35 11.25 -62.3 15.4 -63.4 12.35 -64.25 9.5 Q-65.4 5.35 -66.05 1.35 L-66.3 0.05 Q-66.9 -3.95 -67.0 -7.9 L-67.05 -10.4 Q-67.05 -14.85 -66.35 -19.2 Z" fill="none" stroke="#000000" stroke-linecap="round" stroke-linejoin="round" stroke-opacity="0.5019608" stroke-width="1.0"/>
    </g>
    <linearGradient gradientTransform="matrix(0.0, 0.0071, -0.0405, -2.0E-4, 5.95, 16.15)" gradientUnits="userSpaceOnUse" id="gradient0" spreadMethod="pad" x1="-819.2" x2="819.2">
      <stop offset="0.00784313725490196" stop-color="#729e45"/>
      <stop offset="1.0" stop-color="#e0ffde"/>
    </linearGradient>
    <linearGradient gradientTransform="matrix(0.0, 0.0095, -0.0405, -2.0E-4, 5.9, 29.8)" gradientUnits="userSpaceOnUse" id="gradient1" spreadMethod="pad" x1="-819.2" x2="819.2">
      <stop offset="0.0" stop-color="#6da158"/>
      <stop offset="1.0" stop-color="#1b3019"/>
    </linearGradient>
    <linearGradient gradientTransform="matrix(-0.0083, 0.0047, -0.0201, -0.0351, -30.05, 91.45)" gradientUnits="userSpaceOnUse" id="gradient2" spreadMethod="pad" x1="-819.2" x2="819.2">
      <stop offset="0.0" stop-color="#649652"/>
      <stop offset="1.0" stop-color="#1b3019"/>
    </linearGradient>
    <linearGradient gradientTransform="matrix(0.0199, -4.0E-4, 5.0E-4, 0.0224, -51.9, -4.75)" gradientUnits="userSpaceOnUse" id="gradient3" spreadMethod="pad" x1="-819.2" x2="819.2">
      <stop offset="0.0" stop-color="#a8a8a8"/>
      <stop offset="0.3215686274509804" stop-color="#cccccc"/>
      <stop offset="0.49411764705882355" stop-color="#cccccc"/>
      <stop offset="0.6588235294117647" stop-color="#cacaca"/>
      <stop offset="0.9803921568627451" stop-color="#9c9c9c"/>
    </linearGradient>
  </defs>
</svg>
