<?xml version="1.0" encoding="UTF-8" standalone="no"?>
<svg xmlns:xlink="http://www.w3.org/1999/xlink" height="531.5px" width="460.6px" xmlns="http://www.w3.org/2000/svg">
  <g transform="matrix(1.0, 0.0, 0.0, 1.0, 193.65, 334.05)">
    <use height="130.2" transform="matrix(1.0, 0.0, 0.0, 1.0, -87.25, -64.4)" width="261.5" xlink:href="#shape0"/>
  </g>
  <defs>
    <g id="shape0" transform="matrix(1.0, 0.0, 0.0, 1.0, 87.25, 64.4)">
      <path d="M-78.05 21.15 L-79.15 23.35 -84.6 23.4 Q-89.15 9.85 -84.15 -3.45 L-79.05 -3.45 -77.6 -0.9 -80.35 -0.85 Q-82.15 10.15 -80.45 21.15 L-78.05 21.15 M-80.2 22.4 L-80.45 21.15 -80.2 22.4 M-80.35 -0.85 L-80.05 -2.55 -80.35 -0.85" fill="#edcd8e" fill-rule="evenodd" stroke="none"/>
      <path d="M-77.6 -0.9 L-71.85 -0.85 Q-74.55 10.45 -74.8 21.2 L-78.05 21.15 -80.45 21.15 Q-82.15 10.15 -80.35 -0.85 L-77.6 -0.9 M-59.35 -0.85 L-41.15 -0.85 Q-44.8 11.9 -45.0 21.2 L-56.85 21.15 Q-59.9 12.0 -59.35 -0.85" fill="#2b2b2b" fill-rule="evenodd" stroke="none"/>
      <path d="M-71.85 -0.85 L-59.35 -0.85 Q-59.9 12.0 -56.85 21.15 L-74.8 21.2 Q-74.55 10.45 -71.85 -0.85 M-41.15 -0.85 L-23.45 -0.85 -18.55 -0.85 -7.95 -0.85 -4.25 2.95 -6.9 2.9 -7.35 4.55 Q-8.25 9.25 -7.75 13.75 -7.5 15.9 -6.9 17.9 L-4.65 17.95 -7.95 21.15 -21.15 21.15 -45.0 21.2 Q-44.8 11.9 -41.15 -0.85 M-21.15 21.15 L-22.55 15.15 Q-20.6 3.4 -18.55 -0.85 -20.6 3.4 -22.55 15.15 L-21.15 21.15 M-22.55 15.15 Q-24.25 6.25 -23.45 -0.85 -24.25 6.25 -22.55 15.15" fill="#333333" fill-rule="evenodd" stroke="none"/>
      <path d="M-78.05 21.15 L-79.15 23.35 -84.6 23.4 Q-89.15 9.85 -84.15 -3.45 L-79.05 -3.45 -77.6 -0.9 -71.85 -0.85 -59.35 -0.85 -41.15 -0.85 -23.45 -0.85 -18.55 -0.85 -7.95 -0.85 -4.25 2.95 -6.9 2.9 -7.35 4.55 Q-8.25 9.25 -7.75 13.75 -7.5 15.9 -6.9 17.9 L-4.65 17.95 -7.95 21.15 -21.15 21.15 -45.0 21.2 -56.85 21.15 -74.8 21.2 -78.05 21.15 -80.45 21.15 -80.2 22.4 M-77.6 -0.9 L-80.35 -0.85 Q-82.15 10.15 -80.45 21.15 M-80.05 -2.55 L-80.35 -0.85 M-18.55 -0.85 Q-20.6 3.4 -22.55 15.15 L-21.15 21.15 M-41.15 -0.85 Q-44.8 11.9 -45.0 21.2 M-59.35 -0.85 Q-59.9 12.0 -56.85 21.15 M-71.85 -0.85 Q-74.55 10.45 -74.8 21.2 M-23.45 -0.85 Q-24.25 6.25 -22.55 15.15" fill="none" stroke="#000000" stroke-linecap="round" stroke-linejoin="round" stroke-opacity="0.5019608" stroke-width="1.0"/>
      <path d="M50.55 -20.25 Q55.1 -27.1 62.35 -33.05 70.2 -39.4 79.25 -43.15 92.5 -48.6 108.5 -48.6 124.6 -48.6 137.75 -43.15 146.8 -39.4 154.65 -33.05 L159.1 -29.1 Q173.0 -15.5 173.75 2.55 L173.75 10.15 173.65 8.35 Q172.3 -8.5 159.1 -21.4 L154.65 -25.35 Q135.6 -40.9 108.5 -40.9 81.5 -40.9 62.35 -25.35 55.5 -19.7 51.05 -13.15 L50.8 -13.3 50.0 -19.4 50.55 -20.25 M-7.75 4.05 L-7.3 2.3 -4.4 2.3 28.85 2.35 28.1 3.9 -7.75 4.05 M159.85 12.15 Q159.85 16.15 159.1 19.8 156.45 32.35 144.85 41.75 129.8 54.0 108.5 54.0 87.25 53.95 72.2 41.7 66.0 36.7 62.35 30.85 L63.3 30.2 Q60.4 25.0 59.25 19.75 66.55 30.85 72.45 35.65 87.5 47.9 108.8 47.9 130.05 47.85 145.1 35.6 156.7 26.2 159.35 13.75 L159.65 12.15 159.85 12.15" fill="#ba9c5e" fill-rule="evenodd" stroke="none"/>
      <path d="M50.65 37.05 L49.85 37.35 Q41.25 21.25 29.85 18.85 L28.1 18.6 28.0 7.3 28.1 3.9 Q42.8 4.0 50.8 -13.3 L51.05 -13.15 Q54.8 -11.6 62.5 -6.7 62.8 -6.4 63.2 -6.2 56.4 7.2 59.25 19.75 60.4 25.0 63.3 30.2 L62.35 30.85 Q57.05 34.75 50.65 37.05 M56.3 -0.8 Q57.0 -1.5 57.05 -2.55 57.05 -3.55 56.25 -4.25 55.6 -5.0 54.5 -5.0 53.55 -4.95 52.85 -4.25 52.1 -3.5 52.05 -2.55 52.1 -1.5 52.8 -0.8 53.55 -0.05 54.5 0.0 55.55 -0.05 56.3 -0.8 M52.85 28.55 Q53.55 29.25 54.5 29.3 55.55 29.25 56.25 28.55 57.05 27.85 57.05 26.85 57.05 25.75 56.25 25.05 55.55 24.35 54.55 24.35 53.55 24.35 52.85 25.05 52.05 25.75 52.05 26.85 52.05 27.85 52.85 28.55 M37.05 9.85 Q36.3 9.1 35.25 9.15 34.3 9.1 33.6 9.8 32.8 10.6 32.8 11.6 32.8 12.6 33.6 13.3 34.35 14.05 35.25 14.05 36.35 14.05 37.05 13.35 37.8 12.6 37.8 11.6 37.8 10.6 37.05 9.85" fill="#debc94" fill-rule="evenodd" stroke="none"/>
      <path d="M29.9 2.1 Q39.4 1.8 45.8 -11.1 47.3 -13.8 48.4 -16.6 L49.9 -20.6 50.0 -19.4 50.8 -13.3 Q42.8 4.0 28.1 3.9 L28.85 2.35 29.9 2.1" fill="#b08f67" fill-rule="evenodd" stroke="none"/>
      <path d="M56.3 -0.8 Q55.55 -0.05 54.5 0.0 53.55 -0.05 52.8 -0.8 52.1 -1.5 52.05 -2.55 52.1 -3.5 52.85 -4.25 53.55 -4.95 54.5 -5.0 55.6 -5.0 56.25 -4.25 57.05 -3.55 57.05 -2.55 57.0 -1.5 56.3 -0.8 M52.85 28.55 Q52.05 27.85 52.05 26.85 52.05 25.75 52.85 25.05 53.55 24.35 54.55 24.35 55.55 24.35 56.25 25.05 57.05 25.75 57.05 26.85 57.05 27.85 56.25 28.55 55.55 29.25 54.5 29.3 53.55 29.25 52.85 28.55 M37.05 9.85 Q37.8 10.6 37.8 11.6 37.8 12.6 37.05 13.35 36.35 14.05 35.25 14.05 34.35 14.05 33.6 13.3 32.8 12.6 32.8 11.6 32.8 10.6 33.6 9.8 34.3 9.1 35.25 9.15 36.3 9.1 37.05 9.85" fill="#333333" fill-rule="evenodd" stroke="none"/>
      <path d="M173.75 10.15 L173.7 11.6 173.75 12.15 Q173.75 31.45 159.1 45.8 L154.65 49.75 Q135.6 65.3 108.5 65.3 81.5 65.3 62.35 49.75 55.15 43.85 50.65 37.05 57.05 34.75 62.35 30.85 66.0 36.7 72.2 41.7 87.25 53.95 108.5 54.0 129.8 54.0 144.85 41.75 156.45 32.35 159.1 19.8 159.85 16.15 159.85 12.15 L159.8 10.9 Q159.75 7.65 159.1 4.5 156.45 -7.95 144.85 -17.35 129.8 -29.6 108.5 -29.6 87.25 -29.65 72.2 -17.4 66.15 -12.45 62.5 -6.7 54.8 -11.6 51.05 -13.15 55.5 -19.7 62.35 -25.35 81.5 -40.9 108.5 -40.9 135.6 -40.9 154.65 -25.35 L159.1 -21.4 Q172.3 -8.5 173.65 8.35 L173.75 10.15 M28.1 18.6 L-4.8 18.6 -7.3 18.6 -8.2 14.1 Q-8.8 9.2 -7.75 4.05 L28.1 3.9 28.0 7.3 28.1 18.6 M13.8 7.3 L28.0 7.3 13.8 7.3 M-0.85 14.05 L-8.2 14.1 -0.85 14.05" fill="#edcd8e" fill-rule="evenodd" stroke="none"/>
      <path d="M50.55 -20.25 Q55.1 -27.1 62.35 -33.05 70.2 -39.4 79.25 -43.15 92.5 -48.6 108.5 -48.6 124.6 -48.6 137.75 -43.15 146.8 -39.4 154.65 -33.05 L159.1 -29.1 Q173.0 -15.5 173.75 2.55 L173.75 10.15 173.7 11.6 173.75 12.15 Q173.75 31.45 159.1 45.8 L154.65 49.75 Q135.6 65.3 108.5 65.3 81.5 65.3 62.35 49.75 55.15 43.85 50.65 37.05 L49.85 37.35 Q41.25 21.25 29.85 18.85 L28.1 18.6 -4.8 18.6 M-4.4 2.3 L28.85 2.35 28.85 2.05 29.9 2.1 Q39.4 1.8 45.8 -11.1 47.3 -13.8 48.4 -16.6 L49.9 -20.6 50.55 -20.25 50.0 -19.4 50.8 -13.3 51.05 -13.15 Q55.5 -19.7 62.35 -25.35 81.5 -40.9 108.5 -40.9 135.6 -40.9 154.65 -25.35 L159.1 -21.4 Q172.3 -8.5 173.65 8.35 L173.75 10.15 M49.9 -20.6 L50.0 -19.4 M56.3 -0.8 Q55.55 -0.05 54.5 0.0 53.55 -0.05 52.8 -0.8 52.1 -1.5 52.05 -2.55 52.1 -3.5 52.85 -4.25 53.55 -4.95 54.5 -5.0 55.6 -5.0 56.25 -4.25 57.05 -3.55 57.05 -2.55 57.0 -1.5 56.3 -0.8 M62.5 -6.7 Q66.15 -12.45 72.2 -17.4 87.25 -29.65 108.5 -29.6 129.8 -29.6 144.85 -17.35 156.45 -7.95 159.1 4.5 159.75 7.65 159.8 10.9 L159.85 12.15 Q159.85 16.15 159.1 19.8 156.45 32.35 144.85 41.75 129.8 54.0 108.5 54.0 87.25 53.95 72.2 41.7 66.0 36.7 62.35 30.85 57.05 34.75 50.65 37.05 M62.5 -6.7 Q62.8 -6.4 63.2 -6.2 56.4 7.2 59.25 19.75 66.55 30.85 72.45 35.65 87.5 47.9 108.8 47.9 130.05 47.85 145.1 35.6 156.7 26.2 159.35 13.75 L159.65 12.15 159.8 10.9 M51.05 -13.15 Q54.8 -11.6 62.5 -6.7 M52.85 28.55 Q52.05 27.85 52.05 26.85 52.05 25.75 52.85 25.05 53.55 24.35 54.55 24.35 55.55 24.35 56.25 25.05 57.05 25.75 57.05 26.85 57.05 27.85 56.25 28.55 55.55 29.25 54.5 29.3 53.55 29.25 52.85 28.55 M59.25 19.75 Q60.4 25.0 63.3 30.2 L62.35 30.85 M37.05 9.85 Q37.8 10.6 37.8 11.6 37.8 12.6 37.05 13.35 36.35 14.05 35.25 14.05 34.35 14.05 33.6 13.3 32.8 12.6 32.8 11.6 32.8 10.6 33.6 9.8 34.3 9.1 35.25 9.15 36.3 9.1 37.05 9.85 M28.0 7.3 L28.1 3.9 -7.75 4.05 M28.85 2.35 L29.9 2.1 M28.1 3.9 L28.85 2.35 M28.1 18.6 L28.0 7.3 M50.8 -13.3 Q42.8 4.0 28.1 3.9" fill="none" stroke="#000000" stroke-linecap="round" stroke-linejoin="round" stroke-opacity="0.5019608" stroke-width="1.0"/>
      <path d="M28.0 7.3 L13.8 7.3 M-8.2 14.1 L-0.85 14.05" fill="none" stroke="#000000" stroke-linecap="round" stroke-linejoin="round" stroke-opacity="0.2509804" stroke-width="0.5"/>
      <path d="M74.6 -19.3 L77.7 -19.3 77.7 -21.3 M70.35 -4.6 L77.7 -4.6 77.7 -11.95 70.35 -11.95 70.35 -4.6 70.35 2.7 77.7 2.7 77.7 -4.6 85.0 -4.6 85.0 -11.95 77.7 -11.95 77.7 -19.3 85.0 -19.3 85.0 -25.1 M62.4 -4.6 L63.0 -4.6 63.0 -7.55 M70.35 -4.6 L63.0 -4.6 63.0 2.7 70.35 2.7 70.35 10.05 77.7 10.05 77.7 2.7 85.0 2.7 85.0 -4.6 92.35 -4.6 92.35 -11.95 85.0 -11.95 85.0 -19.3 92.35 -19.3 92.35 -26.6 88.95 -26.6 M66.45 -11.95 L70.35 -11.95 70.35 -15.8 M114.35 -29.3 L114.35 -26.6 121.65 -26.6 121.65 -28.25 M99.65 -29.05 L99.65 -26.6 107.0 -26.6 107.0 -29.55 M107.0 -26.6 L107.0 -19.3 114.35 -19.3 114.35 -26.6 107.0 -26.6 M92.35 -27.6 L92.35 -26.6 99.65 -26.6 99.65 -19.3 107.0 -19.3 107.0 -11.95 114.35 -11.95 114.35 -19.3 121.65 -19.3 121.65 -26.6 127.95 -26.6 M92.35 -19.3 L99.65 -19.3 99.65 -11.95 107.0 -11.95 107.0 -4.6 114.35 -4.6 114.35 -11.95 121.65 -11.95 121.65 -19.3 129.0 -19.3 129.0 -26.25 M92.35 -4.6 L99.65 -4.6 99.65 -11.95 92.35 -11.95 92.35 -19.3 M99.65 -4.6 L99.65 2.7 107.0 2.7 107.0 -4.6 99.65 -4.6 M129.0 -19.3 L136.3 -19.3 136.3 -23.0 M129.0 -4.6 L136.3 -4.6 136.3 -11.95 129.0 -11.95 129.0 -4.6 129.0 2.7 136.3 2.7 136.3 -4.6 143.65 -4.6 143.65 -11.95 136.3 -11.95 136.3 -19.3 142.3 -19.3 M114.35 -4.6 L121.65 -4.6 121.65 -11.95 129.0 -11.95 129.0 -19.3 M129.0 -4.6 L121.65 -4.6 121.65 2.7 129.0 2.7 129.0 10.05 136.3 10.05 136.3 2.7 143.65 2.7 143.65 -4.6 151.0 -4.6 151.0 -11.35 M143.65 -11.95 L143.65 -18.25 M150.5 -11.95 L143.65 -11.95 M155.65 -4.6 L151.0 -4.6 151.0 2.7 158.3 2.7 158.3 1.75 M158.6 2.7 L158.3 2.7 158.3 10.05 159.75 10.05 M143.65 2.7 L143.65 10.05 151.0 10.05 151.0 2.7 143.65 2.7 M158.3 22.75 L158.3 17.4 151.0 17.4 151.0 24.7 157.65 24.7 M143.65 24.7 L143.65 32.05 151.0 32.05 151.0 24.7 143.65 24.7 143.65 17.4 136.3 17.4 136.3 24.7 143.65 24.7 M151.0 17.4 L143.65 17.4 143.65 10.05 136.3 10.05 136.3 17.4 129.0 17.4 129.0 24.7 136.3 24.7 136.3 32.05 143.65 32.05 143.65 39.35 147.55 39.35 M159.45 17.4 L158.3 17.4 158.3 10.05 151.0 10.05 151.0 17.4 M121.65 10.05 L121.65 17.4 129.0 17.4 129.0 10.05 121.65 10.05 121.65 2.7 114.35 2.7 114.35 10.05 121.65 10.05 M121.65 24.7 L121.65 32.05 129.0 32.05 129.0 24.7 121.65 24.7 121.65 17.4 114.35 17.4 114.35 24.7 121.65 24.7 M129.0 39.35 L121.65 39.35 121.65 46.7 129.0 46.7 129.0 39.35 129.0 32.05 136.3 32.05 136.3 39.35 143.65 39.35 143.65 42.7 M136.3 47.5 L136.3 46.7 129.0 46.7 129.0 50.7 M136.3 39.35 L136.3 46.7 137.65 46.7 M121.65 32.05 L114.35 32.05 114.35 39.35 121.65 39.35 121.65 32.05 M129.0 39.35 L136.3 39.35 M151.0 35.85 L151.0 32.05 153.85 32.05 M99.65 2.7 L99.65 10.05 107.0 10.05 107.0 2.7 114.35 2.7 114.35 -4.6 M107.0 17.4 L99.65 17.4 99.65 24.7 107.0 24.7 107.0 17.4 107.0 10.05 114.35 10.05 114.35 17.4 107.0 17.4 M107.0 24.7 L107.0 32.05 114.35 32.05 114.35 24.7 107.0 24.7 M99.65 2.7 L92.35 2.7 92.35 10.05 99.65 10.05 99.65 17.4 92.35 17.4 92.35 24.7 99.65 24.7 99.65 32.05 107.0 32.05 107.0 39.35 114.35 39.35 114.35 46.7 121.65 46.7 121.65 52.75 M77.7 10.05 L85.0 10.05 85.0 2.7 92.35 2.7 92.35 -4.6 M85.0 17.4 L77.7 17.4 77.7 24.7 85.0 24.7 85.0 17.4 85.0 10.05 92.35 10.05 92.35 17.4 85.0 17.4 M85.0 24.7 L85.0 32.05 92.35 32.05 92.35 24.7 85.0 24.7 M92.35 32.05 L92.35 39.35 99.65 39.35 99.65 32.05 92.35 32.05 M85.0 46.7 L92.35 46.7 92.35 39.35 85.0 39.35 85.0 46.7 85.0 49.6 M99.65 46.7 L107.0 46.7 107.0 39.35 99.65 39.35 99.65 46.7 99.65 53.5 M99.65 46.7 L92.35 46.7 92.35 52.05 M85.0 32.05 L77.7 32.05 77.7 39.35 85.0 39.35 85.0 32.05 M114.35 53.8 L114.35 46.7 107.0 46.7 107.0 54.05 107.75 54.05 M58.45 10.05 L63.0 10.05 63.0 2.7 59.7 2.7 M63.0 10.05 L63.0 17.4 70.35 17.4 70.35 10.05 63.0 10.05 M63.0 17.4 L63.0 24.7 70.35 24.7 70.35 17.4 77.7 17.4 77.7 10.05 M70.35 24.7 L70.35 32.05 77.7 32.05 77.7 24.7 70.35 24.7 M69.35 39.35 L70.35 39.35 70.35 32.05 63.0 32.05 63.0 24.7 60.65 24.7 M77.7 45.8 L77.7 39.35 70.35 39.35 70.35 40.3 M58.7 17.4 L63.0 17.4 M85.0 46.7 L79.25 46.7" fill="none" stroke="#000000" stroke-linecap="round" stroke-linejoin="round" stroke-opacity="0.2509804" stroke-width="1.0"/>
      <path d="M83.15 -31.45 Q94.85 -35.45 108.55 -35.45 L122.1 -34.4 M141.9 -28.1 Q147.15 -25.55 151.9 -22.05" fill="none" stroke="#000000" stroke-linecap="round" stroke-linejoin="round" stroke-opacity="0.2509804" stroke-width="0.5"/>
      <path d="M149.45 48.85 Q142.55 53.45 134.7 56.25 M93.9 59.3 Q85.35 57.8 77.7 54.4" fill="none" stroke="#000000" stroke-linecap="round" stroke-linejoin="round" stroke-opacity="0.2509804" stroke-width="0.5"/>
      <path d="M-11.3 -53.05 L-7.7 -50.85 -8.25 -50.5 Q-9.75 -49.4 -10.65 -48.15 L-13.5 -43.65 Q-14.85 -41.1 -16.9 -34.75 -18.95 -28.5 -19.5 -25.5 -20.15 -22.05 -20.15 -16.95 L-20.0 -12.05 Q-19.8 -9.35 -19.3 -8.15 L-19.9 -8.25 -21.15 -8.8 -21.55 -9.15 -21.8 -11.6 -21.95 -16.85 Q-21.95 -22.35 -21.35 -26.05 -20.9 -29.3 -19.05 -36.0 -17.25 -42.85 -16.05 -45.6 L-13.5 -50.45 -11.4 -53.0 -11.3 -53.05 M-51.65 -63.65 L-51.0 -63.65 -51.25 -63.0 Q-55.8 -52.05 -57.7 -40.0 L-59.0 -31.2 Q-60.0 -24.5 -61.1 -12.95 -62.25 -1.4 -60.95 7.65 -59.7 16.65 -58.9 19.65 L-57.85 23.5 Q-60.45 22.25 -61.15 18.65 -62.7 14.05 -63.5 9.05 -65.55 -4.3 -63.8 -17.85 L-61.9 -30.25 -60.4 -38.45 Q-58.3 -49.65 -53.15 -59.8 -51.65 -63.25 -51.65 -63.6 L-51.65 -63.65 M-22.85 19.45 L-23.2 19.35 -23.65 19.1 -24.05 18.65 -24.3 18.15 -24.5 17.0 -24.5 16.85 -24.5 15.1 -24.4 11.2 -23.8 6.75 Q-23.3 3.8 -22.6 1.85 -21.55 -1.05 -20.4 -0.65 L-20.4 -0.55 -20.9 0.45 Q-21.7 2.25 -22.25 5.0 L-22.9 9.1 -23.0 12.75 -23.05 14.35 -23.0 16.5 -23.05 18.4 -22.85 19.45 M-14.5 -1.35 L-14.6 -4.95 Q-14.7 -7.45 -17.6 -7.9 L-17.8 -7.9 -17.85 -8.95 -15.25 -8.6 Q-12.0 -8.2 -11.85 -5.9 L-11.75 -1.65 -14.5 -1.35 M-21.75 19.65 L-21.7 16.7 -19.65 17.0 Q-19.85 19.9 -20.15 21.15 L-20.95 22.3 -21.75 22.95 -21.5 19.7 -21.75 19.65 M-47.8 26.45 L-47.9 26.35 -48.55 25.55 -48.15 25.35 Q-47.9 25.7 -47.8 26.45" fill="#bdbdbd" fill-rule="evenodd" stroke="none"/>
      <path d="M-51.0 -63.65 Q-29.4 -63.45 -11.3 -53.05 L-11.4 -53.0 -13.5 -50.45 -16.05 -45.6 Q-17.25 -42.85 -19.05 -36.0 -20.9 -29.3 -21.35 -26.05 -21.95 -22.35 -21.95 -16.85 L-21.8 -11.6 -21.55 -9.15 -21.15 -8.8 -19.9 -8.25 -19.3 -8.15 Q-18.95 -7.15 -18.4 -7.15 -17.75 -7.15 -17.8 -7.4 L-17.8 -7.9 -17.6 -7.9 Q-14.7 -7.45 -14.6 -4.95 L-14.5 -1.35 -18.05 -1.05 -18.4 -1.0 -18.3 -1.45 -18.4 -1.9 Q-19.45 -2.2 -20.4 -0.55 L-20.4 -0.65 Q-21.55 -1.05 -22.6 1.85 -23.3 3.8 -23.8 6.75 L-24.4 11.2 -24.5 15.1 -24.5 16.85 -24.5 17.0 -24.3 18.15 -24.05 18.65 -23.65 19.1 -23.2 19.35 -22.85 19.45 -22.3 20.15 -21.75 19.95 -21.75 19.65 -21.5 19.7 -21.75 22.95 -22.1 23.1 -27.4 23.75 -33.05 24.0 -33.85 23.7 -33.9 23.7 -34.05 22.85 Q-34.4 21.85 -35.05 21.55 -35.75 21.25 -36.05 22.35 -36.25 23.05 -36.05 24.65 -36.15 25.8 -36.35 26.0 -37.35 26.9 -41.65 26.9 L-45.25 27.0 Q-47.15 26.95 -47.8 26.45 -47.9 25.7 -48.15 25.35 L-48.55 25.55 -48.65 25.4 -48.9 24.9 -48.9 24.75 -49.2 23.6 -49.25 23.6 -49.25 23.55 Q-49.35 22.65 -49.65 22.25 -50.45 22.25 -50.7 23.75 -51.15 24.1 -52.1 24.1 L-53.2 24.1 -55.5 24.05 -57.85 23.5 -58.9 19.65 Q-59.7 16.65 -60.95 7.65 -62.25 -1.4 -61.1 -12.95 -60.0 -24.5 -59.0 -31.2 L-57.7 -40.0 Q-55.8 -52.05 -51.25 -63.0 L-51.0 -63.65" fill="#999999" fill-rule="evenodd" stroke="none"/>
      <path d="M-7.7 -50.85 Q-6.3 -51.8 -6.3 -50.35 -6.3 -50.85 -8.85 -47.4 L-10.8 -44.5 -7.75 -46.05 -4.55 -47.7 Q-2.4 -48.45 -2.4 -47.0 -2.4 -45.45 -12.15 -42.0 L-13.15 -39.6 -16.5 -28.85 Q-17.8 -24.0 -18.0 -18.1 L-17.9 -10.15 -15.3 -10.25 -12.25 -9.85 Q-11.7 -9.6 -10.9 -8.8 -10.1 -7.95 -9.9 -6.65 L-9.85 -4.6 Q-9.85 -1.55 -10.0 -1.05 -10.45 0.35 -12.55 0.35 L-18.9 0.15 -19.35 1.05 Q-20.5 3.3 -20.65 4.0 L-21.2 6.45 -21.6 9.2 -21.7 14.45 -21.7 15.25 -20.15 15.1 Q-17.9 15.2 -18.05 17.35 L-17.9 21.25 Q-17.9 22.85 -19.0 23.95 -20.3 25.25 -22.95 25.75 L-26.4 26.0 -33.8 25.6 Q-33.85 26.35 -34.05 26.9 L-34.65 27.7 -36.1 28.6 Q-38.1 29.35 -41.7 29.35 L-47.2 28.8 Q-49.1 28.25 -50.0 27.3 L-50.6 26.3 -51.95 26.4 -53.2 26.4 -55.6 26.55 Q-61.1 26.25 -63.3 20.5 L-63.9 18.65 Q-67.3 6.5 -67.0 -6.15 -66.75 -18.3 -64.6 -30.25 -62.75 -40.75 -59.25 -50.8 -57.65 -55.4 -55.65 -59.8 -53.25 -64.4 -52.5 -64.4 L-51.95 -64.15 -51.9 -64.1 -51.65 -63.65 -51.65 -63.6 Q-51.65 -63.25 -53.15 -59.8 -58.3 -49.65 -60.4 -38.45 L-61.9 -30.25 -63.8 -17.85 Q-65.55 -4.3 -63.5 9.05 -62.7 14.05 -61.15 18.65 -60.45 22.25 -57.85 23.5 L-55.5 24.05 -53.2 24.1 -52.1 24.1 Q-51.15 24.1 -50.7 23.75 -50.45 22.25 -49.65 22.25 -49.35 22.65 -49.25 23.55 L-49.25 23.6 -49.2 23.6 -48.9 24.75 -48.9 24.9 -48.65 25.4 -48.55 25.55 -47.9 26.35 -47.8 26.45 Q-47.15 26.95 -45.25 27.0 L-41.65 26.9 Q-37.35 26.9 -36.35 26.0 -36.15 25.8 -36.05 24.65 -36.25 23.05 -36.05 22.35 -35.75 21.25 -35.05 21.55 -34.4 21.85 -34.05 22.85 L-33.9 23.7 -33.85 23.7 -33.05 24.0 -27.4 23.75 -22.1 23.1 -21.75 22.95 -20.95 22.3 -20.15 21.15 Q-19.85 19.9 -19.65 17.0 L-21.7 16.7 -21.75 19.65 -21.75 19.95 -22.3 20.15 -22.85 19.45 -23.05 18.4 -23.0 16.5 -23.05 14.35 -23.0 12.75 -22.9 9.1 -22.25 5.0 Q-21.7 2.25 -20.9 0.45 L-20.4 -0.55 Q-19.45 -2.2 -18.4 -1.9 L-18.3 -1.45 -18.4 -1.0 -18.05 -1.05 -14.5 -1.35 -11.75 -1.65 -11.85 -5.9 Q-12.0 -8.2 -15.25 -8.6 L-17.85 -8.95 -17.8 -7.9 -17.8 -7.4 Q-17.75 -7.15 -18.4 -7.15 -18.95 -7.15 -19.3 -8.15 -19.8 -9.35 -20.0 -12.05 L-20.15 -16.95 Q-20.15 -22.05 -19.5 -25.5 -18.95 -28.5 -16.9 -34.75 -14.85 -41.1 -13.5 -43.65 L-10.65 -48.15 Q-9.75 -49.4 -8.25 -50.5 L-7.7 -50.85" fill="#000000" fill-rule="evenodd" stroke="none"/>
    </g>
  </defs>
</svg>
