<?xml version="1.0" encoding="UTF-8" standalone="no"?>
<svg xmlns:xlink="http://www.w3.org/1999/xlink" height="531.5px" width="460.6px" xmlns="http://www.w3.org/2000/svg">
  <g transform="matrix(1.0, 0.0, 0.0, 1.0, 193.65, 334.05)">
    <use height="105.8" transform="matrix(1.0, 0.0, 0.0, 1.0, -98.65, -57.8)" width="225.95" xlink:href="#shape0"/>
  </g>
  <defs>
    <g id="shape0" transform="matrix(1.0, 0.0, 0.0, 1.0, 98.65, 57.8)">
      <path d="M-21.2 29.55 Q-26.95 29.8 -32.05 29.55 L-45.6 29.15 -52.6 28.75 -67.05 27.35 -66.05 9.75 -57.35 10.35 -52.8 10.65 -40.5 11.05 -31.15 11.2 -20.3 10.9 Q-19.4 20.55 -21.2 29.55 M-31.15 11.2 L-32.05 29.55 -31.15 11.2 M-52.6 28.75 L-54.95 19.55 -57.35 10.35 -54.95 19.55 -52.8 10.65 -54.95 19.55 -52.6 28.75 M-45.6 29.15 L-40.5 11.05 -45.6 29.15" fill="#c7a061" fill-rule="evenodd" stroke="none"/>
      <path d="M-21.2 29.55 Q-26.95 29.8 -32.05 29.55 L-45.6 29.15 -52.6 28.75 -67.05 27.35 -66.05 9.75 -57.35 10.35 -52.8 10.65 -40.5 11.05 -31.15 11.2 -20.3 10.9 Q-19.4 20.55 -21.2 29.55" fill="none" stroke="#000000" stroke-linecap="round" stroke-linejoin="round" stroke-opacity="0.5019608" stroke-width="1.0"/>
      <path d="M-40.5 11.05 L-45.6 29.15 M-57.35 10.35 L-54.95 19.55 -52.8 10.65 M-54.95 19.55 L-52.6 28.75 M-32.05 29.55 L-31.15 11.2" fill="none" stroke="#000000" stroke-linecap="round" stroke-linejoin="round" stroke-opacity="0.2" stroke-width="1.0"/>
      <path d="M-9.45 12.15 L-9.05 2.3 0.15 7.25 -9.45 12.15" fill="#00b399" fill-rule="evenodd" stroke="none"/>
      <path d="M33.0 10.2 L42.9 27.55 48.05 36.5 42.25 37.35 43.65 38.8 33.1 39.25 3.3 40.65 2.75 41.65 -0.15 42.0 -10.7 43.0 -10.05 25.25 -9.45 12.15 0.15 7.25 -9.05 2.3 -8.95 -0.8 13.0 3.4 17.4 4.3 14.9 6.95 29.95 8.65 28.45 9.85 33.0 10.15 33.0 10.2 M2.1 37.0 L6.9 35.5 Q12.35 33.65 16.8 31.4 L13.05 29.35 Q8.1 26.85 2.9 25.75 8.1 26.85 13.05 29.35 L16.8 31.4 Q12.35 33.65 6.9 35.5 L2.1 37.0 M20.6 13.45 L28.45 9.85 20.6 13.45 M13.0 3.4 L-6.2 21.7 -10.05 25.25 -6.2 21.7 13.0 3.4 M42.9 27.55 L33.1 39.25 42.9 27.55 M6.9 35.5 L13.05 29.35 6.9 35.5 M-6.2 21.7 L-0.15 42.0 -6.2 21.7" fill="url(#gradient0)" fill-rule="evenodd" stroke="none"/>
      <path d="M101.15 31.65 L92.9 27.4 99.6 21.8 92.9 27.4 101.15 31.65 86.2 33.05 92.9 27.4 86.2 33.05 79.2 33.7 80.85 36.15 77.2 36.2 68.5 36.25 48.05 36.5 42.9 27.55 33.0 10.2 73.6 14.8 72.45 16.5 99.6 21.8 126.8 27.05 105.2 29.7 107.0 31.05 101.15 31.65 M78.1 32.1 L73.25 34.2 68.5 36.25 73.25 34.2 78.1 32.1 71.55 23.45 78.1 32.1 79.2 33.7 78.1 32.1 M77.2 36.2 L73.25 34.2 77.2 36.2 M46.55 24.45 L52.7 22.3 43.5 16.7 52.7 22.3 46.55 24.45" fill="url(#gradient1)" fill-rule="evenodd" stroke="none"/>
      <path d="M101.15 31.65 L107.0 31.05 105.2 29.7 126.8 27.05 99.6 21.8 72.45 16.5 73.6 14.8 33.0 10.2 M48.05 36.5 L68.5 36.25 77.2 36.2 80.85 36.15 79.2 33.7 86.2 33.05 101.15 31.65 M78.1 32.1 L71.55 23.45 M78.1 32.1 L79.2 33.7 M43.5 16.7 L52.7 22.3 46.55 24.45 M48.05 36.5 L42.25 37.35 43.65 38.8 33.1 39.25 3.3 40.65 2.75 41.65 -0.15 42.0 -10.7 43.0 -10.05 25.25 -9.45 12.15 -9.05 2.3 -8.95 -0.8 13.0 3.4 17.4 4.3 14.9 6.95 29.95 8.65 28.45 9.85 33.0 10.15 M28.45 9.85 L20.6 13.45 M2.9 25.75 Q8.1 26.85 13.05 29.35 L16.8 31.4 Q12.35 33.65 6.9 35.5 L2.1 37.0 M-9.45 12.15 L0.15 7.25 -9.05 2.3" fill="none" stroke="#000000" stroke-linecap="round" stroke-linejoin="round" stroke-opacity="0.3019608" stroke-width="1.0"/>
      <path d="M99.6 21.8 L92.9 27.4 101.15 31.65 M33.0 10.2 L42.9 27.55 48.05 36.5 M68.5 36.25 L73.25 34.2 78.1 32.1 M92.9 27.4 L86.2 33.05 M73.25 34.2 L77.2 36.2 M13.05 29.35 L6.9 35.5 M33.1 39.25 L42.9 27.55 M-10.05 25.25 L-6.2 21.7 13.0 3.4 M-0.15 42.0 L-6.2 21.7" fill="none" stroke="#ffffff" stroke-linecap="round" stroke-linejoin="round" stroke-opacity="0.5019608" stroke-width="1.0"/>
      <path d="M-20.9 -6.15 L-13.95 -6.0 -7.35 -5.3 Q-7.5 8.35 -8.2 22.0 -8.85 34.7 -9.85 47.5 L-20.85 46.95 -25.6 46.7 Q-25.3 20.9 -23.1 -6.1 L-20.9 -6.15 -20.85 46.95 -20.9 -6.15 M-8.2 22.0 Q-10.15 20.2 -11.5 17.9 -15.05 12.0 -14.55 2.1 L-13.95 -6.0 -14.55 2.1 Q-15.05 12.0 -11.5 17.9 -10.15 20.2 -8.2 22.0" fill="#915922" fill-rule="evenodd" stroke="none"/>
      <path d="M-20.9 -6.15 L-13.95 -6.0 -7.35 -5.3 Q-7.5 8.35 -8.2 22.0 -8.85 34.7 -9.85 47.5 L-20.85 46.95 -25.6 46.7 Q-25.3 20.9 -23.1 -6.1 L-20.9 -6.15" fill="none" stroke="#000000" stroke-linecap="round" stroke-linejoin="round" stroke-opacity="0.5019608" stroke-width="1.0"/>
      <path d="M-20.9 -6.15 L-20.85 46.95 M-13.95 -6.0 L-14.55 2.1 Q-15.05 12.0 -11.5 17.9 -10.15 20.2 -8.2 22.0" fill="none" stroke="#000000" stroke-linecap="round" stroke-linejoin="round" stroke-opacity="0.15294118" stroke-width="1.0"/>
      <path d="M-69.15 35.55 L-78.0 37.6 -82.0 31.75 -98.15 27.9 -90.6 13.45 -97.4 4.4 -83.1 2.65 -76.1 4.05 -76.1 -1.95 -65.55 5.2 -63.8 17.35 -66.5 30.8 -69.15 35.55 M-76.55 13.8 L-76.1 4.05 -76.55 13.8 M-69.55 16.4 L-72.65 22.95 -70.3 25.4 -72.65 22.95 -75.7 29.45 -72.65 22.95 -69.55 16.4 M-82.9 20.3 L-88.2 23.15 -82.9 20.3" fill="url(#gradient2)" fill-rule="evenodd" stroke="none"/>
      <path d="M-70.3 25.4 L-72.65 22.95 -75.7 29.45 M-88.2 23.15 L-82.9 20.3 M-72.65 22.95 L-69.55 16.4" fill="none" stroke="#000000" stroke-linecap="round" stroke-linejoin="round" stroke-opacity="0.15294118" stroke-width="1.0"/>
      <path d="M-69.15 35.55 L-78.0 37.6 -82.0 31.75 -98.15 27.9 -90.6 13.45 -97.4 4.4 -83.1 2.65 -76.1 4.05 -76.1 -1.95 -65.55 5.2 -63.8 17.35 -66.5 30.8 -69.15 35.55 M-76.1 4.05 L-76.55 13.8" fill="none" stroke="#000000" stroke-linecap="round" stroke-linejoin="round" stroke-opacity="0.3019608" stroke-width="1.0"/>
      <path d="M-14.8 -40.35 L-14.65 -40.75 -14.1 -40.4 -13.95 -40.25 Q-13.65 -39.85 -13.65 -39.0 L-18.9 -27.9 Q-24.15 -15.8 -24.15 -9.9 L-23.65 -6.0 -23.2 -4.2 -23.1 -3.95 -20.8 -4.25 -18.45 -3.95 -17.65 -2.55 Q-16.3 0.1 -15.75 3.1 L-15.6 3.75 Q-15.25 5.45 -15.25 6.05 -15.25 6.95 -15.85 7.2 L-18.2 7.7 Q-19.95 7.95 -21.7 8.9 -23.5 9.8 -23.95 11.55 -24.5 13.25 -24.7 15.85 L-24.95 20.3 Q-25.0 22.2 -26.2 23.8 -27.45 25.4 -27.8 26.7 L-27.5 29.8 Q-27.5 31.1 -26.85 33.0 L-26.45 34.2 -26.55 35.15 -26.95 35.9 -27.0 36.05 -27.1 36.1 Q-27.65 37.0 -29.05 38.1 -31.25 39.75 -32.95 39.75 -36.9 39.75 -39.8 37.5 L-40.15 37.2 -41.75 38.05 Q-44.7 39.55 -46.4 39.55 L-46.7 39.55 Q-48.25 39.5 -49.7 38.85 -51.95 37.9 -53.95 35.55 L-53.95 35.5 -54.15 35.6 -54.6 35.7 -55.65 35.75 Q-63.05 35.75 -66.15 25.25 L-67.6 19.95 -68.85 14.3 -70.55 3.8 Q-71.85 -3.65 -71.85 -7.3 -71.85 -11.0 -70.5 -16.8 -69.15 -22.65 -61.65 -42.35 -54.8 -60.5 -54.15 -57.3 L-54.1 -57.1 -54.1 -56.65 -54.1 -56.6 Q-53.8 -57.1 -54.3 -55.85 L-55.7 -52.65 -58.75 -45.85 Q-62.65 -37.05 -64.85 -30.75 -67.1 -24.55 -68.65 -18.75 -69.35 -16.4 -69.55 -14.0 L-70.0 -7.35 Q-70.25 -3.1 -69.25 2.45 L-66.75 15.25 Q-65.2 22.5 -64.1 25.6 -63.1 28.45 -61.45 30.7 L-61.25 30.95 -59.75 32.35 Q-58.15 33.3 -55.65 33.65 L-55.35 33.7 -55.85 32.95 Q-56.75 31.5 -56.75 30.5 L-56.4 29.7 Q-56.15 29.35 -53.35 33.4 -50.6 37.45 -47.75 37.4 -44.95 37.3 -43.3 36.05 L-42.5 35.55 -41.95 35.25 -41.85 35.2 -41.9 35.15 -42.05 34.55 -42.1 34.25 -41.95 33.2 -41.65 32.95 -39.15 35.3 Q-36.05 37.25 -33.8 37.3 -32.2 37.35 -31.15 36.75 L-30.4 36.2 -30.05 35.8 Q-29.3 34.9 -29.2 34.45 L-29.2 34.4 -29.7 31.65 -29.8 29.1 -29.8 27.15 -29.65 25.65 -29.3 24.7 -27.75 22.45 -27.1 21.5 Q-26.5 20.6 -26.55 18.85 L-26.6 15.9 -25.75 10.25 Q-25.65 9.45 -24.75 8.65 L-23.1 7.45 Q-20.85 6.15 -18.55 5.75 L-17.9 5.65 -17.9 5.6 -17.3 5.35 Q-17.05 5.15 -17.05 4.7 L-17.45 3.15 -17.6 2.85 -18.45 0.2 -18.5 0.05 -19.3 -1.8 Q-19.8 -2.6 -20.5 -2.6 L-22.25 -2.55 -23.7 -2.6 -23.9 -3.15 Q-24.6 -4.55 -25.05 -7.0 L-25.55 -10.85 Q-25.55 -12.15 -24.8 -15.4 L-24.2 -17.9 Q-23.05 -21.55 -20.9 -26.55 L-14.8 -40.35" fill="#000000" fill-rule="evenodd" stroke="none"/>
      <path d="M-54.1 -57.1 L-53.9 -57.1 -52.8 -57.15 -52.85 -57.05 -54.4 -53.05 -56.5 -47.9 Q-60.1 -38.7 -62.15 -32.1 -64.25 -25.6 -65.7 -19.55 -66.4 -17.1 -66.55 -14.55 L-67.1 -7.6 Q-67.35 -3.15 -66.5 2.65 L-64.4 16.0 Q-63.1 23.6 -62.2 26.85 L-60.9 30.3 -59.75 32.35 -61.25 30.95 -61.45 30.7 Q-63.1 28.45 -64.1 25.6 -65.2 22.5 -66.75 15.25 L-69.25 2.45 Q-70.25 -3.1 -70.0 -7.35 L-69.55 -14.0 Q-69.35 -16.4 -68.65 -18.75 -67.1 -24.55 -64.85 -30.75 -62.65 -37.05 -58.75 -45.85 L-55.7 -52.65 -54.3 -55.85 Q-53.8 -57.1 -54.1 -56.6 L-54.1 -56.65 -54.1 -57.1 M-16.8 -42.95 L-14.8 -40.35 -20.9 -26.55 Q-23.05 -21.55 -24.2 -17.9 L-24.8 -15.4 Q-25.55 -12.15 -25.55 -10.85 L-25.05 -7.0 Q-24.6 -4.55 -23.9 -3.15 L-23.7 -2.6 -25.45 -2.65 -25.65 -3.2 Q-26.3 -4.7 -26.65 -7.25 L-27.05 -11.3 Q-27.05 -12.65 -26.3 -16.05 L-25.75 -18.65 -22.7 -27.7 -16.8 -42.95 M-22.25 -2.55 L-20.5 -2.6 Q-19.8 -2.6 -19.3 -1.8 L-18.5 0.05 -18.45 0.2 -17.6 2.85 -17.45 3.15 -17.05 4.7 Q-17.05 5.15 -17.3 5.35 L-17.9 5.6 -17.9 5.65 -18.55 5.75 Q-20.85 6.15 -23.1 7.45 L-24.75 8.65 Q-25.65 9.45 -25.75 10.25 L-26.6 15.9 -26.55 18.85 Q-26.5 20.6 -27.1 21.5 L-27.75 22.45 -29.3 24.7 -29.65 25.65 -29.8 27.15 -29.8 29.1 -29.7 31.65 -29.2 34.4 -29.2 34.45 Q-29.3 34.9 -30.05 35.8 L-30.4 36.2 -31.15 36.75 -30.9 36.1 -30.9 36.05 -30.95 35.4 -31.25 33.2 -31.35 30.5 -31.3 28.45 Q-31.3 26.8 -30.85 25.9 L-30.5 25.25 -28.85 22.55 -28.65 22.05 Q-28.3 21.15 -28.3 19.8 L-28.35 16.7 -27.5 10.8 Q-27.35 9.6 -25.6 8.25 L-25.1 7.85 Q-22.75 6.3 -20.35 6.0 L-20.35 5.95 -19.85 5.65 -19.65 5.35 -19.6 5.0 -20.0 3.35 -20.05 3.05 -20.85 0.3 -20.85 0.1 Q-21.35 -1.55 -21.55 -1.8 L-22.25 -2.55 M-42.05 34.55 L-41.9 35.15 -41.85 35.2 -41.95 35.25 -42.5 35.55 -42.35 34.85 -42.35 34.8 -42.3 34.75 -42.1 34.55 -42.05 34.55" fill="#bdbdbd" fill-rule="evenodd" stroke="none"/>
      <path d="M-52.8 -57.15 Q-28.7 -57.45 -16.8 -42.95 L-22.7 -27.7 -25.75 -18.65 -26.3 -16.05 Q-27.05 -12.65 -27.05 -11.3 L-26.65 -7.25 Q-26.3 -4.7 -25.65 -3.2 L-25.45 -2.65 -23.7 -2.6 -22.25 -2.55 -21.55 -1.8 Q-21.35 -1.55 -20.85 0.1 L-20.85 0.3 -20.05 3.05 -20.0 3.35 -19.6 5.0 -19.65 5.35 -19.85 5.65 -20.35 5.95 -20.35 6.0 Q-22.75 6.3 -25.1 7.85 L-25.6 8.25 Q-27.35 9.6 -27.5 10.8 L-28.35 16.7 -28.3 19.8 Q-28.3 21.15 -28.65 22.05 L-28.85 22.55 -30.5 25.25 -30.85 25.9 Q-31.3 26.8 -31.3 28.45 L-31.35 30.5 -31.25 33.2 -30.95 35.4 -30.9 36.05 -30.9 36.1 -31.15 36.75 Q-32.2 37.35 -33.8 37.3 -36.05 37.25 -39.15 35.3 L-41.65 32.95 -41.95 33.2 -42.1 34.25 -42.05 34.55 -42.1 34.55 -42.3 34.75 -42.35 34.8 -42.35 34.85 -42.5 35.55 -43.3 36.05 Q-44.95 37.3 -47.75 37.4 -50.6 37.45 -53.35 33.4 -56.15 29.35 -56.4 29.7 L-56.75 30.5 Q-56.75 31.5 -55.85 32.95 L-55.35 33.7 -55.65 33.65 Q-58.15 33.3 -59.75 32.35 L-60.9 30.3 -62.2 26.85 Q-63.1 23.6 -64.4 16.0 L-66.5 2.65 Q-67.35 -3.15 -67.1 -7.6 L-66.55 -14.55 Q-66.4 -17.1 -65.7 -19.55 -64.25 -25.6 -62.15 -32.1 -60.1 -38.7 -56.5 -47.9 L-54.4 -53.05 -52.85 -57.05 -52.8 -57.15" fill="#999999" fill-rule="evenodd" stroke="none"/>
    </g>
    <linearGradient gradientTransform="matrix(0.0451, 0.0024, -0.0013, 0.0267, 26.75, 19.7)" gradientUnits="userSpaceOnUse" id="gradient0" spreadMethod="pad" x1="-819.2" x2="819.2">
      <stop offset="0.0" stop-color="#00b399"/>
      <stop offset="1.0" stop-color="#33ffff"/>
    </linearGradient>
    <linearGradient gradientTransform="matrix(0.045, 0.004, -0.0013, 0.0267, 26.75, 19.5)" gradientUnits="userSpaceOnUse" id="gradient1" spreadMethod="pad" x1="-819.2" x2="819.2">
      <stop offset="0.0" stop-color="#00b399"/>
      <stop offset="1.0" stop-color="#33ffff"/>
    </linearGradient>
    <linearGradient gradientTransform="matrix(0.0033, -0.0206, 0.0239, 0.0038, -79.85, 10.35)" gradientUnits="userSpaceOnUse" id="gradient2" spreadMethod="pad" x1="-819.2" x2="819.2">
      <stop offset="0.0" stop-color="#00b399"/>
      <stop offset="1.0" stop-color="#33ffff"/>
    </linearGradient>
  </defs>
</svg>
