<?xml version="1.0" encoding="UTF-8" standalone="no"?>
<svg xmlns:xlink="http://www.w3.org/1999/xlink" height="531.5px" width="460.6px" xmlns="http://www.w3.org/2000/svg">
  <g transform="matrix(1.0, 0.0, 0.0, 1.0, 193.65, 334.05)">
    <use height="123.45" transform="matrix(1.0, 0.0, 0.0, 1.0, -123.3, -58.1)" width="285.5" xlink:href="#shape0"/>
  </g>
  <defs>
    <g id="shape0" transform="matrix(1.0, 0.0, 0.0, 1.0, 123.3, 58.1)">
      <path d="M103.55 7.85 L91.35 10.15 81.6 10.8 49.4 13.5 46.5 13.7 Q40.75 13.1 35.35 9.95 L33.65 8.3 32.55 6.95 Q32.15 6.05 32.05 4.85 31.85 3.35 32.25 1.45 33.55 -1.85 35.9 -4.1 L38.85 -7.15 40.8 -8.6 Q45.65 -12.95 50.55 -18.05 L60.25 -27.5 61.35 -28.55 Q63.75 -30.15 65.65 -32.2 77.4 -42.5 92.85 -44.1 108.1 -45.05 121.3 -37.3 123.55 -36.0 125.2 -34.4 L131.25 -29.6 131.4 -29.45 136.0 -25.0 Q141.7 -20.45 143.15 -15.75 144.8 -10.65 140.9 -5.8 L138.45 -3.7 Q136.1 -1.45 132.8 0.3 127.85 3.15 121.45 4.6 L103.55 7.85 M80.3 -36.9 Q79.0 -36.6 78.15 -35.9 75.85 -34.4 74.0 -32.05 L72.4 -30.4 69.5 -27.45 68.05 -25.65 60.0 -17.3 58.85 -15.8 59.15 -15.85 61.85 -16.15 65.75 -16.55 Q67.25 -16.4 69.25 -16.5 L66.35 -15.25 62.45 -14.5 Q60.75 -14.05 59.2 -13.1 L56.1 -11.7 55.45 -11.15 Q52.05 -8.65 49.4 -5.6 44.3 -1.65 42.45 4.15 42.15 4.45 42.2 4.8 45.0 10.8 53.0 10.65 L58.75 10.05 63.2 9.2 70.05 8.15 85.6 5.8 105.6 2.6 108.45 2.15 Q112.7 1.2 116.8 -0.15 L118.4 -0.5 Q120.2 -1.05 121.2 -1.55 L124.7 -2.85 129.3 -5.25 Q132.5 -6.8 134.95 -8.9 L135.8 -9.65 136.45 -10.75 Q138.1 -13.55 138.35 -16.6 L135.0 -20.3 Q132.6 -23.05 130.1 -25.05 L128.25 -26.25 124.25 -29.7 110.55 -27.3 118.85 -30.5 Q114.7 -33.8 109.8 -36.3 107.4 -37.65 104.6 -38.6 98.65 -41.1 92.25 -40.25 89.7 -40.1 87.15 -39.3 83.65 -38.35 80.3 -36.9 M87.95 -32.15 L105.4 -32.45 71.25 -27.25 Q77.1 -30.15 83.05 -31.45 L87.95 -32.15 M97.35 -10.75 Q102.25 -12.35 107.0 -11.8 110.05 -11.6 113.55 -10.1 L100.75 -9.1 99.35 -8.1 Q98.4 -7.5 97.0 -7.2 96.05 -6.65 94.7 -6.35 L75.85 -6.65 82.45 -7.1 86.45 -8.0 94.4 -10.1 97.35 -10.75 M142.05 16.1 L142.3 17.15 142.5 17.55 141.85 21.45 Q141.3 22.85 140.15 23.95 L137.4 26.35 134.9 27.1 133.65 26.95 Q132.05 27.25 130.35 27.0 129.0 27.0 128.15 26.05 L126.95 25.1 Q125.55 23.75 125.0 21.7 L124.65 19.75 124.35 18.1 124.1 17.7 123.95 17.55 124.75 16.55 Q126.15 13.8 129.1 11.85 131.85 10.4 134.65 11.0 L137.3 12.1 Q138.8 12.7 139.45 13.2 L139.65 13.65 Q140.95 14.7 142.05 16.1" fill="#ffffff" fill-rule="evenodd" stroke="none"/>
      <path d="M-7.75 2.1 Q6.6 3.2 20.55 0.05 27.75 -3.45 36.35 -10.55 48.85 -21.3 66.6 -41.6 80.95 -55.2 98.7 -50.05 114.35 -42.0 134.05 -33.1 149.6 -27.0 159.95 -9.15 L160.15 -8.0 159.75 -7.15 158.85 -6.75 156.9 -6.95 155.55 -7.75 152.65 -9.55 Q150.75 -10.25 149.4 -11.6 L148.25 -12.2 147.25 -13.0 143.15 -15.75 Q141.7 -20.45 136.0 -25.0 L131.4 -29.45 131.25 -29.6 125.2 -34.4 Q123.55 -36.0 121.3 -37.3 108.1 -45.05 92.85 -44.1 77.4 -42.5 65.65 -32.2 63.75 -30.15 61.35 -28.55 L60.25 -27.5 50.55 -18.05 Q45.65 -12.95 40.8 -8.6 L38.85 -7.15 35.9 -4.1 Q33.55 -1.85 32.25 1.45 31.85 3.35 32.05 4.85 32.15 6.05 32.55 6.95 L33.65 8.3 35.35 9.95 Q40.75 13.1 46.5 13.7 L49.4 13.5 81.6 10.8 91.35 10.15 103.55 7.85 Q102.6 8.45 102.5 9.2 L101.55 9.75 98.4 13.3 98.0 13.8 94.95 17.35 93.75 19.15 91.9 21.2 85.45 27.25 Q82.65 29.35 79.85 31.8 L79.45 32.0 Q76.55 33.5 73.5 33.55 L72.35 33.7 70.8 33.3 69.25 33.15 Q65.1 32.55 61.2 30.85 L52.85 28.0 51.3 27.6 42.6 24.5 40.9 24.2 32.3 21.65 29.15 21.15 Q24.6 20.0 20.05 19.85 L17.25 20.35 12.9 21.3 11.4 21.5 Q6.6 21.7 2.85 19.55 0.85 18.25 -0.5 16.9 L-1.15 16.35 -2.0 15.7 Q-2.15 15.55 -2.35 15.45 -3.0 14.9 -3.5 14.8 L-7.05 14.15 -11.35 13.4 -15.65 10.55 -18.05 9.2 -10.65 6.0 -6.0 4.3 -7.75 2.1" fill="#cc6532" fill-rule="evenodd" stroke="none"/>
      <path d="M-7.75 2.1 L-9.3 -0.5 Q6.15 1.7 21.05 -1.95 28.3 -5.2 37.2 -12.6 49.65 -23.1 67.55 -43.5 82.2 -57.75 99.8 -52.45 115.9 -44.25 135.65 -35.1 149.75 -29.85 159.6 -14.9 160.3 -13.0 161.55 -11.15 162.4 -6.4 161.55 -0.55 L160.8 0.8 159.85 1.65 Q160.55 -3.75 160.15 -8.0 L159.95 -9.15 Q149.6 -27.0 134.05 -33.1 114.35 -42.0 98.7 -50.05 80.95 -55.2 66.6 -41.6 48.85 -21.3 36.35 -10.55 27.75 -3.45 20.55 0.05 6.6 3.2 -7.75 2.1" fill="#ff8047" fill-rule="evenodd" stroke="none"/>
      <path d="M80.3 -36.9 Q83.65 -38.35 87.15 -39.3 89.7 -40.1 92.25 -40.25 98.65 -41.1 104.6 -38.6 107.4 -37.65 109.8 -36.3 114.7 -33.8 118.85 -30.5 L110.55 -27.3 124.25 -29.7 128.25 -26.25 130.1 -25.05 Q132.6 -23.05 135.0 -20.3 L138.35 -16.6 Q138.1 -13.55 136.45 -10.75 L135.8 -9.65 134.95 -8.9 Q132.5 -6.8 129.3 -5.25 L124.7 -2.85 121.2 -1.55 Q120.2 -1.05 118.4 -0.5 L116.8 -0.15 Q112.7 1.2 108.45 2.15 L105.6 2.6 85.6 5.8 70.05 8.15 63.2 9.2 58.75 10.05 53.0 10.65 Q45.0 10.8 42.2 4.8 42.15 4.45 42.45 4.15 44.3 -1.65 49.4 -5.6 52.05 -8.65 55.45 -11.15 L56.1 -11.7 59.2 -13.1 Q60.75 -14.05 62.45 -14.5 L66.35 -15.25 69.25 -16.5 Q67.25 -16.4 65.75 -16.55 L61.85 -16.15 59.15 -15.85 58.85 -15.8 60.0 -17.3 68.05 -25.65 69.5 -27.45 72.4 -30.4 74.0 -32.05 Q75.85 -34.4 78.15 -35.9 79.0 -36.6 80.3 -36.9 M97.35 -10.75 L94.4 -10.1 86.45 -8.0 82.45 -7.1 75.85 -6.65 94.7 -6.35 Q96.05 -6.65 97.0 -7.2 98.4 -7.5 99.35 -8.1 L100.75 -9.1 113.55 -10.1 Q110.05 -11.6 107.0 -11.8 102.25 -12.35 97.35 -10.75 M87.95 -32.15 L83.05 -31.45 Q77.1 -30.15 71.25 -27.25 L105.4 -32.45 87.95 -32.15" fill="#cc3232" fill-rule="evenodd" stroke="none"/>
      <path d="M160.15 -8.0 Q160.55 -3.75 159.85 1.65 157.2 3.9 155.65 6.2 151.8 9.7 148.2 11.8 L147.25 12.95 143.3 16.9 142.9 17.4 142.05 16.1 Q140.95 14.7 139.65 13.65 L139.45 13.2 Q138.8 12.7 137.3 12.1 L134.65 11.0 Q131.85 10.4 129.1 11.85 126.15 13.8 124.75 16.55 L123.95 17.55 123.7 18.2 Q122.2 17.0 121.45 16.9 120.95 16.5 120.05 16.6 117.95 17.9 116.15 19.5 L114.7 20.25 114.25 21.5 113.7 23.25 113.3 24.05 Q112.25 26.8 114.95 29.2 112.95 30.05 111.15 30.5 L105.9 32.35 Q105.6 32.7 104.7 32.8 104.15 32.85 103.3 33.55 96.25 37.2 88.45 40.55 86.15 41.45 83.55 41.55 83.0 40.55 81.7 40.05 L78.2 37.3 75.65 34.7 Q75.0 34.2 73.5 33.55 76.55 33.5 79.45 32.0 L79.85 31.8 Q82.65 29.35 85.45 27.25 L91.9 21.2 93.75 19.15 94.95 17.35 98.0 13.8 98.4 13.3 101.55 9.75 102.5 9.2 Q102.6 8.45 103.55 7.85 L121.45 4.6 Q127.85 3.15 132.8 0.3 136.1 -1.45 138.45 -3.7 L140.9 -5.8 Q144.8 -10.65 143.15 -15.75 L147.25 -13.0 148.25 -12.2 149.4 -11.6 Q150.75 -10.25 152.65 -9.55 L155.55 -7.75 156.9 -6.95 158.85 -6.75 159.75 -7.15 160.15 -8.0" fill="#a57235" fill-rule="evenodd" stroke="none"/>
      <path d="M150.65 41.25 Q147.85 43.4 144.05 44.75 123.5 52.35 107.9 60.95 101.45 64.3 94.85 65.0 L95.65 64.0 96.85 62.25 Q97.7 60.2 98.15 57.8 L98.05 56.9 Q97.95 56.0 97.1 55.35 L93.75 51.3 Q93.7 50.75 92.9 50.35 L92.05 49.4 Q88.9 45.8 85.55 43.15 L85.05 42.75 83.55 41.55 Q86.15 41.45 88.45 40.55 96.25 37.2 103.3 33.55 104.15 32.85 104.7 32.8 105.6 32.7 105.9 32.35 L111.15 30.5 Q112.95 30.05 114.95 29.2 L115.8 29.85 117.0 31.05 Q116.35 33.3 118.4 35.2 L118.55 35.6 Q121.75 39.8 126.2 41.45 131.45 43.1 136.5 41.2 L136.8 41.15 Q139.4 39.95 143.05 37.1 L145.3 33.95 Q145.9 32.85 146.05 31.3 147.05 26.6 145.65 22.85 144.6 19.75 142.9 17.4 L143.3 16.9 147.25 12.95 148.2 11.8 Q151.8 9.7 155.65 6.2 157.2 3.9 159.85 1.65 158.65 7.25 156.05 13.95 L153.9 34.05 Q153.2 38.05 150.65 41.25" fill="#82521c" fill-rule="evenodd" stroke="none"/>
      <path d="M159.85 1.65 L160.8 0.8 161.55 -0.55 Q160.65 5.05 157.7 12.2 L155.55 32.35 Q154.65 37.6 150.65 41.25 153.2 38.05 153.9 34.05 L156.05 13.95 Q158.65 7.25 159.85 1.65" fill="#ab481b" fill-rule="evenodd" stroke="none"/>
      <path d="M-117.3 20.35 Q-117.2 20.2 -117.55 19.95 L-116.1 17.8 -115.85 17.45 -113.85 14.95 -112.75 13.65 -110.4 10.65 -110.25 10.45 Q-109.85 9.7 -110.1 9.25 L-114.85 7.35 Q-117.15 6.85 -119.0 5.7 L-120.15 4.5 Q-120.9 3.6 -121.2 2.3 L-121.4 1.9 -121.75 1.3 -122.4 -0.3 -122.65 -1.05 Q-123.7 -3.8 -122.0 -6.0 -114.25 4.85 -92.35 7.8 -70.2 10.2 -48.5 10.05 -29.55 9.55 -15.65 10.55 L-11.35 13.4 -7.75 15.75 -8.05 15.8 -10.8 15.8 -19.65 15.55 -21.2 15.9 -30.25 15.25 -39.15 14.7 -47.6 13.7 -56.0 13.3 -57.8 13.5 -66.7 12.95 -69.0 12.75 -77.95 13.0 Q-82.35 12.8 -86.7 13.1 L-92.1 13.7 Q-94.35 14.15 -96.05 15.25 L-97.4 16.6 -97.95 17.25 Q-101.45 19.95 -105.85 21.35 L-109.85 21.95 -111.85 22.05 -114.4 21.85 -115.05 21.65 Q-116.45 21.0 -117.3 20.35 M142.9 17.4 Q144.6 19.75 145.65 22.85 147.05 26.6 146.05 31.3 145.9 32.85 145.3 33.95 L142.1 35.55 138.05 37.2 135.7 37.75 Q133.0 38.1 130.9 36.95 128.75 35.85 127.25 34.3 L126.55 33.5 125.7 32.85 124.45 31.3 124.1 30.75 Q124.0 29.85 123.35 29.3 L120.15 29.2 Q118.75 28.9 117.75 28.1 L117.05 27.6 Q115.4 26.25 114.55 24.55 L113.85 23.4 113.7 23.25 114.25 21.5 114.7 20.25 116.15 19.5 Q117.95 17.9 120.05 16.6 120.95 16.5 121.45 16.9 122.2 17.0 123.7 18.2 L123.95 17.55 124.1 17.7 124.35 18.1 124.65 19.75 125.0 21.7 Q125.55 23.75 126.95 25.1 L128.15 26.05 Q129.0 27.0 130.35 27.0 132.05 27.25 133.65 26.95 L134.9 27.1 137.4 26.35 140.15 23.95 Q141.3 22.85 141.85 21.45 L142.5 17.55 142.3 17.15 142.05 16.1 142.9 17.4 M123.15 19.9 L123.7 18.2 123.15 19.9 M-110.2 14.9 L-108.15 11.6 -110.2 14.9 M-108.55 9.65 L-110.1 9.25 -108.55 9.65 M-107.25 13.2 L-106.25 10.95 Q-105.75 9.95 -107.35 7.85 -105.75 9.95 -106.25 10.95 L-107.25 13.2" fill="#fff3e3" fill-rule="evenodd" stroke="none"/>
      <path d="M145.3 33.95 L143.05 37.1 Q139.4 39.95 136.8 41.15 L136.5 41.2 Q131.45 43.1 126.2 41.45 121.75 39.8 118.55 35.6 L118.4 35.2 Q116.35 33.3 117.0 31.05 L115.8 29.85 114.95 29.2 Q112.25 26.8 113.3 24.05 L113.7 23.25 113.85 23.4 114.55 24.55 Q115.4 26.25 117.05 27.6 L117.75 28.1 Q118.75 28.9 120.15 29.2 L123.35 29.3 Q124.0 29.85 124.1 30.75 L124.45 31.3 125.7 32.85 126.55 33.5 127.25 34.3 Q128.75 35.85 130.9 36.95 133.0 38.1 135.7 37.75 L138.05 37.2 142.1 35.55 145.3 33.95" fill="#d9b96a" fill-rule="evenodd" stroke="none"/>
      <path d="M1.55 25.65 Q-7.9 23.5 -16.95 24.5 L-19.3 24.8 -12.75 19.65 -8.05 15.8 -7.75 15.75 -11.35 13.4 -7.05 14.15 -3.5 14.8 Q-3.0 14.9 -2.35 15.45 -2.15 15.55 -2.0 15.7 L-1.15 16.35 -0.5 16.9 Q0.85 18.25 2.85 19.55 6.6 21.7 11.4 21.5 L12.9 21.3 17.25 20.35 20.05 19.85 Q24.6 20.0 29.15 21.15 L32.3 21.65 40.9 24.2 42.6 24.5 51.3 27.6 52.85 28.0 61.2 30.85 Q65.1 32.55 69.25 33.15 L70.8 33.3 72.35 33.7 73.5 33.55 Q75.0 34.2 75.65 34.7 L78.2 37.3 81.7 40.05 Q83.0 40.55 83.55 41.55 78.7 41.5 74.0 41.6 L69.05 40.9 Q65.7 40.7 63.8 40.0 57.95 39.15 53.6 37.35 L41.9 32.9 Q39.8 32.1 37.65 30.65 L33.35 28.55 29.55 27.15 Q25.15 25.85 20.35 25.0 L18.6 24.45 14.1 23.6 11.05 23.65 Q8.35 23.95 7.35 24.5 5.25 24.45 4.5 25.0 L1.55 25.65" fill="#b25222" fill-rule="evenodd" stroke="none"/>
      <path d="M94.85 65.0 Q85.8 65.75 76.6 60.85 L25.75 35.35 Q13.2 28.1 1.55 25.65 L4.5 25.0 Q5.25 24.45 7.35 24.5 8.35 23.95 11.05 23.65 L14.1 23.6 18.6 24.45 20.35 25.0 Q25.15 25.85 29.55 27.15 L33.35 28.55 37.65 30.65 Q39.8 32.1 41.9 32.9 L53.6 37.35 Q57.95 39.15 63.8 40.0 65.7 40.7 69.05 40.9 L74.0 41.6 Q78.7 41.5 83.55 41.55 L85.05 42.75 85.55 43.15 Q88.9 45.8 92.05 49.4 L92.9 50.35 Q93.7 50.75 93.75 51.3 L97.1 55.35 Q97.95 56.0 98.05 56.9 L98.15 57.8 Q97.7 60.2 96.85 62.25 L95.65 64.0 94.85 65.0" fill="#8c3a12" fill-rule="evenodd" stroke="none"/>
      <path d="M-122.0 -6.0 L-121.45 -6.65 Q-117.7 -8.6 -114.05 -8.35 L-108.9 -7.3 Q-104.2 -5.7 -100.9 -2.55 L-94.3 3.8 -93.1 5.05 -90.6 5.65 -89.5 5.7 Q-48.8 7.35 -10.65 6.0 L-18.05 9.2 -15.65 10.55 Q-29.55 9.55 -48.5 10.05 -70.2 10.2 -92.35 7.8 -114.25 4.85 -122.0 -6.0" fill="#f2f2f2" fill-rule="evenodd" stroke="none"/>
      <path d="M-12.75 19.65 Q-49.5 17.45 -85.0 17.5 L-87.7 17.5 -88.5 17.4 -89.0 18.1 -89.3 18.4 -89.8 19.1 Q-90.2 20.15 -91.0 20.6 -92.6 23.2 -95.25 24.85 -102.4 30.4 -112.05 28.15 L-113.35 27.35 Q-114.45 27.05 -115.05 26.05 L-116.4 24.7 -116.9 24.0 Q-117.5 22.7 -117.55 21.0 L-117.3 20.35 Q-116.45 21.0 -115.05 21.65 L-114.4 21.85 -111.85 22.05 -109.85 21.95 -105.85 21.35 Q-101.45 19.95 -97.95 17.25 L-97.4 16.6 -96.05 15.25 Q-94.35 14.15 -92.1 13.7 L-86.7 13.1 Q-82.35 12.8 -77.95 13.0 L-69.0 12.75 -66.7 12.95 -57.8 13.5 -56.0 13.3 -47.6 13.7 -39.15 14.7 -30.25 15.25 -21.2 15.9 -19.65 15.55 -10.8 15.8 -8.05 15.8 -12.75 19.65" fill="#e4cd9a" fill-rule="evenodd" stroke="none"/>
      <path d="M161.55 -0.55 Q162.4 -6.4 161.55 -11.15 160.3 -13.0 159.6 -14.9 149.75 -29.85 135.65 -35.1 115.9 -44.25 99.8 -52.45 82.2 -57.75 67.55 -43.5 49.65 -23.1 37.2 -12.6 28.3 -5.2 21.05 -1.95 6.15 1.7 -9.3 -0.5 L-7.75 2.1 -6.0 4.3 -10.65 6.0 Q-48.8 7.35 -89.5 5.7 L-90.6 5.65 -93.1 5.05 -94.3 3.8 -100.9 -2.55 Q-104.2 -5.7 -108.9 -7.3 L-114.05 -8.35 Q-117.7 -8.6 -121.45 -6.65 L-122.0 -6.0 Q-123.7 -3.8 -122.65 -1.05 L-122.4 -0.3 -121.75 1.3 -121.4 1.9 -121.2 2.3 Q-120.9 3.6 -120.15 4.5 L-119.0 5.7 Q-117.15 6.85 -114.85 7.35 L-110.1 9.25 -108.55 9.65 M161.55 -0.55 Q160.65 5.05 157.7 12.2 L155.55 32.35 Q154.65 37.6 150.65 41.25 147.85 43.4 144.05 44.75 123.5 52.35 107.9 60.95 101.45 64.3 94.85 65.0 85.8 65.75 76.6 60.85 L25.75 35.35 Q13.2 28.1 1.55 25.65 -7.9 23.5 -16.95 24.5 L-19.3 24.8 -12.75 19.65 Q-49.5 17.45 -85.0 17.5 L-87.7 17.5 -88.5 17.4 -89.0 18.1 -89.3 18.4 -89.8 19.1 Q-90.2 20.15 -91.0 20.6 -92.6 23.2 -95.25 24.85 -102.4 30.4 -112.05 28.15 L-113.35 27.35 Q-114.45 27.05 -115.05 26.05 L-116.4 24.7 -116.9 24.0 Q-117.5 22.7 -117.55 21.0 L-117.3 20.35 Q-117.2 20.2 -117.55 19.95 L-116.1 17.8 -115.85 17.45 -113.85 14.95 -112.75 13.65 -110.4 10.65 -110.25 10.45 Q-109.85 9.7 -110.1 9.25 M142.9 17.4 Q144.6 19.75 145.65 22.85 147.05 26.6 146.05 31.3 145.9 32.85 145.3 33.95 L143.05 37.1 Q139.4 39.95 136.8 41.15 L136.5 41.2 Q131.45 43.1 126.2 41.45 121.75 39.8 118.55 35.6 L118.4 35.2 Q116.35 33.3 117.0 31.05 L115.8 29.85 114.95 29.2 Q112.25 26.8 113.3 24.05 L113.7 23.25 114.25 21.5 114.7 20.25 116.15 19.5 Q117.95 17.9 120.05 16.6 120.95 16.5 121.45 16.9 122.2 17.0 123.7 18.2 L123.15 19.9 M123.95 17.55 L123.7 18.2 M142.9 17.4 L142.05 16.1 Q140.95 14.7 139.65 13.65 L139.45 13.2 Q138.8 12.7 137.3 12.1 L134.65 11.0 Q131.85 10.4 129.1 11.85 126.15 13.8 124.75 16.55 L123.95 17.55 M-11.35 13.4 L-7.75 15.75 -8.05 15.8 -12.75 19.65 M-15.65 10.55 L-18.05 9.2 -10.65 6.0 M-11.35 13.4 L-15.65 10.55 M-107.35 7.85 Q-105.75 9.95 -106.25 10.95 L-107.25 13.2 M-108.15 11.6 L-110.2 14.9" fill="none" stroke="#000000" stroke-linecap="round" stroke-linejoin="round" stroke-opacity="0.49803922" stroke-width="0.5"/>
      <path d="M-54.25 -57.35 L-53.6 -57.35 -53.85 -56.7 Q-58.4 -45.75 -60.3 -33.7 L-61.6 -24.9 Q-62.6 -18.2 -63.7 -6.65 -64.85 4.9 -63.55 13.95 -62.3 22.95 -61.5 25.95 L-60.45 29.8 Q-63.05 28.55 -63.75 24.95 -65.3 20.35 -66.1 15.35 -68.15 2.0 -66.4 -11.55 L-64.5 -23.95 -63.0 -32.15 Q-60.9 -43.35 -55.75 -53.5 -54.25 -56.95 -54.25 -57.3 L-54.25 -57.35 M-13.9 -46.75 L-10.3 -44.55 -10.85 -44.2 Q-12.35 -43.1 -13.25 -41.85 L-16.1 -37.35 Q-17.45 -34.8 -19.5 -28.45 -21.55 -22.2 -22.1 -19.2 -22.75 -15.75 -22.75 -10.65 L-22.6 -5.75 Q-22.4 -3.05 -21.9 -1.85 L-22.5 -1.95 -23.75 -2.5 -24.15 -2.85 -24.4 -5.3 -24.55 -10.55 Q-24.55 -16.05 -23.95 -19.75 -23.5 -23.0 -21.65 -29.7 -19.85 -36.55 -18.65 -39.3 -17.6 -41.8 -16.1 -44.15 L-14.0 -46.7 -13.9 -46.75 M-20.4 -1.6 L-20.45 -2.65 -17.85 -2.3 Q-14.6 -1.9 -14.45 0.4 L-14.35 1.8 -14.1 3.05 -13.9 4.65 -13.7 6.75 -13.7 7.2 -14.0 7.45 -14.15 7.45 -15.85 7.55 -16.55 7.6 -17.2 1.35 Q-17.3 -1.15 -20.2 -1.6 L-20.4 -1.6 M-23.0 5.75 L-23.5 6.75 Q-24.3 8.55 -24.85 11.3 L-25.5 15.4 -25.6 19.05 -25.65 20.65 -25.6 22.8 -25.65 24.7 -25.45 25.75 -25.8 25.65 -26.25 25.4 -26.65 24.95 -26.9 24.45 -27.1 23.3 -27.1 23.15 -27.1 21.4 -27.0 17.5 -26.4 13.05 Q-25.9 10.1 -25.2 8.15 -24.15 5.25 -23.0 5.65 L-23.0 5.75 M-24.35 25.95 L-24.3 23.0 -24.25 23.0 -24.25 22.75 -24.25 22.2 -24.35 20.95 -24.3 20.65 -24.3 19.7 -22.45 19.8 -22.45 25.55 -22.75 27.45 -23.55 28.6 -24.35 29.25 -24.1 26.0 -24.35 25.95 M-50.4 32.75 L-50.5 32.65 -51.15 31.85 -50.75 31.65 Q-50.5 32.0 -50.4 32.75" fill="#bdbdbd" fill-rule="evenodd" stroke="none"/>
      <path d="M-53.6 -57.35 Q-32.0 -57.15 -13.9 -46.75 L-14.0 -46.7 -16.1 -44.15 Q-17.6 -41.8 -18.65 -39.3 -19.85 -36.55 -21.65 -29.7 -23.5 -23.0 -23.95 -19.75 -24.55 -16.05 -24.55 -10.55 L-24.4 -5.3 -24.15 -2.85 -23.75 -2.5 -22.5 -1.95 -21.9 -1.85 Q-21.55 -0.85 -21.0 -0.85 -20.35 -0.85 -20.4 -1.1 L-20.4 -1.6 -20.2 -1.6 Q-17.3 -1.15 -17.2 1.35 L-16.55 7.6 -16.6 7.6 -18.2 7.7 -19.3 7.7 -19.65 7.65 -20.9 7.45 -21.45 7.0 -21.65 6.4 -21.35 5.5 -21.1 4.9 -21.1 4.8 Q-21.3 4.5 -21.8 4.5 L-21.85 4.5 Q-22.45 4.8 -23.0 5.75 L-23.0 5.65 Q-24.15 5.25 -25.2 8.15 -25.9 10.1 -26.4 13.05 L-27.0 17.5 -27.1 21.4 -27.1 23.15 -27.1 23.3 -26.9 24.45 -26.65 24.95 -26.25 25.4 -25.8 25.65 -25.45 25.75 -24.9 26.45 -24.35 26.25 -24.35 25.95 -24.1 26.0 -24.35 29.25 -24.7 29.4 -30.0 30.05 -35.65 30.3 -36.45 30.0 -36.5 30.0 -36.65 29.15 Q-37.0 28.15 -37.65 27.85 -38.35 27.55 -38.65 28.65 -38.85 29.35 -38.65 30.95 -38.75 32.1 -38.95 32.3 -39.95 33.2 -44.25 33.2 L-47.85 33.3 Q-49.75 33.25 -50.4 32.75 -50.5 32.0 -50.75 31.65 L-51.15 31.85 -51.25 31.7 -51.5 31.2 -51.5 31.05 -51.8 29.9 -51.85 29.9 -51.85 29.85 Q-51.95 28.95 -52.25 28.55 -53.05 28.55 -53.3 30.05 -53.75 30.4 -54.7 30.4 L-55.8 30.4 -58.1 30.35 -60.45 29.8 -61.5 25.95 Q-62.3 22.95 -63.55 13.95 -64.85 4.9 -63.7 -6.65 -62.6 -18.2 -61.6 -24.9 L-60.3 -33.7 Q-58.4 -45.75 -53.85 -56.7 L-53.6 -57.35" fill="#999999" fill-rule="evenodd" stroke="none"/>
      <path d="M-10.3 -44.55 Q-8.9 -45.5 -8.9 -44.05 -8.9 -44.55 -11.45 -41.1 L-13.4 -38.2 -10.35 -39.75 -7.15 -41.4 Q-5.0 -42.15 -5.0 -40.7 -5.0 -39.15 -14.75 -35.7 L-15.75 -33.3 -19.1 -22.55 Q-20.4 -17.7 -20.6 -11.8 L-20.5 -3.85 -17.9 -3.95 -14.85 -3.55 -13.5 -2.5 Q-12.7 -1.65 -12.5 -0.35 L-12.45 1.2 -12.45 4.3 Q-12.4 5.25 -12.5 5.95 L-12.75 7.8 -12.75 7.9 Q-12.75 8.2 -13.4 8.4 L-20.5 8.4 -20.6 8.45 -21.05 8.4 -21.45 8.2 -22.1 7.65 -23.25 10.3 -23.8 12.75 -24.2 15.5 -24.3 19.05 -24.05 19.1 -22.05 19.15 -21.3 19.15 -20.8 19.35 -20.7 19.75 -20.65 21.55 Q-20.5 22.65 -20.5 25.2 L-20.5 27.55 Q-20.5 29.15 -21.6 30.25 -22.9 31.55 -25.55 32.05 L-29.0 32.3 -36.4 31.9 Q-36.45 32.65 -36.65 33.2 L-37.25 34.0 -38.7 34.9 Q-40.7 35.65 -44.3 35.65 L-49.8 35.1 Q-51.7 34.55 -52.6 33.6 L-53.2 32.6 -54.55 32.7 -55.8 32.7 -58.2 32.85 Q-63.7 32.55 -65.9 26.8 L-66.5 24.95 Q-69.9 12.8 -69.6 0.15 -69.35 -12.0 -67.2 -23.95 -65.35 -34.45 -61.85 -44.5 -60.25 -49.1 -58.25 -53.5 -55.85 -58.1 -55.1 -58.1 L-54.55 -57.85 -54.5 -57.8 -54.25 -57.35 -54.25 -57.3 Q-54.25 -56.95 -55.75 -53.5 -60.9 -43.35 -63.0 -32.15 L-64.5 -23.95 -66.4 -11.55 Q-68.15 2.0 -66.1 15.35 -65.3 20.35 -63.75 24.95 -63.05 28.55 -60.45 29.8 L-58.1 30.35 -55.8 30.4 -54.7 30.4 Q-53.75 30.4 -53.3 30.05 -53.05 28.55 -52.25 28.55 -51.95 28.95 -51.85 29.85 L-51.85 29.9 -51.8 29.9 -51.5 31.05 -51.5 31.2 -51.25 31.7 -51.15 31.85 -50.5 32.65 -50.4 32.75 Q-49.75 33.25 -47.85 33.3 L-44.25 33.2 Q-39.95 33.2 -38.95 32.3 -38.75 32.1 -38.65 30.95 -38.85 29.35 -38.65 28.65 -38.35 27.55 -37.65 27.85 -37.0 28.15 -36.65 29.15 L-36.5 30.0 -36.45 30.0 -35.65 30.3 -30.0 30.05 -24.7 29.4 -24.35 29.25 -23.55 28.6 -22.75 27.45 -22.45 25.55 -22.45 19.8 -24.3 19.7 -24.3 20.65 -24.35 20.95 -24.25 22.2 -24.25 22.75 -24.25 23.0 -24.3 23.0 -24.35 25.95 -24.35 26.25 -24.9 26.45 -25.45 25.75 -25.65 24.7 -25.6 22.8 -25.65 20.65 -25.6 19.05 -25.5 15.4 -24.85 11.3 Q-24.3 8.55 -23.5 6.75 L-23.0 5.75 Q-22.45 4.8 -21.85 4.5 L-21.8 4.5 Q-21.3 4.5 -21.1 4.8 L-21.1 4.9 -21.35 5.5 -21.65 6.4 -21.45 7.0 -20.9 7.45 -19.65 7.65 -19.3 7.7 -18.2 7.7 -16.6 7.6 -16.55 7.6 -15.85 7.55 -14.15 7.45 -14.0 7.45 -13.7 7.2 -13.7 6.75 -13.9 4.65 -14.1 3.05 -14.35 1.8 -14.45 0.4 Q-14.6 -1.9 -17.85 -2.3 L-20.45 -2.65 -20.4 -1.6 -20.4 -1.1 Q-20.35 -0.85 -21.0 -0.85 -21.55 -0.85 -21.9 -1.85 -22.4 -3.05 -22.6 -5.75 L-22.75 -10.65 Q-22.75 -15.75 -22.1 -19.2 -21.55 -22.2 -19.5 -28.45 -17.45 -34.8 -16.1 -37.35 L-13.25 -41.85 Q-12.35 -43.1 -10.85 -44.2 L-10.3 -44.55" fill="#000000" fill-rule="evenodd" stroke="none"/>
    </g>
  </defs>
</svg>
