<?xml version="1.0" encoding="UTF-8" standalone="no"?>
<svg xmlns:xlink="http://www.w3.org/1999/xlink" height="531.5px" width="460.6px" xmlns="http://www.w3.org/2000/svg">
  <g transform="matrix(1.0, 0.0, 0.0, 1.0, 193.65, 334.05)">
    <use height="124.55" transform="matrix(1.0, 0.0, 0.0, 1.0, -57.6, -110.15)" width="181.35" xlink:href="#shape0"/>
  </g>
  <defs>
    <g id="shape0" transform="matrix(1.0, 0.0, 0.0, 1.0, 57.6, 110.15)">
      <path d="M-30.25 -61.55 Q-30.75 -62.7 -30.35 -63.7 L-29.95 -63.75 -27.6 -61.7 -27.25 -61.3 -22.3 -56.5 Q-13.9 -48.9 -7.05 -47.1 L-2.1 -46.0 2.9 -45.25 Q11.05 -44.35 18.9 -45.7 L20.9 -50.5 21.7 -53.35 Q22.0 -54.3 23.3 -54.85 26.35 -56.3 30.9 -56.0 L38.2 -54.95 Q42.0 -54.35 44.6 -52.95 47.2 -51.55 47.4 -50.05 L47.9 -43.85 47.6 -42.45 46.7 -40.65 46.15 -39.6 55.15 -38.55 55.5 -38.5 56.9 -38.3 Q59.15 -37.85 60.7 -37.2 64.75 -34.1 64.05 -29.45 L63.0 -23.8 62.7 -22.8 62.2 -21.7 Q61.8 -21.1 60.95 -20.9 L60.65 -20.8 61.2 -19.25 Q61.55 -17.75 61.55 -15.9 61.55 -9.5 59.9 -8.25 58.8 -7.45 55.35 -7.5 L48.9 -7.8 55.35 -5.05 55.55 -5.05 59.25 -3.7 Q59.85 -3.0 59.8 -2.35 L59.45 -0.75 Q58.45 2.55 56.4 5.35 L55.5 6.7 Q54.35 9.25 50.8 8.35 49.25 7.95 46.5 6.55 L46.4 6.5 42.5 4.35 41.7 3.9 36.1 0.95 30.8 1.2 24.75 1.2 19.25 0.7 13.6 0.05 9.6 -0.25 -8.1 -2.15 -11.7 -3.0 Q-24.35 -6.2 -32.1 -9.6 -42.85 -14.35 -48.6 -20.9 L-53.6 -25.8 -54.55 -26.7 Q-56.55 -29.0 -57.2 -30.55 -57.7 -31.5 -57.55 -32.15 L-57.35 -32.85 -57.25 -32.85 -56.75 -32.2 -53.95 -28.8 Q-46.1 -20.25 -35.05 -14.85 -21.65 -8.15 -11.8 -6.0 L-9.15 -5.4 -7.4 -4.95 Q1.35 -3.0 10.25 -2.35 L14.2 -2.15 19.9 -1.85 30.8 -1.3 31.85 -1.4 32.2 -1.35 32.8 -1.45 Q37.45 -1.8 39.15 -0.7 L41.7 0.9 42.7 1.55 43.95 2.3 47.35 4.1 Q48.0 4.5 48.55 4.7 L48.65 4.75 50.95 5.85 52.3 5.9 Q54.8 3.35 56.45 0.2 L57.2 -1.3 57.35 -1.95 57.3 -2.25 55.5 -3.1 53.35 -4.0 51.05 -5.0 Q47.75 -6.4 44.2 -8.55 L44.2 -10.05 Q50.4 -9.3 55.35 -9.8 L55.95 -9.8 Q58.8 -9.85 59.0 -10.3 59.8 -11.8 60.0 -13.9 60.15 -16.05 59.55 -17.8 L59.5 -18.15 59.1 -18.65 58.5 -19.45 57.15 -20.4 56.9 -20.4 53.2 -20.3 45.35 -20.05 Q43.95 -20.05 44.15 -21.15 44.15 -21.7 45.1 -21.9 L52.95 -22.55 57.9 -22.8 57.95 -22.8 59.0 -22.85 60.2 -23.05 Q60.8 -23.45 61.6 -28.15 62.4 -32.9 59.0 -35.0 L56.75 -35.5 56.35 -35.55 55.8 -35.65 51.45 -36.25 44.9 -36.7 38.6 -37.0 35.7 -37.35 35.55 -37.35 34.6 -37.5 Q31.9 -38.2 31.0 -39.8 L31.35 -39.8 35.15 -39.85 41.45 -40.05 Q42.9 -40.2 43.95 -41.2 L45.25 -43.1 45.7 -44.5 45.65 -44.9 45.15 -49.15 Q44.85 -50.65 41.45 -51.75 38.0 -52.85 31.5 -53.2 25.0 -53.55 24.45 -52.3 L24.2 -51.95 24.05 -51.45 23.8 -50.15 22.95 -47.7 22.4 -45.25 Q21.85 -43.9 20.9 -43.35 L17.6 -41.95 14.85 -41.55 Q11.5 -41.2 8.2 -41.4 L7.4 -41.45 3.15 -42.0 -2.1 -42.7 Q-6.85 -43.55 -9.25 -44.7 -13.15 -46.6 -17.75 -49.25 -22.35 -51.95 -24.05 -54.45 L-27.45 -57.75 -28.85 -59.5 -29.45 -60.15 -30.25 -61.55" fill="#000000" fill-rule="evenodd" stroke="none"/>
      <path d="M-30.25 -61.55 L-29.45 -60.15 -28.85 -59.5 -27.45 -57.75 -24.05 -54.45 Q-22.35 -51.95 -17.75 -49.25 -13.15 -46.6 -9.25 -44.7 -6.85 -43.55 -2.1 -42.7 L3.15 -42.0 -2.1 -42.45 Q-9.3 -43.35 -12.25 -44.85 -15.9 -46.65 -20.15 -49.15 -24.45 -51.75 -26.05 -53.95 L-29.2 -57.05 -30.45 -58.7 -31.0 -59.4 -32.4 -60.75 -30.25 -61.55 M17.6 -41.95 L20.9 -43.35 Q21.85 -43.9 22.4 -45.25 L22.95 -47.7 23.8 -50.15 24.05 -51.45 24.2 -51.95 24.45 -52.3 Q25.0 -53.55 31.5 -53.2 38.0 -52.85 41.45 -51.75 44.85 -50.65 45.15 -49.15 L45.65 -44.9 45.7 -44.5 45.25 -43.1 43.95 -41.2 Q43.75 -46.3 41.45 -48.2 39.2 -49.95 32.25 -49.95 28.75 -49.95 26.85 -48.55 26.15 -48.0 24.2 -45.45 22.0 -42.55 17.55 -41.5 L17.6 -41.95 M56.35 -35.55 L56.75 -35.5 59.0 -35.0 Q62.4 -32.9 61.6 -28.15 60.8 -23.45 60.2 -23.05 L59.0 -22.85 57.95 -22.8 57.95 -22.85 Q59.05 -23.95 59.05 -26.55 59.05 -30.55 58.0 -33.1 57.35 -34.7 56.35 -35.55 M56.9 -20.4 L57.15 -20.4 58.5 -19.45 59.1 -18.65 59.5 -18.15 59.55 -17.8 Q60.15 -16.05 60.0 -13.9 59.8 -11.8 59.0 -10.3 58.8 -9.85 55.95 -9.8 57.45 -11.95 57.45 -15.05 L57.15 -18.3 56.9 -20.4 M53.35 -4.0 L55.5 -3.1 57.3 -2.25 57.35 -1.95 57.2 -1.3 56.45 0.2 Q54.8 3.35 52.3 5.9 L50.95 5.85 48.65 4.75 50.35 3.1 Q53.65 -0.3 53.65 -2.65 L53.35 -4.0 M32.8 -1.45 L32.2 -1.35 31.85 -1.4 30.8 -1.3 19.9 -1.85 14.2 -2.15 10.25 -2.35 Q1.35 -3.0 -7.4 -4.95 L-9.15 -5.4 -11.8 -6.0 Q-21.65 -8.15 -35.05 -14.85 -46.1 -20.25 -53.95 -28.8 L-56.75 -32.2 -56.65 -33.0 -56.65 -33.45 -53.9 -30.35 Q-46.65 -22.4 -36.4 -17.3 -24.0 -11.1 -14.9 -9.0 L-12.3 -8.4 -6.2 -6.85 Q-0.85 -5.5 4.65 -5.2 L32.8 -1.45" fill="#bdbdbd" fill-rule="evenodd" stroke="none"/>
      <path d="M3.15 -42.0 L7.4 -41.45 8.2 -41.4 Q11.5 -41.2 14.85 -41.55 L17.6 -41.95 17.55 -41.5 Q22.0 -42.55 24.2 -45.45 26.15 -48.0 26.85 -48.55 28.75 -49.95 32.25 -49.95 39.2 -49.95 41.45 -48.2 43.75 -46.3 43.95 -41.2 42.9 -40.2 41.45 -40.05 L35.15 -39.85 31.35 -39.8 31.0 -39.8 Q31.9 -38.2 34.6 -37.5 L35.55 -37.35 35.7 -37.35 38.6 -37.0 44.9 -36.7 51.45 -36.25 55.8 -35.65 56.35 -35.55 Q57.35 -34.7 58.0 -33.1 59.05 -30.55 59.05 -26.55 59.05 -23.95 57.95 -22.85 L57.9 -22.8 52.95 -22.55 45.1 -21.9 Q44.15 -21.7 44.15 -21.15 43.95 -20.05 45.35 -20.05 L53.2 -20.3 56.9 -20.4 57.15 -18.3 57.45 -15.05 Q57.45 -11.95 55.95 -9.8 L55.35 -9.8 Q50.4 -9.3 44.2 -10.05 L44.2 -8.55 Q47.75 -6.4 51.05 -5.0 L53.35 -4.0 53.65 -2.65 Q53.65 -0.3 50.35 3.1 L48.65 4.75 48.55 4.7 Q48.0 4.5 47.35 4.1 L43.95 2.3 42.7 1.55 41.7 0.9 39.15 -0.7 Q37.45 -1.8 32.8 -1.45 L4.65 -5.2 Q-0.85 -5.5 -6.2 -6.85 L-12.3 -8.4 -14.9 -9.0 Q-24.0 -11.1 -36.4 -17.3 -46.65 -22.4 -53.9 -30.35 L-56.65 -33.45 -56.35 -35.4 Q-55.2 -40.1 -52.05 -44.75 -49.1 -49.3 -45.25 -52.5 -41.7 -55.5 -37.7 -57.95 -34.8 -59.8 -32.4 -60.75 L-31.0 -59.4 -30.45 -58.7 -29.2 -57.05 -26.05 -53.95 Q-24.45 -51.75 -20.15 -49.15 -15.9 -46.65 -12.25 -44.85 -9.3 -43.35 -2.1 -42.45 L3.15 -42.0" fill="#999999" fill-rule="evenodd" stroke="none"/>
      <path d="M94.6 -93.75 L94.6 -101.05 Q95.4 -102.05 96.15 -101.95 L97.6 -101.05 97.6 -94.65 Q96.05 -94.4 94.6 -93.75 M65.85 -90.9 L65.85 -101.05 Q66.25 -101.65 66.7 -101.85 67.7 -102.35 68.8 -101.05 L68.8 -91.55 65.85 -90.9 M65.85 -56.75 L68.8 -56.4 68.8 -47.0 68.8 -42.25 Q67.2 -42.4 65.85 -43.25 L65.85 -47.75 65.85 -56.75 M94.6 -56.2 L97.6 -56.5 97.6 -44.95 97.6 -40.05 94.6 -39.25 94.6 -44.05 94.6 -56.2" fill="#999999" fill-rule="evenodd" stroke="none"/>
      <path d="M61.55 -73.9 Q60.9 -81.35 60.9 -89.55 L65.85 -90.9 68.8 -91.55 Q80.55 -93.9 92.4 -92.45 L91.05 -91.3 Q87.55 -87.75 87.55 -82.75 L87.7 -80.75 Q86.7 -81.3 85.5 -81.3 83.55 -81.3 82.15 -79.9 80.75 -78.5 80.75 -76.55 80.75 -75.05 81.6 -73.9 L61.55 -73.9 M75.75 -87.3 Q75.2 -87.3 74.75 -86.85 74.3 -86.45 74.3 -85.85 74.3 -85.3 74.75 -84.85 75.2 -84.4 75.75 -84.4 76.35 -84.4 76.8 -84.85 77.2 -85.3 77.2 -85.85 77.2 -86.45 76.8 -86.85 76.35 -87.3 75.75 -87.3 M67.85 -86.55 Q66.5 -86.55 65.5 -85.6 64.55 -84.6 64.55 -83.25 64.55 -81.9 65.5 -80.9 66.5 -79.95 67.85 -79.95 69.2 -79.95 70.2 -80.9 71.15 -81.9 71.15 -83.25 71.15 -84.6 70.2 -85.6 69.2 -86.55 67.85 -86.55 M63.25 -60.7 L102.15 -60.7 101.45 -56.95 97.6 -56.5 94.6 -56.2 Q81.9 -55.0 68.8 -56.4 L65.85 -56.75 64.0 -56.95 63.25 -60.7 M91.4 -73.9 L89.45 -73.9 90.1 -75.25 91.05 -74.15 91.4 -73.9" fill="#cf9255" fill-rule="evenodd" stroke="none"/>
      <path d="M75.75 -87.3 Q76.35 -87.3 76.8 -86.85 77.2 -86.45 77.2 -85.85 77.2 -85.3 76.8 -84.85 76.35 -84.4 75.75 -84.4 75.2 -84.4 74.75 -84.85 74.3 -85.3 74.3 -85.85 74.3 -86.45 74.75 -86.85 75.2 -87.3 75.75 -87.3 M67.85 -86.55 Q69.2 -86.55 70.2 -85.6 71.15 -84.6 71.15 -83.25 71.15 -81.9 70.2 -80.9 69.2 -79.95 67.85 -79.95 66.5 -79.95 65.5 -80.9 64.55 -81.9 64.55 -83.25 64.55 -84.6 65.5 -85.6 66.5 -86.55 67.85 -86.55 M89.45 -73.9 L81.6 -73.9 Q80.75 -75.05 80.75 -76.55 80.75 -78.5 82.15 -79.9 83.55 -81.3 85.5 -81.3 86.7 -81.3 87.7 -80.75 88.15 -77.75 90.1 -75.25 L89.45 -73.9" fill="#e3af7a" fill-rule="evenodd" stroke="none"/>
      <path d="M108.55 -71.35 Q109.8 -69.7 109.8 -67.5 L109.8 -67.05 Q109.8 -64.45 107.9 -62.55 L106.55 -61.5 111.0 -57.55 Q123.25 -45.3 123.25 -27.95 123.25 -10.6 111.0 1.65 98.75 13.9 81.4 13.9 64.05 13.9 51.8 1.65 39.5 -10.6 39.5 -27.95 39.5 -45.3 51.8 -57.55 53.95 -59.75 56.25 -61.5 L54.85 -62.55 Q53.0 -64.45 53.0 -67.05 L53.0 -67.5 Q53.0 -70.15 54.85 -72.0 56.7 -73.9 59.35 -73.9 L61.55 -73.9 Q62.1 -66.95 63.25 -60.7 L61.4 -60.7 63.25 -60.7 64.0 -56.95 65.85 -56.75 65.85 -47.75 65.85 -43.25 65.85 -40.15 65.85 -23.3 Q67.2 -21.5 68.8 -23.3 L68.8 -38.0 68.8 -42.25 68.8 -47.0 68.8 -56.4 Q81.9 -55.0 94.6 -56.2 L94.6 -44.05 94.6 -39.25 94.6 -33.55 94.6 -23.3 Q96.0 -21.5 97.6 -23.3 L97.6 -35.55 100.7 -38.5 Q104.2 -42.4 106.3 -47.1 113.25 -38.55 113.25 -27.15 113.25 -13.95 103.95 -4.6 94.6 4.75 81.4 4.75 68.15 4.75 58.85 -4.6 49.5 -13.95 49.5 -27.15 49.5 -38.05 55.85 -46.35 49.5 -38.05 49.5 -27.15 49.5 -13.95 58.85 -4.6 68.15 4.75 81.4 4.75 94.6 4.75 103.95 -4.6 113.25 -13.95 113.25 -27.15 113.25 -38.55 106.3 -47.1 104.2 -42.4 100.7 -38.5 L97.6 -35.55 97.6 -40.05 97.6 -44.95 97.6 -56.5 101.45 -56.95 102.15 -60.7 103.75 -70.6 104.25 -70.6 104.55 -70.6 105.0 -70.6 Q106.85 -70.75 108.55 -71.35 M103.4 -60.7 L102.15 -60.7 103.4 -60.7 M65.85 -47.75 L60.9 -48.5 58.45 -47.95 Q57.45 -47.65 56.2 -46.65 57.45 -47.65 58.45 -47.95 L60.9 -48.5 65.85 -47.75 M56.2 -46.65 Q60.65 -44.2 64.65 -41.05 L65.85 -40.15 64.65 -41.05 Q60.65 -44.2 56.2 -46.65 L56.15 -46.65 55.85 -46.35 56.2 -46.65 M68.8 -47.0 L72.25 -46.1 Q82.2 -43.45 88.95 -43.45 L94.6 -44.05 88.95 -43.45 Q82.2 -43.45 72.25 -46.1 L68.8 -47.0 M68.8 -38.0 Q70.9 -36.55 73.1 -35.25 77.65 -32.45 82.85 -31.45 87.95 -30.45 92.6 -32.55 L94.6 -33.55 92.6 -32.55 Q87.95 -30.45 82.85 -31.45 77.65 -32.45 73.1 -35.25 70.9 -36.55 68.8 -38.0 M106.3 -47.1 Q105.5 -47.9 105.0 -47.9 103.55 -47.9 102.0 -47.2 L99.15 -45.7 97.6 -44.95 99.15 -45.7 102.0 -47.2 Q103.55 -47.9 105.0 -47.9 105.5 -47.9 106.3 -47.1" fill="#ccf3ff" fill-rule="evenodd" stroke="none"/>
      <path d="M63.25 -60.7 Q62.1 -66.95 61.55 -73.9 L81.6 -73.9 89.45 -73.9 91.4 -73.9 Q92.9 -72.45 94.6 -71.65 96.05 -71.0 97.6 -70.75 L98.4 -70.65 98.55 -70.65 99.65 -70.6 100.15 -70.6 100.6 -70.6 103.75 -70.6 102.15 -60.7 63.25 -60.7" fill="#d9d1b4" fill-rule="evenodd" stroke="none"/>
      <path d="M65.85 -43.25 Q67.2 -42.4 68.8 -42.25 L68.8 -38.0 65.85 -40.15 65.85 -43.25 M94.6 -39.25 L97.6 -40.05 97.6 -35.55 94.6 -33.55 94.6 -39.25" fill="#b0f5d5" fill-rule="evenodd" stroke="none"/>
      <path d="M65.85 -40.15 L68.8 -38.0 68.8 -23.3 Q67.2 -21.5 65.85 -23.3 L65.85 -40.15 M97.6 -35.55 L97.6 -23.3 Q96.0 -21.5 94.6 -23.3 L94.6 -33.55 97.6 -35.55" fill="#b6d9d3" fill-rule="evenodd" stroke="none"/>
      <path d="M103.75 -94.85 L104.0 -94.85 104.25 -94.85 Q109.25 -94.85 112.8 -91.3 116.35 -87.75 116.35 -82.75 116.35 -77.7 112.8 -74.15 110.85 -72.2 108.55 -71.35 106.85 -70.75 105.0 -70.6 L104.55 -70.6 104.25 -70.6 103.75 -70.6 101.9 -70.8 Q99.6 -71.2 97.6 -72.55 L95.95 -73.9 95.65 -74.15 94.6 -75.3 Q92.1 -78.5 92.1 -82.75 92.1 -86.95 94.6 -90.15 L95.65 -91.3 96.25 -91.85 Q96.9 -92.45 97.6 -92.85 99.6 -94.2 101.9 -94.65 L103.75 -94.85 M110.85 -89.35 Q108.15 -92.15 104.25 -92.15 L104.05 -92.15 102.45 -92.1 Q101.1 -91.75 99.9 -91.1 L97.6 -89.4 97.55 -89.35 Q94.8 -86.6 94.8 -82.75 94.8 -78.8 97.55 -76.05 L97.6 -76.0 Q99.05 -74.6 101.0 -73.9 101.9 -73.5 102.95 -73.3 L104.7 -73.3 105.85 -73.4 Q108.7 -73.9 110.85 -76.05 113.65 -78.8 113.65 -82.75 113.65 -86.6 110.85 -89.35" fill="#666666" fill-rule="evenodd" stroke="none"/>
      <path d="M110.85 -89.35 Q113.65 -86.6 113.65 -82.75 113.65 -78.8 110.85 -76.05 108.7 -73.9 105.85 -73.4 L104.7 -73.3 102.95 -73.3 Q101.9 -73.5 101.0 -73.9 99.05 -74.6 97.6 -76.0 L97.55 -76.05 Q94.8 -78.8 94.8 -82.75 94.8 -86.6 97.55 -89.35 L97.6 -89.4 99.9 -91.1 Q101.1 -91.75 102.45 -92.1 L104.05 -92.15 104.25 -92.15 Q108.15 -92.15 110.85 -89.35 M105.25 -83.5 Q107.7 -86.2 108.7 -90.05 106.6 -87.9 105.4 -85.4 L104.7 -83.7 104.35 -83.7 103.55 -83.4 Q103.25 -83.1 103.25 -82.65 103.25 -82.15 103.55 -81.85 103.9 -81.5 104.35 -81.5 L105.1 -81.75 105.15 -81.85 Q105.5 -82.15 105.5 -82.65 L105.2 -83.35 105.25 -83.5" fill="#ffffff" fill-rule="evenodd" stroke="none"/>
      <path d="M105.2 -83.35 L105.5 -82.65 Q105.5 -82.15 105.15 -81.85 L105.1 -81.75 104.35 -81.5 Q103.9 -81.5 103.55 -81.85 103.25 -82.15 103.25 -82.65 103.25 -83.1 103.55 -83.4 L104.35 -83.7 104.7 -83.7 105.4 -85.4 Q106.6 -87.9 108.7 -90.05 107.7 -86.2 105.25 -83.5 L105.2 -83.4 105.2 -83.35 M104.7 -83.7 L105.15 -83.4 105.2 -83.4 105.15 -83.4 104.7 -83.7" fill="#ff0000" fill-rule="evenodd" stroke="none"/>
      <path d="M97.6 -94.65 L98.75 -94.75 100.55 -94.75 101.9 -94.65 Q99.6 -94.2 97.6 -92.85 96.9 -92.45 96.25 -91.85 L95.65 -91.3 94.6 -90.15 Q92.1 -86.95 92.1 -82.75 92.1 -78.5 94.6 -75.3 L95.65 -74.15 95.95 -73.9 97.6 -72.55 Q99.6 -71.2 101.9 -70.8 L100.6 -70.6 100.15 -70.6 98.55 -70.65 98.4 -70.65 97.6 -70.75 Q96.05 -71.0 94.6 -71.65 92.9 -72.45 91.4 -73.9 L91.05 -74.15 90.1 -75.25 Q88.15 -77.75 87.7 -80.75 L87.55 -82.75 Q87.55 -87.75 91.05 -91.3 L92.4 -92.45 Q93.45 -93.2 94.6 -93.75 96.05 -94.4 97.6 -94.65" fill="#333333" fill-rule="evenodd" stroke="none"/>
      <path d="M94.6 -93.75 L94.6 -101.05 Q95.4 -102.05 96.15 -101.95 L97.6 -101.05 97.6 -94.65 98.75 -94.75 99.65 -94.85 100.55 -94.75 103.75 -94.85 104.0 -94.85 104.25 -94.85 Q109.25 -94.85 112.8 -91.3 116.35 -87.75 116.35 -82.75 116.35 -77.7 112.8 -74.15 110.85 -72.2 108.55 -71.35 109.8 -69.7 109.8 -67.5 L109.8 -67.05 Q109.8 -64.45 107.9 -62.55 L106.55 -61.5 111.0 -57.55 Q123.25 -45.3 123.25 -27.95 123.25 -10.6 111.0 1.65 98.75 13.9 81.4 13.9 64.05 13.9 51.8 1.65 39.5 -10.6 39.5 -27.95 39.5 -45.3 51.8 -57.55 53.95 -59.75 56.25 -61.5 L54.85 -62.55 Q53.0 -64.45 53.0 -67.05 L53.0 -67.5 Q53.0 -70.15 54.85 -72.0 56.7 -73.9 59.35 -73.9 L61.55 -73.9 Q60.9 -81.35 60.9 -89.55 L65.85 -90.9 65.85 -101.05 Q66.25 -101.65 66.7 -101.85 67.7 -102.35 68.8 -101.05 L68.8 -91.55 Q80.55 -93.9 92.4 -92.45 93.45 -93.2 94.6 -93.75 96.05 -94.4 97.6 -94.65 M65.85 -90.9 L68.8 -91.55 M103.75 -70.6 L100.6 -70.6 100.15 -70.6 99.65 -70.6 98.55 -70.65 98.4 -70.65 97.6 -70.75 Q96.05 -71.0 94.6 -71.65 92.9 -72.45 91.4 -73.9 L89.45 -73.9 81.6 -73.9 61.55 -73.9 M110.85 -89.35 Q113.65 -86.6 113.65 -82.75 113.65 -78.8 110.85 -76.05 108.7 -73.9 105.85 -73.4 L104.7 -73.3 102.95 -73.3 Q101.9 -73.5 101.0 -73.9 99.05 -74.6 97.6 -76.0 L97.55 -76.05 Q94.8 -78.8 94.8 -82.75 94.8 -86.6 97.55 -89.35 L97.6 -89.4 99.9 -91.1 Q101.1 -91.75 102.45 -92.1 L104.05 -92.15 104.25 -92.15 Q108.15 -92.15 110.85 -89.35 M101.9 -94.65 L103.75 -94.85 M105.2 -83.35 L105.5 -82.65 Q105.5 -82.15 105.15 -81.85 L105.1 -81.75 104.35 -81.5 Q103.9 -81.5 103.55 -81.85 103.25 -82.15 103.25 -82.65 103.25 -83.1 103.55 -83.4 L104.35 -83.7 104.7 -83.7 105.4 -85.4 Q106.6 -87.9 108.7 -90.05 107.7 -86.2 105.25 -83.5 L105.2 -83.35 M105.2 -83.4 L105.15 -83.4 104.7 -83.7 M101.9 -94.65 L100.55 -94.75 98.75 -94.75 M101.9 -70.8 Q99.6 -71.2 97.6 -72.55 L95.95 -73.9 95.65 -74.15 94.6 -75.3 Q92.1 -78.5 92.1 -82.75 92.1 -86.95 94.6 -90.15 L95.65 -91.3 96.25 -91.85 Q96.9 -92.45 97.6 -92.85 99.6 -94.2 101.9 -94.65 M87.7 -80.75 L87.55 -82.75 Q87.55 -87.75 91.05 -91.3 L92.4 -92.45 M87.7 -80.75 Q88.15 -77.75 90.1 -75.25 L91.05 -74.15 91.4 -73.9 M98.55 -70.65 L100.15 -70.6 M108.55 -71.35 Q106.85 -70.75 105.0 -70.6 L104.55 -70.6 104.25 -70.6 103.75 -70.6 101.9 -70.8 100.6 -70.6" fill="none" stroke="#000000" stroke-linecap="round" stroke-linejoin="round" stroke-opacity="0.6627451" stroke-width="1.0"/>
      <path d="M63.25 -60.7 L102.15 -60.7 103.4 -60.7 M63.25 -60.7 L61.4 -60.7 M68.8 -56.4 L65.85 -56.75 65.85 -47.75 65.85 -43.25 65.85 -40.15 64.65 -41.05 Q60.65 -44.2 56.2 -46.65 L55.85 -46.35 Q49.5 -38.05 49.5 -27.15 49.5 -13.95 58.85 -4.6 68.15 4.75 81.4 4.75 94.6 4.75 103.95 -4.6 113.25 -13.95 113.25 -27.15 113.25 -38.55 106.3 -47.1 104.2 -42.4 100.7 -38.5 L97.6 -35.55 97.6 -23.3 Q96.0 -21.5 94.6 -23.3 L94.6 -33.55 92.6 -32.55 Q87.95 -30.45 82.85 -31.45 77.65 -32.45 73.1 -35.25 70.9 -36.55 68.8 -38.0 L68.8 -42.25 68.8 -47.0 68.8 -56.4 Q81.9 -55.0 94.6 -56.2 L97.6 -56.5 101.45 -56.95 102.15 -60.7 M65.85 -56.75 L64.0 -56.95 63.25 -60.7 M65.85 -40.15 L65.85 -23.3 Q67.2 -21.5 68.8 -23.3 L68.8 -38.0 M56.2 -46.65 Q57.45 -47.65 58.45 -47.95 L60.9 -48.5 65.85 -47.75 M94.6 -44.05 L88.95 -43.45 Q82.2 -43.45 72.25 -46.1 L68.8 -47.0 M55.85 -46.35 L56.15 -46.65 56.2 -46.65 M97.6 -44.95 L99.15 -45.7 102.0 -47.2 Q103.55 -47.9 105.0 -47.9 105.5 -47.9 106.3 -47.1 M97.6 -40.05 L97.6 -44.95 97.6 -56.5 M94.6 -39.25 L94.6 -44.05 94.6 -56.2 M94.6 -33.55 L94.6 -39.25 M97.6 -40.05 L97.6 -35.55" fill="none" stroke="#000000" stroke-linecap="round" stroke-linejoin="round" stroke-opacity="0.4117647" stroke-width="1.0"/>
      <path d="M68.8 -38.0 L65.85 -40.15 M97.6 -35.55 L94.6 -33.55" fill="none" stroke="#2f9900" stroke-linecap="round" stroke-linejoin="round" stroke-opacity="0.5019608" stroke-width="1.0"/>
      <path d="M68.75 -38.0 Q70.9 -36.55 73.1 -35.25 77.65 -32.45 82.85 -31.45 87.95 -30.45 92.55 -32.55 L94.6 -33.55 94.6 -23.3 Q96.0 -21.5 97.55 -23.3 L97.55 -35.55 Q99.25 -36.85 100.7 -38.5 104.2 -42.4 106.3 -47.1 113.25 -38.55 113.25 -27.15 113.25 -13.95 103.9 -4.6 94.6 4.75 81.35 4.75 68.15 4.75 58.85 -4.6 49.45 -13.95 49.45 -27.15 49.45 -38.05 55.85 -46.35 L56.2 -46.65 Q60.65 -44.2 64.65 -41.05 L65.8 -40.15 65.8 -23.3 Q67.2 -21.5 68.75 -23.3 L68.75 -38.0" fill="#63cc33" fill-opacity="0.6" fill-rule="evenodd" stroke="none"/>
      <path d="M68.75 -47.0 L72.25 -46.1 Q82.15 -43.45 88.95 -43.45 L94.6 -44.05 94.6 -33.55 92.55 -32.55 Q87.95 -30.45 82.85 -31.45 77.65 -32.45 73.1 -35.25 70.9 -36.55 68.75 -38.0 L68.75 -47.0 M65.8 -40.15 L64.65 -41.05 Q60.65 -44.2 56.2 -46.65 57.45 -47.6 58.45 -47.95 L60.9 -48.55 65.8 -47.75 65.8 -40.15 M106.3 -47.1 Q104.2 -42.4 100.7 -38.5 99.25 -36.85 97.55 -35.55 L97.55 -44.95 99.1 -45.7 102.0 -47.2 Q103.55 -47.9 104.95 -47.9 L106.3 -47.1" fill="#4dcc1a" fill-opacity="0.73333335" fill-rule="evenodd" stroke="none"/>
      <path d="M74.95 -26.0 Q73.65 -27.3 71.8 -27.3 70.0 -27.3 68.7 -26.0 67.4 -24.7 67.4 -22.85 67.4 -21.05 68.7 -19.75 70.0 -18.45 71.8 -18.45 73.65 -18.45 74.95 -19.75 76.25 -21.05 76.25 -22.85 76.25 -24.7 74.95 -26.0" fill="#1dcc00" fill-opacity="0.6" fill-rule="evenodd" stroke="none"/>
      <path d="M85.55 -10.45 Q86.95 -10.45 87.9 -11.45 88.85 -12.4 88.85 -13.8 88.85 -15.15 87.9 -16.15 86.95 -17.1 85.55 -17.1 84.15 -17.1 83.2 -16.15 82.25 -15.15 82.25 -13.8 82.25 -12.4 83.2 -11.45 84.15 -10.45 85.55 -10.45" fill="#1dcc00" fill-opacity="0.6" fill-rule="evenodd" stroke="none"/>
      <path d="M83.65 -23.65 Q84.7 -22.6 86.25 -22.6 87.75 -22.6 88.8 -23.65 89.85 -24.7 89.85 -26.25 89.85 -27.75 88.8 -28.8 87.75 -29.85 86.25 -29.85 84.7 -29.85 83.65 -28.8 82.6 -27.75 82.6 -26.25 82.6 -24.7 83.65 -23.65" fill="#1dcc00" fill-opacity="0.6" fill-rule="evenodd" stroke="none"/>
      <path d="M61.5 -37.6 Q62.05 -37.05 62.85 -37.05 63.6 -37.05 64.15 -37.6 64.75 -38.15 64.75 -38.95 64.75 -39.7 64.15 -40.25 63.6 -40.8 62.85 -40.8 62.05 -40.8 61.5 -40.25 60.95 -39.7 60.95 -38.95 60.95 -38.15 61.5 -37.6" fill="#1dcc00" fill-opacity="0.6" fill-rule="evenodd" stroke="none"/>
      <path d="M104.8 -20.4 Q104.15 -21.1 103.15 -21.1 102.2 -21.1 101.5 -20.4 100.85 -19.75 100.85 -18.75 100.85 -17.8 101.5 -17.1 102.2 -16.45 103.15 -16.45 104.15 -16.45 104.8 -17.1 105.5 -17.8 105.5 -18.75 105.5 -19.75 104.8 -20.4" fill="#1dcc00" fill-opacity="0.6" fill-rule="evenodd" stroke="none"/>
      <path d="M67.3 -10.4 L66.6 -10.7 65.9 -10.4 Q65.6 -10.1 65.6 -9.7 65.6 -9.3 65.9 -8.95 66.2 -8.7 66.6 -8.7 L67.3 -8.95 67.6 -9.7 67.3 -10.4" fill="#1dcc00" fill-opacity="0.6" fill-rule="evenodd" stroke="none"/>
      <path d="M93.55 -3.75 Q94.15 -3.2 94.95 -3.2 95.75 -3.2 96.3 -3.75 96.85 -4.35 96.85 -5.15 96.85 -5.95 96.3 -6.5 95.75 -7.05 94.95 -7.05 94.15 -7.05 93.55 -6.5 93.0 -5.95 93.0 -5.15 93.0 -4.35 93.55 -3.75" fill="#1dcc00" fill-opacity="0.6" fill-rule="evenodd" stroke="none"/>
      <path d="M96.2 -101.95 L95.9 -103.05 95.75 -103.35 Q95.15 -104.85 94.2 -105.95 92.6 -107.75 90.75 -107.4 89.75 -107.2 88.7 -106.05 89.45 -104.75 89.85 -103.05 L89.95 -102.55 Q90.4 -100.4 89.95 -98.35 89.55 -96.45 88.85 -96.3 88.05 -96.15 87.4 -97.3 86.95 -98.1 86.7 -99.2 86.35 -101.2 86.95 -103.05 L87.9 -104.9 88.7 -106.05 87.2 -107.95 Q85.15 -109.75 82.8 -109.3 80.85 -108.9 79.9 -106.85 L79.95 -106.85 Q81.55 -105.05 82.5 -103.05 L83.35 -100.35 Q83.8 -98.2 83.25 -97.1 82.85 -96.2 81.9 -96.05 80.8 -95.85 80.2 -97.15 79.8 -97.95 79.4 -100.15 79.05 -101.65 79.1 -103.05 79.15 -104.55 79.55 -105.95 L79.9 -106.85 Q77.25 -109.65 75.15 -109.25 73.05 -108.85 71.9 -106.05 L73.65 -104.55 74.7 -103.05 Q75.65 -101.35 76.1 -99.15 76.5 -97.15 76.15 -95.8 75.8 -94.5 74.85 -94.3 73.3 -94.0 72.45 -95.75 71.95 -96.8 71.4 -99.4 71.0 -101.3 71.2 -103.05 71.3 -104.6 71.85 -106.0 L71.9 -106.05 Q70.7 -106.7 69.45 -106.4 68.1 -106.15 67.5 -105.25 67.05 -104.5 66.8 -103.05 L66.7 -101.8" fill="none" stroke="#000000" stroke-linecap="round" stroke-linejoin="round" stroke-opacity="0.6627451" stroke-width="1.5"/>
      <path d="M64.0 -55.25 Q69.9 -52.3 69.95 -45.8 70.0 -40.05 68.15 -34.65 66.1 -28.8 61.85 -24.35 57.5 -19.8 51.15 -19.45 44.1 -19.15 42.7 -26.0 41.45 -31.9 43.1 -37.75 44.8 -43.75 48.7 -48.65 50.75 -51.3 53.1 -53.6 L55.7 -55.7 Q57.4 -56.85 59.55 -56.55 61.9 -56.15 64.0 -55.25" fill="#ffffff" fill-opacity="0.5019608" fill-rule="evenodd" stroke="none"/>
      <path d="M60.2 -72.6 L61.45 -72.3 62.9 -72.05 64.05 -71.6 64.4 -71.35 64.45 -71.3 Q64.9 -71.2 65.2 -70.8 L65.35 -70.6 65.45 -70.4 65.75 -70.15 65.8 -70.05 65.85 -69.95 65.9 -69.85 66.35 -69.15 66.65 -68.25 66.8 -66.65 66.75 -65.8 66.7 -65.7 66.45 -65.0 66.3 -64.6 65.7 -63.85 65.4 -63.6 65.3 -63.5 64.6 -62.9 64.2 -62.65 63.9 -62.5 Q63.3 -62.0 62.5 -61.95 L59.0 -61.9 57.7 -62.15 57.6 -62.25 57.5 -62.35 57.25 -62.45 57.05 -62.55 56.95 -62.65 56.65 -62.95 56.5 -63.15 56.45 -63.25 56.25 -63.35 55.65 -64.05 55.4 -64.45 55.05 -65.15 55.0 -65.25 54.95 -65.3 54.9 -65.6 54.85 -65.8 54.7 -66.0 54.7 -66.2 54.65 -66.8 54.7 -67.3 54.65 -68.2 54.65 -68.9 54.7 -69.0 54.95 -69.65 55.1 -69.95 55.5 -70.55 55.85 -70.95 55.9 -71.05 55.95 -71.15 56.0 -71.25 56.35 -71.55 57.6 -72.25 Q58.15 -72.55 58.75 -72.65 L60.2 -72.6" fill="#ffffff" fill-opacity="0.5019608" fill-rule="evenodd" stroke="none"/>
      <path d="M31.25 -39.8 L31.0 -39.8 30.55 -39.8 31.25 -39.8 M29.85 -39.8 L29.25 -39.8 28.6 -39.8 28.5 -39.8 28.2 -39.8 Q29.25 -38.2 32.4 -37.5 L33.5 -37.35 33.7 -37.35 37.05 -37.0 44.4 -36.7 47.8 -36.6 51.45 -36.25 55.8 -35.65 56.35 -35.55 Q57.35 -34.7 58.0 -33.1 59.05 -30.55 59.05 -26.55 59.05 -23.95 57.95 -22.85 L57.9 -22.8 52.95 -22.55 45.1 -21.9 Q44.15 -21.7 44.15 -21.15 43.95 -20.05 45.35 -20.05 L53.2 -20.3 56.9 -20.4 57.15 -18.3 57.45 -15.05 Q57.45 -11.95 55.95 -9.8 L55.35 -9.8 Q50.4 -9.3 44.2 -10.05 L44.2 -8.55 Q47.75 -6.4 51.05 -5.0 L53.35 -4.0 53.65 -2.65 Q53.65 -0.3 50.35 3.1 L48.65 4.75 48.55 4.7 Q48.0 4.5 47.35 4.1 L43.95 2.3 42.7 1.55 41.7 0.9 39.15 -0.7 Q37.45 -1.8 32.8 -1.45 L4.65 -5.2 Q-0.85 -5.5 -6.2 -6.85 L-12.3 -8.4 -14.9 -9.0 Q-24.0 -11.1 -36.4 -17.3 -46.65 -22.4 -53.9 -30.35 L-56.65 -33.45 -56.35 -35.4 Q-55.2 -40.1 -52.05 -44.75 -49.1 -49.3 -45.25 -52.5 -41.7 -55.5 -37.7 -57.95 -34.8 -59.8 -32.4 -60.75 L-31.0 -59.4 -30.45 -58.7 -29.2 -57.05 -26.05 -53.95 Q-24.45 -51.75 -20.15 -49.15 -15.9 -46.65 -12.25 -44.85 -9.3 -43.35 -2.1 -42.45 L3.15 -42.0 7.4 -41.45 8.2 -41.4 Q11.5 -41.2 14.85 -41.55 L17.6 -41.95 17.55 -41.5 Q20.25 -42.15 22.15 -43.45 L22.6 -42.65 Q23.0 -41.9 25.75 -40.9 L28.1 -40.1 29.25 -39.85 29.85 -39.8" fill="#999999" fill-rule="evenodd" stroke="none"/>
      <path d="M31.25 -39.8 L33.05 -39.85 35.2 -39.85 41.2 -39.55 46.0 -39.75 45.9 -39.6 47.8 -39.5 55.15 -38.55 55.5 -38.5 56.9 -38.3 Q59.15 -37.85 60.7 -37.2 64.75 -34.1 64.05 -29.45 L63.0 -23.8 62.7 -22.8 62.2 -21.7 Q61.8 -21.1 60.95 -20.9 L60.65 -20.8 61.2 -19.25 Q61.55 -17.75 61.55 -15.9 61.55 -9.5 59.9 -8.25 58.8 -7.45 55.35 -7.5 L48.9 -7.8 55.35 -5.05 55.55 -5.05 59.25 -3.7 Q59.85 -3.0 59.8 -2.35 L59.45 -0.75 Q58.45 2.55 56.4 5.35 L55.5 6.7 Q54.35 9.25 50.8 8.35 49.25 7.95 46.5 6.55 L46.4 6.5 42.5 4.35 41.7 3.9 36.1 0.95 30.8 1.2 24.75 1.2 19.25 0.7 13.6 0.05 9.6 -0.25 -8.1 -2.15 -11.7 -3.0 Q-24.35 -6.2 -32.1 -9.6 -42.85 -14.35 -48.6 -20.9 L-53.6 -25.8 -54.55 -26.7 Q-56.55 -29.0 -57.2 -30.55 -57.7 -31.5 -57.55 -32.15 L-57.35 -32.85 -57.25 -32.85 -56.75 -32.2 -53.95 -28.8 Q-46.1 -20.25 -35.05 -14.85 -21.65 -8.15 -11.8 -6.0 L-9.15 -5.4 -7.4 -4.95 Q1.35 -3.0 10.25 -2.35 L14.2 -2.15 19.9 -1.85 30.8 -1.3 31.85 -1.4 32.2 -1.35 32.8 -1.45 Q37.45 -1.8 39.15 -0.7 L41.7 0.9 42.7 1.55 43.95 2.3 47.35 4.1 Q48.0 4.5 48.55 4.7 L48.65 4.75 50.95 5.85 52.3 5.9 Q54.8 3.35 56.45 0.2 L57.2 -1.3 57.35 -1.95 57.3 -2.25 55.5 -3.1 53.35 -4.0 51.05 -5.0 Q47.75 -6.4 44.2 -8.55 L44.2 -10.05 Q50.4 -9.3 55.35 -9.8 L55.95 -9.8 Q58.8 -9.85 59.0 -10.3 59.8 -11.8 60.0 -13.9 60.15 -16.05 59.55 -17.8 L59.5 -18.15 59.1 -18.65 58.5 -19.45 57.15 -20.4 56.9 -20.4 53.2 -20.3 45.35 -20.05 Q43.95 -20.05 44.15 -21.15 44.15 -21.7 45.1 -21.9 L52.95 -22.55 57.9 -22.8 57.95 -22.8 59.0 -22.85 60.2 -23.05 Q60.8 -23.45 61.6 -28.15 62.4 -32.9 59.0 -35.0 L56.75 -35.5 56.35 -35.55 55.8 -35.65 51.45 -36.25 47.8 -36.6 44.4 -36.7 37.05 -37.0 33.7 -37.35 33.5 -37.35 32.4 -37.5 Q29.25 -38.2 28.2 -39.8 L28.5 -39.8 28.6 -39.8 29.25 -39.8 29.85 -39.8 30.55 -39.8 31.0 -39.8 31.25 -39.8 M-30.25 -61.55 Q-30.75 -62.7 -30.35 -63.7 L-29.95 -63.75 -27.6 -61.7 -27.25 -61.3 -22.3 -56.5 Q-13.9 -48.9 -7.05 -47.1 L-2.1 -46.0 2.9 -45.25 Q11.05 -44.35 18.9 -45.7 L19.1 -46.1 21.5 -44.9 21.75 -44.8 22.1 -44.65 21.8 -44.15 20.9 -43.35 17.6 -41.95 14.85 -41.55 Q11.5 -41.2 8.2 -41.4 L7.4 -41.45 3.15 -42.0 -2.1 -42.7 Q-6.85 -43.55 -9.25 -44.7 -13.15 -46.6 -17.75 -49.25 -22.35 -51.95 -24.05 -54.45 L-27.45 -57.75 -28.85 -59.5 -29.45 -60.15 -30.25 -61.55" fill="#000000" fill-rule="evenodd" stroke="none"/>
      <path d="M56.35 -35.55 L56.75 -35.5 59.0 -35.0 Q62.4 -32.9 61.6 -28.15 60.8 -23.45 60.2 -23.05 L59.0 -22.85 57.95 -22.8 57.95 -22.85 Q59.05 -23.95 59.05 -26.55 59.05 -30.55 58.0 -33.1 57.35 -34.7 56.35 -35.55 M56.9 -20.4 L57.15 -20.4 58.5 -19.45 59.1 -18.65 59.5 -18.15 59.55 -17.8 Q60.15 -16.05 60.0 -13.9 59.8 -11.8 59.0 -10.3 58.8 -9.85 55.95 -9.8 57.45 -11.95 57.45 -15.05 L57.15 -18.3 56.9 -20.4 M53.35 -4.0 L55.5 -3.1 57.3 -2.25 57.35 -1.95 57.2 -1.3 56.45 0.2 Q54.8 3.35 52.3 5.9 L50.95 5.85 48.65 4.75 50.35 3.1 Q53.65 -0.3 53.65 -2.65 L53.35 -4.0 M32.8 -1.45 L32.2 -1.35 31.85 -1.4 30.8 -1.3 19.9 -1.85 14.2 -2.15 10.25 -2.35 Q1.35 -3.0 -7.4 -4.95 L-9.15 -5.4 -11.8 -6.0 Q-21.65 -8.15 -35.05 -14.85 -46.1 -20.25 -53.95 -28.8 L-56.75 -32.2 -56.65 -33.0 -56.65 -33.45 -53.9 -30.35 Q-46.65 -22.4 -36.4 -17.3 -24.0 -11.1 -14.9 -9.0 L-12.3 -8.4 -6.2 -6.85 Q-0.85 -5.5 4.65 -5.2 L32.8 -1.45 M-32.4 -60.75 L-30.25 -61.55 -29.45 -60.15 -28.85 -59.5 -27.45 -57.75 -24.05 -54.45 Q-22.35 -51.95 -17.75 -49.25 -13.15 -46.6 -9.25 -44.7 -6.85 -43.55 -2.1 -42.7 L3.15 -42.0 -2.1 -42.45 Q-9.3 -43.35 -12.25 -44.85 -15.9 -46.65 -20.15 -49.15 -24.45 -51.75 -26.05 -53.95 L-29.2 -57.05 -30.45 -58.7 -31.0 -59.4 -32.4 -60.75 M22.1 -44.65 L23.1 -44.2 22.15 -43.45 Q20.25 -42.15 17.55 -41.5 L17.6 -41.95 20.9 -43.35 21.8 -44.15 22.1 -44.65" fill="#bdbdbd" fill-rule="evenodd" stroke="none"/>
    </g>
  </defs>
</svg>
