<?xml version="1.0" encoding="UTF-8" standalone="no"?>
<svg xmlns:xlink="http://www.w3.org/1999/xlink" height="531.5px" width="460.6px" xmlns="http://www.w3.org/2000/svg">
  <g transform="matrix(1.0, 0.0, 0.0, 1.0, 193.65, 334.05)">
    <use height="80.1" transform="matrix(1.0, 0.0, 0.0, 1.0, 16.65, -46.3)" width="83.95" xlink:href="#shape0"/>
    <use height="85.7" transform="matrix(0.9167, 0.0, 0.0, 0.9167, 17.3956, -45.5294)" width="89.95" xlink:href="#sprite0"/>
    <use height="73.2" transform="matrix(0.9167, 0.0, 0.0, 0.9167, 40.5874, -43.3002)" width="58.55" xlink:href="#shape2"/>
    <use height="51.65" transform="matrix(1.0, 0.0, 0.0, 1.0, 39.9, -32.3)" width="55.15" xlink:href="#shape3"/>
    <use height="69.7" transform="matrix(1.0, 0.0, 0.0, 1.0, -58.0, -58.1)" width="97.6" xlink:href="#shape4"/>
  </g>
  <defs>
    <g id="shape0" transform="matrix(1.0, 0.0, 0.0, 1.0, 41.95, 40.05)">
      <path d="M35.6 -31.8 Q35.35 -31.35 34.35 -31.35 33.45 -31.35 31.05 -32.45 L27.6 -34.0 19.7 -36.6 Q19.9 -37.9 25.7 -37.9 L33.55 -36.85 33.65 -36.85 34.25 -36.7 34.75 -36.45 35.35 -35.75 Q35.85 -34.8 35.85 -33.45 L35.6 -31.8 M17.15 35.7 L14.0 31.25 22.25 30.4 Q29.0 29.4 35.75 27.3 38.2 29.85 38.15 33.5 L22.25 35.4 17.15 35.7 M-16.6 27.8 Q-7.4 30.4 1.85 31.15 L7.5 31.4 8.55 35.9 1.85 35.75 Q-9.25 35.3 -20.45 33.5 -21.25 30.2 -19.0 27.9 L-18.65 31.5 -18.45 32.6 -17.1 28.25 -16.6 27.8 M-17.9 -27.7 L-19.7 -27.7 -22.65 -28.3 -25.5 -28.35 Q-29.75 -28.95 -33.0 -26.55 -35.45 -24.7 -36.65 -21.85 L-38.65 -15.75 -39.2 -13.0 -39.65 -10.85 -40.0 -16.3 Q-40.0 -22.0 -37.05 -26.0 -33.85 -30.2 -28.9 -30.2 L-22.5 -29.65 Q-18.9 -29.05 -17.9 -27.9 L-17.9 -27.7 M-18.75 -24.75 L-18.95 -24.6 Q-19.6 -24.15 -20.65 -24.15 L-22.85 -24.45 Q-24.5 -24.9 -24.5 -25.4 -24.5 -26.2 -23.15 -26.75 L-21.1 -27.2 -19.85 -27.15 -19.5 -27.15 -19.4 -27.1 -18.9 -26.8 Q-18.25 -26.4 -18.25 -25.85 -18.25 -25.2 -18.75 -24.75 M-21.7 12.65 L-21.65 12.3 -21.55 11.75 -21.0 11.75 Q-20.45 12.7 -18.95 17.45 L-18.95 17.95 -20.85 17.95 -23.25 17.4 Q-24.6 16.95 -25.0 16.2 L-24.5 16.2 -23.15 16.4 -22.05 16.1 Q-21.75 15.75 -21.7 15.2 L-21.7 12.65" fill="#ffffff" fill-rule="evenodd" stroke="none"/>
      <path d="M35.6 -31.8 L35.85 -33.45 Q35.85 -34.8 35.35 -35.75 L34.75 -36.45 34.25 -36.7 33.65 -36.85 33.55 -36.85 25.7 -37.9 Q19.9 -37.9 19.7 -36.6 L27.6 -34.0 31.05 -32.45 Q33.45 -31.35 34.35 -31.35 35.35 -31.35 35.6 -31.8 M8.45 -39.25 L10.75 -39.25 36.8 -37.5 Q36.65 -5.35 38.4 24.5 L38.45 24.95 Q45.85 36.05 33.75 38.0 L10.7 39.3 8.85 39.3 7.4 39.3 -15.7 38.0 Q-27.8 36.05 -20.4 24.95 L-20.35 24.5 -20.05 18.9 Q-28.35 19.3 -37.15 8.05 -45.05 -18.0 -37.5 -29.0 -31.65 -32.55 -18.75 -29.4 L-18.75 -37.5 7.3 -39.25 8.45 -39.25 M18.2 25.25 L16.95 25.35 16.8 25.3 Q16.0 25.3 15.65 25.7 L20.6 26.05 26.65 25.55 31.05 25.05 30.1 25.05 29.35 25.05 28.85 25.05 27.15 25.25 18.2 25.25 M18.5 36.6 L17.25 36.6 11.9 37.0 5.2 37.4 -1.4 36.8 -5.2 36.3 -6.05 36.15 Q-4.25 37.1 1.65 37.7 L9.8 38.2 15.15 37.65 19.25 36.95 Q19.2 36.65 18.5 36.6 M17.15 35.7 L22.25 35.4 38.15 33.5 Q38.2 29.85 35.75 27.3 29.0 29.4 22.25 30.4 L14.0 31.25 17.15 35.7 M-19.0 27.9 Q-21.25 30.2 -20.45 33.5 -9.25 35.3 1.85 35.75 L8.55 35.9 7.5 31.4 1.85 31.15 Q-7.4 30.4 -16.6 27.8 L-15.35 26.75 -15.15 25.95 -18.1 25.6 -18.4 25.6 -18.6 25.4 -19.0 25.2 -19.0 27.9 M-19.0 25.2 L-19.0 25.1 -19.15 25.1 -19.0 25.2 M8.2 29.0 L16.3 28.85 Q20.85 28.8 24.9 27.15 L26.35 26.5 16.7 27.25 6.3 28.0 -0.55 27.55 -8.1 25.65 -12.95 24.9 -8.8 26.75 Q-4.5 28.1 0.05 28.65 L8.2 29.0 M34.6 25.1 L34.35 19.85 Q33.85 24.5 29.85 26.4 L28.75 26.85 32.7 26.45 Q33.6 26.1 34.6 25.1 M-18.25 -25.85 Q-18.25 -26.4 -18.9 -26.8 L-19.4 -27.1 -19.5 -27.15 -19.85 -27.15 -21.1 -27.2 -23.15 -26.75 Q-24.5 -26.2 -24.5 -25.4 -24.5 -24.9 -22.85 -24.45 L-20.65 -24.15 Q-19.6 -24.15 -18.95 -24.6 L-18.75 -24.75 -19.05 -23.95 -19.55 -22.65 Q-27.25 -24.2 -30.85 -22.0 L-32.25 -19.15 Q-33.4 -18.0 -33.85 -16.1 -34.3 -14.35 -34.3 -10.65 -34.3 -7.35 -33.75 -5.75 L-32.3 -2.6 -30.65 3.7 Q-27.55 7.7 -24.5 9.6 L-24.5 9.9 -24.2 10.3 -24.05 10.5 -23.0 10.95 -20.95 11.75 -19.95 11.95 Q-18.75 11.95 -18.75 8.65 L-18.95 4.85 -18.8 -2.85 -18.8 -5.45 -19.0 -7.9 -18.9 -14.15 -18.7 -13.85 -18.25 -13.85 Q-17.95 -14.25 -17.75 -18.3 L-17.55 -24.1 Q-17.55 -26.25 -17.9 -26.55 L-18.25 -25.85 M-17.9 -27.7 L-17.9 -27.9 Q-18.9 -29.05 -22.5 -29.65 L-28.9 -30.2 Q-33.85 -30.2 -37.05 -26.0 -40.0 -22.0 -40.0 -16.3 L-39.65 -10.85 -39.2 -13.0 -38.65 -15.75 -36.65 -21.85 Q-35.45 -24.7 -33.0 -26.55 -29.75 -28.95 -25.5 -28.35 L-22.65 -28.3 -19.7 -27.7 -17.9 -27.7 M-16.95 22.4 L-16.95 23.2 Q-14.15 24.55 -11.0 24.6 L-8.95 24.55 Q-11.15 23.7 -12.95 22.15 L-15.4 19.8 -16.75 17.1 -16.95 22.4 M-22.05 16.1 L-23.15 16.4 -24.5 16.2 -25.0 16.2 Q-24.6 16.95 -23.25 17.4 L-20.85 17.95 -18.95 17.95 -18.95 17.45 Q-20.45 12.7 -21.0 11.75 L-21.55 11.75 -21.65 12.3 -21.7 12.65 -21.8 14.1 -22.05 16.1 M-6.05 36.15 L-6.35 36.1 -6.6 36.1 -6.05 36.15" fill="#d9d9d9" fill-opacity="0.7019608" fill-rule="evenodd" stroke="none"/>
      <path d="M18.2 25.25 L27.15 25.25 28.85 25.05 29.35 25.05 30.1 25.05 31.05 25.05 26.65 25.55 20.6 26.05 15.65 25.7 Q16.0 25.3 16.8 25.3 L16.95 25.35 18.2 25.35 18.2 25.25 M18.5 36.6 Q19.2 36.65 19.25 36.95 L15.15 37.65 9.8 38.2 1.65 37.7 Q-4.25 37.1 -6.05 36.15 L-5.2 36.3 -1.4 36.8 5.2 37.4 11.9 37.0 17.25 36.6 18.5 36.6 M-19.0 27.9 L-19.0 25.2 -18.6 25.4 -18.4 25.6 -18.1 25.6 -15.15 25.95 -15.35 26.75 -16.6 27.8 -17.1 28.25 -18.45 32.6 -18.65 31.5 -19.0 27.9 M34.6 25.1 Q33.6 26.1 32.7 26.45 L28.75 26.85 29.85 26.4 Q33.85 24.5 34.35 19.85 L34.6 25.1 M8.2 29.0 L0.05 28.65 Q-4.5 28.1 -8.8 26.75 L-12.95 24.9 -8.1 25.65 -0.55 27.55 6.3 28.0 16.7 27.25 26.35 26.5 24.9 27.15 Q20.85 28.8 16.3 28.85 L8.2 29.0 M-18.25 -25.85 L-17.9 -26.55 Q-17.55 -26.25 -17.55 -24.1 L-17.75 -18.3 Q-17.95 -14.25 -18.25 -13.85 L-18.7 -13.85 -18.9 -14.15 -18.8 -22.45 -19.55 -22.65 -19.05 -23.95 -18.75 -24.75 Q-18.25 -25.2 -18.25 -25.85 M-19.0 -7.9 L-18.8 -5.45 -18.8 -2.85 -18.95 4.85 -18.75 8.65 Q-18.75 11.95 -19.95 11.95 L-20.95 11.75 -23.0 10.95 -24.05 10.5 -24.2 10.3 -24.5 9.9 -24.5 9.6 Q-22.1 11.1 -19.65 11.25 L-19.0 -7.9 M-32.3 -2.6 L-33.75 -5.75 Q-34.3 -7.35 -34.3 -10.65 -34.3 -14.35 -33.85 -16.1 -33.4 -18.0 -32.25 -19.15 -34.55 -13.1 -32.3 -2.6 M-15.4 19.8 L-12.95 22.15 Q-11.15 23.7 -8.95 24.55 L-11.0 24.6 Q-14.15 24.55 -16.95 23.2 L-16.95 22.4 -15.4 19.8" fill="#404040" fill-rule="evenodd" stroke="none"/>
      <path d="M-16.95 22.4 L-16.75 17.1 -15.4 19.8 -16.95 22.4" fill="#787878" fill-opacity="0.77254903" fill-rule="evenodd" stroke="none"/>
      <path d="M8.45 -39.25 L7.3 -39.25 -18.75 -37.5 -18.75 -29.4 Q-31.65 -32.55 -37.5 -29.0 -45.05 -18.0 -37.15 8.05 -28.35 19.3 -20.05 18.9 L-20.35 24.5 -20.4 24.95 Q-27.8 36.05 -15.7 38.0 L7.4 39.3 8.85 39.3 10.7 39.3 33.75 38.0 Q45.85 36.05 38.45 24.95 L38.4 24.5 Q36.65 -5.35 36.8 -37.5 L10.75 -39.25 8.45 -39.25 M-18.9 -14.15 L-19.0 -7.9 -19.65 11.25 Q-22.1 11.1 -24.5 9.6 -27.55 7.7 -30.65 3.7 L-32.3 -2.6 Q-34.55 -13.1 -32.25 -19.15 L-30.85 -22.0 Q-27.25 -24.2 -19.55 -22.65 L-18.8 -22.45 -18.9 -14.15" fill="none" stroke="#000000" stroke-linecap="round" stroke-linejoin="round" stroke-opacity="0.32941177" stroke-width="1.5"/>
    </g>
    <g id="sprite0" transform="matrix(1.0, 0.0, 0.0, 1.0, 44.95, 42.85)">
      <use height="85.7" transform="matrix(1.0, 0.0, 0.0, 1.0, -44.95, -42.85)" width="89.95" xlink:href="#shape1"/>
    </g>
    <g id="shape1" transform="matrix(1.0, 0.0, 0.0, 1.0, 44.95, 42.85)">
      <path d="M37.9 -39.75 L37.35 -40.05 36.7 -40.2 36.6 -40.2 28.05 -41.35 Q21.7 -41.35 21.5 -39.95 L30.1 -37.1 33.85 -35.4 Q36.5 -34.2 37.45 -34.2 38.55 -34.2 38.85 -34.7 L39.1 -36.5 Q39.1 -37.95 38.55 -39.0 L37.9 -39.75 M-19.75 27.9 L-18.9 25.5 -18.7 25.1 -18.75 25.05 -18.7 25.05 -18.5 24.45 -16.8 21.6 -14.65 19.25 Q-10.8 15.65 -3.4 10.65 2.25 6.85 10.05 3.1 11.9 2.2 21.35 -1.95 30.8 -6.2 34.2 -6.2 37.2 -6.2 38.05 -4.8 38.55 -4.05 39.1 -0.1 L39.25 -7.15 39.0 -18.9 39.05 -22.3 39.75 -25.45 39.75 -28.45 39.5 -28.45 38.1 -26.9 35.35 -24.45 27.25 -18.45 22.05 -14.5 16.35 -10.45 Q4.95 -3.55 -3.0 -0.55 -9.45 1.95 -14.65 2.15 L-14.75 2.15 -18.25 1.8 -19.3 0.55 -19.3 2.6 -19.5 5.7 -20.0 14.45 -20.4 25.45 -20.4 27.2 -20.3 27.7 -20.75 27.5 -20.75 30.45 Q-23.2 32.95 -22.3 36.55 -10.1 38.5 2.0 39.0 L9.35 39.15 8.2 34.25 2.0 33.95 Q-8.05 33.15 -18.1 30.3 L-16.75 29.2 -16.55 28.3 -19.75 27.9 M-20.75 27.5 L-20.75 27.4 -20.9 27.4 -20.75 27.5 M7.95 -42.85 L9.2 -42.85 11.75 -42.8 40.15 -40.9 Q40.0 -5.85 41.9 26.7 L41.95 27.2 Q50.0 39.3 36.8 41.45 L11.65 42.85 9.65 42.85 8.05 42.85 -17.1 41.45 Q-30.3 39.3 -22.25 27.2 L-22.2 26.7 -21.85 20.6 Q-30.95 21.05 -40.55 8.8 -49.15 -19.65 -40.9 -31.65 -34.55 -35.5 -20.45 -32.1 L-20.45 -40.9 7.95 -42.85 M19.85 27.65 L19.85 27.55 18.5 27.65 19.85 27.65 M18.7 38.95 L24.25 38.6 41.6 36.55 Q41.65 32.55 39.0 29.8 31.65 32.05 24.25 33.15 L15.3 34.1 18.7 38.95 M-43.65 -17.8 L-43.25 -11.85 -42.75 -14.2 -42.15 -17.2 -40.0 -23.85 Q-38.65 -26.95 -36.0 -28.95 -32.45 -31.6 -27.8 -30.95 L-24.7 -30.9 -21.5 -30.2 -19.5 -30.2 -19.5 -30.45 Q-20.6 -31.7 -24.55 -32.35 L-31.55 -32.95 Q-36.95 -32.95 -40.4 -28.35 -43.65 -24.0 -43.65 -17.8 M-20.6 -15.45 L-20.5 -24.5 -21.35 -24.7 Q-29.75 -26.4 -33.65 -24.0 -34.6 -22.6 -35.2 -20.9 -37.7 -14.3 -35.25 -2.85 L-33.45 4.05 Q-30.05 8.4 -26.75 10.45 -24.1 12.1 -21.45 12.25 L-20.75 -8.65 -20.6 -15.45 M-24.05 17.55 L-25.25 17.9 -26.75 17.65 -27.25 17.65 Q-26.85 18.5 -25.35 18.95 L-22.75 19.55 -20.65 19.55 -20.65 19.05 Q-22.3 13.85 -22.9 12.8 L-23.5 12.8 -23.6 13.4 -23.65 13.8 -23.8 15.4 -24.05 17.55 M-7.2 39.4 L-6.6 39.45 -6.9 39.4 -7.2 39.4" fill="url(#gradient0)" fill-rule="evenodd" stroke="none"/>
      <path d="M37.9 -39.75 L38.55 -39.0 Q39.1 -37.95 39.1 -36.5 L38.85 -34.7 Q38.55 -34.2 37.45 -34.2 36.5 -34.2 33.85 -35.4 L30.1 -37.1 21.5 -39.95 Q21.7 -41.35 28.05 -41.35 L36.6 -40.2 36.7 -40.2 37.35 -40.05 37.9 -39.75" fill="url(#gradient1)" fill-rule="evenodd" stroke="none"/>
      <path d="M-20.3 27.7 L-20.4 27.2 -20.4 25.45 -20.0 14.45 -19.5 5.7 -19.3 2.6 -19.3 0.55 -18.25 1.8 -14.75 2.15 -14.65 2.15 Q-9.45 1.95 -3.0 -0.55 4.95 -3.55 16.35 -10.45 L22.05 -14.5 27.25 -18.45 35.35 -24.45 38.1 -26.9 39.5 -28.45 39.75 -28.45 39.75 -25.45 39.05 -22.3 39.0 -18.9 39.25 -7.15 39.1 -0.1 Q38.55 -4.05 38.05 -4.8 37.2 -6.2 34.2 -6.2 30.8 -6.2 21.35 -1.95 11.9 2.2 10.05 3.1 2.25 6.85 -3.4 10.65 -10.8 15.65 -14.65 19.25 L-16.8 21.6 -18.5 24.45 -18.7 25.05 -18.75 25.05 -18.7 25.1 -18.9 25.5 -19.75 27.9 -20.3 27.7" fill="url(#gradient2)" fill-rule="evenodd" stroke="none"/>
      <path d="M-18.1 30.3 Q-8.05 33.15 2.0 33.95 L8.2 34.25 9.35 39.15 2.0 39.0 Q-10.1 38.5 -22.3 36.55 -23.2 32.95 -20.75 30.45 L-20.35 34.35 -20.15 35.55 -18.65 30.8 -18.1 30.3" fill="url(#gradient3)" fill-rule="evenodd" stroke="none"/>
      <path d="M-19.75 27.9 L-16.55 28.3 -16.75 29.2 -18.1 30.3 -18.65 30.8 -20.15 35.55 -20.35 34.35 -20.75 30.45 -20.75 27.5 -20.3 27.7 -20.05 27.9 -19.75 27.9" fill="url(#gradient4)" fill-rule="evenodd" stroke="none"/>
      <path d="M-20.3 27.7 L-19.75 27.9 -20.05 27.9 -20.3 27.7" fill="url(#gradient5)" fill-rule="evenodd" stroke="none"/>
      <path d="M18.7 38.95 L15.3 34.1 24.25 33.15 Q31.65 32.05 39.0 29.8 41.65 32.55 41.6 36.55 L24.25 38.6 18.7 38.95" fill="url(#gradient6)" fill-rule="evenodd" stroke="none"/>
      <path d="M-43.65 -17.8 Q-43.65 -24.0 -40.4 -28.35 -36.95 -32.95 -31.55 -32.95 L-24.55 -32.35 Q-20.6 -31.7 -19.5 -30.45 L-19.5 -30.2 -21.5 -30.2 -24.7 -30.9 -27.8 -30.95 Q-32.45 -31.6 -36.0 -28.95 -38.65 -26.95 -40.0 -23.85 L-42.15 -17.2 -42.75 -14.2 -43.25 -11.85 -43.65 -17.8" fill="url(#gradient7)" fill-rule="evenodd" stroke="none"/>
      <path d="M-24.05 17.55 Q-23.7 17.2 -23.65 16.6 L-23.65 13.8 -23.6 13.4 -23.5 12.8 -22.9 12.8 Q-22.3 13.85 -20.65 19.05 L-20.65 19.55 -22.75 19.55 -25.35 18.95 Q-26.85 18.5 -27.25 17.65 L-26.75 17.65 -25.25 17.9 -24.05 17.55" fill="url(#gradient8)" fill-rule="evenodd" stroke="none"/>
    </g>
    <linearGradient gradientTransform="matrix(0.0549, 0.0, 0.0, 0.0523, 0.0, 0.0)" gradientUnits="userSpaceOnUse" id="gradient0" spreadMethod="pad" x1="-819.2" x2="819.2">
      <stop offset="0.0" stop-color="#000000" stop-opacity="0.7921569"/>
      <stop offset="1.0" stop-color="#ffffff" stop-opacity="0.8"/>
    </linearGradient>
    <linearGradient gradientTransform="matrix(0.0107, 0.0, 0.0, 0.0044, 30.3, -37.8)" gradientUnits="userSpaceOnUse" id="gradient1" spreadMethod="pad" x1="-819.2" x2="819.2">
      <stop offset="0.0" stop-color="#000000" stop-opacity="0.7921569"/>
      <stop offset="1.0" stop-color="#ffffff" stop-opacity="0.8"/>
    </linearGradient>
    <linearGradient gradientTransform="matrix(0.0367, 0.0, 0.0, 0.0344, 9.65, -0.3)" gradientUnits="userSpaceOnUse" id="gradient2" spreadMethod="pad" x1="-819.2" x2="819.2">
      <stop offset="0.0" stop-color="#000000" stop-opacity="0.7921569"/>
      <stop offset="1.0" stop-color="#ffffff" stop-opacity="0.8"/>
    </linearGradient>
    <linearGradient gradientTransform="matrix(0.0195, 0.0, 0.0, 0.0054, -6.6, 34.7)" gradientUnits="userSpaceOnUse" id="gradient3" spreadMethod="pad" x1="-819.2" x2="819.2">
      <stop offset="0.0" stop-color="#000000" stop-opacity="0.7921569"/>
      <stop offset="1.0" stop-color="#ffffff" stop-opacity="0.8"/>
    </linearGradient>
    <linearGradient gradientTransform="matrix(0.0026, 0.0, 0.0, 0.0049, -18.65, 31.5)" gradientUnits="userSpaceOnUse" id="gradient4" spreadMethod="pad" x1="-819.2" x2="819.2">
      <stop offset="0.0" stop-color="#000000" stop-opacity="0.7921569"/>
      <stop offset="1.0" stop-color="#ffffff" stop-opacity="0.8"/>
    </linearGradient>
    <linearGradient gradientTransform="matrix(3.0E-4, 0.0, 0.0, 1.0E-4, -20.05, 27.8)" gradientUnits="userSpaceOnUse" id="gradient5" spreadMethod="pad" x1="-819.2" x2="819.2">
      <stop offset="0.0" stop-color="#000000" stop-opacity="0.7921569"/>
      <stop offset="1.0" stop-color="#ffffff" stop-opacity="0.8"/>
    </linearGradient>
    <linearGradient gradientTransform="matrix(0.0161, 0.0, 0.0, 0.0056, 28.45, 34.35)" gradientUnits="userSpaceOnUse" id="gradient6" spreadMethod="pad" x1="-819.2" x2="819.2">
      <stop offset="0.0" stop-color="#000000" stop-opacity="0.7921569"/>
      <stop offset="1.0" stop-color="#ffffff" stop-opacity="0.8"/>
    </linearGradient>
    <linearGradient gradientTransform="matrix(0.0147, 0.0, 0.0, 0.0129, -31.6, -22.4)" gradientUnits="userSpaceOnUse" id="gradient7" spreadMethod="pad" x1="-819.2" x2="819.2">
      <stop offset="0.0" stop-color="#000000" stop-opacity="0.7921569"/>
      <stop offset="1.0" stop-color="#ffffff" stop-opacity="0.8"/>
    </linearGradient>
    <linearGradient gradientTransform="matrix(0.004, 0.0, 0.0, 0.0041, -23.95, 16.15)" gradientUnits="userSpaceOnUse" id="gradient8" spreadMethod="pad" x1="-819.2" x2="819.2">
      <stop offset="0.0" stop-color="#000000" stop-opacity="0.7921569"/>
      <stop offset="1.0" stop-color="#ffffff" stop-opacity="0.8"/>
    </linearGradient>
    <g id="shape2" transform="matrix(1.0, 0.0, 0.0, 1.0, 29.25, 36.6)">
      <path d="M-28.05 -23.5 L-27.8 -34.8 Q1.2 -38.5 28.3 -34.55 L28.5 -22.35 Q-6.35 -17.85 -28.05 -23.5" fill="#ffffff" fill-opacity="0.9019608" fill-rule="evenodd" stroke="none"/>
      <path d="M28.5 -22.35 L29.3 32.35 Q0.3 40.85 -29.25 32.35 L-28.05 -23.5 Q-6.35 -17.85 28.5 -22.35" fill="url(#gradient9)" fill-rule="evenodd" stroke="none"/>
    </g>
    <linearGradient gradientTransform="matrix(0.0357, 1.0E-4, -1.0E-4, 0.0367, 0.1, 6.6)" gradientUnits="userSpaceOnUse" id="gradient9" spreadMethod="pad" x1="-819.2" x2="819.2">
      <stop offset="0.0" stop-color="#ff5c00" stop-opacity="0.8"/>
      <stop offset="0.5058823529411764" stop-color="#ff0000" stop-opacity="0.8"/>
      <stop offset="1.0" stop-color="#ff4f00" stop-opacity="0.8"/>
    </linearGradient>
    <g id="shape3" transform="matrix(1.0, 0.0, 0.0, 1.0, 18.7, 26.05)">
      <path d="M36.45 -26.05 L36.45 -23.3 35.8 -20.45 35.75 -17.3 36.0 -6.55 35.85 -0.1 Q35.35 -3.7 34.9 -4.4 34.1 -5.7 31.35 -5.7 28.25 -5.7 19.55 -1.8 10.9 2.0 9.2 2.85 2.05 6.3 -3.1 9.75 -9.9 14.35 -13.45 17.65 L-15.4 19.8 -16.75 17.1 -16.95 22.4 -17.15 22.95 -17.2 22.95 -17.15 23.0 -17.35 23.4 -18.1 25.6 -18.6 25.4 -18.7 24.95 -18.7 23.35 -18.35 13.25 -17.9 5.25 -17.7 2.4 -17.7 0.5 -16.75 1.65 -13.5 2.0 -13.45 2.0 Q-8.65 1.8 -2.75 -0.5 4.55 -3.25 15.0 -9.55 L20.2 -13.3 25.0 -16.9 32.4 -22.4 34.9 -24.65 36.2 -26.05 36.45 -26.05" fill="#ffffff" fill-opacity="0.8" fill-rule="evenodd" stroke="none"/>
    </g>
    <g id="shape4" transform="matrix(1.0, 0.0, 0.0, 1.0, 58.0, 58.1)">
      <path d="M-11.1 -44.55 L-10.45 -45.4 -10.45 -44.15 -10.5 -36.85 Q-10.5 -32.95 -10.15 -30.0 L-9.9 -29.65 -7.6 -29.9 -2.05 -30.0 9.9 -30.35 10.35 -31.15 11.0 -32.5 Q11.55 -34.45 13.45 -35.25 15.3 -36.1 17.05 -35.9 L19.35 -35.95 19.8 -35.85 Q20.65 -35.55 20.8 -34.65 L20.95 -33.95 20.85 -33.8 20.7 -32.8 20.65 -32.3 20.6 -31.3 20.65 -30.65 20.7 -30.15 Q20.7 -29.9 20.85 -29.8 L21.25 -29.8 21.3 -29.8 21.3 -29.75 21.9 -29.75 22.0 -29.75 22.0 -29.7 23.1 -29.7 24.25 -29.7 28.65 -29.35 29.6 -29.25 31.95 -28.85 33.8 -28.1 34.0 -28.05 35.0 -27.2 35.3 -26.85 35.75 -26.15 Q36.4 -24.9 36.4 -22.5 L36.15 -20.1 35.7 -19.05 36.9 -18.35 Q37.9 -17.8 38.55 -16.45 L39.25 -14.75 Q39.6 -13.45 39.6 -11.55 39.6 -8.65 38.15 -7.0 L37.25 -6.15 36.9 -5.95 36.65 -5.8 35.25 -5.25 35.3 -5.15 35.7 -4.65 36.35 -2.55 36.35 -2.25 36.4 -2.1 36.55 -0.85 Q36.55 1.2 35.5 3.25 34.6 4.95 33.6 5.4 L33.25 5.7 33.05 5.8 32.25 6.05 32.1 6.1 31.25 6.4 28.35 6.95 26.45 7.45 26.05 7.65 26.0 7.65 25.6 7.9 21.95 8.75 17.65 9.55 9.4 10.8 -7.7 11.6 Q-17.95 11.45 -33.0 8.55 -36.55 7.6 -39.75 6.05 -42.1 4.9 -44.25 3.45 -46.8 0.95 -49.0 -3.4 -51.9 -9.1 -53.45 -15.65 -57.2 -31.85 -57.65 -39.55 -58.1 -46.85 -58.0 -49.2 -57.75 -54.55 -55.85 -58.1 L-55.55 -57.8 -55.45 -57.45 -55.4 -57.05 -55.7 -51.5 -55.95 -45.85 Q-54.9 -28.4 -51.7 -16.4 -48.75 -5.35 -44.25 0.15 L-42.45 1.65 -42.3 1.75 Q-37.9 4.9 -33.0 6.6 -28.25 7.9 -23.2 8.65 L-1.6 9.9 16.3 8.45 24.55 6.9 25.3 6.6 27.1 6.0 28.85 5.6 31.4 5.15 31.9 5.0 32.1 4.95 32.75 4.6 33.6 3.95 33.85 3.6 34.65 1.9 34.75 1.65 34.8 1.6 35.15 -1.0 34.85 -3.2 34.35 -4.25 33.9 -4.7 33.8 -4.75 33.5 -4.85 33.3 -4.85 33.0 -4.85 32.25 -4.8 32.3 -4.85 32.05 -4.85 32.25 -5.15 Q32.6 -5.5 33.8 -6.05 L33.95 -6.1 34.55 -6.3 35.7 -6.7 37.05 -7.95 38.0 -9.45 38.3 -10.45 38.4 -10.95 38.45 -11.2 38.25 -12.75 37.8 -14.45 Q37.2 -15.95 36.6 -16.5 35.7 -17.35 34.3 -17.2 L33.3 -17.2 32.85 -17.2 32.8 -17.3 32.7 -17.3 Q32.2 -17.3 32.2 -17.65 32.2 -17.95 32.75 -18.15 L32.9 -18.2 33.8 -18.5 34.4 -18.85 34.7 -19.45 35.0 -20.5 35.15 -22.55 Q35.15 -24.4 34.75 -25.65 L34.2 -26.6 Q33.05 -27.6 29.95 -28.15 L23.1 -28.8 22.0 -28.85 22.0 -28.7 18.15 -28.85 19.05 -29.4 19.1 -29.4 Q18.9 -29.9 18.95 -30.8 18.95 -32.25 19.25 -33.35 L19.5 -34.25 19.15 -34.35 15.2 -34.45 Q14.1 -34.15 13.55 -33.5 13.0 -33.05 12.6 -32.2 12.1 -31.25 11.7 -29.8 L10.9 -28.5 Q10.75 -28.3 -2.05 -28.15 L-6.6 -28.1 -9.1 -28.05 -10.15 -28.1 -10.2 -28.1 -11.6 -27.95 -17.55 -27.3 -17.6 -27.5 -17.7 -28.2 Q-17.7 -29.1 -15.15 -29.3 L-13.25 -29.4 -12.55 -29.45 -13.3 -29.8 -14.7 -30.4 -17.45 -30.95 -20.0 -31.65 Q-18.5 -32.55 -14.2 -31.65 L-13.4 -31.45 -12.2 -31.1 -12.25 -31.4 -12.25 -35.2 -12.15 -40.75 Q-11.9 -43.25 -11.1 -44.55" fill="#000000" fill-rule="evenodd" stroke="none"/>
      <path d="M-53.85 -57.55 Q-42.5 -57.9 -32.5 -54.7 -21.85 -51.3 -17.2 -48.35 L-13.35 -45.9 -13.7 -36.95 -13.4 -31.45 -14.2 -31.65 Q-18.5 -32.55 -20.0 -31.65 L-17.45 -30.95 -14.7 -30.4 -13.3 -29.8 -13.25 -29.4 -15.15 -29.3 Q-17.7 -29.1 -17.7 -28.2 L-17.6 -27.5 -17.55 -27.3 -11.6 -27.95 -10.2 -28.1 -10.15 -28.1 -9.1 -28.05 -6.6 -28.1 -2.05 -28.15 Q10.75 -28.3 10.9 -28.5 L11.7 -29.8 Q12.1 -31.25 12.6 -32.2 13.0 -33.05 13.55 -33.5 14.1 -34.15 15.2 -34.45 L19.15 -34.35 19.5 -34.25 19.25 -33.35 Q18.95 -32.25 18.95 -30.8 18.9 -29.9 19.1 -29.4 L19.05 -29.4 18.15 -28.85 22.0 -28.7 22.0 -28.85 23.1 -28.8 29.95 -28.15 31.15 -25.7 32.3 -20.2 32.9 -18.2 32.75 -18.15 Q32.2 -17.95 32.2 -17.65 32.2 -17.3 32.7 -17.3 L32.8 -17.3 32.85 -17.2 33.3 -17.2 34.45 -15.25 Q35.8 -13.35 35.8 -10.45 35.8 -8.9 34.55 -6.3 L33.95 -6.1 33.8 -6.05 Q32.6 -5.5 32.25 -5.15 L32.05 -4.85 32.3 -4.85 32.25 -4.8 33.0 -4.85 33.3 -4.85 33.5 -4.85 33.8 -4.75 33.9 -4.7 Q33.5 -3.25 33.8 -1.95 34.2 -0.1 33.25 2.9 L32.75 4.6 32.1 4.95 31.9 5.0 31.4 5.15 28.85 5.6 27.1 6.0 25.3 6.6 24.55 6.9 16.3 8.45 -1.6 9.9 -23.2 8.65 Q-28.25 7.9 -33.0 6.6 -37.9 4.9 -42.3 1.75 L-42.45 1.65 Q-48.6 -9.15 -51.35 -21.65 -53.95 -33.55 -53.95 -54.7 L-53.85 -57.55" fill="#999999" fill-rule="evenodd" stroke="none"/>
      <path d="M-55.45 -57.45 L-53.85 -57.55 -53.95 -54.7 Q-53.95 -33.55 -51.35 -21.65 -48.6 -9.15 -42.45 1.65 L-44.25 0.15 Q-48.75 -5.35 -51.7 -16.4 -54.9 -28.4 -55.95 -45.85 L-55.7 -51.5 -55.4 -57.05 -55.45 -57.45 M-13.35 -45.9 L-11.1 -44.55 Q-11.9 -43.25 -12.15 -40.75 L-12.25 -35.2 -12.25 -31.4 -12.2 -31.1 -13.4 -31.45 -13.7 -36.95 -13.35 -45.9 M29.95 -28.15 Q33.05 -27.6 34.2 -26.6 L34.75 -25.65 Q35.15 -24.4 35.15 -22.55 L35.0 -20.5 34.7 -19.45 34.4 -18.85 33.8 -18.5 32.9 -18.2 32.3 -20.2 31.15 -25.7 29.95 -28.15 M33.3 -17.2 L34.3 -17.2 Q35.7 -17.35 36.6 -16.5 37.2 -15.95 37.8 -14.45 L38.25 -12.75 38.45 -11.2 38.4 -10.95 38.3 -10.45 38.0 -9.45 37.05 -7.95 35.7 -6.7 34.55 -6.3 Q35.8 -8.9 35.8 -10.45 35.8 -13.35 34.45 -15.25 L33.3 -17.2 M33.9 -4.7 L34.35 -4.25 34.85 -3.2 35.15 -1.0 34.8 1.6 34.75 1.65 34.65 1.9 33.85 3.6 33.6 3.95 32.75 4.6 33.25 2.9 Q34.2 -0.1 33.8 -1.95 33.5 -3.25 33.9 -4.7" fill="#bdbdbd" fill-rule="evenodd" stroke="none"/>
    </g>
  </defs>
</svg>
