<?xml version="1.0" encoding="UTF-8" standalone="no"?>
<svg xmlns:xlink="http://www.w3.org/1999/xlink" height="531.5px" width="460.6px" xmlns="http://www.w3.org/2000/svg">
  <g transform="matrix(1.0, 0.0, 0.0, 1.0, 193.65, 334.05)">
    <use height="130.35" transform="matrix(1.0, 0.0, 0.0, 1.0, -55.5, -92.4)" width="143.75" xlink:href="#shape0"/>
  </g>
  <defs>
    <g id="shape0" transform="matrix(1.0, 0.0, 0.0, 1.0, 55.5, 92.4)">
      <path d="M-28.15 -59.45 Q-28.65 -60.6 -28.25 -61.6 L-27.85 -61.65 -25.5 -59.6 -25.15 -59.2 -20.2 -54.4 Q-11.8 -46.8 -4.95 -45.0 L0.0 -43.9 5.0 -43.15 Q13.15 -42.25 21.0 -43.6 L23.0 -48.4 23.8 -51.25 Q24.1 -52.2 25.4 -52.75 28.45 -54.2 33.0 -53.9 L40.3 -52.85 Q44.1 -52.25 46.7 -50.85 49.3 -49.45 49.5 -47.95 L50.0 -41.75 49.7 -40.35 48.8 -38.55 48.25 -37.5 57.25 -36.45 57.6 -36.4 59.0 -36.2 62.8 -35.1 Q66.85 -32.0 66.15 -27.35 L65.1 -21.7 64.8 -20.7 64.3 -19.6 63.05 -18.8 62.75 -18.7 63.3 -17.15 Q63.65 -15.65 63.65 -13.8 63.65 -7.4 62.0 -6.15 60.9 -5.35 57.45 -5.4 L51.0 -5.7 57.45 -2.95 57.65 -2.95 61.35 -1.6 Q61.95 -0.9 61.9 -0.25 L61.55 1.35 Q60.55 4.65 58.5 7.45 L57.6 8.8 Q56.45 11.35 52.9 10.45 51.35 10.05 48.6 8.65 L48.5 8.6 44.6 6.45 43.8 6.0 38.2 3.05 32.9 3.3 26.85 3.3 21.35 2.8 15.7 2.15 11.7 1.85 -6.0 -0.05 -9.6 -0.9 Q-22.25 -4.1 -30.0 -7.5 -40.75 -12.25 -46.5 -18.8 L-51.5 -23.7 -52.45 -24.6 Q-54.45 -26.9 -55.1 -28.45 -55.6 -29.4 -55.45 -30.05 L-55.25 -30.75 -55.15 -30.75 -54.65 -30.1 -51.85 -26.7 Q-44.0 -18.15 -32.95 -12.75 -19.55 -6.05 -9.7 -3.9 L-7.05 -3.3 -5.3 -2.85 Q3.45 -0.9 12.35 -0.25 L16.3 -0.05 22.0 0.25 32.9 0.8 33.95 0.7 34.3 0.75 34.9 0.65 Q39.55 0.3 41.25 1.4 L43.8 3.0 44.8 3.65 46.05 4.4 49.45 6.2 Q50.1 6.6 50.65 6.8 L50.75 6.85 53.05 7.95 54.4 8.0 Q56.9 5.45 58.55 2.3 L59.3 0.8 59.45 0.15 59.4 -0.15 57.6 -1.0 55.45 -1.9 53.15 -2.9 Q49.85 -4.3 46.3 -6.45 L46.3 -7.95 Q52.5 -7.2 57.45 -7.7 L58.05 -7.7 Q60.9 -7.75 61.1 -8.2 61.9 -9.7 62.1 -11.8 62.25 -13.95 61.65 -15.7 L61.6 -16.05 61.2 -16.55 60.6 -17.35 59.25 -18.3 59.0 -18.3 55.3 -18.2 47.45 -17.95 Q46.05 -17.95 46.25 -19.05 46.25 -19.6 47.2 -19.8 L55.05 -20.45 60.0 -20.7 60.05 -20.7 61.1 -20.75 62.3 -20.95 Q62.9 -21.35 63.7 -26.05 64.5 -30.8 61.1 -32.9 L58.85 -33.4 58.45 -33.45 57.9 -33.55 53.55 -34.15 47.0 -34.6 40.7 -34.9 37.8 -35.25 37.65 -35.25 36.7 -35.4 Q34.0 -36.1 33.1 -37.7 L33.45 -37.7 37.25 -37.75 43.55 -37.95 Q45.0 -38.1 46.05 -39.1 46.8 -39.85 47.35 -41.0 L47.8 -42.4 47.75 -42.8 47.25 -47.05 Q46.95 -48.55 43.55 -49.65 40.1 -50.75 33.6 -51.1 27.1 -51.45 26.55 -50.2 L26.3 -49.85 26.15 -49.35 25.9 -48.05 25.05 -45.6 24.5 -43.15 Q23.95 -41.8 23.0 -41.25 L19.7 -39.85 16.95 -39.45 Q13.6 -39.1 10.3 -39.3 L9.5 -39.35 5.25 -39.9 0.0 -40.6 Q-4.75 -41.45 -7.15 -42.6 L-15.65 -47.15 Q-20.25 -49.85 -21.95 -52.35 L-25.35 -55.65 -26.75 -57.4 -27.35 -58.05 -28.15 -59.45" fill="#000000" fill-rule="evenodd" stroke="none"/>
      <path d="M-28.15 -59.45 L-27.35 -58.05 -26.75 -57.4 -25.35 -55.65 -21.95 -52.35 Q-20.25 -49.85 -15.65 -47.15 L-7.15 -42.6 Q-4.75 -41.45 0.0 -40.6 L5.25 -39.9 0.0 -40.35 Q-7.2 -41.25 -10.15 -42.75 -13.8 -44.55 -18.05 -47.05 -22.35 -49.65 -23.95 -51.85 L-27.1 -54.95 -28.35 -56.6 -28.9 -57.3 -30.3 -58.65 -28.15 -59.45 M19.7 -39.85 L23.0 -41.25 Q23.95 -41.8 24.5 -43.15 L25.05 -45.6 25.9 -48.05 26.15 -49.35 26.3 -49.85 26.55 -50.2 Q27.1 -51.45 33.6 -51.1 40.1 -50.75 43.55 -49.65 46.95 -48.55 47.25 -47.05 L47.75 -42.8 47.8 -42.4 47.35 -41.0 Q46.8 -39.85 46.05 -39.1 45.85 -44.2 43.55 -46.1 41.3 -47.85 34.35 -47.85 30.85 -47.85 28.95 -46.45 28.25 -45.9 26.3 -43.35 24.1 -40.45 19.65 -39.4 L19.7 -39.85 M58.45 -33.45 L58.85 -33.4 61.1 -32.9 Q64.5 -30.8 63.7 -26.05 62.9 -21.35 62.3 -20.95 L61.1 -20.75 60.05 -20.7 60.05 -20.75 Q61.15 -21.85 61.15 -24.45 61.15 -28.45 60.1 -31.0 59.45 -32.6 58.45 -33.45 M59.0 -18.3 L59.25 -18.3 60.6 -17.35 61.2 -16.55 61.6 -16.05 61.65 -15.7 Q62.25 -13.95 62.1 -11.8 61.9 -9.7 61.1 -8.2 60.9 -7.75 58.05 -7.7 59.55 -9.85 59.55 -12.95 L59.25 -16.2 59.0 -18.3 M55.45 -1.9 L57.6 -1.0 59.4 -0.15 59.45 0.15 59.3 0.8 58.55 2.3 Q56.9 5.45 54.4 8.0 L53.05 7.95 50.75 6.85 52.45 5.2 Q55.75 1.8 55.75 -0.55 L55.45 -1.9 M34.9 0.65 L34.3 0.75 33.95 0.7 32.9 0.8 22.0 0.25 16.3 -0.05 12.35 -0.25 Q3.45 -0.9 -5.3 -2.85 L-7.05 -3.3 -9.7 -3.9 Q-19.55 -6.05 -32.95 -12.75 -44.0 -18.15 -51.85 -26.7 L-54.65 -30.1 -54.55 -30.9 -54.55 -31.35 -51.8 -28.25 Q-44.55 -20.3 -34.3 -15.2 -21.9 -9.0 -12.8 -6.9 L-10.2 -6.3 -4.1 -4.75 Q1.25 -3.4 6.75 -3.1 L34.9 0.65" fill="#bdbdbd" fill-rule="evenodd" stroke="none"/>
      <path d="M5.25 -39.9 L9.5 -39.35 10.3 -39.3 Q13.6 -39.1 16.95 -39.45 L19.7 -39.85 19.65 -39.4 Q24.1 -40.45 26.3 -43.35 28.25 -45.9 28.95 -46.45 30.85 -47.85 34.35 -47.85 41.3 -47.85 43.55 -46.1 45.85 -44.2 46.05 -39.1 45.0 -38.1 43.55 -37.95 L37.25 -37.75 33.45 -37.7 33.1 -37.7 Q34.0 -36.1 36.7 -35.4 L37.65 -35.25 37.8 -35.25 40.7 -34.9 47.0 -34.6 53.55 -34.15 57.9 -33.55 58.45 -33.45 Q59.45 -32.6 60.1 -31.0 61.15 -28.45 61.15 -24.45 61.15 -21.85 60.05 -20.75 L60.0 -20.7 55.05 -20.45 47.2 -19.8 Q46.25 -19.6 46.25 -19.05 46.05 -17.95 47.45 -17.95 L55.3 -18.2 59.0 -18.3 59.25 -16.2 59.55 -12.95 Q59.55 -9.85 58.05 -7.7 L57.45 -7.7 Q52.5 -7.2 46.3 -7.95 L46.3 -6.45 Q49.85 -4.3 53.15 -2.9 L55.45 -1.9 55.75 -0.55 Q55.75 1.8 52.45 5.2 L50.75 6.85 50.65 6.8 Q50.1 6.6 49.45 6.2 L46.05 4.4 44.8 3.65 43.8 3.0 41.25 1.4 Q39.55 0.3 34.9 0.65 L6.75 -3.1 Q1.25 -3.4 -4.1 -4.75 L-10.2 -6.3 -12.8 -6.9 Q-21.9 -9.0 -34.3 -15.2 -44.55 -20.3 -51.8 -28.25 L-54.55 -31.35 -54.25 -33.3 Q-53.1 -38.0 -49.95 -42.65 -47.0 -47.2 -43.15 -50.4 -39.6 -53.4 -35.6 -55.85 -32.7 -57.7 -30.3 -58.65 L-28.9 -57.3 -28.35 -56.6 -27.1 -54.95 -23.95 -51.85 Q-22.35 -49.65 -18.05 -47.05 -13.8 -44.55 -10.15 -42.75 -7.2 -41.25 0.0 -40.35 L5.25 -39.9" fill="#999999" fill-rule="evenodd" stroke="none"/>
      <path d="M70.25 -75.95 L68.25 -75.65 Q61.45 -75.5 63.6 -83.6 L63.9 -84.6 62.5 -84.5 Q58.1 -84.45 58.05 -86.85 L58.4 -88.35 Q58.65 -89.4 59.55 -90.2 L62.05 -91.6 Q68.25 -90.25 72.85 -82.45 L74.45 -79.65 Q72.45 -76.75 70.25 -75.95 M55.0 -86.8 L55.85 -86.25 Q56.75 -85.6 56.0 -85.05 55.35 -84.45 54.5 -84.55 53.65 -84.6 53.35 -84.25 53.05 -83.95 52.3 -84.9 51.6 -85.85 51.95 -86.4 L51.95 -86.45 Q52.3 -87.05 53.15 -87.1 L54.45 -87.05 55.0 -86.8 M86.75 -48.3 L87.5 -42.2 87.2 -41.75 86.5 -41.9 Q85.15 -42.25 84.45 -43.45 83.8 -44.6 84.15 -45.9 84.5 -47.25 85.65 -47.95 L86.75 -48.3 M72.35 -42.1 Q71.35 -42.35 70.85 -43.3 70.4 -44.15 70.65 -45.15 70.9 -46.1 71.75 -46.6 72.65 -47.1 73.65 -46.85 74.6 -46.6 75.1 -45.7 75.6 -44.8 75.35 -43.85 75.1 -42.85 74.2 -42.4 73.3 -41.85 72.35 -42.1" fill="#a64f00" fill-rule="evenodd" stroke="none"/>
      <path d="M58.05 -86.85 Q58.1 -84.45 62.5 -84.5 L63.9 -84.6 63.6 -83.6 Q61.45 -75.5 68.25 -75.65 L70.25 -75.95 73.95 -70.6 Q79.75 -61.85 86.65 -49.0 L86.75 -48.3 85.65 -47.95 Q84.5 -47.25 84.15 -45.9 83.8 -44.6 84.45 -43.45 85.15 -42.25 86.5 -41.9 L87.2 -41.75 Q85.25 -38.75 80.65 -36.5 76.2 -34.25 63.75 -28.4 51.35 -22.55 45.05 -20.35 38.8 -18.15 37.1 -12.2 35.35 -6.4 33.45 2.25 31.6 10.85 31.25 14.6 L31.15 14.55 Q28.85 13.85 26.5 12.8 18.05 9.05 18.7 6.15 L23.05 -25.75 Q24.5 -30.8 29.5 -34.25 L29.8 -34.4 Q34.85 -35.25 42.95 -38.7 L54.9 -43.75 59.2 -45.5 59.55 -44.85 60.5 -45.15 Q65.8 -47.4 66.0 -48.25 66.2 -48.85 65.6 -52.1 64.85 -56.1 63.55 -59.85 59.5 -70.9 52.6 -72.75 46.55 -74.4 40.1 -72.3 37.3 -71.5 26.0 -66.55 L25.25 -70.3 Q23.9 -75.1 22.05 -78.9 27.25 -80.6 34.65 -82.5 45.75 -85.45 51.95 -86.4 51.6 -85.85 52.3 -84.9 53.05 -83.95 53.35 -84.25 53.65 -84.6 54.5 -84.55 55.35 -84.45 56.0 -85.05 56.75 -85.6 55.85 -86.25 L55.0 -86.8 58.05 -86.85 M59.8 -44.35 L59.55 -44.85 59.8 -44.35 M72.35 -42.1 Q73.3 -41.85 74.2 -42.4 75.1 -42.85 75.35 -43.85 75.6 -44.8 75.1 -45.7 74.6 -46.6 73.65 -46.85 72.65 -47.1 71.75 -46.6 70.9 -46.1 70.65 -45.15 70.4 -44.15 70.85 -43.3 71.35 -42.35 72.35 -42.1" fill="url(#gradient0)" fill-rule="evenodd" stroke="none"/>
      <path d="M70.25 -75.95 Q72.45 -76.75 74.45 -79.65 L79.65 -70.25 Q84.7 -60.35 86.65 -49.0 79.75 -61.85 73.95 -70.6 L70.25 -75.95 M62.05 -91.6 L59.55 -90.2 Q58.65 -89.4 58.4 -88.35 L58.05 -86.85 55.0 -86.8 54.45 -87.05 53.15 -87.1 Q52.3 -87.05 51.95 -86.45 L51.95 -86.4 Q45.75 -85.45 34.65 -82.5 27.25 -80.6 22.05 -78.9 23.9 -75.1 25.25 -70.3 L26.0 -66.55 25.25 -66.25 24.9 -67.55 23.35 -72.15 21.2 -76.15 20.7 -76.9 19.65 -78.05 Q18.4 -79.45 17.25 -79.7 L16.2 -79.55 57.5 -91.75 62.05 -91.6 M29.8 -34.4 L55.85 -47.7 Q57.05 -48.85 56.7 -50.5 L59.2 -45.5 54.9 -43.75 42.95 -38.7 Q34.85 -35.25 29.8 -34.4" fill="#ff6d4f" fill-rule="evenodd" stroke="none"/>
      <path d="M26.0 -66.55 Q37.3 -71.5 40.1 -72.3 46.55 -74.4 52.6 -72.75 59.5 -70.9 63.55 -59.85 64.85 -56.1 65.6 -52.1 66.2 -48.85 66.0 -48.25 65.8 -47.4 60.5 -45.15 L59.55 -44.85 59.2 -45.5 56.7 -50.5 56.65 -50.65 53.95 -56.0 Q52.4 -58.4 49.75 -58.9 L23.9 -51.7 Q25.65 -52.9 26.05 -57.1 26.4 -61.2 25.25 -66.25 L26.0 -66.55" fill="url(#gradient1)" fill-rule="evenodd" stroke="none"/>
      <path d="M23.9 -51.7 L23.65 -51.55 23.45 -51.5 Q21.25 -50.7 18.65 -54.3 16.1 -57.7 14.45 -63.5 13.0 -69.3 13.35 -74.05 L13.55 -75.6 Q13.9 -78.0 14.65 -78.6 L16.2 -79.55 17.25 -79.7 Q18.4 -79.45 19.65 -78.05 L20.7 -76.9 21.2 -76.15 23.35 -72.15 24.9 -67.55 25.25 -66.25 Q26.4 -61.2 26.05 -57.1 25.65 -52.9 23.9 -51.7" fill="url(#gradient2)" fill-rule="evenodd" stroke="none"/>
      <path d="M87.5 -42.2 L87.55 -41.75 87.75 -36.65 Q87.5 -32.85 82.05 -29.3 L55.8 -14.45 Q54.1 -12.7 53.65 -10.6 L51.9 10.75 Q51.1 14.9 43.05 15.75 40.0 16.05 36.9 15.7 34.1 15.45 31.25 14.6 31.6 10.85 33.45 2.25 35.35 -6.4 37.1 -12.2 38.8 -18.15 45.05 -20.35 51.35 -22.55 63.75 -28.4 76.2 -34.25 80.65 -36.5 85.25 -38.75 87.2 -41.75 L87.5 -42.2 M87.55 -41.75 L87.2 -41.75 87.55 -41.75" fill="url(#gradient3)" fill-rule="evenodd" stroke="none"/>
      <path d="M36.9 15.7 Q35.8 19.05 35.2 22.65 34.6 25.7 34.4 29.05 L34.5 29.55 34.6 34.25 Q34.85 36.35 33.95 36.75 28.9 38.5 28.4 35.9 27.9 32.7 28.0 29.5 28.05 25.55 29.05 21.5 29.8 18.05 31.15 14.55 L31.25 14.6 Q34.1 15.45 36.9 15.7 M34.5 29.55 Q30.75 28.25 28.0 29.5 30.75 28.25 34.5 29.55 M35.2 22.65 Q32.5 21.4 30.7 21.3 L29.05 21.5 30.7 21.3 Q32.5 21.4 35.2 22.65" fill="#ffea9c" fill-rule="evenodd" stroke="none"/>
      <path d="M58.05 -86.85 Q58.1 -84.45 62.5 -84.5 L63.9 -84.6 63.6 -83.6 Q61.45 -75.5 68.25 -75.65 L70.25 -75.95 Q72.45 -76.75 74.45 -79.65 M62.05 -91.6 L59.55 -90.2 Q58.65 -89.4 58.4 -88.35 L58.05 -86.85 M55.0 -86.8 L55.85 -86.25 Q56.75 -85.6 56.0 -85.05 55.35 -84.45 54.5 -84.55 53.65 -84.6 53.35 -84.25 53.05 -83.95 52.3 -84.9 51.6 -85.85 51.95 -86.4 L51.95 -86.45 Q52.3 -87.05 53.15 -87.1 L54.45 -87.05 55.0 -86.8 M29.05 21.5 L30.7 21.3 Q32.5 21.4 35.2 22.65 M28.0 29.5 Q30.75 28.25 34.5 29.55" fill="none" stroke="#000000" stroke-linecap="round" stroke-linejoin="round" stroke-opacity="0.2" stroke-width="1.0"/>
      <path d="M74.45 -79.65 L72.85 -82.45 Q68.25 -90.25 62.05 -91.6 L57.5 -91.75 16.2 -79.55 14.65 -78.6 Q13.9 -78.0 13.55 -75.6 L13.35 -74.05 Q13.0 -69.3 14.45 -63.5 16.1 -57.7 18.65 -54.3 21.25 -50.7 23.45 -51.5 L23.65 -51.55 23.9 -51.7 49.75 -58.9 Q52.4 -58.4 53.95 -56.0 L56.65 -50.65 56.7 -50.5 59.2 -45.5 59.55 -44.85 59.8 -44.35 M74.45 -79.65 L79.65 -70.25 Q84.7 -60.35 86.65 -49.0 L86.75 -48.3 87.5 -42.2 87.55 -41.75 87.75 -36.65 Q87.5 -32.85 82.05 -29.3 L55.8 -14.45 Q54.1 -12.7 53.65 -10.6 L51.9 10.75 Q51.1 14.9 43.05 15.75 40.0 16.05 36.9 15.7 35.8 19.05 35.2 22.65 34.6 25.7 34.4 29.05 L34.5 29.55 34.6 34.25 Q34.85 36.35 33.95 36.75 28.9 38.5 28.4 35.9 27.9 32.7 28.0 29.5 28.05 25.55 29.05 21.5 29.8 18.05 31.15 14.55 28.85 13.85 26.5 12.8 18.05 9.05 18.7 6.15 L23.05 -25.75 Q24.5 -30.8 29.5 -34.25 L29.8 -34.4 55.85 -47.7 Q57.05 -48.85 56.7 -50.5 M31.25 14.6 Q34.1 15.45 36.9 15.7 M31.15 14.55 L31.25 14.6" fill="none" stroke="#000000" stroke-linecap="round" stroke-linejoin="round" stroke-opacity="0.5019608" stroke-width="1.0"/>
      <path d="M16.2 -79.55 L17.25 -79.7 Q18.4 -79.45 19.65 -78.05 L20.7 -76.9 21.2 -76.15 M23.35 -72.15 L24.9 -67.55 25.25 -66.25 Q26.4 -61.2 26.05 -57.1 25.65 -52.9 23.9 -51.7 M72.35 -42.1 Q71.35 -42.35 70.85 -43.3 70.4 -44.15 70.65 -45.15 70.9 -46.1 71.75 -46.6 72.65 -47.1 73.65 -46.85 74.6 -46.6 75.1 -45.7 75.6 -44.8 75.35 -43.85 75.1 -42.85 74.2 -42.4 73.3 -41.85 72.35 -42.1 M87.2 -41.75 L86.5 -41.9 Q85.15 -42.25 84.45 -43.45 83.8 -44.6 84.15 -45.9 84.5 -47.25 85.65 -47.95 L86.75 -48.3 M87.2 -41.75 L87.55 -41.75" fill="none" stroke="#000000" stroke-linecap="round" stroke-linejoin="round" stroke-opacity="0.2509804" stroke-width="1.0"/>
      <path d="M26.3 -69.2 Q28.75 -60.25 27.2 -54.25" fill="none" stroke="#000000" stroke-linecap="round" stroke-linejoin="round" stroke-opacity="0.2509804" stroke-width="1.0"/>
      <path d="M17.45 -76.75 Q18.9 -75.7 19.85 -73.7" fill="none" stroke="#000000" stroke-linecap="round" stroke-linejoin="round" stroke-opacity="0.2" stroke-width="1.0"/>
      <path d="M21.65 -69.45 Q23.7 -63.55 22.95 -57.65" fill="none" stroke="#000000" stroke-linecap="round" stroke-linejoin="round" stroke-opacity="0.2" stroke-width="1.0"/>
      <path d="M52.8 -14.4 Q50.8 -12.8 50.5 -10.15" fill="none" stroke="#000000" stroke-linecap="round" stroke-linejoin="round" stroke-opacity="0.5019608" stroke-width="1.0"/>
      <path d="M32.35 -37.7 L31.35 -37.7 30.7 -37.7 30.6 -37.7 30.3 -37.7 Q31.35 -36.1 34.5 -35.4 L35.6 -35.25 35.8 -35.25 39.15 -34.9 46.5 -34.6 49.9 -34.5 53.55 -34.15 57.9 -33.55 58.45 -33.45 Q59.45 -32.6 60.1 -31.0 61.15 -28.45 61.15 -24.45 61.15 -21.85 60.05 -20.75 L60.0 -20.7 55.05 -20.45 47.2 -19.8 Q46.25 -19.6 46.25 -19.05 46.05 -17.95 47.45 -17.95 L55.3 -18.2 59.0 -18.3 59.25 -16.2 59.55 -12.95 Q59.55 -9.85 58.05 -7.7 L57.45 -7.7 Q52.5 -7.2 46.3 -7.95 L46.3 -6.45 Q49.85 -4.3 53.15 -2.9 L55.45 -1.9 55.75 -0.55 Q55.75 1.8 52.45 5.2 L50.75 6.85 50.65 6.8 Q50.1 6.6 49.45 6.2 L46.05 4.4 44.8 3.65 43.8 3.0 41.25 1.4 Q39.55 0.3 34.9 0.65 L6.75 -3.1 Q1.25 -3.4 -4.1 -4.75 L-10.2 -6.3 -12.8 -6.9 Q-21.9 -9.0 -34.3 -15.2 -44.55 -20.3 -51.8 -28.25 L-54.55 -31.35 -54.25 -33.3 Q-53.1 -38.0 -49.95 -42.65 -47.0 -47.2 -43.15 -50.4 -39.6 -53.4 -35.6 -55.85 -32.7 -57.7 -30.3 -58.65 L-28.9 -57.3 -28.35 -56.6 -27.1 -54.95 -23.95 -51.85 Q-22.35 -49.65 -18.05 -47.05 -13.8 -44.55 -10.15 -42.75 -7.2 -41.25 0.0 -40.35 L5.25 -39.9 9.5 -39.35 10.3 -39.3 Q13.6 -39.1 16.95 -39.45 L19.7 -39.85 19.65 -39.4 Q22.35 -40.05 24.25 -41.35 L24.7 -40.55 Q25.1 -39.8 27.85 -38.8 L30.2 -38.0 31.35 -37.75 32.35 -37.7 M33.35 -37.7 L33.1 -37.7 32.65 -37.7 33.35 -37.7" fill="#999999" fill-rule="evenodd" stroke="none"/>
      <path d="M32.35 -37.7 L32.65 -37.7 33.1 -37.7 33.35 -37.7 35.15 -37.75 37.3 -37.75 43.3 -37.45 48.1 -37.65 48.0 -37.5 49.9 -37.4 57.25 -36.45 57.6 -36.4 59.0 -36.2 62.8 -35.1 Q66.85 -32.0 66.15 -27.35 L65.1 -21.7 64.8 -20.7 64.3 -19.6 63.05 -18.8 62.75 -18.7 63.3 -17.15 Q63.65 -15.65 63.65 -13.8 63.65 -7.4 62.0 -6.15 60.9 -5.35 57.45 -5.4 L51.0 -5.7 57.45 -2.95 57.65 -2.95 61.35 -1.6 Q61.95 -0.9 61.9 -0.25 L61.55 1.35 Q60.55 4.65 58.5 7.45 L57.6 8.8 Q56.45 11.35 52.9 10.45 51.35 10.05 48.6 8.65 L48.5 8.6 44.6 6.45 43.8 6.0 38.2 3.05 32.9 3.3 26.85 3.3 21.35 2.8 15.7 2.15 11.7 1.85 -6.0 -0.05 -9.6 -0.9 Q-22.25 -4.1 -30.0 -7.5 -40.75 -12.25 -46.5 -18.8 L-51.5 -23.7 -52.45 -24.6 Q-54.45 -26.9 -55.1 -28.45 -55.6 -29.4 -55.45 -30.05 L-55.25 -30.75 -55.15 -30.75 -54.65 -30.1 -51.85 -26.7 Q-44.0 -18.15 -32.95 -12.75 -19.55 -6.05 -9.7 -3.9 L-7.05 -3.3 -5.3 -2.85 Q3.45 -0.9 12.35 -0.25 L16.3 -0.05 22.0 0.25 32.9 0.8 33.95 0.7 34.3 0.75 34.9 0.65 Q39.55 0.3 41.25 1.4 L43.8 3.0 44.8 3.65 46.05 4.4 49.45 6.2 Q50.1 6.6 50.65 6.8 L50.75 6.85 53.05 7.95 54.4 8.0 Q56.9 5.45 58.55 2.3 L59.3 0.8 59.45 0.15 59.4 -0.15 57.6 -1.0 55.45 -1.9 53.15 -2.9 Q49.85 -4.3 46.3 -6.45 L46.3 -7.95 Q52.5 -7.2 57.45 -7.7 L58.05 -7.7 Q60.9 -7.75 61.1 -8.2 61.9 -9.7 62.1 -11.8 62.25 -13.95 61.65 -15.7 L61.6 -16.05 61.2 -16.55 60.6 -17.35 59.25 -18.3 59.0 -18.3 55.3 -18.2 47.45 -17.95 Q46.05 -17.95 46.25 -19.05 46.25 -19.6 47.2 -19.8 L55.05 -20.45 60.0 -20.7 60.05 -20.7 61.1 -20.75 62.3 -20.95 Q62.9 -21.35 63.7 -26.05 64.5 -30.8 61.1 -32.9 L58.85 -33.4 58.45 -33.45 57.9 -33.55 53.55 -34.15 49.9 -34.5 46.5 -34.6 39.15 -34.9 35.8 -35.25 35.6 -35.25 34.5 -35.4 Q31.35 -36.1 30.3 -37.7 L30.6 -37.7 30.7 -37.7 31.35 -37.7 32.35 -37.7 M-28.15 -59.45 Q-28.65 -60.6 -28.25 -61.6 L-27.85 -61.65 -25.5 -59.6 -25.15 -59.2 -20.2 -54.4 Q-11.8 -46.8 -4.95 -45.0 L0.0 -43.9 5.0 -43.15 Q13.15 -42.25 21.0 -43.6 L21.2 -44.0 23.6 -42.8 23.85 -42.7 24.2 -42.55 23.9 -42.05 23.0 -41.25 19.7 -39.85 16.95 -39.45 Q13.6 -39.1 10.3 -39.3 L9.5 -39.35 5.25 -39.9 0.0 -40.6 Q-4.75 -41.45 -7.15 -42.6 L-15.65 -47.15 Q-20.25 -49.85 -21.95 -52.35 L-25.35 -55.65 -26.75 -57.4 -27.35 -58.05 -28.15 -59.45" fill="#000000" fill-rule="evenodd" stroke="none"/>
      <path d="M58.45 -33.45 L58.85 -33.4 61.1 -32.9 Q64.5 -30.8 63.7 -26.05 62.9 -21.35 62.3 -20.95 L61.1 -20.75 60.05 -20.7 60.05 -20.75 Q61.15 -21.85 61.15 -24.45 61.15 -28.45 60.1 -31.0 59.45 -32.6 58.45 -33.45 M59.0 -18.3 L59.25 -18.3 60.6 -17.35 61.2 -16.55 61.6 -16.05 61.65 -15.7 Q62.25 -13.95 62.1 -11.8 61.9 -9.7 61.1 -8.2 60.9 -7.75 58.05 -7.7 59.55 -9.85 59.55 -12.95 L59.25 -16.2 59.0 -18.3 M55.45 -1.9 L57.6 -1.0 59.4 -0.15 59.45 0.15 59.3 0.8 58.55 2.3 Q56.9 5.45 54.4 8.0 L53.05 7.95 50.75 6.85 52.45 5.2 Q55.75 1.8 55.75 -0.55 L55.45 -1.9 M34.9 0.65 L34.3 0.75 33.95 0.7 32.9 0.8 22.0 0.25 16.3 -0.05 12.35 -0.25 Q3.45 -0.9 -5.3 -2.85 L-7.05 -3.3 -9.7 -3.9 Q-19.55 -6.05 -32.95 -12.75 -44.0 -18.15 -51.85 -26.7 L-54.65 -30.1 -54.55 -30.9 -54.55 -31.35 -51.8 -28.25 Q-44.55 -20.3 -34.3 -15.2 -21.9 -9.0 -12.8 -6.9 L-10.2 -6.3 -4.1 -4.75 Q1.25 -3.4 6.75 -3.1 L34.9 0.65 M-28.15 -59.45 L-27.35 -58.05 -26.75 -57.4 -25.35 -55.65 -21.95 -52.35 Q-20.25 -49.85 -15.65 -47.15 L-7.15 -42.6 Q-4.75 -41.45 0.0 -40.6 L5.25 -39.9 0.0 -40.35 Q-7.2 -41.25 -10.15 -42.75 -13.8 -44.55 -18.05 -47.05 -22.35 -49.65 -23.95 -51.85 L-27.1 -54.95 -28.35 -56.6 -28.9 -57.3 -30.3 -58.65 -28.15 -59.45 M19.7 -39.85 L23.0 -41.25 23.9 -42.05 24.2 -42.55 25.2 -42.1 24.25 -41.35 Q22.35 -40.05 19.65 -39.4 L19.7 -39.85" fill="#bdbdbd" fill-rule="evenodd" stroke="none"/>
    </g>
    <linearGradient gradientTransform="matrix(-0.0517, 0.0516, -0.0452, -0.0453, 39.65, -27.6)" gradientUnits="userSpaceOnUse" id="gradient0" spreadMethod="pad" x1="-819.2" x2="819.2">
      <stop offset="0.0" stop-color="#ff0000"/>
      <stop offset="1.0" stop-color="#d20202"/>
    </linearGradient>
    <linearGradient gradientTransform="matrix(0.0104, -0.018, 0.0147, 0.0085, 46.35, -60.05)" gradientUnits="userSpaceOnUse" id="gradient1" spreadMethod="pad" x1="-819.2" x2="819.2">
      <stop offset="0.0" stop-color="#ff0000"/>
      <stop offset="1.0" stop-color="#980101"/>
    </linearGradient>
    <linearGradient gradientTransform="matrix(-0.0074, 0.0043, -0.0079, -0.0138, 22.65, -65.8)" gradientUnits="userSpaceOnUse" id="gradient2" spreadMethod="pad" x1="-819.2" x2="819.2">
      <stop offset="0.0" stop-color="#f50000"/>
      <stop offset="1.0" stop-color="#850000"/>
    </linearGradient>
    <linearGradient gradientTransform="matrix(-0.024, -0.0139, 0.0212, -0.0367, 54.2, -14.85)" gradientUnits="userSpaceOnUse" id="gradient3" spreadMethod="pad" x1="-819.2" x2="819.2">
      <stop offset="0.0" stop-color="#ff0000"/>
      <stop offset="1.0" stop-color="#7e0101"/>
    </linearGradient>
  </defs>
</svg>
