<?xml version="1.0" encoding="UTF-8" standalone="no"?>
<svg xmlns:xlink="http://www.w3.org/1999/xlink" height="531.5px" width="460.6px" xmlns="http://www.w3.org/2000/svg">
  <g transform="matrix(1.0, 0.0, 0.0, 1.0, 193.65, 334.05)">
    <use height="76.1" transform="matrix(0.2886, 0.0, 0.0, 0.2886, -47.7281, -0.082)" width="88.25" xlink:href="#shape0"/>
    <use height="76.1" transform="matrix(0.2886, 0.0, 0.0, 0.2886, -28.8781, 3.268)" width="88.25" xlink:href="#shape0"/>
    <use height="76.1" transform="matrix(0.4099, 0.0, 0.0, 0.4099, -40.0278, 4.7023)" width="88.25" xlink:href="#shape0"/>
    <use height="97.55" transform="matrix(1.0, 0.0, 0.0, 1.0, -73.6, -56.7)" width="60.2" xlink:href="#shape1"/>
  </g>
  <defs>
    <g id="shape0" transform="matrix(1.0, 0.0, 0.0, 1.0, 44.1, 38.05)">
      <path d="M-5.0 -34.2 L0.75 -30.2 1.4 -37.7 14.4 -6.3 22.15 0.95 25.25 8.8 37.55 13.55 41.9 24.65 43.8 26.2 39.65 35.95 33.9 35.95 Q19.45 32.15 4.25 29.3 L1.75 27.35 -11.35 31.25 -27.35 37.7 -39.1 36.95 -39.55 36.2 -41.6 29.45 -40.35 21.7 -35.2 19.7 -25.7 11.1 -23.7 4.1 -14.85 -1.7 -21.0 -0.5 -19.6 -0.8 -3.7 -16.4 -7.2 -17.3 -5.25 -33.35 -5.0 -34.2 M5.0 26.2 L1.75 27.35 5.0 26.2 M6.65 -7.7 Q5.6 -10.1 4.3 -11.5 L3.25 -12.45 -0.35 -11.55 Q-5.45 -5.9 -10.05 4.2 L4.4 -3.45 6.65 -7.7 9.15 -6.8 12.05 -1.55 9.15 -6.8 6.65 -7.7 M2.35 -21.95 L0.75 -30.2 2.35 -21.95 M2.95 -18.6 L4.3 -11.5 2.95 -18.6 M39.05 22.3 L41.9 24.65 39.05 22.3 M17.9 5.95 L25.25 8.8 17.9 5.95 M14.65 11.45 L7.75 15.55 -4.0 14.8 7.75 15.55 14.65 11.45 M16.65 8.05 L13.0 0.2 16.65 8.05 M36.9 28.3 L31.15 19.05 20.3 21.05 31.15 19.05 36.9 28.3 M-10.75 5.8 L-10.05 4.2 -10.75 5.8 M-37.35 25.3 Q-25.95 27.05 -15.0 27.7 L1.0 16.45 -15.0 27.7 Q-25.95 27.05 -37.35 25.3 M-16.35 3.05 L-21.85 5.7 -16.35 3.05" fill="url(#gradient0)" fill-rule="evenodd" stroke="none"/>
      <path d="M1.4 -37.7 L0.75 -30.2 -5.0 -34.2 1.4 -37.7 M-5.25 -33.35 L-7.2 -17.3 -3.7 -16.4 -19.6 -0.8 -12.75 -13.7 -11.3 -14.2 -5.25 -33.35 M-21.0 -0.5 L-14.85 -1.7 -23.7 4.1 -25.7 11.1 -35.2 19.7 -40.35 21.7 -41.6 29.45 -39.55 36.2 -43.75 29.45 -42.1 15.7 -28.5 8.95 -26.0 0.55 -21.0 -0.5 M-10.05 4.2 Q-5.45 -5.9 -0.35 -11.55 L3.25 -12.45 4.3 -11.5 Q5.6 -10.1 6.65 -7.7 L4.4 -3.45 -10.05 4.2 M-9.85 -14.7 L-11.3 -14.2 -9.85 -14.7" fill="#f2ffff" fill-rule="evenodd" stroke="none"/>
      <path d="M-5.0 -34.2 L0.75 -30.2 1.4 -37.7 -5.0 -34.2 -5.25 -33.35 -11.3 -14.2 -9.85 -14.7 M-19.6 -0.8 L-21.0 -0.5 -14.85 -1.7 M-39.55 36.2 L-39.1 36.95 -27.35 37.7 -11.35 31.25 1.75 27.35 5.0 26.2 M6.65 -7.7 Q5.6 -10.1 4.3 -11.5 L3.25 -12.45 -0.35 -11.55 Q-5.45 -5.9 -10.05 4.2 L-10.75 5.8 M6.65 -7.7 L9.15 -6.8 12.05 -1.55 M4.3 -11.5 L2.95 -18.6 M0.75 -30.2 L2.35 -21.95 M1.4 -37.7 L14.4 -6.3 22.15 0.95 25.25 8.8 37.55 13.55 41.9 24.65 43.8 26.2 39.65 35.95 33.9 35.95 Q19.45 32.15 4.25 29.3 L1.75 27.35 M20.3 21.05 L31.15 19.05 36.9 28.3 M13.0 0.2 L16.65 8.05 M-4.0 14.8 L7.75 15.55 14.65 11.45 M25.25 8.8 L17.9 5.95 M41.9 24.65 L39.05 22.3 M-19.6 -0.8 L-12.75 -13.7 -11.3 -14.2 M-39.55 36.2 L-43.75 29.45 -42.1 15.7 -28.5 8.95 -26.0 0.55 -21.0 -0.5 M-21.85 5.7 L-16.35 3.05 M1.0 16.45 L-15.0 27.7 Q-25.95 27.05 -37.35 25.3" fill="none" stroke="#000000" stroke-linecap="round" stroke-linejoin="round" stroke-opacity="0.2" stroke-width="0.7000000000000001"/>
    </g>
    <linearGradient gradientTransform="matrix(0.0123, 0.0213, -0.0399, 0.023, 11.35, 10.9)" gradientUnits="userSpaceOnUse" id="gradient0" spreadMethod="pad" x1="-819.2" x2="819.2">
      <stop offset="0.0" stop-color="#b7ffff"/>
      <stop offset="1.0" stop-color="#9dbcbc"/>
      <stop offset="1.0" stop-color="#ffffff"/>
    </linearGradient>
    <g id="shape1" transform="matrix(1.0, 0.0, 0.0, 1.0, 73.6, 56.7)">
      <path d="M-59.5 33.45 L-60.65 31.4 -61.95 27.95 Q-62.85 24.7 -64.15 17.1 L-66.25 3.75 Q-67.1 -2.05 -66.85 -6.5 L-66.3 -13.45 Q-66.15 -16.0 -65.45 -18.45 -64.0 -24.5 -61.9 -31.0 -59.85 -37.6 -56.25 -46.8 L-54.15 -51.95 -52.6 -55.95 -52.55 -56.05 Q-28.45 -56.35 -16.55 -41.85 L-22.45 -26.6 -25.5 -17.55 -26.05 -14.95 Q-26.8 -11.55 -26.8 -10.2 L-26.4 -6.15 Q-26.05 -3.6 -25.4 -2.1 L-25.2 -1.55 -23.45 -1.5 -22.0 -1.45 -21.3 -0.7 -20.6 1.2 -20.6 1.4 -19.8 4.15 -19.75 4.45 -19.35 6.1 -19.4 6.45 -19.6 6.75 -20.1 7.05 -20.1 7.1 Q-22.5 7.4 -24.85 8.95 L-25.35 9.35 Q-27.1 10.7 -27.25 11.9 L-28.1 17.8 -28.05 20.9 Q-28.05 22.25 -28.4 23.15 L-28.6 23.65 -30.25 26.35 -30.6 27.0 Q-31.05 27.9 -31.05 29.55 L-31.1 31.6 -31.0 34.3 -30.7 36.5 -30.65 37.15 -30.65 37.2 -30.9 37.85 -33.55 38.4 Q-35.8 38.35 -38.9 36.4 L-41.4 34.05 -41.7 34.3 -41.85 35.35 -41.8 35.65 -41.85 35.65 -42.05 35.85 -42.1 35.9 -42.1 35.95 -42.25 36.65 -43.05 37.15 Q-44.7 38.4 -47.5 38.5 -50.35 38.55 -53.1 34.5 -55.9 30.45 -56.15 30.8 L-56.5 31.6 Q-56.5 32.6 -55.6 34.05 L-55.1 34.8 -55.4 34.75 Q-57.9 34.4 -59.5 33.45" fill="#999999" fill-rule="evenodd" stroke="none"/>
      <path d="M-52.55 -56.05 L-52.6 -55.95 -54.15 -51.95 -56.25 -46.8 Q-59.85 -37.6 -61.9 -31.0 -64.0 -24.5 -65.45 -18.45 -66.15 -16.0 -66.3 -13.45 L-66.85 -6.5 Q-67.1 -2.05 -66.25 3.75 L-64.15 17.1 Q-62.85 24.7 -61.95 27.95 L-60.65 31.4 -59.5 33.45 -61.0 32.05 -61.2 31.8 Q-62.85 29.55 -63.85 26.7 -64.95 23.6 -66.5 16.35 L-69.0 3.55 Q-70.0 -2.0 -69.75 -6.25 L-69.3 -12.9 Q-69.1 -15.3 -68.4 -17.65 -66.85 -23.45 -64.6 -29.65 -62.4 -35.95 -58.5 -44.75 L-55.45 -51.55 -54.05 -54.75 Q-53.55 -56.0 -53.85 -55.5 L-53.85 -55.55 -53.85 -56.0 -53.65 -56.0 -52.55 -56.05 M-42.25 36.65 L-42.1 35.95 -42.1 35.9 -42.05 35.85 -41.85 35.65 -41.8 35.65 -41.65 36.25 -41.6 36.3 -41.7 36.35 -42.25 36.65 M-30.9 37.85 L-30.65 37.2 -30.65 37.15 -30.7 36.5 -31.0 34.3 -31.1 31.6 -31.05 29.55 Q-31.05 27.9 -30.6 27.0 L-30.25 26.35 -28.6 23.65 -28.4 23.15 Q-28.05 22.25 -28.05 20.9 L-28.1 17.8 -27.25 11.9 Q-27.1 10.7 -25.35 9.35 L-24.85 8.95 Q-22.5 7.4 -20.1 7.1 L-20.1 7.05 -19.6 6.75 -19.4 6.45 -19.35 6.1 -19.75 4.45 -19.8 4.15 -20.6 1.4 -20.6 1.2 -21.3 -0.7 -22.0 -1.45 -20.25 -1.5 Q-19.55 -1.5 -19.05 -0.7 L-18.25 1.15 -18.2 1.3 -17.35 3.95 -17.2 4.25 -16.8 5.8 Q-16.8 6.25 -17.05 6.45 L-17.65 6.7 -17.65 6.75 -18.3 6.85 Q-20.6 7.25 -22.85 8.55 L-24.5 9.75 Q-25.4 10.55 -25.5 11.35 L-26.35 17.0 -26.3 19.95 Q-26.25 21.7 -26.85 22.6 L-27.5 23.55 -29.05 25.8 -29.4 26.75 -29.55 28.25 -29.55 30.2 -29.45 32.75 -28.95 35.5 -28.95 35.55 Q-29.05 36.0 -29.8 36.9 L-30.15 37.3 -30.9 37.85 M-23.45 -1.5 L-25.2 -1.55 -25.4 -2.1 Q-26.05 -3.6 -26.4 -6.15 L-26.8 -10.2 Q-26.8 -11.55 -26.05 -14.95 L-25.5 -17.55 -22.45 -26.6 -16.55 -41.85 -14.55 -39.25 -20.65 -25.45 Q-22.8 -20.45 -23.95 -16.8 L-24.55 -14.3 Q-25.3 -11.05 -25.3 -9.75 L-24.8 -5.9 Q-24.35 -3.45 -23.65 -2.05 L-23.45 -1.5" fill="#bdbdbd" fill-rule="evenodd" stroke="none"/>
      <path d="M-59.5 33.45 Q-57.9 34.4 -55.4 34.75 L-55.1 34.8 -55.6 34.05 Q-56.5 32.6 -56.5 31.6 L-56.15 30.8 Q-55.9 30.45 -53.1 34.5 -50.35 38.55 -47.5 38.5 -44.7 38.4 -43.05 37.15 L-42.25 36.65 -41.7 36.35 -41.6 36.3 -41.65 36.25 -41.8 35.65 -41.85 35.35 -41.7 34.3 -41.4 34.05 -38.9 36.4 Q-35.8 38.35 -33.55 38.4 L-30.9 37.85 -30.15 37.3 -29.8 36.9 Q-29.05 36.0 -28.95 35.55 L-28.95 35.5 -29.45 32.75 -29.55 30.2 -29.55 28.25 -29.4 26.75 -29.05 25.8 -27.5 23.55 -26.85 22.6 Q-26.25 21.7 -26.3 19.95 L-26.35 17.0 -25.5 11.35 Q-25.4 10.55 -24.5 9.75 L-22.85 8.55 Q-20.6 7.25 -18.3 6.85 L-17.65 6.75 -17.65 6.7 -17.05 6.45 Q-16.8 6.25 -16.8 5.8 L-17.2 4.25 -17.35 3.95 -18.2 1.3 -18.25 1.15 -19.05 -0.7 Q-19.55 -1.5 -20.25 -1.5 L-22.0 -1.45 -23.45 -1.5 -23.65 -2.05 Q-24.35 -3.45 -24.8 -5.9 L-25.3 -9.75 Q-25.3 -11.05 -24.55 -14.3 L-23.95 -16.8 Q-22.8 -20.45 -20.65 -25.45 L-14.55 -39.25 -14.4 -39.65 -13.85 -39.3 -13.7 -39.15 Q-13.4 -38.75 -13.4 -37.9 -16.05 -32.9 -18.65 -26.8 -23.9 -14.7 -23.9 -8.8 L-23.4 -4.9 -22.95 -3.1 -22.85 -2.85 -20.55 -3.15 -18.2 -2.85 -17.4 -1.45 Q-16.05 1.2 -15.5 4.2 L-15.35 4.85 Q-15.0 6.55 -15.0 7.15 -15.0 8.05 -15.6 8.3 L-17.95 8.8 Q-19.7 9.05 -21.45 10.0 -23.25 10.9 -23.7 12.65 -24.25 14.35 -24.45 16.95 L-24.7 21.4 Q-24.75 23.3 -25.95 24.9 -27.2 26.5 -27.55 27.8 L-27.25 30.9 Q-27.25 32.2 -26.6 34.1 L-26.2 35.3 -26.3 36.25 -26.7 37.0 -26.75 37.15 -26.85 37.2 Q-27.4 38.1 -28.8 39.2 -31.0 40.85 -32.7 40.85 -36.65 40.85 -39.55 38.6 L-39.9 38.3 -41.5 39.15 Q-44.45 40.65 -46.15 40.65 L-46.45 40.65 Q-48.0 40.6 -49.45 39.95 -51.7 39.0 -53.7 36.65 L-53.7 36.6 -53.9 36.7 -54.35 36.8 -55.4 36.85 Q-62.8 36.85 -65.9 26.35 L-67.35 21.05 -68.6 15.4 -70.3 4.9 Q-71.6 -2.55 -71.6 -6.2 -71.6 -9.9 -70.25 -15.7 -68.9 -21.55 -61.4 -41.25 -54.55 -59.4 -53.9 -56.2 L-53.85 -56.0 -53.85 -55.55 -53.85 -55.5 Q-53.55 -56.0 -54.05 -54.75 L-55.45 -51.55 -58.5 -44.75 Q-62.4 -35.95 -64.6 -29.65 -66.85 -23.45 -68.4 -17.65 -69.1 -15.3 -69.3 -12.9 L-69.75 -6.25 Q-70.0 -2.0 -69.0 3.55 L-66.5 16.35 Q-64.95 23.6 -63.85 26.7 -62.85 29.55 -61.2 31.8 L-61.0 32.05 -59.5 33.45" fill="#000000" fill-rule="evenodd" stroke="none"/>
      <path d="M-26.4 -2.25 Q-25.2 -10.8 -27.2 -19.35 L-27.7 -21.45 -22.65 -20.35 Q-19.5 -10.75 -21.6 -3.55 -23.95 -2.6 -26.4 -2.25" fill="#404040" fill-rule="evenodd" stroke="none"/>
      <path d="M-27.7 -21.45 L-27.2 -19.35 Q-25.2 -10.8 -26.4 -2.25 L-34.6 -2.75 -37.05 -21.45 Q-32.5 -22.2 -27.7 -21.45" fill="#242424" fill-rule="evenodd" stroke="none"/>
      <path d="M-26.4 -2.25 Q-23.95 -2.6 -21.6 -3.55 -19.5 -10.75 -22.65 -20.35 L-27.7 -21.45 Q-32.5 -22.2 -37.05 -21.45 L-34.6 -2.75 -26.4 -2.25 Z" fill="none" stroke="#000000" stroke-linecap="round" stroke-linejoin="round" stroke-opacity="0.5019608" stroke-width="1.0"/>
      <path d="M-71.7 7.45 L-55.15 -10.2 Q-45.9 -19.4 -38.0 -26.35 L-31.8 -24.6 Q-29.35 -5.1 -31.55 16.1 -48.05 21.4 -66.15 21.6 -70.1 14.95 -71.7 7.45" fill="#404040" fill-rule="evenodd" stroke="none"/>
      <path d="M-38.0 -26.35 Q-45.9 -19.4 -55.15 -10.2 L-71.7 7.45 Q-75.05 -6.75 -70.5 -23.75 -53.65 -29.9 -38.0 -26.35" fill="#595959" fill-rule="evenodd" stroke="none"/>
      <path d="M-38.0 -26.35 Q-53.65 -29.9 -70.5 -23.75 -75.05 -6.75 -71.7 7.45 -70.1 14.95 -66.15 21.6 -48.05 21.4 -31.55 16.1 -29.35 -5.1 -31.8 -24.6 L-38.0 -26.35 Z" fill="none" stroke="#000000" stroke-linecap="round" stroke-linejoin="round" stroke-opacity="0.5019608" stroke-width="1.0"/>
      <path d="M-67.8 -9.3 Q-67.8 -13.75 -67.1 -18.1 L-67.05 -18.5 -66.9 -19.6 -65.65 -19.9 -58.6 -21.2 -55.4 -21.6 -47.8 -21.9 -46.55 -21.9 -38.6 -21.0 -38.55 -21.0 -37.05 -20.7 -36.4 -13.3 -36.3 -12.1 -36.05 -3.25 -36.05 -2.1 Q-36.15 2.65 -36.55 7.3 L-36.6 7.85 -37.1 12.35 -63.05 16.5 -64.15 13.45 -65.0 10.6 Q-66.15 6.45 -66.8 2.45 L-67.05 1.15 Q-67.65 -2.85 -67.75 -6.8 L-67.8 -9.3" fill="url(#gradient1)" fill-rule="evenodd" stroke="none"/>
      <path d="M-67.1 -18.1 L-66.9 -18.4 -65.65 -19.9 M-67.75 -6.8 L-66.6 -8.25 -67.8 -9.3 M-66.6 -8.25 L-61.5 -3.95 -56.7 -9.7 -61.75 -14.0 -66.6 -8.25 M-61.75 -14.0 L-66.9 -18.4 M-47.8 -21.9 L-47.05 -21.25 -46.55 -21.9 M-47.05 -21.25 L-51.9 -15.45 -46.8 -11.15 -42.0 -16.95 -47.05 -21.25 M-56.7 -9.7 L-51.9 -15.45 -56.95 -19.75 -61.75 -14.0 M-58.6 -21.2 L-56.95 -19.75 -55.4 -21.6 M-61.5 -3.95 L-56.45 0.35 -51.65 -5.4 -56.7 -9.7 M-41.75 -6.85 L-46.8 -11.15 -51.65 -5.4 -46.5 -1.1 -41.75 -6.85 -36.95 -12.65 -42.0 -16.95 -38.6 -21.0 M-36.05 -3.25 L-36.65 -2.55 -36.05 -2.1 M-36.4 -13.3 L-36.95 -12.65 -36.3 -12.1 M-46.5 -1.1 L-41.45 3.2 -36.65 -2.55 -41.75 -6.85 M-51.35 4.65 L-56.45 0.35 -61.2 6.1 -56.15 10.4 -51.35 4.65 -46.5 -1.1 M-51.35 4.65 L-46.25 8.95 -41.45 3.2 -36.3 7.5 -40.9 12.95 M-41.45 13.0 L-46.25 8.95 -50.95 14.6 -56.15 10.4 -60.9 16.15 -64.15 13.45 M-66.8 2.45 L-66.35 1.8 -67.05 1.15 M-61.5 -3.95 L-66.35 1.8 -61.2 6.1 -65.0 10.6" fill="none" stroke="#000000" stroke-linecap="round" stroke-linejoin="round" stroke-opacity="0.3019608" stroke-width="0.5"/>
      <path d="M-67.8 -9.3 Q-67.8 -13.75 -67.1 -18.1 L-67.05 -18.5 -66.9 -19.6 -65.65 -19.9 -58.6 -21.2 -55.4 -21.6 -47.8 -21.9 -46.55 -21.9 -38.6 -21.0 -38.55 -21.0 -37.05 -20.7 -36.4 -13.3 -36.3 -12.1 -36.05 -3.25 -36.05 -2.1 Q-36.15 2.65 -36.55 7.3 L-36.6 7.85 -37.1 12.35 -63.05 16.5 -64.15 13.45 -65.0 10.6 Q-66.15 6.45 -66.8 2.45 L-67.05 1.15 Q-67.65 -2.85 -67.75 -6.8 L-67.8 -9.3 Z" fill="none" stroke="#000000" stroke-linecap="round" stroke-linejoin="round" stroke-opacity="0.5019608" stroke-width="1.0"/>
    </g>
    <linearGradient gradientTransform="matrix(0.0199, -4.0E-4, 5.0E-4, 0.0224, -52.65, -3.65)" gradientUnits="userSpaceOnUse" id="gradient1" spreadMethod="pad" x1="-819.2" x2="819.2">
      <stop offset="0.0" stop-color="#a8a8a8"/>
      <stop offset="0.3215686274509804" stop-color="#cccccc"/>
      <stop offset="0.49411764705882355" stop-color="#cccccc"/>
      <stop offset="0.6588235294117647" stop-color="#cacaca"/>
      <stop offset="0.9803921568627451" stop-color="#9c9c9c"/>
    </linearGradient>
  </defs>
</svg>
