<?xml version="1.0" encoding="UTF-8" standalone="no"?>
<svg xmlns:xlink="http://www.w3.org/1999/xlink" height="531.5px" width="460.6px" xmlns="http://www.w3.org/2000/svg">
  <g transform="matrix(1.0, 0.0, 0.0, 1.0, 193.65, 334.05)">
    <use height="97.65" transform="matrix(0.0831, 0.6732, -0.6732, 0.0831, 2.1483, -6.2787)" width="76.5" xlink:href="#shape0"/>
    <use height="100.5" transform="matrix(1.0, 0.0, 0.0, 1.0, -71.1, -58.3)" width="58.2" xlink:href="#shape1"/>
  </g>
  <defs>
    <g id="shape0" transform="matrix(1.0, 0.0, 0.0, 1.0, 37.05, 50.4)">
      <path d="M30.7 -30.5 L31.75 -28.8 Q36.85 -17.1 38.1 -2.4 39.35 12.25 36.25 20.75 33.1 29.2 29.9 30.9 31.75 25.65 32.6 20.2 35.5 7.4 34.7 -4.7 34.3 -11.4 32.65 -20.35 L30.7 -30.5" fill="#3d3d29" fill-rule="evenodd" stroke="none"/>
      <path d="M33.4 12.15 Q33.75 4.45 32.35 -3.1 29.7 -18.35 19.35 -29.5 22.35 -30.35 21.05 -32.1 20.65 -33.15 18.25 -34.8 L18.1 -36.7 19.05 -35.8 Q23.0 -32.2 26.35 -26.4 L24.25 -27.05 23.9 -27.05 28.65 -18.9 Q31.6 -13.9 33.0 -8.4 34.3 -3.45 34.4 1.7 34.5 7.0 33.4 12.15 M-8.0 -44.35 Q-9.0 -44.75 -9.4 -45.4 -10.35 -49.3 -3.45 -49.4 1.9 -48.5 6.55 -47.1 5.9 -46.85 5.8 -46.45 5.55 -45.6 8.4 -43.65 L4.15 -44.9 Q-1.4 -46.2 -6.95 -46.25 L-8.0 -44.35 M-7.2 -47.25 L-6.95 -47.05 Q-6.5 -46.95 -5.65 -47.5 L-4.55 -48.35 -5.7 -48.65 -5.8 -48.65 -5.9 -48.55 -6.1 -48.5 Q-7.35 -47.8 -7.4 -47.6 L-7.2 -47.25" fill="#808068" fill-rule="evenodd" stroke="none"/>
      <path d="M30.7 -30.5 L32.65 -20.35 Q34.3 -11.4 34.7 -4.7 35.5 7.4 32.6 20.2 L33.05 16.65 33.4 12.15 Q34.5 7.0 34.4 1.7 34.3 -3.45 33.0 -8.4 31.6 -13.9 28.65 -18.9 L23.9 -27.05 24.25 -27.05 26.35 -26.4 Q23.0 -32.2 19.05 -35.8 L18.1 -36.7 17.55 -39.8 16.45 -40.35 14.5 -41.3 Q11.5 -42.7 8.4 -43.65 5.55 -45.6 5.8 -46.45 5.9 -46.85 6.55 -47.1 23.15 -42.1 30.7 -30.5" fill="#565646" fill-rule="evenodd" stroke="none"/>
      <path d="M18.25 -34.8 Q18.6 -27.55 15.4 -21.1 L15.05 -21.5 14.85 -21.8 15.1 -22.45 15.7 -24.4 16.4 -27.25 16.8 -32.1 16.55 -36.6 Q16.3 -39.15 16.45 -40.35 L17.55 -39.8 18.1 -36.7 18.25 -34.8" fill="#66ab78" fill-rule="evenodd" stroke="none"/>
      <path d="M-13.25 -29.8 L-15.05 -28.5 Q-18.95 -26.25 -23.3 -27.45 -25.7 -28.05 -27.4 -29.45 L-27.2 -30.35 -26.95 -32.1 -26.75 -33.2 -26.1 -32.05 Q-24.75 -30.1 -22.15 -29.4 -19.85 -28.8 -17.75 -29.85 -15.65 -30.95 -15.05 -33.2 L-14.95 -33.45 Q-14.05 -34.6 -13.6 -36.15 -13.1 -38.15 -13.7 -40.0 L-12.8 -40.95 Q-12.0 -42.05 -11.6 -43.65 L-11.5 -44.1 -11.1 -43.45 Q-10.2 -41.95 -9.85 -40.35 L-9.7 -39.6 -10.2 -39.6 -11.15 -39.25 Q-12.1 -38.75 -12.35 -37.7 -12.65 -36.65 -12.1 -35.7 L-12.0 -35.6 -10.35 -36.45 Q-8.5 -37.65 -8.1 -38.9 L-7.65 -38.3 Q-7.1 -37.4 -7.35 -36.35 -7.65 -35.3 -8.6 -34.75 L-10.2 -34.45 Q-11.1 -31.65 -13.25 -29.8 M14.5 -41.3 L16.45 -40.35 Q16.3 -39.15 16.55 -36.6 L16.8 -32.1 16.4 -27.25 15.7 -24.4 15.1 -22.45 14.85 -21.8 13.8 -22.95 13.0 -23.3 10.7 -24.35 Q8.1 -25.45 5.5 -26.25 L8.15 -29.5 Q9.5 -31.2 12.25 -36.7 L14.5 -41.3 M-10.2 -34.45 L-10.5 -34.55 Q-11.25 -34.75 -11.75 -35.3 L-12.0 -35.6 -11.75 -35.3 Q-11.25 -34.75 -10.5 -34.55 L-10.2 -34.45" fill="#4d4d49" fill-rule="evenodd" stroke="none"/>
      <path d="M-27.4 -29.45 Q-28.9 -30.65 -30.0 -32.45 L-30.6 -33.7 -29.15 -34.0 Q-27.8 -34.4 -27.15 -34.85 L-27.25 -35.4 -27.05 -35.0 -27.05 -34.95 -27.15 -34.85 -26.75 -33.2 -26.95 -32.1 -27.2 -30.35 -27.4 -29.45 M-29.35 -44.5 L-29.0 -44.85 -29.25 -44.45 -29.35 -44.5 M-27.95 -46.05 L-26.9 -46.85 -26.75 -46.75 -27.95 -46.05 M14.5 -41.3 L12.25 -36.7 Q9.5 -31.2 8.15 -29.5 L5.5 -26.25 0.5 -27.7 Q1.6 -31.25 2.1 -35.0 1.7 -36.15 0.8 -36.0 0.4 -35.95 -0.05 -35.6 -1.65 -32.0 -2.4 -28.45 L-5.9 -29.1 -8.55 -29.4 -7.0 -30.2 Q-8.3 -32.0 -7.6 -34.65 L-6.8 -36.9 -5.45 -39.7 -2.85 -43.2 Q-1.85 -44.25 0.55 -44.65 L4.15 -44.9 8.4 -43.65 Q11.5 -42.7 14.5 -41.3 M-8.1 -38.9 L-8.15 -38.9 -8.05 -39.05 -8.1 -38.9 M-1.1 -41.5 L-1.9 -42.05 -3.35 -41.85 -4.2 -40.7 Q-4.35 -40.05 -4.1 -39.45 L-4.0 -39.35 Q-3.6 -38.65 -2.85 -38.45 L-1.45 -38.65 Q-0.8 -39.0 -0.65 -39.75 -0.45 -40.45 -0.8 -41.15 L-1.1 -41.5 M-14.95 -33.45 L-15.05 -33.2 -15.15 -33.3 -14.95 -33.45" fill="#676763" fill-rule="evenodd" stroke="none"/>
      <path d="M-13.45 -29.0 L-13.25 -29.8 Q-11.1 -31.65 -10.2 -34.45 L-8.6 -34.75 Q-7.65 -35.3 -7.35 -36.35 -7.1 -37.4 -7.65 -38.3 L-8.1 -38.9 -8.05 -39.05 -8.15 -38.9 -8.1 -38.9 Q-8.5 -37.65 -10.35 -36.45 L-12.0 -35.6 -12.1 -35.7 Q-12.65 -36.65 -12.35 -37.7 -12.1 -38.75 -11.15 -39.25 L-10.2 -39.6 -9.7 -39.6 -9.85 -40.35 -8.0 -44.35 -6.95 -46.25 Q-1.4 -46.2 4.15 -44.9 L0.55 -44.65 Q-1.85 -44.25 -2.85 -43.2 L-5.45 -39.7 -6.8 -36.9 -7.6 -34.65 Q-8.3 -32.0 -7.0 -30.2 L-8.55 -29.4 -11.25 -29.75 -13.45 -29.0 M-30.6 -33.7 Q-32.1 -37.0 -31.1 -40.75 -30.55 -42.85 -29.35 -44.5 L-29.25 -44.45 Q-29.4 -43.9 -29.15 -43.65 L-28.6 -43.4 Q-27.5 -43.15 -25.25 -44.65 L-23.05 -46.45 Q-22.95 -46.9 -23.25 -47.25 L-23.6 -47.5 -24.1 -47.6 Q-25.15 -47.6 -26.75 -46.75 L-26.9 -46.85 -26.05 -47.4 Q-22.15 -49.7 -17.75 -48.55 -13.75 -47.45 -11.5 -44.1 L-11.6 -43.65 Q-12.0 -42.05 -12.8 -40.95 L-13.7 -40.0 -14.4 -41.6 Q-15.85 -44.1 -18.7 -44.9 -21.6 -45.65 -24.15 -44.15 -26.7 -42.65 -27.45 -39.8 -28.05 -37.5 -27.25 -35.4 L-27.15 -34.85 Q-27.8 -34.4 -29.15 -34.0 L-30.6 -33.7 M-5.05 -45.3 L-5.4 -45.3 Q-5.85 -45.35 -6.3 -45.0 L-6.95 -44.0 -7.05 -43.3 -6.55 -42.95 Q-6.1 -42.8 -5.2 -43.4 -4.35 -43.95 -4.25 -44.35 -4.1 -44.8 -4.45 -45.05 L-4.7 -45.15 -4.8 -45.2 -4.85 -45.25 -5.05 -45.3 M-9.7 -39.6 L-9.2 -39.55 -8.15 -38.9 -9.2 -39.55 -9.7 -39.6 M-15.05 -33.2 Q-15.65 -30.95 -17.75 -29.85 -19.85 -28.8 -22.15 -29.4 -24.75 -30.1 -26.1 -32.05 L-26.75 -33.2 -27.15 -34.85 -27.05 -34.95 -26.7 -34.35 -26.55 -34.1 Q-25.1 -31.8 -22.35 -31.1 -19.5 -30.3 -16.95 -31.8 -15.9 -32.4 -15.15 -33.3 L-15.05 -33.2" fill="#a8a8a1" fill-rule="evenodd" stroke="none"/>
      <path d="M0.8 -36.0 Q1.7 -36.15 2.1 -35.0 1.6 -31.25 0.5 -27.7 L-0.7 -28.05 0.25 -31.55 Q0.8 -34.3 0.8 -36.0 M-4.1 -39.45 Q-4.35 -40.05 -4.2 -40.7 L-3.35 -41.85 -1.9 -42.05 -1.1 -41.5 Q-1.6 -40.8 -2.6 -40.15 -3.45 -39.6 -4.1 -39.45" fill="#1c1c1a" fill-rule="evenodd" stroke="none"/>
      <path d="M-2.4 -28.45 Q-1.65 -32.0 -0.05 -35.6 0.4 -35.95 0.8 -36.0 0.8 -34.3 0.25 -31.55 L-0.7 -28.05 -2.4 -28.45 M-1.1 -41.5 L-0.8 -41.15 Q-0.45 -40.45 -0.65 -39.75 -0.8 -39.0 -1.45 -38.65 L-2.85 -38.45 Q-3.6 -38.65 -4.0 -39.35 L-4.1 -39.45 Q-3.45 -39.6 -2.6 -40.15 -1.6 -40.8 -1.1 -41.5" fill="#383835" fill-rule="evenodd" stroke="none"/>
      <path d="M5.5 -26.25 Q8.1 -25.45 10.7 -24.35 L10.6 -23.2 10.05 -19.0 9.1 -14.0 8.1 -10.05 Q7.3 -7.05 5.35 -3.05 L3.5 0.45 3.45 0.7 0.55 -0.2 Q-9.55 -3.3 -20.05 -4.6 L-20.05 -4.65 -18.55 -4.65 Q-21.0 -5.3 -23.4 -6.75 -27.2 -9.0 -26.6 -11.35 -26.0 -13.65 -23.2 -17.3 L-18.7 -22.35 Q-16.3 -24.45 -12.25 -27.2 L-8.55 -29.4 -5.9 -29.1 -2.4 -28.45 -0.7 -28.05 0.5 -27.7 5.5 -26.25" fill="#565600" fill-rule="evenodd" stroke="none"/>
      <path d="M-7.9 46.0 Q-13.1 45.4 -18.15 44.0 L-17.9 43.8 -16.05 41.55 -16.7 41.45 -16.95 41.35 -20.45 39.0 Q-18.25 37.1 -16.65 34.65 L-13.8 31.2 -11.1 27.45 -6.85 20.55 Q-3.35 14.95 -1.35 11.25 L-1.3 11.0 16.9 16.25 -1.3 11.0 -4.85 10.05 -2.45 5.9 Q0.0 1.5 0.55 -0.2 L3.45 0.7 3.5 0.45 5.35 -3.05 Q7.3 -7.05 8.1 -10.05 L9.1 -14.0 10.05 -19.0 10.6 -23.2 10.7 -24.35 13.0 -23.3 Q15.65 -19.2 17.35 -12.8 18.75 -7.45 19.0 -3.25 L19.25 1.4 19.1 5.4 18.9 7.1 18.85 7.25 19.25 7.9 19.65 8.75 20.0 10.35 19.6 12.0 Q19.25 13.5 18.15 14.5 17.35 15.35 16.9 16.25 16.7 16.5 16.65 16.8 L15.3 19.65 14.35 21.5 13.8 22.2 Q13.7 22.2 13.75 22.35 12.1 26.05 4.4 33.1 -3.8 40.55 -6.9 41.7 L-6.4 41.85 -6.25 42.1 -6.45 43.0 Q-6.75 44.25 -7.45 45.35 L-7.9 46.0 M18.9 7.1 Q11.25 3.35 3.45 0.7 11.25 3.35 18.9 7.1 M-6.4 41.85 Q-10.15 42.55 -14.45 41.85 L-16.05 41.55 -14.45 41.85 Q-10.15 42.55 -6.4 41.85" fill="#424200" fill-rule="evenodd" stroke="none"/>
      <path d="M15.4 -21.1 L17.25 -18.1 Q22.7 -4.2 20.85 8.25 24.4 13.65 18.5 16.7 13.05 30.65 -0.1 39.5 L-2.9 40.85 Q-3.5 43.85 -5.95 46.25 L-7.9 46.0 -7.45 45.35 Q-6.75 44.25 -6.45 43.0 L-6.25 42.1 -6.4 41.85 -6.9 41.7 Q-3.8 40.55 4.4 33.1 12.1 26.05 13.75 22.35 L13.8 22.45 14.35 21.5 15.3 19.65 16.65 16.8 Q16.7 16.5 16.9 16.25 17.35 15.35 18.15 14.5 19.25 13.5 19.6 12.0 L20.0 10.35 19.65 8.75 19.25 7.9 18.85 7.25 18.9 7.1 19.1 5.4 19.25 1.4 19.0 -3.25 Q18.75 -7.45 17.35 -12.8 15.65 -19.2 13.0 -23.3 L13.8 -22.95 14.85 -21.8 15.05 -21.5 15.4 -21.1 M20.65 8.0 L20.85 8.25 20.65 8.0 18.9 7.1 20.65 8.0 M18.5 16.7 L16.9 16.25 18.5 16.7 M-2.9 40.85 Q-4.6 41.55 -6.4 41.85 -4.6 41.55 -2.9 40.85" fill="#29850b" fill-rule="evenodd" stroke="none"/>
      <path d="M-18.15 44.0 L-23.55 42.3 -23.95 41.75 -25.4 38.55 -26.0 36.65 Q-23.95 38.35 -21.25 39.65 L-20.45 39.0 -22.95 36.25 Q-25.15 33.45 -28.4 27.4 -31.2 22.25 -32.4 16.2 -33.6 9.7 -32.75 3.1 L-26.5 4.55 Q-28.75 3.75 -30.15 2.25 -32.15 0.15 -31.4 -2.65 -31.0 -4.2 -30.1 -4.9 L-29.35 -5.3 -21.8 -4.75 -20.2 -4.6 -20.05 -4.65 -20.05 -4.6 Q-9.55 -3.3 0.55 -0.2 0.0 1.5 -2.45 5.9 L-4.85 10.05 -1.3 11.0 -1.35 11.25 Q-3.35 14.95 -6.85 20.55 L-11.1 27.45 -13.8 31.2 -16.65 34.65 Q-18.25 37.1 -20.45 39.0 L-16.95 41.35 -16.7 41.45 -16.05 41.55 -17.9 43.8 -18.15 44.0 M13.75 22.35 Q13.7 22.2 13.8 22.2 L14.35 21.5 13.8 22.45 13.75 22.35 M-16.95 41.35 L-18.85 40.7 -21.25 39.65 -18.85 40.7 -16.95 41.35 M-20.05 -4.6 L-20.2 -4.6 -20.05 -4.6 M-25.65 4.8 L-4.85 10.05 -25.65 4.8" fill="#575700" fill-rule="evenodd" stroke="none"/>
      <path d="M-29.0 -44.85 L-29.0 -44.9 -27.95 -46.05 -26.75 -46.75 Q-25.15 -47.6 -24.1 -47.6 L-23.6 -47.5 -23.25 -47.25 Q-22.95 -46.9 -23.05 -46.45 L-25.25 -44.65 Q-27.5 -43.15 -28.6 -43.4 L-29.15 -43.65 Q-29.4 -43.9 -29.25 -44.45 L-29.0 -44.85 M-5.05 -45.3 L-4.85 -45.25 -4.8 -45.2 -4.7 -45.15 -4.45 -45.05 Q-4.1 -44.8 -4.25 -44.35 -4.35 -43.95 -5.2 -43.4 -6.1 -42.8 -6.55 -42.95 L-7.05 -43.3 -6.95 -44.0 -6.3 -45.0 Q-5.85 -45.35 -5.4 -45.3 L-5.05 -45.3 M-7.2 -47.25 L-7.4 -47.6 Q-7.35 -47.8 -6.1 -48.5 L-5.9 -48.55 -5.8 -48.65 -5.7 -48.65 -4.55 -48.35 -5.65 -47.5 Q-6.5 -46.95 -6.95 -47.05 L-7.2 -47.25" fill="#ffffff" fill-rule="evenodd" stroke="none"/>
      <path d="M-23.55 42.3 L-27.15 40.95 Q-28.75 38.0 -27.9 34.75 L-30.2 31.55 Q-37.3 17.35 -35.15 2.55 -37.65 -2.25 -33.3 -5.45 L-33.15 -5.45 Q-28.75 -17.5 -16.85 -27.1 -15.25 -28.2 -13.45 -29.0 L-11.25 -29.75 -8.55 -29.4 -12.25 -27.2 Q-16.3 -24.45 -18.7 -22.35 L-23.2 -17.3 Q-26.0 -13.65 -26.6 -11.35 -27.2 -9.0 -23.4 -6.75 -21.0 -5.3 -18.55 -4.65 L-20.05 -4.65 -20.2 -4.6 -21.8 -4.75 -29.35 -5.3 -30.1 -4.9 Q-31.0 -4.2 -31.4 -2.65 -32.15 0.15 -30.15 2.25 -28.75 3.75 -26.5 4.55 L-32.75 3.1 Q-33.6 9.7 -32.4 16.2 -31.2 22.25 -28.4 27.4 -25.15 33.45 -22.95 36.25 L-20.45 39.0 -21.25 39.65 Q-23.95 38.35 -26.0 36.65 L-27.9 34.75 -26.0 36.65 -25.4 38.55 -23.95 41.75 -23.55 42.3 M-29.35 -5.3 L-33.15 -5.45 -29.35 -5.3 M-35.15 2.55 L-32.75 3.1 -35.15 2.55" fill="#757510" fill-rule="evenodd" stroke="none"/>
      <path d="M32.6 20.2 Q31.75 25.65 29.9 30.9 33.1 29.2 36.25 20.75 39.35 12.25 38.1 -2.4 36.85 -17.1 31.75 -28.8 L30.7 -30.5 Q23.15 -42.1 6.55 -47.1 1.9 -48.5 -3.45 -49.4 -10.35 -49.3 -9.4 -45.4 -9.0 -44.75 -8.0 -44.35 L-6.95 -46.25 Q-1.4 -46.2 4.15 -44.9 L8.4 -43.65 Q11.5 -42.7 14.5 -41.3 L16.45 -40.35 17.55 -39.8 18.1 -36.7 18.25 -34.8 Q18.6 -27.55 15.4 -21.1 L17.25 -18.1 Q22.7 -4.2 20.85 8.25 24.4 13.65 18.5 16.7 13.05 30.65 -0.1 39.5 L-2.9 40.85 Q-3.5 43.85 -5.95 46.25 L-7.9 46.0 Q-13.1 45.4 -18.15 44.0 L-23.55 42.3 -27.15 40.95 Q-28.75 38.0 -27.9 34.75 L-30.2 31.55 Q-37.3 17.35 -35.15 2.55 -37.65 -2.25 -33.3 -5.45 L-33.15 -5.45 Q-28.75 -17.5 -16.85 -27.1 -15.25 -28.2 -13.45 -29.0 L-13.25 -29.8 -15.05 -28.5 Q-18.95 -26.25 -23.3 -27.45 -25.7 -28.05 -27.4 -29.45 -28.9 -30.65 -30.0 -32.45 L-30.6 -33.7 Q-32.1 -37.0 -31.1 -40.75 -30.55 -42.85 -29.35 -44.5 L-29.0 -44.85 -29.0 -44.9 -27.95 -46.05 -26.9 -46.85 -26.05 -47.4 Q-22.15 -49.7 -17.75 -48.55 -13.75 -47.45 -11.5 -44.1 L-11.1 -43.45 Q-10.2 -41.95 -9.85 -40.35 L-8.0 -44.35 M32.6 20.2 L33.05 16.65 33.4 12.15 Q33.75 4.45 32.35 -3.1 29.7 -18.35 19.35 -29.5 22.35 -30.35 21.05 -32.1 20.65 -33.15 18.25 -34.8 M5.5 -26.25 Q8.1 -25.45 10.7 -24.35 L13.0 -23.3 13.8 -22.95 14.85 -21.8 15.05 -21.5 15.4 -21.1 M-8.55 -29.4 L-5.9 -29.1 -2.4 -28.45 -0.7 -28.05 0.5 -27.7 5.5 -26.25 M20.85 8.25 L20.65 8.0 M-16.95 41.35 L-16.7 41.45 -16.05 41.55 -14.45 41.85 Q-10.15 42.55 -6.4 41.85 -4.6 41.55 -2.9 40.85 M-8.15 -38.9 L-8.1 -38.9 -7.65 -38.3 Q-7.1 -37.4 -7.35 -36.35 -7.65 -35.3 -8.6 -34.75 L-10.2 -34.45 Q-11.1 -31.65 -13.25 -29.8 M-8.15 -38.9 L-9.2 -39.55 -9.7 -39.6 -10.2 -39.6 -11.15 -39.25 Q-12.1 -38.75 -12.35 -37.7 -12.65 -36.65 -12.1 -35.7 L-12.0 -35.6 -11.75 -35.3 Q-11.25 -34.75 -10.5 -34.55 L-10.2 -34.45 M-9.7 -39.6 L-9.85 -40.35 M-13.7 -40.0 Q-13.1 -38.15 -13.6 -36.15 -14.05 -34.6 -14.95 -33.45 L-15.15 -33.3 Q-15.9 -32.4 -16.95 -31.8 -19.5 -30.3 -22.35 -31.1 -25.1 -31.8 -26.55 -34.1 L-26.7 -34.35 -27.05 -34.95 -27.05 -35.0 -27.25 -35.4 Q-28.05 -37.5 -27.45 -39.8 -26.7 -42.65 -24.15 -44.15 -21.6 -45.65 -18.7 -44.9 -15.85 -44.1 -14.4 -41.6 L-13.7 -40.0 M-13.45 -29.0 L-11.25 -29.75 -8.55 -29.4 M-21.25 39.65 L-18.85 40.7 -16.95 41.35 M-26.0 36.65 L-27.9 34.75 M-21.25 39.65 Q-23.95 38.35 -26.0 36.65" fill="none" stroke="#000000" stroke-linecap="round" stroke-linejoin="round" stroke-opacity="0.6627451" stroke-width="2.0"/>
      <path d="M-2.4 -28.45 Q-1.65 -32.0 -0.05 -35.6 0.4 -35.95 0.8 -36.0 1.7 -36.15 2.1 -35.0 1.6 -31.25 0.5 -27.7 M3.45 0.7 Q11.25 3.35 18.9 7.1 L20.65 8.0 M16.9 16.25 L18.5 16.7 M16.9 16.25 L-1.3 11.0 -4.85 10.05 -25.65 4.8 M3.45 0.7 L0.55 -0.2 Q-9.55 -3.3 -20.05 -4.6 L-20.2 -4.6 M-4.1 -39.45 Q-4.35 -40.05 -4.2 -40.7 L-3.35 -41.85 -1.9 -42.05 -1.1 -41.5 -0.8 -41.15 Q-0.45 -40.45 -0.65 -39.75 -0.8 -39.0 -1.45 -38.65 L-2.85 -38.45 Q-3.6 -38.65 -4.0 -39.35 L-4.1 -39.45 M-29.35 -5.3 L-21.8 -4.75 M-26.5 4.55 L-32.75 3.1 -35.15 2.55 M-33.15 -5.45 L-29.35 -5.3" fill="none" stroke="#000000" stroke-linecap="round" stroke-linejoin="round" stroke-opacity="0.44313726" stroke-width="2.0"/>
    </g>
    <g id="shape1" transform="matrix(1.0, 0.0, 0.0, 1.0, 71.1, 58.3)">
      <path d="M-53.35 -57.6 L-53.15 -57.6 -52.05 -57.65 -52.1 -57.55 -53.65 -53.55 -55.75 -48.4 Q-59.35 -39.2 -61.4 -32.6 -63.5 -26.1 -64.95 -20.05 -65.65 -17.6 -65.8 -15.05 L-66.35 -8.1 Q-66.6 -3.65 -65.75 2.15 L-63.65 15.5 Q-62.35 23.1 -61.45 26.35 L-60.15 29.8 -59.0 31.85 -60.5 30.45 -60.7 30.2 Q-62.35 27.95 -63.35 25.1 -64.45 22.0 -66.0 14.75 L-68.5 1.95 Q-69.5 -3.6 -69.25 -7.85 L-68.8 -14.5 Q-68.6 -16.9 -67.9 -19.25 -66.35 -25.05 -64.1 -31.25 -61.9 -37.55 -58.0 -46.35 L-54.95 -53.15 -53.55 -56.35 Q-53.05 -57.6 -53.35 -57.1 L-53.35 -57.15 -53.35 -57.6 M-16.05 -43.45 L-14.05 -40.85 -20.15 -27.05 Q-22.3 -22.05 -23.45 -18.4 L-24.05 -15.9 Q-24.8 -12.65 -24.8 -11.35 L-24.3 -7.5 Q-23.85 -5.05 -23.15 -3.65 L-22.95 -3.1 -24.7 -3.15 -24.9 -3.7 Q-25.55 -5.2 -25.9 -7.75 L-26.3 -11.8 Q-26.3 -13.15 -25.55 -16.55 L-25.0 -19.15 -21.95 -28.2 -16.05 -43.45 M-21.5 -3.05 L-19.75 -3.1 Q-19.05 -3.1 -18.55 -2.3 L-17.75 -0.45 -17.7 -0.3 -16.85 2.35 -16.7 2.65 -16.3 4.2 Q-16.3 4.65 -16.55 4.85 L-17.15 5.1 -17.15 5.15 -17.8 5.25 -19.7 5.75 -20.05 5.6 -19.6 5.5 -19.6 5.45 -19.1 5.15 -18.9 4.85 -18.85 4.5 -19.25 2.85 -19.3 2.55 -20.1 -0.2 -20.1 -0.4 -20.8 -2.3 -21.5 -3.05 M-24.9 9.4 L-25.0 9.75 -25.85 15.4 -25.85 16.3 -25.85 17.05 -25.85 18.1 -26.05 19.25 -26.2 21.5 -26.25 22.5 Q-26.6 24.0 -26.6 28.65 L-27.5 35.25 -28.0 36.65 Q-29.05 39.1 -31.25 40.3 -29.75 37.5 -29.05 33.35 -28.55 30.55 -27.9 20.7 L-27.75 17.75 -27.25 12.9 Q-27.05 11.35 -25.45 9.85 L-24.9 9.4" fill="#bdbdbd" fill-rule="evenodd" stroke="none"/>
      <path d="M-14.05 -40.85 L-13.9 -41.25 -13.35 -40.9 -13.2 -40.75 Q-12.9 -40.35 -12.9 -39.5 -15.55 -34.5 -18.15 -28.4 -23.4 -16.3 -23.4 -10.4 L-22.9 -6.5 -22.45 -4.7 -22.35 -4.45 -20.05 -4.75 -17.7 -4.45 -16.9 -3.05 Q-15.55 -0.4 -15.0 2.6 L-14.85 3.25 Q-14.5 4.95 -14.5 5.55 -14.5 6.45 -15.1 6.7 L-17.0 7.15 -17.45 7.2 Q-19.2 7.45 -20.95 8.4 -22.75 9.3 -23.2 11.05 -23.75 12.75 -23.95 15.35 L-24.05 16.75 -24.1 17.05 -24.4 18.9 -24.55 20.05 -24.5 20.6 -24.75 25.35 -25.25 32.0 -25.75 35.25 -26.1 36.85 Q-27.45 42.0 -32.4 42.2 L-33.4 42.15 Q-36.9 41.9 -39.5 39.6 L-40.8 38.35 -41.2 37.7 Q-44.0 39.05 -45.65 39.05 L-45.95 39.05 Q-47.5 39.0 -48.95 38.35 -51.2 37.4 -53.2 35.05 L-53.2 35.0 -53.4 35.1 -53.85 35.2 -54.9 35.25 Q-62.3 35.25 -65.4 24.75 L-66.85 19.45 -68.1 13.8 -69.8 3.3 Q-71.1 -4.15 -71.1 -7.8 -71.1 -11.5 -69.75 -17.3 -68.4 -23.15 -60.9 -42.85 -54.05 -61.0 -53.4 -57.8 L-53.35 -57.6 -53.35 -57.15 -53.35 -57.1 Q-53.05 -57.6 -53.55 -56.35 L-54.95 -53.15 -58.0 -46.35 Q-61.9 -37.55 -64.1 -31.25 -66.35 -25.05 -67.9 -19.25 -68.6 -16.9 -68.8 -14.5 L-69.25 -7.85 Q-69.5 -3.6 -68.5 1.95 L-66.0 14.75 Q-64.45 22.0 -63.35 25.1 -62.35 27.95 -60.7 30.2 L-60.5 30.45 -59.0 31.85 Q-57.4 32.8 -54.9 33.15 L-54.6 33.2 -55.1 32.45 Q-56.0 31.0 -56.0 30.0 L-55.65 29.2 Q-55.4 28.85 -52.6 32.9 -49.85 36.95 -47.0 36.9 -44.2 36.8 -42.55 35.55 L-41.95 35.15 -41.9 35.0 -41.7 34.8 -41.25 34.75 -40.8 34.85 -39.35 36.75 -38.5 38.25 -35.4 39.95 -33.4 40.45 -31.95 40.65 -31.25 40.3 Q-29.05 39.1 -28.0 36.65 L-27.5 35.25 -26.6 28.65 Q-26.6 24.0 -26.25 22.5 L-26.2 21.5 -26.05 19.25 -25.85 18.1 -25.85 17.05 -25.85 16.3 -25.85 15.4 -25.0 9.75 -24.9 9.4 -24.0 8.15 -22.9 7.3 -22.35 6.95 Q-21.05 6.2 -19.7 5.75 L-17.8 5.25 -17.15 5.15 -17.15 5.1 -16.55 4.85 Q-16.3 4.65 -16.3 4.2 L-16.7 2.65 -16.85 2.35 -17.7 -0.3 -17.75 -0.45 -18.55 -2.3 Q-19.05 -3.1 -19.75 -3.1 L-21.5 -3.05 -22.95 -3.1 -23.15 -3.65 Q-23.85 -5.05 -24.3 -7.5 L-24.8 -11.35 Q-24.8 -12.65 -24.05 -15.9 L-23.45 -18.4 Q-22.3 -22.05 -20.15 -27.05 L-14.05 -40.85" fill="#000000" fill-rule="evenodd" stroke="none"/>
      <path d="M-52.05 -57.65 Q-27.95 -57.95 -16.05 -43.45 L-21.95 -28.2 -25.0 -19.15 -25.55 -16.55 Q-26.3 -13.15 -26.3 -11.8 L-25.9 -7.75 Q-25.55 -5.2 -24.9 -3.7 L-24.7 -3.15 -22.95 -3.1 -21.5 -3.05 -20.8 -2.3 -20.1 -0.4 -20.1 -0.2 -19.3 2.55 -19.25 2.85 -18.85 4.5 -18.9 4.85 -19.1 5.15 -19.6 5.45 -19.6 5.5 -20.05 5.6 -19.7 5.75 Q-21.05 6.2 -22.35 6.95 L-22.9 7.3 -24.0 8.15 -24.9 9.4 -25.45 9.85 Q-27.05 11.35 -27.25 12.9 L-27.75 17.75 -27.9 20.7 Q-28.55 30.55 -29.05 33.35 -29.75 37.5 -31.25 40.3 L-31.95 40.65 -33.4 40.45 -35.4 39.95 -38.5 38.25 -39.35 36.75 -40.8 34.85 -41.25 34.75 -41.7 34.8 -41.9 35.0 -41.95 35.15 -42.55 35.55 Q-44.2 36.8 -47.0 36.9 -49.85 36.95 -52.6 32.9 -55.4 28.85 -55.65 29.2 L-56.0 30.0 Q-56.0 31.0 -55.1 32.45 L-54.6 33.2 -54.9 33.15 Q-57.4 32.8 -59.0 31.85 L-60.15 29.8 -61.45 26.35 Q-62.35 23.1 -63.65 15.5 L-65.75 2.15 Q-66.6 -3.65 -66.35 -8.1 L-65.8 -15.05 Q-65.65 -17.6 -64.95 -20.05 -63.5 -26.1 -61.4 -32.6 -59.35 -39.2 -55.75 -48.4 L-53.65 -53.55 -52.1 -57.55 -52.05 -57.65" fill="#999999" fill-rule="evenodd" stroke="none"/>
    </g>
  </defs>
</svg>
