<?xml version="1.0" encoding="UTF-8" standalone="no"?>
<svg xmlns:xlink="http://www.w3.org/1999/xlink" height="531.5px" width="460.6px" xmlns="http://www.w3.org/2000/svg">
  <g transform="matrix(1.0, 0.0, 0.0, 1.0, 193.65, 334.05)">
    <use height="157.25" transform="matrix(0.4617, 0.0, 0.0, 0.4617, -1.8809, -22.683)" width="124.9" xlink:href="#shape0"/>
    <use height="55.8" transform="matrix(1.0, 0.0, 0.0, 1.0, -64.4, -60.75)" width="108.6" xlink:href="#shape1"/>
  </g>
  <defs>
    <g id="shape0" transform="matrix(1.0, 0.0, 0.0, 1.0, 0.5, 29.2)">
      <path d="M36.3 -17.75 Q36.4 -16.6 36.8 -15.75 37.45 -14.45 38.3 -14.45 39.15 -14.45 39.75 -15.75 40.4 -17.05 40.4 -18.95 40.4 -20.8 39.75 -22.1 39.15 -23.4 38.3 -23.4 37.45 -23.4 36.8 -22.1 L36.4 -20.7 35.2 -20.65 Q35.6 -24.3 37.85 -27.7 L52.0 -28.5 Q71.55 -29.2 91.05 -27.7 93.75 -25.1 94.7 -22.25 95.5 -19.85 95.05 -17.3 L94.55 -15.45 93.55 -13.25 Q92.55 -11.5 91.05 -9.7 L80.15 -8.9 Q66.25 -8.15 52.2 -8.7 L37.85 -9.7 Q35.55 -13.8 35.2 -17.6 L36.3 -17.75 M73.15 -10.65 Q61.55 -12.75 52.2 -8.7 61.55 -12.75 73.15 -10.65 M61.8 -25.3 Q56.55 -26.65 52.0 -28.5 56.55 -26.65 61.8 -25.3 M41.3 -13.2 Q43.9 -19.5 40.7 -25.35 43.9 -19.5 41.3 -13.2 M75.65 -10.15 L80.15 -8.9 75.65 -10.15 M64.85 -24.6 Q77.75 -21.85 94.7 -22.25 77.75 -21.85 64.85 -24.6 M78.4 -15.8 L94.55 -15.45 78.4 -15.8" fill="#935414" fill-rule="evenodd" stroke="none"/>
      <path d="M36.4 -20.7 L36.8 -22.1 Q37.45 -23.4 38.3 -23.4 39.15 -23.4 39.75 -22.1 40.4 -20.8 40.4 -18.95 40.4 -17.05 39.75 -15.75 39.15 -14.45 38.3 -14.45 37.45 -14.45 36.8 -15.75 36.4 -16.6 36.3 -17.75 L38.2 -17.8 Q39.75 -19.75 37.45 -20.75 L36.4 -20.7" fill="#542f0b" fill-rule="evenodd" stroke="none"/>
      <path d="M36.4 -20.7 L37.45 -20.75 Q39.75 -19.75 38.2 -17.8 L36.3 -17.75 35.2 -17.6 Q29.2 -16.55 27.65 -10.2 L25.4 41.8 21.9 43.05 24.65 -10.7 Q25.7 -19.8 35.2 -20.65 L36.4 -20.7 M95.05 -17.3 Q98.65 -17.75 104.1 40.25 L101.15 40.15 Q96.75 -6.4 93.55 -13.25 L94.55 -15.45 95.05 -17.3" fill="url(#gradient0)" fill-rule="evenodd" stroke="none"/>
      <path d="M36.4 -20.7 L37.45 -20.75 Q39.75 -19.75 38.2 -17.8 L36.3 -17.75 35.2 -17.6 Q29.2 -16.55 27.65 -10.2 L25.4 41.8 M36.4 -20.7 L35.2 -20.65 Q25.7 -19.8 24.65 -10.7 L21.9 43.05" fill="none" stroke="#000000" stroke-linecap="round" stroke-linejoin="round" stroke-opacity="0.5019608" stroke-width="1.0"/>
      <path d="M35.2 -17.6 Q35.55 -13.8 37.85 -9.7 L52.2 -8.7 Q66.25 -8.15 80.15 -8.9 L91.05 -9.7 Q92.55 -11.5 93.55 -13.25 96.75 -6.4 101.15 40.15 L104.1 40.25 Q98.65 -17.75 95.05 -17.3 L94.55 -15.45 93.55 -13.25 M21.9 43.05 L25.4 41.8 M35.2 -20.65 Q35.6 -24.3 37.85 -27.7 L52.0 -28.5 Q71.55 -29.2 91.05 -27.7 93.75 -25.1 94.7 -22.25 95.5 -19.85 95.05 -17.3" fill="none" stroke="#000000" stroke-linecap="round" stroke-linejoin="round" stroke-opacity="0.4" stroke-width="1.0"/>
      <path d="M52.2 -8.7 Q61.55 -12.75 73.15 -10.65 M80.15 -8.9 L75.65 -10.15 M40.7 -25.35 Q43.9 -19.5 41.3 -13.2 M52.0 -28.5 Q56.55 -26.65 61.8 -25.3 M94.55 -15.45 L78.4 -15.8 M94.7 -22.25 Q77.75 -21.85 64.85 -24.6" fill="none" stroke="#000000" stroke-linecap="round" stroke-linejoin="round" stroke-opacity="0.2" stroke-width="0.5"/>
      <path d="M53.45 31.1 L53.65 30.95 53.7 31.15 53.45 31.1 M49.25 28.1 L49.2 28.15 49.2 27.9 49.25 28.1" fill="#999999" fill-rule="evenodd" stroke="none"/>
      <path d="M72.6 28.35 L75.95 28.65 Q80.9 29.35 85.55 32.05 98.45 30.3 107.1 38.6 L107.6 39.5 107.6 39.6 Q109.75 43.65 114.6 55.25 116.15 58.9 118.2 69.35 120.75 81.85 120.85 90.45 121.05 100.25 117.35 109.2 L114.25 115.5 114.2 115.5 113.4 115.5 Q104.65 114.95 102.6 103.0 101.7 91.25 100.1 83.2 101.9 102.6 99.0 123.5 L95.45 124.75 Q77.8 123.55 69.35 106.15 62.65 92.4 62.65 71.85 62.65 53.6 64.55 44.7 67.35 31.25 70.75 28.35 L72.6 28.35 M85.55 32.05 Q97.5 56.15 100.1 83.2 97.5 56.15 85.55 32.05 M53.7 31.15 L57.2 32.05 59.0 86.0 58.0 89.6 Q55.2 98.95 52.1 98.95 47.45 98.95 44.75 86.1 42.65 75.95 42.65 64.35 42.65 52.85 43.9 44.25 44.7 38.65 46.7 30.5 L47.85 30.5 52.5 30.9 53.45 31.1 53.7 31.15" fill="#ff9900" fill-rule="evenodd" stroke="none"/>
      <path d="M69.4 22.5 L69.75 21.95 69.55 23.05 69.4 22.5" fill="#339933" fill-rule="evenodd" stroke="none"/>
      <path d="M86.05 23.55 L86.15 23.65 85.85 25.55 85.85 25.65 85.7 25.55 Q86.05 24.95 86.05 23.55" fill="#32852b" fill-rule="evenodd" stroke="none"/>
      <path d="M91.3 16.9 Q92.1 15.95 93.45 15.2 95.45 14.15 97.3 14.15 99.65 14.15 100.6 15.0 101.3 15.7 102.3 18.15 101.9 17.8 101.25 17.6 L99.5 17.3 Q98.2 17.3 96.65 18.1 L94.95 19.45 94.65 19.1 Q93.5 18.0 91.3 16.9 M91.75 22.45 Q91.75 27.75 84.55 27.95 L85.85 25.65 85.85 25.55 86.15 23.65 86.15 23.1 Q86.15 19.45 83.75 17.5 81.4 15.6 77.1 15.6 L76.15 15.6 Q79.5 13.15 82.2 13.15 86.95 13.15 88.9 14.75 89.65 15.4 90.3 16.7 L90.75 17.6 90.85 17.9 91.65 20.3 91.75 22.45 M53.1 3.95 L53.2 3.95 54.4 5.85 54.3 3.4 Q55.5 2.75 57.3 1.95 59.4 1.0 61.0 0.4 L61.35 0.45 61.65 0.55 Q64.55 9.55 65.95 18.75 L66.55 18.7 Q67.65 18.7 68.65 20.55 L69.4 22.5 69.55 23.05 Q68.85 25.25 67.0 26.55 64.55 28.45 60.4 28.45 57.45 28.45 56.2 25.65 55.05 21.65 54.1 19.35 53.5 17.9 50.4 13.35 L47.45 9.1 Q47.45 7.2 51.3 4.95 L53.1 3.95 M61.35 21.35 Q63.85 19.0 65.95 18.75 63.85 19.0 61.35 21.35" fill="#53ba25" fill-rule="evenodd" stroke="none"/>
      <path d="M91.3 16.9 Q93.5 18.0 94.65 19.1 L94.95 19.45 91.75 22.45 91.65 20.3 90.85 17.9 90.75 17.6 91.3 16.9 M81.0 19.0 L80.1 19.0 Q77.75 19.1 75.8 22.1 73.8 25.05 72.6 28.35 L70.75 28.35 69.8 28.45 68.75 28.55 Q69.75 26.55 69.75 25.55 L69.55 23.05 69.75 25.55 Q69.75 26.55 68.75 28.55 L66.95 28.85 65.75 29.05 62.75 29.85 Q60.0 30.7 57.2 32.05 L53.7 31.15 53.65 30.95 51.85 27.1 49.45 22.85 47.45 19.9 Q44.35 15.7 40.85 12.75 42.15 5.8 47.3 1.55 L51.0 0.6 53.1 3.95 51.3 4.95 Q47.45 7.2 47.45 9.1 L50.4 13.35 Q53.5 17.9 54.1 19.35 55.05 21.65 56.2 25.65 57.45 28.45 60.4 28.45 64.55 28.45 67.0 26.55 68.85 25.25 69.55 23.05 L69.75 21.95 Q71.3 19.95 73.2 18.15 74.75 16.7 76.15 15.6 L77.1 15.6 Q81.4 15.6 83.75 17.5 86.15 19.45 86.15 23.1 L86.15 23.65 86.05 23.55 Q86.05 21.75 84.25 20.35 82.8 19.2 81.0 19.0 M54.3 3.4 L54.2 0.15 61.0 0.4 Q59.4 1.0 57.3 1.95 55.5 2.75 54.3 3.4" fill="#398f12" fill-rule="evenodd" stroke="none"/>
      <path d="M84.55 27.95 L84.05 27.95 Q82.75 27.95 81.6 27.25 L80.7 26.5 Q79.15 25.05 79.15 23.15 79.15 22.15 81.0 19.0 82.8 19.2 84.25 20.35 86.05 21.75 86.05 23.55 86.05 24.95 85.7 25.55 L85.85 25.65 84.55 27.95 M84.85 26.15 Q85.55 25.85 85.7 25.55 85.55 25.85 84.85 26.15" fill="#30780f" fill-rule="evenodd" stroke="none"/>
      <path d="M41.65 31.1 L41.1 30.5 Q39.7 28.7 39.7 26.65 39.7 25.7 40.1 24.75 38.5 22.65 37.35 21.85 35.85 20.85 32.8 20.85 L30.5 20.85 Q36.45 17.0 42.1 20.45 L43.35 21.25 Q45.25 20.05 47.45 19.9 L49.45 22.85 48.0 22.85 Q47.2 23.15 46.6 23.65 L46.45 23.75 45.25 24.75 Q44.1 26.05 44.1 27.5 44.1 29.05 45.15 30.55 L41.65 31.1 M40.1 24.75 Q40.65 23.3 42.25 22.05 L43.35 21.25 42.25 22.05 Q40.65 23.3 40.1 24.75" fill="#256309" fill-rule="evenodd" stroke="none"/>
      <path d="M45.15 30.55 Q44.1 29.05 44.1 27.5 44.1 26.05 45.25 24.75 L46.45 23.75 46.6 23.65 Q47.2 23.15 48.0 22.85 L49.45 22.85 51.85 27.1 50.2 27.7 49.25 28.1 49.2 27.9 Q49.2 26.95 48.8 26.05 49.2 26.95 49.2 27.9 L49.2 28.15 Q49.05 29.25 47.85 30.5 L46.7 30.5 45.15 30.55" fill="#1d4d07" fill-rule="evenodd" stroke="none"/>
      <path d="M21.8 120.55 Q0.45 119.15 0.0 84.2 -0.5 49.15 24.7 42.25 9.6 74.25 21.8 120.55" fill="#c96000" fill-rule="evenodd" stroke="none"/>
      <path d="M60.25 124.85 Q36.65 130.65 21.8 120.55 9.6 74.25 24.7 42.25 32.15 33.1 41.65 31.1 L45.15 30.55 46.7 30.5 Q44.7 38.65 43.9 44.25 42.65 52.85 42.65 64.35 42.65 75.95 44.75 86.1 47.45 98.95 52.1 98.95 55.2 98.95 58.0 89.6 L59.0 86.0 60.25 124.85" fill="#db7800" fill-rule="evenodd" stroke="none"/>
      <path d="M112.05 119.3 L110.4 120.3 109.45 120.8 Q104.0 123.95 99.0 123.5 101.9 102.6 100.1 83.2 101.7 91.25 102.6 103.0 104.65 114.95 113.4 115.5 L114.2 115.5 114.25 115.5 112.05 119.3" fill="#f08b10" fill-rule="evenodd" stroke="none"/>
      <path d="M107.1 38.6 L108.05 39.5 Q112.2 43.85 115.25 50.75 129.35 82.15 120.45 109.7 119.65 112.2 117.55 114.7 115.4 116.95 112.05 119.3 L114.25 115.5 117.35 109.2 Q121.05 100.25 120.85 90.45 120.75 81.85 118.2 69.35 116.15 58.9 114.6 55.25 109.75 43.65 107.6 39.6 L107.6 39.5 107.1 38.6" fill="#ffcc00" fill-rule="evenodd" stroke="none"/>
      <path d="M95.45 124.75 Q78.0 130.25 60.25 124.85 L59.0 86.0 57.2 32.05 Q60.0 30.7 62.75 29.85 L65.75 29.05 66.95 28.85 68.75 28.55 69.8 28.45 70.75 28.35 Q67.35 31.25 64.55 44.7 62.65 53.6 62.65 71.85 62.65 92.4 69.35 106.15 77.8 123.55 95.45 124.75" fill="url(#gradient1)" fill-rule="evenodd" stroke="none"/>
      <path d="M94.95 19.45 L96.65 18.1 Q98.2 17.3 99.5 17.3 L101.25 17.6 Q101.9 17.8 102.3 18.15 101.3 15.7 100.6 15.0 99.65 14.15 97.3 14.15 95.45 14.15 93.45 15.2 92.1 15.95 91.3 16.9 L90.75 17.6 90.3 16.7 Q89.65 15.4 88.9 14.75 86.95 13.15 82.2 13.15 79.5 13.15 76.15 15.6 74.75 16.7 73.2 18.15 71.3 19.95 69.75 21.95 L69.4 22.5 69.55 23.05 69.75 25.55 Q69.75 26.55 68.75 28.55 L69.8 28.45 70.75 28.35 72.6 28.35 75.95 28.65 Q80.9 29.35 85.55 32.05 98.45 30.3 107.1 38.6 L108.05 39.5 Q112.2 43.85 115.25 50.75 129.35 82.15 120.45 109.7 119.65 112.2 117.55 114.7 115.4 116.95 112.05 119.3 L110.4 120.3 109.45 120.8 Q104.0 123.95 99.0 123.5 L95.45 124.75 Q78.0 130.25 60.25 124.85 36.65 130.65 21.8 120.55 0.45 119.15 0.0 84.2 -0.5 49.15 24.7 42.25 32.15 33.1 41.65 31.1 L41.1 30.5 Q39.7 28.7 39.7 26.65 39.7 25.7 40.1 24.75 38.5 22.65 37.35 21.85 35.85 20.85 32.8 20.85 L30.5 20.85 Q36.45 17.0 42.1 20.45 L43.35 21.25 Q45.25 20.05 47.45 19.9 44.35 15.7 40.85 12.75 42.15 5.8 47.3 1.55 L51.0 0.6 53.1 3.95 53.2 3.95 54.4 5.85 54.3 3.4 54.2 0.15 61.0 0.4 61.35 0.45 61.65 0.55 Q64.55 9.55 65.95 18.75 L66.55 18.7 Q67.65 18.7 68.65 20.55 L69.4 22.5 M94.95 19.45 L91.75 22.45 Q91.75 27.75 84.55 27.95 L84.05 27.95 Q82.75 27.95 81.6 27.25 L80.7 26.5 Q79.15 25.05 79.15 23.15 79.15 22.15 81.0 19.0 L80.1 19.0 Q77.75 19.1 75.8 22.1 73.8 25.05 72.6 28.35 M91.75 22.45 L91.65 20.3 90.85 17.9 90.75 17.6 M81.0 19.0 Q82.8 19.2 84.25 20.35 86.05 21.75 86.05 23.55 86.05 24.95 85.7 25.55 85.55 25.85 84.85 26.15 M65.95 18.75 Q63.85 19.0 61.35 21.35 M43.35 21.25 L42.25 22.05 Q40.65 23.3 40.1 24.75 M45.15 30.55 Q44.1 29.05 44.1 27.5 44.1 26.05 45.25 24.75 L46.45 23.75 46.6 23.65 Q47.2 23.15 48.0 22.85 L49.45 22.85 47.45 19.9 M53.7 31.15 L57.2 32.05 Q60.0 30.7 62.75 29.85 L65.75 29.05 66.95 28.85 68.75 28.55 M53.45 31.1 L53.7 31.15 53.65 30.95 51.85 27.1 50.2 27.7 49.25 28.1 49.2 28.15 Q49.05 29.25 47.85 30.5 L52.5 30.9 53.45 31.1 M46.7 30.5 L47.85 30.5 M49.2 27.9 Q49.2 26.95 48.8 26.05 M49.2 28.15 L49.2 27.9 M46.7 30.5 L45.15 30.55 41.65 31.1 M49.45 22.85 L51.85 27.1" fill="none" stroke="#000000" stroke-linecap="round" stroke-linejoin="round" stroke-opacity="0.5019608" stroke-width="1.0"/>
      <path d="M100.1 83.2 Q97.5 56.15 85.55 32.05 M57.2 32.05 L59.0 86.0 60.25 124.85 M100.1 83.2 Q101.9 102.6 99.0 123.5 M24.7 42.25 Q9.6 74.25 21.8 120.55" fill="none" stroke="#000000" stroke-linecap="round" stroke-linejoin="round" stroke-opacity="0.3019608" stroke-width="1.0"/>
      <path d="M111.0 83.6 Q113.35 82.3 116.0 81.5 117.35 94.3 111.75 105.45 L107.3 104.75 Q111.6 94.8 111.0 83.6 M34.35 108.35 L31.15 109.35 Q18.35 96.25 19.8 82.05 L24.95 84.6 Q24.75 96.85 34.35 108.35" fill="#ad4a00" fill-rule="evenodd" stroke="none"/>
      <path d="M24.95 84.6 L40.35 92.05 41.55 91.05 Q44.75 88.6 49.6 86.4 L50.7 86.85 Q58.2 89.85 63.2 92.8 L63.45 92.65 68.15 89.85 Q71.55 87.9 75.3 86.05 L75.7 85.85 Q80.9 88.1 85.05 90.1 L86.35 90.8 Q89.7 87.4 95.55 83.4 L97.45 82.05 104.7 88.45 Q107.5 85.45 111.0 83.6 111.6 94.8 107.3 104.75 L100.25 103.45 98.85 103.85 Q69.95 111.75 43.7 106.2 L41.9 105.8 34.35 108.35 Q24.75 96.85 24.95 84.6" fill="url(#gradient2)" fill-rule="evenodd" stroke="none"/>
      <path d="M24.95 84.6 L40.35 92.05 41.55 91.05 Q44.75 88.6 49.6 86.4 L50.7 86.85 Q58.2 89.85 63.2 92.8 L63.45 92.65 68.15 89.85 Q71.55 87.9 75.3 86.05 L75.7 85.85 Q80.9 88.1 85.05 90.1 L86.35 90.8 Q89.7 87.4 95.55 83.4 L97.45 82.05 104.7 88.45 Q107.5 85.45 111.0 83.6 113.35 82.3 116.0 81.5 117.35 94.3 111.75 105.45 L107.3 104.75 100.25 103.45 98.85 103.85 Q69.95 111.75 43.7 106.2 L41.9 105.8 34.35 108.35 31.15 109.35 Q18.35 96.25 19.8 82.05 L24.95 84.6 Z" fill="none" stroke="#000000" stroke-linecap="round" stroke-linejoin="round" stroke-opacity="0.5019608" stroke-width="1.0"/>
      <path d="M124.15 92.2 Q124.15 103.55 108.3 111.4 92.5 119.35 70.0 119.35 47.45 119.35 31.65 111.4 15.85 103.55 15.85 92.2 15.85 80.9 31.65 72.95 47.45 65.05 70.0 65.05 92.5 65.05 108.3 72.95 124.15 80.9 124.15 92.2" fill="url(#gradient3)" fill-rule="evenodd" stroke="none"/>
      <path d="M107.9 43.65 L107.95 43.6 107.95 43.65 107.9 43.65 Q107.95 49.95 105.95 57.35 102.5 67.1 96.35 69.45 89.6 65.1 87.55 59.35 95.35 50.35 107.9 43.65 M58.1 62.35 Q55.7 68.9 46.75 73.7 38.6 71.15 33.6 60.4 30.65 52.1 30.55 44.95 47.5 52.4 58.1 62.35" fill="#ffcc00" fill-rule="evenodd" stroke="none"/>
      <path d="M107.9 43.65 L107.95 43.65 Q108.85 51.5 106.25 61.1 102.75 70.9 96.55 73.25 88.0 67.85 86.95 60.0 L87.55 59.35 Q89.6 65.1 96.35 69.45 102.5 67.1 105.95 57.35 107.95 49.95 107.9 43.65 M58.1 62.35 L58.75 62.95 Q57.7 71.65 46.6 77.6 38.4 75.0 33.4 64.15 29.6 53.55 30.4 44.85 L30.55 44.95 Q30.65 52.1 33.6 60.4 38.6 71.15 46.75 73.7 55.7 68.9 58.1 62.35" fill="#ad4a00" fill-rule="evenodd" stroke="none"/>
      <path d="M107.95 43.65 L107.95 43.6 107.9 43.65 Q95.35 50.35 87.55 59.35 L86.95 60.0 Q88.0 67.85 96.55 73.25 102.75 70.9 106.25 61.1 108.85 51.5 107.95 43.65 M30.55 44.95 L30.4 44.85 Q29.6 53.55 33.4 64.15 38.4 75.0 46.6 77.6 57.7 71.65 58.75 62.95 L58.1 62.35 Q47.5 52.4 30.55 44.95" fill="none" stroke="#000000" stroke-linecap="round" stroke-linejoin="round" stroke-opacity="0.5019608" stroke-width="1.0"/>
      <path d="M96.9 39.35 Q105.65 39.35 111.8 45.45 117.9 51.6 117.9 60.35 117.9 69.1 111.8 75.2 105.65 81.3 96.9 81.3 88.15 81.3 82.05 75.2 75.95 69.1 75.95 60.35 75.95 51.6 82.05 45.45 88.15 39.35 96.9 39.35" fill="url(#gradient4)" fill-rule="evenodd" stroke="none"/>
      <path d="M57.65 47.4 Q63.8 53.55 63.8 62.3 63.8 71.05 57.65 77.1 51.5 83.25 42.75 83.25 34.0 83.25 27.95 77.1 21.8 71.05 21.8 62.3 21.8 53.55 27.95 47.4 34.0 41.25 42.75 41.25 51.5 41.25 57.65 47.4" fill="url(#gradient5)" fill-rule="evenodd" stroke="none"/>
      <path d="M97.0 54.6 Q102.35 60.7 97.0 67.55 91.7 61.1 97.0 54.6 M45.5 55.5 Q51.95 62.85 45.5 71.1 39.1 63.3 45.5 55.5" fill="#ffffff" fill-rule="evenodd" stroke="none"/>
      <path d="M78.55 96.35 Q84.95 94.0 90.95 93.55 99.5 92.95 106.4 97.1 114.0 104.9 113.85 114.25 L34.15 114.25 Q33.95 110.65 34.3 106.55 L29.7 101.4 Q34.35 96.1 42.5 94.75 47.05 93.95 52.7 94.5 61.3 95.2 72.4 98.95 75.55 97.4 78.55 96.35" fill="url(#gradient6)" fill-rule="evenodd" stroke="none"/>
    </g>
    <linearGradient gradientTransform="matrix(0.0, 0.0225, -0.0389, 0.0, 30.1, 15.65)" gradientUnits="userSpaceOnUse" id="gradient0" spreadMethod="pad" x1="-819.2" x2="819.2">
      <stop offset="0.0" stop-color="#cccccc"/>
      <stop offset="1.0" stop-color="#999999"/>
    </linearGradient>
    <linearGradient gradientTransform="matrix(0.0089, -0.0334, 0.0584, 0.0155, 76.5, 69.6)" gradientUnits="userSpaceOnUse" id="gradient1" spreadMethod="pad" x1="-819.2" x2="819.2">
      <stop offset="0.0" stop-color="#db7800"/>
      <stop offset="0.9882352941176471" stop-color="#ff9900"/>
    </linearGradient>
    <linearGradient gradientTransform="matrix(0.0, -0.0072, 1.3351, 0.0, -645.25, 101.05)" gradientUnits="userSpaceOnUse" id="gradient2" spreadMethod="pad" x1="-819.2" x2="819.2">
      <stop offset="0.0" stop-color="#f09f0e"/>
      <stop offset="1.0" stop-color="#ffcc00"/>
    </linearGradient>
    <radialGradient cx="0" cy="0" gradientTransform="matrix(0.069, 0.0, 0.0, 0.0347, 70.0, 92.2)" gradientUnits="userSpaceOnUse" id="gradient3" r="819.2" spreadMethod="pad">
      <stop offset="0.0" stop-color="#ffff00"/>
      <stop offset="1.0" stop-color="#ffff00" stop-opacity="0.0"/>
    </radialGradient>
    <radialGradient cx="0" cy="0" gradientTransform="matrix(0.0268, 0.0, 0.0, 0.0268, 96.9, 60.35)" gradientUnits="userSpaceOnUse" id="gradient4" r="819.2" spreadMethod="pad">
      <stop offset="0.0" stop-color="#ffff00"/>
      <stop offset="1.0" stop-color="#ffff00" stop-opacity="0.0"/>
    </radialGradient>
    <radialGradient cx="0" cy="0" gradientTransform="matrix(0.0268, 0.0, 0.0, 0.0268, 42.75, 62.3)" gradientUnits="userSpaceOnUse" id="gradient5" r="819.2" spreadMethod="pad">
      <stop offset="0.0" stop-color="#ffff00"/>
      <stop offset="1.0" stop-color="#ffff00" stop-opacity="0.0"/>
    </radialGradient>
    <linearGradient gradientTransform="matrix(0.0, 0.0116, -0.0301, 0.0, 73.85, 101.9)" gradientUnits="userSpaceOnUse" id="gradient6" spreadMethod="pad" x1="-819.2" x2="819.2">
      <stop offset="0.0" stop-color="#ffdd00" stop-opacity="0.5019608"/>
      <stop offset="1.0" stop-color="#ffdb00" stop-opacity="0.0"/>
    </linearGradient>
    <g id="shape1" transform="matrix(1.0, 0.0, 0.0, 1.0, 64.4, 60.75)">
      <path d="M-14.8 -47.5 L-14.9 -48.05 Q-14.85 -48.75 -14.0 -48.9 -13.25 -48.4 -13.25 -47.25 L-13.25 -47.2 Q-13.25 -46.1 -13.75 -44.5 L-14.0 -43.7 Q-0.55 -43.1 7.35 -41.55 L14.45 -39.95 19.25 -39.3 Q26.2 -38.3 33.05 -36.75 L35.55 -36.2 36.3 -35.8 36.8 -35.5 37.95 -35.35 38.1 -35.35 40.05 -34.9 40.2 -34.85 41.25 -34.25 41.85 -33.85 Q44.05 -31.65 44.2 -27.3 L44.2 -21.0 Q44.15 -17.35 43.9 -15.9 43.55 -13.8 42.0 -12.05 L41.25 -11.35 Q39.7 -10.15 37.6 -10.05 L37.55 -9.9 Q37.3 -8.55 35.65 -7.15 L34.7 -6.45 Q31.7 -4.5 28.4 -5.05 25.85 -5.45 23.9 -7.15 L23.6 -7.4 Q22.05 -9.0 22.1 -9.65 19.45 -10.35 18.8 -12.55 L18.75 -12.7 16.85 -11.6 Q14.15 -10.1 13.45 -9.9 8.1 -8.1 4.35 -7.4 L3.1 -7.15 -7.8 -5.65 Q-11.85 -5.4 -21.25 -5.95 L-36.4 -7.15 -46.75 -8.5 -56.25 -10.05 -59.1 -10.45 Q-61.8 -10.75 -62.35 -11.45 L-63.4 -13.0 -63.95 -15.3 -64.25 -18.4 -64.4 -21.35 Q-64.5 -32.95 -62.35 -44.4 -61.05 -51.25 -58.65 -57.9 L-58.25 -59.25 Q-57.7 -61.25 -57.15 -60.55 -56.65 -59.95 -56.7 -58.95 L-56.75 -58.8 -57.05 -57.65 Q-60.95 -47.1 -62.25 -35.75 -63.0 -28.35 -62.75 -21.05 L-62.7 -20.4 -62.1 -16.2 -61.95 -15.3 -61.65 -13.55 -60.8 -12.6 -57.3 -12.05 -56.25 -11.85 -51.55 -11.15 -30.65 -8.45 -11.15 -7.35 -2.05 -7.8 4.05 -8.9 8.95 -10.3 Q12.05 -11.25 13.25 -11.75 L15.05 -12.85 17.3 -13.8 18.55 -14.6 18.65 -16.15 18.25 -16.05 15.35 -15.65 5.2 -16.25 4.55 -16.6 Q4.3 -16.8 4.35 -17.2 4.45 -17.75 5.1 -17.7 L5.45 -17.65 8.3 -17.25 Q13.55 -16.8 18.55 -18.05 L19.25 -18.35 20.45 -19.75 20.8 -20.05 22.4 -20.65 22.25 -21.05 22.3 -21.55 Q22.55 -22.95 23.6 -22.55 24.55 -22.25 24.25 -20.85 L24.25 -20.8 25.75 -20.65 25.8 -20.55 Q25.7 -20.15 24.35 -19.65 L22.25 -19.1 Q20.7 -18.4 20.4 -17.2 L20.25 -16.85 20.1 -14.65 20.1 -14.3 Q20.35 -11.6 22.75 -11.2 L25.5 -10.85 25.7 -10.9 27.2 -10.8 30.6 -11.15 31.35 -11.3 33.35 -11.9 34.1 -12.15 Q35.2 -12.8 35.55 -13.65 L36.05 -15.6 37.2 -25.7 37.15 -28.2 36.95 -30.75 Q37.15 -32.4 36.5 -33.5 36.1 -34.2 35.3 -34.6 L34.15 -34.95 25.0 -37.0 17.8 -37.8 16.85 -37.7 10.8 -38.9 3.0 -40.45 -12.1 -42.05 -29.05 -42.55 -29.15 -42.7 -29.25 -43.15 Q-29.25 -44.15 -27.0 -44.05 L-15.9 -43.75 -14.75 -47.05 -14.8 -47.5 M40.55 -32.7 L38.6 -33.45 38.1 -33.6 38.2 -33.45 38.35 -32.3 38.7 -29.35 38.85 -26.5 38.45 -21.4 37.7 -15.4 36.75 -12.65 36.0 -11.45 37.7 -11.5 Q39.25 -11.8 40.45 -13.05 L41.25 -14.15 41.55 -14.6 42.45 -16.2 42.7 -21.0 42.7 -21.25 Q42.95 -25.55 42.05 -29.9 L41.55 -32.0 41.5 -32.05 41.25 -32.25 40.55 -32.7 M28.8 -6.65 Q30.85 -6.3 32.65 -7.15 L33.15 -7.4 Q34.5 -8.1 35.15 -8.9 L35.65 -9.8 35.85 -10.1 35.6 -10.15 34.35 -10.4 33.7 -10.25 Q31.85 -9.5 29.8 -9.2 L28.25 -9.05 25.55 -9.25 24.2 -9.35 25.0 -8.6 Q26.15 -7.65 27.25 -7.15 L28.8 -6.65" fill="#000000" fill-rule="evenodd" stroke="none"/>
      <path d="M-53.75 -58.55 Q-32.65 -55.5 -14.8 -47.5 L-14.75 -47.05 -15.9 -43.75 -27.0 -44.05 Q-29.25 -44.15 -29.25 -43.15 L-29.15 -42.7 -29.05 -42.55 -12.1 -42.05 3.0 -40.45 10.8 -38.9 16.85 -37.7 17.8 -37.8 25.0 -37.0 34.15 -34.95 Q35.0 -33.15 35.0 -31.5 35.0 -26.3 33.7 -19.4 32.65 -13.85 31.35 -11.3 L30.6 -11.15 27.2 -10.8 25.7 -10.9 25.5 -10.85 22.75 -11.2 Q20.35 -11.6 20.1 -14.3 L20.1 -14.65 20.25 -16.85 20.4 -17.2 Q20.7 -18.4 22.25 -19.1 L24.35 -19.65 Q25.7 -20.15 25.8 -20.55 L25.75 -20.65 24.25 -20.8 24.25 -20.85 Q24.55 -22.25 23.6 -22.55 22.55 -22.95 22.3 -21.55 L22.25 -21.05 22.4 -20.65 20.8 -20.05 20.45 -19.75 19.25 -18.35 18.55 -18.05 Q13.55 -16.8 8.3 -17.25 L5.45 -17.65 5.1 -17.7 Q4.45 -17.75 4.35 -17.2 4.3 -16.8 4.55 -16.6 L5.2 -16.25 15.35 -15.65 18.25 -16.05 18.65 -16.15 18.55 -14.6 17.3 -13.8 15.05 -12.85 13.25 -11.75 Q12.05 -11.25 8.95 -10.3 L4.05 -8.9 -2.05 -7.8 -11.15 -7.35 -30.65 -8.45 -51.55 -11.15 -56.25 -13.65 Q-58.95 -15.3 -59.55 -17.85 -59.75 -18.8 -59.75 -23.9 -59.75 -32.65 -57.65 -43.55 L-56.25 -50.0 Q-55.1 -54.65 -53.75 -58.55 M37.7 -11.5 L36.0 -11.45 36.75 -12.65 37.7 -15.4 38.45 -21.4 38.85 -26.5 38.7 -29.35 38.35 -32.3 38.2 -33.45 38.1 -33.6 38.6 -33.45 40.55 -32.7 40.7 -31.85 40.75 -28.0 Q40.75 -22.15 39.7 -17.15 38.9 -13.3 37.7 -11.5 M28.8 -6.65 L27.25 -7.15 Q26.15 -7.65 25.0 -8.6 L24.2 -9.35 25.55 -9.25 28.25 -9.05 29.8 -9.2 Q31.85 -9.5 33.7 -10.25 L34.35 -10.4 35.6 -10.15 35.85 -10.1 35.65 -9.8 35.15 -8.9 Q34.5 -8.1 33.15 -7.4 L32.65 -7.15 Q30.85 -6.3 28.8 -6.65" fill="#999999" fill-rule="evenodd" stroke="none"/>
      <path d="M-56.7 -58.95 L-56.25 -58.9 -53.75 -58.55 Q-55.1 -54.65 -56.25 -50.0 L-57.65 -43.55 Q-59.75 -32.65 -59.75 -23.9 -59.75 -18.8 -59.55 -17.85 -58.95 -15.3 -56.25 -13.65 L-51.55 -11.15 -56.25 -11.85 -57.3 -12.05 -60.8 -12.6 -61.65 -13.55 -61.95 -15.3 -62.1 -16.2 -62.7 -20.4 -62.75 -21.05 Q-63.0 -28.35 -62.25 -35.75 -60.95 -47.1 -57.05 -57.65 L-56.75 -58.8 -56.7 -58.95 M34.15 -34.95 L35.3 -34.6 Q36.1 -34.2 36.5 -33.5 37.15 -32.4 36.95 -30.75 L37.15 -28.2 37.2 -25.7 36.05 -15.6 35.55 -13.65 Q35.2 -12.8 34.1 -12.15 L33.35 -11.9 31.35 -11.3 Q32.65 -13.85 33.7 -19.4 35.0 -26.3 35.0 -31.5 35.0 -33.15 34.15 -34.95 M37.7 -11.5 Q38.9 -13.3 39.7 -17.15 40.75 -22.15 40.75 -28.0 L40.7 -31.85 40.55 -32.7 41.25 -32.25 41.5 -32.05 41.55 -32.0 42.05 -29.9 Q42.95 -25.55 42.7 -21.25 L42.7 -21.0 42.45 -16.2 41.55 -14.6 41.25 -14.15 40.45 -13.05 Q39.25 -11.8 37.7 -11.5" fill="#bdbdbd" fill-rule="evenodd" stroke="none"/>
      <path d="M-4.3 -12.8 L-3.95 -13.7 -3.9 -14.35 -2.85 -13.85 0.25 -13.4 Q9.75 -13.1 16.4 -18.05 16.5 -21.45 19.8 -23.6 21.25 -24.55 22.8 -24.95 L23.1 -25.45 Q22.55 -25.8 22.1 -26.2 20.95 -27.45 21.05 -28.15 21.3 -29.5 23.15 -27.35 L23.95 -26.7 24.05 -26.75 24.75 -26.35 24.8 -26.2 Q25.5 -25.85 26.4 -25.6 L27.05 -25.4 27.2 -25.35 Q28.15 -25.0 28.05 -24.65 L27.7 -24.15 26.2 -24.3 24.9 -24.65 Q23.2 -24.35 21.15 -23.1 18.65 -21.65 18.2 -20.55 17.25 -18.1 17.4 -15.15 17.45 -15.0 17.1 -15.0 16.85 -15.0 16.65 -15.9 8.35 -9.8 -3.1 -12.2 L-4.5 -12.55 -4.3 -12.8" fill="#000000" fill-rule="evenodd" stroke="none"/>
      <path d="M27.2 -25.35 L27.05 -25.4 26.4 -25.6 Q25.5 -25.85 24.8 -26.2 L24.75 -26.35 24.05 -26.75 23.95 -26.7 23.15 -27.35 Q21.3 -29.5 21.05 -28.15 20.95 -27.45 22.1 -26.2 22.55 -25.8 23.1 -25.45 L22.8 -24.95 Q21.25 -24.55 19.8 -23.6 16.5 -21.45 16.4 -18.05 9.75 -13.1 0.25 -13.4 L-2.85 -13.85 -3.9 -14.35 -3.95 -13.7 -4.3 -12.8 -7.85 -21.65 Q-10.4 -28.3 -11.15 -31.1 -8.1 -33.4 5.3 -35.85 18.4 -38.25 22.05 -37.25 25.7 -36.3 29.7 -29.8 33.65 -23.4 27.2 -25.35" fill="#999999" fill-rule="evenodd" stroke="none"/>
    </g>
  </defs>
</svg>
