<?xml version="1.0" encoding="UTF-8" standalone="no"?>
<svg xmlns:xlink="http://www.w3.org/1999/xlink" height="531.5px" width="460.6px" xmlns="http://www.w3.org/2000/svg">
  <g transform="matrix(1.0, 0.0, 0.0, 1.0, 193.65, 334.05)">
    <use height="142.7" transform="matrix(1.0, 0.0, 0.0, 1.0, -92.75, -162.0)" width="119.5" xlink:href="#shape0"/>
    <use height="303.15" transform="matrix(0.2589, -0.3681, 0.3681, 0.2589, -105.8616, -128.3656)" width="130.0" xlink:href="#sprite0"/>
    <use height="102.0" transform="matrix(1.0, 0.0, 0.0, 1.0, -52.5, -121.3)" width="73.9" xlink:href="#shape2"/>
  </g>
  <defs>
    <g id="shape0" transform="matrix(1.0, 0.0, 0.0, 1.0, 92.75, 162.0)">
      <path d="M12.45 -106.9 Q13.9 -109.0 14.0 -109.65 14.65 -112.85 13.0 -114.95 L11.0 -116.8 9.25 -118.3 7.0 -119.6 Q5.55 -119.9 3.2 -117.6 L1.0 -115.2 -4.25 -108.15 -9.35 -101.8 -11.95 -98.05 Q-13.4 -96.0 -15.05 -95.8 -14.85 -97.05 -13.5 -98.85 L-11.5 -101.55 -12.65 -102.35 Q-14.5 -103.6 -15.7 -103.8 -17.15 -104.05 -18.5 -103.1 -20.0 -102.1 -22.15 -99.4 L-24.65 -95.95 Q-27.1 -92.25 -27.7 -89.05 -28.25 -86.3 -26.6 -83.7 L-24.5 -81.2 -22.55 -78.75 -21.3 -77.1 -20.55 -77.15 -20.15 -77.05 -19.9 -76.95 -19.85 -76.65 -19.85 -76.05 -20.15 -75.55 -31.55 -62.9 Q-34.1 -59.75 -35.4 -57.25 -35.9 -58.4 -35.25 -60.1 L-38.05 -59.1 Q-38.95 -58.7 -40.35 -57.4 L-42.05 -55.6 -42.75 -55.0 Q-43.9 -56.9 -39.7 -59.75 -35.75 -62.45 -34.15 -62.15 L-34.1 -62.15 -33.6 -62.9 -31.2 -65.55 -22.55 -75.95 -22.3 -76.35 -24.3 -78.4 -26.5 -81.4 Q-28.15 -83.35 -28.75 -84.8 L-29.3 -86.7 Q-29.4 -88.4 -28.95 -90.45 L-28.0 -92.95 Q-25.5 -98.15 -22.25 -101.85 -18.45 -106.1 -15.65 -105.6 L-12.45 -103.8 -10.75 -102.65 -8.25 -105.75 -4.75 -109.95 0.75 -117.25 Q4.4 -121.75 7.15 -121.25 8.45 -121.0 12.55 -117.75 L14.6 -115.7 Q16.25 -113.1 15.45 -108.95 L11.8 -103.4 10.9 -102.1 13.25 -102.1 13.75 -102.0 Q15.7 -101.3 16.9 -99.8 22.95 -92.35 15.9 -84.55 L15.85 -84.4 Q18.0 -84.0 19.45 -82.6 L20.45 -81.45 Q22.0 -78.5 21.0 -75.15 L20.9 -74.9 20.1 -72.9 Q19.3 -70.7 17.7 -68.15 L15.8 -65.15 Q9.35 -56.2 3.8 -46.65 L0.05 -40.7 Q-4.7 -33.35 -10.3 -26.45 -13.55 -23.1 -16.95 -21.5 -28.85 -18.65 -41.3 -19.5 L-46.25 -19.8 -50.85 -20.4 Q-52.05 -20.65 -52.5 -21.25 L-51.65 -21.6 -51.2 -21.8 -49.25 -22.0 -48.45 -21.95 -45.85 -21.8 Q-35.3 -20.9 -24.65 -21.7 -20.3 -22.0 -16.5 -23.9 -14.4 -25.0 -12.4 -26.8 -8.65 -31.45 -5.25 -36.35 L0.15 -44.75 Q5.9 -54.2 12.1 -63.55 L16.95 -71.15 18.0 -73.25 Q19.35 -75.65 19.25 -77.95 19.15 -79.55 18.35 -81.2 L17.95 -81.9 17.45 -82.35 16.05 -83.15 15.2 -83.35 14.7 -83.45 13.4 -83.6 13.9 -84.1 14.25 -84.85 15.45 -86.5 16.7 -88.8 Q19.6 -95.55 13.4 -100.2 L12.9 -100.3 11.25 -100.1 10.5 -100.0 9.5 -99.9 9.2 -100.0 8.2 -98.7 6.6 -96.8 Q5.5 -97.7 6.5 -99.15 L8.45 -101.3 11.05 -105.05 12.45 -106.9" fill="#000000" fill-rule="evenodd" stroke="none"/>
      <path d="M3.2 -117.6 Q5.55 -119.9 7.0 -119.6 L9.25 -118.3 11.0 -116.8 13.0 -114.95 Q14.65 -112.85 14.0 -109.65 13.9 -109.0 12.45 -106.9 12.95 -108.2 12.7 -109.35 12.25 -111.35 9.45 -114.25 6.7 -116.75 4.85 -117.25 L3.2 -117.6 M10.5 -100.0 L11.25 -100.1 12.9 -100.3 13.4 -100.2 Q19.6 -95.55 16.7 -88.8 L17.05 -90.7 Q17.25 -93.55 13.35 -97.3 L10.5 -100.0 M15.2 -83.35 L16.05 -83.15 17.45 -82.35 17.95 -81.9 18.35 -81.2 Q19.15 -79.55 19.25 -77.95 L18.35 -79.15 15.2 -83.35 M-5.25 -36.35 Q-8.65 -31.45 -12.4 -26.8 -14.4 -25.0 -16.5 -23.9 -20.3 -22.0 -24.65 -21.7 -35.3 -20.9 -45.85 -21.8 L-48.45 -21.95 -49.25 -22.0 Q-44.9 -22.95 -38.25 -23.4 L-23.0 -24.55 Q-19.75 -24.9 -16.75 -26.65 -13.75 -28.2 -11.55 -30.8 -9.9 -32.65 -5.25 -36.35" fill="#bdbdbd" fill-rule="evenodd" stroke="none"/>
      <path d="M3.2 -117.6 L4.85 -117.25 Q6.7 -116.75 9.45 -114.25 12.25 -111.35 12.7 -109.35 12.95 -108.2 12.45 -106.9 L11.05 -105.05 8.45 -101.3 6.5 -99.15 Q5.5 -97.7 6.6 -96.8 L8.2 -98.7 9.2 -100.0 9.5 -99.9 10.5 -100.0 13.35 -97.3 Q17.25 -93.55 17.05 -90.7 L16.7 -88.8 15.45 -86.5 14.25 -84.85 13.9 -84.1 13.4 -83.6 14.7 -83.45 15.2 -83.35 18.35 -79.15 19.25 -77.95 Q19.35 -75.65 18.0 -73.25 L16.95 -71.15 12.1 -63.55 Q5.9 -54.2 0.15 -44.75 L-5.25 -36.35 Q-9.9 -32.65 -11.55 -30.8 -13.75 -28.2 -16.75 -26.65 -19.75 -24.9 -23.0 -24.55 L-38.25 -23.4 Q-44.9 -22.95 -49.25 -22.0 L-51.2 -21.8 -51.15 -26.15 Q-51.0 -29.25 -50.45 -32.25 -49.1 -39.7 -45.9 -47.0 -43.25 -52.25 -42.05 -55.6 L-40.35 -57.4 Q-38.95 -58.7 -38.05 -59.1 L-35.25 -60.1 Q-35.9 -58.4 -35.4 -57.25 -34.1 -59.75 -31.55 -62.9 L-20.15 -75.55 -19.85 -76.05 -19.85 -76.65 -19.9 -76.95 -20.15 -77.05 -20.55 -77.15 -21.3 -77.1 -22.55 -78.75 -24.5 -81.2 -26.6 -83.7 Q-28.25 -86.3 -27.7 -89.05 -27.1 -92.25 -24.65 -95.95 L-22.15 -99.4 Q-20.0 -102.1 -18.5 -103.1 -17.15 -104.05 -15.7 -103.8 -14.5 -103.6 -12.65 -102.35 L-11.5 -101.55 -13.5 -98.85 Q-14.85 -97.05 -15.05 -95.8 -13.4 -96.0 -11.95 -98.05 L-9.35 -101.8 -4.25 -108.15 1.0 -115.2 3.2 -117.6" fill="#999999" fill-rule="evenodd" stroke="none"/>
      <path d="M18.7 -80.35 L12.85 -83.05 23.1 -75.05 Q20.05 -70.15 15.65 -67.1 -4.4 -82.6 -24.2 -95.65 L-21.1 -98.45 Q-16.0 -103.15 -14.9 -104.7 L-14.5 -105.3 18.7 -80.35" fill="#995400" fill-rule="evenodd" stroke="none"/>
      <path d="M-12.65 -109.2 Q6.5 -95.2 26.25 -82.2 25.7 -79.85 24.75 -77.7 L18.7 -80.35 -14.5 -105.3 -12.75 -109.0 -12.65 -109.2" fill="#804600" fill-rule="evenodd" stroke="none"/>
      <path d="M-87.8 -153.5 Q-85.3 -156.45 -81.5 -158.55 -78.65 -159.0 -77.1 -156.65 -72.2 -160.0 -65.8 -161.05 -53.95 -163.1 -44.1 -156.2 -34.3 -149.3 -32.25 -137.45 -31.55 -133.7 -31.8 -130.1 -24.2 -129.55 -19.45 -120.45 L-21.25 -115.55 -22.2 -113.55 -22.8 -112.3 -22.95 -111.9 -23.05 -111.75 -23.25 -111.5 -23.2 -111.45 -24.9 -108.6 Q-27.1 -109.5 -29.75 -111.35 -33.75 -114.2 -37.45 -117.85 L-34.65 -122.1 -35.05 -123.35 -36.75 -128.0 Q-39.05 -133.1 -44.95 -137.25 -54.75 -144.15 -65.75 -147.25 -73.85 -149.5 -79.65 -149.1 -80.8 -147.3 -82.1 -145.6 L-82.4 -146.5 Q-84.15 -151.05 -86.85 -152.95 -87.35 -153.3 -87.8 -153.5 M-67.85 -157.7 Q-70.55 -155.8 -70.55 -153.1 -70.55 -150.4 -68.3 -151.6 -66.2 -152.75 -62.3 -153.3 -58.45 -153.8 -54.95 -152.15 -51.55 -150.55 -51.55 -153.25 -51.6 -155.9 -54.4 -157.8 -57.2 -159.7 -61.1 -159.65 -65.0 -159.6 -67.85 -157.7 M-77.1 -156.65 L-76.55 -155.65 Q-77.8 -152.2 -79.65 -149.1 -77.8 -152.2 -76.55 -155.65 L-77.1 -156.65 M-30.95 -128.75 L-32.45 -125.9 -32.75 -125.4 -34.65 -122.1 -32.75 -125.4 -32.45 -125.9 Q-32.0 -128.0 -31.8 -130.1 -32.0 -128.0 -32.45 -125.9 L-30.95 -128.75" fill="#666666" fill-rule="evenodd" stroke="none"/>
      <path d="M-67.85 -157.7 Q-65.0 -159.6 -61.1 -159.65 -57.2 -159.7 -54.4 -157.8 -51.6 -155.9 -51.55 -153.25 -51.55 -150.55 -54.95 -152.15 -58.45 -153.8 -62.3 -153.3 -66.2 -152.75 -68.3 -151.6 -70.55 -150.4 -70.55 -153.1 -70.55 -155.8 -67.85 -157.7 M-38.6 -116.25 L-37.45 -117.85 Q-33.75 -114.2 -29.75 -111.35 -27.1 -109.5 -24.9 -108.6 L-27.8 -104.7 -30.75 -108.25 Q-35.5 -113.85 -38.6 -116.25" fill="#ffffff" fill-rule="evenodd" stroke="none"/>
      <path d="M-31.75 -100.55 L-35.8 -97.25 Q-47.05 -100.45 -49.2 -105.8 -52.3 -104.45 -55.85 -103.9 -67.7 -101.85 -77.5 -108.75 -87.35 -115.65 -89.4 -127.5 -90.5 -133.9 -89.0 -139.75 -91.75 -140.0 -92.25 -143.55 -91.35 -149.35 -87.8 -153.5 -87.35 -153.3 -86.85 -152.95 -84.15 -151.05 -82.4 -146.5 L-82.1 -145.6 Q-80.8 -147.3 -79.65 -149.1 -73.85 -149.5 -65.75 -147.25 -54.75 -144.15 -44.95 -137.25 -39.05 -133.1 -36.75 -128.0 L-35.05 -123.35 -34.65 -122.1 -37.45 -117.85 -38.6 -116.25 Q-41.6 -112.1 -45.2 -107.9 -47.1 -106.7 -49.2 -105.8 -47.1 -106.7 -45.2 -107.9 -41.6 -112.1 -38.6 -116.25 -35.5 -113.85 -30.75 -108.25 L-27.8 -104.7 -31.75 -100.55 M-45.2 -107.9 L-47.25 -105.6 -45.2 -107.9 M-89.0 -139.75 L-88.0 -139.75 Q-84.65 -142.45 -82.1 -145.6 -84.65 -142.45 -88.0 -139.75 L-89.0 -139.75" fill="#999999" fill-rule="evenodd" stroke="none"/>
      <path d="M-21.25 -115.55 L-12.65 -109.2 -12.75 -109.0 -14.5 -105.3 -16.25 -106.6 -23.2 -111.45 -23.25 -111.5 -23.05 -111.75 -22.95 -111.9 -22.8 -112.3 -22.2 -113.55 -21.25 -115.55 M-23.2 -111.45 L-23.05 -111.75 -23.2 -111.45" fill="#5c3200" fill-rule="evenodd" stroke="none"/>
      <path d="M-24.2 -95.65 L-31.75 -100.55 -27.8 -104.7 -24.9 -108.6 -23.2 -111.45 -16.25 -106.6 -14.5 -105.3 -14.9 -104.7 Q-16.0 -103.15 -21.1 -98.45 L-24.2 -95.65" fill="#733f00" fill-rule="evenodd" stroke="none"/>
      <path d="M-12.65 -109.2 Q6.5 -95.2 26.25 -82.2 25.7 -79.85 24.75 -77.7 L18.7 -80.35 12.85 -83.05 23.1 -75.05 Q20.05 -70.15 15.65 -67.1 -4.4 -82.6 -24.2 -95.65 L-31.75 -100.55 -35.8 -97.25 Q-47.05 -100.45 -49.2 -105.8 -52.3 -104.45 -55.85 -103.9 -67.7 -101.85 -77.5 -108.75 -87.35 -115.65 -89.4 -127.5 -90.5 -133.9 -89.0 -139.75 -91.75 -140.0 -92.25 -143.55 -91.35 -149.35 -87.8 -153.5 -85.3 -156.45 -81.5 -158.55 -78.65 -159.0 -77.1 -156.65 -72.2 -160.0 -65.8 -161.05 -53.95 -163.1 -44.1 -156.2 -34.3 -149.3 -32.25 -137.45 -31.55 -133.7 -31.8 -130.1 -24.2 -129.55 -19.45 -120.45 L-21.25 -115.55 -12.65 -109.2 M-79.65 -149.1 Q-77.8 -152.2 -76.55 -155.65 L-77.1 -156.65 M-49.2 -105.8 Q-47.1 -106.7 -45.2 -107.9 -41.6 -112.1 -38.6 -116.25 L-37.45 -117.85 -34.65 -122.1 -32.75 -125.4 -32.45 -125.9 Q-32.0 -128.0 -31.8 -130.1 M-79.65 -149.1 Q-80.8 -147.3 -82.1 -145.6 -84.65 -142.45 -88.0 -139.75 L-89.0 -139.75 M-47.25 -105.6 L-45.2 -107.9 M-32.45 -125.9 L-30.95 -128.75 M-23.05 -111.75 L-22.95 -111.9 -22.8 -112.3 -22.2 -113.55 -21.25 -115.55 M-23.05 -111.75 L-23.2 -111.45 -24.9 -108.6 -27.8 -104.7 -31.75 -100.55" fill="none" stroke="#000000" stroke-linecap="round" stroke-linejoin="round" stroke-opacity="0.6627451" stroke-width="1.0"/>
    </g>
    <g id="sprite0" transform="matrix(1.0, 0.0, 0.0, 1.0, 65.0, 151.55)">
      <use height="303.15" transform="matrix(1.0, 0.0, 0.0, 1.0, -65.0, -151.55)" width="130.0" xlink:href="#shape1"/>
    </g>
    <g id="shape1" transform="matrix(1.0, 0.0, 0.0, 1.0, 65.0, 151.55)">
      <path d="M-33.65 -19.7 Q-29.35 -17.05 -24.7 -15.1 L-1.05 -13.75 3.3 -13.75 14.65 -14.15 22.95 -14.8 24.35 -14.95 Q28.7 -16.75 32.85 -19.2 41.55 -4.6 31.05 15.65 25.4 17.45 19.85 18.65 L14.95 19.55 11.95 20.0 10.65 20.2 10.55 20.25 2.5 20.85 Q-2.95 21.0 -8.25 20.65 -14.6 20.15 -20.8 18.8 -26.45 17.6 -32.0 15.65 -40.55 -8.95 -33.65 -19.7 M31.5 -15.85 L24.35 -14.95 31.5 -15.85 M-31.45 -15.85 L-24.7 -15.1 -31.45 -15.85" fill="url(#gradient0)" fill-rule="evenodd" stroke="none"/>
      <path d="M23.1 -135.3 L22.0 -133.15 Q14.15 -130.9 6.15 -130.4 1.45 -130.1 -3.3 -130.4 -12.3 -130.95 -21.5 -133.65 L-22.75 -135.45 Q-25.85 -140.8 -20.0 -146.15 -8.3 -151.95 3.75 -150.85 12.3 -150.1 21.0 -145.9 25.4 -141.1 23.1 -135.3" fill="url(#gradient1)" fill-rule="evenodd" stroke="none"/>
      <path d="M-20.8 18.8 Q-14.6 20.15 -8.25 20.65 -2.95 21.0 2.5 20.85 L10.55 20.25 10.65 20.2 11.95 20.0 14.95 19.55 19.85 18.65 Q19.5 30.5 19.3 42.4 18.3 95.05 20.0 147.7 14.95 149.65 9.8 150.6 L4.35 122.2 2.95 151.0 Q-9.9 151.75 -21.05 147.7 -18.5 91.4 -20.05 38.75 -20.35 28.7 -20.8 18.8" fill="url(#gradient2)" fill-rule="evenodd" stroke="none"/>
      <path d="M-22.75 -135.45 L-21.5 -133.65 Q-12.3 -130.95 -3.3 -130.4 1.45 -130.1 6.15 -130.4 14.15 -130.9 22.0 -133.15 L23.1 -135.3 Q35.45 -130.65 45.6 -120.5 64.5 -101.6 64.5 -74.9 64.5 -48.2 45.6 -29.3 39.6 -23.3 32.85 -19.2 28.7 -16.75 24.35 -14.95 L22.95 -14.8 14.65 -14.15 3.3 -13.75 -1.05 -13.75 -24.7 -15.1 Q-29.35 -17.05 -33.65 -19.7 -39.95 -23.65 -45.6 -29.3 -64.5 -48.2 -64.5 -74.9 -64.5 -101.6 -45.6 -120.5 -35.35 -130.75 -22.75 -135.45" fill="url(#gradient3)" fill-rule="evenodd" stroke="none"/>
      <path d="M-22.75 -135.45 L-21.5 -133.65 Q-12.3 -130.95 -3.3 -130.4 1.45 -130.1 6.15 -130.4 14.15 -130.9 22.0 -133.15 L23.1 -135.3 Q25.4 -141.1 21.0 -145.9 12.3 -150.1 3.75 -150.85 -8.3 -151.95 -20.0 -146.15 -25.85 -140.8 -22.75 -135.45 -35.35 -130.75 -45.6 -120.5 -64.5 -101.6 -64.5 -74.9 -64.5 -48.2 -45.6 -29.3 -39.95 -23.65 -33.65 -19.7 -29.35 -17.05 -24.7 -15.1 L-1.05 -13.75 3.3 -13.75 14.65 -14.15 22.95 -14.8 24.35 -14.95 Q28.7 -16.75 32.85 -19.2 39.6 -23.3 45.6 -29.3 64.5 -48.2 64.5 -74.9 64.5 -101.6 45.6 -120.5 35.45 -130.65 23.1 -135.3 M24.35 -14.95 L31.5 -15.85 M19.85 18.65 L14.95 19.55 11.95 20.0 10.65 20.2 10.55 20.25 2.5 20.85 Q-2.95 21.0 -8.25 20.65 -14.6 20.15 -20.8 18.8 -20.35 28.7 -20.05 38.75 -18.5 91.4 -21.05 147.7 -9.9 151.75 2.95 151.0 L4.35 122.2 9.8 150.6 Q14.95 149.65 20.0 147.7 18.3 95.05 19.3 42.4 19.5 30.5 19.85 18.65 25.4 17.45 31.05 15.65 41.55 -4.6 32.85 -19.2 M-24.7 -15.1 L-31.45 -15.85 M-20.8 18.8 Q-26.45 17.6 -32.0 15.65 -40.55 -8.95 -33.65 -19.7" fill="none" stroke="#000000" stroke-linecap="round" stroke-linejoin="round" stroke-opacity="0.6627451" stroke-width="1.0"/>
    </g>
    <linearGradient gradientTransform="matrix(-0.0449, -1.0E-4, 1.0E-4, -0.0248, 0.55, 0.7)" gradientUnits="userSpaceOnUse" id="gradient0" spreadMethod="pad" x1="-819.2" x2="819.2">
      <stop offset="0.0" stop-color="#000000"/>
      <stop offset="1.0" stop-color="#ffffff"/>
    </linearGradient>
    <linearGradient gradientTransform="matrix(-0.0281, 0.0075, -0.0033, -0.0123, 0.05, -140.65)" gradientUnits="userSpaceOnUse" id="gradient1" spreadMethod="pad" x1="-819.2" x2="819.2">
      <stop offset="0.0" stop-color="#000000"/>
      <stop offset="1.0" stop-color="#ffffff"/>
    </linearGradient>
    <linearGradient gradientTransform="matrix(0.0, 0.0881, -0.0808, 0.0, -0.5, 84.9)" gradientUnits="userSpaceOnUse" id="gradient2" spreadMethod="pad" x1="-819.2" x2="819.2">
      <stop offset="0.0" stop-color="#000000"/>
      <stop offset="1.0" stop-color="#ffffff"/>
    </linearGradient>
    <linearGradient gradientTransform="matrix(0.0, -0.0567, 0.0743, 0.0, 4.0, -49.0)" gradientUnits="userSpaceOnUse" id="gradient3" spreadMethod="pad" x1="-819.2" x2="819.2">
      <stop offset="0.0" stop-color="#000000"/>
      <stop offset="1.0" stop-color="#ffffff" stop-opacity="0.5137255"/>
    </linearGradient>
    <g id="shape2" transform="matrix(1.0, 0.0, 0.0, 1.0, 59.45, 122.5)">
      <path d="M-29.25 -86.35 Q-27.6 -90.9 -24.6 -94.9 L-19.65 -101.35 -16.3 -105.5 -15.2 -106.95 -11.7 -111.15 -6.2 -118.45 Q-2.55 -122.95 0.2 -122.45 1.5 -122.2 5.6 -118.95 L7.65 -116.9 Q9.3 -114.3 8.5 -110.15 L4.85 -104.6 3.95 -103.3 6.3 -103.3 6.8 -103.2 Q8.75 -102.5 9.95 -101.0 16.0 -93.55 8.95 -85.75 L8.9 -85.6 Q11.05 -85.2 12.5 -83.8 L13.5 -82.65 Q15.05 -79.7 14.05 -76.35 L13.95 -76.1 13.15 -74.1 Q12.35 -71.9 10.75 -69.35 L8.85 -66.35 Q2.4 -57.4 -3.15 -47.85 L-6.9 -41.9 Q-11.65 -34.55 -17.25 -27.65 -20.5 -24.3 -23.9 -22.7 -35.8 -19.85 -48.25 -20.7 L-53.2 -21.0 -57.8 -21.6 Q-59.0 -21.85 -59.45 -22.45 L-58.6 -22.8 Q-58.4 -22.85 -58.15 -23.0 L-56.2 -23.2 -55.4 -23.15 -52.8 -23.0 Q-42.25 -22.1 -31.6 -22.9 -27.25 -23.2 -23.45 -25.1 -21.35 -26.2 -19.35 -28.0 -15.6 -32.65 -12.2 -37.55 -9.4 -41.6 -6.8 -45.95 L5.15 -64.75 10.0 -72.35 11.05 -74.45 Q12.4 -76.85 12.3 -79.15 12.2 -80.75 11.4 -82.4 L11.0 -83.1 10.5 -83.55 9.1 -84.35 8.25 -84.55 7.75 -84.65 6.45 -84.8 6.95 -85.3 7.3 -86.05 8.5 -87.7 9.75 -90.0 Q12.65 -96.75 6.45 -101.4 L5.95 -101.5 4.3 -101.3 3.55 -101.2 2.55 -101.1 2.25 -101.2 1.25 -99.9 -0.35 -98.0 Q-1.45 -98.9 -0.45 -100.35 L1.5 -102.5 4.1 -106.25 5.5 -108.1 Q6.95 -110.2 7.05 -110.85 7.7 -114.05 6.05 -116.15 L4.05 -118.0 2.3 -119.5 Q0.75 -120.7 0.05 -120.8 -1.4 -121.1 -3.75 -118.8 L-5.95 -116.4 -11.2 -109.35 -16.3 -103.0 -17.05 -101.9 Q-19.6 -98.4 -22.4 -95.0 -25.15 -91.6 -27.3 -87.85 L-28.7 -85.35 -28.9 -85.3 -29.05 -85.4 -29.2 -85.9 -29.25 -86.35 M-49.0 -56.8 L-49.7 -56.2 Q-50.85 -58.1 -46.65 -60.95 -42.7 -63.65 -41.1 -63.35 L-41.05 -63.35 -40.55 -64.1 -38.15 -66.75 -29.5 -77.15 -29.25 -77.55 -31.25 -79.6 -32.7 -81.75 -31.85 -82.85 -31.45 -82.4 -29.5 -79.95 -28.25 -78.3 -27.5 -78.35 -27.1 -78.25 -26.85 -78.15 -26.8 -77.85 -26.8 -77.25 -27.1 -76.75 -38.5 -64.1 Q-41.05 -60.95 -42.35 -58.45 -42.85 -59.6 -42.2 -61.3 L-45.0 -60.3 Q-45.9 -59.9 -47.3 -58.6 L-49.0 -56.8" fill="#000000" fill-rule="evenodd" stroke="none"/>
      <path d="M-3.75 -118.8 Q-1.4 -121.1 0.05 -120.8 0.75 -120.7 2.3 -119.5 L4.05 -118.0 6.05 -116.15 Q7.7 -114.05 7.05 -110.85 6.95 -110.2 5.5 -108.1 6.0 -109.4 5.75 -110.55 5.3 -112.55 2.5 -115.45 -0.25 -117.95 -2.1 -118.45 L-3.75 -118.8 M3.55 -101.2 L4.3 -101.3 5.95 -101.5 6.45 -101.4 Q12.65 -96.75 9.75 -90.0 L10.1 -91.9 Q10.3 -94.75 6.4 -98.5 L3.55 -101.2 M8.25 -84.55 L9.1 -84.35 10.5 -83.55 11.0 -83.1 11.4 -82.4 Q12.2 -80.75 12.3 -79.15 L11.4 -80.35 8.25 -84.55 M-12.2 -37.55 Q-15.6 -32.65 -19.35 -28.0 -21.35 -26.2 -23.45 -25.1 -27.25 -23.2 -31.6 -22.9 -42.25 -22.1 -52.8 -23.0 L-55.4 -23.15 -56.2 -23.2 -45.2 -24.6 -29.95 -25.75 Q-26.7 -26.1 -23.7 -27.85 -20.7 -29.4 -18.5 -32.0 -16.85 -33.85 -12.2 -37.55" fill="#bdbdbd" fill-rule="evenodd" stroke="none"/>
      <path d="M-29.25 -86.35 L-29.2 -85.9 -29.05 -85.4 -28.9 -85.3 -28.7 -85.35 -27.3 -87.85 Q-25.15 -91.6 -22.4 -95.0 -19.6 -98.4 -17.05 -101.9 L-16.3 -103.0 -11.2 -109.35 -5.95 -116.4 -3.75 -118.8 -2.1 -118.45 Q-0.25 -117.95 2.5 -115.45 5.3 -112.55 5.75 -110.55 6.0 -109.4 5.5 -108.1 L4.1 -106.25 1.5 -102.5 -0.45 -100.35 Q-1.45 -98.9 -0.35 -98.0 L1.25 -99.9 2.25 -101.2 2.55 -101.1 3.55 -101.2 6.4 -98.5 Q10.3 -94.75 10.1 -91.9 L9.75 -90.0 8.5 -87.7 7.3 -86.05 6.95 -85.3 6.45 -84.8 7.75 -84.65 8.25 -84.55 11.4 -80.35 12.3 -79.15 Q12.4 -76.85 11.05 -74.45 L10.0 -72.35 5.15 -64.75 -6.8 -45.95 Q-9.4 -41.6 -12.2 -37.55 -16.85 -33.85 -18.5 -32.0 -20.7 -29.4 -23.7 -27.85 -26.7 -26.1 -29.95 -25.75 L-45.2 -24.6 -56.2 -23.2 -58.15 -23.0 -58.1 -27.35 Q-57.95 -30.45 -57.4 -33.45 -56.05 -40.9 -52.85 -48.2 -50.2 -53.45 -49.0 -56.8 L-47.3 -58.6 Q-45.9 -59.9 -45.0 -60.3 L-42.2 -61.3 Q-42.85 -59.6 -42.35 -58.45 -41.05 -60.95 -38.5 -64.1 L-27.1 -76.75 -26.8 -77.25 -26.8 -77.85 -26.85 -78.15 -27.1 -78.25 -27.5 -78.35 -28.25 -78.3 -29.5 -79.95 -31.45 -82.4 -31.85 -82.85 -31.2 -83.7 -29.25 -86.35" fill="#999999" fill-rule="evenodd" stroke="none"/>
    </g>
  </defs>
</svg>
