<?xml version="1.0" encoding="UTF-8" standalone="no"?>
<svg xmlns:xlink="http://www.w3.org/1999/xlink" height="531.5px" width="460.6px" xmlns="http://www.w3.org/2000/svg">
  <g transform="matrix(1.0, 0.0, 0.0, 1.0, 193.65, 334.05)">
    <use height="72.6" transform="matrix(1.0, 0.0, 0.0, 1.0, -72.85, -57.65)" width="178.05" xlink:href="#shape0"/>
    <use height="362.55" transform="matrix(0.3994, 0.0, 0.0, 0.3994, -39.0997, -57.8497)" width="494.25" xlink:href="#shape1"/>
    <use height="72.6" transform="matrix(1.0, 0.0, 0.0, 1.0, -72.85, -57.65)" width="159.65" xlink:href="#shape2"/>
  </g>
  <defs>
    <g id="shape0" transform="matrix(1.0, 0.0, 0.0, 1.0, 72.85, 57.65)">
      <path d="M87.2 -45.6 L83.4 -46.1 81.35 -46.55 79.25 -46.55 76.8 -46.0 Q75.45 -45.5 74.05 -44.6 L71.65 -43.15 70.3 -42.05 69.05 -40.75 Q68.3 -40.05 67.25 -38.4 L65.85 -36.05 65.35 -35.15 64.05 -35.05 64.15 -35.25 Q65.35 -37.95 67.15 -40.3 68.95 -42.65 70.75 -43.75 L74.45 -46.1 Q76.4 -47.35 78.65 -47.6 L83.4 -47.35 86.75 -47.05 91.15 -46.6 95.75 -46.1 Q98.3 -45.6 99.6 -44.0 L100.05 -43.2 Q102.75 -42.45 104.05 -40.7 L104.7 -39.55 Q105.2 -38.2 105.2 -34.85 105.2 -32.1 104.05 -28.3 L103.35 -26.3 101.4 -21.25 100.5 -20.0 99.0 -18.25 98.8 -18.0 Q96.35 -16.6 91.8 -16.6 L86.45 -16.8 86.45 -16.7 86.35 -16.65 86.35 -16.7 86.45 -16.8 86.55 -16.95 86.8 -18.55 91.8 -18.2 Q95.35 -18.2 97.45 -19.35 99.4 -20.45 100.1 -22.45 100.65 -24.1 100.65 -26.85 L100.6 -31.85 100.7 -36.35 Q100.55 -38.5 99.2 -41.2 98.95 -42.9 98.3 -43.55 97.25 -44.6 92.4 -45.05 L87.2 -45.6 M80.9 -27.0 Q81.05 -28.55 85.15 -29.8 L86.05 -30.05 Q85.65 -30.45 85.4 -31.25 L85.25 -32.8 Q85.25 -34.35 85.65 -35.9 86.25 -37.95 87.3 -38.65 L87.5 -38.6 87.5 -38.3 86.9 -36.3 Q86.25 -34.25 86.25 -32.9 L86.4 -31.5 86.95 -30.9 87.45 -30.3 88.15 -30.35 88.35 -30.35 89.65 -30.55 91.2 -30.15 91.0 -29.95 89.7 -29.85 89.45 -29.85 89.25 -29.55 90.5 -28.95 Q92.2 -28.05 92.75 -27.15 92.55 -26.85 92.15 -26.85 L90.75 -27.65 Q89.4 -28.45 89.0 -28.75 L87.95 -29.2 85.65 -28.7 Q82.75 -28.0 82.05 -27.0 L80.9 -27.0 M85.5 -26.1 L85.65 -26.0 85.5 -26.05 85.5 -26.1 M101.9 -40.7 L100.9 -41.6 Q101.8 -39.8 102.0 -36.9 L102.05 -31.85 102.05 -26.1 Q103.8 -30.45 104.05 -35.2 L104.1 -36.95 104.05 -37.45 Q103.75 -39.1 101.9 -40.7" fill="#000000" fill-rule="evenodd" stroke="none"/>
      <path d="M65.35 -35.15 L65.85 -36.05 67.25 -38.4 Q68.3 -40.05 69.05 -40.75 L70.3 -42.05 71.65 -43.15 74.05 -44.6 Q75.45 -45.5 76.8 -46.0 L79.25 -46.55 81.35 -46.55 83.4 -46.1 87.2 -45.6 89.5 -44.6 91.85 -44.0 93.7 -43.5 94.8 -43.05 Q97.35 -42.4 98.15 -40.45 L98.7 -38.9 Q99.1 -37.55 99.05 -35.95 L98.85 -25.85 98.6 -22.9 98.45 -22.0 97.85 -20.2 97.45 -19.35 Q95.35 -18.2 91.8 -18.2 L86.8 -18.55 86.7 -18.55 86.8 -21.0 Q86.8 -24.6 85.85 -25.65 L85.55 -25.9 85.75 -25.95 85.65 -26.0 85.5 -26.1 85.35 -26.2 85.25 -26.4 83.9 -26.75 83.7 -26.85 83.6 -26.8 82.05 -27.0 Q82.75 -28.0 85.65 -28.7 L87.95 -29.2 89.0 -28.75 Q89.4 -28.45 90.75 -27.65 L92.15 -26.85 Q92.55 -26.85 92.75 -27.15 92.2 -28.05 90.5 -28.95 L89.25 -29.55 89.45 -29.85 89.7 -29.85 91.0 -29.95 91.2 -30.15 89.65 -30.55 88.35 -30.35 88.15 -30.35 87.45 -30.3 86.95 -30.9 86.4 -31.5 86.25 -32.9 Q86.25 -34.25 86.9 -36.3 L87.5 -38.3 87.5 -38.6 87.3 -38.65 Q86.25 -37.95 85.65 -35.9 85.25 -34.35 85.25 -32.8 L85.4 -31.25 Q85.65 -30.45 86.05 -30.05 L85.15 -29.8 Q81.05 -28.55 80.9 -27.0 L79.8 -26.9 79.5 -26.9 79.2 -27.65 78.8 -28.8 Q78.1 -30.45 77.15 -30.65 L76.55 -31.15 Q71.8 -35.35 65.35 -35.15" fill="#999999" fill-rule="evenodd" stroke="none"/>
      <path d="M97.45 -19.35 L97.85 -20.2 98.45 -22.0 98.6 -22.9 98.85 -25.85 99.05 -35.95 Q99.1 -37.55 98.7 -38.9 L98.15 -40.45 Q97.35 -42.4 94.8 -43.05 L93.7 -43.5 91.85 -44.0 89.5 -44.6 87.2 -45.6 92.4 -45.05 Q97.25 -44.6 98.3 -43.55 98.95 -42.9 99.2 -41.2 100.55 -38.5 100.7 -36.35 L100.6 -31.85 100.65 -26.85 Q100.65 -24.1 100.1 -22.45 99.4 -20.45 97.45 -19.35 M101.9 -40.7 Q103.75 -39.1 104.05 -37.45 L104.1 -36.95 104.05 -35.2 Q103.8 -30.45 102.05 -26.1 L102.05 -31.85 102.0 -36.9 Q101.8 -39.8 100.9 -41.6 L101.9 -40.7" fill="#bdbdbd" fill-rule="evenodd" stroke="none"/>
      <path d="M-18.35 -41.7 L-18.3 -42.15 -18.25 -43.6 -17.0 -41.8 -16.7 -41.05 Q-16.75 -39.65 -17.35 -37.8 -18.05 -35.65 -18.9 -34.55 L-20.05 -32.8 -21.3 -31.15 Q-21.75 -30.5 -22.95 -29.5 L-23.25 -29.25 -23.85 -28.8 Q-25.55 -27.45 -26.4 -27.15 -23.6 -26.3 -18.7 -26.3 L-19.0 -27.35 -19.2 -28.85 Q-19.2 -30.75 -17.85 -33.15 -15.75 -36.85 -11.85 -35.65 -3.75 -37.2 -0.85 -33.05 0.95 -30.45 0.95 -24.5 L0.95 -24.35 2.05 -24.2 Q6.0 -23.6 8.0 -22.75 10.9 -21.5 11.9 -19.7 12.6 -18.5 12.6 -16.3 12.6 -14.25 11.85 -12.65 11.2 -11.3 10.1 -10.4 L10.1 -10.35 10.05 -10.05 Q12.25 -9.2 12.85 -7.3 L13.1 -4.25 Q13.1 -1.35 11.05 0.9 L9.65 2.35 Q9.0 2.95 9.0 3.3 9.0 4.05 9.5 5.4 9.9 6.75 9.35 8.9 8.75 11.05 5.85 13.0 3.0 14.95 -9.2 14.95 L-9.25 14.95 -36.25 14.85 Q-48.95 14.6 -55.8 12.85 L-56.25 12.75 Q-64.7 10.4 -68.6 4.55 -72.85 -1.75 -72.85 -13.65 -72.85 -21.55 -70.5 -30.95 -68.25 -40.15 -64.65 -47.05 -62.55 -51.1 -59.85 -55.15 L-58.65 -56.85 -55.85 -57.45 -55.1 -57.65 -56.25 -56.1 Q-59.05 -52.35 -61.45 -47.75 -65.8 -39.55 -68.1 -29.85 -70.15 -21.3 -70.15 -13.8 L-70.2 -9.5 Q-70.2 -7.55 -69.5 -4.6 -68.8 -1.65 -66.25 2.4 -64.0 5.95 -60.8 7.9 L-59.95 8.35 Q-56.2 10.3 -46.1 11.7 L-25.1 12.5 -10.65 11.9 -4.5 12.15 3.4 11.5 4.25 11.25 4.8 11.15 Q6.3 10.7 7.15 9.35 L7.7 8.25 7.9 7.7 8.0 6.55 Q8.0 5.4 7.25 4.3 L6.7 3.65 5.9 2.95 4.8 2.75 3.2 2.2 3.1 1.8 Q4.2 1.45 7.35 1.75 L7.65 1.8 Q8.95 1.1 10.0 -0.2 11.9 -2.5 11.9 -4.8 11.9 -6.5 10.2 -8.05 L8.75 -9.1 8.3 -9.35 4.9 -9.25 3.55 -9.4 3.5 -9.55 3.4 -10.1 Q3.4 -10.8 5.15 -11.0 L7.0 -11.05 8.85 -11.05 9.7 -12.4 Q11.15 -14.45 11.15 -16.15 11.15 -17.6 10.55 -18.7 9.7 -20.35 7.7 -21.05 L6.3 -21.85 1.85 -22.45 0.9 -22.55 -6.2 -22.3 -11.6 -22.45 -13.15 -22.5 -14.4 -22.6 -14.5 -22.85 -14.6 -23.5 Q-14.6 -24.5 -12.35 -24.55 L-4.0 -24.45 -2.65 -24.6 -1.2 -24.55 -1.35 -25.65 -1.25 -28.6 Q-1.95 -32.25 -4.2 -33.15 L-6.35 -33.55 -11.85 -33.75 -12.55 -33.7 -14.25 -33.75 Q-15.85 -33.4 -16.9 -32.0 -18.1 -30.35 -18.1 -27.75 L-17.95 -26.4 -18.2 -25.8 -18.25 -25.75 -18.2 -25.5 -19.8 -25.15 -21.8 -24.9 Q-23.85 -24.9 -26.95 -26.1 L-27.9 -26.5 -31.1 -27.9 Q-33.0 -28.6 -38.3 -28.8 L-40.4 -28.85 -43.9 -28.9 -45.7 -29.0 -45.85 -29.0 -46.1 -29.0 -44.45 -29.7 Q-42.75 -30.35 -41.55 -30.4 L-36.3 -30.85 -35.35 -30.75 Q-37.85 -32.65 -40.2 -33.75 L-40.1 -33.9 -40.05 -33.95 Q-37.1 -33.6 -35.15 -32.25 L-32.75 -30.05 -31.8 -29.5 Q-30.0 -29.1 -27.75 -27.65 -25.95 -28.5 -24.5 -29.8 L-24.05 -30.3 -23.75 -30.55 -23.3 -31.25 -21.65 -33.6 -20.9 -34.8 -19.55 -37.45 -18.95 -38.45 -18.55 -40.05 -18.4 -41.35 -18.35 -41.7" fill="#000000" fill-rule="evenodd" stroke="none"/>
      <path d="M-56.25 -56.1 L-53.2 -56.35 -53.15 -56.35 -54.9 -54.0 -57.6 -49.85 Q-58.95 -47.55 -59.85 -44.75 -60.0 -44.15 -60.3 -43.75 -60.6 -42.65 -60.9 -42.3 L-61.6 -40.6 -62.6 -37.95 -63.95 -33.45 -64.7 -30.55 Q-64.85 -29.1 -65.1 -28.4 L-65.4 -27.25 -65.7 -26.0 Q-65.9 -23.85 -66.25 -22.75 L-66.55 -19.8 -66.8 -18.35 -66.85 -17.45 -67.15 -14.5 -67.35 -13.0 -67.55 -10.95 Q-67.65 -10.1 -67.4 -9.7 -67.1 -6.35 -66.3 -3.85 L-64.85 1.2 -61.9 6.25 -60.8 7.9 Q-64.0 5.95 -66.25 2.4 -68.8 -1.65 -69.5 -4.6 -70.2 -7.55 -70.2 -9.5 L-70.15 -13.8 Q-70.15 -21.3 -68.1 -29.85 -65.8 -39.55 -61.45 -47.75 -59.05 -52.35 -56.25 -56.1 M-45.85 -29.0 L-45.7 -29.0 -43.9 -28.9 -40.4 -28.85 -38.3 -28.8 Q-33.0 -28.6 -31.1 -27.9 L-27.9 -26.5 -27.85 -26.45 Q-26.65 -26.0 -26.1 -24.85 L-27.25 -24.4 -29.9 -24.3 -35.25 -24.45 -39.7 -24.6 -42.65 -24.45 -48.95 -24.1 -52.2 -23.5 -54.8 -22.8 Q-55.7 -22.4 -56.3 -22.8 -54.4 -25.45 -50.95 -26.9 L-48.85 -27.75 Q-47.5 -28.25 -46.55 -28.75 L-45.85 -29.0 M-6.35 -33.55 L-4.2 -33.15 Q-1.95 -32.25 -1.25 -28.6 L-1.35 -25.65 -1.2 -24.55 -2.65 -24.6 -2.95 -26.05 -3.3 -29.0 -3.55 -30.2 -3.95 -31.3 -4.8 -32.55 -6.35 -33.55 M1.85 -22.45 L6.3 -21.85 7.7 -21.05 Q9.7 -20.35 10.55 -18.7 11.15 -17.6 11.15 -16.15 11.15 -14.45 9.7 -12.4 L8.85 -11.05 7.0 -11.05 7.0 -11.25 7.15 -12.4 7.6 -13.9 7.6 -17.45 Q7.55 -18.45 6.95 -19.25 6.55 -20.2 5.65 -21.0 4.4 -22.05 3.0 -22.3 L1.85 -22.45 M8.75 -9.1 L10.2 -8.05 Q11.9 -6.5 11.9 -4.8 11.9 -2.5 10.0 -0.2 8.95 1.1 7.65 1.8 L7.35 1.75 Q7.55 0.2 8.15 -0.8 L8.55 -2.65 8.8 -3.85 8.95 -6.8 8.75 -9.1 M7.25 4.3 Q8.0 5.4 8.0 6.55 L7.9 7.7 7.7 8.25 7.15 9.35 Q6.3 10.7 4.8 11.15 5.95 9.35 6.75 7.1 L7.25 4.3" fill="#bdbdbd" fill-rule="evenodd" stroke="none"/>
      <path d="M-53.15 -56.35 L-52.05 -56.3 -47.35 -56.0 -42.05 -54.75 -37.55 -53.05 -35.3 -52.25 -31.0 -50.1 -23.8 -45.8 Q-22.9 -44.95 -21.8 -44.25 L-19.5 -42.65 -18.35 -41.7 -18.4 -41.35 -18.55 -40.05 -18.95 -38.45 -19.55 -37.45 -20.9 -34.8 -21.65 -33.6 -23.3 -31.25 -23.75 -30.55 -24.05 -30.3 -24.5 -29.8 Q-25.95 -28.5 -27.75 -27.65 -30.0 -29.1 -31.8 -29.5 L-32.75 -30.05 -35.15 -32.25 Q-37.1 -33.6 -40.05 -33.95 L-40.1 -33.9 -40.2 -33.75 Q-37.85 -32.65 -35.35 -30.75 L-36.3 -30.85 -41.55 -30.4 Q-42.75 -30.35 -44.45 -29.7 L-46.1 -29.0 -45.85 -29.0 -46.55 -28.75 Q-47.5 -28.25 -48.85 -27.75 L-50.95 -26.9 Q-54.4 -25.45 -56.3 -22.8 -55.7 -22.4 -54.8 -22.8 L-52.2 -23.5 -48.95 -24.1 -42.65 -24.45 -39.7 -24.6 -35.25 -24.45 -29.9 -24.3 -27.25 -24.4 -26.1 -24.85 Q-26.65 -26.0 -27.85 -26.45 L-27.9 -26.5 -26.95 -26.1 Q-23.85 -24.9 -21.8 -24.9 L-19.8 -25.15 -18.2 -25.5 -18.25 -25.75 -18.2 -25.8 -17.95 -26.4 -18.1 -27.75 Q-18.1 -30.35 -16.9 -32.0 -15.85 -33.4 -14.25 -33.75 L-12.55 -33.7 -11.85 -33.75 -6.35 -33.55 -4.8 -32.55 -3.95 -31.3 -3.55 -30.2 -3.3 -29.0 -2.95 -26.05 -2.65 -24.6 -4.0 -24.45 -12.35 -24.55 Q-14.6 -24.5 -14.6 -23.5 L-14.5 -22.85 -14.4 -22.6 -13.15 -22.5 -11.6 -22.45 -6.2 -22.3 0.9 -22.55 1.85 -22.45 3.0 -22.3 Q4.4 -22.05 5.65 -21.0 6.55 -20.2 6.95 -19.25 7.55 -18.45 7.6 -17.45 L7.6 -13.9 7.15 -12.4 7.0 -11.25 7.0 -11.05 5.15 -11.0 Q3.4 -10.8 3.4 -10.1 L3.5 -9.55 3.55 -9.4 4.9 -9.25 8.3 -9.35 8.75 -9.1 8.95 -6.8 8.8 -3.85 8.55 -2.65 8.15 -0.8 Q7.55 0.2 7.35 1.75 4.2 1.45 3.1 1.8 L3.2 2.2 4.8 2.75 5.9 2.95 6.7 3.65 7.25 4.3 6.75 7.1 Q5.95 9.35 4.8 11.15 L4.25 11.25 3.4 11.5 -4.5 12.15 -10.65 11.9 -25.1 12.5 -46.1 11.7 Q-56.2 10.3 -59.95 8.35 L-60.8 7.9 -61.9 6.25 -64.85 1.2 -66.3 -3.85 Q-67.1 -6.35 -67.4 -9.7 -67.65 -10.1 -67.55 -10.95 L-67.35 -13.0 -67.15 -14.5 -66.85 -17.45 -66.8 -18.35 -66.55 -19.8 -66.25 -22.75 Q-65.9 -23.85 -65.7 -26.0 L-65.4 -27.25 -65.1 -28.4 Q-64.85 -29.1 -64.7 -30.55 L-63.95 -33.45 -62.6 -37.95 -61.6 -40.6 -60.9 -42.3 Q-60.6 -42.65 -60.3 -43.75 -60.0 -44.15 -59.85 -44.75 -58.95 -47.55 -57.6 -49.85 L-54.9 -54.0 -53.15 -56.35" fill="#999999" fill-rule="evenodd" stroke="none"/>
    </g>
    <g id="shape1" transform="matrix(1.0, 0.0, 0.0, 1.0, 0.5, 0.5)">
      <path d="M460.85 237.15 L466.1 238.3 Q479.25 241.85 487.05 249.75 494.9 257.65 492.85 265.3 491.2 271.4 484.0 274.5 484.9 279.45 482.6 283.45 480.2 287.65 475.1 289.3 468.45 281.85 473.65 272.6 478.5 270.0 481.1 267.1 487.7 259.75 479.15 250.7 469.2 243.95 460.85 237.15 M406.7 288.8 Q409.5 290.1 412.4 291.75 426.45 299.85 432.95 311.35 439.55 322.8 434.85 330.95 431.05 337.5 421.75 338.85 421.3 344.8 417.4 348.7 414.45 351.65 410.35 352.65 403.8 343.3 407.15 334.0 L407.15 333.95 410.45 333.45 Q416.85 331.95 420.7 329.45 430.55 323.0 423.55 310.0 414.2 299.15 406.7 288.8 M255.6 279.8 L256.1 284.85 256.2 286.35 Q257.1 298.6 256.65 309.8 L256.2 313.85 Q253.5 298.05 250.35 286.35 L249.95 284.85 248.25 279.25 255.6 279.8 M0.0 207.05 Q7.65 183.85 29.75 171.7 L35.0 174.6 Q11.8 185.15 0.0 207.05 M79.95 4.75 L84.95 6.15 Q100.3 12.3 109.9 24.2 L108.6 31.8 Q150.45 32.55 159.6 51.0 162.9 57.75 160.9 63.2 158.15 64.35 155.4 65.15 154.95 39.3 108.6 31.8 L96.0 105.95 91.25 133.45 Q101.05 66.65 97.0 30.55 95.9 16.0 79.95 4.75 M122.1 108.95 L118.45 119.6 Q140.15 120.4 152.15 144.0 169.8 145.9 200.2 139.5 218.05 135.65 250.6 120.65 259.5 116.55 269.95 113.6 L274.1 114.7 Q218.55 157.15 182.15 153.2 152.85 150.0 147.55 143.3 L143.5 142.35 Q132.35 125.9 109.5 123.1 L122.1 108.95 M353.4 116.7 L350.85 108.95 Q367.95 114.05 378.05 125.85 375.2 124.65 372.3 124.9 362.85 116.95 353.4 116.7 M484.0 274.5 Q483.3 271.05 481.1 267.1 483.3 271.05 484.0 274.5 M421.75 338.85 Q422.05 334.65 420.7 329.45 422.05 334.65 421.75 338.85 M152.15 144.0 L147.55 143.3 152.15 144.0" fill="#e2d0b5" fill-rule="evenodd" stroke="none"/>
      <path d="M378.05 125.85 Q380.7 127.0 383.3 129.4 389.5 135.05 391.65 144.5 393.35 152.2 391.55 158.8 L390.55 161.7 388.5 165.55 Q386.3 168.7 383.2 170.15 L381.7 170.7 380.7 170.95 Q374.1 172.45 367.9 166.75 366.3 165.25 364.95 163.55 L364.2 162.55 Q362.6 160.2 361.45 157.5 360.3 154.75 359.6 151.6 L359.25 149.75 Q357.75 141.4 360.65 134.45 L361.45 132.75 Q364.65 126.5 370.5 125.15 L372.3 124.9 Q375.2 124.65 378.05 125.85 M381.85 135.65 L380.55 147.55 374.4 135.65 380.55 147.55 381.85 135.65 M379.2 159.3 L380.55 147.55 386.55 159.3 380.55 147.55 379.2 159.3" fill="url(#gradient0)" fill-rule="evenodd" stroke="none"/>
      <path d="M391.55 158.8 Q392.75 167.75 392.45 178.2 L392.2 182.95 Q390.65 207.45 385.35 224.2 383.45 230.15 381.1 235.15 L379.4 238.45 Q361.95 200.2 340.15 198.95 335.8 198.7 331.3 199.9 327.55 200.95 324.5 202.7 322.2 204.05 320.3 205.85 304.6 220.35 316.1 263.75 323.1 290.85 338.75 307.05 359.55 328.6 383.55 333.3 383.2 338.9 379.85 342.65 L379.2 343.35 Q372.55 350.0 359.75 346.65 347.0 343.3 335.55 331.85 324.1 320.4 320.7 307.6 319.8 304.15 319.65 301.15 287.15 299.55 265.4 280.05 L255.6 279.8 248.25 279.25 232.25 277.15 Q223.75 275.7 215.25 273.5 L207.95 271.45 Q196.35 268.05 184.7 263.25 184.85 269.85 185.6 277.5 L186.6 283.35 136.0 283.35 Q135.45 269.55 134.3 258.6 127.3 265.75 119.8 271.95 113.45 261.0 113.55 250.0 95.75 267.15 80.8 288.05 78.1 263.2 80.15 248.05 L22.85 277.0 Q22.5 238.35 34.6 212.4 19.3 207.9 0.0 207.05 11.8 185.15 35.0 174.6 L29.75 171.7 Q40.35 147.3 58.0 129.25 L59.45 128.35 58.85 139.7 66.7 135.65 67.7 124.15 68.6 109.05 Q70.3 67.7 64.9 24.2 43.55 18.6 27.85 8.2 38.55 -6.25 79.95 4.75 95.9 16.0 97.0 30.55 101.05 66.65 91.25 133.45 L96.0 105.95 Q102.55 98.55 111.85 94.45 L106.85 118.3 106.9 118.3 Q109.75 115.35 113.0 113.2 117.25 110.3 122.1 108.95 L109.5 123.1 Q132.35 125.9 143.5 142.35 L147.55 143.3 Q152.85 150.0 182.15 153.2 218.55 157.15 274.1 114.7 290.9 119.1 298.8 117.95 307.1 120.95 314.35 121.7 L329.4 121.4 Q337.6 125.25 354.95 124.95 354.45 120.85 353.4 116.7 362.85 116.95 372.3 124.9 L370.5 125.15 Q364.65 126.5 361.45 132.75 L360.65 134.45 Q357.75 141.4 359.25 149.75 L359.6 151.6 Q360.3 154.75 361.45 157.5 362.6 160.2 364.2 162.55 L364.2 183.75 Q364.2 185.2 365.2 186.2 366.25 187.25 367.7 187.25 L369.2 186.9 369.2 197.2 Q369.2 199.8 371.0 201.6 372.85 203.45 375.45 203.45 378.05 203.45 379.85 201.6 381.7 199.8 381.7 197.2 L381.7 170.7 383.2 170.15 383.2 178.4 Q383.2 179.8 383.95 180.8 384.75 181.8 385.85 181.8 386.95 181.8 387.7 180.8 388.5 179.8 388.5 178.4 L388.5 165.55 390.55 161.7 391.55 158.8 M384.15 190.6 Q384.15 191.7 384.95 192.45 385.7 193.2 386.8 193.2 387.9 193.2 388.65 192.45 389.45 191.7 389.45 190.6 L389.45 188.75 Q389.45 187.65 388.65 186.9 387.9 186.15 386.8 186.15 385.7 186.15 384.95 186.9 384.15 187.65 384.15 188.75 L384.15 190.6 M300.7 220.25 L320.3 205.85 300.7 220.25 M82.35 94.75 L82.35 57.7 82.35 94.75 M63.1 19.2 L64.9 24.2 63.1 19.2 M66.7 135.65 L66.4 138.2 66.7 135.65 M143.5 142.35 L140.3 141.2 143.5 142.35 M88.4 150.7 L89.8 142.65 88.4 150.7 M130.55 236.05 Q132.85 245.2 134.3 258.6 132.85 245.2 130.55 236.05 L127.5 236.15 130.55 236.05 Q128.45 227.7 125.55 222.85 128.45 227.7 130.55 236.05 M251.8 167.85 Q229.95 221.4 255.1 269.05 259.9 275.1 265.4 280.05 259.9 275.1 255.1 269.05 229.95 221.4 251.8 167.85 M184.7 263.25 Q183.95 229.6 198.65 221.6 183.95 229.6 184.7 263.25 M319.6 298.5 L319.65 301.15 319.6 298.5" fill="url(#gradient1)" fill-rule="evenodd" stroke="none"/>
      <path d="M364.2 162.55 L364.95 163.55 Q366.3 165.25 367.9 166.75 374.1 172.45 380.7 170.95 L381.7 170.7 381.7 197.2 Q381.7 199.8 379.85 201.6 378.05 203.45 375.45 203.45 372.85 203.45 371.0 201.6 369.2 199.8 369.2 197.2 L369.2 186.9 367.7 187.25 Q366.25 187.25 365.2 186.2 364.2 185.2 364.2 183.75 L364.2 162.55 M383.2 170.15 Q386.3 168.7 388.5 165.55 L388.5 178.4 Q388.5 179.8 387.7 180.8 386.95 181.8 385.85 181.8 384.75 181.8 383.95 180.8 383.2 179.8 383.2 178.4 L383.2 170.15 M384.15 190.6 L384.15 188.75 Q384.15 187.65 384.95 186.9 385.7 186.15 386.8 186.15 387.9 186.15 388.65 186.9 389.45 187.65 389.45 188.75 L389.45 190.6 Q389.45 191.7 388.65 192.45 387.9 193.2 386.8 193.2 385.7 193.2 384.95 192.45 384.15 191.7 384.15 190.6" fill="#844506" fill-rule="evenodd" stroke="none"/>
      <path d="M392.45 178.2 Q410.7 178.85 433.45 209.5 443.9 223.4 460.85 237.15 469.2 243.95 479.15 250.7 487.7 259.75 481.1 267.1 478.5 270.0 473.65 272.6 L469.05 274.55 Q451.25 272.25 436.25 266.3 436.6 263.85 435.0 260.45 433.15 256.45 429.8 253.5 426.45 250.55 423.5 250.35 420.6 250.15 419.8 252.8 419.15 255.15 420.5 258.55 399.45 245.95 385.35 224.2 390.65 207.45 392.2 182.95 L392.45 178.2 M397.3 274.85 Q401.55 281.7 406.7 288.8 414.2 299.15 423.55 310.0 430.55 323.0 420.7 329.45 416.85 331.95 410.45 333.45 L407.15 333.95 Q400.6 309.9 382.05 286.65 L381.95 284.1 Q381.1 275.1 375.0 262.2 368.9 249.25 361.15 240.0 356.95 235.0 353.2 232.75 345.95 216.2 340.15 198.95 361.95 200.2 379.4 238.45 L383.7 248.6 Q388.85 261.3 397.3 274.85 M434.7 244.8 Q440.4 243.65 438.05 235.65 435.6 227.55 427.7 216.9 419.8 206.2 411.1 199.25 402.25 192.2 396.55 193.35 390.8 194.45 392.1 202.75 393.3 211.05 400.3 221.6 407.3 232.15 418.15 239.0 428.95 245.9 434.7 244.8 M454.6 243.35 Q452.8 244.5 454.25 247.35 455.7 250.15 459.55 253.0 463.4 255.8 467.35 257.0 471.3 258.15 473.1 257.0 474.85 255.85 473.4 253.05 472.0 250.25 468.15 247.45 464.3 244.6 460.3 243.4 456.35 242.2 454.6 243.35 M443.55 250.95 Q440.8 251.5 441.4 254.95 442.0 258.3 445.65 262.6 449.3 266.9 453.8 269.6 458.35 272.25 461.1 271.7 463.85 271.15 463.2 267.7 462.6 264.25 458.95 259.95 455.3 255.65 450.8 253.05 446.3 250.4 443.55 250.95 M396.2 300.05 Q397.15 303.3 400.6 307.1 404.05 310.9 408.0 313.0 411.95 315.1 414.05 314.25 416.15 313.4 415.2 310.15 414.25 306.85 410.8 303.05 407.35 299.25 403.4 297.2 399.45 295.1 397.35 295.95 395.25 296.8 396.2 300.05" fill="#fff2e0" fill-rule="evenodd" stroke="none"/>
      <path d="M420.5 258.55 Q419.15 255.15 419.8 252.8 420.6 250.15 423.5 250.35 426.45 250.55 429.8 253.5 433.15 256.45 435.0 260.45 436.6 263.85 436.25 266.3 427.95 262.95 420.5 258.55 M454.6 243.35 Q456.35 242.2 460.3 243.4 464.3 244.6 468.15 247.45 472.0 250.25 473.4 253.05 474.85 255.85 473.1 257.0 471.3 258.15 467.35 257.0 463.4 255.8 459.55 253.0 455.7 250.15 454.25 247.35 452.8 244.5 454.6 243.35 M434.7 244.8 Q428.95 245.9 418.15 239.0 407.3 232.15 400.3 221.6 393.3 211.05 392.1 202.75 390.8 194.45 396.55 193.35 402.25 192.2 411.1 199.25 419.8 206.2 427.7 216.9 435.6 227.55 438.05 235.65 440.4 243.65 434.7 244.8 M443.55 250.95 Q446.3 250.4 450.8 253.05 455.3 255.65 458.95 259.95 462.6 264.25 463.2 267.7 463.85 271.15 461.1 271.7 458.35 272.25 453.8 269.6 449.3 266.9 445.65 262.6 442.0 258.3 441.4 254.95 440.8 251.5 443.55 250.95 M353.2 232.75 Q356.95 235.0 361.15 240.0 368.9 249.25 375.0 262.2 381.1 275.1 381.95 284.1 L382.05 286.65 380.75 285.05 Q365.1 259.95 353.2 232.75 M396.2 300.05 Q395.25 296.8 397.35 295.95 399.45 295.1 403.4 297.2 407.35 299.25 410.8 303.05 414.25 306.85 415.2 310.15 416.15 313.4 414.05 314.25 411.95 315.1 408.0 313.0 404.05 310.9 400.6 307.1 397.15 303.3 396.2 300.05" fill="#ffe0cc" fill-rule="evenodd" stroke="none"/>
      <path d="M385.35 224.2 Q399.45 245.95 420.5 258.55 L420.9 259.45 Q422.75 263.4 426.1 266.35 429.5 269.3 432.4 269.5 435.35 269.7 436.1 267.05 L436.25 266.3 Q451.25 272.25 469.05 274.55 460.5 277.75 451.75 278.35 431.2 279.75 409.65 266.8 393.45 257.0 381.85 236.5 L381.1 235.15 Q383.45 230.15 385.35 224.2" fill="url(#gradient2)" fill-rule="evenodd" stroke="none"/>
      <path d="M436.25 266.3 L436.1 267.05 Q435.35 269.7 432.4 269.5 429.5 269.3 426.1 266.35 422.75 263.4 420.9 259.45 L420.5 258.55 Q427.95 262.95 436.25 266.3 M398.8 314.0 Q401.75 319.3 401.65 323.05 401.65 326.8 398.6 326.8 395.6 326.8 391.35 323.05 387.15 319.3 384.2 314.0 381.25 308.7 381.3 304.95 381.4 301.2 384.4 301.2 387.45 301.2 391.6 304.95 395.85 308.7 398.8 314.0 M373.15 309.45 Q374.3 314.0 372.9 316.65 371.55 319.35 368.5 318.5 365.45 317.7 362.5 313.85 359.6 310.0 358.45 305.45 357.35 300.85 358.7 298.25 360.05 295.6 363.1 296.4 366.15 297.25 369.1 301.05 372.05 304.85 373.15 309.45 M232.25 277.15 Q234.15 280.55 235.15 284.85 L235.45 286.35 Q236.9 294.05 234.75 299.8 232.55 305.6 228.0 306.1 223.45 306.65 219.25 301.65 216.75 298.6 215.2 294.65 214.2 292.0 213.6 288.9 213.35 287.6 213.25 286.35 212.5 280.25 214.35 275.45 L215.25 273.5 Q223.75 275.7 232.25 277.15 M229.35 311.9 Q230.75 313.9 231.1 316.9 231.45 319.9 230.55 322.15 229.65 324.45 228.0 324.65 226.4 324.85 225.0 322.85 223.6 320.9 223.25 317.9 222.9 314.9 223.8 312.6 224.7 310.35 226.3 310.15 227.95 309.95 229.35 311.9 M235.25 309.75 Q237.3 308.5 240.05 309.65 242.75 310.8 244.6 313.75 246.45 316.7 246.35 319.65 246.2 322.6 244.15 323.85 L239.4 324.0 Q236.7 322.85 234.85 319.9 233.0 316.95 233.1 314.0 233.25 311.05 235.25 309.75 M218.75 308.15 Q219.85 308.55 220.65 310.4 221.4 312.35 221.4 314.65 221.4 316.95 220.55 318.3 219.75 319.7 218.65 319.3 217.5 318.9 216.7 316.95 215.95 315.05 215.95 312.75 215.95 310.45 216.8 309.05 217.6 307.75 218.75 308.15" fill="#dabaaf" fill-rule="evenodd" stroke="none"/>
      <path d="M475.1 289.3 Q471.85 290.35 467.5 290.35 459.35 290.4 450.8 286.75 L450.4 287.45 Q446.45 294.3 435.3 294.3 424.2 294.4 412.45 287.6 403.2 282.25 397.8 275.15 L397.3 274.85 Q388.85 261.3 383.7 248.6 L379.4 238.45 381.1 235.15 381.85 236.5 Q393.45 257.0 409.65 266.8 431.2 279.75 451.75 278.35 460.5 277.75 469.05 274.55 L473.65 272.6 Q468.45 281.85 475.1 289.3 M410.35 352.65 Q405.1 353.9 397.95 352.0 388.55 349.55 379.85 342.65 383.2 338.9 383.55 333.3 395.0 335.55 407.15 333.95 L407.15 334.0 Q403.8 343.3 410.35 352.65 M155.4 65.15 Q139.0 69.85 120.55 62.65 L118.35 73.95 Q114.8 93.7 113.0 113.2 109.75 115.35 106.9 118.3 L106.85 118.3 111.85 94.45 Q102.55 98.55 96.0 105.95 L108.6 31.8 Q154.95 39.3 155.4 65.15 M450.8 286.75 Q452.65 282.95 451.75 278.35 452.65 282.95 450.8 286.75 M392.2 263.95 Q392.95 267.35 395.1 271.1 396.3 273.2 397.8 275.15 396.3 273.2 395.1 271.1 392.95 267.35 392.2 263.95 M124.3 51.15 L122.05 55.55 120.55 62.65 122.05 55.55 124.3 51.15" fill="#c2ad9c" fill-rule="evenodd" stroke="none"/>
      <path d="M320.3 205.85 Q322.2 204.05 324.5 202.7 327.55 200.95 331.3 199.9 335.8 198.7 340.15 198.95 345.95 216.2 353.2 232.75 349.95 230.75 347.05 230.75 340.8 230.75 340.35 239.8 339.9 248.8 345.1 261.4 350.25 274.0 360.25 283.55 370.25 293.1 376.5 293.1 381.85 293.1 382.05 286.65 400.6 309.9 407.15 333.95 395.0 335.55 383.55 333.3 359.55 328.6 338.75 307.05 323.1 290.85 316.1 263.75 304.6 220.35 320.3 205.85 M373.15 309.45 Q372.05 304.85 369.1 301.05 366.15 297.25 363.1 296.4 360.05 295.6 358.7 298.25 357.35 300.85 358.45 305.45 359.6 310.0 362.5 313.85 365.45 317.7 368.5 318.5 371.55 319.35 372.9 316.65 374.3 314.0 373.15 309.45 M398.8 314.0 Q395.85 308.7 391.6 304.95 387.45 301.2 384.4 301.2 381.4 301.2 381.3 304.95 381.25 308.7 384.2 314.0 387.15 319.3 391.35 323.05 395.6 326.8 398.6 326.8 401.65 326.8 401.65 323.05 401.75 319.3 398.8 314.0" fill="url(#gradient3)" fill-rule="evenodd" stroke="none"/>
      <path d="M382.05 286.65 Q381.85 293.1 376.5 293.1 370.25 293.1 360.25 283.55 350.25 274.0 345.1 261.4 339.9 248.8 340.35 239.8 340.8 230.75 347.05 230.75 349.95 230.75 353.2 232.75 365.1 259.95 380.75 285.05 L382.05 286.65" fill="url(#gradient4)" fill-rule="evenodd" stroke="none"/>
      <path d="M59.45 128.35 L59.45 128.2 49.3 120.35 61.65 116.65 66.0 106.3 68.6 109.05 67.7 124.15 66.7 135.65 58.85 139.7 59.45 128.35" fill="#ead8c2" fill-rule="evenodd" stroke="none"/>
      <path d="M256.2 313.85 Q253.65 327.55 238.5 327.75 236.3 327.8 234.75 326.35 226.75 327.5 221.75 322.25 217.75 321.15 215.2 316.75 L214.65 315.7 Q211.7 300.85 209.75 286.35 208.7 278.85 207.95 271.45 L215.25 273.5 214.35 275.45 Q212.5 280.25 213.25 286.35 213.35 287.6 213.6 288.9 214.2 292.0 215.2 294.65 216.75 298.6 219.25 301.65 223.45 306.65 228.0 306.1 232.55 305.6 234.75 299.8 236.9 294.05 235.45 286.35 L235.15 284.85 Q234.15 280.55 232.25 277.15 L248.25 279.25 249.95 284.85 250.35 286.35 Q253.5 298.05 256.2 313.85 M218.75 308.15 Q217.6 307.75 216.8 309.05 215.95 310.45 215.95 312.75 215.95 315.05 216.7 316.95 217.5 318.9 218.65 319.3 219.75 319.7 220.55 318.3 221.4 316.95 221.4 314.65 221.4 312.35 220.65 310.4 219.85 308.55 218.75 308.15 M235.25 309.75 Q233.25 311.05 233.1 314.0 233.0 316.95 234.85 319.9 236.7 322.85 239.4 324.0 L244.15 323.85 Q246.2 322.6 246.35 319.65 246.45 316.7 244.6 313.75 242.75 310.8 240.05 309.65 237.3 308.5 235.25 309.75 M229.35 311.9 Q227.95 309.95 226.3 310.15 224.7 310.35 223.8 312.6 222.9 314.9 223.25 317.9 223.6 320.9 225.0 322.85 226.4 324.85 228.0 324.65 229.65 324.45 230.55 322.15 231.45 319.9 231.1 316.9 230.75 313.9 229.35 311.9" fill="url(#gradient5)" fill-rule="evenodd" stroke="none"/>
      <path d="M378.05 125.85 Q380.7 127.0 383.3 129.4 389.5 135.05 391.65 144.5 393.35 152.2 391.55 158.8 392.75 167.75 392.45 178.2 410.7 178.85 433.45 209.5 443.9 223.4 460.85 237.15 L466.1 238.3 Q479.25 241.85 487.05 249.75 494.9 257.65 492.85 265.3 491.2 271.4 484.0 274.5 484.9 279.45 482.6 283.45 480.2 287.65 475.1 289.3 471.85 290.35 467.5 290.35 459.35 290.4 450.8 286.75 L450.4 287.45 Q446.45 294.3 435.3 294.3 424.2 294.4 412.45 287.6 403.2 282.25 397.8 275.15 L397.3 274.85 Q401.55 281.7 406.7 288.8 409.5 290.1 412.4 291.75 426.45 299.85 432.95 311.35 439.55 322.8 434.85 330.95 431.05 337.5 421.75 338.85 421.3 344.8 417.4 348.7 414.45 351.65 410.35 352.65 405.1 353.9 397.95 352.0 388.55 349.55 379.85 342.65 L379.2 343.35 Q372.55 350.0 359.75 346.65 347.0 343.3 335.55 331.85 324.1 320.4 320.7 307.6 319.8 304.15 319.65 301.15 287.15 299.55 265.4 280.05 L255.6 279.8 256.1 284.85 256.2 286.35 Q257.1 298.6 256.65 309.8 L256.2 313.85 Q253.65 327.55 238.5 327.75 236.3 327.8 234.75 326.35 226.75 327.5 221.75 322.25 217.75 321.15 215.2 316.75 L214.65 315.7 Q211.7 300.85 209.75 286.35 208.7 278.85 207.95 271.45 196.35 268.05 184.7 263.25 184.85 269.85 185.6 277.5 L186.6 283.35 M136.0 283.35 Q135.45 269.55 134.3 258.6 127.3 265.75 119.8 271.95 113.45 261.0 113.55 250.0 95.75 267.15 80.8 288.05 78.1 263.2 80.15 248.05 L22.85 277.0 Q22.5 238.35 34.6 212.4 19.3 207.9 0.0 207.05 7.65 183.85 29.75 171.7 40.35 147.3 58.0 129.25 L59.45 128.35 59.45 128.2 49.3 120.35 61.65 116.65 66.0 106.3 68.6 109.05 Q70.3 67.7 64.9 24.2 43.55 18.6 27.85 8.2 38.55 -6.25 79.95 4.75 L84.95 6.15 Q100.3 12.3 109.9 24.2 L108.6 31.8 Q150.45 32.55 159.6 51.0 162.9 57.75 160.9 63.2 158.15 64.35 155.4 65.15 139.0 69.85 120.55 62.65 L118.35 73.95 Q114.8 93.7 113.0 113.2 117.25 110.3 122.1 108.95 L118.45 119.6 Q140.15 120.4 152.15 144.0 169.8 145.9 200.2 139.5 218.05 135.65 250.6 120.65 259.5 116.55 269.95 113.6 M350.85 108.95 Q367.95 114.05 378.05 125.85 375.2 124.65 372.3 124.9 L370.5 125.15 Q364.65 126.5 361.45 132.75 M364.95 163.55 Q366.3 165.25 367.9 166.75 374.1 172.45 380.7 170.95 L381.7 170.7 383.2 170.15 Q386.3 168.7 388.5 165.55 L390.55 161.7 391.55 158.8 M392.45 178.2 L392.2 182.95 Q390.65 207.45 385.35 224.2 383.45 230.15 381.1 235.15 L379.4 238.45 383.7 248.6 Q388.85 261.3 397.3 274.85 M469.05 274.55 L473.65 272.6 Q478.5 270.0 481.1 267.1 487.7 259.75 479.15 250.7 469.2 243.95 460.85 237.15 M451.75 278.35 Q452.65 282.95 450.8 286.75 M381.1 235.15 L381.85 236.5 Q393.45 257.0 409.65 266.8 431.2 279.75 451.75 278.35 460.5 277.75 469.05 274.55 M481.1 267.1 Q483.3 271.05 484.0 274.5 M320.3 205.85 Q322.2 204.05 324.5 202.7 327.55 200.95 331.3 199.9 335.8 198.7 340.15 198.95 361.95 200.2 379.4 238.45 M407.15 333.95 L410.45 333.45 Q416.85 331.95 420.7 329.45 430.55 323.0 423.55 310.0 414.2 299.15 406.7 288.8 M397.8 275.15 Q396.3 273.2 395.1 271.1 392.95 267.35 392.2 263.95 M383.55 333.3 Q383.2 338.9 379.85 342.65 M383.55 333.3 Q359.55 328.6 338.75 307.05 323.1 290.85 316.1 263.75 304.6 220.35 320.3 205.85 L300.7 220.25 M420.7 329.45 Q422.05 334.65 421.75 338.85 M407.15 333.95 Q395.0 335.55 383.55 333.3 M82.35 57.7 L82.35 94.75 M120.55 62.65 L122.05 55.55 124.3 51.15 M64.9 24.2 L63.1 19.2 M59.45 128.35 L58.85 139.7 66.7 135.65 67.7 124.15 68.6 109.05 M66.4 138.2 L66.7 135.65 M140.3 141.2 L143.5 142.35 147.55 143.3 152.15 144.0 M91.25 133.45 L96.0 105.95 108.6 31.8 M96.0 105.95 Q102.55 98.55 111.85 94.45 L106.85 118.3 106.9 118.3 Q109.75 115.35 113.0 113.2 M89.8 142.65 L88.4 150.7 M127.5 236.15 L130.55 236.05 Q128.45 227.7 125.55 222.85 M134.3 258.6 Q132.85 245.2 130.55 236.05 M255.6 279.8 L248.25 279.25 249.95 284.85 250.35 286.35 Q253.5 298.05 256.2 313.85 M265.4 280.05 Q259.9 275.1 255.1 269.05 229.95 221.4 251.8 167.85 M215.25 273.5 L207.95 271.45 M232.25 277.15 Q223.75 275.7 215.25 273.5 M198.65 221.6 Q183.95 229.6 184.7 263.25 M319.65 301.15 L319.6 298.5 M248.25 279.25 L232.25 277.15" fill="none" stroke="#000000" stroke-linecap="round" stroke-linejoin="round" stroke-opacity="0.4" stroke-width="1.0"/>
      <path d="M374.4 135.65 L380.55 147.55 381.85 135.65 M386.55 159.3 L380.55 147.55 379.2 159.3" fill="none" stroke="#000000" stroke-linecap="round" stroke-linejoin="round" stroke-opacity="0.4" stroke-width="2.0"/>
      <path d="M420.5 258.55 Q419.15 255.15 419.8 252.8 420.6 250.15 423.5 250.35 426.45 250.55 429.8 253.5 433.15 256.45 435.0 260.45 436.6 263.85 436.25 266.3 L436.1 267.05 Q435.35 269.7 432.4 269.5 429.5 269.3 426.1 266.35 422.75 263.4 420.9 259.45 L420.5 258.55 M454.6 243.35 Q456.35 242.2 460.3 243.4 464.3 244.6 468.15 247.45 472.0 250.25 473.4 253.05 474.85 255.85 473.1 257.0 471.3 258.15 467.35 257.0 463.4 255.8 459.55 253.0 455.7 250.15 454.25 247.35 452.8 244.5 454.6 243.35 M434.7 244.8 Q428.95 245.9 418.15 239.0 407.3 232.15 400.3 221.6 393.3 211.05 392.1 202.75 390.8 194.45 396.55 193.35 402.25 192.2 411.1 199.25 419.8 206.2 427.7 216.9 435.6 227.55 438.05 235.65 440.4 243.65 434.7 244.8 M443.55 250.95 Q446.3 250.4 450.8 253.05 455.3 255.65 458.95 259.95 462.6 264.25 463.2 267.7 463.85 271.15 461.1 271.7 458.35 272.25 453.8 269.6 449.3 266.9 445.65 262.6 442.0 258.3 441.4 254.95 440.8 251.5 443.55 250.95 M382.05 286.65 Q381.85 293.1 376.5 293.1 370.25 293.1 360.25 283.55 350.25 274.0 345.1 261.4 339.9 248.8 340.35 239.8 340.8 230.75 347.05 230.75 349.95 230.75 353.2 232.75 356.95 235.0 361.15 240.0 368.9 249.25 375.0 262.2 381.1 275.1 381.95 284.1 L382.05 286.65 M396.2 300.05 Q395.25 296.8 397.35 295.95 399.45 295.1 403.4 297.2 407.35 299.25 410.8 303.05 414.25 306.85 415.2 310.15 416.15 313.4 414.05 314.25 411.95 315.1 408.0 313.0 404.05 310.9 400.6 307.1 397.15 303.3 396.2 300.05 M398.8 314.0 Q401.75 319.3 401.65 323.05 401.65 326.8 398.6 326.8 395.6 326.8 391.35 323.05 387.15 319.3 384.2 314.0 381.25 308.7 381.3 304.95 381.4 301.2 384.4 301.2 387.45 301.2 391.6 304.95 395.85 308.7 398.8 314.0 M373.15 309.45 Q374.3 314.0 372.9 316.65 371.55 319.35 368.5 318.5 365.45 317.7 362.5 313.85 359.6 310.0 358.45 305.45 357.35 300.85 358.7 298.25 360.05 295.6 363.1 296.4 366.15 297.25 369.1 301.05 372.05 304.85 373.15 309.45 M232.25 277.15 Q234.15 280.55 235.15 284.85 L235.45 286.35 Q236.9 294.05 234.75 299.8 232.55 305.6 228.0 306.1 223.45 306.65 219.25 301.65 216.75 298.6 215.2 294.65 214.2 292.0 213.6 288.9 213.35 287.6 213.25 286.35 212.5 280.25 214.35 275.45 L215.25 273.5 M229.35 311.9 Q230.75 313.9 231.1 316.9 231.45 319.9 230.55 322.15 229.65 324.45 228.0 324.65 226.4 324.85 225.0 322.85 223.6 320.9 223.25 317.9 222.9 314.9 223.8 312.6 224.7 310.35 226.3 310.15 227.95 309.95 229.35 311.9 M235.25 309.75 Q237.3 308.5 240.05 309.65 242.75 310.8 244.6 313.75 246.45 316.7 246.35 319.65 246.2 322.6 244.15 323.85 L239.4 324.0 Q236.7 322.85 234.85 319.9 233.0 316.95 233.1 314.0 233.25 311.05 235.25 309.75 M218.75 308.15 Q219.85 308.55 220.65 310.4 221.4 312.35 221.4 314.65 221.4 316.95 220.55 318.3 219.75 319.7 218.65 319.3 217.5 318.9 216.7 316.95 215.95 315.05 215.95 312.75 215.95 310.45 216.8 309.05 217.6 307.75 218.75 308.15" fill="none" stroke="#000000" stroke-linecap="round" stroke-linejoin="round" stroke-opacity="0.2" stroke-width="1.0"/>
      <path d="M373.75 76.55 Q355.05 69.85 335.2 70.65 338.85 57.4 336.35 50.3 325.55 50.2 316.8 55.05 308.4 46.7 297.8 43.85 291.6 53.8 293.05 65.9 282.9 65.4 272.65 73.75 274.15 89.7 279.4 96.1 L260.5 116.45 Q266.85 96.45 273.35 92.1 263.0 83.95 260.15 68.25 271.55 60.0 284.05 59.15 282.95 42.8 287.05 28.05 304.6 34.45 313.1 45.1 326.8 39.1 341.9 39.15 345.35 55.0 342.15 64.15 356.55 65.75 373.75 76.55 M309.25 65.65 Q324.55 70.75 328.8 84.65 L301.45 88.0 Q301.05 75.2 309.25 65.65" fill="#fffff2" fill-rule="evenodd" stroke="none"/>
      <path d="M260.5 116.45 L279.4 96.1 Q274.15 89.7 272.65 73.75 282.9 65.4 293.05 65.9 291.6 53.8 297.8 43.85 308.4 46.7 316.8 55.05 325.55 50.2 336.35 50.3 338.85 57.4 335.2 70.65 355.05 69.85 373.75 76.55 364.95 90.45 348.85 99.8 352.4 106.2 354.8 112.45 356.5 116.8 357.65 121.1 358.85 125.75 359.4 130.3 340.0 130.65 330.85 126.35 L314.05 126.7 Q305.95 125.85 296.7 122.5 287.85 123.8 269.1 118.85 L264.45 117.65 260.5 116.45 M309.25 65.65 Q301.05 75.2 301.45 88.0 L328.8 84.65 Q324.55 70.75 309.25 65.65" fill="#ead8c2" fill-rule="evenodd" stroke="none"/>
      <path d="M373.75 76.55 Q356.55 65.75 342.15 64.15 345.35 55.0 341.9 39.15 326.8 39.1 313.1 45.1 304.6 34.45 287.05 28.05 282.95 42.8 284.05 59.15 271.55 60.0 260.15 68.25 263.0 83.95 273.35 92.1 266.85 96.45 260.5 116.45 L264.45 117.65 269.1 118.85 Q287.85 123.8 296.7 122.5 M330.85 126.35 Q340.0 130.65 359.4 130.3 358.85 125.75 357.65 121.1 356.5 116.8 354.8 112.45 352.4 106.2 348.85 99.8 364.95 90.45 373.75 76.55 Z" fill="none" stroke="#000000" stroke-linecap="round" stroke-linejoin="round" stroke-opacity="0.4" stroke-width="1.0"/>
      <path d="M102.6 334.45 Q93.1 333.95 79.1 338.45 81.1 341.5 80.85 347.4 80.45 354.55 77.65 356.65 74.3 359.2 70.95 358.3 68.45 357.6 66.95 355.6 66.25 354.65 65.75 351.7 L65.2 348.15 Q64.1 349.35 60.3 350.55 56.25 351.75 51.7 352.2 39.9 353.4 36.35 348.7 34.8 346.65 37.9 342.2 40.65 338.25 44.95 335.0 47.1 333.4 48.95 332.75 L51.85 332.05 52.1 331.9 Q45.05 333.25 39.35 330.85 35.15 329.0 32.6 325.55 31.7 324.4 32.85 321.35 34.0 318.2 36.2 316.55 37.85 315.25 46.0 317.35 L58.25 320.4 54.5 317.15 Q50.95 314.25 49.9 312.85 47.4 309.5 48.0 307.3 48.35 305.85 50.6 304.2 53.6 301.9 59.85 305.65 L66.0 310.05 66.15 310.25 Q62.7 305.45 63.6 300.95 64.2 297.65 66.4 296.0 68.45 294.45 71.65 297.15 74.05 299.25 79.1 305.8 L79.3 306.05 Q78.75 304.95 78.9 303.75 79.05 302.8 79.45 302.45 80.8 301.45 83.75 305.35 85.25 307.35 86.2 312.3 86.9 315.7 85.95 318.15 92.0 320.35 100.15 318.55 99.6 322.0 99.9 325.8 100.7 330.45 102.6 334.45 M77.65 339.55 L79.1 338.45 77.65 339.55 M89.2 328.15 L99.9 325.8 89.2 328.15 M80.05 316.05 L85.95 318.15 80.05 316.05" fill="url(#gradient6)" fill-rule="evenodd" stroke="none"/>
      <path d="M100.15 318.55 Q101.95 307.15 113.0 299.95 L138.7 298.0 Q157.1 297.55 174.45 299.85 L202.7 298.45 249.9 300.25 254.0 300.6 Q268.5 302.85 271.2 307.35 274.1 314.55 258.45 320.95 251.05 324.0 241.35 324.75 L226.45 328.9 Q194.35 337.55 160.65 344.25 L126.4 350.45 121.45 351.3 Q107.8 345.65 102.6 334.45 100.7 330.45 99.9 325.8 99.6 322.0 100.15 318.55 M138.7 298.0 Q131.45 308.15 132.9 318.7 131.45 308.15 138.7 298.0 M149.4 321.25 Q150.1 337.9 160.65 344.25 150.1 337.9 149.4 321.25 M117.1 337.7 Q120.25 346.2 126.4 350.45 120.25 346.2 117.1 337.7 M248.05 308.65 Q247.7 304.45 249.9 300.25 247.7 304.45 248.05 308.65 M202.7 298.45 Q196.65 303.8 197.75 317.2 196.65 303.8 202.7 298.45 M220.3 317.3 Q221.25 324.1 226.45 328.9 221.25 324.1 220.3 317.3" fill="url(#gradient7)" fill-rule="evenodd" stroke="none"/>
      <path d="M102.6 334.45 Q93.1 333.95 79.1 338.45 81.1 341.5 80.85 347.4 80.45 354.55 77.65 356.65 74.3 359.2 70.95 358.3 68.45 357.6 66.95 355.6 66.25 354.65 65.75 351.7 L65.2 348.15 Q64.1 349.35 60.3 350.55 56.25 351.75 51.7 352.2 39.9 353.4 36.35 348.7 34.8 346.65 37.9 342.2 40.65 338.25 44.95 335.0 47.1 333.4 48.95 332.75 L51.85 332.05 52.1 331.9 Q45.05 333.25 39.35 330.85 35.15 329.0 32.6 325.55 31.7 324.4 32.85 321.35 34.0 318.2 36.2 316.55 37.85 315.25 46.0 317.35 L58.25 320.4 54.5 317.15 Q50.95 314.25 49.9 312.85 47.4 309.5 48.0 307.3 48.35 305.85 50.6 304.2 53.6 301.9 59.85 305.65 L66.0 310.05 66.15 310.25 Q62.7 305.45 63.6 300.95 64.2 297.65 66.4 296.0 68.45 294.45 71.65 297.15 74.05 299.25 79.1 305.8 L79.3 306.05 Q78.75 304.95 78.9 303.75 79.05 302.8 79.45 302.45 80.8 301.45 83.75 305.35 85.25 307.35 86.2 312.3 86.9 315.7 85.95 318.15 92.0 320.35 100.15 318.55 99.6 322.0 99.9 325.8 L89.2 328.15 M102.6 334.45 Q100.7 330.45 99.9 325.8 M79.1 338.45 L77.65 339.55 M85.95 318.15 L80.05 316.05" fill="none" stroke="#264c00" stroke-linecap="round" stroke-linejoin="round" stroke-opacity="0.5803922" stroke-width="1.0"/>
      <path d="M100.15 318.55 Q101.95 307.15 113.0 299.95 L138.7 298.0 Q157.1 297.55 174.45 299.85 L202.7 298.45 249.9 300.25 254.0 300.6 Q268.5 302.85 271.2 307.35 274.1 314.55 258.45 320.95 251.05 324.0 241.35 324.75 L226.45 328.9 Q194.35 337.55 160.65 344.25 L126.4 350.45 121.45 351.3 Q107.8 345.65 102.6 334.45 M160.65 344.25 Q150.1 337.9 149.4 321.25 M132.9 318.7 Q131.45 308.15 138.7 298.0 M126.4 350.45 Q120.25 346.2 117.1 337.7 M226.45 328.9 Q221.25 324.1 220.3 317.3 M197.75 317.2 Q196.65 303.8 202.7 298.45 M249.9 300.25 Q247.7 304.45 248.05 308.65" fill="none" stroke="#000000" stroke-linecap="round" stroke-linejoin="round" stroke-opacity="0.2509804" stroke-width="1.0"/>
      <path d="M147.55 352.05 Q135.5 346.3 136.25 327.6 136.7 302.7 136.0 283.35 L186.6 283.35 Q190.4 307.9 190.0 336.05 189.5 367.55 163.8 360.15 151.7 361.5 147.55 352.05 141.0 338.15 143.9 324.25 141.0 338.15 147.55 352.05 M163.8 360.15 Q158.65 343.0 162.65 325.25 158.65 343.0 163.8 360.15" fill="url(#gradient8)" fill-rule="evenodd" stroke="none"/>
      <path d="M136.0 283.35 Q136.7 302.7 136.25 327.6 135.5 346.3 147.55 352.05 141.0 338.15 143.9 324.25 M163.8 360.15 Q189.5 367.55 190.0 336.05 190.4 307.9 186.6 283.35 M163.8 360.15 Q151.7 361.5 147.55 352.05 M162.65 325.25 Q158.65 343.0 163.8 360.15" fill="none" stroke="#000000" stroke-linecap="round" stroke-linejoin="round" stroke-opacity="0.4" stroke-width="1.0"/>
      <path d="M387.55 260.5 Q388.65 262.35 387.95 264.25 387.3 266.15 385.3 267.0 L381.25 267.15 Q379.05 266.5 377.95 264.65 L376.15 261.5 Q375.1 259.65 375.8 257.75 376.4 255.9 378.4 255.05 L382.5 254.85 Q384.7 255.5 385.75 257.35 L387.55 260.5" fill="#844506" fill-rule="evenodd" stroke="none"/>
      <path d="M383.55 278.45 Q383.0 277.5 383.3 276.45 383.55 275.4 384.5 274.85 385.5 274.3 386.5 274.6 387.55 274.85 388.1 275.8 L389.05 277.4 Q389.6 278.35 389.25 279.4 389.05 280.4 388.05 280.95 387.1 281.5 386.05 281.25 385.05 281.0 384.5 280.05 L383.55 278.45" fill="#844506" fill-rule="evenodd" stroke="none"/>
      <path d="M59.45 215.45 Q45.95 217.65 47.75 198.3 50.5 183.1 59.6 151.55 66.1 184.35 68.15 199.95 68.8 205.15 66.85 210.0 64.8 215.0 59.45 215.45" fill="#b2ffff" fill-opacity="0.7019608" fill-rule="evenodd" stroke="none"/>
      <path d="M59.45 215.45 Q64.8 215.0 66.85 210.0 68.8 205.15 68.15 199.95 66.1 184.35 59.6 151.55 50.5 183.1 47.75 198.3 45.95 217.65 59.45 215.45 Z" fill="none" stroke="#000000" stroke-linecap="round" stroke-linejoin="round" stroke-opacity="0.3019608" stroke-width="1.0"/>
    </g>
    <radialGradient cx="0" cy="0" gradientTransform="matrix(0.0176, -0.0047, 0.0076, 0.0283, 380.45, 147.45)" gradientUnits="userSpaceOnUse" id="gradient0" r="819.2" spreadMethod="pad">
      <stop offset="0.0" stop-color="#ea9c96"/>
      <stop offset="1.0" stop-color="#ffe0cc"/>
    </radialGradient>
    <linearGradient gradientTransform="matrix(0.0226, -0.1214, 0.2168, 0.0403, 196.25, 180.75)" gradientUnits="userSpaceOnUse" id="gradient1" spreadMethod="pad" x1="-819.2" x2="819.2">
      <stop offset="0.0" stop-color="#aa917d"/>
      <stop offset="1.0" stop-color="#e2d0b5"/>
    </linearGradient>
    <linearGradient gradientTransform="matrix(0.0148, 0.0255, -0.0286, 0.0166, 410.65, 234.75)" gradientUnits="userSpaceOnUse" id="gradient2" spreadMethod="pad" x1="-819.2" x2="819.2">
      <stop offset="0.0" stop-color="#fff2e0"/>
      <stop offset="1.0" stop-color="#e0cec5"/>
    </linearGradient>
    <linearGradient gradientTransform="matrix(0.0196, 0.0551, -0.078, 0.0277, 353.6, 242.25)" gradientUnits="userSpaceOnUse" id="gradient3" spreadMethod="pad" x1="-819.2" x2="819.2">
      <stop offset="0.0" stop-color="#fff2e0"/>
      <stop offset="1.0" stop-color="#e0cec5"/>
    </linearGradient>
    <linearGradient gradientTransform="matrix(-0.0042, -0.0251, 0.0375, -0.0063, 361.15, 261.9)" gradientUnits="userSpaceOnUse" id="gradient4" spreadMethod="pad" x1="-819.2" x2="819.2">
      <stop offset="0.0" stop-color="#dabaaf"/>
      <stop offset="1.0" stop-color="#ffe0cc"/>
    </linearGradient>
    <linearGradient gradientTransform="matrix(0.0074, -0.0277, 0.0332, 0.0089, 228.55, 283.55)" gradientUnits="userSpaceOnUse" id="gradient5" spreadMethod="pad" x1="-819.2" x2="819.2">
      <stop offset="0.0" stop-color="#e0cec5"/>
      <stop offset="1.0" stop-color="#ad9a93"/>
    </linearGradient>
    <linearGradient gradientTransform="matrix(0.0204, -0.0025, 0.0052, 0.0418, 75.4, 325.1)" gradientUnits="userSpaceOnUse" id="gradient6" spreadMethod="pad" x1="-819.2" x2="819.2">
      <stop offset="0.0" stop-color="#4aba4a"/>
      <stop offset="0.9529411764705882" stop-color="#2d932d"/>
    </linearGradient>
    <linearGradient gradientTransform="matrix(-0.0646, 0.0017, -0.0024, -0.0924, 156.65, 327.1)" gradientUnits="userSpaceOnUse" id="gradient7" spreadMethod="pad" x1="-819.2" x2="819.2">
      <stop offset="0.0" stop-color="#ffa904"/>
      <stop offset="1.0" stop-color="#fc770e"/>
      <stop offset="1.0" stop-color="#fc770e"/>
      <stop offset="1.0" stop-color="#fc770e"/>
    </linearGradient>
    <linearGradient gradientTransform="matrix(0.0226, -0.1214, 0.2168, 0.0403, 196.25, 180.75)" gradientUnits="userSpaceOnUse" id="gradient8" spreadMethod="pad" x1="-819.2" x2="819.2">
      <stop offset="0.0" stop-color="#aa917d"/>
      <stop offset="1.0" stop-color="#e2d0b5"/>
    </linearGradient>
    <g id="shape2" transform="matrix(1.0, 0.0, 0.0, 1.0, 72.85, 57.65)">
      <path d="M-14.5 -23.9 Q-14.15 -24.5 -12.35 -24.55 L-6.05 -24.5 -4.8 -24.45 -0.4 -24.5 0.95 -24.5 0.95 -24.35 2.05 -24.2 Q6.0 -23.6 8.0 -22.75 10.9 -21.5 11.9 -19.7 12.6 -18.5 12.6 -16.3 12.6 -14.25 11.85 -12.65 11.2 -11.3 10.1 -10.4 L10.1 -10.35 10.05 -10.05 Q12.25 -9.2 12.85 -7.3 L13.1 -4.25 Q13.1 -1.35 11.05 0.9 L9.65 2.35 Q9.0 2.95 9.0 3.3 9.0 4.05 9.5 5.4 9.9 6.75 9.35 8.9 8.75 11.05 5.85 13.0 3.0 14.95 -9.2 14.95 L-9.25 14.95 -36.25 14.85 Q-48.95 14.6 -55.8 12.85 L-56.25 12.75 Q-64.7 10.4 -68.6 4.55 -72.85 -1.75 -72.85 -13.65 -72.85 -21.55 -70.5 -30.95 -68.25 -40.15 -64.65 -47.05 -62.55 -51.1 -59.85 -55.15 L-58.65 -56.85 -55.85 -57.45 -55.1 -57.65 -56.25 -56.1 Q-59.05 -52.35 -61.45 -47.75 -65.8 -39.55 -68.1 -29.85 -70.15 -21.3 -70.15 -13.8 L-70.2 -9.5 Q-70.2 -7.55 -69.5 -4.6 -68.8 -1.65 -66.25 2.4 -64.0 5.95 -60.8 7.9 L-59.95 8.35 Q-56.2 10.3 -46.1 11.7 L-25.1 12.5 -10.65 11.9 -4.5 12.15 3.4 11.5 4.25 11.25 4.8 11.15 Q6.3 10.7 7.15 9.35 L7.7 8.25 7.9 7.7 8.0 6.55 Q8.0 5.4 7.25 4.3 L6.7 3.65 5.9 2.95 4.8 2.75 3.2 2.2 3.1 1.8 Q4.2 1.45 7.35 1.75 L7.65 1.8 Q8.95 1.1 10.0 -0.2 11.9 -2.5 11.9 -4.8 11.9 -6.5 10.2 -8.05 L8.75 -9.1 8.3 -9.35 4.9 -9.25 3.55 -9.4 3.5 -9.55 3.4 -10.1 Q3.4 -10.8 5.15 -11.0 L7.0 -11.05 8.85 -11.05 9.7 -12.4 Q11.15 -14.45 11.15 -16.15 11.15 -17.6 10.55 -18.7 9.7 -20.35 7.7 -21.05 L6.3 -21.85 1.85 -22.45 0.9 -22.55 -6.2 -22.3 -11.6 -22.45 -13.15 -22.5 -14.4 -22.6 -14.5 -22.85 -14.6 -23.5 -14.5 -23.9 M-18.35 -41.7 L-18.3 -42.15 -18.25 -43.6 -17.0 -41.8 -16.7 -41.05 Q-16.75 -39.65 -17.35 -37.8 -18.05 -35.65 -18.9 -34.55 L-20.05 -32.8 -21.3 -31.15 Q-21.75 -30.5 -22.95 -29.5 L-23.25 -29.25 -23.85 -28.8 Q-25.55 -27.45 -26.4 -27.15 -23.6 -26.3 -18.7 -26.3 L-18.4 -26.45 -17.95 -26.4 -18.2 -25.8 -18.25 -25.75 -18.2 -25.5 -19.8 -25.15 -21.8 -24.9 Q-23.85 -24.9 -26.95 -26.1 L-27.9 -26.5 -31.1 -27.9 Q-33.0 -28.6 -38.3 -28.8 L-40.4 -28.85 -43.9 -28.9 -45.7 -29.0 -45.85 -29.0 -46.1 -29.0 -44.45 -29.7 Q-42.75 -30.35 -41.55 -30.4 L-36.3 -30.85 -35.35 -30.75 Q-37.85 -32.65 -40.2 -33.75 L-40.1 -33.9 -40.05 -33.95 Q-37.1 -33.6 -35.15 -32.25 L-32.75 -30.05 -31.8 -29.5 Q-30.0 -29.1 -27.75 -27.65 -25.95 -28.5 -24.5 -29.8 L-24.05 -30.3 -23.75 -30.55 -23.3 -31.25 -21.65 -33.6 -20.9 -34.8 -19.55 -37.45 -18.95 -38.45 -18.55 -40.05 -18.4 -41.35 -18.35 -41.7" fill="#000000" fill-rule="evenodd" stroke="none"/>
      <path d="M-56.25 -56.1 L-53.2 -56.35 -53.15 -56.35 -54.9 -54.0 -57.6 -49.85 Q-58.95 -47.55 -59.85 -44.75 -60.0 -44.15 -60.3 -43.75 -60.6 -42.65 -60.9 -42.3 L-61.6 -40.6 -62.6 -37.95 -63.95 -33.45 -64.7 -30.55 Q-64.85 -29.1 -65.1 -28.4 L-65.4 -27.25 -65.7 -26.0 Q-65.9 -23.85 -66.25 -22.75 L-66.55 -19.8 -66.8 -18.35 -66.85 -17.45 -67.15 -14.5 -67.35 -13.0 -67.55 -10.95 Q-67.65 -10.1 -67.4 -9.7 -67.1 -6.35 -66.3 -3.85 L-64.85 1.2 -61.9 6.25 -60.8 7.9 Q-64.0 5.95 -66.25 2.4 -68.8 -1.65 -69.5 -4.6 -70.2 -7.55 -70.2 -9.5 L-70.15 -13.8 Q-70.15 -21.3 -68.1 -29.85 -65.8 -39.55 -61.45 -47.75 -59.05 -52.35 -56.25 -56.1 M1.85 -22.45 L6.3 -21.85 7.7 -21.05 Q9.7 -20.35 10.55 -18.7 11.15 -17.6 11.15 -16.15 11.15 -14.45 9.7 -12.4 L8.85 -11.05 7.0 -11.05 7.0 -11.25 7.15 -12.4 7.6 -13.9 7.6 -17.45 Q7.55 -18.45 6.95 -19.25 6.55 -20.2 5.65 -21.0 4.4 -22.05 3.0 -22.3 L1.85 -22.45 M8.75 -9.1 L10.2 -8.05 Q11.9 -6.5 11.9 -4.8 11.9 -2.5 10.0 -0.2 8.95 1.1 7.65 1.8 L7.35 1.75 Q7.55 0.2 8.15 -0.8 L8.55 -2.65 8.8 -3.85 8.95 -6.8 8.75 -9.1 M7.25 4.3 Q8.0 5.4 8.0 6.55 L7.9 7.7 7.7 8.25 7.15 9.35 Q6.3 10.7 4.8 11.15 5.95 9.35 6.75 7.1 L7.25 4.3 M-45.85 -29.0 L-45.7 -29.0 -43.9 -28.9 -40.4 -28.85 -38.3 -28.8 Q-33.0 -28.6 -31.1 -27.9 L-27.9 -26.5 -27.85 -26.45 Q-26.65 -26.0 -26.1 -24.85 L-27.25 -24.4 -29.9 -24.3 -35.25 -24.45 -39.7 -24.6 -42.65 -24.45 -48.95 -24.1 -52.2 -23.5 -54.8 -22.8 Q-55.7 -22.4 -56.3 -22.8 -54.4 -25.45 -50.95 -26.9 L-48.85 -27.75 Q-47.5 -28.25 -46.55 -28.75 L-45.85 -29.0" fill="#bdbdbd" fill-rule="evenodd" stroke="none"/>
      <path d="M-53.15 -56.35 L-52.05 -56.3 -47.35 -56.0 -42.05 -54.75 -37.55 -53.05 -35.3 -52.25 -31.0 -50.1 -23.8 -45.8 Q-22.9 -44.95 -21.8 -44.25 L-19.5 -42.65 -18.35 -41.7 -18.4 -41.35 -18.55 -40.05 -18.95 -38.45 -19.55 -37.45 -20.9 -34.8 -21.65 -33.6 -23.3 -31.25 -23.75 -30.55 -24.05 -30.3 -24.5 -29.8 Q-25.95 -28.5 -27.75 -27.65 -30.0 -29.1 -31.8 -29.5 L-32.75 -30.05 -35.15 -32.25 Q-37.1 -33.6 -40.05 -33.95 L-40.1 -33.9 -40.2 -33.75 Q-37.85 -32.65 -35.35 -30.75 L-36.3 -30.85 -41.55 -30.4 Q-42.75 -30.35 -44.45 -29.7 L-46.1 -29.0 -45.85 -29.0 -46.55 -28.75 Q-47.5 -28.25 -48.85 -27.75 L-50.95 -26.9 Q-54.4 -25.45 -56.3 -22.8 -55.7 -22.4 -54.8 -22.8 L-52.2 -23.5 -48.95 -24.1 -42.65 -24.45 -39.7 -24.6 -35.25 -24.45 -29.9 -24.3 -27.25 -24.4 -26.1 -24.85 Q-26.65 -26.0 -27.85 -26.45 L-27.9 -26.5 -26.95 -26.1 Q-23.85 -24.9 -21.8 -24.9 L-19.8 -25.15 -18.2 -25.5 Q-17.75 -24.85 -17.15 -24.75 L-15.9 -24.35 -15.45 -24.15 -14.5 -23.9 -14.6 -23.5 -14.5 -22.85 -14.4 -22.6 -13.15 -22.5 -11.6 -22.45 -6.2 -22.3 0.9 -22.55 1.85 -22.45 3.0 -22.3 Q4.4 -22.05 5.65 -21.0 6.55 -20.2 6.95 -19.25 7.55 -18.45 7.6 -17.45 L7.6 -13.9 7.15 -12.4 7.0 -11.25 7.0 -11.05 5.15 -11.0 Q3.4 -10.8 3.4 -10.1 L3.5 -9.55 3.55 -9.4 4.9 -9.25 8.3 -9.35 8.75 -9.1 8.95 -6.8 8.8 -3.85 8.55 -2.65 8.15 -0.8 Q7.55 0.2 7.35 1.75 4.2 1.45 3.1 1.8 L3.2 2.2 4.8 2.75 5.9 2.95 6.7 3.65 7.25 4.3 6.75 7.1 Q5.95 9.35 4.8 11.15 L4.25 11.25 3.4 11.5 -4.5 12.15 -10.65 11.9 -25.1 12.5 -46.1 11.7 Q-56.2 10.3 -59.95 8.35 L-60.8 7.9 -61.9 6.25 -64.85 1.2 -66.3 -3.85 Q-67.1 -6.35 -67.4 -9.7 -67.65 -10.1 -67.55 -10.95 L-67.35 -13.0 -67.15 -14.5 -66.85 -17.45 -66.8 -18.35 -66.55 -19.8 -66.25 -22.75 Q-65.9 -23.85 -65.7 -26.0 L-65.4 -27.25 -65.1 -28.4 Q-64.85 -29.1 -64.7 -30.55 L-63.95 -33.45 -62.6 -37.95 -61.6 -40.6 -60.9 -42.3 Q-60.6 -42.65 -60.3 -43.75 -60.0 -44.15 -59.85 -44.75 -58.95 -47.55 -57.6 -49.85 L-54.9 -54.0 -53.15 -56.35" fill="#999999" fill-rule="evenodd" stroke="none"/>
      <path d="M70.3 -15.5 L67.95 -15.85 Q66.95 -15.95 66.35 -16.75 L65.75 -17.95 Q65.1 -18.8 64.7 -20.25 L64.3 -22.35 64.3 -22.45 64.25 -22.6 Q63.95 -23.25 63.95 -23.9 L64.05 -25.45 64.1 -25.7 64.05 -25.75 64.0 -26.8 63.9 -29.35 63.95 -29.5 63.95 -30.15 64.15 -31.4 64.2 -31.6 64.7 -31.35 Q65.1 -29.8 65.35 -29.35 L65.65 -27.95 65.95 -24.95 66.2 -23.55 66.45 -22.3 Q67.05 -19.2 68.45 -17.3 L69.95 -15.8 70.3 -15.5 M62.8 -28.9 L62.75 -27.35 62.7 -28.05 62.75 -28.95 62.8 -28.9" fill="#bdbdbd" fill-rule="evenodd" stroke="none"/>
      <path d="M64.2 -31.6 L64.15 -31.4 63.95 -30.15 63.95 -29.5 63.9 -29.35 64.0 -26.8 64.05 -25.75 64.1 -25.7 64.05 -25.45 63.95 -23.9 Q63.95 -23.25 64.25 -22.6 L64.3 -22.45 64.3 -22.35 64.7 -20.25 Q65.1 -18.8 65.75 -17.95 L66.35 -16.75 Q66.95 -15.95 67.95 -15.85 L70.3 -15.5 71.9 -15.15 81.8 -14.8 Q84.05 -14.8 84.75 -17.85 L84.75 -17.95 85.0 -18.9 85.3 -21.35 Q85.3 -22.75 85.0 -23.35 L84.8 -23.65 84.75 -24.4 84.0 -24.35 82.45 -24.9 78.45 -25.25 76.55 -25.6 75.65 -25.75 75.6 -25.8 Q75.6 -27.05 78.0 -26.85 L77.85 -27.8 77.15 -29.2 76.4 -30.35 76.4 -30.55 76.5 -30.7 77.15 -30.65 Q78.1 -30.45 78.8 -28.8 L79.2 -27.65 79.45 -26.65 79.55 -26.65 80.85 -26.8 80.9 -27.0 82.05 -27.0 81.9 -26.8 83.2 -26.7 83.6 -26.8 83.7 -26.85 83.9 -26.75 84.2 -26.65 85.15 -26.25 85.5 -26.1 85.5 -26.05 85.65 -26.0 85.75 -25.95 85.55 -25.9 85.85 -25.65 Q86.8 -24.6 86.8 -21.0 L86.7 -18.55 86.8 -18.55 86.55 -16.95 86.35 -16.7 86.35 -16.65 86.25 -16.55 Q85.65 -15.9 85.65 -15.0 L85.15 -14.05 85.1 -14.1 Q83.8 -12.65 81.6 -12.65 73.15 -12.65 68.45 -13.95 65.75 -14.7 65.2 -15.4 L64.35 -17.15 63.5 -19.0 Q62.85 -20.25 62.75 -22.4 L62.7 -23.75 62.8 -24.0 62.8 -25.4 62.7 -26.8 62.7 -26.9 62.7 -27.1 62.75 -27.35 62.8 -28.9 62.8 -29.75 62.8 -29.8 62.8 -29.95 62.8 -30.45 Q62.8 -32.2 64.05 -35.05 L65.35 -35.15 64.8 -33.7 64.4 -32.55 64.2 -31.6" fill="#000000" fill-rule="evenodd" stroke="none"/>
      <path d="M70.3 -15.5 L69.95 -15.8 68.45 -17.3 Q67.05 -19.2 66.45 -22.3 L66.2 -23.55 65.95 -24.95 65.65 -27.95 65.35 -29.35 Q65.1 -29.8 64.7 -31.35 L64.2 -31.6 64.4 -32.55 64.8 -33.7 65.35 -35.15 Q71.8 -35.35 76.55 -31.15 L77.15 -30.65 76.5 -30.7 76.4 -30.55 76.4 -30.35 77.15 -29.2 77.85 -27.8 78.0 -26.85 Q75.6 -27.05 75.6 -25.8 L75.65 -25.75 76.55 -25.6 78.45 -25.25 82.45 -24.9 84.0 -24.35 84.75 -24.4 84.8 -23.65 85.0 -23.35 Q85.3 -22.75 85.3 -21.35 L85.0 -18.9 84.75 -17.95 84.75 -17.85 Q84.05 -14.8 81.8 -14.8 L71.9 -15.15 70.3 -15.5 M62.8 -29.95 L62.8 -29.8 62.8 -29.75 62.8 -28.9 62.75 -28.95 62.8 -29.95 M85.5 -26.1 L85.15 -26.25 84.2 -26.65 83.9 -26.75 85.25 -26.4 85.35 -26.2 85.5 -26.1 M83.6 -26.8 L83.2 -26.7 81.9 -26.8 82.05 -27.0 83.6 -26.8 M80.9 -27.0 L80.85 -26.8 79.55 -26.65 79.45 -26.65 79.2 -27.65 79.5 -26.9 79.8 -26.9 80.9 -27.0" fill="#999999" fill-rule="evenodd" stroke="none"/>
    </g>
  </defs>
</svg>
