<?xml version="1.0" encoding="UTF-8" standalone="no"?>
<svg xmlns:xlink="http://www.w3.org/1999/xlink" height="531.5px" width="460.6px" xmlns="http://www.w3.org/2000/svg">
  <g transform="matrix(1.0, 0.0, 0.0, 1.0, 193.65, 334.05)">
    <use height="176.85" transform="matrix(1.0, 0.0, 0.0, 1.0, -104.55, -150.55)" width="304.85" xlink:href="#shape0"/>
  </g>
  <defs>
    <g id="shape0" transform="matrix(1.0, 0.0, 0.0, 1.0, 104.55, 150.55)">
      <path d="M4.6 4.55 L4.6 6.25 -2.35 7.4 Q-11.7 8.15 -21.1 7.25 -31.45 6.8 -41.5 4.05 -47.55 2.4 -53.25 -0.3 L-63.4 -6.1 -64.3 -6.45 -64.5 -6.65 Q-66.25 -7.65 -66.65 -8.0 L-66.7 -8.05 Q-67.15 -8.5 -67.15 -9.5 -67.1 -10.95 -66.05 -13.9 L-65.5 -15.4 -65.9 -17.15 -65.85 -19.65 -65.3 -26.05 Q-64.85 -30.85 -62.85 -35.3 -60.8 -39.9 -58.9 -42.8 -57.05 -45.75 -55.45 -47.2 L-53.85 -48.65 -53.7 -48.5 -53.1 -48.6 -43.05 -48.6 -34.25 -48.45 -13.55 -48.05 -11.25 -47.95 -11.0 -47.75 -11.0 -47.5 -11.1 -47.45 -10.95 -47.05 -10.55 -44.2 -10.5 -41.5 Q-10.55 -39.65 -10.9 -38.6 L-11.2 -37.8 -9.2 -37.45 -5.35 -36.4 Q-2.15 -35.35 2.55 -33.15 L4.6 -32.25 9.0 -30.7 9.25 -31.3 8.85 -29.2 4.6 -30.7 0.6 -32.35 Q-5.45 -34.95 -9.4 -35.85 L-13.0 -36.4 -21.35 -36.05 -25.35 -35.75 -26.05 -35.75 -26.2 -36.2 -25.95 -36.35 -24.75 -36.8 Q-22.25 -37.6 -16.1 -37.9 L-15.55 -37.95 -12.75 -38.0 -12.8 -38.25 -12.8 -38.3 -14.2 -38.8 -17.3 -39.85 -22.1 -40.7 -26.35 -41.55 -26.4 -41.95 -25.55 -41.95 -23.2 -42.0 -23.3 -41.95 -16.15 -40.9 -12.5 -39.8 -12.45 -40.0 -12.35 -40.95 -12.25 -45.15 -12.35 -45.7 -12.6 -47.15 -12.5 -47.35 -14.1 -47.35 -30.4 -47.5 -31.4 -47.55 -49.1 -47.75 -51.85 -47.9 -53.4 -48.05 -53.95 -47.85 -56.6 -43.8 Q-60.05 -38.3 -62.25 -33.0 -63.5 -29.85 -64.1 -25.35 -64.35 -22.9 -64.4 -17.75 L-63.8 -15.75 Q-63.25 -14.3 -63.25 -13.9 -63.25 -12.8 -64.0 -12.8 -64.45 -12.85 -64.85 -13.75 L-65.1 -13.15 -65.85 -9.55 -65.75 -9.25 Q-65.4 -8.85 -64.45 -8.3 L-64.2 -8.1 -60.8 -5.9 Q-56.4 -3.2 -51.85 -1.05 -46.65 1.45 -40.9 2.8 -31.1 5.15 -21.05 5.45 L-12.35 5.95 Q-3.7 6.2 4.6 4.55" fill="#000000" fill-rule="evenodd" stroke="none"/>
      <path d="M8.85 -29.2 Q7.55 -22.35 5.6 -15.35 L4.6 -12.65 4.6 3.05 Q-3.7 4.75 -12.35 4.55 L-20.7 4.1 Q-30.3 3.75 -39.7 1.5 -45.15 0.15 -50.1 -2.2 -53.8 -3.95 -57.3 -6.1 L-61.95 -9.15 -62.25 -9.3 Q-63.55 -10.1 -63.55 -10.5 L-63.05 -12.85 -62.75 -14.0 -62.55 -14.6 -62.5 -14.5 -62.35 -15.65 -62.2 -18.05 -62.15 -18.4 -62.15 -18.5 -61.8 -25.9 Q-61.2 -30.3 -60.0 -33.35 -57.9 -38.5 -54.55 -43.9 L-51.95 -47.85 -51.85 -47.9 -49.1 -47.75 -31.4 -47.55 -30.4 -47.5 -14.1 -47.35 -12.5 -47.35 -12.6 -47.15 -12.35 -45.7 -12.25 -45.15 -12.35 -40.95 -12.45 -40.0 -12.5 -39.8 -16.15 -40.9 -23.3 -41.95 -23.2 -42.0 -25.55 -41.95 -26.4 -41.95 -26.35 -41.55 -22.1 -40.7 -17.3 -39.85 -14.2 -38.8 -12.8 -38.3 -12.8 -38.25 -12.75 -38.0 -15.55 -37.95 -16.1 -37.9 Q-22.25 -37.6 -24.75 -36.8 L-25.95 -36.35 -26.2 -36.2 -26.05 -35.75 -25.35 -35.75 -21.35 -36.05 -13.0 -36.4 -9.4 -35.85 Q-5.45 -34.95 0.6 -32.35 L4.6 -30.7 8.85 -29.2" fill="#999999" fill-rule="evenodd" stroke="none"/>
      <path d="M4.6 3.05 L4.6 4.55 Q-3.7 6.2 -12.35 5.95 L-21.05 5.45 Q-31.1 5.15 -40.9 2.8 -46.65 1.45 -51.85 -1.05 -56.4 -3.2 -60.8 -5.9 L-64.2 -8.1 -64.45 -8.3 Q-65.4 -8.85 -65.75 -9.25 L-65.85 -9.55 -65.1 -13.15 -64.85 -13.75 Q-64.45 -12.85 -64.0 -12.8 -63.25 -12.8 -63.25 -13.9 -63.25 -14.3 -63.8 -15.75 L-64.4 -17.75 Q-64.35 -22.9 -64.1 -25.35 -63.5 -29.85 -62.25 -33.0 -60.05 -38.3 -56.6 -43.8 L-53.95 -47.85 -53.4 -48.05 -51.85 -47.9 -51.95 -47.85 -54.55 -43.9 Q-57.9 -38.5 -60.0 -33.35 -61.2 -30.3 -61.8 -25.9 L-62.15 -18.5 -62.15 -18.4 -62.2 -18.05 -62.35 -15.65 -62.5 -14.5 -62.55 -14.6 -62.75 -14.0 -63.05 -12.85 -63.55 -10.5 Q-63.55 -10.1 -62.25 -9.3 L-61.95 -9.15 -57.3 -6.1 Q-53.8 -3.95 -50.1 -2.2 -45.15 0.15 -39.7 1.5 -30.3 3.75 -20.7 4.1 L-12.35 4.55 Q-3.7 4.75 4.6 3.05" fill="#bdbdbd" fill-rule="evenodd" stroke="none"/>
      <path d="M-58.15 -128.85 Q-44.75 -116.75 -25.0 -109.2 -14.9 -105.85 -4.5 -103.85 -42.75 -83.25 -87.95 -80.0 -94.4 -92.65 -95.85 -107.9 -97.9 -129.1 -89.15 -144.5 -87.35 -146.65 -78.2 -142.1 -67.4 -136.65 -58.15 -128.85" fill="#f5c8e3" fill-opacity="0.7921569" fill-rule="evenodd" stroke="none"/>
      <path d="M-58.15 -128.85 Q-44.75 -116.75 -25.0 -109.2 -14.9 -105.85 -4.5 -103.85 -42.75 -83.25 -87.95 -80.0 -94.4 -92.65 -95.85 -107.9 -97.9 -129.1 -89.15 -144.5 -87.35 -146.65 -78.2 -142.1 -67.4 -136.65 -58.15 -128.85 Z" fill="none" stroke="#000000" stroke-linecap="round" stroke-linejoin="round" stroke-opacity="0.4" stroke-width="1.0"/>
      <path d="M1.2 -28.65 Q-7.85 -27.75 -19.4 -22.95 L-47.15 -11.0 Q-63.3 -3.8 -73.0 -1.35 -82.75 1.05 -90.45 -0.15 -96.4 -14.4 -94.35 -35.4 -92.9 -50.5 -86.45 -62.6 -41.3 -55.15 1.2 -28.65" fill="#f5c8e3" fill-opacity="0.7921569" fill-rule="evenodd" stroke="none"/>
      <path d="M1.2 -28.65 Q-41.3 -55.15 -86.45 -62.6 -92.9 -50.5 -94.35 -35.4 -96.4 -14.4 -90.45 -0.15 -82.75 1.05 -73.0 -1.35 -63.3 -3.8 -47.15 -11.0 L-19.4 -22.95 Q-7.85 -27.75 1.2 -28.65 Z" fill="none" stroke="#000000" stroke-linecap="round" stroke-linejoin="round" stroke-opacity="0.4" stroke-width="1.0"/>
      <path d="M-82.75 -55.4 L-85.85 -57.1 Q-113.8 -70.6 -98.85 -78.8 -91.2 -82.95 -83.2 -86.35 -69.55 -92.15 -54.85 -95.85 -36.75 -100.7 -18.75 -103.45 13.7 -108.45 45.85 -106.55 56.0 -107.5 58.85 -94.0 63.8 -74.1 58.05 -43.35 54.65 -21.25 39.8 -23.3 11.85 -23.75 -14.5 -29.65 -50.1 -37.6 -82.75 -55.4" fill="url(#gradient0)" fill-rule="evenodd" stroke="none"/>
      <path d="M-82.75 -55.4 L-85.85 -57.1 Q-113.8 -70.6 -98.85 -78.8 -91.2 -82.95 -83.2 -86.35 M-18.75 -103.45 Q13.7 -108.45 45.85 -106.55 56.0 -107.5 58.85 -94.0 63.8 -74.1 58.05 -43.35 54.65 -21.25 39.8 -23.3 11.85 -23.75 -14.5 -29.65" fill="none" stroke="#000000" stroke-linecap="round" stroke-linejoin="round" stroke-opacity="0.4" stroke-width="1.0"/>
      <path d="M37.2 -29.8 Q38.6 -25.05 41.05 -19.35 47.0 -16.8 46.15 -5.0 52.1 -0.15 48.8 23.85 46.55 26.4 39.8 25.65 L37.25 23.55 Q32.9 19.2 32.9 11.5 32.9 9.35 33.95 4.6 35.05 -0.2 35.05 -2.65 35.05 -4.3 34.35 -5.5 L32.9 -7.35 Q30.7 -9.8 30.7 -13.55 30.7 -18.25 32.55 -22.05 L36.8 -29.7 37.2 -29.8" fill="#ffdbcf" fill-rule="evenodd" stroke="none"/>
      <path d="M39.8 25.65 L39.0 25.55 Q22.85 20.55 18.5 6.85 22.85 -19.9 15.8 -44.4 L35.15 -41.65 Q35.1 -37.1 36.8 -31.05 L37.2 -29.8 36.8 -29.7 32.55 -22.05 Q30.7 -18.25 30.7 -13.55 30.7 -9.8 32.9 -7.35 L34.35 -5.5 Q35.05 -4.3 35.05 -2.65 35.05 -0.2 33.95 4.6 32.9 9.35 32.9 11.5 32.9 19.2 37.25 23.55 L39.8 25.65" fill="url(#gradient1)" fill-rule="evenodd" stroke="none"/>
      <path d="M37.2 -29.8 Q38.6 -25.05 41.05 -19.35 47.0 -16.8 46.15 -5.0 52.1 -0.15 48.8 23.85 46.55 26.4 39.8 25.65 L39.0 25.55 Q22.85 20.55 18.5 6.85 22.85 -19.9 15.8 -44.4 L35.15 -41.65 Q35.1 -37.1 36.8 -31.05 L37.2 -29.8 Z" fill="none" stroke="#000000" stroke-linecap="round" stroke-linejoin="round" stroke-opacity="0.4" stroke-width="1.0"/>
      <path d="M196.4 -78.25 Q193.25 -74.65 189.6 -67.95 175.9 -51.1 148.25 -58.65 133.5 -67.3 108.55 -62.15 115.05 -66.0 124.9 -67.8 L136.3 -69.3 146.45 -70.5 Q157.85 -72.3 170.85 -76.55 175.75 -78.2 178.95 -78.8 L189.4 -79.65 Q191.8 -79.65 196.4 -78.25" fill="#ffdbcf" fill-rule="evenodd" stroke="none"/>
      <path d="M108.55 -62.15 Q103.05 -61.05 97.15 -59.3 91.85 -66.45 97.15 -74.4 133.35 -72.05 171.05 -86.25 192.4 -90.5 199.8 -81.45 198.15 -80.35 196.4 -78.25 191.8 -79.65 189.4 -79.65 L178.95 -78.8 Q175.75 -78.2 170.85 -76.55 157.85 -72.3 146.45 -70.5 L136.3 -69.3 124.9 -67.8 Q115.05 -66.0 108.55 -62.15" fill="url(#gradient2)" fill-rule="evenodd" stroke="none"/>
      <path d="M108.55 -62.15 Q103.05 -61.05 97.15 -59.3 91.85 -66.45 97.15 -74.4 133.35 -72.05 171.05 -86.25 192.4 -90.5 199.8 -81.45 198.15 -80.35 196.4 -78.25 193.25 -74.65 189.6 -67.95 175.9 -51.1 148.25 -58.65 133.5 -67.3 108.55 -62.15 Z" fill="none" stroke="#000000" stroke-linecap="round" stroke-linejoin="round" stroke-opacity="0.4" stroke-width="1.0"/>
      <path d="M172.1 -64.65 Q173.75 -67.1 176.9 -68.25 180.1 -69.4 182.9 -68.6 185.7 -67.75 186.55 -65.45 187.4 -63.15 185.75 -60.75 184.15 -58.3 180.95 -57.15 177.8 -56.0 174.95 -56.8 172.1 -57.55 171.25 -59.9 170.4 -62.2 172.1 -64.65 M178.45 -64.55 Q176.75 -63.95 175.85 -62.65 174.95 -61.3 175.4 -60.05 175.85 -58.8 177.4 -58.4 L180.65 -58.6 Q182.35 -59.2 183.25 -60.5 184.15 -61.85 183.65 -63.05 183.2 -64.3 181.65 -64.75 L178.45 -64.55" fill="#c287a8" fill-rule="evenodd" stroke="none"/>
      <path d="M178.45 -64.55 L181.65 -64.75 Q183.2 -64.3 183.65 -63.05 184.15 -61.85 183.25 -60.5 182.35 -59.2 180.65 -58.6 L177.4 -58.4 Q175.85 -58.8 175.4 -60.05 174.95 -61.3 175.85 -62.65 176.75 -63.95 178.45 -64.55" fill="#9c6c85" fill-rule="evenodd" stroke="none"/>
      <path d="M185.15 -77.5 Q186.75 -78.55 188.95 -78.5 191.05 -78.35 192.55 -77.25 194.05 -76.05 194.0 -74.5 193.95 -72.9 192.4 -71.85 190.85 -70.8 188.65 -70.85 186.5 -70.95 185.0 -72.1 183.45 -73.25 183.5 -74.85 183.6 -76.4 185.15 -77.5 M190.9 -75.25 Q190.1 -75.85 188.95 -75.9 187.8 -75.9 186.95 -75.4 186.1 -74.8 186.05 -73.95 186.0 -73.1 186.85 -72.45 187.65 -71.85 188.8 -71.8 190.0 -71.75 190.85 -72.35 191.7 -72.9 191.7 -73.75 191.75 -74.6 190.9 -75.25" fill="#c287a8" fill-rule="evenodd" stroke="none"/>
      <path d="M190.9 -75.25 Q191.75 -74.6 191.7 -73.75 191.7 -72.9 190.85 -72.35 190.0 -71.75 188.8 -71.8 187.65 -71.85 186.85 -72.45 186.0 -73.1 186.05 -73.95 186.1 -74.8 186.95 -75.4 187.8 -75.9 188.95 -75.9 190.1 -75.85 190.9 -75.25" fill="#9c6c85" fill-rule="evenodd" stroke="none"/>
      <path d="M157.45 -62.65 Q159.8 -63.9 162.7 -63.6 165.65 -63.2 167.55 -61.5 169.45 -59.7 169.2 -57.6 169.0 -55.45 166.65 -54.15 164.45 -52.9 161.5 -53.25 158.55 -53.6 156.6 -55.35 154.7 -57.1 154.95 -59.25 155.2 -61.4 157.45 -62.65 M161.8 -54.5 Q163.4 -54.3 164.65 -55.0 165.85 -55.7 165.95 -56.85 166.1 -57.95 165.05 -58.95 164.05 -59.85 162.5 -60.1 160.9 -60.25 159.65 -59.55 158.45 -58.85 158.3 -57.75 158.15 -56.55 159.2 -55.65 160.25 -54.7 161.8 -54.5" fill="#c287a8" fill-rule="evenodd" stroke="none"/>
      <path d="M161.8 -54.5 Q160.25 -54.7 159.2 -55.65 158.15 -56.55 158.3 -57.75 158.45 -58.85 159.65 -59.55 160.9 -60.25 162.5 -60.1 164.05 -59.85 165.05 -58.95 166.1 -57.95 165.95 -56.85 165.85 -55.7 164.65 -55.0 163.4 -54.3 161.8 -54.5" fill="#9c6c85" fill-rule="evenodd" stroke="none"/>
      <path d="M142.35 -66.35 Q144.8 -67.15 147.65 -66.35 150.5 -65.5 152.05 -63.5 153.65 -61.45 153.05 -59.35 152.45 -57.3 150.0 -56.4 147.6 -55.5 144.75 -56.35 141.9 -57.2 140.25 -59.25 138.7 -61.25 139.3 -63.35 139.9 -65.45 142.35 -66.35 M146.8 -62.95 L143.95 -62.9 Q142.7 -62.45 142.35 -61.35 142.0 -60.2 142.85 -59.1 143.75 -58.0 145.25 -57.6 146.8 -57.1 148.1 -57.6 149.45 -58.05 149.75 -59.15 150.1 -60.3 149.2 -61.4 148.35 -62.5 146.8 -62.95" fill="#c287a8" fill-rule="evenodd" stroke="none"/>
      <path d="M146.8 -62.95 Q148.35 -62.5 149.2 -61.4 150.1 -60.3 149.75 -59.15 149.45 -58.05 148.1 -57.6 146.8 -57.1 145.25 -57.6 143.75 -58.0 142.85 -59.1 142.0 -60.2 142.35 -61.35 142.7 -62.45 143.95 -62.9 L146.8 -62.95" fill="#9c6c85" fill-rule="evenodd" stroke="none"/>
      <path d="M156.5 -71.9 Q158.2 -73.6 160.9 -74.05 163.65 -74.45 165.75 -73.3 167.95 -72.2 168.25 -70.25 168.55 -68.25 166.8 -66.55 165.1 -64.85 162.35 -64.5 159.7 -64.05 157.5 -65.15 155.35 -66.25 155.05 -68.25 154.75 -70.25 156.5 -71.9 M161.55 -70.85 Q160.1 -70.6 159.2 -69.7 158.25 -68.8 158.45 -67.75 158.6 -66.65 159.7 -66.05 160.9 -65.45 162.35 -65.7 163.85 -65.9 164.75 -66.8 165.65 -67.7 165.5 -68.8 165.35 -69.85 164.2 -70.45 163.05 -71.05 161.55 -70.85" fill="#c287a8" fill-rule="evenodd" stroke="none"/>
      <path d="M161.55 -70.85 Q163.05 -71.05 164.2 -70.45 165.35 -69.85 165.5 -68.8 165.65 -67.7 164.75 -66.8 163.85 -65.9 162.35 -65.7 160.9 -65.45 159.7 -66.05 158.6 -66.65 158.45 -67.75 158.25 -68.8 159.2 -69.7 160.1 -70.6 161.55 -70.85" fill="#9c6c85" fill-rule="evenodd" stroke="none"/>
      <path d="M170.7 -76.3 Q172.4 -78.0 175.1 -78.45 177.85 -78.85 179.95 -77.7 182.15 -76.6 182.45 -74.65 182.75 -72.65 181.0 -70.95 179.3 -69.25 176.55 -68.9 173.9 -68.45 171.7 -69.55 169.55 -70.65 169.25 -72.65 168.95 -74.65 170.7 -76.3 M178.4 -74.85 Q177.25 -75.45 175.75 -75.25 174.3 -75.0 173.4 -74.1 172.45 -73.2 172.65 -72.15 172.8 -71.05 173.9 -70.45 175.1 -69.85 176.55 -70.1 178.05 -70.3 178.95 -71.2 179.85 -72.1 179.7 -73.2 179.55 -74.25 178.4 -74.85" fill="#c287a8" fill-rule="evenodd" stroke="none"/>
      <path d="M178.4 -74.85 Q179.55 -74.25 179.7 -73.2 179.85 -72.1 178.95 -71.2 178.05 -70.3 176.55 -70.1 175.1 -69.85 173.9 -70.45 172.8 -71.05 172.65 -72.15 172.45 -73.2 173.4 -74.1 174.3 -75.0 175.75 -75.25 177.25 -75.45 178.4 -74.85" fill="#9c6c85" fill-rule="evenodd" stroke="none"/>
      <path d="M140.1 -150.05 Q144.45 -150.1 138.75 -144.85 125.8 -135.05 126.8 -127.3 128.45 -115.5 115.5 -105.25 102.55 -91.0 100.1 -76.45 L91.55 -86.6 Q94.65 -92.85 94.6 -100.75 95.55 -138.1 124.15 -146.4 L140.1 -150.05" fill="url(#gradient3)" fill-rule="evenodd" stroke="none"/>
      <path d="M140.1 -150.05 Q144.45 -150.1 138.75 -144.85 125.8 -135.05 126.8 -127.3 128.45 -115.5 115.5 -105.25 102.55 -91.0 100.1 -76.45 L91.55 -86.6 Q94.65 -92.85 94.6 -100.75 95.55 -138.1 124.15 -146.4 L140.1 -150.05 Z" fill="none" stroke="#000000" stroke-linecap="round" stroke-linejoin="round" stroke-opacity="0.4" stroke-width="1.0"/>
      <path d="M149.85 -37.4 Q149.55 -38.25 150.1 -39.05 150.7 -39.85 151.75 -40.2 L153.8 -40.25 Q154.8 -39.9 155.05 -39.1 155.35 -38.25 154.8 -37.5 154.25 -36.65 153.15 -36.3 152.05 -35.95 151.1 -36.3 150.1 -36.6 149.85 -37.4" fill="#9c6c85" fill-rule="evenodd" stroke="none"/>
      <path d="M177.65 -30.35 L176.4 -30.35 168.55 -31.65 160.2 -33.0 Q156.85 -33.15 147.0 -31.4 137.15 -29.65 134.55 -29.75 126.6 -30.15 119.55 -35.1 126.7 -33.05 135.25 -37.15 168.0 -50.45 177.65 -30.35" fill="#ffdbcf" fill-rule="evenodd" stroke="none"/>
      <path d="M119.55 -35.1 Q126.6 -30.15 134.55 -29.75 137.15 -29.65 147.0 -31.4 156.85 -33.15 160.2 -33.0 L168.55 -31.65 176.4 -30.35 177.65 -30.35 178.5 -28.35 Q179.0 -26.35 174.1 -27.2 163.95 -29.0 155.25 -25.45 147.8 -21.6 137.35 -19.95 126.5 -19.95 115.9 -24.55 110.65 -26.45 104.85 -32.15 96.3 -43.45 87.7 -42.75 L91.15 -50.55 Q101.9 -51.3 109.65 -41.45 114.2 -36.6 119.55 -35.1" fill="url(#gradient4)" fill-rule="evenodd" stroke="none"/>
      <path d="M119.55 -35.1 Q114.2 -36.6 109.65 -41.45 101.9 -51.3 91.15 -50.55 L87.7 -42.75 Q96.3 -43.45 104.85 -32.15 110.65 -26.45 115.9 -24.55 126.5 -19.95 137.35 -19.95 147.8 -21.6 155.25 -25.45 163.95 -29.0 174.1 -27.2 179.0 -26.35 178.5 -28.35 L177.65 -30.35 Q168.0 -50.45 135.25 -37.15 126.7 -33.05 119.55 -35.1 Z" fill="none" stroke="#000000" stroke-linecap="round" stroke-linejoin="round" stroke-opacity="0.4" stroke-width="1.0"/>
      <path d="M152.2 -38.85 Q151.3 -37.7 149.6 -37.25 147.9 -36.7 146.4 -37.2 144.9 -37.65 144.45 -38.85 144.0 -40.0 144.85 -41.15 145.75 -42.3 147.45 -42.8 149.15 -43.25 150.65 -42.85 152.2 -42.4 152.65 -41.2 153.1 -40.05 152.2 -38.85 M147.05 -39.05 L148.8 -39.1 Q149.7 -39.35 150.15 -39.95 150.65 -40.6 150.4 -41.2 150.15 -41.85 149.35 -42.1 148.5 -42.35 147.6 -42.1 146.7 -41.85 146.2 -41.2 145.75 -40.55 146.0 -39.95 146.25 -39.35 147.05 -39.05" fill="#ab7792" fill-rule="evenodd" stroke="none"/>
      <path d="M147.05 -39.05 Q146.25 -39.35 146.0 -39.95 145.75 -40.55 146.2 -41.2 146.7 -41.85 147.6 -42.1 148.5 -42.35 149.35 -42.1 150.15 -41.85 150.4 -41.2 150.65 -40.6 150.15 -39.95 149.7 -39.35 148.8 -39.1 L147.05 -39.05" fill="#8c6178" fill-rule="evenodd" stroke="none"/>
      <path d="M169.45 -37.0 Q168.3 -36.55 166.8 -37.0 165.4 -37.35 164.45 -38.3 163.5 -39.25 163.6 -40.2 163.75 -41.15 164.9 -41.6 166.0 -42.05 167.45 -41.6 168.9 -41.25 169.85 -40.3 170.75 -39.4 170.65 -38.35 170.55 -37.4 169.45 -37.0 M167.3 -41.1 L165.9 -41.05 Q165.3 -40.85 165.25 -40.3 165.15 -39.8 165.65 -39.3 166.2 -38.75 166.95 -38.55 L168.35 -38.6 Q168.95 -38.8 169.05 -39.35 169.1 -39.85 168.55 -40.35 168.1 -40.9 167.3 -41.1" fill="#ab7792" fill-rule="evenodd" stroke="none"/>
      <path d="M167.3 -41.1 Q168.1 -40.9 168.55 -40.35 169.1 -39.85 169.05 -39.35 168.95 -38.8 168.35 -38.6 L166.95 -38.55 Q166.2 -38.75 165.65 -39.3 165.15 -39.8 165.25 -40.3 165.3 -40.85 165.9 -41.05 L167.3 -41.1" fill="#8c6178" fill-rule="evenodd" stroke="none"/>
      <path d="M142.45 -36.7 Q141.85 -35.6 140.45 -35.0 L137.7 -34.65 Q136.35 -34.9 135.85 -35.85 135.4 -36.8 136.0 -37.9 136.65 -38.95 138.05 -39.55 L140.75 -39.9 Q142.1 -39.65 142.6 -38.75 143.1 -37.75 142.45 -36.7 M139.7 -39.1 L138.25 -38.95 137.15 -38.05 Q136.8 -37.45 137.1 -36.95 137.35 -36.5 138.05 -36.35 L139.55 -36.5 140.6 -37.4 Q141.0 -38.0 140.75 -38.5 140.4 -39.0 139.7 -39.1" fill="#ab7792" fill-rule="evenodd" stroke="none"/>
      <path d="M139.7 -39.1 Q140.4 -39.0 140.75 -38.5 141.0 -38.0 140.6 -37.4 L139.55 -36.5 138.05 -36.35 Q137.35 -36.5 137.1 -36.95 136.8 -37.45 137.15 -38.05 L138.25 -38.95 139.7 -39.1" fill="#8c6178" fill-rule="evenodd" stroke="none"/>
      <path d="M133.7 -33.25 Q132.75 -32.35 131.1 -32.05 L128.15 -32.4 Q126.8 -32.9 126.55 -33.95 126.3 -35.05 127.25 -35.9 128.2 -36.85 129.8 -37.05 L132.75 -36.85 Q134.1 -36.25 134.4 -35.2 134.7 -34.2 133.7 -33.25 M132.35 -35.45 Q132.2 -36.0 131.45 -36.3 L129.85 -36.45 Q128.95 -36.3 128.5 -35.85 127.95 -35.35 128.15 -34.75 128.25 -34.25 129.0 -33.9 L130.6 -33.8 Q131.45 -33.9 131.95 -34.4 132.5 -34.9 132.35 -35.45" fill="#ab7792" fill-rule="evenodd" stroke="none"/>
      <path d="M132.35 -35.45 Q132.5 -34.9 131.95 -34.4 131.45 -33.9 130.6 -33.8 L129.0 -33.9 Q128.25 -34.25 128.15 -34.75 127.95 -35.35 128.5 -35.85 128.95 -36.3 129.85 -36.45 L131.45 -36.3 Q132.2 -36.0 132.35 -35.45" fill="#8c6178" fill-rule="evenodd" stroke="none"/>
      <path d="M151.6 -33.0 Q150.45 -31.8 148.5 -31.5 146.6 -31.2 145.05 -31.95 143.45 -32.7 143.15 -34.15 142.9 -35.55 144.05 -36.75 145.2 -38.0 147.1 -38.3 149.05 -38.65 150.6 -37.8 152.2 -37.05 152.45 -35.65 152.75 -34.25 151.6 -33.0 M149.6 -34.6 Q150.25 -35.25 150.05 -36.05 149.9 -36.8 149.05 -37.2 L147.15 -37.45 Q146.1 -37.3 145.5 -36.65 144.9 -35.95 145.05 -35.2 145.2 -34.45 146.05 -34.0 L147.95 -33.75 Q149.0 -33.9 149.6 -34.6" fill="#c287a8" fill-rule="evenodd" stroke="none"/>
      <path d="M149.6 -34.6 Q149.0 -33.9 147.95 -33.75 L146.05 -34.0 Q145.2 -34.45 145.05 -35.2 144.9 -35.95 145.5 -36.65 146.1 -37.3 147.15 -37.45 L149.05 -37.2 Q149.9 -36.8 150.05 -36.05 150.25 -35.25 149.6 -34.6" fill="#9c6c85" fill-rule="evenodd" stroke="none"/>
      <path d="M160.8 -39.7 Q159.8 -38.95 158.25 -38.9 156.7 -38.9 155.5 -39.6 154.3 -40.35 154.2 -41.4 154.05 -42.5 155.05 -43.25 156.1 -44.0 157.65 -44.05 159.2 -44.05 160.4 -43.35 161.6 -42.6 161.75 -41.55 161.9 -40.45 160.8 -39.7 M157.65 -43.4 Q156.8 -43.4 156.25 -43.0 155.7 -42.55 155.75 -42.0 155.8 -41.45 156.45 -41.0 L157.95 -40.6 Q158.8 -40.65 159.35 -41.05 159.9 -41.45 159.85 -42.1 159.75 -42.65 159.1 -43.0 L157.65 -43.4" fill="#ab7792" fill-rule="evenodd" stroke="none"/>
      <path d="M157.65 -43.4 L159.1 -43.0 Q159.75 -42.65 159.85 -42.1 159.9 -41.45 159.35 -41.05 158.8 -40.65 157.95 -40.6 L156.45 -41.0 Q155.8 -41.45 155.75 -42.0 155.7 -42.55 156.25 -43.0 156.8 -43.4 157.65 -43.4" fill="#8c6178" fill-rule="evenodd" stroke="none"/>
      <path d="M162.9 -33.55 Q161.35 -32.6 159.25 -32.8 157.15 -33.0 155.75 -34.25 154.35 -35.45 154.4 -37.0 154.45 -38.5 156.0 -39.45 157.55 -40.35 159.65 -40.15 161.7 -39.95 163.2 -38.7 164.6 -37.5 164.5 -35.95 164.45 -34.45 162.9 -33.55 M159.25 -35.3 Q160.35 -35.2 161.2 -35.65 162.05 -36.2 162.05 -37.0 162.15 -37.8 161.4 -38.5 160.6 -39.1 159.5 -39.25 158.35 -39.4 157.5 -38.85 156.7 -38.35 156.65 -37.55 156.6 -36.7 157.35 -36.05 158.1 -35.45 159.25 -35.3" fill="#c287a8" fill-rule="evenodd" stroke="none"/>
      <path d="M159.25 -35.3 Q158.1 -35.45 157.35 -36.05 156.6 -36.7 156.65 -37.55 156.7 -38.35 157.5 -38.85 158.35 -39.4 159.5 -39.25 160.6 -39.1 161.4 -38.5 162.15 -37.8 162.05 -37.0 162.05 -36.2 161.2 -35.65 160.35 -35.2 159.25 -35.3" fill="#9c6c85" fill-rule="evenodd" stroke="none"/>
      <path d="M173.4 -31.25 L170.6 -31.4 Q169.1 -31.95 168.3 -33.15 167.5 -34.3 167.85 -35.35 168.2 -36.4 169.5 -36.75 L172.3 -36.55 Q173.8 -36.05 174.6 -34.85 175.4 -33.7 175.05 -32.65 174.7 -31.6 173.4 -31.25 M169.85 -34.1 Q170.3 -33.5 171.05 -33.2 L172.55 -33.1 Q173.3 -33.25 173.5 -33.85 173.65 -34.45 173.25 -35.05 L172.05 -35.95 170.5 -36.1 Q169.8 -35.85 169.6 -35.3 169.45 -34.75 169.85 -34.1" fill="#c287a8" fill-rule="evenodd" stroke="none"/>
      <path d="M169.85 -34.1 Q169.45 -34.75 169.6 -35.3 169.8 -35.85 170.5 -36.1 L172.05 -35.95 173.25 -35.05 Q173.65 -34.45 173.5 -33.85 173.3 -33.25 172.55 -33.1 L171.05 -33.2 Q170.3 -33.5 169.85 -34.1" fill="#9c6c85" fill-rule="evenodd" stroke="none"/>
      <path d="M140.9 -30.95 Q139.75 -29.75 137.8 -29.45 135.9 -29.15 134.35 -29.9 132.75 -30.65 132.45 -32.1 132.2 -33.5 133.35 -34.7 134.5 -35.95 136.4 -36.25 138.35 -36.6 139.9 -35.75 141.5 -35.0 141.75 -33.6 142.05 -32.2 140.9 -30.95 M137.25 -31.7 Q138.3 -31.85 138.9 -32.55 139.55 -33.2 139.35 -34.0 139.2 -34.75 138.35 -35.15 L136.45 -35.4 Q135.4 -35.25 134.8 -34.6 134.2 -33.9 134.35 -33.15 134.5 -32.4 135.35 -31.95 L137.25 -31.7" fill="#c287a8" fill-rule="evenodd" stroke="none"/>
      <path d="M137.25 -31.7 L135.35 -31.95 Q134.5 -32.4 134.35 -33.15 134.2 -33.9 134.8 -34.6 135.4 -35.25 136.45 -35.4 L138.35 -35.15 Q139.2 -34.75 139.35 -34.0 139.55 -33.2 138.9 -32.55 138.3 -31.85 137.25 -31.7" fill="#9c6c85" fill-rule="evenodd" stroke="none"/>
      <path d="M80.75 -21.2 Q83.45 -19.25 78.75 -15.95 72.5 -14.75 65.4 -18.25 61.95 -20.1 59.1 -24.5 55.6 -29.35 51.6 -33.05 L62.9 -35.35 Q65.6 -29.25 74.3 -24.1 76.45 -22.85 80.75 -21.2" fill="url(#gradient5)" fill-rule="evenodd" stroke="none"/>
      <path d="M80.75 -21.2 Q83.45 -19.25 78.75 -15.95 72.5 -14.75 65.4 -18.25 61.95 -20.1 59.1 -24.5 55.6 -29.35 51.6 -33.05 L62.9 -35.35 Q65.6 -29.25 74.3 -24.1 76.45 -22.85 80.75 -21.2 Z" fill="none" stroke="#000000" stroke-linecap="round" stroke-linejoin="round" stroke-opacity="0.4" stroke-width="1.0"/>
      <path d="M97.8 -93.7 L102.75 -92.9 104.25 -89.9 Q112.15 -72.1 105.65 -48.65 L104.95 -46.25 102.4 -38.85 102.25 -38.5 Q74.05 -28.9 44.75 -35.05 30.85 -65.7 47.2 -97.15 71.15 -97.8 97.8 -93.7" fill="#d695bd" fill-rule="evenodd" stroke="none"/>
      <path d="M104.25 -89.9 Q112.15 -72.1 105.65 -48.65 M102.4 -38.85 L102.25 -38.5 Q74.05 -28.9 44.75 -35.05 30.85 -65.7 47.2 -97.15 71.15 -97.8 97.8 -93.7" fill="none" stroke="#000000" stroke-linecap="round" stroke-linejoin="round" stroke-opacity="0.4" stroke-width="1.0"/>
      <path d="M54.65 -83.05 Q61.05 -89.5 70.15 -89.5 79.25 -89.5 85.7 -83.05 92.15 -76.65 92.15 -67.55 92.15 -58.4 85.7 -52.0 79.25 -45.55 70.15 -45.55 61.05 -45.55 54.65 -52.0 48.2 -58.4 48.2 -67.55 48.2 -76.65 54.65 -83.05 M64.6 -81.15 L64.65 -81.15 64.65 -81.2 64.6 -81.15" fill="#bf85a6" fill-rule="evenodd" stroke="none"/>
      <path d="M97.95 -46.55 L98.45 -48.45 Q100.05 -55.15 100.6 -64.7 101.1 -74.3 100.25 -81.05 L99.95 -82.9 Q101.35 -87.75 102.85 -87.75 104.6 -87.75 105.55 -81.05 106.4 -74.3 105.9 -64.7 105.35 -55.15 103.75 -48.45 102.1 -41.65 100.3 -41.65 98.85 -41.65 97.95 -46.55" fill="#402234" fill-rule="evenodd" stroke="none"/>
      <path d="M97.95 -46.55 L97.65 -48.45 Q96.8 -55.15 97.35 -64.7 97.85 -74.3 99.45 -81.05 L99.95 -82.9 100.25 -81.05 Q101.1 -74.3 100.6 -64.7 100.05 -55.15 98.45 -48.45 L97.95 -46.55" fill="#21111a" fill-rule="evenodd" stroke="none"/>
      <path d="M99.95 -82.9 L99.45 -81.05 Q97.85 -74.3 97.35 -64.7 96.8 -55.15 97.65 -48.45 L97.95 -46.55 Q98.85 -41.65 100.3 -41.65 102.1 -41.65 103.75 -48.45 105.35 -55.15 105.9 -64.7 106.4 -74.3 105.55 -81.05 104.6 -87.75 102.85 -87.75 101.35 -87.75 99.95 -82.9 Z" fill="none" stroke="#000000" stroke-linecap="round" stroke-linejoin="round" stroke-opacity="0.4" stroke-width="1.0"/>
      <path d="M65.55 -79.05 Q68.25 -80.4 70.0 -80.4 71.85 -80.4 73.45 -79.2 75.2 -77.95 75.2 -76.3 75.2 -75.35 73.55 -72.55 71.85 -69.75 71.85 -68.55 L71.85 -67.95 Q71.95 -67.55 72.55 -67.55 73.65 -67.55 75.35 -68.8 77.05 -70.1 78.75 -70.1 80.3 -70.1 81.65 -69.0 83.0 -68.0 83.0 -66.9 83.0 -63.35 77.85 -59.35 72.7 -55.35 68.3 -55.35 66.65 -55.35 65.25 -56.55 63.8 -57.8 63.8 -59.15 63.8 -60.8 64.85 -62.35 L65.9 -64.25 Q65.9 -65.15 64.45 -65.3 L61.25 -65.35 Q56.65 -65.7 56.65 -70.4 56.65 -73.55 60.35 -76.45 62.85 -78.4 65.5 -79.05 L65.55 -79.05" fill="#000000" fill-rule="evenodd" stroke="none"/>
      <path d="M65.55 -79.05 L65.5 -79.05 Q62.85 -78.4 60.35 -76.45 56.65 -73.55 56.65 -70.4 56.65 -65.7 61.25 -65.35 L64.45 -65.3 Q65.9 -65.15 65.9 -64.25 L64.85 -62.35 Q63.8 -60.8 63.8 -59.15 63.8 -57.8 65.25 -56.55 66.65 -55.35 68.3 -55.35 72.7 -55.35 77.85 -59.35 83.0 -63.35 83.0 -66.9 83.0 -68.0 81.65 -69.0 80.3 -70.1 78.75 -70.1 77.05 -70.1 75.35 -68.8 73.65 -67.55 72.55 -67.55 71.95 -67.55 71.85 -67.95 L71.85 -68.55 Q71.85 -69.75 73.55 -72.55 75.2 -75.35 75.2 -76.3 75.2 -77.95 73.45 -79.2 71.85 -80.4 70.0 -80.4 68.25 -80.4 65.55 -79.05 M57.05 -80.65 Q62.5 -86.1 70.15 -86.1 77.85 -86.1 83.3 -80.65 88.7 -75.2 88.7 -67.55 88.7 -59.85 83.3 -54.4 77.85 -49.0 70.15 -49.0 62.5 -49.0 57.05 -54.4 51.6 -59.85 51.6 -67.55 51.6 -75.2 57.05 -80.65" fill="#ffebeb" fill-rule="evenodd" stroke="none"/>
      <path d="M65.5 -79.05 L65.55 -79.05 Q68.25 -80.4 70.0 -80.4 71.85 -80.4 73.45 -79.2 75.2 -77.95 75.2 -76.3 75.2 -75.35 73.55 -72.55 71.85 -69.75 71.85 -68.55 L71.85 -67.95 Q71.95 -67.55 72.55 -67.55 73.65 -67.55 75.35 -68.8 77.05 -70.1 78.75 -70.1 80.3 -70.1 81.65 -69.0 83.0 -68.0 83.0 -66.9 83.0 -63.35 77.85 -59.35 72.7 -55.35 68.3 -55.35 66.65 -55.35 65.25 -56.55 63.8 -57.8 63.8 -59.15 63.8 -60.8 64.85 -62.35 L65.9 -64.25 Q65.9 -65.15 64.45 -65.3 L61.25 -65.35 Q56.65 -65.7 56.65 -70.4 56.65 -73.55 60.35 -76.45 62.85 -78.4 65.5 -79.05 L65.55 -79.05 M57.05 -80.65 Q62.5 -86.1 70.15 -86.1 77.85 -86.1 83.3 -80.65 88.7 -75.2 88.7 -67.55 88.7 -59.85 83.3 -54.4 77.85 -49.0 70.15 -49.0 62.5 -49.0 57.05 -54.4 51.6 -59.85 51.6 -67.55 51.6 -75.2 57.05 -80.65" fill="none" stroke="#000000" stroke-linecap="round" stroke-linejoin="round" stroke-opacity="0.4" stroke-width="1.0"/>
      <path d="M49.95 -28.75 L-10.3 -31.95 Q-22.25 -70.2 -7.4 -98.2 L52.0 -101.15 Q43.8 -64.95 49.95 -28.75" fill="url(#gradient6)" fill-rule="evenodd" stroke="none"/>
      <path d="M49.95 -28.75 Q43.8 -64.95 52.0 -101.15" fill="none" stroke="#000000" stroke-linecap="round" stroke-linejoin="round" stroke-opacity="0.4" stroke-width="1.0"/>
      <path d="M37.55 -41.4 Q36.6 -41.4 36.2 -42.0 L36.05 -42.7 Q36.05 -44.15 37.6 -44.2 39.2 -44.25 39.2 -42.85 L39.15 -42.35 39.85 -42.4 Q40.9 -42.35 41.65 -41.65 42.5 -40.9 42.5 -39.75 42.5 -38.65 41.8 -37.85 41.05 -36.95 39.85 -36.95 38.05 -36.95 37.45 -38.4 L37.15 -39.8 Q37.15 -40.75 37.6 -41.4 L37.55 -41.4 M-65.25 -47.0 L-68.15 -48.3 -70.75 -49.6 -74.7 -51.5 -77.3 -52.8 -78.2 -53.3 -80.2 -54.35 -82.75 -55.75 -84.35 -56.6 -84.55 -56.7 -84.6 -56.75 -85.85 -57.45 -89.1 -59.1 -88.75 -59.45 -88.15 -59.8 -89.15 -60.75 Q-89.55 -61.5 -89.55 -62.2 -89.55 -64.95 -86.9 -64.7 -85.85 -64.65 -85.1 -64.0 -84.25 -63.25 -84.25 -62.15 -84.25 -61.4 -84.8 -60.65 -85.2 -60.05 -85.75 -59.8 L-85.1 -59.35 Q-84.55 -58.85 -84.35 -58.1 -83.95 -59.7 -82.75 -60.65 -81.1 -62.0 -78.65 -61.8 -76.25 -61.55 -74.5 -60.0 -73.4 -59.0 -72.95 -57.75 L-70.3 -57.9 -68.75 -57.6 -69.05 -58.0 -69.3 -58.7 Q-69.3 -60.05 -67.9 -60.0 -66.6 -59.85 -66.6 -58.65 -66.6 -58.3 -66.9 -57.9 -67.3 -57.4 -67.85 -57.35 -66.8 -57.0 -65.9 -56.35 L-65.05 -57.0 Q-62.95 -58.2 -60.0 -57.5 -57.05 -56.85 -54.95 -54.65 -54.1 -53.75 -53.6 -52.7 -53.45 -53.55 -52.7 -54.15 -51.85 -54.85 -50.65 -54.85 -49.45 -54.9 -48.6 -54.25 -47.65 -53.55 -47.65 -52.2 -47.65 -51.1 -48.4 -50.35 L-48.4 -50.3 -46.8 -50.1 -46.15 -51.15 -45.95 -51.25 -46.35 -52.55 Q-46.35 -53.85 -45.4 -54.6 -44.55 -55.3 -43.35 -55.3 -42.1 -55.3 -41.25 -54.55 -40.35 -53.75 -40.35 -52.35 -40.35 -51.2 -40.95 -50.45 L-41.75 -49.8 -41.7 -49.05 -41.7 -48.9 -39.3 -47.9 Q-36.7 -46.65 -35.55 -45.15 -35.35 -45.9 -34.75 -46.4 -33.95 -47.15 -32.7 -47.1 -31.65 -47.05 -30.9 -46.55 L-28.4 -46.65 Q-25.4 -46.35 -23.1 -44.6 -20.8 -42.85 -20.75 -40.75 L-20.45 -40.75 Q-16.85 -40.8 -14.25 -39.25 -12.35 -38.05 -11.7 -36.3 L-8.8 -38.15 -9.3 -38.85 -9.75 -40.25 Q-9.75 -41.55 -8.9 -42.25 -8.15 -42.85 -7.1 -42.8 -6.0 -42.7 -5.25 -42.0 -4.45 -41.25 -4.45 -40.15 L-4.45 -39.75 Q0.65 -41.0 6.15 -38.9 8.6 -38.0 10.15 -36.75 L15.55 -36.3 Q19.4 -35.55 22.6 -34.0 L22.5 -34.75 Q22.5 -36.15 23.45 -36.95 L23.6 -37.05 Q23.75 -37.95 24.4 -38.5 25.25 -39.25 26.4 -39.25 27.5 -39.3 28.3 -38.65 29.2 -37.9 29.2 -36.5 29.2 -35.5 28.5 -34.75 28.5 -33.75 27.85 -32.85 27.3 -31.95 26.35 -31.7 L26.75 -31.4 27.55 -30.7 Q27.9 -31.85 28.55 -32.7 28.65 -33.6 29.4 -34.2 30.2 -34.9 31.35 -34.95 L31.85 -34.95 34.5 -35.3 Q37.3 -35.3 39.55 -34.0 L40.4 -33.45 41.85 -33.7 43.6 -33.85 44.75 -35.15 Q46.1 -36.15 48.0 -36.3 L47.8 -37.25 Q47.8 -37.95 48.15 -38.5 L49.1 -34.65 52.05 -34.1 52.35 -33.9 52.85 -31.8 53.35 -29.65 53.15 -29.25 52.35 -28.15 51.5 -27.45 51.5 -27.3 51.35 -27.15 Q46.85 -22.65 39.8 -23.6 L38.4 -23.65 37.85 -23.65 32.6 -23.85 31.75 -23.85 23.15 -24.4 22.35 -24.45 17.1 -24.9 12.2 -25.45 12.15 -25.55 12.0 -25.5 7.35 -26.05 6.2 -26.2 0.65 -27.05 -0.8 -27.3 -1.75 -27.45 -4.15 -27.9 -5.8 -28.2 -9.45 -28.9 -13.95 -29.85 -14.15 -29.9 -14.5 -30.0 -15.3 -30.15 -20.0 -31.3 -20.75 -31.45 -20.8 -31.45 -34.4 -35.25 -35.05 -35.45 -38.2 -36.5 -39.1 -36.75 -40.2 -37.1 -40.85 -37.35 -43.95 -38.45 -55.15 -42.65 -56.85 -43.35 -57.2 -43.5 -63.05 -46.0 -63.75 -46.35 -64.6 -46.7 -64.5 -47.8 -65.25 -47.0 M15.2 -40.7 Q15.2 -39.6 14.6 -38.8 13.85 -37.95 12.55 -37.95 10.7 -37.95 10.15 -39.45 L9.9 -40.8 Q9.9 -41.95 10.7 -42.75 11.5 -43.45 12.55 -43.5 15.2 -43.75 15.2 -40.7 M47.7 -43.35 L46.9 -44.15 Q46.5 -44.8 46.5 -45.55 46.5 -46.8 47.4 -47.55 L47.8 -47.8 47.65 -44.45 47.7 -43.35 M-84.1 -71.6 Q-83.25 -70.8 -83.25 -69.45 -83.25 -68.7 -83.8 -67.95 -84.6 -66.85 -85.9 -66.85 -87.45 -66.85 -88.15 -68.1 L-88.6 -69.5 Q-88.6 -70.7 -87.75 -71.5 -87.05 -72.2 -85.95 -72.2 -84.85 -72.25 -84.1 -71.6 M-97.6 -64.9 Q-97.6 -66.1 -96.7 -66.85 -95.9 -67.55 -94.75 -67.55 -93.6 -67.55 -92.8 -66.85 -91.95 -66.05 -91.95 -64.65 -91.95 -63.55 -92.55 -62.75 L-92.8 -62.5 -92.25 -62.5 Q-91.05 -62.4 -90.2 -61.6 -89.25 -60.75 -89.25 -59.55 L-89.3 -59.15 Q-91.95 -60.55 -94.1 -61.9 L-94.3 -62.0 -97.3 -64.0 -97.6 -64.9 M-32.65 -55.8 Q-32.65 -55.45 -32.95 -55.05 -33.35 -54.55 -34.0 -54.55 -34.75 -54.55 -35.1 -55.2 L-35.35 -55.85 Q-35.35 -57.2 -34.0 -57.15 -32.65 -57.05 -32.65 -55.8 M-34.5 -52.8 Q-33.65 -53.5 -32.5 -53.55 -31.4 -53.55 -30.6 -52.9 -29.7 -52.15 -29.7 -50.85 -29.7 -49.8 -30.45 -49.05 -31.2 -48.25 -32.55 -48.25 -34.15 -48.25 -34.9 -49.5 L-35.35 -50.85 Q-35.35 -52.05 -34.5 -52.8 M-11.05 -56.7 Q-11.05 -55.6 -11.7 -54.8 -12.45 -53.9 -13.75 -53.9 -15.55 -53.9 -16.15 -55.4 L-16.4 -56.8 Q-16.4 -58.0 -15.55 -58.75 -14.8 -59.5 -13.75 -59.55 -12.6 -59.6 -11.9 -58.9 -11.05 -58.15 -11.05 -56.7 M-63.45 -61.35 Q-63.45 -62.8 -61.95 -62.65 -60.5 -62.5 -60.5 -61.2 -60.5 -60.65 -60.8 -60.3 -61.15 -59.85 -61.9 -59.85 -62.85 -59.85 -63.25 -60.6 L-63.45 -61.35 M-6.25 -44.7 Q-7.25 -43.6 -9.25 -43.6 -10.95 -43.6 -11.65 -44.8 -12.05 -45.5 -12.05 -46.25 -12.05 -48.0 -11.05 -49.05 -10.1 -49.95 -8.75 -50.0 -7.4 -50.0 -6.45 -49.15 -5.4 -48.25 -5.4 -46.7 -5.4 -45.55 -6.25 -44.7 M-16.25 -47.6 Q-15.4 -46.8 -15.4 -45.5 -15.4 -44.75 -15.95 -43.95 -16.7 -42.9 -18.05 -42.9 -19.6 -42.9 -20.3 -44.15 -20.7 -44.9 -20.7 -45.55 -20.7 -46.8 -19.9 -47.55 -19.1 -48.2 -18.05 -48.2 -16.95 -48.25 -16.25 -47.6" fill="#9c82ab" fill-rule="evenodd" stroke="none"/>
      <path d="M12.2 -25.45 L12.0 -25.5 12.15 -25.55 12.2 -25.45 M-64.6 -46.7 L-65.25 -47.0 -64.5 -47.8 -64.6 -46.7" fill="url(#gradient7)" fill-rule="evenodd" stroke="none"/>
      <path d="M39.0 3.4 Q37.35 1.45 37.1 -1.4 36.85 -4.35 38.15 -6.55 39.5 -8.7 41.6 -8.9 43.7 -9.1 45.4 -7.15 47.05 -5.25 47.3 -2.3 47.6 0.6 46.25 2.8 44.95 5.0 42.85 5.15 40.75 5.35 39.0 3.4 M41.1 -4.6 Q40.4 -3.45 40.55 -1.95 40.65 -0.35 41.55 0.7 42.45 1.75 43.6 1.7 44.75 1.55 45.45 0.35 46.15 -0.85 46.05 -2.4 45.95 -3.95 45.0 -4.95 44.05 -6.05 42.95 -5.95 41.8 -5.8 41.1 -4.6" fill="#c287a8" fill-rule="evenodd" stroke="none"/>
      <path d="M41.1 -4.6 Q41.8 -5.8 42.95 -5.95 44.05 -6.05 45.0 -4.95 45.95 -3.95 46.05 -2.4 46.15 -0.85 45.45 0.35 44.75 1.55 43.6 1.7 42.45 1.75 41.55 0.7 40.65 -0.35 40.55 -1.95 40.4 -3.45 41.1 -4.6" fill="#9c6c85" fill-rule="evenodd" stroke="none"/>
      <path d="M37.05 19.05 Q36.4 16.3 37.55 13.3 38.75 10.35 41.1 8.85 43.5 7.35 45.7 8.2 47.9 9.05 48.5 11.8 49.25 14.5 48.0 17.5 46.85 20.45 44.5 22.0 42.1 23.55 39.9 22.7 37.75 21.8 37.05 19.05 M44.9 19.25 Q46.2 18.4 46.8 16.8 47.45 15.25 47.05 13.75 46.7 12.25 45.55 11.8 44.35 11.35 43.05 12.15 41.8 12.95 41.2 14.55 40.55 16.15 40.9 17.65 41.25 19.15 42.45 19.55 43.6 20.05 44.9 19.25" fill="#c287a8" fill-rule="evenodd" stroke="none"/>
      <path d="M44.9 19.25 Q43.6 20.05 42.45 19.55 41.25 19.15 40.9 17.65 40.55 16.15 41.2 14.55 41.8 12.95 43.05 12.15 44.35 11.35 45.55 11.8 46.7 12.25 47.05 13.75 47.45 15.25 46.8 16.8 46.2 18.4 44.9 19.25" fill="#9c6c85" fill-rule="evenodd" stroke="none"/>
      <path d="M42.65 -18.45 Q42.55 -19.85 41.75 -20.7 40.95 -21.65 40.0 -21.55 39.0 -21.45 38.35 -20.4 37.75 -19.4 37.9 -18.05 38.0 -16.7 38.8 -15.8 39.55 -14.9 40.55 -14.95 41.55 -15.05 42.15 -16.1 42.75 -17.1 42.65 -18.45 M42.85 -13.95 Q41.7 -12.1 39.9 -11.95 38.05 -11.75 36.6 -13.45 35.15 -15.15 34.9 -17.65 34.7 -20.15 35.8 -22.05 36.95 -23.95 38.8 -24.1 40.65 -24.25 42.1 -22.6 43.55 -20.95 43.75 -18.4 43.95 -15.9 42.85 -13.95" fill="#c287a8" fill-rule="evenodd" stroke="none"/>
      <path d="M42.65 -18.45 Q42.75 -17.1 42.15 -16.1 41.55 -15.05 40.55 -14.95 39.55 -14.9 38.8 -15.8 38.0 -16.7 37.9 -18.05 37.75 -19.4 38.35 -20.4 39.0 -21.45 40.0 -21.55 40.95 -21.65 41.75 -20.7 42.55 -19.85 42.65 -18.45" fill="#9c6c85" fill-rule="evenodd" stroke="none"/>
      <path d="M184.9 -123.5 Q178.85 -119.25 173.8 -110.4 160.95 -95.65 143.8 -97.05 132.85 -94.3 121.45 -88.65 L129.55 -96.45 Q140.3 -107.05 144.1 -110.35 152.1 -117.2 159.3 -120.45 168.0 -124.4 177.9 -124.4 L184.9 -123.5" fill="#ffdbcf" fill-rule="evenodd" stroke="none"/>
      <path d="M92.15 -69.8 Q92.0 -77.15 93.0 -87.0 112.25 -93.2 125.05 -110.55 138.0 -128.55 163.7 -129.8 180.85 -129.25 189.05 -126.35 L189.8 -126.1 189.05 -125.8 Q186.95 -124.9 184.9 -123.5 L177.9 -124.4 Q168.0 -124.4 159.3 -120.45 152.1 -117.2 144.1 -110.35 140.3 -107.05 129.55 -96.45 L121.45 -88.65 Q107.15 -81.55 92.15 -69.8" fill="url(#gradient8)" fill-rule="evenodd" stroke="none"/>
      <path d="M93.0 -87.0 Q112.25 -93.2 125.05 -110.55 138.0 -128.55 163.7 -129.8 180.85 -129.25 189.05 -126.35 L189.8 -126.1 189.05 -125.8 Q186.95 -124.9 184.9 -123.5 178.85 -119.25 173.8 -110.4 160.95 -95.65 143.8 -97.05 132.85 -94.3 121.45 -88.65 107.15 -81.55 92.15 -69.8" fill="none" stroke="#000000" stroke-linecap="round" stroke-linejoin="round" stroke-opacity="0.4" stroke-width="1.0"/>
      <path d="M159.8 -106.25 Q160.65 -108.55 162.85 -110.15 165.1 -111.7 167.45 -111.65 169.9 -111.6 171.05 -109.95 172.15 -108.35 171.4 -106.1 170.65 -103.8 168.4 -102.3 166.1 -100.65 163.7 -100.7 161.35 -100.7 160.2 -102.35 159.0 -104.0 159.8 -106.25 M167.35 -108.4 Q166.05 -108.4 164.85 -107.55 163.65 -106.7 163.2 -105.5 162.8 -104.25 163.4 -103.35 164.05 -102.5 165.3 -102.5 166.6 -102.5 167.85 -103.3 169.05 -104.2 169.4 -105.35 169.9 -106.6 169.25 -107.45 168.6 -108.35 167.35 -108.4" fill="#c287a8" fill-rule="evenodd" stroke="none"/>
      <path d="M167.35 -108.4 Q168.6 -108.35 169.25 -107.45 169.9 -106.6 169.4 -105.35 169.05 -104.2 167.85 -103.3 166.6 -102.5 165.3 -102.5 164.05 -102.5 163.4 -103.35 162.8 -104.25 163.2 -105.5 163.65 -106.7 164.85 -107.55 166.05 -108.4 167.35 -108.4" fill="#9c6c85" fill-rule="evenodd" stroke="none"/>
      <path d="M171.05 -116.25 Q171.75 -118.2 173.65 -119.5 175.6 -120.9 177.65 -120.85 179.7 -120.8 180.7 -119.4 181.7 -118.0 181.0 -116.05 180.35 -114.15 178.4 -112.8 176.5 -111.45 174.45 -111.45 172.35 -111.45 171.35 -112.85 170.4 -114.3 171.05 -116.25 M177.95 -113.7 Q179.0 -114.4 179.35 -115.45 179.7 -116.55 179.15 -117.25 178.6 -118.0 177.5 -118.05 176.4 -118.05 175.4 -117.35 174.35 -116.6 173.95 -115.6 173.6 -114.5 174.15 -113.75 174.65 -113.0 175.8 -112.95 176.9 -113.0 177.95 -113.7" fill="#c287a8" fill-rule="evenodd" stroke="none"/>
      <path d="M177.95 -113.7 Q176.9 -113.0 175.8 -112.95 174.65 -113.0 174.15 -113.75 173.6 -114.5 173.95 -115.6 174.35 -116.6 175.4 -117.35 176.4 -118.05 177.5 -118.05 178.6 -118.0 179.15 -117.25 179.7 -116.55 179.35 -115.45 179.0 -114.4 177.95 -113.7" fill="#9c6c85" fill-rule="evenodd" stroke="none"/>
      <path d="M148.7 -102.8 Q150.3 -104.15 152.6 -104.3 154.95 -104.55 156.7 -103.5 158.45 -102.4 158.65 -100.7 158.75 -99.0 157.25 -97.65 155.7 -96.3 153.35 -96.15 150.95 -95.9 149.2 -96.95 147.4 -98.0 147.3 -99.7 147.15 -101.45 148.7 -102.8 M151.15 -97.55 Q152.15 -97.05 153.4 -97.15 154.65 -97.25 155.5 -97.95 156.35 -98.7 156.2 -99.6 156.15 -100.5 155.15 -101.1 154.25 -101.7 152.95 -101.6 151.7 -101.45 150.9 -100.75 150.05 -100.0 150.1 -99.1 150.2 -98.15 151.15 -97.55" fill="#c287a8" fill-rule="evenodd" stroke="none"/>
      <path d="M151.15 -97.55 Q150.2 -98.15 150.1 -99.1 150.05 -100.0 150.9 -100.75 151.7 -101.45 152.95 -101.6 154.25 -101.7 155.15 -101.1 156.15 -100.5 156.2 -99.6 156.35 -98.7 155.5 -97.95 154.65 -97.25 153.4 -97.15 152.15 -97.05 151.15 -97.55" fill="#9c6c85" fill-rule="evenodd" stroke="none"/>
      <path d="M135.75 -100.3 Q137.15 -101.8 139.45 -102.3 141.75 -102.75 143.6 -101.9 145.5 -101.05 145.85 -99.4 146.2 -97.7 144.8 -96.2 143.45 -94.7 141.1 -94.2 138.85 -93.7 136.95 -94.55 135.05 -95.4 134.7 -97.05 134.35 -98.75 135.75 -100.3 M137.6 -96.8 Q137.8 -95.85 138.8 -95.4 L141.05 -95.25 Q142.3 -95.45 143.05 -96.3 143.8 -97.15 143.6 -98.05 143.4 -98.9 142.4 -99.4 L140.15 -99.6 Q138.9 -99.3 138.15 -98.5 137.45 -97.7 137.6 -96.8" fill="#c287a8" fill-rule="evenodd" stroke="none"/>
      <path d="M137.6 -96.8 Q137.45 -97.7 138.15 -98.5 138.9 -99.3 140.15 -99.6 L142.4 -99.4 Q143.4 -98.9 143.6 -98.05 143.8 -97.15 143.05 -96.3 142.3 -95.45 141.05 -95.25 L138.8 -95.4 Q137.8 -95.85 137.6 -96.8" fill="#9c6c85" fill-rule="evenodd" stroke="none"/>
      <path d="M148.8 -111.5 Q150.2 -113.55 152.85 -114.6 155.55 -115.6 157.95 -114.95 160.35 -114.3 161.1 -112.35 161.85 -110.35 160.5 -108.3 159.1 -106.15 156.4 -105.2 153.8 -104.15 151.35 -104.8 148.9 -105.45 148.15 -107.35 147.4 -109.35 148.8 -111.5 M152.05 -109.8 Q151.25 -108.65 151.7 -107.6 152.1 -106.55 153.4 -106.2 L156.15 -106.4 Q157.6 -106.95 158.35 -108.05 159.05 -109.2 158.65 -110.25 158.3 -111.3 156.95 -111.65 L154.25 -111.45 Q152.8 -110.9 152.05 -109.8" fill="#c287a8" fill-rule="evenodd" stroke="none"/>
      <path d="M152.05 -109.8 Q152.8 -110.9 154.25 -111.45 L156.95 -111.65 Q158.3 -111.3 158.65 -110.25 159.05 -109.2 158.35 -108.05 157.6 -106.95 156.15 -106.4 L153.4 -106.2 Q152.1 -106.55 151.7 -107.6 151.25 -108.65 152.05 -109.8" fill="#9c6c85" fill-rule="evenodd" stroke="none"/>
      <path d="M160.95 -118.8 Q162.1 -120.5 164.25 -121.3 L168.35 -121.6 Q170.3 -121.1 170.9 -119.5 171.55 -117.9 170.4 -116.25 169.35 -114.55 167.15 -113.75 164.95 -112.9 163.0 -113.4 161.05 -113.9 160.4 -115.5 159.85 -117.1 160.95 -118.8 M165.35 -118.8 Q164.15 -118.35 163.6 -117.45 162.95 -116.55 163.3 -115.7 163.6 -114.85 164.7 -114.55 L166.85 -114.7 Q168.05 -115.15 168.65 -116.05 169.3 -117.0 168.95 -117.8 168.6 -118.65 167.55 -118.95 L165.35 -118.8" fill="#c287a8" fill-rule="evenodd" stroke="none"/>
      <path d="M165.35 -118.8 L167.55 -118.95 Q168.6 -118.65 168.95 -117.8 169.3 -117.0 168.65 -116.05 168.05 -115.15 166.85 -114.7 L164.7 -114.55 Q163.6 -114.85 163.3 -115.7 162.95 -116.55 163.6 -117.45 164.15 -118.35 165.35 -118.8" fill="#9c6c85" fill-rule="evenodd" stroke="none"/>
      <path d="M8.85 -29.2 L9.25 -31.3 9.5 -31.8 10.55 -33.05 11.25 -33.55 Q15.4 -35.15 18.9 -34.2 L20.05 -33.85 20.1 -33.75 20.0 -33.0 20.05 -32.3 20.1 -31.65 20.45 -31.6 25.3 -31.05 25.5 -30.95 Q29.1 -29.9 32.35 -29.65 L36.6 -29.85 36.85 -29.9 41.05 -30.6 41.25 -30.65 44.15 -31.4 48.6 -31.55 Q49.8 -30.95 50.7 -28.65 L51.25 -26.95 51.55 -25.3 51.45 -22.8 Q51.5 -21.9 50.1 -20.6 L48.35 -19.55 48.5 -19.5 Q49.4 -19.2 50.15 -18.5 L50.85 -17.35 51.3 -15.05 51.3 -12.95 Q51.25 -8.6 49.65 -7.2 48.3 -6.0 44.65 -6.05 L42.9 -6.15 42.9 -6.05 43.05 -6.05 43.55 -5.95 44.6 -5.7 Q47.1 -5.25 47.4 -4.4 L47.6 -1.1 47.4 1.45 47.2 3.05 Q46.35 5.4 44.55 6.55 41.6 7.85 38.15 7.75 32.9 7.5 27.6 7.55 L23.7 7.4 20.05 6.9 17.85 6.45 16.55 6.2 13.75 5.3 12.1 4.55 10.65 5.1 7.95 5.55 4.6 6.25 4.6 4.55 8.0 3.75 11.75 3.0 12.35 3.2 15.15 4.25 16.85 4.65 17.85 5.0 21.75 5.7 26.05 6.1 27.65 6.15 34.3 6.2 Q39.75 7.0 44.55 5.3 L45.3 4.45 46.05 3.0 46.25 2.2 46.65 -3.1 Q46.65 -4.1 46.3 -4.35 L44.95 -4.7 44.25 -4.85 42.35 -5.35 41.65 -5.75 41.7 -6.05 41.6 -6.25 41.65 -6.3 41.5 -6.35 41.4 -6.4 41.25 -6.45 41.2 -6.45 40.85 -6.7 40.8 -6.8 43.95 -6.9 47.3 -7.3 Q49.05 -7.85 49.7 -9.3 50.2 -10.35 50.2 -12.95 50.25 -15.55 49.95 -16.7 49.45 -18.9 47.75 -18.9 L46.95 -18.85 46.3 -18.9 44.25 -18.8 43.4 -18.8 43.05 -18.85 42.9 -18.85 42.3 -19.05 42.25 -19.2 42.7 -19.35 43.35 -19.45 43.45 -19.45 43.5 -19.5 44.25 -19.65 44.95 -19.75 47.7 -20.25 48.2 -20.55 Q49.85 -21.5 50.2 -22.2 L50.35 -23.85 Q50.4 -25.15 49.9 -26.95 49.4 -29.1 48.55 -29.9 L46.2 -30.3 45.8 -30.25 41.25 -29.25 41.0 -29.2 36.6 -28.5 32.35 -28.25 Q29.95 -28.45 25.35 -29.5 L25.2 -29.55 20.45 -30.8 Q19.5 -30.9 19.4 -31.4 19.25 -32.1 19.25 -33.0 L19.25 -33.25 17.9 -33.45 15.75 -33.55 Q14.15 -33.65 12.9 -33.0 L10.95 -31.6 Q10.45 -31.05 10.4 -30.45 L10.4 -30.25 13.95 -29.1 15.0 -28.75 15.05 -28.65 14.15 -28.45 13.15 -28.35 Q11.65 -28.35 8.85 -29.2" fill="#000000" fill-rule="evenodd" stroke="none"/>
      <path d="M8.85 -29.2 Q11.65 -28.35 13.15 -28.35 L14.15 -28.45 15.05 -28.65 15.0 -28.75 13.95 -29.1 14.1 -29.15 14.05 -29.25 10.4 -30.45 Q10.45 -31.05 10.95 -31.6 L12.9 -33.0 Q14.15 -33.65 15.75 -33.55 L17.9 -33.45 19.25 -33.25 19.25 -33.0 Q19.25 -32.1 19.4 -31.4 19.5 -30.9 20.45 -30.8 L25.2 -29.55 25.35 -29.5 Q29.95 -28.45 32.35 -28.25 L36.6 -28.5 41.0 -29.2 41.25 -29.25 45.8 -30.25 46.2 -30.3 48.55 -29.9 Q49.4 -29.1 49.9 -26.95 50.4 -25.15 50.35 -23.85 L50.2 -22.2 Q49.85 -21.5 48.2 -20.55 L47.7 -20.25 44.95 -19.75 44.25 -19.65 43.5 -19.5 43.45 -19.45 43.35 -19.45 42.7 -19.35 42.25 -19.2 42.3 -19.05 42.9 -18.85 43.05 -18.85 43.4 -18.8 44.25 -18.8 46.3 -18.9 46.95 -18.85 47.5 -17.55 47.7 -13.9 Q47.6 -11.35 47.2 -10.3 46.55 -8.85 44.9 -8.4 L41.65 -8.0 39.8 -8.05 39.7 -7.85 40.55 -6.8 41.2 -6.45 41.25 -6.45 41.4 -6.4 41.5 -6.35 41.6 -6.25 41.7 -6.05 41.65 -5.75 42.35 -5.35 44.25 -4.85 44.3 -4.3 43.95 0.9 43.65 1.7 42.95 3.1 42.25 3.9 Q37.6 5.55 32.4 4.8 L26.0 4.7 24.45 4.7 20.35 4.3 16.65 3.6 15.7 3.3 14.05 2.95 Q12.05 2.0 11.35 1.9 11.1 1.65 10.75 1.65 L7.2 2.45 4.6 3.05 4.6 -12.65 5.6 -15.35 Q7.55 -22.35 8.85 -29.2" fill="#999999" fill-rule="evenodd" stroke="none"/>
      <path d="M13.95 -29.1 L10.4 -30.25 10.4 -30.45 14.05 -29.25 14.1 -29.15 13.95 -29.1 M46.95 -18.85 L47.75 -18.9 Q49.45 -18.9 49.95 -16.7 50.25 -15.55 50.2 -12.95 50.2 -10.35 49.7 -9.3 49.05 -7.85 47.3 -7.3 L43.95 -6.9 40.8 -6.8 40.85 -6.7 41.2 -6.45 40.55 -6.8 39.7 -7.85 39.8 -8.05 41.65 -8.0 44.9 -8.4 Q46.55 -8.85 47.2 -10.3 47.6 -11.35 47.7 -13.9 L47.5 -17.55 46.95 -18.85 M41.5 -6.35 L41.65 -6.3 41.6 -6.25 41.5 -6.35 M44.25 -4.85 L44.95 -4.7 46.3 -4.35 Q46.65 -4.1 46.65 -3.1 L46.25 2.2 46.05 3.0 45.3 4.45 44.55 5.3 Q39.75 7.0 34.3 6.2 L27.65 6.15 26.05 6.1 21.75 5.7 17.85 5.0 16.85 4.65 15.15 4.25 12.35 3.2 11.75 3.0 8.0 3.75 4.6 4.55 4.6 3.05 7.2 2.45 10.75 1.65 Q11.1 1.65 11.35 1.9 12.05 2.0 14.05 2.95 L15.7 3.3 16.65 3.6 20.35 4.3 24.45 4.7 26.0 4.7 32.4 4.8 Q37.6 5.55 42.25 3.9 L42.95 3.1 43.65 1.7 43.95 0.9 44.3 -4.3 44.25 -4.85" fill="#bdbdbd" fill-rule="evenodd" stroke="none"/>
    </g>
    <linearGradient gradientTransform="matrix(-0.0031, 0.043, -0.0511, -0.0037, -19.6, -56.65)" gradientUnits="userSpaceOnUse" id="gradient0" spreadMethod="pad" x1="-819.2" x2="819.2">
      <stop offset="0.0" stop-color="#f0b3db"/>
      <stop offset="1.0" stop-color="#c5a6de"/>
    </linearGradient>
    <linearGradient gradientTransform="matrix(-0.0059, -0.0218, 0.0412, -0.0111, 30.6, -16.35)" gradientUnits="userSpaceOnUse" id="gradient1" spreadMethod="pad" x1="-819.2" x2="819.2">
      <stop offset="0.0" stop-color="#f0b3d8"/>
      <stop offset="1.0" stop-color="#d695bd"/>
    </linearGradient>
    <linearGradient gradientTransform="matrix(-0.0638, 0.0081, -0.0022, -0.0172, 147.15, -73.45)" gradientUnits="userSpaceOnUse" id="gradient2" spreadMethod="pad" x1="-819.2" x2="819.2">
      <stop offset="0.0" stop-color="#f0b3d8"/>
      <stop offset="1.0" stop-color="#d695bd"/>
    </linearGradient>
    <linearGradient gradientTransform="matrix(-0.0218, 0.0218, -0.0318, -0.0318, 116.75, -113.2)" gradientUnits="userSpaceOnUse" id="gradient3" spreadMethod="pad" x1="-819.2" x2="819.2">
      <stop offset="0.0" stop-color="#f0b3d8"/>
      <stop offset="1.0" stop-color="#d695bd"/>
    </linearGradient>
    <linearGradient gradientTransform="matrix(-0.0482, -0.0151, 0.0045, -0.0167, 133.15, -34.45)" gradientUnits="userSpaceOnUse" id="gradient4" spreadMethod="pad" x1="-819.2" x2="819.2">
      <stop offset="0.0" stop-color="#f0b3d8"/>
      <stop offset="1.0" stop-color="#d695bd"/>
    </linearGradient>
    <linearGradient gradientTransform="matrix(-0.0059, -0.0218, 0.0412, -0.0111, 41.15, -10.1)" gradientUnits="userSpaceOnUse" id="gradient5" spreadMethod="pad" x1="-819.2" x2="819.2">
      <stop offset="0.0" stop-color="#f0b3d8"/>
      <stop offset="1.0" stop-color="#d695bd"/>
    </linearGradient>
    <linearGradient gradientTransform="matrix(-0.0031, 0.043, -0.0511, -0.0037, -19.6, -56.65)" gradientUnits="userSpaceOnUse" id="gradient6" spreadMethod="pad" x1="-819.2" x2="819.2">
      <stop offset="0.0" stop-color="#f0b3db"/>
      <stop offset="1.0" stop-color="#c5a6de"/>
    </linearGradient>
    <linearGradient gradientTransform="matrix(-0.0031, 0.043, -0.0511, -0.0037, -19.6, -57.0)" gradientUnits="userSpaceOnUse" id="gradient7" spreadMethod="pad" x1="-819.2" x2="819.2">
      <stop offset="0.0" stop-color="#f0b3db"/>
      <stop offset="1.0" stop-color="#c5a6de"/>
    </linearGradient>
    <linearGradient gradientTransform="matrix(-0.0587, 0.0101, -0.0062, -0.0361, 140.95, -99.75)" gradientUnits="userSpaceOnUse" id="gradient8" spreadMethod="pad" x1="-819.2" x2="819.2">
      <stop offset="0.0" stop-color="#f0b3d8"/>
      <stop offset="1.0" stop-color="#d695bd"/>
    </linearGradient>
  </defs>
</svg>
