<?xml version="1.0" encoding="UTF-8" standalone="no"?>
<svg xmlns:xlink="http://www.w3.org/1999/xlink" height="531.5px" width="460.6px" xmlns="http://www.w3.org/2000/svg">
  <g transform="matrix(1.0, 0.0, 0.0, 1.0, 193.65, 334.05)">
    <use height="90.85" transform="matrix(1.0, 0.0, 0.0, 1.0, -58.4, -88.4)" width="151.5" xlink:href="#shape0"/>
  </g>
  <defs>
    <g id="shape0" transform="matrix(1.0, 0.0, 0.0, 1.0, 58.4, 88.4)">
      <path d="M21.1 -75.4 L27.5 -77.85 34.7 -71.25 30.75 -70.1 27.95 -69.15 21.1 -75.4 M75.5 -33.95 L81.4 -28.55 79.6 -22.0 72.75 -28.25 73.6 -30.55 Q74.35 -32.6 75.5 -33.95" fill="#355211" fill-rule="evenodd" stroke="none"/>
      <path d="M79.6 -22.0 L87.45 -14.8 Q85.35 -10.7 82.55 -7.0 L81.0 -9.65 81.9 -9.7 Q82.9 -9.75 83.65 -10.6 84.4 -11.4 84.45 -12.45 84.5 -13.4 83.85 -13.95 83.2 -14.6 82.25 -14.45 81.3 -14.25 80.55 -13.45 79.85 -12.7 79.7 -11.9 L75.85 -18.0 Q71.15 -24.4 62.9 -31.95 L62.9 -32.1 Q62.85 -33.15 62.05 -33.9 61.25 -34.65 60.15 -34.65 L59.95 -34.6 50.35 -42.85 53.25 -43.45 55.55 -43.9 72.75 -28.25 79.6 -22.0 M3.15 -74.45 L4.8 -76.05 Q8.65 -79.75 13.35 -82.5 L21.1 -75.4 27.95 -69.15 32.0 -65.4 50.45 -48.55 Q48.7 -47.35 45.9 -46.65 L43.65 -48.6 38.1 -53.35 38.35 -54.55 Q38.3 -55.6 37.45 -56.35 36.65 -57.1 35.55 -57.1 L34.35 -56.7 Q28.4 -62.0 24.4 -65.85 19.35 -70.85 12.65 -73.2 L11.1 -73.65 11.75 -73.7 Q12.75 -73.85 13.5 -74.65 14.25 -75.5 14.3 -76.5 14.4 -77.4 13.8 -78.0 13.15 -78.55 12.2 -78.45 11.25 -78.2 10.5 -77.4 9.75 -76.6 9.65 -75.65 9.55 -74.65 10.2 -74.1 L10.5 -73.8 Q6.55 -74.9 3.15 -74.45" fill="#57143f" fill-rule="evenodd" stroke="none"/>
      <path d="M10.5 -73.8 L10.2 -74.1 Q9.55 -74.65 9.65 -75.65 9.75 -76.6 10.5 -77.4 11.25 -78.2 12.2 -78.45 13.15 -78.55 13.8 -78.0 14.4 -77.4 14.3 -76.5 14.25 -75.5 13.5 -74.65 12.75 -73.85 11.75 -73.7 L11.1 -73.65 10.5 -73.8 M34.35 -56.7 L35.55 -57.1 Q36.65 -57.1 37.45 -56.35 38.3 -55.6 38.35 -54.55 L38.1 -53.35 37.65 -52.65 Q36.9 -51.8 35.8 -51.8 34.7 -51.7 33.85 -52.45 33.05 -53.2 33.0 -54.35 32.95 -55.4 33.7 -56.2 L34.35 -56.7 M62.9 -31.95 Q62.95 -30.95 62.2 -30.15 61.5 -29.35 60.4 -29.3 59.3 -29.25 58.45 -30.0 57.65 -30.7 57.6 -31.85 57.55 -32.9 58.3 -33.7 58.95 -34.45 59.95 -34.6 L60.15 -34.65 Q61.25 -34.65 62.05 -33.9 62.85 -33.15 62.9 -32.1 L62.9 -31.95 M81.0 -9.65 Q80.6 -9.75 80.3 -10.05 79.6 -10.65 79.7 -11.65 L79.7 -11.9 Q79.85 -12.7 80.55 -13.45 81.3 -14.25 82.25 -14.45 83.2 -14.6 83.85 -13.95 84.5 -13.4 84.45 -12.45 84.4 -11.4 83.65 -10.6 82.9 -9.75 81.9 -9.7 L81.0 -9.65" fill="#1c0010" fill-rule="evenodd" stroke="none"/>
      <path d="M82.55 -7.0 L81.75 -5.95 Q78.35 -1.7 74.15 1.95 L39.4 -29.75 38.35 -32.35 Q37.3 -36.35 39.4 -38.65 40.2 -39.5 42.7 -40.7 45.35 -42.05 47.1 -42.3 L50.35 -42.85 59.95 -34.6 Q58.95 -34.45 58.3 -33.7 57.55 -32.9 57.6 -31.85 57.65 -30.7 58.45 -30.0 59.3 -29.25 60.4 -29.3 61.5 -29.35 62.2 -30.15 62.95 -30.95 62.9 -31.95 71.15 -24.4 75.85 -18.0 L79.7 -11.9 79.7 -11.65 Q79.6 -10.65 80.3 -10.05 80.6 -9.75 81.0 -9.65 L82.55 -7.0 M18.55 -48.85 L-2.15 -67.7 Q0.2 -71.4 3.15 -74.45 6.55 -74.9 10.5 -73.8 L11.1 -73.65 12.65 -73.2 Q19.35 -70.85 24.4 -65.85 28.4 -62.0 34.35 -56.7 L33.7 -56.2 Q32.95 -55.4 33.0 -54.35 33.05 -53.2 33.85 -52.45 34.7 -51.7 35.8 -51.8 36.9 -51.8 37.65 -52.65 L38.1 -53.35 43.65 -48.6 45.9 -46.65 Q41.85 -45.7 35.6 -45.85 26.0 -46.1 18.55 -48.85" fill="#400029" fill-rule="evenodd" stroke="none"/>
      <path d="M38.2 -68.05 L41.8 -64.75 67.1 -41.6 75.5 -33.95 Q74.35 -32.6 73.6 -30.55 L72.75 -28.25 55.55 -43.9 50.45 -48.55 32.0 -65.4 Q34.8 -66.8 38.2 -68.05" fill="#1c2e09" fill-rule="evenodd" stroke="none"/>
      <path d="M34.7 -71.25 L38.2 -68.05 Q34.8 -66.8 32.0 -65.4 L27.95 -69.15 30.75 -70.1 34.7 -71.25" fill="#75994c" fill-rule="evenodd" stroke="none"/>
      <path d="M39.4 -29.75 L18.55 -48.85 Q26.0 -46.1 35.6 -45.85 41.85 -45.7 45.9 -46.65 48.7 -47.35 50.45 -48.55 L55.55 -43.9 53.25 -43.45 50.35 -42.85 47.1 -42.3 Q45.35 -42.05 42.7 -40.7 40.2 -39.5 39.4 -38.65 37.3 -36.35 38.35 -32.35 L39.4 -29.75" fill="#995480" fill-rule="evenodd" stroke="none"/>
      <path d="M21.1 -75.4 L27.5 -77.85 34.7 -71.25 38.2 -68.05 41.8 -64.75 M67.1 -41.6 L75.5 -33.95 81.4 -28.55 79.6 -22.0 87.45 -14.8 Q85.35 -10.7 82.55 -7.0 L81.75 -5.95 Q78.35 -1.7 74.15 1.95 L39.4 -29.75 18.55 -48.85 -2.15 -67.7 Q0.2 -71.4 3.15 -74.45 L4.8 -76.05 Q8.65 -79.75 13.35 -82.5 L21.1 -75.4 27.95 -69.15 32.0 -65.4 50.45 -48.55 55.55 -43.9 72.75 -28.25 79.6 -22.0 M10.5 -73.8 L10.2 -74.1 Q9.55 -74.65 9.65 -75.65 9.75 -76.6 10.5 -77.4 11.25 -78.2 12.2 -78.45 13.15 -78.55 13.8 -78.0 14.4 -77.4 14.3 -76.5 14.25 -75.5 13.5 -74.65 12.75 -73.85 11.75 -73.7 L11.1 -73.65 M34.35 -56.7 L35.55 -57.1 Q36.65 -57.1 37.45 -56.35 38.3 -55.6 38.35 -54.55 L38.1 -53.35 37.65 -52.65 Q36.9 -51.8 35.8 -51.8 34.7 -51.7 33.85 -52.45 33.05 -53.2 33.0 -54.35 32.95 -55.4 33.7 -56.2 L34.35 -56.7 M59.95 -34.6 Q58.95 -34.45 58.3 -33.7 57.55 -32.9 57.6 -31.85 57.65 -30.7 58.45 -30.0 59.3 -29.25 60.4 -29.3 61.5 -29.35 62.2 -30.15 62.95 -30.95 62.9 -31.95 L62.9 -32.1 Q62.85 -33.15 62.05 -33.9 61.25 -34.65 60.15 -34.65 L59.95 -34.6 M81.0 -9.65 Q80.6 -9.75 80.3 -10.05 79.6 -10.65 79.7 -11.65 L79.7 -11.9 Q79.85 -12.7 80.55 -13.45 81.3 -14.25 82.25 -14.45 83.2 -14.6 83.85 -13.95 84.5 -13.4 84.45 -12.45 84.4 -11.4 83.65 -10.6 82.9 -9.75 81.9 -9.7 L81.0 -9.65" fill="none" stroke="#000000" stroke-linecap="round" stroke-linejoin="round" stroke-opacity="0.6627451" stroke-width="1.0"/>
      <path d="M41.5 -68.65 Q40.25 -65.85 38.15 -63.65 35.25 -60.8 30.75 -59.25 L13.3 -75.15 Q13.65 -79.35 15.8 -82.35 17.9 -85.4 21.9 -87.05 L25.25 -88.15 42.65 -72.25 41.55 -68.8 41.5 -68.65 M35.6 -76.65 L25.05 -86.3 22.15 -85.45 Q18.5 -84.05 16.75 -81.05 L16.2 -82.2 Q14.2 -79.5 14.05 -75.5 L31.0 -60.0 Q35.25 -61.35 37.9 -64.0 L36.8 -64.5 Q38.8 -66.3 39.8 -68.9 L39.9 -69.1 40.7 -72.0 37.2 -75.2 35.6 -76.65" fill="#999999" fill-rule="evenodd" stroke="none"/>
      <path d="M32.95 -75.4 L31.65 -76.2 Q29.55 -77.2 27.6 -79.0 25.8 -80.65 24.45 -82.65 L22.45 -85.2 22.15 -85.45 25.05 -86.3 35.6 -76.65 34.2 -76.05 32.95 -75.4 M39.9 -69.1 L37.5 -71.8 34.7 -74.15 37.2 -75.2 40.7 -72.0 39.9 -69.1" fill="#00c3ff" fill-opacity="0.3019608" fill-rule="evenodd" stroke="none"/>
      <path d="M22.15 -85.45 L22.45 -85.2 24.45 -82.65 Q25.8 -80.65 27.6 -79.0 29.55 -77.2 31.65 -76.2 L32.95 -75.4 30.35 -74.15 28.2 -75.95 Q25.8 -78.1 24.1 -80.65 22.2 -83.55 22.15 -85.45 M24.8 -75.7 L25.35 -75.95 25.95 -75.75 26.15 -75.2 26.0 -74.6 25.4 -74.4 Q25.05 -74.35 24.85 -74.55 24.6 -74.75 24.6 -75.15 L24.8 -75.7 M21.8 -78.25 L21.55 -77.65 Q21.3 -77.35 20.95 -77.35 20.6 -77.35 20.35 -77.6 20.05 -77.85 20.05 -78.2 L20.3 -78.8 20.85 -79.1 21.5 -78.85 21.8 -78.25 M39.9 -69.1 L39.8 -68.9 Q36.9 -70.3 35.15 -71.2 33.5 -71.95 31.95 -73.0 L34.7 -74.15 37.5 -71.8 39.9 -69.1 M35.15 -69.0 L35.5 -68.3 35.2 -67.45 Q34.9 -67.15 34.45 -67.15 L33.65 -67.35 Q33.3 -67.65 33.3 -68.2 33.3 -68.6 33.6 -68.95 33.85 -69.25 34.35 -69.3 L35.15 -69.0" fill="#d12dcd" fill-rule="evenodd" stroke="none"/>
      <path d="M22.15 -85.45 Q22.2 -83.55 24.1 -80.65 25.8 -78.1 28.2 -75.95 L30.35 -74.15 27.6 -73.0 24.45 -72.0 23.4 -72.95 Q19.5 -76.5 17.2 -80.25 L16.75 -81.05 Q18.5 -84.05 22.15 -85.45 M21.8 -78.25 L21.5 -78.85 20.85 -79.1 20.3 -78.8 20.05 -78.2 Q20.05 -77.85 20.35 -77.6 20.6 -77.35 20.95 -77.35 21.3 -77.35 21.55 -77.65 L21.8 -78.25 M24.8 -75.7 L24.6 -75.15 Q24.6 -74.75 24.85 -74.55 25.05 -74.35 25.4 -74.4 L26.0 -74.6 26.15 -75.2 25.95 -75.75 25.35 -75.95 24.8 -75.7 M39.8 -68.9 Q38.8 -66.3 36.8 -64.5 L33.05 -66.3 Q29.95 -67.95 27.35 -69.75 29.6 -71.8 31.55 -72.8 L31.95 -73.0 Q33.5 -71.95 35.15 -71.2 36.9 -70.3 39.8 -68.9 M35.15 -69.0 L34.35 -69.3 Q33.85 -69.25 33.6 -68.95 33.3 -68.6 33.3 -68.2 33.3 -67.65 33.65 -67.35 L34.45 -67.15 Q34.9 -67.15 35.2 -67.45 L35.5 -68.3 35.15 -69.0" fill="#993399" fill-rule="evenodd" stroke="none"/>
      <path d="M32.95 -75.4 L34.2 -76.05 35.6 -76.65 37.2 -75.2 34.7 -74.15 31.95 -73.0 31.55 -72.8 Q29.6 -71.8 27.35 -69.75 L24.45 -72.0 27.6 -73.0 30.35 -74.15 32.95 -75.4" fill="#ffffff" fill-rule="evenodd" stroke="none"/>
      <path d="M36.8 -64.5 L37.9 -64.0 Q35.25 -61.35 31.0 -60.0 L14.05 -75.5 Q14.2 -79.5 16.2 -82.2 L16.75 -81.05 Q15.4 -78.75 15.25 -75.55 L20.0 -71.2 24.65 -67.0 30.9 -61.25 Q34.5 -62.35 36.8 -64.5" fill="#6e6e6e" fill-rule="evenodd" stroke="none"/>
      <path d="M36.8 -64.5 Q34.5 -62.35 30.9 -61.25 L24.65 -67.0 24.7 -67.1 27.35 -69.75 Q29.95 -67.95 33.05 -66.3 L36.8 -64.5 M20.0 -71.2 L15.25 -75.55 Q15.4 -78.75 16.75 -81.05 L17.2 -80.25 Q19.5 -76.5 23.4 -72.95 L24.45 -72.0 23.95 -71.9 20.0 -71.2 M17.7 -75.45 L17.65 -75.65 17.45 -75.7 17.25 -75.6 17.2 -75.45 17.3 -75.25 17.45 -75.2 Q17.55 -75.2 17.65 -75.3 L17.7 -75.45 M27.7 -68.55 L27.25 -68.35 27.05 -67.85 27.3 -67.35 27.8 -67.2 28.25 -67.45 28.45 -67.9 28.25 -68.35 27.7 -68.55 M32.75 -64.5 L32.55 -64.35 32.45 -64.15 32.55 -63.9 32.8 -63.9 33.0 -63.95 33.1 -64.2 33.0 -64.35 32.75 -64.5" fill="#732571" fill-rule="evenodd" stroke="none"/>
      <path d="M17.7 -75.45 L17.65 -75.3 Q17.55 -75.2 17.45 -75.2 L17.3 -75.25 17.2 -75.45 17.25 -75.6 17.45 -75.7 17.65 -75.65 17.7 -75.45 M32.75 -64.5 L33.0 -64.35 33.1 -64.2 33.0 -63.95 32.8 -63.9 32.55 -63.9 32.45 -64.15 32.55 -64.35 32.75 -64.5 M27.7 -68.55 L28.25 -68.35 28.45 -67.9 28.25 -67.45 27.8 -67.2 27.3 -67.35 27.05 -67.85 27.25 -68.35 27.7 -68.55" fill="#ad25a3" fill-rule="evenodd" stroke="none"/>
      <path d="M24.65 -67.0 L20.0 -71.2 23.95 -71.9 24.45 -72.0 27.35 -69.75 24.7 -67.1 24.65 -67.0" fill="#cccccc" fill-rule="evenodd" stroke="none"/>
      <path d="M41.5 -68.65 Q40.25 -65.85 38.15 -63.65 35.25 -60.8 30.75 -59.25 L13.3 -75.15 Q13.65 -79.35 15.8 -82.35 17.9 -85.4 21.9 -87.05 L25.25 -88.15 42.65 -72.25 41.55 -68.8 41.5 -68.65 M35.6 -76.65 L25.05 -86.3 22.15 -85.45 Q18.5 -84.05 16.75 -81.05 15.4 -78.75 15.25 -75.55 L20.0 -71.2 24.65 -67.0 30.9 -61.25 Q34.5 -62.35 36.8 -64.5 38.8 -66.3 39.8 -68.9 L39.9 -69.1 40.7 -72.0 37.2 -75.2 35.6 -76.65" fill="none" stroke="#000000" stroke-linecap="round" stroke-linejoin="round" stroke-opacity="0.6627451" stroke-width="0.5"/>
      <path d="M85.85 -30.8 L75.25 -40.45 72.4 -39.6 Q68.7 -38.2 66.95 -35.2 L66.4 -36.35 Q64.45 -33.65 64.25 -29.65 L81.25 -14.15 Q85.5 -15.5 88.1 -18.15 L87.0 -18.65 Q89.0 -20.45 90.05 -23.05 L90.1 -23.25 90.95 -26.15 87.45 -29.35 85.85 -30.8 M75.45 -42.3 L92.85 -26.4 Q92.5 -24.55 91.75 -22.95 L91.7 -22.8 Q90.5 -20.0 88.35 -17.8 85.45 -14.95 80.95 -13.4 L63.55 -29.3 Q63.9 -33.5 66.0 -36.5 68.15 -39.55 72.1 -41.2 L75.45 -42.3" fill="#999999" fill-rule="evenodd" stroke="none"/>
      <path d="M83.2 -29.55 L81.9 -30.35 Q79.75 -31.35 77.85 -33.15 76.0 -34.8 74.65 -36.8 L72.65 -39.35 72.4 -39.6 75.25 -40.45 85.85 -30.8 84.45 -30.2 83.2 -29.55 M90.1 -23.25 L87.7 -25.95 84.95 -28.3 87.45 -29.35 90.95 -26.15 90.1 -23.25" fill="#00c3ff" fill-opacity="0.3019608" fill-rule="evenodd" stroke="none"/>
      <path d="M72.4 -39.6 L72.65 -39.35 74.65 -36.8 Q76.0 -34.8 77.85 -33.15 79.75 -31.35 81.9 -30.35 L83.2 -29.55 80.55 -28.3 78.4 -30.1 Q76.05 -32.25 74.35 -34.8 72.45 -37.75 72.4 -39.6 M70.25 -32.35 L70.5 -32.95 Q70.75 -33.25 71.1 -33.25 L71.7 -33.0 72.0 -32.4 71.8 -31.8 Q71.5 -31.5 71.2 -31.5 70.85 -31.5 70.55 -31.75 L70.25 -32.35 M75.05 -28.7 L74.85 -29.3 75.0 -29.85 Q75.2 -30.05 75.55 -30.1 L76.15 -29.9 76.35 -29.35 76.2 -28.75 Q76.0 -28.55 75.65 -28.55 L75.05 -28.7 M90.05 -23.05 L85.35 -25.35 Q83.7 -26.1 82.15 -27.15 L84.95 -28.3 87.7 -25.95 90.1 -23.25 90.05 -23.05 M84.55 -23.45 Q85.05 -23.45 85.35 -23.15 85.7 -22.9 85.7 -22.45 L85.45 -21.6 Q85.15 -21.3 84.65 -21.3 L83.85 -21.5 Q83.55 -21.8 83.5 -22.35 L83.8 -23.1 84.55 -23.45" fill="#d12dcd" fill-rule="evenodd" stroke="none"/>
      <path d="M72.4 -39.6 Q72.45 -37.75 74.35 -34.8 76.05 -32.25 78.4 -30.1 L80.55 -28.3 77.8 -27.15 74.65 -26.15 73.6 -27.1 Q69.7 -30.65 67.4 -34.45 L66.95 -35.2 Q68.7 -38.2 72.4 -39.6 M70.25 -32.35 L70.55 -31.75 Q70.85 -31.5 71.2 -31.5 71.5 -31.5 71.8 -31.8 L72.0 -32.4 71.7 -33.0 71.1 -33.25 Q70.75 -33.25 70.5 -32.95 L70.25 -32.35 M75.05 -28.7 L75.65 -28.55 Q76.0 -28.55 76.2 -28.75 L76.35 -29.35 76.15 -29.9 75.55 -30.1 Q75.2 -30.05 75.0 -29.85 L74.85 -29.3 75.05 -28.7 M82.15 -27.15 Q83.7 -26.1 85.35 -25.35 L90.05 -23.05 Q89.0 -20.45 87.0 -18.65 85.25 -19.4 83.3 -20.45 80.15 -22.1 77.6 -23.9 79.8 -25.95 81.75 -26.95 L82.15 -27.15 M84.55 -23.45 L83.8 -23.1 83.5 -22.35 Q83.55 -21.8 83.85 -21.5 L84.65 -21.3 Q85.15 -21.3 85.45 -21.6 L85.7 -22.45 Q85.7 -22.9 85.35 -23.15 85.05 -23.45 84.55 -23.45" fill="#993399" fill-rule="evenodd" stroke="none"/>
      <path d="M87.0 -18.65 L88.1 -18.15 Q85.5 -15.5 81.25 -14.15 L64.25 -29.65 Q64.45 -33.65 66.4 -36.35 L66.95 -35.2 Q65.6 -32.9 65.45 -29.7 L70.25 -25.35 74.85 -21.15 81.15 -15.4 Q84.7 -16.5 87.0 -18.65" fill="#6e6e6e" fill-rule="evenodd" stroke="none"/>
      <path d="M87.0 -18.65 Q84.7 -16.5 81.15 -15.4 L74.85 -21.15 74.95 -21.25 77.6 -23.9 Q80.15 -22.1 83.3 -20.45 85.25 -19.4 87.0 -18.65 M70.25 -25.35 L65.45 -29.7 Q65.6 -32.9 66.95 -35.2 L67.4 -34.45 Q69.7 -30.65 73.6 -27.1 L74.65 -26.15 74.15 -26.05 70.25 -25.35 M67.55 -29.4 L67.7 -29.35 67.85 -29.45 67.95 -29.6 67.85 -29.8 67.65 -29.85 67.5 -29.75 67.4 -29.6 67.55 -29.4 M77.25 -22.0 L77.5 -21.5 78.0 -21.35 Q78.3 -21.35 78.5 -21.6 L78.65 -22.05 78.45 -22.5 77.95 -22.7 77.5 -22.5 77.25 -22.0 M82.7 -18.3 L82.8 -18.05 83.0 -18.05 83.2 -18.1 83.3 -18.35 83.2 -18.5 83.0 -18.65 82.75 -18.5 82.7 -18.3" fill="#732571" fill-rule="evenodd" stroke="none"/>
      <path d="M67.55 -29.4 L67.4 -29.6 67.5 -29.75 67.65 -29.85 67.85 -29.8 67.95 -29.6 67.85 -29.45 67.7 -29.35 67.55 -29.4 M77.25 -22.0 L77.5 -22.5 77.95 -22.7 78.45 -22.5 78.65 -22.05 78.5 -21.6 Q78.3 -21.35 78.0 -21.35 L77.5 -21.5 77.25 -22.0 M82.7 -18.3 L82.75 -18.5 83.0 -18.65 83.2 -18.5 83.3 -18.35 83.2 -18.1 83.0 -18.05 82.8 -18.05 82.7 -18.3" fill="#ad25a3" fill-rule="evenodd" stroke="none"/>
      <path d="M74.85 -21.15 L70.25 -25.35 74.15 -26.05 74.65 -26.15 Q76.05 -25.05 77.6 -23.9 L74.95 -21.25 74.85 -21.15" fill="#cccccc" fill-rule="evenodd" stroke="none"/>
      <path d="M83.2 -29.55 L84.45 -30.2 85.85 -30.8 87.45 -29.35 84.95 -28.3 82.15 -27.15 81.75 -26.95 Q79.8 -25.95 77.6 -23.9 76.05 -25.05 74.65 -26.15 L77.8 -27.15 80.55 -28.3 83.2 -29.55" fill="#ffffff" fill-rule="evenodd" stroke="none"/>
      <path d="M85.85 -30.8 L75.25 -40.45 72.4 -39.6 Q68.7 -38.2 66.95 -35.2 65.6 -32.9 65.45 -29.7 L70.25 -25.35 74.85 -21.15 81.15 -15.4 Q84.7 -16.5 87.0 -18.65 89.0 -20.45 90.05 -23.05 L90.1 -23.25 90.95 -26.15 87.45 -29.35 85.85 -30.8 M75.45 -42.3 L92.85 -26.4 Q92.5 -24.55 91.75 -22.95 L91.7 -22.8 Q90.5 -20.0 88.35 -17.8 85.45 -14.95 80.95 -13.4 L63.55 -29.3 Q63.9 -33.5 66.0 -36.5 68.15 -39.55 72.1 -41.2 L75.45 -42.3" fill="none" stroke="#000000" stroke-linecap="round" stroke-linejoin="round" stroke-opacity="0.6627451" stroke-width="0.5"/>
      <path d="M46.4 -69.25 Q48.3 -70.7 50.8 -71.35 57.3 -67.0 62.95 -61.85 68.7 -56.65 73.7 -50.45 73.3 -48.0 72.05 -46.05 69.7 -46.5 66.75 -47.9 61.65 -50.45 57.2 -54.65 L56.9 -54.95 Q53.2 -58.4 49.45 -64.0 47.05 -67.5 46.4 -69.25" fill="#660000" fill-rule="evenodd" stroke="none"/>
      <path d="M72.05 -46.05 L71.5 -45.2 Q70.35 -43.55 68.5 -42.3 L43.2 -65.45 Q44.25 -67.45 45.75 -68.7 L46.4 -69.25 Q47.05 -67.5 49.45 -64.0 53.2 -58.4 56.9 -54.95 L57.2 -54.65 Q61.65 -50.45 66.75 -47.9 69.7 -46.5 72.05 -46.05" fill="#400000" fill-rule="evenodd" stroke="none"/>
      <path d="M72.05 -46.05 L71.5 -45.2 Q70.35 -43.55 68.5 -42.3 L43.2 -65.45 Q44.25 -67.45 45.75 -68.7 L46.4 -69.25 Q48.3 -70.7 50.8 -71.35 57.3 -67.0 62.95 -61.85 68.7 -56.65 73.7 -50.45 73.3 -48.0 72.05 -46.05 Z" fill="none" stroke="#000000" stroke-linecap="round" stroke-linejoin="round" stroke-opacity="0.6627451" stroke-width="1.0"/>
      <path d="M40.8 -49.85 L45.5 -44.85 50.4 -40.15 Q53.1 -37.65 55.2 -36.25 55.3 -36.7 53.55 -38.65 L51.3 -41.15 49.2 -43.75 48.6 -44.2 40.85 -49.85 40.8 -49.85 M33.3 -63.5 L33.55 -63.8 Q36.8 -67.35 44.45 -64.95 51.45 -62.8 58.5 -56.75 L58.75 -56.5 59.25 -56.05 Q66.05 -49.55 68.9 -42.6 70.2 -39.5 70.35 -36.95 L69.55 -35.95 Q67.05 -33.2 64.45 -32.3 L58.0 -32.1 55.5 -32.65 Q54.7 -32.7 53.8 -32.05 53.05 -31.05 51.7 -31.1 50.35 -31.2 49.15 -32.25 L47.85 -34.05 46.9 -35.5 45.4 -35.65 Q44.15 -35.65 42.35 -37.25 40.5 -38.95 39.6 -41.05 L38.85 -43.0 37.65 -43.6 Q36.65 -43.9 36.3 -44.25 34.3 -46.1 36.15 -48.1 L36.75 -48.8 37.65 -49.1 Q34.45 -54.7 33.7 -57.15 32.55 -60.8 33.3 -63.5" fill="#ffffff" fill-rule="evenodd" stroke="none"/>
      <path d="M40.8 -49.85 L40.85 -49.85 48.6 -44.2 49.2 -43.75 51.3 -41.15 53.55 -38.65 Q55.3 -36.7 55.2 -36.25 53.1 -37.65 50.4 -40.15 L45.5 -44.85 40.8 -49.85 M33.3 -63.5 Q32.55 -60.8 33.7 -57.15 34.45 -54.7 37.65 -49.1 L36.75 -48.8 36.15 -48.1 Q34.3 -46.1 36.3 -44.25 36.65 -43.9 37.65 -43.6 L38.85 -43.0 39.6 -41.05 Q40.5 -38.95 42.35 -37.25 44.15 -35.65 45.4 -35.65 L46.9 -35.5 47.85 -34.05 49.15 -32.25 Q50.35 -31.2 51.7 -31.1 53.05 -31.05 53.8 -32.05 54.7 -32.7 55.5 -32.65 L58.0 -32.1 64.45 -32.3 Q67.05 -33.2 69.55 -35.95 L70.35 -36.95 Q70.5 -33.75 68.65 -31.75 65.4 -28.2 57.85 -30.5 L55.75 -31.25 55.95 -30.4 Q56.15 -28.95 55.05 -27.7 53.85 -26.45 51.8 -27.25 50.3 -27.75 48.85 -29.1 L47.2 -30.7 Q47.0 -31.0 46.75 -32.6 45.5 -31.25 43.25 -31.55 40.9 -31.95 38.9 -33.75 L38.65 -33.95 38.5 -34.15 38.3 -34.3 Q35.25 -37.6 36.2 -41.15 L36.4 -42.05 34.45 -42.35 32.7 -43.85 Q31.25 -45.15 30.65 -46.55 29.7 -48.55 30.85 -49.8 31.95 -51.05 33.35 -51.05 L34.3 -50.85 33.35 -52.85 Q30.45 -59.95 33.3 -63.5" fill="#e0e0e0" fill-rule="evenodd" stroke="none"/>
      <path d="M70.35 -36.95 Q70.2 -39.5 68.9 -42.6 66.05 -49.55 59.25 -56.05 L58.75 -56.5 58.5 -56.75 Q51.45 -62.8 44.45 -64.95 36.8 -67.35 33.55 -63.8 L33.3 -63.5 Q30.45 -59.95 33.35 -52.85 L34.3 -50.85 33.35 -51.05 Q31.95 -51.05 30.85 -49.8 29.7 -48.55 30.65 -46.55 31.25 -45.15 32.7 -43.85 L34.45 -42.35 36.4 -42.05 36.2 -41.15 Q35.25 -37.6 38.3 -34.3 L38.5 -34.15 38.65 -33.95 38.9 -33.75 Q40.9 -31.95 43.25 -31.55 45.5 -31.25 46.75 -32.6 47.0 -31.0 47.2 -30.7 L48.85 -29.1 Q50.3 -27.75 51.8 -27.25 53.85 -26.45 55.05 -27.7 56.15 -28.95 55.95 -30.4 L55.75 -31.25 57.85 -30.5 Q65.4 -28.2 68.65 -31.75 70.5 -33.75 70.35 -36.95 Z" fill="none" stroke="#000000" stroke-linecap="round" stroke-linejoin="round" stroke-opacity="0.4" stroke-width="1.0"/>
      <path d="M63.75 -41.2 Q63.45 -40.15 62.6 -39.2 61.65 -38.15 60.4 -37.85 59.25 -37.5 58.6 -38.1 57.9 -38.75 58.15 -39.9 58.35 -41.15 59.3 -42.2 L59.75 -42.6 63.75 -41.2" fill="#000000" fill-rule="evenodd" stroke="none"/>
      <path d="M63.75 -41.2 Q63.45 -40.15 62.6 -39.2 61.65 -38.15 60.4 -37.85 59.25 -37.5 58.6 -38.1 57.9 -38.75 58.15 -39.9 58.35 -41.15 59.3 -42.2 L59.75 -42.6 63.75 -41.2 66.5 -40.3" fill="none" stroke="#000000" stroke-linecap="round" stroke-linejoin="round" stroke-opacity="0.4" stroke-width="1.0"/>
      <path d="M43.0 -53.9 Q41.85 -53.55 41.15 -54.15 40.45 -54.8 40.75 -56.0 40.95 -57.25 41.9 -58.3 L43.8 -59.65 45.55 -55.75 45.15 -55.3 Q44.2 -54.25 43.0 -53.9" fill="#000000" fill-rule="evenodd" stroke="none"/>
      <path d="M43.0 -53.9 Q44.2 -54.25 45.15 -55.3 L45.55 -55.75 43.8 -59.65 41.9 -58.3 Q40.95 -57.25 40.75 -56.0 40.45 -54.8 41.15 -54.15 41.85 -53.55 43.0 -53.9 M43.8 -59.65 L42.6 -62.3" fill="none" stroke="#000000" stroke-linecap="round" stroke-linejoin="round" stroke-opacity="0.4" stroke-width="1.0"/>
      <path d="M-39.45 -53.05 Q-40.2 -54.0 -40.1 -55.1 L-39.7 -55.25 -36.95 -53.85 -36.45 -53.55 -30.45 -50.2 Q-20.4 -44.95 -13.35 -45.0 -6.2 -45.05 -0.5 -46.35 L6.95 -48.25 Q8.95 -48.6 10.15 -49.1 11.2 -49.6 11.65 -50.25 L11.9 -52.5 11.9 -52.55 Q12.2 -55.75 18.0 -57.6 21.05 -58.65 22.55 -58.2 L22.6 -58.15 Q23.6 -57.8 23.75 -56.65 L26.1 -52.75 Q28.1 -49.15 29.2 -49.15 L37.6 -50.8 Q43.85 -52.25 49.05 -52.7 L49.4 -52.7 50.8 -52.85 Q56.65 -53.25 58.55 -50.95 60.05 -49.1 60.1 -43.35 60.1 -42.5 59.6 -41.7 L58.5 -40.5 58.15 -40.2 Q56.95 -39.25 55.25 -38.45 L51.7 -37.35 48.4 -36.05 48.35 -36.0 Q51.15 -36.25 53.8 -37.1 56.35 -38.05 58.85 -38.6 L59.05 -38.55 60.2 -38.85 60.25 -38.85 60.75 -39.0 61.45 -38.95 62.55 -38.95 62.8 -38.8 63.15 -38.6 63.75 -38.0 64.55 -36.95 64.75 -36.55 64.8 -36.45 64.95 -36.05 65.0 -35.9 65.0 -26.25 Q63.9 -25.5 62.0 -24.7 60.25 -23.95 56.7 -22.9 52.45 -21.65 50.8 -21.6 L50.85 -21.2 Q51.3 -20.45 53.45 -20.45 L57.45 -20.25 58.0 -20.3 61.9 -19.95 Q62.7 -19.5 62.8 -18.8 L62.85 -17.15 Q62.75 -13.75 61.45 -10.5 L61.0 -8.95 Q60.5 -6.2 56.8 -6.15 L52.2 -6.8 47.8 -7.85 40.7 -9.55 36.4 -8.25 Q31.9 -6.85 29.8 -6.4 L24.3 -5.5 18.7 -4.65 -2.85 -1.2 -6.6 -1.15 Q-19.55 -1.0 -27.95 -2.35 -39.6 -4.15 -46.85 -9.0 L-52.95 -12.45 -54.1 -13.1 Q-56.6 -14.8 -57.6 -16.1 -58.35 -16.9 -58.4 -17.6 L-58.3 -18.3 -58.25 -18.35 -57.65 -17.85 -54.05 -15.3 Q-44.3 -9.05 -32.2 -6.6 -17.5 -3.55 -7.45 -4.0 L-4.7 -4.15 -2.9 -4.15 Q8.05 -4.55 18.75 -6.95 L24.3 -8.15 36.7 -10.75 38.05 -11.7 40.15 -11.9 42.5 -11.8 44.25 -11.4 47.25 -10.65 48.65 -10.25 52.4 -9.4 53.75 -9.1 56.35 -8.65 57.65 -8.95 Q59.4 -12.0 60.2 -15.5 L60.55 -17.15 60.55 -17.8 60.45 -18.05 57.25 -17.9 52.0 -18.4 51.1 -18.65 50.6 -18.8 49.55 -19.4 Q48.6 -20.15 48.65 -20.8 48.6 -21.65 48.8 -22.2 L48.8 -22.5 Q48.75 -23.45 52.05 -24.45 L57.3 -25.95 60.65 -27.25 62.95 -28.1 Q64.0 -28.7 64.0 -30.35 L64.1 -31.1 Q64.05 -32.7 63.45 -33.65 L63.25 -34.1 62.65 -35.0 62.3 -35.5 61.5 -35.85 61.35 -35.8 61.3 -35.95 59.5 -35.55 54.5 -34.0 53.9 -33.8 Q48.4 -32.05 47.0 -32.05 L46.55 -32.05 46.3 -32.15 44.05 -32.95 Q43.8 -33.05 43.7 -33.1 43.1 -33.55 43.1 -34.5 43.1 -36.2 45.25 -37.3 46.3 -37.85 50.1 -39.05 52.95 -40.0 54.65 -41.15 57.0 -42.8 57.05 -45.0 L57.1 -45.8 Q57.1 -46.75 56.5 -48.3 55.65 -50.15 54.7 -50.2 L51.4 -50.05 50.45 -49.95 Q45.05 -49.55 39.6 -48.25 33.4 -46.75 30.5 -46.5 L29.4 -46.4 Q26.05 -46.4 24.9 -48.2 24.3 -49.25 23.8 -51.25 L22.25 -53.95 21.9 -54.6 21.85 -54.6 21.35 -55.1 21.0 -55.1 19.6 -54.9 16.95 -54.0 15.9 -53.35 15.6 -53.2 Q15.3 -52.9 15.3 -52.4 L15.35 -50.9 15.3 -50.25 Q15.15 -48.95 12.5 -46.8 9.95 -44.7 -0.35 -42.95 L-2.2 -42.65 -14.85 -42.1 -24.25 -44.35 Q-29.35 -45.8 -31.65 -47.7 L-35.8 -50.05 -37.55 -51.4 -38.3 -51.9 -39.45 -53.05" fill="#000000" fill-rule="evenodd" stroke="none"/>
      <path d="M-39.45 -53.05 L-38.3 -51.9 -37.55 -51.4 -35.8 -50.05 -31.65 -47.7 Q-29.35 -45.8 -24.25 -44.35 L-14.85 -42.1 -2.2 -42.65 -4.35 -42.25 Q-13.95 -40.65 -17.8 -41.5 -21.75 -42.3 -26.55 -43.65 -31.35 -45.05 -33.45 -46.75 L-37.3 -48.95 -38.95 -50.25 -39.65 -50.75 -41.35 -51.7 -39.45 -53.05 M15.9 -53.35 L16.95 -54.0 19.6 -54.9 21.0 -55.1 21.35 -55.1 21.85 -54.6 21.9 -54.6 22.25 -53.95 23.8 -51.25 Q24.3 -49.25 24.9 -48.2 26.05 -46.4 29.4 -46.4 L30.5 -46.5 Q25.3 -45.35 23.2 -45.3 20.1 -45.35 19.05 -47.0 18.55 -48.0 18.1 -49.85 L16.65 -52.4 16.3 -53.0 16.25 -53.0 15.9 -53.35 M50.45 -49.95 L51.4 -50.05 54.7 -50.2 Q55.65 -50.15 56.5 -48.3 57.1 -46.75 57.1 -45.8 L57.05 -45.0 Q57.0 -42.8 54.65 -41.15 52.95 -40.0 50.1 -39.05 46.3 -37.85 45.25 -37.3 43.1 -36.2 43.1 -34.5 43.1 -33.55 43.7 -33.1 43.8 -33.05 44.05 -32.95 40.5 -31.9 39.45 -31.9 L39.05 -31.9 38.8 -32.0 38.75 -32.0 Q38.6 -32.5 38.6 -33.0 38.7 -35.9 45.15 -38.45 51.6 -40.9 51.7 -44.05 51.75 -45.9 50.65 -49.35 L50.45 -49.95 M54.5 -34.0 L59.5 -35.55 61.3 -35.95 61.35 -35.8 61.5 -35.85 62.3 -35.5 62.65 -35.0 63.25 -34.1 63.45 -33.65 Q64.05 -32.7 64.1 -31.1 L64.0 -30.35 Q64.0 -28.7 62.95 -28.1 L60.65 -27.25 57.3 -25.95 52.05 -24.45 Q48.75 -23.45 48.8 -22.5 L48.8 -22.2 Q48.6 -21.65 48.65 -20.8 48.6 -20.15 49.55 -19.4 L50.6 -18.8 49.0 -18.8 Q45.15 -18.8 43.25 -19.5 42.5 -19.6 41.8 -20.15 41.0 -20.85 41.0 -21.45 40.95 -22.25 41.15 -22.75 L41.15 -23.05 Q41.1 -23.95 44.15 -24.85 47.8 -25.8 49.0 -26.3 L52.2 -27.45 54.3 -28.2 Q55.3 -28.75 55.3 -30.25 L55.4 -30.95 Q55.35 -32.45 54.75 -33.35 L54.6 -33.8 54.5 -34.0 M52.0 -18.4 L57.25 -17.9 60.45 -18.05 60.55 -17.8 60.55 -17.15 60.2 -15.5 Q59.4 -12.0 57.65 -8.95 L56.35 -8.65 53.75 -9.1 52.4 -9.4 48.65 -10.25 49.25 -10.4 Q50.95 -13.25 51.7 -16.5 L52.0 -18.05 52.0 -18.4 M40.15 -11.9 L38.05 -11.7 36.7 -10.75 24.3 -8.15 18.75 -6.95 Q8.05 -4.55 -2.9 -4.15 L-4.7 -4.15 -7.45 -4.0 Q-17.5 -3.55 -32.2 -6.6 -44.3 -9.05 -54.05 -15.3 L-57.65 -17.85 -57.75 -18.65 -57.85 -19.15 -54.35 -16.8 Q-45.35 -10.95 -34.1 -8.65 -20.5 -5.8 -11.2 -6.15 L-8.55 -6.25 -6.85 -6.25 Q3.25 -6.55 13.2 -8.75 L18.3 -9.85 29.85 -12.2 Q30.7 -12.85 32.2 -12.75 L35.2 -13.2 36.85 -12.8 39.65 -12.05 40.15 -11.9" fill="#bdbdbd" fill-rule="evenodd" stroke="none"/>
      <path d="M-2.2 -42.65 L-0.35 -42.95 Q9.95 -44.7 12.5 -46.8 15.15 -48.95 15.3 -50.25 L15.35 -50.9 15.3 -52.4 Q15.3 -52.9 15.6 -53.2 L15.9 -53.35 16.25 -53.0 16.3 -53.0 16.65 -52.4 18.1 -49.85 Q18.55 -48.0 19.05 -47.0 20.1 -45.35 23.2 -45.3 25.3 -45.35 30.5 -46.5 33.4 -46.75 39.6 -48.25 45.05 -49.55 50.45 -49.95 L50.65 -49.35 Q51.75 -45.9 51.7 -44.05 51.6 -40.9 45.15 -38.45 38.7 -35.9 38.6 -33.0 38.6 -32.5 38.75 -32.0 L38.8 -32.0 39.05 -31.9 39.45 -31.9 Q40.5 -31.9 44.05 -32.95 L46.3 -32.15 46.55 -32.05 47.0 -32.05 Q48.4 -32.05 53.9 -33.8 L54.5 -34.0 54.6 -33.8 54.75 -33.35 Q55.35 -32.45 55.4 -30.95 L55.3 -30.25 Q55.3 -28.75 54.3 -28.2 L52.2 -27.45 49.0 -26.3 Q47.8 -25.8 44.15 -24.85 41.1 -23.95 41.15 -23.05 L41.15 -22.75 Q40.95 -22.25 41.0 -21.45 41.0 -20.85 41.8 -20.15 42.5 -19.6 43.25 -19.5 45.15 -18.8 49.0 -18.8 L50.6 -18.8 51.1 -18.65 52.0 -18.4 52.0 -18.05 51.7 -16.5 Q50.95 -13.25 49.25 -10.4 L48.65 -10.25 47.25 -10.65 44.25 -11.4 42.5 -11.8 40.15 -11.9 39.65 -12.05 36.85 -12.8 35.2 -13.2 32.2 -12.75 Q30.7 -12.85 29.85 -12.2 L18.3 -9.85 13.2 -8.75 Q3.25 -6.55 -6.85 -6.25 L-8.55 -6.25 -11.2 -6.15 Q-20.5 -5.8 -34.1 -8.65 -45.35 -10.95 -54.35 -16.8 L-57.85 -19.15 -58.05 -21.05 Q-58.1 -25.95 -56.25 -31.25 -54.6 -36.35 -51.7 -40.45 -49.05 -44.25 -45.8 -47.6 L-41.35 -51.7 -39.65 -50.75 -38.95 -50.25 -37.3 -48.95 -33.45 -46.75 Q-31.35 -45.05 -26.55 -43.65 -21.75 -42.3 -17.8 -41.5 -13.95 -40.65 -4.35 -42.25 L-2.2 -42.65" fill="#999999" fill-rule="evenodd" stroke="none"/>
    </g>
  </defs>
</svg>
