<?xml version="1.0" encoding="UTF-8" standalone="no"?>
<svg xmlns:xlink="http://www.w3.org/1999/xlink" height="531.5px" width="460.6px" xmlns="http://www.w3.org/2000/svg">
  <g transform="matrix(1.0, 0.0, 0.0, 1.0, 193.65, 334.05)">
    <use height="295.55" transform="matrix(1.0, 0.0, 0.0, 1.0, -62.85, -200.8)" width="226.4" xlink:href="#shape0"/>
  </g>
  <defs>
    <g id="shape0" transform="matrix(1.0, 0.0, 0.0, 1.0, 62.85, 200.8)">
      <path d="M65.25 -148.05 L65.45 -148.35 66.15 -148.05 66.4 -147.95 Q66.7 -147.65 66.7 -146.65 66.7 -144.05 49.05 -108.4 32.9 -75.9 22.15 -55.8 L21.65 -55.8 Q25.25 -65.4 31.8 -79.1 L43.1 -102.4 Q46.75 -110.05 53.6 -125.8 59.85 -139.35 65.25 -148.05 M28.9 -33.8 L51.6 4.1 Q64.8 26.2 73.4 42.65 73.3 42.65 72.95 42.9 L72.25 43.25 48.7 4.4 Q35.25 -18.2 28.45 -33.8 L28.9 -33.8" fill="#33281e" fill-rule="evenodd" stroke="none"/>
      <path d="M137.15 -52.7 Q138.4 -53.4 139.05 -54.3 L139.8 -55.5 140.05 -56.85 139.95 -58.1 139.0 -62.25 138.5 -63.95 Q138.0 -65.35 135.95 -66.3 L135.05 -66.7 130.9 -67.35 122.3 -66.4 Q117.85 -65.25 115.95 -64.35 L115.6 -64.15 Q113.7 -63.2 113.05 -61.95 112.4 -60.75 112.1 -59.6 111.45 -56.5 112.05 -54.0 112.1 -53.4 112.25 -53.15 112.45 -52.35 113.1 -51.95 113.55 -51.6 114.95 -51.3 L115.7 -51.2 116.3 -51.1 116.45 -51.05 Q125.15 -50.4 132.15 -51.4 135.05 -51.75 136.45 -52.4 L137.15 -52.7 M138.8 -65.9 L139.4 -64.8 140.45 -62.1 Q141.3 -59.3 141.3 -57.15 L141.15 -55.7 141.2 -55.05 140.25 -52.45 140.15 -52.0 140.25 -51.95 Q140.3 -51.7 140.6 -51.6 L140.65 -51.6 Q141.8 -50.8 142.2 -48.5 142.55 -46.75 142.4 -44.85 142.4 -41.7 140.7 -39.9 139.7 -38.8 138.05 -38.05 L138.6 -37.2 Q138.9 -36.45 138.9 -34.9 138.9 -26.9 135.7 -24.45 133.25 -22.6 125.9 -22.6 123.75 -22.6 119.2 -24.2 L118.8 -24.35 117.8 -24.45 117.65 -24.35 Q116.6 -22.8 108.55 -22.8 101.95 -22.8 97.1 -27.65 95.5 -29.25 94.45 -33.65 L93.0 -40.15 Q92.7 -41.85 92.7 -45.55 L92.7 -49.45 Q92.8 -51.05 93.55 -53.75 94.2 -56.2 97.25 -58.9 99.55 -60.95 100.7 -61.15 L100.7 -61.25 Q101.3 -66.05 103.25 -70.55 L104.0 -72.25 104.9 -73.3 Q108.45 -75.8 112.9 -75.6 L114.4 -75.7 118.65 -75.7 120.4 -75.7 Q125.05 -75.65 127.7 -72.75 129.6 -70.7 129.65 -68.65 134.8 -68.8 136.55 -67.75 138.25 -66.7 138.8 -65.9 M126.1 -68.4 L127.6 -68.55 127.55 -68.65 126.6 -70.7 Q125.4 -72.65 122.6 -73.3 L119.0 -73.7 114.4 -73.65 Q107.95 -73.9 106.5 -72.4 105.0 -70.9 104.9 -70.45 103.35 -67.5 102.65 -64.2 L101.95 -61.25 101.4 -59.45 101.15 -59.1 100.75 -60.1 99.65 -59.0 97.55 -57.0 Q95.5 -54.8 95.0 -53.1 94.25 -50.65 94.15 -49.05 L94.2 -45.5 Q94.2 -42.6 94.65 -40.15 95.0 -38.2 96.05 -34.35 L96.8 -31.6 Q97.45 -29.85 98.4 -28.8 99.75 -27.4 102.05 -26.2 105.2 -24.55 108.5 -24.5 L108.7 -24.5 112.9 -24.6 114.3 -24.75 116.2 -25.3 112.9 -26.95 110.2 -28.8 Q109.65 -29.45 109.65 -31.0 109.65 -33.0 110.5 -35.95 L111.3 -37.45 111.8 -38.15 111.2 -38.3 109.25 -37.15 Q106.55 -35.7 105.15 -35.7 L103.55 -36.15 Q103.85 -36.65 108.1 -38.2 L109.3 -38.95 Q107.85 -39.5 106.9 -40.15 105.2 -41.3 104.9 -42.9 104.75 -43.75 104.95 -44.95 104.85 -48.0 105.8 -50.35 107.1 -53.4 109.9 -53.0 L109.9 -53.7 110.0 -57.05 108.8 -57.65 106.9 -58.75 Q107.4 -59.9 109.85 -59.35 L110.2 -59.25 Q110.4 -61.0 110.8 -61.85 112.4 -65.2 117.35 -66.85 L122.15 -67.95 126.1 -68.4 M137.15 -39.8 L139.15 -41.15 Q140.55 -42.5 140.55 -45.85 L140.25 -48.2 140.1 -49.4 140.05 -49.6 Q139.8 -50.7 138.8 -50.7 138.25 -50.7 137.8 -50.35 L137.75 -50.35 132.25 -49.5 127.3 -49.2 122.45 -49.2 118.35 -49.25 116.45 -49.35 112.15 -49.7 111.8 -49.8 111.6 -49.9 111.35 -49.95 Q110.85 -50.15 110.55 -50.55 L110.4 -50.85 109.7 -51.05 Q108.8 -51.2 107.8 -50.1 L106.95 -48.75 Q106.8 -48.2 106.8 -46.0 106.8 -44.05 107.05 -43.4 107.65 -41.85 109.85 -40.9 L110.6 -40.65 115.05 -39.7 124.15 -38.5 Q128.85 -38.1 131.75 -38.6 L136.2 -39.45 137.15 -39.8 M116.0 -37.35 L115.55 -37.45 113.7 -37.55 113.5 -37.45 113.3 -37.15 Q112.35 -35.9 112.3 -35.45 L111.9 -33.95 111.55 -32.3 111.75 -30.55 112.25 -29.4 112.9 -28.7 113.65 -28.25 Q114.9 -27.5 116.25 -26.85 120.3 -25.05 124.7 -24.85 L126.75 -24.85 128.65 -24.95 Q131.6 -24.95 133.5 -25.75 135.0 -26.45 135.75 -27.7 136.9 -29.55 136.9 -34.5 L136.75 -35.85 136.1 -36.7 135.0 -37.1 129.4 -36.65 116.0 -37.35" fill="#000000" fill-rule="evenodd" stroke="none"/>
      <path d="M135.05 -66.7 L135.95 -66.3 Q138.0 -65.35 138.5 -63.95 L139.0 -62.25 139.95 -58.1 140.05 -56.85 139.8 -55.5 139.05 -54.3 Q138.4 -53.4 137.15 -52.7 L137.45 -54.45 Q137.45 -59.15 136.65 -62.65 136.05 -65.25 135.05 -66.7 M115.7 -51.2 L114.95 -51.3 Q113.55 -51.6 113.1 -51.95 112.45 -52.35 112.25 -53.15 112.1 -53.4 112.05 -54.0 111.45 -56.5 112.1 -59.6 112.4 -60.75 113.05 -61.95 113.7 -63.2 115.6 -64.15 L115.95 -64.35 Q114.85 -61.5 114.85 -56.85 L114.9 -53.75 Q115.1 -52.55 115.7 -51.2 M122.6 -73.3 Q125.4 -72.65 126.6 -70.7 L127.55 -68.65 127.6 -68.55 126.1 -68.4 Q124.95 -69.05 124.4 -70.7 123.85 -72.35 122.6 -73.3 M137.75 -50.35 L137.8 -50.35 Q138.25 -50.7 138.8 -50.7 139.8 -50.7 140.05 -49.6 L140.1 -49.4 140.25 -48.2 140.55 -45.85 Q140.55 -42.5 139.15 -41.15 L137.15 -39.8 137.55 -41.75 Q138.25 -44.9 138.25 -47.85 138.25 -49.25 137.75 -50.35 M110.6 -40.65 L109.85 -40.9 Q107.65 -41.85 107.05 -43.4 106.8 -44.05 106.8 -46.0 106.8 -48.2 106.95 -48.75 L107.8 -50.1 Q108.8 -51.2 109.7 -51.05 L110.4 -50.85 110.55 -50.55 Q110.85 -50.15 111.35 -49.95 L110.75 -49.45 Q110.05 -48.45 110.05 -44.55 110.05 -41.9 110.6 -40.65 M113.65 -28.25 L112.9 -28.7 112.25 -29.4 111.75 -30.55 111.55 -32.3 111.9 -33.95 112.3 -35.45 Q112.35 -35.9 113.3 -37.15 L113.5 -37.45 113.7 -37.55 115.55 -37.45 116.0 -37.35 114.95 -34.15 Q113.65 -30.0 113.65 -28.55 L113.65 -28.25 M136.75 -35.85 L136.9 -34.5 Q136.9 -29.55 135.75 -27.7 135.0 -26.45 133.5 -25.75 134.3 -29.45 134.85 -31.25 135.15 -32.35 136.15 -34.25 L136.75 -35.85" fill="#bdbdbd" fill-rule="evenodd" stroke="none"/>
      <path d="M137.15 -52.7 L136.45 -52.4 Q135.05 -51.75 132.15 -51.4 125.15 -50.4 116.45 -51.05 L116.3 -51.1 115.7 -51.2 Q115.1 -52.55 114.9 -53.75 L114.85 -56.85 Q114.85 -61.5 115.95 -64.35 117.85 -65.25 122.3 -66.4 L130.9 -67.35 135.05 -66.7 Q136.05 -65.25 136.65 -62.65 137.45 -59.15 137.45 -54.45 L137.15 -52.7 M122.6 -73.3 Q123.85 -72.35 124.4 -70.7 124.95 -69.05 126.1 -68.4 L122.15 -67.95 117.35 -66.85 Q112.4 -65.2 110.8 -61.85 110.4 -61.0 110.2 -59.25 L109.85 -59.35 Q107.4 -59.9 106.9 -58.75 L108.8 -57.65 110.0 -57.05 109.9 -53.7 109.9 -53.0 Q107.1 -53.4 105.8 -50.35 104.85 -48.0 104.95 -44.95 104.75 -43.75 104.9 -42.9 105.2 -41.3 106.9 -40.15 107.85 -39.5 109.3 -38.95 L108.1 -38.2 Q103.85 -36.65 103.55 -36.15 L105.15 -35.7 Q106.55 -35.7 109.25 -37.15 L111.2 -38.3 111.8 -38.15 111.3 -37.45 110.5 -35.95 Q109.65 -33.0 109.65 -31.0 109.65 -29.45 110.2 -28.8 L112.9 -26.95 116.2 -25.3 114.3 -24.75 112.9 -24.6 108.7 -24.5 108.5 -24.5 Q105.2 -24.55 102.05 -26.2 99.75 -27.4 98.4 -28.8 97.45 -29.85 96.8 -31.6 L96.05 -34.35 Q95.0 -38.2 94.65 -40.15 94.2 -42.6 94.2 -45.5 L94.15 -49.05 Q94.25 -50.65 95.0 -53.1 95.5 -54.8 97.55 -57.0 L99.65 -59.0 100.75 -60.1 101.15 -59.1 101.4 -59.45 101.95 -61.25 102.65 -64.2 Q103.35 -67.5 104.9 -70.45 105.0 -70.9 106.5 -72.4 107.95 -73.9 114.4 -73.65 L119.0 -73.7 122.6 -73.3 M137.75 -50.35 Q138.25 -49.25 138.25 -47.85 138.25 -44.9 137.55 -41.75 L137.15 -39.8 136.2 -39.45 131.75 -38.6 Q128.85 -38.1 124.15 -38.5 L115.05 -39.7 110.6 -40.65 Q110.05 -41.9 110.05 -44.55 110.05 -48.45 110.75 -49.45 L111.35 -49.95 111.6 -49.9 111.8 -49.8 112.15 -49.7 116.45 -49.35 118.35 -49.25 122.45 -49.2 127.3 -49.2 132.25 -49.5 137.75 -50.35 M113.65 -28.25 L113.65 -28.55 Q113.65 -30.0 114.95 -34.15 L116.0 -37.35 129.4 -36.65 135.0 -37.1 136.1 -36.7 136.75 -35.85 136.15 -34.25 Q135.15 -32.35 134.85 -31.25 134.3 -29.45 133.5 -25.75 131.6 -24.95 128.65 -24.95 L126.75 -24.85 124.7 -24.85 Q120.3 -25.05 116.25 -26.85 114.9 -27.5 113.65 -28.25" fill="#999999" fill-rule="evenodd" stroke="none"/>
      <path d="M43.55 -146.4 Q56.3 -147.3 64.1 -153.85 64.55 -149.3 68.4 -146.45 64.75 -142.45 56.35 -135.85 L55.2 -135.0 52.15 -132.7 Q51.15 -139.85 43.55 -146.4 51.15 -139.85 52.15 -132.7 L50.65 -131.5 52.35 -132.35 Q65.8 -138.9 67.35 -127.6 70.25 -138.0 80.8 -141.65 L81.45 -142.5 Q66.35 -146.3 65.1 -156.8 51.25 -145.2 33.05 -150.65 37.65 -148.5 41.05 -146.45 L41.45 -146.25 43.55 -146.4" fill="#400029" fill-rule="evenodd" stroke="none"/>
      <path d="M56.35 -135.85 Q64.75 -142.45 68.4 -146.45 64.55 -149.3 64.1 -153.85 56.3 -147.3 43.55 -146.4 51.15 -139.85 52.15 -132.7 L55.2 -135.0 56.35 -135.85 Q65.8 -142.9 70.2 -145.25 74.2 -142.8 80.8 -141.65 L81.45 -142.5 Q66.35 -146.3 65.1 -156.8 51.25 -145.2 33.05 -150.65 37.65 -148.5 41.05 -146.45 L41.45 -146.25 43.55 -146.4 M52.35 -132.35 L50.65 -131.5 52.15 -132.7 M52.35 -132.35 Q65.8 -138.9 67.35 -127.6 70.25 -138.0 80.8 -141.65" fill="none" stroke="#000000" stroke-linecap="round" stroke-linejoin="round" stroke-opacity="0.4" stroke-width="1.0"/>
      <path d="M63.8 23.95 L62.0 23.35 63.65 24.25 63.8 23.95" fill="#990066" fill-rule="evenodd" stroke="none"/>
      <path d="M57.35 39.1 L55.25 39.35 54.9 39.6 Q51.85 42.15 47.65 45.05 64.8 36.7 80.3 46.05 79.9 35.4 94.1 29.3 L93.35 28.7 Q87.05 30.85 83.5 33.8 78.75 32.25 68.45 26.75 77.55 31.95 81.9 35.25 78.5 38.75 78.75 43.25 70.15 38.0 57.35 39.1" fill="#400029" fill-rule="evenodd" stroke="none"/>
      <path d="M63.65 24.25 Q63.85 31.45 57.35 39.1 70.15 38.0 78.75 43.25 78.5 38.75 81.9 35.25 77.55 31.95 68.45 26.75 78.75 32.25 83.5 33.8 87.05 30.85 93.35 28.7 82.4 26.65 77.95 16.9 78.15 28.2 63.8 23.95 L63.65 24.25 67.1 26.05 68.45 26.75 67.1 26.05 63.65 24.25" fill="url(#gradient0)" fill-rule="evenodd" stroke="none"/>
      <path d="M63.8 23.95 L62.0 23.35 63.65 24.25 Q63.85 31.45 57.35 39.1 L55.25 39.35 54.9 39.6 Q51.85 42.15 47.65 45.05 64.8 36.7 80.3 46.05 79.9 35.4 94.1 29.3 L93.35 28.7 Q82.4 26.65 77.95 16.9 78.15 28.2 63.8 23.95 M63.65 24.25 L67.1 26.05 68.45 26.75 Q77.55 31.95 81.9 35.25 78.5 38.75 78.75 43.25 70.15 38.0 57.35 39.1 M68.45 26.75 Q78.75 32.25 83.5 33.8 87.05 30.85 93.35 28.7" fill="none" stroke="#000000" stroke-linecap="round" stroke-linejoin="round" stroke-opacity="0.4" stroke-width="1.0"/>
      <path d="M73.65 -160.5 Q74.55 -129.65 89.9 -104.95 111.0 -77.25 114.25 -58.5 L114.5 -57.0 114.6 -56.6 114.65 -55.05 Q114.15 -36.1 97.3 -5.65 85.7 21.05 89.25 51.75 93.95 59.35 98.05 58.35 94.15 21.35 110.6 -2.75 131.95 -29.65 131.15 -56.25 L130.95 -57.8 130.9 -58.2 130.75 -59.7 Q127.65 -86.25 102.65 -109.7 82.85 -131.15 81.35 -168.3 77.15 -168.75 73.65 -160.5" fill="#4f0732" fill-rule="evenodd" stroke="none"/>
      <path d="M73.65 -160.5 Q74.55 -129.65 89.9 -104.95 111.0 -77.25 114.25 -58.5 L114.5 -57.0 114.6 -56.6 114.65 -55.05 Q114.15 -36.1 97.3 -5.65 85.7 21.05 89.25 51.75 93.95 59.35 98.05 58.35 94.15 21.35 110.6 -2.75 131.95 -29.65 131.15 -56.25 L130.95 -57.8 130.9 -58.2 130.75 -59.7 Q127.65 -86.25 102.65 -109.7 82.85 -131.15 81.35 -168.3 77.15 -168.75 73.65 -160.5 Z" fill="none" stroke="#000000" stroke-linecap="round" stroke-linejoin="round" stroke-opacity="0.4" stroke-width="1.0"/>
      <path d="M82.3 -158.0 Q82.55 -172.1 95.75 -168.75 78.6 -205.0 39.1 -199.6 76.65 -190.05 63.45 -173.2 55.95 -169.4 53.0 -158.6 70.55 -167.9 75.6 -140.6 L82.3 -158.0" fill="url(#gradient1)" fill-rule="evenodd" stroke="none"/>
      <path d="M82.3 -158.0 Q82.55 -172.1 95.75 -168.75 78.6 -205.0 39.1 -199.6 76.65 -190.05 63.45 -173.2 55.95 -169.4 53.0 -158.6 70.55 -167.9 75.6 -140.6" fill="none" stroke="#000000" stroke-linecap="round" stroke-linejoin="round" stroke-opacity="0.4" stroke-width="1.0"/>
      <path d="M98.85 -113.75 Q99.0 -124.95 107.6 -130.4 95.15 -134.7 87.35 -128.9 86.05 -122.25 91.6 -113.2 L98.85 -113.75" fill="url(#gradient2)" fill-rule="evenodd" stroke="none"/>
      <path d="M98.85 -113.75 Q99.0 -124.95 107.6 -130.4 95.15 -134.7 87.35 -128.9" fill="none" stroke="#000000" stroke-linecap="round" stroke-linejoin="round" stroke-opacity="0.4" stroke-width="1.0"/>
      <path d="M129.35 -69.4 Q138.1 -84.2 152.15 -95.95 134.7 -102.95 117.55 -92.05 116.85 -85.4 119.45 -79.65 123.05 -73.3 129.35 -69.4" fill="#ffffd1" fill-rule="evenodd" stroke="none"/>
      <path d="M129.35 -69.4 Q138.1 -84.2 152.15 -95.95 134.7 -102.95 117.55 -92.05 116.85 -85.4 119.45 -79.65 123.05 -73.3 129.35 -69.4 Z" fill="none" stroke="#000000" stroke-linecap="round" stroke-linejoin="round" stroke-opacity="0.4" stroke-width="1.0"/>
      <path d="M130.3 -58.95 Q137.8 -66.2 147.65 -70.5 135.7 -76.95 125.65 -74.45 122.0 -72.05 122.35 -62.6 125.35 -57.85 130.3 -58.95" fill="#e3e3ac" fill-rule="evenodd" stroke="none"/>
      <path d="M130.3 -58.95 Q137.8 -66.2 147.65 -70.5 135.7 -76.95 125.65 -74.45 122.0 -72.05 122.35 -62.6 125.35 -57.85 130.3 -58.95 Z" fill="none" stroke="#000000" stroke-linecap="round" stroke-linejoin="round" stroke-opacity="0.4" stroke-width="1.0"/>
      <path d="M131.5 -40.15 Q142.35 -26.85 158.0 -17.2 141.75 -7.8 123.2 -16.1 121.5 -22.55 123.2 -28.6 125.9 -35.45 131.5 -40.15" fill="#ffffd1" fill-rule="evenodd" stroke="none"/>
      <path d="M131.5 -40.15 Q142.35 -26.85 158.0 -17.2 141.75 -7.8 123.2 -16.1 121.5 -22.55 123.2 -28.6 125.9 -35.45 131.5 -40.15 Z" fill="none" stroke="#000000" stroke-linecap="round" stroke-linejoin="round" stroke-opacity="0.4" stroke-width="1.0"/>
      <path d="M130.95 -50.7 Q139.45 -44.55 149.8 -41.75 138.95 -33.6 128.6 -34.6 124.65 -36.5 123.6 -45.85 125.9 -51.0 130.95 -50.7" fill="#e3e3ac" fill-rule="evenodd" stroke="none"/>
      <path d="M130.95 -50.7 Q139.45 -44.55 149.8 -41.75 138.95 -33.6 128.6 -34.6 124.65 -36.5 123.6 -45.85 125.9 -51.0 130.95 -50.7 Z" fill="none" stroke="#000000" stroke-linecap="round" stroke-linejoin="round" stroke-opacity="0.4" stroke-width="1.0"/>
      <path d="M97.35 20.05 Q106.0 24.65 117.65 18.6 108.35 14.45 106.6 3.35 L99.35 3.9 Q95.2 13.7 97.35 20.05" fill="url(#gradient3)" fill-rule="evenodd" stroke="none"/>
      <path d="M106.6 3.35 Q108.35 14.45 117.65 18.6 106.0 24.65 97.35 20.05" fill="none" stroke="#000000" stroke-linecap="round" stroke-linejoin="round" stroke-opacity="0.4" stroke-width="1.0"/>
      <path d="M109.75 -72.1 Q110.85 -69.25 111.5 -66.15 112.25 -62.75 112.6 -58.9 L122.95 -62.35 131.85 -59.45 Q130.95 -68.5 127.35 -77.55 L109.75 -72.1 M112.8 -50.45 L112.4 -45.45 125.0 -34.75 129.4 -33.9 Q131.05 -39.4 131.75 -44.85 132.2 -48.05 132.2 -51.2 L116.7 -50.65 112.8 -50.45 M108.95 -32.45 Q106.9 -26.95 103.6 -21.55 110.65 -18.05 121.1 -14.7 L124.25 -20.6 108.95 -32.45 M111.5 -66.15 L122.95 -62.35 111.5 -66.15 M131.75 -44.85 L116.7 -50.65 131.75 -44.85" fill="#99246f" fill-rule="evenodd" stroke="none"/>
      <path d="M127.35 -77.55 Q125.05 -83.25 121.75 -88.9 L120.55 -90.85 106.7 -78.15 Q108.5 -75.3 109.75 -72.1 L127.35 -77.55 M112.4 -45.45 Q111.8 -41.6 110.7 -37.75 L125.0 -34.75 112.4 -45.45" fill="#7d1a42" fill-rule="evenodd" stroke="none"/>
      <path d="M120.55 -90.85 L116.25 -97.4 100.25 -87.7 104.65 -81.3 106.7 -78.15 120.55 -90.85 M112.6 -58.9 L112.9 -54.35 112.8 -50.45 116.7 -50.65 132.2 -51.2 Q132.35 -55.35 131.85 -59.45 L122.95 -62.35 112.6 -58.9 M110.7 -37.75 L108.95 -32.45 124.25 -20.6 Q127.55 -27.25 129.4 -33.9 L125.0 -34.75 110.7 -37.75" fill="#992d8c" fill-rule="evenodd" stroke="none"/>
      <path d="M127.35 -77.55 Q125.05 -83.25 121.75 -88.9 L120.55 -90.85 116.25 -97.4 100.25 -87.7 104.65 -81.3 106.7 -78.15 Q108.5 -75.3 109.75 -72.1 110.85 -69.25 111.5 -66.15 112.25 -62.75 112.6 -58.9 L112.9 -54.35 112.8 -50.45 112.4 -45.45 Q111.8 -41.6 110.7 -37.75 L108.95 -32.45 Q106.9 -26.95 103.6 -21.55 110.65 -18.05 121.1 -14.7 L124.25 -20.6 Q127.55 -27.25 129.4 -33.9 131.05 -39.4 131.75 -44.85 132.2 -48.05 132.2 -51.2 132.35 -55.35 131.85 -59.45 130.95 -68.5 127.35 -77.55 L109.75 -72.1 M129.4 -33.9 L125.0 -34.75 112.4 -45.45 M131.85 -59.45 L122.95 -62.35 111.5 -66.15 M112.8 -50.45 L116.7 -50.65 131.75 -44.85 M108.95 -32.45 L124.25 -20.6 M116.7 -50.65 L132.2 -51.2 M125.0 -34.75 L110.7 -37.75 M122.95 -62.35 L112.6 -58.9 M120.55 -90.85 L106.7 -78.15" fill="none" stroke="#000000" stroke-linecap="round" stroke-linejoin="round" stroke-opacity="0.4" stroke-width="1.0"/>
      <path d="M97.4 46.9 L88.3 30.6 Q87.2 58.4 68.45 51.65 73.0 62.0 80.95 64.65 96.4 79.4 60.65 94.25 100.6 93.85 112.25 55.5 99.7 60.8 97.4 46.9" fill="url(#gradient4)" fill-rule="evenodd" stroke="none"/>
      <path d="M97.4 46.9 Q99.7 60.8 112.25 55.5 100.6 93.85 60.65 94.25 96.4 79.4 80.95 64.65 73.0 62.0 68.45 51.65 87.2 58.4 88.3 30.6" fill="none" stroke="#000000" stroke-linecap="round" stroke-linejoin="round" stroke-opacity="0.4" stroke-width="1.0"/>
      <path d="M137.15 -52.7 Q138.4 -53.4 139.05 -54.3 L139.8 -55.5 140.05 -56.85 139.95 -58.1 139.0 -62.25 138.5 -63.95 Q138.0 -65.35 135.95 -66.3 L135.05 -66.7 130.9 -67.35 122.3 -66.4 Q117.85 -65.25 115.95 -64.35 L115.6 -64.15 Q113.7 -63.2 113.05 -61.95 112.4 -60.75 112.1 -59.6 111.45 -56.5 112.05 -54.0 112.1 -53.4 112.25 -53.15 112.45 -52.35 113.1 -51.95 113.55 -51.6 114.95 -51.3 L115.7 -51.2 116.3 -51.1 116.45 -51.05 Q125.15 -50.4 132.15 -51.4 135.05 -51.75 136.45 -52.4 L137.15 -52.7 M140.45 -62.1 Q141.3 -59.3 141.3 -57.15 L141.15 -55.7 141.2 -55.05 140.25 -52.45 140.15 -52.0 140.25 -51.95 Q140.3 -51.7 140.6 -51.6 L140.65 -51.6 Q141.8 -50.8 142.2 -48.5 142.55 -46.75 142.4 -44.85 142.4 -41.7 140.7 -39.9 139.7 -38.8 138.05 -38.05 L138.6 -37.2 Q138.9 -36.45 138.9 -34.9 138.9 -26.9 135.7 -24.45 133.25 -22.6 125.9 -22.6 123.9 -22.6 119.75 -24.0 119.25 -24.55 118.45 -24.75 L116.05 -25.4 116.0 -25.4 112.9 -26.95 110.2 -28.8 Q109.65 -29.45 109.65 -31.0 109.65 -33.0 110.5 -35.95 L111.3 -37.45 111.8 -38.15 111.2 -38.3 109.25 -37.15 Q106.55 -35.7 105.15 -35.7 L103.55 -36.15 Q103.85 -36.65 108.1 -38.2 L109.3 -38.95 Q107.85 -39.5 106.9 -40.15 105.2 -41.3 104.9 -42.9 104.75 -43.75 104.95 -44.95 104.85 -48.0 105.8 -50.35 107.1 -53.4 109.9 -53.0 L109.9 -53.7 110.0 -57.05 108.8 -57.65 106.9 -58.75 Q107.4 -59.9 109.85 -59.35 L110.2 -59.25 Q110.4 -61.0 110.8 -61.85 112.4 -65.2 117.35 -66.85 L122.15 -67.95 126.1 -68.4 127.2 -68.5 127.5 -68.55 127.6 -68.55 129.8 -68.65 130.4 -68.65 Q134.9 -68.7 136.55 -67.75 138.25 -66.7 138.8 -65.9 L139.4 -64.8 140.45 -62.1 M137.15 -39.8 L139.15 -41.15 Q140.55 -42.5 140.55 -45.85 L140.25 -48.2 140.1 -49.4 140.05 -49.6 Q139.8 -50.7 138.8 -50.7 138.25 -50.7 137.8 -50.35 L137.75 -50.35 132.25 -49.5 127.3 -49.2 122.45 -49.2 118.35 -49.25 116.45 -49.35 112.15 -49.7 111.8 -49.8 111.6 -49.9 111.35 -49.95 Q110.85 -50.15 110.55 -50.55 L110.4 -50.85 109.7 -51.05 Q108.8 -51.2 107.8 -50.1 L106.95 -48.75 Q106.8 -48.2 106.8 -46.0 106.8 -44.05 107.05 -43.4 107.65 -41.85 109.85 -40.9 L110.6 -40.65 115.05 -39.7 124.15 -38.5 Q128.85 -38.1 131.75 -38.6 L136.2 -39.45 137.15 -39.8 M116.0 -37.35 L115.55 -37.45 113.7 -37.55 113.5 -37.45 113.3 -37.15 Q112.35 -35.9 112.3 -35.45 L111.9 -33.95 111.55 -32.3 111.75 -30.55 112.25 -29.4 112.9 -28.7 113.65 -28.25 Q114.9 -27.5 116.25 -26.85 120.3 -25.05 124.7 -24.85 L126.75 -24.85 128.65 -24.95 Q131.6 -24.95 133.5 -25.75 135.0 -26.45 135.75 -27.7 136.9 -29.55 136.9 -34.5 L136.75 -35.85 136.1 -36.7 135.0 -37.1 129.4 -36.65 116.0 -37.35" fill="#000000" fill-rule="evenodd" stroke="none"/>
      <path d="M135.05 -66.7 L135.95 -66.3 Q138.0 -65.35 138.5 -63.95 L139.0 -62.25 139.95 -58.1 140.05 -56.85 139.8 -55.5 139.05 -54.3 Q138.4 -53.4 137.15 -52.7 L137.45 -54.45 Q137.45 -59.15 136.65 -62.65 136.05 -65.25 135.05 -66.7 M115.7 -51.2 L114.95 -51.3 Q113.55 -51.6 113.1 -51.95 112.45 -52.35 112.25 -53.15 112.1 -53.4 112.05 -54.0 111.45 -56.5 112.1 -59.6 112.4 -60.75 113.05 -61.95 113.7 -63.2 115.6 -64.15 L115.95 -64.35 Q114.85 -61.5 114.85 -56.85 L114.9 -53.75 Q115.1 -52.55 115.7 -51.2 M137.75 -50.35 L137.8 -50.35 Q138.25 -50.7 138.8 -50.7 139.8 -50.7 140.05 -49.6 L140.1 -49.4 140.25 -48.2 140.55 -45.85 Q140.55 -42.5 139.15 -41.15 L137.15 -39.8 137.55 -41.75 Q138.25 -44.9 138.25 -47.85 138.25 -49.25 137.75 -50.35 M110.6 -40.65 L109.85 -40.9 Q107.65 -41.85 107.05 -43.4 106.8 -44.05 106.8 -46.0 106.8 -48.2 106.95 -48.75 L107.8 -50.1 Q108.8 -51.2 109.7 -51.05 L110.4 -50.85 110.55 -50.55 Q110.85 -50.15 111.35 -49.95 L110.75 -49.45 Q110.05 -48.45 110.05 -44.55 110.05 -41.9 110.6 -40.65 M113.65 -28.25 L112.9 -28.7 112.25 -29.4 111.75 -30.55 111.55 -32.3 111.9 -33.95 112.3 -35.45 Q112.35 -35.9 113.3 -37.15 L113.5 -37.45 113.7 -37.55 115.55 -37.45 116.0 -37.35 114.95 -34.15 Q113.65 -30.0 113.65 -28.55 L113.65 -28.25 M136.75 -35.85 L136.9 -34.5 Q136.9 -29.55 135.75 -27.7 135.0 -26.45 133.5 -25.75 134.3 -29.45 134.85 -31.25 135.15 -32.35 136.15 -34.25 L136.75 -35.85" fill="#bdbdbd" fill-rule="evenodd" stroke="none"/>
      <path d="M137.15 -52.7 L136.45 -52.4 Q135.05 -51.75 132.15 -51.4 125.15 -50.4 116.45 -51.05 L116.3 -51.1 115.7 -51.2 Q115.1 -52.55 114.9 -53.75 L114.85 -56.85 Q114.85 -61.5 115.95 -64.35 117.85 -65.25 122.3 -66.4 L130.9 -67.35 135.05 -66.7 Q136.05 -65.25 136.65 -62.65 137.45 -59.15 137.45 -54.45 L137.15 -52.7 M137.15 -39.8 L136.2 -39.45 131.75 -38.6 Q128.85 -38.1 124.15 -38.5 L115.05 -39.7 110.6 -40.65 Q110.05 -41.9 110.05 -44.55 110.05 -48.45 110.75 -49.45 L111.35 -49.95 111.6 -49.9 111.8 -49.8 112.15 -49.7 116.45 -49.35 118.35 -49.25 122.45 -49.2 127.3 -49.2 132.25 -49.5 137.75 -50.35 Q138.25 -49.25 138.25 -47.85 138.25 -44.9 137.55 -41.75 L137.15 -39.8 M113.65 -28.25 L113.65 -28.55 Q113.65 -30.0 114.95 -34.15 L116.0 -37.35 129.4 -36.65 135.0 -37.1 136.1 -36.7 136.75 -35.85 136.15 -34.25 Q135.15 -32.35 134.85 -31.25 134.3 -29.45 133.5 -25.75 131.6 -24.95 128.65 -24.95 L126.75 -24.85 124.7 -24.85 Q120.3 -25.05 116.25 -26.85 114.9 -27.5 113.65 -28.25" fill="#999999" fill-rule="evenodd" stroke="none"/>
      <path d="M45.5 -55.15 L43.55 -55.0 Q40.05 -58.7 39.95 -62.2 31.1 -60.65 17.5 -65.7 L15.2 -66.45 14.85 -66.8 6.7 -73.5 Q25.6 -61.3 41.35 -63.9 41.55 -59.65 45.5 -55.15 M43.3 -50.5 L45.3 -50.65 Q42.8 -46.2 43.3 -42.45 27.35 -42.25 10.85 -27.0 L17.7 -35.0 18.0 -35.4 20.1 -36.6 Q32.65 -43.85 41.65 -43.9 41.2 -46.95 43.3 -50.5" fill="#400029" fill-rule="evenodd" stroke="none"/>
      <path d="M21.05 -50.6 L127.45 -60.05 129.9 -58.2 45.3 -50.65 43.3 -50.5 25.4 -48.95 21.3 -48.35 21.05 -50.6" fill="#210013" fill-rule="evenodd" stroke="none"/>
      <path d="M43.55 -55.0 L45.5 -55.15 129.5 -62.8 127.45 -60.05 21.05 -50.6 20.75 -52.9 25.15 -53.3 43.55 -55.0" fill="#661644" fill-rule="evenodd" stroke="none"/>
      <path d="M43.55 -55.0 L25.15 -53.3 Q23.85 -58.6 17.5 -65.7 31.1 -60.65 39.95 -62.2 40.05 -58.7 43.55 -55.0" fill="url(#gradient5)" fill-rule="evenodd" stroke="none"/>
      <path d="M20.1 -36.6 Q24.65 -43.85 25.4 -48.95 L43.3 -50.5 Q41.2 -46.95 41.65 -43.9 32.65 -43.85 20.1 -36.6" fill="url(#gradient6)" fill-rule="evenodd" stroke="none"/>
      <path d="M137.7 -63.2 L135.55 -64.9 138.1 -71.6 156.7 -62.7 144.75 -61.55 144.7 -61.55 137.7 -63.2" fill="#cccccc" fill-rule="evenodd" stroke="none"/>
      <path d="M127.45 -60.05 L129.5 -62.8 133.2 -67.15 135.55 -64.9 137.7 -63.2 139.9 -61.35 139.7 -61.15 127.45 -60.05 M150.1 -54.1 Q151.25 -51.25 152.85 -48.5 148.45 -48.45 144.9 -50.45 L150.1 -54.1 M148.6 -70.0 L142.8 -72.8 Q146.0 -75.45 150.35 -76.15 149.25 -73.1 148.6 -70.0" fill="#ffffd1" fill-rule="evenodd" stroke="none"/>
      <path d="M129.9 -58.2 L127.45 -60.05 139.7 -61.15 137.5 -58.75 136.4 -57.1 134.15 -54.45 129.9 -58.2" fill="#c2c28d" fill-rule="evenodd" stroke="none"/>
      <path d="M139.7 -61.15 L139.9 -61.35 137.7 -63.2 144.7 -61.55 144.75 -61.55 145.05 -61.5 137.5 -58.75 139.7 -61.15" fill="#666666" fill-rule="evenodd" stroke="none"/>
      <path d="M140.0 -50.75 L136.4 -57.1 137.5 -58.75 145.05 -61.5 144.75 -61.55 156.7 -62.7 156.9 -62.6 140.0 -50.75" fill="#b3b3b3" fill-rule="evenodd" stroke="none"/>
      <path d="M140.0 -50.75 L156.9 -62.6 156.7 -62.7 163.05 -63.25 154.55 -57.25 150.85 -54.65 150.1 -54.1 144.9 -50.45 141.6 -48.1 140.0 -50.75" fill="#777777" fill-rule="evenodd" stroke="none"/>
      <path d="M149.35 -69.75 Q151.95 -71.0 155.55 -71.15 154.4 -69.5 153.5 -67.7 L149.35 -69.75 M154.55 -57.25 L157.1 -54.35 150.85 -54.65 154.55 -57.25" fill="#e3e3ac" fill-rule="evenodd" stroke="none"/>
      <path d="M153.5 -67.7 L163.05 -63.25 156.7 -62.7 138.1 -71.6 139.2 -74.5 142.8 -72.8 148.6 -70.0 149.35 -69.75 153.5 -67.7" fill="#e1e1e1" fill-rule="evenodd" stroke="none"/>
      <path d="M45.5 -55.15 Q41.55 -59.65 41.35 -63.9 25.6 -61.3 6.7 -73.5 L14.85 -66.8 15.2 -66.45 17.5 -65.7 Q31.1 -60.65 39.95 -62.2 40.05 -58.7 43.55 -55.0 M17.5 -65.7 Q23.85 -58.6 25.15 -53.3 M20.1 -36.6 Q24.65 -43.85 25.4 -48.95 M45.3 -50.65 Q42.8 -46.2 43.3 -42.45 27.35 -42.25 10.85 -27.0 L17.7 -35.0 18.0 -35.4 20.1 -36.6 Q32.65 -43.85 41.65 -43.9 41.2 -46.95 43.3 -50.5 M149.35 -69.75 Q151.95 -71.0 155.55 -71.15 154.4 -69.5 153.5 -67.7 M154.55 -57.25 L157.1 -54.35 150.85 -54.65 M150.1 -54.1 Q151.25 -51.25 152.85 -48.5 148.45 -48.45 144.9 -50.45 M148.6 -70.0 Q149.25 -73.1 150.35 -76.15 146.0 -75.45 142.8 -72.8" fill="none" stroke="#000000" stroke-linecap="round" stroke-linejoin="round" stroke-opacity="0.4" stroke-width="1.0"/>
      <path d="M45.5 -55.15 L43.55 -55.0 25.15 -53.3 20.75 -52.9 21.05 -50.6 21.3 -48.35 25.4 -48.95 43.3 -50.5 45.3 -50.65 129.9 -58.2 127.45 -60.05 129.5 -62.8 45.5 -55.15 M139.7 -61.15 L139.9 -61.35 137.7 -63.2 135.55 -64.9 133.2 -67.15 129.5 -62.8 M138.1 -71.6 L135.55 -64.9 M140.0 -50.75 L136.4 -57.1 134.15 -54.45 129.9 -58.2 M137.5 -58.75 L136.4 -57.1 M139.7 -61.15 L137.5 -58.75 145.05 -61.5 144.75 -61.55 144.7 -61.55 137.7 -63.2 M153.5 -67.7 L163.05 -63.25 154.55 -57.25 150.85 -54.65 150.1 -54.1 144.9 -50.45 141.6 -48.1 140.0 -50.75 M148.6 -70.0 L149.35 -69.75 153.5 -67.7 M142.8 -72.8 L148.6 -70.0 M142.8 -72.8 L139.2 -74.5 138.1 -71.6" fill="none" stroke="#000000" stroke-linecap="round" stroke-linejoin="round" stroke-opacity="0.6627451" stroke-width="1.0"/>
      <path d="M-22.75 -58.2 L-22.35 -58.65 -21.35 -57.1 -21.25 -56.9 -18.2 -57.1 Q-10.1 -56.7 -3.1 -57.35 L-2.65 -57.45 -0.8 -57.7 2.3 -58.4 Q3.8 -58.85 4.0 -59.15 L4.3 -59.45 4.25 -59.75 4.25 -59.8 4.25 -60.0 4.15 -60.5 4.1 -61.6 4.05 -65.05 Q4.05 -66.9 7.55 -68.8 10.8 -70.6 15.65 -71.8 L20.6 -73.15 21.95 -73.35 24.0 -73.55 24.3 -73.55 Q27.3 -73.6 28.1 -72.35 L28.25 -71.95 28.75 -70.55 29.25 -68.45 29.25 -68.15 29.3 -67.6 29.3 -67.5 32.05 -67.65 Q36.45 -67.4 38.95 -65.95 41.2 -64.65 41.05 -63.1 L41.1 -57.4 Q41.1 -55.6 40.4 -53.5 L39.45 -51.55 Q46.45 -49.65 48.4 -47.65 49.55 -46.45 49.55 -43.15 49.55 -40.7 48.8 -38.5 48.15 -36.65 47.1 -35.55 L46.6 -35.3 46.3 -35.15 45.15 -35.1 43.15 -35.0 42.6 -35.0 39.2 -35.2 Q37.05 -35.25 35.4 -36.4 L34.3 -37.05 30.6 -36.95 29.8 -36.75 29.9 -36.2 42.2 -34.0 42.8 -33.85 Q46.8 -32.7 46.8 -27.65 46.8 -25.25 46.4 -23.75 46.15 -22.2 44.75 -20.7 L42.95 -20.4 41.75 -20.35 Q37.65 -20.45 33.8 -22.05 L33.65 -22.1 28.1 -23.5 27.2 -23.6 Q23.65 -23.55 21.0 -20.9 L12.4 -15.25 Q-1.3 -7.0 -17.7 -4.65 L-23.6 -4.35 -25.15 -4.35 Q-38.1 -4.35 -42.8 -7.65 L-43.35 -7.55 Q-48.8 -7.55 -54.75 -12.45 -59.2 -16.1 -59.95 -17.95 -62.5 -23.6 -62.75 -24.75 L-62.85 -29.95 Q-62.85 -39.45 -59.3 -47.35 -55.65 -55.55 -49.55 -58.95 L-49.2 -58.75 Q-49.05 -58.65 -49.05 -58.2 L-49.05 -58.05 -52.25 -54.7 Q-55.85 -50.15 -58.05 -44.05 -60.65 -36.65 -60.65 -29.8 -60.65 -18.6 -51.35 -13.4 -49.3 -12.25 -44.95 -10.65 L-44.9 -10.6 -45.15 -11.45 -45.2 -11.5 Q-46.6 -12.05 -48.15 -12.95 -51.95 -15.15 -51.95 -16.45 L-51.95 -16.55 Q-51.95 -21.1 -51.45 -22.75 L-50.6 -26.15 Q-49.85 -28.15 -48.8 -27.9 L-49.35 -26.3 -50.05 -23.55 -50.15 -21.4 -50.05 -19.35 -50.05 -19.2 Q-50.05 -16.1 -45.25 -14.25 -40.4 -12.45 -40.35 -11.45 L-40.55 -10.95 Q-40.75 -10.65 -41.35 -10.65 L-42.25 -10.7 Q-41.5 -10.15 -38.55 -8.65 -35.65 -7.15 -29.25 -6.95 -22.9 -6.75 -14.65 -7.35 -6.45 -7.95 9.8 -16.05 L21.0 -23.45 Q23.05 -25.85 26.2 -25.75 L28.1 -25.7 30.9 -24.85 33.8 -23.75 35.75 -23.05 Q39.2 -22.0 42.75 -22.1 L43.85 -22.2 Q45.2 -23.4 45.2 -25.55 L45.3 -27.6 45.05 -30.2 Q44.45 -31.65 42.5 -32.2 L41.5 -32.4 Q38.7 -32.8 34.2 -33.95 31.1 -34.7 29.85 -35.2 L29.8 -35.25 Q29.3 -35.45 29.15 -35.6 L29.05 -35.65 Q28.65 -36.0 28.65 -36.7 L28.65 -36.75 28.3 -36.75 28.15 -36.9 Q28.75 -37.75 30.9 -38.55 L31.6 -38.85 32.4 -39.05 32.45 -39.05 33.65 -39.15 35.7 -37.95 Q37.3 -37.2 39.2 -36.95 L42.2 -36.8 43.3 -36.8 45.65 -37.3 Q46.4 -38.15 46.85 -39.75 47.35 -41.4 47.35 -43.1 47.35 -45.0 47.15 -45.4 46.55 -46.4 43.65 -47.9 L43.6 -47.95 38.25 -49.6 36.15 -50.4 33.05 -51.05 31.5 -50.9 25.65 -48.45 21.65 -46.85 Q21.25 -46.95 21.1 -47.15 L23.6 -48.95 24.9 -49.75 24.9 -49.95 Q24.9 -51.6 25.25 -51.9 25.6 -52.3 28.25 -53.35 L27.85 -54.2 Q28.55 -54.3 29.05 -53.9 L29.75 -53.3 30.55 -52.85 30.9 -52.7 31.5 -52.8 33.55 -53.0 36.95 -52.5 37.7 -52.25 38.45 -53.9 39.4 -56.5 39.45 -61.0 Q39.45 -63.6 38.75 -64.3 38.0 -65.05 36.6 -65.5 33.75 -66.5 28.05 -66.5 L23.2 -66.0 18.45 -65.25 Q18.2 -65.35 17.9 -65.5 19.05 -66.35 20.55 -66.7 L26.65 -67.4 27.85 -67.45 Q27.55 -67.75 27.4 -68.35 27.25 -68.9 27.25 -69.75 27.0 -71.35 26.3 -71.65 L23.75 -71.8 23.45 -71.8 Q19.75 -71.7 14.0 -69.6 L7.45 -66.8 Q6.1 -66.15 5.75 -65.1 5.6 -64.7 5.6 -63.5 L5.5 -60.25 5.55 -59.9 5.6 -59.9 5.6 -59.6 5.6 -59.5 8.95 -60.75 8.0 -59.05 7.65 -58.55 6.0 -57.45 Q2.2 -55.95 -2.65 -55.15 L-3.1 -55.1 -14.25 -54.5 -18.2 -54.7 -19.15 -54.7 -28.0 -54.3 Q-34.05 -53.65 -38.55 -51.05 -43.1 -48.5 -47.2 -46.55 -44.4 -50.9 -39.8 -53.35 L-35.9 -55.25 Q-33.4 -56.15 -31.75 -56.25 L-22.6 -56.85 -22.8 -57.95 -22.75 -58.2 M25.85 -50.6 L26.0 -50.35 29.35 -52.05 28.75 -52.65 Q28.25 -52.2 26.85 -51.65 25.7 -51.1 25.85 -50.6" fill="#000000" fill-rule="evenodd" stroke="none"/>
      <path d="M-47.45 -58.1 L-39.2 -58.25 -28.65 -58.65 -25.45 -58.6 -22.75 -58.2 -22.8 -57.95 -22.6 -56.85 -31.75 -56.25 Q-33.4 -56.15 -35.9 -55.25 L-39.8 -53.35 Q-44.4 -50.9 -47.2 -46.55 -43.1 -48.5 -38.55 -51.05 -34.05 -53.65 -28.0 -54.3 L-19.15 -54.7 -18.2 -54.7 -14.25 -54.5 -3.1 -55.1 -2.65 -55.15 Q2.2 -55.95 6.0 -57.45 L7.65 -58.55 8.0 -59.05 8.95 -60.75 5.6 -59.5 5.6 -59.6 5.6 -59.9 5.55 -59.9 5.5 -60.25 5.6 -63.5 Q5.6 -64.7 5.75 -65.1 6.1 -66.15 7.45 -66.8 L14.0 -69.6 Q19.75 -71.7 23.45 -71.8 L24.5 -69.95 Q25.3 -68.2 26.65 -67.4 L20.55 -66.7 Q19.05 -66.35 17.9 -65.5 18.2 -65.35 18.45 -65.25 L23.2 -66.0 28.05 -66.5 Q33.75 -66.5 36.6 -65.5 L37.0 -65.15 Q37.65 -64.3 37.65 -58.95 L37.3 -55.25 36.95 -52.5 33.55 -53.0 31.5 -52.8 30.9 -52.7 30.55 -52.85 29.75 -53.3 29.05 -53.9 Q28.55 -54.3 27.85 -54.2 L28.25 -53.35 Q25.6 -52.3 25.25 -51.9 24.9 -51.6 24.9 -49.95 L24.9 -49.75 23.6 -48.95 21.1 -47.15 Q21.25 -46.95 21.65 -46.85 L25.65 -48.45 31.5 -50.9 33.05 -51.05 36.15 -50.4 38.25 -49.6 43.6 -47.95 43.65 -47.9 Q45.15 -46.5 45.15 -43.45 45.15 -41.95 43.65 -37.85 L43.3 -36.8 42.2 -36.8 39.2 -36.95 Q37.3 -37.2 35.7 -37.95 L33.65 -39.15 32.45 -39.05 32.4 -39.05 31.6 -38.85 30.9 -38.55 Q28.75 -37.75 28.15 -36.9 L28.3 -36.75 28.65 -36.75 28.65 -36.7 Q28.65 -36.0 29.05 -35.65 L29.15 -35.6 Q29.3 -35.45 29.8 -35.25 L29.85 -35.2 Q31.1 -34.7 34.2 -33.95 38.7 -32.8 41.5 -32.4 L42.5 -32.2 42.8 -30.5 43.4 -26.1 Q43.4 -23.9 42.85 -22.4 L42.75 -22.1 Q39.2 -22.0 35.75 -23.05 L33.8 -23.75 30.9 -24.85 28.1 -25.7 26.2 -25.75 Q23.05 -25.85 21.0 -23.45 L9.8 -16.05 Q-6.45 -7.95 -14.65 -7.35 -22.9 -6.75 -29.25 -6.95 -35.65 -7.15 -38.55 -8.65 -41.5 -10.15 -42.25 -10.7 L-41.35 -10.65 Q-40.75 -10.65 -40.55 -10.95 L-40.35 -11.45 Q-40.4 -12.45 -45.25 -14.25 -50.05 -16.1 -50.05 -19.2 L-50.05 -19.35 -50.15 -21.4 -50.05 -23.55 -49.35 -26.3 -48.8 -27.9 Q-49.85 -28.15 -50.6 -26.15 L-51.45 -22.75 Q-51.95 -21.1 -51.95 -16.55 -53.2 -17.65 -53.85 -18.7 L-57.25 -24.3 Q-57.6 -25.25 -57.6 -29.45 -57.6 -34.95 -57.0 -38.25 -56.25 -42.5 -54.1 -46.7 L-50.7 -53.75 Q-49.2 -56.45 -47.45 -58.1" fill="#999999" fill-rule="evenodd" stroke="none"/>
      <path d="M-49.05 -58.2 L-47.45 -58.1 Q-49.2 -56.45 -50.7 -53.75 L-54.1 -46.7 Q-56.25 -42.5 -57.0 -38.25 -57.6 -34.95 -57.6 -29.45 -57.6 -25.25 -57.25 -24.3 L-53.85 -18.7 Q-53.2 -17.65 -51.95 -16.55 L-51.95 -16.45 Q-51.95 -15.15 -48.15 -12.95 -46.6 -12.05 -45.2 -11.5 L-45.15 -11.45 -44.9 -10.6 -44.95 -10.65 Q-49.3 -12.25 -51.35 -13.4 -60.65 -18.6 -60.65 -29.8 -60.65 -36.65 -58.05 -44.05 -55.85 -50.15 -52.25 -54.7 L-49.05 -58.05 -49.05 -58.2 M23.45 -71.8 L23.75 -71.8 26.3 -71.65 Q27.0 -71.35 27.25 -69.75 27.25 -68.9 27.4 -68.35 27.55 -67.75 27.85 -67.45 L26.65 -67.4 Q25.3 -68.2 24.5 -69.95 L23.45 -71.8 M36.6 -65.5 Q38.0 -65.05 38.75 -64.3 39.45 -63.6 39.45 -61.0 L39.4 -56.5 38.45 -53.9 37.7 -52.25 36.95 -52.5 37.3 -55.25 37.65 -58.95 Q37.65 -64.3 37.0 -65.15 L36.6 -65.5 M43.65 -47.9 Q46.55 -46.4 47.15 -45.4 47.35 -45.0 47.35 -43.1 47.35 -41.4 46.85 -39.75 46.4 -38.15 45.65 -37.3 L43.3 -36.8 43.65 -37.85 Q45.15 -41.95 45.15 -43.45 45.15 -46.5 43.65 -47.9 M42.5 -32.2 Q44.45 -31.65 45.05 -30.2 L45.3 -27.6 45.2 -25.55 Q45.2 -23.4 43.85 -22.2 L42.75 -22.1 42.85 -22.4 Q43.4 -23.9 43.4 -26.1 L42.8 -30.5 42.5 -32.2" fill="#bdbdbd" fill-rule="evenodd" stroke="none"/>
    </g>
    <linearGradient gradientTransform="matrix(-0.0111, -0.0021, -0.0023, 0.012, 73.3, 35.1)" gradientUnits="userSpaceOnUse" id="gradient0" spreadMethod="pad" x1="-819.2" x2="819.2">
      <stop offset="0.0" stop-color="#cc479c"/>
      <stop offset="0.9882352941176471" stop-color="#e393c2"/>
    </linearGradient>
    <linearGradient gradientTransform="matrix(-0.0127, -0.0092, -0.022, 0.0304, 70.2, -176.05)" gradientUnits="userSpaceOnUse" id="gradient1" spreadMethod="pad" x1="-819.2" x2="819.2">
      <stop offset="0.0" stop-color="#4f0732"/>
      <stop offset="1.0" stop-color="#240316"/>
    </linearGradient>
    <linearGradient gradientTransform="matrix(0.0058, -0.0067, -0.0086, -0.0074, 100.75, -124.2)" gradientUnits="userSpaceOnUse" id="gradient2" spreadMethod="pad" x1="-819.2" x2="819.2">
      <stop offset="0.0" stop-color="#4f0732"/>
      <stop offset="1.0" stop-color="#240316"/>
    </linearGradient>
    <linearGradient gradientTransform="matrix(0.0072, 0.0062, 0.0074, -0.0086, 108.1, 14.25)" gradientUnits="userSpaceOnUse" id="gradient3" spreadMethod="pad" x1="-819.2" x2="819.2">
      <stop offset="0.0" stop-color="#4f0732"/>
      <stop offset="1.0" stop-color="#240316"/>
    </linearGradient>
    <linearGradient gradientTransform="matrix(-0.0135, 0.0157, 0.0285, 0.0246, 81.85, 66.55)" gradientUnits="userSpaceOnUse" id="gradient4" spreadMethod="pad" x1="-819.2" x2="819.2">
      <stop offset="0.0" stop-color="#4f0732"/>
      <stop offset="1.0" stop-color="#240316"/>
    </linearGradient>
    <linearGradient gradientTransform="matrix(-0.0122, -7.0E-4, 0.005, 0.0108, 32.4, -57.65)" gradientUnits="userSpaceOnUse" id="gradient5" spreadMethod="pad" x1="-819.2" x2="819.2">
      <stop offset="0.0" stop-color="#cc479c"/>
      <stop offset="0.9882352941176471" stop-color="#e393c2"/>
    </linearGradient>
    <linearGradient gradientTransform="matrix(-0.0119, 0.0028, 0.003, -0.0115, 33.4, -47.05)" gradientUnits="userSpaceOnUse" id="gradient6" spreadMethod="pad" x1="-819.2" x2="819.2">
      <stop offset="0.0" stop-color="#cc479c"/>
      <stop offset="0.9882352941176471" stop-color="#e393c2"/>
    </linearGradient>
  </defs>
</svg>
