<?xml version="1.0" encoding="UTF-8" standalone="no"?>
<svg xmlns:xlink="http://www.w3.org/1999/xlink" height="531.5px" width="460.6px" xmlns="http://www.w3.org/2000/svg">
  <g transform="matrix(1.0, 0.0, 0.0, 1.0, 193.65, 334.05)">
    <use height="99.8" transform="matrix(1.0, 0.0, 0.0, 1.0, -71.8, -58.25)" width="151.7" xlink:href="#shape0"/>
  </g>
  <defs>
    <g id="shape0" transform="matrix(1.0, 0.0, 0.0, 1.0, 71.8, 58.25)">
      <path d="M17.45 5.15 L23.1 5.15 35.9 4.0 Q36.75 5.45 38.35 12.75 L38.7 14.25 Q30.1 14.25 23.15 15.55 19.1 16.35 15.65 17.6 12.45 18.75 9.7 20.25 4.3 23.35 0.85 28.0 L-1.85 27.15 Q-8.05 25.15 -14.4 25.15 L-24.1 25.55 -28.25 25.15 Q-23.0 21.45 -18.05 20.85 -5.6 20.25 -2.2 18.05 5.1 14.35 10.1 9.65 13.2 5.8 17.45 5.15 M-10.15 6.9 Q-12.85 10.95 -37.85 12.85 L-40.9 13.1 -62.9 14.05 Q-63.95 9.55 -66.3 7.85 L-64.7 7.5 -61.45 7.5 -58.35 7.3 -45.45 6.6 -32.35 6.1 -18.85 6.5 -11.45 6.85 -10.15 6.9" fill="#a86a2b" fill-rule="evenodd" stroke="none"/>
      <path d="M17.45 5.15 Q13.2 5.8 10.1 9.65 5.1 14.35 -2.2 18.05 -5.6 20.25 -18.05 20.85 -23.0 21.45 -28.25 25.15 L-29.2 25.05 -35.7 24.55 -45.35 25.05 -51.15 25.55 -58.9 25.95 -66.0 26.35 -69.2 25.95 -65.0 19.8 -58.3 18.45 -64.0 17.35 -62.9 14.05 -40.9 13.1 -37.85 12.85 Q-12.85 10.95 -10.15 6.9 L-5.1 7.1 4.35 6.2 13.45 5.15 17.45 5.15" fill="#9b6227" fill-rule="evenodd" stroke="none"/>
      <path d="M0.85 28.0 Q4.3 23.35 9.7 20.25 12.45 18.75 15.65 17.6 19.1 16.35 23.15 15.55 30.1 14.25 38.7 14.25 40.05 20.4 40.05 22.5 40.05 25.35 39.05 27.35 37.85 29.7 35.65 29.7 L30.7 28.9 26.35 28.1 Q24.85 28.1 23.75 28.8 22.65 29.5 21.0 29.5 L16.25 29.0 12.55 28.5 9.85 28.8 9.45 28.9 7.3 29.1 2.6 28.5 0.85 28.0" fill="#a8762b" fill-rule="evenodd" stroke="none"/>
      <path d="M-62.9 14.05 L-64.0 17.35 -58.3 18.45 -65.0 19.8 -69.2 25.95 Q-70.0 25.45 -70.5 24.55 -69.05 23.9 -67.05 20.3 -65.05 16.7 -64.65 14.95 -64.2 13.25 -64.65 12.95 -65.1 12.65 -65.25 12.7 -65.95 12.7 -66.55 13.0 -67.5 13.7 -68.1 15.2 L-69.8 19.35 Q-70.55 21.3 -69.95 21.35 L-69.4 21.15 Q-68.4 20.35 -67.0 17.5 -65.8 15.1 -66.75 15.6 -65.8 15.1 -67.0 17.5 -68.4 20.35 -69.4 21.15 L-69.95 21.35 Q-70.55 21.3 -69.8 19.35 L-68.1 15.2 Q-67.5 13.7 -66.55 13.0 -65.95 12.7 -65.25 12.7 -65.1 12.65 -64.65 12.95 -64.2 13.25 -64.65 14.95 -65.05 16.7 -67.05 20.3 -69.05 23.9 -70.5 24.55 L-71.3 22.2 Q-69.45 14.7 -66.3 7.85 -63.95 9.55 -62.9 14.05" fill="#bc8651" fill-rule="evenodd" stroke="none"/>
      <path d="M38.7 14.25 L38.35 12.75 Q36.75 5.45 35.9 4.0 L23.1 5.15 17.45 5.15 13.45 5.15 4.35 6.2 -5.1 7.1 -10.15 6.9 -11.45 6.85 -18.85 6.5 -32.35 6.1 -45.45 6.6 -58.35 7.3 -61.45 7.5 -64.7 7.5 -66.3 7.85 Q-63.95 9.55 -62.9 14.05 L-64.0 17.35 -58.3 18.45 -65.0 19.8 -69.2 25.95 -66.0 26.35 -58.9 25.95 -51.15 25.55 -45.35 25.05 -35.7 24.55 -29.2 25.05 -28.25 25.15 -24.1 25.55 -14.4 25.15 Q-8.05 25.15 -1.85 27.15 L0.85 28.0 2.6 28.5 7.3 29.1 9.45 28.9 9.85 28.8 12.55 28.5 16.25 29.0 21.0 29.5 Q22.65 29.5 23.75 28.8 24.85 28.1 26.35 28.1 L30.7 28.9 35.65 29.7 Q37.85 29.7 39.05 27.35 40.05 25.35 40.05 22.5 40.05 20.4 38.7 14.25 M-70.5 24.55 Q-70.0 25.45 -69.2 25.95 M-66.3 7.85 Q-69.45 14.7 -71.3 22.2 L-70.5 24.55" fill="none" stroke="#000000" stroke-linecap="round" stroke-linejoin="round" stroke-opacity="0.4509804" stroke-width="1.0"/>
      <path d="M17.45 5.15 Q13.2 5.8 10.1 9.65 5.1 14.35 -2.2 18.05 -5.6 20.25 -18.05 20.85 -23.0 21.45 -28.25 25.15 M0.85 28.0 Q4.3 23.35 9.7 20.25 12.45 18.75 15.65 17.6 M23.15 15.55 Q30.1 14.25 38.7 14.25 M-10.15 6.9 Q-12.85 10.95 -37.85 12.85 M-40.9 13.1 L-62.9 14.05 M-70.5 24.55 Q-69.05 23.9 -67.05 20.3 -65.05 16.7 -64.65 14.95 -64.2 13.25 -64.65 12.95 -65.1 12.65 -65.25 12.7 -65.95 12.7 -66.55 13.0 -67.5 13.7 -68.1 15.2 L-69.8 19.35 Q-70.55 21.3 -69.95 21.35 L-69.4 21.15 Q-68.4 20.35 -67.0 17.5 -65.8 15.1 -66.75 15.6" fill="none" stroke="#000000" stroke-linecap="round" stroke-linejoin="round" stroke-opacity="0.18039216" stroke-width="1.0"/>
      <path d="M38.35 12.75 L38.65 14.25 Q40.0 20.4 40.0 22.5 40.0 25.35 39.0 27.35 37.85 29.7 35.65 29.7 L30.65 28.95 26.35 28.15 Q24.85 28.15 23.75 28.85 22.65 29.55 20.95 29.55 L16.25 29.05 12.55 28.55 9.85 28.85 9.45 28.9 Q8.85 27.35 8.85 25.45 8.85 23.1 9.7 20.3 11.0 15.85 14.3 10.15 L17.45 5.15 23.05 5.15 35.85 4.0 Q36.7 5.45 38.35 12.75" fill="#000000" fill-opacity="0.16862746" fill-rule="evenodd" stroke="none"/>
      <path d="M30.25 4.25 L30.5 1.3 Q30.5 -1.2 29.2 -4.05 L28.7 -5.05 29.25 -5.6 29.45 -5.55 30.3 -5.35 Q30.85 -5.35 32.4 -6.65 33.75 -7.7 34.75 -7.9 L35.15 -7.95 Q36.45 -7.95 37.0 -7.35 37.6 -6.7 37.6 -5.05 L37.5 -3.7 37.4 -2.0 37.6 -2.1 37.8 -2.2 39.25 -4.8 40.8 -7.15 41.0 -5.45 41.2 -3.6 41.4 -3.6 Q41.5 -5.05 43.3 -6.05 44.2 -6.5 45.25 -6.75 48.55 -5.6 51.3 -4.15 L56.15 -7.9 58.75 -8.35 Q60.35 -8.35 61.2 -7.15 62.0 -6.05 62.0 -4.35 L61.9 -3.5 61.8 -2.6 62.1 -2.6 62.85 -2.8 63.6 -3.0 Q67.85 -3.0 71.35 -0.05 L71.65 1.15 Q71.65 2.15 70.6 3.6 L69.05 5.45 Q70.05 4.65 70.6 4.3 71.7 3.45 72.65 3.45 74.15 3.45 75.4 5.65 76.45 7.5 76.5 9.1 L76.5 9.2 Q76.35 11.25 71.55 13.65 L73.8 13.65 76.5 14.05 75.5 17.0 Q74.65 18.55 72.9 18.8 L72.8 19.0 72.7 19.2 73.85 19.6 Q74.3 19.9 74.3 20.4 74.3 21.75 73.3 23.0 72.2 24.4 70.55 24.4 L68.2 24.05 66.0 23.6 68.35 24.85 Q69.95 25.8 69.95 26.65 L69.15 27.55 68.35 28.35 68.45 28.6 68.55 29.05 Q68.55 29.5 68.0 29.85 56.15 16.4 48.35 -1.0 L51.3 -4.15 48.35 -1.0 Q56.15 16.4 68.0 29.85 L66.1 30.55 Q64.5 30.55 62.0 29.35 L63.05 31.2 Q63.8 32.55 63.8 33.0 63.8 33.65 60.6 36.3 57.3 39.05 56.05 39.05 L53.75 38.65 52.1 37.85 Q52.05 38.25 52.3 38.75 L52.9 39.85 52.3 39.85 Q51.65 39.85 50.8 39.15 L48.9 37.85 48.9 38.65 47.9 38.25 46.95 37.65 46.55 37.65 46.6 39.4 Q41.8 38.0 37.35 35.35 L37.0 35.15 36.9 35.1 36.5 34.8 35.0 35.1 33.6 34.6 32.05 33.8 32.05 33.95 32.4 34.6 32.95 35.45 32.95 36.65 32.35 36.65 30.0 35.65 29.4 35.05 28.85 34.55 Q26.2 32.3 23.55 32.5 21.6 32.65 21.1 31.5 20.7 29.95 20.0 29.15 19.3 28.35 17.6 27.8 L16.55 27.55 15.6 24.75 Q16.4 20.35 17.55 15.9 18.95 15.85 20.3 15.1 22.35 13.9 22.35 12.1 L22.05 11.15 21.8 10.6 21.8 10.3 Q26.0 10.9 28.3 8.4 L28.5 8.15 Q28.85 9.3 29.95 10.05 31.05 10.8 31.9 10.8 L32.75 10.65 33.8 9.65 35.0 8.6 Q35.45 8.0 35.1 6.75 34.45 4.55 33.5 4.05 L31.7 3.85 30.25 4.25 M42.2 4.85 Q42.9 4.85 43.5 4.15 44.1 3.5 44.2 2.65 44.6 0.5 42.15 0.5 L41.05 0.7 Q40.1 1.2 40.1 2.65 40.1 3.8 41.0 4.4 41.6 4.85 42.2 4.85 M42.5 24.1 L41.3 24.35 Q40.3 25.1 40.3 27.35 40.3 28.25 40.85 28.7 41.25 29.05 41.9 29.05 43.3 29.05 44.15 28.25 44.9 27.55 44.95 26.55 45.0 25.55 44.35 24.85 43.7 24.1 42.5 24.1 M43.9 33.3 Q43.9 34.05 44.4 34.45 44.85 34.8 45.55 34.8 47.65 34.8 47.85 33.0 47.9 32.3 47.55 31.75 47.05 31.2 46.25 31.2 L45.05 31.7 Q43.9 32.4 43.9 33.3 M52.9 22.3 L52.1 22.35 Q51.25 22.45 50.55 22.8 48.45 23.8 48.45 26.55 48.45 28.45 50.15 29.5 51.4 30.2 52.6 30.2 54.25 30.2 55.2 29.0 56.05 27.85 56.1 26.25 56.15 24.65 55.35 23.55 54.45 22.3 52.9 22.3 M28.8 12.1 Q28.15 11.4 27.05 11.4 L25.85 11.65 Q24.65 12.15 24.65 13.55 24.65 14.75 25.85 15.45 26.65 15.95 27.35 15.95 28.25 15.95 28.8 15.25 29.35 14.6 29.35 13.65 29.35 12.75 28.8 12.1 M21.65 24.45 L20.85 24.65 Q20.1 25.05 20.1 25.95 20.1 26.65 20.8 27.2 L22.0 27.65 Q23.5 27.65 23.4 26.05 23.35 24.45 21.65 24.45 M33.05 21.35 Q35.4 17.25 37.7 13.6 L39.3 11.1 37.7 13.6 Q35.4 17.25 33.05 21.35 M31.05 30.2 L32.3 31.45 29.4 35.05 32.3 31.45 31.05 30.2 M32.3 31.45 L36.5 34.8 32.3 31.45 M46.2 1.55 L48.35 -1.0 46.2 1.55 M37.7 13.6 Q37.05 2.4 34.75 -7.9 37.05 2.4 37.7 13.6" fill="#e2c790" fill-rule="evenodd" stroke="none"/>
      <path d="M34.75 -7.9 Q33.75 -7.7 32.4 -6.65 30.85 -5.35 30.3 -5.35 L29.45 -5.55 29.25 -5.6 34.05 -9.45 34.4 -9.4 Q40.45 -8.4 45.25 -6.75 44.2 -6.5 43.3 -6.05 41.5 -5.05 41.4 -3.6 L41.2 -3.6 41.0 -5.45 40.8 -7.15 39.25 -4.8 37.8 -2.2 37.6 -2.1 37.4 -2.0 37.5 -3.7 37.6 -5.05 Q37.6 -6.7 37.0 -7.35 36.45 -7.95 35.15 -7.95 L34.75 -7.9 34.4 -9.4 34.75 -7.9 M56.15 -7.9 L58.65 -9.8 Q72.5 -5.1 79.4 10.35 76.6 21.45 68.5 30.4 63.3 36.15 55.85 41.05 51.05 40.75 46.6 39.4 L46.55 37.65 46.95 37.65 47.9 38.25 48.9 38.65 48.9 37.85 50.8 39.15 Q51.65 39.85 52.3 39.85 L52.9 39.85 52.3 38.75 Q52.05 38.25 52.1 37.85 L53.75 38.65 56.05 39.05 Q57.3 39.05 60.6 36.3 63.8 33.65 63.8 33.0 63.8 32.55 63.05 31.2 L62.0 29.35 Q64.5 30.55 66.1 30.55 L68.0 29.85 Q68.55 29.5 68.55 29.05 L68.45 28.6 68.35 28.35 69.15 27.55 69.95 26.65 Q69.95 25.8 68.35 24.85 L66.0 23.6 68.2 24.05 70.55 24.4 Q72.2 24.4 73.3 23.0 74.3 21.75 74.3 20.4 74.3 19.9 73.85 19.6 L72.7 19.2 72.8 19.0 72.9 18.8 Q74.65 18.55 75.5 17.0 L76.5 14.05 73.8 13.65 71.55 13.65 Q76.35 11.25 76.5 9.2 L76.5 9.1 Q76.45 7.5 75.4 5.65 74.15 3.45 72.65 3.45 71.7 3.45 70.6 4.3 70.05 4.65 69.05 5.45 L70.6 3.6 Q71.65 2.15 71.65 1.15 L71.35 -0.05 Q67.85 -3.0 63.6 -3.0 L62.85 -2.8 62.1 -2.6 61.8 -2.6 61.9 -3.5 62.0 -4.35 Q62.0 -6.05 61.2 -7.15 60.35 -8.35 58.75 -8.35 L56.15 -7.9 M36.9 35.1 L36.6 34.9 Q34.6 37.1 31.45 38.35 L30.05 38.85 30.4 37.5 30.3 36.6 29.9 35.65 30.0 35.65 32.35 36.65 32.95 36.65 32.95 35.45 32.4 34.6 32.05 33.95 32.05 33.8 33.6 34.6 35.0 35.1 36.5 34.8 36.9 35.1 M68.5 30.4 L68.0 29.85 68.5 30.4" fill="#6b5936" fill-rule="evenodd" stroke="none"/>
      <path d="M28.7 -5.05 L29.2 -4.05 Q30.5 -1.2 30.5 1.3 L30.25 4.25 30.05 4.3 Q28.4 5.15 28.4 7.25 L28.5 8.15 28.3 8.4 Q26.0 10.9 21.8 10.3 L21.8 10.6 22.05 11.15 22.35 12.1 Q22.35 13.9 20.3 15.1 18.95 15.85 17.55 15.9 19.4 8.85 22.15 1.5 25.35 -2.05 28.7 -5.05 M30.05 38.85 L25.5 39.75 Q19.45 34.8 16.55 27.55 L17.6 27.8 Q19.3 28.35 20.0 29.15 20.7 29.95 21.1 31.5 21.6 32.65 23.55 32.5 26.2 32.3 28.85 34.55 L29.4 35.05 30.0 35.65 29.9 35.65 30.3 36.6 30.4 37.5 30.05 38.85 M42.2 4.85 Q41.6 4.85 41.0 4.4 40.1 3.8 40.1 2.65 40.1 1.2 41.05 0.7 L42.15 0.5 Q44.6 0.5 44.2 2.65 44.1 3.5 43.5 4.15 42.9 4.85 42.2 4.85 M28.8 12.1 Q29.35 12.75 29.35 13.65 29.35 14.6 28.8 15.25 28.25 15.95 27.35 15.95 26.65 15.95 25.85 15.45 24.65 14.75 24.65 13.55 24.65 12.15 25.85 11.65 L27.05 11.4 Q28.15 11.4 28.8 12.1 M25.5 39.75 L29.4 35.05 25.5 39.75" fill="#c6ac78" fill-rule="evenodd" stroke="none"/>
      <path d="M42.5 24.1 Q43.7 24.1 44.35 24.85 45.0 25.55 44.95 26.55 44.9 27.55 44.15 28.25 43.3 29.05 41.9 29.05 41.25 29.05 40.85 28.7 40.3 28.25 40.3 27.35 40.3 25.1 41.3 24.35 L42.5 24.1" fill="#b7b16f" fill-rule="evenodd" stroke="none"/>
      <path d="M28.5 8.15 L28.4 7.25 Q28.4 5.15 30.05 4.3 L30.25 4.25 31.7 3.85 33.5 4.05 Q34.45 4.55 35.1 6.75 35.45 8.0 35.0 8.6 L33.8 9.65 32.75 10.65 31.9 10.8 Q31.05 10.8 29.95 10.05 28.85 9.3 28.5 8.15 M52.9 22.3 Q54.45 22.3 55.35 23.55 56.15 24.65 56.1 26.25 56.05 27.85 55.2 29.0 54.25 30.2 52.6 30.2 51.4 30.2 50.15 29.5 48.45 28.45 48.45 26.55 48.45 23.8 50.55 22.8 51.25 22.45 52.1 22.35 L52.9 22.3 M43.9 33.3 Q43.9 32.4 45.05 31.7 L46.25 31.2 Q47.05 31.2 47.55 31.75 47.9 32.3 47.85 33.0 47.65 34.8 45.55 34.8 44.85 34.8 44.4 34.45 43.9 34.05 43.9 33.3 M21.65 24.45 Q23.35 24.45 23.4 26.05 23.5 27.65 22.0 27.65 L20.8 27.2 Q20.1 26.65 20.1 25.95 20.1 25.05 20.85 24.65 L21.65 24.45" fill="#ccc57c" fill-rule="evenodd" stroke="none"/>
      <path d="M28.7 -5.05 Q25.35 -2.05 22.15 1.5 19.4 8.85 17.55 15.9 16.4 20.35 15.6 24.75 L16.55 27.55 Q19.45 34.8 25.5 39.75 L30.05 38.85 31.45 38.35 Q34.6 37.1 36.6 34.9 L36.9 35.1 36.5 34.8 32.3 31.45 31.05 30.2 M29.25 -5.6 L28.7 -5.05 M29.25 -5.6 L34.05 -9.45 34.4 -9.4 Q40.45 -8.4 45.25 -6.75 48.55 -5.6 51.3 -4.15 L56.15 -7.9 58.65 -9.8 Q72.5 -5.1 79.4 10.35 76.6 21.45 68.5 30.4 63.3 36.15 55.85 41.05 51.05 40.75 46.6 39.4 41.8 38.0 37.35 35.35 L37.0 35.15 36.9 35.1 M34.4 -9.4 L34.75 -7.9 Q37.05 2.4 37.7 13.6 35.4 17.25 33.05 21.35 M68.0 29.85 L68.5 30.4 M51.3 -4.15 L48.35 -1.0 Q56.15 16.4 68.0 29.85 M39.3 11.1 L37.7 13.6 M29.4 35.05 L32.3 31.45 M29.4 35.05 L25.5 39.75 M48.35 -1.0 L46.2 1.55" fill="none" stroke="#000000" stroke-linecap="round" stroke-linejoin="round" stroke-opacity="0.3019608" stroke-width="1.0"/>
      <path d="M-53.35 -57.55 L-53.35 -57.1 -53.35 -57.05 Q-53.05 -57.55 -53.55 -56.3 L-54.95 -53.1 -58.0 -46.3 Q-61.9 -37.5 -64.1 -31.2 -66.35 -25.0 -67.9 -19.2 -68.6 -16.85 -68.8 -14.45 L-69.25 -7.8 Q-69.5 -3.55 -68.5 2.0 L-66.0 14.8 Q-64.45 22.05 -63.35 25.15 -62.35 28.0 -60.7 30.25 L-60.5 30.5 -59.0 31.9 Q-57.4 32.85 -54.9 33.2 L-54.6 33.25 -55.1 32.5 Q-56.0 31.05 -56.0 30.05 L-55.65 29.25 Q-55.4 28.9 -52.6 32.95 -49.85 37.0 -47.0 36.95 -44.2 36.85 -42.55 35.6 L-41.75 35.1 -41.2 34.8 -41.1 34.75 -41.15 34.7 -41.3 34.1 -41.35 33.8 -41.2 32.75 -40.9 32.5 -38.4 34.85 Q-36.2 36.25 -34.4 36.7 L-34.35 36.7 -32.85 36.95 -32.35 36.95 Q-30.55 36.9 -29.5 36.35 L-28.05 35.3 -27.2 34.35 -26.45 33.45 Q-25.7 32.5 -24.8 29.3 -23.95 26.1 -24.1 25.4 L-24.1 25.1 -23.9 25.1 -23.6 25.05 -23.15 24.95 -22.45 24.9 -22.4 26.05 Q-22.6 27.95 -23.5 30.8 L-24.5 33.0 -25.55 35.05 -27.05 37.1 -27.6 37.75 Q-30.0 39.2 -32.15 39.3 L-32.2 39.3 -32.4 39.3 Q-36.2 39.25 -39.05 37.05 L-39.4 36.75 Q-40.05 37.15 -41.0 37.6 -43.95 39.1 -45.65 39.1 L-45.95 39.1 Q-47.5 39.05 -48.95 38.4 -51.2 37.45 -53.2 35.1 L-53.2 35.05 -53.4 35.15 -53.85 35.25 -54.9 35.3 Q-62.3 35.3 -65.4 24.8 L-66.85 19.5 -68.1 13.85 -69.8 3.35 Q-71.1 -4.1 -71.1 -7.75 -71.1 -11.45 -69.75 -17.25 -68.4 -23.1 -60.9 -42.8 -54.05 -60.95 -53.4 -57.75 L-53.35 -57.55 M-22.95 -3.05 L-23.15 -3.6 Q-23.85 -5.0 -24.3 -7.45 L-24.8 -11.3 Q-24.8 -12.6 -24.05 -15.85 L-23.45 -18.35 Q-22.3 -22.0 -20.15 -27.0 L-14.05 -40.8 -13.9 -41.2 -13.35 -40.85 -13.2 -40.7 Q-12.9 -40.3 -12.9 -39.45 -15.55 -34.45 -18.15 -28.35 -23.4 -16.25 -23.4 -10.35 L-22.9 -6.45 -22.45 -4.65 -22.35 -4.4 -20.05 -4.7 -17.7 -4.4 -16.9 -3.0 Q-15.55 -0.35 -15.0 2.65 L-14.85 3.3 Q-14.5 5.0 -14.5 5.6 -14.5 6.5 -15.1 6.75 L-17.0 7.2 -17.45 7.25 Q-19.2 7.5 -20.95 8.45 -22.75 9.35 -23.2 11.1 -23.75 12.8 -23.95 15.4 L-24.05 16.8 -24.1 17.1 -24.4 18.95 -24.55 20.6 Q-24.85 23.35 -25.5 25.0 L-25.6 25.2 -25.6 25.25 -26.05 26.05 -26.85 26.9 -26.95 26.65 -27.0 26.35 -27.15 25.45 -26.5 23.2 -25.9 20.8 -25.95 20.85 -25.8 20.0 -25.85 19.6 -25.85 17.1 -25.85 16.35 -25.85 15.45 -25.0 9.8 -24.9 9.45 -24.0 8.2 -22.9 7.35 -22.35 7.0 Q-21.05 6.25 -19.7 5.8 L-17.8 5.3 -17.15 5.2 -17.15 5.15 -16.55 4.9 Q-16.3 4.7 -16.3 4.25 L-16.7 2.7 -16.85 2.4 -17.7 -0.25 -17.75 -0.4 -18.55 -2.25 Q-19.05 -3.05 -19.75 -3.05 L-21.5 -3.0 -22.95 -3.05" fill="#000000" fill-rule="evenodd" stroke="none"/>
      <path d="M-59.0 31.9 L-60.5 30.5 -60.7 30.25 Q-62.35 28.0 -63.35 25.15 -64.45 22.05 -66.0 14.8 L-68.5 2.0 Q-69.5 -3.55 -69.25 -7.8 L-68.8 -14.45 Q-68.6 -16.85 -67.9 -19.2 -66.35 -25.0 -64.1 -31.2 -61.9 -37.5 -58.0 -46.3 L-54.95 -53.1 -53.55 -56.3 Q-53.05 -57.55 -53.35 -57.05 L-53.35 -57.1 -53.35 -57.55 -53.15 -57.55 -52.05 -57.6 -52.1 -57.5 -53.65 -53.5 -55.75 -48.35 Q-59.35 -39.15 -61.4 -32.55 -63.5 -26.05 -64.95 -20.0 -65.65 -17.55 -65.8 -15.0 L-66.35 -8.05 Q-66.6 -3.6 -65.75 2.2 L-63.65 15.55 Q-62.35 23.15 -61.45 26.4 L-60.15 29.85 -59.0 31.9 M-23.9 25.1 L-24.1 25.1 -24.1 25.4 Q-23.95 26.1 -24.8 29.3 -25.7 32.5 -26.45 33.45 L-27.2 34.35 Q-26.85 32.3 -26.85 29.8 L-26.95 26.65 -26.85 26.9 -26.05 26.05 -25.6 25.25 -24.25 25.25 -24.25 25.2 -24.1 25.0 -24.05 25.05 -23.9 25.1 M-41.3 34.1 L-41.15 34.7 -41.1 34.75 -41.2 34.8 -41.75 35.1 -41.6 34.4 -41.6 34.35 -41.55 34.3 -41.35 34.1 -41.3 34.1 M-14.05 -40.8 L-20.15 -27.0 Q-22.3 -22.0 -23.45 -18.35 L-24.05 -15.85 Q-24.8 -12.6 -24.8 -11.3 L-24.3 -7.45 Q-23.85 -5.0 -23.15 -3.6 L-22.95 -3.05 -24.7 -3.1 -24.9 -3.65 Q-25.55 -5.15 -25.9 -7.7 L-26.3 -11.75 Q-26.3 -13.1 -25.55 -16.5 L-25.0 -19.1 -21.95 -28.15 -16.05 -43.4 -14.05 -40.8 M-21.5 -3.0 L-19.75 -3.05 Q-19.05 -3.05 -18.55 -2.25 L-17.75 -0.4 -17.7 -0.25 -16.85 2.4 -16.7 2.7 -16.3 4.25 Q-16.3 4.7 -16.55 4.9 L-17.15 5.15 -17.15 5.2 -17.8 5.3 -19.7 5.8 -20.05 5.65 -19.6 5.55 -19.6 5.5 -19.1 5.2 -18.9 4.9 -18.85 4.55 -19.25 2.9 -19.3 2.6 -20.1 -0.15 -20.1 -0.35 -20.8 -2.25 -21.5 -3.0 M-24.9 9.45 L-25.0 9.8 -25.85 15.45 -25.85 16.35 -25.85 17.1 -25.85 19.6 -25.8 20.0 -25.95 20.85 -25.9 20.8 -26.5 23.2 -27.15 25.45 -27.0 26.35 -27.3 26.35 Q-27.85 26.35 -27.95 24.55 L-27.95 21.75 -27.75 17.8 -27.25 12.95 Q-27.05 11.4 -25.45 9.9 L-24.9 9.45" fill="#bdbdbd" fill-rule="evenodd" stroke="none"/>
      <path d="M-27.2 34.35 L-28.05 35.3 -29.5 36.35 Q-30.55 36.9 -32.35 36.95 L-32.85 36.95 -34.35 36.7 -34.4 36.7 Q-36.2 36.25 -38.4 34.85 L-40.9 32.5 -41.2 32.75 -41.35 33.8 -41.3 34.1 -41.35 34.1 -41.55 34.3 -41.6 34.35 -41.6 34.4 -41.75 35.1 -42.55 35.6 Q-44.2 36.85 -47.0 36.95 -49.85 37.0 -52.6 32.95 -55.4 28.9 -55.65 29.25 L-56.0 30.05 Q-56.0 31.05 -55.1 32.5 L-54.6 33.25 -54.9 33.2 Q-57.4 32.85 -59.0 31.9 L-60.15 29.85 -61.45 26.4 Q-62.35 23.15 -63.65 15.55 L-65.75 2.2 Q-66.6 -3.6 -66.35 -8.05 L-65.8 -15.0 Q-65.65 -17.55 -64.95 -20.0 -63.5 -26.05 -61.4 -32.55 -59.35 -39.15 -55.75 -48.35 L-53.65 -53.5 -52.1 -57.5 -52.05 -57.6 Q-27.95 -57.9 -16.05 -43.4 L-21.95 -28.15 -25.0 -19.1 -25.55 -16.5 Q-26.3 -13.1 -26.3 -11.75 L-25.9 -7.7 Q-25.55 -5.15 -24.9 -3.65 L-24.7 -3.1 -22.95 -3.05 -21.5 -3.0 -20.8 -2.25 -20.1 -0.35 -20.1 -0.15 -19.3 2.6 -19.25 2.9 -18.85 4.55 -18.9 4.9 -19.1 5.2 -19.6 5.5 -19.6 5.55 -20.05 5.65 -19.7 5.8 Q-21.05 6.25 -22.35 7.0 L-22.9 7.35 -24.0 8.2 -24.9 9.45 -25.45 9.9 Q-27.05 11.4 -27.25 12.95 L-27.75 17.8 -27.95 21.75 -27.95 24.55 Q-27.85 26.35 -27.3 26.35 L-27.0 26.35 -26.95 26.65 -26.85 29.8 Q-26.85 32.3 -27.2 34.35" fill="#999999" fill-rule="evenodd" stroke="none"/>
    </g>
  </defs>
</svg>
