<?xml version="1.0" encoding="UTF-8" standalone="no"?>
<svg xmlns:xlink="http://www.w3.org/1999/xlink" height="531.5px" width="460.6px" xmlns="http://www.w3.org/2000/svg">
  <g transform="matrix(1.0, 0.0, 0.0, 1.0, 193.65, 334.05)">
    <use height="72.4" transform="matrix(1.0, 0.0, 0.0, 1.0, -50.9, -79.55)" width="178.1" xlink:href="#shape0"/>
  </g>
  <defs>
    <g id="shape0" transform="matrix(1.0, 0.0, 0.0, 1.0, 50.9, 79.55)">
      <path d="M55.35 -63.1 L74.7 -60.1 Q74.1 -58.55 72.55 -56.9 L70.25 -57.2 64.6 -57.85 64.15 -58.75 Q63.7 -59.4 62.85 -59.55 62.0 -59.7 61.25 -59.2 L60.65 -58.45 50.2 -60.05 39.35 -59.7 38.15 -59.35 38.55 -59.7 Q39.1 -60.25 39.25 -61.1 L39.0 -62.65 Q38.65 -63.3 38.0 -63.4 37.3 -63.45 36.75 -62.95 36.2 -62.4 36.05 -61.55 35.95 -60.7 36.3 -60.1 36.65 -59.35 37.35 -59.25 L37.65 -59.2 Q34.6 -58.25 32.6 -56.45 L32.95 -58.25 Q33.85 -62.25 35.75 -66.1 L43.85 -64.85 51.1 -63.7 55.35 -63.1 M80.05 -59.25 L98.1 -56.5 105.3 -55.45 113.5 -54.15 Q113.9 -50.6 113.7 -47.0 112.55 -47.5 111.55 -48.0 L112.1 -48.4 Q112.65 -48.9 112.85 -49.75 112.95 -50.6 112.55 -51.35 112.2 -51.95 111.5 -52.1 110.8 -52.2 110.25 -51.7 109.7 -51.1 109.6 -50.25 109.45 -49.5 109.75 -48.9 L104.55 -51.2 Q98.75 -53.35 90.05 -54.7 L90.0 -54.8 Q89.5 -55.45 88.65 -55.55 L87.05 -55.25 86.9 -55.15 77.1 -56.35 78.75 -58.0 80.05 -59.25" fill="#008a8f" fill-rule="evenodd" stroke="none"/>
      <path d="M58.2 -67.5 L55.35 -63.1 51.1 -63.7 52.55 -65.6 54.55 -68.05 58.2 -67.5" fill="#4c9990" fill-rule="evenodd" stroke="none"/>
      <path d="M54.55 -68.05 L52.55 -65.6 51.1 -63.7 43.85 -64.85 47.0 -69.25 54.55 -68.05" fill="#11523e" fill-rule="evenodd" stroke="none"/>
      <path d="M55.35 -63.1 L58.2 -67.5 62.0 -66.95 88.6 -62.85 97.4 -61.45 Q97.2 -60.15 97.6 -58.4 L98.1 -56.5 80.05 -59.25 74.7 -60.1 55.35 -63.1" fill="#092e24" fill-rule="evenodd" stroke="none"/>
      <path d="M60.65 -58.45 L60.45 -57.8 Q60.35 -56.95 60.8 -56.3 61.35 -55.6 62.2 -55.5 63.05 -55.3 63.7 -55.85 64.45 -56.35 64.55 -57.2 L64.6 -57.85 70.25 -57.2 72.55 -56.9 Q70.3 -54.5 66.2 -51.9 59.85 -47.85 53.75 -46.4 L32.05 -49.75 Q32.0 -53.2 32.6 -56.45 34.6 -58.25 37.65 -59.2 L38.15 -59.35 39.35 -59.7 50.2 -60.05 60.65 -58.45 M75.65 -43.05 L73.8 -44.25 Q71.4 -46.45 71.75 -48.8 71.9 -49.75 73.05 -51.65 74.25 -53.6 75.2 -54.55 L77.1 -56.35 86.9 -55.15 Q86.35 -54.6 86.25 -53.85 86.15 -53.0 86.6 -52.3 87.15 -51.65 88.0 -51.5 88.85 -51.35 89.55 -51.85 90.25 -52.35 90.4 -53.2 90.5 -54.05 90.05 -54.7 98.75 -53.35 104.55 -51.2 L109.75 -48.9 109.8 -48.75 Q110.2 -48.1 110.9 -48.0 L111.55 -48.0 Q112.55 -47.5 113.7 -47.0 L113.6 -45.95 Q113.3 -41.7 112.1 -37.45 L75.65 -43.05" fill="#00665f" fill-rule="evenodd" stroke="none"/>
      <path d="M64.6 -57.85 L64.55 -57.2 Q64.45 -56.35 63.7 -55.85 63.05 -55.3 62.2 -55.5 61.35 -55.6 60.8 -56.3 60.35 -56.95 60.45 -57.8 L60.65 -58.45 61.25 -59.2 Q62.0 -59.7 62.85 -59.55 63.7 -59.4 64.15 -58.75 L64.6 -57.85 M38.15 -59.35 L37.65 -59.2 37.35 -59.25 Q36.65 -59.35 36.3 -60.1 35.95 -60.7 36.05 -61.55 36.2 -62.4 36.75 -62.95 37.3 -63.45 38.0 -63.4 38.65 -63.3 39.0 -62.65 L39.25 -61.1 Q39.1 -60.25 38.55 -59.7 L38.15 -59.35 M90.05 -54.7 Q90.5 -54.05 90.4 -53.2 90.25 -52.35 89.55 -51.85 88.85 -51.35 88.0 -51.5 87.15 -51.65 86.6 -52.3 86.15 -53.0 86.25 -53.85 86.35 -54.6 86.9 -55.15 L87.05 -55.25 88.65 -55.55 Q89.5 -55.45 90.0 -54.8 L90.05 -54.7 M109.75 -48.9 Q109.45 -49.5 109.6 -50.25 109.7 -51.1 110.25 -51.7 110.8 -52.2 111.5 -52.1 112.2 -51.95 112.55 -51.35 112.95 -50.6 112.85 -49.75 112.65 -48.9 112.1 -48.4 L111.55 -48.0 110.9 -48.0 Q110.2 -48.1 109.8 -48.75 L109.75 -48.9" fill="#002311" fill-rule="evenodd" stroke="none"/>
      <path d="M89.25 -66.75 Q87.5 -66.05 85.05 -65.75 L75.85 -66.0 75.55 -66.0 Q71.6 -66.65 66.75 -68.7 63.6 -69.95 62.45 -70.8 63.05 -72.55 64.45 -74.1 L76.45 -73.2 Q82.45 -72.3 88.4 -70.45 89.25 -68.6 89.25 -66.75" fill="#660000" fill-rule="evenodd" stroke="none"/>
      <path d="M88.6 -62.85 L62.0 -66.95 Q61.85 -68.7 62.25 -70.2 L62.45 -70.8 Q63.6 -69.95 66.75 -68.7 71.6 -66.65 75.55 -66.0 L75.85 -66.0 85.05 -65.75 Q87.5 -66.05 89.25 -66.75 L89.25 -66.0 Q89.25 -64.45 88.6 -62.85" fill="#400000" fill-rule="evenodd" stroke="none"/>
      <path d="M74.7 -60.1 L80.05 -59.25 78.75 -58.0 77.1 -56.35 75.2 -54.55 Q74.25 -53.6 73.05 -51.65 71.9 -49.75 71.75 -48.8 71.4 -46.45 73.8 -44.25 L75.65 -43.05 53.75 -46.4 Q59.85 -47.85 66.2 -51.9 70.3 -54.5 72.55 -56.9 74.1 -58.55 74.7 -60.1" fill="#5ac3cf" fill-rule="evenodd" stroke="none"/>
      <path d="M98.1 -56.5 L97.6 -58.4 Q97.2 -60.15 97.4 -61.45 L103.6 -60.5 105.3 -55.45 98.1 -56.5" fill="#115245" fill-rule="evenodd" stroke="none"/>
      <path d="M55.35 -63.1 L74.7 -60.1 80.05 -59.25 98.1 -56.5 105.3 -55.45 113.5 -54.15 Q113.9 -50.6 113.7 -47.0 L113.6 -45.95 Q113.3 -41.7 112.1 -37.45 L75.65 -43.05 53.75 -46.4 32.05 -49.75 Q32.0 -53.2 32.6 -56.45 L32.95 -58.25 Q33.85 -62.25 35.75 -66.1 L43.85 -64.85 51.1 -63.7 55.35 -63.1 M97.4 -61.45 L88.6 -62.85 62.0 -66.95 58.2 -67.5 54.55 -68.05 47.0 -69.25 43.85 -64.85 M64.6 -57.85 L64.55 -57.2 Q64.45 -56.35 63.7 -55.85 63.05 -55.3 62.2 -55.5 61.35 -55.6 60.8 -56.3 60.35 -56.95 60.45 -57.8 L60.65 -58.45 61.25 -59.2 Q62.0 -59.7 62.85 -59.55 63.7 -59.4 64.15 -58.75 L64.6 -57.85 M89.25 -66.75 Q89.25 -68.6 88.4 -70.45 82.45 -72.3 76.45 -73.2 L64.45 -74.1 Q63.05 -72.55 62.45 -70.8 L62.25 -70.2 Q61.85 -68.7 62.0 -66.95 M37.65 -59.2 L37.35 -59.25 Q36.65 -59.35 36.3 -60.1 35.95 -60.7 36.05 -61.55 36.2 -62.4 36.75 -62.95 37.3 -63.45 38.0 -63.4 38.65 -63.3 39.0 -62.65 L39.25 -61.1 Q39.1 -60.25 38.55 -59.7 L38.15 -59.35 M89.25 -66.75 L89.25 -66.0 Q89.25 -64.45 88.6 -62.85 M90.05 -54.7 Q90.5 -54.05 90.4 -53.2 90.25 -52.35 89.55 -51.85 88.85 -51.35 88.0 -51.5 87.15 -51.65 86.6 -52.3 86.15 -53.0 86.25 -53.85 86.35 -54.6 86.9 -55.15 L87.05 -55.25 88.65 -55.55 Q89.5 -55.45 90.0 -54.8 L90.05 -54.7 M109.75 -48.9 Q109.45 -49.5 109.6 -50.25 109.7 -51.1 110.25 -51.7 110.8 -52.2 111.5 -52.1 112.2 -51.95 112.55 -51.35 112.95 -50.6 112.85 -49.75 112.65 -48.9 112.1 -48.4 L111.55 -48.0 110.9 -48.0 Q110.2 -48.1 109.8 -48.75 L109.75 -48.9 M97.4 -61.45 L103.6 -60.5 105.3 -55.45" fill="none" stroke="#000000" stroke-linecap="round" stroke-linejoin="round" stroke-opacity="0.6627451" stroke-width="1.0"/>
      <path d="M61.25 -58.95 L60.35 -59.7 59.15 -59.35 56.95 -59.75 57.15 -60.95 57.5 -62.3 63.5 -61.1 63.3 -59.85 63.0 -58.55 61.25 -58.95 M77.95 -55.55 L78.25 -56.8 78.5 -58.1 82.85 -57.15 83.15 -56.1 Q83.25 -55.75 83.5 -55.35 L84.1 -54.65 84.05 -54.3 77.95 -55.55 M83.8 -57.0 L84.6 -56.85 84.3 -55.7 84.25 -55.9 Q83.85 -56.4 83.8 -57.0" fill="#333333" fill-rule="evenodd" stroke="none"/>
      <path d="M59.15 -59.35 L60.35 -59.7 61.25 -58.95 60.1 -58.6 59.15 -59.35 M90.1 -59.9 L90.15 -59.8 Q91.0 -58.5 90.8 -57.0 L90.2 -57.3 89.95 -57.3 Q90.05 -58.4 89.45 -59.35 L88.25 -60.45 88.85 -60.3 90.1 -59.9 M89.45 -54.55 L89.15 -54.3 89.05 -54.25 Q88.1 -53.65 87.1 -53.6 L86.45 -53.6 86.05 -53.65 85.55 -53.8 86.05 -53.65 86.45 -53.6 86.35 -53.05 86.25 -52.8 Q85.8 -52.6 85.4 -53.0 L85.45 -53.25 85.55 -53.8 85.4 -53.9 Q84.7 -54.15 84.1 -54.65 L83.5 -55.35 Q83.25 -55.75 83.15 -56.1 L83.25 -57.0 83.75 -58.35 83.75 -58.25 Q83.65 -57.6 83.8 -57.0 83.85 -56.4 84.25 -55.9 L84.3 -55.7 84.45 -55.55 Q85.15 -54.75 86.2 -54.5 87.15 -54.35 88.0 -54.75 L88.55 -54.95 88.8 -55.15 89.45 -54.55" fill="#cccccc" fill-rule="evenodd" stroke="none"/>
      <path d="M63.0 -58.55 L63.3 -59.85 78.25 -56.8 77.95 -55.55 76.65 -49.15 76.5 -48.25 61.55 -51.3 61.7 -52.2 63.0 -58.55 M57.15 -60.95 L56.95 -59.75 55.7 -53.4 55.5 -52.65 54.45 -53.4 55.85 -60.6 57.15 -60.95 M67.05 -54.55 Q67.1 -55.1 66.75 -55.55 66.4 -56.1 65.75 -56.25 L64.4 -56.0 63.8 -55.2 63.7 -54.95 Q63.6 -54.25 64.0 -53.7 64.35 -53.15 65.0 -53.0 L66.35 -53.2 Q66.9 -53.6 67.0 -54.3 L67.05 -54.55 M68.25 -54.25 L68.2 -54.0 Q68.05 -53.4 68.4 -52.8 68.8 -52.2 69.5 -52.05 70.2 -51.95 70.7 -52.35 71.3 -52.7 71.5 -53.35 L71.5 -53.65 71.2 -54.6 Q70.85 -55.25 70.15 -55.35 69.45 -55.5 68.9 -55.1 L68.25 -54.25 M75.9 -52.75 L75.65 -53.75 Q75.25 -54.35 74.55 -54.45 L73.35 -54.25 72.7 -53.4 72.65 -53.15 Q72.45 -52.45 72.9 -51.9 73.25 -51.35 73.9 -51.2 74.6 -51.0 75.2 -51.4 75.75 -51.8 75.9 -52.5 L75.9 -52.75" fill="url(#gradient0)" fill-rule="evenodd" stroke="none"/>
      <path d="M61.25 -58.95 L63.0 -58.55 61.7 -52.2 55.7 -53.4 56.95 -59.75 59.15 -59.35 60.1 -58.6 61.25 -58.95 M76.65 -49.15 L77.95 -55.55 84.05 -54.3 83.7 -52.7 82.75 -47.85 76.65 -49.15" fill="url(#gradient1)" fill-rule="evenodd" stroke="none"/>
      <path d="M61.55 -51.3 L61.25 -50.05 55.2 -51.25 55.5 -52.65 55.7 -53.4 61.7 -52.2 61.55 -51.3 M76.5 -48.25 L76.65 -49.15 82.75 -47.85 82.6 -47.25 82.3 -45.75 76.2 -47.0 76.5 -48.25" fill="url(#gradient2)" fill-rule="evenodd" stroke="none"/>
      <path d="M63.8 -55.2 L64.4 -56.0 65.75 -56.25 Q66.4 -56.1 66.75 -55.55 67.1 -55.1 67.05 -54.55 L66.45 -53.75 Q65.85 -53.35 65.15 -53.55 64.5 -53.65 64.1 -54.2 63.8 -54.7 63.8 -55.2 M71.5 -53.65 L70.85 -52.85 Q70.3 -52.5 69.6 -52.6 68.9 -52.75 68.55 -53.3 68.25 -53.8 68.25 -54.25 L68.9 -55.1 Q69.45 -55.5 70.15 -55.35 70.85 -55.25 71.2 -54.6 L71.5 -53.65 M72.7 -53.4 L73.35 -54.25 74.55 -54.45 Q75.25 -54.35 75.65 -53.75 L75.9 -52.75 75.3 -51.95 Q74.75 -51.55 74.05 -51.7 73.35 -51.85 73.0 -52.45 72.65 -52.9 72.7 -53.4" fill="url(#gradient3)" fill-rule="evenodd" stroke="none"/>
      <path d="M67.05 -54.55 L67.0 -54.3 Q66.9 -53.6 66.35 -53.2 L65.0 -53.0 Q64.35 -53.15 64.0 -53.7 63.6 -54.25 63.7 -54.95 L63.8 -55.2 Q63.8 -54.7 64.1 -54.2 64.5 -53.65 65.15 -53.55 65.85 -53.35 66.45 -53.75 L67.05 -54.55 M68.25 -54.25 Q68.25 -53.8 68.55 -53.3 68.9 -52.75 69.6 -52.6 70.3 -52.5 70.85 -52.85 L71.5 -53.65 71.5 -53.35 Q71.3 -52.7 70.7 -52.35 70.2 -51.95 69.5 -52.05 68.8 -52.2 68.4 -52.8 68.05 -53.4 68.2 -54.0 L68.25 -54.25 M75.9 -52.75 L75.9 -52.5 Q75.75 -51.8 75.2 -51.4 74.6 -51.0 73.9 -51.2 73.25 -51.35 72.9 -51.9 72.45 -52.45 72.65 -53.15 L72.7 -53.4 Q72.65 -52.9 73.0 -52.45 73.35 -51.85 74.05 -51.7 74.75 -51.55 75.3 -51.95 L75.9 -52.75" fill="#ff9900" fill-rule="evenodd" stroke="none"/>
      <path d="M90.25 -49.45 L89.5 -46.05 Q85.7 -44.35 81.4 -43.05 74.55 -43.65 67.75 -45.1 L68.0 -45.55 69.6 -45.5 72.6 -45.05 75.6 -44.5 78.4 -43.9 Q80.8 -43.5 83.45 -44.4 85.45 -45.1 87.2 -46.5 L87.45 -46.55 87.45 -46.6 87.75 -46.5 88.8 -50.35 89.7 -49.95 90.25 -49.45" fill="#474a44" fill-rule="evenodd" stroke="none"/>
      <path d="M68.0 -45.55 L68.6 -46.1 Q72.15 -46.1 75.95 -45.0 L81.05 -44.25 Q84.15 -45.15 86.7 -46.4 L87.2 -46.5 Q85.45 -45.1 83.45 -44.4 80.8 -43.5 78.4 -43.9 L75.6 -44.5 72.6 -45.05 69.6 -45.5 68.0 -45.55" fill="#3a3d38" fill-rule="evenodd" stroke="none"/>
      <path d="M82.85 -57.15 L82.9 -58.4 Q83.25 -60.0 84.65 -60.95 86.0 -61.85 87.65 -61.55 89.15 -61.2 90.1 -59.9 L88.85 -60.3 88.25 -60.45 87.45 -60.7 Q86.15 -60.95 85.1 -60.25 84.1 -59.55 83.75 -58.35 L83.25 -57.0 83.15 -56.1 82.85 -57.15" fill="#a6a6a6" fill-rule="evenodd" stroke="none"/>
      <path d="M90.8 -57.0 L90.75 -56.8 Q90.45 -55.45 89.45 -54.55 L88.8 -55.15 Q89.7 -55.85 89.9 -57.0 L89.95 -57.3 90.2 -57.3 90.8 -57.0" fill="#f0f0f0" fill-rule="evenodd" stroke="none"/>
      <path d="M89.15 -54.3 L89.35 -54.25 89.1 -52.6 88.95 -51.35 88.75 -51.45 Q86.5 -52.3 83.7 -52.7 L84.05 -54.3 84.1 -54.65 Q84.7 -54.15 85.4 -53.9 L85.55 -53.8 85.45 -53.25 85.2 -53.05 85.3 -52.8 85.7 -52.55 86.2 -52.55 86.45 -52.75 86.35 -53.05 86.45 -53.6 87.1 -53.6 Q88.1 -53.65 89.05 -54.25 L89.15 -54.3" fill="#23261d" fill-rule="evenodd" stroke="none"/>
      <path d="M86.35 -53.05 L86.45 -52.75 86.2 -52.55 85.7 -52.55 85.3 -52.8 85.2 -53.05 85.45 -53.25 85.4 -53.0 Q85.8 -52.6 86.25 -52.8 L86.35 -53.05" fill="#000000" fill-rule="evenodd" stroke="none"/>
      <path d="M84.45 -55.55 L88.0 -54.75 Q87.15 -54.35 86.2 -54.5 85.15 -54.75 84.45 -55.55" fill="#212620" fill-rule="evenodd" stroke="none"/>
      <path d="M87.45 -46.55 L87.3 -46.55 82.6 -47.25 82.75 -47.85 83.7 -52.7 Q86.5 -52.3 88.75 -51.45 L88.95 -51.35 88.8 -50.35 87.75 -46.5 87.45 -46.6 87.45 -46.55" fill="#32362b" fill-rule="evenodd" stroke="none"/>
      <path d="M89.1 -52.6 Q89.9 -52.5 90.65 -52.0 L90.25 -49.45 89.7 -49.95 88.8 -50.35 88.95 -51.35 89.1 -52.6" fill="#2e302c" fill-rule="evenodd" stroke="none"/>
      <path d="M61.25 -58.95 L63.0 -58.55 63.3 -59.85 63.5 -61.1 57.5 -62.3 57.15 -60.95 56.95 -59.75 59.15 -59.35 M55.5 -52.65 L54.45 -53.4 55.85 -60.6 57.15 -60.95 M61.55 -51.3 L61.25 -50.05 55.2 -51.25 55.5 -52.65 55.7 -53.4 56.95 -59.75 M63.8 -55.2 L64.4 -56.0 65.75 -56.25 Q66.4 -56.1 66.75 -55.55 67.1 -55.1 67.05 -54.55 L67.0 -54.3 Q66.9 -53.6 66.35 -53.2 L65.0 -53.0 Q64.35 -53.15 64.0 -53.7 63.6 -54.25 63.7 -54.95 L63.8 -55.2 Q63.8 -54.7 64.1 -54.2 64.5 -53.65 65.15 -53.55 65.85 -53.35 66.45 -53.75 L67.05 -54.55 M61.7 -52.2 L61.55 -51.3 76.5 -48.25 76.65 -49.15 77.95 -55.55 78.25 -56.8 63.3 -59.85 M71.5 -53.65 L70.85 -52.85 Q70.3 -52.5 69.6 -52.6 68.9 -52.75 68.55 -53.3 68.25 -53.8 68.25 -54.25 L68.2 -54.0 Q68.05 -53.4 68.4 -52.8 68.8 -52.2 69.5 -52.05 70.2 -51.95 70.7 -52.35 71.3 -52.7 71.5 -53.35 L71.5 -53.65 71.2 -54.6 Q70.85 -55.25 70.15 -55.35 69.45 -55.5 68.9 -55.1 L68.25 -54.25 M61.7 -52.2 L63.0 -58.55 M78.25 -56.8 L78.5 -58.1 82.85 -57.15 82.9 -58.4 Q83.25 -60.0 84.65 -60.95 86.0 -61.85 87.65 -61.55 89.15 -61.2 90.1 -59.9 L90.15 -59.8 Q91.0 -58.5 90.8 -57.0 L90.75 -56.8 Q90.45 -55.45 89.45 -54.55 L89.15 -54.3 89.35 -54.25 89.1 -52.6 Q89.9 -52.5 90.65 -52.0 L90.25 -49.45 89.5 -46.05 Q85.7 -44.35 81.4 -43.05 74.55 -43.65 67.75 -45.1 L68.0 -45.55 68.6 -46.1 Q72.15 -46.1 75.95 -45.0 L81.05 -44.25 Q84.15 -45.15 86.7 -46.4 L87.2 -46.5 87.45 -46.55 87.3 -46.55 82.6 -47.25 82.3 -45.75 76.2 -47.0 76.5 -48.25 M72.7 -53.4 L73.35 -54.25 74.55 -54.45 Q75.25 -54.35 75.65 -53.75 L75.9 -52.75 75.9 -52.5 Q75.75 -51.8 75.2 -51.4 74.6 -51.0 73.9 -51.2 73.25 -51.35 72.9 -51.9 72.45 -52.45 72.65 -53.15 L72.7 -53.4 Q72.65 -52.9 73.0 -52.45 73.35 -51.85 74.05 -51.7 74.75 -51.55 75.3 -51.95 L75.9 -52.75 M55.7 -53.4 L61.7 -52.2 M88.25 -60.45 L89.45 -59.35 Q90.05 -58.4 89.95 -57.3 L89.9 -57.0 Q89.7 -55.85 88.8 -55.15 L88.55 -54.95 88.0 -54.75 Q87.15 -54.35 86.2 -54.5 85.15 -54.75 84.45 -55.55 L88.0 -54.75 M88.25 -60.45 L87.45 -60.7 Q86.15 -60.95 85.1 -60.25 84.1 -59.55 83.75 -58.35 L83.75 -58.25 Q83.65 -57.6 83.8 -57.0 L84.6 -56.85 84.3 -55.7 84.45 -55.55 M83.15 -56.1 L82.85 -57.15 M83.15 -56.1 Q83.25 -55.75 83.5 -55.35 L84.1 -54.65 Q84.7 -54.15 85.4 -53.9 L85.55 -53.8 86.05 -53.65 86.45 -53.6 87.1 -53.6 Q88.1 -53.65 89.05 -54.25 L89.15 -54.3 M84.3 -55.7 L84.25 -55.9 Q83.85 -56.4 83.8 -57.0 M84.1 -54.65 L84.05 -54.3 83.7 -52.7 Q86.5 -52.3 88.75 -51.45 L88.95 -51.35 89.1 -52.6 M85.45 -53.25 L85.2 -53.05 85.3 -52.8 85.7 -52.55 86.2 -52.55 86.45 -52.75 86.35 -53.05 86.25 -52.8 Q85.8 -52.6 85.4 -53.0 L85.45 -53.25 85.55 -53.8 M86.45 -53.6 L86.35 -53.05 M88.8 -50.35 L87.75 -46.5 87.45 -46.6 87.45 -46.55 M88.8 -50.35 L88.95 -51.35 M82.75 -47.85 L82.6 -47.25 M82.75 -47.85 L83.7 -52.7 M84.05 -54.3 L77.95 -55.55 M76.65 -49.15 L82.75 -47.85" fill="none" stroke="#000000" stroke-linecap="round" stroke-linejoin="round" stroke-opacity="0.5019608" stroke-width="1.0"/>
      <path d="M78.3 -56.85 L76.6 -48.4 73.55 -49.05 75.3 -57.5 78.3 -56.85" fill="url(#gradient4)" fill-rule="evenodd" stroke="none"/>
      <path d="M57.15 -58.25 L57.6 -60.85 62.3 -49.4 60.7 -50.35 60.8 -47.95 57.65 -48.95 57.05 -47.2 52.35 -58.55 54.8 -57.3 54.95 -59.7 57.15 -58.25" fill="#a3a382" fill-rule="evenodd" stroke="none"/>
      <path d="M57.15 -58.25 L57.6 -60.85 62.3 -49.4 60.7 -50.35 60.8 -47.95 57.65 -48.95 57.05 -47.2 52.35 -58.55 54.8 -57.3 54.95 -59.7 57.15 -58.25 Z" fill="none" stroke="#000000" stroke-linecap="round" stroke-linejoin="round" stroke-opacity="0.4" stroke-width="1.0"/>
      <path d="M46.6 -77.0 L43.3 -77.6 43.3 -77.35 43.25 -77.35 43.15 -77.15 Q41.45 -76.35 40.25 -75.05 38.6 -73.35 38.15 -71.4 L37.55 -69.05 36.95 -66.55 36.25 -64.15 35.75 -62.95 35.3 -62.9 Q36.6 -68.55 38.55 -74.0 40.9 -76.7 43.55 -79.05 L46.4 -78.5 46.6 -77.85 46.6 -77.0" fill="#474a44" fill-rule="evenodd" stroke="none"/>
      <path d="M43.25 -77.35 L43.3 -77.35 43.3 -77.6 46.6 -77.0 47.4 -76.85 47.4 -76.65 Q47.25 -74.65 46.6 -72.4 L42.6 -73.3 42.1 -73.4 43.2 -77.2 43.25 -77.35" fill="#32362b" fill-rule="evenodd" stroke="none"/>
      <path d="M35.75 -62.95 L36.25 -64.15 36.95 -66.55 37.55 -69.05 38.15 -71.4 Q38.6 -73.35 40.25 -75.05 41.45 -76.35 43.15 -77.15 L42.9 -76.8 Q41.0 -75.3 39.25 -73.25 38.6 -71.35 38.1 -69.15 37.6 -65.9 36.4 -63.2 L35.75 -62.95" fill="#3a3d38" fill-rule="evenodd" stroke="none"/>
      <path d="M46.6 -77.0 L46.6 -77.85 46.4 -78.5 48.45 -77.85 Q48.6 -77.15 48.35 -76.5 L47.4 -76.85 46.6 -77.0" fill="#2e302c" fill-rule="evenodd" stroke="none"/>
      <path d="M47.55 -73.5 Q47.45 -73.4 47.35 -73.4 L47.15 -73.6 47.2 -73.95 47.4 -74.35 47.6 -74.45 47.75 -74.25 47.6 -74.3 Q47.3 -74.0 47.35 -73.5 L47.55 -73.5" fill="#000000" fill-rule="evenodd" stroke="none"/>
      <path d="M46.6 -72.4 Q47.25 -74.65 47.4 -76.65 L47.4 -76.85 48.35 -76.5 49.7 -76.1 49.7 -75.9 49.6 -75.85 Q48.85 -75.4 48.4 -74.6 L48.3 -74.1 47.75 -74.25 47.6 -74.45 47.4 -74.35 47.2 -73.95 47.15 -73.6 47.35 -73.4 Q47.45 -73.4 47.55 -73.5 L48.0 -73.4 48.05 -73.3 Q48.0 -72.65 48.2 -72.0 L47.95 -72.1 46.6 -72.4" fill="#23261d" fill-rule="evenodd" stroke="none"/>
      <path d="M47.55 -73.5 L47.35 -73.5 Q47.3 -74.0 47.6 -74.3 L47.75 -74.25 48.3 -74.1 48.4 -74.6 Q48.85 -75.4 49.6 -75.85 L49.7 -75.9 50.0 -76.1 Q49.95 -75.75 50.2 -75.4 L50.0 -75.25 49.6 -74.9 Q49.05 -74.4 48.85 -73.65 48.65 -72.75 49.05 -71.95 L49.1 -71.8 49.15 -71.65 49.9 -70.95 Q50.25 -70.65 50.8 -70.5 L50.9 -70.5 49.65 -70.55 48.9 -70.75 48.55 -71.3 48.2 -72.0 Q48.0 -72.65 48.05 -73.3 L48.0 -73.4 47.55 -73.5 M52.25 -76.25 Q53.5 -75.95 54.2 -74.8 L54.3 -74.7 54.1 -73.6 54.0 -73.1 Q54.0 -73.85 53.6 -74.4 53.1 -75.25 52.2 -75.5 L52.25 -75.7 52.25 -76.25 M48.0 -73.4 L48.15 -73.85 48.3 -74.1 48.15 -73.85 48.0 -73.4 M43.55 -53.25 L43.8 -52.25 43.15 -51.45 42.9 -52.45 43.55 -53.25" fill="#cccccc" fill-rule="evenodd" stroke="none"/>
      <path d="M50.0 -76.1 L52.1 -76.25 52.25 -76.25 52.25 -75.7 52.2 -75.5 51.95 -75.55 50.2 -75.4 Q49.95 -75.75 50.0 -76.1" fill="#f0f0f0" fill-rule="evenodd" stroke="none"/>
      <path d="M54.3 -74.7 Q54.9 -73.55 54.6 -72.3 54.35 -70.95 53.15 -70.25 51.95 -69.5 50.65 -69.85 L49.7 -70.2 48.9 -70.75 49.65 -70.55 50.9 -70.5 Q51.9 -70.3 52.75 -70.8 53.7 -71.4 53.9 -72.5 L54.0 -73.1 54.1 -73.6 54.3 -74.7" fill="#a6a6a6" fill-rule="evenodd" stroke="none"/>
      <path d="M49.7 -70.2 L48.85 -66.55 47.8 -66.85 46.75 -67.05 47.95 -72.1 48.2 -72.0 48.55 -71.3 48.9 -70.75 49.7 -70.2 M44.95 -54.45 L46.0 -54.2 44.8 -49.25 43.7 -49.45 42.75 -49.65 43.15 -51.45 43.8 -52.25 43.55 -53.25 43.9 -54.7 44.95 -54.45 M49.9 -70.95 L49.15 -71.65 49.1 -71.8 50.05 -71.6 49.9 -70.95" fill="#333333" fill-rule="evenodd" stroke="none"/>
      <path d="M49.05 -71.95 Q48.65 -72.75 48.85 -73.65 49.05 -74.4 49.6 -74.9 L49.05 -71.95" fill="#212620" fill-rule="evenodd" stroke="none"/>
      <path d="M42.6 -73.3 L46.6 -72.4 47.95 -72.1 46.75 -67.05 41.45 -68.25 42.6 -73.3 M43.55 -53.25 L42.9 -52.45 43.15 -51.45 42.75 -49.65 37.45 -50.85 38.55 -55.9 43.9 -54.7 43.55 -53.25" fill="url(#gradient5)" fill-rule="evenodd" stroke="none"/>
      <path d="M42.1 -73.4 L42.6 -73.3 41.45 -68.25 40.75 -68.45 39.7 -68.65 40.8 -73.7 42.1 -73.4 M36.8 -51.05 L35.7 -51.3 36.8 -56.3 37.85 -56.1 38.55 -55.9 37.45 -50.85 36.8 -51.05" fill="url(#gradient6)" fill-rule="evenodd" stroke="none"/>
      <path d="M47.8 -66.85 L44.95 -54.45 43.9 -54.7 38.55 -55.9 37.85 -56.1 40.75 -68.45 41.45 -68.25 46.75 -67.05 47.8 -66.85 M43.7 -49.45 L43.0 -48.55 37.05 -49.95 36.8 -51.05 37.45 -50.85 42.75 -49.65 43.7 -49.45 M43.3 -63.75 L43.35 -63.75 44.15 -64.0 Q44.65 -64.3 44.75 -64.85 44.95 -65.4 44.65 -65.95 L44.0 -66.45 43.75 -66.55 42.7 -66.35 Q42.2 -66.05 42.1 -65.5 41.95 -64.95 42.25 -64.45 L43.1 -63.85 43.3 -63.75 M43.1 -62.8 L42.9 -62.85 41.85 -62.7 41.15 -61.85 Q41.1 -61.25 41.4 -60.75 L42.25 -60.1 42.45 -60.1 Q42.95 -60.05 43.3 -60.3 43.8 -60.65 43.9 -61.2 44.05 -61.75 43.7 -62.25 L43.1 -62.8 M41.6 -56.45 L42.45 -56.6 Q42.95 -56.9 43.1 -57.5 43.2 -58.05 42.9 -58.55 L42.25 -59.1 42.05 -59.2 40.95 -59.0 40.35 -58.15 Q40.25 -57.6 40.55 -57.1 40.85 -56.6 41.4 -56.45 L41.6 -56.45" fill="url(#gradient7)" fill-rule="evenodd" stroke="none"/>
      <path d="M44.0 -66.45 L44.65 -65.95 Q44.95 -65.4 44.75 -64.85 44.65 -64.3 44.15 -64.0 L43.35 -63.75 43.3 -63.75 42.7 -64.35 Q42.35 -64.8 42.55 -65.35 42.65 -65.95 43.1 -66.25 L44.0 -66.45 M43.1 -62.8 L43.7 -62.25 Q44.05 -61.75 43.9 -61.2 43.8 -60.65 43.3 -60.3 42.95 -60.05 42.45 -60.1 L41.8 -60.7 Q41.5 -61.15 41.65 -61.75 41.75 -62.3 42.3 -62.6 L43.1 -62.8 M41.6 -56.45 L41.0 -57.0 Q40.65 -57.45 40.8 -58.05 40.95 -58.6 41.4 -58.95 L42.25 -59.1 42.9 -58.55 Q43.2 -58.05 43.1 -57.5 42.95 -56.9 42.45 -56.6 L41.6 -56.45" fill="url(#gradient8)" fill-rule="evenodd" stroke="none"/>
      <path d="M44.0 -66.45 L43.1 -66.25 Q42.65 -65.95 42.55 -65.35 42.35 -64.8 42.7 -64.35 L43.3 -63.75 43.1 -63.85 42.25 -64.45 Q41.95 -64.95 42.1 -65.5 42.2 -66.05 42.7 -66.35 L43.75 -66.55 44.0 -66.45 M42.45 -60.1 L42.25 -60.1 41.4 -60.75 Q41.1 -61.25 41.15 -61.85 L41.85 -62.7 42.9 -62.85 43.1 -62.8 42.3 -62.6 Q41.75 -62.3 41.65 -61.75 41.5 -61.15 41.8 -60.7 L42.45 -60.1 M42.25 -59.1 L41.4 -58.95 Q40.95 -58.6 40.8 -58.05 40.65 -57.45 41.0 -57.0 L41.6 -56.45 41.4 -56.45 Q40.85 -56.6 40.55 -57.1 40.25 -57.6 40.35 -58.15 L40.95 -59.0 42.05 -59.2 42.25 -59.1" fill="#ff9900" fill-rule="evenodd" stroke="none"/>
      <path d="M43.25 -77.35 L43.3 -77.35 43.3 -77.6 46.6 -77.0 47.4 -76.85 47.4 -76.65 Q47.25 -74.65 46.6 -72.4 L42.6 -73.3 41.45 -68.25 46.75 -67.05 47.8 -66.85 44.95 -54.45 46.0 -54.2 44.8 -49.25 43.7 -49.45 43.0 -48.55 37.05 -49.95 36.8 -51.05 35.7 -51.3 36.8 -56.3 37.85 -56.1 40.75 -68.45 39.7 -68.65 40.8 -73.7 42.1 -73.4 42.6 -73.3 M46.4 -78.5 L43.55 -79.05 Q40.9 -76.7 38.55 -74.0 36.6 -68.55 35.3 -62.9 L35.75 -62.95 36.4 -63.2 Q37.6 -65.9 38.1 -69.15 38.6 -71.35 39.25 -73.25 41.0 -75.3 42.9 -76.8 L43.15 -77.15 43.25 -77.35 43.2 -77.2 42.1 -73.4 M47.75 -74.25 L47.6 -74.45 47.4 -74.35 47.2 -73.95 47.15 -73.6 47.35 -73.4 Q47.45 -73.4 47.55 -73.5 L47.35 -73.5 Q47.3 -74.0 47.6 -74.3 L47.75 -74.25 48.3 -74.1 48.4 -74.6 Q48.85 -75.4 49.6 -75.85 L49.7 -75.9 49.7 -76.1 48.35 -76.5 47.4 -76.85 M49.7 -75.9 L50.0 -76.1 52.1 -76.25 52.25 -76.25 Q53.5 -75.95 54.2 -74.8 L54.3 -74.7 Q54.9 -73.55 54.6 -72.3 54.35 -70.95 53.15 -70.25 51.95 -69.5 50.65 -69.85 L49.7 -70.2 48.85 -66.55 47.8 -66.85 M49.6 -74.9 L50.0 -75.25 50.2 -75.4 51.95 -75.55 52.2 -75.5 Q53.1 -75.25 53.6 -74.4 54.0 -73.85 54.0 -73.1 L53.9 -72.5 Q53.7 -71.4 52.75 -70.8 51.9 -70.3 50.9 -70.5 L50.8 -70.5 Q50.25 -70.65 49.9 -70.95 L49.15 -71.65 49.1 -71.8 49.05 -71.95 Q48.65 -72.75 48.85 -73.65 49.05 -74.4 49.6 -74.9 L49.05 -71.95 M46.4 -78.5 L48.45 -77.85 Q48.6 -77.15 48.35 -76.5 M48.9 -70.75 L49.7 -70.2 M48.2 -72.0 L48.55 -71.3 48.9 -70.75 M48.3 -74.1 L48.15 -73.85 48.0 -73.4 48.05 -73.3 Q48.0 -72.65 48.2 -72.0 L47.95 -72.1 46.75 -67.05 M49.9 -70.95 L50.05 -71.6 49.1 -71.8 M47.95 -72.1 L46.6 -72.4 M47.55 -73.5 L48.0 -73.4 M40.75 -68.45 L41.45 -68.25 M43.3 -63.75 L43.35 -63.75 44.15 -64.0 Q44.65 -64.3 44.75 -64.85 44.95 -65.4 44.65 -65.95 L44.0 -66.45 43.1 -66.25 Q42.65 -65.95 42.55 -65.35 42.35 -64.8 42.7 -64.35 L43.3 -63.75 43.1 -63.85 42.25 -64.45 Q41.95 -64.95 42.1 -65.5 42.2 -66.05 42.7 -66.35 L43.75 -66.55 44.0 -66.45 M42.45 -60.1 L42.25 -60.1 41.4 -60.75 Q41.1 -61.25 41.15 -61.85 L41.85 -62.7 42.9 -62.85 43.1 -62.8 43.7 -62.25 Q44.05 -61.75 43.9 -61.2 43.8 -60.65 43.3 -60.3 42.95 -60.05 42.45 -60.1 L41.8 -60.7 Q41.5 -61.15 41.65 -61.75 41.75 -62.3 42.3 -62.6 L43.1 -62.8 M42.25 -59.1 L41.4 -58.95 Q40.95 -58.6 40.8 -58.05 40.65 -57.45 41.0 -57.0 L41.6 -56.45 42.45 -56.6 Q42.95 -56.9 43.1 -57.5 43.2 -58.05 42.9 -58.55 L42.25 -59.1 42.05 -59.2 40.95 -59.0 40.35 -58.15 Q40.25 -57.6 40.55 -57.1 40.85 -56.6 41.4 -56.45 L41.6 -56.45 M43.15 -51.45 L42.75 -49.65 43.7 -49.45 M43.9 -54.7 L44.95 -54.45 M43.55 -53.25 L43.9 -54.7 38.55 -55.9 37.45 -50.85 42.75 -49.65 M36.8 -51.05 L37.45 -50.85 M38.55 -55.9 L37.85 -56.1" fill="none" stroke="#000000" stroke-linecap="round" stroke-linejoin="round" stroke-opacity="0.5019608" stroke-width="1.0"/>
      <path d="M47.9 -67.0 L47.3 -64.5 40.3 -66.05 40.9 -68.6 47.9 -67.0" fill="url(#gradient9)" fill-rule="evenodd" stroke="none"/>
      <path d="M35.05 -56.0 L34.8 -57.55 36.45 -56.95 36.25 -58.7 41.2 -52.0 40.0 -52.3 40.5 -50.8 38.3 -51.0 38.2 -49.8 33.3 -56.45 35.05 -56.0" fill="#a3a382" fill-rule="evenodd" stroke="none"/>
      <path d="M35.05 -56.0 L34.8 -57.55 36.45 -56.95 36.25 -58.7 41.2 -52.0 40.0 -52.3 40.5 -50.8 38.3 -51.0 38.2 -49.8 33.3 -56.45 35.05 -56.0 Z" fill="none" stroke="#000000" stroke-linecap="round" stroke-linejoin="round" stroke-opacity="0.4" stroke-width="1.0"/>
      <path d="M52.95 -68.95 L53.95 -71.35 53.85 -71.4 Q53.7 -71.8 53.65 -73.15 L53.75 -75.45 Q53.9 -76.6 54.25 -77.25 L55.0 -78.3 Q55.45 -78.1 55.5 -77.0 L55.45 -75.3 55.0 -73.45 54.2 -71.3 54.3 -71.25 Q54.4 -72.0 56.35 -73.6 58.25 -75.15 59.0 -75.25 L59.05 -75.1 59.1 -74.85 Q58.95 -73.95 56.65 -72.5 55.2 -71.5 54.5 -71.2 L88.85 -59.7 88.85 -60.0 M54.1 -66.9 L54.15 -69.05 54.0 -71.05 54.5 -71.2 54.3 -71.25 54.2 -71.3 53.95 -71.35 53.95 -71.5 M88.8 -60.2 L87.05 -63.2 Q86.25 -64.7 86.5 -66.3 L86.85 -67.75 Q87.15 -68.4 87.8 -68.3 89.15 -68.1 88.9 -60.35 89.4 -62.8 89.95 -64.3 90.9 -67.1 92.2 -66.7 L92.3 -65.75 Q91.95 -63.65 89.95 -61.1 L89.05 -60.0 97.0 -66.55 97.0 -66.6 96.15 -67.6 95.4 -69.05 95.0 -70.6 95.25 -71.7 95.65 -72.9 Q96.05 -73.55 96.6 -73.45 97.6 -73.3 97.45 -70.0 L97.25 -68.05 Q97.6 -69.95 98.5 -71.65 99.65 -73.7 100.85 -73.5 101.3 -73.45 101.4 -73.0 L101.45 -72.35 Q101.05 -69.95 99.05 -68.25 L97.7 -67.3 97.1 -66.8 97.1 -66.5 97.15 -66.4 97.05 -66.45 97.05 -66.4 Q97.05 -65.7 98.0 -64.6 L99.3 -63.1 99.45 -63.0 M89.1 -55.75 L89.0 -55.8 88.85 -59.7 86.5 -56.55 86.55 -56.85 M89.05 -60.0 L88.85 -59.7 M97.25 -68.05 L97.2 -67.9 97.2 -67.35 97.25 -68.05 M97.1 -66.8 L97.2 -67.35 97.0 -66.6 97.1 -66.8 M94.7 -59.2 L97.05 -66.4 97.05 -66.45 97.0 -66.45 97.0 -66.55 97.05 -66.45 M97.1 -66.5 L97.0 -66.6" fill="none" stroke="#000000" stroke-linecap="round" stroke-linejoin="round" stroke-opacity="0.4" stroke-width="1.0"/>
      <path d="M101.2 -66.3 Q100.55 -66.95 99.6 -67.0 L99.35 -67.05 99.4 -67.25 99.55 -67.8 99.7 -67.75 Q100.85 -67.65 101.6 -66.9 L101.2 -66.3" fill="#f0f0f0" fill-rule="evenodd" stroke="none"/>
      <path d="M99.35 -67.05 Q98.4 -67.0 97.7 -66.35 97.15 -65.95 96.95 -65.3 L97.0 -65.85 97.15 -66.9 97.25 -66.95 Q98.25 -67.8 99.55 -67.8 L99.4 -67.25 99.35 -67.05 M99.1 -61.85 L99.2 -61.85 100.2 -61.95 Q100.75 -62.05 101.15 -62.45 L101.25 -62.55 101.35 -62.7 Q101.95 -63.35 102.05 -64.25 102.1 -65.0 101.65 -65.7 L101.4 -66.1 101.2 -66.3 101.6 -66.9 101.9 -66.65 101.95 -66.6 102.75 -65.05 102.75 -64.55 103.25 -64.45 103.45 -64.45 Q103.6 -64.05 103.35 -63.65 L103.15 -63.65 102.7 -63.75 102.65 -63.65 102.15 -62.5 101.6 -61.9 101.05 -61.5 100.35 -61.5 Q99.65 -61.6 99.1 -61.85 M102.75 -64.55 L102.75 -64.2 102.7 -63.75 102.75 -64.2 102.75 -64.55 M100.9 -43.2 L101.3 -42.25 100.8 -41.35 100.4 -42.3 100.9 -43.2" fill="#cccccc" fill-rule="evenodd" stroke="none"/>
      <path d="M96.95 -65.3 L96.85 -64.65 Q96.7 -63.55 97.45 -62.7 98.15 -61.95 99.1 -61.85 99.65 -61.6 100.35 -61.5 L101.05 -61.5 100.15 -61.15 99.15 -61.15 Q97.8 -61.2 96.85 -62.3 96.0 -63.3 96.1 -64.7 96.2 -66.0 97.15 -66.9 L97.0 -65.85 96.95 -65.3" fill="#a6a6a6" fill-rule="evenodd" stroke="none"/>
      <path d="M100.2 -61.95 L100.3 -62.6 101.25 -62.55 101.15 -62.45 Q100.75 -62.05 100.2 -61.95 M100.95 -57.4 L99.85 -57.5 100.15 -61.15 101.05 -61.5 101.6 -61.9 102.15 -62.5 102.45 -62.45 102.0 -57.3 100.95 -57.4 M99.65 -39.65 L98.55 -39.7 98.95 -44.85 100.0 -44.7 101.05 -44.65 100.9 -43.2 100.4 -42.3 100.8 -41.35 100.65 -39.5 99.65 -39.65" fill="#333333" fill-rule="evenodd" stroke="none"/>
      <path d="M103.3 -66.8 Q103.35 -67.5 103.7 -68.15 L105.8 -68.15 105.45 -67.6 105.2 -66.8 104.35 -66.8 103.3 -66.8" fill="#2e302c" fill-rule="evenodd" stroke="none"/>
      <path d="M105.8 -68.15 L108.7 -67.85 112.0 -61.4 Q112.2 -55.7 111.75 -49.9 111.55 -49.95 111.3 -50.1 L111.15 -51.4 111.25 -53.95 111.4 -56.5 111.6 -58.9 Q111.65 -60.9 110.65 -63.0 109.9 -64.55 108.55 -65.9 L108.45 -66.1 108.45 -66.35 105.2 -66.8 105.45 -67.6 105.8 -68.15" fill="#474a44" fill-rule="evenodd" stroke="none"/>
      <path d="M108.45 -66.1 L108.5 -65.95 108.35 -62.0 107.9 -62.05 103.8 -62.35 Q103.85 -64.7 104.3 -66.65 L104.35 -66.8 105.2 -66.8 108.45 -66.35 108.45 -66.1" fill="#32362b" fill-rule="evenodd" stroke="none"/>
      <path d="M102.45 -62.45 L102.15 -62.5 102.65 -63.65 102.7 -63.75 103.15 -63.65 103.35 -63.5 Q103.5 -63.5 103.55 -63.65 L103.65 -64.0 103.65 -64.4 103.45 -64.6 103.25 -64.45 102.75 -64.55 102.75 -65.05 101.95 -66.6 101.9 -66.65 101.9 -66.85 103.3 -66.8 104.35 -66.8 104.3 -66.65 Q103.85 -64.7 103.8 -62.35 L102.45 -62.45" fill="#23261d" fill-rule="evenodd" stroke="none"/>
      <path d="M103.25 -64.45 L103.45 -64.6 103.65 -64.4 103.65 -64.0 103.55 -63.65 Q103.5 -63.5 103.35 -63.5 L103.15 -63.65 103.35 -63.65 Q103.6 -64.05 103.45 -64.45 L103.25 -64.45" fill="#000000" fill-rule="evenodd" stroke="none"/>
      <path d="M101.35 -62.7 L101.65 -65.7 Q102.1 -65.0 102.05 -64.25 101.95 -63.35 101.35 -62.7" fill="#212620" fill-rule="evenodd" stroke="none"/>
      <path d="M102.0 -57.3 L102.45 -62.45 103.8 -62.35 107.9 -62.05 107.45 -56.9 102.0 -57.3 M106.5 -44.2 L106.1 -39.05 100.65 -39.5 100.8 -41.35 101.3 -42.25 100.9 -43.2 101.05 -44.65 106.5 -44.2" fill="url(#gradient10)" fill-rule="evenodd" stroke="none"/>
      <path d="M111.3 -50.1 L110.8 -50.5 Q110.45 -53.45 110.95 -56.7 L111.0 -61.0 108.65 -65.5 108.55 -65.9 Q109.9 -64.55 110.65 -63.0 111.65 -60.9 111.6 -58.9 L111.4 -56.5 111.25 -53.95 111.15 -51.4 111.3 -50.1" fill="#3a3d38" fill-rule="evenodd" stroke="none"/>
      <path d="M108.35 -62.0 L109.7 -61.9 109.3 -56.75 108.2 -56.85 107.45 -56.9 107.9 -62.05 108.35 -62.0 M107.25 -44.2 L108.3 -44.1 107.9 -38.95 106.75 -39.05 106.1 -39.05 106.5 -44.2 107.25 -44.2" fill="url(#gradient11)" fill-rule="evenodd" stroke="none"/>
      <path d="M108.2 -56.85 L107.25 -44.2 106.5 -44.2 101.05 -44.65 100.0 -44.7 100.95 -57.4 102.0 -57.3 107.45 -56.9 108.2 -56.85 M106.75 -39.05 L106.2 -38.05 100.1 -38.55 99.65 -39.65 100.65 -39.5 106.1 -39.05 106.75 -39.05 M104.35 -53.15 L104.55 -53.15 Q105.15 -53.1 105.55 -53.5 106.0 -53.8 106.05 -54.4 L105.75 -55.5 Q105.35 -55.9 104.75 -55.95 L104.5 -55.9 103.75 -55.55 Q103.25 -55.15 103.25 -54.6 103.2 -54.0 103.6 -53.6 103.9 -53.25 104.35 -53.15 M104.2 -52.15 Q103.8 -52.1 103.45 -51.8 103.0 -51.45 103.0 -50.85 102.95 -50.25 103.3 -49.85 103.55 -49.5 104.05 -49.4 L104.25 -49.35 Q104.85 -49.35 105.3 -49.7 L105.8 -50.65 105.45 -51.7 Q105.0 -52.15 104.45 -52.15 L104.2 -52.15 M103.7 -45.65 L103.95 -45.6 Q104.55 -45.6 105.0 -46.0 L105.5 -46.9 Q105.5 -47.5 105.1 -47.9 104.75 -48.35 104.15 -48.4 L103.95 -48.4 Q103.5 -48.4 103.15 -48.05 102.75 -47.7 102.7 -47.15 102.6 -46.55 103.0 -46.05 L103.7 -45.65" fill="url(#gradient12)" fill-rule="evenodd" stroke="none"/>
      <path d="M104.5 -55.9 L104.75 -55.95 Q105.35 -55.9 105.75 -55.5 L106.05 -54.4 Q106.0 -53.8 105.55 -53.5 105.15 -53.1 104.55 -53.15 L104.35 -53.15 105.1 -53.55 105.55 -54.5 105.3 -55.5 Q105.0 -55.85 104.5 -55.9 M104.05 -49.4 Q104.4 -49.45 104.85 -49.8 105.3 -50.15 105.3 -50.7 105.35 -51.3 104.95 -51.75 104.65 -52.05 104.2 -52.15 L104.45 -52.15 Q105.0 -52.15 105.45 -51.7 L105.8 -50.65 105.3 -49.7 Q104.85 -49.35 104.25 -49.35 L104.05 -49.4 M103.95 -48.4 L104.15 -48.4 Q104.75 -48.35 105.1 -47.9 105.5 -47.5 105.5 -46.9 L105.0 -46.0 Q104.55 -45.6 103.95 -45.6 L103.7 -45.65 Q104.15 -45.7 104.55 -46.0 L105.05 -46.95 104.7 -48.0 103.95 -48.4" fill="#ff9900" fill-rule="evenodd" stroke="none"/>
      <path d="M104.35 -53.15 Q103.9 -53.25 103.6 -53.6 103.2 -54.0 103.25 -54.6 103.25 -55.15 103.75 -55.55 L104.5 -55.9 Q105.0 -55.85 105.3 -55.5 L105.55 -54.5 105.1 -53.55 104.35 -53.15 M104.05 -49.4 Q103.55 -49.5 103.3 -49.85 102.95 -50.25 103.0 -50.85 103.0 -51.45 103.45 -51.8 103.8 -52.1 104.2 -52.15 104.65 -52.05 104.95 -51.75 105.35 -51.3 105.3 -50.7 105.3 -50.15 104.85 -49.8 104.4 -49.45 104.05 -49.4 M103.95 -48.4 L104.7 -48.0 105.05 -46.95 104.55 -46.0 Q104.15 -45.7 103.7 -45.65 L103.0 -46.05 Q102.6 -46.55 102.7 -47.15 102.75 -47.7 103.15 -48.05 103.5 -48.4 103.95 -48.4" fill="url(#gradient13)" fill-rule="evenodd" stroke="none"/>
      <path d="M101.2 -66.3 Q100.55 -66.95 99.6 -67.0 L99.35 -67.05 Q98.4 -67.0 97.7 -66.35 97.15 -65.95 96.95 -65.3 L96.85 -64.65 Q96.7 -63.55 97.45 -62.7 98.15 -61.95 99.1 -61.85 L99.2 -61.85 100.2 -61.95 100.3 -62.6 101.25 -62.55 101.35 -62.7 101.65 -65.7 101.4 -66.1 101.2 -66.3 M101.6 -66.9 Q100.85 -67.65 99.7 -67.75 L99.55 -67.8 Q98.25 -67.8 97.25 -66.95 L97.15 -66.9 Q96.2 -66.0 96.1 -64.7 96.0 -63.3 96.85 -62.3 97.8 -61.2 99.15 -61.15 L100.15 -61.15 101.05 -61.5 101.6 -61.9 102.15 -62.5 102.45 -62.45 103.8 -62.35 107.9 -62.05 108.35 -62.0 109.7 -61.9 109.3 -56.75 108.2 -56.85 107.25 -44.2 108.3 -44.1 107.9 -38.95 106.75 -39.05 106.2 -38.05 100.1 -38.55 99.65 -39.65 98.55 -39.7 98.95 -44.85 100.0 -44.7 100.95 -57.4 102.0 -57.3 102.45 -62.45 M100.2 -61.95 Q100.75 -62.05 101.15 -62.45 L101.25 -62.55 M100.95 -57.4 L99.85 -57.5 100.15 -61.15 M103.3 -66.8 Q103.35 -67.5 103.7 -68.15 L105.8 -68.15 108.7 -67.85 112.0 -61.4 Q112.2 -55.7 111.75 -49.9 111.55 -49.95 111.3 -50.1 L110.8 -50.5 Q110.45 -53.45 110.95 -56.7 L111.0 -61.0 108.65 -65.5 108.55 -65.9 108.45 -66.1 108.5 -65.95 108.35 -62.0 M105.2 -66.8 L108.45 -66.35 108.45 -66.1 M105.2 -66.8 L104.35 -66.8 104.3 -66.65 Q103.85 -64.7 103.8 -62.35 M101.9 -66.65 L101.95 -66.6 102.75 -65.05 102.75 -64.55 103.25 -64.45 103.45 -64.6 103.65 -64.4 103.65 -64.0 103.55 -63.65 Q103.5 -63.5 103.35 -63.5 L103.15 -63.65 102.7 -63.75 102.65 -63.65 102.15 -62.5 M101.6 -66.9 L101.9 -66.65 101.9 -66.85 103.3 -66.8 104.35 -66.8 M103.25 -64.45 L103.45 -64.45 Q103.6 -64.05 103.35 -63.65 L103.15 -63.65 M102.7 -63.75 L102.75 -64.2 102.75 -64.55 M101.35 -62.7 Q101.95 -63.35 102.05 -64.25 102.1 -65.0 101.65 -65.7 M107.45 -56.9 L108.2 -56.85 M104.5 -55.9 L104.75 -55.95 Q105.35 -55.9 105.75 -55.5 L106.05 -54.4 Q106.0 -53.8 105.55 -53.5 105.15 -53.1 104.55 -53.15 L104.35 -53.15 Q103.9 -53.25 103.6 -53.6 103.2 -54.0 103.25 -54.6 103.25 -55.15 103.75 -55.55 L104.5 -55.9 Q105.0 -55.85 105.3 -55.5 L105.55 -54.5 105.1 -53.55 104.35 -53.15 M104.2 -52.15 Q103.8 -52.1 103.45 -51.8 103.0 -51.45 103.0 -50.85 102.95 -50.25 103.3 -49.85 103.55 -49.5 104.05 -49.4 104.4 -49.45 104.85 -49.8 105.3 -50.15 105.3 -50.7 105.35 -51.3 104.95 -51.75 104.65 -52.05 104.2 -52.15 L104.45 -52.15 Q105.0 -52.15 105.45 -51.7 L105.8 -50.65 105.3 -49.7 Q104.85 -49.35 104.25 -49.35 L104.05 -49.4 M102.0 -57.3 L107.45 -56.9 107.9 -62.05 M106.5 -44.2 L107.25 -44.2 M103.7 -45.65 L103.95 -45.6 Q104.55 -45.6 105.0 -46.0 L105.5 -46.9 Q105.5 -47.5 105.1 -47.9 104.75 -48.35 104.15 -48.4 L103.95 -48.4 104.7 -48.0 105.05 -46.95 104.55 -46.0 Q104.15 -45.7 103.7 -45.65 L103.0 -46.05 Q102.6 -46.55 102.7 -47.15 102.75 -47.7 103.15 -48.05 103.5 -48.4 103.95 -48.4 M106.1 -39.05 L106.5 -44.2 101.05 -44.65 100.9 -43.2 M100.8 -41.35 L100.65 -39.5 106.1 -39.05 106.75 -39.05 M101.05 -44.65 L100.0 -44.7 M100.65 -39.5 L99.65 -39.65" fill="none" stroke="#000000" stroke-linecap="round" stroke-linejoin="round" stroke-opacity="0.5019608" stroke-width="1.0"/>
      <path d="M107.9 -54.45 L100.75 -55.0 100.9 -57.55 108.1 -57.05 107.9 -54.45" fill="url(#gradient14)" fill-rule="evenodd" stroke="none"/>
      <path d="M97.05 -51.45 L95.05 -51.5 95.8 -54.45 94.3 -55.15 103.6 -58.6 102.65 -56.45 104.65 -56.05 103.55 -54.05 105.7 -53.45 96.35 -49.95 97.05 -51.45" fill="#a3a382" fill-rule="evenodd" stroke="none"/>
      <path d="M97.05 -51.45 L95.05 -51.5 95.8 -54.45 94.3 -55.15 103.6 -58.6 102.65 -56.45 104.65 -56.05 103.55 -54.05 105.7 -53.45 96.35 -49.95 97.05 -51.45 Z" fill="none" stroke="#000000" stroke-linecap="round" stroke-linejoin="round" stroke-opacity="0.4" stroke-width="1.0"/>
      <path d="M54.05 -63.0 L52.15 -60.35 53.65 -59.3 41.2 -57.95 43.15 -59.85 40.8 -60.65 42.85 -62.35 40.45 -63.5 53.0 -64.85 51.65 -63.5 54.05 -63.0" fill="#a3a382" fill-rule="evenodd" stroke="none"/>
      <path d="M54.05 -63.0 L52.15 -60.35 53.65 -59.3 41.2 -57.95 43.15 -59.85 40.8 -60.65 42.85 -62.35 40.45 -63.5 53.0 -64.85 51.65 -63.5 54.05 -63.0 Z" fill="none" stroke="#000000" stroke-linecap="round" stroke-linejoin="round" stroke-opacity="0.4" stroke-width="1.0"/>
      <path d="M105.8 -45.65 L107.4 -45.1 107.3 -46.8 112.15 -40.05 110.95 -40.45 111.45 -38.9 109.3 -39.1 109.2 -37.9 104.35 -44.55 106.1 -44.05 105.8 -45.65" fill="#a3a382" fill-rule="evenodd" stroke="none"/>
      <path d="M105.8 -45.65 L107.4 -45.1 107.3 -46.8 112.15 -40.05 110.95 -40.45 111.45 -38.9 109.3 -39.1 109.2 -37.9 104.35 -44.55 106.1 -44.05 105.8 -45.65 Z" fill="none" stroke="#000000" stroke-linecap="round" stroke-linejoin="round" stroke-opacity="0.4" stroke-width="1.0"/>
      <path d="M86.55 -51.65 L94.8 -52.55 93.9 -51.75 95.45 -51.35 94.2 -49.55 95.2 -48.9 87.05 -48.0 88.3 -49.3 86.8 -49.8 88.1 -50.95 86.55 -51.65" fill="#a3a382" fill-rule="evenodd" stroke="none"/>
      <path d="M86.55 -51.65 L94.8 -52.55 93.9 -51.75 95.45 -51.35 94.2 -49.55 95.2 -48.9 87.05 -48.0 88.3 -49.3 86.8 -49.8 88.1 -50.95 86.55 -51.65 Z" fill="none" stroke="#000000" stroke-linecap="round" stroke-linejoin="round" stroke-opacity="0.4" stroke-width="1.0"/>
      <path d="M57.95 -55.95 L58.15 -55.35 Q59.25 -51.9 59.2 -50.05 59.1 -46.9 52.65 -44.45 46.2 -41.9 46.1 -39.0 L46.25 -38.0 46.3 -38.0 46.55 -37.9 46.95 -37.9 Q48.0 -37.9 51.55 -38.95 52.15 -38.7 53.8 -38.15 L54.05 -38.05 54.5 -38.05 Q55.9 -38.05 61.4 -39.8 L62.0 -40.0 62.1 -39.8 62.25 -39.35 Q62.85 -38.45 62.9 -36.95 L62.8 -36.25 Q62.8 -34.75 61.8 -34.2 L59.7 -33.45 56.5 -32.3 51.65 -30.85 Q48.6 -29.95 48.65 -29.05 L48.65 -28.75 Q48.45 -28.25 48.5 -27.45 48.5 -26.85 49.3 -26.15 50.0 -25.6 50.75 -25.5 52.65 -24.8 56.5 -24.8 L58.1 -24.8 58.6 -24.65 59.5 -24.4 59.5 -24.05 59.2 -22.5 Q58.45 -19.25 56.75 -16.4 L56.15 -16.25 54.75 -16.65 51.75 -17.4 50.0 -17.8 47.65 -17.9 47.15 -18.05 44.35 -18.8 42.7 -19.2 39.7 -18.75 Q38.2 -18.85 37.35 -18.2 L25.8 -15.85 20.7 -14.75 Q10.75 -12.55 0.65 -12.25 L-1.05 -12.25 -3.7 -12.15 Q-13.0 -11.8 -26.6 -14.65 -37.85 -16.95 -46.85 -22.8 L-50.35 -25.15 -50.55 -27.05 Q-50.6 -31.95 -48.75 -37.25 -47.1 -42.35 -44.2 -46.45 -41.55 -50.25 -38.3 -53.6 L-33.85 -57.7 -32.15 -56.75 -31.45 -56.25 -29.8 -54.95 Q-26.7 -53.3 -25.95 -52.75 -23.85 -51.05 -19.05 -49.65 -14.25 -48.3 -10.3 -47.5 -6.45 -46.65 3.15 -48.25 L5.3 -48.65 7.15 -48.95 Q17.45 -50.7 20.0 -52.8 22.65 -54.95 22.8 -56.25 L22.85 -56.9 22.8 -58.4 Q22.8 -58.9 23.1 -59.2 L23.4 -59.35 23.75 -59.0 23.8 -59.0 24.15 -58.4 25.6 -55.85 Q26.05 -54.0 26.55 -53.0 27.6 -51.35 30.7 -51.3 32.8 -51.35 38.0 -52.5 40.9 -52.75 47.1 -54.25 52.55 -55.55 57.95 -55.95" fill="#999999" fill-rule="evenodd" stroke="none"/>
      <path d="M51.55 -38.95 Q48.0 -37.9 46.95 -37.9 L46.55 -37.9 46.3 -38.0 46.25 -38.0 46.1 -39.0 Q46.2 -41.9 52.65 -44.45 59.1 -46.9 59.2 -50.05 59.25 -51.9 58.15 -55.35 L57.95 -55.95 58.9 -56.05 62.2 -56.2 Q63.15 -56.15 64.0 -54.3 64.6 -52.75 64.6 -51.8 L64.55 -51.0 Q64.5 -48.8 62.15 -47.15 60.45 -46.0 57.6 -45.05 53.8 -43.85 52.75 -43.3 50.6 -42.2 50.6 -40.5 50.6 -39.55 51.2 -39.1 L51.55 -38.95 M38.0 -52.5 Q32.8 -51.35 30.7 -51.3 27.6 -51.35 26.55 -53.0 26.05 -54.0 25.6 -55.85 L24.15 -58.4 23.8 -59.0 23.75 -59.0 23.4 -59.35 24.45 -60.0 27.1 -60.9 28.5 -61.1 28.85 -61.1 29.35 -60.6 29.4 -60.6 29.75 -59.95 31.3 -57.25 Q31.8 -55.25 32.4 -54.2 33.55 -52.4 36.9 -52.4 L38.0 -52.5 M5.3 -48.65 L3.15 -48.25 Q-6.45 -46.65 -10.3 -47.5 -14.25 -48.3 -19.05 -49.65 -23.85 -51.05 -25.95 -52.75 -26.7 -53.3 -29.8 -54.95 L-31.45 -56.25 -32.15 -56.75 -33.85 -57.7 -31.95 -59.05 -30.8 -57.9 -30.05 -57.4 -28.3 -56.05 -24.15 -53.7 Q-21.85 -51.8 -16.75 -50.35 -11.6 -48.95 -7.35 -48.1 L5.3 -48.65 M-50.35 -25.15 L-46.85 -22.8 Q-37.85 -16.95 -26.6 -14.65 -13.0 -11.8 -3.7 -12.15 L-1.05 -12.25 0.65 -12.25 Q10.75 -12.55 20.7 -14.75 L25.8 -15.85 37.35 -18.2 Q38.2 -18.85 39.7 -18.75 L42.7 -19.2 44.35 -18.8 47.15 -18.05 47.65 -17.9 45.55 -17.7 44.2 -16.75 31.8 -14.15 26.25 -12.95 Q15.55 -10.55 4.6 -10.15 L2.8 -10.15 0.05 -10.0 Q-10.0 -9.55 -24.7 -12.6 -36.8 -15.05 -46.55 -21.3 L-50.15 -23.85 -50.25 -24.65 -50.35 -25.15 M56.15 -16.25 L56.75 -16.4 Q58.45 -19.25 59.2 -22.5 L59.5 -24.05 59.5 -24.4 64.75 -23.9 67.95 -24.05 68.05 -23.8 68.05 -23.15 67.7 -21.5 Q66.9 -18.0 65.15 -14.95 L63.85 -14.65 61.25 -15.1 59.9 -15.4 56.15 -16.25 M58.1 -24.8 L56.5 -24.8 Q52.65 -24.8 50.75 -25.5 50.0 -25.6 49.3 -26.15 48.5 -26.85 48.5 -27.45 48.45 -28.25 48.65 -28.75 L48.65 -29.05 Q48.6 -29.95 51.65 -30.85 L56.5 -32.3 59.7 -33.45 61.8 -34.2 Q62.8 -34.75 62.8 -36.25 L62.9 -36.95 Q62.85 -38.45 62.25 -39.35 L62.1 -39.8 62.0 -40.0 67.0 -41.55 68.8 -41.95 68.85 -41.8 69.0 -41.85 69.8 -41.5 70.15 -41.0 70.75 -40.1 70.95 -39.65 Q71.55 -38.7 71.6 -37.1 L71.5 -36.35 Q71.5 -34.7 70.45 -34.1 L68.15 -33.25 64.8 -31.95 59.55 -30.45 Q56.25 -29.45 56.3 -28.5 L56.3 -28.2 Q56.1 -27.65 56.15 -26.8 56.1 -26.15 57.05 -25.4 L58.1 -24.8" fill="#bdbdbd" fill-rule="evenodd" stroke="none"/>
      <path d="M57.95 -55.95 Q52.55 -55.55 47.1 -54.25 40.9 -52.75 38.0 -52.5 L36.9 -52.4 Q33.55 -52.4 32.4 -54.2 31.8 -55.25 31.3 -57.25 L29.75 -59.95 29.4 -60.6 29.35 -60.6 28.85 -61.1 28.5 -61.1 27.1 -60.9 24.45 -60.0 23.4 -59.35 23.1 -59.2 Q22.8 -58.9 22.8 -58.4 L22.85 -56.9 22.8 -56.25 Q22.65 -54.95 20.0 -52.8 17.45 -50.7 7.15 -48.95 L5.3 -48.65 -7.35 -48.1 Q-11.6 -48.95 -16.75 -50.35 -21.85 -51.8 -24.15 -53.7 L-28.3 -56.05 -30.05 -57.4 -30.8 -57.9 -31.95 -59.05 Q-32.7 -60.0 -32.6 -61.1 L-32.2 -61.25 -29.45 -59.85 -28.95 -59.55 -22.95 -56.2 Q-12.9 -50.95 -5.85 -51.0 1.3 -51.05 7.0 -52.35 L14.45 -54.25 17.65 -55.1 Q18.7 -55.6 19.15 -56.25 L19.4 -58.5 19.4 -58.55 Q19.7 -61.75 25.5 -63.6 28.55 -64.65 30.05 -64.2 L30.1 -64.15 Q31.1 -63.8 31.25 -62.65 L33.6 -58.75 Q35.6 -55.15 36.7 -55.15 L45.1 -56.8 Q51.35 -58.25 56.55 -58.7 L56.9 -58.7 58.3 -58.85 Q64.15 -59.25 66.05 -56.95 67.55 -55.1 67.6 -49.35 67.6 -48.5 67.1 -47.7 L66.0 -46.5 65.65 -46.2 Q64.45 -45.25 62.75 -44.45 L59.2 -43.35 55.9 -42.05 55.85 -42.0 Q58.65 -42.25 61.3 -43.1 63.85 -44.05 66.35 -44.6 L66.55 -44.55 67.7 -44.85 67.75 -44.85 68.25 -45.0 68.95 -44.95 70.05 -44.95 70.3 -44.8 70.65 -44.6 71.25 -44.0 72.05 -42.95 72.25 -42.55 72.3 -42.45 72.45 -42.05 72.9 -40.8 74.05 -38.1 74.1 -36.2 Q74.15 -34.15 73.8 -33.6 73.0 -32.15 69.5 -30.7 67.75 -29.95 64.2 -28.9 59.95 -27.65 58.3 -27.6 L58.35 -27.2 Q58.8 -26.45 60.95 -26.45 L64.95 -26.25 65.5 -26.3 69.4 -25.95 Q70.2 -25.5 70.3 -24.8 L70.35 -23.15 Q70.25 -19.75 68.95 -16.5 L68.5 -14.95 Q68.0 -12.2 64.3 -12.15 L59.7 -12.8 55.3 -13.85 48.2 -15.55 43.9 -14.25 Q39.4 -12.85 37.3 -12.4 L31.8 -11.5 26.2 -10.65 4.65 -7.2 0.9 -7.15 -20.45 -8.35 Q-32.1 -10.15 -39.35 -15.0 L-45.45 -18.45 -46.6 -19.1 Q-49.1 -20.8 -50.1 -22.1 -50.85 -22.9 -50.9 -23.6 L-50.8 -24.3 -50.75 -24.35 -50.15 -23.85 -46.55 -21.3 Q-36.8 -15.05 -24.7 -12.6 -10.0 -9.55 0.05 -10.0 L2.8 -10.15 4.6 -10.15 Q15.55 -10.55 26.25 -12.95 L31.8 -14.15 44.2 -16.75 45.55 -17.7 47.65 -17.9 50.0 -17.8 51.75 -17.4 54.75 -16.65 56.15 -16.25 59.9 -15.4 61.25 -15.1 63.85 -14.65 65.15 -14.95 Q66.9 -18.0 67.7 -21.5 L68.05 -23.15 68.05 -23.8 67.95 -24.05 64.75 -23.9 59.5 -24.4 58.6 -24.65 58.1 -24.8 57.05 -25.4 Q56.1 -26.15 56.15 -26.8 56.1 -27.65 56.3 -28.2 L56.3 -28.5 Q56.25 -29.45 59.55 -30.45 L64.8 -31.95 68.15 -33.25 70.45 -34.1 Q71.5 -34.7 71.5 -36.35 L71.6 -37.1 Q71.55 -38.7 70.95 -39.65 L70.75 -40.1 70.15 -41.0 69.8 -41.5 69.0 -41.85 68.85 -41.8 68.8 -41.95 67.0 -41.55 62.0 -40.0 61.4 -39.8 Q55.9 -38.05 54.5 -38.05 L54.05 -38.05 53.8 -38.15 Q52.15 -38.7 51.55 -38.95 L51.2 -39.1 Q50.6 -39.55 50.6 -40.5 50.6 -42.2 52.75 -43.3 53.8 -43.85 57.6 -45.05 60.45 -46.0 62.15 -47.15 64.5 -48.8 64.55 -51.0 L64.6 -51.8 Q64.6 -52.75 64.0 -54.3 63.15 -56.15 62.2 -56.2 L58.9 -56.05 57.95 -55.95" fill="#000000" fill-rule="evenodd" stroke="none"/>
      <path d="M119.0 -50.2 L121.95 -49.9 Q123.6 -50.35 124.5 -54.05 125.5 -58.1 123.7 -58.8 L120.3 -60.05 117.7 -61.0 Q112.05 -63.65 110.7 -64.0 L106.8 -65.2 106.25 -65.0 105.9 -64.75 104.9 -63.9 103.75 -62.3 103.15 -60.75 Q102.75 -59.45 102.65 -58.45 102.5 -57.5 103.25 -56.4 105.35 -53.45 116.25 -50.8 L119.0 -50.2 M127.15 -56.0 L126.45 -53.65 Q125.75 -50.75 125.15 -49.4 124.6 -48.3 123.65 -48.0 L122.85 -47.85 122.9 -47.5 122.9 -46.1 122.65 -43.95 121.75 -41.1 Q121.2 -39.1 120.3 -38.05 121.85 -37.5 122.55 -36.1 123.05 -35.15 123.05 -33.4 L122.65 -30.7 122.05 -27.7 Q120.85 -23.8 119.2 -22.95 L115.75 -22.65 114.7 -22.65 108.0 -23.4 100.55 -25.75 Q97.15 -26.9 95.85 -28.2 94.9 -29.2 94.9 -30.8 L96.15 -36.85 Q96.4 -38.2 97.0 -39.85 L97.05 -40.0 96.0 -40.4 Q92.85 -41.55 92.15 -42.9 91.85 -43.5 91.85 -45.7 L91.9 -47.9 Q92.3 -50.2 93.5 -52.15 94.2 -53.2 95.0 -53.6 95.65 -54.05 96.4 -54.3 98.2 -54.35 100.45 -53.65 L103.3 -52.8 Q99.65 -55.5 100.95 -60.8 L101.6 -63.15 102.4 -64.8 103.05 -65.35 103.55 -65.7 106.25 -67.2 106.65 -67.25 108.4 -67.1 111.55 -66.35 113.4 -65.7 116.95 -64.15 118.15 -63.6 Q125.45 -60.3 126.75 -58.15 127.4 -57.2 127.15 -56.0 M116.75 -48.4 L113.4 -49.15 108.65 -50.45 107.5 -50.5 103.65 -51.2 98.05 -51.85 96.4 -51.65 Q94.7 -50.45 94.35 -48.5 L94.2 -47.9 94.1 -45.75 Q94.1 -44.1 94.3 -43.85 94.85 -43.1 98.0 -42.15 101.2 -41.15 107.4 -40.2 L114.55 -39.35 115.0 -39.35 Q118.05 -39.35 118.65 -39.95 L120.15 -44.1 120.35 -46.85 Q120.4 -47.45 120.6 -47.85 L116.75 -48.4 M117.2 -36.7 L116.65 -36.85 115.0 -36.85 108.0 -37.65 101.0 -38.75 98.7 -39.45 Q98.35 -39.2 98.3 -38.75 L97.65 -36.05 97.0 -33.35 Q96.6 -31.75 96.6 -30.75 96.6 -29.7 98.8 -28.7 100.8 -27.8 103.95 -27.2 L107.8 -26.0 Q111.45 -24.95 115.6 -24.95 L115.7 -24.95 Q118.65 -24.95 119.25 -25.45 119.75 -25.95 120.65 -29.3 L121.25 -33.45 Q121.25 -35.9 118.5 -36.4 L117.2 -36.7" fill="#000000" fill-rule="evenodd" stroke="none"/>
      <path d="M120.3 -60.05 L123.7 -58.8 Q125.5 -58.1 124.5 -54.05 123.6 -50.35 121.95 -49.9 L119.0 -50.2 120.55 -50.75 Q121.6 -51.8 121.75 -52.95 L121.75 -55.35 Q121.75 -57.6 120.3 -60.05 M114.55 -39.35 Q114.55 -40.95 115.45 -43.95 L116.75 -48.4 120.6 -47.85 Q120.4 -47.45 120.35 -46.85 L120.15 -44.1 118.65 -39.95 Q118.05 -39.35 115.0 -39.35 L114.55 -39.35 M117.2 -36.7 L118.5 -36.4 Q121.25 -35.9 121.25 -33.45 L120.65 -29.3 Q119.75 -25.95 119.25 -25.45 118.65 -24.95 115.7 -24.95 L115.6 -24.95 116.35 -27.35 117.5 -31.1 117.75 -34.25 Q117.75 -35.65 117.2 -36.7" fill="#bdbdbd" fill-rule="evenodd" stroke="none"/>
      <path d="M120.3 -60.05 Q121.75 -57.6 121.75 -55.35 L121.75 -52.95 Q121.6 -51.8 120.55 -50.75 L119.0 -50.2 116.25 -50.8 Q105.35 -53.45 103.25 -56.4 102.5 -57.5 102.65 -58.45 102.75 -59.45 103.15 -60.75 L103.75 -62.3 104.9 -63.9 105.9 -64.75 106.25 -65.0 106.8 -65.2 110.7 -64.0 Q112.05 -63.65 117.7 -61.0 L120.3 -60.05 M114.55 -39.35 L107.4 -40.2 Q101.2 -41.15 98.0 -42.15 94.85 -43.1 94.3 -43.85 94.1 -44.1 94.1 -45.75 L94.2 -47.9 94.35 -48.5 Q94.7 -50.45 96.4 -51.65 L98.05 -51.85 103.65 -51.2 107.5 -50.5 108.65 -50.45 113.4 -49.15 116.75 -48.4 115.45 -43.95 Q114.55 -40.95 114.55 -39.35 M115.6 -24.95 Q111.45 -24.95 107.8 -26.0 L103.95 -27.2 Q100.8 -27.8 98.8 -28.7 96.6 -29.7 96.6 -30.75 96.6 -31.75 97.0 -33.35 L97.65 -36.05 98.3 -38.75 Q98.35 -39.2 98.7 -39.45 L101.0 -38.75 108.0 -37.65 115.0 -36.85 116.65 -36.85 117.2 -36.7 Q117.75 -35.65 117.75 -34.25 L117.5 -31.1 116.35 -27.35 115.6 -24.95" fill="#999999" fill-rule="evenodd" stroke="none"/>
    </g>
    <linearGradient gradientTransform="matrix(-0.0011, 0.0052, -0.0091, -0.0018, 69.9, -54.05)" gradientUnits="userSpaceOnUse" id="gradient0" spreadMethod="pad" x1="-819.2" x2="819.2">
      <stop offset="0.0" stop-color="#f2a830"/>
      <stop offset="1.0" stop-color="#ffcc33"/>
    </linearGradient>
    <linearGradient gradientTransform="matrix(-8.0E-4, 0.0039, -0.0037, -7.0E-4, 80.35, -51.7)" gradientUnits="userSpaceOnUse" id="gradient1" spreadMethod="pad" x1="-819.2" x2="819.2">
      <stop offset="0.0" stop-color="#666666"/>
      <stop offset="1.0" stop-color="#949494"/>
    </linearGradient>
    <linearGradient gradientTransform="matrix(-3.0E-4, 0.0013, -0.0037, -7.0E-4, 79.5, -47.45)" gradientUnits="userSpaceOnUse" id="gradient2" spreadMethod="pad" x1="-819.2" x2="819.2">
      <stop offset="0.0" stop-color="#999999"/>
      <stop offset="1.0" stop-color="#cccccc"/>
    </linearGradient>
    <linearGradient gradientTransform="matrix(-3.0E-4, 0.0017, -0.002, -4.0E-4, 74.35, -53.05)" gradientUnits="userSpaceOnUse" id="gradient3" spreadMethod="pad" x1="-819.2" x2="819.2">
      <stop offset="0.0" stop-color="#662700"/>
      <stop offset="1.0" stop-color="#a14309"/>
    </linearGradient>
    <linearGradient gradientTransform="matrix(-0.0017, -4.0E-4, 0.0018, -0.0091, 77.35, -59.8)" gradientUnits="userSpaceOnUse" id="gradient4" spreadMethod="pad" x1="-819.2" x2="819.2">
      <stop offset="0.0" stop-color="#000000" stop-opacity="0.32156864"/>
      <stop offset="1.0" stop-color="#000000" stop-opacity="0.0"/>
    </linearGradient>
    <linearGradient gradientTransform="matrix(-0.0033, -8.0E-4, -7.0E-4, 0.0031, 44.7, -70.2)" gradientUnits="userSpaceOnUse" id="gradient5" spreadMethod="pad" x1="-819.2" x2="819.2">
      <stop offset="0.0" stop-color="#666666"/>
      <stop offset="1.0" stop-color="#949494"/>
    </linearGradient>
    <linearGradient gradientTransform="matrix(-0.0011, -2.0E-4, -7.0E-4, 0.0031, 41.15, -71.0)" gradientUnits="userSpaceOnUse" id="gradient6" spreadMethod="pad" x1="-819.2" x2="819.2">
      <stop offset="0.0" stop-color="#999999"/>
      <stop offset="1.0" stop-color="#cccccc"/>
    </linearGradient>
    <linearGradient gradientTransform="matrix(-0.0043, -0.001, -0.0018, 0.0076, 42.85, -61.45)" gradientUnits="userSpaceOnUse" id="gradient7" spreadMethod="pad" x1="-819.2" x2="819.2">
      <stop offset="0.0" stop-color="#f2a830"/>
      <stop offset="1.0" stop-color="#ffcc33"/>
    </linearGradient>
    <linearGradient gradientTransform="matrix(-0.0014, -3.0E-4, -4.0E-4, 0.0016, 43.6, -65.1)" gradientUnits="userSpaceOnUse" id="gradient8" spreadMethod="pad" x1="-819.2" x2="819.2">
      <stop offset="0.0" stop-color="#662700"/>
      <stop offset="1.0" stop-color="#a14309"/>
    </linearGradient>
    <linearGradient gradientTransform="matrix(-3.0E-4, 0.0014, 0.0076, 0.0018, 49.8, -65.2)" gradientUnits="userSpaceOnUse" id="gradient9" spreadMethod="pad" x1="-819.2" x2="819.2">
      <stop offset="0.0" stop-color="#000000" stop-opacity="0.32156864"/>
      <stop offset="1.0" stop-color="#000000" stop-opacity="0.0"/>
    </linearGradient>
    <linearGradient gradientTransform="matrix(0.0033, 3.0E-4, -2.0E-4, 0.0031, 104.9, -59.7)" gradientUnits="userSpaceOnUse" id="gradient10" spreadMethod="pad" x1="-819.2" x2="819.2">
      <stop offset="0.0" stop-color="#666666"/>
      <stop offset="1.0" stop-color="#949494"/>
    </linearGradient>
    <linearGradient gradientTransform="matrix(0.0011, 1.0E-4, -2.0E-4, 0.0031, 108.6, -59.4)" gradientUnits="userSpaceOnUse" id="gradient11" spreadMethod="pad" x1="-819.2" x2="819.2">
      <stop offset="0.0" stop-color="#999999"/>
      <stop offset="1.0" stop-color="#cccccc"/>
    </linearGradient>
    <linearGradient gradientTransform="matrix(0.0044, 3.0E-4, -6.0E-4, 0.0077, 104.1, -50.8)" gradientUnits="userSpaceOnUse" id="gradient12" spreadMethod="pad" x1="-819.2" x2="819.2">
      <stop offset="0.0" stop-color="#f2a830"/>
      <stop offset="1.0" stop-color="#ffcc33"/>
    </linearGradient>
    <linearGradient gradientTransform="matrix(0.0014, 1.0E-4, -1.0E-4, 0.0017, 104.45, -54.55)" gradientUnits="userSpaceOnUse" id="gradient13" spreadMethod="pad" x1="-819.2" x2="819.2">
      <stop offset="0.0" stop-color="#662700"/>
      <stop offset="1.0" stop-color="#a14309"/>
    </linearGradient>
    <linearGradient gradientTransform="matrix(-1.0E-4, 0.0015, -0.0077, -6.0E-4, 98.6, -56.45)" gradientUnits="userSpaceOnUse" id="gradient14" spreadMethod="pad" x1="-819.2" x2="819.2">
      <stop offset="0.0" stop-color="#000000" stop-opacity="0.32156864"/>
      <stop offset="1.0" stop-color="#000000" stop-opacity="0.0"/>
    </linearGradient>
  </defs>
</svg>
