<?xml version="1.0" encoding="UTF-8" standalone="no"?>
<svg xmlns:xlink="http://www.w3.org/1999/xlink" height="531.5px" width="460.6px" xmlns="http://www.w3.org/2000/svg">
  <g transform="matrix(1.0, 0.0, 0.0, 1.0, 193.65, 334.05)">
    <use height="162.35" transform="matrix(0.2781, 0.0517, -0.0517, 0.2781, -80.5576, -24.8046)" width="428.9" xlink:href="#shape0"/>
    <use height="97.55" transform="matrix(1.0, 0.0, 0.0, 1.0, -72.55, -56.8)" width="60.2" xlink:href="#shape1"/>
  </g>
  <defs>
    <g id="shape0" transform="matrix(1.0, 0.0, 0.0, 1.0, 0.3, 0.5)">
      <path d="M396.4 118.2 L428.3 121.6 399.0 123.1 397.35 123.2 396.4 118.2 397.35 123.2 374.65 124.35 357.5 125.25 357.6 114.1 357.5 125.25 347.35 125.75 330.65 126.6 334.2 111.6 330.65 126.6 319.6 127.2 296.6 128.35 303.1 108.3 305.95 108.6 334.2 111.6 337.1 111.9 357.6 114.1 361.25 114.5 378.45 116.3 396.4 118.2 M383.3 115.65 L376.8 110.35 383.3 115.65 359.15 112.5 349.0 104.25 359.15 112.5 358.9 112.45 334.0 109.15 333.75 109.15 303.2 105.1 302.95 105.1 269.1 100.65 241.4 97.0 238.2 96.55 241.3 96.8 207.9 92.55 189.05 69.3 226.95 77.6 254.0 83.5 281.55 89.55 320.6 98.05 349.0 104.25 376.8 110.35 428.3 121.6 383.3 115.65 M379.0 123.75 L378.45 116.3 379.0 123.75 M282.45 106.1 L270.45 106.15 271.0 104.9 272.95 105.1 282.45 106.1 M101.0 78.5 L39.0 36.5 106.1 51.15 149.05 60.55 189.05 69.3 207.9 92.55 177.8 88.6 145.45 84.35 101.0 78.5 M241.4 97.0 L241.3 96.8 241.4 97.0 M226.95 77.6 L241.3 96.8 226.95 77.6 M254.0 83.5 L269.1 100.65 254.0 83.5 M149.05 60.55 L177.8 88.6 149.05 60.55 M320.6 98.05 L333.75 109.15 320.6 98.05 M281.55 89.55 L302.95 105.1 281.55 89.55 M145.45 84.35 L106.1 51.15 145.45 84.35" fill="#ffffff" fill-rule="evenodd" stroke="none"/>
      <path d="M397.35 123.2 L399.0 123.1 428.3 121.6 396.4 118.2 378.45 116.3 361.25 114.5 357.6 114.1 337.1 111.9 334.2 111.6 305.95 108.6 303.1 108.3 282.45 106.1 272.95 105.1 271.0 104.9 244.3 102.05 210.55 98.5 210.4 98.45 180.1 95.25 147.4 91.75 107.1 87.5 101.0 78.5 145.45 84.35 177.8 88.6 180.1 95.25 177.8 88.6 207.9 92.55 241.3 96.8 238.2 96.55 241.4 97.0 269.1 100.65 272.95 105.1 269.1 100.65 302.95 105.1 303.2 105.1 333.75 109.15 334.0 109.15 358.9 112.45 359.15 112.5 383.3 115.65 428.3 121.6 399.8 125.6 376.3 128.9 374.65 124.35 376.3 128.9 350.25 132.55 322.95 136.4 294.75 140.35 268.95 144.0 241.8 147.8 216.05 151.45 191.45 154.9 166.05 158.45 144.0 161.55 129.25 136.9 158.4 135.4 185.0 134.05 237.3 131.4 265.1 129.95 291.65 128.6 296.6 128.35 319.6 127.2 330.65 126.6 347.35 125.75 357.5 125.25 374.65 124.35 397.35 123.2 M399.0 123.1 L399.8 125.6 399.0 123.1 M361.25 114.5 L359.15 112.5 361.25 114.5 M337.1 111.9 L333.75 109.15 337.1 111.9 M330.55 127.0 L330.65 126.6 330.55 127.0 M347.35 125.75 L350.25 132.55 347.35 125.75 M147.4 91.75 L145.45 84.35 147.4 91.75 M210.4 98.45 L207.9 92.55 210.4 98.45 M191.45 154.9 L185.0 134.05 191.45 154.9 M210.8 133.0 L216.05 151.45 210.8 133.0 M241.8 147.8 L237.3 131.4 241.8 147.8 M322.95 136.4 L319.6 127.2 322.95 136.4 M291.65 128.6 L294.75 140.35 291.65 128.6 M305.95 108.6 L303.2 105.1 305.95 108.6 M244.3 102.05 L241.4 97.0 244.3 102.05 M265.1 129.95 L268.95 144.0 265.1 129.95 M158.4 135.4 L166.05 158.45 158.4 135.4" fill="#d1d1d1" fill-rule="evenodd" stroke="none"/>
      <path d="M397.35 123.2 L399.0 123.1 428.3 121.6 396.4 118.2 378.45 116.3 361.25 114.5 357.6 114.1 337.1 111.9 334.2 111.6 305.95 108.6 303.1 108.3 M397.35 123.2 L374.65 124.35 357.5 125.25 347.35 125.75 330.65 126.6 319.6 127.2 296.6 128.35 M376.3 128.9 L399.8 125.6 428.3 121.6 376.8 110.35 349.0 104.25 320.6 98.05 281.55 89.55 254.0 83.5 226.95 77.6 189.05 69.3 149.05 60.55 106.1 51.15 39.0 36.5 101.0 78.5 107.1 87.5 M383.3 115.65 L428.3 121.6 M359.15 112.5 L383.3 115.65 M358.9 112.45 L334.0 109.15 M376.3 128.9 L350.25 132.55 322.95 136.4 294.75 140.35 268.95 144.0 241.8 147.8 216.05 151.45 191.45 154.9 166.05 158.45 144.0 161.55 129.25 136.9 M177.8 88.6 L145.45 84.35 101.0 78.5 M241.4 97.0 L238.2 96.55 241.3 96.8 207.9 92.55 177.8 88.6 M241.4 97.0 L269.1 100.65 302.95 105.1 M303.2 105.1 L333.75 109.15 M282.45 106.1 L272.95 105.1 271.0 104.9" fill="none" stroke="#000000" stroke-linecap="round" stroke-linejoin="round" stroke-opacity="0.5019608" stroke-width="0.6000000000000001"/>
      <path d="M396.4 118.2 L397.35 123.2 M376.8 110.35 L383.3 115.65 M349.0 104.25 L359.15 112.5 M378.45 116.3 L379.0 123.75 M357.6 114.1 L357.5 125.25 M334.0 109.15 L333.75 109.15 320.6 98.05 M334.2 111.6 L330.65 126.6 330.55 127.0 M269.1 100.65 L254.0 83.5 M241.3 96.8 L226.95 77.6 M189.05 69.3 L207.9 92.55 M177.8 88.6 L149.05 60.55 M302.95 105.1 L303.2 105.1 M302.95 105.1 L281.55 89.55 M106.1 51.15 L145.45 84.35" fill="none" stroke="#a0a7ff" stroke-linecap="round" stroke-linejoin="round" stroke-width="0.6000000000000001"/>
      <path d="M374.65 124.35 L376.3 128.9 M399.8 125.6 L399.0 123.1 M359.15 112.5 L361.25 114.5 M359.15 112.5 L358.9 112.45 M333.75 109.15 L337.1 111.9 M350.25 132.55 L347.35 125.75 M180.1 95.25 L177.8 88.6 M145.45 84.35 L147.4 91.75 M207.9 92.55 L210.4 98.45 M241.3 96.8 L241.4 97.0 244.3 102.05 M237.3 131.4 L241.8 147.8 M216.05 151.45 L210.8 133.0 M185.0 134.05 L191.45 154.9 M294.75 140.35 L291.65 128.6 M319.6 127.2 L322.95 136.4 M303.2 105.1 L305.95 108.6 M272.95 105.1 L269.1 100.65 M268.95 144.0 L265.1 129.95 M166.05 158.45 L158.4 135.4" fill="none" stroke="#6e73c1" stroke-linecap="round" stroke-linejoin="round" stroke-width="0.6000000000000001"/>
      <path d="M168.3 64.1 L170.5 67.1 Q172.75 64.6 173.9 58.7 174.85 53.65 174.65 48.95 L174.95 48.9 Q178.0 52.2 181.95 62.55 183.85 67.55 185.15 71.8 184.45 75.4 183.05 78.95 L178.25 78.35 175.65 78.3 172.8 78.3 170.95 78.45 168.3 64.1 170.95 78.45 Q164.65 78.95 159.35 80.95 L158.3 81.35 Q153.9 83.15 150.1 86.0 L149.4 86.55 Q146.4 88.9 144.45 91.55 106.55 76.4 91.95 64.7 96.0 63.2 101.7 62.05 109.55 60.4 114.95 60.15 L119.2 60.15 125.65 60.25 125.65 59.7 120.0 54.7 117.45 52.6 118.7 52.55 Q92.8 30.2 71.75 4.85 87.65 8.75 104.4 16.2 125.5 25.6 139.75 36.35 149.8 43.95 159.45 54.0 165.1 59.95 168.3 64.1 M140.45 79.5 L150.1 86.0 140.45 79.5 M155.5 75.75 L159.35 80.95 155.5 75.75" fill="#3e383f" fill-rule="evenodd" stroke="none"/>
      <path d="M132.05 21.55 Q151.45 32.45 168.05 48.05 L170.4 31.55 Q189.45 51.2 185.15 71.8 183.85 67.55 181.95 62.55 178.0 52.2 174.95 48.9 L174.65 48.95 Q174.85 53.65 173.9 58.7 172.75 64.6 170.5 67.1 L168.3 64.1 167.9 61.35 168.3 64.1 Q165.1 59.95 159.45 54.0 149.8 43.95 139.75 36.35 125.5 25.6 104.4 16.2 87.65 8.75 71.75 4.85 L67.75 0.0 Q92.4 3.75 113.85 12.75 118.15 14.55 122.35 16.55 127.3 18.95 132.05 21.55 134.2 26.6 134.75 30.55 134.2 26.6 132.05 21.55 M91.95 64.7 Q88.95 62.3 87.0 60.05 100.55 53.1 117.45 52.6 L120.0 54.7 125.65 59.7 125.65 60.25 119.2 60.15 114.95 60.15 Q109.55 60.4 101.7 62.05 96.0 63.2 91.95 64.7" fill="#615e66" fill-rule="evenodd" stroke="none"/>
      <path d="M170.95 78.45 L172.8 78.3 175.65 78.3 178.25 78.35 183.05 78.95 Q190.7 80.3 196.95 84.4 200.35 86.65 202.6 89.3 206.95 94.2 205.95 101.7 L205.95 101.75 Q203.2 107.8 199.1 112.1 L191.15 107.9 177.85 100.8 Q168.75 94.6 163.9 90.75 168.4 84.4 175.65 78.3 168.4 84.4 163.9 90.75 158.5 86.45 158.3 81.35 L159.35 80.95 Q164.65 78.95 170.95 78.45 M191.15 107.9 L193.0 101.35 Q196.4 92.15 202.6 89.3 196.4 92.15 193.0 101.35 L191.15 107.9" fill="#e2d1ad" fill-rule="evenodd" stroke="none"/>
      <path d="M191.15 107.9 L199.1 112.1 Q194.35 117.0 187.8 119.5 181.9 121.75 174.5 122.0 161.8 120.75 153.65 116.7 143.2 111.4 140.35 101.35 140.95 96.05 144.45 91.55 146.4 88.9 149.4 86.55 L150.1 86.0 Q153.9 83.15 158.3 81.35 158.5 86.45 163.9 90.75 168.75 94.6 177.85 100.8 L191.15 107.9 187.8 119.5 191.15 107.9 M153.65 116.7 L158.3 101.35 Q160.15 95.95 163.9 90.75 160.15 95.95 158.3 101.35 L153.65 116.7" fill="url(#gradient0)" fill-rule="evenodd" stroke="none"/>
      <path d="M185.15 71.8 Q189.45 51.2 170.4 31.55 L168.05 48.05 Q151.45 32.45 132.05 21.55 127.3 18.95 122.35 16.55 118.15 14.55 113.85 12.75 92.4 3.75 67.75 0.0 L71.75 4.85 Q92.8 30.2 118.7 52.55 L117.45 52.6 Q100.55 53.1 87.0 60.05 88.95 62.3 91.95 64.7 106.55 76.4 144.45 91.55 140.95 96.05 140.35 101.35 143.2 111.4 153.65 116.7 161.8 120.75 174.5 122.0 181.9 121.75 187.8 119.5 194.35 117.0 199.1 112.1 203.2 107.8 205.95 101.75 L205.95 101.7 Q206.95 94.2 202.6 89.3 200.35 86.65 196.95 84.4 190.7 80.3 183.05 78.95 184.45 75.4 185.15 71.8 M205.95 101.7 L206.1 101.35 205.95 101.75" fill="none" stroke="#000000" stroke-linecap="round" stroke-linejoin="round" stroke-opacity="0.4" stroke-width="1.0"/>
      <path d="M132.05 21.55 Q134.2 26.6 134.75 30.55 M168.3 64.1 L170.95 78.45 172.8 78.3 175.65 78.3 178.25 78.35 183.05 78.95 M168.3 64.1 L167.9 61.35 M144.45 91.55 Q146.4 88.9 149.4 86.55 L150.1 86.0 140.45 79.5 M150.1 86.0 Q153.9 83.15 158.3 81.35 L159.35 80.95 155.5 75.75 M170.95 78.45 Q164.65 78.95 159.35 80.95" fill="none" stroke="#000000" stroke-linecap="round" stroke-linejoin="round" stroke-opacity="0.5019608" stroke-width="1.0"/>
      <path d="M163.9 90.75 Q168.4 84.4 175.65 78.3 M202.6 89.3 Q196.4 92.15 193.0 101.35 L191.15 107.9 187.8 119.5 M163.9 90.75 Q160.15 95.95 158.3 101.35 L153.65 116.7" fill="none" stroke="#000000" stroke-linecap="round" stroke-linejoin="round" stroke-opacity="0.3019608" stroke-width="1.0"/>
      <path d="M210.4 98.45 L210.55 98.5 241.05 101.7 239.75 103.5 241.05 101.7 257.45 103.45 271.0 104.9 270.45 106.15 237.75 106.3 270.45 106.15 259.0 130.0 270.45 106.15 282.45 106.1 282.7 106.15 303.1 108.3 296.6 128.35 291.65 128.6 218.2 132.35 237.75 106.3 218.2 132.35 173.0 134.65 158.4 135.4 129.25 136.9 82.85 139.3 82.55 139.3 0.0 143.5 62.95 106.9 68.5 103.7 98.0 86.5 145.0 91.5 176.6 94.85 207.75 98.2 210.4 98.45 M202.65 103.55 L207.75 98.2 202.65 103.55 239.75 103.5 202.65 103.55 199.9 106.4 202.65 103.55 167.35 103.6 202.65 103.55 M291.55 128.3 L291.65 128.6 291.55 128.3 M237.75 106.3 L239.75 103.5 237.75 106.3 199.9 106.4 237.75 106.3 M199.9 106.4 L164.25 106.55 199.9 106.4 173.0 134.65 199.9 106.4 M239.75 103.5 L257.45 103.45 239.75 103.5 M132.05 136.5 L164.25 106.55 167.35 103.6 164.25 106.55 132.05 136.5 M176.6 94.85 L167.35 103.6 176.6 94.85 M158.25 135.0 L158.4 135.4 158.25 135.0 M129.25 136.9 L129.0 136.5 129.25 136.9 M129.25 103.65 L125.25 106.7 129.25 103.65 68.5 103.7 129.25 103.65 145.0 91.5 129.25 103.65 167.35 103.6 129.25 103.65 M125.25 106.7 L82.85 139.3 125.25 106.7 62.95 106.9 125.25 106.7 164.25 106.55 125.25 106.7" fill="#ffffff" fill-rule="evenodd" stroke="none"/>
      <path d="M210.4 98.45 L207.75 98.2 176.6 94.85 145.0 91.5 98.0 86.5 68.5 103.7 62.95 106.9 0.0 143.5 82.55 139.3 M241.05 101.7 L210.55 98.5 M218.2 132.35 L291.65 128.6 296.6 128.35 M271.0 104.9 L257.45 103.45 241.05 101.7 M218.2 132.35 L173.0 134.65 158.4 135.4 129.25 136.9 82.85 139.3 M282.7 106.15 L303.1 108.3 M129.0 136.5 L129.25 136.9" fill="none" stroke="#000000" stroke-linecap="round" stroke-linejoin="round" stroke-opacity="0.5019608" stroke-width="0.6000000000000001"/>
      <path d="M210.55 98.5 L210.4 98.45 M291.65 128.6 L291.55 128.3 M158.4 135.4 L158.25 135.0" fill="none" stroke="#6e73c1" stroke-linecap="round" stroke-linejoin="round" stroke-width="0.6000000000000001"/>
      <path d="M207.75 98.2 L202.65 103.55 199.9 106.4 173.0 134.65 M239.75 103.5 L241.05 101.7 M237.75 106.3 L218.2 132.35 M239.75 103.5 L237.75 106.3 M270.45 106.15 L271.0 104.9 M167.35 103.6 L164.25 106.55 132.05 136.5 M82.85 139.3 L82.55 139.3 M303.1 108.3 L296.6 128.35 M259.0 130.0 L270.45 106.15 M167.35 103.6 L176.6 94.85 M125.25 106.7 L129.25 103.65 145.0 91.5 M82.85 139.3 L125.25 106.7" fill="none" stroke="#a0a7ff" stroke-linecap="round" stroke-linejoin="round" stroke-width="0.6000000000000001"/>
      <path d="M202.65 103.55 L239.75 103.5 257.45 103.45 M237.75 106.3 L270.45 106.15 282.45 106.1 M164.25 106.55 L199.9 106.4 237.75 106.3 M202.65 103.55 L167.35 103.6 129.25 103.65 68.5 103.7 M125.25 106.7 L62.95 106.9 M164.25 106.55 L125.25 106.7" fill="none" stroke="#ff9999" stroke-linecap="round" stroke-linejoin="round" stroke-width="1.0"/>
      <path d="M282.45 106.1 L282.7 106.15" fill="none" stroke="#ff9999" stroke-linecap="round" stroke-linejoin="round" stroke-width="0.5"/>
    </g>
    <linearGradient gradientTransform="matrix(0.009, -0.0174, -0.0146, -0.0076, 160.55, 95.1)" gradientUnits="userSpaceOnUse" id="gradient0" spreadMethod="pad" x1="-819.2" x2="819.2">
      <stop offset="0.0" stop-color="#5e5549"/>
      <stop offset="1.0" stop-color="#e2d1ad"/>
    </linearGradient>
    <g id="shape1" transform="matrix(1.0, 0.0, 0.0, 1.0, 72.55, 56.8)">
      <path d="M-13.5 -39.35 L-13.35 -39.75 -12.8 -39.4 -12.65 -39.25 Q-12.35 -38.85 -12.35 -38.0 -15.0 -33.0 -17.6 -26.9 -22.85 -14.8 -22.85 -8.9 L-22.35 -5.0 -21.9 -3.2 -21.8 -2.95 -19.5 -3.25 -17.15 -2.95 -16.35 -1.55 Q-15.0 1.1 -14.45 4.1 L-14.3 4.75 Q-13.95 6.45 -13.95 7.05 -13.95 7.95 -14.55 8.2 L-16.9 8.7 Q-18.65 8.95 -20.4 9.9 -22.2 10.8 -22.65 12.55 -23.2 14.25 -23.4 16.85 L-23.65 21.3 Q-23.7 23.2 -24.9 24.8 -26.15 26.4 -26.5 27.7 L-26.2 30.8 Q-26.2 32.1 -25.55 34.0 L-25.15 35.2 -25.25 36.15 -25.65 36.9 -25.7 37.05 -25.8 37.1 Q-26.35 38.0 -27.75 39.1 -29.95 40.75 -31.65 40.75 -35.6 40.75 -38.5 38.5 L-38.85 38.2 -40.45 39.05 Q-43.4 40.55 -45.1 40.55 L-45.4 40.55 Q-46.95 40.5 -48.4 39.85 -50.65 38.9 -52.65 36.55 L-52.65 36.5 -52.85 36.6 -53.3 36.7 -54.35 36.75 Q-61.75 36.75 -64.85 26.25 L-66.3 20.95 -67.55 15.3 -69.25 4.8 Q-70.55 -2.65 -70.55 -6.3 -70.55 -10.0 -69.2 -15.8 -67.85 -21.65 -60.35 -41.35 -53.5 -59.5 -52.85 -56.3 L-52.8 -56.1 -52.8 -55.65 -52.8 -55.6 Q-52.5 -56.1 -53.0 -54.85 L-54.4 -51.65 -57.45 -44.85 Q-61.35 -36.05 -63.55 -29.75 -65.8 -23.55 -67.35 -17.75 -68.05 -15.4 -68.25 -13.0 L-68.7 -6.35 Q-68.95 -2.1 -67.95 3.45 L-65.45 16.25 Q-63.9 23.5 -62.8 26.6 -61.8 29.45 -60.15 31.7 L-59.95 31.95 -58.45 33.35 Q-56.85 34.3 -54.35 34.65 L-54.05 34.7 -54.55 33.95 Q-55.45 32.5 -55.45 31.5 L-55.1 30.7 Q-54.85 30.35 -52.05 34.4 -49.3 38.45 -46.45 38.4 -43.65 38.3 -42.0 37.05 L-41.2 36.55 -40.65 36.25 -40.55 36.2 -40.6 36.15 -40.75 35.55 -40.8 35.25 -40.65 34.2 -40.35 33.95 Q-40.25 33.85 -37.85 36.3 -34.75 38.25 -32.5 38.3 -30.9 38.35 -29.85 37.75 L-29.1 37.2 -28.75 36.8 -27.9 35.45 -27.9 35.4 -28.4 32.65 -28.5 30.1 -28.5 28.15 -28.35 26.65 -28.0 25.7 -26.45 23.45 -25.8 22.5 Q-25.2 21.6 -25.25 19.85 L-25.3 16.9 -24.45 11.25 Q-24.35 10.45 -23.45 9.65 L-21.8 8.45 Q-19.55 7.15 -17.25 6.75 L-16.6 6.65 -16.6 6.6 -16.0 6.35 Q-15.75 6.15 -15.75 5.7 L-16.15 4.15 -16.3 3.85 -17.15 1.2 -17.2 1.05 -18.0 -0.8 Q-18.5 -1.6 -19.2 -1.6 L-20.95 -1.55 -22.4 -1.6 -22.6 -2.15 Q-23.3 -3.55 -23.75 -6.0 L-24.25 -9.85 Q-24.25 -11.15 -23.5 -14.4 L-22.9 -16.9 Q-21.75 -20.55 -19.6 -25.55 L-13.5 -39.35" fill="#000000" fill-rule="evenodd" stroke="none"/>
      <path d="M-52.8 -56.1 L-52.6 -56.1 -51.5 -56.15 -51.55 -56.05 -53.1 -52.05 -55.2 -46.9 Q-58.8 -37.7 -60.85 -31.1 -62.95 -24.6 -64.4 -18.55 -65.1 -16.1 -65.25 -13.55 L-65.8 -6.6 Q-66.05 -2.15 -65.2 3.65 L-63.1 17.0 Q-61.8 24.6 -60.9 27.85 L-59.6 31.3 -58.45 33.35 -59.95 31.95 -60.15 31.7 Q-61.8 29.45 -62.8 26.6 -63.9 23.5 -65.45 16.25 L-67.95 3.45 Q-68.95 -2.1 -68.7 -6.35 L-68.25 -13.0 Q-68.05 -15.4 -67.35 -17.75 -65.8 -23.55 -63.55 -29.75 -61.35 -36.05 -57.45 -44.85 L-54.4 -51.65 -53.0 -54.85 Q-52.5 -56.1 -52.8 -55.6 L-52.8 -55.65 -52.8 -56.1 M-15.5 -41.95 L-13.5 -39.35 -19.6 -25.55 Q-21.75 -20.55 -22.9 -16.9 L-23.5 -14.4 Q-24.25 -11.15 -24.25 -9.85 L-23.75 -6.0 Q-23.3 -3.55 -22.6 -2.15 L-22.4 -1.6 -24.15 -1.65 -24.35 -2.2 Q-25.0 -3.7 -25.35 -6.25 L-25.75 -10.3 Q-25.75 -11.65 -25.0 -15.05 L-24.45 -17.65 -21.4 -26.7 -15.5 -41.95 M-20.95 -1.55 L-19.2 -1.6 Q-18.5 -1.6 -18.0 -0.8 L-17.2 1.05 -17.15 1.2 -16.3 3.85 -16.15 4.15 -15.75 5.7 Q-15.75 6.15 -16.0 6.35 L-16.6 6.6 -16.6 6.65 -17.25 6.75 Q-19.55 7.15 -21.8 8.45 L-23.45 9.65 Q-24.35 10.45 -24.45 11.25 L-25.3 16.9 -25.25 19.85 Q-25.2 21.6 -25.8 22.5 L-26.45 23.45 -28.0 25.7 -28.35 26.65 -28.5 28.15 -28.5 30.1 -28.4 32.65 -27.9 35.4 -27.9 35.45 -28.75 36.8 -29.1 37.2 -29.85 37.75 -29.6 37.1 -29.6 37.05 -29.65 36.4 -29.95 34.2 -30.05 31.5 -30.0 29.45 Q-30.0 27.8 -29.55 26.9 L-29.2 26.25 -27.55 23.55 -27.35 23.05 Q-27.0 22.15 -27.0 20.8 L-27.05 17.7 -26.2 11.8 Q-26.05 10.6 -24.3 9.25 L-23.8 8.85 Q-21.45 7.3 -19.05 7.0 L-19.05 6.95 -18.55 6.65 -18.35 6.35 -18.3 6.0 -18.7 4.35 -18.75 4.05 -19.55 1.3 -19.55 1.1 -20.25 -0.8 Q-20.55 -1.4 -20.95 -1.55 M-40.75 35.55 L-40.6 36.15 -40.55 36.2 -40.65 36.25 -41.2 36.55 -41.05 35.85 -41.05 35.8 -41.0 35.75 -40.8 35.55 -40.75 35.55" fill="#bdbdbd" fill-rule="evenodd" stroke="none"/>
      <path d="M-51.5 -56.15 Q-27.4 -56.45 -15.5 -41.95 L-21.4 -26.7 -24.45 -17.65 -25.0 -15.05 Q-25.75 -11.65 -25.75 -10.3 L-25.35 -6.25 Q-25.0 -3.7 -24.35 -2.2 L-24.15 -1.65 -22.4 -1.6 -20.95 -1.55 Q-20.55 -1.4 -20.25 -0.8 L-19.55 1.1 -19.55 1.3 -18.75 4.05 -18.7 4.35 -18.3 6.0 -18.35 6.35 -18.55 6.65 -19.05 6.95 -19.05 7.0 Q-21.45 7.3 -23.8 8.85 L-24.3 9.25 Q-26.05 10.6 -26.2 11.8 L-27.05 17.7 -27.0 20.8 Q-27.0 22.15 -27.35 23.05 L-27.55 23.55 -29.2 26.25 -29.55 26.9 Q-30.0 27.8 -30.0 29.45 L-30.05 31.5 -29.95 34.2 -29.65 36.4 -29.6 37.05 -29.6 37.1 -29.85 37.75 Q-30.9 38.35 -32.5 38.3 -34.75 38.25 -37.85 36.3 -40.25 33.85 -40.35 33.95 L-40.65 34.2 -40.8 35.25 -40.75 35.55 -40.8 35.55 -41.0 35.75 -41.05 35.8 -41.05 35.85 -41.2 36.55 -42.0 37.05 Q-43.65 38.3 -46.45 38.4 -49.3 38.45 -52.05 34.4 -54.85 30.35 -55.1 30.7 L-55.45 31.5 Q-55.45 32.5 -54.55 33.95 L-54.05 34.7 -54.35 34.65 Q-56.85 34.3 -58.45 33.35 L-59.6 31.3 -60.9 27.85 Q-61.8 24.6 -63.1 17.0 L-65.2 3.65 Q-66.05 -2.15 -65.8 -6.6 L-65.25 -13.55 Q-65.1 -16.1 -64.4 -18.55 -62.95 -24.6 -60.85 -31.1 -58.8 -37.7 -55.2 -46.9 L-53.1 -52.05 -51.55 -56.05 -51.5 -56.15" fill="#999999" fill-rule="evenodd" stroke="none"/>
      <path d="M-26.65 -21.55 L-21.6 -20.45 Q-18.45 -10.85 -20.55 -3.65 -22.9 -2.7 -25.35 -2.35 -24.15 -10.9 -26.15 -19.45 L-26.65 -21.55" fill="#404040" fill-rule="evenodd" stroke="none"/>
      <path d="M-26.65 -21.55 L-26.15 -19.45 Q-24.15 -10.9 -25.35 -2.35 L-33.55 -2.85 -36.0 -21.55 Q-31.45 -22.3 -26.65 -21.55" fill="#242424" fill-rule="evenodd" stroke="none"/>
      <path d="M-25.35 -2.35 Q-22.9 -2.7 -20.55 -3.65 -18.45 -10.85 -21.6 -20.45 L-26.65 -21.55 Q-31.45 -22.3 -36.0 -21.55 L-33.55 -2.85 -25.35 -2.35 Z" fill="none" stroke="#000000" stroke-linecap="round" stroke-linejoin="round" stroke-opacity="0.5019608" stroke-width="1.0"/>
      <path d="M-70.65 7.35 L-54.1 -10.3 Q-44.85 -19.5 -36.95 -26.45 -33.8 -25.75 -30.75 -24.7 -28.3 -5.2 -30.5 16.0 -47.0 21.3 -65.1 21.5 -69.05 14.85 -70.65 7.35" fill="#404040" fill-rule="evenodd" stroke="none"/>
      <path d="M-70.65 7.35 Q-74.0 -6.85 -69.45 -23.85 -52.6 -30.0 -36.95 -26.45 -44.85 -19.5 -54.1 -10.3 L-70.65 7.35" fill="#595959" fill-rule="evenodd" stroke="none"/>
      <path d="M-36.95 -26.45 Q-52.6 -30.0 -69.45 -23.85 -74.0 -6.85 -70.65 7.35 -69.05 14.85 -65.1 21.5 -47.0 21.3 -30.5 16.0 -28.3 -5.2 -30.75 -24.7 -33.8 -25.75 -36.95 -26.45 Z" fill="none" stroke="#000000" stroke-linecap="round" stroke-linejoin="round" stroke-opacity="0.5019608" stroke-width="1.0"/>
      <path d="M-64.6 -20.0 L-57.55 -21.3 -54.35 -21.7 -46.75 -22.0 -45.5 -22.0 -37.55 -21.1 -37.5 -21.1 -36.0 -20.8 -35.35 -13.4 -35.25 -12.2 -35.0 -3.35 -35.0 -2.2 Q-35.1 2.55 -35.5 7.2 L-35.55 7.75 -36.05 12.25 -62.0 16.4 -63.1 13.35 -63.95 10.5 Q-65.1 6.35 -65.75 2.35 L-66.0 1.05 Q-66.6 -2.95 -66.7 -6.9 L-66.75 -9.4 Q-66.75 -13.85 -66.05 -18.2 L-66.0 -18.6 -65.85 -19.7 -64.6 -20.0" fill="url(#gradient1)" fill-rule="evenodd" stroke="none"/>
      <path d="M-66.05 -18.2 L-65.85 -18.5 -64.6 -20.0 M-66.7 -6.9 L-65.55 -8.35 -66.75 -9.4 M-46.75 -22.0 L-46.0 -21.35 -45.5 -22.0 M-46.0 -21.35 L-50.85 -15.55 -45.75 -11.25 -40.95 -17.05 -46.0 -21.35 M-57.55 -21.3 L-55.9 -19.85 -54.35 -21.7 M-55.9 -19.85 L-60.7 -14.1 -55.65 -9.8 -50.85 -15.55 -55.9 -19.85 M-60.7 -14.1 L-65.55 -8.35 -60.45 -4.05 -55.65 -9.8 -50.6 -5.5 -45.75 -11.25 -40.7 -6.95 -35.9 -12.75 -40.95 -17.05 -37.55 -21.1 M-50.6 -5.5 L-45.45 -1.2 -40.7 -6.95 -35.6 -2.65 -35.0 -3.35 M-60.7 -14.1 L-65.85 -18.5 M-35.6 -2.65 L-35.0 -2.2 M-35.9 -12.75 L-35.35 -13.4 M-35.9 -12.75 L-35.25 -12.2 M-39.85 12.85 L-35.25 7.4 -40.4 3.1 -45.2 8.85 -40.4 12.9 M-60.15 6.0 L-55.1 10.3 -50.3 4.55 -55.4 0.25 -60.15 6.0 -65.3 1.7 -65.75 2.35 M-45.2 8.85 L-49.9 14.5 -55.1 10.3 -59.85 16.05 -63.1 13.35 M-40.4 3.1 L-45.45 -1.2 -50.3 4.55 -45.2 8.85 M-65.3 1.7 L-66.0 1.05 M-60.15 6.0 L-63.95 10.5 M-60.45 -4.05 L-55.4 0.25 -50.6 -5.5 M-40.4 3.1 L-35.6 -2.65 M-60.45 -4.05 L-65.3 1.7" fill="none" stroke="#000000" stroke-linecap="round" stroke-linejoin="round" stroke-opacity="0.3019608" stroke-width="0.5"/>
      <path d="M-64.6 -20.0 L-57.55 -21.3 -54.35 -21.7 -46.75 -22.0 -45.5 -22.0 -37.55 -21.1 -37.5 -21.1 -36.0 -20.8 -35.35 -13.4 -35.25 -12.2 -35.0 -3.35 -35.0 -2.2 Q-35.1 2.55 -35.5 7.2 L-35.55 7.75 -36.05 12.25 -62.0 16.4 -63.1 13.35 -63.95 10.5 Q-65.1 6.35 -65.75 2.35 L-66.0 1.05 Q-66.6 -2.95 -66.7 -6.9 L-66.75 -9.4 Q-66.75 -13.85 -66.05 -18.2 L-66.0 -18.6 -65.85 -19.7 -64.6 -20.0 Z" fill="none" stroke="#000000" stroke-linecap="round" stroke-linejoin="round" stroke-opacity="0.5019608" stroke-width="1.0"/>
    </g>
    <linearGradient gradientTransform="matrix(0.0199, -4.0E-4, 5.0E-4, 0.0224, -51.6, -3.75)" gradientUnits="userSpaceOnUse" id="gradient1" spreadMethod="pad" x1="-819.2" x2="819.2">
      <stop offset="0.0" stop-color="#a8a8a8"/>
      <stop offset="0.3215686274509804" stop-color="#cccccc"/>
      <stop offset="0.49411764705882355" stop-color="#cccccc"/>
      <stop offset="0.6588235294117647" stop-color="#cacaca"/>
      <stop offset="0.9803921568627451" stop-color="#9c9c9c"/>
    </linearGradient>
  </defs>
</svg>
