<?xml version="1.0" encoding="UTF-8" standalone="no"?>
<svg xmlns:xlink="http://www.w3.org/1999/xlink" height="531.5px" width="460.6px" xmlns="http://www.w3.org/2000/svg">
  <g transform="matrix(1.0, 0.0, 0.0, 1.0, 193.65, 334.05)">
    <use height="272.6" transform="matrix(1.0, 0.0, 0.0, 1.0, 21.95, -190.4)" width="120.5" xlink:href="#shape0"/>
    <use height="303.2" transform="matrix(0.8956, -0.0044, 0.0044, 0.8956, 21.2723, -189.6906)" width="131.0" xlink:href="#sprite0"/>
    <use height="132.25" transform="matrix(1.0, 0.0, 0.0, 1.0, -62.85, -118.15)" width="268.25" xlink:href="#shape2"/>
  </g>
  <defs>
    <g id="shape0" transform="matrix(1.0, 0.0, 0.0, 1.0, -21.95, 190.4)">
      <path d="M71.2 33.9 L72.45 36.15 72.15 36.4 Q71.6 36.9 71.2 37.55 L68.85 33.65 56.95 14.1 56.95 9.0 63.7 20.55 71.2 33.9 M60.25 -132.5 Q61.45 -131.05 63.15 -130.15 L62.3 -128.4 52.05 -107.45 43.4 -90.1 40.6 -90.1 46.1 -101.45 Q49.75 -109.1 56.6 -124.85 L60.25 -132.5" fill="#33281e" fill-rule="evenodd" stroke="none"/>
      <path d="M139.4 -63.85 L140.45 -61.15 Q141.3 -58.35 141.3 -56.2 L141.15 -54.75 141.2 -54.1 140.25 -51.5 140.15 -51.05 140.25 -51.0 Q140.3 -50.75 140.6 -50.65 L140.65 -50.65 Q141.8 -49.85 142.2 -47.55 142.55 -45.8 142.4 -43.9 142.4 -40.75 140.7 -38.95 139.7 -37.85 138.05 -37.1 L138.6 -36.25 Q138.9 -35.5 138.9 -33.95 138.9 -25.95 135.7 -23.5 133.25 -21.65 125.9 -21.65 123.75 -21.65 119.2 -23.25 L118.8 -23.4 117.8 -23.5 117.65 -23.4 Q116.6 -21.85 108.55 -21.85 101.95 -21.85 97.1 -26.7 95.5 -28.3 94.45 -32.7 L93.0 -39.2 Q92.7 -40.9 92.7 -44.6 L92.7 -48.5 Q92.8 -50.1 93.55 -52.8 94.2 -55.25 97.25 -57.95 99.55 -60.0 100.7 -60.2 L100.7 -60.3 Q101.3 -65.1 103.25 -69.6 L104.0 -71.3 104.9 -72.35 Q108.45 -74.85 112.9 -74.65 L114.4 -74.75 118.65 -74.75 120.4 -74.75 Q125.05 -74.7 127.7 -71.8 129.6 -69.75 129.65 -67.7 134.8 -67.85 136.55 -66.8 138.25 -65.75 138.8 -64.95 L139.4 -63.85 M137.15 -51.75 Q138.4 -52.45 139.05 -53.35 L139.8 -54.55 140.05 -55.9 139.95 -57.15 139.0 -61.3 138.5 -63.0 Q138.0 -64.4 135.95 -65.35 L135.05 -65.75 130.9 -66.4 122.3 -65.45 Q117.85 -64.3 115.95 -63.4 L115.6 -63.2 Q113.7 -62.25 113.05 -61.0 112.4 -59.8 112.1 -58.65 111.45 -55.55 112.05 -53.05 112.1 -52.45 112.25 -52.2 112.45 -51.4 113.1 -51.0 113.55 -50.65 114.95 -50.35 L115.7 -50.25 116.3 -50.15 116.45 -50.1 Q125.15 -49.45 132.15 -50.45 135.05 -50.8 136.45 -51.45 L137.15 -51.75 M122.6 -72.35 L119.0 -72.75 114.4 -72.7 Q107.95 -72.95 106.5 -71.45 105.0 -69.95 104.9 -69.5 103.35 -66.55 102.65 -63.25 L101.95 -60.3 101.4 -58.5 101.15 -58.15 100.75 -59.15 99.65 -58.05 97.55 -56.05 Q95.5 -53.85 95.0 -52.15 94.25 -49.7 94.15 -48.1 L94.2 -44.55 Q94.2 -41.65 94.65 -39.2 95.0 -37.25 96.05 -33.4 L96.8 -30.65 Q97.45 -28.9 98.4 -27.85 99.75 -26.45 102.05 -25.25 105.2 -23.6 108.5 -23.55 L108.7 -23.55 112.9 -23.65 114.3 -23.8 116.2 -24.35 112.9 -26.0 110.2 -27.85 Q109.65 -28.5 109.65 -30.05 109.65 -32.05 110.5 -35.0 L111.3 -36.5 111.8 -37.2 111.2 -37.35 109.25 -36.2 Q106.55 -34.75 105.15 -34.75 L103.55 -35.2 Q103.85 -35.7 108.1 -37.25 L109.3 -38.0 Q107.85 -38.55 106.9 -39.2 105.2 -40.35 104.9 -41.95 104.75 -42.8 104.95 -44.0 104.85 -47.05 105.8 -49.4 107.1 -52.45 109.9 -52.05 L109.9 -52.75 110.0 -56.1 108.8 -56.7 106.9 -57.8 Q107.4 -58.95 109.85 -58.4 L110.2 -58.3 Q110.4 -60.05 110.8 -60.9 112.4 -64.25 117.35 -65.9 L122.15 -67.0 126.1 -67.45 127.6 -67.6 127.55 -67.7 126.6 -69.75 Q125.4 -71.7 122.6 -72.35 M111.35 -49.0 Q110.85 -49.2 110.55 -49.6 L110.4 -49.9 109.7 -50.1 Q108.8 -50.25 107.8 -49.15 L106.95 -47.8 Q106.8 -47.25 106.8 -45.05 106.8 -43.1 107.05 -42.45 107.65 -40.9 109.85 -39.95 L110.6 -39.7 115.05 -38.75 124.15 -37.55 Q128.85 -37.15 131.75 -37.65 L136.2 -38.5 137.15 -38.85 139.15 -40.2 Q140.55 -41.55 140.55 -44.9 L140.25 -47.25 140.1 -48.45 140.05 -48.65 Q139.8 -49.75 138.8 -49.75 138.25 -49.75 137.8 -49.4 L137.75 -49.4 132.25 -48.55 127.3 -48.25 122.45 -48.25 118.35 -48.3 116.45 -48.4 112.15 -48.75 111.8 -48.85 111.6 -48.95 111.35 -49.0 M116.0 -36.4 L115.55 -36.5 113.7 -36.6 113.5 -36.5 113.3 -36.2 Q112.35 -34.95 112.3 -34.5 L111.9 -33.0 111.55 -31.35 111.75 -29.6 112.25 -28.45 112.9 -27.75 113.65 -27.3 Q114.9 -26.55 116.25 -25.9 120.3 -24.1 124.7 -23.9 L126.75 -23.9 128.65 -24.0 Q131.6 -24.0 133.5 -24.8 135.0 -25.5 135.75 -26.75 136.9 -28.6 136.9 -33.55 L136.75 -34.9 136.1 -35.75 135.0 -36.15 129.4 -35.7 116.0 -36.4" fill="#000000" fill-rule="evenodd" stroke="none"/>
      <path d="M135.05 -65.75 L135.95 -65.35 Q138.0 -64.4 138.5 -63.0 L139.0 -61.3 139.95 -57.15 140.05 -55.9 139.8 -54.55 139.05 -53.35 Q138.4 -52.45 137.15 -51.75 L137.45 -53.5 Q137.45 -58.2 136.65 -61.7 136.05 -64.3 135.05 -65.75 M115.7 -50.25 L114.95 -50.35 Q113.55 -50.65 113.1 -51.0 112.45 -51.4 112.25 -52.2 112.1 -52.45 112.05 -53.05 111.45 -55.55 112.1 -58.65 112.4 -59.8 113.05 -61.0 113.7 -62.25 115.6 -63.2 L115.95 -63.4 Q114.85 -60.55 114.85 -55.9 L114.9 -52.8 Q115.1 -51.6 115.7 -50.25 M126.1 -67.45 Q124.95 -68.1 124.4 -69.75 123.85 -71.4 122.6 -72.35 125.4 -71.7 126.6 -69.75 L127.55 -67.7 127.6 -67.6 126.1 -67.45 M110.6 -39.7 L109.85 -39.95 Q107.65 -40.9 107.05 -42.45 106.8 -43.1 106.8 -45.05 106.8 -47.25 106.95 -47.8 L107.8 -49.15 Q108.8 -50.25 109.7 -50.1 L110.4 -49.9 110.55 -49.6 Q110.85 -49.2 111.35 -49.0 L110.75 -48.5 Q110.05 -47.5 110.05 -43.6 110.05 -40.95 110.6 -39.7 M137.75 -49.4 L137.8 -49.4 Q138.25 -49.75 138.8 -49.75 139.8 -49.75 140.05 -48.65 L140.1 -48.45 140.25 -47.25 140.55 -44.9 Q140.55 -41.55 139.15 -40.2 L137.15 -38.85 137.55 -40.8 Q138.25 -43.95 138.25 -46.9 138.25 -48.3 137.75 -49.4 M116.0 -36.4 L114.95 -33.2 Q113.65 -29.05 113.65 -27.6 L113.65 -27.3 112.9 -27.75 112.25 -28.45 111.75 -29.6 111.55 -31.35 111.9 -33.0 112.3 -34.5 Q112.35 -34.95 113.3 -36.2 L113.5 -36.5 113.7 -36.6 115.55 -36.5 116.0 -36.4 M133.5 -24.8 Q134.3 -28.5 134.85 -30.3 135.15 -31.4 136.15 -33.3 L136.75 -34.9 136.9 -33.55 Q136.9 -28.6 135.75 -26.75 135.0 -25.5 133.5 -24.8" fill="#bdbdbd" fill-rule="evenodd" stroke="none"/>
      <path d="M137.15 -51.75 L136.45 -51.45 Q135.05 -50.8 132.15 -50.45 125.15 -49.45 116.45 -50.1 L116.3 -50.15 115.7 -50.25 Q115.1 -51.6 114.9 -52.8 L114.85 -55.9 Q114.85 -60.55 115.95 -63.4 117.85 -64.3 122.3 -65.45 L130.9 -66.4 135.05 -65.75 Q136.05 -64.3 136.65 -61.7 137.45 -58.2 137.45 -53.5 L137.15 -51.75 M122.6 -72.35 Q123.85 -71.4 124.4 -69.75 124.95 -68.1 126.1 -67.45 L122.15 -67.0 117.35 -65.9 Q112.4 -64.25 110.8 -60.9 110.4 -60.05 110.2 -58.3 L109.85 -58.4 Q107.4 -58.95 106.9 -57.8 L108.8 -56.7 110.0 -56.1 109.9 -52.75 109.9 -52.05 Q107.1 -52.45 105.8 -49.4 104.85 -47.05 104.95 -44.0 104.75 -42.8 104.9 -41.95 105.2 -40.35 106.9 -39.2 107.85 -38.55 109.3 -38.0 L108.1 -37.25 Q103.85 -35.7 103.55 -35.2 L105.15 -34.75 Q106.55 -34.75 109.25 -36.2 L111.2 -37.35 111.8 -37.2 111.3 -36.5 110.5 -35.0 Q109.65 -32.05 109.65 -30.05 109.65 -28.5 110.2 -27.85 L112.9 -26.0 116.2 -24.35 114.3 -23.8 112.9 -23.65 108.7 -23.55 108.5 -23.55 Q105.2 -23.6 102.05 -25.25 99.75 -26.45 98.4 -27.85 97.45 -28.9 96.8 -30.65 L96.05 -33.4 Q95.0 -37.25 94.65 -39.2 94.2 -41.65 94.2 -44.55 L94.15 -48.1 Q94.25 -49.7 95.0 -52.15 95.5 -53.85 97.55 -56.05 L99.65 -58.05 100.75 -59.15 101.15 -58.15 101.4 -58.5 101.95 -60.3 102.65 -63.25 Q103.35 -66.55 104.9 -69.5 105.0 -69.95 106.5 -71.45 107.95 -72.95 114.4 -72.7 L119.0 -72.75 122.6 -72.35 M110.6 -39.7 Q110.05 -40.95 110.05 -43.6 110.05 -47.5 110.75 -48.5 L111.35 -49.0 111.6 -48.95 111.8 -48.85 112.15 -48.75 116.45 -48.4 118.35 -48.3 122.45 -48.25 127.3 -48.25 132.25 -48.55 137.75 -49.4 Q138.25 -48.3 138.25 -46.9 138.25 -43.95 137.55 -40.8 L137.15 -38.85 136.2 -38.5 131.75 -37.65 Q128.85 -37.15 124.15 -37.55 L115.05 -38.75 110.6 -39.7 M113.65 -27.3 L113.65 -27.6 Q113.65 -29.05 114.95 -33.2 L116.0 -36.4 129.4 -35.7 135.0 -36.15 136.1 -35.75 136.75 -34.9 136.15 -33.3 Q135.15 -31.4 134.85 -30.3 134.3 -28.5 133.5 -24.8 131.6 -24.0 128.65 -24.0 L126.75 -23.9 124.7 -23.9 Q120.3 -24.1 116.25 -25.9 114.9 -26.55 113.65 -27.3" fill="#999999" fill-rule="evenodd" stroke="none"/>
      <path d="M54.95 -153.5 Q55.35 -143.5 60.25 -137.25 62.7 -134.05 67.55 -130.4 71.15 -127.8 76.2 -124.85 L84.35 -119.75 Q88.75 -117.25 91.95 -117.6 95.95 -118.0 99.1 -115.65 100.95 -114.35 101.8 -112.75 L100.6 -110.95 97.65 -107.45 Q96.45 -105.9 96.45 -103.9 L96.45 -103.35 96.6 -100.6 Q96.6 -97.0 92.35 -94.1 89.2 -92.0 85.85 -91.55 L83.55 -94.95 79.3 -101.8 75.35 -105.35 Q71.95 -108.2 68.6 -109.75 L67.65 -110.2 Q64.65 -111.8 60.95 -114.55 56.55 -117.75 52.35 -122.35 48.1 -126.95 46.05 -130.25 L45.5 -131.1 Q41.2 -138.05 38.7 -145.7 L37.7 -149.75 Q38.5 -151.25 40.9 -152.25 43.75 -153.4 47.6 -153.4 L51.95 -153.05 54.95 -153.5 M95.1 -98.45 Q95.05 -99.4 95.5 -100.85 95.85 -102.2 96.45 -103.35 95.85 -102.2 95.5 -100.85 95.05 -99.4 95.1 -98.45 M56.0 -179.0 Q55.25 -179.75 53.4 -182.8 L52.85 -183.65 53.4 -182.8 Q55.25 -179.75 56.0 -179.0 M57.75 -173.7 L56.35 -176.15 57.75 -173.7 M37.0 -161.55 L37.05 -162.05 Q36.4 -167.4 32.4 -171.15 31.2 -172.35 30.2 -174.15 28.6 -177.0 28.6 -179.95 28.6 -180.9 29.15 -183.0 29.6 -185.1 30.0 -185.55 31.55 -187.4 34.5 -188.65 37.2 -189.85 39.3 -189.9 44.55 -189.9 50.05 -186.5 51.5 -185.65 52.85 -183.65 L54.0 -183.65 Q61.35 -180.9 61.4 -175.45 61.4 -173.35 60.5 -170.6 L58.6 -165.55 Q57.15 -161.95 55.45 -159.5 50.15 -158.65 42.9 -159.45 40.05 -160.3 37.0 -161.55 M55.8 -171.55 Q54.35 -177.65 52.4 -180.1 54.35 -177.65 55.8 -171.55 M60.35 -122.2 L56.95 -125.0 60.35 -122.2 M55.75 -123.55 Q51.8 -127.1 49.35 -131.3 46.9 -135.5 44.9 -142.05 46.9 -135.5 49.35 -131.3 51.8 -127.1 55.75 -123.55" fill="#dae3ba" fill-rule="evenodd" stroke="none"/>
      <path d="M54.95 -153.5 L51.95 -153.05 47.6 -153.4 Q43.75 -153.4 40.9 -152.25 38.5 -151.25 37.7 -149.75 37.05 -152.8 36.9 -155.9 44.35 -154.2 48.35 -155.2 52.05 -154.7 54.9 -155.15 L54.95 -153.5 M85.85 -91.55 Q89.2 -92.0 92.35 -94.1 96.6 -97.0 96.6 -100.6 L96.45 -103.35 97.95 -105.55 99.25 -106.9 97.95 -105.55 96.45 -103.35 96.45 -103.9 Q96.45 -105.9 97.65 -107.45 L100.6 -110.95 101.8 -112.75 Q102.5 -111.3 102.55 -109.55 L102.55 -109.5 102.55 -108.75 Q102.3 -106.2 100.45 -104.35 98.3 -102.25 98.3 -102.0 L98.3 -100.05 Q97.85 -94.1 95.35 -91.65 92.6 -88.95 87.3 -90.3 86.9 -90.45 86.55 -90.7 L85.85 -91.55" fill="#b9c498" fill-rule="evenodd" stroke="none"/>
      <path d="M95.35 -91.65 Q97.85 -94.1 98.3 -100.05 L98.3 -102.0 Q98.3 -102.25 100.45 -104.35 102.3 -106.2 102.55 -108.75 L103.5 -107.4 Q105.0 -105.25 105.05 -103.55 L104.2 -101.4 Q103.4 -100.0 103.45 -99.45 L103.45 -96.55 103.35 -94.95 Q102.95 -92.75 101.1 -90.9 99.3 -89.2 97.35 -89.05 L97.1 -89.2 Q95.55 -90.2 95.35 -91.65 M99.4 -99.05 L99.6 -100.9 98.3 -100.05 99.6 -100.9 100.15 -101.3 Q102.05 -102.5 103.35 -102.95 102.05 -102.5 100.15 -101.3 L99.6 -100.9 99.4 -99.05 M98.55 22.6 L98.75 24.3 98.6 25.9 Q98.15 28.2 96.35 29.4 95.05 30.3 92.7 30.8 L92.55 30.7 Q91.15 29.8 90.7 28.7 L89.75 25.95 89.45 25.3 89.4 23.05 89.7 20.4 Q89.7 20.0 88.65 19.1 L87.0 17.8 86.25 17.05 86.0 16.75 85.4 16.0 Q84.6 15.0 84.45 14.3 L83.15 8.25 83.9 8.5 85.5 9.1 85.45 10.25 Q85.45 11.85 87.8 14.25 L89.2 15.7 89.35 15.9 94.15 21.6 Q94.75 22.3 95.8 22.65 L98.55 22.6 M59.65 47.25 L59.2 47.65 Q52.6 54.2 51.25 59.15 L48.45 57.2 Q48.7 55.95 49.1 55.1 49.95 53.35 52.25 51.65 L58.4 47.95 59.65 47.25 M51.0 60.6 L50.95 61.55 Q50.95 63.05 52.7 67.55 54.55 72.1 54.55 73.9 54.55 78.05 51.05 80.0 48.05 81.7 42.95 81.7 39.95 81.75 35.8 80.2 L34.5 79.7 Q28.35 79.9 25.55 77.75 L25.35 77.6 25.7 77.6 Q27.45 77.6 29.5 76.85 L31.25 76.0 35.05 76.55 40.0 77.0 Q44.95 76.95 46.8 70.25 L47.6 65.7 48.25 60.25 48.3 59.55 51.0 60.6 M115.75 -53.2 Q114.05 -53.45 113.0 -54.35 111.7 -55.55 111.7 -57.65 111.7 -59.35 113.4 -62.8 115.1 -66.25 115.1 -68.25 115.1 -70.9 112.05 -76.55 L108.5 -82.7 Q114.1 -78.1 115.1 -76.6 116.9 -74.15 116.95 -68.1 L116.75 -63.15 116.8 -60.2 117.5 -56.25 Q117.85 -54.45 119.45 -53.55 L119.9 -53.35 117.25 -53.1 115.75 -53.2 M103.45 -96.55 Q101.7 -98.4 102.15 -100.1 101.7 -98.4 103.45 -96.55 M34.5 79.7 Q31.35 78.4 30.2 77.1 31.35 78.4 34.5 79.7" fill="#e3e3ae" fill-rule="evenodd" stroke="none"/>
      <path d="M102.55 -108.75 L102.55 -109.5 102.55 -109.55 103.7 -110.0 106.45 -110.65 Q107.2 -110.65 109.3 -109.6 111.25 -108.7 112.3 -107.85 113.65 -106.7 114.4 -105.1 L115.25 -101.85 Q115.5 -99.6 118.05 -95.9 L122.55 -89.15 Q124.15 -85.95 125.55 -80.1 126.95 -74.05 127.75 -72.4 128.25 -71.3 129.55 -70.2 L132.25 -68.05 Q134.65 -65.75 134.7 -61.95 134.7 -59.7 134.0 -58.2 L133.35 -57.05 133.05 -56.7 Q131.75 -55.3 129.5 -55.3 128.9 -55.3 128.35 -55.6 L126.6 -55.95 Q125.4 -55.95 122.95 -54.55 121.55 -53.7 119.9 -53.35 L119.45 -53.55 Q117.85 -54.45 117.5 -56.25 L116.8 -60.2 116.75 -63.15 116.95 -68.1 Q116.9 -74.15 115.1 -76.6 114.1 -78.1 108.5 -82.7 L107.25 -84.85 Q106.1 -86.8 100.35 -88.05 98.5 -88.45 97.35 -89.05 99.3 -89.2 101.1 -90.9 102.95 -92.75 103.35 -94.95 L103.45 -96.55 103.45 -99.45 Q103.4 -100.0 104.2 -101.4 L105.05 -103.55 Q105.0 -105.25 103.5 -107.4 L102.55 -108.75 M92.7 30.8 L90.4 31.2 82.9 32.0 Q78.45 32.75 75.85 34.4 66.3 40.65 59.65 47.25 L58.4 47.95 52.25 51.65 Q49.95 53.35 49.1 55.1 48.7 55.95 48.45 57.2 L47.0 56.25 Q42.7 53.65 37.15 51.75 38.9 48.7 42.25 44.45 47.5 37.85 51.3 34.85 L55.65 31.35 60.05 27.9 Q61.15 27.05 65.25 25.3 67.35 24.4 68.3 23.4 L68.8 22.65 72.55 13.3 Q75.5 7.9 80.65 7.9 L83.15 8.25 84.45 14.3 Q84.6 15.0 85.4 16.0 L86.0 16.75 86.25 17.05 87.0 17.8 88.65 19.1 Q89.7 20.0 89.7 20.4 L89.4 23.05 89.45 25.3 89.75 25.95 90.7 28.7 Q91.15 29.8 92.55 30.7 L92.7 30.8 M25.35 77.6 Q22.5 75.3 22.5 70.95 22.45 68.3 24.1 66.35 25.6 64.6 28.9 62.8 31.1 61.55 32.95 59.15 L34.75 56.55 Q42.35 57.45 48.3 59.55 L48.25 60.25 47.6 65.7 46.8 70.25 Q44.95 76.95 40.0 77.0 L35.05 76.55 31.25 76.0 29.5 76.85 Q27.45 77.6 25.7 77.6 L25.35 77.6 M105.5 -94.9 L103.45 -96.55 105.5 -94.9 M115.25 -95.65 L115.25 -96.45 115.25 -95.65 M112.85 -93.95 Q114.05 -98.55 113.8 -99.85 114.05 -98.55 112.85 -93.95 M89.05 21.1 L88.15 19.5 89.05 21.1 M87.8 23.8 Q87.0 23.0 86.7 20.5 L86.25 17.05 86.7 20.5 Q87.0 23.0 87.8 23.8 M40.25 74.75 L35.9 74.6 Q32.85 74.2 31.35 72.85 32.85 74.2 35.9 74.6 L40.25 74.75 M41.85 72.55 L41.4 72.65 41.85 72.55" fill="#ffffd1" fill-rule="evenodd" stroke="none"/>
      <path d="M51.25 59.15 Q51.05 59.85 51.0 60.6 L48.3 59.55 Q42.35 57.45 34.75 56.55 L35.1 55.9 Q34.3 55.7 33.6 55.3 L33.5 55.25 33.3 55.55 Q32.45 57.0 30.5 58.6 27.55 61.2 24.75 61.2 23.8 61.2 23.15 60.8 22.45 60.4 22.45 59.75 22.4 57.2 26.0 54.75 L26.8 54.25 Q25.9 53.25 25.9 51.9 25.9 50.9 27.05 50.25 28.1 49.6 29.3 49.6 30.75 49.55 32.1 50.2 33.65 50.9 34.35 52.35 L34.75 52.15 35.75 52.7 36.35 53.2 37.15 51.75 Q42.7 53.65 47.0 56.25 L48.45 57.2 51.25 59.15 M37.0 -161.55 Q40.05 -160.3 42.9 -159.45 50.15 -158.65 55.45 -159.5 L55.4 -159.4 Q55.05 -158.95 55.0 -157.75 L54.9 -155.25 54.9 -155.15 Q52.05 -154.7 48.35 -155.2 44.35 -154.2 36.9 -155.9 L36.85 -157.0 36.85 -157.3 36.15 -157.55 36.1 -157.6 35.5 -157.9 36.1 -157.6 35.95 -157.2 35.9 -157.2 Q35.15 -155.45 33.25 -153.4 30.25 -150.15 27.05 -149.75 L25.2 -149.9 Q24.3 -150.35 24.2 -151.05 23.75 -153.9 27.4 -157.2 L28.2 -157.85 Q27.0 -158.85 26.75 -160.35 26.6 -161.45 27.8 -162.35 28.8 -163.15 30.2 -163.35 L33.55 -163.1 Q35.3 -162.5 36.4 -161.15 L36.45 -161.1 36.55 -160.95 36.65 -161.05 36.95 -160.9 37.0 -161.55 M42.9 -159.45 Q49.6 -157.35 55.0 -157.75 49.6 -157.35 42.9 -159.45 M31.25 -161.8 Q30.35 -161.7 29.55 -161.1 28.6 -160.55 28.7 -159.8 28.8 -159.2 29.5 -158.85 31.8 -160.4 34.1 -160.7 L35.3 -160.75 33.8 -161.45 31.25 -161.8 M29.5 -158.85 L28.2 -157.85 29.5 -158.85 M36.25 -160.75 L36.55 -160.95 36.25 -160.75 35.3 -160.75 36.0 -160.45 36.25 -160.75 M35.55 -159.8 L35.75 -160.15 36.0 -160.45 35.75 -160.15 35.55 -159.8 35.0 -159.8 Q33.55 -159.3 31.7 -158.15 L35.45 -157.85 35.5 -157.85 35.5 -157.9 Q35.1 -158.25 35.05 -158.55 L35.55 -159.8 M36.95 -160.9 L36.85 -158.55 36.85 -157.3 36.85 -158.55 36.95 -160.9 M27.4 -152.05 L28.4 -151.95 Q30.15 -152.2 33.1 -155.2 L34.2 -156.45 Q31.9 -156.2 29.85 -156.9 26.3 -154.55 26.65 -152.7 26.7 -152.2 27.4 -152.05 M36.85 -158.55 L37.45 -158.3 Q43.6 -156.0 48.35 -155.2 43.6 -156.0 37.45 -158.3 L36.85 -158.55 M34.2 -156.45 L34.25 -156.5 35.45 -157.85 34.25 -156.5 34.2 -156.45 M29.85 -156.9 L30.4 -157.3 31.7 -158.15 30.4 -157.3 29.85 -156.9 M34.1 52.55 L34.35 52.35 34.1 52.55 33.3 52.4 33.8 52.75 34.1 52.55 M36.35 53.2 L36.2 53.45 35.6 54.7 35.45 55.05 35.45 55.15 35.3 55.55 35.1 55.85 35.1 55.9 35.1 55.85 35.3 55.55 35.45 55.15 35.45 55.05 35.6 54.7 36.2 53.45 36.35 53.2 M33.35 53.25 L33.6 53.0 33.8 52.75 33.6 53.0 33.35 53.25 32.85 53.25 Q31.55 53.5 29.85 54.35 L33.0 54.95 33.05 54.95 33.05 54.9 32.8 54.3 Q32.8 53.9 33.35 53.25 M33.5 55.25 L33.05 54.9 33.5 55.25 M28.1 55.2 L28.55 54.95 29.85 54.35 28.55 54.95 28.1 55.2 Q24.7 56.9 24.7 58.6 24.7 59.0 25.25 59.2 L26.2 59.4 Q27.75 59.4 30.6 57.0 L31.8 56.0 31.75 56.0 Q29.75 56.05 28.1 55.2 M33.0 54.95 L31.8 56.0 33.0 54.95 M28.05 53.5 Q30.25 52.4 32.2 52.35 L33.3 52.4 32.05 51.65 Q31.0 51.1 29.95 51.15 29.15 51.15 28.4 51.5 27.5 51.9 27.5 52.55 27.5 53.05 28.05 53.5 L26.8 54.25 28.05 53.5 M47.0 56.25 L35.6 54.7 47.0 56.25" fill="#d4b08b" fill-rule="evenodd" stroke="none"/>
      <path d="M133.05 -56.7 L133.35 -56.6 131.4 -53.45 Q129.35 -51.1 126.15 -50.85 123.95 -50.7 120.75 -48.7 118.7 -47.5 117.3 -47.05 L115.9 -48.4 Q115.05 -49.4 115.05 -50.95 115.05 -52.15 115.75 -53.2 L117.25 -53.1 119.9 -53.35 Q121.55 -53.7 122.95 -54.55 125.4 -55.95 126.6 -55.95 L128.35 -55.6 Q128.9 -55.3 129.5 -55.3 131.75 -55.3 133.05 -56.7 M131.55 -26.65 L129.85 -21.4 125.65 -11.7 Q122.25 -3.9 112.25 6.65 111.4 7.55 108.1 13.85 105.2 21.65 98.55 22.6 L95.8 22.65 Q94.75 22.3 94.15 21.6 L89.35 15.9 90.6 16.45 Q94.3 17.9 96.3 17.9 99.6 17.9 101.75 16.05 103.8 14.45 106.6 9.8 107.35 8.6 110.95 4.1 113.6 0.75 115.05 -1.9 116.45 -4.5 118.7 -6.9 120.9 -9.3 125.3 -16.45 L131.5 -26.6 131.55 -26.65" fill="#c7c79b" fill-rule="evenodd" stroke="none"/>
      <path d="M133.35 -56.6 Q136.2 -55.95 137.5 -54.6 139.2 -52.95 139.2 -49.55 139.2 -45.75 136.0 -40.9 132.6 -35.85 132.35 -31.1 L131.55 -26.75 131.55 -26.65 131.5 -26.6 125.3 -16.45 Q120.9 -9.3 118.7 -6.9 116.45 -4.5 115.05 -1.9 113.6 0.75 110.95 4.1 107.35 8.6 106.6 9.8 103.8 14.45 101.75 16.05 99.6 17.9 96.3 17.9 94.3 17.9 90.6 16.45 L89.35 15.9 89.2 15.7 87.8 14.25 Q85.45 11.85 85.45 10.25 L85.5 9.1 Q85.8 6.8 87.75 5.3 89.75 3.8 93.95 2.8 100.35 1.35 104.15 -2.4 L110.95 -1.0 107.25 -6.2 Q114.65 -16.3 117.5 -22.5 120.7 -29.35 120.65 -36.65 120.6 -43.8 117.8 -46.6 L117.3 -47.05 Q118.7 -47.5 120.75 -48.7 123.95 -50.7 126.15 -50.85 129.35 -51.1 131.4 -53.45 L133.35 -56.6 M131.55 -37.5 L133.0 -40.05 131.55 -37.5 M128.5 -37.85 L129.6 -38.95 131.5 -41.05 133.25 -44.15 134.4 -46.5 133.25 -44.15 131.5 -41.05 129.6 -38.95 128.5 -37.85" fill="#e3e3ba" fill-rule="evenodd" stroke="none"/>
      <path d="M101.8 -112.75 Q100.95 -114.35 99.1 -115.65 95.95 -118.0 91.95 -117.6 88.75 -117.25 84.35 -119.75 L76.2 -124.85 Q71.15 -127.8 67.55 -130.4 62.7 -134.05 60.25 -137.25 55.35 -143.5 54.95 -153.5 L54.9 -155.15 Q52.05 -154.7 48.35 -155.2 44.35 -154.2 36.9 -155.9 37.05 -152.8 37.7 -149.75 L38.7 -145.7 Q41.2 -138.05 45.5 -131.1 L46.05 -130.25 Q48.1 -126.95 52.35 -122.35 56.55 -117.75 60.95 -114.55 64.65 -111.8 67.65 -110.2 L68.6 -109.75 Q71.95 -108.2 75.35 -105.35 L79.3 -101.8 83.55 -94.95 85.85 -91.55 86.55 -90.7 Q86.9 -90.45 87.3 -90.3 92.6 -88.95 95.35 -91.65 97.85 -94.1 98.3 -100.05 L98.3 -102.0 Q98.3 -102.25 100.45 -104.35 102.3 -106.2 102.55 -108.75 L102.55 -109.5 102.55 -109.55 Q102.5 -111.3 101.8 -112.75 M96.45 -103.35 Q95.85 -102.2 95.5 -100.85 95.05 -99.4 95.1 -98.45 M96.45 -103.35 L97.95 -105.55 99.25 -106.9 M98.3 -100.05 L99.6 -100.9 100.15 -101.3 Q102.05 -102.5 103.35 -102.95 M99.6 -100.9 L99.4 -99.05 M102.55 -109.55 L103.7 -110.0 106.45 -110.65 Q107.2 -110.65 109.3 -109.6 111.25 -108.7 112.3 -107.85 113.65 -106.7 114.4 -105.1 L115.25 -101.85 Q115.5 -99.6 118.05 -95.9 L122.55 -89.15 Q124.15 -85.95 125.55 -80.1 126.95 -74.05 127.75 -72.4 128.25 -71.3 129.55 -70.2 L132.25 -68.05 Q134.65 -65.75 134.7 -61.95 134.7 -59.7 134.0 -58.2 L133.35 -57.05 133.05 -56.7 133.35 -56.6 Q136.2 -55.95 137.5 -54.6 139.2 -52.95 139.2 -49.55 139.2 -45.75 136.0 -40.9 132.6 -35.85 132.35 -31.1 L131.55 -26.75 131.55 -26.65 129.85 -21.4 125.65 -11.7 Q122.25 -3.9 112.25 6.65 111.4 7.55 108.1 13.85 105.2 21.65 98.55 22.6 L98.75 24.3 98.6 25.9 Q98.15 28.2 96.35 29.4 95.05 30.3 92.7 30.8 L90.4 31.2 82.9 32.0 Q78.45 32.75 75.85 34.4 66.3 40.65 59.65 47.25 L59.2 47.65 Q52.6 54.2 51.25 59.15 51.05 59.85 51.0 60.6 L50.95 61.55 Q50.95 63.05 52.7 67.55 54.55 72.1 54.55 73.9 54.55 78.05 51.05 80.0 48.05 81.7 42.95 81.7 39.95 81.75 35.8 80.2 L34.5 79.7 Q28.35 79.9 25.55 77.75 L25.35 77.6 Q22.5 75.3 22.5 70.95 22.45 68.3 24.1 66.35 25.6 64.6 28.9 62.8 31.1 61.55 32.95 59.15 L34.75 56.55 35.1 55.9 Q34.3 55.7 33.6 55.3 L33.5 55.25 33.3 55.55 Q32.45 57.0 30.5 58.6 27.55 61.2 24.75 61.2 23.8 61.2 23.15 60.8 22.45 60.4 22.45 59.75 22.4 57.2 26.0 54.75 L26.8 54.25 Q25.9 53.25 25.9 51.9 25.9 50.9 27.05 50.25 28.1 49.6 29.3 49.6 30.75 49.55 32.1 50.2 33.65 50.9 34.35 52.35 L34.75 52.15 35.75 52.7 36.35 53.2 37.15 51.75 Q38.9 48.7 42.25 44.45 47.5 37.85 51.3 34.85 L55.65 31.35 60.05 27.9 Q61.15 27.05 65.25 25.3 67.35 24.4 68.3 23.4 L68.8 22.65 72.55 13.3 Q75.5 7.9 80.65 7.9 L83.15 8.25 83.9 8.5 85.5 9.1 Q85.8 6.8 87.75 5.3 89.75 3.8 93.95 2.8 100.35 1.35 104.15 -2.4 L110.95 -1.0 107.25 -6.2 Q114.65 -16.3 117.5 -22.5 120.7 -29.35 120.65 -36.65 120.6 -43.8 117.8 -46.6 L117.3 -47.05 115.9 -48.4 Q115.05 -49.4 115.05 -50.95 115.05 -52.15 115.75 -53.2 114.05 -53.45 113.0 -54.35 111.7 -55.55 111.7 -57.65 111.7 -59.35 113.4 -62.8 115.1 -66.25 115.1 -68.25 115.1 -70.9 112.05 -76.55 L108.5 -82.7 107.25 -84.85 Q106.1 -86.8 100.35 -88.05 98.5 -88.45 97.35 -89.05 L97.1 -89.2 Q95.55 -90.2 95.35 -91.65 M103.45 -96.55 L105.5 -94.9 M56.35 -176.15 L57.75 -173.7 M52.85 -183.65 L53.4 -182.8 Q55.25 -179.75 56.0 -179.0 M55.45 -159.5 Q57.15 -161.95 58.6 -165.55 L60.5 -170.6 Q61.4 -173.35 61.4 -175.45 61.35 -180.9 54.0 -183.65 L52.85 -183.65 Q51.5 -185.65 50.05 -186.5 44.55 -189.9 39.3 -189.9 37.2 -189.85 34.5 -188.65 31.55 -187.4 30.0 -185.55 29.6 -185.1 29.15 -183.0 28.6 -180.9 28.6 -179.95 28.6 -177.0 30.2 -174.15 31.2 -172.35 32.4 -171.15 36.4 -167.4 37.05 -162.05 L37.0 -161.55 Q40.05 -160.3 42.9 -159.45 50.15 -158.65 55.45 -159.5 L55.4 -159.4 Q55.05 -158.95 55.0 -157.75 L54.9 -155.25 54.9 -155.15 M55.0 -157.75 Q49.6 -157.35 42.9 -159.45 M52.4 -180.1 Q54.35 -177.65 55.8 -171.55 M31.25 -161.8 Q30.35 -161.7 29.55 -161.1 28.6 -160.55 28.7 -159.8 28.8 -159.2 29.5 -158.85 31.8 -160.4 34.1 -160.7 L35.3 -160.75 33.8 -161.45 31.25 -161.8 M36.55 -160.95 L36.45 -161.1 36.4 -161.15 Q35.3 -162.5 33.55 -163.1 L30.2 -163.35 Q28.8 -163.15 27.8 -162.35 26.6 -161.45 26.75 -160.35 27.0 -158.85 28.2 -157.85 L29.5 -158.85 M36.65 -161.05 L36.95 -160.9 37.0 -161.55 M36.65 -161.05 L36.55 -160.95 36.25 -160.75 36.0 -160.45 35.75 -160.15 35.55 -159.8 35.05 -158.55 Q35.1 -158.25 35.5 -157.9 L36.1 -157.6 36.15 -157.55 36.85 -157.3 36.85 -158.55 36.95 -160.9 M36.45 -161.1 L36.65 -161.05 M35.95 -157.2 L35.9 -157.2 Q35.15 -155.45 33.25 -153.4 30.25 -150.15 27.05 -149.75 L25.2 -149.9 Q24.3 -150.35 24.2 -151.05 23.75 -153.9 27.4 -157.2 L28.2 -157.85 M27.4 -152.05 L28.4 -151.95 Q30.15 -152.2 33.1 -155.2 L34.2 -156.45 Q31.9 -156.2 29.85 -156.9 26.3 -154.55 26.65 -152.7 26.7 -152.2 27.4 -152.05 M35.5 -157.9 L35.5 -157.85 35.45 -157.85 34.25 -156.5 34.2 -156.45 M48.35 -155.2 Q43.6 -156.0 37.45 -158.3 L36.85 -158.55 M35.45 -157.85 L35.5 -157.9 M35.95 -157.2 L36.1 -157.6 M36.85 -157.0 L35.95 -157.2 M36.85 -157.3 L36.85 -157.0 36.9 -155.9 M31.7 -158.15 L30.4 -157.3 29.85 -156.9 M35.55 -159.8 L35.0 -159.8 Q33.55 -159.3 31.7 -158.15 L35.45 -157.85 M36.25 -160.75 L35.3 -160.75 36.0 -160.45 M44.9 -142.05 Q46.9 -135.5 49.35 -131.3 51.8 -127.1 55.75 -123.55 M56.95 -125.0 L60.35 -122.2 M119.9 -53.35 Q121.55 -53.7 122.95 -54.55 125.4 -55.95 126.6 -55.95 L128.35 -55.6 Q128.9 -55.3 129.5 -55.3 131.75 -55.3 133.05 -56.7 M115.25 -96.45 L115.25 -95.65 M119.9 -53.35 L117.25 -53.1 115.75 -53.2 M134.4 -46.5 L133.25 -44.15 131.5 -41.05 129.6 -38.95 128.5 -37.85 M133.0 -40.05 L131.55 -37.5 M113.8 -99.85 Q114.05 -98.55 112.85 -93.95 M102.15 -100.1 Q101.7 -98.4 103.45 -96.55 M85.5 9.1 L85.45 10.25 Q85.45 11.85 87.8 14.25 L89.2 15.7 89.35 15.9 94.15 21.6 Q94.75 22.3 95.8 22.65 L98.55 22.6 M86.25 17.05 L86.7 20.5 Q87.0 23.0 87.8 23.8 M88.15 19.5 L89.05 21.1 M35.1 55.9 L35.1 55.85 35.3 55.55 35.45 55.15 35.45 55.05 35.6 54.7 36.2 53.45 36.35 53.2 M34.35 52.35 L34.1 52.55 33.8 52.75 33.6 53.0 33.35 53.25 Q32.8 53.9 32.8 54.3 L33.05 54.9 33.5 55.25 M34.1 52.55 L33.3 52.4 33.8 52.75 M33.0 54.95 L33.05 54.95 33.05 54.9 33.0 54.95 29.85 54.35 28.55 54.95 28.1 55.2 Q29.75 56.05 31.75 56.0 L31.8 56.0 33.0 54.95 M33.3 52.4 L32.2 52.35 Q30.25 52.4 28.05 53.5 L26.8 54.25 M33.3 52.4 L32.05 51.65 Q31.0 51.1 29.95 51.15 29.15 51.15 28.4 51.5 27.5 51.9 27.5 52.55 27.5 53.05 28.05 53.5 M33.35 53.25 L32.85 53.25 Q31.55 53.5 29.85 54.35 M28.1 55.2 Q24.7 56.9 24.7 58.6 24.7 59.0 25.25 59.2 L26.2 59.4 Q27.75 59.4 30.6 57.0 L31.8 56.0 M31.35 72.85 Q32.85 74.2 35.9 74.6 L40.25 74.75 M30.2 77.1 Q31.35 78.4 34.5 79.7 M37.15 51.75 Q42.7 53.65 47.0 56.25 L48.45 57.2 51.25 59.15 M41.4 72.65 L41.85 72.55 M48.3 59.55 L51.0 60.6 M34.75 56.55 Q42.35 57.45 48.3 59.55 M35.6 54.7 L47.0 56.25" fill="none" stroke="#000000" stroke-linecap="round" stroke-linejoin="round" stroke-opacity="0.6627451" stroke-width="1.0"/>
    </g>
    <g id="sprite0" transform="matrix(1.0, 0.0, 0.0, 1.0, 65.5, 151.6)">
      <use height="303.2" transform="matrix(1.0, 0.0, 0.0, 1.0, -65.5, -151.6)" width="131.0" xlink:href="#shape1"/>
    </g>
    <g id="shape1" transform="matrix(1.0, 0.0, 0.0, 1.0, 65.5, 151.6)">
      <path d="M-48.0 -120.0 L-47.95 -120.6 Q-48.65 -126.55 -53.1 -130.75 -54.45 -132.1 -55.55 -134.1 -57.3 -137.35 -57.3 -140.6 -57.3 -141.7 -56.7 -144.0 -56.15 -146.3 -55.7 -146.8 -53.95 -148.9 -50.65 -150.3 -47.65 -151.6 -45.3 -151.6 -39.4 -151.6 -33.3 -147.8 -31.7 -146.8 -30.2 -144.6 L-28.9 -144.6 Q-20.7 -141.45 -20.7 -135.4 -20.7 -133.05 -21.75 -129.95 L-23.9 -124.4 Q-25.5 -120.35 -27.4 -117.6 -33.35 -116.65 -41.45 -117.6 L-48.0 -120.0" fill="url(#gradient0)" fill-rule="evenodd" stroke="none"/>
      <path d="M-49.05 -115.6 L-49.2 -115.15 -49.25 -115.15 Q-50.1 -113.2 -52.25 -110.95 -55.6 -107.3 -59.2 -106.9 L-61.25 -107.1 Q-62.25 -107.55 -62.35 -108.35 -62.85 -111.55 -58.75 -115.2 L-57.85 -115.95 -56.4 -117.0 Q-53.8 -118.75 -51.25 -119.05 L-49.9 -119.15 -49.15 -118.8 -49.4 -118.45 -49.65 -118.1 -50.25 -118.05 -53.95 -116.25 -55.4 -115.3 -56.0 -114.85 Q-60.0 -112.25 -59.65 -110.2 -59.55 -109.65 -58.8 -109.45 L-57.65 -109.35 Q-55.7 -109.6 -52.45 -112.95 L-51.15 -114.35 -51.1 -114.4 -49.75 -115.9 -49.7 -115.9 -49.7 -115.95 -49.05 -115.6" fill="url(#gradient1)" fill-rule="evenodd" stroke="none"/>
      <path d="M-57.85 -115.95 Q-59.2 -117.05 -59.45 -118.75 -59.65 -119.95 -58.3 -120.95 -57.15 -121.85 -55.6 -122.05 L-51.85 -121.75 Q-49.9 -121.1 -48.7 -119.6 L-48.65 -119.55 -48.5 -119.35 -48.85 -119.15 -49.9 -119.15 -51.6 -119.9 -54.45 -120.3 Q-55.45 -120.2 -56.35 -119.55 -57.4 -118.95 -57.3 -118.15 -57.2 -117.45 -56.4 -117.0 L-57.85 -115.95" fill="url(#gradient2)" fill-rule="evenodd" stroke="none"/>
      <path d="M-48.5 -119.35 L-48.4 -119.45 -48.05 -119.3 -48.2 -116.7 -48.2 -115.3 -48.95 -115.55 -49.05 -115.6 -49.7 -115.95 Q-50.15 -116.35 -50.2 -116.7 L-49.65 -118.1 -49.4 -118.45 -49.15 -118.8 -48.85 -119.15 -48.5 -119.35" fill="url(#gradient3)" fill-rule="evenodd" stroke="none"/>
      <path d="M-28.1 -112.75 Q-31.25 -112.25 -35.4 -112.9 -40.65 -113.75 -47.5 -116.4 L-48.2 -116.7 -48.05 -119.3 -48.0 -120.0 -41.45 -117.6 Q-33.95 -115.3 -27.95 -115.65 L-28.1 -112.9 -28.1 -112.75" fill="url(#gradient4)" fill-rule="evenodd" stroke="none"/>
      <path d="M-35.4 -112.9 Q-39.85 -111.75 -48.15 -113.7 L-48.2 -114.95 -48.2 -115.3 -48.2 -116.7 -47.5 -116.4 Q-40.65 -113.75 -35.4 -112.9" fill="url(#gradient5)" fill-rule="evenodd" stroke="none"/>
      <path d="M-53.95 -116.25 L-49.75 -115.9 -51.1 -114.4 -51.15 -114.35 Q-53.7 -114.05 -56.0 -114.85 L-55.4 -115.3 -53.95 -116.25" fill="url(#gradient6)" fill-rule="evenodd" stroke="none"/>
      <path d="M-41.45 -117.6 Q-33.35 -116.65 -27.4 -117.6 L-27.5 -117.5 -27.95 -115.65 Q-33.95 -115.3 -41.45 -117.6" fill="url(#gradient7)" fill-rule="evenodd" stroke="none"/>
      <path d="M-60.6 120.85 Q-61.6 119.75 -61.6 118.25 -61.6 117.15 -60.3 116.4 -59.15 115.7 -57.8 115.7 -56.15 115.7 -54.65 116.4 -52.95 117.2 -52.15 118.8 -52.3 118.85 -52.45 119.0 L-53.35 118.85 -54.7 118.0 Q-55.9 117.4 -57.05 117.4 L-58.8 117.8 Q-59.8 118.25 -59.8 118.95 -59.8 119.55 -59.2 120.05 L-60.6 120.85" fill="url(#gradient8)" fill-rule="evenodd" stroke="none"/>
      <path d="M-59.15 121.95 L-58.6 121.65 -57.2 121.0 -53.65 121.7 -55.0 122.9 -55.05 122.9 Q-57.3 122.9 -59.15 121.95" fill="url(#gradient9)" fill-rule="evenodd" stroke="none"/>
      <path d="M-53.1 122.05 L-53.3 122.4 Q-54.3 124.0 -56.45 125.8 -59.8 128.6 -62.95 128.6 -64.0 128.6 -64.7 128.2 -65.5 127.75 -65.5 127.0 -65.5 124.15 -61.5 121.4 L-60.6 120.85 -59.2 120.05 Q-56.75 118.8 -54.55 118.8 L-53.35 118.85 -52.75 119.25 -53.0 119.5 -53.25 119.8 -53.8 119.8 Q-55.25 120.1 -57.2 121.0 L-58.6 121.65 -59.15 121.95 Q-62.9 123.85 -62.9 125.7 -62.9 126.15 -62.3 126.4 L-61.3 126.6 Q-59.6 126.6 -56.35 124.0 L-55.0 122.9 -53.65 121.7 -53.6 121.7 -53.6 121.65 -53.1 122.05" fill="url(#gradient10)" fill-rule="evenodd" stroke="none"/>
      <path d="M-51.3 122.75 L-53.0 122.1 -53.1 122.05 -53.6 121.65 -53.9 121.0 -53.25 119.8 -53.0 119.5 -52.75 119.25 -52.45 119.0 Q-52.3 118.85 -52.15 118.8 L-51.7 118.6 Q-51.45 118.6 -50.6 119.2 L-49.9 119.75 -50.1 120.05 -50.75 121.45 -50.9 121.8 -50.95 121.95 -51.1 122.35 -51.3 122.7 -51.3 122.75" fill="url(#gradient11)" fill-rule="evenodd" stroke="none"/>
      <path d="M-49.9 119.75 L-49.0 118.15 Q-42.85 120.3 -38.05 123.2 L-50.75 121.45 -50.1 120.05 -49.9 119.75" fill="url(#gradient12)" fill-rule="evenodd" stroke="none"/>
      <path d="M16.75 -41.65 Q19.55 -44.4 20.1 -51.0 L20.1 -53.2 22.5 -55.85 Q24.6 -57.85 24.9 -60.7 L24.9 -61.5 24.9 -61.6 26.15 -62.1 29.25 -62.8 Q30.1 -62.8 32.4 -61.65 L35.8 -59.6 Q37.3 -58.35 38.1 -56.55 38.7 -55.1 39.0 -52.9 39.3 -50.4 42.15 -46.3 46.1 -40.75 47.1 -38.7 48.9 -35.1 50.4 -28.6 51.95 -21.85 52.8 -20.0 53.35 -18.75 54.8 -17.55 L57.8 -15.1 Q60.5 -12.5 60.5 -8.25 60.5 -5.75 59.75 -4.05 L59.0 -2.8 58.65 -2.4 Q57.2 -0.9 54.7 -0.9 54.05 -0.9 53.4 -1.25 L51.45 -1.6 Q50.15 -1.6 47.4 -0.05 45.85 0.85 43.95 1.25 L40.95 1.5 39.3 1.4 Q37.4 1.1 36.3 0.1 34.8 -1.25 34.8 -3.6 34.8 -5.45 36.75 -9.35 38.7 -13.2 38.7 -15.4 38.7 -18.35 35.35 -24.7 L31.35 -31.6 30.0 -34.0 Q28.75 -36.2 22.3 -37.6 20.25 -38.05 18.95 -38.75 L18.7 -38.9 Q16.95 -40.0 16.75 -41.65" fill="url(#gradient13)" fill-rule="evenodd" stroke="none"/>
      <path d="M24.9 -61.6 L24.9 -61.5 24.9 -60.7 Q24.6 -57.85 22.5 -55.85 L20.1 -53.2 20.1 -51.0 Q19.55 -44.4 16.75 -41.65 13.65 -38.65 7.75 -40.2 7.3 -40.35 6.9 -40.65 L6.15 -41.6 3.6 -45.4 -1.15 -53.1 -5.5 -57.05 Q-9.3 -60.25 -13.0 -62.0 -16.75 -63.8 -21.55 -67.4 -26.4 -71.0 -31.1 -76.15 -35.8 -81.35 -38.1 -85.0 L-38.7 -85.95 Q-43.45 -93.75 -46.15 -102.35 L-47.3 -106.85 Q-48.0 -110.25 -48.15 -113.7 -39.85 -111.75 -35.4 -112.9 -31.25 -112.25 -28.1 -112.75 L-28.05 -110.95 Q-27.65 -99.75 -22.2 -92.7 -17.5 -86.5 -4.5 -78.8 L4.6 -73.1 Q9.55 -70.3 13.1 -70.6 17.55 -71.05 21.1 -68.45 23.1 -67.0 24.05 -65.15 24.85 -63.55 24.9 -61.6" fill="url(#gradient14)" fill-rule="evenodd" stroke="none"/>
      <path d="M39.3 1.4 L40.95 1.5 43.95 1.25 Q45.85 0.85 47.4 -0.05 50.15 -1.6 51.45 -1.6 L53.4 -1.25 Q54.05 -0.9 54.7 -0.9 57.2 -0.9 58.65 -2.4 L59.0 -2.3 Q62.2 -1.55 63.65 -0.05 65.5 1.8 65.5 5.6 65.5 9.85 61.85 15.25 58.05 20.9 57.7 26.2 57.55 28.3 56.85 31.0 56.15 33.7 54.85 36.95 L50.1 47.8 Q46.35 56.5 35.1 68.2 34.15 69.15 30.4 76.2 27.15 84.9 19.7 85.9 L16.65 85.95 Q15.45 85.6 14.8 84.8 L9.5 78.4 9.3 78.15 7.75 76.55 Q5.1 73.85 5.1 72.1 L5.2 70.8 Q5.6 68.2 7.75 66.55 10.0 64.85 14.7 63.8 21.8 62.2 26.1 58.05 L33.65 59.6 29.6 53.8 Q37.9 42.6 41.1 35.7 44.7 28.0 44.7 19.9 44.7 11.9 41.6 8.75 L41.0 8.25 39.45 6.75 Q38.5 5.65 38.5 3.9 38.5 2.55 39.3 1.4" fill="url(#gradient15)" fill-rule="evenodd" stroke="none"/>
      <path d="M19.7 85.9 L19.9 87.8 Q19.9 91.7 17.2 93.5 15.75 94.5 13.1 95.05 L10.55 95.45 2.15 96.35 Q-2.8 97.15 -5.7 99.0 -16.4 105.9 -23.85 113.2 L-24.35 113.65 Q-31.8 121.0 -33.3 126.5 L-36.4 124.25 -38.05 123.2 Q-42.85 120.3 -49.0 118.15 -47.0 114.75 -43.25 110.05 -37.35 102.65 -33.1 99.4 L-28.25 95.45 Q-24.9 92.65 -23.3 91.6 -22.05 90.7 -17.5 88.75 -14.2 87.35 -13.5 85.8 L-9.3 75.45 Q-5.95 69.4 -0.2 69.4 L2.55 69.85 3.4 70.1 5.2 70.8 5.1 72.1 Q5.1 73.85 7.75 76.55 L9.3 78.15 9.5 78.4 14.8 84.8 Q15.45 85.6 16.65 85.95 L19.7 85.9 M-33.6 128.1 L-33.7 129.2 Q-33.7 130.85 -31.7 135.9 -29.7 140.95 -29.7 143.0 -29.7 147.6 -33.7 149.8 -37.0 151.6 -42.7 151.6 -46.05 151.6 -50.7 149.9 L-52.1 149.35 Q-59.0 149.5 -62.1 147.1 L-62.3 146.95 Q-65.5 144.35 -65.5 139.5 -65.5 136.55 -63.65 134.35 -62.0 132.4 -58.3 130.4 -55.85 129.05 -53.7 126.4 L-51.7 123.5 Q-43.2 124.55 -36.65 126.9 L-33.6 128.1" fill="url(#gradient16)" fill-rule="evenodd" stroke="none"/>
      <path d="M-33.3 126.5 L-33.6 128.1 -36.65 126.9 Q-43.2 124.55 -51.7 123.5 L-51.3 122.75 -51.3 122.7 -51.1 122.35 -50.95 121.95 -50.9 121.8 -50.75 121.45 -38.05 123.2 -36.4 124.25 -33.3 126.5" fill="url(#gradient17)" fill-rule="evenodd" stroke="none"/>
    </g>
    <linearGradient gradientTransform="matrix(0.0223, 0.0, 0.0, 0.021, -39.0, -134.4)" gradientUnits="userSpaceOnUse" id="gradient0" spreadMethod="pad" x1="-819.2" x2="819.2">
      <stop offset="0.0" stop-color="#000000"/>
      <stop offset="1.0" stop-color="#00ffa4"/>
    </linearGradient>
    <linearGradient gradientTransform="matrix(0.0081, 0.0, 0.0, 0.0075, -55.75, -113.0)" gradientUnits="userSpaceOnUse" id="gradient1" spreadMethod="pad" x1="-819.2" x2="819.2">
      <stop offset="0.0" stop-color="#000000"/>
      <stop offset="1.0" stop-color="#00ffa4"/>
    </linearGradient>
    <linearGradient gradientTransform="matrix(0.0067, 0.0, 0.0, 0.0038, -54.0, -119.05)" gradientUnits="userSpaceOnUse" id="gradient2" spreadMethod="pad" x1="-819.2" x2="819.2">
      <stop offset="0.0" stop-color="#000000"/>
      <stop offset="1.0" stop-color="#00ffa4"/>
    </linearGradient>
    <linearGradient gradientTransform="matrix(0.0013, 0.0, 0.0, 0.0025, -49.15, -117.4)" gradientUnits="userSpaceOnUse" id="gradient3" spreadMethod="pad" x1="-819.2" x2="819.2">
      <stop offset="0.0" stop-color="#000000"/>
      <stop offset="1.0" stop-color="#00ffa4"/>
    </linearGradient>
    <linearGradient gradientTransform="matrix(0.0124, 0.0, 0.0, 0.0045, -38.1, -116.3)" gradientUnits="userSpaceOnUse" id="gradient4" spreadMethod="pad" x1="-819.2" x2="819.2">
      <stop offset="0.0" stop-color="#000000"/>
      <stop offset="1.0" stop-color="#00ffa4"/>
    </linearGradient>
    <linearGradient gradientTransform="matrix(0.0078, 0.0, 0.0, 0.0026, -41.8, -114.6)" gradientUnits="userSpaceOnUse" id="gradient5" spreadMethod="pad" x1="-819.2" x2="819.2">
      <stop offset="0.0" stop-color="#000000"/>
      <stop offset="1.0" stop-color="#00ffa4"/>
    </linearGradient>
    <linearGradient gradientTransform="matrix(0.0038, 0.0, 0.0, 0.0012, -52.9, -115.25)" gradientUnits="userSpaceOnUse" id="gradient6" spreadMethod="pad" x1="-819.2" x2="819.2">
      <stop offset="0.0" stop-color="#000000"/>
      <stop offset="1.0" stop-color="#00ffa4"/>
    </linearGradient>
    <linearGradient gradientTransform="matrix(0.0086, 0.0, 0.0, 0.0012, -34.45, -116.6)" gradientUnits="userSpaceOnUse" id="gradient7" spreadMethod="pad" x1="-819.2" x2="819.2">
      <stop offset="0.0" stop-color="#000000"/>
      <stop offset="1.0" stop-color="#00ffa4"/>
    </linearGradient>
    <linearGradient gradientTransform="matrix(0.0058, 0.0, 0.0, 0.0031, -56.9, 118.25)" gradientUnits="userSpaceOnUse" id="gradient8" spreadMethod="pad" x1="-819.2" x2="819.2">
      <stop offset="0.0" stop-color="#000000"/>
      <stop offset="1.0" stop-color="#00ffa4"/>
    </linearGradient>
    <linearGradient gradientTransform="matrix(0.0034, 0.0, 0.0, 0.0012, -56.4, 121.95)" gradientUnits="userSpaceOnUse" id="gradient9" spreadMethod="pad" x1="-819.2" x2="819.2">
      <stop offset="0.0" stop-color="#000000"/>
      <stop offset="1.0" stop-color="#00ffa4"/>
    </linearGradient>
    <linearGradient gradientTransform="matrix(0.0078, 0.0, 0.0, 0.006, -59.15, 123.7)" gradientUnits="userSpaceOnUse" id="gradient10" spreadMethod="pad" x1="-819.2" x2="819.2">
      <stop offset="0.0" stop-color="#000000"/>
      <stop offset="1.0" stop-color="#00ffa4"/>
    </linearGradient>
    <linearGradient gradientTransform="matrix(0.0024, 0.0, 0.0, 0.0025, -51.9, 120.65)" gradientUnits="userSpaceOnUse" id="gradient11" spreadMethod="pad" x1="-819.2" x2="819.2">
      <stop offset="0.0" stop-color="#000000"/>
      <stop offset="1.0" stop-color="#00ffa4"/>
    </linearGradient>
    <linearGradient gradientTransform="matrix(0.0078, 0.0, 0.0, 0.0031, -44.4, 120.65)" gradientUnits="userSpaceOnUse" id="gradient12" spreadMethod="pad" x1="-819.2" x2="819.2">
      <stop offset="0.0" stop-color="#000000"/>
      <stop offset="1.0" stop-color="#00ffa4"/>
    </linearGradient>
    <linearGradient gradientTransform="matrix(0.0156, 0.027, -0.0175, 0.0101, 20.15, -27.8)" gradientUnits="userSpaceOnUse" id="gradient13" spreadMethod="pad" x1="-819.2" x2="819.2">
      <stop offset="0.0" stop-color="#000000"/>
      <stop offset="1.0" stop-color="#00ffa4"/>
    </linearGradient>
    <linearGradient gradientTransform="matrix(0.0435, 0.0, 0.0, 0.0423, -11.65, -76.3)" gradientUnits="userSpaceOnUse" id="gradient14" spreadMethod="pad" x1="-819.2" x2="819.2">
      <stop offset="0.0" stop-color="#000000"/>
      <stop offset="1.0" stop-color="#00ffa4"/>
    </linearGradient>
    <linearGradient gradientTransform="matrix(-0.0191, 0.047, -0.0469, -0.019, 34.5, 48.65)" gradientUnits="userSpaceOnUse" id="gradient15" spreadMethod="pad" x1="-819.2" x2="819.2">
      <stop offset="0.0" stop-color="#000000"/>
      <stop offset="1.0" stop-color="#00ffa4"/>
    </linearGradient>
    <linearGradient gradientTransform="matrix(-0.0239, 0.0414, -0.029, -0.0167, -11.85, 126.3)" gradientUnits="userSpaceOnUse" id="gradient16" spreadMethod="pad" x1="-819.2" x2="819.2">
      <stop offset="0.0" stop-color="#000000"/>
      <stop offset="1.0" stop-color="#00ffa4"/>
    </linearGradient>
    <linearGradient gradientTransform="matrix(0.0112, 0.0, 0.0, 0.0041, -42.5, 124.75)" gradientUnits="userSpaceOnUse" id="gradient17" spreadMethod="pad" x1="-819.2" x2="819.2">
      <stop offset="0.0" stop-color="#000000"/>
      <stop offset="1.0" stop-color="#00ffa4"/>
    </linearGradient>
    <g id="shape2" transform="matrix(1.0, 0.0, 0.0, 1.0, 62.85, 118.15)">
      <path d="M139.4 -63.85 L140.45 -61.15 Q141.3 -58.35 141.3 -56.2 L141.15 -54.75 141.2 -54.1 140.25 -51.5 140.15 -51.05 140.25 -51.0 Q140.3 -50.75 140.6 -50.65 L140.65 -50.65 Q141.8 -49.85 142.2 -47.55 142.55 -45.8 142.4 -43.9 142.4 -40.75 140.7 -38.95 139.7 -37.85 138.05 -37.1 L138.6 -36.25 Q138.9 -35.5 138.9 -33.95 138.9 -25.95 135.7 -23.5 133.25 -21.65 125.9 -21.65 123.9 -21.65 119.75 -23.05 119.25 -23.6 118.45 -23.8 L116.05 -24.45 116.0 -24.45 112.9 -26.0 110.2 -27.85 Q109.65 -28.5 109.65 -30.05 109.65 -32.05 110.5 -35.0 L111.3 -36.5 111.8 -37.2 111.2 -37.35 109.25 -36.2 Q106.55 -34.75 105.15 -34.75 L103.55 -35.2 Q103.85 -35.7 108.1 -37.25 L109.3 -38.0 Q107.85 -38.55 106.9 -39.2 105.2 -40.35 104.9 -41.95 104.75 -42.8 104.95 -44.0 104.85 -47.05 105.8 -49.4 107.1 -52.45 109.9 -52.05 L109.9 -52.75 110.0 -56.1 108.8 -56.7 106.9 -57.8 Q107.4 -58.95 109.85 -58.4 L110.2 -58.3 Q110.4 -60.05 110.8 -60.9 112.4 -64.25 117.35 -65.9 L122.15 -67.0 126.1 -67.45 127.2 -67.55 127.5 -67.6 127.6 -67.6 129.8 -67.7 130.4 -67.7 Q134.9 -67.75 136.55 -66.8 138.25 -65.75 138.8 -64.95 L139.4 -63.85 M137.15 -51.75 Q138.4 -52.45 139.05 -53.35 L139.8 -54.55 140.05 -55.9 139.95 -57.15 139.0 -61.3 138.5 -63.0 Q138.0 -64.4 135.95 -65.35 L135.05 -65.75 130.9 -66.4 122.3 -65.45 Q117.85 -64.3 115.95 -63.4 L115.6 -63.2 Q113.7 -62.25 113.05 -61.0 112.4 -59.8 112.1 -58.65 111.45 -55.55 112.05 -53.05 112.1 -52.45 112.25 -52.2 112.45 -51.4 113.1 -51.0 113.55 -50.65 114.95 -50.35 L115.7 -50.25 116.3 -50.15 116.45 -50.1 Q125.15 -49.45 132.15 -50.45 135.05 -50.8 136.45 -51.45 L137.15 -51.75 M111.35 -49.0 Q110.85 -49.2 110.55 -49.6 L110.4 -49.9 109.7 -50.1 Q108.8 -50.25 107.8 -49.15 L106.95 -47.8 Q106.8 -47.25 106.8 -45.05 106.8 -43.1 107.05 -42.45 107.65 -40.9 109.85 -39.95 L110.6 -39.7 115.05 -38.75 124.15 -37.55 Q128.85 -37.15 131.75 -37.65 L136.2 -38.5 137.15 -38.85 139.15 -40.2 Q140.55 -41.55 140.55 -44.9 L140.25 -47.25 140.1 -48.45 140.05 -48.65 Q139.8 -49.75 138.8 -49.75 138.25 -49.75 137.8 -49.4 L137.75 -49.4 132.25 -48.55 127.3 -48.25 122.45 -48.25 118.35 -48.3 116.45 -48.4 112.15 -48.75 111.8 -48.85 111.6 -48.95 111.35 -49.0 M116.0 -36.4 L115.55 -36.5 113.7 -36.6 113.5 -36.5 113.3 -36.2 Q112.35 -34.95 112.3 -34.5 L111.9 -33.0 111.55 -31.35 111.75 -29.6 112.25 -28.45 112.9 -27.75 113.65 -27.3 Q114.9 -26.55 116.25 -25.9 120.3 -24.1 124.7 -23.9 L126.75 -23.9 128.65 -24.0 Q131.6 -24.0 133.5 -24.8 135.0 -25.5 135.75 -26.75 136.9 -28.6 136.9 -33.55 L136.75 -34.9 136.1 -35.75 135.0 -36.15 129.4 -35.7 116.0 -36.4" fill="#000000" fill-rule="evenodd" stroke="none"/>
      <path d="M135.05 -65.75 L135.95 -65.35 Q138.0 -64.4 138.5 -63.0 L139.0 -61.3 139.95 -57.15 140.05 -55.9 139.8 -54.55 139.05 -53.35 Q138.4 -52.45 137.15 -51.75 L137.45 -53.5 Q137.45 -58.2 136.65 -61.7 136.05 -64.3 135.05 -65.75 M115.7 -50.25 L114.95 -50.35 Q113.55 -50.65 113.1 -51.0 112.45 -51.4 112.25 -52.2 112.1 -52.45 112.05 -53.05 111.45 -55.55 112.1 -58.65 112.4 -59.8 113.05 -61.0 113.7 -62.25 115.6 -63.2 L115.95 -63.4 Q114.85 -60.55 114.85 -55.9 L114.9 -52.8 Q115.1 -51.6 115.7 -50.25 M110.6 -39.7 L109.85 -39.95 Q107.65 -40.9 107.05 -42.45 106.8 -43.1 106.8 -45.05 106.8 -47.25 106.95 -47.8 L107.8 -49.15 Q108.8 -50.25 109.7 -50.1 L110.4 -49.9 110.55 -49.6 Q110.85 -49.2 111.35 -49.0 L110.75 -48.5 Q110.05 -47.5 110.05 -43.6 110.05 -40.95 110.6 -39.7 M137.75 -49.4 L137.8 -49.4 Q138.25 -49.75 138.8 -49.75 139.8 -49.75 140.05 -48.65 L140.1 -48.45 140.25 -47.25 140.55 -44.9 Q140.55 -41.55 139.15 -40.2 L137.15 -38.85 137.55 -40.8 Q138.25 -43.95 138.25 -46.9 138.25 -48.3 137.75 -49.4 M116.0 -36.4 L114.95 -33.2 Q113.65 -29.05 113.65 -27.6 L113.65 -27.3 112.9 -27.75 112.25 -28.45 111.75 -29.6 111.55 -31.35 111.9 -33.0 112.3 -34.5 Q112.35 -34.95 113.3 -36.2 L113.5 -36.5 113.7 -36.6 115.55 -36.5 116.0 -36.4 M133.5 -24.8 Q134.3 -28.5 134.85 -30.3 135.15 -31.4 136.15 -33.3 L136.75 -34.9 136.9 -33.55 Q136.9 -28.6 135.75 -26.75 135.0 -25.5 133.5 -24.8" fill="#bdbdbd" fill-rule="evenodd" stroke="none"/>
      <path d="M137.15 -51.75 L136.45 -51.45 Q135.05 -50.8 132.15 -50.45 125.15 -49.45 116.45 -50.1 L116.3 -50.15 115.7 -50.25 Q115.1 -51.6 114.9 -52.8 L114.85 -55.9 Q114.85 -60.55 115.95 -63.4 117.85 -64.3 122.3 -65.45 L130.9 -66.4 135.05 -65.75 Q136.05 -64.3 136.65 -61.7 137.45 -58.2 137.45 -53.5 L137.15 -51.75 M111.35 -49.0 L111.6 -48.95 111.8 -48.85 112.15 -48.75 116.45 -48.4 118.35 -48.3 122.45 -48.25 127.3 -48.25 132.25 -48.55 137.75 -49.4 Q138.25 -48.3 138.25 -46.9 138.25 -43.95 137.55 -40.8 L137.15 -38.85 136.2 -38.5 131.75 -37.65 Q128.85 -37.15 124.15 -37.55 L115.05 -38.75 110.6 -39.7 Q110.05 -40.95 110.05 -43.6 110.05 -47.5 110.75 -48.5 L111.35 -49.0 M113.65 -27.3 L113.65 -27.6 Q113.65 -29.05 114.95 -33.2 L116.0 -36.4 129.4 -35.7 135.0 -36.15 136.1 -35.75 136.75 -34.9 136.15 -33.3 Q135.15 -31.4 134.85 -30.3 134.3 -28.5 133.5 -24.8 131.6 -24.0 128.65 -24.0 L126.75 -23.9 124.7 -23.9 Q120.3 -24.1 116.25 -25.9 114.9 -26.55 113.65 -27.3" fill="#999999" fill-rule="evenodd" stroke="none"/>
      <path d="M140.1 -59.85 L139.85 -61.5 Q139.05 -70.05 143.1 -77.1 142.4 -77.85 140.9 -78.6 139.15 -79.4 139.0 -80.9 138.6 -84.8 143.3 -87.8 L146.55 -89.9 Q148.05 -91.0 147.95 -92.15 147.85 -93.05 146.45 -93.6 L145.6 -93.9 143.25 -94.25 139.95 -94.6 Q139.45 -94.9 139.25 -96.9 138.75 -101.85 146.95 -109.05 154.6 -115.8 160.7 -117.65 L159.55 -116.5 Q157.9 -115.0 156.05 -112.0 153.4 -107.55 153.65 -104.95 153.95 -102.25 155.85 -101.45 157.1 -100.85 159.9 -101.0 L163.95 -100.85 Q165.8 -100.4 166.05 -98.25 166.1 -97.4 165.1 -95.45 L165.1 -95.4 Q164.1 -93.55 164.2 -92.65 164.25 -92.15 165.1 -91.6 L165.95 -90.8 Q175.75 -91.15 183.55 -84.75 192.1 -77.7 193.15 -66.65 194.25 -55.6 187.2 -47.0 180.15 -38.45 169.1 -37.35 158.05 -36.3 149.5 -43.35 142.65 -49.05 140.55 -57.35 140.25 -58.6 140.1 -59.85 L141.9 -60.0 140.1 -59.85 M142.4 -57.55 L140.55 -57.35 142.4 -57.55 M154.1 -68.8 Q153.0 -66.05 153.3 -62.8 L153.45 -61.95 Q154.0 -59.6 154.95 -57.75 155.95 -55.75 157.5 -54.25 L157.95 -53.85 158.05 -53.75 Q159.55 -52.55 161.2 -51.85 L164.65 -50.85 167.45 -50.8 167.8 -50.75 Q169.85 -50.95 171.65 -51.7 169.85 -50.95 167.8 -50.75 L167.45 -50.8 167.8 -50.8 Q169.85 -51.0 171.65 -51.7 L172.8 -52.25 176.8 -55.6 178.0 -57.25 Q180.2 -60.85 179.75 -65.35 L179.55 -67.0 Q178.75 -70.45 176.35 -73.05 L175.0 -74.35 Q172.55 -76.35 169.7 -77.0 L168.65 -77.2 165.2 -77.3 162.25 -76.65 165.2 -77.3 168.65 -77.2 Q167.0 -77.45 165.25 -77.25 L162.25 -76.65 Q160.95 -76.25 159.8 -75.6 157.85 -74.5 156.25 -72.5 154.8 -70.8 154.1 -68.8 M145.65 -60.4 L143.8 -60.2 145.65 -60.4 M144.35 -57.75 L146.05 -57.9 144.35 -57.75 M147.75 -58.05 L148.0 -58.1 147.75 -58.05 M147.45 -60.55 L147.15 -60.55 147.45 -60.55" fill="#00ffff" fill-rule="evenodd" stroke="none"/>
      <path d="M58.65 -49.45 Q51.3 -45.95 45.2 -39.6 38.5 -40.05 31.95 -39.65 33.05 -42.3 35.15 -45.7 33.5 -44.75 30.65 -41.8 L28.45 -39.3 Q20.6 -38.55 12.9 -36.5 18.75 -43.0 30.6 -47.75 18.15 -50.65 10.9 -57.05 22.1 -56.4 33.15 -58.05 L35.4 -55.5 Q38.75 -52.2 40.05 -51.8 38.9 -53.75 38.1 -55.45 37.25 -57.15 36.85 -58.75 L43.2 -60.15 Q49.75 -54.7 59.25 -52.0 L36.6 -49.85 37.8 -48.75 36.75 -48.45 36.85 -47.35 58.65 -49.45" fill="#00cc99" fill-rule="evenodd" stroke="none"/>
      <path d="M59.25 -52.0 L140.1 -59.85 Q140.25 -58.6 140.55 -57.35 L58.65 -49.45 36.85 -47.35 36.75 -48.45 37.8 -48.75 36.6 -49.85 59.25 -52.0" fill="#664400" fill-rule="evenodd" stroke="none"/>
      <path d="M154.95 -57.75 Q154.0 -59.6 153.45 -61.95 L153.3 -62.8 Q153.0 -66.05 154.1 -68.8 154.8 -70.8 156.25 -72.5 157.85 -74.5 159.8 -75.6 160.95 -76.25 162.25 -76.65 L165.25 -77.25 Q167.0 -77.45 168.65 -77.2 L169.7 -77.0 Q172.55 -76.35 175.0 -74.35 L176.35 -73.05 Q178.75 -70.45 179.55 -67.0 L179.75 -65.35 Q180.2 -60.85 178.0 -57.25 L176.8 -55.6 172.8 -52.25 171.65 -51.7 Q169.85 -51.0 167.8 -50.8 L167.45 -50.8 164.65 -50.85 161.2 -51.85 Q159.55 -52.55 158.05 -53.75 L157.95 -53.85 157.5 -54.25 Q155.95 -55.75 154.95 -57.75" fill="#ffffff" fill-rule="evenodd" stroke="none"/>
      <path d="M140.55 -57.35 Q142.65 -49.05 149.5 -43.35 158.05 -36.3 169.1 -37.35 180.15 -38.45 187.2 -47.0 194.25 -55.6 193.15 -66.65 192.1 -77.7 183.55 -84.75 175.75 -91.15 165.95 -90.8 L165.1 -91.6 Q164.25 -92.15 164.2 -92.65 164.1 -93.55 165.1 -95.4 L165.1 -95.45 Q166.1 -97.4 166.05 -98.25 165.8 -100.4 163.95 -100.85 L159.9 -101.0 Q157.1 -100.85 155.85 -101.45 153.95 -102.25 153.65 -104.95 153.4 -107.55 156.05 -112.0 157.9 -115.0 159.55 -116.5 L160.7 -117.65 Q154.6 -115.8 146.95 -109.05 138.75 -101.85 139.25 -96.9 139.45 -94.9 139.95 -94.6 L143.25 -94.25 145.6 -93.9 146.45 -93.6 Q147.85 -93.05 147.95 -92.15 148.05 -91.0 146.55 -89.9 L143.3 -87.8 Q138.6 -84.8 139.0 -80.9 139.15 -79.4 140.9 -78.6 142.4 -77.85 143.1 -77.1 139.05 -70.05 139.85 -61.5 L140.1 -59.85 141.9 -60.0 M58.65 -49.45 Q51.3 -45.95 45.2 -39.6 38.5 -40.05 31.95 -39.65 33.05 -42.3 35.15 -45.7 33.5 -44.75 30.65 -41.8 L28.45 -39.3 Q20.6 -38.55 12.9 -36.5 18.75 -43.0 30.6 -47.75 18.15 -50.65 10.9 -57.05 22.1 -56.4 33.15 -58.05 L35.4 -55.5 Q38.75 -52.2 40.05 -51.8 38.9 -53.75 38.1 -55.45 37.25 -57.15 36.85 -58.75 L43.2 -60.15 Q49.75 -54.7 59.25 -52.0 L140.1 -59.85 Q140.25 -58.6 140.55 -57.35 L142.4 -57.55 M59.25 -52.0 L36.6 -49.85 37.8 -48.75 36.75 -48.45 36.85 -47.35 58.65 -49.45 140.55 -57.35" fill="none" stroke="#000000" stroke-linecap="round" stroke-linejoin="round" stroke-opacity="0.6627451" stroke-width="1.0"/>
      <path d="M154.1 -68.8 Q154.8 -70.8 156.25 -72.5 157.85 -74.5 159.8 -75.6 M162.25 -76.65 L165.2 -77.3 168.65 -77.2 169.7 -77.0 M176.35 -73.05 Q178.75 -70.45 179.55 -67.0 M178.0 -57.25 L176.8 -55.6 172.8 -52.25 171.65 -51.7 Q169.85 -50.95 167.8 -50.75 L167.45 -50.8 M164.65 -50.85 L161.2 -51.85 Q159.55 -52.55 158.05 -53.75 L157.95 -53.85 157.5 -54.25 Q155.95 -55.75 154.95 -57.75 M147.15 -60.55 L147.45 -60.55 M148.0 -58.1 L147.75 -58.05 M146.05 -57.9 L144.35 -57.75 M143.8 -60.2 L145.65 -60.4" fill="none" stroke="#000000" stroke-linecap="round" stroke-linejoin="round" stroke-opacity="0.33333334" stroke-width="1.0"/>
      <path d="M133.95 -93.05 Q144.55 -105.95 161.2 -107.55 177.75 -109.15 190.6 -98.55 203.6 -87.9 205.2 -71.35 206.8 -54.7 196.1 -41.8 185.5 -28.95 168.95 -27.35 152.3 -25.75 139.45 -36.3 126.55 -46.9 124.95 -63.55 123.35 -80.1 133.95 -93.05" fill="url(#gradient18)" fill-rule="evenodd" stroke="none"/>
      <path d="M145.0 -81.55 Q152.2 -90.25 163.5 -91.35 174.75 -92.45 183.5 -85.25 192.3 -78.0 193.4 -66.75 194.45 -55.5 187.25 -46.7 180.0 -38.0 168.75 -36.9 157.45 -35.8 148.75 -43.0 139.95 -50.2 138.9 -61.45 137.8 -72.7 145.0 -81.55" fill="url(#gradient19)" fill-rule="evenodd" stroke="none"/>
      <path d="M178.3 -66.4 Q173.65 -65.95 170.0 -68.9 166.45 -71.9 166.0 -76.55 165.55 -81.15 168.45 -84.75 171.45 -88.4 176.1 -88.85 180.75 -89.3 184.3 -86.3 187.95 -83.3 188.4 -78.7 188.85 -74.05 185.85 -70.45 182.95 -66.85 178.3 -66.4" fill="url(#gradient20)" fill-rule="evenodd" stroke="none"/>
      <path d="M160.8 -66.45 Q161.25 -61.8 158.25 -58.2 155.35 -54.6 150.7 -54.15 146.05 -53.7 142.4 -56.65 138.85 -59.65 138.4 -64.3 137.95 -68.9 140.85 -72.5 143.85 -76.15 148.5 -76.6 153.15 -77.05 156.7 -74.05 160.35 -71.05 160.8 -66.45" fill="url(#gradient21)" fill-rule="evenodd" stroke="none"/>
      <path d="M175.95 -63.3 Q180.6 -63.75 184.15 -60.75 187.8 -57.75 188.25 -53.15 188.7 -48.5 185.7 -44.9 182.8 -41.3 178.15 -40.85 173.5 -40.4 169.85 -43.35 166.3 -46.35 165.85 -51.0 165.4 -55.6 168.3 -59.2 171.3 -62.85 175.95 -63.3" fill="url(#gradient22)" fill-rule="evenodd" stroke="none"/>
      <path d="M39.9 -19.5 L54.6 5.05 54.95 5.65 56.95 9.0 56.95 14.1 51.7 5.35 Q43.4 -8.6 37.65 -19.9 L39.9 -19.5 M29.5 -66.55 L34.8 -78.15 40.6 -90.1 43.4 -90.1 31.4 -66.65 29.5 -66.55" fill="#33281e" fill-rule="evenodd" stroke="none"/>
      <path d="M31.4 -66.65 L32.05 -66.7 Q36.45 -66.45 38.95 -65.0 41.2 -63.7 41.05 -62.15 L41.1 -56.45 Q41.1 -54.65 40.4 -52.55 L39.45 -50.6 Q46.45 -48.7 48.4 -46.7 49.55 -45.5 49.55 -42.2 49.55 -39.75 48.8 -37.55 48.15 -35.7 47.1 -34.6 L46.6 -34.35 46.3 -34.2 45.15 -34.15 43.15 -34.05 42.6 -34.05 39.2 -34.25 Q37.05 -34.3 35.4 -35.45 L34.3 -36.1 30.6 -36.0 29.8 -35.8 29.9 -35.25 42.2 -33.05 42.8 -32.9 Q46.8 -31.75 46.8 -26.7 46.8 -24.3 46.4 -22.8 46.15 -21.25 44.75 -19.75 L42.95 -19.45 41.75 -19.4 39.9 -19.5 37.65 -19.9 Q35.7 -20.3 33.8 -21.1 L33.65 -21.15 28.1 -22.55 27.2 -22.65 Q23.65 -22.6 21.0 -19.95 L12.4 -14.3 Q-1.3 -6.05 -17.7 -3.7 L-23.6 -3.4 -25.15 -3.4 Q-38.1 -3.4 -42.8 -6.7 L-43.35 -6.6 Q-48.8 -6.6 -54.75 -11.5 -59.2 -15.15 -59.95 -17.0 -62.5 -22.65 -62.75 -23.8 L-62.85 -29.0 Q-62.85 -38.5 -59.3 -46.4 -55.65 -54.6 -49.55 -58.0 L-49.2 -57.8 Q-49.05 -57.7 -49.05 -57.25 L-49.05 -57.1 -52.25 -53.75 Q-55.85 -49.2 -58.05 -43.1 -60.65 -35.7 -60.65 -28.85 -60.65 -17.65 -51.35 -12.45 -49.3 -11.3 -44.95 -9.7 L-44.9 -9.65 -45.15 -10.5 -45.2 -10.55 Q-46.6 -11.1 -48.15 -12.0 -51.95 -14.2 -51.95 -15.5 L-51.95 -15.6 Q-51.95 -20.15 -51.45 -21.8 L-50.6 -25.2 Q-49.85 -27.2 -48.8 -26.95 L-49.35 -25.35 -50.05 -22.6 -50.15 -20.45 -50.05 -18.4 -50.05 -18.25 Q-50.05 -15.15 -45.25 -13.3 -40.4 -11.5 -40.35 -10.5 L-40.55 -10.0 Q-40.75 -9.7 -41.35 -9.7 L-42.25 -9.75 Q-41.5 -9.2 -38.55 -7.7 -35.65 -6.2 -29.25 -6.0 -22.9 -5.8 -14.65 -6.4 -6.45 -7.0 9.8 -15.1 L21.0 -22.5 Q23.05 -24.9 26.2 -24.8 L28.1 -24.75 30.9 -23.9 33.8 -22.8 35.75 -22.1 36.65 -21.85 38.8 -21.4 42.75 -21.15 43.85 -21.25 Q45.2 -22.45 45.2 -24.6 L45.3 -26.65 45.05 -29.25 Q44.45 -30.7 42.5 -31.25 L41.5 -31.45 Q38.7 -31.85 34.2 -33.0 31.1 -33.75 29.85 -34.25 L29.8 -34.3 Q29.3 -34.5 29.15 -34.65 L29.05 -34.7 Q28.65 -35.05 28.65 -35.75 L28.65 -35.8 28.3 -35.8 28.15 -35.95 Q28.75 -36.8 30.9 -37.6 L31.6 -37.9 32.4 -38.1 32.45 -38.1 33.65 -38.2 35.7 -37.0 Q37.3 -36.25 39.2 -36.0 L42.2 -35.85 43.3 -35.85 45.65 -36.35 Q46.4 -37.2 46.85 -38.8 47.35 -40.45 47.35 -42.15 47.35 -44.05 47.15 -44.45 46.55 -45.45 43.65 -46.95 L43.6 -47.0 38.25 -48.65 36.15 -49.45 33.05 -50.1 31.5 -49.95 25.65 -47.5 21.65 -45.9 Q21.25 -46.0 21.1 -46.2 L23.6 -48.0 24.9 -48.8 24.9 -49.0 Q24.9 -50.65 25.25 -50.95 25.6 -51.35 28.25 -52.4 L27.85 -53.25 Q28.55 -53.35 29.05 -52.95 L29.75 -52.35 30.55 -51.9 30.9 -51.75 31.5 -51.85 33.55 -52.05 36.95 -51.55 37.7 -51.3 38.45 -52.95 39.4 -55.55 39.45 -60.05 Q39.45 -62.65 38.75 -63.35 38.0 -64.1 36.6 -64.55 L30.75 -65.5 29.05 -65.55 28.05 -65.55 23.2 -65.05 18.45 -64.3 Q18.2 -64.4 17.9 -64.55 19.05 -65.4 20.55 -65.75 L26.65 -66.45 27.85 -66.5 Q27.55 -66.8 27.4 -67.4 27.25 -67.95 27.25 -68.8 27.0 -70.4 26.3 -70.7 L23.75 -70.85 23.45 -70.85 Q19.75 -70.75 14.0 -68.65 L7.45 -65.85 Q6.1 -65.2 5.75 -64.15 5.6 -63.75 5.6 -62.55 L5.5 -59.3 5.55 -58.95 5.6 -58.95 5.6 -58.65 5.6 -58.55 8.95 -59.8 8.0 -58.1 7.65 -57.6 6.0 -56.5 Q2.2 -55.0 -2.65 -54.2 L-3.1 -54.15 -14.25 -53.55 -18.2 -53.75 -19.15 -53.75 -28.0 -53.35 Q-34.05 -52.7 -38.55 -50.1 -43.1 -47.55 -47.2 -45.6 -44.4 -49.95 -39.8 -52.4 L-35.9 -54.3 Q-33.4 -55.2 -31.75 -55.3 L-22.6 -55.9 -22.8 -57.0 -22.75 -57.25 -22.35 -57.7 -21.35 -56.15 -21.25 -55.95 -18.2 -56.15 Q-10.1 -55.75 -3.1 -56.4 L-2.65 -56.5 -0.8 -56.75 2.3 -57.45 Q3.8 -57.9 4.0 -58.2 L4.3 -58.5 4.25 -58.8 4.25 -58.85 4.25 -59.05 4.15 -59.55 4.1 -60.65 4.05 -64.1 Q4.05 -65.95 7.55 -67.85 10.8 -69.65 15.65 -70.85 L20.6 -72.2 21.95 -72.4 24.0 -72.6 24.3 -72.6 Q27.3 -72.65 28.1 -71.4 L28.25 -71.0 28.75 -69.6 29.25 -67.5 29.25 -67.2 29.3 -66.65 29.3 -66.55 29.5 -66.55 31.4 -66.65 M25.85 -49.65 L26.0 -49.4 29.35 -51.1 28.75 -51.7 Q28.25 -51.25 26.85 -50.7 25.7 -50.15 25.85 -49.65" fill="#000000" fill-rule="evenodd" stroke="none"/>
      <path d="M-47.45 -57.15 L-39.2 -57.3 -28.65 -57.7 -25.45 -57.65 -22.75 -57.25 -22.8 -57.0 -22.6 -55.9 -31.75 -55.3 Q-33.4 -55.2 -35.9 -54.3 L-39.8 -52.4 Q-44.4 -49.95 -47.2 -45.6 -43.1 -47.55 -38.55 -50.1 -34.05 -52.7 -28.0 -53.35 L-19.15 -53.75 -18.2 -53.75 -14.25 -53.55 -3.1 -54.15 -2.65 -54.2 Q2.2 -55.0 6.0 -56.5 L7.65 -57.6 8.0 -58.1 8.95 -59.8 5.6 -58.55 5.6 -58.65 5.6 -58.95 5.55 -58.95 5.5 -59.3 5.6 -62.55 Q5.6 -63.75 5.75 -64.15 6.1 -65.2 7.45 -65.85 L14.0 -68.65 Q19.75 -70.75 23.45 -70.85 L24.5 -69.0 Q25.3 -67.25 26.65 -66.45 L20.55 -65.75 Q19.05 -65.4 17.9 -64.55 18.2 -64.4 18.45 -64.3 L23.2 -65.05 28.05 -65.55 29.05 -65.55 30.75 -65.5 36.6 -64.55 37.0 -64.2 Q37.65 -63.35 37.65 -58.0 L37.3 -54.3 36.95 -51.55 33.55 -52.05 31.5 -51.85 30.9 -51.75 30.55 -51.9 29.75 -52.35 29.05 -52.95 Q28.55 -53.35 27.85 -53.25 L28.25 -52.4 Q25.6 -51.35 25.25 -50.95 24.9 -50.65 24.9 -49.0 L24.9 -48.8 23.6 -48.0 21.1 -46.2 Q21.25 -46.0 21.65 -45.9 L25.65 -47.5 31.5 -49.95 33.05 -50.1 36.15 -49.45 38.25 -48.65 43.6 -47.0 43.65 -46.95 Q45.15 -45.55 45.15 -42.5 45.15 -41.0 43.65 -36.9 L43.3 -35.85 42.2 -35.85 39.2 -36.0 Q37.3 -36.25 35.7 -37.0 L33.65 -38.2 32.45 -38.1 32.4 -38.1 31.6 -37.9 30.9 -37.6 Q28.75 -36.8 28.15 -35.95 L28.3 -35.8 28.65 -35.8 28.65 -35.75 Q28.65 -35.05 29.05 -34.7 L29.15 -34.65 Q29.3 -34.5 29.8 -34.3 L29.85 -34.25 Q31.1 -33.75 34.2 -33.0 38.7 -31.85 41.5 -31.45 L42.5 -31.25 42.8 -29.55 43.4 -25.15 Q43.4 -22.95 42.85 -21.45 L42.75 -21.15 38.8 -21.4 36.65 -21.85 35.75 -22.1 33.8 -22.8 30.9 -23.9 28.1 -24.75 26.2 -24.8 Q23.05 -24.9 21.0 -22.5 L9.8 -15.1 Q-6.45 -7.0 -14.65 -6.4 -22.9 -5.8 -29.25 -6.0 -35.65 -6.2 -38.55 -7.7 -41.5 -9.2 -42.25 -9.75 L-41.35 -9.7 Q-40.75 -9.7 -40.55 -10.0 L-40.35 -10.5 Q-40.4 -11.5 -45.25 -13.3 -50.05 -15.15 -50.05 -18.25 L-50.05 -18.4 -50.15 -20.45 -50.05 -22.6 -49.35 -25.35 -48.8 -26.95 Q-49.85 -27.2 -50.6 -25.2 L-51.45 -21.8 Q-51.95 -20.15 -51.95 -15.6 -53.2 -16.7 -53.85 -17.75 L-57.25 -23.35 Q-57.6 -24.3 -57.6 -28.5 -57.6 -34.0 -57.0 -37.3 -56.25 -41.55 -54.1 -45.75 L-50.7 -52.8 Q-49.2 -55.5 -47.45 -57.15" fill="#999999" fill-rule="evenodd" stroke="none"/>
      <path d="M-49.05 -57.25 L-47.45 -57.15 Q-49.2 -55.5 -50.7 -52.8 L-54.1 -45.75 Q-56.25 -41.55 -57.0 -37.3 -57.6 -34.0 -57.6 -28.5 -57.6 -24.3 -57.25 -23.35 L-53.85 -17.75 Q-53.2 -16.7 -51.95 -15.6 L-51.95 -15.5 Q-51.95 -14.2 -48.15 -12.0 -46.6 -11.1 -45.2 -10.55 L-45.15 -10.5 -44.9 -9.65 -44.95 -9.7 Q-49.3 -11.3 -51.35 -12.45 -60.65 -17.65 -60.65 -28.85 -60.65 -35.7 -58.05 -43.1 -55.85 -49.2 -52.25 -53.75 L-49.05 -57.1 -49.05 -57.25 M36.6 -64.55 Q38.0 -64.1 38.75 -63.35 39.45 -62.65 39.45 -60.05 L39.4 -55.55 38.45 -52.95 37.7 -51.3 36.95 -51.55 37.3 -54.3 37.65 -58.0 Q37.65 -63.35 37.0 -64.2 L36.6 -64.55 M43.65 -46.95 Q46.55 -45.45 47.15 -44.45 47.35 -44.05 47.35 -42.15 47.35 -40.45 46.85 -38.8 46.4 -37.2 45.65 -36.35 L43.3 -35.85 43.65 -36.9 Q45.15 -41.0 45.15 -42.5 45.15 -45.55 43.65 -46.95 M42.5 -31.25 Q44.45 -30.7 45.05 -29.25 L45.3 -26.65 45.2 -24.6 Q45.2 -22.45 43.85 -21.25 L42.75 -21.15 42.85 -21.45 Q43.4 -22.95 43.4 -25.15 L42.8 -29.55 42.5 -31.25 M23.45 -70.85 L23.75 -70.85 26.3 -70.7 Q27.0 -70.4 27.25 -68.8 27.25 -67.95 27.4 -67.4 27.55 -66.8 27.85 -66.5 L26.65 -66.45 Q25.3 -67.25 24.5 -69.0 L23.45 -70.85" fill="#bdbdbd" fill-rule="evenodd" stroke="none"/>
    </g>
    <radialGradient cx="0" cy="0" gradientTransform="matrix(0.0492, -0.0048, 0.0048, 0.0492, 165.1, -67.45)" gradientUnits="userSpaceOnUse" id="gradient18" r="819.2" spreadMethod="pad">
      <stop offset="0.0" stop-color="#00ffff" stop-opacity="0.8235294"/>
      <stop offset="1.0" stop-color="#ffffff" stop-opacity="0.0"/>
    </radialGradient>
    <radialGradient cx="0" cy="0" gradientTransform="matrix(0.0334, -0.0032, 0.0032, 0.0334, 166.15, -64.1)" gradientUnits="userSpaceOnUse" id="gradient19" r="819.2" spreadMethod="pad">
      <stop offset="0.0" stop-color="#ffffff"/>
      <stop offset="1.0" stop-color="#ffffff" stop-opacity="0.0"/>
    </radialGradient>
    <radialGradient cx="0" cy="0" gradientTransform="matrix(0.0137, -0.0013, 0.0013, 0.0137, 177.2, -77.65)" gradientUnits="userSpaceOnUse" id="gradient20" r="819.2" spreadMethod="pad">
      <stop offset="0.0" stop-color="#ffffff"/>
      <stop offset="1.0" stop-color="#ffffff" stop-opacity="0.0"/>
    </radialGradient>
    <radialGradient cx="0" cy="0" gradientTransform="matrix(0.0137, -0.0013, 0.0013, 0.0137, 149.6, -65.4)" gradientUnits="userSpaceOnUse" id="gradient21" r="819.2" spreadMethod="pad">
      <stop offset="0.0" stop-color="#ffffff"/>
      <stop offset="1.0" stop-color="#ffffff" stop-opacity="0.0"/>
    </radialGradient>
    <radialGradient cx="0" cy="0" gradientTransform="matrix(0.0137, -0.0013, 0.0013, 0.0137, 177.05, -52.1)" gradientUnits="userSpaceOnUse" id="gradient22" r="819.2" spreadMethod="pad">
      <stop offset="0.0" stop-color="#ffffff"/>
      <stop offset="1.0" stop-color="#ffffff" stop-opacity="0.0"/>
    </radialGradient>
  </defs>
</svg>
