<?xml version="1.0" encoding="UTF-8" standalone="no"?>
<svg xmlns:xlink="http://www.w3.org/1999/xlink" height="531.5px" width="460.6px" xmlns="http://www.w3.org/2000/svg">
  <g transform="matrix(1.0, 0.0, 0.0, 1.0, 193.65, 334.05)">
    <use height="153.15" transform="matrix(1.0, 0.0, 0.0, 1.0, -67.25, -64.4)" width="60.7" xlink:href="#shape0"/>
  </g>
  <defs>
    <g id="shape0" transform="matrix(1.0, 0.0, 0.0, 1.0, 67.25, 64.4)">
      <path d="M-28.0 -36.25 L-27.65 -40.1 -27.6 -40.5 -27.6 -40.6 -27.2 -43.15 -25.4 -43.9 -24.75 -42.4 -23.9 -39.0 -24.0 -36.15 Q-24.0 -31.65 -24.6 -26.0 L-24.65 -26.55 -26.0 -31.65 Q-26.65 -33.8 -28.0 -36.25 M-24.65 -30.4 L-24.65 -26.55 -24.65 -30.4 M-23.2 58.1 Q-22.1 55.95 -20.95 52.35 L-20.25 49.05 -19.75 45.85 Q-18.55 46.85 -17.25 51.35 -16.45 54.25 -16.15 56.65 L-16.15 56.85 Q-16.0 58.15 -16.0 59.3 -16.0 63.05 -18.25 71.65 L-19.3 75.25 -19.4 75.55 -19.75 76.6 -19.65 75.6 -19.65 75.45 Q-18.95 69.3 -17.7 63.45 -18.35 62.05 -19.5 60.85 L-19.9 60.45 Q-21.4 58.9 -23.2 58.1 M-19.9 75.65 L-19.65 75.45 -19.65 75.6 -19.75 76.6 Q-21.6 81.5 -23.75 82.8 L-24.65 78.4 Q-23.35 78.1 -22.2 77.45 L-19.9 75.65 M-16.15 56.85 L-17.7 63.45 -16.15 56.85 M-19.45 54.55 Q-20.35 56.85 -19.5 60.85 -20.35 56.85 -19.45 54.55 M-22.15 79.15 L-22.2 77.45 -22.15 79.15" fill="#96521f" fill-rule="evenodd" stroke="none"/>
      <path d="M-25.4 -43.9 L-27.2 -43.15 -27.6 -40.6 -27.6 -40.5 -27.65 -40.1 -28.0 -36.25 Q-29.85 -18.95 -33.05 -3.75 -36.35 12.2 -36.35 27.75 L-36.35 33.1 -36.4 34.3 -35.4 39.1 -30.65 56.25 -30.2 57.65 Q-26.65 70.15 -25.65 74.1 L-24.65 78.4 -23.75 82.8 -23.6 83.75 -23.4 85.25 -23.6 83.75 -23.75 82.8 Q-21.6 81.5 -19.75 76.6 L-19.4 75.55 -19.3 75.25 -18.25 71.65 Q-16.0 63.05 -16.0 59.3 -16.0 58.15 -16.15 56.85 L-16.15 56.65 Q-16.45 54.25 -17.25 51.35 -18.55 46.85 -19.75 45.85 L-20.25 49.05 -20.95 52.35 Q-22.1 55.95 -23.2 58.1 L-24.2 57.75 -23.15 52.35 Q-21.4 41.65 -21.4 33.05 -21.4 28.9 -22.25 17.25 L-23.4 2.55 -24.35 -17.2 -24.6 -26.0 Q-24.0 -31.65 -24.0 -36.15 L-23.9 -39.0 -24.75 -42.4 -25.4 -43.9 M-21.25 -38.15 L-21.25 -37.65 -21.55 -29.9 -21.85 -22.2 Q-21.85 -5.8 -19.8 9.7 -18.2 21.95 -15.55 31.2 L-14.05 49.95 Q-13.55 75.0 -18.75 84.35 -20.9 86.85 -23.15 87.75 -26.1 86.95 -28.6 83.1 L-29.45 81.65 -30.65 79.3 Q-34.0 72.05 -34.7 63.8 -34.95 60.85 -36.65 54.3 -38.45 47.2 -38.95 43.9 L-40.0 31.85 Q-40.9 20.3 -40.9 14.3 L-40.4 4.0 Q-38.6 -8.4 -35.7 -24.0 -31.1 -48.85 -28.45 -51.3 -25.85 -53.75 -22.8 -47.6 -21.9 -43.15 -21.25 -38.15 M-27.1 -47.3 Q-27.0 -45.15 -27.2 -43.15 -27.0 -45.15 -27.1 -47.3 M-25.8 84.35 Q-26.8 84.45 -28.3 83.35 L-28.6 83.1 -28.3 83.35 Q-26.8 84.45 -25.8 84.35 M-38.6 19.9 Q-37.6 28.15 -36.4 34.3 -37.6 28.15 -38.6 19.9 M-20.15 80.5 L-19.75 76.6 -20.15 80.5 M-21.65 84.05 L-23.6 83.75 -21.65 84.05 M-32.0 -21.9 L-38.95 13.7 -32.0 -21.9" fill="#b06b33" fill-rule="evenodd" stroke="none"/>
      <path d="M-15.55 31.2 Q-18.2 21.95 -19.8 9.7 -21.85 -5.8 -21.85 -22.2 L-21.55 -29.9 -21.25 -37.65 -21.25 -38.15 Q-20.2 -29.75 -19.75 -19.8 L-15.55 31.2 M-40.4 4.0 L-40.9 14.3 Q-40.9 20.3 -40.0 31.85 L-38.95 43.9 Q-38.45 47.2 -36.65 54.3 -34.95 60.85 -34.7 63.8 -34.0 72.05 -30.65 79.3 L-29.45 81.65 -28.6 83.1 Q-29.6 82.25 -29.45 81.65 -29.6 82.25 -28.6 83.1 -26.1 86.95 -23.15 87.75 -28.25 89.75 -34.05 84.1 -39.8 73.75 -42.15 63.95 -43.9 35.65 -42.05 17.55 L-40.4 4.0 M-33.5 79.6 Q-33.15 81.55 -32.05 83.0 -31.1 84.3 -29.95 84.65 -31.1 84.3 -32.05 83.0 -33.15 81.55 -33.5 79.6 M-34.25 75.65 Q-33.85 76.85 -32.8 78.25 L-31.45 79.6 -32.8 78.25 Q-33.85 76.85 -34.25 75.65" fill="#d99359" fill-rule="evenodd" stroke="none"/>
      <path d="M-23.2 58.1 Q-21.4 58.9 -19.9 60.45 L-19.5 60.85 Q-18.35 62.05 -17.7 63.45 -18.95 69.3 -19.65 75.45 L-19.9 75.65 Q-22.05 75.6 -24.2 71.8 -26.65 67.5 -26.65 61.6 -26.65 59.2 -26.0 57.35 L-24.2 57.75 -23.2 58.1" fill="#4d4d4d" fill-rule="evenodd" stroke="none"/>
      <path d="M-26.0 57.35 Q-26.65 59.2 -26.65 61.6 -26.65 67.5 -24.2 71.8 -22.05 75.6 -19.9 75.65 L-22.2 77.45 Q-23.35 78.1 -24.65 78.4 L-25.65 74.1 Q-26.65 70.15 -30.2 57.65 L-27.45 57.3 -26.0 57.35" fill="#303030" fill-rule="evenodd" stroke="none"/>
      <path d="M-25.4 -43.9 L-27.2 -43.15 -27.6 -40.6 -27.6 -40.5 -27.65 -40.1 -28.0 -36.25 Q-26.65 -33.8 -26.0 -31.65 L-24.65 -26.55 -24.65 -30.4 M-21.25 -38.15 Q-21.9 -43.15 -22.8 -47.6 -25.85 -53.75 -28.45 -51.3 -31.1 -48.85 -35.7 -24.0 -38.6 -8.4 -40.4 4.0 L-42.05 17.55 Q-43.9 35.65 -42.15 63.95 -39.8 73.75 -34.05 84.1 -28.25 89.75 -23.15 87.75 -20.9 86.85 -18.75 84.35 -13.55 75.0 -14.05 49.95 L-15.55 31.2 -19.75 -19.8 Q-20.2 -29.75 -21.25 -38.15 M-28.6 83.1 L-28.3 83.35 Q-26.8 84.45 -25.8 84.35 M-27.2 -43.15 Q-27.0 -45.15 -27.1 -47.3 M-24.6 -26.0 L-24.65 -26.55 M-36.4 34.3 L-36.35 33.1 -36.35 27.75 Q-36.35 12.2 -33.05 -3.75 -29.85 -18.95 -28.0 -36.25 M-24.2 57.75 L-23.15 52.35 Q-21.4 41.65 -21.4 33.05 -21.4 28.9 -22.25 17.25 L-23.4 2.55 -24.35 -17.2 -24.6 -26.0 M-30.2 57.65 L-30.65 56.25 -35.4 39.1 -36.4 34.3 Q-37.6 28.15 -38.6 19.9 M-19.75 76.6 L-20.15 80.5 M-19.9 75.65 L-19.65 75.45 Q-18.95 69.3 -17.7 63.45 -18.35 62.05 -19.5 60.85 L-19.9 60.45 Q-21.4 58.9 -23.2 58.1 L-24.2 57.75 -26.0 57.35 -27.45 57.3 -30.2 57.65 Q-26.65 70.15 -25.65 74.1 L-24.65 78.4 Q-23.35 78.1 -22.2 77.45 L-22.15 79.15 M-19.9 75.65 L-22.2 77.45 M-19.5 60.85 Q-20.35 56.85 -19.45 54.55 M-17.7 63.45 L-16.15 56.85 M-28.6 83.1 Q-29.6 82.25 -29.45 81.65 M-23.4 85.25 L-23.6 83.75 -23.75 82.8 -24.65 78.4 M-23.6 83.75 L-21.65 84.05 M-31.45 79.6 L-32.8 78.25 Q-33.85 76.85 -34.25 75.65 M-29.95 84.65 Q-31.1 84.3 -32.05 83.0 -33.15 81.55 -33.5 79.6 M-19.75 76.6 L-19.65 75.6 -19.65 75.45 M-38.95 13.7 L-32.0 -21.9" fill="none" stroke="#000000" stroke-linecap="round" stroke-linejoin="round" stroke-opacity="0.5019608" stroke-width="1.0"/>
      <path d="M-19.55 -8.15 Q-20.05 -9.35 -20.25 -12.05 L-20.4 -16.95 Q-20.4 -22.05 -19.75 -25.5 -19.2 -28.5 -17.15 -34.75 -15.1 -41.1 -13.75 -43.65 L-10.9 -48.15 Q-10.0 -49.4 -8.5 -50.5 L-7.95 -50.85 Q-6.55 -51.8 -6.55 -50.35 -6.55 -50.85 -9.1 -47.4 L-11.05 -44.5 -10.95 -44.55 -12.15 -42.1 -12.4 -42.0 -13.4 -39.6 -16.75 -28.85 Q-18.05 -24.0 -18.25 -18.1 L-18.15 -10.15 -15.25 -10.05 Q-13.3 -9.9 -12.5 -9.4 L-11.25 -8.3 -10.45 -6.95 Q-10.1 -6.25 -10.1 -4.6 L-10.1 -3.1 Q-9.9 -1.05 -10.2 1.25 L-10.2 1.3 Q-10.25 3.8 -11.45 6.05 L-11.75 6.65 Q-12.6 7.65 -14.25 8.5 L-16.2 8.7 -18.25 8.4 Q-19.55 8.15 -20.6 7.5 L-20.9 7.3 -21.55 6.95 -21.85 9.2 -21.95 14.45 -21.95 15.25 -20.4 15.1 Q-18.15 15.2 -18.3 17.35 L-18.15 21.25 Q-18.15 22.85 -19.25 23.95 -20.55 25.25 -23.2 25.75 L-26.65 26.0 -34.05 25.6 Q-34.1 26.35 -34.3 26.9 L-34.9 27.7 Q-35.45 28.2 -36.35 28.6 -38.35 29.35 -41.95 29.35 L-47.45 28.8 Q-49.35 28.25 -50.25 27.3 L-50.85 26.3 -52.2 26.4 -53.45 26.4 -55.85 26.55 Q-61.35 26.25 -63.55 20.5 L-64.15 18.65 Q-67.55 6.5 -67.25 -6.15 -67.0 -18.3 -64.85 -30.25 -63.0 -40.75 -59.5 -50.8 -57.9 -55.4 -55.9 -59.8 -53.5 -64.4 -52.75 -64.4 -52.45 -64.4 -52.2 -64.15 L-52.15 -64.1 -51.9 -63.65 -51.9 -63.6 Q-51.9 -63.25 -53.4 -59.8 -58.55 -49.65 -60.65 -38.45 L-62.15 -30.25 -64.05 -17.85 Q-65.8 -4.3 -63.75 9.05 -62.95 14.05 -61.4 18.65 -60.7 22.25 -58.1 23.5 L-55.75 24.05 -53.45 24.1 -52.35 24.1 Q-51.4 24.1 -50.95 23.75 -50.7 22.25 -49.9 22.25 -49.6 22.65 -49.5 23.55 L-49.5 23.6 -49.45 23.6 -49.15 24.75 -49.15 24.9 -48.9 25.4 -48.8 25.55 -48.15 26.35 -48.05 26.45 Q-47.4 26.95 -45.5 27.0 L-41.9 26.9 Q-37.6 26.9 -36.6 26.0 -36.4 25.8 -36.3 24.65 -36.5 23.05 -36.3 22.35 -36.0 21.25 -35.3 21.55 -34.65 21.85 -34.3 22.85 L-34.15 23.7 -34.1 23.7 -33.3 24.0 -27.65 23.75 -22.35 23.1 -22.0 22.95 -21.2 22.3 -20.4 21.15 Q-20.1 19.9 -19.9 17.0 L-21.95 16.7 -22.0 19.65 -22.0 19.95 -22.55 20.15 -23.1 19.45 -23.3 18.4 -23.25 16.5 -23.3 14.35 -23.25 12.75 -23.15 9.1 -22.5 5.0 Q-21.95 2.25 -21.15 0.45 L-20.65 -0.55 Q-19.7 -2.2 -18.65 -1.9 L-18.55 -1.45 -18.6 -1.15 -19.05 -0.3 -19.15 0.2 -19.6 1.05 -20.9 4.0 -21.15 5.25 -20.6 5.75 Q-18.9 7.55 -16.5 7.4 L-16.0 7.3 -15.5 7.2 -14.25 6.7 Q-14.2 6.65 -13.75 6.35 L-12.55 4.75 Q-11.8 3.45 -11.7 1.45 L-11.6 -2.4 -11.65 -3.35 Q-11.5 -4.7 -11.85 -6.45 -12.25 -8.2 -15.5 -8.6 L-18.1 -8.95 -18.05 -7.9 -18.05 -7.4 Q-18.0 -7.15 -18.65 -7.15 -19.2 -7.15 -19.55 -8.15" fill="#000000" fill-rule="evenodd" stroke="none"/>
      <path d="M-19.55 -8.15 L-20.15 -8.25 -21.4 -8.8 -21.8 -9.15 -22.05 -11.6 -22.2 -16.85 Q-22.2 -22.35 -21.6 -26.05 -21.15 -29.3 -19.3 -36.0 -17.5 -42.85 -16.3 -45.6 L-13.75 -50.45 -11.65 -53.0 -11.55 -53.05 -7.95 -50.85 -8.5 -50.5 Q-10.0 -49.4 -10.9 -48.15 L-13.75 -43.65 Q-15.1 -41.1 -17.15 -34.75 -19.2 -28.5 -19.75 -25.5 -20.4 -22.05 -20.4 -16.95 L-20.25 -12.05 Q-20.05 -9.35 -19.55 -8.15 M-51.25 -63.65 L-51.5 -63.0 Q-56.05 -52.05 -57.95 -40.0 L-59.25 -31.2 Q-60.25 -24.5 -61.35 -12.95 -62.5 -1.4 -61.2 7.65 -59.95 16.65 -59.15 19.65 L-58.1 23.5 Q-60.7 22.25 -61.4 18.65 -62.95 14.05 -63.75 9.05 -65.8 -4.3 -64.05 -17.85 L-62.15 -30.25 -60.65 -38.45 Q-58.55 -49.65 -53.4 -59.8 -51.9 -63.25 -51.9 -63.6 L-51.9 -63.65 -51.25 -63.65 M-48.8 25.55 L-48.4 25.35 Q-48.15 25.7 -48.05 26.45 L-48.15 26.35 -48.8 25.55 M-22.0 22.95 L-21.75 19.7 -22.0 19.65 -21.95 16.7 -19.9 17.0 Q-20.1 19.9 -20.4 21.15 L-21.2 22.3 -22.0 22.95 M-23.1 19.45 L-23.45 19.35 -23.9 19.1 -24.3 18.65 -24.55 18.15 -24.75 17.0 -24.75 16.85 -24.75 15.1 -24.65 11.2 -24.05 6.75 Q-23.55 3.8 -22.85 1.85 -21.8 -1.05 -20.65 -0.65 L-20.65 -0.55 -21.15 0.45 Q-21.95 2.25 -22.5 5.0 L-23.15 9.1 -23.25 12.75 -23.3 14.35 -23.25 16.5 -23.3 18.4 -23.1 19.45 M-15.5 7.2 L-14.7 4.65 Q-13.85 1.5 -13.85 -0.65 -13.85 -3.3 -14.45 -4.7 L-14.5 -4.8 -14.5 -4.9 Q-14.9 -7.05 -17.0 -7.7 L-17.85 -7.9 -18.05 -7.9 -18.1 -8.95 -15.5 -8.6 Q-12.25 -8.2 -11.85 -6.45 -11.5 -4.7 -11.65 -3.35 L-11.6 -2.4 -11.7 1.45 Q-11.8 3.45 -12.55 4.75 L-13.75 6.35 Q-14.2 6.65 -14.25 6.7 L-15.5 7.2" fill="#bdbdbd" fill-rule="evenodd" stroke="none"/>
      <path d="M-11.55 -53.05 L-11.65 -53.0 -13.75 -50.45 -16.3 -45.6 Q-17.5 -42.85 -19.3 -36.0 -21.15 -29.3 -21.6 -26.05 -22.2 -22.35 -22.2 -16.85 L-22.05 -11.6 -21.8 -9.15 -21.4 -8.8 -20.15 -8.25 -19.55 -8.15 Q-19.2 -7.15 -18.65 -7.15 -18.0 -7.15 -18.05 -7.4 L-18.05 -7.9 -17.85 -7.9 -17.0 -7.7 Q-14.9 -7.05 -14.5 -4.9 L-14.5 -4.8 -14.45 -4.7 Q-13.85 -3.3 -13.85 -0.65 -13.85 1.5 -14.7 4.65 L-15.5 7.2 -16.0 7.3 -16.5 7.4 Q-18.9 7.55 -20.6 5.75 L-21.15 5.25 -20.9 4.0 -19.6 1.05 -19.15 0.2 -19.05 -0.3 -18.6 -1.15 -18.55 -1.45 -18.65 -1.9 Q-19.7 -2.2 -20.65 -0.55 L-20.65 -0.65 Q-21.8 -1.05 -22.85 1.85 -23.55 3.8 -24.05 6.75 L-24.65 11.2 -24.75 15.1 -24.75 16.85 -24.75 17.0 -24.55 18.15 -24.3 18.65 -23.9 19.1 -23.45 19.35 -23.1 19.45 -22.55 20.15 -22.0 19.95 -22.0 19.65 -21.75 19.7 -22.0 22.95 -22.35 23.1 -27.65 23.75 -33.3 24.0 -34.1 23.7 -34.15 23.7 -34.3 22.85 Q-34.65 21.85 -35.3 21.55 -36.0 21.25 -36.3 22.35 -36.5 23.05 -36.3 24.65 -36.4 25.8 -36.6 26.0 -37.6 26.9 -41.9 26.9 L-45.5 27.0 Q-47.4 26.95 -48.05 26.45 -48.15 25.7 -48.4 25.35 L-48.8 25.55 -48.9 25.4 -49.15 24.9 -49.15 24.75 -49.45 23.6 -49.5 23.6 -49.5 23.55 Q-49.6 22.65 -49.9 22.25 -50.7 22.25 -50.95 23.75 -51.4 24.1 -52.35 24.1 L-53.45 24.1 -55.75 24.05 -58.1 23.5 -59.15 19.65 Q-59.95 16.65 -61.2 7.65 -62.5 -1.4 -61.35 -12.95 -60.25 -24.5 -59.25 -31.2 L-57.95 -40.0 Q-56.05 -52.05 -51.5 -63.0 L-51.25 -63.65 Q-29.65 -63.45 -11.55 -53.05" fill="#999999" fill-rule="evenodd" stroke="none"/>
    </g>
  </defs>
</svg>
