<?xml version="1.0" encoding="UTF-8" standalone="no"?>
<svg xmlns:xlink="http://www.w3.org/1999/xlink" height="531.5px" width="460.6px" xmlns="http://www.w3.org/2000/svg">
  <g transform="matrix(1.0, 0.0, 0.0, 1.0, 193.65, 334.05)">
    <use height="114.45" transform="matrix(-1.0228, 1.0227, 1.0227, 1.0228, -27.6752, -99.8234)" width="116.45" xlink:href="#shape0"/>
    <use height="93.75" transform="matrix(1.0, 0.0, 0.0, 1.0, -64.45, -54.7)" width="64.6" xlink:href="#shape1"/>
  </g>
  <defs>
    <g id="shape0" transform="matrix(1.0, 0.0, 0.0, 1.0, 58.2, 57.15)">
      <path d="M44.35 -46.8 Q41.95 -48.4 40.45 -50.9 39.95 -51.4 39.9 -52.25 L40.6 -53.75 41.0 -54.45 41.75 -55.3 44.3 -53.05 42.8 -56.25 Q43.4 -56.75 44.25 -56.95 L46.3 -54.95 46.8 -54.35 47.65 -53.0 48.0 -51.8 Q48.5 -49.35 48.0 -48.05 L47.45 -47.8 47.0 -47.55 46.15 -46.7 44.35 -46.8 M21.35 -51.4 Q22.35 -53.5 24.0 -54.95 25.8 -56.35 26.6 -56.05 L29.1 -52.15 28.75 -50.4 Q27.3 -48.35 25.25 -46.7 L24.7 -46.3 Q20.55 -46.95 21.35 -51.4 M25.85 -45.75 L29.0 -47.95 30.35 -47.6 Q32.4 -44.45 31.85 -43.3 L31.55 -42.55 28.1 -40.05 27.85 -39.85 Q23.3 -41.5 25.25 -45.35 L25.85 -45.75" fill="#dbcca6" fill-rule="evenodd" stroke="none"/>
      <path d="M48.0 -51.8 Q48.6 -52.55 49.4 -51.65 49.8 -50.15 50.65 -48.8 52.7 -48.65 53.45 -46.05 53.95 -44.9 53.6 -42.85 54.2 -42.5 54.1 -41.95 54.0 -39.05 55.25 -36.3 L55.4 -35.95 56.35 -35.9 Q56.95 -35.85 57.2 -35.55 58.4 -33.65 57.55 -31.7 L54.7 -28.25 Q54.65 -26.7 49.95 -22.3 L48.2 -20.8 48.25 -22.75 Q48.3 -23.3 47.4 -23.45 L46.35 -23.6 43.3 -23.45 43.1 -23.4 41.95 -23.0 40.9 -22.65 40.45 -22.45 Q39.35 -21.8 39.0 -21.0 38.75 -20.4 38.9 -19.65 L38.95 -19.6 Q39.55 -17.7 40.55 -16.05 37.35 -14.8 31.05 -14.8 26.5 -14.85 23.0 -17.9 21.65 -19.1 20.45 -20.7 18.75 -22.9 18.25 -24.85 L18.25 -24.9 Q17.85 -26.2 18.05 -27.35 L18.45 -28.65 19.3 -29.95 21.25 -32.05 22.25 -33.1 23.3 -34.15 Q23.3 -32.4 23.45 -31.1 L23.55 -30.3 Q24.3 -25.45 27.65 -27.55 29.6 -28.6 31.4 -28.6 L32.5 -28.5 Q33.2 -30.65 35.6 -32.95 L35.8 -33.1 37.6 -34.65 37.75 -34.8 38.6 -35.35 39.4 -35.9 40.2 -36.35 41.3 -37.05 42.6 -37.65 Q43.6 -38.15 44.75 -39.0 45.45 -39.8 45.15 -40.8 44.95 -44.95 46.15 -46.7 L47.0 -47.55 47.45 -47.8 48.0 -48.05 Q48.5 -49.35 48.0 -51.8 M32.2 -26.65 L32.25 -27.1 32.3 -27.7 32.5 -28.5 32.3 -27.7 32.25 -27.1 32.2 -26.65 M34.15 -25.1 L35.65 -27.2 34.15 -25.1 M52.7 -41.55 Q53.05 -43.1 52.35 -43.05 L51.1 -42.5 Q50.35 -42.3 49.75 -40.95 49.15 -39.55 49.2 -38.2 49.25 -36.8 49.6 -35.75 L50.15 -34.55 50.85 -33.4 Q51.05 -33.3 52.1 -32.9 L53.5 -32.55 Q54.85 -32.9 55.05 -34.15 55.05 -35.3 54.3 -36.25 52.45 -40.1 52.7 -41.55 M48.9 -29.2 Q48.9 -33.25 47.05 -34.0 40.7 -33.95 35.65 -27.2 44.85 -33.6 48.9 -29.2 L48.9 -28.35 48.9 -29.2 M50.65 -25.65 Q52.5 -26.25 54.15 -28.0 52.5 -26.25 50.65 -25.65 M50.65 -48.8 Q49.65 -48.9 48.0 -48.05 49.65 -48.9 50.65 -48.8" fill="#ede6d4" fill-rule="evenodd" stroke="none"/>
      <path d="M23.15 -35.05 Q22.05 -40.25 17.15 -44.05 15.8 -45.75 16.6 -50.0 17.8 -50.65 21.35 -51.4 20.55 -46.95 24.7 -46.3 L25.25 -46.7 25.85 -45.75 25.25 -45.35 Q23.3 -41.5 27.85 -39.85 L28.1 -40.05 Q29.0 -37.65 30.5 -35.2 31.4 -34.6 32.9 -34.75 L33.1 -34.75 Q33.9 -35.15 34.45 -35.2 L35.55 -35.05 35.85 -34.55 35.7 -33.15 35.6 -32.95 Q33.2 -30.65 32.5 -28.5 L31.4 -28.6 Q29.6 -28.6 27.65 -27.55 24.3 -25.45 23.55 -30.3 L23.45 -31.1 Q23.3 -32.4 23.3 -34.15 L23.3 -34.25 23.15 -35.05 M25.95 -38.85 L28.55 -36.3 30.5 -35.2 28.55 -36.3 25.95 -38.85" fill="url(#gradient0)" fill-rule="evenodd" stroke="none"/>
      <path d="M41.55 -41.15 Q39.25 -41.3 37.4 -42.6 37.4 -44.55 38.35 -46.7 38.8 -47.6 39.25 -47.6 L40.35 -47.4 Q39.65 -47.3 39.1 -46.8 L39.05 -46.75 Q38.75 -46.25 38.75 -45.65 38.75 -44.6 39.55 -43.9 40.35 -43.15 41.5 -43.15 42.65 -43.15 43.45 -43.9 L43.55 -43.9 43.8 -45.05 43.65 -45.95 43.9 -45.75 Q46.95 -42.0 41.55 -41.15" fill="#ff9900" fill-rule="evenodd" stroke="none"/>
      <path d="M40.35 -47.4 Q42.05 -47.05 43.65 -45.95 L43.8 -45.05 43.55 -43.9 43.45 -43.9 Q42.65 -43.15 41.5 -43.15 40.35 -43.15 39.55 -43.9 38.75 -44.6 38.75 -45.65 38.75 -46.25 39.05 -46.75 L39.1 -46.8 Q39.65 -47.3 40.35 -47.4" fill="#ffcc00" fill-rule="evenodd" stroke="none"/>
      <path d="M17.35 -9.65 Q16.55 -9.25 17.6 -8.8 L13.45 -8.35 9.35 -8.95 8.35 -9.45 Q9.0 -10.1 8.2 -10.8 11.45 -9.95 14.85 -9.75 L17.35 -9.65 M11.1 1.0 L10.15 1.35 10.2 1.4 Q8.95 0.85 8.4 -0.1 L11.1 1.0 M-3.7 9.3 L-4.2 10.7 Q-6.65 12.25 -9.75 11.25 L-9.65 10.55 Q-6.5 9.0 -4.15 9.25 L-3.7 9.3 M-8.9 17.2 L-10.55 17.45 -11.45 16.55 -10.6 15.7 -10.7 16.6 -8.9 17.2 M-28.1 18.7 L-28.1 18.1 Q-25.15 15.05 -22.4 15.6 L-21.2 15.95 Q-20.7 16.9 -21.55 17.75 -22.15 17.45 -22.85 17.35 L-22.95 17.35 -24.15 17.35 Q-25.85 17.55 -28.1 18.7 M-9.65 -0.95 Q-9.4 -1.6 -10.0 -2.7 -7.5 -3.6 -5.65 -1.95 -7.6 -2.2 -9.65 -0.95 M-3.45 -5.65 L-1.4 -5.4 -3.45 -3.35 Q-2.9 -4.5 -3.45 -5.65 M9.9 -21.9 L8.35 -23.45 Q12.25 -23.25 15.2 -22.0 L17.85 -20.75 17.75 -20.35 15.75 -20.45 14.2 -21.0 Q12.3 -21.7 9.9 -21.9 M14.0 -29.9 L13.45 -32.25 13.7 -32.3 18.45 -28.65 18.05 -27.35 14.0 -29.9 M19.8 -34.5 L21.35 -34.65 22.25 -33.1 21.25 -32.05 19.8 -34.5 M38.8 -36.5 L37.35 -36.7 Q36.55 -36.7 36.15 -37.4 35.85 -39.2 36.9 -40.9 37.2 -41.35 37.75 -41.3 39.85 -41.15 41.1 -40.35 L42.0 -39.15 42.1 -38.65 Q42.25 -38.25 41.9 -37.65 41.65 -36.95 39.25 -36.45 L38.8 -36.5 M-22.65 24.75 L-24.25 26.45 -25.5 25.8 Q-27.25 24.65 -27.8 23.6 -25.65 23.45 -23.9 24.2 -23.2 24.4 -22.65 24.75 M-29.35 25.95 Q-29.2 26.1 -29.2 26.6 L-29.55 27.45 -30.35 28.05 -31.0 28.2 -31.1 27.55 -30.65 26.65 -29.95 26.05 -29.35 25.95 M-29.7 32.8 L-30.25 33.5 -31.2 33.9 -31.75 33.75 Q-31.95 33.65 -31.8 33.2 L-31.05 32.45 -30.25 32.05 -29.65 32.15 -29.7 32.8 M-26.2 29.35 L-25.6 29.5 Q-25.45 29.65 -25.7 30.1 L-26.35 30.75 -27.2 31.2 -27.7 31.15 Q-27.9 31.0 -27.75 30.55 -27.6 30.1 -27.1 29.8 -26.65 29.45 -26.2 29.35 M-31.85 30.05 Q-31.6 30.2 -31.65 30.65 L-32.05 31.55 -32.8 32.15 -33.45 32.25 -33.55 31.65 -33.1 30.75 -32.4 30.15 -31.85 30.05" fill="#a1916f" fill-rule="evenodd" stroke="none"/>
      <path d="M21.35 -34.65 L20.9 -35.6 Q21.65 -35.7 23.15 -35.05 L23.3 -34.25 23.3 -34.15 22.25 -33.1 21.35 -34.65" fill="url(#gradient1)" fill-rule="evenodd" stroke="none"/>
      <path d="M38.6 -35.35 L38.8 -36.5 39.25 -36.45 Q41.65 -36.95 41.9 -37.65 42.25 -38.25 42.1 -38.65 L42.0 -39.15 41.1 -40.35 41.55 -41.15 Q46.95 -42.0 43.9 -45.75 L44.35 -46.8 46.15 -46.7 Q44.95 -44.95 45.15 -40.8 45.45 -39.8 44.75 -39.0 43.6 -38.15 42.6 -37.65 L41.3 -37.05 40.2 -36.35 39.4 -35.9 38.6 -35.35" fill="url(#gradient2)" fill-rule="evenodd" stroke="none"/>
      <path d="M13.7 -32.3 Q15.1 -33.0 16.1 -34.1 18.15 -33.75 19.25 -35.35 L19.8 -34.5 21.25 -32.05 19.3 -29.95 18.45 -28.65 13.7 -32.3" fill="url(#gradient3)" fill-rule="evenodd" stroke="none"/>
      <path d="M17.5 -12.4 L17.9 -11.3 Q17.2 -10.7 17.35 -9.65 L14.85 -9.75 Q11.45 -9.95 8.2 -10.8 L7.8 -10.9 7.6 -12.6 Q8.65 -14.15 8.65 -15.45 L8.7 -15.7 Q8.8 -17.3 8.05 -19.45 L7.8 -20.0 8.05 -20.45 Q8.2 -21.2 7.95 -22.15 L9.2 -21.9 9.9 -21.9 Q12.3 -21.7 14.2 -21.0 L15.75 -20.45 18.0 -19.9 Q17.7 -19.2 18.0 -18.3 16.6 -15.5 17.5 -12.4 M17.6 -8.8 L17.75 -8.65 Q17.05 -7.95 17.05 -7.05 13.55 -3.75 13.3 0.2 L12.15 1.35 11.1 1.0 8.4 -0.1 7.15 -0.85 7.0 -0.9 7.75 -2.65 8.3 -5.1 7.8 -9.7 8.35 -9.45 9.35 -8.95 13.45 -8.35 17.6 -8.8 M8.35 -23.45 Q8.8 -24.1 8.65 -24.95 L10.35 -26.75 Q11.05 -27.85 11.45 -29.65 12.15 -30.05 12.45 -30.85 L14.0 -29.9 18.05 -27.35 Q17.85 -26.2 18.25 -24.9 L18.25 -24.85 17.85 -20.75 15.2 -22.0 Q12.25 -23.25 8.35 -23.45" fill="url(#gradient4)" fill-rule="evenodd" stroke="none"/>
      <path d="M23.0 -17.9 L17.5 -12.4 Q16.6 -15.5 18.0 -18.3 17.7 -19.2 18.0 -19.9 L15.75 -20.45 17.75 -20.35 17.85 -20.75 18.25 -24.85 Q18.75 -22.9 20.45 -20.7 21.65 -19.1 23.0 -17.9 M2.4 2.7 L-3.0 8.1 -2.9 7.5 Q-4.8 3.9 -4.25 -0.45 L-5.0 -1.8 -3.45 -3.35 -1.4 -5.4 8.65 -15.45 Q8.65 -14.15 7.6 -12.6 L7.8 -10.9 8.2 -10.8 Q9.0 -10.1 8.35 -9.45 L7.8 -9.7 8.3 -5.1 7.75 -2.65 2.4 2.7 M-13.45 18.55 L-19.65 24.75 Q-19.3 23.1 -18.4 21.4 L-20.0 18.9 -20.9 18.5 -20.85 18.25 Q-21.15 17.95 -21.55 17.75 -20.7 16.9 -21.2 15.95 L-20.8 14.1 -20.85 14.05 -10.95 4.15 Q-10.2 6.7 -10.25 9.35 L-9.65 10.55 -9.75 11.25 Q-9.6 12.3 -10.2 12.9 L-10.6 15.7 -11.45 16.55 -13.45 18.55" fill="url(#gradient5)" fill-rule="evenodd" stroke="none"/>
      <path d="M10.15 2.15 Q8.85 2.15 8.05 2.85 L2.4 2.7 7.75 -2.65 7.0 -0.9 7.15 -0.85 Q7.85 0.65 9.3 1.6 L10.15 2.15" fill="url(#gradient6)" fill-rule="evenodd" stroke="none"/>
      <path d="M10.2 1.4 L10.15 2.15 9.3 1.6 Q7.85 0.65 7.15 -0.85 L8.4 -0.1 Q8.95 0.85 10.2 1.4 M-10.55 17.45 L-10.15 18.15 Q-11.9 19.0 -13.45 18.55 L-11.45 16.55 -10.55 17.45 M35.65 -27.2 Q40.7 -33.95 47.05 -34.0 48.9 -33.25 48.9 -29.2 44.85 -33.6 35.65 -27.2 M-24.25 26.45 L-23.05 27.45 -23.4 28.0 -24.0 28.9 -24.25 27.7 -26.85 27.15 -27.25 27.05 -28.9 24.2 -28.7 24.2 -27.8 23.6 Q-27.25 24.65 -25.5 25.8 L-24.25 26.45 M-35.1 35.2 L-34.95 35.25 -34.95 35.4 -35.1 35.2" fill="#cfc4a9" fill-rule="evenodd" stroke="none"/>
      <path d="M48.2 -20.8 Q48.05 -19.2 47.3 -17.25 47.25 -15.4 50.7 -12.2 51.4 -11.2 48.3 -11.65 44.65 -12.7 41.5 -14.8 L40.55 -16.05 Q39.55 -17.7 38.95 -19.6 L38.9 -19.65 Q38.75 -20.4 39.0 -21.0 39.35 -21.8 40.45 -22.45 L40.9 -22.65 41.95 -23.0 43.1 -23.4 43.3 -23.45 46.35 -23.6 47.4 -23.45 Q48.3 -23.3 48.25 -22.75 L48.2 -20.8" fill="url(#gradient7)" fill-rule="evenodd" stroke="none"/>
      <path d="M52.7 -41.55 Q52.45 -40.1 54.3 -36.25 55.05 -35.3 55.05 -34.15 54.85 -32.9 53.5 -32.55 L52.1 -32.9 Q51.05 -33.3 50.85 -33.4 L50.15 -34.55 49.6 -35.75 Q49.25 -36.8 49.2 -38.2 49.15 -39.55 49.75 -40.95 50.35 -42.3 51.1 -42.5 L52.35 -43.05 Q53.05 -43.1 52.7 -41.55" fill="#0f0d0c" fill-rule="evenodd" stroke="none"/>
      <path d="M-0.35 36.7 Q1.9 35.5 4.0 33.2 1.8 39.9 -4.1 44.1 -10.0 47.35 -14.8 49.8 L-17.05 50.9 Q-3.8 43.8 -0.35 36.7 M-55.1 53.9 L-56.05 50.05 Q-54.55 53.95 -46.8 45.05 L-46.85 46.95 Q-50.9 51.3 -55.1 53.9 M-57.35 30.15 L-57.3 29.9 Q-56.6 26.85 -54.45 22.0 -53.45 28.9 -47.2 37.1 L-46.15 38.45 -46.45 40.75 -46.6 42.6 -48.45 39.75 Q-53.2 32.65 -57.35 30.15 M-50.1 12.9 L-44.95 3.25 Q-40.8 -2.7 -34.1 -4.9 L-35.55 -3.45 Q-40.8 -0.4 -42.65 3.7 -44.85 8.45 -43.45 16.3 L-42.0 24.05 -44.0 29.35 Q-44.8 7.3 -50.1 12.9 M-37.85 8.0 L-36.85 10.75 -36.6 11.3 -35.85 12.75 Q-38.55 16.75 -40.6 20.95 L-40.6 20.55 Q-38.6 16.2 -38.1 13.25 -37.55 10.2 -37.85 8.0" fill="#f4f4f4" fill-rule="evenodd" stroke="none"/>
      <path d="M-10.0 -2.7 L-9.75 -3.45 Q-8.45 -4.05 -7.65 -5.55 L-5.85 -6.4 Q-4.7 -6.1 -3.8 -6.4 L-3.45 -5.65 Q-2.9 -4.5 -3.45 -3.35 L-5.0 -1.8 -5.65 -1.95 Q-7.5 -3.6 -10.0 -2.7" fill="url(#gradient8)" fill-rule="evenodd" stroke="none"/>
      <path d="M-3.0 8.1 L-3.3 9.3 -3.7 9.3 -4.15 9.25 Q-6.5 9.0 -9.65 10.55 L-10.25 9.35 Q-10.2 6.7 -10.95 4.15 L-11.65 2.05 -11.35 0.25 -10.4 -0.5 -9.65 -0.95 Q-7.6 -2.2 -5.65 -1.95 L-5.0 -1.8 -4.25 -0.45 Q-4.8 3.9 -2.9 7.5 L-3.0 8.1" fill="url(#gradient9)" fill-rule="evenodd" stroke="none"/>
      <path d="M-4.2 10.7 L-3.9 10.7 Q-4.55 11.85 -4.35 12.55 -5.75 14.25 -6.25 15.75 L-8.0 17.5 -8.9 17.2 -10.7 16.6 -10.6 15.7 -10.2 12.9 Q-9.6 12.3 -9.75 11.25 -6.65 12.25 -4.2 10.7" fill="url(#gradient10)" fill-rule="evenodd" stroke="none"/>
      <path d="M-19.65 24.75 Q-20.25 27.55 -19.2 30.1 L-18.65 31.35 Q-22.5 30.0 -23.4 28.0 L-23.05 27.45 -24.25 26.45 -22.65 24.75 -22.4 24.9 -21.7 25.0 -20.95 23.95 Q-21.25 22.75 -21.2 21.55 -21.3 19.9 -20.9 18.5 L-20.0 18.9 -18.4 21.4 Q-19.3 23.1 -19.65 24.75 M-31.35 17.9 Q-29.65 18.75 -28.0 18.9 -27.7 19.6 -27.85 20.55 L-28.35 22.15 Q-27.9 22.65 -28.1 23.3 L-28.15 23.45 Q-30.05 22.35 -31.3 18.3 L-31.45 17.85 -31.35 17.9" fill="#6d4848" fill-rule="evenodd" stroke="none"/>
      <path d="M-19.2 30.1 L-18.3 31.3 -18.15 31.5 -18.1 31.45 Q-13.85 32.75 -8.05 31.35 L-8.05 31.55 Q-9.65 34.25 -12.05 35.75 L-12.15 35.85 Q-18.85 40.4 -25.9 43.1 -33.05 45.8 -40.55 46.65 L-46.75 47.05 -46.85 47.05 -46.85 46.95 -46.8 45.05 -46.6 42.6 -46.45 40.75 -46.15 38.45 -44.85 32.25 -44.25 30.25 -44.0 29.35 -42.0 24.05 -40.6 20.95 Q-38.55 16.75 -35.85 12.75 L-35.65 12.35 Q-34.1 9.9 -31.35 8.25 L-31.15 8.25 Q-32.45 13.65 -31.5 17.8 L-31.45 17.85 -31.3 18.3 Q-30.05 22.35 -28.15 23.45 L-28.15 23.55 -27.85 23.55 -27.8 23.6 -28.7 24.2 -28.9 24.2 -28.95 24.15 -29.15 24.15 -30.75 23.85 Q-31.4 26.1 -32.75 26.95 -32.2 30.0 -35.1 30.8 L-35.95 35.05 -35.1 35.2 -34.95 35.4 -34.95 35.25 -34.85 36.15 -30.6 35.3 Q-29.8 32.4 -26.75 32.95 -25.9 31.6 -23.65 30.95 L-24.0 28.9 -23.4 28.0 Q-22.5 30.0 -18.65 31.35 L-19.2 30.1" fill="url(#gradient11)" fill-rule="evenodd" stroke="none"/>
      <path d="M-12.05 35.75 L-11.6 36.0 Q-7.25 37.65 -4.95 37.95 L-3.1 37.8 Q-1.7 37.45 -0.35 36.7 -3.8 43.8 -17.05 50.9 -26.1 55.3 -30.75 56.4 L-32.2 56.65 -36.35 56.95 Q-42.95 57.05 -52.05 54.95 L-55.05 54.15 -55.1 53.9 Q-50.9 51.3 -46.85 46.95 L-46.85 47.05 -46.75 47.05 -40.55 46.65 Q-33.05 45.8 -25.9 43.1 -18.85 40.4 -12.15 35.85 L-12.05 35.75 M-56.05 50.05 Q-57.95 41.65 -57.85 35.45 L-57.7 32.4 -57.55 31.3 -57.35 30.15 Q-53.2 32.65 -48.45 39.75 L-46.6 42.6 -46.8 45.05 Q-54.55 53.95 -56.05 50.05 M-54.45 22.0 L-50.1 12.9 Q-44.8 7.3 -44.0 29.35 L-44.25 30.25 -44.85 32.25 -46.15 38.45 -47.2 37.1 Q-53.45 28.9 -54.45 22.0 M-35.55 -3.45 Q-37.95 -0.75 -38.65 2.25 -39.0 2.9 -38.6 4.9 L-37.9 7.8 -37.85 8.0 Q-37.55 10.2 -38.1 13.25 -38.6 16.2 -40.6 20.55 L-40.6 20.95 -42.0 24.05 -43.45 16.3 Q-44.85 8.45 -42.65 3.7 -40.8 -0.4 -35.55 -3.45" fill="#6d5d5d" fill-rule="evenodd" stroke="none"/>
      <path d="M-31.5 17.8 Q-31.4 17.8 -31.35 17.9 L-31.45 17.85 -31.5 17.8 M-27.85 23.55 L-28.15 23.55 -28.15 23.45 -27.85 23.55 M-29.15 24.15 L-28.95 24.15 -28.9 24.2 -29.15 24.15" fill="#b20505" fill-rule="evenodd" stroke="none"/>
      <path d="M-28.1 18.1 L-28.05 16.55 -27.7 14.5 Q-26.2 13.0 -24.45 12.55 L-21.95 12.15 Q-21.05 12.95 -20.85 14.05 L-20.8 14.1 -21.2 15.95 -22.4 15.6 Q-25.15 15.05 -28.1 18.1" fill="url(#gradient12)" fill-rule="evenodd" stroke="none"/>
      <path d="M-28.0 18.9 L-28.1 18.7 Q-25.85 17.55 -24.15 17.35 L-22.95 17.35 -22.85 17.35 Q-22.15 17.45 -21.55 17.75 -21.15 17.95 -20.85 18.25 L-20.9 18.5 Q-21.3 19.9 -21.2 21.55 -21.25 22.75 -20.95 23.95 L-21.7 25.0 -22.4 24.9 -22.65 24.75 Q-23.2 24.4 -23.9 24.2 -25.65 23.45 -27.8 23.6 L-27.85 23.55 -28.15 23.45 -28.1 23.3 Q-27.9 22.65 -28.35 22.15 L-27.85 20.55 Q-27.7 19.6 -28.0 18.9" fill="url(#gradient13)" fill-rule="evenodd" stroke="none"/>
      <path d="M-29.15 24.15 L-28.9 24.2 -27.25 27.05 -26.85 27.15 -24.25 27.7 -24.0 28.9 -23.65 30.95 Q-25.9 31.6 -26.75 32.95 -29.8 32.4 -30.6 35.3 L-34.85 36.15 -34.95 35.25 -35.1 35.2 -35.95 35.05 -35.1 30.8 Q-32.2 30.0 -32.75 26.95 -31.4 26.1 -30.75 23.85 L-29.15 24.15 M-29.35 25.95 L-29.95 26.05 -30.65 26.65 -31.1 27.55 -31.0 28.2 -30.35 28.05 -29.55 27.45 -29.2 26.6 Q-29.2 26.1 -29.35 25.95 M-26.2 29.35 Q-26.65 29.45 -27.1 29.8 -27.6 30.1 -27.75 30.55 -27.9 31.0 -27.7 31.15 L-27.2 31.2 -26.35 30.75 -25.7 30.1 Q-25.45 29.65 -25.6 29.5 L-26.2 29.35 M-29.7 32.8 L-29.65 32.15 -30.25 32.05 -31.05 32.45 -31.8 33.2 Q-31.95 33.65 -31.75 33.75 L-31.2 33.9 -30.25 33.5 -29.7 32.8 M-31.85 30.05 L-32.4 30.15 -33.1 30.75 -33.55 31.65 -33.45 32.25 -32.8 32.15 -32.05 31.55 -31.65 30.65 Q-31.6 30.2 -31.85 30.05" fill="url(#gradient14)" fill-rule="evenodd" stroke="none"/>
      <path d="M44.35 -46.8 Q41.95 -48.4 40.45 -50.9 39.95 -51.4 39.9 -52.25 L40.6 -53.75 41.0 -54.45 41.75 -55.3 44.3 -53.05 42.8 -56.25 Q43.4 -56.75 44.25 -56.95 L46.3 -54.95 46.8 -54.35 47.65 -53.0 48.0 -51.8 Q48.5 -49.35 48.0 -48.05 M21.35 -51.4 Q22.35 -53.5 24.0 -54.95 25.8 -56.35 26.6 -56.05 L29.1 -52.15 28.75 -50.4 Q27.3 -48.35 25.25 -46.7 L24.7 -46.3 Q20.55 -46.95 21.35 -51.4 M25.85 -45.75 L29.0 -47.95 30.35 -47.6 Q32.4 -44.45 31.85 -43.3 L31.55 -42.55 28.1 -40.05 27.85 -39.85 Q23.3 -41.5 25.25 -45.35 L25.85 -45.75 M38.6 -35.35 L38.8 -36.5 37.35 -36.7 Q36.55 -36.7 36.15 -37.4 35.85 -39.2 36.9 -40.9 37.2 -41.35 37.75 -41.3 39.85 -41.15 41.1 -40.35 L41.55 -41.15 Q39.25 -41.3 37.4 -42.6 37.4 -44.55 38.35 -46.7 38.8 -47.6 39.25 -47.6 L40.35 -47.4 Q42.05 -47.05 43.65 -45.95 L43.9 -45.75 44.35 -46.8 46.15 -46.7 M22.25 -33.1 L21.35 -34.65 M41.1 -40.35 L42.0 -39.15 42.1 -38.65 Q42.25 -38.25 41.9 -37.65 41.65 -36.95 39.25 -36.45 L38.8 -36.5 M35.65 -27.2 L34.15 -25.1 M30.5 -35.2 L28.55 -36.3 25.95 -38.85 M21.25 -32.05 L19.8 -34.5 M18.45 -28.65 L13.7 -32.3 M18.05 -27.35 L14.0 -29.9 M18.25 -24.85 L18.25 -24.9 M8.35 -23.45 Q12.25 -23.25 15.2 -22.0 L17.85 -20.75 18.25 -24.85 M17.85 -20.75 L17.75 -20.35 15.75 -20.45 18.0 -19.9 Q17.7 -19.2 18.0 -18.3 16.6 -15.5 17.5 -12.4 M15.75 -20.45 L14.2 -21.0 Q12.3 -21.7 9.9 -21.9 M8.65 -15.45 Q8.65 -14.15 7.6 -12.6 L7.8 -10.9 8.2 -10.8 Q11.45 -9.95 14.85 -9.75 L17.35 -9.65 M8.2 -10.8 Q9.0 -10.1 8.35 -9.45 L9.35 -8.95 13.45 -8.35 17.6 -8.8 M8.35 -9.45 L7.8 -9.7 8.3 -5.1 7.75 -2.65 7.0 -0.9 7.15 -0.85 8.4 -0.1 11.1 1.0 M39.0 -21.0 Q38.75 -20.4 38.9 -19.65 L38.95 -19.6 Q39.55 -17.7 40.55 -16.05 M52.7 -41.55 Q52.45 -40.1 54.3 -36.25 55.05 -35.3 55.05 -34.15 54.85 -32.9 53.5 -32.55 L52.1 -32.9 Q51.05 -33.3 50.85 -33.4 L50.15 -34.55 49.6 -35.75 Q49.25 -36.8 49.2 -38.2 49.15 -39.55 49.75 -40.95 50.35 -42.3 51.1 -42.5 L52.35 -43.05 Q53.05 -43.1 52.7 -41.55 M43.9 -45.75 Q46.95 -42.0 41.55 -41.15 M35.65 -27.2 Q40.7 -33.95 47.05 -34.0 48.9 -33.25 48.9 -29.2 L48.9 -28.35 M54.15 -28.0 Q52.5 -26.25 50.65 -25.65 M48.2 -20.8 L48.25 -22.75 Q48.3 -23.3 47.4 -23.45 M43.1 -23.4 L41.95 -23.0 40.9 -22.65 M7.15 -0.85 Q7.85 0.65 9.3 1.6 L10.15 2.15 M8.4 -0.1 Q8.95 0.85 10.2 1.4 M-5.65 -1.95 Q-7.6 -2.2 -9.65 -0.95 M-10.0 -2.7 Q-7.5 -3.6 -5.65 -1.95 L-5.0 -1.8 -4.25 -0.45 Q-4.8 3.9 -2.9 7.5 L-3.0 8.1 M-3.45 -3.35 Q-2.9 -4.5 -3.45 -5.65 M-9.65 10.55 L-9.75 11.25 Q-6.65 12.25 -4.2 10.7 M-3.7 9.3 L-4.15 9.25 Q-6.5 9.0 -9.65 10.55 L-10.25 9.35 Q-10.2 6.7 -10.95 4.15 M-9.75 11.25 Q-9.6 12.3 -10.2 12.9 L-10.6 15.7 -10.7 16.6 -8.9 17.2 M-11.45 16.55 L-10.55 17.45 M-19.65 24.75 Q-19.3 23.1 -18.4 21.4 L-20.0 18.9 -20.9 18.5 Q-21.3 19.9 -21.2 21.55 -21.25 22.75 -20.95 23.95 L-21.7 25.0 -22.4 24.9 -22.65 24.75 -24.25 26.45 -23.05 27.45 -23.4 28.0 Q-22.5 30.0 -18.65 31.35 L-19.2 30.1 M-31.45 17.85 L-31.3 18.3 Q-30.05 22.35 -28.15 23.45 L-28.1 23.3 Q-27.9 22.65 -28.35 22.15 L-27.85 20.55 Q-27.7 19.6 -28.0 18.9 M-21.55 17.75 Q-22.15 17.45 -22.85 17.35 L-22.95 17.35 -24.15 17.35 Q-25.85 17.55 -28.1 18.7 M-20.9 18.5 L-20.85 18.25 Q-21.15 17.95 -21.55 17.75 -20.7 16.9 -21.2 15.95 M-27.85 23.55 L-28.15 23.55 -28.15 23.45 -27.85 23.55 -27.8 23.6 Q-25.65 23.45 -23.9 24.2 -23.2 24.4 -22.65 24.75 M-28.9 24.2 L-28.7 24.2 -27.8 23.6 Q-27.25 24.65 -25.5 25.8 L-24.25 26.45 M-29.15 24.15 L-28.95 24.15 -28.9 24.2 -29.15 24.15 -30.75 23.85 Q-31.4 26.1 -32.75 26.95 -32.2 30.0 -35.1 30.8 L-35.95 35.05 -35.1 35.2 -34.95 35.25 -34.85 36.15 -30.6 35.3 Q-29.8 32.4 -26.75 32.95 -25.9 31.6 -23.65 30.95 L-24.0 28.9 -24.25 27.7 -26.85 27.15 -27.25 27.05 -28.9 24.2 M-40.6 20.95 Q-38.55 16.75 -35.85 12.75 M-23.4 28.0 L-24.0 28.9 M-29.35 25.95 Q-29.2 26.1 -29.2 26.6 L-29.55 27.45 -30.35 28.05 -31.0 28.2 -31.1 27.55 -30.65 26.65 -29.95 26.05 -29.35 25.95 M-26.2 29.35 Q-26.65 29.45 -27.1 29.8 -27.6 30.1 -27.75 30.55 -27.9 31.0 -27.7 31.15 L-27.2 31.2 -26.35 30.75 -25.7 30.1 Q-25.45 29.65 -25.6 29.5 L-26.2 29.35 M-29.7 32.8 L-29.65 32.15 -30.25 32.05 -31.05 32.45 -31.8 33.2 Q-31.95 33.65 -31.75 33.75 L-31.2 33.9 -30.25 33.5 -29.7 32.8 M-31.85 30.05 Q-31.6 30.2 -31.65 30.65 L-32.05 31.55 -32.8 32.15 -33.45 32.25 -33.55 31.65 -33.1 30.75 -32.4 30.15 -31.85 30.05 M-35.1 35.2 L-34.95 35.4 -34.95 35.25 M-12.05 35.75 L-12.15 35.85 Q-18.85 40.4 -25.9 43.1 -33.05 45.8 -40.55 46.65 L-46.75 47.05 -46.85 47.05 -46.85 46.95 -46.8 45.05 -46.6 42.6 -46.45 40.75 -46.15 38.45 -44.85 32.25 -44.25 30.25 -44.0 29.35 -42.0 24.05 -40.6 20.95" fill="none" stroke="#000000" stroke-linecap="round" stroke-linejoin="round" stroke-opacity="0.2509804" stroke-width="0.4"/>
      <path d="M48.0 -51.8 Q48.6 -52.55 49.4 -51.65 49.8 -50.15 50.65 -48.8 52.7 -48.65 53.45 -46.05 53.95 -44.9 53.6 -42.85 54.2 -42.5 54.1 -41.95 54.0 -39.05 55.25 -36.3 L55.4 -35.95 56.35 -35.9 Q56.95 -35.85 57.2 -35.55 58.4 -33.65 57.55 -31.7 L54.7 -28.25 Q54.65 -26.7 49.95 -22.3 L48.2 -20.8 Q48.05 -19.2 47.3 -17.25 47.25 -15.4 50.7 -12.2 51.4 -11.2 48.3 -11.65 44.65 -12.7 41.5 -14.8 L40.55 -16.05 Q37.35 -14.8 31.05 -14.8 26.5 -14.85 23.0 -17.9 L17.5 -12.4 17.9 -11.3 Q17.2 -10.7 17.35 -9.65 16.55 -9.25 17.6 -8.8 L17.75 -8.65 Q17.05 -7.95 17.05 -7.05 13.55 -3.75 13.3 0.2 L12.15 1.35 11.1 1.0 10.15 1.35 10.2 1.4 10.15 2.15 Q8.85 2.15 8.05 2.85 L2.4 2.7 -3.0 8.1 -3.3 9.3 -3.7 9.3 -4.2 10.7 -3.9 10.7 Q-4.55 11.85 -4.35 12.55 -5.75 14.25 -6.25 15.75 L-8.0 17.5 -8.9 17.2 -10.55 17.45 -10.15 18.15 Q-11.9 19.0 -13.45 18.55 L-19.65 24.75 Q-20.25 27.55 -19.2 30.1 L-18.3 31.3 -18.15 31.5 -18.1 31.45 Q-13.85 32.75 -8.05 31.35 L-8.05 31.55 Q-9.65 34.25 -12.05 35.75 L-11.6 36.0 Q-7.25 37.65 -4.95 37.95 L-3.1 37.8 Q-1.7 37.45 -0.35 36.7 1.9 35.5 4.0 33.2 1.8 39.9 -4.1 44.1 -10.0 47.35 -14.8 49.8 L-17.05 50.9 Q-26.1 55.3 -30.75 56.4 L-32.2 56.65 -36.35 56.95 Q-42.95 57.05 -52.05 54.95 L-55.05 54.15 -55.1 53.9 -56.05 50.05 Q-57.95 41.65 -57.85 35.45 L-57.7 32.4 -57.55 31.3 -57.35 30.15 -57.3 29.9 Q-56.6 26.85 -54.45 22.0 L-50.1 12.9 -44.95 3.25 Q-40.8 -2.7 -34.1 -4.9 L-35.55 -3.45 Q-37.95 -0.75 -38.65 2.25 -39.0 2.9 -38.6 4.9 L-37.9 7.8 M-37.85 8.0 L-36.85 10.75 -36.6 11.3 -35.85 12.75 -35.65 12.35 Q-34.1 9.9 -31.35 8.25 L-31.15 8.25 Q-32.45 13.65 -31.5 17.8 L-31.45 17.85 -31.35 17.9 Q-29.65 18.75 -28.0 18.9 L-28.1 18.7 -28.1 18.1 -28.05 16.55 -27.7 14.5 Q-26.2 13.0 -24.45 12.55 L-21.95 12.15 Q-21.05 12.95 -20.85 14.05 L-10.95 4.15 -11.65 2.05 -11.35 0.25 -10.4 -0.5 -9.65 -0.95 Q-9.4 -1.6 -10.0 -2.7 L-9.75 -3.45 Q-8.45 -4.05 -7.65 -5.55 L-5.85 -6.4 Q-4.7 -6.1 -3.8 -6.4 L-3.45 -5.65 -1.4 -5.4 8.65 -15.45 8.7 -15.7 Q8.8 -17.3 8.05 -19.45 L7.8 -20.0 8.05 -20.45 Q8.2 -21.2 7.95 -22.15 L9.2 -21.9 9.9 -21.9 8.35 -23.45 Q8.8 -24.1 8.65 -24.95 L10.35 -26.75 Q11.05 -27.85 11.45 -29.65 12.15 -30.05 12.45 -30.85 L14.0 -29.9 13.45 -32.25 13.7 -32.3 Q15.1 -33.0 16.1 -34.1 18.15 -33.75 19.25 -35.35 L19.8 -34.5 21.35 -34.65 20.9 -35.6 Q21.65 -35.7 23.15 -35.05 22.05 -40.25 17.15 -44.05 15.8 -45.75 16.6 -50.0 17.8 -50.65 21.35 -51.4 M25.25 -46.7 L25.85 -45.75 M28.1 -40.05 Q29.0 -37.65 30.5 -35.2 31.4 -34.6 32.9 -34.75 L33.1 -34.75 Q33.9 -35.15 34.45 -35.2 L35.55 -35.05 35.85 -34.55 35.7 -33.15 35.6 -32.95 35.8 -33.1 37.6 -34.65 37.75 -34.8 38.6 -35.35 39.4 -35.9 40.2 -36.35 41.3 -37.05 42.6 -37.65 Q43.6 -38.15 44.75 -39.0 45.45 -39.8 45.15 -40.8 44.95 -44.95 46.15 -46.7 L47.0 -47.55 47.45 -47.8 48.0 -48.05 Q49.65 -48.9 50.65 -48.8 M23.3 -34.15 L23.3 -34.25 23.15 -35.05 M21.25 -32.05 L22.25 -33.1 23.3 -34.15 Q23.3 -32.4 23.45 -31.1 L23.55 -30.3 Q24.3 -25.45 27.65 -27.55 29.6 -28.6 31.4 -28.6 L32.5 -28.5 Q33.2 -30.65 35.6 -32.95 M32.5 -28.5 L32.3 -27.7 32.25 -27.1 32.2 -26.65 M18.45 -28.65 L19.3 -29.95 21.25 -32.05 M18.05 -27.35 L18.45 -28.65 M18.25 -24.9 Q17.85 -26.2 18.05 -27.35 M18.25 -24.85 Q18.75 -22.9 20.45 -20.7 21.65 -19.1 23.0 -17.9 M7.75 -2.65 L2.4 2.7 M-5.0 -1.8 L-3.45 -3.35 -1.4 -5.4 M-10.6 15.7 L-11.45 16.55 -13.45 18.55 M-21.2 15.95 L-20.8 14.1 -20.85 14.05 M-21.2 15.95 L-22.4 15.6 Q-25.15 15.05 -28.1 18.1" fill="none" stroke="#000000" stroke-linecap="round" stroke-linejoin="round" stroke-opacity="0.4" stroke-width="0.7000000000000001"/>
    </g>
    <linearGradient gradientTransform="matrix(-0.0088, -4.0E-4, 5.0E-4, -0.0112, 27.1, -39.05)" gradientUnits="userSpaceOnUse" id="gradient0" spreadMethod="pad" x1="-819.2" x2="819.2">
      <stop offset="0.0" stop-color="#cfc4a9"/>
      <stop offset="1.0" stop-color="#ede6d4"/>
    </linearGradient>
    <linearGradient gradientTransform="matrix(0.0024, 0.0024, -0.0017, 0.0017, 23.2, -34.0)" gradientUnits="userSpaceOnUse" id="gradient1" spreadMethod="pad" x1="-819.2" x2="819.2">
      <stop offset="0.0" stop-color="#cfc4a9"/>
      <stop offset="1.0" stop-color="#ede6d4"/>
    </linearGradient>
    <linearGradient gradientTransform="matrix(-5.0E-4, -0.0051, 0.0052, -5.0E-4, 42.35, -42.5)" gradientUnits="userSpaceOnUse" id="gradient2" spreadMethod="pad" x1="-819.2" x2="819.2">
      <stop offset="0.0" stop-color="#cfc4a9"/>
      <stop offset="1.0" stop-color="#ede6d4"/>
    </linearGradient>
    <linearGradient gradientTransform="matrix(-0.0088, -4.0E-4, 5.0E-4, -0.0112, -10.7, -32.4)" gradientUnits="userSpaceOnUse" id="gradient3" spreadMethod="pad" x1="-819.2" x2="819.2">
      <stop offset="0.0392156862745098" stop-color="#cfc4a9"/>
      <stop offset="1.0" stop-color="#ede6d4"/>
    </linearGradient>
    <linearGradient gradientTransform="matrix(-0.0044, -2.0E-4, 5.0E-4, -0.0112, 14.15, -31.55)" gradientUnits="userSpaceOnUse" id="gradient4" spreadMethod="pad" x1="-819.2" x2="819.2">
      <stop offset="0.0" stop-color="#cfc4a9"/>
      <stop offset="1.0" stop-color="#ede6d4"/>
    </linearGradient>
    <linearGradient gradientTransform="matrix(0.0037, 0.0037, -0.0102, 0.0102, 1.8, -3.7)" gradientUnits="userSpaceOnUse" id="gradient5" spreadMethod="pad" x1="-819.2" x2="819.2">
      <stop offset="0.0" stop-color="#2b0000"/>
      <stop offset="1.0" stop-color="#4c0000"/>
    </linearGradient>
    <linearGradient gradientTransform="matrix(0.0022, 0.0022, -0.0033, 0.0033, 6.9, 1.85)" gradientUnits="userSpaceOnUse" id="gradient6" spreadMethod="pad" x1="-819.2" x2="819.2">
      <stop offset="0.0" stop-color="#cfc4a9"/>
      <stop offset="1.0" stop-color="#ede6d4"/>
    </linearGradient>
    <linearGradient gradientTransform="matrix(0.0027, -0.001, 0.0023, 0.0063, 44.7, -17.3)" gradientUnits="userSpaceOnUse" id="gradient7" spreadMethod="pad" x1="-819.2" x2="819.2">
      <stop offset="0.0" stop-color="#cfc4a9"/>
      <stop offset="1.0" stop-color="#ede6d4"/>
    </linearGradient>
    <linearGradient gradientTransform="matrix(-0.002, -0.002, 0.003, -0.003, -6.3, -3.8)" gradientUnits="userSpaceOnUse" id="gradient8" spreadMethod="pad" x1="-819.2" x2="819.2">
      <stop offset="0.0" stop-color="#cfc4a9"/>
      <stop offset="1.0" stop-color="#ede6d4"/>
    </linearGradient>
    <linearGradient gradientTransform="matrix(0.0034, -9.0E-4, 0.0019, 0.0071, -7.7, 4.7)" gradientUnits="userSpaceOnUse" id="gradient9" spreadMethod="pad" x1="-819.2" x2="819.2">
      <stop offset="0.0" stop-color="#cfc4a9"/>
      <stop offset="1.0" stop-color="#ede6d4"/>
    </linearGradient>
    <linearGradient gradientTransform="matrix(0.0011, 0.0011, -0.0039, 0.0039, -7.75, 13.25)" gradientUnits="userSpaceOnUse" id="gradient10" spreadMethod="pad" x1="-819.2" x2="819.2">
      <stop offset="0.0" stop-color="#cfc4a9"/>
      <stop offset="1.0" stop-color="#ede6d4"/>
    </linearGradient>
    <linearGradient gradientTransform="matrix(0.0039, 0.0082, -0.0213, 0.0103, -21.3, 36.65)" gradientUnits="userSpaceOnUse" id="gradient11" spreadMethod="pad" x1="-819.2" x2="819.2">
      <stop offset="0.011764705882352941" stop-color="#b20505"/>
      <stop offset="1.0" stop-color="#4c0000"/>
    </linearGradient>
    <linearGradient gradientTransform="matrix(0.002, -5.0E-4, 0.0014, 0.0051, -24.65, 15.5)" gradientUnits="userSpaceOnUse" id="gradient12" spreadMethod="pad" x1="-819.2" x2="819.2">
      <stop offset="0.0" stop-color="#cfc4a9"/>
      <stop offset="1.0" stop-color="#ede6d4"/>
    </linearGradient>
    <linearGradient gradientTransform="matrix(0.003, 0.0, 0.0, 0.0054, -24.2, 21.2)" gradientUnits="userSpaceOnUse" id="gradient13" spreadMethod="pad" x1="-819.2" x2="819.2">
      <stop offset="0.0" stop-color="#cfc4a9"/>
      <stop offset="1.0" stop-color="#ede6d4"/>
    </linearGradient>
    <linearGradient gradientTransform="matrix(-0.0019, -0.0019, 0.0053, -0.0053, -29.8, 30.0)" gradientUnits="userSpaceOnUse" id="gradient14" spreadMethod="pad" x1="-819.2" x2="819.2">
      <stop offset="0.0" stop-color="#a1916f"/>
      <stop offset="1.0" stop-color="#ede6d4"/>
    </linearGradient>
    <g id="shape1" transform="matrix(1.0, 0.0, 0.0, 1.0, 69.6, 58.1)">
      <path d="M-54.25 -57.35 L-54.25 -57.3 Q-54.25 -56.95 -55.75 -53.5 -60.9 -43.35 -63.0 -32.15 L-64.5 -23.95 -66.4 -11.55 Q-68.15 2.0 -66.1 15.35 -65.3 20.35 -63.75 24.95 -63.05 28.55 -60.45 29.8 L-58.1 30.35 -55.8 30.4 -54.7 30.4 Q-53.75 30.4 -53.3 30.05 -53.05 28.55 -52.25 28.55 -51.95 28.95 -51.85 29.85 L-51.85 29.9 -51.8 29.9 -51.5 31.05 -51.5 31.2 -51.25 31.7 -51.15 31.85 -50.5 32.65 -50.4 32.75 Q-49.75 33.25 -47.85 33.3 L-44.25 33.2 Q-39.95 33.2 -38.95 32.3 -38.75 32.1 -38.65 30.95 -38.85 29.35 -38.65 28.65 -38.35 27.55 -37.65 27.85 -37.0 28.15 -36.65 29.15 L-36.5 30.0 -36.45 30.0 -35.65 30.3 -30.0 30.05 -24.7 29.4 -24.35 29.25 -23.55 28.6 -22.75 27.45 Q-22.45 26.2 -22.25 23.3 L-24.3 23.0 -24.35 25.95 -24.35 26.25 -24.9 26.45 -25.45 25.75 -25.65 24.7 -25.6 22.8 -25.65 20.65 -25.6 19.05 -25.5 15.4 -24.85 11.3 Q-24.3 8.55 -23.5 6.75 L-23.0 5.75 Q-22.05 4.1 -21.0 4.4 L-20.9 4.85 -21.0 5.3 -20.65 5.25 -17.1 4.95 -14.35 4.65 -14.45 0.4 Q-14.6 -1.9 -17.85 -2.3 L-20.45 -2.65 -20.4 -1.6 -20.4 -1.1 Q-20.35 -0.85 -21.0 -0.85 -21.55 -0.85 -21.9 -1.85 -22.4 -3.05 -22.6 -5.75 L-22.75 -10.65 Q-22.75 -15.75 -22.1 -19.2 -21.55 -22.2 -19.5 -28.45 -17.45 -34.8 -16.1 -37.35 L-13.25 -41.85 Q-12.35 -43.1 -10.85 -44.2 L-10.3 -44.55 Q-8.9 -45.5 -8.9 -44.05 -8.9 -44.55 -11.45 -41.1 L-13.4 -38.2 -10.35 -39.75 -7.15 -41.4 Q-5.0 -42.15 -5.0 -40.7 -5.0 -39.15 -14.75 -35.7 L-15.75 -33.3 -19.1 -22.55 Q-20.4 -17.7 -20.6 -11.8 L-20.5 -3.85 -17.9 -3.95 -14.85 -3.55 -13.5 -2.5 Q-12.7 -1.65 -12.5 -0.35 L-12.45 1.7 Q-12.45 4.75 -12.6 5.25 -13.05 6.65 -15.15 6.65 L-21.5 6.45 -21.95 7.35 Q-23.1 9.6 -23.25 10.3 L-23.8 12.75 -24.2 15.5 -24.3 20.75 -24.3 21.55 -22.75 21.4 Q-20.5 21.5 -20.65 23.65 L-20.5 27.55 Q-20.5 29.15 -21.6 30.25 -22.9 31.55 -25.55 32.05 L-29.0 32.3 -36.4 31.9 Q-36.45 32.65 -36.65 33.2 L-37.25 34.0 -38.7 34.9 Q-40.7 35.65 -44.3 35.65 L-49.8 35.1 Q-51.7 34.55 -52.6 33.6 L-53.2 32.6 -54.55 32.7 -55.8 32.7 -58.2 32.85 Q-63.7 32.55 -65.9 26.8 L-66.5 24.95 Q-69.9 12.8 -69.6 0.15 -69.35 -12.0 -67.2 -23.95 -65.35 -34.45 -61.85 -44.5 -60.25 -49.1 -58.25 -53.5 -55.85 -58.1 -55.1 -58.1 L-54.55 -57.85 -54.5 -57.8 -54.25 -57.35" fill="#000000" fill-rule="evenodd" stroke="none"/>
      <path d="M-53.6 -57.35 L-53.85 -56.7 Q-58.4 -45.75 -60.3 -33.7 L-61.6 -24.9 Q-62.6 -18.2 -63.7 -6.65 -64.85 4.9 -63.55 13.95 -62.3 22.95 -61.5 25.95 L-60.45 29.8 Q-63.05 28.55 -63.75 24.95 -65.3 20.35 -66.1 15.35 -68.15 2.0 -66.4 -11.55 L-64.5 -23.95 -63.0 -32.15 Q-60.9 -43.35 -55.75 -53.5 -54.25 -56.95 -54.25 -57.3 L-54.25 -57.35 -53.6 -57.35 M-51.15 31.85 L-50.75 31.65 Q-50.5 32.0 -50.4 32.75 L-50.5 32.65 -51.15 31.85 M-24.35 29.25 L-24.1 26.0 -24.35 25.95 -24.3 23.0 -22.25 23.3 Q-22.45 26.2 -22.75 27.45 L-23.55 28.6 -24.35 29.25 M-25.45 25.75 L-25.8 25.65 -26.25 25.4 -26.65 24.95 -26.9 24.45 -27.1 23.3 -27.1 23.15 -27.1 21.4 -27.0 17.5 -26.4 13.05 Q-25.9 10.1 -25.2 8.15 -24.15 5.25 -23.0 5.65 L-23.0 5.75 -23.5 6.75 Q-24.3 8.55 -24.85 11.3 L-25.5 15.4 -25.6 19.05 -25.65 20.65 -25.6 22.8 -25.65 24.7 -25.45 25.75 M-17.1 4.95 L-17.2 1.35 Q-17.3 -1.15 -20.2 -1.6 L-20.4 -1.6 -20.45 -2.65 -17.85 -2.3 Q-14.6 -1.9 -14.45 0.4 L-14.35 4.65 -17.1 4.95 M-21.9 -1.85 L-22.5 -1.95 -23.75 -2.5 -24.15 -2.85 -24.4 -5.3 -24.55 -10.55 Q-24.55 -16.05 -23.95 -19.75 -23.5 -23.0 -21.65 -29.7 -19.85 -36.55 -18.65 -39.3 -17.6 -41.8 -16.1 -44.15 L-14.0 -46.7 -13.9 -46.75 -10.3 -44.55 -10.85 -44.2 Q-12.35 -43.1 -13.25 -41.85 L-16.1 -37.35 Q-17.45 -34.8 -19.5 -28.45 -21.55 -22.2 -22.1 -19.2 -22.75 -15.75 -22.75 -10.65 L-22.6 -5.75 Q-22.4 -3.05 -21.9 -1.85" fill="#bdbdbd" fill-rule="evenodd" stroke="none"/>
      <path d="M-60.45 29.8 L-61.5 25.95 Q-62.3 22.95 -63.55 13.95 -64.85 4.9 -63.7 -6.65 -62.6 -18.2 -61.6 -24.9 L-60.3 -33.7 Q-58.4 -45.75 -53.85 -56.7 L-53.6 -57.35 Q-32.0 -57.15 -13.9 -46.75 L-14.0 -46.7 -16.1 -44.15 Q-17.6 -41.8 -18.65 -39.3 -19.85 -36.55 -21.65 -29.7 -23.5 -23.0 -23.95 -19.75 -24.55 -16.05 -24.55 -10.55 L-24.4 -5.3 -24.15 -2.85 -23.75 -2.5 -22.5 -1.95 -21.9 -1.85 Q-21.55 -0.85 -21.0 -0.85 -20.35 -0.85 -20.4 -1.1 L-20.4 -1.6 -20.2 -1.6 Q-17.3 -1.15 -17.2 1.35 L-17.1 4.95 -20.65 5.25 -21.0 5.3 -20.9 4.85 -21.0 4.4 Q-22.05 4.1 -23.0 5.75 L-23.0 5.65 Q-24.15 5.25 -25.2 8.15 -25.9 10.1 -26.4 13.05 L-27.0 17.5 -27.1 21.4 -27.1 23.15 -27.1 23.3 -26.9 24.45 -26.65 24.95 -26.25 25.4 -25.8 25.65 -25.45 25.75 -24.9 26.45 -24.35 26.25 -24.35 25.95 -24.1 26.0 -24.35 29.25 -24.7 29.4 -30.0 30.05 -35.65 30.3 -36.45 30.0 -36.5 30.0 -36.65 29.15 Q-37.0 28.15 -37.65 27.85 -38.35 27.55 -38.65 28.65 -38.85 29.35 -38.65 30.95 -38.75 32.1 -38.95 32.3 -39.95 33.2 -44.25 33.2 L-47.85 33.3 Q-49.75 33.25 -50.4 32.75 -50.5 32.0 -50.75 31.65 L-51.15 31.85 -51.25 31.7 -51.5 31.2 -51.5 31.05 -51.8 29.9 -51.85 29.9 -51.85 29.85 Q-51.95 28.95 -52.25 28.55 -53.05 28.55 -53.3 30.05 -53.75 30.4 -54.7 30.4 L-55.8 30.4 -58.1 30.35 -60.45 29.8" fill="#999999" fill-rule="evenodd" stroke="none"/>
    </g>
  </defs>
</svg>
