<?xml version="1.0" encoding="UTF-8" standalone="no"?>
<svg xmlns:xlink="http://www.w3.org/1999/xlink" height="531.5px" width="460.6px" xmlns="http://www.w3.org/2000/svg">
  <g transform="matrix(1.0, 0.0, 0.0, 1.0, 193.65, 334.05)">
    <use height="72.35" transform="matrix(1.0, 0.0, 0.0, 1.0, -61.85, -63.9)" width="121.75" xlink:href="#shape0"/>
    <use height="143.0" transform="matrix(1.2271, 0.0, 0.0, 1.2271, -19.9674, -153.7133)" width="59.25" xlink:href="#shape1"/>
    <use height="72.35" transform="matrix(1.0, 0.0, 0.0, 1.0, -61.85, -63.9)" width="121.75" xlink:href="#shape2"/>
  </g>
  <defs>
    <g id="shape0" transform="matrix(1.0, 0.0, 0.0, 1.0, 61.85, 63.9)">
      <path d="M-34.5 -61.7 Q-35.0 -62.85 -34.6 -63.85 L-34.2 -63.9 -31.85 -61.85 -31.5 -61.45 -26.55 -56.65 Q-18.15 -49.05 -11.3 -47.25 L-6.35 -46.15 -1.35 -45.4 Q6.8 -44.5 14.65 -45.85 L16.65 -50.65 17.45 -53.5 Q17.75 -54.45 19.05 -55.0 22.1 -56.45 26.65 -56.15 L33.95 -55.1 Q37.75 -54.5 40.35 -53.1 42.95 -51.7 43.15 -50.2 L43.65 -44.0 43.35 -42.6 42.45 -40.8 41.9 -39.75 50.9 -38.7 51.25 -38.65 52.65 -38.45 Q54.9 -38.0 56.45 -37.35 60.5 -34.25 59.8 -29.6 L58.75 -23.95 58.45 -22.95 57.95 -21.85 Q57.55 -21.25 56.7 -21.05 L56.4 -20.95 56.95 -19.4 Q57.3 -17.9 57.3 -16.05 57.3 -9.65 55.65 -8.4 54.55 -7.6 51.1 -7.65 L44.65 -7.95 51.1 -5.2 51.3 -5.2 55.0 -3.85 Q55.6 -3.15 55.55 -2.5 L55.2 -0.9 Q54.2 2.4 52.15 5.2 L51.25 6.55 Q50.1 9.1 46.55 8.2 45.0 7.8 42.25 6.4 L42.15 6.35 38.25 4.2 37.45 3.75 31.85 0.8 26.55 1.05 20.5 1.05 15.0 0.55 9.35 -0.1 5.35 -0.4 -12.35 -2.3 -15.95 -3.15 Q-28.6 -6.35 -36.35 -9.75 -47.1 -14.5 -52.85 -21.05 L-57.85 -25.95 -58.8 -26.85 Q-60.8 -29.15 -61.45 -30.7 -61.95 -31.65 -61.8 -32.3 L-61.6 -33.0 -61.5 -33.0 -61.0 -32.35 -58.2 -28.95 Q-50.35 -20.4 -39.3 -15.0 -25.9 -8.3 -16.05 -6.15 L-13.4 -5.55 -11.65 -5.1 Q-2.9 -3.15 6.0 -2.5 L9.95 -2.3 15.65 -2.0 26.55 -1.45 27.6 -1.55 27.95 -1.5 28.55 -1.6 Q33.2 -1.95 34.9 -0.85 L37.45 0.75 38.45 1.4 39.7 2.15 43.1 3.95 44.3 4.55 44.4 4.6 46.7 5.7 48.05 5.75 Q50.55 3.2 52.2 0.05 L52.95 -1.45 53.1 -2.1 53.05 -2.4 51.25 -3.25 49.1 -4.15 46.8 -5.15 Q43.5 -6.55 39.95 -8.7 L39.95 -10.2 Q46.15 -9.45 51.1 -9.95 L51.7 -9.95 Q54.55 -10.0 54.75 -10.45 55.55 -11.95 55.75 -14.05 55.9 -16.2 55.3 -17.95 L55.25 -18.3 54.85 -18.8 54.25 -19.6 52.9 -20.55 52.65 -20.55 48.95 -20.45 41.1 -20.2 Q39.7 -20.2 39.9 -21.3 39.9 -21.85 40.85 -22.05 L48.7 -22.7 53.65 -22.95 53.7 -22.95 54.75 -23.0 55.95 -23.2 Q56.55 -23.6 57.35 -28.3 58.15 -33.05 54.75 -35.15 L52.5 -35.65 52.1 -35.7 51.55 -35.8 47.2 -36.4 40.65 -36.85 34.35 -37.15 31.45 -37.5 31.3 -37.5 30.35 -37.65 Q27.65 -38.35 26.75 -39.95 L27.1 -39.95 30.9 -40.0 37.2 -40.2 Q38.65 -40.35 39.7 -41.35 40.45 -42.1 41.0 -43.25 L41.45 -44.65 41.4 -45.05 40.9 -49.3 Q40.6 -50.8 37.2 -51.9 33.75 -53.0 27.25 -53.35 20.75 -53.7 20.2 -52.45 L19.95 -52.1 19.8 -51.6 19.55 -50.3 18.7 -47.85 18.15 -45.4 Q17.6 -44.05 16.65 -43.5 L13.35 -42.1 10.6 -41.7 Q7.25 -41.35 3.95 -41.55 L3.15 -41.6 -1.1 -42.15 -6.35 -42.85 Q-11.1 -43.7 -13.5 -44.85 -17.4 -46.75 -22.0 -49.4 -26.6 -52.1 -28.3 -54.6 L-31.7 -57.9 -33.1 -59.65 -33.7 -60.3 -34.5 -61.7" fill="#000000" fill-rule="evenodd" stroke="none"/>
      <path d="M-34.5 -61.7 L-33.7 -60.3 -33.1 -59.65 -31.7 -57.9 -28.3 -54.6 Q-26.6 -52.1 -22.0 -49.4 -17.4 -46.75 -13.5 -44.85 -11.1 -43.7 -6.35 -42.85 L-1.1 -42.15 -6.35 -42.6 Q-13.55 -43.5 -16.5 -45.0 -20.15 -46.8 -24.4 -49.3 -28.7 -51.9 -30.3 -54.1 L-33.45 -57.2 -34.7 -58.85 -35.25 -59.55 -36.65 -60.9 -34.5 -61.7 M13.35 -42.1 L16.65 -43.5 Q17.6 -44.05 18.15 -45.4 L18.7 -47.85 19.55 -50.3 19.8 -51.6 19.95 -52.1 20.2 -52.45 Q20.75 -53.7 27.25 -53.35 33.75 -53.0 37.2 -51.9 40.6 -50.8 40.9 -49.3 L41.4 -45.05 41.45 -44.65 41.0 -43.25 Q40.45 -42.1 39.7 -41.35 39.5 -46.45 37.2 -48.35 34.95 -50.1 28.0 -50.1 24.5 -50.1 22.6 -48.7 21.9 -48.15 19.95 -45.6 17.75 -42.7 13.3 -41.65 L13.35 -42.1 M52.1 -35.7 L52.5 -35.65 54.75 -35.15 Q58.15 -33.05 57.35 -28.3 56.55 -23.6 55.95 -23.2 L54.75 -23.0 53.7 -22.95 53.7 -23.0 Q54.8 -24.1 54.8 -26.7 54.8 -30.7 53.75 -33.25 53.1 -34.85 52.1 -35.7 M52.65 -20.55 L52.9 -20.55 54.25 -19.6 54.85 -18.8 55.25 -18.3 55.3 -17.95 Q55.9 -16.2 55.75 -14.05 55.55 -11.95 54.75 -10.45 54.55 -10.0 51.7 -9.95 53.2 -12.1 53.2 -15.2 L52.9 -18.45 52.65 -20.55 M49.1 -4.15 L51.25 -3.25 53.05 -2.4 53.1 -2.1 52.95 -1.45 52.2 0.05 Q50.55 3.2 48.05 5.75 L46.7 5.7 44.4 4.6 46.1 2.95 Q49.4 -0.45 49.4 -2.8 L49.1 -4.15 M28.55 -1.6 L27.95 -1.5 27.6 -1.55 26.55 -1.45 15.65 -2.0 9.95 -2.3 6.0 -2.5 Q-2.9 -3.15 -11.65 -5.1 L-13.4 -5.55 -16.05 -6.15 Q-25.9 -8.3 -39.3 -15.0 -50.35 -20.4 -58.2 -28.95 L-61.0 -32.35 -60.9 -33.15 -60.9 -33.6 -58.15 -30.5 Q-50.9 -22.55 -40.65 -17.45 -28.25 -11.25 -19.15 -9.15 L-16.55 -8.55 -10.45 -7.0 Q-5.1 -5.65 0.4 -5.35 L28.55 -1.6" fill="#bdbdbd" fill-rule="evenodd" stroke="none"/>
      <path d="M-1.1 -42.15 L3.15 -41.6 3.95 -41.55 Q7.25 -41.35 10.6 -41.7 L13.35 -42.1 13.3 -41.65 Q17.75 -42.7 19.95 -45.6 21.9 -48.15 22.6 -48.7 24.5 -50.1 28.0 -50.1 34.95 -50.1 37.2 -48.35 39.5 -46.45 39.7 -41.35 38.65 -40.35 37.2 -40.2 L30.9 -40.0 27.1 -39.95 26.75 -39.95 Q27.65 -38.35 30.35 -37.65 L31.3 -37.5 31.45 -37.5 34.35 -37.15 40.65 -36.85 47.2 -36.4 51.55 -35.8 52.1 -35.7 Q53.1 -34.85 53.75 -33.25 54.8 -30.7 54.8 -26.7 54.8 -24.1 53.7 -23.0 L53.65 -22.95 48.7 -22.7 40.85 -22.05 Q39.9 -21.85 39.9 -21.3 39.7 -20.2 41.1 -20.2 L48.95 -20.45 52.65 -20.55 52.9 -18.45 53.2 -15.2 Q53.2 -12.1 51.7 -9.95 L51.1 -9.95 Q46.15 -9.45 39.95 -10.2 L39.95 -8.7 Q43.5 -6.55 46.8 -5.15 L49.1 -4.15 49.4 -2.8 Q49.4 -0.45 46.1 2.95 L44.4 4.6 44.3 4.55 43.1 3.95 39.7 2.15 38.45 1.4 37.45 0.75 34.9 -0.85 Q33.2 -1.95 28.55 -1.6 L0.4 -5.35 Q-5.1 -5.65 -10.45 -7.0 L-16.55 -8.55 -19.15 -9.15 Q-28.25 -11.25 -40.65 -17.45 -50.9 -22.55 -58.15 -30.5 L-60.9 -33.6 -60.6 -35.55 Q-59.45 -40.25 -56.3 -44.9 -53.35 -49.45 -49.5 -52.65 -45.95 -55.65 -41.95 -58.1 -39.05 -59.95 -36.65 -60.9 L-35.25 -59.55 -34.7 -58.85 -33.45 -57.2 -30.3 -54.1 Q-28.7 -51.9 -24.4 -49.3 -20.15 -46.8 -16.5 -45.0 -13.55 -43.5 -6.35 -42.6 L-1.1 -42.15" fill="#999999" fill-rule="evenodd" stroke="none"/>
    </g>
    <g id="shape1" transform="matrix(1.0, 0.0, 0.0, 1.0, 33.1, 86.8)">
      <path d="M10.85 -83.25 L10.45 -75.5 Q10.25 -73.15 9.4 -71.75 8.45 -69.9 6.55 -69.9 L6.2 -70.0 6.0 -72.9 6.3 -83.05 Q7.35 -87.15 9.4 -86.05 L10.0 -85.75 10.85 -83.25" fill="#ad9d8f" fill-rule="evenodd" stroke="none"/>
      <path d="M6.2 -70.0 L6.55 -69.9 Q8.45 -69.9 9.4 -71.75 10.25 -73.15 10.45 -75.5 L10.85 -83.25 Q12.7 -76.9 12.6 -69.4 L12.5 -68.4 9.4 -68.2 7.85 -68.25 6.45 -68.25 6.3 -69.4 6.2 -70.0" fill="#5d5f4e" fill-rule="evenodd" stroke="none"/>
      <path d="M7.85 -68.25 L9.4 -68.2 12.5 -68.4 13.5 -68.5 13.65 -68.55 14.8 -68.05 13.5 -67.7 12.45 -67.45 9.4 -66.8 8.15 -66.65 4.75 -66.95 Q4.0 -67.15 3.5 -67.5 3.65 -68.6 4.7 -68.7 L6.45 -68.25 7.8 -68.25 7.85 -68.25 M16.35 -37.25 L16.6 -37.05 16.75 -36.95 16.6 -36.8 Q15.5 -35.85 13.5 -35.4 L10.25 -35.15 5.6 -35.8 Q5.65 -36.45 6.0 -37.1 L8.55 -36.95 8.65 -36.95 9.0 -36.95 10.4 -36.95 12.65 -37.05 13.5 -37.05 16.35 -37.25 M20.8 11.15 L21.15 12.05 18.65 12.5 16.6 12.7 14.8 12.7 13.5 12.7 10.4 12.65 Q8.2 12.45 7.05 11.85 7.1 10.95 7.55 9.85 L12.65 10.3 20.35 10.75 20.8 11.15 M-0.8 34.1 L0.5 34.15 0.8 34.45 1.85 37.2 1.75 37.1 1.45 37.8 Q1.1 38.2 0.65 38.2 L0.05 37.95 -0.05 37.85 -0.8 34.1 M5.85 35.25 Q6.25 35.0 6.7 34.9 L7.75 35.15 8.4 35.6 8.45 35.65 9.35 37.45 8.85 37.5 7.65 37.1 7.15 37.45 7.0 37.6 5.85 35.25 M6.35 -14.85 Q6.35 -15.6 6.7 -16.35 L7.95 -16.3 8.4 -16.3 10.1 -16.35 12.65 -16.4 12.65 -16.35 13.5 -16.35 13.5 -16.4 14.1 -16.4 14.2 -14.95 14.1 -14.9 13.5 -14.7 10.15 -14.45 7.8 -14.7 6.35 -14.85 M14.6 3.15 L14.7 4.95 13.5 5.3 10.55 5.7 Q9.5 5.7 9.35 5.2 L8.55 2.9 10.15 3.05 12.65 3.15 13.5 3.15 14.6 3.15" fill="#d43e39" fill-rule="evenodd" stroke="none"/>
      <path d="M13.55 -63.65 Q14.9 -62.75 13.75 -61.85 L9.4 -61.7 5.05 -61.55 Q3.35 -62.55 4.95 -63.55 L9.4 -63.4 13.5 -63.65 13.55 -63.65 M3.0 50.85 Q1.65 52.25 0.7 51.2 2.2 47.95 2.55 44.75 3.0 40.95 1.85 37.2 L2.4 37.75 Q3.0 38.2 3.75 38.2 L4.55 38.0 Q5.1 39.85 5.25 41.7 5.5 46.25 3.0 50.85 M7.25 16.85 Q7.25 15.6 7.7 14.3 L12.65 15.0 13.5 15.0 20.35 15.75 Q19.9 15.9 19.5 16.2 18.65 16.9 18.65 17.75 18.65 18.65 19.5 19.3 L19.8 19.5 14.15 19.85 11.75 19.95 11.75 19.55 Q11.75 18.25 10.85 17.35 9.95 16.45 8.7 16.45 7.9 16.45 7.25 16.85" fill="#edd674" fill-rule="evenodd" stroke="none"/>
      <path d="M15.1 -66.2 Q16.0 -64.2 14.25 -63.8 L13.55 -63.65 13.5 -63.65 9.4 -63.4 4.95 -63.55 4.3 -63.75 Q2.9 -64.2 3.35 -65.6 L5.15 -65.2 7.75 -64.8 9.4 -64.9 Q11.1 -65.15 11.65 -65.8 L13.5 -66.0 15.1 -66.2 M20.25 6.55 L20.8 7.6 20.6 7.7 Q19.8 8.4 19.8 9.35 19.8 10.15 20.35 10.75 L12.65 10.3 7.55 9.85 Q7.25 9.35 7.2 7.9 L7.45 7.2 12.65 6.9 20.25 6.55 M22.2 21.1 Q23.05 23.35 21.9 24.75 L21.45 24.8 17.2 25.1 16.6 25.1 15.15 25.1 13.5 25.05 12.65 25.05 12.1 25.0 8.05 24.45 8.0 24.4 Q7.0 23.4 7.15 22.2 7.85 22.6 8.7 22.6 9.95 22.6 10.85 21.7 11.6 20.95 11.75 19.95 L14.15 19.85 14.15 20.55 Q14.1 21.15 14.9 21.4 L16.6 21.75 16.85 21.75 19.05 21.8 21.15 21.7 22.2 21.1 M24.15 51.3 Q25.55 52.45 24.25 53.6 L23.35 53.6 9.9 53.6 8.9 53.6 8.75 53.55 Q7.9 53.15 8.3 52.3 8.45 51.85 8.9 51.3 L9.25 51.3 9.3 51.3 24.15 51.3 M5.95 50.4 Q4.65 52.25 3.0 50.85 5.5 46.25 5.25 41.7 5.1 39.85 4.55 38.0 L4.75 37.8 5.0 37.1 5.6 37.6 Q5.9 37.8 6.35 37.8 L7.0 37.6 7.25 38.2 7.6 39.45 Q8.1 41.45 8.0 43.5 L8.0 43.65 Q7.7 47.05 5.95 50.4" fill="#171717" fill-rule="evenodd" stroke="none"/>
      <path d="M14.8 -68.05 Q15.55 -67.4 15.1 -66.2 L13.5 -66.0 11.65 -65.8 9.4 -65.65 8.7 -65.65 4.35 -66.1 3.5 -66.3 3.5 -67.5 Q4.0 -67.15 4.75 -66.95 L8.15 -66.65 9.4 -66.8 12.45 -67.45 13.5 -67.7 14.8 -68.05 M16.75 -36.95 Q18.15 -35.75 17.2 -34.35 L16.7 -33.75 16.6 -33.75 13.5 -33.35 13.5 -33.3 12.65 -33.3 12.65 -33.35 Q10.6 -33.2 8.45 -33.4 L6.1 -33.75 5.85 -34.2 Q5.5 -35.0 5.6 -35.8 L10.25 -35.15 13.5 -35.4 Q15.5 -35.85 16.6 -36.8 L16.75 -36.95 M18.2 -16.8 Q19.4 -14.9 18.6 -13.45 L18.5 -13.35 18.4 -13.3 16.6 -13.15 16.05 -13.1 13.5 -12.95 12.65 -12.95 12.05 -12.9 10.6 -12.9 7.85 -13.1 6.8 -13.25 Q6.3 -14.0 6.35 -14.85 L7.8 -14.7 10.15 -14.45 13.5 -14.7 14.1 -14.9 14.2 -14.95 14.1 -16.4 14.4 -16.45 16.6 -16.6 16.8 -16.65 16.95 -16.65 18.2 -16.8 M19.9 2.8 Q22.1 4.6 20.25 6.55 L12.65 6.9 7.45 7.2 7.3 6.95 7.6 6.65 Q8.35 5.95 8.35 4.9 8.35 3.85 7.6 3.1 L7.35 2.85 7.3 2.8 7.3 2.75 7.35 2.75 8.3 2.9 8.55 2.9 9.35 5.2 Q9.5 5.7 10.55 5.7 L13.5 5.3 14.7 4.95 14.6 3.15 14.9 3.15 16.6 3.1 17.0 3.05 18.9 2.9 19.9 2.8 M21.15 12.05 Q21.85 14.15 21.2 15.55 L21.0 15.6 20.35 15.75 13.5 15.0 12.65 15.0 7.7 14.3 Q6.95 13.25 7.05 11.85 8.2 12.45 10.4 12.65 L13.5 12.7 14.8 12.7 16.6 12.7 18.65 12.5 21.15 12.05 M23.35 53.6 L24.15 54.2 Q24.5 54.65 24.05 55.2 L9.0 55.2 8.65 54.75 8.65 54.55 Q8.75 54.1 9.9 53.6 L23.35 53.6 M8.9 49.95 L8.15 50.5 5.95 50.4 Q7.7 47.05 8.0 43.65 L8.0 43.5 Q8.1 41.45 7.6 39.45 L7.25 38.2 7.0 37.6 7.15 37.45 7.65 37.1 8.85 37.5 9.35 37.45 9.9 39.15 10.1 41.65 10.1 41.8 9.85 45.4 9.75 46.25 9.6 47.0 9.55 47.1 8.9 49.95 M0.7 51.2 L0.4 51.6 0.15 51.7 Q-0.35 51.85 -1.1 51.4 L-0.95 50.9 -0.2 47.7 -0.1 47.1 0.25 41.95 -0.05 37.85 0.05 37.95 0.65 38.2 Q1.1 38.2 1.45 37.8 L1.75 37.1 1.85 37.2 Q3.0 40.95 2.55 44.75 2.2 47.95 0.7 51.2 M-3.25 54.8 L-5.3 55.1 -7.15 55.25 -8.45 55.25 -8.6 54.4 Q-8.6 53.3 -7.85 52.5 -7.05 51.7 -5.95 51.7 -4.85 51.7 -4.05 52.5 -3.25 53.3 -3.25 54.4 L-3.25 54.8 M-11.35 55.25 L-13.0 55.2 -15.2 55.05 -16.2 54.9 -17.7 54.7 -18.25 54.65 -19.65 54.55 -17.95 52.65 -14.45 48.95 -17.45 44.3 -17.25 41.6 Q-17.15 39.4 -17.4 37.25 L-17.25 37.15 -14.75 35.55 -10.95 35.3 -7.4 35.05 -6.6 35.1 -6.4 35.25 -9.6 38.4 -13.1 41.55 -10.5 45.1 Q-7.65 48.6 -7.15 49.7 L-9.25 52.45 Q-10.8 54.15 -11.35 55.25 M-4.5 43.25 Q-5.3 44.05 -6.4 44.05 -7.5 44.05 -8.3 43.25 -9.05 42.45 -9.05 41.35 -9.05 40.25 -8.3 39.45 -7.5 38.65 -6.4 38.65 -5.3 38.65 -4.5 39.45 -3.7 40.25 -3.7 41.35 -3.7 42.45 -4.5 43.25" fill="#b52621" fill-rule="evenodd" stroke="none"/>
      <path d="M21.7 19.95 L22.2 21.1 21.15 21.7 19.05 21.8 16.85 21.75 16.6 21.75 14.9 21.4 Q14.1 21.15 14.15 20.55 L14.15 19.85 19.8 19.5 21.45 19.95 21.7 19.95 M3.3 34.85 Q5.05 34.0 5.85 35.25 L7.0 37.6 6.35 37.8 Q5.9 37.8 5.6 37.6 L5.0 37.1 4.75 37.8 4.55 38.0 3.3 34.85 M3.35 -65.6 L3.55 -66.2 4.35 -66.1 8.7 -65.65 9.4 -65.65 11.65 -65.8 Q11.1 -65.15 9.4 -64.9 L7.75 -64.8 5.15 -65.2 3.35 -65.6" fill="#414141" fill-rule="evenodd" stroke="none"/>
      <path d="M13.75 -61.85 L14.15 -58.4 13.5 -58.4 11.3 -58.25 11.2 -58.25 9.4 -58.15 5.2 -58.0 5.05 -61.55 9.4 -61.7 13.75 -61.85 M14.4 -55.7 L14.7 -52.75 13.5 -52.8 12.95 -52.8 12.55 -52.8 12.45 -52.8 9.7 -52.85 9.4 -52.85 9.35 -52.85 9.2 -52.85 5.4 -52.75 5.3 -55.65 7.8 -55.55 9.4 -55.55 10.1 -55.6 13.5 -55.65 14.4 -55.7 M15.35 -47.15 L15.75 -43.7 14.1 -43.65 13.5 -43.6 10.2 -43.55 10.25 -47.1 13.5 -47.15 15.35 -47.15 M18.8 -10.05 L19.9 2.8 18.9 2.9 17.0 3.05 16.6 3.1 14.9 3.15 14.6 3.15 14.0 -7.85 13.5 -7.65 Q11.95 -7.25 11.85 -6.55 11.75 -5.9 10.95 -5.9 10.65 -5.9 10.45 -6.4 L10.4 -7.15 10.15 -7.15 9.6 -6.65 8.95 -6.25 8.55 -6.35 8.45 -7.85 8.15 -7.85 7.0 -6.75 6.9 -9.7 7.1 -9.7 Q7.15 -9.15 7.65 -9.15 L7.75 -9.15 Q8.25 -9.2 8.55 -9.95 L8.8 -9.85 9.3 -10.75 9.85 -10.15 10.15 -9.75 10.45 -9.55 Q10.85 -9.55 11.1 -10.15 L11.25 -11.0 11.9 -10.1 Q12.3 -9.6 12.65 -9.4 L13.55 -9.4 13.85 -9.3 14.1 -9.95 14.9 -10.85 15.15 -10.65 16.2 -10.1 16.45 -10.05 16.5 -10.3 16.1 -11.9 16.45 -11.7 16.6 -11.55 16.85 -11.35 16.95 -11.3 17.05 -11.2 17.5 -10.85 Q18.35 -10.2 18.8 -10.05 M22.25 29.1 L22.65 33.7 22.6 33.7 22.8 34.85 24.15 51.3 9.3 51.3 9.3 51.25 9.25 51.3 8.9 51.3 8.9 49.95 9.55 47.1 9.6 47.0 9.75 46.25 9.85 45.4 10.1 41.8 10.45 45.55 Q10.6 48.0 11.6 48.0 L13.5 47.95 Q15.4 47.65 16.6 46.7 L17.9 45.05 Q18.85 43.15 18.85 38.95 18.85 36.6 17.5 32.4 L17.4 32.3 17.05 33.25 Q16.75 34.0 16.75 34.45 L16.75 34.55 16.6 34.45 15.75 33.6 Q14.85 32.75 14.4 32.6 L14.15 32.6 Q13.9 33.0 13.9 33.65 L13.5 33.25 12.45 32.7 Q12.0 32.8 11.85 33.3 L11.65 33.95 11.55 33.95 Q11.55 33.15 11.2 32.8 L10.8 33.3 10.7 33.3 Q10.6 32.35 10.1 32.3 L9.0 32.4 8.3 32.3 8.25 30.05 8.3 29.9 9.55 27.65 9.65 27.65 9.75 29.1 Q10.0 30.5 10.45 30.5 10.8 30.5 11.0 30.1 L11.05 29.85 11.2 28.8 11.8 29.85 12.5 30.4 12.65 30.4 13.5 30.4 13.85 30.15 14.0 29.2 14.0 28.8 14.1 28.95 14.8 30.05 Q15.65 31.25 16.3 31.25 L16.6 31.15 Q17.0 30.8 16.6 29.45 L16.6 28.7 17.7 29.8 18.95 30.75 18.9 28.05 20.35 29.35 21.3 30.25 21.55 30.5 21.9 30.5 21.9 28.8 22.2 29.05 22.25 29.1" fill="#744e36" fill-rule="evenodd" stroke="none"/>
      <path d="M14.15 -58.4 L14.4 -55.7 13.5 -55.65 10.1 -55.6 9.4 -55.55 7.8 -55.55 5.3 -55.65 5.2 -58.0 9.4 -58.15 11.2 -58.25 11.3 -58.25 13.5 -58.4 14.15 -58.4 M14.7 -52.75 L15.35 -47.15 13.5 -47.15 10.25 -47.1 9.7 -52.85 12.45 -52.8 12.55 -52.8 12.95 -52.8 13.5 -52.8 14.7 -52.75 M15.75 -43.7 L16.35 -37.25 13.5 -37.05 12.65 -37.05 10.4 -36.95 10.4 -39.4 10.45 -39.4 10.2 -43.55 13.5 -43.6 14.1 -43.65 15.75 -43.7 M16.85 -31.55 L18.2 -16.8 16.95 -16.65 16.8 -16.65 16.6 -16.6 14.4 -16.45 14.1 -16.4 13.75 -20.6 13.5 -25.6 13.5 -27.7 12.65 -26.6 12.35 -27.0 12.25 -26.9 11.8 -25.65 11.0 -26.25 10.35 -25.7 9.45 -25.15 Q8.8 -25.15 8.65 -25.4 L8.25 -26.8 7.15 -25.85 6.4 -25.15 6.35 -26.95 6.45 -26.95 7.95 -30.05 8.4 -31.2 8.6 -31.7 8.9 -29.5 Q9.05 -28.65 9.3 -28.15 9.55 -27.7 9.9 -27.6 L10.25 -29.2 10.45 -31.5 11.1 -29.55 Q11.5 -28.5 12.05 -28.5 12.4 -28.5 12.5 -29.15 L12.55 -30.15 12.4 -31.1 12.4 -31.85 12.65 -31.65 12.5 -31.85 12.65 -31.65 12.65 -31.8 13.5 -31.65 14.65 -30.25 16.3 -28.35 16.35 -28.4 16.6 -28.6 16.8 -29.2 16.6 -30.7 16.0 -31.9 16.0 -32.35 16.6 -31.75 16.85 -31.55 M5.6 -47.3 L5.4 -52.75 9.2 -52.85 6.65 -48.85 5.6 -47.3" fill="#0b0b0b" fill-rule="evenodd" stroke="none"/>
      <path d="M6.7 -16.35 L6.4 -25.15 7.15 -25.85 8.25 -26.8 8.65 -25.4 Q8.8 -25.15 9.45 -25.15 L10.35 -25.7 11.0 -26.25 11.8 -25.65 12.25 -26.9 12.35 -27.0 12.65 -26.6 13.5 -27.7 13.5 -25.6 13.75 -20.6 14.1 -16.4 13.5 -16.4 13.5 -16.35 12.65 -16.35 12.65 -16.4 10.1 -16.35 8.4 -16.3 7.95 -16.3 6.7 -16.35 M6.0 -37.1 L5.75 -43.3 8.6 -43.45 9.4 -43.45 10.2 -43.55 10.45 -39.4 10.4 -39.4 10.4 -36.95 9.0 -36.95 8.65 -36.95 8.55 -36.95 6.0 -37.1 M5.6 -47.0 L5.6 -47.3 6.65 -48.85 9.2 -52.85 9.35 -52.85 9.4 -52.85 9.7 -52.85 10.25 -47.1 9.4 -47.1 8.75 -47.1 5.6 -47.0" fill="#383838" fill-rule="evenodd" stroke="none"/>
      <path d="M17.2 -34.35 L19.35 -33.25 Q20.6 -32.5 21.4 -30.8 L21.4 -30.35 21.2 -30.35 20.1 -31.15 Q19.15 -31.9 18.8 -31.9 L18.8 -31.85 19.3 -30.3 19.2 -29.95 18.95 -29.95 16.85 -31.55 16.6 -31.75 16.0 -32.35 16.0 -31.9 16.6 -30.7 16.8 -29.2 16.6 -28.6 16.35 -28.4 16.3 -28.35 14.65 -30.25 13.5 -31.65 12.65 -31.8 12.5 -31.85 12.4 -31.85 12.5 -31.85 12.65 -31.8 12.65 -31.65 12.5 -31.85 12.65 -31.65 12.4 -31.85 12.4 -31.1 12.55 -30.15 12.5 -29.15 Q12.4 -28.5 12.05 -28.5 11.5 -28.5 11.1 -29.55 L10.45 -31.5 10.25 -29.2 9.9 -27.6 Q9.55 -27.7 9.3 -28.15 9.05 -28.65 8.9 -29.5 L8.6 -31.7 8.4 -31.2 7.95 -30.05 6.45 -26.95 6.4 -27.05 6.4 -28.35 Q6.5 -29.95 7.05 -32.05 L6.2 -31.0 Q4.4 -28.6 3.55 -28.0 3.1 -28.05 4.25 -30.75 L5.85 -34.2 6.1 -33.75 8.45 -33.4 Q10.6 -33.2 12.65 -33.35 L12.65 -33.3 13.5 -33.3 13.5 -33.35 16.6 -33.75 16.7 -33.75 17.2 -34.35 M18.6 -13.45 L19.35 -12.7 20.45 -11.1 20.45 -10.6 20.35 -10.6 19.85 -10.8 18.95 -11.3 18.65 -11.5 18.8 -10.05 Q18.35 -10.2 17.5 -10.85 L17.05 -11.2 16.95 -11.3 16.85 -11.35 16.6 -11.55 16.45 -11.7 16.1 -11.9 16.5 -10.3 16.45 -10.05 16.2 -10.1 15.15 -10.65 14.9 -10.85 Q14.25 -11.3 14.15 -11.4 L14.15 -10.55 14.1 -9.95 13.85 -9.3 13.55 -9.4 12.65 -9.4 Q12.3 -9.6 11.9 -10.1 L11.25 -11.0 11.1 -10.15 Q10.85 -9.55 10.45 -9.55 L10.15 -9.75 9.85 -10.15 9.3 -10.75 Q8.95 -10.75 8.55 -9.95 8.25 -9.2 7.75 -9.15 L7.65 -9.15 Q7.15 -9.15 7.1 -9.7 L7.1 -11.1 7.05 -11.1 6.85 -10.9 5.0 -9.65 5.6 -11.4 Q6.15 -12.65 6.8 -13.25 L7.85 -13.1 10.6 -12.9 12.05 -12.9 12.65 -12.95 13.5 -12.95 16.05 -13.1 16.6 -13.15 18.4 -13.3 18.5 -13.35 18.6 -13.45 M21.95 25.65 L24.55 30.65 24.5 30.65 Q24.0 30.6 22.95 29.75 L22.25 29.1 22.2 29.05 21.9 28.8 21.9 30.5 21.55 30.5 21.3 30.25 20.35 29.35 18.9 28.05 18.95 30.75 17.7 29.8 16.6 28.7 16.6 29.45 Q17.0 30.8 16.6 31.15 L16.3 31.25 Q15.65 31.25 14.8 30.05 L14.1 28.95 14.0 28.8 14.0 29.2 13.85 30.15 13.5 30.4 12.65 30.4 12.5 30.4 11.8 29.85 11.2 28.8 11.05 29.85 11.0 30.1 Q10.8 30.5 10.45 30.5 10.0 30.5 9.75 29.1 L9.65 27.65 9.55 27.65 8.3 29.9 8.25 30.05 7.1 31.45 6.4 31.8 Q6.05 31.8 6.05 31.35 6.05 30.4 6.7 28.6 L6.85 28.05 8.0 24.4 8.05 24.45 12.1 25.0 12.65 25.05 13.5 25.05 15.15 25.1 16.6 25.1 17.2 25.1 21.45 24.8 21.95 25.65 M14.0 28.8 L14.0 28.55 14.0 28.45 14.0 28.8" fill="#67a85d" fill-rule="evenodd" stroke="none"/>
      <path d="M8.4 35.6 L8.3 32.3 9.0 32.4 10.1 32.3 Q10.6 32.35 10.7 33.3 L10.8 33.3 11.2 32.8 Q11.55 33.15 11.55 33.95 L11.65 33.95 11.85 33.3 Q12.0 32.8 12.45 32.7 L13.5 33.25 13.9 33.65 Q13.9 33.0 14.15 32.6 L14.4 32.6 Q14.85 32.75 15.75 33.6 L16.6 34.45 16.75 34.55 16.75 34.45 Q16.75 34.0 17.05 33.25 L17.4 32.3 17.5 32.4 Q18.85 36.6 18.85 38.95 18.85 43.15 17.9 45.05 L16.6 46.7 Q15.4 47.65 13.5 47.95 L11.6 48.0 Q10.6 48.0 10.45 45.55 L10.1 41.8 10.1 41.65 9.9 39.15 9.35 37.45 8.45 35.65 8.4 35.6 M7.3 2.75 L7.0 -6.75 8.15 -7.85 8.45 -7.85 8.55 -6.35 8.95 -6.25 9.6 -6.65 10.15 -7.15 10.4 -7.15 10.45 -6.4 Q10.65 -5.9 10.95 -5.9 11.75 -5.9 11.85 -6.55 11.95 -7.25 13.5 -7.65 L14.0 -7.85 14.6 3.15 13.5 3.15 12.65 3.15 10.15 3.05 8.55 2.9 8.3 2.9 7.35 2.75 7.3 2.75 M5.75 -43.3 L5.6 -47.0 8.75 -47.1 9.4 -47.1 10.25 -47.1 10.2 -43.55 9.4 -43.45 8.6 -43.45 5.75 -43.3" fill="#986547" fill-rule="evenodd" stroke="none"/>
      <path d="M6.9 -9.7 L6.85 -10.9 7.05 -11.1 7.1 -11.1 7.1 -9.7 6.9 -9.7 M9.3 -10.75 L8.8 -9.85 8.55 -9.95 Q8.95 -10.75 9.3 -10.75" fill="#cea97f" fill-rule="evenodd" stroke="none"/>
      <path d="M20.8 7.6 Q21.55 7.05 22.7 7.05 24.0 7.05 24.8 7.7 25.65 8.4 25.65 9.4 25.65 10.35 24.8 11.0 24.0 11.7 22.7 11.7 21.55 11.7 20.8 11.15 L20.35 10.75 Q19.8 10.15 19.8 9.35 19.8 8.4 20.6 7.7 L20.8 7.6 M21.2 15.55 L21.45 15.55 Q22.6 15.55 23.4 16.2 24.25 16.9 24.25 17.75 24.25 18.65 23.4 19.3 22.65 19.9 21.7 19.95 L21.45 19.95 19.8 19.5 19.5 19.3 Q18.65 18.65 18.65 17.75 18.65 16.9 19.5 16.2 19.9 15.9 20.35 15.75 L21.0 15.6 21.2 15.55 M7.15 22.2 L6.7 21.85 6.55 21.7 Q5.65 20.8 5.65 19.5 5.65 18.25 6.55 17.35 L6.9 17.1 7.25 16.85 Q7.9 16.45 8.7 16.45 9.95 16.45 10.85 17.35 11.75 18.25 11.75 19.55 L11.75 19.95 Q11.6 20.95 10.85 21.7 9.95 22.6 8.7 22.6 7.85 22.6 7.15 22.2 M7.3 6.95 L7.2 7.0 Q6.65 7.4 5.85 7.4 4.8 7.4 4.05 6.65 3.3 5.95 3.3 4.9 3.3 3.85 4.05 3.1 4.8 2.35 5.85 2.35 L6.25 2.4 Q6.8 2.45 7.3 2.8 L7.35 2.85 7.6 3.1 Q8.35 3.85 8.35 4.9 8.35 5.95 7.6 6.65 L7.3 6.95" fill="#ffffff" fill-rule="evenodd" stroke="none"/>
      <path d="M0.8 34.45 Q2.05 33.6 3.3 34.85 L4.55 38.0 3.75 38.2 Q3.0 38.2 2.4 37.75 L1.85 37.2 0.8 34.45" fill="#eddfa5" fill-rule="evenodd" stroke="none"/>
      <path d="M-32.5 39.8 Q-32.15 35.7 -30.1 31.9 L-30.0 31.7 -28.2 28.85 Q-25.9 26.5 -22.35 27.3 -20.6 27.85 -19.2 29.4 L-19.15 29.5 -18.35 32.15 Q-19.1 34.6 -20.85 37.95 -21.95 40.0 -22.95 41.3 L-24.6 42.95 -24.55 41.75 -24.5 40.05 -24.5 39.95 Q-24.45 37.15 -24.65 35.15 -24.85 32.5 -25.85 32.35 -26.85 32.15 -27.7 34.7 L-27.9 35.3 -28.25 36.8 -28.45 38.55 -28.55 40.15 -28.6 41.95 -28.6 43.4 Q-29.85 42.9 -31.0 41.7 L-31.3 41.4 -32.5 39.8" fill="#eddec1" fill-rule="evenodd" stroke="none"/>
      <path d="M-28.55 40.15 L-28.45 38.55 -28.25 36.8 -27.9 35.3 -27.7 34.7 Q-26.85 32.15 -25.85 32.35 -24.85 32.5 -24.65 35.15 -24.45 37.15 -24.5 39.95 L-24.5 40.05 -24.55 41.75 -24.6 42.95 -24.75 45.8 -24.85 46.8 Q-25.1 44.45 -25.6 42.6 -26.1 40.8 -26.75 39.8 L-28.55 40.15" fill="#95876b" fill-rule="evenodd" stroke="none"/>
      <path d="M-20.25 54.5 L-20.7 54.75 Q-22.7 55.65 -25.2 55.7 -28.0 55.75 -30.0 52.25 L-30.95 49.9 -31.85 47.05 -32.5 43.05 -32.5 39.8 -31.3 41.4 -31.0 41.7 Q-29.85 42.9 -28.6 43.4 L-28.3 47.05 -27.95 48.6 -27.35 49.9 Q-26.85 50.7 -26.25 50.85 -25.65 51.0 -25.3 49.9 L-25.0 48.35 -24.85 47.05 -24.85 46.8 -24.75 45.8 -24.6 42.95 -22.95 41.3 Q-21.95 40.0 -20.85 37.95 -19.1 34.6 -18.35 32.15 L-17.65 35.2 -17.65 35.45 -17.4 37.25 Q-17.15 39.4 -17.25 41.6 L-17.45 44.3 -17.7 46.15 -17.95 47.35 -17.95 47.4 -18.1 48.0 -18.6 49.9 -19.55 52.8 -19.55 52.85 -20.25 54.5" fill="#dbc79f" fill-rule="evenodd" stroke="none"/>
      <path d="M-28.6 43.4 L-28.6 41.95 -28.55 40.15 -26.75 39.8 Q-26.1 40.8 -25.6 42.6 -25.1 44.45 -24.85 46.8 L-24.85 47.05 -25.0 48.35 -25.3 49.9 Q-25.65 51.0 -26.25 50.85 -26.85 50.7 -27.35 49.9 L-27.95 48.6 -28.3 47.05 -28.6 43.4" fill="#b1a07f" fill-rule="evenodd" stroke="none"/>
      <path d="M-19.15 29.4 L-17.75 29.45 Q-15.75 31.6 -13.65 34.45 -13.5 34.65 -14.75 35.55 L-15.5 35.55 -17.65 35.45 -17.65 35.2 -18.35 32.15 -19.15 29.5 -19.15 29.4 M-12.25 29.65 L-10.2 29.8 -9.75 29.85 -9.05 29.9 Q-8.95 30.85 -8.3 31.55 -7.5 32.35 -6.4 32.35 -5.3 32.35 -4.5 31.55 L-3.9 30.75 -3.25 30.9 Q-2.75 31.1 -2.35 31.45 L-1.8 31.95 Q-1.2 32.65 -0.95 33.65 L-0.8 34.1 -0.05 37.85 0.25 41.95 Q-1.15 38.55 -2.0 37.4 -3.65 35.3 -6.6 35.1 L-9.45 32.35 -12.25 29.65" fill="#c2954b" fill-rule="evenodd" stroke="none"/>
      <path d="M-17.75 29.45 L-16.3 29.5 -15.25 29.55 -13.85 29.6 -13.05 29.6 -12.25 29.65 -9.45 32.35 -6.6 35.1 -7.4 35.05 -10.95 35.3 -14.75 35.55 Q-13.5 34.65 -13.65 34.45 -15.75 31.6 -17.75 29.45 M-9.05 29.9 L-8.9 29.9 -7.25 30.1 -6.5 30.2 -6.4 30.25 -3.9 30.75 -4.5 31.55 Q-5.3 32.35 -6.4 32.35 -7.5 32.35 -8.3 31.55 -8.95 30.85 -9.05 29.9" fill="#d4443f" fill-rule="evenodd" stroke="none"/>
      <path d="M-1.1 51.4 L-1.8 53.5 Q-2.15 54.45 -2.8 54.7 L-3.25 54.8 -3.25 54.4 Q-3.25 53.3 -4.05 52.5 -4.85 51.7 -5.95 51.7 -7.05 51.7 -7.85 52.5 -8.6 53.3 -8.6 54.4 L-8.45 55.25 -10.25 55.25 -10.75 55.25 -11.35 55.25 Q-10.8 54.15 -9.25 52.45 L-7.15 49.7 Q-7.65 48.6 -10.5 45.1 L-13.1 41.55 -9.6 38.4 -6.4 35.25 -6.6 35.1 Q-3.65 35.3 -2.0 37.4 -1.15 38.55 0.25 41.95 L-0.1 47.1 -0.2 47.7 -0.95 50.9 -1.1 51.4 M-19.65 54.55 L-20.25 54.5 -19.55 52.85 -19.55 52.8 -18.6 49.9 -18.1 48.0 -17.95 47.4 -17.95 47.35 -17.7 46.15 -17.45 44.3 -14.45 48.95 -17.95 52.65 -19.65 54.55 M-17.65 35.45 L-15.5 35.55 -14.75 35.55 -17.25 37.15 -17.4 37.25 -17.65 35.45 M-4.5 43.25 Q-3.7 42.45 -3.7 41.35 -3.7 40.25 -4.5 39.45 -5.3 38.65 -6.4 38.65 -7.5 38.65 -8.3 39.45 -9.05 40.25 -9.05 41.35 -9.05 42.45 -8.3 43.25 -7.5 44.05 -6.4 44.05 -5.3 44.05 -4.5 43.25" fill="#a88141" fill-rule="evenodd" stroke="none"/>
      <path d="M10.85 -83.25 L10.0 -85.75 9.4 -86.05 Q7.35 -87.15 6.3 -83.05 L6.0 -72.9 6.2 -70.0 6.3 -69.4 6.45 -68.25 7.85 -68.25 9.4 -68.2 12.5 -68.4 12.6 -69.4 Q12.7 -76.9 10.85 -83.25 M12.5 -68.4 L13.5 -68.5 13.65 -68.55 14.8 -68.05 Q15.55 -67.4 15.1 -66.2 16.0 -64.2 14.25 -63.8 L13.55 -63.65 Q14.9 -62.75 13.75 -61.85 L14.15 -58.4 14.4 -55.7 14.7 -52.75 15.35 -47.15 15.75 -43.7 16.35 -37.25 16.6 -37.05 16.75 -36.95 Q18.15 -35.75 17.2 -34.35 L19.35 -33.25 Q20.6 -32.5 21.4 -30.8 L21.4 -30.35 21.2 -30.35 20.1 -31.15 Q19.15 -31.9 18.8 -31.9 L18.8 -31.85 19.3 -30.3 19.2 -29.95 18.95 -29.95 16.85 -31.55 18.2 -16.8 Q19.4 -14.9 18.6 -13.45 L19.35 -12.7 20.45 -11.1 20.45 -10.6 20.35 -10.6 19.85 -10.8 18.95 -11.3 18.65 -11.5 18.8 -11.3 18.95 -10.4 18.9 -10.05 18.8 -10.05 19.9 2.8 Q22.1 4.6 20.25 6.55 L20.8 7.6 Q21.55 7.05 22.7 7.05 24.0 7.05 24.8 7.7 25.65 8.4 25.65 9.4 25.65 10.35 24.8 11.0 24.0 11.7 22.7 11.7 21.55 11.7 20.8 11.15 L21.15 12.05 Q21.85 14.15 21.2 15.55 L21.45 15.55 Q22.6 15.55 23.4 16.2 24.25 16.9 24.25 17.75 24.25 18.65 23.4 19.3 22.65 19.9 21.7 19.95 L22.2 21.1 Q23.05 23.35 21.9 24.75 L21.95 25.65 24.55 30.65 24.5 30.65 Q24.0 30.6 22.95 29.75 L22.25 29.1 22.65 33.7 22.8 34.75 22.8 34.85 24.15 51.3 Q25.55 52.45 24.25 53.6 L23.35 53.6 24.15 54.2 Q24.5 54.65 24.05 55.2 L9.0 55.2 8.65 54.75 8.65 54.55 Q8.75 54.1 9.9 53.6 L8.9 53.6 8.75 53.55 Q7.9 53.15 8.3 52.3 8.45 51.85 8.9 51.3 L8.9 49.95 8.15 50.5 5.95 50.4 Q4.65 52.25 3.0 50.85 1.65 52.25 0.7 51.2 L0.4 51.6 0.15 51.7 Q-0.35 51.85 -1.1 51.4 L-1.8 53.5 Q-2.15 54.45 -2.8 54.7 L-3.25 54.8 -5.3 55.1 -7.15 55.25 -8.45 55.25 -10.25 55.25 -10.75 55.25 -11.35 55.25 -13.0 55.2 -15.2 55.05 -16.2 54.9 -17.7 54.7 -18.25 54.65 -19.65 54.55 -20.25 54.5 -20.7 54.75 Q-22.7 55.65 -25.2 55.7 -28.0 55.75 -30.0 52.25 L-30.95 49.9 -31.85 47.05 -32.5 43.05 -32.5 39.8 Q-32.15 35.7 -30.1 31.9 L-30.0 31.7 -28.2 28.85 Q-25.9 26.5 -22.35 27.3 -20.6 27.85 -19.2 29.4 L-19.15 29.4 -17.75 29.45 -16.3 29.5 -15.25 29.55 -13.85 29.6 -13.05 29.6 -12.25 29.65 -10.2 29.8 -9.75 29.85 -9.05 29.9 -8.9 29.9 -7.25 30.1 -6.5 30.2 -6.4 30.25 -3.9 30.75 -3.25 30.9 Q-2.75 31.1 -2.35 31.45 L-1.8 31.95 Q-1.2 32.65 -0.95 33.65 L-0.8 34.1 0.5 34.15 0.8 34.45 Q2.05 33.6 3.3 34.85 5.05 34.0 5.85 35.25 6.25 35.0 6.7 34.9 L7.75 35.15 8.4 35.6 8.3 32.3 8.25 30.05 7.1 31.45 6.4 31.8 Q6.05 31.8 6.05 31.35 6.05 30.4 6.7 28.6 L6.85 28.05 8.0 24.4 Q7.0 23.4 7.15 22.2 L6.7 21.85 6.55 21.7 Q5.65 20.8 5.65 19.5 5.65 18.25 6.55 17.35 L6.9 17.1 7.25 16.85 Q7.25 15.6 7.7 14.3 6.95 13.25 7.05 11.85 7.1 10.95 7.55 9.85 7.25 9.35 7.2 7.9 L7.45 7.2 7.3 6.95 7.2 7.0 Q6.65 7.4 5.85 7.4 4.8 7.4 4.05 6.65 3.3 5.95 3.3 4.9 3.3 3.85 4.05 3.1 4.8 2.35 5.85 2.35 L6.25 2.4 Q6.8 2.45 7.3 2.8 L7.3 2.75 7.0 -6.75 6.9 -9.7 6.85 -10.9 5.0 -9.65 5.6 -11.4 Q6.15 -12.65 6.8 -13.25 6.3 -14.0 6.35 -14.85 6.35 -15.6 6.7 -16.35 L6.4 -25.15 6.35 -26.95 6.2 -31.0 Q4.4 -28.6 3.55 -28.0 3.1 -28.05 4.25 -30.75 L5.85 -34.2 Q5.5 -35.0 5.6 -35.8 5.65 -36.45 6.0 -37.1 L5.75 -43.3 5.6 -47.0 5.6 -47.3 5.4 -52.75 5.3 -55.65 5.2 -58.0 5.05 -61.55 Q3.35 -62.55 4.95 -63.55 L4.3 -63.75 Q2.9 -64.2 3.35 -65.6 L3.55 -66.2 4.35 -66.1 3.5 -66.3 3.5 -67.5 Q3.65 -68.6 4.7 -68.7 L6.45 -68.25 7.8 -68.25 7.85 -68.25 M11.65 -65.8 L13.5 -66.0 15.1 -66.2 M13.55 -63.65 L13.5 -63.65 9.4 -63.4 4.95 -63.55 M9.4 -65.65 L8.7 -65.65 4.35 -66.1 M9.4 -61.7 L5.05 -61.55 M9.4 -65.65 L11.65 -65.8 M9.4 -61.7 L13.75 -61.85 M10.4 -36.95 L12.65 -37.05 13.5 -37.05 16.35 -37.25 M6.0 -37.1 L8.55 -36.95 8.65 -36.95 9.0 -36.95 10.4 -36.95 M6.2 -31.0 L7.05 -32.05 Q6.5 -29.95 6.4 -28.35 L6.4 -27.05 6.45 -26.95 7.95 -30.05 8.4 -31.2 8.6 -31.7 8.9 -29.5 Q9.05 -28.65 9.3 -28.15 9.55 -27.7 9.9 -27.6 L10.25 -29.2 10.45 -31.5 11.1 -29.55 Q11.5 -28.5 12.05 -28.5 12.4 -28.5 12.5 -29.15 L12.55 -30.15 12.4 -31.1 12.4 -31.85 12.5 -31.85 12.65 -31.8 13.5 -31.65 14.65 -30.25 16.3 -28.35 16.35 -28.4 16.6 -28.6 16.8 -29.2 16.6 -30.7 16.0 -31.9 16.0 -32.35 16.6 -31.75 16.85 -31.55 M12.65 -33.35 Q10.6 -33.2 8.45 -33.4 L6.1 -33.75 5.85 -34.2 M14.1 -16.4 L14.4 -16.45 16.6 -16.6 16.8 -16.65 16.95 -16.65 18.2 -16.8 M17.2 -34.35 L16.7 -33.75 16.6 -33.75 13.5 -33.35 M13.5 -33.3 L12.65 -33.3 M12.4 -31.85 L12.65 -31.65 12.5 -31.85 12.65 -31.65 M13.5 -16.4 L14.1 -16.4 M12.65 -16.4 L10.1 -16.35 8.4 -16.3 7.95 -16.3 6.7 -16.35 M18.6 -13.45 L18.5 -13.35 18.4 -13.3 16.6 -13.15 16.05 -13.1 13.5 -12.95 12.65 -12.95 12.05 -12.9 10.6 -12.9 7.85 -13.1 6.8 -13.25 M12.65 -16.35 L13.5 -16.35 M9.3 -10.75 Q8.95 -10.75 8.55 -9.95 8.25 -9.2 7.75 -9.15 L7.65 -9.15 Q7.15 -9.15 7.1 -9.7 L7.1 -11.1 7.05 -11.1 6.85 -10.9 M9.3 -10.75 L9.85 -10.15 10.15 -9.75 10.45 -9.55 Q10.85 -9.55 11.1 -10.15 L11.25 -11.0 11.9 -10.1 Q12.3 -9.6 12.65 -9.4 L13.55 -9.4 13.85 -9.3 14.1 -9.95 14.15 -10.55 14.15 -11.4 Q14.25 -11.3 14.9 -10.85 L15.15 -10.65 16.2 -10.1 16.45 -10.05 16.5 -10.3 16.1 -11.9 16.45 -11.7 16.6 -11.55 16.85 -11.35 16.95 -11.3 17.05 -11.2 17.5 -10.85 Q18.35 -10.2 18.8 -10.05 L18.65 -11.5 M14.6 3.15 L14.9 3.15 16.6 3.1 17.0 3.05 18.9 2.9 19.9 2.8 M20.8 7.6 L20.6 7.7 Q19.8 8.4 19.8 9.35 19.8 10.15 20.35 10.75 L20.8 11.15 M20.35 15.75 L21.0 15.6 21.2 15.55 M21.7 19.95 L21.45 19.95 19.8 19.5 14.15 19.85 11.75 19.95 Q11.6 20.95 10.85 21.7 9.95 22.6 8.7 22.6 7.85 22.6 7.15 22.2 M14.6 3.15 L13.5 3.15 12.65 3.15 10.15 3.05 8.55 2.9 8.3 2.9 7.35 2.75 7.3 2.75 M12.65 6.9 L7.45 7.2 M12.65 10.3 L7.55 9.85 M7.3 2.8 L7.35 2.85 7.6 3.1 Q8.35 3.85 8.35 4.9 8.35 5.95 7.6 6.65 L7.3 6.95 M7.25 16.85 Q7.9 16.45 8.7 16.45 9.95 16.45 10.85 17.35 11.75 18.25 11.75 19.55 L11.75 19.95 M21.45 24.8 L17.2 25.1 16.6 25.1 15.15 25.1 13.5 25.05 12.65 25.05 12.1 25.0 8.05 24.45 8.0 24.4 M19.8 19.5 L19.5 19.3 Q18.65 18.65 18.65 17.75 18.65 16.9 19.5 16.2 19.9 15.9 20.35 15.75 L13.5 15.0 12.65 15.0 7.7 14.3 M14.0 28.8 L14.1 28.95 14.8 30.05 Q15.65 31.25 16.3 31.25 L16.6 31.15 Q17.0 30.8 16.6 29.45 L16.6 28.7 17.7 29.8 18.95 30.75 18.9 28.05 20.35 29.35 21.3 30.25 21.55 30.5 21.9 30.5 21.9 28.8 22.2 29.05 22.25 29.1 M12.65 30.4 L13.5 30.4 13.85 30.15 M14.0 29.2 L14.0 28.8 14.0 28.45 14.0 28.55 14.0 28.8 M11.05 29.85 L11.2 28.8 11.8 29.85 12.5 30.4 12.65 30.4 M8.25 30.05 L8.3 29.9 9.55 27.65 9.65 27.65 9.75 29.1 Q10.0 30.5 10.45 30.5 10.8 30.5 11.0 30.1 M8.4 35.6 L8.45 35.65 9.35 37.45 9.9 39.15 10.1 41.65 10.1 41.8 9.85 45.4 9.75 46.25 9.6 47.0 9.55 47.1 8.9 49.95 M7.0 37.6 L5.85 35.25 M7.0 37.6 L7.25 38.2 7.6 39.45 Q8.1 41.45 8.0 43.5 L8.0 43.65 Q7.7 47.05 5.95 50.4 M4.55 38.0 L3.3 34.85 M1.85 37.2 L0.8 34.45 M1.85 37.2 Q3.0 40.95 2.55 44.75 2.2 47.95 0.7 51.2 M4.55 38.0 Q5.1 39.85 5.25 41.7 5.5 46.25 3.0 50.85 M21.45 24.8 L21.9 24.75 M21.95 25.65 L21.45 24.8 M12.65 10.3 L20.35 10.75 M12.65 6.9 L20.25 6.55 M9.25 51.3 L9.3 51.3 24.15 51.3 M9.25 51.3 L8.9 51.3 M9.9 53.6 L23.35 53.6 M-28.55 40.15 L-28.45 38.55 -28.25 36.8 -27.9 35.3 -27.7 34.7 Q-26.85 32.15 -25.85 32.35 -24.85 32.5 -24.65 35.15 -24.45 37.15 -24.5 39.95 L-24.5 40.05 -24.55 41.75 -24.6 42.95 -24.75 45.8 -24.85 46.8 -24.85 47.05 -25.0 48.35 -25.3 49.9 Q-25.65 51.0 -26.25 50.85 -26.85 50.7 -27.35 49.9 L-27.95 48.6 -28.3 47.05 -28.6 43.4 -28.6 41.95 -28.55 40.15 M-18.35 32.15 L-19.15 29.5 -19.2 29.4 M-17.65 35.45 L-17.65 35.2 -18.35 32.15 M-17.45 44.3 L-17.25 41.6 Q-17.15 39.4 -17.4 37.25 L-17.65 35.45 M-20.25 54.5 L-19.55 52.85 -19.55 52.8 -18.6 49.9 -18.1 48.0 -17.95 47.4 -17.95 47.35 -17.7 46.15 -17.45 44.3 M0.25 41.95 L-0.1 47.1 -0.2 47.7 -0.95 50.9 -1.1 51.4 M-0.8 34.1 L-0.05 37.85 0.25 41.95" fill="none" stroke="#000000" stroke-linecap="round" stroke-linejoin="round" stroke-opacity="0.5019608" stroke-width="1.0"/>
      <path d="M15.85 -38.9 L13.7 -45.95 12.25 -46.75 Q10.85 -49.45 12.95 -53.55 L11.25 -52.9 Q9.95 -54.05 11.1 -57.9 L12.5 -63.9 12.75 -65.1 16.6 -59.85 Q21.1 -53.2 21.85 -47.95 L19.25 -49.35 22.75 -40.65 20.15 -36.45 15.85 -38.9 M12.5 -63.9 Q18.1 -48.15 20.15 -36.45 18.1 -48.15 12.5 -63.9" fill="#e7e7e7" fill-rule="evenodd" stroke="none"/>
      <path d="M22.75 -40.65 L25.1 -34.8 Q25.8 -31.6 24.7 -29.1 23.75 -27.15 21.75 -25.6 20.05 -26.6 18.7 -30.0 L18.0 -31.95 15.85 -38.9 20.15 -36.45 20.2 -36.1 20.5 -34.05 20.2 -36.1 20.15 -36.45 22.75 -40.65" fill="#232323" fill-rule="evenodd" stroke="none"/>
      <path d="M15.85 -38.9 L13.7 -45.95 12.25 -46.75 Q10.85 -49.45 12.95 -53.55 L11.25 -52.9 Q9.95 -54.05 11.1 -57.9 L12.5 -63.9 12.75 -65.1 16.6 -59.85 Q21.1 -53.2 21.85 -47.95 L19.25 -49.35 22.75 -40.65 25.1 -34.8 Q25.8 -31.6 24.7 -29.1 23.75 -27.15 21.75 -25.6 20.05 -26.6 18.7 -30.0 L18.0 -31.95 15.85 -38.9 20.15 -36.45 Q18.1 -48.15 12.5 -63.9 M20.15 -36.45 L20.2 -36.1 20.5 -34.05 M22.75 -40.65 L20.15 -36.45" fill="none" stroke="#000000" stroke-linecap="round" stroke-linejoin="round" stroke-opacity="0.5019608" stroke-width="1.0"/>
      <path d="M4.65 -51.9 L-3.05 -48.1 -5.7 -51.9 -4.2 -55.05 -2.45 -57.7 -4.9 -56.95 Q-0.35 -62.75 5.4 -64.3 L7.8 -60.6 8.4 -57.15 4.7 -54.1 4.65 -51.9 M-0.25 -52.05 Q-0.4 -57.1 5.4 -64.3 -0.4 -57.1 -0.25 -52.05" fill="#e0e0e0" fill-rule="evenodd" stroke="none"/>
      <path d="M4.65 -51.9 L4.6 -49.7 Q0.4 -43.75 -3.15 -43.55 -7.35 -45.4 -6.25 -50.75 L-5.7 -51.9 -3.05 -48.1 4.65 -51.9" fill="#000000" fill-rule="evenodd" stroke="none"/>
      <path d="M-5.7 -51.9 L-6.25 -50.75 Q-7.35 -45.4 -3.15 -43.55 0.4 -43.75 4.6 -49.7 L4.65 -51.9 -3.05 -48.1 -5.7 -51.9 -4.2 -55.05 -2.45 -57.7 -4.9 -56.95 Q-0.35 -62.75 5.4 -64.3 L7.8 -60.6 8.4 -57.15 4.7 -54.1 4.65 -51.9 M5.4 -64.3 Q-0.4 -57.1 -0.25 -52.05" fill="none" stroke="#000000" stroke-linecap="round" stroke-linejoin="round" stroke-opacity="0.5019608" stroke-width="1.0"/>
    </g>
    <g id="shape2" transform="matrix(1.0, 0.0, 0.0, 1.0, 61.85, 63.9)">
      <path d="M27.0 -39.95 L28.8 -40.0 30.95 -40.0 36.95 -39.7 41.75 -39.9 41.65 -39.75 43.55 -39.65 50.9 -38.7 51.25 -38.65 52.65 -38.45 Q54.9 -38.0 56.45 -37.35 60.5 -34.25 59.8 -29.6 L58.75 -23.95 58.45 -22.95 57.95 -21.85 Q57.55 -21.25 56.7 -21.05 L56.4 -20.95 56.95 -19.4 Q57.3 -17.9 57.3 -16.05 57.3 -9.65 55.65 -8.4 54.55 -7.6 51.1 -7.65 L44.65 -7.95 51.1 -5.2 51.3 -5.2 55.0 -3.85 Q55.6 -3.15 55.55 -2.5 L55.2 -0.9 Q54.2 2.4 52.15 5.2 L51.25 6.55 Q50.1 9.1 46.55 8.2 45.0 7.8 42.25 6.4 L42.15 6.35 38.25 4.2 37.45 3.75 31.85 0.8 26.55 1.05 20.5 1.05 15.0 0.55 9.35 -0.1 5.35 -0.4 -12.35 -2.3 -15.95 -3.15 Q-28.6 -6.35 -36.35 -9.75 -47.1 -14.5 -52.85 -21.05 L-57.85 -25.95 -58.8 -26.85 Q-60.8 -29.15 -61.45 -30.7 -61.95 -31.65 -61.8 -32.3 L-61.6 -33.0 -61.5 -33.0 -61.0 -32.35 -58.2 -28.95 Q-50.35 -20.4 -39.3 -15.0 -25.9 -8.3 -16.05 -6.15 L-13.4 -5.55 -11.65 -5.1 Q-2.9 -3.15 6.0 -2.5 L9.95 -2.3 15.65 -2.0 26.55 -1.45 27.6 -1.55 27.95 -1.5 28.55 -1.6 Q33.2 -1.95 34.9 -0.85 L37.45 0.75 38.45 1.4 39.7 2.15 43.1 3.95 44.3 4.55 44.4 4.6 46.7 5.7 48.05 5.75 Q50.55 3.2 52.2 0.05 L52.95 -1.45 53.1 -2.1 53.05 -2.4 51.25 -3.25 49.1 -4.15 46.8 -5.15 Q43.5 -6.55 39.95 -8.7 L39.95 -10.2 Q46.15 -9.45 51.1 -9.95 L51.7 -9.95 Q54.55 -10.0 54.75 -10.45 55.55 -11.95 55.75 -14.05 55.9 -16.2 55.3 -17.95 L55.25 -18.3 54.85 -18.8 54.25 -19.6 52.9 -20.55 52.65 -20.55 48.95 -20.45 41.1 -20.2 Q39.7 -20.2 39.9 -21.3 39.9 -21.85 40.85 -22.05 L48.7 -22.7 53.65 -22.95 53.7 -22.95 54.75 -23.0 55.95 -23.2 Q56.55 -23.6 57.35 -28.3 58.15 -33.05 54.75 -35.15 L52.5 -35.65 52.1 -35.7 51.55 -35.8 47.2 -36.4 43.55 -36.75 40.15 -36.85 32.8 -37.15 29.45 -37.5 29.25 -37.5 28.15 -37.65 Q25.0 -38.35 23.95 -39.95 L24.25 -39.95 24.35 -39.95 25.0 -39.95 26.0 -39.95 26.3 -39.95 26.75 -39.95 27.0 -39.95 M-34.5 -61.7 Q-35.0 -62.85 -34.6 -63.85 L-34.2 -63.9 -31.85 -61.85 -31.5 -61.45 -26.55 -56.65 Q-18.15 -49.05 -11.3 -47.25 L-6.35 -46.15 -1.35 -45.4 Q6.8 -44.5 14.65 -45.85 L14.85 -46.25 Q15.85 -45.65 17.25 -45.05 L17.5 -44.95 17.85 -44.8 17.55 -44.3 16.65 -43.5 13.35 -42.1 10.6 -41.7 Q7.25 -41.35 3.95 -41.55 L3.15 -41.6 -1.1 -42.15 -6.35 -42.85 Q-11.1 -43.7 -13.5 -44.85 -17.4 -46.75 -22.0 -49.4 -26.6 -52.1 -28.3 -54.6 L-31.7 -57.9 -33.1 -59.65 -33.7 -60.3 -34.5 -61.7" fill="#000000" fill-rule="evenodd" stroke="none"/>
      <path d="M27.0 -39.95 L26.75 -39.95 26.3 -39.95 27.0 -39.95 M26.0 -39.95 L25.0 -39.95 24.35 -39.95 24.25 -39.95 23.95 -39.95 Q25.0 -38.35 28.15 -37.65 L29.25 -37.5 29.45 -37.5 32.8 -37.15 40.15 -36.85 43.55 -36.75 47.2 -36.4 51.55 -35.8 52.1 -35.7 Q53.1 -34.85 53.75 -33.25 54.8 -30.7 54.8 -26.7 54.8 -24.1 53.7 -23.0 L53.65 -22.95 48.7 -22.7 40.85 -22.05 Q39.9 -21.85 39.9 -21.3 39.7 -20.2 41.1 -20.2 L48.95 -20.45 52.65 -20.55 52.9 -18.45 53.2 -15.2 Q53.2 -12.1 51.7 -9.95 L51.1 -9.95 Q46.15 -9.45 39.95 -10.2 L39.95 -8.7 Q43.5 -6.55 46.8 -5.15 L49.1 -4.15 49.4 -2.8 Q49.4 -0.45 46.1 2.95 L44.4 4.6 44.3 4.55 43.1 3.95 39.7 2.15 38.45 1.4 37.45 0.75 34.9 -0.85 Q33.2 -1.95 28.55 -1.6 L0.4 -5.35 Q-5.1 -5.65 -10.45 -7.0 L-16.55 -8.55 -19.15 -9.15 Q-28.25 -11.25 -40.65 -17.45 -50.9 -22.55 -58.15 -30.5 L-60.9 -33.6 -60.6 -35.55 Q-59.45 -40.25 -56.3 -44.9 -53.35 -49.45 -49.5 -52.65 -45.95 -55.65 -41.95 -58.1 -39.05 -59.95 -36.65 -60.9 L-35.25 -59.55 -34.7 -58.85 -33.45 -57.2 -30.3 -54.1 Q-28.7 -51.9 -24.4 -49.3 -20.15 -46.8 -16.5 -45.0 -13.55 -43.5 -6.35 -42.6 L-1.1 -42.15 3.15 -41.6 3.95 -41.55 Q7.25 -41.35 10.6 -41.7 L13.35 -42.1 13.3 -41.65 Q16.0 -42.3 17.9 -43.6 L18.35 -42.8 Q18.75 -42.05 21.5 -41.05 L23.85 -40.25 25.0 -40.0 26.0 -39.95" fill="#999999" fill-rule="evenodd" stroke="none"/>
      <path d="M52.1 -35.7 L52.5 -35.65 54.75 -35.15 Q58.15 -33.05 57.35 -28.3 56.55 -23.6 55.95 -23.2 L54.75 -23.0 53.7 -22.95 53.7 -23.0 Q54.8 -24.1 54.8 -26.7 54.8 -30.7 53.75 -33.25 53.1 -34.85 52.1 -35.7 M52.65 -20.55 L52.9 -20.55 54.25 -19.6 54.85 -18.8 55.25 -18.3 55.3 -17.95 Q55.9 -16.2 55.75 -14.05 55.55 -11.95 54.75 -10.45 54.55 -10.0 51.7 -9.95 53.2 -12.1 53.2 -15.2 L52.9 -18.45 52.65 -20.55 M49.1 -4.15 L51.25 -3.25 53.05 -2.4 53.1 -2.1 52.95 -1.45 52.2 0.05 Q50.55 3.2 48.05 5.75 L46.7 5.7 44.4 4.6 46.1 2.95 Q49.4 -0.45 49.4 -2.8 L49.1 -4.15 M28.55 -1.6 L27.95 -1.5 27.6 -1.55 26.55 -1.45 15.65 -2.0 9.95 -2.3 6.0 -2.5 Q-2.9 -3.15 -11.65 -5.1 L-13.4 -5.55 -16.05 -6.15 Q-25.9 -8.3 -39.3 -15.0 -50.35 -20.4 -58.2 -28.95 L-61.0 -32.35 -60.9 -33.15 -60.9 -33.6 -58.15 -30.5 Q-50.9 -22.55 -40.65 -17.45 -28.25 -11.25 -19.15 -9.15 L-16.55 -8.55 -10.45 -7.0 Q-5.1 -5.65 0.4 -5.35 L28.55 -1.6 M-36.65 -60.9 L-34.5 -61.7 -33.7 -60.3 -33.1 -59.65 -31.7 -57.9 -28.3 -54.6 Q-26.6 -52.1 -22.0 -49.4 -17.4 -46.75 -13.5 -44.85 -11.1 -43.7 -6.35 -42.85 L-1.1 -42.15 -6.35 -42.6 Q-13.55 -43.5 -16.5 -45.0 -20.15 -46.8 -24.4 -49.3 -28.7 -51.9 -30.3 -54.1 L-33.45 -57.2 -34.7 -58.85 -35.25 -59.55 -36.65 -60.9 M17.85 -44.8 L18.85 -44.35 17.9 -43.6 Q16.0 -42.3 13.3 -41.65 L13.35 -42.1 16.65 -43.5 17.55 -44.3 17.85 -44.8" fill="#bdbdbd" fill-rule="evenodd" stroke="none"/>
    </g>
  </defs>
</svg>
