<?xml version="1.0" encoding="UTF-8" standalone="no"?>
<svg xmlns:xlink="http://www.w3.org/1999/xlink" height="531.5px" width="460.6px" xmlns="http://www.w3.org/2000/svg">
  <g transform="matrix(1.0, 0.0, 0.0, 1.0, 193.65, 334.05)">
    <use height="191.6" transform="matrix(1.0, 0.0, 0.0, 1.0, -73.5, -149.85)" width="199.3" xlink:href="#shape0"/>
    <use height="140.75" transform="matrix(1.1849, 1.2441, -1.2441, 1.1849, 97.6002, -227.0994)" width="111.3" xlink:href="#shape1"/>
    <use height="46.1" transform="matrix(1.0, 0.0, 0.0, 1.0, 86.9, -70.2)" width="38.9" xlink:href="#shape2"/>
  </g>
  <defs>
    <g id="shape0" transform="matrix(1.0, 0.0, 0.0, 1.0, 73.5, 149.85)">
      <path d="M17.7 -73.2 L21.15 -80.6 32.45 -103.9 Q36.1 -111.55 42.95 -127.3 49.3 -141.1 54.8 -149.85 L55.75 -149.45 Q56.05 -149.15 56.05 -148.15 56.05 -145.55 38.4 -109.9 L18.55 -70.6 18.1 -72.05 17.7 -73.2 M25.9 -22.6 L40.95 2.6 Q54.15 24.7 62.75 41.15 62.65 41.15 62.3 41.4 L61.6 41.75 38.05 2.9 Q29.35 -11.75 23.45 -23.45 24.65 -22.95 25.9 -22.6" fill="#33281e" fill-rule="evenodd" stroke="none"/>
      <path d="M18.55 -70.6 L18.6 -69.95 18.6 -69.65 18.65 -69.1 18.65 -69.0 21.4 -69.15 Q25.8 -68.9 28.3 -67.45 30.55 -66.15 30.4 -64.6 L30.45 -58.9 Q30.45 -57.1 29.75 -55.0 L28.8 -53.05 Q35.8 -51.15 37.75 -49.15 38.9 -47.95 38.9 -44.65 38.9 -42.2 38.15 -40.0 37.5 -38.15 36.45 -37.05 L35.95 -36.8 35.65 -36.65 34.5 -36.6 32.5 -36.5 31.95 -36.5 28.55 -36.7 Q26.4 -36.75 24.75 -37.9 L23.65 -38.55 19.95 -38.45 19.15 -38.25 19.25 -37.7 31.55 -35.5 32.15 -35.35 Q36.15 -34.2 36.15 -29.15 36.15 -26.75 35.75 -25.25 35.5 -23.7 34.1 -22.2 L32.3 -21.9 31.1 -21.85 Q28.45 -21.9 25.9 -22.6 24.65 -22.95 23.45 -23.45 L23.15 -23.55 23.0 -23.6 17.45 -25.0 16.55 -25.1 Q13.0 -25.05 10.35 -22.4 L1.75 -16.75 Q-11.95 -8.5 -28.35 -6.15 L-34.25 -5.85 -35.8 -5.85 Q-48.75 -5.85 -53.45 -9.15 L-54.0 -9.05 Q-59.45 -9.05 -65.4 -13.95 -69.85 -17.6 -70.6 -19.45 -73.15 -25.1 -73.4 -26.25 L-73.5 -31.45 Q-73.5 -40.95 -69.95 -48.85 -66.3 -57.05 -60.2 -60.45 L-59.85 -60.25 Q-59.7 -60.15 -59.7 -59.7 L-59.7 -59.55 -62.9 -56.2 Q-66.5 -51.65 -68.7 -45.55 -71.3 -38.15 -71.3 -31.3 -71.3 -20.1 -62.0 -14.9 -59.95 -13.75 -55.6 -12.15 L-55.55 -12.1 -55.8 -12.95 -55.85 -13.0 Q-57.25 -13.55 -58.8 -14.45 -62.6 -16.65 -62.6 -17.95 L-62.6 -18.05 Q-62.6 -22.6 -62.1 -24.25 L-61.25 -27.65 Q-60.5 -29.65 -59.45 -29.4 L-60.0 -27.8 -60.7 -25.05 -60.8 -22.9 -60.7 -20.85 -60.7 -20.7 Q-60.7 -17.6 -55.9 -15.75 -51.05 -13.95 -51.0 -12.95 L-51.2 -12.45 Q-51.4 -12.15 -52.0 -12.15 L-52.9 -12.2 Q-52.15 -11.65 -49.2 -10.15 -46.3 -8.65 -39.9 -8.45 -33.55 -8.25 -25.3 -8.85 -17.1 -9.45 -0.85 -17.55 L10.35 -24.95 Q12.4 -27.35 15.55 -27.25 L17.45 -27.2 20.25 -26.35 22.35 -25.55 23.15 -25.25 Q23.85 -25.0 24.6 -24.7 L25.1 -24.55 Q28.55 -23.5 32.1 -23.6 L33.2 -23.7 Q34.55 -24.9 34.55 -27.05 L34.65 -29.1 34.4 -31.7 Q33.8 -33.15 31.85 -33.7 L30.85 -33.9 Q28.05 -34.3 23.55 -35.45 20.45 -36.2 19.2 -36.7 L19.15 -36.75 18.5 -37.1 18.4 -37.15 Q18.0 -37.5 18.0 -38.2 L18.0 -38.25 17.65 -38.25 17.5 -38.4 Q18.1 -39.25 20.25 -40.05 L20.95 -40.35 21.75 -40.55 21.8 -40.55 23.0 -40.65 25.05 -39.45 Q26.65 -38.7 28.55 -38.45 L31.55 -38.3 32.65 -38.3 35.0 -38.8 Q35.75 -39.65 36.2 -41.25 36.7 -42.9 36.7 -44.6 36.7 -46.5 36.5 -46.9 35.9 -47.9 33.0 -49.4 L32.95 -49.45 27.6 -51.1 25.5 -51.9 22.4 -52.55 20.85 -52.4 15.0 -49.95 11.0 -48.35 Q10.6 -48.45 10.45 -48.65 11.0 -49.4 12.95 -50.45 L14.25 -51.25 14.25 -51.45 Q14.25 -53.1 14.6 -53.4 14.95 -53.8 17.6 -54.85 L17.2 -55.7 Q17.9 -55.8 18.4 -55.4 L19.1 -54.8 Q19.25 -54.65 19.9 -54.35 20.05 -54.25 20.25 -54.2 L20.85 -54.3 22.9 -54.5 26.3 -54.0 27.05 -53.75 27.8 -55.4 28.75 -58.0 28.8 -62.5 Q28.8 -65.1 28.1 -65.8 27.35 -66.55 25.95 -67.0 23.1 -68.0 17.4 -68.0 L17.15 -68.0 15.3 -67.85 12.55 -67.5 7.8 -66.75 7.25 -67.0 Q8.4 -67.85 9.9 -68.2 L15.75 -68.85 16.0 -68.9 17.2 -68.95 Q16.9 -69.25 16.75 -69.85 L16.6 -70.8 16.6 -71.25 Q16.35 -72.85 15.65 -73.15 L13.1 -73.3 12.8 -73.3 Q9.1 -73.2 3.35 -71.1 1.1 -70.25 -3.2 -68.3 -4.55 -67.65 -4.9 -66.6 L-5.05 -65.0 -5.15 -61.75 -5.1 -61.4 -5.05 -61.4 -5.05 -61.1 -5.05 -61.0 -1.7 -62.25 -2.65 -60.55 -3.0 -60.05 -4.65 -58.95 Q-8.45 -57.45 -13.3 -56.65 L-13.75 -56.6 -24.9 -56.0 -28.85 -56.2 -29.8 -56.2 -38.65 -55.8 Q-44.7 -55.15 -49.2 -52.55 -53.75 -50.0 -57.85 -48.05 -55.05 -52.4 -50.45 -54.85 L-46.55 -56.75 Q-44.05 -57.65 -42.4 -57.75 L-33.25 -58.35 -33.45 -59.45 -33.4 -59.7 -33.0 -60.15 -32.0 -58.6 -31.9 -58.4 -28.85 -58.6 Q-20.75 -58.2 -13.75 -58.85 L-13.3 -58.95 -11.45 -59.2 -8.35 -59.9 Q-6.85 -60.35 -6.65 -60.65 L-6.35 -60.95 -6.4 -61.25 -6.4 -61.3 -6.4 -61.5 -6.5 -62.0 -6.55 -63.1 -6.6 -66.55 Q-6.6 -68.4 -3.1 -70.3 0.15 -72.1 5.0 -73.3 L9.95 -74.65 11.3 -74.85 13.35 -75.05 13.65 -75.05 Q16.65 -75.1 17.45 -73.85 L17.6 -73.45 17.7 -73.2 18.1 -72.05 18.55 -70.6 M15.35 -51.85 L18.7 -53.55 18.1 -54.15 Q17.6 -53.7 16.2 -53.15 15.05 -52.6 15.2 -52.1 L15.35 -51.85" fill="#000000" fill-rule="evenodd" stroke="none"/>
      <path d="M-59.7 -59.7 L-58.1 -59.6 Q-59.85 -57.95 -61.35 -55.25 L-64.75 -48.2 Q-66.9 -44.0 -67.65 -39.75 -68.25 -36.45 -68.25 -30.95 -68.25 -26.75 -67.9 -25.8 L-64.5 -20.2 Q-63.85 -19.15 -62.6 -18.05 L-62.6 -17.95 Q-62.6 -16.65 -58.8 -14.45 -57.25 -13.55 -55.85 -13.0 L-55.8 -12.95 -55.55 -12.1 -55.6 -12.15 Q-59.95 -13.75 -62.0 -14.9 -71.3 -20.1 -71.3 -31.3 -71.3 -38.15 -68.7 -45.55 -66.5 -51.65 -62.9 -56.2 L-59.7 -59.55 -59.7 -59.7 M12.8 -73.3 L13.1 -73.3 15.65 -73.15 Q16.35 -72.85 16.6 -71.25 L16.6 -70.8 16.75 -69.85 Q16.9 -69.25 17.2 -68.95 L16.0 -68.9 15.85 -69.0 Q14.6 -69.8 13.85 -71.45 L12.8 -73.3 M25.95 -67.0 Q27.35 -66.55 28.1 -65.8 28.8 -65.1 28.8 -62.5 L28.75 -58.0 27.8 -55.4 27.05 -53.75 26.3 -54.0 26.65 -56.75 27.0 -60.45 Q27.0 -65.8 26.35 -66.65 L25.95 -67.0 M33.0 -49.4 Q35.9 -47.9 36.5 -46.9 36.7 -46.5 36.7 -44.6 36.7 -42.9 36.2 -41.25 35.75 -39.65 35.0 -38.8 L32.65 -38.3 33.0 -39.35 Q34.5 -43.45 34.5 -44.95 34.5 -48.0 33.0 -49.4 M31.85 -33.7 Q33.8 -33.15 34.4 -31.7 L34.65 -29.1 34.55 -27.05 Q34.55 -24.9 33.2 -23.7 L32.1 -23.6 32.2 -23.9 Q32.75 -25.4 32.75 -27.6 L32.15 -32.0 31.85 -33.7" fill="#bdbdbd" fill-rule="evenodd" stroke="none"/>
      <path d="M-58.1 -59.6 L-49.85 -59.75 -39.3 -60.15 -36.1 -60.1 -33.4 -59.7 -33.45 -59.45 -33.25 -58.35 -42.4 -57.75 Q-44.05 -57.65 -46.55 -56.75 L-50.45 -54.85 Q-55.05 -52.4 -57.85 -48.05 -53.75 -50.0 -49.2 -52.55 -44.7 -55.15 -38.65 -55.8 L-29.8 -56.2 -28.85 -56.2 -24.9 -56.0 -13.75 -56.6 -13.3 -56.65 Q-8.45 -57.45 -4.65 -58.95 L-3.0 -60.05 -2.65 -60.55 -1.7 -62.25 -5.05 -61.0 -5.05 -61.1 -5.05 -61.4 -5.1 -61.4 -5.15 -61.75 -5.05 -65.0 -4.9 -66.6 Q-4.55 -67.65 -3.2 -68.3 1.1 -70.25 3.35 -71.1 9.1 -73.2 12.8 -73.3 L13.85 -71.45 Q14.6 -69.8 15.85 -69.0 L16.0 -68.9 15.75 -68.85 9.9 -68.2 Q8.4 -67.85 7.25 -67.0 L7.8 -66.75 12.55 -67.5 15.3 -67.85 17.15 -68.0 17.4 -68.0 Q23.1 -68.0 25.95 -67.0 L26.35 -66.65 Q27.0 -65.8 27.0 -60.45 L26.65 -56.75 26.3 -54.0 22.9 -54.5 20.85 -54.3 20.25 -54.2 Q20.05 -54.25 19.9 -54.35 19.25 -54.65 19.1 -54.8 L18.4 -55.4 Q17.9 -55.8 17.2 -55.7 L17.6 -54.85 Q14.95 -53.8 14.6 -53.4 14.25 -53.1 14.25 -51.45 L14.25 -51.25 12.95 -50.45 Q11.0 -49.4 10.45 -48.65 10.6 -48.45 11.0 -48.35 L15.0 -49.95 20.85 -52.4 22.4 -52.55 25.5 -51.9 27.6 -51.1 32.95 -49.45 33.0 -49.4 Q34.5 -48.0 34.5 -44.95 34.5 -43.45 33.0 -39.35 L32.65 -38.3 31.55 -38.3 28.55 -38.45 Q26.65 -38.7 25.05 -39.45 L23.0 -40.65 21.8 -40.55 21.75 -40.55 20.95 -40.35 20.25 -40.05 Q18.1 -39.25 17.5 -38.4 L17.65 -38.25 18.0 -38.25 18.0 -38.2 Q18.0 -37.5 18.4 -37.15 L18.5 -37.1 19.15 -36.75 19.2 -36.7 Q20.45 -36.2 23.55 -35.45 28.05 -34.3 30.85 -33.9 L31.85 -33.7 32.15 -32.0 32.75 -27.6 Q32.75 -25.4 32.2 -23.9 L32.1 -23.6 Q28.55 -23.5 25.1 -24.55 L24.6 -24.7 Q23.85 -25.0 23.15 -25.25 L22.35 -25.55 20.25 -26.35 17.45 -27.2 15.55 -27.25 Q12.4 -27.35 10.35 -24.95 L-0.85 -17.55 Q-17.1 -9.45 -25.3 -8.85 -33.55 -8.25 -39.9 -8.45 -46.3 -8.65 -49.2 -10.15 -52.15 -11.65 -52.9 -12.2 L-52.0 -12.15 Q-51.4 -12.15 -51.2 -12.45 L-51.0 -12.95 Q-51.05 -13.95 -55.9 -15.75 -60.7 -17.6 -60.7 -20.7 L-60.7 -20.85 -60.8 -22.9 -60.7 -25.05 -60.0 -27.8 -59.45 -29.4 Q-60.5 -29.65 -61.25 -27.65 L-62.1 -24.25 Q-62.6 -22.6 -62.6 -18.05 -63.85 -19.15 -64.5 -20.2 L-67.9 -25.8 Q-68.25 -26.75 -68.25 -30.95 -68.25 -36.45 -67.65 -39.75 -66.9 -44.0 -64.75 -48.2 L-61.35 -55.25 Q-59.85 -57.95 -58.1 -59.6" fill="#999999" fill-rule="evenodd" stroke="none"/>
      <path d="M105.95 -74.8 L102.35 -75.2 97.75 -75.15 Q91.3 -75.4 89.85 -73.9 88.35 -72.4 88.25 -71.95 86.7 -69.0 86.0 -65.7 L85.3 -62.75 84.75 -60.95 84.5 -60.6 84.1 -61.6 83.0 -60.5 80.9 -58.5 Q78.85 -56.3 78.35 -54.6 77.6 -52.15 77.5 -50.55 L77.55 -47.0 Q77.55 -44.1 78.0 -41.65 78.35 -39.7 79.4 -35.85 L80.15 -33.1 Q80.8 -31.35 81.75 -30.3 83.1 -28.9 85.4 -27.7 88.55 -26.05 91.85 -26.0 L92.05 -26.0 96.25 -26.1 97.65 -26.25 99.55 -26.8 96.25 -28.45 93.55 -30.3 Q93.0 -30.95 93.0 -32.5 93.0 -34.5 93.85 -37.45 L94.65 -38.95 95.15 -39.65 94.55 -39.8 92.6 -38.65 Q89.9 -37.2 88.5 -37.2 87.8 -37.2 86.9 -37.65 87.2 -38.15 91.45 -39.7 L92.65 -40.45 Q91.2 -41.0 90.25 -41.65 88.55 -42.8 88.25 -44.4 88.1 -45.25 88.3 -46.45 88.2 -49.5 89.15 -51.85 90.45 -54.9 93.25 -54.5 L93.25 -55.2 93.35 -58.55 Q92.8 -58.75 92.15 -59.15 L90.25 -60.25 Q90.75 -61.4 93.2 -60.85 L93.55 -60.75 Q93.75 -62.5 94.15 -63.35 95.75 -66.7 100.7 -68.35 102.8 -69.05 105.5 -69.45 L109.45 -69.9 110.95 -70.05 110.9 -70.15 109.95 -72.2 Q108.75 -74.15 105.95 -74.8 M80.6 -60.4 Q82.9 -62.45 84.05 -62.65 L84.05 -62.75 Q84.65 -67.55 86.6 -72.05 L87.35 -73.75 88.25 -74.8 Q91.8 -77.3 96.25 -77.1 L97.75 -77.2 102.0 -77.2 103.75 -77.2 Q108.4 -77.15 111.05 -74.25 112.95 -72.2 113.0 -70.15 118.15 -70.3 119.9 -69.25 121.6 -68.2 122.15 -67.4 L122.75 -66.3 123.8 -63.6 Q124.65 -60.8 124.65 -58.65 L124.5 -57.2 124.55 -56.55 123.6 -53.95 123.5 -53.5 123.6 -53.45 Q123.65 -53.2 123.95 -53.1 L124.0 -53.1 Q125.15 -52.3 125.55 -50.0 125.9 -48.25 125.75 -46.35 125.75 -43.2 124.05 -41.4 123.05 -40.3 121.4 -39.55 L121.95 -38.7 122.25 -36.4 Q122.25 -28.4 119.05 -25.95 116.6 -24.1 109.25 -24.1 107.1 -24.1 102.55 -25.7 L102.15 -25.85 101.15 -25.95 101.0 -25.85 Q99.95 -24.3 91.9 -24.3 85.3 -24.3 80.45 -29.15 78.85 -30.75 77.8 -35.15 L76.35 -41.65 Q76.05 -43.35 76.05 -47.05 L76.05 -50.95 Q76.15 -52.55 76.9 -55.25 77.55 -57.7 80.6 -60.4 M120.5 -54.2 Q121.75 -54.9 122.4 -55.8 L123.15 -57.0 123.4 -58.35 123.3 -59.6 122.35 -63.75 121.85 -65.45 Q121.35 -66.85 119.3 -67.8 L118.4 -68.2 114.25 -68.85 105.65 -67.9 Q101.2 -66.75 99.3 -65.85 L98.95 -65.65 Q97.05 -64.7 96.4 -63.45 95.75 -62.25 95.45 -61.1 94.8 -58.0 95.4 -55.5 L95.6 -54.65 Q95.8 -53.85 96.45 -53.45 96.9 -53.1 98.3 -52.8 L99.05 -52.7 99.65 -52.6 99.8 -52.55 Q108.5 -51.9 115.5 -52.9 118.4 -53.25 119.8 -53.9 L120.5 -54.2 M120.5 -41.3 L122.5 -42.65 Q123.9 -44.0 123.9 -47.35 L123.6 -49.7 123.45 -50.9 123.4 -51.1 Q123.15 -52.2 122.15 -52.2 121.6 -52.2 121.15 -51.85 L121.1 -51.85 115.6 -51.0 110.65 -50.7 105.8 -50.7 101.7 -50.75 99.8 -50.85 95.5 -51.2 95.15 -51.3 Q95.05 -51.3 94.95 -51.4 L94.7 -51.45 Q94.2 -51.65 93.9 -52.05 L93.75 -52.35 93.05 -52.55 Q92.15 -52.7 91.15 -51.6 L90.3 -50.25 Q90.15 -49.7 90.15 -47.5 90.15 -45.55 90.4 -44.9 91.0 -43.35 93.2 -42.4 L93.95 -42.15 98.4 -41.2 107.5 -40.0 Q112.2 -39.6 115.1 -40.1 L119.55 -40.95 120.5 -41.3 M120.1 -37.35 L119.45 -38.2 Q118.9 -38.35 118.35 -38.6 L112.75 -38.15 99.35 -38.85 98.9 -38.95 97.05 -39.05 96.85 -38.95 96.65 -38.65 Q95.7 -37.4 95.65 -36.95 L95.25 -35.45 94.9 -33.8 95.1 -32.05 Q95.25 -31.4 95.6 -30.9 L96.25 -30.2 97.0 -29.75 Q98.25 -29.0 99.6 -28.35 103.65 -26.55 108.05 -26.35 L110.1 -26.35 112.0 -26.45 Q114.95 -26.45 116.85 -27.25 118.35 -27.95 119.1 -29.2 120.25 -31.05 120.25 -36.0 L120.1 -37.35" fill="#000000" fill-rule="evenodd" stroke="none"/>
      <path d="M109.45 -69.9 L105.5 -69.45 Q102.8 -69.05 100.7 -68.35 95.75 -66.7 94.15 -63.35 93.75 -62.5 93.55 -60.75 L93.2 -60.85 Q90.75 -61.4 90.25 -60.25 L92.15 -59.15 Q92.8 -58.75 93.35 -58.55 L93.25 -55.2 93.25 -54.5 Q90.45 -54.9 89.15 -51.85 88.2 -49.5 88.3 -46.45 88.1 -45.25 88.25 -44.4 88.55 -42.8 90.25 -41.65 91.2 -41.0 92.65 -40.45 L91.45 -39.7 Q87.2 -38.15 86.9 -37.65 87.8 -37.2 88.5 -37.2 89.9 -37.2 92.6 -38.65 L94.55 -39.8 95.15 -39.65 94.65 -38.95 93.85 -37.45 Q93.0 -34.5 93.0 -32.5 93.0 -30.95 93.55 -30.3 L96.25 -28.45 99.55 -26.8 97.65 -26.25 96.25 -26.1 92.05 -26.0 91.85 -26.0 Q88.55 -26.05 85.4 -27.7 83.1 -28.9 81.75 -30.3 80.8 -31.35 80.15 -33.1 L79.4 -35.85 Q78.35 -39.7 78.0 -41.65 77.55 -44.1 77.55 -47.0 L77.5 -50.55 Q77.6 -52.15 78.35 -54.6 78.85 -56.3 80.9 -58.5 L83.0 -60.5 84.1 -61.6 84.5 -60.6 84.75 -60.95 85.3 -62.75 86.0 -65.7 Q86.7 -69.0 88.25 -71.95 88.35 -72.4 89.85 -73.9 91.3 -75.4 97.75 -75.15 L102.35 -75.2 105.95 -74.8 Q107.2 -73.85 107.75 -72.2 108.3 -70.55 109.45 -69.9 M120.5 -54.2 L119.8 -53.9 Q118.4 -53.25 115.5 -52.9 108.5 -51.9 99.8 -52.55 L99.65 -52.6 99.05 -52.7 98.25 -55.25 98.2 -58.35 Q98.2 -63.0 99.3 -65.85 101.2 -66.75 105.65 -67.9 L114.25 -68.85 118.4 -68.2 Q119.4 -66.75 120.0 -64.15 120.8 -60.65 120.8 -55.95 L120.5 -54.2 M121.1 -51.85 Q121.6 -50.75 121.6 -49.35 121.6 -46.4 120.9 -43.25 L120.5 -41.3 119.55 -40.95 115.1 -40.1 Q112.2 -39.6 107.5 -40.0 L98.4 -41.2 93.95 -42.15 Q93.4 -43.4 93.4 -46.05 93.4 -49.95 94.1 -50.95 L94.7 -51.45 94.95 -51.4 Q95.05 -51.3 95.15 -51.3 L95.5 -51.2 99.8 -50.85 101.7 -50.75 105.8 -50.7 110.65 -50.7 115.6 -51.0 121.1 -51.85 M99.35 -38.85 L112.75 -38.15 118.35 -38.6 Q118.9 -38.35 119.45 -38.2 L120.1 -37.35 119.5 -35.75 Q118.5 -33.85 118.2 -32.75 117.65 -30.95 116.85 -27.25 114.95 -26.45 112.0 -26.45 L110.1 -26.35 108.05 -26.35 Q103.65 -26.55 99.6 -28.35 98.25 -29.0 97.0 -29.75 L97.0 -30.05 Q97.0 -31.5 98.3 -35.65 L99.35 -38.85" fill="#999999" fill-rule="evenodd" stroke="none"/>
      <path d="M109.45 -69.9 Q108.3 -70.55 107.75 -72.2 107.2 -73.85 105.95 -74.8 108.75 -74.15 109.95 -72.2 L110.9 -70.15 110.95 -70.05 109.45 -69.9 M118.4 -68.2 L119.3 -67.8 Q121.35 -66.85 121.85 -65.45 L122.35 -63.75 123.3 -59.6 123.4 -58.35 123.15 -57.0 122.4 -55.8 Q121.75 -54.9 120.5 -54.2 L120.8 -55.95 Q120.8 -60.65 120.0 -64.15 119.4 -66.75 118.4 -68.2 M99.05 -52.7 L98.3 -52.8 Q96.9 -53.1 96.45 -53.45 95.8 -53.85 95.6 -54.65 L95.4 -55.5 Q94.8 -58.0 95.45 -61.1 95.75 -62.25 96.4 -63.45 97.05 -64.7 98.95 -65.65 L99.3 -65.85 Q98.2 -63.0 98.2 -58.35 L98.25 -55.25 99.05 -52.7 M121.1 -51.85 L121.15 -51.85 Q121.6 -52.2 122.15 -52.2 123.15 -52.2 123.4 -51.1 L123.45 -50.9 123.6 -49.7 123.9 -47.35 Q123.9 -44.0 122.5 -42.65 L120.5 -41.3 120.9 -43.25 Q121.6 -46.4 121.6 -49.35 121.6 -50.75 121.1 -51.85 M93.95 -42.15 L93.2 -42.4 Q91.0 -43.35 90.4 -44.9 90.15 -45.55 90.15 -47.5 90.15 -49.7 90.3 -50.25 L91.15 -51.6 Q92.15 -52.7 93.05 -52.55 L93.75 -52.35 93.9 -52.05 Q94.2 -51.65 94.7 -51.45 L94.1 -50.95 Q93.4 -49.95 93.4 -46.05 93.4 -43.4 93.95 -42.15 M99.35 -38.85 L98.3 -35.65 Q97.0 -31.5 97.0 -30.05 L97.0 -29.75 96.25 -30.2 95.6 -30.9 Q95.25 -31.4 95.1 -32.05 L94.9 -33.8 95.25 -35.45 95.65 -36.95 Q95.7 -37.4 96.65 -38.65 L96.85 -38.95 97.05 -39.05 98.9 -38.95 99.35 -38.85 M116.85 -27.25 Q117.65 -30.95 118.2 -32.75 118.5 -33.85 119.5 -35.75 L120.1 -37.35 120.25 -36.0 Q120.25 -31.05 119.1 -29.2 118.35 -27.95 116.85 -27.25" fill="#bdbdbd" fill-rule="evenodd" stroke="none"/>
    </g>
    <g id="shape1" transform="matrix(1.0, 0.0, 0.0, 1.0, 67.95, 76.05)">
      <path d="M-16.5 -33.35 L-16.65 -33.7 Q-15.6 -35.05 -12.7 -35.65 L-4.0 -36.1 Q-0.45 -35.8 0.45 -33.85 L3.85 -24.8 2.7 -22.8 1.35 -23.65 1.8 -23.75 -0.65 -32.25 Q-2.3 -33.85 -5.55 -34.55 -10.7 -34.85 -14.45 -31.85 L-15.3 -32.5 -14.45 -31.85 -12.85 -30.6 -11.25 -29.35 -15.45 -26.9 -15.0 -29.2 Q-14.6 -31.7 -15.3 -32.5 L-15.75 -32.85 -15.8 -32.85 -16.5 -33.35 M41.1 8.9 L41.45 9.8 Q40.15 12.85 38.35 15.7 L39.7 18.8 38.45 18.3 37.05 17.6 38.35 15.7 37.05 17.6 36.0 18.8 35.2 19.65 33.25 21.35 31.0 22.9 30.5 22.0 Q36.95 18.35 41.1 8.9 M41.4 29.55 L41.4 29.75 41.1 31.9 40.8 33.4 40.75 33.55 40.7 33.65 39.3 35.15 Q38.4 35.75 36.55 35.95 34.85 36.1 32.8 36.85 L32.6 36.4 32.6 36.35 Q32.6 35.95 32.95 34.95 L34.85 30.95 Q35.45 28.65 34.8 25.8 L36.15 25.85 Q39.0 27.1 39.75 27.9 L41.4 29.55 M38.9 38.85 L38.65 39.4 38.45 39.95 38.05 40.95 38.0 40.85 37.25 40.75 Q36.2 40.4 35.45 41.05 L33.6 40.3 33.5 40.2 32.9 41.0 32.65 41.65 Q32.65 42.0 33.1 42.35 L34.1 42.9 33.8 43.75 Q32.6 43.25 32.25 42.95 31.55 42.4 31.55 41.75 L31.75 40.75 Q31.95 40.2 31.8 39.45 32.35 38.8 33.65 38.4 L33.85 39.1 Q33.85 39.5 34.8 39.6 L35.35 39.6 35.8 39.45 36.15 39.2 35.95 38.5 35.95 37.9 37.25 37.65 37.3 38.2 Q37.3 38.5 37.7 38.8 L38.3 39.1 38.9 38.85 M37.45 42.4 Q36.9 43.85 36.45 45.85 35.15 45.6 35.4 44.2 35.55 41.55 37.45 42.4 M36.2 47.2 Q35.9 49.3 36.05 51.25 L32.9 52.45 31.8 52.85 Q31.35 51.25 31.05 49.65 L30.8 46.4 30.85 44.5 33.25 46.3 Q35.0 47.3 36.2 47.2 M37.7 56.9 Q40.8 61.9 42.85 62.9 42.8 65.75 38.4 62.4 36.4 60.8 34.95 58.9 L36.7 57.65 36.75 57.6 37.7 56.9 M34.35 24.2 L33.8 22.9 Q35.35 22.3 35.35 21.35 L35.2 20.8 Q35.05 20.4 35.2 19.65 L36.0 20.3 Q36.35 20.65 36.35 20.95 L36.4 21.15 37.0 21.4 37.35 21.5 Q38.25 21.55 38.55 20.6 L38.6 20.1 38.85 20.25 39.45 20.7 39.55 20.95 39.45 21.15 38.85 22.35 39.35 22.85 39.85 23.65 39.9 24.15 39.75 24.8 39.0 25.55 37.9 24.9 Q38.6 24.65 38.6 23.5 L38.25 22.55 38.15 22.55 37.45 22.55 36.95 22.4 36.4 22.15 36.15 22.75 34.35 24.2 M-21.25 -21.7 L-22.5 -23.25 -20.5 -27.45 -20.65 -27.55 -20.45 -27.75 Q-19.05 -29.1 -18.5 -29.1 L-19.9 -29.7 -20.3 -29.9 -20.95 -30.1 -21.8 -30.3 -23.2 -29.85 -23.2 -30.65 -23.2 -31.0 -22.2 -31.3 -21.05 -31.5 -20.5 -31.35 -20.65 -32.6 Q-20.65 -33.65 -19.5 -34.3 L-19.3 -34.3 -19.2 -34.5 -18.75 -34.35 Q-18.3 -34.2 -17.8 -33.9 L-17.65 -33.85 Q-18.05 -33.85 -18.05 -33.7 L-18.15 -33.65 -18.3 -33.6 -18.45 -33.55 -19.0 -33.1 -19.3 -31.95 -19.1 -31.1 -19.1 -30.45 -17.65 -29.3 -17.05 -29.4 -16.4 -29.2 -16.55 -28.25 -18.6 -27.9 -19.65 -26.9 -20.5 -27.45 -19.65 -26.9 -20.75 -24.4 -19.6 -23.35 Q-20.15 -22.7 -6.25 -30.6 -4.15 -31.0 0.8 -24.9 L1.35 -23.65 -0.35 -22.05 -3.8 -26.5 Q-5.25 -28.5 -7.4 -27.35 L-20.05 -20.15 -20.05 -20.2 -21.25 -21.7 M-24.85 -29.8 L-25.5 -30.05 Q-29.5 -31.4 -32.6 -30.8 L-36.25 -29.5 -38.45 -28.8 -39.0 -28.7 -40.95 -28.2 -41.85 -28.0 -45.05 -27.5 -45.85 -27.5 -48.0 -27.45 -50.75 -27.6 -55.55 -28.55 -55.75 -28.6 -55.85 -28.65 -54.0 -32.6 -53.75 -32.55 -50.2 -32.55 -48.3 -32.8 -47.25 -32.95 -43.55 -33.95 -41.85 -34.5 -41.35 -34.65 -40.15 -35.1 Q-38.4 -35.8 -35.25 -36.35 L-33.35 -36.7 -31.45 -36.9 -31.35 -36.9 -31.35 -36.8 -30.6 -36.55 -28.9 -35.75 -27.55 -34.85 -26.75 -34.2 -25.7 -32.95 Q-24.55 -31.45 -24.75 -30.1 L-24.85 -29.8 M-62.1 -31.85 L-64.5 -33.95 -65.65 -35.25 Q-69.05 -39.5 -66.05 -39.45 -65.35 -38.05 -62.45 -36.05 L-59.9 -34.4 -62.1 -31.85 M-22.65 -35.7 L-20.9 -35.15 Q-23.05 -34.65 -23.8 -32.6 L-24.6 -33.75 -24.4 -34.15 -24.0 -34.95 -23.45 -35.35 -23.25 -35.45 -22.65 -35.7 M6.55 -21.55 Q6.1 -21.35 5.45 -21.8 L4.8 -22.25 4.45 -22.1 4.45 -21.95 4.2 -22.1 Q4.8 -22.7 5.45 -22.35 L6.55 -21.55 M1.0 -20.1 Q1.15 -20.55 1.65 -20.5 L2.3 -20.3 2.55 -19.95 Q2.55 -19.35 2.1 -19.35 L1.0 -20.1 M2.6 -20.2 Q2.35 -20.55 1.6 -20.55 L-0.45 -20.35 -0.65 -20.4 -0.75 -20.7 -0.65 -20.9 1.6 -20.95 2.7 -20.75 2.9 -20.45 2.6 -20.2 M0.65 -16.8 L-1.1 -16.7 Q-2.4 -16.7 -2.65 -16.35 L-3.0 -16.45 Q-2.9 -17.05 -2.2 -17.15 L-0.8 -17.15 0.5 -17.1 0.65 -16.8 M-50.75 -27.6 L-50.2 -32.55 -50.75 -27.6 M-18.1 -25.8 L-17.7 -25.5 -17.8 -25.45 -18.1 -25.8 M-1.4 -18.1 Q-1.4 -17.6 -1.75 -17.65 L-2.65 -17.95 -2.7 -18.1 -1.95 -18.55 Q-1.75 -18.55 -1.65 -18.35 L-1.4 -18.1 M-0.45 -15.65 L-1.1 -15.05 -1.7 -14.95 -1.95 -15.3 Q-1.95 -15.85 -1.35 -16.05 L-0.6 -16.25 -0.45 -15.65 M27.6 1.6 L27.45 2.4 26.8 2.4 Q26.3 2.4 26.3 1.7 26.3 0.9 27.1 0.9 L27.45 1.2 27.6 1.6 M25.85 1.3 L25.55 1.6 25.3 1.55 25.2 1.25 25.15 0.1 Q25.15 -0.65 25.6 -1.1 L25.85 0.8 25.85 1.3 M23.65 2.65 L23.8 2.35 23.7 2.15 23.3 2.6 23.65 2.65 M24.0 3.05 L22.5 4.35 22.3 4.3 22.25 4.05 22.35 3.5 22.7 2.55 23.65 1.7 24.15 2.45 24.0 3.05 M22.35 1.95 L22.4 2.85 21.25 7.0 21.15 6.85 21.4 5.2 Q21.4 4.6 21.75 3.35 22.0 2.2 22.2 2.0 L22.35 1.95 M20.6 4.95 Q19.45 3.95 19.5 3.35 19.9 3.05 20.2 3.05 20.5 3.1 20.95 3.45 L21.3 4.05 Q21.3 4.75 20.6 4.95" fill="#ffffff" fill-rule="evenodd" stroke="none"/>
      <path d="M3.85 -24.8 Q4.7 -24.85 5.55 -23.95 L7.25 -20.2 6.15 -19.4 5.6 -19.95 3.7 -18.45 2.1 -16.85 1.35 -16.1 1.25 -16.1 1.2 -16.1 1.2 -16.0 1.2 -15.95 1.15 -15.85 0.3 -14.85 0.25 -14.9 0.0 -14.85 -0.15 -14.7 -0.1 -14.5 -0.05 -14.45 -0.8 -13.5 -0.95 -13.5 -1.0 -13.4 -1.0 -13.35 -0.95 -13.3 -1.4 -12.65 -2.25 -11.45 -1.7 -12.35 -4.65 -14.2 Q-5.25 -14.75 -5.2 -15.35 -5.2 -15.9 -4.65 -16.5 L-3.05 -18.85 -0.35 -22.05 1.35 -23.65 2.7 -22.8 3.85 -24.8 M9.25 -18.9 L10.15 -19.25 14.05 -19.85 Q16.15 -19.15 15.95 -17.15 L14.75 -13.4 12.95 -9.25 11.15 -9.95 10.6 -10.5 10.6 -10.55 9.9 -11.65 8.75 -16.15 8.55 -16.95 8.55 -17.05 8.55 -17.5 8.85 -18.5 9.0 -18.65 9.25 -18.9 M10.0 -9.4 L10.6 -8.45 10.6 -8.4 11.15 -7.85 12.95 -7.15 14.75 -11.3 15.85 -10.8 16.85 -9.65 17.05 -9.3 18.2 -9.75 19.1 -9.65 20.05 -9.05 22.0 -5.55 22.05 -5.2 Q22.1 -4.6 21.6 -4.2 L21.3 -4.0 20.65 -3.8 19.4 -3.5 19.35 -3.5 15.2 -6.8 14.85 -6.3 13.95 -6.0 14.2 -5.5 14.25 -5.45 14.25 -5.4 13.35 -4.1 12.35 -2.6 12.25 -2.55 12.25 -2.5 11.2 -0.95 Q10.8 -1.1 10.35 -1.4 L9.1 -2.9 8.75 -3.5 7.7 -3.95 7.0 -4.5 Q6.3 -5.2 6.05 -6.3 L7.2 -7.15 9.7 -9.15 10.0 -9.4 M24.6 -3.25 L29.3 -0.25 Q30.3 0.75 30.0 1.05 L29.95 1.05 29.3 2.55 24.65 -3.2 29.3 2.55 29.3 2.6 28.6 3.55 27.0 4.7 22.1 8.2 21.0 8.55 Q20.5 8.5 19.95 8.1 L16.8 3.7 16.5 3.95 18.0 2.65 18.95 1.85 20.35 0.55 21.45 -0.4 22.35 -1.2 23.4 -2.1 24.65 -3.2 24.6 -3.25 M12.55 -17.35 L12.95 -15.0 13.0 -14.65 13.0 -13.75 Q12.9 -12.1 12.25 -10.25 12.9 -12.1 13.0 -13.75 L13.0 -14.65 12.95 -15.0 12.55 -17.35 M2.6 -20.2 L2.9 -20.45 2.7 -20.75 1.6 -20.95 -0.65 -20.9 -0.75 -20.7 -0.65 -20.4 -0.45 -20.35 1.6 -20.55 Q2.35 -20.55 2.6 -20.2 M1.0 -20.1 L2.1 -19.35 Q2.55 -19.35 2.55 -19.95 L2.3 -20.3 1.65 -20.5 Q1.15 -20.55 1.0 -20.1 M6.55 -21.55 L5.45 -22.35 Q4.8 -22.7 4.2 -22.1 L4.45 -21.95 4.45 -22.1 4.8 -22.25 5.45 -21.8 Q6.1 -21.35 6.55 -21.55 M0.65 -16.8 L0.5 -17.1 -0.8 -17.15 -2.2 -17.15 Q-2.9 -17.05 -3.0 -16.45 L-2.65 -16.35 Q-2.4 -16.7 -1.1 -16.7 L0.65 -16.8 M2.7 -22.8 L5.6 -19.95 2.7 -22.8 M17.05 -9.3 L13.95 -8.1 14.2 -7.6 14.45 -7.35 8.75 -3.5 14.45 -7.35 14.2 -7.6 13.95 -8.1 17.05 -9.3 M14.45 -7.35 L15.2 -6.8 14.45 -7.35 M-0.45 -15.65 L-0.6 -16.25 -1.35 -16.05 Q-1.95 -15.85 -1.95 -15.3 L-1.7 -14.95 -1.1 -15.05 -0.45 -15.65 M-1.4 -18.1 L-1.65 -18.35 Q-1.75 -18.55 -1.95 -18.55 L-2.7 -18.1 -2.65 -17.95 -1.75 -17.65 Q-1.4 -17.6 -1.4 -18.1 M20.6 4.95 Q21.3 4.75 21.3 4.05 L20.95 3.45 Q20.5 3.1 20.2 3.05 19.9 3.05 19.5 3.35 19.45 3.95 20.6 4.95 M22.35 1.95 L22.2 2.0 Q22.0 2.2 21.75 3.35 21.4 4.6 21.4 5.2 L21.15 6.85 21.25 7.0 22.4 2.85 22.35 1.95 M24.0 3.05 L24.15 2.45 23.65 1.7 22.7 2.55 22.35 3.5 22.25 4.05 22.3 4.3 22.5 4.35 24.0 3.05 M23.65 2.65 L23.3 2.6 23.7 2.15 23.8 2.35 23.65 2.65 M25.85 1.3 L25.85 0.8 25.6 -1.1 Q25.15 -0.65 25.15 0.1 L25.2 1.25 25.3 1.55 25.55 1.6 25.85 1.3 M27.6 1.6 L27.45 1.2 27.1 0.9 Q26.3 0.9 26.3 1.7 26.3 2.4 26.8 2.4 L27.45 2.4 27.6 1.6" fill="#ff0000" fill-rule="evenodd" stroke="none"/>
      <path d="M8.55 -15.4 L8.55 -14.85 8.6 -14.65 7.75 -14.9 8.55 -15.4 M8.9 -13.45 L8.95 -13.15 1.25 -15.85 1.2 -15.95 1.2 -16.0 1.2 -16.1 1.25 -16.1 1.35 -16.1 8.9 -13.45 M9.3 -11.85 L9.5 -11.25 0.1 -14.4 -0.05 -14.45 -0.1 -14.5 -0.15 -14.7 0.0 -14.85 0.25 -14.9 0.3 -14.85 9.3 -11.85 M9.75 -10.2 L9.8 -9.9 -0.85 -13.25 -0.95 -13.3 -1.0 -13.35 -1.0 -13.4 -0.95 -13.5 -0.8 -13.5 9.75 -10.2 M22.05 -5.2 L22.25 -5.05 23.0 -4.5 Q21.2 -3.1 23.4 -2.1 L22.35 -1.2 20.65 -3.8 21.3 -4.0 21.6 -4.2 Q22.1 -4.6 22.05 -5.2 M30.0 1.05 L39.7 3.9 Q41.1 5.5 40.8 6.55 L40.7 6.85 40.25 7.6 39.05 9.1 39.2 10.8 37.1 14.0 32.15 19.5 30.0 21.25 28.5 22.05 Q25.85 21.85 23.35 15.8 22.15 12.85 21.0 8.55 L22.1 8.2 27.0 4.7 28.6 3.55 29.3 2.6 35.3 5.5 37.55 6.9 Q38.5 7.25 39.0 9.0 38.5 7.25 37.55 6.9 L35.3 5.5 29.3 2.6 29.3 2.55 29.95 1.05 30.0 1.05 M14.4 2.35 L13.7 1.65 13.45 2.65 13.15 2.5 Q12.45 1.3 11.05 0.8 10.15 1.05 10.0 1.7 10.0 1.1 9.4 0.7 8.05 -0.2 6.9 0.7 L6.75 0.8 5.4 -0.4 6.35 -1.05 9.05 0.45 8.35 -0.7 8.0 -1.45 8.55 -1.05 10.35 -1.4 Q10.8 -1.1 11.2 -0.95 L13.15 1.1 13.15 0.15 14.55 0.05 Q15.55 -1.05 14.05 -1.75 14.2 -2.5 13.6 -3.0 13.0 -3.5 12.35 -2.6 L13.35 -4.1 16.3 0.2 15.85 1.35 15.5 0.8 Q14.55 1.2 14.4 2.35 M-2.2 -9.75 L-0.75 -10.7 -2.25 -11.45 -1.4 -12.65 3.4 -11.15 2.45 -10.95 2.05 -10.5 Q0.9 -12.0 -0.2 -11.5 L0.45 -10.05 1.1 -9.75 -2.2 -9.75 M-5.2 -15.35 L-12.6 -13.0 Q-14.95 -12.45 -15.5 -15.85 L-18.9 -17.4 Q-23.2 -19.9 -21.25 -21.7 L-20.05 -20.2 -20.05 -20.15 -7.4 -27.35 Q-5.25 -28.5 -3.8 -26.5 L-0.35 -22.05 -3.05 -18.85 -4.65 -16.5 Q-5.2 -15.9 -5.2 -15.35 M2.1 -16.85 L3.7 -18.45 Q4.25 -16.6 6.0 -17.3 5.45 -16.3 5.9 -15.55 L2.1 -16.85 M-0.75 -10.7 L0.45 -10.05 -0.75 -10.7 M9.95 -0.2 Q9.15 -0.6 8.55 -1.05 9.15 -0.6 9.95 -0.2 M13.7 1.65 L13.15 1.1 13.7 1.65 M-4.55 -19.8 L-3.05 -18.85 -4.55 -19.8 M-13.2 -16.05 L-15.5 -15.85 -13.2 -16.05 M39.0 9.0 L39.0 9.15 39.05 9.1 39.0 9.0 M29.55 6.45 L27.0 4.7 29.55 6.45" fill="#000000" fill-rule="evenodd" stroke="none"/>
      <path d="M8.75 -16.15 L8.55 -15.4 7.75 -14.9 5.9 -15.55 Q5.45 -16.3 6.0 -17.3 4.25 -16.6 3.7 -18.45 L5.6 -19.95 6.15 -19.4 8.55 -17.05 8.55 -16.95 8.75 -16.15 M23.0 -4.5 L24.6 -3.25 24.65 -3.2 23.4 -2.1 Q21.2 -3.1 23.0 -4.5 M36.05 51.25 Q36.6 51.9 36.25 52.75 37.5 53.5 37.1 55.05 L37.0 55.4 Q37.65 55.6 37.7 56.85 L37.6 56.75 37.7 56.9 36.75 57.6 36.7 57.65 Q36.05 58.0 34.05 55.45 L32.9 52.45 36.05 51.25 M33.15 56.1 L28.9 60.65 Q27.95 60.95 27.45 60.4 L26.0 58.7 Q30.05 58.25 33.15 56.1 M20.85 55.25 L19.75 52.15 Q19.65 50.4 22.2 49.85 L31.8 52.85 Q31.75 53.4 31.85 53.8 L23.0 53.5 20.85 55.25 M13.15 3.7 L12.95 4.4 Q12.05 5.7 9.9 4.55 L6.55 2.6 Q6.05 1.4 6.75 0.8 L6.9 0.7 Q8.05 -0.2 9.4 0.7 10.0 1.1 10.0 1.7 10.15 1.05 11.05 0.8 12.45 1.3 13.15 2.5 L13.15 3.7 M-57.4 -17.85 L-60.35 -18.85 Q-61.3 -19.7 -60.9 -20.7 L-60.5 -21.9 -58.2 -28.65 -57.95 -29.45 -57.15 -28.8 -56.85 -28.7 Q-54.85 -24.6 -55.9 -19.6 L-57.4 -17.85 M-63.1 -24.1 L-63.95 -24.8 Q-64.5 -25.3 -64.2 -26.2 L-59.2 -30.05 -58.75 -29.8 -58.6 -29.7 -61.0 -25.25 -63.1 -24.1 M-60.1 -30.5 L-61.0 -30.65 Q-61.8 -30.95 -62.1 -31.85 L-59.9 -34.4 -59.75 -34.3 -59.85 -34.4 Q-58.55 -34.3 -58.3 -33.65 -56.4 -34.2 -55.55 -32.85 -55.15 -31.3 -56.9 -30.65 -57.65 -31.5 -58.55 -31.35 L-60.2 -30.85 -60.1 -30.5 M3.4 -11.15 L5.25 -10.55 5.35 -10.5 Q5.85 -9.8 5.35 -9.4 6.45 -9.6 7.2 -8.8 7.8 -8.05 7.2 -7.15 L6.05 -6.3 4.45 -7.9 3.6 -8.35 4.45 -7.9 6.05 -6.3 Q6.3 -5.2 7.0 -4.5 5.85 -3.65 4.9 -4.9 4.25 -5.55 4.55 -6.35 3.0 -6.05 2.15 -7.25 1.85 -8.15 2.5 -8.35 L2.8 -8.4 3.6 -8.35 1.8 -9.3 Q1.7 -10.0 2.05 -10.5 L2.45 -10.95 3.4 -11.15 M11.2 -0.95 L12.25 -2.5 12.25 -2.55 12.35 -2.6 Q13.0 -3.5 13.6 -3.0 14.2 -2.5 14.05 -1.75 15.55 -1.05 14.55 0.05 L13.15 0.15 13.15 1.1 11.2 -0.95 M-59.1 -20.65 Q-57.15 -24.65 -58.2 -28.65 -57.15 -24.65 -59.1 -20.65" fill="#ff9ec6" fill-rule="evenodd" stroke="none"/>
      <path d="M7.25 -20.2 L8.1 -20.85 9.25 -18.9 9.0 -18.65 8.85 -18.5 8.55 -17.5 8.55 -17.05 6.15 -19.4 7.25 -20.2 M8.6 -14.65 L8.9 -13.45 1.35 -16.1 2.1 -16.85 5.9 -15.55 7.75 -14.9 8.6 -14.65 M8.95 -13.15 L9.3 -11.85 0.3 -14.85 1.15 -15.85 1.2 -15.95 1.25 -15.85 8.95 -13.15 M9.5 -11.25 L9.75 -10.2 -0.8 -13.5 -0.05 -14.45 0.1 -14.4 9.5 -11.25 M9.8 -9.9 L9.9 -9.55 10.0 -9.4 9.7 -9.15 7.2 -7.15 Q7.8 -8.05 7.2 -8.8 6.45 -9.6 5.35 -9.4 5.85 -9.8 5.35 -10.5 L5.25 -10.55 3.4 -11.15 -1.4 -12.65 -0.95 -13.3 -0.85 -13.25 9.8 -9.9 M16.5 3.95 L16.2 4.2 Q16.4 2.45 15.85 1.35 L16.3 0.2 13.35 -4.1 14.25 -5.4 14.25 -5.45 14.2 -5.5 13.95 -6.0 14.85 -6.3 15.2 -6.8 19.35 -3.5 19.4 -3.5 20.65 -3.8 22.35 -1.2 21.45 -0.4 19.4 -3.5 21.45 -0.4 20.35 0.55 18.95 1.85 18.0 2.65 16.3 0.2 18.0 2.65 16.5 3.95 M13.45 2.65 L13.15 3.7 13.15 2.5 13.45 2.65 M3.65 0.55 L0.45 -2.05 0.25 -2.25 -2.25 -4.55 -2.45 -4.8 -3.6 -5.95 -3.85 -6.15 Q-4.55 -7.05 -4.0 -8.25 L-3.65 -8.85 -2.2 -9.75 1.1 -9.75 1.8 -9.3 3.6 -8.35 2.8 -8.4 2.5 -8.35 Q1.85 -8.15 2.15 -7.25 3.0 -6.05 4.55 -6.35 4.25 -5.55 4.9 -4.9 5.85 -3.65 7.0 -4.5 L7.7 -3.95 8.75 -3.5 9.1 -2.9 10.35 -1.4 8.55 -1.05 8.0 -1.45 6.15 -2.8 6.1 -2.85 9.1 -2.9 6.1 -2.85 4.2 -4.2 -1.25 -7.6 Q-1.6 -7.1 -1.4 -6.45 L-0.95 -5.45 -0.8 -5.3 -0.35 -4.75 6.35 -1.05 5.4 -0.4 Q4.25 -1.3 2.9 -1.8 2.6 -0.6 3.65 0.55 M5.25 -10.55 L5.4 -10.55 9.7 -9.15 5.4 -10.55 5.25 -10.55 M14.25 -5.4 L18.95 1.85 14.25 -5.4 M-2.45 -4.8 L-0.8 -5.3 -2.45 -4.8 M-3.85 -6.15 L-1.4 -6.45 -3.85 -6.15 M-4.0 -8.25 L2.5 -8.35 -4.0 -8.25 M16.65 -4.7 L20.35 0.55 16.65 -4.7" fill="#ddbd86" fill-rule="evenodd" stroke="none"/>
      <path d="M39.7 18.8 L40.5 21.7 39.45 20.7 38.85 20.25 38.6 20.1 Q37.15 19.1 36.0 18.8 L37.05 17.6 38.45 18.3 39.7 18.8 M41.45 28.0 L41.4 29.55 39.75 27.9 Q39.0 27.1 36.15 25.85 L34.8 25.8 34.5 24.75 37.9 24.9 39.0 25.55 39.2 25.7 Q41.3 27.3 41.45 28.0 M40.6 34.2 L40.0 36.3 39.9 36.6 37.25 37.65 35.95 37.9 35.45 37.95 33.65 38.4 Q32.35 38.8 31.8 39.45 L31.55 39.85 31.85 38.75 31.9 38.55 31.95 38.4 31.95 38.35 32.0 38.2 32.6 36.4 32.8 36.85 Q34.85 36.1 36.55 35.95 38.4 35.75 39.3 35.15 L40.7 33.65 40.8 33.5 40.6 34.2 M38.05 40.95 L37.85 41.4 37.45 42.4 Q35.55 41.55 35.4 44.2 35.15 45.6 36.45 45.85 L36.45 45.95 36.25 46.9 36.2 47.2 Q35.0 47.3 33.25 46.3 L30.85 44.5 30.9 43.4 30.95 42.65 31.25 42.55 Q31.75 44.15 33.75 45.4 L34.2 45.6 Q33.65 44.7 33.8 43.75 L34.1 42.9 34.2 42.65 Q34.35 42.1 35.2 41.25 L35.45 41.05 Q36.2 40.4 37.25 40.75 L38.0 40.85 38.05 40.95 M-23.2 -29.1 L-23.65 -29.25 -24.85 -29.8 -24.75 -30.1 Q-24.55 -31.45 -25.7 -32.95 L-26.75 -34.2 -25.75 -35.1 -24.75 -33.95 -24.6 -33.75 -23.8 -32.6 -23.2 -31.0 -23.2 -30.65 -23.2 -29.85 -23.2 -29.1 M-17.0 -33.55 L-16.75 -33.45 -16.5 -33.35 -15.8 -32.85 -15.75 -32.85 -15.3 -32.5 Q-14.6 -31.7 -15.0 -29.2 L-15.45 -26.9 -17.7 -25.5 -18.1 -25.8 -17.75 -26.2 Q-16.85 -27.0 -16.55 -28.25 L-16.4 -29.2 -16.35 -29.7 Q-16.3 -32.0 -17.0 -33.55 M32.0 38.2 L31.95 38.4 32.0 38.2" fill="#d6c4af" fill-rule="evenodd" stroke="none"/>
      <path d="M40.5 21.7 L40.65 22.15 40.85 23.05 40.9 23.4 40.95 23.55 41.05 24.2 41.05 24.35 41.1 24.6 41.45 28.0 Q41.3 27.3 39.2 25.7 L39.0 25.55 39.75 24.8 39.9 24.15 39.85 23.65 39.35 22.85 38.85 22.35 39.45 21.15 39.55 20.95 39.45 20.7 40.5 21.7 M39.9 36.6 L39.15 38.25 38.9 38.85 38.3 39.1 37.7 38.8 Q37.3 38.5 37.3 38.2 L37.25 37.65 39.9 36.6 M31.1 42.0 L31.55 39.85 31.8 39.45 Q31.95 40.2 31.75 40.75 L31.55 41.75 Q31.55 42.4 32.25 42.95 32.6 43.25 33.8 43.75 33.65 44.7 34.2 45.6 L33.75 45.4 Q31.75 44.15 31.25 42.55 L31.1 42.0 M34.5 24.75 L34.35 24.2 36.15 22.75 36.4 22.15 36.95 22.4 37.45 22.55 38.15 22.55 38.25 22.55 38.6 23.5 Q38.6 24.65 37.9 24.9 L34.5 24.75 M33.8 22.9 L33.45 22.0 33.25 21.35 35.2 19.65 36.0 18.8 Q37.15 19.1 38.6 20.1 L38.55 20.6 Q38.25 21.55 37.35 21.5 L37.0 21.4 36.4 21.15 36.35 20.95 Q36.35 20.65 36.0 20.3 L35.2 19.65 Q35.05 20.4 35.2 20.8 L35.35 21.35 Q35.35 22.3 33.8 22.9 M-20.65 -27.55 L-21.5 -28.15 -23.2 -29.1 -23.2 -29.85 -21.8 -30.3 -20.95 -30.1 -20.3 -29.9 -19.9 -29.7 -18.5 -29.1 Q-19.05 -29.1 -20.45 -27.75 L-20.65 -27.55 M-28.1 -36.75 L-28.0 -36.75 -22.65 -35.7 -23.25 -35.45 -23.45 -35.35 -24.0 -34.95 -24.4 -34.15 -24.6 -33.75 -24.75 -33.95 -25.75 -35.1 -28.1 -36.75 M-20.9 -35.15 L-19.8 -34.75 -19.2 -34.5 -19.3 -34.3 -19.5 -34.3 Q-20.65 -33.65 -20.65 -32.6 L-20.5 -31.35 -21.05 -31.5 -22.2 -31.3 -23.2 -31.0 -23.8 -32.6 Q-23.05 -34.65 -20.9 -35.15 M-17.65 -33.85 L-17.0 -33.55 Q-16.3 -32.0 -16.35 -29.7 L-16.4 -29.2 -17.05 -29.4 -17.65 -29.3 -19.1 -30.45 -19.1 -31.1 -19.3 -31.95 -19.0 -33.1 -18.45 -33.55 -18.3 -33.6 -18.15 -33.65 -18.05 -33.7 Q-18.05 -33.85 -17.65 -33.85 M-16.55 -28.25 Q-16.85 -27.0 -17.75 -26.2 L-18.1 -25.8 -19.65 -26.9 -18.6 -27.9 -16.55 -28.25 M35.95 37.9 L35.95 38.5 36.15 39.2 35.8 39.45 35.35 39.6 34.8 39.6 Q33.85 39.5 33.85 39.1 L33.65 38.4 35.45 37.95 35.95 37.9 M34.1 42.9 L33.1 42.35 Q32.65 42.0 32.65 41.65 L32.9 41.0 33.5 40.2 33.6 40.3 35.45 41.05 35.2 41.25 Q34.35 42.1 34.2 42.65 L34.1 42.9" fill="#e5dcbb" fill-rule="evenodd" stroke="none"/>
      <path d="M16.2 4.2 L16.2 4.25 14.4 2.35 Q14.55 1.2 15.5 0.8 L15.85 1.35 Q16.4 2.45 16.2 4.2 M6.55 2.6 L3.65 0.55 Q2.6 -0.6 2.9 -1.8 4.25 -1.3 5.4 -0.4 L6.75 0.8 Q6.05 1.4 6.55 2.6 M2.05 -10.5 Q1.7 -10.0 1.8 -9.3 L1.1 -9.75 0.45 -10.05 -0.2 -11.5 Q0.9 -12.0 2.05 -10.5" fill="#35ad47" fill-rule="evenodd" stroke="none"/>
      <path d="M6.1 -2.85 L6.15 -2.8 8.0 -1.45 8.35 -0.7 9.05 0.45 6.35 -1.05 -0.35 -4.75 -0.8 -5.3 -0.95 -5.45 -1.4 -6.45 Q-1.6 -7.1 -1.25 -7.6 L4.2 -4.2 6.1 -2.85" fill="#b69151" fill-rule="evenodd" stroke="none"/>
      <path d="M40.25 7.6 L41.1 8.9 Q36.95 18.35 30.5 22.0 L30.0 21.25 32.15 19.5 37.1 14.0 39.2 10.8 39.05 9.1 40.25 7.6 M-14.45 -31.85 Q-10.7 -34.85 -5.55 -34.55 -2.3 -33.85 -0.65 -32.25 L1.8 -23.75 1.35 -23.65 0.8 -24.9 -1.7 -30.6 Q-2.85 -32.5 -5.05 -32.4 -2.85 -32.5 -1.7 -30.6 L0.8 -24.9 Q-4.15 -31.0 -6.25 -30.6 -20.15 -22.7 -19.6 -23.35 L-20.75 -24.4 -19.65 -26.9 -18.1 -25.8 -17.8 -25.45 -17.7 -25.5 -15.45 -26.9 -11.25 -29.35 -12.85 -30.6 -14.45 -31.85 M-5.1 -32.4 L-6.65 -32.1 -11.25 -29.35 -6.65 -32.1 -5.1 -32.4 -5.05 -32.4 -5.1 -32.4 M-10.45 -31.95 L-12.85 -30.6 -10.45 -31.95 M-19.55 -24.45 L-17.8 -25.45 -19.55 -24.45" fill="#c2c1db" fill-rule="evenodd" stroke="none"/>
      <path d="M34.95 58.9 Q33.55 58.4 33.6 57.0 L33.15 56.1 32.9 55.65 32.55 54.9 31.9 54.1 31.85 53.8 31.9 54.1 32.55 54.9 32.9 55.65 33.15 56.1 Q30.05 58.25 26.0 58.7 L24.5 57.0 23.2 57.35 Q22.15 57.7 21.3 56.75 L20.85 55.25 23.0 53.5 31.85 53.8 Q31.75 53.4 31.8 52.85 L32.9 52.45 34.05 55.45 Q36.05 58.0 36.7 57.65 L34.95 58.9 M-55.85 -28.65 L-53.0 -19.45 Q-53.65 -17.1 -55.5 -17.25 L-57.4 -17.85 -55.9 -19.6 Q-54.85 -24.6 -56.85 -28.7 L-57.15 -28.8 -57.95 -29.45 -58.2 -28.65 -60.5 -21.9 -63.1 -24.1 -61.0 -25.25 -58.6 -29.7 -57.95 -29.45 -58.6 -29.7 -58.75 -29.8 -59.2 -30.05 -60.1 -30.5 -60.2 -30.85 -58.55 -31.35 Q-57.65 -31.5 -56.9 -30.65 -55.15 -31.3 -55.55 -32.85 -54.6 -33.15 -54.0 -32.6 L-55.85 -28.65 -56.85 -28.7 -55.85 -28.65 M24.5 57.0 L31.7 55.1 32.55 54.9 31.7 55.1 24.5 57.0 M23.2 55.65 Q27.55 53.95 31.7 55.1 27.55 53.95 23.2 55.65" fill="#e05f94" fill-rule="evenodd" stroke="none"/>
      <path d="M-16.5 -33.35 L-16.65 -33.7 Q-15.6 -35.05 -12.7 -35.65 L-4.0 -36.1 Q-0.45 -35.8 0.45 -33.85 L3.85 -24.8 Q4.7 -24.85 5.55 -23.95 L7.25 -20.2 8.1 -20.85 9.25 -18.9 10.15 -19.25 14.05 -19.85 Q16.15 -19.15 15.95 -17.15 L14.75 -13.4 12.95 -9.25 11.15 -9.95 10.6 -10.5 10.6 -10.55 9.9 -11.65 8.75 -16.15 8.55 -16.95 8.55 -17.05 8.55 -17.5 8.85 -18.5 9.0 -18.65 9.25 -18.9 M15.85 -10.8 L16.85 -9.65 M17.05 -9.3 L18.2 -9.75 19.1 -9.65 20.05 -9.05 22.0 -5.55 22.05 -5.2 Q22.1 -4.6 21.6 -4.2 L21.3 -4.0 20.65 -3.8 19.4 -3.5 19.35 -3.5 15.2 -6.8 14.45 -7.35 14.2 -7.6 13.95 -8.1 17.05 -9.3 M22.25 -5.05 L23.0 -4.5 24.6 -3.25 29.3 -0.25 Q30.3 0.75 30.0 1.05 L39.7 3.9 Q41.1 5.5 40.8 6.55 L40.7 6.85 40.25 7.6 41.1 8.9 41.45 9.8 Q40.15 12.85 38.35 15.7 L39.7 18.8 40.5 21.7 40.65 22.15 40.85 23.05 40.9 23.4 40.95 23.55 41.05 24.2 41.05 24.35 M41.1 24.6 L41.45 28.0 41.4 29.55 41.4 29.75 41.1 31.9 40.8 33.4 40.8 33.45 40.8 33.5 40.8 33.55 40.6 34.2 40.0 36.3 39.9 36.6 39.15 38.25 38.9 38.85 38.65 39.4 38.45 39.95 38.05 40.95 37.85 41.4 37.45 42.4 Q36.9 43.85 36.45 45.85 L36.45 45.95 36.25 46.9 36.2 47.2 Q35.9 49.3 36.05 51.25 36.6 51.9 36.25 52.75 37.5 53.5 37.1 55.05 L37.0 55.4 Q37.65 55.6 37.7 56.85 L37.7 56.9 Q40.8 61.9 42.85 62.9 42.8 65.75 38.4 62.4 36.4 60.8 34.95 58.9 33.55 58.4 33.6 57.0 L33.15 56.1 28.9 60.65 Q27.95 60.95 27.45 60.4 L26.0 58.7 24.5 57.0 23.2 57.35 Q22.15 57.7 21.3 56.75 L20.85 55.25 19.75 52.15 Q19.65 50.4 22.2 49.85 L31.8 52.85 Q31.35 51.25 31.05 49.65 L30.8 46.4 30.85 44.5 30.9 43.4 30.95 42.65 31.1 42.0 31.55 39.85 31.85 38.75 31.9 38.55 31.95 38.4 31.95 38.35 32.0 38.2 32.6 36.4 M32.6 36.35 Q32.6 35.95 32.95 34.95 L34.85 30.95 Q35.45 28.65 34.8 25.8 L34.5 24.75 34.35 24.2 33.8 22.9 33.45 22.0 33.25 21.35 31.0 22.9 30.5 22.0 30.0 21.25 28.5 22.05 Q25.85 21.85 23.35 15.8 22.15 12.85 21.0 8.55 20.5 8.5 19.95 8.1 L16.8 3.7 16.5 3.95 16.2 4.2 16.2 4.25 14.4 2.35 13.7 1.65 13.45 2.65 13.15 3.7 12.95 4.4 Q12.05 5.7 9.9 4.55 L6.55 2.6 3.65 0.55 0.45 -2.05 0.25 -2.25 -2.25 -4.55 -2.45 -4.8 -3.6 -5.95 -3.85 -6.15 Q-4.55 -7.05 -4.0 -8.25 L-3.65 -8.85 -2.2 -9.75 -0.75 -10.7 -2.25 -11.45 -1.7 -12.35 -4.65 -14.2 Q-5.25 -14.75 -5.2 -15.35 L-12.6 -13.0 Q-14.95 -12.45 -15.5 -15.85 L-18.9 -17.4 Q-23.2 -19.9 -21.25 -21.7 L-22.5 -23.25 -20.5 -27.45 -19.65 -26.9 -18.1 -25.8 -17.7 -25.5 -15.45 -26.9 -11.25 -29.35 -12.85 -30.6 -14.45 -31.85 -15.3 -32.5 -15.75 -32.85 -15.8 -32.85 -16.5 -33.35 -16.75 -33.45 -17.0 -33.55 -17.65 -33.85 -17.8 -33.9 Q-18.3 -34.2 -18.75 -34.35 L-19.2 -34.5 -19.8 -34.75 -20.9 -35.15 -22.65 -35.7 -28.0 -36.75 -28.1 -36.75 -28.75 -36.85 -29.5 -36.9 -31.05 -36.9 -31.35 -36.9 -31.35 -36.8 -30.6 -36.55 -28.9 -35.75 -27.55 -34.85 -26.75 -34.2 M-20.65 -27.55 L-21.5 -28.15 -23.2 -29.1 -23.65 -29.25 -24.85 -29.8 -25.5 -30.05 Q-29.5 -31.4 -32.6 -30.8 L-36.25 -29.5 -38.45 -28.8 -39.0 -28.7 -40.95 -28.2 -41.85 -28.0 -45.05 -27.5 -45.85 -27.5 -48.0 -27.45 -50.75 -27.6 -55.55 -28.55 -55.75 -28.6 -55.85 -28.65 -53.0 -19.45 Q-53.65 -17.1 -55.5 -17.25 L-57.4 -17.85 -60.35 -18.85 Q-61.3 -19.7 -60.9 -20.7 L-60.5 -21.9 -63.1 -24.1 -63.95 -24.8 Q-64.5 -25.3 -64.2 -26.2 L-59.2 -30.05 -60.1 -30.5 -61.0 -30.65 Q-61.8 -30.95 -62.1 -31.85 L-64.5 -33.95 -65.65 -35.25 Q-69.05 -39.5 -66.05 -39.45 -65.35 -38.05 -62.45 -36.05 L-59.9 -34.4 -59.85 -34.4 Q-58.55 -34.3 -58.3 -33.65 -56.4 -34.2 -55.55 -32.85 -54.6 -33.15 -54.0 -32.6 L-53.75 -32.55 -50.2 -32.55 -48.3 -32.8 -47.25 -32.95 -43.55 -33.95 -41.85 -34.5 -41.35 -34.65 -40.15 -35.1 Q-38.4 -35.8 -35.25 -36.35 L-33.35 -36.7 -31.45 -36.9 -31.35 -36.9 M1.35 -23.65 L2.7 -22.8 3.85 -24.8 M12.25 -10.25 Q12.9 -12.1 13.0 -13.75 L13.0 -14.65 12.95 -15.0 12.55 -17.35 M6.15 -19.4 L7.25 -20.2 M5.6 -19.95 L6.15 -19.4 8.55 -17.05 M0.3 -14.85 L1.15 -15.85 1.2 -15.95 M2.1 -16.85 L1.35 -16.1 M3.7 -18.45 L2.1 -16.85 M3.7 -18.45 L5.6 -19.95 2.7 -22.8 M1.8 -9.3 L3.6 -8.35 4.45 -7.9 6.05 -6.3 7.2 -7.15 9.7 -9.15 10.0 -9.4 M1.1 -9.75 L1.8 -9.3 M1.1 -9.75 L0.45 -10.05 -0.75 -10.7 M7.0 -4.5 Q6.3 -5.2 6.05 -6.3 M7.0 -4.5 L7.7 -3.95 8.75 -3.5 14.45 -7.35 M6.1 -2.85 L6.15 -2.8 8.0 -1.45 8.55 -1.05 Q9.15 -0.6 9.95 -0.2 M10.35 -1.4 L9.1 -2.9 8.75 -3.5 M6.1 -2.85 L4.2 -4.2 -1.25 -7.6 Q-1.6 -7.1 -1.4 -6.45 L-0.95 -5.45 -0.8 -5.3 -0.35 -4.75 M14.85 -6.3 L15.2 -6.8 M13.35 -4.1 L14.25 -5.4 14.25 -5.45 M11.2 -0.95 Q10.8 -1.1 10.35 -1.4 M11.2 -0.95 L12.25 -2.5 12.25 -2.55 12.35 -2.6 13.35 -4.1 M18.0 2.65 L18.95 1.85 20.35 0.55 21.45 -0.4 22.35 -1.2 23.4 -2.1 24.65 -3.2 29.3 2.55 29.95 1.05 30.0 1.05 M13.15 1.1 L13.7 1.65 M24.6 -3.25 L24.65 -3.2 M0.8 -24.9 L1.35 -23.65 -0.35 -22.05 -3.05 -18.85 -4.65 -16.5 Q-5.2 -15.9 -5.2 -15.35 M-59.9 -34.4 L-59.75 -34.3 -59.85 -34.4 M-60.5 -21.9 L-58.2 -28.65 -57.95 -29.45 -58.6 -29.7 -58.75 -29.8 -59.2 -30.05 M-57.95 -29.45 L-57.15 -28.8 -56.85 -28.7 -55.85 -28.65 -54.0 -32.6 M-50.2 -32.55 L-50.75 -27.6 M-58.2 -28.65 Q-57.15 -24.65 -59.1 -20.65 M-62.1 -31.85 L-59.9 -34.4 M-17.8 -25.45 L-17.7 -25.5 M-12.85 -30.6 L-10.45 -31.95 M-11.25 -29.35 L-6.65 -32.1 -5.1 -32.4 -5.05 -32.4 Q-2.85 -32.5 -1.7 -30.6 L0.8 -24.9 M-21.25 -21.7 L-20.05 -20.2 -20.05 -20.15 -7.4 -27.35 Q-5.25 -28.5 -3.8 -26.5 L-0.35 -22.05 M-25.75 -35.1 L-28.1 -36.75 M-24.6 -33.75 L-24.75 -33.95 -25.75 -35.1 M-3.05 -18.85 L-4.55 -19.8 M-0.95 -13.3 L-1.4 -12.65 -2.25 -11.45 M-0.8 -13.5 L-0.05 -14.45 M-15.5 -15.85 L-13.2 -16.05 M-17.8 -25.45 L-19.55 -24.45 M40.8 33.45 L40.75 33.55 40.7 33.65 40.8 33.5 40.6 34.2 M40.75 33.55 L40.8 33.4 M39.05 9.1 L39.0 9.15 39.0 9.0 Q38.5 7.25 37.55 6.9 L35.3 5.5 29.3 2.6 28.6 3.55 27.0 4.7 29.55 6.45 M39.0 9.0 L39.05 9.1 40.25 7.6 M39.05 9.1 L39.2 10.8 37.1 14.0 32.15 19.5 30.0 21.25 M29.3 2.55 L29.3 2.6 M27.0 4.7 L22.1 8.2 21.0 8.55 M38.35 15.7 L37.05 17.6 36.0 18.8 35.2 19.65 33.25 21.35 M16.5 3.95 L18.0 2.65 M31.95 38.4 L32.0 38.2 M32.9 52.45 L31.8 52.85 Q31.75 53.4 31.85 53.8 L31.9 54.1 32.55 54.9 32.9 55.65 33.15 56.1 M32.55 54.9 L31.7 55.1 24.5 57.0 M36.7 57.65 L36.75 57.6 37.7 56.9 37.6 56.75 37.7 56.85 M36.05 51.25 L32.9 52.45 M34.95 58.9 L36.7 57.65 M31.7 55.1 Q27.55 53.95 23.2 55.65 M13.15 1.1 L11.2 -0.95" fill="none" stroke="#000000" stroke-linecap="round" stroke-linejoin="round" stroke-opacity="0.5019608" stroke-width="1.0"/>
      <path d="M-20.5 -27.45 L-20.65 -27.55 -20.45 -27.75 Q-19.05 -29.1 -18.5 -29.1 L-19.9 -29.7 -20.3 -29.9 -20.95 -30.1 -21.8 -30.3 -23.2 -29.85 -23.2 -30.65 -23.2 -31.0 -22.2 -31.3 -21.05 -31.5 -20.5 -31.35 -20.65 -32.6 Q-20.65 -33.65 -19.5 -34.3 L-19.3 -34.3 -19.2 -34.5 M-17.65 -33.85 Q-18.05 -33.85 -18.05 -33.7 L-18.15 -33.65 -18.3 -33.6 -18.45 -33.55 -19.0 -33.1 -19.3 -31.95 -19.1 -31.1 -19.1 -30.45 -17.65 -29.3 -17.05 -29.4 -16.4 -29.2 -16.35 -29.7 Q-16.3 -32.0 -17.0 -33.55 M-16.4 -29.2 L-16.55 -28.25 Q-16.85 -27.0 -17.75 -26.2 L-18.1 -25.8 M-15.45 -26.9 L-15.0 -29.2 Q-14.6 -31.7 -15.3 -32.5 M-16.55 -28.25 L-18.6 -27.9 -19.65 -26.9 M-22.65 -35.7 L-23.25 -35.45 -23.45 -35.35 -24.0 -34.95 -24.4 -34.15 -24.6 -33.75 -23.8 -32.6 Q-23.05 -34.65 -20.9 -35.15 M-23.2 -31.0 L-23.8 -32.6 M-26.75 -34.2 L-25.7 -32.95 Q-24.55 -31.45 -24.75 -30.1 L-24.85 -29.8 M37.05 17.6 L38.45 18.3 39.7 18.8 M36.0 18.8 Q37.15 19.1 38.6 20.1 L38.85 20.25 39.45 20.7 39.55 20.95 39.45 21.15 38.85 22.35 39.35 22.85 39.85 23.65 39.9 24.15 39.75 24.8 39.0 25.55 39.2 25.7 Q41.3 27.3 41.45 28.0 M38.6 20.1 L38.55 20.6 Q38.25 21.55 37.35 21.5 L37.0 21.4 36.4 21.15 36.35 20.95 Q36.35 20.65 36.0 20.3 L35.2 19.65 Q35.05 20.4 35.2 20.8 L35.35 21.35 Q35.35 22.3 33.8 22.9 M37.9 24.9 Q38.6 24.65 38.6 23.5 L38.25 22.55 38.15 22.55 37.45 22.55 36.95 22.4 36.4 22.15 36.15 22.75 34.35 24.2 M34.8 25.8 L36.15 25.85 Q39.0 27.1 39.75 27.9 L41.4 29.55 M39.0 25.55 L37.9 24.9 34.5 24.75 M32.6 36.4 L32.8 36.85 Q34.85 36.1 36.55 35.95 38.4 35.75 39.3 35.15 L40.7 33.65 M38.9 38.85 L38.3 39.1 37.7 38.8 Q37.3 38.5 37.3 38.2 L37.25 37.65 35.95 37.9 35.95 38.5 36.15 39.2 35.8 39.45 35.35 39.6 34.8 39.6 Q33.85 39.5 33.85 39.1 L33.65 38.4 Q32.35 38.8 31.8 39.45 31.95 40.2 31.75 40.75 L31.55 41.75 Q31.55 42.4 32.25 42.95 32.6 43.25 33.8 43.75 L34.1 42.9 33.1 42.35 Q32.65 42.0 32.65 41.65 L32.9 41.0 33.5 40.2 33.6 40.3 35.45 41.05 Q36.2 40.4 37.25 40.75 L38.0 40.85 38.05 40.95 M35.95 37.9 L35.45 37.95 33.65 38.4 M31.25 42.55 Q31.75 44.15 33.75 45.4 L34.2 45.6 Q33.65 44.7 33.8 43.75 M34.1 42.9 L34.2 42.65 Q34.35 42.1 35.2 41.25 L35.45 41.05 M36.2 47.2 Q35.0 47.3 33.25 46.3 L30.85 44.5 M37.45 42.4 Q35.55 41.55 35.4 44.2 35.15 45.6 36.45 45.85 M39.9 36.6 L37.25 37.65" fill="none" stroke="#747474" stroke-linecap="round" stroke-linejoin="round" stroke-opacity="0.5019608" stroke-width="1.0"/>
      <path d="M9.1 -2.9 L6.1 -2.85 M-1.4 -6.45 L-3.85 -6.15 M20.35 0.55 L16.65 -4.7" fill="none" stroke="#000000" stroke-linecap="round" stroke-linejoin="round" stroke-width="0.5"/>
      <path d="M2.1 -16.85 L5.9 -15.55 Q5.45 -16.3 6.0 -17.3 4.25 -16.6 3.7 -18.45 M8.55 -15.4 L7.75 -14.9 8.6 -14.65 M7.75 -14.9 L5.9 -15.55 M7.2 -7.15 Q7.8 -8.05 7.2 -8.8 6.45 -9.6 5.35 -9.4 5.85 -9.8 5.35 -10.5 L5.25 -10.55 3.4 -11.15 2.45 -10.95 2.05 -10.5 Q1.7 -10.0 1.8 -9.3 M9.7 -9.15 L5.4 -10.55 5.25 -10.55 M3.6 -8.35 L2.8 -8.4 2.5 -8.35 Q1.85 -8.15 2.15 -7.25 3.0 -6.05 4.55 -6.35 4.25 -5.55 4.9 -4.9 5.85 -3.65 7.0 -4.5 M8.55 -1.05 L10.35 -1.4 M9.05 0.45 L8.35 -0.7 M5.4 -0.4 L6.35 -1.05 M3.65 0.55 Q2.6 -0.6 2.9 -1.8 4.25 -1.3 5.4 -0.4 L6.75 0.8 6.9 0.7 Q8.05 -0.2 9.4 0.7 10.0 1.1 10.0 1.7 10.15 1.05 11.05 0.8 12.45 1.3 13.15 2.5 L13.45 2.65 M13.35 -4.1 L16.3 0.2 18.0 2.65 M18.95 1.85 L14.25 -5.4 M12.35 -2.6 Q13.0 -3.5 13.6 -3.0 14.2 -2.5 14.05 -1.75 15.55 -1.05 14.55 0.05 L13.15 0.15 13.15 1.1 M22.35 -1.2 L20.65 -3.8 M23.4 -2.1 Q21.2 -3.1 23.0 -4.5 M19.4 -3.5 L21.45 -0.4 M-1.4 -12.65 L3.4 -11.15 M-0.8 -5.3 L-2.45 -4.8 M15.85 1.35 L16.3 0.2 M15.85 1.35 L15.5 0.8 Q14.55 1.2 14.4 2.35 M16.2 4.2 Q16.4 2.45 15.85 1.35 M13.15 2.5 L13.15 3.7 M6.75 0.8 Q6.05 1.4 6.55 2.6 M2.5 -8.35 L-4.0 -8.25 M0.45 -10.05 L-0.2 -11.5 Q0.9 -12.0 2.05 -10.5 M-2.2 -9.75 L1.1 -9.75" fill="none" stroke="#000000" stroke-linecap="round" stroke-linejoin="round" stroke-width="0.1"/>
      <path d="M-43.95 -33.85 Q-43.45 -34.05 -43.1 -33.85 L-42.5 -33.75 Q-41.15 -35.1 -40.35 -35.1 -39.6 -35.15 -38.75 -35.7 -37.95 -36.3 -37.25 -36.2 L-36.05 -36.1 Q-35.5 -36.1 -35.1 -36.4 L-34.3 -36.4 Q-34.4 -36.3 -33.65 -36.7 L-32.5 -37.0 -31.95 -36.75 -31.55 -36.8 Q-31.35 -37.05 -30.6 -37.1 L-29.1 -37.1 -27.25 -36.8 Q-28.05 -31.9 -30.7 -29.1 L-34.55 -29.0 -35.55 -29.2 Q-36.5 -27.95 -38.4 -28.15 L-39.6 -27.3 Q-40.35 -26.6 -41.0 -26.85 L-41.85 -27.1 -42.3 -27.0 Q-43.05 -25.7 -43.6 -25.8 -44.1 -25.9 -44.8 -26.45 L-45.65 -32.6 -44.75 -33.3 Q-44.5 -33.75 -43.95 -33.85" fill="#000000" fill-rule="evenodd" stroke="none"/>
      <path d="M-43.95 -33.85 Q-43.45 -34.05 -43.1 -33.85 L-42.5 -33.75 Q-41.15 -35.1 -40.35 -35.1 -39.6 -35.15 -38.75 -35.7 -37.95 -36.3 -37.25 -36.2 L-36.05 -36.1 Q-35.5 -36.1 -35.1 -36.4 L-34.3 -36.4 Q-34.4 -36.3 -33.65 -36.7 L-32.5 -37.0 -31.95 -36.75 -31.55 -36.8 Q-31.35 -37.05 -30.6 -37.1 L-29.1 -37.1 -27.25 -36.8 Q-28.05 -31.9 -30.7 -29.1 L-34.55 -29.0 -35.55 -29.2 Q-36.5 -27.95 -38.4 -28.15 L-39.6 -27.3 Q-40.35 -26.6 -41.0 -26.85 L-41.85 -27.1 -42.3 -27.0 Q-43.05 -25.7 -43.6 -25.8 -44.1 -25.9 -44.8 -26.45 L-45.65 -32.6 -44.75 -33.3 Q-44.5 -33.75 -43.95 -33.85 Z" fill="none" stroke="#000000" stroke-linecap="round" stroke-linejoin="round" stroke-opacity="0.5019608" stroke-width="1.0"/>
      <path d="M-43.85 -72.3 L-44.45 -72.5 -45.45 -73.2 -45.7 -74.45 -45.1 -75.4 -43.75 -75.45 Q-43.15 -75.25 -42.8 -74.6 -42.45 -74.1 -42.6 -73.45 -42.7 -72.8 -43.25 -72.5 L-43.85 -72.3 M-43.9 -72.3 L-42.05 -69.1 -37.65 -43.65 -44.3 -69.2 -43.9 -72.3" fill="#e5dcbb" fill-rule="evenodd" stroke="none"/>
      <path d="M-43.85 -72.3 L-44.45 -72.5 -45.45 -73.2 -45.7 -74.45 -45.1 -75.4 -43.75 -75.45 Q-43.15 -75.25 -42.8 -74.6 -42.45 -74.1 -42.6 -73.45 -42.7 -72.8 -43.25 -72.5 L-43.85 -72.3 -43.9 -72.3 -42.05 -69.1 -37.65 -43.65 -44.3 -69.2 -43.9 -72.3" fill="none" stroke="#000000" stroke-linecap="round" stroke-linejoin="round" stroke-opacity="0.5019608" stroke-width="1.0"/>
      <path d="M-28.3 -66.75 L-28.65 -67.0 -29.05 -67.9 -28.75 -68.9 Q-28.4 -69.3 -27.85 -69.3 -27.3 -69.2 -26.9 -68.85 L-26.55 -67.9 Q-26.55 -67.35 -26.9 -67.0 -27.3 -66.55 -27.85 -66.6 L-28.3 -66.75 M-28.3 -66.7 L-28.35 -63.8 -36.2 -44.45 -29.95 -64.7 -28.3 -66.7" fill="#e5dcbb" fill-rule="evenodd" stroke="none"/>
      <path d="M-28.3 -66.75 L-28.65 -67.0 -29.05 -67.9 -28.75 -68.9 Q-28.4 -69.3 -27.85 -69.3 -27.3 -69.2 -26.9 -68.85 L-26.55 -67.9 Q-26.55 -67.35 -26.9 -67.0 -27.3 -66.55 -27.85 -66.6 L-28.3 -66.75 -28.3 -66.7 -28.35 -63.8 -36.2 -44.45 -29.95 -64.7 -28.3 -66.7" fill="none" stroke="#000000" stroke-linecap="round" stroke-linejoin="round" stroke-opacity="0.5019608" stroke-width="1.0"/>
      <path d="M-49.45 -32.5 L-50.25 -32.95 Q-51.1 -33.2 -51.65 -32.7 -51.95 -32.25 -51.75 -31.75 L-51.55 -31.55 Q-51.85 -31.6 -52.15 -31.05 -52.25 -29.9 -51.25 -29.75 L-50.35 -29.7 -50.4 -29.65 -50.4 -29.6 -50.45 -29.55 Q-50.55 -29.55 -50.65 -29.65 -50.55 -29.55 -50.45 -29.55 L-50.25 -29.6 -51.25 -29.2 Q-51.7 -28.55 -51.35 -27.95 -50.95 -27.6 -50.45 -27.65 L-50.05 -27.85 Q-50.35 -27.6 -50.25 -27.3 L-49.65 -26.65 Q-49.2 -26.45 -48.45 -26.95 L-48.0 -27.4 -47.85 -27.4 Q-48.05 -26.7 -48.6 -26.2 -49.5 -25.6 -50.1 -25.95 L-50.8 -26.7 -50.45 -27.35 -51.05 -27.05 Q-51.65 -27.05 -52.15 -27.45 -52.65 -28.2 -52.0 -28.95 L-50.65 -29.65 -51.95 -29.6 Q-53.25 -29.85 -53.1 -31.3 -52.8 -31.9 -52.35 -31.8 L-52.6 -32.0 Q-52.9 -32.65 -52.5 -33.2 -51.8 -33.85 -50.85 -33.6 L-49.4 -32.6 -49.45 -32.5 M-44.2 -29.2 Q-43.7 -29.4 -43.3 -30.1 -42.95 -30.95 -44.2 -31.15 -43.45 -32.65 -45.35 -32.6 L-45.95 -32.4 -44.8 -33.15 Q-42.5 -33.25 -43.45 -31.3 -41.95 -31.15 -42.35 -30.1 -42.85 -29.15 -44.2 -29.2 M-49.0 -32.05 Q-49.5 -32.95 -49.55 -34.1 -49.55 -35.4 -48.05 -35.4 L-48.05 -35.3 -47.7 -34.7 Q-47.3 -35.35 -46.95 -35.2 -46.35 -35.15 -45.95 -34.7 L-45.55 -33.5 Q-45.55 -33.0 -45.95 -32.4 -45.8 -32.65 -45.95 -32.45 L-45.95 -32.9 -46.25 -33.9 Q-46.6 -34.3 -47.05 -34.3 -47.4 -34.4 -47.7 -33.9 L-48.0 -34.4 -48.0 -34.45 Q-49.3 -34.5 -49.25 -33.35 L-48.8 -31.8 -49.05 -32.0 -49.0 -32.05" fill="#ffdbea" fill-rule="evenodd" stroke="none"/>
      <path d="M-50.35 -29.7 L-51.25 -29.75 Q-52.25 -29.9 -52.15 -31.05 -51.85 -31.6 -51.55 -31.55 L-51.75 -31.75 Q-51.95 -32.25 -51.65 -32.7 -51.1 -33.2 -50.25 -32.95 L-49.45 -32.5 -49.05 -32.0 -48.8 -31.8 -49.25 -33.35 Q-49.3 -34.5 -48.0 -34.45 L-48.0 -34.4 -47.7 -33.9 Q-47.4 -34.4 -47.05 -34.3 -46.6 -34.3 -46.25 -33.9 L-45.95 -32.9 -45.95 -32.45 -45.95 -32.4 -46.0 -32.4 -46.4 -31.95 -46.1 -32.3 -45.95 -32.4 -45.35 -32.6 Q-43.45 -32.65 -44.2 -31.15 -42.95 -30.95 -43.3 -30.1 -43.7 -29.4 -44.2 -29.2 L-44.35 -29.15 -44.45 -29.15 -45.3 -29.4 -45.4 -29.4 -45.8 -29.55 -45.4 -29.25 Q-44.85 -28.9 -44.5 -28.15 L-44.4 -27.65 Q-44.55 -26.9 -45.8 -27.2 L-45.7 -26.65 Q-46.05 -26.0 -46.85 -26.35 -47.6 -26.7 -47.75 -27.7 L-47.75 -27.85 -47.7 -28.1 -47.75 -28.15 -47.75 -28.2 -47.7 -28.2 -47.75 -28.5 -47.85 -27.8 -48.0 -27.4 -48.45 -26.95 Q-49.2 -26.45 -49.65 -26.65 L-50.25 -27.3 Q-50.35 -27.6 -50.05 -27.85 L-50.45 -27.65 Q-50.95 -27.6 -51.35 -27.95 -51.7 -28.55 -51.25 -29.2 L-50.25 -29.6 -49.7 -29.75 -49.75 -29.75 -50.1 -29.65 -50.35 -29.7 M-49.35 -29.8 L-49.7 -29.75 -49.35 -29.8 M-46.7 -31.7 L-46.4 -31.95 -46.7 -31.7 M-47.8 -29.8 L-47.45 -29.75 -47.2 -30.0 -47.3 -30.35 Q-47.4 -30.5 -47.65 -30.55 L-48.0 -30.5 -48.15 -30.25 -48.05 -29.95 -47.8 -29.8 M-47.7 -28.2 L-47.75 -28.15 -47.7 -28.2" fill="url(#gradient0)" fill-rule="evenodd" stroke="none"/>
      <path d="M-47.8 -29.8 L-48.05 -29.95 -48.15 -30.25 -48.0 -30.5 -47.65 -30.55 Q-47.4 -30.5 -47.3 -30.35 L-47.2 -30.0 -47.45 -29.75 -47.8 -29.8" fill="#ffffff" fill-rule="evenodd" stroke="none"/>
      <path d="M-50.45 -29.55 L-50.4 -29.6 -50.4 -29.65 -50.25 -29.6 -50.45 -29.55" fill="url(#gradient1)" fill-rule="evenodd" stroke="none"/>
      <path d="M-49.4 -32.6 L-50.85 -33.6 Q-51.8 -33.85 -52.5 -33.2 -52.9 -32.65 -52.6 -32.0 L-52.35 -31.8 Q-52.8 -31.9 -53.1 -31.3 -53.25 -29.85 -51.95 -29.6 L-50.65 -29.65 Q-50.55 -29.55 -50.45 -29.55 L-50.4 -29.6 -50.4 -29.65 -50.25 -29.6 -49.7 -29.75 -49.35 -29.8 M-50.35 -29.7 L-50.1 -29.65 -49.75 -29.75 -49.7 -29.75 M-47.85 -27.4 Q-48.05 -26.7 -48.6 -26.2 -49.5 -25.6 -50.1 -25.95 L-50.8 -26.7 -50.45 -27.35 -51.05 -27.05 Q-51.65 -27.05 -52.15 -27.45 -52.65 -28.2 -52.0 -28.95 L-50.65 -29.65 M-50.25 -29.6 L-50.45 -29.55 M-45.95 -32.4 L-46.1 -32.3 -46.4 -31.95 -46.7 -31.7 M-49.0 -32.05 Q-49.5 -32.95 -49.55 -34.1 -49.55 -35.4 -48.05 -35.4 L-48.05 -35.3 -47.7 -34.7 Q-47.3 -35.35 -46.95 -35.2 -46.35 -35.15 -45.95 -34.7 L-45.55 -33.5 Q-45.55 -33.0 -45.95 -32.4 L-44.8 -33.15 Q-42.5 -33.25 -43.45 -31.3 -41.95 -31.15 -42.35 -30.1 -42.85 -29.15 -44.2 -29.2 L-44.35 -29.15 -44.45 -29.15 -44.9 -29.25 -45.2 -29.3 Q-44.4 -28.8 -43.85 -27.8 L-43.65 -27.1 Q-43.85 -26.15 -45.4 -26.55 L-45.3 -25.95 Q-45.7 -25.1 -46.6 -25.55 -47.85 -26.0 -47.8 -27.65 L-47.75 -27.85 -47.7 -28.1 -47.75 -28.15 -47.75 -28.2 -47.7 -28.2 -47.75 -28.5 M-47.85 -27.4 L-47.8 -27.65 M-45.95 -32.45 Q-45.8 -32.65 -45.95 -32.4 L-45.95 -32.45 M-49.0 -32.05 L-49.4 -32.6 M-49.05 -32.0 L-48.8 -31.8 M-49.45 -32.5 L-49.05 -32.0 M-46.4 -31.95 L-46.0 -32.4 -45.95 -32.4 M-46.0 -32.4 L-46.1 -32.3 M-47.75 -28.15 L-47.7 -28.2 M-50.1 -29.65 L-50.4 -29.65 M-45.4 -29.25 L-45.8 -29.55 -45.4 -29.4 -45.3 -29.4 -44.45 -29.15 M-47.75 -27.85 L-47.75 -27.7 M-45.3 -29.4 L-45.25 -29.35 -45.2 -29.3" fill="none" stroke="#000000" stroke-linecap="round" stroke-linejoin="round" stroke-opacity="0.5019608" stroke-width="1.0"/>
      <path d="M-39.15 -39.65 L-39.65 -38.9 Q-39.85 -38.15 -40.45 -37.9 L-41.4 -37.85 -41.9 -38.1 -42.85 -38.0 -43.55 -37.35 -42.85 -38.0 -41.9 -38.1 -41.4 -37.85 -40.45 -37.9 Q-39.85 -38.15 -39.65 -38.9 L-39.15 -39.65 M-39.95 -45.2 L-40.85 -44.6 -41.75 -44.4 -42.05 -44.75 -42.15 -45.2 -41.7 -45.75 -39.85 -45.75 -39.65 -45.7 -40.1 -45.95 Q-40.55 -46.05 -40.7 -46.75 L-40.75 -47.6 Q-40.7 -47.9 -40.3 -48.0 L-39.8 -48.0 -39.5 -48.05 Q-38.95 -47.9 -38.65 -47.05 L-38.5 -46.85 -38.35 -47.25 -37.8 -47.9 -37.05 -48.15 -36.8 -47.8 -36.7 -47.35 -37.5 -46.4 -35.2 -46.25 -33.1 -46.35 -31.45 -46.1 -29.15 -45.35 -28.15 -45.0 -26.45 -44.15 Q-25.3 -43.5 -24.65 -42.25 -23.95 -41.1 -24.0 -40.0 L-24.1 -38.1 -24.15 -37.6 -27.05 -41.6 -28.6 -41.55 -30.1 -41.4 -31.3 -41.1 -32.5 -40.7 -33.45 -40.25 -33.65 -40.1 -34.55 -39.6 -34.8 -39.3 -35.3 -39.7 Q-36.05 -38.95 -36.45 -38.65 -36.9 -38.3 -37.1 -38.4 L-37.3 -38.65 -37.4 -38.9 -39.05 -37.15 Q-40.45 -34.45 -39.5 -33.05 L-36.45 -28.85 Q-39.5 -28.6 -42.3 -31.9 -45.8 -35.9 -44.2 -39.1 -42.55 -42.85 -39.8 -45.0 L-38.35 -45.95 -37.5 -46.4 -38.35 -45.95 -39.8 -45.0 -39.95 -45.2 M-32.65 -42.05 L-33.1 -42.35 Q-33.35 -42.4 -33.65 -42.05 L-34.05 -41.65 -34.2 -41.15 -35.0 -41.85 -35.85 -41.9 -36.4 -41.4 -36.3 -40.55 -35.85 -40.25 Q-37.1 -40.0 -37.35 -39.15 L-37.4 -38.9 -37.35 -39.15 Q-37.1 -40.0 -35.85 -40.25 L-36.3 -40.55 -36.4 -41.4 -35.85 -41.9 -35.0 -41.85 -34.2 -41.15 -34.05 -41.65 -33.65 -42.05 Q-33.35 -42.4 -33.1 -42.35 L-32.65 -42.05 M-32.55 -44.4 Q-32.3 -44.75 -31.95 -44.65 L-30.2 -44.55 Q-29.5 -44.75 -29.15 -45.35 -29.5 -44.75 -30.2 -44.55 L-31.95 -44.65 Q-32.3 -44.75 -32.55 -44.4 M-38.35 -45.95 L-38.5 -46.85 -38.35 -45.95 M-35.85 -40.25 L-35.3 -39.7 -35.85 -40.25 M-34.2 -41.15 L-33.65 -40.1 -34.2 -41.15" fill="#b4894a" fill-rule="evenodd" stroke="none"/>
      <path d="M-37.5 -46.4 Q-34.65 -47.8 -31.05 -48.0 -27.45 -48.2 -24.25 -44.55 -21.2 -40.9 -23.45 -36.6 L-24.15 -37.6 -24.1 -38.1 -24.0 -40.0 Q-23.95 -41.1 -24.65 -42.25 -25.3 -43.5 -26.45 -44.15 L-28.15 -45.0 -29.15 -45.35 -29.05 -45.65 -28.9 -45.7 -29.25 -46.4 -28.9 -45.7 -29.05 -45.65 -29.15 -45.35 -31.45 -46.1 -33.1 -46.35 -35.2 -46.25 -37.5 -46.4" fill="#d3b07e" fill-rule="evenodd" stroke="none"/>
      <path d="M-36.45 -28.85 L-39.5 -33.05 Q-40.45 -34.45 -39.05 -37.15 L-37.4 -38.9 -37.3 -38.65 -37.1 -38.4 Q-36.9 -38.3 -36.45 -38.65 -36.05 -38.95 -35.3 -39.7 L-34.8 -39.3 -35.35 -38.9 -36.35 -37.95 -37.05 -37.05 -37.6 -36.15 -38.1 -35.15 -38.5 -34.0 -35.0 -29.15 -35.05 -29.15 -36.45 -28.85" fill="#986b2c" fill-rule="evenodd" stroke="none"/>
      <path d="M-43.55 -37.35 L-42.85 -38.0 -41.9 -38.1 -41.4 -37.85 -40.45 -37.9 Q-39.85 -38.15 -39.65 -38.9 L-39.15 -39.65 M-39.95 -45.2 L-40.85 -44.6 -41.75 -44.4 -42.05 -44.75 -42.15 -45.2 -41.7 -45.75 -39.85 -45.75 -39.65 -45.7 -40.1 -45.95 Q-40.55 -46.05 -40.7 -46.75 L-40.75 -47.6 Q-40.7 -47.9 -40.3 -48.0 L-39.8 -48.0 -39.5 -48.05 Q-38.95 -47.9 -38.65 -47.05 L-38.5 -46.85 -38.35 -47.25 -37.8 -47.9 -37.05 -48.15 -36.8 -47.8 -36.7 -47.35 -37.5 -46.4 Q-34.65 -47.8 -31.05 -48.0 -27.45 -48.2 -24.25 -44.55 -21.2 -40.9 -23.45 -36.6 L-24.15 -37.6 -27.05 -41.6 -28.6 -41.55 -24.45 -35.9 M-39.8 -45.0 Q-42.55 -42.85 -44.2 -39.1 -45.8 -35.9 -42.3 -31.9 -39.5 -28.6 -36.45 -28.85 L-35.05 -29.15 -35.0 -29.15 -38.5 -34.0 -38.1 -35.15 -37.6 -36.15 -37.05 -37.05 -36.35 -37.95 -35.35 -38.9 -34.8 -39.3 -35.3 -39.7 -35.85 -40.25 -36.3 -40.55 -36.4 -41.4 -35.85 -41.9 -35.0 -41.85 -34.2 -41.15 -34.05 -41.65 -33.65 -42.05 Q-33.35 -42.4 -33.1 -42.35 L-32.65 -42.05 M-37.4 -38.9 L-37.35 -39.15 Q-37.1 -40.0 -35.85 -40.25 M-29.15 -45.35 Q-29.5 -44.75 -30.2 -44.55 L-31.95 -44.65 Q-32.3 -44.75 -32.55 -44.4 M-29.15 -45.35 L-29.05 -45.65 -28.9 -45.7 -29.25 -46.4 M-33.65 -40.1 L-33.45 -40.25 -32.5 -40.7 -31.3 -41.1 -30.1 -41.4 -28.6 -41.55 M-37.5 -46.4 L-38.35 -45.95 -39.8 -45.0 M-38.5 -46.85 L-38.35 -45.95 M-37.4 -38.9 L-37.3 -38.65 -37.1 -38.4 Q-36.9 -38.3 -36.45 -38.65 -36.05 -38.95 -35.3 -39.7 M-34.8 -39.3 L-34.55 -39.6 -33.65 -40.1 -34.2 -41.15 M-37.05 -37.05 L-32.15 -30.95 M-38.1 -35.15 L-34.05 -29.75 M-37.6 -36.15 L-33.0 -30.4 M-36.35 -37.95 L-31.25 -31.55 M-35.35 -38.9 L-30.35 -32.1 M-34.55 -39.6 L-29.3 -32.8 M-33.45 -40.25 L-28.3 -33.5 M-32.5 -40.7 L-27.4 -34.05 M-31.3 -41.1 L-26.3 -34.4 M-30.1 -41.4 L-25.45 -35.35" fill="none" stroke="#000000" stroke-linecap="round" stroke-linejoin="round" stroke-opacity="0.5019608" stroke-width="1.0"/>
      <path d="M-43.4 -42.4 L-43.1 -43.05 Q-42.9 -43.95 -43.1 -44.65 -43.4 -45.35 -44.25 -45.6 -44.65 -45.9 -45.4 -45.25 L-45.6 -46.15 -45.65 -46.25 Q-47.6 -46.85 -48.05 -45.1 -48.45 -43.7 -48.1 -42.3 L-48.35 -42.9 -48.3 -42.85 Q-48.75 -44.55 -48.25 -46.3 -47.65 -48.45 -45.35 -47.75 L-45.3 -47.6 -45.0 -46.5 Q-44.1 -47.35 -43.6 -46.95 -42.6 -46.6 -42.2 -45.75 -41.95 -44.8 -42.2 -43.8 -42.5 -42.95 -43.35 -42.2 -43.0 -42.6 -43.4 -42.4 M-48.6 -35.25 Q-49.3 -34.25 -50.4 -33.65 -52.05 -33.1 -52.8 -33.95 L-53.65 -35.3 Q-53.65 -35.85 -52.85 -36.25 L-53.8 -36.0 Q-54.85 -36.25 -55.4 -37.15 -55.8 -38.45 -54.5 -39.4 L-52.0 -39.8 -54.1 -40.45 Q-56.05 -41.3 -55.2 -43.45 -54.45 -44.2 -53.8 -44.0 L-54.05 -44.4 Q-54.2 -45.55 -53.3 -46.15 L-50.5 -46.0 Q-49.45 -45.4 -48.75 -43.95 L-48.8 -43.9 -49.9 -44.85 -52.25 -45.0 Q-52.9 -44.5 -52.85 -43.55 L-52.6 -43.2 Q-53.1 -43.35 -53.7 -42.75 -54.45 -41.0 -52.9 -40.3 L-51.55 -39.8 -51.6 -39.75 -51.65 -39.75 -51.45 -39.7 -51.4 -39.7 -51.3 -39.65 -53.2 -39.45 Q-54.3 -38.7 -53.95 -37.55 -53.55 -36.85 -52.65 -36.7 L-51.9 -36.85 Q-52.5 -36.5 -52.45 -36.05 -52.45 -35.6 -51.85 -34.9 L-49.8 -34.75 -48.8 -35.35 -48.6 -35.25 M-48.3 -35.65 Q-48.55 -34.1 -47.5 -33.2 L-45.65 -33.25 -45.5 -34.05 Q-43.65 -33.05 -43.05 -34.25 L-43.0 -35.15 Q-43.25 -36.3 -43.9 -37.2 L-43.8 -37.2 Q-42.5 -36.1 -42.1 -34.2 L-42.1 -33.15 Q-42.9 -31.65 -45.2 -32.9 L-45.3 -31.9 -47.55 -31.85 Q-49.2 -33.1 -48.4 -35.7 L-48.3 -35.65 M-42.3 -36.55 Q-41.3 -36.5 -40.2 -37.6 -39.25 -38.75 -41.2 -39.6 -39.25 -41.6 -42.25 -42.35 L-43.35 -42.2 Q-42.0 -42.95 -41.15 -42.95 -37.6 -42.05 -39.9 -39.55 -37.45 -38.55 -38.7 -37.2 -40.0 -35.85 -42.1 -36.45 L-43.1 -36.85 -42.3 -36.55 M-52.0 -39.8 L-51.65 -39.75 -52.0 -39.8" fill="#ffdbea" fill-rule="evenodd" stroke="none"/>
      <path d="M-48.1 -42.3 Q-48.45 -43.7 -48.05 -45.1 -47.6 -46.85 -45.65 -46.25 L-45.6 -46.15 -45.4 -45.25 Q-44.65 -45.9 -44.25 -45.6 -43.4 -45.35 -43.1 -44.65 -42.9 -43.95 -43.1 -43.05 L-43.4 -42.4 -44.25 -41.75 -43.6 -42.15 -43.35 -42.2 -42.25 -42.35 Q-39.25 -41.6 -41.2 -39.6 -39.25 -38.75 -40.2 -37.6 -41.3 -36.5 -42.3 -36.55 L-43.75 -37.3 -43.8 -37.35 -44.35 -37.7 -43.9 -37.2 Q-43.25 -36.3 -43.0 -35.15 L-43.05 -34.25 Q-43.65 -33.05 -45.5 -34.05 L-45.65 -33.25 -47.5 -33.2 Q-48.55 -34.1 -48.3 -35.65 L-48.25 -35.9 -48.15 -36.3 -48.05 -36.45 -47.95 -36.95 -48.4 -35.95 -48.8 -35.35 -49.8 -34.75 -51.85 -34.9 Q-52.45 -35.6 -52.45 -36.05 -52.5 -36.5 -51.9 -36.85 L-52.65 -36.7 Q-53.55 -36.85 -53.95 -37.55 -54.3 -38.7 -53.2 -39.45 L-51.3 -39.65 -50.5 -39.65 -50.6 -39.7 -51.15 -39.7 -51.35 -39.7 -51.55 -39.8 -52.9 -40.3 Q-54.45 -41.0 -53.7 -42.75 -53.1 -43.35 -52.6 -43.2 L-52.85 -43.55 Q-52.9 -44.5 -52.25 -45.0 L-49.9 -44.85 -48.8 -43.9 -48.35 -42.9 -48.1 -42.3 M-49.9 -39.6 L-50.5 -39.65 -49.9 -39.6 M-44.9 -41.45 L-44.25 -41.75 -44.9 -41.45 M-46.4 -39.65 Q-46.5 -39.95 -46.75 -40.05 L-47.4 -40.2 -47.85 -39.8 -47.85 -39.3 -47.4 -38.9 -46.8 -38.75 Q-46.45 -38.85 -46.4 -39.1 -46.25 -39.3 -46.4 -39.65" fill="url(#gradient2)" fill-rule="evenodd" stroke="none"/>
      <path d="M-46.4 -39.65 Q-46.25 -39.3 -46.4 -39.1 -46.45 -38.85 -46.8 -38.75 L-47.4 -38.9 -47.85 -39.3 -47.85 -39.8 -47.4 -40.2 -46.75 -40.05 Q-46.5 -39.95 -46.4 -39.65" fill="#ffffff" fill-rule="evenodd" stroke="none"/>
      <path d="M-51.6 -39.75 L-51.45 -39.7 -51.65 -39.75 -51.6 -39.75 M-47.95 -36.95 L-48.05 -36.45 -48.15 -36.3 -48.15 -36.45 -47.95 -36.95 M-48.15 -36.45 L-48.05 -36.45 -48.15 -36.45" fill="url(#gradient3)" fill-rule="evenodd" stroke="none"/>
      <path d="M-43.4 -42.4 Q-43.0 -42.6 -43.35 -42.2 -42.5 -42.95 -42.2 -43.8 -41.95 -44.8 -42.2 -45.75 -42.6 -46.6 -43.6 -46.95 -44.1 -47.35 -45.0 -46.5 L-45.3 -47.6 -45.35 -47.75 Q-47.65 -48.45 -48.25 -46.3 -48.75 -44.55 -48.3 -42.85 L-48.75 -43.95 Q-49.45 -45.4 -50.5 -46.0 L-53.3 -46.15 Q-54.2 -45.55 -54.05 -44.4 L-53.8 -44.0 Q-54.45 -44.2 -55.2 -43.45 -56.05 -41.3 -54.1 -40.45 L-52.0 -39.8 -54.5 -39.4 Q-55.8 -38.45 -55.4 -37.15 -54.85 -36.25 -53.8 -36.0 L-52.85 -36.25 Q-53.65 -35.85 -53.65 -35.3 L-52.8 -33.95 Q-52.05 -33.1 -50.4 -33.65 -49.3 -34.25 -48.6 -35.25 L-48.4 -35.7 -48.25 -35.9 -48.3 -35.65 M-48.35 -42.9 L-48.1 -42.3 M-51.3 -39.65 L-50.5 -39.65 -50.6 -39.7 -51.15 -39.7 -51.35 -39.7 -51.6 -39.75 -51.45 -39.7 -51.4 -39.7 -51.3 -39.65 M-47.95 -36.95 L-48.05 -36.45 -48.15 -36.3 -48.25 -35.9 M-43.9 -37.2 L-44.35 -37.7 -43.8 -37.35 -43.75 -37.3 -42.3 -36.55 M-43.35 -42.2 L-43.6 -42.15 -44.25 -41.75 -44.9 -41.45 M-50.5 -39.65 L-49.9 -39.6 M-43.4 -42.4 L-43.6 -42.15 M-44.25 -41.75 L-43.4 -42.4 M-43.8 -37.2 L-43.1 -36.85 -42.1 -36.45 Q-40.0 -35.85 -38.7 -37.2 -37.45 -38.55 -39.9 -39.55 -37.6 -42.05 -41.15 -42.95 -42.0 -42.95 -43.35 -42.2 M-48.8 -43.9 L-48.35 -42.9 M-51.65 -39.75 L-51.6 -39.75 M-51.55 -39.8 L-51.35 -39.7 M-51.45 -39.7 L-51.65 -39.75 -52.0 -39.8 M-43.8 -37.2 Q-42.5 -36.1 -42.1 -34.2 L-42.1 -33.15 Q-42.9 -31.65 -45.2 -32.9 L-45.3 -31.9 -47.55 -31.85 Q-49.2 -33.1 -48.4 -35.7 M-48.15 -36.3 L-48.15 -36.45 -47.95 -36.95 M-48.05 -36.45 L-48.15 -36.45" fill="none" stroke="#000000" stroke-linecap="round" stroke-linejoin="round" stroke-opacity="0.5019608" stroke-width="1.0"/>
      <path d="M-37.05 -54.5 L-36.7 -55.2 Q-36.4 -56.2 -36.55 -57.05 -36.85 -57.8 -37.75 -58.15 -38.2 -58.4 -39.05 -57.75 L-39.25 -58.75 -39.3 -58.9 Q-41.45 -59.5 -42.1 -57.55 -42.65 -56.0 -42.4 -54.4 L-42.6 -55.1 -42.55 -55.05 Q-42.9 -56.95 -42.2 -58.9 -41.35 -61.25 -38.75 -60.55 L-38.7 -60.35 -38.45 -59.05 Q-37.45 -60.05 -36.85 -59.6 -35.8 -59.3 -35.4 -58.25 -35.25 -57.2 -35.55 -56.1 -36.0 -55.15 -37.0 -54.3 L-37.05 -54.5 Q-36.6 -54.75 -37.0 -54.3 -36.6 -54.75 -37.05 -54.5 M-36.35 -48.0 Q-35.25 -47.9 -33.9 -49.15 -32.7 -50.45 -34.85 -51.35 -32.5 -53.65 -35.8 -54.45 L-37.0 -54.3 Q-35.45 -55.1 -34.5 -55.15 -30.55 -54.15 -33.4 -51.35 -30.75 -50.2 -32.25 -48.65 -33.8 -47.15 -36.15 -47.9 L-37.25 -48.3 -36.35 -48.0 M-38.0 -48.75 Q-36.65 -47.45 -36.35 -45.35 L-36.5 -44.1 Q-37.5 -42.5 -40.0 -43.85 L-40.15 -42.75 -42.75 -42.7 Q-44.45 -44.15 -43.3 -47.0 L-43.25 -46.95 Q-43.65 -45.2 -42.55 -44.2 L-40.45 -44.25 -40.2 -45.15 Q-38.25 -44.0 -37.4 -45.4 L-37.3 -46.4 Q-37.5 -47.7 -38.15 -48.65 L-38.0 -48.75 M-43.6 -46.5 Q-44.5 -45.4 -45.75 -44.7 -47.7 -44.1 -48.45 -45.0 -49.25 -46.0 -49.3 -46.6 -49.25 -47.2 -48.25 -47.6 L-49.4 -47.4 Q-50.55 -47.65 -51.1 -48.65 -51.4 -50.05 -49.85 -51.15 L-47.0 -51.6 Q-48.0 -51.8 -49.35 -52.35 -51.4 -53.25 -50.3 -55.75 -49.35 -56.55 -48.65 -56.3 L-48.9 -56.8 Q-48.95 -58.1 -47.9 -58.75 L-44.75 -58.6 Q-43.6 -57.9 -42.95 -56.3 L-43.1 -56.2 -44.2 -57.3 -46.8 -57.45 Q-47.65 -56.9 -47.6 -55.85 L-47.4 -55.45 Q-47.95 -55.65 -48.7 -54.9 -49.65 -52.95 -48.05 -52.15 -47.15 -51.8 -46.45 -51.6 L-46.55 -51.55 -46.6 -51.5 -46.65 -51.5 -46.45 -51.45 -46.4 -51.45 -46.3 -51.45 -46.45 -51.45 -48.4 -51.2 Q-49.65 -50.3 -49.45 -49.15 -49.0 -48.35 -48.05 -48.1 L-47.15 -48.3 Q-47.9 -47.95 -47.9 -47.45 -47.9 -46.9 -47.25 -46.1 L-45.0 -45.95 Q-44.35 -46.15 -43.85 -46.65 L-43.6 -46.5 M-47.0 -51.6 L-46.65 -51.5 -47.0 -51.6" fill="#ffdbea" fill-rule="evenodd" stroke="none"/>
      <path d="M-42.4 -54.4 Q-42.65 -56.0 -42.1 -57.55 -41.45 -59.5 -39.3 -58.9 L-39.25 -58.75 -39.05 -57.75 Q-38.2 -58.4 -37.75 -58.15 -36.85 -57.8 -36.55 -57.05 -36.4 -56.2 -36.7 -55.2 L-37.05 -54.5 -38.15 -53.8 -37.3 -54.25 -37.0 -54.3 -35.8 -54.45 Q-32.5 -53.65 -34.85 -51.35 -32.7 -50.45 -33.9 -49.15 -35.25 -47.9 -36.35 -48.0 L-37.95 -48.8 -38.0 -48.85 -38.6 -49.25 -38.15 -48.65 Q-37.5 -47.7 -37.3 -46.4 L-37.4 -45.4 Q-38.25 -44.0 -40.2 -45.15 L-40.45 -44.25 -42.55 -44.2 Q-43.65 -45.2 -43.25 -46.95 L-43.2 -47.25 -43.0 -47.7 -42.9 -47.85 -42.7 -48.4 -43.0 -47.85 -43.3 -47.3 -43.85 -46.65 Q-44.35 -46.15 -45.0 -45.95 L-47.25 -46.1 Q-47.9 -46.9 -47.9 -47.45 -47.9 -47.95 -47.15 -48.3 L-48.05 -48.1 Q-49.0 -48.35 -49.45 -49.15 -49.65 -50.3 -48.4 -51.2 L-46.45 -51.45 -46.3 -51.45 -45.35 -51.4 -45.45 -51.45 -46.1 -51.5 -46.45 -51.6 Q-47.15 -51.8 -48.05 -52.15 -49.65 -52.95 -48.7 -54.9 -47.95 -55.65 -47.4 -55.45 L-47.6 -55.85 Q-47.65 -56.9 -46.8 -57.45 L-44.2 -57.3 -43.1 -56.2 -42.6 -55.1 -42.4 -54.4 M-38.8 -53.45 L-38.15 -53.8 -38.8 -53.45 M-44.7 -51.35 L-45.35 -51.4 -44.7 -51.35 M-41.8 -52.05 Q-42.15 -52.0 -42.3 -51.65 L-42.35 -51.05 -41.9 -50.6 -41.25 -50.45 -40.75 -50.8 Q-40.55 -51.1 -40.7 -51.45 L-41.1 -51.9 -41.8 -52.05" fill="url(#gradient4)" fill-rule="evenodd" stroke="none"/>
      <path d="M-46.45 -51.45 L-46.65 -51.5 -46.6 -51.5 -46.55 -51.55 -46.45 -51.45 M-43.0 -47.7 L-43.0 -47.85 -42.9 -47.85 -43.0 -47.85 -42.7 -48.4 -42.9 -47.85 -43.0 -47.7" fill="url(#gradient5)" fill-rule="evenodd" stroke="none"/>
      <path d="M-41.8 -52.05 L-41.1 -51.9 -40.7 -51.45 Q-40.55 -51.1 -40.75 -50.8 L-41.25 -50.45 -41.9 -50.6 -42.35 -51.05 -42.3 -51.65 Q-42.15 -52.0 -41.8 -52.05" fill="#ffffff" fill-rule="evenodd" stroke="none"/>
      <path d="M-37.05 -54.5 Q-36.6 -54.75 -37.0 -54.3 -36.0 -55.15 -35.55 -56.1 -35.25 -57.2 -35.4 -58.25 -35.8 -59.3 -36.85 -59.6 -37.45 -60.05 -38.45 -59.05 L-38.7 -60.35 -38.75 -60.55 Q-41.35 -61.25 -42.2 -58.9 -42.9 -56.95 -42.55 -55.05 L-42.95 -56.3 Q-43.6 -57.9 -44.75 -58.6 L-47.9 -58.75 Q-48.95 -58.1 -48.9 -56.8 L-48.65 -56.3 Q-49.35 -56.55 -50.3 -55.75 -51.4 -53.25 -49.35 -52.35 -48.0 -51.8 -47.0 -51.6 L-49.85 -51.15 Q-51.4 -50.05 -51.1 -48.65 -50.55 -47.65 -49.4 -47.4 L-48.25 -47.6 Q-49.25 -47.2 -49.3 -46.6 -49.25 -46.0 -48.45 -45.0 -47.7 -44.1 -45.75 -44.7 -44.5 -45.4 -43.6 -46.5 L-43.3 -47.0 -43.2 -47.25 -43.25 -46.95 M-42.6 -55.1 L-42.4 -54.4 M-37.3 -54.25 L-37.0 -54.3 Q-35.45 -55.1 -34.5 -55.15 -30.55 -54.15 -33.4 -51.35 -30.75 -50.2 -32.25 -48.65 -33.8 -47.15 -36.15 -47.9 L-37.25 -48.3 -38.0 -48.75 Q-36.65 -47.45 -36.35 -45.35 L-36.5 -44.1 Q-37.5 -42.5 -40.0 -43.85 L-40.15 -42.75 -42.75 -42.7 Q-44.45 -44.15 -43.3 -47.0 M-37.05 -54.5 L-37.3 -54.25 -38.15 -53.8 -38.8 -53.45 M-38.15 -53.8 L-37.05 -54.5 M-43.1 -56.2 L-42.6 -55.1 M-46.45 -51.6 L-46.1 -51.5 -45.45 -51.45 -45.35 -51.4 -44.7 -51.35 M-46.45 -51.45 L-46.65 -51.5 -47.0 -51.6 M-46.65 -51.5 L-46.6 -51.5 -46.55 -51.55 -46.1 -51.5 M-46.45 -51.45 L-46.4 -51.45 -46.3 -51.45 -45.35 -51.4 M-46.55 -51.55 L-46.45 -51.45 M-43.0 -47.7 L-43.0 -47.85 -42.9 -47.85 -42.7 -48.4 -43.0 -47.85 M-42.9 -47.85 L-43.0 -47.7 -43.2 -47.25 M-38.15 -48.65 L-38.6 -49.25 -38.0 -48.85 -37.95 -48.8 -36.35 -48.0" fill="none" stroke="#000000" stroke-linecap="round" stroke-linejoin="round" stroke-opacity="0.5019608" stroke-width="1.0"/>
      <path d="M-32.65 -50.3 Q-33.4 -50.4 -34.5 -50.85 -36.2 -51.6 -35.5 -53.45 -34.8 -54.1 -34.25 -53.9 L-34.5 -54.25 Q-34.6 -55.25 -33.85 -55.8 L-31.4 -55.7 Q-30.5 -55.15 -29.85 -53.95 L-29.95 -53.8 -30.9 -54.75 -32.9 -54.85 Q-33.5 -54.35 -33.4 -53.5 L-33.25 -53.25 -34.15 -52.9 Q-34.8 -51.3 -33.45 -50.7 L-32.2 -50.3 -32.3 -50.25 -32.35 -50.2 -32.4 -50.2 Q-32.6 -50.2 -32.65 -50.3 -32.6 -50.2 -32.4 -50.2 L-32.2 -50.15 -33.7 -49.95 Q-34.6 -49.25 -34.35 -48.35 L-33.25 -47.55 -32.55 -47.75 Q-33.1 -47.4 -33.0 -47.05 L-32.4 -46.05 Q-31.9 -45.5 -30.7 -45.9 L-29.85 -46.4 -29.65 -46.3 Q-30.25 -45.45 -31.15 -44.95 -32.65 -44.45 -33.3 -45.1 L-34.05 -46.4 Q-34.05 -46.85 -33.3 -47.15 L-34.15 -47.0 Q-35.05 -47.15 -35.65 -47.9 -36.0 -49.1 -34.8 -49.9 L-32.65 -50.3 M-29.45 -53.0 Q-29.85 -54.45 -29.4 -55.95 -28.9 -57.8 -26.9 -57.25 L-26.85 -57.1 -26.6 -56.15 Q-25.85 -56.9 -25.4 -56.55 -24.55 -56.35 -24.2 -55.55 -23.95 -54.7 -24.2 -53.8 -24.4 -53.1 -25.1 -52.45 -24.0 -53.05 -23.25 -53.1 -20.1 -52.35 -22.1 -50.15 -20.05 -49.3 -21.1 -48.15 -22.1 -46.9 -24.0 -47.45 L-24.15 -47.5 Q-23.25 -47.55 -22.4 -48.5 -21.5 -49.5 -23.2 -50.15 -21.55 -51.95 -24.2 -52.55 L-25.1 -52.45 Q-24.85 -52.8 -25.15 -52.6 L-24.9 -53.15 Q-24.8 -53.95 -24.95 -54.6 L-25.95 -55.35 Q-26.35 -55.65 -26.95 -55.05 L-27.15 -55.85 -27.15 -56.0 Q-28.85 -56.45 -29.3 -54.9 -29.6 -53.8 -29.3 -52.65 L-29.5 -53.0 -29.45 -53.0 M-25.4 -48.05 Q-24.4 -47.1 -24.0 -45.5 L-24.0 -44.45 Q-24.7 -43.25 -26.65 -44.3 L-26.75 -43.45 -28.7 -43.4 Q-30.15 -44.5 -29.45 -46.7 L-29.4 -46.65 Q-29.6 -45.3 -28.7 -44.6 L-27.05 -44.55 -26.95 -45.3 Q-25.3 -44.45 -24.8 -45.55 L-24.75 -46.25 Q-25.05 -47.3 -25.6 -48.0 L-25.45 -48.1 -25.4 -48.05" fill="#ffdbea" fill-rule="evenodd" stroke="none"/>
      <path d="M-32.2 -50.3 L-33.45 -50.7 Q-34.8 -51.3 -34.15 -52.9 L-33.25 -53.25 -33.4 -53.5 Q-33.5 -54.35 -32.9 -54.85 L-30.9 -54.75 -29.95 -53.8 -29.5 -53.0 -29.3 -52.65 Q-29.6 -53.8 -29.3 -54.9 -28.85 -56.45 -27.15 -56.0 L-27.15 -55.85 -26.95 -55.05 Q-26.35 -55.65 -25.95 -55.35 L-24.95 -54.6 Q-24.8 -53.95 -24.9 -53.15 L-25.15 -52.6 -25.9 -52.0 -25.35 -52.35 -25.1 -52.45 -24.2 -52.55 Q-21.55 -51.95 -23.2 -50.15 -21.5 -49.5 -22.4 -48.5 -23.25 -47.55 -24.15 -47.5 L-24.2 -47.5 -24.3 -47.55 -24.15 -47.5 -24.3 -47.55 -25.45 -48.2 -25.5 -48.25 Q-25.8 -48.3 -26.0 -48.45 L-25.6 -48.0 Q-25.05 -47.3 -24.75 -46.25 L-24.8 -45.55 Q-25.3 -44.45 -26.95 -45.3 L-27.05 -44.55 -28.7 -44.6 Q-29.6 -45.3 -29.4 -46.65 L-29.35 -46.9 -29.3 -47.25 -29.25 -47.4 -29.15 -47.85 -29.3 -47.35 -29.45 -46.95 -29.85 -46.4 -30.7 -45.9 Q-31.9 -45.5 -32.4 -46.05 L-33.0 -47.05 Q-33.1 -47.4 -32.55 -47.75 L-33.25 -47.55 -34.35 -48.35 Q-34.6 -49.25 -33.7 -49.95 L-32.2 -50.15 -32.1 -50.15 -31.35 -50.1 -31.45 -50.15 -31.95 -50.2 -32.2 -50.3 M-30.85 -50.1 L-31.35 -50.1 -30.85 -50.1 M-28.7 -50.65 L-29.0 -50.35 -29.0 -49.85 -28.7 -49.55 -28.15 -49.45 Q-27.85 -49.45 -27.75 -49.65 -27.6 -49.9 -27.75 -50.2 L-28.15 -50.6 -28.7 -50.65 M-26.45 -51.75 L-25.9 -52.0 -26.45 -51.75" fill="url(#gradient6)" fill-rule="evenodd" stroke="none"/>
      <path d="M-32.4 -50.2 L-32.35 -50.2 -32.3 -50.25 -32.2 -50.15 -32.4 -50.2 M-29.3 -47.35 L-29.25 -47.4 -29.3 -47.35 -29.15 -47.85 -29.25 -47.4 -29.3 -47.25 -29.3 -47.35" fill="url(#gradient7)" fill-rule="evenodd" stroke="none"/>
      <path d="M-28.7 -50.65 L-28.15 -50.6 -27.75 -50.2 Q-27.6 -49.9 -27.75 -49.65 -27.85 -49.45 -28.15 -49.45 L-28.7 -49.55 -29.0 -49.85 -29.0 -50.35 -28.7 -50.65" fill="#ffffff" fill-rule="evenodd" stroke="none"/>
      <path d="M-29.85 -53.95 Q-30.5 -55.15 -31.4 -55.7 L-33.85 -55.8 Q-34.6 -55.25 -34.5 -54.25 L-34.25 -53.9 Q-34.8 -54.1 -35.5 -53.45 -36.2 -51.6 -34.5 -50.85 -33.4 -50.4 -32.65 -50.3 -32.6 -50.2 -32.4 -50.2 L-32.35 -50.2 -32.3 -50.25 -32.2 -50.15 -32.4 -50.2 M-29.85 -53.95 L-29.45 -53.0 Q-29.85 -54.45 -29.4 -55.95 -28.9 -57.8 -26.9 -57.25 L-26.85 -57.1 -26.6 -56.15 Q-25.85 -56.9 -25.4 -56.55 -24.55 -56.35 -24.2 -55.55 -23.95 -54.7 -24.2 -53.8 -24.4 -53.1 -25.1 -52.45 -24.0 -53.05 -23.25 -53.1 -20.1 -52.35 -22.1 -50.15 -20.05 -49.3 -21.1 -48.15 -22.1 -46.9 -24.0 -47.45 L-24.15 -47.5 -24.3 -47.55 -25.45 -48.2 -25.5 -48.25 Q-25.8 -48.3 -26.0 -48.45 L-25.6 -48.0 M-24.2 -47.5 L-24.3 -47.55 -24.9 -47.8 -25.4 -48.05 Q-24.4 -47.1 -24.0 -45.5 L-24.0 -44.45 Q-24.7 -43.25 -26.65 -44.3 L-26.75 -43.45 -28.7 -43.4 Q-30.15 -44.5 -29.45 -46.7 L-29.65 -46.3 Q-30.25 -45.45 -31.15 -44.95 -32.65 -44.45 -33.3 -45.1 L-34.05 -46.4 Q-34.05 -46.85 -33.3 -47.15 L-34.15 -47.0 Q-35.05 -47.15 -35.65 -47.9 -36.0 -49.1 -34.8 -49.9 L-32.65 -50.3 M-32.2 -50.15 L-32.1 -50.15 -31.35 -50.1 -31.45 -50.15 -31.95 -50.2 -32.3 -50.25 M-32.2 -50.3 L-31.95 -50.2 M-31.35 -50.1 L-30.85 -50.1 M-25.15 -52.6 Q-24.85 -52.8 -25.1 -52.45 L-25.35 -52.35 -25.9 -52.0 -26.45 -51.75 M-25.45 -48.1 L-25.4 -48.05 M-29.5 -53.0 L-29.3 -52.65 M-29.95 -53.8 L-29.5 -53.0 M-25.15 -52.6 L-25.35 -52.35 M-25.9 -52.0 L-25.15 -52.6 M-29.25 -47.4 L-29.3 -47.35 -29.3 -47.25 -29.25 -47.4 -29.15 -47.85 -29.3 -47.35 M-29.45 -46.7 L-29.35 -46.9 -29.3 -47.25 M-29.35 -46.9 L-29.4 -46.65" fill="none" stroke="#000000" stroke-linecap="round" stroke-linejoin="round" stroke-opacity="0.5019608" stroke-width="1.0"/>
      <path d="M12.75 -12.0 L11.9 -12.75 10.2 -12.9 Q9.65 -12.5 9.75 -11.8 L9.95 -11.55 Q9.55 -11.65 9.05 -11.15 8.55 -9.85 9.65 -9.4 L10.75 -9.0 10.65 -8.95 10.6 -8.9 10.55 -8.9 10.4 -9.0 10.55 -8.9 10.8 -8.85 9.5 -8.7 Q8.7 -8.1 9.0 -7.3 9.3 -6.75 9.95 -6.7 L10.5 -6.75 Q10.0 -6.55 10.05 -6.2 L10.55 -5.3 12.05 -5.2 12.8 -5.7 12.95 -5.6 Q12.4 -4.8 11.65 -4.45 10.4 -3.95 9.8 -4.6 9.25 -5.2 9.15 -5.6 9.15 -6.0 9.85 -6.35 L9.05 -6.1 Q8.3 -6.3 7.85 -6.95 7.55 -7.95 8.55 -8.65 L10.4 -9.0 8.8 -9.45 Q7.35 -10.1 8.0 -11.7 8.55 -12.25 9.0 -12.05 L8.85 -12.4 Q8.65 -13.25 9.35 -13.7 L11.4 -13.65 12.85 -12.15 12.75 -12.0 M16.8 -10.95 L17.05 -11.45 Q17.2 -12.1 17.0 -12.65 L16.15 -13.4 Q15.75 -13.6 15.25 -13.1 L15.1 -13.75 15.1 -13.85 Q13.6 -14.25 13.25 -12.95 13.0 -12.0 13.3 -11.05 L13.1 -11.35 13.15 -11.35 Q12.85 -12.6 13.15 -13.85 13.55 -15.4 15.3 -14.95 L15.35 -14.85 15.55 -14.05 Q16.2 -14.7 16.6 -14.35 17.3 -14.15 17.65 -13.55 L17.65 -12.05 Q17.5 -11.4 16.85 -10.85 17.1 -11.15 16.8 -10.95 M17.65 -6.65 Q18.45 -6.55 19.2 -7.35 19.95 -8.25 18.5 -8.85 19.9 -10.4 17.65 -10.95 L16.85 -10.85 18.5 -11.4 Q21.15 -10.8 19.4 -8.8 21.2 -8.15 20.35 -7.1 19.45 -6.05 17.85 -6.55 17.75 -6.55 17.65 -6.65" fill="#ffdbea" fill-rule="evenodd" stroke="none"/>
      <path d="M10.75 -9.0 L9.65 -9.4 Q8.55 -9.85 9.05 -11.15 9.55 -11.65 9.95 -11.55 L9.75 -11.8 Q9.65 -12.5 10.2 -12.9 L11.9 -12.75 12.75 -12.0 13.1 -11.35 13.3 -11.05 Q13.0 -12.0 13.25 -12.95 13.6 -14.25 15.1 -13.85 L15.1 -13.75 15.25 -13.1 Q15.75 -13.6 16.15 -13.4 L17.0 -12.65 Q17.2 -12.1 17.05 -11.45 L16.8 -10.95 16.15 -10.5 Q16.5 -10.65 16.65 -10.75 L16.85 -10.85 17.65 -10.95 Q19.9 -10.4 18.5 -8.85 19.95 -8.25 19.2 -7.35 18.45 -6.55 17.65 -6.65 L16.6 -7.15 16.55 -7.2 16.1 -7.45 16.45 -7.05 17.15 -5.55 17.1 -4.9 Q16.7 -4.0 15.25 -4.7 L15.2 -4.1 13.8 -4.05 Q13.0 -4.75 13.15 -5.9 L13.2 -6.1 13.35 -6.35 13.35 -6.45 13.35 -6.5 13.4 -6.85 13.1 -6.1 12.8 -5.7 12.05 -5.2 10.55 -5.3 10.05 -6.2 Q10.0 -6.55 10.5 -6.75 L9.95 -6.7 Q9.3 -6.75 9.0 -7.3 8.7 -8.1 9.5 -8.7 L10.8 -8.85 11.45 -8.85 11.4 -8.9 10.95 -8.9 10.75 -9.0 M11.9 -8.8 L11.45 -8.85 11.9 -8.8 M15.75 -10.25 L16.15 -10.5 15.75 -10.25 M14.25 -8.25 L14.55 -8.45 14.55 -8.95 14.25 -9.25 13.8 -9.25 13.5 -8.95 Q13.35 -8.8 13.5 -8.6 13.6 -8.35 13.8 -8.35 L14.25 -8.25" fill="url(#gradient8)" fill-rule="evenodd" stroke="none"/>
      <path d="M10.55 -8.9 L10.6 -8.9 10.65 -8.95 10.8 -8.85 10.55 -8.9" fill="url(#gradient9)" fill-rule="evenodd" stroke="none"/>
      <path d="M14.25 -8.25 L13.8 -8.35 Q13.6 -8.35 13.5 -8.6 13.35 -8.8 13.5 -8.95 L13.8 -9.25 14.25 -9.25 14.55 -8.95 14.55 -8.45 14.25 -8.25" fill="#ffffff" fill-rule="evenodd" stroke="none"/>
      <path d="M12.85 -12.15 L11.4 -13.65 9.35 -13.7 Q8.65 -13.25 8.85 -12.4 L9.0 -12.05 Q8.55 -12.25 8.0 -11.7 7.35 -10.1 8.8 -9.45 L10.4 -9.0 10.55 -8.9 10.6 -8.9 10.65 -8.95 10.8 -8.85 11.45 -8.85 11.9 -8.8 M10.75 -9.0 L10.95 -8.9 11.4 -8.9 11.45 -8.85 M16.8 -10.95 Q17.1 -11.15 16.85 -10.85 17.5 -11.4 17.65 -12.05 L17.65 -13.55 Q17.3 -14.15 16.6 -14.35 16.2 -14.7 15.55 -14.05 L15.35 -14.85 15.3 -14.95 Q13.55 -15.4 13.15 -13.85 12.85 -12.6 13.15 -11.35 L12.85 -12.15 M13.1 -11.35 L13.3 -11.05 M12.95 -5.6 Q12.4 -4.8 11.65 -4.45 10.4 -3.95 9.8 -4.6 9.25 -5.2 9.15 -5.6 9.15 -6.0 9.85 -6.35 L9.05 -6.1 Q8.3 -6.3 7.85 -6.95 7.55 -7.95 8.55 -8.65 L10.4 -9.0 M10.8 -8.85 L10.55 -8.9 M16.85 -10.85 L16.65 -10.75 Q16.5 -10.65 16.15 -10.5 L15.75 -10.25 M16.15 -10.5 L16.8 -10.95 16.65 -10.75 M17.65 -6.65 L17.05 -6.85 16.65 -7.05 Q17.5 -6.25 17.8 -4.85 L17.8 -4.0 Q17.2 -2.95 15.5 -3.85 L15.45 -3.15 13.75 -3.05 Q12.5 -4.0 13.1 -5.95 L12.95 -5.6 M13.4 -6.85 L13.35 -6.5 13.35 -6.45 13.35 -6.35 13.2 -6.1 13.15 -5.9 M16.45 -7.05 L16.1 -7.45 16.55 -7.2 16.6 -7.15 17.65 -6.65 Q17.75 -6.55 17.85 -6.55 19.45 -6.05 20.35 -7.1 21.2 -8.15 19.4 -8.8 21.15 -10.8 18.5 -11.4 L16.85 -10.85 M12.75 -12.0 L13.1 -11.35 M10.95 -8.9 L10.65 -8.95 M13.2 -6.1 L13.1 -5.95" fill="none" stroke="#000000" stroke-linecap="round" stroke-linejoin="round" stroke-opacity="0.5019608" stroke-width="1.0"/>
      <path d="M-25.8 -23.9 L-26.0 -23.85 -26.0 -22.45 -27.8 -22.45 -28.4 -23.3 -28.95 -26.15 Q-25.9 -26.6 -24.75 -24.05 L-25.05 -23.55 -25.25 -23.75 -25.6 -23.8 -25.8 -23.9" fill="#ff0000" fill-rule="evenodd" stroke="none"/>
      <path d="M-25.8 -23.9 L-25.6 -23.8 -25.25 -23.75 -25.05 -23.55 -24.75 -24.05 Q-25.9 -26.6 -28.95 -26.15 L-28.4 -23.3 -27.8 -22.45 -26.0 -22.45 -26.0 -23.85 -25.8 -23.9 Z" fill="none" stroke="#000000" stroke-linecap="round" stroke-linejoin="round" stroke-opacity="0.5019608" stroke-width="1.0"/>
      <path d="M-32.25 -26.5 L-32.8 -29.4 Q-29.75 -29.85 -28.6 -27.3 L-28.9 -26.8 -29.1 -26.95 -29.45 -27.0 -29.65 -27.15 -29.85 -27.1 -29.85 -25.7 -31.65 -25.7 -32.25 -26.5" fill="#ff0000" fill-rule="evenodd" stroke="none"/>
      <path d="M-32.25 -26.5 L-31.65 -25.7 -29.85 -25.7 -29.85 -27.1 -29.65 -27.15 -29.45 -27.0 -29.1 -26.95 -28.9 -26.8 -28.6 -27.3 Q-29.75 -29.85 -32.8 -29.4 L-32.25 -26.5 Z" fill="none" stroke="#000000" stroke-linecap="round" stroke-linejoin="round" stroke-opacity="0.5019608" stroke-width="1.0"/>
    </g>
    <radialGradient cx="0" cy="0" gradientTransform="matrix(0.0051, -0.0012, 0.0018, 0.0048, -47.65, -30.1)" gradientUnits="userSpaceOnUse" id="gradient0" r="819.2" spreadMethod="pad">
      <stop offset="0.0" stop-color="#ff8cbc"/>
      <stop offset="1.0" stop-color="#ffffff"/>
    </radialGradient>
    <radialGradient cx="0" cy="0" gradientTransform="matrix(0.0051, -0.0012, 0.0018, 0.0048, -47.65, -30.1)" gradientUnits="userSpaceOnUse" id="gradient1" r="819.2" spreadMethod="pad">
      <stop offset="0.0" stop-color="#f785e9"/>
      <stop offset="1.0" stop-color="#ffffff"/>
    </radialGradient>
    <radialGradient cx="0" cy="0" gradientTransform="matrix(0.0086, 3.0E-4, 7.0E-4, 0.0082, -47.05, -39.4)" gradientUnits="userSpaceOnUse" id="gradient2" r="819.2" spreadMethod="pad">
      <stop offset="0.0" stop-color="#ff8cbc"/>
      <stop offset="1.0" stop-color="#ffffff"/>
    </radialGradient>
    <radialGradient cx="0" cy="0" gradientTransform="matrix(0.0086, 3.0E-4, 7.0E-4, 0.0082, -47.05, -39.4)" gradientUnits="userSpaceOnUse" id="gradient3" r="819.2" spreadMethod="pad">
      <stop offset="0.0" stop-color="#f785e9"/>
      <stop offset="1.0" stop-color="#ffffff"/>
    </radialGradient>
    <radialGradient cx="0" cy="0" gradientTransform="matrix(0.0097, 3.0E-4, 0.0, 0.0092, -41.5, -51.2)" gradientUnits="userSpaceOnUse" id="gradient4" r="819.2" spreadMethod="pad">
      <stop offset="0.0" stop-color="#ff8cbc"/>
      <stop offset="1.0" stop-color="#ffffff"/>
    </radialGradient>
    <radialGradient cx="0" cy="0" gradientTransform="matrix(0.0097, 3.0E-4, 0.0, 0.0092, -41.5, -51.2)" gradientUnits="userSpaceOnUse" id="gradient5" r="819.2" spreadMethod="pad">
      <stop offset="0.0" stop-color="#f785e9"/>
      <stop offset="1.0" stop-color="#ffffff"/>
    </radialGradient>
    <radialGradient cx="0" cy="0" gradientTransform="matrix(0.0075, 2.0E-4, 6.0E-4, 0.0071, -28.3, -50.0)" gradientUnits="userSpaceOnUse" id="gradient6" r="819.2" spreadMethod="pad">
      <stop offset="0.0" stop-color="#ff8cbc"/>
      <stop offset="1.0" stop-color="#ffffff"/>
    </radialGradient>
    <radialGradient cx="0" cy="0" gradientTransform="matrix(0.0075, 2.0E-4, 6.0E-4, 0.0071, -28.3, -50.0)" gradientUnits="userSpaceOnUse" id="gradient7" r="819.2" spreadMethod="pad">
      <stop offset="0.0" stop-color="#f785e9"/>
      <stop offset="1.0" stop-color="#ffffff"/>
    </radialGradient>
    <radialGradient cx="0" cy="0" gradientTransform="matrix(0.0064, 2.0E-4, 5.0E-4, 0.0061, 14.1, -8.65)" gradientUnits="userSpaceOnUse" id="gradient8" r="819.2" spreadMethod="pad">
      <stop offset="0.0" stop-color="#ff8cbc"/>
      <stop offset="1.0" stop-color="#ffffff"/>
    </radialGradient>
    <radialGradient cx="0" cy="0" gradientTransform="matrix(0.0064, 2.0E-4, 5.0E-4, 0.0061, 14.1, -8.65)" gradientUnits="userSpaceOnUse" id="gradient9" r="819.2" spreadMethod="pad">
      <stop offset="0.0" stop-color="#f785e9"/>
      <stop offset="1.0" stop-color="#ffffff"/>
    </radialGradient>
    <g id="shape2" transform="matrix(1.0, 0.0, 0.0, 1.0, -86.9, 70.2)">
      <path d="M123.8 -63.6 Q124.65 -60.8 124.65 -58.65 L124.5 -57.2 124.55 -56.55 123.6 -53.95 123.5 -53.5 123.6 -53.45 Q123.65 -53.2 123.95 -53.1 L124.0 -53.1 Q125.15 -52.3 125.55 -50.0 125.9 -48.25 125.75 -46.35 125.75 -43.2 124.05 -41.4 123.05 -40.3 121.4 -39.55 L121.95 -38.7 122.25 -36.4 Q122.25 -28.4 119.05 -25.95 116.6 -24.1 109.25 -24.1 107.25 -24.1 103.1 -25.5 L101.8 -26.25 99.4 -26.9 99.35 -26.9 96.25 -28.45 93.55 -30.3 Q93.0 -30.95 93.0 -32.5 93.0 -34.5 93.85 -37.45 L94.65 -38.95 95.15 -39.65 94.55 -39.8 92.6 -38.65 Q89.9 -37.2 88.5 -37.2 87.8 -37.2 86.9 -37.65 87.2 -38.15 91.45 -39.7 L92.65 -40.45 Q91.2 -41.0 90.25 -41.65 88.55 -42.8 88.25 -44.4 88.1 -45.25 88.3 -46.45 88.2 -49.5 89.15 -51.85 90.45 -54.9 93.25 -54.5 L93.25 -55.2 93.35 -58.55 Q92.8 -58.75 92.15 -59.15 L90.25 -60.25 Q90.75 -61.4 93.2 -60.85 L93.55 -60.75 Q93.75 -62.5 94.15 -63.35 95.75 -66.7 100.7 -68.35 102.8 -69.05 105.5 -69.45 L109.45 -69.9 110.55 -70.0 110.85 -70.05 110.95 -70.05 113.15 -70.15 113.75 -70.15 Q118.25 -70.2 119.9 -69.25 121.6 -68.2 122.15 -67.4 L122.75 -66.3 123.8 -63.6 M120.5 -54.2 Q121.75 -54.9 122.4 -55.8 L123.15 -57.0 123.4 -58.35 123.3 -59.6 122.35 -63.75 121.85 -65.45 Q121.35 -66.85 119.3 -67.8 L118.4 -68.2 114.25 -68.85 105.65 -67.9 Q101.2 -66.75 99.3 -65.85 L98.95 -65.65 Q97.05 -64.7 96.4 -63.45 95.75 -62.25 95.45 -61.1 94.8 -58.0 95.4 -55.5 L95.6 -54.65 Q95.8 -53.85 96.45 -53.45 96.9 -53.1 98.3 -52.8 L99.05 -52.7 99.65 -52.6 99.8 -52.55 Q108.5 -51.9 115.5 -52.9 118.4 -53.25 119.8 -53.9 L120.5 -54.2 M120.5 -41.3 L122.5 -42.65 Q123.9 -44.0 123.9 -47.35 L123.6 -49.7 123.45 -50.9 123.4 -51.1 Q123.15 -52.2 122.15 -52.2 121.6 -52.2 121.15 -51.85 L121.1 -51.85 115.6 -51.0 110.65 -50.7 105.8 -50.7 101.7 -50.75 99.8 -50.85 95.5 -51.2 95.15 -51.3 Q95.05 -51.3 94.95 -51.4 L94.7 -51.45 Q94.2 -51.65 93.9 -52.05 L93.75 -52.35 93.05 -52.55 Q92.15 -52.7 91.15 -51.6 L90.3 -50.25 Q90.15 -49.7 90.15 -47.5 90.15 -45.55 90.4 -44.9 91.0 -43.35 93.2 -42.4 L93.95 -42.15 98.4 -41.2 107.5 -40.0 Q112.2 -39.6 115.1 -40.1 L119.55 -40.95 120.5 -41.3 M120.1 -37.35 L119.45 -38.2 Q118.9 -38.35 118.35 -38.6 L112.75 -38.15 99.35 -38.85 98.9 -38.95 97.05 -39.05 96.85 -38.95 96.65 -38.65 Q95.7 -37.4 95.65 -36.95 L95.25 -35.45 94.9 -33.8 95.1 -32.05 Q95.25 -31.4 95.6 -30.9 L96.25 -30.2 97.0 -29.75 Q98.25 -29.0 99.6 -28.35 103.65 -26.55 108.05 -26.35 L110.1 -26.35 112.0 -26.45 Q114.95 -26.45 116.85 -27.25 118.35 -27.95 119.1 -29.2 120.25 -31.05 120.25 -36.0 L120.1 -37.35" fill="#000000" fill-rule="evenodd" stroke="none"/>
      <path d="M118.4 -68.2 L119.3 -67.8 Q121.35 -66.85 121.85 -65.45 L122.35 -63.75 123.3 -59.6 123.4 -58.35 123.15 -57.0 122.4 -55.8 Q121.75 -54.9 120.5 -54.2 L120.8 -55.95 Q120.8 -60.65 120.0 -64.15 119.4 -66.75 118.4 -68.2 M99.05 -52.7 L98.3 -52.8 Q96.9 -53.1 96.45 -53.45 95.8 -53.85 95.6 -54.65 L95.4 -55.5 Q94.8 -58.0 95.45 -61.1 95.75 -62.25 96.4 -63.45 97.05 -64.7 98.95 -65.65 L99.3 -65.85 Q98.2 -63.0 98.2 -58.35 L98.25 -55.25 99.05 -52.7 M121.1 -51.85 L121.15 -51.85 Q121.6 -52.2 122.15 -52.2 123.15 -52.2 123.4 -51.1 L123.45 -50.9 123.6 -49.7 123.9 -47.35 Q123.9 -44.0 122.5 -42.65 L120.5 -41.3 120.9 -43.25 Q121.6 -46.4 121.6 -49.35 121.6 -50.75 121.1 -51.85 M93.95 -42.15 L93.2 -42.4 Q91.0 -43.35 90.4 -44.9 90.15 -45.55 90.15 -47.5 90.15 -49.7 90.3 -50.25 L91.15 -51.6 Q92.15 -52.7 93.05 -52.55 L93.75 -52.35 93.9 -52.05 Q94.2 -51.65 94.7 -51.45 L94.1 -50.95 Q93.4 -49.95 93.4 -46.05 93.4 -43.4 93.95 -42.15 M99.35 -38.85 L98.3 -35.65 Q97.0 -31.5 97.0 -30.05 L97.0 -29.75 96.25 -30.2 95.6 -30.9 Q95.25 -31.4 95.1 -32.05 L94.9 -33.8 95.25 -35.45 95.65 -36.95 Q95.7 -37.4 96.65 -38.65 L96.85 -38.95 97.05 -39.05 98.9 -38.95 99.35 -38.85 M116.85 -27.25 Q117.65 -30.95 118.2 -32.75 118.5 -33.85 119.5 -35.75 L120.1 -37.35 120.25 -36.0 Q120.25 -31.05 119.1 -29.2 118.35 -27.95 116.85 -27.25" fill="#bdbdbd" fill-rule="evenodd" stroke="none"/>
      <path d="M120.5 -54.2 L119.8 -53.9 Q118.4 -53.25 115.5 -52.9 108.5 -51.9 99.8 -52.55 L99.65 -52.6 99.05 -52.7 98.25 -55.25 98.2 -58.35 Q98.2 -63.0 99.3 -65.85 101.2 -66.75 105.65 -67.9 L114.25 -68.85 118.4 -68.2 Q119.4 -66.75 120.0 -64.15 120.8 -60.65 120.8 -55.95 L120.5 -54.2 M120.5 -41.3 L119.55 -40.95 115.1 -40.1 Q112.2 -39.6 107.5 -40.0 L98.4 -41.2 93.95 -42.15 Q93.4 -43.4 93.4 -46.05 93.4 -49.95 94.1 -50.95 L94.7 -51.45 94.95 -51.4 Q95.05 -51.3 95.15 -51.3 L95.5 -51.2 99.8 -50.85 101.7 -50.75 105.8 -50.7 110.65 -50.7 115.6 -51.0 121.1 -51.85 Q121.6 -50.75 121.6 -49.35 121.6 -46.4 120.9 -43.25 L120.5 -41.3 M99.35 -38.85 L112.75 -38.15 118.35 -38.6 Q118.9 -38.35 119.45 -38.2 L120.1 -37.35 119.5 -35.75 Q118.5 -33.85 118.2 -32.75 117.65 -30.95 116.85 -27.25 114.95 -26.45 112.0 -26.45 L110.1 -26.35 108.05 -26.35 Q103.65 -26.55 99.6 -28.35 98.25 -29.0 97.0 -29.75 L97.0 -30.05 Q97.0 -31.5 98.3 -35.65 L99.35 -38.85" fill="#999999" fill-rule="evenodd" stroke="none"/>
    </g>
  </defs>
</svg>
