<?xml version="1.0" encoding="UTF-8" standalone="no"?>
<svg xmlns:xlink="http://www.w3.org/1999/xlink" height="531.5px" width="460.6px" xmlns="http://www.w3.org/2000/svg">
  <g transform="matrix(1.0, 0.0, 0.0, 1.0, 193.65, 334.05)">
    <use height="77.45" transform="matrix(1.0, 0.0, 0.0, 1.0, -89.75, -61.6)" width="252.7" xlink:href="#shape0"/>
  </g>
  <defs>
    <g id="shape0" transform="matrix(1.0, 0.0, 0.0, 1.0, 89.75, 61.6)">
      <path d="M44.6 -59.5 L44.65 -60.0 Q46.2 -59.25 47.3 -56.3 48.25 -53.65 48.25 -51.0 48.25 -49.0 46.55 -46.85 44.65 -44.55 42.2 -44.55 41.2 -44.55 39.55 -45.6 L39.45 -45.65 Q45.8 -52.7 44.6 -59.5" fill="#095209" fill-rule="evenodd" stroke="none"/>
      <path d="M39.45 -45.65 Q37.9 -46.7 37.55 -47.45 37.2 -48.25 37.2 -48.85 37.2 -51.6 40.9 -54.95 44.15 -57.9 44.6 -59.5 45.8 -52.7 39.45 -45.65" fill="#238523" fill-rule="evenodd" stroke="none"/>
      <path d="M44.65 -60.0 Q46.2 -59.25 47.3 -56.3 48.25 -53.65 48.25 -51.0 48.25 -49.0 46.55 -46.85 44.65 -44.55 42.2 -44.55 41.2 -44.55 39.55 -45.6 L39.45 -45.65 Q37.9 -46.7 37.55 -47.45 37.2 -48.25 37.2 -48.85 37.2 -51.6 40.9 -54.95 44.15 -57.9 44.6 -59.5" fill="none" stroke="#000000" stroke-linecap="round" stroke-linejoin="round" stroke-opacity="0.2509804" stroke-width="1.0"/>
      <path d="M162.15 -41.8 L59.3 -40.65 59.3 -45.25 145.65 -46.2 160.5 -46.35 Q161.7 -44.1 162.15 -41.8" fill="#ffffff" fill-rule="evenodd" stroke="none"/>
      <path d="M149.0 -32.2 L59.3 -31.25 59.3 -33.6 62.95 -33.6 68.75 -33.55 90.65 -33.45 106.7 -33.55 116.0 -33.8 123.3 -34.05 139.1 -34.55 153.45 -34.55 161.75 -34.85 160.7 -32.35 149.0 -32.2" fill="#b3b3b3" fill-rule="evenodd" stroke="none"/>
      <path d="M59.3 -27.95 L62.95 -27.9 Q88.15 -27.4 106.7 -27.4 L110.85 -27.45 111.05 -27.45 116.0 -27.5 131.8 -28.15 149.3 -28.9 Q149.15 -27.7 148.4 -26.5 L59.3 -25.55 59.3 -27.95" fill="#404040" fill-rule="evenodd" stroke="none"/>
      <path d="M161.75 -34.85 L153.45 -34.55 139.1 -34.55 123.3 -34.05 116.0 -33.8 106.7 -33.55 90.65 -33.45 68.75 -33.55 62.95 -33.6 59.3 -33.6 59.3 -40.65 162.15 -41.8 Q162.9 -38.2 161.75 -34.85" fill="#dbdbdb" fill-rule="evenodd" stroke="none"/>
      <path d="M149.3 -28.9 L131.8 -28.15 116.0 -27.5 111.05 -27.45 110.85 -27.45 106.7 -27.4 Q88.15 -27.4 62.95 -27.9 L59.3 -27.95 59.3 -31.25 149.0 -32.2 Q149.55 -30.5 149.3 -28.9" fill="#636363" fill-rule="evenodd" stroke="none"/>
      <path d="M145.65 -46.2 L149.05 -48.45 156.75 -48.95 158.05 -51.2 159.95 -51.2 160.5 -46.35 145.65 -46.2" fill="#ff3355" fill-rule="evenodd" stroke="none"/>
      <path d="M149.3 -28.9 Q149.55 -30.5 149.0 -32.2 L59.3 -31.25 M59.3 -25.55 L148.4 -26.5 Q149.15 -27.7 149.3 -28.9 M161.75 -34.85 Q162.9 -38.2 162.15 -41.8 161.7 -44.1 160.5 -46.35 L159.95 -51.2 158.05 -51.2 156.75 -48.95 149.05 -48.45 145.65 -46.2 160.5 -46.35 M59.3 -45.25 L145.65 -46.2 M161.75 -34.85 L160.7 -32.35 149.0 -32.2" fill="none" stroke="#000000" stroke-linecap="round" stroke-linejoin="round" stroke-opacity="0.6627451" stroke-width="1.0"/>
      <path d="M105.65 -25.9 L117.3 -25.9 117.4 -19.8 117.3 -25.9 127.85 -26.05 127.95 -22.4 Q128.0 -19.95 125.55 -19.9 L117.4 -19.8 105.65 -19.8 105.65 -25.9 105.65 -19.8 95.4 -19.65 95.25 -25.75 95.4 -19.65 88.0 -19.55 Q85.55 -19.5 85.5 -21.9 L85.45 -25.55 95.25 -25.75 105.65 -25.9" fill="#bd0044" fill-rule="evenodd" stroke="none"/>
      <path d="M117.3 -25.9 L105.65 -25.9 105.65 -34.3 105.65 -25.9 95.25 -25.75 95.15 -34.15 95.25 -25.75 85.45 -25.55 85.35 -31.5 Q85.3 -34.0 87.8 -34.05 L95.15 -34.15 105.65 -34.3 117.2 -34.3 125.35 -34.4 Q127.75 -34.45 127.8 -31.95 L127.85 -26.05 117.3 -25.9 117.2 -34.3 117.3 -25.9" fill="#ff3355" fill-rule="evenodd" stroke="none"/>
      <path d="M105.65 -25.9 L105.65 -19.8 117.4 -19.8 117.3 -25.9 117.2 -34.3 105.65 -34.3 105.65 -25.9 M95.25 -25.75 L95.4 -19.65 105.65 -19.8 M95.25 -25.75 L95.15 -34.15 87.8 -34.05 Q85.3 -34.0 85.35 -31.5 L85.45 -25.55 85.5 -21.9 Q85.55 -19.5 88.0 -19.55 L95.4 -19.65 M95.15 -34.15 L105.65 -34.3 M117.2 -34.3 L125.35 -34.4 Q127.75 -34.45 127.8 -31.95 L127.85 -26.05 127.95 -22.4 Q128.0 -19.95 125.55 -19.9 L117.4 -19.8" fill="none" stroke="#000000" stroke-linecap="round" stroke-linejoin="round" stroke-opacity="0.6627451" stroke-width="1.0"/>
      <path d="M54.55 -52.35 L54.75 -52.7 Q55.55 -51.55 55.1 -49.1 54.7 -46.9 53.65 -45.05 52.85 -43.7 50.9 -42.95 48.6 -42.05 46.95 -43.0 46.25 -43.4 45.6 -44.8 L45.5 -44.9 Q52.65 -47.25 54.55 -52.35" fill="#095209" fill-rule="evenodd" stroke="none"/>
      <path d="M45.5 -44.9 Q44.85 -46.2 44.9 -46.9 L45.25 -48.0 Q46.3 -49.9 50.2 -50.7 53.6 -51.5 54.55 -52.35 52.65 -47.25 45.5 -44.9" fill="#238523" fill-rule="evenodd" stroke="none"/>
      <path d="M54.75 -52.7 Q55.55 -51.55 55.1 -49.1 54.7 -46.9 53.65 -45.05 52.85 -43.7 50.9 -42.95 48.6 -42.05 46.95 -43.0 46.25 -43.4 45.6 -44.8 L45.5 -44.9 Q44.85 -46.2 44.9 -46.9 L45.25 -48.0 Q46.3 -49.9 50.2 -50.7 53.6 -51.5 54.55 -52.35" fill="none" stroke="#000000" stroke-linecap="round" stroke-linejoin="round" stroke-opacity="0.2509804" stroke-width="1.0"/>
      <path d="M15.2 -46.5 L14.1 -51.8 Q16.7 -53.1 19.35 -52.9 L20.85 -50.45 33.9 -49.55 Q35.7 -48.05 35.35 -46.6 L17.15 -47.0 15.2 -46.5" fill="#ff3355" fill-rule="evenodd" stroke="none"/>
      <path d="M39.5 -24.25 L39.0 -24.0 Q35.6 -22.55 35.7 -20.6 36.0 -17.05 34.8 -13.7 23.6 -9.3 11.75 -11.75 9.85 -16.35 10.6 -20.95 10.85 -23.55 8.75 -24.25 L14.45 -24.25 Q12.7 -19.05 14.55 -14.55 23.75 -12.65 32.5 -16.05 33.4 -18.6 33.15 -21.05 33.0 -23.0 34.6 -24.25 L39.5 -24.25 M-88.5 -2.2 L-88.5 -2.45 Q-90.0 -10.5 -88.45 -18.5 -87.15 -19.75 -85.3 -19.45 -85.3 -11.05 -84.1 -3.65 -85.65 -2.9 -87.65 -2.45 -87.8 -2.35 -87.9 -2.35 L-88.5 -2.2 M3.75 -40.95 Q3.8 -43.6 6.65 -45.35 9.2 -46.95 13.25 -45.95 8.1 -44.3 3.75 -40.95" fill="#404040" fill-rule="evenodd" stroke="none"/>
      <path d="M3.45 -24.25 Q-8.9 -19.85 -13.95 -3.5 -21.35 -3.95 -26.1 -6.65 -50.65 6.3 -78.35 15.35 L-78.95 14.05 Q-82.55 6.05 -84.1 -3.65 -85.3 -11.05 -85.3 -19.45 L-85.3 -21.3 Q-60.95 -24.6 -37.25 -24.4 L-27.5 -23.6 Q-23.3 -23.0 -18.45 -28.3 -12.8 -37.9 3.25 -40.6 0.8 -38.7 -1.45 -36.2 -2.7 -28.7 1.3 -24.25 L3.45 -24.25 M-21.35 -21.8 Q-24.1 -14.8 -25.7 -8.45 -24.1 -14.8 -21.35 -21.8" fill="url(#gradient0)" fill-rule="evenodd" stroke="none"/>
      <path d="M35.35 -46.6 L61.0 -46.15 61.0 -22.6 49.2 -22.6 47.4 -24.25 39.5 -24.25 34.6 -24.25 14.45 -24.25 8.75 -24.25 3.45 -24.25 1.3 -24.25 Q-2.7 -28.7 -1.45 -36.2 0.8 -38.7 3.25 -40.6 L3.75 -40.95 Q8.1 -44.3 13.25 -45.95 L15.2 -46.5 17.15 -47.0 35.35 -46.6" fill="url(#gradient1)" fill-rule="evenodd" stroke="none"/>
      <path d="M-78.95 14.05 L-82.4 14.2 Q-86.95 5.9 -88.5 -2.2 L-87.9 -2.35 Q-87.8 -2.35 -87.65 -2.45 -85.65 -2.9 -84.1 -3.65 -82.55 6.05 -78.95 14.05" fill="#262626" fill-rule="evenodd" stroke="none"/>
      <path d="M15.2 -46.5 L14.1 -51.8 Q16.7 -53.1 19.35 -52.9 L20.85 -50.45 33.9 -49.55 Q35.7 -48.05 35.35 -46.6 L61.0 -46.15 61.0 -22.6 49.2 -22.6 47.4 -24.25 39.5 -24.25 39.0 -24.0 Q35.6 -22.55 35.7 -20.6 36.0 -17.05 34.8 -13.7 23.6 -9.3 11.75 -11.75 9.85 -16.35 10.6 -20.95 10.85 -23.55 8.75 -24.25 L3.45 -24.25 Q-8.9 -19.85 -13.95 -3.5 -21.35 -3.95 -26.1 -6.65 -50.65 6.3 -78.35 15.35 L-78.95 14.05 -82.4 14.2 Q-86.95 5.9 -88.5 -2.2 L-88.5 -2.45 Q-90.0 -10.5 -88.45 -18.5 -87.15 -19.75 -85.3 -19.45 L-85.3 -21.3 Q-60.95 -24.6 -37.25 -24.4 L-27.5 -23.6 Q-23.3 -23.0 -18.45 -28.3 -12.8 -37.9 3.25 -40.6 L3.75 -40.95 Q3.8 -43.6 6.65 -45.35 9.2 -46.95 13.25 -45.95 L15.2 -46.5 17.15 -47.0 35.35 -46.6 M39.5 -24.25 L34.6 -24.25 Q33.0 -23.0 33.15 -21.05 33.4 -18.6 32.5 -16.05 23.75 -12.65 14.55 -14.55 12.7 -19.05 14.45 -24.25 L8.75 -24.25 M3.45 -24.25 L1.3 -24.25 Q-2.7 -28.7 -1.45 -36.2 0.8 -38.7 3.25 -40.6 M3.75 -40.95 Q8.1 -44.3 13.25 -45.95 M14.45 -24.25 L34.6 -24.25 M-25.7 -8.45 Q-24.1 -14.8 -21.35 -21.8 M-78.95 14.05 Q-82.55 6.05 -84.1 -3.65 -85.3 -11.05 -85.3 -19.45" fill="none" stroke="#000000" stroke-linecap="round" stroke-linejoin="round" stroke-opacity="0.5019608" stroke-width="1.0"/>
      <path d="M54.6 -44.1 Q56.75 -44.1 56.75 -41.95 L56.75 -37.3 Q56.75 -35.2 54.6 -35.2 L33.05 -35.2 Q30.9 -35.2 30.9 -37.3 L30.9 -41.95 Q30.9 -44.1 33.05 -44.1 L54.6 -44.1" fill="#000000" fill-opacity="0.6" fill-rule="evenodd" stroke="none"/>
      <path d="M54.6 -44.1 L33.05 -44.1 Q30.9 -44.1 30.9 -41.95 L30.9 -37.3 Q30.9 -35.2 33.05 -35.2 L54.6 -35.2 Q56.75 -35.2 56.75 -37.3 L56.75 -41.95 Q56.75 -44.1 54.6 -44.1 Z" fill="none" stroke="#000000" stroke-linecap="round" stroke-linejoin="round" stroke-opacity="0.5019608" stroke-width="1.0"/>
      <path d="M16.2 -39.7 Q16.65 -40.15 17.3 -40.15 17.95 -40.15 18.4 -39.7 18.9 -39.2 18.9 -38.6 18.9 -37.95 18.4 -37.45 17.95 -37.0 17.3 -37.0 16.65 -37.0 16.2 -37.45 15.7 -37.95 15.7 -38.6 15.7 -39.2 16.2 -39.7" fill="#124f14" fill-rule="evenodd" stroke="none"/>
      <path d="M16.2 -39.7 Q16.65 -40.15 17.3 -40.15 17.95 -40.15 18.4 -39.7 18.9 -39.2 18.9 -38.6 18.9 -37.95 18.4 -37.45 17.95 -37.0 17.3 -37.0 16.65 -37.0 16.2 -37.45 15.7 -37.95 15.7 -38.6 15.7 -39.2 16.2 -39.7 Z" fill="none" stroke="#000000" stroke-linecap="round" stroke-linejoin="round" stroke-opacity="0.5019608" stroke-width="1.0"/>
      <path d="M9.0 -31.45 Q9.5 -31.9 10.1 -31.9 10.75 -31.9 11.2 -31.45 11.7 -30.95 11.7 -30.35 11.7 -29.7 11.2 -29.2 10.75 -28.75 10.1 -28.75 9.5 -28.75 9.0 -29.2 8.5 -29.7 8.5 -30.35 8.5 -30.95 9.0 -31.45" fill="#124f14" fill-rule="evenodd" stroke="none"/>
      <path d="M9.0 -31.45 Q9.5 -31.9 10.1 -31.9 10.75 -31.9 11.2 -31.45 11.7 -30.95 11.7 -30.35 11.7 -29.7 11.2 -29.2 10.75 -28.75 10.1 -28.75 9.5 -28.75 9.0 -29.2 8.5 -29.7 8.5 -30.35 8.5 -30.95 9.0 -31.45 Z" fill="none" stroke="#000000" stroke-linecap="round" stroke-linejoin="round" stroke-opacity="0.5019608" stroke-width="1.0"/>
      <path d="M-66.85 -14.7 Q-67.75 -14.1 -69.05 -14.05 -70.3 -13.95 -71.25 -14.45 -72.2 -14.85 -72.25 -15.6 -72.3 -16.35 -71.35 -16.95 -70.5 -17.45 -69.25 -17.55 L-66.95 -17.2 Q-66.05 -16.7 -66.0 -15.95 -65.95 -15.2 -66.85 -14.7" fill="#ffffff" fill-rule="evenodd" stroke="none"/>
      <path d="M-66.85 -14.7 Q-67.75 -14.1 -69.05 -14.05 -70.3 -13.95 -71.25 -14.45 -72.2 -14.85 -72.25 -15.6 -72.3 -16.35 -71.35 -16.95 -70.5 -17.45 -69.25 -17.55 L-66.95 -17.2 Q-66.05 -16.7 -66.0 -15.95 -65.95 -15.2 -66.85 -14.7 Z" fill="none" stroke="#000000" stroke-linecap="round" stroke-linejoin="round" stroke-opacity="0.2509804" stroke-width="0.5"/>
      <path d="M-62.05 4.8 Q-62.8 5.6 -64.0 5.95 L-66.25 6.1 Q-67.3 5.9 -67.5 5.2 -67.75 4.5 -67.0 3.7 -66.25 2.95 -65.0 2.6 L-62.8 2.4 Q-61.8 2.7 -61.55 3.4 -61.35 4.1 -62.05 4.8" fill="#ffffff" fill-rule="evenodd" stroke="none"/>
      <path d="M-62.05 4.8 Q-62.8 5.6 -64.0 5.95 L-66.25 6.1 Q-67.3 5.9 -67.5 5.2 -67.75 4.5 -67.0 3.7 -66.25 2.95 -65.0 2.6 L-62.8 2.4 Q-61.8 2.7 -61.55 3.4 -61.35 4.1 -62.05 4.8 Z" fill="none" stroke="#000000" stroke-linecap="round" stroke-linejoin="round" stroke-opacity="0.2509804" stroke-width="0.5"/>
      <path d="M-56.8 -5.9 Q-57.65 -5.3 -58.95 -5.1 L-61.15 -5.3 Q-62.15 -5.65 -62.25 -6.4 -62.35 -7.15 -61.5 -7.75 -60.65 -8.4 -59.4 -8.55 L-57.15 -8.35 Q-56.2 -8.0 -56.1 -7.25 -56.0 -6.5 -56.8 -5.9" fill="#ffffff" fill-rule="evenodd" stroke="none"/>
      <path d="M-56.8 -5.9 Q-57.65 -5.3 -58.95 -5.1 L-61.15 -5.3 Q-62.15 -5.65 -62.25 -6.4 -62.35 -7.15 -61.5 -7.75 -60.65 -8.4 -59.4 -8.55 L-57.15 -8.35 Q-56.2 -8.0 -56.1 -7.25 -56.0 -6.5 -56.8 -5.9 Z" fill="none" stroke="#000000" stroke-linecap="round" stroke-linejoin="round" stroke-opacity="0.2509804" stroke-width="0.5"/>
      <path d="M-72.9 -2.85 Q-73.75 -2.25 -75.05 -2.05 L-77.25 -2.25 Q-78.25 -2.6 -78.35 -3.35 -78.45 -4.1 -77.6 -4.7 -76.75 -5.35 -75.5 -5.5 L-73.25 -5.3 Q-72.3 -4.95 -72.2 -4.2 -72.1 -3.45 -72.9 -2.85" fill="#ffffff" fill-rule="evenodd" stroke="none"/>
      <path d="M-72.9 -2.85 Q-73.75 -2.25 -75.05 -2.05 L-77.25 -2.25 Q-78.25 -2.6 -78.35 -3.35 -78.45 -4.1 -77.6 -4.7 -76.75 -5.35 -75.5 -5.5 L-73.25 -5.3 Q-72.3 -4.95 -72.2 -4.2 -72.1 -3.45 -72.9 -2.85 Z" fill="none" stroke="#000000" stroke-linecap="round" stroke-linejoin="round" stroke-opacity="0.2509804" stroke-width="0.5"/>
      <path d="M-49.0 -18.8 Q-49.85 -18.3 -51.0 -18.25 -52.15 -18.15 -52.95 -18.6 -53.85 -19.0 -53.9 -19.7 -53.9 -20.35 -53.1 -20.9 L-51.15 -21.4 -49.15 -21.1 Q-48.25 -20.65 -48.25 -20.0 -48.2 -19.3 -49.0 -18.8" fill="#ffffff" fill-rule="evenodd" stroke="none"/>
      <path d="M-49.0 -18.8 Q-49.85 -18.3 -51.0 -18.25 -52.15 -18.15 -52.95 -18.6 -53.85 -19.0 -53.9 -19.7 -53.9 -20.35 -53.1 -20.9 L-51.15 -21.4 -49.15 -21.1 Q-48.25 -20.65 -48.25 -20.0 -48.2 -19.3 -49.0 -18.8 Z" fill="none" stroke="#000000" stroke-linecap="round" stroke-linejoin="round" stroke-opacity="0.2509804" stroke-width="0.5"/>
      <path d="M-44.7 -1.1 Q-45.4 -0.4 -46.5 -0.05 L-48.5 0.05 Q-49.5 -0.15 -49.7 -0.8 -49.9 -1.4 -49.15 -2.15 -48.55 -2.8 -47.4 -3.1 L-45.35 -3.3 Q-44.45 -3.05 -44.25 -2.45 -44.05 -1.8 -44.7 -1.1" fill="#ffffff" fill-rule="evenodd" stroke="none"/>
      <path d="M-44.7 -1.1 Q-45.4 -0.4 -46.5 -0.05 L-48.5 0.05 Q-49.5 -0.15 -49.7 -0.8 -49.9 -1.4 -49.15 -2.15 -48.55 -2.8 -47.4 -3.1 L-45.35 -3.3 Q-44.45 -3.05 -44.25 -2.45 -44.05 -1.8 -44.7 -1.1 Z" fill="none" stroke="#000000" stroke-linecap="round" stroke-linejoin="round" stroke-opacity="0.2509804" stroke-width="0.5"/>
      <path d="M-39.85 -10.8 Q-40.65 -10.25 -41.8 -10.1 L-43.8 -10.25 Q-44.7 -10.6 -44.8 -11.25 -44.9 -11.9 -44.1 -12.5 -43.35 -13.1 -42.2 -13.25 L-40.15 -13.05 Q-39.3 -12.65 -39.2 -12.0 -39.1 -11.35 -39.85 -10.8" fill="#ffffff" fill-rule="evenodd" stroke="none"/>
      <path d="M-39.85 -10.8 Q-40.65 -10.25 -41.8 -10.1 L-43.8 -10.25 Q-44.7 -10.6 -44.8 -11.25 -44.9 -11.9 -44.1 -12.5 -43.35 -13.1 -42.2 -13.25 L-40.15 -13.05 Q-39.3 -12.65 -39.2 -12.0 -39.1 -11.35 -39.85 -10.8 Z" fill="none" stroke="#000000" stroke-linecap="round" stroke-linejoin="round" stroke-opacity="0.2509804" stroke-width="0.5"/>
      <path d="M-32.15 -19.9 Q-32.8 -19.5 -33.7 -19.5 L-35.2 -19.75 Q-35.85 -20.05 -35.9 -20.55 -35.95 -21.05 -35.3 -21.5 L-33.8 -21.9 -32.25 -21.65 Q-31.6 -21.3 -31.55 -20.8 -31.5 -20.3 -32.15 -19.9" fill="#ffffff" fill-rule="evenodd" stroke="none"/>
      <path d="M-32.15 -19.9 Q-32.8 -19.5 -33.7 -19.5 L-35.2 -19.75 Q-35.85 -20.05 -35.9 -20.55 -35.95 -21.05 -35.3 -21.5 L-33.8 -21.9 -32.25 -21.65 Q-31.6 -21.3 -31.55 -20.8 -31.5 -20.3 -32.15 -19.9 Z" fill="none" stroke="#000000" stroke-linecap="round" stroke-linejoin="round" stroke-opacity="0.2509804" stroke-width="0.5"/>
      <path d="M-29.35 -8.0 Q-29.9 -7.4 -30.75 -7.15 L-32.3 -7.1 Q-33.0 -7.25 -33.2 -7.75 -33.35 -8.2 -32.8 -8.75 -32.3 -9.2 -31.45 -9.5 L-29.9 -9.65 Q-29.2 -9.4 -29.05 -8.95 -28.9 -8.45 -29.35 -8.0" fill="#ffffff" fill-rule="evenodd" stroke="none"/>
      <path d="M-29.35 -8.0 Q-29.9 -7.4 -30.75 -7.15 L-32.3 -7.1 Q-33.0 -7.25 -33.2 -7.75 -33.35 -8.2 -32.8 -8.75 -32.3 -9.2 -31.45 -9.5 L-29.9 -9.65 Q-29.2 -9.4 -29.05 -8.95 -28.9 -8.45 -29.35 -8.0 Z" fill="none" stroke="#000000" stroke-linecap="round" stroke-linejoin="round" stroke-opacity="0.2509804" stroke-width="0.5"/>
      <path d="M-15.55 -13.8 Q-15.5 -13.0 -15.9 -12.25 -16.3 -11.5 -17.0 -11.1 -17.55 -10.75 -18.05 -10.9 -18.5 -11.15 -18.5 -11.9 L-18.05 -13.45 -17.1 -14.6 -16.0 -14.75 Q-15.5 -14.5 -15.55 -13.8" fill="#ffffff" fill-rule="evenodd" stroke="none"/>
      <path d="M-15.55 -13.8 Q-15.5 -13.0 -15.9 -12.25 -16.3 -11.5 -17.0 -11.1 -17.55 -10.75 -18.05 -10.9 -18.5 -11.15 -18.5 -11.9 L-18.05 -13.45 -17.1 -14.6 -16.0 -14.75 Q-15.5 -14.5 -15.55 -13.8 Z" fill="none" stroke="#000000" stroke-linecap="round" stroke-linejoin="round" stroke-opacity="0.2509804" stroke-width="0.5"/>
      <path d="M-10.9 -22.8 Q-10.8 -22.0 -11.25 -21.25 -11.65 -20.45 -12.3 -20.1 -12.95 -19.65 -13.4 -19.9 -13.85 -20.15 -13.85 -20.85 L-13.4 -22.4 -12.4 -23.6 -11.3 -23.7 Q-10.85 -23.45 -10.9 -22.8" fill="#ffffff" fill-rule="evenodd" stroke="none"/>
      <path d="M-10.9 -22.8 Q-10.8 -22.0 -11.25 -21.25 -11.65 -20.45 -12.3 -20.1 -12.95 -19.65 -13.4 -19.9 -13.85 -20.15 -13.85 -20.85 L-13.4 -22.4 -12.4 -23.6 -11.3 -23.7 Q-10.85 -23.45 -10.9 -22.8 Z" fill="none" stroke="#000000" stroke-linecap="round" stroke-linejoin="round" stroke-opacity="0.2509804" stroke-width="0.5"/>
      <path d="M-3.0 -30.1 Q-3.3 -29.25 -4.15 -28.55 -4.9 -27.85 -5.75 -27.8 -6.7 -27.6 -7.05 -28.05 -7.45 -28.5 -7.15 -29.35 L-5.95 -30.75 -4.35 -31.7 Q-3.5 -31.75 -3.1 -31.3 -2.7 -30.85 -3.0 -30.1" fill="#ffffff" fill-rule="evenodd" stroke="none"/>
      <path d="M-3.0 -30.1 Q-3.3 -29.25 -4.15 -28.55 -4.9 -27.85 -5.75 -27.8 -6.7 -27.6 -7.05 -28.05 -7.45 -28.5 -7.15 -29.35 L-5.95 -30.75 -4.35 -31.7 Q-3.5 -31.75 -3.1 -31.3 -2.7 -30.85 -3.0 -30.1 Z" fill="none" stroke="#000000" stroke-linecap="round" stroke-linejoin="round" stroke-opacity="0.2509804" stroke-width="0.5"/>
      <path d="M22.3 -18.9 L21.8 -19.45 Q20.0 -21.55 20.0 -24.15 L24.15 -24.15 Q24.0 -23.25 24.5 -22.0 26.85 -18.55 25.4 -18.15 23.85 -17.7 22.3 -18.9" fill="#404040" fill-rule="evenodd" stroke="none"/>
      <path d="M22.3 -18.9 Q23.85 -17.7 25.4 -18.15 26.85 -18.55 24.5 -22.0 24.0 -23.25 24.15 -24.15 L20.0 -24.15 Q20.0 -21.55 21.8 -19.45 L22.3 -18.9 Z" fill="none" stroke="#000000" stroke-linecap="round" stroke-linejoin="round" stroke-opacity="0.5019608" stroke-width="1.0"/>
      <path d="M98.65 -28.7 L99.55 -29.1 Q101.85 -29.9 104.1 -29.9 L105.15 -29.95 105.8 -29.95 106.45 -29.9 106.95 -29.85 106.9 -30.1 106.9 -30.25 106.9 -30.35 106.95 -30.6 106.95 -30.65 Q106.95 -34.1 114.6 -34.1 L116.9 -33.4 118.35 -32.6 Q119.05 -31.1 119.6 -28.6 120.35 -24.65 120.35 -20.05 120.35 -16.0 118.95 -14.95 118.4 -14.55 117.05 -14.3 L114.35 -14.2 111.15 -14.3 109.25 -14.6 109.0 -13.95 Q107.45 -8.85 105.3 -8.85 L105.2 -8.85 Q101.85 -8.85 99.85 -10.15 L98.8 -10.95 97.9 -10.2 Q96.0 -9.05 92.6 -9.0 L92.4 -9.0 Q91.25 -9.0 90.05 -9.55 89.75 -9.65 89.55 -9.8 L89.25 -10.2 Q88.45 -11.65 88.4 -12.05 L87.8 -14.05 86.3 -19.65 86.15 -20.3 85.4 -22.85 Q84.9 -24.25 84.9 -25.4 84.9 -26.45 86.5 -27.35 L86.95 -27.65 92.0 -29.4 93.65 -29.55 95.25 -29.2 Q96.3 -28.7 96.9 -27.7 97.45 -28.2 98.65 -28.7 M97.85 -11.15 Q98.25 -11.7 98.25 -12.5 L97.8 -18.3 97.1 -22.6 96.4 -24.9 94.95 -27.75 Q94.65 -28.2 94.15 -28.35 L90.1 -27.95 Q87.6 -27.25 86.65 -26.1 86.1 -25.55 86.1 -24.75 86.1 -22.85 87.05 -20.25 L88.5 -15.15 89.25 -12.05 89.3 -11.9 Q89.55 -11.3 90.85 -10.15 91.4 -9.65 92.3 -9.5 L95.2 -9.7 Q97.15 -10.2 97.85 -11.15 M106.7 -28.6 L104.45 -28.75 Q102.35 -28.9 99.55 -27.7 98.25 -27.35 97.1 -26.4 L98.2 -23.9 98.9 -18.55 99.55 -13.5 99.5 -11.8 Q99.95 -11.2 101.45 -10.4 102.9 -9.7 104.35 -9.95 105.2 -10.05 105.9 -10.8 L106.9 -12.0 Q107.95 -13.9 108.35 -16.0 108.7 -18.2 108.7 -21.75 L108.25 -27.05 Q108.2 -28.4 107.55 -28.4 L107.45 -28.35 107.45 -28.4 106.7 -28.6 M117.2 -15.55 Q118.2 -15.75 118.55 -16.3 119.25 -17.35 119.25 -20.0 119.25 -23.4 118.7 -26.95 L118.35 -28.85 118.35 -29.0 118.15 -30.1 117.4 -32.05 117.0 -32.45 116.85 -32.65 116.4 -32.8 112.7 -33.1 Q110.65 -33.1 109.3 -32.35 108.2 -31.7 108.2 -31.05 L108.2 -30.95 108.15 -30.65 108.25 -29.7 Q109.3 -29.0 109.5 -27.7 L109.9 -24.9 110.2 -19.4 109.85 -17.15 109.55 -15.75 110.7 -15.6 114.85 -15.35 117.2 -15.55" fill="#000000" fill-rule="evenodd" stroke="none"/>
      <path d="M94.15 -28.35 Q97.45 -20.4 97.85 -11.15 97.15 -10.2 95.2 -9.7 L92.3 -9.5 Q91.55 -10.7 90.95 -12.2 L89.2 -17.7 87.4 -23.0 86.65 -26.1 Q87.6 -27.25 90.1 -27.95 L94.15 -28.35 M105.9 -10.8 Q105.2 -10.05 104.35 -9.95 102.9 -9.7 101.45 -10.4 99.95 -11.2 99.5 -11.8 L99.55 -13.5 98.9 -18.55 98.2 -23.9 97.1 -26.4 Q98.25 -27.35 99.55 -27.7 102.35 -28.9 104.45 -28.75 L106.7 -28.6 107.15 -25.95 Q107.55 -22.4 107.55 -19.75 107.55 -16.0 106.8 -13.25 L105.9 -10.8 M117.0 -32.45 Q117.65 -27.4 117.65 -22.75 L117.4 -18.0 117.2 -15.55 114.85 -15.35 110.7 -15.6 109.55 -15.75 109.85 -17.15 110.2 -19.4 109.9 -24.9 109.5 -27.7 Q109.3 -29.0 108.25 -29.7 L108.15 -30.65 108.2 -30.95 108.2 -31.05 Q108.2 -31.7 109.3 -32.35 110.65 -33.1 112.7 -33.1 L116.4 -32.8 116.85 -32.65 117.0 -32.45" fill="#999999" fill-rule="evenodd" stroke="none"/>
      <path d="M94.15 -28.35 Q94.65 -28.2 94.95 -27.75 L96.4 -24.9 97.1 -22.6 97.8 -18.3 98.25 -12.5 Q98.25 -11.7 97.85 -11.15 97.45 -20.4 94.15 -28.35 M92.3 -9.5 Q91.4 -9.65 90.85 -10.15 89.55 -11.3 89.3 -11.9 L89.25 -12.05 88.5 -15.15 87.05 -20.25 Q86.1 -22.85 86.1 -24.75 86.1 -25.55 86.65 -26.1 L87.4 -23.0 89.2 -17.7 90.95 -12.2 Q91.55 -10.7 92.3 -9.5 M105.9 -10.8 L106.8 -13.25 Q107.55 -16.0 107.55 -19.75 107.55 -22.4 107.15 -25.95 L106.7 -28.6 107.45 -28.4 107.45 -28.35 107.55 -28.4 Q108.2 -28.4 108.25 -27.05 L108.7 -21.75 Q108.7 -18.2 108.35 -16.0 107.95 -13.9 106.9 -12.0 L105.9 -10.8 M117.0 -32.45 L117.4 -32.05 118.15 -30.1 118.35 -29.0 118.35 -28.85 118.7 -26.95 Q119.25 -23.4 119.25 -20.0 119.25 -17.35 118.55 -16.3 118.2 -15.75 117.2 -15.55 L117.4 -18.0 117.65 -22.75 Q117.65 -27.4 117.0 -32.45" fill="#bdbdbd" fill-rule="evenodd" stroke="none"/>
      <path d="M-50.65 -61.05 L-52.05 -59.25 Q-58.7 -51.85 -64.25 -43.6 L-68.45 -37.1 -69.1 -36.05 -72.15 -30.8 -73.4 -28.25 -74.4 -25.7 -75.0 -23.25 -75.4 -20.85 -75.2 -20.2 -75.1 -20.2 Q-74.55 -19.3 -72.85 -17.9 -71.0 -16.35 -68.85 -15.0 L-67.45 -14.1 Q-63.0 -11.2 -59.95 -9.5 L-55.05 -7.0 -53.25 -6.15 Q-44.35 -1.75 -35.0 1.3 L-30.25 2.7 -28.65 3.25 Q-25.2 4.55 -16.2 6.75 -5.85 9.25 -2.05 9.25 L1.9 9.1 Q2.75 8.65 3.2 8.05 3.9 7.05 3.9 5.15 3.9 2.2 2.6 -0.2 L1.4 -1.95 0.45 -2.4 Q-0.25 -2.85 -0.25 -3.25 -0.25 -4.05 0.9 -3.7 L3.35 -3.35 Q2.85 -3.2 3.85 -3.2 5.95 -3.2 7.0 -4.05 7.65 -4.6 8.05 -5.8 L8.75 -7.75 8.85 -9.25 8.8 -10.45 8.5 -11.05 8.5 -11.1 8.5 -11.2 8.35 -11.25 8.0 -11.65 Q7.55 -12.3 7.0 -12.45 7.0 -13.15 7.85 -13.15 L13.15 -12.25 Q16.8 -12.25 18.2 -14.25 19.25 -15.75 19.25 -18.85 19.25 -22.5 17.25 -23.8 16.15 -24.55 14.25 -24.65 L11.35 -24.6 0.35 -25.1 -3.6 -25.55 -8.65 -26.5 -11.85 -27.4 Q-13.55 -27.95 -14.85 -28.65 L-14.8 -28.65 -14.55 -28.9 -14.95 -30.4 Q-15.2 -31.55 -16.2 -32.35 L-16.4 -32.3 -16.8 -32.3 -18.1 -32.35 -20.25 -32.0 Q-20.75 -31.6 -21.25 -29.4 -21.55 -26.8 -22.65 -26.8 -23.2 -26.8 -23.35 -27.25 L-23.45 -27.8 Q-23.45 -28.55 -22.9 -29.8 L-22.75 -30.05 -23.1 -30.3 -23.15 -30.35 -24.4 -31.15 -26.05 -31.75 -26.5 -31.8 -26.55 -31.85 -26.6 -31.95 -27.85 -32.3 -34.65 -33.5 Q-36.75 -33.7 -36.75 -34.6 L-36.45 -35.1 -32.35 -35.0 Q-29.15 -34.35 -27.1 -33.6 L-26.3 -33.35 -26.75 -33.85 -28.15 -35.5 -29.85 -36.7 Q-30.95 -37.6 -31.3 -38.4 L-31.05 -38.4 Q-30.2 -38.3 -27.7 -36.55 L-26.3 -35.5 -26.0 -35.25 -24.8 -33.85 -24.55 -34.05 Q-21.75 -36.4 -19.0 -40.15 L-15.7 -44.35 -14.3 -46.45 -13.6 -47.2 Q-12.6 -48.2 -12.6 -46.95 -12.6 -46.2 -15.25 -42.6 L-18.1 -38.85 Q-18.9 -37.55 -21.15 -35.15 -22.95 -33.25 -24.25 -32.4 L-23.45 -31.9 -22.3 -31.05 -22.05 -31.85 Q-21.5 -33.9 -18.8 -33.8 -16.4 -33.7 -15.5 -32.6 L-15.55 -32.55 Q-14.75 -32.25 -14.35 -31.35 L-13.8 -29.05 -12.2 -28.95 -7.65 -27.9 -5.4 -27.6 -0.45 -27.0 9.65 -26.25 16.75 -25.85 Q20.65 -24.75 20.65 -18.85 20.65 -14.25 18.55 -12.3 16.75 -10.65 13.15 -10.65 L9.95 -10.85 10.1 -8.6 8.85 -4.75 Q8.3 -2.55 6.95 -2.05 L3.45 -1.75 4.9 0.45 5.55 3.1 5.6 5.15 Q5.6 7.55 5.4 8.1 4.65 10.45 1.55 10.45 L0.8 10.4 -4.85 10.5 Q-7.3 10.5 -16.55 8.35 -25.45 6.3 -29.65 4.85 L-30.25 4.65 Q-40.7 1.8 -50.85 -2.55 L-53.25 -3.65 -53.45 -3.75 Q-55.65 -4.95 -58.75 -6.45 -61.25 -7.8 -63.7 -9.45 L-67.45 -12.0 -71.95 -14.95 Q-76.05 -17.95 -76.85 -20.1 L-77.0 -20.1 -77.1 -20.7 Q-77.1 -25.25 -74.05 -31.1 L-70.45 -37.1 Q-65.35 -45.35 -59.15 -52.75 L-52.05 -61.15 -50.8 -61.55 Q-50.6 -61.75 -50.6 -61.25 L-50.65 -61.05" fill="#000000" fill-rule="evenodd" stroke="none"/>
      <path d="M14.25 -24.65 L15.15 -24.2 Q17.05 -22.9 17.05 -19.25 17.05 -16.15 16.05 -14.65 14.7 -12.65 11.2 -12.65 L6.15 -13.55 Q5.35 -13.55 5.35 -12.85 L6.3 -12.05 6.65 -11.65 6.75 -11.6 6.75 -11.5 6.75 -11.45 7.05 -10.85 7.1 -9.65 7.0 -8.15 6.35 -6.2 Q5.95 -5.0 5.35 -4.45 4.35 -3.6 2.35 -3.6 1.35 -3.6 1.85 -3.75 0.55 -3.75 -0.5 -4.1 -1.6 -4.45 -1.6 -3.65 -1.6 -3.25 -0.9 -2.8 L0.0 -2.35 1.15 -0.6 Q2.4 1.8 2.4 4.75 2.4 6.65 1.7 7.65 L0.45 8.7 -3.3 8.85 Q-6.95 8.85 -16.85 6.35 -25.45 4.15 -28.75 2.85 L-30.25 2.3 -34.8 0.9 Q-43.75 -2.15 -52.25 -6.55 L-53.95 -7.4 -58.65 -9.9 -65.8 -14.5 -67.15 -15.4 -71.0 -18.3 -73.15 -20.6 -73.2 -20.6 -73.4 -21.25 -73.05 -23.65 -72.45 -26.1 -71.5 -28.65 -70.3 -31.2 -67.4 -36.45 -66.75 -37.5 -62.75 -44.0 Q-57.45 -52.25 -51.1 -59.65 L-50.0 -61.1 Q-27.8 -61.75 -15.6 -49.35 L-15.05 -48.75 -13.6 -47.2 -14.3 -46.45 -15.7 -44.35 -19.0 -40.15 Q-21.75 -36.4 -24.55 -34.05 L-24.8 -33.85 -26.0 -35.25 -26.3 -35.5 -27.7 -36.55 Q-30.2 -38.3 -31.05 -38.4 L-31.3 -38.4 Q-30.95 -37.6 -29.85 -36.7 L-28.15 -35.5 -26.75 -33.85 -26.3 -33.35 -27.1 -33.6 Q-29.15 -34.35 -32.35 -35.0 L-36.45 -35.1 -36.75 -34.6 Q-36.75 -33.7 -34.65 -33.5 L-27.85 -32.3 -26.6 -31.95 -26.55 -31.85 -26.5 -31.8 -26.05 -31.75 -24.4 -31.15 -23.15 -30.35 -23.1 -30.3 -22.75 -30.05 -22.9 -29.8 Q-23.45 -28.55 -23.45 -27.8 L-23.35 -27.25 Q-23.2 -26.8 -22.65 -26.8 -21.55 -26.8 -21.25 -29.4 -20.75 -31.6 -20.25 -32.0 L-18.1 -32.35 -16.8 -32.3 -16.4 -32.3 -16.2 -32.35 Q-15.2 -31.55 -14.95 -30.4 L-14.55 -28.9 -14.8 -28.65 -14.85 -28.65 Q-13.55 -27.95 -11.85 -27.4 L-8.65 -26.5 -3.6 -25.55 0.35 -25.1 11.35 -24.6 14.25 -24.65" fill="#999999" fill-rule="evenodd" stroke="none"/>
      <path d="M14.25 -24.65 Q16.15 -24.55 17.25 -23.8 19.25 -22.5 19.25 -18.85 19.25 -15.75 18.2 -14.25 16.8 -12.25 13.15 -12.25 L7.85 -13.15 Q7.0 -13.15 7.0 -12.45 7.55 -12.3 8.0 -11.65 L8.35 -11.25 8.5 -11.2 8.5 -11.1 8.5 -11.05 8.8 -10.45 8.85 -9.25 8.75 -7.75 8.05 -5.8 Q7.65 -4.6 7.0 -4.05 5.95 -3.2 3.85 -3.2 2.85 -3.2 3.35 -3.35 L0.9 -3.7 Q-0.25 -4.05 -0.25 -3.25 -0.25 -2.85 0.45 -2.4 L1.4 -1.95 2.6 -0.2 Q3.9 2.2 3.9 5.15 3.9 7.05 3.2 8.05 2.75 8.65 1.9 9.1 L-2.05 9.25 Q-5.85 9.25 -16.2 6.75 -25.2 4.55 -28.65 3.25 L-30.25 2.7 -35.0 1.3 Q-44.35 -1.75 -53.25 -6.15 L-55.05 -7.0 -59.95 -9.5 Q-63.0 -11.2 -67.45 -14.1 L-68.85 -15.0 Q-71.0 -16.35 -72.85 -17.9 -74.55 -19.3 -75.1 -20.2 L-75.2 -20.2 -75.4 -20.85 -75.0 -23.25 -74.4 -25.7 -73.4 -28.25 -72.15 -30.8 -69.1 -36.05 -68.45 -37.1 -64.25 -43.6 Q-58.7 -51.85 -52.05 -59.25 L-50.65 -61.05 -50.0 -61.1 -51.1 -59.65 Q-57.45 -52.25 -62.75 -44.0 L-66.75 -37.5 -67.4 -36.45 -70.3 -31.2 -71.5 -28.65 -72.45 -26.1 -73.05 -23.65 -73.4 -21.25 -73.2 -20.6 -73.15 -20.6 -71.0 -18.3 -67.15 -15.4 -65.8 -14.5 -58.65 -9.9 -53.95 -7.4 -52.25 -6.55 Q-43.75 -2.15 -34.8 0.9 L-30.25 2.3 -28.75 2.85 Q-25.45 4.15 -16.85 6.35 -6.95 8.85 -3.3 8.85 L0.45 8.7 1.7 7.65 Q2.4 6.65 2.4 4.75 2.4 1.8 1.15 -0.6 L0.0 -2.35 -0.9 -2.8 Q-1.6 -3.25 -1.6 -3.65 -1.6 -4.45 -0.5 -4.1 0.55 -3.75 1.85 -3.75 1.35 -3.6 2.35 -3.6 4.35 -3.6 5.35 -4.45 5.95 -5.0 6.35 -6.2 L7.0 -8.15 7.1 -9.65 7.05 -10.85 6.75 -11.45 6.75 -11.5 6.75 -11.6 6.65 -11.65 6.3 -12.05 5.35 -12.85 Q5.35 -13.55 6.15 -13.55 L11.2 -12.65 Q14.7 -12.65 16.05 -14.65 17.05 -16.15 17.05 -19.25 17.05 -22.9 15.15 -24.2 L14.25 -24.65" fill="#bdbdbd" fill-rule="evenodd" stroke="none"/>
    </g>
    <linearGradient gradientTransform="matrix(0.0136, 0.0, 0.0, 0.0341, -7.15, -23.0)" gradientUnits="userSpaceOnUse" id="gradient0" spreadMethod="pad" x1="-819.2" x2="819.2">
      <stop offset="0.0" stop-color="#ff3355"/>
      <stop offset="1.0" stop-color="#c20606"/>
    </linearGradient>
    <linearGradient gradientTransform="matrix(0.0, 0.0101, -0.0149, 0.0, 29.7, -34.75)" gradientUnits="userSpaceOnUse" id="gradient1" spreadMethod="pad" x1="-819.2" x2="819.2">
      <stop offset="0.0" stop-color="#33cc33"/>
      <stop offset="1.0" stop-color="#1ba839"/>
    </linearGradient>
  </defs>
</svg>
