<?xml version="1.0" encoding="UTF-8" standalone="no"?>
<svg xmlns:xlink="http://www.w3.org/1999/xlink" height="531.5px" width="460.6px" xmlns="http://www.w3.org/2000/svg">
  <g transform="matrix(1.0, 0.0, 0.0, 1.0, 193.65, 334.05)">
    <use height="113.2" transform="matrix(1.0, 0.0, 0.0, 1.0, -71.35, -57.6)" width="91.95" xlink:href="#shape0"/>
  </g>
  <defs>
    <g id="shape0" transform="matrix(1.0, 0.0, 0.0, 1.0, 71.35, 57.6)">
      <path d="M3.0 16.7 Q4.0 15.6 5.4 15.45 7.75 15.15 9.75 17.65 L10.25 18.4 9.5 19.9 10.25 18.4 10.75 19.25 Q11.3 20.4 11.55 21.7 10.85 20.8 9.5 19.9 L9.25 19.65 Q6.65 18.0 5.0 18.2 4.7 18.25 3.85 18.85 L3.5 19.15 3.0 16.7 M9.45 33.15 Q10.2 34.2 10.75 35.4 11.85 37.7 12.25 40.4 L13.25 39.95 Q15.8 40.95 17.35 43.15 L16.95 44.1 14.3 41.75 Q13.45 41.25 12.25 40.9 L11.9 40.85 11.85 40.85 11.0 38.0 10.35 36.45 Q9.6 34.8 8.65 33.6 L9.45 33.15 M10.75 35.4 L10.35 36.45 10.75 35.4 M12.25 40.4 L12.3 40.65 12.3 40.85 12.25 40.9 12.3 40.85 12.3 40.65 12.25 40.4" fill="#c28f76" fill-rule="evenodd" stroke="none"/>
      <path d="M12.1 19.35 Q12.15 19.1 12.5 19.05 13.35 18.95 15.65 20.45 L17.75 21.95 17.75 22.05 17.65 22.7 17.2 23.2 Q16.05 23.35 14.15 22.05 12.25 20.8 12.15 19.8 L12.1 19.35 M1.85 16.75 L1.8 17.85 Q1.55 19.7 0.7 19.8 -0.9 20.0 -2.35 17.95 -3.65 16.15 -3.9 14.2 L-3.75 13.2 Q-3.55 12.55 -2.85 12.5 -2.05 12.4 -0.1 13.6 1.25 14.5 1.8 15.3 L1.85 15.55 1.85 16.75 M-13.9 9.6 Q-13.05 10.2 -11.75 11.9 -10.0 13.6 -9.3 15.1 -8.85 16.0 -8.7 17.05 -8.55 18.3 -8.85 18.95 -9.15 19.95 -10.4 20.1 -12.3 20.35 -16.45 16.4 -20.95 12.15 -21.4 8.6 -21.45 7.8 -21.05 7.5 -20.8 7.25 -19.95 7.15 -18.9 7.0 -17.3 7.6 -15.65 8.3 -13.9 9.6" fill="#fff8eb" fill-rule="evenodd" stroke="none"/>
      <path d="M3.0 16.7 L3.5 19.15 4.35 25.15 4.6 27.15 4.15 27.45 Q1.3 29.45 -1.95 29.85 L-2.6 29.9 -3.0 26.35 -4.1 26.65 -5.75 26.7 Q-6.55 20.25 -7.75 13.95 -4.95 14.7 -4.85 11.5 -1.0 9.05 2.55 14.6 L3.0 16.7 M10.75 19.25 L11.15 17.45 Q15.05 18.4 20.1 22.85 L19.7 23.4 16.25 24.15 12.4 24.2 11.9 24.2 11.9 24.1 11.55 21.7 Q11.3 20.4 10.75 19.25 M1.85 16.75 L1.85 15.55 1.8 15.3 Q1.25 14.5 -0.1 13.6 -2.05 12.4 -2.85 12.5 -3.55 12.55 -3.75 13.2 L-3.9 14.2 Q-3.65 16.15 -2.35 17.95 -0.9 20.0 0.7 19.8 1.55 19.7 1.8 17.85 L1.85 16.75 M12.1 19.35 L12.15 19.8 Q12.25 20.8 14.15 22.05 16.05 23.35 17.2 23.2 L17.65 22.7 17.75 22.05 17.75 21.95 15.65 20.45 Q13.35 18.95 12.5 19.05 12.15 19.1 12.1 19.35 M-4.85 13.8 Q-3.7 20.05 -3.0 26.35 -3.7 20.05 -4.85 13.8" fill="#ebdab9" fill-rule="evenodd" stroke="none"/>
      <path d="M3.5 19.15 L3.85 18.85 Q4.7 18.25 5.0 18.2 6.65 18.0 9.25 19.65 L9.5 19.9 Q10.85 20.8 11.55 21.7 L11.9 24.1 11.9 24.2 12.05 27.65 11.95 28.9 11.35 30.7 Q10.6 32.35 9.45 33.15 L8.65 33.6 Q9.6 34.8 10.35 36.45 L11.0 38.0 11.85 40.85 11.9 40.85 12.25 40.9 12.05 41.5 11.2 42.85 10.8 43.3 Q11.8 44.65 13.6 45.75 11.8 44.65 10.8 43.3 9.85 44.1 8.6 44.35 L7.95 44.4 7.9 44.55 Q7.95 45.9 8.4 47.15 L6.95 49.55 Q4.75 49.55 3.25 48.0 3.5 45.1 5.3 43.15 L5.75 43.1 5.45 42.35 Q4.4 40.3 3.8 37.95 4.7 37.05 5.1 35.7 L5.05 33.65 5.35 33.4 5.05 33.25 5.05 33.2 4.6 27.15 4.35 25.15 3.5 19.15 M16.95 44.1 Q16.4 45.5 15.0 46.25 L13.6 45.75 Q14.35 47.2 14.05 48.15 12.4 49.85 10.0 49.8 8.95 48.5 8.4 47.15 7.95 45.9 7.9 44.55 L7.95 44.4 8.6 44.35 Q9.85 44.1 10.8 43.3 L11.2 42.85 12.05 41.5 12.25 40.9 Q13.45 41.25 14.3 41.75 L16.95 44.1 M12.05 27.65 Q9.6 31.3 5.35 33.4 9.6 31.3 12.05 27.65 M5.35 33.4 Q6.5 34.05 7.7 33.9 L8.65 33.6 7.7 33.9 Q6.5 34.05 5.35 33.4 M7.95 44.4 L6.6 44.3 5.75 43.1 6.6 44.3 7.95 44.4 M9.5 19.9 Q7.6 23.45 4.35 25.15 7.6 23.45 9.5 19.9 M10.35 36.45 Q8.75 40.35 5.45 42.35 8.75 40.35 10.35 36.45" fill="#a1613e" fill-rule="evenodd" stroke="none"/>
      <path d="M19.7 23.4 Q16.7 27.55 12.75 30.45 L11.95 28.9 12.05 27.65 11.9 24.2 12.4 24.2 16.25 24.15 19.7 23.4" fill="#ccb893" fill-rule="evenodd" stroke="none"/>
      <path d="M3.8 37.95 Q2.05 39.75 -1.35 40.0 -2.15 36.6 -4.85 37.75 -5.4 41.6 -8.05 45.2 -14.35 53.65 -24.5 54.9 -34.65 56.15 -42.7 49.5 -46.6 46.35 -48.85 42.3 L-49.0 42.05 -50.75 32.95 Q-47.1 37.1 -42.25 39.85 -33.75 44.6 -24.75 43.45 -16.3 42.4 -9.7 34.85 -7.65 32.6 -5.45 29.3 L-5.5 28.95 -5.75 26.7 -4.1 26.65 -3.0 26.35 -2.6 29.9 -1.95 29.85 Q1.3 29.45 4.15 27.45 L4.6 27.15 5.05 33.2 5.0 33.2 5.05 33.25 5.05 33.65 5.1 35.7 Q4.7 37.05 3.8 37.95 M-2.0 36.9 L-2.6 29.9 -2.0 36.9 M-5.45 29.3 Q-5.7 29.85 -5.45 29.85 -5.0 33.75 -4.85 37.75 -5.0 33.75 -5.45 29.85 -5.7 29.85 -5.45 29.3" fill="url(#gradient0)" fill-rule="evenodd" stroke="none"/>
      <path d="M-50.75 32.95 Q-51.5 27.45 -51.5 21.95 -50.25 17.2 -47.2 13.1 -41.0 4.65 -30.85 3.4 -20.7 2.15 -12.55 8.8 -9.8 11.15 -7.75 13.95 -6.55 20.25 -5.75 26.7 L-5.5 28.95 -5.45 29.3 Q-7.65 32.6 -9.7 34.85 -16.3 42.4 -24.75 43.45 -33.75 44.6 -42.25 39.85 -47.1 37.1 -50.75 32.95 M-13.9 9.6 Q-15.65 8.3 -17.3 7.6 -18.9 7.0 -19.95 7.15 -20.8 7.25 -21.05 7.5 -21.45 7.8 -21.4 8.6 -20.95 12.15 -16.45 16.4 -12.3 20.35 -10.4 20.1 -9.15 19.95 -8.85 18.95 -8.55 18.3 -8.7 17.05 -8.85 16.0 -9.3 15.1 -10.0 13.6 -11.75 11.9 -13.05 10.2 -13.9 9.6" fill="url(#gradient1)" fill-rule="evenodd" stroke="none"/>
      <path d="M10.25 18.4 L9.75 17.65 Q7.75 15.15 5.4 15.45 4.0 15.6 3.0 16.7 L3.5 19.15 4.35 25.15 Q7.6 23.45 9.5 19.9 L10.25 18.4 10.75 19.25 11.15 17.45 Q15.05 18.4 20.1 22.85 L19.7 23.4 Q16.7 27.55 12.75 30.45 L11.95 28.9 11.35 30.7 Q10.6 32.35 9.45 33.15 10.2 34.2 10.75 35.4 11.85 37.7 12.25 40.4 L13.25 39.95 Q15.8 40.95 17.35 43.15 L16.95 44.1 Q16.4 45.5 15.0 46.25 L13.6 45.75 Q14.35 47.2 14.05 48.15 12.4 49.85 10.0 49.8 8.95 48.5 8.4 47.15 L6.95 49.55 Q4.75 49.55 3.25 48.0 3.5 45.1 5.3 43.15 L5.75 43.1 5.45 42.35 Q4.4 40.3 3.8 37.95 2.05 39.75 -1.35 40.0 -2.15 36.6 -4.85 37.75 -5.4 41.6 -8.05 45.2 -14.35 53.65 -24.5 54.9 -34.65 56.15 -42.7 49.5 -46.6 46.35 -48.85 42.3 L-49.0 42.05 -50.75 32.95 Q-51.5 27.45 -51.5 21.95 -50.25 17.2 -47.2 13.1 -41.0 4.65 -30.85 3.4 -20.7 2.15 -12.55 8.8 -9.8 11.15 -7.75 13.95 -4.95 14.7 -4.85 11.5 -1.0 9.05 2.55 14.6 L3.0 16.7 M10.75 19.25 Q11.3 20.4 11.55 21.7 L11.9 24.1 11.9 24.2 12.05 27.65 11.95 28.9 M10.35 36.45 L10.75 35.4 M4.6 27.15 L4.35 25.15 M-2.6 29.9 L-2.0 36.9 M5.05 33.2 L5.05 33.25 5.35 33.4 Q9.6 31.3 12.05 27.65 M5.05 33.65 L5.05 33.25 5.0 33.2 5.05 33.2 4.6 27.15 M8.65 33.6 L7.7 33.9 Q6.5 34.05 5.35 33.4 L5.05 33.65 5.1 35.7 Q4.7 37.05 3.8 37.95 M9.45 33.15 L8.65 33.6 M12.25 40.9 L12.3 40.85 12.3 40.65 12.25 40.4 M13.6 45.75 Q11.8 44.65 10.8 43.3 9.85 44.1 8.6 44.35 L7.95 44.4 7.9 44.55 Q7.95 45.9 8.4 47.15 M5.75 43.1 L6.6 44.3 7.95 44.4 M10.8 43.3 L11.2 42.85 12.05 41.5 12.25 40.9 M5.45 42.35 Q8.75 40.35 10.35 36.45 M-3.0 26.35 Q-3.7 20.05 -4.85 13.8 M-2.6 29.9 L-3.0 26.35 M-4.85 37.75 Q-5.0 33.75 -5.45 29.85 -5.7 29.85 -5.45 29.3 L-5.5 28.95 -5.75 26.7 Q-6.55 20.25 -7.75 13.95" fill="none" stroke="#000000" stroke-linecap="round" stroke-linejoin="round" stroke-opacity="0.5019608" stroke-width="1.0"/>
      <path d="M-19.7 10.65 L-23.15 12.0 -23.65 11.35 -23.75 11.25 -23.45 11.2 -20.4 10.6 -19.7 10.55 -19.7 10.65 M-19.8 18.55 L-20.05 17.45 Q-19.3 22.6 -19.3 23.65 -19.4 24.35 -19.95 24.4 L-21.35 24.65 -23.8 24.8 -25.05 24.85 Q-25.5 24.95 -25.55 24.35 L-25.75 22.75 -26.55 23.05 -26.3 24.95 -26.4 25.85 -26.7 26.75 -27.3 25.4 -27.65 23.3 -28.3 23.55 -28.75 23.75 -28.55 26.5 -28.8 27.85 -29.4 26.15 -29.7 24.55 -29.9 24.7 Q-31.1 25.9 -30.95 27.2 L-30.7 28.0 -30.45 28.9 -30.4 29.4 -30.45 29.5 Q-31.85 28.0 -32.0 27.15 -32.2 25.55 -30.8 24.15 L-29.9 23.5 -30.1 21.9 -30.45 18.25 Q-32.1 17.9 -33.35 16.9 L-34.0 17.55 -34.85 18.15 -34.6 18.55 Q-33.85 19.9 -33.7 20.6 L-33.45 20.65 -31.95 20.95 -31.9 21.1 -32.85 21.4 -33.4 21.55 -33.4 22.05 -33.75 24.0 -33.85 24.85 -33.2 25.1 Q-32.4 25.45 -32.05 25.75 L-32.1 25.95 -32.25 26.0 -32.55 25.95 -32.85 25.9 -33.95 25.3 -34.35 27.6 -34.45 27.6 -34.8 27.05 -35.0 26.45 Q-35.2 24.95 -34.6 23.05 L-34.2 21.8 -34.5 21.9 -35.75 22.25 -36.25 21.5 -35.9 21.65 -35.75 21.55 -35.75 21.45 -36.2 20.65 -35.05 20.45 -35.15 20.35 -36.05 18.5 -36.4 16.95 -36.9 15.25 Q-36.2 15.9 -35.25 17.55 L-34.65 17.0 -33.75 16.55 -34.2 16.05 -33.15 16.4 -31.5 16.95 -30.5 17.2 Q-30.6 15.4 -30.35 14.7 L-29.9 16.0 -29.65 17.35 -28.95 17.4 -28.2 17.35 -28.15 14.85 Q-27.85 15.15 -27.45 17.3 L-26.45 17.3 -26.5 16.25 -26.45 15.75 -26.2 15.7 -25.4 15.45 -23.85 15.15 -22.2 14.85 -21.3 15.8 -23.15 16.05 -22.75 19.8 -22.3 23.2 -22.25 24.0 -21.2 24.0 -19.9 23.85 -20.2 20.55 -20.8 16.05 -20.0 16.95 -19.8 18.55 M-27.05 9.3 L-25.5 9.4 Q-24.1 9.65 -24.7 10.05 L-24.9 9.85 -25.2 10.15 -25.15 10.25 -26.5 10.65 -28.45 10.35 Q-30.0 10.0 -30.3 9.35 L-30.25 9.25 -28.8 9.25 -27.05 9.3 M-26.0 11.45 L-24.65 11.3 -24.8 11.5 -24.1 12.4 -24.8 12.65 -24.6 12.8 Q-22.8 13.9 -22.75 14.85 L-25.55 13.65 -26.95 13.3 -28.5 13.55 -33.2 13.35 -33.3 13.35 -33.45 13.4 -34.45 12.05 -34.85 11.55 -33.65 11.95 -32.95 12.55 -32.85 12.5 -32.8 12.4 -33.05 12.0 -31.7 12.0 -31.15 12.7 -30.1 13.55 -29.9 13.5 -29.9 13.3 -31.05 12.0 -31.0 12.0 -28.6 12.0 -26.0 11.45 M-36.15 10.8 L-36.05 10.9 -33.8 13.6 -34.5 14.2 Q-35.55 15.25 -36.05 15.3 L-36.1 15.25 Q-35.65 13.55 -34.9 12.85 L-34.75 12.75 Q-36.75 11.65 -37.9 9.4 L-37.95 8.85 -37.8 8.85 -37.35 9.6 -36.15 10.8 M-37.55 18.9 L-37.5 19.15 -37.6 19.3 -37.85 18.95 -37.7 18.9 -37.55 18.9 M-37.45 21.2 L-37.3 21.1 -36.55 21.95 -36.3 22.3 -36.8 22.35 -37.5 21.2 -37.45 21.2 M-38.8 20.45 L-37.45 22.4 -37.55 22.4 Q-38.8 22.25 -38.9 21.3 L-38.8 20.45 M-21.1 14.65 L-20.8 14.6 Q-20.45 14.55 -20.35 15.05 L-20.15 15.85 -20.35 15.6 -21.1 14.65 M-29.5 18.4 L-29.05 20.7 -28.8 22.7 -28.8 22.8 -28.55 22.6 -27.75 22.35 -28.05 19.45 -28.2 18.45 -29.5 18.4 M-27.25 18.4 L-26.8 20.95 -26.65 22.15 -26.0 22.0 -25.85 22.05 -26.0 21.1 -26.35 18.25 -26.95 18.35 -27.25 18.4 M-23.05 24.0 L-23.2 23.2 -23.6 19.0 -23.65 16.1 -25.7 16.2 -24.8 24.15 -23.05 24.0 M-29.85 31.85 L-29.4 31.5 -29.15 31.45 -29.1 32.65 -28.95 34.55 -28.7 37.1 -28.4 37.05 -25.65 36.75 -23.9 36.4 -23.45 36.4 -23.2 34.2 -23.0 34.15 Q-22.55 34.1 -22.2 37.05 L-21.4 43.7 -21.35 44.4 -22.8 42.5 -23.0 42.3 -23.05 42.0 -23.05 41.8 -23.2 41.8 -23.3 41.85 -24.25 40.85 -23.2 40.85 -23.4 37.3 -23.9 37.45 -25.05 37.8 -28.55 38.35 -28.6 38.65 -29.05 38.05 -29.85 37.1 -30.1 34.35 -30.1 32.5 -29.85 31.85 M-20.35 33.1 L-19.85 32.6 -19.2 32.35 Q-18.55 32.25 -19.4 33.7 L-20.05 34.8 -18.7 36.0 -17.15 37.65 -17.6 34.9 -17.9 33.6 Q-18.05 32.25 -17.75 31.15 -17.45 31.3 -17.25 32.1 L-16.7 33.85 -15.95 35.95 Q-15.4 37.95 -16.2 38.8 L-16.6 38.5 Q-16.35 39.45 -17.05 40.9 L-17.95 42.45 -16.9 43.0 Q-15.45 43.85 -16.7 44.0 L-18.6 43.4 -19.4 45.1 -20.3 44.35 -20.45 44.35 -19.9 42.95 -18.55 41.0 Q-17.75 39.65 -17.85 39.0 L-20.6 35.9 -24.4 31.6 -24.35 31.4 -24.1 31.3 Q-23.95 31.3 -22.35 32.65 -21.5 33.4 -21.0 33.9 L-20.35 33.1 M-33.95 36.95 Q-34.1 35.85 -33.85 35.4 L-33.0 34.85 -33.1 35.9 -33.0 36.85 Q-32.9 37.6 -32.5 37.6 L-31.85 37.5 -30.7 37.35 -30.4 37.3 -28.8 39.35 -28.45 39.75 -28.35 40.65 -28.25 41.55 -27.05 41.35 -26.15 42.5 -26.65 42.6 -28.1 42.75 -27.7 47.05 -27.7 47.75 -27.85 48.6 -28.0 48.75 -28.75 46.6 -29.25 43.2 -29.25 42.9 -30.2 43.0 -31.95 43.5 Q-32.3 44.1 -32.45 45.65 L-32.5 46.15 -33.2 44.7 -33.45 44.4 -33.4 44.05 Q-33.35 43.05 -33.0 42.6 -32.8 42.35 -32.4 42.35 L-31.05 42.05 -29.65 41.8 -29.35 41.75 -29.65 38.5 -32.35 38.7 Q-33.75 38.5 -33.95 36.95 M-33.25 49.25 L-33.05 49.15 -33.05 49.1 Q-33.05 48.75 -33.7 47.95 L-33.7 47.7 -32.4 49.3 -32.35 49.7 Q-32.25 50.5 -31.05 50.85 L-30.4 51.6 -30.8 51.65 -32.25 51.5 -32.7 51.3 Q-32.65 51.1 -32.95 50.7 L-33.45 50.2 -33.55 50.05 -33.55 50.0 -33.65 48.95 -33.25 49.25 M-21.45 45.4 L-22.25 44.35 -22.5 43.85 -21.65 44.85 -21.45 45.15 -21.45 45.4 M-24.65 40.95 L-24.8 41.1 -24.05 42.0 -25.6 42.35 -26.45 41.3 -24.65 40.95 M-33.7 46.95 L-33.6 47.05 -33.7 47.05 -33.7 46.95 M-20.55 44.65 L-19.45 45.9 -19.75 45.7 -19.85 45.95 -19.95 46.0 -20.65 45.15 -20.55 44.65 M-21.25 47.95 L-21.25 47.75 -20.9 45.8 -20.2 46.6 -20.9 48.35 -21.25 47.95 M-18.2 46.05 L-18.25 46.2 -18.3 46.1 -18.95 45.55 -18.85 45.6 -18.2 46.05 M-29.75 51.35 L-30.05 51.0 -29.35 51.1 -29.3 51.2 -29.75 51.35" fill="#612d13" fill-rule="evenodd" stroke="none"/>
      <path d="M9.75 17.65 L10.25 18.4 9.5 19.9 Q10.85 20.8 11.55 21.7 L11.9 24.1 11.9 24.2 12.05 27.65 11.95 28.9 11.35 30.7 Q10.6 32.35 9.45 33.15 L8.65 33.6 Q9.6 34.8 10.35 36.45 L11.0 38.0 11.85 40.85 11.9 40.85 12.25 40.9 Q13.45 41.25 14.3 41.75 L16.95 44.1 Q16.4 45.5 15.0 46.25 L13.6 45.75 Q14.35 47.2 14.05 48.15 12.4 49.85 10.0 49.8 8.95 48.5 8.4 47.15 L6.95 49.55 Q4.75 49.55 3.25 48.0 3.5 45.1 5.3 43.15 L5.75 43.1 5.45 42.35 Q4.4 40.3 3.8 37.95 4.7 37.05 5.1 35.7 L5.05 33.65 5.35 33.4 5.05 33.25 5.05 33.2 4.6 27.15 4.35 25.15 3.5 19.15 3.0 16.7 Q4.0 15.6 5.4 15.45 7.75 15.15 9.75 17.65" fill="url(#gradient2)" fill-rule="evenodd" stroke="none"/>
      <path d="M-59.25 32.55 L-60.75 31.15 -60.95 30.9 Q-62.6 28.65 -63.6 25.8 -64.7 22.7 -66.25 15.45 L-68.75 2.65 Q-69.75 -2.9 -69.5 -7.15 L-69.05 -13.8 Q-68.85 -16.2 -68.15 -18.55 -66.6 -24.35 -64.35 -30.55 -62.15 -36.85 -58.25 -45.65 L-55.2 -52.45 -53.8 -55.65 Q-53.3 -56.9 -53.6 -56.4 L-53.6 -56.45 -53.6 -56.9 -53.4 -56.9 -52.3 -56.95 -52.35 -56.85 -53.9 -52.85 -56.0 -47.7 Q-59.6 -38.5 -61.65 -31.9 -63.75 -25.4 -65.2 -19.35 -65.9 -16.9 -66.05 -14.35 L-66.6 -7.4 Q-66.85 -2.95 -66.0 2.85 L-63.9 16.2 Q-62.6 23.8 -61.7 27.05 L-60.4 30.5 -59.25 32.55 M-14.3 -40.15 L-20.4 -26.35 Q-22.55 -21.35 -23.7 -17.7 L-24.3 -15.2 Q-25.05 -11.95 -25.05 -10.65 L-24.55 -6.8 Q-24.1 -4.35 -23.4 -2.95 L-23.2 -2.4 -24.95 -2.45 -25.15 -3.0 Q-25.8 -4.5 -26.15 -7.05 L-26.55 -11.1 Q-26.55 -12.45 -25.8 -15.85 L-25.25 -18.45 -22.2 -27.5 -16.3 -42.75 -14.3 -40.15 M-21.75 -2.35 L-20.0 -2.4 Q-19.3 -2.4 -18.8 -1.6 L-18.0 0.25 -17.95 0.4 -17.1 3.05 -16.95 3.35 -16.55 4.9 Q-16.55 5.35 -16.8 5.55 L-17.4 5.8 -17.4 5.85 -18.05 5.95 -19.95 6.45 -20.3 6.3 -19.85 6.2 -19.85 6.15 -19.35 5.85 -19.15 5.55 -19.1 5.2 -19.5 3.55 -19.55 3.25 -20.35 0.5 -20.35 0.3 Q-20.85 -1.35 -21.05 -1.6 L-21.75 -2.35 M-25.15 10.1 L-25.25 10.45 -26.1 16.1 -26.1 17.0 -26.1 17.75 -26.1 18.8 -26.3 19.95 -26.45 22.2 -26.5 23.2 Q-26.85 24.7 -26.85 29.35 L-27.75 35.95 -28.25 37.35 Q-29.3 39.8 -31.5 41.0 -30.0 38.2 -29.3 34.05 -28.8 31.25 -28.15 21.4 L-28.0 18.45 -27.5 13.6 Q-27.3 12.05 -25.7 10.55 L-25.15 10.1" fill="#bdbdbd" fill-rule="evenodd" stroke="none"/>
      <path d="M-53.6 -56.9 L-53.6 -56.45 -53.6 -56.4 Q-53.3 -56.9 -53.8 -55.65 L-55.2 -52.45 -58.25 -45.65 Q-62.15 -36.85 -64.35 -30.55 -66.6 -24.35 -68.15 -18.55 -68.85 -16.2 -69.05 -13.8 L-69.5 -7.15 Q-69.75 -2.9 -68.75 2.65 L-66.25 15.45 Q-64.7 22.7 -63.6 25.8 -62.6 28.65 -60.95 30.9 L-60.75 31.15 -59.25 32.55 Q-57.65 33.5 -55.15 33.85 L-54.85 33.9 -55.35 33.15 Q-56.25 31.7 -56.25 30.7 L-55.9 29.9 Q-55.65 29.55 -52.85 33.6 -50.1 37.65 -47.25 37.6 -44.45 37.5 -42.8 36.25 L-42.2 35.85 -42.15 35.7 -41.95 35.5 -41.5 35.45 -41.05 35.55 -39.6 37.45 -38.75 38.95 Q-37.35 40.05 -35.65 40.65 L-33.65 41.15 -32.2 41.35 -31.5 41.0 Q-29.3 39.8 -28.25 37.35 L-27.75 35.95 -26.85 29.35 Q-26.85 24.7 -26.5 23.2 L-26.45 22.2 -26.3 19.95 -26.1 18.8 -26.1 17.75 -26.1 17.0 -26.1 16.1 -25.25 10.45 -25.15 10.1 -24.25 8.85 -23.15 8.0 -22.6 7.65 -19.95 6.45 -18.05 5.95 -17.4 5.85 -17.4 5.8 -16.8 5.55 Q-16.55 5.35 -16.55 4.9 L-16.95 3.35 -17.1 3.05 -17.95 0.4 -18.0 0.25 -18.8 -1.6 Q-19.3 -2.4 -20.0 -2.4 L-21.75 -2.35 -23.2 -2.4 -23.4 -2.95 Q-24.1 -4.35 -24.55 -6.8 L-25.05 -10.65 Q-25.05 -11.95 -24.3 -15.2 L-23.7 -17.7 Q-22.55 -21.35 -20.4 -26.35 L-14.3 -40.15 -14.15 -40.55 -13.6 -40.2 -13.45 -40.05 Q-13.15 -39.65 -13.15 -38.8 -15.8 -33.8 -18.4 -27.7 -23.65 -15.6 -23.65 -9.7 L-23.15 -5.8 -22.7 -4.0 -22.6 -3.75 -20.3 -4.05 -17.95 -3.75 -17.15 -2.35 Q-15.8 0.3 -15.25 3.3 L-15.1 3.95 Q-14.75 5.65 -14.75 6.25 -14.75 7.15 -15.35 7.4 L-17.25 7.85 -17.7 7.9 Q-19.45 8.15 -21.2 9.1 -23.0 10.0 -23.45 11.75 -24.0 13.45 -24.2 16.05 L-24.3 17.45 -24.35 17.75 -24.65 19.6 -24.8 20.75 -24.75 21.3 -25.0 26.05 -25.5 32.7 -26.0 35.95 -26.35 37.55 Q-27.7 42.7 -32.65 42.9 L-33.65 42.85 Q-37.15 42.6 -39.75 40.3 L-41.05 39.05 -41.45 38.4 Q-44.25 39.75 -45.9 39.75 L-46.2 39.75 -49.2 39.05 Q-51.45 38.1 -53.45 35.75 L-53.45 35.7 -53.65 35.8 -54.1 35.9 -55.15 35.95 Q-62.55 35.95 -65.65 25.45 L-67.1 20.15 -68.35 14.5 -70.05 4.0 Q-71.35 -3.45 -71.35 -7.1 -71.35 -10.8 -70.0 -16.6 -68.65 -22.45 -61.15 -42.15 -54.3 -60.3 -53.65 -57.1 L-53.6 -56.9" fill="#000000" fill-rule="evenodd" stroke="none"/>
      <path d="M-59.25 32.55 L-60.4 30.5 -61.7 27.05 Q-62.6 23.8 -63.9 16.2 L-66.0 2.85 Q-66.85 -2.95 -66.6 -7.4 L-66.05 -14.35 Q-65.9 -16.9 -65.2 -19.35 -63.75 -25.4 -61.65 -31.9 -59.6 -38.5 -56.0 -47.7 L-53.9 -52.85 -52.35 -56.85 -52.3 -56.95 Q-28.2 -57.25 -16.3 -42.75 L-22.2 -27.5 -25.25 -18.45 -25.8 -15.85 Q-26.55 -12.45 -26.55 -11.1 L-26.15 -7.05 Q-25.8 -4.5 -25.15 -3.0 L-24.95 -2.45 -23.2 -2.4 -21.75 -2.35 -21.05 -1.6 Q-20.85 -1.35 -20.35 0.3 L-20.35 0.5 -19.55 3.25 -19.5 3.55 -19.1 5.2 -19.15 5.55 -19.35 5.85 -19.85 6.15 -19.85 6.2 -20.3 6.3 -19.95 6.45 -22.6 7.65 -23.15 8.0 -24.25 8.85 -25.15 10.1 -25.7 10.55 Q-27.3 12.05 -27.5 13.6 L-28.0 18.45 -28.15 21.4 Q-28.8 31.25 -29.3 34.05 -30.0 38.2 -31.5 41.0 L-32.2 41.35 -33.65 41.15 -35.65 40.65 Q-37.35 40.05 -38.75 38.95 L-39.6 37.45 -41.05 35.55 -41.5 35.45 -41.95 35.5 -42.15 35.7 -42.2 35.85 -42.8 36.25 Q-44.45 37.5 -47.25 37.6 -50.1 37.65 -52.85 33.6 -55.65 29.55 -55.9 29.9 L-56.25 30.7 Q-56.25 31.7 -55.35 33.15 L-54.85 33.9 -55.15 33.85 Q-57.65 33.5 -59.25 32.55" fill="#999999" fill-rule="evenodd" stroke="none"/>
    </g>
    <linearGradient gradientTransform="matrix(-0.0259, 0.0031, -0.0033, -0.0275, -29.35, 41.8)" gradientUnits="userSpaceOnUse" id="gradient0" spreadMethod="pad" x1="-819.2" x2="819.2">
      <stop offset="0.0" stop-color="#ccb893"/>
      <stop offset="1.0" stop-color="#a69068"/>
    </linearGradient>
    <linearGradient gradientTransform="matrix(-0.0245, 0.003, -0.0034, -0.0275, -32.0, 24.2)" gradientUnits="userSpaceOnUse" id="gradient1" spreadMethod="pad" x1="-819.2" x2="819.2">
      <stop offset="0.0" stop-color="#ebdab9"/>
      <stop offset="1.0" stop-color="#d1ba91"/>
    </linearGradient>
    <linearGradient gradientTransform="matrix(0.0029, -4.0E-4, 0.0011, 0.0085, 8.65, 33.3)" gradientUnits="userSpaceOnUse" id="gradient2" spreadMethod="pad" x1="-819.2" x2="819.2">
      <stop offset="0.0" stop-color="#992f00" stop-opacity="0.3529412"/>
      <stop offset="1.0" stop-color="#b38c7c" stop-opacity="0.0"/>
    </linearGradient>
  </defs>
</svg>
