<?xml version="1.0" encoding="UTF-8" standalone="no"?>
<svg xmlns:xlink="http://www.w3.org/1999/xlink" height="531.5px" width="460.6px" xmlns="http://www.w3.org/2000/svg">
  <g transform="matrix(1.0, 0.0, 0.0, 1.0, 193.65, 334.05)">
    <use height="32.85" transform="matrix(1.0, 0.0, 0.0, 1.0, -110.75, 2.5)" width="9.7" xlink:href="#shape0"/>
    <use height="20.8" transform="matrix(0.716, 0.0386, -0.0386, 0.716, -9.512, 16.6184)" width="229.8" xlink:href="#sprite0"/>
    <use height="99.45" transform="matrix(1.0, 0.0, 0.0, 1.0, -120.05, -57.8)" width="274.6" xlink:href="#shape2"/>
  </g>
  <defs>
    <g id="shape0" transform="matrix(1.0, 0.0, 0.0, 1.0, 110.75, -2.5)">
      <path d="M-108.0 9.15 Q-109.05 8.05 -108.95 6.5 -108.85 4.95 -107.7 3.95 -106.6 2.9 -105.05 3.0 -103.5 3.1 -102.5 4.25 -101.45 5.35 -101.55 6.9 -101.65 8.45 -102.8 9.45 -103.9 10.5 -105.45 10.4 -107.0 10.3 -108.0 9.15" fill="url(#gradient0)" fill-rule="evenodd" stroke="none"/>
      <path d="M-108.0 9.15 Q-109.05 8.05 -108.95 6.5 -108.85 4.95 -107.7 3.95 -106.6 2.9 -105.05 3.0 -103.5 3.1 -102.5 4.25 -101.45 5.35 -101.55 6.9 -101.65 8.45 -102.8 9.45 -103.9 10.5 -105.45 10.4 -107.0 10.3 -108.0 9.15 Z" fill="none" stroke="#000000" stroke-linecap="round" stroke-linejoin="round" stroke-opacity="0.4" stroke-width="1.0"/>
      <path d="M-109.0 28.4 Q-110.15 29.4 -110.25 30.95 -110.35 32.5 -109.3 33.6 -108.3 34.75 -106.75 34.85 -105.2 34.95 -104.1 33.9 -102.95 32.9 -102.85 31.35 -102.75 29.8 -103.8 28.7 -104.8 27.55 -106.35 27.45 -107.9 27.35 -109.0 28.4" fill="url(#gradient1)" fill-rule="evenodd" stroke="none"/>
      <path d="M-109.0 28.4 Q-110.15 29.4 -110.25 30.95 -110.35 32.5 -109.3 33.6 -108.3 34.75 -106.75 34.85 -105.2 34.95 -104.1 33.9 -102.95 32.9 -102.85 31.35 -102.75 29.8 -103.8 28.7 -104.8 27.55 -106.35 27.45 -107.9 27.35 -109.0 28.4 Z" fill="none" stroke="#000000" stroke-linecap="round" stroke-linejoin="round" stroke-opacity="0.4" stroke-width="1.0"/>
    </g>
    <radialGradient cx="0" cy="0" gradientTransform="matrix(-3.0E-4, 0.0049, -0.0049, -3.0E-4, -103.5, 6.0)" gradientUnits="userSpaceOnUse" id="gradient0" r="819.2" spreadMethod="pad">
      <stop offset="0.0" stop-color="#ffffff"/>
      <stop offset="1.0" stop-color="#333333"/>
    </radialGradient>
    <radialGradient cx="0" cy="0" gradientTransform="matrix(3.0E-4, -0.0049, -0.0049, -3.0E-4, -104.9, 32.05)" gradientUnits="userSpaceOnUse" id="gradient1" r="819.2" spreadMethod="pad">
      <stop offset="0.0" stop-color="#ffffff"/>
      <stop offset="1.0" stop-color="#333333"/>
    </radialGradient>
    <g id="sprite0" transform="matrix(1.0, 0.0, 0.0, 1.0, 114.9, 10.4)">
      <use height="20.8" transform="matrix(1.0, 0.0, 0.0, 1.0, -114.9, -10.4)" width="229.8" xlink:href="#shape1"/>
    </g>
    <g id="shape1" transform="matrix(1.0, 0.0, 0.0, 1.0, 114.9, 10.4)">
      <path d="M104.5 -10.4 Q108.8 -10.4 111.85 -7.35 114.9 -4.3 114.9 0.0 114.9 4.3 111.85 7.35 108.8 10.4 104.5 10.4 L-114.9 10.4 -114.9 -10.4 104.5 -10.4" fill="#33ccff" fill-rule="evenodd" stroke="none"/>
    </g>
    <g id="shape2" transform="matrix(1.0, 0.0, 0.0, 1.0, 120.05, 57.8)">
      <path d="M-9.6 16.6 L147.5 25.05 Q150.55 25.25 152.65 27.55 154.7 29.8 154.55 32.9 154.4 35.95 152.05 38.05 149.75 40.15 146.7 39.95 L-10.4 31.5 -9.6 16.6" fill="#ffffff" fill-opacity="0.9529412" fill-rule="evenodd" stroke="none"/>
      <path d="M-10.4 31.5 L-10.95 41.15 -16.95 40.85 -16.55 33.95 -15.45 13.7 -15.1 6.75 -9.1 7.05 -9.6 16.6 -10.4 31.5" fill="url(#gradient2)" fill-rule="evenodd" stroke="none"/>
      <path d="M-31.25 30.55 L-36.65 30.25 -42.4 19.5 -42.15 14.85 -36.7 15.15 -36.95 19.8 -31.25 30.55" fill="#707070" fill-rule="evenodd" stroke="none"/>
      <path d="M-16.55 33.95 L-29.8 33.2 -31.25 30.55 -36.95 19.8 -36.7 15.15 -36.55 12.55 -15.45 13.7 -16.55 33.95 M-29.05 20.25 Q-30.3 21.4 -30.4 23.1 -30.5 24.75 -29.35 26.0 -28.5 27.0 -27.35 27.3 L-26.55 27.35 Q-24.9 27.45 -23.6 26.3 -22.35 25.2 -22.25 23.55 -22.15 21.85 -23.3 20.55 -24.45 19.3 -26.1 19.2 -27.75 19.15 -29.05 20.2 L-29.05 20.25" fill="#949494" fill-rule="evenodd" stroke="none"/>
      <path d="M-29.05 20.25 L-29.05 20.2 Q-27.75 19.15 -26.1 19.2 -24.45 19.3 -23.3 20.55 -22.15 21.85 -22.25 23.55 -22.35 25.2 -23.6 26.3 -24.9 27.45 -26.55 27.35 L-27.35 27.3 Q-28.5 27.0 -29.35 26.0 -30.5 24.75 -30.4 23.1 -30.3 21.4 -29.05 20.25" fill="#000000" fill-rule="evenodd" stroke="none"/>
      <path d="M-36.65 30.25 L-67.7 28.55 -66.9 13.5 -42.15 14.85 -42.4 19.5 -36.65 30.25" fill="url(#gradient3)" fill-rule="evenodd" stroke="none"/>
      <path d="M-67.7 28.55 L-67.85 31.15 -97.15 29.6 -96.05 9.35 -66.75 10.9 -66.9 13.5 -67.7 28.55" fill="url(#gradient4)" fill-rule="evenodd" stroke="none"/>
      <path d="M-97.15 29.6 L-97.3 32.4 -116.25 31.35 -116.1 28.05 -115.05 8.8 -114.85 5.55 -95.9 6.6 -96.05 9.35 -97.15 29.6" fill="url(#gradient5)" fill-rule="evenodd" stroke="none"/>
      <path d="M-116.1 28.05 L-117.35 26.55 Q-119.8 23.0 -119.55 18.2 -119.3 13.4 -116.45 10.15 L-115.05 8.8 -116.1 28.05" fill="#333333" fill-rule="evenodd" stroke="none"/>
      <path d="M-10.4 31.5 L-10.95 41.15 -16.95 40.85 -16.55 33.95 -29.8 33.2 -31.25 30.55 -36.65 30.25 -67.7 28.55 -67.85 31.15 -97.15 29.6 -97.3 32.4 -116.25 31.35 -116.1 28.05 -117.35 26.55 Q-119.8 23.0 -119.55 18.2 -119.3 13.4 -116.45 10.15 L-115.05 8.8 -114.85 5.55 -95.9 6.6 -96.05 9.35 -66.75 10.9 -66.9 13.5 -42.15 14.85 -36.7 15.15 -36.55 12.55 -15.45 13.7 -15.1 6.75 -9.1 7.05 -9.6 16.6 -10.4 31.5 M-31.25 30.55 L-36.95 19.8 -36.7 15.15 M-29.05 20.25 L-29.05 20.2 Q-27.75 19.15 -26.1 19.2 -24.45 19.3 -23.3 20.55 -22.15 21.85 -22.25 23.55 -22.35 25.2 -23.6 26.3 -24.9 27.45 -26.55 27.35 L-27.35 27.3 Q-28.5 27.0 -29.35 26.0 -30.5 24.75 -30.4 23.1 -30.3 21.4 -29.05 20.25 M-16.55 33.95 L-15.45 13.7 M-66.9 13.5 L-67.7 28.55 M-96.05 9.35 L-97.15 29.6 M-116.1 28.05 L-115.05 8.8" fill="none" stroke="#000000" stroke-linecap="round" stroke-linejoin="round" stroke-opacity="0.5019608" stroke-width="1.0"/>
      <path d="M-108.65 21.6 Q-109.7 20.5 -109.6 18.95 -109.55 17.4 -108.35 16.4 -107.25 15.35 -105.7 15.45 -104.15 15.55 -103.15 16.7 -102.15 17.8 -102.2 19.35 -102.3 20.9 -103.45 21.9 -104.55 22.95 -106.1 22.85 -107.65 22.75 -108.65 21.6" fill="url(#gradient6)" fill-rule="evenodd" stroke="none"/>
      <path d="M-108.65 21.6 Q-109.7 20.5 -109.6 18.95 -109.55 17.4 -108.35 16.4 -107.25 15.35 -105.7 15.45 -104.15 15.55 -103.15 16.7 -102.15 17.8 -102.2 19.35 -102.3 20.9 -103.45 21.9 -104.55 22.95 -106.1 22.85 -107.65 22.75 -108.65 21.6 Z" fill="none" stroke="#000000" stroke-linecap="round" stroke-linejoin="round" stroke-opacity="0.4" stroke-width="1.0"/>
      <path d="M-53.55 -57.1 L-53.55 -56.65 -53.55 -56.6 Q-53.25 -57.1 -53.75 -55.85 L-55.15 -52.65 -58.2 -45.85 Q-62.1 -37.05 -64.3 -30.75 -66.55 -24.55 -68.1 -18.75 -68.8 -16.4 -69.0 -14.0 L-69.45 -7.35 Q-69.7 -3.1 -68.7 2.45 L-66.2 15.25 Q-64.65 22.5 -63.55 25.6 -62.55 28.45 -60.9 30.7 L-60.7 30.95 -59.2 32.35 Q-57.6 33.3 -55.1 33.65 L-54.8 33.7 -55.3 32.95 Q-56.2 31.5 -56.2 30.5 L-55.85 29.7 Q-55.6 29.35 -52.8 33.4 -50.05 37.45 -47.2 37.4 -44.4 37.3 -42.75 36.05 L-41.95 35.55 -41.4 35.25 -41.3 35.2 -41.35 35.15 -41.5 34.55 -41.55 34.25 -41.4 33.2 -41.1 32.95 Q-41.0 32.85 -38.6 35.3 -35.5 37.25 -33.25 37.3 -31.65 37.35 -30.6 36.75 L-29.85 36.2 -29.5 35.8 -28.65 34.45 -28.65 34.4 -29.15 31.65 -29.25 29.1 -29.25 27.15 -29.1 25.65 -28.75 24.7 -27.2 22.45 -26.55 21.5 Q-25.95 20.6 -26.0 18.85 L-26.05 15.9 -25.2 10.25 -24.5 8.95 -24.35 8.8 -24.35 8.9 -24.3 8.85 -24.2 8.8 -23.9 8.8 Q-23.6 8.75 -23.35 9.1 L-23.3 9.35 -23.3 10.1 Q-23.35 11.05 -22.4 11.05 L-21.0 11.05 -20.65 10.95 -20.45 10.6 -20.25 10.25 -20.25 10.2 -20.1 9.9 -19.95 9.6 -19.8 9.35 -19.7 9.0 -19.65 8.95 -19.6 8.85 -19.55 8.75 -19.45 8.6 -19.3 8.3 -19.3 8.25 -18.95 7.65 -18.85 7.5 -18.3 6.5 -18.0 6.0 -16.9 4.5 -16.9 4.45 -16.9 3.95 Q-16.85 3.5 -16.95 3.05 L-16.95 2.95 -17.0 2.85 -17.0 2.7 -17.0 2.6 -17.15 2.25 -17.2 2.0 -17.35 1.75 -17.45 1.4 -17.55 1.2 -17.65 1.0 -17.75 0.65 -17.75 0.6 -17.9 0.2 -17.95 0.05 -18.75 -1.8 Q-19.25 -2.6 -19.95 -2.6 L-21.7 -2.55 -23.15 -2.6 -23.35 -3.15 Q-24.05 -4.55 -24.5 -7.0 L-25.0 -10.85 Q-25.0 -12.15 -24.25 -15.4 L-23.65 -17.9 Q-22.5 -21.55 -20.35 -26.55 L-14.25 -40.35 -14.1 -40.75 -13.55 -40.4 -13.4 -40.25 Q-13.1 -39.85 -13.1 -39.0 L-18.35 -27.9 Q-23.6 -15.8 -23.6 -9.9 L-23.1 -6.0 -22.65 -4.2 -22.55 -3.95 -20.25 -4.25 -17.9 -3.95 -17.1 -2.55 -16.05 -0.15 Q-15.5 0.5 -15.25 1.4 L-14.85 3.45 -14.8 3.55 -14.75 3.65 -14.7 3.85 -14.7 3.95 Q-14.9 4.8 -15.55 5.45 L-16.7 6.85 -16.8 7.05 -17.05 7.4 -17.2 7.6 -18.3 10.15 -19.2 12.5 -22.1 12.8 -23.7 12.85 -23.75 13.05 -23.75 13.1 -23.75 13.45 -23.9 13.8 -24.15 15.85 -24.4 20.3 Q-24.45 22.2 -25.65 23.8 -26.9 25.4 -27.25 26.7 L-26.95 29.8 Q-26.95 31.1 -26.3 33.0 L-25.9 34.2 -26.0 35.15 -26.4 35.9 -26.45 36.05 -26.55 36.1 Q-27.1 37.0 -28.5 38.1 -30.7 39.75 -32.4 39.75 -36.35 39.75 -39.25 37.5 L-39.6 37.2 -41.2 38.05 Q-44.15 39.55 -45.85 39.55 L-46.15 39.55 Q-47.7 39.5 -49.15 38.85 -51.4 37.9 -53.4 35.55 L-53.4 35.5 -53.6 35.6 -54.05 35.7 -55.1 35.75 Q-62.5 35.75 -65.6 25.25 L-67.05 19.95 -68.3 14.3 -70.0 3.8 Q-71.3 -3.65 -71.3 -7.3 -71.3 -11.0 -69.95 -16.8 -68.6 -22.65 -61.1 -42.35 -54.25 -60.5 -53.6 -57.3 L-53.55 -57.1" fill="#000000" fill-rule="evenodd" stroke="none"/>
      <path d="M-59.2 32.35 L-60.7 30.95 -60.9 30.7 Q-62.55 28.45 -63.55 25.6 -64.65 22.5 -66.2 15.25 L-68.7 2.45 Q-69.7 -3.1 -69.45 -7.35 L-69.0 -14.0 Q-68.8 -16.4 -68.1 -18.75 -66.55 -24.55 -64.3 -30.75 -62.1 -37.05 -58.2 -45.85 L-55.15 -52.65 -53.75 -55.85 Q-53.25 -57.1 -53.55 -56.6 L-53.55 -56.65 -53.55 -57.1 -53.35 -57.1 -52.25 -57.15 -52.3 -57.05 -53.85 -53.05 -55.95 -47.9 Q-59.55 -38.7 -61.6 -32.1 -63.7 -25.6 -65.15 -19.55 -65.85 -17.1 -66.0 -14.55 L-66.55 -7.6 Q-66.8 -3.15 -65.95 2.65 L-63.85 16.0 Q-62.55 23.6 -61.65 26.85 L-60.35 30.3 -59.2 32.35 M-14.25 -40.35 L-20.35 -26.55 Q-22.5 -21.55 -23.65 -17.9 L-24.25 -15.4 Q-25.0 -12.15 -25.0 -10.85 L-24.5 -7.0 Q-24.05 -4.55 -23.35 -3.15 L-23.15 -2.6 -24.9 -2.65 -25.1 -3.2 Q-25.75 -4.7 -26.1 -7.25 L-26.5 -11.3 Q-26.5 -12.65 -25.75 -16.05 L-25.2 -18.65 -22.15 -27.7 -16.25 -42.95 -14.25 -40.35 M-21.7 -2.55 L-19.95 -2.6 Q-19.25 -2.6 -18.75 -1.8 L-17.95 0.05 -17.9 0.2 -17.75 0.6 -17.75 0.65 -17.65 1.0 -17.55 1.2 -17.45 1.4 -17.35 1.75 -17.2 2.0 -17.15 2.25 -17.0 2.6 -17.0 2.7 -17.0 2.85 -16.95 2.95 -16.95 3.05 Q-16.85 3.5 -16.9 3.95 L-16.9 4.45 -16.9 4.5 -18.0 6.0 -18.3 6.5 -18.85 7.5 -18.95 7.65 -19.3 8.25 -19.3 8.3 -19.45 8.6 -19.55 8.75 -19.6 8.85 -19.65 8.95 -19.7 9.0 -19.8 9.35 -19.95 9.6 -20.1 9.9 -20.25 10.2 -20.25 10.25 -20.45 10.6 -20.65 10.95 -21.0 11.05 -22.4 11.05 Q-23.35 11.05 -23.3 10.1 L-23.3 9.35 -23.35 9.1 Q-23.6 8.75 -23.9 8.8 L-24.2 8.8 -24.3 8.85 -24.35 8.9 -24.35 8.8 -24.5 8.95 -25.2 10.25 -26.05 15.9 -26.0 18.85 Q-25.95 20.6 -26.55 21.5 L-27.2 22.45 -28.75 24.7 -29.1 25.65 -29.25 27.15 -29.25 29.1 -29.15 31.65 -28.65 34.4 -28.65 34.45 -29.5 35.8 -29.85 36.2 -30.6 36.75 -30.35 36.1 -30.35 36.05 -30.4 35.4 -30.7 33.2 -30.8 30.5 -30.75 28.45 Q-30.75 26.8 -30.3 25.9 L-29.95 25.25 -28.3 22.55 -28.1 22.05 Q-27.75 21.15 -27.75 19.8 L-27.8 16.7 -26.95 10.8 Q-26.8 9.6 -25.05 8.25 L-24.55 7.85 -24.3 7.7 -24.2 7.65 -24.2 7.7 Q-19.95 6.55 -20.05 1.25 L-20.3 0.3 -20.3 0.1 Q-20.8 -1.55 -21.0 -1.8 L-21.7 -2.55 M-41.5 34.55 L-41.35 35.15 -41.3 35.2 -41.4 35.25 -41.95 35.55 -41.8 34.85 -41.8 34.8 -41.75 34.75 -41.55 34.55 -41.5 34.55" fill="#bdbdbd" fill-rule="evenodd" stroke="none"/>
      <path d="M-23.15 -2.6 L-21.7 -2.55 -21.0 -1.8 Q-20.8 -1.55 -20.3 0.1 L-20.3 0.3 -20.05 1.25 Q-19.95 6.55 -24.2 7.7 L-24.2 7.65 -24.3 7.7 -24.55 7.85 -25.05 8.25 Q-26.8 9.6 -26.95 10.8 L-27.8 16.7 -27.75 19.8 Q-27.75 21.15 -28.1 22.05 L-28.3 22.55 -29.95 25.25 -30.3 25.9 Q-30.75 26.8 -30.75 28.45 L-30.8 30.5 -30.7 33.2 -30.4 35.4 -30.35 36.05 -30.35 36.1 -30.6 36.75 Q-31.65 37.35 -33.25 37.3 -35.5 37.25 -38.6 35.3 -41.0 32.85 -41.1 32.95 L-41.4 33.2 -41.55 34.25 -41.5 34.55 -41.55 34.55 -41.75 34.75 -41.8 34.8 -41.8 34.85 -41.95 35.55 -42.75 36.05 Q-44.4 37.3 -47.2 37.4 -50.05 37.45 -52.8 33.4 -55.6 29.35 -55.85 29.7 L-56.2 30.5 Q-56.2 31.5 -55.3 32.95 L-54.8 33.7 -55.1 33.65 Q-57.6 33.3 -59.2 32.35 L-60.35 30.3 -61.65 26.85 Q-62.55 23.6 -63.85 16.0 L-65.95 2.65 Q-66.8 -3.15 -66.55 -7.6 L-66.0 -14.55 Q-65.85 -17.1 -65.15 -19.55 -63.7 -25.6 -61.6 -32.1 -59.55 -38.7 -55.95 -47.9 L-53.85 -53.05 -52.3 -57.05 -52.25 -57.15 Q-28.15 -57.45 -16.25 -42.95 L-22.15 -27.7 -25.2 -18.65 -25.75 -16.05 Q-26.5 -12.65 -26.5 -11.3 L-26.1 -7.25 Q-25.75 -4.7 -25.1 -3.2 L-24.9 -2.65 -23.15 -2.6" fill="#999999" fill-rule="evenodd" stroke="none"/>
      <path d="M-27.4 -22.55 L-22.35 -21.45 Q-19.2 -11.85 -21.3 -4.65 -23.65 -3.7 -26.1 -3.35 -24.9 -11.9 -26.9 -20.45 L-27.4 -22.55" fill="#404040" fill-rule="evenodd" stroke="none"/>
      <path d="M-27.4 -22.55 L-26.9 -20.45 Q-24.9 -11.9 -26.1 -3.35 L-34.3 -3.85 -36.75 -22.55 Q-32.2 -23.3 -27.4 -22.55" fill="#242424" fill-rule="evenodd" stroke="none"/>
      <path d="M-26.1 -3.35 Q-23.65 -3.7 -21.3 -4.65 -19.2 -11.85 -22.35 -21.45 L-27.4 -22.55 Q-32.2 -23.3 -36.75 -22.55 L-34.3 -3.85 -26.1 -3.35 Z" fill="none" stroke="#000000" stroke-linecap="round" stroke-linejoin="round" stroke-opacity="0.5019608" stroke-width="1.0"/>
      <path d="M-71.4 6.35 L-54.85 -11.3 Q-45.6 -20.5 -37.7 -27.45 L-31.5 -25.7 Q-29.05 -6.2 -31.25 15.0 -47.75 20.3 -65.85 20.5 -69.8 13.85 -71.4 6.35" fill="#404040" fill-rule="evenodd" stroke="none"/>
      <path d="M-71.4 6.35 Q-74.75 -7.85 -70.2 -24.85 -53.35 -31.0 -37.7 -27.45 -45.6 -20.5 -54.85 -11.3 L-71.4 6.35" fill="#595959" fill-rule="evenodd" stroke="none"/>
      <path d="M-37.7 -27.45 Q-53.35 -31.0 -70.2 -24.85 -74.75 -7.85 -71.4 6.35 -69.8 13.85 -65.85 20.5 -47.75 20.3 -31.25 15.0 -29.05 -6.2 -31.5 -25.7 L-37.7 -27.45 Z" fill="none" stroke="#000000" stroke-linecap="round" stroke-linejoin="round" stroke-opacity="0.5019608" stroke-width="1.0"/>
      <path d="M-65.35 -21.0 L-58.3 -22.3 -55.1 -22.7 -47.5 -23.0 -46.25 -23.0 -38.3 -22.1 -38.25 -22.1 -36.75 -21.8 -36.1 -14.4 -36.0 -13.2 -35.75 -4.35 -35.75 -3.2 Q-35.85 1.55 -36.25 6.2 L-36.3 6.75 -36.8 11.25 -62.75 15.4 -63.85 12.35 -64.7 9.5 Q-65.85 5.35 -66.5 1.35 L-66.75 0.05 Q-67.35 -3.95 -67.45 -7.9 L-67.5 -10.4 Q-67.5 -14.85 -66.8 -19.2 L-66.75 -19.6 -66.6 -20.7 -65.35 -21.0" fill="url(#gradient7)" fill-rule="evenodd" stroke="none"/>
      <path d="M-66.8 -19.2 L-66.6 -19.5 -65.35 -21.0 M-67.45 -7.9 L-66.3 -9.35 -67.5 -10.4 M-61.2 -5.05 L-56.4 -10.8 -61.45 -15.1 -66.3 -9.35 -61.2 -5.05 -56.15 -0.75 -51.35 -6.5 -56.4 -10.8 -51.6 -16.55 -56.65 -20.85 -61.45 -15.1 -66.6 -19.5 M-47.5 -23.0 L-46.75 -22.35 -46.25 -23.0 M-46.75 -22.35 L-51.6 -16.55 -46.5 -12.25 -41.7 -18.05 -46.75 -22.35 M-58.3 -22.3 L-56.65 -20.85 -55.1 -22.7 M-46.2 -2.2 L-41.15 2.1 -36.35 -3.65 -41.45 -7.95 -46.2 -2.2 -51.35 -6.5 -46.5 -12.25 -41.45 -7.95 -36.65 -13.75 -41.7 -18.05 -38.3 -22.1 M-35.75 -4.35 L-36.35 -3.65 -35.75 -3.2 M-36.1 -14.4 L-36.65 -13.75 -36.0 -13.2 M-50.65 13.5 L-45.95 7.85 -51.05 3.55 -55.85 9.3 -50.65 13.5 M-40.6 11.85 L-36.0 6.4 -41.15 2.1 -45.95 7.85 -41.15 11.9 M-63.85 12.35 L-60.6 15.05 -55.85 9.3 -60.9 5.0 -64.7 9.5 M-61.2 -5.05 L-66.05 0.7 -60.9 5.0 -56.15 -0.75 -51.05 3.55 -46.2 -2.2 M-66.5 1.35 L-66.05 0.7 -66.75 0.05" fill="none" stroke="#000000" stroke-linecap="round" stroke-linejoin="round" stroke-opacity="0.3019608" stroke-width="0.5"/>
      <path d="M-65.35 -21.0 L-58.3 -22.3 -55.1 -22.7 -47.5 -23.0 -46.25 -23.0 -38.3 -22.1 -38.25 -22.1 -36.75 -21.8 -36.1 -14.4 -36.0 -13.2 -35.75 -4.35 -35.75 -3.2 Q-35.85 1.55 -36.25 6.2 L-36.3 6.75 -36.8 11.25 -62.75 15.4 -63.85 12.35 -64.7 9.5 Q-65.85 5.35 -66.5 1.35 L-66.75 0.05 Q-67.35 -3.95 -67.45 -7.9 L-67.5 -10.4 Q-67.5 -14.85 -66.8 -19.2 L-66.75 -19.6 -66.6 -20.7 -65.35 -21.0 Z" fill="none" stroke="#000000" stroke-linecap="round" stroke-linejoin="round" stroke-opacity="0.5019608" stroke-width="1.0"/>
    </g>
    <linearGradient gradientTransform="matrix(0.0025, 1.0E-4, -0.0011, 0.0208, -11.8, 24.3)" gradientUnits="userSpaceOnUse" id="gradient2" spreadMethod="pad" x1="-819.2" x2="819.2">
      <stop offset="0.0" stop-color="#333333"/>
      <stop offset="1.0" stop-color="#6d97a8"/>
    </linearGradient>
    <linearGradient gradientTransform="matrix(-0.0223, -0.0012, 5.0E-4, -0.0092, -49.1, 22.0)" gradientUnits="userSpaceOnUse" id="gradient3" spreadMethod="pad" x1="-819.2" x2="819.2">
      <stop offset="0.0" stop-color="#cccccc"/>
      <stop offset="1.0" stop-color="#969696"/>
    </linearGradient>
    <linearGradient gradientTransform="matrix(0.0179, 0.001, -7.0E-4, 0.0123, -81.95, 20.2)" gradientUnits="userSpaceOnUse" id="gradient4" spreadMethod="pad" x1="-819.2" x2="819.2">
      <stop offset="0.0" stop-color="#333333"/>
      <stop offset="1.0" stop-color="#5e5e5e"/>
    </linearGradient>
    <linearGradient gradientTransform="matrix(-0.0148, 0.0075, -0.0071, -0.0141, -110.65, 24.7)" gradientUnits="userSpaceOnUse" id="gradient5" spreadMethod="pad" x1="-819.2" x2="819.2">
      <stop offset="0.0" stop-color="#b6b6b6"/>
      <stop offset="1.0" stop-color="#636363"/>
    </linearGradient>
    <radialGradient cx="0" cy="0" gradientTransform="matrix(-3.0E-4, 0.0049, -0.0049, -3.0E-4, -104.45, 21.15)" gradientUnits="userSpaceOnUse" id="gradient6" r="819.2" spreadMethod="pad">
      <stop offset="0.0" stop-color="#ffffff"/>
      <stop offset="1.0" stop-color="#333333"/>
    </radialGradient>
    <linearGradient gradientTransform="matrix(0.0199, -4.0E-4, 5.0E-4, 0.0224, -52.35, -4.75)" gradientUnits="userSpaceOnUse" id="gradient7" spreadMethod="pad" x1="-819.2" x2="819.2">
      <stop offset="0.0" stop-color="#a8a8a8"/>
      <stop offset="0.3215686274509804" stop-color="#cccccc"/>
      <stop offset="0.49411764705882355" stop-color="#cccccc"/>
      <stop offset="0.6588235294117647" stop-color="#cacaca"/>
      <stop offset="0.9803921568627451" stop-color="#9c9c9c"/>
    </linearGradient>
  </defs>
</svg>
