<?xml version="1.0" encoding="UTF-8" standalone="no"?>
<svg xmlns:xlink="http://www.w3.org/1999/xlink" height="531.5px" width="460.6px" xmlns="http://www.w3.org/2000/svg">
  <g transform="matrix(1.0, 0.0, 0.0, 1.0, 193.65, 334.05)">
    <use height="119.1" transform="matrix(1.0, 0.0, 0.0, 1.0, -59.05, -127.85)" width="185.5" xlink:href="#shape0"/>
  </g>
  <defs>
    <g id="shape0" transform="matrix(1.0, 0.0, 0.0, 1.0, 59.05, 127.85)">
      <path d="M95.05 -116.3 L94.3 -118.5 Q91.9 -124.45 86.4 -127.25 91.25 -127.6 95.3 -126.35 106.65 -122.8 112.4 -106.6 L112.45 -106.25 Q110.4 -106.15 108.3 -104.8 101.9 -112.35 95.05 -116.3" fill="url(#gradient0)" fill-rule="evenodd" stroke="none"/>
      <path d="M79.6 -35.35 L79.6 -35.4 76.65 -39.55 76.75 -39.65 76.85 -41.0 Q76.8 -42.2 76.2 -43.95 75.6 -45.65 72.85 -47.3 L74.15 -47.25 75.9 -46.75 75.95 -46.75 Q77.7 -45.65 78.85 -44.2 L79.25 -43.95 79.45 -43.85 Q79.7 -45.5 77.05 -48.65 L76.45 -49.35 Q79.9 -50.2 83.5 -47.85 82.05 -50.6 80.4 -52.95 L79.95 -53.55 81.35 -53.4 Q83.4 -52.4 82.8 -53.95 L80.45 -56.6 Q78.85 -59.5 79.9 -60.45 L80.05 -60.45 80.65 -62.55 81.85 -61.95 Q84.1 -59.2 85.05 -55.05 L85.05 -55.0 86.6 -54.15 Q86.85 -54.8 86.65 -56.7 86.45 -58.95 87.4 -62.55 L87.55 -63.4 Q90.7 -61.05 92.9 -57.8 94.35 -55.6 95.35 -53.0 L91.8 -49.15 86.75 -49.65 Q89.25 -46.8 90.6 -43.7 L90.6 -43.65 90.5 -42.1 Q90.15 -39.15 88.55 -35.0 86.2 -31.2 83.85 -31.7 L82.6 -33.55 Q81.8 -33.0 80.45 -33.55 L79.6 -35.35 M82.85 -67.75 L85.75 -67.7 84.25 -70.1 84.4 -70.1 Q85.0 -70.2 85.55 -71.1 L86.9 -74.2 Q87.9 -76.85 86.35 -78.8 L84.6 -80.95 86.55 -79.3 Q88.65 -78.4 87.9 -81.5 85.55 -83.8 82.45 -85.75 L79.35 -87.45 Q77.8 -89.2 78.3 -89.85 L78.35 -89.95 78.4 -91.3 78.65 -91.25 Q84.35 -90.15 91.45 -85.8 92.8 -83.2 93.75 -80.15 L93.8 -80.1 94.4 -78.85 94.65 -78.65 95.0 -78.4 95.15 -78.4 Q96.45 -81.1 97.35 -84.7 98.25 -88.3 96.1 -90.3 L93.8 -92.55 93.9 -92.7 Q94.7 -93.6 93.2 -94.4 94.2 -96.25 95.2 -94.4 96.65 -93.7 97.25 -94.05 98.2 -96.1 95.9 -98.4 L96.0 -98.5 95.9 -100.0 89.2 -100.35 Q89.05 -100.9 90.8 -101.5 92.5 -102.15 90.95 -106.85 89.4 -111.6 85.2 -114.3 L85.2 -114.35 85.35 -114.65 85.3 -114.8 85.15 -115.05 84.95 -115.15 84.8 -115.35 84.6 -115.45 84.35 -115.45 83.6 -115.75 82.85 -116.2 82.55 -116.3 82.25 -116.4 81.95 -116.55 81.6 -116.7 81.45 -116.7 81.3 -116.8 81.2 -117.0 81.15 -117.25 81.05 -117.5 81.0 -117.55 81.0 -117.65 81.15 -117.55 81.5 -117.35 81.8 -117.15 82.25 -117.0 82.5 -116.9 82.75 -116.7 82.9 -116.65 83.1 -116.75 83.2 -116.95 83.2 -117.1 82.85 -117.5 82.55 -117.55 82.2 -117.65 82.0 -117.75 81.8 -117.85 81.6 -117.85 81.4 -118.0 81.2 -118.1 81.0 -118.35 80.75 -118.7 80.35 -118.8 80.3 -118.8 80.05 -119.0 79.35 -118.95 79.05 -118.85 76.85 -120.5 76.65 -120.6 Q86.2 -121.4 95.05 -116.3 101.9 -112.35 108.3 -104.8 L111.45 -100.8 Q112.5 -96.75 110.65 -93.85 108.45 -94.65 106.0 -94.75 L101.85 -94.45 Q106.2 -91.6 107.75 -86.5 L108.5 -82.95 105.9 -83.4 Q107.55 -81.95 108.65 -80.3 106.2 -75.55 101.65 -73.35 L101.6 -73.35 98.85 -74.25 93.8 -74.7 Q96.65 -71.75 98.4 -68.7 L97.45 -66.0 Q94.15 -66.9 90.85 -65.5 L87.55 -63.5 Q87.55 -66.35 82.85 -67.75 M102.2 -97.2 Q99.2 -99.15 96.15 -99.95 L95.9 -100.0 96.15 -99.95 Q99.2 -99.15 102.2 -97.2 M80.4 -41.1 Q79.9 -42.8 78.85 -44.2 79.9 -42.8 80.4 -41.1 M97.2 -93.1 L96.75 -93.05 96.0 -92.2 95.8 -91.7 95.9 -91.2 Q95.95 -91.1 96.15 -91.05 L96.55 -91.0 Q96.65 -91.0 96.8 -91.1 L97.05 -91.2 97.2 -91.3 97.35 -91.4 97.45 -91.75 97.55 -92.1 97.65 -92.4 97.65 -92.7 97.45 -93.0 97.2 -93.1 M82.95 -88.75 Q82.8 -88.55 83.05 -88.15 L83.55 -87.75 83.85 -87.75 84.35 -87.6 85.6 -86.8 85.9 -86.55 86.15 -86.55 86.35 -86.6 86.45 -87.05 86.2 -87.4 85.0 -88.2 84.4 -88.6 84.15 -88.9 83.85 -89.15 83.4 -89.05 82.95 -88.75 M85.75 -67.7 Q87.4 -67.4 88.65 -66.55 87.4 -67.4 85.75 -67.7 M82.8 -57.9 L82.5 -57.95 82.15 -57.85 81.9 -57.55 81.95 -57.55 Q81.8 -57.35 81.9 -57.15 81.95 -57.1 82.1 -57.0 L82.35 -56.85 82.7 -56.9 83.0 -57.15 83.15 -57.45 83.0 -57.75 82.8 -57.9 M85.25 -54.15 L85.05 -55.0 85.25 -54.15" fill="url(#gradient1)" fill-rule="evenodd" stroke="none"/>
      <path d="M79.05 -118.85 L79.35 -118.95 80.05 -119.0 80.3 -118.8 80.35 -118.8 80.75 -118.7 81.0 -118.35 81.2 -118.1 81.4 -118.0 81.6 -117.85 81.8 -117.85 82.0 -117.75 82.2 -117.65 82.55 -117.55 82.85 -117.5 83.2 -117.1 83.2 -116.95 83.1 -116.75 82.9 -116.65 82.75 -116.7 82.5 -116.9 82.25 -117.0 81.8 -117.15 81.5 -117.35 81.15 -117.55 81.0 -117.65 81.0 -117.55 81.05 -117.5 81.15 -117.25 81.2 -117.0 81.3 -116.8 81.45 -116.7 81.6 -116.7 81.95 -116.55 82.25 -116.4 82.55 -116.3 82.85 -116.2 83.6 -115.75 84.35 -115.45 84.6 -115.45 84.8 -115.35 84.95 -115.15 85.15 -115.05 85.3 -114.8 85.35 -114.65 85.2 -114.35 85.2 -114.3 85.0 -114.2 84.65 -114.2 84.35 -114.4 84.25 -114.5 84.25 -114.55 84.2 -114.55 Q83.85 -114.6 83.45 -114.9 83.3 -114.95 83.05 -115.15 L82.6 -115.35 82.25 -115.45 82.1 -115.5 Q81.75 -115.65 81.35 -115.95 L81.1 -115.75 80.8 -115.75 80.65 -115.85 80.45 -115.9 80.25 -115.9 80.0 -115.8 79.6 -115.95 79.2 -116.2 78.85 -116.65 78.7 -116.95 78.5 -117.35 78.35 -117.95 78.35 -118.3 78.7 -118.65 79.05 -118.85 M84.4 -109.05 L84.55 -109.1 84.8 -109.0 85.0 -108.9 85.15 -108.5 84.85 -108.2 84.6 -108.15 84.4 -108.1 84.2 -108.0 Q84.05 -108.0 83.95 -108.1 L83.85 -108.2 83.8 -108.25 83.8 -108.35 83.85 -108.45 83.9 -108.5 83.9 -108.6 84.4 -109.05 M82.6 -110.0 L82.5 -109.4 82.1 -109.3 82.0 -109.3 81.7 -109.3 81.65 -109.4 81.4 -109.65 81.4 -110.1 Q81.5 -110.55 81.75 -110.7 L82.05 -110.75 82.35 -110.6 82.6 -110.0 M75.0 -114.75 L75.25 -114.45 75.25 -114.1 75.05 -113.6 74.85 -113.45 74.6 -113.4 74.3 -113.5 74.05 -113.55 73.85 -113.75 73.9 -114.05 73.9 -114.15 74.3 -114.6 74.55 -114.85 75.0 -114.75 M80.9 -80.95 L81.15 -80.9 81.45 -80.7 81.5 -80.3 81.4 -80.15 81.3 -79.95 81.1 -79.6 80.75 -79.15 Q80.5 -78.95 80.25 -78.9 L79.8 -79.1 79.6 -79.5 79.6 -79.65 79.55 -79.8 79.5 -80.05 79.55 -80.5 79.95 -80.9 80.45 -81.05 80.9 -80.95 M111.75 -90.0 L112.65 -89.45 112.85 -89.0 112.7 -88.7 112.5 -88.45 112.2 -88.3 111.95 -88.1 111.65 -87.85 Q111.5 -87.7 111.35 -87.7 111.05 -87.6 110.85 -87.85 110.65 -88.1 110.7 -88.45 L110.75 -88.9 110.7 -89.3 110.1 -89.35 Q109.8 -89.45 109.65 -89.6 109.45 -89.8 109.4 -90.1 L109.5 -90.7 109.9 -91.15 110.45 -91.3 110.85 -91.2 111.2 -91.1 111.5 -91.0 111.8 -90.55 111.75 -90.0 M97.2 -93.1 L97.45 -93.0 97.65 -92.7 97.65 -92.4 97.55 -92.1 97.45 -91.75 97.35 -91.4 97.2 -91.3 97.05 -91.2 96.8 -91.1 Q96.65 -91.0 96.55 -91.0 L96.15 -91.05 Q95.95 -91.1 95.9 -91.2 L95.8 -91.7 96.0 -92.2 96.75 -93.05 97.2 -93.1 M82.95 -88.75 L83.4 -89.05 83.85 -89.15 84.15 -88.9 84.4 -88.6 85.0 -88.2 86.2 -87.4 86.45 -87.05 86.35 -86.6 86.15 -86.55 85.9 -86.55 85.6 -86.8 84.35 -87.6 83.85 -87.75 83.55 -87.75 83.05 -88.15 Q82.8 -88.55 82.95 -88.75 M82.85 -81.25 L83.2 -81.5 83.7 -81.45 83.85 -81.0 83.75 -80.75 83.55 -80.55 83.15 -80.25 82.85 -80.25 82.65 -80.45 82.6 -80.75 82.65 -80.9 82.85 -81.25 M100.3 -69.85 L99.9 -69.65 99.6 -69.75 Q99.45 -69.75 99.35 -69.85 L99.15 -70.1 99.05 -70.7 99.45 -71.05 99.9 -71.2 100.15 -71.15 100.5 -71.0 100.65 -70.6 100.55 -70.15 100.3 -69.85 M82.8 -57.9 L83.0 -57.75 83.15 -57.45 83.0 -57.15 82.7 -56.9 82.35 -56.85 82.1 -57.0 Q81.95 -57.1 81.9 -57.15 81.8 -57.35 81.95 -57.55 L81.9 -57.55 82.15 -57.85 82.5 -57.95 82.8 -57.9" fill="#771513" fill-rule="evenodd" stroke="none"/>
      <path d="M76.65 -39.55 Q73.45 -42.95 68.6 -44.6 70.4 -47.1 72.85 -47.3 75.6 -45.65 76.2 -43.95 76.8 -42.2 76.85 -41.0 L76.75 -39.65 76.65 -39.55 M81.85 -61.95 L80.8 -63.1 Q78.95 -64.95 76.4 -66.0 80.0 -67.5 82.85 -67.75 87.55 -66.35 87.55 -63.5 L87.5 -63.45 87.55 -63.4 87.4 -62.55 Q86.45 -58.95 86.65 -56.7 86.85 -54.8 86.6 -54.15 L85.05 -55.0 85.05 -55.05 Q84.1 -59.2 81.85 -61.95 M84.25 -70.1 Q79.4 -77.45 72.7 -82.55 L75.05 -84.15 74.9 -84.35 Q74.75 -86.5 79.0 -85.35 L80.2 -84.65 84.6 -80.95 86.35 -78.8 Q87.9 -76.85 86.9 -74.2 L85.55 -71.1 Q85.0 -70.2 84.4 -70.1 L84.25 -70.1 M91.45 -85.8 Q90.3 -88.05 88.85 -89.95 L90.9 -90.5 Q90.05 -92.0 92.0 -92.35 92.9 -91.7 93.8 -92.55 L96.1 -90.3 Q98.25 -88.3 97.35 -84.7 96.45 -81.1 95.15 -78.4 L95.0 -78.4 94.65 -78.65 94.4 -78.85 93.8 -80.1 93.75 -80.15 Q92.8 -83.2 91.45 -85.8 M86.45 -99.7 Q80.5 -104.1 73.35 -106.45 L75.85 -107.7 75.9 -107.7 Q81.5 -104.25 82.2 -106.7 82.55 -108.5 76.8 -109.5 72.85 -111.05 72.7 -112.35 L73.4 -115.45 Q75.1 -114.95 75.7 -116.55 76.4 -118.6 75.25 -118.5 L75.25 -118.55 74.15 -120.25 76.65 -120.6 76.85 -120.5 79.05 -118.85 78.7 -118.65 78.35 -118.3 78.35 -117.95 78.5 -117.35 78.7 -116.95 78.85 -116.65 79.2 -116.2 79.6 -115.95 80.0 -115.8 80.25 -115.9 80.45 -115.9 80.65 -115.85 80.8 -115.75 81.1 -115.75 81.35 -115.95 Q81.75 -115.65 82.1 -115.5 L82.25 -115.45 82.6 -115.35 83.05 -115.15 Q83.3 -114.95 83.45 -114.9 83.85 -114.6 84.2 -114.55 L84.25 -114.55 84.25 -114.5 84.35 -114.4 84.65 -114.2 85.0 -114.2 85.2 -114.3 Q89.4 -111.6 90.95 -106.85 92.5 -102.15 90.8 -101.5 89.05 -100.9 89.2 -100.35 L88.7 -100.25 86.45 -99.7 M82.6 -110.0 L82.35 -110.6 82.05 -110.75 81.75 -110.7 Q81.5 -110.55 81.4 -110.1 L81.4 -109.65 81.65 -109.4 81.7 -109.3 82.0 -109.3 82.1 -109.3 82.5 -109.4 82.6 -110.0 M84.4 -109.05 L83.9 -108.6 83.9 -108.5 83.85 -108.45 83.8 -108.35 83.8 -108.25 83.85 -108.2 83.95 -108.1 Q84.05 -108.0 84.2 -108.0 L84.4 -108.1 84.6 -108.15 84.85 -108.2 85.15 -108.5 85.0 -108.9 84.8 -109.0 84.55 -109.1 84.4 -109.05 M75.0 -114.75 L74.55 -114.85 74.3 -114.6 73.9 -114.15 73.9 -114.05 73.85 -113.75 74.05 -113.55 74.3 -113.5 74.6 -113.4 74.85 -113.45 75.05 -113.6 75.25 -114.1 75.25 -114.45 75.0 -114.75 M80.9 -80.95 L80.45 -81.05 79.95 -80.9 79.55 -80.5 79.5 -80.05 79.55 -79.8 79.6 -79.65 79.6 -79.5 79.8 -79.1 80.25 -78.9 Q80.5 -78.95 80.75 -79.15 L81.1 -79.6 81.3 -79.95 81.4 -80.15 81.5 -80.3 81.45 -80.7 81.15 -80.9 80.9 -80.95 M82.85 -81.25 L82.65 -80.9 82.6 -80.75 82.65 -80.45 82.85 -80.25 83.15 -80.25 83.55 -80.55 83.75 -80.75 83.85 -81.0 83.7 -81.45 83.2 -81.5 82.85 -81.25" fill="url(#gradient2)" fill-rule="evenodd" stroke="none"/>
      <path d="M88.85 -89.95 Q85.5 -94.3 80.65 -96.9 83.55 -98.8 86.45 -99.7 L88.7 -100.25 89.2 -100.35 95.9 -100.0 96.0 -98.5 95.9 -98.4 Q98.2 -96.1 97.25 -94.05 96.65 -93.7 95.2 -94.4 94.2 -96.25 93.2 -94.4 94.7 -93.6 93.9 -92.7 L93.8 -92.55 Q92.9 -91.7 92.0 -92.35 90.05 -92.0 90.9 -90.5 L88.85 -89.95" fill="url(#gradient3)" fill-rule="evenodd" stroke="none"/>
      <path d="M112.45 -106.25 Q116.9 -106.5 120.9 -100.65 121.95 -99.15 121.6 -96.5 125.2 -95.75 125.9 -92.05 126.2 -88.9 123.6 -82.0 121.05 -75.1 114.9 -62.5 108.8 -49.9 88.4 -19.75 82.65 -21.6 79.75 -28.05 77.5 -33.05 79.6 -35.35 L80.45 -33.55 Q81.8 -33.0 82.6 -33.55 L83.85 -31.7 Q86.2 -31.2 88.55 -35.0 90.15 -39.15 90.5 -42.1 L90.6 -43.65 91.3 -41.9 Q92.15 -39.2 92.2 -36.35 96.9 -38.85 97.7 -45.8 95.4 -47.85 92.85 -48.8 L91.8 -49.15 95.35 -53.0 96.1 -50.7 Q100.55 -53.55 101.4 -59.25 L101.45 -57.4 Q109.05 -60.55 107.6 -69.35 104.9 -72.0 101.65 -73.35 106.2 -75.55 108.65 -80.3 111.05 -76.6 110.75 -71.7 115.5 -73.1 115.55 -78.75 113.9 -80.65 111.7 -81.8 117.0 -86.25 115.35 -91.05 113.2 -92.95 110.65 -93.85 112.5 -96.75 111.45 -100.8 L108.3 -104.8 Q110.4 -106.15 112.45 -106.25 M115.1 -103.85 L114.7 -104.0 114.25 -104.05 113.75 -103.95 113.7 -103.95 113.2 -103.95 Q112.8 -103.8 112.7 -103.35 112.6 -102.9 112.75 -102.5 L113.2 -101.85 113.75 -101.3 Q114.5 -100.5 114.7 -99.2 114.9 -98.1 114.75 -96.7 L114.7 -95.8 Q114.75 -95.3 115.05 -95.05 L115.75 -94.95 Q116.1 -95.05 116.35 -95.4 116.7 -95.75 116.85 -96.5 L117.4 -96.9 117.85 -97.55 118.3 -98.4 118.5 -99.1 118.6 -99.2 118.6 -99.65 118.5 -100.0 118.4 -100.25 118.35 -100.45 118.35 -100.6 118.35 -100.8 118.1 -101.3 Q117.2 -102.65 115.8 -103.5 L115.1 -103.85 M121.05 -93.85 L121.6 -96.5 121.05 -93.85" fill="url(#gradient4)" fill-rule="evenodd" stroke="none"/>
      <path d="M115.1 -103.85 L115.8 -103.5 Q117.2 -102.65 118.1 -101.3 L118.35 -100.8 118.35 -100.6 118.35 -100.45 118.4 -100.25 118.5 -100.0 118.6 -99.65 118.6 -99.2 118.5 -99.1 118.3 -98.4 117.85 -97.55 117.4 -96.9 116.85 -96.5 Q116.7 -95.75 116.35 -95.4 116.1 -95.05 115.75 -94.95 L115.05 -95.05 Q114.75 -95.3 114.7 -95.8 L114.75 -96.7 Q114.9 -98.1 114.7 -99.2 114.5 -100.5 113.75 -101.3 L113.2 -101.85 112.75 -102.5 Q112.6 -102.9 112.7 -103.35 112.8 -103.8 113.2 -103.95 L113.7 -103.95 113.75 -103.95 114.25 -104.05 114.7 -104.0 115.1 -103.85" fill="#bb5552" fill-rule="evenodd" stroke="none"/>
      <path d="M73.35 -106.45 L66.45 -108.2 68.95 -112.4 66.9 -116.8 70.4 -118.85 68.2 -120.2 73.3 -120.15 74.15 -120.25 75.25 -118.55 75.25 -118.5 Q76.4 -118.6 75.7 -116.55 75.1 -114.95 73.4 -115.45 L72.7 -112.35 Q72.85 -111.05 76.8 -109.5 82.55 -108.5 82.2 -106.7 81.5 -104.25 75.9 -107.7 L75.85 -107.7 73.35 -106.45" fill="url(#gradient5)" fill-rule="evenodd" stroke="none"/>
      <path d="M72.7 -82.55 Q69.15 -85.3 65.05 -87.4 70.0 -92.4 77.5 -91.4 L78.4 -91.3 78.35 -89.95 78.3 -89.85 Q77.8 -89.2 79.35 -87.45 L82.45 -85.75 Q85.55 -83.8 87.9 -81.5 88.65 -78.4 86.55 -79.3 L84.6 -80.95 80.2 -84.65 79.0 -85.35 Q74.75 -86.5 74.9 -84.35 L75.05 -84.15 72.7 -82.55" fill="url(#gradient6)" fill-rule="evenodd" stroke="none"/>
      <path d="M79.95 -53.55 Q75.0 -60.25 68.45 -63.75 73.6 -65.65 80.65 -62.55 L80.05 -60.45 79.9 -60.45 Q78.85 -59.5 80.45 -56.6 L82.8 -53.95 Q83.4 -52.4 81.35 -53.4 L79.95 -53.55" fill="url(#gradient7)" fill-rule="evenodd" stroke="none"/>
      <path d="M75.6 -47.1 L74.45 -48.55 76.45 -49.35 77.05 -48.65 Q79.7 -45.5 79.45 -43.85 L79.25 -43.95 78.85 -44.2 Q77.7 -45.65 75.95 -46.75 L75.6 -47.1" fill="url(#gradient8)" fill-rule="evenodd" stroke="none"/>
      <path d="M75.9 -46.75 L75.6 -47.1 75.95 -46.75 75.9 -46.75" fill="url(#gradient9)" fill-rule="evenodd" stroke="none"/>
      <path d="M111.75 -90.0 L111.8 -90.55 111.5 -91.0 111.2 -91.1 110.85 -91.2 110.45 -91.3 109.9 -91.15 109.5 -90.7 109.4 -90.1 Q109.45 -89.8 109.65 -89.6 109.8 -89.45 110.1 -89.35 L110.7 -89.3 110.75 -88.9 110.7 -88.45 Q110.65 -88.1 110.85 -87.85 111.05 -87.6 111.35 -87.7 111.5 -87.7 111.65 -87.85 L111.95 -88.1 112.2 -88.3 112.5 -88.45 112.7 -88.7 112.85 -89.0 112.65 -89.45 111.75 -90.0 M107.75 -86.5 L108.05 -86.8 108.8 -88.3 109.25 -91.25 Q109.45 -93.4 106.0 -94.75 108.45 -94.65 110.65 -93.85 113.2 -92.95 115.35 -91.05 117.0 -86.25 111.7 -81.8 110.25 -82.55 108.5 -82.95 L107.75 -86.5" fill="url(#gradient10)" fill-rule="evenodd" stroke="none"/>
      <path d="M107.75 -86.5 Q106.2 -91.6 101.85 -94.45 L106.0 -94.75 Q109.45 -93.4 109.25 -91.25 L108.8 -88.3 108.05 -86.8 107.75 -86.5" fill="url(#gradient11)" fill-rule="evenodd" stroke="none"/>
      <path d="M111.7 -81.8 Q113.9 -80.65 115.55 -78.75 115.5 -73.1 110.75 -71.7 111.05 -76.6 108.65 -80.3 107.55 -81.95 105.9 -83.4 L108.5 -82.95 Q110.25 -82.55 111.7 -81.8" fill="url(#gradient12)" fill-rule="evenodd" stroke="none"/>
      <path d="M101.65 -73.35 Q104.9 -72.0 107.6 -69.35 109.05 -60.55 101.45 -57.4 L101.4 -59.25 Q101.2 -62.15 100.2 -64.9 L99.5 -66.5 Q100.4 -66.7 101.25 -67.8 102.1 -68.9 102.05 -70.7 101.95 -72.45 100.4 -73.3 L98.85 -74.25 101.6 -73.35 101.65 -73.35" fill="url(#gradient13)" fill-rule="evenodd" stroke="none"/>
      <path d="M98.85 -74.25 L100.4 -73.3 Q101.95 -72.45 102.05 -70.7 102.1 -68.9 101.25 -67.8 100.4 -66.7 99.5 -66.5 L98.4 -68.7 Q96.65 -71.75 93.8 -74.7 L98.85 -74.25 M100.3 -69.85 L100.55 -70.15 100.65 -70.6 100.5 -71.0 100.15 -71.15 99.9 -71.2 99.45 -71.05 99.05 -70.7 99.15 -70.1 99.35 -69.85 Q99.45 -69.75 99.6 -69.75 L99.9 -69.65 100.3 -69.85" fill="url(#gradient14)" fill-rule="evenodd" stroke="none"/>
      <path d="M99.5 -66.5 L100.2 -64.9 97.45 -66.0 98.4 -68.7 99.5 -66.5" fill="url(#gradient15)" fill-rule="evenodd" stroke="none"/>
      <path d="M101.4 -59.25 Q100.55 -53.55 96.1 -50.7 L95.35 -53.0 Q94.35 -55.6 92.9 -57.8 L93.3 -58.5 94.5 -60.9 Q95.45 -62.75 94.8 -64.25 94.2 -65.7 90.85 -65.5 94.15 -66.9 97.45 -66.0 L100.2 -64.9 Q101.2 -62.15 101.4 -59.25" fill="url(#gradient16)" fill-rule="evenodd" stroke="none"/>
      <path d="M90.85 -65.5 Q94.2 -65.7 94.8 -64.25 95.45 -62.75 94.5 -60.9 L93.3 -58.5 92.9 -57.8 Q90.7 -61.05 87.55 -63.4 L87.5 -63.45 87.55 -63.5 90.85 -65.5" fill="url(#gradient17)" fill-rule="evenodd" stroke="none"/>
      <path d="M92.85 -48.8 Q95.4 -47.85 97.7 -45.8 96.9 -38.85 92.2 -36.35 92.15 -39.2 91.3 -41.9 L91.55 -41.9 Q92.2 -42.05 92.7 -42.85 93.25 -43.8 93.3 -45.45 L92.85 -48.8" fill="url(#gradient18)" fill-rule="evenodd" stroke="none"/>
      <path d="M91.8 -49.15 L92.85 -48.8 93.3 -45.45 Q93.25 -43.8 92.7 -42.85 92.2 -42.05 91.55 -41.9 L91.3 -41.9 90.6 -43.65 90.6 -43.7 Q89.25 -46.8 86.75 -49.65 L91.8 -49.15" fill="url(#gradient19)" fill-rule="evenodd" stroke="none"/>
      <path d="M95.05 -116.3 L94.3 -118.5 Q91.9 -124.45 86.4 -127.25 91.25 -127.6 95.3 -126.35 106.65 -122.8 112.4 -106.6 M112.45 -106.25 Q116.9 -106.5 120.9 -100.65 121.95 -99.15 121.6 -96.5 125.2 -95.75 125.9 -92.05 126.2 -88.9 123.6 -82.0 121.05 -75.1 114.9 -62.5 108.8 -49.9 88.4 -19.75 82.65 -21.6 79.75 -28.05 77.5 -33.05 79.6 -35.35 L79.6 -35.4 76.65 -39.55 Q73.45 -42.95 68.6 -44.6 70.4 -47.1 72.85 -47.3 L74.15 -47.25 75.9 -46.75 75.6 -47.1 74.45 -48.55 76.45 -49.35 Q79.9 -50.2 83.5 -47.85 82.05 -50.6 80.4 -52.95 L79.95 -53.55 Q75.0 -60.25 68.45 -63.75 73.6 -65.65 80.65 -62.55 L81.85 -61.95 80.8 -63.1 Q78.95 -64.95 76.4 -66.0 80.0 -67.5 82.85 -67.75 L85.75 -67.7 84.25 -70.1 Q79.4 -77.45 72.7 -82.55 69.15 -85.3 65.05 -87.4 70.0 -92.4 77.5 -91.4 L78.4 -91.3 78.65 -91.25 Q84.35 -90.15 91.45 -85.8 90.3 -88.05 88.85 -89.95 85.5 -94.3 80.65 -96.9 83.55 -98.8 86.45 -99.7 80.5 -104.1 73.35 -106.45 L66.45 -108.2 68.95 -112.4 66.9 -116.8 70.4 -118.85 68.2 -120.2 73.3 -120.15 74.15 -120.25 76.65 -120.6 Q86.2 -121.4 95.05 -116.3 101.9 -112.35 108.3 -104.8 110.4 -106.15 112.45 -106.25 M89.2 -100.35 L95.9 -100.0 96.15 -99.95 Q99.2 -99.15 102.2 -97.2 M89.2 -100.35 L88.7 -100.25 86.45 -99.7 M110.65 -93.85 Q112.5 -96.75 111.45 -100.8 L108.3 -104.8 M75.95 -46.75 Q77.7 -45.65 78.85 -44.2 79.9 -42.8 80.4 -41.1 M75.9 -46.75 L75.95 -46.75 M90.6 -43.65 L90.5 -42.1 Q90.15 -39.15 88.55 -35.0 86.2 -31.2 83.85 -31.7 L82.6 -33.55 Q81.8 -33.0 80.45 -33.55 L79.6 -35.35 M106.0 -94.75 L101.85 -94.45 Q106.2 -91.6 107.75 -86.5 L108.5 -82.95 Q110.25 -82.55 111.7 -81.8 113.9 -80.65 115.55 -78.75 115.5 -73.1 110.75 -71.7 111.05 -76.6 108.65 -80.3 106.2 -75.55 101.65 -73.35 104.9 -72.0 107.6 -69.35 109.05 -60.55 101.45 -57.4 L101.4 -59.25 Q100.55 -53.55 96.1 -50.7 L95.35 -53.0 91.8 -49.15 92.85 -48.8 Q95.4 -47.85 97.7 -45.8 96.9 -38.85 92.2 -36.35 92.15 -39.2 91.3 -41.9 L90.6 -43.65 90.6 -43.7 Q89.25 -46.8 86.75 -49.65 L91.8 -49.15 M106.0 -94.75 Q108.45 -94.65 110.65 -93.85 113.2 -92.95 115.35 -91.05 117.0 -86.25 111.7 -81.8 M108.5 -82.95 L105.9 -83.4 Q107.55 -81.95 108.65 -80.3 M93.8 -80.1 L93.75 -80.15 Q92.8 -83.2 91.45 -85.8 M99.5 -66.5 L100.2 -64.9 Q101.2 -62.15 101.4 -59.25 M97.45 -66.0 L100.2 -64.9 M98.4 -68.7 L97.45 -66.0 Q94.15 -66.9 90.85 -65.5 L87.55 -63.5 87.5 -63.45 87.55 -63.4 Q90.7 -61.05 92.9 -57.8 94.35 -55.6 95.35 -53.0 M98.4 -68.7 L99.5 -66.5 M88.65 -66.55 Q87.4 -67.4 85.75 -67.7 M85.05 -55.0 L85.25 -54.15 M81.85 -61.95 Q84.1 -59.2 85.05 -55.05 M101.65 -73.35 L101.6 -73.35 98.85 -74.25 93.8 -74.7 Q96.65 -71.75 98.4 -68.7 M121.6 -96.5 L121.05 -93.85" fill="none" stroke="#000000" stroke-linecap="round" stroke-linejoin="round" stroke-opacity="0.6627451" stroke-width="1.0"/>
      <path d="M14.35 -99.4 L14.4 -99.65 14.6 -100.15 Q15.5 -101.55 16.9 -102.35 L17.55 -102.7 18.0 -102.9 18.45 -102.95 18.95 -102.8 19.05 -102.8 19.55 -102.8 Q19.9 -102.65 20.05 -102.15 L20.0 -101.3 19.55 -100.6 19.0 -100.05 Q18.3 -99.2 18.1 -97.9 17.9 -96.75 18.1 -95.3 L18.2 -94.35 17.85 -93.65 17.15 -93.55 16.5 -94.0 Q16.15 -94.4 16.0 -95.15 15.65 -95.3 15.4 -95.6 L14.95 -96.25 14.5 -97.15 14.25 -97.85 14.15 -98.0 14.15 -98.45 14.25 -98.8 14.3 -99.05 14.35 -99.25 14.35 -99.4" fill="#bb5552" fill-rule="evenodd" stroke="none"/>
      <path d="M14.35 -99.4 L14.35 -99.25 14.3 -99.05 14.25 -98.8 14.15 -98.45 14.15 -98.0 14.25 -97.85 14.5 -97.15 14.95 -96.25 15.4 -95.6 Q15.65 -95.3 16.0 -95.15 16.15 -94.4 16.5 -94.0 L17.15 -93.55 17.85 -93.65 18.2 -94.35 18.1 -95.3 Q17.9 -96.75 18.1 -97.9 18.3 -99.2 19.0 -100.05 L19.55 -100.6 20.0 -101.3 20.05 -102.15 Q19.9 -102.65 19.55 -102.8 L19.05 -102.8 18.95 -102.8 18.45 -102.95 18.0 -102.9 17.55 -102.7 16.9 -102.35 Q15.5 -101.55 14.6 -100.15 L14.4 -99.65 14.35 -99.4 M24.45 -103.55 L21.35 -99.5 Q20.35 -95.35 22.3 -92.3 19.8 -91.4 17.6 -89.5 16.05 -84.55 21.5 -79.8 19.3 -78.7 17.7 -76.75 17.85 -70.9 22.7 -69.35 22.25 -74.4 24.65 -78.2 27.2 -73.2 31.9 -70.85 28.6 -69.55 25.95 -66.8 24.7 -57.8 32.4 -54.35 L32.45 -56.25 Q33.45 -50.35 37.95 -47.3 L38.7 -49.65 42.35 -45.6 41.3 -45.25 Q38.7 -44.3 36.45 -42.25 37.45 -35.05 42.2 -32.35 42.2 -35.3 43.0 -38.05 L43.65 -39.85 43.8 -38.25 Q44.2 -35.15 45.95 -30.85 48.4 -26.9 50.8 -27.35 L52.0 -29.25 54.15 -29.2 55.0 -31.05 Q57.15 -28.6 55.0 -23.45 52.2 -16.85 46.4 -15.1 25.15 -46.75 18.65 -59.9 12.2 -73.1 9.45 -80.3 6.7 -87.5 6.95 -90.75 7.55 -94.55 11.15 -95.25 10.8 -98.05 11.8 -99.55 15.75 -105.55 20.25 -105.2 22.25 -105.0 24.45 -103.55 M11.8 -92.5 Q11.3 -94.0 11.15 -95.25 11.3 -94.0 11.8 -92.5" fill="url(#gradient20)" fill-rule="evenodd" stroke="none"/>
      <path d="M24.45 -103.55 Q22.25 -105.0 20.25 -105.2 L20.25 -105.5 Q25.75 -122.15 37.1 -125.55 41.2 -126.8 46.1 -126.3 40.6 -123.55 38.3 -117.45 L37.6 -115.2 37.6 -115.15 Q30.75 -111.2 24.45 -103.55" fill="url(#gradient21)" fill-rule="evenodd" stroke="none"/>
      <path d="M22.3 -92.3 Q20.35 -95.35 21.35 -99.5 L24.45 -103.55 Q30.75 -111.2 37.6 -115.15 L37.6 -115.2 Q46.45 -120.25 56.1 -119.2 L55.95 -119.1 53.7 -117.45 53.4 -117.6 52.7 -117.6 52.45 -117.4 52.05 -117.35 51.75 -117.0 51.6 -116.75 51.4 -116.6 51.15 -116.5 50.95 -116.45 50.8 -116.35 50.55 -116.3 50.2 -116.2 49.9 -116.1 49.55 -115.75 49.55 -115.6 49.65 -115.5 49.7 -115.35 49.85 -115.25 50.05 -115.35 50.3 -115.5 50.55 -115.65 50.95 -115.75 51.25 -115.95 51.65 -116.2 51.8 -116.25 51.75 -116.15 51.75 -116.1 51.6 -115.85 51.6 -115.55 51.5 -115.35 51.35 -115.3 51.2 -115.3 50.85 -115.15 50.55 -115.0 50.25 -114.85 49.95 -114.8 49.2 -114.35 48.45 -114.05 48.2 -114.05 48.0 -114.0 47.85 -113.8 47.85 -113.75 47.65 -113.65 47.5 -113.4 47.45 -113.25 47.6 -112.95 47.6 -112.9 Q43.45 -110.15 41.95 -105.3 40.45 -100.45 42.25 -99.75 44.0 -99.1 43.85 -98.5 40.45 -99.1 37.1 -98.35 L37.05 -96.75 37.1 -96.65 Q34.85 -94.35 35.9 -92.2 36.45 -91.85 37.9 -92.5 L39.95 -92.45 Q38.45 -91.65 39.3 -90.7 L39.4 -90.6 37.1 -88.3 Q34.95 -86.25 35.95 -82.5 36.95 -78.75 38.35 -75.9 L38.45 -75.95 38.8 -76.15 39.05 -76.4 39.65 -77.65 39.7 -77.7 Q40.6 -80.85 41.9 -83.55 49.0 -87.9 54.7 -88.85 L55.0 -88.9 55.05 -87.5 55.1 -87.45 Q55.6 -86.7 54.15 -85.0 L51.0 -83.25 Q47.9 -81.35 45.6 -79.0 44.9 -75.75 47.0 -76.65 L48.95 -78.35 47.2 -76.15 Q45.7 -74.2 46.8 -71.45 L48.2 -68.15 Q48.75 -67.2 49.4 -67.15 L49.55 -67.1 48.05 -64.65 Q49.4 -64.85 51.0 -64.65 46.25 -63.3 46.35 -60.35 44.65 -61.7 43.0 -62.45 39.6 -64.0 36.25 -63.15 L35.25 -65.95 Q36.95 -69.1 39.75 -72.1 L34.65 -71.7 31.9 -70.85 Q27.2 -73.2 24.65 -78.2 25.7 -79.9 27.35 -81.35 L24.75 -80.95 Q24.9 -82.9 25.4 -84.6 26.85 -89.85 31.2 -92.7 L27.0 -93.1 Q24.55 -93.1 22.3 -92.3 M52.15 -58.65 L53.35 -59.2 54.0 -57.0 54.15 -57.05 Q55.25 -56.05 53.7 -53.05 L51.35 -50.35 Q50.8 -48.75 52.85 -49.75 L54.25 -49.9 53.8 -49.25 Q52.2 -46.85 50.75 -44.1 54.35 -46.4 57.85 -45.45 L57.3 -44.75 Q54.7 -41.55 54.95 -39.8 L55.15 -39.95 55.6 -40.2 Q56.7 -41.65 58.45 -42.75 L58.5 -42.75 60.25 -43.2 61.55 -43.25 Q58.8 -41.6 58.25 -39.85 57.65 -38.05 57.65 -36.85 L57.75 -35.45 57.9 -35.3 Q56.2 -33.45 55.0 -31.05 L54.15 -29.2 52.0 -29.25 50.8 -27.35 Q48.4 -26.9 45.95 -30.85 44.2 -35.15 43.8 -38.25 L43.65 -39.85 43.65 -39.9 Q45.0 -43.1 47.45 -45.95 L42.35 -45.6 38.7 -49.65 Q39.6 -52.3 41.05 -54.55 43.2 -57.9 46.35 -60.25 L46.5 -59.35 Q47.55 -55.6 47.4 -53.3 47.25 -51.3 47.5 -50.65 L49.05 -51.5 49.05 -51.55 Q49.9 -55.85 52.15 -58.65 M49.55 -86.8 L49.2 -86.6 49.0 -86.25 48.4 -85.85 Q47.5 -85.4 47.15 -85.05 L46.95 -84.7 47.05 -84.25 Q47.15 -84.15 47.25 -84.15 L47.5 -84.2 47.85 -84.45 49.05 -85.25 49.55 -85.4 49.85 -85.35 50.35 -85.75 50.4 -86.4 50.0 -86.7 49.55 -86.8 M48.05 -64.65 Q46.45 -64.4 45.15 -63.55 46.45 -64.4 48.05 -64.65 M48.85 -50.6 L49.05 -51.5 48.85 -50.6 M51.25 -54.4 L51.1 -54.3 50.95 -54.0 51.05 -53.65 51.4 -53.45 51.7 -53.35 51.95 -53.5 52.15 -53.65 52.15 -54.05 52.15 -54.1 51.9 -54.35 51.55 -54.45 51.25 -54.4 M37.1 -98.35 L36.85 -98.25 Q33.8 -97.5 30.75 -95.6 33.8 -97.5 36.85 -98.25 L37.1 -98.35 M35.7 -89.8 L35.85 -89.45 36.0 -89.35 36.15 -89.25 36.4 -89.1 36.6 -89.0 37.05 -89.05 37.3 -89.2 37.4 -89.7 37.15 -90.25 36.35 -91.15 35.95 -91.2 35.7 -91.1 35.45 -90.8 35.5 -90.5 35.6 -90.2 35.7 -89.8 M54.05 -37.0 Q54.5 -38.75 55.6 -40.2 54.5 -38.75 54.05 -37.0" fill="url(#gradient22)" fill-rule="evenodd" stroke="none"/>
      <path d="M58.65 -118.8 L59.55 -118.65 Q72.85 -115.35 79.8 -107.15 68.35 -107.6 59.8 -104.5 L57.2 -105.85 57.2 -105.8 Q51.55 -102.4 50.8 -104.95 50.4 -106.8 56.2 -107.75 60.15 -109.25 60.3 -110.6 L59.5 -113.85 Q57.8 -113.35 57.15 -115.0 56.45 -117.15 57.6 -117.0 L57.6 -117.05 58.65 -118.8" fill="url(#gradient23)" fill-rule="evenodd" stroke="none"/>
      <path d="M59.8 -104.5 Q52.6 -102.2 46.65 -97.8 L44.35 -98.4 43.85 -98.5 Q44.0 -99.1 42.25 -99.75 40.45 -100.45 41.95 -105.3 43.45 -110.15 47.6 -112.9 L47.85 -112.75 48.15 -112.8 Q48.3 -112.8 48.45 -112.95 L48.55 -113.05 48.6 -113.1 49.35 -113.45 49.75 -113.7 50.2 -113.9 50.55 -114.0 50.75 -114.1 51.45 -114.5 51.7 -114.3 52.0 -114.3 52.2 -114.4 52.4 -114.45 52.6 -114.4 52.8 -114.3 53.2 -114.45 53.65 -114.7 54.0 -115.2 54.1 -115.5 54.3 -115.9 54.45 -116.5 54.45 -116.85 54.05 -117.25 53.7 -117.45 55.95 -119.1 56.1 -119.2 58.65 -118.8 57.6 -117.05 57.6 -117.0 Q56.45 -117.15 57.15 -115.0 57.8 -113.35 59.5 -113.85 L60.3 -110.6 Q60.15 -109.25 56.2 -107.75 50.4 -106.8 50.8 -104.95 51.55 -102.4 57.2 -105.8 L57.2 -105.85 59.8 -104.5 M44.45 -87.75 L41.9 -83.55 Q40.6 -80.85 39.7 -77.7 L39.65 -77.65 39.05 -76.4 38.8 -76.15 38.45 -75.95 38.35 -75.9 Q36.95 -78.75 35.95 -82.5 34.95 -86.25 37.1 -88.3 L39.4 -90.6 Q40.3 -89.7 41.2 -90.3 43.2 -89.9 42.4 -88.4 L44.45 -87.75 M60.95 -79.75 Q54.25 -74.6 49.55 -67.1 L49.4 -67.15 Q48.75 -67.2 48.2 -68.15 L46.8 -71.45 Q45.7 -74.2 47.2 -76.15 L48.95 -78.35 53.35 -82.05 54.5 -82.75 Q58.8 -83.9 58.65 -81.65 L58.55 -81.45 60.95 -79.75 M51.0 -64.65 Q53.9 -64.35 57.6 -62.7 55.0 -61.65 53.15 -59.8 L52.15 -58.65 Q49.9 -55.85 49.05 -51.55 L49.05 -51.5 47.5 -50.65 Q47.25 -51.3 47.4 -53.3 47.55 -55.6 46.5 -59.35 L46.35 -60.25 46.4 -60.3 46.35 -60.35 Q46.25 -63.3 51.0 -64.65 M61.55 -43.25 Q64.05 -43.0 65.9 -40.35 61.05 -38.75 57.9 -35.3 L57.75 -35.45 57.65 -36.85 Q57.65 -38.05 58.25 -39.85 58.8 -41.6 61.55 -43.25 M57.65 -112.45 Q57.7 -112.15 57.85 -111.95 L58.1 -111.75 58.35 -111.7 58.65 -111.8 58.9 -111.9 59.1 -112.1 59.05 -112.4 59.05 -112.45 58.65 -112.95 58.4 -113.2 57.9 -113.15 57.65 -112.85 57.65 -112.45 M50.35 -108.35 Q50.25 -107.95 50.4 -107.75 L50.85 -107.65 50.9 -107.65 50.95 -107.6 51.25 -107.6 51.35 -107.7 51.55 -108.0 51.55 -108.45 51.2 -109.1 50.85 -109.15 50.6 -109.0 50.35 -108.35 M47.8 -106.9 L48.1 -106.55 48.35 -106.5 48.55 -106.4 48.8 -106.35 49.0 -106.4 49.1 -106.5 49.15 -106.6 49.15 -106.75 49.15 -106.8 49.05 -106.85 49.05 -106.95 48.5 -107.45 48.4 -107.5 48.1 -107.4 47.9 -107.25 47.8 -106.9 M50.0 -77.9 L50.45 -77.6 50.7 -77.6 50.95 -77.8 50.95 -78.1 50.9 -78.25 50.7 -78.6 50.35 -78.85 49.85 -78.8 Q49.6 -78.65 49.7 -78.35 L49.8 -78.1 50.0 -77.9 M53.65 -78.2 L53.15 -78.35 52.7 -78.25 52.45 -78.2 52.1 -78.0 52.05 -77.6 52.2 -77.4 52.3 -77.25 52.5 -76.85 52.85 -76.4 53.4 -76.15 Q53.65 -76.15 53.8 -76.3 L54.05 -76.7 54.05 -76.9 54.05 -77.05 54.15 -77.3 54.05 -77.75 53.65 -78.2" fill="url(#gradient24)" fill-rule="evenodd" stroke="none"/>
      <path d="M47.6 -112.9 L47.6 -112.95 47.45 -113.25 47.5 -113.4 47.65 -113.65 47.85 -113.75 47.85 -113.8 48.0 -114.0 48.2 -114.05 48.45 -114.05 49.2 -114.35 49.95 -114.8 50.25 -114.85 50.55 -115.0 50.85 -115.15 51.2 -115.3 51.35 -115.3 51.5 -115.35 51.6 -115.55 51.6 -115.85 51.75 -116.1 51.75 -116.15 51.8 -116.25 51.65 -116.2 51.25 -115.95 50.95 -115.75 50.55 -115.65 50.3 -115.5 50.05 -115.35 49.85 -115.25 49.7 -115.35 49.65 -115.5 49.55 -115.6 49.55 -115.75 49.9 -116.1 50.2 -116.2 50.55 -116.3 50.8 -116.35 50.95 -116.45 51.15 -116.5 51.4 -116.6 51.6 -116.75 51.75 -117.0 52.05 -117.35 52.45 -117.4 52.7 -117.6 53.4 -117.6 53.7 -117.45 54.05 -117.25 54.45 -116.85 54.45 -116.5 54.3 -115.9 54.1 -115.5 54.0 -115.2 53.65 -114.7 53.2 -114.45 52.8 -114.3 52.6 -114.4 52.4 -114.45 52.2 -114.4 52.0 -114.3 51.7 -114.3 51.45 -114.5 50.75 -114.1 50.55 -114.0 50.2 -113.9 49.75 -113.7 49.35 -113.45 48.6 -113.1 48.55 -113.05 48.45 -112.95 Q48.3 -112.8 48.15 -112.8 L47.85 -112.75 47.6 -112.9 M47.8 -106.9 L47.9 -107.25 48.1 -107.4 48.4 -107.5 48.5 -107.45 49.05 -106.95 49.05 -106.85 49.15 -106.8 49.15 -106.75 49.15 -106.6 49.1 -106.5 49.0 -106.4 48.8 -106.35 48.55 -106.4 48.35 -106.5 48.1 -106.55 47.8 -106.9 M50.35 -108.35 L50.6 -109.0 50.85 -109.15 51.2 -109.1 51.55 -108.45 51.55 -108.0 51.35 -107.7 51.25 -107.6 50.95 -107.6 50.9 -107.65 50.85 -107.65 50.4 -107.75 Q50.25 -107.95 50.35 -108.35 M57.65 -112.45 L57.65 -112.85 57.9 -113.15 58.4 -113.2 58.65 -112.95 59.05 -112.45 59.05 -112.4 59.1 -112.1 58.9 -111.9 58.65 -111.8 58.35 -111.7 58.1 -111.75 57.85 -111.95 Q57.7 -112.15 57.65 -112.45 M49.55 -86.8 L50.0 -86.7 50.4 -86.4 50.35 -85.75 49.85 -85.35 49.55 -85.4 49.05 -85.25 47.85 -84.45 47.5 -84.2 47.25 -84.15 Q47.15 -84.15 47.05 -84.25 L46.95 -84.7 47.15 -85.05 Q47.5 -85.4 48.4 -85.85 L49.0 -86.25 49.2 -86.6 49.55 -86.8 M50.0 -77.9 L49.8 -78.1 49.7 -78.35 Q49.6 -78.65 49.85 -78.8 L50.35 -78.85 50.7 -78.6 50.9 -78.25 50.95 -78.1 50.95 -77.8 50.7 -77.6 50.45 -77.6 50.0 -77.9 M53.65 -78.2 L54.05 -77.75 54.15 -77.3 54.05 -77.05 54.05 -76.9 54.05 -76.7 53.8 -76.3 Q53.65 -76.15 53.4 -76.15 L52.85 -76.4 52.5 -76.85 52.3 -77.25 52.2 -77.4 52.05 -77.6 52.1 -78.0 52.45 -78.2 52.7 -78.25 53.15 -78.35 53.65 -78.2 M51.25 -54.4 L51.55 -54.45 51.9 -54.35 52.15 -54.1 52.15 -54.05 52.15 -53.65 51.95 -53.5 51.7 -53.35 51.4 -53.45 51.05 -53.65 50.95 -54.0 51.1 -54.3 51.25 -54.4 M35.7 -89.8 L35.6 -90.2 35.5 -90.5 35.45 -90.8 35.7 -91.1 35.95 -91.2 36.35 -91.15 37.15 -90.25 37.4 -89.7 37.3 -89.2 37.05 -89.05 36.6 -89.0 36.4 -89.1 36.15 -89.25 36.0 -89.35 35.85 -89.45 35.7 -89.8 M21.8 -89.4 L22.2 -89.55 22.6 -89.65 23.15 -89.45 23.55 -88.95 23.65 -88.4 23.45 -87.9 22.95 -87.6 22.35 -87.6 22.3 -87.15 22.4 -86.65 22.25 -86.1 Q22.05 -85.85 21.75 -85.9 21.6 -85.95 21.4 -86.1 L21.1 -86.35 20.85 -86.55 Q20.65 -86.65 20.55 -86.7 L20.35 -87.0 20.2 -87.3 20.4 -87.75 21.3 -88.3 21.25 -88.9 21.5 -89.3 21.8 -89.4 M33.1 -68.4 L33.45 -68.55 33.7 -68.6 34.1 -68.4 34.55 -68.05 34.45 -67.45 34.25 -67.15 34.0 -67.05 33.7 -67.0 33.35 -67.2 Q33.1 -67.4 33.0 -67.5 L32.9 -68.0 33.1 -68.4" fill="#771513" fill-rule="evenodd" stroke="none"/>
      <path d="M55.0 -88.9 L55.85 -89.0 Q63.45 -89.9 68.6 -84.6 64.5 -82.5 60.95 -79.75 L58.55 -81.45 58.65 -81.65 Q58.8 -83.9 54.5 -82.75 L53.35 -82.05 48.95 -78.35 47.0 -76.65 Q44.9 -75.75 45.6 -79.0 47.9 -81.35 51.0 -83.25 L54.15 -85.0 Q55.6 -86.7 55.1 -87.45 L55.05 -87.5 55.0 -88.9" fill="url(#gradient25)" fill-rule="evenodd" stroke="none"/>
      <path d="M46.65 -97.8 Q49.6 -96.8 52.55 -94.8 47.7 -92.2 44.45 -87.75 L42.4 -88.4 Q43.2 -89.9 41.2 -90.3 40.3 -89.7 39.4 -90.6 L39.3 -90.7 Q38.45 -91.65 39.95 -92.45 L37.9 -92.5 Q36.45 -91.85 35.9 -92.2 34.85 -94.35 37.1 -96.65 L37.05 -96.75 37.1 -98.35 Q40.45 -99.1 43.85 -98.5 L44.35 -98.4 46.65 -97.8" fill="url(#gradient26)" fill-rule="evenodd" stroke="none"/>
      <path d="M46.35 -60.35 L46.4 -60.3 46.35 -60.25 Q43.2 -57.9 41.05 -54.55 L40.65 -55.3 39.35 -57.8 Q38.35 -59.75 38.95 -61.3 39.6 -62.8 43.0 -62.45 44.65 -61.7 46.35 -60.35" fill="url(#gradient27)" fill-rule="evenodd" stroke="none"/>
      <path d="M43.0 -62.45 Q39.6 -62.8 38.95 -61.3 38.35 -59.75 39.35 -57.8 L40.65 -55.3 41.05 -54.55 Q39.6 -52.3 38.7 -49.65 L37.95 -47.3 Q33.45 -50.35 32.45 -56.25 32.6 -59.2 33.55 -62.05 L36.25 -63.15 Q39.6 -64.0 43.0 -62.45" fill="url(#gradient28)" fill-rule="evenodd" stroke="none"/>
      <path d="M53.35 -59.2 Q60.4 -62.25 65.65 -60.2 59.1 -56.7 54.25 -49.9 L52.85 -49.75 Q50.8 -48.75 51.35 -50.35 L53.7 -53.05 Q55.25 -56.05 54.15 -57.05 L54.0 -57.0 53.35 -59.2" fill="url(#gradient29)" fill-rule="evenodd" stroke="none"/>
      <path d="M21.8 -89.4 L21.5 -89.3 21.25 -88.9 21.3 -88.3 20.4 -87.75 20.2 -87.3 20.35 -87.0 20.55 -86.7 Q20.65 -86.65 20.85 -86.55 L21.1 -86.35 21.4 -86.1 Q21.6 -85.95 21.75 -85.9 22.05 -85.85 22.25 -86.1 L22.4 -86.65 22.3 -87.15 22.35 -87.6 22.95 -87.6 23.45 -87.9 23.65 -88.4 23.55 -88.95 23.15 -89.45 22.6 -89.65 22.2 -89.55 21.8 -89.4 M22.3 -92.3 Q24.55 -93.1 27.0 -93.1 23.55 -91.8 23.8 -89.55 L24.3 -86.5 25.1 -84.95 25.4 -84.6 Q24.9 -82.9 24.75 -80.95 23.0 -80.55 21.5 -79.8 16.05 -84.55 17.6 -89.5 19.8 -91.4 22.3 -92.3" fill="url(#gradient30)" fill-rule="evenodd" stroke="none"/>
      <path d="M25.4 -84.6 L25.1 -84.95 24.3 -86.5 23.8 -89.55 Q23.55 -91.8 27.0 -93.1 L31.2 -92.7 Q26.85 -89.85 25.4 -84.6" fill="url(#gradient31)" fill-rule="evenodd" stroke="none"/>
      <path d="M21.5 -79.8 Q23.0 -80.55 24.75 -80.95 L27.35 -81.35 Q25.7 -79.9 24.65 -78.2 22.25 -74.4 22.7 -69.35 17.85 -70.9 17.7 -76.75 19.3 -78.7 21.5 -79.8" fill="url(#gradient32)" fill-rule="evenodd" stroke="none"/>
      <path d="M33.55 -62.05 Q32.6 -59.2 32.45 -56.25 L32.4 -54.35 Q24.7 -57.8 25.95 -66.8 28.6 -69.55 31.9 -70.85 L34.65 -71.7 33.1 -70.8 Q31.6 -69.95 31.55 -68.1 31.5 -66.3 32.35 -65.1 33.3 -63.95 34.15 -63.75 L33.55 -62.05" fill="url(#gradient33)" fill-rule="evenodd" stroke="none"/>
      <path d="M34.65 -71.7 L39.75 -72.1 Q36.95 -69.1 35.25 -65.95 L34.15 -63.75 Q33.3 -63.95 32.35 -65.1 31.5 -66.3 31.55 -68.1 31.6 -69.95 33.1 -70.8 L34.65 -71.7 M33.1 -68.4 L32.9 -68.0 33.0 -67.5 Q33.1 -67.4 33.35 -67.2 L33.7 -67.0 34.0 -67.05 34.25 -67.15 34.45 -67.45 34.55 -68.05 34.1 -68.4 33.7 -68.6 33.45 -68.55 33.1 -68.4" fill="url(#gradient34)" fill-rule="evenodd" stroke="none"/>
      <path d="M36.25 -63.15 L33.55 -62.05 34.15 -63.75 35.25 -65.95 36.25 -63.15" fill="url(#gradient35)" fill-rule="evenodd" stroke="none"/>
      <path d="M57.85 -45.45 L59.9 -44.6 58.75 -43.15 58.45 -42.75 Q56.7 -41.65 55.6 -40.2 L55.15 -39.95 54.95 -39.8 Q54.7 -41.55 57.3 -44.75 L57.85 -45.45" fill="url(#gradient36)" fill-rule="evenodd" stroke="none"/>
      <path d="M58.75 -43.15 L58.5 -42.75 58.45 -42.75 58.75 -43.15" fill="url(#gradient37)" fill-rule="evenodd" stroke="none"/>
      <path d="M41.3 -45.25 L42.35 -45.6 47.45 -45.95 Q45.0 -43.1 43.65 -39.9 L43.65 -39.85 43.0 -38.05 42.8 -38.05 Q42.1 -38.2 41.6 -39.05 41.0 -40.1 40.9 -41.8 40.85 -43.35 41.3 -45.25" fill="url(#gradient38)" fill-rule="evenodd" stroke="none"/>
      <path d="M43.0 -38.05 Q42.2 -35.3 42.2 -32.35 37.45 -35.05 36.45 -42.25 38.7 -44.3 41.3 -45.25 40.85 -43.35 40.9 -41.8 41.0 -40.1 41.6 -39.05 42.1 -38.2 42.8 -38.05 L43.0 -38.05" fill="url(#gradient39)" fill-rule="evenodd" stroke="none"/>
      <path d="M22.3 -92.3 Q20.35 -95.35 21.35 -99.5 L24.45 -103.55 Q22.25 -105.0 20.25 -105.2 15.75 -105.55 11.8 -99.55 10.8 -98.05 11.15 -95.25 11.3 -94.0 11.8 -92.5 M24.45 -103.55 Q30.75 -111.2 37.6 -115.15 L37.6 -115.2 38.3 -117.45 Q40.6 -123.55 46.1 -126.3 41.2 -126.8 37.1 -125.55 25.75 -122.15 20.25 -105.5 M58.65 -118.8 L59.55 -118.65 Q72.85 -115.35 79.8 -107.15 68.35 -107.6 59.8 -104.5 52.6 -102.2 46.65 -97.8 49.6 -96.8 52.55 -94.8 47.7 -92.2 44.45 -87.75 L41.9 -83.55 Q49.0 -87.9 54.7 -88.85 L55.0 -88.9 55.85 -89.0 Q63.45 -89.9 68.6 -84.6 64.5 -82.5 60.95 -79.75 54.25 -74.6 49.55 -67.1 L48.05 -64.65 Q49.4 -64.85 51.0 -64.65 53.9 -64.35 57.6 -62.7 55.0 -61.65 53.15 -59.8 L52.15 -58.65 53.35 -59.2 Q60.4 -62.25 65.65 -60.2 59.1 -56.7 54.25 -49.9 L53.8 -49.25 Q52.2 -46.85 50.75 -44.1 54.35 -46.4 57.85 -45.45 L59.9 -44.6 58.75 -43.15 58.5 -42.75 60.25 -43.2 61.55 -43.25 Q64.05 -43.0 65.9 -40.35 61.05 -38.75 57.9 -35.3 56.2 -33.45 55.0 -31.05 57.15 -28.6 55.0 -23.45 52.2 -16.85 46.4 -15.1 25.15 -46.75 18.65 -59.9 12.2 -73.1 9.45 -80.3 6.7 -87.5 6.95 -90.75 7.55 -94.55 11.15 -95.25 M56.1 -119.2 Q46.45 -120.25 37.6 -115.2 M56.1 -119.2 L58.65 -118.8 M43.85 -98.5 L44.35 -98.4 46.65 -97.8 M45.15 -63.55 Q46.45 -64.4 48.05 -64.65 M46.35 -60.35 L46.4 -60.3 46.35 -60.25 Q43.2 -57.9 41.05 -54.55 39.6 -52.3 38.7 -49.65 L37.95 -47.3 Q33.45 -50.35 32.45 -56.25 L32.4 -54.35 Q24.7 -57.8 25.95 -66.8 28.6 -69.55 31.9 -70.85 L34.65 -71.7 39.75 -72.1 Q36.95 -69.1 35.25 -65.95 L36.25 -63.15 33.55 -62.05 Q32.6 -59.2 32.45 -56.25 M49.05 -51.55 Q49.9 -55.85 52.15 -58.65 M43.0 -62.45 Q39.6 -64.0 36.25 -63.15 M49.05 -51.5 L48.85 -50.6 M43.0 -62.45 Q44.65 -61.7 46.35 -60.35 M30.75 -95.6 Q33.8 -97.5 36.85 -98.25 L37.1 -98.35 Q40.45 -99.1 43.85 -98.5 M39.65 -77.65 L39.7 -77.7 Q40.6 -80.85 41.9 -83.55 M27.0 -93.1 Q24.55 -93.1 22.3 -92.3 19.8 -91.4 17.6 -89.5 16.05 -84.55 21.5 -79.8 23.0 -80.55 24.75 -80.95 24.9 -82.9 25.4 -84.6 26.85 -89.85 31.2 -92.7 L27.0 -93.1 M24.75 -80.95 L27.35 -81.35 Q25.7 -79.9 24.65 -78.2 27.2 -73.2 31.9 -70.85 M34.15 -63.75 L33.55 -62.05 M35.25 -65.95 L34.15 -63.75 M24.65 -78.2 Q22.25 -74.4 22.7 -69.35 17.85 -70.9 17.7 -76.75 19.3 -78.7 21.5 -79.8 M58.45 -42.75 L58.5 -42.75 M58.45 -42.75 Q56.7 -41.65 55.6 -40.2 54.5 -38.75 54.05 -37.0 M41.3 -45.25 L42.35 -45.6 38.7 -49.65 M43.65 -39.85 L43.0 -38.05 Q42.2 -35.3 42.2 -32.35 37.45 -35.05 36.45 -42.25 38.7 -44.3 41.3 -45.25 M42.35 -45.6 L47.45 -45.95 Q45.0 -43.1 43.65 -39.9 L43.65 -39.85 43.8 -38.25 Q44.2 -35.15 45.95 -30.85 48.4 -26.9 50.8 -27.35 L52.0 -29.25 54.15 -29.2 55.0 -31.05" fill="none" stroke="#000000" stroke-linecap="round" stroke-linejoin="round" stroke-opacity="0.6627451" stroke-width="1.0"/>
      <path d="M67.45 -53.1 L67.3 -52.95 67.1 -52.75 66.85 -52.35 66.85 -52.1 66.9 -51.9 67.15 -51.9 67.2 -52.05 67.25 -52.2 67.3 -52.4 67.5 -52.7 67.6 -52.75 67.7 -52.75 67.8 -52.7 67.95 -52.8 67.95 -52.95 67.8 -53.1 67.45 -53.1 M71.85 -43.8 L70.25 -43.65 67.4 -43.6 64.7 -43.75 63.55 -43.85 65.3 -48.75 Q67.6 -57.8 69.9 -49.15 L71.85 -43.8 M67.4 -43.6 L67.6 -48.85 67.4 -43.6 M64.7 -43.75 L66.75 -50.65 64.7 -43.75 M70.25 -43.65 L68.7 -50.35 70.25 -43.65" fill="url(#gradient40)" fill-rule="evenodd" stroke="none"/>
      <path d="M67.45 -53.1 L67.8 -53.1 67.95 -52.95 67.95 -52.8 67.8 -52.7 67.7 -52.75 67.6 -52.75 67.5 -52.7 67.3 -52.4 67.25 -52.2 67.2 -52.05 67.15 -51.9 66.9 -51.9 66.85 -52.1 66.85 -52.35 67.1 -52.75 67.3 -52.95 67.45 -53.1 M60.85 -40.25 L60.45 -40.25 60.15 -40.4 59.95 -40.55 59.9 -40.75 59.95 -40.95 60.0 -41.05 60.15 -41.05 60.25 -40.9 60.3 -40.75 Q60.4 -40.6 60.7 -40.6 L61.05 -40.65 61.25 -40.7 61.4 -40.65 61.4 -40.5 61.25 -40.35 60.85 -40.25 M55.55 -41.55 L55.6 -41.35 55.75 -41.2 56.65 -41.1 56.9 -41.15 57.05 -41.0 57.0 -40.85 56.8 -40.75 55.85 -40.8 55.25 -41.2 55.15 -41.7 55.15 -41.9 55.3 -42.0 55.45 -41.9 55.55 -41.7 55.55 -41.55 M55.0 -15.75 L55.1 -15.55 55.35 -15.2 Q55.55 -15.05 55.8 -15.05 L56.05 -15.05 56.25 -14.95 56.25 -14.85 56.2 -14.75 56.0 -14.7 Q55.45 -14.6 55.0 -15.05 L54.9 -15.1 54.8 -15.25 54.7 -15.5 54.7 -15.75 54.85 -15.85 55.0 -15.75 M80.85 -17.1 L81.3 -17.15 81.45 -17.25 81.65 -17.3 81.7 -17.1 81.55 -16.9 81.0 -16.7 Q80.55 -16.65 80.1 -17.0 L79.75 -17.45 79.75 -17.65 79.9 -17.75 80.1 -17.65 80.2 -17.5 80.5 -17.2 80.65 -17.1 80.85 -17.1 M79.1 -15.75 L78.95 -15.55 78.75 -15.55 Q78.15 -15.55 77.9 -15.8 L77.8 -16.1 77.9 -16.2 78.05 -16.2 78.2 -16.0 78.5 -15.9 78.75 -15.9 78.95 -15.85 79.1 -15.75 M82.75 -13.95 L82.7 -13.85 82.45 -13.8 82.1 -13.8 81.75 -13.85 81.5 -14.25 81.55 -14.4 81.65 -14.5 81.85 -14.3 81.9 -14.2 82.1 -14.15 82.45 -14.15 82.7 -14.1 82.75 -13.95" fill="#696904" fill-rule="evenodd" stroke="none"/>
      <path d="M74.95 -41.95 L74.7 -42.1 74.55 -41.95 74.6 -41.7 74.95 -41.35 75.65 -41.15 75.9 -41.2 75.95 -41.3 75.95 -41.45 75.7 -41.5 75.45 -41.55 75.1 -41.7 75.0 -41.8 74.95 -41.95 M77.35 -43.8 L77.5 -42.95 Q77.5 -41.05 75.65 -40.8 73.8 -40.75 73.75 -42.6 73.8 -40.75 75.65 -40.8 77.5 -41.05 77.5 -42.95 L77.35 -43.8 M79.05 -41.85 L79.1 -42.0 79.05 -42.2 78.95 -42.3 78.7 -42.1 78.7 -41.7 Q78.75 -41.45 78.9 -41.35 L79.35 -41.15 80.15 -40.95 80.45 -41.0 80.5 -41.15 80.4 -41.25 80.1 -41.35 79.3 -41.55 79.1 -41.7 79.05 -41.85 M82.6 -43.9 Q82.6 -40.35 80.15 -40.3 78.0 -40.4 77.5 -42.95 78.0 -40.4 80.15 -40.3 82.6 -40.35 82.6 -43.9 M71.85 -43.8 Q76.25 -44.35 79.95 -46.15 81.95 -47.15 83.15 -45.5 L83.15 -38.8 79.75 -38.8 55.05 -38.8 51.2 -38.8 51.2 -40.75 Q51.95 -45.3 55.45 -45.5 58.7 -44.45 63.55 -43.85 L64.7 -43.75 67.4 -43.6 70.25 -43.65 71.85 -43.8 M60.85 -40.25 L61.25 -40.35 61.4 -40.5 61.4 -40.65 61.25 -40.7 61.05 -40.65 60.7 -40.6 Q60.4 -40.6 60.3 -40.75 L60.25 -40.9 60.15 -41.05 60.0 -41.05 59.95 -40.95 59.9 -40.75 59.95 -40.55 60.15 -40.4 60.45 -40.25 60.85 -40.25 M67.75 -40.4 Q67.4 -40.55 67.3 -40.75 L67.25 -40.95 67.1 -41.05 66.95 -41.05 66.9 -40.95 66.9 -40.65 67.4 -40.2 Q67.65 -40.05 68.3 -40.0 L68.6 -40.1 68.5 -40.25 68.3 -40.35 67.75 -40.4 M70.6 -42.8 Q71.3 -40.0 68.2 -39.7 65.7 -40.1 65.9 -42.35 65.7 -40.1 68.2 -39.7 71.3 -40.0 70.6 -42.8 M55.55 -41.55 L55.55 -41.7 55.45 -41.9 55.3 -42.0 55.15 -41.9 55.15 -41.7 55.25 -41.2 55.85 -40.8 56.8 -40.75 57.0 -40.85 57.05 -41.0 56.9 -41.15 56.65 -41.1 55.75 -41.2 55.6 -41.35 55.55 -41.55 M62.6 -42.5 Q62.55 -39.7 60.05 -39.75 58.55 -40.15 58.4 -41.85 57.95 -40.15 56.1 -40.3 53.75 -40.6 54.35 -43.95 53.75 -40.6 56.1 -40.3 57.95 -40.15 58.4 -41.85 L58.55 -43.45 58.4 -41.85 Q58.55 -40.15 60.05 -39.75 62.55 -39.7 62.6 -42.5" fill="url(#gradient41)" fill-rule="evenodd" stroke="none"/>
      <path d="M74.95 -41.95 L75.0 -41.8 75.1 -41.7 75.45 -41.55 75.7 -41.5 75.95 -41.45 75.95 -41.3 75.9 -41.2 75.65 -41.15 74.95 -41.35 74.6 -41.7 74.55 -41.95 74.7 -42.1 74.95 -41.95 M79.05 -41.85 L79.1 -41.7 79.3 -41.55 80.1 -41.35 80.4 -41.25 80.5 -41.15 80.45 -41.0 80.15 -40.95 79.35 -41.15 78.9 -41.35 Q78.75 -41.45 78.7 -41.7 L78.7 -42.1 78.95 -42.3 79.05 -42.2 79.1 -42.0 79.05 -41.85 M67.75 -40.4 L68.3 -40.35 68.5 -40.25 68.6 -40.1 68.3 -40.0 Q67.65 -40.05 67.4 -40.2 L66.9 -40.65 66.9 -40.95 66.95 -41.05 67.1 -41.05 67.25 -40.95 67.3 -40.75 Q67.4 -40.55 67.75 -40.4 M59.6 -31.5 L59.25 -31.2 59.15 -31.15 58.9 -31.1 58.35 -31.1 58.1 -31.25 58.1 -31.5 58.2 -31.75 58.4 -31.7 58.45 -31.45 58.85 -31.45 Q59.05 -31.45 59.15 -31.6 L59.35 -31.7 59.5 -31.7 59.6 -31.6 59.6 -31.5 M80.7 -25.0 L80.55 -25.65 80.65 -25.75 80.85 -25.8 80.95 -25.7 80.9 -25.45 81.0 -25.25 81.25 -25.1 81.8 -25.05 82.05 -24.95 82.1 -24.85 82.1 -24.7 81.85 -24.65 81.1 -24.75 Q80.85 -24.85 80.7 -25.0 M75.95 -32.05 L75.5 -32.35 74.5 -32.9 74.5 -32.95 74.7 -33.1 74.85 -33.0 74.95 -32.85 75.25 -32.55 Q75.3 -32.5 75.7 -32.4 L75.9 -32.3 75.95 -32.1 75.95 -32.05 M66.8 -34.25 L66.75 -34.35 66.85 -34.7 67.05 -34.65 67.15 -34.45 67.25 -34.3 66.8 -34.25 M78.05 -32.15 L78.05 -32.35 78.1 -32.45 78.25 -32.5 78.4 -32.3 78.75 -31.9 Q79.0 -31.7 79.3 -31.65 L79.55 -31.55 79.55 -31.35 79.4 -31.25 79.0 -31.35 78.35 -31.75 78.05 -32.15 M50.05 -31.75 L50.25 -31.65 50.7 -31.65 50.85 -31.7 50.95 -31.75 51.1 -31.7 51.15 -31.6 51.05 -31.4 Q50.85 -31.25 50.5 -31.25 L49.9 -31.4 49.75 -31.5 49.65 -31.75 49.65 -31.85 49.65 -32.0 49.75 -32.1 49.85 -32.1 50.0 -31.95 50.05 -31.75 M52.95 -31.95 L53.1 -32.1 53.3 -32.0 53.4 -31.8 53.7 -31.55 54.7 -31.45 55.05 -31.45 55.1 -31.35 55.05 -31.25 54.85 -31.1 Q54.3 -30.95 53.8 -31.1 L53.0 -31.75 52.95 -31.95 M52.35 -28.3 L52.4 -28.55 52.5 -28.65 52.65 -28.65 52.75 -28.4 52.95 -27.75 Q53.1 -27.45 53.4 -27.25 L53.65 -27.0 53.65 -26.8 53.5 -26.7 53.35 -26.8 Q52.9 -27.05 52.6 -27.55 L52.45 -27.9 52.35 -28.3 M54.1 -24.0 L54.35 -23.8 54.35 -23.7 54.2 -23.6 54.0 -23.7 53.75 -23.75 53.45 -23.95 53.25 -24.25 53.25 -24.45 53.35 -24.6 53.4 -24.6 53.6 -24.45 53.65 -24.25 53.8 -24.15 54.1 -24.0 M52.85 -20.3 L52.65 -20.25 52.3 -20.35 51.7 -20.7 51.5 -20.95 51.4 -21.15 51.35 -21.35 51.55 -21.5 51.75 -21.35 51.85 -21.1 52.05 -20.9 Q52.25 -20.75 52.4 -20.75 L52.65 -20.65 52.85 -20.55 52.9 -20.4 52.85 -20.3 M82.5 -29.7 L82.2 -29.8 82.0 -29.9 81.85 -29.95 81.45 -30.2 81.15 -30.45 81.15 -30.8 81.3 -30.9 81.5 -30.8 81.5 -30.65 81.65 -30.5 81.95 -30.3 Q82.1 -30.25 82.35 -30.15 L82.6 -29.95 82.6 -29.8 82.5 -29.7" fill="#b6b606" fill-rule="evenodd" stroke="none"/>
      <path d="M55.05 -38.8 L79.75 -38.8 79.85 -34.9 79.8 -34.9 78.85 -34.35 Q75.65 -36.4 70.5 -36.45 L68.4 -36.35 66.0 -36.35 62.45 -36.0 60.45 -35.6 59.65 -35.4 Q58.15 -34.95 56.9 -34.35 L56.3 -34.5 55.15 -34.75 55.05 -38.75 55.05 -38.8" fill="url(#gradient42)" fill-rule="evenodd" stroke="none"/>
      <path d="M79.85 -34.9 Q82.3 -36.0 84.9 -35.45 89.75 -32.85 84.75 -24.7 L86.0 -21.65 Q85.3 -17.35 80.7 -15.75 78.7 -14.65 76.05 -14.1 74.95 -13.1 72.35 -13.45 73.85 -13.85 75.2 -14.65 L75.35 -14.75 75.45 -14.8 75.95 -15.1 76.0 -15.1 76.1 -15.2 76.0 -15.1 75.95 -15.05 75.45 -14.8 75.95 -15.05 76.0 -15.1 76.1 -15.2 76.15 -15.3 76.9 -16.1 77.05 -16.1 77.1 -15.9 Q77.4 -14.95 78.3 -14.9 79.15 -14.8 79.4 -16.15 L79.55 -17.35 79.4 -16.15 Q79.15 -14.8 78.3 -14.9 77.4 -14.95 77.1 -15.9 L77.05 -16.1 Q78.0 -16.4 79.25 -17.85 L79.6 -18.3 80.3 -19.25 Q81.2 -22.1 80.8 -23.75 L80.8 -23.8 80.75 -24.65 80.7 -25.0 Q80.85 -24.85 81.1 -24.75 L81.85 -24.65 82.1 -24.7 82.1 -24.85 82.05 -24.95 81.8 -25.05 81.25 -25.1 81.0 -25.25 80.9 -25.45 80.95 -25.7 80.85 -25.8 80.65 -25.75 80.55 -25.65 80.55 -25.7 80.0 -27.4 Q79.05 -29.6 76.9 -31.35 L76.4 -31.7 75.95 -32.05 75.95 -32.1 75.9 -32.3 75.7 -32.4 Q75.3 -32.5 75.25 -32.55 L74.95 -32.85 74.85 -33.0 74.7 -33.1 74.5 -32.95 74.5 -32.9 74.0 -33.1 Q72.25 -33.9 70.25 -34.2 L68.35 -34.3 67.9 -34.3 67.25 -34.3 67.15 -34.45 67.05 -34.65 66.85 -34.7 66.75 -34.35 66.8 -34.25 66.4 -34.25 66.05 -34.2 66.15 -34.8 66.4 -34.25 66.15 -34.8 66.05 -34.2 64.3 -33.85 63.4 -33.6 Q61.6 -33.0 60.1 -31.9 L59.6 -31.5 59.6 -31.6 59.5 -31.7 59.35 -31.7 59.15 -31.6 Q59.05 -31.45 58.85 -31.45 L58.45 -31.45 58.4 -31.7 58.2 -31.75 58.1 -31.5 58.1 -31.25 58.35 -31.1 58.9 -31.1 59.15 -31.15 59.05 -31.05 58.7 -30.7 58.4 -30.4 57.3 -29.1 56.65 -28.05 56.1 -26.8 55.65 -24.65 55.6 -23.55 55.6 -23.45 55.75 -22.1 55.7 -22.2 55.7 -22.3 55.6 -23.45 55.7 -22.3 55.7 -22.2 55.75 -22.1 Q55.25 -21.15 56.2 -18.55 L56.85 -17.65 57.3 -17.2 58.2 -16.3 Q58.1 -15.6 57.7 -15.15 L57.15 -14.7 57.7 -15.15 Q58.1 -15.6 58.2 -16.3 59.35 -15.35 60.65 -15.1 L61.6 -14.5 62.5 -14.05 62.6 -14.0 62.55 -13.85 62.6 -14.0 63.2 -13.8 62.55 -13.85 Q59.7 -12.35 58.35 -14.45 L57.15 -14.7 Q56.8 -14.5 56.4 -14.4 55.15 -14.3 54.45 -15.2 L53.95 -16.3 Q52.15 -15.15 51.9 -17.45 L51.9 -18.45 51.9 -17.45 Q52.15 -15.15 53.95 -16.3 53.6 -17.55 53.7 -19.9 L52.75 -19.8 Q50.9 -20.3 50.8 -22.45 50.9 -20.3 52.75 -19.8 L53.7 -19.9 Q55.45 -20.35 55.15 -22.55 55.45 -20.35 53.7 -19.9 53.6 -17.55 53.95 -16.3 L54.45 -15.2 49.2 -16.45 Q48.5 -19.75 50.15 -22.8 L50.45 -23.3 Q47.35 -29.0 47.6 -32.5 47.7 -29.9 48.9 -32.5 L49.1 -32.85 Q50.0 -34.2 52.05 -33.35 L52.05 -32.95 52.05 -32.9 Q52.2 -31.6 51.4 -31.15 L50.0 -30.95 Q48.85 -31.25 48.9 -32.5 48.85 -31.25 50.0 -30.95 L51.4 -31.15 Q52.2 -31.6 52.05 -32.9 L52.05 -32.95 52.05 -33.35 Q53.55 -34.85 56.3 -34.5 L56.9 -34.35 Q58.15 -34.95 59.65 -35.4 L60.45 -35.6 62.45 -36.0 66.0 -36.35 68.4 -36.35 70.5 -36.45 Q75.65 -36.4 78.85 -34.35 L79.8 -34.9 79.85 -34.9 M70.5 -35.05 L70.25 -34.2 70.5 -35.05 M62.65 -35.05 Q62.65 -34.1 63.4 -33.6 62.65 -34.1 62.65 -35.05 M78.05 -32.15 L78.35 -31.75 79.0 -31.35 79.4 -31.25 79.55 -31.35 79.55 -31.55 79.3 -31.65 Q79.0 -31.7 78.75 -31.9 L78.4 -32.3 78.25 -32.5 78.1 -32.45 78.05 -32.35 78.05 -32.15 M80.1 -28.05 L80.0 -27.4 80.1 -28.05 M74.0 -33.1 L73.9 -33.55 74.0 -33.1 M80.85 -31.55 Q80.35 -31.05 79.6 -31.0 78.05 -30.85 77.35 -32.9 77.05 -31.9 76.4 -31.7 77.05 -31.9 77.35 -32.9 L77.1 -33.6 77.35 -32.9 Q78.05 -30.85 79.6 -31.0 80.35 -31.05 80.85 -31.55 81.4 -32.2 81.45 -33.5 81.4 -32.2 80.85 -31.55 L80.85 -31.0 Q81.0 -29.15 83.3 -29.15 85.2 -29.2 84.95 -32.55 85.2 -29.2 83.3 -29.15 81.0 -29.15 80.85 -31.0 L80.85 -31.55 M50.05 -31.75 L50.0 -31.95 49.85 -32.1 49.75 -32.1 49.65 -32.0 49.65 -31.85 49.65 -31.75 49.75 -31.5 49.9 -31.4 50.5 -31.25 Q50.85 -31.25 51.05 -31.4 L51.15 -31.6 51.1 -31.7 50.95 -31.75 50.85 -31.7 50.7 -31.65 50.25 -31.65 50.05 -31.75 M59.95 -33.2 L60.1 -31.9 59.95 -33.2 M56.7 -33.5 L56.65 -32.6 Q56.45 -30.85 55.05 -30.6 52.45 -30.05 52.05 -32.9 52.45 -30.05 55.05 -30.6 56.45 -30.85 56.65 -32.6 L56.7 -33.5 M52.35 -28.3 L52.45 -27.9 52.6 -27.55 Q52.9 -27.05 53.35 -26.8 L53.5 -26.7 53.65 -26.8 53.65 -27.0 53.4 -27.25 Q53.1 -27.45 52.95 -27.75 L52.75 -28.4 52.65 -28.65 52.5 -28.65 52.4 -28.55 52.35 -28.3 M52.95 -31.95 L53.0 -31.75 53.8 -31.1 Q54.3 -30.95 54.85 -31.1 L55.05 -31.25 55.1 -31.35 55.05 -31.45 54.7 -31.45 53.7 -31.55 53.4 -31.8 53.3 -32.0 53.1 -32.1 52.95 -31.95 M58.4 -30.4 L57.8 -30.55 Q56.9 -30.95 56.65 -32.6 56.9 -30.95 57.8 -30.55 L58.4 -30.4 M57.55 -30.1 L57.3 -29.1 57.55 -30.1 M56.1 -26.8 Q55.05 -25.75 53.4 -26.25 L52.95 -26.65 52.9 -26.3 Q52.55 -24.1 53.75 -23.35 L55.0 -23.25 55.6 -23.55 55.0 -23.25 53.75 -23.35 Q52.55 -24.1 52.9 -26.3 L52.95 -26.65 52.9 -26.75 Q51.7 -28.1 51.95 -30.45 51.7 -28.1 52.9 -26.75 L52.95 -26.65 53.4 -26.25 Q55.05 -25.75 56.1 -26.8 M52.85 -20.3 L52.9 -20.4 52.85 -20.55 52.65 -20.65 52.4 -20.75 Q52.25 -20.75 52.05 -20.9 L51.85 -21.1 51.75 -21.35 51.55 -21.5 51.35 -21.35 51.4 -21.15 51.5 -20.95 51.7 -20.7 52.3 -20.35 52.65 -20.25 52.85 -20.3 M54.1 -24.0 L53.8 -24.15 53.65 -24.25 53.6 -24.45 53.4 -24.6 53.35 -24.6 53.25 -24.45 53.25 -24.25 53.45 -23.95 53.75 -23.75 54.0 -23.7 54.2 -23.6 54.35 -23.7 54.35 -23.8 54.1 -24.0 M55.0 -15.75 L54.85 -15.85 54.7 -15.75 54.7 -15.5 54.8 -15.25 54.9 -15.1 55.0 -15.05 Q55.45 -14.6 56.0 -14.7 L56.2 -14.75 56.25 -14.85 56.25 -14.95 56.05 -15.05 55.8 -15.05 Q55.55 -15.05 55.35 -15.2 L55.1 -15.55 55.0 -15.75 M58.35 -14.45 L58.4 -14.7 58.35 -14.45 M82.95 -21.9 Q83.75 -17.7 81.9 -16.55 L80.85 -16.55 Q80.05 -16.7 79.55 -17.35 L79.25 -17.85 79.55 -17.35 Q80.05 -16.7 80.85 -16.55 L81.9 -16.55 Q83.75 -17.7 82.95 -21.9 M79.1 -15.75 L78.95 -15.85 78.75 -15.9 78.5 -15.9 78.2 -16.0 78.05 -16.2 77.9 -16.2 77.8 -16.1 77.9 -15.8 Q78.15 -15.55 78.75 -15.55 L78.95 -15.55 79.1 -15.75 M80.85 -17.1 L80.65 -17.1 80.5 -17.2 80.2 -17.5 80.1 -17.65 79.9 -17.75 79.75 -17.65 79.75 -17.45 80.1 -17.0 Q80.55 -16.65 81.0 -16.7 L81.55 -16.9 81.7 -17.1 81.65 -17.3 81.45 -17.25 81.3 -17.15 80.85 -17.1 M76.05 -14.1 L76.15 -15.3 76.05 -14.1 M75.95 -15.05 L75.95 -15.1 75.95 -15.05 M82.5 -29.7 L82.6 -29.8 82.6 -29.95 82.35 -30.15 Q82.1 -30.25 81.95 -30.3 L81.65 -30.5 81.5 -30.65 81.5 -30.8 81.3 -30.9 81.15 -30.8 81.15 -30.45 81.45 -30.2 81.85 -29.95 82.0 -29.9 82.2 -29.8 82.5 -29.7 M83.95 -27.55 Q83.7 -24.45 81.75 -24.35 L81.15 -24.4 80.75 -24.65 81.15 -24.4 81.75 -24.35 Q83.7 -24.45 83.95 -27.55" fill="url(#gradient43)" fill-rule="evenodd" stroke="none"/>
      <path d="M67.25 -34.3 L67.9 -34.3 68.35 -34.3 70.25 -34.2 Q72.25 -33.9 74.0 -33.1 L74.5 -32.9 75.5 -32.35 75.95 -32.05 76.4 -31.7 76.9 -31.35 Q79.05 -29.6 80.0 -27.4 L80.55 -25.7 80.55 -25.65 80.7 -25.0 80.75 -24.65 80.8 -23.8 80.8 -23.75 79.45 -21.7 Q72.1 -11.9 59.4 -17.05 L58.15 -17.6 57.6 -17.8 Q56.1 -19.75 55.75 -22.1 L55.6 -23.45 55.6 -23.55 55.65 -24.65 56.1 -26.8 56.65 -28.05 57.3 -29.1 58.4 -30.4 58.7 -30.7 59.05 -31.05 59.15 -31.15 59.25 -31.2 59.6 -31.5 60.1 -31.9 Q61.6 -33.0 63.4 -33.6 L64.3 -33.85 66.05 -34.2 66.4 -34.25 66.8 -34.25 67.25 -34.3" fill="url(#gradient44)" fill-rule="evenodd" stroke="none"/>
      <path d="M55.45 -45.5 Q51.95 -45.3 51.2 -40.75 L51.2 -44.95 Q52.05 -46.8 54.3 -45.9 L55.45 -45.5" fill="#515101" fill-rule="evenodd" stroke="none"/>
      <path d="M47.6 -32.5 L48.0 -33.3 Q48.4 -34.35 49.35 -35.0 L55.15 -34.75 56.3 -34.5 Q53.55 -34.85 52.05 -33.35 50.0 -34.2 49.1 -32.85 L48.9 -32.5 Q47.7 -29.9 47.6 -32.5 M52.0 -34.0 L52.05 -33.35 52.0 -34.0" fill="#989804" fill-rule="evenodd" stroke="none"/>
      <path d="M55.75 -22.1 Q56.1 -19.75 57.6 -17.8 L58.2 -17.15 59.5 -15.9 Q60.05 -15.45 60.65 -15.1 59.35 -15.35 58.2 -16.3 L57.3 -17.2 56.85 -17.65 56.2 -18.55 Q55.25 -21.15 55.75 -22.1 M80.8 -23.75 Q81.2 -22.1 80.3 -19.25 L79.6 -18.3 79.25 -17.85 Q78.0 -16.4 77.05 -16.1 L76.9 -16.1 77.05 -16.2 Q80.85 -20.2 80.8 -23.75" fill="#9c0000" fill-rule="evenodd" stroke="none"/>
      <path d="M57.6 -17.8 L58.15 -17.6 59.4 -17.05 Q72.1 -11.9 79.45 -21.7 L80.8 -23.75 Q80.85 -20.2 77.05 -16.2 L76.9 -16.1 76.15 -15.3 76.1 -15.2 76.0 -15.1 75.95 -15.1 75.45 -14.8 75.35 -14.75 75.2 -14.65 Q73.85 -13.85 72.35 -13.45 L71.95 -13.35 68.5 -12.9 Q65.6 -12.85 63.2 -13.8 L62.6 -14.0 62.5 -14.05 61.6 -14.5 60.65 -15.1 Q60.05 -15.45 59.5 -15.9 L58.2 -17.15 57.6 -17.8 M76.1 -15.2 L76.0 -15.1 76.1 -15.2" fill="#a1800b" fill-rule="evenodd" stroke="none"/>
      <path d="M86.0 -21.65 Q87.15 -17.9 85.85 -14.9 84.85 -13.75 83.35 -12.95 81.6 -12.05 79.05 -11.65 L57.3 -11.65 Q51.3 -12.0 49.85 -14.4 49.4 -15.4 49.2 -16.45 L54.45 -15.2 Q55.15 -14.3 56.4 -14.4 56.8 -14.5 57.15 -14.7 L58.35 -14.45 Q59.7 -12.35 62.55 -13.85 61.95 -12.5 60.2 -12.35 58.3 -12.6 58.35 -14.45 58.3 -12.6 60.2 -12.35 61.95 -12.5 62.55 -13.85 L63.2 -13.8 Q65.6 -12.85 68.5 -12.9 L71.95 -13.35 72.35 -13.45 Q74.95 -13.1 76.05 -14.1 78.7 -14.65 80.7 -15.75 85.3 -17.35 86.0 -21.65 M76.05 -14.1 Q75.75 -12.55 74.55 -12.2 72.8 -12.15 71.95 -13.35 72.8 -12.15 74.55 -12.2 75.75 -12.55 76.05 -14.1 M82.75 -13.95 L82.7 -14.1 82.45 -14.15 82.1 -14.15 81.9 -14.2 81.85 -14.3 81.65 -14.5 81.55 -14.4 81.5 -14.25 81.75 -13.85 82.1 -13.8 82.45 -13.8 82.7 -13.85 82.75 -13.95 M83.8 -16.05 Q84.0 -14.15 83.0 -13.6 L82.15 -13.45 Q80.75 -13.65 80.7 -15.75 80.75 -13.65 82.15 -13.45 L83.0 -13.6 Q84.0 -14.15 83.8 -16.05" fill="#252502" fill-rule="evenodd" stroke="none"/>
      <path d="M73.75 -42.6 Q73.8 -40.75 75.65 -40.8 77.5 -41.05 77.5 -42.95 L77.35 -43.8 M77.5 -42.95 Q78.0 -40.4 80.15 -40.3 82.6 -40.35 82.6 -43.9 M79.75 -38.8 L83.15 -38.8 83.15 -45.5 Q81.95 -47.15 79.95 -46.15 76.25 -44.35 71.85 -43.8 L70.25 -43.65 67.4 -43.6 64.7 -43.75 63.55 -43.85 Q58.7 -44.45 55.45 -45.5 L54.3 -45.9 Q52.05 -46.8 51.2 -44.95 L51.2 -40.75 51.2 -38.8 55.05 -38.8 79.75 -38.8 79.85 -34.9 Q82.3 -36.0 84.9 -35.45 89.75 -32.85 84.75 -24.7 L86.0 -21.65 Q87.15 -17.9 85.85 -14.9 84.85 -13.75 83.35 -12.95 81.6 -12.05 79.05 -11.65 L57.3 -11.65 Q51.3 -12.0 49.85 -14.4 49.4 -15.4 49.2 -16.45 48.5 -19.75 50.15 -22.8 L50.45 -23.3 Q47.35 -29.0 47.6 -32.5 L48.0 -33.3 Q48.4 -34.35 49.35 -35.0 L55.15 -34.75 55.05 -38.75 M67.6 -48.85 L67.4 -43.6 M63.55 -43.85 L65.3 -48.75 Q67.6 -57.8 69.9 -49.15 L71.85 -43.8 M65.9 -42.35 Q65.7 -40.1 68.2 -39.7 71.3 -40.0 70.6 -42.8 M67.25 -34.3 L67.9 -34.3 68.35 -34.3 70.25 -34.2 70.5 -35.05 M60.45 -35.6 L62.45 -36.0 66.0 -36.35 68.4 -36.35 70.5 -36.45 Q75.65 -36.4 78.85 -34.35 L79.8 -34.9 79.85 -34.9 M66.05 -34.2 L66.4 -34.25 66.15 -34.8 66.05 -34.2 64.3 -33.85 63.4 -33.6 Q61.6 -33.0 60.1 -31.9 L59.6 -31.5 59.25 -31.2 59.15 -31.15 59.05 -31.05 58.7 -30.7 58.4 -30.4 57.3 -29.1 56.65 -28.05 56.1 -26.8 55.65 -24.65 55.6 -23.55 55.6 -23.45 55.7 -22.3 55.7 -22.2 55.75 -22.1 Q56.1 -19.75 57.6 -17.8 L58.2 -17.15 59.5 -15.9 Q60.05 -15.45 60.65 -15.1 59.35 -15.35 58.2 -16.3 L57.3 -17.2 56.85 -17.65 56.2 -18.55 Q55.25 -21.15 55.75 -22.1 M80.8 -23.75 L80.8 -23.8 80.75 -24.65 80.7 -25.0 80.55 -25.65 80.55 -25.7 80.0 -27.4 Q79.05 -29.6 76.9 -31.35 L76.4 -31.7 75.95 -32.05 75.5 -32.35 74.5 -32.9 74.0 -33.1 Q72.25 -33.9 70.25 -34.2 M66.4 -34.25 L66.8 -34.25 67.25 -34.3 M63.4 -33.6 Q62.65 -34.1 62.65 -35.05 M76.4 -31.7 Q77.05 -31.9 77.35 -32.9 L77.1 -33.6 M81.45 -33.5 Q81.4 -32.2 80.85 -31.55 L80.85 -31.0 Q81.0 -29.15 83.3 -29.15 85.2 -29.2 84.95 -32.55 M77.35 -32.9 Q78.05 -30.85 79.6 -31.0 80.35 -31.05 80.85 -31.55 M73.9 -33.55 L74.0 -33.1 M80.0 -27.4 L80.1 -28.05 M54.35 -43.95 Q53.75 -40.6 56.1 -40.3 57.95 -40.15 58.4 -41.85 L58.55 -43.45 M58.4 -41.85 Q58.55 -40.15 60.05 -39.75 62.55 -39.7 62.6 -42.5 M48.9 -32.5 L49.1 -32.85 M52.05 -33.35 L52.0 -34.0 M48.9 -32.5 Q48.85 -31.25 50.0 -30.95 L51.4 -31.15 Q52.2 -31.6 52.05 -32.9 L52.05 -32.95 52.05 -33.35 M56.3 -34.5 L55.15 -34.75 M56.3 -34.5 L56.9 -34.35 Q58.15 -34.95 59.65 -35.4 M52.05 -32.9 Q52.45 -30.05 55.05 -30.6 56.45 -30.85 56.65 -32.6 L56.7 -33.5 M60.1 -31.9 L59.95 -33.2 M55.6 -23.55 L55.0 -23.25 53.75 -23.35 Q52.55 -24.1 52.9 -26.3 L52.95 -26.65 52.9 -26.75 Q51.7 -28.1 51.95 -30.45 M52.95 -26.65 L53.4 -26.25 Q55.05 -25.75 56.1 -26.8 M57.3 -29.1 L57.55 -30.1 M56.65 -32.6 Q56.9 -30.95 57.8 -30.55 L58.4 -30.4 M50.8 -22.45 Q50.9 -20.3 52.75 -19.8 L53.7 -19.9 Q55.45 -20.35 55.15 -22.55 M51.9 -18.45 L51.9 -17.45 Q52.15 -15.15 53.95 -16.3 53.6 -17.55 53.7 -19.9 M53.95 -16.3 L54.45 -15.2 Q55.15 -14.3 56.4 -14.4 56.8 -14.5 57.15 -14.7 L57.7 -15.15 Q58.1 -15.6 58.2 -16.3 M58.4 -14.7 L58.35 -14.45 Q58.3 -12.6 60.2 -12.35 61.95 -12.5 62.55 -13.85 L62.6 -14.0 62.5 -14.05 61.6 -14.5 60.65 -15.1 M63.2 -13.8 L62.6 -14.0 M80.8 -23.75 Q81.2 -22.1 80.3 -19.25 L79.6 -18.3 79.25 -17.85 79.55 -17.35 Q80.05 -16.7 80.85 -16.55 L81.9 -16.55 Q83.75 -17.7 82.95 -21.9 M72.35 -13.45 L71.95 -13.35 Q72.8 -12.15 74.55 -12.2 75.75 -12.55 76.05 -14.1 L76.15 -15.3 76.9 -16.1 77.05 -16.2 Q80.85 -20.2 80.8 -23.75 M72.35 -13.45 Q73.85 -13.85 75.2 -14.65 L75.35 -14.75 75.45 -14.8 75.95 -15.1 76.0 -15.1 76.1 -15.2 76.15 -15.3 M79.55 -17.35 L79.4 -16.15 Q79.15 -14.8 78.3 -14.9 77.4 -14.95 77.1 -15.9 L77.05 -16.1 76.9 -16.1 M76.1 -15.2 L76.0 -15.1 75.95 -15.05 75.45 -14.8 M76.0 -15.1 L76.1 -15.2 M75.95 -15.1 L75.95 -15.05 M77.05 -16.1 Q78.0 -16.4 79.25 -17.85 M71.95 -13.35 L68.5 -12.9 Q65.6 -12.85 63.2 -13.8 M68.7 -50.35 L70.25 -43.65 M66.75 -50.65 L64.7 -43.75 M80.75 -24.65 L81.15 -24.4 81.75 -24.35 Q83.7 -24.45 83.95 -27.55 M80.7 -15.75 Q80.75 -13.65 82.15 -13.45 L83.0 -13.6 Q84.0 -14.15 83.8 -16.05" fill="none" stroke="#000000" stroke-linecap="round" stroke-linejoin="round" stroke-opacity="0.6627451" stroke-width="1.0"/>
      <path d="M66.75 -17.15 Q66.15 -19.35 66.1 -22.55 66.05 -25.7 66.55 -27.95 67.05 -30.15 67.85 -30.2 68.65 -30.2 69.2 -28.0 69.8 -25.75 69.85 -22.6 69.9 -19.45 69.4 -17.2 68.9 -15.0 68.1 -14.95 67.35 -14.95 66.75 -17.15" fill="#000000" fill-rule="evenodd" stroke="none"/>
      <path d="M66.75 -17.15 Q66.15 -19.35 66.1 -22.55 66.05 -25.7 66.55 -27.95 67.05 -30.15 67.85 -30.2 68.65 -30.2 69.2 -28.0 69.8 -25.75 69.85 -22.6 69.9 -19.45 69.4 -17.2 68.9 -15.0 68.1 -14.95 67.35 -14.95 66.75 -17.15 Z" fill="none" stroke="#000000" stroke-linecap="round" stroke-linejoin="round" stroke-opacity="0.6627451" stroke-width="1.0"/>
      <path d="M43.4 -40.55 Q43.15 -40.65 43.05 -40.7 42.45 -41.15 42.45 -42.1 42.45 -43.8 44.6 -44.9 L49.45 -46.65 Q52.3 -47.6 54.0 -48.75 56.35 -50.4 56.4 -52.6 L56.45 -53.4 Q56.45 -54.35 55.85 -55.9 55.0 -57.75 54.05 -57.8 L50.75 -57.65 49.8 -57.55 Q44.4 -57.15 38.95 -55.85 32.75 -54.35 29.85 -54.1 L28.75 -54.0 Q25.4 -54.0 24.25 -55.8 23.65 -56.85 23.15 -58.85 L21.6 -61.55 21.25 -62.2 21.2 -62.2 20.7 -62.7 20.35 -62.7 18.95 -62.5 16.3 -61.6 15.25 -60.95 14.95 -60.8 Q14.65 -60.5 14.65 -60.0 L14.7 -58.5 14.65 -57.85 Q14.5 -56.55 11.85 -54.4 9.3 -52.3 -1.0 -50.55 L-2.85 -50.25 -15.5 -49.7 Q-19.75 -50.55 -24.9 -51.95 -30.0 -53.4 -32.3 -55.3 L-36.45 -57.65 -38.2 -59.0 -38.95 -59.5 -40.1 -60.65 Q-40.85 -61.6 -40.75 -62.7 L-40.35 -62.85 -37.6 -61.45 -37.1 -61.15 -31.1 -57.8 Q-21.05 -52.55 -14.0 -52.6 -6.85 -52.65 -1.15 -53.95 L6.3 -55.85 Q8.3 -56.2 9.5 -56.7 10.55 -57.2 11.0 -57.85 L11.25 -60.1 11.25 -60.15 Q11.55 -63.35 17.35 -65.2 20.4 -66.25 21.9 -65.8 L21.95 -65.75 Q22.95 -65.4 23.1 -64.25 L25.45 -60.35 Q27.45 -56.75 28.55 -56.75 L36.95 -58.4 Q43.2 -59.85 48.4 -60.3 L48.75 -60.3 50.15 -60.45 Q56.0 -60.85 57.9 -58.55 59.4 -56.7 59.45 -50.95 59.45 -50.1 58.95 -49.3 L57.85 -48.1 57.5 -47.8 Q56.3 -46.85 54.6 -46.05 L51.05 -44.95 47.75 -43.65 47.7 -43.6 Q50.5 -43.85 53.15 -44.7 55.7 -45.65 58.2 -46.2 L58.4 -46.15 59.55 -46.45 59.6 -46.45 60.1 -46.6 60.8 -46.55 61.9 -46.55 62.15 -46.4 62.5 -46.2 63.1 -45.6 63.9 -44.55 64.1 -44.15 64.15 -44.05 64.3 -43.65 64.75 -42.4 65.9 -39.7 65.95 -37.8 Q66.0 -35.75 65.65 -35.2 64.85 -33.75 61.35 -32.3 59.6 -31.55 56.05 -30.5 51.8 -29.25 50.15 -29.2 L50.2 -28.8 Q50.65 -28.05 52.8 -28.05 L56.8 -27.85 57.35 -27.9 61.25 -27.55 Q62.05 -27.1 62.15 -26.4 L62.2 -24.75 Q62.1 -21.35 60.8 -18.1 L60.35 -16.55 Q59.85 -13.8 56.15 -13.75 L51.55 -14.4 47.15 -15.45 40.05 -17.15 35.75 -15.85 Q31.25 -14.45 29.15 -14.0 L23.65 -13.1 18.05 -12.25 -3.5 -8.8 -7.25 -8.75 Q-20.2 -8.6 -28.6 -9.95 -40.25 -11.75 -47.5 -16.6 L-53.6 -20.05 -54.75 -20.7 Q-57.25 -22.4 -58.25 -23.7 -59.0 -24.5 -59.05 -25.2 L-58.95 -25.9 -58.9 -25.95 -58.3 -25.45 -54.7 -22.9 Q-44.95 -16.65 -32.85 -14.2 -18.15 -11.15 -8.1 -11.6 L-5.35 -11.75 -3.55 -11.75 Q7.4 -12.15 18.1 -14.55 L23.65 -15.75 36.05 -18.35 37.4 -19.3 39.5 -19.5 41.85 -19.4 43.6 -19.0 46.6 -18.25 48.0 -17.85 51.75 -17.0 53.1 -16.7 55.7 -16.25 57.0 -16.55 Q58.75 -19.6 59.55 -23.1 L59.9 -24.75 59.9 -25.4 59.8 -25.65 56.6 -25.5 51.35 -26.0 50.45 -26.25 49.95 -26.4 Q49.4 -26.6 48.9 -27.0 47.95 -27.75 48.0 -28.4 47.95 -29.25 48.15 -29.8 L48.15 -30.1 Q48.1 -31.05 51.4 -32.05 L56.65 -33.55 60.0 -34.85 62.3 -35.7 Q63.35 -36.3 63.35 -37.95 L63.45 -38.7 Q63.4 -40.3 62.8 -41.25 L62.6 -41.7 62.0 -42.6 61.65 -43.1 Q61.25 -43.5 60.85 -43.45 L60.7 -43.4 60.65 -43.55 58.85 -43.15 53.85 -41.6 53.25 -41.4 Q47.75 -39.65 46.35 -39.65 L45.9 -39.65 45.65 -39.75 43.4 -40.55" fill="#000000" fill-rule="evenodd" stroke="none"/>
      <path d="M43.4 -40.55 Q39.85 -39.5 38.8 -39.5 L38.4 -39.5 38.15 -39.6 38.1 -39.6 37.95 -40.6 Q38.05 -43.5 44.5 -46.05 50.95 -48.5 51.05 -51.65 51.1 -53.5 50.0 -56.95 L49.8 -57.55 50.75 -57.65 54.05 -57.8 Q55.0 -57.75 55.85 -55.9 56.45 -54.35 56.45 -53.4 L56.4 -52.6 Q56.35 -50.4 54.0 -48.75 52.3 -47.6 49.45 -46.65 L44.6 -44.9 Q42.45 -43.8 42.45 -42.1 42.45 -41.15 43.05 -40.7 43.15 -40.65 43.4 -40.55 M29.85 -54.1 Q24.65 -52.95 22.55 -52.9 19.45 -52.95 18.4 -54.6 17.9 -55.6 17.45 -57.45 L16.0 -60.0 15.65 -60.6 15.6 -60.6 15.25 -60.95 16.3 -61.6 18.95 -62.5 20.35 -62.7 20.7 -62.7 21.2 -62.2 21.25 -62.2 21.6 -61.55 23.15 -58.85 Q23.65 -56.85 24.25 -55.8 25.4 -54.0 28.75 -54.0 L29.85 -54.1 M-2.85 -50.25 L-5.0 -49.85 Q-14.6 -48.25 -18.45 -49.1 L-27.2 -51.25 Q-32.0 -52.65 -34.1 -54.35 -34.85 -54.9 -37.95 -56.55 L-39.6 -57.85 -40.3 -58.35 -42.0 -59.3 -40.1 -60.65 -38.95 -59.5 -38.2 -59.0 -36.45 -57.65 -32.3 -55.3 Q-30.0 -53.4 -24.9 -51.95 -19.75 -50.55 -15.5 -49.7 L-2.85 -50.25 M-58.5 -26.75 L-55.0 -24.4 Q-46.0 -18.55 -34.75 -16.25 -21.15 -13.4 -11.85 -13.75 L-9.2 -13.85 -7.5 -13.85 Q2.6 -14.15 12.55 -16.35 L17.65 -17.45 29.2 -19.8 Q30.05 -20.45 31.55 -20.35 L34.55 -20.8 36.2 -20.4 39.0 -19.65 39.5 -19.5 37.4 -19.3 36.05 -18.35 23.65 -15.75 18.1 -14.55 Q7.4 -12.15 -3.55 -11.75 L-5.35 -11.75 -8.1 -11.6 Q-18.15 -11.15 -32.85 -14.2 -44.95 -16.65 -54.7 -22.9 L-58.3 -25.45 -58.4 -26.25 -58.5 -26.75 M48.0 -17.85 L48.6 -18.0 Q50.3 -20.85 51.05 -24.1 L51.35 -25.65 51.35 -26.0 56.6 -25.5 59.8 -25.65 59.9 -25.4 59.9 -24.75 59.55 -23.1 Q58.75 -19.6 57.0 -16.55 L55.7 -16.25 53.1 -16.7 51.75 -17.0 48.0 -17.85 M49.95 -26.4 L48.35 -26.4 Q44.5 -26.4 42.6 -27.1 41.85 -27.2 41.15 -27.75 40.35 -28.45 40.35 -29.05 40.3 -29.85 40.5 -30.35 L40.5 -30.65 Q40.45 -31.55 43.5 -32.45 L48.35 -33.9 51.55 -35.05 53.65 -35.8 Q54.65 -36.35 54.65 -37.85 L54.75 -38.55 Q54.7 -40.05 54.1 -40.95 L53.95 -41.4 53.85 -41.6 58.85 -43.15 60.65 -43.55 60.7 -43.4 60.85 -43.45 Q61.25 -43.5 61.65 -43.1 L62.0 -42.6 62.6 -41.7 62.8 -41.25 Q63.4 -40.3 63.45 -38.7 L63.35 -37.95 Q63.35 -36.3 62.3 -35.7 L60.0 -34.85 56.65 -33.55 51.4 -32.05 Q48.1 -31.05 48.15 -30.1 L48.15 -29.8 Q47.95 -29.25 48.0 -28.4 47.95 -27.75 48.9 -27.0 49.4 -26.6 49.95 -26.4" fill="#bdbdbd" fill-rule="evenodd" stroke="none"/>
      <path d="M49.8 -57.55 L50.0 -56.95 Q51.1 -53.5 51.05 -51.65 50.95 -48.5 44.5 -46.05 38.05 -43.5 37.95 -40.6 L38.1 -39.6 38.15 -39.6 38.4 -39.5 38.8 -39.5 Q39.85 -39.5 43.4 -40.55 L45.65 -39.75 45.9 -39.65 46.35 -39.65 Q47.75 -39.65 53.25 -41.4 L53.85 -41.6 53.95 -41.4 54.1 -40.95 Q54.7 -40.05 54.75 -38.55 L54.65 -37.85 Q54.65 -36.35 53.65 -35.8 L51.55 -35.05 48.35 -33.9 43.5 -32.45 Q40.45 -31.55 40.5 -30.65 L40.5 -30.35 Q40.3 -29.85 40.35 -29.05 40.35 -28.45 41.15 -27.75 41.85 -27.2 42.6 -27.1 44.5 -26.4 48.35 -26.4 L49.95 -26.4 50.45 -26.25 51.35 -26.0 51.35 -25.65 51.05 -24.1 Q50.3 -20.85 48.6 -18.0 L48.0 -17.85 46.6 -18.25 43.6 -19.0 41.85 -19.4 39.5 -19.5 39.0 -19.65 36.2 -20.4 34.55 -20.8 31.55 -20.35 Q30.05 -20.45 29.2 -19.8 L17.65 -17.45 12.55 -16.35 Q2.6 -14.15 -7.5 -13.85 L-9.2 -13.85 -11.85 -13.75 Q-21.15 -13.4 -34.75 -16.25 -46.0 -18.55 -55.0 -24.4 L-58.5 -26.75 -58.7 -28.65 Q-58.75 -33.55 -56.9 -38.85 -55.25 -43.95 -52.35 -48.05 -49.7 -51.85 -46.45 -55.2 L-42.0 -59.3 -40.3 -58.35 -39.6 -57.85 -37.95 -56.55 Q-34.85 -54.9 -34.1 -54.35 -32.0 -52.65 -27.2 -51.25 L-18.45 -49.1 Q-14.6 -48.25 -5.0 -49.85 L-2.85 -50.25 -1.0 -50.55 Q9.3 -52.3 11.85 -54.4 14.5 -56.55 14.65 -57.85 L14.7 -58.5 14.65 -60.0 Q14.65 -60.5 14.95 -60.8 L15.25 -60.95 15.6 -60.6 15.65 -60.6 16.0 -60.0 17.45 -57.45 Q17.9 -55.6 18.4 -54.6 19.45 -52.95 22.55 -52.9 24.65 -52.95 29.85 -54.1 32.75 -54.35 38.95 -55.85 44.4 -57.15 49.8 -57.55" fill="#999999" fill-rule="evenodd" stroke="none"/>
      <path d="M98.5 -68.85 L100.25 -68.7 103.4 -67.95 105.25 -67.3 108.8 -65.75 110.0 -65.2 Q117.3 -61.9 118.6 -59.75 119.25 -58.8 119.0 -57.6 L118.3 -55.25 Q117.6 -52.35 117.0 -51.0 116.45 -49.9 115.5 -49.6 L114.7 -49.45 114.75 -49.1 114.75 -47.7 114.5 -45.55 113.6 -42.7 Q113.05 -40.7 112.15 -39.65 113.7 -39.1 114.4 -37.7 114.9 -36.75 114.9 -35.0 L114.5 -32.3 113.9 -29.3 Q112.7 -25.4 111.05 -24.55 L107.6 -24.25 106.55 -24.25 Q102.65 -24.35 99.85 -25.0 L92.4 -27.35 Q89.0 -28.5 87.7 -29.8 86.75 -30.8 86.75 -32.4 L88.0 -38.45 Q88.25 -39.8 88.85 -41.45 L88.9 -41.6 87.85 -42.0 Q84.7 -43.15 84.0 -44.5 83.7 -45.1 83.7 -47.3 L83.75 -49.5 Q84.15 -51.8 85.35 -53.75 86.05 -54.8 86.85 -55.2 L88.25 -55.9 Q90.05 -55.95 92.3 -55.25 L95.15 -54.4 Q91.5 -57.1 92.8 -62.4 L93.45 -64.75 94.25 -66.4 94.9 -66.95 95.4 -67.3 98.1 -68.8 98.5 -68.85 M112.15 -61.65 L109.55 -62.6 102.55 -65.6 98.65 -66.8 98.1 -66.6 97.75 -66.35 96.75 -65.5 95.6 -63.9 95.0 -62.35 Q94.6 -61.05 94.5 -60.05 94.35 -59.1 95.1 -58.0 97.2 -55.05 108.1 -52.4 L110.85 -51.8 113.8 -51.5 Q115.45 -51.95 116.35 -55.65 117.35 -59.7 115.55 -60.4 L112.15 -61.65 M108.6 -50.0 L105.25 -50.75 100.5 -52.05 99.35 -52.1 95.5 -52.8 89.9 -53.45 88.25 -53.25 Q86.55 -52.05 86.2 -50.1 L86.05 -49.5 85.95 -47.35 Q85.95 -45.7 86.15 -45.45 86.7 -44.7 89.85 -43.75 93.05 -42.75 99.25 -41.8 L106.4 -40.95 106.85 -40.95 Q109.9 -40.95 110.5 -41.55 L112.0 -45.7 112.2 -48.45 Q112.25 -49.05 112.45 -49.45 L108.6 -50.0 M109.05 -38.3 L108.5 -38.45 106.85 -38.45 99.85 -39.25 92.85 -40.35 90.55 -41.05 Q90.2 -40.8 90.15 -40.35 L89.5 -37.65 88.85 -34.95 88.45 -32.35 Q88.45 -31.3 90.65 -30.3 92.65 -29.4 95.8 -28.8 L99.65 -27.6 Q103.3 -26.55 107.45 -26.55 L107.55 -26.55 Q110.5 -26.55 111.1 -27.05 111.6 -27.55 112.5 -30.9 L113.1 -35.05 Q113.1 -37.5 110.35 -38.0 L109.05 -38.3" fill="#000000" fill-rule="evenodd" stroke="none"/>
      <path d="M110.85 -51.8 L108.1 -52.4 Q97.2 -55.05 95.1 -58.0 94.35 -59.1 94.5 -60.05 94.6 -61.05 95.0 -62.35 L95.6 -63.9 96.75 -65.5 97.75 -66.35 98.1 -66.6 98.65 -66.8 102.55 -65.6 109.55 -62.6 112.15 -61.65 Q113.6 -59.2 113.6 -56.95 L113.6 -54.55 Q113.45 -53.4 112.4 -52.35 L110.85 -51.8 M106.4 -40.95 L99.25 -41.8 Q93.05 -42.75 89.85 -43.75 86.7 -44.7 86.15 -45.45 85.95 -45.7 85.95 -47.35 L86.05 -49.5 86.2 -50.1 Q86.55 -52.05 88.25 -53.25 L89.9 -53.45 95.5 -52.8 99.35 -52.1 100.5 -52.05 105.25 -50.75 108.6 -50.0 107.3 -45.55 Q106.4 -42.55 106.4 -40.95 M107.45 -26.55 Q103.3 -26.55 99.65 -27.6 L95.8 -28.8 Q92.65 -29.4 90.65 -30.3 88.45 -31.3 88.45 -32.35 L88.85 -34.95 89.5 -37.65 90.15 -40.35 Q90.2 -40.8 90.55 -41.05 L92.85 -40.35 99.85 -39.25 106.85 -38.45 108.5 -38.45 109.05 -38.3 Q109.6 -37.25 109.6 -35.85 L109.35 -32.7 108.2 -28.95 107.45 -26.55" fill="#999999" fill-rule="evenodd" stroke="none"/>
      <path d="M110.85 -51.8 L112.4 -52.35 Q113.45 -53.4 113.6 -54.55 L113.6 -56.95 Q113.6 -59.2 112.15 -61.65 L115.55 -60.4 Q117.35 -59.7 116.35 -55.65 115.45 -51.95 113.8 -51.5 L110.85 -51.8 M106.4 -40.95 Q106.4 -42.55 107.3 -45.55 L108.6 -50.0 112.45 -49.45 Q112.25 -49.05 112.2 -48.45 L112.0 -45.7 110.5 -41.55 Q109.9 -40.95 106.85 -40.95 L106.4 -40.95 M109.05 -38.3 L110.35 -38.0 Q113.1 -37.5 113.1 -35.05 L112.5 -30.9 Q111.6 -27.55 111.1 -27.05 110.5 -26.55 107.55 -26.55 L107.45 -26.55 108.2 -28.95 109.35 -32.7 109.6 -35.85 Q109.6 -37.25 109.05 -38.3" fill="#bdbdbd" fill-rule="evenodd" stroke="none"/>
    </g>
    <linearGradient gradientTransform="matrix(0.018, 0.0085, -0.0038, 0.0077, 99.45, -116.8)" gradientUnits="userSpaceOnUse" id="gradient0" spreadMethod="pad" x1="-819.2" x2="819.2">
      <stop offset="0.4980392156862745" stop-color="#e7c95a"/>
      <stop offset="1.0" stop-color="#2f4d14"/>
    </linearGradient>
    <linearGradient gradientTransform="matrix(0.0165, 0.0077, -0.0177, 0.0366, 92.7, -76.6)" gradientUnits="userSpaceOnUse" id="gradient1" spreadMethod="pad" x1="-819.2" x2="819.2">
      <stop offset="0.4980392156862745" stop-color="#e7c95a"/>
      <stop offset="1.0" stop-color="#2f4d14"/>
    </linearGradient>
    <linearGradient gradientTransform="matrix(0.0165, 0.0077, -0.0177, 0.0366, 92.7, -76.6)" gradientUnits="userSpaceOnUse" id="gradient2" spreadMethod="pad" x1="-819.2" x2="819.2">
      <stop offset="0.4627450980392157" stop-color="#ffe998"/>
      <stop offset="1.0" stop-color="#d7bb4b"/>
    </linearGradient>
    <linearGradient gradientTransform="matrix(0.0109, 0.0012, -0.007, 0.0396, 78.6, -82.9)" gradientUnits="userSpaceOnUse" id="gradient3" spreadMethod="pad" x1="-819.2" x2="819.2">
      <stop offset="0.4980392156862745" stop-color="#a19256"/>
      <stop offset="0.9686274509803922" stop-color="#570c0c"/>
    </linearGradient>
    <linearGradient gradientTransform="matrix(-0.0068, -0.004, 0.0095, -0.0159, 108.65, -58.8)" gradientUnits="userSpaceOnUse" id="gradient4" spreadMethod="pad" x1="-819.2" x2="819.2">
      <stop offset="0.00392156862745098" stop-color="#330707"/>
      <stop offset="1.0" stop-color="#8c1919"/>
    </linearGradient>
    <linearGradient gradientTransform="matrix(0.0129, -3.0E-4, -0.002, 0.0398, 60.45, -68.05)" gradientUnits="userSpaceOnUse" id="gradient5" spreadMethod="pad" x1="-819.2" x2="819.2">
      <stop offset="0.4980392156862745" stop-color="#a19256"/>
      <stop offset="0.9686274509803922" stop-color="#690e0e"/>
    </linearGradient>
    <radialGradient cx="0" cy="0" fx="-310.40000000000003" fy="0" gradientTransform="matrix(0.0175, -0.0066, 0.0058, 0.0206, 64.25, -86.95)" gradientUnits="userSpaceOnUse" id="gradient6" r="819.2" spreadMethod="pad">
      <stop offset="0.4980392156862745" stop-color="#a19256"/>
      <stop offset="0.9686274509803922" stop-color="#791010"/>
    </radialGradient>
    <linearGradient gradientTransform="matrix(0.0117, 0.0063, -0.0057, 0.0104, 72.2, -63.7)" gradientUnits="userSpaceOnUse" id="gradient7" spreadMethod="pad" x1="-819.2" x2="819.2">
      <stop offset="0.4980392156862745" stop-color="#a19256"/>
      <stop offset="0.9686274509803922" stop-color="#791010"/>
    </linearGradient>
    <linearGradient gradientTransform="matrix(0.0165, 0.0077, -0.0177, 0.0366, 92.7, -76.6)" gradientUnits="userSpaceOnUse" id="gradient8" spreadMethod="pad" x1="-819.2" x2="819.2">
      <stop offset="0.4627450980392157" stop-color="#d7c581"/>
      <stop offset="1.0" stop-color="#d7bb4b"/>
    </linearGradient>
    <linearGradient gradientTransform="matrix(0.0165, 0.0077, -0.0177, 0.0366, 92.7, -76.6)" gradientUnits="userSpaceOnUse" id="gradient9" spreadMethod="pad" x1="-819.2" x2="819.2">
      <stop offset="0.4980392156862745" stop-color="#b6a561"/>
      <stop offset="1.0" stop-color="#3e4d30"/>
    </linearGradient>
    <linearGradient gradientTransform="matrix(0.0086, 0.0041, -0.0029, 0.0059, 108.0, -89.2)" gradientUnits="userSpaceOnUse" id="gradient10" spreadMethod="pad" x1="-819.2" x2="819.2">
      <stop offset="0.4980392156862745" stop-color="#e7c95a"/>
      <stop offset="1.0" stop-color="#2f4d14"/>
    </linearGradient>
    <linearGradient gradientTransform="matrix(0.0086, 0.0041, -0.0029, 0.0059, 108.0, -89.2)" gradientUnits="userSpaceOnUse" id="gradient11" spreadMethod="pad" x1="-819.2" x2="819.2">
      <stop offset="0.4627450980392157" stop-color="#e7d07f"/>
      <stop offset="1.0" stop-color="#ecd67d"/>
    </linearGradient>
    <linearGradient gradientTransform="matrix(0.0064, 0.003, -0.0026, 0.0052, 109.5, -77.55)" gradientUnits="userSpaceOnUse" id="gradient12" spreadMethod="pad" x1="-819.2" x2="819.2">
      <stop offset="0.4980392156862745" stop-color="#e7c95a"/>
      <stop offset="1.0" stop-color="#2f4d14"/>
    </linearGradient>
    <linearGradient gradientTransform="matrix(0.0095, 0.0045, -0.0039, 0.008, 99.35, -66.4)" gradientUnits="userSpaceOnUse" id="gradient13" spreadMethod="pad" x1="-819.2" x2="819.2">
      <stop offset="0.4980392156862745" stop-color="#e7c95a"/>
      <stop offset="1.0" stop-color="#2f4d14"/>
    </linearGradient>
    <linearGradient gradientTransform="matrix(0.0095, 0.0045, -0.0039, 0.008, 99.35, -66.4)" gradientUnits="userSpaceOnUse" id="gradient14" spreadMethod="pad" x1="-819.2" x2="819.2">
      <stop offset="0.4627450980392157" stop-color="#e7d07f"/>
      <stop offset="1.0" stop-color="#ecd67d"/>
    </linearGradient>
    <linearGradient gradientTransform="matrix(-0.0068, -0.004, 0.0095, -0.0159, 106.6, -59.95)" gradientUnits="userSpaceOnUse" id="gradient15" spreadMethod="pad" x1="-819.2" x2="819.2">
      <stop offset="0.00392156862745098" stop-color="#330d0d"/>
      <stop offset="1.0" stop-color="#743737"/>
    </linearGradient>
    <linearGradient gradientTransform="matrix(0.0083, 0.0039, -0.0039, 0.008, 94.0, -59.75)" gradientUnits="userSpaceOnUse" id="gradient16" spreadMethod="pad" x1="-819.2" x2="819.2">
      <stop offset="0.4980392156862745" stop-color="#e7c95a"/>
      <stop offset="1.0" stop-color="#2f4d14"/>
    </linearGradient>
    <linearGradient gradientTransform="matrix(0.0083, 0.0039, -0.0039, 0.008, 94.0, -59.75)" gradientUnits="userSpaceOnUse" id="gradient17" spreadMethod="pad" x1="-819.2" x2="819.2">
      <stop offset="0.4627450980392157" stop-color="#e7d07f"/>
      <stop offset="1.0" stop-color="#ecd67d"/>
    </linearGradient>
    <linearGradient gradientTransform="matrix(0.0069, 0.0032, -0.0031, 0.0064, 90.7, -43.45)" gradientUnits="userSpaceOnUse" id="gradient18" spreadMethod="pad" x1="-819.2" x2="819.2">
      <stop offset="0.4980392156862745" stop-color="#e7c95a"/>
      <stop offset="1.0" stop-color="#2f4d14"/>
    </linearGradient>
    <linearGradient gradientTransform="matrix(0.0069, 0.0032, -0.0031, 0.0064, 90.7, -43.45)" gradientUnits="userSpaceOnUse" id="gradient19" spreadMethod="pad" x1="-819.2" x2="819.2">
      <stop offset="0.4627450980392157" stop-color="#e7d07f"/>
      <stop offset="1.0" stop-color="#ecd67d"/>
    </linearGradient>
    <linearGradient gradientTransform="matrix(0.0068, -0.004, -0.0099, -0.0167, 25.1, -55.95)" gradientUnits="userSpaceOnUse" id="gradient20" spreadMethod="pad" x1="-819.2" x2="819.2">
      <stop offset="0.00392156862745098" stop-color="#330707"/>
      <stop offset="1.0" stop-color="#8c1919"/>
    </linearGradient>
    <linearGradient gradientTransform="matrix(-0.018, 0.0084, 0.004, 0.0081, 33.15, -115.75)" gradientUnits="userSpaceOnUse" id="gradient21" spreadMethod="pad" x1="-819.2" x2="819.2">
      <stop offset="0.4980392156862745" stop-color="#e7c95a"/>
      <stop offset="1.0" stop-color="#2f4d14"/>
    </linearGradient>
    <linearGradient gradientTransform="matrix(-0.0166, 0.0076, 0.0187, 0.0383, 40.85, -74.0)" gradientUnits="userSpaceOnUse" id="gradient22" spreadMethod="pad" x1="-819.2" x2="819.2">
      <stop offset="0.4980392156862745" stop-color="#e7c95a"/>
      <stop offset="1.0" stop-color="#2f4d14"/>
    </linearGradient>
    <linearGradient gradientTransform="matrix(-0.013, -6.0E-4, 0.0029, 0.0412, 81.5, -63.5)" gradientUnits="userSpaceOnUse" id="gradient23" spreadMethod="pad" x1="-819.2" x2="819.2">
      <stop offset="0.4980392156862745" stop-color="#a19256"/>
      <stop offset="0.9686274509803922" stop-color="#690e0e"/>
    </linearGradient>
    <linearGradient gradientTransform="matrix(-0.0166, 0.0076, 0.0187, 0.0383, 40.85, -74.0)" gradientUnits="userSpaceOnUse" id="gradient24" spreadMethod="pad" x1="-819.2" x2="819.2">
      <stop offset="0.4627450980392157" stop-color="#ffe998"/>
      <stop offset="1.0" stop-color="#d7bb4b"/>
    </linearGradient>
    <radialGradient cx="0" cy="0" fx="-307.20000000000005" fy="0" gradientTransform="matrix(-0.0178, -0.0073, -0.0054, 0.0212, 69.4, -84.1)" gradientUnits="userSpaceOnUse" id="gradient25" r="819.2" spreadMethod="pad">
      <stop offset="0.4980392156862745" stop-color="#a19256"/>
      <stop offset="0.9686274509803922" stop-color="#791010"/>
    </radialGradient>
    <linearGradient gradientTransform="matrix(-0.011, 0.001, 0.008, 0.0411, 54.95, -80.25)" gradientUnits="userSpaceOnUse" id="gradient26" spreadMethod="pad" x1="-819.2" x2="819.2">
      <stop offset="0.4980392156862745" stop-color="#a19256"/>
      <stop offset="0.9686274509803922" stop-color="#570c0c"/>
    </linearGradient>
    <linearGradient gradientTransform="matrix(-0.0083, 0.0038, 0.0041, 0.0084, 39.9, -56.6)" gradientUnits="userSpaceOnUse" id="gradient27" spreadMethod="pad" x1="-819.2" x2="819.2">
      <stop offset="0.4627450980392157" stop-color="#e7d07f"/>
      <stop offset="1.0" stop-color="#ecd67d"/>
    </linearGradient>
    <linearGradient gradientTransform="matrix(-0.0083, 0.0038, 0.0041, 0.0084, 39.9, -56.6)" gradientUnits="userSpaceOnUse" id="gradient28" spreadMethod="pad" x1="-819.2" x2="819.2">
      <stop offset="0.4980392156862745" stop-color="#e7c95a"/>
      <stop offset="1.0" stop-color="#2f4d14"/>
    </linearGradient>
    <linearGradient gradientTransform="matrix(-0.0117, 0.0063, 0.006, 0.0109, 61.9, -60.25)" gradientUnits="userSpaceOnUse" id="gradient29" spreadMethod="pad" x1="-819.2" x2="819.2">
      <stop offset="0.4980392156862745" stop-color="#a19256"/>
      <stop offset="0.9686274509803922" stop-color="#791010"/>
    </linearGradient>
    <linearGradient gradientTransform="matrix(-0.0086, 0.004, 0.0031, 0.0062, 25.1, -87.4)" gradientUnits="userSpaceOnUse" id="gradient30" spreadMethod="pad" x1="-819.2" x2="819.2">
      <stop offset="0.4980392156862745" stop-color="#e7c95a"/>
      <stop offset="1.0" stop-color="#2f4d14"/>
    </linearGradient>
    <linearGradient gradientTransform="matrix(-0.0086, 0.004, 0.0031, 0.0062, 25.1, -87.4)" gradientUnits="userSpaceOnUse" id="gradient31" spreadMethod="pad" x1="-819.2" x2="819.2">
      <stop offset="0.4627450980392157" stop-color="#e7d07f"/>
      <stop offset="1.0" stop-color="#ecd67d"/>
    </linearGradient>
    <linearGradient gradientTransform="matrix(-0.0065, 0.003, 0.0027, 0.0055, 23.8, -75.35)" gradientUnits="userSpaceOnUse" id="gradient32" spreadMethod="pad" x1="-819.2" x2="819.2">
      <stop offset="0.4980392156862745" stop-color="#e7c95a"/>
      <stop offset="1.0" stop-color="#2f4d14"/>
    </linearGradient>
    <linearGradient gradientTransform="matrix(-0.0095, 0.0044, 0.0041, 0.0083, 34.35, -63.6)" gradientUnits="userSpaceOnUse" id="gradient33" spreadMethod="pad" x1="-819.2" x2="819.2">
      <stop offset="0.4980392156862745" stop-color="#e7c95a"/>
      <stop offset="1.0" stop-color="#2f4d14"/>
    </linearGradient>
    <linearGradient gradientTransform="matrix(-0.0095, 0.0044, 0.0041, 0.0083, 34.35, -63.6)" gradientUnits="userSpaceOnUse" id="gradient34" spreadMethod="pad" x1="-819.2" x2="819.2">
      <stop offset="0.4627450980392157" stop-color="#e7d07f"/>
      <stop offset="1.0" stop-color="#ecd67d"/>
    </linearGradient>
    <linearGradient gradientTransform="matrix(0.0068, -0.004, -0.0099, -0.0167, 27.15, -57.1)" gradientUnits="userSpaceOnUse" id="gradient35" spreadMethod="pad" x1="-819.2" x2="819.2">
      <stop offset="0.00392156862745098" stop-color="#330d0d"/>
      <stop offset="1.0" stop-color="#743737"/>
    </linearGradient>
    <linearGradient gradientTransform="matrix(-0.0166, 0.0076, 0.0187, 0.0383, 40.85, -74.0)" gradientUnits="userSpaceOnUse" id="gradient36" spreadMethod="pad" x1="-819.2" x2="819.2">
      <stop offset="0.4627450980392157" stop-color="#d7c581"/>
      <stop offset="1.0" stop-color="#d7bb4b"/>
    </linearGradient>
    <linearGradient gradientTransform="matrix(-0.0166, 0.0076, 0.0187, 0.0383, 40.85, -74.0)" gradientUnits="userSpaceOnUse" id="gradient37" spreadMethod="pad" x1="-819.2" x2="819.2">
      <stop offset="0.4980392156862745" stop-color="#b6a561"/>
      <stop offset="1.0" stop-color="#3e4d30"/>
    </linearGradient>
    <linearGradient gradientTransform="matrix(-0.0069, 0.0032, 0.0033, 0.0067, 43.6, -39.65)" gradientUnits="userSpaceOnUse" id="gradient38" spreadMethod="pad" x1="-819.2" x2="819.2">
      <stop offset="0.4627450980392157" stop-color="#e7d07f"/>
      <stop offset="1.0" stop-color="#ecd67d"/>
    </linearGradient>
    <linearGradient gradientTransform="matrix(-0.0069, 0.0032, 0.0033, 0.0067, 43.6, -39.65)" gradientUnits="userSpaceOnUse" id="gradient39" spreadMethod="pad" x1="-819.2" x2="819.2">
      <stop offset="0.4980392156862745" stop-color="#e7c95a"/>
      <stop offset="1.0" stop-color="#2f4d14"/>
    </linearGradient>
    <linearGradient gradientTransform="matrix(0.0051, 0.0, 0.0, 0.006, 67.7, -48.45)" gradientUnits="userSpaceOnUse" id="gradient40" spreadMethod="pad" x1="-819.2" x2="819.2">
      <stop offset="0.0" stop-color="#2a2a00"/>
      <stop offset="1.0" stop-color="#353504"/>
    </linearGradient>
    <linearGradient gradientTransform="matrix(0.0195, 0.0, 0.0, 0.0047, 67.2, -42.65)" gradientUnits="userSpaceOnUse" id="gradient41" spreadMethod="pad" x1="-819.2" x2="819.2">
      <stop offset="0.0" stop-color="#333300"/>
      <stop offset="1.0" stop-color="#808009"/>
    </linearGradient>
    <linearGradient gradientTransform="matrix(0.0151, 0.0, 0.0, 0.0027, 67.45, -36.55)" gradientUnits="userSpaceOnUse" id="gradient42" spreadMethod="pad" x1="-819.2" x2="819.2">
      <stop offset="0.0" stop-color="#1e1e00"/>
      <stop offset="1.0" stop-color="#383804"/>
    </linearGradient>
    <linearGradient gradientTransform="matrix(0.0, -0.0111, 0.0162, 0.0, 67.5, -24.05)" gradientUnits="userSpaceOnUse" id="gradient43" spreadMethod="pad" x1="-819.2" x2="819.2">
      <stop offset="0.0" stop-color="#333301"/>
      <stop offset="1.0" stop-color="#777700"/>
    </linearGradient>
    <radialGradient cx="0" cy="0" gradientTransform="matrix(0.0235, 0.0, 0.0, 0.022, 66.65, -27.6)" gradientUnits="userSpaceOnUse" id="gradient44" r="819.2" spreadMethod="pad">
      <stop offset="0.0196078431372549" stop-color="#faffa0"/>
      <stop offset="0.4627450980392157" stop-color="#ffff00"/>
      <stop offset="1.0" stop-color="#ba9701"/>
    </radialGradient>
  </defs>
</svg>
