<?xml version="1.0" encoding="UTF-8" standalone="no"?>
<svg xmlns:xlink="http://www.w3.org/1999/xlink" height="531.5px" width="460.6px" xmlns="http://www.w3.org/2000/svg">
  <g transform="matrix(1.0, 0.0, 0.0, 1.0, 193.65, 334.05)">
    <use height="162.2" transform="matrix(1.0, 0.0, 0.0, 1.0, -113.3, -72.2)" width="259.2" xlink:href="#shape0"/>
  </g>
  <defs>
    <g id="shape0" transform="matrix(1.0, 0.0, 0.0, 1.0, 113.3, 72.2)">
      <path d="M77.95 21.0 L37.4 21.0 37.4 -3.5 77.95 -3.5 Q83.25 8.45 77.95 21.0" fill="#eb7000" fill-rule="evenodd" stroke="none"/>
      <path d="M77.95 21.0 L37.4 21.0 37.4 -3.5 77.95 -3.5" fill="none" stroke="#000000" stroke-linecap="round" stroke-linejoin="round" stroke-opacity="0.5019608" stroke-width="1.0"/>
      <path d="M58.0 2.9 Q56.55 2.8 54.6 3.45 52.75 4.05 51.95 4.8 53.35 5.85 55.05 6.3 L56.25 6.6" fill="none" stroke="#000000" stroke-linecap="round" stroke-linejoin="round" stroke-opacity="0.5019608" stroke-width="1.0"/>
      <path d="M49.3 5.95 Q48.45 5.9 47.3 6.3 46.15 6.65 45.7 7.1 46.55 7.75 47.55 8.0 L48.3 8.2" fill="none" stroke="#000000" stroke-linecap="round" stroke-linejoin="round" stroke-opacity="0.5019608" stroke-width="1.0"/>
      <path d="M54.4 10.8 Q52.95 10.7 51.0 11.35 49.15 11.95 48.35 12.7 49.75 13.75 51.45 14.2 L52.65 14.5" fill="none" stroke="#000000" stroke-linecap="round" stroke-linejoin="round" stroke-opacity="0.5019608" stroke-width="1.0"/>
      <path d="M133.05 9.0 Q134.05 8.5 134.85 7.2 136.15 4.85 137.1 4.6 138.85 4.2 141.35 5.3 143.6 6.2 144.7 7.45 142.5 6.6 141.4 6.6 L137.85 7.85 133.05 9.0" fill="#ff9900" fill-rule="evenodd" stroke="none"/>
      <path d="M79.9 -1.15 Q84.6 -0.15 86.0 -0.5 L95.6 -0.95 105.0 -1.85 Q120.8 -5.95 122.8 -5.95 L125.1 -5.65 127.0 -5.3 Q125.45 -5.3 123.4 -3.95 L120.05 -1.65 124.15 -3.05 127.7 -3.15 Q130.55 -3.15 136.6 -1.6 141.85 -0.25 145.4 -0.85 141.85 0.15 139.6 1.15 135.85 2.7 133.95 2.95 L127.7 3.75 Q124.15 4.5 123.15 6.4 L127.65 5.55 132.8 4.6 133.0 4.6 Q131.75 6.05 129.25 7.7 L124.85 10.1 Q123.3 10.75 120.85 12.95 L117.25 16.35 Q112.9 19.85 108.85 21.0 L104.2 22.55 Q102.6 22.9 100.5 23.75 L97.85 24.8 Q97.1 24.8 96.65 23.5 96.35 22.55 95.75 22.5 L95.45 22.5 Q92.3 22.55 91.4 21.85 92.55 20.95 92.95 19.2 L93.1 19.35 93.45 18.25 93.75 17.1 Q93.75 15.75 93.05 14.45 L91.8 12.05 91.75 9.25 Q91.75 7.25 90.55 7.25 89.7 7.25 88.4 8.9 82.95 10.1 77.5 14.3 75.75 1.7 79.9 -1.15 M123.05 6.45 L123.05 6.6 123.15 6.4 123.05 6.45 M96.25 19.95 L94.65 20.15 Q93.5 20.4 93.5 20.65 93.5 20.95 94.65 21.15 L96.65 21.4 96.55 21.1 96.25 19.95 96.15 19.4 Q96.15 18.7 98.25 18.25 96.15 18.7 96.15 19.4 L96.25 19.95 M96.1 14.7 Q95.6 13.7 95.6 13.15 95.6 12.3 97.3 10.75 95.6 12.3 95.6 13.15 95.6 13.7 96.1 14.7 M96.1 15.7 L98.1 16.05 99.75 16.35 98.1 16.05 96.1 15.7 M97.15 23.25 L96.65 21.4 97.15 23.25 M99.7 8.8 L97.6 8.65 94.4 8.95 Q93.05 9.3 93.05 9.7 93.05 10.1 94.4 10.4 L97.3 10.75 99.45 8.95 99.7 8.8 Q103.35 5.9 103.55 3.95 103.35 5.9 99.7 8.8" fill="url(#gradient0)" fill-rule="evenodd" stroke="none"/>
      <path d="M96.65 21.4 L94.65 21.15 Q93.5 20.95 93.5 20.65 93.5 20.4 94.65 20.15 L96.25 19.95 96.55 21.1 96.65 21.4 M97.3 10.75 L94.4 10.4 Q93.05 10.1 93.05 9.7 93.05 9.3 94.4 8.95 L97.6 8.65 99.7 8.8 99.45 8.95 97.3 10.75" fill="#000000" fill-rule="evenodd" stroke="none"/>
      <path d="M127.0 -5.3 L127.35 -5.3 M79.9 -1.15 Q84.6 -0.15 86.0 -0.5 L95.6 -0.95 105.0 -1.85 Q120.8 -5.95 122.8 -5.95 L125.1 -5.65 127.0 -5.3 Q125.45 -5.3 123.4 -3.95 L120.05 -1.65 124.15 -3.05 127.7 -3.15 Q130.55 -3.15 136.6 -1.6 141.85 -0.25 145.4 -0.85 141.85 0.15 139.6 1.15 135.85 2.7 133.95 2.95 L127.7 3.75 Q124.15 4.5 123.15 6.4 L127.65 5.55 132.8 4.6 133.0 4.6 Q131.75 6.05 129.25 7.7 L124.85 10.1 Q123.3 10.75 120.85 12.95 L117.25 16.35 Q112.9 19.85 108.85 21.0 L104.2 22.55 Q102.6 22.9 100.5 23.75 L97.85 24.8 Q97.1 24.8 96.65 23.5 96.35 22.55 95.75 22.5 L95.45 22.5 Q92.3 22.55 91.4 21.85 M133.05 9.0 Q134.05 8.5 134.85 7.2 136.15 4.85 137.1 4.6 138.85 4.2 141.35 5.3 143.6 6.2 144.7 7.45 142.5 6.6 141.4 6.6 L137.85 7.85 133.05 9.0 131.8 9.25 131.8 9.1 133.05 9.0 M123.05 6.45 L123.05 6.6 123.15 6.4 123.05 6.45 M96.65 21.4 L94.65 21.15 Q93.5 20.95 93.5 20.65 93.5 20.4 94.65 20.15 L96.25 19.95 96.15 19.4 Q96.15 18.7 98.25 18.25 M96.25 19.95 L96.55 21.1 96.65 21.4 97.15 23.25 M99.75 16.35 L98.1 16.05 96.1 15.7 M97.3 10.75 Q95.6 12.3 95.6 13.15 95.6 13.7 96.1 14.7 M97.3 10.75 L94.4 10.4 Q93.05 10.1 93.05 9.7 93.05 9.3 94.4 8.95 L97.6 8.65 99.7 8.8 Q103.35 5.9 103.55 3.95 M99.7 8.8 L99.45 8.95 97.3 10.75" fill="none" stroke="#000000" stroke-linecap="round" stroke-linejoin="round" stroke-opacity="0.5019608" stroke-width="1.0"/>
      <path d="M76.1 -53.1 Q74.95 -56.0 74.65 -61.85 74.95 -56.0 76.1 -53.1 M31.2 -48.45 L35.95 -48.95 Q40.15 -49.5 44.55 -51.3 47.65 -52.6 53.2 -56.4 58.6 -60.2 58.85 -61.2 L54.35 -63.8 Q49.2 -66.55 45.7 -67.5 L37.9 -68.8 Q52.3 -70.6 64.9 -67.4 L64.75 -71.7 Q69.15 -68.15 74.65 -61.85 74.65 -67.0 76.0 -70.5 79.95 -61.0 87.5 -51.85 85.9 -47.75 83.95 -45.55 L78.8 -41.9 Q69.55 -44.5 62.25 -48.55 62.65 -43.45 65.35 -39.1 57.0 -39.9 49.6 -43.3 50.3 -35.25 61.4 -27.45 L51.1 -28.4 Q51.4 -23.85 61.35 -18.4 L61.75 -14.65 Q55.35 -12.5 48.55 -12.9 50.95 -8.3 62.45 -5.85 60.35 -4.25 56.85 -4.2 60.6 0.05 67.15 -0.2 L67.0 6.7 66.25 6.75 65.6 6.75 64.5 6.75 64.2 6.7 60.05 6.05 51.25 3.8 49.25 3.15 45.65 1.75 45.25 0.45 45.2 0.1 44.95 -0.95 Q36.2 -1.9 31.9 -5.4 36.65 -6.65 39.4 -9.65 L36.65 -9.25 Q38.8 -10.0 41.75 -11.4 L42.9 -12.55 43.95 -13.35 Q48.8 -16.85 51.35 -19.8 L51.15 -19.9 Q49.75 -19.25 45.2 -20.5 40.65 -21.8 36.5 -22.0 L33.85 -21.8 30.4 -21.05 Q31.85 -21.6 33.25 -22.35 35.95 -23.6 38.25 -25.05 L41.2 -27.1 Q45.1 -30.1 47.4 -33.7 L47.35 -33.7 33.95 -32.4 Q25.15 -31.75 22.2 -30.6 L23.5 -31.25 23.45 -31.25 23.95 -31.35 Q27.5 -32.25 32.35 -35.3 35.7 -37.4 38.15 -39.65 L38.5 -39.95 38.85 -40.3 Q40.85 -42.25 42.15 -44.2 41.3 -44.45 39.95 -45.1 L38.05 -45.4 36.25 -45.7 33.15 -46.7 29.65 -47.85 27.75 -48.25 29.75 -48.25 30.65 -48.2 31.2 -48.45 30.65 -48.2 29.75 -48.25 29.8 -48.3 31.15 -48.45 31.2 -48.45 M43.05 -27.05 L41.2 -27.1 43.05 -27.05 M42.95 -5.15 Q39.15 -4.25 34.3 -5.0 39.15 -4.25 42.95 -5.15" fill="url(#gradient1)" fill-rule="evenodd" stroke="none"/>
      <path d="M37.9 -68.8 L45.7 -67.5 Q49.2 -66.55 54.35 -63.8 L58.85 -61.2 Q58.6 -60.2 53.2 -56.4 47.65 -52.6 44.55 -51.3 40.15 -49.5 35.95 -48.95 L31.2 -48.45 31.15 -48.45 Q43.35 -55.2 53.45 -57.0 41.2 -57.9 26.85 -55.85 16.55 -55.35 2.95 -59.5 -4.2 -61.7 -12.3 -65.2 L-12.4 -65.3 Q-4.9 -62.85 3.85 -62.85 16.95 -62.75 32.95 -68.05 L37.9 -68.8" fill="url(#gradient2)" fill-rule="evenodd" stroke="none"/>
      <path d="M29.75 -48.25 L27.75 -48.25 Q22.5 -48.5 16.3 -49.75 7.65 -51.75 1.55 -54.25 -9.5 -58.9 -12.3 -65.2 -4.2 -61.7 2.95 -59.5 16.55 -55.35 26.85 -55.85 41.2 -57.9 53.45 -57.0 43.35 -55.2 31.15 -48.45 L29.8 -48.3 29.75 -48.25" fill="url(#gradient3)" fill-rule="evenodd" stroke="none"/>
      <path d="M38.5 -39.95 L38.15 -39.65 Q35.7 -37.4 32.35 -35.3 27.5 -32.25 23.95 -31.35 L23.45 -31.25 Q7.65 -32.0 -2.6 -38.7 -8.2 -42.4 -12.2 -47.85 -6.9 -44.6 -1.65 -42.3 18.9 -33.2 38.5 -39.95" fill="url(#gradient4)" fill-rule="evenodd" stroke="none"/>
      <path d="M27.75 -48.25 L29.65 -47.85 33.15 -46.7 36.25 -45.7 38.05 -45.4 39.95 -45.1 Q41.3 -44.45 42.15 -44.2 40.85 -42.25 38.85 -40.3 L38.5 -39.95 Q18.9 -33.2 -1.65 -42.3 -6.9 -44.6 -12.2 -47.85 -6.15 -46.25 -0.65 -46.1 8.6 -45.85 16.3 -49.75 22.5 -48.5 27.75 -48.25" fill="url(#gradient5)" fill-rule="evenodd" stroke="none"/>
      <path d="M22.2 -30.6 Q25.15 -31.75 33.95 -32.4 L47.35 -33.7 47.4 -33.7 Q45.1 -30.1 41.2 -27.1 L34.75 -27.15 Q29.95 -27.0 25.5 -25.8 21.25 -24.7 17.0 -24.35 12.8 -23.9 5.1 -26.0 13.75 -26.65 21.5 -30.25 L22.2 -30.6" fill="url(#gradient6)" fill-rule="evenodd" stroke="none"/>
      <path d="M5.1 -26.0 Q12.8 -23.9 17.0 -24.35 21.25 -24.7 25.5 -25.8 29.95 -27.0 34.75 -27.15 L41.2 -27.1 38.25 -25.05 Q35.95 -23.6 33.25 -22.35 31.85 -21.6 30.4 -21.05 27.3 -19.75 24.4 -19.1 L23.65 -18.85 18.9 -18.25 Q9.35 -21.05 5.1 -26.0" fill="url(#gradient7)" fill-rule="evenodd" stroke="none"/>
      <path d="M30.4 -21.05 L33.85 -21.8 36.5 -22.0 Q40.65 -21.8 45.2 -20.5 49.75 -19.25 51.15 -19.9 L51.35 -19.8 Q48.8 -16.85 43.95 -13.35 L42.9 -12.55 45.45 -15.5 Q33.65 -12.4 16.5 -15.8 L20.5 -17.5 20.55 -17.55 20.9 -17.7 18.9 -18.25 23.65 -18.85 24.4 -19.1 Q27.3 -19.75 30.4 -21.05" fill="url(#gradient8)" fill-rule="evenodd" stroke="none"/>
      <path d="M42.9 -12.55 L41.75 -11.4 Q38.8 -10.0 36.65 -9.25 24.95 -8.25 16.5 -15.8 33.65 -12.4 45.45 -15.5 L42.9 -12.55" fill="url(#gradient9)" fill-rule="evenodd" stroke="none"/>
      <path d="M67.0 6.7 L67.15 -0.2 Q65.55 -2.9 64.5 -5.5 63.7 -7.2 63.2 -8.9 62.2 -11.75 61.75 -14.65 L61.35 -18.4 Q61.2 -22.75 62.15 -26.95 L62.45 -28.35 Q63.8 -33.2 66.4 -36.3 L66.95 -36.9 Q69.15 -39.25 71.8 -39.85 L78.05 -41.3 78.65 -41.45 79.65 -41.7 78.8 -41.9 83.95 -45.55 Q85.9 -47.75 87.5 -51.85 89.2 -55.9 88.1 -61.95 95.9 -51.85 91.15 -41.3 98.75 -36.3 102.2 -28.9 L103.4 -25.8 Q99.85 -30.15 97.3 -30.6 90.65 -32.4 84.65 -31.6 L81.1 -30.85 77.9 -29.85 Q68.95 -26.15 66.85 -18.2 64.7 -10.25 70.6 -2.65 L72.95 0.05 Q78.75 2.65 83.5 -0.2 81.25 1.85 78.7 3.3 L77.75 3.85 Q73.75 5.85 69.0 6.5 L68.1 6.6 67.0 6.7 M64.45 -25.45 L62.15 -26.95 64.45 -25.45 M81.75 -41.1 L79.65 -41.7 81.75 -41.1 M65.15 -5.35 L64.5 -5.5 65.15 -5.35" fill="#ff9900" fill-rule="evenodd" stroke="none"/>
      <path d="M65.35 -39.1 Q62.65 -43.45 62.25 -48.55 69.55 -44.5 78.8 -41.9 L79.65 -41.7 78.65 -41.45 78.05 -41.3 71.8 -39.85 Q69.15 -39.25 66.95 -36.9 L65.35 -39.1" fill="url(#gradient10)" fill-rule="evenodd" stroke="none"/>
      <path d="M61.4 -27.45 Q50.3 -35.25 49.6 -43.3 57.0 -39.9 65.35 -39.1 L66.95 -36.9 66.4 -36.3 Q63.8 -33.2 62.45 -28.35 L62.15 -26.95 61.4 -27.45" fill="url(#gradient11)" fill-rule="evenodd" stroke="none"/>
      <path d="M61.35 -18.4 Q51.4 -23.85 51.1 -28.4 L61.4 -27.45 62.15 -26.95 Q61.2 -22.75 61.35 -18.4" fill="url(#gradient12)" fill-rule="evenodd" stroke="none"/>
      <path d="M67.15 -0.2 Q60.6 0.05 56.85 -4.2 60.35 -4.25 62.45 -5.85 L64.5 -5.5 Q65.55 -2.9 67.15 -0.2" fill="url(#gradient13)" fill-rule="evenodd" stroke="none"/>
      <path d="M62.45 -5.85 Q50.95 -8.3 48.55 -12.9 55.35 -12.5 61.75 -14.65 62.2 -11.75 63.2 -8.9 63.7 -7.2 64.5 -5.5 L62.45 -5.85" fill="url(#gradient14)" fill-rule="evenodd" stroke="none"/>
      <path d="M103.4 -25.8 L98.05 -26.7 Q92.55 -26.85 87.55 -23.9 86.85 -24.95 86.3 -26.25 85.15 -28.9 84.65 -31.6 90.65 -32.4 97.3 -30.6 99.85 -30.15 103.4 -25.8 M82.4 -20.05 L81.0 -18.5 Q77.1 -12.1 77.75 -7.5 78.0 -5.3 79.35 -3.55 80.8 -1.6 83.5 -0.2 78.75 2.65 72.95 0.05 L70.6 -2.65 Q64.7 -10.25 66.85 -18.2 68.95 -26.15 77.9 -29.85 L81.1 -30.85 81.9 -28.4 Q83.0 -24.0 82.4 -20.05" fill="#ffcc00" fill-rule="evenodd" stroke="none"/>
      <path d="M87.55 -23.9 Q84.9 -22.45 82.4 -20.05 83.0 -24.0 81.9 -28.4 L81.1 -30.85 84.65 -31.6 Q85.15 -28.9 86.3 -26.25 86.85 -24.95 87.55 -23.9" fill="#ffffff" fill-rule="evenodd" stroke="none"/>
      <path d="M74.65 -61.85 Q74.95 -56.0 76.1 -53.1 M31.2 -48.45 L30.65 -48.2 29.75 -48.25 27.75 -48.25 Q22.5 -48.5 16.3 -49.75 8.6 -45.85 -0.65 -46.1 -6.15 -46.25 -12.2 -47.85 -8.2 -42.4 -2.6 -38.7 7.65 -32.0 23.45 -31.25 L23.5 -31.25 22.2 -30.6 21.5 -30.25 Q13.75 -26.65 5.1 -26.0 9.35 -21.05 18.9 -18.25 L20.9 -17.7 20.55 -17.55 20.5 -17.5 16.5 -15.8 Q24.95 -8.25 36.65 -9.25 L39.4 -9.65 Q36.65 -6.65 31.9 -5.4 36.2 -1.9 44.95 -0.95 L45.2 0.1 M87.5 -51.85 Q79.95 -61.0 76.0 -70.5 74.65 -67.0 74.65 -61.85 69.15 -68.15 64.75 -71.7 L64.9 -67.4 Q52.3 -70.6 37.9 -68.8 L32.95 -68.05 Q16.95 -62.75 3.85 -62.85 -4.9 -62.85 -12.4 -65.3 L-12.3 -65.2 Q-9.5 -58.9 1.55 -54.25 7.65 -51.75 16.3 -49.75 M45.25 0.45 L45.65 1.75 49.25 3.15 51.25 3.8 M67.15 -0.2 Q60.6 0.05 56.85 -4.2 60.35 -4.25 62.45 -5.85 50.95 -8.3 48.55 -12.9 55.35 -12.5 61.75 -14.65 M61.35 -18.4 Q51.4 -23.85 51.1 -28.4 L61.4 -27.45 Q50.3 -35.25 49.6 -43.3 57.0 -39.9 65.35 -39.1 62.65 -43.45 62.25 -48.55 69.55 -44.5 78.8 -41.9 L79.65 -41.7 81.75 -41.1 M83.95 -45.55 Q85.9 -47.75 87.5 -51.85 89.2 -55.9 88.1 -61.95 95.9 -51.85 91.15 -41.3 98.75 -36.3 102.2 -28.9 L103.4 -25.8 98.05 -26.7 Q92.55 -26.85 87.55 -23.9 84.9 -22.45 82.4 -20.05 L81.0 -18.5 Q77.1 -12.1 77.75 -7.5 78.0 -5.3 79.35 -3.55 80.8 -1.6 83.5 -0.2 81.25 1.85 78.7 3.3 M62.15 -26.95 L64.45 -25.45 M61.4 -27.45 L62.15 -26.95 M66.95 -36.9 L65.35 -39.1 M64.5 -5.5 L65.15 -5.35 M64.5 -5.5 L62.45 -5.85" fill="none" stroke="#000000" stroke-linecap="round" stroke-linejoin="round" stroke-opacity="0.5019608" stroke-width="1.0"/>
      <path d="M38.85 -40.3 L38.5 -39.95 Q18.9 -33.2 -1.65 -42.3 -6.9 -44.6 -12.2 -47.85 M41.2 -27.1 L43.05 -27.05 M-12.3 -65.2 Q-4.2 -61.7 2.95 -59.5 16.55 -55.35 26.85 -55.85 41.2 -57.9 53.45 -57.0 M5.1 -26.0 Q12.8 -23.9 17.0 -24.35 21.25 -24.7 25.5 -25.8 29.95 -27.0 34.75 -27.15 L41.2 -27.1 M16.5 -15.8 Q33.65 -12.4 45.45 -15.5 M81.1 -30.85 L77.9 -29.85 Q68.95 -26.15 66.85 -18.2 64.7 -10.25 70.6 -2.65 L72.95 0.05 M34.3 -5.0 Q39.15 -4.25 42.95 -5.15 M81.1 -30.85 L84.65 -31.6 Q90.65 -32.4 97.3 -30.6" fill="none" stroke="#000000" stroke-linecap="round" stroke-linejoin="round" stroke-opacity="0.3019608" stroke-width="1.0"/>
      <path d="M82.4 37.8 Q84.9 40.2 87.55 41.65 86.85 42.7 86.3 44.05 85.15 46.65 84.65 49.35 L81.1 48.6 81.9 46.15 Q83.0 41.75 82.4 37.8" fill="#ffffff" fill-rule="evenodd" stroke="none"/>
      <path d="M87.55 41.65 Q92.55 44.6 98.05 44.45 L103.4 43.6 Q99.85 47.9 97.3 48.35 90.65 50.15 84.65 49.35 85.15 46.65 86.3 44.05 86.85 42.7 87.55 41.65 M83.5 17.95 Q80.8 19.4 79.35 21.35 78.0 23.05 77.75 25.25 77.1 29.85 81.0 36.25 L82.4 37.8 Q83.0 41.75 81.9 46.15 L81.1 48.6 77.9 47.6 Q68.95 43.9 66.85 35.95 64.7 28.05 70.6 20.4 L72.95 17.75 Q78.75 15.1 83.5 17.95" fill="#ffcc00" fill-rule="evenodd" stroke="none"/>
      <path d="M103.4 43.6 L102.2 46.7 Q98.75 54.05 91.15 59.05 95.9 69.6 88.1 79.7 89.2 73.65 87.5 69.65 85.9 65.5 83.95 63.3 L78.8 59.65 79.65 59.45 78.65 59.2 78.05 59.1 71.8 57.6 Q69.15 57.0 66.95 54.65 L66.4 54.1 Q63.8 51.0 62.45 46.1 L62.15 44.7 Q61.2 40.5 61.35 36.15 L61.75 32.4 Q62.2 29.5 63.2 26.65 63.7 24.95 64.5 23.25 L65.15 23.1 64.5 23.25 Q65.55 20.65 67.15 18.0 L67.0 11.05 68.1 11.15 69.0 11.3 Q73.75 11.9 77.75 13.95 L78.9 14.55 Q81.35 15.95 83.5 17.95 78.75 15.1 72.95 17.75 L70.6 20.4 Q64.7 28.05 66.85 35.95 68.95 43.9 77.9 47.6 L81.1 48.6 84.65 49.35 Q90.65 50.15 97.3 48.35 99.85 47.9 103.4 43.6 M62.15 44.7 L64.45 43.2 62.15 44.7 M81.75 58.9 L79.65 59.45 81.75 58.9" fill="#ff9900" fill-rule="evenodd" stroke="none"/>
      <path d="M87.5 69.65 Q79.95 78.75 76.0 88.3 74.65 84.75 74.65 79.6 69.15 85.9 64.75 89.5 L64.9 85.2 Q52.3 88.35 37.9 86.55 L45.7 85.25 Q49.2 84.3 54.35 81.55 L58.85 79.0 Q58.6 78.0 53.2 74.2 47.65 70.35 44.55 69.05 40.15 67.25 35.95 66.75 L31.2 66.2 30.65 65.95 29.75 66.0 30.65 65.95 31.2 66.2 31.15 66.2 29.8 66.05 29.75 66.0 27.75 66.05 29.65 65.6 33.15 64.45 36.25 63.45 38.05 63.15 39.95 62.85 Q41.3 62.2 42.15 61.95 40.85 60.05 38.9 58.1 L38.5 57.7 38.15 57.4 Q35.7 55.15 32.35 53.05 27.5 50.0 23.95 49.1 L23.45 49.0 23.5 49.0 22.2 48.35 Q25.15 49.5 33.95 50.15 L47.35 51.5 47.4 51.5 Q45.1 47.9 41.2 44.85 L43.05 44.8 41.2 44.85 38.25 42.8 Q35.95 41.35 33.25 40.1 31.85 39.35 30.4 38.8 L33.85 39.55 36.5 39.8 Q40.65 39.55 45.2 38.3 49.75 37.0 51.15 37.65 L51.35 37.6 Q48.8 34.6 43.95 31.1 L42.9 30.3 41.75 29.2 Q38.8 27.75 36.65 27.05 L39.4 27.4 Q36.65 24.4 31.9 23.15 36.2 19.65 44.95 18.7 L45.2 17.65 45.25 17.3 45.65 16.05 Q47.35 15.3 49.25 14.65 L50.6 14.15 Q55.15 12.7 60.05 11.75 L64.2 11.05 64.5 11.05 65.6 11.0 66.25 11.0 67.0 11.05 67.15 18.0 Q60.6 17.7 56.85 21.95 60.35 22.0 62.45 23.6 50.95 26.05 48.55 30.65 55.35 30.25 61.75 32.4 L61.35 36.15 Q51.4 41.6 51.1 46.2 L61.4 45.25 Q50.3 53.0 49.6 61.05 57.0 57.7 65.35 56.85 62.65 61.2 62.25 66.3 69.55 62.25 78.8 59.65 L83.95 63.3 Q85.9 65.5 87.5 69.65 M76.1 70.85 Q74.95 73.75 74.65 79.6 74.95 73.75 76.1 70.85 M42.95 22.9 Q39.15 22.05 34.3 22.8 39.15 22.05 42.95 22.9" fill="url(#gradient15)" fill-rule="evenodd" stroke="none"/>
      <path d="M61.75 32.4 Q55.35 30.25 48.55 30.65 50.95 26.05 62.45 23.6 L64.5 23.25 Q63.7 24.95 63.2 26.65 62.2 29.5 61.75 32.4" fill="url(#gradient16)" fill-rule="evenodd" stroke="none"/>
      <path d="M62.45 23.6 Q60.35 22.0 56.85 21.95 60.6 17.7 67.15 18.0 65.55 20.65 64.5 23.25 L62.45 23.6" fill="url(#gradient17)" fill-rule="evenodd" stroke="none"/>
      <path d="M18.9 36.0 L20.9 35.45 20.55 35.3 20.5 35.25 16.5 33.55 Q33.65 30.15 45.45 33.3 L42.9 30.3 43.95 31.1 Q48.8 34.6 51.35 37.6 L51.15 37.65 Q49.75 37.0 45.2 38.3 40.65 39.55 36.5 39.8 L33.85 39.55 30.4 38.8 Q27.3 37.5 24.4 36.85 L23.65 36.65 18.9 36.0" fill="url(#gradient18)" fill-rule="evenodd" stroke="none"/>
      <path d="M16.5 33.55 Q24.95 26.0 36.65 27.05 38.8 27.75 41.75 29.2 L42.9 30.3 45.45 33.3 Q33.65 30.15 16.5 33.55" fill="url(#gradient19)" fill-rule="evenodd" stroke="none"/>
      <path d="M65.35 56.85 Q57.0 57.7 49.6 61.05 50.3 53.0 61.4 45.25 L62.15 44.7 62.45 46.1 Q63.8 51.0 66.4 54.1 L66.95 54.65 65.35 56.85" fill="url(#gradient20)" fill-rule="evenodd" stroke="none"/>
      <path d="M61.4 45.25 L51.1 46.2 Q51.4 41.6 61.35 36.15 61.2 40.5 62.15 44.7 L61.4 45.25" fill="url(#gradient21)" fill-rule="evenodd" stroke="none"/>
      <path d="M22.2 48.35 L21.5 48.0 Q13.75 44.4 5.1 43.8 12.8 41.65 17.0 42.1 21.25 42.45 25.5 43.6 29.95 44.8 34.75 44.9 L41.2 44.85 Q45.1 47.9 47.4 51.5 L47.35 51.5 33.95 50.15 Q25.15 49.5 22.2 48.35" fill="url(#gradient22)" fill-rule="evenodd" stroke="none"/>
      <path d="M5.1 43.8 Q9.35 38.8 18.9 36.0 L23.65 36.65 24.4 36.85 Q27.3 37.5 30.4 38.8 31.85 39.35 33.25 40.1 35.95 41.35 38.25 42.8 L41.2 44.85 34.75 44.9 Q29.95 44.8 25.5 43.6 21.25 42.45 17.0 42.1 12.8 41.65 5.1 43.8" fill="url(#gradient23)" fill-rule="evenodd" stroke="none"/>
      <path d="M-12.2 65.6 Q-8.2 60.15 -2.6 56.5 7.65 49.75 23.45 49.0 L23.95 49.1 Q27.5 50.0 32.35 53.05 35.7 55.15 38.15 57.4 L38.5 57.7 Q18.9 51.0 -1.65 60.05 -6.9 62.35 -12.2 65.6" fill="url(#gradient24)" fill-rule="evenodd" stroke="none"/>
      <path d="M16.3 67.5 Q8.6 63.6 -0.65 63.85 -6.15 64.0 -12.2 65.6 -6.9 62.35 -1.65 60.05 18.9 51.0 38.5 57.7 L38.9 58.1 Q40.85 60.05 42.15 61.95 41.3 62.2 39.95 62.85 L38.05 63.15 36.25 63.45 33.15 64.45 29.65 65.6 27.75 66.05 Q22.5 66.25 16.3 67.5" fill="url(#gradient25)" fill-rule="evenodd" stroke="none"/>
      <path d="M-12.3 82.95 Q-9.5 76.65 1.55 72.05 7.65 69.5 16.3 67.5 22.5 66.25 27.75 66.05 L29.75 66.0 29.8 66.05 31.15 66.2 Q43.35 72.95 53.45 74.75 41.2 75.65 26.85 73.6 16.55 73.1 2.95 77.25 -4.2 79.45 -12.3 82.95" fill="url(#gradient26)" fill-rule="evenodd" stroke="none"/>
      <path d="M37.9 86.55 L32.95 85.8 Q16.95 80.5 3.85 80.6 -4.9 80.65 -12.35 83.05 L-12.3 82.95 Q-4.2 79.45 2.95 77.25 16.55 73.1 26.85 73.6 41.2 75.65 53.45 74.75 43.35 72.95 31.15 66.2 L31.2 66.2 35.95 66.75 Q40.15 67.25 44.55 69.05 47.65 70.35 53.2 74.2 58.6 78.0 58.85 79.0 L54.35 81.55 Q49.2 84.3 45.7 85.25 L37.9 86.55" fill="url(#gradient27)" fill-rule="evenodd" stroke="none"/>
      <path d="M78.8 59.65 Q69.55 62.25 62.25 66.3 62.65 61.2 65.35 56.85 L66.95 54.65 Q69.15 57.0 71.8 57.6 L78.05 59.1 78.65 59.2 79.65 59.45 78.8 59.65" fill="url(#gradient28)" fill-rule="evenodd" stroke="none"/>
      <path d="M82.4 37.8 Q84.9 40.2 87.55 41.65 92.55 44.6 98.05 44.45 L103.4 43.6 102.2 46.7 Q98.75 54.05 91.15 59.05 95.9 69.6 88.1 79.7 89.2 73.65 87.5 69.65 79.95 78.75 76.0 88.3 74.65 84.75 74.65 79.6 69.15 85.9 64.75 89.5 L64.9 85.2 Q52.3 88.35 37.9 86.55 L32.95 85.8 Q16.95 80.5 3.85 80.6 -4.9 80.65 -12.35 83.05 L-12.3 82.95 Q-9.5 76.65 1.55 72.05 7.65 69.5 16.3 67.5 8.6 63.6 -0.65 63.85 -6.15 64.0 -12.2 65.6 -8.2 60.15 -2.6 56.5 7.65 49.75 23.45 49.0 L23.5 49.0 22.2 48.35 21.5 48.0 Q13.75 44.4 5.1 43.8 9.35 38.8 18.9 36.0 L20.9 35.45 20.55 35.3 20.5 35.25 16.5 33.55 Q24.95 26.0 36.65 27.05 L39.4 27.4 Q36.65 24.4 31.9 23.15 36.2 19.65 44.95 18.7 L45.2 17.65 M45.25 17.3 L45.65 16.05 Q47.35 15.3 49.25 14.65 L50.6 14.15 M78.9 14.55 Q81.35 15.95 83.5 17.95 80.8 19.4 79.35 21.35 78.0 23.05 77.75 25.25 77.1 29.85 81.0 36.25 L82.4 37.8 M87.5 69.65 Q85.9 65.5 83.95 63.3 M78.8 59.65 Q69.55 62.25 62.25 66.3 62.65 61.2 65.35 56.85 57.0 57.7 49.6 61.05 50.3 53.0 61.4 45.25 L51.1 46.2 Q51.4 41.6 61.35 36.15 M61.75 32.4 Q55.35 30.25 48.55 30.65 50.95 26.05 62.45 23.6 60.35 22.0 56.85 21.95 60.6 17.7 67.15 18.0 M64.5 23.25 L65.15 23.1 M64.5 23.25 L62.45 23.6 M64.45 43.2 L62.15 44.7 61.4 45.25 M79.65 59.45 L81.75 58.9 M27.75 66.05 L29.75 66.0 30.65 65.95 31.2 66.2 M27.75 66.05 Q22.5 66.25 16.3 67.5 M78.8 59.65 L79.65 59.45 M66.95 54.65 L65.35 56.85 M74.65 79.6 Q74.95 73.75 76.1 70.85" fill="none" stroke="#000000" stroke-linecap="round" stroke-linejoin="round" stroke-opacity="0.5019608" stroke-width="1.0"/>
      <path d="M81.1 48.6 L84.65 49.35 Q90.65 50.15 97.3 48.35 M72.95 17.75 L70.6 20.4 Q64.7 28.05 66.85 35.95 68.95 43.9 77.9 47.6 L81.1 48.6 M43.05 44.8 L41.2 44.85 34.75 44.9 Q29.95 44.8 25.5 43.6 21.25 42.45 17.0 42.1 12.8 41.65 5.1 43.8 M45.45 33.3 Q33.65 30.15 16.5 33.55 M38.5 57.7 L38.9 58.1 M-12.3 82.95 Q-4.2 79.45 2.95 77.25 16.55 73.1 26.85 73.6 41.2 75.65 53.45 74.75 M34.3 22.8 Q39.15 22.05 42.95 22.9 M-12.2 65.6 Q-6.9 62.35 -1.65 60.05 18.9 51.0 38.5 57.7" fill="none" stroke="#000000" stroke-linecap="round" stroke-linejoin="round" stroke-opacity="0.3019608" stroke-width="1.0"/>
      <path d="M15.4 0.3 Q15.4 -0.8 16.2 -1.55 17.0 -2.35 18.1 -2.35 19.2 -2.35 20.0 -1.55 20.8 -0.8 20.8 0.3 L15.4 0.3 M29.55 -7.75 Q28.85 -10.95 30.1 -13.5 32.0 -17.4 36.4 -18.1 33.8 -14.1 35.0 -8.65 32.1 -8.9 29.55 -7.75 M37.35 -5.15 L38.6 -4.45 Q39.2 -1.45 39.4 1.55 L36.35 1.55 36.05 1.55 33.9 1.3 Q32.45 0.85 31.25 -0.25 29.5 -1.85 29.05 -4.2 L28.95 -5.15 33.9 -5.4 37.35 -5.15 M-69.7 -6.9 L-68.35 -4.35 -64.95 -4.1 -63.85 -3.95 -63.5 0.3 -66.4 0.3 Q-66.8 4.15 -66.85 7.9 -68.8 7.3 -70.3 5.65 -72.35 3.3 -72.7 -0.1 L-72.75 -1.4 -72.7 -2.55 -72.15 -4.4 Q-71.4 -6.45 -69.7 -6.9 M-57.5 0.3 Q-57.5 -0.8 -56.7 -1.55 -55.9 -2.35 -54.8 -2.35 -53.7 -2.35 -52.9 -1.55 -52.1 -0.8 -52.1 0.3 L-57.5 0.3 M-22.05 0.3 Q-22.05 -0.8 -21.25 -1.55 -20.45 -2.35 -19.35 -2.35 -18.25 -2.35 -17.45 -1.55 -16.65 -0.8 -16.65 0.3 L-22.05 0.3 M-66.15 -1.4 L-66.4 0.3 -66.15 -1.4" fill="#ffff00" fill-rule="evenodd" stroke="none"/>
      <path d="M27.45 0.3 L28.0 -4.95 28.55 -5.05 28.95 -5.15 29.05 -4.2 Q29.5 -1.85 31.25 -0.25 32.45 0.85 33.9 1.3 L36.05 1.55 36.35 1.55 39.4 1.55 Q39.8 8.65 39.05 15.7 L36.45 15.2 33.9 14.8 31.85 14.55 27.25 14.05 27.05 9.2 Q27.05 4.85 27.45 0.3 M-63.5 16.85 L-63.85 20.95 -64.95 21.15 -65.85 21.3 -66.9 21.4 Q-71.3 19.55 -76.2 15.5 -77.7 11.85 -77.7 7.3 L-77.65 5.85 -77.4 5.05 -77.4 3.7 Q-78.6 4.9 -79.65 7.95 -80.3 9.9 -80.55 11.6 L-84.1 7.65 -84.1 -0.6 -84.2 -0.6 -83.15 -3.05 -84.0 -4.0 Q-82.55 -6.55 -80.45 -8.75 L-77.4 -11.6 -74.5 -13.75 -77.4 -11.6 Q-79.2 -12.3 -81.2 -14.1 L-82.15 -14.95 Q-80.6 -16.2 -78.6 -16.9 L-76.45 -17.45 Q-73.65 -16.6 -74.5 -13.75 -72.4 -11.35 -70.8 -8.75 L-69.7 -6.9 Q-71.4 -6.45 -72.15 -4.4 L-72.7 -2.55 -72.75 -1.4 -72.7 -0.1 Q-72.35 3.3 -70.3 5.65 -68.8 7.3 -66.85 7.9 L-66.85 8.6 -66.4 16.85 -63.5 16.85 M15.45 9.15 L15.4 8.5 Q15.4 7.4 16.2 6.6 17.0 5.85 18.1 5.85 19.2 5.85 20.0 6.6 20.8 7.4 20.8 8.5 L20.7 9.2 Q20.55 9.9 20.0 10.4 19.2 11.2 18.1 11.2 17.0 11.2 16.2 10.4 15.65 9.9 15.45 9.15 M-16.7 8.95 Q-16.85 9.8 -17.45 10.4 -18.25 11.2 -19.35 11.2 -20.45 11.2 -21.25 10.4 -21.9 9.75 -22.05 8.95 L-22.05 8.5 Q-22.05 7.4 -21.25 6.6 -20.45 5.85 -19.35 5.85 -18.25 5.85 -17.45 6.6 -16.65 7.4 -16.65 8.5 L-16.7 8.95 M-52.1 8.75 Q-52.2 9.7 -52.9 10.4 -53.7 11.2 -54.8 11.2 -55.9 11.2 -56.7 10.4 -57.45 9.7 -57.5 8.7 L-57.5 8.5 Q-57.5 7.4 -56.7 6.6 -55.9 5.85 -54.8 5.85 -53.7 5.85 -52.9 6.6 -52.1 7.4 -52.1 8.5 L-52.1 8.75 M-66.4 16.85 L-66.15 18.55 -66.4 16.85" fill="#ffcc00" fill-rule="evenodd" stroke="none"/>
      <path d="M28.55 -5.05 Q28.2 -6.0 28.3 -7.1 L29.55 -7.75 Q32.1 -8.9 35.0 -8.65 L36.4 -8.45 37.6 -5.85 37.35 -5.15 33.9 -5.4 28.95 -5.15 28.55 -5.05 M37.95 22.05 Q37.55 24.05 36.4 25.9 L35.0 26.1 Q32.1 26.35 29.55 25.25 L28.3 24.55 Q28.15 23.15 28.75 22.1 L33.9 22.6 37.95 22.05" fill="#e35b00" fill-rule="evenodd" stroke="none"/>
      <path d="M24.1 0.3 L27.45 0.3 Q27.05 4.85 27.05 9.2 L23.4 9.2 Q23.4 5.05 24.1 0.3" fill="#663403" fill-rule="evenodd" stroke="none"/>
      <path d="M15.4 0.3 L20.8 0.3 24.1 0.3 Q23.4 5.05 23.4 9.2 L20.7 9.2 20.8 8.5 Q20.8 7.4 20.0 6.6 19.2 5.85 18.1 5.85 17.0 5.85 16.2 6.6 15.4 7.4 15.4 8.5 L15.45 9.15 4.1 9.05 2.05 7.05 Q3.9 3.65 8.0 3.4 3.9 3.65 2.05 7.05 L4.1 9.05 -16.7 8.95 -16.65 8.5 Q-16.65 7.4 -17.45 6.6 -18.25 5.85 -19.35 5.85 -20.45 5.85 -21.25 6.6 -22.05 7.4 -22.05 8.5 L-22.05 8.95 -35.65 8.8 -35.5 8.75 -34.65 8.2 Q-33.4 7.55 -31.85 7.2 -33.4 7.55 -34.65 8.2 L-35.5 8.75 -35.65 8.8 -52.1 8.75 -52.1 8.5 Q-52.1 7.4 -52.9 6.6 -53.7 5.85 -54.8 5.85 -55.9 5.85 -56.7 6.6 -57.5 7.4 -57.5 8.5 L-57.5 8.7 -66.85 8.6 -66.85 7.9 Q-66.8 4.15 -66.4 0.3 L-63.5 0.3 -57.5 0.3 -52.1 0.3 -22.05 0.3 -16.65 0.3 15.4 0.3 M-32.9 3.35 Q-35.75 4.0 -37.1 5.95 -36.2 7.55 -34.65 8.2 -36.2 7.55 -37.1 5.95 -35.75 4.0 -32.9 3.35" fill="#8c4b09" fill-rule="evenodd" stroke="none"/>
      <path d="M24.1 16.85 L20.8 16.85 15.4 16.85 -16.65 16.85 -22.05 16.85 -52.1 16.85 -57.5 16.85 -63.5 16.85 -66.4 16.85 -66.85 8.6 -57.5 8.7 Q-57.45 9.7 -56.7 10.4 -55.9 11.2 -54.8 11.2 -53.7 11.2 -52.9 10.4 -52.2 9.7 -52.1 8.75 L-35.65 8.8 -22.05 8.95 Q-21.9 9.75 -21.25 10.4 -20.45 11.2 -19.35 11.2 -18.25 11.2 -17.45 10.4 -16.85 9.8 -16.7 8.95 L4.1 9.05 15.45 9.15 Q15.65 9.9 16.2 10.4 17.0 11.2 18.1 11.2 19.2 11.2 20.0 10.4 20.55 9.9 20.7 9.2 L23.4 9.2 Q23.45 13.3 24.1 16.85 M7.75 10.6 L4.95 9.6 4.1 9.05 4.95 9.6 7.75 10.6 M6.7 14.45 Q3.85 13.75 2.5 11.85 3.4 10.2 4.95 9.6 3.4 10.2 2.5 11.85 3.85 13.75 6.7 14.45 M-31.6 14.4 Q-35.7 14.15 -37.55 10.75 -36.8 9.65 -35.65 8.8 -36.8 9.65 -37.55 10.75 -35.7 14.15 -31.6 14.4" fill="#733900" fill-rule="evenodd" stroke="none"/>
      <path d="M27.45 16.85 L24.1 16.85 Q23.45 13.3 23.4 9.2 L27.05 9.2 27.25 14.05 27.45 16.85" fill="#592b02" fill-rule="evenodd" stroke="none"/>
      <path d="M39.05 15.7 L38.4 20.75 38.35 21.9 38.3 21.95 37.95 22.05 33.9 22.6 28.75 22.1 28.0 21.9 27.45 16.85 27.25 14.05 31.85 14.55 33.9 14.8 36.45 15.2 39.05 15.7 M-87.85 0.85 L-87.55 -0.6 Q-86.25 -1.4 -84.2 -0.6 L-84.1 -0.6 -84.1 7.65 -84.1 12.0 -86.2 10.65 Q-87.55 9.85 -88.55 9.4 -88.6 5.2 -87.85 0.85 M-84.0 -4.0 Q-88.1 -4.0 -86.7 -8.2 L-86.5 -8.75 -85.85 -10.2 Q-84.35 -13.15 -82.15 -14.95 L-81.2 -14.1 Q-79.2 -12.3 -77.4 -11.6 L-80.45 -8.75 Q-82.55 -6.55 -84.0 -4.0" fill="#ff9e00" fill-rule="evenodd" stroke="none"/>
      <path d="M20.8 16.85 Q20.75 17.85 20.0 18.6 19.2 19.4 18.1 19.4 17.0 19.4 16.2 18.6 15.45 17.85 15.4 16.85 L20.8 16.85 M-16.65 16.85 Q-16.7 17.85 -17.45 18.6 -18.25 19.4 -19.35 19.4 -20.45 19.4 -21.25 18.6 -22.0 17.85 -22.05 16.85 L-16.65 16.85 M-52.1 16.85 Q-52.15 17.85 -52.9 18.6 -53.7 19.4 -54.8 19.4 -55.9 19.4 -56.7 18.6 -57.45 17.85 -57.5 16.85 L-52.1 16.85" fill="#ff9900" fill-rule="evenodd" stroke="none"/>
      <path d="M35.0 26.1 Q33.8 31.55 36.4 35.55 32.0 34.85 30.1 30.95 28.85 28.4 29.55 25.25 32.1 26.35 35.0 26.1" fill="#e6b000" fill-rule="evenodd" stroke="none"/>
      <path d="M-86.7 -8.2 L-87.3 -8.75 Q-94.6 -15.1 -104.15 -15.55 -94.45 -25.85 -78.6 -16.9 -80.6 -16.2 -82.15 -14.95 -84.35 -13.15 -85.85 -10.2 L-86.5 -8.75 -86.7 -8.2" fill="url(#gradient29)" fill-rule="evenodd" stroke="none"/>
      <path d="M-66.9 21.4 L-68.35 21.55 Q-69.45 23.9 -70.8 26.05 -72.4 28.6 -74.5 31.0 -77.9 28.7 -80.45 26.05 -82.55 23.8 -84.0 21.3 L-83.1 20.3 -84.2 18.05 -84.1 17.95 -84.1 12.0 -84.1 7.65 -80.55 11.6 Q-80.3 9.9 -79.65 7.95 -78.6 4.9 -77.4 3.7 L-77.4 5.05 -77.65 5.85 -77.7 7.3 Q-77.7 11.85 -76.2 15.5 -71.3 19.55 -66.9 21.4" fill="#f29500" fill-rule="evenodd" stroke="none"/>
      <path d="M-74.5 31.0 Q-73.65 33.9 -76.45 34.75 L-78.6 34.2 Q-83.25 32.6 -85.85 27.5 L-86.7 25.5 Q-88.1 21.3 -84.0 21.3 -82.55 23.8 -80.45 26.05 -77.9 28.7 -74.5 31.0 M-84.2 18.05 L-87.55 17.95 -87.85 16.55 Q-88.45 13.05 -88.55 9.4 -87.55 9.85 -86.2 10.65 L-84.1 12.0 -84.1 17.95 -84.2 18.05" fill="#f57500" fill-rule="evenodd" stroke="none"/>
      <path d="M-87.85 16.55 Q-101.8 13.7 -112.8 8.7 -101.25 3.25 -87.85 0.85 -88.6 5.2 -88.55 9.4 -88.45 13.05 -87.85 16.55" fill="url(#gradient30)" fill-rule="evenodd" stroke="none"/>
      <path d="M-78.6 34.2 Q-94.45 43.15 -104.15 32.85 -94.6 32.4 -86.7 25.5 L-85.85 27.5 Q-83.25 32.6 -78.6 34.2" fill="url(#gradient31)" fill-rule="evenodd" stroke="none"/>
      <path d="M20.8 0.3 Q20.8 -0.8 20.0 -1.55 19.2 -2.35 18.1 -2.35 17.0 -2.35 16.2 -1.55 15.4 -0.8 15.4 0.3 L20.8 0.3 24.1 0.3 27.45 0.3 28.0 -4.95 28.55 -5.05 Q28.2 -6.0 28.3 -7.1 L29.55 -7.75 Q28.85 -10.95 30.1 -13.5 32.0 -17.4 36.4 -18.1 33.8 -14.1 35.0 -8.65 L36.4 -8.45 37.6 -5.85 37.35 -5.15 38.6 -4.45 Q39.2 -1.45 39.4 1.55 39.8 8.65 39.05 15.7 L38.4 20.75 38.35 21.9 38.3 21.95 37.95 22.05 Q37.55 24.05 36.4 25.9 L35.0 26.1 Q33.8 31.55 36.4 35.55 32.0 34.85 30.1 30.95 28.85 28.4 29.55 25.25 L28.3 24.55 Q28.15 23.15 28.75 22.1 L28.0 21.9 27.45 16.85 24.1 16.85 20.8 16.85 Q20.75 17.85 20.0 18.6 19.2 19.4 18.1 19.4 17.0 19.4 16.2 18.6 15.45 17.85 15.4 16.85 L-16.65 16.85 Q-16.7 17.85 -17.45 18.6 -18.25 19.4 -19.35 19.4 -20.45 19.4 -21.25 18.6 -22.0 17.85 -22.05 16.85 L-52.1 16.85 Q-52.15 17.85 -52.9 18.6 -53.7 19.4 -54.8 19.4 -55.9 19.4 -56.7 18.6 -57.45 17.85 -57.5 16.85 L-63.5 16.85 -63.85 20.95 -64.95 21.15 -65.85 21.3 -66.9 21.4 -68.35 21.55 Q-69.45 23.9 -70.8 26.05 -72.4 28.6 -74.5 31.0 -73.65 33.9 -76.45 34.75 L-78.6 34.2 Q-94.45 43.15 -104.15 32.85 -94.6 32.4 -86.7 25.5 -88.1 21.3 -84.0 21.3 L-83.1 20.3 -84.2 18.05 -87.55 17.95 -87.85 16.55 Q-101.8 13.7 -112.8 8.7 -101.25 3.25 -87.85 0.85 L-87.55 -0.6 Q-86.25 -1.4 -84.2 -0.6 L-83.15 -3.05 -84.0 -4.0 Q-88.1 -4.0 -86.7 -8.2 L-87.3 -8.75 Q-94.6 -15.1 -104.15 -15.55 -94.45 -25.85 -78.6 -16.9 L-76.45 -17.45 Q-73.65 -16.6 -74.5 -13.75 -72.4 -11.35 -70.8 -8.75 L-69.7 -6.9 -68.35 -4.35 -64.95 -4.1 -63.85 -3.95 -63.5 0.3 -57.5 0.3 Q-57.5 -0.8 -56.7 -1.55 -55.9 -2.35 -54.8 -2.35 -53.7 -2.35 -52.9 -1.55 -52.1 -0.8 -52.1 0.3 L-22.05 0.3 Q-22.05 -0.8 -21.25 -1.55 -20.45 -2.35 -19.35 -2.35 -18.25 -2.35 -17.45 -1.55 -16.65 -0.8 -16.65 0.3 L15.4 0.3 M28.55 -5.05 L28.95 -5.15 33.9 -5.4 37.35 -5.15 M35.0 -8.65 Q32.1 -8.9 29.55 -7.75 M27.45 0.3 Q27.05 4.85 27.05 9.2 L27.25 14.05 27.45 16.85 M15.45 9.15 L15.4 8.5 Q15.4 7.4 16.2 6.6 17.0 5.85 18.1 5.85 19.2 5.85 20.0 6.6 20.8 7.4 20.8 8.5 L20.7 9.2 Q20.55 9.9 20.0 10.4 19.2 11.2 18.1 11.2 17.0 11.2 16.2 10.4 15.65 9.9 15.45 9.15 M28.75 22.1 L33.9 22.6 37.95 22.05 M35.0 26.1 Q32.1 26.35 29.55 25.25 M20.8 16.85 L15.4 16.85 M-82.15 -14.95 Q-84.35 -13.15 -85.85 -10.2 L-86.5 -8.75 -86.7 -8.2 M-84.2 -0.6 L-84.1 -0.6 -84.1 7.65 -84.1 12.0 -84.1 17.95 -84.2 18.05 M-77.4 -11.6 L-80.45 -8.75 Q-82.55 -6.55 -84.0 -4.0 M-74.5 -13.75 L-77.4 -11.6 M-82.15 -14.95 Q-80.6 -16.2 -78.6 -16.9 M-16.7 8.95 Q-16.85 9.8 -17.45 10.4 -18.25 11.2 -19.35 11.2 -20.45 11.2 -21.25 10.4 -21.9 9.75 -22.05 8.95 L-22.05 8.5 Q-22.05 7.4 -21.25 6.6 -20.45 5.85 -19.35 5.85 -18.25 5.85 -17.45 6.6 -16.65 7.4 -16.65 8.5 L-16.7 8.95 M-52.1 8.75 Q-52.2 9.7 -52.9 10.4 -53.7 11.2 -54.8 11.2 -55.9 11.2 -56.7 10.4 -57.45 9.7 -57.5 8.7 L-57.5 8.5 Q-57.5 7.4 -56.7 6.6 -55.9 5.85 -54.8 5.85 -53.7 5.85 -52.9 6.6 -52.1 7.4 -52.1 8.5 L-52.1 8.75 M-66.85 8.6 L-66.4 16.85 -63.5 16.85 M-16.65 0.3 L-22.05 0.3 M-16.65 16.85 L-22.05 16.85 M-52.1 0.3 L-57.5 0.3 M-52.1 16.85 L-57.5 16.85 M-66.85 7.9 L-66.85 8.6 M-63.5 0.3 L-66.4 0.3 Q-66.8 4.15 -66.85 7.9 M-66.15 18.55 L-66.4 16.85 M-84.0 21.3 Q-82.55 23.8 -80.45 26.05 -77.9 28.7 -74.5 31.0 M-88.55 9.4 Q-88.45 13.05 -87.85 16.55 M-88.55 9.4 Q-88.6 5.2 -87.85 0.85 M-78.6 34.2 Q-83.25 32.6 -85.85 27.5 L-86.7 25.5 M-66.4 0.3 L-66.15 -1.4" fill="none" stroke="#000000" stroke-linecap="round" stroke-linejoin="round" stroke-opacity="0.5019608" stroke-width="1.0"/>
      <path d="M4.1 9.05 L4.95 9.6 7.75 10.6 M4.1 9.05 L2.05 7.05 Q3.9 3.65 8.0 3.4 M4.95 9.6 Q3.4 10.2 2.5 11.85 3.85 13.75 6.7 14.45 M-35.65 8.8 Q-36.8 9.65 -37.55 10.75 -35.7 14.15 -31.6 14.4 M-31.85 7.2 Q-33.4 7.55 -34.65 8.2 L-35.5 8.75 -35.65 8.8 M-34.65 8.2 Q-36.2 7.55 -37.1 5.95 -35.75 4.0 -32.9 3.35" fill="none" stroke="#000000" stroke-linecap="round" stroke-linejoin="round" stroke-opacity="0.2509804" stroke-width="1.0"/>
      <path d="M88.4 8.9 Q89.7 7.25 90.55 7.25 91.75 7.25 91.75 9.25 L91.8 12.05 93.05 14.45 Q93.75 15.75 93.75 17.1 L93.45 18.25 93.1 19.35 92.95 19.2 Q92.55 20.95 91.4 21.85 L90.65 22.35 Q89.0 23.15 85.6 23.15 74.55 23.15 70.1 18.7 L73.9 17.45 75.95 16.75 81.55 14.55 Q84.45 13.0 87.0 10.75 L88.4 8.9" fill="#8a3c14" fill-rule="evenodd" stroke="none"/>
      <path d="M88.4 8.9 L87.0 10.75 Q84.45 13.0 81.55 14.55 L75.95 16.75 73.9 17.45 77.5 14.3 Q82.95 10.1 88.4 8.9" fill="#662400" fill-rule="evenodd" stroke="none"/>
      <path d="M73.9 17.45 L70.1 18.7 Q74.55 23.15 85.6 23.15 89.0 23.15 90.65 22.35 L91.4 21.85 Q92.55 20.95 92.95 19.2 L93.1 19.35 93.45 18.25 93.75 17.1 Q93.75 15.75 93.05 14.45 L91.8 12.05 91.75 9.25 Q91.75 7.25 90.55 7.25 89.7 7.25 88.4 8.9 L87.0 10.75 Q84.45 13.0 81.55 14.55 L75.95 16.75 73.9 17.45 77.5 14.3 Q82.95 10.1 88.4 8.9" fill="none" stroke="#000000" stroke-linecap="round" stroke-linejoin="round" stroke-opacity="0.5019608" stroke-width="1.0"/>
      <path d="M-12.25 -52.2 L-8.65 -50.0 -9.2 -49.65 Q-10.7 -48.55 -11.6 -47.3 L-14.45 -42.8 Q-15.8 -40.25 -17.85 -33.9 -19.9 -27.65 -20.45 -24.65 -21.1 -21.2 -21.1 -16.1 L-20.95 -11.2 Q-20.75 -8.5 -20.25 -7.3 L-20.85 -7.4 -22.1 -7.95 -22.5 -8.3 -22.75 -10.75 -22.9 -16.0 Q-22.9 -21.5 -22.3 -25.2 -21.85 -28.45 -20.0 -35.15 -18.2 -42.0 -17.0 -44.75 L-14.45 -49.6 Q-13.65 -50.95 -12.35 -52.15 L-12.25 -52.2 M-52.6 -62.8 L-51.95 -62.8 -52.2 -62.15 Q-56.75 -51.2 -58.65 -39.15 L-59.95 -30.35 Q-60.95 -23.65 -62.05 -12.1 -63.2 -0.55 -61.9 8.5 -60.65 17.5 -59.85 20.5 L-58.8 24.35 Q-61.4 23.1 -62.1 19.5 -63.65 14.9 -64.45 9.9 -66.5 -3.45 -64.75 -17.0 L-62.85 -29.4 -61.35 -37.6 Q-59.25 -48.8 -54.1 -58.95 -52.6 -62.4 -52.6 -62.75 L-52.6 -62.8 M-49.5 26.4 L-49.1 26.2 Q-48.85 26.55 -48.75 27.3 L-48.85 27.2 -49.5 26.4 M-22.7 23.8 L-22.45 20.55 -22.7 20.5 -22.65 17.55 -20.6 17.85 Q-20.8 20.75 -21.1 22.0 L-21.9 23.15 -22.7 23.8 M-23.8 20.3 L-24.15 20.2 -24.6 19.95 -25.0 19.5 -25.25 19.0 -25.45 17.85 -25.45 17.7 -25.45 15.95 -25.35 12.05 -24.75 7.6 Q-24.25 4.65 -23.55 2.7 -22.5 -0.2 -21.35 0.2 L-21.35 0.3 -21.85 1.3 Q-22.65 3.1 -23.2 5.85 L-23.85 9.95 -23.95 13.6 -24.0 15.2 -23.95 17.35 -24.0 19.25 -23.8 20.3 M-15.45 -0.5 L-15.55 -4.1 Q-15.65 -6.6 -18.55 -7.05 L-18.75 -7.05 -18.8 -8.1 -16.2 -7.75 Q-12.95 -7.35 -12.8 -5.05 L-12.7 -0.8 -15.45 -0.5" fill="#bdbdbd" fill-rule="evenodd" stroke="none"/>
      <path d="M-8.65 -50.0 Q-7.25 -50.95 -7.25 -49.5 -7.25 -50.0 -9.8 -46.55 L-11.75 -43.65 -8.7 -45.2 -5.5 -46.85 Q-3.35 -47.6 -3.35 -46.15 -3.35 -44.6 -13.1 -41.15 L-14.1 -38.75 -17.45 -28.0 Q-18.75 -23.15 -18.95 -17.25 L-18.85 -9.3 -16.25 -9.4 -13.2 -9.0 -11.85 -7.95 Q-11.05 -7.1 -10.85 -5.8 L-10.8 -3.75 Q-10.8 -0.7 -10.95 -0.2 -11.4 1.2 -13.5 1.2 L-19.85 1.0 -20.3 1.9 -21.6 4.85 -22.15 7.3 -22.55 10.05 -22.65 15.3 -22.65 16.1 -21.1 15.95 Q-18.85 16.05 -19.0 18.2 L-18.85 22.1 Q-18.85 23.7 -19.95 24.8 -21.25 26.1 -23.9 26.6 L-27.35 26.85 -34.75 26.45 Q-34.8 27.2 -35.0 27.75 L-35.6 28.55 Q-36.15 29.05 -37.05 29.45 -39.05 30.2 -42.65 30.2 L-48.15 29.65 Q-50.05 29.1 -50.95 28.15 L-51.55 27.15 -52.9 27.25 -54.15 27.25 -56.55 27.4 Q-62.05 27.1 -64.25 21.35 L-64.85 19.5 Q-68.25 7.35 -67.95 -5.3 -67.7 -17.45 -65.55 -29.4 -63.7 -39.9 -60.2 -49.95 -58.6 -54.55 -56.6 -58.95 -54.2 -63.55 -53.45 -63.55 L-52.9 -63.3 -52.85 -63.25 -52.6 -62.8 -52.6 -62.75 Q-52.6 -62.4 -54.1 -58.95 -59.25 -48.8 -61.35 -37.6 L-62.85 -29.4 -64.75 -17.0 Q-66.5 -3.45 -64.45 9.9 -63.65 14.9 -62.1 19.5 -61.4 23.1 -58.8 24.35 -57.75 24.8 -56.45 24.9 L-54.15 24.95 -53.05 24.95 -51.65 24.6 Q-51.4 23.1 -50.6 23.1 -50.3 23.5 -50.2 24.4 L-50.2 24.45 -50.15 24.45 -49.85 25.6 -49.85 25.75 -49.6 26.25 -49.5 26.4 -48.85 27.2 -48.75 27.3 Q-48.1 27.8 -46.2 27.85 L-42.6 27.75 Q-38.3 27.75 -37.3 26.85 -37.1 26.65 -37.0 25.5 -37.2 23.9 -37.0 23.2 -36.7 22.1 -36.0 22.4 -35.35 22.7 -35.0 23.7 L-34.85 24.55 -34.8 24.55 -34.0 24.85 -28.35 24.6 -23.05 23.95 -22.7 23.8 -21.9 23.15 -21.1 22.0 Q-20.8 20.75 -20.6 17.85 L-22.65 17.55 -22.7 20.5 -22.7 20.8 -23.25 21.0 -23.8 20.3 -24.0 19.25 -23.95 17.35 -24.0 15.2 -23.95 13.6 -23.85 9.95 -23.2 5.85 Q-22.65 3.1 -21.85 1.3 L-21.35 0.3 Q-20.4 -1.35 -19.35 -1.05 L-19.25 -0.6 -19.35 -0.15 -19.0 -0.2 -15.45 -0.5 -12.7 -0.8 -12.8 -5.05 Q-12.95 -7.35 -16.2 -7.75 L-18.8 -8.1 -18.75 -7.05 -18.75 -6.55 Q-18.7 -6.3 -19.35 -6.3 -19.9 -6.3 -20.25 -7.3 -20.75 -8.5 -20.95 -11.2 L-21.1 -16.1 Q-21.1 -21.2 -20.45 -24.65 -19.9 -27.65 -17.85 -33.9 -15.8 -40.25 -14.45 -42.8 L-11.6 -47.3 Q-10.7 -48.55 -9.2 -49.65 L-8.65 -50.0" fill="#000000" fill-rule="evenodd" stroke="none"/>
      <path d="M-51.95 -62.8 Q-30.35 -62.6 -12.25 -52.2 L-12.35 -52.15 Q-13.65 -50.95 -14.45 -49.6 L-17.0 -44.75 Q-18.2 -42.0 -20.0 -35.15 -21.85 -28.45 -22.3 -25.2 -22.9 -21.5 -22.9 -16.0 L-22.75 -10.75 -22.5 -8.3 -22.1 -7.95 -20.85 -7.4 -20.25 -7.3 Q-19.9 -6.3 -19.35 -6.3 -18.7 -6.3 -18.75 -6.55 L-18.75 -7.05 -18.55 -7.05 Q-15.65 -6.6 -15.55 -4.1 L-15.45 -0.5 -19.0 -0.2 -19.35 -0.15 -19.25 -0.6 -19.35 -1.05 Q-20.4 -1.35 -21.35 0.3 L-21.35 0.2 Q-22.5 -0.2 -23.55 2.7 -24.25 4.65 -24.75 7.6 L-25.35 12.05 -25.45 15.95 -25.45 17.7 -25.45 17.85 -25.25 19.0 -25.0 19.5 -24.6 19.95 -24.15 20.2 -23.8 20.3 -23.25 21.0 -22.7 20.8 -22.7 20.5 -22.45 20.55 -22.7 23.8 -23.05 23.95 -28.35 24.6 -34.0 24.85 -34.8 24.55 -34.85 24.55 -35.0 23.7 Q-35.35 22.7 -36.0 22.4 -36.7 22.1 -37.0 23.2 -37.2 23.9 -37.0 25.5 -37.1 26.65 -37.3 26.85 -38.3 27.75 -42.6 27.75 L-46.2 27.85 Q-48.1 27.8 -48.75 27.3 -48.85 26.55 -49.1 26.2 L-49.5 26.4 -49.6 26.25 -49.85 25.75 -49.85 25.6 -50.15 24.45 -50.2 24.45 -50.2 24.4 Q-50.3 23.5 -50.6 23.1 -51.4 23.1 -51.65 24.6 L-53.05 24.95 -54.15 24.95 -56.45 24.9 Q-57.75 24.8 -58.8 24.35 L-59.85 20.5 Q-60.65 17.5 -61.9 8.5 -63.2 -0.55 -62.05 -12.1 -60.95 -23.65 -59.95 -30.35 L-58.65 -39.15 Q-56.75 -51.2 -52.2 -62.15 L-51.95 -62.8" fill="#999999" fill-rule="evenodd" stroke="none"/>
    </g>
    <linearGradient gradientTransform="matrix(0.0071, 0.0, 0.0, 0.0416, 86.65, 11.9)" gradientUnits="userSpaceOnUse" id="gradient0" spreadMethod="pad" x1="-819.2" x2="819.2">
      <stop offset="0.0" stop-color="#eb7000"/>
      <stop offset="1.0" stop-color="#ff9900"/>
    </linearGradient>
    <linearGradient gradientTransform="matrix(0.0141, 0.0049, 0.0157, -0.0451, 64.35, -27.25)" gradientUnits="userSpaceOnUse" id="gradient1" spreadMethod="pad" x1="-819.2" x2="819.2">
      <stop offset="0.0" stop-color="#ff9900"/>
      <stop offset="0.47058823529411764" stop-color="#ff6e00"/>
      <stop offset="1.0" stop-color="#ff9900"/>
    </linearGradient>
    <linearGradient gradientTransform="matrix(-0.0083, 0.0, 0.0, 0.0152, 22.6, -60.55)" gradientUnits="userSpaceOnUse" id="gradient2" spreadMethod="pad" x1="-819.2" x2="819.2">
      <stop offset="0.0" stop-color="#ff9900"/>
      <stop offset="1.0" stop-color="#ffcc00"/>
    </linearGradient>
    <linearGradient gradientTransform="matrix(-0.0387, -0.0104, -0.0026, 0.0098, 19.6, -57.4)" gradientUnits="userSpaceOnUse" id="gradient3" spreadMethod="pad" x1="-819.2" x2="819.2">
      <stop offset="0.0" stop-color="#f57500"/>
      <stop offset="0.9882352941176471" stop-color="#ff864f"/>
    </linearGradient>
    <linearGradient gradientTransform="matrix(-0.0301, -0.0081, -0.0022, 0.0082, 12.05, -39.85)" gradientUnits="userSpaceOnUse" id="gradient4" spreadMethod="pad" x1="-819.2" x2="819.2">
      <stop offset="0.0" stop-color="#f57500"/>
      <stop offset="0.9882352941176471" stop-color="#ff864f"/>
    </linearGradient>
    <linearGradient gradientTransform="matrix(-0.011, 0.0, 0.0, 0.0117, 19.35, -42.8)" gradientUnits="userSpaceOnUse" id="gradient5" spreadMethod="pad" x1="-819.2" x2="819.2">
      <stop offset="0.0" stop-color="#ff9900"/>
      <stop offset="1.0" stop-color="#ffcc00"/>
    </linearGradient>
    <linearGradient gradientTransform="matrix(-0.0059, 0.0, 0.0, 0.0136, 24.15, -26.8)" gradientUnits="userSpaceOnUse" id="gradient6" spreadMethod="pad" x1="-819.2" x2="819.2">
      <stop offset="0.0" stop-color="#ff9900"/>
      <stop offset="1.0" stop-color="#ffcc00"/>
    </linearGradient>
    <linearGradient gradientTransform="matrix(-0.0204, -0.0055, -0.0023, 0.0085, 22.65, -24.7)" gradientUnits="userSpaceOnUse" id="gradient7" spreadMethod="pad" x1="-819.2" x2="819.2">
      <stop offset="0.0" stop-color="#f57500"/>
      <stop offset="0.9882352941176471" stop-color="#ff864f"/>
    </linearGradient>
    <linearGradient gradientTransform="matrix(-0.0084, 0.0022, 0.0025, 0.0093, 28.95, -14.65)" gradientUnits="userSpaceOnUse" id="gradient8" spreadMethod="pad" x1="-819.2" x2="819.2">
      <stop offset="0.0" stop-color="#ff9900"/>
      <stop offset="1.0" stop-color="#ffcc00"/>
    </linearGradient>
    <linearGradient gradientTransform="matrix(-0.0166, -0.0044, -0.0016, 0.0059, 30.6, -14.3)" gradientUnits="userSpaceOnUse" id="gradient9" spreadMethod="pad" x1="-819.2" x2="819.2">
      <stop offset="0.0" stop-color="#f57500"/>
      <stop offset="0.9882352941176471" stop-color="#ff864f"/>
    </linearGradient>
    <linearGradient gradientTransform="matrix(-0.0028, -0.0028, -0.0043, 0.0043, 67.3, -42.05)" gradientUnits="userSpaceOnUse" id="gradient10" spreadMethod="pad" x1="-819.2" x2="819.2">
      <stop offset="0.0" stop-color="#ff9900"/>
      <stop offset="1.0" stop-color="#ff3d00"/>
    </linearGradient>
    <linearGradient gradientTransform="matrix(-0.005, -0.0029, -0.0038, 0.0067, 56.85, -34.85)" gradientUnits="userSpaceOnUse" id="gradient11" spreadMethod="pad" x1="-819.2" x2="819.2">
      <stop offset="0.0" stop-color="#ff9900"/>
      <stop offset="1.0" stop-color="#ff3d00"/>
    </linearGradient>
    <linearGradient gradientTransform="matrix(-0.0039, -0.0011, -0.0014, 0.0051, 56.45, -24.3)" gradientUnits="userSpaceOnUse" id="gradient12" spreadMethod="pad" x1="-819.2" x2="819.2">
      <stop offset="0.0" stop-color="#ff9900"/>
      <stop offset="1.0" stop-color="#ff3d00"/>
    </linearGradient>
    <linearGradient gradientTransform="matrix(-0.0034, 9.0E-4, 8.0E-4, 0.003, 62.25, -3.4)" gradientUnits="userSpaceOnUse" id="gradient13" spreadMethod="pad" x1="-819.2" x2="819.2">
      <stop offset="0.0" stop-color="#ff9900"/>
      <stop offset="1.0" stop-color="#ff3d00"/>
    </linearGradient>
    <linearGradient gradientTransform="matrix(-0.0057, 0.0015, 0.0013, 0.005, 56.7, -11.8)" gradientUnits="userSpaceOnUse" id="gradient14" spreadMethod="pad" x1="-819.2" x2="819.2">
      <stop offset="0.0" stop-color="#ff9900"/>
      <stop offset="1.0" stop-color="#ff3d00"/>
    </linearGradient>
    <linearGradient gradientTransform="matrix(0.0141, -0.0049, 0.0157, 0.0451, 64.35, 45.0)" gradientUnits="userSpaceOnUse" id="gradient15" spreadMethod="pad" x1="-819.2" x2="819.2">
      <stop offset="0.0" stop-color="#ff9900"/>
      <stop offset="0.47058823529411764" stop-color="#ff6e00"/>
      <stop offset="1.0" stop-color="#ff9900"/>
    </linearGradient>
    <linearGradient gradientTransform="matrix(-0.0057, -0.0015, 0.0013, -0.005, 56.7, 29.55)" gradientUnits="userSpaceOnUse" id="gradient16" spreadMethod="pad" x1="-819.2" x2="819.2">
      <stop offset="0.0" stop-color="#ff9900"/>
      <stop offset="1.0" stop-color="#ff3d00"/>
    </linearGradient>
    <linearGradient gradientTransform="matrix(-0.0034, -9.0E-4, 8.0E-4, -0.003, 62.25, 21.15)" gradientUnits="userSpaceOnUse" id="gradient17" spreadMethod="pad" x1="-819.2" x2="819.2">
      <stop offset="0.0" stop-color="#ff9900"/>
      <stop offset="1.0" stop-color="#ff3d00"/>
    </linearGradient>
    <linearGradient gradientTransform="matrix(-0.0084, -0.0022, 0.0025, -0.0093, 28.95, 32.4)" gradientUnits="userSpaceOnUse" id="gradient18" spreadMethod="pad" x1="-819.2" x2="819.2">
      <stop offset="0.0" stop-color="#ff9900"/>
      <stop offset="1.0" stop-color="#ffcc00"/>
    </linearGradient>
    <linearGradient gradientTransform="matrix(-0.0166, 0.0044, -0.0016, -0.0059, 30.6, 32.05)" gradientUnits="userSpaceOnUse" id="gradient19" spreadMethod="pad" x1="-819.2" x2="819.2">
      <stop offset="0.0" stop-color="#f57500"/>
      <stop offset="0.9882352941176471" stop-color="#ff864f"/>
    </linearGradient>
    <linearGradient gradientTransform="matrix(-0.005, 0.0029, -0.0038, -0.0067, 56.85, 52.6)" gradientUnits="userSpaceOnUse" id="gradient20" spreadMethod="pad" x1="-819.2" x2="819.2">
      <stop offset="0.0" stop-color="#ff9900"/>
      <stop offset="1.0" stop-color="#ff3d00"/>
    </linearGradient>
    <linearGradient gradientTransform="matrix(-0.0039, 0.0011, -0.0014, -0.0051, 56.45, 42.05)" gradientUnits="userSpaceOnUse" id="gradient21" spreadMethod="pad" x1="-819.2" x2="819.2">
      <stop offset="0.0" stop-color="#ff9900"/>
      <stop offset="1.0" stop-color="#ff3d00"/>
    </linearGradient>
    <linearGradient gradientTransform="matrix(-0.0059, 0.0, 0.0, -0.0136, 24.15, 44.55)" gradientUnits="userSpaceOnUse" id="gradient22" spreadMethod="pad" x1="-819.2" x2="819.2">
      <stop offset="0.0" stop-color="#ff9900"/>
      <stop offset="1.0" stop-color="#ffcc00"/>
    </linearGradient>
    <linearGradient gradientTransform="matrix(-0.0204, 0.0055, -0.0023, -0.0085, 22.65, 42.45)" gradientUnits="userSpaceOnUse" id="gradient23" spreadMethod="pad" x1="-819.2" x2="819.2">
      <stop offset="0.0" stop-color="#f57500"/>
      <stop offset="0.9882352941176471" stop-color="#ff864f"/>
    </linearGradient>
    <linearGradient gradientTransform="matrix(-0.0301, 0.0081, -0.0022, -0.0082, 12.05, 57.6)" gradientUnits="userSpaceOnUse" id="gradient24" spreadMethod="pad" x1="-819.2" x2="819.2">
      <stop offset="0.0" stop-color="#f57500"/>
      <stop offset="0.9882352941176471" stop-color="#ff864f"/>
    </linearGradient>
    <linearGradient gradientTransform="matrix(-0.011, 0.0, 0.0, -0.0117, 19.35, 60.55)" gradientUnits="userSpaceOnUse" id="gradient25" spreadMethod="pad" x1="-819.2" x2="819.2">
      <stop offset="0.0" stop-color="#ff9900"/>
      <stop offset="1.0" stop-color="#ffcc00"/>
    </linearGradient>
    <linearGradient gradientTransform="matrix(-0.0387, 0.0104, -0.0026, -0.0098, 19.6, 75.15)" gradientUnits="userSpaceOnUse" id="gradient26" spreadMethod="pad" x1="-819.2" x2="819.2">
      <stop offset="0.0" stop-color="#f57500"/>
      <stop offset="0.9882352941176471" stop-color="#ff864f"/>
    </linearGradient>
    <linearGradient gradientTransform="matrix(-0.0083, 0.0, 0.0, -0.0152, 22.6, 78.3)" gradientUnits="userSpaceOnUse" id="gradient27" spreadMethod="pad" x1="-819.2" x2="819.2">
      <stop offset="0.0" stop-color="#ff9900"/>
      <stop offset="1.0" stop-color="#ffcc00"/>
    </linearGradient>
    <linearGradient gradientTransform="matrix(-0.0028, 0.0028, -0.0043, -0.0043, 67.3, 59.85)" gradientUnits="userSpaceOnUse" id="gradient28" spreadMethod="pad" x1="-819.2" x2="819.2">
      <stop offset="0.0" stop-color="#ff9900"/>
      <stop offset="1.0" stop-color="#ff3d00"/>
    </linearGradient>
    <linearGradient gradientTransform="matrix(0.0, 0.0078, -0.0156, 0.0, -91.4, -14.65)" gradientUnits="userSpaceOnUse" id="gradient29" spreadMethod="pad" x1="-819.2" x2="819.2">
      <stop offset="0.0" stop-color="#fff2bf"/>
      <stop offset="1.0" stop-color="#ccb27e"/>
    </linearGradient>
    <linearGradient gradientTransform="matrix(0.0096, 0.0, 0.0, 0.0152, -93.6, 9.0)" gradientUnits="userSpaceOnUse" id="gradient30" spreadMethod="pad" x1="-819.2" x2="819.2">
      <stop offset="0.0" stop-color="#fff2bf"/>
      <stop offset="1.0" stop-color="#ccb27e"/>
    </linearGradient>
    <linearGradient gradientTransform="matrix(0.0076, -0.002, 0.004, 0.0151, -84.55, 31.3)" gradientUnits="userSpaceOnUse" id="gradient31" spreadMethod="pad" x1="-819.2" x2="819.2">
      <stop offset="0.0" stop-color="#fff2bf"/>
      <stop offset="1.0" stop-color="#ccb27e"/>
    </linearGradient>
  </defs>
</svg>
