<?xml version="1.0" encoding="UTF-8" standalone="no"?>
<svg xmlns:xlink="http://www.w3.org/1999/xlink" height="531.5px" width="460.6px" xmlns="http://www.w3.org/2000/svg">
  <g transform="matrix(1.0, 0.0, 0.0, 1.0, 193.65, 334.05)">
    <use height="225.45" transform="matrix(1.0, 0.0, 0.0, 1.0, 29.5, -162.25)" width="100.95" xlink:href="#shape0"/>
    <use height="0.0" transform="matrix(0.0298, 1.1321, -1.1321, 0.0298, 94.15, -50.0)" width="0.0" xlink:href="#sprite0"/>
    <use height="71.4" transform="matrix(1.0, 0.0, 0.0, 1.0, -62.85, -74.8)" width="246.25" xlink:href="#shape1"/>
  </g>
  <defs>
    <g id="shape0" transform="matrix(1.0, 0.0, 0.0, 1.0, -29.5, 162.25)">
      <path d="M68.45 -147.4 L69.4 -147.0 Q69.7 -146.7 69.7 -145.7 69.7 -143.1 52.05 -107.45 40.3 -83.75 31.4 -66.65 L29.5 -66.55 34.8 -78.15 46.1 -101.45 Q49.75 -109.1 56.6 -124.85 62.95 -138.65 68.45 -147.4 M37.65 -19.9 L39.9 -19.5 54.6 5.05 Q67.8 27.15 76.4 43.6 L75.95 43.85 75.25 44.2 51.7 5.35 Q43.4 -8.6 37.65 -19.9" fill="#33281e" fill-rule="evenodd" stroke="none"/>
      <path d="M100.25 -100.55 Q97.85 -104.9 97.05 -110.75 95.8 -119.55 91.0 -126.7 88.15 -130.65 84.2 -133.9 80.95 -136.6 74.8 -140.4 67.7 -144.75 64.95 -146.85 61.85 -148.8 60.1 -150.4 L60.75 -152.25 61.6 -154.15 62.4 -155.15 Q66.4 -159.15 70.0 -160.7 L70.1 -160.7 73.8 -161.1 Q76.4 -161.1 78.95 -159.5 81.65 -157.8 81.7 -155.35 81.75 -154.35 78.8 -150.95 L78.05 -150.15 74.55 -147.65 74.05 -145.2 Q74.4 -144.95 74.7 -144.9 83.0 -141.05 88.75 -135.55 95.5 -129.05 98.75 -120.2 101.55 -106.65 103.55 -102.7 101.4 -102.25 100.25 -100.55 M72.65 -152.55 L75.4 -152.3 74.75 -156.8 70.2 -152.7 74.55 -147.65 70.2 -152.7 74.75 -156.8 75.4 -152.3 72.65 -152.55 M106.2 2.3 Q104.5 6.3 102.45 20.0 101.3 23.9 99.35 27.35 L99.35 27.4 98.6 28.4 94.25 33.65 Q90.7 37.4 87.8 39.2 L81.9 42.95 Q77.6 45.35 77.7 46.95 77.65 47.8 79.5 48.9 L79.65 48.65 82.0 50.1 Q83.9 51.1 85.25 52.3 L86.1 53.5 Q86.65 54.85 86.65 56.75 86.75 58.5 84.2 60.0 82.05 61.15 80.25 61.25 78.75 61.25 73.75 59.25 L69.05 57.55 Q68.6 57.05 67.95 56.65 L67.15 55.8 Q66.0 53.8 65.55 52.1 65.25 50.75 65.35 49.55 65.7 48.25 69.1 45.85 76.1 43.8 81.75 39.6 84.05 38.0 89.55 33.1 91.95 30.9 94.2 26.4 95.8 23.55 96.8 20.7 97.55 18.1 97.8 14.7 L98.0 9.1 Q98.05 6.75 99.05 4.2 100.35 0.95 102.1 0.9 L103.8 1.1 Q104.75 2.0 106.2 2.3 M78.1 53.35 L80.85 53.0 80.4 57.65 75.7 53.7 79.5 48.9 75.7 53.7 80.4 57.65 80.85 53.0 78.1 53.35" fill="#802f0b" fill-rule="evenodd" stroke="none"/>
      <path d="M60.1 -150.4 Q61.85 -148.8 64.95 -146.85 67.7 -144.75 74.8 -140.4 80.95 -136.6 84.2 -133.9 88.15 -130.65 91.0 -126.7 95.8 -119.55 97.05 -110.75 97.85 -104.9 100.25 -100.55 L99.8 -99.6 99.2 -97.4 Q94.7 -102.1 93.2 -115.85 88.75 -132.3 67.1 -141.05 65.15 -141.85 63.9 -142.65 61.35 -144.3 60.55 -146.35 59.55 -147.85 60.1 -150.4 M65.7 48.05 Q66.4 45.95 68.8 44.2 70.1 43.3 71.9 42.5 93.05 32.55 96.6 15.85 97.5 2.1 101.7 -2.95 101.9 -1.75 102.4 -0.9 L102.35 -0.65 103.8 1.1 102.1 0.9 Q100.35 0.95 99.05 4.2 98.05 6.75 98.0 9.1 L97.8 14.7 Q97.55 18.1 96.8 20.7 95.8 23.55 94.2 26.4 91.95 30.9 89.55 33.1 84.05 38.0 81.75 39.6 76.1 43.8 69.1 45.85 65.7 48.25 65.35 49.55 L65.7 48.05" fill="#612307" fill-rule="evenodd" stroke="none"/>
      <path d="M100.25 -100.55 Q101.4 -102.25 103.55 -102.7 L106.2 -102.95 Q108.65 -102.15 110.9 -100.25 L117.3 -93.5 Q119.9 -90.6 122.6 -89.1 125.45 -87.5 126.15 -85.35 L126.85 -83.85 Q125.35 -81.25 122.5 -77.95 L122.15 -77.75 120.65 -77.25 120.15 -77.15 117.65 -76.75 Q113.85 -76.65 109.75 -80.95 106.8 -83.8 104.6 -87.7 L102.65 -91.55 Q101.0 -94.85 100.9 -95.35 L100.1 -98.4 99.8 -99.6 100.25 -100.55 M124.9 -22.45 L127.1 -19.95 127.6 -18.65 Q128.25 -17.05 127.95 -16.0 127.55 -14.9 123.6 -11.85 119.7 -8.75 118.1 -6.3 L114.85 -2.0 Q113.4 -0.15 112.0 0.6 L108.45 2.05 107.85 2.35 106.2 2.3 Q104.75 2.0 103.8 1.1 L102.35 -0.65 102.4 -0.9 103.55 -3.0 104.85 -5.5 106.4 -9.0 108.35 -12.95 Q112.65 -23.35 120.75 -23.6 L120.85 -23.55 121.75 -23.65 123.55 -23.05 124.9 -22.45" fill="#663300" fill-rule="evenodd" stroke="none"/>
      <path d="M106.2 -102.95 L110.65 -102.15 124.05 -91.1 Q126.7 -88.7 127.95 -85.9 L126.85 -83.85 126.15 -85.35 Q125.45 -87.5 122.6 -89.1 119.9 -90.6 117.3 -93.5 L110.9 -100.25 Q108.65 -102.15 106.2 -102.95 M127.1 -19.95 Q128.9 -17.7 129.7 -15.9 128.7 -13.0 126.2 -10.5 L113.45 1.25 Q110.1 2.3 107.85 2.35 L108.45 2.05 112.0 0.6 Q113.4 -0.15 114.85 -2.0 L118.1 -6.3 Q119.7 -8.75 123.6 -11.85 127.55 -14.9 127.95 -16.0 128.25 -17.05 127.6 -18.65 L127.1 -19.95" fill="#a66829" fill-rule="evenodd" stroke="none"/>
      <path d="M63.9 61.0 L63.65 61.05 Q59.0 53.6 65.7 48.05 L65.35 49.55 Q65.25 50.75 65.55 52.1 64.65 53.55 64.15 55.2 63.45 57.15 63.5 58.8 L63.7 60.05 63.9 61.0 M60.55 -146.35 Q53.7 -151.55 57.9 -159.35 L58.05 -159.15 Q58.2 -156.15 60.75 -152.25 L60.1 -150.4 Q59.55 -147.85 60.55 -146.35" fill="#999999" fill-rule="evenodd" stroke="none"/>
      <path d="M67.95 56.65 Q66.6 59.25 63.9 61.0 L63.7 60.05 63.5 58.8 Q63.45 57.15 64.15 55.2 64.65 53.55 65.55 52.1 66.0 53.8 67.15 55.8 L67.95 56.65 M58.05 -159.15 Q60.95 -157.65 62.4 -155.15 L61.6 -154.15 60.75 -152.25 Q58.2 -156.15 58.05 -159.15" fill="#cccccc" fill-rule="evenodd" stroke="none"/>
      <path d="M99.35 27.4 Q93.1 39.0 79.2 46.1 L79.65 48.65 79.5 48.9 Q77.65 47.8 77.7 46.95 77.6 45.35 81.9 42.95 L87.8 39.2 Q90.7 37.4 94.25 33.65 L98.6 28.4 99.35 27.4 M85.25 52.3 Q90.15 55.9 88.7 57.7 80.0 67.3 69.05 57.55 L73.75 59.25 Q78.75 61.25 80.25 61.25 82.05 61.15 84.2 60.0 86.75 58.5 86.65 56.75 86.65 54.85 86.1 53.5 L85.25 52.3 M70.0 -160.7 Q76.85 -163.35 83.0 -157.35 84.85 -155.2 78.05 -150.15 L78.8 -150.95 Q81.75 -154.35 81.7 -155.35 81.65 -157.8 78.95 -159.5 76.4 -161.1 73.8 -161.1 L70.1 -160.7 70.0 -160.7" fill="#b55c38" fill-rule="evenodd" stroke="none"/>
      <path d="M122.5 -77.95 L122.6 -77.65 Q125.75 -71.9 127.4 -65.75 128.8 -60.6 129.2 -55.05 L129.35 -51.7 129.25 -50.45 129.35 -50.05 Q129.5 -46.75 129.25 -43.35 L128.8 -39.75 Q128.25 -34.9 126.7 -30.25 125.55 -26.9 123.85 -23.5 L122.5 -24.85 123.5 -26.7 Q124.6 -28.55 124.5 -29.95 L124.35 -30.95 124.5 -31.1 Q126.25 -32.35 127.5 -38.5 127.5 -39.3 127.1 -39.55 L126.85 -39.65 127.25 -40.35 127.55 -41.95 127.5 -43.0 127.05 -43.5 126.5 -43.7 Q128.05 -44.45 128.4 -45.5 L128.45 -48.15 Q128.4 -50.55 128.0 -52.3 127.55 -54.45 126.95 -54.8 L126.7 -54.8 Q127.6 -55.3 127.9 -56.05 L127.9 -58.05 Q127.75 -60.55 127.15 -62.55 126.3 -64.85 124.85 -65.6 L124.75 -65.7 125.5 -66.15 125.5 -66.9 Q125.5 -69.05 123.8 -72.55 122.4 -75.5 121.0 -76.4 L122.15 -77.75 122.5 -77.95 M127.4 -65.75 L124.85 -65.6 127.4 -65.75 M129.2 -55.05 L126.95 -54.8 129.2 -55.05 M129.25 -43.35 L127.05 -43.5 129.25 -43.35 M128.8 -39.75 L127.1 -39.55 128.8 -39.75 M126.7 -30.25 L124.5 -31.1 126.7 -30.25" fill="#ffebc2" fill-rule="evenodd" stroke="none"/>
      <path d="M121.0 -76.4 Q122.4 -75.5 123.8 -72.55 125.5 -69.05 125.5 -66.9 L125.5 -66.15 124.75 -65.7 124.85 -65.6 Q126.3 -64.85 127.15 -62.55 127.75 -60.55 127.9 -58.05 L127.9 -56.05 Q127.6 -55.3 126.7 -54.8 L126.95 -54.8 126.65 -54.75 126.95 -54.8 Q127.55 -54.45 128.0 -52.3 128.4 -50.55 128.45 -48.15 L128.4 -45.5 Q128.05 -44.45 126.5 -43.7 L127.05 -43.5 122.1 -43.5 127.05 -43.5 127.5 -43.0 127.55 -41.95 127.25 -40.35 126.85 -39.65 127.1 -39.55 Q127.5 -39.3 127.5 -38.5 126.25 -32.35 124.5 -31.1 L120.25 -32.6 124.5 -31.1 124.35 -30.95 124.5 -29.95 Q124.6 -28.55 123.5 -26.7 L122.5 -24.85 119.95 -27.1 119.9 -28.2 Q119.85 -30.25 120.25 -32.6 120.45 -34.7 121.0 -37.15 L121.4 -38.7 126.85 -39.45 127.1 -39.55 126.85 -39.45 121.4 -38.7 Q122.05 -41.45 122.1 -43.5 L122.15 -45.0 Q122.15 -48.65 121.1 -53.95 L124.9 -54.5 126.65 -54.75 124.9 -54.5 120.95 -54.9 120.65 -56.5 Q119.55 -61.75 119.15 -65.2 L119.1 -67.3 Q119.1 -70.05 119.5 -72.5 L119.85 -75.05 121.0 -76.4 M126.65 -54.75 L126.7 -54.8 126.55 -54.75 126.65 -54.75 M124.85 -65.6 L119.15 -65.2 124.85 -65.6 M126.6 -39.5 L126.85 -39.45 126.85 -39.65 126.6 -39.5" fill="#ffdf9e" fill-rule="evenodd" stroke="none"/>
      <path d="M123.85 -23.5 L124.9 -22.45 123.55 -23.05 121.75 -23.65 120.85 -23.55 120.75 -23.6 Q112.65 -23.35 108.35 -12.95 L106.4 -9.0 104.85 -5.5 103.55 -3.0 102.4 -0.9 Q101.9 -1.75 101.7 -2.95 101.6 -3.05 101.65 -3.25 106.8 -19.2 111.85 -26.15 114.0 -29.25 115.6 -29.9 116.45 -30.2 117.1 -29.9 L119.95 -27.1 122.5 -24.85 123.85 -23.5 M114.45 -71.15 Q112.9 -71.65 110.65 -74.6 105.1 -81.35 99.15 -96.9 L99.2 -97.4 99.8 -99.6 100.1 -98.4 100.9 -95.35 Q101.0 -94.85 102.65 -91.55 L104.6 -87.7 Q106.8 -83.8 109.75 -80.95 113.85 -76.65 117.65 -76.75 L120.15 -77.15 120.65 -77.25 122.15 -77.75 121.0 -76.4 119.85 -75.05 116.0 -71.3 114.45 -71.15" fill="#4d2600" fill-rule="evenodd" stroke="none"/>
      <path d="M115.6 -29.9 Q116.5 -31.8 117.0 -33.85 L118.15 -38.25 118.85 -43.5 118.9 -49.8 118.85 -50.5 118.85 -51.5 118.8 -53.55 118.7 -55.1 Q118.25 -60.5 116.85 -65.15 115.95 -68.35 114.45 -71.15 L116.0 -71.3 119.85 -75.05 119.5 -72.5 Q119.1 -70.05 119.1 -67.3 L119.15 -65.2 116.85 -65.15 119.15 -65.2 Q119.55 -61.75 120.65 -56.5 L120.95 -54.9 124.9 -54.5 121.1 -53.95 Q122.15 -48.65 122.15 -45.0 L122.1 -43.5 Q122.05 -41.45 121.4 -38.7 L118.15 -38.25 121.4 -38.7 121.0 -37.15 Q120.45 -34.7 120.25 -32.6 119.85 -30.25 119.9 -28.2 L119.95 -27.1 117.1 -29.9 Q116.45 -30.2 115.6 -29.9 M118.7 -55.1 L120.95 -54.9 118.7 -55.1 M118.8 -53.55 L121.1 -53.95 118.8 -53.55 M118.85 -43.5 L122.1 -43.5 118.85 -43.5 M117.0 -33.85 L120.25 -32.6 117.0 -33.85" fill="#d9b775" fill-rule="evenodd" stroke="none"/>
      <path d="M100.25 -100.55 Q101.4 -102.25 103.55 -102.7 101.55 -106.65 98.75 -120.2 95.5 -129.05 88.75 -135.55 83.0 -141.05 74.7 -144.9 74.4 -144.95 74.05 -145.2 L74.55 -147.65 70.2 -152.7 74.75 -156.8 75.4 -152.3 72.65 -152.55 M99.8 -99.6 L100.25 -100.55 M103.55 -102.7 L106.2 -102.95 110.65 -102.15 124.05 -91.1 Q126.7 -88.7 127.95 -85.9 L126.85 -83.85 Q125.35 -81.25 122.5 -77.95 L122.6 -77.65 Q125.75 -71.9 127.4 -65.75 128.8 -60.6 129.2 -55.05 L129.35 -51.7 129.25 -50.45 129.35 -50.05 Q129.5 -46.75 129.25 -43.35 L128.8 -39.75 Q128.25 -34.9 126.7 -30.25 125.55 -26.9 123.85 -23.5 L124.9 -22.45 127.1 -19.95 Q128.9 -17.7 129.7 -15.9 128.7 -13.0 126.2 -10.5 L113.45 1.25 Q110.1 2.3 107.85 2.35 L106.2 2.3 Q104.5 6.3 102.45 20.0 101.3 23.9 99.35 27.35 L99.35 27.4 Q93.1 39.0 79.2 46.1 L79.65 48.65 82.0 50.1 Q83.9 51.1 85.25 52.3 90.15 55.9 88.7 57.7 80.0 67.3 69.05 57.55 68.6 57.05 67.95 56.65 66.6 59.25 63.9 61.0 L63.65 61.05 Q59.0 53.6 65.7 48.05 66.4 45.95 68.8 44.2 70.1 43.3 71.9 42.5 93.05 32.55 96.6 15.85 97.5 2.1 101.7 -2.95 101.6 -3.05 101.65 -3.25 106.8 -19.2 111.85 -26.15 114.0 -29.25 115.6 -29.9 116.5 -31.8 117.0 -33.85 L118.15 -38.25 118.85 -43.5 118.9 -49.8 118.85 -50.5 118.85 -51.5 118.8 -53.55 118.7 -55.1 Q118.25 -60.5 116.85 -65.15 115.95 -68.35 114.45 -71.15 112.9 -71.65 110.65 -74.6 105.1 -81.35 99.15 -96.9 L99.2 -97.4 Q94.7 -102.1 93.2 -115.85 88.75 -132.3 67.1 -141.05 65.15 -141.85 63.9 -142.65 61.35 -144.3 60.55 -146.35 53.7 -151.55 57.9 -159.35 L58.05 -159.15 Q60.95 -157.65 62.4 -155.15 66.4 -159.15 70.0 -160.7 76.85 -163.35 83.0 -157.35 84.85 -155.2 78.05 -150.15 L74.55 -147.65 M62.4 -155.15 L61.6 -154.15 60.75 -152.25 60.1 -150.4 Q59.55 -147.85 60.55 -146.35 M122.5 -77.95 L122.15 -77.75 121.0 -76.4 119.85 -75.05 116.0 -71.3 114.45 -71.15 M99.8 -99.6 L99.2 -97.4 M115.6 -29.9 Q116.45 -30.2 117.1 -29.9 L119.95 -27.1 122.5 -24.85 123.85 -23.5 M102.35 -0.65 L103.8 1.1 Q104.75 2.0 106.2 2.3 M102.4 -0.9 Q101.9 -1.75 101.7 -2.95 M65.35 49.55 Q65.25 50.75 65.55 52.1 66.0 53.8 67.15 55.8 L67.95 56.65 M79.5 48.9 L79.65 48.65 M79.5 48.9 L75.7 53.7 80.4 57.65 80.85 53.0 78.1 53.35 M65.35 49.55 L65.7 48.05" fill="none" stroke="#000000" stroke-linecap="round" stroke-linejoin="round" stroke-opacity="0.6627451" stroke-width="1.5"/>
      <path d="M124.85 -65.6 L127.4 -65.75 M126.95 -54.8 L129.2 -55.05 M126.65 -54.75 L126.95 -54.8 M127.05 -43.5 L129.25 -43.35 M126.65 -54.75 L124.9 -54.5 121.1 -53.95 118.8 -53.55 M122.1 -43.5 L127.05 -43.5 M127.1 -39.55 L128.8 -39.75 M119.15 -65.2 L124.85 -65.6 M119.15 -65.2 L116.85 -65.15 M120.95 -54.9 L118.7 -55.1 M120.95 -54.9 L124.9 -54.5 M118.15 -38.25 L121.4 -38.7 126.85 -39.45 127.1 -39.55 M122.1 -43.5 L118.85 -43.5 M120.25 -32.6 L124.5 -31.1 126.7 -30.25 M120.25 -32.6 L117.0 -33.85" fill="none" stroke="#000000" stroke-linecap="round" stroke-linejoin="round" stroke-opacity="0.6627451" stroke-width="0.7000000000000001"/>
    </g>
    <g id="shape1" transform="matrix(1.0, 0.0, 0.0, 1.0, 62.85, 74.8)">
      <path d="M138.8 -64.95 L139.4 -63.85 140.45 -61.15 Q141.3 -58.35 141.3 -56.2 L141.15 -54.75 141.2 -54.1 140.25 -51.5 140.15 -51.05 140.25 -51.0 Q140.3 -50.75 140.6 -50.65 L140.65 -50.65 Q141.8 -49.85 142.2 -47.55 142.55 -45.8 142.4 -43.9 142.4 -40.75 140.7 -38.95 139.7 -37.85 138.05 -37.1 L138.6 -36.25 Q138.9 -35.5 138.9 -33.95 138.9 -25.95 135.7 -23.5 133.25 -21.65 125.9 -21.65 123.75 -21.65 119.2 -23.25 L118.8 -23.4 117.8 -23.5 117.65 -23.4 Q116.6 -21.85 108.55 -21.85 101.95 -21.85 97.1 -26.7 95.5 -28.3 94.45 -32.7 L93.0 -39.2 Q92.7 -40.9 92.7 -44.6 L92.7 -48.5 Q92.8 -50.1 93.55 -52.8 94.2 -55.25 97.25 -57.95 99.55 -60.0 100.7 -60.2 L100.7 -60.3 Q101.3 -65.1 103.25 -69.6 L104.0 -71.3 104.9 -72.35 Q108.45 -74.85 112.9 -74.65 L114.4 -74.75 118.65 -74.75 120.4 -74.75 Q125.05 -74.7 127.7 -71.8 129.6 -69.75 129.65 -67.7 134.8 -67.85 136.55 -66.8 138.25 -65.75 138.8 -64.95 M137.15 -51.75 Q138.4 -52.45 139.05 -53.35 L139.8 -54.55 140.05 -55.9 139.95 -57.15 139.0 -61.3 138.5 -63.0 Q138.0 -64.4 135.95 -65.35 L135.05 -65.75 130.9 -66.4 122.3 -65.45 Q117.85 -64.3 115.95 -63.4 L115.6 -63.2 Q113.7 -62.25 113.05 -61.0 112.4 -59.8 112.1 -58.65 111.45 -55.55 112.05 -53.05 112.1 -52.45 112.25 -52.2 112.45 -51.4 113.1 -51.0 113.55 -50.65 114.95 -50.35 L115.7 -50.25 116.3 -50.15 116.45 -50.1 Q125.15 -49.45 132.15 -50.45 135.05 -50.8 136.45 -51.45 L137.15 -51.75 M126.1 -67.45 L127.6 -67.6 127.55 -67.7 126.6 -69.75 Q125.4 -71.7 122.6 -72.35 L119.0 -72.75 114.4 -72.7 Q107.95 -72.95 106.5 -71.45 105.0 -69.95 104.9 -69.5 103.35 -66.55 102.65 -63.25 L101.95 -60.3 101.4 -58.5 101.15 -58.15 100.75 -59.15 99.65 -58.05 97.55 -56.05 Q95.5 -53.85 95.0 -52.15 94.25 -49.7 94.15 -48.1 L94.2 -44.55 Q94.2 -41.65 94.65 -39.2 95.0 -37.25 96.05 -33.4 L96.8 -30.65 Q97.45 -28.9 98.4 -27.85 99.75 -26.45 102.05 -25.25 105.2 -23.6 108.5 -23.55 L108.7 -23.55 112.9 -23.65 114.3 -23.8 116.2 -24.35 112.9 -26.0 110.2 -27.85 Q109.65 -28.5 109.65 -30.05 109.65 -32.05 110.5 -35.0 L111.3 -36.5 111.8 -37.2 111.2 -37.35 109.25 -36.2 Q106.55 -34.75 105.15 -34.75 L103.55 -35.2 Q103.85 -35.7 108.1 -37.25 L109.3 -38.0 Q107.85 -38.55 106.9 -39.2 105.2 -40.35 104.9 -41.95 104.75 -42.8 104.95 -44.0 104.85 -47.05 105.8 -49.4 107.1 -52.45 109.9 -52.05 L109.9 -52.75 110.0 -56.1 108.8 -56.7 106.9 -57.8 Q107.4 -58.95 109.85 -58.4 L110.2 -58.3 Q110.4 -60.05 110.8 -60.9 112.4 -64.25 117.35 -65.9 L122.15 -67.0 126.1 -67.45 M111.35 -49.0 Q110.85 -49.2 110.55 -49.6 L110.4 -49.9 109.7 -50.1 Q108.8 -50.25 107.8 -49.15 L106.95 -47.8 Q106.8 -47.25 106.8 -45.05 106.8 -43.1 107.05 -42.45 107.65 -40.9 109.85 -39.95 L110.6 -39.7 115.05 -38.75 124.15 -37.55 Q128.85 -37.15 131.75 -37.65 L136.2 -38.5 137.15 -38.85 139.15 -40.2 Q140.55 -41.55 140.55 -44.9 L140.25 -47.25 140.1 -48.45 140.05 -48.65 Q139.8 -49.75 138.8 -49.75 138.25 -49.75 137.8 -49.4 L137.75 -49.4 132.25 -48.55 127.3 -48.25 122.45 -48.25 118.35 -48.3 116.45 -48.4 112.15 -48.75 111.8 -48.85 111.6 -48.95 111.35 -49.0 M116.0 -36.4 L115.55 -36.5 113.7 -36.6 113.5 -36.5 113.3 -36.2 Q112.35 -34.95 112.3 -34.5 L111.9 -33.0 111.55 -31.35 111.75 -29.6 112.25 -28.45 112.9 -27.75 113.65 -27.3 Q114.9 -26.55 116.25 -25.9 120.3 -24.1 124.7 -23.9 L126.75 -23.9 128.65 -24.0 Q131.6 -24.0 133.5 -24.8 135.0 -25.5 135.75 -26.75 136.9 -28.6 136.9 -33.55 L136.75 -34.9 136.1 -35.75 135.0 -36.15 129.4 -35.7 116.0 -36.4" fill="#000000" fill-rule="evenodd" stroke="none"/>
      <path d="M135.05 -65.75 L135.95 -65.35 Q138.0 -64.4 138.5 -63.0 L139.0 -61.3 139.95 -57.15 140.05 -55.9 139.8 -54.55 139.05 -53.35 Q138.4 -52.45 137.15 -51.75 L137.45 -53.5 Q137.45 -58.2 136.65 -61.7 136.05 -64.3 135.05 -65.75 M115.7 -50.25 L114.95 -50.35 Q113.55 -50.65 113.1 -51.0 112.45 -51.4 112.25 -52.2 112.1 -52.45 112.05 -53.05 111.45 -55.55 112.1 -58.65 112.4 -59.8 113.05 -61.0 113.7 -62.25 115.6 -63.2 L115.95 -63.4 Q114.85 -60.55 114.85 -55.9 L114.9 -52.8 Q115.1 -51.6 115.7 -50.25 M126.1 -67.45 Q124.95 -68.1 124.4 -69.75 123.85 -71.4 122.6 -72.35 125.4 -71.7 126.6 -69.75 L127.55 -67.7 127.6 -67.6 126.1 -67.45 M110.6 -39.7 L109.85 -39.95 Q107.65 -40.9 107.05 -42.45 106.8 -43.1 106.8 -45.05 106.8 -47.25 106.95 -47.8 L107.8 -49.15 Q108.8 -50.25 109.7 -50.1 L110.4 -49.9 110.55 -49.6 Q110.85 -49.2 111.35 -49.0 L110.75 -48.5 Q110.05 -47.5 110.05 -43.6 110.05 -40.95 110.6 -39.7 M137.75 -49.4 L137.8 -49.4 Q138.25 -49.75 138.8 -49.75 139.8 -49.75 140.05 -48.65 L140.1 -48.45 140.25 -47.25 140.55 -44.9 Q140.55 -41.55 139.15 -40.2 L137.15 -38.85 137.55 -40.8 Q138.25 -43.95 138.25 -46.9 138.25 -48.3 137.75 -49.4 M113.65 -27.3 L112.9 -27.75 112.25 -28.45 111.75 -29.6 111.55 -31.35 111.9 -33.0 112.3 -34.5 Q112.35 -34.95 113.3 -36.2 L113.5 -36.5 113.7 -36.6 115.55 -36.5 116.0 -36.4 114.95 -33.2 Q113.65 -29.05 113.65 -27.6 L113.65 -27.3 M136.75 -34.9 L136.9 -33.55 Q136.9 -28.6 135.75 -26.75 135.0 -25.5 133.5 -24.8 134.3 -28.5 134.85 -30.3 135.15 -31.4 136.15 -33.3 L136.75 -34.9" fill="#bdbdbd" fill-rule="evenodd" stroke="none"/>
      <path d="M137.15 -51.75 L136.45 -51.45 Q135.05 -50.8 132.15 -50.45 125.15 -49.45 116.45 -50.1 L116.3 -50.15 115.7 -50.25 Q115.1 -51.6 114.9 -52.8 L114.85 -55.9 Q114.85 -60.55 115.95 -63.4 117.85 -64.3 122.3 -65.45 L130.9 -66.4 135.05 -65.75 Q136.05 -64.3 136.65 -61.7 137.45 -58.2 137.45 -53.5 L137.15 -51.75 M122.6 -72.35 Q123.85 -71.4 124.4 -69.75 124.95 -68.1 126.1 -67.45 L122.15 -67.0 117.35 -65.9 Q112.4 -64.25 110.8 -60.9 110.4 -60.05 110.2 -58.3 L109.85 -58.4 Q107.4 -58.95 106.9 -57.8 L108.8 -56.7 110.0 -56.1 109.9 -52.75 109.9 -52.05 Q107.1 -52.45 105.8 -49.4 104.85 -47.05 104.95 -44.0 104.75 -42.8 104.9 -41.95 105.2 -40.35 106.9 -39.2 107.85 -38.55 109.3 -38.0 L108.1 -37.25 Q103.85 -35.7 103.55 -35.2 L105.15 -34.75 Q106.55 -34.75 109.25 -36.2 L111.2 -37.35 111.8 -37.2 111.3 -36.5 110.5 -35.0 Q109.65 -32.05 109.65 -30.05 109.65 -28.5 110.2 -27.85 L112.9 -26.0 116.2 -24.35 114.3 -23.8 112.9 -23.65 108.7 -23.55 108.5 -23.55 Q105.2 -23.6 102.05 -25.25 99.75 -26.45 98.4 -27.85 97.45 -28.9 96.8 -30.65 L96.05 -33.4 Q95.0 -37.25 94.65 -39.2 94.2 -41.65 94.2 -44.55 L94.15 -48.1 Q94.25 -49.7 95.0 -52.15 95.5 -53.85 97.55 -56.05 L99.65 -58.05 100.75 -59.15 101.15 -58.15 101.4 -58.5 101.95 -60.3 102.65 -63.25 Q103.35 -66.55 104.9 -69.5 105.0 -69.95 106.5 -71.45 107.95 -72.95 114.4 -72.7 L119.0 -72.75 122.6 -72.35 M110.6 -39.7 Q110.05 -40.95 110.05 -43.6 110.05 -47.5 110.75 -48.5 L111.35 -49.0 111.6 -48.95 111.8 -48.85 112.15 -48.75 116.45 -48.4 118.35 -48.3 122.45 -48.25 127.3 -48.25 132.25 -48.55 137.75 -49.4 Q138.25 -48.3 138.25 -46.9 138.25 -43.95 137.55 -40.8 L137.15 -38.85 136.2 -38.5 131.75 -37.65 Q128.85 -37.15 124.15 -37.55 L115.05 -38.75 110.6 -39.7 M113.65 -27.3 L113.65 -27.6 Q113.65 -29.05 114.95 -33.2 L116.0 -36.4 129.4 -35.7 135.0 -36.15 136.1 -35.75 136.75 -34.9 136.15 -33.3 Q135.15 -31.4 134.85 -30.3 134.3 -28.5 133.5 -24.8 131.6 -24.0 128.65 -24.0 L126.75 -23.9 124.7 -23.9 Q120.3 -24.1 116.25 -25.9 114.9 -26.55 113.65 -27.3" fill="#999999" fill-rule="evenodd" stroke="none"/>
      <path d="M40.95 -57.85 L43.1 -56.1 46.0 -53.0 41.65 -52.5 Q40.6 -54.2 38.45 -56.4 L35.25 -59.55 38.45 -59.0 Q39.45 -58.9 40.95 -57.85 M28.45 -51.1 L24.95 -50.6 Q24.2 -51.6 23.35 -53.8 22.15 -56.15 19.9 -56.7 L16.5 -58.45 21.85 -59.05 Q24.25 -55.6 28.45 -51.1 M30.2 -57.55 L30.3 -57.45 34.85 -53.4 35.1 -53.7 31.2 -57.85 29.35 -59.75 34.1 -59.75 36.8 -57.05 41.5 -52.5 34.45 -51.8 30.95 -56.5 30.2 -57.55 M36.0 -43.9 L37.2 -46.1 38.3 -46.2 Q37.75 -45.5 37.15 -44.2 L35.45 -41.1 34.05 -38.4 33.2 -38.25 34.2 -40.7 36.0 -43.9 M36.8 -39.1 L35.15 -38.65 36.3 -40.7 Q39.1 -45.45 39.05 -46.25 L39.05 -46.3 41.35 -46.45 37.35 -39.95 36.8 -39.1 M32.4 -45.75 L36.1 -46.0 33.15 -40.85 31.8 -38.05 27.75 -37.45 27.45 -37.4 28.65 -39.4 32.4 -45.75" fill="#009966" fill-rule="evenodd" stroke="none"/>
      <path d="M40.95 -57.85 Q39.45 -58.9 38.45 -59.0 L35.25 -59.55 38.45 -56.4 Q40.6 -54.2 41.65 -52.5 L46.0 -53.0 43.1 -56.1 40.95 -57.85 M50.05 -53.4 Q53.2 -54.05 54.95 -52.85 L73.1 -54.35 85.45 -55.3 117.3 -57.85 Q117.3 -57.8 117.65 -57.65 L117.65 -57.7 Q119.45 -60.3 121.0 -60.45 L127.55 -60.9 129.25 -62.1 130.75 -62.4 Q131.95 -62.45 132.35 -62.0 L132.45 -61.9 132.55 -62.1 132.6 -62.35 134.2 -62.55 Q135.5 -62.45 136.0 -61.7 L136.5 -60.7 Q136.85 -61.8 138.75 -62.15 L140.0 -61.25 140.65 -61.65 Q140.7 -62.4 141.5 -63.35 142.25 -64.35 143.05 -64.4 L143.05 -64.5 144.05 -65.6 146.1 -66.0 146.35 -66.05 146.45 -66.05 147.1 -66.15 147.2 -66.15 147.2 -66.25 147.4 -66.5 147.4 -66.6 Q148.3 -68.05 149.9 -68.0 L151.5 -67.45 152.1 -66.55 157.4 -66.35 158.1 -66.5 172.85 -65.4 177.85 -64.2 179.45 -63.8 180.6 -63.5 Q183.1 -62.8 183.4 -62.4 L183.25 -62.3 183.0 -62.15 180.65 -60.7 179.7 -60.1 179.5 -59.95 178.8 -59.65 175.75 -58.5 173.7 -57.65 Q172.75 -57.2 172.25 -56.8 L172.25 -56.55 171.9 -56.4 171.8 -56.4 171.75 -56.4 161.15 -53.2 157.35 -51.9 157.05 -51.85 156.0 -51.75 155.35 -51.65 154.0 -51.5 153.95 -51.55 152.4 -51.15 150.75 -51.1 149.3 -51.2 Q148.95 -50.85 148.45 -50.8 147.85 -50.75 147.25 -51.05 L146.45 -51.6 Q145.95 -51.65 145.35 -52.15 L145.3 -52.15 145.45 -51.95 145.15 -52.25 144.85 -52.3 144.85 -52.45 143.7 -54.25 Q143.45 -54.0 143.05 -54.0 L142.6 -54.1 142.45 -54.15 141.95 -53.45 141.2 -53.15 Q140.1 -53.05 139.2 -53.9 L136.9 -53.9 136.2 -53.45 135.3 -53.6 135.15 -53.75 Q134.5 -52.9 133.1 -52.8 L132.75 -52.75 Q132.0 -52.7 131.65 -53.05 L131.55 -53.2 Q130.75 -52.5 129.95 -52.4 129.5 -52.4 129.15 -52.85 128.6 -52.1 127.6 -52.0 124.8 -51.75 121.35 -52.0 L118.5 -52.2 99.6 -50.9 96.55 -50.8 80.05 -50.05 73.5 -49.75 71.2 -49.55 61.8 -48.6 56.45 -48.4 56.0 -47.85 Q54.85 -46.85 51.65 -46.6 L50.65 -46.55 48.5 -46.55 44.65 -40.6 Q43.35 -38.8 38.5 -37.05 L35.2 -36.05 33.15 -35.6 33.1 -35.6 32.7 -35.45 32.75 -35.55 31.0 -35.15 30.9 -35.15 25.4 -34.2 19.3 -33.4 17.05 -33.3 13.4 -33.2 13.1 -33.45 12.7 -34.0 Q13.8 -34.3 14.7 -35.05 15.55 -36.55 17.4 -38.15 L20.0 -40.5 Q20.9 -41.45 21.7 -43.9 L22.4 -45.25 Q21.35 -45.55 21.15 -46.0 20.8 -47.3 20.8 -48.6 20.7 -49.9 21.1 -50.35 21.45 -50.75 22.25 -50.95 21.1 -53.25 19.15 -54.8 18.1 -55.65 14.85 -56.95 12.0 -58.05 10.75 -58.95 L10.8 -58.95 12.3 -59.2 16.8 -60.2 20.5 -60.9 21.0 -61.0 24.0 -61.4 26.95 -61.7 29.9 -62.05 Q40.2 -62.0 44.45 -58.4 L47.65 -55.1 49.4 -53.35 49.45 -53.35 50.05 -53.4 M46.8 -50.1 L46.8 -51.55 46.4 -51.4 37.4 -50.8 35.3 -50.65 34.75 -50.65 29.15 -50.25 27.0 -50.1 26.85 -50.2 25.75 -50.15 22.75 -49.6 22.75 -49.55 22.25 -49.5 22.15 -48.05 Q22.25 -47.4 22.65 -46.85 L33.35 -47.45 42.3 -48.05 47.15 -48.35 46.95 -49.05 46.8 -50.1 M49.35 -50.3 L49.2 -51.3 49.05 -51.75 47.65 -51.7 47.7 -50.6 47.8 -49.5 47.9 -49.0 48.35 -48.3 49.55 -48.3 49.4 -50.1 49.35 -50.3 M51.4 -49.85 L51.55 -50.35 51.55 -50.5 51.3 -51.4 51.3 -51.9 50.2 -51.8 49.9 -51.75 50.0 -51.5 50.15 -50.4 50.2 -49.75 50.35 -48.4 50.5 -48.4 50.7 -48.4 51.05 -48.45 51.1 -48.8 51.4 -49.85 M51.7 -51.85 L51.7 -51.95 51.55 -51.9 51.7 -51.4 51.7 -51.85 M52.05 -50.1 L51.9 -49.45 51.8 -48.65 52.5 -48.7 52.55 -48.4 53.35 -48.65 53.25 -49.35 53.2 -50.1 53.2 -51.7 52.3 -51.9 52.05 -50.1 M54.85 -50.35 L54.7 -50.7 Q54.35 -51.6 53.8 -51.65 L53.7 -51.65 53.75 -49.65 53.8 -48.85 Q54.65 -49.2 55.05 -49.85 L54.85 -50.35 M56.45 -50.65 L57.2 -50.7 64.1 -51.0 67.7 -51.55 71.45 -52.1 80.4 -52.5 96.3 -53.7 110.75 -54.75 116.25 -54.8 116.55 -55.75 117.2 -56.9 Q115.05 -55.9 114.15 -55.8 L67.9 -52.65 57.2 -52.05 55.75 -52.05 56.45 -50.65 M21.85 -59.05 L16.5 -58.45 19.9 -56.7 Q22.15 -56.15 23.35 -53.8 24.2 -51.6 24.95 -50.6 L28.45 -51.1 33.2 -51.6 Q31.55 -52.8 30.15 -54.25 27.8 -56.45 26.75 -58.55 L26.9 -58.55 33.75 -51.75 34.45 -51.8 41.5 -52.5 36.8 -57.05 34.1 -59.75 29.35 -59.75 31.2 -57.85 35.1 -53.7 34.85 -53.4 30.3 -57.45 30.2 -57.55 30.15 -57.65 Q28.75 -58.8 28.1 -59.6 L21.85 -59.05 M36.0 -43.9 L34.2 -40.7 33.2 -38.25 34.05 -38.4 35.45 -41.1 37.15 -44.2 Q37.75 -45.5 38.3 -46.2 L37.2 -46.1 36.0 -43.9 M41.35 -46.45 L39.05 -46.3 39.05 -46.25 Q39.1 -45.45 36.3 -40.7 L35.15 -38.65 36.8 -39.1 Q41.55 -40.3 43.05 -42.05 L45.55 -45.65 46.45 -46.9 43.35 -46.6 42.5 -44.5 Q41.5 -42.8 40.6 -42.75 L41.8 -45.15 42.5 -46.55 41.35 -46.45 M27.45 -37.4 L27.75 -37.45 31.8 -38.05 33.15 -40.85 36.1 -46.0 32.4 -45.75 29.75 -45.55 28.6 -43.45 Q27.0 -40.8 26.0 -40.4 L27.65 -43.7 28.65 -45.5 23.65 -45.25 24.1 -43.15 Q24.3 -40.85 21.65 -38.7 20.55 -37.7 18.1 -35.95 L27.45 -37.4 M133.0 -58.05 L133.05 -58.8 132.7 -60.15 Q132.4 -60.95 131.6 -61.1 L130.4 -61.1 128.3 -60.65 128.1 -60.45 128.4 -60.5 128.45 -60.35 129.0 -58.9 129.35 -57.35 129.45 -56.9 129.5 -56.15 129.55 -54.05 129.5 -53.9 129.55 -53.9 130.3 -53.75 Q131.55 -53.85 132.45 -56.2 L132.75 -57.2 133.0 -58.05 M127.35 -55.9 L127.65 -56.75 127.7 -56.9 127.85 -58.4 127.9 -58.8 127.2 -59.7 125.85 -59.55 126.35 -58.1 126.55 -57.2 126.6 -56.65 126.75 -55.15 126.65 -54.1 127.35 -55.9 M128.6 -56.3 L128.55 -56.85 128.35 -57.45 128.2 -56.8 128.0 -56.1 127.8 -55.65 126.7 -53.65 126.5 -53.7 126.5 -53.75 126.45 -53.45 126.35 -53.25 Q128.35 -53.5 128.75 -54.8 L128.6 -56.25 128.6 -56.3 M125.85 -57.25 L125.65 -58.15 125.3 -59.05 125.1 -59.5 123.2 -59.25 123.2 -59.2 123.35 -57.5 123.45 -56.4 123.45 -56.35 123.45 -56.3 123.35 -55.7 123.15 -54.5 123.15 -54.45 123.25 -54.45 125.65 -54.3 126.0 -55.95 125.85 -57.25 M123.0 -56.1 L122.95 -56.35 122.95 -56.5 122.65 -59.2 121.55 -59.05 120.7 -56.15 120.6 -55.7 120.1 -54.25 122.65 -54.45 122.8 -54.9 123.0 -56.1 M125.4 -53.6 L124.0 -53.25 125.25 -53.15 125.4 -53.6 M141.0 -58.6 L140.7 -58.95 140.7 -59.3 140.1 -60.0 Q139.25 -61.4 138.3 -61.3 L137.7 -60.8 Q137.05 -60.25 137.0 -59.75 L136.9 -59.7 137.0 -59.55 136.95 -59.45 137.8 -57.65 138.05 -57.05 138.15 -56.8 138.9 -55.2 Q139.75 -54.05 141.15 -54.15 141.65 -54.2 141.85 -54.65 L142.0 -55.9 141.6 -57.2 141.5 -57.5 141.3 -57.95 141.0 -58.6 M142.75 -59.15 L142.4 -59.7 142.3 -59.65 142.1 -59.75 141.95 -60.15 142.0 -60.3 141.75 -60.65 140.45 -60.85 141.45 -59.6 142.1 -58.85 142.4 -57.75 142.7 -55.8 142.65 -54.75 142.9 -54.85 143.35 -55.25 143.45 -55.55 143.45 -55.6 143.45 -55.85 143.45 -57.1 143.05 -58.55 142.85 -59.05 142.75 -59.15 M141.4 -61.6 L141.9 -61.35 142.35 -61.2 142.4 -61.2 142.35 -61.3 142.75 -62.35 143.2 -63.35 143.2 -63.45 143.15 -63.8 142.75 -63.4 142.05 -62.8 141.45 -61.9 141.35 -61.6 141.4 -61.6 M135.8 -57.45 L135.85 -56.85 Q136.0 -55.5 135.65 -54.6 L135.9 -54.75 136.8 -55.5 137.1 -56.35 137.35 -56.7 137.0 -57.4 136.95 -57.55 136.45 -59.45 136.45 -59.55 136.35 -59.7 136.3 -59.95 135.9 -60.65 Q135.0 -62.0 133.3 -61.85 L133.15 -61.75 133.3 -61.75 Q135.35 -60.85 135.8 -57.45 M133.5 -60.45 L133.3 -60.55 133.3 -60.5 133.4 -60.3 133.55 -59.35 133.55 -57.65 133.5 -57.25 Q133.3 -55.85 132.5 -54.5 L132.1 -53.9 132.15 -53.75 132.6 -53.5 Q134.15 -53.65 134.7 -54.4 135.2 -55.2 135.05 -56.9 L135.05 -57.15 135.0 -57.4 134.7 -58.15 134.25 -59.3 133.5 -60.45 M135.45 -57.45 L135.4 -57.6 135.4 -57.45 135.45 -57.3 135.45 -57.45 M137.25 -54.5 L138.65 -54.5 137.65 -56.0 137.4 -54.9 137.25 -54.5 M153.9 -65.1 L154.35 -65.15 155.55 -65.6 153.3 -65.4 153.9 -65.1 M179.85 -63.0 L177.65 -63.6 169.85 -65.15 158.15 -65.7 156.6 -65.15 153.75 -64.3 152.95 -64.9 Q152.35 -65.05 152.05 -65.55 L151.75 -64.5 151.65 -63.6 151.4 -62.6 156.6 -60.15 156.65 -60.1 158.35 -59.35 Q159.8 -58.8 160.5 -58.85 L163.65 -60.2 162.5 -61.3 161.55 -61.85 161.0 -62.15 159.2 -63.55 163.55 -63.5 168.0 -63.1 167.5 -63.0 166.95 -62.95 167.35 -63.0 160.35 -63.25 161.85 -62.25 162.45 -61.85 163.0 -61.35 164.25 -60.15 164.0 -59.7 162.45 -59.2 Q162.35 -59.2 161.75 -58.8 161.2 -58.45 160.65 -58.4 L160.1 -58.4 160.55 -57.95 161.3 -56.95 161.35 -56.7 160.1 -55.6 158.55 -54.5 158.45 -54.55 160.65 -56.75 159.15 -58.6 158.15 -59.0 157.4 -59.3 156.65 -59.65 155.35 -60.35 Q153.1 -61.25 151.4 -62.5 L151.1 -60.75 151.8 -59.55 152.75 -57.25 153.05 -56.6 153.7 -55.15 154.55 -52.85 154.6 -52.4 154.85 -52.45 157.3 -52.45 157.65 -52.45 165.25 -55.35 165.75 -56.75 165.95 -58.1 166.3 -60.7 Q166.8 -60.45 167.55 -58.5 L168.3 -56.45 170.1 -57.1 171.8 -57.75 Q172.25 -58.6 172.75 -59.05 L173.25 -59.6 Q173.65 -59.95 174.5 -60.15 L175.45 -60.35 172.75 -61.15 167.75 -62.75 167.4 -62.9 167.5 -63.0 168.4 -62.8 173.3 -61.45 176.25 -60.55 177.1 -60.65 179.7 -61.05 182.25 -62.15 179.85 -63.0 M146.8 -65.35 L145.05 -65.25 144.8 -65.05 143.65 -64.35 Q143.25 -63.85 143.35 -62.95 L143.35 -62.9 Q143.45 -61.75 144.1 -61.45 L144.55 -60.4 144.75 -60.15 145.6 -58.55 146.0 -61.5 146.3 -62.9 146.55 -64.0 Q147.05 -64.45 147.0 -64.75 L146.85 -65.25 146.9 -65.3 146.95 -65.4 146.8 -65.35 M150.5 -61.6 L150.6 -62.2 151.2 -66.25 150.9 -66.8 150.2 -67.05 Q149.0 -67.2 148.3 -66.4 L147.6 -64.5 146.55 -60.75 146.2 -57.95 146.15 -57.7 146.15 -57.45 146.2 -57.35 146.2 -56.7 146.05 -56.65 Q145.8 -54.15 145.9 -53.2 147.6 -51.6 148.35 -51.65 L148.85 -51.8 148.85 -51.95 149.05 -52.15 Q149.35 -52.55 149.45 -53.5 L149.45 -55.35 149.6 -57.15 149.9 -59.0 150.5 -61.6 M150.6 -58.5 L150.25 -53.95 149.85 -51.9 152.4 -52.05 Q153.5 -52.1 153.8 -52.45 L153.8 -52.85 152.25 -56.55 152.2 -56.85 150.9 -59.95 150.6 -58.5 M143.35 -61.0 L143.15 -60.7 143.0 -60.5 143.45 -59.75 143.6 -59.45 143.95 -55.35 144.4 -54.6 144.55 -54.45 144.55 -54.35 145.0 -53.65 145.35 -57.0 145.35 -57.2 145.15 -57.9 144.35 -59.1 143.75 -60.35 143.45 -60.8 143.35 -61.0 M120.1 -55.9 L120.15 -56.1 120.4 -56.75 121.3 -59.0 120.5 -58.85 119.2 -57.9 118.25 -56.3 118.2 -56.1 118.1 -55.9 117.85 -54.85 117.75 -54.65 117.45 -54.05 119.6 -54.25 119.75 -54.85 120.1 -55.9 M166.15 -56.55 L165.75 -55.45 168.1 -56.4 166.6 -59.1 166.15 -56.55 M172.55 -57.8 L174.65 -58.7 Q176.0 -59.45 177.25 -59.85 L176.8 -59.95 Q174.95 -59.8 173.85 -59.2 173.1 -58.75 172.5 -57.85 L172.5 -57.8 172.55 -57.8" fill="#000000" fill-rule="evenodd" stroke="none"/>
      <path d="M22.15 -48.05 L22.25 -49.5 22.75 -49.55 22.75 -49.6 25.75 -50.15 26.85 -50.2 27.0 -50.1 29.15 -50.25 34.75 -50.65 35.3 -50.65 37.4 -50.8 46.4 -51.4 46.8 -51.55 46.8 -50.1 22.15 -48.05 M56.45 -50.65 L55.75 -52.05 57.2 -52.05 67.9 -52.65 114.15 -55.8 Q115.05 -55.9 117.2 -56.9 L116.55 -55.75 116.25 -54.8 110.75 -54.75 96.3 -53.7 80.4 -52.5 71.45 -52.1 67.7 -51.55 64.1 -51.0 57.2 -50.7 56.45 -50.65 M137.25 -54.5 L137.4 -54.9 137.65 -56.0 138.65 -54.5 137.25 -54.5" fill="#593306" fill-rule="evenodd" stroke="none"/>
      <path d="M47.8 -49.5 L47.7 -50.6 47.65 -51.7 49.05 -51.75 49.2 -51.3 49.35 -50.3 48.55 -49.95 47.8 -49.5 M50.15 -50.4 L50.0 -51.5 49.9 -51.75 50.2 -51.8 51.3 -51.9 51.3 -51.4 51.55 -50.5 51.55 -50.35 51.4 -49.85 50.8 -50.15 50.3 -50.35 50.15 -50.4 M51.7 -51.85 L51.7 -51.4 51.55 -51.9 51.7 -51.95 51.7 -51.85 M53.2 -50.1 L52.65 -50.4 52.05 -50.1 52.3 -51.9 53.2 -51.7 53.2 -50.1 M53.75 -49.65 L53.7 -51.65 53.8 -51.65 Q54.35 -51.6 54.7 -50.7 L54.85 -50.35 54.5 -50.05 53.9 -49.65 53.75 -49.65 M128.3 -60.65 L130.4 -61.1 131.6 -61.1 Q132.4 -60.95 132.7 -60.15 L133.05 -58.8 133.0 -58.05 132.6 -58.15 Q130.25 -57.95 129.4 -57.35 L129.35 -57.35 129.0 -58.9 128.45 -60.35 128.4 -60.5 128.3 -60.65 M126.55 -57.2 L126.35 -58.1 125.85 -59.55 127.2 -59.7 127.9 -58.8 127.85 -58.4 127.7 -56.9 127.65 -56.75 127.35 -55.9 127.1 -56.95 Q126.9 -57.15 126.55 -57.2 M127.8 -55.65 L128.0 -56.1 128.2 -56.8 128.35 -57.45 128.55 -56.85 128.6 -56.3 127.8 -55.65 M123.45 -56.35 L123.45 -56.4 123.35 -57.5 123.2 -59.2 123.2 -59.25 125.1 -59.5 125.3 -59.05 125.65 -58.15 125.85 -57.25 Q125.1 -57.1 123.45 -56.35 M120.6 -55.7 L120.7 -56.15 121.55 -59.05 122.65 -59.2 122.95 -56.5 122.95 -56.35 123.0 -56.1 121.5 -55.45 Q121.15 -55.4 120.6 -55.7 M138.05 -57.05 L137.8 -57.65 136.95 -59.45 137.0 -59.55 136.9 -59.7 137.0 -59.75 Q137.05 -60.25 137.7 -60.8 L138.3 -61.3 Q139.25 -61.4 140.1 -60.0 L140.7 -59.3 140.7 -58.95 141.0 -58.6 140.9 -58.6 140.5 -58.7 139.3 -57.85 138.1 -57.05 138.05 -57.05 M142.1 -58.85 L141.45 -59.6 140.45 -60.85 141.75 -60.65 142.0 -60.3 141.95 -60.15 142.1 -59.75 142.3 -59.65 142.4 -59.7 142.75 -59.15 142.1 -58.85 M141.4 -61.6 L141.35 -61.6 141.45 -61.9 142.05 -62.8 142.75 -63.4 143.15 -63.8 143.2 -63.45 143.2 -63.35 142.75 -62.35 142.35 -61.3 142.4 -61.2 142.35 -61.2 141.9 -61.35 141.4 -61.6 M135.8 -57.45 Q135.35 -60.85 133.3 -61.75 L133.3 -61.85 Q135.0 -62.0 135.9 -60.65 L136.3 -59.95 136.35 -59.7 136.45 -59.55 136.45 -59.45 136.95 -57.55 137.0 -57.4 136.35 -57.65 135.8 -57.45 M133.4 -60.3 L133.5 -60.45 134.25 -59.3 134.7 -58.15 135.0 -57.4 135.05 -57.15 134.9 -57.1 Q134.5 -57.05 133.7 -57.6 L133.55 -57.65 133.55 -59.35 133.4 -60.3 M144.55 -60.4 L144.1 -61.45 Q143.45 -61.75 143.35 -62.9 L143.35 -62.95 Q143.25 -63.85 143.65 -64.35 L144.8 -65.05 145.05 -65.25 146.8 -65.35 146.9 -65.3 146.85 -65.25 147.0 -64.75 Q147.05 -64.45 146.55 -64.0 L146.3 -62.9 Q144.95 -61.55 144.55 -60.4 M146.2 -57.95 L146.55 -60.75 147.6 -64.5 148.3 -66.4 Q149.0 -67.2 150.2 -67.05 L150.9 -66.8 151.2 -66.25 150.6 -62.2 150.5 -61.6 Q150.1 -60.65 148.85 -59.5 147.45 -58.2 146.2 -57.95 M118.2 -56.1 L118.25 -56.3 119.2 -57.9 120.5 -58.85 121.3 -59.0 120.4 -56.75 120.15 -56.1 120.1 -55.9 119.65 -56.2 118.2 -56.1" fill="#ffcc66" fill-rule="evenodd" stroke="none"/>
      <path d="M47.8 -49.5 L48.55 -49.95 49.35 -50.3 49.4 -50.1 49.55 -48.3 48.35 -48.3 47.9 -49.0 47.8 -49.5 M50.15 -50.4 L50.3 -50.35 50.8 -50.15 51.4 -49.85 51.1 -48.8 51.05 -48.45 50.7 -48.4 50.5 -48.4 50.35 -48.4 50.2 -49.75 50.15 -50.4 M52.05 -50.1 L52.65 -50.4 53.2 -50.1 53.25 -49.35 53.35 -48.65 52.55 -48.4 52.5 -48.7 51.8 -48.65 51.9 -49.45 52.05 -50.1 M53.75 -49.65 L53.9 -49.65 54.5 -50.05 54.85 -50.35 55.05 -49.85 Q54.65 -49.2 53.8 -48.85 L53.75 -49.65" fill="#967d4c" fill-rule="evenodd" stroke="none"/>
      <path d="M28.45 -51.1 Q24.25 -55.6 21.85 -59.05 L28.1 -59.6 Q28.75 -58.8 30.15 -57.65 L30.2 -57.55 30.95 -56.5 34.45 -51.8 33.75 -51.75 26.9 -58.55 26.75 -58.55 Q27.8 -56.45 30.15 -54.25 31.55 -52.8 33.2 -51.6 L28.45 -51.1" fill="#3ccc9c" fill-rule="evenodd" stroke="none"/>
      <path d="M41.35 -46.45 L42.5 -46.55 41.8 -45.15 40.6 -42.75 Q41.5 -42.8 42.5 -44.5 L43.35 -46.6 46.45 -46.9 45.55 -45.65 43.05 -42.05 Q41.55 -40.3 36.8 -39.1 L37.35 -39.95 41.35 -46.45" fill="#007a51" fill-rule="evenodd" stroke="none"/>
      <path d="M32.4 -45.75 L28.65 -39.4 27.45 -37.4 18.1 -35.95 Q20.55 -37.7 21.65 -38.7 24.3 -40.85 24.1 -43.15 L23.65 -45.25 28.65 -45.5 27.65 -43.7 26.0 -40.4 Q27.0 -40.8 28.6 -43.45 L29.75 -45.55 32.4 -45.75" fill="#008e99" fill-rule="evenodd" stroke="none"/>
      <path d="M22.15 -48.05 L46.8 -50.1 46.95 -49.05 47.15 -48.35 42.3 -48.05 33.35 -47.45 22.65 -46.85 Q22.25 -47.4 22.15 -48.05" fill="#422504" fill-rule="evenodd" stroke="none"/>
      <path d="M129.35 -57.35 L129.4 -57.35 Q130.25 -57.95 132.6 -58.15 L133.0 -58.05 132.75 -57.2 132.45 -56.2 Q131.55 -53.85 130.3 -53.75 L129.55 -53.9 129.55 -54.05 129.5 -56.15 129.45 -56.9 129.35 -57.35 M126.55 -57.2 Q126.9 -57.15 127.1 -56.95 L127.35 -55.9 126.65 -54.1 126.75 -55.15 126.6 -56.65 126.55 -57.2 M127.8 -55.65 L128.6 -56.3 128.6 -56.25 128.75 -54.8 Q128.35 -53.5 126.35 -53.25 L126.45 -53.45 126.5 -53.75 126.5 -53.7 126.7 -53.65 127.8 -55.65 M123.45 -56.35 Q125.1 -57.1 125.85 -57.25 L126.0 -55.95 125.65 -54.3 123.25 -54.45 123.15 -54.5 123.35 -55.7 123.45 -56.3 123.45 -56.35 M120.6 -55.7 Q121.15 -55.4 121.5 -55.45 L123.0 -56.1 122.8 -54.9 122.65 -54.45 120.1 -54.25 120.6 -55.7 M125.4 -53.6 L125.25 -53.15 124.0 -53.25 125.4 -53.6 M138.05 -57.05 L138.1 -57.05 139.3 -57.85 140.5 -58.7 140.9 -58.6 141.0 -58.6 141.3 -57.95 141.5 -57.5 141.6 -57.2 142.0 -55.9 141.85 -54.65 Q141.65 -54.2 141.15 -54.15 139.75 -54.05 138.9 -55.2 L138.15 -56.8 138.05 -57.05 M142.1 -58.85 L142.75 -59.15 142.85 -59.05 143.05 -58.55 143.45 -57.1 143.45 -55.85 143.45 -55.6 143.45 -55.55 143.35 -55.25 142.9 -54.85 142.65 -54.75 142.7 -55.8 142.4 -57.75 142.1 -58.85 M137.0 -57.4 L137.35 -56.7 137.1 -56.35 136.8 -55.5 135.9 -54.75 135.65 -54.6 Q136.0 -55.5 135.85 -56.85 L135.8 -57.45 136.35 -57.65 137.0 -57.4 M135.05 -57.15 L135.05 -56.9 Q135.2 -55.2 134.7 -54.4 134.15 -53.65 132.6 -53.5 L132.15 -53.75 132.1 -53.9 132.5 -54.5 Q133.3 -55.85 133.5 -57.25 L133.55 -57.65 133.7 -57.6 Q134.5 -57.05 134.9 -57.1 L135.05 -57.15 M144.55 -60.4 Q144.95 -61.55 146.3 -62.9 L146.0 -61.5 145.6 -58.55 144.75 -60.15 144.55 -60.4 M146.2 -57.95 Q147.45 -58.2 148.85 -59.5 150.1 -60.65 150.5 -61.6 L149.9 -59.0 149.6 -57.15 149.45 -55.35 149.45 -53.5 Q149.35 -52.55 149.05 -52.15 L148.85 -51.95 148.85 -51.8 148.35 -51.65 Q147.6 -51.6 145.9 -53.2 145.8 -54.15 146.05 -56.65 L146.2 -56.7 146.2 -57.35 146.15 -57.45 146.15 -57.7 146.2 -57.95 M150.6 -58.5 L150.9 -59.95 152.2 -56.85 152.25 -56.55 153.8 -52.85 153.8 -52.45 Q153.5 -52.1 152.4 -52.05 L149.85 -51.9 150.25 -53.95 150.6 -58.5 M118.2 -56.1 L119.65 -56.2 120.1 -55.9 119.75 -54.85 119.6 -54.25 117.45 -54.05 117.75 -54.65 117.85 -54.85 118.1 -55.9 118.2 -56.1" fill="#ab802c" fill-rule="evenodd" stroke="none"/>
      <path d="M153.9 -65.1 L153.3 -65.4 155.55 -65.6 154.35 -65.15 153.9 -65.1 M143.35 -61.0 L143.45 -60.8 143.75 -60.35 144.35 -59.1 145.15 -57.9 145.35 -57.2 145.35 -57.0 145.0 -53.65 144.55 -54.35 144.55 -54.45 144.4 -54.6 143.95 -55.35 143.6 -59.45 143.45 -59.75 143.0 -60.5 143.15 -60.7 143.35 -61.0 M172.55 -57.8 L172.5 -57.85 Q173.1 -58.75 173.85 -59.2 174.95 -59.8 176.8 -59.95 L177.25 -59.85 Q176.0 -59.45 174.65 -58.7 L172.55 -57.8" fill="#626262" fill-rule="evenodd" stroke="none"/>
      <path d="M151.65 -63.6 L151.75 -64.5 152.05 -65.55 Q152.35 -65.05 152.95 -64.9 L153.75 -64.3 156.6 -65.15 158.15 -65.7 169.85 -65.15 177.65 -63.6 179.85 -63.0 177.35 -61.1 Q174.55 -61.8 171.65 -63.3 L169.95 -63.95 162.6 -64.5 159.7 -64.55 157.2 -62.4 151.65 -63.6 M162.5 -61.3 L163.65 -60.2 160.5 -58.85 Q159.8 -58.8 158.35 -59.35 L159.5 -60.85 162.5 -61.3" fill="#c4c4c4" fill-rule="evenodd" stroke="none"/>
      <path d="M179.85 -63.0 L182.25 -62.15 179.7 -61.05 177.1 -60.65 176.25 -60.55 173.3 -61.45 168.4 -62.8 167.5 -63.0 167.4 -62.9 167.75 -62.75 172.75 -61.15 175.45 -60.35 174.5 -60.15 Q173.65 -59.95 173.25 -59.6 L172.75 -59.05 Q172.25 -58.6 171.8 -57.75 L170.1 -57.1 168.3 -56.45 167.55 -58.5 Q166.8 -60.45 166.3 -60.7 L165.95 -58.1 165.75 -56.75 163.7 -57.5 162.65 -57.4 161.75 -57.05 161.3 -56.95 160.55 -57.95 160.1 -58.4 160.65 -58.4 Q161.2 -58.45 161.75 -58.8 162.35 -59.2 162.45 -59.2 L164.0 -59.7 164.25 -60.15 163.0 -61.35 162.45 -61.85 161.85 -62.25 160.35 -63.25 167.35 -63.0 166.95 -62.95 167.5 -63.0 168.0 -63.1 163.55 -63.5 159.2 -63.55 161.0 -62.15 161.55 -61.85 162.5 -61.3 159.5 -60.85 158.35 -59.35 156.65 -60.1 156.6 -60.15 151.4 -62.6 151.65 -63.6 157.2 -62.4 159.7 -64.55 162.6 -64.5 169.95 -63.95 171.65 -63.3 Q174.55 -61.8 177.35 -61.1 L179.85 -63.0 M153.05 -56.6 L152.75 -57.25 151.8 -59.55 151.1 -60.75 151.4 -62.5 Q153.1 -61.25 155.35 -60.35 L156.65 -59.65 157.4 -59.3 158.15 -59.0 159.15 -58.6 160.65 -56.75 Q159.15 -56.05 157.7 -55.65 L156.2 -55.95 153.05 -56.6" fill="#999999" fill-rule="evenodd" stroke="none"/>
      <path d="M165.75 -56.75 L165.25 -55.35 157.65 -52.45 157.3 -52.45 154.85 -52.45 154.6 -52.4 154.55 -52.85 153.7 -55.15 153.05 -56.6 156.2 -55.95 157.7 -55.65 Q159.15 -56.05 160.65 -56.75 L158.45 -54.55 158.55 -54.5 160.1 -55.6 161.35 -56.7 161.3 -56.95 161.75 -57.05 162.65 -57.4 163.7 -57.5 165.75 -56.75" fill="#6b6b6b" fill-rule="evenodd" stroke="none"/>
      <path d="M166.15 -56.55 L166.6 -59.1 168.1 -56.4 165.75 -55.45 166.15 -56.55" fill="#454545" fill-rule="evenodd" stroke="none"/>
      <path d="M-22.75 -57.25 L-22.35 -57.7 -21.35 -56.15 -21.25 -55.95 -18.2 -56.15 Q-10.1 -55.75 -3.1 -56.4 L-2.65 -56.5 -0.8 -56.75 2.3 -57.45 Q3.8 -57.9 4.0 -58.2 L4.3 -58.5 4.25 -58.8 4.25 -58.85 4.25 -59.05 4.15 -59.55 4.1 -60.65 4.05 -64.1 Q4.05 -65.95 7.55 -67.85 10.8 -69.65 15.65 -70.85 L20.6 -72.2 21.95 -72.4 24.0 -72.6 24.3 -72.6 Q27.3 -72.65 28.1 -71.4 L28.25 -71.0 28.75 -69.6 29.25 -67.5 29.25 -67.2 29.3 -66.65 29.3 -66.55 29.5 -66.55 31.4 -66.65 32.05 -66.7 Q36.45 -66.45 38.95 -65.0 41.2 -63.7 41.05 -62.15 L41.1 -56.45 Q41.1 -54.65 40.4 -52.55 L39.45 -50.6 Q46.45 -48.7 48.4 -46.7 49.55 -45.5 49.55 -42.2 49.55 -39.75 48.8 -37.55 48.15 -35.7 47.1 -34.6 L46.6 -34.35 46.3 -34.2 45.15 -34.15 43.15 -34.05 42.6 -34.05 39.2 -34.25 Q37.05 -34.3 35.4 -35.45 L34.3 -36.1 30.6 -36.0 29.8 -35.8 29.9 -35.25 42.2 -33.05 42.8 -32.9 Q46.8 -31.75 46.8 -26.7 46.8 -24.3 46.4 -22.8 46.15 -21.25 44.75 -19.75 L42.95 -19.45 41.75 -19.4 39.9 -19.5 37.65 -19.9 Q35.7 -20.3 33.8 -21.1 L33.65 -21.15 28.1 -22.55 27.2 -22.65 Q23.65 -22.6 21.0 -19.95 L12.4 -14.3 Q-1.3 -6.05 -17.7 -3.7 L-23.6 -3.4 -25.15 -3.4 Q-38.1 -3.4 -42.8 -6.7 L-43.35 -6.6 Q-48.8 -6.6 -54.75 -11.5 -59.2 -15.15 -59.95 -17.0 -62.5 -22.65 -62.75 -23.8 L-62.85 -29.0 Q-62.85 -38.5 -59.3 -46.4 -55.65 -54.6 -49.55 -58.0 L-49.2 -57.8 Q-49.05 -57.7 -49.05 -57.25 L-49.05 -57.1 -52.25 -53.75 Q-55.85 -49.2 -58.05 -43.1 -60.65 -35.7 -60.65 -28.85 -60.65 -17.65 -51.35 -12.45 -49.3 -11.3 -44.95 -9.7 L-44.9 -9.65 -45.15 -10.5 -45.2 -10.55 Q-46.6 -11.1 -48.15 -12.0 -51.95 -14.2 -51.95 -15.5 L-51.95 -15.6 Q-51.95 -20.15 -51.45 -21.8 L-50.6 -25.2 Q-49.85 -27.2 -48.8 -26.95 L-49.35 -25.35 -50.05 -22.6 -50.15 -20.45 -50.05 -18.4 -50.05 -18.25 Q-50.05 -15.15 -45.25 -13.3 -40.4 -11.5 -40.35 -10.5 L-40.55 -10.0 Q-40.75 -9.7 -41.35 -9.7 L-42.25 -9.75 Q-41.5 -9.2 -38.55 -7.7 -35.65 -6.2 -29.25 -6.0 -22.9 -5.8 -14.65 -6.4 -6.45 -7.0 9.8 -15.1 L21.0 -22.5 Q23.05 -24.9 26.2 -24.8 L28.1 -24.75 30.9 -23.9 33.8 -22.8 35.75 -22.1 36.65 -21.85 38.8 -21.4 42.75 -21.15 43.85 -21.25 Q45.2 -22.45 45.2 -24.6 L45.3 -26.65 45.05 -29.25 Q44.45 -30.7 42.5 -31.25 L41.5 -31.45 Q38.7 -31.85 34.2 -33.0 31.1 -33.75 29.85 -34.25 L29.8 -34.3 Q29.3 -34.5 29.15 -34.65 L29.05 -34.7 Q28.65 -35.05 28.65 -35.75 L28.65 -35.8 28.3 -35.8 28.15 -35.95 Q28.75 -36.8 30.9 -37.6 L31.6 -37.9 32.4 -38.1 32.45 -38.1 33.65 -38.2 35.7 -37.0 Q37.3 -36.25 39.2 -36.0 L42.2 -35.85 43.3 -35.85 45.65 -36.35 Q46.4 -37.2 46.85 -38.8 47.35 -40.45 47.35 -42.15 47.35 -44.05 47.15 -44.45 46.55 -45.45 43.65 -46.95 L43.6 -47.0 38.25 -48.65 36.15 -49.45 33.05 -50.1 31.5 -49.95 25.65 -47.5 21.65 -45.9 Q21.25 -46.0 21.1 -46.2 L23.6 -48.0 24.9 -48.8 24.9 -49.0 Q24.9 -50.65 25.25 -50.95 25.6 -51.35 28.25 -52.4 L27.85 -53.25 Q28.55 -53.35 29.05 -52.95 L29.75 -52.35 30.55 -51.9 30.9 -51.75 31.5 -51.85 33.55 -52.05 36.95 -51.55 37.7 -51.3 38.45 -52.95 39.4 -55.55 39.45 -60.05 Q39.45 -62.65 38.75 -63.35 38.0 -64.1 36.6 -64.55 L30.75 -65.45 29.05 -65.55 28.05 -65.55 23.2 -65.05 18.45 -64.3 Q18.2 -64.4 17.9 -64.55 19.05 -65.4 20.55 -65.75 L26.65 -66.45 27.85 -66.5 Q27.55 -66.8 27.4 -67.4 27.25 -67.95 27.25 -68.8 27.0 -70.4 26.3 -70.7 L23.75 -70.85 23.45 -70.85 Q19.75 -70.75 14.0 -68.65 L7.45 -65.85 Q6.1 -65.2 5.75 -64.15 5.6 -63.75 5.6 -62.55 L5.5 -59.3 5.55 -58.95 5.6 -58.95 5.6 -58.65 5.6 -58.55 8.95 -59.8 8.0 -58.1 7.65 -57.6 6.0 -56.5 Q2.2 -55.0 -2.65 -54.2 L-3.1 -54.15 -14.25 -53.55 -18.2 -53.75 -19.15 -53.75 -28.0 -53.35 Q-34.05 -52.7 -38.55 -50.1 -43.1 -47.55 -47.2 -45.6 -44.4 -49.95 -39.8 -52.4 L-35.9 -54.3 Q-33.4 -55.2 -31.75 -55.3 L-22.6 -55.9 -22.8 -57.0 -22.75 -57.25 M25.85 -49.65 L26.0 -49.4 29.35 -51.1 28.75 -51.7 Q28.25 -51.25 26.85 -50.7 25.7 -50.15 25.85 -49.65" fill="#000000" fill-rule="evenodd" stroke="none"/>
      <path d="M-47.45 -57.15 L-39.2 -57.3 -28.65 -57.7 -25.45 -57.65 -22.75 -57.25 -22.8 -57.0 -22.6 -55.9 -31.75 -55.3 Q-33.4 -55.2 -35.9 -54.3 L-39.8 -52.4 Q-44.4 -49.95 -47.2 -45.6 -43.1 -47.55 -38.55 -50.1 -34.05 -52.7 -28.0 -53.35 L-19.15 -53.75 -18.2 -53.75 -14.25 -53.55 -3.1 -54.15 -2.65 -54.2 Q2.2 -55.0 6.0 -56.5 L7.65 -57.6 8.0 -58.1 8.95 -59.8 5.6 -58.55 5.6 -58.65 5.6 -58.95 5.55 -58.95 5.5 -59.3 5.6 -62.55 Q5.6 -63.75 5.75 -64.15 6.1 -65.2 7.45 -65.85 L14.0 -68.65 Q19.75 -70.75 23.45 -70.85 L24.5 -69.0 Q25.3 -67.25 26.65 -66.45 L20.55 -65.75 Q19.05 -65.4 17.9 -64.55 18.2 -64.4 18.45 -64.3 L23.2 -65.05 28.05 -65.55 29.05 -65.55 30.75 -65.45 36.6 -64.55 37.0 -64.2 Q37.65 -63.35 37.65 -58.0 L37.3 -54.3 36.95 -51.55 33.55 -52.05 31.5 -51.85 30.9 -51.75 30.55 -51.9 29.75 -52.35 29.05 -52.95 Q28.55 -53.35 27.85 -53.25 L28.25 -52.4 Q25.6 -51.35 25.25 -50.95 24.9 -50.65 24.9 -49.0 L24.9 -48.8 23.6 -48.0 21.1 -46.2 Q21.25 -46.0 21.65 -45.9 L25.65 -47.5 31.5 -49.95 33.05 -50.1 36.15 -49.45 38.25 -48.65 43.6 -47.0 43.65 -46.95 Q45.15 -45.55 45.15 -42.5 45.15 -41.0 43.65 -36.9 L43.3 -35.85 42.2 -35.85 39.2 -36.0 Q37.3 -36.25 35.7 -37.0 L33.65 -38.2 32.45 -38.1 32.4 -38.1 31.6 -37.9 30.9 -37.6 Q28.75 -36.8 28.15 -35.95 L28.3 -35.8 28.65 -35.8 28.65 -35.75 Q28.65 -35.05 29.05 -34.7 L29.15 -34.65 Q29.3 -34.5 29.8 -34.3 L29.85 -34.25 Q31.1 -33.75 34.2 -33.0 38.7 -31.85 41.5 -31.45 L42.5 -31.25 42.8 -29.55 43.4 -25.15 Q43.4 -22.95 42.85 -21.45 L42.75 -21.15 38.8 -21.4 36.65 -21.85 35.75 -22.1 33.8 -22.8 30.9 -23.9 28.1 -24.75 26.2 -24.8 Q23.05 -24.9 21.0 -22.5 L9.8 -15.1 Q-6.45 -7.0 -14.65 -6.4 -22.9 -5.8 -29.25 -6.0 -35.65 -6.2 -38.55 -7.7 -41.5 -9.2 -42.25 -9.75 L-41.35 -9.7 Q-40.75 -9.7 -40.55 -10.0 L-40.35 -10.5 Q-40.4 -11.5 -45.25 -13.3 -50.05 -15.15 -50.05 -18.25 L-50.05 -18.4 -50.15 -20.45 -50.05 -22.6 -49.35 -25.35 -48.8 -26.95 Q-49.85 -27.2 -50.6 -25.2 L-51.45 -21.8 Q-51.95 -20.15 -51.95 -15.6 -53.2 -16.7 -53.85 -17.75 L-57.25 -23.35 Q-57.6 -24.3 -57.6 -28.5 -57.6 -34.0 -57.0 -37.3 -56.25 -41.55 -54.1 -45.75 L-50.7 -52.8 Q-49.2 -55.5 -47.45 -57.15" fill="#999999" fill-rule="evenodd" stroke="none"/>
      <path d="M-49.05 -57.25 L-47.45 -57.15 Q-49.2 -55.5 -50.7 -52.8 L-54.1 -45.75 Q-56.25 -41.55 -57.0 -37.3 -57.6 -34.0 -57.6 -28.5 -57.6 -24.3 -57.25 -23.35 L-53.85 -17.75 Q-53.2 -16.7 -51.95 -15.6 L-51.95 -15.5 Q-51.95 -14.2 -48.15 -12.0 -46.6 -11.1 -45.2 -10.55 L-45.15 -10.5 -44.9 -9.65 -44.95 -9.7 Q-49.3 -11.3 -51.35 -12.45 -60.65 -17.65 -60.65 -28.85 -60.65 -35.7 -58.05 -43.1 -55.85 -49.2 -52.25 -53.75 L-49.05 -57.1 -49.05 -57.25 M23.45 -70.85 L23.75 -70.85 26.3 -70.7 Q27.0 -70.4 27.25 -68.8 27.25 -67.95 27.4 -67.4 27.55 -66.8 27.85 -66.5 L26.65 -66.45 Q25.3 -67.25 24.5 -69.0 L23.45 -70.85 M36.6 -64.55 Q38.0 -64.1 38.75 -63.35 39.45 -62.65 39.45 -60.05 L39.4 -55.55 38.45 -52.95 37.7 -51.3 36.95 -51.55 37.3 -54.3 37.65 -58.0 Q37.65 -63.35 37.0 -64.2 L36.6 -64.55 M43.65 -46.95 Q46.55 -45.45 47.15 -44.45 47.35 -44.05 47.35 -42.15 47.35 -40.45 46.85 -38.8 46.4 -37.2 45.65 -36.35 L43.3 -35.85 43.65 -36.9 Q45.15 -41.0 45.15 -42.5 45.15 -45.55 43.65 -46.95 M42.5 -31.25 Q44.45 -30.7 45.05 -29.25 L45.3 -26.65 45.2 -24.6 Q45.2 -22.45 43.85 -21.25 L42.75 -21.15 42.85 -21.45 Q43.4 -22.95 43.4 -25.15 L42.8 -29.55 42.5 -31.25" fill="#bdbdbd" fill-rule="evenodd" stroke="none"/>
    </g>
  </defs>
</svg>
