<?xml version="1.0" encoding="UTF-8" standalone="no"?>
<svg xmlns:xlink="http://www.w3.org/1999/xlink" height="531.5px" width="460.6px" xmlns="http://www.w3.org/2000/svg">
  <g transform="matrix(1.0, 0.0, 0.0, 1.0, 193.65, 334.05)">
    <use height="289.5" transform="matrix(1.0, 0.0, 0.0, 1.0, -62.85, -193.3)" width="206.6" xlink:href="#shape0"/>
  </g>
  <defs>
    <g id="shape0" transform="matrix(1.0, 0.0, 0.0, 1.0, 62.85, 193.3)">
      <path d="M135.05 -66.95 L135.95 -66.55 Q138.0 -65.6 138.5 -64.2 L139.0 -62.5 139.95 -58.35 140.05 -57.1 139.8 -55.75 139.05 -54.55 Q138.4 -53.65 137.15 -52.95 L137.45 -54.7 Q137.45 -59.4 136.65 -62.9 136.05 -65.5 135.05 -66.95 M115.7 -51.45 L114.95 -51.55 Q113.55 -51.85 113.1 -52.2 112.45 -52.6 112.25 -53.4 112.1 -53.65 112.05 -54.25 111.45 -56.75 112.1 -59.85 112.4 -61.0 113.05 -62.2 113.7 -63.45 115.6 -64.4 L115.95 -64.6 Q114.85 -61.75 114.85 -57.1 L114.9 -54.0 Q115.1 -52.8 115.7 -51.45 M122.6 -73.55 Q125.4 -72.9 126.6 -70.95 L127.55 -68.9 127.6 -68.8 126.1 -68.65 Q124.95 -69.3 124.4 -70.95 123.85 -72.6 122.6 -73.55 M137.75 -50.6 L137.8 -50.6 Q138.25 -50.95 138.8 -50.95 139.8 -50.95 140.05 -49.85 L140.1 -49.65 140.25 -48.45 140.55 -46.1 Q140.55 -42.75 139.15 -41.4 L137.15 -40.05 137.55 -42.0 Q138.25 -45.15 138.25 -48.1 138.25 -49.5 137.75 -50.6 M110.6 -40.9 L109.85 -41.15 Q107.65 -42.1 107.05 -43.65 106.8 -44.3 106.8 -46.25 106.8 -48.45 106.95 -49.0 L107.8 -50.35 Q108.8 -51.45 109.7 -51.3 L110.4 -51.1 110.55 -50.8 Q110.85 -50.4 111.35 -50.2 L110.75 -49.7 Q110.05 -48.7 110.05 -44.8 110.05 -42.15 110.6 -40.9 M113.65 -28.5 L112.9 -28.95 112.25 -29.65 111.75 -30.8 111.55 -32.55 111.9 -34.2 112.3 -35.7 Q112.35 -36.15 113.3 -37.4 L113.5 -37.7 113.7 -37.8 115.55 -37.7 116.0 -37.6 114.95 -34.4 Q113.65 -30.25 113.65 -28.8 L113.65 -28.5 M136.75 -36.1 L136.9 -34.75 Q136.9 -29.8 135.75 -27.95 135.0 -26.7 133.5 -26.0 134.3 -29.7 134.85 -31.5 135.15 -32.6 136.15 -34.5 L136.75 -36.1" fill="#bdbdbd" fill-rule="evenodd" stroke="none"/>
      <path d="M137.15 -52.95 L136.45 -52.65 Q135.05 -52.0 132.15 -51.65 125.15 -50.65 116.45 -51.3 L116.3 -51.35 115.7 -51.45 Q115.1 -52.8 114.9 -54.0 L114.85 -57.1 Q114.85 -61.75 115.95 -64.6 117.85 -65.5 122.3 -66.65 L130.9 -67.6 135.05 -66.95 Q136.05 -65.5 136.65 -62.9 137.45 -59.4 137.45 -54.7 L137.15 -52.95 M122.6 -73.55 Q123.85 -72.6 124.4 -70.95 124.95 -69.3 126.1 -68.65 L122.15 -68.2 117.35 -67.1 Q112.4 -65.45 110.8 -62.1 110.4 -61.25 110.2 -59.5 L109.85 -59.6 Q107.4 -60.15 106.9 -59.0 L108.8 -57.9 110.0 -57.3 109.9 -53.95 109.9 -53.25 Q107.1 -53.65 105.8 -50.6 104.85 -48.25 104.95 -45.2 104.75 -44.0 104.9 -43.15 105.2 -41.55 106.9 -40.4 107.85 -39.75 109.3 -39.2 L108.1 -38.45 Q103.85 -36.9 103.55 -36.4 L105.15 -35.95 Q106.55 -35.95 109.25 -37.4 L111.2 -38.55 111.8 -38.4 111.3 -37.7 110.5 -36.2 Q109.65 -33.25 109.65 -31.25 109.65 -29.7 110.2 -29.05 L112.9 -27.2 116.2 -25.55 114.3 -25.0 112.9 -24.85 108.7 -24.75 108.5 -24.75 Q105.2 -24.8 102.05 -26.45 99.75 -27.65 98.4 -29.05 97.45 -30.1 96.8 -31.85 L96.05 -34.6 Q95.0 -38.45 94.65 -40.4 94.2 -42.85 94.2 -45.75 L94.15 -49.3 Q94.25 -50.9 95.0 -53.35 95.5 -55.05 97.55 -57.25 L99.65 -59.25 100.75 -60.35 101.15 -59.35 101.4 -59.7 101.95 -61.5 102.65 -64.45 Q103.35 -67.75 104.9 -70.7 105.0 -71.15 106.5 -72.65 107.95 -74.15 114.4 -73.9 L119.0 -73.95 122.6 -73.55 M137.75 -50.6 Q138.25 -49.5 138.25 -48.1 138.25 -45.15 137.55 -42.0 L137.15 -40.05 136.2 -39.7 131.75 -38.85 Q128.85 -38.35 124.15 -38.75 L115.05 -39.95 110.6 -40.9 Q110.05 -42.15 110.05 -44.8 110.05 -48.7 110.75 -49.7 L111.35 -50.2 111.6 -50.15 111.8 -50.05 112.15 -49.95 116.45 -49.6 118.35 -49.5 122.45 -49.45 127.3 -49.45 132.25 -49.75 137.75 -50.6 M113.65 -28.5 L113.65 -28.8 Q113.65 -30.25 114.95 -34.4 L116.0 -37.6 129.4 -36.9 135.0 -37.35 136.1 -36.95 136.75 -36.1 136.15 -34.5 Q135.15 -32.6 134.85 -31.5 134.3 -29.7 133.5 -26.0 131.6 -25.2 128.65 -25.2 L126.75 -25.1 124.7 -25.1 Q120.3 -25.3 116.25 -27.1 114.9 -27.75 113.65 -28.5" fill="#999999" fill-rule="evenodd" stroke="none"/>
      <path d="M137.15 -52.95 Q138.4 -53.65 139.05 -54.55 L139.8 -55.75 140.05 -57.1 139.95 -58.35 139.0 -62.5 138.5 -64.2 Q138.0 -65.6 135.95 -66.55 L135.05 -66.95 130.9 -67.6 122.3 -66.65 Q117.85 -65.5 115.95 -64.6 L115.6 -64.4 Q113.7 -63.45 113.05 -62.2 112.4 -61.0 112.1 -59.85 111.45 -56.75 112.05 -54.25 112.1 -53.65 112.25 -53.4 112.45 -52.6 113.1 -52.2 113.55 -51.85 114.95 -51.55 L115.7 -51.45 116.3 -51.35 116.45 -51.3 Q125.15 -50.65 132.15 -51.65 135.05 -52.0 136.45 -52.65 L137.15 -52.95 M140.45 -62.35 Q141.3 -59.55 141.3 -57.4 L141.15 -55.95 141.2 -55.3 140.25 -52.7 140.15 -52.25 140.25 -52.2 Q140.3 -51.95 140.6 -51.85 L140.65 -51.85 Q141.8 -51.05 142.2 -48.75 142.55 -47.0 142.4 -45.1 142.4 -41.95 140.7 -40.15 139.7 -39.05 138.05 -38.3 L138.6 -37.45 Q138.9 -36.7 138.9 -35.15 138.9 -27.15 135.7 -24.7 133.25 -22.85 125.9 -22.85 123.75 -22.85 119.2 -24.45 L118.8 -24.6 117.8 -24.7 117.65 -24.6 Q116.6 -23.05 108.55 -23.05 101.95 -23.05 97.1 -27.9 95.5 -29.5 94.45 -33.9 L93.0 -40.4 Q92.7 -42.1 92.7 -45.8 L92.7 -49.7 Q92.8 -51.3 93.55 -54.0 94.2 -56.45 97.25 -59.15 99.55 -61.2 100.7 -61.4 L100.7 -61.5 Q101.3 -66.3 103.25 -70.8 L104.0 -72.5 104.9 -73.55 Q108.45 -76.05 112.9 -75.85 L114.4 -75.95 118.65 -75.95 120.4 -75.95 Q125.05 -75.9 127.7 -73.0 129.6 -70.95 129.65 -68.9 134.8 -69.05 136.55 -68.0 138.25 -66.95 138.8 -66.15 L139.4 -65.05 140.45 -62.35 M126.1 -68.65 L127.6 -68.8 127.55 -68.9 126.6 -70.95 Q125.4 -72.9 122.6 -73.55 L119.0 -73.95 114.4 -73.9 Q107.95 -74.15 106.5 -72.65 105.0 -71.15 104.9 -70.7 103.35 -67.75 102.65 -64.45 L101.95 -61.5 101.4 -59.7 101.15 -59.35 100.75 -60.35 99.65 -59.25 97.55 -57.25 Q95.5 -55.05 95.0 -53.35 94.25 -50.9 94.15 -49.3 L94.2 -45.75 Q94.2 -42.85 94.65 -40.4 95.0 -38.45 96.05 -34.6 L96.8 -31.85 Q97.45 -30.1 98.4 -29.05 99.75 -27.65 102.05 -26.45 105.2 -24.8 108.5 -24.75 L108.7 -24.75 112.9 -24.85 114.3 -25.0 116.2 -25.55 112.9 -27.2 110.2 -29.05 Q109.65 -29.7 109.65 -31.25 109.65 -33.25 110.5 -36.2 L111.3 -37.7 111.8 -38.4 111.2 -38.55 109.25 -37.4 Q106.55 -35.95 105.15 -35.95 L103.55 -36.4 Q103.85 -36.9 108.1 -38.45 L109.3 -39.2 Q107.85 -39.75 106.9 -40.4 105.2 -41.55 104.9 -43.15 104.75 -44.0 104.95 -45.2 104.85 -48.25 105.8 -50.6 107.1 -53.65 109.9 -53.25 L109.9 -53.95 110.0 -57.3 108.8 -57.9 106.9 -59.0 Q107.4 -60.15 109.85 -59.6 L110.2 -59.5 Q110.4 -61.25 110.8 -62.1 112.4 -65.45 117.35 -67.1 L122.15 -68.2 126.1 -68.65 M137.15 -40.05 L139.15 -41.4 Q140.55 -42.75 140.55 -46.1 L140.25 -48.45 140.1 -49.65 140.05 -49.85 Q139.8 -50.95 138.8 -50.95 138.25 -50.95 137.8 -50.6 L137.75 -50.6 132.25 -49.75 127.3 -49.45 122.45 -49.45 118.35 -49.5 116.45 -49.6 112.15 -49.95 111.8 -50.05 111.6 -50.15 111.35 -50.2 Q110.85 -50.4 110.55 -50.8 L110.4 -51.1 109.7 -51.3 Q108.8 -51.45 107.8 -50.35 L106.95 -49.0 Q106.8 -48.45 106.8 -46.25 106.8 -44.3 107.05 -43.65 107.65 -42.1 109.85 -41.15 L110.6 -40.9 115.05 -39.95 124.15 -38.75 Q128.85 -38.35 131.75 -38.85 L136.2 -39.7 137.15 -40.05 M116.0 -37.6 L115.55 -37.7 113.7 -37.8 113.5 -37.7 113.3 -37.4 Q112.35 -36.15 112.3 -35.7 L111.9 -34.2 111.55 -32.55 111.75 -30.8 112.25 -29.65 112.9 -28.95 113.65 -28.5 Q114.9 -27.75 116.25 -27.1 120.3 -25.3 124.7 -25.1 L126.75 -25.1 128.65 -25.2 Q131.6 -25.2 133.5 -26.0 135.0 -26.7 135.75 -27.95 136.9 -29.8 136.9 -34.75 L136.75 -36.1 136.1 -36.95 135.0 -37.35 129.4 -36.9 116.0 -37.6" fill="#000000" fill-rule="evenodd" stroke="none"/>
      <path d="M126.7 -64.0 L126.85 -58.75 127.05 -51.4 127.35 -41.25 127.7 -29.9 127.9 -23.35 115.35 -23.0 115.2 -27.8 114.95 -35.55 114.55 -50.55 114.45 -53.85 114.1 -65.45 113.7 -79.8 126.25 -80.15 126.7 -64.0 120.5 -65.35 122.65 -63.15 126.85 -58.75 122.65 -63.15 120.5 -65.35 126.7 -64.0 M127.7 -29.9 Q123.65 -29.95 118.85 -28.9 L115.2 -27.8 118.85 -28.9 Q123.65 -29.95 127.7 -29.9 M114.95 -35.55 L120.3 -38.25 127.35 -41.25 120.3 -38.25 114.95 -35.55 M114.45 -53.85 L117.9 -52.65 121.3 -51.25 122.45 -51.25 127.05 -51.4 122.45 -51.25 121.3 -51.25 114.7 -50.55 114.55 -50.55 114.7 -50.55 121.3 -51.25 117.9 -52.65 114.45 -53.85 M114.1 -65.45 L115.3 -65.6 120.5 -65.35 115.3 -65.6 114.1 -65.45" fill="#c7ae7d" fill-rule="evenodd" stroke="none"/>
      <path d="M126.7 -64.0 L120.5 -65.35 122.65 -63.15 126.85 -58.75 M127.05 -51.4 L122.45 -51.25 121.3 -51.25 114.7 -50.55 114.55 -50.55 M120.5 -65.35 L115.3 -65.6 114.1 -65.45 M121.3 -51.25 L117.9 -52.65 114.45 -53.85 M127.35 -41.25 L120.3 -38.25 114.95 -35.55 M115.2 -27.8 L118.85 -28.9 Q123.65 -29.95 127.7 -29.9" fill="none" stroke="#000000" stroke-linecap="round" stroke-linejoin="round" stroke-opacity="0.33333334" stroke-width="1.0"/>
      <path d="M126.7 -64.0 L126.85 -58.75 127.05 -51.4 127.35 -41.25 127.7 -29.9 127.9 -23.35 115.35 -23.0 115.2 -27.8 114.95 -35.55 114.55 -50.55 114.45 -53.85 114.1 -65.45 113.7 -79.8 126.25 -80.15 126.7 -64.0 Z" fill="none" stroke="#000000" stroke-linecap="round" stroke-linejoin="round" stroke-opacity="0.6627451" stroke-width="1.0"/>
      <path d="M126.85 -59.35 L114.3 -59.0 113.7 -79.8 126.25 -80.15 126.85 -59.35" fill="url(#gradient0)" fill-rule="evenodd" stroke="none"/>
      <path d="M115.35 -23.0 L114.85 -39.85 127.4 -40.2 127.9 -23.35 115.35 -23.0" fill="url(#gradient1)" fill-rule="evenodd" stroke="none"/>
      <path d="M132.75 -37.65 L134.6 -37.15 136.55 -33.75 Q137.75 -31.1 137.9 -28.2 138.05 -25.3 137.25 -22.25 L136.95 -21.0 136.25 -20.45 136.05 -24.0 Q135.55 -27.6 134.15 -29.25 L133.45 -29.1 Q133.05 -29.0 132.8 -29.3 L131.8 -31.8 130.15 -35.05 128.85 -35.2 127.0 -34.55 125.65 -34.75 124.65 -34.9 125.1 -35.25 127.8 -37.0 128.45 -37.25 132.75 -37.65" fill="#fff4e5" fill-rule="evenodd" stroke="none"/>
      <path d="M124.65 -34.9 L125.65 -34.75 127.0 -34.55 128.85 -35.2 130.15 -35.05 131.8 -31.8 132.8 -29.3 Q133.05 -29.0 133.45 -29.1 L134.15 -29.25 Q135.55 -27.6 136.05 -24.0 L136.25 -20.45 Q132.35 -16.8 126.3 -12.8 122.7 -11.05 120.35 -9.15 L97.45 13.0 94.95 14.55 88.0 19.1 87.9 18.95 Q90.15 15.7 93.5 11.5 L99.4 4.3 90.95 10.15 83.9 14.9 Q83.9 14.4 84.25 13.75 L84.95 12.4 84.85 12.2 84.8 12.05 83.55 12.8 82.35 13.5 Q82.9 11.9 84.85 9.25 101.5 -7.05 116.2 -22.35 119.05 -28.65 123.25 -33.6 L124.65 -34.9" fill="url(#gradient2)" fill-rule="evenodd" stroke="none"/>
      <path d="M84.85 9.25 Q82.9 11.9 82.35 13.5 L83.55 12.8 84.8 12.05 84.85 12.2 84.95 12.4 84.25 13.75 Q83.9 14.4 83.9 14.9 L90.95 10.15 99.4 4.3 93.5 11.5 Q90.15 15.7 87.9 18.95 L88.0 19.1 94.95 14.55 97.45 13.0 74.3 35.2 71.7 37.65 52.15 71.9 42.65 88.15 37.35 88.55 36.6 88.4 34.4 87.7 34.15 87.6 Q40.7 73.25 49.65 58.2 54.1 50.8 59.1 43.25 L59.25 43.05 59.2 43.05 59.15 43.0 59.1 43.15 59.05 43.2 51.6 49.4 Q32.15 65.55 18.1 75.3 L11.6 79.7 8.6 70.2 Q28.15 57.4 67.1 26.2 L68.05 25.4 68.65 24.9 84.85 9.25 M69.15 28.75 L66.8 32.0 Q62.85 37.5 59.3 43.05 L59.25 43.05 59.3 43.05 Q62.85 37.5 66.8 32.0 L69.15 28.75 M70.7 38.55 L71.7 37.65 70.7 38.55" fill="url(#gradient3)" fill-rule="evenodd" stroke="none"/>
      <path d="M59.05 43.2 L59.1 43.25 Q54.1 50.8 49.65 58.2 40.7 73.25 34.15 87.6 L34.35 87.8 34.0 88.2 29.0 95.7 19.2 94.7 Q21.9 88.5 29.2 78.15 37.55 66.4 51.6 49.4 L59.05 43.2" fill="#005742" fill-rule="evenodd" stroke="none"/>
      <path d="M36.6 88.4 L37.35 88.55 42.65 88.15 52.15 71.9 71.7 37.65 74.3 35.2 Q56.8 65.45 45.5 90.1 40.95 89.85 36.6 88.4" fill="url(#gradient4)" fill-rule="evenodd" stroke="none"/>
      <path d="M51.6 49.4 Q37.55 66.4 29.2 78.15 L21.25 84.95 Q18.65 80.85 18.1 75.3 32.15 65.55 51.6 49.4" fill="#004d31" fill-rule="evenodd" stroke="none"/>
      <path d="M137.25 -22.25 L137.7 -22.55 138.55 -23.75 139.2 -24.75 140.35 -25.05 Q141.25 -25.1 141.4 -25.35 141.65 -25.55 141.45 -26.15 141.35 -26.8 141.75 -27.2 L143.25 -27.6 M137.9 -28.2 L138.95 -28.45 140.6 -29.05 Q140.95 -29.35 140.75 -30.1 140.5 -30.75 141.25 -31.4 L141.9 -31.8 142.6 -32.3 142.8 -32.6 M132.75 -37.65 L133.4 -38.05 134.45 -38.65 134.4 -39.45 Q134.3 -40.05 134.7 -40.4 134.95 -40.75 135.5 -40.9 L136.15 -41.1 136.4 -41.6 136.5 -41.75 136.8 -42.15 Q137.15 -42.5 138.3 -42.55 M132.75 -37.65 L134.6 -37.15 136.55 -33.75 136.75 -33.9 137.0 -35.1 Q136.95 -36.1 137.25 -36.35 137.5 -36.6 138.05 -36.7 L138.85 -36.95 Q139.1 -37.25 139.05 -38.05 139.0 -38.8 139.1 -39.0 L139.55 -39.15 M127.8 -37.0 L128.4 -37.3 Q128.95 -37.55 129.1 -37.7 129.55 -38.1 129.25 -38.8 128.95 -39.55 129.5 -40.0 L130.0 -40.35 130.8 -40.45 130.65 -41.15 Q130.55 -41.45 131.0 -41.9 L132.0 -42.35 M125.1 -35.25 Q125.05 -35.8 125.45 -36.25 L126.6 -37.4 Q127.35 -38.5 127.05 -39.5 126.9 -40.25 127.25 -40.6 L127.9 -41.05 M124.65 -34.9 L123.25 -33.6 Q119.05 -28.65 116.2 -22.35 101.5 -7.05 84.85 9.25 L68.65 24.9 68.05 25.4 67.1 26.2 Q28.15 57.4 8.6 70.2 L11.6 79.7 18.1 75.3 Q32.15 65.55 51.6 49.4 37.55 66.4 29.2 78.15 21.9 88.5 19.2 94.7 L29.0 95.7 34.0 88.2 34.35 87.8 34.4 87.7 36.6 88.4 Q40.95 89.85 45.5 90.1 56.8 65.45 74.3 35.2 L97.45 13.0 120.35 -9.15 Q122.7 -11.05 126.3 -12.8 132.35 -16.8 136.25 -20.45 L136.95 -21.0 137.25 -22.25 Q138.05 -25.3 137.9 -28.2 137.75 -31.1 136.55 -33.75 M125.1 -35.25 L127.8 -37.0 128.45 -37.25 132.75 -37.65 M124.65 -34.9 L125.1 -35.25 M59.2 43.05 L59.1 43.15 59.1 43.25 59.25 43.05 59.2 43.05 59.15 43.0 59.1 43.15 59.05 43.2 51.6 49.4 M59.1 43.25 Q54.1 50.8 49.65 58.2 40.7 73.25 34.15 87.6 L34.4 87.7 M71.7 37.65 L70.7 38.55 M59.25 43.05 L59.3 43.05 Q62.85 37.5 66.8 32.0 L69.15 28.75 M74.3 35.2 L71.7 37.65 M29.2 78.15 L21.25 84.95 Q18.65 80.85 18.1 75.3" fill="none" stroke="#000000" stroke-linecap="round" stroke-linejoin="round" stroke-opacity="0.5019608" stroke-width="1.0"/>
      <path d="M115.2 -19.5 Q115.45 -15.9 117.5 -12.55 115.45 -15.9 115.2 -19.5 121.4 -16.25 128.0 -15.05 128.7 -11.6 126.15 -10.2 121.75 -10.8 117.5 -12.55 114.2 -13.9 110.95 -15.95 109.8 -19.25 112.75 -20.8 114.0 -20.1 115.2 -19.5" fill="#c7aa79" fill-rule="evenodd" stroke="none"/>
      <path d="M115.2 -19.5 Q114.0 -20.1 112.75 -20.8 109.8 -19.25 110.95 -15.95 114.2 -13.9 117.5 -12.55 121.75 -10.8 126.15 -10.2 128.7 -11.6 128.0 -15.05 121.4 -16.25 115.2 -19.5" fill="none" stroke="#000000" stroke-linecap="round" stroke-linejoin="round" stroke-opacity="0.5019608" stroke-width="1.0"/>
      <path d="M117.5 -12.55 Q115.45 -15.9 115.2 -19.5 Z" fill="none" stroke="#000000" stroke-linecap="round" stroke-linejoin="round" stroke-opacity="0.33333334" stroke-width="0.6000000000000001"/>
      <path d="M116.6 -18.4 Q120.55 -17.3 123.05 -14.7 120.55 -17.3 116.6 -18.4 L114.7 -23.5 Q117.15 -26.05 119.75 -24.75 122.05 -20.1 123.05 -14.7 123.55 -11.95 123.65 -8.95 121.65 -6.25 118.55 -7.75 118.15 -13.25 116.6 -18.4" fill="#d9bf91" fill-rule="evenodd" stroke="none"/>
      <path d="M116.6 -18.4 Q118.15 -13.25 118.55 -7.75 121.65 -6.25 123.65 -8.95 123.55 -11.95 123.05 -14.7 122.05 -20.1 119.75 -24.75 117.15 -26.05 114.7 -23.5 L116.6 -18.4" fill="none" stroke="#000000" stroke-linecap="round" stroke-linejoin="round" stroke-opacity="0.5019608" stroke-width="1.0"/>
      <path d="M123.05 -14.7 Q120.55 -17.3 116.6 -18.4 Z" fill="none" stroke="#000000" stroke-linecap="round" stroke-linejoin="round" stroke-opacity="0.33333334" stroke-width="0.6000000000000001"/>
      <path d="M93.75 -114.2 L91.15 -115.65 84.0 -119.7 83.9 -119.55 89.9 -112.5 96.2 -105.6 87.45 -110.95 80.1 -115.3 80.55 -114.15 81.35 -112.9 81.25 -112.7 81.2 -112.55 79.95 -113.2 Q79.05 -113.4 78.65 -113.8 79.3 -112.3 81.45 -109.75 L64.35 -124.4 63.75 -124.9 62.7 -125.6 Q22.05 -154.5 1.8 -166.2 L4.2 -175.8 11.0 -171.8 Q25.55 -162.85 45.9 -147.9 L53.65 -142.1 53.7 -142.05 53.8 -141.95 53.85 -141.95 53.7 -142.15 Q48.3 -149.4 43.45 -156.6 33.6 -171.05 26.25 -185.0 L26.5 -185.1 28.7 -186.0 29.45 -186.15 Q33.95 -186.7 34.75 -186.05 L45.15 -170.4 66.6 -137.35 69.4 -135.0 93.75 -114.2 M65.6 -138.15 L66.6 -137.35 65.6 -138.15 M64.65 -128.25 L62.1 -131.4 53.9 -141.95 53.85 -141.95 53.9 -141.95 62.1 -131.4 64.65 -128.25" fill="url(#gradient5)" fill-rule="evenodd" stroke="none"/>
      <path d="M81.45 -109.75 Q79.3 -112.3 78.65 -113.8 79.05 -113.4 79.95 -113.2 L81.2 -112.55 81.25 -112.7 81.35 -112.9 80.55 -114.15 80.1 -115.3 87.45 -110.95 96.2 -105.6 89.9 -112.5 83.9 -119.55 84.0 -119.7 91.15 -115.65 93.75 -114.2 117.95 -93.45 Q120.4 -91.65 124.1 -90.1 130.35 -86.5 134.45 -83.05 L134.45 -79.5 Q134.15 -75.9 132.85 -74.15 L132.15 -74.3 Q131.75 -74.3 131.5 -74.0 L130.7 -71.5 Q129.8 -68.95 129.15 -68.15 128.8 -67.7 127.95 -67.9 L126.0 -68.45 124.65 -68.15 123.65 -68.0 122.25 -69.2 Q117.75 -73.85 114.5 -79.95 99.0 -94.45 81.45 -109.75" fill="url(#gradient6)" fill-rule="evenodd" stroke="none"/>
      <path d="M69.4 -135.0 L66.6 -137.35 45.15 -170.4 34.75 -186.05 Q33.95 -186.7 29.45 -186.15 L28.7 -186.0 Q32.95 -187.65 37.4 -188.2 50.2 -164.25 69.4 -135.0" fill="url(#gradient7)" fill-rule="evenodd" stroke="none"/>
      <path d="M26.25 -185.0 Q33.6 -171.05 43.45 -156.6 48.3 -149.4 53.7 -142.15 L53.65 -142.1 45.9 -147.9 Q30.85 -164.0 21.9 -175.25 14.0 -185.2 10.9 -191.2 14.55 -192.15 20.7 -192.8 L26.1 -185.6 26.45 -185.2 26.25 -185.0" fill="#005742" fill-rule="evenodd" stroke="none"/>
      <path d="M11.0 -171.8 Q11.15 -177.35 13.55 -181.65 L21.9 -175.25 Q30.85 -164.0 45.9 -147.9 25.55 -162.85 11.0 -171.8" fill="#004d31" fill-rule="evenodd" stroke="none"/>
      <path d="M123.65 -68.0 L124.65 -68.15 126.0 -68.45 127.95 -67.9 Q128.8 -67.7 129.15 -68.15 129.8 -68.95 130.7 -71.5 L131.5 -74.0 Q131.75 -74.3 132.15 -74.3 L132.85 -74.15 Q134.15 -75.9 134.45 -79.5 L134.45 -83.05 135.15 -82.5 135.55 -81.35 Q136.55 -78.3 136.5 -75.4 136.55 -72.5 135.55 -69.75 L133.8 -66.25 131.95 -65.65 127.65 -65.85 127.2 -65.95 127.0 -66.0 Q125.55 -66.6 124.2 -67.65 L123.65 -68.0" fill="#fff4e5" fill-rule="evenodd" stroke="none"/>
      <path d="M93.75 -114.2 L69.4 -135.0 66.6 -137.35 65.6 -138.15 M28.7 -186.0 L26.5 -185.1 26.25 -185.0 Q33.6 -171.05 43.45 -156.6 48.3 -149.4 53.7 -142.15 L53.85 -141.95 53.9 -141.95 62.1 -131.4 64.65 -128.25 M21.9 -175.25 Q14.0 -185.2 10.9 -191.2 14.55 -192.15 20.7 -192.8 L26.1 -185.6 26.45 -185.2 26.5 -185.1 M69.4 -135.0 Q50.2 -164.25 37.4 -188.2 32.95 -187.65 28.7 -186.0 M11.0 -171.8 L4.2 -175.8 1.8 -166.2 Q22.05 -154.5 62.7 -125.6 L63.75 -124.9 64.35 -124.4 81.45 -109.75 Q99.0 -94.45 114.5 -79.95 117.75 -73.85 122.25 -69.2 L123.65 -68.0 124.2 -67.65 Q125.55 -66.6 127.0 -66.0 L127.2 -65.95 127.65 -65.85 131.95 -65.65 133.8 -66.25 135.55 -69.75 Q136.55 -72.5 136.5 -75.4 136.55 -78.3 135.55 -81.35 L135.15 -82.5 134.45 -83.05 Q130.35 -86.5 124.1 -90.1 120.4 -91.65 117.95 -93.45 L93.75 -114.2 M21.9 -175.25 L13.55 -181.65 Q11.15 -177.35 11.0 -171.8 25.55 -162.85 45.9 -147.9 30.85 -164.0 21.9 -175.25 M53.65 -142.1 L45.9 -147.9 M53.65 -142.1 L53.7 -142.05 53.7 -142.15 M53.7 -142.05 L53.8 -141.95 53.85 -141.95 M135.55 -81.35 L136.0 -81.05 136.95 -79.85 137.6 -78.95 Q137.9 -78.65 138.75 -78.65 L139.9 -78.45 Q140.15 -78.25 139.95 -77.65 139.85 -77.0 140.35 -76.6 L141.85 -76.3 M136.5 -75.4 L137.55 -75.25 139.3 -74.75 Q139.65 -74.45 139.45 -73.7 139.3 -73.05 140.05 -72.4 140.2 -72.25 140.7 -72.0 L141.5 -71.6 141.7 -71.3 M135.55 -69.75 L135.75 -69.6 136.0 -68.5 Q136.05 -67.5 136.35 -67.25 136.6 -67.0 137.15 -66.9 L137.95 -66.75 Q138.3 -66.45 138.25 -65.65 138.2 -64.9 138.4 -64.7 L138.85 -64.55 M131.95 -65.65 L132.6 -65.35 133.65 -64.75 Q133.9 -64.6 133.7 -63.95 133.6 -63.35 134.0 -63.0 L134.9 -62.6 135.55 -62.4 135.8 -61.9 135.9 -61.75 136.2 -61.45 Q136.65 -61.1 137.8 -61.15 M124.2 -67.65 Q124.15 -67.1 124.55 -66.65 L125.8 -65.6 Q126.55 -64.5 126.35 -63.5 126.2 -62.75 126.65 -62.4 L127.3 -62.05 M127.2 -65.95 L127.6 -65.8 128.3 -65.4 Q128.75 -65.0 128.55 -64.3 128.25 -63.55 128.8 -63.1 L129.3 -62.85 130.2 -62.75 130.05 -62.05 Q129.95 -61.75 130.4 -61.3 130.7 -61.1 131.5 -60.95" fill="none" stroke="#000000" stroke-linecap="round" stroke-linejoin="round" stroke-opacity="0.5019608" stroke-width="1.0"/>
      <path d="M120.4 -86.2 Q116.75 -87.6 112.25 -88.2 116.75 -87.6 120.4 -86.2 115.6 -84.3 111.05 -81.25 108.0 -82.8 108.95 -86.0 110.55 -87.2 112.25 -88.2 117.8 -91.45 123.75 -92.65 126.4 -91.4 125.9 -87.9 L120.4 -86.2" fill="#c7aa79" fill-rule="evenodd" stroke="none"/>
      <path d="M120.4 -86.2 L125.9 -87.9 Q126.4 -91.4 123.75 -92.65 117.8 -91.45 112.25 -88.2 110.55 -87.2 108.95 -86.0 108.0 -82.8 111.05 -81.25 115.6 -84.3 120.4 -86.2" fill="none" stroke="#000000" stroke-linecap="round" stroke-linejoin="round" stroke-opacity="0.5019608" stroke-width="1.0"/>
      <path d="M112.25 -88.2 Q116.75 -87.6 120.4 -86.2 Z" fill="none" stroke="#000000" stroke-linecap="round" stroke-linejoin="round" stroke-opacity="0.33333334" stroke-width="0.6000000000000001"/>
      <path d="M120.95 -88.05 Q120.25 -82.6 118.25 -77.85 115.65 -76.35 113.1 -78.8 L114.5 -83.35 Q117.55 -84.2 120.95 -88.05 117.55 -84.2 114.5 -83.35 115.95 -88.8 116.05 -94.7 119.05 -96.35 121.15 -93.7 121.25 -90.8 120.95 -88.05" fill="#d9bf91" fill-rule="evenodd" stroke="none"/>
      <path d="M114.5 -83.35 L113.1 -78.8 Q115.65 -76.35 118.25 -77.85 120.25 -82.6 120.95 -88.05 121.25 -90.8 121.15 -93.7 119.05 -96.35 116.05 -94.7 115.95 -88.8 114.5 -83.35" fill="none" stroke="#000000" stroke-linecap="round" stroke-linejoin="round" stroke-opacity="0.5019608" stroke-width="1.0"/>
      <path d="M120.95 -88.05 Q117.55 -84.2 114.5 -83.35 Z" fill="none" stroke="#000000" stroke-linecap="round" stroke-linejoin="round" stroke-opacity="0.33333334" stroke-width="0.6000000000000001"/>
      <path d="M135.05 -66.95 L135.95 -66.55 Q138.0 -65.6 138.5 -64.2 L139.0 -62.5 139.95 -58.35 140.05 -57.1 139.8 -55.75 139.05 -54.55 Q138.4 -53.65 137.15 -52.95 L137.45 -54.7 Q137.45 -59.4 136.65 -62.9 136.05 -65.5 135.05 -66.95 M115.7 -51.45 L114.95 -51.55 Q113.55 -51.85 113.1 -52.2 112.45 -52.6 112.25 -53.4 112.1 -53.65 112.05 -54.25 111.45 -56.75 112.1 -59.85 112.4 -61.0 113.05 -62.2 113.7 -63.45 115.6 -64.4 L115.95 -64.6 Q114.85 -61.75 114.85 -57.1 L114.9 -54.0 Q115.1 -52.8 115.7 -51.45 M137.75 -50.6 L137.8 -50.6 Q138.25 -50.95 138.8 -50.95 139.8 -50.95 140.05 -49.85 L140.1 -49.65 140.25 -48.45 140.55 -46.1 Q140.55 -42.75 139.15 -41.4 L137.15 -40.05 137.55 -42.0 Q138.25 -45.15 138.25 -48.1 138.25 -49.5 137.75 -50.6 M110.6 -40.9 L109.85 -41.15 Q107.65 -42.1 107.05 -43.65 106.8 -44.3 106.8 -46.25 106.8 -48.45 106.95 -49.0 L107.8 -50.35 Q108.8 -51.45 109.7 -51.3 L110.4 -51.1 110.55 -50.8 Q110.85 -50.4 111.35 -50.2 L110.75 -49.7 Q110.05 -48.7 110.05 -44.8 110.05 -42.15 110.6 -40.9 M113.65 -28.5 L112.9 -28.95 112.25 -29.65 111.75 -30.8 111.55 -32.55 111.9 -34.2 112.3 -35.7 Q112.35 -36.15 113.3 -37.4 L113.5 -37.7 113.7 -37.8 115.55 -37.7 116.0 -37.6 114.95 -34.4 Q113.65 -30.25 113.65 -28.8 L113.65 -28.5 M136.75 -36.1 L136.9 -34.75 Q136.9 -29.8 135.75 -27.95 135.0 -26.7 133.5 -26.0 134.3 -29.7 134.85 -31.5 135.15 -32.6 136.15 -34.5 L136.75 -36.1" fill="#bdbdbd" fill-rule="evenodd" stroke="none"/>
      <path d="M137.15 -52.95 L136.45 -52.65 Q135.05 -52.0 132.15 -51.65 125.15 -50.65 116.45 -51.3 L116.3 -51.35 115.7 -51.45 Q115.1 -52.8 114.9 -54.0 L114.85 -57.1 Q114.85 -61.75 115.95 -64.6 117.85 -65.5 122.3 -66.65 L130.9 -67.6 135.05 -66.95 Q136.05 -65.5 136.65 -62.9 137.45 -59.4 137.45 -54.7 L137.15 -52.95 M137.15 -40.05 L136.2 -39.7 131.75 -38.85 Q128.85 -38.35 124.15 -38.75 L115.05 -39.95 110.6 -40.9 Q110.05 -42.15 110.05 -44.8 110.05 -48.7 110.75 -49.7 L111.35 -50.2 111.6 -50.15 111.8 -50.05 112.15 -49.95 116.45 -49.6 118.35 -49.5 122.45 -49.45 127.3 -49.45 132.25 -49.75 137.75 -50.6 Q138.25 -49.5 138.25 -48.1 138.25 -45.15 137.55 -42.0 L137.15 -40.05 M113.65 -28.5 L113.65 -28.8 Q113.65 -30.25 114.95 -34.4 L116.0 -37.6 129.4 -36.9 135.0 -37.35 136.1 -36.95 136.75 -36.1 136.15 -34.5 Q135.15 -32.6 134.85 -31.5 134.3 -29.7 133.5 -26.0 131.6 -25.2 128.65 -25.2 L126.75 -25.1 124.7 -25.1 Q120.3 -25.3 116.25 -27.1 114.9 -27.75 113.65 -28.5" fill="#999999" fill-rule="evenodd" stroke="none"/>
      <path d="M137.15 -52.95 Q138.4 -53.65 139.05 -54.55 L139.8 -55.75 140.05 -57.1 139.95 -58.35 139.0 -62.5 138.5 -64.2 Q138.0 -65.6 135.95 -66.55 L135.05 -66.95 130.9 -67.6 122.3 -66.65 Q117.85 -65.5 115.95 -64.6 L115.6 -64.4 Q113.7 -63.45 113.05 -62.2 112.4 -61.0 112.1 -59.85 111.45 -56.75 112.05 -54.25 112.1 -53.65 112.25 -53.4 112.45 -52.6 113.1 -52.2 113.55 -51.85 114.95 -51.55 L115.7 -51.45 116.3 -51.35 116.45 -51.3 Q125.15 -50.65 132.15 -51.65 135.05 -52.0 136.45 -52.65 L137.15 -52.95 M140.45 -62.35 Q141.3 -59.55 141.3 -57.4 L141.15 -55.95 141.2 -55.3 140.25 -52.7 140.15 -52.25 140.25 -52.2 Q140.3 -51.95 140.6 -51.85 L140.65 -51.85 Q141.8 -51.05 142.2 -48.75 142.55 -47.0 142.4 -45.1 142.4 -41.95 140.7 -40.15 139.7 -39.05 138.05 -38.3 L138.6 -37.45 Q138.9 -36.7 138.9 -35.15 138.9 -27.15 135.7 -24.7 133.25 -22.85 125.9 -22.85 123.9 -22.85 119.75 -24.25 119.25 -24.8 118.45 -25.0 L116.05 -25.65 116.0 -25.65 112.9 -27.2 110.2 -29.05 Q109.65 -29.7 109.65 -31.25 109.65 -33.25 110.5 -36.2 L111.3 -37.7 111.8 -38.4 111.2 -38.55 109.25 -37.4 Q106.55 -35.95 105.15 -35.95 L103.55 -36.4 Q103.85 -36.9 108.1 -38.45 L109.3 -39.2 Q107.85 -39.75 106.9 -40.4 105.2 -41.55 104.9 -43.15 104.75 -44.0 104.95 -45.2 104.85 -48.25 105.8 -50.6 107.1 -53.65 109.9 -53.25 L109.9 -53.95 110.0 -57.3 108.8 -57.9 106.9 -59.0 Q107.4 -60.15 109.85 -59.6 L110.2 -59.5 Q110.4 -61.25 110.8 -62.1 112.4 -65.45 117.35 -67.1 L122.15 -68.2 126.1 -68.65 127.2 -68.75 127.5 -68.8 127.6 -68.8 129.8 -68.9 130.4 -68.9 Q134.9 -68.95 136.55 -68.0 138.25 -66.95 138.8 -66.15 L139.4 -65.05 140.45 -62.35 M137.15 -40.05 L139.15 -41.4 Q140.55 -42.75 140.55 -46.1 L140.25 -48.45 140.1 -49.65 140.05 -49.85 Q139.8 -50.95 138.8 -50.95 138.25 -50.95 137.8 -50.6 L137.75 -50.6 132.25 -49.75 127.3 -49.45 122.45 -49.45 118.35 -49.5 116.45 -49.6 112.15 -49.95 111.8 -50.05 111.6 -50.15 111.35 -50.2 Q110.85 -50.4 110.55 -50.8 L110.4 -51.1 109.7 -51.3 Q108.8 -51.45 107.8 -50.35 L106.95 -49.0 Q106.8 -48.45 106.8 -46.25 106.8 -44.3 107.05 -43.65 107.65 -42.1 109.85 -41.15 L110.6 -40.9 115.05 -39.95 124.15 -38.75 Q128.85 -38.35 131.75 -38.85 L136.2 -39.7 137.15 -40.05 M116.0 -37.6 L115.55 -37.7 113.7 -37.8 113.5 -37.7 113.3 -37.4 Q112.35 -36.15 112.3 -35.7 L111.9 -34.2 111.55 -32.55 111.75 -30.8 112.25 -29.65 112.9 -28.95 113.65 -28.5 Q114.9 -27.75 116.25 -27.1 120.3 -25.3 124.7 -25.1 L126.75 -25.1 128.65 -25.2 Q131.6 -25.2 133.5 -26.0 135.0 -26.7 135.75 -27.95 136.9 -29.8 136.9 -34.75 L136.75 -36.1 136.1 -36.95 135.0 -37.35 129.4 -36.9 116.0 -37.6" fill="#000000" fill-rule="evenodd" stroke="none"/>
      <path d="M-22.75 -58.45 L-22.35 -58.9 -21.35 -57.35 -21.25 -57.15 -18.2 -57.35 Q-10.1 -56.95 -3.1 -57.6 L-2.65 -57.7 -0.8 -57.95 2.3 -58.65 Q3.8 -59.1 4.0 -59.4 L4.3 -59.7 4.25 -60.0 4.25 -60.05 4.25 -60.25 4.15 -60.75 4.1 -61.85 4.05 -65.3 Q4.05 -67.15 7.55 -69.05 10.8 -70.85 15.65 -72.05 L20.6 -73.4 21.95 -73.6 24.0 -73.8 24.3 -73.8 Q27.3 -73.85 28.1 -72.6 L28.25 -72.2 28.75 -70.8 29.25 -68.7 29.25 -68.4 29.3 -67.85 29.3 -67.75 32.05 -67.9 Q36.45 -67.65 38.95 -66.2 41.2 -64.9 41.05 -63.35 L41.1 -57.65 Q41.1 -55.85 40.4 -53.75 L39.45 -51.8 Q46.45 -49.9 48.4 -47.9 49.55 -46.7 49.55 -43.4 49.55 -40.95 48.8 -38.75 48.15 -36.9 47.1 -35.8 L46.6 -35.55 46.3 -35.4 45.15 -35.35 43.15 -35.25 42.6 -35.25 39.2 -35.45 Q37.05 -35.5 35.4 -36.65 L34.3 -37.3 30.6 -37.2 29.8 -37.0 29.9 -36.45 42.2 -34.25 42.8 -34.1 Q46.8 -32.95 46.8 -27.9 46.8 -25.5 46.4 -24.0 46.15 -22.45 44.75 -20.95 L42.95 -20.65 41.75 -20.6 Q37.65 -20.7 33.8 -22.3 L33.65 -22.35 28.1 -23.75 27.2 -23.85 Q23.65 -23.8 21.0 -21.15 L12.4 -15.5 Q-1.3 -7.25 -17.7 -4.9 L-23.6 -4.6 -25.15 -4.6 Q-38.1 -4.6 -42.8 -7.9 L-43.35 -7.8 -45.05 -7.9 Q-49.7 -8.55 -54.75 -12.7 -59.2 -16.35 -59.95 -18.2 -62.5 -23.85 -62.75 -25.0 L-62.85 -30.2 Q-62.85 -39.7 -59.3 -47.6 -55.65 -55.8 -49.55 -59.2 L-49.2 -59.0 Q-49.05 -58.9 -49.05 -58.45 L-49.05 -58.3 -52.25 -54.95 Q-55.85 -50.4 -58.05 -44.3 -60.65 -36.9 -60.65 -30.05 -60.65 -18.85 -51.35 -13.65 -49.3 -12.5 -45.05 -10.9 L-44.95 -10.9 -44.9 -10.85 -45.05 -11.3 -45.15 -11.7 -45.2 -11.75 Q-46.6 -12.3 -48.15 -13.2 -51.95 -15.4 -51.95 -16.7 L-51.95 -16.8 Q-51.95 -21.35 -51.45 -23.0 L-50.6 -26.4 Q-49.85 -28.4 -48.8 -28.15 L-49.35 -26.55 -50.05 -23.8 -50.15 -21.65 -50.05 -19.6 -50.05 -19.45 Q-50.05 -16.35 -45.25 -14.5 L-45.05 -14.4 Q-40.4 -12.7 -40.35 -11.7 L-40.55 -11.2 Q-40.75 -10.9 -41.35 -10.9 L-42.25 -10.95 Q-41.5 -10.4 -38.55 -8.9 -35.65 -7.4 -29.25 -7.2 -22.9 -7.0 -14.65 -7.6 -6.45 -8.2 9.8 -16.3 L21.0 -23.7 Q23.05 -26.1 26.2 -26.0 L28.1 -25.95 30.9 -25.1 33.8 -24.0 35.75 -23.3 Q39.2 -22.25 42.75 -22.35 L43.85 -22.45 Q45.2 -23.65 45.2 -25.8 L45.3 -27.85 45.05 -30.45 Q44.45 -31.9 42.5 -32.45 L41.5 -32.65 Q38.7 -33.05 34.2 -34.2 31.1 -34.95 29.85 -35.45 L29.8 -35.5 Q29.3 -35.7 29.15 -35.85 L29.05 -35.9 Q28.65 -36.25 28.65 -36.95 L28.65 -37.0 28.3 -37.0 28.15 -37.15 Q28.75 -38.0 30.9 -38.8 L31.6 -39.1 32.4 -39.3 32.45 -39.3 33.65 -39.4 35.7 -38.2 Q37.3 -37.45 39.2 -37.2 L42.2 -37.05 43.3 -37.05 45.65 -37.55 Q46.4 -38.4 46.85 -40.0 47.35 -41.65 47.35 -43.35 47.35 -45.25 47.15 -45.65 46.55 -46.65 43.65 -48.15 L43.6 -48.2 38.25 -49.85 36.15 -50.65 33.05 -51.3 31.5 -51.15 25.65 -48.7 21.65 -47.1 Q21.25 -47.2 21.1 -47.4 L23.6 -49.2 24.9 -50.0 24.9 -50.2 Q24.9 -51.85 25.25 -52.15 25.6 -52.55 28.25 -53.6 L27.85 -54.45 Q28.55 -54.55 29.05 -54.15 L29.75 -53.55 30.55 -53.1 30.9 -52.95 31.5 -53.05 33.55 -53.25 36.95 -52.75 37.7 -52.5 38.45 -54.15 39.4 -56.75 39.45 -61.25 Q39.45 -63.85 38.75 -64.55 38.0 -65.3 36.6 -65.75 33.75 -66.75 28.05 -66.75 L23.2 -66.25 18.45 -65.5 Q18.2 -65.6 17.9 -65.75 19.05 -66.6 20.55 -66.95 L26.65 -67.65 27.85 -67.7 Q27.55 -68.0 27.4 -68.6 27.25 -69.15 27.25 -70.0 27.0 -71.6 26.3 -71.9 L23.75 -72.05 23.45 -72.05 Q19.75 -71.95 14.0 -69.85 L7.45 -67.05 Q6.1 -66.4 5.75 -65.35 5.6 -64.95 5.6 -63.75 L5.5 -60.5 5.55 -60.15 5.6 -60.15 5.6 -59.85 5.6 -59.75 8.95 -61.0 8.0 -59.3 7.65 -58.8 6.0 -57.7 Q2.2 -56.2 -2.65 -55.4 L-3.1 -55.35 -14.25 -54.75 -18.2 -54.95 -19.15 -54.95 -28.0 -54.55 Q-34.05 -53.9 -38.55 -51.3 -41.9 -49.4 -45.05 -47.85 L-47.2 -46.8 -45.05 -49.55 Q-42.8 -52.0 -39.8 -53.6 L-35.9 -55.5 Q-33.4 -56.4 -31.75 -56.5 L-22.6 -57.1 -22.8 -58.2 -22.75 -58.45 M26.85 -51.9 Q25.7 -51.35 25.85 -50.85 L26.0 -50.6 29.35 -52.3 28.75 -52.9 Q28.25 -52.45 26.85 -51.9" fill="#000000" fill-rule="evenodd" stroke="none"/>
      <path d="M-22.75 -58.45 L-22.8 -58.2 -22.6 -57.1 -31.75 -56.5 Q-33.4 -56.4 -35.9 -55.5 L-39.8 -53.6 Q-42.8 -52.0 -45.05 -49.55 L-47.2 -46.8 -45.05 -47.85 Q-41.9 -49.4 -38.55 -51.3 -34.05 -53.9 -28.0 -54.55 L-19.15 -54.95 -18.2 -54.95 -14.25 -54.75 -3.1 -55.35 -2.65 -55.4 Q2.2 -56.2 6.0 -57.7 L7.65 -58.8 8.0 -59.3 8.95 -61.0 5.6 -59.75 5.6 -59.85 5.6 -60.15 5.55 -60.15 5.5 -60.5 5.6 -63.75 Q5.6 -64.95 5.75 -65.35 6.1 -66.4 7.45 -67.05 L14.0 -69.85 Q19.75 -71.95 23.45 -72.05 L24.5 -70.2 Q25.3 -68.45 26.65 -67.65 L20.55 -66.95 Q19.05 -66.6 17.9 -65.75 18.2 -65.6 18.45 -65.5 L23.2 -66.25 28.05 -66.75 Q33.75 -66.75 36.6 -65.75 L37.0 -65.4 Q37.65 -64.55 37.65 -59.2 L37.3 -55.5 36.95 -52.75 33.55 -53.25 31.5 -53.05 30.9 -52.95 30.55 -53.1 29.75 -53.55 29.05 -54.15 Q28.55 -54.55 27.85 -54.45 L28.25 -53.6 Q25.6 -52.55 25.25 -52.15 24.9 -51.85 24.9 -50.2 L24.9 -50.0 23.6 -49.2 21.1 -47.4 Q21.25 -47.2 21.65 -47.1 L25.65 -48.7 31.5 -51.15 33.05 -51.3 36.15 -50.65 38.25 -49.85 43.6 -48.2 43.65 -48.15 Q45.15 -46.75 45.15 -43.7 45.15 -42.2 43.65 -38.1 L43.3 -37.05 42.2 -37.05 39.2 -37.2 Q37.3 -37.45 35.7 -38.2 L33.65 -39.4 32.45 -39.3 32.4 -39.3 31.6 -39.1 30.9 -38.8 Q28.75 -38.0 28.15 -37.15 L28.3 -37.0 28.65 -37.0 28.65 -36.95 Q28.65 -36.25 29.05 -35.9 L29.15 -35.85 Q29.3 -35.7 29.8 -35.5 L29.85 -35.45 Q31.1 -34.95 34.2 -34.2 38.7 -33.05 41.5 -32.65 L42.5 -32.45 42.8 -30.75 43.4 -26.35 Q43.4 -24.15 42.85 -22.65 L42.75 -22.35 Q39.2 -22.25 35.75 -23.3 L33.8 -24.0 30.9 -25.1 28.1 -25.95 26.2 -26.0 Q23.05 -26.1 21.0 -23.7 L9.8 -16.3 Q-6.45 -8.2 -14.65 -7.6 -22.9 -7.0 -29.25 -7.2 -35.65 -7.4 -38.55 -8.9 -41.5 -10.4 -42.25 -10.95 L-41.35 -10.9 Q-40.75 -10.9 -40.55 -11.2 L-40.35 -11.7 Q-40.4 -12.7 -45.05 -14.4 L-45.25 -14.5 Q-50.05 -16.35 -50.05 -19.45 L-50.05 -19.6 -50.15 -21.65 -50.05 -23.8 -49.35 -26.55 -48.8 -28.15 Q-49.85 -28.4 -50.6 -26.4 L-51.45 -23.0 Q-51.95 -21.35 -51.95 -16.8 -53.2 -17.9 -53.85 -18.95 L-57.25 -24.55 Q-57.6 -25.5 -57.6 -29.7 -57.6 -35.2 -57.0 -38.5 -56.25 -42.75 -54.1 -46.95 L-50.7 -54.0 Q-49.2 -56.7 -47.45 -58.35 L-45.05 -58.35 -39.2 -58.5 -28.65 -58.9 -25.45 -58.85 -22.75 -58.45" fill="#999999" fill-rule="evenodd" stroke="none"/>
      <path d="M23.45 -72.05 L23.75 -72.05 26.3 -71.9 Q27.0 -71.6 27.25 -70.0 27.25 -69.15 27.4 -68.6 27.55 -68.0 27.85 -67.7 L26.65 -67.65 Q25.3 -68.45 24.5 -70.2 L23.45 -72.05 M36.6 -65.75 Q38.0 -65.3 38.75 -64.55 39.45 -63.85 39.45 -61.25 L39.4 -56.75 38.45 -54.15 37.7 -52.5 36.95 -52.75 37.3 -55.5 37.65 -59.2 Q37.65 -64.55 37.0 -65.4 L36.6 -65.75 M43.65 -48.15 Q46.55 -46.65 47.15 -45.65 47.35 -45.25 47.35 -43.35 47.35 -41.65 46.85 -40.0 46.4 -38.4 45.65 -37.55 L43.3 -37.05 43.65 -38.1 Q45.15 -42.2 45.15 -43.7 45.15 -46.75 43.65 -48.15 M42.5 -32.45 Q44.45 -31.9 45.05 -30.45 L45.3 -27.85 45.2 -25.8 Q45.2 -23.65 43.85 -22.45 L42.75 -22.35 42.85 -22.65 Q43.4 -24.15 43.4 -26.35 L42.8 -30.75 42.5 -32.45 M-51.95 -16.8 L-51.95 -16.7 Q-51.95 -15.4 -48.15 -13.2 -46.6 -12.3 -45.2 -11.75 L-45.15 -11.7 -45.05 -11.3 -44.9 -10.85 -44.95 -10.9 -45.05 -10.9 Q-49.3 -12.5 -51.35 -13.65 -60.65 -18.85 -60.65 -30.05 -60.65 -36.9 -58.05 -44.3 -55.85 -50.4 -52.25 -54.95 L-49.05 -58.3 -49.05 -58.45 -47.45 -58.35 Q-49.2 -56.7 -50.7 -54.0 L-54.1 -46.95 Q-56.25 -42.75 -57.0 -38.5 -57.6 -35.2 -57.6 -29.7 -57.6 -25.5 -57.25 -24.55 L-53.85 -18.95 Q-53.2 -17.9 -51.95 -16.8" fill="#bdbdbd" fill-rule="evenodd" stroke="none"/>
    </g>
    <linearGradient gradientTransform="matrix(-0.0036, 0.0067, -0.0112, -0.006, 120.3, -69.65)" gradientUnits="userSpaceOnUse" id="gradient0" spreadMethod="pad" x1="-819.2" x2="819.2">
      <stop offset="0.0" stop-color="#000000" stop-opacity="0.42352942"/>
      <stop offset="1.0" stop-color="#000000" stop-opacity="0.0"/>
    </linearGradient>
    <linearGradient gradientTransform="matrix(-0.0022, -0.0074, 0.0099, -0.0029, 121.35, -31.65)" gradientUnits="userSpaceOnUse" id="gradient1" spreadMethod="pad" x1="-819.2" x2="819.2">
      <stop offset="0.0" stop-color="#000000" stop-opacity="0.42352942"/>
      <stop offset="1.0" stop-color="#000000" stop-opacity="0.0"/>
    </linearGradient>
    <linearGradient gradientTransform="matrix(-0.0125, 0.0115, -0.0302, -0.0325, 89.5, 0.1)" gradientUnits="userSpaceOnUse" id="gradient2" spreadMethod="pad" x1="-819.2" x2="819.2">
      <stop offset="0.0" stop-color="#ffffff"/>
      <stop offset="1.0" stop-color="#009933"/>
    </linearGradient>
    <linearGradient gradientTransform="matrix(0.0177, -0.0165, 0.0481, 0.0516, 71.45, 31.2)" gradientUnits="userSpaceOnUse" id="gradient3" spreadMethod="pad" x1="-819.2" x2="819.2">
      <stop offset="0.0" stop-color="#006641"/>
      <stop offset="1.0" stop-color="#009933"/>
    </linearGradient>
    <linearGradient gradientTransform="matrix(0.0177, -0.0165, 0.0481, 0.0516, 71.45, 31.2)" gradientUnits="userSpaceOnUse" id="gradient4" spreadMethod="pad" x1="-819.2" x2="819.2">
      <stop offset="0.0" stop-color="#008a55"/>
      <stop offset="1.0" stop-color="#009933"/>
    </linearGradient>
    <linearGradient gradientTransform="matrix(0.0186, 0.0155, 0.0451, -0.0543, 66.75, -130.9)" gradientUnits="userSpaceOnUse" id="gradient5" spreadMethod="pad" x1="-819.2" x2="819.2">
      <stop offset="0.0" stop-color="#006641"/>
      <stop offset="1.0" stop-color="#009933"/>
    </linearGradient>
    <linearGradient gradientTransform="matrix(-0.0131, -0.0108, -0.0282, 0.0342, 86.6, -100.9)" gradientUnits="userSpaceOnUse" id="gradient6" spreadMethod="pad" x1="-819.2" x2="819.2">
      <stop offset="0.0" stop-color="#ffffff"/>
      <stop offset="1.0" stop-color="#009933"/>
    </linearGradient>
    <linearGradient gradientTransform="matrix(0.0186, 0.0155, 0.0451, -0.0543, 66.75, -130.9)" gradientUnits="userSpaceOnUse" id="gradient7" spreadMethod="pad" x1="-819.2" x2="819.2">
      <stop offset="0.0" stop-color="#008a55"/>
      <stop offset="1.0" stop-color="#009933"/>
    </linearGradient>
  </defs>
</svg>
