<?xml version="1.0" encoding="UTF-8" standalone="no"?>
<svg xmlns:xlink="http://www.w3.org/1999/xlink" height="531.5px" width="460.6px" xmlns="http://www.w3.org/2000/svg">
  <g transform="matrix(1.0, 0.0, 0.0, 1.0, 193.65, 334.05)">
    <use height="359.2" transform="matrix(0.7526, 0.0, 0.0, 0.7526, 49.5335, -184.6903)" width="124.2" xlink:href="#sprite0"/>
    <use height="53.15" transform="matrix(1.0, 0.0, 0.0, 1.0, 79.5, -72.55)" width="49.75" xlink:href="#shape1"/>
    <use height="47.9" transform="matrix(0.6514, 0.0767, -0.0767, 0.6514, 15.3259, -64.7957)" width="248.9" xlink:href="#shape2"/>
    <use height="67.2" transform="matrix(0.5655, -0.0691, 0.0691, 0.5655, 10.0193, -71.8434)" width="266.25" xlink:href="#shape3"/>
    <use height="69.2" transform="matrix(1.0, 0.0, 0.0, 1.0, -70.05, -70.35)" width="112.4" xlink:href="#shape4"/>
  </g>
  <defs>
    <g id="sprite0" transform="matrix(1.0, 0.0, 0.0, 1.0, 61.75, 170.0)">
      <use height="359.2" transform="matrix(1.0, 0.0, 0.0, 1.0, -61.75, -170.0)" width="124.2" xlink:href="#shape0"/>
    </g>
    <g id="shape0" transform="matrix(1.0, 0.0, 0.0, 1.0, 61.75, 170.0)">
      <path d="M-10.25 -98.55 L-10.75 -94.25 -8.35 -91.65 M-10.75 -94.25 L-11.15 -90.9" fill="none" stroke="#000000" stroke-linecap="round" stroke-linejoin="round" stroke-opacity="0.5019608" stroke-width="0.9"/>
      <path d="M-1.55 63.75 Q-2.75 62.75 -2.1 61.3 L0.05 56.8 Q0.7 55.3 2.25 55.7 L-1.55 63.75 2.25 55.7 2.9 55.9 3.45 56.2 5.0 56.9 8.25 58.4 Q10.25 59.25 9.4 61.15 L7.3 65.7 Q6.45 67.45 4.5 66.55 L1.15 65.05 -0.3 64.35 -0.95 64.0 -1.55 63.75 M-0.3 64.35 L3.45 56.2 -0.3 64.35 M5.0 56.9 L1.15 65.05 5.0 56.9" fill="#919191" fill-rule="evenodd" stroke="none"/>
      <path d="M2.25 55.7 Q0.7 55.3 0.05 56.8 L-2.1 61.3 Q-2.75 62.75 -1.55 63.75 L2.25 55.7 2.9 55.9 3.45 56.2 5.0 56.9 8.25 58.4 Q10.25 59.25 9.4 61.15 L7.3 65.7 Q6.45 67.45 4.5 66.55 L1.15 65.05 -0.3 64.35 -0.95 64.0 -1.55 63.75 M1.15 65.05 L5.0 56.9 M3.45 56.2 L-0.3 64.35" fill="none" stroke="#000000" stroke-linecap="round" stroke-linejoin="round" stroke-opacity="0.4" stroke-width="0.7000000000000001"/>
      <path d="M7.4 56.95 Q10.25 55.45 12.85 56.35 L22.85 59.7 Q26.75 60.95 28.35 64.8 29.95 68.7 28.1 72.8 26.25 76.75 22.1 78.1 18.2 79.2 14.7 77.2 L5.75 71.7 Q3.35 70.3 2.7 67.2 L2.7 66.75 5.25 66.1 8.5 59.45 7.4 56.95 8.5 59.45 5.25 66.1 2.7 66.75 2.6 66.1 6.65 57.55 7.4 56.95" fill="#ff00ff" fill-rule="evenodd" stroke="none"/>
      <path d="M2.7 66.75 L2.7 67.2 Q3.35 70.3 5.75 71.7 L14.7 77.2 Q18.2 79.2 22.1 78.1 26.25 76.75 28.1 72.8 29.95 68.7 28.35 64.8 26.75 60.95 22.85 59.7 L12.85 56.35 Q10.25 55.45 7.4 56.95 L8.5 59.45 5.25 66.1 2.7 66.75 2.6 66.1 6.65 57.55 7.4 56.95" fill="none" stroke="#000000" stroke-linecap="round" stroke-linejoin="round" stroke-opacity="0.4" stroke-width="0.7000000000000001"/>
      <path d="M8.25 60.25 L13.3 61.75 16.7 62.75 19.6 63.0 Q20.55 63.0 20.8 63.3 L17.3 63.45 Q15.05 63.65 14.7 64.45 14.4 64.95 15.45 66.25 L15.8 66.75 16.0 66.75 Q18.45 67.15 20.55 68.15 L21.4 68.55 Q21.75 68.75 21.7 69.2 L20.8 69.25 Q19.85 69.35 18.35 68.55 16.85 67.85 15.8 66.75 13.05 66.25 12.75 67.1 12.55 67.35 13.3 68.1 L14.6 69.75 17.15 70.95 18.65 71.65 19.0 72.9 18.9 73.25 16.7 72.2 14.85 70.15 14.6 69.75 13.4 69.4 Q12.3 69.2 11.65 69.75 L13.75 72.35 Q15.15 74.25 15.0 74.65 L14.85 74.7 14.45 74.6 Q10.9 71.2 11.45 70.15 L11.65 69.75 9.75 67.55 Q8.65 66.5 6.0 65.1" fill="none" stroke="#000000" stroke-linecap="round" stroke-linejoin="round" stroke-opacity="0.4" stroke-width="0.7000000000000001"/>
      <path d="M0.5 53.65 Q3.05 54.6 3.65 57.35 L0.2 65.1 -4.6 65.25 0.5 53.65" fill="#999999" fill-rule="evenodd" stroke="none"/>
      <path d="M0.5 53.65 Q3.05 54.6 3.65 57.35 L0.2 65.1 -4.6 65.25" fill="none" stroke="#000000" stroke-linecap="round" stroke-linejoin="round" stroke-opacity="0.4" stroke-width="0.7000000000000001"/>
      <path d="M1.75 -60.75 Q1.1 -50.0 1.55 -39.1 2.0 -27.75 3.25 -16.35 4.45 -5.0 2.25 6.25 1.9 -35.4 -16.85 -75.85 -17.95 -95.9 -24.4 -116.35 L-24.25 -116.05 -16.85 -109.3 -12.6 -103.2 -5.45 -100.2 Q-3.25 -92.95 -5.45 -88.6 -1.3 -74.6 1.75 -60.75 M-10.3 77.2 L-8.35 75.0 Q-0.7 66.15 3.1 55.05 6.65 44.6 9.55 33.85 8.8 47.2 6.95 60.4 3.05 87.9 -5.45 114.9 -7.1 120.75 -9.15 126.35 -2.25 125.45 4.7 122.05 L4.7 121.9 5.0 119.15 Q4.95 117.25 5.3 115.9 5.65 114.6 6.65 113.5 7.6 112.4 8.35 112.45 L8.3 112.65 Q7.85 113.15 7.35 115.15 L7.05 116.8 Q6.95 117.3 7.1 117.65 L7.3 118.25 7.7 119.4 9.25 117.1 11.3 114.0 15.2 109.0 Q17.15 106.55 19.3 104.7 L20.55 101.6 Q21.45 99.4 22.5 98.15 23.4 96.95 25.55 95.6 27.55 94.35 28.05 94.5 L24.9 97.45 Q22.95 99.2 22.65 100.4 L22.4 102.15 22.4 102.4 Q23.85 101.5 25.45 100.85 29.0 99.3 33.8 98.9 L34.5 99.1 29.9 101.1 Q26.25 102.75 24.1 104.2 21.9 105.55 19.15 108.4 L15.4 112.6 14.3 114.0 23.3 113.6 31.6 113.0 37.75 111.65 41.15 110.75 41.35 110.8 Q40.9 112.3 36.25 113.8 L30.8 115.1 Q33.0 115.95 35.1 116.4 L35.05 116.6 29.4 116.8 Q27.25 116.2 26.15 115.5 L26.1 115.5 17.95 115.9 Q14.25 116.15 12.3 116.95 L11.8 117.85 10.95 119.3 9.1 121.75 6.6 124.2 1.9 128.1 -1.5 130.7 Q-7.25 134.4 -13.7 137.4 -18.4 147.75 -24.6 157.2 L-27.8 161.9 Q-27.35 159.5 -30.1 155.2 L-24.5 145.85 -18.95 136.2 Q-16.15 131.45 -13.95 126.4 -11.75 121.4 -11.1 115.95 -10.45 110.35 -11.3 104.85 -12.15 99.3 -13.4 94.05 -14.1 91.2 -14.95 88.6 -12.45 82.95 -10.3 77.2 M-48.95 141.35 Q-35.35 125.6 -25.45 108.9 -20.65 121.2 -31.6 144.0 L-35.6 148.6 Q-38.55 146.15 -41.55 144.45 -45.2 142.35 -48.95 141.35 M14.3 114.0 L13.9 114.05 14.3 114.0 M10.5 118.05 Q11.1 117.35 12.3 116.95 11.1 117.35 10.5 118.05 M7.9 120.3 L7.8 119.45 7.7 119.4 7.8 119.45 7.9 120.3 M26.1 115.5 L23.8 114.85 26.1 115.5 M22.1 103.9 L22.4 102.4 22.1 103.9 M-61.3 -140.5 L-58.1 -142.45 Q-54.7 -137.95 -50.35 -134.2 L-41.15 -126.55 Q-36.35 -122.75 -33.2 -117.7 -30.35 -113.15 -29.3 -107.7 L-27.1 -96.75 -26.55 -94.55 Q-34.35 -108.1 -44.25 -121.55 -51.55 -131.5 -61.3 -140.45 L-61.3 -140.5 M-7.15 -91.4 L-7.75 -95.8 -8.15 -98.8 -7.75 -95.8 -5.95 -94.0 -7.75 -95.8 -7.15 -91.4 M-5.05 -76.8 L-6.25 -68.6 -5.05 -76.8 M-13.7 137.4 L-12.15 133.95 -13.7 137.4 M-10.05 128.8 L-9.15 126.35 -10.05 128.8 M-39.95 142.4 L-41.55 144.45 -39.95 142.4" fill="#845021" fill-rule="evenodd" stroke="none"/>
      <path d="M2.25 6.25 Q4.45 -5.0 3.25 -16.35 2.0 -27.75 1.55 -39.1 1.1 -50.0 1.75 -60.75 12.25 -12.75 9.55 33.85 6.65 44.6 3.1 55.05 -0.7 66.15 -8.35 75.0 L-10.3 77.2 -9.95 76.15 Q-7.15 68.25 -5.0 60.4 2.45 33.1 2.25 6.25" fill="#845921" fill-rule="evenodd" stroke="none"/>
      <path d="M-24.4 -116.35 Q-17.95 -95.9 -16.85 -75.85 -21.25 -85.25 -26.55 -94.55 L-27.1 -96.75 -29.3 -107.7 Q-30.35 -113.15 -33.2 -117.7 -36.35 -122.75 -41.15 -126.55 L-50.35 -134.2 Q-54.7 -137.95 -58.1 -142.45 -54.85 -145.0 -52.35 -149.05 L-52.2 -149.3 -50.75 -152.05 -48.45 -149.85 -50.15 -153.5 -50.1 -153.55 -49.3 -156.2 Q-48.6 -158.9 -48.4 -161.85 L-48.35 -161.9 -24.4 -116.35 M-25.45 108.9 Q-19.55 98.9 -14.95 88.6 -14.1 91.2 -13.4 94.05 -12.15 99.3 -11.3 104.85 -10.45 110.35 -11.1 115.95 -11.75 121.4 -13.95 126.4 -16.15 131.45 -18.95 136.2 L-24.5 145.85 -30.1 155.2 -33.0 151.35 -31.6 143.95 -31.6 144.0 Q-20.65 121.2 -25.45 108.9 M-48.1 -153.8 L-49.3 -156.2 -48.1 -153.8 M-47.35 -141.9 L-52.35 -149.05 -47.35 -141.9" fill="#8e5827" fill-rule="evenodd" stroke="none"/>
      <path d="M-27.8 161.9 Q-33.8 160.0 -38.15 157.2 -47.2 151.3 -48.95 141.35 -45.2 142.35 -41.55 144.45 -38.55 146.15 -35.6 148.6 L-31.6 144.0 -31.6 143.95 -33.0 151.35 -30.1 155.2 Q-27.35 159.5 -27.8 161.9 M-50.1 -153.55 L-52.3 -152.6 -50.75 -152.05 -52.2 -149.3 -52.35 -149.05 Q-54.85 -145.0 -58.1 -142.45 L-61.3 -140.5 Q-60.9 -146.35 -57.6 -152.0 -54.05 -158.1 -48.4 -161.85 -48.6 -158.9 -49.3 -156.2 L-50.1 -153.55 M-53.75 -153.3 Q-56.25 -149.75 -56.75 -148.05 L-57.3 -146.25 -57.2 -146.25 Q-56.65 -146.65 -55.8 -147.8 -54.85 -149.15 -54.2 -150.65 L-52.55 -154.05 -51.4 -156.95 -51.4 -157.4 -52.5 -156.35 -54.7 -153.5 -57.7 -148.5 Q-58.95 -145.05 -59.25 -144.6 L-59.25 -144.3 -59.25 -144.6 Q-58.95 -145.05 -57.7 -148.5 L-54.7 -153.5 -52.5 -156.35 -51.4 -157.4 -51.4 -156.95 -52.55 -154.05 -54.2 -150.65 Q-54.85 -149.15 -55.8 -147.8 -56.65 -146.65 -57.2 -146.25 L-57.3 -146.25 -56.75 -148.05 Q-56.25 -149.75 -53.75 -153.3 M-31.35 158.9 L-32.3 158.5 -38.55 154.75 -39.55 154.0 Q-42.2 152.1 -44.15 149.65 -45.55 147.8 -45.55 145.7 L-44.5 145.95 Q-41.15 146.8 -38.5 149.15 L-37.85 149.6 Q-36.05 150.8 -34.35 152.25 -32.65 153.75 -32.25 155.95 L-32.65 156.15 -38.45 153.25 -39.35 152.6 -40.8 151.5 Q-42.0 150.7 -42.15 149.45 L-40.95 149.6 -39.75 150.05 Q-37.65 151.3 -35.85 152.55 -37.65 151.3 -39.75 150.05 L-40.95 149.6 -42.15 149.45 Q-42.0 150.7 -40.8 151.5 L-39.35 152.6 -38.45 153.25 -32.65 156.15 -32.25 155.95 Q-32.65 153.75 -34.35 152.25 -36.05 150.8 -37.85 149.6 L-38.5 149.15 Q-41.15 146.8 -44.5 145.95 L-45.55 145.7 Q-45.55 147.8 -44.15 149.65 -42.2 152.1 -39.55 154.0 L-38.55 154.75 -32.3 158.5 -31.35 158.9" fill="#dbad71" fill-rule="evenodd" stroke="none"/>
      <path d="M-50.75 -152.05 L-52.3 -152.6 -50.1 -153.55 -50.15 -153.5 -48.45 -149.85 -50.75 -152.05" fill="#4f3514" fill-rule="evenodd" stroke="none"/>
      <path d="M2.25 6.25 Q4.45 -5.0 3.25 -16.35 2.0 -27.75 1.55 -39.1 1.1 -50.0 1.75 -60.75 M-24.4 -116.35 Q-17.95 -95.9 -16.85 -75.85 M-10.3 77.2 L-8.35 75.0 Q-0.7 66.15 3.1 55.05 6.65 44.6 9.55 33.85 M-50.15 -153.5 L-50.1 -153.55 -49.3 -156.2 Q-48.6 -158.9 -48.4 -161.85 M-61.3 -140.5 L-58.1 -142.45 Q-54.85 -145.0 -52.35 -149.05 L-52.2 -149.3 -50.75 -152.05 M-49.3 -156.2 L-48.1 -153.8 M-58.1 -142.45 Q-54.7 -137.95 -50.35 -134.2 L-41.15 -126.55 Q-36.35 -122.75 -33.2 -117.7 -30.35 -113.15 -29.3 -107.7 L-27.1 -96.75 -26.55 -94.55 M-52.35 -149.05 L-47.35 -141.9 M-30.1 155.2 L-24.5 145.85 -18.95 136.2 Q-16.15 131.45 -13.95 126.4 -11.75 121.4 -11.1 115.95 -10.45 110.35 -11.3 104.85 -12.15 99.3 -13.4 94.05 -14.1 91.2 -14.95 88.6 M-25.45 108.9 Q-20.65 121.2 -31.6 144.0" fill="none" stroke="#000000" stroke-linecap="round" stroke-linejoin="round" stroke-opacity="0.2" stroke-width="0.7000000000000001"/>
      <path d="M1.75 -60.75 Q-1.3 -74.6 -5.45 -88.6 -3.25 -92.95 -5.45 -100.2 L-12.6 -103.2 -16.85 -109.3 -24.25 -116.05 -24.4 -116.35 -48.35 -161.9 -48.4 -161.85 Q-54.05 -158.1 -57.6 -152.0 -60.9 -146.35 -61.3 -140.5 L-61.3 -140.45 Q-51.55 -131.5 -44.25 -121.55 -34.35 -108.1 -26.55 -94.55 -21.25 -85.25 -16.85 -75.85 1.9 -35.4 2.25 6.25 2.45 33.1 -5.0 60.4 -7.15 68.25 -9.95 76.15 L-10.3 77.2 Q-12.45 82.95 -14.95 88.6 -19.55 98.9 -25.45 108.9 -35.35 125.6 -48.95 141.35 -47.2 151.3 -38.15 157.2 -33.8 160.0 -27.8 161.9 L-24.6 157.2 Q-18.4 147.75 -13.7 137.4 -7.25 134.4 -1.5 130.7 L1.9 128.1 6.6 124.2 9.1 121.75 10.95 119.3 11.8 117.85 12.3 116.95 Q11.1 117.35 10.5 118.05 M9.55 33.85 Q12.25 -12.75 1.75 -60.75 M9.55 33.85 Q8.8 47.2 6.95 60.4 3.05 87.9 -5.45 114.9 -7.1 120.75 -9.15 126.35 -2.25 125.45 4.7 122.05 L4.7 121.9 5.0 119.15 Q4.95 117.25 5.3 115.9 5.65 114.6 6.65 113.5 7.6 112.4 8.35 112.45 L8.3 112.65 Q7.85 113.15 7.35 115.15 L7.05 116.8 Q6.95 117.3 7.1 117.65 L7.3 118.25 7.7 119.4 9.25 117.1 11.3 114.0 15.2 109.0 Q17.15 106.55 19.3 104.7 L20.55 101.6 Q21.45 99.4 22.5 98.15 23.4 96.95 25.55 95.6 27.55 94.35 28.05 94.5 L24.9 97.45 Q22.95 99.2 22.65 100.4 L22.4 102.15 22.4 102.4 Q23.85 101.5 25.45 100.85 29.0 99.3 33.8 98.9 L34.5 99.1 29.9 101.1 Q26.25 102.75 24.1 104.2 21.9 105.55 19.15 108.4 L15.4 112.6 14.3 114.0 23.3 113.6 31.6 113.0 37.75 111.65 41.15 110.75 41.35 110.8 Q40.9 112.3 36.25 113.8 L30.8 115.1 Q33.0 115.95 35.1 116.4 L35.05 116.6 29.4 116.8 Q27.25 116.2 26.15 115.5 L26.1 115.5 17.95 115.9 Q14.25 116.15 12.3 116.95 M22.4 102.4 L22.1 103.9 M23.8 114.85 L26.1 115.5 M7.7 119.4 L7.8 119.45 7.9 120.3 M13.9 114.05 L14.3 114.0 M-31.6 144.0 L-31.6 143.95 -33.0 151.35 -30.1 155.2 Q-27.35 159.5 -27.8 161.9 M-9.15 126.35 L-10.05 128.8 M-12.15 133.95 L-13.7 137.4 M-31.6 144.0 L-35.6 148.6 Q-38.55 146.15 -41.55 144.45 -45.2 142.35 -48.95 141.35 M-41.55 144.45 L-39.95 142.4" fill="none" stroke="#000000" stroke-linecap="round" stroke-linejoin="round" stroke-opacity="0.5019608" stroke-width="0.9"/>
      <path d="M-50.1 -153.55 L-52.3 -152.6 -50.75 -152.05 -48.45 -149.85 -50.15 -153.5 M-59.25 -144.3 L-59.25 -144.6 Q-58.95 -145.05 -57.7 -148.5 L-54.7 -153.5 -52.5 -156.35 -51.4 -157.4 -51.4 -156.95 -52.55 -154.05 -54.2 -150.65 Q-54.85 -149.15 -55.8 -147.8 -56.65 -146.65 -57.2 -146.25 L-57.3 -146.25 -56.75 -148.05 Q-56.25 -149.75 -53.75 -153.3" fill="none" stroke="#000000" stroke-linecap="round" stroke-linejoin="round" stroke-opacity="0.101960786" stroke-width="0.5"/>
      <path d="M-6.25 -68.6 L-5.05 -76.8 M-8.15 -98.8 L-7.75 -95.8 -5.95 -94.0 M-7.75 -95.8 L-7.15 -91.4" fill="none" stroke="#000000" stroke-linecap="round" stroke-linejoin="round" stroke-opacity="0.3019608" stroke-width="0.7000000000000001"/>
      <path d="M-35.85 152.55 Q-37.65 151.3 -39.75 150.05 L-40.95 149.6 -42.15 149.45 Q-42.0 150.7 -40.8 151.5 L-39.35 152.6 -38.45 153.25 -32.65 156.15 -32.25 155.95 Q-32.65 153.75 -34.35 152.25 -36.05 150.8 -37.85 149.6 L-38.5 149.15 Q-41.15 146.8 -44.5 145.95 L-45.55 145.7 Q-45.55 147.8 -44.15 149.65 -42.2 152.1 -39.55 154.0 L-38.55 154.75 -32.3 158.5 -31.35 158.9" fill="none" stroke="#000000" stroke-linecap="round" stroke-linejoin="round" stroke-opacity="0.101960786" stroke-width="0.7000000000000001"/>
      <path d="M25.35 91.4 L27.05 87.1 Q28.0 84.95 29.35 82.8 30.45 81.1 32.05 79.65 L33.4 78.55 34.1 78.15 31.35 83.25 29.4 86.6 27.1 91.15 25.8 94.55 24.85 97.55 24.7 98.1 24.85 94.2 25.35 91.4" fill="#006600" fill-rule="evenodd" stroke="none"/>
      <path d="M25.35 91.4 L27.05 87.1 Q28.0 84.95 29.35 82.8 30.45 81.1 32.05 79.65 L33.4 78.55 34.1 78.15 31.35 83.25 29.4 86.6 27.1 91.15 25.8 94.55 24.85 97.55 24.7 98.1 24.85 94.2 25.15 92.2 25.35 91.4 24.85 94.2" fill="none" stroke="#000000" stroke-linecap="round" stroke-linejoin="round" stroke-opacity="0.5019608" stroke-width="0.7000000000000001"/>
      <path d="M20.95 96.15 L20.9 96.0 Q20.95 94.3 21.15 92.6 21.3 90.9 21.8 89.15 22.25 87.75 23.05 86.45 L23.8 85.4 24.2 85.0 23.4 89.1 22.75 91.85 22.15 95.5 Q22.0 96.8 22.0 98.15 L22.05 100.45 22.05 100.9 21.2 98.05 21.2 97.85 21.15 97.55 20.95 96.15" fill="#006600" fill-rule="evenodd" stroke="none"/>
      <path d="M20.95 96.15 L20.9 96.0 Q20.95 94.3 21.15 92.6 21.3 90.9 21.8 89.15 22.25 87.75 23.05 86.45 L23.8 85.4 24.2 85.0 23.4 89.1 22.75 91.85 22.15 95.5 Q22.0 96.8 22.0 98.15 L22.05 100.45 22.05 100.9 21.2 98.05 21.2 97.85 21.15 97.55 20.95 96.55 20.95 96.15 21.15 97.55" fill="none" stroke="#000000" stroke-linecap="round" stroke-linejoin="round" stroke-opacity="0.5019608" stroke-width="0.7000000000000001"/>
      <path d="M16.45 103.35 L16.4 103.2 16.65 99.8 Q16.8 98.1 17.3 96.35 17.75 94.95 18.55 93.65 L19.3 92.6 19.7 92.2 18.9 96.3 18.25 99.05 17.65 102.7 Q17.5 104.0 17.5 105.35 L17.55 107.65 17.55 108.1 16.7 105.25 16.7 105.05 16.65 104.75 16.45 103.35" fill="#006600" fill-rule="evenodd" stroke="none"/>
      <path d="M16.45 103.35 L16.4 103.2 16.65 99.8 Q16.8 98.1 17.3 96.35 17.75 94.95 18.55 93.65 L19.3 92.6 19.7 92.2 18.9 96.3 18.25 99.05 17.65 102.7 Q17.5 104.0 17.5 105.35 L17.55 107.65 17.55 108.1 16.7 105.25 16.7 105.05 16.65 104.75 16.45 103.75 16.45 103.35 16.65 104.75" fill="none" stroke="#000000" stroke-linecap="round" stroke-linejoin="round" stroke-opacity="0.5019608" stroke-width="0.7000000000000001"/>
      <path d="M34.65 102.3 L33.75 103.25 31.35 105.0 Q29.75 105.85 28.1 106.35 L24.85 107.25 24.7 107.2 23.25 107.35 23.0 107.35 22.8 107.4 19.8 107.1 20.25 107.0 22.55 106.6 25.1 105.95 28.55 104.6 31.1 103.4 Q32.95 102.55 34.95 101.85 L34.65 102.3" fill="#006600" fill-rule="evenodd" stroke="none"/>
      <path d="M34.65 102.3 L34.95 101.85 Q32.95 102.55 31.1 103.4 L28.55 104.6 25.1 105.95 22.55 106.6 20.25 107.0 19.8 107.1 22.8 107.4 23.0 107.35 23.25 107.35 24.7 107.2 24.85 107.25 28.1 106.35 Q29.75 105.85 31.35 105.0 L33.75 103.25 34.65 102.3 M23.25 107.35 L24.3 107.3 24.7 107.2" fill="none" stroke="#000000" stroke-linecap="round" stroke-linejoin="round" stroke-opacity="0.5019608" stroke-width="0.7000000000000001"/>
      <path d="M44.05 98.4 L43.65 98.8 42.65 99.6 Q41.45 100.45 40.0 100.95 L36.55 101.8 33.25 102.25 33.1 102.15 31.65 102.1 31.4 102.05 31.15 102.1 28.25 101.35 28.75 101.3 31.1 101.25 33.7 101.0 37.3 100.15 40.0 99.3 44.05 98.4" fill="#006600" fill-rule="evenodd" stroke="none"/>
      <path d="M44.05 98.4 L40.0 99.3 37.3 100.15 33.7 101.0 31.1 101.25 28.75 101.3 28.25 101.35 31.15 102.1 31.4 102.05 31.65 102.1 33.1 102.15 33.25 102.25 36.55 101.8 40.0 100.95 Q41.45 100.45 42.65 99.6 L43.65 98.8 44.05 98.4 M31.65 102.1 L32.7 102.2 33.1 102.15" fill="none" stroke="#000000" stroke-linecap="round" stroke-linejoin="round" stroke-opacity="0.5019608" stroke-width="0.7000000000000001"/>
      <path d="M21.2 95.55 L21.7 95.5 24.05 95.45 26.65 95.2 30.25 94.35 32.95 93.5 37.0 92.6 36.6 93.0 35.6 93.8 32.95 95.15 29.5 96.0 26.2 96.45 26.05 96.35 24.6 96.3 24.35 96.25 24.1 96.3 21.2 95.55" fill="#006600" fill-rule="evenodd" stroke="none"/>
      <path d="M21.2 95.55 L24.1 96.3 24.35 96.25 24.6 96.3 26.05 96.35 26.2 96.45 29.5 96.0 32.95 95.15 35.6 93.8 36.6 93.0 37.0 92.6 32.95 93.5 30.25 94.35 26.65 95.2 24.05 95.45 21.7 95.5 21.2 95.55 M24.6 96.3 L25.65 96.4 26.05 96.35" fill="none" stroke="#000000" stroke-linecap="round" stroke-linejoin="round" stroke-opacity="0.5019608" stroke-width="0.7000000000000001"/>
      <path d="M28.15 118.4 L27.7 118.65 26.45 119.0 23.5 119.25 20.0 118.7 16.75 117.75 16.65 117.65 16.6 117.65 16.45 117.55 15.35 117.0 15.1 116.9 14.95 116.85 12.55 115.0 12.95 115.15 15.15 116.0 17.65 116.8 21.3 117.45 24.1 117.75 28.15 118.4" fill="#006600" fill-rule="evenodd" stroke="none"/>
      <path d="M28.15 118.4 L24.1 117.75 21.3 117.45 17.65 116.8 15.15 116.0 12.95 115.15 12.55 115.0 14.95 116.85 15.1 116.9 15.35 117.0 16.45 117.55 16.6 117.65 16.65 117.65 16.75 117.75 20.0 118.7 23.5 119.25 26.45 119.0 27.7 118.65 28.15 118.4 M15.35 117.0 L16.3 117.5 16.45 117.55" fill="none" stroke="#000000" stroke-linecap="round" stroke-linejoin="round" stroke-opacity="0.5019608" stroke-width="0.7000000000000001"/>
      <path d="M25.25 116.9 L25.05 116.75 24.85 116.65 22.75 114.55 23.2 114.75 25.25 115.9 27.55 117.05 31.05 118.2 33.85 118.9 37.75 120.2 37.2 120.35 35.95 120.55 33.0 120.3 Q31.25 119.9 29.6 119.2 L26.5 117.9 26.45 117.7 25.25 116.9" fill="#006600" fill-rule="evenodd" stroke="none"/>
      <path d="M25.25 116.9 L26.45 117.7 26.5 117.9 29.6 119.2 Q31.25 119.9 33.0 120.3 L35.95 120.55 37.2 120.35 37.75 120.2 33.85 118.9 31.05 118.2 27.55 117.05 25.25 115.9 23.2 114.75 22.75 114.55 24.85 116.65 25.05 116.75 25.25 116.9 26.1 117.55 26.45 117.7" fill="none" stroke="#000000" stroke-linecap="round" stroke-linejoin="round" stroke-opacity="0.5019608" stroke-width="0.7000000000000001"/>
      <path d="M44.6 118.1 L48.5 119.4 47.95 119.55 46.7 119.75 43.75 119.5 40.35 118.4 37.25 117.1 37.2 116.9 36.0 116.1 35.8 115.95 35.6 115.85 33.5 113.75 33.95 113.95 Q34.9 114.6 36.0 115.1 L38.3 116.25 41.8 117.4 44.6 118.1" fill="#006600" fill-rule="evenodd" stroke="none"/>
      <path d="M44.6 118.1 L41.8 117.4 38.3 116.25 36.0 115.1 Q34.9 114.6 33.95 113.95 L33.5 113.75 35.6 115.85 35.8 115.95 36.0 116.1 37.2 116.9 37.25 117.1 40.35 118.4 43.75 119.5 46.7 119.75 47.95 119.55 48.5 119.4 44.6 118.1 M36.0 116.1 L36.85 116.75 37.2 116.9" fill="none" stroke="#000000" stroke-linecap="round" stroke-linejoin="round" stroke-opacity="0.5019608" stroke-width="0.7000000000000001"/>
      <path d="M12.4 110.15 L12.35 110.05 12.35 109.95 12.1 107.6 12.15 105.2 Q12.3 104.2 12.7 103.2 L13.05 102.4 13.3 102.1 13.2 104.95 13.1 106.9 13.15 109.45 13.35 111.25 13.6 112.8 13.65 113.1 12.8 111.25 12.75 111.15 12.7 110.95 12.4 110.15" fill="#006600" fill-rule="evenodd" stroke="none"/>
      <path d="M12.4 110.15 L12.35 110.05 12.35 109.95 12.1 107.6 12.15 105.2 Q12.3 104.2 12.7 103.2 L13.05 102.4 13.3 102.1 13.2 104.95 13.1 106.9 13.15 109.45 13.35 111.25 13.6 112.8 13.65 113.1 12.8 111.25 12.75 111.15 12.7 110.95 12.4 110.3 12.4 110.15 12.7 110.95" fill="none" stroke="#000000" stroke-linecap="round" stroke-linejoin="round" stroke-opacity="0.5019608" stroke-width="0.5"/>
      <path d="M31.2 111.0 L31.2 110.95 31.25 110.85 31.3 110.75 32.8 108.9 Q33.6 108.0 34.55 107.25 35.35 106.65 36.35 106.25 L37.15 105.95 37.55 105.85 35.45 107.85 34.0 109.1 32.25 110.95 31.15 112.4 30.2 113.65 30.05 113.9 30.75 112.0 30.75 111.85 30.85 111.7 31.2 111.0" fill="#006600" fill-rule="evenodd" stroke="none"/>
      <path d="M31.2 111.0 L31.2 110.95 31.25 110.85 31.3 110.75 32.8 108.9 Q33.6 108.0 34.55 107.25 35.35 106.65 36.35 106.25 L37.15 105.95 37.55 105.85 35.45 107.85 34.0 109.1 32.25 110.95 31.15 112.4 30.2 113.65 30.05 113.9 30.75 112.0 30.75 111.85 30.85 111.7 31.1 111.05 31.2 111.0 30.85 111.7" fill="none" stroke="#000000" stroke-linecap="round" stroke-linejoin="round" stroke-opacity="0.5019608" stroke-width="0.5"/>
      <path d="M20.05 111.65 L20.05 111.6 20.1 111.5 20.15 111.4 21.65 109.55 23.4 107.9 Q24.2 107.3 25.2 106.9 L26.0 106.6 26.4 106.5 24.3 108.5 22.85 109.75 21.1 111.6 20.0 113.05 19.05 114.3 18.9 114.55 19.6 112.65 19.6 112.5 19.7 112.35 20.05 111.65" fill="#006600" fill-rule="evenodd" stroke="none"/>
      <path d="M20.05 111.65 L20.05 111.6 20.1 111.5 20.15 111.4 21.65 109.55 23.4 107.9 Q24.2 107.3 25.2 106.9 L26.0 106.6 26.4 106.5 24.3 108.5 22.85 109.75 21.1 111.6 20.0 113.05 19.05 114.3 18.9 114.55 19.6 112.65 19.6 112.5 19.7 112.35 19.95 111.7 20.05 111.65 19.7 112.35" fill="none" stroke="#000000" stroke-linecap="round" stroke-linejoin="round" stroke-opacity="0.5019608" stroke-width="0.5"/>
      <path d="M-25.3 149.05 Q-25.7 147.55 -24.35 146.8 L-19.85 144.4 Q-18.45 143.65 -17.5 144.8 L-25.3 149.05 -17.5 144.8 -17.1 145.4 -16.8 146.0 -16.0 147.5 -14.3 150.65 Q-13.2 152.5 -15.0 153.5 L-19.4 155.9 Q-21.15 156.85 -22.2 154.95 L-23.95 151.65 -24.7 150.3 -25.0 149.7 -25.3 149.05 M-16.0 147.5 L-23.95 151.65 -16.0 147.5 M-24.7 150.3 L-16.8 146.0 -24.7 150.3" fill="#919191" fill-rule="evenodd" stroke="none"/>
      <path d="M-17.5 144.8 Q-18.45 143.65 -19.85 144.4 L-24.35 146.8 Q-25.7 147.55 -25.3 149.05 L-17.5 144.8 -17.1 145.4 -16.8 146.0 -16.0 147.5 -14.3 150.65 Q-13.2 152.5 -15.0 153.5 L-19.4 155.9 Q-21.15 156.85 -22.2 154.95 L-23.95 151.65 -24.7 150.3 -25.0 149.7 -25.3 149.05 M-16.8 146.0 L-24.7 150.3 M-23.95 151.65 L-16.0 147.5" fill="none" stroke="#000000" stroke-linecap="round" stroke-linejoin="round" stroke-opacity="0.4" stroke-width="0.7000000000000001"/>
      <path d="M-23.8 154.05 L-23.4 153.45 -15.05 149.05 -14.1 149.05 -14.75 151.65 -21.3 155.05 -23.8 154.05" fill="#565656" fill-rule="evenodd" stroke="none"/>
      <path d="M-23.8 154.05 L-21.3 155.05 -14.75 151.65 -14.1 149.05 Q-10.9 149.4 -9.35 151.75 L-3.3 160.45 Q-0.95 163.8 -1.95 167.75 -3.0 171.85 -6.9 174.05 -10.8 176.15 -15.0 174.75 -18.8 173.3 -20.4 169.6 L-24.25 159.8 Q-25.4 157.25 -24.05 154.4 L-23.8 154.05" fill="#ffff00" fill-rule="evenodd" stroke="none"/>
      <path d="M-14.1 149.05 L-15.05 149.05 -23.4 153.45 -23.8 154.05 -21.3 155.05 -14.75 151.65 -14.1 149.05 Q-10.9 149.4 -9.35 151.75 L-3.3 160.45 Q-0.95 163.8 -1.95 167.75 -3.0 171.85 -6.9 174.05 -10.8 176.15 -15.0 174.75 -18.8 173.3 -20.4 169.6 L-24.25 159.8 Q-25.4 157.25 -24.05 154.4 L-23.8 154.05" fill="none" stroke="#000000" stroke-linecap="round" stroke-linejoin="round" stroke-opacity="0.4" stroke-width="0.7000000000000001"/>
      <path d="M-15.4 152.1 L-12.3 156.4 -10.05 159.25 -7.95 161.15 Q-7.15 161.75 -7.15 162.1 L-10.05 160.05 Q-12.0 158.9 -12.75 159.35 -13.25 159.6 -13.2 161.3 L-13.2 161.85 -13.05 162.0 Q-11.35 163.8 -10.25 165.9 L-9.85 166.65 Q-9.65 167.05 -10.0 167.4 L-10.7 166.85 Q-11.55 166.35 -12.25 164.9 -13.0 163.4 -13.2 161.85 -15.1 159.85 -15.9 160.3 -16.2 160.4 -16.1 161.5 L-16.0 163.6 -14.6 166.05 -13.9 167.5 -14.35 168.75 -14.65 168.9 -15.75 166.8 -16.0 164.05 -16.0 163.6 Q-16.45 162.75 -16.8 162.55 -17.5 161.75 -18.35 161.8 L-18.2 165.15 Q-18.2 167.5 -18.65 167.7 L-18.95 167.4 Q-19.8 162.45 -18.8 162.05 L-18.35 161.8 -18.5 158.85 Q-18.85 157.35 -20.1 154.7" fill="none" stroke="#000000" stroke-linecap="round" stroke-linejoin="round" stroke-opacity="0.4" stroke-width="0.7000000000000001"/>
      <path d="M12.2 80.8 Q9.2 77.9 9.2 73.65 9.2 69.4 12.2 66.45 15.15 63.45 19.4 63.45 23.6 63.45 26.55 66.45 29.55 69.4 29.55 73.65 29.55 77.9 26.55 80.8 23.6 83.8 19.4 83.8 15.15 83.8 12.2 80.8" fill="url(#gradient0)" fill-rule="evenodd" stroke="none"/>
      <path d="M39.05 48.3 Q47.35 56.6 47.35 68.4 47.35 80.2 39.05 88.5 30.75 96.8 18.95 96.8 7.15 96.8 -1.15 88.5 -9.45 80.2 -9.45 68.4 -9.45 56.6 -1.15 48.3 7.15 40.0 18.95 40.0 30.75 40.0 39.05 48.3" fill="url(#gradient1)" fill-rule="evenodd" stroke="none"/>
      <path d="M-12.3 -50.15 L-10.8 -50.35 -10.15 -50.45 -9.55 -50.5 Q-8.15 -50.35 -8.05 -48.9 L-7.5 -44.4 Q-7.3 -43.0 -8.65 -42.55 L-9.25 -42.45 -9.85 -42.35 -11.3 -42.2 -14.6 -41.75 Q-16.55 -41.6 -16.7 -43.3 L-17.3 -47.8 Q-17.45 -49.55 -15.55 -49.85 L-12.3 -50.15 -11.3 -42.2 -12.3 -50.15 M-9.85 -42.35 L-10.8 -50.35 -9.85 -42.35 M-9.55 -50.5 L-8.65 -42.55 -9.55 -50.5" fill="#919191" fill-rule="evenodd" stroke="none"/>
      <path d="M-12.3 -50.15 L-10.8 -50.35 -10.15 -50.45 -9.55 -50.5 Q-8.15 -50.35 -8.05 -48.9 L-7.5 -44.4 Q-7.3 -43.0 -8.65 -42.55 L-9.25 -42.45 -9.85 -42.35 -11.3 -42.2 -14.6 -41.75 Q-16.55 -41.6 -16.7 -43.3 L-17.3 -47.8 Q-17.45 -49.55 -15.55 -49.85 L-12.3 -50.15 -11.3 -42.2 M-8.65 -42.55 L-9.55 -50.5 M-10.8 -50.35 L-9.85 -42.35" fill="none" stroke="#000000" stroke-linecap="round" stroke-linejoin="round" stroke-opacity="0.4" stroke-width="0.7000000000000001"/>
      <path d="M-14.55 -50.55 L-14.0 -49.85 -13.0 -41.4 -13.3 -40.8 -13.4 -40.55 Q-14.8 -38.0 -17.3 -37.45 L-26.5 -35.3 Q-30.05 -34.55 -33.05 -36.6 -36.25 -38.85 -36.7 -42.85 -37.15 -46.85 -34.65 -49.75 -32.25 -52.65 -28.5 -52.55 L-19.05 -52.65 Q-16.55 -52.65 -14.55 -50.55 L-16.3 -48.7 -15.2 -42.15 -13.3 -40.8 -15.2 -42.15 -16.3 -48.7 -14.55 -50.55" fill="#33cc00" fill-rule="evenodd" stroke="none"/>
      <path d="M-14.55 -50.55 L-14.0 -49.85 -13.0 -41.4 -13.3 -40.8 -13.4 -40.55 Q-14.8 -38.0 -17.3 -37.45 L-26.5 -35.3 Q-30.05 -34.55 -33.05 -36.6 -36.25 -38.85 -36.7 -42.85 -37.15 -46.85 -34.65 -49.75 -32.25 -52.65 -28.5 -52.55 L-19.05 -52.65 Q-16.55 -52.65 -14.55 -50.55 L-16.3 -48.7 -15.2 -42.15 -13.3 -40.8" fill="none" stroke="#000000" stroke-linecap="round" stroke-linejoin="round" stroke-opacity="0.4" stroke-width="0.7000000000000001"/>
      <path d="M-16.1 -48.3 L-20.75 -48.4 -24.0 -48.5 -26.5 -49.1 -27.6 -49.2 -24.65 -48.05 Q-22.8 -47.25 -22.75 -46.5 -22.65 -45.9 -23.8 -45.2 L-24.3 -44.8 Q-21.85 -44.5 -21.75 -43.65 -21.75 -43.3 -22.6 -42.9 L-24.1 -41.85 -23.0 -41.8 Q-22.0 -41.75 -21.65 -41.05 L-19.35 -42.4 -15.4 -43.5 M-24.45 -44.9 Q-26.7 -45.2 -28.85 -44.85 L-29.6 -44.85 Q-30.05 -44.7 -30.1 -44.4 L-29.4 -44.05 -27.0 -44.0 Q-25.45 -44.2 -24.3 -44.8 L-24.45 -44.9 M-28.8 -40.45 L-28.8 -40.15 -26.65 -40.4 -24.45 -41.6 -24.1 -41.85 -26.65 -41.65 -28.1 -41.4 -28.8 -40.45 M-25.8 -37.65 L-25.3 -37.75 Q-21.45 -39.6 -21.55 -40.6 L-21.65 -41.05 Q-23.05 -40.35 -24.1 -39.45 -25.9 -38.25 -25.85 -37.8 L-25.8 -37.65" fill="none" stroke="#000000" stroke-linecap="round" stroke-linejoin="round" stroke-opacity="0.4" stroke-width="0.7000000000000001"/>
      <path d="M13.65 0.1 Q12.05 0.35 11.5 -1.05 L9.45 -5.7 Q8.75 -7.1 10.1 -7.95 L13.65 0.1 10.1 -7.95 10.65 -8.35 11.25 -8.55 12.75 -9.25 16.1 -10.7 Q18.0 -11.6 18.85 -9.8 L20.85 -5.2 Q21.55 -3.4 19.65 -2.5 L16.3 -1.05 14.85 -0.45 14.2 -0.2 13.65 0.1 M16.3 -1.05 L12.75 -9.25 16.3 -1.05 M14.85 -0.45 L11.25 -8.55 14.85 -0.45" fill="#919191" fill-rule="evenodd" stroke="none"/>
      <path d="M10.1 -7.95 Q8.75 -7.1 9.45 -5.7 L11.5 -1.05 Q12.05 0.35 13.65 0.1 L10.1 -7.95 10.65 -8.35 11.25 -8.55 12.75 -9.25 16.1 -10.7 Q18.0 -11.6 18.85 -9.8 L20.85 -5.2 Q21.55 -3.4 19.65 -2.5 L16.3 -1.05 14.85 -0.45 14.2 -0.2 13.65 0.1 M11.25 -8.55 L14.85 -0.45 M12.75 -9.25 L16.3 -1.05" fill="none" stroke="#000000" stroke-linecap="round" stroke-linejoin="round" stroke-opacity="0.4" stroke-width="0.7000000000000001"/>
      <path d="M14.35 -11.25 Q15.1 -14.35 17.5 -15.75 L26.45 -20.95 Q29.85 -23.05 33.8 -21.7 37.85 -20.4 39.6 -16.35 41.4 -12.35 39.6 -8.35 37.9 -4.8 34.25 -3.55 L24.15 -0.45 Q21.65 0.45 18.9 -1.05 L18.6 -1.4 19.75 -3.65 16.95 -10.4 14.35 -11.25 16.95 -10.4 19.75 -3.65 18.6 -1.4 18.15 -1.7 14.3 -10.3 14.35 -11.25" fill="#ff3300" fill-rule="evenodd" stroke="none"/>
      <path d="M18.6 -1.4 L18.9 -1.05 Q21.65 0.45 24.15 -0.45 L34.25 -3.55 Q37.9 -4.8 39.6 -8.35 41.4 -12.35 39.6 -16.35 37.85 -20.4 33.8 -21.7 29.85 -23.05 26.45 -20.95 L17.5 -15.75 Q15.1 -14.35 14.35 -11.25 L16.95 -10.4 19.75 -3.65 18.6 -1.4 18.15 -1.7 14.3 -10.3 14.35 -11.25" fill="none" stroke="#000000" stroke-linecap="round" stroke-linejoin="round" stroke-opacity="0.4" stroke-width="0.7000000000000001"/>
      <path d="M17.45 -9.55 L21.8 -12.2 24.75 -14.1 26.8 -16.15 Q27.5 -16.85 27.85 -16.85 L25.7 -14.1 Q24.35 -12.35 24.75 -11.5 24.9 -11.0 26.5 -10.95 L27.15 -10.8 27.25 -10.95 Q29.15 -12.55 31.3 -13.5 L32.15 -13.85 32.85 -13.65 32.35 -12.9 Q31.75 -12.15 30.2 -11.5 28.65 -10.8 27.15 -10.8 25.0 -9.15 25.35 -8.35 25.5 -8.05 26.55 -8.1 L28.6 -7.95 31.15 -9.1 32.6 -9.7 33.85 -9.15 34.0 -8.9 31.75 -7.95 29.15 -7.9 28.6 -7.95 27.5 -7.25 Q26.7 -6.65 26.75 -5.75 28.45 -5.9 30.0 -5.7 32.35 -5.5 32.45 -5.05 L32.45 -4.95 32.1 -4.75 Q27.35 -4.3 26.9 -5.35 L26.75 -5.75 23.85 -5.8 Q22.35 -5.75 19.55 -4.7" fill="none" stroke="#000000" stroke-linecap="round" stroke-linejoin="round" stroke-opacity="0.4" stroke-width="0.7000000000000001"/>
      <path d="M10.25 -102.45 L18.5 -105.2 Q17.95 -104.2 14.6 -102.15 L12.15 -101.35 12.15 -101.4 12.0 -102.1 11.85 -102.2 11.1 -102.4 10.25 -102.45 M16.55 -101.0 L17.9 -101.0 Q17.3 -99.9 12.0 -98.3 L6.55 -97.0 9.2 -97.0 9.15 -97.3 14.9 -97.1 15.1 -96.5 13.65 -95.05 11.0 -95.05 2.65 -94.85 2.4 -94.9 1.05 -95.05 5.9 -96.8 Q14.1 -99.75 16.55 -101.0 M16.45 -93.25 L19.0 -93.15 Q22.0 -92.9 23.65 -92.25 25.3 -91.55 24.25 -90.9 L15.95 -89.95 11.3 -89.6 13.05 -89.0 21.0 -88.3 23.25 -87.9 Q21.0 -87.05 21.0 -86.45 21.0 -86.15 21.75 -85.35 L20.25 -84.6 20.65 -84.3 20.9 -84.25 22.5 -84.15 32.55 -84.0 Q39.0 -80.25 42.65 -75.2 L42.75 -74.75 Q42.85 -74.55 42.15 -74.2 42.05 -74.1 35.25 -77.1 L28.4 -79.85 31.35 -77.5 36.7 -73.95 35.05 -74.1 Q31.95 -75.25 31.4 -75.0 L31.7 -74.75 29.3 -75.75 Q29.95 -74.2 35.45 -69.65 L39.05 -67.0 38.95 -67.05 39.2 -66.8 38.8 -66.05 37.7 -66.55 Q52.0 -57.65 62.45 -48.3 L61.7 -48.45 60.5 -48.3 Q59.6 -47.75 48.05 -55.05 L32.25 -65.25 32.6 -65.25 Q33.75 -65.25 33.3 -65.5 L33.45 -66.2 21.45 -76.75 16.55 -80.5 Q13.8 -83.2 11.25 -84.9 11.0 -85.35 11.0 -84.25 L11.1 -83.8 9.0 -84.8 8.9 -83.9 10.65 -82.0 Q10.15 -81.9 10.0 -81.6 L14.1 -71.65 14.8 -70.3 Q11.3 -73.85 9.0 -76.85 L6.25 -79.1 7.25 -76.3 8.95 -74.55 9.25 -73.75 9.0 -73.45 8.65 -73.5 8.9 -73.1 Q10.3 -70.8 12.65 -68.0 L16.4 -63.55 14.6 -64.4 14.2 -64.6 12.25 -67.85 Q8.45 -74.15 5.3 -77.6 2.4 -84.15 1.35 -85.8 L0.35 -84.6 0.0 -83.55 Q0.0 -82.9 1.0 -80.1 L-1.7 -81.95 -1.85 -81.75 -1.9 -81.1 -1.3 -79.55 -2.8 -81.8 Q-6.0 -87.3 -7.0 -89.95 L-7.15 -90.1 Q-7.85 -91.4 -7.8 -92.2 L-7.45 -92.3 -4.8 -92.1 7.45 -92.1 16.45 -93.25 M27.8 -86.4 L27.85 -86.35 27.55 -86.35 27.8 -86.4 M45.05 -68.3 L46.3 -67.9 Q50.4 -66.15 52.75 -63.4 L52.5 -63.1 48.25 -64.3 48.45 -64.55 48.8 -65.25 43.6 -68.6 45.05 -68.3 M29.55 -65.8 Q36.65 -60.2 40.95 -56.25 L40.85 -56.0 40.1 -55.4 Q39.1 -54.85 29.75 -61.35 L30.95 -61.1 Q32.1 -61.1 31.95 -61.55 L28.1 -66.4 Q28.85 -66.05 29.55 -65.8 M26.35 -63.8 L20.75 -67.85 18.0 -69.85 16.7 -72.2 12.35 -80.2 16.1 -76.2 18.9 -72.45 Q23.25 -66.65 26.35 -63.8 M18.35 -69.2 L19.45 -68.1 Q27.95 -59.45 28.75 -58.05 25.85 -60.1 21.3 -64.2 L18.35 -69.2 M11.8 -62.8 L11.35 -63.1 10.95 -64.05 11.8 -62.8 M12.55 -59.7 Q16.3 -54.1 16.3 -50.55 L15.95 -48.75 15.4 -46.8 Q15.8 -46.5 14.8 -46.5 L12.9 -50.85 10.1 -56.9 7.95 -60.05 7.65 -63.4 Q10.15 -57.55 11.85 -54.25 L12.75 -55.7 13.2 -56.95 12.55 -59.7 M8.0 -59.15 Q9.8 -55.1 10.9 -50.1 L10.6 -49.8 Q8.75 -52.15 7.05 -55.35 L7.9 -55.8 8.0 -58.3 8.0 -59.15 M4.9 -59.8 L3.1 -63.9 Q1.45 -65.0 -0.35 -66.8 L-5.8 -72.0 -5.9 -71.9 -6.0 -72.6 Q-6.0 -76.5 0.15 -71.45 L0.75 -70.95 3.25 -69.75 3.7 -68.15 4.55 -61.6 4.9 -59.8 M-3.5 -98.8 L-0.35 -101.6 Q6.75 -107.85 10.9 -110.8 L11.0 -109.9 Q11.0 -108.35 4.7 -101.8 L3.85 -100.9 -3.5 -98.8 M20.75 -81.6 L19.35 -82.35 19.35 -82.4 18.35 -82.5 20.75 -80.95 29.1 -75.2 22.95 -79.95 20.75 -81.6 M1.65 -91.1 L3.05 -90.15 4.8 -89.75 4.8 -89.8 1.65 -91.1 M8.7 -92.15 L2.9 -91.85 6.1 -91.0 8.7 -92.15 M25.95 92.25 L26.6 90.35 Q26.4 88.7 26.55 88.0 23.75 90.55 17.45 100.05 L13.6 106.05 14.25 103.7 16.8 94.65 15.55 95.5 Q16.8 92.3 18.8 88.25 24.4 76.8 27.9 76.1 25.7 81.4 19.9 92.25 18.0 96.15 16.9 99.5 L20.55 94.3 Q29.7 81.5 32.55 79.4 L33.4 80.2 33.8 80.65 Q33.8 81.2 25.95 92.25 M13.75 98.15 Q13.05 99.5 12.45 101.4 10.8 106.4 10.8 110.45 L11.0 111.9 11.45 113.25 11.4 112.9 Q11.4 111.6 15.65 108.45 L17.45 107.15 Q20.15 105.3 21.4 105.15 L21.5 105.1 21.6 105.45 18.8 108.25 Q19.95 107.7 21.1 107.45 L21.2 107.6 21.3 108.0 19.0 110.3 18.0 110.35 15.6 111.45 Q14.6 111.75 12.5 112.75 L11.45 113.25 10.85 113.55 10.35 111.45 Q10.2 110.4 10.2 106.8 10.2 100.7 11.2 94.1 12.25 87.25 14.05 81.95 15.15 83.05 15.15 85.15 L14.1 94.6 13.75 98.15 M41.9 97.1 Q46.85 95.65 48.65 96.15 47.5 97.1 38.2 101.3 28.35 105.75 26.4 105.75 L26.1 105.7 Q38.6 99.3 41.9 97.1 M24.05 104.0 L23.9 103.95 Q23.65 103.8 23.65 103.1 23.65 102.0 34.35 94.4 45.5 86.55 49.95 85.25 L50.2 85.95 Q47.45 87.75 38.1 95.4 L31.9 100.0 31.1 100.35 Q26.05 102.65 24.05 104.0 M37.0 106.7 Q39.25 105.4 42.05 104.4 L42.4 104.4 36.05 111.0 31.55 115.45 29.4 114.95 29.35 114.95 29.45 114.45 31.25 113.1 Q37.85 108.15 37.85 107.85 37.85 106.8 37.0 106.7 M37.0 118.0 L38.9 118.65 41.2 117.35 Q45.7 114.9 47.1 114.65 L47.3 114.75 47.35 115.15 Q47.35 115.85 43.25 118.4 L41.45 119.45 42.6 119.05 Q47.45 117.4 52.65 115.95 50.8 117.65 46.2 119.65 44.9 120.2 43.9 120.65 L46.5 121.8 52.2 123.5 49.3 123.85 41.1 123.35 41.5 122.85 30.05 119.6 28.65 119.25 30.35 119.25 35.35 118.8 37.0 118.0 M34.0 123.25 L36.3 124.7 37.1 125.1 35.6 125.25 Q31.35 125.25 24.85 121.5 L34.0 123.25 M18.55 117.85 L12.4 115.8 15.85 116.0 13.65 114.75 14.9 114.3 16.4 114.65 Q16.65 113.95 17.35 113.15 19.25 112.1 20.05 110.95 L19.95 110.85 Q22.3 109.0 23.45 108.95 L23.5 109.4 Q23.5 109.95 21.1 112.6 L18.3 115.25 Q19.8 115.75 21.65 116.6 21.15 117.25 21.15 117.75 L21.2 117.9 18.7 117.65 18.55 117.7 18.55 117.85 M13.45 114.8 L12.65 115.3 12.5 115.55 11.65 115.0 11.9 115.0 13.45 114.8 M22.3 115.8 L22.3 115.45 22.3 115.3 21.0 114.35 22.65 114.4 Q23.45 112.8 26.45 110.05 30.8 106.15 32.7 106.85 L32.85 107.15 33.0 108.05 29.5 110.2 Q24.25 113.7 22.3 115.8 M7.65 119.0 L7.05 119.15 Q6.6 119.15 6.2 118.4 4.95 117.55 3.75 115.15 2.25 112.2 2.25 111.25 L2.3 110.75 Q3.65 111.25 4.75 112.45 L4.25 109.2 4.15 106.35 Q4.15 104.15 4.55 103.65 L6.7 111.3 7.3 113.55 Q7.15 114.1 7.15 114.7 7.2 117.75 7.65 119.0 M11.95 123.1 Q11.6 123.9 9.3 124.75 L6.15 125.6 5.6 124.8 Q5.6 124.15 7.75 123.55 L11.75 122.9 11.95 123.1" fill="#006600" fill-rule="evenodd" stroke="none"/>
      <path d="M3.85 -100.9 L10.1 -102.45 10.25 -102.45 11.1 -102.4 11.85 -102.2 12.0 -102.1 12.15 -101.4 12.15 -101.35 14.6 -102.15 17.25 -102.75 17.4 -102.55 17.55 -101.8 Q17.55 -101.55 16.55 -101.0 14.1 -99.75 5.9 -96.8 L1.05 -95.05 0.35 -94.8 2.65 -94.85 11.0 -95.05 13.65 -95.05 21.7 -94.85 21.9 -94.15 19.7 -93.75 16.45 -93.25 7.45 -92.1 -4.8 -92.1 -7.45 -92.3 -7.8 -92.2 -8.3 -92.1 -8.95 -92.2 -9.15 -92.45 -9.45 -92.5 -9.55 -92.65 -9.65 -93.35 -9.6 -93.65 -10.5 -93.6 Q-11.85 -93.6 -12.5 -94.6 -10.5 -96.55 -3.5 -98.8 L3.85 -100.9 M23.25 -87.9 L28.3 -89.5 Q36.5 -91.8 42.3 -90.75 38.6 -89.0 32.75 -87.55 L27.8 -86.4 27.55 -86.35 27.85 -86.35 42.6 -86.9 Q40.2 -84.25 34.05 -83.95 L32.55 -84.0 22.5 -84.15 20.9 -84.25 20.65 -84.3 20.25 -84.6 21.75 -85.35 Q21.0 -86.15 21.0 -86.45 21.0 -87.05 23.25 -87.9 M36.7 -73.95 L37.4 -73.75 41.85 -72.0 46.7 -71.15 56.05 -69.75 56.3 -69.05 55.15 -68.3 50.9 -67.7 45.5 -68.25 45.05 -68.3 43.6 -68.6 48.8 -65.25 48.45 -64.55 48.25 -64.3 Q47.95 -63.95 47.6 -63.95 43.8 -63.95 39.05 -67.0 L35.45 -69.65 Q29.95 -74.2 29.3 -75.75 L31.7 -74.75 31.4 -75.0 Q31.95 -75.25 35.05 -74.1 L36.7 -73.95 M32.25 -65.25 L29.55 -65.8 Q28.85 -66.05 28.1 -66.4 L31.95 -61.55 Q32.1 -61.1 30.95 -61.1 L29.75 -61.35 26.35 -63.8 Q23.25 -66.65 18.9 -72.45 L16.1 -76.2 12.35 -80.2 16.7 -72.2 18.0 -69.85 18.35 -69.2 21.3 -64.2 22.55 -62.2 22.5 -62.0 Q17.5 -65.3 14.8 -70.3 L14.1 -71.65 10.0 -81.6 Q10.15 -81.9 10.65 -82.0 L8.9 -83.9 9.0 -84.8 11.1 -83.8 11.0 -84.25 Q11.0 -85.35 11.25 -84.9 13.8 -83.2 16.55 -80.5 L21.45 -76.75 33.45 -66.2 33.3 -65.5 Q33.75 -65.25 32.6 -65.25 L32.25 -65.25 M14.2 -64.6 Q18.0 -58.1 18.0 -56.7 L17.9 -55.9 17.6 -55.8 Q14.65 -58.65 11.8 -62.8 L10.95 -64.05 11.35 -63.1 12.55 -59.7 13.2 -56.95 12.75 -55.7 11.85 -54.25 Q10.15 -57.55 7.65 -63.4 L7.95 -60.05 8.0 -59.15 8.0 -58.3 7.9 -55.8 7.05 -55.35 7.0 -55.35 Q5.55 -57.25 4.9 -59.8 L4.55 -61.6 3.7 -68.15 3.25 -69.75 Q2.5 -71.9 0.6 -75.6 L-1.3 -79.55 -1.9 -81.1 -1.85 -81.75 -1.7 -81.95 1.0 -80.1 Q0.0 -82.9 0.0 -83.55 L0.35 -84.6 1.35 -85.8 Q2.4 -84.15 5.3 -77.6 8.45 -74.15 12.25 -67.85 L14.2 -64.6 M15.55 95.5 L16.8 94.65 14.25 103.7 13.6 106.05 17.45 100.05 Q23.75 90.55 26.55 88.0 26.4 88.7 26.6 90.35 L25.95 92.25 22.05 99.6 25.35 96.2 Q33.35 88.1 36.55 85.5 L37.2 85.6 Q37.4 85.7 37.4 86.4 37.4 86.95 28.8 95.9 21.5 103.5 17.9 106.5 L17.45 107.15 15.65 108.45 Q11.4 111.6 11.4 112.9 L11.45 113.25 11.0 111.9 10.8 110.45 Q10.8 106.4 12.45 101.4 13.05 99.5 13.75 98.15 14.6 96.4 15.55 95.5 M31.9 100.0 Q39.85 96.4 42.8 96.4 L41.9 97.1 Q38.6 99.3 26.1 105.7 L24.45 106.55 23.4 106.4 22.85 106.0 Q22.65 106.45 22.65 105.35 22.65 104.9 24.05 104.0 26.05 102.65 31.1 100.35 L31.9 100.0 M31.55 115.45 L37.1 117.0 37.35 117.65 37.0 118.0 35.35 118.8 30.35 119.25 28.65 119.25 30.05 119.6 41.5 122.85 41.1 123.35 40.65 123.8 38.9 123.95 34.0 123.25 24.85 121.5 Q18.55 119.95 18.55 118.35 L18.55 117.85 18.55 117.7 18.7 117.65 21.2 117.9 21.15 117.75 Q21.15 117.25 21.65 116.6 L22.3 115.8 Q24.25 113.7 29.5 110.2 L33.0 108.05 Q35.8 106.55 37.0 106.7 37.85 106.8 37.85 107.85 37.85 108.15 31.25 113.1 L29.45 114.45 28.8 114.9 29.35 114.95 29.4 114.95 31.55 115.45 M13.65 114.75 L13.45 114.8 11.9 115.0 11.65 115.0 Q10.65 114.95 10.35 114.5 L10.25 114.0 Q10.25 113.85 10.85 113.55 L11.45 113.25 12.5 112.75 Q14.6 111.75 15.6 111.45 L18.0 110.35 19.0 110.3 Q19.5 110.4 19.95 110.85 L20.05 110.95 Q19.25 112.1 17.35 113.15 L16.15 113.75 14.9 114.3 13.65 114.75 M7.3 113.55 Q7.45 112.75 7.9 111.9 8.65 110.45 8.8 113.3 9.25 116.0 9.25 118.8 9.25 119.85 8.45 119.85 7.95 119.85 7.65 119.0 7.2 117.75 7.15 114.7 7.15 114.1 7.3 113.55" fill="#004c00" fill-rule="evenodd" stroke="none"/>
      <path d="M-16.1 97.65 L-19.35 98.0 Q-21.35 98.2 -21.6 96.3 L-22.0 91.7 Q-22.1 89.9 -20.1 89.7 L-16.75 89.4 -16.1 97.65 -16.75 89.4 -15.25 89.25 -14.6 89.2 -14.05 89.15 Q-12.55 89.4 -12.4 90.85 L-12.1 95.5 Q-11.9 97.0 -13.35 97.4 L-13.9 97.5 -14.5 97.5 -16.1 97.65 M-14.05 89.15 L-13.35 97.4 -14.05 89.15 M-14.5 97.5 L-15.25 89.25 -14.5 97.5" fill="#919191" fill-rule="evenodd" stroke="none"/>
      <path d="M-16.75 89.4 L-20.1 89.7 Q-22.1 89.9 -22.0 91.7 L-21.6 96.3 Q-21.35 98.2 -19.35 98.0 L-16.1 97.65 -16.75 89.4 -15.25 89.25 -14.6 89.2 -14.05 89.15 Q-12.55 89.4 -12.4 90.85 L-12.1 95.5 Q-11.9 97.0 -13.35 97.4 L-13.9 97.5 -14.5 97.5 -16.1 97.65 M-15.25 89.25 L-14.5 97.5 M-13.35 97.4 L-14.05 89.15" fill="none" stroke="#000000" stroke-linecap="round" stroke-linejoin="round" stroke-opacity="0.4" stroke-width="0.7000000000000001"/>
      <path d="M-18.05 98.7 Q-19.6 101.3 -22.1 101.8 L-31.65 103.6 Q-35.35 104.5 -38.35 102.1 -41.5 99.8 -41.9 95.6 -42.2 91.6 -39.55 88.55 -36.9 85.9 -33.2 85.9 L-23.5 86.15 Q-20.95 86.15 -18.95 88.3 L-18.75 88.7 -20.55 90.4 -20.05 97.25 -18.05 98.7 -20.05 97.25 -20.55 90.4 -18.75 88.7 -18.45 89.2 -17.7 97.9 -18.05 98.7" fill="#00ccff" fill-rule="evenodd" stroke="none"/>
      <path d="M-18.75 88.7 L-18.95 88.3 Q-20.95 86.15 -23.5 86.15 L-33.2 85.9 Q-36.9 85.9 -39.55 88.55 -42.2 91.6 -41.9 95.6 -41.5 99.8 -38.35 102.1 -35.35 104.5 -31.65 103.6 L-22.1 101.8 Q-19.6 101.3 -18.05 98.7 L-20.05 97.25 -20.55 90.4 -18.75 88.7 -18.45 89.2 -17.7 97.9 -18.05 98.7" fill="none" stroke="#000000" stroke-linecap="round" stroke-linejoin="round" stroke-opacity="0.4" stroke-width="0.7000000000000001"/>
      <path d="M-20.2 96.5 L-24.95 97.55 -28.1 98.4 -30.55 99.55 -31.65 99.85 -28.9 98.1 Q-27.2 96.95 -27.35 96.05 -27.35 95.55 -28.75 95.05 -29.05 94.85 -29.3 94.75 L-29.4 94.85 Q-31.55 95.7 -33.7 95.8 L-34.6 95.85 Q-34.95 95.95 -35.15 95.5 L-34.4 95.05 Q-33.7 94.6 -32.2 94.5 L-29.3 94.75 Q-26.85 93.9 -26.95 93.1 -26.95 92.8 -27.9 92.55 L-29.75 91.75 -32.25 92.05 -33.75 92.15 -34.7 91.35 -34.7 91.0 -32.5 90.85 -30.1 91.6 -29.75 91.75 -28.55 91.6 Q-27.6 91.2 -27.35 90.45 L-30.25 89.3 Q-32.25 88.5 -32.2 88.05 L-32.2 87.95 -31.8 87.85 Q-27.35 88.95 -27.4 90.0 L-27.35 90.45 -24.75 91.35 -20.7 91.6" fill="none" stroke="#000000" stroke-linecap="round" stroke-linejoin="round" stroke-opacity="0.4" stroke-width="0.7000000000000001"/>
      <path d="M-42.35 83.3 Q-39.4 80.3 -35.15 80.3 -30.95 80.3 -28.0 83.3 -25.0 86.25 -25.0 90.5 -25.0 94.75 -28.0 97.65 -30.95 100.65 -35.15 100.65 -39.4 100.65 -42.35 97.65 -45.35 94.75 -45.35 90.5 -45.35 86.25 -42.35 83.3" fill="url(#gradient2)" fill-rule="evenodd" stroke="none"/>
      <path d="M2.7 -26.55 L2.1 -22.15 1.8 -19.0 1.85 -17.45 1.8 -19.0 2.1 -22.15 2.7 -26.55 4.1 -24.3 Q6.15 -21.15 8.3 -15.35 L8.65 -14.4 12.4 -4.2 Q14.35 0.5 15.05 4.5 L15.3 6.1 Q15.6 8.4 15.6 15.45 L15.6 15.8 Q15.6 21.7 14.7 27.4 13.8 32.8 12.15 38.0 L11.45 36.95 9.55 34.35 9.65 32.95 10.1 30.8 Q11.1 26.0 11.45 20.75 L11.6 15.45 11.35 10.0 Q10.55 2.1 7.6 -5.5 L6.6 -7.8 1.85 -17.45 -0.95 -22.7 -4.65 -30.1 -4.4 -31.35 Q-3.7 -34.55 -2.6 -36.85 -3.7 -34.55 -4.4 -31.35 L-4.65 -30.1 Q-6.8 -34.8 -8.1 -38.8 L-8.8 -41.05 Q-9.95 -45.05 -10.5 -49.25 L-10.45 -49.4 Q-9.35 -51.45 -7.85 -53.3 L-6.0 -47.8 -6.0 -47.7 -5.1 -44.0 Q-4.1 -40.45 -2.6 -36.85 -0.45 -31.7 2.7 -26.55 M8.3 -15.35 L7.4 -11.6 6.6 -7.8 7.4 -11.6 8.3 -15.35 M-36.9 -124.8 L-38.0 -126.45 -40.7 -128.7 -44.0 -130.45 -40.7 -128.7 -38.0 -126.45 -36.9 -124.8 -43.65 -125.9 -50.45 -127.0 Q-53.2 -127.8 -53.2 -129.6 L-53.35 -132.6 -51.4 -130.4 -49.55 -130.55 Q-47.05 -130.7 -44.0 -130.45 L-41.05 -130.15 Q-36.2 -129.55 -32.55 -128.55 -26.65 -126.9 -23.8 -124.2 L-17.9 -118.15 -17.8 -118.05 -17.75 -118.0 Q-17.3 -117.05 -17.2 -116.2 -16.6 -113.05 -16.6 -111.5 L-16.7 -109.95 -16.9 -109.4 -16.9 -109.7 -17.0 -109.95 -17.05 -110.0 Q-18.9 -113.55 -20.3 -115.35 -22.2 -117.7 -25.1 -119.9 L-26.5 -120.9 Q-30.05 -123.4 -36.9 -124.8 M-32.55 -128.55 Q-30.25 -127.0 -28.6 -125.35 -26.35 -123.15 -25.1 -119.9 -26.35 -123.15 -28.6 -125.35 -30.25 -127.0 -32.55 -128.55 M-5.1 -44.0 Q-6.55 -42.25 -7.9 -39.3 L-8.1 -38.8 -7.9 -39.3 Q-6.55 -42.25 -5.1 -44.0 M-13.25 72.85 L-12.65 72.5 Q-10.15 71.1 -7.8 70.1 L-8.05 71.0 -8.85 72.4 Q-10.4 75.05 -10.4 80.25 L-10.4 81.4 Q-10.3 89.2 -8.65 98.15 L-8.2 100.45 Q-7.1 105.95 -6.55 110.55 -6.0 115.1 -6.0 118.8 L-5.95 123.35 -5.95 128.35 Q-6.05 130.05 -6.3 131.6 -6.85 134.95 -8.1 137.7 -8.85 139.3 -10.9 141.35 -13.4 143.8 -17.75 146.9 -22.45 150.25 -27.0 152.1 -31.2 153.8 -35.25 154.25 -36.5 153.7 -37.0 152.7 -37.4 151.9 -38.5 150.7 L-38.9 150.2 -38.25 150.2 -33.25 149.75 Q-26.5 148.5 -19.95 143.85 L-17.8 142.25 Q-12.7 138.3 -11.75 135.5 L-11.7 135.3 Q-9.85 128.95 -9.7 126.55 L-9.7 126.3 -10.0 119.1 -10.1 115.55 Q-10.5 110.1 -11.95 102.45 L-12.2 101.3 Q-13.85 92.85 -14.25 85.1 L-14.4 80.1 Q-14.4 76.2 -13.25 72.85 M-10.4 81.4 L-12.5 83.3 -14.25 85.1 -12.5 83.3 -10.4 81.4 M-17.8 142.25 L-13.9 141.95 -10.9 141.35 -13.9 141.95 -17.8 142.25 M-11.75 135.5 L-9.6 133.9 -6.3 131.6 -9.6 133.9 -11.75 135.5 M-5.95 123.35 L-8.15 125.1 -9.7 126.55 -8.15 125.1 -5.95 123.35 M-8.65 98.15 L-9.8 99.45 -11.95 102.45 -9.8 99.45 -8.65 98.15 M-10.1 115.55 L-9.85 115.05 Q-8.4 112.4 -6.55 110.55 -8.4 112.4 -9.85 115.05 L-10.1 115.55 M-27.0 152.1 L-28.3 151.8 Q-31.2 151.05 -33.25 149.75 -31.2 151.05 -28.3 151.8 L-27.0 152.1 M14.7 27.4 L11.75 29.7 10.1 30.8 11.75 29.7 14.7 27.4 M11.45 20.75 L12.95 19.15 15.6 15.8 12.95 19.15 11.45 20.75 M15.05 4.5 L14.5 5.25 13.0 7.4 11.35 10.0 13.0 7.4 14.5 5.25 15.05 4.5" fill="#999999" fill-rule="evenodd" stroke="none"/>
      <path d="M-17.75 -118.0 Q-15.3 -115.2 -13.6 -112.2 L-12.8 -110.65 -14.05 -110.25 -16.55 -109.95 -16.7 -109.95 -16.6 -111.5 Q-16.6 -113.05 -17.2 -116.2 -17.3 -117.05 -17.75 -118.0 M-7.8 70.1 Q-10.15 71.1 -12.65 72.5 L-13.25 72.85 Q-12.6 70.85 -11.5 69.0 -8.9 64.5 -4.75 59.65 L-7.8 70.1 M-35.25 154.25 L-38.2 154.4 -41.5 154.35 -45.15 154.05 -46.5 153.3 -47.75 152.35 -48.2 150.45 -48.1 149.05 -48.1 148.95 -47.55 147.6 -47.4 146.65 -45.35 150.3 -44.5 150.3 -38.9 150.2 -38.5 150.7 Q-37.4 151.9 -37.0 152.7 -36.5 153.7 -35.25 154.25 M-44.5 150.3 Q-44.15 151.95 -42.35 153.6 L-41.5 154.35 -42.35 153.6 Q-44.15 151.95 -44.5 150.3" fill="#7f7f7f" fill-rule="evenodd" stroke="none"/>
      <path d="M-12.8 -110.65 Q-11.1 -107.2 -9.5 -101.8 L-12.7 -103.1 -16.9 -109.4 -16.7 -109.95 -16.55 -109.95 -14.05 -110.25 -12.8 -110.65" fill="#636363" fill-rule="evenodd" stroke="none"/>
      <path d="M-10.5 -49.25 Q-11.35 -55.2 -11.05 -61.55 L-7.85 -53.3 Q-9.35 -51.45 -10.45 -49.4 L-10.5 -49.25" fill="#727272" fill-rule="evenodd" stroke="none"/>
      <path d="M12.15 38.0 L11.15 40.9 9.1 41.8 8.95 41.9 9.55 34.35 11.45 36.95 12.15 38.0" fill="#6b6b6b" fill-rule="evenodd" stroke="none"/>
      <path d="M11.15 40.9 L8.05 48.0 Q8.65 46.0 8.9 42.6 L8.95 41.9 9.1 41.8 11.15 40.9" fill="#4c4c4c" fill-rule="evenodd" stroke="none"/>
      <path d="M2.7 -26.55 Q-0.45 -31.7 -2.6 -36.85 -4.1 -40.45 -5.1 -44.0 L-6.0 -47.7 -6.0 -47.8 -7.85 -53.3 -11.05 -61.55 Q-11.35 -55.2 -10.5 -49.25 -9.95 -45.05 -8.8 -41.05 L-8.1 -38.8 Q-6.8 -34.8 -4.65 -30.1 L-0.95 -22.7 1.85 -17.45 6.6 -7.8 7.6 -5.5 Q10.55 2.1 11.35 10.0 L11.6 15.45 11.45 20.75 Q11.1 26.0 10.1 30.8 L9.65 32.95 9.55 34.35 8.95 41.9 8.9 42.6 Q8.65 46.0 8.05 48.0 L11.15 40.9 12.15 38.0 Q13.8 32.8 14.7 27.4 15.6 21.7 15.6 15.8 L15.6 15.45 Q15.6 8.4 15.3 6.1 L15.05 4.5 Q14.35 0.5 12.4 -4.2 L8.65 -14.4 8.3 -15.35 Q6.15 -21.15 4.1 -24.3 L2.7 -26.55 M-36.9 -124.8 Q-30.05 -123.4 -26.5 -120.9 L-25.1 -119.9 Q-22.2 -117.7 -20.3 -115.35 -18.9 -113.55 -17.05 -110.0 L-17.0 -109.95 -16.9 -109.7 -16.9 -109.4 -12.7 -103.1 -9.5 -101.8 Q-11.1 -107.2 -12.8 -110.65 L-13.6 -112.2 Q-15.3 -115.2 -17.75 -118.0 M-32.55 -128.55 Q-36.2 -129.55 -41.05 -130.15 L-44.0 -130.45 Q-47.05 -130.7 -49.55 -130.55 L-51.4 -130.4 -53.35 -132.6 -53.2 -129.6 Q-53.2 -127.8 -50.45 -127.0 L-43.65 -125.9 -36.9 -124.8 M-32.55 -128.55 Q-26.65 -126.9 -23.8 -124.2 L-17.9 -118.15 -17.8 -118.05 M-7.8 70.1 L-4.75 59.65 Q-8.9 64.5 -11.5 69.0 -12.6 70.85 -13.25 72.85 -14.4 76.2 -14.4 80.1 L-14.25 85.1 Q-13.85 92.85 -12.2 101.3 L-11.95 102.45 Q-10.5 110.1 -10.1 115.55 L-10.0 119.1 -9.7 126.3 -9.7 126.55 Q-9.85 128.95 -11.7 135.3 L-11.75 135.5 Q-12.7 138.3 -17.8 142.25 L-19.95 143.85 Q-26.5 148.5 -33.25 149.75 L-38.25 150.2 -38.9 150.2 -44.5 150.3 -45.35 150.3 -47.4 146.65 -47.55 147.6 -48.1 148.95 -48.1 149.05 -48.2 150.45 -47.75 152.35 -46.5 153.3 -45.15 154.05 -41.5 154.35 -38.2 154.4 -35.25 154.25 Q-31.2 153.8 -27.0 152.1 -22.45 150.25 -17.75 146.9 -13.4 143.8 -10.9 141.35 -8.85 139.3 -8.1 137.7 -6.85 134.95 -6.3 131.6 -6.05 130.05 -5.95 128.35 L-5.95 123.35 -6.0 118.8 Q-6.0 115.1 -6.55 110.55 -7.1 105.95 -8.2 100.45 L-8.65 98.15 Q-10.3 89.2 -10.4 81.4 L-10.4 80.25 Q-10.4 75.05 -8.85 72.4 L-8.05 71.0 -7.8 70.1" fill="none" stroke="#000000" stroke-linecap="round" stroke-linejoin="round" stroke-opacity="0.4" stroke-width="0.7000000000000001"/>
      <path d="M1.85 -17.45 L1.8 -19.0 2.1 -22.15 2.7 -26.55 M-2.6 -36.85 Q-3.7 -34.55 -4.4 -31.35 L-4.65 -30.1 M6.6 -7.8 L7.4 -11.6 8.3 -15.35 M-44.0 -130.45 L-40.7 -128.7 -38.0 -126.45 -36.9 -124.8 M-25.1 -119.9 Q-26.35 -123.15 -28.6 -125.35 -30.25 -127.0 -32.55 -128.55 M-17.8 -118.05 L-17.75 -118.0 Q-17.3 -117.05 -17.2 -116.2 -16.6 -113.05 -16.6 -111.5 L-16.7 -109.95 -16.9 -109.4 M-8.1 -38.8 L-7.9 -39.3 Q-6.55 -42.25 -5.1 -44.0 M-13.25 72.85 L-12.65 72.5 Q-10.15 71.1 -7.8 70.1 M-14.25 85.1 L-12.5 83.3 -10.4 81.4 M-6.55 110.55 Q-8.4 112.4 -9.85 115.05 L-10.1 115.55 M-11.95 102.45 L-9.8 99.45 -8.65 98.15 M-9.7 126.55 L-8.15 125.1 -5.95 123.35 M-6.3 131.6 L-9.6 133.9 -11.75 135.5 M-10.9 141.35 L-13.9 141.95 -17.8 142.25 M-41.5 154.35 L-42.35 153.6 Q-44.15 151.95 -44.5 150.3 M-33.25 149.75 Q-31.2 151.05 -28.3 151.8 L-27.0 152.1 M-38.9 150.2 L-38.5 150.7 Q-37.4 151.9 -37.0 152.7 -36.5 153.7 -35.25 154.25 M11.35 10.0 L13.0 7.4 14.5 5.25 15.05 4.5 M15.6 15.8 L12.95 19.15 11.45 20.75 M10.1 30.8 L11.75 29.7 14.7 27.4 M11.15 40.9 L9.1 41.8 8.95 41.9" fill="none" stroke="#000000" stroke-linecap="round" stroke-linejoin="round" stroke-opacity="0.14901961" stroke-width="0.7000000000000001"/>
      <path d="M-22.9 -127.8 L-20.5 -130.4 Q-19.1 -131.95 -17.65 -130.6 L-14.1 -127.5 Q-12.7 -126.2 -14.1 -124.65 L-16.5 -122.05 -22.9 -127.8 -16.5 -122.05 -17.45 -120.9 -17.95 -120.4 -18.4 -119.95 Q-19.55 -119.05 -20.7 -120.1 L-24.25 -123.2 Q-25.45 -124.3 -24.7 -125.6 L-24.35 -126.15 -23.9 -126.65 -22.9 -127.8 M-23.9 -126.65 L-17.45 -120.9 -23.9 -126.65 M-18.4 -119.95 L-24.7 -125.6 -18.4 -119.95" fill="#919191" fill-rule="evenodd" stroke="none"/>
      <path d="M-16.5 -122.05 L-14.1 -124.65 Q-12.7 -126.2 -14.1 -127.5 L-17.65 -130.6 Q-19.1 -131.95 -20.5 -130.4 L-22.9 -127.8 -16.5 -122.05 -17.45 -120.9 -17.95 -120.4 -18.4 -119.95 Q-19.55 -119.05 -20.7 -120.1 L-24.25 -123.2 Q-25.45 -124.3 -24.7 -125.6 L-24.35 -126.15 -23.9 -126.65 -22.9 -127.8 M-24.7 -125.6 L-18.4 -119.95 M-17.45 -120.9 L-23.9 -126.65" fill="none" stroke="#000000" stroke-linecap="round" stroke-linejoin="round" stroke-opacity="0.4" stroke-width="0.7000000000000001"/>
      <path d="M-14.45 -122.95 L-14.4 -125.4 -19.55 -130.3 -22.15 -129.95 -19.55 -130.3 -14.4 -125.4 -14.45 -122.95 -15.05 -123.1 -21.8 -129.15 Q-21.9 -129.65 -22.15 -129.95 -22.7 -133.05 -21.2 -135.15 L-15.4 -143.35 Q-13.25 -146.5 -9.3 -146.95 -5.15 -147.35 -2.0 -144.5 1.2 -141.75 1.25 -137.6 1.2 -133.65 -1.6 -131.1 L-9.1 -124.35 Q-11.1 -122.6 -14.15 -122.85 L-14.45 -122.95" fill="#ff9900" fill-rule="evenodd" stroke="none"/>
      <path d="M-22.15 -129.95 L-19.55 -130.3 -14.4 -125.4 -14.45 -122.95 -14.15 -122.85 Q-11.1 -122.6 -9.1 -124.35 L-1.6 -131.1 Q1.2 -133.65 1.25 -137.6 1.2 -141.75 -2.0 -144.5 -5.15 -147.35 -9.3 -146.95 -13.25 -146.5 -15.4 -143.35 L-21.2 -135.15 Q-22.7 -133.05 -22.15 -129.95 -21.9 -129.65 -21.8 -129.15 L-15.05 -123.1 -14.45 -122.95" fill="none" stroke="#000000" stroke-linecap="round" stroke-linejoin="round" stroke-opacity="0.4" stroke-width="0.7000000000000001"/>
      <path d="M-18.85 -129.85 Q-17.2 -132.15 -16.1 -134.05 L-14.3 -136.9 -13.25 -139.5 -12.65 -140.45 -13.5 -137.2 Q-13.9 -135.15 -13.25 -134.5 L-11.4 -134.65 -10.9 -134.9 -10.8 -135.05 Q-9.7 -137.2 -8.15 -138.95 L-7.6 -139.6 -7.0 -139.65 -7.05 -138.85 Q-7.4 -137.95 -8.45 -136.8 -9.55 -135.55 -10.9 -134.9 -12.0 -132.55 -11.4 -132.0 L-10.25 -132.2 -8.4 -132.95 -6.65 -135.0 -5.6 -136.05 -4.3 -136.15 -4.1 -136.0 -4.65 -135.25 -5.65 -134.3 -7.85 -133.2 -8.4 -132.95 -9.0 -131.95 Q-9.55 -131.05 -9.15 -130.35 L-6.3 -131.5 Q-4.1 -132.3 -3.8 -132.0 L-3.75 -131.85 -4.05 -131.5 Q-8.1 -129.3 -8.9 -130.05 L-9.15 -130.35 -11.75 -129.15 Q-13.05 -128.45 -15.05 -126.45" fill="none" stroke="#000000" stroke-linecap="round" stroke-linejoin="round" stroke-opacity="0.4" stroke-width="0.7000000000000001"/>
      <path d="M-18.25 -117.2 L-27.85 -125.4 Q-26.25 -127.55 -23.45 -127.35 L-17.0 -121.8 Q-16.75 -118.75 -18.25 -117.2" fill="#999999" fill-rule="evenodd" stroke="none"/>
      <path d="M-27.85 -125.4 Q-26.25 -127.55 -23.45 -127.35 L-17.0 -121.8 Q-16.75 -118.75 -18.25 -117.2" fill="none" stroke="#000000" stroke-linecap="round" stroke-linejoin="round" stroke-opacity="0.4" stroke-width="0.7000000000000001"/>
      <path d="M-8.95 -52.1 Q-11.25 -52.0 -12.5 -49.95 L-11.8 -42.6 Q-9.7 -40.85 -7.9 -41.15 L-8.95 -52.1" fill="#999999" fill-rule="evenodd" stroke="none"/>
      <path d="M-8.95 -52.1 Q-11.25 -52.0 -12.5 -49.95 L-11.8 -42.6 Q-9.7 -40.85 -7.9 -41.15" fill="none" stroke="#000000" stroke-linecap="round" stroke-linejoin="round" stroke-opacity="0.4" stroke-width="0.7000000000000001"/>
      <path d="M8.55 -9.15 Q10.95 -10.45 13.4 -9.1 L17.0 -1.4 Q15.9 1.55 13.9 2.3 L8.55 -9.15" fill="#999999" fill-rule="evenodd" stroke="none"/>
      <path d="M8.55 -9.15 Q10.95 -10.45 13.4 -9.1 L17.0 -1.4 Q15.9 1.55 13.9 2.3" fill="none" stroke="#000000" stroke-linecap="round" stroke-linejoin="round" stroke-opacity="0.4" stroke-width="0.7000000000000001"/>
      <path d="M-13.2 86.75 L-11.9 98.55 Q-14.45 99.0 -16.15 97.05 L-17.05 89.1 Q-15.2 86.85 -13.2 86.75" fill="#999999" fill-rule="evenodd" stroke="none"/>
      <path d="M-11.9 98.55 Q-14.45 99.0 -16.15 97.05 L-17.05 89.1 Q-15.2 86.85 -13.2 86.75" fill="none" stroke="#000000" stroke-linecap="round" stroke-linejoin="round" stroke-opacity="0.4" stroke-width="0.7000000000000001"/>
      <path d="M-26.6 149.9 L-15.6 143.65 Q-14.1 145.95 -15.25 148.5 L-22.65 152.7 Q-25.7 151.9 -26.6 149.9" fill="#999999" fill-rule="evenodd" stroke="none"/>
      <path d="M-15.6 143.65 Q-14.1 145.95 -15.25 148.5 L-22.65 152.7 Q-25.7 151.9 -26.6 149.9" fill="none" stroke="#000000" stroke-linecap="round" stroke-linejoin="round" stroke-opacity="0.4" stroke-width="0.7000000000000001"/>
      <path d="M23.55 -10.65 Q23.55 -14.9 26.55 -17.85 29.5 -20.85 33.75 -20.85 37.95 -20.85 40.9 -17.85 43.9 -14.9 43.9 -10.65 43.9 -6.4 40.9 -3.5 37.95 -0.5 33.75 -0.5 29.5 -0.5 26.55 -3.5 23.55 -6.4 23.55 -10.65" fill="url(#gradient3)" fill-rule="evenodd" stroke="none"/>
      <path d="M25.05 -38.6 Q36.85 -38.6 45.15 -30.3 53.45 -22.0 53.45 -10.2 53.45 1.6 45.15 9.9 36.85 18.2 25.05 18.2 13.25 18.2 4.95 9.9 -3.35 1.6 -3.35 -10.2 -3.35 -22.0 4.95 -30.3 13.25 -38.6 25.05 -38.6" fill="url(#gradient4)" fill-rule="evenodd" stroke="none"/>
      <path d="M-31.75 -56.75 Q-27.55 -56.75 -24.6 -53.75 -21.6 -50.8 -21.6 -46.55 -21.6 -42.3 -24.6 -39.4 -27.55 -36.4 -31.75 -36.4 -36.0 -36.4 -38.95 -39.4 -41.95 -42.3 -41.95 -46.55 -41.95 -50.8 -38.95 -53.75 -36.0 -56.75 -31.75 -56.75" fill="url(#gradient5)" fill-rule="evenodd" stroke="none"/>
      <path d="M-4.25 -63.25 Q4.05 -54.95 4.05 -43.15 4.05 -31.35 -4.25 -23.05 -12.55 -14.75 -24.35 -14.75 -36.15 -14.75 -44.45 -23.05 -52.75 -31.35 -52.75 -43.15 -52.75 -54.95 -44.45 -63.25 -36.15 -71.55 -24.35 -71.55 -12.55 -71.55 -4.25 -63.25" fill="url(#gradient6)" fill-rule="evenodd" stroke="none"/>
      <path d="M4.85 -130.35 Q1.9 -127.35 -2.3 -127.35 -6.55 -127.35 -9.5 -130.35 -12.5 -133.25 -12.5 -137.5 -12.5 -141.75 -9.5 -144.7 -6.55 -147.7 -2.3 -147.7 1.9 -147.7 4.85 -144.7 7.85 -141.75 7.85 -137.5 7.85 -133.25 4.85 -130.35" fill="url(#gradient7)" fill-rule="evenodd" stroke="none"/>
      <path d="M12.85 -116.9 Q3.7 -107.85 -9.25 -107.85 -22.15 -107.85 -31.15 -116.9 -40.1 -126.0 -39.95 -138.9 -39.8 -151.8 -30.65 -160.9 -21.45 -170.0 -8.55 -170.0 4.4 -170.0 13.35 -160.9 22.35 -151.8 22.2 -138.9 22.05 -126.0 12.85 -116.9" fill="url(#gradient8)" fill-rule="evenodd" stroke="none"/>
      <path d="M0.3 173.4 Q-2.65 176.4 -6.85 176.4 -11.1 176.4 -14.05 173.4 -17.05 170.5 -17.05 166.25 -17.05 162.0 -14.05 159.05 -11.1 156.05 -6.85 156.05 -2.65 156.05 0.3 159.05 3.3 162.0 3.3 166.25 3.3 170.5 0.3 173.4" fill="url(#gradient9)" fill-rule="evenodd" stroke="none"/>
      <path d="M10.2 180.9 Q1.9 189.2 -9.9 189.2 -21.7 189.2 -30.0 180.9 -38.3 172.6 -38.3 160.8 -38.3 149.0 -30.0 140.7 -21.7 132.4 -9.9 132.4 1.9 132.4 10.2 140.7 18.5 149.0 18.5 160.8 18.5 172.6 10.2 180.9" fill="url(#gradient10)" fill-rule="evenodd" stroke="none"/>
      <path d="M-50.85 73.1 Q-42.55 64.8 -30.75 64.8 -18.95 64.8 -10.65 73.1 -2.35 81.4 -2.35 93.2 -2.35 105.0 -10.65 113.3 -18.95 121.6 -30.75 121.6 -42.55 121.6 -50.85 113.3 -59.15 105.0 -59.15 93.2 -59.15 81.4 -50.85 73.1" fill="url(#gradient11)" fill-rule="evenodd" stroke="none"/>
    </g>
    <radialGradient cx="0" cy="0" gradientTransform="matrix(0.0128, 0.0, 0.0, 0.0128, 19.4, 73.65)" gradientUnits="userSpaceOnUse" id="gradient0" r="819.2" spreadMethod="pad">
      <stop offset="0.0" stop-color="#ffffff"/>
      <stop offset="1.0" stop-color="#ffffff" stop-opacity="0.0"/>
    </radialGradient>
    <radialGradient cx="0" cy="0" gradientTransform="matrix(0.0292, 0.0, 0.0, 0.0292, 18.95, 68.4)" gradientUnits="userSpaceOnUse" id="gradient1" r="819.2" spreadMethod="pad">
      <stop offset="0.0" stop-color="#ff00ff" stop-opacity="0.46666667"/>
      <stop offset="1.0" stop-color="#ff00ff" stop-opacity="0.0"/>
    </radialGradient>
    <radialGradient cx="0" cy="0" gradientTransform="matrix(0.0128, 0.0, 0.0, 0.0128, -35.15, 90.5)" gradientUnits="userSpaceOnUse" id="gradient2" r="819.2" spreadMethod="pad">
      <stop offset="0.0" stop-color="#ffffff"/>
      <stop offset="1.0" stop-color="#ffffff" stop-opacity="0.0"/>
    </radialGradient>
    <radialGradient cx="0" cy="0" gradientTransform="matrix(0.0128, 0.0, 0.0, 0.0128, 33.75, -10.65)" gradientUnits="userSpaceOnUse" id="gradient3" r="819.2" spreadMethod="pad">
      <stop offset="0.0" stop-color="#ffffff"/>
      <stop offset="1.0" stop-color="#ffffff" stop-opacity="0.0"/>
    </radialGradient>
    <radialGradient cx="0" cy="0" gradientTransform="matrix(0.0292, 0.0, 0.0, 0.0292, 25.05, -10.2)" gradientUnits="userSpaceOnUse" id="gradient4" r="819.2" spreadMethod="pad">
      <stop offset="0.0" stop-color="#ff3300" stop-opacity="0.47058824"/>
      <stop offset="0.9725490196078431" stop-color="#ff3300" stop-opacity="0.0"/>
    </radialGradient>
    <radialGradient cx="0" cy="0" gradientTransform="matrix(0.0128, 0.0, 0.0, 0.0128, -31.75, -46.55)" gradientUnits="userSpaceOnUse" id="gradient5" r="819.2" spreadMethod="pad">
      <stop offset="0.0" stop-color="#ffffff"/>
      <stop offset="1.0" stop-color="#ffffff" stop-opacity="0.0"/>
    </radialGradient>
    <radialGradient cx="0" cy="0" gradientTransform="matrix(0.0292, 0.0, 0.0, 0.0292, -24.35, -43.15)" gradientUnits="userSpaceOnUse" id="gradient6" r="819.2" spreadMethod="pad">
      <stop offset="0.0" stop-color="#2fbc00" stop-opacity="0.47058824"/>
      <stop offset="1.0" stop-color="#33cc00" stop-opacity="0.0"/>
    </radialGradient>
    <radialGradient cx="0" cy="0" gradientTransform="matrix(0.0128, 0.0, 0.0, 0.0128, -2.3, -137.5)" gradientUnits="userSpaceOnUse" id="gradient7" r="819.2" spreadMethod="pad">
      <stop offset="0.0" stop-color="#ffffff"/>
      <stop offset="1.0" stop-color="#ffffff" stop-opacity="0.0"/>
    </radialGradient>
    <radialGradient cx="0" cy="0" gradientTransform="matrix(0.0319, 0.0, -3.0E-4, 0.0319, -8.9, -138.9)" gradientUnits="userSpaceOnUse" id="gradient8" r="819.2" spreadMethod="pad">
      <stop offset="0.0" stop-color="#ffcc00" stop-opacity="0.46666667"/>
      <stop offset="1.0" stop-color="#ffcc00" stop-opacity="0.0"/>
    </radialGradient>
    <radialGradient cx="0" cy="0" gradientTransform="matrix(0.0128, 0.0, 0.0, 0.0128, -6.85, 166.25)" gradientUnits="userSpaceOnUse" id="gradient9" r="819.2" spreadMethod="pad">
      <stop offset="0.0" stop-color="#ffffff"/>
      <stop offset="1.0" stop-color="#ffffff" stop-opacity="0.0"/>
    </radialGradient>
    <radialGradient cx="0" cy="0" gradientTransform="matrix(0.0292, 0.0, 0.0, 0.0292, -9.9, 160.8)" gradientUnits="userSpaceOnUse" id="gradient10" r="819.2" spreadMethod="pad">
      <stop offset="0.0" stop-color="#ffe900" stop-opacity="0.46666667"/>
      <stop offset="1.0" stop-color="#ffd400" stop-opacity="0.0"/>
    </radialGradient>
    <radialGradient cx="0" cy="0" gradientTransform="matrix(0.0292, 0.0, 0.0, 0.0292, -30.75, 93.2)" gradientUnits="userSpaceOnUse" id="gradient11" r="819.2" spreadMethod="pad">
      <stop offset="0.0" stop-color="#00ccff" stop-opacity="0.46666667"/>
      <stop offset="1.0" stop-color="#00ccff" stop-opacity="0.0"/>
    </radialGradient>
    <g id="shape1" transform="matrix(1.0, 0.0, 0.0, 1.0, -79.5, 72.55)">
      <path d="M79.5 -46.25 Q79.6 -47.85 80.35 -50.55 81.0 -53.0 84.05 -55.7 86.35 -57.75 87.5 -57.95 L87.5 -58.05 Q88.1 -62.85 90.05 -67.35 L90.8 -69.05 91.7 -70.1 Q95.25 -72.6 99.7 -72.4 L101.2 -72.5 105.45 -72.5 107.2 -72.5 Q111.85 -72.45 114.5 -69.55 116.4 -67.5 116.45 -65.45 121.6 -65.6 123.35 -64.55 125.05 -63.5 125.6 -62.7 L126.2 -61.6 127.25 -58.9 Q128.1 -56.1 128.1 -53.95 L127.95 -52.5 128.0 -51.85 127.05 -49.25 126.95 -48.8 127.05 -48.75 Q127.1 -48.5 127.4 -48.4 L127.45 -48.4 Q128.6 -47.6 129.0 -45.3 129.35 -43.55 129.2 -41.65 129.2 -38.5 127.5 -36.7 126.5 -35.6 124.85 -34.85 L125.4 -34.0 125.7 -31.7 Q125.7 -23.7 122.5 -21.25 120.05 -19.4 112.7 -19.4 110.55 -19.4 106.0 -21.0 L105.6 -21.15 104.6 -21.25 104.45 -21.15 Q103.4 -19.6 95.35 -19.6 88.75 -19.6 83.9 -24.45 82.3 -26.05 81.25 -30.45 L79.8 -36.95 Q79.5 -38.65 79.5 -42.35 L79.5 -46.25 M123.95 -49.5 L125.85 -51.1 126.6 -52.3 126.85 -53.65 126.75 -54.9 125.8 -59.05 125.3 -60.75 Q124.8 -62.15 122.75 -63.1 L121.85 -63.5 117.7 -64.15 109.1 -63.2 Q104.65 -62.05 102.75 -61.15 L102.4 -60.95 Q100.5 -60.0 99.85 -58.75 99.2 -57.55 98.9 -56.4 98.25 -53.3 98.85 -50.8 L99.05 -49.95 Q99.25 -49.15 99.9 -48.75 100.35 -48.4 101.75 -48.1 L102.5 -48.0 103.1 -47.9 103.25 -47.85 Q111.95 -47.2 118.95 -48.2 121.85 -48.55 123.25 -49.2 L123.95 -49.5 M109.4 -70.1 L105.8 -70.5 101.2 -70.45 Q94.75 -70.7 93.3 -69.2 L91.7 -67.25 Q90.15 -64.3 89.45 -61.0 L88.75 -58.05 88.2 -56.25 87.95 -55.9 Q87.65 -56.35 87.55 -56.9 L86.45 -55.8 84.35 -53.8 Q82.3 -51.6 81.8 -49.9 81.05 -47.45 80.95 -45.85 L81.0 -42.3 Q81.0 -39.4 81.45 -36.95 81.8 -35.0 82.85 -31.15 L83.6 -28.4 Q84.25 -26.65 85.2 -25.6 86.55 -24.2 88.85 -23.0 92.0 -21.35 95.3 -21.3 L95.5 -21.3 99.7 -21.4 101.1 -21.55 103.0 -22.1 99.7 -23.75 97.0 -25.6 Q96.45 -26.25 96.45 -27.8 96.45 -29.8 97.3 -32.75 L98.1 -34.25 98.6 -34.95 98.0 -35.1 96.05 -33.95 Q93.35 -32.5 91.95 -32.5 L90.35 -32.95 Q90.65 -33.45 94.9 -35.0 L96.1 -35.75 Q94.65 -36.3 93.7 -36.95 92.0 -38.1 91.7 -39.7 91.55 -40.55 91.75 -41.75 91.65 -44.8 92.6 -47.15 93.9 -50.2 96.7 -49.8 L96.7 -50.5 96.8 -53.85 95.6 -54.45 93.7 -55.55 Q94.2 -56.7 96.65 -56.15 L97.0 -56.05 Q97.2 -57.8 97.6 -58.65 99.2 -62.0 104.15 -63.65 L108.95 -64.75 112.9 -65.2 114.4 -65.35 114.35 -65.45 113.4 -67.5 Q112.2 -69.45 109.4 -70.1 M124.55 -47.15 L119.05 -46.3 114.1 -46.0 109.25 -46.0 105.15 -46.05 103.25 -46.15 98.95 -46.5 98.6 -46.6 98.4 -46.7 98.15 -46.75 Q97.65 -46.95 97.35 -47.35 L97.2 -47.65 96.5 -47.85 Q95.6 -48.0 94.6 -46.9 93.85 -46.05 93.75 -45.55 93.6 -45.0 93.6 -42.8 93.6 -40.85 93.85 -40.2 94.45 -38.65 96.65 -37.7 L97.4 -37.45 101.85 -36.5 110.95 -35.3 Q115.65 -34.9 118.55 -35.4 L123.0 -36.25 123.95 -36.6 125.95 -37.95 Q127.35 -39.3 127.35 -42.65 L127.05 -45.0 126.9 -46.2 126.85 -46.4 Q126.6 -47.5 125.6 -47.5 125.05 -47.5 124.6 -47.15 L124.55 -47.15 M102.8 -34.15 L102.35 -34.25 100.5 -34.35 100.3 -34.25 100.1 -33.95 Q99.15 -32.7 99.1 -32.25 L98.7 -30.75 98.35 -29.1 98.55 -27.35 99.05 -26.2 99.7 -25.5 100.45 -25.05 Q101.7 -24.3 103.05 -23.65 107.1 -21.85 111.5 -21.65 L113.55 -21.65 115.45 -21.75 Q118.4 -21.75 120.3 -22.55 121.8 -23.25 122.55 -24.5 123.7 -26.35 123.7 -31.3 L123.55 -32.65 122.9 -33.5 121.8 -33.9 116.2 -33.45 102.8 -34.15" fill="#000000" fill-rule="evenodd" stroke="none"/>
      <path d="M121.85 -63.5 L122.75 -63.1 Q124.8 -62.15 125.3 -60.75 L125.8 -59.05 126.75 -54.9 126.85 -53.65 126.6 -52.3 125.85 -51.1 123.95 -49.5 124.25 -51.25 Q124.25 -55.95 123.45 -59.45 122.85 -62.05 121.85 -63.5 M102.5 -48.0 L101.75 -48.1 Q100.35 -48.4 99.9 -48.75 99.25 -49.15 99.05 -49.95 L98.85 -50.8 Q98.25 -53.3 98.9 -56.4 99.2 -57.55 99.85 -58.75 100.5 -60.0 102.4 -60.95 L102.75 -61.15 Q101.65 -58.3 101.65 -53.65 L101.7 -50.55 Q101.9 -49.35 102.5 -48.0 M112.9 -65.2 Q111.75 -65.85 111.2 -67.5 110.65 -69.15 109.4 -70.1 112.2 -69.45 113.4 -67.5 L114.35 -65.45 114.4 -65.35 112.9 -65.2 M98.15 -46.75 L97.55 -46.25 Q96.85 -45.25 96.85 -41.35 96.85 -38.7 97.4 -37.45 L96.65 -37.7 Q94.45 -38.65 93.85 -40.2 93.6 -40.85 93.6 -42.8 93.6 -45.0 93.75 -45.55 93.85 -46.05 94.6 -46.9 95.6 -48.0 96.5 -47.85 L97.2 -47.65 97.35 -47.35 Q97.65 -46.95 98.15 -46.75 M123.95 -36.6 L124.35 -38.55 Q125.05 -41.7 125.05 -44.65 125.05 -46.05 124.55 -47.15 L124.6 -47.15 Q125.05 -47.5 125.6 -47.5 126.6 -47.5 126.85 -46.4 L126.9 -46.2 127.05 -45.0 127.35 -42.65 Q127.35 -39.3 125.95 -37.95 L123.95 -36.6 M100.45 -25.05 L99.7 -25.5 99.05 -26.2 98.55 -27.35 98.35 -29.1 98.7 -30.75 99.1 -32.25 Q99.15 -32.7 100.1 -33.95 L100.3 -34.25 100.5 -34.35 102.35 -34.25 102.8 -34.15 101.75 -30.95 Q100.45 -26.8 100.45 -25.35 L100.45 -25.05 M123.55 -32.65 L123.7 -31.3 Q123.7 -26.35 122.55 -24.5 121.8 -23.25 120.3 -22.55 121.1 -26.25 121.65 -28.05 121.95 -29.15 122.95 -31.05 L123.55 -32.65" fill="#bdbdbd" fill-rule="evenodd" stroke="none"/>
      <path d="M123.95 -49.5 L123.25 -49.2 Q121.85 -48.55 118.95 -48.2 111.95 -47.2 103.25 -47.85 L103.1 -47.9 102.5 -48.0 Q101.9 -49.35 101.7 -50.55 L101.65 -53.65 Q101.65 -58.3 102.75 -61.15 104.65 -62.05 109.1 -63.2 L117.7 -64.15 121.85 -63.5 Q122.85 -62.05 123.45 -59.45 124.25 -55.95 124.25 -51.25 L123.95 -49.5 M112.9 -65.2 L108.95 -64.75 104.15 -63.65 Q99.2 -62.0 97.6 -58.65 97.2 -57.8 97.0 -56.05 L96.65 -56.15 Q94.2 -56.7 93.7 -55.55 L95.6 -54.45 96.8 -53.85 96.7 -50.5 96.7 -49.8 Q93.9 -50.2 92.6 -47.15 91.65 -44.8 91.75 -41.75 91.55 -40.55 91.7 -39.7 92.0 -38.1 93.7 -36.95 94.65 -36.3 96.1 -35.75 L94.9 -35.0 Q90.65 -33.45 90.35 -32.95 L91.95 -32.5 Q93.35 -32.5 96.05 -33.95 L98.0 -35.1 98.6 -34.95 98.1 -34.25 97.3 -32.75 Q96.45 -29.8 96.45 -27.8 96.45 -26.25 97.0 -25.6 L99.7 -23.75 103.0 -22.1 101.1 -21.55 99.7 -21.4 95.5 -21.3 95.3 -21.3 Q92.0 -21.35 88.85 -23.0 86.55 -24.2 85.2 -25.6 84.25 -26.65 83.6 -28.4 L82.85 -31.15 Q81.8 -35.0 81.45 -36.95 81.0 -39.4 81.0 -42.3 L80.95 -45.85 Q81.05 -47.45 81.8 -49.9 82.3 -51.6 84.35 -53.8 L86.45 -55.8 87.55 -56.9 Q87.65 -56.35 87.95 -55.9 L88.2 -56.25 88.75 -58.05 89.45 -61.0 Q90.15 -64.3 91.7 -67.25 L93.3 -69.2 Q94.75 -70.7 101.2 -70.45 L105.8 -70.5 109.4 -70.1 Q110.65 -69.15 111.2 -67.5 111.75 -65.85 112.9 -65.2 M98.15 -46.75 L98.4 -46.7 98.6 -46.6 98.95 -46.5 103.25 -46.15 105.15 -46.05 109.25 -46.0 114.1 -46.0 119.05 -46.3 124.55 -47.15 Q125.05 -46.05 125.05 -44.65 125.05 -41.7 124.35 -38.55 L123.95 -36.6 123.0 -36.25 118.55 -35.4 Q115.65 -34.9 110.95 -35.3 L101.85 -36.5 97.4 -37.45 Q96.85 -38.7 96.85 -41.35 96.85 -45.25 97.55 -46.25 L98.15 -46.75 M100.45 -25.05 L100.45 -25.35 Q100.45 -26.8 101.75 -30.95 L102.8 -34.15 116.2 -33.45 121.8 -33.9 122.9 -33.5 123.55 -32.65 122.95 -31.05 Q121.95 -29.15 121.65 -28.05 121.1 -26.25 120.3 -22.55 118.4 -21.75 115.45 -21.75 L113.55 -21.65 111.5 -21.65 Q107.1 -21.85 103.05 -23.65 101.7 -24.3 100.45 -25.05" fill="#999999" fill-rule="evenodd" stroke="none"/>
      <path d="M125.6 -62.7 L126.2 -61.6 127.25 -58.9 Q128.1 -56.1 128.1 -53.95 L127.95 -52.5 128.0 -51.85 127.05 -49.25 126.95 -48.8 127.05 -48.75 Q127.1 -48.5 127.4 -48.4 L127.45 -48.4 Q128.6 -47.6 129.0 -45.3 129.35 -43.55 129.2 -41.65 129.2 -38.5 127.5 -36.7 126.5 -35.6 124.85 -34.85 L125.4 -34.0 125.7 -31.7 Q125.7 -23.7 122.5 -21.25 120.05 -19.4 112.7 -19.4 110.7 -19.4 106.55 -20.8 106.05 -21.35 105.25 -21.55 L102.85 -22.2 102.8 -22.2 99.7 -23.75 97.0 -25.6 Q96.45 -26.25 96.45 -27.8 96.45 -29.8 97.3 -32.75 L98.1 -34.25 98.6 -34.95 98.0 -35.1 96.05 -33.95 Q93.35 -32.5 91.95 -32.5 L90.35 -32.95 Q90.65 -33.45 94.9 -35.0 L96.1 -35.75 Q94.65 -36.3 93.7 -36.95 92.0 -38.1 91.7 -39.7 91.55 -40.55 91.75 -41.75 91.65 -44.8 92.6 -47.15 93.9 -50.2 96.7 -49.8 L96.7 -50.5 96.8 -53.85 95.6 -54.45 93.7 -55.55 Q94.2 -56.7 96.65 -56.15 L97.0 -56.05 Q97.2 -57.8 97.6 -58.65 99.2 -62.0 104.15 -63.65 L108.95 -64.75 112.9 -65.2 114.0 -65.3 114.3 -65.35 114.4 -65.35 116.6 -65.45 117.2 -65.45 Q121.7 -65.5 123.35 -64.55 125.05 -63.5 125.6 -62.7 M123.95 -49.5 L125.85 -51.1 126.6 -52.3 126.85 -53.65 126.75 -54.9 125.8 -59.05 125.3 -60.75 Q124.8 -62.15 122.75 -63.1 L121.85 -63.5 117.7 -64.15 109.1 -63.2 Q104.65 -62.05 102.75 -61.15 L102.4 -60.95 Q100.5 -60.0 99.85 -58.75 99.2 -57.55 98.9 -56.4 98.25 -53.3 98.85 -50.8 L99.05 -49.95 Q99.25 -49.15 99.9 -48.75 100.35 -48.4 101.75 -48.1 L102.5 -48.0 103.1 -47.9 103.25 -47.85 Q111.95 -47.2 118.95 -48.2 121.85 -48.55 123.25 -49.2 L123.95 -49.5 M124.55 -47.15 L119.05 -46.3 114.1 -46.0 109.25 -46.0 105.15 -46.05 103.25 -46.15 98.95 -46.5 98.6 -46.6 98.4 -46.7 98.15 -46.75 Q97.65 -46.95 97.35 -47.35 L97.2 -47.65 96.5 -47.85 Q95.6 -48.0 94.6 -46.9 93.85 -46.05 93.75 -45.55 93.6 -45.0 93.6 -42.8 93.6 -40.85 93.85 -40.2 94.45 -38.65 96.65 -37.7 L97.4 -37.45 101.85 -36.5 110.95 -35.3 Q115.65 -34.9 118.55 -35.4 L123.0 -36.25 123.95 -36.6 125.95 -37.95 Q127.35 -39.3 127.35 -42.65 L127.05 -45.0 126.9 -46.2 126.85 -46.4 Q126.6 -47.5 125.6 -47.5 125.05 -47.5 124.6 -47.15 L124.55 -47.15 M102.8 -34.15 L102.35 -34.25 100.5 -34.35 100.3 -34.25 100.1 -33.95 Q99.15 -32.7 99.1 -32.25 L98.7 -30.75 98.35 -29.1 98.55 -27.35 99.05 -26.2 99.7 -25.5 100.45 -25.05 Q101.7 -24.3 103.05 -23.65 107.1 -21.85 111.5 -21.65 L113.55 -21.65 115.45 -21.75 Q118.4 -21.75 120.3 -22.55 121.8 -23.25 122.55 -24.5 123.7 -26.35 123.7 -31.3 L123.55 -32.65 122.9 -33.5 121.8 -33.9 116.2 -33.45 102.8 -34.15" fill="#000000" fill-rule="evenodd" stroke="none"/>
      <path d="M121.85 -63.5 L122.75 -63.1 Q124.8 -62.15 125.3 -60.75 L125.8 -59.05 126.75 -54.9 126.85 -53.65 126.6 -52.3 125.85 -51.1 123.95 -49.5 124.25 -51.25 Q124.25 -55.95 123.45 -59.45 122.85 -62.05 121.85 -63.5 M102.5 -48.0 L101.75 -48.1 Q100.35 -48.4 99.9 -48.75 99.25 -49.15 99.05 -49.95 L98.85 -50.8 Q98.25 -53.3 98.9 -56.4 99.2 -57.55 99.85 -58.75 100.5 -60.0 102.4 -60.95 L102.75 -61.15 Q101.65 -58.3 101.65 -53.65 L101.7 -50.55 Q101.9 -49.35 102.5 -48.0 M124.55 -47.15 L124.6 -47.15 Q125.05 -47.5 125.6 -47.5 126.6 -47.5 126.85 -46.4 L126.9 -46.2 127.05 -45.0 127.35 -42.65 Q127.35 -39.3 125.95 -37.95 L123.95 -36.6 124.35 -38.55 Q125.05 -41.7 125.05 -44.65 125.05 -46.05 124.55 -47.15 M97.4 -37.45 L96.65 -37.7 Q94.45 -38.65 93.85 -40.2 93.6 -40.85 93.6 -42.8 93.6 -45.0 93.75 -45.55 93.85 -46.05 94.6 -46.9 95.6 -48.0 96.5 -47.85 L97.2 -47.65 97.35 -47.35 Q97.65 -46.95 98.15 -46.75 L97.55 -46.25 Q96.85 -45.25 96.85 -41.35 96.85 -38.7 97.4 -37.45 M100.45 -25.05 L99.7 -25.5 99.05 -26.2 98.55 -27.35 98.35 -29.1 98.7 -30.75 99.1 -32.25 Q99.15 -32.7 100.1 -33.95 L100.3 -34.25 100.5 -34.35 102.35 -34.25 102.8 -34.15 101.75 -30.95 Q100.45 -26.8 100.45 -25.35 L100.45 -25.05 M123.55 -32.65 L123.7 -31.3 Q123.7 -26.35 122.55 -24.5 121.8 -23.25 120.3 -22.55 121.1 -26.25 121.65 -28.05 121.95 -29.15 122.95 -31.05 L123.55 -32.65" fill="#bdbdbd" fill-rule="evenodd" stroke="none"/>
      <path d="M123.95 -49.5 L123.25 -49.2 Q121.85 -48.55 118.95 -48.2 111.95 -47.2 103.25 -47.85 L103.1 -47.9 102.5 -48.0 Q101.9 -49.35 101.7 -50.55 L101.65 -53.65 Q101.65 -58.3 102.75 -61.15 104.65 -62.05 109.1 -63.2 L117.7 -64.15 121.85 -63.5 Q122.85 -62.05 123.45 -59.45 124.25 -55.95 124.25 -51.25 L123.95 -49.5 M98.15 -46.75 L98.4 -46.7 98.6 -46.6 98.95 -46.5 103.25 -46.15 105.15 -46.05 109.25 -46.0 114.1 -46.0 119.05 -46.3 124.55 -47.15 Q125.05 -46.05 125.05 -44.65 125.05 -41.7 124.35 -38.55 L123.95 -36.6 123.0 -36.25 118.55 -35.4 Q115.65 -34.9 110.95 -35.3 L101.85 -36.5 97.4 -37.45 Q96.85 -38.7 96.85 -41.35 96.85 -45.25 97.55 -46.25 L98.15 -46.75 M100.45 -25.05 L100.45 -25.35 Q100.45 -26.8 101.75 -30.95 L102.8 -34.15 116.2 -33.45 121.8 -33.9 122.9 -33.5 123.55 -32.65 122.95 -31.05 Q121.95 -29.15 121.65 -28.05 121.1 -26.25 120.3 -22.55 118.4 -21.75 115.45 -21.75 L113.55 -21.65 111.5 -21.65 Q107.1 -21.85 103.05 -23.65 101.7 -24.3 100.45 -25.05" fill="#999999" fill-rule="evenodd" stroke="none"/>
    </g>
    <g id="shape2" transform="matrix(1.0, 0.0, 0.0, 1.0, 122.65, 23.7)">
      <path d="M76.75 7.85 L64.95 6.3 48.65 6.25 -9.8 5.9 -67.3 5.55 -67.3 -1.2 -24.4 -0.6 -8.3 -0.4 14.5 -0.1 63.8 -2.15 88.05 -4.75 88.45 -4.65 78.7 -1.05 88.1 1.1 67.0 3.45 76.75 7.85 M48.65 6.25 Q44.1 3.9 38.95 3.1 L28.75 1.9 18.45 1.65 8.2 1.6 -2.0 1.05 -8.3 -0.4 -2.0 1.05 8.2 1.6 18.45 1.65 28.75 1.9 38.95 3.1 Q44.1 3.9 48.65 6.25 M-9.8 5.9 L-12.35 5.1 -18.1 3.05 Q-21.6 1.45 -24.4 -0.6 -21.6 1.45 -18.1 3.05 L-12.35 5.1 -9.8 5.9" fill="#9e6229" fill-rule="evenodd" stroke="none"/>
      <path d="M88.45 -4.65 L103.6 -3.85 100.9 -2.45 125.75 1.25 94.2 10.05 76.75 7.85 67.0 3.45 88.1 1.1 78.7 -1.05 88.45 -4.65" fill="#c49b65" fill-rule="evenodd" stroke="none"/>
      <path d="M76.75 7.85 L64.95 6.3 48.65 6.25 -9.8 5.9 -67.3 5.55 -67.3 -1.2 -24.4 -0.6 -8.3 -0.4 14.5 -0.1 63.8 -2.15 88.05 -4.75 88.45 -4.65 103.6 -3.85 100.9 -2.45 125.75 1.25 94.2 10.05 76.75 7.85" fill="none" stroke="#000000" stroke-linecap="round" stroke-linejoin="round" stroke-opacity="0.34901962" stroke-width="1.0"/>
      <path d="M76.75 7.85 L67.0 3.45 88.1 1.1 78.7 -1.05 88.45 -4.65 M-24.4 -0.6 Q-21.6 1.45 -18.1 3.05 L-12.35 5.1 -9.8 5.9 M-8.3 -0.4 L-2.0 1.05 8.2 1.6 18.45 1.65 28.75 1.9 38.95 3.1 Q44.1 3.9 48.65 6.25" fill="none" stroke="#000000" stroke-linecap="round" stroke-linejoin="round" stroke-opacity="0.2" stroke-width="0.5"/>
      <path d="M-101.55 -12.95 L-102.2 -12.8 -102.3 -12.35 Q-98.7 -6.35 -91.3 -1.9 -84.4 2.25 -79.25 2.25 L-78.45 2.15 -78.2 1.65 Q-82.85 -1.9 -92.1 -7.55 -100.8 -12.95 -101.55 -12.95 M-87.5 18.7 L-87.95 20.1 -89.35 18.25 -89.9 16.9 Q-89.9 14.15 -88.35 11.45 L-88.7 11.75 -101.15 23.7 -102.9 22.2 -103.25 21.75 Q-103.25 19.85 -99.9 15.75 -96.65 11.8 -91.9 7.8 L-85.95 3.2 Q-100.15 3.0 -109.85 0.6 -118.85 -1.65 -122.65 -5.35 -121.0 -6.65 -105.75 -4.15 L-95.85 -2.4 Q-99.3 -4.65 -102.85 -7.85 -107.1 -11.55 -110.45 -15.75 -113.25 -19.3 -113.25 -20.1 -113.25 -21.35 -112.7 -22.45 L-111.65 -23.7 Q-110.05 -18.55 -97.2 -11.15 -90.8 -7.5 -77.55 -0.75 L-75.75 -0.9 -74.9 -0.5 -75.65 0.2 -74.7 0.65 -73.4 0.25 -71.35 1.15 -71.9 1.35 Q-76.15 2.25 -78.25 2.9 -85.9 5.15 -88.35 11.5 L-84.9 10.05 -86.0 11.75 Q-88.35 15.85 -88.45 18.65 L-87.5 18.7 M-85.6 -9.25 L-86.0 -9.45 -97.4 -13.55 Q-105.75 -16.95 -106.45 -19.95 -96.0 -18.05 -82.9 -12.8 L-74.25 -9.1 Q-72.0 -7.15 -68.25 -4.85 L-70.0 -5.35 Q-72.2 -5.35 -71.8 -4.1 L-71.15 -3.1 -74.35 -4.65 Q-84.35 -9.3 -85.1 -9.3 L-85.6 -9.25 M-69.7 -9.6 Q-76.55 -16.15 -78.5 -20.65 -75.25 -19.85 -62.7 -10.55 L-53.65 -3.85 -53.85 -3.85 Q-56.85 -3.85 -54.2 -1.65 L-54.35 -1.55 -61.2 -5.35 -69.2 -9.65 -69.7 -9.6 M-52.6 -3.25 L-53.25 -4.1 -51.45 -2.6 -52.6 -3.25 M-59.85 -14.8 L-60.55 -16.15 -63.75 -22.8 Q-57.5 -18.85 -50.4 -11.8 -49.95 -11.3 -49.3 -10.75 -48.25 -8.35 -46.05 -5.45 L-45.25 -4.35 -50.65 -8.3 -59.85 -14.8 M-38.5 0.35 L-34.7 4.3 Q-35.25 5.35 -37.0 5.35 L-38.2 5.3 -38.15 3.65 -38.25 2.9 -38.4 2.55 -38.8 2.45 -38.7 1.65 -38.7 1.45 -38.7 1.3 -38.8 1.05 -38.95 0.7 -38.5 0.35 M-42.0 10.45 Q-43.5 13.85 -45.2 19.05 -45.55 19.4 -46.3 19.6 -47.7 18.15 -47.95 16.55 L-44.1 11.2 -42.1 8.5 -42.0 10.45 M-52.1 13.2 L-56.95 18.5 -57.9 18.2 Q-58.15 18.05 -58.2 17.1 L-59.45 18.35 -60.1 17.9 -60.35 16.45 Q-60.35 14.0 -55.05 6.65 L-54.05 5.3 -58.95 7.95 -57.8 6.6 -53.9 1.9 -52.3 0.9 -52.55 0.2 -52.55 0.15 -52.35 -0.25 Q-50.35 1.1 -48.6 1.6 -50.4 3.15 -52.45 5.6 -54.65 8.3 -55.35 10.15 -56.1 12.2 -54.6 12.2 L-48.45 6.55 Q-52.2 11.45 -52.1 13.2 M-65.75 12.15 L-68.65 16.8 -68.9 17.3 -69.05 17.55 -69.1 17.55 -71.05 20.3 Q-71.45 20.05 -72.25 17.55 L-72.7 16.05 Q-70.9 15.0 -68.15 12.0 L-63.8 7.45 Q-66.4 10.8 -65.75 12.15 M-73.15 16.3 Q-78.75 20.3 -81.9 24.2 L-82.85 24.2 Q-83.15 24.15 -83.15 23.05 -83.15 18.7 -77.9 13.55 -75.1 10.8 -71.25 8.2 L-70.1 5.6 -68.9 5.2 Q-65.75 4.2 -64.2 3.3 L-66.8 5.35 Q-72.75 10.6 -73.7 16.5 L-73.15 16.3 M-71.2 5.9 L-77.9 10.45 Q-83.95 14.45 -86.35 17.2 -83.15 12.05 -80.25 8.25 L-80.3 8.05 -77.7 6.85 -77.65 7.35 Q-75.0 7.05 -71.2 5.9 M-62.9 1.85 L-62.9 1.8 -62.15 1.95 -63.5 2.8 Q-62.9 2.3 -62.9 1.85 M-115.55 14.35 Q-115.55 13.3 -113.1 11.5 -110.65 9.6 -107.35 8.2 -98.7 4.35 -95.05 7.5 -95.5 9.1 -103.8 12.35 L-113.95 16.05 -115.15 15.7 Q-115.55 15.5 -115.55 14.35" fill="#006600" fill-rule="evenodd" stroke="none"/>
      <path d="M-101.55 -12.95 Q-100.8 -12.95 -92.1 -7.55 -82.85 -1.9 -78.2 1.65 L-78.45 2.15 -79.25 2.25 Q-84.4 2.25 -91.3 -1.9 -98.7 -6.35 -102.3 -12.35 L-102.2 -12.8 -101.55 -12.95 M-75.75 -0.9 L-76.8 -1.4 Q-85.8 -6.05 -85.95 -9.1 -85.9 -9.1 -85.75 -9.2 L-85.6 -9.25 -85.1 -9.3 Q-84.35 -9.3 -74.35 -4.65 L-71.15 -3.1 -71.8 -4.1 Q-72.2 -5.35 -70.0 -5.35 L-68.25 -4.85 Q-72.0 -7.15 -74.25 -9.1 -76.45 -10.95 -77.2 -12.4 L-76.95 -12.55 -76.25 -12.7 Q-75.6 -12.7 -69.9 -9.15 L-69.85 -9.5 -69.7 -9.6 -69.2 -9.65 -61.2 -5.35 -54.35 -1.55 -54.2 -1.65 Q-56.85 -3.85 -53.85 -3.85 L-53.65 -3.85 -52.6 -3.25 -51.45 -2.6 -53.25 -4.1 -53.7 -4.45 Q-62.75 -12.05 -65.0 -16.45 L-64.35 -16.6 -63.45 -16.8 Q-63.0 -16.8 -59.85 -14.8 L-50.65 -8.3 -45.25 -4.35 -46.05 -5.45 Q-48.25 -8.35 -49.3 -10.75 -50.65 -13.5 -50.4 -15.35 L-50.1 -15.5 -49.4 -15.6 Q-48.6 -15.6 -38.15 -0.95 -38.15 -0.1 -38.5 0.35 L-38.95 0.7 -38.8 1.05 -38.7 1.3 -38.7 1.45 -38.7 1.65 -38.8 2.45 -38.4 2.55 -38.25 2.9 -38.15 3.65 -38.2 5.3 -38.65 13.05 Q-38.65 14.1 -39.5 15.65 L-39.95 15.7 Q-41.6 13.75 -42.0 10.45 L-42.1 8.5 -44.1 11.2 -47.95 16.55 -48.45 17.55 Q-51.85 17.55 -49.7 12.0 L-51.3 13.4 -52.1 13.3 -52.1 13.2 Q-52.2 11.45 -48.45 6.55 L-54.6 12.2 Q-56.1 12.2 -55.35 10.15 -54.65 8.3 -52.45 5.6 -50.4 3.15 -48.6 1.6 -50.35 1.1 -52.35 -0.25 L-52.55 0.15 -52.55 0.2 -52.3 0.9 -53.9 1.9 -57.8 6.6 -58.95 7.95 -63.5 13.05 Q-65.3 13.05 -65.75 12.15 -66.4 10.8 -63.8 7.45 L-68.15 12.0 Q-70.9 15.0 -72.7 16.05 L-73.15 16.3 -73.7 16.5 Q-72.75 10.6 -66.8 5.35 L-64.2 3.3 Q-65.75 4.2 -68.9 5.2 L-70.1 5.6 -71.2 5.9 Q-75.0 7.05 -77.65 7.35 L-77.7 6.85 -80.3 8.05 -80.25 8.25 Q-83.15 12.05 -86.35 17.2 L-87.35 18.75 -87.5 18.7 -88.45 18.65 Q-88.35 15.85 -86.0 11.75 L-84.9 10.05 -88.35 11.5 Q-85.9 5.15 -78.25 2.9 -76.15 2.25 -71.9 1.35 L-71.35 1.15 -73.4 0.25 -74.9 -0.5 -75.75 -0.9 M-62.9 1.85 Q-62.9 2.3 -63.5 2.8 L-62.15 1.95 -62.9 1.8 -62.9 1.85" fill="#004c00" fill-rule="evenodd" stroke="none"/>
    </g>
    <g id="shape3" transform="matrix(1.0, 0.0, 0.0, 1.0, 131.1, 30.95)">
      <path d="M77.65 7.05 Q77.7 10.05 79.65 13.0 L61.35 12.9 -4.35 12.55 -68.9 12.15 -68.9 4.55 -20.75 5.2 -2.65 5.45 22.95 5.8 77.95 4.25 Q77.6 5.65 77.65 7.05 L65.15 6.65 77.65 7.05 M-20.75 5.2 Q-17.55 7.5 -13.65 9.3 -11.6 10.25 -7.2 11.65 L-4.35 12.55 -7.2 11.65 Q-11.6 10.25 -13.65 9.3 -17.55 7.5 -20.75 5.2 M-2.65 5.45 L4.45 7.05 15.9 7.7 27.4 7.75 Q33.1 7.75 38.95 8.05 44.85 8.35 50.45 9.4 56.2 10.3 61.35 12.9 56.2 10.3 50.45 9.4 44.85 8.35 38.95 8.05 33.1 7.75 27.4 7.75 L15.9 7.7 4.45 7.05 -2.65 5.45" fill="#9e6229" fill-rule="evenodd" stroke="none"/>
      <path d="M91.9 7.45 L91.9 12.15 79.65 13.0 Q77.7 10.05 77.65 7.05 L91.9 7.45 77.65 7.05 Q77.6 5.65 77.95 4.25 L91.9 4.55 91.9 7.45" fill="#704217" fill-rule="evenodd" stroke="none"/>
      <path d="M79.65 13.0 L91.9 12.15 91.9 7.45 91.9 4.55 77.95 4.25 22.95 5.8 -2.65 5.45 -20.75 5.2 -68.9 4.55 -68.9 12.15 -4.35 12.55 61.35 12.9 79.65 13.0" fill="none" stroke="#000000" stroke-linecap="round" stroke-linejoin="round" stroke-opacity="0.34901962" stroke-width="1.0"/>
      <path d="M91.9 7.45 L77.65 7.05 65.15 6.65 M61.35 12.9 Q56.2 10.3 50.45 9.4 44.85 8.35 38.95 8.05 33.1 7.75 27.4 7.75 L15.9 7.7 4.45 7.05 -2.65 5.45 M-4.35 12.55 L-7.2 11.65 Q-11.6 10.25 -13.65 9.3 -17.55 7.5 -20.75 5.2" fill="none" stroke="#000000" stroke-linecap="round" stroke-linejoin="round" stroke-opacity="0.2" stroke-width="0.5"/>
      <path d="M90.2 -23.45 Q88.05 -28.0 82.8 -26.8 76.8 -25.5 76.25 -19.85 75.75 -15.7 78.8 -14.15 L77.05 -11.45 76.8 -11.05 Q75.15 -12.2 73.7 -14.75 71.75 -18.05 73.25 -22.35 74.7 -26.75 78.9 -29.2 82.25 -31.1 86.75 -30.15 90.9 -29.25 92.25 -26.95 L93.05 -24.75 90.2 -23.45" fill="#ff9900" fill-rule="evenodd" stroke="none"/>
      <path d="M90.2 -23.45 L93.05 -24.75 93.35 -22.4 93.5 -21.35 91.15 -20.65 90.7 -22.25 90.2 -23.45 M76.8 -11.05 L77.05 -11.45 78.8 -14.15 Q79.95 -13.55 81.5 -13.35 L80.1 -10.35 Q78.1 -10.25 77.35 -10.75 77.05 -10.85 76.8 -11.05" fill="#bf7200" fill-rule="evenodd" stroke="none"/>
      <path d="M81.5 -13.35 Q84.1 -18.35 91.15 -20.65 L93.5 -21.35 95.25 -21.7 100.65 -16.85 Q97.5 -16.0 94.45 -14.25 86.85 -9.85 83.5 -2.3 L79.95 -8.45 Q79.8 -9.35 80.1 -10.35 L81.5 -13.35" fill="url(#gradient12)" fill-rule="evenodd" stroke="none"/>
      <path d="M100.65 -16.85 L100.75 -16.9 Q107.45 -18.85 114.7 -16.95 125.45 -14.05 131.0 -4.45 136.55 5.2 133.65 15.85 131.7 23.15 126.7 28.0 124.3 30.35 121.2 32.1 111.6 37.65 100.9 34.8 90.2 31.95 84.65 22.3 79.1 12.7 81.95 2.0 82.55 -0.25 83.5 -2.3 86.85 -9.85 94.45 -14.25 97.5 -16.0 100.65 -16.85 M118.7 -12.65 Q114.7 -15.0 110.8 -14.6 106.9 -14.25 105.3 -11.55 104.9 -10.85 104.75 -10.05 104.1 -7.9 105.35 -5.25 107.0 -1.85 110.75 0.35 L111.1 0.6 Q115.1 2.95 118.95 2.55 122.95 2.3 124.55 -0.45 126.1 -3.15 124.35 -6.8 122.7 -10.35 118.7 -12.65" fill="url(#gradient13)" fill-rule="evenodd" stroke="none"/>
      <path d="M118.7 -12.65 Q122.7 -10.35 124.35 -6.8 126.1 -3.15 124.55 -0.45 122.95 2.3 118.95 2.55 115.1 2.95 111.1 0.6 L110.75 0.35 Q107.0 -1.85 105.35 -5.25 104.1 -7.9 104.75 -10.05 104.9 -10.85 105.3 -11.55 106.9 -14.25 110.8 -14.6 114.7 -15.0 118.7 -12.65" fill="#fcad78" fill-rule="evenodd" stroke="none"/>
      <path d="M78.8 -14.15 Q75.75 -15.7 76.25 -19.85 76.8 -25.5 82.8 -26.8 88.05 -28.0 90.2 -23.45 L90.7 -22.25 91.15 -20.65 Q84.1 -18.35 81.5 -13.35 79.95 -13.55 78.8 -14.15 M93.05 -24.75 L92.25 -26.95 Q90.9 -29.25 86.75 -30.15 82.25 -31.1 78.9 -29.2 74.7 -26.75 73.25 -22.35 71.75 -18.05 73.7 -14.75 75.15 -12.2 76.8 -11.05 77.05 -10.85 77.35 -10.75 78.1 -10.25 80.1 -10.35 L81.5 -13.35 M83.5 -2.3 L79.95 -8.45 Q79.8 -9.35 80.1 -10.35 M93.5 -21.35 L93.35 -22.4 93.05 -24.75 M100.65 -16.85 L95.25 -21.7 93.5 -21.35 91.15 -20.65 M100.65 -16.85 L100.75 -16.9 Q107.45 -18.85 114.7 -16.95 125.45 -14.05 131.0 -4.45 136.55 5.2 133.65 15.85 131.7 23.15 126.7 28.0 124.3 30.35 121.2 32.1 111.6 37.65 100.9 34.8 90.2 31.95 84.65 22.3 79.1 12.7 81.95 2.0 82.55 -0.25 83.5 -2.3 86.85 -9.85 94.45 -14.25 97.5 -16.0 100.65 -16.85" fill="none" stroke="#000000" stroke-linecap="round" stroke-linejoin="round" stroke-opacity="0.34901962" stroke-width="1.0"/>
      <path d="M-91.6 26.9 Q-92.1 27.8 -92.1 28.5 L-93.65 26.4 -94.3 24.9 Q-94.3 21.8 -92.55 18.75 L-92.95 19.1 -106.9 32.5 -108.9 30.85 -109.3 30.3 Q-109.3 28.2 -105.55 23.6 -101.85 19.15 -96.55 14.65 -92.95 11.6 -89.85 9.5 -105.8 9.25 -116.7 6.55 -126.8 4.05 -131.1 -0.1 -129.2 -1.55 -112.1 1.25 L-100.95 3.2 Q-104.85 0.65 -108.85 -2.9 -113.6 -7.1 -117.35 -11.8 -120.5 -15.8 -120.5 -16.7 -120.5 -18.1 -119.9 -19.3 L-118.7 -20.7 Q-116.9 -14.95 -102.5 -6.65 -95.3 -2.5 -80.4 5.05 L-78.4 4.9 -77.45 5.35 -78.3 6.1 -77.2 6.65 -75.75 6.2 -73.45 7.2 -74.05 7.4 -81.2 9.15 Q-89.8 11.7 -92.55 18.8 L-88.7 17.2 -89.9 19.1 Q-92.55 23.7 -92.65 26.85 L-91.6 26.9 M-89.45 -4.5 L-89.9 -4.7 Q-97.7 -7.35 -102.7 -9.35 -112.1 -13.15 -112.9 -16.5 -101.15 -14.35 -86.45 -8.5 -81.3 -6.45 -76.7 -4.3 -74.2 -2.15 -69.95 0.45 -71.55 -0.1 -71.95 -0.1 -74.4 -0.1 -73.95 1.3 L-73.25 2.4 -76.85 0.7 Q-88.05 -4.55 -88.9 -4.55 L-89.45 -4.5 M-71.6 -4.9 Q-79.3 -12.25 -81.5 -17.3 -77.85 -16.4 -63.75 -5.95 L-53.55 1.6 -53.8 1.55 Q-57.15 1.55 -54.2 4.05 L-54.35 4.15 -62.05 -0.1 -71.05 -4.95 -71.6 -4.9 M-52.4 2.25 L-53.15 1.3 -51.1 3.0 -52.4 2.25 M-60.55 -10.7 L-61.35 -12.25 -64.9 -19.7 Q-57.9 -15.25 -49.95 -7.35 L-48.7 -6.15 Q-47.5 -3.5 -45.05 -0.2 L-44.15 1.0 -50.2 -3.45 -60.55 -10.7 M-36.55 6.3 L-32.3 10.7 Q-32.9 11.9 -34.9 11.9 L-36.25 11.85 -36.15 10.0 Q-36.15 9.4 -36.3 9.15 L-36.45 8.75 -36.9 8.65 -36.8 7.75 -36.8 7.55 -36.8 7.35 -36.9 7.1 -37.05 6.7 -36.55 6.3 M-40.5 17.65 Q-42.2 21.45 -44.1 27.3 -44.5 27.7 -45.3 27.9 -46.9 26.3 -47.2 24.5 L-42.85 18.5 -40.6 15.45 -40.5 17.65 M-51.85 20.75 L-57.3 26.7 -58.35 26.35 -58.7 25.1 -60.1 26.5 -60.8 26.0 Q-61.1 25.65 -61.1 24.4 -61.1 21.6 -55.15 13.35 L-54.05 11.85 -59.55 14.85 -58.25 13.3 -53.85 8.05 -52.05 6.9 Q-52.05 6.5 -52.35 6.1 L-52.35 6.05 -52.1 5.6 Q-49.85 7.15 -47.9 7.7 -49.95 9.45 -52.25 12.2 -54.7 15.2 -55.5 17.3 -56.35 19.6 -54.65 19.6 L-47.75 13.25 Q-51.95 18.75 -51.85 20.75 M-67.15 19.55 L-70.4 24.75 -70.7 25.3 -70.9 25.6 -70.95 25.6 -73.1 28.7 Q-73.55 28.4 -74.45 25.6 L-74.95 23.9 Q-72.95 22.75 -69.85 19.35 L-65.0 14.25 Q-67.9 18.05 -67.15 19.55 M-75.5 24.2 Q-81.75 28.7 -85.3 33.1 L-86.35 33.05 Q-86.7 33.0 -86.7 31.8 -86.7 26.9 -80.8 21.1 -77.65 18.0 -73.35 15.1 L-72.05 12.2 -70.7 11.75 Q-67.15 10.6 -65.45 9.6 L-68.35 11.9 Q-75.05 17.8 -76.1 24.45 L-75.5 24.2 M-73.3 12.55 L-80.8 17.65 Q-87.6 22.15 -90.3 25.2 L-83.45 15.15 -83.5 14.95 -80.6 13.6 -80.55 14.15 Q-77.55 13.8 -73.3 12.55 M-63.95 7.95 L-63.95 7.9 -63.1 8.1 -64.65 9.05 Q-63.95 8.5 -63.95 7.95 M-108.1 -8.5 L-108.2 -7.95 Q-104.15 -1.25 -95.85 3.75 -88.1 8.45 -82.35 8.45 L-81.45 8.3 -81.15 7.75 Q-86.4 3.75 -96.75 -2.6 -106.55 -8.65 -107.4 -8.65 L-108.1 -8.5 M-113.9 15.1 Q-104.2 10.8 -100.1 14.3 -100.6 16.1 -109.9 19.75 L-121.3 23.9 -122.65 23.55 Q-123.1 23.3 -123.1 22.0 -123.1 20.85 -120.35 18.8 -117.6 16.7 -113.9 15.1" fill="#006600" fill-rule="evenodd" stroke="none"/>
      <path d="M-78.4 4.9 L-79.6 4.3 Q-89.7 -0.9 -89.85 -4.35 -89.8 -4.35 -89.65 -4.45 L-89.45 -4.5 -88.9 -4.55 Q-88.05 -4.55 -76.85 0.7 L-73.25 2.4 -73.95 1.3 Q-74.4 -0.1 -71.95 -0.1 -71.55 -0.1 -69.95 0.45 -74.2 -2.15 -76.7 -4.3 -79.2 -6.4 -80.05 -8.05 -80.0 -8.05 -79.75 -8.2 L-78.95 -8.35 Q-78.25 -8.35 -71.8 -4.4 L-71.75 -4.8 -71.6 -4.9 -71.05 -4.95 -62.05 -0.1 -54.35 4.15 -54.2 4.05 Q-57.15 1.55 -53.8 1.55 L-53.55 1.6 -52.4 2.25 -51.1 3.0 -53.15 1.3 -53.65 0.9 Q-63.8 -7.65 -66.3 -12.6 L-65.6 -12.75 -64.6 -13.0 Q-64.05 -13.0 -60.55 -10.7 L-50.2 -3.45 -44.15 1.0 -45.05 -0.2 Q-47.5 -3.5 -48.7 -6.15 -50.2 -9.25 -49.9 -11.35 L-49.6 -11.5 -48.8 -11.65 Q-47.9 -11.65 -36.15 4.85 -36.15 5.8 -36.55 6.3 L-37.05 6.7 -36.9 7.1 -36.8 7.35 -36.8 7.55 -36.8 7.75 -36.9 8.65 -36.45 8.75 -36.3 9.15 Q-36.15 9.4 -36.15 10.0 L-36.25 11.85 -36.7 20.55 Q-36.7 21.75 -37.7 23.45 L-38.2 23.55 Q-40.05 21.35 -40.5 17.65 L-40.6 15.45 -42.85 18.5 -47.2 24.5 Q-47.95 25.6 -47.75 25.6 -51.55 25.6 -49.15 19.4 L-50.95 20.95 -51.85 20.85 -51.85 20.75 Q-51.95 18.75 -47.75 13.25 L-54.65 19.6 Q-56.35 19.6 -55.5 17.3 -54.7 15.2 -52.25 12.2 -49.95 9.45 -47.9 7.7 -49.85 7.15 -52.1 5.6 L-52.35 6.05 -52.35 6.1 Q-52.05 6.5 -52.05 6.9 L-53.85 8.05 -58.25 13.3 -59.55 14.85 -64.65 20.55 Q-66.65 20.55 -67.15 19.55 -67.9 18.05 -65.0 14.25 L-69.85 19.35 Q-72.95 22.75 -74.95 23.9 L-75.5 24.2 -76.1 24.45 Q-75.05 17.8 -68.35 11.9 L-65.45 9.6 Q-67.15 10.6 -70.7 11.75 L-72.05 12.2 -73.3 12.55 Q-77.55 13.8 -80.55 14.15 L-80.6 13.6 -83.5 14.95 -83.45 15.15 -90.3 25.2 -91.4 26.95 -91.6 26.9 -92.65 26.85 Q-92.55 23.7 -89.9 19.1 L-88.7 17.2 -92.55 18.8 Q-89.8 11.7 -81.2 9.15 L-74.05 7.4 -73.45 7.2 -75.75 6.2 -77.45 5.35 -78.4 4.9 M-108.1 -8.5 L-107.4 -8.65 Q-106.55 -8.65 -96.75 -2.6 -86.4 3.75 -81.15 7.75 L-81.45 8.3 -82.35 8.45 Q-88.1 8.45 -95.85 3.75 -104.15 -1.25 -108.2 -7.95 L-108.1 -8.5 M-63.95 7.95 Q-63.95 8.5 -64.65 9.05 L-63.1 8.1 -63.95 7.9 -63.95 7.95" fill="#004c00" fill-rule="evenodd" stroke="none"/>
    </g>
    <linearGradient gradientTransform="matrix(0.0079, -0.0079, 0.0054, 0.0054, 89.95, -13.3)" gradientUnits="userSpaceOnUse" id="gradient12" spreadMethod="pad" x1="-819.2" x2="819.2">
      <stop offset="0.0" stop-color="#ef8f00"/>
      <stop offset="1.0" stop-color="#ffff00"/>
    </linearGradient>
    <radialGradient cx="0" cy="0" gradientTransform="matrix(0.0313, -0.0181, 0.0181, 0.0313, 106.9, 0.75)" gradientUnits="userSpaceOnUse" id="gradient13" r="819.2" spreadMethod="pad">
      <stop offset="0.0" stop-color="#ff9900"/>
      <stop offset="1.0" stop-color="#ff3300"/>
    </radialGradient>
    <g id="shape4" transform="matrix(1.0, 0.0, 0.0, 1.0, 70.05, 70.35)">
      <path d="M16.25 -68.6 L16.55 -68.6 19.1 -68.45 Q19.8 -68.15 20.05 -66.55 20.05 -65.7 20.2 -65.15 20.35 -64.55 20.65 -64.25 L19.45 -64.2 Q18.1 -65.0 17.3 -66.75 L16.25 -68.6 M29.4 -62.3 Q30.8 -61.85 31.55 -61.1 32.25 -60.4 32.25 -57.8 L32.2 -53.3 31.25 -50.7 30.5 -49.05 29.75 -49.3 30.1 -52.05 30.45 -55.75 Q30.45 -61.1 29.8 -61.95 L29.4 -62.3 M36.45 -44.7 Q39.35 -43.2 39.95 -42.2 40.15 -41.8 40.15 -39.9 40.15 -38.2 39.65 -36.55 39.2 -34.95 38.45 -34.1 L36.1 -33.6 36.45 -34.65 Q37.95 -38.75 37.95 -40.25 37.95 -43.3 36.45 -44.7 M35.3 -29.0 Q37.25 -28.45 37.85 -27.0 L38.1 -24.4 38.0 -22.35 Q38.0 -20.2 36.65 -19.0 L35.55 -18.9 35.65 -19.2 Q36.2 -20.7 36.2 -22.9 L35.6 -27.3 35.3 -29.0 M-59.15 -13.35 L-59.15 -13.25 Q-59.15 -11.95 -55.35 -9.75 -53.8 -8.85 -52.4 -8.3 L-52.35 -8.25 -52.1 -7.4 -52.15 -7.45 Q-56.5 -9.05 -58.55 -10.2 -67.85 -15.4 -67.85 -26.6 -67.85 -33.45 -65.25 -40.85 -63.05 -46.95 -59.45 -51.5 L-56.25 -54.85 -56.25 -55.0 -54.65 -54.9 Q-56.4 -53.25 -57.9 -50.55 L-61.3 -43.5 Q-63.45 -39.3 -64.2 -35.05 -64.8 -31.75 -64.8 -26.25 -64.8 -22.05 -64.45 -21.1 L-61.05 -15.5 Q-60.4 -14.45 -59.15 -13.35" fill="#bdbdbd" fill-rule="evenodd" stroke="none"/>
      <path d="M19.45 -64.2 L20.65 -64.25 Q20.35 -64.55 20.2 -65.15 20.05 -65.7 20.05 -66.55 19.8 -68.15 19.1 -68.45 L16.55 -68.6 16.25 -68.6 Q12.55 -68.5 6.8 -66.4 L0.25 -63.6 Q-1.1 -62.95 -1.45 -61.9 L-1.6 -60.3 -1.7 -57.05 -1.65 -56.7 -1.6 -56.7 -1.6 -56.4 -1.6 -56.3 1.75 -57.55 0.8 -55.85 0.45 -55.35 -1.2 -54.25 Q-5.0 -52.75 -9.85 -51.95 L-10.3 -51.9 -21.45 -51.3 -25.4 -51.5 -26.35 -51.5 -35.2 -51.1 Q-41.25 -50.45 -45.75 -47.85 -50.3 -45.3 -54.4 -43.35 -51.6 -47.7 -47.0 -50.15 L-43.1 -52.05 Q-40.6 -52.95 -38.95 -53.05 L-29.8 -53.65 -30.0 -54.75 -29.95 -55.0 -29.55 -55.45 -28.55 -53.9 -28.45 -53.7 -25.4 -53.9 Q-17.3 -53.5 -10.3 -54.15 L-9.85 -54.25 -8.0 -54.5 -4.9 -55.2 Q-3.4 -55.65 -3.2 -55.95 L-2.9 -56.25 -2.95 -56.55 -2.95 -56.6 -2.95 -56.8 -3.05 -57.3 -3.1 -58.4 -3.15 -61.85 Q-3.15 -63.7 0.35 -65.6 3.6 -67.4 8.45 -68.6 L13.4 -69.95 14.75 -70.15 16.8 -70.35 17.1 -70.35 Q20.1 -70.4 20.9 -69.15 L21.05 -68.75 21.55 -67.35 22.05 -65.25 22.05 -64.95 22.1 -64.4 22.1 -64.3 24.85 -64.45 Q29.25 -64.2 31.75 -62.75 34.0 -61.45 33.85 -59.9 L33.9 -54.2 Q33.9 -52.4 33.2 -50.3 L32.25 -48.35 Q39.25 -46.45 41.2 -44.45 42.35 -43.25 42.35 -39.95 42.35 -37.5 41.6 -35.3 40.95 -33.45 39.9 -32.35 L39.4 -32.1 39.1 -31.95 37.95 -31.9 35.95 -31.8 35.4 -31.8 32.0 -32.0 Q29.85 -32.05 28.2 -33.2 L27.1 -33.85 23.4 -33.75 22.6 -33.55 22.7 -33.0 35.0 -30.8 35.6 -30.65 Q39.6 -29.5 39.6 -24.45 39.6 -22.05 39.2 -20.55 38.95 -19.0 37.55 -17.5 L35.75 -17.2 34.55 -17.15 Q30.45 -17.25 26.6 -18.85 L26.45 -18.9 Q23.1 -19.95 20.9 -20.3 L20.0 -20.4 Q16.45 -20.35 13.8 -17.7 L5.2 -12.05 Q-8.5 -3.8 -24.9 -1.45 L-30.8 -1.15 -32.35 -1.15 Q-45.3 -1.15 -50.0 -4.45 L-50.55 -4.35 Q-56.0 -4.35 -61.95 -9.25 -66.4 -12.9 -67.15 -14.75 -69.7 -20.4 -69.95 -21.55 L-70.05 -26.75 Q-70.05 -36.25 -66.5 -44.15 -62.85 -52.35 -56.75 -55.75 L-56.4 -55.55 Q-56.25 -55.45 -56.25 -55.0 L-56.25 -54.85 -59.45 -51.5 Q-63.05 -46.95 -65.25 -40.85 -67.85 -33.45 -67.85 -26.6 -67.85 -15.4 -58.55 -10.2 -56.5 -9.05 -52.15 -7.45 L-52.1 -7.4 -52.35 -8.25 -52.4 -8.3 Q-53.8 -8.85 -55.35 -9.75 -59.15 -11.95 -59.15 -13.25 L-59.15 -13.35 Q-59.15 -17.9 -58.65 -19.55 L-57.8 -22.95 Q-57.05 -24.95 -56.0 -24.7 L-56.55 -23.1 -57.25 -20.35 -57.35 -18.2 -57.25 -16.15 -57.25 -16.0 Q-57.25 -12.9 -52.45 -11.05 -47.6 -9.25 -47.55 -8.25 L-47.75 -7.75 Q-47.95 -7.45 -48.55 -7.45 L-49.45 -7.5 Q-48.7 -6.95 -45.75 -5.45 -42.85 -3.95 -36.45 -3.75 -30.1 -3.55 -21.85 -4.15 -13.65 -4.75 2.6 -12.85 L13.8 -20.25 Q15.85 -22.65 19.0 -22.55 L20.9 -22.5 23.7 -21.65 26.6 -20.55 28.55 -19.85 Q32.0 -18.8 35.55 -18.9 L36.65 -19.0 Q38.0 -20.2 38.0 -22.35 L38.1 -24.4 37.85 -27.0 Q37.25 -28.45 35.3 -29.0 L34.3 -29.2 Q31.5 -29.6 27.0 -30.75 23.9 -31.5 22.65 -32.0 L22.6 -32.05 Q22.1 -32.25 21.95 -32.4 L21.85 -32.45 Q21.45 -32.8 21.45 -33.5 L21.45 -33.55 21.1 -33.55 20.95 -33.7 Q21.55 -34.55 23.7 -35.35 L24.4 -35.65 25.2 -35.85 25.25 -35.85 26.45 -35.95 28.5 -34.75 Q30.1 -34.0 32.0 -33.75 L35.0 -33.6 36.1 -33.6 38.45 -34.1 Q39.2 -34.95 39.65 -36.55 40.15 -38.2 40.15 -39.9 40.15 -41.8 39.95 -42.2 39.35 -43.2 36.45 -44.7 L36.4 -44.75 31.05 -46.4 28.95 -47.2 Q27.1 -47.85 25.85 -47.85 L24.3 -47.7 18.45 -45.25 14.45 -43.65 Q14.05 -43.75 13.9 -43.95 L16.4 -45.75 17.7 -46.55 17.7 -46.75 Q17.7 -48.4 18.05 -48.7 18.4 -49.1 21.05 -50.15 L20.65 -51.0 Q21.35 -51.1 21.85 -50.7 L22.55 -50.1 23.35 -49.65 23.7 -49.5 24.3 -49.6 26.35 -49.8 29.75 -49.3 30.5 -49.05 31.25 -50.7 32.2 -53.3 32.25 -57.8 Q32.25 -60.4 31.55 -61.1 30.8 -61.85 29.4 -62.3 26.55 -63.3 20.85 -63.3 L16.0 -62.8 11.25 -62.05 10.7 -62.3 Q11.85 -63.15 13.35 -63.5 L19.45 -64.2 M21.55 -49.45 Q21.05 -49.0 19.65 -48.45 18.5 -47.9 18.65 -47.4 L18.8 -47.15 22.15 -48.85 21.55 -49.45" fill="#000000" fill-rule="evenodd" stroke="none"/>
      <path d="M16.25 -68.6 L17.3 -66.75 Q18.1 -65.0 19.45 -64.2 L13.35 -63.5 Q11.85 -63.15 10.7 -62.3 L11.25 -62.05 16.0 -62.8 20.85 -63.3 Q26.55 -63.3 29.4 -62.3 L29.8 -61.95 Q30.45 -61.1 30.45 -55.75 L30.1 -52.05 29.75 -49.3 26.35 -49.8 24.3 -49.6 23.7 -49.5 23.35 -49.65 22.55 -50.1 21.85 -50.7 Q21.35 -51.1 20.65 -51.0 L21.05 -50.15 Q18.4 -49.1 18.05 -48.7 17.7 -48.4 17.7 -46.75 L17.7 -46.55 16.4 -45.75 13.9 -43.95 Q14.05 -43.75 14.45 -43.65 L18.45 -45.25 24.3 -47.7 25.85 -47.85 Q27.1 -47.85 28.95 -47.2 L31.05 -46.4 36.4 -44.75 36.45 -44.7 Q37.95 -43.3 37.95 -40.25 37.95 -38.75 36.45 -34.65 L36.1 -33.6 35.0 -33.6 32.0 -33.75 Q30.1 -34.0 28.5 -34.75 L26.45 -35.95 25.25 -35.85 25.2 -35.85 24.4 -35.65 23.7 -35.35 Q21.55 -34.55 20.95 -33.7 L21.1 -33.55 21.45 -33.55 21.45 -33.5 Q21.45 -32.8 21.85 -32.45 L21.95 -32.4 Q22.1 -32.25 22.6 -32.05 L22.65 -32.0 Q23.9 -31.5 27.0 -30.75 31.5 -29.6 34.3 -29.2 L35.3 -29.0 35.6 -27.3 36.2 -22.9 Q36.2 -20.7 35.65 -19.2 L35.55 -18.9 Q32.0 -18.8 28.55 -19.85 L26.6 -20.55 23.7 -21.65 20.9 -22.5 19.0 -22.55 Q15.85 -22.65 13.8 -20.25 L2.6 -12.85 Q-13.65 -4.75 -21.85 -4.15 -30.1 -3.55 -36.45 -3.75 -42.85 -3.95 -45.75 -5.45 -48.7 -6.95 -49.45 -7.5 L-48.55 -7.45 Q-47.95 -7.45 -47.75 -7.75 L-47.55 -8.25 Q-47.6 -9.25 -52.45 -11.05 -57.25 -12.9 -57.25 -16.0 L-57.25 -16.15 -57.35 -18.2 -57.25 -20.35 -56.55 -23.1 -56.0 -24.7 Q-57.05 -24.95 -57.8 -22.95 L-58.65 -19.55 Q-59.15 -17.9 -59.15 -13.35 -60.4 -14.45 -61.05 -15.5 L-64.45 -21.1 Q-64.8 -22.05 -64.8 -26.25 -64.8 -31.75 -64.2 -35.05 -63.45 -39.3 -61.3 -43.5 L-57.9 -50.55 Q-56.4 -53.25 -54.65 -54.9 L-46.4 -55.05 -35.85 -55.45 -32.65 -55.4 -29.95 -55.0 -30.0 -54.75 -29.8 -53.65 -38.95 -53.05 Q-40.6 -52.95 -43.1 -52.05 L-47.0 -50.15 Q-51.6 -47.7 -54.4 -43.35 -50.3 -45.3 -45.75 -47.85 -41.25 -50.45 -35.2 -51.1 L-26.35 -51.5 -25.4 -51.5 -21.45 -51.3 -10.3 -51.9 -9.85 -51.95 Q-5.0 -52.75 -1.2 -54.25 L0.45 -55.35 0.8 -55.85 1.75 -57.55 -1.6 -56.3 -1.6 -56.4 -1.6 -56.7 -1.65 -56.7 -1.7 -57.05 -1.6 -60.3 -1.45 -61.9 Q-1.1 -62.95 0.25 -63.6 L6.8 -66.4 Q12.55 -68.5 16.25 -68.6" fill="#999999" fill-rule="evenodd" stroke="none"/>
    </g>
  </defs>
</svg>
