<?xml version="1.0" encoding="UTF-8" standalone="no"?>
<svg xmlns:xlink="http://www.w3.org/1999/xlink" height="531.5px" width="460.6px" xmlns="http://www.w3.org/2000/svg">
  <g transform="matrix(1.0, 0.0, 0.0, 1.0, 193.65, 334.05)">
    <use height="96.7" transform="matrix(1.0, 0.0, 0.0, 1.0, -98.0, -58.45)" width="245.65" xlink:href="#shape0"/>
  </g>
  <defs>
    <g id="shape0" transform="matrix(1.0, 0.0, 0.0, 1.0, 98.0, 58.45)">
      <path d="M30.8 4.8 Q30.5 -3.15 37.0 -3.7 L46.6 -4.1 51.2 -3.9 Q55.2 -4.0 58.25 -7.2 61.0 -10.05 61.8 -13.6 64.0 -13.15 65.6 -11.0 67.25 -8.8 67.3 -6.35 67.4 -2.8 64.95 0.05 L64.9 0.4 Q64.6 0.4 64.3 0.75 L62.3 2.45 59.65 4.15 59.15 4.15 30.8 4.8 M23.4 4.95 L23.35 3.3 30.1 3.15 30.15 4.8 30.3 12.3 Q33.7 10.65 36.75 9.3 44.9 5.75 50.45 5.1 L54.05 4.95 Q56.85 5.1 59.15 5.95 L60.6 6.55 Q62.3 7.35 64.5 9.05 L66.0 10.3 67.75 11.85 29.45 12.65 23.55 12.8 23.4 4.95 M29.45 12.65 L30.3 12.3 29.45 12.65" fill="#3366cc" fill-rule="evenodd" stroke="none"/>
      <path d="M68.1 0.0 Q68.05 -1.1 68.85 -1.9 69.55 -2.65 70.65 -2.7 71.75 -2.7 72.55 -2.0 73.3 -1.2 73.35 -0.1 L68.1 0.0 M73.85 22.95 Q73.85 24.05 73.15 24.8 72.35 25.65 71.25 25.65 70.15 25.7 69.45 24.9 68.6 24.15 68.6 23.05 L73.85 22.95 M-77.95 25.7 L-77.9 26.25 Q-77.9 27.35 -78.6 28.1 -79.4 28.95 -80.5 28.95 -81.55 29.0 -82.3 28.2 -83.15 27.45 -83.15 26.35 L-83.1 25.8 -77.95 25.7 M-94.6 17.65 L-97.4 17.7 -97.5 12.85 -94.7 12.8 Q-95.0 13.95 -94.95 15.2 L-94.95 15.35 -94.6 17.65 M-83.55 4.1 L-83.65 3.3 Q-83.7 2.2 -82.9 1.4 -82.15 0.65 -81.1 0.6 -80.0 0.6 -79.2 1.3 -78.45 2.1 -78.4 3.2 -78.4 3.65 -78.55 4.0 L-83.55 4.1 M-74.55 7.05 L23.4 4.95 23.55 12.8 Q-3.35 16.05 -35.55 16.5 L-35.55 16.15 -54.4 15.8 -74.4 14.9 -74.55 7.05 M30.15 4.8 L30.8 4.8 59.15 4.15 59.15 4.45 59.65 4.15 62.3 2.45 64.35 2.4 64.5 9.05 Q62.3 7.35 60.6 6.55 L59.15 5.95 59.15 4.45 58.4 4.85 54.05 4.95 52.45 4.95 50.45 5.1 Q44.9 5.75 36.75 9.3 33.7 10.65 30.3 12.3 L30.15 4.8 M68.35 11.8 L68.35 11.4 Q68.3 10.3 69.1 9.5 69.6 9.0 70.2 8.8 L70.9 8.7 Q72.0 8.7 72.8 9.4 73.55 10.2 73.6 11.3 L73.55 11.7 Q73.45 12.55 72.9 13.15 72.1 14.0 71.0 14.0 L70.3 13.9 Q69.7 13.8 69.2 13.25 68.5 12.65 68.35 11.8 M-83.35 14.2 Q-83.25 13.4 -82.65 12.8 -81.9 12.05 -80.85 12.0 -79.75 12.0 -78.95 12.7 -78.2 13.5 -78.15 14.6 L-78.2 15.0 Q-78.3 15.85 -78.85 16.45 -79.65 17.3 -80.75 17.3 -81.8 17.35 -82.55 16.55 -83.2 16.0 -83.35 15.25 L-83.35 14.2" fill="#ffffff" fill-rule="evenodd" stroke="none"/>
      <path d="M64.9 0.4 L68.1 0.0 73.35 -0.1 76.5 -0.15 76.75 11.65 73.55 11.7 73.6 11.3 Q73.55 10.2 72.8 9.4 72.0 8.7 70.9 8.7 L70.2 8.8 Q69.6 9.0 69.1 9.5 68.3 10.3 68.35 11.4 L68.35 11.8 67.75 11.85 66.0 10.3 64.5 9.05 64.35 2.4 64.3 0.75 Q64.6 0.4 64.9 0.4" fill="#182d63" fill-rule="evenodd" stroke="none"/>
      <path d="M76.75 11.65 L77.0 22.9 73.85 22.95 68.6 23.05 64.8 23.15 64.75 20.8 64.6 14.85 66.1 13.5 67.8 11.9 67.75 11.85 68.35 11.8 Q68.5 12.65 69.2 13.25 69.7 13.8 70.3 13.9 L71.0 14.0 Q72.1 14.0 72.9 13.15 73.45 12.55 73.55 11.7 L76.75 11.65 M-74.25 22.45 L-74.15 25.6 -77.95 25.7 -83.1 25.8 -86.9 25.9 -86.95 24.15 -87.15 15.2 -83.4 15.1 -83.35 15.25 Q-83.2 16.0 -82.55 16.55 -81.8 17.35 -80.75 17.3 -79.65 17.3 -78.85 16.45 -78.3 15.85 -78.2 15.0 L-74.4 14.9 -74.25 22.45" fill="#112047" fill-rule="evenodd" stroke="none"/>
      <path d="M64.8 23.15 L65.45 23.8 Q68.0 26.55 68.1 30.15 68.15 32.6 66.6 34.8 65.1 37.05 62.9 37.75 62.0 34.0 59.05 31.25 55.9 28.3 51.9 28.4 L47.3 28.75 42.55 29.15 Q31.0 29.4 31.1 20.2 L59.3 19.55 59.45 19.65 61.7 20.85 Q63.5 21.95 64.8 23.15 M30.45 20.2 L30.5 21.55 23.75 21.7 23.7 20.35 23.55 12.8 29.45 12.65 29.35 12.7 30.3 13.15 29.35 12.7 29.45 12.65 67.75 11.85 67.8 11.9 66.1 13.5 64.6 14.85 60.8 17.55 59.45 18.2 Q57.35 19.0 54.9 19.3 L50.35 19.35 Q44.95 18.9 36.85 15.75 L30.3 13.15 30.45 20.2 M-94.7 12.8 Q-94.15 10.5 -92.4 8.65 -90.25 6.4 -87.35 5.95 L-87.15 15.2 -94.95 15.35 -94.95 15.2 Q-95.0 13.95 -94.7 12.8" fill="#284fa3" fill-rule="evenodd" stroke="none"/>
      <path d="M31.1 20.2 L30.45 20.2 30.3 13.15 36.85 15.75 Q44.95 18.9 50.35 19.35 L52.75 19.45 54.9 19.3 58.7 19.3 59.3 19.55 31.1 20.2 M23.7 20.35 L-74.25 22.45 -74.4 14.9 -54.4 15.8 -35.55 16.15 -35.55 16.5 Q-3.35 16.05 23.55 12.8 L23.7 20.35 M64.6 14.85 L64.75 20.8 61.7 20.85 59.45 19.65 59.45 19.55 59.45 18.2 60.8 17.55 64.6 14.85" fill="#dbdbdb" fill-rule="evenodd" stroke="none"/>
      <path d="M-86.95 24.15 Q-89.85 23.8 -92.1 21.65 -93.95 19.9 -94.6 17.65 L-94.95 15.35 -87.15 15.2 -86.95 24.15 M-87.35 5.95 L-87.4 4.2 -83.55 4.1 -78.55 4.0 -74.65 3.9 -74.55 7.05 -74.4 14.9 -78.2 15.0 -78.15 14.6 Q-78.2 13.5 -78.95 12.7 -79.75 12.0 -80.85 12.0 -81.9 12.05 -82.65 12.8 -83.25 13.4 -83.35 14.2 L-83.4 14.7 -83.4 15.1 -87.15 15.2 -87.35 5.95" fill="#1b336e" fill-rule="evenodd" stroke="none"/>
      <path d="M30.8 4.8 Q30.5 -3.15 37.0 -3.7 L46.6 -4.1 51.2 -3.9 Q55.2 -4.0 58.25 -7.2 61.0 -10.05 61.8 -13.6 64.0 -13.15 65.6 -11.0 67.25 -8.8 67.3 -6.35 67.4 -2.8 64.95 0.05 L64.9 0.4 68.1 0.0 Q68.05 -1.1 68.85 -1.9 69.55 -2.65 70.65 -2.7 71.75 -2.7 72.55 -2.0 73.3 -1.2 73.35 -0.1 L76.5 -0.15 76.75 11.65 77.0 22.9 73.85 22.95 Q73.85 24.05 73.15 24.8 72.35 25.65 71.25 25.65 70.15 25.7 69.45 24.9 68.6 24.15 68.6 23.05 L64.8 23.15 65.45 23.8 Q68.0 26.55 68.1 30.15 68.15 32.6 66.6 34.8 65.1 37.05 62.9 37.75 62.0 34.0 59.05 31.25 55.9 28.3 51.9 28.4 L47.3 28.75 42.55 29.15 Q31.0 29.4 31.1 20.2 L30.45 20.2 30.5 21.55 23.75 21.7 23.7 20.35 -74.25 22.45 -74.15 25.6 -77.95 25.7 -77.9 26.25 Q-77.9 27.35 -78.6 28.1 -79.4 28.95 -80.5 28.95 -81.55 29.0 -82.3 28.2 -83.15 27.45 -83.15 26.35 L-83.1 25.8 -86.9 25.9 -86.95 24.15 Q-89.85 23.8 -92.1 21.65 -93.95 19.9 -94.6 17.65 L-97.4 17.7 -97.5 12.85 -94.7 12.8 Q-94.15 10.5 -92.4 8.65 -90.25 6.4 -87.35 5.95 L-87.4 4.2 -83.55 4.1 -83.65 3.3 Q-83.7 2.2 -82.9 1.4 -82.15 0.65 -81.1 0.6 -80.0 0.6 -79.2 1.3 -78.45 2.1 -78.4 3.2 -78.4 3.65 -78.55 4.0 L-74.65 3.9 -74.55 7.05 23.4 4.95 23.35 3.3 30.1 3.15 30.15 4.8 30.8 4.8 59.15 4.15 59.65 4.15 62.3 2.45 64.3 0.75 Q64.6 0.4 64.9 0.4 M68.35 11.8 L68.35 11.4 Q68.3 10.3 69.1 9.5 69.6 9.0 70.2 8.8 L70.9 8.7 Q72.0 8.7 72.8 9.4 73.55 10.2 73.6 11.3 L73.55 11.7 Q73.45 12.55 72.9 13.15 72.1 14.0 71.0 14.0 L70.3 13.9 Q69.7 13.8 69.2 13.25 68.5 12.65 68.35 11.8 M64.35 2.4 L64.3 0.75 M62.3 2.45 L64.35 2.4 64.5 9.05 66.0 10.3 67.75 11.85 67.8 11.9 66.1 13.5 64.6 14.85 64.75 20.8 64.8 23.15 Q63.5 21.95 61.7 20.85 L59.45 19.65 59.3 19.55 31.1 20.2 M64.6 14.85 L60.8 17.55 59.45 18.2 59.45 19.55 59.45 19.65 M61.7 20.85 L64.75 20.8 M73.85 22.95 L68.6 23.05 M59.15 5.95 L59.15 4.45 58.4 4.85 54.05 4.95 Q56.85 5.1 59.15 5.95 L60.6 6.55 Q62.3 7.35 64.5 9.05 M59.15 4.15 L59.15 4.45 59.65 4.15 M50.45 5.1 L52.45 4.95 54.05 4.95 50.45 5.1 Q44.9 5.75 36.75 9.3 33.7 10.65 30.3 12.3 L29.45 12.65 29.35 12.7 30.3 13.15 30.45 20.2 M59.3 19.55 L58.7 19.3 54.9 19.3 52.75 19.45 50.35 19.35 Q44.95 18.9 36.85 15.75 L30.3 13.15 M59.45 18.2 Q57.35 19.0 54.9 19.3 L50.35 19.35 M59.45 19.55 L59.3 19.55 M30.15 4.8 L30.3 12.3 M23.55 12.8 L23.7 20.35 M23.55 12.8 L23.4 4.95 M73.35 -0.1 L68.1 0.0 M-83.35 14.2 Q-83.25 13.4 -82.65 12.8 -81.9 12.05 -80.85 12.0 -79.75 12.0 -78.95 12.7 -78.2 13.5 -78.15 14.6 L-78.2 15.0 Q-78.3 15.85 -78.85 16.45 -79.65 17.3 -80.75 17.3 -81.8 17.35 -82.55 16.55 -83.2 16.0 -83.35 15.25 L-83.4 15.1 -83.4 14.7 -83.35 14.2 -83.35 15.25 M-74.4 14.9 L-74.55 7.05 M-74.4 14.9 L-74.25 22.45 M-87.15 15.2 L-86.95 24.15 M-94.95 15.35 L-94.95 15.2 Q-95.0 13.95 -94.7 12.8 M-94.95 15.35 L-94.6 17.65 M-87.15 15.2 L-87.35 5.95 M-77.95 25.7 L-83.1 25.8 M-83.55 4.1 L-78.55 4.0" fill="none" stroke="#000000" stroke-linecap="round" stroke-linejoin="round" stroke-opacity="0.6627451" stroke-width="1.0"/>
      <path d="M117.6 -3.45 L118.25 24.6 112.65 24.7 112.0 -3.35 117.6 -3.45 Z" fill="none" stroke="#000000" stroke-linecap="round" stroke-linejoin="round" stroke-opacity="0.6627451" stroke-width="1.0"/>
      <path d="M75.6 4.45 Q75.75 -0.25 76.25 -4.95 87.5 -7.0 99.1 -5.45 L99.1 -4.15 99.15 4.45 99.15 4.65 Q89.55 3.15 83.85 3.25 L76.5 4.25 75.6 4.45" fill="#3366cc" fill-rule="evenodd" stroke="none"/>
      <path d="M120.4 -12.2 L120.7 -13.4 120.8 -13.7 120.7 -13.4 120.4 -12.2 M99.1 -4.15 Q105.1 -10.2 106.55 -18.85 L109.05 -33.7 Q109.25 -35.6 110.3 -36.35 127.0 -36.9 120.8 -13.7 134.6 -15.15 143.15 -14.0 146.1 -12.8 146.4 -7.2 146.6 -5.45 142.3 -1.75 144.15 -0.8 145.3 0.5 145.3 3.7 142.2 6.1 L136.6 9.4 138.0 11.6 Q138.8 12.8 138.8 13.9 138.9 16.85 133.7 19.0 129.1 20.95 99.5 20.35 L99.15 5.45 99.15 4.8 99.15 4.65 99.15 4.45 99.1 -4.15 M88.45 19.7 Q88.7 18.8 89.35 18.15 90.45 17.05 92.0 17.0 93.55 16.95 94.7 18.05 95.8 19.1 95.85 20.65 L95.75 21.65 Q94.4 22.45 93.45 22.45 89.2 22.55 88.45 19.7" fill="#ffffff" fill-rule="evenodd" stroke="none"/>
      <path d="M145.3 0.5 Q147.15 2.5 147.15 5.05 147.1 9.45 141.25 12.8 144.35 15.7 144.9 20.15 144.9 24.9 140.45 26.8 120.25 30.25 99.75 26.6 L99.5 20.35 Q129.1 20.95 133.7 19.0 138.9 16.85 138.8 13.9 138.8 12.8 138.0 11.6 L136.6 9.4 142.2 6.1 Q145.3 3.7 145.3 0.5 M95.75 21.65 Q95.55 22.6 94.8 23.4 93.75 24.5 92.2 24.55 90.65 24.6 89.45 23.5 88.35 22.4 88.3 20.85 88.3 20.2 88.45 19.7 89.2 22.55 93.45 22.45 94.4 22.45 95.75 21.65" fill="#dbdbdb" fill-rule="evenodd" stroke="none"/>
      <path d="M99.75 26.6 L99.8 27.25 Q88.3 29.5 76.95 27.75 75.2 16.1 75.6 4.45 L76.5 4.25 83.85 3.25 Q89.55 3.15 99.15 4.65 L99.15 4.8 99.15 5.45 99.5 20.35 99.75 26.6 M88.45 19.7 Q88.3 20.2 88.3 20.85 88.35 22.4 89.45 23.5 90.65 24.6 92.2 24.55 93.75 24.5 94.8 23.4 95.55 22.6 95.75 21.65 L95.85 20.65 Q95.8 19.1 94.7 18.05 93.55 16.95 92.0 17.0 90.45 17.05 89.35 18.15 88.7 18.8 88.45 19.7" fill="#284fa3" fill-rule="evenodd" stroke="none"/>
      <path d="M120.8 -13.7 L120.7 -13.4 120.4 -12.2 M99.1 -4.15 Q105.1 -10.2 106.55 -18.85 L109.05 -33.7 Q109.25 -35.6 110.3 -36.35 127.0 -36.9 120.8 -13.7 134.6 -15.15 143.15 -14.0 146.1 -12.8 146.4 -7.2 146.6 -5.45 142.3 -1.75 144.15 -0.8 145.3 0.5 147.15 2.5 147.15 5.05 147.1 9.45 141.25 12.8 144.35 15.7 144.9 20.15 144.9 24.9 140.45 26.8 120.25 30.25 99.75 26.6 L99.8 27.25 Q88.3 29.5 76.95 27.75 75.2 16.1 75.6 4.45 75.75 -0.25 76.25 -4.95 87.5 -7.0 99.1 -5.45 L99.1 -4.15 99.15 4.45 99.15 4.65 99.15 4.8 99.15 5.45 99.5 20.35 99.75 26.6 M95.75 21.65 Q95.55 22.6 94.8 23.4 93.75 24.5 92.2 24.55 90.65 24.6 89.45 23.5 88.35 22.4 88.3 20.85 88.3 20.2 88.45 19.7 88.7 18.8 89.35 18.15 90.45 17.05 92.0 17.0 93.55 16.95 94.7 18.05 95.8 19.1 95.85 20.65 L95.75 21.65" fill="none" stroke="#000000" stroke-linecap="round" stroke-linejoin="round" stroke-opacity="0.6627451" stroke-width="1.0"/>
      <path d="M-53.95 -57.7 L-53.95 -57.65 Q-53.95 -57.3 -55.45 -53.85 -60.6 -43.7 -62.7 -32.5 L-64.2 -24.3 -66.1 -11.9 Q-67.85 1.65 -65.8 15.0 -65.0 20.0 -63.45 24.6 -62.75 28.2 -60.15 29.45 L-57.8 30.0 -55.5 30.05 -54.4 30.05 Q-53.45 30.05 -53.0 29.7 -52.75 28.2 -51.95 28.2 -51.65 28.6 -51.55 29.5 L-51.55 29.55 -51.5 29.55 -51.2 30.7 -51.2 30.85 -50.95 31.35 -50.85 31.5 -50.2 32.3 -50.1 32.4 Q-49.45 32.9 -47.55 32.95 L-43.95 32.85 Q-39.65 32.85 -38.65 31.95 -38.45 31.75 -38.35 30.6 -38.55 29.0 -38.35 28.3 -38.05 27.2 -37.35 27.5 -36.7 27.8 -36.35 28.8 L-36.2 29.65 -36.15 29.65 -35.35 29.95 -29.7 29.7 -24.4 29.05 -24.05 28.9 -23.25 28.25 -22.45 27.1 Q-22.15 25.85 -21.95 22.95 L-24.0 22.65 -24.05 25.6 -24.05 25.9 -24.6 26.1 -25.15 25.4 -25.35 24.35 -25.3 22.45 -25.35 20.3 -25.3 18.7 -25.2 15.05 -24.55 10.95 Q-24.0 8.2 -23.2 6.4 L-22.7 5.4 Q-21.75 3.75 -20.7 4.05 L-20.6 4.5 -20.7 4.95 -20.35 4.9 -16.8 4.6 -14.05 4.3 -14.15 0.05 Q-14.3 -2.25 -17.55 -2.65 L-20.15 -3.0 -20.1 -1.95 -20.1 -1.45 Q-20.05 -1.2 -20.7 -1.2 -21.25 -1.2 -21.6 -2.2 -22.1 -3.4 -22.3 -6.1 L-22.45 -11.0 Q-22.45 -16.1 -21.8 -19.55 -21.25 -22.55 -19.2 -28.8 -17.15 -35.15 -15.8 -37.7 L-12.95 -42.2 Q-12.05 -43.45 -10.55 -44.55 L-10.0 -44.9 Q-8.6 -45.85 -8.6 -44.4 -8.6 -44.9 -11.15 -41.45 L-13.1 -38.55 -10.05 -40.1 -6.85 -41.75 Q-4.7 -42.5 -4.7 -41.05 -4.7 -39.5 -14.45 -36.05 L-15.45 -33.65 -18.8 -22.9 Q-20.1 -18.05 -20.3 -12.15 L-20.2 -4.2 -17.6 -4.3 -14.55 -3.9 Q-14.0 -3.65 -13.2 -2.85 -12.4 -2.0 -12.2 -0.7 L-12.15 1.35 Q-12.15 4.4 -12.3 4.9 -12.75 6.3 -14.85 6.3 L-21.2 6.1 -21.65 7.0 -22.95 9.95 -23.5 12.4 -23.9 15.15 -24.0 20.4 -24.0 21.2 -22.45 21.05 Q-20.2 21.15 -20.35 23.3 L-20.2 27.2 Q-20.2 28.8 -21.3 29.9 -22.6 31.2 -25.25 31.7 L-28.7 31.95 -36.1 31.55 Q-36.15 32.3 -36.35 32.85 L-36.95 33.65 Q-37.5 34.15 -38.4 34.55 -40.4 35.3 -44.0 35.3 L-49.5 34.75 Q-51.4 34.2 -52.3 33.25 L-52.9 32.25 -54.25 32.35 -55.5 32.35 -57.9 32.5 Q-63.4 32.2 -65.6 26.45 L-66.2 24.6 Q-69.6 12.45 -69.3 -0.2 -69.05 -12.35 -66.9 -24.3 -65.05 -34.8 -61.55 -44.85 -59.95 -49.45 -57.95 -53.85 -55.55 -58.45 -54.8 -58.45 L-54.25 -58.2 -54.2 -58.15 -53.95 -57.7" fill="#000000" fill-rule="evenodd" stroke="none"/>
      <path d="M-60.15 29.45 Q-62.75 28.2 -63.45 24.6 -65.0 20.0 -65.8 15.0 -67.85 1.65 -66.1 -11.9 L-64.2 -24.3 -62.7 -32.5 Q-60.6 -43.7 -55.45 -53.85 -53.95 -57.3 -53.95 -57.65 L-53.95 -57.7 -53.3 -57.7 -53.55 -57.05 Q-58.1 -46.1 -60.0 -34.05 L-61.3 -25.25 Q-62.3 -18.55 -63.4 -7.0 -64.55 4.55 -63.25 13.6 -62.0 22.6 -61.2 25.6 L-60.15 29.45 M-10.0 -44.9 L-10.55 -44.55 Q-12.05 -43.45 -12.95 -42.2 L-15.8 -37.7 Q-17.15 -35.15 -19.2 -28.8 -21.25 -22.55 -21.8 -19.55 -22.45 -16.1 -22.45 -11.0 L-22.3 -6.1 Q-22.1 -3.4 -21.6 -2.2 L-22.2 -2.3 -23.45 -2.85 Q-23.65 -2.95 -23.85 -3.2 L-24.1 -5.65 -24.25 -10.9 Q-24.25 -16.4 -23.65 -20.1 -23.2 -23.35 -21.35 -30.05 -19.55 -36.9 -18.35 -39.65 -17.3 -42.15 -15.8 -44.5 L-13.7 -47.05 -13.6 -47.1 -10.0 -44.9 M-20.1 -1.95 L-20.15 -3.0 -17.55 -2.65 Q-14.3 -2.25 -14.15 0.05 L-14.05 4.3 -16.8 4.6 -16.9 1.0 Q-17.0 -1.5 -19.9 -1.95 L-20.1 -1.95 M-22.7 5.4 L-23.2 6.4 Q-24.0 8.2 -24.55 10.95 L-25.2 15.05 -25.3 18.7 -25.35 20.3 -25.3 22.45 -25.35 24.35 -25.15 25.4 -25.5 25.3 -25.95 25.05 -26.35 24.6 -26.6 24.1 -26.8 22.95 -26.8 22.8 -26.8 21.05 -26.7 17.15 -26.1 12.7 Q-25.6 9.75 -24.9 7.8 -23.85 4.9 -22.7 5.3 L-22.7 5.4 M-24.05 25.6 L-24.0 22.65 -21.95 22.95 Q-22.15 25.85 -22.45 27.1 L-23.25 28.25 -24.05 28.9 -23.8 25.65 -24.05 25.6 M-50.1 32.4 L-50.2 32.3 -50.85 31.5 -50.45 31.3 Q-50.2 31.65 -50.1 32.4" fill="#bdbdbd" fill-rule="evenodd" stroke="none"/>
      <path d="M-60.15 29.45 L-61.2 25.6 Q-62.0 22.6 -63.25 13.6 -64.55 4.55 -63.4 -7.0 -62.3 -18.55 -61.3 -25.25 L-60.0 -34.05 Q-58.1 -46.1 -53.55 -57.05 L-53.3 -57.7 Q-31.7 -57.5 -13.6 -47.1 L-13.7 -47.05 -15.8 -44.5 Q-17.3 -42.15 -18.35 -39.65 -19.55 -36.9 -21.35 -30.05 -23.2 -23.35 -23.65 -20.1 -24.25 -16.4 -24.25 -10.9 L-24.1 -5.65 -23.85 -3.2 Q-23.65 -2.95 -23.45 -2.85 L-22.2 -2.3 -21.6 -2.2 Q-21.25 -1.2 -20.7 -1.2 -20.05 -1.2 -20.1 -1.45 L-20.1 -1.95 -19.9 -1.95 Q-17.0 -1.5 -16.9 1.0 L-16.8 4.6 -20.35 4.9 -20.7 4.95 -20.6 4.5 -20.7 4.05 Q-21.75 3.75 -22.7 5.4 L-22.7 5.3 Q-23.85 4.9 -24.9 7.8 -25.6 9.75 -26.1 12.7 L-26.7 17.15 -26.8 21.05 -26.8 22.8 -26.8 22.95 -26.6 24.1 -26.35 24.6 -25.95 25.05 -25.5 25.3 -25.15 25.4 -24.6 26.1 -24.05 25.9 -24.05 25.6 -23.8 25.65 -24.05 28.9 -24.4 29.05 -29.7 29.7 -35.35 29.95 -36.15 29.65 -36.2 29.65 -36.35 28.8 Q-36.7 27.8 -37.35 27.5 -38.05 27.2 -38.35 28.3 -38.55 29.0 -38.35 30.6 -38.45 31.75 -38.65 31.95 -39.65 32.85 -43.95 32.85 L-47.55 32.95 Q-49.45 32.9 -50.1 32.4 -50.2 31.65 -50.45 31.3 L-50.85 31.5 -50.95 31.35 -51.2 30.85 -51.2 30.7 -51.5 29.55 -51.55 29.55 -51.55 29.5 Q-51.65 28.6 -51.95 28.2 -52.75 28.2 -53.0 29.7 -53.45 30.05 -54.4 30.05 L-55.5 30.05 -57.8 30.0 -60.15 29.45" fill="#999999" fill-rule="evenodd" stroke="none"/>
    </g>
  </defs>
</svg>
