<?xml version="1.0" encoding="UTF-8" standalone="no"?>
<svg xmlns:xlink="http://www.w3.org/1999/xlink" height="531.5px" width="460.6px" xmlns="http://www.w3.org/2000/svg">
  <g transform="matrix(1.0, 0.0, 0.0, 1.0, 193.65, 334.05)">
    <use height="94.2" transform="matrix(1.0, 0.0, 0.0, 1.0, 16.7, -79.85)" width="23.6" xlink:href="#sprite0"/>
    <use height="69.7" transform="matrix(1.0, 0.0, 0.0, 1.0, -56.8, -58.85)" width="97.6" xlink:href="#shape1"/>
  </g>
  <defs>
    <g id="sprite0" transform="matrix(1.0, 0.0, 0.0, 1.0, 0.75, 0.75)">
      <use height="94.2" transform="matrix(1.0, 0.0, 0.0, 1.0, -0.75, -0.75)" width="23.6" xlink:href="#shape0"/>
    </g>
    <g id="shape0" transform="matrix(1.0, 0.0, 0.0, 1.0, 0.75, 0.75)">
      <path d="M5.35 0.0 L19.1 0.0 20.25 7.0 20.25 7.1 20.3 7.55 20.35 7.9 20.4 8.7 20.45 9.2 20.95 16.75 21.05 18.65 19.7 18.35 19.6 16.45 19.6 16.35 19.65 16.3 19.65 16.15 19.7 14.7 19.55 14.65 19.35 10.75 19.2 9.2 19.2 9.1 19.15 9.1 19.2 9.05 19.1 8.25 18.95 7.1 18.55 7.1 17.4 7.15 14.75 7.25 14.25 7.25 12.2 7.05 11.3 6.95 8.0 6.65 4.95 6.8 4.95 6.75 5.05 6.45 5.05 6.3 4.95 6.1 4.7 6.0 4.7 6.8 4.05 6.8 5.35 0.0 M20.65 37.6 L20.6 38.5 20.5 39.65 20.4 40.25 20.35 40.55 17.95 43.85 18.65 41.75 19.15 39.3 19.3 37.6 19.35 36.7 19.6 32.0 19.75 27.25 21.05 28.65 20.95 32.75 20.65 37.6 M18.75 48.0 L18.05 49.45 Q16.55 52.05 14.8 53.3 L14.6 53.25 11.25 52.75 Q14.15 51.5 17.25 49.15 L18.75 48.0 M13.6 56.15 L13.65 65.85 Q11.9 65.3 10.25 63.55 L9.95 56.15 11.55 56.1 13.6 56.15 M13.7 72.15 L13.7 80.75 11.05 81.5 10.15 81.45 10.15 81.15 Q9.9 78.55 10.05 77.1 L10.3 70.3 10.3 67.8 13.05 71.1 13.7 72.15 M15.7 82.6 Q16.35 83.5 16.5 84.65 15.1 85.6 13.2 86.2 L12.7 86.4 Q9.95 86.0 8.5 84.6 L7.3 82.95 6.85 82.1 7.25 81.7 7.35 81.65 Q7.75 82.3 8.75 82.85 10.35 83.7 12.65 83.7 14.65 83.7 15.3 83.1 L15.7 82.6 M18.4 91.9 L11.45 92.7 11.05 92.7 10.65 92.7 3.4 91.8 Q0.0 90.95 0.0 89.7 0.0 89.2 0.55 88.75 0.95 88.4 1.7 88.1 L2.55 87.8 2.65 87.75 3.45 87.35 4.3 86.85 5.1 86.4 5.3 86.3 5.7 86.05 5.6 85.35 6.65 86.7 6.95 87.05 Q7.6 87.75 8.8 88.05 L9.35 88.15 12.45 88.5 12.6 88.55 12.85 88.65 Q15.7 89.45 17.2 90.6 L18.4 91.9 M5.1 51.05 L4.1 49.55 4.05 49.45 Q2.5 46.7 1.75 40.2 2.45 44.6 4.05 46.45 5.6 48.25 7.45 49.1 L8.2 49.4 8.5 49.5 9.75 49.75 9.95 49.8 Q7.55 50.8 5.1 51.05 M14.75 7.0 L14.9 6.75 14.75 6.45 14.55 6.35 14.25 6.45 14.2 6.75 14.25 7.25 14.2 6.75 14.25 6.45 14.55 6.35 14.75 6.45 14.9 6.75 14.75 7.0 M20.25 15.5 L20.25 15.4 20.15 15.85 20.15 15.9 20.25 15.5 M6.0 86.85 L5.85 86.5 5.7 86.05 5.85 86.5 6.0 86.85 M7.65 90.95 Q3.9 90.75 2.45 89.4 3.9 90.75 7.65 90.95 M15.75 90.85 L17.2 90.6 15.75 90.85 M12.6 88.55 L11.65 88.7 8.8 88.05 11.65 88.7 12.6 88.55" fill="#ffffff" fill-opacity="0.37254903" fill-rule="evenodd" stroke="none"/>
      <path d="M20.25 15.5 L20.15 15.9 20.15 15.85 20.25 15.4 20.25 15.5 M13.55 10.45 L13.95 10.65 14.1 11.1 13.95 11.5 Q13.75 11.7 13.55 11.7 13.35 11.7 13.15 11.5 L13.0 11.1 Q13.0 10.85 13.15 10.65 L13.55 10.45 M13.9 11.8 Q14.0 11.65 14.25 11.65 14.45 11.65 14.6 11.8 L14.7 12.2 14.6 12.6 14.25 12.75 13.9 12.6 13.75 12.2 13.9 11.8" fill="#e8e498" fill-rule="evenodd" stroke="none"/>
      <path d="M21.05 18.65 L21.1 24.85 21.1 27.4 21.05 28.65 19.75 27.25 Q17.35 24.8 14.4 22.7 8.8 18.65 3.6 17.2 L2.75 16.95 2.55 16.9 2.5 19.3 2.45 24.3 2.5 26.35 2.5 26.7 2.45 26.95 2.5 27.2 2.55 32.0 2.85 36.85 2.9 37.75 3.1 39.25 3.3 40.5 3.35 40.6 Q3.9 43.8 5.05 45.35 L6.2 46.6 Q7.05 47.4 8.0 47.9 L8.9 48.3 9.95 48.55 10.75 48.6 11.1 48.6 11.45 48.6 12.2 48.55 12.35 48.55 14.85 46.75 17.95 43.85 20.35 40.55 Q19.55 44.65 18.05 46.45 16.5 48.25 14.65 49.1 L13.6 49.5 12.35 49.75 11.45 49.8 11.05 49.8 10.65 49.8 9.95 49.8 10.65 49.8 11.05 49.8 11.45 49.8 12.35 49.75 13.6 49.5 14.65 49.1 Q16.5 48.25 18.05 46.45 19.55 44.65 20.35 40.55 L20.4 40.55 Q19.8 45.3 18.75 48.0 L17.25 49.15 Q14.15 51.5 11.25 52.75 L9.7 53.35 8.15 53.8 7.45 53.4 6.9 53.0 6.85 52.95 Q5.9 52.15 5.1 51.05 7.55 50.8 9.95 49.8 L9.75 49.75 8.5 49.5 8.2 49.4 7.45 49.1 Q5.6 48.25 4.05 46.45 2.45 44.6 1.75 40.2 L1.55 38.65 1.5 37.75 1.4 36.5 Q1.2 34.75 1.15 32.75 L1.05 28.15 1.05 27.45 1.0 24.85 Q1.0 20.55 1.15 16.75 L1.15 16.6 1.65 9.2 1.7 8.7 1.7 8.55 1.85 7.25 1.9 6.9 Q2.35 3.05 3.0 0.0 L5.35 0.0 4.05 6.8 4.7 6.8 4.7 6.0 4.95 6.1 5.05 6.3 5.05 6.45 4.95 6.75 4.95 6.8 8.0 6.65 11.3 6.95 12.2 7.05 14.25 7.25 14.75 7.25 17.4 7.15 18.55 7.1 18.95 7.1 19.1 8.25 19.2 9.05 19.15 9.1 16.15 9.1 16.25 9.2 16.45 9.6 16.25 10.0 15.9 10.2 15.5 10.0 15.4 9.6 15.45 9.4 15.5 9.2 15.7 9.1 10.35 9.1 3.65 9.1 3.45 10.8 3.85 11.1 5.25 12.1 7.55 13.7 10.45 15.5 Q13.4 16.6 18.25 17.95 L19.7 18.35 21.05 18.65 M13.65 65.85 L13.7 72.15 13.05 71.1 10.3 67.8 10.3 70.3 10.05 77.1 Q9.9 78.55 10.15 81.15 L10.15 81.45 9.85 82.2 8.5 81.45 8.4 80.95 8.5 54.0 9.75 54.4 9.8 54.4 9.95 56.15 10.25 63.55 Q11.9 65.3 13.65 65.85 M16.45 85.9 L16.4 86.05 17.55 86.7 17.8 86.85 18.6 87.3 19.55 87.8 20.65 88.2 21.55 88.75 Q22.1 89.2 22.1 89.7 22.1 90.95 18.7 91.8 L18.4 91.9 17.2 90.6 Q15.7 89.45 12.85 88.65 L12.6 88.55 12.45 88.5 9.35 88.15 8.8 88.05 Q7.6 87.75 6.95 87.05 L6.65 86.7 5.6 85.35 5.6 85.1 Q5.6 83.7 6.4 82.65 L6.85 82.1 7.3 82.95 8.5 84.6 Q9.95 86.0 12.7 86.4 L14.75 86.5 Q15.45 86.5 16.45 85.9 M4.7 6.8 L4.95 6.8 4.7 6.8 M3.4 6.9 L3.35 7.0 3.45 6.95 3.4 6.9 M6.6 14.35 L6.5 13.95 6.15 13.8 Q5.9 13.8 5.8 13.95 L5.65 14.35 5.8 14.75 6.15 14.9 6.5 14.75 6.6 14.35 6.5 14.75 6.15 14.9 5.8 14.75 5.65 14.35 5.8 13.95 Q5.9 13.8 6.15 13.8 L6.5 13.95 6.6 14.35 M13.4 88.55 L12.6 88.55 13.4 88.55 M19.95 89.2 Q18.6 90.2 17.2 90.6 18.6 90.2 19.95 89.2 M16.05 87.05 L16.4 86.05 16.05 87.05" fill="#ffffff" fill-rule="evenodd" stroke="none"/>
      <path d="M13.9 11.8 L13.75 12.2 13.9 12.6 14.25 12.75 14.6 12.6 14.7 12.2 14.6 11.8 Q14.45 11.65 14.25 11.65 14.0 11.65 13.9 11.8 M13.55 10.45 L13.15 10.65 Q13.0 10.85 13.0 11.1 L13.15 11.5 Q13.35 11.7 13.55 11.7 13.75 11.7 13.95 11.5 L14.1 11.1 13.95 10.65 13.55 10.45 M19.15 9.1 L19.2 9.1 19.2 9.2 19.35 10.75 19.55 14.65 19.7 14.7 19.65 16.15 19.65 16.3 19.6 16.35 19.6 16.45 19.7 18.35 18.25 17.95 Q13.4 16.6 10.45 15.5 L7.55 13.7 5.25 12.1 Q5.85 11.15 6.75 10.45 8.4 9.15 10.35 9.1 L15.7 9.1 15.5 9.2 15.45 9.4 15.4 9.6 15.5 10.0 15.9 10.2 16.25 10.0 16.45 9.6 16.25 9.2 16.15 9.1 19.15 9.1 M11.55 13.6 L11.45 13.95 11.55 14.3 11.85 14.45 12.15 14.3 12.3 13.95 12.15 13.6 11.85 13.45 11.55 13.6 M19.0 15.2 L18.9 14.8 18.8 14.65 Q18.6 14.4 18.3 14.4 18.0 14.4 17.75 14.65 L17.55 15.2 17.75 15.8 18.3 16.05 18.7 15.95 18.8 15.8 19.0 15.2" fill="url(#gradient0)" fill-rule="evenodd" stroke="none"/>
      <path d="M4.7 11.25 L4.85 11.25 5.2 11.15 5.3 10.75 5.2 10.35 4.85 10.2 4.7 10.25 4.5 10.35 Q4.35 10.5 4.35 10.75 L4.5 11.15 4.7 11.25 M5.25 12.1 L3.85 11.1 3.45 10.8 3.65 9.1 10.35 9.1 Q8.4 9.15 6.75 10.45 5.85 11.15 5.25 12.1 M3.6 17.2 L3.55 17.3 3.5 17.7 3.05 22.1 Q3.1 24.8 2.5 26.35 L2.45 24.3 2.5 19.3 2.55 16.9 2.75 16.95 3.6 17.2 M3.35 40.6 L3.75 41.3 Q6.55 45.7 10.55 45.7 13.25 45.7 16.75 43.25 L18.65 41.75 17.95 43.85 14.85 46.75 12.35 48.55 12.2 48.55 11.45 48.6 11.1 48.6 10.75 48.6 9.95 48.55 8.9 48.3 8.0 47.9 Q7.05 47.4 6.2 46.6 L5.05 45.35 Q3.9 43.8 3.35 40.6" fill="#d4b72a" fill-opacity="0.8627451" fill-rule="evenodd" stroke="none"/>
      <path d="M4.7 10.25 L4.85 10.2 5.2 10.35 5.3 10.75 5.2 11.15 4.85 11.25 4.7 11.25 4.7 10.25" fill="#bdb622" fill-opacity="0.8627451" fill-rule="evenodd" stroke="none"/>
      <path d="M3.85 18.0 Q3.85 17.8 3.5 17.7 3.85 17.8 3.85 18.0 M2.5 26.35 Q3.1 24.8 3.05 22.1 L3.5 17.7 3.55 17.3 3.6 17.2 Q8.8 18.65 14.4 22.7 17.35 24.8 19.75 27.25 L19.6 32.0 19.35 36.7 19.3 37.6 19.15 39.3 18.65 41.75 16.75 43.25 Q13.25 45.7 10.55 45.7 6.55 45.7 3.75 41.3 L3.35 40.6 3.3 40.5 3.1 39.25 2.9 37.75 2.85 36.85 2.55 32.0 2.5 27.2 2.45 26.95 2.5 26.7 2.5 26.35 M11.25 22.25 L11.1 21.85 10.75 21.7 Q10.55 21.7 10.35 21.85 L10.25 22.25 10.25 22.3 10.35 22.65 Q10.55 22.85 10.75 22.85 L11.1 22.65 11.2 22.5 11.25 22.25 M14.2 36.3 L14.2 36.15 13.95 35.6 13.55 35.4 13.05 35.6 12.9 36.15 Q12.9 36.45 13.05 36.6 L13.2 36.75 13.55 36.85 13.95 36.6 14.2 36.3 M5.5 30.0 Q5.25 30.0 5.1 30.15 4.95 30.35 4.95 30.6 L5.1 31.0 5.5 31.15 5.85 31.0 6.0 30.6 5.85 30.15 5.5 30.0 M4.15 25.8 Q3.95 25.8 3.8 25.95 L3.7 26.35 3.8 26.75 4.15 26.9 4.5 26.75 4.65 26.35 4.5 25.95 4.15 25.8" fill="url(#gradient1)" fill-rule="evenodd" stroke="none"/>
      <path d="M19.0 15.2 L18.8 15.8 18.7 15.95 18.3 16.05 17.75 15.8 17.55 15.2 17.75 14.65 Q18.0 14.4 18.3 14.4 18.6 14.4 18.8 14.65 L18.9 14.8 19.0 15.2 M11.55 13.6 L11.85 13.45 12.15 13.6 12.3 13.95 12.15 14.3 11.85 14.45 11.55 14.3 11.45 13.95 11.55 13.6" fill="#ebe23c" fill-opacity="0.8627451" fill-rule="evenodd" stroke="none"/>
      <path d="M11.25 22.25 L11.2 22.5 11.1 22.65 10.75 22.85 Q10.55 22.85 10.35 22.65 L10.25 22.3 10.25 22.25 10.35 21.85 Q10.55 21.7 10.75 21.7 L11.1 21.85 11.25 22.25" fill="url(#gradient2)" fill-rule="evenodd" stroke="none"/>
      <path d="M14.2 36.3 L13.95 36.6 13.55 36.85 13.2 36.75 13.35 36.45 13.9 36.25 14.2 36.3" fill="url(#gradient3)" fill-rule="evenodd" stroke="none"/>
      <path d="M13.2 36.75 L13.05 36.6 Q12.9 36.45 12.9 36.15 L13.05 35.6 13.55 35.4 13.95 35.6 14.2 36.15 14.2 36.3 13.9 36.25 13.35 36.45 13.2 36.75" fill="url(#gradient4)" fill-rule="evenodd" stroke="none"/>
      <path d="M5.5 30.0 L5.85 30.15 6.0 30.6 5.85 31.0 5.5 31.15 5.1 31.0 4.95 30.6 Q4.95 30.35 5.1 30.15 5.25 30.0 5.5 30.0" fill="url(#gradient5)" fill-rule="evenodd" stroke="none"/>
      <path d="M4.15 25.8 L4.5 25.95 4.65 26.35 4.5 26.75 4.15 26.9 3.8 26.75 3.7 26.35 3.8 25.95 Q3.95 25.8 4.15 25.8" fill="url(#gradient6)" fill-rule="evenodd" stroke="none"/>
      <path d="M14.8 53.3 L14.65 53.4 14.6 53.45 13.6 54.0 13.6 56.15 11.55 56.1 9.95 56.15 9.8 54.4 10.65 54.5 11.05 54.5 11.45 54.5 12.35 54.4 13.6 54.0 12.35 54.4 11.45 54.5 11.05 54.5 10.65 54.5 9.8 54.4 9.75 54.4 8.5 54.0 8.15 53.8 9.7 53.35 11.25 52.75 14.6 53.25 14.8 53.3 M13.7 80.75 L13.7 80.95 14.85 81.7 15.7 82.6 15.3 83.1 Q14.65 83.7 12.65 83.7 10.35 83.7 8.75 82.85 7.75 82.3 7.35 81.65 L8.4 80.95 8.5 81.45 9.85 82.2 10.65 82.45 11.05 82.5 11.45 82.45 Q12.5 82.25 13.6 81.45 L13.7 80.95 13.6 81.45 Q12.5 82.25 11.45 82.45 L11.05 82.5 10.65 82.45 9.85 82.2 10.15 81.45 11.05 81.5 13.7 80.75 M16.5 84.65 L16.5 85.1 16.45 85.9 Q15.45 86.5 14.75 86.5 L12.7 86.4 13.2 86.2 Q15.1 85.6 16.5 84.65" fill="#848484" fill-rule="evenodd" stroke="none"/>
      <path d="M5.35 0.0 L19.1 0.0 20.25 7.0 20.25 7.1 20.3 7.55 20.35 7.9 20.4 8.7 20.45 9.2 20.95 16.75 21.05 18.65 21.1 24.85 21.1 27.4 21.1 28.7 21.1 29.15 20.95 34.4 20.65 37.6 20.6 38.5 20.5 39.65 20.4 40.25 20.4 40.55 Q19.8 45.3 18.75 48.0 L18.05 49.45 Q16.55 52.05 14.8 53.3 L14.65 53.4 14.6 53.45 13.6 54.0 13.6 56.15 13.65 65.85 13.7 72.15 13.7 80.75 13.7 80.95 14.85 81.7 15.7 82.6 Q16.35 83.5 16.5 84.65 L16.5 85.1 16.45 85.9 16.4 86.05 17.55 86.7 17.8 86.85 18.6 87.3 19.55 87.8 20.65 88.2 21.55 88.75 Q22.1 89.2 22.1 89.7 22.1 90.95 18.7 91.8 L18.4 91.9 11.45 92.7 11.05 92.7 10.65 92.7 3.4 91.8 Q0.0 90.95 0.0 89.7 0.0 89.2 0.55 88.75 0.95 88.4 1.7 88.1 L2.55 87.8 2.65 87.75 3.45 87.35 4.3 86.85 5.1 86.4 5.3 86.3 5.7 86.05 5.6 85.35 5.6 85.1 Q5.6 83.7 6.4 82.65 L6.85 82.1 7.25 81.7 7.35 81.65 8.4 80.95 8.5 54.0 8.15 53.8 7.45 53.4 6.9 53.0 6.85 52.95 Q5.9 52.15 5.1 51.05 L4.1 49.55 4.05 49.45 Q2.5 46.7 1.75 40.2 L1.55 38.65 1.5 37.75 1.3 36.35 1.15 34.4 Q1.0 32.0 1.0 29.15 L1.05 28.15 1.05 27.45 1.0 24.85 Q1.0 20.55 1.15 16.75 L1.15 16.6 1.65 9.2 1.7 8.7 1.7 8.55 1.85 7.25 1.9 6.9 Q2.35 3.05 3.0 0.0 L5.35 0.0 M1.05 28.15 L1.15 32.75 Q1.2 34.75 1.4 36.5 L1.5 37.75 M21.05 28.65 L20.95 32.75 20.65 37.6 M21.05 28.65 L21.1 27.4 M20.35 40.55 L20.4 40.25 M9.8 54.4 L10.65 54.5 11.05 54.5 11.45 54.5 12.35 54.4 13.6 54.0 M8.5 54.0 L9.75 54.4 9.8 54.4 M13.7 80.95 L13.6 81.45 Q12.5 82.25 11.45 82.45 L11.05 82.5 10.65 82.45 9.85 82.2 8.5 81.45 8.4 80.95 M5.7 86.05 L5.85 86.5 6.0 86.85 M16.4 86.05 L16.05 87.05" fill="none" stroke="#595959" stroke-linecap="round" stroke-linejoin="round" stroke-opacity="0.6627451" stroke-width="1.5"/>
      <path d="M4.7 6.0 L4.95 6.1 5.05 6.3 5.05 6.45 4.95 6.75 4.95 6.8 4.7 6.8 M14.25 7.25 L14.2 6.75 14.25 6.45 14.55 6.35 14.75 6.45 14.9 6.75 14.75 7.0 M13.55 10.45 L13.95 10.65 14.1 11.1 13.95 11.5 Q13.75 11.7 13.55 11.7 13.35 11.7 13.15 11.5 L13.0 11.1 Q13.0 10.85 13.15 10.65 L13.55 10.45 M13.9 11.8 Q14.0 11.65 14.25 11.65 14.45 11.65 14.6 11.8 L14.7 12.2 14.6 12.6 14.25 12.75 13.9 12.6 13.75 12.2 13.9 11.8 M15.7 9.1 L15.5 9.2 15.45 9.4 15.4 9.6 15.5 10.0 15.9 10.2 16.25 10.0 16.45 9.6 16.25 9.2 16.15 9.1 M4.7 11.25 L4.85 11.25 5.2 11.15 5.3 10.75 5.2 10.35 4.85 10.2 4.7 10.25 M6.6 14.35 L6.5 14.75 6.15 14.9 5.8 14.75 5.65 14.35 5.8 13.95 Q5.9 13.8 6.15 13.8 L6.5 13.95 6.6 14.35 M3.5 17.7 Q3.85 17.8 3.85 18.0 M19.0 15.2 L18.8 15.8 18.7 15.95 18.3 16.05 17.75 15.8 17.55 15.2 17.75 14.65 Q18.0 14.4 18.3 14.4 18.6 14.4 18.8 14.65 L18.9 14.8 19.0 15.2 M11.55 13.6 L11.85 13.45 12.15 13.6 12.3 13.95 12.15 14.3 11.85 14.45 11.55 14.3 11.45 13.95 11.55 13.6 M11.25 22.25 L11.2 22.5 11.1 22.65 10.75 22.85 Q10.55 22.85 10.35 22.65 L10.25 22.3 10.25 22.25 10.35 21.85 Q10.55 21.7 10.75 21.7 L11.1 21.85 11.25 22.25 M13.2 36.75 L13.05 36.6 Q12.9 36.45 12.9 36.15 L13.05 35.6 13.55 35.4 13.95 35.6 14.2 36.15 14.2 36.3 13.95 36.6 13.55 36.85 13.2 36.75 M5.5 30.0 L5.85 30.15 6.0 30.6 5.85 31.0 5.5 31.15 5.1 31.0 4.95 30.6 Q4.95 30.35 5.1 30.15 5.25 30.0 5.5 30.0 M4.15 25.8 L4.5 25.95 4.65 26.35 4.5 26.75 4.15 26.9 3.8 26.75 3.7 26.35 3.8 25.95 Q3.95 25.8 4.15 25.8" fill="none" stroke="#ffffff" stroke-linecap="round" stroke-linejoin="round" stroke-opacity="0.6627451" stroke-width="1.5"/>
      <path d="M1.75 40.2 Q2.45 44.6 4.05 46.45 5.6 48.25 7.45 49.1 L8.2 49.4 8.5 49.5 9.75 49.75 9.95 49.8 10.65 49.8 11.05 49.8 11.45 49.8 12.35 49.75 13.6 49.5 14.65 49.1 Q16.5 48.25 18.05 46.45 19.55 44.65 20.35 40.55" fill="none" stroke="#7b7b7b" stroke-linecap="round" stroke-linejoin="round" stroke-opacity="0.6627451" stroke-width="1.5"/>
      <path d="M12.6 88.55 L13.4 88.55 M2.45 89.4 Q3.9 90.75 7.65 90.95 M17.2 90.6 Q18.6 90.2 19.95 89.2 M17.2 90.6 L15.75 90.85 M8.8 88.05 L11.65 88.7 12.6 88.55" fill="none" stroke="#959595" stroke-linecap="round" stroke-linejoin="round" stroke-opacity="0.6627451" stroke-width="1.5"/>
    </g>
    <radialGradient cx="0" cy="0" gradientTransform="matrix(0.03, 0.0, 0.0, 0.028, 7.85, 11.3)" gradientUnits="userSpaceOnUse" id="gradient0" r="819.2" spreadMethod="pad">
      <stop offset="0.0" stop-color="#f2d604" stop-opacity="0.9607843"/>
      <stop offset="0.2823529411764706" stop-color="#faf3be" stop-opacity="0.9607843"/>
      <stop offset="0.7529411764705882" stop-color="#d4b72a"/>
      <stop offset="0.7607843137254902" stop-color="#d4b42a" stop-opacity="0.9607843"/>
    </radialGradient>
    <radialGradient cx="0" cy="0" gradientTransform="matrix(-0.0756, 0.0, 0.0, -0.0612, 6.05, 26.9)" gradientUnits="userSpaceOnUse" id="gradient1" r="819.2" spreadMethod="pad">
      <stop offset="0.0" stop-color="#f2d604" stop-opacity="0.9607843"/>
      <stop offset="0.2823529411764706" stop-color="#faf3be" stop-opacity="0.9607843"/>
      <stop offset="0.7529411764705882" stop-color="#d4b72a"/>
      <stop offset="0.7607843137254902" stop-color="#d4b42a" stop-opacity="0.9607843"/>
    </radialGradient>
    <linearGradient gradientTransform="matrix(6.0E-4, 0.0, 0.0, 7.0E-4, 10.75, 22.25)" gradientUnits="userSpaceOnUse" id="gradient2" spreadMethod="pad" x1="-819.2" x2="819.2">
      <stop offset="0.0" stop-color="#f2d604"/>
      <stop offset="0.2823529411764706" stop-color="#faf3be" stop-opacity="0.83137256"/>
      <stop offset="0.7529411764705882" stop-color="#d4b72a"/>
    </linearGradient>
    <linearGradient gradientTransform="matrix(6.0E-4, 0.0, 0.0, 4.0E-4, 13.7, 36.55)" gradientUnits="userSpaceOnUse" id="gradient3" spreadMethod="pad" x1="-819.2" x2="819.2">
      <stop offset="0.0" stop-color="#f2d604"/>
      <stop offset="0.2823529411764706" stop-color="#faf3be" stop-opacity="0.83137256"/>
      <stop offset="0.7529411764705882" stop-color="#d4b72a"/>
    </linearGradient>
    <linearGradient gradientTransform="matrix(8.0E-4, 0.0, 0.0, 8.0E-4, 13.55, 36.05)" gradientUnits="userSpaceOnUse" id="gradient4" spreadMethod="pad" x1="-819.2" x2="819.2">
      <stop offset="0.0" stop-color="#f2d604"/>
      <stop offset="0.2823529411764706" stop-color="#faf3be" stop-opacity="0.83137256"/>
      <stop offset="0.7529411764705882" stop-color="#d4b72a"/>
    </linearGradient>
    <linearGradient gradientTransform="matrix(6.0E-4, 0.0, 0.0, 7.0E-4, 5.45, 30.55)" gradientUnits="userSpaceOnUse" id="gradient5" spreadMethod="pad" x1="-819.2" x2="819.2">
      <stop offset="0.0" stop-color="#f2d604"/>
      <stop offset="0.2823529411764706" stop-color="#faf3be" stop-opacity="0.83137256"/>
      <stop offset="0.7529411764705882" stop-color="#d4b72a"/>
    </linearGradient>
    <linearGradient gradientTransform="matrix(6.0E-4, 0.0, 0.0, 7.0E-4, 4.15, 26.35)" gradientUnits="userSpaceOnUse" id="gradient6" spreadMethod="pad" x1="-819.2" x2="819.2">
      <stop offset="0.0" stop-color="#f2d604"/>
      <stop offset="0.2823529411764706" stop-color="#faf3be" stop-opacity="0.83137256"/>
      <stop offset="0.7529411764705882" stop-color="#d4b72a"/>
    </linearGradient>
    <g id="shape1" transform="matrix(1.0, 0.0, 0.0, 1.0, 58.0, 57.45)">
      <path d="M-11.1 -43.9 L-10.45 -44.75 -10.45 -43.5 -10.5 -36.2 Q-10.5 -32.3 -10.15 -29.35 L-9.9 -29.0 -7.6 -29.25 -2.05 -29.35 9.9 -29.7 10.35 -30.5 11.0 -31.85 Q11.55 -33.8 13.45 -34.6 15.3 -35.45 17.05 -35.25 L19.35 -35.3 19.8 -35.2 Q20.65 -34.9 20.8 -34.0 L20.95 -33.3 20.85 -33.15 20.7 -32.15 20.65 -31.65 20.6 -30.65 20.65 -30.0 20.7 -29.5 Q20.7 -29.25 20.85 -29.15 L21.25 -29.15 21.3 -29.15 21.3 -29.1 21.9 -29.1 22.0 -29.1 22.0 -29.05 23.1 -29.05 24.25 -29.05 28.65 -28.7 29.6 -28.6 31.95 -28.2 33.8 -27.45 34.0 -27.4 35.0 -26.55 35.3 -26.2 35.75 -25.5 Q36.4 -24.25 36.4 -21.85 L36.15 -19.45 35.7 -18.4 36.9 -17.7 Q37.9 -17.15 38.55 -15.8 L39.25 -14.1 Q39.6 -12.8 39.6 -10.9 39.6 -8.0 38.15 -6.35 L37.25 -5.5 36.9 -5.3 36.65 -5.15 35.25 -4.6 35.3 -4.5 35.7 -4.0 36.35 -1.9 36.35 -1.6 36.4 -1.45 36.55 -0.2 Q36.55 1.85 35.5 3.9 34.6 5.6 33.6 6.05 L33.25 6.35 33.05 6.45 32.25 6.7 32.1 6.75 31.25 7.05 28.35 7.6 26.45 8.1 26.05 8.3 26.0 8.3 25.6 8.55 21.95 9.4 17.65 10.2 9.4 11.45 -7.7 12.25 Q-17.95 12.1 -33.0 9.2 -36.55 8.25 -39.75 6.7 -42.1 5.55 -44.25 4.1 -46.8 1.6 -49.0 -2.75 -51.9 -8.45 -53.45 -15.0 -57.2 -31.2 -57.65 -38.9 -58.1 -46.2 -58.0 -48.55 -57.75 -53.9 -55.85 -57.45 L-55.55 -57.15 -55.45 -56.8 -55.4 -56.4 -55.7 -50.85 -55.95 -45.2 Q-54.9 -27.75 -51.7 -15.75 -48.75 -4.7 -44.25 0.8 L-42.45 2.3 -42.3 2.4 Q-37.9 5.55 -33.0 7.25 -28.25 8.55 -23.2 9.3 L-1.6 10.55 16.3 9.1 24.55 7.55 25.3 7.25 27.1 6.65 28.85 6.25 31.4 5.8 31.9 5.65 32.1 5.6 32.75 5.25 33.6 4.6 33.85 4.25 34.65 2.55 34.75 2.3 34.8 2.25 35.15 -0.35 34.85 -2.55 34.35 -3.6 33.9 -4.05 33.8 -4.1 33.5 -4.2 33.3 -4.2 33.0 -4.2 32.25 -4.15 32.3 -4.2 32.05 -4.2 32.25 -4.5 Q32.6 -4.85 33.8 -5.4 L33.95 -5.45 34.55 -5.65 35.7 -6.05 37.05 -7.3 38.0 -8.8 38.3 -9.8 38.4 -10.3 38.45 -10.55 38.25 -12.1 37.8 -13.8 Q37.2 -15.3 36.6 -15.85 35.7 -16.7 34.3 -16.55 L33.3 -16.55 32.85 -16.55 32.8 -16.65 32.7 -16.65 Q32.2 -16.65 32.2 -17.0 32.2 -17.3 32.75 -17.5 L32.9 -17.55 33.8 -17.85 34.4 -18.2 34.7 -18.8 35.0 -19.85 35.15 -21.9 Q35.15 -23.75 34.75 -25.0 L34.2 -25.95 Q33.05 -26.95 29.95 -27.5 L23.1 -28.15 22.0 -28.2 22.0 -28.05 18.15 -28.2 19.05 -28.75 19.1 -28.75 Q18.9 -29.25 18.95 -30.15 18.95 -31.6 19.25 -32.7 L19.5 -33.6 19.15 -33.7 15.2 -33.8 Q14.1 -33.5 13.55 -32.85 13.0 -32.4 12.6 -31.55 12.1 -30.6 11.7 -29.15 L10.9 -27.85 Q10.75 -27.65 -2.05 -27.5 L-6.6 -27.45 -9.1 -27.4 -10.15 -27.45 -10.2 -27.45 -11.6 -27.3 -17.55 -26.65 -17.6 -26.85 -17.7 -27.55 Q-17.7 -28.45 -15.15 -28.65 L-13.25 -28.75 -12.55 -28.8 -13.3 -29.15 -14.7 -29.75 -17.45 -30.3 -20.0 -31.0 Q-18.5 -31.9 -14.2 -31.0 L-13.4 -30.8 -12.2 -30.45 -12.25 -30.75 -12.25 -34.55 -12.15 -40.1 Q-11.9 -42.6 -11.1 -43.9" fill="#000000" fill-rule="evenodd" stroke="none"/>
      <path d="M-53.85 -56.9 Q-42.5 -57.25 -32.5 -54.05 -21.85 -50.65 -17.2 -47.7 L-13.35 -45.25 -13.7 -36.3 -13.4 -30.8 -14.2 -31.0 Q-18.5 -31.9 -20.0 -31.0 L-17.45 -30.3 -14.7 -29.75 -13.3 -29.15 -13.25 -28.75 -15.15 -28.65 Q-17.7 -28.45 -17.7 -27.55 L-17.6 -26.85 -17.55 -26.65 -11.6 -27.3 -10.2 -27.45 -10.15 -27.45 -9.1 -27.4 -6.6 -27.45 -2.05 -27.5 Q10.75 -27.65 10.9 -27.85 L11.7 -29.15 Q12.1 -30.6 12.6 -31.55 13.0 -32.4 13.55 -32.85 14.1 -33.5 15.2 -33.8 L19.15 -33.7 19.5 -33.6 19.25 -32.7 Q18.95 -31.6 18.95 -30.15 18.9 -29.25 19.1 -28.75 L19.05 -28.75 18.15 -28.2 22.0 -28.05 22.0 -28.2 23.1 -28.15 29.95 -27.5 31.15 -25.05 32.3 -19.55 32.9 -17.55 32.75 -17.5 Q32.2 -17.3 32.2 -17.0 32.2 -16.65 32.7 -16.65 L32.8 -16.65 32.85 -16.55 33.3 -16.55 34.45 -14.6 Q35.8 -12.7 35.8 -9.8 35.8 -8.25 34.55 -5.65 L33.95 -5.45 33.8 -5.4 Q32.6 -4.85 32.25 -4.5 L32.05 -4.2 32.3 -4.2 32.25 -4.15 33.0 -4.2 33.3 -4.2 33.5 -4.2 33.8 -4.1 33.9 -4.05 Q33.5 -2.6 33.8 -1.3 34.2 0.55 33.25 3.55 L32.75 5.25 32.1 5.6 31.9 5.65 31.4 5.8 28.85 6.25 27.1 6.65 25.3 7.25 24.55 7.55 16.3 9.1 -1.6 10.55 -23.2 9.3 Q-28.25 8.55 -33.0 7.25 -37.9 5.55 -42.3 2.4 L-42.45 2.3 Q-48.6 -8.5 -51.35 -21.0 -53.95 -32.9 -53.95 -54.05 L-53.85 -56.9" fill="#999999" fill-rule="evenodd" stroke="none"/>
      <path d="M-55.45 -56.8 L-53.85 -56.9 -53.95 -54.05 Q-53.95 -32.9 -51.35 -21.0 -48.6 -8.5 -42.45 2.3 L-44.25 0.8 Q-48.75 -4.7 -51.7 -15.75 -54.9 -27.75 -55.95 -45.2 L-55.7 -50.85 -55.4 -56.4 -55.45 -56.8 M-13.35 -45.25 L-11.1 -43.9 Q-11.9 -42.6 -12.15 -40.1 L-12.25 -34.55 -12.25 -30.75 -12.2 -30.45 -13.4 -30.8 -13.7 -36.3 -13.35 -45.25 M29.95 -27.5 Q33.05 -26.95 34.2 -25.95 L34.75 -25.0 Q35.15 -23.75 35.15 -21.9 L35.0 -19.85 34.7 -18.8 34.4 -18.2 33.8 -17.85 32.9 -17.55 32.3 -19.55 31.15 -25.05 29.95 -27.5 M33.3 -16.55 L34.3 -16.55 Q35.7 -16.7 36.6 -15.85 37.2 -15.3 37.8 -13.8 L38.25 -12.1 38.45 -10.55 38.4 -10.3 38.3 -9.8 38.0 -8.8 37.05 -7.3 35.7 -6.05 34.55 -5.65 Q35.8 -8.25 35.8 -9.8 35.8 -12.7 34.45 -14.6 L33.3 -16.55 M33.9 -4.05 L34.35 -3.6 34.85 -2.55 35.15 -0.35 34.8 2.25 34.75 2.3 34.65 2.55 33.85 4.25 33.6 4.6 32.75 5.25 33.25 3.55 Q34.2 0.55 33.8 -1.3 33.5 -2.6 33.9 -4.05" fill="#bdbdbd" fill-rule="evenodd" stroke="none"/>
    </g>
  </defs>
</svg>
