<?xml version="1.0" encoding="UTF-8" standalone="no"?>
<svg xmlns:xlink="http://www.w3.org/1999/xlink" height="531.5px" width="460.6px" xmlns="http://www.w3.org/2000/svg">
  <g transform="matrix(1.0, 0.0, 0.0, 1.0, 193.65, 334.05)">
    <use height="61.85" transform="matrix(1.0, 0.0, 0.0, 1.0, -87.45, -44.25)" width="83.75" xlink:href="#shape0"/>
    <use height="174.85" transform="matrix(1.0322, 0.0, 0.0, 1.0322, -90.1885, -154.0613)" width="213.85" xlink:href="#shape1"/>
    <use height="46.35" transform="matrix(1.0, 0.0, 0.0, 1.0, -5.1, -28.75)" width="47.8" xlink:href="#shape2"/>
  </g>
  <defs>
    <g id="shape0" transform="matrix(1.0, 0.0, 0.0, 1.0, 87.45, 44.25)">
      <path d="M-4.85 13.2 L-5.0 15.2 -5.1 15.2 -14.55 17.0 -16.4 17.25 Q-26.65 18.05 -36.95 17.1 -48.3 16.6 -59.3 13.55 -65.95 11.75 -72.2 8.8 L-78.9 5.3 -83.35 2.45 -84.3 2.05 -84.55 1.85 -86.9 0.35 -86.95 0.3 Q-87.45 -0.2 -87.45 -1.3 -87.4 -2.9 -86.25 -6.1 L-85.65 -7.75 -86.1 -9.7 -86.05 -12.4 -85.4 -19.45 Q-84.95 -24.7 -82.75 -29.6 -80.5 -34.6 -78.4 -37.8 -76.4 -41.05 -74.6 -42.65 L-72.85 -44.2 -72.7 -44.05 -72.05 -44.15 -61.05 -44.15 -51.4 -44.0 -28.65 -43.55 -26.15 -43.45 -25.9 -43.25 -25.9 -42.95 -26.0 -42.9 -25.8 -42.45 -25.4 -39.35 -25.35 -36.4 Q-25.4 -34.35 -25.75 -33.2 L-26.1 -32.35 -23.9 -31.95 -19.7 -30.8 Q-16.15 -29.65 -11.0 -27.2 L-10.55 -26.95 -3.95 -24.55 -3.7 -25.1 -3.95 -22.85 Q-6.55 -23.65 -10.2 -25.1 L-13.15 -26.35 Q-19.8 -29.2 -24.1 -30.2 L-28.1 -30.8 -37.25 -30.4 -41.6 -30.05 -42.4 -30.1 -42.55 -30.55 -42.25 -30.75 -40.95 -31.25 Q-38.2 -32.1 -31.45 -32.45 L-30.85 -32.5 -27.8 -32.55 -27.85 -32.8 -27.85 -32.85 -29.4 -33.4 Q-32.1 -34.45 -32.8 -34.55 L-38.05 -35.5 -42.7 -36.45 -42.75 -36.85 -41.85 -36.9 -39.25 -36.95 -39.35 -36.9 -31.55 -35.75 -27.5 -34.5 -27.45 -34.75 -27.35 -35.8 -27.25 -40.4 -27.35 -41.0 -27.65 -42.55 -27.55 -42.8 -29.3 -42.8 -47.15 -42.95 -48.25 -43.0 -67.65 -43.25 -70.65 -43.4 -72.4 -43.55 -72.95 -43.35 -75.9 -38.9 Q-79.65 -32.85 -82.05 -27.05 -83.45 -23.6 -84.1 -18.65 L-84.45 -10.35 -83.8 -8.15 -83.15 -6.1 Q-83.2 -4.9 -84.0 -4.9 -84.5 -4.95 -84.95 -5.95 L-85.2 -5.3 -86.05 -1.35 -85.9 -1.0 Q-85.55 -0.6 -84.5 0.0 L-84.2 0.25 -80.5 2.65 Q-75.65 5.6 -70.65 8.0 -64.95 10.7 -58.65 12.2 -47.9 14.75 -36.9 15.1 L-27.35 15.65 -14.25 15.0 -5.05 13.25 -4.85 13.2" fill="#000000" fill-rule="evenodd" stroke="none"/>
      <path d="M-4.85 13.2 L-5.05 13.25 -14.25 15.0 -27.35 15.65 -36.9 15.1 Q-47.9 14.75 -58.65 12.2 -64.95 10.7 -70.65 8.0 -75.65 5.6 -80.5 2.65 L-84.2 0.25 -84.5 0.0 Q-85.55 -0.6 -85.9 -1.0 L-86.05 -1.35 -85.2 -5.3 -84.95 -5.95 Q-84.5 -4.95 -84.0 -4.9 -83.2 -4.9 -83.15 -6.1 L-83.8 -8.15 -84.45 -10.35 -84.1 -18.65 Q-83.45 -23.6 -82.05 -27.05 -79.65 -32.85 -75.9 -38.9 L-72.95 -43.35 -72.4 -43.55 -70.65 -43.4 -70.8 -43.35 -73.65 -39.0 Q-77.3 -33.1 -79.6 -27.45 -80.9 -24.1 -81.6 -19.3 L-81.95 -11.15 -81.95 -11.05 -82.0 -10.65 -82.2 -8.05 -82.35 -6.8 -82.4 -6.9 -82.6 -6.25 -82.95 -4.95 -83.5 -2.4 Q-83.5 -1.95 -82.05 -1.1 L-81.75 -0.9 -76.65 2.45 Q-72.8 4.8 -68.75 6.7 -63.3 9.3 -57.35 10.75 -47.05 13.25 -36.5 13.6 L-27.35 14.1 -13.95 13.35 -5.95 11.8 -4.9 11.55 -4.85 12.65 -4.85 13.2" fill="#bdbdbd" fill-rule="evenodd" stroke="none"/>
      <path d="M-70.65 -43.4 L-67.65 -43.25 -48.25 -43.0 -47.15 -42.95 -29.3 -42.8 -27.55 -42.8 -27.65 -42.55 -27.35 -41.0 -27.25 -40.4 -27.35 -35.8 -27.45 -34.75 -27.5 -34.5 -31.55 -35.75 -39.35 -36.9 -39.25 -36.95 -41.85 -36.9 -42.75 -36.85 -42.7 -36.45 -38.05 -35.5 -32.8 -34.55 Q-32.1 -34.45 -29.4 -33.4 L-27.85 -32.85 -27.85 -32.8 -27.8 -32.55 -30.85 -32.5 -31.45 -32.45 Q-38.2 -32.1 -40.95 -31.25 L-42.25 -30.75 -42.55 -30.55 -42.4 -30.1 -41.6 -30.05 -37.25 -30.4 -28.1 -30.8 -24.1 -30.2 Q-19.8 -29.2 -13.15 -26.35 L-10.2 -25.1 Q-6.55 -23.65 -3.95 -22.85 -4.75 -15.05 -4.95 -7.0 -5.25 2.25 -4.9 11.55 L-5.95 11.8 -13.95 13.35 -27.35 14.1 -36.5 13.6 Q-47.05 13.25 -57.35 10.75 -63.3 9.3 -68.75 6.7 -72.8 4.8 -76.65 2.45 L-81.75 -0.9 -82.05 -1.1 Q-83.5 -1.95 -83.5 -2.4 L-82.95 -4.95 -82.6 -6.25 -82.4 -6.9 -82.35 -6.8 -82.2 -8.05 -82.0 -10.65 -81.95 -11.05 -81.95 -11.15 -81.6 -19.3 Q-80.9 -24.1 -79.6 -27.45 -77.3 -33.1 -73.65 -39.0 L-70.8 -43.35 -70.65 -43.4" fill="#999999" fill-rule="evenodd" stroke="none"/>
    </g>
    <g id="shape1" transform="matrix(1.0, 0.0, 0.0, 1.0, 106.9, 87.4)">
      <path d="M67.35 -58.25 L76.35 -54.85 Q78.35 -53.85 78.3 -51.3 L74.75 -52.85 Q73.45 -51.1 72.4 -48.75 71.6 -46.95 70.95 -44.85 66.7 -32.7 66.2 -10.45 66.25 15.5 71.65 30.1 73.7 35.4 76.25 39.2 L76.75 40.0 80.3 38.6 Q80.4 42.4 78.95 42.7 L71.1 46.15 Q58.0 51.8 44.55 55.65 L35.45 57.95 Q25.5 50.6 19.55 36.4 L17.35 36.25 11.4 35.6 6.7 35.15 6.15 34.3 3.25 30.15 8.6 30.05 17.05 29.95 Q12.2 15.0 10.85 -6.1 9.35 -28.4 14.7 -43.75 L16.5 -48.3 Q22.85 -62.65 36.1 -70.05 L39.05 -68.95 67.35 -58.25 M81.85 -49.75 L84.25 -51.85 95.8 -47.5 Q106.5 -40.65 106.6 -7.4 106.8 25.95 96.2 33.9 L86.25 39.2 83.95 37.15 81.75 34.3 Q79.45 30.9 77.65 26.2 72.75 13.15 72.75 -10.0 73.2 -29.95 77.0 -40.85 78.6 -45.8 81.0 -48.8 L81.1 -48.95 81.85 -49.75 M5.75 61.0 L11.6 67.9 9.4 74.85 Q8.6 75.3 8.0 75.85 3.5 78.7 0.0 82.35 -2.2 84.6 -3.95 87.1 -5.35 84.75 -6.9 82.65 -10.6 77.25 -14.35 73.75 L-16.9 71.45 -18.95 63.85 -12.3 59.8 -12.3 63.5 Q-12.25 69.6 -2.35 71.45 6.5 71.8 5.65 63.65 L5.75 61.0 M-29.35 21.05 L-33.55 21.15 -44.65 21.25 -48.4 21.35 Q-50.15 20.9 -51.65 19.75 L-41.95 18.7 Q-36.55 14.45 -43.55 7.55 -50.45 0.65 -53.15 4.05 L-55.35 8.65 Q-58.05 -6.3 -55.25 -20.95 -54.15 -26.65 -51.85 -31.95 L-51.45 -24.1 Q-51.3 -21.15 -42.85 -23.75 -34.85 -28.1 -36.1 -30.8 L-39.3 -33.4 -37.1 -33.4 -32.25 -33.5 Q-34.9 -27.2 -35.05 -17.2 L-38.15 -15.95 -35.05 -12.25 -34.5 -5.15 Q-32.9 11.95 -29.35 21.05 M74.75 -52.85 L75.25 -53.6 74.75 -52.85 M24.05 -22.7 Q24.7 -14.2 38.1 -11.55 58.75 -12.05 57.95 -25.9 L41.15 -48.5 35.2 -56.25 32.0 -48.45 Q26.95 -35.4 24.05 -22.7 M88.85 -39.0 Q87.1 -36.7 85.95 -32.85 83.35 -24.5 83.0 -9.3 83.1 8.4 86.5 18.4 87.8 21.95 89.45 24.6 90.7 26.7 92.3 28.2 101.6 21.5 101.15 -7.7 99.5 -36.3 91.8 -41.7 90.2 -40.85 88.85 -39.0 M95.45 -42.75 Q93.45 -42.75 91.8 -41.7 93.45 -42.75 95.45 -42.75 M95.55 30.2 Q93.75 29.4 92.3 28.2 93.75 29.4 95.55 30.2 M41.6 15.8 Q28.8 15.8 27.5 19.35 32.35 37.2 39.3 53.3 50.15 39.1 59.5 23.3 56.0 17.6 41.6 15.8 M19.55 36.4 L17.05 29.95 19.55 36.4 M77.7 41.3 L76.75 40.0 77.7 41.3 M78.5 42.25 L78.95 42.7 78.5 42.25 M4.35 74.85 Q-3.8 79.0 -13.0 72.25 -3.8 79.0 4.35 74.85" fill="#333333" fill-rule="evenodd" stroke="none"/>
      <path d="M78.3 -51.3 L81.85 -49.75 81.1 -48.95 81.0 -48.8 Q78.6 -45.8 77.0 -40.85 73.2 -29.95 72.75 -10.0 72.75 13.15 77.65 26.2 79.45 30.9 81.75 34.3 L83.95 37.15 80.3 38.6 76.75 40.0 76.25 39.2 Q73.7 35.4 71.65 30.1 66.25 15.5 66.2 -10.45 66.7 -32.7 70.95 -44.85 71.6 -46.95 72.4 -48.75 73.45 -51.1 74.75 -52.85 L78.3 -51.3 M-54.25 28.25 L-58.8 31.65 Q-79.0 -3.15 -64.0 -41.1 L-59.0 -37.5 Q-68.9 -9.4 -59.25 16.9 L-61.3 20.95 -57.9 20.55 -54.25 28.25 M-69.75 40.0 L-74.85 44.2 Q-99.35 -0.9 -81.3 -47.6 L-79.5 -52.0 -74.1 -48.4 -74.4 -47.65 Q-91.95 -2.4 -69.75 40.0" fill="url(#gradient0)" fill-rule="evenodd" stroke="none"/>
      <path d="M39.05 -68.95 Q47.55 -79.95 55.9 -87.05 63.2 -73.0 67.35 -58.25 L39.05 -68.95" fill="url(#gradient1)" fill-rule="evenodd" stroke="none"/>
      <path d="M24.05 -22.7 Q26.95 -35.4 32.0 -48.45 L35.2 -56.25 41.15 -48.5 57.95 -25.9 Q58.75 -12.05 38.1 -11.55 24.7 -14.2 24.05 -22.7" fill="url(#gradient2)" fill-rule="evenodd" stroke="none"/>
      <path d="M-17.2 30.45 L-21.6 30.55 Q-26.2 28.95 -29.35 21.05 -32.9 11.95 -34.5 -5.15 L-35.05 -12.25 -23.7 1.25 Q-22.05 15.2 -17.2 30.45 M-31.1 -35.8 Q-28.15 -41.15 -22.9 -43.15 L-19.3 -43.2 Q-22.95 -33.1 -24.0 -21.9 L-35.05 -17.2 Q-34.9 -27.2 -32.25 -33.5 L-31.1 -35.8 M6.05 -43.6 L14.7 -43.75 Q9.35 -28.4 10.85 -6.1 12.2 15.0 17.05 29.95 L8.6 30.05 Q-5.0 -11.85 6.05 -43.6" fill="url(#gradient3)" fill-rule="evenodd" stroke="none"/>
      <path d="M-15.2 -43.25 L-13.35 -48.1 Q-9.15 -57.8 -2.1 -64.7 5.65 -58.05 11.95 -48.3 L14.7 -43.75 6.05 -43.6 -15.2 -43.25" fill="url(#gradient4)" fill-rule="evenodd" stroke="none"/>
      <path d="M85.95 -32.85 Q87.1 -36.7 88.85 -39.0 93.85 -30.95 95.3 -8.25 95.55 15.9 89.45 24.6 95.55 15.9 95.3 -8.25 93.85 -30.95 88.85 -39.0 90.2 -40.85 91.8 -41.7 99.5 -36.3 101.15 -7.7 101.6 21.5 92.3 28.2 90.7 26.7 89.45 24.6 87.8 21.95 86.5 18.4 83.1 8.4 83.0 -9.3 83.35 -24.5 85.95 -32.85 88.5 -24.1 89.4 -8.75 89.65 8.95 86.5 18.4 89.65 8.95 89.4 -8.75 88.5 -24.1 85.95 -32.85" fill="#191919" fill-rule="evenodd" stroke="none"/>
      <path d="M41.6 15.8 Q56.0 17.6 59.5 23.3 50.15 39.1 39.3 53.3 32.35 37.2 27.5 19.35 28.8 15.8 41.6 15.8" fill="url(#gradient5)" fill-rule="evenodd" stroke="none"/>
      <path d="M17.35 36.25 Q15.85 40.6 16.75 45.1 10.05 41.1 11.4 35.6 L17.35 36.25" fill="#999999" fill-rule="evenodd" stroke="none"/>
      <path d="M6.7 35.15 L6.55 41.25 6.25 50.3 5.95 55.7 5.75 61.0 5.65 63.65 Q6.5 71.8 -2.35 71.45 -12.25 69.6 -12.3 63.5 L-12.3 59.8 -12.25 56.85 -12.3 51.4 -12.25 47.3 -12.3 43.05 -12.25 37.2 Q-10.05 40.25 -7.0 43.2 L-12.3 43.05 -7.0 43.2 -3.5 46.45 0.5 42.5 Q3.9 38.7 6.15 34.3 L6.7 35.15 M6.55 41.25 L0.5 42.5 6.55 41.25 M-6.85 52.55 L-12.3 51.4 -6.85 52.55 -12.25 47.3 -6.85 52.55 -1.55 52.75 Q3.1 52.45 6.25 50.3 3.1 52.45 -1.55 52.75 L-6.85 52.55 M-1.55 52.75 L5.95 55.7 -1.55 52.75 M5.75 61.0 Q-5.1 65.35 -12.25 56.85 -5.1 65.35 5.75 61.0" fill="#e0cdaa" fill-rule="evenodd" stroke="none"/>
      <path d="M71.1 46.15 Q67.0 59.4 57.0 70.8 49.1 63.65 44.55 55.65 58.0 51.8 71.1 46.15 M-12.25 37.2 Q-14.85 33.9 -16.35 30.45 L3.25 30.15 6.15 34.3 Q3.9 38.7 0.5 42.5 L-3.5 46.45 -7.0 43.2 Q-10.05 40.25 -12.25 37.2 M-33.55 21.15 L-39.65 31.4 -44.65 21.25 -33.55 21.15" fill="#898989" fill-rule="evenodd" stroke="none"/>
      <path d="M-16.35 30.45 L-17.2 30.45 Q-22.05 15.2 -23.7 1.25 L-20.3 5.25 Q-5.7 8.4 -2.75 -6.95 -4.95 -24.2 -15.75 -25.4 L-24.0 -21.9 Q-22.95 -33.1 -19.3 -43.2 L-15.2 -43.25 6.05 -43.6 Q-5.0 -11.85 8.6 30.05 L3.25 30.15 -16.35 30.45" fill="url(#gradient6)" fill-rule="evenodd" stroke="none"/>
      <path d="M8.0 75.85 L7.25 86.6 0.0 82.35 Q3.5 78.7 8.0 75.85 M-6.9 82.65 L-16.45 84.6 -14.35 73.75 Q-10.6 77.25 -6.9 82.65 M-37.1 -33.4 L-33.2 -39.0 -31.1 -35.8 -32.25 -33.5 -37.1 -33.4" fill="#cecece" fill-rule="evenodd" stroke="none"/>
      <path d="M-44.65 21.25 L-45.95 25.7 -52.45 31.45 -54.25 28.25 -57.9 20.55 -51.65 19.75 Q-50.15 20.9 -48.4 21.35 L-44.65 21.25 M-58.8 31.65 L-56.7 35.15 -67.35 44.5 -69.75 40.0 Q-91.95 -2.4 -74.4 -47.65 L-74.1 -48.4 -72.35 -52.6 -62.3 -45.2 -64.0 -41.1 Q-79.0 -3.15 -58.8 31.65 M-74.85 44.2 Q-73.7 45.55 -71.9 48.5 L-74.05 50.3 Q-79.9 55.75 -85.05 52.9 -87.2 51.75 -89.2 49.15 -114.75 8.15 -102.65 -35.55 L-94.65 -35.9 -100.9 -41.65 -98.75 -47.45 -94.85 -56.55 Q-93.2 -59.6 -91.1 -60.95 -87.1 -63.65 -81.55 -59.3 L-77.5 -56.35 -79.5 -52.0 -81.3 -47.6 Q-99.35 -0.9 -74.85 44.2 M-59.0 -37.5 L-57.4 -41.7 -52.15 -37.9 -51.85 -31.95 Q-54.15 -26.65 -55.25 -20.95 -58.05 -6.3 -55.35 8.65 L-59.25 16.9 Q-68.9 -9.4 -59.0 -37.5" fill="url(#gradient7)" fill-rule="evenodd" stroke="none"/>
      <path d="M-52.15 -37.9 L-52.5 -43.9 -39.3 -33.4 -36.1 -30.8 Q-34.85 -28.1 -42.85 -23.75 -51.3 -21.15 -51.45 -24.1 L-51.85 -31.95 -52.15 -37.9" fill="url(#gradient8)" fill-rule="evenodd" stroke="none"/>
      <path d="M-35.05 -17.2 L-24.0 -21.9 -15.75 -25.4 Q-4.95 -24.2 -2.75 -6.95 -5.7 8.4 -20.3 5.25 L-23.7 1.25 -35.05 -12.25 -38.15 -15.95 -35.05 -17.2" fill="url(#gradient9)" fill-rule="evenodd" stroke="none"/>
      <path d="M-55.35 8.65 L-53.15 4.05 Q-50.45 0.65 -43.55 7.55 -36.55 14.45 -41.95 18.7 L-51.65 19.75 -57.9 20.55 -61.3 20.95 -59.25 16.9 -55.35 8.65" fill="url(#gradient10)" fill-rule="evenodd" stroke="none"/>
      <path d="M67.35 -58.25 L76.35 -54.85 Q78.35 -53.85 78.3 -51.3 L81.85 -49.75 84.25 -51.85 95.8 -47.5 Q106.5 -40.65 106.6 -7.4 106.8 25.95 96.2 33.9 L86.25 39.2 83.95 37.15 80.3 38.6 Q80.4 42.4 78.95 42.7 L71.1 46.15 Q67.0 59.4 57.0 70.8 49.1 63.65 44.55 55.65 L35.45 57.95 Q25.5 50.6 19.55 36.4 L17.35 36.25 Q15.85 40.6 16.75 45.1 10.05 41.1 11.4 35.6 L6.7 35.15 6.55 41.25 6.25 50.3 5.95 55.7 5.75 61.0 11.6 67.9 9.4 74.85 Q8.6 75.3 8.0 75.85 L7.25 86.6 0.0 82.35 Q-2.2 84.6 -3.95 87.1 -5.35 84.75 -6.9 82.65 L-16.45 84.6 -14.35 73.75 -16.9 71.45 -18.95 63.85 -12.3 59.8 -12.25 56.85 -12.3 51.4 -12.25 47.3 -12.3 43.05 -12.25 37.2 Q-14.85 33.9 -16.35 30.45 L-17.2 30.45 -21.6 30.55 Q-26.2 28.95 -29.35 21.05 L-33.55 21.15 -39.65 31.4 -44.65 21.25 -45.95 25.7 -52.45 31.45 -54.25 28.25 -58.8 31.65 -56.7 35.15 -67.35 44.5 -69.75 40.0 -74.85 44.2 Q-73.7 45.55 -71.9 48.5 L-74.05 50.3 Q-79.9 55.75 -85.05 52.9 -87.2 51.75 -89.2 49.15 -114.75 8.15 -102.65 -35.55 L-94.65 -35.9 -100.9 -41.65 -98.75 -47.45 -94.85 -56.55 Q-93.2 -59.6 -91.1 -60.95 -87.1 -63.65 -81.55 -59.3 L-77.5 -56.35 -79.5 -52.0 -74.1 -48.4 -72.35 -52.6 -62.3 -45.2 -64.0 -41.1 -59.0 -37.5 -57.4 -41.7 -52.15 -37.9 -52.5 -43.9 -39.3 -33.4 -37.1 -33.4 -33.2 -39.0 -31.1 -35.8 Q-28.15 -41.15 -22.9 -43.15 L-19.3 -43.2 -15.2 -43.25 -13.35 -48.1 Q-9.15 -57.8 -2.1 -64.7 5.65 -58.05 11.95 -48.3 L14.7 -43.75 16.5 -48.3 Q22.85 -62.65 36.1 -70.05 L39.05 -68.95 Q47.55 -79.95 55.9 -87.05 63.2 -73.0 67.35 -58.25 L39.05 -68.95 M78.3 -51.3 L74.75 -52.85 Q73.45 -51.1 72.4 -48.75 71.6 -46.95 70.95 -44.85 66.7 -32.7 66.2 -10.45 66.25 15.5 71.65 30.1 73.7 35.4 76.25 39.2 L76.75 40.0 80.3 38.6 M75.25 -53.6 L74.75 -52.85 M14.7 -43.75 L6.05 -43.6 Q-5.0 -11.85 8.6 30.05 L17.05 29.95 Q12.2 15.0 10.85 -6.1 9.35 -28.4 14.7 -43.75 M24.05 -22.7 Q26.95 -35.4 32.0 -48.45 L35.2 -56.25 41.15 -48.5 57.95 -25.9 Q58.75 -12.05 38.1 -11.55 24.7 -14.2 24.05 -22.7 M83.95 37.15 L81.75 34.3 Q79.45 30.9 77.65 26.2 72.75 13.15 72.75 -10.0 73.2 -29.95 77.0 -40.85 78.6 -45.8 81.0 -48.8 L81.1 -48.95 81.85 -49.75 M88.85 -39.0 Q87.1 -36.7 85.95 -32.85 88.5 -24.1 89.4 -8.75 89.65 8.95 86.5 18.4 87.8 21.95 89.45 24.6 95.55 15.9 95.3 -8.25 93.85 -30.95 88.85 -39.0 90.2 -40.85 91.8 -41.7 93.45 -42.75 95.45 -42.75 M89.45 24.6 Q90.7 26.7 92.3 28.2 101.6 21.5 101.15 -7.7 99.5 -36.3 91.8 -41.7 M85.95 -32.85 Q83.35 -24.5 83.0 -9.3 83.1 8.4 86.5 18.4 M92.3 28.2 Q93.75 29.4 95.55 30.2 M41.6 15.8 Q28.8 15.8 27.5 19.35 32.35 37.2 39.3 53.3 50.15 39.1 59.5 23.3 56.0 17.6 41.6 15.8 M78.95 42.7 L78.5 42.25 M76.75 40.0 L77.7 41.3 M17.05 29.95 L19.55 36.4 M17.35 36.25 L11.4 35.6 M3.25 30.15 L8.6 30.05 M6.15 34.3 L3.25 30.15 -16.35 30.45 M6.7 35.15 L6.15 34.3 Q3.9 38.7 0.5 42.5 L6.55 41.25 M5.75 61.0 L5.65 63.65 Q6.5 71.8 -2.35 71.45 -12.25 69.6 -12.3 63.5 L-12.3 59.8 M0.0 82.35 Q3.5 78.7 8.0 75.85 M44.55 55.65 Q58.0 51.8 71.1 46.15 M-51.85 -31.95 L-52.15 -37.9 M-74.1 -48.4 L-74.4 -47.65 Q-91.95 -2.4 -69.75 40.0 M-39.3 -33.4 L-36.1 -30.8 Q-34.85 -28.1 -42.85 -23.75 -51.3 -21.15 -51.45 -24.1 L-51.85 -31.95 Q-54.15 -26.65 -55.25 -20.95 -58.05 -6.3 -55.35 8.65 L-53.15 4.05 Q-50.45 0.65 -43.55 7.55 -36.55 14.45 -41.95 18.7 L-51.65 19.75 Q-50.15 20.9 -48.4 21.35 L-44.65 21.25 -33.55 21.15 M-32.25 -33.5 L-37.1 -33.4 M-31.1 -35.8 L-32.25 -33.5 Q-34.9 -27.2 -35.05 -17.2 L-24.0 -21.9 Q-22.95 -33.1 -19.3 -43.2 M-29.35 21.05 Q-32.9 11.95 -34.5 -5.15 L-35.05 -12.25 -38.15 -15.95 -35.05 -17.2 M-23.7 1.25 L-20.3 5.25 Q-5.7 8.4 -2.75 -6.95 -4.95 -24.2 -15.75 -25.4 L-24.0 -21.9 M-74.85 44.2 Q-99.35 -0.9 -81.3 -47.6 L-79.5 -52.0 M-7.0 43.2 Q-10.05 40.25 -12.25 37.2 M-7.0 43.2 L-12.3 43.05 M0.5 42.5 L-3.5 46.45 -7.0 43.2 M-23.7 1.25 Q-22.05 15.2 -17.2 30.45 M-57.9 20.55 L-51.65 19.75 M-59.25 16.9 L-55.35 8.65 M-57.9 20.55 L-61.3 20.95 -59.25 16.9 Q-68.9 -9.4 -59.0 -37.5 M-54.25 28.25 L-57.9 20.55 M-12.25 47.3 L-6.85 52.55 -1.55 52.75 Q3.1 52.45 6.25 50.3 M-12.3 51.4 L-6.85 52.55 M-14.35 73.75 Q-10.6 77.25 -6.9 82.65 M-35.05 -12.25 L-23.7 1.25 M-58.8 31.65 Q-79.0 -3.15 -64.0 -41.1 M5.95 55.7 L-1.55 52.75 M-13.0 72.25 Q-3.8 79.0 4.35 74.85 M-12.25 56.85 Q-5.1 65.35 5.75 61.0 M6.05 -43.6 L-15.2 -43.25" fill="none" stroke="#000000" stroke-linecap="round" stroke-linejoin="round" stroke-opacity="0.4" stroke-width="0.7000000000000001"/>
      <path d="M35.1 -37.05 L37.3 -37.05 40.15 -36.7 35.35 -36.25 35.15 -36.05 37.3 -35.2 Q39.5 -34.45 40.2 -34.7 L40.4 -34.7 37.2 -33.45 34.45 -32.65 34.45 -32.05 38.65 -31.65 38.75 -31.6 38.9 -31.25 32.1 -30.4 Q32.75 -28.75 37.15 -28.45 L42.2 -27.9 46.15 -27.55 38.85 -26.35 31.65 -24.8 Q33.95 -23.6 37.0 -22.95 L37.25 -22.9 38.7 -22.85 Q44.0 -23.0 45.85 -25.15 L45.85 -24.95 43.55 -23.4 Q42.0 -22.5 40.4 -22.5 L37.25 -22.9 31.3 -22.8 31.1 -22.8 Q35.8 -19.95 38.55 -19.05 L43.35 -18.5 Q45.5 -18.5 47.0 -19.15" fill="none" stroke="#000000" stroke-linecap="round" stroke-linejoin="round" stroke-opacity="0.2" stroke-width="0.7000000000000001"/>
      <path d="M36.55 21.95 L40.45 21.7 45.8 22.25 Q47.4 22.7 50.45 24.85 L43.0 23.9 40.0 23.95 Q42.15 23.95 46.8 25.35 L53.1 27.25 44.0 26.3 Q40.55 25.5 37.45 25.55 L34.45 25.75 34.25 25.75 Q38.75 26.5 42.4 28.05 43.95 28.7 46.4 30.1 L46.4 30.3 38.95 29.35 43.15 29.9 Q43.0 30.6 41.85 30.9 L40.6 31.15 43.2 32.1 Q45.5 32.75 45.85 33.1 L46.05 33.3 43.0 33.2 39.65 32.75 38.45 32.75 38.25 32.95 41.5 34.3 Q43.95 35.35 44.35 35.7 L42.0 35.95 40.35 36.35 M39.8 23.95 L36.2 24.35 36.4 23.95 39.8 23.95 40.0 23.95" fill="none" stroke="#000000" stroke-linecap="round" stroke-linejoin="round" stroke-opacity="0.2" stroke-width="0.7000000000000001"/>
      <path d="M-27.85 -13.15 Q-26.9 -14.6 -26.9 -16.2 L-26.45 -13.2 Q-25.75 -13.85 -25.1 -15.5 L-24.35 -17.8 -24.35 -18.0 Q-23.0 -15.95 -22.0 -12.3 -21.45 -10.2 -21.35 -8.8 L-21.15 -16.8 -21.15 -17.0 -20.15 -14.6 Q-19.4 -12.85 -19.4 -12.25 L-19.4 -12.05 -19.15 -17.65 -19.15 -17.85 Q-18.1 -15.8 -17.05 -12.35 -16.1 -9.0 -16.05 -7.45 L-16.15 -13.05 Q-16.25 -17.8 -17.0 -18.85 L-17.0 -19.05 Q-14.05 -14.8 -12.75 -12.3 L-11.85 -10.25 -12.3 -15.4 -12.55 -16.7 -12.5 -16.5 -12.3 -15.4 -11.2 -12.9 M-21.4 -7.05 L-21.45 -6.8 -21.45 -7.0 -21.4 -7.05 Q-21.3 -7.75 -21.35 -8.8 M-11.85 -10.25 Q-11.3 -8.7 -11.25 -7.4 L-11.55 -2.5 -11.85 -10.25" fill="none" stroke="#000000" stroke-linecap="round" stroke-linejoin="round" stroke-opacity="0.2" stroke-width="0.7000000000000001"/>
    </g>
    <linearGradient gradientTransform="matrix(0.0, 0.04, -0.0565, 0.0, 81.05, -10.9)" gradientUnits="userSpaceOnUse" id="gradient0" spreadMethod="pad" x1="-819.2" x2="819.2">
      <stop offset="0.0" stop-color="#990000"/>
      <stop offset="0.7607843137254902" stop-color="#0a0a0a"/>
    </linearGradient>
    <linearGradient gradientTransform="matrix(0.0114, 0.0029, -0.0041, 0.0171, 52.95, -72.6)" gradientUnits="userSpaceOnUse" id="gradient1" spreadMethod="pad" x1="-819.2" x2="819.2">
      <stop offset="0.0" stop-color="#dbdbdb"/>
      <stop offset="0.9607843137254902" stop-color="#969696"/>
    </linearGradient>
    <linearGradient gradientTransform="matrix(0.0096, -1.0E-4, 7.0E-4, 0.0273, 38.0, -33.45)" gradientUnits="userSpaceOnUse" id="gradient2" spreadMethod="pad" x1="-819.2" x2="819.2">
      <stop offset="0.0" stop-color="#dbdbdb"/>
      <stop offset="0.9607843137254902" stop-color="#969696"/>
    </linearGradient>
    <linearGradient gradientTransform="matrix(6.0E-4, 0.0207, -0.0452, 3.0E-4, -6.15, 0.35)" gradientUnits="userSpaceOnUse" id="gradient3" spreadMethod="pad" x1="-819.2" x2="819.2">
      <stop offset="0.0" stop-color="#999999"/>
      <stop offset="0.9607843137254902" stop-color="#666666"/>
    </linearGradient>
    <linearGradient gradientTransform="matrix(0.0031, 0.0103, -0.0125, 0.0035, 1.25, -46.55)" gradientUnits="userSpaceOnUse" id="gradient4" spreadMethod="pad" x1="-819.2" x2="819.2">
      <stop offset="0.0" stop-color="#cecece"/>
      <stop offset="0.9607843137254902" stop-color="#666666"/>
    </linearGradient>
    <linearGradient gradientTransform="matrix(0.0076, -1.0E-4, 6.0E-4, 0.0229, 38.5, 34.75)" gradientUnits="userSpaceOnUse" id="gradient5" spreadMethod="pad" x1="-819.2" x2="819.2">
      <stop offset="0.0" stop-color="#dbdbdb"/>
      <stop offset="0.9607843137254902" stop-color="#969696"/>
    </linearGradient>
    <linearGradient gradientTransform="matrix(5.0E-4, 0.0187, -0.0452, 3.0E-4, -6.15, 0.35)" gradientUnits="userSpaceOnUse" id="gradient6" spreadMethod="pad" x1="-819.2" x2="819.2">
      <stop offset="0.0" stop-color="#7c7c7c"/>
      <stop offset="0.9607843137254902" stop-color="#424242"/>
    </linearGradient>
    <linearGradient gradientTransform="matrix(0.0014, 0.0492, -0.0593, 4.0E-4, -69.95, -4.05)" gradientUnits="userSpaceOnUse" id="gradient7" spreadMethod="pad" x1="-819.2" x2="819.2">
      <stop offset="0.0" stop-color="#595959"/>
      <stop offset="0.9607843137254902" stop-color="#1e1e1e"/>
    </linearGradient>
    <linearGradient gradientTransform="matrix(-0.0038, 0.0036, -0.009, -0.0096, -46.4, -32.15)" gradientUnits="userSpaceOnUse" id="gradient8" spreadMethod="pad" x1="-819.2" x2="819.2">
      <stop offset="0.0" stop-color="#dbdbdb"/>
      <stop offset="0.9607843137254902" stop-color="#969696"/>
    </linearGradient>
    <linearGradient gradientTransform="matrix(-9.0E-4, 0.0088, -0.0189, -0.0023, -19.0, -1.85)" gradientUnits="userSpaceOnUse" id="gradient9" spreadMethod="pad" x1="-819.2" x2="819.2">
      <stop offset="0.0" stop-color="#cecece"/>
      <stop offset="0.9607843137254902" stop-color="#666666"/>
    </linearGradient>
    <linearGradient gradientTransform="matrix(0.0021, 0.0071, -0.0105, 0.0029, -50.0, 15.5)" gradientUnits="userSpaceOnUse" id="gradient10" spreadMethod="pad" x1="-819.2" x2="819.2">
      <stop offset="0.0" stop-color="#cecece"/>
      <stop offset="0.9607843137254902" stop-color="#333333"/>
    </linearGradient>
    <g id="shape2" transform="matrix(1.0, 0.0, 0.0, 1.0, 5.1, 28.75)">
      <path d="M-3.95 -22.85 Q-1.0 -21.95 0.6 -21.95 L1.7 -22.05 2.7 -22.3 2.65 -22.4 1.5 -22.8 1.65 -22.85 1.6 -22.95 -2.4 -24.25 Q-2.35 -24.95 -1.8 -25.55 -1.15 -26.35 0.3 -27.05 1.7 -27.75 3.45 -27.65 L5.8 -27.55 7.3 -27.35 7.3 -27.05 Q7.3 -26.1 7.45 -25.3 7.55 -24.75 8.6 -24.65 L13.8 -23.3 14.0 -23.25 21.65 -21.85 26.3 -22.1 31.15 -22.9 31.4 -22.95 36.4 -24.05 36.85 -24.1 39.4 -23.65 Q40.35 -22.8 40.9 -20.45 L40.9 -20.4 Q41.45 -18.45 41.4 -17.05 L41.25 -15.2 Q40.85 -14.45 39.05 -13.4 L38.5 -13.1 35.45 -12.55 34.7 -12.4 33.9 -12.25 33.8 -12.2 33.7 -12.2 33.0 -12.1 32.5 -11.95 32.55 -11.75 33.2 -11.55 33.4 -11.55 33.75 -11.5 34.7 -11.5 36.95 -11.6 37.65 -11.55 38.25 -10.1 Q38.55 -8.85 38.5 -6.1 38.4 -3.3 37.95 -2.15 37.25 -0.6 35.4 -0.1 L31.85 0.35 29.8 0.3 29.7 0.5 30.65 1.65 Q31.0 1.95 31.55 2.1 L31.6 2.1 31.7 2.15 31.8 2.25 31.9 2.5 31.85 2.8 Q32.05 3.1 32.6 3.25 L34.7 3.8 34.75 4.4 34.35 10.1 34.05 11.0 33.25 12.5 32.5 13.4 Q27.4 15.2 21.7 14.4 L14.7 14.3 13.0 14.3 8.5 13.85 4.45 13.05 3.4 12.75 1.6 12.35 Q-0.6 11.3 -1.4 11.2 -1.65 10.95 -2.05 10.95 L-4.9 11.55 Q-5.25 2.25 -4.95 -7.0 -4.75 -15.05 -3.95 -22.85" fill="#999999" fill-rule="evenodd" stroke="none"/>
      <path d="M-3.95 -22.85 L-3.7 -25.1 -3.4 -25.75 -2.25 -27.1 -1.5 -27.65 Q3.05 -29.4 6.9 -28.4 L8.15 -28.0 8.2 -27.9 8.1 -27.05 8.15 -26.3 8.2 -25.6 8.6 -25.5 13.95 -24.9 14.15 -24.8 Q18.1 -23.65 21.65 -23.4 L26.3 -23.6 26.6 -23.65 31.2 -24.45 31.4 -24.5 34.6 -25.3 39.45 -25.45 Q40.8 -24.8 41.8 -22.3 L42.4 -20.4 42.7 -18.6 42.6 -15.9 Q42.65 -14.9 41.1 -13.45 40.35 -12.85 39.2 -12.3 L39.35 -12.25 Q40.35 -11.95 41.15 -11.15 L41.95 -9.9 42.45 -7.4 42.45 -5.1 Q42.4 -0.3 40.6 1.25 39.15 2.55 35.15 2.5 L33.2 2.4 33.2 2.5 33.4 2.5 33.95 2.6 35.1 2.85 Q37.85 3.35 38.15 4.3 38.45 6.1 38.4 7.9 L38.15 10.7 37.95 12.45 Q37.0 15.05 35.05 16.3 31.8 17.75 28.0 17.6 22.25 17.35 16.45 17.4 L12.15 17.25 8.15 16.7 5.75 16.2 4.35 15.9 1.25 14.95 -0.55 14.1 -2.15 14.7 -5.0 15.2 -4.85 13.2 -0.95 12.4 Q-0.55 12.4 -0.3 12.65 0.55 12.75 2.8 13.8 L4.65 14.25 5.75 14.6 10.05 15.35 14.75 15.8 16.5 15.85 23.8 15.95 Q29.75 16.8 35.05 14.95 L35.85 14.0 36.7 12.4 36.9 11.55 37.35 5.7 Q37.35 4.65 36.95 4.35 L35.45 3.95 34.7 3.8 32.6 3.25 Q32.05 3.1 31.85 2.8 L31.9 2.5 31.8 2.25 31.85 2.2 31.7 2.15 31.6 2.1 31.0 1.8 30.9 1.65 34.35 1.55 38.05 1.1 Q39.95 0.5 40.7 -1.05 41.2 -2.2 41.25 -5.1 41.3 -7.9 40.95 -9.2 40.4 -11.6 38.55 -11.6 L37.65 -11.55 36.95 -11.6 34.7 -11.5 33.75 -11.5 33.4 -11.55 33.2 -11.55 32.55 -11.75 32.5 -11.95 33.0 -12.1 33.7 -12.2 33.8 -12.2 33.9 -12.25 34.7 -12.4 35.45 -12.55 38.5 -13.1 39.05 -13.4 Q40.85 -14.45 41.25 -15.2 L41.4 -17.05 Q41.45 -18.45 40.9 -20.4 L40.9 -20.45 Q40.35 -22.8 39.4 -23.65 L36.85 -24.1 36.4 -24.05 31.4 -22.95 31.15 -22.9 26.3 -22.1 21.65 -21.85 14.0 -23.25 13.8 -23.3 8.6 -24.65 Q7.55 -24.75 7.45 -25.3 7.3 -26.1 7.3 -27.05 L7.3 -27.35 5.8 -27.55 3.45 -27.65 Q1.7 -27.75 0.3 -27.05 -1.15 -26.35 -1.8 -25.55 -2.35 -24.95 -2.4 -24.25 L-2.4 -24.05 Q-0.65 -23.45 1.5 -22.8 L2.65 -22.4 2.7 -22.3 1.7 -22.05 0.6 -21.95 Q-1.0 -21.95 -3.95 -22.85" fill="#000000" fill-rule="evenodd" stroke="none"/>
      <path d="M1.5 -22.8 Q-0.65 -23.45 -2.4 -24.05 L-2.4 -24.25 1.6 -22.95 1.65 -22.85 1.5 -22.8 M37.65 -11.55 L38.55 -11.6 Q40.4 -11.6 40.95 -9.2 41.3 -7.9 41.25 -5.1 41.2 -2.2 40.7 -1.05 39.95 0.5 38.05 1.1 L34.35 1.55 30.9 1.65 31.0 1.8 31.6 2.1 31.55 2.1 Q31.0 1.95 30.65 1.65 L29.7 0.5 29.8 0.3 31.85 0.35 35.4 -0.1 Q37.25 -0.6 37.95 -2.15 38.4 -3.3 38.5 -6.1 38.55 -8.85 38.25 -10.1 L37.65 -11.55 M31.7 2.15 L31.85 2.2 31.8 2.25 31.7 2.15 M34.7 3.8 L35.45 3.95 36.95 4.35 Q37.35 4.65 37.35 5.7 L36.9 11.55 36.7 12.4 35.85 14.0 35.05 14.95 Q29.75 16.8 23.8 15.95 L16.5 15.85 14.75 15.8 10.05 15.35 5.75 14.6 4.65 14.25 2.8 13.8 Q0.55 12.75 -0.3 12.65 -0.55 12.4 -0.95 12.4 L-4.85 13.2 -4.85 12.65 -4.9 11.55 -2.05 10.95 Q-1.65 10.95 -1.4 11.2 -0.6 11.3 1.6 12.35 L3.4 12.75 4.45 13.05 8.5 13.85 13.0 14.3 14.7 14.3 21.7 14.4 Q27.4 15.2 32.5 13.4 L33.25 12.5 34.05 11.0 34.35 10.1 34.75 4.4 34.7 3.8" fill="#bdbdbd" fill-rule="evenodd" stroke="none"/>
    </g>
  </defs>
</svg>
