<?xml version="1.0" encoding="UTF-8" standalone="no"?>
<svg xmlns:xlink="http://www.w3.org/1999/xlink" height="531.5px" width="460.6px" xmlns="http://www.w3.org/2000/svg">
  <g transform="matrix(1.0, 0.0, 0.0, 1.0, 193.65, 334.05)">
    <use height="99.75" transform="matrix(1.1704, 1.2603, -1.2603, 1.1704, 45.6675, -100.6731)" width="91.95" xlink:href="#sprite0"/>
    <use height="97.55" transform="matrix(1.0, 0.0, 0.0, 1.0, -71.1, -58.25)" width="58.2" xlink:href="#shape1"/>
  </g>
  <defs>
    <g id="sprite0" transform="matrix(1.0, 0.0, 0.0, 1.0, 0.75, 0.75)">
      <use height="99.75" transform="matrix(1.0, 0.0, 0.0, 1.0, -0.75, -0.75)" width="91.95" xlink:href="#shape0"/>
    </g>
    <g id="shape0" transform="matrix(1.0, 0.0, 0.0, 1.0, 0.75, 0.75)">
      <path d="M87.05 19.6 L87.0 19.65 Q85.2 21.45 82.9 21.85 L81.75 22.2 Q76.9 12.4 65.15 8.7 52.45 4.6 41.1 11.35 29.7 18.05 27.5 30.25 L27.1 33.05 25.05 33.35 18.95 33.2 Q19.2 27.65 21.2 22.35 24.75 13.7 33.6 6.7 44.85 -2.6 62.9 1.05 75.3 4.55 82.75 13.15 85.3 16.0 87.05 19.6 M83.55 26.55 L89.9 28.75 90.25 31.35 Q91.1 38.6 88.3 45.1 87.25 36.25 83.55 26.55 M23.6 65.85 L28.85 60.15 23.1 52.15 23.1 52.1 21.8 50.1 Q19.85 45.0 19.2 40.05 L20.9 39.15 21.5 38.9 26.95 37.15 Q27.15 45.45 31.65 53.0 33.5 56.15 35.9 58.85 L35.95 58.9 Q36.55 59.95 36.55 61.35 36.55 62.45 36.05 63.3 L35.75 63.8 33.25 67.1 32.55 67.8 Q30.8 69.85 28.35 71.6 L24.2 66.6 24.1 66.45 23.6 65.85" fill="#a2a2a2" fill-rule="evenodd" stroke="none"/>
      <path d="M81.75 22.2 L82.9 21.85 Q85.2 21.45 87.0 19.65 L87.05 19.6 Q88.35 22.3 89.15 25.4 L89.9 28.75 83.55 26.55 82.5 23.9 82.3 23.4 81.75 22.2 M18.95 33.2 L25.05 33.35 27.1 33.05 26.95 35.35 26.95 37.15 21.5 38.9 20.9 39.15 19.2 40.05 19.0 37.95 Q18.8 35.55 18.95 33.2" fill="#dddddd" fill-rule="evenodd" stroke="none"/>
      <path d="M81.75 22.2 L82.3 23.4 82.5 23.9 83.55 26.55 Q82.5 25.9 81.05 25.5 L78.65 24.8 76.7 22.3 76.65 22.2 77.05 22.3 80.5 22.25 81.75 22.2 M31.35 31.75 Q30.95 33.35 30.85 35.0 L30.8 36.2 28.9 36.6 26.95 37.15 26.95 35.35 27.1 33.05 29.85 32.3 31.35 31.75" fill="#eaeaea" fill-rule="evenodd" stroke="none"/>
      <path d="M27.1 33.05 L27.5 30.25 Q29.7 18.05 41.1 11.35 52.45 4.6 65.15 8.7 76.9 12.4 81.75 22.2 L80.5 22.25 77.05 22.3 76.65 22.2 Q73.5 18.55 68.9 15.9 59.0 9.2 47.35 13.0 37.45 15.9 32.8 27.15 31.85 29.45 31.35 31.75 L29.85 32.3 27.1 33.05 M78.65 24.8 L81.05 25.5 Q82.5 25.9 83.55 26.55 87.25 36.25 88.3 45.1 86.7 48.7 84.0 52.1 87.3 41.95 80.75 28.55 L78.65 24.8 M30.8 36.2 Q30.65 42.6 34.15 48.7 38.55 56.1 44.15 61.35 L29.9 73.5 28.35 71.6 Q30.8 69.85 32.55 67.8 L33.25 67.1 35.75 63.8 36.05 63.3 Q36.55 62.45 36.55 61.35 36.55 59.95 35.95 58.9 L35.9 58.85 Q33.5 56.15 31.65 53.0 27.15 45.45 26.95 37.15 L28.9 36.6 30.8 36.2" fill="#bbbbbb" fill-rule="evenodd" stroke="none"/>
      <path d="M29.9 73.5 L31.55 76.1 28.9 76.2 Q25.05 76.05 22.0 73.6 L19.5 70.45 19.4 69.05 19.55 67.95 19.65 67.2 Q20.45 65.85 21.9 65.85 23.05 65.6 23.6 65.85 L24.1 66.45 24.15 66.55 24.2 66.6 28.35 71.6 29.9 73.5" fill="#bfb020" fill-rule="evenodd" stroke="none"/>
      <path d="M19.25 70.1 L17.7 68.1 Q17.85 62.45 22.8 64.7 L23.6 65.85 Q23.05 65.6 21.9 65.85 20.45 65.85 19.65 67.2 L19.55 67.95 19.25 70.1" fill="#e3d22d" fill-rule="evenodd" stroke="none"/>
      <path d="M26.8 79.8 L25.45 79.2 Q23.3 79.25 21.65 80.8 L20.8 81.5 17.95 85.2 14.9 89.0 11.75 92.1 8.15 94.8 4.1 97.35 2.1 98.25 1.7 98.0 1.4 97.8 0.55 96.85 3.15 94.95 4.35 93.8 6.8 92.35 10.65 89.35 Q12.4 87.7 13.85 85.65 15.15 83.85 16.8 82.0 18.6 79.9 20.9 78.2 L21.35 77.8 20.95 76.85 18.45 72.6 17.75 71.65 19.25 70.1 19.5 70.45 22.0 73.6 26.8 79.8" fill="#30160c" fill-rule="evenodd" stroke="none"/>
      <path d="M0.45 96.65 Q-0.25 93.9 0.15 91.1 L0.35 89.95 17.75 71.65 18.45 72.6 17.65 73.7 Q14.75 77.4 11.3 80.75 7.9 84.0 5.2 88.0 2.35 92.2 0.45 96.65" fill="#9c4a27" fill-rule="evenodd" stroke="none"/>
      <path d="M0.55 96.85 L0.45 96.65 Q2.35 92.2 5.2 88.0 7.9 84.0 11.3 80.75 14.75 77.4 17.65 73.7 L18.45 72.6 20.95 76.85 21.35 77.8 20.9 78.2 Q18.6 79.9 16.8 82.0 15.15 83.85 13.85 85.65 12.4 87.7 10.65 89.35 L6.8 92.35 4.35 93.8 3.15 94.95 0.55 96.85" fill="#522614" fill-rule="evenodd" stroke="none"/>
      <path d="M31.55 76.1 L32.1 76.95 Q32.45 82.1 27.15 80.15 L26.85 79.8 26.8 79.8 22.0 73.6 Q25.05 76.05 28.9 76.2 L31.55 76.1" fill="#7a7404" fill-rule="evenodd" stroke="none"/>
      <path d="M87.05 19.6 Q85.3 16.0 82.75 13.15 75.3 4.55 62.9 1.05 44.85 -2.6 33.6 6.7 24.75 13.7 21.2 22.35 19.2 27.65 18.95 33.2 18.8 35.55 19.0 37.95 L19.2 40.05 Q19.85 45.0 21.8 50.1 L23.1 52.1 23.1 52.15 28.85 60.15 23.6 65.85 22.8 64.7 Q17.85 62.45 17.7 68.1 L19.25 70.1 17.75 71.65 0.35 89.95 0.15 91.1 Q-0.25 93.9 0.45 96.65 L0.55 96.85 1.4 97.8 1.7 98.0 2.1 98.25 4.1 97.35 8.15 94.8 11.75 92.1 14.9 89.0 17.95 85.2 20.8 81.5 21.65 80.8 Q23.3 79.25 25.45 79.2 L26.8 79.8 26.85 79.8 27.05 80.1 27.15 80.15 26.85 79.8 M89.9 28.75 L89.15 25.4 Q88.35 22.3 87.05 19.6 M88.3 45.1 Q91.1 38.6 90.25 31.35 L89.9 28.75 M88.3 45.1 Q86.7 48.7 84.0 52.1 87.3 41.95 80.75 28.55 L78.65 24.8 76.7 22.3 76.65 22.2 Q73.5 18.55 68.9 15.9 59.0 9.2 47.35 13.0 37.45 15.9 32.8 27.15 31.85 29.45 31.35 31.75 30.95 33.35 30.85 35.0 L30.8 36.2 Q30.65 42.6 34.15 48.7 38.55 56.1 44.15 61.35 L29.9 73.5 31.55 76.1 32.1 76.95 Q32.45 82.1 27.15 80.15 M28.35 71.6 L29.9 73.5 M24.2 66.6 L24.1 66.45 M24.2 66.6 L28.35 71.6 M19.5 70.45 L22.0 73.6 26.8 79.8 M19.5 70.45 L19.25 70.1" fill="none" stroke="#000000" stroke-linecap="round" stroke-linejoin="round" stroke-opacity="0.6627451" stroke-width="1.5"/>
    </g>
    <g id="shape1" transform="matrix(1.0, 0.0, 0.0, 1.0, 72.6, 57.95)">
      <path d="M-54.85 -57.25 L-54.85 -56.8 -54.85 -56.75 Q-54.55 -57.25 -55.05 -56.0 L-56.45 -52.8 -59.5 -46.0 Q-63.4 -37.2 -65.6 -30.9 -67.85 -24.7 -69.4 -18.9 -70.1 -16.55 -70.3 -14.15 L-70.75 -7.5 Q-71.0 -3.25 -70.0 2.3 L-67.5 15.1 Q-65.95 22.35 -64.85 25.45 -63.85 28.3 -62.2 30.55 L-62.0 30.8 Q-61.4 31.6 -60.5 32.2 -58.9 33.15 -56.4 33.5 L-56.1 33.55 -56.6 32.8 Q-57.5 31.35 -57.5 30.35 L-57.15 29.55 Q-56.9 29.2 -54.1 33.25 -51.35 37.3 -48.5 37.25 -45.7 37.15 -44.05 35.9 L-43.25 35.4 -42.7 35.1 -42.6 35.05 -42.65 35.0 -42.8 34.4 -42.85 34.1 -42.7 33.05 -42.4 32.8 -39.9 35.15 Q-36.8 37.1 -34.55 37.15 -32.95 37.2 -31.9 36.6 L-31.15 36.05 -30.8 35.65 -29.95 34.3 -29.95 34.25 -30.45 31.5 -30.55 28.95 -30.55 27.0 -30.4 25.5 -30.05 24.55 -28.5 22.3 -27.85 21.35 Q-27.25 20.45 -27.3 18.7 L-27.35 15.75 -26.5 10.1 Q-26.4 9.3 -25.5 8.5 L-23.85 7.3 Q-21.6 6.0 -19.3 5.6 L-18.65 5.5 -18.65 5.45 -18.05 5.2 Q-17.8 5.0 -17.8 4.55 L-18.2 3.0 -18.35 2.7 -19.2 0.05 -19.25 -0.1 -20.05 -1.95 Q-20.55 -2.75 -21.25 -2.75 L-23.0 -2.7 -24.45 -2.75 -24.65 -3.3 Q-25.35 -4.7 -25.8 -7.15 L-26.3 -11.0 Q-26.3 -12.3 -25.55 -15.55 L-24.95 -18.05 Q-23.8 -21.7 -21.65 -26.7 L-15.55 -40.5 -15.4 -40.9 -14.85 -40.55 -14.7 -40.4 Q-14.4 -40.0 -14.4 -39.15 L-19.65 -28.05 Q-24.9 -15.95 -24.9 -10.05 L-24.4 -6.15 -23.95 -4.35 -23.85 -4.1 -21.55 -4.4 -19.2 -4.1 -18.4 -2.7 Q-17.05 -0.05 -16.5 2.95 L-16.35 3.6 Q-16.0 5.3 -16.0 5.9 -16.0 6.8 -16.6 7.05 L-18.95 7.55 Q-20.7 7.8 -22.45 8.75 -24.25 9.65 -24.7 11.4 -25.25 13.1 -25.45 15.7 L-25.7 20.15 Q-25.75 22.05 -26.95 23.65 -28.2 25.25 -28.55 26.55 L-28.25 29.65 Q-28.25 30.95 -27.6 32.85 L-27.2 34.05 -27.3 35.0 -27.7 35.75 -27.75 35.9 -27.85 35.95 Q-28.4 36.85 -29.8 37.95 -32.0 39.6 -33.7 39.6 -37.65 39.6 -40.55 37.35 L-40.9 37.05 -42.5 37.9 Q-45.45 39.4 -47.15 39.4 L-47.45 39.4 Q-49.0 39.35 -50.45 38.7 -52.7 37.75 -54.7 35.4 L-54.7 35.35 -54.9 35.45 -55.35 35.55 -56.4 35.6 Q-63.8 35.6 -66.9 25.1 L-68.35 19.8 -69.6 14.15 -71.3 3.65 Q-72.6 -3.8 -72.6 -7.45 -72.6 -11.15 -71.25 -16.95 -69.9 -22.8 -62.4 -42.5 -55.55 -60.65 -54.9 -57.45 L-54.85 -57.25" fill="#000000" fill-rule="evenodd" stroke="none"/>
      <path d="M-60.5 32.2 Q-61.4 31.6 -62.0 30.8 L-62.2 30.55 Q-63.85 28.3 -64.85 25.45 -65.95 22.35 -67.5 15.1 L-70.0 2.3 Q-71.0 -3.25 -70.75 -7.5 L-70.3 -14.15 Q-70.1 -16.55 -69.4 -18.9 -67.85 -24.7 -65.6 -30.9 -63.4 -37.2 -59.5 -46.0 L-56.45 -52.8 -55.05 -56.0 Q-54.55 -57.25 -54.85 -56.75 L-54.85 -56.8 -54.85 -57.25 -54.65 -57.25 -53.55 -57.3 -53.6 -57.2 -55.15 -53.2 -57.25 -48.05 Q-60.85 -38.85 -62.9 -32.25 -65.0 -25.75 -66.45 -19.7 -67.15 -17.25 -67.3 -14.7 L-67.85 -7.75 Q-68.1 -3.3 -67.25 2.5 L-65.15 15.85 Q-63.85 23.45 -62.95 26.7 L-61.65 30.15 -60.5 32.2 M-15.55 -40.5 L-21.65 -26.7 Q-23.8 -21.7 -24.95 -18.05 L-25.55 -15.55 Q-26.3 -12.3 -26.3 -11.0 L-25.8 -7.15 Q-25.35 -4.7 -24.65 -3.3 L-24.45 -2.75 -26.2 -2.8 -26.4 -3.35 Q-27.05 -4.85 -27.4 -7.4 L-27.8 -11.45 Q-27.8 -12.8 -27.05 -16.2 L-26.5 -18.8 -23.45 -27.85 -17.55 -43.1 -15.55 -40.5 M-23.0 -2.7 L-21.25 -2.75 Q-20.55 -2.75 -20.05 -1.95 L-19.25 -0.1 -19.2 0.05 -18.35 2.7 -18.2 3.0 -17.8 4.55 Q-17.8 5.0 -18.05 5.2 L-18.65 5.45 -18.65 5.5 -19.3 5.6 Q-21.6 6.0 -23.85 7.3 L-25.5 8.5 Q-26.4 9.3 -26.5 10.1 L-27.35 15.75 -27.3 18.7 Q-27.25 20.45 -27.85 21.35 L-28.5 22.3 -30.05 24.55 -30.4 25.5 -30.55 27.0 -30.55 28.95 -30.45 31.5 -29.95 34.25 -29.95 34.3 -30.8 35.65 -31.15 36.05 -31.9 36.6 -31.65 35.95 -31.65 35.9 -31.7 35.25 -32.0 33.05 -32.1 30.35 -32.05 28.3 Q-32.05 26.65 -31.6 25.75 L-31.25 25.1 -29.6 22.4 -29.4 21.9 Q-29.05 21.0 -29.05 19.65 L-29.1 16.55 -28.25 10.65 Q-28.1 9.45 -26.35 8.1 L-25.85 7.7 Q-23.5 6.15 -21.1 5.85 L-21.1 5.8 -20.6 5.5 -20.4 5.2 -20.35 4.85 -20.75 3.2 -20.8 2.9 -21.6 0.15 -21.6 -0.05 -22.3 -1.95 -23.0 -2.7 M-42.8 34.4 L-42.65 35.0 -42.6 35.05 -42.7 35.1 -43.25 35.4 -43.1 34.7 -43.1 34.65 -43.05 34.6 -42.85 34.4 -42.8 34.4" fill="#bdbdbd" fill-rule="evenodd" stroke="none"/>
      <path d="M-24.45 -2.75 L-23.0 -2.7 -22.3 -1.95 -21.6 -0.05 -21.6 0.15 -20.8 2.9 -20.75 3.2 -20.35 4.85 -20.4 5.2 -20.6 5.5 -21.1 5.8 -21.1 5.85 Q-23.5 6.15 -25.85 7.7 L-26.35 8.1 Q-28.1 9.45 -28.25 10.65 L-29.1 16.55 -29.05 19.65 Q-29.05 21.0 -29.4 21.9 L-29.6 22.4 -31.25 25.1 -31.6 25.75 Q-32.05 26.65 -32.05 28.3 L-32.1 30.35 -32.0 33.05 -31.7 35.25 -31.65 35.9 -31.65 35.95 -31.9 36.6 Q-32.95 37.2 -34.55 37.15 -36.8 37.1 -39.9 35.15 L-42.4 32.8 -42.7 33.05 -42.85 34.1 -42.8 34.4 -42.85 34.4 -43.05 34.6 -43.1 34.65 -43.1 34.7 -43.25 35.4 -44.05 35.9 Q-45.7 37.15 -48.5 37.25 -51.35 37.3 -54.1 33.25 -56.9 29.2 -57.15 29.55 L-57.5 30.35 Q-57.5 31.35 -56.6 32.8 L-56.1 33.55 -56.4 33.5 Q-58.9 33.15 -60.5 32.2 L-61.65 30.15 -62.95 26.7 Q-63.85 23.45 -65.15 15.85 L-67.25 2.5 Q-68.1 -3.3 -67.85 -7.75 L-67.3 -14.7 Q-67.15 -17.25 -66.45 -19.7 -65.0 -25.75 -62.9 -32.25 -60.85 -38.85 -57.25 -48.05 L-55.15 -53.2 -53.6 -57.2 -53.55 -57.3 Q-29.45 -57.6 -17.55 -43.1 L-23.45 -27.85 -26.5 -18.8 -27.05 -16.2 Q-27.8 -12.8 -27.8 -11.45 L-27.4 -7.4 Q-27.05 -4.85 -26.4 -3.35 L-26.2 -2.8 -24.45 -2.75" fill="#999999" fill-rule="evenodd" stroke="none"/>
    </g>
  </defs>
</svg>
