<?xml version="1.0" encoding="UTF-8" standalone="no"?>
<svg xmlns:xlink="http://www.w3.org/1999/xlink" height="531.5px" width="460.6px" xmlns="http://www.w3.org/2000/svg">
  <g transform="matrix(1.0, 0.0, 0.0, 1.0, 193.65, 334.05)">
    <use height="120.65" transform="matrix(1.0, 0.0, 0.0, 1.0, -72.75, -58.3)" width="89.6" xlink:href="#shape0"/>
  </g>
  <defs>
    <g id="shape0" transform="matrix(1.0, 0.0, 0.0, 1.0, 72.75, 58.3)">
      <path d="M-59.5 31.7 Q-64.05 30.8 -68.85 29.1 -73.65 27.55 -71.65 22.2 L-59.15 -10.15 Q-57.1 -15.4 -52.5 -13.35 -47.8 -11.35 -43.75 -8.95 L-59.5 31.7 M0.4 10.1 Q3.95 13.1 1.9 19.8 L1.45 21.05 -5.8 40.0 -6.3 41.1 Q-8.9 40.4 -11.45 41.0 L0.4 10.1 M-12.75 44.45 L-12.15 44.15 Q-9.9 43.2 -7.7 43.65 -10.3 47.5 -13.85 47.4 L-12.75 44.45" fill="#ffffff" fill-rule="evenodd" stroke="none"/>
      <path d="M-2.1 43.3 Q-0.35 44.75 0.6 47.0 2.4 51.0 0.85 55.05 -0.75 59.1 -4.75 60.9 -8.75 62.7 -12.8 61.1 -16.85 59.55 -18.65 55.5 -20.4 51.5 -18.8 47.45 L-18.1 46.0 Q-16.5 43.05 -13.3 41.6 L-11.45 41.0 Q-8.9 40.4 -6.3 41.1 L-5.2 41.45 Q-3.4 42.15 -2.1 43.3 M-15.6 47.15 L-16.2 48.45 Q-17.35 51.4 -16.1 54.35 -14.8 57.3 -11.8 58.45 -8.8 59.6 -5.9 58.35 -2.95 57.0 -1.8 54.05 -0.65 51.1 -1.95 48.15 -3.25 45.2 -6.25 44.05 L-7.7 43.65 Q-9.9 43.2 -12.15 44.15 L-12.75 44.45 Q-14.55 45.45 -15.6 47.15" fill="#999999" fill-rule="evenodd" stroke="none"/>
      <path d="M-15.6 47.15 Q-14.55 45.45 -12.75 44.45 L-13.85 47.4 -15.6 47.15" fill="#ffcc00" fill-rule="evenodd" stroke="none"/>
      <path d="M-20.2 23.05 Q-21.55 26.55 -25.0 28.1 -28.45 29.65 -31.95 28.25 -35.5 26.9 -37.05 23.45 -38.6 19.95 -37.25 16.45 -35.85 12.95 -32.4 11.45 L-25.4 11.25 Q-21.9 12.65 -20.35 16.1 -18.8 19.55 -20.2 23.05" fill="#fffcbf" fill-rule="evenodd" stroke="none"/>
      <path d="M1.9 19.8 L7.75 21.65 13.65 23.5 Q17.6 25.2 15.8 30.25 L10.6 43.6 Q7.9 48.25 3.15 45.8 L-0.85 43.9 -2.1 43.3 Q-3.4 42.15 -5.2 41.45 L-6.3 41.1 -5.8 40.0 1.45 21.05 1.9 19.8 M7.75 21.65 L-0.85 43.9 7.75 21.65" fill="url(#gradient0)" fill-rule="evenodd" stroke="none"/>
      <path d="M-18.1 46.0 Q-22.65 43.55 -26.45 39.3 -29.7 36.95 -31.95 37.0 -36.0 37.7 -38.05 34.65 -39.65 32.25 -43.8 32.45 -51.35 33.35 -59.5 31.7 L-43.75 -8.95 Q-36.65 -4.7 -31.7 1.0 -28.75 4.0 -25.95 3.25 -22.4 2.45 -19.85 5.6 -18.25 7.25 -14.3 7.65 -7.1 6.9 -1.1 9.15 L0.4 10.1 -11.45 41.0 -13.3 41.6 Q-16.5 43.05 -18.1 46.0 M-14.4 27.05 Q-16.35 26.15 -16.95 24.55 -17.6 22.9 -16.7 20.6 -16.15 19.15 -15.55 18.65 -14.65 17.85 -13.05 17.95 -14.65 17.85 -15.55 18.65 -16.15 19.15 -16.7 20.6 -17.6 22.9 -16.95 24.55 -16.35 26.15 -14.4 27.05 M-23.95 35.6 L-23.95 34.0 -23.85 32.1 Q-23.3 30.7 -21.75 29.95 L-18.6 29.75 -17.05 30.65 Q-16.45 31.3 -16.15 32.25 -16.45 31.3 -17.05 30.65 L-18.6 29.75 -21.75 29.95 Q-23.3 30.7 -23.85 32.1 L-23.95 34.0 -23.95 35.6 M-30.6 5.55 L-29.4 7.05 -28.1 8.2 -25.2 8.45 Q-23.0 8.25 -22.5 6.95 -22.25 6.35 -22.4 5.9 -22.25 6.35 -22.5 6.95 -23.0 8.25 -25.2 8.45 L-28.1 8.2 -29.4 7.05 -30.6 5.55 M-18.7 8.75 Q-19.25 10.15 -19.0 11.75 -18.65 13.55 -17.35 14.05 L-15.75 14.15 -14.2 14.15 -15.75 14.15 -17.35 14.05 Q-18.65 13.55 -19.0 11.75 -19.25 10.15 -18.7 8.75 M-20.2 23.05 Q-18.8 19.55 -20.35 16.1 -21.9 12.65 -25.4 11.25 L-32.4 11.45 Q-35.85 12.95 -37.25 16.45 -38.6 19.95 -37.05 23.45 -35.5 26.9 -31.95 28.25 -28.45 29.65 -25.0 28.1 -21.55 26.55 -20.2 23.05 M-37.1 28.65 L-36.6 28.5 -36.0 28.65 Q-35.45 28.85 -34.75 29.85 -33.9 30.9 -34.2 31.65 L-34.4 31.9 -34.2 31.65 Q-33.9 30.9 -34.75 29.85 -35.45 28.85 -36.0 28.65 L-36.6 28.5 -37.1 28.65 M-32.7 32.05 Q-31.85 31.35 -31.4 31.4 L-30.1 31.75 Q-29.25 32.1 -28.25 33.15 -27.15 34.35 -27.0 35.2 -27.15 34.35 -28.25 33.15 -29.25 32.1 -30.1 31.75 L-31.4 31.4 Q-31.85 31.35 -32.7 32.05 M-39.7 28.75 Q-39.0 25.1 -39.5 23.4 -40.1 21.55 -42.5 20.65 -43.55 20.2 -43.95 20.25 -43.55 20.2 -42.5 20.65 -40.1 21.55 -39.5 23.4 -39.0 25.1 -39.7 28.75 M-43.55 17.7 Q-41.8 17.8 -40.45 17.0 -39.2 16.15 -38.65 14.7 -38.1 13.3 -38.05 11.65 -38.05 9.95 -38.6 8.3 -38.05 9.95 -38.05 11.65 -38.1 13.3 -38.65 14.7 -39.2 16.15 -40.45 17.0 -41.8 17.8 -43.55 17.7 M-34.75 8.3 Q-34.05 8.3 -33.85 8.0 L-33.4 7.05 Q-33.2 6.55 -33.25 5.8 L-33.35 5.2 -33.25 5.8 Q-33.2 6.55 -33.4 7.05 L-33.85 8.0 Q-34.05 8.3 -34.75 8.3" fill="url(#gradient1)" fill-rule="evenodd" stroke="none"/>
      <path d="M1.9 19.8 L7.75 21.65 13.65 23.5 Q17.6 25.2 15.8 30.25 L10.6 43.6 Q7.9 48.25 3.15 45.8 L-0.85 43.9 -2.1 43.3 Q-0.35 44.75 0.6 47.0 2.4 51.0 0.85 55.05 -0.75 59.1 -4.75 60.9 -8.75 62.7 -12.8 61.1 -16.85 59.55 -18.65 55.5 -20.4 51.5 -18.8 47.45 L-18.1 46.0 Q-22.65 43.55 -26.45 39.3 -29.7 36.95 -31.95 37.0 -36.0 37.7 -38.05 34.65 -39.65 32.25 -43.8 32.45 -51.35 33.35 -59.5 31.7 -64.05 30.8 -68.85 29.1 -73.65 27.55 -71.65 22.2 L-59.15 -10.15 Q-57.1 -15.4 -52.5 -13.35 -47.8 -11.35 -43.75 -8.95 -36.65 -4.7 -31.7 1.0 -28.75 4.0 -25.95 3.25 -22.4 2.45 -19.85 5.6 -18.25 7.25 -14.3 7.65 -7.1 6.9 -1.1 9.15 L0.4 10.1 Q3.95 13.1 1.9 19.8 L1.45 21.05 -5.8 40.0 -6.3 41.1 -5.2 41.45 Q-3.4 42.15 -2.1 43.3 M-7.7 43.65 L-6.25 44.05 Q-3.25 45.2 -1.95 48.15 -0.65 51.1 -1.8 54.05 -2.95 57.0 -5.9 58.35 -8.8 59.6 -11.8 58.45 -14.8 57.3 -16.1 54.35 -17.35 51.4 -16.2 48.45 L-15.6 47.15 Q-14.55 45.45 -12.75 44.45 L-12.15 44.15 Q-9.9 43.2 -7.7 43.65 -10.3 47.5 -13.85 47.4 L-15.6 47.15 M-11.45 41.0 L-13.3 41.6 Q-16.5 43.05 -18.1 46.0 M-13.85 47.4 L-12.75 44.45 M-6.3 41.1 Q-8.9 40.4 -11.45 41.0 L0.4 10.1 M-0.85 43.9 L7.75 21.65 M-59.5 31.7 L-43.75 -8.95" fill="none" stroke="#000000" stroke-linecap="round" stroke-linejoin="round" stroke-opacity="0.4" stroke-width="1.0"/>
      <path d="M-14.2 14.15 L-15.75 14.15 -17.35 14.05 Q-18.65 13.55 -19.0 11.75 -19.25 10.15 -18.7 8.75 M-22.4 5.9 Q-22.25 6.35 -22.5 6.95 -23.0 8.25 -25.2 8.45 L-28.1 8.2 -29.4 7.05 -30.6 5.55 M-16.15 32.25 Q-16.45 31.3 -17.05 30.65 L-18.6 29.75 -21.75 29.95 Q-23.3 30.7 -23.85 32.1 L-23.95 34.0 -23.95 35.6 M-13.05 17.95 Q-14.65 17.85 -15.55 18.65 -16.15 19.15 -16.7 20.6 -17.6 22.9 -16.95 24.55 -16.35 26.15 -14.4 27.05 M-20.2 23.05 Q-21.55 26.55 -25.0 28.1 -28.45 29.65 -31.95 28.25 -35.5 26.9 -37.05 23.45 -38.6 19.95 -37.25 16.45 -35.85 12.95 -32.4 11.45 L-25.4 11.25 Q-21.9 12.65 -20.35 16.1 -18.8 19.55 -20.2 23.05 M-34.4 31.9 L-34.2 31.65 Q-33.9 30.9 -34.75 29.85 -35.45 28.85 -36.0 28.65 L-36.6 28.5 -37.1 28.65 M-27.0 35.2 Q-27.15 34.35 -28.25 33.15 -29.25 32.1 -30.1 31.75 L-31.4 31.4 Q-31.85 31.35 -32.7 32.05 M-33.35 5.2 L-33.25 5.8 Q-33.2 6.55 -33.4 7.05 L-33.85 8.0 Q-34.05 8.3 -34.75 8.3 M-38.6 8.3 Q-38.05 9.95 -38.05 11.65 -38.1 13.3 -38.65 14.7 -39.2 16.15 -40.45 17.0 -41.8 17.8 -43.55 17.7 M-43.95 20.25 Q-43.55 20.2 -42.5 20.65 -40.1 21.55 -39.5 23.4 -39.0 25.1 -39.7 28.75" fill="none" stroke="#000000" stroke-linecap="round" stroke-linejoin="round" stroke-opacity="0.2" stroke-width="1.0"/>
      <path d="M-53.35 -57.6 L-53.15 -57.6 -52.05 -57.65 -52.1 -57.55 -53.65 -53.55 -55.75 -48.4 Q-59.35 -39.2 -61.4 -32.6 -63.5 -26.1 -64.95 -20.05 -65.65 -17.6 -65.8 -15.05 L-66.35 -8.1 Q-66.6 -3.65 -65.75 2.15 L-63.65 15.5 Q-62.35 23.1 -61.45 26.35 L-60.15 29.8 -59.0 31.85 -60.5 30.45 -60.7 30.2 Q-62.35 27.95 -63.35 25.1 -64.45 22.0 -66.0 14.75 L-68.5 1.95 Q-69.5 -3.6 -69.25 -7.85 L-68.8 -14.5 Q-68.6 -16.9 -67.9 -19.25 -66.35 -25.05 -64.1 -31.25 -61.9 -37.55 -58.0 -46.35 L-54.95 -53.15 -53.55 -56.35 Q-53.05 -57.6 -53.35 -57.1 L-53.35 -57.15 -53.35 -57.6 M-16.05 -43.45 L-14.05 -40.85 -20.15 -27.05 Q-22.3 -22.05 -23.45 -18.4 L-24.05 -15.9 Q-24.8 -12.65 -24.8 -11.35 L-24.3 -7.5 Q-23.85 -5.05 -23.15 -3.65 L-22.95 -3.1 -24.7 -3.15 -24.9 -3.7 Q-25.55 -5.2 -25.9 -7.75 L-26.3 -11.8 Q-26.3 -13.15 -25.55 -16.55 L-25.0 -19.15 -21.95 -28.2 -16.05 -43.45 M-21.5 -3.05 L-19.75 -3.1 Q-19.05 -3.1 -18.55 -2.3 L-17.75 -0.45 -17.7 -0.3 -16.85 2.35 -16.7 2.65 -16.3 4.2 Q-16.3 4.65 -16.55 4.85 L-17.15 5.1 -17.15 5.15 -17.8 5.25 -19.7 5.75 -20.05 5.6 -19.6 5.5 -19.6 5.45 -19.1 5.15 -18.9 4.85 -18.85 4.5 -19.25 2.85 -19.3 2.55 -20.1 -0.2 -20.1 -0.4 -20.8 -2.3 -21.5 -3.05 M-24.9 9.4 L-25.0 9.75 -25.85 15.4 -25.85 16.3 -25.85 17.05 -25.85 18.1 -26.05 19.25 -26.2 21.5 -26.25 22.5 Q-26.6 24.0 -26.6 28.65 L-27.5 35.25 -28.0 36.65 Q-29.05 39.1 -31.25 40.3 -29.75 37.5 -29.05 33.35 -28.55 30.55 -27.9 20.7 L-27.75 17.75 -27.25 12.9 Q-27.05 11.35 -25.45 9.85 L-24.9 9.4" fill="#bdbdbd" fill-rule="evenodd" stroke="none"/>
      <path d="M-14.05 -40.85 L-13.9 -41.25 -13.35 -40.9 -13.2 -40.75 Q-12.9 -40.35 -12.9 -39.5 -15.55 -34.5 -18.15 -28.4 -23.4 -16.3 -23.4 -10.4 L-22.9 -6.5 -22.45 -4.7 -22.35 -4.45 -20.05 -4.75 -17.7 -4.45 -16.9 -3.05 Q-15.55 -0.4 -15.0 2.6 L-14.85 3.25 Q-14.5 4.95 -14.5 5.55 -14.5 6.45 -15.1 6.7 L-17.0 7.15 -17.45 7.2 Q-19.2 7.45 -20.95 8.4 -22.75 9.3 -23.2 11.05 -23.75 12.75 -23.95 15.35 L-24.05 16.75 -24.1 17.05 -24.4 18.9 -24.55 20.05 -24.5 20.6 -24.75 25.35 -25.25 32.0 -25.75 35.25 -26.1 36.85 Q-27.45 42.0 -32.4 42.2 L-33.4 42.15 Q-36.9 41.9 -39.5 39.6 L-40.8 38.35 -41.2 37.7 Q-44.0 39.05 -45.65 39.05 L-45.95 39.05 Q-47.5 39.0 -48.95 38.35 -51.2 37.4 -53.2 35.05 L-53.2 35.0 -53.4 35.1 -53.85 35.2 -54.9 35.25 Q-62.3 35.25 -65.4 24.75 L-66.85 19.45 -68.1 13.8 -69.8 3.3 Q-71.1 -4.15 -71.1 -7.8 -71.1 -11.5 -69.75 -17.3 -68.4 -23.15 -60.9 -42.85 -54.05 -61.0 -53.4 -57.8 L-53.35 -57.6 -53.35 -57.15 -53.35 -57.1 Q-53.05 -57.6 -53.55 -56.35 L-54.95 -53.15 -58.0 -46.35 Q-61.9 -37.55 -64.1 -31.25 -66.35 -25.05 -67.9 -19.25 -68.6 -16.9 -68.8 -14.5 L-69.25 -7.85 Q-69.5 -3.6 -68.5 1.95 L-66.0 14.75 Q-64.45 22.0 -63.35 25.1 -62.35 27.95 -60.7 30.2 L-60.5 30.45 -59.0 31.85 Q-57.4 32.8 -54.9 33.15 L-54.6 33.2 -55.1 32.45 Q-56.0 31.0 -56.0 30.0 L-55.65 29.2 Q-55.4 28.85 -52.6 32.9 -49.85 36.95 -47.0 36.9 -44.2 36.8 -42.55 35.55 L-41.95 35.15 -41.9 35.0 -41.7 34.8 -41.25 34.75 -40.8 34.85 -39.35 36.75 -38.5 38.25 -35.4 39.95 -33.4 40.45 -31.95 40.65 -31.25 40.3 Q-29.05 39.1 -28.0 36.65 L-27.5 35.25 -26.6 28.65 Q-26.6 24.0 -26.25 22.5 L-26.2 21.5 -26.05 19.25 -25.85 18.1 -25.85 17.05 -25.85 16.3 -25.85 15.4 -25.0 9.75 -24.9 9.4 -24.0 8.15 -22.9 7.3 -22.35 6.95 Q-21.05 6.2 -19.7 5.75 L-17.8 5.25 -17.15 5.15 -17.15 5.1 -16.55 4.85 Q-16.3 4.65 -16.3 4.2 L-16.7 2.65 -16.85 2.35 -17.7 -0.3 -17.75 -0.45 -18.55 -2.3 Q-19.05 -3.1 -19.75 -3.1 L-21.5 -3.05 -22.95 -3.1 -23.15 -3.65 Q-23.85 -5.05 -24.3 -7.5 L-24.8 -11.35 Q-24.8 -12.65 -24.05 -15.9 L-23.45 -18.4 Q-22.3 -22.05 -20.15 -27.05 L-14.05 -40.85" fill="#000000" fill-rule="evenodd" stroke="none"/>
      <path d="M-52.05 -57.65 Q-27.95 -57.95 -16.05 -43.45 L-21.95 -28.2 -25.0 -19.15 -25.55 -16.55 Q-26.3 -13.15 -26.3 -11.8 L-25.9 -7.75 Q-25.55 -5.2 -24.9 -3.7 L-24.7 -3.15 -22.95 -3.1 -21.5 -3.05 -20.8 -2.3 -20.1 -0.4 -20.1 -0.2 -19.3 2.55 -19.25 2.85 -18.85 4.5 -18.9 4.85 -19.1 5.15 -19.6 5.45 -19.6 5.5 -20.05 5.6 -19.7 5.75 Q-21.05 6.2 -22.35 6.95 L-22.9 7.3 -24.0 8.15 -24.9 9.4 -25.45 9.85 Q-27.05 11.35 -27.25 12.9 L-27.75 17.75 -27.9 20.7 Q-28.55 30.55 -29.05 33.35 -29.75 37.5 -31.25 40.3 L-31.95 40.65 -33.4 40.45 -35.4 39.95 -38.5 38.25 -39.35 36.75 -40.8 34.85 -41.25 34.75 -41.7 34.8 -41.9 35.0 -41.95 35.15 -42.55 35.55 Q-44.2 36.8 -47.0 36.9 -49.85 36.95 -52.6 32.9 -55.4 28.85 -55.65 29.2 L-56.0 30.0 Q-56.0 31.0 -55.1 32.45 L-54.6 33.2 -54.9 33.15 Q-57.4 32.8 -59.0 31.85 L-60.15 29.8 -61.45 26.35 Q-62.35 23.1 -63.65 15.5 L-65.75 2.15 Q-66.6 -3.65 -66.35 -8.1 L-65.8 -15.05 Q-65.65 -17.6 -64.95 -20.05 -63.5 -26.1 -61.4 -32.6 -59.35 -39.2 -55.75 -48.4 L-53.65 -53.55 -52.1 -57.55 -52.05 -57.65" fill="#999999" fill-rule="evenodd" stroke="none"/>
    </g>
    <linearGradient gradientTransform="matrix(0.0052, -0.0136, 0.0035, 0.0014, 0.6, 31.7)" gradientUnits="userSpaceOnUse" id="gradient0" spreadMethod="pad" x1="-819.2" x2="819.2">
      <stop offset="0.00784313725490196" stop-color="#ff9400"/>
      <stop offset="1.0" stop-color="#d86400"/>
    </linearGradient>
    <linearGradient gradientTransform="matrix(-0.0096, 0.0248, -0.0274, -0.0106, -29.15, 20.1)" gradientUnits="userSpaceOnUse" id="gradient1" spreadMethod="pad" x1="-819.2" x2="819.2">
      <stop offset="0.00784313725490196" stop-color="#ffcc00"/>
      <stop offset="1.0" stop-color="#ffff00"/>
    </linearGradient>
  </defs>
</svg>
