<?xml version="1.0" encoding="UTF-8" standalone="no"?>
<svg xmlns:xlink="http://www.w3.org/1999/xlink" height="531.5px" width="460.6px" xmlns="http://www.w3.org/2000/svg">
  <g transform="matrix(1.0, 0.0, 0.0, 1.0, 193.65, 334.05)">
    <use height="170.05" transform="matrix(1.0, 0.0, 0.0, 1.0, -46.75, -156.05)" width="235.45" xlink:href="#shape0"/>
  </g>
  <defs>
    <g id="shape0" transform="matrix(1.0, 0.0, 0.0, 1.0, 46.75, 156.05)">
      <path d="M78.2 -39.75 L78.25 -37.85 Q78.3 -35.8 77.95 -35.25 77.6 -34.6 76.65 -33.9 L76.65 -43.55 77.05 -42.45 78.2 -39.75" fill="#000000" fill-rule="evenodd" stroke="none"/>
      <path d="M94.5 -4.9 Q95.35 -3.4 95.65 -1.7 L94.15 0.15 90.25 -7.2 92.6 -7.35 94.5 -4.9" fill="#4a473a" fill-rule="evenodd" stroke="none"/>
      <path d="M132.85 -26.25 Q132.75 -27.35 133.1 -28.5 133.8 -31.1 136.2 -32.4 138.55 -33.75 141.1 -33.05 143.7 -32.25 145.0 -29.9 145.65 -28.75 145.8 -27.65 L145.75 -27.6 Q144.95 -24.7 142.15 -23.8 140.0 -23.15 137.35 -23.9 135.75 -24.35 133.8 -25.65 L132.85 -26.25 M142.1 -29.85 Q142.2 -31.45 139.5 -32.2 136.1 -32.65 134.7 -29.8 134.85 -26.7 138.1 -27.5 140.25 -28.05 141.8 -29.4 142.15 -29.65 142.1 -29.85" fill="#ff4c4c" fill-rule="evenodd" stroke="none"/>
      <path d="M133.55 -23.9 Q132.95 -25.05 132.85 -26.25 L133.8 -25.65 Q135.75 -24.35 137.35 -23.9 140.0 -23.15 142.15 -23.8 144.95 -24.7 145.75 -27.6 L145.8 -27.65 Q146.0 -26.35 145.65 -25.0 144.85 -22.4 142.55 -21.15 140.2 -19.8 137.6 -20.5 135.0 -21.2 133.75 -23.55 L133.55 -23.9" fill="#ca0202" fill-rule="evenodd" stroke="none"/>
      <path d="M142.1 -29.85 Q142.15 -29.65 141.8 -29.4 140.25 -28.05 138.1 -27.5 134.85 -26.7 134.7 -29.8 136.1 -32.65 139.5 -32.2 142.2 -31.45 142.1 -29.85" fill="#ffffff" fill-rule="evenodd" stroke="none"/>
      <path d="M94.5 -4.9 Q95.35 -3.4 95.65 -1.7 L94.15 0.15 M90.25 -7.2 L92.6 -7.35 94.5 -4.9 104.3 -9.0 104.7 -14.45 110.65 -5.75 110.1 -18.65 117.3 -9.15 117.1 -15.45 133.55 -23.9 Q132.95 -25.05 132.85 -26.25 132.75 -27.35 133.1 -28.5 133.8 -31.1 136.2 -32.4 138.55 -33.75 141.1 -33.05 143.7 -32.25 145.0 -29.9 145.65 -28.75 145.8 -27.65 146.0 -26.35 145.65 -25.0 144.85 -22.4 142.55 -21.15 140.2 -19.8 137.6 -20.5 135.0 -21.2 133.75 -23.55 L133.55 -23.9" fill="none" stroke="#000000" stroke-linecap="round" stroke-linejoin="round" stroke-opacity="0.6627451" stroke-width="1.0"/>
      <path d="M50.5 -79.25 L57.45 -79.65 67.3 -62.25 84.7 -31.5 94.5 -14.2 90.6 -8.25 74.05 -37.4 70.6 -43.6 50.5 -79.25" fill="#666458" fill-rule="evenodd" stroke="none"/>
      <path d="M50.5 -79.25 L70.6 -43.6 65.55 -43.15 64.0 -45.8 60.05 -52.2 60.65 -53.3 Q60.9 -54.35 60.35 -55.35 59.8 -56.4 58.75 -56.7 L57.45 -56.7 Q53.25 -63.8 50.6 -68.8 47.3 -75.3 41.45 -79.75 L40.15 -80.7 40.8 -80.55 Q41.75 -80.35 42.75 -80.9 43.75 -81.5 44.2 -82.45 44.55 -83.35 44.1 -84.15 43.7 -84.9 42.7 -85.1 41.7 -85.15 40.7 -84.55 39.7 -84.0 39.35 -83.15 38.9 -82.15 39.35 -81.4 L39.55 -81.0 Q36.05 -83.4 32.6 -84.0 L34.75 -85.1 Q39.7 -87.45 45.15 -88.6 L50.5 -79.25 M74.05 -37.4 L90.6 -8.25 96.0 1.3 88.75 7.35 88.1 4.3 88.95 4.5 Q89.9 4.7 90.9 4.15 91.9 3.6 92.35 2.6 92.7 1.7 92.25 0.95 91.8 0.1 90.75 -0.05 89.8 -0.15 88.8 0.4 87.9 0.9 87.5 1.65 L85.65 -5.5 Q83.2 -13.35 77.5 -23.3 L77.55 -23.45 Q77.85 -24.5 77.25 -25.55 76.7 -26.5 75.65 -26.85 L75.4 -26.85 68.65 -38.05 71.75 -37.7 74.05 -37.4" fill="#999688" fill-rule="evenodd" stroke="none"/>
      <path d="M39.55 -81.0 L39.35 -81.4 Q38.9 -82.15 39.35 -83.15 39.7 -84.0 40.7 -84.55 41.7 -85.15 42.7 -85.1 43.7 -84.9 44.1 -84.15 44.55 -83.35 44.2 -82.45 43.75 -81.5 42.75 -80.9 41.75 -80.35 40.8 -80.55 L40.15 -80.7 39.55 -81.0 M57.45 -56.7 L58.75 -56.7 Q59.8 -56.4 60.35 -55.35 60.9 -54.35 60.65 -53.3 L60.05 -52.2 59.35 -51.6 57.25 -51.4 Q56.15 -51.65 55.6 -52.65 55.05 -53.65 55.35 -54.8 55.6 -55.85 56.65 -56.4 L57.45 -56.7 M75.4 -26.85 L75.65 -26.85 Q76.7 -26.5 77.25 -25.55 77.85 -24.5 77.55 -23.45 L77.5 -23.3 Q77.2 -22.35 76.25 -21.8 L74.15 -21.55 Q73.1 -21.8 72.55 -22.8 72.0 -23.8 72.25 -24.95 72.55 -26.0 73.55 -26.55 74.4 -27.1 75.4 -26.85 M87.5 1.65 Q87.9 0.9 88.8 0.4 89.8 -0.15 90.75 -0.05 91.8 0.1 92.25 0.95 92.7 1.7 92.35 2.6 91.9 3.6 90.9 4.15 89.9 4.7 88.95 4.5 L88.1 4.3 87.45 3.65 Q87.0 2.85 87.45 1.9 L87.5 1.65" fill="#4a4532" fill-rule="evenodd" stroke="none"/>
      <path d="M32.6 -84.0 Q36.05 -83.4 39.55 -81.0 L40.15 -80.7 41.45 -79.75 Q47.3 -75.3 50.6 -68.8 53.25 -63.8 57.45 -56.7 L56.65 -56.4 Q55.6 -55.85 55.35 -54.8 55.05 -53.65 55.6 -52.65 56.15 -51.65 57.25 -51.4 L59.35 -51.6 60.05 -52.2 64.0 -45.8 65.55 -43.15 Q61.3 -43.5 55.15 -45.65 45.95 -48.95 39.5 -54.0 L25.25 -79.1 Q28.75 -81.95 32.6 -84.0 M68.65 -38.05 L75.4 -26.85 Q74.4 -27.1 73.55 -26.55 72.55 -26.0 72.25 -24.95 72.0 -23.8 72.55 -22.8 73.1 -21.8 74.15 -21.55 L76.25 -21.8 Q77.2 -22.35 77.5 -23.3 83.2 -13.35 85.65 -5.5 L87.5 1.65 87.45 1.9 Q87.0 2.85 87.45 3.65 L88.1 4.3 88.75 7.35 87.6 8.1 Q82.95 11.2 77.65 13.5 L53.8 -28.65 Q53.6 -30.05 53.65 -31.6 53.85 -35.8 56.65 -37.35 57.65 -37.95 60.5 -38.35 L65.3 -38.5 68.65 -38.05" fill="#736e5c" fill-rule="evenodd" stroke="none"/>
      <path d="M71.6 -64.95 Q74.0 -65.75 76.6 -65.6 81.55 -59.3 85.45 -52.4 89.4 -45.45 92.3 -37.85 91.15 -35.6 89.3 -33.95 87.2 -35.25 84.8 -37.55 80.55 -41.65 77.55 -47.2 L77.35 -47.55 Q74.85 -52.15 72.95 -58.85 71.75 -63.05 71.6 -64.95" fill="#660000" fill-rule="evenodd" stroke="none"/>
      <path d="M84.7 -31.5 L67.3 -62.25 Q68.95 -63.8 70.85 -64.65 L71.6 -64.95 Q71.75 -63.05 72.95 -58.85 74.85 -52.15 77.35 -47.55 L77.55 -47.2 Q80.55 -41.65 84.8 -37.55 87.2 -35.25 89.3 -33.95 L88.5 -33.35 Q86.9 -32.2 84.7 -31.5" fill="#400000" fill-rule="evenodd" stroke="none"/>
      <path d="M70.6 -43.6 L74.05 -37.4 71.75 -37.7 68.65 -38.05 65.3 -38.5 60.5 -38.35 Q57.65 -37.95 56.65 -37.35 53.85 -35.8 53.65 -31.6 53.6 -30.05 53.8 -28.65 L39.5 -54.0 Q45.95 -48.95 55.15 -45.65 61.3 -43.5 65.55 -43.15 L70.6 -43.6" fill="#aba798" fill-rule="evenodd" stroke="none"/>
      <path d="M67.3 -62.25 L57.45 -79.65 50.5 -79.25 70.6 -43.6 74.05 -37.4 90.6 -8.25 94.5 -14.2 84.7 -31.5 67.3 -62.25 Q68.95 -63.8 70.85 -64.65 L71.6 -64.95 Q74.0 -65.75 76.6 -65.6 81.55 -59.3 85.45 -52.4 89.4 -45.45 92.3 -37.85 91.15 -35.6 89.3 -33.95 L88.5 -33.35 Q86.9 -32.2 84.7 -31.5 M50.5 -79.25 L45.15 -88.6 Q39.7 -87.45 34.75 -85.1 L32.6 -84.0 Q28.75 -81.95 25.25 -79.1 L39.5 -54.0 53.8 -28.65 77.65 13.5 Q82.95 11.2 87.6 8.1 L88.75 7.35 96.0 1.3 90.6 -8.25 M39.55 -81.0 L39.35 -81.4 Q38.9 -82.15 39.35 -83.15 39.7 -84.0 40.7 -84.55 41.7 -85.15 42.7 -85.1 43.7 -84.9 44.1 -84.15 44.55 -83.35 44.2 -82.45 43.75 -81.5 42.75 -80.9 41.75 -80.35 40.8 -80.55 L40.15 -80.7 M57.45 -56.7 L58.75 -56.7 Q59.8 -56.4 60.35 -55.35 60.9 -54.35 60.65 -53.3 L60.05 -52.2 59.35 -51.6 57.25 -51.4 Q56.15 -51.65 55.6 -52.65 55.05 -53.65 55.35 -54.8 55.6 -55.85 56.65 -56.4 L57.45 -56.7 M75.4 -26.85 L75.65 -26.85 Q76.7 -26.5 77.25 -25.55 77.85 -24.5 77.55 -23.45 L77.5 -23.3 Q77.2 -22.35 76.25 -21.8 L74.15 -21.55 Q73.1 -21.8 72.55 -22.8 72.0 -23.8 72.25 -24.95 72.55 -26.0 73.55 -26.55 74.4 -27.1 75.4 -26.85 M87.5 1.65 Q87.9 0.9 88.8 0.4 89.8 -0.15 90.75 -0.05 91.8 0.1 92.25 0.95 92.7 1.7 92.35 2.6 91.9 3.6 90.9 4.15 89.9 4.7 88.95 4.5 L88.1 4.3 87.45 3.65 Q87.0 2.85 87.45 1.9 L87.5 1.65" fill="none" stroke="#000000" stroke-linecap="round" stroke-linejoin="round" stroke-opacity="0.6627451" stroke-width="1.0"/>
      <path d="M97.1 -99.0 L97.1 -99.05 97.75 -102.05 101.1 -103.15 101.45 -99.65 97.1 -99.0" fill="#ff8f8f" fill-rule="evenodd" stroke="none"/>
      <path d="M101.1 -103.15 L97.75 -102.05 97.1 -99.05 97.1 -99.0 Q93.85 -96.1 91.1 -94.4 L90.15 -93.85 Q88.0 -92.7 87.35 -93.15 L87.25 -93.25 Q86.5 -94.0 88.55 -97.05 90.65 -100.05 94.3 -103.6 97.9 -107.1 101.0 -109.0 103.75 -110.65 104.7 -110.2 L105.05 -109.65 Q105.15 -108.95 104.15 -107.25 L103.55 -106.35 101.1 -103.15" fill="#e34a4a" fill-rule="evenodd" stroke="none"/>
      <path d="M97.1 -99.0 L101.45 -99.65 101.1 -103.15 103.55 -106.35 104.15 -107.25 Q105.15 -108.95 105.05 -109.65 L110.0 -103.6 111.25 -102.15 111.85 -101.35 Q112.6 -100.6 110.8 -97.8 108.95 -94.95 105.6 -91.7 102.2 -88.5 99.35 -86.85 96.65 -85.25 95.85 -85.75 L95.7 -85.9 94.7 -86.7 93.5 -87.8 87.35 -93.15 Q88.0 -92.7 90.15 -93.85 L91.1 -94.4 Q93.85 -96.1 97.1 -99.0" fill="url(#gradient0)" fill-rule="evenodd" stroke="none"/>
      <path d="M110.0 -103.6 L119.4 -112.6 122.95 -108.85 Q122.65 -107.2 120.95 -103.95 L119.95 -102.15 119.65 -101.65 83.7 -67.0 78.25 -72.95 93.5 -87.8 94.7 -86.7 Q93.75 -84.65 94.45 -83.85 L94.55 -83.75 Q95.55 -82.95 98.8 -84.8 102.25 -86.85 106.2 -90.6 110.2 -94.4 112.3 -97.7 113.9 -100.4 113.45 -102.05 L111.25 -102.15 110.0 -103.6" fill="#999688" fill-rule="evenodd" stroke="none"/>
      <path d="M122.95 -108.85 L125.75 -105.9 127.45 -104.15 127.75 -103.8 122.65 -102.35 119.4 -101.2 119.65 -101.65 119.95 -102.15 120.95 -103.95 Q122.65 -107.2 122.95 -108.85" fill="#d9d6c9" fill-rule="evenodd" stroke="none"/>
      <path d="M83.7 -67.0 L119.65 -101.65 119.4 -101.2 122.65 -102.35 127.75 -103.8 136.7 -94.5 95.25 -54.45 83.7 -67.0 M110.2 -76.1 Q110.2 -78.1 108.75 -79.5 107.35 -80.95 105.3 -80.95 103.3 -80.95 101.9 -79.5 100.45 -78.1 100.45 -76.1 100.45 -74.05 101.9 -72.65 103.3 -71.25 105.3 -71.25 107.35 -71.25 108.75 -72.65 110.2 -74.05 110.2 -76.1 M122.9 -86.4 Q124.35 -87.8 124.35 -89.85 124.35 -91.85 122.9 -93.25 121.5 -94.7 119.45 -94.7 117.45 -94.7 116.05 -93.25 114.6 -91.85 114.6 -89.85 114.6 -87.8 116.05 -86.4 117.45 -85.0 119.45 -85.0 121.5 -85.0 122.9 -86.4" fill="#666458" fill-rule="evenodd" stroke="none"/>
      <path d="M111.25 -102.15 L113.45 -102.05 Q113.9 -100.4 112.3 -97.7 110.2 -94.4 106.2 -90.6 102.25 -86.85 98.8 -84.8 95.55 -82.95 94.55 -83.75 L94.45 -83.85 Q93.75 -84.65 94.7 -86.7 L95.7 -85.9 95.85 -85.75 Q96.65 -85.25 99.35 -86.85 102.2 -88.5 105.6 -91.7 108.95 -94.95 110.8 -97.8 112.6 -100.6 111.85 -101.35 L111.25 -102.15" fill="#260000" fill-rule="evenodd" stroke="none"/>
      <path d="M125.75 -105.9 L128.6 -106.9 Q130.45 -105.9 131.8 -104.55 133.4 -103.0 134.35 -101.0 L133.2 -98.15 127.45 -104.15 125.75 -105.9" fill="#4a473a" fill-rule="evenodd" stroke="none"/>
      <path d="M121.7 -87.55 Q122.65 -88.5 122.65 -89.85 122.65 -91.15 121.7 -92.05 120.8 -93.0 119.45 -93.0 118.1 -93.0 117.2 -92.05 116.25 -91.15 116.25 -89.85 116.25 -88.5 117.2 -87.55 118.1 -86.65 119.45 -86.65 120.8 -86.65 121.7 -87.55 M122.9 -86.4 Q121.5 -85.0 119.45 -85.0 117.45 -85.0 116.05 -86.4 114.6 -87.8 114.6 -89.85 114.6 -91.85 116.05 -93.25 117.45 -94.7 119.45 -94.7 121.5 -94.7 122.9 -93.25 124.35 -91.85 124.35 -89.85 124.35 -87.8 122.9 -86.4 M110.2 -76.1 Q110.2 -74.05 108.75 -72.65 107.35 -71.25 105.3 -71.25 103.3 -71.25 101.9 -72.65 100.45 -74.05 100.45 -76.1 100.45 -78.1 101.9 -79.5 103.3 -80.95 105.3 -80.95 107.35 -80.95 108.75 -79.5 110.2 -78.1 110.2 -76.1 M103.05 -78.3 Q102.1 -77.4 102.1 -76.1 102.1 -74.75 103.05 -73.8 103.95 -72.9 105.3 -72.9 106.65 -72.9 107.55 -73.8 108.5 -74.75 108.5 -76.1 108.5 -77.4 107.55 -78.3 106.65 -79.25 105.3 -79.25 103.95 -79.25 103.05 -78.3" fill="#998478" fill-rule="evenodd" stroke="none"/>
      <path d="M121.7 -87.55 Q120.8 -86.65 119.45 -86.65 118.1 -86.65 117.2 -87.55 116.25 -88.5 116.25 -89.85 116.25 -91.15 117.2 -92.05 118.1 -93.0 119.45 -93.0 120.8 -93.0 121.7 -92.05 122.65 -91.15 122.65 -89.85 122.65 -88.5 121.7 -87.55 M103.05 -78.3 Q103.95 -79.25 105.3 -79.25 106.65 -79.25 107.55 -78.3 108.5 -77.4 108.5 -76.1 108.5 -74.75 107.55 -73.8 106.65 -72.9 105.3 -72.9 103.95 -72.9 103.05 -73.8 102.1 -74.75 102.1 -76.1 102.1 -77.4 103.05 -78.3" fill="#38341f" fill-rule="evenodd" stroke="none"/>
      <path d="M172.0 -144.35 Q171.5 -145.7 171.5 -147.2 171.5 -150.65 173.95 -153.1 176.4 -155.55 179.85 -155.55 183.3 -155.55 185.75 -153.1 186.95 -151.9 187.55 -150.5 L187.55 -150.45 Q187.55 -146.55 184.35 -144.55 181.85 -142.95 178.35 -142.95 176.2 -142.95 173.35 -143.85 L172.0 -144.35 M173.05 -149.35 Q174.3 -145.55 178.0 -147.7 180.5 -149.1 181.95 -151.3 182.3 -151.8 182.15 -152.0 181.75 -153.95 178.15 -153.95 173.8 -153.4 173.05 -149.35" fill="#ff4c4c" fill-rule="evenodd" stroke="none"/>
      <path d="M173.65 -141.6 Q172.5 -142.85 172.0 -144.35 L173.35 -143.85 Q176.2 -142.95 178.35 -142.95 181.85 -142.95 184.35 -144.55 187.55 -146.55 187.55 -150.45 L187.55 -150.5 Q188.2 -149.0 188.2 -147.2 188.2 -143.75 185.75 -141.3 183.3 -138.85 179.85 -138.85 176.4 -138.85 173.95 -141.3 L173.65 -141.6" fill="#ca0202" fill-rule="evenodd" stroke="none"/>
      <path d="M173.05 -149.35 Q173.8 -153.4 178.15 -153.95 181.75 -153.95 182.15 -152.0 182.3 -151.8 181.95 -151.3 180.5 -149.1 178.0 -147.7 174.3 -145.55 173.05 -149.35" fill="#ffffff" fill-rule="evenodd" stroke="none"/>
      <path d="M101.1 -103.15 L97.75 -102.05 97.1 -99.05 97.1 -99.0 101.45 -99.65 101.1 -103.15 M83.7 -67.0 L119.65 -101.65 119.95 -102.15 120.95 -103.95 Q122.65 -107.2 122.95 -108.85 M119.65 -101.65 L119.4 -101.2 122.65 -102.35 127.75 -103.8 M121.7 -87.55 Q120.8 -86.65 119.45 -86.65 118.1 -86.65 117.2 -87.55 116.25 -88.5 116.25 -89.85 116.25 -91.15 117.2 -92.05 118.1 -93.0 119.45 -93.0 120.8 -93.0 121.7 -92.05 122.65 -91.15 122.65 -89.85 122.65 -88.5 121.7 -87.55 M122.9 -86.4 Q121.5 -85.0 119.45 -85.0 117.45 -85.0 116.05 -86.4 114.6 -87.8 114.6 -89.85 114.6 -91.85 116.05 -93.25 117.45 -94.7 119.45 -94.7 121.5 -94.7 122.9 -93.25 124.35 -91.85 124.35 -89.85 124.35 -87.8 122.9 -86.4 M110.2 -76.1 Q110.2 -74.05 108.75 -72.65 107.35 -71.25 105.3 -71.25 103.3 -71.25 101.9 -72.65 100.45 -74.05 100.45 -76.1 100.45 -78.1 101.9 -79.5 103.3 -80.95 105.3 -80.95 107.35 -80.95 108.75 -79.5 110.2 -78.1 110.2 -76.1 M103.05 -78.3 Q103.95 -79.25 105.3 -79.25 106.65 -79.25 107.55 -78.3 108.5 -77.4 108.5 -76.1 108.5 -74.75 107.55 -73.8 106.65 -72.9 105.3 -72.9 103.95 -72.9 103.05 -73.8 102.1 -74.75 102.1 -76.1 102.1 -77.4 103.05 -78.3" fill="none" stroke="#000000" stroke-linecap="round" stroke-linejoin="round" stroke-opacity="0.6627451" stroke-width="0.6000000000000001"/>
      <path d="M101.1 -103.15 L103.55 -106.35 104.15 -107.25 Q105.15 -108.95 105.05 -109.65 L104.7 -110.2 Q103.75 -110.65 101.0 -109.0 97.9 -107.1 94.3 -103.6 90.65 -100.05 88.55 -97.05 86.5 -94.0 87.25 -93.25 L87.35 -93.15 Q88.0 -92.7 90.15 -93.85 L91.1 -94.4 Q93.85 -96.1 97.1 -99.0 M104.7 -110.2 L104.9 -110.1 105.05 -109.65 110.0 -103.6 119.4 -112.6 122.95 -108.85 125.75 -105.9 128.6 -106.9 Q130.45 -105.9 131.8 -104.55 L142.55 -113.0 141.2 -119.9 151.6 -111.25 146.45 -127.0 158.6 -117.75 156.2 -125.5 173.65 -141.6 Q172.5 -142.85 172.0 -144.35 171.5 -145.7 171.5 -147.2 171.5 -150.65 173.95 -153.1 176.4 -155.55 179.85 -155.55 183.3 -155.55 185.75 -153.1 186.95 -151.9 187.55 -150.5 188.2 -149.0 188.2 -147.2 188.2 -143.75 185.75 -141.3 183.3 -138.85 179.85 -138.85 176.4 -138.85 173.95 -141.3 L173.65 -141.6 M110.0 -103.6 L111.25 -102.15 113.45 -102.05 Q113.9 -100.4 112.3 -97.7 110.2 -94.4 106.2 -90.6 102.25 -86.85 98.8 -84.8 95.55 -82.95 94.55 -83.75 L94.45 -83.85 Q93.75 -84.65 94.7 -86.7 L93.5 -87.8 78.25 -72.95 83.7 -67.0 95.25 -54.45 136.7 -94.5 127.75 -103.8 127.45 -104.15 125.75 -105.9 M111.25 -102.15 L111.85 -101.35 M95.85 -85.75 L95.7 -85.9 94.7 -86.7 M131.8 -104.55 Q133.4 -103.0 134.35 -101.0 L133.2 -98.15 M87.35 -93.15 L93.5 -87.8" fill="none" stroke="#000000" stroke-linecap="round" stroke-linejoin="round" stroke-opacity="0.6627451" stroke-width="1.0"/>
      <path d="M127.2 -87.95 Q132.05 -81.65 132.1 -79.1 132.25 -77.95 131.5 -77.0 L129.7 -75.3 126.55 -72.15 Q125.55 -71.5 124.55 -71.7 L123.8 -71.9 123.65 -71.6 123.0 -70.35 121.75 -68.6 119.6 -66.55 Q118.15 -65.05 116.85 -64.55 118.0 -63.35 117.9 -61.75 117.9 -60.7 117.1 -59.2 L115.45 -56.95 113.45 -54.65 Q110.55 -51.8 108.7 -51.8 108.05 -51.85 105.55 -53.2 L104.6 -53.7 Q101.25 -55.7 99.1 -57.55 L93.7 -63.25 Q91.25 -65.85 90.75 -67.6 90.4 -68.95 91.15 -70.35 L95.15 -75.05 97.3 -77.25 97.45 -77.4 96.7 -78.25 Q94.5 -80.75 94.5 -82.25 L94.6 -82.75 Q94.8 -83.5 95.55 -84.85 L96.65 -86.75 97.0 -87.15 Q98.35 -88.7 100.1 -89.75 L102.15 -90.3 103.65 -90.2 Q105.3 -89.4 106.9 -87.75 L109.0 -85.6 Q107.1 -89.7 110.75 -93.75 L112.45 -95.55 113.95 -96.55 114.8 -96.75 118.5 -96.85 118.85 -96.65 120.35 -95.75 122.75 -93.55 126.45 -89.05 127.2 -87.95 M127.35 -83.85 L125.55 -85.95 120.85 -91.9 118.05 -94.8 117.45 -94.9 117.0 -94.85 115.7 -94.6 113.95 -93.75 Q113.6 -93.6 112.7 -92.65 L111.15 -90.85 Q110.55 -90.1 110.65 -88.8 111.1 -85.2 119.4 -77.7 L121.55 -75.8 123.95 -74.15 Q125.65 -73.75 128.2 -76.6 131.05 -79.65 129.75 -81.1 L127.35 -83.85 M118.7 -75.35 L116.1 -77.6 112.6 -81.0 111.6 -81.6 108.55 -84.05 Q106.15 -86.1 103.95 -87.25 L102.4 -87.9 Q100.35 -87.65 99.1 -86.15 L98.7 -85.65 97.6 -83.8 96.85 -82.05 Q96.95 -81.15 99.25 -78.8 101.6 -76.4 106.6 -72.6 110.55 -69.6 112.5 -68.45 L112.85 -68.2 Q115.55 -66.75 116.3 -67.05 L119.65 -69.9 121.1 -72.25 121.85 -73.0 118.7 -75.35 M113.5 -64.85 L113.1 -65.25 111.65 -66.0 105.9 -70.05 Q101.3 -73.4 100.3 -74.4 L98.6 -76.1 Q98.15 -76.05 97.95 -75.7 L96.05 -73.6 94.2 -71.55 92.6 -69.45 Q92.1 -68.55 93.55 -66.6 94.85 -64.9 97.35 -62.85 L100.15 -59.95 Q102.85 -57.3 106.5 -55.35 L106.6 -55.3 Q109.15 -53.9 109.95 -54.0 110.6 -54.2 113.05 -56.7 L115.5 -60.1 Q116.7 -62.25 114.5 -63.95 L113.5 -64.85" fill="#000000" fill-rule="evenodd" stroke="none"/>
      <path d="M121.55 -75.8 L123.15 -75.55 Q124.55 -75.95 125.25 -76.95 L126.4 -79.05 Q127.5 -81.0 127.35 -83.85 L129.75 -81.1 Q131.05 -79.65 128.2 -76.6 125.65 -73.75 123.95 -74.15 L121.55 -75.8 M112.5 -68.45 Q113.25 -69.85 115.4 -72.05 L118.7 -75.35 121.85 -73.0 121.1 -72.25 119.65 -69.9 116.3 -67.05 Q115.55 -66.75 112.85 -68.2 L112.5 -68.45 M106.5 -55.35 L108.3 -57.1 111.1 -59.8 112.85 -62.45 Q113.5 -63.65 113.5 -64.85 L114.5 -63.95 Q116.7 -62.25 115.5 -60.1 L113.05 -56.7 Q110.6 -54.2 109.95 -54.0 109.15 -53.9 106.6 -55.3 L106.5 -55.35" fill="#bdbdbd" fill-rule="evenodd" stroke="none"/>
      <path d="M127.35 -83.85 Q127.5 -81.0 126.4 -79.05 L125.25 -76.95 Q124.55 -75.95 123.15 -75.55 L121.55 -75.8 119.4 -77.7 Q111.1 -85.2 110.65 -88.8 110.55 -90.1 111.15 -90.85 L112.7 -92.65 Q113.6 -93.6 113.95 -93.75 L115.7 -94.6 117.0 -94.85 117.45 -94.9 118.05 -94.8 120.85 -91.9 125.55 -85.95 127.35 -83.85 M112.5 -68.45 Q110.55 -69.6 106.6 -72.6 101.6 -76.4 99.25 -78.8 96.95 -81.15 96.85 -82.05 L97.6 -83.8 98.7 -85.65 99.1 -86.15 Q100.35 -87.65 102.4 -87.9 L103.95 -87.25 Q106.15 -86.1 108.55 -84.05 L111.6 -81.6 112.6 -81.0 116.1 -77.6 118.7 -75.35 115.4 -72.05 Q113.25 -69.85 112.5 -68.45 M106.5 -55.35 Q102.85 -57.3 100.15 -59.95 L97.35 -62.85 Q94.85 -64.9 93.55 -66.6 92.1 -68.55 92.6 -69.45 L94.2 -71.55 96.05 -73.6 97.95 -75.7 Q98.15 -76.05 98.6 -76.1 L100.3 -74.4 Q101.3 -73.4 105.9 -70.05 L111.65 -66.0 113.1 -65.25 113.5 -64.85 Q113.5 -63.65 112.85 -62.45 L111.1 -59.8 108.3 -57.1 106.5 -55.35" fill="#999999" fill-rule="evenodd" stroke="none"/>
      <path d="M-27.8 -60.7 Q-28.55 -61.65 -28.45 -62.75 L-28.05 -62.9 -25.3 -61.5 -24.8 -61.2 -18.8 -57.85 Q-8.75 -52.6 -1.7 -52.65 5.45 -52.7 11.15 -54.0 L18.6 -55.9 Q20.6 -56.25 21.8 -56.75 22.85 -57.25 23.3 -57.9 L23.55 -60.15 23.55 -60.2 Q23.85 -63.4 29.65 -65.25 32.7 -66.3 34.2 -65.85 L34.25 -65.8 Q35.25 -65.45 35.4 -64.3 L37.75 -60.4 Q39.75 -56.8 40.85 -56.8 41.95 -56.85 49.25 -58.45 55.5 -59.9 60.7 -60.35 L61.05 -60.35 62.45 -60.5 Q68.3 -60.9 70.2 -58.6 71.7 -56.75 71.75 -51.0 71.75 -50.15 71.25 -49.35 L70.15 -48.15 69.8 -47.85 Q68.6 -46.9 66.9 -46.1 L63.35 -45.0 60.05 -43.7 60.0 -43.65 Q62.8 -43.9 65.45 -44.75 68.0 -45.7 70.5 -46.25 L70.7 -46.2 71.85 -46.5 71.9 -46.5 72.4 -46.65 73.1 -46.6 74.2 -46.6 74.45 -46.45 74.8 -46.25 75.4 -45.65 76.2 -44.6 76.4 -44.2 76.45 -44.1 76.6 -43.7 76.65 -43.55 76.65 -33.9 Q75.55 -33.15 73.65 -32.35 71.9 -31.6 68.35 -30.55 64.1 -29.3 62.45 -29.25 L62.5 -28.85 Q62.95 -28.1 65.1 -28.1 L69.1 -27.9 69.65 -27.95 73.55 -27.6 Q74.35 -27.15 74.45 -26.45 L74.5 -24.8 Q74.4 -21.4 73.1 -18.15 L72.65 -16.6 Q72.15 -13.85 68.45 -13.8 L63.85 -14.45 59.45 -15.5 52.35 -17.2 48.05 -15.9 Q43.55 -14.5 41.45 -14.05 L35.95 -13.15 30.35 -12.3 8.8 -8.85 5.05 -8.8 Q-7.9 -8.65 -16.3 -10.0 -27.95 -11.8 -35.2 -16.65 L-41.3 -20.1 -42.45 -20.75 Q-44.95 -22.45 -45.95 -23.75 -46.7 -24.55 -46.75 -25.25 L-46.65 -25.95 -46.6 -26.0 -46.0 -25.5 -42.4 -22.95 Q-32.65 -16.7 -20.55 -14.25 -5.85 -11.2 4.2 -11.65 L6.95 -11.8 8.75 -11.8 Q19.7 -12.2 30.4 -14.6 L35.95 -15.8 48.35 -18.4 49.7 -19.35 51.8 -19.55 54.15 -19.45 55.9 -19.05 58.9 -18.3 60.3 -17.9 64.05 -17.05 65.4 -16.75 68.0 -16.3 69.3 -16.6 Q71.05 -19.65 71.85 -23.15 L72.2 -24.8 72.2 -25.45 72.1 -25.7 68.9 -25.55 63.65 -26.05 62.75 -26.3 62.25 -26.45 61.2 -27.05 Q60.25 -27.8 60.3 -28.45 60.25 -29.3 60.45 -29.85 L60.45 -30.15 Q60.4 -31.1 63.7 -32.1 L68.95 -33.6 72.3 -34.9 74.6 -35.75 Q75.65 -36.35 75.65 -38.0 L75.75 -38.75 Q75.7 -40.35 75.1 -41.3 L74.9 -41.75 74.3 -42.65 73.95 -43.15 Q73.55 -43.55 73.15 -43.5 L73.0 -43.45 72.95 -43.6 71.15 -43.2 66.15 -41.65 65.55 -41.45 Q60.05 -39.7 58.65 -39.7 L58.2 -39.7 57.95 -39.8 55.7 -40.6 55.35 -40.75 Q54.75 -41.2 54.75 -42.15 54.75 -43.85 56.9 -44.95 57.95 -45.5 61.75 -46.7 64.6 -47.65 66.3 -48.8 68.65 -50.45 68.7 -52.65 L68.75 -53.45 Q68.75 -54.4 68.15 -55.95 67.3 -57.8 66.35 -57.85 L63.05 -57.7 62.1 -57.6 Q56.7 -57.2 51.25 -55.9 45.05 -54.4 42.15 -54.15 L41.05 -54.05 Q37.7 -54.05 36.55 -55.85 35.95 -56.9 35.45 -58.9 L33.9 -61.6 33.55 -62.25 33.5 -62.25 33.0 -62.75 32.65 -62.75 31.25 -62.55 28.6 -61.65 27.55 -61.0 27.25 -60.85 Q26.95 -60.55 26.95 -60.05 L27.0 -58.55 26.95 -57.9 Q26.8 -56.6 24.15 -54.45 21.6 -52.35 11.3 -50.6 L9.45 -50.3 -3.2 -49.75 Q-7.45 -50.6 -12.6 -52.0 -17.7 -53.45 -20.0 -55.35 L-24.15 -57.7 -25.9 -59.05 -26.65 -59.55 -27.8 -60.7" fill="#000000" fill-rule="evenodd" stroke="none"/>
      <path d="M-27.8 -60.7 L-26.65 -59.55 -25.9 -59.05 -24.15 -57.7 -20.0 -55.35 Q-17.7 -53.45 -12.6 -52.0 -7.45 -50.6 -3.2 -49.75 L9.45 -50.3 7.3 -49.9 Q-2.3 -48.3 -6.15 -49.15 -10.1 -49.95 -14.9 -51.3 -19.7 -52.7 -21.8 -54.4 L-25.65 -56.6 -27.3 -57.9 -28.0 -58.4 -29.7 -59.35 -27.8 -60.7 M27.55 -61.0 L28.6 -61.65 31.25 -62.55 32.65 -62.75 33.0 -62.75 33.5 -62.25 33.55 -62.25 33.9 -61.6 35.45 -58.9 Q35.95 -56.9 36.55 -55.85 37.7 -54.05 41.05 -54.05 L42.15 -54.15 34.85 -52.95 Q31.75 -53.0 30.7 -54.65 30.2 -55.65 29.75 -57.5 L28.3 -60.05 27.95 -60.65 27.9 -60.65 27.55 -61.0 M62.1 -57.6 L63.05 -57.7 66.35 -57.85 Q67.3 -57.8 68.15 -55.95 68.75 -54.4 68.75 -53.45 L68.7 -52.65 Q68.65 -50.45 66.3 -48.8 64.6 -47.65 61.75 -46.7 57.95 -45.5 56.9 -44.95 54.75 -43.85 54.75 -42.15 54.75 -41.2 55.35 -40.75 L55.7 -40.6 Q52.15 -39.55 51.1 -39.55 L50.7 -39.55 50.45 -39.65 50.4 -39.65 Q50.25 -40.15 50.25 -40.65 50.35 -43.55 56.8 -46.1 63.25 -48.55 63.35 -51.7 63.4 -53.55 62.3 -57.0 L62.1 -57.6 M66.15 -41.65 L71.15 -43.2 72.95 -43.6 73.0 -43.45 73.15 -43.5 Q73.55 -43.55 73.95 -43.15 L74.3 -42.65 74.9 -41.75 75.1 -41.3 Q75.7 -40.35 75.75 -38.75 L75.65 -38.0 Q75.65 -36.35 74.6 -35.75 L72.3 -34.9 68.95 -33.6 63.7 -32.1 Q60.4 -31.1 60.45 -30.15 L60.45 -29.85 Q60.25 -29.3 60.3 -28.45 60.25 -27.8 61.2 -27.05 L62.25 -26.45 60.65 -26.45 Q56.8 -26.45 54.9 -27.15 54.15 -27.25 53.45 -27.8 52.65 -28.5 52.65 -29.1 52.6 -29.9 52.8 -30.4 L52.8 -30.7 Q52.75 -31.6 55.8 -32.5 L60.65 -33.95 63.85 -35.1 65.95 -35.85 Q66.95 -36.4 66.95 -37.9 L67.05 -38.6 Q67.0 -40.1 66.4 -41.0 L66.25 -41.45 66.15 -41.65 M63.65 -26.05 L68.9 -25.55 72.1 -25.7 72.2 -25.45 72.2 -24.8 71.85 -23.15 Q71.05 -19.65 69.3 -16.6 L68.0 -16.3 65.4 -16.75 64.05 -17.05 60.3 -17.9 60.9 -18.05 Q62.6 -20.9 63.35 -24.15 L63.65 -25.7 63.65 -26.05 M51.8 -19.55 L49.7 -19.35 48.35 -18.4 35.95 -15.8 30.4 -14.6 Q19.7 -12.2 8.75 -11.8 L6.95 -11.8 4.2 -11.65 Q-5.85 -11.2 -20.55 -14.25 -32.65 -16.7 -42.4 -22.95 L-46.0 -25.5 -46.1 -26.3 -46.2 -26.8 -42.7 -24.45 Q-33.7 -18.6 -22.45 -16.3 -8.85 -13.45 0.45 -13.8 L3.1 -13.9 4.8 -13.9 Q14.9 -14.2 24.85 -16.4 L29.95 -17.5 41.5 -19.85 Q42.35 -20.5 43.85 -20.4 L46.85 -20.85 48.5 -20.45 51.3 -19.7 51.8 -19.55" fill="#bdbdbd" fill-rule="evenodd" stroke="none"/>
      <path d="M9.45 -50.3 L11.3 -50.6 Q21.6 -52.35 24.15 -54.45 26.8 -56.6 26.95 -57.9 L27.0 -58.55 26.95 -60.05 Q26.95 -60.55 27.25 -60.85 L27.55 -61.0 27.9 -60.65 27.95 -60.65 28.3 -60.05 29.75 -57.5 Q30.2 -55.65 30.7 -54.65 31.75 -53.0 34.85 -52.95 L42.15 -54.15 Q45.05 -54.4 51.25 -55.9 56.7 -57.2 62.1 -57.6 L62.3 -57.0 Q63.4 -53.55 63.35 -51.7 63.25 -48.55 56.8 -46.1 50.35 -43.55 50.25 -40.65 50.25 -40.15 50.4 -39.65 L50.45 -39.65 50.7 -39.55 51.1 -39.55 Q52.15 -39.55 55.7 -40.6 L57.95 -39.8 58.2 -39.7 58.65 -39.7 Q60.05 -39.7 65.55 -41.45 L66.15 -41.65 66.25 -41.45 66.4 -41.0 Q67.0 -40.1 67.05 -38.6 L66.95 -37.9 Q66.95 -36.4 65.95 -35.85 L63.85 -35.1 60.65 -33.95 55.8 -32.5 Q52.75 -31.6 52.8 -30.7 L52.8 -30.4 Q52.6 -29.9 52.65 -29.1 52.65 -28.5 53.45 -27.8 54.15 -27.25 54.9 -27.15 56.8 -26.45 60.65 -26.45 L62.25 -26.45 62.75 -26.3 63.65 -26.05 63.65 -25.7 63.35 -24.15 Q62.6 -20.9 60.9 -18.05 L60.3 -17.9 58.9 -18.3 55.9 -19.05 54.15 -19.45 51.8 -19.55 51.3 -19.7 48.5 -20.45 46.85 -20.85 43.85 -20.4 Q42.35 -20.5 41.5 -19.85 L29.95 -17.5 24.85 -16.4 Q14.9 -14.2 4.8 -13.9 L3.1 -13.9 0.45 -13.8 Q-8.85 -13.45 -22.45 -16.3 -33.7 -18.6 -42.7 -24.45 L-46.2 -26.8 -46.4 -28.7 Q-46.45 -33.6 -44.6 -38.9 -42.95 -44.0 -40.05 -48.1 -37.4 -51.9 -34.15 -55.25 -31.75 -57.85 -29.7 -59.35 L-28.0 -58.4 -27.3 -57.9 -25.65 -56.6 -21.8 -54.4 Q-19.7 -52.7 -14.9 -51.3 -10.1 -49.95 -6.15 -49.15 -2.3 -48.3 7.3 -49.9 L9.45 -50.3" fill="#999999" fill-rule="evenodd" stroke="none"/>
    </g>
    <linearGradient gradientTransform="matrix(0.0043, 0.0043, -0.0104, 0.0104, 105.65, -91.95)" gradientUnits="userSpaceOnUse" id="gradient0" spreadMethod="pad" x1="-819.2" x2="819.2">
      <stop offset="0.0" stop-color="#ba0000"/>
      <stop offset="1.0" stop-color="#0c0000"/>
    </linearGradient>
  </defs>
</svg>
