<?xml version="1.0" encoding="UTF-8" standalone="no"?>
<svg xmlns:xlink="http://www.w3.org/1999/xlink" height="531.5px" width="460.6px" xmlns="http://www.w3.org/2000/svg">
  <g transform="matrix(1.0, 0.0, 0.0, 1.0, 193.65, 334.05)">
    <use height="118.8" transform="matrix(1.0, 0.0, 0.0, 1.0, -116.05, -57.8)" width="285.3" xlink:href="#shape0"/>
  </g>
  <defs>
    <g id="shape0" transform="matrix(1.0, 0.0, 0.0, 1.0, 116.05, 57.8)">
      <path d="M-22.1 11.75 Q-21.2 1.3 -19.65 -9.1 -15.4 -23.3 -12.75 -8.75 -12.25 3.35 -12.65 15.7 L-14.45 15.6 -14.4 14.4 -17.8 14.25 -18.65 31.3 -15.25 31.45 -15.2 30.2 -13.45 30.3 Q-14.35 41.65 -16.0 53.3 -20.55 67.9 -22.9 52.8 -23.35 42.25 -23.15 31.8 L-23.1 29.9 -22.85 22.5 -22.4 15.35 -22.1 11.75" fill="url(#gradient0)" fill-rule="evenodd" stroke="none"/>
      <path d="M-12.65 15.7 L-1.0 16.05 12.6 14.95 Q22.2 14.1 29.2 11.5 L29.4 11.6 29.15 11.85 Q25.35 16.45 21.4 17.9 L28.85 18.1 Q48.45 18.05 66.25 11.25 64.45 15.1 59.85 19.8 84.85 20.25 107.35 12.7 106.3 16.15 101.1 20.55 120.0 21.25 135.95 16.65 L140.35 21.6 141.3 14.95 146.4 18.9 147.1 12.6 151.9 16.15 152.25 10.15 156.4 13.4 156.75 7.6 Q163.15 3.85 168.75 -1.1 158.25 17.95 139.25 24.85 115.0 32.95 28.4 26.3 L-14.85 22.95 -14.45 15.6 -12.65 15.7" fill="url(#gradient1)" fill-rule="evenodd" stroke="none"/>
      <path d="M-14.45 15.6 L-14.85 22.95 -15.2 30.2 -15.25 31.45 -18.65 31.3 -17.8 14.25 -14.4 14.4 -14.45 15.6" fill="#333333" fill-rule="evenodd" stroke="none"/>
      <path d="M-23.15 31.8 L-33.75 30.05 -44.7 28.6 -47.8 10.6 -37.2 11.25 -32.6 25.0 -29.55 11.55 -22.1 11.75 -22.4 15.35 -22.85 22.5 -23.1 29.9 -23.15 31.8 M-56.45 27.2 L-67.8 25.9 -65.85 21.75 -63.85 17.65 -59.9 9.5 -54.05 10.1 -56.45 27.2 M-76.2 25.0 L-84.5 24.0 Q-82.95 20.4 -81.75 16.7 -80.1 11.75 -79.3 6.7 L-77.05 7.1 -76.85 11.7 -76.2 25.0 M-32.6 25.0 L-33.75 30.05 -32.6 25.0 M-76.85 11.7 L-81.75 16.7 -76.85 11.7" fill="#cc9966" fill-rule="evenodd" stroke="none"/>
      <path d="M-75.05 7.45 L-66.0 8.75 -59.9 9.5 -63.85 17.65 -65.85 21.75 -75.05 7.45 M-37.2 11.25 L-29.55 11.55 -32.6 25.0 -37.2 11.25 M-66.0 8.75 L-63.85 17.65 -66.0 8.75" fill="#b50000" fill-rule="evenodd" stroke="none"/>
      <path d="M168.75 -1.1 Q164.75 26.1 140.25 35.2 129.8 39.25 113.6 37.15 118.15 40.5 118.0 45.25 97.3 36.35 72.65 35.6 78.85 37.55 80.8 43.15 56.9 33.6 37.0 33.75 41.3 37.0 42.25 41.05 36.75 37.0 28.0 34.65 23.8 33.5 18.9 32.8 10.05 30.85 -1.75 30.8 L-13.45 30.3 -15.2 30.2 -14.85 22.95 28.4 26.3 Q115.0 32.95 139.25 24.85 158.25 17.95 168.75 -1.1" fill="url(#gradient2)" fill-rule="evenodd" stroke="none"/>
      <path d="M-44.7 28.6 L-56.45 27.2 -54.05 10.1 -47.8 10.6 -44.7 28.6 M-67.8 25.9 L-76.2 25.0 -76.85 11.7 -77.05 7.1 -75.05 7.45 -65.85 21.75 -67.8 25.9" fill="#cc0000" fill-rule="evenodd" stroke="none"/>
      <path d="M-84.5 24.0 L-85.5 26.05 -93.6 25.75 Q-100.9 25.1 -107.5 22.75 -107.95 18.65 -107.75 14.4 -107.55 10.8 -106.9 7.15 -106.3 3.75 -105.25 0.3 -98.55 0.25 -92.3 1.55 -85.5 2.95 -79.15 5.9 L-79.3 6.7 Q-80.1 11.75 -81.75 16.7 -82.95 20.4 -84.5 24.0" fill="url(#gradient3)" fill-rule="evenodd" stroke="none"/>
      <path d="M-107.75 14.4 L-113.85 12.55 Q-117.65 9.15 -112.95 6.7 L-106.9 7.15 Q-107.55 10.8 -107.75 14.4" fill="#ff9900" fill-rule="evenodd" stroke="none"/>
      <path d="M29.2 11.5 L29.6 11.3 29.4 11.6 29.2 11.5" fill="#9c7373" fill-rule="evenodd" stroke="none"/>
      <path d="M-22.1 11.75 Q-21.2 1.3 -19.65 -9.1 -15.4 -23.3 -12.75 -8.75 -12.25 3.35 -12.65 15.7 L-1.0 16.05 12.6 14.95 Q22.2 14.1 29.2 11.5 L29.6 11.3 29.4 11.6 29.15 11.85 Q25.35 16.45 21.4 17.9 L28.85 18.1 Q48.45 18.05 66.25 11.25 64.45 15.1 59.85 19.8 84.85 20.25 107.35 12.7 106.3 16.15 101.1 20.55 120.0 21.25 135.95 16.65 L140.35 21.6 141.3 14.95 146.4 18.9 147.1 12.6 151.9 16.15 152.25 10.15 156.4 13.4 156.75 7.6 Q163.15 3.85 168.75 -1.1 164.75 26.1 140.25 35.2 129.8 39.25 113.6 37.15 118.15 40.5 118.0 45.25 97.3 36.35 72.65 35.6 78.85 37.55 80.8 43.15 56.9 33.6 37.0 33.75 41.3 37.0 42.25 41.05 36.75 37.0 28.0 34.65 23.8 33.5 18.9 32.8 10.05 30.85 -1.75 30.8 L-13.45 30.3 Q-14.35 41.65 -16.0 53.3 -20.55 67.9 -22.9 52.8 -23.35 42.25 -23.15 31.8 L-33.75 30.05 -44.7 28.6 -56.45 27.2 -67.8 25.9 -76.2 25.0 -84.5 24.0 -85.5 26.05 -93.6 25.75 Q-100.9 25.1 -107.5 22.75 -107.95 18.65 -107.75 14.4 L-113.85 12.55 Q-117.65 9.15 -112.95 6.7 L-106.9 7.15 Q-106.3 3.75 -105.25 0.3 -98.55 0.25 -92.3 1.55 -85.5 2.95 -79.15 5.9 L-79.3 6.7 -77.05 7.1 -75.05 7.45 -66.0 8.75 -59.9 9.5 -54.05 10.1 -47.8 10.6 -37.2 11.25 -29.55 11.55 -22.1 11.75 -22.4 15.35 -22.85 22.5 -23.1 29.9 -23.15 31.8 M-14.45 15.6 L-12.65 15.7 M-14.85 22.95 L-14.45 15.6 -14.4 14.4 -17.8 14.25 -18.65 31.3 -15.25 31.45 -15.2 30.2 -14.85 22.95 M-33.75 30.05 L-32.6 25.0 -37.2 11.25 M-13.45 30.3 L-15.2 30.2 M-32.6 25.0 L-29.55 11.55 M-63.85 17.65 L-66.0 8.75 M-65.85 21.75 L-63.85 17.65 -59.9 9.5 M-76.85 11.7 L-77.05 7.1 M-65.85 21.75 L-75.05 7.45 M-44.7 28.6 L-47.8 10.6 M-54.05 10.1 L-56.45 27.2 M-76.85 11.7 L-76.2 25.0 M-67.8 25.9 L-65.85 21.75 M-84.5 24.0 Q-82.95 20.4 -81.75 16.7 -80.1 11.75 -79.3 6.7 M-106.9 7.15 Q-107.55 10.8 -107.75 14.4 M-81.75 16.7 L-76.85 11.7" fill="none" stroke="#000000" stroke-linecap="round" stroke-linejoin="round" stroke-opacity="0.4" stroke-width="1.0"/>
      <path d="M-53.55 -57.1 L-53.55 -56.65 -53.55 -56.6 Q-53.25 -57.1 -53.75 -55.85 L-55.15 -52.65 -58.2 -45.85 Q-62.1 -37.05 -64.3 -30.75 -66.55 -24.55 -68.1 -18.75 -68.8 -16.4 -69.0 -14.0 L-69.45 -7.35 Q-69.7 -3.1 -68.7 2.45 L-66.2 15.25 Q-64.65 22.5 -63.55 25.6 -62.55 28.45 -60.9 30.7 L-60.7 30.95 -59.2 32.35 Q-57.6 33.3 -55.1 33.65 L-54.8 33.7 -55.3 32.95 Q-56.2 31.5 -56.2 30.5 L-55.85 29.7 Q-55.6 29.35 -52.8 33.4 -50.05 37.45 -47.2 37.4 -44.4 37.3 -42.75 36.05 L-41.95 35.55 -41.4 35.25 -41.3 35.2 -41.35 35.15 -41.5 34.55 -41.55 34.25 -41.4 33.2 -41.1 32.95 Q-41.0 32.85 -38.6 35.3 -35.5 37.25 -33.25 37.3 -31.65 37.35 -30.6 36.75 L-29.85 36.2 -29.5 35.8 -28.65 34.45 -28.65 34.4 -29.15 31.65 -29.25 29.1 -29.25 27.15 -29.1 25.65 -28.75 24.7 -27.2 22.45 -26.55 21.5 Q-25.95 20.6 -26.0 18.85 L-26.05 15.9 -25.2 10.25 -24.5 8.95 -24.35 8.8 -24.35 8.9 -24.3 8.85 -24.2 8.8 -23.9 8.8 Q-23.6 8.75 -23.35 9.1 L-23.3 9.35 -23.3 10.1 Q-23.35 11.05 -22.4 11.05 L-21.0 11.05 -20.65 10.95 -20.45 10.6 -20.25 10.25 -20.25 10.2 -20.1 9.9 -19.95 9.6 -19.8 9.35 -19.7 9.0 -19.65 8.95 -19.6 8.85 -19.55 8.75 -19.45 8.6 -19.3 8.3 -19.3 8.25 -18.95 7.65 -18.85 7.5 -18.3 6.5 -18.0 6.0 -16.9 4.5 -16.9 4.45 -16.9 3.95 Q-16.85 3.5 -16.95 3.05 L-16.95 2.95 -17.0 2.85 -17.0 2.7 -17.0 2.6 -17.15 2.25 -17.2 2.0 -17.35 1.75 -17.45 1.4 -17.55 1.2 -17.65 1.0 -17.75 0.65 -17.75 0.6 -17.9 0.2 -17.95 0.05 -18.75 -1.8 Q-19.25 -2.6 -19.95 -2.6 L-21.7 -2.55 -23.15 -2.6 -23.35 -3.15 Q-24.05 -4.55 -24.5 -7.0 L-25.0 -10.85 Q-25.0 -12.15 -24.25 -15.4 L-23.65 -17.9 Q-22.5 -21.55 -20.35 -26.55 L-14.25 -40.35 -14.1 -40.75 -13.55 -40.4 -13.4 -40.25 Q-13.1 -39.85 -13.1 -39.0 L-18.35 -27.9 Q-23.6 -15.8 -23.6 -9.9 L-23.1 -6.0 -22.65 -4.2 -22.55 -3.95 -20.25 -4.25 -17.9 -3.95 -17.1 -2.55 -16.05 -0.15 Q-15.5 0.5 -15.25 1.4 L-14.85 3.45 -14.8 3.55 -14.75 3.65 -14.7 3.85 -14.7 3.95 Q-14.9 4.8 -15.55 5.45 L-16.7 6.85 -16.8 7.05 -17.05 7.4 -17.2 7.6 -18.3 10.15 -19.2 12.5 -22.1 12.8 -23.7 12.85 -23.75 13.05 -23.75 13.1 -23.75 13.45 -23.9 13.8 -24.15 15.85 -24.4 20.3 Q-24.45 22.2 -25.65 23.8 -26.9 25.4 -27.25 26.7 L-26.95 29.8 Q-26.95 31.1 -26.3 33.0 L-25.9 34.2 -26.0 35.15 -26.4 35.9 -26.45 36.05 -26.55 36.1 Q-27.1 37.0 -28.5 38.1 -30.7 39.75 -32.4 39.75 -36.35 39.75 -39.25 37.5 L-39.6 37.2 -41.2 38.05 Q-44.15 39.55 -45.85 39.55 L-46.15 39.55 Q-47.7 39.5 -49.15 38.85 -51.4 37.9 -53.4 35.55 L-53.4 35.5 -53.6 35.6 -54.05 35.7 -55.1 35.75 Q-62.5 35.75 -65.6 25.25 L-67.05 19.95 -68.3 14.3 -70.0 3.8 Q-71.3 -3.65 -71.3 -7.3 -71.3 -11.0 -69.95 -16.8 -68.6 -22.65 -61.1 -42.35 -54.25 -60.5 -53.6 -57.3 L-53.55 -57.1" fill="#000000" fill-rule="evenodd" stroke="none"/>
      <path d="M-59.2 32.35 L-60.7 30.95 -60.9 30.7 Q-62.55 28.45 -63.55 25.6 -64.65 22.5 -66.2 15.25 L-68.7 2.45 Q-69.7 -3.1 -69.45 -7.35 L-69.0 -14.0 Q-68.8 -16.4 -68.1 -18.75 -66.55 -24.55 -64.3 -30.75 -62.1 -37.05 -58.2 -45.85 L-55.15 -52.65 -53.75 -55.85 Q-53.25 -57.1 -53.55 -56.6 L-53.55 -56.65 -53.55 -57.1 -53.35 -57.1 -52.25 -57.15 -52.3 -57.05 -53.85 -53.05 -55.95 -47.9 Q-59.55 -38.7 -61.6 -32.1 -63.7 -25.6 -65.15 -19.55 -65.85 -17.1 -66.0 -14.55 L-66.55 -7.6 Q-66.8 -3.15 -65.95 2.65 L-63.85 16.0 Q-62.55 23.6 -61.65 26.85 L-60.35 30.3 -59.2 32.35 M-14.25 -40.35 L-20.35 -26.55 Q-22.5 -21.55 -23.65 -17.9 L-24.25 -15.4 Q-25.0 -12.15 -25.0 -10.85 L-24.5 -7.0 Q-24.05 -4.55 -23.35 -3.15 L-23.15 -2.6 -24.9 -2.65 -25.1 -3.2 Q-25.75 -4.7 -26.1 -7.25 L-26.5 -11.3 Q-26.5 -12.65 -25.75 -16.05 L-25.2 -18.65 -22.15 -27.7 -16.25 -42.95 -14.25 -40.35 M-21.7 -2.55 L-19.95 -2.6 Q-19.25 -2.6 -18.75 -1.8 L-17.95 0.05 -17.9 0.2 -17.75 0.6 -17.75 0.65 -17.65 1.0 -17.55 1.2 -17.45 1.4 -17.35 1.75 -17.2 2.0 -17.15 2.25 -17.0 2.6 -17.0 2.7 -17.0 2.85 -16.95 2.95 -16.95 3.05 Q-16.85 3.5 -16.9 3.95 L-16.9 4.45 -16.9 4.5 -18.0 6.0 -18.3 6.5 -18.85 7.5 -18.95 7.65 -19.3 8.25 -19.3 8.3 -19.45 8.6 -19.55 8.75 -19.6 8.85 -19.65 8.95 -19.7 9.0 -19.8 9.35 -19.95 9.6 -20.1 9.9 -20.25 10.2 -20.25 10.25 -20.45 10.6 -20.65 10.95 -21.0 11.05 -22.4 11.05 Q-23.35 11.05 -23.3 10.1 L-23.3 9.35 -23.35 9.1 Q-23.6 8.75 -23.9 8.8 L-24.2 8.8 -24.3 8.85 -24.35 8.9 -24.35 8.8 -24.5 8.95 -25.2 10.25 -26.05 15.9 -26.0 18.85 Q-25.95 20.6 -26.55 21.5 L-27.2 22.45 -28.75 24.7 -29.1 25.65 -29.25 27.15 -29.25 29.1 -29.15 31.65 -28.65 34.4 -28.65 34.45 -29.5 35.8 -29.85 36.2 -30.6 36.75 -30.35 36.1 -30.35 36.05 -30.4 35.4 -30.7 33.2 -30.8 30.5 -30.75 28.45 Q-30.75 26.8 -30.3 25.9 L-29.95 25.25 -28.3 22.55 -28.1 22.05 Q-27.75 21.15 -27.75 19.8 L-27.8 16.7 -26.95 10.8 Q-26.8 9.6 -25.05 8.25 L-24.55 7.85 -24.3 7.7 -24.2 7.65 -24.2 7.7 Q-19.95 6.55 -20.05 1.25 L-20.3 0.3 -20.3 0.1 Q-20.8 -1.55 -21.0 -1.8 L-21.7 -2.55 M-41.5 34.55 L-41.35 35.15 -41.3 35.2 -41.4 35.25 -41.95 35.55 -41.8 34.85 -41.8 34.8 -41.75 34.75 -41.55 34.55 -41.5 34.55" fill="#bdbdbd" fill-rule="evenodd" stroke="none"/>
      <path d="M-23.15 -2.6 L-21.7 -2.55 -21.0 -1.8 Q-20.8 -1.55 -20.3 0.1 L-20.3 0.3 -20.05 1.25 Q-19.95 6.55 -24.2 7.7 L-24.2 7.65 -24.3 7.7 -24.55 7.85 -25.05 8.25 Q-26.8 9.6 -26.95 10.8 L-27.8 16.7 -27.75 19.8 Q-27.75 21.15 -28.1 22.05 L-28.3 22.55 -29.95 25.25 -30.3 25.9 Q-30.75 26.8 -30.75 28.45 L-30.8 30.5 -30.7 33.2 -30.4 35.4 -30.35 36.05 -30.35 36.1 -30.6 36.75 Q-31.65 37.35 -33.25 37.3 -35.5 37.25 -38.6 35.3 -41.0 32.85 -41.1 32.95 L-41.4 33.2 -41.55 34.25 -41.5 34.55 -41.55 34.55 -41.75 34.75 -41.8 34.8 -41.8 34.85 -41.95 35.55 -42.75 36.05 Q-44.4 37.3 -47.2 37.4 -50.05 37.45 -52.8 33.4 -55.6 29.35 -55.85 29.7 L-56.2 30.5 Q-56.2 31.5 -55.3 32.95 L-54.8 33.7 -55.1 33.65 Q-57.6 33.3 -59.2 32.35 L-60.35 30.3 -61.65 26.85 Q-62.55 23.6 -63.85 16.0 L-65.95 2.65 Q-66.8 -3.15 -66.55 -7.6 L-66.0 -14.55 Q-65.85 -17.1 -65.15 -19.55 -63.7 -25.6 -61.6 -32.1 -59.55 -38.7 -55.95 -47.9 L-53.85 -53.05 -52.3 -57.05 -52.25 -57.15 Q-28.15 -57.45 -16.25 -42.95 L-22.15 -27.7 -25.2 -18.65 -25.75 -16.05 Q-26.5 -12.65 -26.5 -11.3 L-26.1 -7.25 Q-25.75 -4.7 -25.1 -3.2 L-24.9 -2.65 -23.15 -2.6" fill="#999999" fill-rule="evenodd" stroke="none"/>
      <path d="M-26.1 -3.35 Q-24.9 -11.9 -26.9 -20.45 L-27.4 -22.55 -22.35 -21.45 Q-19.2 -11.85 -21.3 -4.65 -23.65 -3.7 -26.1 -3.35" fill="#404040" fill-rule="evenodd" stroke="none"/>
      <path d="M-27.4 -22.55 L-26.9 -20.45 Q-24.9 -11.9 -26.1 -3.35 L-34.3 -3.85 -36.75 -22.55 Q-32.2 -23.3 -27.4 -22.55" fill="#242424" fill-rule="evenodd" stroke="none"/>
      <path d="M-26.1 -3.35 Q-23.65 -3.7 -21.3 -4.65 -19.2 -11.85 -22.35 -21.45 L-27.4 -22.55 Q-32.2 -23.3 -36.75 -22.55 L-34.3 -3.85 -26.1 -3.35 Z" fill="none" stroke="#000000" stroke-linecap="round" stroke-linejoin="round" stroke-opacity="0.5019608" stroke-width="1.0"/>
      <path d="M-71.4 6.35 L-54.85 -11.3 Q-45.6 -20.5 -37.7 -27.45 L-31.5 -25.7 Q-29.05 -6.2 -31.25 15.0 -47.75 20.3 -65.85 20.5 -69.8 13.85 -71.4 6.35" fill="#404040" fill-rule="evenodd" stroke="none"/>
      <path d="M-37.7 -27.45 Q-45.6 -20.5 -54.85 -11.3 L-71.4 6.35 Q-74.75 -7.85 -70.2 -24.85 -53.35 -31.0 -37.7 -27.45" fill="#595959" fill-rule="evenodd" stroke="none"/>
      <path d="M-37.7 -27.45 Q-53.35 -31.0 -70.2 -24.85 -74.75 -7.85 -71.4 6.35 -69.8 13.85 -65.85 20.5 -47.75 20.3 -31.25 15.0 -29.05 -6.2 -31.5 -25.7 L-37.7 -27.45 Z" fill="none" stroke="#000000" stroke-linecap="round" stroke-linejoin="round" stroke-opacity="0.5019608" stroke-width="1.0"/>
      <path d="M-66.6 -20.7 L-65.35 -21.0 -58.3 -22.3 -55.1 -22.7 -47.5 -23.0 -46.25 -23.0 -38.3 -22.1 -38.25 -22.1 -36.75 -21.8 -36.1 -14.4 -36.0 -13.2 -35.75 -4.35 -35.75 -3.2 Q-35.85 1.55 -36.25 6.2 L-36.3 6.75 -36.8 11.25 -62.75 15.4 -63.85 12.35 -64.7 9.5 Q-65.85 5.35 -66.5 1.35 L-66.75 0.05 Q-67.35 -3.95 -67.45 -7.9 L-67.5 -10.4 Q-67.5 -14.85 -66.8 -19.2 L-66.75 -19.6 -66.6 -20.7" fill="url(#gradient4)" fill-rule="evenodd" stroke="none"/>
      <path d="M-66.8 -19.2 L-66.6 -19.5 -65.35 -21.0 M-67.45 -7.9 L-66.3 -9.35 -67.5 -10.4 M-66.3 -9.35 L-61.2 -5.05 -56.4 -10.8 -61.45 -15.1 -66.3 -9.35 M-61.45 -15.1 L-66.6 -19.5 M-47.5 -23.0 L-46.75 -22.35 -46.25 -23.0 M-46.75 -22.35 L-51.6 -16.55 -46.5 -12.25 -41.7 -18.05 -46.75 -22.35 M-58.3 -22.3 L-56.65 -20.85 -55.1 -22.7 M-56.4 -10.8 L-51.6 -16.55 -56.65 -20.85 -61.45 -15.1 M-56.15 -0.75 L-51.05 3.55 -46.2 -2.2 -51.35 -6.5 -56.15 -0.75 -61.2 -5.05 -66.05 0.7 -60.9 5.0 -56.15 -0.75 M-56.4 -10.8 L-51.35 -6.5 -46.5 -12.25 -41.45 -7.95 -36.65 -13.75 -41.7 -18.05 -38.3 -22.1 M-46.2 -2.2 L-41.15 2.1 -36.35 -3.65 -41.45 -7.95 -46.2 -2.2 M-35.75 -4.35 L-36.35 -3.65 -35.75 -3.2 M-36.1 -14.4 L-36.65 -13.75 -36.0 -13.2 M-55.85 9.3 L-50.65 13.5 -45.95 7.85 -51.05 3.55 -55.85 9.3 -60.9 5.0 -64.7 9.5 M-40.6 11.85 L-36.0 6.4 -41.15 2.1 -45.95 7.85 -41.15 11.9 M-63.85 12.35 L-60.6 15.05 -55.85 9.3 M-66.5 1.35 L-66.05 0.7 -66.75 0.05" fill="none" stroke="#000000" stroke-linecap="round" stroke-linejoin="round" stroke-opacity="0.3019608" stroke-width="0.5"/>
      <path d="M-66.6 -20.7 L-65.35 -21.0 -58.3 -22.3 -55.1 -22.7 -47.5 -23.0 -46.25 -23.0 -38.3 -22.1 -38.25 -22.1 -36.75 -21.8 -36.1 -14.4 -36.0 -13.2 -35.75 -4.35 -35.75 -3.2 Q-35.85 1.55 -36.25 6.2 L-36.3 6.75 -36.8 11.25 -62.75 15.4 -63.85 12.35 -64.7 9.5 Q-65.85 5.35 -66.5 1.35 L-66.75 0.05 Q-67.35 -3.95 -67.45 -7.9 L-67.5 -10.4 Q-67.5 -14.85 -66.8 -19.2 L-66.75 -19.6 -66.6 -20.7 Z" fill="none" stroke="#000000" stroke-linecap="round" stroke-linejoin="round" stroke-opacity="0.5019608" stroke-width="1.0"/>
    </g>
    <linearGradient gradientTransform="matrix(0.0085, 4.0E-4, 3.0E-4, -0.006, -17.9, 22.2)" gradientUnits="userSpaceOnUse" id="gradient0" spreadMethod="pad" x1="-819.2" x2="819.2">
      <stop offset="0.0" stop-color="#ffcc00"/>
      <stop offset="0.9882352941176471" stop-color="#ff9900"/>
    </linearGradient>
    <linearGradient gradientTransform="matrix(-0.0594, -0.0029, -0.0054, 0.1109, 54.65, 14.65)" gradientUnits="userSpaceOnUse" id="gradient1" spreadMethod="pad" x1="-819.2" x2="819.2">
      <stop offset="0.0" stop-color="#9c7373"/>
      <stop offset="0.9882352941176471" stop-color="#4f2f2f"/>
    </linearGradient>
    <linearGradient gradientTransform="matrix(-0.0672, -0.0035, -0.0058, 0.111, 69.3, 19.65)" gradientUnits="userSpaceOnUse" id="gradient2" spreadMethod="pad" x1="-819.2" x2="819.2">
      <stop offset="0.0" stop-color="#e3e3e3"/>
      <stop offset="0.9882352941176471" stop-color="#999999"/>
    </linearGradient>
    <linearGradient gradientTransform="matrix(-0.0152, -8.0E-4, -9.0E-4, 0.0171, -96.6, 12.35)" gradientUnits="userSpaceOnUse" id="gradient3" spreadMethod="pad" x1="-819.2" x2="819.2">
      <stop offset="0.0" stop-color="#ffcc00"/>
      <stop offset="0.9882352941176471" stop-color="#ff9900"/>
    </linearGradient>
    <linearGradient gradientTransform="matrix(0.0199, -4.0E-4, 5.0E-4, 0.0224, -52.35, -4.75)" gradientUnits="userSpaceOnUse" id="gradient4" spreadMethod="pad" x1="-819.2" x2="819.2">
      <stop offset="0.0" stop-color="#a8a8a8"/>
      <stop offset="0.3215686274509804" stop-color="#cccccc"/>
      <stop offset="0.49411764705882355" stop-color="#cccccc"/>
      <stop offset="0.6588235294117647" stop-color="#cacaca"/>
      <stop offset="0.9803921568627451" stop-color="#9c9c9c"/>
    </linearGradient>
  </defs>
</svg>
