<?xml version="1.0" encoding="UTF-8" standalone="no"?>
<svg xmlns:xlink="http://www.w3.org/1999/xlink" height="531.5px" width="460.6px" xmlns="http://www.w3.org/2000/svg">
  <g transform="matrix(1.0, 0.0, 0.0, 1.0, 193.65, 334.05)">
    <use height="135.9" transform="matrix(0.0831, 0.6732, -0.6732, 0.0831, 14.895, -10.1281)" width="74.4" xlink:href="#shape0"/>
    <use height="100.5" transform="matrix(1.0, 0.0, 0.0, 1.0, -74.2, -61.25)" width="58.2" xlink:href="#shape1"/>
  </g>
  <defs>
    <g id="shape0" transform="matrix(1.0, 0.0, 0.0, 1.0, 0.5, 0.5)">
      <path d="M54.2 29.5 L54.7 30.8 Q55.35 32.2 55.3 33.25 55.25 33.65 55.55 34.3 L55.8 35.5 56.0 36.65 56.2 38.2 56.3 39.35 56.35 40.8 56.5 44.55 Q56.4 46.4 55.7 49.25 L52.2 48.7 51.2 48.5 Q47.0 47.65 43.55 46.4 L45.6 39.7 47.2 35.15 Q48.95 30.6 50.65 28.35 L50.8 28.4 52.85 29.0 54.2 29.45 54.2 29.5" fill="#ffcc00" fill-rule="evenodd" stroke="none"/>
      <path d="M55.7 49.25 Q56.4 46.4 56.5 44.55 L56.35 40.8 56.3 39.35 56.2 38.2 56.0 36.65 55.8 35.5 55.55 34.3 Q55.25 33.65 55.3 33.25 55.35 32.2 54.7 30.8 L54.2 29.5 Q57.3 30.6 59.9 32.3 L60.8 34.25 62.6 39.35 62.75 39.8 62.85 40.25 63.05 40.95 63.85 45.0 63.95 46.95 64.1 48.6 64.15 49.8 59.6 49.7 55.7 49.25" fill="#ff6600" fill-rule="evenodd" stroke="none"/>
      <path d="M50.65 28.35 Q48.95 30.6 47.2 35.15 L45.6 39.7 43.55 46.4 42.0 45.8 Q37.45 43.9 34.15 41.35 L33.7 40.9 35.2 38.0 Q37.8 33.55 41.05 30.7 43.2 28.75 45.65 27.45 L46.2 27.55 46.3 27.55 48.5 27.9 48.55 27.9 50.6 28.35 50.65 28.35" fill="#009933" fill-rule="evenodd" stroke="none"/>
      <path d="M40.9 27.25 L42.6 27.2 44.2 27.3 45.65 27.45 Q43.2 28.75 41.05 30.7 37.8 33.55 35.2 38.0 L33.7 40.9 33.05 40.35 Q30.75 38.15 29.5 35.95 L29.0 34.9 29.85 34.1 Q33.8 30.5 38.45 28.25 39.7 27.7 40.9 27.25" fill="#0066cc" fill-rule="evenodd" stroke="none"/>
      <path d="M33.7 40.9 L34.15 41.35 Q37.45 43.9 42.0 45.8 L43.55 46.4 43.05 48.45 31.55 46.25 Q32.65 43.2 33.7 40.9" fill="#00802a" fill-rule="evenodd" stroke="none"/>
      <path d="M43.55 46.4 Q47.0 47.65 51.2 48.5 L52.2 48.7 55.7 49.25 55.4 50.8 43.05 48.45 43.55 46.4" fill="#ecbd00" fill-rule="evenodd" stroke="none"/>
      <path d="M64.15 49.8 L64.1 48.6 63.95 46.95 63.85 45.0 63.05 40.95 62.85 40.25 62.75 39.8 62.6 39.35 60.8 34.25 59.9 32.3 60.95 32.95 Q64.05 35.1 66.6 38.0 L66.7 38.25 68.95 41.25 69.95 43.15 Q71.25 45.85 71.75 48.8 L67.25 49.6 64.15 49.8" fill="#ff0000" fill-rule="evenodd" stroke="none"/>
      <path d="M22.4 44.5 L17.7 43.6 17.4 43.5 17.5 42.95 Q19.8 35.15 28.0 30.75 L28.25 30.65 Q28.15 32.75 29.0 34.9 24.4 39.45 22.4 44.5" fill="#800080" fill-rule="evenodd" stroke="none"/>
      <path d="M28.25 30.65 Q31.6 28.85 35.25 28.0 L37.75 27.55 38.7 27.45 40.9 27.25 Q39.7 27.7 38.45 28.25 33.8 30.5 29.85 34.1 L29.0 34.9 Q28.15 32.75 28.25 30.65" fill="#990099" fill-rule="evenodd" stroke="none"/>
      <path d="M29.0 34.9 L29.5 35.95 Q30.75 38.15 33.05 40.35 L33.7 40.9 Q32.65 43.2 31.55 46.25 L22.4 44.5 Q24.4 39.45 29.0 34.9" fill="#005ab4" fill-rule="evenodd" stroke="none"/>
      <path d="M55.7 49.25 L59.6 49.7 64.15 49.8 64.3 52.25 64.25 52.5 55.4 50.8 55.7 49.25" fill="#e25a00" fill-rule="evenodd" stroke="none"/>
      <path d="M71.75 48.8 Q72.05 50.8 71.95 53.1 L71.85 53.9 71.55 53.85 64.25 52.5 64.3 52.25 64.15 49.8 67.25 49.6 71.75 48.8" fill="#d90000" fill-rule="evenodd" stroke="none"/>
      <path d="M54.2 29.5 L54.2 29.45 52.85 29.0 50.8 28.4 50.65 28.35 50.6 28.35 48.55 27.9 48.5 27.9 46.3 27.55 46.2 27.55 45.65 27.45 44.2 27.3 42.6 27.2 40.9 27.25 38.7 27.45 37.75 27.55 35.25 28.0 Q31.6 28.85 28.25 30.65 L28.0 30.75 Q19.8 35.15 17.5 42.95 L17.4 43.5 M59.9 32.3 Q57.3 30.6 54.2 29.5 M59.9 32.3 L60.95 32.95 Q64.05 35.1 66.6 38.0 L66.7 38.25 68.95 41.25 69.95 43.15 Q71.25 45.85 71.75 48.8 72.05 50.8 71.95 53.1 L71.85 53.9" fill="none" stroke="#000000" stroke-linecap="round" stroke-linejoin="round" stroke-opacity="0.6627451" stroke-width="1.0"/>
      <path d="M15.25 54.65 L15.85 54.7 69.0 64.8 69.5 64.9 68.85 68.6 65.0 67.85 58.0 66.55 14.55 58.25 15.25 54.65 M58.85 120.4 L58.2 124.2 57.8 124.1 4.55 113.9 4.0 113.85 4.7 110.1 48.65 118.45 55.05 119.7 58.85 120.4" fill="#232323" fill-rule="evenodd" stroke="none"/>
      <path d="M14.55 58.25 L58.0 66.55 48.65 118.45 4.7 110.1 14.55 58.25 M65.0 67.85 L68.85 68.6 58.85 120.4 55.05 119.7 65.0 67.85" fill="url(#gradient0)" fill-rule="evenodd" stroke="none"/>
      <path d="M58.0 66.55 L65.0 67.85 55.05 119.7 48.65 118.45 58.0 66.55" fill="#383838" fill-rule="evenodd" stroke="none"/>
      <path d="M15.25 54.65 L14.55 58.25 58.0 66.55 65.0 67.85 68.85 68.6 69.5 64.9 M58.85 120.4 L58.2 124.2 M4.0 113.85 L4.7 110.1 14.55 58.25 M48.65 118.45 L55.05 119.7 58.85 120.4 68.85 68.6 M4.7 110.1 L48.65 118.45" fill="none" stroke="#000000" stroke-linecap="round" stroke-linejoin="round" stroke-opacity="0.6627451" stroke-width="1.0"/>
      <path d="M53.75 134.75 L4.25 125.3 Q2.1 124.95 0.85 123.15 -0.3 121.25 0.15 118.9 L0.15 118.85 Q0.55 116.55 2.3 115.25 3.9 114.05 5.9 114.25 L6.4 114.3 55.9 123.75 56.3 123.9 Q58.2 124.3 59.25 126.0 60.4 128.0 59.95 130.2 L59.95 130.25 Q59.45 132.65 57.75 133.9 55.9 135.25 53.75 134.75" fill="url(#gradient1)" fill-rule="evenodd" stroke="none"/>
      <path d="M53.75 134.75 L4.25 125.3 Q2.1 124.95 0.85 123.15 -0.3 121.25 0.15 118.9 L0.15 118.85 Q0.55 116.55 2.3 115.25 3.9 114.05 5.9 114.25 L6.4 114.3 55.9 123.75 56.3 123.9 Q58.2 124.3 59.25 126.0 60.4 128.0 59.95 130.2 L59.95 130.25 Q59.45 132.65 57.75 133.9 55.9 135.25 53.75 134.75 Z" fill="none" stroke="#000000" stroke-linecap="round" stroke-linejoin="round" stroke-opacity="0.6627451" stroke-width="1.0"/>
      <path d="M15.7 44.9 Q16.3 44.45 17.05 44.2 L19.35 43.85 69.5 53.5 Q70.45 53.7 71.2 54.25 71.9 54.7 72.4 55.5 L72.6 55.75 Q73.1 56.6 73.25 57.5 73.55 58.65 73.3 60.05 L73.3 60.1 Q72.95 62.25 71.1 63.55 69.5 64.8 67.65 64.6 L67.15 64.5 17.7 55.05 17.15 55.0 Q15.3 54.55 14.15 52.7 13.05 50.85 13.55 48.6 L13.55 48.55 Q13.9 46.25 15.6 44.95 L15.7 44.9" fill="url(#gradient2)" fill-rule="evenodd" stroke="none"/>
      <path d="M15.7 44.9 Q16.3 44.45 17.05 44.2 L19.35 43.85 69.5 53.5 Q70.45 53.7 71.2 54.25 71.9 54.7 72.4 55.5 L72.6 55.75 Q73.1 56.6 73.25 57.5 73.55 58.65 73.3 60.05 L73.3 60.1 Q72.95 62.25 71.1 63.55 69.5 64.8 67.65 64.6 L67.15 64.5 17.7 55.05 17.15 55.0 Q15.3 54.55 14.15 52.7 13.05 50.85 13.55 48.6 L13.55 48.55 Q13.9 46.25 15.6 44.95 L15.7 44.9 Z" fill="none" stroke="#000000" stroke-linecap="round" stroke-linejoin="round" stroke-opacity="0.6627451" stroke-width="1.0"/>
      <path d="M54.75 7.95 L56.55 8.0 Q58.45 8.35 59.65 9.95 60.8 11.65 60.4 13.75 60.05 15.75 58.3 16.85 56.7 18.05 54.7 17.7 53.85 17.55 53.15 17.2 52.15 16.65 51.45 15.55 50.35 13.85 50.7 11.95 51.1 9.8 52.75 8.7 53.65 8.1 54.75 7.95 M55.85 11.5 L54.7 11.6 Q54.2 11.95 54.1 12.6 53.95 13.25 54.4 13.65 54.75 14.15 55.4 14.2 L56.5 14.0 57.0 13.15 Q57.1 12.5 56.8 12.0 56.45 11.55 55.85 11.5" fill="#c9ab8e" fill-opacity="0.9019608" fill-rule="evenodd" stroke="none"/>
      <path d="M55.85 11.5 Q56.45 11.55 56.8 12.0 57.1 12.5 57.0 13.15 L56.5 14.0 55.4 14.2 Q54.75 14.15 54.4 13.65 53.95 13.25 54.1 12.6 54.2 11.95 54.7 11.6 L55.85 11.5" fill="#826e5b" fill-opacity="0.9019608" fill-rule="evenodd" stroke="none"/>
      <path d="M54.75 7.95 Q53.65 8.1 52.75 8.7 51.1 9.8 50.7 11.95 50.35 13.85 51.45 15.55 52.15 16.65 53.15 17.2 53.85 17.55 54.7 17.7 56.7 18.05 58.3 16.85 60.05 15.75 60.4 13.75 60.8 11.65 59.65 9.95 58.45 8.35 56.55 8.0 L54.75 7.95 M44.9 23.6 L40.65 22.3 Q40.55 11.55 44.8 0.55 46.6 -0.85 50.2 1.45 54.3 3.95 58.05 3.3 61.0 2.0 63.1 4.95 62.6 15.55 58.7 25.75 L54.4 25.5 52.15 25.15 49.5 24.75 47.0 24.15 44.9 23.6" fill="#f9eadb" fill-opacity="0.9019608" fill-rule="evenodd" stroke="none"/>
      <path d="M54.4 25.5 L53.8 28.8 51.6 28.25 49.1 27.7 49.0 27.7 46.45 27.3 44.25 27.0 44.9 23.6 47.0 24.15 49.5 24.75 52.15 25.15 54.4 25.5 M46.45 27.3 L47.0 24.15 46.45 27.3 M49.0 27.7 L49.5 24.75 49.0 27.7 M51.6 28.25 L52.15 25.15 51.6 28.25" fill="#9e7f61" fill-opacity="0.9019608" fill-rule="evenodd" stroke="none"/>
      <path d="M54.75 7.95 L56.55 8.0 Q58.45 8.35 59.65 9.95 60.8 11.65 60.4 13.75 60.05 15.75 58.3 16.85 56.7 18.05 54.7 17.7 53.85 17.55 53.15 17.2 52.15 16.65 51.45 15.55 50.35 13.85 50.7 11.95 51.1 9.8 52.75 8.7 53.65 8.1 54.75 7.95 M55.85 11.5 Q56.45 11.55 56.8 12.0 57.1 12.5 57.0 13.15 L56.5 14.0 55.4 14.2 Q54.75 14.15 54.4 13.65 53.95 13.25 54.1 12.6 54.2 11.95 54.7 11.6 L55.85 11.5 M44.9 23.6 L40.65 22.3 Q40.55 11.55 44.8 0.55 46.6 -0.85 50.2 1.45 54.3 3.95 58.05 3.3 61.0 2.0 63.1 4.95 62.6 15.55 58.7 25.75 L54.4 25.5 53.8 28.8 M44.25 27.0 L44.9 23.6 47.0 24.15 49.5 24.75 52.15 25.15 54.4 25.5 M52.15 25.15 L51.6 28.25 M49.5 24.75 L49.0 27.7 M47.0 24.15 L46.45 27.3" fill="none" stroke="#000000" stroke-linecap="round" stroke-linejoin="round" stroke-opacity="0.6627451" stroke-width="1.0"/>
      <path d="M38.75 49.95 Q39.45 51.05 39.0 53.25 38.8 54.5 37.35 55.95 35.6 57.55 33.85 57.2 33.0 57.05 31.95 55.35 31.05 53.8 31.05 53.5 L32.25 51.25 Q33.4 49.2 33.7 48.9 37.6 48.05 38.75 49.95 M27.25 108.8 L26.2 108.8 Q25.65 108.7 25.4 108.5 25.1 108.3 24.65 108.25 L24.35 106.75 26.7 106.6 Q27.55 107.1 27.7 108.6 L27.25 108.8 M58.35 16.35 L57.2 16.7 Q56.25 15.3 56.35 14.95 56.65 13.4 58.6 14.2 L58.65 14.55 58.65 15.4 58.45 16.35 58.35 16.35" fill="#ff0000" fill-rule="evenodd" stroke="none"/>
      <path d="M23.25 96.9 L21.95 96.65 Q20.35 95.0 20.55 93.95 21.1 90.85 23.6 91.2 26.0 91.5 25.55 94.2 L24.9 96.0 Q24.35 96.75 23.25 96.9 M60.15 8.3 L58.1 8.05 58.0 7.8 58.0 7.15 58.2 6.35 Q59.8 6.6 60.25 7.6 L60.15 8.3" fill="#ffcc00" fill-rule="evenodd" stroke="none"/>
      <path d="M38.95 74.8 Q37.45 76.25 35.95 75.95 34.0 75.6 33.75 72.05 33.55 69.95 33.85 68.3 34.15 67.0 35.3 66.75 36.4 66.4 37.8 67.15 41.05 68.75 40.45 72.05 40.2 73.45 38.95 74.8 M51.4 17.35 L50.85 16.6 50.8 16.8 Q50.2 17.8 48.65 17.45 47.9 17.1 47.85 16.4 L47.95 15.45 Q48.3 13.8 49.85 13.05 51.4 12.25 51.55 14.85 L51.9 14.85 52.1 14.45 Q52.5 14.5 52.55 14.95 52.2 15.05 51.8 15.35 L52.15 15.4 52.3 16.55 52.05 17.1 51.4 17.35" fill="#005ab4" fill-rule="evenodd" stroke="none"/>
      <path d="M62.05 55.65 L62.8 55.85 63.7 57.0 Q63.25 57.65 61.9 57.4 L61.85 57.15 61.75 56.6 62.05 55.65 M51.1 70.85 L51.75 71.05 51.85 71.95 Q51.55 73.3 49.2 73.35 L48.45 72.6 49.95 71.35 51.1 70.85 M16.9 86.2 Q16.8 85.95 17.0 85.2 17.15 84.25 17.4 83.65 L18.0 83.7 18.85 85.4 Q18.55 86.9 17.1 86.8 L16.9 86.2 M51.55 8.8 Q48.3 8.0 47.4 7.3 L47.35 7.15 46.95 7.1 45.9 6.55 Q45.75 6.1 45.9 5.4 L47.95 4.9 Q49.75 4.4 51.1 6.4 L51.5 6.65 51.95 7.25 51.55 7.6 51.2 7.8 52.35 8.3 Q52.1 8.75 51.55 8.8" fill="#009933" fill-rule="evenodd" stroke="none"/>
      <path d="M45.5 86.95 Q45.7 87.15 45.55 87.8 45.35 88.8 44.5 89.35 L43.2 89.7 42.35 89.4 42.35 89.25 42.15 89.05 42.15 88.1 Q42.35 87.3 43.2 86.7 L45.4 86.6 45.5 86.95 M27.55 49.15 Q26.85 50.05 26.25 50.05 25.3 48.6 25.4 48.1 25.65 46.7 25.9 46.55 26.35 46.2 28.2 46.9 L28.3 47.0 28.25 47.8 27.55 49.15" fill="#800080" fill-rule="evenodd" stroke="none"/>
      <path d="M9.3 104.95 Q9.8 102.45 11.3 100.85 13.6 98.5 17.35 99.5 18.4 100.35 19.8 105.55 19.45 107.35 17.3 108.9 14.9 110.85 12.3 110.35 8.45 109.65 9.3 104.95" fill="#ff6600" fill-rule="evenodd" stroke="none"/>
    </g>
    <radialGradient cx="0" cy="0" gradientTransform="matrix(-0.0023, 0.0466, -0.0466, -0.0023, 60.2, 79.5)" gradientUnits="userSpaceOnUse" id="gradient0" r="819.2" spreadMethod="pad">
      <stop offset="0.0" stop-color="#333333"/>
      <stop offset="1.0" stop-color="#0c0c0c"/>
    </radialGradient>
    <linearGradient gradientTransform="matrix(0.0161, -0.0015, 4.0E-4, 0.0068, 55.6, 128.25)" gradientUnits="userSpaceOnUse" id="gradient1" spreadMethod="pad" x1="-819.2" x2="819.2">
      <stop offset="0.0" stop-color="#979797"/>
      <stop offset="1.0" stop-color="#ffffff"/>
    </linearGradient>
    <linearGradient gradientTransform="matrix(0.012, -0.0046, 0.0021, 0.0064, 61.2, 56.0)" gradientUnits="userSpaceOnUse" id="gradient2" spreadMethod="pad" x1="-819.2" x2="819.2">
      <stop offset="0.0" stop-color="#979797"/>
      <stop offset="1.0" stop-color="#ffffff"/>
    </linearGradient>
    <g id="shape1" transform="matrix(1.0, 0.0, 0.0, 1.0, 74.2, 61.25)">
      <path d="M-55.15 -60.6 L-55.2 -60.5 -56.75 -56.5 -58.85 -51.35 Q-62.45 -42.15 -64.5 -35.55 -66.6 -29.05 -68.05 -23.0 -68.75 -20.55 -68.9 -18.0 L-69.45 -11.05 Q-69.7 -6.6 -68.85 -0.8 L-66.75 12.55 Q-65.45 20.15 -64.55 23.4 L-63.25 26.85 -62.1 28.9 -63.6 27.5 -63.8 27.25 Q-65.45 25.0 -66.45 22.15 -67.55 19.05 -69.1 11.8 L-71.6 -1.0 Q-72.6 -6.55 -72.35 -10.8 L-71.9 -17.45 Q-71.7 -19.85 -71.0 -22.2 -69.45 -28.0 -67.2 -34.2 -65.0 -40.5 -61.1 -49.3 L-58.05 -56.1 -56.65 -59.3 Q-56.15 -60.55 -56.45 -60.05 L-56.45 -60.1 -56.45 -60.55 -56.25 -60.55 -55.15 -60.6 M-34.35 37.35 Q-32.85 34.55 -32.15 30.4 -31.65 27.6 -31.0 17.75 L-30.85 14.8 -30.35 9.95 Q-30.15 8.4 -28.55 6.9 L-28.0 6.45 -28.1 6.8 -28.95 12.45 -28.95 13.35 -28.95 14.1 -28.95 15.15 -29.15 16.3 -29.3 18.55 -29.35 19.55 Q-29.7 21.05 -29.7 25.7 L-30.6 32.3 -31.1 33.7 Q-32.15 36.15 -34.35 37.35 M-22.8 2.8 L-23.15 2.65 -22.7 2.55 -22.7 2.5 -22.2 2.2 -22.0 1.9 -21.95 1.55 -22.35 -0.1 -22.4 -0.4 -23.2 -3.15 -23.2 -3.35 -23.9 -5.25 -24.6 -6.0 -22.85 -6.05 Q-22.15 -6.05 -21.65 -5.25 L-20.85 -3.4 -20.8 -3.25 -19.95 -0.6 -19.8 -0.3 -19.4 1.25 Q-19.4 1.7 -19.65 1.9 L-20.25 2.15 -20.25 2.2 -20.9 2.3 -22.8 2.8 M-26.05 -6.05 L-27.8 -6.1 -28.0 -6.65 Q-28.65 -8.15 -29.0 -10.7 L-29.4 -14.75 Q-29.4 -16.1 -28.65 -19.5 L-28.1 -22.1 -25.05 -31.15 -19.15 -46.4 -17.15 -43.8 -23.25 -30.0 Q-25.4 -25.0 -26.55 -21.35 L-27.15 -18.85 Q-27.9 -15.6 -27.9 -14.3 L-27.4 -10.45 Q-26.95 -8.0 -26.25 -6.6 L-26.05 -6.05" fill="#bdbdbd" fill-rule="evenodd" stroke="none"/>
      <path d="M-62.1 28.9 L-63.25 26.85 -64.55 23.4 Q-65.45 20.15 -66.75 12.55 L-68.85 -0.8 Q-69.7 -6.6 -69.45 -11.05 L-68.9 -18.0 Q-68.75 -20.55 -68.05 -23.0 -66.6 -29.05 -64.5 -35.55 -62.45 -42.15 -58.85 -51.35 L-56.75 -56.5 -55.2 -60.5 -55.15 -60.6 Q-31.05 -60.9 -19.15 -46.4 L-25.05 -31.15 -28.1 -22.1 -28.65 -19.5 Q-29.4 -16.1 -29.4 -14.75 L-29.0 -10.7 Q-28.65 -8.15 -28.0 -6.65 L-27.8 -6.1 -26.05 -6.05 -24.6 -6.0 -23.9 -5.25 -23.2 -3.35 -23.2 -3.15 -22.4 -0.4 -22.35 -0.1 -21.95 1.55 -22.0 1.9 -22.2 2.2 -22.7 2.5 -22.7 2.55 -23.15 2.65 -22.8 2.8 Q-24.15 3.25 -25.45 4.0 L-26.0 4.35 -27.1 5.2 Q-27.8 5.85 -28.0 6.45 L-28.55 6.9 Q-30.15 8.4 -30.35 9.95 L-30.85 14.8 -31.0 17.75 Q-31.65 27.6 -32.15 30.4 -32.85 34.55 -34.35 37.35 L-35.05 37.7 -36.5 37.5 -38.5 37.0 -41.6 35.3 -42.45 33.8 -43.9 31.9 -44.35 31.8 -44.8 31.85 -45.0 32.05 -45.05 32.2 -45.65 32.6 Q-47.3 33.85 -50.1 33.95 -52.95 34.0 -55.7 29.95 -58.5 25.9 -58.75 26.25 L-59.1 27.05 Q-59.1 28.05 -58.2 29.5 L-57.7 30.25 -58.0 30.2 Q-60.5 29.85 -62.1 28.9" fill="#999999" fill-rule="evenodd" stroke="none"/>
      <path d="M-56.45 -60.55 L-56.45 -60.1 -56.45 -60.05 Q-56.15 -60.55 -56.65 -59.3 L-58.05 -56.1 -61.1 -49.3 Q-65.0 -40.5 -67.2 -34.2 -69.45 -28.0 -71.0 -22.2 -71.7 -19.85 -71.9 -17.45 L-72.35 -10.8 Q-72.6 -6.55 -71.6 -1.0 L-69.1 11.8 Q-67.55 19.05 -66.45 22.15 -65.45 25.0 -63.8 27.25 L-63.6 27.5 -62.1 28.9 Q-60.5 29.85 -58.0 30.2 L-57.7 30.25 -58.2 29.5 Q-59.1 28.05 -59.1 27.05 L-58.75 26.25 Q-58.5 25.9 -55.7 29.95 -52.95 34.0 -50.1 33.95 -47.3 33.85 -45.65 32.6 L-45.05 32.2 -45.0 32.05 -44.8 31.85 -44.35 31.8 -43.9 31.9 -42.45 33.8 -41.6 35.3 -38.5 37.0 -36.5 37.5 -35.05 37.7 -34.35 37.35 Q-32.15 36.15 -31.1 33.7 L-30.6 32.3 -29.7 25.7 Q-29.7 21.05 -29.35 19.55 L-29.3 18.55 -29.15 16.3 -28.95 15.15 -28.95 14.1 -28.95 13.35 -28.95 12.45 -28.1 6.8 -28.0 6.45 Q-27.8 5.85 -27.1 5.2 L-26.0 4.35 -25.45 4.0 Q-24.15 3.25 -22.8 2.8 L-20.9 2.3 -20.25 2.2 -20.25 2.15 -19.65 1.9 Q-19.4 1.7 -19.4 1.25 L-19.8 -0.3 -19.95 -0.6 -20.8 -3.25 -20.85 -3.4 -21.65 -5.25 Q-22.15 -6.05 -22.85 -6.05 L-24.6 -6.0 -26.05 -6.05 -26.25 -6.6 Q-26.95 -8.0 -27.4 -10.45 L-27.9 -14.3 Q-27.9 -15.6 -27.15 -18.85 L-26.55 -21.35 Q-25.4 -25.0 -23.25 -30.0 L-17.15 -43.8 -17.0 -44.2 -16.45 -43.85 -16.3 -43.7 Q-16.0 -43.3 -16.0 -42.45 L-21.25 -31.35 Q-26.5 -19.25 -26.5 -13.35 L-26.0 -9.45 -25.55 -7.65 -25.45 -7.4 -23.15 -7.7 -20.8 -7.4 -20.0 -6.0 Q-18.65 -3.35 -18.1 -0.35 L-17.95 0.3 Q-17.6 2.0 -17.6 2.6 -17.6 3.5 -18.2 3.75 L-20.1 4.2 -20.55 4.25 Q-22.3 4.5 -24.05 5.45 -25.85 6.35 -26.3 8.1 -26.85 9.8 -27.05 12.4 L-27.15 13.8 -27.2 14.1 -27.5 15.95 -27.65 17.1 -27.6 17.65 -27.85 22.4 -28.35 29.05 -28.85 32.3 -29.2 33.9 Q-30.55 39.05 -35.5 39.25 L-36.5 39.2 Q-40.0 38.95 -42.6 36.65 L-43.9 35.4 -44.3 34.75 Q-47.1 36.1 -48.75 36.1 L-49.05 36.1 Q-50.6 36.05 -52.05 35.4 -54.3 34.45 -56.3 32.1 L-56.3 32.05 -56.5 32.15 -56.95 32.25 -58.0 32.3 Q-65.4 32.3 -68.5 21.8 L-69.95 16.5 -71.2 10.85 -72.9 0.35 Q-74.2 -7.1 -74.2 -10.75 -74.2 -14.45 -72.85 -20.25 -71.5 -26.1 -64.0 -45.8 -57.15 -63.95 -56.5 -60.75 L-56.45 -60.55" fill="#000000" fill-rule="evenodd" stroke="none"/>
    </g>
  </defs>
</svg>
