<?xml version="1.0" encoding="UTF-8" standalone="no"?>
<svg xmlns:xlink="http://www.w3.org/1999/xlink" height="531.5px" width="460.6px" xmlns="http://www.w3.org/2000/svg">
  <g transform="matrix(1.0, 0.0, 0.0, 1.0, 193.65, 334.05)">
    <use height="63.2" transform="matrix(1.4524, 0.0, 0.0, 1.7549, 26.5776, -103.3008)" width="67.45" xlink:href="#sprite0"/>
    <use height="60.1" transform="matrix(1.0, 0.0, 0.0, 1.0, -50.9, -67.15)" width="178.1" xlink:href="#shape1"/>
  </g>
  <defs>
    <g id="sprite0" transform="matrix(1.0, 0.0, 0.0, 1.0, -18.85, 10.4)">
      <use height="63.2" transform="matrix(1.0, 0.0, 0.0, 1.0, 18.85, -10.4)" width="67.45" xlink:href="#shape0"/>
    </g>
    <g id="shape0" transform="matrix(1.0, 0.0, 0.0, 1.0, -18.85, 10.4)">
      <path d="M54.0 30.3 Q51.85 31.25 50.2 31.6 48.1 30.55 45.9 28.9 40.3 26.55 44.8 31.5 46.4 32.5 48.05 33.2 L46.95 32.95 45.85 32.7 43.45 32.45 42.45 32.7 Q42.15 33.1 42.55 34.05 L40.4 31.45 Q39.55 30.45 39.15 29.4 39.8 27.5 40.7 26.85 L43.45 26.45 Q44.45 26.45 46.15 27.35 47.35 27.95 48.1 28.15 L48.55 28.35 Q49.95 29.15 51.9 29.75 L53.2 30.2 54.0 30.3 M58.6 38.65 L58.8 37.9 59.9 38.7 58.6 38.65" fill="#637a56" fill-rule="evenodd" stroke="none"/>
      <path d="M54.0 30.3 L56.95 30.55 60.7 31.05 60.85 31.4 61.1 33.2 Q64.05 33.8 60.65 34.95 L60.5 35.0 59.05 37.0 58.9 37.55 58.45 37.65 58.8 37.9 58.6 38.65 57.9 38.65 56.6 38.65 52.25 38.7 52.0 38.7 48.3 38.7 47.85 38.75 45.4 38.8 46.2 36.5 45.4 36.25 Q44.05 35.85 42.9 34.45 L42.55 34.05 Q42.15 33.1 42.45 32.7 L43.45 32.45 45.85 32.7 46.95 32.95 48.05 33.2 Q46.4 32.5 44.8 31.5 40.3 26.55 45.9 28.9 48.1 30.55 50.2 31.6 51.85 31.25 54.0 30.3 M52.0 38.7 L49.15 37.8 48.8 37.65 47.25 36.95 46.2 36.5 47.25 36.95 48.8 37.65 49.15 37.8 52.0 38.7" fill="#2e3627" fill-rule="evenodd" stroke="none"/>
      <path d="M58.9 37.55 L59.05 37.0 60.5 35.0 60.65 34.95 Q64.05 33.8 61.1 33.2 L60.85 31.4 60.7 31.05 60.95 31.1 62.2 31.45 Q63.8 32.0 64.15 32.45 L65.1 33.95 Q65.15 35.95 63.15 36.65 L58.9 37.55" fill="#536347" fill-rule="evenodd" stroke="none"/>
      <path d="M48.1 28.15 Q47.35 27.95 46.15 27.35 44.45 26.45 43.45 26.45 L40.7 26.85 Q39.8 27.5 39.15 29.4 38.15 26.6 40.6 23.5 44.6 25.25 46.5 26.95 L48.1 28.15" fill="#8da37e" fill-rule="evenodd" stroke="none"/>
      <path d="M52.0 38.7 L52.25 38.7 56.6 38.65 57.65 41.25 Q58.35 43.1 58.35 44.2 58.35 46.9 56.95 49.0 55.7 50.85 53.55 51.85 L53.6 52.0 53.2 52.0 52.25 52.05 49.4 51.95 44.6 51.5 44.1 51.25 43.95 51.15 43.75 50.8 43.6 50.3 43.25 48.15 Q42.8 43.9 43.5 39.6 L43.65 39.4 44.5 38.8 45.4 38.8 47.85 38.75 48.3 38.7 52.0 38.7 M48.9 47.4 L50.0 48.65 51.8 49.25 52.65 49.3 54.55 48.75 Q56.15 48.2 56.5 46.85 L56.9 44.65 Q56.9 43.85 56.55 43.15 L56.45 43.0 55.65 41.75 55.5 41.65 54.75 41.5 54.5 41.5 52.5 42.15 51.5 41.95 51.35 41.9 48.7 42.05 Q47.65 42.95 48.25 45.55 48.5 46.7 48.9 47.4" fill="#664646" fill-rule="evenodd" stroke="none"/>
      <path d="M56.55 43.15 Q56.9 43.85 56.9 44.65 L56.5 46.85 Q56.15 48.2 54.55 48.75 L52.65 49.3 51.8 49.25 50.0 48.65 48.9 47.4 Q53.25 47.9 54.85 46.25 55.95 45.1 55.75 42.4 L56.55 43.15" fill="#443c3c" fill-rule="evenodd" stroke="none"/>
      <path d="M48.9 47.4 Q48.5 46.7 48.25 45.55 47.65 42.95 48.7 42.05 L51.35 41.9 51.5 41.95 52.5 42.15 51.05 43.35 50.95 43.8 50.9 44.15 52.35 46.2 Q53.1 45.45 53.45 45.45 53.8 45.45 53.8 45.7 53.8 45.95 54.1 45.95 54.8 45.95 55.0 44.45 L55.45 42.1 54.75 41.5 55.5 41.65 55.65 41.75 56.45 43.0 56.55 43.15 55.75 42.4 Q55.95 45.1 54.85 46.25 53.25 47.9 48.9 47.4" fill="#665757" fill-rule="evenodd" stroke="none"/>
      <path d="M56.6 38.65 L57.9 38.65 58.6 38.65 59.9 38.7 60.85 38.7 61.15 38.8 Q61.1 40.8 59.75 42.45 58.85 43.5 58.7 45.75 60.4 44.55 62.3 43.9 L62.1 48.05 61.75 50.2 Q61.6 51.1 61.0 51.35 L60.75 51.4 55.05 51.95 Q58.25 50.15 57.55 49.6 56.0 51.05 54.85 51.65 L53.6 52.0 53.55 51.85 Q55.7 50.85 56.95 49.0 58.35 46.9 58.35 44.2 58.35 43.1 57.65 41.25 L56.6 38.65" fill="#513737" fill-rule="evenodd" stroke="none"/>
      <path d="M52.5 42.15 L54.5 41.5 54.75 41.5 55.45 42.1 55.0 44.45 Q54.8 45.95 54.1 45.95 53.8 45.95 53.8 45.7 53.8 45.45 53.45 45.45 53.1 45.45 52.35 46.2 L50.9 44.15 50.95 43.8 51.05 43.35 52.5 42.15" fill="#9f9393" fill-rule="evenodd" stroke="none"/>
      <path d="M61.15 38.8 L61.6 39.1 61.75 39.35 61.8 39.4 61.8 39.45 61.85 39.5 62.3 43.9 Q60.4 44.55 58.7 45.75 58.85 43.5 59.75 42.45 61.1 40.8 61.15 38.8" fill="#662626" fill-rule="evenodd" stroke="none"/>
      <path d="M60.7 31.05 L56.95 30.55 54.0 30.3 53.2 30.2 51.9 29.75 Q49.95 29.15 48.55 28.35 M42.55 34.05 L42.9 34.45 Q44.05 35.85 45.4 36.25 L46.2 36.5 47.25 36.95 48.8 37.65 49.15 37.8 52.0 38.7 52.25 38.7 56.6 38.65 57.9 38.65 58.6 38.65 59.9 38.7 60.85 38.7 61.15 38.8 61.6 39.1 61.65 39.1 61.8 39.4 61.8 39.45 61.85 39.5 62.3 43.9 62.1 48.05 61.75 50.2 Q61.6 51.1 61.0 51.35 L60.75 51.4 55.05 51.95 Q58.25 50.15 57.55 49.6 56.0 51.05 54.85 51.65 L53.6 52.0 53.2 52.0 52.25 52.05 49.4 51.95 44.6 51.5 44.1 51.25 43.95 51.15 43.75 50.8 43.6 50.3 43.25 48.15 Q42.8 43.9 43.5 39.6 L43.65 39.4 44.5 38.8 45.4 38.8 47.85 38.75 48.3 38.7 52.0 38.7 M58.8 37.9 L58.45 37.65 58.9 37.55 63.15 36.65 Q65.15 35.95 65.1 33.95 L64.15 32.45 Q63.8 32.0 62.2 31.45 L60.95 31.1 60.7 31.05 M39.15 29.4 Q39.55 30.45 40.4 31.45 L42.55 34.05 M48.1 28.15 L46.5 26.95 Q44.6 25.25 40.6 23.5 38.15 26.6 39.15 29.4 M56.55 43.15 Q56.9 43.85 56.9 44.65 L56.5 46.85 Q56.15 48.2 54.55 48.75 L52.65 49.3 51.8 49.25 50.0 48.65 48.9 47.4 Q48.5 46.7 48.25 45.55 47.65 42.95 48.7 42.05 L51.35 41.9 51.5 41.95 52.5 42.15 54.5 41.5 54.75 41.5 55.5 41.65 M55.65 41.75 L56.45 43.0 56.55 43.15 M58.8 37.9 L59.9 38.7 M52.5 42.15 L51.05 43.35 50.95 43.8 M62.3 43.9 Q60.4 44.55 58.7 45.75 58.85 43.5 59.75 42.45 61.1 40.8 61.15 38.8 M46.2 36.5 L45.4 38.8 M61.6 39.1 L61.75 39.35 61.8 39.4" fill="none" stroke="#000000" stroke-linecap="round" stroke-linejoin="round" stroke-opacity="0.6627451" stroke-width="1.5"/>
      <path d="M27.5 -7.25 L28.5 -7.65 29.05 -7.75 29.05 -7.15 29.05 -5.9 28.35 -6.5 27.5 -7.25 M51.75 -2.9 L50.65 -1.1 50.5 -0.95 48.35 -1.75 47.85 -1.95 46.65 -2.3 46.65 -3.0 51.75 -2.9 M43.5 -2.95 L42.3 -5.35 42.8 -3.1 40.2 -3.55 40.15 -4.45 41.75 -6.35 44.7 -2.75 43.65 -3.05 43.5 -2.95 M45.1 3.15 L45.95 4.8 42.25 3.05 44.95 5.85 Q41.75 8.25 39.6 10.4 L40.9 3.05 38.3 2.75 38.1 2.35 38.2 2.35 39.45 1.95 39.7 1.9 Q41.4 1.65 45.1 3.15 M52.6 14.25 L53.0 14.4 47.7 16.85 Q44.25 18.2 42.95 21.05 41.1 21.4 39.4 22.3 38.9 22.55 38.3 24.7 L36.55 22.8 Q34.85 17.15 37.05 13.6 L36.85 16.0 36.75 16.35 37.0 16.4 39.7 13.8 Q40.65 13.3 42.5 13.35 L45.8 13.25 48.85 14.05 52.2 14.4 52.6 14.25 M45.3 32.8 L45.35 34.55 45.6 37.7 47.5 38.7 Q46.3 39.8 44.5 39.45 44.95 39.05 44.4 38.0 43.9 37.2 43.95 36.7 L42.9 35.85 Q42.7 36.2 42.4 36.0 L43.45 38.55 Q43.3 38.6 43.3 38.85 L43.5 39.1 40.5 37.15 Q39.05 35.4 39.6 34.0 39.85 33.15 40.9 32.4 L41.0 32.65 41.2 32.6 Q42.15 32.05 42.85 32.15 43.8 32.2 45.3 32.8 M24.65 14.15 L23.5 11.65 23.45 11.5 22.8 10.05 23.75 11.65 Q24.05 12.25 24.6 11.95 L25.2 11.35 Q25.65 10.7 25.45 9.9 L25.0 10.05 24.55 9.15 24.9 8.45 Q24.6 8.85 24.1 8.2 24.25 7.55 23.75 6.55 L22.75 7.75 22.25 8.6 Q20.7 4.7 20.0 2.0 L19.9 1.4 21.7 0.75 23.15 0.6 22.5 -0.65 24.5 -2.1 25.7 -2.3 26.95 -2.55 28.35 -3.85 29.2 -4.6 29.55 -0.15 29.2 -4.6 29.05 -5.9 29.85 -5.2 30.2 -5.45 30.25 -4.85 30.8 0.45 Q30.8 1.75 30.2 3.4 L29.3 5.45 Q28.85 6.25 29.0 8.25 29.1 10.15 28.35 11.15 L26.4 12.9 24.65 14.15 M42.1 13.95 L41.65 14.45 41.2 13.8 40.3 14.7 40.15 14.55 Q39.95 14.8 39.85 15.4 39.75 16.35 40.1 16.8 40.5 15.9 41.65 15.35 42.5 14.9 42.3 14.1 L42.1 13.95 M27.85 6.9 Q27.5 4.85 27.75 3.9 L30.2 3.4 27.75 3.9 Q27.5 4.85 27.85 6.9 M37.75 20.65 L36.25 19.9 36.5 21.1 37.0 22.7 38.6 22.75 39.15 22.05 38.9 21.9 38.5 22.1 37.75 20.65 M26.25 9.2 Q25.1 14.2 23.5 11.65 25.1 14.2 26.25 9.2" fill="#663316" fill-rule="evenodd" stroke="none"/>
      <path d="M27.5 -7.25 L28.35 -6.5 29.05 -5.9 29.05 -7.15 29.05 -7.75 29.8 -8.05 30.0 -6.55 30.2 -5.45 29.85 -5.2 29.05 -5.9 29.2 -4.6 28.35 -3.85 26.95 -2.55 25.7 -2.3 24.5 -2.1 22.5 -0.65 23.15 0.6 21.7 0.75 19.9 1.4 19.6 0.1 19.8 -0.5 Q23.65 -5.5 27.1 -7.0 L27.5 -7.25 M37.5 12.85 Q42.4 9.75 52.6 14.25 L52.2 14.4 48.85 14.05 45.8 13.25 42.5 13.35 Q40.65 13.3 39.7 13.8 L37.0 16.4 36.75 16.35 36.85 16.0 37.05 13.6 37.4 13.1 37.5 12.85" fill="#884433" fill-rule="evenodd" stroke="none"/>
      <path d="M29.8 -8.05 L32.05 -8.6 34.75 -6.05 35.85 -4.8 37.75 -2.55 38.05 -3.05 38.45 -3.7 39.9 -3.55 40.15 -3.5 40.25 -3.25 Q40.4 -1.5 39.4 -0.95 38.8 -0.65 37.65 -0.45 L37.05 -1.25 Q34.95 -3.45 30.0 -6.55 L29.8 -8.05" fill="#8f8181" fill-rule="evenodd" stroke="none"/>
      <path d="M52.95 -4.85 L52.25 -3.7 51.75 -2.9 46.65 -3.0 46.65 -2.3 46.65 -0.45 44.7 -2.75 41.75 -6.35 40.15 -4.45 39.9 -3.55 38.45 -3.7 38.05 -3.05 37.75 -2.55 35.85 -4.8 34.75 -6.05 Q36.8 -5.9 37.75 -6.5 39.2 -7.25 41.35 -7.5 44.05 -7.8 44.65 -6.45 L48.3 -6.2 52.95 -4.85 M39.6 10.4 Q38.35 11.5 37.55 12.6 L37.5 12.6 37.1 13.15 37.4 13.1 37.05 13.6 Q34.85 17.15 36.55 22.8 L38.3 24.7 37.8 26.7 36.25 26.3 34.3 26.15 Q34.95 27.2 35.8 27.75 L35.75 28.15 32.85 27.55 30.9 26.95 29.4 23.85 24.65 14.15 26.4 12.9 28.35 11.15 Q29.1 10.15 29.0 8.25 28.85 6.25 29.3 5.45 L30.2 3.4 Q30.8 1.75 30.8 0.45 L30.25 -4.85 30.2 -5.45 30.0 -6.55 Q34.95 -3.45 37.05 -1.25 L37.65 -0.45 36.9 -0.4 38.1 2.35 38.3 2.75 40.9 3.05 39.6 10.4 M47.5 38.7 L47.7 38.85 47.4 40.45 47.2 40.8 47.4 41.1 47.65 41.0 47.9 40.8 48.35 40.85 48.75 40.9 48.8 42.25 Q48.85 42.75 49.25 43.5 49.65 44.25 50.15 44.0 L50.2 43.95 50.75 45.75 52.0 47.2 51.95 47.35 Q48.4 48.05 45.6 50.2 L44.3 51.45 44.05 51.8 43.75 52.05 42.9 50.55 38.25 41.55 37.65 40.4 Q37.9 36.05 39.6 34.0 39.05 35.4 40.5 37.15 L43.5 39.1 43.3 38.85 Q43.3 38.6 43.45 38.55 L42.4 36.0 Q42.7 36.2 42.9 35.85 L43.95 36.7 Q43.9 37.2 44.4 38.0 44.95 39.05 44.5 39.45 L43.5 39.1 44.5 39.45 Q46.3 39.8 47.5 38.7 M22.8 10.05 L22.25 8.6 22.75 7.75 23.75 6.55 Q24.25 7.55 24.1 8.2 24.6 8.85 24.9 8.45 L24.55 9.15 25.0 10.05 25.45 9.9 Q25.65 10.7 25.2 11.35 L24.6 11.95 Q24.05 12.25 23.75 11.65 L22.8 10.05 M48.35 -1.75 L49.7 -0.5 49.65 -0.3 49.5 -0.1 Q49.35 0.0 49.0 -0.25 L48.5 -0.4 48.25 0.5 47.9 0.3 47.35 -0.35 47.85 -0.7 Q48.05 -1.15 47.85 -1.95 L48.35 -1.75 M42.1 13.95 L42.3 14.1 Q42.5 14.9 41.65 15.35 40.5 15.9 40.1 16.8 39.75 16.35 39.85 15.4 39.95 14.8 40.15 14.55 L40.3 14.7 41.2 13.8 41.65 14.45 42.1 13.95 M37.75 20.65 L38.5 22.1 38.9 21.9 39.15 22.05 38.6 22.75 37.0 22.7 36.5 21.1 36.25 19.9 37.75 20.65" fill="#664646" fill-rule="evenodd" stroke="none"/>
      <path d="M40.25 -3.25 L40.15 -3.5 39.9 -3.55 40.15 -4.45 40.2 -3.55 40.25 -3.25" fill="#665757" fill-rule="evenodd" stroke="none"/>
      <path d="M50.5 -0.95 L49.15 1.3 47.1 3.8 43.5 -2.95 43.65 -3.05 44.7 -2.75 46.65 -0.45 46.65 -2.3 47.85 -1.95 Q48.05 -1.15 47.85 -0.7 L47.35 -0.35 47.9 0.3 48.25 0.5 48.5 -0.4 49.0 -0.25 Q49.35 0.0 49.5 -0.1 L49.65 -0.3 49.7 -0.5 48.35 -1.75 50.5 -0.95 M42.8 -3.1 Q43.6 0.1 45.1 3.15 41.4 1.65 39.7 1.9 L39.45 1.95 38.2 2.35 38.1 2.35 36.9 -0.4 37.65 -0.45 Q38.8 -0.65 39.4 -0.95 40.4 -1.5 40.25 -3.25 L40.2 -3.55 42.8 -3.1 M42.95 21.05 L42.5 22.45 41.55 26.6 41.5 27.5 43.75 26.3 44.55 25.9 Q46.05 25.1 47.3 25.25 48.9 25.4 47.05 27.25 46.4 27.75 46.05 28.8 L45.7 29.85 Q45.35 31.05 45.3 32.8 43.8 32.2 42.85 32.15 42.15 32.05 41.2 32.6 L41.0 32.65 40.9 32.4 40.8 32.4 37.6 29.75 37.5 28.7 Q37.65 26.65 39.4 25.9 L38.3 24.7 Q38.9 22.55 39.4 22.3 41.1 21.4 42.95 21.05" fill="#995b4c" fill-rule="evenodd" stroke="none"/>
      <path d="M32.05 -8.6 L37.7 -9.45 Q44.75 -10.3 54.1 -7.7 L52.95 -4.85 48.3 -6.2 44.65 -6.45 Q44.05 -7.8 41.35 -7.5 39.2 -7.25 37.75 -6.5 36.8 -5.9 34.75 -6.05 L32.05 -8.6 M47.7 38.85 L50.65 40.35 Q49.65 41.6 50.2 43.95 L50.15 44.0 Q49.65 44.25 49.25 43.5 48.85 42.75 48.8 42.25 L48.75 40.9 48.35 40.85 47.9 40.8 47.65 41.0 47.4 41.1 47.2 40.8 47.4 40.45 47.7 38.85" fill="#7a6b6b" fill-rule="evenodd" stroke="none"/>
      <path d="M37.65 40.4 L35.1 35.35 32.95 31.05 30.9 26.95 32.85 27.55 35.75 28.15 35.8 27.75 Q34.95 27.2 34.3 26.15 L36.25 26.3 37.8 26.7 38.3 24.7 39.4 25.9 Q37.65 26.65 37.5 28.7 L37.6 29.75 40.8 32.4 40.9 32.4 Q39.85 33.15 39.6 34.0 37.9 36.05 37.65 40.4" fill="#aea6a6" fill-rule="evenodd" stroke="none"/>
      <path d="M29.05 -7.75 L28.5 -7.65 27.5 -7.25 27.1 -7.0 Q23.65 -5.5 19.8 -0.5 L19.6 0.1 19.9 1.4 20.0 2.0 Q20.7 4.7 22.25 8.6 L22.8 10.05 23.45 11.5 23.5 11.65 Q25.1 14.2 26.25 9.2 M29.05 -5.9 L29.05 -7.15 29.05 -7.75 29.8 -8.05 32.05 -8.6 37.7 -9.45 Q44.75 -10.3 54.1 -7.7 L52.95 -4.85 52.25 -3.7 51.75 -2.9 50.65 -1.1 50.5 -0.95 49.15 1.3 47.1 3.8 43.5 -2.95 42.3 -5.35 42.8 -3.1 Q43.6 0.1 45.1 3.15 L45.95 4.8 42.25 3.05 44.95 5.85 Q41.75 8.25 39.6 10.4 38.35 11.5 37.55 12.6 L37.5 12.65 37.5 12.85 Q42.4 9.75 52.6 14.25 L53.0 14.4 47.7 16.85 Q44.25 18.2 42.95 21.05 L42.5 22.45 41.55 26.6 41.5 27.5 43.75 26.3 44.55 25.9 Q46.05 25.1 47.3 25.25 48.9 25.4 47.05 27.25 46.4 27.75 46.05 28.8 L45.7 29.85 Q45.35 31.05 45.3 32.8 L45.35 34.55 45.6 37.7 47.5 38.7 47.7 38.85 50.65 40.35 Q49.65 41.6 50.2 43.95 L50.75 45.75 52.0 47.2 M43.75 52.05 L42.9 50.55 38.25 41.55 37.65 40.4 35.1 35.35 32.95 31.05 30.9 26.95 29.4 23.85 24.65 14.15 23.5 11.65 M29.2 -4.6 L29.55 -0.15 M29.05 -5.9 L29.2 -4.6 M40.15 -4.45 L39.9 -3.55 M36.9 -0.4 L38.1 2.35 38.3 2.75 40.9 3.05 39.6 10.4 M44.7 -2.75 L41.75 -6.35 40.15 -4.45 M46.65 -2.3 L46.65 -0.45 44.7 -2.75 M46.65 -2.3 L46.65 -3.0 51.75 -2.9 M37.05 13.6 Q34.85 17.15 36.55 22.8 L38.3 24.7 39.4 25.9 M43.5 39.1 L44.5 39.45 Q46.3 39.8 47.5 38.7 M40.5 37.15 L43.5 39.1 M40.9 32.4 L40.8 32.4 37.6 29.75 M30.2 3.4 L27.75 3.9 Q27.5 4.85 27.85 6.9 M37.05 13.6 L37.4 13.1 37.1 13.15 37.5 12.6 37.55 12.6 M37.4 13.1 L37.5 12.85" fill="none" stroke="#000000" stroke-linecap="round" stroke-linejoin="round" stroke-opacity="0.6627451" stroke-width="1.5"/>
      <path d="M57.75 -7.45 L59.35 -8.0 59.85 -5.9 59.05 -5.8 59.0 -5.9 57.75 -7.45" fill="#662626" fill-rule="evenodd" stroke="none"/>
      <path d="M57.75 -7.45 L59.0 -5.9 59.05 -5.8 59.85 -5.9 Q64.65 -6.15 64.45 -3.95 L63.7 -2.25 63.2 -1.5 61.5 -0.85 Q61.45 -2.05 60.95 -2.3 L59.25 -2.55 57.8 -2.65 Q57.85 -3.8 57.15 -5.15 L55.85 -6.75 57.75 -7.45 M60.9 -4.65 Q60.3 -3.65 61.2 -3.2 61.4 -3.1 61.75 -3.5 L61.8 -3.25 Q61.95 -3.6 62.45 -3.75 L63.4 -3.9 62.95 -4.7 62.2 -5.4 Q61.5 -5.7 60.9 -4.65 M77.5 6.35 Q76.6 5.1 76.25 2.9 75.9 0.75 76.25 -2.35 L76.3 -3.2 76.65 -1.8 77.55 -2.55 78.65 -2.75 Q78.5 -0.7 78.1 0.15 L77.9 0.55 78.2 0.55 Q79.1 1.0 79.05 1.8 78.7 3.45 79.05 4.85 L78.65 4.9 78.2 5.25 Q78.55 5.45 78.4 5.75 L77.5 6.35 M62.1 22.9 Q62.7 22.5 63.55 22.35 L63.95 22.3 65.55 21.7 Q65.85 20.65 65.6 20.5 L65.05 20.05 Q65.65 19.6 66.05 19.75 L66.1 18.9 Q66.85 18.1 67.2 18.25 68.25 18.75 68.6 20.5 L68.75 21.3 69.05 22.45 69.15 22.7 68.9 23.2 68.35 23.9 67.65 24.85 67.65 25.3 67.9 26.55 68.05 28.3 67.95 28.75 67.6 29.3 67.25 29.7 66.35 29.0 66.0 28.75 65.7 28.4 65.75 28.35 66.0 27.95 Q66.25 27.5 66.05 26.95 L66.05 26.85 65.75 26.5 64.8 26.5 63.95 26.55 63.9 26.5 Q63.55 26.2 62.95 24.95 L62.55 24.15 Q62.55 23.3 62.1 22.9" fill="#663316" fill-rule="evenodd" stroke="none"/>
      <path d="M58.25 1.1 L54.35 0.75 Q54.1 -2.15 48.95 -5.3 L53.85 -5.9 55.85 -6.75 57.15 -5.15 Q57.85 -3.8 57.8 -2.65 L59.25 -2.55 60.95 -2.3 Q61.45 -2.05 61.5 -0.85 L58.25 1.1 M57.35 -0.7 L57.5 -0.1 57.5 0.35 58.05 0.8 58.45 0.8 58.8 0.35 59.15 -0.05 59.55 -0.6 59.75 -1.3 59.55 -1.65 58.9 -1.55 57.75 -1.65 57.35 -0.7" fill="#884433" fill-rule="evenodd" stroke="none"/>
      <path d="M59.85 -5.9 L59.35 -8.0 Q64.85 -9.9 67.7 -9.6 L67.85 -9.6 68.85 -7.5 Q69.7 -4.7 69.95 -4.6 70.45 -4.35 70.95 -5.15 71.5 -5.8 72.05 -5.55 73.1 -5.05 73.95 -2.3 74.75 0.2 75.95 6.45 L75.9 6.65 75.7 8.2 75.7 8.6 75.6 8.9 75.6 9.2 75.55 10.25 76.15 11.6 76.3 11.95 76.6 12.6 Q77.4 14.5 76.95 15.4 L75.5 18.0 76.8 18.65 77.3 19.45 76.0 22.35 69.3 36.55 68.5 38.3 66.7 41.95 66.55 42.3 65.0 45.5 64.9 45.7 63.7 44.85 62.75 44.2 Q61.65 43.45 60.1 42.7 L59.4 42.4 58.7 42.05 Q57.9 41.65 57.7 41.6 L57.1 41.4 56.2 41.25 55.6 41.3 55.5 41.1 55.75 39.55 57.1 39.35 57.6 39.2 58.35 38.8 58.65 38.55 Q59.95 37.5 61.05 35.45 L58.55 33.4 58.2 32.5 57.95 31.9 58.4 31.3 58.9 30.35 59.35 29.05 58.9 28.4 57.85 28.35 57.95 28.3 61.45 25.75 61.2 24.9 60.0 22.05 Q61.2 22.15 62.1 22.9 62.55 23.3 62.55 24.15 L62.95 24.95 Q63.55 26.2 63.9 26.5 L63.95 26.55 64.8 26.5 65.75 26.5 66.05 26.85 66.05 26.95 Q66.25 27.5 66.0 27.95 L65.75 28.35 65.7 28.4 66.0 28.75 66.35 29.0 67.25 29.7 67.6 29.3 67.95 28.75 68.05 28.3 67.9 26.55 67.65 25.3 67.65 24.85 68.35 23.9 68.9 23.2 69.15 22.7 69.05 22.45 68.75 21.3 68.6 20.5 Q68.25 18.75 67.2 18.25 66.85 18.1 66.1 18.9 L66.05 19.75 Q65.65 19.6 65.05 20.05 L65.6 20.5 Q65.85 20.65 65.55 21.7 L63.95 22.3 63.95 22.25 Q61.75 19.75 60.75 18.15 L60.45 17.85 60.15 17.45 Q59.75 16.7 59.5 14.7 59.25 13.25 57.75 12.45 L63.1 11.3 64.2 11.05 68.3 10.95 68.6 11.0 68.85 11.0 68.55 10.6 68.05 9.9 65.9 7.5 65.35 6.95 65.6 6.15 Q66.0 4.2 65.65 3.5 L64.25 2.4 62.7 0.9 62.15 1.0 61.6 1.1 Q61.35 1.0 61.45 -0.5 L61.5 -0.85 63.2 -1.5 63.7 -2.25 66.35 -1.3 Q67.55 -0.7 67.7 0.25 L67.5 3.25 Q68.15 2.75 68.5 2.9 68.85 3.8 68.65 4.75 L68.5 5.25 Q68.45 5.15 68.3 5.35 L68.7 5.85 70.65 7.9 72.6 8.85 72.85 8.75 73.75 8.6 73.65 8.25 73.45 7.1 73.25 2.2 Q73.25 -2.2 72.55 -2.55 L70.8 -2.75 68.2 -3.1 64.6 -3.9 64.45 -3.95 Q64.65 -6.15 59.85 -5.9 M57.35 -0.7 L57.75 -1.65 58.9 -1.55 59.55 -1.65 59.75 -1.3 59.55 -0.6 59.15 -0.05 58.8 0.35 58.45 0.8 58.05 0.8 57.5 0.35 57.5 -0.1 57.35 -0.7 M60.9 -4.65 Q61.5 -5.7 62.2 -5.4 L62.95 -4.7 63.4 -3.9 62.45 -3.75 Q61.95 -3.6 61.8 -3.25 L61.75 -3.5 Q61.4 -3.1 61.2 -3.2 60.3 -3.65 60.9 -4.65 M63.95 26.8 L63.9 26.5 63.95 26.8 63.25 26.9 62.45 27.0 Q62.1 27.95 62.25 29.1 L62.65 30.6 62.7 32.9 62.65 33.35 62.7 33.85 62.9 34.5 64.4 35.0 64.0 34.0 63.9 33.25 63.9 33.15 64.1 30.95 Q64.25 28.7 63.95 27.05 L63.95 26.8 M69.05 29.55 L71.55 23.75 72.2 22.15 72.25 22.05 71.75 21.35 71.55 21.05 Q70.75 20.45 69.75 21.3 L69.7 21.15 69.35 20.1 Q67.3 14.3 65.35 15.7 67.3 14.3 69.35 20.1 L69.7 21.15 69.75 21.3 Q70.75 20.45 71.55 21.05 L71.75 21.35 72.25 22.05 72.2 22.15 71.55 23.75 69.05 29.55 M66.65 34.85 L66.25 35.1 Q65.5 35.7 64.9 35.5 L64.7 35.3 64.4 35.0 64.7 35.3 64.9 35.5 Q65.5 35.7 66.25 35.1 L66.65 34.85" fill="#664646" fill-rule="evenodd" stroke="none"/>
      <path d="M67.85 -9.6 L70.85 -9.1 Q72.7 -8.7 74.0 -7.3 74.4 -6.75 74.85 -6.55 75.4 -6.25 75.85 -6.3 L76.35 -6.4 76.85 -6.55 76.3 -3.2 76.25 -2.35 Q75.9 0.75 76.25 2.9 76.6 5.1 77.5 6.35 L77.8 6.7 Q78.2 7.3 78.95 7.7 L79.6 8.15 Q80.95 8.95 82.0 8.95 L81.05 11.2 77.3 19.45 76.8 18.65 75.5 18.0 76.95 15.4 Q77.4 14.5 76.6 12.6 L76.3 11.95 76.15 11.6 75.55 10.25 75.6 9.2 75.6 8.9 75.7 8.6 75.7 8.2 75.9 6.65 75.95 6.45 Q74.75 0.2 73.95 -2.3 73.1 -5.05 72.05 -5.55 71.5 -5.8 70.95 -5.15 70.45 -4.35 69.95 -4.6 69.7 -4.7 68.85 -7.5 L67.85 -9.6 M64.9 45.7 L64.75 46.05 63.7 48.2 62.45 50.65 Q62.6 49.8 62.1 49.3 L60.85 48.1 58.0 46.45 54.65 45.55 54.7 45.45 57.0 44.45 Q57.1 43.4 56.5 42.7 L56.15 42.35 55.85 41.95 55.6 41.3 56.2 41.25 57.1 41.4 57.7 41.6 Q57.9 41.65 58.7 42.05 L59.4 42.4 60.1 42.7 Q61.65 43.45 62.75 44.2 L63.7 44.85 64.9 45.7" fill="#422d2d" fill-rule="evenodd" stroke="none"/>
      <path d="M58.55 33.4 L55.3 30.85 56.15 30.2 57.85 28.35 58.9 28.4 59.35 29.05 58.9 30.35 58.4 31.3 57.95 31.9 58.2 32.5 58.55 33.4 M60.0 22.05 L59.45 20.9 58.95 19.9 Q57.35 16.95 54.95 13.3 L57.75 12.45 Q59.25 13.25 59.5 14.7 59.75 16.7 60.15 17.45 L60.45 17.85 60.75 18.15 Q61.75 19.75 63.95 22.25 L63.95 22.3 63.55 22.35 Q62.7 22.5 62.1 22.9 61.2 22.15 60.0 22.05 M65.35 6.95 L65.25 6.85 61.05 2.75 Q59.8 1.6 58.25 1.1 L61.5 -0.85 61.45 -0.5 Q61.35 1.0 61.6 1.1 L62.15 1.0 62.7 0.9 64.25 2.4 65.65 3.5 Q66.0 4.2 65.6 6.15 L65.35 6.95 M63.7 -2.25 L64.45 -3.95 64.6 -3.9 68.2 -3.1 70.8 -2.75 72.55 -2.55 Q73.25 -2.2 73.25 2.2 L73.45 7.1 73.65 8.25 73.75 8.6 72.85 8.75 72.6 8.85 70.65 7.9 68.7 5.85 68.3 5.35 Q68.45 5.15 68.5 5.25 L68.65 4.75 Q68.85 3.8 68.5 2.9 68.15 2.75 67.5 3.25 L67.7 0.25 Q67.55 -0.7 66.35 -1.3 L63.7 -2.25 M63.95 26.8 L63.95 27.05 Q64.25 28.7 64.1 30.95 L63.9 33.15 63.9 33.25 64.0 34.0 64.4 35.0 62.9 34.5 62.7 33.85 62.65 33.35 62.7 32.9 62.65 30.6 62.25 29.1 Q62.1 27.95 62.45 27.0 L63.25 26.9 63.95 26.8" fill="#7a6b6b" fill-rule="evenodd" stroke="none"/>
      <path d="M76.85 -6.55 L79.9 -6.6 Q82.4 -6.35 85.4 -3.1 86.1 -1.2 83.3 5.85 L83.0 6.6 82.1 8.8 82.0 8.9 82.0 8.95 Q80.95 8.95 79.6 8.15 L78.95 7.7 Q78.2 7.3 77.8 6.7 L77.5 6.35 78.4 5.75 Q78.55 5.45 78.2 5.25 L78.65 4.9 79.05 4.85 Q78.7 3.45 79.05 1.8 79.1 1.0 78.2 0.55 L77.9 0.55 78.1 0.15 Q78.5 -0.7 78.65 -2.75 L77.55 -2.55 76.65 -1.8 76.3 -3.2 76.85 -6.55" fill="#452010" fill-rule="evenodd" stroke="none"/>
      <path d="M59.35 -8.0 L57.75 -7.45 55.85 -6.75 53.85 -5.9 48.95 -5.3 Q54.1 -2.15 54.35 0.75 L58.25 1.1 Q59.8 1.6 61.05 2.75 L65.25 6.85 65.35 6.95 65.9 7.5 68.05 9.9 68.55 10.6 68.85 11.0 68.6 11.0 68.3 10.95 64.2 11.05 63.1 11.3 57.75 12.45 54.95 13.3 Q57.35 16.95 58.95 19.9 L59.45 20.9 60.0 22.05 61.2 24.9 61.45 25.75 57.95 28.3 57.85 28.35 56.15 30.2 55.3 30.85 58.55 33.4 61.05 35.45 Q59.95 37.5 58.65 38.55 L58.35 38.8 57.6 39.2 57.1 39.35 55.75 39.55 55.5 41.1 M59.0 -5.9 L59.05 -5.8 59.85 -5.9 Q64.65 -6.15 64.45 -3.95 L63.7 -2.25 63.2 -1.5 61.5 -0.85 58.25 1.1 M59.35 -8.0 Q64.85 -9.9 67.7 -9.6 L67.85 -9.6 70.85 -9.1 Q72.7 -8.7 74.0 -7.3 74.4 -6.75 74.85 -6.55 75.4 -6.25 75.85 -6.3 L76.35 -6.4 76.85 -6.55 79.9 -6.6 Q82.4 -6.35 85.4 -3.1 86.1 -1.2 83.3 5.85 L83.0 6.6 82.1 8.8 82.0 8.9 82.0 8.95 81.05 11.2 77.3 19.45 76.0 22.35 69.3 36.55 68.5 38.3 66.7 41.95 M66.55 42.3 L65.0 45.5 64.9 45.7 64.75 46.05 63.7 48.2 62.45 50.65 M54.7 45.45 L57.0 44.45 Q57.1 43.4 56.5 42.7 L56.15 42.35 55.85 41.95 55.6 41.3 M77.5 6.35 Q76.6 5.1 76.25 2.9 75.9 0.75 76.25 -2.35 L76.3 -3.2 76.85 -6.55 M79.6 8.15 L78.95 7.7 Q78.2 7.3 77.8 6.7 L77.5 6.35 M62.55 24.15 Q62.55 23.3 62.1 22.9 61.2 22.15 60.0 22.05 M63.9 26.5 L63.95 26.8 63.95 27.05 Q64.25 28.7 64.1 30.95 L63.9 33.15 63.9 33.25 64.0 34.0 64.4 35.0 64.7 35.3 64.9 35.5 Q65.5 35.7 66.25 35.1 L66.65 34.85 M65.35 15.7 Q67.3 14.3 69.35 20.1 L69.7 21.15 69.75 21.3 Q70.75 20.45 71.55 21.05 L71.75 21.35 72.25 22.05 72.2 22.15 71.55 23.75 69.05 29.55" fill="none" stroke="#000000" stroke-linecap="round" stroke-linejoin="round" stroke-opacity="0.6627451" stroke-width="1.5"/>
    </g>
    <g id="shape1" transform="matrix(1.0, 0.0, 0.0, 1.0, 50.9, 67.95)">
      <path d="M51.55 -39.65 Q48.0 -38.6 46.95 -38.6 L46.55 -38.6 46.3 -38.7 46.25 -38.7 46.1 -39.7 Q46.2 -42.6 52.65 -45.15 59.1 -47.6 59.2 -50.75 59.25 -52.6 58.15 -56.05 L57.95 -56.65 58.9 -56.75 62.2 -56.9 Q63.15 -56.85 64.0 -55.0 64.6 -53.45 64.6 -52.5 L64.55 -51.7 Q64.5 -49.5 62.15 -47.85 60.45 -46.7 57.6 -45.75 53.8 -44.55 52.75 -44.0 50.6 -42.9 50.6 -41.2 50.6 -40.25 51.2 -39.8 L51.55 -39.65 M38.0 -53.2 Q32.8 -52.05 30.7 -52.0 27.6 -52.05 26.55 -53.7 26.05 -54.7 25.6 -56.55 L24.15 -59.1 23.8 -59.7 23.75 -59.7 23.4 -60.05 24.45 -60.7 27.1 -61.6 28.5 -61.8 28.85 -61.8 29.35 -61.3 29.4 -61.3 29.75 -60.65 31.3 -57.95 Q31.8 -55.95 32.4 -54.9 33.55 -53.1 36.9 -53.1 L38.0 -53.2 M5.3 -49.35 L3.15 -48.95 Q-6.45 -47.35 -10.3 -48.2 -14.25 -49.0 -19.05 -50.35 -23.85 -51.75 -25.95 -53.45 -26.7 -54.0 -29.8 -55.65 L-31.45 -56.95 -32.15 -57.45 -33.85 -58.4 -31.95 -59.75 -30.8 -58.6 -30.05 -58.1 -28.3 -56.75 -24.15 -54.4 Q-21.85 -52.5 -16.75 -51.05 -11.6 -49.65 -7.35 -48.8 L5.3 -49.35 M-50.35 -25.85 L-46.85 -23.5 Q-37.85 -17.65 -26.6 -15.35 -13.0 -12.5 -3.7 -12.85 L-1.05 -12.95 0.65 -12.95 Q10.75 -13.25 20.7 -15.45 L25.8 -16.55 37.35 -18.9 Q38.2 -19.55 39.7 -19.45 L42.7 -19.9 44.35 -19.5 47.15 -18.75 47.65 -18.6 45.55 -18.4 44.2 -17.45 31.8 -14.85 26.25 -13.65 Q15.55 -11.25 4.6 -10.85 L2.8 -10.85 0.05 -10.7 Q-10.0 -10.25 -24.7 -13.3 -36.8 -15.75 -46.55 -22.0 L-50.15 -24.55 -50.25 -25.35 -50.35 -25.85 M56.15 -16.95 L56.75 -17.1 Q58.45 -19.95 59.2 -23.2 L59.5 -24.75 59.5 -25.1 64.75 -24.6 67.95 -24.75 68.05 -24.5 68.05 -23.85 67.7 -22.2 Q66.9 -18.7 65.15 -15.65 L63.85 -15.35 61.25 -15.8 59.9 -16.1 56.15 -16.95 M58.1 -25.5 L56.5 -25.5 Q52.65 -25.5 50.75 -26.2 50.0 -26.3 49.3 -26.85 48.5 -27.55 48.5 -28.15 48.45 -28.95 48.65 -29.45 L48.65 -29.75 Q48.6 -30.65 51.65 -31.55 L56.5 -33.0 59.7 -34.15 61.8 -34.9 Q62.8 -35.45 62.8 -36.95 L62.9 -37.65 Q62.85 -39.15 62.25 -40.05 L62.1 -40.5 62.0 -40.7 67.0 -42.25 68.8 -42.65 68.85 -42.5 69.0 -42.55 69.8 -42.2 70.15 -41.7 70.75 -40.8 70.95 -40.35 Q71.55 -39.4 71.6 -37.8 L71.5 -37.05 Q71.5 -35.4 70.45 -34.8 L68.15 -33.95 64.8 -32.65 59.55 -31.15 Q56.25 -30.15 56.3 -29.2 L56.3 -28.9 Q56.1 -28.35 56.15 -27.5 56.1 -26.85 57.05 -26.1 L58.1 -25.5 M120.3 -60.75 L123.7 -59.5 Q125.5 -58.8 124.5 -54.75 123.6 -51.05 121.95 -50.6 L119.0 -50.9 120.55 -51.45 Q121.6 -52.5 121.75 -53.65 L121.75 -56.05 Q121.75 -58.3 120.3 -60.75 M114.55 -40.05 Q114.55 -41.65 115.45 -44.65 L116.75 -49.1 120.6 -48.55 Q120.4 -48.15 120.35 -47.55 L120.15 -44.8 118.65 -40.65 Q118.05 -40.05 115.0 -40.05 L114.55 -40.05 M115.6 -25.65 L116.35 -28.05 117.5 -31.8 117.75 -34.95 Q117.75 -36.35 117.2 -37.4 L118.5 -37.1 Q121.25 -36.6 121.25 -34.15 L120.65 -30.0 Q119.75 -26.65 119.25 -26.15 118.65 -25.65 115.7 -25.65 L115.6 -25.65" fill="#bdbdbd" fill-rule="evenodd" stroke="none"/>
      <path d="M57.95 -56.65 L58.15 -56.05 Q59.25 -52.6 59.2 -50.75 59.1 -47.6 52.65 -45.15 46.2 -42.6 46.1 -39.7 L46.25 -38.7 46.3 -38.7 46.55 -38.6 46.95 -38.6 Q48.0 -38.6 51.55 -39.65 52.15 -39.4 53.8 -38.85 L54.05 -38.75 54.5 -38.75 Q55.9 -38.75 61.4 -40.5 L62.0 -40.7 62.1 -40.5 62.25 -40.05 Q62.85 -39.15 62.9 -37.65 L62.8 -36.95 Q62.8 -35.45 61.8 -34.9 L59.7 -34.15 56.5 -33.0 51.65 -31.55 Q48.6 -30.65 48.65 -29.75 L48.65 -29.45 Q48.45 -28.95 48.5 -28.15 48.5 -27.55 49.3 -26.85 50.0 -26.3 50.75 -26.2 52.65 -25.5 56.5 -25.5 L58.1 -25.5 58.6 -25.35 59.5 -25.1 59.5 -24.75 59.2 -23.2 Q58.45 -19.95 56.75 -17.1 L56.15 -16.95 54.75 -17.35 51.75 -18.1 50.0 -18.5 47.65 -18.6 47.15 -18.75 44.35 -19.5 42.7 -19.9 39.7 -19.45 Q38.2 -19.55 37.35 -18.9 L25.8 -16.55 20.7 -15.45 Q10.75 -13.25 0.65 -12.95 L-1.05 -12.95 -3.7 -12.85 Q-13.0 -12.5 -26.6 -15.35 -37.85 -17.65 -46.85 -23.5 L-50.35 -25.85 -50.55 -27.75 Q-50.6 -32.65 -48.75 -37.95 -47.1 -43.05 -44.2 -47.15 -41.55 -50.95 -38.3 -54.3 L-33.85 -58.4 -32.15 -57.45 -31.45 -56.95 -29.8 -55.65 Q-26.7 -54.0 -25.95 -53.45 -23.85 -51.75 -19.05 -50.35 -14.25 -49.0 -10.3 -48.2 -6.45 -47.35 3.15 -48.95 L5.3 -49.35 7.15 -49.65 Q17.45 -51.4 20.0 -53.5 22.65 -55.65 22.8 -56.95 L22.85 -57.6 22.8 -59.1 Q22.8 -59.6 23.1 -59.9 L23.4 -60.05 23.75 -59.7 23.8 -59.7 24.15 -59.1 25.6 -56.55 Q26.05 -54.7 26.55 -53.7 27.6 -52.05 30.7 -52.0 32.8 -52.05 38.0 -53.2 40.9 -53.45 47.1 -54.95 52.55 -56.25 57.95 -56.65 M120.3 -60.75 Q121.75 -58.3 121.75 -56.05 L121.75 -53.65 Q121.6 -52.5 120.55 -51.45 L119.0 -50.9 116.25 -51.5 Q105.35 -54.15 103.25 -57.1 102.5 -58.2 102.65 -59.15 102.75 -60.15 103.15 -61.45 L103.75 -63.0 104.9 -64.6 105.9 -65.45 106.25 -65.7 106.8 -65.9 110.7 -64.7 Q112.05 -64.35 117.7 -61.7 L120.3 -60.75 M114.55 -40.05 L107.4 -40.9 Q101.2 -41.85 98.0 -42.85 94.85 -43.8 94.3 -44.55 94.1 -44.8 94.1 -46.45 L94.2 -48.6 94.35 -49.2 Q94.7 -51.15 96.4 -52.35 L98.05 -52.55 103.65 -51.9 107.5 -51.2 108.65 -51.15 113.4 -49.85 116.75 -49.1 115.45 -44.65 Q114.55 -41.65 114.55 -40.05 M115.6 -25.65 Q111.45 -25.65 107.8 -26.7 L103.95 -27.9 Q100.8 -28.5 98.8 -29.4 96.6 -30.4 96.6 -31.45 96.6 -32.45 97.0 -34.05 L97.65 -36.75 98.3 -39.45 Q98.35 -39.9 98.7 -40.15 L101.0 -39.45 108.0 -38.35 115.0 -37.55 116.65 -37.55 117.2 -37.4 Q117.75 -36.35 117.75 -34.95 L117.5 -31.8 116.35 -28.05 115.6 -25.65" fill="#999999" fill-rule="evenodd" stroke="none"/>
      <path d="M51.55 -39.65 L51.2 -39.8 Q50.6 -40.25 50.6 -41.2 50.6 -42.9 52.75 -44.0 53.8 -44.55 57.6 -45.75 60.45 -46.7 62.15 -47.85 64.5 -49.5 64.55 -51.7 L64.6 -52.5 Q64.6 -53.45 64.0 -55.0 63.15 -56.85 62.2 -56.9 L58.9 -56.75 57.95 -56.65 Q52.55 -56.25 47.1 -54.95 40.9 -53.45 38.0 -53.2 L36.9 -53.1 Q33.55 -53.1 32.4 -54.9 31.8 -55.95 31.3 -57.95 L29.75 -60.65 29.4 -61.3 29.35 -61.3 28.85 -61.8 28.5 -61.8 27.1 -61.6 24.45 -60.7 23.4 -60.05 23.1 -59.9 Q22.8 -59.6 22.8 -59.1 L22.85 -57.6 22.8 -56.95 Q22.65 -55.65 20.0 -53.5 17.45 -51.4 7.15 -49.65 L5.3 -49.35 -7.35 -48.8 Q-11.6 -49.65 -16.75 -51.05 -21.85 -52.5 -24.15 -54.4 L-28.3 -56.75 -30.05 -58.1 -30.8 -58.6 -31.95 -59.75 Q-32.7 -60.7 -32.6 -61.8 L-32.2 -61.95 -29.45 -60.55 -28.95 -60.25 -22.95 -56.9 Q-12.9 -51.65 -5.85 -51.7 1.3 -51.75 7.0 -53.05 L14.45 -54.95 17.65 -55.8 Q18.7 -56.3 19.15 -56.95 L19.4 -59.2 19.4 -59.25 Q19.7 -62.45 25.5 -64.3 28.55 -65.35 30.05 -64.9 L30.1 -64.85 Q31.1 -64.5 31.25 -63.35 L33.6 -59.45 Q35.6 -55.85 36.7 -55.85 L45.1 -57.5 Q51.35 -58.95 56.55 -59.4 L56.9 -59.4 58.3 -59.55 Q64.15 -59.95 66.05 -57.65 67.55 -55.8 67.6 -50.05 67.6 -49.2 67.1 -48.4 L66.0 -47.2 65.65 -46.9 Q64.45 -45.95 62.75 -45.15 L59.2 -44.05 55.9 -42.75 55.85 -42.7 Q58.65 -42.95 61.3 -43.8 63.85 -44.75 66.35 -45.3 L66.55 -45.25 67.7 -45.55 67.75 -45.55 68.25 -45.7 68.95 -45.65 70.05 -45.65 70.3 -45.5 70.65 -45.3 71.25 -44.7 72.05 -43.65 72.25 -43.25 72.3 -43.15 72.45 -42.75 72.9 -41.5 74.05 -38.8 74.1 -36.9 Q74.15 -34.85 73.8 -34.3 73.0 -32.85 69.5 -31.4 67.75 -30.65 64.2 -29.6 59.95 -28.35 58.3 -28.3 L58.35 -27.9 Q58.8 -27.15 60.95 -27.15 L64.95 -26.95 65.5 -27.0 69.4 -26.65 Q70.2 -26.2 70.3 -25.5 L70.35 -23.85 Q70.25 -20.45 68.95 -17.2 L68.5 -15.65 Q68.0 -12.9 64.3 -12.85 L59.7 -13.5 55.3 -14.55 48.2 -16.25 43.9 -14.95 Q39.4 -13.55 37.3 -13.1 L31.8 -12.2 26.2 -11.35 4.65 -7.9 0.9 -7.85 -20.45 -9.05 Q-32.1 -10.85 -39.35 -15.7 L-45.45 -19.15 -46.6 -19.8 Q-49.1 -21.5 -50.1 -22.8 -50.85 -23.6 -50.9 -24.3 L-50.8 -25.0 -50.75 -25.05 -50.15 -24.55 -46.55 -22.0 Q-36.8 -15.75 -24.7 -13.3 -10.0 -10.25 0.05 -10.7 L2.8 -10.85 4.6 -10.85 Q15.55 -11.25 26.25 -13.65 L31.8 -14.85 44.2 -17.45 45.55 -18.4 47.65 -18.6 50.0 -18.5 51.75 -18.1 54.75 -17.35 56.15 -16.95 59.9 -16.1 61.25 -15.8 63.85 -15.35 65.15 -15.65 Q66.9 -18.7 67.7 -22.2 L68.05 -23.85 68.05 -24.5 67.95 -24.75 64.75 -24.6 59.5 -25.1 58.6 -25.35 58.1 -25.5 57.05 -26.1 Q56.1 -26.85 56.15 -27.5 56.1 -28.35 56.3 -28.9 L56.3 -29.2 Q56.25 -30.15 59.55 -31.15 L64.8 -32.65 68.15 -33.95 70.45 -34.8 Q71.5 -35.4 71.5 -37.05 L71.6 -37.8 Q71.55 -39.4 70.95 -40.35 L70.75 -40.8 70.15 -41.7 69.8 -42.2 69.0 -42.55 68.85 -42.5 68.8 -42.65 67.0 -42.25 62.0 -40.7 61.4 -40.5 Q55.9 -38.75 54.5 -38.75 L54.05 -38.75 53.8 -38.85 Q52.15 -39.4 51.55 -39.65 M127.15 -56.7 L126.45 -54.35 Q125.75 -51.45 125.15 -50.1 124.6 -49.0 123.65 -48.7 L122.85 -48.55 122.9 -48.2 122.9 -46.8 122.65 -44.65 121.75 -41.8 Q121.2 -39.8 120.3 -38.75 121.85 -38.2 122.55 -36.8 123.05 -35.85 123.05 -34.1 L122.65 -31.4 122.05 -28.4 Q120.85 -24.5 119.2 -23.65 L115.75 -23.35 114.7 -23.35 108.0 -24.1 100.55 -26.45 Q97.15 -27.6 95.85 -28.9 94.9 -29.9 94.9 -31.5 L96.15 -37.55 Q96.4 -38.9 97.0 -40.55 L97.05 -40.7 96.0 -41.1 Q92.85 -42.25 92.15 -43.6 91.85 -44.2 91.85 -46.4 L91.9 -48.6 Q92.3 -50.9 93.5 -52.85 94.2 -53.9 95.0 -54.3 95.65 -54.75 96.4 -55.0 98.2 -55.05 100.45 -54.35 L103.3 -53.5 Q99.65 -56.2 100.95 -61.5 L101.6 -63.85 102.4 -65.5 103.05 -66.05 Q104.65 -67.2 106.25 -67.9 L106.65 -67.95 108.4 -67.8 111.55 -67.05 116.95 -64.85 118.15 -64.3 Q125.45 -61.0 126.75 -58.85 127.4 -57.9 127.15 -56.7 M119.0 -50.9 L121.95 -50.6 Q123.6 -51.05 124.5 -54.75 125.5 -58.8 123.7 -59.5 L120.3 -60.75 117.7 -61.7 Q112.05 -64.35 110.7 -64.7 L106.8 -65.9 106.25 -65.7 105.9 -65.45 104.9 -64.6 103.75 -63.0 103.15 -61.45 Q102.75 -60.15 102.65 -59.15 102.5 -58.2 103.25 -57.1 105.35 -54.15 116.25 -51.5 L119.0 -50.9 M116.75 -49.1 L113.4 -49.85 108.65 -51.15 107.5 -51.2 103.65 -51.9 98.05 -52.55 96.4 -52.35 Q94.7 -51.15 94.35 -49.2 L94.2 -48.6 94.1 -46.45 Q94.1 -44.8 94.3 -44.55 94.85 -43.8 98.0 -42.85 101.2 -41.85 107.4 -40.9 L114.55 -40.05 115.0 -40.05 Q118.05 -40.05 118.65 -40.65 L120.15 -44.8 120.35 -47.55 Q120.4 -48.15 120.6 -48.55 L116.75 -49.1 M117.2 -37.4 L116.65 -37.55 115.0 -37.55 108.0 -38.35 101.0 -39.45 98.7 -40.15 Q98.35 -39.9 98.3 -39.45 L97.65 -36.75 97.0 -34.05 Q96.6 -32.45 96.6 -31.45 96.6 -30.4 98.8 -29.4 100.8 -28.5 103.95 -27.9 L107.8 -26.7 Q111.45 -25.65 115.6 -25.65 L115.7 -25.65 Q118.65 -25.65 119.25 -26.15 119.75 -26.65 120.65 -30.0 L121.25 -34.15 Q121.25 -36.6 118.5 -37.1 L117.2 -37.4" fill="#000000" fill-rule="evenodd" stroke="none"/>
    </g>
  </defs>
</svg>
