<?xml version="1.0" encoding="UTF-8" standalone="no"?>
<svg xmlns:xlink="http://www.w3.org/1999/xlink" height="531.5px" width="460.6px" xmlns="http://www.w3.org/2000/svg">
  <g transform="matrix(1.0, 0.0, 0.0, 1.0, 193.65, 334.05)">
    <use height="143.9" transform="matrix(1.0, 0.0, 0.0, 1.0, -46.75, -146.65)" width="183.15" xlink:href="#shape0"/>
  </g>
  <defs>
    <g id="shape0" transform="matrix(1.0, 0.0, 0.0, 1.0, 46.75, 146.65)">
      <path d="M122.6 -109.8 L119.35 -104.95 Q117.95 -108.2 117.4 -110.05 L117.25 -110.7 117.55 -111.05 120.45 -114.45 121.2 -115.3 Q121.75 -112.35 122.6 -109.8 M116.4 -141.65 Q119.2 -141.3 121.35 -140.55 121.0 -137.9 120.8 -135.05 L118.5 -136.75 115.6 -138.25 118.5 -136.75 120.8 -135.05 Q120.45 -130.2 120.45 -125.0 120.45 -123.15 120.6 -121.35 L116.3 -114.95 Q115.65 -118.25 115.3 -122.1 L116.7 -125.85 Q117.65 -128.85 117.65 -131.8 117.65 -134.1 115.1 -135.6 L115.6 -138.25 Q115.85 -139.9 116.4 -141.65" fill="#d0d0d0" fill-rule="evenodd" stroke="none"/>
      <path d="M76.55 -112.4 L76.55 -112.65 76.55 -113.1 76.7 -113.9 76.95 -115.8 75.5 -116.85 76.75 -117.95 77.45 -118.05 77.65 -118.7 77.35 -119.15 76.6 -120.25 76.6 -120.8 78.05 -120.35 Q78.95 -123.35 80.35 -126.0 L79.4 -127.35 81.05 -127.4 82.3 -129.5 82.35 -129.55 82.15 -131.0 83.4 -131.05 84.6 -132.5 83.55 -134.95 86.05 -134.15 87.65 -135.65 87.15 -137.3 88.95 -136.95 89.15 -136.9 Q90.5 -137.95 91.95 -138.8 L94.8 -140.3 Q97.7 -141.8 100.75 -142.65 L102.9 -143.25 102.95 -144.9 Q104.0 -145.0 104.75 -144.15 L105.25 -143.7 105.65 -143.75 108.8 -143.9 109.15 -143.9 109.5 -144.6 Q109.7 -145.3 110.2 -145.65 L112.4 -143.85 116.9 -143.45 121.6 -142.6 123.85 -142.05 126.0 -140.95 126.15 -140.8 126.0 -140.7 Q126.0 -138.8 126.75 -137.3 L124.05 -139.4 121.35 -140.55 124.05 -139.4 126.75 -137.3 128.95 -132.85 129.4 -131.85 129.4 -131.8 129.6 -129.15 Q129.6 -124.0 123.9 -118.15 L121.2 -115.3 120.45 -114.45 117.55 -111.05 117.1 -111.35 117.05 -111.3 109.0 -103.7 108.35 -104.95 112.35 -109.7 116.3 -114.95 112.35 -109.7 108.35 -104.95 Q103.25 -99.0 99.85 -96.6 L100.05 -96.3 100.0 -96.3 98.75 -95.55 Q96.95 -94.6 95.75 -94.6 94.45 -94.6 92.0 -95.4 92.15 -95.05 91.2 -95.55 L90.75 -95.75 90.35 -95.95 Q87.3 -97.6 84.6 -101.05 L83.25 -103.05 Q83.0 -105.25 83.0 -107.8 83.0 -110.65 83.4 -113.9 L84.15 -118.9 Q85.4 -125.35 87.15 -128.65 87.9 -130.2 91.65 -132.7 87.9 -130.2 87.15 -128.65 85.4 -125.35 84.15 -118.9 L83.4 -113.9 Q83.0 -110.65 83.0 -107.8 83.0 -105.25 83.25 -103.05 83.8 -98.7 85.5 -95.4 L85.15 -95.25 Q83.0 -99.25 82.0 -102.45 81.45 -104.2 81.2 -106.1 L76.7 -112.45 76.55 -112.4 M116.4 -141.65 L110.6 -142.0 Q105.4 -142.0 100.6 -140.15 95.95 -138.4 91.75 -135.0 L91.3 -134.65 Q88.25 -132.2 86.1 -129.15 81.35 -122.7 80.85 -113.9 L80.75 -111.75 Q80.75 -108.8 81.2 -106.1 80.75 -108.8 80.75 -111.75 L80.85 -113.9 Q81.35 -122.7 86.1 -129.15 88.25 -132.2 91.3 -134.65 L91.75 -135.0 Q95.95 -138.4 100.6 -140.15 105.4 -142.0 110.6 -142.0 L116.4 -141.65 Q115.85 -139.9 115.6 -138.25 111.7 -139.9 107.7 -139.9 105.1 -139.9 100.55 -137.75 105.1 -139.9 107.7 -139.9 111.7 -139.9 115.6 -138.25 L115.1 -135.6 114.35 -136.0 Q111.65 -137.3 108.25 -137.3 103.75 -137.3 100.45 -134.75 103.75 -137.3 108.25 -137.3 111.65 -137.3 114.35 -136.0 L115.1 -135.6 Q117.65 -134.1 117.65 -131.8 117.65 -128.85 116.7 -125.85 L115.3 -122.1 Q115.65 -118.25 116.3 -114.95 L120.6 -121.35 Q120.45 -123.15 120.45 -125.0 120.45 -130.2 120.8 -135.05 121.0 -137.9 121.35 -140.55 119.2 -141.3 116.4 -141.65 M100.45 -134.75 L100.45 -136.0 100.55 -137.75 96.05 -135.4 Q93.45 -133.95 91.65 -132.7 L91.6 -129.45 Q91.6 -126.55 91.85 -123.75 92.2 -118.8 93.35 -114.05 94.1 -117.05 95.45 -119.5 L95.9 -119.3 Q94.35 -115.7 94.35 -113.3 L94.35 -111.9 93.9 -111.75 Q94.65 -108.85 95.7 -106.05 96.65 -103.1 98.05 -100.2 99.35 -100.8 100.95 -102.0 L104.3 -105.0 106.9 -107.9 Q105.45 -110.9 104.35 -113.9 L103.95 -115.0 103.8 -115.55 103.45 -116.6 102.55 -119.85 103.6 -121.5 Q106.0 -125.45 106.0 -127.35 106.0 -128.3 105.45 -128.9 L104.85 -129.3 104.35 -129.45 Q102.7 -129.45 101.0 -127.8 L100.9 -127.75 101.0 -127.8 Q102.7 -129.45 104.35 -129.45 L104.85 -129.3 105.45 -128.9 Q106.0 -128.3 106.0 -127.35 106.0 -125.45 103.6 -121.5 L102.55 -119.85 101.1 -118.25 Q100.0 -117.2 99.1 -117.1 L101.85 -122.8 Q101.3 -125.25 101.0 -127.75 L100.9 -127.75 100.25 -128.5 100.8 -129.3 Q104.5 -134.65 108.1 -134.65 109.85 -134.65 110.45 -133.9 111.0 -133.25 111.0 -131.4 111.0 -125.9 106.55 -120.25 L103.45 -116.6 106.55 -120.25 Q111.0 -125.9 111.0 -131.4 111.0 -133.25 110.45 -133.9 109.85 -134.65 108.1 -134.65 104.5 -134.65 100.8 -129.3 100.55 -132.05 100.45 -134.75 M120.6 -121.35 Q123.1 -125.55 123.5 -128.0 124.1 -132.05 120.8 -135.05 124.1 -132.05 123.5 -128.0 123.1 -125.55 120.6 -121.35 M91.85 -123.75 L91.6 -123.4 Q88.05 -118.35 87.0 -113.9 L86.9 -113.5 Q86.3 -110.85 86.3 -104.7 86.3 -100.1 89.35 -96.95 L90.35 -96.1 90.75 -95.85 91.2 -95.55 90.75 -95.85 90.35 -96.1 89.35 -96.95 Q86.3 -100.1 86.3 -104.7 86.3 -110.85 86.9 -113.5 L87.0 -113.9 Q88.05 -118.35 91.6 -123.4 L91.85 -123.75 M98.05 -100.2 L96.05 -99.85 Q93.95 -99.85 93.1 -100.7 L93.0 -100.9 Q92.15 -101.85 92.15 -104.4 92.15 -109.8 93.35 -114.05 92.15 -109.8 92.15 -104.4 92.15 -101.85 93.0 -100.9 L93.1 -100.7 Q93.95 -99.85 96.05 -99.85 L98.05 -100.2 M106.9 -107.9 Q110.5 -112.25 113.25 -117.65 L115.3 -122.1 113.25 -117.65 Q110.5 -112.25 106.9 -107.9 M99.85 -96.6 L98.95 -96.05 Q97.95 -95.5 97.2 -95.25 L92.0 -95.4 97.2 -95.25 Q97.95 -95.5 98.95 -96.05 L99.85 -96.6" fill="#7b7b7b" fill-rule="evenodd" stroke="none"/>
      <path d="M112.05 -97.75 L111.75 -97.45 111.2 -97.0 110.95 -96.55 110.45 -95.1 108.8 -95.3 108.45 -95.0 107.4 -94.25 102.6 -91.8 101.7 -93.2 106.8 -97.55 110.45 -101.2 112.55 -98.0 112.1 -97.8 112.05 -97.75 M100.55 -137.75 L100.45 -136.0 100.45 -134.75 99.5 -133.9 Q97.7 -132.1 91.85 -123.75 97.7 -132.1 99.5 -133.9 L100.45 -134.75 Q100.55 -132.05 100.8 -129.3 L100.25 -128.5 100.05 -128.05 97.2 -122.7 95.45 -119.5 Q94.1 -117.05 93.35 -114.05 92.2 -118.8 91.85 -123.75 91.6 -126.55 91.6 -129.45 L91.65 -132.7 Q93.45 -133.95 96.05 -135.4 L100.55 -137.75 M102.55 -119.85 L103.45 -116.6 100.4 -113.65 Q99.5 -112.95 98.6 -112.4 97.0 -111.6 95.45 -111.6 94.5 -111.6 94.35 -111.9 94.5 -111.6 95.45 -111.6 97.0 -111.6 98.6 -112.4 99.5 -112.95 100.4 -113.65 L103.45 -116.6 103.8 -115.55 103.95 -115.0 104.35 -113.9 Q105.45 -110.9 106.9 -107.9 L104.3 -105.0 100.95 -102.0 Q99.35 -100.8 98.05 -100.2 96.65 -103.1 95.7 -106.05 94.65 -108.85 93.9 -111.75 L94.35 -111.9 94.35 -113.3 Q94.35 -115.7 95.9 -119.3 96.5 -120.85 97.4 -122.6 99.15 -126.0 100.9 -127.75 L101.0 -127.75 Q101.3 -125.25 101.85 -122.8 L99.1 -117.1 Q100.0 -117.2 101.1 -118.25 L102.55 -119.85 M108.35 -104.95 L109.0 -103.7 106.45 -101.4 Q102.7 -98.0 100.05 -96.3 L99.85 -96.6 Q103.25 -99.0 108.35 -104.95" fill="#999999" fill-rule="evenodd" stroke="none"/>
      <path d="M100.25 -128.5 L100.9 -127.75 Q99.15 -126.0 97.4 -122.6 L97.2 -122.7 100.05 -128.05 100.25 -128.5 M88.35 -90.85 L88.25 -90.85 Q86.65 -92.15 85.35 -93.55 L85.95 -94.0 86.45 -93.75 Q87.35 -92.45 88.6 -91.4 L89.5 -90.75 88.35 -90.85 M41.85 -87.8 L40.0 -87.65 37.3 -87.5 34.95 -87.7 35.2 -88.25 Q35.35 -88.45 36.05 -88.65 L36.55 -88.75 39.85 -89.35 40.0 -89.4 40.35 -89.4 41.85 -87.8 M97.4 -89.8 L97.9 -90.2 98.4 -89.7 97.4 -89.8" fill="#7a7a7a" fill-rule="evenodd" stroke="none"/>
      <path d="M95.45 -119.5 L97.2 -122.7 97.4 -122.6 Q96.5 -120.85 95.9 -119.3 L95.45 -119.5 M86.2 -94.2 L85.95 -94.0 85.5 -94.6 85.15 -95.25 85.5 -95.4 86.2 -94.2" fill="#919191" fill-rule="evenodd" stroke="none"/>
      <path d="M126.15 -140.8 L129.75 -138.45 132.9 -138.05 131.45 -136.9 131.8 -136.5 132.6 -135.65 134.05 -135.45 134.1 -135.3 Q134.15 -135.2 134.3 -135.2 L133.55 -134.35 134.5 -131.9 135.15 -131.8 134.75 -131.05 134.75 -130.85 Q135.05 -128.85 134.45 -126.6 L135.4 -125.5 133.85 -124.45 133.4 -124.2 Q131.55 -120.85 126.95 -115.4 124.6 -112.6 122.6 -109.8 121.75 -112.35 121.2 -115.3 L123.9 -118.15 Q129.6 -124.0 129.6 -129.15 L129.4 -131.8 129.4 -131.85 128.95 -132.85 126.75 -137.3 Q126.0 -138.8 126.0 -140.7 L126.15 -140.8 M119.35 -104.95 L119.0 -104.4 115.65 -100.75 114.05 -99.35 113.8 -97.75 112.1 -97.75 112.1 -97.8 112.55 -98.0 110.45 -101.2 106.8 -97.55 101.7 -93.2 102.6 -91.8 99.85 -90.35 Q99.1 -89.95 98.4 -89.7 L97.9 -90.2 97.4 -89.8 96.8 -89.9 90.35 -90.6 89.5 -90.75 88.6 -91.4 Q87.35 -92.45 86.45 -93.75 L86.2 -94.2 85.5 -95.4 Q83.8 -98.7 83.25 -103.05 L84.6 -101.05 Q87.3 -97.6 90.35 -95.95 L90.75 -95.75 91.2 -95.55 Q92.15 -95.05 92.0 -95.4 94.45 -94.6 95.75 -94.6 96.95 -94.6 98.75 -95.55 L100.0 -96.3 100.05 -96.3 Q102.7 -98.0 106.45 -101.4 L109.0 -103.7 117.05 -111.3 117.1 -111.35 117.55 -111.05 117.25 -110.7 117.4 -110.05 Q117.95 -108.2 119.35 -104.95 M83.6 -95.5 L83.5 -95.7 Q81.95 -97.55 80.85 -99.45 L78.3 -100.1 79.75 -101.55 78.75 -103.3 Q76.25 -104.75 75.8 -105.35 76.35 -105.4 77.5 -106.4 L76.8 -108.85 76.15 -109.25 74.65 -110.85 76.0 -111.95 76.55 -112.4 76.7 -112.45 81.2 -106.1 Q81.45 -104.2 82.0 -102.45 83.0 -99.25 85.15 -95.25 L85.5 -94.6 85.95 -94.0 85.35 -93.55 83.6 -95.5 M117.25 -110.7 Q115.15 -108.2 114.35 -106.65 112.9 -104.0 110.45 -101.2 112.9 -104.0 114.35 -106.65 115.15 -108.2 117.25 -110.7 M101.7 -93.2 L97.9 -90.2 101.7 -93.2" fill="#595959" fill-rule="evenodd" stroke="none"/>
      <path d="M35.5 -86.1 L35.35 -85.9 33.7 -83.05 33.25 -82.6 Q32.3 -81.9 29.95 -81.5 L27.7 -82.0 Q29.45 -82.4 31.05 -83.5 33.95 -85.6 33.35 -88.3 33.5 -91.9 33.75 -93.5 L33.9 -93.6 33.8 -93.6 Q34.15 -95.85 36.4 -96.1 L37.1 -96.15 40.4 -95.4 43.75 -94.6 44.65 -94.65 45.55 -92.9 45.75 -91.85 43.25 -91.7 41.8 -91.9 Q38.8 -92.65 36.75 -95.65 L36.4 -96.1 36.75 -95.65 Q38.8 -92.65 41.8 -91.9 L43.25 -91.7 45.75 -91.85 45.55 -92.9 44.65 -94.65 Q45.95 -94.85 47.9 -95.55 50.25 -96.45 52.2 -96.15 53.4 -96.05 54.7 -96.6 L56.35 -97.8 Q58.6 -99.85 60.1 -99.85 L61.9 -99.5 Q64.0 -98.9 66.75 -97.1 64.9 -95.95 63.9 -94.2 L63.8 -94.55 63.45 -94.9 Q62.25 -96.05 60.25 -93.75 L59.95 -93.4 Q59.2 -92.9 58.35 -92.55 59.2 -92.9 59.95 -93.4 L60.25 -93.75 Q62.25 -96.05 63.45 -94.9 L63.8 -94.55 63.9 -94.2 Q64.55 -92.9 64.4 -91.65 L63.25 -91.6 59.75 -91.4 58.8 -91.3 57.2 -91.2 56.3 -91.1 56.15 -91.1 53.75 -90.9 53.05 -90.85 52.6 -90.8 52.15 -90.8 50.95 -90.75 49.2 -90.75 Q48.45 -91.65 49.1 -92.5 47.7 -92.15 47.5 -90.65 L47.0 -90.65 47.0 -90.25 45.45 -90.05 41.6 -89.6 40.35 -89.4 40.0 -89.4 39.85 -89.35 36.55 -88.75 36.05 -89.1 35.95 -90.05 Q35.9 -91.2 35.35 -92.45 L33.9 -93.6 35.35 -92.45 Q35.9 -91.2 35.95 -90.05 L36.05 -89.1 36.05 -88.65 Q35.35 -88.45 35.2 -88.25 L34.95 -87.7 Q34.6 -87.0 35.05 -86.45 L35.5 -86.1 M38.05 -99.65 Q36.95 -100.3 35.75 -101.85 L35.55 -102.95 38.2 -102.25 Q40.2 -101.65 43.2 -101.65 46.7 -101.65 48.6 -103.1 L50.6 -104.6 Q51.15 -102.7 50.1 -101.4 L47.85 -99.9 44.55 -99.0 42.9 -98.85 39.85 -99.1 39.5 -99.2 38.25 -99.5 38.2 -99.55 38.05 -99.65 M77.5 -94.55 L77.7 -94.2 78.0 -94.6 Q81.2 -94.55 84.65 -92.5 L86.65 -91.05 82.9 -91.4 77.95 -91.7 77.7 -91.7 77.1 -91.7 71.55 -91.8 Q70.8 -92.7 69.6 -93.2 L69.05 -93.3 Q65.15 -94.15 66.95 -96.1 L67.55 -96.55 Q71.6 -93.8 74.4 -93.8 L76.2 -94.2 77.5 -94.55 M58.6 -94.45 L60.75 -96.7 Q61.5 -97.65 61.9 -99.05 L61.9 -99.5 61.9 -99.05 Q61.5 -97.65 60.75 -96.7 L58.6 -94.45 57.8 -93.95 Q57.4 -93.65 57.0 -93.5 L56.15 -93.1 53.65 -92.05 52.15 -92.35 51.9 -92.45 49.45 -92.9 52.25 -93.35 53.1 -93.55 Q56.9 -94.05 54.7 -96.6 56.9 -94.05 53.1 -93.55 L52.25 -93.35 49.45 -92.9 51.9 -92.45 52.15 -92.35 53.65 -92.05 55.8 -91.95 57.55 -92.25 58.35 -92.55 58.45 -93.55 58.6 -94.45 M78.55 -92.7 L77.8 -94.05 77.7 -94.2 77.8 -94.05 78.55 -92.7 M45.75 -91.85 Q46.95 -91.65 47.0 -90.65 46.95 -91.65 45.75 -91.85 M49.45 -92.9 L49.1 -92.5 49.45 -92.9 M75.65 -49.4 Q76.9 -48.15 77.15 -46.65 L77.15 -45.4 Q76.45 -43.65 75.45 -42.25 L72.65 -39.45 70.35 -38.1 65.7 -36.3 Q63.65 -35.6 59.9 -37.35 57.9 -39.45 57.75 -40.7 58.5 -40.35 59.25 -40.25 L62.9 -40.1 Q66.15 -40.1 68.55 -41.2 70.35 -42.15 72.75 -44.3 74.0 -45.4 75.1 -48.45 L75.65 -49.4" fill="#7d8b41" fill-rule="evenodd" stroke="none"/>
      <path d="M27.7 -82.0 Q25.5 -83.0 28.0 -84.85 31.35 -87.45 31.0 -90.9 29.45 -94.35 31.8 -94.05 L32.65 -93.95 33.8 -93.6 33.9 -93.6 33.75 -93.5 Q33.5 -91.9 33.35 -88.3 33.95 -85.6 31.05 -83.5 29.45 -82.4 27.7 -82.0 M33.0 -95.45 Q31.9 -96.15 32.85 -97.4 34.7 -99.55 36.85 -99.75 L38.05 -99.55 38.2 -99.55 38.25 -99.5 39.15 -99.25 39.5 -99.2 39.85 -99.05 Q42.55 -97.75 43.75 -96.05 L44.1 -95.5 45.25 -96.55 47.05 -97.6 48.6 -98.4 Q49.65 -98.9 51.8 -98.4 L53.15 -98.0 53.75 -97.55 54.7 -96.6 53.75 -97.55 Q55.4 -98.25 56.55 -99.55 L57.05 -100.15 Q58.35 -103.9 60.3 -102.4 61.65 -101.2 61.9 -99.85 L63.9 -101.45 Q65.15 -102.45 68.2 -102.1 72.75 -99.95 69.35 -98.3 L68.7 -98.05 66.75 -97.1 Q64.0 -98.9 61.9 -99.5 L60.1 -99.85 Q58.6 -99.85 56.35 -97.8 L54.7 -96.6 Q53.4 -96.05 52.2 -96.15 50.25 -96.45 47.9 -95.55 45.95 -94.85 44.65 -94.65 L43.75 -94.6 40.4 -95.4 37.1 -96.15 36.4 -96.1 Q34.3 -98.6 33.0 -95.45 M35.55 -102.95 Q34.95 -106.7 38.7 -104.95 42.9 -102.95 46.5 -104.6 49.65 -107.25 50.45 -105.05 L50.6 -104.6 48.6 -103.1 Q46.7 -101.65 43.2 -101.65 40.2 -101.65 38.2 -102.25 L35.55 -102.95 M69.7 -97.85 L71.2 -98.2 74.05 -97.35 Q76.35 -96.05 77.5 -94.55 L76.2 -94.2 74.4 -93.8 Q71.6 -93.8 67.55 -96.55 68.55 -97.55 69.7 -97.85 M78.0 -94.6 Q79.05 -95.95 80.65 -96.25 L83.35 -95.65 83.4 -95.55 83.6 -95.5 85.35 -93.55 Q86.65 -92.15 88.25 -90.85 L86.65 -91.05 84.65 -92.5 Q81.2 -94.55 78.0 -94.6 M61.9 -99.85 L61.9 -99.5 61.9 -99.85 M44.1 -95.5 L44.65 -94.65 44.1 -95.5 M75.65 -49.4 L75.1 -48.45 Q74.0 -45.4 72.75 -44.3 70.35 -42.15 68.55 -41.2 66.15 -40.1 62.9 -40.1 L59.25 -40.25 Q58.5 -40.35 57.75 -40.7 L57.75 -40.95 Q57.8 -41.8 58.95 -42.25 L61.3 -42.65 Q67.55 -43.0 70.7 -47.05 72.5 -52.05 75.1 -49.95 L75.65 -49.4" fill="#aec27a" fill-rule="evenodd" stroke="none"/>
      <path d="M32.65 -93.95 L32.55 -94.4 33.0 -95.45 Q34.3 -98.6 36.4 -96.1 34.15 -95.85 33.8 -93.6 L32.65 -93.95 M44.55 -99.0 Q45.7 -98.05 47.05 -97.6 L45.25 -96.55 44.1 -95.5 43.75 -96.05 Q42.55 -97.75 39.85 -99.05 L39.85 -99.1 42.9 -98.85 44.55 -99.0 M51.8 -98.4 Q51.35 -99.45 51.65 -100.05 51.9 -100.6 52.8 -100.75 55.25 -100.95 56.55 -99.55 55.4 -98.25 53.75 -97.55 L53.15 -98.0 51.8 -98.4 M69.35 -98.3 L69.7 -97.85 Q68.55 -97.55 67.55 -96.55 L66.95 -96.1 Q65.15 -94.15 69.05 -93.3 L67.6 -91.8 64.4 -91.65 Q64.55 -92.9 63.9 -94.2 64.9 -95.95 66.75 -97.1 L68.7 -98.05 69.35 -98.3" fill="#99a761" fill-rule="evenodd" stroke="none"/>
      <path d="M99.8 -89.4 L100.05 -89.35 100.1 -89.35 100.45 -89.3 Q101.5 -88.95 101.5 -88.05 101.5 -87.3 101.15 -86.75 L95.9 -87.3 96.8 -89.9 97.4 -89.8 98.4 -89.7 99.7 -89.4 99.8 -89.4 M100.7 -86.2 L101.3 -63.35 94.8 -63.7 Q94.0 -73.65 92.75 -79.15 L95.45 -86.3 96.25 -86.3 100.6 -86.2 100.7 -86.2 M102.25 -22.95 L102.55 -11.25 104.7 -10.85 105.2 -10.05 Q88.55 -6.5 78.0 -6.0 L75.9 -5.85 54.7 -6.85 43.1 -8.35 40.05 -8.85 34.3 -9.9 33.2 -10.2 33.5 -10.75 Q33.75 -11.35 34.6 -11.25 L34.85 -11.15 35.05 -11.15 40.05 -10.45 45.2 -9.8 52.25 -9.05 52.2 -9.2 72.6 -10.25 79.25 -11.55 Q88.45 -12.0 91.6 -13.4 95.95 -15.3 96.85 -21.6 L102.25 -22.95 M35.95 -82.65 L36.05 -85.7 36.2 -85.7 40.0 -85.9 43.3 -86.1 43.75 -85.55 43.95 -85.3 Q45.15 -81.95 45.05 -80.05 44.8 -75.6 46.5 -74.5 48.25 -73.25 48.85 -76.05 L49.35 -78.6 Q51.85 -78.35 52.5 -74.75 L53.1 -67.95 50.65 -66.5 50.0 -71.55 Q48.85 -71.55 47.9 -71.0 46.95 -70.5 46.1 -70.5 42.65 -70.5 42.0 -76.8 41.5 -81.7 39.95 -82.75 L38.9 -83.05 35.95 -82.65 M71.55 -91.8 L77.1 -91.7 77.7 -91.7 77.95 -91.7 82.9 -91.4 86.65 -91.05 88.25 -90.85 88.35 -90.85 87.1 -88.35 87.0 -88.35 70.15 -89.2 57.4 -88.95 57.7 -89.4 Q58.3 -90.4 59.25 -90.8 L59.75 -91.4 63.25 -91.6 64.4 -91.65 67.6 -91.8 71.55 -91.8 M56.8 -86.65 L73.35 -87.0 78.55 -87.0 85.55 -86.75 86.25 -86.65 84.45 -83.2 71.6 -82.8 59.55 -83.35 56.35 -82.85 56.45 -85.5 56.5 -85.75 56.65 -86.65 56.8 -86.65 M102.55 -11.25 L101.25 -10.9 100.1 -10.65 Q80.9 -6.6 53.4 -9.0 L52.25 -9.05 53.4 -9.0 Q80.9 -6.6 100.1 -10.65 L101.25 -10.9 102.55 -11.25" fill="#a2a2a2" fill-rule="evenodd" stroke="none"/>
      <path d="M101.15 -86.75 L100.75 -86.3 100.7 -86.35 96.25 -86.3 95.45 -86.3 90.35 -86.45 90.25 -86.45 89.6 -86.55 89.3 -86.55 86.25 -86.65 85.55 -86.75 78.55 -87.0 73.35 -87.0 56.8 -86.65 56.7 -87.05 57.4 -88.95 70.15 -89.2 87.0 -88.35 87.1 -88.35 90.35 -88.0 95.9 -87.3 101.15 -86.75 M105.2 -10.05 Q105.3 -9.4 104.75 -8.8 103.85 -7.95 100.1 -6.9 96.4 -6.0 82.25 -4.2 68.85 -2.6 40.5 -6.6 L40.05 -6.65 37.1 -7.1 34.7 -7.75 Q32.85 -8.85 33.15 -10.05 L33.2 -10.2 34.3 -9.9 40.05 -8.85 43.1 -8.35 54.7 -6.85 75.9 -5.85 78.0 -6.0 Q88.55 -6.5 105.2 -10.05 M36.05 -85.7 L35.5 -86.0 35.5 -86.1 35.05 -86.45 Q34.6 -87.0 34.95 -87.7 L37.3 -87.5 40.0 -87.65 41.85 -87.8 42.1 -87.6 42.15 -87.45 42.65 -87.0 42.85 -86.65 43.3 -86.1 40.0 -85.9 36.2 -85.7 36.05 -85.7" fill="#848484" fill-rule="evenodd" stroke="none"/>
      <path d="M58.6 -94.45 L58.45 -93.55 58.35 -92.55 57.55 -92.25 55.8 -91.95 53.65 -92.05 56.15 -93.1 57.0 -93.5 Q57.4 -93.65 57.8 -93.95 L58.6 -94.45 M71.55 -91.8 L67.6 -91.8 69.05 -93.3 69.6 -93.2 Q70.8 -92.7 71.55 -91.8 M58.45 -93.55 L57.75 -93.5 56.2 -92.95 Q55.75 -92.55 55.8 -91.95 55.75 -92.55 56.2 -92.95 L57.75 -93.5 58.45 -93.55 M49.2 -90.75 L49.2 -90.45 47.2 -90.25 47.0 -90.25 47.0 -90.65 47.5 -90.65 Q47.7 -92.15 49.1 -92.5 48.45 -91.65 49.2 -90.75 M47.5 -90.65 L47.2 -90.25 47.5 -90.65" fill="#b6c293" fill-rule="evenodd" stroke="none"/>
      <path d="M59.75 -91.4 L59.25 -90.8 Q58.3 -90.4 57.7 -89.4 L57.4 -88.95 56.7 -87.05 56.65 -86.65 56.5 -85.75 56.45 -85.5 56.35 -82.85 56.2 -80.9 56.8 -74.95 Q55.05 -75.1 54.65 -77.05 L54.2 -81.65 Q53.5 -87.6 46.8 -88.25 L45.0 -88.3 43.3 -87.9 42.9 -87.8 42.15 -87.45 42.1 -87.6 41.85 -87.8 40.35 -89.4 41.6 -89.6 45.45 -90.05 47.0 -90.25 47.2 -90.25 49.2 -90.45 50.9 -90.65 52.15 -90.8 52.6 -90.8 53.05 -90.85 53.75 -90.9 56.3 -91.1 57.2 -91.2 58.8 -91.3 59.75 -91.4 M54.05 -48.8 Q55.65 -49.35 57.0 -52.3 L57.4 -53.45 57.8 -55.1 57.9 -52.3 Q57.75 -50.5 57.25 -48.8 55.65 -47.25 54.05 -48.8" fill="#bfa951" fill-rule="evenodd" stroke="none"/>
      <path d="M43.3 -86.1 L42.85 -86.65 42.65 -87.0 42.15 -87.45 42.9 -87.8 43.3 -87.9 45.0 -88.3 46.8 -88.25 Q53.5 -87.6 54.2 -81.65 L54.65 -77.05 Q55.05 -75.1 56.8 -74.95 L57.05 -72.0 56.9 -69.75 56.45 -64.75 56.55 -64.0 56.55 -63.7 Q56.65 -61.8 55.8 -61.0 L55.55 -60.8 Q54.35 -59.9 53.75 -62.3 L53.5 -63.1 53.1 -67.95 52.5 -74.75 Q51.85 -78.35 49.35 -78.6 L48.85 -76.05 Q48.25 -73.25 46.5 -74.5 44.8 -75.6 45.05 -80.05 45.15 -81.95 43.95 -85.3 L43.75 -85.55 43.3 -86.1 M52.9 -55.7 L53.6 -57.45 Q54.65 -58.25 55.55 -58.3 56.55 -58.4 57.4 -57.6 L57.8 -55.1 57.4 -53.45 57.0 -52.3 Q55.65 -49.35 54.05 -48.8 53.15 -50.5 52.9 -52.3 52.6 -53.85 52.8 -55.5 L52.9 -55.7" fill="#d1c77d" fill-rule="evenodd" stroke="none"/>
      <path d="M56.35 -82.85 L59.55 -83.35 71.6 -82.8 84.45 -83.2 86.25 -86.65 89.3 -86.55 89.6 -86.55 90.25 -86.45 90.35 -86.45 95.45 -86.3 92.75 -79.15 92.1 -81.65 91.6 -83.05 90.35 -83.15 90.25 -83.15 86.6 -83.35 84.45 -83.2 77.6 -70.3 Q66.9 -73.85 56.9 -69.75 L57.05 -72.0 56.8 -74.95 56.2 -80.9 56.35 -82.85 M94.8 -63.7 L89.85 -64.0 87.15 -65.8 90.35 -73.2 92.75 -79.15 Q94.0 -73.65 94.8 -63.7 M55.65 -18.65 Q75.55 -16.6 96.85 -21.6 95.95 -15.3 91.6 -13.4 88.45 -12.0 79.25 -11.55 L72.6 -10.25 52.2 -9.2 52.25 -9.05 45.2 -9.8 Q50.55 -13.7 55.65 -18.65" fill="#c8c8c8" fill-rule="evenodd" stroke="none"/>
      <path d="M101.3 -63.35 L101.45 -57.35 95.6 -57.4 94.9 -61.6 94.8 -63.7 101.3 -63.35 M102.2 -27.75 L102.25 -22.95 96.85 -21.6 97.15 -25.45 97.15 -26.8 102.2 -27.75 M53.1 -67.95 L53.5 -63.1 53.75 -62.3 Q52.4 -61.65 51.15 -60.85 L50.95 -64.0 50.65 -66.5 53.1 -67.95" fill="#2d642d" fill-rule="evenodd" stroke="none"/>
      <path d="M56.45 -64.75 L56.9 -69.75 Q66.9 -73.85 77.6 -70.3 82.3 -68.8 87.15 -65.8 L89.85 -64.0 94.8 -63.7 94.9 -61.6 95.6 -57.4 88.35 -57.55 84.5 -60.3 Q79.5 -63.5 74.45 -64.8 71.05 -65.7 67.65 -65.8 62.45 -65.9 57.45 -64.0 L56.8 -63.75 56.45 -64.75 M50.65 -66.5 L50.95 -64.0 51.15 -60.85 47.15 -58.0 40.05 -57.85 39.7 -63.9 47.15 -63.95 47.2 -64.0 50.65 -66.5 M40.6 -26.4 L42.5 -26.1 Q51.6 -24.65 61.0 -24.25 L67.25 -24.15 71.25 -24.2 Q83.9 -24.5 97.15 -26.8 L97.15 -25.45 96.85 -21.6 Q75.55 -16.6 55.65 -18.65 47.75 -19.5 40.2 -21.3 L40.2 -24.25 40.2 -24.9 40.25 -26.5 40.6 -26.4" fill="#367d36" fill-rule="evenodd" stroke="none"/>
      <path d="M55.55 -60.8 L55.8 -61.0 Q56.65 -61.8 56.55 -63.7 L56.8 -63.75 57.45 -64.0 Q62.45 -65.9 67.65 -65.8 71.05 -65.7 74.45 -64.8 79.5 -63.5 84.5 -60.3 L88.35 -57.55 95.6 -57.4 Q97.05 -46.0 97.15 -26.8 83.9 -24.5 71.25 -24.2 L67.25 -24.15 61.0 -24.25 Q51.6 -24.65 42.5 -26.1 L40.6 -26.4 Q40.15 -30.9 39.7 -42.15 L39.65 -46.4 39.5 -52.3 39.45 -56.2 39.65 -57.85 40.05 -57.85 47.15 -58.0 51.15 -60.85 51.35 -55.3 52.25 -55.35 52.9 -55.7 52.8 -55.5 Q52.6 -53.85 52.9 -52.3 53.15 -50.5 54.05 -48.8 55.65 -47.25 57.25 -48.8 57.75 -50.5 57.9 -52.3 L57.8 -55.1 57.4 -57.6 Q56.55 -58.4 55.55 -58.3 L55.8 -59.6 55.8 -60.8 55.55 -60.8 M57.75 -40.7 Q57.9 -39.45 59.9 -37.35 63.65 -35.6 65.7 -36.3 L70.35 -38.1 72.65 -39.45 75.45 -42.25 Q76.45 -43.65 77.15 -45.4 L77.15 -46.65 Q76.9 -48.15 75.65 -49.4 L75.1 -49.95 Q72.5 -52.05 70.7 -47.05 67.55 -43.0 61.3 -42.65 L58.95 -42.25 Q57.8 -41.8 57.75 -40.95 L57.75 -40.7" fill="url(#gradient0)" fill-rule="evenodd" stroke="none"/>
      <path d="M100.75 -86.3 L100.7 -86.3 100.7 -86.35 100.75 -86.3 M50.65 -66.5 L47.2 -64.0 47.15 -63.95 39.7 -63.9 39.45 -69.7 39.95 -82.75 Q41.5 -81.7 42.0 -76.8 42.65 -70.5 46.1 -70.5 46.95 -70.5 47.9 -71.0 48.85 -71.55 50.0 -71.55 L50.65 -66.5" fill="#b3b3b3" fill-rule="evenodd" stroke="none"/>
      <path d="M53.75 -62.3 Q54.35 -59.9 55.55 -60.8 L55.8 -60.8 55.8 -59.6 55.55 -58.3 Q54.65 -58.25 53.6 -57.45 L52.9 -55.7 52.25 -55.35 51.35 -55.3 51.15 -60.85 Q52.4 -61.65 53.75 -62.3" fill="#e1e1e1" fill-rule="evenodd" stroke="none"/>
      <path d="M34.85 -11.15 L35.05 -22.7 37.35 -22.05 40.2 -21.3 40.15 -14.1 40.05 -10.45 35.05 -11.15 34.85 -11.15 M35.65 -63.8 L35.95 -82.65 38.9 -83.05 39.95 -82.75 39.45 -69.7 39.7 -63.9 35.65 -63.8" fill="#d5d5d5" fill-rule="evenodd" stroke="none"/>
      <path d="M35.05 -22.7 L35.15 -27.45 40.25 -26.5 40.2 -24.9 40.2 -24.25 40.2 -21.3 37.35 -22.05 35.05 -22.7 M35.55 -57.8 L35.65 -63.8 39.7 -63.9 40.05 -57.85 39.65 -57.85 35.55 -57.8" fill="#73c072" fill-rule="evenodd" stroke="none"/>
      <path d="M35.15 -27.45 L35.55 -57.8 39.65 -57.85 39.45 -56.2 39.5 -52.3 39.65 -46.4 39.7 -42.15 Q40.15 -30.9 40.6 -26.4 L40.25 -26.5 35.15 -27.45" fill="#dfe4c5" fill-rule="evenodd" stroke="none"/>
      <path d="M87.1 -88.35 L88.35 -90.85 89.5 -90.75 90.35 -90.6 96.8 -89.9 95.9 -87.3 90.35 -88.0 87.1 -88.35 M87.15 -65.8 Q82.3 -68.8 77.6 -70.3 L84.45 -83.2 86.6 -83.35 90.25 -83.15 90.35 -83.15 91.6 -83.05 92.1 -81.65 92.75 -79.15 90.35 -73.2 87.15 -65.8 M40.2 -21.3 Q47.75 -19.5 55.65 -18.65 50.55 -13.7 45.2 -9.8 L40.05 -10.45 40.15 -14.1 40.2 -21.3" fill="#dddddd" fill-rule="evenodd" stroke="none"/>
      <path d="M101.45 -57.35 L102.2 -27.75 97.15 -26.8 Q97.05 -46.0 95.6 -57.4 L101.45 -57.35" fill="#b3bf7b" fill-rule="evenodd" stroke="none"/>
      <path d="M76.55 -112.4 L76.55 -112.65 76.55 -113.1 76.7 -113.9 76.95 -115.8 75.5 -116.85 76.75 -117.95 77.45 -118.05 77.65 -118.7 77.35 -119.15 76.6 -120.25 76.6 -120.8 78.05 -120.35 Q78.95 -123.35 80.35 -126.0 L79.4 -127.35 81.05 -127.4 82.3 -129.5 82.35 -129.55 82.15 -131.0 83.4 -131.05 84.6 -132.5 83.55 -134.95 86.05 -134.15 87.65 -135.65 87.15 -137.3 88.95 -136.95 89.15 -136.9 Q90.5 -137.95 91.95 -138.8 L94.8 -140.3 Q97.7 -141.8 100.75 -142.65 L102.9 -143.25 102.95 -144.9 Q104.0 -145.0 104.75 -144.15 L105.25 -143.7 105.65 -143.75 108.8 -143.9 109.15 -143.9 109.5 -144.6 Q109.7 -145.3 110.2 -145.65 L112.4 -143.85 116.9 -143.45 121.6 -142.6 123.85 -142.05 126.0 -140.95 126.15 -140.8 129.75 -138.45 132.9 -138.05 131.45 -136.9 131.8 -136.5 132.6 -135.65 134.05 -135.45 134.1 -135.3 Q134.15 -135.2 134.3 -135.2 L133.55 -134.35 134.5 -131.9 135.15 -131.8 134.75 -131.05 134.75 -130.85 Q135.05 -128.85 134.45 -126.6 L135.4 -125.5 133.85 -124.45 133.4 -124.2 Q131.55 -120.85 126.95 -115.4 124.6 -112.6 122.6 -109.8 L119.35 -104.95 119.0 -104.4 115.65 -100.75 114.05 -99.35 113.8 -97.75 112.1 -97.75 112.05 -97.75 111.75 -97.45 111.2 -97.0 110.95 -96.55 110.45 -95.1 108.8 -95.3 108.45 -95.0 107.4 -94.25 102.95 -91.2 100.05 -89.4 99.8 -89.4 100.05 -89.35 100.1 -89.35 100.45 -89.3 Q101.5 -88.95 101.5 -88.05 101.5 -87.3 101.15 -86.75 L100.75 -86.3 100.7 -86.3 100.7 -86.2 101.3 -63.35 101.45 -57.35 102.2 -27.75 102.25 -22.95 102.55 -11.25 104.7 -10.85 105.2 -10.05 Q105.3 -9.4 104.75 -8.8 103.85 -7.95 100.1 -6.9 96.4 -6.0 82.25 -4.2 68.85 -2.6 40.5 -6.6 L40.05 -6.65 37.1 -7.1 34.7 -7.75 Q32.85 -8.85 33.15 -10.05 L33.2 -10.2 33.5 -10.75 Q33.75 -11.35 34.6 -11.25 L34.85 -11.15 35.05 -22.7 35.15 -27.45 35.55 -57.8 35.65 -63.8 35.95 -82.65 36.05 -85.7 35.5 -86.0 35.5 -86.1 35.05 -86.45 Q34.6 -87.0 34.95 -87.7 L35.2 -88.25 Q35.35 -88.45 36.05 -88.65 L36.55 -88.75 39.85 -89.35 40.0 -89.4 40.35 -89.4 M83.6 -95.5 L83.5 -95.7 Q81.95 -97.55 80.85 -99.45 L78.3 -100.1 79.75 -101.55 78.75 -103.3 Q76.25 -104.75 75.8 -105.35 76.35 -105.4 77.5 -106.4 L76.8 -108.85 76.15 -109.25 74.65 -110.85 76.0 -111.95 76.55 -112.4 M81.2 -106.1 Q80.75 -108.8 80.75 -111.75 L80.85 -113.9 Q81.35 -122.7 86.1 -129.15 88.25 -132.2 91.3 -134.65 L91.75 -135.0 Q95.95 -138.4 100.6 -140.15 105.4 -142.0 110.6 -142.0 L116.4 -141.65 Q119.2 -141.3 121.35 -140.55 L124.05 -139.4 126.75 -137.3 128.95 -132.85 M115.6 -138.25 L118.5 -136.75 120.8 -135.05 Q124.1 -132.05 123.5 -128.0 123.1 -125.55 120.6 -121.35 L116.3 -114.95 112.35 -109.7 108.35 -104.95 Q103.25 -99.0 99.85 -96.6 L98.95 -96.05 Q97.95 -95.5 97.2 -95.25 L92.0 -95.4 M115.6 -138.25 Q111.7 -139.9 107.7 -139.9 105.1 -139.9 100.55 -137.75 L96.05 -135.4 Q93.45 -133.95 91.65 -132.7 87.9 -130.2 87.15 -128.65 85.4 -125.35 84.15 -118.9 L83.4 -113.9 Q83.0 -110.65 83.0 -107.8 83.0 -105.25 83.25 -103.05 83.8 -98.7 85.5 -95.4 L86.2 -94.2 86.45 -93.75 Q87.35 -92.45 88.6 -91.4 L89.5 -90.75 88.35 -90.85 88.25 -90.85 86.65 -91.05 82.9 -91.4 77.95 -91.7 77.7 -91.7 77.1 -91.7 71.55 -91.8 67.6 -91.8 64.4 -91.65 63.25 -91.6 59.75 -91.4 M100.45 -134.75 Q103.75 -137.3 108.25 -137.3 111.65 -137.3 114.35 -136.0 L115.1 -135.6 Q117.65 -134.1 117.65 -131.8 117.65 -128.85 116.7 -125.85 L115.3 -122.1 113.25 -117.65 Q110.5 -112.25 106.9 -107.9 L104.3 -105.0 100.95 -102.0 Q99.35 -100.8 98.05 -100.2 L96.05 -99.85 Q93.95 -99.85 93.1 -100.7 L93.0 -100.9 Q92.15 -101.85 92.15 -104.4 92.15 -109.8 93.35 -114.05 94.1 -117.05 95.45 -119.5 L97.2 -122.7 100.05 -128.05 100.25 -128.5 100.8 -129.3 Q104.5 -134.65 108.1 -134.65 109.85 -134.65 110.45 -133.9 111.0 -133.25 111.0 -131.4 111.0 -125.9 106.55 -120.25 L103.45 -116.6 100.4 -113.65 Q99.5 -112.95 98.6 -112.4 97.0 -111.6 95.45 -111.6 94.5 -111.6 94.35 -111.9 L94.35 -113.3 Q94.35 -115.7 95.9 -119.3 96.5 -120.85 97.4 -122.6 99.15 -126.0 100.9 -127.75 L101.0 -127.8 Q102.7 -129.45 104.35 -129.45 L104.85 -129.3 105.45 -128.9 Q106.0 -128.3 106.0 -127.35 106.0 -125.45 103.6 -121.5 L102.55 -119.85 101.1 -118.25 Q100.0 -117.2 99.1 -117.1 L101.85 -122.8 M117.55 -111.05 L120.45 -114.45 121.2 -115.3 123.9 -118.15 Q129.6 -124.0 129.6 -129.15 L129.4 -131.8 129.4 -131.85 M91.85 -123.75 Q97.7 -132.1 99.5 -133.9 L100.45 -134.75 M91.2 -95.55 L90.75 -95.85 90.35 -96.1 89.35 -96.95 Q86.3 -100.1 86.3 -104.7 86.3 -110.85 86.9 -113.5 L87.0 -113.9 Q88.05 -118.35 91.6 -123.4 L91.85 -123.75 M85.15 -95.25 Q83.0 -99.25 82.0 -102.45 81.45 -104.2 81.2 -106.1 M117.55 -111.05 L117.25 -110.7 Q115.15 -108.2 114.35 -106.65 112.9 -104.0 110.45 -101.2 L106.8 -97.55 101.7 -93.2 97.9 -90.2 97.4 -89.8 96.8 -89.9 90.35 -90.6 89.5 -90.75 M86.25 -86.65 L85.55 -86.75 78.55 -87.0 73.35 -87.0 56.8 -86.65 M86.25 -86.65 L89.3 -86.55 89.6 -86.55 90.25 -86.45 90.35 -86.45 95.45 -86.3 96.25 -86.3 100.7 -86.35 100.7 -86.3 100.6 -86.2 96.25 -86.3 M36.05 -89.1 L36.55 -88.75 M36.05 -89.1 L36.05 -88.65 M36.05 -85.7 L36.2 -85.7 40.0 -85.9 43.3 -86.1 M40.05 -10.45 L35.05 -11.15 34.85 -11.15 M45.2 -9.8 L52.25 -9.05 53.4 -9.0 Q80.9 -6.6 100.1 -10.65 L101.25 -10.9 102.55 -11.25 M45.2 -9.8 L40.05 -10.45 M102.6 -91.8 L107.4 -94.25 M112.1 -97.8 L112.05 -97.75 M112.1 -97.75 L112.1 -97.8 M98.4 -89.7 L99.7 -89.4 99.8 -89.4 M98.4 -89.7 L97.4 -89.8 M98.4 -89.7 Q99.1 -89.95 99.85 -90.35 L102.6 -91.8 M85.95 -94.0 L86.45 -93.75 M85.95 -94.0 L85.5 -94.6 85.15 -95.25" fill="none" stroke="#000000" stroke-linecap="round" stroke-linejoin="round" stroke-opacity="0.6627451" stroke-width="2.0"/>
      <path d="M35.5 -86.1 L35.35 -85.9 33.7 -83.05 33.25 -82.6 Q32.3 -81.9 29.95 -81.5 L27.7 -82.0 Q25.5 -83.0 28.0 -84.85 31.35 -87.45 31.0 -90.9 29.45 -94.35 31.8 -94.05 L32.65 -93.95 32.55 -94.4 33.0 -95.45 Q31.9 -96.15 32.85 -97.4 34.7 -99.55 36.85 -99.75 L38.05 -99.55 38.05 -99.65 Q36.95 -100.3 35.75 -101.85 L35.55 -102.95 Q34.95 -106.7 38.7 -104.95 42.9 -102.95 46.5 -104.6 49.65 -107.25 50.45 -105.05 L50.6 -104.6 Q51.15 -102.7 50.1 -101.4 L47.85 -99.9 44.55 -99.0 Q45.7 -98.05 47.05 -97.6 L48.6 -98.4 Q49.65 -98.9 51.8 -98.4 51.35 -99.45 51.65 -100.05 51.9 -100.6 52.8 -100.75 55.25 -100.95 56.55 -99.55 L57.05 -100.15 Q58.35 -103.9 60.3 -102.4 61.65 -101.2 61.9 -99.85 L63.9 -101.45 Q65.15 -102.45 68.2 -102.1 72.75 -99.95 69.35 -98.3 L69.7 -97.85 71.2 -98.2 74.05 -97.35 Q76.35 -96.05 77.5 -94.55 L77.7 -94.2 78.0 -94.6 Q79.05 -95.95 80.65 -96.25 L83.35 -95.65 83.4 -95.55 83.6 -95.5 85.35 -93.55 Q86.65 -92.15 88.25 -90.85 M38.2 -99.55 L38.05 -99.65 M38.2 -99.55 L38.05 -99.55 M38.25 -99.5 L38.2 -99.55 M39.85 -99.05 L39.5 -99.2 39.15 -99.25 38.25 -99.5 39.5 -99.2 39.85 -99.1 42.9 -98.85 44.55 -99.0 M39.85 -99.05 Q42.55 -97.75 43.75 -96.05 L44.1 -95.5 45.25 -96.55 47.05 -97.6 M61.9 -99.5 L61.9 -99.05 Q61.5 -97.65 60.75 -96.7 L58.6 -94.45 58.45 -93.55 58.35 -92.55 Q59.2 -92.9 59.95 -93.4 L60.25 -93.75 Q62.25 -96.05 63.45 -94.9 L63.8 -94.55 63.9 -94.2 Q64.9 -95.95 66.75 -97.1 L68.7 -98.05 69.35 -98.3 M54.7 -96.6 Q56.9 -94.05 53.1 -93.55 L52.25 -93.35 49.45 -92.9 51.9 -92.45 52.15 -92.35 53.65 -92.05 56.15 -93.1 57.0 -93.5 Q57.4 -93.65 57.8 -93.95 L58.6 -94.45 M61.9 -99.5 L61.9 -99.85 M77.7 -94.2 L77.8 -94.05 78.55 -92.7 M56.8 -86.65 L56.65 -86.65 56.5 -85.75 56.45 -85.5 M69.7 -97.85 Q68.55 -97.55 67.55 -96.55 L66.95 -96.1 Q65.15 -94.15 69.05 -93.3 L69.6 -93.2 Q70.8 -92.7 71.55 -91.8 M64.4 -91.65 Q64.55 -92.9 63.9 -94.2 M69.05 -93.3 L67.6 -91.8 M55.8 -91.95 Q55.75 -92.55 56.2 -92.95 L57.75 -93.5 58.45 -93.55 M54.7 -96.6 L53.75 -97.55 53.15 -98.0 51.8 -98.4 M52.15 -90.8 L52.6 -90.8 53.05 -90.85 M50.9 -90.65 L52.15 -90.8 M50.95 -90.75 L49.2 -90.75 Q48.45 -91.65 49.1 -92.5 L49.45 -92.9 M58.35 -92.55 L57.55 -92.25 55.8 -91.95 53.65 -92.05 M56.7 -87.05 L56.65 -86.65 M53.75 -90.9 L56.3 -91.1 M36.4 -96.1 L36.75 -95.65 Q38.8 -92.65 41.8 -91.9 L43.25 -91.7 45.75 -91.85 45.55 -92.9 44.65 -94.65 44.1 -95.5 M42.1 -87.6 L41.85 -87.8 M47.0 -90.25 L47.0 -90.65 Q46.95 -91.65 45.75 -91.85 M47.2 -90.25 L47.5 -90.65 47.0 -90.65 M47.5 -90.65 Q47.7 -92.15 49.1 -92.5 M33.8 -93.6 L33.9 -93.6 35.35 -92.45 Q35.9 -91.2 35.95 -90.05 L36.05 -89.1 M32.65 -93.95 L33.8 -93.6 M36.4 -96.1 Q34.3 -98.6 33.0 -95.45 M56.55 -99.55 Q55.4 -98.25 53.75 -97.55" fill="none" stroke="#000000" stroke-linecap="round" stroke-linejoin="round" stroke-opacity="0.6627451" stroke-width="1.0"/>
      <path d="M59.75 -91.4 L59.25 -90.8 Q58.3 -90.4 57.7 -89.4 L57.4 -88.95 56.7 -87.05 M56.45 -85.5 L56.35 -82.85 56.2 -80.9 56.8 -74.95 57.05 -72.0 56.9 -69.75 56.45 -64.75 56.55 -64.0 56.55 -63.7 Q56.65 -61.8 55.8 -61.0 L55.55 -60.8 Q54.35 -59.9 53.75 -62.3 L53.5 -63.1 53.1 -67.95 52.5 -74.75 Q51.85 -78.35 49.35 -78.6 L48.85 -76.05 Q48.25 -73.25 46.5 -74.5 44.8 -75.6 45.05 -80.05 45.15 -81.95 43.95 -85.3 L43.75 -85.55 43.3 -86.1 42.85 -86.65 42.65 -87.0 42.15 -87.45 M50.95 -90.75 L52.15 -90.8 M53.05 -90.85 L53.75 -90.9 56.15 -91.1 56.3 -91.1 57.2 -91.2 58.8 -91.3 59.75 -91.4 M50.9 -90.65 L50.95 -90.75 M49.2 -90.75 L49.2 -90.45 50.9 -90.65 M40.35 -89.4 L41.6 -89.6 45.45 -90.05 47.0 -90.25 47.2 -90.25 49.2 -90.45 M56.8 -63.75 L56.55 -63.7 M52.9 -55.7 L53.6 -57.45 Q54.65 -58.25 55.55 -58.3 56.55 -58.4 57.4 -57.6 L57.8 -55.1 57.9 -52.3 Q57.75 -50.5 57.25 -48.8 55.65 -47.25 54.05 -48.8 53.15 -50.5 52.9 -52.3 52.6 -53.85 52.8 -55.5 L52.9 -55.7 M40.35 -89.4 L41.85 -87.8" fill="none" stroke="#7c8f47" stroke-linecap="round" stroke-linejoin="round" stroke-width="1.0"/>
      <path d="M-27.8 -60.55 Q-28.55 -61.5 -28.45 -62.6 L-28.05 -62.75 -25.3 -61.35 -24.8 -61.05 -18.8 -57.7 Q-8.75 -52.45 -1.7 -52.5 5.45 -52.55 11.15 -53.85 L18.6 -55.75 Q20.6 -56.1 21.8 -56.6 22.85 -57.1 23.3 -57.75 L23.55 -60.0 23.55 -60.05 Q23.85 -63.25 29.65 -65.1 32.7 -66.15 34.2 -65.7 L34.25 -65.65 Q35.25 -65.3 35.4 -64.15 L37.75 -60.25 Q39.75 -56.65 40.85 -56.65 41.95 -56.7 49.25 -58.3 55.5 -59.75 60.7 -60.2 L61.05 -60.2 62.45 -60.35 Q68.3 -60.75 70.2 -58.45 71.7 -56.6 71.75 -50.85 71.75 -50.0 71.25 -49.2 L70.15 -48.0 69.8 -47.7 Q68.6 -46.75 66.9 -45.95 L63.35 -44.85 60.05 -43.55 60.0 -43.5 Q62.8 -43.75 65.45 -44.6 68.0 -45.55 70.5 -46.1 L70.7 -46.05 71.85 -46.35 71.9 -46.35 72.4 -46.5 73.1 -46.45 74.2 -46.45 74.45 -46.3 74.8 -46.1 75.4 -45.5 76.2 -44.45 76.4 -44.05 76.45 -43.95 76.6 -43.55 77.05 -42.3 78.2 -39.6 78.25 -37.7 Q78.3 -35.65 77.95 -35.1 77.15 -33.65 73.65 -32.2 71.9 -31.45 68.35 -30.4 64.1 -29.15 62.45 -29.1 L62.5 -28.7 Q62.95 -27.95 65.1 -27.95 L69.1 -27.75 69.65 -27.8 73.55 -27.45 Q74.35 -27.0 74.45 -26.3 L74.5 -24.65 Q74.4 -21.25 73.1 -18.0 L72.65 -16.45 Q72.15 -13.7 68.45 -13.65 L63.85 -14.3 59.45 -15.35 52.35 -17.05 48.05 -15.75 Q43.55 -14.35 41.45 -13.9 L35.95 -13.0 30.35 -12.15 8.8 -8.7 5.05 -8.65 Q-7.9 -8.5 -16.3 -9.85 -27.95 -11.65 -35.2 -16.5 L-41.3 -19.95 -42.45 -20.6 Q-44.95 -22.3 -45.95 -23.6 -46.7 -24.4 -46.75 -25.1 L-46.65 -25.8 -46.6 -25.85 -46.0 -25.35 -42.4 -22.8 Q-32.65 -16.55 -20.55 -14.1 -5.85 -11.05 4.2 -11.5 L6.95 -11.65 8.75 -11.65 Q19.7 -12.05 30.4 -14.45 L35.95 -15.65 48.35 -18.25 49.7 -19.2 51.8 -19.4 54.15 -19.3 55.9 -18.9 58.9 -18.15 60.3 -17.75 64.05 -16.9 65.4 -16.6 68.0 -16.15 69.3 -16.45 Q71.05 -19.5 71.85 -23.0 L72.2 -24.65 72.2 -25.3 72.1 -25.55 68.9 -25.4 63.65 -25.9 62.75 -26.15 62.25 -26.3 61.2 -26.9 Q60.25 -27.65 60.3 -28.3 60.25 -29.15 60.45 -29.7 L60.45 -30.0 Q60.4 -30.95 63.7 -31.95 L68.95 -33.45 72.3 -34.75 74.6 -35.6 Q75.65 -36.2 75.65 -37.85 L75.75 -38.6 Q75.7 -40.2 75.1 -41.15 L74.9 -41.6 74.3 -42.5 73.95 -43.0 Q73.55 -43.4 73.15 -43.35 L73.0 -43.3 72.95 -43.45 71.15 -43.05 66.15 -41.5 65.55 -41.3 Q60.05 -39.55 58.65 -39.55 L58.2 -39.55 57.95 -39.65 55.7 -40.45 55.35 -40.6 Q54.75 -41.05 54.75 -42.0 54.75 -43.7 56.9 -44.8 57.95 -45.35 61.75 -46.55 64.6 -47.5 66.3 -48.65 68.65 -50.3 68.7 -52.5 L68.75 -53.3 Q68.75 -54.25 68.15 -55.8 67.3 -57.65 66.35 -57.7 L63.05 -57.55 62.1 -57.45 Q56.7 -57.05 51.25 -55.75 45.05 -54.25 42.15 -54.0 L41.05 -53.9 Q37.7 -53.9 36.55 -55.7 35.95 -56.75 35.45 -58.75 L33.9 -61.45 33.55 -62.1 33.5 -62.1 33.0 -62.6 32.65 -62.6 31.25 -62.4 28.6 -61.5 27.55 -60.85 27.25 -60.7 Q26.95 -60.4 26.95 -59.9 L27.0 -58.4 26.95 -57.75 Q26.8 -56.45 24.15 -54.3 21.6 -52.2 11.3 -50.45 L9.45 -50.15 -3.2 -49.6 Q-7.45 -50.45 -12.6 -51.85 -17.7 -53.3 -20.0 -55.2 L-24.15 -57.55 -25.9 -58.9 -26.65 -59.4 -27.8 -60.55 M100.8 -68.75 L102.55 -68.6 105.7 -67.85 Q107.55 -67.3 111.1 -65.65 L112.3 -65.1 Q119.6 -61.8 120.9 -59.65 121.55 -58.7 121.3 -57.5 L120.6 -55.15 Q119.9 -52.25 119.3 -50.9 118.75 -49.8 117.8 -49.5 L117.0 -49.35 117.05 -49.0 117.05 -47.6 116.8 -45.45 115.9 -42.6 Q115.35 -40.6 114.45 -39.55 116.0 -39.0 116.7 -37.6 117.2 -36.65 117.2 -34.9 L116.8 -32.2 116.2 -29.2 Q115.0 -25.3 113.35 -24.45 L109.9 -24.15 108.85 -24.15 Q104.95 -24.25 102.15 -24.9 L94.7 -27.25 Q91.3 -28.4 90.0 -29.7 89.05 -30.7 89.05 -32.3 L90.3 -38.35 Q90.55 -39.7 91.15 -41.35 L91.2 -41.5 90.15 -41.9 Q87.0 -43.05 86.3 -44.4 L86.15 -44.9 Q86.0 -45.65 86.0 -47.2 L86.05 -49.4 86.15 -49.9 Q86.6 -51.9 87.65 -53.65 88.35 -54.7 89.15 -55.1 L90.55 -55.8 94.6 -55.15 97.45 -54.3 Q93.8 -57.0 95.1 -62.3 L95.75 -64.65 96.55 -66.3 97.2 -66.85 Q98.8 -68.0 100.4 -68.7 L100.8 -68.75 M114.45 -61.55 L111.85 -62.5 104.85 -65.5 100.95 -66.7 100.4 -66.5 100.05 -66.25 99.05 -65.4 97.9 -63.8 Q97.65 -63.55 97.3 -62.25 96.9 -60.95 96.8 -59.95 96.65 -59.0 97.4 -57.9 99.5 -54.95 110.4 -52.3 L113.15 -51.7 116.1 -51.4 Q117.75 -51.85 118.65 -55.55 119.65 -59.6 117.85 -60.3 L114.45 -61.55 M110.9 -49.9 L107.55 -50.65 102.8 -51.95 101.65 -52.0 97.8 -52.7 92.2 -53.35 90.55 -53.15 Q88.85 -51.95 88.5 -50.0 L88.35 -49.4 88.25 -47.25 Q88.25 -45.6 88.45 -45.35 89.0 -44.6 92.15 -43.65 95.35 -42.65 101.55 -41.7 L108.7 -40.85 109.15 -40.85 Q112.2 -40.85 112.8 -41.45 L114.3 -45.6 114.5 -48.35 Q114.55 -48.95 114.75 -49.35 L110.9 -49.9 M111.35 -38.2 L110.8 -38.35 109.15 -38.35 102.15 -39.15 95.15 -40.25 92.85 -40.95 Q92.5 -40.7 92.45 -40.25 L91.8 -37.55 91.15 -34.85 90.75 -32.25 Q90.75 -31.2 92.95 -30.2 94.95 -29.3 98.1 -28.7 L101.95 -27.5 Q105.6 -26.45 109.75 -26.45 L109.85 -26.45 Q112.8 -26.45 113.4 -26.95 113.9 -27.45 114.8 -30.8 L115.4 -34.95 Q115.4 -37.4 112.65 -37.9 L111.35 -38.2" fill="#000000" fill-rule="evenodd" stroke="none"/>
      <path d="M-27.8 -60.55 L-26.65 -59.4 -25.9 -58.9 -24.15 -57.55 -20.0 -55.2 Q-17.7 -53.3 -12.6 -51.85 -7.45 -50.45 -3.2 -49.6 L9.45 -50.15 7.3 -49.75 Q-2.3 -48.15 -6.15 -49.0 -10.1 -49.8 -14.9 -51.15 -19.7 -52.55 -21.8 -54.25 L-25.65 -56.45 -27.3 -57.75 -28.0 -58.25 -29.7 -59.2 -27.8 -60.55 M27.55 -60.85 L28.6 -61.5 31.25 -62.4 32.65 -62.6 33.0 -62.6 33.5 -62.1 33.55 -62.1 33.9 -61.45 35.45 -58.75 Q35.95 -56.75 36.55 -55.7 37.7 -53.9 41.05 -53.9 L42.15 -54.0 34.85 -52.8 Q31.75 -52.85 30.7 -54.5 30.2 -55.5 29.75 -57.35 L28.3 -59.9 27.95 -60.5 27.9 -60.5 27.55 -60.85 M62.1 -57.45 L63.05 -57.55 66.35 -57.7 Q67.3 -57.65 68.15 -55.8 68.75 -54.25 68.75 -53.3 L68.7 -52.5 Q68.65 -50.3 66.3 -48.65 64.6 -47.5 61.75 -46.55 57.95 -45.35 56.9 -44.8 54.75 -43.7 54.75 -42.0 54.75 -41.05 55.35 -40.6 L55.7 -40.45 Q52.15 -39.4 51.1 -39.4 L50.7 -39.4 50.45 -39.5 50.4 -39.5 Q50.25 -40.0 50.25 -40.5 50.35 -43.4 56.8 -45.95 63.25 -48.4 63.35 -51.55 63.4 -53.4 62.3 -56.85 L62.1 -57.45 M66.15 -41.5 L71.15 -43.05 72.95 -43.45 73.0 -43.3 73.15 -43.35 Q73.55 -43.4 73.95 -43.0 L74.3 -42.5 74.9 -41.6 75.1 -41.15 Q75.7 -40.2 75.75 -38.6 L75.65 -37.85 Q75.65 -36.2 74.6 -35.6 L72.3 -34.75 68.95 -33.45 63.7 -31.95 Q60.4 -30.95 60.45 -30.0 L60.45 -29.7 Q60.25 -29.15 60.3 -28.3 60.25 -27.65 61.2 -26.9 L62.25 -26.3 60.65 -26.3 Q56.8 -26.3 54.9 -27.0 54.15 -27.1 53.45 -27.65 52.65 -28.35 52.65 -28.95 52.6 -29.75 52.8 -30.25 L52.8 -30.55 Q52.75 -31.45 55.8 -32.35 L60.65 -33.8 63.85 -34.95 65.95 -35.7 Q66.95 -36.25 66.95 -37.75 L67.05 -38.45 Q67.0 -39.95 66.4 -40.85 L66.25 -41.3 66.15 -41.5 M63.65 -25.9 L68.9 -25.4 72.1 -25.55 72.2 -25.3 72.2 -24.65 71.85 -23.0 Q71.05 -19.5 69.3 -16.45 L68.0 -16.15 65.4 -16.6 64.05 -16.9 60.3 -17.75 60.9 -17.9 Q62.6 -20.75 63.35 -24.0 L63.65 -25.55 63.65 -25.9 M51.8 -19.4 L49.7 -19.2 48.35 -18.25 35.95 -15.65 30.4 -14.45 Q19.7 -12.05 8.75 -11.65 L6.95 -11.65 4.2 -11.5 Q-5.85 -11.05 -20.55 -14.1 -32.65 -16.55 -42.4 -22.8 L-46.0 -25.35 -46.1 -26.15 -46.2 -26.65 -42.7 -24.3 Q-33.7 -18.45 -22.45 -16.15 -8.85 -13.3 0.45 -13.65 L3.1 -13.75 4.8 -13.75 Q14.9 -14.05 24.85 -16.25 L29.95 -17.35 41.5 -19.7 Q42.35 -20.35 43.85 -20.25 L46.85 -20.7 48.5 -20.3 51.3 -19.55 51.8 -19.4 M113.15 -51.7 L114.7 -52.25 Q115.75 -53.3 115.9 -54.45 L115.9 -56.85 Q115.9 -59.1 114.45 -61.55 L117.85 -60.3 Q119.65 -59.6 118.65 -55.55 117.75 -51.85 116.1 -51.4 L113.15 -51.7 M108.7 -40.85 Q108.7 -42.45 109.6 -45.45 L110.9 -49.9 114.75 -49.35 Q114.55 -48.95 114.5 -48.35 L114.3 -45.6 112.8 -41.45 Q112.2 -40.85 109.15 -40.85 L108.7 -40.85 M109.75 -26.45 L110.5 -28.85 111.65 -32.6 111.9 -35.75 Q111.9 -37.15 111.35 -38.2 L112.65 -37.9 Q115.4 -37.4 115.4 -34.95 L114.8 -30.8 Q113.9 -27.45 113.4 -26.95 112.8 -26.45 109.85 -26.45 L109.75 -26.45" fill="#bdbdbd" fill-rule="evenodd" stroke="none"/>
      <path d="M9.45 -50.15 L11.3 -50.45 Q21.6 -52.2 24.15 -54.3 26.8 -56.45 26.95 -57.75 L27.0 -58.4 26.95 -59.9 Q26.95 -60.4 27.25 -60.7 L27.55 -60.85 27.9 -60.5 27.95 -60.5 28.3 -59.9 29.75 -57.35 Q30.2 -55.5 30.7 -54.5 31.75 -52.85 34.85 -52.8 L42.15 -54.0 Q45.05 -54.25 51.25 -55.75 56.7 -57.05 62.1 -57.45 L62.3 -56.85 Q63.4 -53.4 63.35 -51.55 63.25 -48.4 56.8 -45.95 50.35 -43.4 50.25 -40.5 50.25 -40.0 50.4 -39.5 L50.45 -39.5 50.7 -39.4 51.1 -39.4 Q52.15 -39.4 55.7 -40.45 L57.95 -39.65 58.2 -39.55 58.65 -39.55 Q60.05 -39.55 65.55 -41.3 L66.15 -41.5 66.25 -41.3 66.4 -40.85 Q67.0 -39.95 67.05 -38.45 L66.95 -37.75 Q66.95 -36.25 65.95 -35.7 L63.85 -34.95 60.65 -33.8 55.8 -32.35 Q52.75 -31.45 52.8 -30.55 L52.8 -30.25 Q52.6 -29.75 52.65 -28.95 52.65 -28.35 53.45 -27.65 54.15 -27.1 54.9 -27.0 56.8 -26.3 60.65 -26.3 L62.25 -26.3 62.75 -26.15 63.65 -25.9 63.65 -25.55 63.35 -24.0 Q62.6 -20.75 60.9 -17.9 L60.3 -17.75 58.9 -18.15 55.9 -18.9 54.15 -19.3 51.8 -19.4 51.3 -19.55 48.5 -20.3 46.85 -20.7 43.85 -20.25 Q42.35 -20.35 41.5 -19.7 L29.95 -17.35 24.85 -16.25 Q14.9 -14.05 4.8 -13.75 L3.1 -13.75 0.45 -13.65 Q-8.85 -13.3 -22.45 -16.15 -33.7 -18.45 -42.7 -24.3 L-46.2 -26.65 -46.4 -28.55 Q-46.45 -33.45 -44.6 -38.75 -42.95 -43.85 -40.05 -47.95 -37.4 -51.75 -34.15 -55.1 -31.75 -57.7 -29.7 -59.2 L-28.0 -58.25 -27.3 -57.75 -25.65 -56.45 -21.8 -54.25 Q-19.7 -52.55 -14.9 -51.15 -10.1 -49.8 -6.15 -49.0 -2.3 -48.15 7.3 -49.75 L9.45 -50.15 M113.15 -51.7 L110.4 -52.3 Q99.5 -54.95 97.4 -57.9 96.65 -59.0 96.8 -59.95 96.9 -60.95 97.3 -62.25 97.65 -63.55 97.9 -63.8 L99.05 -65.4 100.05 -66.25 100.4 -66.5 100.95 -66.7 104.85 -65.5 111.85 -62.5 114.45 -61.55 Q115.9 -59.1 115.9 -56.85 L115.9 -54.45 Q115.75 -53.3 114.7 -52.25 L113.15 -51.7 M108.7 -40.85 L101.55 -41.7 Q95.35 -42.65 92.15 -43.65 89.0 -44.6 88.45 -45.35 88.25 -45.6 88.25 -47.25 L88.35 -49.4 88.5 -50.0 Q88.85 -51.95 90.55 -53.15 L92.2 -53.35 97.8 -52.7 101.65 -52.0 102.8 -51.95 107.55 -50.65 110.9 -49.9 109.6 -45.45 Q108.7 -42.45 108.7 -40.85 M109.75 -26.45 Q105.6 -26.45 101.95 -27.5 L98.1 -28.7 Q94.95 -29.3 92.95 -30.2 90.75 -31.2 90.75 -32.25 L91.15 -34.85 91.8 -37.55 92.45 -40.25 Q92.5 -40.7 92.85 -40.95 L95.15 -40.25 102.15 -39.15 109.15 -38.35 110.8 -38.35 111.35 -38.2 Q111.9 -37.15 111.9 -35.75 L111.65 -32.6 110.5 -28.85 109.75 -26.45" fill="#999999" fill-rule="evenodd" stroke="none"/>
    </g>
    <radialGradient cx="0" cy="0" gradientTransform="matrix(0.0445, 0.0, 0.0, 0.0421, 66.15, -44.95)" gradientUnits="userSpaceOnUse" id="gradient0" r="819.2" spreadMethod="pad">
      <stop offset="0.0" stop-color="#ffffff"/>
      <stop offset="0.6" stop-color="#f5f7ee"/>
      <stop offset="1.0" stop-color="#aec27a"/>
    </radialGradient>
  </defs>
</svg>
