<?xml version="1.0" encoding="UTF-8" standalone="no"?>
<svg xmlns:xlink="http://www.w3.org/1999/xlink" height="531.5px" width="460.6px" xmlns="http://www.w3.org/2000/svg">
  <g transform="matrix(1.0, 0.0, 0.0, 1.0, 193.65, 334.05)">
    <use height="142.15" transform="matrix(1.0, 0.0, 0.0, 1.0, -157.05, -173.95)" width="317.95" xlink:href="#shape0"/>
  </g>
  <defs>
    <g id="shape0" transform="matrix(1.0, 0.0, 0.0, 1.0, 157.05, 173.95)">
      <path d="M7.2 -130.1 L8.85 -129.75 Q10.7 -129.25 13.45 -126.75 16.25 -123.85 16.7 -121.85 16.95 -120.7 16.45 -119.4 L15.05 -117.55 12.45 -113.8 10.5 -111.65 Q9.5 -110.2 10.6 -109.3 L12.2 -111.2 13.2 -112.5 13.5 -112.4 14.5 -112.5 Q15.55 -111.45 17.35 -109.8 21.25 -106.05 21.05 -103.2 L20.7 -101.3 19.45 -99.0 18.25 -97.35 17.9 -96.6 17.4 -96.1 18.7 -95.95 19.2 -95.85 22.35 -91.65 23.25 -90.45 Q23.35 -88.15 22.0 -85.75 L20.95 -83.65 16.1 -76.05 Q9.9 -66.7 4.15 -57.25 1.55 -52.9 -1.25 -48.85 -5.9 -45.15 -7.55 -43.3 -9.75 -40.7 -12.75 -39.15 -15.75 -37.4 -19.0 -37.05 L-34.25 -35.9 -45.25 -34.5 -47.2 -34.3 -47.15 -38.65 Q-47.0 -41.75 -46.45 -44.75 -45.1 -52.2 -41.9 -59.5 -39.25 -64.75 -38.05 -68.1 L-36.35 -69.9 -34.05 -71.6 -31.25 -72.6 Q-31.9 -70.9 -31.4 -69.75 -30.1 -72.25 -27.55 -75.4 L-16.15 -88.05 -15.85 -88.55 -15.85 -89.15 -15.9 -89.45 -16.15 -89.55 -16.55 -89.65 -17.3 -89.6 -18.55 -91.25 -20.5 -93.7 -22.6 -96.2 Q-24.25 -98.8 -23.7 -101.55 -23.1 -104.75 -20.65 -108.45 L-18.15 -111.9 Q-16.0 -114.6 -14.5 -115.6 -13.15 -116.55 -11.7 -116.3 -10.5 -116.1 -8.65 -114.85 L-7.5 -114.05 -9.5 -111.35 Q-10.85 -109.55 -11.05 -108.3 -9.4 -108.5 -7.95 -110.55 L-5.35 -114.3 -0.25 -120.65 5.0 -127.7 7.2 -130.1" fill="#999999" fill-rule="evenodd" stroke="none"/>
      <path d="M7.2 -130.1 L5.0 -127.7 -0.25 -120.65 -5.35 -114.3 -7.95 -110.55 Q-9.4 -108.5 -11.05 -108.3 -10.85 -109.55 -9.5 -111.35 L-7.5 -114.05 -8.65 -114.85 Q-10.5 -116.1 -11.7 -116.3 -13.15 -116.55 -14.5 -115.6 -16.0 -114.6 -18.15 -111.9 L-20.65 -108.45 Q-23.1 -104.75 -23.7 -101.55 -24.25 -98.8 -22.6 -96.2 L-20.5 -93.7 -18.55 -91.25 -17.3 -89.6 -16.55 -89.65 -16.15 -89.55 -15.9 -89.45 -15.85 -89.15 -15.85 -88.55 -16.15 -88.05 -27.55 -75.4 Q-30.1 -72.25 -31.4 -69.75 -31.9 -70.9 -31.25 -72.6 L-34.05 -71.6 -36.35 -69.9 -38.05 -68.1 -38.75 -67.5 Q-39.9 -69.4 -35.7 -72.25 -31.75 -74.95 -30.15 -74.65 L-30.1 -74.65 -29.6 -75.4 -27.2 -78.05 -18.55 -88.45 -18.3 -88.85 -20.3 -90.9 -22.5 -93.9 Q-24.15 -95.85 -24.75 -97.3 L-25.3 -99.2 Q-25.4 -100.9 -24.95 -102.95 L-24.0 -105.45 Q-21.5 -110.65 -18.25 -114.35 -14.45 -118.6 -11.65 -118.1 -10.95 -117.95 -8.45 -116.3 L-6.75 -115.15 -4.25 -118.25 -0.75 -122.45 4.75 -129.75 Q8.4 -134.25 11.15 -133.75 12.45 -133.5 16.55 -130.25 L18.6 -128.2 Q20.25 -125.6 19.45 -121.45 L15.8 -115.9 14.9 -114.6 17.25 -114.6 17.75 -114.5 Q19.7 -113.8 20.9 -112.3 26.95 -104.85 19.9 -97.05 L19.85 -96.9 Q22.0 -96.5 23.45 -95.1 L24.45 -93.95 Q26.0 -91.0 25.0 -87.65 L24.9 -87.4 24.1 -85.4 Q23.3 -83.2 21.7 -80.65 L19.8 -77.65 Q13.35 -68.7 7.8 -59.15 L4.05 -53.2 Q-0.7 -45.85 -6.3 -38.95 -9.55 -35.6 -12.95 -34.0 -24.85 -31.15 -37.3 -32.0 L-42.25 -32.3 -46.85 -32.9 Q-48.05 -33.15 -48.5 -33.75 L-47.65 -34.1 Q-47.45 -34.15 -47.2 -34.3 L-45.25 -34.5 -44.45 -34.45 -41.85 -34.3 Q-31.3 -33.4 -20.65 -34.2 -16.3 -34.5 -12.5 -36.4 -10.4 -37.5 -8.4 -39.3 -4.65 -43.95 -1.25 -48.85 1.55 -52.9 4.15 -57.25 9.9 -66.7 16.1 -76.05 L20.95 -83.65 22.0 -85.75 Q23.35 -88.15 23.25 -90.45 23.15 -92.05 22.35 -93.7 L21.95 -94.4 21.45 -94.85 20.05 -95.65 19.2 -95.85 18.7 -95.95 17.4 -96.1 17.9 -96.6 18.25 -97.35 19.45 -99.0 20.7 -101.3 Q23.6 -108.05 17.4 -112.7 L16.9 -112.8 15.25 -112.6 14.5 -112.5 13.5 -112.4 13.2 -112.5 12.2 -111.2 10.6 -109.3 Q9.5 -110.2 10.5 -111.65 L12.45 -113.8 15.05 -117.55 16.45 -119.4 Q17.9 -121.5 18.0 -122.15 18.65 -125.35 17.0 -127.45 L15.0 -129.3 13.25 -130.8 Q11.7 -132.0 11.0 -132.1 9.55 -132.4 7.2 -130.1" fill="#000000" fill-rule="evenodd" stroke="none"/>
      <path d="M16.45 -119.4 Q16.95 -120.7 16.7 -121.85 16.25 -123.85 13.45 -126.75 10.7 -129.25 8.85 -129.75 L7.2 -130.1 Q9.55 -132.4 11.0 -132.1 11.7 -132.0 13.25 -130.8 L15.0 -129.3 17.0 -127.45 Q18.65 -125.35 18.0 -122.15 17.9 -121.5 16.45 -119.4 M-45.25 -34.5 L-34.25 -35.9 -19.0 -37.05 Q-15.75 -37.4 -12.75 -39.15 -9.75 -40.7 -7.55 -43.3 -5.9 -45.15 -1.25 -48.85 -4.65 -43.95 -8.4 -39.3 -10.4 -37.5 -12.5 -36.4 -16.3 -34.5 -20.65 -34.2 -31.3 -33.4 -41.85 -34.3 L-44.45 -34.45 -45.25 -34.5 M23.25 -90.45 L22.35 -91.65 19.2 -95.85 20.05 -95.65 21.45 -94.85 21.95 -94.4 22.35 -93.7 Q23.15 -92.05 23.25 -90.45 M20.7 -101.3 L21.05 -103.2 Q21.25 -106.05 17.35 -109.8 15.55 -111.45 14.5 -112.5 L15.25 -112.6 16.9 -112.8 17.4 -112.7 Q23.6 -108.05 20.7 -101.3" fill="#bdbdbd" fill-rule="evenodd" stroke="none"/>
      <path d="M5.25 -108.25 L6.4 -116.5 Q9.0 -116.35 9.0 -115.45 L5.25 -108.25 M-0.8 -119.45 L-10.1 -106.75 Q-16.75 -108.3 -22.75 -111.85 L-18.05 -115.05 -7.75 -122.25 Q-3.2 -121.15 -0.8 -119.45 M15.7 -105.7 L14.0 -113.4 Q19.9 -111.85 22.55 -109.95 L15.7 -105.7" fill="#d9cda2" fill-rule="evenodd" stroke="none"/>
      <path d="M6.4 -116.5 L5.25 -108.25 4.15 -100.9 Q-3.0 -102.6 -10.1 -106.75 L-0.8 -119.45 Q4.0 -118.1 6.4 -116.5" fill="url(#gradient0)" fill-rule="evenodd" stroke="none"/>
      <path d="M5.25 -108.25 L9.0 -115.45 Q13.3 -114.35 14.0 -113.4 L15.7 -105.7 17.95 -95.4 Q10.85 -97.0 4.15 -100.9 L5.25 -108.25" fill="url(#gradient1)" fill-rule="evenodd" stroke="none"/>
      <path d="M15.7 -105.7 L22.55 -109.95 Q27.6 -108.6 28.7 -107.5 L26.95 -104.15 21.5 -94.05 Q20.45 -93.8 17.95 -95.4 L15.7 -105.7" fill="#bcbd8d" fill-rule="evenodd" stroke="none"/>
      <path d="M28.7 -107.5 L62.3 -93.75 63.95 -92.9 Q54.25 -93.7 43.95 -96.05 35.65 -97.9 27.95 -100.55 L26.95 -104.15 28.7 -107.5 M81.6 -71.8 L41.5 -86.7 Q47.35 -86.65 53.05 -87.0 L60.75 -87.35 Q64.2 -87.25 67.1 -86.1 73.1 -83.75 77.75 -78.9 L85.35 -71.05 81.6 -71.8" fill="#9e662d" fill-rule="evenodd" stroke="none"/>
      <path d="M30.75 -90.6 Q27.1 -90.95 21.5 -94.05 L26.95 -104.15 27.95 -100.55 30.75 -90.6" fill="url(#gradient2)" fill-rule="evenodd" stroke="none"/>
      <path d="M73.65 -89.2 L93.3 -81.2 107.3 -72.5 87.2 -78.85 108.85 -65.4 98.9 -66.95 103.7 -64.5 102.6 -64.05 95.65 -66.6 96.6 -67.65 90.7 -68.95 92.5 -69.65 85.35 -71.05 77.75 -78.9 Q73.1 -83.75 67.1 -86.1 64.2 -87.25 60.75 -87.35 L53.05 -87.0 Q47.35 -86.65 41.5 -86.7 L30.75 -90.6 27.95 -100.55 Q35.65 -97.9 43.95 -96.05 54.25 -93.7 63.95 -92.9 L70.8 -89.1 Q74.45 -87.15 78.6 -85.45 L73.65 -89.2" fill="url(#gradient3)" fill-rule="evenodd" stroke="none"/>
      <path d="M62.3 -93.75 L64.6 -92.85 73.65 -89.2 78.6 -85.45 Q74.45 -87.15 70.8 -89.1 L63.95 -92.9 62.3 -93.75 M95.65 -66.6 L86.45 -70.0 81.6 -71.8 85.35 -71.05 92.5 -69.65 90.7 -68.95 96.6 -67.65 95.65 -66.6 M64.6 -92.85 L63.95 -92.9 64.6 -92.85 M86.45 -70.0 L85.35 -71.05 86.45 -70.0 M-93.75 -154.25 L-102.6 -154.85 -95.7 -148.75 -101.5 -149.45 -98.8 -143.05 -99.3 -143.0 -110.65 -147.55 -115.35 -150.1 -114.7 -151.85 -115.45 -152.15 -119.9 -152.55 -135.9 -161.3 -131.15 -159.45 -156.55 -173.45 -127.05 -164.3 -123.95 -162.55 -114.2 -157.05 -113.25 -156.7 -115.65 -160.75 -105.7 -157.7 -108.2 -159.65 -93.75 -154.25 M-94.95 -141.2 L-96.8 -143.75 -85.05 -138.5 -88.6 -138.65 -94.95 -141.2" fill="#c9a66c" fill-rule="evenodd" stroke="none"/>
      <path d="M115.8 -71.9 L126.9 -65.85 121.5 -67.65 111.35 -71.1 110.95 -71.35 110.8 -71.55 115.8 -71.9 M-115.35 -150.1 L-119.9 -152.55 -115.45 -152.15 -114.7 -151.85 -115.35 -150.1 M-127.05 -164.3 L-115.65 -160.75 -113.25 -156.7 -114.2 -157.05 -123.95 -162.55 -127.05 -164.3" fill="#debc85" fill-rule="evenodd" stroke="none"/>
      <path d="M93.3 -81.2 L114.45 -72.6 115.8 -71.9 110.8 -71.55 110.95 -71.35 111.35 -71.1 121.5 -67.65 126.9 -65.85 139.7 -58.9 134.95 -60.7 160.4 -46.7 109.5 -62.5 112.0 -60.55 102.6 -64.05 103.7 -64.5 98.9 -66.95 108.85 -65.4 87.2 -78.85 107.3 -72.5 93.3 -81.2" fill="url(#gradient4)" fill-rule="evenodd" stroke="none"/>
      <path d="M-37.9 -118.05 L-38.2 -118.5 -40.15 -121.85 Q-41.7 -123.9 -44.75 -126.7 -48.55 -130.05 -51.2 -131.1 -58.25 -133.85 -72.45 -134.5 L-78.55 -134.55 -88.6 -138.65 -85.05 -138.5 -96.8 -143.75 -94.95 -141.2 -99.3 -143.0 -98.8 -143.05 -101.5 -149.45 -95.7 -148.75 -102.6 -154.85 -93.75 -154.25 -39.85 -134.2 -35.55 -130.65 Q-26.05 -123.0 -17.25 -118.45 L-18.05 -115.05 -22.75 -111.85 -37.9 -118.05" fill="url(#gradient5)" fill-rule="evenodd" stroke="none"/>
      <path d="M-78.55 -134.55 L-72.45 -134.5 Q-58.25 -133.85 -51.2 -131.1 -48.55 -130.05 -44.75 -126.7 -41.7 -123.9 -40.15 -121.85 L-38.2 -118.5 -37.9 -118.05 -44.65 -120.75 -45.15 -121.35 Q-48.15 -124.75 -51.1 -125.9 -55.3 -127.55 -60.15 -128.3 L-64.35 -128.75 -78.55 -134.55" fill="#9e6b2d" fill-rule="evenodd" stroke="none"/>
      <path d="M-64.35 -128.75 L-60.15 -128.3 Q-55.3 -127.55 -51.1 -125.9 -48.15 -124.75 -45.15 -121.35 L-44.65 -120.75 -64.35 -128.75" fill="#8a5928" fill-rule="evenodd" stroke="none"/>
      <path d="M-17.25 -118.45 Q-26.05 -123.0 -35.55 -130.65 L-39.85 -134.2 -15.6 -125.15 -17.25 -118.45" fill="#9e6d32" fill-rule="evenodd" stroke="none"/>
      <path d="M-18.05 -115.05 L-17.25 -118.45 -15.6 -125.15 Q-10.6 -124.45 -7.75 -122.25 L-18.05 -115.05" fill="#d4bf93" fill-rule="evenodd" stroke="none"/>
      <path d="M6.4 -116.5 L5.25 -108.25 9.0 -115.45 M-0.8 -119.45 L-10.1 -106.75 M4.15 -100.9 L5.25 -108.25 M14.0 -113.4 L15.7 -105.7 22.55 -109.95 M28.7 -107.5 L26.95 -104.15 27.95 -100.55 30.75 -90.6 M17.95 -95.4 L15.7 -105.7 M26.95 -104.15 L21.5 -94.05 M-22.75 -111.85 L-18.05 -115.05 -17.25 -118.45 -15.6 -125.15 M-18.05 -115.05 L-7.75 -122.25" fill="none" stroke="#000000" stroke-linecap="round" stroke-linejoin="round" stroke-opacity="0.4" stroke-width="1.0"/>
      <path d="M9.0 -115.45 Q9.0 -116.35 6.4 -116.5 4.0 -118.1 -0.8 -119.45 -3.2 -121.15 -7.75 -122.25 -10.6 -124.45 -15.6 -125.15 L-39.85 -134.2 -93.75 -154.25 -108.2 -159.65 -105.7 -157.7 -115.65 -160.75 -127.05 -164.3 -156.55 -173.45 -131.15 -159.45 -135.9 -161.3 -119.9 -152.55 -115.35 -150.1 -110.65 -147.55 -99.3 -143.0 -94.95 -141.2 -88.6 -138.65 -78.55 -134.55 -64.35 -128.75 -44.65 -120.75 -37.9 -118.05 -22.75 -111.85 Q-16.75 -108.3 -10.1 -106.75 -3.0 -102.6 4.15 -100.9 10.85 -97.0 17.95 -95.4 20.45 -93.8 21.5 -94.05 27.1 -90.95 30.75 -90.6 L41.5 -86.7 81.6 -71.8 86.45 -70.0 95.65 -66.6 102.6 -64.05 112.0 -60.55 109.5 -62.5 160.4 -46.7 134.95 -60.7 139.7 -58.9 126.9 -65.85 115.8 -71.9 114.45 -72.6 93.3 -81.2 73.65 -89.2 64.6 -92.85 62.3 -93.75 28.7 -107.5 Q27.6 -108.6 22.55 -109.95 19.9 -111.85 14.0 -113.4 13.3 -114.35 9.0 -115.45" fill="none" stroke="#000000" stroke-linecap="round" stroke-linejoin="round" stroke-opacity="0.5019608" stroke-width="1.0"/>
      <path d="M27.95 -100.55 Q35.65 -97.9 43.95 -96.05 54.25 -93.7 63.95 -92.9 L64.6 -92.85 M41.5 -86.7 Q47.35 -86.65 53.05 -87.0 L60.75 -87.35 Q64.2 -87.25 67.1 -86.1 73.1 -83.75 77.75 -78.9 L85.35 -71.05 86.45 -70.0 M-78.55 -134.55 L-72.45 -134.5 Q-58.25 -133.85 -51.2 -131.1 -48.55 -130.05 -44.75 -126.7 -41.7 -123.9 -40.15 -121.85 L-38.2 -118.5 -37.9 -118.05 M-17.25 -118.45 Q-26.05 -123.0 -35.55 -130.65 L-39.85 -134.2 M-64.35 -128.75 L-60.15 -128.3 Q-55.3 -127.55 -51.1 -125.9 -48.15 -124.75 -45.15 -121.35 L-44.65 -120.75" fill="none" stroke="#000000" stroke-linecap="round" stroke-linejoin="round" stroke-opacity="0.15294118" stroke-width="1.0"/>
      <path d="M16.45 -119.4 Q17.9 -121.5 18.0 -122.15 18.65 -125.35 17.0 -127.45 L15.0 -129.3 13.25 -130.8 Q11.7 -132.0 11.0 -132.1 9.55 -132.4 7.2 -130.1 L5.0 -127.7 -0.25 -120.65 -5.35 -114.3 -6.1 -113.2 -11.45 -106.3 Q-14.2 -102.9 -16.35 -99.15 L-17.75 -96.65 -17.95 -96.6 -18.1 -96.7 -18.25 -97.2 -18.3 -97.65 Q-16.65 -102.2 -13.65 -106.2 L-8.7 -112.65 -5.35 -116.8 -4.25 -118.25 -0.75 -122.45 4.75 -129.75 Q8.4 -134.25 11.15 -133.75 12.45 -133.5 16.55 -130.25 L18.6 -128.2 Q20.25 -125.6 19.45 -121.45 L15.8 -115.9 14.9 -114.6 17.25 -114.6 17.75 -114.5 Q19.7 -113.8 20.9 -112.3 26.95 -104.85 19.9 -97.05 L19.85 -96.9 Q22.0 -96.5 23.45 -95.1 L24.45 -93.95 Q26.0 -91.0 25.0 -87.65 L24.9 -87.4 24.1 -85.4 Q23.3 -83.2 21.7 -80.65 L19.8 -77.65 Q13.35 -68.7 7.8 -59.15 L4.05 -53.2 Q-0.7 -45.85 -6.3 -38.95 -9.55 -35.6 -12.95 -34.0 -24.85 -31.15 -37.3 -32.0 L-42.25 -32.3 -46.85 -32.9 Q-48.05 -33.15 -48.5 -33.75 L-47.65 -34.1 Q-47.45 -34.15 -47.2 -34.3 L-45.25 -34.5 -44.45 -34.45 -41.85 -34.3 Q-31.3 -33.4 -20.65 -34.2 -16.3 -34.5 -12.5 -36.4 -10.4 -37.5 -8.4 -39.3 -4.65 -43.95 -1.25 -48.85 1.55 -52.9 4.15 -57.25 9.9 -66.7 16.1 -76.05 L20.95 -83.65 22.0 -85.75 Q23.35 -88.15 23.25 -90.45 23.15 -92.05 22.35 -93.7 L21.95 -94.4 21.45 -94.85 20.05 -95.65 19.2 -95.85 18.7 -95.95 17.4 -96.1 17.9 -96.6 18.25 -97.35 19.45 -99.0 20.7 -101.3 Q23.6 -108.05 17.4 -112.7 L16.9 -112.8 15.25 -112.6 14.5 -112.5 13.5 -112.4 13.2 -112.5 12.2 -111.2 10.6 -109.3 Q9.5 -110.2 10.5 -111.65 L12.45 -113.8 15.05 -117.55 16.45 -119.4 M-20.9 -94.15 L-20.5 -93.7 -18.55 -91.25 -17.3 -89.6 -16.55 -89.65 -16.15 -89.55 -15.9 -89.45 -15.85 -89.15 -15.85 -88.55 -16.15 -88.05 -27.55 -75.4 Q-30.1 -72.25 -31.4 -69.75 -31.9 -70.9 -31.25 -72.6 L-34.05 -71.6 -36.35 -69.9 -38.05 -68.1 -38.75 -67.5 Q-39.9 -69.4 -35.7 -72.25 -31.75 -74.95 -30.15 -74.65 L-30.1 -74.65 -29.6 -75.4 -27.2 -78.05 -18.55 -88.45 -18.3 -88.85 -20.3 -90.9 -21.75 -93.05 -20.9 -94.15" fill="#000000" fill-rule="evenodd" stroke="none"/>
      <path d="M7.2 -130.1 L8.85 -129.75 Q10.7 -129.25 13.45 -126.75 16.25 -123.85 16.7 -121.85 16.95 -120.7 16.45 -119.4 L15.05 -117.55 12.45 -113.8 10.5 -111.65 Q9.5 -110.2 10.6 -109.3 L12.2 -111.2 13.2 -112.5 13.5 -112.4 14.5 -112.5 Q15.55 -111.45 17.35 -109.8 21.25 -106.05 21.05 -103.2 L20.7 -101.3 19.45 -99.0 18.25 -97.35 17.9 -96.6 17.4 -96.1 18.7 -95.95 19.2 -95.85 22.35 -91.65 23.25 -90.45 Q23.35 -88.15 22.0 -85.75 L20.95 -83.65 16.1 -76.05 Q9.9 -66.7 4.15 -57.25 1.55 -52.9 -1.25 -48.85 -5.9 -45.15 -7.55 -43.3 -9.75 -40.7 -12.75 -39.15 -15.75 -37.4 -19.0 -37.05 L-34.25 -35.9 -45.25 -34.5 -47.2 -34.3 -47.15 -38.65 Q-47.0 -41.75 -46.45 -44.75 -45.1 -52.2 -41.9 -59.5 -39.25 -64.75 -38.05 -68.1 L-36.35 -69.9 -34.05 -71.6 -31.25 -72.6 Q-31.9 -70.9 -31.4 -69.75 -30.1 -72.25 -27.55 -75.4 L-16.15 -88.05 -15.85 -88.55 -15.85 -89.15 -15.9 -89.45 -16.15 -89.55 -16.55 -89.65 -17.3 -89.6 -18.55 -91.25 -20.5 -93.7 -20.9 -94.15 -20.25 -95.0 -18.3 -97.65 -18.25 -97.2 -18.1 -96.7 -17.95 -96.6 -17.75 -96.65 -16.35 -99.15 Q-14.2 -102.9 -11.45 -106.3 L-6.1 -113.2 -5.35 -114.3 -0.25 -120.65 5.0 -127.7 7.2 -130.1" fill="#999999" fill-rule="evenodd" stroke="none"/>
      <path d="M16.45 -119.4 Q16.95 -120.7 16.7 -121.85 16.25 -123.85 13.45 -126.75 10.7 -129.25 8.85 -129.75 L7.2 -130.1 Q9.55 -132.4 11.0 -132.1 11.7 -132.0 13.25 -130.8 L15.0 -129.3 17.0 -127.45 Q18.65 -125.35 18.0 -122.15 17.9 -121.5 16.45 -119.4 M-45.25 -34.5 L-34.25 -35.9 -19.0 -37.05 Q-15.75 -37.4 -12.75 -39.15 -9.75 -40.7 -7.55 -43.3 -5.9 -45.15 -1.25 -48.85 -4.65 -43.95 -8.4 -39.3 -10.4 -37.5 -12.5 -36.4 -16.3 -34.5 -20.65 -34.2 -31.3 -33.4 -41.85 -34.3 L-44.45 -34.45 -45.25 -34.5 M23.25 -90.45 L22.35 -91.65 19.2 -95.85 20.05 -95.65 21.45 -94.85 21.95 -94.4 22.35 -93.7 Q23.15 -92.05 23.25 -90.45 M20.7 -101.3 L21.05 -103.2 Q21.25 -106.05 17.35 -109.8 15.55 -111.45 14.5 -112.5 L15.25 -112.6 16.9 -112.8 17.4 -112.7 Q23.6 -108.05 20.7 -101.3" fill="#bdbdbd" fill-rule="evenodd" stroke="none"/>
    </g>
    <linearGradient gradientTransform="matrix(0.0059, 0.0074, -0.0077, 0.0061, -0.2, -110.8)" gradientUnits="userSpaceOnUse" id="gradient0" spreadMethod="pad" x1="-819.2" x2="819.2">
      <stop offset="0.0" stop-color="#d9cda2"/>
      <stop offset="0.9725490196078431" stop-color="#b5b287"/>
    </linearGradient>
    <linearGradient gradientTransform="matrix(3.0E-4, 0.0073, -0.0099, 4.0E-4, 11.35, -103.55)" gradientUnits="userSpaceOnUse" id="gradient1" spreadMethod="pad" x1="-819.2" x2="819.2">
      <stop offset="0.0" stop-color="#d9cda2"/>
      <stop offset="0.9725490196078431" stop-color="#b5b287"/>
    </linearGradient>
    <linearGradient gradientTransform="matrix(0.0056, 0.0022, -0.0026, 0.0067, 28.1, -97.4)" gradientUnits="userSpaceOnUse" id="gradient2" spreadMethod="pad" x1="-819.2" x2="819.2">
      <stop offset="0.0" stop-color="#d9cda2"/>
      <stop offset="0.9725490196078431" stop-color="#b6a285"/>
    </linearGradient>
    <linearGradient gradientTransform="matrix(-0.039, -0.0153, 0.0032, -0.0081, 40.85, -94.65)" gradientUnits="userSpaceOnUse" id="gradient3" spreadMethod="pad" x1="-819.2" x2="819.2">
      <stop offset="0.0" stop-color="#9e662d"/>
      <stop offset="0.9725490196078431" stop-color="#82471b"/>
    </linearGradient>
    <linearGradient gradientTransform="matrix(0.0279, 0.0031, -9.0E-4, 0.0076, 115.75, -62.45)" gradientUnits="userSpaceOnUse" id="gradient4" spreadMethod="pad" x1="-819.2" x2="819.2">
      <stop offset="0.0" stop-color="#b88d54"/>
      <stop offset="0.9725490196078431" stop-color="#e6ca9e"/>
    </linearGradient>
    <linearGradient gradientTransform="matrix(0.0318, 0.0172, -0.0042, 0.0078, -32.75, -121.35)" gradientUnits="userSpaceOnUse" id="gradient5" spreadMethod="pad" x1="-819.2" x2="819.2">
      <stop offset="0.0" stop-color="#9e662d"/>
      <stop offset="0.9725490196078431" stop-color="#82471b"/>
    </linearGradient>
  </defs>
</svg>
