<?xml version="1.0" encoding="UTF-8" standalone="no"?>
<svg xmlns:xlink="http://www.w3.org/1999/xlink" height="531.5px" width="460.6px" xmlns="http://www.w3.org/2000/svg">
  <g transform="matrix(1.0, 0.0, 0.0, 1.0, 193.65, 334.05)">
    <use height="97.55" transform="matrix(1.0, 0.0, 0.0, 1.0, -78.2, -58.25)" width="117.95" xlink:href="#shape0"/>
  </g>
  <defs>
    <g id="shape0" transform="matrix(1.0, 0.0, 0.0, 1.0, 78.2, 58.25)">
      <path d="M-29.05 17.0 L-26.25 17.0 -27.0 18.2 -25.5 21.5 -27.05 24.75 -25.85 26.6 -28.65 26.6 -29.85 24.75 -28.3 21.5 -29.8 18.2 -29.05 17.0" fill="#ab8a66" fill-rule="evenodd" stroke="none"/>
      <path d="M-25.5 21.5 L-27.0 18.2 -26.25 17.0 -19.2 5.95 39.25 21.8 -25.5 21.5" fill="url(#gradient0)" fill-rule="evenodd" stroke="none"/>
      <path d="M-29.05 17.0 L-29.8 18.2 -28.3 21.5 -29.85 24.75 -28.65 26.6 -33.35 26.55 -37.95 26.55 -42.2 26.55 -46.35 26.5 -49.95 26.5 -53.55 26.5 Q-52.65 24.35 -52.65 21.7 -52.6 19.1 -53.5 16.9 L-52.75 16.9 -46.85 16.9 -41.2 16.95 -40.55 16.95 -32.35 16.95 -29.05 17.0 M-33.35 26.55 Q-32.35 22.0 -32.3 18.45 L-32.35 16.95 -32.3 18.45 Q-32.35 22.0 -33.35 26.55 M-40.55 16.95 L-38.9 22.75 -37.95 26.55 -38.9 22.75 -40.55 16.95 M-42.2 26.55 L-41.2 16.95 -42.2 26.55 M-46.35 26.5 L-46.25 24.65 Q-46.25 20.4 -46.85 16.9 -46.25 20.4 -46.25 24.65 L-46.35 26.5 M-52.75 16.9 Q-51.65 19.5 -50.75 22.9 L-49.95 26.5 -50.75 22.9 Q-51.65 19.5 -52.75 16.9" fill="#d4ad7f" fill-rule="evenodd" stroke="none"/>
      <path d="M-25.85 26.6 L-27.05 24.75 -25.5 21.5 39.25 21.8 -19.3 37.15 -25.85 26.6" fill="url(#gradient1)" fill-rule="evenodd" stroke="none"/>
      <path d="M-53.55 26.5 Q-54.45 28.65 -56.25 30.55 -60.0 34.2 -65.25 34.15 -70.4 34.15 -74.05 30.5 -77.7 26.75 -77.7 21.55 -77.65 16.4 -74.0 12.75 -70.3 9.05 -65.15 9.05 -59.9 9.1 -56.2 12.8 -54.4 14.6 -53.5 16.9 -52.6 19.1 -52.65 21.7 -52.65 24.35 -53.55 26.5 M-64.6 28.85 Q-61.95 28.6 -60.05 26.75 -57.95 24.65 -57.95 21.65 -57.9 18.7 -60.0 16.6 -61.9 14.7 -64.55 14.55 L-65.15 14.45 Q-68.1 14.45 -70.2 16.55 -72.3 18.65 -72.35 21.6 -72.35 24.6 -70.25 26.7 -68.15 28.8 -65.2 28.8 L-64.6 28.85" fill="url(#gradient2)" fill-rule="evenodd" stroke="none"/>
      <path d="M-64.6 28.85 L-65.2 28.8 Q-68.15 28.8 -70.25 26.7 -72.35 24.6 -72.35 21.6 -72.3 18.65 -70.2 16.55 -68.1 14.45 -65.15 14.45 L-64.55 14.55 Q-67.15 14.65 -69.0 16.55 -71.1 18.65 -71.15 21.6 -71.15 24.6 -69.05 26.7 -67.2 28.55 -64.6 28.85" fill="#262626" fill-rule="evenodd" stroke="none"/>
      <path d="M-26.25 17.0 L-29.05 17.0 -32.35 16.95 -32.3 18.45 Q-32.35 22.0 -33.35 26.55 L-28.65 26.6 -25.85 26.6 -27.05 24.75 -25.5 21.5 -27.0 18.2 -26.25 17.0 -19.2 5.95 39.25 21.8 -19.3 37.15 -25.85 26.6 M-33.35 26.55 L-37.95 26.55 -42.2 26.55 -46.35 26.5 -49.95 26.5 -53.55 26.5 Q-54.45 28.65 -56.25 30.55 -60.0 34.2 -65.25 34.15 -70.4 34.15 -74.05 30.5 -77.7 26.75 -77.7 21.55 -77.65 16.4 -74.0 12.75 -70.3 9.05 -65.15 9.05 -59.9 9.1 -56.2 12.8 -54.4 14.6 -53.5 16.9 L-52.75 16.9 -46.85 16.9 -41.2 16.95 -40.55 16.95 -32.35 16.95 M-37.95 26.55 L-38.9 22.75 -40.55 16.95 M-64.55 14.55 Q-61.9 14.7 -60.0 16.6 -57.9 18.7 -57.95 21.65 -57.95 24.65 -60.05 26.75 -61.95 28.6 -64.6 28.85 L-65.2 28.8 Q-68.15 28.8 -70.25 26.7 -72.35 24.6 -72.35 21.6 -72.3 18.65 -70.2 16.55 -68.1 14.45 -65.15 14.45 L-64.55 14.55 Q-67.15 14.65 -69.0 16.55 -71.1 18.65 -71.15 21.6 -71.15 24.6 -69.05 26.7 -67.2 28.55 -64.6 28.85 M-53.5 16.9 Q-52.6 19.1 -52.65 21.7 -52.65 24.35 -53.55 26.5 M-49.95 26.5 L-50.75 22.9 Q-51.65 19.5 -52.75 16.9 M-46.85 16.9 Q-46.25 20.4 -46.25 24.65 L-46.35 26.5 M-41.2 16.95 L-42.2 26.55 M39.25 21.8 L-25.5 21.5" fill="none" stroke="#000000" stroke-linecap="round" stroke-linejoin="round" stroke-opacity="0.5019608" stroke-width="1.0"/>
      <path d="M-53.2 -57.55 L-53.0 -57.55 -51.9 -57.6 -51.95 -57.5 -53.5 -53.5 -55.6 -48.35 Q-59.2 -39.15 -61.25 -32.55 -63.35 -26.05 -64.8 -20.0 -65.5 -17.55 -65.65 -15.0 L-66.2 -8.05 Q-66.45 -3.6 -65.6 2.2 L-63.5 15.55 Q-62.2 23.15 -61.3 26.4 L-60.0 29.85 -58.85 31.9 -60.35 30.5 -60.55 30.25 Q-62.2 28.0 -63.2 25.15 -64.3 22.05 -65.85 14.8 L-68.35 2.0 Q-69.35 -3.55 -69.1 -7.8 L-68.65 -14.45 Q-68.45 -16.85 -67.75 -19.2 -66.2 -25.0 -63.95 -31.2 -61.75 -37.5 -57.85 -46.3 L-54.8 -53.1 -53.4 -56.3 Q-52.9 -57.55 -53.2 -57.05 L-53.2 -57.1 -53.2 -57.55 M-15.9 -43.4 L-13.9 -40.8 -20.0 -27.0 Q-22.15 -22.0 -23.3 -18.35 L-23.9 -15.85 Q-24.65 -12.6 -24.65 -11.3 L-24.15 -7.45 Q-23.7 -5.0 -23.0 -3.6 L-22.8 -3.05 -24.55 -3.1 -24.75 -3.65 Q-25.4 -5.15 -25.75 -7.7 L-26.15 -11.75 Q-26.15 -13.1 -25.4 -16.5 L-24.85 -19.1 -21.8 -28.15 -15.9 -43.4 M-21.35 -3.0 L-19.6 -3.05 Q-18.9 -3.05 -18.4 -2.25 L-17.6 -0.4 -17.55 -0.25 -16.7 2.4 -16.55 2.7 -16.15 4.25 Q-16.15 4.7 -16.4 4.9 L-17.0 5.15 -17.0 5.2 -17.65 5.3 Q-19.95 5.7 -22.2 7.0 L-23.85 8.2 Q-24.75 9.0 -24.85 9.8 L-25.7 15.45 -25.65 18.4 Q-25.6 20.15 -26.2 21.05 L-26.85 22.0 -28.4 24.25 -28.75 25.2 -28.9 26.7 -28.9 28.65 -28.8 31.2 -28.3 33.95 -28.3 34.0 Q-28.4 34.45 -29.15 35.35 L-29.5 35.75 -30.25 36.3 -30.0 35.65 -30.0 35.6 -30.05 34.95 -30.35 32.75 -30.45 30.05 -30.4 28.0 Q-30.4 26.35 -29.95 25.45 L-29.6 24.8 -27.95 22.1 -27.75 21.6 Q-27.4 20.7 -27.4 19.35 L-27.45 16.25 -26.6 10.35 Q-26.45 9.15 -24.7 7.8 L-24.2 7.4 Q-21.85 5.85 -19.45 5.55 L-19.45 5.5 -18.95 5.2 -18.75 4.9 -18.7 4.55 -19.1 2.9 -19.15 2.6 -19.95 -0.15 -19.95 -0.35 -20.65 -2.25 -21.35 -3.0 M-41.15 34.1 L-41.0 34.7 -40.95 34.75 -41.05 34.8 -41.6 35.1 -41.45 34.4 -41.45 34.35 -41.4 34.3 -41.2 34.1 -41.15 34.1" fill="#bdbdbd" fill-rule="evenodd" stroke="none"/>
      <path d="M-13.9 -40.8 L-13.75 -41.2 -13.2 -40.85 -13.05 -40.7 Q-12.75 -40.3 -12.75 -39.45 -15.4 -34.45 -18.0 -28.35 -23.25 -16.25 -23.25 -10.35 L-22.75 -6.45 -22.3 -4.65 -22.2 -4.4 -19.9 -4.7 -17.55 -4.4 -16.75 -3.0 Q-15.4 -0.35 -14.85 2.65 L-14.7 3.3 Q-14.35 5.0 -14.35 5.6 -14.35 6.5 -14.95 6.75 L-17.3 7.25 Q-19.05 7.5 -20.8 8.45 -22.6 9.35 -23.05 11.1 -23.6 12.8 -23.8 15.4 L-24.05 19.85 Q-24.1 21.75 -25.3 23.35 -26.55 24.95 -26.9 26.25 L-26.6 29.35 Q-26.6 30.65 -25.95 32.55 L-25.55 33.75 -25.65 34.7 -26.05 35.45 -26.1 35.6 -26.2 35.65 Q-26.75 36.55 -28.15 37.65 -30.35 39.3 -32.05 39.3 -36.0 39.3 -38.9 37.05 L-39.25 36.75 -40.85 37.6 Q-43.8 39.1 -45.5 39.1 L-45.8 39.1 Q-47.35 39.05 -48.8 38.4 -51.05 37.45 -53.05 35.1 L-53.05 35.05 -53.25 35.15 -53.7 35.25 -54.75 35.3 Q-62.15 35.3 -65.25 24.8 L-66.7 19.5 -67.95 13.85 -69.65 3.35 Q-70.95 -4.1 -70.95 -7.75 -70.95 -11.45 -69.6 -17.25 -68.25 -23.1 -60.75 -42.8 -53.9 -60.95 -53.25 -57.75 L-53.2 -57.55 -53.2 -57.1 -53.2 -57.05 Q-52.9 -57.55 -53.4 -56.3 L-54.8 -53.1 -57.85 -46.3 Q-61.75 -37.5 -63.95 -31.2 -66.2 -25.0 -67.75 -19.2 -68.45 -16.85 -68.65 -14.45 L-69.1 -7.8 Q-69.35 -3.55 -68.35 2.0 L-65.85 14.8 Q-64.3 22.05 -63.2 25.15 -62.2 28.0 -60.55 30.25 L-60.35 30.5 -58.85 31.9 Q-57.25 32.85 -54.75 33.2 L-54.45 33.25 -54.95 32.5 Q-55.85 31.05 -55.85 30.05 L-55.5 29.25 Q-55.25 28.9 -52.45 32.95 -49.7 37.0 -46.85 36.95 -44.05 36.85 -42.4 35.6 L-41.6 35.1 -41.05 34.8 -40.95 34.75 -41.0 34.7 -41.15 34.1 -41.2 33.8 -41.05 32.75 Q-40.9 32.55 -40.75 32.5 L-38.25 34.85 Q-35.15 36.8 -32.9 36.85 -31.3 36.9 -30.25 36.3 L-29.5 35.75 -29.15 35.35 Q-28.4 34.45 -28.3 34.0 L-28.3 33.95 -28.8 31.2 -28.9 28.65 -28.9 26.7 -28.75 25.2 -28.4 24.25 -26.85 22.0 -26.2 21.05 Q-25.6 20.15 -25.65 18.4 L-25.7 15.45 -24.85 9.8 Q-24.75 9.0 -23.85 8.2 L-22.2 7.0 Q-19.95 5.7 -17.65 5.3 L-17.0 5.2 -17.0 5.15 -16.4 4.9 Q-16.15 4.7 -16.15 4.25 L-16.55 2.7 -16.7 2.4 -17.55 -0.25 -17.6 -0.4 -18.4 -2.25 Q-18.9 -3.05 -19.6 -3.05 L-21.35 -3.0 -22.8 -3.05 -23.0 -3.6 Q-23.7 -5.0 -24.15 -7.45 L-24.65 -11.3 Q-24.65 -12.6 -23.9 -15.85 L-23.3 -18.35 Q-22.15 -22.0 -20.0 -27.0 L-13.9 -40.8" fill="#000000" fill-rule="evenodd" stroke="none"/>
      <path d="M-51.9 -57.6 Q-27.8 -57.9 -15.9 -43.4 L-21.8 -28.15 -24.85 -19.1 -25.4 -16.5 Q-26.15 -13.1 -26.15 -11.75 L-25.75 -7.7 Q-25.4 -5.15 -24.75 -3.65 L-24.55 -3.1 -22.8 -3.05 -21.35 -3.0 -20.65 -2.25 -19.95 -0.35 -19.95 -0.15 -19.15 2.6 -19.1 2.9 -18.7 4.55 -18.75 4.9 -18.95 5.2 -19.45 5.5 -19.45 5.55 Q-21.85 5.85 -24.2 7.4 L-24.7 7.8 Q-26.45 9.15 -26.6 10.35 L-27.45 16.25 -27.4 19.35 Q-27.4 20.7 -27.75 21.6 L-27.95 22.1 -29.6 24.8 -29.95 25.45 Q-30.4 26.35 -30.4 28.0 L-30.45 30.05 -30.35 32.75 -30.05 34.95 -30.0 35.6 -30.0 35.65 -30.25 36.3 Q-31.3 36.9 -32.9 36.85 -35.15 36.8 -38.25 34.85 L-40.75 32.5 Q-40.9 32.55 -41.05 32.75 L-41.2 33.8 -41.15 34.1 -41.2 34.1 -41.4 34.3 -41.45 34.35 -41.45 34.4 -41.6 35.1 -42.4 35.6 Q-44.05 36.85 -46.85 36.95 -49.7 37.0 -52.45 32.95 -55.25 28.9 -55.5 29.25 L-55.85 30.05 Q-55.85 31.05 -54.95 32.5 L-54.45 33.25 -54.75 33.2 Q-57.25 32.85 -58.85 31.9 L-60.0 29.85 -61.3 26.4 Q-62.2 23.15 -63.5 15.55 L-65.6 2.2 Q-66.45 -3.6 -66.2 -8.05 L-65.65 -15.0 Q-65.5 -17.55 -64.8 -20.0 -63.35 -26.05 -61.25 -32.55 -59.2 -39.15 -55.6 -48.35 L-53.5 -53.5 -51.95 -57.5 -51.9 -57.6" fill="#999999" fill-rule="evenodd" stroke="none"/>
      <path d="M-27.05 -23.0 Q-24.55 -22.65 -22.0 -21.9 -18.85 -12.3 -20.95 -5.1 -23.3 -4.15 -25.75 -3.8 -24.55 -12.35 -26.55 -20.9 L-27.05 -23.0" fill="#404040" fill-rule="evenodd" stroke="none"/>
      <path d="M-27.05 -23.0 L-26.55 -20.9 Q-24.55 -12.35 -25.75 -3.8 L-33.95 -4.3 -36.4 -23.0 Q-31.85 -23.75 -27.05 -23.0" fill="#242424" fill-rule="evenodd" stroke="none"/>
      <path d="M-25.75 -3.8 Q-23.3 -4.15 -20.95 -5.1 -18.85 -12.3 -22.0 -21.9 -24.55 -22.65 -27.05 -23.0 -31.85 -23.75 -36.4 -23.0 L-33.95 -4.3 -25.75 -3.8 Z" fill="none" stroke="#000000" stroke-linecap="round" stroke-linejoin="round" stroke-opacity="0.5019608" stroke-width="1.0"/>
      <path d="M-71.05 5.9 L-54.5 -11.75 Q-45.25 -20.95 -37.35 -27.9 L-31.15 -26.15 Q-28.7 -6.65 -30.9 14.55 -47.4 19.85 -65.5 20.05 -69.45 13.4 -71.05 5.9" fill="#404040" fill-rule="evenodd" stroke="none"/>
      <path d="M-71.05 5.9 Q-74.4 -8.3 -69.85 -25.3 -53.0 -31.45 -37.35 -27.9 -45.25 -20.95 -54.5 -11.75 L-71.05 5.9" fill="#595959" fill-rule="evenodd" stroke="none"/>
      <path d="M-37.35 -27.9 Q-53.0 -31.45 -69.85 -25.3 -74.4 -8.3 -71.05 5.9 -69.45 13.4 -65.5 20.05 -47.4 19.85 -30.9 14.55 -28.7 -6.65 -31.15 -26.15 L-37.35 -27.9 Z" fill="none" stroke="#000000" stroke-linecap="round" stroke-linejoin="round" stroke-opacity="0.5019608" stroke-width="1.0"/>
      <path d="M-67.15 -10.85 Q-67.15 -15.3 -66.45 -19.65 L-66.4 -20.05 -66.25 -21.15 -65.0 -21.45 -57.95 -22.75 -54.75 -23.15 -47.15 -23.45 -45.9 -23.45 -37.95 -22.55 -37.9 -22.55 -36.4 -22.25 -35.75 -14.85 -35.65 -13.65 -35.4 -4.8 -35.4 -3.65 Q-35.5 1.1 -35.9 5.75 L-35.95 6.3 -36.45 10.8 -62.4 14.95 -63.5 11.9 -64.35 9.05 Q-65.5 4.9 -66.15 0.9 L-66.4 -0.4 Q-67.0 -4.4 -67.1 -8.35 L-67.15 -10.85" fill="url(#gradient3)" fill-rule="evenodd" stroke="none"/>
      <path d="M-66.45 -19.65 L-66.25 -19.95 -65.0 -21.45 M-67.1 -8.35 L-65.95 -9.8 -67.15 -10.85 M-65.95 -9.8 L-61.1 -15.55 -66.25 -19.95 M-65.95 -9.8 L-60.85 -5.5 -56.05 -11.25 -61.1 -15.55 -56.3 -21.3 -57.95 -22.75 M-47.15 -23.45 L-46.4 -22.8 -45.9 -23.45 M-41.35 -18.5 L-46.4 -22.8 -51.25 -17.0 -46.15 -12.7 -41.35 -18.5 -37.95 -22.55 M-56.3 -21.3 L-54.75 -23.15 M-56.05 -11.25 L-51.25 -17.0 -56.3 -21.3 M-60.85 -5.5 L-55.8 -1.2 -51.0 -6.95 -56.05 -11.25 M-45.85 -2.65 L-40.8 1.65 -36.0 -4.1 -41.1 -8.4 -45.85 -2.65 -51.0 -6.95 -46.15 -12.7 -41.1 -8.4 -36.3 -14.2 -41.35 -18.5 M-35.4 -4.8 L-36.0 -4.1 -35.4 -3.65 M-35.75 -14.85 L-36.3 -14.2 -35.65 -13.65 M-40.25 11.4 L-35.65 5.95 -40.8 1.65 -45.6 7.4 -40.8 11.45 M-55.5 8.85 L-50.3 13.05 -45.6 7.4 -50.7 3.1 -55.5 8.85 -60.55 4.55 -64.35 9.05 M-63.5 11.9 L-60.25 14.6 -55.5 8.85 M-66.15 0.9 L-65.7 0.25 -66.4 -0.4 M-60.85 -5.5 L-65.7 0.25 -60.55 4.55 -55.8 -1.2 -50.7 3.1 -45.85 -2.65" fill="none" stroke="#000000" stroke-linecap="round" stroke-linejoin="round" stroke-opacity="0.3019608" stroke-width="0.5"/>
      <path d="M-67.15 -10.85 Q-67.15 -15.3 -66.45 -19.65 L-66.4 -20.05 -66.25 -21.15 -65.0 -21.45 -57.95 -22.75 -54.75 -23.15 -47.15 -23.45 -45.9 -23.45 -37.95 -22.55 -37.9 -22.55 -36.4 -22.25 -35.75 -14.85 -35.65 -13.65 -35.4 -4.8 -35.4 -3.65 Q-35.5 1.1 -35.9 5.75 L-35.95 6.3 -36.45 10.8 -62.4 14.95 -63.5 11.9 -64.35 9.05 Q-65.5 4.9 -66.15 0.9 L-66.4 -0.4 Q-67.0 -4.4 -67.1 -8.35 L-67.15 -10.85 Z" fill="none" stroke="#000000" stroke-linecap="round" stroke-linejoin="round" stroke-opacity="0.5019608" stroke-width="1.0"/>
    </g>
    <linearGradient gradientTransform="matrix(0.0, 0.0071, -0.0405, -2.0E-4, 6.2, 15.8)" gradientUnits="userSpaceOnUse" id="gradient0" spreadMethod="pad" x1="-819.2" x2="819.2">
      <stop offset="0.0" stop-color="#b50707"/>
      <stop offset="1.0" stop-color="#ffc9c9"/>
    </linearGradient>
    <linearGradient gradientTransform="matrix(0.0, 0.0095, -0.0405, -2.0E-4, 6.15, 29.45)" gradientUnits="userSpaceOnUse" id="gradient1" spreadMethod="pad" x1="-819.2" x2="819.2">
      <stop offset="0.0" stop-color="#cc2626"/>
      <stop offset="1.0" stop-color="#4f0000"/>
    </linearGradient>
    <linearGradient gradientTransform="matrix(-0.0103, 0.0102, -0.0108, -0.0108, -67.2, 25.25)" gradientUnits="userSpaceOnUse" id="gradient2" spreadMethod="pad" x1="-819.2" x2="819.2">
      <stop offset="0.0" stop-color="#c42323"/>
      <stop offset="1.0" stop-color="#5d0404"/>
    </linearGradient>
    <linearGradient gradientTransform="matrix(0.0199, -4.0E-4, 5.0E-4, 0.0224, -52.0, -5.2)" gradientUnits="userSpaceOnUse" id="gradient3" spreadMethod="pad" x1="-819.2" x2="819.2">
      <stop offset="0.0" stop-color="#a8a8a8"/>
      <stop offset="0.3215686274509804" stop-color="#cccccc"/>
      <stop offset="0.49411764705882355" stop-color="#cccccc"/>
      <stop offset="0.6588235294117647" stop-color="#cacaca"/>
      <stop offset="0.9803921568627451" stop-color="#9c9c9c"/>
    </linearGradient>
  </defs>
</svg>
