<?xml version="1.0" encoding="UTF-8" standalone="no"?>
<svg xmlns:xlink="http://www.w3.org/1999/xlink" height="531.5px" width="460.6px" xmlns="http://www.w3.org/2000/svg">
  <g transform="matrix(1.0, 0.0, 0.0, 1.0, 193.65, 334.05)">
    <use height="110.15" transform="matrix(1.0, 0.0, 0.0, 1.0, -58.0, -86.35)" width="120.45" xlink:href="#shape0"/>
  </g>
  <defs>
    <g id="shape0" transform="matrix(1.0, 0.0, 0.0, 1.0, 58.0, 86.35)">
      <path d="M23.65 -26.3 Q8.85 -47.65 -5.05 -73.15 28.7 -75.05 61.95 -73.1 47.35 -47.35 33.2 -26.2 L33.2 8.9 Q45.85 15.0 56.65 22.0 28.7 24.65 0.25 21.9 9.8 15.6 23.65 8.85 L23.65 -26.3" fill="#99ffe5" fill-opacity="0.5019608" fill-rule="evenodd" stroke="none"/>
      <path d="M23.65 -26.3 L23.65 8.85 Q9.8 15.6 0.25 21.9 28.7 24.65 56.65 22.0 45.85 15.0 33.2 8.9 L33.2 -26.2 Q47.35 -47.35 61.95 -73.1 28.7 -75.05 -5.05 -73.15 8.85 -47.65 23.65 -26.3 Z" fill="none" stroke="#000000" stroke-linecap="round" stroke-linejoin="round" stroke-opacity="0.5019608" stroke-width="1.0"/>
      <path d="M33.5 -49.8 L25.25 -33.05 25.15 -36.8 31.95 -50.75 33.5 -49.8" fill="#999999" fill-rule="evenodd" stroke="none"/>
      <path d="M31.95 -50.75 L31.7 -50.85 M33.5 -49.8 L25.25 -33.05 25.15 -36.8 31.95 -50.75 Z" fill="none" stroke="#000000" stroke-linecap="round" stroke-linejoin="round" stroke-opacity="0.5019608" stroke-width="1.0"/>
      <path d="M38.1 -51.95 Q38.6 -49.25 37.15 -46.6 35.75 -43.95 33.2 -42.9 L28.5 -43.0 Q26.35 -44.15 25.85 -46.85 25.3 -49.55 26.75 -52.2 28.2 -54.85 30.75 -55.9 L35.4 -55.75 Q37.55 -54.6 38.1 -51.95" fill="#666633" fill-rule="evenodd" stroke="none"/>
      <path d="M38.1 -51.95 Q38.6 -49.25 37.15 -46.6 35.75 -43.95 33.2 -42.9 L28.5 -43.0 Q26.35 -44.15 25.85 -46.85 25.3 -49.55 26.75 -52.2 28.2 -54.85 30.75 -55.9 L35.4 -55.75 Q37.55 -54.6 38.1 -51.95 Z" fill="none" stroke="#000000" stroke-linecap="round" stroke-linejoin="round" stroke-opacity="0.5019608" stroke-width="1.0"/>
      <path d="M34.25 -55.45 L49.05 -85.85 49.15 -82.1 35.8 -54.6 35.2 -53.35 34.85 -52.65 34.7 -52.6 33.4 -52.45 32.8 -52.45 33.6 -54.05 34.25 -55.45" fill="#999999" fill-rule="evenodd" stroke="none"/>
      <path d="M35.8 -54.6 L35.95 -54.0 Q35.95 -53.4 35.4 -53.0 L35.2 -53.35 35.8 -54.6 M30.95 -53.55 L30.85 -54.0 Q30.85 -54.65 31.6 -55.1 L33.4 -55.55 34.25 -55.45 33.6 -54.05 32.95 -54.15 Q31.85 -54.15 31.15 -53.7 L30.95 -53.55" fill="#292914" fill-rule="evenodd" stroke="none"/>
      <path d="M35.4 -53.0 L35.2 -52.9 34.85 -52.65 35.2 -53.35 35.4 -53.0 M32.8 -52.45 Q32.1 -52.55 31.6 -52.9 31.15 -53.15 30.95 -53.55 L31.15 -53.7 Q31.85 -54.15 32.95 -54.15 L33.6 -54.05 32.8 -52.45" fill="#121208" fill-rule="evenodd" stroke="none"/>
      <path d="M34.25 -55.45 L49.05 -85.85 49.15 -82.1 35.8 -54.6 35.95 -54.0 Q35.95 -53.4 35.4 -53.0 L35.2 -52.9 34.85 -52.65 34.7 -52.6 33.4 -52.45 32.8 -52.45 Q32.1 -52.55 31.6 -52.9 31.15 -53.15 30.95 -53.55 L30.85 -54.0 Q30.85 -54.65 31.6 -55.1 L33.4 -55.55 34.25 -55.45 33.6 -54.05 32.8 -52.45 M35.2 -53.35 L34.85 -52.65 M35.8 -54.6 L35.2 -53.35" fill="none" stroke="#000000" stroke-linecap="round" stroke-linejoin="round" stroke-opacity="0.5019608" stroke-width="1.0"/>
      <path d="M8.2 -60.35 L7.7 -61.45 Q8.25 -63.95 16.3 -62.25 28.75 -57.45 41.45 -61.35 L42.65 -61.55 Q30.55 -58.45 22.45 -57.8 L17.75 -57.65 Q11.1 -57.85 8.2 -60.35" fill="#ffffdb" fill-opacity="0.77254903" fill-rule="evenodd" stroke="none"/>
      <path d="M42.65 -61.55 L42.95 -61.6 49.25 -61.45 Q44.1 -50.35 36.95 -39.55 30.0 -29.85 24.65 -32.85 17.0 -41.5 8.2 -60.35 11.1 -57.85 17.75 -57.65 L22.45 -57.8 Q30.55 -58.45 42.65 -61.55" fill="#ffff70" fill-opacity="0.4509804" fill-rule="evenodd" stroke="none"/>
      <path d="M17.75 -57.65 L22.45 -57.8" fill="none" stroke="#010101" stroke-linecap="round" stroke-linejoin="round" stroke-opacity="0.0" stroke-width="1.0"/>
      <path d="M8.2 -60.35 L7.7 -61.45 Q8.25 -63.95 16.3 -62.25 28.75 -57.45 41.45 -61.35 L42.65 -61.55 42.95 -61.6 49.25 -61.45 Q44.1 -50.35 36.95 -39.55 30.0 -29.85 24.65 -32.85 17.0 -41.5 8.2 -60.35 11.1 -57.85 17.75 -57.65 M22.45 -57.8 Q30.55 -58.45 42.65 -61.55" fill="none" stroke="#000000" stroke-linecap="round" stroke-linejoin="round" stroke-opacity="0.2509804" stroke-width="0.7000000000000001"/>
      <path d="M25.8 -30.15 Q28.85 -29.85 31.15 -30.15 30.1 -28.65 28.55 -28.0 26.75 -28.65 25.8 -30.15" fill="#ffff70" fill-opacity="0.4509804" fill-rule="evenodd" stroke="none"/>
      <path d="M28.5 12.85 L48.2 20.0 8.5 20.0 28.5 12.85" fill="#ffffff" fill-opacity="0.6" fill-rule="evenodd" stroke="none"/>
      <path d="M25.9 -70.0 Q14.5 -62.85 9.95 -53.25 6.2 -58.25 0.55 -69.45 16.65 -70.35 27.1 -70.0 L25.9 -70.0" fill="#ffffff" fill-opacity="0.7529412" fill-rule="evenodd" stroke="none"/>
      <path d="M-11.1 -44.3 L-10.45 -45.15 -10.45 -43.9 -10.5 -36.6 Q-10.5 -32.7 -10.15 -29.75 L-9.9 -29.4 -7.6 -29.65 -2.05 -29.75 9.9 -30.1 10.35 -30.9 11.0 -32.25 Q11.55 -34.2 13.45 -35.0 15.3 -35.85 17.05 -35.65 L19.35 -35.7 19.8 -35.6 Q20.65 -35.3 20.8 -34.4 L20.95 -33.7 20.85 -33.55 20.7 -32.55 20.65 -32.05 20.6 -31.05 20.65 -30.4 20.7 -29.9 Q20.7 -29.65 20.85 -29.55 L21.25 -29.55 21.3 -29.55 21.3 -29.5 21.9 -29.5 22.0 -29.5 22.0 -29.45 23.1 -29.45 24.25 -29.45 28.65 -29.1 29.6 -29.0 31.95 -28.6 33.8 -27.85 34.0 -27.8 35.0 -26.95 35.3 -26.6 35.75 -25.9 Q36.4 -24.65 36.4 -22.25 L36.15 -19.85 35.7 -18.8 36.9 -18.1 Q37.9 -17.55 38.55 -16.2 L39.25 -14.5 Q39.6 -13.2 39.6 -11.3 39.6 -8.4 38.15 -6.75 L37.25 -5.9 36.9 -5.7 36.65 -5.55 35.25 -5.0 35.3 -4.9 35.7 -4.4 36.35 -2.3 36.35 -2.0 36.4 -1.85 36.55 -0.6 Q36.55 1.45 35.5 3.5 34.6 5.2 33.6 5.65 L33.25 5.95 33.05 6.05 32.25 6.3 32.1 6.35 31.25 6.65 28.35 7.2 26.45 7.7 26.05 7.9 26.0 7.9 25.6 8.15 21.95 9.0 17.65 9.8 9.4 11.05 -7.7 11.85 Q-17.95 11.7 -33.0 8.8 -36.55 7.85 -39.75 6.3 -42.1 5.15 -44.25 3.7 -46.8 1.2 -49.0 -3.15 -51.9 -8.85 -53.45 -15.4 -57.2 -31.6 -57.65 -39.3 -58.1 -46.6 -58.0 -48.95 -57.75 -54.3 -55.85 -57.85 L-55.55 -57.55 -55.45 -57.2 -55.4 -56.8 -55.7 -51.25 -55.95 -45.6 Q-54.9 -28.15 -51.7 -16.15 -48.75 -5.1 -44.25 0.4 L-42.45 1.9 -42.3 2.0 Q-37.9 5.15 -33.0 6.85 -28.25 8.15 -23.2 8.9 L-1.6 10.15 16.3 8.7 24.55 7.15 25.3 6.85 27.1 6.25 28.85 5.85 31.4 5.4 31.9 5.25 32.1 5.2 32.75 4.85 33.6 4.2 33.85 3.85 34.65 2.15 34.75 1.9 34.8 1.85 35.15 -0.75 34.85 -2.95 34.35 -4.0 33.9 -4.45 33.8 -4.5 33.5 -4.6 33.3 -4.6 33.0 -4.6 32.25 -4.55 32.3 -4.6 32.05 -4.6 32.25 -4.9 Q32.6 -5.25 33.8 -5.8 L33.95 -5.85 34.55 -6.05 35.7 -6.45 37.05 -7.7 38.0 -9.2 38.3 -10.2 38.4 -10.7 38.45 -10.95 38.25 -12.5 37.8 -14.2 Q37.2 -15.7 36.6 -16.25 35.7 -17.1 34.3 -16.95 L33.3 -16.95 32.85 -16.95 32.8 -17.05 32.7 -17.05 Q32.2 -17.05 32.2 -17.4 32.2 -17.7 32.75 -17.9 L32.9 -17.95 33.8 -18.25 34.4 -18.6 34.7 -19.2 35.0 -20.25 35.15 -22.3 Q35.15 -24.15 34.75 -25.4 L34.2 -26.35 Q33.05 -27.35 29.95 -27.9 L23.1 -28.55 22.0 -28.6 22.0 -28.45 18.15 -28.6 19.05 -29.15 19.1 -29.15 Q18.9 -29.65 18.95 -30.55 18.95 -32.0 19.25 -33.1 L19.5 -34.0 19.15 -34.1 15.2 -34.2 Q14.1 -33.9 13.55 -33.25 13.0 -32.8 12.6 -31.95 12.1 -31.0 11.7 -29.55 L10.9 -28.25 Q10.75 -28.05 -2.05 -27.9 L-6.6 -27.85 -9.1 -27.8 -10.15 -27.85 -10.2 -27.85 -11.6 -27.7 -17.55 -27.05 -17.6 -27.25 -17.7 -27.95 Q-17.7 -28.85 -15.15 -29.05 L-13.25 -29.15 -12.55 -29.2 -13.3 -29.55 -14.7 -30.15 -17.45 -30.7 -20.0 -31.4 Q-18.5 -32.3 -14.2 -31.4 L-13.4 -31.2 -12.2 -30.85 -12.25 -31.15 -12.25 -34.95 -12.15 -40.5 Q-11.9 -43.0 -11.1 -44.3" fill="#000000" fill-rule="evenodd" stroke="none"/>
      <path d="M-53.85 -57.3 Q-42.5 -57.65 -32.5 -54.45 -21.85 -51.05 -17.2 -48.1 L-13.35 -45.65 -13.7 -36.7 -13.4 -31.2 -14.2 -31.4 Q-18.5 -32.3 -20.0 -31.4 L-17.45 -30.7 -14.7 -30.15 -13.3 -29.55 -13.25 -29.15 -15.15 -29.05 Q-17.7 -28.85 -17.7 -27.95 L-17.6 -27.25 -17.55 -27.05 -11.6 -27.7 -10.2 -27.85 -10.15 -27.85 -9.1 -27.8 -6.6 -27.85 -2.05 -27.9 Q10.75 -28.05 10.9 -28.25 L11.7 -29.55 Q12.1 -31.0 12.6 -31.95 13.0 -32.8 13.55 -33.25 14.1 -33.9 15.2 -34.2 L19.15 -34.1 19.5 -34.0 19.25 -33.1 Q18.95 -32.0 18.95 -30.55 18.9 -29.65 19.1 -29.15 L19.05 -29.15 18.15 -28.6 22.0 -28.45 22.0 -28.6 23.1 -28.55 29.95 -27.9 31.15 -25.45 32.3 -19.95 32.9 -17.95 32.75 -17.9 Q32.2 -17.7 32.2 -17.4 32.2 -17.05 32.7 -17.05 L32.8 -17.05 32.85 -16.95 33.3 -16.95 34.45 -15.0 Q35.8 -13.1 35.8 -10.2 35.8 -8.65 34.55 -6.05 L33.95 -5.85 33.8 -5.8 Q32.6 -5.25 32.25 -4.9 L32.05 -4.6 32.3 -4.6 32.25 -4.55 33.0 -4.6 33.3 -4.6 33.5 -4.6 33.8 -4.5 33.9 -4.45 Q33.5 -3.0 33.8 -1.7 34.2 0.15 33.25 3.15 L32.75 4.85 32.1 5.2 31.9 5.25 31.4 5.4 28.85 5.85 27.1 6.25 25.3 6.85 24.55 7.15 16.3 8.7 -1.6 10.15 -23.2 8.9 Q-28.25 8.15 -33.0 6.85 -37.9 5.15 -42.3 2.0 L-42.45 1.9 Q-48.6 -8.9 -51.35 -21.4 -53.95 -33.3 -53.95 -54.45 L-53.85 -57.3" fill="#999999" fill-rule="evenodd" stroke="none"/>
      <path d="M-55.45 -57.2 L-53.85 -57.3 -53.95 -54.45 Q-53.95 -33.3 -51.35 -21.4 -48.6 -8.9 -42.45 1.9 L-44.25 0.4 Q-48.75 -5.1 -51.7 -16.15 -54.9 -28.15 -55.95 -45.6 L-55.7 -51.25 -55.4 -56.8 -55.45 -57.2 M-13.35 -45.65 L-11.1 -44.3 Q-11.9 -43.0 -12.15 -40.5 L-12.25 -34.95 -12.25 -31.15 -12.2 -30.85 -13.4 -31.2 -13.7 -36.7 -13.35 -45.65 M29.95 -27.9 Q33.05 -27.35 34.2 -26.35 L34.75 -25.4 Q35.15 -24.15 35.15 -22.3 L35.0 -20.25 34.7 -19.2 34.4 -18.6 33.8 -18.25 32.9 -17.95 32.3 -19.95 31.15 -25.45 29.95 -27.9 M33.3 -16.95 L34.3 -16.95 Q35.7 -17.1 36.6 -16.25 37.2 -15.7 37.8 -14.2 L38.25 -12.5 38.45 -10.95 38.4 -10.7 38.3 -10.2 38.0 -9.2 37.05 -7.7 35.7 -6.45 34.55 -6.05 Q35.8 -8.65 35.8 -10.2 35.8 -13.1 34.45 -15.0 L33.3 -16.95 M33.9 -4.45 L34.35 -4.0 34.85 -2.95 35.15 -0.75 34.8 1.85 34.75 1.9 34.65 2.15 33.85 3.85 33.6 4.2 32.75 4.85 33.25 3.15 Q34.2 0.15 33.8 -1.7 33.5 -3.0 33.9 -4.45" fill="#bdbdbd" fill-rule="evenodd" stroke="none"/>
    </g>
  </defs>
</svg>
