<?xml version="1.0" encoding="UTF-8" standalone="no"?>
<svg xmlns:xlink="http://www.w3.org/1999/xlink" height="531.5px" width="460.6px" xmlns="http://www.w3.org/2000/svg">
  <g transform="matrix(1.0, 0.0, 0.0, 1.0, 193.65, 334.05)">
    <use height="93.65" transform="matrix(1.0, 0.0, 0.0, 1.0, -50.9, -100.8)" width="178.1" xlink:href="#shape0"/>
  </g>
  <defs>
    <g id="shape0" transform="matrix(1.0, 0.0, 0.0, 1.0, 50.9, 100.8)">
      <path d="M106.85 -95.9 Q106.35 -97.3 106.4 -97.6 106.5 -99.15 107.95 -99.95 109.3 -100.65 111.4 -100.5 L114.4 -100.2 Q115.45 -99.85 115.35 -98.15 L114.9 -93.9 Q114.65 -89.95 115.45 -87.35 L116.7 -84.7 Q117.25 -83.75 118.4 -83.45 120.7 -82.85 121.45 -80.75 L121.65 -80.35 123.05 -77.85 Q123.4 -76.75 123.3 -75.2 123.15 -72.9 121.95 -71.2 120.75 -69.55 120.7 -68.4 L120.3 -64.05 119.35 -61.15 Q118.95 -60.0 118.85 -58.55 118.7 -56.4 119.6 -55.35 120.45 -54.35 120.3 -52.0 120.15 -49.7 119.5 -48.6 118.65 -47.2 116.2 -45.9 114.2 -44.9 113.05 -44.8 L109.0 -44.95 108.75 -45.05 100.85 -45.55 95.55 -45.5 91.3 -45.2 78.3 -44.2 75.2 -44.55 70.7 -45.0 65.35 -45.0 61.4 -44.9 52.8 -45.25 42.05 -45.0 35.35 -44.9 35.15 -44.95 33.75 -45.0 27.5 -45.9 Q24.2 -46.4 23.8 -49.45 23.45 -52.2 24.95 -53.85 L26.8 -55.75 27.2 -55.95 27.1 -56.05 19.7 -57.35 Q17.1 -58.0 17.25 -60.85 17.55 -65.35 18.55 -66.75 19.15 -67.65 20.55 -68.5 L21.35 -68.7 22.2 -68.8 23.65 -68.85 24.1 -68.9 Q27.15 -68.7 30.2 -67.1 L30.0 -63.7 36.25 -62.7 38.35 -61.95 44.55 -59.05 Q47.6 -57.85 51.9 -57.55 L58.3 -57.35 59.0 -57.35 59.6 -57.35 66.55 -58.1 75.5 -56.85 75.6 -56.85 76.25 -56.75 76.45 -56.8 79.5 -56.65 80.35 -56.65 82.75 -57.0 Q88.6 -58.35 89.85 -60.05 90.65 -61.1 91.35 -63.25 L92.0 -65.4 92.95 -68.05 93.65 -69.65 94.3 -71.15 Q95.65 -74.45 98.25 -76.45 99.45 -77.4 102.9 -79.05 105.6 -80.35 106.75 -81.75 108.5 -83.8 108.75 -87.55 108.9 -89.9 107.65 -93.5 L106.85 -95.9 M27.2 -64.1 L30.0 -63.7 27.2 -64.1 M43.45 -52.25 Q44.65 -52.15 45.1 -52.65 L45.4 -53.65 Q45.6 -56.75 42.6 -57.1 39.55 -57.4 39.4 -55.0 39.2 -52.5 43.45 -52.25 M54.15 -49.65 Q53.3 -50.55 52.0 -50.65 50.85 -50.7 50.25 -50.2 L49.8 -49.35 49.8 -48.7 50.35 -47.9 Q50.8 -47.45 51.55 -47.35 L53.2 -46.9 Q54.65 -46.8 54.75 -48.5 54.8 -48.95 54.15 -49.65 M109.0 -75.35 L109.3 -74.3 Q109.8 -73.2 110.75 -73.15 111.55 -73.1 112.1 -73.8 L112.5 -74.85 Q112.6 -76.35 110.85 -76.65 109.15 -77.0 109.0 -75.35 M28.55 -61.95 Q27.7 -62.9 26.55 -62.8 L23.6 -62.3 Q23.0 -62.0 22.95 -61.0 22.9 -60.25 23.0 -60.15 23.5 -59.35 26.0 -59.2 L28.8 -59.4 Q29.2 -59.65 29.25 -60.4 29.3 -61.1 28.55 -61.95 M120.05 -79.2 Q116.75 -80.55 113.9 -78.8 116.75 -80.55 120.05 -79.2 M100.1 -69.95 Q99.3 -69.55 98.6 -68.5 L97.95 -67.45 96.35 -66.8 Q95.65 -66.3 95.8 -64.4 95.95 -61.95 96.85 -61.6 97.25 -61.35 98.4 -61.95 99.5 -62.45 100.1 -64.8 L101.65 -64.8 103.95 -65.1 Q105.25 -65.7 105.5 -66.6 105.85 -67.6 105.05 -69.15 104.45 -70.45 102.5 -70.45 L100.1 -69.95 M94.2 -55.6 Q91.5 -56.05 91.35 -53.35 L91.65 -52.0 Q92.3 -50.45 94.05 -50.3 95.25 -50.25 96.0 -51.1 96.65 -51.75 96.7 -52.7 96.85 -55.05 94.2 -55.6 M114.6 -70.45 Q117.9 -69.1 120.75 -70.85 117.9 -69.1 114.6 -70.45 M82.15 -47.6 Q74.05 -57.5 56.3 -53.05 74.05 -57.5 82.15 -47.6" fill="#666633" fill-rule="evenodd" stroke="none"/>
      <path d="M91.35 -63.25 Q90.65 -61.1 89.85 -60.05 88.6 -58.35 82.75 -57.0 L80.35 -56.65 77.15 -61.55 74.5 -59.6 75.9 -62.05 Q77.05 -66.85 74.85 -70.25 L74.4 -70.85 Q69.75 -72.05 64.8 -72.55 L64.05 -74.6 Q66.95 -79.5 76.55 -78.5 82.55 -77.25 87.6 -73.0 L91.35 -63.25 M81.4 -68.65 Q78.0 -70.0 74.4 -70.85 78.0 -70.0 81.4 -68.65 M82.35 -61.9 Q80.75 -66.85 74.85 -70.25 80.75 -66.85 82.35 -61.9" fill="#af4134" fill-rule="evenodd" stroke="none"/>
      <path d="M43.4 -66.1 L47.6 -69.65 49.05 -64.25 50.7 -66.3 55.25 -67.4 59.3 -63.7 60.2 -64.95 61.35 -61.65 60.5 -61.65 58.85 -58.4 57.95 -61.3 52.35 -63.85 50.1 -61.7 45.1 -65.15 43.85 -62.2 43.4 -66.1" fill="#aaaf5c" fill-rule="evenodd" stroke="none"/>
      <path d="M106.85 -95.9 L107.65 -93.5 Q108.9 -89.9 108.75 -87.55 108.5 -83.8 106.75 -81.75 105.6 -80.35 102.9 -79.05 99.45 -77.4 98.25 -76.45 95.65 -74.45 94.3 -71.15 L93.65 -69.65 92.4 -71.15 96.0 -77.35 93.15 -79.85 Q96.55 -83.1 101.4 -83.05 97.05 -88.15 90.6 -91.7 97.55 -97.2 106.85 -95.9 M80.35 -56.65 L79.5 -56.65 76.45 -56.8 76.15 -56.8 76.25 -56.75 75.6 -56.85 75.5 -56.85 66.55 -58.1 59.6 -57.35 59.0 -57.35 58.3 -57.35 51.9 -57.55 Q47.6 -57.85 44.55 -59.05 L38.35 -61.95 36.25 -62.7 30.0 -63.7 30.2 -67.1 30.5 -71.35 Q36.4 -72.2 42.9 -69.95 L43.4 -66.1 43.85 -62.2 45.1 -65.15 50.1 -61.7 52.35 -63.85 57.95 -61.3 58.85 -58.4 60.5 -61.65 61.35 -61.65 72.25 -62.15 74.5 -59.6 77.15 -61.55 80.35 -56.65 M43.95 -61.3 L43.85 -62.2 43.95 -61.3 M58.85 -58.4 L58.3 -57.35 58.85 -58.4" fill="#eef497" fill-rule="evenodd" stroke="none"/>
      <path d="M43.45 -52.25 Q39.2 -52.5 39.4 -55.0 39.55 -57.4 42.6 -57.1 45.6 -56.75 45.4 -53.65 L45.1 -52.65 Q44.65 -52.15 43.45 -52.25 M28.55 -61.95 Q29.3 -61.1 29.25 -60.4 29.2 -59.65 28.8 -59.4 L26.0 -59.2 Q23.5 -59.35 23.0 -60.15 22.9 -60.25 22.95 -61.0 23.0 -62.0 23.6 -62.3 L26.55 -62.8 Q27.7 -62.9 28.55 -61.95 M109.0 -75.35 Q109.15 -77.0 110.85 -76.65 112.6 -76.35 112.5 -74.85 L112.1 -73.8 Q111.55 -73.1 110.75 -73.15 109.8 -73.2 109.3 -74.3 L109.0 -75.35 M100.1 -69.95 L102.5 -70.45 Q104.45 -70.45 105.05 -69.15 105.85 -67.6 105.5 -66.6 105.25 -65.7 103.95 -65.1 L101.65 -64.8 100.1 -64.8 Q99.5 -62.45 98.4 -61.95 97.25 -61.35 96.85 -61.6 95.95 -61.95 95.8 -64.4 95.65 -66.3 96.35 -66.8 L97.95 -67.45 98.6 -68.5 Q99.3 -69.55 100.1 -69.95" fill="#7c7c4e" fill-rule="evenodd" stroke="none"/>
      <path d="M54.15 -49.65 Q54.8 -48.95 54.75 -48.5 54.65 -46.8 53.2 -46.9 L51.55 -47.35 Q50.8 -47.45 50.35 -47.9 L49.8 -48.7 49.8 -49.35 50.25 -50.2 Q50.85 -50.7 52.0 -50.65 53.3 -50.55 54.15 -49.65 M94.2 -55.6 Q96.85 -55.05 96.7 -52.7 96.65 -51.75 96.0 -51.1 95.25 -50.25 94.05 -50.3 92.3 -50.45 91.65 -52.0 L91.35 -53.35 Q91.5 -56.05 94.2 -55.6" fill="#665d33" fill-rule="evenodd" stroke="none"/>
      <path d="M30.2 -67.1 Q27.15 -68.7 24.1 -68.9 L23.65 -68.85 22.2 -68.8 21.35 -68.7 20.55 -68.5 Q19.15 -67.65 18.55 -66.75 17.55 -65.35 17.25 -60.85 17.1 -58.0 19.7 -57.35 L27.1 -56.05 27.2 -55.95 26.8 -55.75 24.95 -53.85 Q23.45 -52.2 23.8 -49.45 24.2 -46.4 27.5 -45.9 L33.75 -45.0 35.15 -44.95 35.35 -44.9 42.05 -45.0 52.8 -45.25 61.4 -44.9 65.35 -45.0 70.7 -45.0 75.2 -44.55 78.3 -44.2 91.3 -45.2 95.55 -45.5 100.85 -45.55 108.75 -45.05 109.0 -44.95 113.05 -44.8 Q114.2 -44.9 116.2 -45.9 118.65 -47.2 119.5 -48.6 120.15 -49.7 120.3 -52.0 120.45 -54.35 119.6 -55.35 118.7 -56.4 118.85 -58.55 118.95 -60.0 119.35 -61.15 L120.3 -64.05 120.7 -68.4 Q120.75 -69.55 121.95 -71.2 123.15 -72.9 123.3 -75.2 123.4 -76.75 123.05 -77.85 L121.65 -80.35 121.45 -80.75 Q120.7 -82.85 118.4 -83.45 117.25 -83.75 116.7 -84.7 L115.45 -87.35 Q114.65 -89.95 114.9 -93.9 L115.35 -98.15 Q115.45 -99.85 114.4 -100.2 L111.4 -100.5 Q109.3 -100.65 107.95 -99.95 106.5 -99.15 106.4 -97.6 106.35 -97.3 106.85 -95.9 L107.65 -93.5 Q108.9 -89.9 108.75 -87.55 108.5 -83.8 106.75 -81.75 105.6 -80.35 102.9 -79.05 99.45 -77.4 98.25 -76.45 95.65 -74.45 94.3 -71.15 L93.65 -69.65 92.95 -68.05 92.0 -65.4 91.35 -63.25 Q90.65 -61.1 89.85 -60.05 88.6 -58.35 82.75 -57.0 L80.35 -56.65 79.5 -56.65 76.45 -56.8 76.25 -56.75 75.6 -56.85 75.5 -56.85 66.55 -58.1 59.6 -57.35 59.0 -57.35 58.3 -57.35 51.9 -57.55 Q47.6 -57.85 44.55 -59.05 L38.35 -61.95 36.25 -62.7 30.0 -63.7 27.2 -64.1 M91.35 -63.25 L87.6 -73.0 Q82.55 -77.25 76.55 -78.5 66.95 -79.5 64.05 -74.6 L64.8 -72.55 Q69.75 -72.05 74.4 -70.85 78.0 -70.0 81.4 -68.65 M43.4 -66.1 L47.6 -69.65 49.05 -64.25 50.7 -66.3 55.25 -67.4 59.3 -63.7 60.2 -64.95 61.35 -61.65 72.25 -62.15 74.5 -59.6 75.9 -62.05 Q77.05 -66.85 74.85 -70.25 L74.4 -70.85 M30.2 -67.1 L30.5 -71.35 Q36.4 -72.2 42.9 -69.95 L43.4 -66.1 43.85 -62.2 45.1 -65.15 50.1 -61.7 52.35 -63.85 57.95 -61.3 58.85 -58.4 60.5 -61.65 61.35 -61.65 M58.3 -57.35 L58.85 -58.4 M43.85 -62.2 L43.95 -61.3 M74.5 -59.6 L77.15 -61.55 80.35 -56.65 M76.45 -56.8 L76.15 -56.8 76.25 -56.75 M30.0 -63.7 L30.2 -67.1 M113.9 -78.8 Q116.75 -80.55 120.05 -79.2 M106.85 -95.9 Q97.55 -97.2 90.6 -91.7 97.05 -88.15 101.4 -83.05 96.55 -83.1 93.15 -79.85 L96.0 -77.35 92.4 -71.15 93.65 -69.65 M120.75 -70.85 Q117.9 -69.1 114.6 -70.45 M108.75 -45.05 L108.45 -45.1 107.85 -45.0 109.0 -44.95 M56.3 -53.05 Q74.05 -57.5 82.15 -47.6 M74.85 -70.25 Q80.75 -66.85 82.35 -61.9" fill="none" stroke="#000000" stroke-linecap="round" stroke-linejoin="round" stroke-opacity="0.4" stroke-width="0.5"/>
      <path d="M119.45 -73.65 Q118.55 -73.1 117.35 -73.2 116.15 -73.3 115.35 -73.95 114.55 -74.65 114.6 -75.55 114.65 -76.45 115.55 -77.05 L117.65 -77.5 Q118.85 -77.4 119.65 -76.75 120.45 -76.05 120.4 -75.15 120.35 -74.25 119.45 -73.65" fill="#000000" fill-rule="evenodd" stroke="none"/>
      <path d="M119.45 -73.65 Q118.55 -73.1 117.35 -73.2 116.15 -73.3 115.35 -73.95 114.55 -74.65 114.6 -75.55 114.65 -76.45 115.55 -77.05 L117.65 -77.5 Q118.85 -77.4 119.65 -76.75 120.45 -76.05 120.4 -75.15 120.35 -74.25 119.45 -73.65 Z" fill="none" stroke="#000000" stroke-linecap="round" stroke-linejoin="round" stroke-opacity="0.4" stroke-width="0.5"/>
      <path d="M114.55 -60.45 L115.35 -59.45 Q117.05 -56.95 116.85 -53.85 116.7 -51.25 115.25 -49.3 L113.75 -47.6 Q111.2 -45.35 107.85 -45.3 L107.15 -45.35 Q103.4 -45.6 100.9 -48.45 L100.8 -48.55 99.6 -50.35 Q98.5 -52.45 98.65 -55.0 98.9 -58.75 101.7 -61.3 L103.5 -62.55 Q105.7 -63.7 108.35 -63.55 112.1 -63.3 114.55 -60.45 M105.4 -59.1 L103.5 -62.55 105.4 -59.1 M103.35 -52.3 L99.6 -50.35 103.35 -52.3 M107.9 -48.2 L107.85 -45.3 107.9 -48.2 M102.4 -49.65 L100.8 -48.55 102.4 -49.65 M115.25 -49.3 L111.6 -51.05 115.25 -49.3 M113.55 -58.1 L115.35 -59.45 113.55 -58.1" fill="#ffe2e2" fill-rule="evenodd" stroke="none"/>
      <path d="M114.55 -60.45 L115.35 -59.45 Q117.05 -56.95 116.85 -53.85 116.7 -51.25 115.25 -49.3 L113.75 -47.6 Q111.2 -45.35 107.85 -45.3 L107.15 -45.35 Q103.4 -45.6 100.9 -48.45 L100.8 -48.55 99.6 -50.35 Q98.5 -52.45 98.65 -55.0 98.9 -58.75 101.7 -61.3 L103.5 -62.55 Q105.7 -63.7 108.35 -63.55 112.1 -63.3 114.55 -60.45" fill="none" stroke="#000000" stroke-linecap="round" stroke-linejoin="round" stroke-opacity="0.4" stroke-width="0.5"/>
      <path d="M115.35 -59.45 L113.55 -58.1 M111.6 -51.05 L115.25 -49.3 M100.8 -48.55 L102.4 -49.65 M107.85 -45.3 L107.9 -48.2 M99.6 -50.35 L103.35 -52.3 M103.5 -62.55 L105.4 -59.1" fill="none" stroke="#ff0000" stroke-linecap="round" stroke-linejoin="round" stroke-opacity="0.4" stroke-width="0.30000000000000004"/>
      <path d="M109.15 -54.3 L107.75 -54.0 Q106.95 -54.05 106.4 -54.45 105.9 -54.95 105.9 -55.55 105.95 -56.15 106.55 -56.5 L107.9 -56.85 Q108.7 -56.8 109.3 -56.35 109.8 -55.9 109.75 -55.3 109.75 -54.7 109.15 -54.3" fill="#000000" fill-rule="evenodd" stroke="none"/>
      <path d="M109.15 -54.3 L107.75 -54.0 Q106.95 -54.05 106.4 -54.45 105.9 -54.95 105.9 -55.55 105.95 -56.15 106.55 -56.5 L107.9 -56.85 Q108.7 -56.8 109.3 -56.35 109.8 -55.9 109.75 -55.3 109.75 -54.7 109.15 -54.3 Z" fill="none" stroke="#000000" stroke-linecap="round" stroke-linejoin="round" stroke-opacity="0.4" stroke-width="0.5"/>
      <path d="M57.95 -55.95 L58.15 -55.35 Q59.25 -51.9 59.2 -50.05 59.1 -46.9 52.65 -44.45 46.2 -41.9 46.1 -39.0 L46.25 -38.0 46.3 -38.0 46.55 -37.9 46.95 -37.9 Q48.0 -37.9 51.55 -38.95 52.15 -38.7 53.8 -38.15 L54.05 -38.05 54.5 -38.05 Q55.9 -38.05 61.4 -39.8 L62.0 -40.0 62.1 -39.8 62.25 -39.35 Q62.85 -38.45 62.9 -36.95 L62.8 -36.25 Q62.8 -34.75 61.8 -34.2 L59.7 -33.45 56.5 -32.3 51.65 -30.85 Q48.6 -29.95 48.65 -29.05 L48.65 -28.75 Q48.45 -28.25 48.5 -27.45 48.5 -26.85 49.3 -26.15 50.0 -25.6 50.75 -25.5 52.65 -24.8 56.5 -24.8 L58.1 -24.8 58.6 -24.65 59.5 -24.4 59.5 -24.05 59.2 -22.5 Q58.45 -19.25 56.75 -16.4 L56.15 -16.25 54.75 -16.65 51.75 -17.4 50.0 -17.8 47.65 -17.9 47.15 -18.05 44.35 -18.8 42.7 -19.2 39.7 -18.75 Q38.2 -18.85 37.35 -18.2 L25.8 -15.85 20.7 -14.75 Q10.75 -12.55 0.65 -12.25 L-1.05 -12.25 -3.7 -12.15 Q-13.0 -11.8 -26.6 -14.65 -37.85 -16.95 -46.85 -22.8 L-50.35 -25.15 -50.55 -27.05 Q-50.6 -31.95 -48.75 -37.25 -47.1 -42.35 -44.2 -46.45 -41.55 -50.25 -38.3 -53.6 L-33.85 -57.7 -32.15 -56.75 -31.45 -56.25 -29.8 -54.95 Q-26.7 -53.3 -25.95 -52.75 -23.85 -51.05 -19.05 -49.65 -14.25 -48.3 -10.3 -47.5 -6.45 -46.65 3.15 -48.25 L5.3 -48.65 7.15 -48.95 Q17.45 -50.7 20.0 -52.8 22.65 -54.95 22.8 -56.25 L22.85 -56.9 22.8 -58.4 Q22.8 -58.9 23.1 -59.2 L23.4 -59.35 23.75 -59.0 23.8 -59.0 24.15 -58.4 25.6 -55.85 Q26.05 -54.0 26.55 -53.0 27.6 -51.35 30.7 -51.3 32.8 -51.35 38.0 -52.5 40.9 -52.75 47.1 -54.25 52.55 -55.55 57.95 -55.95" fill="#999999" fill-rule="evenodd" stroke="none"/>
      <path d="M51.55 -38.95 Q48.0 -37.9 46.95 -37.9 L46.55 -37.9 46.3 -38.0 46.25 -38.0 46.1 -39.0 Q46.2 -41.9 52.65 -44.45 59.1 -46.9 59.2 -50.05 59.25 -51.9 58.15 -55.35 L57.95 -55.95 58.9 -56.05 62.2 -56.2 Q63.15 -56.15 64.0 -54.3 64.6 -52.75 64.6 -51.8 L64.55 -51.0 Q64.5 -48.8 62.15 -47.15 60.45 -46.0 57.6 -45.05 53.8 -43.85 52.75 -43.3 50.6 -42.2 50.6 -40.5 50.6 -39.55 51.2 -39.1 L51.55 -38.95 M38.0 -52.5 Q32.8 -51.35 30.7 -51.3 27.6 -51.35 26.55 -53.0 26.05 -54.0 25.6 -55.85 L24.15 -58.4 23.8 -59.0 23.75 -59.0 23.4 -59.35 24.45 -60.0 27.1 -60.9 28.5 -61.1 28.85 -61.1 29.35 -60.6 29.4 -60.6 29.75 -59.95 31.3 -57.25 Q31.8 -55.25 32.4 -54.2 33.55 -52.4 36.9 -52.4 L38.0 -52.5 M5.3 -48.65 L3.15 -48.25 Q-6.45 -46.65 -10.3 -47.5 -14.25 -48.3 -19.05 -49.65 -23.85 -51.05 -25.95 -52.75 -26.7 -53.3 -29.8 -54.95 L-31.45 -56.25 -32.15 -56.75 -33.85 -57.7 -31.95 -59.05 -30.8 -57.9 -30.05 -57.4 -28.3 -56.05 -24.15 -53.7 Q-21.85 -51.8 -16.75 -50.35 -11.6 -48.95 -7.35 -48.1 L5.3 -48.65 M-50.35 -25.15 L-46.85 -22.8 Q-37.85 -16.95 -26.6 -14.65 -13.0 -11.8 -3.7 -12.15 L-1.05 -12.25 0.65 -12.25 Q10.75 -12.55 20.7 -14.75 L25.8 -15.85 37.35 -18.2 Q38.2 -18.85 39.7 -18.75 L42.7 -19.2 44.35 -18.8 47.15 -18.05 47.65 -17.9 45.55 -17.7 44.2 -16.75 31.8 -14.15 26.25 -12.95 Q15.55 -10.55 4.6 -10.15 L2.8 -10.15 0.05 -10.0 Q-10.0 -9.55 -24.7 -12.6 -36.8 -15.05 -46.55 -21.3 L-50.15 -23.85 -50.25 -24.65 -50.35 -25.15 M56.15 -16.25 L56.75 -16.4 Q58.45 -19.25 59.2 -22.5 L59.5 -24.05 59.5 -24.4 64.75 -23.9 67.95 -24.05 68.05 -23.8 68.05 -23.15 67.7 -21.5 Q66.9 -18.0 65.15 -14.95 L63.85 -14.65 61.25 -15.1 59.9 -15.4 56.15 -16.25 M58.1 -24.8 L56.5 -24.8 Q52.65 -24.8 50.75 -25.5 50.0 -25.6 49.3 -26.15 48.5 -26.85 48.5 -27.45 48.45 -28.25 48.65 -28.75 L48.65 -29.05 Q48.6 -29.95 51.65 -30.85 L56.5 -32.3 59.7 -33.45 61.8 -34.2 Q62.8 -34.75 62.8 -36.25 L62.9 -36.95 Q62.85 -38.45 62.25 -39.35 L62.1 -39.8 62.0 -40.0 67.0 -41.55 68.8 -41.95 68.85 -41.8 69.0 -41.85 69.8 -41.5 70.15 -41.0 70.75 -40.1 70.95 -39.65 Q71.55 -38.7 71.6 -37.1 L71.5 -36.35 Q71.5 -34.7 70.45 -34.1 L68.15 -33.25 64.8 -31.95 59.55 -30.45 Q56.25 -29.45 56.3 -28.5 L56.3 -28.2 Q56.1 -27.65 56.15 -26.8 56.1 -26.15 57.05 -25.4 L58.1 -24.8" fill="#bdbdbd" fill-rule="evenodd" stroke="none"/>
      <path d="M57.95 -55.95 Q52.55 -55.55 47.1 -54.25 40.9 -52.75 38.0 -52.5 L36.9 -52.4 Q33.55 -52.4 32.4 -54.2 31.8 -55.25 31.3 -57.25 L29.75 -59.95 29.4 -60.6 29.35 -60.6 28.85 -61.1 28.5 -61.1 27.1 -60.9 24.45 -60.0 23.4 -59.35 23.1 -59.2 Q22.8 -58.9 22.8 -58.4 L22.85 -56.9 22.8 -56.25 Q22.65 -54.95 20.0 -52.8 17.45 -50.7 7.15 -48.95 L5.3 -48.65 -7.35 -48.1 Q-11.6 -48.95 -16.75 -50.35 -21.85 -51.8 -24.15 -53.7 L-28.3 -56.05 -30.05 -57.4 -30.8 -57.9 -31.95 -59.05 Q-32.7 -60.0 -32.6 -61.1 L-32.2 -61.25 -29.45 -59.85 -28.95 -59.55 -22.95 -56.2 Q-12.9 -50.95 -5.85 -51.0 1.3 -51.05 7.0 -52.35 L14.45 -54.25 17.65 -55.1 Q18.7 -55.6 19.15 -56.25 L19.4 -58.5 19.4 -58.55 Q19.7 -61.75 25.5 -63.6 28.55 -64.65 30.05 -64.2 L30.1 -64.15 Q31.1 -63.8 31.25 -62.65 L33.6 -58.75 Q35.6 -55.15 36.7 -55.15 L45.1 -56.8 Q51.35 -58.25 56.55 -58.7 L56.9 -58.7 58.3 -58.85 Q64.15 -59.25 66.05 -56.95 67.55 -55.1 67.6 -49.35 67.6 -48.5 67.1 -47.7 L66.0 -46.5 65.65 -46.2 Q64.45 -45.25 62.75 -44.45 L59.2 -43.35 55.9 -42.05 55.85 -42.0 Q58.65 -42.25 61.3 -43.1 63.85 -44.05 66.35 -44.6 L66.55 -44.55 67.7 -44.85 67.75 -44.85 68.25 -45.0 68.95 -44.95 70.05 -44.95 70.3 -44.8 70.65 -44.6 71.25 -44.0 72.05 -42.95 72.25 -42.55 72.3 -42.45 72.45 -42.05 72.9 -40.8 74.05 -38.1 74.1 -36.2 Q74.15 -34.15 73.8 -33.6 73.0 -32.15 69.5 -30.7 67.75 -29.95 64.2 -28.9 59.95 -27.65 58.3 -27.6 L58.35 -27.2 Q58.8 -26.45 60.95 -26.45 L64.95 -26.25 65.5 -26.3 69.4 -25.95 Q70.2 -25.5 70.3 -24.8 L70.35 -23.15 Q70.25 -19.75 68.95 -16.5 L68.5 -14.95 Q68.0 -12.2 64.3 -12.15 L59.7 -12.8 55.3 -13.85 48.2 -15.55 43.9 -14.25 Q39.4 -12.85 37.3 -12.4 L31.8 -11.5 26.2 -10.65 4.65 -7.2 0.9 -7.15 -20.45 -8.35 Q-32.1 -10.15 -39.35 -15.0 L-45.45 -18.45 -46.6 -19.1 Q-49.1 -20.8 -50.1 -22.1 -50.85 -22.9 -50.9 -23.6 L-50.8 -24.3 -50.75 -24.35 -50.15 -23.85 -46.55 -21.3 Q-36.8 -15.05 -24.7 -12.6 -10.0 -9.55 0.05 -10.0 L2.8 -10.15 4.6 -10.15 Q15.55 -10.55 26.25 -12.95 L31.8 -14.15 44.2 -16.75 45.55 -17.7 47.65 -17.9 50.0 -17.8 51.75 -17.4 54.75 -16.65 56.15 -16.25 59.9 -15.4 61.25 -15.1 63.85 -14.65 65.15 -14.95 Q66.9 -18.0 67.7 -21.5 L68.05 -23.15 68.05 -23.8 67.95 -24.05 64.75 -23.9 59.5 -24.4 58.6 -24.65 58.1 -24.8 57.05 -25.4 Q56.1 -26.15 56.15 -26.8 56.1 -27.65 56.3 -28.2 L56.3 -28.5 Q56.25 -29.45 59.55 -30.45 L64.8 -31.95 68.15 -33.25 70.45 -34.1 Q71.5 -34.7 71.5 -36.35 L71.6 -37.1 Q71.55 -38.7 70.95 -39.65 L70.75 -40.1 70.15 -41.0 69.8 -41.5 69.0 -41.85 68.85 -41.8 68.8 -41.95 67.0 -41.55 62.0 -40.0 61.4 -39.8 Q55.9 -38.05 54.5 -38.05 L54.05 -38.05 53.8 -38.15 Q52.15 -38.7 51.55 -38.95 L51.2 -39.1 Q50.6 -39.55 50.6 -40.5 50.6 -42.2 52.75 -43.3 53.8 -43.85 57.6 -45.05 60.45 -46.0 62.15 -47.15 64.5 -48.8 64.55 -51.0 L64.6 -51.8 Q64.6 -52.75 64.0 -54.3 63.15 -56.15 62.2 -56.2 L58.9 -56.05 57.95 -55.95" fill="#000000" fill-rule="evenodd" stroke="none"/>
      <path d="M119.0 -50.2 L121.95 -49.9 Q123.6 -50.35 124.5 -54.05 125.5 -58.1 123.7 -58.8 L120.3 -60.05 117.7 -61.0 Q112.05 -63.65 110.7 -64.0 L106.8 -65.2 106.25 -65.0 105.9 -64.75 104.9 -63.9 103.75 -62.3 103.15 -60.75 Q102.75 -59.45 102.65 -58.45 102.5 -57.5 103.25 -56.4 105.35 -53.45 116.25 -50.8 L119.0 -50.2 M126.45 -53.65 Q125.75 -50.75 125.15 -49.4 124.6 -48.3 123.65 -48.0 L122.85 -47.85 122.9 -47.5 122.9 -46.1 122.65 -43.95 121.75 -41.1 Q121.2 -39.1 120.3 -38.05 121.85 -37.5 122.55 -36.1 123.05 -35.15 123.05 -33.4 L122.65 -30.7 122.05 -27.7 Q120.85 -23.8 119.2 -22.95 L115.75 -22.65 114.7 -22.65 108.0 -23.4 100.55 -25.75 Q97.15 -26.9 95.85 -28.2 94.9 -29.2 94.9 -30.8 L96.15 -36.85 Q96.4 -38.2 97.0 -39.85 L97.05 -40.0 96.0 -40.4 Q92.85 -41.55 92.15 -42.9 91.85 -43.5 91.85 -45.7 L91.9 -47.9 Q92.3 -50.2 93.5 -52.15 94.2 -53.2 95.0 -53.6 95.65 -54.05 96.4 -54.3 98.2 -54.35 100.45 -53.65 L103.3 -52.8 Q99.65 -55.5 100.95 -60.8 L101.6 -63.15 102.4 -64.8 103.05 -65.35 103.55 -65.7 106.25 -67.2 106.65 -67.25 108.4 -67.1 111.55 -66.35 113.4 -65.7 116.95 -64.15 118.15 -63.6 Q125.45 -60.3 126.75 -58.15 127.4 -57.2 127.15 -56.0 L126.45 -53.65 M116.75 -48.4 L113.4 -49.15 108.65 -50.45 107.5 -50.5 103.65 -51.2 98.05 -51.85 96.4 -51.65 Q94.7 -50.45 94.35 -48.5 L94.2 -47.9 94.1 -45.75 Q94.1 -44.1 94.3 -43.85 94.85 -43.1 98.0 -42.15 101.2 -41.15 107.4 -40.2 L114.55 -39.35 115.0 -39.35 Q118.05 -39.35 118.65 -39.95 L120.15 -44.1 120.35 -46.85 Q120.4 -47.45 120.6 -47.85 L116.75 -48.4 M117.2 -36.7 L116.65 -36.85 115.0 -36.85 108.0 -37.65 101.0 -38.75 98.7 -39.45 Q98.35 -39.2 98.3 -38.75 L97.65 -36.05 97.0 -33.35 Q96.6 -31.75 96.6 -30.75 96.6 -29.7 98.8 -28.7 100.8 -27.8 103.95 -27.2 L107.8 -26.0 Q111.45 -24.95 115.6 -24.95 L115.7 -24.95 Q118.65 -24.95 119.25 -25.45 119.75 -25.95 120.65 -29.3 L121.25 -33.45 Q121.25 -35.9 118.5 -36.4 L117.2 -36.7" fill="#000000" fill-rule="evenodd" stroke="none"/>
      <path d="M120.3 -60.05 L123.7 -58.8 Q125.5 -58.1 124.5 -54.05 123.6 -50.35 121.95 -49.9 L119.0 -50.2 120.55 -50.75 Q121.6 -51.8 121.75 -52.95 L121.75 -55.35 Q121.75 -57.6 120.3 -60.05 M114.55 -39.35 Q114.55 -40.95 115.45 -43.95 L116.75 -48.4 120.6 -47.85 Q120.4 -47.45 120.35 -46.85 L120.15 -44.1 118.65 -39.95 Q118.05 -39.35 115.0 -39.35 L114.55 -39.35 M117.2 -36.7 L118.5 -36.4 Q121.25 -35.9 121.25 -33.45 L120.65 -29.3 Q119.75 -25.95 119.25 -25.45 118.65 -24.95 115.7 -24.95 L115.6 -24.95 116.35 -27.35 117.5 -31.1 117.75 -34.25 Q117.75 -35.65 117.2 -36.7" fill="#bdbdbd" fill-rule="evenodd" stroke="none"/>
      <path d="M120.3 -60.05 Q121.75 -57.6 121.75 -55.35 L121.75 -52.95 Q121.6 -51.8 120.55 -50.75 L119.0 -50.2 116.25 -50.8 Q105.35 -53.45 103.25 -56.4 102.5 -57.5 102.65 -58.45 102.75 -59.45 103.15 -60.75 L103.75 -62.3 104.9 -63.9 105.9 -64.75 106.25 -65.0 106.8 -65.2 110.7 -64.0 Q112.05 -63.65 117.7 -61.0 L120.3 -60.05 M114.55 -39.35 L107.4 -40.2 Q101.2 -41.15 98.0 -42.15 94.85 -43.1 94.3 -43.85 94.1 -44.1 94.1 -45.75 L94.2 -47.9 94.35 -48.5 Q94.7 -50.45 96.4 -51.65 L98.05 -51.85 103.65 -51.2 107.5 -50.5 108.65 -50.45 113.4 -49.15 116.75 -48.4 115.45 -43.95 Q114.55 -40.95 114.55 -39.35 M115.6 -24.95 Q111.45 -24.95 107.8 -26.0 L103.95 -27.2 Q100.8 -27.8 98.8 -28.7 96.6 -29.7 96.6 -30.75 96.6 -31.75 97.0 -33.35 L97.65 -36.05 98.3 -38.75 Q98.35 -39.2 98.7 -39.45 L101.0 -38.75 108.0 -37.65 115.0 -36.85 116.65 -36.85 117.2 -36.7 Q117.75 -35.65 117.75 -34.25 L117.5 -31.1 116.35 -27.35 115.6 -24.95" fill="#999999" fill-rule="evenodd" stroke="none"/>
    </g>
  </defs>
</svg>
