<?xml version="1.0" encoding="UTF-8" standalone="no"?>
<svg xmlns:xlink="http://www.w3.org/1999/xlink" height="531.5px" width="460.6px" xmlns="http://www.w3.org/2000/svg">
  <g transform="matrix(1.0, 0.0, 0.0, 1.0, 193.65, 334.05)">
    <use height="145.6" transform="matrix(1.0, 0.0, 0.0, 1.0, -46.2, -153.8)" width="193.35" xlink:href="#shape0"/>
  </g>
  <defs>
    <g id="shape0" transform="matrix(1.0, 0.0, 0.0, 1.0, 46.2, 153.8)">
      <path d="M101.35 -33.75 L80.9 -34.1 81.0 -39.5 101.45 -39.15 101.35 -33.75" fill="#1c1916" fill-rule="evenodd" stroke="none"/>
      <path d="M101.35 -33.75 L80.9 -34.1 81.0 -39.5 101.45 -39.15 101.35 -33.75 Z" fill="none" stroke="#000000" stroke-linecap="round" stroke-linejoin="round" stroke-opacity="0.5019608" stroke-width="1.0"/>
      <path d="M71.0 -44.2 Q75.8 -46.6 81.05 -47.65 L83.0 -47.35 Q86.0 -45.8 88.75 -43.65 91.3 -45.15 94.0 -46.3 99.1 -48.35 104.3 -46.45 L106.95 -45.35 107.1 -46.4 111.6 -45.1 111.5 -38.6 Q111.45 -37.05 109.9 -37.05 L72.4 -37.7 Q70.9 -37.75 70.95 -39.3 L71.0 -44.2" fill="#756453" fill-rule="evenodd" stroke="none"/>
      <path d="M71.0 -44.2 L71.1 -48.5 Q71.1 -50.0 72.6 -49.95 L110.1 -49.3 Q111.65 -49.3 111.65 -47.8 L111.6 -45.1 107.1 -46.4 106.95 -45.35 104.3 -46.45 Q99.1 -48.35 94.0 -46.3 91.3 -45.15 88.75 -43.65 86.0 -45.8 83.0 -47.35 L81.05 -47.65 Q75.8 -46.6 71.0 -44.2" fill="#968d83" fill-rule="evenodd" stroke="none"/>
      <path d="M111.6 -45.1 L111.65 -47.8 Q111.65 -49.3 110.1 -49.3 L72.6 -49.95 Q71.1 -50.0 71.1 -48.5 L71.0 -44.2 70.95 -39.3 Q70.9 -37.75 72.4 -37.7 L109.9 -37.05 Q111.45 -37.05 111.5 -38.6 L111.6 -45.1 Z" fill="none" stroke="#000000" stroke-linecap="round" stroke-linejoin="round" stroke-opacity="0.5019608" stroke-width="1.0"/>
      <path d="M92.95 -34.9 L110.05 -34.6 109.9 -25.2 71.65 -25.9 71.8 -35.3 82.55 -35.1 Q87.45 -32.4 88.05 -32.4 L92.95 -34.9" fill="#474340" fill-rule="evenodd" stroke="none"/>
      <path d="M82.55 -35.1 L92.95 -34.9 88.05 -32.4 Q87.45 -32.4 82.55 -35.1" fill="#6e6e6e" fill-rule="evenodd" stroke="none"/>
      <path d="M92.95 -34.9 L110.05 -34.6 109.9 -25.2 71.65 -25.9 71.8 -35.3 82.55 -35.1 92.95 -34.9 Z" fill="none" stroke="#000000" stroke-linecap="round" stroke-linejoin="round" stroke-opacity="0.5019608" stroke-width="1.0"/>
      <path d="M87.75 -27.6 Q86.6 -28.75 86.65 -30.4 86.65 -32.05 87.85 -33.2 89.05 -34.3 90.7 -34.3 92.35 -34.25 93.5 -33.1 94.6 -31.9 94.6 -30.25 94.55 -28.6 93.4 -27.5 92.25 -26.3 90.6 -26.35 88.95 -26.35 87.75 -27.6 M92.25 -28.6 L89.05 -31.9 92.25 -28.6" fill="#6e6e6e" fill-rule="evenodd" stroke="none"/>
      <path d="M87.75 -27.6 Q86.6 -28.75 86.65 -30.4 86.65 -32.05 87.85 -33.2 89.05 -34.3 90.7 -34.3 92.35 -34.25 93.5 -33.1 94.6 -31.9 94.6 -30.25 94.55 -28.6 93.4 -27.5 92.25 -26.3 90.6 -26.35 88.95 -26.35 87.75 -27.6 M89.05 -31.9 L92.25 -28.6" fill="none" stroke="#000000" stroke-linecap="round" stroke-linejoin="round" stroke-opacity="0.5019608" stroke-width="1.0"/>
      <path d="M100.75 -96.05 L100.4 -98.6 Q100.6 -102.85 103.55 -101.65 125.55 -94.2 146.05 -62.3 147.0 -60.8 146.5 -59.1 130.25 -42.35 112.8 -26.5 108.15 -25.3 104.45 -28.4 102.95 -29.7 102.85 -34.1 L103.0 -36.15 104.4 -36.9 106.0 -38.1 Q106.45 -38.5 106.15 -40.55 105.7 -43.25 106.0 -44.75 L107.15 -49.15 107.9 -53.0 Q108.3 -56.3 107.25 -60.95 L105.4 -67.5 105.05 -68.6 Q104.1 -71.75 103.75 -75.6 L103.7 -76.35 Q103.5 -79.05 103.6 -83.7 103.6 -87.25 102.6 -91.0 L102.1 -92.85 100.75 -96.05" fill="url(#gradient0)" fill-rule="evenodd" stroke="none"/>
      <path d="M98.05 -60.15 L96.55 -61.85 Q99.85 -65.9 102.95 -68.45 L103.25 -62.2 102.65 -61.65 Q100.75 -59.8 98.95 -60.0 L98.05 -60.15 M95.25 -74.25 L93.75 -76.0 Q97.4 -81.0 101.9 -83.9 L102.65 -74.95 Q100.55 -73.1 96.65 -73.9 L95.25 -74.25 M95.0 -87.95 L90.25 -90.75 Q94.65 -94.85 100.8 -95.3 L101.3 -91.05 100.15 -89.75 Q98.05 -87.7 95.0 -87.95" fill="#fbffed" fill-rule="evenodd" stroke="none"/>
      <path d="M100.75 -96.05 L102.1 -92.85 102.6 -91.0 Q103.6 -87.25 103.6 -83.7 103.5 -79.05 103.7 -76.35 L103.75 -75.6 Q104.1 -71.75 105.05 -68.6 L105.4 -67.5 107.25 -60.95 Q108.3 -56.3 107.9 -53.0 L107.15 -49.15 106.0 -44.75 Q105.7 -43.25 106.15 -40.55 106.45 -38.5 106.0 -38.1 L104.4 -36.9 103.0 -36.15 Q103.4 -46.0 103.3 -56.05 L103.25 -62.2 102.95 -68.45 103.0 -68.45 102.65 -74.95 101.9 -83.9 101.3 -91.05 100.8 -95.3 Q100.7 -95.65 100.75 -96.05" fill="#f2d2d2" fill-rule="evenodd" stroke="none"/>
      <path d="M103.3 -56.05 Q100.65 -57.55 98.05 -60.15 L98.95 -60.0 Q100.75 -59.8 102.65 -61.65 L103.25 -62.2 103.3 -56.05 M103.0 -68.45 Q99.05 -70.15 95.25 -74.25 L96.65 -73.9 Q100.55 -73.1 102.65 -74.95 L103.0 -68.45 M101.9 -83.9 L95.0 -87.95 Q98.05 -87.7 100.15 -89.75 L101.3 -91.05 101.9 -83.9" fill="#dfe6cc" fill-rule="evenodd" stroke="none"/>
      <path d="M103.0 -36.15 L102.85 -34.1 Q102.95 -29.7 104.45 -28.4 108.15 -25.3 112.8 -26.5 130.25 -42.35 146.5 -59.1 147.0 -60.8 146.05 -62.3 125.55 -94.2 103.55 -101.65 100.6 -102.85 100.4 -98.6 L100.75 -96.05 Q100.7 -95.65 100.8 -95.3 94.65 -94.85 90.25 -90.75 L95.0 -87.95 101.9 -83.9 101.3 -91.05 100.8 -95.3 M103.0 -36.15 Q103.4 -46.0 103.3 -56.05 100.65 -57.55 98.05 -60.15 L96.55 -61.85 Q99.85 -65.9 102.95 -68.45 L103.0 -68.45 Q99.05 -70.15 95.25 -74.25 L93.75 -76.0 Q97.4 -81.0 101.9 -83.9 L102.65 -74.95 103.0 -68.45 M103.25 -62.2 L102.95 -68.45 M103.3 -56.05 L103.25 -62.2" fill="none" stroke="#000000" stroke-linecap="round" stroke-linejoin="round" stroke-opacity="0.5019608" stroke-width="1.0"/>
      <path d="M76.85 -146.0 Q86.55 -140.8 89.2 -136.55 L88.25 -135.35 80.35 -134.75 76.25 -135.4 76.85 -146.0 M75.9 -124.9 Q83.15 -121.25 86.8 -117.05 L85.6 -115.4 Q82.4 -114.2 78.7 -113.85 L75.75 -113.6 75.9 -124.9 M75.9 -101.65 Q80.8 -99.55 83.3 -96.4 L83.0 -95.85 Q81.1 -94.9 78.6 -94.05 L76.1 -93.25 75.9 -101.65 M76.55 -84.25 Q79.85 -82.5 81.9 -80.25 L80.45 -79.3 Q78.95 -78.3 77.3 -77.65 L76.55 -84.25" fill="#fbffed" fill-rule="evenodd" stroke="none"/>
      <path d="M75.95 -126.25 L75.9 -124.9 75.75 -113.6 75.8 -106.8 75.9 -101.65 76.1 -93.25 76.35 -88.1 76.4 -86.75 72.5 -77.55 72.15 -76.45 Q69.7 -68.35 73.1 -62.95 74.95 -59.95 74.05 -55.85 L71.75 -47.55 Q69.35 -37.4 75.15 -26.3 L74.8 -26.2 34.45 -42.75 Q33.3 -46.45 33.25 -49.95 33.05 -55.5 35.95 -62.6 L39.15 -68.9 Q41.7 -73.65 42.65 -76.0 43.7 -78.5 42.65 -82.1 42.1 -84.3 39.9 -88.85 37.8 -93.4 37.15 -95.65 36.1 -99.3 37.15 -101.85 40.4 -109.85 47.6 -120.15 L51.1 -121.35 Q54.75 -122.7 58.15 -123.15 L57.5 -123.7 53.3 -123.85 49.8 -123.25 56.05 -131.45 Q66.3 -144.35 75.45 -153.25 77.1 -152.9 77.2 -151.15 L76.85 -146.0 76.25 -135.4 75.95 -126.25 M59.8 -123.4 L58.15 -123.15 59.8 -123.4" fill="url(#gradient1)" fill-rule="evenodd" stroke="none"/>
      <path d="M34.45 -42.75 L4.0 -55.2 Q9.2 -86.75 16.0 -102.8 36.65 -133.7 69.2 -151.7 73.45 -153.65 75.45 -153.25 66.3 -144.35 56.05 -131.45 L49.8 -123.25 49.65 -123.25 Q47.9 -122.95 46.05 -121.75 44.3 -120.7 43.35 -119.4 L43.4 -119.15 47.6 -120.15 Q40.4 -109.85 37.15 -101.85 36.1 -99.3 37.15 -95.65 37.8 -93.4 39.9 -88.85 42.1 -84.3 42.65 -82.1 43.7 -78.5 42.65 -76.0 41.7 -73.65 39.15 -68.9 L35.95 -62.6 Q33.05 -55.5 33.25 -49.95 33.3 -46.45 34.45 -42.75 M27.6 -90.05 L24.95 -91.7 22.3 -93.3 Q19.65 -94.35 17.75 -93.7 L12.85 -90.95 17.75 -93.7 Q19.65 -94.35 22.3 -93.3 L24.95 -91.7 27.6 -90.05 M25.45 -74.4 Q27.95 -77.45 30.0 -82.35 L31.05 -85.2 31.4 -86.4 Q28.25 -85.75 24.05 -83.4 L21.75 -82.0 Q16.15 -78.3 14.15 -73.4 L13.55 -71.65 13.55 -71.6 13.8 -71.55 Q13.95 -71.45 15.25 -70.9 16.6 -70.4 17.85 -70.35 L18.65 -70.35 18.4 -68.9 18.15 -67.35 Q17.4 -67.15 16.5 -66.5 14.7 -65.2 13.95 -63.3 13.2 -61.5 14.4 -59.9 15.25 -58.7 16.55 -58.2 L21.45 -58.05 Q24.1 -58.85 24.95 -61.0 25.6 -62.55 24.95 -64.2 24.25 -66.15 21.45 -67.05 20.85 -68.05 20.75 -69.1 L20.85 -70.85 21.25 -71.0 22.0 -71.4 23.85 -72.8 25.45 -74.4 M31.4 -86.4 L34.45 -86.65 31.4 -86.4 M12.5 -67.35 L13.55 -71.6 12.5 -67.35" fill="url(#gradient2)" fill-rule="evenodd" stroke="none"/>
      <path d="M88.25 -135.35 Q84.3 -130.7 75.95 -126.25 L76.25 -135.4 80.35 -134.75 88.25 -135.35 M85.6 -115.4 Q81.35 -109.95 75.8 -106.8 L75.75 -113.6 78.7 -113.85 Q82.4 -114.2 85.6 -115.4 M83.0 -95.85 Q80.65 -91.85 77.15 -88.75 L76.35 -88.1 76.1 -93.25 78.6 -94.05 Q81.1 -94.9 83.0 -95.85 M81.9 -80.25 L82.0 -80.15 Q80.65 -76.35 77.85 -72.8 L77.3 -77.65 Q78.95 -78.3 80.45 -79.3 L81.9 -80.25" fill="#e0e8cb" fill-rule="evenodd" stroke="none"/>
      <path d="M49.8 -123.25 L53.3 -123.85 57.5 -123.7 58.15 -123.15 Q54.75 -122.7 51.1 -121.35 L47.6 -120.15 43.4 -119.15 43.4 -119.3 43.35 -119.4 Q44.3 -120.7 46.05 -121.75 47.9 -122.95 49.65 -123.25 L49.8 -123.25" fill="#333333" fill-rule="evenodd" stroke="none"/>
      <path d="M76.4 -86.75 L76.55 -84.25 77.3 -77.65 77.85 -72.8 81.3 -43.9 Q80.95 -34.25 79.9 -29.55 78.9 -25.05 75.3 -26.05 L75.15 -26.3 Q69.35 -37.4 71.75 -47.55 L74.05 -55.85 Q74.95 -59.95 73.1 -62.95 69.7 -68.35 72.15 -76.45 L72.5 -77.55 76.4 -86.75" fill="#f2d2d2" fill-rule="evenodd" stroke="none"/>
      <path d="M21.75 -82.0 L24.05 -83.4 Q28.25 -85.75 31.4 -86.4 L31.05 -85.2 30.0 -82.35 Q27.95 -77.45 25.45 -74.4 23.5 -75.45 22.4 -77.95 21.45 -80.15 21.75 -82.0" fill="#1a1a1a" fill-rule="evenodd" stroke="none"/>
      <path d="M21.75 -82.0 Q21.45 -80.15 22.4 -77.95 23.5 -75.45 25.45 -74.4 L23.85 -72.8 22.0 -71.4 21.25 -71.0 20.0 -70.7 17.85 -70.35 Q16.6 -70.4 15.25 -70.9 13.95 -71.45 13.8 -71.55 L13.55 -71.65 14.15 -73.4 Q16.15 -78.3 21.75 -82.0" fill="#292929" fill-rule="evenodd" stroke="none"/>
      <path d="M21.25 -71.0 L20.85 -70.85 20.75 -69.1 Q20.85 -68.05 21.45 -67.05 24.25 -66.15 24.95 -64.2 25.6 -62.55 24.95 -61.0 24.1 -58.85 21.45 -58.05 L16.55 -58.2 Q15.25 -58.7 14.4 -59.9 13.2 -61.5 13.95 -63.3 14.7 -65.2 16.5 -66.5 17.4 -67.15 18.15 -67.35 L18.4 -68.9 18.65 -70.35 17.85 -70.35 20.0 -70.7 21.25 -71.0" fill="#ffffff" fill-rule="evenodd" stroke="none"/>
      <path d="M76.85 -146.0 Q86.55 -140.8 89.2 -136.55 L88.25 -135.35 Q84.3 -130.7 75.95 -126.25 L75.9 -124.9 Q83.15 -121.25 86.8 -117.05 L85.6 -115.4 Q81.35 -109.95 75.8 -106.8 L75.9 -101.65 Q80.8 -99.55 83.3 -96.4 L83.0 -95.85 Q80.65 -91.85 77.15 -88.75 L76.35 -88.1 76.4 -86.75 76.55 -84.25 Q79.85 -82.5 81.9 -80.25 L82.0 -80.15 Q80.65 -76.35 77.85 -72.8 L81.3 -43.9 Q80.95 -34.25 79.9 -29.55 78.9 -25.05 75.3 -26.05 L74.8 -26.2 34.45 -42.75 4.0 -55.2 Q9.2 -86.75 16.0 -102.8 36.65 -133.7 69.2 -151.7 73.45 -153.65 75.45 -153.25 77.1 -152.9 77.2 -151.15 L76.85 -146.0 76.25 -135.4 75.95 -126.25 M47.6 -120.15 L51.1 -121.35 Q54.75 -122.7 58.15 -123.15 L57.5 -123.7 53.3 -123.85 49.8 -123.25 49.65 -123.25 Q47.9 -122.95 46.05 -121.75 44.3 -120.7 43.35 -119.4 L43.4 -119.3 43.4 -119.15 47.6 -120.15 M58.15 -123.15 L59.8 -123.4 M75.75 -113.6 L75.8 -106.8 M75.9 -124.9 L75.75 -113.6 M76.1 -93.25 L76.35 -88.1 M76.55 -84.25 L77.3 -77.65 77.85 -72.8 M12.85 -90.95 L17.75 -93.7 Q19.65 -94.35 22.3 -93.3 L24.95 -91.7 27.6 -90.05 M25.45 -74.4 Q27.95 -77.45 30.0 -82.35 L31.05 -85.2 31.4 -86.4 Q28.25 -85.75 24.05 -83.4 L21.75 -82.0 Q21.45 -80.15 22.4 -77.95 23.5 -75.45 25.45 -74.4 L23.85 -72.8 22.0 -71.4 21.25 -71.0 20.85 -70.85 20.75 -69.1 Q20.85 -68.05 21.45 -67.05 24.25 -66.15 24.95 -64.2 25.6 -62.55 24.95 -61.0 24.1 -58.85 21.45 -58.05 L16.55 -58.2 Q15.25 -58.7 14.4 -59.9 13.2 -61.5 13.95 -63.3 14.7 -65.2 16.5 -66.5 17.4 -67.15 18.15 -67.35 L18.4 -68.9 18.65 -70.35 17.85 -70.35 Q16.6 -70.4 15.25 -70.9 13.95 -71.45 13.8 -71.55 L13.55 -71.65 13.55 -71.6 12.5 -67.35 M34.45 -86.65 L31.4 -86.4 M21.75 -82.0 Q16.15 -78.3 14.15 -73.4 L13.55 -71.65 M75.9 -101.65 L76.1 -93.25" fill="none" stroke="#000000" stroke-linecap="round" stroke-linejoin="round" stroke-opacity="0.5019608" stroke-width="1.0"/>
      <path d="M28.1 -60.4 L29.15 -61.05 31.8 -61.95 33.2 -62.15 33.55 -62.15 34.05 -61.65 34.1 -61.65 34.45 -61.0 36.0 -58.3 Q36.5 -56.3 37.1 -55.25 38.25 -53.45 41.6 -53.45 L42.7 -53.55 Q37.5 -52.4 35.4 -52.35 32.3 -52.4 31.25 -54.05 30.75 -55.05 30.3 -56.9 L28.85 -59.45 28.5 -60.05 28.45 -60.05 28.1 -60.4 M62.65 -57.0 L63.6 -57.1 66.9 -57.25 Q67.85 -57.2 68.7 -55.35 69.3 -53.8 69.3 -52.85 L69.25 -52.05 Q69.2 -49.85 66.85 -48.2 65.15 -47.05 62.3 -46.1 58.5 -44.9 57.45 -44.35 55.3 -43.25 55.3 -41.55 55.3 -40.6 55.9 -40.15 L56.25 -40.0 Q52.7 -38.95 51.65 -38.95 L51.25 -38.95 51.0 -39.05 50.95 -39.05 50.8 -40.05 Q50.9 -42.95 57.35 -45.5 63.8 -47.95 63.9 -51.1 63.95 -52.95 62.85 -56.4 L62.65 -57.0 M66.7 -41.05 L71.7 -42.6 73.5 -43.0 73.55 -42.85 73.7 -42.9 Q74.1 -42.95 74.5 -42.55 L74.85 -42.05 75.45 -41.15 75.65 -40.7 Q76.25 -39.75 76.3 -38.15 L76.2 -37.4 Q76.2 -35.75 75.15 -35.15 L72.85 -34.3 69.5 -33.0 64.25 -31.5 Q60.95 -30.5 61.0 -29.55 L61.0 -29.25 Q60.8 -28.7 60.85 -27.85 60.8 -27.2 61.75 -26.45 L62.8 -25.85 61.2 -25.85 Q57.35 -25.85 55.45 -26.55 54.7 -26.65 54.0 -27.2 53.2 -27.9 53.2 -28.5 53.15 -29.3 53.35 -29.8 L53.35 -30.1 Q53.3 -31.0 56.35 -31.9 60.0 -32.85 61.2 -33.35 L64.4 -34.5 66.5 -35.25 Q67.5 -35.8 67.5 -37.3 L67.6 -38.0 Q67.55 -39.5 66.95 -40.4 L66.8 -40.85 66.7 -41.05 M64.2 -25.45 L69.45 -24.95 72.65 -25.1 72.75 -24.85 72.75 -24.2 72.4 -22.55 Q71.6 -19.05 69.85 -16.0 69.25 -15.7 68.55 -15.7 L65.95 -16.15 64.6 -16.45 60.85 -17.3 61.45 -17.45 Q63.15 -20.3 63.9 -23.55 L64.2 -25.1 64.2 -25.45 M52.35 -18.95 L50.25 -18.75 48.9 -17.8 36.5 -15.2 30.95 -14.0 Q20.25 -11.6 9.3 -11.2 L7.5 -11.2 4.75 -11.05 Q-5.3 -10.6 -20.0 -13.65 -32.1 -16.1 -41.85 -22.35 L-45.45 -24.9 -45.55 -25.7 -45.65 -26.2 -42.15 -23.85 Q-33.15 -18.0 -21.9 -15.7 -8.3 -12.85 1.0 -13.2 L3.65 -13.3 5.35 -13.3 Q15.45 -13.6 25.4 -15.8 L30.5 -16.9 42.05 -19.25 Q42.9 -19.9 44.4 -19.8 L47.4 -20.25 49.05 -19.85 51.85 -19.1 52.35 -18.95 M-27.25 -60.1 L-26.1 -58.95 -25.35 -58.45 -23.6 -57.1 -19.45 -54.75 Q-17.15 -52.85 -12.05 -51.4 -6.9 -50.0 -2.65 -49.15 L10.0 -49.7 7.85 -49.3 Q-1.75 -47.7 -5.6 -48.55 L-14.35 -50.7 Q-19.15 -52.1 -21.25 -53.8 L-25.1 -56.0 -26.75 -57.3 -27.45 -57.8 -29.15 -58.75 -27.25 -60.1" fill="#bdbdbd" fill-rule="evenodd" stroke="none"/>
      <path d="M42.7 -53.55 L41.6 -53.45 Q38.25 -53.45 37.1 -55.25 36.5 -56.3 36.0 -58.3 L34.45 -61.0 34.1 -61.65 34.05 -61.65 33.55 -62.15 33.2 -62.15 31.8 -61.95 29.15 -61.05 28.1 -60.4 27.8 -60.25 Q27.5 -59.95 27.5 -59.45 L27.55 -57.95 27.5 -57.3 Q27.35 -56.0 24.7 -53.85 22.15 -51.75 11.85 -50.0 L10.0 -49.7 -2.65 -49.15 Q-6.9 -50.0 -12.05 -51.4 -17.15 -52.85 -19.45 -54.75 L-23.6 -57.1 -25.35 -58.45 -26.1 -58.95 -27.25 -60.1 Q-28.0 -61.05 -27.9 -62.15 L-27.5 -62.3 -24.75 -60.9 -24.25 -60.6 -18.25 -57.25 Q-8.2 -52.0 -1.15 -52.05 6.0 -52.1 11.7 -53.4 L19.15 -55.3 Q21.15 -55.65 22.35 -56.15 23.4 -56.65 23.85 -57.3 L24.1 -59.55 24.1 -59.6 Q24.4 -62.8 30.2 -64.65 33.25 -65.7 34.75 -65.25 L34.8 -65.2 Q35.8 -64.85 35.95 -63.7 L38.3 -59.8 Q40.3 -56.2 41.4 -56.2 L49.8 -57.85 Q56.05 -59.3 61.25 -59.75 L61.6 -59.75 63.0 -59.9 Q68.85 -60.3 70.75 -58.0 72.25 -56.15 72.3 -50.4 72.3 -49.55 71.8 -48.75 L70.7 -47.55 70.35 -47.25 Q69.15 -46.3 67.45 -45.5 L63.9 -44.4 60.6 -43.1 60.55 -43.05 Q63.35 -43.3 66.0 -44.15 L71.05 -45.65 71.25 -45.6 72.4 -45.9 72.45 -45.9 72.95 -46.05 73.65 -46.0 74.75 -46.0 75.0 -45.85 75.35 -45.65 75.95 -45.05 76.75 -44.0 76.95 -43.6 77.0 -43.5 77.15 -43.1 77.6 -41.85 78.75 -39.15 78.8 -37.25 Q78.85 -35.2 78.5 -34.65 77.7 -33.2 74.2 -31.75 72.45 -31.0 68.9 -29.95 64.65 -28.7 63.0 -28.65 L63.05 -28.25 Q63.5 -27.5 65.65 -27.5 L69.65 -27.3 70.2 -27.35 74.1 -27.0 Q74.9 -26.55 75.0 -25.85 L75.05 -24.2 Q74.95 -20.8 73.65 -17.55 L73.2 -16.0 Q72.7 -13.25 69.0 -13.2 L64.4 -13.85 60.0 -14.9 52.9 -16.6 48.6 -15.3 Q44.1 -13.9 42.0 -13.45 L36.5 -12.55 30.9 -11.7 9.35 -8.25 5.6 -8.2 Q-7.35 -8.05 -15.75 -9.4 -27.4 -11.2 -34.65 -16.05 L-40.75 -19.5 -41.9 -20.15 Q-44.4 -21.85 -45.4 -23.15 -46.15 -23.95 -46.2 -24.65 L-46.1 -25.35 -46.05 -25.4 -45.45 -24.9 -41.85 -22.35 Q-32.1 -16.1 -20.0 -13.65 -5.3 -10.6 4.75 -11.05 L7.5 -11.2 9.3 -11.2 Q20.25 -11.6 30.95 -14.0 L36.5 -15.2 48.9 -17.8 50.25 -18.75 52.35 -18.95 54.7 -18.85 56.45 -18.45 59.45 -17.7 60.85 -17.3 64.6 -16.45 65.95 -16.15 68.55 -15.7 Q69.25 -15.7 69.85 -16.0 71.6 -19.05 72.4 -22.55 L72.75 -24.2 72.75 -24.85 72.65 -25.1 69.45 -24.95 64.2 -25.45 63.3 -25.7 62.8 -25.85 61.75 -26.45 Q60.8 -27.2 60.85 -27.85 60.8 -28.7 61.0 -29.25 L61.0 -29.55 Q60.95 -30.5 64.25 -31.5 L69.5 -33.0 72.85 -34.3 75.15 -35.15 Q76.2 -35.75 76.2 -37.4 L76.3 -38.15 Q76.25 -39.75 75.65 -40.7 L75.45 -41.15 74.85 -42.05 74.5 -42.55 Q74.1 -42.95 73.7 -42.9 L73.55 -42.85 73.5 -43.0 71.7 -42.6 66.7 -41.05 66.1 -40.85 Q60.6 -39.1 59.2 -39.1 L58.75 -39.1 58.5 -39.2 56.25 -40.0 55.9 -40.15 Q55.3 -40.6 55.3 -41.55 55.3 -43.25 57.45 -44.35 58.5 -44.9 62.3 -46.1 65.15 -47.05 66.85 -48.2 69.2 -49.85 69.25 -52.05 L69.3 -52.85 Q69.3 -53.8 68.7 -55.35 67.85 -57.2 66.9 -57.25 L63.6 -57.1 62.65 -57.0 Q57.25 -56.6 51.8 -55.3 45.6 -53.8 42.7 -53.55" fill="#000000" fill-rule="evenodd" stroke="none"/>
      <path d="M28.1 -60.4 L28.45 -60.05 28.5 -60.05 28.85 -59.45 30.3 -56.9 Q30.75 -55.05 31.25 -54.05 32.3 -52.4 35.4 -52.35 37.5 -52.4 42.7 -53.55 45.6 -53.8 51.8 -55.3 57.25 -56.6 62.65 -57.0 L62.85 -56.4 Q63.95 -52.95 63.9 -51.1 63.8 -47.95 57.35 -45.5 50.9 -42.95 50.8 -40.05 L50.95 -39.05 51.0 -39.05 51.25 -38.95 51.65 -38.95 Q52.7 -38.95 56.25 -40.0 L58.5 -39.2 58.75 -39.1 59.2 -39.1 Q60.6 -39.1 66.1 -40.85 L66.7 -41.05 66.8 -40.85 66.95 -40.4 Q67.55 -39.5 67.6 -38.0 L67.5 -37.3 Q67.5 -35.8 66.5 -35.25 L64.4 -34.5 61.2 -33.35 Q60.0 -32.85 56.35 -31.9 53.3 -31.0 53.35 -30.1 L53.35 -29.8 Q53.15 -29.3 53.2 -28.5 53.2 -27.9 54.0 -27.2 54.7 -26.65 55.45 -26.55 57.35 -25.85 61.2 -25.85 L62.8 -25.85 63.3 -25.7 64.2 -25.45 64.2 -25.1 63.9 -23.55 Q63.15 -20.3 61.45 -17.45 L60.85 -17.3 59.45 -17.7 56.45 -18.45 54.7 -18.85 52.35 -18.95 51.85 -19.1 49.05 -19.85 47.4 -20.25 44.4 -19.8 Q42.9 -19.9 42.05 -19.25 L30.5 -16.9 25.4 -15.8 Q15.45 -13.6 5.35 -13.3 L3.65 -13.3 1.0 -13.2 Q-8.3 -12.85 -21.9 -15.7 -33.15 -18.0 -42.15 -23.85 L-45.65 -26.2 -45.85 -28.1 Q-45.9 -33.0 -44.05 -38.3 -42.4 -43.4 -39.5 -47.5 -36.85 -51.3 -33.6 -54.65 -31.2 -57.25 -29.15 -58.75 L-27.45 -57.8 -26.75 -57.3 -25.1 -56.0 -21.25 -53.8 Q-19.15 -52.1 -14.35 -50.7 L-5.6 -48.55 Q-1.75 -47.7 7.85 -49.3 L10.0 -49.7 11.85 -50.0 Q22.15 -51.75 24.7 -53.85 27.35 -56.0 27.5 -57.3 L27.55 -57.95 27.5 -59.45 Q27.5 -59.95 27.8 -60.25 L28.1 -60.4" fill="#999999" fill-rule="evenodd" stroke="none"/>
      <path d="M122.85 -64.65 Q130.15 -61.35 131.45 -59.2 132.1 -58.25 131.85 -57.05 L131.15 -54.7 Q130.45 -51.8 129.85 -50.45 129.3 -49.35 128.35 -49.05 L127.55 -48.9 127.6 -48.55 127.6 -47.15 127.35 -45.0 126.45 -42.15 Q125.9 -40.15 125.0 -39.1 126.55 -38.55 127.25 -37.15 127.75 -36.2 127.75 -34.45 L127.35 -31.75 126.75 -28.75 Q125.55 -24.85 123.9 -24.0 L120.45 -23.7 119.4 -23.7 112.7 -24.45 105.25 -26.8 Q101.85 -27.95 100.55 -29.25 99.6 -30.25 99.6 -31.85 L100.85 -37.9 Q101.1 -39.25 101.7 -40.9 L101.75 -41.05 100.7 -41.45 Q97.55 -42.6 96.85 -43.95 96.55 -44.55 96.55 -46.75 L96.6 -48.95 Q97.0 -51.25 98.2 -53.2 98.9 -54.25 99.7 -54.65 100.35 -55.1 101.1 -55.35 L105.15 -54.7 108.0 -53.85 Q104.35 -56.55 105.65 -61.85 L106.3 -64.2 107.1 -65.85 107.75 -66.4 108.25 -66.75 110.95 -68.25 111.35 -68.3 113.1 -68.15 116.25 -67.4 118.1 -66.75 121.65 -65.2 122.85 -64.65 M125.0 -61.1 L122.4 -62.05 Q116.75 -64.7 115.4 -65.05 L111.5 -66.25 110.95 -66.05 110.6 -65.8 109.6 -64.95 108.45 -63.35 107.85 -61.8 107.35 -59.5 Q107.2 -58.55 107.95 -57.45 110.05 -54.5 120.95 -51.85 L123.7 -51.25 126.65 -50.95 Q128.3 -51.4 129.2 -55.1 130.2 -59.15 128.4 -59.85 L125.0 -61.1 M121.45 -49.45 L118.1 -50.2 113.35 -51.5 112.2 -51.55 108.35 -52.25 102.75 -52.9 101.1 -52.7 Q99.4 -51.5 99.05 -49.55 L98.9 -48.95 98.8 -46.8 Q98.8 -45.15 99.0 -44.9 99.55 -44.15 102.7 -43.2 105.9 -42.2 112.1 -41.25 L119.25 -40.4 119.7 -40.4 Q122.75 -40.4 123.35 -41.0 L124.85 -45.15 125.05 -47.9 Q125.1 -48.5 125.3 -48.9 L121.45 -49.45 M121.9 -37.75 L121.35 -37.9 119.7 -37.9 112.7 -38.7 105.7 -39.8 103.4 -40.5 Q103.05 -40.25 103.0 -39.8 L102.35 -37.1 101.7 -34.4 Q101.3 -32.8 101.3 -31.8 101.3 -30.75 103.5 -29.75 105.5 -28.85 108.65 -28.25 L112.5 -27.05 Q116.15 -26.0 120.3 -26.0 L120.4 -26.0 Q123.35 -26.0 123.95 -26.5 124.45 -27.0 125.35 -30.35 L125.95 -34.5 Q125.95 -36.95 123.2 -37.45 L121.9 -37.75" fill="#000000" fill-rule="evenodd" stroke="none"/>
      <path d="M125.0 -61.1 Q126.45 -58.65 126.45 -56.4 L126.45 -54.0 Q126.3 -52.85 125.25 -51.8 125.05 -51.65 123.7 -51.25 L120.95 -51.85 Q110.05 -54.5 107.95 -57.45 107.2 -58.55 107.35 -59.5 L107.85 -61.8 108.45 -63.35 109.6 -64.95 110.6 -65.8 110.95 -66.05 111.5 -66.25 115.4 -65.05 Q116.75 -64.7 122.4 -62.05 L125.0 -61.1 M119.25 -40.4 L112.1 -41.25 Q105.9 -42.2 102.7 -43.2 99.55 -44.15 99.0 -44.9 98.8 -45.15 98.8 -46.8 L98.9 -48.95 99.05 -49.55 Q99.4 -51.5 101.1 -52.7 L102.75 -52.9 108.35 -52.25 112.2 -51.55 113.35 -51.5 118.1 -50.2 121.45 -49.45 120.15 -45.0 Q119.25 -42.0 119.25 -40.4 M120.3 -26.0 Q116.15 -26.0 112.5 -27.05 L108.65 -28.25 Q105.5 -28.85 103.5 -29.75 101.3 -30.75 101.3 -31.8 101.3 -32.8 101.7 -34.4 L102.35 -37.1 103.0 -39.8 Q103.05 -40.25 103.4 -40.5 L105.7 -39.8 112.7 -38.7 119.7 -37.9 121.35 -37.9 121.9 -37.75 Q122.45 -36.7 122.45 -35.3 L122.2 -32.15 121.05 -28.4 120.3 -26.0" fill="#999999" fill-rule="evenodd" stroke="none"/>
      <path d="M123.7 -51.25 Q125.05 -51.65 125.25 -51.8 126.3 -52.85 126.45 -54.0 L126.45 -56.4 Q126.45 -58.65 125.0 -61.1 L128.4 -59.85 Q130.2 -59.15 129.2 -55.1 128.3 -51.4 126.65 -50.95 L123.7 -51.25 M119.25 -40.4 Q119.25 -42.0 120.15 -45.0 L121.45 -49.45 125.3 -48.9 Q125.1 -48.5 125.05 -47.9 L124.85 -45.15 123.35 -41.0 Q122.75 -40.4 119.7 -40.4 L119.25 -40.4 M121.9 -37.75 L123.2 -37.45 Q125.95 -36.95 125.95 -34.5 L125.35 -30.35 Q124.45 -27.0 123.95 -26.5 123.35 -26.0 120.4 -26.0 L120.3 -26.0 121.05 -28.4 122.2 -32.15 122.45 -35.3 Q122.45 -36.7 121.9 -37.75" fill="#bdbdbd" fill-rule="evenodd" stroke="none"/>
    </g>
    <linearGradient gradientTransform="matrix(-0.0177, 0.0098, -0.0184, -0.0332, 123.55, -84.0)" gradientUnits="userSpaceOnUse" id="gradient0" spreadMethod="pad" x1="-819.2" x2="819.2">
      <stop offset="0.00784313725490196" stop-color="#c2c2c2"/>
      <stop offset="1.0" stop-color="#ebebeb"/>
    </linearGradient>
    <linearGradient gradientTransform="matrix(0.0158, 0.0043, -0.0189, 0.0694, 42.65, -97.3)" gradientUnits="userSpaceOnUse" id="gradient1" spreadMethod="pad" x1="-819.2" x2="819.2">
      <stop offset="0.00784313725490196" stop-color="#51a0cc"/>
      <stop offset="1.0" stop-color="#ebebeb"/>
    </linearGradient>
    <linearGradient gradientTransform="matrix(-0.013, 0.0084, -0.0391, -0.0602, 18.9, -102.2)" gradientUnits="userSpaceOnUse" id="gradient2" spreadMethod="pad" x1="-819.2" x2="819.2">
      <stop offset="0.00784313725490196" stop-color="#51a0cc"/>
      <stop offset="1.0" stop-color="#2d6d99"/>
    </linearGradient>
  </defs>
</svg>
