<?xml version="1.0" encoding="UTF-8" standalone="no"?>
<svg xmlns:xlink="http://www.w3.org/1999/xlink" height="531.5px" width="460.6px" xmlns="http://www.w3.org/2000/svg">
  <g transform="matrix(1.0, 0.0, 0.0, 1.0, 193.65, 334.05)">
    <use height="147.2" transform="matrix(1.0, 0.0, 0.0, 1.0, -77.65, -179.0)" width="104.5" xlink:href="#shape0"/>
  </g>
  <defs>
    <g id="shape0" transform="matrix(1.0, 0.0, 0.0, 1.0, 77.65, 179.0)">
      <path d="M7.2 -130.1 L8.85 -129.75 Q10.7 -129.25 13.45 -126.75 16.25 -123.85 16.7 -121.85 16.95 -120.7 16.45 -119.4 L15.05 -117.55 12.45 -113.8 10.5 -111.65 Q9.5 -110.2 10.6 -109.3 L12.2 -111.2 13.2 -112.5 13.5 -112.4 14.5 -112.5 Q15.55 -111.45 17.35 -109.8 21.25 -106.05 21.05 -103.2 L20.7 -101.3 19.45 -99.0 18.25 -97.35 17.9 -96.6 17.4 -96.1 18.7 -95.95 19.2 -95.85 22.35 -91.65 23.25 -90.45 Q23.35 -88.15 22.0 -85.75 L20.95 -83.65 16.1 -76.05 Q9.9 -66.7 4.15 -57.25 1.55 -52.9 -1.25 -48.85 -5.9 -45.15 -7.55 -43.3 -9.75 -40.7 -12.75 -39.15 -15.75 -37.4 -19.0 -37.05 L-34.25 -35.9 -45.25 -34.5 -47.2 -34.3 -47.15 -38.65 Q-47.0 -41.75 -46.45 -44.75 -45.1 -52.2 -41.9 -59.5 -39.25 -64.75 -38.05 -68.1 L-36.35 -69.9 -34.05 -71.6 -31.25 -72.6 Q-31.9 -70.9 -31.4 -69.75 -30.1 -72.25 -27.55 -75.4 L-16.15 -88.05 -15.85 -88.55 -15.85 -89.15 -15.9 -89.45 -16.15 -89.55 -16.55 -89.65 -17.3 -89.6 -18.55 -91.25 -20.5 -93.7 -22.6 -96.2 Q-24.25 -98.8 -23.7 -101.55 -23.1 -104.75 -20.65 -108.45 L-18.15 -111.9 Q-16.0 -114.6 -14.5 -115.6 -13.15 -116.55 -11.7 -116.3 -10.5 -116.1 -8.65 -114.85 L-7.5 -114.05 -9.5 -111.35 Q-10.85 -109.55 -11.05 -108.3 -9.4 -108.5 -7.95 -110.55 L-5.35 -114.3 -0.25 -120.65 5.0 -127.7 7.2 -130.1" fill="#999999" fill-rule="evenodd" stroke="none"/>
      <path d="M7.2 -130.1 L5.0 -127.7 -0.25 -120.65 -5.35 -114.3 -7.95 -110.55 Q-9.4 -108.5 -11.05 -108.3 -10.85 -109.55 -9.5 -111.35 L-7.5 -114.05 -8.65 -114.85 Q-10.5 -116.1 -11.7 -116.3 -13.15 -116.55 -14.5 -115.6 -16.0 -114.6 -18.15 -111.9 L-20.65 -108.45 Q-23.1 -104.75 -23.7 -101.55 -24.25 -98.8 -22.6 -96.2 L-20.5 -93.7 -18.55 -91.25 -17.3 -89.6 -16.55 -89.65 -16.15 -89.55 -15.9 -89.45 -15.85 -89.15 -15.85 -88.55 -16.15 -88.05 -27.55 -75.4 Q-30.1 -72.25 -31.4 -69.75 -31.9 -70.9 -31.25 -72.6 L-34.05 -71.6 -36.35 -69.9 -38.05 -68.1 -38.75 -67.5 Q-39.9 -69.4 -35.7 -72.25 -31.75 -74.95 -30.15 -74.65 L-30.1 -74.65 -29.6 -75.4 -27.2 -78.05 -18.55 -88.45 -18.3 -88.85 -20.3 -90.9 -22.5 -93.9 Q-24.15 -95.85 -24.75 -97.3 L-25.3 -99.2 Q-25.4 -100.9 -24.95 -102.95 L-24.0 -105.45 Q-21.5 -110.65 -18.25 -114.35 -14.45 -118.6 -11.65 -118.1 -10.95 -117.95 -8.45 -116.3 L-6.75 -115.15 -4.25 -118.25 -0.75 -122.45 4.75 -129.75 Q8.4 -134.25 11.15 -133.75 12.45 -133.5 16.55 -130.25 L18.6 -128.2 Q20.25 -125.6 19.45 -121.45 L15.8 -115.9 14.9 -114.6 17.25 -114.6 17.75 -114.5 Q19.7 -113.8 20.9 -112.3 26.95 -104.85 19.9 -97.05 L19.85 -96.9 Q22.0 -96.5 23.45 -95.1 L24.45 -93.95 Q26.0 -91.0 25.0 -87.65 L24.9 -87.4 24.1 -85.4 Q23.3 -83.2 21.7 -80.65 L19.8 -77.65 Q13.35 -68.7 7.8 -59.15 L4.05 -53.2 Q-0.7 -45.85 -6.3 -38.95 -9.55 -35.6 -12.95 -34.0 -24.85 -31.15 -37.3 -32.0 L-42.25 -32.3 -46.85 -32.9 Q-48.05 -33.15 -48.5 -33.75 L-47.65 -34.1 Q-47.45 -34.15 -47.2 -34.3 L-45.25 -34.5 -44.45 -34.45 -41.85 -34.3 Q-31.3 -33.4 -20.65 -34.2 -16.3 -34.5 -12.5 -36.4 -10.4 -37.5 -8.4 -39.3 -4.65 -43.95 -1.25 -48.85 1.55 -52.9 4.15 -57.25 9.9 -66.7 16.1 -76.05 L20.95 -83.65 22.0 -85.75 Q23.35 -88.15 23.25 -90.45 23.15 -92.05 22.35 -93.7 L21.95 -94.4 21.45 -94.85 20.05 -95.65 19.2 -95.85 18.7 -95.95 17.4 -96.1 17.9 -96.6 18.25 -97.35 19.45 -99.0 20.7 -101.3 Q23.6 -108.05 17.4 -112.7 L16.9 -112.8 15.25 -112.6 14.5 -112.5 13.5 -112.4 13.2 -112.5 12.2 -111.2 10.6 -109.3 Q9.5 -110.2 10.5 -111.65 L12.45 -113.8 15.05 -117.55 16.45 -119.4 Q17.9 -121.5 18.0 -122.15 18.65 -125.35 17.0 -127.45 L15.0 -129.3 13.25 -130.8 Q11.7 -132.0 11.0 -132.1 9.55 -132.4 7.2 -130.1" fill="#000000" fill-rule="evenodd" stroke="none"/>
      <path d="M16.45 -119.4 Q16.95 -120.7 16.7 -121.85 16.25 -123.85 13.45 -126.75 10.7 -129.25 8.85 -129.75 L7.2 -130.1 Q9.55 -132.4 11.0 -132.1 11.7 -132.0 13.25 -130.8 L15.0 -129.3 17.0 -127.45 Q18.65 -125.35 18.0 -122.15 17.9 -121.5 16.45 -119.4 M-45.25 -34.5 L-34.25 -35.9 -19.0 -37.05 Q-15.75 -37.4 -12.75 -39.15 -9.75 -40.7 -7.55 -43.3 -5.9 -45.15 -1.25 -48.85 -4.65 -43.95 -8.4 -39.3 -10.4 -37.5 -12.5 -36.4 -16.3 -34.5 -20.65 -34.2 -31.3 -33.4 -41.85 -34.3 L-44.45 -34.45 -45.25 -34.5 M23.25 -90.45 L22.35 -91.65 19.2 -95.85 20.05 -95.65 21.45 -94.85 21.95 -94.4 22.35 -93.7 Q23.15 -92.05 23.25 -90.45 M20.7 -101.3 L21.05 -103.2 Q21.25 -106.05 17.35 -109.8 15.55 -111.45 14.5 -112.5 L15.25 -112.6 16.9 -112.8 17.4 -112.7 Q23.6 -108.05 20.7 -101.3" fill="#bdbdbd" fill-rule="evenodd" stroke="none"/>
      <path d="M-67.8 -158.25 Q-65.4 -156.6 -62.45 -156.95 -59.3 -157.3 -57.2 -159.9 -55.2 -162.45 -55.6 -165.65 -56.0 -168.55 -58.1 -170.5 L-58.55 -170.95 Q-61.1 -172.95 -64.3 -172.65 -67.6 -172.2 -69.6 -169.65 -71.7 -167.05 -71.2 -163.9 -70.85 -160.65 -68.3 -158.65 L-67.8 -158.25 M-56.75 -152.8 Q-58.95 -151.5 -61.8 -151.15 -67.5 -150.45 -71.95 -154.0 -76.35 -157.45 -77.05 -163.15 -77.65 -168.8 -74.1 -173.25 -70.6 -177.7 -65.05 -178.4 -59.3 -179.0 -54.9 -175.55 -50.45 -172.0 -49.8 -166.3 -49.5 -163.5 -50.25 -161.0 -50.9 -158.5 -52.65 -156.3 L-52.85 -156.1 Q-54.55 -153.95 -56.75 -152.8" fill="url(#gradient0)" fill-rule="evenodd" stroke="none"/>
      <path d="M-58.1 -170.5 Q-60.4 -172.1 -63.35 -171.75 -66.5 -171.4 -68.5 -168.85 -70.6 -166.25 -70.25 -163.05 -69.85 -160.15 -67.8 -158.25 L-68.3 -158.65 Q-70.85 -160.65 -71.2 -163.9 -71.7 -167.05 -69.6 -169.65 -67.6 -172.2 -64.3 -172.65 -61.1 -172.95 -58.55 -170.95 L-58.1 -170.5" fill="#262626" fill-rule="evenodd" stroke="none"/>
      <path d="M-38.4 -151.7 L-29.25 -144.45 -30.6 -143.95 -31.55 -140.1 -35.1 -138.3 -35.35 -135.95 -56.75 -152.8 Q-54.55 -153.95 -52.85 -156.1 -44.75 -151.35 -38.4 -151.7" fill="#aa6d33" fill-rule="evenodd" stroke="none"/>
      <path d="M-50.25 -161.0 L-38.4 -151.7 Q-44.75 -151.35 -52.85 -156.1 L-52.65 -156.3 Q-50.9 -158.5 -50.25 -161.0" fill="#9e652f" fill-rule="evenodd" stroke="none"/>
      <path d="M-29.25 -144.45 L-26.8 -142.5 -28.2 -142.0 -29.15 -138.2 -32.7 -136.35 -33.0 -134.05 -35.35 -135.95 -35.1 -138.3 -31.55 -140.1 -30.6 -143.95 -29.25 -144.45" fill="#724922" fill-rule="evenodd" stroke="none"/>
      <path d="M-26.8 -142.5 L-13.3 -147.35 26.35 -94.35 -29.15 -138.2 -28.2 -142.0 -26.8 -142.5" fill="url(#gradient1)" fill-rule="evenodd" stroke="none"/>
      <path d="M26.35 -94.35 L-34.35 -120.55 -33.0 -134.05 -32.7 -136.35 -29.15 -138.2 26.35 -94.35" fill="url(#gradient2)" fill-rule="evenodd" stroke="none"/>
      <path d="M-58.1 -170.5 Q-60.4 -172.1 -63.35 -171.75 -66.5 -171.4 -68.5 -168.85 -70.6 -166.25 -70.25 -163.05 -69.85 -160.15 -67.8 -158.25 -65.4 -156.6 -62.45 -156.95 -59.3 -157.3 -57.2 -159.9 -55.2 -162.45 -55.6 -165.65 -56.0 -168.55 -58.1 -170.5 L-58.55 -170.95 Q-61.1 -172.95 -64.3 -172.65 -67.6 -172.2 -69.6 -169.65 -71.7 -167.05 -71.2 -163.9 -70.85 -160.65 -68.3 -158.65 L-67.8 -158.25" fill="none" stroke="#000000" stroke-linecap="round" stroke-linejoin="round" stroke-opacity="0.5019608" stroke-width="1.0"/>
      <path d="M-56.75 -152.8 Q-58.95 -151.5 -61.8 -151.15 -67.5 -150.45 -71.95 -154.0 -76.35 -157.45 -77.05 -163.15 -77.65 -168.8 -74.1 -173.25 -70.6 -177.7 -65.05 -178.4 -59.3 -179.0 -54.9 -175.55 -50.45 -172.0 -49.8 -166.3 -49.5 -163.5 -50.25 -161.0 L-38.4 -151.7 -29.25 -144.45 -26.8 -142.5 -13.3 -147.35 26.35 -94.35 -34.35 -120.55 -33.0 -134.05 -35.35 -135.95 -56.75 -152.8 Q-54.55 -153.95 -52.85 -156.1 L-52.65 -156.3 Q-50.9 -158.5 -50.25 -161.0 M-29.15 -138.2 L-28.2 -142.0 -26.8 -142.5 M-29.15 -138.2 L-32.7 -136.35 -33.0 -134.05" fill="none" stroke="#000000" stroke-linecap="round" stroke-linejoin="round" stroke-opacity="0.4" stroke-width="1.0"/>
      <path d="M-52.85 -156.1 Q-44.75 -151.35 -38.4 -151.7" fill="none" stroke="#000000" stroke-linecap="round" stroke-linejoin="round" stroke-opacity="0.2" stroke-width="0.5"/>
      <path d="M26.35 -94.35 L-29.15 -138.2" fill="none" stroke="#000000" stroke-linecap="round" stroke-linejoin="round" stroke-opacity="0.2509804" stroke-width="1.0"/>
      <path d="M-28.1 -139.4 Q-38.4 -146.25 -46.8 -144.7" fill="none" stroke="#000000" stroke-linecap="round" stroke-linejoin="round" stroke-opacity="0.2" stroke-width="0.5"/>
      <path d="M16.45 -119.4 Q17.9 -121.5 18.0 -122.15 18.65 -125.35 17.0 -127.45 L15.0 -129.3 13.25 -130.8 Q11.7 -132.0 11.0 -132.1 9.55 -132.4 7.2 -130.1 L5.0 -127.7 -0.25 -120.65 -5.35 -114.3 -6.1 -113.2 -11.45 -106.3 Q-14.2 -102.9 -16.35 -99.15 L-17.75 -96.65 -17.95 -96.6 -18.1 -96.7 -18.25 -97.2 -18.3 -97.65 Q-16.65 -102.2 -13.65 -106.2 L-8.7 -112.65 -5.35 -116.8 -4.25 -118.25 -0.75 -122.45 4.75 -129.75 Q8.4 -134.25 11.15 -133.75 12.45 -133.5 16.55 -130.25 L18.6 -128.2 Q20.25 -125.6 19.45 -121.45 L15.8 -115.9 14.9 -114.6 17.25 -114.6 17.75 -114.5 Q19.7 -113.8 20.9 -112.3 26.95 -104.85 19.9 -97.05 L19.85 -96.9 Q22.0 -96.5 23.45 -95.1 L24.45 -93.95 Q26.0 -91.0 25.0 -87.65 L24.9 -87.4 24.1 -85.4 Q23.3 -83.2 21.7 -80.65 L19.8 -77.65 Q13.35 -68.7 7.8 -59.15 L4.05 -53.2 Q-0.7 -45.85 -6.3 -38.95 -9.55 -35.6 -12.95 -34.0 -24.85 -31.15 -37.3 -32.0 L-42.25 -32.3 -46.85 -32.9 Q-48.05 -33.15 -48.5 -33.75 L-47.65 -34.1 Q-47.45 -34.15 -47.2 -34.3 L-45.25 -34.5 -44.45 -34.45 -41.85 -34.3 Q-31.3 -33.4 -20.65 -34.2 -16.3 -34.5 -12.5 -36.4 -10.4 -37.5 -8.4 -39.3 -4.65 -43.95 -1.25 -48.85 1.55 -52.9 4.15 -57.25 9.9 -66.7 16.1 -76.05 L20.95 -83.65 22.0 -85.75 Q23.35 -88.15 23.25 -90.45 23.15 -92.05 22.35 -93.7 L21.95 -94.4 21.45 -94.85 20.05 -95.65 19.2 -95.85 18.7 -95.95 17.4 -96.1 17.9 -96.6 18.25 -97.35 19.45 -99.0 20.7 -101.3 Q23.6 -108.05 17.4 -112.7 L16.9 -112.8 15.25 -112.6 14.5 -112.5 13.5 -112.4 13.2 -112.5 12.2 -111.2 10.6 -109.3 Q9.5 -110.2 10.5 -111.65 L12.45 -113.8 15.05 -117.55 16.45 -119.4 M-20.9 -94.15 L-20.5 -93.7 -18.55 -91.25 -17.3 -89.6 -16.55 -89.65 -16.15 -89.55 -15.9 -89.45 -15.85 -89.15 -15.85 -88.55 -16.15 -88.05 -27.55 -75.4 Q-30.1 -72.25 -31.4 -69.75 -31.9 -70.9 -31.25 -72.6 L-34.05 -71.6 -36.35 -69.9 -38.05 -68.1 -38.75 -67.5 Q-39.9 -69.4 -35.7 -72.25 -31.75 -74.95 -30.15 -74.65 L-30.1 -74.65 -29.6 -75.4 -27.2 -78.05 -18.55 -88.45 -18.3 -88.85 -20.3 -90.9 -21.75 -93.05 -20.9 -94.15" fill="#000000" fill-rule="evenodd" stroke="none"/>
      <path d="M7.2 -130.1 L8.85 -129.75 Q10.7 -129.25 13.45 -126.75 16.25 -123.85 16.7 -121.85 16.95 -120.7 16.45 -119.4 L15.05 -117.55 12.45 -113.8 10.5 -111.65 Q9.5 -110.2 10.6 -109.3 L12.2 -111.2 13.2 -112.5 13.5 -112.4 14.5 -112.5 Q15.55 -111.45 17.35 -109.8 21.25 -106.05 21.05 -103.2 L20.7 -101.3 19.45 -99.0 18.25 -97.35 17.9 -96.6 17.4 -96.1 18.7 -95.95 19.2 -95.85 22.35 -91.65 23.25 -90.45 Q23.35 -88.15 22.0 -85.75 L20.95 -83.65 16.1 -76.05 Q9.9 -66.7 4.15 -57.25 1.55 -52.9 -1.25 -48.85 -5.9 -45.15 -7.55 -43.3 -9.75 -40.7 -12.75 -39.15 -15.75 -37.4 -19.0 -37.05 L-34.25 -35.9 -45.25 -34.5 -47.2 -34.3 -47.15 -38.65 Q-47.0 -41.75 -46.45 -44.75 -45.1 -52.2 -41.9 -59.5 -39.25 -64.75 -38.05 -68.1 L-36.35 -69.9 -34.05 -71.6 -31.25 -72.6 Q-31.9 -70.9 -31.4 -69.75 -30.1 -72.25 -27.55 -75.4 L-16.15 -88.05 -15.85 -88.55 -15.85 -89.15 -15.9 -89.45 -16.15 -89.55 -16.55 -89.65 -17.3 -89.6 -18.55 -91.25 -20.5 -93.7 -20.9 -94.15 -20.25 -95.0 -18.3 -97.65 -18.25 -97.2 -18.1 -96.7 -17.95 -96.6 -17.75 -96.65 -16.35 -99.15 Q-14.2 -102.9 -11.45 -106.3 L-6.1 -113.2 -5.35 -114.3 -0.25 -120.65 5.0 -127.7 7.2 -130.1" fill="#999999" fill-rule="evenodd" stroke="none"/>
      <path d="M16.45 -119.4 Q16.95 -120.7 16.7 -121.85 16.25 -123.85 13.45 -126.75 10.7 -129.25 8.85 -129.75 L7.2 -130.1 Q9.55 -132.4 11.0 -132.1 11.7 -132.0 13.25 -130.8 L15.0 -129.3 17.0 -127.45 Q18.65 -125.35 18.0 -122.15 17.9 -121.5 16.45 -119.4 M-45.25 -34.5 L-34.25 -35.9 -19.0 -37.05 Q-15.75 -37.4 -12.75 -39.15 -9.75 -40.7 -7.55 -43.3 -5.9 -45.15 -1.25 -48.85 -4.65 -43.95 -8.4 -39.3 -10.4 -37.5 -12.5 -36.4 -16.3 -34.5 -20.65 -34.2 -31.3 -33.4 -41.85 -34.3 L-44.45 -34.45 -45.25 -34.5 M23.25 -90.45 L22.35 -91.65 19.2 -95.85 20.05 -95.65 21.45 -94.85 21.95 -94.4 22.35 -93.7 Q23.15 -92.05 23.25 -90.45 M20.7 -101.3 L21.05 -103.2 Q21.25 -106.05 17.35 -109.8 15.55 -111.45 14.5 -112.5 L15.25 -112.6 16.9 -112.8 17.4 -112.7 Q23.6 -108.05 20.7 -101.3" fill="#bdbdbd" fill-rule="evenodd" stroke="none"/>
    </g>
    <linearGradient gradientTransform="matrix(-0.0132, -0.0104, 0.0274, -0.0346, -122.35, -97.9)" gradientUnits="userSpaceOnUse" id="gradient0" spreadMethod="pad" x1="-819.2" x2="819.2">
      <stop offset="0.0" stop-color="#c4c4c4"/>
      <stop offset="1.0" stop-color="#303030"/>
    </linearGradient>
    <linearGradient gradientTransform="matrix(-0.0048, 0.0061, -0.0347, -0.0274, 1.9, -121.75)" gradientUnits="userSpaceOnUse" id="gradient1" spreadMethod="pad" x1="-819.2" x2="819.2">
      <stop offset="0.00784313725490196" stop-color="#9e9e9e"/>
      <stop offset="0.984313725490196" stop-color="#ffffff"/>
    </linearGradient>
    <linearGradient gradientTransform="matrix(-0.0065, 0.0082, -0.0347, -0.0274, -7.35, -110.05)" gradientUnits="userSpaceOnUse" id="gradient2" spreadMethod="pad" x1="-819.2" x2="819.2">
      <stop offset="0.00392156862745098" stop-color="#cccccc"/>
      <stop offset="1.0" stop-color="#666666"/>
    </linearGradient>
  </defs>
</svg>
