<?xml version="1.0" encoding="UTF-8" standalone="no"?>
<svg xmlns:xlink="http://www.w3.org/1999/xlink" height="531.5px" width="460.6px" xmlns="http://www.w3.org/2000/svg">
  <g transform="matrix(1.0, 0.0, 0.0, 1.0, 193.65, 334.05)">
    <use height="136.5" transform="matrix(1.0, 0.0, 0.0, 1.0, -75.9, -60.85)" width="97.15" xlink:href="#shape0"/>
  </g>
  <defs>
    <g id="shape0" transform="matrix(1.0, 0.0, 0.0, 1.0, 75.9, 60.85)">
      <path d="M-1.1 -2.05 L-1.1 -1.95 -1.35 1.95 -1.6 5.15 -2.0 5.05 Q-3.5 3.45 -5.65 3.55 L-6.7 3.65 -6.75 3.25 -1.1 -2.05 M-23.75 6.35 L-24.9 6.65 -26.8 7.9 Q-27.55 8.8 -27.95 9.85 L-30.45 2.0 -25.5 5.25 -23.75 6.35 M-35.15 27.05 L-34.75 26.8 -34.9 27.25 Q-35.3 28.15 -35.3 29.15 -35.35 30.25 -34.9 31.15 L-34.35 32.25 -43.05 31.35 -38.1 28.65 -35.15 27.05 M-23.2 46.2 L-22.95 46.4 Q-21.5 47.8 -19.65 47.75 L-18.35 47.6 -23.65 53.3 -23.6 49.05 -23.65 46.6 -23.7 46.2 -23.2 46.2 M10.55 26.3 Q10.95 25.3 10.95 24.1 L10.9 23.0 Q10.7 21.85 9.95 20.9 L16.8 22.85 13.1 24.9 10.55 26.3 M4.0 45.05 L4.05 45.35 5.0 49.3 2.8 48.1 0.05 46.45 -1.2 45.8 0.55 45.05 1.75 44.25 Q2.85 43.1 3.15 41.75 L4.0 45.05" fill="#6d0000" fill-rule="evenodd" stroke="none"/>
      <path d="M-1.35 1.95 L-1.1 -1.95 -1.1 -2.05 0.4 -5.75 1.85 1.1 -1.35 1.95 M-1.4 5.65 L2.65 5.1 4.1 11.85 -1.4 5.65 M20.75 22.35 L20.75 22.4 15.4 26.85 13.1 24.9 16.8 22.85 20.75 22.35 M12.8 29.1 L8.2 32.85 10.35 26.8 12.8 29.1 M7.4 53.05 L1.55 51.0 2.8 48.1 5.0 49.3 7.4 53.05 M-1.15 49.95 L-8.1 47.45 -1.35 45.75 -1.2 45.8 0.05 46.45 -1.15 49.95 M-25.0 57.0 L-25.0 57.05 -27.2 49.75 -23.6 49.05 -23.65 53.3 -25.0 57.0 M-28.05 47.3 L-29.95 41.25 -23.7 46.2 -23.65 46.6 -28.05 47.3 M-46.5 31.7 L-40.7 26.55 -38.1 28.65 -43.05 31.35 -46.5 31.7 M-38.05 24.2 L-32.2 18.95 -34.75 26.8 -35.15 27.05 -38.05 24.2 M-33.2 -1.7 L-27.75 0.2 -25.5 5.25 -30.45 2.0 -33.2 -1.7 M-23.55 1.7 L-16.1 4.5 -21.45 5.8 -23.55 1.7" fill="#cccccc" fill-rule="evenodd" stroke="none"/>
      <path d="M-6.7 3.65 L-5.65 3.55 Q-3.5 3.45 -2.0 5.05 L-1.6 5.55 -1.4 5.65 Q-0.65 6.8 -0.5 8.3 L-0.55 8.8 -0.65 9.95 1.55 12.05 Q4.55 15.05 6.05 18.8 L7.3 19.0 Q8.55 19.35 9.5 20.4 L9.95 20.9 Q10.7 21.85 10.9 23.0 L10.95 24.1 Q10.95 25.3 10.55 26.3 L10.2 26.75 9.4 27.75 8.3 28.65 6.9 29.2 Q6.1 34.1 2.7 38.05 L3.15 39.15 3.25 40.55 3.15 41.75 Q2.85 43.1 1.75 44.25 L0.55 45.05 -1.2 45.8 -1.35 45.75 -1.9 45.75 -4.1 45.25 -5.6 44.2 -5.8 44.0 Q-8.8 45.0 -12.25 45.0 L-14.9 44.8 -15.95 46.25 -15.95 46.3 Q-17.0 47.25 -18.3 47.6 L-18.35 47.6 -19.65 47.75 Q-21.5 47.8 -22.95 46.4 L-23.2 46.2 -23.6 45.8 Q-24.7 44.45 -24.75 42.8 L-24.8 42.5 Q-24.8 41.5 -24.4 40.65 L-25.9 39.25 Q-28.15 36.95 -29.5 34.35 L-30.05 34.45 -31.7 34.2 Q-32.85 33.75 -33.85 32.9 L-34.35 32.25 -34.9 31.15 Q-35.35 30.25 -35.3 29.15 -35.3 28.15 -34.9 27.25 L-34.75 26.8 -33.8 25.55 -32.45 24.55 -31.4 24.15 Q-31.05 18.45 -27.6 14.0 L-28.15 12.5 -28.3 11.55 -27.95 9.9 -27.95 9.85 Q-27.55 8.8 -26.8 7.9 L-24.9 6.65 -23.75 6.35 -23.75 6.4 -23.7 6.4 -23.0 6.4 -20.95 6.7 -20.8 6.85 -19.5 7.7 Q-16.05 6.3 -12.05 6.25 L-10.3 6.35 -9.4 5.05 -9.15 4.85 Q-8.05 3.95 -6.7 3.65 M-2.45 10.25 Q-2.1 9.5 -2.15 8.75 -2.1 7.25 -3.1 6.15 L-3.3 5.95 Q-4.4 5.1 -5.7 5.05 -7.15 5.1 -8.35 6.1 -9.1 6.95 -9.25 7.9 L-10.45 7.95 -15.5 8.1 -15.5 8.05 -15.75 7.8 Q-16.25 7.45 -17.9 8.3 L-18.0 8.35 -18.85 8.6 -20.35 9.05 -20.35 9.0 Q-21.5 7.95 -22.95 7.85 -24.45 7.95 -25.55 9.0 -26.65 9.95 -26.65 11.5 -26.6 12.6 -26.1 13.45 L-27.35 15.95 -28.25 18.0 -28.6 18.8 Q-28.6 19.1 -28.75 19.25 L-29.1 20.4 -29.2 20.6 -29.2 20.35 -29.55 20.2 -30.45 22.5 Q-30.8 23.8 -30.3 24.2 L-29.95 24.35 -29.95 25.5 Q-31.45 25.55 -32.6 26.6 -33.4 27.45 -33.65 28.45 L-33.7 29.1 Q-33.65 30.65 -32.65 31.75 -31.45 32.85 -30.1 32.8 L-29.15 32.7 -28.95 32.7 Q-28.2 34.5 -26.2 36.75 L-25.4 37.8 -25.3 37.9 Q-24.55 39.35 -23.85 39.9 -23.55 40.15 -23.3 39.9 L-22.65 40.6 Q-23.2 41.35 -23.2 42.45 -23.2 44.05 -22.15 45.1 -21.35 45.9 -19.65 46.15 -18.15 46.2 -17.05 45.15 -16.2 44.4 -16.0 43.35 L-14.75 43.4 -11.75 43.35 -7.25 42.3 -9.7 43.4 -9.4 43.65 -8.05 43.55 Q-6.95 43.25 -6.45 42.55 L-6.3 42.1 -5.4 41.75 -4.5 43.1 Q-3.35 44.2 -1.95 44.15 -0.45 44.15 0.65 43.1 1.75 42.1 1.7 40.5 1.7 39.05 0.75 37.95 L0.3 37.6 1.8 36.0 3.1 34.25 3.7 33.25 4.05 32.5 4.35 31.8 4.45 31.45 4.8 31.6 5.0 31.35 5.55 30.1 5.55 29.1 5.25 28.85 4.95 29.5 5.0 29.35 5.15 27.65 5.2 27.65 5.75 27.7 Q7.2 27.75 8.3 26.7 L9.1 25.7 Q9.4 25.0 9.35 24.1 9.45 22.55 8.4 21.5 7.25 20.4 5.8 20.35 L4.9 20.5 3.2 16.75 Q1.05 12.85 -1.75 10.65 L-2.45 10.25 M-10.05 11.45 L-10.0 11.55 -9.1 11.75 -8.5 11.95 -8.05 12.05 -7.0 12.7 Q-6.8 12.9 -6.5 12.9 L-5.45 13.55 -4.9 13.95 -5.2 13.9 -5.0 14.1 -2.6 16.1 Q-0.15 18.6 0.85 21.55 L0.95 22.15 1.3 21.45 1.5 21.1 2.0 23.2 2.15 24.0 2.15 24.05 2.25 24.7 Q2.4 26.4 2.15 27.75 L1.45 26.85 1.35 26.75 1.35 26.8 Q0.9 31.5 -2.35 34.9 L-2.65 35.15 -2.8 35.4 -1.9 35.3 -1.9 35.25 -1.75 35.25 Q-3.8 36.95 -7.85 38.25 L-12.2 39.15 -12.4 39.15 -12.5 39.1 -14.55 38.9 Q-15.45 38.7 -16.1 38.2 L-16.95 37.8 -18.05 37.15 -20.05 35.75 -21.65 34.7 -23.55 32.95 -24.5 31.15 -24.9 29.95 -25.05 30.45 -25.4 28.9 -25.8 27.0 -25.95 25.9 -25.55 26.45 -25.6 25.55 -25.55 24.95 Q-25.45 20.4 -22.5 16.95 L-22.25 16.75 -22.7 16.75 -22.75 16.75 -20.85 14.5 -20.45 14.1 -19.75 13.3 Q-18.25 11.75 -17.9 12.0 L-18.25 13.55 Q-15.5 12.1 -12.1 12.15 L-9.75 12.35 -9.4 12.35 -9.75 12.05 -10.05 11.45 M-11.2 17.7 L-10.4 14.5 -12.05 14.3 Q-15.05 14.4 -17.5 15.65 L-16.15 18.25 -17.05 18.65 -18.9 15.55 -19.55 15.45 -19.25 16.35 -18.6 17.3 -18.0 18.55 -17.7 19.1 -18.75 20.1 -19.0 20.55 -21.0 18.6 Q-23.3 21.35 -23.35 25.05 L-21.3 25.2 -21.35 25.5 -21.45 26.05 -21.6 26.5 -22.05 26.55 Q-24.4 26.6 -23.25 27.45 L-21.4 27.5 -20.55 29.1 -20.35 29.3 -22.5 30.25 Q-21.7 32.05 -20.25 33.6 L-18.6 34.9 -17.15 32.2 -16.9 32.3 Q-16.55 32.3 -16.2 32.6 L-14.45 33.05 -14.05 33.2 -13.7 33.45 -14.25 36.65 -12.2 36.9 Q-10.05 36.85 -8.2 36.2 L-9.7 33.25 -9.0 32.95 -8.65 33.8 -7.35 35.6 -7.1 35.75 Q-6.95 35.85 -6.75 35.6 -6.7 35.5 -8.15 32.7 L-6.0 31.2 -3.9 33.3 Q-1.3 30.55 -0.9 26.85 L-3.8 26.85 -3.7 25.6 -3.25 25.65 -0.6 25.45 -0.5 25.2 -0.6 24.95 -1.7 24.9 -2.7 24.9 -3.8 24.75 -4.3 22.95 -1.35 22.15 Q-2.15 19.75 -4.2 17.8 -5.05 16.75 -6.05 16.15 L-7.8 19.35 -8.6 18.8 Q-6.7 15.1 -6.85 15.0 -7.4 14.6 -8.65 17.1 L-9.2 18.4 -10.3 18.0 -11.2 17.7 M-16.15 33.3 Q-15.85 33.1 -16.15 32.9 -16.75 32.5 -17.55 34.05 -18.3 35.6 -18.1 35.8 -17.75 36.05 -17.2 35.35 L-16.65 34.4 -16.15 33.3" fill="url(#gradient0)" fill-rule="evenodd" stroke="none"/>
      <path d="M-1.6 5.15 L-1.35 1.95 1.85 1.1 2.65 5.1 -1.4 5.65 -1.6 5.55 -1.6 5.15 M15.4 26.85 L12.8 29.1 10.35 26.8 10.55 26.3 13.1 24.9 15.4 26.85 M1.55 51.0 L-1.15 49.95 0.05 46.45 2.8 48.1 1.55 51.0 M-27.2 49.75 L-28.05 47.3 -23.65 46.6 -23.6 49.05 -27.2 49.75 M-40.7 26.55 L-38.05 24.2 -35.15 27.05 -38.1 28.65 -40.7 26.55 M-27.75 0.2 L-23.55 1.7 -21.45 5.8 -23.7 6.4 -23.75 6.4 -23.75 6.35 -25.5 5.25 -27.75 0.2" fill="#ffffff" fill-rule="evenodd" stroke="none"/>
      <path d="M-9.25 7.9 Q-9.1 6.95 -8.35 6.1 -7.15 5.1 -5.7 5.05 -4.4 5.1 -3.3 5.95 L-3.1 6.15 Q-2.1 7.25 -2.15 8.75 -2.1 9.5 -2.45 10.25 L-3.2 11.35 Q-4.35 12.4 -5.8 12.3 -7.2 12.4 -8.35 11.3 -9.3 10.2 -9.4 8.65 L-9.25 7.9 M-4.2 7.55 L-4.2 8.9 -4.95 9.9 -4.55 10.3 -3.85 10.2 -3.25 9.65 -3.2 9.6 Q-3.05 9.15 -3.05 8.4 -3.1 7.7 -3.4 7.4 -3.85 7.1 -4.2 7.55" fill="url(#gradient1)" fill-rule="evenodd" stroke="none"/>
      <path d="M-6.75 3.25 L-6.7 3.65 Q-8.05 3.95 -9.15 4.85 L-14.7 4.45 -6.75 3.25 M7.3 19.0 L5.55 13.45 9.95 20.9 9.5 20.4 Q8.55 19.35 7.3 19.0 M8.2 32.85 L8.3 28.65 9.4 27.75 10.2 26.75 10.55 26.3 10.35 26.8 8.2 32.85 M3.15 39.15 L7.6 36.15 3.15 41.75 3.25 40.55 3.15 39.15 M-8.1 47.45 L-4.1 45.25 -1.9 45.75 -1.35 45.75 -8.1 47.45 M-15.95 46.3 L-9.7 47.3 -18.3 47.6 Q-17.0 47.25 -15.95 46.3 M-29.95 41.25 L-24.75 42.8 Q-24.7 44.45 -23.6 45.8 L-23.7 46.2 -29.95 41.25 M-31.7 34.2 L-30.5 39.6 -34.35 32.25 -33.85 32.9 Q-32.85 33.75 -31.7 34.2 M-32.2 18.95 L-32.45 24.55 -33.8 25.55 -34.75 26.8 -32.2 18.95 M-28.15 12.5 L-31.7 17.05 -27.95 9.9 -28.3 11.55 -28.15 12.5 M-16.1 4.5 L-20.8 6.85 -20.95 6.7 -23.0 6.4 -23.7 6.4 -21.45 5.8 -16.1 4.5 M-0.5 8.3 Q-0.65 6.8 -1.4 5.65 L4.1 11.85 -0.5 8.3" fill="#999999" fill-rule="evenodd" stroke="none"/>
      <path d="M-2.45 10.25 L-1.75 10.65 Q1.05 12.85 3.2 16.75 L4.9 20.5 Q4.0 20.8 3.2 21.45 2.15 22.45 2.15 24.0 L2.0 23.2 1.5 21.1 2.1 20.35 3.1 19.65 Q1.9 16.6 -0.5 14.15 L-2.2 12.65 Q-3.4 13.6 -4.8 13.9 L-4.9 13.95 -5.45 13.55 -6.5 12.9 Q-6.8 12.9 -7.0 12.7 L-8.05 12.05 -8.5 11.95 -9.1 11.75 -10.0 11.55 -10.05 11.45 Q-10.75 10.5 -10.85 9.3 L-12.15 9.3 Q-15.25 9.25 -18.0 10.35 -17.85 10.9 -17.85 11.6 L-17.9 12.0 Q-18.25 11.75 -19.75 13.3 -19.35 12.55 -19.4 11.55 -19.35 10.0 -20.35 9.05 L-18.85 8.6 -18.0 8.35 Q-19.45 9.25 -18.8 9.75 -19.0 9.6 -17.4 9.0 L-15.7 8.4 -15.5 8.1 -10.45 7.95 -9.25 7.9 -9.4 8.65 Q-9.3 10.2 -8.35 11.3 -7.2 12.4 -5.8 12.3 -4.35 12.4 -3.2 11.35 L-2.45 10.25 M5.2 27.65 L5.15 27.65 5.0 29.35 4.95 29.5 4.6 30.3 Q4.25 31.2 4.45 31.45 L4.35 31.8 4.05 32.5 3.7 33.25 3.1 34.25 1.8 36.0 0.3 37.6 Q-0.65 36.9 -1.9 36.85 -3.3 36.9 -4.5 37.95 -5.55 38.95 -5.6 40.45 L-5.4 41.75 -6.3 42.1 -6.5 42.05 -7.25 42.3 -11.75 43.35 -14.75 43.4 -16.0 43.35 -16.0 42.55 Q-15.9 41.0 -16.95 39.95 -18.1 38.9 -19.6 38.85 -20.95 38.9 -22.15 39.95 L-22.65 40.6 -23.3 39.9 -23.25 39.85 -23.2 39.65 -23.3 39.35 -24.3 38.2 -25.15 37.2 Q-26.05 36.45 -25.4 37.8 L-26.2 36.75 Q-28.2 34.5 -28.95 32.7 -28.15 32.45 -27.5 31.75 -26.35 30.7 -26.45 29.15 -26.35 27.7 -27.35 26.65 -28.45 25.6 -29.95 25.5 L-29.95 24.35 -29.8 24.1 -29.2 20.6 -29.1 20.4 -28.75 19.25 Q-28.6 19.1 -28.6 18.8 L-28.25 18.0 -27.35 15.95 -26.1 13.45 -25.6 14.15 Q-24.45 15.2 -23.0 15.15 -21.8 15.15 -20.85 14.5 L-22.75 16.75 -22.85 16.8 -23.05 16.75 Q-24.45 16.8 -25.5 16.15 -28.1 19.7 -28.4 24.15 L-27.2 24.75 -26.35 25.5 -25.95 25.9 -25.8 27.0 -25.4 28.9 -25.05 30.45 -25.1 30.6 -25.5 31.6 -25.6 31.9 -26.5 32.9 -26.75 33.15 Q-25.6 35.3 -23.8 37.2 L-22.6 38.25 Q-21.4 37.4 -20.0 37.3 L-19.55 37.25 -19.1 37.3 -19.75 36.85 -21.8 35.15 -23.55 32.95 -21.65 34.7 -20.05 35.75 -18.05 37.15 -16.95 37.8 -16.1 38.2 Q-15.45 38.7 -14.55 38.9 L-14.7 39.0 -16.15 38.55 -15.85 38.85 -14.95 40.1 Q-14.55 40.95 -14.4 41.95 L-12.2 42.0 Q-9.5 42.05 -7.05 41.25 L-7.15 40.5 -6.85 38.95 -6.4 37.9 -7.2 38.25 Q-9.55 39.2 -12.2 39.15 L-7.85 38.25 Q-3.8 36.95 -1.75 35.25 -0.5 35.3 0.55 35.9 3.15 32.8 3.95 28.95 2.9 28.55 2.15 27.75 2.4 26.4 2.25 24.7 2.45 25.75 3.2 26.6 4.1 27.45 5.2 27.65 M-1.25 11.25 L-2.0 11.2 Q-2.0 11.65 -0.95 12.6 L0.4 13.9 0.75 13.7 Q0.95 13.5 -1.25 11.25" fill="#ad0000" fill-rule="evenodd" stroke="none"/>
      <path d="M4.95 29.5 L5.25 28.85 5.55 29.1 5.55 30.1 5.0 31.35 4.8 31.6 4.45 31.45 Q4.25 31.2 4.6 30.3 L4.95 29.5 M-6.3 42.1 L-6.45 42.55 Q-6.95 43.25 -8.05 43.55 L-9.4 43.65 -9.7 43.4 -7.25 42.3 -6.5 42.05 -6.3 42.1 M-29.95 24.35 L-30.3 24.2 Q-30.8 23.8 -30.45 22.5 L-29.55 20.2 -29.2 20.35 -29.2 20.6 -29.8 24.1 -29.95 24.35 M-18.0 8.35 L-17.9 8.3 Q-16.25 7.45 -15.75 7.8 L-15.5 8.05 -15.5 8.1 -15.7 8.4 -17.4 9.0 Q-19.0 9.6 -18.8 9.75 -19.45 9.25 -18.0 8.35 M-4.2 7.55 Q-3.85 7.1 -3.4 7.4 -3.1 7.7 -3.05 8.4 -3.05 9.15 -3.2 9.6 L-3.25 9.65 -3.85 10.2 -4.55 10.3 -4.95 9.9 -4.2 8.9 -4.2 7.55 M-1.25 11.25 Q0.95 13.5 0.75 13.7 L0.4 13.9 -0.95 12.6 Q-2.0 11.65 -2.0 11.2 L-1.25 11.25 M-9.2 18.4 L-8.65 17.1 Q-7.4 14.6 -6.85 15.0 -6.7 15.1 -8.6 18.8 L-9.1 19.6 Q-9.4 20.05 -9.65 19.8 L-9.2 18.4 M-3.8 24.75 L-2.7 24.9 -1.7 24.9 -0.6 24.95 -0.5 25.2 -0.6 25.45 -3.25 25.65 -3.7 25.6 -5.45 25.45 Q-6.3 24.8 -4.5 24.8 L-3.8 24.75 M-8.15 32.7 Q-6.7 35.5 -6.75 35.6 -6.95 35.85 -7.1 35.75 L-7.35 35.6 -8.65 33.8 -9.0 32.95 Q-9.45 31.95 -9.1 31.55 L-8.7 31.75 -8.15 32.7 M-21.4 27.5 L-23.25 27.45 Q-24.4 26.6 -22.05 26.55 L-21.6 26.5 -19.5 26.65 -19.3 26.85 -19.5 27.2 -21.4 27.5 M-17.7 19.1 L-18.0 18.55 -18.6 17.3 -19.25 16.35 -19.55 15.45 -18.9 15.55 -17.05 18.65 Q-16.85 19.25 -17.0 19.3 -17.2 19.65 -17.55 19.4 L-17.7 19.1 M-23.45 10.65 L-24.3 10.6 -24.25 9.95 Q-24.05 9.75 -23.3 9.45 -22.65 9.2 -22.2 9.6 L-21.9 9.9 -21.5 10.35 -21.5 10.5 -21.55 10.6 -21.5 10.65 Q-21.5 11.4 -22.2 10.9 -22.65 10.6 -23.0 10.65 L-23.45 10.65 M-29.8 26.45 L-29.5 26.55 -29.25 26.75 Q-29.25 27.25 -29.75 27.55 L-29.85 27.55 Q-31.7 28.5 -31.7 28.7 L-32.2 28.45 Q-32.55 28.1 -32.3 27.45 -31.95 26.8 -31.05 26.55 L-29.8 26.45 M-21.7 42.5 L-21.15 43.2 -20.2 44.15 Q-19.45 44.65 -19.7 45.0 L-20.75 45.15 -21.25 44.75 -21.95 44.0 -22.25 43.0 -21.95 42.45 Q-22.0 42.2 -21.7 42.5 M-16.15 33.3 L-16.65 34.4 -17.2 35.35 Q-17.75 36.05 -18.1 35.8 -18.3 35.6 -17.55 34.05 -16.75 32.5 -16.15 32.9 -15.85 33.1 -16.15 33.3 M-3.0 42.3 Q-3.2 41.95 -3.0 41.85 L-2.15 41.75 -1.25 41.4 -0.65 41.05 Q-0.35 40.95 -0.25 41.2 L-0.2 41.55 -0.5 42.1 Q-0.8 42.65 -1.55 42.85 -2.35 43.1 -2.7 42.85 L-3.0 42.3 M7.75 24.85 Q8.05 25.1 7.9 25.6 L6.8 26.45 5.4 26.35 5.35 26.3 Q4.75 25.75 5.2 25.2 L5.55 25.15 5.65 25.2 5.85 25.25 6.45 25.3 Q7.0 25.25 7.25 24.9 L7.75 24.85" fill="#ff5d5d" fill-rule="evenodd" stroke="none"/>
      <path d="M-11.2 17.7 L-10.3 18.0 -9.2 18.4 -9.65 19.8 Q-9.4 20.05 -9.1 19.6 L-8.6 18.8 -7.8 19.35 -8.4 20.55 -7.9 21.05 Q-6.9 22.05 -6.4 23.25 L-6.35 23.55 -4.3 22.95 -3.8 24.75 -4.5 24.8 Q-6.3 24.8 -5.45 25.45 L-3.7 25.6 -3.8 26.85 -6.0 26.8 -6.05 27.0 Q-6.3 28.65 -7.25 29.95 L-6.0 31.2 -8.15 32.7 -8.7 31.75 -9.1 31.55 Q-9.45 31.95 -9.0 32.95 L-9.7 33.25 -10.2 32.2 -10.5 32.3 -10.95 32.35 -11.25 32.4 -12.75 32.55 -13.45 32.5 -13.7 33.45 -14.05 33.2 -14.45 33.05 -16.2 32.6 Q-16.55 32.3 -16.9 32.3 L-17.15 32.2 -16.65 31.25 -17.6 30.5 -17.7 30.4 -18.75 28.8 -18.85 28.6 -20.35 29.3 -20.55 29.1 -21.4 27.5 -19.5 27.2 -19.3 26.85 -19.5 26.65 -21.6 26.5 -21.45 26.05 -21.35 25.5 -21.3 25.2 -19.45 25.4 Q-19.3 23.3 -18.2 21.8 L-18.0 21.6 -19.0 20.55 -18.75 20.1 -17.7 19.1 -17.55 19.4 Q-17.2 19.65 -17.0 19.3 -16.85 19.25 -17.05 18.65 L-16.15 18.25 -15.45 19.6 -12.9 19.05 -12.75 19.0 -11.55 19.15 -11.2 17.7 M-15.4 20.8 L-15.7 21.0 -16.65 21.75 -17.2 22.35 Q-18.25 23.65 -18.35 25.4 L-18.35 25.7 Q-18.4 27.05 -17.8 28.2 L-16.7 29.75 -16.0 30.35 Q-14.85 31.25 -13.25 31.35 L-12.75 31.45 -10.7 31.15 Q-10.15 30.95 -9.55 30.55 L-8.65 29.9 -8.05 29.2 Q-7.35 28.05 -7.1 26.75 L-7.0 25.9 -7.3 23.85 Q-7.75 22.7 -8.65 21.8 L-8.95 21.5 Q-10.2 20.4 -11.8 20.15 L-12.7 20.1 -14.55 20.5 -14.9 20.55 -15.4 20.8" fill="#950000" fill-rule="evenodd" stroke="none"/>
      <path d="M-9.55 30.55 Q-10.15 30.95 -10.7 31.15 L-12.75 31.45 -13.25 31.35 Q-14.85 31.25 -16.0 30.35 L-16.7 29.75 -17.8 28.2 Q-18.4 27.05 -18.35 25.7 L-18.35 25.4 Q-18.25 23.65 -17.2 22.35 L-16.65 21.75 -15.7 21.0 -15.4 20.8 -12.7 20.85 -11.9 21.1 -10.5 21.9 Q-8.65 23.4 -8.45 26.1 -8.35 28.45 -9.55 30.55 M-17.25 24.45 L-17.05 24.15 -16.85 23.95 Q-16.7 23.9 -16.9 23.75 L-17.2 23.85 -17.4 24.2 -17.55 24.6 Q-18.05 25.1 -17.9 26.1 -17.8 26.9 -17.5 27.1 L-17.3 27.25 -17.45 26.4 -17.5 25.4 -17.25 24.45 M-12.75 23.1 L-13.4 23.25 Q-14.05 23.4 -14.5 23.9 L-14.55 23.9 Q-15.3 24.65 -15.35 25.75 -15.35 26.9 -14.6 27.5 -13.8 28.35 -12.7 28.35 L-11.55 28.2 -10.85 27.7 Q-10.05 26.9 -10.0 25.75 -10.05 24.7 -10.8 23.95 -11.55 23.1 -12.75 23.1" fill="url(#gradient2)" fill-rule="evenodd" stroke="none"/>
      <path d="M-17.25 24.45 L-17.5 25.4 -17.45 26.4 -17.3 27.25 -17.5 27.1 Q-17.8 26.9 -17.9 26.1 -18.05 25.1 -17.55 24.6 L-17.4 24.2 -17.2 23.85 -16.9 23.75 Q-16.7 23.9 -16.85 23.95 L-17.05 24.15 -17.25 24.45 M-11.85 27.3 L-12.05 27.4 -13.0 27.5 -14.15 24.85 -13.15 24.05 -11.85 27.3" fill="#e0e0e0" fill-rule="evenodd" stroke="none"/>
      <path d="M-15.4 20.8 L-14.9 20.55 -14.55 20.5 -12.7 20.1 -11.8 20.15 Q-10.2 20.4 -8.95 21.5 L-8.65 21.8 Q-7.75 22.7 -7.3 23.85 L-7.0 25.9 -7.1 26.75 Q-7.35 28.05 -8.05 29.2 L-8.65 29.9 -9.55 30.55 Q-8.35 28.45 -8.45 26.1 -8.65 23.4 -10.5 21.9 L-11.9 21.1 -12.7 20.85 -15.4 20.8" fill="#383838" fill-rule="evenodd" stroke="none"/>
      <path d="M-12.75 23.1 Q-11.55 23.1 -10.8 23.95 -10.05 24.7 -10.0 25.75 -10.05 26.9 -10.85 27.7 L-11.55 28.2 -12.7 28.35 Q-13.8 28.35 -14.6 27.5 -15.35 26.9 -15.35 25.75 -15.3 24.65 -14.55 23.9 L-14.5 23.9 Q-14.05 23.4 -13.4 23.25 L-12.75 23.1 M-11.85 27.3 L-13.15 24.05 -14.15 24.85 -13.0 27.5 -12.05 27.4 -11.85 27.3" fill="url(#gradient3)" fill-rule="evenodd" stroke="none"/>
      <path d="M-1.1 -2.05 L-6.75 3.25 -14.7 4.45 0.4 -5.75 -1.1 -2.05 M5.55 13.45 L20.75 22.35 16.8 22.85 9.95 20.9 5.55 13.45 M7.6 36.15 L7.45 53.15 7.4 53.05 5.0 49.3 4.05 45.35 4.0 45.05 3.15 41.75 7.6 36.15 M-9.7 47.3 L-25.0 57.0 -23.65 53.3 -18.35 47.6 -18.3 47.6 -9.7 47.3 M-30.5 39.6 L-46.5 31.7 -43.05 31.35 -34.35 32.25 -30.5 39.6 M-31.7 17.05 L-33.2 -1.7 -30.45 2.0 -27.95 9.85 -27.95 9.9 -31.7 17.05" fill="#4a4a4a" fill-rule="evenodd" stroke="none"/>
      <path d="M-26.1 13.45 Q-26.6 12.6 -26.65 11.5 -26.65 9.95 -25.55 9.0 -24.45 7.95 -22.95 7.85 -21.5 7.95 -20.35 9.0 L-20.35 9.05 Q-19.35 10.0 -19.4 11.55 -19.35 12.55 -19.75 13.3 L-20.45 14.1 -20.85 14.5 Q-21.8 15.15 -23.0 15.15 -24.45 15.2 -25.6 14.15 L-26.1 13.45 M-23.45 10.65 L-23.0 10.65 Q-22.65 10.6 -22.2 10.9 -21.5 11.4 -21.5 10.65 L-21.55 10.6 -21.5 10.5 -21.5 10.35 -21.9 9.9 -22.2 9.6 Q-22.65 9.2 -23.3 9.45 -24.05 9.75 -24.25 9.95 L-24.3 10.6 -23.45 10.65" fill="url(#gradient4)" fill-rule="evenodd" stroke="none"/>
      <path d="M-28.95 32.7 L-29.15 32.7 -30.1 32.8 Q-31.45 32.85 -32.65 31.75 -33.65 30.65 -33.7 29.1 L-33.65 28.45 Q-33.4 27.45 -32.6 26.6 -31.45 25.55 -29.95 25.5 -28.45 25.6 -27.35 26.65 -26.35 27.7 -26.45 29.15 -26.35 30.7 -27.5 31.75 -28.15 32.45 -28.95 32.7 M-29.8 26.45 L-31.05 26.55 Q-31.95 26.8 -32.3 27.45 -32.55 28.1 -32.2 28.45 L-31.7 28.7 Q-31.7 28.5 -29.85 27.55 L-29.75 27.55 Q-29.25 27.25 -29.25 26.75 L-29.5 26.55 -29.8 26.45" fill="url(#gradient5)" fill-rule="evenodd" stroke="none"/>
      <path d="M-23.3 39.9 Q-23.55 40.15 -23.85 39.9 -24.55 39.35 -25.3 37.9 L-25.4 37.8 Q-26.05 36.45 -25.15 37.2 L-24.3 38.2 -23.3 39.35 -23.2 39.65 -23.25 39.85 -23.3 39.9" fill="#ffaaaa" fill-rule="evenodd" stroke="none"/>
      <path d="M-16.0 43.35 Q-16.2 44.4 -17.05 45.15 -18.15 46.2 -19.65 46.15 -21.35 45.9 -22.15 45.1 -23.2 44.05 -23.2 42.45 -23.2 41.35 -22.65 40.6 L-22.15 39.95 Q-20.95 38.9 -19.6 38.85 -18.1 38.9 -16.95 39.95 -15.9 41.0 -16.0 42.55 L-16.0 43.35 M-21.7 42.5 Q-22.0 42.2 -21.95 42.45 L-22.25 43.0 -21.95 44.0 -21.25 44.75 -20.75 45.15 -19.7 45.0 Q-19.45 44.65 -20.2 44.15 L-21.15 43.2 -21.7 42.5" fill="url(#gradient6)" fill-rule="evenodd" stroke="none"/>
      <path d="M0.3 37.6 L0.75 37.95 Q1.7 39.05 1.7 40.5 1.75 42.1 0.65 43.1 -0.45 44.15 -1.95 44.15 -3.35 44.2 -4.5 43.1 L-5.4 41.75 -5.6 40.45 Q-5.55 38.95 -4.5 37.95 -3.3 36.9 -1.9 36.85 -0.65 36.9 0.3 37.6 M-3.0 42.3 L-2.7 42.85 Q-2.35 43.1 -1.55 42.85 -0.8 42.65 -0.5 42.1 L-0.2 41.55 -0.25 41.2 Q-0.35 40.95 -0.65 41.05 L-1.25 41.4 -2.15 41.75 -3.0 41.85 Q-3.2 41.95 -3.0 42.3" fill="url(#gradient7)" fill-rule="evenodd" stroke="none"/>
      <path d="M4.9 20.5 L5.8 20.35 Q7.25 20.4 8.4 21.5 9.45 22.55 9.35 24.1 9.4 25.0 9.1 25.7 L8.3 26.7 Q7.2 27.75 5.75 27.7 L5.2 27.65 Q4.1 27.45 3.2 26.6 2.45 25.75 2.25 24.7 L2.15 24.05 2.15 24.0 Q2.15 22.45 3.2 21.45 4.0 20.8 4.9 20.5 M7.75 24.85 L7.25 24.9 Q7.0 25.25 6.45 25.3 L5.85 25.25 5.65 25.2 5.55 25.15 5.2 25.2 Q4.75 25.75 5.35 26.3 L5.4 26.35 6.8 26.45 7.9 25.6 Q8.05 25.1 7.75 24.85" fill="url(#gradient8)" fill-rule="evenodd" stroke="none"/>
      <path d="M-1.35 1.95 L-1.1 -1.95 -1.1 -2.05 -6.75 3.25 -14.7 4.45 0.4 -5.75 -1.1 -2.05 M-6.7 3.65 L-5.65 3.55 Q-3.5 3.45 -2.0 5.05 L-1.6 5.55 -1.6 5.15 -1.35 1.95 M1.85 1.1 L0.4 -5.75 M-1.6 5.55 L-1.4 5.65 Q-0.65 6.8 -0.5 8.3 L4.1 11.85 -1.4 5.65 M2.65 5.1 L1.85 1.1 M-9.15 4.85 Q-8.05 3.95 -6.7 3.65 M-20.8 6.85 L-19.5 7.7 Q-16.05 6.3 -12.05 6.25 L-10.3 6.35 -9.4 5.05 -9.15 4.85 -14.7 4.45 M-4.9 13.95 L-4.8 13.9 Q-3.4 13.6 -2.2 12.65 L-0.5 14.15 Q1.9 16.6 3.1 19.65 L2.1 20.35 1.5 21.1 1.3 21.45 0.85 21.55 0.95 22.15 1.3 21.45 M-9.75 12.35 L-9.4 12.35 -9.75 12.05 -9.75 12.35 -12.1 12.15 Q-15.5 12.1 -18.25 13.55 L-17.9 12.0 -17.85 11.6 Q-17.85 10.9 -18.0 10.35 -15.25 9.25 -12.15 9.3 L-10.85 9.3 Q-10.75 10.5 -10.05 11.45 L-9.75 12.05 M-22.75 16.75 L-22.7 16.75 -22.25 16.75 -22.5 16.95 Q-25.45 20.4 -25.55 24.95 L-25.6 25.55 -25.55 26.45 -25.95 25.9 -26.35 25.5 -27.2 24.75 -28.4 24.15 Q-28.1 19.7 -25.5 16.15 -24.45 16.8 -23.05 16.75 L-22.85 16.8 -22.75 16.75 M-25.05 30.45 L-24.9 29.95 -24.5 31.15 -23.55 32.95 -21.8 35.15 -19.75 36.85 -19.1 37.3 -19.55 37.25 -20.0 37.3 Q-21.4 37.4 -22.6 38.25 L-23.8 37.2 Q-25.6 35.3 -26.75 33.15 L-26.5 32.9 -25.6 31.9 -25.5 31.6 -25.1 30.6 M-12.5 39.1 L-12.4 39.15 -12.2 39.15 Q-9.55 39.2 -7.2 38.25 L-6.4 37.9 -6.85 38.95 -7.15 40.5 -7.05 41.25 Q-9.5 42.05 -12.2 42.0 L-14.4 41.95 Q-14.55 40.95 -14.95 40.1 L-15.85 38.85 -16.15 38.55 -14.7 39.0 -14.55 38.9 M-1.75 35.25 L-1.9 35.25 -1.9 35.3 -2.8 35.4 -2.65 35.15 -2.35 34.9 Q0.9 31.5 1.35 26.8 L1.35 26.75 1.45 26.85 2.15 27.75 Q2.9 28.55 3.95 28.95 3.15 32.8 0.55 35.9 -0.5 35.3 -1.75 35.25 M-0.5 8.3 L-0.55 8.8 -0.65 9.95 1.55 12.05 Q4.55 15.05 6.05 18.8 L7.3 19.0 5.55 13.45 20.75 22.35 20.75 22.4 15.4 26.85 12.8 29.1 8.2 32.85 8.3 28.65 6.9 29.2 Q6.1 34.1 2.7 38.05 L3.15 39.15 7.6 36.15 7.45 53.15 7.4 53.05 1.55 51.0 -1.15 49.95 -8.1 47.45 -4.1 45.25 -5.6 44.2 -5.8 44.0 Q-8.8 45.0 -12.25 45.0 L-14.9 44.8 -15.95 46.25 -15.95 46.3 -9.7 47.3 -25.0 57.0 -25.0 57.05 -27.2 49.75 -28.05 47.3 -29.95 41.25 -24.75 42.8 -24.8 42.5 Q-24.8 41.5 -24.4 40.65 L-25.9 39.25 Q-28.15 36.95 -29.5 34.35 L-30.05 34.45 -31.7 34.2 -30.5 39.6 -46.5 31.7 -40.7 26.55 -38.05 24.2 -32.2 18.95 -32.45 24.55 -31.4 24.15 Q-31.05 18.45 -27.6 14.0 L-28.15 12.5 -31.7 17.05 -33.2 -1.7 -27.75 0.2 -23.55 1.7 -16.1 4.5 -20.8 6.85 -20.95 6.7 -23.0 6.4 -23.7 6.4 -23.75 6.4 -23.75 6.35 -24.9 6.65 -26.8 7.9 Q-27.55 8.8 -27.95 9.85 L-27.95 9.9 -28.3 11.55 -28.15 12.5 M-16.15 18.25 L-17.5 15.65 Q-15.05 14.4 -12.05 14.3 L-10.4 14.5 -11.2 17.7 -11.55 19.15 -12.75 19.0 -12.9 19.05 -15.45 19.6 -16.15 18.25 M-7.8 19.35 L-6.05 16.15 Q-5.05 16.75 -4.2 17.8 -2.15 19.75 -1.35 22.15 L-4.3 22.95 -6.35 23.55 -6.4 23.25 Q-6.9 22.05 -7.9 21.05 L-8.4 20.55 -7.8 19.35 M-3.8 26.85 L-0.9 26.85 Q-1.3 30.55 -3.9 33.3 L-6.0 31.2 -7.25 29.95 Q-6.3 28.65 -6.05 27.0 L-6.0 26.8 -3.8 26.85 M-9.7 33.25 L-8.2 36.2 Q-10.05 36.85 -12.2 36.9 L-14.25 36.65 -13.7 33.45 -13.45 32.5 -12.75 32.55 -11.25 32.4 M-17.15 32.2 L-18.6 34.9 -20.25 33.6 Q-21.7 32.05 -22.5 30.25 L-20.35 29.3 -18.85 28.6 -18.75 28.8 -17.7 30.4 -17.6 30.5 -16.65 31.25 -17.15 32.2 M-21.3 25.2 L-23.35 25.05 Q-23.3 21.35 -21.0 18.6 L-19.0 20.55 -18.0 21.6 -18.2 21.8 Q-19.3 23.3 -19.45 25.4 L-21.3 25.2 M-5.0 14.1 L-4.8 13.9 M-5.0 14.1 L-2.6 16.1 Q-0.15 18.6 0.85 21.55 M-4.9 13.95 L-5.2 13.9 -5.0 14.1 M-23.75 6.35 L-25.5 5.25 -30.45 2.0 -27.95 9.85 M-23.7 6.4 L-21.45 5.8 -16.1 4.5 M-22.7 16.75 L-22.5 16.95 M-27.95 9.9 L-31.7 17.05 M-34.75 26.8 L-33.8 25.55 -32.45 24.55 M-34.75 26.8 L-35.15 27.05 -38.1 28.65 -43.05 31.35 -34.35 32.25 -34.9 31.15 Q-35.35 30.25 -35.3 29.15 -35.3 28.15 -34.9 27.25 L-34.75 26.8 -32.2 18.95 M-31.7 34.2 Q-32.85 33.75 -33.85 32.9 L-34.35 32.25 -30.5 39.6 M-18.35 47.6 L-19.65 47.75 Q-21.5 47.8 -22.95 46.4 L-23.2 46.2 -23.6 45.8 -23.7 46.2 -29.95 41.25 M-23.7 46.2 L-23.65 46.6 -23.6 49.05 -23.65 53.3 -18.35 47.6 -18.3 47.6 Q-17.0 47.25 -15.95 46.3 M-23.6 45.8 Q-24.7 44.45 -24.75 42.8 M-2.35 34.9 L-1.9 35.3 M-9.7 33.25 L-10.2 32.2 -10.5 32.3 -10.95 32.35 M-6.85 38.95 L-7.2 38.25 M-1.35 45.75 L-1.9 45.75 -4.1 45.25 M-1.2 45.8 L-1.35 45.75 -8.1 47.45 M-20.0 37.3 L-19.75 36.85 M-18.3 47.6 L-9.7 47.3 M-46.5 31.7 L-43.05 31.35 M-23.65 53.3 L-25.0 57.0 M2.65 5.1 L4.1 11.85 M7.3 19.0 Q8.55 19.35 9.5 20.4 L9.95 20.9 5.55 13.45 M9.95 20.9 Q10.7 21.85 10.9 23.0 L10.95 24.1 Q10.95 25.3 10.55 26.3 L13.1 24.9 16.8 22.85 9.95 20.9 M10.55 26.3 L10.35 26.8 8.2 32.85 M10.55 26.3 L10.2 26.75 9.4 27.75 8.3 28.65 M1.45 26.85 L1.35 26.8 M3.15 39.15 L3.25 40.55 3.15 41.75 7.6 36.15 M4.0 45.05 L3.15 41.75 Q2.85 43.1 1.75 44.25 L0.55 45.05 -1.2 45.8 0.05 46.45 2.8 48.1 5.0 49.3 4.05 45.35 M16.8 22.85 L20.75 22.35 M5.0 49.3 L7.4 53.05 M-30.45 2.0 L-33.2 -1.7" fill="none" stroke="#000000" stroke-linecap="round" stroke-linejoin="round" stroke-opacity="0.5019608" stroke-width="1.0"/>
      <path d="M-9.25 7.9 Q-9.1 6.95 -8.35 6.1 -7.15 5.1 -5.7 5.05 -4.4 5.1 -3.3 5.95 L-3.1 6.15 Q-2.1 7.25 -2.15 8.75 -2.1 9.5 -2.45 10.25 L-3.2 11.35 Q-4.35 12.4 -5.8 12.3 -7.2 12.4 -8.35 11.3 -9.3 10.2 -9.4 8.65 L-9.25 7.9 M4.9 20.5 L5.8 20.35 Q7.25 20.4 8.4 21.5 9.45 22.55 9.35 24.1 9.4 25.0 9.1 25.7 L8.3 26.7 Q7.2 27.75 5.75 27.7 L5.2 27.65 Q4.1 27.45 3.2 26.6 2.45 25.75 2.25 24.7 M0.3 37.6 L0.75 37.95 Q1.7 39.05 1.7 40.5 1.75 42.1 0.65 43.1 -0.45 44.15 -1.95 44.15 -3.35 44.2 -4.5 43.1 L-5.4 41.75 -5.6 40.45 Q-5.55 38.95 -4.5 37.95 -3.3 36.9 -1.9 36.85 -0.65 36.9 0.3 37.6 M-16.0 43.35 Q-16.2 44.4 -17.05 45.15 -18.15 46.2 -19.65 46.15 -21.35 45.9 -22.15 45.1 -23.2 44.05 -23.2 42.45 -23.2 41.35 -22.65 40.6 L-22.15 39.95 Q-20.95 38.9 -19.6 38.85 -18.1 38.9 -16.95 39.95 -15.9 41.0 -16.0 42.55 L-16.0 43.35 M-28.95 32.7 L-29.15 32.7 -30.1 32.8 Q-31.45 32.85 -32.65 31.75 -33.65 30.65 -33.7 29.1 L-33.65 28.45 Q-33.4 27.45 -32.6 26.6 -31.45 25.55 -29.95 25.5 -28.45 25.6 -27.35 26.65 -26.35 27.7 -26.45 29.15 -26.35 30.7 -27.5 31.75 -28.15 32.45 -28.95 32.7 M-26.1 13.45 Q-26.6 12.6 -26.65 11.5 -26.65 9.95 -25.55 9.0 -24.45 7.95 -22.95 7.85 -21.5 7.95 -20.35 9.0 L-20.35 9.05 Q-19.35 10.0 -19.4 11.55 -19.35 12.55 -19.75 13.3 L-20.45 14.1 -20.85 14.5 Q-21.8 15.15 -23.0 15.15 -24.45 15.2 -25.6 14.15 L-26.1 13.45 M2.15 24.0 Q2.15 22.45 3.2 21.45 4.0 20.8 4.9 20.5 M-9.55 30.55 Q-10.15 30.95 -10.7 31.15 L-12.75 31.45 -13.25 31.35 Q-14.85 31.25 -16.0 30.35 L-16.7 29.75 -17.8 28.2 Q-18.4 27.05 -18.35 25.7 L-18.35 25.4 Q-18.25 23.65 -17.2 22.35 L-16.65 21.75 -15.7 21.0 -15.4 20.8 -14.9 20.55 -14.55 20.5 -12.7 20.1 -11.8 20.15 Q-10.2 20.4 -8.95 21.5 L-8.65 21.8 Q-7.75 22.7 -7.3 23.85 L-7.0 25.9 -7.1 26.75 Q-7.35 28.05 -8.05 29.2 L-8.65 29.9 -9.55 30.55 M-12.75 23.1 Q-11.55 23.1 -10.8 23.95 -10.05 24.7 -10.0 25.75 -10.05 26.9 -10.85 27.7 L-11.55 28.2 -12.7 28.35 Q-13.8 28.35 -14.6 27.5 -15.35 26.9 -15.35 25.75 -15.3 24.65 -14.55 23.9 L-14.5 23.9 Q-14.05 23.4 -13.4 23.25 L-12.75 23.1" fill="none" stroke="#000000" stroke-linecap="round" stroke-linejoin="round" stroke-opacity="0.5019608" stroke-width="0.75"/>
      <path d="M0.2 10.05 L0.15 10.2 -1.5 13.7 -2.85 16.55 -3.3 16.4 Q-4.1 14.35 -6.1 13.55 L-7.15 13.3 -7.05 12.95 0.2 10.05 M3.4 40.35 L0.5 40.7 1.75 38.85 2.1 37.85 Q2.35 36.65 2.0 35.5 L7.6 39.85 3.4 40.35 M-29.15 11.2 L-28.55 3.0 -25.15 7.85 -24.0 9.55 -25.05 9.4 -27.35 9.8 Q-28.4 10.35 -29.15 11.2 M-41.7 24.45 L-42.05 24.75 -43.15 26.4 Q-43.55 27.4 -43.5 28.4 L-43.35 29.65 -51.15 25.55 -45.5 24.9 -42.2 24.45 -41.7 24.45 M-38.25 46.65 L-38.05 47.0 Q-37.2 48.8 -35.45 49.5 L-34.15 49.8 -34.2 49.85 -41.2 53.1 -39.65 49.2 -38.75 46.95 -38.6 46.55 -38.25 46.65 M-17.6 54.45 L-15.75 54.45 -14.3 54.1 Q-12.9 53.55 -12.1 52.35 L-12.5 55.75 -12.6 56.0 -13.2 60.1 -14.75 58.1 -16.7 55.6 -17.6 54.45" fill="#6d0000" fill-rule="evenodd" stroke="none"/>
      <path d="M-1.5 13.7 L0.15 10.2 0.2 10.05 3.0 7.25 1.75 14.05 -1.5 13.7 M3.4 40.35 L7.6 39.85 11.4 40.85 11.45 40.85 4.85 43.05 3.4 40.35 M0.15 41.15 L1.55 44.15 -4.1 45.95 0.15 41.15 M-28.55 3.0 L-29.75 -1.5 -25.4 2.3 -25.15 7.85 -28.55 3.0 M-17.7 54.4 L-17.6 54.45 -16.7 55.6 -19.15 58.4 -24.6 53.45 -17.7 54.4 M-21.6 9.9 L-22.1 5.3 -16.15 10.6 -21.6 9.9 M-36.45 18.05 L-41.7 24.45 -42.2 24.45 -43.9 20.75 -36.45 18.05 M-45.5 24.9 L-51.15 25.55 -54.5 24.55 -47.15 21.95 -45.5 24.9 M-39.65 49.2 L-41.2 53.1 -43.85 56.05 -43.9 56.1 -43.3 48.55 -39.65 49.2 M-38.6 46.55 L-38.75 46.95 -43.1 45.95 -42.6 39.65 -38.6 46.55 M-0.15 25.0 L-3.0 17.15 1.1 18.15 -0.15 25.0 M-14.75 58.1 L-13.2 60.1 -12.35 64.45 -17.0 60.3 -14.75 58.1" fill="#cccccc" fill-rule="evenodd" stroke="none"/>
      <path d="M0.2 10.05 L-7.05 12.95 -14.9 11.1 3.0 7.25 0.2 10.05 M2.0 35.5 L0.6 26.95 11.4 40.85 7.6 39.85 2.0 35.5 M-29.15 11.2 L-29.2 11.3 -35.3 16.5 -29.75 -1.5 -28.55 3.0 -29.15 11.2 M-51.15 25.55 L-43.35 29.65 -42.55 37.9 -54.5 24.55 -51.15 25.55 M-41.2 53.1 L-34.2 49.85 -26.05 52.7 -43.85 56.05 -41.2 53.1 M-13.2 60.1 L-12.6 56.0 -12.5 55.75 -12.1 52.35 -5.9 48.8 -12.3 64.55 -12.35 64.45 -13.2 60.1" fill="#4a4a4a" fill-rule="evenodd" stroke="none"/>
      <path d="M-2.85 16.55 L-1.5 13.7 1.75 14.05 1.1 18.15 -3.0 17.15 -3.05 16.95 -2.85 16.55 M0.5 40.7 L3.4 40.35 4.85 43.05 1.55 44.15 0.15 41.15 0.5 40.7 M-24.0 9.55 L-25.15 7.85 -25.4 2.3 -22.1 5.3 -21.6 9.9 -23.9 9.5 -23.95 9.55 -24.0 9.55 M-42.2 24.45 L-45.5 24.9 -47.15 21.95 -43.9 20.75 -42.2 24.45 M-38.75 46.95 L-39.65 49.2 -43.3 48.55 -43.1 45.95 -38.75 46.95 M-16.7 55.6 L-14.75 58.1 -17.0 60.3 -19.15 58.4 -16.7 55.6" fill="#ffffff" fill-rule="evenodd" stroke="none"/>
      <path d="M-7.05 12.95 L-7.15 13.3 -9.8 13.5 -14.9 11.1 -7.05 12.95 M2.0 35.5 L1.7 34.85 Q1.2 33.55 0.15 32.75 L0.6 26.95 2.0 35.5 M-3.05 19.9 Q-2.6 18.5 -3.0 17.15 L-0.15 25.0 -3.05 19.9 M0.5 40.7 L0.15 41.15 -4.1 45.95 -2.45 42.05 -1.1 41.65 0.05 41.0 0.5 40.7 M-35.3 16.5 L-29.2 11.3 -30.05 12.65 -30.35 13.6 -35.3 16.5 M-38.75 23.2 L-40.4 23.6 -41.7 24.45 -36.45 18.05 -38.75 23.2 M-43.35 29.65 L-43.05 30.45 Q-42.55 31.6 -41.65 32.4 L-42.55 37.9 -43.35 29.65 M-38.45 43.05 Q-38.9 44.5 -38.45 46.15 L-38.6 46.55 -42.6 39.65 -38.45 43.05 M-34.15 49.8 Q-32.85 50.0 -31.55 49.45 L-26.05 52.7 -34.2 49.85 -34.15 49.8 M-20.1 52.95 Q-19.4 53.75 -18.25 54.2 L-17.7 54.4 -24.6 53.45 -20.1 52.95 M-12.1 52.35 L-11.55 51.3 Q-11.2 50.6 -11.15 49.9 L-5.9 48.8 -12.1 52.35 M-23.9 9.5 L-21.6 9.9 -16.15 10.6 -21.4 11.05 -21.45 10.9 Q-22.25 10.15 -23.25 9.75 L-23.9 9.5" fill="#999999" fill-rule="evenodd" stroke="none"/>
      <path d="M-7.15 13.3 L-6.1 13.55 Q-4.1 14.35 -3.3 16.4 L-3.05 16.95 -3.0 17.15 Q-2.6 18.5 -3.05 19.9 L-3.25 20.4 -3.85 21.45 -2.55 24.15 Q-0.85 28.1 -0.95 32.1 -0.35 32.35 0.15 32.75 1.2 33.55 1.7 34.85 L2.0 35.5 Q2.35 36.65 2.1 37.85 L1.75 38.85 0.5 40.7 0.05 41.0 -1.1 41.65 -2.45 42.05 -3.95 42.05 Q-6.55 46.35 -11.1 48.7 L-11.15 49.9 Q-11.2 50.6 -11.55 51.3 L-12.1 52.35 Q-12.9 53.55 -14.3 54.1 L-15.75 54.45 -17.6 54.45 -17.7 54.4 -18.25 54.2 Q-19.4 53.75 -20.1 52.95 L-21.1 51.4 -21.25 51.1 Q-24.35 50.9 -27.55 49.6 L-29.95 48.45 Q-30.6 49.05 -31.5 49.4 L-31.55 49.45 Q-32.85 50.0 -34.15 49.8 L-35.45 49.5 Q-37.2 48.8 -38.05 47.0 L-38.25 46.65 -38.45 46.15 Q-38.9 44.5 -38.45 43.05 L-38.3 42.7 -37.3 41.1 -38.15 39.25 Q-39.35 36.35 -39.6 33.4 L-40.25 33.2 Q-41.05 32.95 -41.65 32.4 -42.55 31.6 -43.05 30.45 L-43.35 29.65 -43.5 28.4 Q-43.55 27.4 -43.15 26.4 L-42.05 24.75 -41.7 24.45 -40.4 23.6 -38.75 23.2 -37.7 23.2 Q-35.2 18.05 -30.4 15.2 L-30.35 13.6 -30.05 12.65 -29.2 11.3 -29.15 11.2 Q-28.4 10.35 -27.35 9.8 L-25.05 9.4 -24.0 9.55 -23.95 9.55 -23.9 9.5 -23.25 9.75 Q-22.25 10.15 -21.45 10.9 L-21.4 11.05 -20.5 12.35 Q-16.85 12.3 -13.05 13.8 L-11.45 14.5 Q-10.9 14.0 -10.15 13.65 L-9.8 13.5 -7.15 13.3 M-4.95 39.95 L-4.45 40.2 Q-3.05 40.8 -1.65 40.2 L-0.65 39.6 Q-0.05 39.1 0.25 38.2 0.85 36.85 0.35 35.5 -0.35 34.1 -1.7 33.5 L-2.6 33.3 Q-2.55 31.25 -2.85 29.2 -3.3 24.75 -5.05 21.65 L-5.55 21.0 Q-5.0 20.5 -4.75 19.7 -4.15 18.35 -4.75 16.95 L-4.85 16.7 Q-5.5 15.55 -6.7 15.0 -8.05 14.5 -9.55 15.0 -10.55 15.45 -11.1 16.3 L-12.2 15.95 -16.95 14.15 -16.95 14.1 -17.05 13.8 Q-17.35 13.3 -19.2 13.5 L-19.35 13.55 -20.25 13.4 -21.75 13.25 -21.8 13.2 Q-22.4 11.8 -23.8 11.2 L-26.6 11.25 Q-27.95 11.85 -28.55 13.2 -28.95 14.2 -28.75 15.25 L-30.85 17.1 -32.4 18.65 -33.1 19.25 -33.35 19.65 -34.1 20.6 -34.3 20.7 -34.2 20.5 -34.45 20.25 -36.2 22.0 Q-36.95 23.1 -36.65 23.65 L-36.35 23.9 -36.75 25.05 -36.85 25.0 -39.7 25.05 Q-40.7 25.45 -41.3 26.4 L-41.6 27.0 Q-42.15 28.45 -41.6 29.8 -40.9 31.25 -39.65 31.7 L-38.7 32.0 -38.55 32.0 Q-38.45 34.0 -37.5 36.9 L-37.1 38.1 -37.1 38.25 Q-36.95 39.9 -36.5 40.6 -36.3 41.0 -35.95 40.85 L-35.6 41.65 Q-36.45 42.2 -36.85 43.25 -37.4 44.7 -36.85 46.05 -36.35 47.1 -34.85 47.95 -33.45 48.55 -32.05 47.95 -31.0 47.6 -30.45 46.75 L-29.3 47.2 -26.5 48.35 -22.0 49.0 -24.6 49.1 -24.45 49.5 Q-24.3 49.8 -23.2 49.9 L-21.25 49.6 -21.0 49.25 -19.95 49.15 -19.7 50.75 Q-19.0 52.2 -17.75 52.65 -16.35 53.25 -14.95 52.65 -13.45 52.15 -12.95 50.65 -12.35 49.3 -12.95 47.95 L-13.15 47.45 -11.25 46.5 -9.3 45.35 -8.45 44.65 -7.85 44.1 -7.25 43.5 -7.0 43.25 -6.75 43.55 -6.45 43.35 -5.55 42.4 Q-5.05 41.65 -5.15 41.4 L-5.35 41.2 -5.9 41.7 -5.8 41.5 -5.0 40.0 -4.95 39.95" fill="url(#gradient9)" fill-rule="evenodd" stroke="none"/>
      <path d="M-2.6 33.3 L-1.7 33.5 Q-0.35 34.1 0.35 35.5 0.85 36.85 0.25 38.2 -0.05 39.1 -0.65 39.6 L-1.65 40.2 Q-3.05 40.8 -4.45 40.2 L-4.95 39.95 Q-5.9 39.45 -6.45 38.3 -6.85 37.25 -6.6 36.15 L-6.5 35.55 -6.45 35.5 Q-5.85 34.1 -4.5 33.55 L-2.6 33.3 M-2.0 38.25 L-2.9 38.3 -3.45 38.05 -3.65 37.85 -3.7 37.85 Q-3.85 37.65 -3.95 37.75 -4.65 38.15 -4.35 38.8 L-4.3 38.85 Q-4.05 39.5 -3.05 39.45 -2.1 39.45 -1.7 39.1 -1.35 38.75 -1.55 38.4 -1.75 38.0 -2.0 38.25" fill="url(#gradient10)" fill-rule="evenodd" stroke="none"/>
      <path d="M-4.95 39.95 L-5.0 40.0 -5.8 41.5 -5.9 41.7 -6.5 42.25 Q-7.15 42.95 -7.0 43.25 L-7.25 43.5 -7.85 44.1 -8.45 44.65 -9.3 45.35 -11.25 46.5 -13.15 47.45 Q-13.85 46.35 -14.95 45.95 L-17.75 46.0 Q-19.1 46.55 -19.7 47.95 L-19.95 49.15 -21.0 49.25 -21.1 49.0 -22.0 49.0 -26.5 48.35 -29.3 47.2 -30.45 46.75 -30.15 45.95 Q-29.55 44.6 -30.05 43.25 -30.75 41.85 -32.1 41.25 -33.45 40.75 -34.9 41.25 L-35.6 41.65 -35.95 40.85 -35.9 40.85 -35.8 40.65 -35.75 40.35 -36.25 38.85 -36.7 37.6 Q-37.3 36.6 -37.1 38.1 L-37.5 36.9 Q-38.45 34.0 -38.55 32.0 -37.75 32.15 -36.85 31.7 -35.35 31.2 -34.85 29.7 -34.3 28.35 -34.85 27.0 -35.5 25.65 -36.75 25.05 L-36.35 23.9 -36.15 23.85 -34.3 20.7 -34.1 20.6 -33.35 19.65 -33.1 19.25 -32.4 18.65 -30.85 17.1 -28.75 15.25 -28.55 16.05 Q-27.85 17.45 -26.6 17.9 L-24.3 18.1 -23.8 17.95 -22.8 17.45 Q-22.15 16.9 -21.8 15.95 -21.2 14.55 -21.75 13.25 L-20.25 13.4 -19.35 13.55 Q-21.05 13.85 -20.65 14.5 L-19.0 14.35 -17.2 14.35 -16.95 14.15 -12.2 15.95 -11.1 16.3 -11.5 17.0 Q-12.05 18.45 -11.45 19.8 -10.8 21.25 -9.5 21.7 -8.1 22.3 -6.75 21.7 -6.05 21.45 -5.55 21.0 L-5.05 21.65 Q-3.3 24.75 -2.85 29.2 -2.55 31.25 -2.6 33.3 L-4.5 33.55 Q-5.85 34.1 -6.45 35.5 L-6.5 35.55 -6.6 36.15 Q-6.85 37.25 -6.45 38.3 -5.9 39.45 -4.95 39.95 M-13.05 19.95 L-13.2 19.3 Q-13.45 18.2 -13.1 17.05 L-14.25 16.55 Q-17.2 15.4 -20.05 15.35 L-20.45 16.55 -20.6 16.9 -21.5 18.25 Q-18.4 17.95 -15.25 19.2 -14.15 19.6 -13.2 20.2 L-12.85 20.4 -13.05 19.95 M-16.55 24.7 L-14.5 22.0 -16.05 21.25 Q-18.85 20.2 -21.6 20.5 L-21.25 23.4 -22.3 23.45 Q-22.35 22.4 -22.9 19.85 -23.25 19.2 -23.45 19.5 L-23.4 20.45 -23.2 21.6 -23.2 23.0 -23.05 23.6 Q-23.8 23.8 -24.35 24.1 L-24.85 24.45 -25.9 21.85 Q-29.1 23.65 -30.5 27.05 L-28.65 27.9 -28.85 28.15 -29.05 28.7 -29.4 29.05 -29.85 28.85 Q-32.0 28.05 -31.3 29.3 L-29.55 30.05 -29.35 31.8 -29.25 32.05 -31.65 32.15 Q-31.6 34.15 -30.75 36.05 L-29.75 37.9 -27.4 36.0 -27.2 36.15 Q-26.85 36.3 -26.65 36.65 L-25.25 37.75 -24.85 38.05 -24.6 38.45 -26.35 41.2 -24.55 42.15 Q-22.55 42.95 -20.6 43.0 L-20.9 39.7 -20.1 39.7 -20.05 40.6 -19.55 42.75 -19.4 42.95 -19.0 42.95 -19.25 39.7 -16.7 39.15 -15.5 41.85 Q-12.1 40.3 -10.4 37.0 L-13.0 35.95 -12.5 34.8 -12.05 35.0 Q-10.0 36.05 -9.5 35.8 L-9.4 35.6 -9.35 35.35 -10.35 34.85 -11.25 34.55 Q-11.35 34.4 -12.25 34.0 L-12.0 32.15 -9.05 32.5 Q-8.85 29.95 -9.95 27.35 L-11.15 25.15 -13.95 27.5 -14.55 26.7 Q-11.4 23.95 -11.5 23.8 -11.8 23.2 -13.9 25.05 L-14.95 26.05 Q-15.2 25.7 -15.8 25.3 L-16.55 24.7 M-9.2 23.5 L-9.25 23.45 -9.55 23.4 -9.4 23.65 Q-8.5 24.9 -7.9 26.45 -6.55 29.6 -6.8 32.75 L-6.85 33.3 -6.25 32.85 -6.0 32.6 -5.15 32.15 -3.95 31.75 Q-3.95 28.55 -5.25 25.35 L-6.25 23.3 -9.2 23.5 M-5.55 22.1 Q-5.75 22.55 -5.15 23.65 L-4.35 25.4 -3.85 25.45 Q-3.65 25.35 -4.85 22.35 -5.3 21.6 -5.55 22.1 M-26.75 19.8 Q-30.75 21.9 -32.55 26.1 L-32.8 26.65 -33.1 27.55 -33.25 26.85 -33.5 26.3 Q-33.7 25.75 -34.0 25.35 L-34.9 24.3 Q-32.95 20.3 -29.2 17.95 -28.45 19.0 -27.2 19.45 L-26.95 19.55 -26.85 19.55 -26.95 19.55 -27.2 19.45 Q-28.45 19.0 -29.2 17.95 -32.95 20.3 -34.9 24.3 L-34.0 25.35 Q-33.7 25.75 -33.5 26.3 L-33.25 26.85 -33.1 27.55 -32.8 26.65 -32.55 26.1 Q-30.75 21.9 -26.75 19.8 L-26.45 19.7 -26.85 19.55 -26.75 19.8 M-34.15 31.5 L-34.95 32.35 -35.1 32.5 -36.35 33.15 -36.65 33.25 Q-36.4 35.65 -35.4 38.15 L-34.7 39.6 Q-33.3 39.25 -31.95 39.6 L-31.5 39.75 -31.05 39.95 -31.45 39.3 -32.8 37.0 -33.6 34.25 -33.8 32.3 -33.8 31.0 -34.1 31.4 -34.15 31.5 M-27.5 43.15 L-27.6 43.1 -28.8 42.25 -28.7 42.6 Q-28.35 43.35 -28.3 44.1 -28.15 45.05 -28.45 46.0 L-26.45 46.9 Q-23.9 47.9 -21.4 48.1 L-21.2 47.4 Q-20.85 46.6 -20.3 46.05 L-19.5 45.3 -20.4 45.3 Q-22.9 45.25 -25.4 44.25 L-25.5 44.2 -25.65 44.1 -27.5 43.15 M-29.6 39.0 L-28.65 38.95 -27.8 38.15 -26.85 37.35 Q-26.55 37.3 -26.75 36.95 -27.1 36.35 -28.4 37.5 -29.7 38.75 -29.6 39.0 M-14.4 44.5 L-14.25 44.5 Q-13.1 45.05 -12.3 45.95 -8.8 44.05 -6.55 40.75 -7.4 40.05 -7.85 38.95 L-8.15 37.9 -8.2 37.75 -8.25 37.85 Q-10.35 42.0 -14.65 43.95 L-15.0 44.1 -15.25 44.25 -14.4 44.5" fill="#ad0000" fill-rule="evenodd" stroke="none"/>
      <path d="M-11.1 16.3 Q-10.55 15.45 -9.55 15.0 -8.05 14.5 -6.7 15.0 -5.5 15.55 -4.85 16.7 L-4.75 16.95 Q-4.15 18.35 -4.75 19.7 -5.0 20.5 -5.55 21.0 -6.05 21.45 -6.75 21.7 -8.1 22.3 -9.5 21.7 -10.8 21.25 -11.45 19.8 -12.05 18.45 -11.5 17.0 L-11.1 16.3 M-6.25 17.85 L-6.7 19.1 -7.85 19.75 -7.6 20.25 -6.95 20.45 -6.15 20.2 -6.05 20.15 -5.45 19.1 Q-5.2 18.4 -5.45 18.0 -5.7 17.55 -6.25 17.85" fill="url(#gradient11)" fill-rule="evenodd" stroke="none"/>
      <path d="M-5.9 41.7 L-5.35 41.2 -5.15 41.4 Q-5.05 41.65 -5.55 42.4 L-6.45 43.35 -6.75 43.55 -7.0 43.25 Q-7.15 42.95 -6.5 42.25 L-5.9 41.7 M-21.0 49.25 L-21.25 49.6 -23.2 49.9 Q-24.3 49.8 -24.45 49.5 L-24.6 49.1 -22.0 49.0 -21.1 49.0 -21.0 49.25 M-36.35 23.9 L-36.65 23.65 Q-36.95 23.1 -36.2 22.0 L-34.45 20.25 -34.2 20.5 -34.3 20.7 -36.15 23.85 -36.35 23.9 M-19.35 13.55 L-19.2 13.5 Q-17.35 13.3 -17.05 13.8 L-16.95 14.1 -16.95 14.15 -17.2 14.35 -19.0 14.35 -20.65 14.5 Q-21.05 13.85 -19.35 13.55 M-14.95 26.05 L-13.9 25.05 Q-11.8 23.2 -11.5 23.8 -11.4 23.95 -14.55 26.7 L-15.2 27.3 -15.85 27.25 -14.95 26.05 M-12.25 34.0 Q-11.35 34.4 -11.25 34.55 L-10.35 34.85 -9.35 35.35 -9.4 35.6 -9.5 35.8 Q-10.0 36.05 -12.05 35.0 L-12.5 34.8 -14.05 34.0 Q-14.55 33.1 -12.95 33.75 L-12.25 34.0 M-19.25 39.7 L-19.0 42.95 -19.4 42.95 -19.55 42.75 -20.05 40.6 -20.1 39.7 Q-20.15 38.6 -19.65 38.3 L-19.4 38.65 -19.25 39.7 M-29.55 30.05 L-31.3 29.3 Q-32.0 28.05 -29.85 28.85 L-29.4 29.05 -27.55 29.9 -27.45 30.2 -27.7 30.5 -29.55 30.05 M-23.05 23.6 L-23.2 23.0 -23.2 21.6 -23.4 20.45 -23.45 19.5 Q-23.25 19.2 -22.9 19.85 -22.35 22.4 -22.3 23.45 -22.3 24.05 -22.45 24.1 -22.8 24.3 -23.0 23.95 L-23.05 23.6 M-6.25 17.85 Q-5.7 17.55 -5.45 18.0 -5.2 18.4 -5.45 19.1 L-6.05 20.15 -6.15 20.2 -6.95 20.45 -7.6 20.25 -7.85 19.75 -6.7 19.1 -6.25 17.85 M-5.55 22.1 Q-5.3 21.6 -4.85 22.35 -3.65 25.35 -3.85 25.45 L-4.35 25.4 -5.15 23.65 Q-5.75 22.55 -5.55 22.1 M-24.2 14.35 L-24.9 13.75 -25.35 13.65 Q-26.0 13.65 -26.0 13.25 L-25.7 12.7 -24.7 12.55 Q-24.0 12.55 -23.75 13.05 L-23.55 13.5 -23.35 14.05 -23.35 14.2 -23.5 14.25 -23.5 14.3 Q-23.7 15.0 -24.2 14.35 M-37.35 26.9 L-37.5 26.9 -39.65 27.25 -39.95 26.9 Q-40.2 26.45 -39.65 25.95 -39.15 25.45 -38.2 25.55 -37.6 25.65 -37.05 25.9 L-36.8 26.15 -36.6 26.35 Q-36.8 26.9 -37.35 26.9 M-36.25 45.1 L-36.15 44.15 -35.7 43.7 Q-35.55 43.45 -35.4 43.8 -35.25 44.15 -35.25 44.65 L-34.65 45.9 Q-34.15 46.7 -34.55 46.9 -35.3 47.0 -35.5 46.6 L-35.85 46.15 -36.25 45.1 M-29.6 39.0 Q-29.7 38.75 -28.4 37.5 -27.1 36.35 -26.75 36.95 -26.55 37.3 -26.85 37.35 L-27.8 38.15 -28.65 38.95 -29.6 39.0 M-2.0 38.25 Q-1.75 38.0 -1.55 38.4 -1.35 38.75 -1.7 39.1 -2.1 39.45 -3.05 39.45 -4.05 39.5 -4.3 38.85 L-4.35 38.8 Q-4.65 38.15 -3.95 37.75 -3.85 37.65 -3.7 37.85 L-3.65 37.85 -3.45 38.05 -2.9 38.3 -2.0 38.25 M-17.0 50.4 Q-16.4 50.6 -16.0 50.4 L-15.3 50.3 Q-15.05 50.3 -15.05 50.6 L-15.2 51.0 -15.55 51.35 -16.85 51.65 -17.85 51.2 -18.05 50.6 Q-18.1 50.2 -17.85 50.2 L-17.0 50.4" fill="#ff5d5d" fill-rule="evenodd" stroke="none"/>
      <path d="M-28.75 15.25 Q-28.95 14.2 -28.55 13.2 -27.95 11.85 -26.6 11.25 L-23.8 11.2 Q-22.4 11.8 -21.8 13.2 L-21.75 13.25 Q-21.2 14.55 -21.8 15.95 -22.15 16.9 -22.8 17.45 L-23.8 17.95 -24.3 18.1 -26.6 17.9 Q-27.85 17.45 -28.55 16.05 L-28.75 15.25 M-24.2 14.35 Q-23.7 15.0 -23.5 14.3 L-23.5 14.25 -23.35 14.2 -23.35 14.05 -23.55 13.5 -23.75 13.05 Q-24.0 12.55 -24.7 12.55 L-25.7 12.7 -26.0 13.25 Q-26.0 13.65 -25.35 13.65 L-24.9 13.75 -24.2 14.35" fill="url(#gradient12)" fill-rule="evenodd" stroke="none"/>
      <path d="M-16.55 24.7 L-15.8 25.3 Q-15.2 25.7 -14.95 26.05 L-15.85 27.25 -15.2 27.3 -14.55 26.7 -13.95 27.5 -14.95 28.4 -14.65 29.05 Q-14.1 30.3 -14.15 31.65 L-14.15 31.95 -12.0 32.15 -12.25 34.0 -12.95 33.75 Q-14.55 33.1 -14.05 34.0 L-12.5 34.8 -13.0 35.95 -15.05 35.0 -15.15 35.2 Q-16.0 36.65 -17.4 37.55 L-16.7 39.15 -19.25 39.7 -19.4 38.65 -19.65 38.3 Q-20.15 38.6 -20.1 39.7 L-20.9 39.7 -20.95 38.45 -21.25 38.5 -21.65 38.4 -22.0 38.4 -23.4 37.9 -24.05 37.6 -24.6 38.45 -24.85 38.05 -25.25 37.75 -26.65 36.65 Q-26.85 36.3 -27.2 36.15 L-27.4 36.0 -26.55 35.3 -27.15 34.25 -27.2 34.1 -27.65 32.2 -27.65 32.0 -29.25 32.05 -29.35 31.8 -29.55 30.05 -27.7 30.5 -27.45 30.2 -27.55 29.9 -29.4 29.05 -29.05 28.7 -28.85 28.15 -28.65 27.9 -26.95 28.75 Q-26.15 26.9 -24.5 25.9 L-24.2 25.75 -24.85 24.45 -24.35 24.1 Q-23.8 23.8 -23.05 23.6 L-23.0 23.95 Q-22.8 24.3 -22.45 24.1 -22.3 24.05 -22.3 23.45 L-21.25 23.4 -21.1 24.9 Q-19.85 24.85 -18.55 25.35 L-18.4 25.35 -17.35 25.9 -16.55 24.7 M-19.75 37.3 L-18.65 36.95 -17.8 36.5 Q-16.7 35.75 -16.05 34.6 L-15.7 33.8 Q-15.25 32.85 -15.2 31.8 -15.15 30.65 -15.65 29.4 L-15.85 29.05 Q-16.55 27.6 -17.95 26.75 L-18.75 26.35 -20.6 26.0 -21.0 25.95 -21.55 26.0 -21.9 26.05 -23.1 26.45 -23.8 26.8 Q-25.25 27.6 -25.95 29.2 L-26.1 29.5 Q-26.6 30.75 -26.55 31.95 L-26.1 33.85 -25.65 34.65 Q-24.85 35.95 -23.45 36.65 L-23.0 36.9 -21.0 37.35 -19.75 37.3" fill="#950000" fill-rule="evenodd" stroke="none"/>
      <path d="M-21.55 26.0 L-21.0 25.95 -20.6 26.0 -18.75 26.35 -17.95 26.75 Q-16.55 27.6 -15.85 29.05 L-15.65 29.4 Q-15.15 30.65 -15.2 31.8 -15.25 32.85 -15.7 33.8 L-16.05 34.6 Q-16.7 35.75 -17.8 36.5 L-18.65 36.95 -19.75 37.3 Q-17.8 35.7 -17.1 33.55 -16.2 30.95 -17.45 28.85 L-18.4 27.6 -19.05 27.05 Q-19.35 26.6 -21.55 26.0" fill="#383838" fill-rule="evenodd" stroke="none"/>
      <path d="M-19.75 37.3 L-21.0 37.35 -23.0 36.9 -23.45 36.65 Q-24.85 35.95 -25.65 34.65 L-26.1 33.85 -26.55 31.95 Q-26.6 30.75 -26.1 29.5 L-25.95 29.2 Q-25.25 27.6 -23.8 26.8 L-23.1 26.45 -21.9 26.05 -21.55 26.0 Q-19.35 26.6 -19.05 27.05 L-18.4 27.6 -17.45 28.85 Q-16.2 30.95 -17.1 33.55 -17.8 35.7 -19.75 37.3 M-24.7 28.4 L-25.0 28.75 Q-25.6 29.1 -25.85 30.0 -26.05 30.8 -25.85 31.1 L-25.75 31.3 -25.55 30.4 -25.2 29.5 -24.6 28.75 -24.35 28.55 -24.0 28.45 -24.05 28.1 -24.35 28.15 -24.7 28.4 M-20.6 29.0 L-21.85 29.2 -21.9 29.2 Q-22.85 29.6 -23.3 30.7 -23.75 31.65 -23.25 32.6 -22.85 33.65 -21.85 34.05 L-20.65 34.3 -19.8 34.1 Q-18.8 33.65 -18.45 32.6 -18.0 31.55 -18.45 30.55 -18.85 29.6 -19.9 29.2 L-20.6 29.0" fill="url(#gradient13)" fill-rule="evenodd" stroke="none"/>
      <path d="M-24.7 28.4 L-24.35 28.15 -24.05 28.1 -24.0 28.45 -24.35 28.55 -24.6 28.75 -25.2 29.5 -25.55 30.4 -25.75 31.3 -25.85 31.1 Q-26.05 30.8 -25.85 30.0 -25.6 29.1 -25.0 28.75 L-24.7 28.4 M-21.9 30.25 Q-21.15 29.9 -20.65 29.9 L-20.7 33.35 -20.9 33.35 -21.8 33.1 -21.9 30.25" fill="#e0e0e0" fill-rule="evenodd" stroke="none"/>
      <path d="M-21.9 30.25 L-21.8 33.1 -20.9 33.35 -20.7 33.35 -20.65 29.9 Q-21.15 29.9 -21.9 30.25 M-20.6 29.0 L-19.9 29.2 Q-18.85 29.6 -18.45 30.55 -18.0 31.55 -18.45 32.6 -18.8 33.65 -19.8 34.1 L-20.65 34.3 -21.85 34.05 Q-22.85 33.65 -23.25 32.6 -23.75 31.65 -23.3 30.7 -22.85 29.6 -21.9 29.2 L-21.85 29.2 -20.6 29.0" fill="url(#gradient14)" fill-rule="evenodd" stroke="none"/>
      <path d="M-38.55 32.0 L-38.7 32.0 -39.65 31.7 Q-40.9 31.25 -41.6 29.8 -42.15 28.45 -41.6 27.0 L-41.3 26.4 Q-40.7 25.45 -39.7 25.05 L-36.85 25.0 -36.75 25.05 Q-35.5 25.65 -34.85 27.0 -34.3 28.35 -34.85 29.7 -35.35 31.2 -36.85 31.7 -37.75 32.15 -38.55 32.0 M-37.35 26.9 Q-36.8 26.9 -36.6 26.35 L-36.8 26.15 -37.05 25.9 Q-37.6 25.65 -38.2 25.55 -39.15 25.45 -39.65 25.95 -40.2 26.45 -39.95 26.9 L-39.65 27.25 -37.5 26.9 -37.35 26.9" fill="url(#gradient15)" fill-rule="evenodd" stroke="none"/>
      <path d="M-30.45 46.75 Q-31.0 47.6 -32.05 47.95 -33.45 48.55 -34.85 47.95 -36.35 47.1 -36.85 46.05 -37.4 44.7 -36.85 43.25 -36.45 42.2 -35.6 41.65 L-34.9 41.25 Q-33.45 40.75 -32.1 41.25 -30.75 41.85 -30.05 43.25 -29.55 44.6 -30.15 45.95 L-30.45 46.75 M-36.25 45.1 L-35.85 46.15 -35.5 46.6 Q-35.3 47.0 -34.55 46.9 -34.15 46.7 -34.65 45.9 L-35.25 44.65 Q-35.25 44.15 -35.4 43.8 -35.55 43.45 -35.7 43.7 L-36.15 44.15 -36.25 45.1" fill="url(#gradient16)" fill-rule="evenodd" stroke="none"/>
      <path d="M-35.95 40.85 Q-36.3 41.0 -36.5 40.6 -36.95 39.9 -37.1 38.25 L-37.1 38.1 Q-37.3 36.6 -36.7 37.6 L-36.25 38.85 -35.75 40.35 -35.8 40.65 -35.9 40.85 -35.95 40.85" fill="#ffaaaa" fill-rule="evenodd" stroke="none"/>
      <path d="M-13.15 47.45 L-12.95 47.95 Q-12.35 49.3 -12.95 50.65 -13.45 52.15 -14.95 52.65 -16.35 53.25 -17.75 52.65 -19.0 52.2 -19.7 50.75 L-19.95 49.15 -19.7 47.95 Q-19.1 46.55 -17.75 46.0 L-14.95 45.95 Q-13.85 46.35 -13.15 47.45 M-17.0 50.4 L-17.85 50.2 Q-18.1 50.2 -18.05 50.6 L-17.85 51.2 -16.85 51.65 -15.55 51.35 -15.2 51.0 -15.05 50.6 Q-15.05 50.3 -15.3 50.3 L-16.0 50.4 Q-16.4 50.6 -17.0 50.4" fill="url(#gradient17)" fill-rule="evenodd" stroke="none"/>
      <path d="M-1.5 13.7 L0.15 10.2 0.2 10.05 -7.05 12.95 -14.9 11.1 3.0 7.25 0.2 10.05 M-7.15 13.3 L-6.1 13.55 Q-4.1 14.35 -3.3 16.4 L-3.05 16.95 -2.85 16.55 -1.5 13.7 M1.75 14.05 L3.0 7.25 M1.1 18.15 L1.75 14.05 M0.15 32.75 Q1.2 33.55 1.7 34.85 L2.0 35.5 0.6 26.95 0.15 32.75 Q-0.35 32.35 -0.95 32.1 -0.85 28.1 -2.55 24.15 L-3.85 21.45 -3.25 20.4 -3.05 19.9 Q-2.6 18.5 -3.0 17.15 L-3.05 16.95 M0.5 40.7 L3.4 40.35 7.6 39.85 2.0 35.5 Q2.35 36.65 2.1 37.85 L1.75 38.85 0.5 40.7 0.15 41.15 -4.1 45.95 -2.45 42.05 -1.1 41.65 0.05 41.0 0.5 40.7 M1.55 44.15 L4.85 43.05 11.45 40.85 11.4 40.85 7.6 39.85 M0.6 26.95 L11.4 40.85 M-21.4 11.05 L-20.5 12.35 Q-16.85 12.3 -13.05 13.8 L-11.45 14.5 Q-10.9 14.0 -10.15 13.65 L-9.8 13.5 -14.9 11.1 M-13.05 19.95 L-13.2 19.3 Q-13.45 18.2 -13.1 17.05 L-14.25 16.55 Q-17.2 15.4 -20.05 15.35 L-20.45 16.55 -20.6 16.9 -21.5 18.25 Q-18.4 17.95 -15.25 19.2 -14.15 19.6 -13.2 20.2 L-13.05 19.95 -12.85 20.4 -13.2 20.2 M-21.25 23.4 L-21.6 20.5 Q-18.85 20.2 -16.05 21.25 L-14.5 22.0 -16.55 24.7 -17.35 25.9 -18.4 25.35 -18.55 25.35 Q-19.85 24.85 -21.1 24.9 L-21.25 23.4 M-13.95 27.5 L-11.15 25.15 -9.95 27.35 Q-8.85 29.95 -9.05 32.5 L-12.0 32.15 -14.15 31.95 -14.15 31.65 Q-14.1 30.3 -14.65 29.05 L-14.95 28.4 -13.95 27.5 M-13.0 35.95 L-10.4 37.0 Q-12.1 40.3 -15.5 41.85 L-16.7 39.15 -17.4 37.55 Q-16.0 36.65 -15.15 35.2 L-15.05 35.0 -13.0 35.95 M-20.9 39.7 L-20.6 43.0 Q-22.55 42.95 -24.55 42.15 L-26.35 41.2 -24.6 38.45 -24.05 37.6 -23.4 37.9 -22.0 38.4 M-27.4 36.0 L-29.75 37.9 -30.75 36.05 Q-31.6 34.15 -31.65 32.15 L-29.25 32.05 -27.65 32.0 -27.65 32.2 -27.2 34.1 -27.15 34.25 -26.55 35.3 -27.4 36.0 M-28.65 27.9 L-30.5 27.05 Q-29.1 23.65 -25.9 21.85 L-24.85 24.45 -24.2 25.75 -24.5 25.9 Q-26.15 26.9 -26.95 28.75 L-28.65 27.9 M-9.8 13.5 L-7.15 13.3 M-9.4 23.65 L-9.25 23.5 -9.2 23.5 -9.25 23.45 -9.55 23.4 -9.4 23.65 Q-8.5 24.9 -7.9 26.45 -6.55 29.6 -6.8 32.75 L-6.25 32.85 -6.0 32.6 -5.15 32.15 -3.95 31.75 Q-3.95 28.55 -5.25 25.35 L-6.25 23.3 -9.2 23.5 M-29.2 11.3 L-29.15 11.2 -28.55 3.0 -29.75 -1.5 -35.3 16.5 -29.2 11.3 -30.05 12.65 -30.35 13.6 -30.4 15.2 Q-35.2 18.05 -37.7 23.2 L-38.75 23.2 -40.4 23.6 -41.7 24.45 -42.05 24.75 -43.15 26.4 Q-43.55 27.4 -43.5 28.4 L-43.35 29.65 -43.05 30.45 Q-42.55 31.6 -41.65 32.4 -41.05 32.95 -40.25 33.2 L-39.6 33.4 Q-39.35 36.35 -38.15 39.25 L-37.3 41.1 -38.3 42.7 -38.45 43.05 Q-38.9 44.5 -38.45 46.15 L-38.25 46.65 -38.05 47.0 Q-37.2 48.8 -35.45 49.5 L-34.15 49.8 Q-32.85 50.0 -31.55 49.45 L-31.5 49.4 Q-30.6 49.05 -29.95 48.45 L-27.55 49.6 Q-24.35 50.9 -21.25 51.1 L-21.1 51.4 -20.1 52.95 Q-19.4 53.75 -18.25 54.2 L-17.7 54.4 -17.6 54.45 -15.75 54.45 -14.3 54.1 Q-12.9 53.55 -12.1 52.35 L-11.55 51.3 Q-11.2 50.6 -11.15 49.9 L-11.1 48.7 Q-6.55 46.35 -3.95 42.05 L-2.45 42.05 M-29.15 11.2 Q-28.4 10.35 -27.35 9.8 L-25.05 9.4 -24.0 9.55 -25.15 7.85 -28.55 3.0 M-24.0 9.55 L-23.95 9.55 -23.9 9.5 -21.6 9.9 -16.15 10.6 -21.4 11.05 -21.45 10.9 Q-22.25 10.15 -23.25 9.75 L-23.9 9.5 M-22.1 5.3 L-25.4 2.3 -29.75 -1.5 M-38.75 23.2 L-36.45 18.05 -41.7 24.45 -42.2 24.45 -45.5 24.9 -51.15 25.55 -43.35 29.65 -42.55 37.9 -41.65 32.4 M-26.85 19.55 L-26.95 19.55 -27.2 19.45 Q-28.45 19.0 -29.2 17.95 -32.95 20.3 -34.9 24.3 L-34.0 25.35 Q-33.7 25.75 -33.5 26.3 L-33.25 26.85 -33.1 27.55 -32.8 26.65 -32.55 26.1 Q-30.75 21.9 -26.75 19.8 L-26.85 19.55 -26.45 19.7 -26.75 19.8 M-30.35 13.6 L-35.3 16.5 M-34.15 31.5 L-34.95 32.35 -35.1 32.5 -36.35 33.15 -36.65 33.25 Q-36.4 35.65 -35.4 38.15 L-34.7 39.6 Q-33.3 39.25 -31.95 39.6 L-31.45 39.3 -32.8 37.0 -33.6 34.25 -33.8 32.3 -33.8 31.0 -34.1 31.4 M-31.95 39.6 L-31.5 39.75 -31.05 39.95 -31.45 39.3 M-38.75 46.95 L-39.65 49.2 -41.2 53.1 -34.2 49.85 -34.15 49.8 M-38.6 46.55 L-38.75 46.95 M-43.1 45.95 L-43.3 48.55 -43.9 56.1 -43.85 56.05 -26.05 52.7 -34.2 49.85 M-38.45 46.15 L-38.6 46.55 -42.6 39.65 -43.1 45.95 M-20.9 39.7 L-20.95 38.45 -21.25 38.5 -21.65 38.4 M-27.5 43.15 L-27.6 43.1 -28.8 42.25 -28.7 42.6 Q-28.35 43.35 -28.3 44.1 -28.15 45.05 -28.45 46.0 L-26.45 46.9 Q-23.9 47.9 -21.4 48.1 L-21.2 47.4 Q-20.85 46.6 -20.3 46.05 L-20.4 45.3 Q-22.9 45.25 -25.4 44.25 L-25.5 44.2 -25.65 44.1 M-6.25 32.85 L-6.85 33.3 -6.8 32.75 M-14.4 44.5 L-14.25 44.5 Q-13.1 45.05 -12.3 45.95 -8.8 44.05 -6.55 40.75 -7.4 40.05 -7.85 38.95 L-8.15 37.9 -8.25 37.85 Q-10.35 42.0 -14.65 43.95 L-14.4 44.5 -15.25 44.25 -15.0 44.1 -14.65 43.95 M-8.15 37.9 L-8.2 37.75 -8.25 37.85 M-3.05 19.9 L-0.15 25.0 -3.0 17.15 M1.1 18.15 L-0.15 25.0 M-22.1 5.3 L-16.15 10.6 M-20.3 46.05 L-19.5 45.3 -20.4 45.3 M-43.9 20.75 L-47.15 21.95 -54.5 24.55 -51.15 25.55 M-42.55 37.9 L-54.5 24.55 M-41.2 53.1 L-43.85 56.05 M-17.6 54.45 L-16.7 55.6 -14.75 58.1 -13.2 60.1 -12.6 56.0 M-12.5 55.75 L-12.1 52.35 -5.9 48.8 -11.15 49.9 M-17.0 60.3 L-19.15 58.4 -24.6 53.45 -20.1 52.95 M-5.9 48.8 L-12.3 64.55 -12.35 64.45 -17.0 60.3 M-13.2 60.1 L-12.35 64.45 M-17.7 54.4 L-24.6 53.45 M-43.9 20.75 L-36.45 18.05 M-31.55 49.45 L-26.05 52.7 M-42.6 39.65 L-38.45 43.05 M1.55 44.15 L-4.1 45.95" fill="none" stroke="#000000" stroke-linecap="round" stroke-linejoin="round" stroke-opacity="0.5019608" stroke-width="1.0"/>
      <path d="M-2.6 33.3 L-1.7 33.5 Q-0.35 34.1 0.35 35.5 0.85 36.85 0.25 38.2 -0.05 39.1 -0.65 39.6 L-1.65 40.2 Q-3.05 40.8 -4.45 40.2 L-4.95 39.95 Q-5.9 39.45 -6.45 38.3 -6.85 37.25 -6.6 36.15 M-13.15 47.45 L-12.95 47.95 Q-12.35 49.3 -12.95 50.65 -13.45 52.15 -14.95 52.65 -16.35 53.25 -17.75 52.65 -19.0 52.2 -19.7 50.75 L-19.95 49.15 -19.7 47.95 Q-19.1 46.55 -17.75 46.0 L-14.95 45.95 Q-13.85 46.35 -13.15 47.45 M-30.45 46.75 Q-31.0 47.6 -32.05 47.95 -33.45 48.55 -34.85 47.95 -36.35 47.1 -36.85 46.05 -37.4 44.7 -36.85 43.25 -36.45 42.2 -35.6 41.65 L-34.9 41.25 Q-33.45 40.75 -32.1 41.25 -30.75 41.85 -30.05 43.25 -29.55 44.6 -30.15 45.95 L-30.45 46.75 M-38.55 32.0 L-38.7 32.0 -39.65 31.7 Q-40.9 31.25 -41.6 29.8 -42.15 28.45 -41.6 27.0 L-41.3 26.4 Q-40.7 25.45 -39.7 25.05 L-36.85 25.0 -36.75 25.05 Q-35.5 25.65 -34.85 27.0 -34.3 28.35 -34.85 29.7 -35.35 31.2 -36.85 31.7 -37.75 32.15 -38.55 32.0 M-28.75 15.25 Q-28.95 14.2 -28.55 13.2 -27.95 11.85 -26.6 11.25 L-23.8 11.2 Q-22.4 11.8 -21.8 13.2 L-21.75 13.25 Q-21.2 14.55 -21.8 15.95 -22.15 16.9 -22.8 17.45 L-23.8 17.95 -24.3 18.1 -26.6 17.9 Q-27.85 17.45 -28.55 16.05 L-28.75 15.25 M-11.1 16.3 Q-10.55 15.45 -9.55 15.0 -8.05 14.5 -6.7 15.0 -5.5 15.55 -4.85 16.7 L-4.75 16.95 Q-4.15 18.35 -4.75 19.7 -5.0 20.5 -5.55 21.0 -6.05 21.45 -6.75 21.7 -8.1 22.3 -9.5 21.7 -10.8 21.25 -11.45 19.8 -12.05 18.45 -11.5 17.0 L-11.1 16.3 M-2.6 33.3 L-4.5 33.55 Q-5.85 34.1 -6.45 35.5 M-21.55 26.0 L-21.0 25.95 -20.6 26.0 -18.75 26.35 -17.95 26.75 Q-16.55 27.6 -15.85 29.05 L-15.65 29.4 Q-15.15 30.65 -15.2 31.8 -15.25 32.85 -15.7 33.8 L-16.05 34.6 Q-16.7 35.75 -17.8 36.5 L-18.65 36.95 -19.75 37.3 -21.0 37.35 -23.0 36.9 -23.45 36.65 Q-24.85 35.95 -25.65 34.65 L-26.1 33.85 -26.55 31.95 Q-26.6 30.75 -26.1 29.5 L-25.95 29.2 Q-25.25 27.6 -23.8 26.8 L-23.1 26.45 -21.9 26.05 -21.55 26.0 M-20.6 29.0 L-19.9 29.2 Q-18.85 29.6 -18.45 30.55 -18.0 31.55 -18.45 32.6 -18.8 33.65 -19.8 34.1 L-20.65 34.3 -21.85 34.05 Q-22.85 33.65 -23.25 32.6 -23.75 31.65 -23.3 30.7 -22.85 29.6 -21.9 29.2 L-21.85 29.2 -20.6 29.0" fill="none" stroke="#000000" stroke-linecap="round" stroke-linejoin="round" stroke-opacity="0.5019608" stroke-width="0.75"/>
      <path d="M1.15 55.15 L1.15 55.25 -5.7 56.45 -6.7 53.6 -2.45 53.65 1.15 55.15 M-9.05 57.1 L-14.9 58.05 -10.05 53.9 -9.05 57.1 M-25.7 75.15 L-29.75 70.45 -27.25 68.5 -25.9 70.65 -25.7 75.15 M-31.55 68.2 L-36.35 62.55 -29.7 64.45 -29.55 64.5 -28.8 65.75 -31.55 68.2 M-55.75 62.35 L-54.05 55.0 -50.5 56.2 -52.75 59.85 -55.75 62.35 M-53.55 52.45 L-52.2 46.25 -49.25 53.6 -49.4 54.05 -53.55 52.45 M-61.75 29.7 L-54.15 28.1 -52.95 31.2 -58.55 31.1 -61.75 29.7 M-50.65 27.5 L-43.0 25.8 -49.05 31.3 -49.55 31.3 -50.65 27.5 M-33.55 7.35 L-29.7 11.8 -30.3 17.3 -32.95 12.0 -33.55 7.35 M-26.85 15.15 L-21.8 21.35 -27.05 19.8 -26.85 15.15 M-2.35 20.75 L-4.55 27.35 -7.75 26.45 -5.6 23.25 -5.55 23.1 -2.35 20.75 M-5.8 31.2 L-8.0 37.85 -9.65 29.7 -5.8 31.2" fill="#cccccc" fill-rule="evenodd" stroke="none"/>
      <path d="M-2.45 53.65 L-6.7 53.6 -9.65 53.55 Q-8.75 52.9 -8.15 51.85 L-7.65 50.9 Q-7.25 49.75 -7.45 48.55 L-2.45 53.65 M-5.55 23.1 L-5.6 23.25 -7.75 26.45 -9.55 29.15 -9.8 28.9 Q-10.4 26.7 -12.3 25.75 L-13.25 25.3 -13.1 24.95 -5.55 23.1 M-29.35 19.05 L-30.45 18.9 Q-31.6 18.65 -32.7 18.9 -33.85 19.35 -34.75 20.05 L-32.95 12.0 -30.3 17.3 -29.35 19.05 M-49.55 31.3 L-49.05 31.3 -49.5 31.6 -50.8 33.1 Q-51.3 33.95 -51.45 34.95 L-51.5 36.25 -58.55 31.1 -52.95 31.2 -49.55 31.3 M-49.4 54.05 L-49.25 53.6 -48.8 53.9 -48.7 54.3 Q-48.1 56.1 -46.5 57.0 L-45.25 57.55 -45.3 57.6 -52.75 59.85 -50.5 56.2 -49.4 54.05 M-24.65 66.5 L-24.8 66.8 -25.9 70.65 -27.25 68.5 -28.8 65.75 -29.55 64.5 -27.7 64.75 -26.2 64.7 Q-24.65 64.25 -23.75 63.3 L-24.65 66.5" fill="#6d0000" fill-rule="evenodd" stroke="none"/>
      <path d="M-17.1 60.6 L-25.7 75.15 -25.9 70.65 -24.8 66.8 -24.65 66.5 -23.75 63.3 -17.1 60.6 M-37.65 61.6 L-55.75 62.35 -52.75 59.85 -45.3 57.6 -37.65 61.6 M-51.85 44.55 L-61.75 29.7 -58.55 31.1 -51.5 36.25 -51.85 44.55 M-41.55 24.45 L-33.55 7.35 -32.95 12.0 -34.75 20.05 -41.55 24.45 M-20.6 22.0 L-2.35 20.75 -5.55 23.1 -13.1 24.95 -20.6 22.0 M-7.55 39.85 L1.15 55.15 -2.45 53.65 -7.45 48.55 -7.45 48.4 -7.55 39.85" fill="#4a4a4a" fill-rule="evenodd" stroke="none"/>
      <path d="M-14.9 58.05 L-12.75 54.4 -11.35 54.2 Q-10.65 54.05 -10.15 53.7 L-9.65 53.55 -10.05 53.9 -14.9 58.05 M-22.45 60.95 L-17.1 60.6 -23.75 63.3 -23.1 62.25 -22.45 60.95 M-36.35 62.55 L-31.8 62.65 Q-31.1 63.6 -30.15 64.1 L-29.7 64.45 -36.35 62.55 M-42.55 57.6 L-37.65 61.6 -45.3 57.6 -45.25 57.55 -42.55 57.6 M-52.2 46.25 L-48.45 50.2 Q-49.2 51.65 -48.95 53.3 L-49.25 53.6 -52.2 46.25 M-50.15 39.25 L-51.85 44.55 -51.5 36.25 -51.3 37.0 Q-50.9 38.3 -50.15 39.25 M-43.0 25.8 L-46.0 30.55 -47.6 30.75 Q-48.45 30.95 -49.05 31.3 L-43.0 25.8 M-36.25 22.25 L-41.55 24.45 -34.75 20.05 -35.9 21.35 -36.25 22.25 M-21.8 21.35 L-27.05 21.0 -27.05 20.8 Q-27.8 19.95 -28.7 19.5 -29.05 19.25 -29.3 19.1 L-27.05 19.8 -21.8 21.35 M-15.95 25.1 L-20.6 22.0 -13.1 24.95 -13.25 25.3 -15.95 25.1 M-8.0 37.85 L-10.2 32.45 Q-9.5 31.0 -9.65 29.7 L-8.0 37.85 M-8.7 45.55 L-7.55 39.85 -7.45 48.4 -7.55 47.9 Q-7.9 46.55 -8.7 45.55" fill="#999999" fill-rule="evenodd" stroke="none"/>
      <path d="M-12.75 54.4 L-14.2 54.2 Q-17.35 58.05 -22.25 59.8 L-22.45 60.95 -23.1 62.25 -23.75 63.3 Q-24.65 64.25 -26.2 64.7 L-27.7 64.75 -29.55 64.5 -29.7 64.45 -30.15 64.1 Q-31.1 63.6 -31.8 62.65 L-32.55 61.05 -32.65 60.65 Q-35.7 60.0 -38.65 58.35 L-40.85 56.85 -42.55 57.55 -42.55 57.6 -45.25 57.55 -46.5 57.0 Q-48.1 56.1 -48.7 54.3 L-48.8 53.9 -48.95 53.3 Q-49.2 51.65 -48.45 50.2 L-48.3 49.85 -47.1 48.5 -47.65 46.5 Q-48.45 43.5 -48.3 40.45 L-48.85 40.25 -50.15 39.25 Q-50.9 38.3 -51.3 37.0 L-51.5 36.25 -51.45 34.95 Q-51.3 33.95 -50.8 33.1 L-49.5 31.6 -49.05 31.3 Q-48.45 30.95 -47.6 30.75 L-46.0 30.55 -44.9 30.7 Q-41.7 25.95 -36.5 23.75 -36.55 22.95 -36.25 22.25 L-35.9 21.35 -34.75 20.05 Q-33.85 19.35 -32.7 18.9 -31.6 18.65 -30.45 18.9 L-29.35 19.05 -29.35 19.15 -29.3 19.1 Q-29.05 19.25 -28.7 19.5 -27.8 19.95 -27.05 20.8 L-27.05 21.0 Q-26.6 21.65 -26.3 22.35 -22.65 23.0 -19.2 24.85 L-17.7 25.85 Q-17.05 25.45 -16.2 25.2 L-15.95 25.1 -13.25 25.3 -12.3 25.75 Q-10.4 26.7 -9.8 28.9 L-9.8 29.5 -9.65 29.7 Q-9.5 31.0 -10.2 32.45 L-10.45 32.85 -11.15 33.8 -10.25 36.7 Q-9.15 40.85 -9.75 44.8 L-8.7 45.55 Q-7.9 46.55 -7.55 47.9 L-7.45 48.4 -7.45 48.55 Q-7.25 49.75 -7.65 50.9 L-8.15 51.85 Q-8.75 52.9 -9.65 53.55 L-10.15 53.7 Q-10.65 54.05 -11.35 54.2 L-12.75 54.4 M-27.75 23.15 L-27.75 23.05 Q-28.15 21.65 -29.45 20.75 L-32.25 20.45 Q-33.7 20.75 -34.4 22.05 -34.95 23.1 -34.9 24.05 -35.6 24.4 -37.3 25.65 L-39.0 26.9 -39.75 27.45 -40.1 27.8 -41.0 28.55 -41.05 28.55 -41.25 28.2 -43.25 29.7 Q-44.2 30.75 -43.9 31.25 L-43.75 31.55 -44.25 32.65 -44.3 32.55 Q-45.6 31.9 -47.1 32.2 -48.25 32.55 -48.95 33.4 L-49.35 33.8 Q-50.05 35.3 -49.75 36.65 -49.25 38.3 -48.0 38.85 L-47.2 39.3 -47.0 39.25 Q-47.25 41.25 -46.65 44.25 L-46.45 45.55 -46.45 45.65 Q-46.55 47.25 -46.2 48.05 -46.05 48.5 -45.7 48.35 L-45.5 49.25 Q-46.4 49.7 -46.95 50.6 -47.7 52.05 -47.3 53.45 -47.05 54.55 -45.7 55.7 -44.4 56.35 -42.95 56.05 -41.85 55.8 -41.15 55.05 L-40.05 55.7 Q-38.7 56.4 -37.45 57.15 L-33.0 58.45 -35.65 58.25 -35.6 58.6 -34.35 59.2 Q-33.25 59.45 -32.45 59.2 L-32.15 58.8 -31.2 58.9 -31.05 60.55 Q-30.65 62.05 -29.4 62.75 -28.1 63.5 -26.55 63.2 -25.1 62.75 -24.4 61.45 -23.65 60.15 -23.95 58.75 L-24.1 58.15 -22.05 57.5 -19.0 56.15 -18.35 55.65 -17.7 55.15 -17.45 54.9 -17.25 55.2 -17.0 55.1 -15.85 54.35 Q-15.25 53.6 -15.35 53.45 L-15.45 53.15 -16.1 53.6 -15.95 53.4 -14.95 52.0 -14.45 52.35 Q-13.25 53.1 -11.75 52.75 L-10.55 52.3 Q-9.9 51.85 -9.5 51.0 -8.7 49.8 -9.1 48.35 -9.5 46.8 -10.75 46.05 L-11.65 45.7 Q-11.35 43.75 -11.2 41.6 -11.1 37.15 -12.5 33.85 L-12.9 33.15 Q-12.15 32.7 -11.85 31.95 -11.0 30.65 -11.3 29.3 L-11.45 29.0 Q-12.0 27.75 -13.05 27.0 -14.35 26.4 -15.85 26.65 -16.95 26.95 -17.6 27.8 L-18.65 27.15 -23.05 24.75 -23.0 24.65 -23.15 24.4 Q-23.4 23.8 -25.2 23.7 L-25.4 23.7 -26.2 23.45 -27.75 23.15 M-30.9 27.55 L-30.35 27.45 -29.35 27.15 -27.05 26.95 -28.15 28.15 Q-25.1 28.25 -22.15 29.95 -21.15 30.5 -20.25 31.25 L-19.9 31.5 -20.05 31.0 -20.05 30.4 -20.05 30.45 -19.35 31.15 -18.95 31.6 -18.6 31.85 -18.05 33.0 -17.7 33.45 -17.1 34.45 -16.85 35.1 -17.05 34.9 -16.95 35.25 Q-16.25 36.5 -15.85 38.15 -15.0 41.45 -15.65 44.6 L-15.9 45.15 -15.2 44.75 -14.9 44.55 -15.45 46.55 -15.75 47.35 -15.8 47.4 -16.0 48.0 Q-16.75 49.5 -17.6 50.6 L-17.75 49.45 -17.75 49.35 -17.85 49.4 Q-20.6 53.25 -25.05 54.55 L-25.45 54.7 -25.75 54.7 -24.9 55.05 -24.85 55.05 -24.75 55.15 -31.45 54.7 Q-34.05 54.1 -35.75 53.3 -35.85 53.2 -35.9 53.2 L-36.0 53.15 -37.65 51.9 -38.6 50.55 -39.15 49.75 -39.8 48.55 -40.85 46.45 -41.7 44.65 -42.5 42.25 -42.4 40.25 -42.15 39.0 -42.5 39.35 -42.05 37.8 -41.45 36.0 -41.05 34.9 -40.95 35.7 -40.55 34.8 -40.25 34.25 Q-37.85 30.45 -33.55 28.95 L-33.25 28.9 -33.65 28.6 -30.9 27.55 M-29.7 33.1 L-29.75 29.5 Q-30.05 28.8 -30.3 29.1 -30.55 29.3 -30.4 30.05 L-30.4 31.25 -30.4 32.6 -30.45 33.15 -31.9 33.55 -32.3 33.75 -33.0 31.1 Q-36.5 32.3 -38.35 35.5 L-36.65 36.65 -36.85 36.85 -37.2 37.35 -37.5 37.6 -38.0 37.45 Q-40.05 36.35 -39.5 37.65 L-37.85 38.65 -37.9 40.4 -37.8 40.7 -40.2 40.45 Q-40.4 42.4 -39.95 44.45 L-39.15 46.4 -36.55 44.8 -36.35 45.05 Q-36.05 45.2 -35.9 45.6 L-34.7 46.85 -34.4 47.3 -34.2 47.65 -36.25 50.2 -34.65 51.35 Q-32.75 52.4 -30.75 52.75 L-30.6 49.45 -29.9 49.55 -30.0 50.5 Q-29.95 52.15 -29.7 52.6 L-29.65 52.9 -29.25 52.95 Q-29.15 52.9 -29.0 49.65 L-26.4 49.45 -25.6 52.35 Q-22.0 51.3 -19.8 48.3 L-22.3 46.85 -21.6 45.75 -21.25 46.1 Q-19.3 47.4 -18.85 47.25 L-18.65 47.0 -18.6 46.8 -19.55 46.2 -20.35 45.8 -21.3 45.0 -20.8 43.25 -17.85 43.95 Q-17.35 41.45 -18.1 38.75 -18.35 37.5 -18.95 36.4 L-22.05 38.3 -22.45 37.55 -19.05 35.05 Q-19.25 34.45 -21.6 35.95 L-22.8 36.85 Q-23.0 36.4 -23.5 35.9 L-24.15 35.25 -21.8 32.85 -23.15 31.9 Q-25.85 30.45 -28.55 30.25 L-28.75 33.15 -29.7 33.1 M-36.0 45.85 Q-36.35 45.25 -37.85 46.15 L-39.15 47.45 -38.15 47.55 -37.25 46.95 -36.25 46.25 Q-35.9 46.25 -36.0 45.85" fill="url(#gradient18)" fill-rule="evenodd" stroke="none"/>
      <path d="M-25.4 23.7 L-25.2 23.7 Q-23.4 23.8 -23.15 24.4 L-23.0 24.65 -23.05 24.75 -23.35 24.95 -25.15 24.55 -26.8 24.5 Q-27.05 23.8 -25.4 23.7 M-16.1 53.6 L-15.45 53.15 -15.35 53.45 Q-15.25 53.6 -15.85 54.35 L-17.0 55.1 -17.25 55.2 -17.45 54.9 Q-17.55 54.65 -16.75 54.05 L-16.1 53.6 M-32.15 58.8 L-32.45 59.2 Q-33.25 59.45 -34.35 59.2 L-35.6 58.6 -35.65 58.25 -33.0 58.45 -32.25 58.65 -32.15 58.8 M-43.75 31.55 L-43.9 31.25 Q-44.2 30.75 -43.25 29.7 L-41.25 28.2 -41.05 28.55 -41.2 28.75 -43.45 31.5 -43.75 31.55 M-31.25 22.95 Q-31.95 22.9 -31.9 22.45 L-31.55 22.0 -30.55 21.95 Q-29.8 22.05 -29.65 22.7 L-29.5 23.1 -29.4 23.7 -29.45 23.85 -29.55 23.9 -29.55 23.95 Q-29.9 24.6 -30.3 23.85 L-30.85 23.2 -31.25 22.95 M-30.45 33.15 L-30.4 32.6 -30.4 31.25 -30.4 30.05 Q-30.55 29.3 -30.3 29.1 -30.05 28.8 -29.75 29.5 L-29.7 33.1 -30.0 33.75 Q-30.35 33.9 -30.45 33.5 L-30.45 33.15 M-22.8 36.85 L-21.6 35.95 Q-19.25 34.45 -19.05 35.05 L-22.45 37.55 -23.3 37.95 -23.9 37.9 Q-24.0 37.65 -22.8 36.85 M-21.3 45.0 L-20.35 45.8 -19.55 46.2 -18.6 46.8 -18.65 47.0 -18.85 47.25 Q-19.3 47.4 -21.25 46.1 L-21.6 45.75 -23.05 44.75 Q-23.5 43.85 -21.9 44.65 L-21.3 45.0 M-29.0 49.65 Q-29.15 52.9 -29.25 52.95 L-29.65 52.9 -29.7 52.6 Q-29.95 52.15 -30.0 50.5 L-29.9 49.55 Q-29.75 48.4 -29.25 48.25 L-29.0 48.6 -29.0 49.65 M-37.85 38.65 L-39.5 37.65 Q-40.05 36.35 -38.0 37.45 L-37.5 37.6 -35.85 38.8 -35.75 39.1 -36.05 39.35 Q-36.4 39.45 -37.85 38.65 M-36.0 45.85 Q-35.9 46.25 -36.25 46.25 L-37.25 46.95 -38.15 47.55 -39.15 47.45 -37.85 46.15 Q-36.35 45.25 -36.0 45.85 M-13.05 29.9 Q-12.5 29.75 -12.25 30.2 -12.1 30.55 -12.45 31.25 L-13.2 32.25 -13.25 32.25 -14.05 32.35 -14.7 32.2 -14.85 31.55 -13.6 31.1 -13.05 29.9 M-12.9 34.15 Q-12.6 33.75 -12.35 34.55 -11.55 37.65 -11.75 37.75 L-12.2 37.65 -12.7 35.85 Q-13.2 34.6 -12.9 34.15 M-47.45 34.5 L-47.75 34.0 Q-47.85 33.55 -47.3 33.15 L-45.7 33.0 -44.65 33.5 -44.4 33.75 -44.25 34.05 Q-44.55 34.5 -45.15 34.45 L-45.25 34.35 -47.45 34.5 M-45.5 52.25 L-45.2 53.65 Q-44.8 54.45 -45.2 54.65 -45.9 54.55 -46.1 54.2 L-46.4 53.65 -46.6 52.55 Q-46.6 51.75 -46.4 51.7 L-45.85 51.3 Q-45.7 51.0 -45.65 51.4 L-45.5 52.25 M-11.3 50.9 Q-11.15 51.25 -11.55 51.6 L-12.95 51.8 Q-13.95 51.7 -14.15 50.95 -14.3 50.2 -13.65 49.95 -13.55 49.85 -13.4 50.05 L-13.3 50.05 -13.2 50.25 -12.7 50.65 -11.75 50.7 Q-11.45 50.5 -11.3 50.9 M-29.1 60.25 Q-28.85 60.3 -28.35 60.6 L-27.4 60.75 -26.7 60.7 Q-26.35 60.8 -26.45 61.05 L-26.55 61.45 -27.05 61.75 -28.4 61.85 -29.35 61.25 -29.35 60.65 -29.1 60.25" fill="#ff5d5d" fill-rule="evenodd" stroke="none"/>
      <path d="M-34.9 24.05 Q-34.95 23.1 -34.4 22.05 -33.7 20.75 -32.25 20.45 L-29.45 20.75 Q-28.15 21.65 -27.75 23.05 L-27.75 23.15 Q-27.35 24.45 -28.15 25.75 -28.6 26.7 -29.35 27.15 L-30.35 27.45 -30.9 27.55 Q-32.05 27.7 -33.1 27.1 -34.4 26.45 -34.85 24.9 L-34.9 24.05 M-31.25 22.95 L-30.85 23.2 -30.3 23.85 Q-29.9 24.6 -29.55 23.95 L-29.55 23.9 -29.45 23.85 -29.4 23.7 -29.5 23.1 -29.65 22.7 Q-29.8 22.05 -30.55 21.95 L-31.55 22.0 -31.9 22.45 Q-31.95 22.9 -31.25 22.95" fill="url(#gradient19)" fill-rule="evenodd" stroke="none"/>
      <path d="M-5.7 56.45 L-9.05 57.1 -10.05 53.9 -9.65 53.55 -6.7 53.6 -5.7 56.45 M-29.75 70.45 L-31.55 68.2 -28.8 65.75 -27.25 68.5 -29.75 70.45 M-54.05 55.0 L-53.55 52.45 -49.4 54.05 -50.5 56.2 -54.05 55.0 M-54.15 28.1 L-50.65 27.5 -49.55 31.3 -52.95 31.2 -54.15 28.1 M-29.7 11.8 L-26.85 15.15 -27.05 19.8 -29.3 19.1 -29.35 19.15 -29.35 19.05 -30.3 17.3 -29.7 11.8 M-4.55 27.35 L-5.8 31.2 -9.65 29.7 -9.8 29.5 -9.55 29.15 -7.75 26.45 -4.55 27.35" fill="#ffffff" fill-rule="evenodd" stroke="none"/>
      <path d="M-27.75 23.15 L-26.2 23.45 -25.4 23.7 Q-27.05 23.8 -26.8 24.5 L-25.15 24.55 -23.35 24.95 -23.05 24.75 -18.65 27.15 -17.6 27.8 -18.1 28.3 Q-18.75 29.75 -18.4 31.1 -18.05 32.65 -16.75 33.25 -15.5 34.0 -14.05 33.7 L-12.9 33.15 -12.5 33.85 Q-11.1 37.15 -11.2 41.6 -11.35 43.75 -11.65 45.7 L-13.55 45.75 Q-14.95 46.1 -15.75 47.35 L-15.45 46.55 -14.9 44.55 -13.95 44.25 -12.75 44.0 Q-12.3 40.85 -13.1 37.5 L-13.85 35.3 -16.7 35.1 -16.85 35.1 -17.1 34.45 -17.7 33.45 -18.05 33.0 -18.6 31.85 -18.95 31.6 -19.35 31.15 -20.05 30.45 -20.05 30.4 Q-20.2 29.3 -19.65 28.1 L-20.75 27.5 Q-23.45 25.9 -26.35 25.45 L-26.85 26.6 -27.05 26.95 -29.35 27.15 Q-28.6 26.7 -28.15 25.75 -27.35 24.45 -27.75 23.15 M-14.95 52.0 L-15.95 53.4 -16.1 53.6 -16.75 54.05 Q-17.55 54.65 -17.45 54.9 L-17.7 55.15 -18.35 55.65 -19.0 56.15 -22.05 57.5 -24.1 58.15 Q-24.6 57.05 -25.7 56.45 -26.95 55.8 -28.5 56.1 -29.9 56.45 -30.7 57.75 L-31.2 58.9 -32.15 58.8 -32.25 58.65 -33.0 58.45 -37.45 57.15 Q-38.7 56.4 -40.05 55.7 L-41.15 55.05 -40.75 54.3 Q-39.85 53.05 -40.25 51.6 -40.7 50.1 -41.95 49.35 -43.2 48.65 -44.75 49.0 L-45.5 49.25 -45.7 48.35 -45.55 48.2 -45.45 47.95 -45.7 46.35 -46.0 45.15 Q-46.4 44.05 -46.45 45.55 L-46.65 44.25 Q-47.25 41.25 -47.0 39.25 -46.25 39.45 -45.3 39.25 -43.8 39.0 -43.05 37.6 -42.25 36.3 -42.6 34.9 -43.05 33.45 -44.25 32.65 L-43.75 31.55 -43.45 31.5 -41.2 28.75 -41.05 28.55 -41.0 28.55 -40.1 27.8 -39.75 27.45 -39.0 26.9 -37.3 25.65 Q-35.6 24.4 -34.9 24.05 L-34.85 24.9 Q-34.4 26.45 -33.1 27.1 -32.05 27.7 -30.9 27.55 L-33.65 28.6 -33.7 28.65 -33.75 28.6 -33.95 28.5 Q-35.2 27.9 -35.8 26.7 -39.75 28.55 -42.3 32.2 L-41.55 33.35 -41.15 34.4 -41.05 34.9 -41.45 36.0 -42.05 37.8 -42.5 39.35 -42.65 39.4 -43.45 40.15 -43.7 40.3 -44.95 40.75 -45.35 40.85 Q-45.4 43.2 -44.8 45.75 L-44.3 47.35 Q-42.85 47.2 -41.55 47.8 L-41.15 48.0 -40.75 48.25 -41.15 47.55 -42.05 45.0 -42.5 42.25 -41.7 44.65 -40.85 46.45 -39.8 48.55 -39.15 49.75 -38.6 50.55 -37.65 51.9 -37.8 51.9 -38.9 50.8 -38.75 51.2 -38.6 52.8 Q-38.65 53.7 -39.0 54.55 L-37.15 55.8 Q-34.85 57.15 -32.3 57.7 L-32.05 56.95 -31.0 55.8 -30.05 55.15 -30.95 55.05 Q-33.45 54.7 -35.75 53.3 -34.05 54.1 -31.45 54.7 L-24.75 55.15 Q-23.7 55.85 -23.05 56.85 -19.25 55.5 -16.65 52.5 -17.3 51.7 -17.6 50.6 -16.75 49.5 -16.0 48.0 -16.35 49.1 -16.1 50.1 -15.75 51.35 -14.95 52.0 M-12.9 34.15 Q-13.2 34.6 -12.7 35.85 L-12.2 37.65 -11.75 37.75 Q-11.55 37.65 -12.35 34.55 -12.6 33.75 -12.9 34.15" fill="#ad0000" fill-rule="evenodd" stroke="none"/>
      <path d="M-29.7 33.1 L-28.75 33.15 -28.75 34.75 Q-27.45 34.9 -26.3 35.55 L-26.15 35.6 Q-25.6 35.9 -25.15 36.3 L-24.15 35.25 -23.5 35.9 Q-23.0 36.4 -22.8 36.85 -24.0 37.65 -23.9 37.9 L-23.3 37.95 -22.45 37.55 -22.05 38.3 -23.2 39.1 -22.95 39.75 Q-22.55 41.15 -22.8 42.45 L-22.85 42.8 -20.8 43.25 -21.3 45.0 -21.9 44.65 Q-23.5 43.85 -23.05 44.75 L-21.6 45.75 -22.3 46.85 -24.2 45.7 -24.35 45.85 Q-25.4 47.15 -26.85 47.8 L-26.4 49.45 -29.0 49.65 -29.0 48.6 -29.25 48.25 Q-29.75 48.4 -29.9 49.55 L-30.6 49.45 -30.5 48.2 -30.85 48.2 -31.25 48.0 -31.5 47.9 -32.95 47.25 -33.45 46.9 -34.2 47.65 -34.4 47.3 -34.7 46.85 -35.9 45.6 Q-36.05 45.2 -36.35 45.05 L-36.55 44.8 -35.6 44.25 -36.05 43.2 -36.1 42.9 -36.25 41.05 -36.25 40.85 -37.8 40.7 -37.9 40.4 -37.85 38.65 Q-36.4 39.45 -36.05 39.35 L-35.75 39.1 -35.85 38.8 -37.5 37.6 -37.2 37.35 -36.85 36.85 -36.65 36.65 -35.15 37.75 Q-34.0 36.05 -32.25 35.3 L-31.95 35.2 -32.3 33.75 -31.9 33.55 -30.45 33.15 -30.45 33.5 Q-30.35 33.9 -30.0 33.75 L-29.7 33.1 M-29.15 47.2 L-28.05 47.05 -27.1 46.7 Q-26.0 46.1 -25.15 45.1 L-24.6 44.4 Q-24.05 43.45 -23.9 42.5 -23.7 41.25 -23.95 40.1 L-24.05 39.65 Q-24.65 38.0 -25.9 37.05 L-26.65 36.5 Q-27.55 36.05 -28.45 35.95 L-28.8 35.85 -29.3 35.75 -29.65 35.85 -30.9 35.95 -31.7 36.25 Q-33.25 36.85 -34.15 38.3 L-34.35 38.6 Q-35.05 39.75 -35.1 40.95 L-34.95 42.9 -34.65 43.7 Q-34.1 45.15 -32.7 46.0 L-32.35 46.3 -30.4 47.05 -29.15 47.2" fill="#950000" fill-rule="evenodd" stroke="none"/>
      <path d="M-29.3 35.75 L-28.8 35.85 -28.45 35.95 Q-27.55 36.05 -26.65 36.5 L-25.9 37.05 Q-24.65 38.0 -24.05 39.65 L-23.95 40.1 Q-23.7 41.25 -23.9 42.5 -24.05 43.45 -24.6 44.4 L-25.15 45.1 Q-26.0 46.1 -27.1 46.7 L-28.05 47.05 -29.15 47.2 Q-27.05 45.95 -25.95 43.85 -24.8 41.45 -25.65 39.2 -25.9 38.6 -26.5 37.85 L-27.05 37.15 Q-27.25 36.7 -29.3 35.75" fill="#383838" fill-rule="evenodd" stroke="none"/>
      <path d="M-29.15 47.2 L-30.4 47.05 -32.35 46.3 -32.7 46.0 Q-34.1 45.15 -34.65 43.7 L-34.95 42.9 -35.1 40.95 Q-35.05 39.75 -34.35 38.6 L-34.15 38.3 Q-33.25 36.85 -31.7 36.25 L-30.9 35.95 -29.65 35.85 -29.3 35.75 Q-27.25 36.7 -27.05 37.15 L-26.5 37.85 Q-25.9 38.6 -25.65 39.2 -24.8 41.45 -25.95 43.85 -27.05 45.95 -29.15 47.2 M-32.8 38.05 L-32.45 37.9 -32.15 37.9 -32.15 37.55 -32.4 37.55 -32.75 37.75 -33.1 37.95 Q-33.75 38.25 -34.15 39.1 L-34.3 40.15 -34.2 40.4 -33.9 39.55 -33.4 38.7 -32.8 38.05 M-31.75 40.2 Q-32.3 41.05 -31.95 42.05 -31.7 43.15 -30.75 43.65 L-29.65 44.15 -28.85 44.05 Q-27.75 43.75 -27.15 42.8 -26.65 41.85 -26.95 40.8 -27.15 39.8 -28.15 39.1 L-28.85 38.9 Q-29.45 38.75 -30.15 38.9 L-30.2 38.95 Q-31.15 39.15 -31.75 40.2" fill="url(#gradient20)" fill-rule="evenodd" stroke="none"/>
      <path d="M-32.8 38.05 L-33.4 38.7 -33.9 39.55 -34.2 40.4 -34.3 40.15 -34.15 39.1 Q-33.75 38.25 -33.1 37.95 L-32.75 37.75 -32.4 37.55 -32.15 37.55 -32.15 37.9 -32.45 37.9 -32.8 38.05 M-30.3 39.95 L-29.0 39.75 -29.5 43.15 -29.7 43.15 Q-30.3 43.05 -30.6 42.75 L-30.3 39.95" fill="#e0e0e0" fill-rule="evenodd" stroke="none"/>
      <path d="M-31.75 40.2 Q-31.15 39.15 -30.2 38.95 L-30.15 38.9 Q-29.45 38.75 -28.85 38.9 L-28.15 39.1 Q-27.15 39.8 -26.95 40.8 -26.65 41.85 -27.15 42.8 -27.75 43.75 -28.85 44.05 L-29.65 44.15 -30.75 43.65 Q-31.7 43.15 -31.95 42.05 -32.3 41.05 -31.75 40.2 M-30.3 39.95 L-30.6 42.75 Q-30.3 43.05 -29.7 43.15 L-29.5 43.15 -29.0 39.75 -30.3 39.95" fill="url(#gradient21)" fill-rule="evenodd" stroke="none"/>
      <path d="M-17.6 27.8 Q-16.95 26.95 -15.85 26.65 -14.35 26.4 -13.05 27.0 -12.0 27.75 -11.45 29.0 L-11.3 29.3 Q-11.0 30.65 -11.85 31.95 -12.15 32.7 -12.9 33.15 L-14.05 33.7 Q-15.5 34.0 -16.75 33.25 -18.05 32.65 -18.4 31.1 -18.75 29.75 -18.1 28.3 L-17.6 27.8 M-13.05 29.9 L-13.6 31.1 -14.85 31.55 -14.7 32.2 -14.05 32.35 -13.25 32.25 -13.2 32.25 -12.45 31.25 Q-12.1 30.55 -12.25 30.2 -12.5 29.75 -13.05 29.9" fill="url(#gradient22)" fill-rule="evenodd" stroke="none"/>
      <path d="M-11.65 45.7 L-10.75 46.05 Q-9.5 46.8 -9.1 48.35 -8.7 49.8 -9.5 51.0 -9.9 51.85 -10.55 52.3 L-11.75 52.75 Q-13.25 53.1 -14.45 52.35 L-14.95 52.0 Q-15.75 51.35 -16.1 50.1 -16.35 49.1 -16.0 48.0 L-15.8 47.4 -15.75 47.35 Q-14.95 46.1 -13.55 45.75 L-11.65 45.7 M-11.3 50.9 Q-11.45 50.5 -11.75 50.7 L-12.7 50.65 -13.2 50.25 -13.3 50.05 -13.4 50.05 Q-13.55 49.85 -13.65 49.95 -14.3 50.2 -14.15 50.95 -13.95 51.7 -12.95 51.8 L-11.55 51.6 Q-11.15 51.25 -11.3 50.9" fill="url(#gradient23)" fill-rule="evenodd" stroke="none"/>
      <path d="M-47.0 39.25 L-47.2 39.3 -48.0 38.85 Q-49.25 38.3 -49.75 36.65 -50.05 35.3 -49.35 33.8 L-48.95 33.4 Q-48.25 32.55 -47.1 32.2 -45.6 31.9 -44.3 32.55 L-44.25 32.65 Q-43.05 33.45 -42.6 34.9 -42.25 36.3 -43.05 37.6 -43.8 39.0 -45.3 39.25 -46.25 39.45 -47.0 39.25 M-47.45 34.5 L-45.25 34.35 -45.15 34.45 Q-44.55 34.5 -44.25 34.05 L-44.4 33.75 -44.65 33.5 -45.7 33.0 -47.3 33.15 Q-47.85 33.55 -47.75 34.0 L-47.45 34.5" fill="url(#gradient24)" fill-rule="evenodd" stroke="none"/>
      <path d="M-45.7 48.35 Q-46.05 48.5 -46.2 48.05 -46.55 47.25 -46.45 45.65 L-46.45 45.55 Q-46.4 44.05 -46.0 45.15 L-45.7 46.35 -45.45 47.95 -45.55 48.2 -45.7 48.35" fill="#ffaaaa" fill-rule="evenodd" stroke="none"/>
      <path d="M-41.15 55.05 Q-41.85 55.8 -42.95 56.05 -44.4 56.35 -45.7 55.7 -47.05 54.55 -47.3 53.45 -47.7 52.05 -46.95 50.6 -46.4 49.7 -45.5 49.25 L-44.75 49.0 Q-43.2 48.65 -41.95 49.35 -40.7 50.1 -40.25 51.6 -39.85 53.05 -40.75 54.3 L-41.15 55.05 M-45.5 52.25 L-45.65 51.4 Q-45.7 51.0 -45.85 51.3 L-46.4 51.7 Q-46.6 51.75 -46.6 52.55 L-46.4 53.65 -46.1 54.2 Q-45.9 54.55 -45.2 54.65 -44.8 54.45 -45.2 53.65 L-45.5 52.25" fill="url(#gradient25)" fill-rule="evenodd" stroke="none"/>
      <path d="M-24.1 58.15 L-23.95 58.75 Q-23.65 60.15 -24.4 61.45 -25.1 62.75 -26.55 63.2 -28.1 63.5 -29.4 62.75 -30.65 62.05 -31.05 60.55 L-31.2 58.9 -30.7 57.75 Q-29.9 56.45 -28.5 56.1 -26.95 55.8 -25.7 56.45 -24.6 57.05 -24.1 58.15 M-29.1 60.25 L-29.35 60.65 -29.35 61.25 -28.4 61.85 -27.05 61.75 -26.55 61.45 -26.45 61.05 Q-26.35 60.8 -26.7 60.7 L-27.4 60.75 -28.35 60.6 Q-28.85 60.3 -29.1 60.25" fill="url(#gradient26)" fill-rule="evenodd" stroke="none"/>
      <path d="M1.15 55.15 L1.15 55.25 -5.7 56.45 -9.05 57.1 -14.9 58.05 -12.75 54.4 -14.2 54.2 Q-17.35 58.05 -22.25 59.8 L-22.45 60.95 -17.1 60.6 -25.7 75.15 -29.75 70.45 -31.55 68.2 -36.35 62.55 -31.8 62.65 -32.55 61.05 -32.65 60.65 Q-35.7 60.0 -38.65 58.35 L-40.85 56.85 -42.55 57.55 -42.55 57.6 -37.65 61.6 -55.75 62.35 -54.05 55.0 -53.55 52.45 -52.2 46.25 -48.45 50.2 -48.3 49.85 -47.1 48.5 -47.65 46.5 Q-48.45 43.5 -48.3 40.45 L-48.85 40.25 -50.15 39.25 -51.85 44.55 -61.75 29.7 -54.15 28.1 -50.65 27.5 -43.0 25.8 -46.0 30.55 -44.9 30.7 Q-41.7 25.95 -36.5 23.75 -36.55 22.95 -36.25 22.25 L-41.55 24.45 -33.55 7.35 -29.7 11.8 -26.85 15.15 -21.8 21.35 -27.05 21.0 Q-26.6 21.65 -26.3 22.35 -22.65 23.0 -19.2 24.85 L-17.7 25.85 Q-17.05 25.45 -16.2 25.2 L-15.95 25.1 -20.6 22.0 -2.35 20.75 -4.55 27.35 -5.8 31.2 -8.0 37.85 -10.2 32.45 -10.45 32.85 -11.15 33.8 -10.25 36.7 Q-9.15 40.85 -9.75 44.8 L-8.7 45.55 -7.55 39.85 1.15 55.15 -2.45 53.65 -6.7 53.6 -9.65 53.55 -10.05 53.9 -14.9 58.05 M-7.75 26.45 L-5.6 23.25 -5.55 23.1 -13.1 24.95 -20.6 22.0 M-13.25 25.3 L-12.3 25.75 Q-10.4 26.7 -9.8 28.9 L-9.8 29.5 -9.55 29.15 -7.75 26.45 M-5.55 23.1 L-2.35 20.75 M-32.95 12.0 L-33.55 7.35 M-36.25 22.25 L-35.9 21.35 -34.75 20.05 -41.55 24.45 M-34.75 20.05 Q-33.85 19.35 -32.7 18.9 -31.6 18.65 -30.45 18.9 L-29.35 19.05 -30.3 17.3 -32.95 12.0 -34.75 20.05 M-29.3 19.1 Q-29.05 19.25 -28.7 19.5 -27.8 19.95 -27.05 20.8 L-27.05 21.0 M-29.35 19.05 L-29.35 19.15 -29.3 19.1 -27.05 19.8 -21.8 21.35 M-28.75 33.15 L-28.55 30.25 Q-25.85 30.45 -23.15 31.9 L-21.8 32.85 -24.15 35.25 -25.15 36.3 Q-25.6 35.9 -26.15 35.6 L-26.3 35.55 Q-27.45 34.9 -28.75 34.75 L-28.75 33.15 M-22.05 38.3 L-18.95 36.4 Q-18.35 37.5 -18.1 38.75 -17.35 41.45 -17.85 43.95 L-20.8 43.25 -22.85 42.8 -22.8 42.45 Q-22.55 41.15 -22.95 39.75 L-23.2 39.1 -22.05 38.3 M-22.3 46.85 L-19.8 48.3 Q-22.0 51.3 -25.6 52.35 L-26.4 49.45 -26.85 47.8 Q-25.4 47.15 -24.35 45.85 L-24.2 45.7 -22.3 46.85 M-30.6 49.45 L-30.75 52.75 Q-32.75 52.4 -34.65 51.35 L-36.25 50.2 -34.2 47.65 -33.45 46.9 -32.95 47.25 -31.5 47.9 M-36.55 44.8 L-39.15 46.4 -39.95 44.45 Q-40.4 42.4 -40.2 40.45 L-37.8 40.7 -36.25 40.85 -36.25 41.05 -36.1 42.9 -36.05 43.2 -35.6 44.25 -36.55 44.8 M-36.65 36.65 L-38.35 35.5 Q-36.5 32.3 -33.0 31.1 L-32.3 33.75 -31.95 35.2 -32.25 35.3 Q-34.0 36.05 -35.15 37.75 L-36.65 36.65 M-27.05 26.95 L-26.85 26.6 -26.35 25.45 Q-23.45 25.9 -20.75 27.5 L-19.65 28.1 Q-20.2 29.3 -20.05 30.4 L-20.05 31.0 -20.25 31.25 -19.9 31.5 -20.05 31.0 M-16.85 35.1 L-16.7 35.1 -13.85 35.3 -13.1 37.5 Q-12.3 40.85 -12.75 44.0 L-13.95 44.25 -14.9 44.55 -15.2 44.75 -15.9 45.15 -15.65 44.6 Q-15.0 41.45 -15.85 38.15 -16.25 36.5 -16.95 35.25 L-17.05 34.9 -16.85 35.1 M-27.05 26.95 L-28.15 28.15 Q-25.1 28.25 -22.15 29.95 -21.15 30.5 -20.25 31.25 M-33.65 28.6 L-33.7 28.65 -33.75 28.6 -33.95 28.5 Q-35.2 27.9 -35.8 26.7 -39.75 28.55 -42.3 32.2 L-41.55 33.35 -41.15 34.4 -41.05 34.9 -40.95 35.7 -40.55 34.8 -40.25 34.25 Q-37.85 30.45 -33.55 28.95 L-33.65 28.6 -33.25 28.9 -33.55 28.95 M-30.6 49.45 L-30.5 48.2 -30.85 48.2 -31.25 48.0 M-9.8 29.5 L-9.65 29.7 Q-9.5 31.0 -10.2 32.45 M-16.95 35.25 L-16.8 35.15 -16.7 35.1 M-15.95 25.1 L-13.25 25.3 M-15.65 44.6 L-15.2 44.75 M-24.75 55.15 L-24.85 55.05 -24.9 55.05 -25.75 54.7 -25.45 54.7 -25.05 54.55 Q-20.6 53.25 -17.85 49.4 L-17.75 49.35 -17.75 49.45 -17.6 50.6 Q-17.3 51.7 -16.65 52.5 -19.25 55.5 -23.05 56.85 -23.7 55.85 -24.75 55.15 M-17.75 49.45 L-17.85 49.4 M-7.45 48.4 L-7.55 39.85 M-8.7 45.55 Q-7.9 46.55 -7.55 47.9 L-7.45 48.4 -7.45 48.55 -2.45 53.65 M-8.0 37.85 L-9.65 29.7 M-49.05 31.3 Q-48.45 30.95 -47.6 30.75 L-46.0 30.55 M-49.05 31.3 L-49.55 31.3 -52.95 31.2 -58.55 31.1 -51.5 36.25 -51.45 34.95 Q-51.3 33.95 -50.8 33.1 L-49.5 31.6 -49.05 31.3 -43.0 25.8 M-42.5 39.35 L-42.15 39.0 -42.4 40.25 -42.5 42.25 -42.05 45.0 -41.15 47.55 -41.55 47.8 -41.15 48.0 -40.75 48.25 -41.15 47.55 M-36.0 53.15 L-35.9 53.2 Q-35.85 53.2 -35.75 53.3 -33.45 54.7 -30.95 55.05 L-31.0 55.8 -30.05 55.15 -30.95 55.05 M-50.15 39.25 Q-50.9 38.3 -51.3 37.0 L-51.5 36.25 -51.85 44.55 M-42.65 39.4 L-43.45 40.15 -43.7 40.3 -44.95 40.75 -45.35 40.85 Q-45.4 43.2 -44.8 45.75 L-44.3 47.35 Q-42.85 47.2 -41.55 47.8 M-61.75 29.7 L-58.55 31.1 M-49.25 53.6 L-49.4 54.05 -50.5 56.2 -52.75 59.85 -45.3 57.6 -45.25 57.55 -46.5 57.0 Q-48.1 56.1 -48.7 54.3 L-48.8 53.9 -48.95 53.3 -49.25 53.6 -52.2 46.25 M-48.95 53.3 Q-49.2 51.65 -48.45 50.2 M-42.55 57.6 L-45.25 57.55 M-52.75 59.85 L-55.75 62.35 M-7.45 48.55 Q-7.25 49.75 -7.65 50.9 L-8.15 51.85 Q-8.75 52.9 -9.65 53.55 L-10.15 53.7 Q-10.65 54.05 -11.35 54.2 L-12.75 54.4 M-24.9 55.05 L-25.05 54.55 M-37.65 51.9 L-37.8 51.9 -38.9 50.8 -38.75 51.2 -38.6 52.8 Q-38.65 53.7 -39.0 54.55 L-37.15 55.8 Q-34.85 57.15 -32.3 57.7 L-32.05 56.95 -31.0 55.8 M-22.45 60.95 L-23.1 62.25 -23.75 63.3 -17.1 60.6 M-24.65 66.5 L-23.75 63.3 Q-24.65 64.25 -26.2 64.7 L-27.7 64.75 -29.55 64.5 -28.8 65.75 -27.25 68.5 -25.9 70.65 -24.8 66.8 M-29.55 64.5 L-29.7 64.45 -36.35 62.55 M-29.7 64.45 L-30.15 64.1 Q-31.1 63.6 -31.8 62.65 M-25.9 70.65 L-25.7 75.15 M-45.3 57.6 L-37.65 61.6" fill="none" stroke="#000000" stroke-linecap="round" stroke-linejoin="round" stroke-opacity="0.5019608" stroke-width="1.0"/>
      <path d="M-34.9 24.05 Q-34.95 23.1 -34.4 22.05 -33.7 20.75 -32.25 20.45 L-29.45 20.75 Q-28.15 21.65 -27.75 23.05 L-27.75 23.15 Q-27.35 24.45 -28.15 25.75 -28.6 26.7 -29.35 27.15 L-30.35 27.45 -30.9 27.55 Q-32.05 27.7 -33.1 27.1 -34.4 26.45 -34.85 24.9 L-34.9 24.05 M-17.6 27.8 Q-16.95 26.95 -15.85 26.65 -14.35 26.4 -13.05 27.0 -12.0 27.75 -11.45 29.0 L-11.3 29.3 Q-11.0 30.65 -11.85 31.95 -12.15 32.7 -12.9 33.15 L-14.05 33.7 Q-15.5 34.0 -16.75 33.25 -18.05 32.65 -18.4 31.1 -18.75 29.75 -18.1 28.3 L-17.6 27.8 M-11.65 45.7 L-10.75 46.05 Q-9.5 46.8 -9.1 48.35 -8.7 49.8 -9.5 51.0 -9.9 51.85 -10.55 52.3 L-11.75 52.75 Q-13.25 53.1 -14.45 52.35 L-14.95 52.0 Q-15.75 51.35 -16.1 50.1 -16.35 49.1 -16.0 48.0 M-24.1 58.15 L-23.95 58.75 Q-23.65 60.15 -24.4 61.45 -25.1 62.75 -26.55 63.2 -28.1 63.5 -29.4 62.75 -30.65 62.05 -31.05 60.55 L-31.2 58.9 -30.7 57.75 Q-29.9 56.45 -28.5 56.1 -26.95 55.8 -25.7 56.45 -24.6 57.05 -24.1 58.15 M-41.15 55.05 Q-41.85 55.8 -42.95 56.05 -44.4 56.35 -45.7 55.7 -47.05 54.55 -47.3 53.45 -47.7 52.05 -46.95 50.6 -46.4 49.7 -45.5 49.25 L-44.75 49.0 Q-43.2 48.65 -41.95 49.35 -40.7 50.1 -40.25 51.6 -39.85 53.05 -40.75 54.3 L-41.15 55.05 M-47.0 39.25 L-47.2 39.3 -48.0 38.85 Q-49.25 38.3 -49.75 36.65 -50.05 35.3 -49.35 33.8 L-48.95 33.4 Q-48.25 32.55 -47.1 32.2 -45.6 31.9 -44.3 32.55 L-44.25 32.65 Q-43.05 33.45 -42.6 34.9 -42.25 36.3 -43.05 37.6 -43.8 39.0 -45.3 39.25 -46.25 39.45 -47.0 39.25 M-15.75 47.35 Q-14.95 46.1 -13.55 45.75 L-11.65 45.7 M-29.3 35.75 L-28.8 35.85 -28.45 35.95 Q-27.55 36.05 -26.65 36.5 L-25.9 37.05 Q-24.65 38.0 -24.05 39.65 L-23.95 40.1 Q-23.7 41.25 -23.9 42.5 -24.05 43.45 -24.6 44.4 L-25.15 45.1 Q-26.0 46.1 -27.1 46.7 L-28.05 47.05 -29.15 47.2 -30.4 47.05 -32.35 46.3 -32.7 46.0 Q-34.1 45.15 -34.65 43.7 L-34.95 42.9 -35.1 40.95 Q-35.05 39.75 -34.35 38.6 L-34.15 38.3 Q-33.25 36.85 -31.7 36.25 L-30.9 35.95 -29.65 35.85 -29.3 35.75 M-31.75 40.2 Q-31.15 39.15 -30.2 38.95 L-30.15 38.9 Q-29.45 38.75 -28.85 38.9 L-28.15 39.1 Q-27.15 39.8 -26.95 40.8 -26.65 41.85 -27.15 42.8 -27.75 43.75 -28.85 44.05 L-29.65 44.15 -30.75 43.65 Q-31.7 43.15 -31.95 42.05 -32.3 41.05 -31.75 40.2" fill="none" stroke="#000000" stroke-linecap="round" stroke-linejoin="round" stroke-opacity="0.5019608" stroke-width="0.75"/>
      <path d="M-61.8 29.3 L-62.95 27.25 -64.25 23.8 Q-65.15 20.55 -66.45 12.95 L-68.55 -0.4 Q-69.4 -6.2 -69.15 -10.65 L-68.6 -17.6 Q-68.45 -20.15 -67.75 -22.6 -66.3 -28.65 -64.2 -35.15 -62.15 -41.75 -58.55 -50.95 L-56.45 -56.1 -54.9 -60.1 -54.85 -60.2 Q-30.75 -60.5 -18.85 -46.0 L-24.75 -30.75 -27.8 -21.7 -28.35 -19.1 Q-29.1 -15.7 -29.1 -14.35 L-28.7 -10.3 Q-28.35 -7.75 -27.7 -6.25 L-27.5 -5.7 -25.75 -5.65 -24.3 -5.6 -23.6 -4.85 -22.9 -2.95 -22.9 -2.75 -22.1 0.0 -22.05 0.3 -21.65 1.95 -21.7 2.3 -21.9 2.6 -22.4 2.9 -22.4 2.95 Q-24.8 3.25 -27.15 4.8 L-27.65 5.2 Q-29.4 6.55 -29.55 7.75 L-30.4 13.65 -30.35 16.75 Q-30.35 18.1 -30.7 19.0 L-30.9 19.5 -32.55 22.2 -32.9 22.85 Q-33.35 23.75 -33.35 25.4 L-33.4 27.45 -33.3 30.15 -33.0 32.35 -32.95 33.0 -32.95 33.05 -33.2 33.7 Q-34.25 34.3 -35.85 34.25 -38.1 34.2 -41.2 32.25 -43.6 29.8 -43.7 29.9 L-44.0 30.15 -44.15 31.2 -44.1 31.5 -44.15 31.5 -44.35 31.7 -44.4 31.75 -44.4 31.8 -44.55 32.5 -45.35 33.0 Q-47.0 34.25 -49.8 34.35 -52.65 34.4 -55.4 30.35 -58.2 26.3 -58.45 26.65 L-58.8 27.45 Q-58.8 28.45 -57.9 29.9 L-57.4 30.65 -57.7 30.6 Q-60.2 30.25 -61.8 29.3" fill="#999999" fill-rule="evenodd" stroke="none"/>
      <path d="M-54.85 -60.2 L-54.9 -60.1 -56.45 -56.1 -58.55 -50.95 Q-62.15 -41.75 -64.2 -35.15 -66.3 -28.65 -67.75 -22.6 -68.45 -20.15 -68.6 -17.6 L-69.15 -10.65 Q-69.4 -6.2 -68.55 -0.4 L-66.45 12.95 Q-65.15 20.55 -64.25 23.8 L-62.95 27.25 -61.8 29.3 -63.3 27.9 -63.5 27.65 Q-65.15 25.4 -66.15 22.55 -67.25 19.45 -68.8 12.2 L-71.3 -0.6 Q-72.3 -6.15 -72.05 -10.4 L-71.6 -17.05 Q-71.4 -19.45 -70.7 -21.8 -69.15 -27.6 -66.9 -33.8 -64.7 -40.1 -60.8 -48.9 L-57.75 -55.7 -56.35 -58.9 Q-55.85 -60.15 -56.15 -59.65 L-56.15 -59.7 -56.15 -60.15 -55.95 -60.15 -54.85 -60.2 M-44.55 32.5 L-44.4 31.8 -44.4 31.75 -44.35 31.7 -44.15 31.5 -44.1 31.5 -43.95 32.1 -43.9 32.15 -44.0 32.2 -44.55 32.5 M-33.2 33.7 L-32.95 33.05 -32.95 33.0 -33.0 32.35 -33.3 30.15 -33.4 27.45 -33.35 25.4 Q-33.35 23.75 -32.9 22.85 L-32.55 22.2 -30.9 19.5 -30.7 19.0 Q-30.35 18.1 -30.35 16.75 L-30.4 13.65 -29.55 7.75 Q-29.4 6.55 -27.65 5.2 L-27.15 4.8 Q-24.8 3.25 -22.4 2.95 L-22.4 2.9 -21.9 2.6 -21.7 2.3 -21.65 1.95 -22.05 0.3 -22.1 0.0 -22.9 -2.75 -22.9 -2.95 -23.6 -4.85 -24.3 -5.6 -22.55 -5.65 Q-21.85 -5.65 -21.35 -4.85 L-20.55 -3.0 -20.5 -2.85 -19.65 -0.2 -19.5 0.1 -19.1 1.65 -19.35 2.3 -19.95 2.55 -19.95 2.6 -20.6 2.7 Q-22.9 3.1 -25.15 4.4 L-26.8 5.6 Q-27.7 6.4 -27.8 7.2 L-28.65 12.85 -28.6 15.8 Q-28.55 17.55 -29.15 18.45 L-29.8 19.4 -31.35 21.65 -31.7 22.6 -31.85 24.1 -31.85 26.05 -31.75 28.6 -31.25 31.35 -31.25 31.4 Q-31.35 31.85 -32.1 32.75 L-32.45 33.15 -33.2 33.7 M-25.75 -5.65 L-27.5 -5.7 -27.7 -6.25 Q-28.35 -7.75 -28.7 -10.3 L-29.1 -14.35 Q-29.1 -15.7 -28.35 -19.1 L-27.8 -21.7 -24.75 -30.75 -18.85 -46.0 -16.85 -43.4 -22.95 -29.6 Q-25.1 -24.6 -26.25 -20.95 L-26.85 -18.45 Q-27.6 -15.2 -27.6 -13.9 L-27.1 -10.05 Q-26.65 -7.6 -25.95 -6.2 L-25.75 -5.65" fill="#bdbdbd" fill-rule="evenodd" stroke="none"/>
      <path d="M-61.8 29.3 Q-60.2 30.25 -57.7 30.6 L-57.4 30.65 -57.9 29.9 Q-58.8 28.45 -58.8 27.45 L-58.45 26.65 Q-58.2 26.3 -55.4 30.35 -52.65 34.4 -49.8 34.35 -47.0 34.25 -45.35 33.0 L-44.55 32.5 -44.0 32.2 -43.9 32.15 -43.95 32.1 -44.1 31.5 -44.15 31.2 -44.0 30.15 -43.7 29.9 Q-43.6 29.8 -41.2 32.25 -38.1 34.2 -35.85 34.25 -34.25 34.3 -33.2 33.7 L-32.45 33.15 -32.1 32.75 Q-31.35 31.85 -31.25 31.4 L-31.25 31.35 -31.75 28.6 -31.85 26.05 -31.85 24.1 -31.7 22.6 -31.35 21.65 -29.8 19.4 -29.15 18.45 Q-28.55 17.55 -28.6 15.8 L-28.65 12.85 -27.8 7.2 Q-27.7 6.4 -26.8 5.6 L-25.15 4.4 Q-22.9 3.1 -20.6 2.7 L-19.95 2.6 -19.95 2.55 -19.35 2.3 -19.1 1.65 -19.5 0.1 -19.65 -0.2 -20.5 -2.85 -20.55 -3.0 -21.35 -4.85 Q-21.85 -5.65 -22.55 -5.65 L-24.3 -5.6 -25.75 -5.65 -25.95 -6.2 Q-26.65 -7.6 -27.1 -10.05 L-27.6 -13.9 Q-27.6 -15.2 -26.85 -18.45 L-26.25 -20.95 Q-25.1 -24.6 -22.95 -29.6 L-16.85 -43.4 -16.7 -43.8 -16.15 -43.45 -16.0 -43.3 Q-15.7 -42.9 -15.7 -42.05 -18.35 -37.05 -20.95 -30.95 -26.2 -18.85 -26.2 -12.95 L-25.7 -9.05 -25.25 -7.25 -25.15 -7.0 -22.85 -7.3 -20.5 -7.0 -19.7 -5.6 Q-18.35 -2.95 -17.8 0.05 L-17.65 0.7 Q-17.3 2.4 -17.3 3.0 -17.3 3.9 -17.9 4.15 L-20.25 4.65 Q-22.0 4.9 -23.75 5.85 -25.55 6.75 -26.0 8.5 -26.55 10.2 -26.75 12.8 L-27.0 17.25 Q-27.05 19.15 -28.25 20.75 -29.5 22.35 -29.85 23.65 L-29.55 26.75 Q-29.55 28.05 -28.9 29.95 L-28.5 31.15 -28.6 32.1 -29.0 32.85 -29.05 33.0 -29.15 33.05 Q-29.7 33.95 -31.1 35.05 -33.3 36.7 -35.0 36.7 -38.95 36.7 -41.85 34.45 L-42.2 34.15 -43.8 35.0 Q-46.75 36.5 -48.45 36.5 L-48.75 36.5 Q-50.3 36.45 -51.75 35.8 -54.0 34.85 -56.0 32.5 L-56.0 32.45 -56.2 32.55 -56.65 32.65 -57.7 32.7 Q-65.1 32.7 -68.2 22.2 L-69.65 16.9 -70.9 11.25 -72.6 0.75 Q-73.9 -6.7 -73.9 -10.35 -73.9 -14.05 -72.55 -19.85 -71.2 -25.7 -63.7 -45.4 -56.85 -63.55 -56.2 -60.35 L-56.15 -60.15 -56.15 -59.7 -56.15 -59.65 Q-55.85 -60.15 -56.35 -58.9 L-57.75 -55.7 -60.8 -48.9 Q-64.7 -40.1 -66.9 -33.8 -69.15 -27.6 -70.7 -21.8 -71.4 -19.45 -71.6 -17.05 L-72.05 -10.4 Q-72.3 -6.15 -71.3 -0.6 L-68.8 12.2 Q-67.25 19.45 -66.15 22.55 -65.15 25.4 -63.5 27.65 L-63.3 27.9 -61.8 29.3" fill="#000000" fill-rule="evenodd" stroke="none"/>
      <path d="M-30.0 -25.6 L-24.95 -24.5 Q-21.8 -14.9 -23.9 -7.7 -26.25 -6.75 -28.7 -6.4 -27.5 -14.95 -29.5 -23.5 L-30.0 -25.6" fill="#404040" fill-rule="evenodd" stroke="none"/>
      <path d="M-30.0 -25.6 L-29.5 -23.5 Q-27.5 -14.95 -28.7 -6.4 L-36.9 -6.9 -39.35 -25.6 Q-34.8 -26.35 -30.0 -25.6" fill="#242424" fill-rule="evenodd" stroke="none"/>
      <path d="M-28.7 -6.4 Q-26.25 -6.75 -23.9 -7.7 -21.8 -14.9 -24.95 -24.5 L-30.0 -25.6 Q-34.8 -26.35 -39.35 -25.6 L-36.9 -6.9 -28.7 -6.4 Z" fill="none" stroke="#000000" stroke-linecap="round" stroke-linejoin="round" stroke-opacity="0.5019608" stroke-width="1.0"/>
      <path d="M-74.0 3.3 L-57.45 -14.35 Q-48.2 -23.55 -40.3 -30.5 L-34.1 -28.75 Q-31.65 -9.25 -33.85 11.95 -50.35 17.25 -68.45 17.45 -72.4 10.8 -74.0 3.3" fill="#404040" fill-rule="evenodd" stroke="none"/>
      <path d="M-74.0 3.3 Q-77.35 -10.9 -72.8 -27.9 -55.95 -34.05 -40.3 -30.5 -48.2 -23.55 -57.45 -14.35 L-74.0 3.3" fill="#595959" fill-rule="evenodd" stroke="none"/>
      <path d="M-40.3 -30.5 Q-55.95 -34.05 -72.8 -27.9 -77.35 -10.9 -74.0 3.3 -72.4 10.8 -68.45 17.45 -50.35 17.25 -33.85 11.95 -31.65 -9.25 -34.1 -28.75 L-40.3 -30.5 Z" fill="none" stroke="#000000" stroke-linecap="round" stroke-linejoin="round" stroke-opacity="0.5019608" stroke-width="1.0"/>
      <path d="M-40.85 -25.15 L-39.35 -24.85 -38.7 -17.45 -38.6 -16.25 -38.35 -7.4 -38.35 -6.25 Q-38.45 -1.5 -38.85 3.15 L-38.9 3.7 -39.4 8.2 -65.35 12.35 -66.45 9.3 -67.3 6.45 Q-68.45 2.3 -69.1 -1.7 L-69.35 -3.0 Q-69.95 -7.0 -70.05 -10.95 L-70.1 -13.45 Q-70.1 -17.9 -69.4 -22.25 L-69.35 -22.65 -69.2 -23.75 -67.95 -24.05 -60.9 -25.35 -57.7 -25.75 -50.1 -26.05 -48.85 -26.05 -40.9 -25.15 -40.85 -25.15" fill="url(#gradient27)" fill-rule="evenodd" stroke="none"/>
      <path d="M-50.1 -26.05 L-49.35 -25.4 -48.85 -26.05 M-70.1 -13.45 L-68.9 -12.4 -64.05 -18.15 -69.2 -22.55 -69.4 -22.25 M-69.2 -22.55 L-67.95 -24.05 M-69.1 -1.7 L-68.65 -2.35 -69.35 -3.0 M-68.65 -2.35 L-63.5 1.95 -58.75 -3.8 -63.8 -8.1 -68.65 -2.35 M-70.05 -10.95 L-68.9 -12.4 -63.8 -8.1 -59.0 -13.85 -64.05 -18.15 -59.25 -23.9 -60.9 -25.35 M-44.3 -21.1 L-49.35 -25.4 -54.2 -19.6 -49.1 -15.3 -44.3 -21.1 -40.9 -25.15 M-59.0 -13.85 L-54.2 -19.6 -59.25 -23.9 -57.7 -25.75 M-58.75 -3.8 L-53.95 -9.55 -59.0 -13.85 M-43.75 -0.95 L-38.95 -6.7 -44.05 -11.0 -48.8 -5.25 -43.75 -0.95 -38.6 3.35 -43.2 8.8 M-44.05 -11.0 L-49.1 -15.3 -53.95 -9.55 -48.8 -5.25 -53.65 0.5 -48.55 4.8 -43.75 -0.95 M-44.3 -21.1 L-39.25 -16.8 -38.7 -17.45 M-38.35 -7.4 L-38.95 -6.7 -38.35 -6.25 M-39.25 -16.8 L-38.6 -16.25 M-39.25 -16.8 L-44.05 -11.0 M-43.75 8.85 L-48.55 4.8 -53.25 10.45 -58.45 6.25 -63.2 12.0 -66.45 9.3 M-63.5 1.95 L-58.45 6.25 -53.65 0.5 -58.75 -3.8 M-63.5 1.95 L-67.3 6.45" fill="none" stroke="#000000" stroke-linecap="round" stroke-linejoin="round" stroke-opacity="0.3019608" stroke-width="0.5"/>
      <path d="M-40.85 -25.15 L-39.35 -24.85 -38.7 -17.45 -38.6 -16.25 -38.35 -7.4 -38.35 -6.25 Q-38.45 -1.5 -38.85 3.15 L-38.9 3.7 -39.4 8.2 -65.35 12.35 -66.45 9.3 -67.3 6.45 Q-68.45 2.3 -69.1 -1.7 L-69.35 -3.0 Q-69.95 -7.0 -70.05 -10.95 L-70.1 -13.45 Q-70.1 -17.9 -69.4 -22.25 L-69.35 -22.65 -69.2 -23.75 -67.95 -24.05 -60.9 -25.35 -57.7 -25.75 -50.1 -26.05 -48.85 -26.05 -40.9 -25.15 -40.85 -25.15 Z" fill="none" stroke="#000000" stroke-linecap="round" stroke-linejoin="round" stroke-opacity="0.5019608" stroke-width="1.0"/>
    </g>
    <radialGradient cx="0" cy="0" gradientTransform="matrix(0.0145, -0.0184, 0.0184, 0.0145, -12.95, 26.05)" gradientUnits="userSpaceOnUse" id="gradient0" r="819.2" spreadMethod="pad">
      <stop offset="0.42745098039215684" stop-color="#ad0000"/>
      <stop offset="0.8666666666666667" stop-color="#e70000"/>
    </radialGradient>
    <radialGradient cx="0" cy="0" gradientTransform="matrix(0.0034, -0.0043, 0.0043, 0.0034, -5.9, 8.6)" gradientUnits="userSpaceOnUse" id="gradient1" r="819.2" spreadMethod="pad">
      <stop offset="0.4470588235294118" stop-color="#ff0000"/>
      <stop offset="1.0" stop-color="#ad0000"/>
    </radialGradient>
    <linearGradient gradientTransform="matrix(0.0024, -0.0057, 0.0064, 0.0027, -12.65, 25.8)" gradientUnits="userSpaceOnUse" id="gradient2" spreadMethod="pad" x1="-819.2" x2="819.2">
      <stop offset="0.0" stop-color="#515151"/>
      <stop offset="0.3137254901960784" stop-color="#878787"/>
      <stop offset="1.0" stop-color="#2c2c2c"/>
    </linearGradient>
    <linearGradient gradientTransform="matrix(0.0024, -9.0E-4, 0.0012, 0.003, -12.65, 25.75)" gradientUnits="userSpaceOnUse" id="gradient3" spreadMethod="pad" x1="-819.2" x2="819.2">
      <stop offset="0.0" stop-color="#808080"/>
      <stop offset="0.3137254901960784" stop-color="#a6a6a6"/>
      <stop offset="1.0" stop-color="#808080"/>
    </linearGradient>
    <radialGradient cx="0" cy="0" gradientTransform="matrix(0.0031, -0.0039, 0.0039, 0.0031, -23.0, 11.8)" gradientUnits="userSpaceOnUse" id="gradient4" r="819.2" spreadMethod="pad">
      <stop offset="0.4470588235294118" stop-color="#ff0000"/>
      <stop offset="1.0" stop-color="#ad0000"/>
    </radialGradient>
    <radialGradient cx="0" cy="0" gradientTransform="matrix(0.0033, -0.0042, 0.0042, 0.0033, -29.85, 29.2)" gradientUnits="userSpaceOnUse" id="gradient5" r="819.2" spreadMethod="pad">
      <stop offset="0.4470588235294118" stop-color="#ff0000"/>
      <stop offset="1.0" stop-color="#ad0000"/>
    </radialGradient>
    <radialGradient cx="0" cy="0" gradientTransform="matrix(0.003, -0.0038, 0.0038, 0.003, -19.8, 42.55)" gradientUnits="userSpaceOnUse" id="gradient6" r="819.2" spreadMethod="pad">
      <stop offset="0.4470588235294118" stop-color="#ff0000"/>
      <stop offset="1.0" stop-color="#ad0000"/>
    </radialGradient>
    <radialGradient cx="0" cy="0" gradientTransform="matrix(0.0029, -0.0037, 0.0037, 0.0029, -1.7, 40.5)" gradientUnits="userSpaceOnUse" id="gradient7" r="819.2" spreadMethod="pad">
      <stop offset="0.4470588235294118" stop-color="#ff0000"/>
      <stop offset="1.0" stop-color="#ad0000"/>
    </radialGradient>
    <radialGradient cx="0" cy="0" gradientTransform="matrix(0.0031, -0.004, 0.004, 0.0031, 6.2, 23.9)" gradientUnits="userSpaceOnUse" id="gradient8" r="819.2" spreadMethod="pad">
      <stop offset="0.4470588235294118" stop-color="#ff0000"/>
      <stop offset="1.0" stop-color="#ad0000"/>
    </radialGradient>
    <radialGradient cx="0" cy="0" gradientTransform="matrix(0.0203, -0.0117, 0.0117, 0.0203, -21.2, 31.8)" gradientUnits="userSpaceOnUse" id="gradient9" r="819.2" spreadMethod="pad">
      <stop offset="0.42745098039215684" stop-color="#ad0000"/>
      <stop offset="0.8666666666666667" stop-color="#e70000"/>
    </radialGradient>
    <radialGradient cx="0" cy="0" gradientTransform="matrix(0.0044, -0.0025, 0.0025, 0.0044, -2.65, 36.9)" gradientUnits="userSpaceOnUse" id="gradient10" r="819.2" spreadMethod="pad">
      <stop offset="0.4470588235294118" stop-color="#ff0000"/>
      <stop offset="1.0" stop-color="#ad0000"/>
    </radialGradient>
    <radialGradient cx="0" cy="0" gradientTransform="matrix(0.0048, -0.0027, 0.0027, 0.0048, -8.25, 18.2)" gradientUnits="userSpaceOnUse" id="gradient11" r="819.2" spreadMethod="pad">
      <stop offset="0.4470588235294118" stop-color="#ff0000"/>
      <stop offset="1.0" stop-color="#ad0000"/>
    </radialGradient>
    <radialGradient cx="0" cy="0" gradientTransform="matrix(0.0043, -0.0025, 0.0025, 0.0043, -25.25, 14.8)" gradientUnits="userSpaceOnUse" id="gradient12" r="819.2" spreadMethod="pad">
      <stop offset="0.4470588235294118" stop-color="#ff0000"/>
      <stop offset="1.0" stop-color="#ad0000"/>
    </radialGradient>
    <linearGradient gradientTransform="matrix(0.0044, -0.0044, 0.0049, 0.0049, -20.85, 31.7)" gradientUnits="userSpaceOnUse" id="gradient13" spreadMethod="pad" x1="-819.2" x2="819.2">
      <stop offset="0.0" stop-color="#515151"/>
      <stop offset="0.3137254901960784" stop-color="#878787"/>
      <stop offset="1.0" stop-color="#2c2c2c"/>
    </linearGradient>
    <linearGradient gradientTransform="matrix(0.0025, 0.0, 0.0, 0.0032, -20.85, 31.6)" gradientUnits="userSpaceOnUse" id="gradient14" spreadMethod="pad" x1="-819.2" x2="819.2">
      <stop offset="0.0" stop-color="#808080"/>
      <stop offset="0.3137254901960784" stop-color="#a6a6a6"/>
      <stop offset="1.0" stop-color="#808080"/>
    </linearGradient>
    <radialGradient cx="0" cy="0" gradientTransform="matrix(0.0047, -0.0027, 0.0027, 0.0047, -38.05, 28.45)" gradientUnits="userSpaceOnUse" id="gradient15" r="819.2" spreadMethod="pad">
      <stop offset="0.4470588235294118" stop-color="#ff0000"/>
      <stop offset="1.0" stop-color="#ad0000"/>
    </radialGradient>
    <radialGradient cx="0" cy="0" gradientTransform="matrix(0.0042, -0.0024, 0.0024, 0.0042, -33.7, 44.55)" gradientUnits="userSpaceOnUse" id="gradient16" r="819.2" spreadMethod="pad">
      <stop offset="0.4470588235294118" stop-color="#ff0000"/>
      <stop offset="1.0" stop-color="#ad0000"/>
    </radialGradient>
    <radialGradient cx="0" cy="0" gradientTransform="matrix(0.0041, -0.0024, 0.0024, 0.0041, -16.2, 49.35)" gradientUnits="userSpaceOnUse" id="gradient17" r="819.2" spreadMethod="pad">
      <stop offset="0.4470588235294118" stop-color="#ff0000"/>
      <stop offset="1.0" stop-color="#ad0000"/>
    </radialGradient>
    <radialGradient cx="0" cy="0" gradientTransform="matrix(0.0217, -0.0087, 0.0087, 0.0217, -29.85, 41.6)" gradientUnits="userSpaceOnUse" id="gradient18" r="819.2" spreadMethod="pad">
      <stop offset="0.42745098039215684" stop-color="#ad0000"/>
      <stop offset="0.8666666666666667" stop-color="#e70000"/>
    </radialGradient>
    <radialGradient cx="0" cy="0" gradientTransform="matrix(0.0046, -0.0018, 0.0018, 0.0046, -31.4, 24.2)" gradientUnits="userSpaceOnUse" id="gradient19" r="819.2" spreadMethod="pad">
      <stop offset="0.4470588235294118" stop-color="#ff0000"/>
      <stop offset="1.0" stop-color="#ad0000"/>
    </radialGradient>
    <linearGradient gradientTransform="matrix(0.0049, -0.0037, 0.0042, 0.0056, -29.45, 41.5)" gradientUnits="userSpaceOnUse" id="gradient20" spreadMethod="pad" x1="-819.2" x2="819.2">
      <stop offset="0.0" stop-color="#515151"/>
      <stop offset="0.3137254901960784" stop-color="#878787"/>
      <stop offset="1.0" stop-color="#2c2c2c"/>
    </linearGradient>
    <linearGradient gradientTransform="matrix(0.0025, 4.0E-4, -5.0E-4, 0.0032, -29.45, 41.45)" gradientUnits="userSpaceOnUse" id="gradient21" spreadMethod="pad" x1="-819.2" x2="819.2">
      <stop offset="0.0" stop-color="#808080"/>
      <stop offset="0.3137254901960784" stop-color="#a6a6a6"/>
      <stop offset="1.0" stop-color="#808080"/>
    </linearGradient>
    <radialGradient cx="0" cy="0" gradientTransform="matrix(0.0051, -0.002, 0.002, 0.0051, -15.05, 30.0)" gradientUnits="userSpaceOnUse" id="gradient22" r="819.2" spreadMethod="pad">
      <stop offset="0.4470588235294118" stop-color="#ff0000"/>
      <stop offset="1.0" stop-color="#ad0000"/>
    </radialGradient>
    <radialGradient cx="0" cy="0" gradientTransform="matrix(0.0047, -0.0019, 0.0019, 0.0047, -12.15, 49.25)" gradientUnits="userSpaceOnUse" id="gradient23" r="819.2" spreadMethod="pad">
      <stop offset="0.4470588235294118" stop-color="#ff0000"/>
      <stop offset="1.0" stop-color="#ad0000"/>
    </radialGradient>
    <radialGradient cx="0" cy="0" gradientTransform="matrix(0.005, -0.002, 0.002, 0.005, -46.05, 35.85)" gradientUnits="userSpaceOnUse" id="gradient24" r="819.2" spreadMethod="pad">
      <stop offset="0.4470588235294118" stop-color="#ff0000"/>
      <stop offset="1.0" stop-color="#ad0000"/>
    </radialGradient>
    <radialGradient cx="0" cy="0" gradientTransform="matrix(0.0045, -0.0018, 0.0018, 0.0045, -44.0, 52.45)" gradientUnits="userSpaceOnUse" id="gradient25" r="819.2" spreadMethod="pad">
      <stop offset="0.4470588235294118" stop-color="#ff0000"/>
      <stop offset="1.0" stop-color="#ad0000"/>
    </radialGradient>
    <radialGradient cx="0" cy="0" gradientTransform="matrix(0.0044, -0.0018, 0.0018, 0.0044, -27.3, 59.7)" gradientUnits="userSpaceOnUse" id="gradient26" r="819.2" spreadMethod="pad">
      <stop offset="0.4470588235294118" stop-color="#ff0000"/>
      <stop offset="1.0" stop-color="#ad0000"/>
    </radialGradient>
    <linearGradient gradientTransform="matrix(0.0199, -4.0E-4, 5.0E-4, 0.0224, -54.95, -7.8)" gradientUnits="userSpaceOnUse" id="gradient27" spreadMethod="pad" x1="-819.2" x2="819.2">
      <stop offset="0.0" stop-color="#a8a8a8"/>
      <stop offset="0.3215686274509804" stop-color="#cccccc"/>
      <stop offset="0.49411764705882355" stop-color="#cccccc"/>
      <stop offset="0.6588235294117647" stop-color="#cacaca"/>
      <stop offset="0.9803921568627451" stop-color="#9c9c9c"/>
    </linearGradient>
  </defs>
</svg>
