<?xml version="1.0" encoding="UTF-8" standalone="no"?>
<svg xmlns:xlink="http://www.w3.org/1999/xlink" height="531.5px" width="460.6px" xmlns="http://www.w3.org/2000/svg">
  <g transform="matrix(1.0, 0.0, 0.0, 1.0, 193.65, 334.05)">
    <use height="176.35" transform="matrix(-0.5802, 0.406, -0.4191, -0.6238, 209.7867, 49.8103)" width="176.35" xlink:href="#shape0"/>
    <use height="73.7" transform="matrix(-0.6172, 0.5067, -0.4928, -0.5671, 199.4951, 39.8445)" width="44.95" xlink:href="#shape1"/>
    <use height="86.1" transform="matrix(-0.7334, -0.1181, -0.0551, -0.7204, 95.4868, 53.9316)" width="365.4" xlink:href="#shape2"/>
    <use height="93.35" transform="matrix(-1.0975, 0.0882, -0.1186, -0.6167, 124.7666, 87.1996)" width="50.2" xlink:href="#shape3"/>
    <use height="93.35" transform="matrix(-0.9775, 0.2424, -0.0412, -0.698, -118.6951, 5.9556)" width="50.2" xlink:href="#shape3"/>
    <use height="87.4" transform="matrix(-0.7324, -0.1218, -0.0497, -0.7209, 104.9955, 43.7606)" width="365.55" xlink:href="#shape4"/>
    <use height="175.15" transform="matrix(-0.6085, 0.4088, -0.4191, -0.6238, 225.2312, 43.7974)" width="175.15" xlink:href="#shape5"/>
    <use height="105.7" transform="matrix(1.0, 0.0, 0.0, 1.0, -68.05, -56.2)" width="119.85" xlink:href="#shape6"/>
  </g>
  <defs>
    <g id="shape0" transform="matrix(1.0, 0.0, 0.0, 1.0, 88.2, 88.2)">
      <path d="M-1.0 -8.5 L19.6 -26.6 -10.75 -86.85 0.0 -87.45 Q36.2 -87.45 61.8 -61.85 69.25 -54.4 74.5 -46.1 87.4 -25.7 87.4 0.0 87.4 13.4 83.95 25.35 81.65 32.85 78.1 39.8 71.95 51.6 61.8 61.8 36.2 87.4 0.0 87.4 -36.25 87.4 -61.85 61.8 -87.45 36.2 -87.45 0.0 -87.45 -36.25 -61.85 -61.85 L-59.6 -64.0 -29.1 -2.6 -2.15 -7.95 -1.5 -8.1 -1.0 -8.5" fill="#494641" fill-rule="evenodd" stroke="none"/>
      <path d="M-1.0 -8.5 L19.6 -26.6 -10.75 -86.85 0.0 -87.45 Q36.2 -87.45 61.8 -61.85 69.25 -54.4 74.5 -46.1 87.4 -25.7 87.4 0.0 87.4 13.4 83.95 25.35 81.65 32.85 78.1 39.8 71.95 51.6 61.8 61.8 36.2 87.4 0.0 87.4 -36.25 87.4 -61.85 61.8 -87.45 36.2 -87.45 0.0 -87.45 -36.25 -61.85 -61.85 L-59.6 -64.0 -29.1 -2.6 -2.15 -7.95 Q-1.55 -8.2 -1.0 -8.5 L-1.5 -8.1 -2.15 -7.95" fill="none" stroke="#000000" stroke-linecap="round" stroke-linejoin="round" stroke-opacity="0.4" stroke-width="1.5"/>
    </g>
    <g id="shape1" transform="matrix(1.0, 0.0, 0.0, 1.0, 22.5, 36.85)">
      <path d="M-0.45 -30.3 L21.7 36.05 1.6 36.1 -21.75 -36.1 -0.45 -30.3" fill="#21211c" fill-rule="evenodd" stroke="none"/>
      <path d="M-0.45 -30.3 L21.7 36.05 1.6 36.1 -21.75 -36.1 -0.45 -30.3 Z" fill="none" stroke="#000000" stroke-linecap="round" stroke-linejoin="round" stroke-opacity="0.4" stroke-width="1.5"/>
    </g>
    <g id="shape2" transform="matrix(1.0, 0.0, 0.0, 1.0, 172.6, 42.75)">
      <path d="M186.8 19.85 L185.65 21.8 186.15 20.9 186.8 19.85" fill="#494641" fill-rule="evenodd" stroke="none"/>
      <path d="M149.35 41.65 L-171.15 42.6 Q-167.05 35.65 -164.25 28.7 -152.85 0.3 -164.85 -24.4 -167.75 -30.2 -171.85 -35.85 L155.4 -42.0 158.65 -41.55 Q175.55 -38.05 185.1 -23.75 194.55 -9.3 191.15 7.55 189.8 14.2 186.8 19.85 L186.15 20.9 185.65 21.8 Q174.05 41.95 153.0 41.75 L149.35 41.65 M137.85 -19.9 Q129.7 -14.5 127.65 -4.8 125.8 4.75 131.2 12.9 136.6 21.1 146.05 22.95 155.75 24.9 163.95 19.5 172.05 14.1 174.0 4.5 175.9 -5.0 170.55 -13.25 165.1 -21.35 155.55 -23.35 145.95 -25.3 137.85 -19.9" fill="url(#gradient0)" fill-rule="evenodd" stroke="none"/>
      <path d="M149.35 41.65 L-171.15 42.6 Q-167.05 35.65 -164.25 28.7 -152.85 0.3 -164.85 -24.4 -167.75 -30.2 -171.85 -35.85 L155.4 -42.0 158.65 -41.55 Q175.55 -38.05 185.1 -23.75 194.55 -9.3 191.15 7.55 189.8 14.2 186.8 19.85 L185.65 21.8 Q174.05 41.95 153.0 41.75 L149.35 41.65 M137.85 -19.9 Q145.95 -25.3 155.55 -23.35 165.1 -21.35 170.55 -13.25 175.9 -5.0 174.0 4.5 172.05 14.1 163.95 19.5 155.75 24.9 146.05 22.95 136.6 21.1 131.2 12.9 125.8 4.75 127.65 -4.8 129.7 -14.5 137.85 -19.9 M186.8 19.85 L186.15 20.9 185.65 21.8" fill="none" stroke="#000000" stroke-linecap="round" stroke-linejoin="round" stroke-opacity="0.4" stroke-width="1.5"/>
    </g>
    <linearGradient gradientTransform="matrix(-0.1667, 0.0, 0.0, -0.0516, -105.55, 0.75)" gradientUnits="userSpaceOnUse" id="gradient0" spreadMethod="pad" x1="-819.2" x2="819.2">
      <stop offset="0.0" stop-color="#494641"/>
      <stop offset="1.0" stop-color="#33302d"/>
    </linearGradient>
    <g id="shape3" transform="matrix(1.0, 0.0, 0.0, 1.0, 32.2, 32.25)">
      <path d="M4.35 60.6 Q3.35 7.1 -32.2 -29.8 L-11.7 -32.25 Q13.6 0.55 17.5 44.2 11.55 53.55 4.35 60.6" fill="#494641" fill-rule="evenodd" stroke="none"/>
      <path d="M17.5 44.2 Q11.55 53.55 4.35 60.6" fill="none" stroke="#000000" stroke-linecap="round" stroke-linejoin="round" stroke-opacity="0.49803922" stroke-width="1.0"/>
    </g>
    <g id="shape4" transform="matrix(1.0, 0.0, 0.0, 1.0, 173.2, 43.1)">
      <path d="M137.3 -20.15 Q129.15 -14.7 127.15 -5.05 125.35 4.55 130.75 12.65 136.2 20.8 145.7 22.7 155.4 24.6 163.55 19.15 171.65 13.75 173.5 4.1 175.45 -5.45 170.0 -13.6 164.6 -21.7 154.95 -23.65 145.4 -25.55 137.3 -20.15 M123.5 -41.65 L154.8 -42.35 158.0 -41.85 Q174.95 -38.45 184.5 -24.15 194.1 -9.8 190.7 7.1 189.3 14.2 186.75 19.35 L186.15 20.45 Q174.5 41.5 153.0 41.3 L120.6 41.5 118.15 35.25 Q108.55 7.75 111.95 -12.7 114.7 -29.25 123.5 -41.65" fill="#99968d" fill-rule="evenodd" stroke="none"/>
      <path d="M-75.0 42.85 L-171.45 43.55 Q-167.4 36.55 -164.65 29.65 L-86.5 29.7 Q-85.15 29.6 -80.05 31.2 -75.05 32.75 -75.0 42.85" fill="#494641" fill-rule="evenodd" stroke="none"/>
      <path d="M120.6 41.5 L-75.0 42.85 Q-75.05 32.75 -80.05 31.2 -85.15 29.6 -86.5 29.7 L-164.65 29.65 Q-153.35 1.2 -165.45 -23.5 -168.3 -29.3 -172.45 -34.9 L123.5 -41.65 Q114.7 -29.25 111.95 -12.7 108.55 7.75 118.15 35.25 L120.6 41.5" fill="url(#gradient1)" fill-rule="evenodd" stroke="none"/>
      <path d="M137.3 -20.15 Q145.4 -25.55 154.95 -23.65 164.6 -21.7 170.0 -13.6 175.45 -5.45 173.5 4.1 171.65 13.75 163.55 19.15 155.4 24.6 145.7 22.7 136.2 20.8 130.75 12.65 125.35 4.55 127.15 -5.05 129.15 -14.7 137.3 -20.15 M123.5 -41.65 L154.8 -42.35 158.0 -41.85 Q174.95 -38.45 184.5 -24.15 194.1 -9.8 190.7 7.1 189.3 14.2 186.75 19.35 L186.15 20.45 Q174.5 41.5 153.0 41.3 L120.6 41.5 -75.0 42.85 -171.45 43.55 Q-167.4 36.55 -164.65 29.65 -153.35 1.2 -165.45 -23.5 -168.3 -29.3 -172.45 -34.9 L123.5 -41.65 Q114.7 -29.25 111.95 -12.7 108.55 7.75 118.15 35.25 L120.6 41.5 M-164.65 29.65 L-86.5 29.7 Q-85.15 29.6 -80.05 31.2 -75.05 32.75 -75.0 42.85" fill="none" stroke="#000000" stroke-linecap="round" stroke-linejoin="round" stroke-opacity="0.4" stroke-width="1.5"/>
    </g>
    <linearGradient gradientTransform="matrix(0.1806, 0.0, 0.0, 0.0516, -24.5, 0.6)" gradientUnits="userSpaceOnUse" id="gradient1" spreadMethod="pad" x1="-819.2" x2="819.2">
      <stop offset="0.0" stop-color="#66665b"/>
      <stop offset="1.0" stop-color="#99968d"/>
    </linearGradient>
    <g id="shape5" transform="matrix(1.0, 0.0, 0.0, 1.0, 85.05, 87.4)">
      <path d="M27.85 46.45 L6.65 5.7 58.95 -22.75 77.45 18.1 27.85 46.45" fill="#312a18" fill-rule="evenodd" stroke="none"/>
      <path d="M21.65 36.85 L10.0 13.45 59.4 -11.55 70.95 12.3 Q46.3 24.6 21.65 36.85" fill="#727069" fill-rule="evenodd" stroke="none"/>
      <path d="M21.65 36.85 Q46.3 24.6 70.95 12.3 L59.4 -11.55 10.0 13.45 21.65 36.85 Z" fill="none" stroke="#000000" stroke-linecap="round" stroke-linejoin="round" stroke-opacity="0.4" stroke-width="1.5"/>
      <path d="M47.65 -7.1 L47.9 -6.95 52.6 24.05 Q49.4 28.7 45.25 23.8 L40.75 -5.0 Q40.2 -6.85 42.15 -8.35 43.95 -9.8 47.65 -7.1" fill="#99968d" fill-rule="evenodd" stroke="none"/>
      <path d="M47.65 -7.1 L47.9 -6.95 52.6 24.05 Q49.4 28.7 45.25 23.8 L40.75 -5.0 Q40.2 -6.85 42.15 -8.35 43.95 -9.8 47.65 -7.1 Z" fill="none" stroke="#000000" stroke-linecap="round" stroke-linejoin="round" stroke-opacity="0.4" stroke-width="1.5"/>
      <path d="M34.8 0.35 L39.5 31.35 Q36.35 36.05 32.2 31.15 L27.7 2.35 Q27.15 0.45 29.05 -1.05 30.9 -2.5 34.6 0.25 L34.8 0.35" fill="#99968d" fill-rule="evenodd" stroke="none"/>
      <path d="M34.8 0.35 L39.5 31.35 Q36.35 36.05 32.2 31.15 L27.7 2.35 Q27.15 0.45 29.05 -1.05 30.9 -2.5 34.6 0.25 L34.8 0.35 Z" fill="none" stroke="#000000" stroke-linecap="round" stroke-linejoin="round" stroke-opacity="0.4" stroke-width="1.5"/>
      <path d="M55.65 -14.75 Q57.45 -16.15 61.15 -13.45 L61.35 -13.3 66.1 17.65 Q62.9 22.35 58.75 17.45 L54.25 -11.35 Q53.7 -13.25 55.65 -14.75" fill="#99968d" fill-rule="evenodd" stroke="none"/>
      <path d="M55.65 -14.75 Q57.45 -16.15 61.15 -13.45 L61.35 -13.3 66.1 17.65 Q62.9 22.35 58.75 17.45 L54.25 -11.35 Q53.7 -13.25 55.65 -14.75 Z" fill="none" stroke="#000000" stroke-linecap="round" stroke-linejoin="round" stroke-opacity="0.4" stroke-width="1.5"/>
      <path d="M26.55 37.95 Q23.35 42.65 19.2 37.75 L14.7 8.95 Q14.15 7.05 16.1 5.55 17.9 4.1 21.6 6.8 L21.8 6.95 26.55 37.95" fill="#99968d" fill-rule="evenodd" stroke="none"/>
      <path d="M26.55 37.95 Q23.35 42.65 19.2 37.75 L14.7 8.95 Q14.15 7.05 16.1 5.55 17.9 4.1 21.6 6.8 L21.8 6.95 26.55 37.95 Z" fill="none" stroke="#000000" stroke-linecap="round" stroke-linejoin="round" stroke-opacity="0.4" stroke-width="1.5"/>
      <path d="M76.55 -45.6 Q89.35 -25.35 89.35 0.2 89.35 13.5 85.9 25.35 83.65 32.8 80.1 39.7 74.0 51.45 63.9 61.55 38.5 87.0 2.55 87.0 -33.45 87.0 -58.9 61.55 -84.3 36.15 -84.3 0.2 -84.3 -35.8 -58.9 -61.25 L-56.65 -63.4 -26.35 -2.4 0.4 -7.7 1.05 -7.85 1.55 -8.25 76.55 -45.6 M27.35 44.05 L76.55 18.3 57.9 -18.6 9.1 5.95 27.35 44.05" fill="#99968d" fill-rule="evenodd" stroke="none"/>
      <path d="M1.55 -8.25 L22.0 -26.25 -8.15 -86.05 2.55 -86.65 Q38.5 -86.65 63.9 -61.25 71.3 -53.85 76.55 -45.6 L1.55 -8.25" fill="#cccccc" fill-rule="evenodd" stroke="none"/>
      <path d="M1.55 -8.25 L22.0 -26.25 -8.15 -86.05 2.55 -86.65 Q38.5 -86.65 63.9 -61.25 71.3 -53.85 76.55 -45.6 89.35 -25.35 89.35 0.2 89.35 13.5 85.9 25.35 83.65 32.8 80.1 39.7 74.0 51.45 63.9 61.55 38.5 87.0 2.55 87.0 -33.45 87.0 -58.9 61.55 -84.3 36.15 -84.3 0.2 -84.3 -35.8 -58.9 -61.25 L-56.65 -63.4 -26.35 -2.4 0.4 -7.7 1.55 -8.25 76.55 -45.6 M0.4 -7.7 L1.05 -7.85 1.55 -8.25 M27.35 44.05 L76.55 18.3 57.9 -18.6 9.1 5.95 27.35 44.05" fill="none" stroke="#000000" stroke-linecap="round" stroke-linejoin="round" stroke-opacity="0.4" stroke-width="1.5"/>
    </g>
    <g id="shape6" transform="matrix(1.0, 0.0, 0.0, 1.0, 68.05, 56.2)">
      <path d="M-52.7 -55.45 L-52.05 -55.45 -52.3 -54.8 Q-56.85 -43.85 -58.75 -31.8 L-60.05 -23.0 Q-61.05 -16.3 -62.15 -4.75 -63.3 6.8 -62.0 15.85 -60.75 24.85 -59.95 27.85 L-58.9 31.7 Q-61.5 30.45 -62.2 26.85 -63.75 22.25 -64.55 17.25 -66.6 3.9 -64.85 -9.65 L-62.95 -22.05 -61.45 -30.25 Q-59.35 -41.45 -54.2 -51.6 -52.7 -55.05 -52.7 -55.4 L-52.7 -55.45 M-12.35 -44.85 L-8.75 -42.65 -9.3 -42.3 Q-10.8 -41.2 -11.7 -39.95 L-14.55 -35.45 Q-15.9 -32.9 -17.95 -26.55 -20.0 -20.3 -20.55 -17.3 -21.2 -13.85 -21.2 -8.75 L-21.05 -3.85 Q-20.85 -1.15 -20.35 0.05 L-20.95 -0.05 -22.2 -0.6 -22.6 -0.95 -22.85 -3.4 -23.0 -8.65 Q-23.0 -14.15 -22.4 -17.85 -21.95 -21.1 -20.1 -27.8 -18.3 -34.65 -17.1 -37.4 -16.05 -39.9 -14.55 -42.25 -13.75 -43.6 -12.45 -44.8 L-12.35 -44.85 M-18.85 0.3 L-18.9 -0.75 -16.3 -0.4 Q-13.05 0.0 -12.9 2.3 L-12.8 6.55 -15.55 6.85 -15.65 3.25 Q-15.75 0.75 -18.65 0.3 L-18.85 0.3 M-21.45 7.65 L-21.95 8.65 Q-22.75 10.45 -23.3 13.2 L-23.95 17.3 -24.05 20.95 -24.1 22.55 -24.05 24.7 -24.1 26.6 -23.9 27.65 -24.25 27.55 -24.7 27.3 -25.1 26.85 -25.35 26.35 -25.55 25.2 -25.55 25.05 -25.55 23.3 -25.45 19.4 -24.85 14.95 Q-24.35 12.0 -23.65 10.05 -22.6 7.15 -21.45 7.55 L-21.45 7.65 M-22.8 27.85 L-22.75 24.9 -20.7 25.2 Q-20.9 28.1 -21.2 29.35 L-22.0 30.5 -22.8 31.15 -22.55 27.9 -22.8 27.85 M-48.85 34.65 L-48.95 34.55 -49.6 33.75 -49.2 33.55 Q-48.95 33.9 -48.85 34.65" fill="#bdbdbd" fill-rule="evenodd" stroke="none"/>
      <path d="M-8.75 -42.65 Q-7.35 -43.6 -7.35 -42.15 -7.35 -42.65 -9.9 -39.2 L-11.85 -36.3 -8.8 -37.85 -5.6 -39.5 Q-3.45 -40.25 -3.45 -38.8 -3.45 -37.25 -13.2 -33.8 L-14.2 -31.4 -17.55 -20.65 Q-18.85 -15.8 -19.05 -9.9 L-18.95 -1.95 -16.35 -2.05 -13.3 -1.65 Q-12.75 -1.4 -11.95 -0.6 -11.15 0.25 -10.95 1.55 L-10.9 3.6 Q-10.9 6.65 -11.05 7.15 -11.5 8.55 -13.6 8.55 L-19.95 8.35 -20.4 9.25 -21.7 12.2 -22.25 14.65 -22.65 17.4 -22.75 22.65 -22.75 23.45 -21.2 23.3 Q-18.95 23.4 -19.1 25.55 L-18.95 29.45 Q-18.95 31.05 -20.05 32.15 -21.35 33.45 -24.0 33.95 L-27.45 34.2 -34.85 33.8 Q-34.9 34.55 -35.1 35.1 L-35.7 35.9 -37.15 36.8 Q-39.15 37.55 -42.75 37.55 L-48.25 37.0 Q-50.15 36.45 -51.05 35.5 L-51.65 34.5 -53.0 34.6 -54.25 34.6 -56.65 34.75 Q-62.15 34.45 -64.35 28.7 L-64.95 26.85 Q-68.35 14.7 -68.05 2.05 -67.8 -10.1 -65.65 -22.05 -63.8 -32.55 -60.3 -42.6 -58.7 -47.2 -56.7 -51.6 -54.3 -56.2 -53.55 -56.2 L-53.0 -55.95 -52.95 -55.9 -52.7 -55.45 -52.7 -55.4 Q-52.7 -55.05 -54.2 -51.6 -59.35 -41.45 -61.45 -30.25 L-62.95 -22.05 -64.85 -9.65 Q-66.6 3.9 -64.55 17.25 -63.75 22.25 -62.2 26.85 -61.5 30.45 -58.9 31.7 L-56.55 32.25 -54.25 32.3 -53.15 32.3 Q-52.2 32.3 -51.75 31.95 -51.5 30.45 -50.7 30.45 L-50.3 31.75 -50.3 31.8 -50.25 31.8 -49.95 32.95 -49.95 33.1 -49.7 33.6 -49.6 33.75 -48.95 34.55 -48.85 34.65 -46.3 35.2 -42.7 35.1 Q-38.4 35.1 -37.4 34.2 -37.2 34.0 -37.1 32.85 -37.3 31.25 -37.1 30.55 -36.8 29.45 -36.1 29.75 -35.45 30.05 -35.1 31.05 L-34.95 31.9 -34.9 31.9 -34.1 32.2 -28.45 31.95 -23.15 31.3 -22.8 31.15 -22.0 30.5 -21.2 29.35 Q-20.9 28.1 -20.7 25.2 L-22.75 24.9 -22.8 27.85 -22.8 28.15 -23.35 28.35 -23.9 27.65 -24.1 26.6 -24.05 24.7 -24.1 22.55 -24.05 20.95 -23.95 17.3 -23.3 13.2 Q-22.75 10.45 -21.95 8.65 L-21.45 7.65 Q-20.5 6.0 -19.45 6.3 L-19.35 6.75 -19.45 7.2 -19.1 7.15 -15.55 6.85 -12.8 6.55 -12.9 2.3 Q-13.05 0.0 -16.3 -0.4 L-18.9 -0.75 -18.85 0.3 -18.85 0.8 Q-18.8 1.05 -19.45 1.05 -20.0 1.05 -20.35 0.05 -20.85 -1.15 -21.05 -3.85 L-21.2 -8.75 Q-21.2 -13.85 -20.55 -17.3 -20.0 -20.3 -17.95 -26.55 -15.9 -32.9 -14.55 -35.45 L-11.7 -39.95 Q-10.8 -41.2 -9.3 -42.3 L-8.75 -42.65" fill="#000000" fill-rule="evenodd" stroke="none"/>
      <path d="M-52.05 -55.45 Q-30.45 -55.25 -12.35 -44.85 L-12.45 -44.8 Q-13.75 -43.6 -14.55 -42.25 -16.05 -39.9 -17.1 -37.4 -18.3 -34.65 -20.1 -27.8 -21.95 -21.1 -22.4 -17.85 -23.0 -14.15 -23.0 -8.65 L-22.85 -3.4 -22.6 -0.95 -22.2 -0.6 -20.95 -0.05 -20.35 0.05 Q-20.0 1.05 -19.45 1.05 -18.8 1.05 -18.85 0.8 L-18.85 0.3 -18.65 0.3 Q-15.75 0.75 -15.65 3.25 L-15.55 6.85 -19.1 7.15 -19.45 7.2 -19.35 6.75 -19.45 6.3 Q-20.5 6.0 -21.45 7.65 L-21.45 7.55 Q-22.6 7.15 -23.65 10.05 -24.35 12.0 -24.85 14.95 L-25.45 19.4 -25.55 23.3 -25.55 25.05 -25.55 25.2 -25.35 26.35 -25.1 26.85 -24.7 27.3 -24.25 27.55 -23.9 27.65 -23.35 28.35 -22.8 28.15 -22.8 27.85 -22.55 27.9 -22.8 31.15 -23.15 31.3 -28.45 31.95 -34.1 32.2 -34.9 31.9 -34.95 31.9 -35.1 31.05 Q-35.45 30.05 -36.1 29.75 -36.8 29.45 -37.1 30.55 -37.3 31.25 -37.1 32.85 -37.2 34.0 -37.4 34.2 -38.4 35.1 -42.7 35.1 L-46.3 35.2 -48.85 34.65 Q-48.95 33.9 -49.2 33.55 L-49.6 33.75 -49.7 33.6 -49.95 33.1 -49.95 32.95 -50.25 31.8 -50.3 31.8 -50.3 31.75 -50.7 30.45 Q-51.5 30.45 -51.75 31.95 -52.2 32.3 -53.15 32.3 L-54.25 32.3 -56.55 32.25 -58.9 31.7 -59.95 27.85 Q-60.75 24.85 -62.0 15.85 -63.3 6.8 -62.15 -4.75 -61.05 -16.3 -60.05 -23.0 L-58.75 -31.8 Q-56.85 -43.85 -52.3 -54.8 L-52.05 -55.45" fill="#999999" fill-rule="evenodd" stroke="none"/>
      <path d="M30.1 29.65 Q30.6 29.4 31.0 29.25 33.3 28.45 35.55 28.45 L36.6 28.4 37.25 28.4 37.9 28.45 38.4 28.5 38.35 28.25 38.35 28.1 38.35 28.0 38.4 27.75 38.4 27.7 Q38.4 24.25 46.05 24.25 47.3 24.4 48.35 24.95 L49.8 25.75 Q50.5 27.25 51.05 29.75 51.8 33.7 51.8 38.3 51.8 42.35 50.4 43.4 L48.5 44.05 45.8 44.15 42.6 44.05 40.7 43.75 40.45 44.4 Q38.9 49.5 36.75 49.5 L36.65 49.5 Q33.3 49.5 31.3 48.2 L30.25 47.4 29.35 48.15 Q27.45 49.3 24.05 49.35 L23.85 49.35 Q22.7 49.35 21.5 48.8 L21.0 48.55 20.7 48.15 Q19.9 46.7 19.85 46.3 L19.25 44.3 17.75 38.7 17.6 38.05 16.85 35.5 Q16.35 34.1 16.35 32.95 16.35 31.9 17.95 31.0 L18.4 30.7 Q19.6 30.1 23.45 28.95 L25.1 28.8 26.7 29.15 Q27.75 29.65 28.35 30.65 28.9 30.15 30.1 29.65 M29.3 47.2 Q29.7 46.65 29.7 45.85 L29.25 40.05 28.55 35.75 27.85 33.45 Q27.3 31.95 26.4 30.6 26.1 30.15 25.6 30.0 24.35 29.6 21.55 30.4 19.05 31.1 18.1 32.25 17.55 32.8 17.55 33.6 17.55 35.5 18.5 38.1 L19.95 43.2 20.7 46.3 20.75 46.45 22.3 48.2 Q22.85 48.7 23.75 48.85 L26.65 48.65 Q28.6 48.15 29.3 47.2 M38.15 29.75 L35.9 29.6 Q33.8 29.45 31.0 30.65 29.7 31.0 28.55 31.95 29.45 33.45 29.65 34.45 L30.35 39.8 31.0 44.85 30.95 46.55 32.9 47.95 Q34.35 48.65 35.8 48.4 36.65 48.3 37.35 47.55 L38.35 46.35 Q39.4 44.45 39.8 42.35 40.15 40.15 40.15 36.6 L39.7 31.3 Q39.65 29.95 39.0 29.95 L38.9 30.0 38.9 29.95 38.15 29.75 M48.65 42.8 Q49.65 42.6 50.0 42.05 50.7 41.0 50.7 38.35 50.7 34.95 50.15 31.4 L49.8 29.5 49.8 29.35 49.6 28.25 48.85 26.3 48.45 25.9 48.3 25.7 47.85 25.55 44.15 25.25 Q42.1 25.25 40.75 26.0 39.65 26.65 39.65 27.3 L39.65 27.4 39.6 27.7 39.7 28.65 Q40.75 29.35 40.95 30.65 L41.35 33.45 41.65 38.95 41.3 41.2 41.0 42.6 42.15 42.75 46.3 43.0 48.65 42.8" fill="#000000" fill-rule="evenodd" stroke="none"/>
      <path d="M25.6 30.0 Q28.9 37.95 29.3 47.2 28.6 48.15 26.65 48.65 L23.75 48.85 Q23.0 47.65 22.4 46.15 L20.65 40.65 18.85 35.35 18.1 32.25 Q19.05 31.1 21.55 30.4 24.35 29.6 25.6 30.0 M37.35 47.55 Q36.65 48.3 35.8 48.4 34.35 48.65 32.9 47.95 L30.95 46.55 31.0 44.85 30.35 39.8 29.65 34.45 Q29.45 33.45 28.55 31.95 29.7 31.0 31.0 30.65 33.8 29.45 35.9 29.6 L38.15 29.75 38.6 32.4 Q39.0 35.95 39.0 38.6 39.0 42.35 38.25 45.1 L37.35 47.55 M48.45 25.9 Q49.1 30.95 49.1 35.6 L48.85 40.35 48.65 42.8 46.3 43.0 42.15 42.75 41.0 42.6 41.3 41.2 41.65 38.95 41.35 33.45 40.95 30.65 Q40.75 29.35 39.7 28.65 L39.6 27.7 39.65 27.4 39.65 27.3 Q39.65 26.65 40.75 26.0 42.1 25.25 44.15 25.25 L47.85 25.55 48.3 25.7 48.45 25.9" fill="#999999" fill-rule="evenodd" stroke="none"/>
      <path d="M25.6 30.0 Q26.1 30.15 26.4 30.6 27.3 31.95 27.85 33.45 L28.55 35.75 29.25 40.05 29.7 45.85 Q29.7 46.65 29.3 47.2 28.9 37.95 25.6 30.0 M23.75 48.85 Q22.85 48.7 22.3 48.2 L20.75 46.45 20.7 46.3 19.95 43.2 18.5 38.1 Q17.55 35.5 17.55 33.6 17.55 32.8 18.1 32.25 L18.85 35.35 20.65 40.65 22.4 46.15 Q23.0 47.65 23.75 48.85 M37.35 47.55 L38.25 45.1 Q39.0 42.35 39.0 38.6 39.0 35.95 38.6 32.4 L38.15 29.75 38.9 29.95 38.9 30.0 39.0 29.95 Q39.65 29.95 39.7 31.3 L40.15 36.6 Q40.15 40.15 39.8 42.35 39.4 44.45 38.35 46.35 L37.35 47.55 M48.45 25.9 L48.85 26.3 49.6 28.25 49.8 29.35 49.8 29.5 50.15 31.4 Q50.7 34.95 50.7 38.35 50.7 41.0 50.0 42.05 49.65 42.6 48.65 42.8 L48.85 40.35 49.1 35.6 Q49.1 30.95 48.45 25.9" fill="#bdbdbd" fill-rule="evenodd" stroke="none"/>
    </g>
  </defs>
</svg>
