<?xml version="1.0" encoding="UTF-8" standalone="no"?>
<svg xmlns:xlink="http://www.w3.org/1999/xlink" height="531.5px" width="460.6px" xmlns="http://www.w3.org/2000/svg">
  <g transform="matrix(1.0, 0.0, 0.0, 1.0, 193.65, 334.05)">
    <use height="119.55" transform="matrix(0.0, 1.6879, -1.6879, 0.0, 115.4032, -35.6)" width="75.7" xlink:href="#shape0"/>
    <use height="93.75" transform="matrix(1.0, 0.0, 0.0, 1.0, -68.45, -54.55)" width="64.6" xlink:href="#shape1"/>
  </g>
  <defs>
    <g id="shape0" transform="matrix(1.0, 0.0, 0.0, 1.0, 0.0, 0.15)">
      <path d="M36.05 36.5 L35.4 37.55 32.95 39.3 Q40.15 43.15 37.35 49.55 42.9 48.95 46.0 53.85 45.65 51.0 48.05 51.1 45.35 45.75 49.05 43.1 41.15 42.0 42.55 37.4 L37.5 37.1 36.05 36.5 M36.4 36.85 Q40.55 39.5 42.8 45.05 40.55 39.5 36.4 36.85" fill="url(#gradient0)" fill-rule="evenodd" stroke="none"/>
      <path d="M42.8 45.05 Q40.55 39.5 36.4 36.85" fill="none" stroke="#191919" stroke-linecap="round" stroke-linejoin="round" stroke-opacity="0.5294118" stroke-width="0.5"/>
      <path d="M41.8 40.75 L40.15 41.0 Q39.25 40.75 38.75 39.95 38.35 39.2 38.6 38.3 38.85 37.4 39.55 36.9 L41.25 36.75 Q42.15 37.0 42.6 37.7 43.1 38.5 42.85 39.4 42.6 40.3 41.8 40.75" fill="url(#gradient1)" fill-rule="evenodd" stroke="none"/>
      <path d="M41.8 40.75 L40.15 41.0 Q39.25 40.75 38.75 39.95 38.35 39.2 38.6 38.3 38.85 37.4 39.55 36.9 L41.25 36.75 Q42.15 37.0 42.6 37.7 43.1 38.5 42.85 39.4 42.6 40.3 41.8 40.75 Z" fill="none" stroke="#191919" stroke-linecap="round" stroke-linejoin="round" stroke-opacity="0.5294118" stroke-width="0.30000000000000004"/>
      <path d="M25.8 61.25 L25.8 51.65 Q28.65 45.75 33.5 45.1 L35.1 45.05 36.1 45.1 36.1 55.0 35.1 54.9 33.5 54.95 Q30.85 55.25 28.65 57.5 27.1 58.95 25.8 61.25" fill="url(#gradient2)" fill-rule="evenodd" stroke="none"/>
      <path d="M36.1 55.0 L36.1 64.25 35.1 64.2 33.5 64.25 Q28.65 64.85 25.8 70.8 L25.8 61.25 Q27.1 58.95 28.65 57.5 30.85 55.25 33.5 54.95 L35.1 54.9 36.1 55.0" fill="url(#gradient3)" fill-rule="evenodd" stroke="none"/>
      <path d="M36.1 73.9 L36.1 83.15 35.1 83.1 33.5 83.15 Q28.65 83.8 25.8 89.7 L25.8 80.15 Q27.1 77.85 28.65 76.4 30.85 74.2 33.5 73.85 L35.1 73.8 36.1 73.9 M36.1 93.05 L36.1 106.9 35.1 105.45 33.5 104.0 Q30.4 102.0 25.75 104.6 25.95 103.55 25.8 102.3 L25.8 99.3 Q29.05 93.55 33.5 93.0 L35.1 92.95 36.1 93.05" fill="url(#gradient4)" fill-rule="evenodd" stroke="none"/>
      <path d="M36.1 64.25 L36.1 73.9 35.1 73.8 33.5 73.85 Q30.85 74.2 28.65 76.4 27.1 77.85 25.8 80.15 L25.8 70.8 Q28.65 64.85 33.5 64.25 L35.1 64.2 36.1 64.25 M36.1 83.15 L36.1 93.05 35.1 92.95 33.5 93.0 Q29.05 93.55 25.8 99.3 L25.8 89.7 Q28.65 83.8 33.5 83.15 L35.1 83.1 36.1 83.15 M36.1 106.9 Q35.95 112.4 34.4 114.65 L33.5 115.75 Q29.9 108.4 22.2 109.05 25.25 107.8 25.75 104.6 30.4 102.0 33.5 104.0 L35.1 105.45 36.1 106.9" fill="url(#gradient5)" fill-rule="evenodd" stroke="none"/>
      <path d="M33.5 115.75 Q31.35 118.15 28.2 118.8 L22.65 119.0 Q22.6 111.75 17.8 108.95 L22.2 109.05 Q29.9 108.4 33.5 115.75" fill="url(#gradient6)" fill-rule="evenodd" stroke="none"/>
      <path d="M22.65 119.0 L19.4 118.05 Q15.35 116.4 15.85 112.0 16.25 109.7 17.8 108.95 22.6 111.75 22.65 119.0" fill="url(#gradient7)" fill-rule="evenodd" stroke="none"/>
      <path d="M25.8 61.25 L25.8 51.65 Q28.65 45.75 33.5 45.1 L35.1 45.05 36.1 45.1 36.1 55.0 36.1 64.25 36.1 73.9 36.1 83.15 36.1 93.05 36.1 106.9 Q35.95 112.4 34.4 114.65 L33.5 115.75 Q31.35 118.15 28.2 118.8 L22.65 119.0 19.4 118.05 Q15.35 116.4 15.85 112.0 16.25 109.7 17.8 108.95 L22.2 109.05 Q25.25 107.8 25.75 104.6 25.95 103.55 25.8 102.3 L25.8 99.3 25.8 89.7 25.8 80.15 25.8 70.8 25.8 61.25 Q27.1 58.95 28.65 57.5 30.85 55.25 33.5 54.95 L35.1 54.9 36.1 55.0 M36.1 64.25 L35.1 64.2 33.5 64.25 Q28.65 64.85 25.8 70.8 M36.1 73.9 L35.1 73.8 33.5 73.85 Q30.85 74.2 28.65 76.4 27.1 77.85 25.8 80.15 M25.8 99.3 Q29.05 93.55 33.5 93.0 L35.1 92.95 36.1 93.05 M25.8 89.7 Q28.65 83.8 33.5 83.15 L35.1 83.1 36.1 83.15 M25.75 104.6 Q30.4 102.0 33.5 104.0 L35.1 105.45 36.1 106.9 M22.2 109.05 Q29.9 108.4 33.5 115.75 M17.8 108.95 Q22.6 111.75 22.65 119.0" fill="none" stroke="#000000" stroke-linecap="round" stroke-linejoin="round" stroke-opacity="0.31764707" stroke-width="0.5"/>
      <path d="M33.6 58.95 L35.15 58.85 35.15 105.65 33.6 103.6 33.6 58.95" fill="url(#gradient8)" fill-rule="evenodd" stroke="none"/>
      <path d="M36.15 50.25 L36.15 65.9 25.85 65.9 25.85 56.8 Q28.65 50.9 33.55 50.25 L35.1 50.2 36.15 50.25" fill="url(#gradient9)" fill-rule="evenodd" stroke="none"/>
      <path d="M54.9 57.1 L55.0 57.05 54.85 57.25 54.9 57.1" fill="#5c5f66" fill-rule="evenodd" stroke="none"/>
      <path d="M62.7 23.05 L57.45 19.75 Q60.7 19.7 61.45 16.6 62.2 13.5 61.05 10.65 L60.75 9.9 68.8 15.0 Q63.05 16.15 62.75 21.7 L62.7 23.05" fill="#e5ebff" fill-rule="evenodd" stroke="none"/>
      <path d="M47.5 13.45 L46.45 13.45 45.05 0.0 47.5 13.45 M34.9 33.3 L56.75 44.2 54.9 57.1 54.15 57.4 54.95 46.2 34.9 36.85 34.9 33.3 M57.3 71.25 L54.15 57.55 54.15 57.4 54.9 57.1 54.85 57.25 57.3 71.25 M54.95 46.2 L56.75 44.2 54.95 46.2" fill="#2b2d35" fill-rule="evenodd" stroke="none"/>
      <path d="M47.5 13.45 L45.05 0.0 60.75 9.9 61.05 10.65 Q62.2 13.5 61.45 16.6 60.7 19.7 57.45 19.75 L47.5 13.45 M64.85 24.4 L62.7 23.05 62.75 21.7 Q63.05 16.15 68.8 15.0 L75.55 19.3 64.85 24.4" fill="url(#gradient10)" fill-rule="evenodd" stroke="none"/>
      <path d="M66.5 41.55 L64.85 24.4 75.55 19.3 73.9 47.65 73.8 47.9 66.5 41.55" fill="url(#gradient11)" fill-rule="evenodd" stroke="none"/>
      <path d="M46.45 13.45 L47.5 13.45 57.45 19.75 62.7 23.05 64.85 24.4 66.5 41.55 55.0 57.05 54.9 57.1 56.75 44.2 34.9 33.3 34.9 13.45 46.45 13.45" fill="url(#gradient12)" fill-rule="evenodd" stroke="none"/>
      <path d="M55.0 57.05 L66.5 41.55 73.8 47.9 57.3 71.25 54.85 57.25 55.0 57.05" fill="url(#gradient13)" fill-rule="evenodd" stroke="none"/>
      <path d="M46.45 13.45 L47.5 13.45 45.05 0.0 46.45 13.45 34.9 13.45 34.9 33.3 56.75 44.2 54.9 57.1 55.0 57.05 66.5 41.55 64.85 24.4 62.7 23.05 57.45 19.75 47.5 13.45 M60.75 9.9 L68.8 15.0 75.55 19.3 73.9 47.65 73.8 47.9 57.3 71.25 54.15 57.55 54.15 57.4 54.95 46.2 34.9 36.85 34.9 33.3 M45.05 0.0 L60.75 9.9 M64.85 24.4 L75.55 19.3 M73.8 47.9 L66.5 41.55 M54.9 57.1 L54.15 57.4 M54.85 57.25 L54.9 57.1 M55.0 57.05 L54.85 57.25 57.3 71.25 M56.75 44.2 L54.95 46.2" fill="none" stroke="#191919" stroke-linecap="round" stroke-linejoin="round" stroke-opacity="0.5294118" stroke-width="0.30000000000000004"/>
      <path d="M24.7 24.95 Q24.1 25.6 23.15 25.6 22.2 25.6 21.55 24.95 20.95 24.35 20.95 23.4 20.95 22.45 21.55 21.8 22.2 21.2 23.15 21.2 24.1 21.2 24.7 21.8 25.35 22.45 25.35 23.4 25.35 24.35 24.7 24.95" fill="url(#gradient14)" fill-rule="evenodd" stroke="none"/>
      <path d="M24.7 24.95 Q24.1 25.6 23.15 25.6 22.2 25.6 21.55 24.95 20.95 24.35 20.95 23.4 20.95 22.45 21.55 21.8 22.2 21.2 23.15 21.2 24.1 21.2 24.7 21.8 25.35 22.45 25.35 23.4 25.35 24.35 24.7 24.95 Z" fill="none" stroke="#191919" stroke-linecap="round" stroke-linejoin="round" stroke-opacity="0.5294118" stroke-width="0.30000000000000004"/>
      <path d="M24.4 26.35 L24.4 11.6 Q24.4 9.4 26.75 9.4 L35.3 9.4 Q37.6 9.4 37.6 11.6 L37.6 26.35 24.4 26.35" fill="url(#gradient15)" fill-rule="evenodd" stroke="none"/>
      <path d="M37.6 43.0 L37.6 55.65 Q37.6 57.85 35.3 57.85 L26.75 57.85 Q24.4 57.85 24.4 55.65 L24.4 43.0 37.6 43.0" fill="url(#gradient16)" fill-rule="evenodd" stroke="none"/>
      <path d="M24.4 26.35 L37.6 26.35 37.6 43.0 24.4 43.0 24.4 26.35" fill="url(#gradient17)" fill-rule="evenodd" stroke="none"/>
      <path d="M37.6 26.35 L37.6 11.6 Q37.6 9.4 35.3 9.4 L26.75 9.4 Q24.4 9.4 24.4 11.6 L24.4 26.35 24.4 43.0 24.4 55.65 Q24.4 57.85 26.75 57.85 L35.3 57.85 Q37.6 57.85 37.6 55.65 L37.6 43.0 37.6 26.35 Z" fill="none" stroke="#000000" stroke-linecap="round" stroke-linejoin="round" stroke-opacity="0.31764707" stroke-width="0.5"/>
      <path d="M25.2 20.4 Q24.6 21.05 23.65 21.05 22.7 21.05 22.05 20.4 21.45 19.8 21.45 18.85 21.45 17.9 22.05 17.25 22.7 16.65 23.65 16.65 24.6 16.65 25.2 17.25 25.85 17.9 25.85 18.85 25.85 19.8 25.2 20.4" fill="url(#gradient18)" fill-rule="evenodd" stroke="none"/>
      <path d="M25.2 20.4 Q24.6 21.05 23.65 21.05 22.7 21.05 22.05 20.4 21.45 19.8 21.45 18.85 21.45 17.9 22.05 17.25 22.7 16.65 23.65 16.65 24.6 16.65 25.2 17.25 25.85 17.9 25.85 18.85 25.85 19.8 25.2 20.4 Z" fill="none" stroke="#191919" stroke-linecap="round" stroke-linejoin="round" stroke-opacity="0.5294118" stroke-width="0.30000000000000004"/>
      <path d="M25.55 19.1 Q25.3 19.55 25.45 20.65 25.6 22.0 26.6 24.3 16.4 22.7 14.3 31.3 9.2 26.45 2.3 29.05 4.8 26.45 2.3 24.7 9.15 21.35 7.4 15.85 16.25 20.75 18.35 15.0 22.3 18.3 23.7 18.6 L25.55 19.1 M25.0 19.2 Q18.8 18.7 12.25 22.55 18.8 18.7 25.0 19.2" fill="url(#gradient19)" fill-rule="evenodd" stroke="none"/>
      <path d="M12.25 22.55 Q18.8 18.7 25.0 19.2" fill="none" stroke="#191919" stroke-linecap="round" stroke-linejoin="round" stroke-opacity="0.5294118" stroke-width="0.5"/>
      <path d="M28.85 43.7 Q29.8 42.8 31.05 42.8 32.3 42.8 33.1 43.7 34.05 44.65 34.05 45.9 34.05 47.1 33.1 47.95 32.3 48.9 31.05 48.9 29.8 48.9 28.85 47.95 27.95 47.1 27.95 45.9 27.95 44.65 28.85 43.7" fill="url(#gradient20)" fill-rule="evenodd" stroke="none"/>
      <path d="M28.85 43.7 Q29.8 42.8 31.05 42.8 32.3 42.8 33.1 43.7 34.05 44.65 34.05 45.9 34.05 47.1 33.1 47.95 32.3 48.9 31.05 48.9 29.8 48.9 28.85 47.95 27.95 47.1 27.95 45.9 27.95 44.65 28.85 43.7 Z" fill="none" stroke="#000000" stroke-linecap="round" stroke-linejoin="round" stroke-opacity="0.31764707" stroke-width="0.5"/>
      <path d="M32.6 47.05 L31.8 47.8 29.15 45.15 29.95 44.4 32.6 47.05" fill="#999999" fill-rule="evenodd" stroke="none"/>
      <path d="M33.1 14.15 Q34.05 15.1 34.05 16.35 34.05 17.6 33.1 18.4 32.3 19.35 31.05 19.35 29.8 19.35 28.85 18.4 27.95 17.6 27.95 16.35 27.95 15.1 28.85 14.15 29.8 13.3 31.05 13.3 32.3 13.3 33.1 14.15" fill="url(#gradient21)" fill-rule="evenodd" stroke="none"/>
      <path d="M33.1 14.15 Q34.05 15.1 34.05 16.35 34.05 17.6 33.1 18.4 32.3 19.35 31.05 19.35 29.8 19.35 28.85 18.4 27.95 17.6 27.95 16.35 27.95 15.1 28.85 14.15 29.8 13.3 31.05 13.3 32.3 13.3 33.1 14.15 Z" fill="none" stroke="#000000" stroke-linecap="round" stroke-linejoin="round" stroke-opacity="0.31764707" stroke-width="0.5"/>
      <path d="M32.0 14.6 L32.8 15.35 30.15 18.0 29.35 17.25 32.0 14.6" fill="#999999" fill-rule="evenodd" stroke="none"/>
      <path d="M23.6 17.2 Q23.0 17.85 22.1 17.85 21.15 17.85 20.5 17.2 19.85 16.6 19.85 15.65 19.85 14.7 20.5 14.05 21.15 13.45 22.1 13.45 23.0 13.45 23.6 14.05 24.3 14.7 24.3 15.65 24.3 16.6 23.6 17.2" fill="url(#gradient22)" fill-rule="evenodd" stroke="none"/>
      <path d="M23.6 17.2 Q23.0 17.85 22.1 17.85 21.15 17.85 20.5 17.2 19.85 16.6 19.85 15.65 19.85 14.7 20.5 14.05 21.15 13.45 22.1 13.45 23.0 13.45 23.6 14.05 24.3 14.7 24.3 15.65 24.3 16.6 23.6 17.2 Z" fill="none" stroke="#191919" stroke-linecap="round" stroke-linejoin="round" stroke-opacity="0.5294118" stroke-width="0.30000000000000004"/>
      <path d="M23.5 17.5 Q23.0 17.75 22.35 18.6 21.45 19.7 20.55 22.0 14.45 13.7 6.85 18.2 6.7 11.25 0.0 8.2 3.6 8.15 3.05 5.15 10.25 7.55 12.95 2.5 15.75 12.15 21.25 9.6 21.75 14.65 22.5 15.9 L23.5 17.5 M23.05 17.25 Q19.0 12.6 11.65 10.6 19.0 12.6 23.05 17.25" fill="url(#gradient23)" fill-rule="evenodd" stroke="none"/>
      <path d="M11.65 10.6 Q19.0 12.6 23.05 17.25" fill="none" stroke="#191919" stroke-linecap="round" stroke-linejoin="round" stroke-opacity="0.5294118" stroke-width="0.5"/>
      <path d="M27.05 17.5 Q26.3 18.3 25.15 18.3 24.0 18.3 23.2 17.5 22.45 16.75 22.45 15.6 22.45 14.45 23.2 13.65 24.0 12.9 25.15 12.9 26.3 12.9 27.05 13.65 27.9 14.45 27.9 15.6 27.9 16.75 27.05 17.5" fill="url(#gradient24)" fill-rule="evenodd" stroke="none"/>
      <path d="M27.05 17.5 Q26.3 18.3 25.15 18.3 24.0 18.3 23.2 17.5 22.45 16.75 22.45 15.6 22.45 14.45 23.2 13.65 24.0 12.9 25.15 12.9 26.3 12.9 27.05 13.65 27.9 14.45 27.9 15.6 27.9 16.75 27.05 17.5 Z" fill="none" stroke="#191919" stroke-linecap="round" stroke-linejoin="round" stroke-opacity="0.5294118" stroke-width="0.30000000000000004"/>
      <path d="M27.45 21.9 Q26.7 22.7 25.55 22.7 24.4 22.7 23.6 21.9 22.85 21.15 22.85 20.0 22.85 18.85 23.6 18.05 24.4 17.3 25.55 17.3 26.7 17.3 27.45 18.05 28.25 18.85 28.25 20.0 28.25 21.15 27.45 21.9" fill="url(#gradient25)" fill-rule="evenodd" stroke="none"/>
      <path d="M27.45 21.9 Q26.7 22.7 25.55 22.7 24.4 22.7 23.6 21.9 22.85 21.15 22.85 20.0 22.85 18.85 23.6 18.05 24.4 17.3 25.55 17.3 26.7 17.3 27.45 18.05 28.25 18.85 28.25 20.0 28.25 21.15 27.45 21.9 Z" fill="none" stroke="#191919" stroke-linecap="round" stroke-linejoin="round" stroke-opacity="0.5294118" stroke-width="0.30000000000000004"/>
      <path d="M22.4 21.05 Q21.8 21.7 20.85 21.7 19.9 21.7 19.25 21.05 18.65 20.45 18.65 19.5 18.65 18.55 19.25 17.9 19.9 17.3 20.85 17.3 21.8 17.3 22.4 17.9 23.05 18.55 23.05 19.5 23.05 20.45 22.4 21.05" fill="url(#gradient26)" fill-rule="evenodd" stroke="none"/>
      <path d="M22.4 21.05 Q21.8 21.7 20.85 21.7 19.9 21.7 19.25 21.05 18.65 20.45 18.65 19.5 18.65 18.55 19.25 17.9 19.9 17.3 20.85 17.3 21.8 17.3 22.4 17.9 23.05 18.55 23.05 19.5 23.05 20.45 22.4 21.05 Z" fill="none" stroke="#191919" stroke-linecap="round" stroke-linejoin="round" stroke-opacity="0.5294118" stroke-width="0.30000000000000004"/>
      <path d="M34.7 24.1 Q35.1 24.6 35.2 25.75 35.45 27.25 35.05 29.9 45.3 25.4 49.95 33.75 53.9 27.3 61.8 28.1 58.5 26.1 60.65 23.6 52.6 21.95 52.75 15.75 44.9 23.25 41.1 17.9 37.9 22.35 36.5 23.15 L34.7 24.1 M35.3 24.1 Q41.65 21.9 49.55 24.05 41.65 21.9 35.3 24.1" fill="url(#gradient27)" fill-rule="evenodd" stroke="none"/>
      <path d="M49.55 24.05 Q41.65 21.9 35.3 24.1" fill="none" stroke="#191919" stroke-linecap="round" stroke-linejoin="round" stroke-opacity="0.5294118" stroke-width="0.5"/>
      <path d="M39.45 24.45 Q38.6 25.3 37.4 25.3 36.15 25.3 35.25 24.45 34.45 23.65 34.45 22.4 34.45 21.15 35.25 20.25 36.15 19.45 37.4 19.45 38.6 19.45 39.45 20.25 40.3 21.15 40.3 22.4 40.3 23.65 39.45 24.45" fill="url(#gradient28)" fill-rule="evenodd" stroke="none"/>
      <path d="M39.45 24.45 Q38.6 25.3 37.4 25.3 36.15 25.3 35.25 24.45 34.45 23.65 34.45 22.4 34.45 21.15 35.25 20.25 36.15 19.45 37.4 19.45 38.6 19.45 39.45 20.25 40.3 21.15 40.3 22.4 40.3 23.65 39.45 24.45 Z" fill="none" stroke="#191919" stroke-linecap="round" stroke-linejoin="round" stroke-opacity="0.5294118" stroke-width="0.30000000000000004"/>
      <path d="M37.05 28.15 Q36.4 28.85 35.35 28.85 34.35 28.85 33.65 28.15 32.95 27.5 32.95 26.5 32.95 25.45 33.65 24.75 34.35 24.1 35.35 24.1 36.4 24.1 37.05 24.75 37.75 25.45 37.75 26.5 37.75 27.5 37.05 28.15" fill="url(#gradient29)" fill-rule="evenodd" stroke="none"/>
      <path d="M37.05 28.15 Q36.4 28.85 35.35 28.85 34.35 28.85 33.65 28.15 32.95 27.5 32.95 26.5 32.95 25.45 33.65 24.75 34.35 24.1 35.35 24.1 36.4 24.1 37.05 24.75 37.75 25.45 37.75 26.5 37.75 27.5 37.05 28.15 Z" fill="none" stroke="#191919" stroke-linecap="round" stroke-linejoin="round" stroke-opacity="0.5294118" stroke-width="0.30000000000000004"/>
      <path d="M40.95 27.85 Q40.3 28.55 39.25 28.55 38.25 28.55 37.55 27.85 36.85 27.2 36.85 26.2 36.85 25.15 37.55 24.45 38.25 23.8 39.25 23.8 40.3 23.8 40.95 24.45 41.65 25.15 41.65 26.2 41.65 27.2 40.95 27.85" fill="url(#gradient30)" fill-rule="evenodd" stroke="none"/>
      <path d="M40.95 27.85 Q40.3 28.55 39.25 28.55 38.25 28.55 37.55 27.85 36.85 27.2 36.85 26.2 36.85 25.15 37.55 24.45 38.25 23.8 39.25 23.8 40.3 23.8 40.95 24.45 41.65 25.15 41.65 26.2 41.65 27.2 40.95 27.85 Z" fill="none" stroke="#191919" stroke-linecap="round" stroke-linejoin="round" stroke-opacity="0.5294118" stroke-width="0.30000000000000004"/>
    </g>
    <linearGradient gradientTransform="matrix(-0.0016, -0.0114, -0.0093, 0.0013, 41.5, 45.0)" gradientUnits="userSpaceOnUse" id="gradient0" spreadMethod="pad" x1="-819.2" x2="819.2">
      <stop offset="0.0" stop-color="#004700"/>
      <stop offset="1.0" stop-color="#002600"/>
    </linearGradient>
    <radialGradient cx="0" cy="0" gradientTransform="matrix(0.0026, 7.0E-4, -7.0E-4, 0.0026, 40.6, 37.6)" gradientUnits="userSpaceOnUse" id="gradient1" r="819.2" spreadMethod="pad">
      <stop offset="0.0" stop-color="#a31400"/>
      <stop offset="1.0" stop-color="#540000"/>
    </radialGradient>
    <linearGradient gradientTransform="matrix(-0.0037, 0.0, 0.0, -0.0099, 28.2, 53.0)" gradientUnits="userSpaceOnUse" id="gradient2" spreadMethod="pad" x1="-819.2" x2="819.2">
      <stop offset="0.0" stop-color="#ffffff"/>
      <stop offset="1.0" stop-color="#999999" stop-opacity="0.9764706"/>
    </linearGradient>
    <linearGradient gradientTransform="matrix(-0.0063, 0.0, 0.0, -0.0097, 30.95, 62.9)" gradientUnits="userSpaceOnUse" id="gradient3" spreadMethod="pad" x1="-819.2" x2="819.2">
      <stop offset="0.0" stop-color="#e82222"/>
      <stop offset="1.0" stop-color="#6d0000" stop-opacity="0.9764706"/>
    </linearGradient>
    <linearGradient gradientTransform="matrix(-0.0063, 0.0, 0.0, -0.0097, 30.95, 81.8)" gradientUnits="userSpaceOnUse" id="gradient4" spreadMethod="pad" x1="-819.2" x2="819.2">
      <stop offset="0.0" stop-color="#e82222"/>
      <stop offset="1.0" stop-color="#6d0000" stop-opacity="0.9764706"/>
    </linearGradient>
    <linearGradient gradientTransform="matrix(-0.0037, 0.0, 0.0, -0.0099, 28.2, 71.95)" gradientUnits="userSpaceOnUse" id="gradient5" spreadMethod="pad" x1="-819.2" x2="819.2">
      <stop offset="0.0" stop-color="#ffffff"/>
      <stop offset="1.0" stop-color="#999999" stop-opacity="0.9764706"/>
    </linearGradient>
    <linearGradient gradientTransform="matrix(0.0, 0.0046, -0.0065, 0.0, 25.65, 113.85)" gradientUnits="userSpaceOnUse" id="gradient6" spreadMethod="pad" x1="-819.2" x2="819.2">
      <stop offset="0.0" stop-color="#e82222"/>
      <stop offset="1.0" stop-color="#750000" stop-opacity="0.9764706"/>
    </linearGradient>
    <linearGradient gradientTransform="matrix(-0.0011, 0.004, -0.0059, -0.0016, 19.25, 114.0)" gradientUnits="userSpaceOnUse" id="gradient7" spreadMethod="pad" x1="-819.2" x2="819.2">
      <stop offset="0.0" stop-color="#ffffff"/>
      <stop offset="1.0" stop-color="#999999" stop-opacity="0.9764706"/>
    </linearGradient>
    <linearGradient gradientTransform="matrix(-0.0051, 0.0191, -0.0179, -0.0107, 34.35, 82.2)" gradientUnits="userSpaceOnUse" id="gradient8" spreadMethod="pad" x1="-819.2" x2="819.2">
      <stop offset="0.0" stop-color="#ffffff" stop-opacity="0.6"/>
      <stop offset="1.0" stop-color="#ffffff" stop-opacity="0.0"/>
    </linearGradient>
    <linearGradient gradientTransform="matrix(0.0, -0.0031, 0.0076, 0.0, 31.65, 60.0)" gradientUnits="userSpaceOnUse" id="gradient9" spreadMethod="pad" x1="-819.2" x2="819.2">
      <stop offset="0.0" stop-color="#000000" stop-opacity="0.0"/>
      <stop offset="1.0" stop-color="#000000" stop-opacity="0.5372549"/>
    </linearGradient>
    <linearGradient gradientTransform="matrix(0.0144, 0.0083, -0.0028, 0.0049, 61.2, 0.6)" gradientUnits="userSpaceOnUse" id="gradient10" spreadMethod="pad" x1="-819.2" x2="819.2">
      <stop offset="0.0" stop-color="#c2c1cc"/>
      <stop offset="1.0" stop-color="#5c5f66"/>
    </linearGradient>
    <linearGradient gradientTransform="matrix(0.0, 0.0117, -0.0175, 0.0, 71.3, 30.4)" gradientUnits="userSpaceOnUse" id="gradient11" spreadMethod="pad" x1="-819.2" x2="819.2">
      <stop offset="0.0" stop-color="#c2c1cc"/>
      <stop offset="1.0" stop-color="#5c5f66"/>
    </linearGradient>
    <linearGradient gradientTransform="matrix(0.0113, 0.0, 0.0, 0.0266, 52.35, 35.2)" gradientUnits="userSpaceOnUse" id="gradient12" spreadMethod="pad" x1="-819.2" x2="819.2">
      <stop offset="0.0" stop-color="#444751"/>
      <stop offset="1.0" stop-color="#5c5f66"/>
    </linearGradient>
    <linearGradient gradientTransform="matrix(-0.01, 0.0058, -0.0091, -0.0157, 70.65, 54.8)" gradientUnits="userSpaceOnUse" id="gradient13" spreadMethod="pad" x1="-819.2" x2="819.2">
      <stop offset="0.0" stop-color="#c2c1cc"/>
      <stop offset="1.0" stop-color="#5c5f66"/>
    </linearGradient>
    <radialGradient cx="0" cy="0" gradientTransform="matrix(0.0027, 0.0, 0.0, 0.0027, 22.7, 22.2)" gradientUnits="userSpaceOnUse" id="gradient14" r="819.2" spreadMethod="pad">
      <stop offset="0.0" stop-color="#a31400"/>
      <stop offset="1.0" stop-color="#540000"/>
    </radialGradient>
    <linearGradient gradientTransform="matrix(0.007, 0.0, 0.0, 0.026, 32.0, 30.4)" gradientUnits="userSpaceOnUse" id="gradient15" spreadMethod="pad" x1="-819.2" x2="819.2">
      <stop offset="0.0" stop-color="#565050"/>
      <stop offset="1.0" stop-color="#d6d6d6"/>
    </linearGradient>
    <linearGradient gradientTransform="matrix(0.007, 0.0, 0.0, 0.026, 32.0, 36.25)" gradientUnits="userSpaceOnUse" id="gradient16" spreadMethod="pad" x1="-819.2" x2="819.2">
      <stop offset="0.0" stop-color="#565050"/>
      <stop offset="1.0" stop-color="#d6d6d6"/>
    </linearGradient>
    <linearGradient gradientTransform="matrix(0.007, 0.0, 0.0, 0.0495, 32.0, 34.1)" gradientUnits="userSpaceOnUse" id="gradient17" spreadMethod="pad" x1="-819.2" x2="819.2">
      <stop offset="0.0" stop-color="#565050"/>
      <stop offset="1.0" stop-color="#d6d6d6"/>
    </linearGradient>
    <radialGradient cx="0" cy="0" gradientTransform="matrix(0.0027, 0.0, 0.0, 0.0027, 23.2, 17.65)" gradientUnits="userSpaceOnUse" id="gradient18" r="819.2" spreadMethod="pad">
      <stop offset="0.0" stop-color="#5e2118"/>
      <stop offset="1.0" stop-color="#990000"/>
    </radialGradient>
    <linearGradient gradientTransform="matrix(0.0104, -0.0104, 0.0084, 0.0084, 13.6, 23.5)" gradientUnits="userSpaceOnUse" id="gradient19" spreadMethod="pad" x1="-819.2" x2="819.2">
      <stop offset="0.0" stop-color="#004700"/>
      <stop offset="1.0" stop-color="#002600"/>
    </linearGradient>
    <radialGradient cx="0" cy="0" gradientTransform="matrix(0.0035, 0.0, 0.0, 0.0035, 31.45, 44.8)" gradientUnits="userSpaceOnUse" id="gradient20" r="819.2" spreadMethod="pad">
      <stop offset="0.0" stop-color="#878787"/>
      <stop offset="1.0" stop-color="#282828" stop-opacity="0.9764706"/>
    </radialGradient>
    <radialGradient cx="0" cy="0" gradientTransform="matrix(0.0035, 0.0, 0.0, 0.0035, 31.45, 15.25)" gradientUnits="userSpaceOnUse" id="gradient21" r="819.2" spreadMethod="pad">
      <stop offset="0.0" stop-color="#878787"/>
      <stop offset="1.0" stop-color="#282828" stop-opacity="0.9764706"/>
    </radialGradient>
    <radialGradient cx="0" cy="0" gradientTransform="matrix(0.0027, 0.0, 0.0, 0.0027, 21.65, 14.45)" gradientUnits="userSpaceOnUse" id="gradient22" r="819.2" spreadMethod="pad">
      <stop offset="0.0" stop-color="#ff5c44"/>
      <stop offset="1.0" stop-color="#990000"/>
    </radialGradient>
    <linearGradient gradientTransform="matrix(0.0147, 0.0, 0.0, 0.0119, 11.95, 12.2)" gradientUnits="userSpaceOnUse" id="gradient23" spreadMethod="pad" x1="-819.2" x2="819.2">
      <stop offset="0.0" stop-color="#006600"/>
      <stop offset="1.0" stop-color="#003a00"/>
    </linearGradient>
    <radialGradient cx="0" cy="0" gradientTransform="matrix(0.0033, 0.0, 0.0, 0.0033, 25.55, 14.65)" gradientUnits="userSpaceOnUse" id="gradient24" r="819.2" spreadMethod="pad">
      <stop offset="0.0" stop-color="#ff5c44"/>
      <stop offset="1.0" stop-color="#990000"/>
    </radialGradient>
    <radialGradient cx="0" cy="0" gradientTransform="matrix(0.0033, 0.0, 0.0, 0.0033, 25.95, 19.05)" gradientUnits="userSpaceOnUse" id="gradient25" r="819.2" spreadMethod="pad">
      <stop offset="0.0" stop-color="#ff5c44"/>
      <stop offset="1.0" stop-color="#990000"/>
    </radialGradient>
    <radialGradient cx="0" cy="0" gradientTransform="matrix(0.0027, 0.0, 0.0, 0.0027, 20.4, 18.3)" gradientUnits="userSpaceOnUse" id="gradient26" r="819.2" spreadMethod="pad">
      <stop offset="0.0" stop-color="#ff5c44"/>
      <stop offset="1.0" stop-color="#990000"/>
    </radialGradient>
    <linearGradient gradientTransform="matrix(-0.0138, -0.0079, -0.0065, 0.0112, 48.45, 25.35)" gradientUnits="userSpaceOnUse" id="gradient27" spreadMethod="pad" x1="-819.2" x2="819.2">
      <stop offset="0.0" stop-color="#006600"/>
      <stop offset="1.0" stop-color="#003a00"/>
    </linearGradient>
    <radialGradient cx="0" cy="0" gradientTransform="matrix(0.0036, 0.0, 0.0, 0.0036, 37.8, 21.35)" gradientUnits="userSpaceOnUse" id="gradient28" r="819.2" spreadMethod="pad">
      <stop offset="0.0" stop-color="#ff5c44"/>
      <stop offset="1.0" stop-color="#990000"/>
    </radialGradient>
    <radialGradient cx="0" cy="0" gradientTransform="matrix(0.0029, 0.0, 0.0, 0.0029, 34.9, 25.15)" gradientUnits="userSpaceOnUse" id="gradient29" r="819.2" spreadMethod="pad">
      <stop offset="0.0" stop-color="#ff5c44"/>
      <stop offset="1.0" stop-color="#990000"/>
    </radialGradient>
    <radialGradient cx="0" cy="0" gradientTransform="matrix(0.0029, 0.0, 0.0, 0.0029, 38.8, 24.85)" gradientUnits="userSpaceOnUse" id="gradient30" r="819.2" spreadMethod="pad">
      <stop offset="0.0" stop-color="#ff5c44"/>
      <stop offset="1.0" stop-color="#990000"/>
    </radialGradient>
    <g id="shape1" transform="matrix(1.0, 0.0, 0.0, 1.0, 69.6, 58.1)">
      <path d="M-54.25 -57.35 L-54.25 -57.3 Q-54.25 -56.95 -55.75 -53.5 -60.9 -43.35 -63.0 -32.15 L-64.5 -23.95 -66.4 -11.55 Q-68.15 2.0 -66.1 15.35 -65.3 20.35 -63.75 24.95 -63.05 28.55 -60.45 29.8 L-58.1 30.35 -55.8 30.4 -54.7 30.4 Q-53.75 30.4 -53.3 30.05 -53.05 28.55 -52.25 28.55 -51.95 28.95 -51.85 29.85 L-51.85 29.9 -51.8 29.9 -51.5 31.05 -51.5 31.2 -51.25 31.7 -51.15 31.85 -50.5 32.65 -50.4 32.75 Q-49.75 33.25 -47.85 33.3 L-44.25 33.2 Q-39.95 33.2 -38.95 32.3 -38.75 32.1 -38.65 30.95 -38.85 29.35 -38.65 28.65 -38.35 27.55 -37.65 27.85 -37.0 28.15 -36.65 29.15 L-36.5 30.0 -36.45 30.0 -35.65 30.3 -30.0 30.05 -24.7 29.4 -24.35 29.25 -23.55 28.6 -22.75 27.45 Q-22.45 26.2 -22.25 23.3 L-24.3 23.0 -24.35 25.95 -24.35 26.25 -24.9 26.45 -25.45 25.75 -25.65 24.7 -25.6 22.8 -25.65 20.65 -25.6 19.05 -25.5 15.4 -24.85 11.3 Q-24.3 8.55 -23.5 6.75 L-23.0 5.75 Q-22.05 4.1 -21.0 4.4 L-20.9 4.85 -21.0 5.3 -20.65 5.25 -17.1 4.95 -14.35 4.65 -14.45 0.4 Q-14.6 -1.9 -17.85 -2.3 L-20.45 -2.65 -20.4 -1.6 -20.4 -1.1 Q-20.35 -0.85 -21.0 -0.85 -21.55 -0.85 -21.9 -1.85 -22.4 -3.05 -22.6 -5.75 L-22.75 -10.65 Q-22.75 -15.75 -22.1 -19.2 -21.55 -22.2 -19.5 -28.45 -17.45 -34.8 -16.1 -37.35 L-13.25 -41.85 Q-12.35 -43.1 -10.85 -44.2 L-10.3 -44.55 Q-8.9 -45.5 -8.9 -44.05 -8.9 -44.55 -11.45 -41.1 L-13.4 -38.2 -10.35 -39.75 -7.15 -41.4 Q-5.0 -42.15 -5.0 -40.7 -5.0 -39.15 -14.75 -35.7 L-15.75 -33.3 -19.1 -22.55 Q-20.4 -17.7 -20.6 -11.8 L-20.5 -3.85 -17.9 -3.95 -14.85 -3.55 -13.5 -2.5 Q-12.7 -1.65 -12.5 -0.35 L-12.45 1.7 Q-12.45 4.75 -12.6 5.25 -13.05 6.65 -15.15 6.65 L-21.5 6.45 -21.95 7.35 Q-23.1 9.6 -23.25 10.3 L-23.8 12.75 -24.2 15.5 -24.3 20.75 -24.3 21.55 -22.75 21.4 Q-20.5 21.5 -20.65 23.65 L-20.5 27.55 Q-20.5 29.15 -21.6 30.25 -22.9 31.55 -25.55 32.05 L-29.0 32.3 -36.4 31.9 Q-36.45 32.65 -36.65 33.2 L-37.25 34.0 -38.7 34.9 Q-40.7 35.65 -44.3 35.65 L-49.8 35.1 Q-51.7 34.55 -52.6 33.6 L-53.2 32.6 -54.55 32.7 -55.8 32.7 -58.2 32.85 Q-63.7 32.55 -65.9 26.8 L-66.5 24.95 Q-69.9 12.8 -69.6 0.15 -69.35 -12.0 -67.2 -23.95 -65.35 -34.45 -61.85 -44.5 -60.25 -49.1 -58.25 -53.5 -55.85 -58.1 -55.1 -58.1 L-54.55 -57.85 -54.5 -57.8 -54.25 -57.35" fill="#000000" fill-rule="evenodd" stroke="none"/>
      <path d="M-53.6 -57.35 L-53.85 -56.7 Q-58.4 -45.75 -60.3 -33.7 L-61.6 -24.9 Q-62.6 -18.2 -63.7 -6.65 -64.85 4.9 -63.55 13.95 -62.3 22.95 -61.5 25.95 L-60.45 29.8 Q-63.05 28.55 -63.75 24.95 -65.3 20.35 -66.1 15.35 -68.15 2.0 -66.4 -11.55 L-64.5 -23.95 -63.0 -32.15 Q-60.9 -43.35 -55.75 -53.5 -54.25 -56.95 -54.25 -57.3 L-54.25 -57.35 -53.6 -57.35 M-51.15 31.85 L-50.75 31.65 Q-50.5 32.0 -50.4 32.75 L-50.5 32.65 -51.15 31.85 M-24.35 29.25 L-24.1 26.0 -24.35 25.95 -24.3 23.0 -22.25 23.3 Q-22.45 26.2 -22.75 27.45 L-23.55 28.6 -24.35 29.25 M-25.45 25.75 L-25.8 25.65 -26.25 25.4 -26.65 24.95 -26.9 24.45 -27.1 23.3 -27.1 23.15 -27.1 21.4 -27.0 17.5 -26.4 13.05 Q-25.9 10.1 -25.2 8.15 -24.15 5.25 -23.0 5.65 L-23.0 5.75 -23.5 6.75 Q-24.3 8.55 -24.85 11.3 L-25.5 15.4 -25.6 19.05 -25.65 20.65 -25.6 22.8 -25.65 24.7 -25.45 25.75 M-17.1 4.95 L-17.2 1.35 Q-17.3 -1.15 -20.2 -1.6 L-20.4 -1.6 -20.45 -2.65 -17.85 -2.3 Q-14.6 -1.9 -14.45 0.4 L-14.35 4.65 -17.1 4.95 M-21.9 -1.85 L-22.5 -1.95 -23.75 -2.5 -24.15 -2.85 -24.4 -5.3 -24.55 -10.55 Q-24.55 -16.05 -23.95 -19.75 -23.5 -23.0 -21.65 -29.7 -19.85 -36.55 -18.65 -39.3 -17.6 -41.8 -16.1 -44.15 L-14.0 -46.7 -13.9 -46.75 -10.3 -44.55 -10.85 -44.2 Q-12.35 -43.1 -13.25 -41.85 L-16.1 -37.35 Q-17.45 -34.8 -19.5 -28.45 -21.55 -22.2 -22.1 -19.2 -22.75 -15.75 -22.75 -10.65 L-22.6 -5.75 Q-22.4 -3.05 -21.9 -1.85" fill="#bdbdbd" fill-rule="evenodd" stroke="none"/>
      <path d="M-60.45 29.8 L-61.5 25.95 Q-62.3 22.95 -63.55 13.95 -64.85 4.9 -63.7 -6.65 -62.6 -18.2 -61.6 -24.9 L-60.3 -33.7 Q-58.4 -45.75 -53.85 -56.7 L-53.6 -57.35 Q-32.0 -57.15 -13.9 -46.75 L-14.0 -46.7 -16.1 -44.15 Q-17.6 -41.8 -18.65 -39.3 -19.85 -36.55 -21.65 -29.7 -23.5 -23.0 -23.95 -19.75 -24.55 -16.05 -24.55 -10.55 L-24.4 -5.3 -24.15 -2.85 -23.75 -2.5 -22.5 -1.95 -21.9 -1.85 Q-21.55 -0.85 -21.0 -0.85 -20.35 -0.85 -20.4 -1.1 L-20.4 -1.6 -20.2 -1.6 Q-17.3 -1.15 -17.2 1.35 L-17.1 4.95 -20.65 5.25 -21.0 5.3 -20.9 4.85 -21.0 4.4 Q-22.05 4.1 -23.0 5.75 L-23.0 5.65 Q-24.15 5.25 -25.2 8.15 -25.9 10.1 -26.4 13.05 L-27.0 17.5 -27.1 21.4 -27.1 23.15 -27.1 23.3 -26.9 24.45 -26.65 24.95 -26.25 25.4 -25.8 25.65 -25.45 25.75 -24.9 26.45 -24.35 26.25 -24.35 25.95 -24.1 26.0 -24.35 29.25 -24.7 29.4 -30.0 30.05 -35.65 30.3 -36.45 30.0 -36.5 30.0 -36.65 29.15 Q-37.0 28.15 -37.65 27.85 -38.35 27.55 -38.65 28.65 -38.85 29.35 -38.65 30.95 -38.75 32.1 -38.95 32.3 -39.95 33.2 -44.25 33.2 L-47.85 33.3 Q-49.75 33.25 -50.4 32.75 -50.5 32.0 -50.75 31.65 L-51.15 31.85 -51.25 31.7 -51.5 31.2 -51.5 31.05 -51.8 29.9 -51.85 29.9 -51.85 29.85 Q-51.95 28.95 -52.25 28.55 -53.05 28.55 -53.3 30.05 -53.75 30.4 -54.7 30.4 L-55.8 30.4 -58.1 30.35 -60.45 29.8" fill="#999999" fill-rule="evenodd" stroke="none"/>
    </g>
  </defs>
</svg>
