<?xml version="1.0" encoding="UTF-8" standalone="no"?>
<svg xmlns:xlink="http://www.w3.org/1999/xlink" height="531.5px" width="460.6px" xmlns="http://www.w3.org/2000/svg">
  <g transform="matrix(1.0, 0.0, 0.0, 1.0, 193.65, 334.05)">
    <use height="113.55" transform="matrix(1.003, 0.8065, -0.8065, 1.003, 5.0892, -95.6809)" width="120.35" xlink:href="#shape0"/>
    <use height="93.75" transform="matrix(1.0, 0.0, 0.0, 1.0, -69.6, -58.1)" width="64.6" xlink:href="#shape1"/>
  </g>
  <defs>
    <g id="shape0" transform="matrix(1.0, 0.0, 0.0, 1.0, 60.15, 56.75)">
      <path d="M23.35 -28.8 L20.9 -25.5 Q18.6 -22.95 17.3 -22.95 L17.05 -23.6 17.3 -22.95 Q17.95 -20.3 13.95 -21.1 10.4 -21.65 7.75 -21.05 4.75 -20.9 0.7 -19.65 3.05 -21.15 2.75 -21.7 -2.0 -19.85 -4.15 -20.9 -6.3 -23.0 -6.5 -26.35 -4.95 -22.0 -2.75 -22.6 L7.85 -26.0 Q-0.45 -23.4 -6.95 -28.0 L-7.15 -28.7 Q-7.45 -27.9 -8.05 -27.5 L-8.05 -27.6 Q-8.5 -28.1 -9.7 -28.35 -10.45 -30.05 -12.95 -29.3 -13.05 -30.4 -13.45 -30.3 -15.5 -29.75 -17.6 -28.65 L-19.85 -27.4 Q-19.15 -29.3 -18.05 -30.4 -23.7 -28.35 -24.2 -35.05 L-23.8 -35.75 Q-20.55 -40.4 -13.8 -44.05 L-13.3 -44.35 -7.65 -47.0 Q-7.15 -47.1 -6.6 -47.35 -2.8 -48.75 0.45 -49.35 L5.5 -49.85 Q8.25 -49.7 10.4 -48.75 16.9 -45.95 20.8 -37.45 23.05 -32.55 23.35 -28.8 M10.65 -27.1 L9.3 -26.5 10.65 -27.1 M8.4 -26.2 L7.85 -26.0 8.4 -26.2 M-12.3 -32.75 L-13.85 -32.7 Q-16.3 -32.35 -18.05 -30.4 -16.3 -32.35 -13.85 -32.7 L-12.3 -32.75 M0.65 -17.5 Q2.5 -14.45 0.1 -11.05 -1.05 -10.0 -3.0 -9.6 -2.15 -10.3 -2.4 -10.65 -5.0 -10.05 -6.2 -10.65 -3.15 -12.4 -1.6 -16.65 -0.05 -16.2 0.65 -17.5 M-10.15 -32.25 Q-5.7 -29.65 -8.05 -27.6 -5.7 -29.65 -10.15 -32.25" fill="url(#gradient0)" fill-rule="evenodd" stroke="none"/>
      <path d="M17.3 -22.95 Q18.6 -22.95 20.9 -25.5 L23.35 -28.8 Q23.5 -26.3 22.9 -24.35 L22.75 -23.8 Q20.85 -18.6 13.1 -17.85 L10.3 -17.95 Q9.25 -16.3 10.5 -12.45 7.95 -15.5 5.5 -14.15 5.25 -12.55 5.4 -11.0 L5.45 -10.6 5.3 -10.85 4.4 -11.85 1.65 -11.95 Q2.05 -13.2 2.05 -14.75 1.5 -16.65 2.75 -18.1 4.65 -20.4 7.75 -21.05 10.4 -21.65 13.95 -21.1 17.95 -20.3 17.3 -22.95 M5.9 -17.65 L10.3 -17.95 5.9 -17.65" fill="url(#gradient1)" fill-rule="evenodd" stroke="none"/>
      <path d="M-12.45 -4.55 L-14.35 -5.3 -14.5 -5.65 Q-15.0 -7.1 -14.1 -7.85 -14.95 -9.5 -14.8 -10.25 -14.3 -12.85 -18.15 -17.7 -16.9 -18.85 -16.0 -20.9 L-13.95 -18.2 -13.6 -17.55 -12.85 -16.0 Q-12.3 -14.65 -12.65 -12.25 -12.95 -9.9 -10.6 -11.35 -8.35 -12.75 -7.25 -15.8 -6.2 -19.05 -12.0 -26.95 L-9.65 -27.1 Q-8.65 -27.0 -8.05 -27.5 -7.45 -27.9 -7.15 -28.7 L-6.95 -28.0 -6.45 -26.5 -6.5 -26.35 Q-6.3 -23.0 -4.15 -20.9 -2.0 -19.85 2.75 -21.7 3.05 -21.15 0.7 -19.65 4.75 -20.9 7.75 -21.05 4.65 -20.4 2.75 -18.1 1.5 -16.65 2.05 -14.75 2.05 -13.2 1.65 -11.95 1.1 -10.3 -0.3 -9.35 -1.1 -8.75 -2.3 -8.45 -5.0 -7.55 -7.0 -8.05 -8.1 -7.75 -8.0 -5.65 L-8.0 -5.45 Q-11.85 -6.4 -12.45 -4.55 M0.65 -17.5 Q-0.05 -16.2 -1.6 -16.65 -3.15 -12.4 -6.2 -10.65 -5.0 -10.05 -2.4 -10.65 -2.15 -10.3 -3.0 -9.6 -1.05 -10.0 0.1 -11.05 2.5 -14.45 0.65 -17.5 M-10.35 -7.2 Q-9.6 -7.35 -8.4 -6.05 -9.6 -7.35 -10.35 -7.2 M-10.75 -8.2 L-7.0 -8.05 -10.75 -8.2" fill="url(#gradient2)" fill-rule="evenodd" stroke="none"/>
      <path d="M11.4 -9.75 L11.75 -9.3 11.45 -9.3 11.4 -9.75 M-0.95 11.15 Q-7.35 15.55 -13.1 20.25 L-12.85 17.35 -7.35 13.1 -12.85 17.35 Q-12.5 10.0 -16.5 10.4 L-9.35 3.9 -9.05 4.3 Q-6.85 3.3 -4.95 1.9 L-4.7 0.75 -3.95 1.5 -1.15 -0.1 -1.7 -3.55 -1.15 -4.1 -0.9 -3.85 0.75 -1.1 2.7 -2.15 2.55 -3.3 2.3 -4.35 Q5.75 -3.5 7.5 -5.75 7.75 -6.6 7.6 -7.05 L7.4 -7.55 10.35 -7.8 Q10.0 -6.6 10.3 -5.25 L9.75 -5.4 8.45 -5.3 8.05 -4.9 Q7.3 -4.15 7.0 -3.15 6.7 -1.85 7.15 -0.05 L6.5 -0.15 6.4 -0.15 6.35 -0.2 6.05 -0.3 4.95 -0.4 1.5 6.25 2.25 7.0 Q1.8 7.35 1.1 7.3 -0.2 9.0 -0.95 11.15 M-11.6 8.35 L-13.8 10.35 -11.6 8.35 M-5.55 7.85 L-1.45 4.55 -5.55 7.85" fill="url(#gradient3)" fill-rule="evenodd" stroke="none"/>
      <path d="M1.65 -11.95 L4.4 -11.85 5.3 -10.85 5.45 -10.6 Q6.8 -8.95 7.4 -7.55 L7.6 -7.05 Q7.75 -6.6 7.5 -5.75 5.75 -3.5 2.3 -4.35 L1.4 -6.7 -0.3 -9.35 Q1.1 -10.3 1.65 -11.95" fill="url(#gradient4)" fill-rule="evenodd" stroke="none"/>
      <path d="M0.45 -49.35 Q-2.8 -48.75 -6.6 -47.35 -7.15 -47.1 -7.65 -47.0 L-13.3 -44.35 -13.8 -44.05 Q-8.35 -48.25 -3.1 -51.15 0.1 -50.9 0.45 -49.35 M10.5 -12.45 Q11.2 -11.4 11.4 -9.75 L11.45 -9.3 11.75 -9.3 Q13.8 -9.2 15.1 -8.45 18.2 -5.95 16.95 -3.5 L13.35 -3.4 11.15 -4.85 10.3 -5.25 Q10.0 -6.6 10.35 -7.8 L7.4 -7.55 Q6.8 -8.95 5.45 -10.6 L5.4 -11.0 Q5.25 -12.55 5.5 -14.15 7.95 -15.5 10.5 -12.45 M52.2 0.85 Q53.75 1.2 54.05 4.35 51.3 9.65 47.2 15.15 L47.5 14.7 50.0 8.95 50.35 7.9 Q51.7 4.05 52.2 0.85 M10.35 -7.8 Q10.55 -8.6 11.05 -9.3 L11.45 -9.3 11.05 -9.3 Q10.55 -8.6 10.35 -7.8" fill="#a1916f" fill-rule="evenodd" stroke="none"/>
      <path d="M7.75 14.7 L7.35 14.6 Q4.4 14.35 1.75 13.2 0.25 12.5 -1.1 11.5 L-0.95 11.15 Q-0.2 9.0 1.1 7.3 1.8 7.35 2.25 7.0 L1.5 6.25 4.95 -0.4 6.05 -0.3 6.35 -0.2 6.4 -0.15 6.5 -0.15 7.25 0.05 Q9.95 0.75 12.25 2.4 11.65 3.3 11.3 4.45 10.55 7.2 11.05 9.2 10.7 10.25 8.75 10.25 L8.65 10.25 8.55 10.25 Q4.55 9.15 2.25 7.0 4.55 9.15 8.55 10.25 L8.5 10.25 Q9.55 14.0 7.75 14.7 M2.3 -4.35 L2.55 -3.3 2.7 -2.15 0.75 -1.1 -0.9 -3.85 -1.15 -4.1 -3.5 -6.15 -1.75 -3.95 -1.7 -3.55 -1.15 -0.1 -3.95 1.5 -4.7 0.75 -5.3 0.05 Q-7.0 -2.2 -8.0 -5.65 -8.1 -7.75 -7.0 -8.05 -5.0 -7.55 -2.3 -8.45 -1.1 -8.75 -0.3 -9.35 L1.4 -6.7 2.3 -4.35" fill="#dbcca6" fill-rule="evenodd" stroke="none"/>
      <path d="M7.0 -3.15 L7.25 -2.7 Q7.7 -2.0 8.4 -1.45 L8.9 -1.15 Q10.1 -0.45 11.05 -0.5 12.2 -0.55 12.55 -1.15 12.95 -1.75 12.4 -2.75 L10.8 -4.35 10.75 -4.35 Q9.65 -5.0 8.55 -5.0 L8.05 -4.9 8.45 -5.3 9.75 -5.4 10.3 -5.25 11.15 -4.85 13.35 -3.4 14.6 -2.35 Q15.75 -1.0 14.8 0.45 13.2 1.0 12.25 2.4 9.95 0.75 7.25 0.05 L6.5 -0.15 7.15 -0.05 Q6.7 -1.85 7.0 -3.15" fill="#d68000" fill-rule="evenodd" stroke="none"/>
      <path d="M-9.35 3.9 L-10.85 1.4 Q-10.5 1.75 -10.0 1.75 -9.5 1.95 -9.2 1.35 -8.85 0.75 -8.9 -0.25 L-9.2 -2.0 Q-9.6 -3.15 -10.25 -3.9 -11.0 -4.8 -11.65 -4.7 L-12.4 -4.25 -12.45 -4.55 Q-11.85 -6.4 -8.0 -5.45 L-8.0 -5.65 Q-7.0 -2.2 -5.3 0.05 L-4.7 0.75 -4.95 1.9 Q-6.85 3.3 -9.05 4.3 L-9.35 3.9 M8.05 -4.9 L8.55 -5.0 Q9.65 -5.0 10.75 -4.35 L10.8 -4.35 12.4 -2.75 Q12.95 -1.75 12.55 -1.15 12.2 -0.55 11.05 -0.5 10.1 -0.45 8.9 -1.15 L8.4 -1.45 Q7.7 -2.0 7.25 -2.7 L7.0 -3.15 Q7.3 -4.15 8.05 -4.9" fill="#ff9900" fill-rule="evenodd" stroke="none"/>
      <path d="M15.1 -8.45 Q18.95 -7.3 20.6 -8.35 20.25 -10.1 20.4 -11.15 21.1 -18.95 26.2 -20.95 L26.75 -21.1 31.2 -21.55 27.95 -19.1 Q25.45 -16.75 25.45 -15.5 22.8 -16.05 23.7 -12.05 24.3 -8.5 23.8 -5.85 23.15 -2.8 20.95 -0.75 19.5 0.45 17.6 -0.05 L14.8 0.45 Q15.75 -1.0 14.6 -2.35 L13.35 -3.4 16.95 -3.5 Q18.2 -5.95 15.1 -8.45 M20.35 -4.0 Q21.15 -6.5 20.6 -8.35 21.15 -6.5 20.35 -4.0" fill="url(#gradient5)" fill-rule="evenodd" stroke="none"/>
      <path d="M31.2 -21.55 Q34.9 -21.35 39.85 -19.2 48.4 -15.55 51.35 -9.1 52.35 -7.0 52.55 -4.15 52.7 -1.8 52.2 0.85 51.7 4.05 50.35 7.9 L50.0 8.95 47.5 14.7 47.2 15.15 Q43.7 22.05 39.1 25.35 L38.4 25.75 Q31.7 25.45 33.65 19.7 32.55 20.8 30.75 21.6 L31.95 19.3 Q32.9 17.25 33.45 15.1 33.55 14.75 32.45 14.65 33.15 12.2 31.4 11.35 31.05 10.2 30.6 9.75 L30.5 9.75 Q30.9 9.15 31.7 8.85 L31.0 8.65 Q26.3 2.25 28.7 -6.05 27.45 -2.2 25.55 4.6 24.95 6.8 29.4 8.25 26.0 8.15 23.9 6.05 22.8 3.95 24.5 -0.85 24.0 -1.15 22.45 1.2 23.7 -2.8 23.8 -5.85 24.3 -8.5 23.7 -12.05 22.8 -16.05 25.45 -15.5 L26.1 -15.25 25.45 -15.5 Q25.45 -16.75 27.95 -19.1 L31.2 -21.55 M28.95 -6.6 L28.7 -6.05 28.95 -6.6 M35.3 11.75 Q32.6 7.45 30.6 9.75 32.6 7.45 35.3 11.75 M35.85 13.9 L35.85 15.5 Q35.6 17.95 33.65 19.7 35.6 17.95 35.85 15.5 L35.85 13.9 M13.6 4.45 Q13.25 4.35 12.55 5.2 12.8 3.15 13.9 1.95 17.35 -0.45 20.35 1.3 19.05 2.0 19.55 3.6 15.3 5.15 13.65 8.3 13.0 7.15 13.6 4.45" fill="url(#gradient6)" fill-rule="evenodd" stroke="none"/>
      <path d="M20.95 20.05 Q16.05 16.4 13.45 16.9 12.65 17.0 11.05 16.3 10.35 17.2 8.95 16.7 L8.55 16.55 7.75 14.7 Q9.55 14.0 8.5 10.25 L8.55 10.25 8.65 10.25 8.75 10.25 Q10.7 10.25 11.05 9.2 10.55 7.2 11.3 4.45 11.65 3.3 12.25 2.4 13.2 1.0 14.8 0.45 L17.6 -0.05 Q19.5 0.45 20.95 -0.75 23.15 -2.8 23.8 -5.85 23.7 -2.8 22.45 1.2 24.0 -1.15 24.5 -0.85 22.8 3.95 23.9 6.05 26.0 8.15 29.4 8.25 L29.5 8.25 31.0 8.65 31.7 8.85 Q30.9 9.15 30.5 9.75 30.05 10.4 30.15 11.35 30.3 12.7 30.05 13.7 22.05 8.1 18.95 9.3 15.8 10.45 14.45 12.8 13.15 15.05 15.45 14.75 L19.15 14.85 20.7 15.55 21.35 15.85 24.05 17.9 Q22.0 18.85 20.95 20.05 M13.6 4.45 Q13.0 7.15 13.65 8.3 15.3 5.15 19.55 3.6 19.05 2.0 20.35 1.3 17.35 -0.45 13.9 1.95 12.8 3.15 12.55 5.2 13.25 4.35 13.6 4.45 M10.35 12.55 Q10.35 11.8 9.15 10.65 10.35 11.8 10.35 12.55 M11.25 12.9 Q12.25 11.1 11.05 9.2 12.25 11.1 11.25 12.9" fill="url(#gradient7)" fill-rule="evenodd" stroke="none"/>
      <path d="M54.05 4.35 Q54.8 4.75 55.0 6.75 56.95 8.8 57.15 11.2 L56.5 13.05 55.8 14.8 54.15 17.5 Q52.3 20.25 49.35 22.7 47.0 24.65 44.05 26.45 L39.9 28.6 37.95 29.4 Q35.9 30.05 33.8 27.95 36.05 27.4 38.4 25.75 L39.1 25.35 Q43.7 22.05 47.2 15.15 51.3 9.65 54.05 4.35 M54.55 9.2 L55.0 6.75 54.55 9.2 M49.2 17.65 L52.2 14.15 49.2 17.65" fill="url(#gradient8)" fill-rule="evenodd" stroke="none"/>
      <path d="M56.5 13.05 Q60.0 23.1 59.85 29.9 56.95 38.4 47.15 43.6 44.0 44.05 44.15 41.7 L44.2 35.05 Q42.35 31.7 39.9 28.6 L44.05 26.45 Q47.0 24.65 49.35 22.7 52.3 20.25 54.15 17.5 L55.8 14.8 56.5 13.05 M49.75 23.6 L49.35 22.7 49.75 23.6 M45.95 29.6 L44.05 26.45 45.95 29.6 M47.75 33.9 L47.1 32.05 47.75 33.9 M51.9 28.3 L51.45 27.35 51.9 28.3" fill="url(#gradient9)" fill-rule="evenodd" stroke="none"/>
      <path d="M33.8 27.95 Q30.5 28.85 27.65 27.2 L25.25 23.85 Q22.55 24.9 20.6 21.6 20.3 21.15 20.95 20.05 22.0 18.85 24.05 17.9 25.25 17.4 26.65 17.0 29.55 16.2 30.05 13.7 30.3 12.7 30.15 11.35 30.05 10.4 30.5 9.75 L30.6 9.75 Q31.05 10.2 31.4 11.35 33.15 12.2 32.45 14.65 33.55 14.75 33.45 15.1 32.9 17.25 31.95 19.3 L30.75 21.6 Q32.55 20.8 33.65 19.7 31.7 25.45 38.4 25.75 36.05 27.4 33.8 27.95 M26.0 23.2 L28.8 22.35 30.75 21.6 28.8 22.35 26.0 23.2" fill="url(#gradient10)" fill-rule="evenodd" stroke="none"/>
      <path d="M29.4 8.25 Q24.95 6.8 25.55 4.6 27.45 -2.2 28.7 -6.05 26.3 2.25 31.0 8.65 L29.5 8.25 29.4 8.25 M-6.5 -26.35 L-6.45 -26.5 -6.95 -28.0 Q-0.45 -23.4 7.85 -26.0 L-2.75 -22.6 Q-4.95 -22.0 -6.5 -26.35" fill="#cfc4a9" fill-rule="evenodd" stroke="none"/>
      <path d="M30.05 13.7 Q29.55 16.2 26.65 17.0 25.25 17.4 24.05 17.9 L21.35 15.85 20.7 15.55 19.15 14.85 15.45 14.75 Q13.15 15.05 14.45 12.8 15.8 10.45 18.95 9.3 22.05 8.1 30.05 13.7 M-12.0 -26.95 Q-6.2 -19.05 -7.25 -15.8 -8.35 -12.75 -10.6 -11.35 -12.95 -9.9 -12.65 -12.25 -12.3 -14.65 -12.85 -16.0 L-13.6 -17.55 -13.95 -18.2 -16.0 -20.9 -15.2 -23.45 Q-14.45 -26.35 -12.0 -26.95" fill="#0f0d0c" fill-rule="evenodd" stroke="none"/>
      <path d="M-13.8 -44.05 Q-20.55 -40.4 -23.8 -35.75 L-24.2 -35.05 Q-25.75 -32.6 -26.25 -30.4 -28.4 -32.55 -27.85 -34.45 L-27.05 -36.4 -24.95 -40.6 Q-23.3 -43.65 -21.3 -46.0 -18.95 -48.95 -16.3 -50.9 L-13.6 -52.65 -11.9 -53.45 -10.05 -54.05 Q-7.6 -53.95 -5.55 -52.1 -3.5 -51.85 -3.1 -51.15 -8.35 -48.25 -13.8 -44.05 M-8.0 -51.5 L-5.55 -52.1 -8.0 -51.5 M-15.0 -47.4 L-12.9 -49.05 -15.0 -47.4 M-20.65 -42.1 L-17.9 -44.85 -20.65 -42.1" fill="url(#gradient11)" fill-rule="evenodd" stroke="none"/>
      <path d="M-27.05 -36.4 Q-30.25 -38.9 -33.6 -40.65 L-40.2 -40.45 Q-42.65 -40.3 -42.2 -43.45 -37.2 -53.25 -28.8 -56.4 -22.0 -56.65 -11.9 -53.45 L-13.6 -52.65 -16.3 -50.9 Q-18.95 -48.95 -21.3 -46.0 -23.3 -43.65 -24.95 -40.6 L-27.05 -36.4 M-38.0 -43.25 L-35.7 -43.65 -38.0 -43.25 M-34.15 -43.85 L-32.5 -44.15 -30.65 -43.6 -32.5 -44.15 -34.15 -43.85 M-31.05 -47.8 Q-28.3 -48.85 -27.0 -48.45 L-26.0 -48.05 -27.0 -48.45 Q-28.3 -48.85 -31.05 -47.8 M-22.25 -46.4 L-21.3 -46.0 -22.25 -46.4 M-28.2 -42.5 Q-26.6 -41.75 -24.95 -40.6 -26.6 -41.75 -28.2 -42.5" fill="url(#gradient12)" fill-rule="evenodd" stroke="none"/>
      <path d="M-24.2 -35.05 Q-23.7 -28.35 -18.05 -30.4 -19.15 -29.3 -19.85 -27.4 L-17.6 -28.65 Q-15.5 -29.75 -13.45 -30.3 -13.05 -30.4 -12.95 -29.3 -10.45 -30.05 -9.7 -28.35 -8.5 -28.1 -8.05 -27.6 L-8.05 -27.5 Q-8.65 -27.0 -9.65 -27.1 L-12.0 -26.95 Q-14.45 -26.35 -15.2 -23.45 L-16.0 -20.9 Q-16.9 -18.85 -18.15 -17.7 -19.1 -17.0 -19.7 -17.35 -22.95 -19.15 -21.95 -21.9 L-25.35 -24.3 Q-27.1 -27.05 -26.25 -30.4 -25.75 -32.6 -24.2 -35.05 M-21.4 -22.65 L-20.55 -25.5 -19.85 -27.4 -20.55 -25.5 -21.4 -22.65" fill="url(#gradient13)" fill-rule="evenodd" stroke="none"/>
      <path d="M-10.85 1.4 Q-12.15 -1.3 -12.4 -4.25 L-11.65 -4.7 Q-11.0 -4.8 -10.25 -3.9 -9.6 -3.15 -9.2 -2.0 L-8.9 -0.25 Q-8.85 0.75 -9.2 1.35 -9.5 1.95 -10.0 1.75 -10.5 1.75 -10.85 1.4" fill="#ffcc00" fill-rule="evenodd" stroke="none"/>
      <path d="M-13.1 20.25 Q-21.0 26.65 -27.8 33.55 -37.55 40.9 -37.0 45.85 -36.35 50.85 -38.8 53.65 -41.35 56.0 -45.95 56.45 -50.35 55.65 -52.6 52.55 -55.6 49.15 -52.2 43.45 L-55.65 43.05 Q-56.6 42.95 -58.05 41.8 -60.15 40.3 -59.75 37.4 -58.9 30.75 -56.9 28.65 -54.9 26.55 -52.4 26.85 -47.8 27.8 -45.5 30.45 -41.2 29.55 -35.7 25.75 -26.0 18.75 -16.5 10.4 -12.5 10.0 -12.85 17.35 L-13.1 20.25 M-16.9 17.05 L-15.45 15.9 -16.9 17.05 M-17.05 20.75 L-12.85 17.35 -17.05 20.75 M-20.6 23.7 L-31.25 33.15 -20.6 23.7 M-39.5 44.05 L-39.5 41.2 -39.5 44.05 M-35.35 37.0 L-37.05 38.6 -35.35 37.0 M-24.9 20.35 L-27.0 22.25 -28.5 22.7 -29.5 23.6 -28.5 22.7 -27.0 22.25 -24.9 20.35 M-47.25 39.2 Q-46.85 38.0 -47.5 37.05 -46.85 38.0 -47.25 39.2 M-47.9 41.35 L-50.65 41.6 -47.9 41.35 M-46.55 45.8 Q-46.35 44.25 -49.1 43.25 L-45.55 42.1 -49.1 43.25 Q-46.35 44.25 -46.55 45.8 M-49.1 43.25 L-52.2 43.45 -49.1 43.25 M-45.3 37.55 Q-43.6 32.85 -45.5 30.45 -43.6 32.85 -45.3 37.55 M-33.25 26.25 Q-37.45 29.05 -41.85 31.4 -37.45 29.05 -33.25 26.25" fill="url(#gradient14)" fill-rule="evenodd" stroke="none"/>
      <path d="M23.35 -28.8 Q23.05 -32.55 20.8 -37.45 16.9 -45.95 10.4 -48.75 8.25 -49.7 5.5 -49.85 L0.45 -49.35 Q-2.8 -48.75 -6.6 -47.35 -7.15 -47.1 -7.65 -47.0 L-13.3 -44.35 -13.8 -44.05 Q-20.55 -40.4 -23.8 -35.75 L-24.2 -35.05 Q-25.75 -32.6 -26.25 -30.4 -28.4 -32.55 -27.85 -34.45 L-27.05 -36.4 Q-30.25 -38.9 -33.6 -40.65 L-40.2 -40.45 Q-42.65 -40.3 -42.2 -43.45 -37.2 -53.25 -28.8 -56.4 -22.0 -56.65 -11.9 -53.45 L-10.05 -54.05 Q-7.6 -53.95 -5.55 -52.1 -3.5 -51.85 -3.1 -51.15 0.1 -50.9 0.45 -49.35 M23.35 -28.8 Q23.5 -26.3 22.9 -24.35 L22.75 -23.8 Q20.85 -18.6 13.1 -17.85 L10.3 -17.95 Q9.25 -16.3 10.5 -12.45 M11.4 -9.75 L11.75 -9.3 M15.1 -8.45 Q18.95 -7.3 20.6 -8.35 20.25 -10.1 20.4 -11.15 21.1 -18.95 26.2 -20.95 L26.75 -21.1 31.2 -21.55 Q34.9 -21.35 39.85 -19.2 48.4 -15.55 51.35 -9.1 52.35 -7.0 52.55 -4.15 52.7 -1.8 52.2 0.85 53.75 1.2 54.05 4.35 54.8 4.75 55.0 6.75 56.95 8.8 57.15 11.2 L56.5 13.05 Q60.0 23.1 59.85 29.9 56.95 38.4 47.15 43.6 44.0 44.05 44.15 41.7 L44.2 35.05 Q42.35 31.7 39.9 28.6 L37.95 29.4 Q35.9 30.05 33.8 27.95 30.5 28.85 27.65 27.2 L25.25 23.85 Q22.55 24.9 20.6 21.6 20.3 21.15 20.95 20.05 16.05 16.4 13.45 16.9 12.65 17.0 11.05 16.3 10.35 17.2 8.95 16.7 L8.55 16.55 7.75 14.7 M-0.95 11.15 Q-7.35 15.55 -13.1 20.25 -21.0 26.65 -27.8 33.55 -37.55 40.9 -37.0 45.85 -36.35 50.85 -38.8 53.65 -41.35 56.0 -45.95 56.45 -50.35 55.65 -52.6 52.55 -55.6 49.15 -52.2 43.45 L-55.65 43.05 Q-56.6 42.95 -58.05 41.8 -60.15 40.3 -59.75 37.4 -58.9 30.75 -56.9 28.65 -54.9 26.55 -52.4 26.85 -47.8 27.8 -45.5 30.45 -41.2 29.55 -35.7 25.75 -26.0 18.75 -16.5 10.4 L-9.35 3.9 M-12.45 -4.55 L-14.35 -5.3 -14.5 -5.65 Q-15.0 -7.1 -14.1 -7.85 -14.95 -9.5 -14.8 -10.25 -14.3 -12.85 -18.15 -17.7 -19.1 -17.0 -19.7 -17.35 -22.95 -19.15 -21.95 -21.9 L-25.35 -24.3 Q-27.1 -27.05 -26.25 -30.4 M-1.15 -4.1 L-1.7 -3.55 M52.2 0.85 Q51.7 4.05 50.35 7.9 L50.0 8.95 47.5 14.7 47.2 15.15 Q43.7 22.05 39.1 25.35 L38.4 25.75 Q36.05 27.4 33.8 27.95 M56.5 13.05 L55.8 14.8 54.15 17.5 Q52.3 20.25 49.35 22.7 47.0 24.65 44.05 26.45 L39.9 28.6 M-11.9 -53.45 L-13.6 -52.65 -16.3 -50.9 Q-18.95 -48.95 -21.3 -46.0 -23.3 -43.65 -24.95 -40.6 L-27.05 -36.4 M-52.2 43.45 L-49.1 43.25" fill="none" stroke="#000000" stroke-linecap="round" stroke-linejoin="round" stroke-opacity="0.4" stroke-width="0.7000000000000001"/>
      <path d="M-18.05 -30.4 Q-16.3 -32.35 -13.85 -32.7 L-12.3 -32.75 M7.85 -26.0 L8.4 -26.2 M9.3 -26.5 L10.65 -27.1 M10.5 -12.45 Q11.2 -11.4 11.4 -9.75 L11.45 -9.3 11.75 -9.3 Q13.8 -9.2 15.1 -8.45 18.2 -5.95 16.95 -3.5 L13.35 -3.4 11.15 -4.85 10.3 -5.25 9.75 -5.4 8.45 -5.3 8.05 -4.9 Q7.3 -4.15 7.0 -3.15 6.7 -1.85 7.15 -0.05 L6.5 -0.15 7.25 0.05 Q9.95 0.75 12.25 2.4 13.2 1.0 14.8 0.45 15.75 -1.0 14.6 -2.35 L13.35 -3.4 M7.75 14.7 L7.35 14.6 Q4.4 14.35 1.75 13.2 0.25 12.5 -1.1 11.5 L-0.95 11.15 Q-0.2 9.0 1.1 7.3 1.8 7.35 2.25 7.0 4.55 9.15 8.55 10.25 L8.65 10.25 8.75 10.25 Q10.7 10.25 11.05 9.2 10.55 7.2 11.3 4.45 11.65 3.3 12.25 2.4 M-9.35 3.9 L-10.85 1.4 Q-12.15 -1.3 -12.4 -4.25 L-12.45 -4.55 Q-11.85 -6.4 -8.0 -5.45 L-8.0 -5.65 Q-7.0 -2.2 -5.3 0.05 L-4.7 0.75 -4.95 1.9 Q-6.85 3.3 -9.05 4.3 L-9.35 3.9 M17.3 -22.95 L17.05 -23.6 M7.75 -21.05 Q10.4 -21.65 13.95 -21.1 17.95 -20.3 17.3 -22.95 M7.75 -21.05 Q4.65 -20.4 2.75 -18.1 1.5 -16.65 2.05 -14.75 2.05 -13.2 1.65 -11.95 L4.4 -11.85 5.3 -10.85 5.45 -10.6 5.4 -11.0 Q5.25 -12.55 5.5 -14.15 7.95 -15.5 10.5 -12.45 M7.4 -7.55 Q6.8 -8.95 5.45 -10.6 M7.4 -7.55 L7.6 -7.05 Q7.75 -6.6 7.5 -5.75 5.75 -3.5 2.3 -4.35 L2.55 -3.3 2.7 -2.15 0.75 -1.1 -0.9 -3.85 -1.15 -4.1 -3.5 -6.15 -1.75 -3.95 -1.7 -3.55 -1.15 -0.1 -3.95 1.5 -4.7 0.75 M6.5 -0.15 L6.4 -0.15 6.35 -0.2 6.05 -0.3 4.95 -0.4 1.5 6.25 2.25 7.0 M2.3 -4.35 L1.4 -6.7 -0.3 -9.35 Q-1.1 -8.75 -2.3 -8.45 -5.0 -7.55 -7.0 -8.05 -8.1 -7.75 -8.0 -5.65 M11.45 -9.3 L11.05 -9.3 Q10.55 -8.6 10.35 -7.8 10.0 -6.6 10.3 -5.25 M10.3 -17.95 L5.9 -17.65 M10.35 -7.8 L7.4 -7.55 M25.45 -15.5 L26.1 -15.25 M25.45 -15.5 Q22.8 -16.05 23.7 -12.05 24.3 -8.5 23.8 -5.85 23.15 -2.8 20.95 -0.75 19.5 0.45 17.6 -0.05 L14.8 0.45 M29.4 8.25 Q24.95 6.8 25.55 4.6 27.45 -2.2 28.7 -6.05 L28.95 -6.6 M20.6 -8.35 Q21.15 -6.5 20.35 -4.0 M55.0 6.75 L54.55 9.2 M47.2 15.15 Q51.3 9.65 54.05 4.35 M49.35 22.7 L49.75 23.6 M44.05 26.45 L45.95 29.6 M52.2 14.15 L49.2 17.65 M51.45 27.35 L51.9 28.3 M47.1 32.05 L47.75 33.9 M30.6 9.75 Q32.6 7.45 35.3 11.75 M30.75 21.6 Q32.55 20.8 33.65 19.7 35.6 17.95 35.85 15.5 L35.85 13.9 M30.05 13.7 Q29.55 16.2 26.65 17.0 25.25 17.4 24.05 17.9 22.0 18.85 20.95 20.05 M24.05 17.9 L21.35 15.85 20.7 15.55 19.15 14.85 15.45 14.75 Q13.15 15.05 14.45 12.8 15.8 10.45 18.95 9.3 22.05 8.1 30.05 13.7 30.3 12.7 30.15 11.35 M30.75 21.6 L28.8 22.35 26.0 23.2 M7.75 14.7 Q9.55 14.0 8.5 10.25 L8.55 10.25 M11.05 9.2 Q12.25 11.1 11.25 12.9 M9.15 10.65 Q10.35 11.8 10.35 12.55 M-5.55 -52.1 L-8.0 -51.5 M-12.9 -49.05 L-15.0 -47.4 M-18.05 -30.4 Q-19.15 -29.3 -19.85 -27.4 L-20.55 -25.5 -21.4 -22.65 M-8.05 -27.6 Q-5.7 -29.65 -10.15 -32.25 M-9.65 -27.1 L-12.0 -26.95 Q-6.2 -19.05 -7.25 -15.8 -8.35 -12.75 -10.6 -11.35 -12.95 -9.9 -12.65 -12.25 -12.3 -14.65 -12.85 -16.0 L-13.6 -17.55 -13.95 -18.2 -16.0 -20.9 Q-16.9 -18.85 -18.15 -17.7 M-6.5 -26.35 Q-4.95 -22.0 -2.75 -22.6 L7.85 -26.0 M-24.95 -40.6 Q-26.6 -41.75 -28.2 -42.5 M-21.3 -46.0 L-22.25 -46.4 M-26.0 -48.05 L-27.0 -48.45 Q-28.3 -48.85 -31.05 -47.8 M-30.65 -43.6 L-32.5 -44.15 -34.15 -43.85 M-35.7 -43.65 L-38.0 -43.25 M-16.0 -20.9 L-15.2 -23.45 Q-14.45 -26.35 -12.0 -26.95 M-7.0 -8.05 L-10.75 -8.2 M-8.4 -6.05 Q-9.6 -7.35 -10.35 -7.2 M-17.9 -44.85 L-20.65 -42.1 M-3.1 -51.15 Q-8.35 -48.25 -13.8 -44.05 M1.65 -11.95 Q1.1 -10.3 -0.3 -9.35" fill="none" stroke="#000000" stroke-linecap="round" stroke-linejoin="round" stroke-opacity="0.2509804" stroke-width="0.4"/>
      <path d="M-1.45 4.55 L-5.55 7.85 M-13.8 10.35 L-11.6 8.35 M-12.85 17.35 L-17.05 20.75 M-15.45 15.9 L-16.9 17.05 M-12.85 17.35 L-7.35 13.1 M-29.5 23.6 L-28.5 22.7 -27.0 22.25 -24.9 20.35 M-37.05 38.6 L-35.35 37.0 M-39.5 41.2 L-39.5 44.05 M-31.25 33.15 L-20.6 23.7 M-41.85 31.4 Q-37.45 29.05 -33.25 26.25" fill="none" stroke="#000000" stroke-linecap="round" stroke-linejoin="round" stroke-opacity="0.2509804" stroke-width="0.2"/>
      <path d="M-45.55 42.1 L-49.1 43.25 Q-46.35 44.25 -46.55 45.8 M-50.65 41.6 L-47.9 41.35 M-47.5 37.05 Q-46.85 38.0 -47.25 39.2 M-45.5 30.45 Q-43.6 32.85 -45.3 37.55" fill="none" stroke="#000000" stroke-linecap="round" stroke-linejoin="round" stroke-opacity="0.2509804" stroke-width="0.30000000000000004"/>
    </g>
    <linearGradient gradientTransform="matrix(-0.0101, 0.0117, -0.0171, -0.0147, -6.25, -23.0)" gradientUnits="userSpaceOnUse" id="gradient0" spreadMethod="pad" x1="-819.2" x2="819.2">
      <stop offset="0.0" stop-color="#ede6d4"/>
      <stop offset="1.0" stop-color="#cfc4a9"/>
    </linearGradient>
    <linearGradient gradientTransform="matrix(0.0145, -0.0079, 0.0027, 0.005, 13.05, -19.2)" gradientUnits="userSpaceOnUse" id="gradient1" spreadMethod="pad" x1="-819.2" x2="819.2">
      <stop offset="0.0" stop-color="#a1916f"/>
      <stop offset="1.0" stop-color="#ede6d4"/>
    </linearGradient>
    <linearGradient gradientTransform="matrix(0.0116, 2.0E-4, -2.0E-4, 0.0128, -8.3, -18.65)" gradientUnits="userSpaceOnUse" id="gradient2" spreadMethod="pad" x1="-819.2" x2="819.2">
      <stop offset="0.0" stop-color="#836e50"/>
      <stop offset="1.0" stop-color="#e6dfcb"/>
    </linearGradient>
    <linearGradient gradientTransform="matrix(0.0119, -0.0069, 0.0275, 0.0477, 6.55, 24.2)" gradientUnits="userSpaceOnUse" id="gradient3" spreadMethod="pad" x1="-819.2" x2="819.2">
      <stop offset="0.0" stop-color="#ddd4be"/>
      <stop offset="1.0" stop-color="#917e61"/>
    </linearGradient>
    <linearGradient gradientTransform="matrix(-0.0011, 0.0038, -0.0051, -0.0015, 3.35, -10.0)" gradientUnits="userSpaceOnUse" id="gradient4" spreadMethod="pad" x1="-819.2" x2="819.2">
      <stop offset="0.0" stop-color="#a1916f"/>
      <stop offset="1.0" stop-color="#dbcca6"/>
    </linearGradient>
    <linearGradient gradientTransform="matrix(0.0076, -0.0146, -0.005, -0.0026, 21.75, -11.2)" gradientUnits="userSpaceOnUse" id="gradient5" spreadMethod="pad" x1="-819.2" x2="819.2">
      <stop offset="0.0" stop-color="#a1916f"/>
      <stop offset="1.0" stop-color="#ede6d4"/>
    </linearGradient>
    <linearGradient gradientTransform="matrix(-0.0115, 0.0104, 0.0151, 0.0168, 26.0, 8.05)" gradientUnits="userSpaceOnUse" id="gradient6" spreadMethod="pad" x1="-819.2" x2="819.2">
      <stop offset="0.0" stop-color="#ede6d4"/>
      <stop offset="1.0" stop-color="#cfc4a9"/>
    </linearGradient>
    <linearGradient gradientTransform="matrix(-5.0E-4, -0.0116, -0.0128, 5.0E-4, 21.7, 10.15)" gradientUnits="userSpaceOnUse" id="gradient7" spreadMethod="pad" x1="-819.2" x2="819.2">
      <stop offset="0.0" stop-color="#836e50"/>
      <stop offset="1.0" stop-color="#e6dfcb"/>
    </linearGradient>
    <linearGradient gradientTransform="matrix(0.0112, -0.0057, -0.0102, -0.0201, -7.3, -93.45)" gradientUnits="userSpaceOnUse" id="gradient8" spreadMethod="pad" x1="-819.2" x2="819.2">
      <stop offset="0.0" stop-color="#836e50"/>
      <stop offset="1.0" stop-color="#e6dfcb"/>
    </linearGradient>
    <linearGradient gradientTransform="matrix(0.0083, -0.0018, -0.0047, -0.022, 29.0, -49.05)" gradientUnits="userSpaceOnUse" id="gradient9" spreadMethod="pad" x1="-819.2" x2="819.2">
      <stop offset="0.0" stop-color="#8a754b"/>
      <stop offset="1.0" stop-color="#e6dfcb"/>
    </linearGradient>
    <linearGradient gradientTransform="matrix(0.0069, -0.0033, -0.0047, -0.01, 31.5, 19.7)" gradientUnits="userSpaceOnUse" id="gradient10" spreadMethod="pad" x1="-819.2" x2="819.2">
      <stop offset="0.0" stop-color="#8a754b"/>
      <stop offset="1.0" stop-color="#e6dfcb"/>
    </linearGradient>
    <linearGradient gradientTransform="matrix(0.0054, -0.0113, 0.0203, 0.0098, 95.95, 8.1)" gradientUnits="userSpaceOnUse" id="gradient11" spreadMethod="pad" x1="-819.2" x2="819.2">
      <stop offset="0.0" stop-color="#836e50"/>
      <stop offset="1.0" stop-color="#e6dfcb"/>
    </linearGradient>
    <linearGradient gradientTransform="matrix(0.0016, -0.0084, 0.0221, 0.0043, 50.9, -27.15)" gradientUnits="userSpaceOnUse" id="gradient12" spreadMethod="pad" x1="-819.2" x2="819.2">
      <stop offset="0.0" stop-color="#8a754b"/>
      <stop offset="1.0" stop-color="#e6dfcb"/>
    </linearGradient>
    <linearGradient gradientTransform="matrix(0.0031, -0.007, 0.0101, 0.0045, -18.0, -28.2)" gradientUnits="userSpaceOnUse" id="gradient13" spreadMethod="pad" x1="-819.2" x2="819.2">
      <stop offset="0.0" stop-color="#8a754b"/>
      <stop offset="1.0" stop-color="#e6dfcb"/>
    </linearGradient>
    <linearGradient gradientTransform="matrix(0.0098, 0.0098, -0.0389, 0.0389, -22.85, 18.8)" gradientUnits="userSpaceOnUse" id="gradient14" spreadMethod="pad" x1="-819.2" x2="819.2">
      <stop offset="0.0" stop-color="#ede6d4"/>
      <stop offset="1.0" stop-color="#cfc4a9"/>
    </linearGradient>
    <g id="shape1" transform="matrix(1.0, 0.0, 0.0, 1.0, 69.6, 58.1)">
      <path d="M-54.25 -57.35 L-54.25 -57.3 Q-54.25 -56.95 -55.75 -53.5 -60.9 -43.35 -63.0 -32.15 L-64.5 -23.95 -66.4 -11.55 Q-68.15 2.0 -66.1 15.35 -65.3 20.35 -63.75 24.95 -63.05 28.55 -60.45 29.8 L-58.1 30.35 -55.8 30.4 -54.7 30.4 Q-53.75 30.4 -53.3 30.05 -53.05 28.55 -52.25 28.55 -51.95 28.95 -51.85 29.85 L-51.85 29.9 -51.8 29.9 -51.5 31.05 -51.5 31.2 -51.25 31.7 -51.15 31.85 -50.5 32.65 -50.4 32.75 Q-49.75 33.25 -47.85 33.3 L-44.25 33.2 Q-39.95 33.2 -38.95 32.3 -38.75 32.1 -38.65 30.95 -38.85 29.35 -38.65 28.65 -38.35 27.55 -37.65 27.85 -37.0 28.15 -36.65 29.15 L-36.5 30.0 -36.45 30.0 -35.65 30.3 -30.0 30.05 -24.7 29.4 -24.35 29.25 -23.55 28.6 -22.75 27.45 Q-22.45 26.2 -22.25 23.3 L-24.3 23.0 -24.35 25.95 -24.35 26.25 -24.9 26.45 -25.45 25.75 -25.65 24.7 -25.6 22.8 -25.65 20.65 -25.6 19.05 -25.5 15.4 -24.85 11.3 Q-24.3 8.55 -23.5 6.75 L-23.0 5.75 Q-22.05 4.1 -21.0 4.4 L-20.9 4.85 -21.0 5.3 -20.65 5.25 -17.1 4.95 -14.35 4.65 -14.45 0.4 Q-14.6 -1.9 -17.85 -2.3 L-20.45 -2.65 -20.4 -1.6 -20.4 -1.1 Q-20.35 -0.85 -21.0 -0.85 -21.55 -0.85 -21.9 -1.85 -22.4 -3.05 -22.6 -5.75 L-22.75 -10.65 Q-22.75 -15.75 -22.1 -19.2 -21.55 -22.2 -19.5 -28.45 -17.45 -34.8 -16.1 -37.35 L-13.25 -41.85 Q-12.35 -43.1 -10.85 -44.2 L-10.3 -44.55 Q-8.9 -45.5 -8.9 -44.05 -8.9 -44.55 -11.45 -41.1 L-13.4 -38.2 -10.35 -39.75 -7.15 -41.4 Q-5.0 -42.15 -5.0 -40.7 -5.0 -39.15 -14.75 -35.7 L-15.75 -33.3 -19.1 -22.55 Q-20.4 -17.7 -20.6 -11.8 L-20.5 -3.85 -17.9 -3.95 -14.85 -3.55 -13.5 -2.5 Q-12.7 -1.65 -12.5 -0.35 L-12.45 1.7 Q-12.45 4.75 -12.6 5.25 -13.05 6.65 -15.15 6.65 L-21.5 6.45 -21.95 7.35 Q-23.1 9.6 -23.25 10.3 L-23.8 12.75 -24.2 15.5 -24.3 20.75 -24.3 21.55 -22.75 21.4 Q-20.5 21.5 -20.65 23.65 L-20.5 27.55 Q-20.5 29.15 -21.6 30.25 -22.9 31.55 -25.55 32.05 L-29.0 32.3 -36.4 31.9 Q-36.45 32.65 -36.65 33.2 L-37.25 34.0 -38.7 34.9 Q-40.7 35.65 -44.3 35.65 L-49.8 35.1 Q-51.7 34.55 -52.6 33.6 L-53.2 32.6 -54.55 32.7 -55.8 32.7 -58.2 32.85 Q-63.7 32.55 -65.9 26.8 L-66.5 24.95 Q-69.9 12.8 -69.6 0.15 -69.35 -12.0 -67.2 -23.95 -65.35 -34.45 -61.85 -44.5 -60.25 -49.1 -58.25 -53.5 -55.85 -58.1 -55.1 -58.1 L-54.55 -57.85 -54.5 -57.8 -54.25 -57.35" fill="#000000" fill-rule="evenodd" stroke="none"/>
      <path d="M-53.6 -57.35 L-53.85 -56.7 Q-58.4 -45.75 -60.3 -33.7 L-61.6 -24.9 Q-62.6 -18.2 -63.7 -6.65 -64.85 4.9 -63.55 13.95 -62.3 22.95 -61.5 25.95 L-60.45 29.8 Q-63.05 28.55 -63.75 24.95 -65.3 20.35 -66.1 15.35 -68.15 2.0 -66.4 -11.55 L-64.5 -23.95 -63.0 -32.15 Q-60.9 -43.35 -55.75 -53.5 -54.25 -56.95 -54.25 -57.3 L-54.25 -57.35 -53.6 -57.35 M-51.15 31.85 L-50.75 31.65 Q-50.5 32.0 -50.4 32.75 L-50.5 32.65 -51.15 31.85 M-24.35 29.25 L-24.1 26.0 -24.35 25.95 -24.3 23.0 -22.25 23.3 Q-22.45 26.2 -22.75 27.45 L-23.55 28.6 -24.35 29.25 M-25.45 25.75 L-25.8 25.65 -26.25 25.4 -26.65 24.95 -26.9 24.45 -27.1 23.3 -27.1 23.15 -27.1 21.4 -27.0 17.5 -26.4 13.05 Q-25.9 10.1 -25.2 8.15 -24.15 5.25 -23.0 5.65 L-23.0 5.75 -23.5 6.75 Q-24.3 8.55 -24.85 11.3 L-25.5 15.4 -25.6 19.05 -25.65 20.65 -25.6 22.8 -25.65 24.7 -25.45 25.75 M-17.1 4.95 L-17.2 1.35 Q-17.3 -1.15 -20.2 -1.6 L-20.4 -1.6 -20.45 -2.65 -17.85 -2.3 Q-14.6 -1.9 -14.45 0.4 L-14.35 4.65 -17.1 4.95 M-21.9 -1.85 L-22.5 -1.95 -23.75 -2.5 -24.15 -2.85 -24.4 -5.3 -24.55 -10.55 Q-24.55 -16.05 -23.95 -19.75 -23.5 -23.0 -21.65 -29.7 -19.85 -36.55 -18.65 -39.3 -17.6 -41.8 -16.1 -44.15 L-14.0 -46.7 -13.9 -46.75 -10.3 -44.55 -10.85 -44.2 Q-12.35 -43.1 -13.25 -41.85 L-16.1 -37.35 Q-17.45 -34.8 -19.5 -28.45 -21.55 -22.2 -22.1 -19.2 -22.75 -15.75 -22.75 -10.65 L-22.6 -5.75 Q-22.4 -3.05 -21.9 -1.85" fill="#bdbdbd" fill-rule="evenodd" stroke="none"/>
      <path d="M-60.45 29.8 L-61.5 25.95 Q-62.3 22.95 -63.55 13.95 -64.85 4.9 -63.7 -6.65 -62.6 -18.2 -61.6 -24.9 L-60.3 -33.7 Q-58.4 -45.75 -53.85 -56.7 L-53.6 -57.35 Q-32.0 -57.15 -13.9 -46.75 L-14.0 -46.7 -16.1 -44.15 Q-17.6 -41.8 -18.65 -39.3 -19.85 -36.55 -21.65 -29.7 -23.5 -23.0 -23.95 -19.75 -24.55 -16.05 -24.55 -10.55 L-24.4 -5.3 -24.15 -2.85 -23.75 -2.5 -22.5 -1.95 -21.9 -1.85 Q-21.55 -0.85 -21.0 -0.85 -20.35 -0.85 -20.4 -1.1 L-20.4 -1.6 -20.2 -1.6 Q-17.3 -1.15 -17.2 1.35 L-17.1 4.95 -20.65 5.25 -21.0 5.3 -20.9 4.85 -21.0 4.4 Q-22.05 4.1 -23.0 5.75 L-23.0 5.65 Q-24.15 5.25 -25.2 8.15 -25.9 10.1 -26.4 13.05 L-27.0 17.5 -27.1 21.4 -27.1 23.15 -27.1 23.3 -26.9 24.45 -26.65 24.95 -26.25 25.4 -25.8 25.65 -25.45 25.75 -24.9 26.45 -24.35 26.25 -24.35 25.95 -24.1 26.0 -24.35 29.25 -24.7 29.4 -30.0 30.05 -35.65 30.3 -36.45 30.0 -36.5 30.0 -36.65 29.15 Q-37.0 28.15 -37.65 27.85 -38.35 27.55 -38.65 28.65 -38.85 29.35 -38.65 30.95 -38.75 32.1 -38.95 32.3 -39.95 33.2 -44.25 33.2 L-47.85 33.3 Q-49.75 33.25 -50.4 32.75 -50.5 32.0 -50.75 31.65 L-51.15 31.85 -51.25 31.7 -51.5 31.2 -51.5 31.05 -51.8 29.9 -51.85 29.9 -51.85 29.85 Q-51.95 28.95 -52.25 28.55 -53.05 28.55 -53.3 30.05 -53.75 30.4 -54.7 30.4 L-55.8 30.4 -58.1 30.35 -60.45 29.8" fill="#999999" fill-rule="evenodd" stroke="none"/>
    </g>
  </defs>
</svg>
