<?xml version="1.0" encoding="UTF-8" standalone="no"?>
<svg xmlns:xlink="http://www.w3.org/1999/xlink" height="531.5px" width="460.6px" xmlns="http://www.w3.org/2000/svg">
  <g transform="matrix(1.0, 0.0, 0.0, 1.0, 193.65, 334.05)">
    <use height="298.15" transform="matrix(-0.1933, 1.001, -1.001, -0.1933, 187.5448, -22.2489)" width="115.45" xlink:href="#shape0"/>
    <use height="106.8" transform="matrix(1.0, 0.0, 0.0, 1.0, -73.1, -55.15)" width="118.65" xlink:href="#shape1"/>
  </g>
  <defs>
    <g id="shape0" transform="matrix(1.0, 0.0, 0.0, 1.0, 57.7, 149.05)">
      <path d="M2.8 -148.15 L-30.6 -129.0 -33.0 -116.95 -29.3 -91.1 -30.55 -86.35 -31.7 -82.2 -28.75 -67.8 -31.7 -51.9 -48.7 -51.7 -48.7 -72.4 -57.2 -92.3 -50.4 -127.25 -25.55 -143.95 -10.1 -148.55 2.8 -148.15 M30.5 -70.9 L36.2 -77.2 48.2 -80.35 41.95 -70.9 30.5 -70.9 M-36.4 110.15 L-36.55 109.8 -34.3 103.35 -3.3 104.45 -14.7 131.25 -36.4 110.15 M-37.5 90.35 L-31.35 69.2 -36.35 40.65 -31.35 21.85 -40.8 -8.9 -40.75 -9.2 -34.55 -38.7 -33.65 -37.9 -32.9 -37.45 -15.25 -36.4 -11.65 -25.9 -24.45 -4.0 -20.35 -1.95 -13.8 11.65 -25.85 11.65 -24.45 -4.0 -25.85 11.65 -13.8 11.65 -7.7 25.2 -20.45 64.9 -14.55 90.05 -37.5 90.35 M-33.0 -116.95 L-41.4 -125.25 -50.4 -127.25 -41.4 -125.25 -30.6 -129.0 -41.4 -125.25 -33.0 -116.95 M-36.35 40.65 L-7.7 25.2 -36.35 40.65 M-40.75 -9.2 L-24.45 -4.0 -40.75 -9.2 M-31.35 69.2 L-20.9 66.25 -20.45 64.9 -20.9 66.25 -31.35 69.2 M-25.85 11.65 L-31.35 21.85 -25.85 11.65" fill="#f2ffff" fill-rule="evenodd" stroke="none"/>
      <path d="M33.35 -36.4 L36.0 -22.05 32.55 -12.5 32.55 -12.45 20.95 -6.45 20.75 -9.05 Q20.75 -15.3 22.0 -17.55 22.9 -19.2 26.9 -24.55 L36.0 -22.05 26.9 -24.55 21.7 -25.95 17.95 -21.85 Q15.0 -19.1 12.9 -17.9 L17.75 -4.8 33.9 7.75 33.8 8.75 Q27.95 8.1 22.3 6.5 11.55 3.45 -2.55 -4.25 -8.85 -7.7 -13.7 -12.3 L-14.0 -12.6 -13.05 -14.25 8.55 -29.55 12.9 -17.9 8.55 -29.55 -13.05 -14.25 -14.0 -12.6 -18.3 -5.4 Q-4.35 0.2 8.2 15.9 L15.05 25.2 -7.7 25.2 -13.8 11.65 -20.35 -1.95 -24.45 -4.0 -11.65 -25.9 -15.25 -36.4 8.55 -29.55 33.35 -36.4 M30.2 37.3 L37.55 57.6 31.8 66.1 5.95 50.2 10.1 40.4 30.2 37.3 M33.9 87.0 L39.2 103.7 18.0 84.95 32.0 79.75 32.0 81.0 33.9 87.0 M35.65 110.0 L39.0 119.05 21.7 115.45 28.9 110.05 29.7 110.05 35.65 110.0 M8.55 -29.55 L21.7 -25.95 8.55 -29.55 M-13.05 -14.25 L-11.65 -25.9 -13.05 -14.25 M-31.7 -51.9 L-28.75 -67.8 -15.1 -49.7 -31.7 -51.9 M-20.35 -1.95 L-18.3 -5.4 -20.35 -1.95" fill="#b2f4f4" fill-rule="evenodd" stroke="none"/>
      <path d="M32.55 -12.45 L33.9 7.75 17.75 -4.8 20.95 -6.45 32.55 -12.45 M27.3 25.15 L31.4 27.75 30.2 37.3 10.1 40.4 5.95 50.2 31.8 66.1 37.55 57.6 33.9 87.0 32.0 81.0 32.0 79.75 18.0 84.95 17.75 84.75 5.95 50.2 17.75 84.75 18.0 84.95 9.45 97.85 29.7 110.05 9.45 97.85 18.0 84.95 39.2 103.7 35.65 110.0 29.7 110.05 28.9 110.05 21.7 115.45 39.0 119.05 29.4 137.15 20.9 138.45 3.9 148.6 -11.25 146.35 -19.35 135.1 -14.7 131.25 -3.3 104.45 -14.55 90.05 -20.45 64.9 -7.7 25.2 15.05 25.2 27.3 25.15 M-6.4 -42.25 L8.55 -29.55 -15.25 -36.4 -31.7 -51.9 -15.1 -49.7 -6.4 -42.25 M20.9 138.45 L-14.7 131.25 20.9 138.45 M31.8 66.1 L32.0 79.75 31.8 66.1 M29.4 137.15 L21.7 115.45 29.4 137.15" fill="#a5e2e2" fill-rule="evenodd" stroke="none"/>
      <path d="M-19.35 135.1 L-27.65 130.5 -36.4 110.15 -14.7 131.25 -19.35 135.1 M-34.55 -38.7 L-48.7 -51.7 -31.7 -51.9 -15.25 -36.4 -32.9 -37.45 -33.65 -37.9 -34.55 -38.7" fill="#cbe2e2" fill-rule="evenodd" stroke="none"/>
      <path d="M2.8 -148.15 L16.1 -143.85 19.1 -139.45 Q16.0 -133.65 13.65 -130.65 2.6 -116.6 -12.3 -100.05 -15.7 -96.3 -24.6 -90.25 L-30.55 -86.35 -29.3 -91.1 -33.0 -116.95 -30.6 -129.0 2.8 -148.15 M6.75 -90.0 L8.9 -76.65 27.9 -70.9 30.5 -70.9 41.95 -70.9 48.2 -80.35 56.35 -77.4 57.25 -65.35 52.45 -48.75 40.65 -39.9 33.35 -36.4 8.55 -29.55 -6.4 -42.25 Q-9.0 -47.95 -9.0 -54.3 -9.0 -56.6 -8.4 -60.75 L-6.95 -68.25 Q-6.45 -70.3 -3.7 -75.0 L0.45 -81.6 Q3.3 -86.1 6.75 -90.0" fill="url(#gradient0)" fill-rule="evenodd" stroke="none"/>
      <path d="M-34.3 103.35 L-37.5 90.35 -14.55 90.05 -3.3 104.45 -34.3 103.35" fill="#d9f2f2" fill-rule="evenodd" stroke="none"/>
      <path d="M33.8 8.75 L32.45 21.2 27.3 25.15 15.05 25.2 8.2 15.9 Q-4.35 0.2 -18.3 -5.4 L-14.0 -12.6 -13.7 -12.3 Q-8.85 -7.7 -2.55 -4.25 11.55 3.45 22.3 6.5 27.95 8.1 33.8 8.75 M17.75 -4.8 L12.9 -17.9 Q15.0 -19.1 17.95 -21.85 L21.7 -25.95 26.9 -24.55 Q22.9 -19.2 22.0 -17.55 20.75 -15.3 20.75 -9.05 L20.95 -6.45 17.75 -4.8" fill="#c6ffff" fill-rule="evenodd" stroke="none"/>
      <path d="M-30.55 -86.35 L-24.6 -90.25 Q-15.7 -96.3 -12.3 -100.05 2.6 -116.6 13.65 -130.65 16.0 -133.65 19.1 -139.45 L24.4 -131.65 18.5 -115.25 5.2 -105.8 5.2 -99.7 6.75 -90.0 Q3.3 -86.1 0.45 -81.6 L-3.7 -75.0 Q-6.45 -70.3 -6.95 -68.25 L-8.4 -60.75 Q-9.0 -56.6 -9.0 -54.3 -9.0 -47.95 -6.4 -42.25 L-15.1 -49.7 -28.75 -67.8 -31.7 -82.2 -30.55 -86.35" fill="url(#gradient1)" fill-rule="evenodd" stroke="none"/>
      <path d="M19.1 -139.45 L16.1 -143.85 2.8 -148.15 -10.1 -148.55 -25.55 -143.95 -50.4 -127.25 -57.2 -92.3 -48.7 -72.4 -48.7 -51.7 -34.55 -38.7 -40.75 -9.2 -40.8 -8.9 -31.35 21.85 -36.35 40.65 -31.35 69.2 -37.5 90.35 -34.3 103.35 -36.55 109.8 -36.4 110.15 -27.65 130.5 -19.35 135.1 -11.25 146.35 3.9 148.6 20.9 138.45 29.4 137.15 39.0 119.05 35.65 110.0 39.2 103.7 33.9 87.0 37.55 57.6 30.2 37.3 31.4 27.75 27.3 25.15 32.45 21.2 33.8 8.75 33.9 7.75 32.55 -12.45 32.55 -12.5 36.0 -22.05 33.35 -36.4 40.65 -39.9 52.45 -48.75 57.25 -65.35 56.35 -77.4 48.2 -80.35 36.2 -77.2 30.5 -70.9 27.9 -70.9 8.9 -76.65 6.75 -90.0 5.2 -99.7 5.2 -105.8 18.5 -115.25 24.4 -131.65 19.1 -139.45" fill="none" stroke="#000000" stroke-linecap="round" stroke-linejoin="round" stroke-opacity="0.2509804" stroke-width="1.0"/>
      <path d="M2.8 -148.15 L-30.6 -129.0 -33.0 -116.95 -29.3 -91.1 -30.55 -86.35 -31.7 -82.2 -28.75 -67.8 -31.7 -51.9 -15.1 -49.7 -28.75 -67.8 M30.5 -70.9 L41.95 -70.9 48.2 -80.35 M-6.4 -42.25 L8.55 -29.55 33.35 -36.4 M17.75 -4.8 L12.9 -17.9 8.55 -29.55 -13.05 -14.25 -14.0 -12.6 -18.3 -5.4 -20.35 -1.95 -24.45 -4.0 -25.85 11.65 -13.8 11.65 -7.7 25.2 -36.35 40.65 M21.7 -25.95 L8.55 -29.55 -15.25 -36.4 -11.65 -25.9 -13.05 -14.25 M20.95 -6.45 L32.55 -12.45 M26.9 -24.55 L36.0 -22.05 M20.95 -6.45 L17.75 -4.8 33.9 7.75 M21.7 -25.95 L26.9 -24.55 M27.3 25.15 L15.05 25.2 -7.7 25.2 -20.45 64.9 -14.55 90.05 -3.3 104.45 -14.7 131.25 20.9 138.45 M30.2 37.3 L10.1 40.4 5.95 50.2 31.8 66.1 37.55 57.6 M5.95 50.2 L17.75 84.75 18.0 84.95 32.0 79.75 31.8 66.1 M18.0 84.95 L9.45 97.85 29.7 110.05 35.65 110.0 M32.0 79.75 L32.0 81.0 33.9 87.0 M39.0 119.05 L21.7 115.45 29.4 137.15 M29.7 110.05 L28.9 110.05 21.7 115.45 M39.2 103.7 L18.0 84.95 M-50.4 -127.25 L-41.4 -125.25 -30.6 -129.0 M-41.4 -125.25 L-33.0 -116.95 M-15.25 -36.4 L-32.9 -37.45 -33.65 -37.9 -34.55 -38.7 M-13.8 11.65 L-20.35 -1.95 M-11.65 -25.9 L-24.45 -4.0 -40.75 -9.2 M-6.4 -42.25 L-15.1 -49.7 M-31.7 -51.9 L-15.25 -36.4 M-48.7 -51.7 L-31.7 -51.9 M-31.35 21.85 L-25.85 11.65 M-20.45 64.9 L-20.9 66.25 -31.35 69.2 M-14.55 90.05 L-37.5 90.35 M-19.35 135.1 L-14.7 131.25 -36.4 110.15 M-34.3 103.35 L-3.3 104.45" fill="none" stroke="#000000" stroke-linecap="round" stroke-linejoin="round" stroke-opacity="0.12156863" stroke-width="0.7000000000000001"/>
      <path d="M6.6 -50.8 L-1.45 -55.7 -4.25 -60.0 -5.05 -66.05 8.65 -71.7 12.4 -67.6 11.1 -64.3 14.55 -65.55 20.9 -61.15 17.95 -50.8 6.6 -50.8 M-10.85 -112.9 L-7.45 -109.2 -0.4 -112.5 0.0 -111.9 -3.95 -105.3 Q-5.7 -102.0 -6.15 -98.15 -7.55 -87.6 -17.1 -84.4 L-19.8 -83.8 -19.8 -97.8 -11.35 -112.45 -10.85 -112.9 M-9.8 -71.55 L-10.1 -76.45 0.15 -76.0 -2.65 -72.5 -9.8 -71.55" fill="#0066ff" fill-opacity="0.039215688" fill-rule="evenodd" stroke="none"/>
      <path d="M5.2 -105.8 L5.2 -99.7 8.9 -76.65 27.9 -70.9 30.5 -70.9 36.2 -77.2 48.2 -80.35 56.35 -77.4 57.25 -65.35 52.45 -48.75 40.65 -39.9 33.35 -36.4 36.0 -22.05 32.55 -12.5 32.55 -12.45 33.9 7.75 32.45 21.2 27.3 25.15 31.4 27.75 30.2 37.3 37.55 57.6 33.9 87.0 39.2 103.7 35.65 110.0 39.0 119.05 29.4 137.15 20.9 138.45 3.9 148.6 -11.25 146.35 -19.35 135.1 -27.65 130.5 -36.55 109.8 -34.3 103.35 -37.5 90.35 -31.35 69.2 -36.35 40.65 -31.35 21.85 -40.8 -8.9 -34.55 -38.7 -48.7 -51.7 -48.7 -72.4 -57.2 -92.3 -50.4 -127.25 -25.55 -143.95 -10.1 -148.55 2.8 -148.15 16.1 -143.85 24.4 -131.65 18.5 -115.25 5.2 -105.8" fill="url(#gradient2)" fill-rule="evenodd" stroke="none"/>
    </g>
    <linearGradient gradientTransform="matrix(0.0067, 0.0546, -0.0718, 0.0089, 40.45, -88.15)" gradientUnits="userSpaceOnUse" id="gradient0" spreadMethod="pad" x1="-819.2" x2="819.2">
      <stop offset="0.0" stop-color="#b2f4f4"/>
      <stop offset="1.0" stop-color="#a5e2e2"/>
    </linearGradient>
    <linearGradient gradientTransform="matrix(-0.0171, 0.0296, -0.0514, -0.0297, -4.15, -89.3)" gradientUnits="userSpaceOnUse" id="gradient1" spreadMethod="pad" x1="-819.2" x2="819.2">
      <stop offset="0.0" stop-color="#c6ffff"/>
      <stop offset="1.0" stop-color="#a7e4e4"/>
    </linearGradient>
    <linearGradient gradientTransform="matrix(0.0113, -0.0689, 0.1789, 0.0293, 9.05, 62.25)" gradientUnits="userSpaceOnUse" id="gradient2" spreadMethod="pad" x1="-819.2" x2="819.2">
      <stop offset="0.0" stop-color="#0087ff" stop-opacity="0.2784314"/>
      <stop offset="1.0" stop-color="#006bff" stop-opacity="0.0"/>
    </linearGradient>
    <g id="shape1" transform="matrix(1.0, 0.0, 0.0, 1.0, 73.1, 55.15)">
      <path d="M-57.75 -54.4 L-57.1 -54.4 -57.35 -53.75 Q-61.9 -42.8 -63.8 -30.75 L-65.1 -21.95 Q-66.1 -15.25 -67.2 -3.7 -68.35 7.85 -67.05 16.9 -65.8 25.9 -65.0 28.9 L-63.95 32.75 Q-66.55 31.5 -67.25 27.9 -68.8 23.3 -69.6 18.3 -71.65 4.95 -69.9 -8.6 L-68.0 -21.0 -66.5 -29.2 Q-64.4 -40.4 -59.25 -50.55 -57.75 -54.0 -57.75 -54.35 L-57.75 -54.4 M-17.4 -43.8 L-13.8 -41.6 -14.35 -41.25 Q-15.85 -40.15 -16.75 -38.9 L-19.6 -34.4 Q-20.95 -31.85 -23.0 -25.5 -25.05 -19.25 -25.6 -16.25 -26.25 -12.8 -26.25 -7.7 L-26.1 -2.8 Q-25.9 -0.1 -25.4 1.1 L-26.0 1.0 -27.25 0.45 -27.65 0.1 -27.9 -2.35 -28.05 -7.6 Q-28.05 -13.1 -27.45 -16.8 -27.0 -20.05 -25.15 -26.75 -23.35 -33.6 -22.15 -36.35 L-19.6 -41.2 Q-18.8 -42.55 -17.5 -43.75 L-17.4 -43.8 M-23.9 1.35 L-23.95 0.3 -21.35 0.65 Q-18.1 1.05 -17.95 3.35 L-17.85 7.6 -20.6 7.9 -20.7 4.3 Q-20.8 1.8 -23.7 1.35 L-23.9 1.35 M-26.5 8.7 L-27.0 9.7 Q-27.8 11.5 -28.35 14.25 L-29.0 18.35 -29.1 22.0 -29.15 23.6 -29.1 25.75 -29.15 27.65 -28.95 28.7 -29.3 28.6 -29.75 28.35 -30.15 27.9 -30.4 27.4 -30.6 26.25 -30.6 26.1 -30.6 24.35 -30.5 20.45 -29.9 16.0 Q-29.4 13.05 -28.7 11.1 -27.65 8.2 -26.5 8.6 L-26.5 8.7 M-27.85 28.9 L-27.8 25.95 -25.75 26.25 Q-25.95 29.15 -26.25 30.4 -26.4 30.9 -27.05 31.55 L-27.85 32.2 -27.6 28.95 -27.85 28.9 M-53.9 35.7 L-54.0 35.6 -54.65 34.8 -54.25 34.6 Q-54.0 34.95 -53.9 35.7" fill="#bdbdbd" fill-rule="evenodd" stroke="none"/>
      <path d="M-57.1 -54.4 Q-35.5 -54.2 -17.4 -43.8 L-17.5 -43.75 Q-18.8 -42.55 -19.6 -41.2 L-22.15 -36.35 Q-23.35 -33.6 -25.15 -26.75 -27.0 -20.05 -27.45 -16.8 -28.05 -13.1 -28.05 -7.6 L-27.9 -2.35 -27.65 0.1 -27.25 0.45 -26.0 1.0 -25.4 1.1 Q-25.05 2.1 -24.5 2.1 -23.85 2.1 -23.9 1.85 L-23.9 1.35 -23.7 1.35 Q-20.8 1.8 -20.7 4.3 L-20.6 7.9 -24.15 8.2 -24.5 8.25 -24.4 7.8 -24.5 7.35 Q-25.55 7.05 -26.5 8.7 L-26.5 8.6 Q-27.65 8.2 -28.7 11.1 -29.4 13.05 -29.9 16.0 L-30.5 20.45 -30.6 24.35 -30.6 26.1 -30.6 26.25 -30.4 27.4 -30.15 27.9 -29.75 28.35 -29.3 28.6 -28.95 28.7 -28.4 29.4 -27.85 29.2 -27.85 28.9 -27.6 28.95 -27.85 32.2 -28.2 32.35 -33.5 33.0 -39.15 33.25 -39.95 32.95 -40.0 32.95 -40.15 32.1 Q-40.5 31.1 -41.15 30.8 -41.85 30.5 -42.15 31.6 -42.35 32.3 -42.15 33.9 -42.25 35.05 -42.45 35.25 -43.45 36.15 -47.75 36.15 L-51.35 36.25 Q-53.25 36.2 -53.9 35.7 -54.0 34.95 -54.25 34.6 L-54.65 34.8 -54.75 34.65 -55.0 34.15 -55.0 34.0 -55.3 32.85 -55.35 32.85 -55.35 32.8 Q-55.45 31.9 -55.75 31.5 -56.55 31.5 -56.8 33.0 -57.25 33.35 -58.2 33.35 L-59.3 33.35 -61.6 33.3 -63.95 32.75 -65.0 28.9 Q-65.8 25.9 -67.05 16.9 -68.35 7.85 -67.2 -3.7 -66.1 -15.25 -65.1 -21.95 L-63.8 -30.75 Q-61.9 -42.8 -57.35 -53.75 L-57.1 -54.4" fill="#999999" fill-rule="evenodd" stroke="none"/>
      <path d="M-13.8 -41.6 Q-12.4 -42.55 -12.4 -41.1 -12.4 -41.6 -14.95 -38.15 L-16.9 -35.25 -13.85 -36.8 -10.65 -38.45 Q-8.5 -39.2 -8.5 -37.75 -8.5 -36.2 -18.25 -32.75 L-19.25 -30.35 -22.6 -19.6 Q-23.9 -14.75 -24.1 -8.85 L-24.0 -0.9 -21.4 -1.0 -18.35 -0.6 -17.0 0.45 Q-16.2 1.3 -16.0 2.6 L-15.95 4.65 Q-15.95 7.7 -16.1 8.2 -16.55 9.6 -18.65 9.6 L-25.0 9.4 -25.45 10.3 Q-26.6 12.55 -26.75 13.25 L-27.3 15.7 -27.7 18.45 -27.8 23.7 -27.8 24.5 -26.25 24.35 Q-24.0 24.45 -24.15 26.6 L-24.0 30.5 Q-24.0 32.1 -25.1 33.2 -26.4 34.5 -29.05 35.0 L-32.5 35.25 -39.9 34.85 Q-39.95 35.6 -40.15 36.15 L-40.75 36.95 Q-41.3 37.45 -42.2 37.85 -44.2 38.6 -47.8 38.6 L-53.3 38.05 Q-55.2 37.5 -56.1 36.55 L-56.7 35.55 -58.05 35.65 -59.3 35.65 -61.7 35.8 Q-67.2 35.5 -69.4 29.75 L-70.0 27.9 Q-73.4 15.75 -73.1 3.1 -72.85 -9.05 -70.7 -21.0 -68.85 -31.5 -65.35 -41.55 -63.75 -46.15 -61.75 -50.55 -59.35 -55.15 -58.6 -55.15 L-58.05 -54.9 -58.0 -54.85 -57.75 -54.4 -57.75 -54.35 Q-57.75 -54.0 -59.25 -50.55 -64.4 -40.4 -66.5 -29.2 L-68.0 -21.0 -69.9 -8.6 Q-71.65 4.95 -69.6 18.3 -68.8 23.3 -67.25 27.9 -66.55 31.5 -63.95 32.75 L-61.6 33.3 -59.3 33.35 -58.2 33.35 Q-57.25 33.35 -56.8 33.0 -56.55 31.5 -55.75 31.5 -55.45 31.9 -55.35 32.8 L-55.35 32.85 -55.3 32.85 -55.0 34.0 -55.0 34.15 -54.75 34.65 -54.65 34.8 -54.0 35.6 -53.9 35.7 Q-53.25 36.2 -51.35 36.25 L-47.75 36.15 Q-43.45 36.15 -42.45 35.25 -42.25 35.05 -42.15 33.9 -42.35 32.3 -42.15 31.6 -41.85 30.5 -41.15 30.8 -40.5 31.1 -40.15 32.1 L-40.0 32.95 -39.95 32.95 -39.15 33.25 -33.5 33.0 -28.2 32.35 -27.85 32.2 -27.05 31.55 Q-26.4 30.9 -26.25 30.4 -25.95 29.15 -25.75 26.25 L-27.8 25.95 -27.85 28.9 -27.85 29.2 -28.4 29.4 -28.95 28.7 -29.15 27.65 -29.1 25.75 -29.15 23.6 -29.1 22.0 -29.0 18.35 -28.35 14.25 Q-27.8 11.5 -27.0 9.7 L-26.5 8.7 Q-25.55 7.05 -24.5 7.35 L-24.4 7.8 -24.5 8.25 -24.15 8.2 -20.6 7.9 -17.85 7.6 -17.95 3.35 Q-18.1 1.05 -21.35 0.65 L-23.95 0.3 -23.9 1.35 -23.9 1.85 Q-23.85 2.1 -24.5 2.1 -25.05 2.1 -25.4 1.1 -25.9 -0.1 -26.1 -2.8 L-26.25 -7.7 Q-26.25 -12.8 -25.6 -16.25 -25.05 -19.25 -23.0 -25.5 -20.95 -31.85 -19.6 -34.4 L-16.75 -38.9 Q-15.85 -40.15 -14.35 -41.25 L-13.8 -41.6" fill="#000000" fill-rule="evenodd" stroke="none"/>
      <path d="M26.3 30.55 L30.9 30.9 31.9 31.15 32.5 31.3 33.15 31.55 33.65 31.7 33.65 31.45 33.7 31.3 33.75 31.25 33.85 31.0 33.85 30.95 Q34.75 27.6 42.1 29.6 43.3 30.05 44.15 30.9 L45.35 32.0 Q45.6 33.65 45.5 36.2 45.25 40.2 44.05 44.65 43.0 48.55 41.35 49.2 L39.35 49.35 36.75 48.75 33.65 47.85 31.9 47.05 31.5 47.6 Q28.65 52.15 26.6 51.6 L26.5 51.55 Q23.25 50.7 21.65 48.9 L20.85 47.85 19.8 48.35 14.35 48.15 14.2 48.1 Q13.05 47.8 12.05 46.95 L11.65 46.6 11.45 46.1 11.1 44.1 11.05 42.0 11.05 36.2 11.05 35.55 11.0 32.9 Q10.9 31.4 11.2 30.3 11.45 29.3 13.25 28.85 L13.75 28.7 19.1 28.3 20.7 28.55 Q21.55 28.9 22.2 29.35 23.05 30.05 23.4 31.2 24.0 30.85 25.3 30.65 L26.3 30.55 M20.0 47.4 Q20.55 47.0 20.75 46.2 L21.8 40.5 22.2 36.15 22.15 33.75 21.5 30.65 20.85 29.85 Q19.75 29.1 16.85 29.2 14.25 29.2 13.05 30.1 12.4 30.45 12.2 31.25 11.7 33.05 11.9 35.85 L12.0 41.15 11.95 44.3 11.95 44.5 Q12.05 45.15 13.0 46.6 13.35 47.2 14.25 47.55 L17.1 48.1 Q19.05 48.15 20.0 47.4 M33.05 32.85 L30.9 32.1 25.95 31.9 Q24.6 31.9 23.2 32.5 23.7 34.2 23.65 35.2 L22.9 40.55 22.25 45.6 21.75 47.25 Q22.0 47.9 23.25 49.1 24.5 50.1 25.95 50.3 26.8 50.4 27.65 49.85 L29.0 48.95 Q30.45 47.35 31.4 45.45 32.3 43.4 33.2 40.0 34.1 36.45 34.15 34.75 34.45 33.45 33.8 33.25 L33.7 33.3 33.7 33.25 33.05 32.85 M39.85 48.15 Q40.85 48.25 41.35 47.8 42.25 47.0 42.95 44.4 43.85 41.15 44.25 37.55 L44.4 35.65 44.45 35.5 44.5 34.35 44.3 32.3 44.0 31.8 43.9 31.55 43.5 31.3 Q41.85 30.35 40.05 30.05 L36.55 29.9 Q35.3 30.25 35.15 30.9 L35.15 31.0 35.0 31.25 34.85 32.2 Q35.7 33.15 35.55 34.45 L35.2 37.25 34.05 42.65 33.15 44.75 Q32.45 45.9 32.5 46.05 L33.55 46.45 37.5 47.75 39.85 48.15" fill="#000000" fill-rule="evenodd" stroke="none"/>
      <path d="M20.85 29.85 Q22.0 38.4 20.0 47.4 19.05 48.15 17.1 48.1 L14.25 47.55 Q13.8 46.2 13.65 44.6 L13.35 38.85 12.95 33.3 13.05 30.1 Q14.25 29.2 16.85 29.2 19.75 29.1 20.85 29.85 M27.65 49.85 Q26.8 50.4 25.95 50.3 24.5 50.1 23.25 49.1 22.0 47.9 21.75 47.25 L22.25 45.6 22.9 40.55 23.65 35.2 Q23.7 34.2 23.2 32.5 24.6 31.9 25.95 31.9 L30.9 32.1 33.05 32.85 32.85 35.55 31.6 41.6 Q30.6 45.25 29.2 47.7 L27.65 49.85 M44.0 31.8 Q43.3 36.85 42.1 41.3 L40.7 45.85 39.85 48.15 37.5 47.75 33.55 46.45 32.5 46.05 Q32.45 45.9 33.15 44.75 L34.05 42.65 35.2 37.25 35.55 34.45 Q35.7 33.15 34.85 32.2 L35.0 31.25 35.15 31.0 35.15 30.9 Q35.3 30.25 36.55 29.9 L40.05 30.05 Q41.85 30.35 43.5 31.3 L43.9 31.55 44.0 31.8" fill="#999999" fill-rule="evenodd" stroke="none"/>
      <path d="M20.85 29.85 L21.5 30.65 22.15 33.75 22.2 36.15 21.8 40.5 20.75 46.2 Q20.55 47.0 20.0 47.4 22.0 38.4 20.85 29.85 M14.25 47.55 Q13.35 47.2 13.0 46.6 12.05 45.15 11.95 44.5 L11.95 44.3 12.0 41.15 11.9 35.85 Q11.7 33.05 12.2 31.25 12.4 30.45 13.05 30.1 L12.95 33.3 13.35 38.85 13.65 44.6 Q13.8 46.2 14.25 47.55 M27.65 49.85 L29.2 47.7 Q30.6 45.25 31.6 41.6 L32.85 35.55 33.05 32.85 33.7 33.25 33.7 33.3 33.8 33.25 Q34.45 33.45 34.15 34.75 34.1 36.45 33.2 40.0 32.3 43.4 31.4 45.45 30.45 47.35 29.0 48.95 L27.65 49.85 M44.0 31.8 L44.3 32.3 44.5 34.35 44.45 35.5 44.4 35.65 44.25 37.55 Q43.85 41.15 42.95 44.4 42.25 47.0 41.35 47.8 40.85 48.25 39.85 48.15 L40.7 45.85 42.1 41.3 Q43.3 36.85 44.0 31.8" fill="#bdbdbd" fill-rule="evenodd" stroke="none"/>
    </g>
  </defs>
</svg>
