<?xml version="1.0" encoding="UTF-8" standalone="no"?>
<svg xmlns:xlink="http://www.w3.org/1999/xlink" height="531.5px" width="460.6px" xmlns="http://www.w3.org/2000/svg">
  <g transform="matrix(1.0, 0.0, 0.0, 1.0, 193.65, 334.05)">
    <use height="169.95" transform="matrix(1.0, 0.0, 0.0, 1.0, -133.7, -148.5)" width="255.85" xlink:href="#shape0"/>
  </g>
  <defs>
    <g id="shape0" transform="matrix(1.0, 0.0, 0.0, 1.0, 133.7, 148.5)">
      <path d="M-0.4 -31.85 L-4.65 -33.6 Q-11.3 -36.45 -15.6 -37.45 L-19.6 -38.05 -28.75 -37.65 -33.1 -37.3 -33.9 -37.35 -34.05 -37.8 -33.75 -38.0 -32.45 -38.5 Q-29.7 -39.35 -22.95 -39.7 L-22.35 -39.75 -19.3 -39.8 -19.35 -40.05 -19.35 -40.1 -20.9 -40.65 -24.3 -41.8 -29.55 -42.75 -34.2 -43.7 -34.25 -44.1 -33.35 -44.15 -30.75 -44.2 -30.85 -44.15 Q-28.05 -44.15 -23.05 -43.0 L-19.0 -41.75 -18.95 -42.0 -18.85 -43.05 -18.75 -47.65 -18.85 -48.25 -19.15 -49.8 -19.05 -50.05 -20.8 -50.05 -38.65 -50.2 -39.75 -50.25 -59.15 -50.5 -62.15 -50.65 -63.9 -50.8 -64.45 -50.6 -67.4 -46.15 Q-71.15 -40.1 -73.55 -34.3 -74.95 -30.85 -75.6 -25.9 L-75.95 -17.6 -75.3 -15.4 -74.65 -13.35 Q-74.7 -12.15 -75.5 -12.15 -76.0 -12.2 -76.45 -13.2 L-76.7 -12.55 -77.55 -8.6 -77.4 -8.25 -76.0 -7.25 -75.7 -7.0 -72.0 -4.6 Q-67.15 -1.65 -62.15 0.75 -56.45 3.45 -50.15 4.95 -39.4 7.5 -28.4 7.85 L-18.85 8.4 -12.75 8.35 -13.05 10.3 -28.45 9.85 Q-39.8 9.35 -50.8 6.3 -57.45 4.5 -63.7 1.55 L-70.4 -1.95 -74.85 -4.8 -75.8 -5.2 -76.05 -5.4 -78.4 -6.9 -78.45 -6.95 Q-78.95 -7.45 -78.95 -8.55 -78.9 -10.15 -77.75 -13.35 L-77.15 -15.0 -77.6 -16.95 -77.55 -19.65 -76.9 -26.7 Q-76.45 -31.95 -74.25 -36.85 -72.0 -41.85 -69.9 -45.05 -67.9 -48.3 -66.1 -49.9 L-64.35 -51.45 -64.2 -51.3 -63.55 -51.4 -52.55 -51.4 -42.9 -51.25 -20.15 -50.8 -17.65 -50.7 -17.4 -50.5 -17.4 -50.2 -17.5 -50.15 -17.3 -49.7 -16.9 -46.6 -16.85 -43.65 Q-16.9 -41.6 -17.25 -40.45 L-17.6 -39.6 -15.4 -39.2 -11.2 -38.05 Q-7.65 -36.9 -2.5 -34.45 L0.35 -33.25 -0.4 -31.85" fill="#000000" fill-rule="evenodd" stroke="none"/>
      <path d="M-62.15 -50.65 L-59.15 -50.5 -39.75 -50.25 -38.65 -50.2 -20.8 -50.05 -19.05 -50.05 -19.15 -49.8 -18.85 -48.25 -18.75 -47.65 -18.85 -43.05 -18.95 -42.0 -19.0 -41.75 -23.05 -43.0 Q-28.05 -44.15 -30.85 -44.15 L-30.75 -44.2 -33.35 -44.15 -34.25 -44.1 -34.2 -43.7 -29.55 -42.75 -24.3 -41.8 -20.9 -40.65 -19.35 -40.1 -19.35 -40.05 -19.3 -39.8 -22.35 -39.75 -22.95 -39.7 Q-29.7 -39.35 -32.45 -38.5 L-33.75 -38.0 -34.05 -37.8 -33.9 -37.35 -33.1 -37.3 -28.75 -37.65 -19.6 -38.05 -15.6 -37.45 Q-11.3 -36.45 -4.65 -33.6 L-0.4 -31.85 Q-4.3 -24.5 -7.15 -15.25 -10.5 -4.4 -12.45 6.8 L-18.85 6.85 -28.0 6.35 Q-38.55 6.0 -48.85 3.5 -54.8 2.05 -60.25 -0.55 -64.3 -2.45 -68.15 -4.8 -70.75 -6.4 -73.25 -8.15 L-73.55 -8.35 Q-75.0 -9.2 -75.0 -9.65 L-74.45 -12.2 -74.1 -13.5 -73.9 -14.15 -73.85 -14.05 -73.7 -15.3 -73.5 -17.9 -73.45 -18.3 -73.45 -18.4 -73.1 -26.55 Q-72.4 -31.35 -71.1 -34.7 -68.8 -40.35 -65.15 -46.25 L-62.3 -50.6 -62.15 -50.65" fill="#999999" fill-rule="evenodd" stroke="none"/>
      <path d="M-12.75 8.35 L-18.85 8.4 -28.4 7.85 Q-39.4 7.5 -50.15 4.95 -56.45 3.45 -62.15 0.75 -67.15 -1.65 -72.0 -4.6 L-75.7 -7.0 -76.0 -7.25 -77.4 -8.25 -77.55 -8.6 -76.7 -12.55 -76.45 -13.2 Q-76.0 -12.2 -75.5 -12.15 -74.7 -12.15 -74.65 -13.35 L-75.3 -15.4 -75.95 -17.6 -75.6 -25.9 Q-74.95 -30.85 -73.55 -34.3 -71.15 -40.1 -67.4 -46.15 L-64.45 -50.6 -63.9 -50.8 -62.15 -50.65 -62.3 -50.6 -65.15 -46.25 Q-68.8 -40.35 -71.1 -34.7 -72.4 -31.35 -73.1 -26.55 L-73.45 -18.4 -73.45 -18.3 -73.5 -17.9 -73.7 -15.3 -73.85 -14.05 -73.9 -14.15 -74.1 -13.5 -74.45 -12.2 -75.0 -9.65 Q-75.0 -9.2 -73.55 -8.35 L-73.25 -8.15 Q-70.75 -6.4 -68.15 -4.8 -64.3 -2.45 -60.25 -0.55 -54.8 2.05 -48.85 3.5 -38.55 6.0 -28.0 6.35 L-18.85 6.85 -12.45 6.8 -12.75 8.35" fill="#bdbdbd" fill-rule="evenodd" stroke="none"/>
      <path d="M99.0 -111.25 Q93.75 -107.15 92.05 -103.05 L92.6 -106.1 Q92.6 -107.2 92.25 -107.9 91.7 -108.55 90.95 -108.55 87.9 -108.6 83.15 -103.4 78.75 -98.4 76.65 -93.2 L77.95 -97.6 80.05 -103.65 Q80.85 -105.5 82.75 -108.05 84.35 -110.1 84.4 -110.75 84.4 -111.05 83.8 -111.45 L99.0 -111.25 M72.25 -57.85 L71.4 -58.5 Q76.45 -58.55 78.9 -63.9 80.5 -67.35 80.85 -72.65 80.75 -67.05 83.0 -63.55 85.7 -59.45 91.1 -59.35 L93.6 -59.6 Q86.55 -56.0 86.45 -48.95 86.4 -46.85 86.85 -43.4 87.2 -40.45 87.45 -39.65 L87.45 -39.5 Q84.95 -49.35 84.45 -50.6 82.65 -55.0 79.05 -55.05 74.7 -55.1 73.7 -48.1 L74.25 -53.9 Q74.3 -56.1 72.25 -57.85" fill="#ff4564" fill-rule="evenodd" stroke="none"/>
      <path d="M83.8 -111.45 Q84.4 -111.05 84.4 -110.75 84.35 -110.1 82.75 -108.05 80.85 -105.5 80.05 -103.65 L77.95 -97.6 76.65 -93.2 Q78.75 -98.4 83.15 -103.4 87.9 -108.6 90.95 -108.55 91.7 -108.55 92.25 -107.9 92.6 -107.2 92.6 -106.1 L92.05 -103.05 Q93.75 -107.15 99.0 -111.25 L108.25 -111.1 Q118.65 -105.6 120.95 -87.55 123.25 -69.6 119.0 -51.6 114.75 -33.65 106.95 -31.7 L67.7 -32.3 Q60.05 -34.55 56.9 -52.6 53.75 -70.7 57.05 -88.6 59.8 -102.75 67.0 -108.95 L69.55 -110.7 71.2 -111.65 83.8 -111.45 M72.25 -57.85 Q74.3 -56.1 74.25 -53.9 L73.7 -48.1 Q74.7 -55.1 79.05 -55.05 82.65 -55.0 84.45 -50.6 84.95 -49.35 87.45 -39.5 L87.45 -39.65 Q87.2 -40.45 86.85 -43.4 86.4 -46.85 86.45 -48.95 86.55 -56.0 93.6 -59.6 L91.1 -59.35 Q85.7 -59.45 83.0 -63.55 80.75 -67.05 80.85 -72.65 80.5 -67.35 78.9 -63.9 76.45 -58.55 71.4 -58.5 L72.25 -57.85 M46.1 -28.1 L51.4 -28.55 57.25 -27.95 57.7 -27.8 Q57.7 -26.05 59.0 -24.55 59.7 -17.95 54.5 -18.0 48.5 -22.15 46.1 -28.1 M113.95 -74.65 Q113.8 -84.8 112.15 -92.35 110.25 -101.3 107.35 -101.35 104.4 -101.4 102.1 -92.55 100.3 -85.0 99.8 -74.85 L99.7 -72.95 99.7 -71.0 Q99.5 -58.4 101.4 -49.5 103.4 -40.55 106.35 -40.5 109.25 -40.45 111.45 -49.3 113.7 -58.2 113.9 -70.8 L113.9 -72.75 113.95 -74.65" fill="#ff0033" fill-rule="evenodd" stroke="none"/>
      <path d="M35.05 -125.85 L38.45 -126.95 Q39.35 -123.65 39.5 -120.0 L39.5 -118.65 39.2 -115.3 38.7 -112.0 38.5 -112.2 Q38.5 -114.9 37.2 -120.0 L36.9 -121.15 35.05 -125.85 M57.15 -135.1 L59.15 -136.1 Q60.75 -132.2 61.65 -128.05 L61.65 -128.0 Q62.25 -124.9 62.45 -122.05 L60.85 -127.05 60.0 -129.25 Q58.65 -132.75 57.15 -135.1 M68.65 -114.3 L66.65 -113.65 65.95 -118.35 65.5 -121.1 Q64.6 -126.35 63.95 -127.25 L63.95 -127.45 Q64.65 -126.4 66.45 -121.2 L67.1 -119.25 68.65 -114.3 M46.85 -108.35 L47.3 -112.85 Q47.35 -116.4 46.75 -119.9 L46.55 -121.05 45.15 -127.1 Q47.8 -124.5 49.4 -119.95 50.5 -116.9 51.15 -113.0 L51.7 -109.35 46.85 -108.35 M-55.5 -20.7 L-55.55 -23.0 Q-52.3 -23.1 -48.45 -24.05 L-43.95 -25.4 -42.2 -26.0 Q-38.6 -27.2 -35.8 -29.3 L-35.8 -29.1 Q-38.35 -26.05 -44.5 -23.75 L-45.65 -23.3 Q-48.05 -22.4 -54.0 -21.0 L-55.5 -20.7 M-55.95 -31.25 L-56.25 -34.3 -56.25 -35.05 Q-53.0 -35.9 -48.8 -37.65 L-45.3 -39.15 Q-41.2 -41.05 -40.75 -42.2 L-40.55 -42.2 Q-41.4 -40.3 -44.55 -37.85 -46.5 -36.45 -49.25 -34.8 -53.0 -32.55 -55.95 -31.25 M-60.55 -29.9 L-61.25 -26.8 -61.6 -26.75 -62.45 -26.7 -66.0 -26.5 -67.3 -26.55 -66.25 -27.4 -61.2 -29.6 -60.55 -29.9 M-63.05 -19.35 L-63.15 -19.05 Q-63.85 -16.45 -64.7 -13.8 L-69.15 -13.65 Q-74.45 -13.75 -78.55 -15.05 -80.85 -15.85 -83.6 -17.2 L-78.75 -16.95 -72.2 -17.45 -70.0 -17.85 -63.05 -19.35 M-84.6 -10.45 Q-87.95 -12.3 -91.15 -15.4 -87.85 -13.85 -83.7 -12.8 L-83.4 -12.75 Q-77.7 -11.5 -72.55 -11.5 -74.9 -10.75 -82.35 -10.45 L-84.6 -10.45 M-90.8 -19.4 L-89.15 -22.65 -87.55 -22.1 -84.05 -20.95 -80.25 -20.3 -75.3 -20.6 -73.7 -20.75 -72.05 -20.95 -73.7 -20.55 -75.85 -20.15 -84.35 -19.25 -87.25 -19.2 -90.8 -19.4 M-37.5 -54.45 L-35.45 -48.65 Q-38.6 -46.75 -42.6 -45.1 L-45.1 -44.05 Q-48.75 -42.7 -53.95 -41.25 L-46.05 -45.55 -44.7 -46.25 Q-40.0 -49.0 -38.7 -50.35 -39.7 -49.7 -43.85 -48.45 L-44.2 -48.3 Q-48.1 -47.2 -49.8 -47.25 -46.45 -49.1 -43.65 -50.65 L-37.5 -54.45 M-32.35 -38.7 L-31.9 -36.7 -34.95 -35.35 -39.75 -33.6 -43.45 -32.4 Q-42.7 -33.05 -40.2 -34.4 -36.1 -36.45 -33.95 -37.7 L-32.35 -38.7" fill="#753d00" fill-rule="evenodd" stroke="none"/>
      <path d="M38.45 -126.95 Q46.55 -129.85 57.15 -135.1 58.65 -132.75 60.0 -129.25 L60.85 -127.05 62.45 -122.05 Q62.25 -124.9 61.65 -128.0 L61.65 -128.05 Q60.75 -132.2 59.15 -136.1 L60.45 -136.8 Q63.3 -134.9 65.35 -132.55 69.4 -127.95 70.35 -121.8 70.85 -118.7 70.5 -115.05 L68.65 -114.3 67.1 -119.25 66.45 -121.2 Q64.65 -126.4 63.95 -127.45 L63.95 -127.25 Q64.6 -126.35 65.5 -121.1 L65.95 -118.35 66.65 -113.65 60.95 -111.85 51.7 -109.35 51.15 -113.0 Q50.5 -116.9 49.4 -119.95 47.8 -124.5 45.15 -127.1 L46.55 -121.05 46.75 -119.9 Q47.35 -116.4 47.3 -112.85 L46.85 -108.35 Q36.8 -106.4 26.15 -105.65 27.55 -107.15 28.6 -108.9 L31.1 -113.95 35.25 -113.25 Q32.2 -115.4 30.45 -117.85 28.55 -120.5 27.8 -124.0 31.1 -124.65 35.05 -125.85 L36.9 -121.15 37.2 -120.0 Q38.5 -114.9 38.5 -112.2 L38.7 -112.0 39.2 -115.3 39.5 -118.65 39.5 -120.0 Q39.35 -123.65 38.45 -126.95 M-31.25 -33.9 Q-30.25 -29.35 -29.65 -24.75 -41.7 -14.75 -55.45 -16.55 L-55.5 -20.7 -54.0 -21.0 Q-48.05 -22.4 -45.65 -23.3 L-44.5 -23.75 Q-38.35 -26.05 -35.8 -29.1 L-35.8 -29.3 Q-38.6 -27.2 -42.2 -26.0 L-43.95 -25.4 -48.45 -24.05 Q-52.3 -23.1 -55.55 -23.0 L-55.95 -31.25 Q-53.0 -32.55 -49.25 -34.8 -46.5 -36.45 -44.55 -37.85 -41.4 -40.3 -40.55 -42.2 L-40.75 -42.2 Q-41.2 -41.05 -45.3 -39.15 L-48.8 -37.65 Q-53.0 -35.9 -56.25 -35.05 L-57.65 -44.2 -51.1 -49.7 -43.4 -55.95 -43.4 -56.2 -43.1 -56.2 -43.4 -55.95 Q-43.5 -55.55 -43.75 -55.55 L-43.75 -53.65 -42.6 -54.8 -39.1 -58.25 -37.5 -54.45 -43.65 -50.65 Q-46.45 -49.1 -49.8 -47.25 -48.1 -47.2 -44.2 -48.3 L-43.85 -48.45 Q-39.7 -49.7 -38.7 -50.35 -40.0 -49.0 -44.7 -46.25 L-46.05 -45.55 -53.95 -41.25 Q-48.75 -42.7 -45.1 -44.05 L-42.6 -45.1 Q-38.6 -46.75 -35.45 -48.65 -33.7 -43.7 -32.35 -38.7 L-33.95 -37.7 Q-36.1 -36.45 -40.2 -34.4 -42.7 -33.05 -43.45 -32.4 L-39.75 -33.6 -34.95 -35.35 -31.9 -36.7 -31.25 -33.9 M-59.8 -34.35 L-60.05 -32.85 -60.05 -32.65 -60.05 -32.6 -60.3 -31.3 -60.55 -29.9 -61.2 -29.6 -66.25 -27.4 Q-64.35 -29.0 -62.9 -31.35 L-61.0 -34.25 -59.5 -36.25 -59.5 -35.95 -59.55 -35.5 -59.8 -34.35 M-61.25 -26.8 L-61.65 -24.85 -63.05 -19.35 -70.0 -17.85 -72.2 -17.45 -78.75 -16.95 -83.6 -17.2 Q-80.85 -15.85 -78.55 -15.05 -74.45 -13.75 -69.15 -13.65 L-64.7 -13.8 -66.3 -9.05 Q-74.15 -6.0 -81.6 -8.95 -83.1 -9.55 -84.6 -10.45 L-82.35 -10.45 Q-74.9 -10.75 -72.55 -11.5 -77.7 -11.5 -83.4 -12.75 L-83.7 -12.8 Q-87.85 -13.85 -91.15 -15.4 L-92.4 -16.6 -90.8 -19.4 -87.25 -19.2 -84.35 -19.25 -75.85 -20.15 -73.7 -20.55 -72.05 -20.95 -73.7 -20.75 -75.3 -20.6 -80.25 -20.3 -84.05 -20.95 -87.55 -22.1 -89.15 -22.65 -87.45 -27.25 -86.65 -27.0 Q-84.6 -26.3 -83.35 -26.25 -82.35 -26.25 -76.25 -28.05 -69.9 -30.0 -67.55 -31.3 L-67.35 -31.7 -67.35 -31.4 -67.55 -31.3 Q-69.9 -26.85 -70.35 -25.1 -68.7 -25.65 -67.3 -26.55 L-66.0 -26.5 -62.45 -26.7 -61.6 -26.75 -61.25 -26.8" fill="#995400" fill-rule="evenodd" stroke="none"/>
      <path d="M10.45 -131.1 L12.75 -130.2 17.75 -128.65 23.15 -127.4 Q25.25 -126.55 25.2 -124.15 L25.2 -123.65 Q24.8 -113.8 15.2 -105.2 12.3 -102.7 8.65 -100.3 4.9 -97.9 -0.1 -95.2 L-6.4 -92.15 -21.0 -85.45 Q-32.25 -80.05 -41.95 -73.15 L-45.15 -70.85 -45.45 -70.65 -49.9 -67.05 Q-53.85 -63.8 -57.65 -59.85 -62.6 -60.9 -70.7 -61.05 -77.35 -62.05 -77.25 -68.85 L-76.8 -74.2 -75.45 -82.2 -74.4 -85.9 -69.05 -91.6 Q-64.3 -96.65 -62.3 -99.45 -52.85 -113.25 -35.65 -124.25 -29.15 -128.35 -23.55 -130.85 -15.7 -134.35 -9.45 -134.8 L-7.15 -134.95 Q-4.5 -134.9 1.1 -133.7 5.55 -132.8 8.1 -131.7 L10.45 -131.1 M-59.0 -66.35 L-76.8 -74.2 -59.0 -66.35 M-14.7 -112.65 Q-22.7 -107.15 -29.5 -104.45 -33.05 -102.95 -37.55 -100.1 L-47.75 -105.3 -37.55 -100.1 Q-43.4 -96.4 -50.9 -90.4 L-56.85 -85.3 Q-62.3 -80.5 -64.45 -77.25 L-60.45 -81.15 -55.95 -84.85 -49.8 -89.4 -38.75 -96.05 -34.45 -98.5 -29.85 -101.55 -31.3 -98.15 -31.7 -97.1 -34.45 -98.5 -31.7 -97.1 -30.5 -96.55 Q-20.3 -103.85 -12.55 -109.55 L-11.25 -110.55 Q-8.15 -113.25 -4.55 -118.35 L-0.5 -124.3 Q-3.15 -121.1 -10.85 -115.4 L-14.7 -112.65 -28.0 -120.4 -14.7 -112.65 M-21.75 -92.05 L-30.5 -96.55 -21.75 -92.05 M3.8 -101.7 L-11.25 -110.55 3.8 -101.7 M-42.7 -78.2 L-55.95 -84.85 -42.7 -78.2 M-65.15 -89.45 L-56.85 -85.3 -65.15 -89.45 M18.25 -117.65 L-9.65 -129.75 18.25 -117.65" fill="#228022" fill-rule="evenodd" stroke="none"/>
      <path d="M-0.1 -95.2 Q4.9 -97.9 8.65 -100.3 12.3 -102.7 15.2 -105.2 L25.75 -105.65 25.15 -104.7 24.85 -104.05 Q19.8 -95.1 14.25 -89.9 6.95 -83.1 -2.7 -81.0 L-1.5 -89.55 -0.1 -95.2 M-87.8 -31.35 L-95.8 -28.95 -102.3 -27.25 Q-103.7 -30.5 -104.85 -34.55 -107.05 -42.55 -107.35 -49.35 L-106.15 -48.4 Q-100.2 -43.75 -96.45 -43.7 L-94.2 -43.9 -91.9 -38.3 Q-89.45 -33.3 -87.8 -31.35 M-46.9 -134.35 Q-46.0 -134.85 -45.05 -135.3 L-44.2 -135.85 -43.65 -136.2 Q-54.3 -126.85 -66.2 -114.0 -82.65 -96.5 -88.8 -85.3 L-88.75 -85.6 -83.15 -100.3 Q-80.0 -107.5 -76.3 -112.5 -67.95 -123.7 -46.9 -134.35" fill="#cfa329" fill-rule="evenodd" stroke="none"/>
      <path d="M25.2 -123.65 L27.8 -124.0 Q28.55 -120.5 30.45 -117.85 32.2 -115.4 35.25 -113.25 L31.1 -113.95 28.6 -108.9 Q27.55 -107.15 26.15 -105.65 L25.75 -105.65 15.2 -105.2 Q24.8 -113.8 25.2 -123.65 M39.5 -32.75 L39.5 -30.6 Q38.5 -30.15 37.5 -28.4 36.15 -26.05 36.1 -23.6 L36.15 -22.75 34.45 -22.8 28.3 -23.55 22.7 -24.3 16.7 -23.75 Q16.45 -29.35 15.3 -33.15 L39.5 -32.75 M-87.45 -27.25 L-86.65 -30.4 -86.4 -31.85 -84.8 -32.35 Q-83.85 -30.9 -74.25 -34.6 -69.2 -36.75 -64.2 -40.65 -63.6 -42.45 -64.3 -42.6 L-67.7 -49.2 -61.0 -56.55 Q-59.45 -52.3 -58.35 -47.3 -59.45 -52.3 -61.0 -56.55 L-58.0 -59.65 -57.65 -59.85 Q-53.85 -63.8 -49.9 -67.05 L-45.45 -70.65 -45.15 -70.85 Q-41.8 -64.5 -39.1 -58.25 L-42.6 -54.8 -43.75 -53.65 -43.75 -55.55 Q-43.5 -55.55 -43.4 -55.95 L-43.1 -56.2 -43.4 -56.2 -43.4 -55.95 -51.1 -49.7 -57.65 -44.2 -58.35 -47.3 -58.65 -43.45 -59.5 -36.25 -61.0 -34.25 -62.9 -31.35 Q-64.35 -29.0 -66.25 -27.4 L-67.3 -26.55 Q-68.7 -25.65 -70.35 -25.1 -69.9 -26.85 -67.55 -31.3 L-67.35 -31.4 -67.35 -31.7 -67.55 -31.3 Q-69.9 -30.0 -76.25 -28.05 -82.35 -26.25 -83.35 -26.25 -84.6 -26.3 -86.65 -27.0 L-87.45 -27.25" fill="#613500" fill-rule="evenodd" stroke="none"/>
      <path d="M71.2 -111.65 L69.55 -110.7 67.0 -108.95 Q59.8 -102.75 57.05 -88.6 53.75 -70.7 56.9 -52.6 60.05 -34.55 67.7 -32.3 L59.1 -32.45 44.85 -32.7 39.5 -32.75 15.3 -33.15 9.1 -33.25 Q1.45 -35.45 -1.65 -53.5 -4.05 -67.3 -2.7 -81.0 6.95 -83.1 14.25 -89.9 19.8 -95.1 24.85 -104.05 L25.15 -104.7 25.75 -105.65 26.15 -105.65 Q36.8 -106.4 46.85 -108.35 L51.7 -109.35 60.95 -111.85 71.2 -111.65 M-9.45 -134.8 Q-15.7 -134.35 -23.55 -130.85 -33.4 -128.05 -42.75 -122.15 -55.95 -113.8 -64.6 -102.1 -67.55 -98.15 -74.25 -90.95 L-84.2 -79.45 Q-95.25 -65.1 -95.5 -50.2 -95.55 -47.75 -94.2 -43.9 L-96.45 -43.7 Q-100.2 -43.75 -106.15 -48.4 L-107.35 -49.35 -107.45 -52.15 Q-107.4 -56.6 -103.15 -65.25 -98.95 -73.9 -98.25 -76.1 L-98.15 -75.5 Q-97.05 -68.75 -96.4 -66.35 L-95.8 -66.35 Q-93.95 -73.5 -93.65 -84.75 -93.5 -97.55 -93.15 -103.85 -92.9 -108.25 -92.3 -112.1 -88.65 -121.3 -76.65 -132.85 -68.3 -141.05 -60.55 -145.8 L-49.4 -143.05 -32.25 -138.15 Q-27.1 -140.4 -23.75 -140.35 -21.3 -140.3 -18.45 -139.45 L-13.3 -137.4 Q-11.7 -136.65 -9.45 -134.8 M40.65 -3.8 L45.55 -2.85 Q49.4 8.7 45.2 18.0 27.85 24.75 10.15 16.55 7.2 6.2 10.5 -4.3 L14.9 -4.75 Q15.1 -2.75 15.55 -0.7 L15.9 -0.5 Q26.65 5.95 37.35 2.6 39.25 2.05 41.15 1.1 L40.65 -3.8 M15.55 -0.7 L14.05 -1.7 15.55 -0.7 M43.0 0.2 L41.15 1.1 43.0 0.2 M-46.9 -134.35 Q-67.95 -123.7 -76.3 -112.5 -80.0 -107.5 -83.15 -100.3 L-88.75 -85.6 -88.8 -85.3 Q-82.65 -96.5 -66.2 -114.0 -54.3 -126.85 -43.65 -136.2 L-44.2 -135.85 -45.05 -135.3 Q-46.0 -134.85 -46.9 -134.35 M-32.25 -138.15 L-32.85 -137.9 -40.5 -134.1 -32.85 -137.9 -32.25 -138.15" fill="#ffcc33" fill-rule="evenodd" stroke="none"/>
      <path d="M39.5 -30.6 L39.55 -23.0 38.4 -22.8 36.15 -22.75 36.1 -23.6 Q36.15 -26.05 37.5 -28.4 38.5 -30.15 39.5 -30.6" fill="#422200" fill-rule="evenodd" stroke="none"/>
      <path d="M14.9 -4.75 Q14.3 -11.0 16.5 -17.15 L16.7 -23.75 22.7 -24.3 28.3 -23.55 34.45 -22.8 36.15 -22.75 Q36.35 -21.65 37.0 -20.4 37.9 -18.75 37.9 -18.0 L37.0 -16.25 Q36.2 -14.85 36.15 -12.9 36.1 -11.05 37.35 -8.05 L36.75 -5.75 Q36.0 -4.0 36.0 -2.2 35.95 -1.05 36.3 0.05 L37.0 2.0 37.35 2.6 Q26.65 5.95 15.9 -0.5 L15.55 -0.7 Q15.1 -2.75 14.9 -4.75" fill="#996627" fill-rule="evenodd" stroke="none"/>
      <path d="M39.55 -23.0 Q39.7 -13.8 40.65 -3.8 L41.15 1.1 Q39.25 2.05 37.35 2.6 L37.0 2.0 36.3 0.05 Q35.95 -1.05 36.0 -2.2 36.0 -4.0 36.75 -5.75 L37.35 -8.05 Q36.1 -11.05 36.15 -12.9 36.2 -14.85 37.0 -16.25 L37.9 -18.0 Q37.9 -18.75 37.0 -20.4 36.35 -21.65 36.15 -22.75 L38.4 -22.8 39.55 -23.0" fill="#704a1c" fill-rule="evenodd" stroke="none"/>
      <path d="M44.85 -32.7 L59.1 -32.45 Q57.6 -29.9 57.7 -27.8 L57.25 -27.95 51.4 -28.55 46.1 -28.1 Q45.3 -30.25 44.85 -32.7" fill="#d40023" fill-rule="evenodd" stroke="none"/>
      <path d="M113.95 -74.65 L113.9 -72.75 113.9 -70.8 Q113.7 -58.2 111.45 -49.3 109.25 -40.45 106.35 -40.5 103.4 -40.55 101.4 -49.5 99.5 -58.4 99.7 -71.0 L99.7 -72.95 99.8 -74.85 Q100.3 -85.0 102.1 -92.55 104.4 -101.4 107.35 -101.35 110.25 -101.3 112.15 -92.35 113.8 -84.8 113.95 -74.65" fill="url(#gradient0)" fill-rule="evenodd" stroke="none"/>
      <path d="M-118.15 -101.7 L-117.5 -103.4 -113.55 -113.55 Q-109.8 -114.15 -106.35 -116.0 -101.8 -118.5 -97.6 -122.95 -91.4 -129.45 -89.15 -136.8 -87.9 -140.95 -87.8 -145.45 L-88.0 -146.75 Q-83.5 -148.2 -78.3 -148.1 -71.0 -148.0 -60.55 -145.8 -68.3 -141.05 -76.65 -132.85 -88.65 -121.3 -92.3 -112.1 -92.9 -108.25 -93.15 -103.85 -93.5 -97.55 -93.65 -84.75 -93.95 -73.5 -95.8 -66.35 L-96.4 -66.35 Q-97.05 -68.75 -98.15 -75.5 L-98.25 -76.1 Q-98.95 -73.9 -103.15 -65.25 -107.4 -56.6 -107.45 -52.15 L-107.35 -49.35 Q-112.4 -53.15 -114.3 -53.15 -116.85 -53.2 -118.35 -45.6 -121.0 -51.25 -121.85 -57.55 -122.55 -62.55 -122.45 -70.05 -122.3 -79.3 -120.75 -88.65 L-118.15 -101.7 M-105.2 -111.4 L-106.35 -116.0 -105.2 -111.4 M-83.35 -135.45 L-89.15 -136.8 -83.35 -135.45 M-111.65 -86.3 L-112.05 -91.2 -112.45 -95.45 -112.6 -87.8 Q-112.85 -83.2 -114.05 -79.35 -114.8 -76.75 -117.45 -70.9 -118.95 -67.5 -119.05 -63.1 L-118.55 -59.25 Q-117.6 -63.0 -114.5 -71.8 -111.75 -79.55 -111.65 -86.3" fill="#ff123a" fill-rule="evenodd" stroke="none"/>
      <path d="M-23.55 -130.85 Q-29.15 -128.35 -35.65 -124.25 -52.85 -113.25 -62.3 -99.45 -64.3 -96.65 -69.05 -91.6 L-74.4 -85.9 -75.6 -84.55 -80.25 -78.0 Q-82.7 -74.0 -83.95 -72.3 -88.2 -66.45 -90.1 -60.75 -91.85 -55.55 -92.0 -49.05 L-91.85 -44.2 -92.1 -44.2 -94.2 -43.9 Q-95.55 -47.75 -95.5 -50.2 -95.25 -65.1 -84.2 -79.45 L-74.25 -90.95 Q-67.55 -98.15 -64.6 -102.1 -55.95 -113.8 -42.75 -122.15 -33.4 -128.05 -23.55 -130.85" fill="#c79918" fill-rule="evenodd" stroke="none"/>
      <path d="M-37.55 -100.1 Q-33.05 -102.95 -29.5 -104.45 -22.7 -107.15 -14.7 -112.65 L-10.85 -115.4 Q-3.15 -121.1 -0.5 -124.3 L-4.55 -118.35 Q-8.15 -113.25 -11.25 -110.55 L-14.7 -112.65 -11.25 -110.55 -12.55 -109.55 Q-20.3 -103.85 -30.5 -96.55 L-31.7 -97.1 -31.3 -98.15 -29.85 -101.55 -34.45 -98.5 -38.75 -96.05 -49.8 -89.4 -55.95 -84.85 -56.85 -85.3 -55.95 -84.85 -60.45 -81.15 -64.45 -77.25 Q-62.3 -80.5 -56.85 -85.3 L-50.9 -90.4 Q-43.4 -96.4 -37.55 -100.1 L-34.45 -98.5 -37.55 -100.1" fill="#1a611a" fill-rule="evenodd" stroke="none"/>
      <path d="M-113.55 -113.55 L-111.3 -119.15 Q-107.55 -128.3 -104.05 -133.7 -97.5 -143.7 -88.0 -146.75 L-87.8 -145.45 Q-87.9 -140.95 -89.15 -136.8 L-91.75 -137.5 -89.15 -136.8 Q-91.4 -129.45 -97.6 -122.95 -101.8 -118.5 -106.35 -116.0 -109.8 -114.15 -113.55 -113.55 M-106.9 -118.3 L-106.35 -116.0 -106.9 -118.3" fill="#d95e38" fill-rule="evenodd" stroke="none"/>
      <path d="M-111.65 -86.3 Q-111.75 -79.55 -114.5 -71.8 -117.6 -63.0 -118.55 -59.25 L-119.05 -63.1 Q-118.95 -67.5 -117.45 -70.9 -114.8 -76.75 -114.05 -79.35 -112.85 -83.2 -112.6 -87.8 L-112.45 -95.45 -112.05 -91.2 -111.65 -86.3" fill="#c2001c" fill-rule="evenodd" stroke="none"/>
      <path d="M-74.4 -85.9 L-75.45 -82.2 -76.8 -74.2 -77.25 -68.85 Q-77.35 -62.05 -70.7 -61.05 -62.6 -60.9 -57.65 -59.85 L-58.0 -59.65 -61.0 -56.55 -67.7 -49.2 -64.3 -42.6 Q-63.6 -42.45 -64.2 -40.65 -69.2 -36.75 -74.25 -34.6 -83.85 -30.9 -84.8 -32.35 -89.05 -36.95 -90.55 -39.8 -91.55 -41.4 -91.85 -44.2 L-92.0 -49.05 Q-91.85 -55.55 -90.1 -60.75 -88.2 -66.45 -83.95 -72.3 -82.7 -74.0 -80.25 -78.0 L-75.6 -84.55 -74.4 -85.9 M-76.8 -74.2 L-78.1 -74.75 -76.8 -74.2 M-68.7 -48.0 L-67.7 -49.2 -68.7 -48.0 M-70.05 -43.4 L-83.05 -37.95 -70.05 -43.4 M-70.1 -49.4 L-86.45 -47.15 -70.1 -49.4 M-65.45 -55.7 L-84.55 -57.85 -65.45 -55.7" fill="#115211" fill-rule="evenodd" stroke="none"/>
      <path d="M-102.3 -27.25 L-107.4 -26.4 Q-116.5 -26.55 -125.05 -37.95 -133.45 -49.25 -133.3 -60.45 -133.2 -65.85 -130.85 -69.9 L-125.1 -77.75 Q-122.75 -81.0 -121.65 -87.85 -120.35 -95.7 -118.15 -101.7 L-120.75 -88.65 Q-122.3 -79.3 -122.45 -70.05 -122.55 -62.55 -121.85 -57.55 -121.0 -51.25 -118.35 -45.6 -116.85 -53.2 -114.3 -53.15 -112.4 -53.15 -107.35 -49.35 -107.05 -42.55 -104.85 -34.55 -103.7 -30.5 -102.3 -27.25" fill="#ad001d" fill-rule="evenodd" stroke="none"/>
      <path d="M-86.4 -31.85 L-87.8 -31.35 Q-89.45 -33.3 -91.9 -38.3 L-94.2 -43.9 -92.1 -44.2 -91.85 -44.2 Q-91.55 -41.4 -90.55 -39.8 -89.05 -36.95 -84.8 -32.35 L-86.4 -31.85" fill="#ab7f10" fill-rule="evenodd" stroke="none"/>
      <path d="M-0.1 -95.2 L-1.5 -89.55 -2.7 -81.0 -5.8 -80.5 Q-13.35 -79.45 -22.6 -72.7 -24.7 -69.95 -25.65 -67.75 -27.3 -63.75 -27.4 -56.7 -27.6 -45.15 -17.15 -38.2 -14.05 -36.15 -8.05 -33.5 L-31.25 -33.9 -31.9 -36.7 -32.35 -38.7 Q-33.7 -43.7 -35.45 -48.65 L-37.5 -54.45 -39.1 -58.25 Q-41.8 -64.5 -45.15 -70.85 L-41.95 -73.15 Q-32.25 -80.05 -21.0 -85.45 L-6.4 -92.15 -0.1 -95.2" fill="#216621" fill-rule="evenodd" stroke="none"/>
      <path d="M9.1 -33.25 L-8.05 -33.5 Q-14.05 -36.15 -17.15 -38.2 -27.6 -45.15 -27.4 -56.7 -27.3 -63.75 -25.65 -67.75 -24.7 -69.95 -22.6 -72.7 -13.35 -79.45 -5.8 -80.5 L-2.7 -81.0 Q-4.05 -67.3 -1.65 -53.5 1.45 -35.45 9.1 -33.25" fill="#339933" fill-rule="evenodd" stroke="none"/>
      <path d="M-56.25 -34.3 L-59.8 -34.35 -59.55 -35.5 -59.5 -35.95 -59.5 -36.25 -58.65 -43.45 -58.35 -47.3 -57.65 -44.2 -56.25 -35.05 -56.25 -34.3" fill="#174717" fill-rule="evenodd" stroke="none"/>
      <path d="M99.0 -111.25 L83.8 -111.45 71.2 -111.65 69.55 -110.7 67.0 -108.95 Q59.8 -102.75 57.05 -88.6 53.75 -70.7 56.9 -52.6 60.05 -34.55 67.7 -32.3 L106.95 -31.7 Q114.75 -33.65 119.0 -51.6 123.25 -69.6 120.95 -87.55 118.65 -105.6 108.25 -111.1 L99.0 -111.25 M35.05 -125.85 L38.45 -126.95 Q46.55 -129.85 57.15 -135.1 L59.15 -136.1 60.45 -136.8 Q63.3 -134.9 65.35 -132.55 69.4 -127.95 70.35 -121.8 70.85 -118.7 70.5 -115.05 L68.65 -114.3 66.65 -113.65 60.95 -111.85 71.2 -111.65 M27.8 -124.0 Q31.1 -124.65 35.05 -125.85 M10.45 -131.1 L12.75 -130.2 17.75 -128.65 23.15 -127.4 Q25.25 -126.55 25.2 -124.15 L25.2 -123.65 27.8 -124.0 M26.15 -105.65 Q36.8 -106.4 46.85 -108.35 L51.7 -109.35 60.95 -111.85 M10.45 -131.1 L8.1 -131.7 Q5.55 -132.8 1.1 -133.7 -4.5 -134.9 -7.15 -134.95 L-9.45 -134.8 Q-15.7 -134.35 -23.55 -130.85 -29.15 -128.35 -35.65 -124.25 -52.85 -113.25 -62.3 -99.45 -64.3 -96.65 -69.05 -91.6 L-74.4 -85.9 -75.6 -84.55 -80.25 -78.0 Q-82.7 -74.0 -83.95 -72.3 -88.2 -66.45 -90.1 -60.75 -91.85 -55.55 -92.0 -49.05 L-91.85 -44.2 Q-91.55 -41.4 -90.55 -39.8 -89.05 -36.95 -84.8 -32.35 L-86.4 -31.85 -87.8 -31.35 -95.8 -28.95 -102.3 -27.25 -107.4 -26.4 Q-116.5 -26.55 -125.05 -37.95 -133.45 -49.25 -133.3 -60.45 -133.2 -65.85 -130.85 -69.9 L-125.1 -77.75 Q-122.75 -81.0 -121.65 -87.85 -120.35 -95.7 -118.15 -101.7 L-117.5 -103.4 -113.55 -113.55 -111.3 -119.15 Q-107.55 -128.3 -104.05 -133.7 -97.5 -143.7 -88.0 -146.75 -83.5 -148.2 -78.3 -148.1 -71.0 -148.0 -60.55 -145.8 L-49.4 -143.05 -32.25 -138.15 Q-27.1 -140.4 -23.75 -140.35 -21.3 -140.3 -18.45 -139.45 L-13.3 -137.4 Q-11.7 -136.65 -9.45 -134.8 M-76.8 -74.2 L-59.0 -66.35 M8.1 -131.7 L8.6 -131.75 10.45 -131.1 M15.2 -105.2 Q12.3 -102.7 8.65 -100.3 4.9 -97.9 -0.1 -95.2 L-1.5 -89.55 -2.7 -81.0 Q-4.05 -67.3 -1.65 -53.5 1.45 -35.45 9.1 -33.25 L-8.05 -33.5 -31.25 -33.9 Q-30.25 -29.35 -29.65 -24.75 -41.7 -14.75 -55.45 -16.55 L-55.5 -20.7 -55.55 -23.0 -55.95 -31.25 -56.25 -34.3 -59.8 -34.35 -60.05 -32.85 M25.75 -105.65 L15.2 -105.2 Q24.8 -113.8 25.2 -123.65 M26.15 -105.65 L25.75 -105.65 M39.5 -32.75 L39.5 -30.6 39.55 -23.0 Q39.7 -13.8 40.65 -3.8 L45.55 -2.85 Q49.4 8.7 45.2 18.0 27.85 24.75 10.15 16.55 7.2 6.2 10.5 -4.3 L14.9 -4.75 Q14.3 -11.0 16.5 -17.15 L16.7 -23.75 Q16.45 -29.35 15.3 -33.15 L9.1 -33.25 M-60.05 -32.65 L-60.05 -32.6 -60.3 -31.3 -60.55 -29.9 -61.25 -26.8 -61.65 -24.85 -63.05 -19.35 -63.15 -19.05 Q-63.85 -16.45 -64.7 -13.8 L-66.3 -9.05 Q-74.15 -6.0 -81.6 -8.95 -83.1 -9.55 -84.6 -10.45 -87.95 -12.3 -91.15 -15.4 L-92.4 -16.6 -90.8 -19.4 -89.15 -22.65 -87.45 -27.25 -86.65 -30.4 -86.4 -31.85 M14.05 -1.7 L15.55 -0.7 Q15.1 -2.75 14.9 -4.75 M15.55 -0.7 L15.9 -0.5 Q26.65 5.95 37.35 2.6 39.25 2.05 41.15 1.1 L40.65 -3.8 M15.3 -33.15 L39.5 -32.75 44.85 -32.7 59.1 -32.45 67.7 -32.3 M57.7 -27.8 Q57.6 -29.9 59.1 -32.45 M46.1 -28.1 Q45.3 -30.25 44.85 -32.7 M57.7 -27.8 Q57.7 -26.05 59.0 -24.55 59.7 -17.95 54.5 -18.0 48.5 -22.15 46.1 -28.1 M113.95 -74.65 L113.9 -72.75 113.9 -70.8 Q113.7 -58.2 111.45 -49.3 109.25 -40.45 106.35 -40.5 103.4 -40.55 101.4 -49.5 99.5 -58.4 99.7 -71.0 L99.7 -72.95 99.8 -74.85 Q100.3 -85.0 102.1 -92.55 104.4 -101.4 107.35 -101.35 110.25 -101.3 112.15 -92.35 113.8 -84.8 113.95 -74.65 M41.15 1.1 L43.0 0.2 M-40.5 -134.1 L-32.85 -137.9 -32.25 -138.15 M-14.7 -112.65 L-28.0 -120.4 M-30.5 -96.55 L-21.75 -92.05 M-11.25 -110.55 L3.8 -101.7 M-14.7 -112.65 L-11.25 -110.55 M-37.55 -100.1 L-47.75 -105.3 M-59.5 -36.25 L-58.65 -43.45 -58.35 -47.3 Q-59.45 -52.3 -61.0 -56.55 L-67.7 -49.2 -64.3 -42.6 Q-63.6 -42.45 -64.2 -40.65 -69.2 -36.75 -74.25 -34.6 -83.85 -30.9 -84.8 -32.35 M-0.1 -95.2 L-6.4 -92.15 -21.0 -85.45 Q-32.25 -80.05 -41.95 -73.15 L-45.15 -70.85 Q-41.8 -64.5 -39.1 -58.25 L-37.5 -54.45 -35.45 -48.65 Q-33.7 -43.7 -32.35 -38.7 L-31.9 -36.7 -31.25 -33.9 M-31.7 -97.1 L-30.5 -96.55 M-34.45 -98.5 L-31.7 -97.1 M-34.45 -98.5 L-37.55 -100.1 M-56.85 -85.3 L-55.95 -84.85 -42.7 -78.2 M-56.85 -85.3 L-65.15 -89.45 M-57.65 -59.85 Q-53.85 -63.8 -49.9 -67.05 L-45.45 -70.65 -45.15 -70.85 M-57.65 -59.85 L-58.0 -59.65 -61.0 -56.55 M-78.1 -74.75 L-76.8 -74.2 M-58.35 -47.3 L-57.65 -44.2 -56.25 -35.05 -56.25 -34.3 M-59.55 -35.5 L-59.8 -34.35 M-59.5 -36.25 L-59.5 -35.95 M-67.7 -49.2 L-68.7 -48.0 M-84.55 -57.85 L-65.45 -55.7 M-86.45 -47.15 L-70.1 -49.4 M-83.05 -37.95 L-70.05 -43.4 M-9.65 -129.75 L18.25 -117.65" fill="none" stroke="#000000" stroke-linecap="round" stroke-linejoin="round" stroke-opacity="0.6627451" stroke-width="0.8"/>
      <path d="M-89.15 -136.8 L-91.75 -137.5 M-89.15 -136.8 Q-87.9 -140.95 -87.8 -145.45 L-88.0 -146.75 M-89.15 -136.8 L-83.35 -135.45 M-106.35 -116.0 L-105.2 -111.4 M-106.35 -116.0 L-106.9 -118.3 M-113.55 -113.55 Q-109.8 -114.15 -106.35 -116.0 -101.8 -118.5 -97.6 -122.95 -91.4 -129.45 -89.15 -136.8" fill="none" stroke="#000000" stroke-linecap="round" stroke-linejoin="round" stroke-opacity="0.4" stroke-width="0.8"/>
      <path d="M42.15 -64.6 Q45.1 -58.55 43.25 -52.05 41.25 -44.85 34.55 -41.3 27.9 -37.75 20.55 -39.85 15.55 -41.3 12.3 -44.75 10.7 -46.4 9.5 -48.55 5.75 -55.1 7.75 -62.2 9.25 -67.3 13.0 -70.55 14.5 -71.9 16.4 -72.95 20.8 -75.3 25.5 -75.25 L30.45 -74.45 Q37.8 -72.35 41.55 -65.75 L42.15 -64.6 M14.3 -48.45 Q15.75 -46.5 17.8 -45.25 18.6 -44.8 19.55 -44.4 L21.85 -52.55 14.3 -48.45 M23.8 -43.2 Q27.25 -42.7 30.4 -43.8 L26.1 -51.3 23.8 -43.2 M38.1 -63.95 Q35.6 -68.0 31.4 -69.95 L27.75 -57.25 34.35 -45.85 Q38.05 -48.55 39.3 -53.2 40.15 -56.3 39.7 -59.25 39.4 -61.6 38.1 -63.95 M18.4 -69.5 Q16.5 -68.45 15.05 -67.1 12.55 -64.65 11.55 -61.1 10.25 -56.45 12.05 -52.25 L23.55 -58.4 27.2 -71.1 25.15 -71.25 Q21.65 -71.25 18.4 -69.5" fill="#000000" fill-opacity="0.4509804" fill-rule="evenodd" stroke="none"/>
      <path d="M23.8 -76.15 L28.75 -75.4 Q36.15 -73.25 39.8 -66.7 L40.45 -65.55 Q39.55 -62.65 38.0 -60.2 37.65 -62.55 36.35 -64.8 33.85 -68.95 29.7 -70.85 L26.1 -58.15 29.8 -51.75 26.0 -49.45 24.4 -52.25 23.35 -48.2 Q20.8 -47.25 18.25 -46.65 L20.15 -53.45 12.55 -49.4 Q14.05 -47.4 16.1 -46.15 L10.6 -45.6 Q8.95 -47.35 7.8 -49.45 4.0 -55.95 6.0 -63.15 7.5 -68.2 11.25 -71.45 L11.25 -71.35 Q11.2 -69.35 12.95 -68.3 L13.4 -67.95 Q10.85 -65.55 9.85 -62.05 8.55 -57.4 10.35 -53.15 L12.7 -54.4 Q11.2 -53.15 11.15 -52.7 10.95 -52.5 11.5 -52.5 13.5 -52.45 18.45 -55.3 22.65 -57.85 23.5 -58.8 24.45 -59.85 25.55 -64.15 L26.85 -69.95 26.9 -70.95 Q25.95 -70.4 25.2 -69.3 L23.95 -66.7 25.45 -72.0 23.4 -72.15 Q24.1 -73.35 24.1 -74.55 L23.8 -76.15" fill="#999999" fill-rule="evenodd" stroke="none"/>
      <path d="M23.8 -76.15 L24.1 -74.55 Q24.1 -73.35 23.4 -72.15 19.9 -72.15 16.75 -70.4 14.8 -69.35 13.4 -67.95 L12.95 -68.3 Q11.2 -69.35 11.25 -71.35 L11.25 -71.45 14.75 -73.9 Q19.1 -76.25 23.8 -76.15 M23.95 -66.7 L25.2 -69.3 Q25.95 -70.4 26.9 -70.95 L26.85 -69.95 25.55 -64.15 Q24.45 -59.85 23.5 -58.8 22.65 -57.85 18.45 -55.3 13.5 -52.45 11.5 -52.5 10.95 -52.5 11.15 -52.7 11.2 -53.15 12.7 -54.4 L21.8 -59.35 23.95 -66.7" fill="#ffffff" fill-rule="evenodd" stroke="none"/>
      <path d="M10.6 -45.6 L16.1 -46.15 17.85 -45.35 18.25 -46.65 Q20.8 -47.25 23.35 -48.2 L22.1 -44.15 Q25.5 -43.6 28.7 -44.7 L26.0 -49.45 29.8 -51.75 32.65 -46.75 Q36.3 -49.5 37.55 -54.15 38.45 -57.2 38.0 -60.2 39.55 -62.65 40.45 -65.55 43.4 -59.5 41.5 -52.95 39.5 -45.8 32.9 -42.2 26.2 -38.6 18.85 -40.8 13.85 -42.2 10.6 -45.6" fill="#828282" fill-rule="evenodd" stroke="none"/>
      <path d="M40.45 -65.55 L39.8 -66.7 Q36.15 -73.25 28.75 -75.4 L23.8 -76.15 Q19.1 -76.25 14.75 -73.9 L11.25 -71.45 Q7.5 -68.2 6.0 -63.15 4.0 -55.95 7.8 -49.45 8.95 -47.35 10.6 -45.6 13.85 -42.2 18.85 -40.8 26.2 -38.6 32.9 -42.2 39.5 -45.8 41.5 -52.95 43.4 -59.5 40.45 -65.55 M23.4 -72.15 L25.45 -72.0 23.95 -66.7 21.8 -59.35 12.7 -54.4 10.35 -53.15 Q8.55 -57.4 9.85 -62.05 10.85 -65.55 13.4 -67.95 14.8 -69.35 16.75 -70.4 19.9 -72.15 23.4 -72.15 M16.1 -46.15 Q14.05 -47.4 12.55 -49.4 L20.15 -53.45 18.25 -46.65 17.85 -45.35 16.1 -46.15 M23.35 -48.2 L24.4 -52.25 26.0 -49.45 28.7 -44.7 Q25.5 -43.6 22.1 -44.15 L23.35 -48.2 M29.8 -51.75 L26.1 -58.15 29.7 -70.85 Q33.85 -68.95 36.35 -64.8 37.65 -62.55 38.0 -60.2 38.45 -57.2 37.55 -54.15 36.3 -49.5 32.65 -46.75 L29.8 -51.75" fill="none" stroke="#000000" stroke-linecap="round" stroke-linejoin="round" stroke-opacity="0.6627451" stroke-width="0.8"/>
      <path d="M46.15 -18.8 L45.45 -18.85 43.2 -18.75 42.25 -18.75 41.9 -18.8 41.7 -18.8 41.05 -19.0 41.0 -19.2 41.5 -19.35 42.2 -19.45 42.3 -19.45 42.4 -19.5 43.2 -19.65 43.95 -19.8 47.0 -20.35 47.55 -20.65 Q49.35 -21.7 49.75 -22.45 L49.9 -24.3 Q49.95 -25.7 49.4 -27.65 L49.4 -27.7 Q48.85 -30.05 47.9 -30.9 L45.35 -31.35 44.9 -31.3 39.9 -30.2 39.65 -30.15 34.8 -29.35 30.15 -29.1 22.5 -30.5 22.3 -30.55 17.1 -31.9 Q16.05 -32.0 15.95 -32.55 15.8 -33.35 15.8 -34.3 L15.8 -34.6 14.3 -34.8 11.95 -34.9 Q10.2 -35.0 8.8 -34.3 7.35 -33.6 6.7 -32.8 6.15 -32.2 6.1 -31.5 L6.1 -31.3 10.0 -30.05 11.15 -29.65 11.2 -29.55 10.2 -29.3 9.1 -29.2 Q6.35 -29.25 -0.4 -31.85 L0.35 -33.25 4.55 -31.8 5.1 -33.0 Q5.65 -33.95 6.25 -34.35 L7.0 -34.9 Q11.55 -36.65 15.4 -35.65 L16.65 -35.25 16.7 -35.15 16.6 -34.3 16.65 -33.55 16.7 -32.85 17.1 -32.75 22.45 -32.15 22.65 -32.05 Q26.6 -30.9 30.15 -30.65 L34.8 -30.85 35.1 -30.9 39.7 -31.7 39.9 -31.75 43.1 -32.55 47.95 -32.7 Q49.3 -32.05 50.3 -29.55 L50.9 -27.65 51.2 -25.85 51.1 -23.15 Q51.15 -22.15 49.6 -20.7 48.85 -20.1 47.7 -19.55 L47.85 -19.5 Q48.85 -19.2 49.65 -18.4 L50.45 -17.15 50.95 -14.65 50.95 -12.35 Q50.9 -7.55 49.1 -6.0 47.65 -4.7 43.65 -4.75 L41.7 -4.85 41.7 -4.75 41.9 -4.75 42.45 -4.65 43.6 -4.4 Q46.35 -3.9 46.65 -2.95 46.95 -1.15 46.9 0.65 L46.65 3.45 46.45 5.2 Q45.5 7.8 43.55 9.05 40.3 10.5 36.5 10.35 30.75 10.1 24.95 10.15 L20.65 10.0 16.65 9.45 14.25 8.95 12.85 8.65 9.75 7.7 7.95 6.85 6.35 7.45 3.4 7.95 -7.9 10.0 -13.05 10.3 -12.75 8.35 Q-4.55 7.95 3.45 6.0 L7.55 5.15 Q7.95 5.15 8.2 5.4 9.05 5.5 11.3 6.55 L13.15 7.0 14.25 7.35 18.55 8.1 23.25 8.55 25.0 8.6 32.3 8.7 Q38.25 9.55 43.55 7.7 L44.35 6.75 45.2 5.15 45.4 4.3 45.85 -1.55 Q45.85 -2.6 45.45 -2.9 L43.95 -3.3 43.2 -3.45 41.1 -4.0 Q40.55 -4.15 40.35 -4.45 L40.4 -4.75 40.3 -5.0 40.35 -5.05 40.2 -5.1 40.1 -5.15 Q39.65 -5.25 39.5 -5.45 L39.4 -5.6 42.85 -5.7 46.55 -6.15 Q48.45 -6.75 49.2 -8.3 49.7 -9.45 49.75 -12.35 49.8 -15.15 49.45 -16.45 48.9 -18.85 47.05 -18.85 L46.15 -18.8" fill="#000000" fill-rule="evenodd" stroke="none"/>
      <path d="M6.1 -31.5 Q6.15 -32.2 6.7 -32.8 7.35 -33.6 8.8 -34.3 10.2 -35.0 11.95 -34.9 L14.3 -34.8 15.8 -34.6 15.8 -34.3 Q15.8 -33.35 15.95 -32.55 16.05 -32.0 17.1 -31.9 L22.3 -30.55 22.5 -30.5 30.15 -29.1 34.8 -29.35 39.65 -30.15 39.9 -30.2 44.9 -31.3 45.35 -31.35 47.9 -30.9 Q48.85 -30.05 49.4 -27.7 L49.4 -27.65 Q49.95 -25.7 49.9 -24.3 L49.75 -22.45 Q49.35 -21.7 47.55 -20.65 L47.0 -20.35 43.95 -19.8 43.2 -19.65 42.4 -19.5 42.3 -19.45 42.2 -19.45 41.5 -19.35 41.0 -19.2 41.05 -19.0 41.7 -18.8 41.9 -18.8 42.25 -18.75 43.2 -18.75 45.45 -18.85 46.15 -18.8 46.75 -17.35 Q47.05 -16.1 47.0 -13.35 46.9 -10.55 46.45 -9.4 45.75 -7.85 43.9 -7.35 42.1 -6.75 40.35 -6.9 L38.3 -6.95 38.2 -6.75 39.15 -5.6 Q39.5 -5.3 40.05 -5.15 L40.1 -5.15 40.2 -5.1 40.3 -5.0 40.4 -4.75 40.35 -4.45 Q40.55 -4.15 41.1 -4.0 L43.2 -3.45 43.25 -2.85 42.85 2.85 42.55 3.75 41.75 5.25 41.0 6.15 Q35.9 7.95 30.2 7.15 L23.2 7.05 21.5 7.05 17.0 6.6 12.95 5.8 11.9 5.5 10.1 5.1 Q7.9 4.05 7.1 3.95 L6.45 3.7 2.55 4.55 Q-4.85 6.4 -12.45 6.8 -10.5 -4.4 -7.15 -15.25 -4.3 -24.5 -0.4 -31.85 6.35 -29.25 9.1 -29.2 L10.2 -29.3 11.2 -29.55 11.15 -29.65 10.0 -30.05 10.15 -30.1 10.1 -30.2 6.1 -31.5" fill="#999999" fill-rule="evenodd" stroke="none"/>
      <path d="M46.15 -18.8 L47.05 -18.85 Q48.9 -18.85 49.45 -16.45 49.8 -15.15 49.75 -12.35 49.7 -9.45 49.2 -8.3 48.45 -6.75 46.55 -6.15 L42.85 -5.7 39.4 -5.6 39.5 -5.45 Q39.65 -5.25 40.1 -5.15 L40.05 -5.15 Q39.5 -5.3 39.15 -5.6 L38.2 -6.75 38.3 -6.95 40.35 -6.9 Q42.1 -6.75 43.9 -7.35 45.75 -7.85 46.45 -9.4 46.9 -10.55 47.0 -13.35 47.05 -16.1 46.75 -17.35 L46.15 -18.8 M40.2 -5.1 L40.35 -5.05 40.3 -5.0 40.2 -5.1 M43.2 -3.45 L43.95 -3.3 45.45 -2.9 Q45.85 -2.6 45.85 -1.55 L45.4 4.3 45.2 5.15 44.35 6.75 43.55 7.7 Q38.25 9.55 32.3 8.7 L25.0 8.6 23.25 8.55 18.55 8.1 14.25 7.35 13.15 7.0 11.3 6.55 Q9.05 5.5 8.2 5.4 7.95 5.15 7.55 5.15 L3.45 6.0 Q-4.55 7.95 -12.75 8.35 L-12.45 6.8 Q-4.85 6.4 2.55 4.55 L6.45 3.7 7.1 3.95 Q7.9 4.05 10.1 5.1 L11.9 5.5 12.95 5.8 17.0 6.6 21.5 7.05 23.2 7.05 30.2 7.15 Q35.9 7.95 41.0 6.15 L41.75 5.25 42.55 3.75 42.85 2.85 43.25 -2.85 43.2 -3.45 M10.0 -30.05 L6.1 -31.3 6.1 -31.5 10.1 -30.2 10.15 -30.1 10.0 -30.05" fill="#bdbdbd" fill-rule="evenodd" stroke="none"/>
    </g>
    <linearGradient gradientTransform="matrix(0.0087, 1.0E-4, -6.0E-4, 0.0371, 106.75, -70.9)" gradientUnits="userSpaceOnUse" id="gradient0" spreadMethod="pad" x1="-819.2" x2="819.2">
      <stop offset="0.0" stop-color="#000000"/>
      <stop offset="1.0" stop-color="#2f2f2f"/>
    </linearGradient>
  </defs>
</svg>
