<?xml version="1.0" encoding="UTF-8" standalone="no"?>
<svg xmlns:xlink="http://www.w3.org/1999/xlink" height="531.5px" width="460.6px" xmlns="http://www.w3.org/2000/svg">
  <g transform="matrix(1.0, 0.0, 0.0, 1.0, 193.65, 334.05)">
    <use height="93.9" transform="matrix(1.0, 0.0, 0.0, 1.0, -56.75, -87.85)" width="323.7" xlink:href="#shape0"/>
  </g>
  <defs>
    <g id="shape0" transform="matrix(1.0, 0.0, 0.0, 1.0, 56.75, 87.85)">
      <path d="M35.75 -75.0 L35.75 -75.05 34.9 -75.25 34.9 -76.6 46.1 -76.55 46.1 -75.2 45.25 -75.0 35.75 -75.0 M42.1 -59.0 L41.6 -58.95 Q39.7 -58.95 38.35 -60.3 37.0 -61.65 37.05 -63.55 37.05 -65.45 38.4 -66.8 39.75 -68.15 41.65 -68.15 L42.15 -68.1 Q40.6 -67.95 39.4 -66.8 38.1 -65.45 38.1 -63.55 38.05 -61.65 39.35 -60.3 40.55 -59.15 42.1 -59.0" fill="#141414" fill-rule="evenodd" stroke="none"/>
      <path d="M44.3 -68.85 L62.0 -68.75 61.95 -58.2 56.2 -58.25 50.05 -58.25 31.95 -58.35 27.35 -58.35 22.65 -58.4 22.7 -68.95 36.6 -68.85 44.3 -68.85 M42.1 -59.0 L42.6 -58.95 Q44.5 -58.95 45.85 -60.3 47.2 -61.6 47.25 -63.5 47.25 -65.4 45.9 -66.8 44.55 -68.15 42.65 -68.15 L42.15 -68.1 41.65 -68.15 Q39.75 -68.15 38.4 -66.8 37.05 -65.45 37.05 -63.55 37.0 -61.65 38.35 -60.3 39.7 -58.95 41.6 -58.95 L42.1 -59.0" fill="url(#gradient0)" fill-rule="evenodd" stroke="none"/>
      <path d="M45.25 -75.0 L45.2 -69.75 44.3 -68.85 36.6 -68.85 35.7 -69.8 35.75 -75.0 45.25 -75.0" fill="url(#gradient1)" fill-rule="evenodd" stroke="none"/>
      <path d="M42.15 -68.1 L42.65 -68.15 Q44.55 -68.15 45.9 -66.8 47.25 -65.4 47.25 -63.5 47.2 -61.6 45.85 -60.3 44.5 -58.95 42.6 -58.95 L42.1 -59.0 Q40.55 -59.15 39.35 -60.3 38.05 -61.65 38.1 -63.55 38.1 -65.45 39.4 -66.8 40.6 -67.95 42.15 -68.1" fill="#212121" fill-rule="evenodd" stroke="none"/>
      <path d="M56.2 -58.25 L56.2 -55.35 Q53.4 -55.9 49.9 -55.35 L50.05 -58.25 56.2 -58.25 M27.25 -55.45 L27.35 -58.35 31.95 -58.35 33.0 -55.45 Q30.25 -56.35 27.25 -55.45" fill="#242424" fill-rule="evenodd" stroke="none"/>
      <path d="M56.2 -55.35 L56.2 -52.2 49.7 -52.2 49.9 -55.35 Q53.4 -55.9 56.2 -55.35 M81.35 -46.65 L73.0 -46.65 73.0 -49.55 81.5 -49.55 98.25 -49.55 99.55 -49.55 116.25 -49.55 201.85 -49.55 Q201.8 -48.25 202.2 -46.65 L115.5 -46.65 99.15 -46.65 97.65 -46.65 81.35 -46.65 M27.05 -52.3 L27.25 -55.45 Q30.25 -56.35 33.0 -55.45 L34.1 -52.3 27.05 -52.3 M-6.35 -72.8 L-5.35 -74.3 -4.1 -74.3 -3.0 -75.4 -3.65 -75.9 5.35 -87.35 6.85 -86.3 -2.35 -74.85 -2.4 -74.3 -1.85 -74.3 -1.35 -72.8 -6.35 -72.8 M-2.4 -74.3 L-4.1 -74.3 -2.4 -74.3 M-3.0 -75.4 L-2.35 -74.85 -3.0 -75.4" fill="#333333" fill-rule="evenodd" stroke="none"/>
      <path d="M56.2 -52.2 L58.35 -52.15 60.0 -43.85 28.55 -44.0 25.6 -43.8 22.7 -43.35 21.95 -43.2 22.1 -43.65 22.5 -45.1 24.6 -52.35 27.05 -52.3 34.1 -52.3 49.7 -52.2 56.2 -52.2" fill="url(#gradient2)" fill-rule="evenodd" stroke="none"/>
      <path d="M62.0 -68.75 L83.85 -72.3 83.8 -54.5 61.95 -58.2 62.0 -68.75 M22.65 -58.4 L0.85 -54.8 0.9 -72.8 22.7 -68.95 22.65 -58.4" fill="url(#gradient3)" fill-rule="evenodd" stroke="none"/>
      <path d="M81.5 -49.55 Q78.85 -51.25 78.3 -52.2 L80.55 -52.7 91.8 -50.85 98.25 -49.55 81.5 -49.55 M221.1 -44.3 L221.9 -42.55 225.05 -42.6 225.1 -38.45 202.55 -39.5 197.4 -39.4 197.4 -42.25 201.75 -42.35 Q204.6 -41.55 208.15 -41.55 213.8 -41.65 220.9 -44.25 L221.1 -44.3 M99.3 -43.7 L98.4 -43.65 97.7 -43.7 96.15 -44.15 Q96.65 -45.1 99.15 -46.65 L115.5 -46.65 109.65 -45.5 Q102.0 -43.95 99.3 -43.7" fill="#707070" fill-rule="evenodd" stroke="none"/>
      <path d="M83.85 -72.3 L94.05 -72.25 94.0 -54.45 83.8 -54.5 83.85 -72.3 M0.85 -54.8 L-7.05 -54.8 -7.0 -72.8 -6.35 -72.8 -1.35 -72.8 0.9 -72.8 0.85 -54.8" fill="url(#gradient4)" fill-rule="evenodd" stroke="none"/>
      <path d="M60.0 -43.85 L68.3 -43.8 77.15 -43.8 79.45 -43.8 80.55 -43.65 82.25 -43.75 97.7 -43.7 98.4 -43.65 99.3 -43.7 147.95 -43.45 Q146.85 -39.6 143.75 -36.55 L72.05 -36.9 68.05 -30.4 134.15 -30.55 132.4 -29.85 Q129.05 -28.45 127.05 -27.8 L124.55 -26.95 114.2 -27.0 106.65 -27.05 99.1 -27.1 91.7 -27.1 91.6 -27.1 Q87.55 -27.4 84.2 -26.95 75.8 -26.0 71.7 -21.05 70.2 -19.65 68.65 -18.55 63.15 -14.55 58.25 -15.3 L54.4 -15.35 52.55 -15.35 52.9 -16.8 Q52.9 -19.55 47.8 -22.3 L39.65 -26.45 Q37.85 -27.7 34.9 -29.15 L33.25 -30.0 28.55 -32.55 21.35 -36.25 17.1 -38.05 Q16.75 -39.45 16.85 -40.65 18.4 -42.35 21.95 -43.2 L22.7 -43.35 25.6 -43.8 28.55 -44.0 60.0 -43.85 M29.6 -34.0 Q29.6 -32.85 30.35 -32.0 L30.5 -31.85 31.45 -31.2 32.65 -31.0 59.95 -30.85 Q61.2 -30.85 62.1 -31.7 63.0 -32.6 63.0 -33.85 L62.95 -34.4 Q62.75 -35.3 62.1 -36.0 61.2 -36.85 59.95 -36.85 L32.65 -37.0 31.6 -36.8 30.5 -36.15 Q29.8 -35.45 29.65 -34.55 L29.6 -34.0" fill="url(#gradient5)" fill-rule="evenodd" stroke="none"/>
      <path d="M52.1 -14.25 L50.4 -10.85 48.75 -8.45 Q46.55 -6.45 42.6 -6.4 L42.25 -6.4 36.15 -9.0 35.65 -9.25 34.7 -9.65 35.15 -7.3 35.15 -6.8 35.15 -6.6 Q34.75 -4.75 33.5 -3.3 27.25 3.95 18.3 -1.6 L18.15 -1.65 Q18.15 0.55 17.05 2.25 L16.05 3.45 Q13.4 5.5 9.95 5.1 L9.7 5.05 7.6 4.65 Q6.0 4.35 4.15 3.7 L2.5 3.1 -0.8 1.8 -8.95 -1.9 Q-15.0 -4.5 -21.15 -6.75 L-27.7 -9.35 Q-34.45 -12.2 -40.95 -15.65 L-43.55 -17.05 Q-47.45 -19.6 -49.6 -22.7 -54.55 -33.9 -55.9 -46.3 L-56.55 -51.25 -56.75 -55.85 Q-56.75 -57.1 -56.25 -57.65 L-55.7 -56.9 -55.45 -56.5 Q-55.1 -55.7 -54.9 -54.6 L-54.8 -53.8 -54.5 -51.2 Q-53.5 -40.65 -50.8 -30.3 -49.7 -26.1 -47.2 -22.65 -45.7 -20.8 -43.55 -19.15 L-40.85 -17.7 Q-36.95 -15.65 -32.95 -13.85 -28.4 -11.8 -23.7 -10.0 -16.8 -7.35 -9.95 -4.5 L-4.3 -2.15 -3.05 -1.6 5.3 1.85 7.6 2.5 7.95 2.65 12.4 2.9 Q14.0 2.5 15.45 1.4 L16.05 0.9 16.4 0.3 16.95 -1.2 17.0 -2.1 17.0 -2.6 16.95 -3.9 17.5 -3.45 18.3 -3.25 Q19.2 -2.75 20.15 -2.4 21.45 -1.85 22.65 -1.55 29.8 0.1 33.25 -6.85 L33.3 -7.35 33.3 -7.5 32.8 -8.95 32.55 -9.65 32.3 -10.6 32.35 -10.95 Q31.75 -11.2 30.85 -11.7 L30.55 -11.85 28.75 -12.95 Q29.3 -14.0 30.5 -13.65 L31.0 -13.45 33.45 -11.9 35.3 -11.1 37.6 -10.0 39.7 -9.0 Q42.0 -7.95 42.65 -7.95 L44.05 -8.0 Q46.35 -8.35 47.75 -9.85 L49.15 -12.15 50.35 -14.15 50.95 -15.35 51.25 -16.6 Q51.25 -18.1 48.55 -20.0 L45.8 -21.7 38.0 -25.6 30.75 -29.55 29.6 -30.1 21.8 -34.1 17.8 -36.1 13.95 -37.65 11.2 -38.6 11.15 -38.8 11.2 -38.95 11.65 -39.2 12.1 -39.3 17.1 -38.05 21.35 -36.25 28.55 -32.55 33.25 -30.0 34.9 -29.15 Q37.85 -27.7 39.65 -26.45 L47.8 -22.3 Q52.9 -19.55 52.9 -16.8 L52.55 -15.35 52.1 -14.25 M-20.55 -53.5 L-21.25 -54.05 Q-19.55 -55.55 -16.0 -51.9 -12.65 -48.5 -12.65 -46.9 L-12.65 -46.8 -11.85 -46.45 -8.8 -44.6 3.0 -37.95 3.4 -37.7 Q3.85 -38.65 5.1 -40.05 L6.4 -41.4 7.65 -42.75 Q9.25 -44.75 10.6 -45.6 L12.35 -46.45 16.1 -46.75 18.75 -46.3 22.5 -45.1 22.1 -43.65 Q18.1 -45.3 14.95 -45.3 12.15 -45.35 9.9 -43.25 L8.2 -41.25 7.85 -40.75 5.75 -38.45 4.3 -36.85 4.55 -36.15 4.5 -35.75 4.4 -35.5 4.15 -35.4 3.55 -35.3 3.0 -35.5 -11.5 -44.45 Q-15.05 -46.4 -17.75 -47.25 -16.65 -47.95 -14.9 -47.6 L-16.35 -50.2 -18.45 -52.1 -20.55 -53.5" fill="#000000" fill-rule="evenodd" stroke="none"/>
      <path d="M79.45 -43.8 Q78.9 -43.9 78.3 -44.15 78.8 -45.1 81.35 -46.65 L97.65 -46.65 91.8 -45.5 82.25 -43.75 80.55 -43.65 79.45 -43.8 M99.55 -49.55 Q96.85 -51.25 96.3 -52.2 L98.55 -52.7 109.8 -50.85 116.25 -49.55 99.55 -49.55 M-55.45 -56.5 L-51.15 -57.2 -45.0 -57.6 Q-37.4 -57.6 -29.7 -55.7 -24.05 -54.05 -20.55 -53.5 L-18.45 -52.1 -16.35 -50.2 -14.9 -47.6 Q-16.65 -47.95 -17.75 -47.25 -15.05 -46.4 -11.5 -44.45 L3.0 -35.5 3.55 -35.3 4.15 -35.4 4.4 -35.5 4.5 -35.75 4.55 -36.15 4.3 -36.85 5.75 -38.45 7.85 -40.75 8.2 -41.25 9.9 -43.25 Q12.15 -45.35 14.95 -45.3 18.1 -45.3 22.1 -43.65 L21.95 -43.2 Q18.4 -42.35 16.85 -40.65 16.75 -39.45 17.1 -38.05 L12.1 -39.3 11.65 -39.2 11.2 -38.95 11.15 -38.8 11.2 -38.6 13.95 -37.65 17.8 -36.1 21.8 -34.1 29.6 -30.1 30.75 -29.55 38.0 -25.6 45.8 -21.7 48.55 -20.0 48.55 -18.3 Q48.4 -17.1 47.65 -15.35 L46.4 -13.2 45.6 -12.15 Q43.7 -9.8 42.15 -9.15 L39.7 -9.0 37.6 -10.0 35.3 -11.1 33.45 -11.9 31.0 -13.45 30.5 -13.65 Q29.3 -14.0 28.75 -12.95 L30.55 -11.85 30.85 -11.7 Q31.75 -11.2 32.35 -10.95 L32.3 -10.6 32.55 -9.65 31.95 -8.7 30.4 -6.35 Q27.4 -1.9 24.55 -1.6 L22.65 -1.55 Q21.45 -1.85 20.15 -2.4 19.2 -2.75 18.3 -3.25 L17.5 -3.45 16.95 -3.9 17.0 -2.6 17.0 -2.1 13.4 1.8 12.4 2.9 7.95 2.65 7.6 2.5 5.3 1.85 -3.05 -1.6 -4.3 -2.15 -9.95 -4.5 Q-16.8 -7.35 -23.7 -10.0 -28.4 -11.8 -32.95 -13.85 -37.35 -17.75 -39.5 -19.0 L-40.75 -19.8 Q-42.9 -21.35 -44.55 -23.4 -46.75 -26.1 -47.7 -29.2 L-51.55 -44.05 Q-53.2 -50.5 -54.9 -54.6 -55.1 -55.7 -55.45 -56.5" fill="#999999" fill-rule="evenodd" stroke="none"/>
      <path d="M68.3 -43.8 L67.45 -47.6 72.15 -48.95 72.85 -45.65 77.15 -43.8 68.3 -43.8 M54.4 -15.35 Q53.05 -15.05 52.1 -14.25 L52.55 -15.35 54.4 -15.35 M50.4 -10.85 L48.8 -5.55 Q42.55 0.6 36.45 -0.6 L36.45 -2.85 Q40.35 -4.4 42.6 -6.4 46.55 -6.45 48.75 -8.45 L50.4 -10.85 M35.65 -9.25 L36.25 -7.85 Q36.2 -6.55 35.15 -6.6 L35.15 -6.8 35.15 -7.3 34.7 -9.65 35.65 -9.25 M-9.65 4.05 L-10.3 5.55 -33.35 5.45 Q-40.45 5.6 -41.55 -0.9 L-40.95 -15.65 Q-34.45 -12.2 -27.7 -9.35 L-21.15 -6.75 Q-15.0 -4.5 -8.95 -1.9 -8.35 0.85 -9.65 4.05 M29.6 -34.0 L29.65 -34.55 Q29.8 -35.45 30.5 -36.15 L31.6 -36.8 32.65 -37.0 59.95 -36.85 Q61.2 -36.85 62.1 -36.0 62.75 -35.3 62.95 -34.4 L63.0 -33.85 Q63.0 -32.6 62.1 -31.7 61.2 -30.85 59.95 -30.85 L32.65 -31.0 31.45 -31.2 30.5 -31.85 30.35 -32.0 Q29.6 -32.85 29.6 -34.0" fill="#5e5e5e" fill-rule="evenodd" stroke="none"/>
      <path d="M17.0 -2.1 L16.95 -1.2 16.4 0.3 16.05 0.9 15.45 1.4 Q14.0 2.5 12.4 2.9 L13.4 1.8 17.0 -2.1 M-32.95 -13.85 Q-36.95 -15.65 -40.85 -17.7 L-43.55 -19.15 Q-45.7 -20.8 -47.2 -22.65 -49.7 -26.1 -50.8 -30.3 -53.5 -40.65 -54.5 -51.2 L-54.8 -53.8 -54.9 -54.6 Q-53.2 -50.5 -51.55 -44.05 L-47.7 -29.2 Q-46.75 -26.1 -44.55 -23.4 -42.9 -21.35 -40.75 -19.8 L-39.5 -19.0 Q-37.35 -17.75 -32.95 -13.85 M39.7 -9.0 L42.15 -9.15 Q43.7 -9.8 45.6 -12.15 L46.4 -13.2 47.65 -15.35 Q48.4 -17.1 48.55 -18.3 L48.55 -20.0 Q51.25 -18.1 51.25 -16.6 L50.95 -15.35 50.35 -14.15 49.15 -12.15 47.75 -9.85 Q46.35 -8.35 44.05 -8.0 L42.65 -7.95 Q42.0 -7.95 39.7 -9.0 M22.65 -1.55 L24.55 -1.6 Q27.4 -1.9 30.4 -6.35 L31.95 -8.7 32.55 -9.65 32.8 -8.95 33.3 -7.5 33.3 -7.35 33.25 -6.85 Q29.8 0.1 22.65 -1.55" fill="#bdbdbd" fill-rule="evenodd" stroke="none"/>
      <path d="M134.15 -30.55 L68.05 -30.4 72.05 -36.9 143.75 -36.55 180.25 -36.4 200.8 -36.3 203.35 -30.8 171.85 -30.75 134.15 -30.55" fill="url(#gradient6)" fill-rule="evenodd" stroke="none"/>
      <path d="M114.2 -27.0 Q115.15 -26.1 114.35 -23.4 111.25 -15.45 105.3 -14.4 L97.75 -14.45 90.2 -14.45 82.65 -14.5 75.15 -14.55 72.5 -14.55 Q68.65 -15.7 68.65 -18.55 70.2 -19.65 71.7 -21.05 75.8 -26.0 84.2 -26.95 87.55 -27.4 91.6 -27.1 L91.65 -27.05 91.7 -27.1 99.1 -27.1 106.65 -27.05 114.2 -27.0 M75.15 -14.55 Q81.05 -15.6 84.2 -23.55 84.95 -26.0 84.2 -26.95 84.95 -26.0 84.2 -23.55 81.05 -15.6 75.15 -14.55 M97.75 -14.45 Q103.7 -15.5 106.85 -23.45 107.65 -26.15 106.65 -27.05 107.65 -26.15 106.85 -23.45 103.7 -15.5 97.75 -14.45 M82.65 -14.5 Q88.6 -15.6 91.75 -23.5 92.5 -26.15 91.65 -27.05 92.5 -26.15 91.75 -23.5 88.6 -15.6 82.65 -14.5 M90.2 -14.45 Q96.15 -15.55 99.3 -23.5 100.1 -26.15 99.1 -27.1 100.1 -26.15 99.3 -23.5 96.15 -15.55 90.2 -14.45" fill="url(#gradient7)" fill-rule="evenodd" stroke="none"/>
      <path d="M180.25 -36.4 L143.75 -36.55 Q146.85 -39.6 147.95 -43.45 L183.5 -43.3 Q186.8 -42.0 187.95 -39.3 L180.45 -39.25 180.5 -37.75 180.45 -37.0 180.25 -36.4" fill="#8c551e" fill-rule="evenodd" stroke="none"/>
      <path d="M170.7 -26.75 L124.55 -26.95 127.05 -27.8 Q129.05 -28.45 132.4 -29.85 L134.15 -30.55 171.85 -30.75 171.0 -28.45 170.75 -27.15 170.7 -26.75" fill="#7a4714" fill-rule="evenodd" stroke="none"/>
      <path d="M201.85 -49.55 Q201.85 -50.7 202.2 -51.65 L212.8 -50.75 Q215.55 -50.95 216.3 -52.15 219.4 -59.25 210.5 -63.05 L266.45 -46.9 220.25 -46.25 205.45 -46.05 202.4 -46.0 202.2 -46.65 Q201.8 -48.25 201.85 -49.55 M218.95 -50.95 L244.25 -50.95 Q231.15 -53.95 219.3 -58.1 221.2 -54.6 218.95 -50.95" fill="url(#gradient8)" fill-rule="evenodd" stroke="none"/>
      <path d="M225.1 -38.45 L232.0 -37.25 232.8 -37.1 217.3 -31.7 Q216.15 -30.85 214.05 -30.2 211.0 -29.2 206.1 -28.6 L170.7 -26.75 170.75 -27.15 171.0 -28.45 171.85 -30.75 203.35 -30.8 200.8 -36.3 180.25 -36.4 180.45 -37.0 180.5 -37.75 180.45 -39.25 187.95 -39.3 197.4 -39.4 202.55 -39.5 225.1 -38.45" fill="url(#gradient9)" fill-rule="evenodd" stroke="none"/>
      <path d="M232.8 -37.1 L233.7 -36.9 Q243.05 -34.3 242.2 -29.85 235.5 -20.3 213.25 -15.0 187.7 -9.8 185.15 -6.9 L190.55 -2.05 Q187.05 -0.35 181.85 0.3 L180.1 0.4 Q175.4 0.4 174.9 -7.35 173.95 -14.0 174.95 -17.2 175.25 -18.2 175.8 -18.85 L176.75 -19.65 Q178.7 -20.95 181.6 -22.2 189.85 -25.8 206.1 -28.6 211.0 -29.2 214.05 -30.2 216.15 -30.85 217.3 -31.7 L232.8 -37.1" fill="url(#gradient10)" fill-rule="evenodd" stroke="none"/>
      <path d="M220.25 -46.25 L221.1 -44.3 220.9 -44.25 Q213.8 -41.65 208.15 -41.55 204.6 -41.55 201.75 -42.35 L204.75 -42.4 205.45 -46.05 220.25 -46.25" fill="#ababab" fill-rule="evenodd" stroke="none"/>
      <path d="M4.15 3.7 L-3.2 4.1 -9.65 4.05 Q-8.35 0.85 -8.95 -1.9 L-0.8 1.8 2.5 3.1 4.15 3.7" fill="#663816" fill-rule="evenodd" stroke="none"/>
      <path d="M35.75 -75.0 L35.75 -75.05 34.9 -75.25 34.9 -76.6 46.1 -76.55 46.1 -75.2 45.25 -75.0 45.2 -69.75 44.3 -68.85 62.0 -68.75 83.85 -72.3 94.05 -72.25 94.0 -54.45 83.8 -54.5 61.95 -58.2 56.2 -58.25 56.2 -55.35 56.2 -52.2 58.35 -52.15 60.0 -43.85 68.3 -43.8 67.45 -47.6 72.15 -48.95 72.85 -45.65 77.15 -43.8 79.45 -43.8 Q78.9 -43.9 78.3 -44.15 78.8 -45.1 81.35 -46.65 L73.0 -46.65 73.0 -49.55 81.5 -49.55 Q78.85 -51.25 78.3 -52.2 L80.55 -52.7 91.8 -50.85 98.25 -49.55 99.55 -49.55 Q96.85 -51.25 96.3 -52.2 L98.55 -52.7 109.8 -50.85 116.25 -49.55 201.85 -49.55 Q201.85 -50.7 202.2 -51.65 L212.8 -50.75 Q215.55 -50.95 216.3 -52.15 219.4 -59.25 210.5 -63.05 L266.45 -46.9 220.25 -46.25 221.1 -44.3 221.9 -42.55 225.05 -42.6 225.1 -38.45 232.0 -37.25 232.8 -37.1 233.7 -36.9 Q243.05 -34.3 242.2 -29.85 235.5 -20.3 213.25 -15.0 187.7 -9.8 185.15 -6.9 L190.55 -2.05 Q187.05 -0.35 181.85 0.3 L180.1 0.4 Q175.4 0.4 174.9 -7.35 173.95 -14.0 174.95 -17.2 175.25 -18.2 175.8 -18.85 L176.75 -19.65 Q178.7 -20.95 181.6 -22.2 189.85 -25.8 206.1 -28.6 L170.7 -26.75 124.55 -26.95 114.2 -27.0 Q115.15 -26.1 114.35 -23.4 111.25 -15.45 105.3 -14.4 L97.75 -14.45 90.2 -14.45 82.65 -14.5 75.15 -14.55 72.5 -14.55 Q68.65 -15.7 68.65 -18.55 63.15 -14.55 58.25 -15.3 L54.4 -15.35 Q53.05 -15.05 52.1 -14.25 M50.4 -10.85 L48.8 -5.55 Q42.55 0.6 36.45 -0.6 L36.45 -2.85 Q40.35 -4.4 42.6 -6.4 M35.65 -9.25 L36.25 -7.85 Q36.2 -6.55 35.15 -6.6 M4.15 3.7 L-3.2 4.1 -9.65 4.05 -10.3 5.55 -33.35 5.45 Q-40.45 5.6 -41.55 -0.9 L-40.95 -15.65 M22.5 -45.1 L24.6 -52.35 27.05 -52.3 27.25 -55.45 27.35 -58.35 22.65 -58.4 0.85 -54.8 -7.05 -54.8 -7.0 -72.8 -6.35 -72.8 -5.35 -74.3 -4.1 -74.3 -3.0 -75.4 -3.65 -75.9 5.35 -87.35 6.85 -86.3 -2.35 -74.85 -2.4 -74.3 -1.85 -74.3 -1.35 -72.8 0.9 -72.8 22.7 -68.95 36.6 -68.85 35.7 -69.8 35.75 -75.0 M42.15 -68.1 L42.65 -68.15 Q44.55 -68.15 45.9 -66.8 47.25 -65.4 47.25 -63.5 47.2 -61.6 45.85 -60.3 44.5 -58.95 42.6 -58.95 L42.1 -59.0 41.6 -58.95 Q39.7 -58.95 38.35 -60.3 37.0 -61.65 37.05 -63.55 37.05 -65.45 38.4 -66.8 39.75 -68.15 41.65 -68.15 L42.15 -68.1 Q40.6 -67.95 39.4 -66.8 38.1 -65.45 38.1 -63.55 38.05 -61.65 39.35 -60.3 40.55 -59.15 42.1 -59.0 M49.9 -55.35 L49.7 -52.2 56.2 -52.2 M50.05 -58.25 L49.9 -55.35 M56.2 -58.25 L50.05 -58.25 31.95 -58.35 33.0 -55.45 34.1 -52.3 49.7 -52.2 M61.95 -58.2 L62.0 -68.75 M0.85 -54.8 L0.9 -72.8 M31.95 -58.35 L27.35 -58.35 M22.7 -68.95 L22.65 -58.4 M27.05 -52.3 L34.1 -52.3 M21.95 -43.2 L22.1 -43.65 22.5 -45.1 M60.0 -43.85 L28.55 -44.0 25.6 -43.8 22.7 -43.35 21.95 -43.2 Q18.4 -42.35 16.85 -40.65 16.75 -39.45 17.1 -38.05 M52.55 -15.35 L54.4 -15.35 M29.6 -34.0 Q29.6 -32.85 30.35 -32.0 L30.5 -31.85 31.45 -31.2 32.65 -31.0 59.95 -30.85 Q61.2 -30.85 62.1 -31.7 63.0 -32.6 63.0 -33.85 L62.95 -34.4 Q62.75 -35.3 62.1 -36.0 61.2 -36.85 59.95 -36.85 L32.65 -37.0 31.6 -36.8 30.5 -36.15 Q29.8 -35.45 29.65 -34.55 L29.6 -34.0 M82.25 -43.75 L80.55 -43.65 79.45 -43.8 M77.15 -43.8 L68.3 -43.8 M143.75 -36.55 L72.05 -36.9 68.05 -30.4 134.15 -30.55 171.85 -30.75 203.35 -30.8 M200.8 -36.3 L180.25 -36.4 143.75 -36.55 M147.95 -43.45 L99.3 -43.7 98.4 -43.65 97.7 -43.7 82.25 -43.75 91.8 -45.5 97.65 -46.65 81.35 -46.65 M68.65 -18.55 Q70.2 -19.65 71.7 -21.05 75.8 -26.0 84.2 -26.95 87.55 -27.4 91.6 -27.1 L91.7 -27.1 99.1 -27.1 106.65 -27.05 114.2 -27.0 M36.6 -68.85 L44.3 -68.85 M83.85 -72.3 L83.8 -54.5 M81.5 -49.55 L98.25 -49.55 M99.55 -49.55 L116.25 -49.55 M115.5 -46.65 L109.65 -45.5 Q102.0 -43.95 99.3 -43.7 M99.15 -46.65 L97.65 -46.65 M97.7 -43.7 L96.15 -44.15 Q96.65 -45.1 99.15 -46.65 L115.5 -46.65 202.2 -46.65 Q201.8 -48.25 201.85 -49.55 M91.6 -27.1 L91.65 -27.05 Q92.5 -26.15 91.75 -23.5 88.6 -15.6 82.65 -14.5 M99.1 -27.1 Q100.1 -26.15 99.3 -23.5 96.15 -15.55 90.2 -14.45 M106.65 -27.05 Q107.65 -26.15 106.85 -23.45 103.7 -15.5 97.75 -14.45 M84.2 -26.95 Q84.95 -26.0 84.2 -23.55 81.05 -15.6 75.15 -14.55 M218.95 -50.95 L244.25 -50.95 Q231.15 -53.95 219.3 -58.1 221.2 -54.6 218.95 -50.95 M205.45 -46.05 L202.4 -46.0 202.2 -46.65 M197.4 -39.4 L197.4 -42.25 201.75 -42.35 204.75 -42.4 205.45 -46.05 220.25 -46.25 M147.95 -43.45 L183.5 -43.3 Q186.8 -42.0 187.95 -39.3 L197.4 -39.4 202.55 -39.5 225.1 -38.45 M171.85 -30.75 L171.0 -28.45 170.75 -27.15 170.7 -26.75 M180.25 -36.4 L180.45 -37.0 180.5 -37.75 180.45 -39.25 187.95 -39.3 M217.3 -31.7 Q216.15 -30.85 214.05 -30.2 211.0 -29.2 206.1 -28.6 M-8.95 -1.9 Q-8.35 0.85 -9.65 4.05 M-2.35 -74.85 L-3.0 -75.4 M-4.1 -74.3 L-2.4 -74.3 M-6.35 -72.8 L-1.35 -72.8" fill="none" stroke="#000000" stroke-linecap="round" stroke-linejoin="round" stroke-opacity="0.5019608" stroke-width="1.0"/>
      <path d="M143.75 -36.55 Q146.85 -39.6 147.95 -43.45 M124.55 -26.95 L127.05 -27.8 Q129.05 -28.45 132.4 -29.85 L134.15 -30.55" fill="none" stroke="#000000" stroke-linecap="round" stroke-linejoin="round" stroke-opacity="0.2" stroke-width="1.0"/>
      <path d="M-30.05 -30.9 Q-28.5 -30.9 -27.4 -29.75 -26.3 -28.65 -26.3 -27.1 -26.3 -25.55 -27.4 -24.45 -28.5 -23.4 -30.05 -23.4 -31.6 -23.4 -32.7 -24.5 -33.8 -25.6 -33.8 -27.15 -33.8 -28.7 -32.7 -29.8 -31.6 -30.9 -30.05 -30.9" fill="#737373" fill-rule="evenodd" stroke="none"/>
      <path d="M-30.05 -30.9 Q-28.5 -30.9 -27.4 -29.75 -26.3 -28.65 -26.3 -27.1 -26.3 -25.55 -27.4 -24.45 -28.5 -23.4 -30.05 -23.4 -31.6 -23.4 -32.7 -24.5 -33.8 -25.6 -33.8 -27.15 -33.8 -28.7 -32.7 -29.8 -31.6 -30.9 -30.05 -30.9 Z" fill="none" stroke="#000000" stroke-linecap="round" stroke-linejoin="round" stroke-opacity="0.5019608" stroke-width="1.0"/>
      <path d="M-13.75 -1.2 Q-13.75 -0.25 -14.4 0.4 -15.05 1.05 -16.0 1.05 -16.95 1.0 -17.65 0.35 -18.3 -0.3 -18.3 -1.25 -18.3 -2.2 -17.65 -2.9 -16.95 -3.55 -16.0 -3.5 -15.05 -3.5 -14.4 -2.85 -13.75 -2.15 -13.75 -1.2" fill="#737373" fill-rule="evenodd" stroke="none"/>
      <path d="M-13.75 -1.2 Q-13.75 -0.25 -14.4 0.4 -15.05 1.05 -16.0 1.05 -16.95 1.0 -17.65 0.35 -18.3 -0.3 -18.3 -1.25 -18.3 -2.2 -17.65 -2.9 -16.95 -3.55 -16.0 -3.5 -15.05 -3.5 -14.4 -2.85 -13.75 -2.15 -13.75 -1.2 Z" fill="none" stroke="#000000" stroke-linecap="round" stroke-linejoin="round" stroke-opacity="0.5019608" stroke-width="1.0"/>
      <path d="M99.1 -20.75 Q99.75 -23.15 102.2 -24.9 L103.3 -25.6 105.65 -25.9 106.3 -25.85 Q106.15 -24.75 106.15 -22.65 L106.6 -19.5 106.75 -18.9 107.3 -17.0 108.35 -14.2 109.05 -13.4 109.0 -12.95 109.0 -12.9 Q108.4 -11.05 105.3 -11.05 L104.35 -11.1 103.45 -12.05 Q102.3 -13.45 101.4 -15.55 L100.9 -17.4 100.4 -19.25 Q100.05 -20.15 99.1 -20.75 M117.2 -26.7 L117.0 -25.5 117.0 -23.2 117.05 -22.45 Q117.2 -19.65 117.7 -16.8 L117.75 -16.4 Q118.05 -14.6 118.75 -13.6 L118.65 -13.5 115.85 -13.15 114.45 -13.2 113.25 -13.15 Q111.75 -13.25 110.6 -14.2 L108.7 -17.35 108.05 -18.9 Q107.4 -21.85 107.4 -22.75 107.4 -25.45 108.2 -27.3 L108.65 -28.05 Q110.85 -30.75 113.35 -30.65 L114.65 -28.7 Q115.9 -26.75 117.2 -26.7 M126.4 -12.05 L125.85 -12.05 Q121.75 -12.05 120.0 -13.7 L119.9 -13.9 119.8 -13.95 119.2 -14.85 Q118.75 -15.75 118.7 -16.8 L118.2 -23.2 118.15 -25.4 Q118.15 -26.65 118.85 -27.7 L119.95 -28.8 126.0 -29.35 126.5 -27.05 Q126.9 -23.9 126.9 -17.9 126.9 -14.55 126.7 -13.45 L126.4 -12.05" fill="#999999" fill-rule="evenodd" stroke="none"/>
      <path d="M107.3 -28.65 Q109.25 -31.75 112.3 -31.95 L115.15 -31.6 116.8 -31.05 117.25 -30.7 118.0 -29.7 118.4 -29.15 118.5 -29.1 119.6 -29.7 119.95 -29.8 Q122.65 -30.6 125.4 -30.6 L125.6 -30.6 Q127.25 -30.5 127.9 -29.95 L129.0 -28.75 129.5 -27.8 Q130.65 -24.65 130.65 -21.7 L131.15 -15.75 Q131.15 -12.75 129.7 -11.65 128.6 -10.75 125.95 -10.75 L125.85 -10.75 Q121.75 -10.75 119.65 -12.6 L119.05 -12.25 115.85 -11.8 Q112.55 -11.8 110.5 -12.65 109.85 -9.8 105.85 -9.65 L105.35 -9.65 Q100.05 -9.65 98.4 -14.35 L98.2 -15.9 97.95 -18.25 Q97.8 -19.9 98.1 -21.25 98.85 -25.4 103.3 -26.7 L106.4 -26.4 Q106.65 -27.5 107.3 -28.65 M104.35 -11.1 L105.3 -11.05 Q108.4 -11.05 109.0 -12.9 L109.0 -12.95 109.05 -13.4 108.35 -14.2 107.3 -17.0 106.75 -18.9 106.6 -19.5 106.15 -22.65 Q106.15 -24.75 106.3 -25.85 L105.65 -25.9 103.3 -25.6 102.2 -24.9 Q99.75 -23.15 99.1 -20.75 98.45 -18.6 99.2 -15.9 99.5 -14.2 100.15 -13.2 101.4 -11.35 104.35 -11.1 M113.35 -30.65 Q110.85 -30.75 108.65 -28.05 L108.2 -27.3 Q107.4 -25.45 107.4 -22.75 107.4 -21.85 108.05 -18.9 L108.7 -17.35 110.6 -14.2 Q111.75 -13.25 113.25 -13.15 L114.45 -13.2 115.85 -13.15 118.65 -13.5 118.75 -13.6 Q118.05 -14.6 117.75 -16.4 L117.7 -16.8 Q117.2 -19.65 117.05 -22.45 L117.0 -23.2 117.0 -25.5 117.2 -26.7 117.25 -26.95 117.05 -28.6 116.8 -29.35 Q115.0 -30.6 113.35 -30.65 M126.0 -29.35 L119.95 -28.8 118.85 -27.7 Q118.15 -26.65 118.15 -25.4 L118.2 -23.2 118.7 -16.8 Q118.75 -15.75 119.2 -14.85 L119.8 -13.95 119.9 -13.9 120.0 -13.7 Q121.75 -12.05 125.85 -12.05 L126.4 -12.05 Q128.7 -12.2 129.55 -13.75 L129.9 -15.55 130.0 -20.35 Q130.0 -22.9 129.25 -25.15 L128.55 -27.1 127.6 -29.1 126.0 -29.35" fill="#000000" fill-rule="evenodd" stroke="none"/>
      <path d="M99.1 -20.75 Q100.05 -20.15 100.4 -19.25 L100.9 -17.4 101.4 -15.55 Q102.3 -13.45 103.45 -12.05 L104.35 -11.1 Q101.4 -11.35 100.15 -13.2 99.5 -14.2 99.2 -15.9 98.45 -18.6 99.1 -20.75 M117.2 -26.7 Q115.9 -26.75 114.65 -28.7 L113.35 -30.65 Q115.0 -30.6 116.8 -29.35 L117.05 -28.6 117.25 -26.95 117.2 -26.7 M126.4 -12.05 L126.7 -13.45 Q126.9 -14.55 126.9 -17.9 126.9 -23.9 126.5 -27.05 L126.0 -29.35 127.6 -29.1 128.55 -27.1 129.25 -25.15 Q130.0 -22.9 130.0 -20.35 L129.9 -15.55 129.55 -13.75 Q128.7 -12.2 126.4 -12.05" fill="#bdbdbd" fill-rule="evenodd" stroke="none"/>
    </g>
    <linearGradient gradientTransform="matrix(0.0, -0.0026, 0.0064, 0.0, 42.45, -66.45)" gradientUnits="userSpaceOnUse" id="gradient0" spreadMethod="pad" x1="-819.2" x2="819.2">
      <stop offset="0.00784313725490196" stop-color="#333333"/>
      <stop offset="0.9803921568627451" stop-color="#5c5c5c"/>
    </linearGradient>
    <linearGradient gradientTransform="matrix(0.0069, 0.0, 0.0, 0.0047, 40.45, -72.7)" gradientUnits="userSpaceOnUse" id="gradient1" spreadMethod="pad" x1="-819.2" x2="819.2">
      <stop offset="0.0" stop-color="#242424"/>
      <stop offset="0.9803921568627451" stop-color="#404040"/>
    </linearGradient>
    <linearGradient gradientTransform="matrix(0.0232, 1.0E-4, 0.0, 0.0056, 40.95, -47.7)" gradientUnits="userSpaceOnUse" id="gradient2" spreadMethod="pad" x1="-819.2" x2="819.2">
      <stop offset="0.0" stop-color="#424242"/>
      <stop offset="0.9803921568627451" stop-color="#6b6b6b"/>
    </linearGradient>
    <linearGradient gradientTransform="matrix(0.0, -0.0085, 0.0109, 0.0, 72.95, -63.45)" gradientUnits="userSpaceOnUse" id="gradient3" spreadMethod="pad" x1="-819.2" x2="819.2">
      <stop offset="0.00784313725490196" stop-color="#333333"/>
      <stop offset="0.9803921568627451" stop-color="#5c5c5c"/>
    </linearGradient>
    <linearGradient gradientTransform="matrix(0.0, -0.0062, 0.0109, 0.0, 89.3, -68.1)" gradientUnits="userSpaceOnUse" id="gradient4" spreadMethod="pad" x1="-819.2" x2="819.2">
      <stop offset="0.00784313725490196" stop-color="#333333"/>
      <stop offset="0.9803921568627451" stop-color="#5c5c5c"/>
    </linearGradient>
    <linearGradient gradientTransform="matrix(1.0E-4, -0.0229, 0.0271, 1.0E-4, 61.95, -21.6)" gradientUnits="userSpaceOnUse" id="gradient5" spreadMethod="pad" x1="-819.2" x2="819.2">
      <stop offset="0.0" stop-color="#6e3f10"/>
      <stop offset="1.0" stop-color="#99632c"/>
    </linearGradient>
    <linearGradient gradientTransform="matrix(0.078, 4.0E-4, 0.0, 0.0042, 135.7, -33.5)" gradientUnits="userSpaceOnUse" id="gradient6" spreadMethod="pad" x1="-819.2" x2="819.2">
      <stop offset="0.0" stop-color="#5e5e5e"/>
      <stop offset="0.8549019607843137" stop-color="#9c9c9c"/>
      <stop offset="1.0" stop-color="#4b4b4b"/>
    </linearGradient>
    <linearGradient gradientTransform="matrix(0.0, 0.006, -0.0077, 0.0, 106.5, -21.3)" gradientUnits="userSpaceOnUse" id="gradient7" spreadMethod="pad" x1="-819.2" x2="819.2">
      <stop offset="0.0" stop-color="#4d3013"/>
      <stop offset="0.19215686274509805" stop-color="#694017"/>
      <stop offset="0.9803921568627451" stop-color="#472004"/>
    </linearGradient>
    <linearGradient gradientTransform="matrix(9.0E-4, -0.0062, 0.0103, 0.0015, 232.85, -50.8)" gradientUnits="userSpaceOnUse" id="gradient8" spreadMethod="pad" x1="-819.2" x2="819.2">
      <stop offset="0.0" stop-color="#9c9c9c"/>
      <stop offset="1.0" stop-color="#e0e0e0"/>
    </linearGradient>
    <linearGradient gradientTransform="matrix(0.0155, -2.0E-4, 1.0E-4, 0.0076, 184.05, -34.15)" gradientUnits="userSpaceOnUse" id="gradient9" spreadMethod="pad" x1="-819.2" x2="819.2">
      <stop offset="0.0" stop-color="#262626"/>
      <stop offset="0.9725490196078431" stop-color="#4b4b4b"/>
    </linearGradient>
    <linearGradient gradientTransform="matrix(-2.0E-4, -0.0173, 0.0359, -4.0E-4, 93.95, -21.9)" gradientUnits="userSpaceOnUse" id="gradient10" spreadMethod="pad" x1="-819.2" x2="819.2">
      <stop offset="0.0" stop-color="#262626"/>
      <stop offset="0.9725490196078431" stop-color="#525252"/>
    </linearGradient>
  </defs>
</svg>
