<?xml version="1.0" encoding="UTF-8" standalone="no"?>
<svg xmlns:xlink="http://www.w3.org/1999/xlink" height="531.5px" width="460.6px" xmlns="http://www.w3.org/2000/svg">
  <g transform="matrix(1.0, 0.0, 0.0, 1.0, 193.65, 334.05)">
    <use height="190.6" transform="matrix(1.0, 0.0, 0.0, 1.0, -49.25, -130.5)" width="151.15" xlink:href="#shape0"/>
  </g>
  <defs>
    <g id="shape0" transform="matrix(1.0, 0.0, 0.0, 1.0, 49.25, 130.5)">
      <path d="M38.05 -119.3 L43.65 -130.0 58.65 -116.15 58.6 -109.65 62.6 -112.95 83.85 -92.4 Q77.8 -90.0 71.8 -88.05 63.35 -85.35 54.9 -83.5 42.45 -80.85 29.95 -80.05 L22.9 -79.75 Q24.6 -82.35 26.25 -85.9 L28.9 -92.15 Q31.6 -98.8 38.05 -119.3 M72.75 -83.3 L75.2 -70.55 68.0 -63.85 Q54.15 -51.95 37.0 -44.15 L32.15 -68.95 Q33.55 -70.45 35.65 -71.9 41.6 -75.95 51.45 -78.0 L57.3 -79.25 67.35 -81.8 72.75 -83.3 M75.5 -68.9 L81.3 -40.6 Q75.1 -30.45 61.3 -23.15 L55.5 -22.9 46.75 -23.6 40.7 -24.75 37.25 -42.8 Q42.05 -44.4 54.8 -53.2 61.8 -57.95 68.5 -63.25 L75.5 -68.9 M81.75 -38.7 L82.75 -33.65 Q77.45 -28.1 70.45 -25.4 L68.45 -24.7 Q72.3 -27.95 77.7 -33.95 L81.75 -38.7" fill="#b30000" fill-rule="evenodd" stroke="none"/>
      <path d="M71.8 -88.05 L72.75 -83.3 67.35 -81.8 57.3 -79.25 51.45 -78.0 Q41.6 -75.95 35.65 -71.9 33.55 -70.45 32.15 -68.95 L29.95 -80.05 Q42.45 -80.85 54.9 -83.5 63.35 -85.35 71.8 -88.05 M75.2 -70.55 L75.5 -68.9 68.5 -63.25 Q61.8 -57.95 54.8 -53.2 42.05 -44.4 37.25 -42.8 L37.0 -44.15 Q54.15 -51.95 68.0 -63.85 L75.2 -70.55 M81.3 -40.6 L81.75 -38.7 77.7 -33.95 Q72.3 -27.95 68.45 -24.7 65.1 -23.65 61.3 -23.15 75.1 -30.45 81.3 -40.6" fill="#760101" fill-rule="evenodd" stroke="none"/>
      <path d="M22.9 -79.75 L17.1 -79.75 38.05 -119.3 Q31.6 -98.8 28.9 -92.15 L26.25 -85.9 Q24.6 -82.35 22.9 -79.75" fill="#8f0101" fill-rule="evenodd" stroke="none"/>
      <path d="M35.2 -0.1 Q33.25 -1.3 33.85 -2.75 L33.95 -2.75 35.05 -2.6 37.7 -3.2 Q38.1 -1.3 36.95 -0.6 L35.2 -0.1 M29.1 -4.65 L28.8 -5.1 Q28.45 -5.7 28.25 -6.45 28.65 -7.6 30.8 -8.35 L31.7 -8.25 34.1 -8.1 34.3 -7.25 31.95 -5.9 29.1 -4.65 M29.1 -10.2 L28.55 -10.85 29.8 -13.7 Q32.6 -15.75 39.85 -14.3 L40.15 -14.6 42.3 -16.55 44.55 -18.55 45.3 -19.65 46.0 -19.8 46.85 -19.45 46.95 -18.9 Q47.35 -17.1 46.25 -15.35 44.6 -16.3 42.3 -16.55 44.6 -16.3 46.25 -15.35 L45.5 -14.4 Q44.1 -12.75 42.0 -11.9 40.95 -11.45 39.7 -11.25 L35.45 -11.15 30.9 -11.0 Q30.15 -10.85 29.1 -10.2 M40.15 -14.6 L42.0 -11.9 40.15 -14.6" fill="#f8dfa9" fill-rule="evenodd" stroke="none"/>
      <path d="M55.0 -17.9 L54.6 -16.1 Q53.45 -12.2 50.1 -8.6 47.85 -6.25 42.7 -4.95 41.4 -4.15 41.35 -3.0 41.3 -1.9 40.55 -0.65 39.8 0.55 37.6 0.95 L35.2 -0.1 36.95 -0.6 Q38.1 -1.3 37.7 -3.2 L35.05 -2.6 33.95 -2.75 33.85 -2.75 31.85 -2.0 Q30.05 -3.15 29.1 -4.65 L31.95 -5.9 34.3 -7.25 34.1 -8.1 31.7 -8.25 30.8 -8.35 31.25 -8.5 29.1 -10.2 Q30.15 -10.85 30.9 -11.0 L35.45 -11.15 39.7 -11.25 Q40.95 -11.45 42.0 -11.9 44.1 -12.75 45.5 -14.4 L46.25 -15.35 Q47.35 -17.1 46.95 -18.9 L46.85 -19.45 48.7 -18.85 Q50.95 -18.15 53.35 -18.0 L54.6 -16.1 53.35 -18.0 55.0 -17.9 M45.3 -19.65 L45.55 -20.05 46.0 -19.8 45.3 -19.65 M32.8 -8.9 L31.25 -8.5 32.8 -8.9 M34.25 -8.85 L33.75 -8.75 34.25 -8.85 M35.2 -3.6 L33.95 -2.75 35.2 -3.6 M50.1 -8.6 Q49.55 -13.45 46.25 -15.35 49.55 -13.45 50.1 -8.6 M43.85 -5.75 Q44.35 -8.05 42.0 -11.9 44.35 -8.05 43.85 -5.75" fill="#f2d773" fill-rule="evenodd" stroke="none"/>
      <path d="M55.5 -22.9 Q55.45 -20.25 55.0 -17.9 L53.35 -18.0 Q50.95 -18.15 48.7 -18.85 L46.85 -19.45 46.0 -19.8 46.65 -19.95 Q50.85 -20.65 53.35 -18.0 50.85 -20.65 46.65 -19.95 L46.0 -19.8 45.55 -20.05 46.0 -20.95 Q46.7 -22.45 46.75 -23.6 L55.5 -22.9" fill="#f0c360" fill-rule="evenodd" stroke="none"/>
      <path d="M82.75 -33.65 L83.85 -28.15 82.0 -27.2 Q77.05 -24.85 73.95 -24.25 L73.45 -24.15 71.25 -23.9 70.75 -23.8 70.45 -25.4 Q71.85 -24.6 73.45 -24.15 71.85 -24.6 70.45 -25.4 77.45 -28.1 82.75 -33.65" fill="#c4c4c4" fill-rule="evenodd" stroke="none"/>
      <path d="M83.85 -28.15 L84.45 -24.8 84.85 -22.85 Q82.35 -20.15 79.25 -19.4 75.7 -18.6 71.45 -20.25 L70.75 -23.8 71.25 -23.9 73.45 -24.15 Q78.35 -22.7 84.45 -24.8 78.35 -22.7 73.45 -24.15 L73.95 -24.25 Q77.05 -24.85 82.0 -27.2 L83.85 -28.15" fill="#ffffff" fill-rule="evenodd" stroke="none"/>
      <path d="M84.85 -22.85 L86.2 -15.25 Q85.05 -14.7 83.9 -14.45 L80.2 -14.6 79.25 -19.4 Q82.35 -20.15 84.85 -22.85" fill="#6c4f0b" fill-rule="evenodd" stroke="none"/>
      <path d="M86.2 -15.25 L96.15 40.75 99.0 50.45 Q102.85 58.15 100.45 59.5 95.35 60.05 92.75 55.5 L91.6 41.8 Q89.05 40.2 88.7 35.55 L89.25 29.0 80.2 -14.6 83.9 -14.45 Q85.05 -14.7 86.2 -15.25" fill="#946b0e" fill-rule="evenodd" stroke="none"/>
      <path d="M38.05 -119.3 L43.65 -130.0 58.65 -116.15 58.6 -109.65 62.6 -112.95 83.85 -92.4 Q77.8 -90.0 71.8 -88.05 L72.75 -83.3 75.2 -70.55 75.5 -68.9 81.3 -40.6 81.75 -38.7 82.75 -33.65 83.85 -28.15 84.45 -24.8 84.85 -22.85 86.2 -15.25 96.15 40.75 99.0 50.45 Q102.85 58.15 100.45 59.5 95.35 60.05 92.75 55.5 L91.6 41.8 Q89.05 40.2 88.7 35.55 L89.25 29.0 80.2 -14.6 79.25 -19.4 Q75.7 -18.6 71.45 -20.25 L70.75 -23.8 70.45 -25.4 68.45 -24.7 Q65.1 -23.65 61.3 -23.15 L55.5 -22.9 Q55.45 -20.25 55.0 -17.9 L54.6 -16.1 Q53.45 -12.2 50.1 -8.6 47.85 -6.25 42.7 -4.95 41.4 -4.15 41.35 -3.0 41.3 -1.9 40.55 -0.65 39.8 0.55 37.6 0.95 L35.2 -0.1 Q33.25 -1.3 33.85 -2.75 L31.85 -2.0 Q30.05 -3.15 29.1 -4.65 L28.8 -5.1 Q28.45 -5.7 28.25 -6.45 28.65 -7.6 30.8 -8.35 L31.25 -8.5 29.1 -10.2 28.55 -10.85 29.8 -13.7 Q32.6 -15.75 39.85 -14.3 L40.15 -14.6 42.3 -16.55 44.55 -18.55 45.3 -19.65 45.55 -20.05 46.0 -20.95 Q46.7 -22.45 46.75 -23.6 L40.7 -24.75 37.25 -42.8 37.0 -44.15 32.15 -68.95 29.95 -80.05 22.9 -79.75 17.1 -79.75 38.05 -119.3 M37.0 -44.15 Q54.15 -51.95 68.0 -63.85 L75.2 -70.55 M71.8 -88.05 Q63.35 -85.35 54.9 -83.5 42.45 -80.85 29.95 -80.05 M42.0 -11.9 L40.15 -14.6 M33.75 -8.75 L34.25 -8.85 M31.25 -8.5 L32.8 -8.9 M33.95 -2.75 L33.85 -2.75 M33.95 -2.75 L35.2 -3.6 M54.6 -16.1 L53.35 -18.0 Q50.85 -20.65 46.65 -19.95 L46.0 -19.8 45.3 -19.65 M46.25 -15.35 Q49.55 -13.45 50.1 -8.6 M46.25 -15.35 Q44.6 -16.3 42.3 -16.55 M42.0 -11.9 Q44.35 -8.05 43.85 -5.75 M46.75 -23.6 L55.5 -22.9 M73.45 -24.15 Q71.85 -24.6 70.45 -25.4 77.45 -28.1 82.75 -33.65 M61.3 -23.15 Q75.1 -30.45 81.3 -40.6 M84.45 -24.8 Q78.35 -22.7 73.45 -24.15 M79.25 -19.4 Q82.35 -20.15 84.85 -22.85" fill="none" stroke="#000000" stroke-linecap="round" stroke-linejoin="round" stroke-width="1.0"/>
      <path d="M38.1 -119.3 L43.7 -130.0 58.7 -116.2 58.6 -109.65 62.65 -112.95 83.85 -92.4 Q77.85 -90.0 71.8 -88.05 63.4 -85.35 54.95 -83.5 42.5 -80.8 30.0 -80.0 L22.95 -79.75 Q24.6 -82.35 26.25 -85.9 27.65 -88.75 28.95 -92.15 31.6 -98.85 38.1 -119.3" fill="#db2020" fill-rule="evenodd" stroke="none"/>
      <path d="M71.8 -88.05 L72.7 -83.3 67.35 -81.75 57.3 -79.25 51.5 -78.0 Q41.6 -75.9 35.7 -71.95 33.6 -70.5 32.2 -68.95 L30.0 -80.0 Q42.5 -80.8 54.95 -83.5 63.4 -85.35 71.8 -88.05 M75.2 -70.5 L75.55 -68.9 68.55 -63.25 Q61.85 -58.0 54.8 -53.15 42.1 -44.4 37.25 -42.8 L37.0 -44.15 Q54.1 -52.0 67.95 -63.85 L75.2 -70.5 M81.35 -40.65 L81.8 -38.65 77.7 -34.0 Q72.35 -27.95 68.5 -24.75 65.15 -23.65 61.35 -23.2 75.1 -30.4 81.35 -40.65" fill="#760101" fill-rule="evenodd" stroke="none"/>
      <path d="M72.7 -83.3 L75.2 -70.5 67.95 -63.85 Q54.1 -52.0 37.0 -44.15 L32.2 -68.95 Q33.6 -70.5 35.7 -71.95 41.6 -75.9 51.5 -78.0 L57.3 -79.25 67.35 -81.75 72.7 -83.3 M75.55 -68.9 L81.35 -40.65 Q75.1 -30.4 61.35 -23.2 L55.45 -22.9 46.8 -23.55 40.75 -24.75 37.25 -42.8 Q42.1 -44.4 54.8 -53.15 61.85 -58.0 68.55 -63.25 L75.55 -68.9 M81.8 -38.65 L82.8 -33.65 Q77.5 -28.15 70.5 -25.45 L68.5 -24.75 Q72.35 -27.95 77.7 -34.0 L81.8 -38.65" fill="#b30000" fill-rule="evenodd" stroke="none"/>
      <path d="M22.95 -79.75 L17.15 -79.7 38.1 -119.3 Q31.6 -98.85 28.95 -92.15 27.65 -88.75 26.25 -85.9 24.6 -82.35 22.95 -79.75" fill="#ad2020" fill-rule="evenodd" stroke="none"/>
      <path d="M35.25 -0.05 Q33.3 -1.3 33.9 -2.7 L34.0 -2.8 35.0 -2.6 37.75 -3.2 Q38.1 -1.25 37.0 -0.55 L35.25 -0.05 M29.15 -4.6 L28.85 -5.05 28.25 -6.4 Q28.65 -7.6 30.85 -8.35 L31.75 -8.25 34.15 -8.1 34.3 -7.25 Q33.95 -6.8 32.0 -5.95 L29.15 -4.6 M29.15 -10.15 L28.6 -10.8 29.8 -13.7 Q32.65 -15.75 39.9 -14.35 L40.15 -14.55 42.35 -16.55 44.6 -18.5 45.3 -19.65 46.0 -19.85 46.9 -19.5 47.0 -18.95 Q47.35 -17.1 46.3 -15.3 L45.55 -14.4 Q44.15 -12.75 42.05 -11.85 L39.75 -11.2 35.5 -11.1 30.95 -11.0 Q30.2 -10.85 29.15 -10.15 M40.15 -14.55 L42.05 -11.85 40.15 -14.55 M42.35 -16.55 Q44.6 -16.3 46.3 -15.3 44.6 -16.3 42.35 -16.55" fill="#f8dfa9" fill-rule="evenodd" stroke="none"/>
      <path d="M55.05 -17.9 L54.65 -16.1 Q53.5 -12.2 50.15 -8.6 47.9 -6.25 42.75 -4.95 41.45 -4.1 41.35 -3.0 41.3 -1.85 40.5 -0.7 39.8 0.5 37.6 0.95 36.15 0.5 35.25 -0.05 L37.0 -0.55 Q38.1 -1.25 37.75 -3.2 L35.0 -2.6 34.0 -2.8 35.25 -3.6 34.0 -2.8 33.9 -2.7 31.85 -2.0 Q30.1 -3.1 29.15 -4.6 L32.0 -5.95 Q33.95 -6.8 34.3 -7.25 L34.15 -8.1 31.75 -8.25 30.85 -8.35 31.3 -8.5 29.15 -10.15 Q30.2 -10.85 30.95 -11.0 L35.5 -11.1 39.75 -11.2 42.05 -11.85 Q44.15 -12.75 45.55 -14.4 L46.3 -15.3 Q47.35 -17.1 47.0 -18.95 L46.9 -19.5 48.75 -18.8 53.35 -17.95 54.65 -16.1 53.35 -17.95 55.05 -17.9 M45.3 -19.65 L45.6 -20.05 46.0 -19.85 45.3 -19.65 M34.2 -8.85 L33.75 -8.75 34.2 -8.85 M32.8 -8.9 L31.3 -8.5 32.8 -8.9 M50.15 -8.6 Q49.55 -13.4 46.3 -15.3 49.55 -13.4 50.15 -8.6 M43.9 -5.75 Q44.4 -8.05 42.05 -11.85 44.4 -8.05 43.9 -5.75" fill="#f2d773" fill-rule="evenodd" stroke="none"/>
      <path d="M55.45 -22.9 Q55.45 -20.2 55.05 -17.9 L53.35 -17.95 48.75 -18.8 46.9 -19.5 46.0 -19.85 46.65 -19.95 Q50.9 -20.6 53.35 -17.95 50.9 -20.6 46.65 -19.95 L46.0 -19.85 45.6 -20.05 46.05 -20.95 Q46.75 -22.4 46.8 -23.55 L55.45 -22.9" fill="#f0c360" fill-rule="evenodd" stroke="none"/>
      <path d="M82.8 -33.65 L83.85 -28.15 82.0 -27.2 Q77.1 -24.85 74.0 -24.25 L73.5 -24.15 71.3 -23.9 70.8 -23.85 70.5 -25.45 Q71.9 -24.6 73.5 -24.15 71.9 -24.6 70.5 -25.45 77.5 -28.15 82.8 -33.65" fill="#c4c4c4" fill-rule="evenodd" stroke="none"/>
      <path d="M83.85 -28.15 L84.5 -24.8 84.9 -22.8 Q82.4 -20.1 79.25 -19.4 75.75 -18.6 71.5 -20.25 L70.8 -23.85 71.3 -23.9 73.5 -24.15 Q78.3 -22.75 84.5 -24.8 78.3 -22.75 73.5 -24.15 L74.0 -24.25 Q77.1 -24.85 82.0 -27.2 L83.85 -28.15" fill="#ffffff" fill-rule="evenodd" stroke="none"/>
      <path d="M84.9 -22.8 L86.25 -15.3 Q85.1 -14.7 83.95 -14.5 82.3 -14.15 80.25 -14.55 L79.25 -19.4 Q82.4 -20.1 84.9 -22.8" fill="#663300" fill-rule="evenodd" stroke="none"/>
      <path d="M86.25 -15.3 L96.2 40.75 99.0 50.5 Q102.9 58.15 100.45 59.55 95.35 60.05 92.7 55.55 L91.65 41.85 Q89.1 40.15 88.65 35.5 L89.3 29.05 80.25 -14.55 Q82.3 -14.15 83.95 -14.5 85.1 -14.7 86.25 -15.3" fill="#995816" fill-rule="evenodd" stroke="none"/>
      <path d="M38.1 -119.3 L43.7 -130.0 58.7 -116.2 58.6 -109.65 62.65 -112.95 83.85 -92.4 Q77.85 -90.0 71.8 -88.05 L72.7 -83.3 75.2 -70.5 75.55 -68.9 81.35 -40.65 81.8 -38.65 82.8 -33.65 83.85 -28.15 84.5 -24.8 84.9 -22.8 86.25 -15.3 96.2 40.75 99.0 50.5 Q102.9 58.15 100.45 59.55 95.35 60.05 92.7 55.55 L91.65 41.85 Q89.1 40.15 88.65 35.5 L89.3 29.05 80.25 -14.55 79.25 -19.4 Q75.75 -18.6 71.5 -20.25 L70.8 -23.85 70.5 -25.45 68.5 -24.75 Q65.15 -23.65 61.35 -23.2 L55.45 -22.9 Q55.45 -20.2 55.05 -17.9 L54.65 -16.1 Q53.5 -12.2 50.15 -8.6 47.9 -6.25 42.75 -4.95 41.45 -4.1 41.35 -3.0 41.3 -1.85 40.5 -0.7 39.8 0.5 37.6 0.95 36.15 0.5 35.25 -0.05 33.3 -1.3 33.9 -2.7 L31.85 -2.0 Q30.1 -3.1 29.15 -4.6 L28.85 -5.05 28.25 -6.4 Q28.65 -7.6 30.85 -8.35 L31.3 -8.5 29.15 -10.15 28.6 -10.8 29.8 -13.7 Q32.65 -15.75 39.9 -14.35 L40.15 -14.55 42.35 -16.55 44.6 -18.5 45.3 -19.65 45.6 -20.05 46.05 -20.95 Q46.75 -22.4 46.8 -23.55 L40.75 -24.75 37.25 -42.8 37.0 -44.15 32.2 -68.95 30.0 -80.0 22.95 -79.75 17.15 -79.7 38.1 -119.3 M37.0 -44.15 Q54.1 -52.0 67.95 -63.85 L75.2 -70.5 M71.8 -88.05 Q63.4 -85.35 54.95 -83.5 42.5 -80.8 30.0 -80.0 M42.05 -11.85 L40.15 -14.55 M33.75 -8.75 L34.2 -8.85 M31.3 -8.5 L32.8 -8.9 M34.0 -2.8 L35.25 -3.6 M34.0 -2.8 L33.9 -2.7 M54.65 -16.1 L53.35 -17.95 Q50.9 -20.6 46.65 -19.95 L46.0 -19.85 45.3 -19.65 M46.3 -15.3 Q49.55 -13.4 50.15 -8.6 M46.3 -15.3 Q44.6 -16.3 42.35 -16.55 M42.05 -11.85 Q44.4 -8.05 43.9 -5.75 M46.8 -23.55 L55.45 -22.9 M73.5 -24.15 Q71.9 -24.6 70.5 -25.45 77.5 -28.15 82.8 -33.65 M61.35 -23.2 Q75.1 -30.4 81.35 -40.65 M84.5 -24.8 Q78.3 -22.75 73.5 -24.15 M79.25 -19.4 Q82.4 -20.1 84.9 -22.8" fill="none" stroke="#000000" stroke-linecap="round" stroke-linejoin="round" stroke-opacity="0.5019608" stroke-width="1.0"/>
      <path d="M74.55 -43.55 L75.7 -40.85 75.75 -38.95 Q75.8 -36.9 75.45 -36.35 75.1 -35.7 74.15 -35.0 L74.15 -44.65 74.55 -43.55" fill="#000000" fill-rule="evenodd" stroke="none"/>
      <path d="M53.2 -41.7 L52.85 -41.85 Q52.25 -42.3 52.25 -43.25 52.25 -44.95 54.4 -46.05 55.45 -46.6 59.25 -47.8 62.1 -48.75 63.8 -49.9 66.15 -51.55 66.2 -53.75 L66.25 -54.55 Q66.25 -55.5 65.65 -57.05 64.8 -58.9 63.85 -58.95 L60.55 -58.8 59.6 -58.7 Q54.2 -58.3 48.75 -57.0 42.55 -55.5 39.65 -55.25 L38.55 -55.15 Q35.2 -55.15 34.05 -56.95 33.45 -58.0 32.95 -60.0 L31.4 -62.7 31.05 -63.35 31.0 -63.35 30.5 -63.85 30.15 -63.85 28.75 -63.65 26.1 -62.75 25.05 -62.1 24.75 -61.95 Q24.45 -61.65 24.45 -61.15 L24.5 -59.65 24.45 -59.0 Q24.3 -57.7 21.65 -55.55 19.1 -53.45 8.8 -51.7 L6.95 -51.4 -5.7 -50.85 Q-9.95 -51.7 -15.1 -53.1 -20.2 -54.55 -22.5 -56.45 L-26.65 -58.8 -28.4 -60.15 -29.15 -60.65 -30.3 -61.8 Q-31.05 -62.75 -30.95 -63.85 L-30.55 -64.0 -27.8 -62.6 -27.3 -62.3 -21.3 -58.95 Q-11.25 -53.7 -4.2 -53.75 2.95 -53.8 8.65 -55.1 L16.1 -57.0 19.3 -57.85 Q20.35 -58.35 20.8 -59.0 L21.05 -61.25 21.05 -61.3 Q21.35 -64.5 27.15 -66.35 30.2 -67.4 31.7 -66.95 L31.75 -66.9 Q32.75 -66.55 32.9 -65.4 L35.25 -61.5 Q37.25 -57.9 38.35 -57.9 L46.75 -59.55 Q53.0 -61.0 58.2 -61.45 L58.55 -61.45 59.95 -61.6 Q65.8 -62.0 67.7 -59.7 69.2 -57.85 69.25 -52.1 69.25 -51.25 68.75 -50.45 L67.65 -49.25 67.3 -48.95 Q66.1 -48.0 64.4 -47.2 L60.85 -46.1 57.55 -44.8 57.5 -44.75 Q60.3 -45.0 62.95 -45.85 65.5 -46.8 68.0 -47.35 L68.2 -47.3 69.35 -47.6 69.4 -47.6 69.9 -47.75 70.6 -47.7 71.7 -47.7 71.95 -47.55 72.3 -47.35 72.9 -46.75 73.7 -45.7 73.9 -45.3 73.95 -45.2 74.1 -44.8 74.15 -44.65 74.15 -35.0 Q73.05 -34.25 71.15 -33.45 69.4 -32.7 65.85 -31.65 61.6 -30.4 59.95 -30.35 L60.0 -29.95 Q60.45 -29.2 62.6 -29.2 L66.6 -29.0 67.15 -29.05 71.05 -28.7 Q71.85 -28.25 71.95 -27.55 L72.0 -25.9 Q71.9 -22.5 70.6 -19.25 L70.15 -17.7 Q69.65 -14.95 65.95 -14.9 L61.35 -15.55 Q59.4 -15.9 56.95 -16.6 L49.85 -18.3 45.55 -17.0 Q41.05 -15.6 38.95 -15.15 L33.45 -14.25 27.85 -13.4 6.3 -9.95 2.55 -9.9 Q-10.4 -9.75 -18.8 -11.1 -30.45 -12.9 -37.7 -17.75 L-43.8 -21.2 -44.95 -21.85 Q-47.45 -23.55 -48.45 -24.85 -49.2 -25.65 -49.25 -26.35 L-49.15 -27.05 -49.1 -27.1 -48.5 -26.6 -44.9 -24.05 Q-35.15 -17.8 -23.05 -15.35 -8.35 -12.3 1.7 -12.75 L4.45 -12.9 6.25 -12.9 Q17.2 -13.3 27.9 -15.7 L33.45 -16.9 45.85 -19.5 47.2 -20.45 49.3 -20.65 51.65 -20.55 53.4 -20.15 56.4 -19.4 57.8 -19.0 61.55 -18.15 62.9 -17.85 65.5 -17.4 Q66.2 -17.4 66.8 -17.7 68.55 -20.75 69.35 -24.25 L69.7 -25.9 69.7 -26.55 69.6 -26.8 66.4 -26.65 61.15 -27.15 60.25 -27.4 59.75 -27.55 Q59.2 -27.75 58.7 -28.15 57.75 -28.9 57.8 -29.55 57.75 -30.4 57.95 -30.95 L57.95 -31.25 Q57.9 -32.2 61.2 -33.2 L66.45 -34.7 69.8 -36.0 72.1 -36.85 Q73.15 -37.45 73.15 -39.1 L73.25 -39.85 Q73.2 -41.45 72.6 -42.4 L72.4 -42.85 71.8 -43.75 71.45 -44.25 Q71.05 -44.65 70.65 -44.6 L70.5 -44.55 70.45 -44.7 68.65 -44.3 63.65 -42.75 63.05 -42.55 Q57.55 -40.8 56.15 -40.8 L55.7 -40.8 55.45 -40.9 53.2 -41.7" fill="#000000" fill-rule="evenodd" stroke="none"/>
      <path d="M59.6 -58.7 L60.55 -58.8 63.85 -58.95 Q64.8 -58.9 65.65 -57.05 66.25 -55.5 66.25 -54.55 L66.2 -53.75 Q66.15 -51.55 63.8 -49.9 62.1 -48.75 59.25 -47.8 55.45 -46.6 54.4 -46.05 52.25 -44.95 52.25 -43.25 52.25 -42.3 52.85 -41.85 L53.2 -41.7 48.6 -40.65 48.2 -40.65 47.95 -40.75 47.9 -40.75 47.75 -41.75 Q47.85 -44.65 54.3 -47.2 60.75 -49.65 60.85 -52.8 60.9 -54.65 59.8 -58.1 L59.6 -58.7 M63.65 -42.75 L68.65 -44.3 70.45 -44.7 70.5 -44.55 70.65 -44.6 Q71.05 -44.65 71.45 -44.25 L71.8 -43.75 72.4 -42.85 72.6 -42.4 Q73.2 -41.45 73.25 -39.85 L73.15 -39.1 Q73.15 -37.45 72.1 -36.85 L69.8 -36.0 66.45 -34.7 61.2 -33.2 Q57.9 -32.2 57.95 -31.25 L57.95 -30.95 Q57.75 -30.4 57.8 -29.55 57.75 -28.9 58.7 -28.15 59.2 -27.75 59.75 -27.55 L58.15 -27.55 Q54.3 -27.55 52.4 -28.25 51.65 -28.35 50.95 -28.9 50.15 -29.6 50.15 -30.2 50.1 -31.0 50.3 -31.5 L50.3 -31.8 Q50.25 -32.7 53.3 -33.6 56.95 -34.55 58.15 -35.05 L61.35 -36.2 63.45 -36.95 Q64.45 -37.5 64.45 -39.0 L64.55 -39.7 Q64.5 -41.2 63.9 -42.1 L63.75 -42.55 63.65 -42.75 M61.15 -27.15 L66.4 -26.65 69.6 -26.8 69.7 -26.55 69.7 -25.9 69.35 -24.25 Q68.55 -20.75 66.8 -17.7 66.2 -17.4 65.5 -17.4 L62.9 -17.85 61.55 -18.15 57.8 -19.0 58.4 -19.15 Q60.1 -22.0 60.85 -25.25 L61.15 -26.8 61.15 -27.15 M49.3 -20.65 L47.2 -20.45 45.85 -19.5 33.45 -16.9 27.9 -15.7 Q17.2 -13.3 6.25 -12.9 L4.45 -12.9 1.7 -12.75 Q-8.35 -12.3 -23.05 -15.35 -35.15 -17.8 -44.9 -24.05 L-48.5 -26.6 -48.6 -27.4 -48.7 -27.9 -45.2 -25.55 Q-36.2 -19.7 -24.95 -17.4 -11.35 -14.55 -2.05 -14.9 L0.6 -15.0 2.3 -15.0 Q12.4 -15.3 22.35 -17.5 L27.45 -18.6 39.0 -20.95 Q39.85 -21.6 41.35 -21.5 L44.35 -21.95 46.0 -21.55 48.8 -20.8 49.3 -20.65 M-30.3 -61.8 L-29.15 -60.65 -28.4 -60.15 -26.65 -58.8 -22.5 -56.45 Q-20.2 -54.55 -15.1 -53.1 -9.95 -51.7 -5.7 -50.85 L6.95 -51.4 4.8 -51.0 Q-4.8 -49.4 -8.65 -50.25 L-17.4 -52.4 Q-22.2 -53.8 -24.3 -55.5 -25.05 -56.05 -28.15 -57.7 -28.75 -58.4 -29.8 -59.0 L-30.5 -59.5 -32.2 -60.45 -30.3 -61.8 M25.05 -62.1 L26.1 -62.75 28.75 -63.65 30.15 -63.85 30.5 -63.85 31.0 -63.35 31.05 -63.35 31.4 -62.7 32.95 -60.0 Q33.45 -58.0 34.05 -56.95 35.2 -55.15 38.55 -55.15 L39.65 -55.25 Q34.45 -54.1 32.35 -54.05 29.25 -54.1 28.2 -55.75 27.7 -56.75 27.25 -58.6 L25.8 -61.15 25.45 -61.75 25.4 -61.75 25.05 -62.1" fill="#bdbdbd" fill-rule="evenodd" stroke="none"/>
      <path d="M53.2 -41.7 L55.45 -40.9 55.7 -40.8 56.15 -40.8 Q57.55 -40.8 63.05 -42.55 L63.65 -42.75 63.75 -42.55 63.9 -42.1 Q64.5 -41.2 64.55 -39.7 L64.45 -39.0 Q64.45 -37.5 63.45 -36.95 L61.35 -36.2 58.15 -35.05 Q56.95 -34.55 53.3 -33.6 50.25 -32.7 50.3 -31.8 L50.3 -31.5 Q50.1 -31.0 50.15 -30.2 50.15 -29.6 50.95 -28.9 51.65 -28.35 52.4 -28.25 54.3 -27.55 58.15 -27.55 L59.75 -27.55 60.25 -27.4 61.15 -27.15 61.15 -26.8 60.85 -25.25 Q60.1 -22.0 58.4 -19.15 L57.8 -19.0 56.4 -19.4 53.4 -20.15 51.65 -20.55 49.3 -20.65 48.8 -20.8 46.0 -21.55 44.35 -21.95 41.35 -21.5 Q39.85 -21.6 39.0 -20.95 L27.45 -18.6 22.35 -17.5 Q12.4 -15.3 2.3 -15.0 L0.6 -15.0 -2.05 -14.9 Q-11.35 -14.55 -24.95 -17.4 -36.2 -19.7 -45.2 -25.55 L-48.7 -27.9 -48.9 -29.8 Q-48.95 -34.7 -47.1 -40.0 -45.45 -45.1 -42.55 -49.2 -39.9 -53.0 -36.65 -56.35 -34.25 -58.95 -32.2 -60.45 L-30.5 -59.5 -29.8 -59.0 Q-28.75 -58.4 -28.15 -57.7 -25.05 -56.05 -24.3 -55.5 -22.2 -53.8 -17.4 -52.4 L-8.65 -50.25 Q-4.8 -49.4 4.8 -51.0 L6.95 -51.4 8.8 -51.7 Q19.1 -53.45 21.65 -55.55 24.3 -57.7 24.45 -59.0 L24.5 -59.65 24.45 -61.15 Q24.45 -61.65 24.75 -61.95 L25.05 -62.1 25.4 -61.75 25.45 -61.75 25.8 -61.15 27.25 -58.6 Q27.7 -56.75 28.2 -55.75 29.25 -54.1 32.35 -54.05 34.45 -54.1 39.65 -55.25 42.55 -55.5 48.75 -57.0 54.2 -58.3 59.6 -58.7 L59.8 -58.1 Q60.9 -54.65 60.85 -52.8 60.75 -49.65 54.3 -47.2 47.85 -44.65 47.75 -41.75 L47.9 -40.75 47.95 -40.75 48.2 -40.65 48.6 -40.65 53.2 -41.7" fill="#999999" fill-rule="evenodd" stroke="none"/>
    </g>
  </defs>
</svg>
