<?xml version="1.0" encoding="UTF-8" standalone="no"?>
<svg xmlns:xlink="http://www.w3.org/1999/xlink" height="531.5px" width="460.6px" xmlns="http://www.w3.org/2000/svg">
  <g transform="matrix(1.0, 0.0, 0.0, 1.0, 193.65, 334.05)">
    <use height="104.15" transform="matrix(1.0, 0.0, 0.0, 1.0, -67.9, -58.05)" width="64.15" xlink:href="#shape0"/>
    <use height="91.8" transform="matrix(0.7877, 0.3568, -0.3568, 0.7877, 17.6327, -59.2881)" width="90.0" xlink:href="#sprite0"/>
  </g>
  <defs>
    <g id="shape0" transform="matrix(1.0, 0.0, 0.0, 1.0, 67.9, 58.05)">
      <path d="M-52.7 -57.95 L-52.2 -57.25 -51.25 -57.05 Q-54.1 -48.3 -56.95 -41.1 -59.95 -33.95 -61.55 -27.55 -63.25 -21.2 -63.35 -16.05 -63.4 -11.0 -59.95 -0.35 L-53.75 18.4 Q-51.1 26.5 -47.4 35.2 L-45.6 38.35 Q-49.45 33.55 -51.8 27.7 -55.55 18.65 -58.35 9.2 L-63.9 -9.0 Q-66.9 -18.1 -64.25 -26.3 L-58.45 -42.7 -52.7 -57.95 M-16.8 -48.85 Q-16.7 -48.2 -15.4 -47.45 L-13.95 -48.3 -14.85 -45.55 -16.15 -40.2 -18.35 -35.45 -20.75 -30.7 Q-24.5 -23.0 -25.35 -20.6 -26.15 -18.15 -26.0 -14.5 L-24.4 -8.5 -22.4 -3.55 -22.25 -3.15 -21.1 0.2 -20.5 1.95 -20.25 2.8 Q-20.15 3.7 -19.15 3.95 L-14.75 3.5 -13.15 3.55 Q-7.65 4.15 -6.95 11.25 L-6.9 12.95 Q-7.05 14.3 -7.5 15.45 L-8.35 13.15 Q-9.0 11.1 -11.3 8.7 -12.95 4.6 -17.3 4.7 L-21.45 4.9 Q-22.6 4.65 -22.95 3.95 L-23.35 2.95 -24.25 1.0 -25.2 -2.65 -25.4 -3.05 -27.1 -8.4 -28.4 -14.85 Q-28.55 -18.85 -27.8 -21.45 L-25.15 -27.85 -21.55 -35.45 Q-19.75 -39.05 -19.1 -40.95 L-17.9 -44.8 -16.8 -48.85 M-10.65 16.55 Q-9.35 20.25 -9.05 23.15 -8.9 24.55 -9.9 26.95 -11.15 30.25 -13.45 30.5 L-13.25 29.95 Q-12.35 27.35 -12.4 25.9 -12.7 21.8 -14.6 16.3 -16.4 11.0 -16.35 11.85 -16.65 7.4 -14.4 10.25 -12.25 12.95 -11.7 15.2 L-11.0 17.65 -10.65 16.55 M-25.5 21.25 L-25.1 23.55 Q-25.25 25.65 -26.8 26.65 L-26.75 26.05 -27.25 21.5 Q-26.35 20.95 -25.5 21.25 M-38.3 26.9 L-35.8 32.35 Q-33.1 38.15 -32.9 39.95 -32.85 40.55 -33.6 41.4 L-34.15 41.9 Q-34.7 39.65 -36.4 35.35 L-38.75 28.65 -38.8 27.65 -38.6 27.05 -38.3 26.9 M-37.55 42.95 Q-40.9 43.3 -43.1 41.1 L-44.85 39.25 Q-42.05 42.25 -37.55 42.95" fill="#bdbdbd" fill-rule="evenodd" stroke="none"/>
      <path d="M-13.95 -48.3 L-12.45 -48.55 -12.3 -48.1 -12.1 -47.1 Q-11.95 -45.55 -14.45 -39.7 -12.95 -40.1 -12.25 -40.45 L-10.95 -41.7 Q-9.75 -42.65 -8.85 -42.55 -8.7 -42.6 -8.65 -41.95 -8.6 -41.1 -11.1 -39.45 -13.45 -37.9 -14.75 -37.8 L-15.3 -37.85 -18.35 -31.4 Q-24.05 -19.55 -24.35 -14.55 L-20.35 -3.6 -18.35 0.65 -15.0 0.55 Q-8.25 0.75 -7.1 2.0 L-5.5 5.6 Q-4.0 9.05 -3.9 10.0 -3.6 13.25 -3.85 15.7 -4.35 19.75 -6.1 20.8 L-6.0 21.75 Q-5.7 25.15 -6.7 28.35 -8.25 33.5 -12.65 33.9 L-16.05 33.7 Q-19.75 32.75 -22.25 28.8 L-22.95 27.6 -23.1 27.4 Q-25.05 30.3 -29.4 30.75 L-32.95 30.95 -32.4 32.1 Q-29.4 39.2 -29.3 40.25 -29.1 42.4 -31.65 44.3 -33.65 45.7 -35.55 46.0 L-36.0 46.05 Q-38.95 46.35 -41.6 45.25 -44.2 44.15 -46.6 41.65 L-47.7 40.35 -50.05 35.55 Q-55.45 23.85 -59.95 11.7 -62.0 6.2 -62.9 2.25 -67.75 -11.65 -67.9 -16.25 -68.05 -20.95 -66.5 -27.35 -65.0 -33.8 -63.35 -37.4 -61.75 -40.75 -58.6 -50.2 -55.65 -58.0 -52.75 -58.05 L-52.7 -57.95 -58.45 -42.7 -64.25 -26.3 Q-66.9 -18.1 -63.9 -9.0 L-58.35 9.2 Q-55.55 18.65 -51.8 27.7 -49.45 33.55 -45.6 38.35 L-45.55 38.4 -44.85 39.25 -43.1 41.1 Q-40.9 43.3 -37.55 42.95 L-37.1 42.9 Q-35.3 42.7 -34.15 41.9 L-33.6 41.4 Q-32.85 40.55 -32.9 39.95 -33.1 38.15 -35.8 32.35 L-38.3 26.9 -38.6 26.25 -38.6 25.25 -38.45 24.7 -38.15 24.5 -37.15 24.2 Q-36.2 24.15 -34.35 27.85 L-29.75 27.55 Q-27.9 27.35 -26.8 26.65 -25.25 25.65 -25.1 23.55 L-25.5 21.25 -25.75 19.35 -23.05 19.3 -22.8 19.4 Q-21.7 19.65 -21.2 22.0 L-20.8 25.05 Q-20.65 26.3 -19.1 28.15 -16.85 30.85 -13.5 30.5 L-13.45 30.5 Q-11.15 30.25 -9.9 26.95 -8.9 24.55 -9.05 23.15 -9.35 20.25 -10.65 16.55 L-11.55 14.3 Q-13.65 9.3 -13.65 10.15 -14.05 6.0 -11.4 8.6 L-11.3 8.7 Q-9.0 11.1 -8.35 13.15 L-7.5 15.45 Q-7.05 14.3 -6.9 12.95 L-6.95 11.25 Q-7.65 4.15 -13.15 3.55 L-14.75 3.5 -19.15 3.95 Q-20.15 3.7 -20.25 2.8 L-20.5 1.95 -21.1 0.2 -22.25 -3.15 -22.4 -3.55 -24.4 -8.5 -26.0 -14.5 Q-26.15 -18.15 -25.35 -20.6 -24.5 -23.0 -20.75 -30.7 L-18.35 -35.45 -16.15 -40.2 -14.85 -45.55 -13.95 -48.3" fill="#000000" fill-rule="evenodd" stroke="none"/>
      <path d="M-51.25 -57.05 Q-33.2 -56.5 -16.8 -48.85 L-17.9 -44.8 -19.1 -40.95 Q-19.75 -39.05 -21.55 -35.45 L-25.15 -27.85 -27.8 -21.45 Q-28.55 -18.85 -28.4 -14.85 L-27.1 -8.4 -25.4 -3.05 -25.2 -2.65 -24.25 1.0 -23.35 2.95 -22.95 3.95 Q-22.6 4.65 -21.45 4.9 L-17.3 4.7 Q-12.95 4.6 -11.3 8.7 L-11.4 8.6 Q-14.05 6.0 -13.65 10.15 -13.65 9.3 -11.55 14.3 L-10.65 16.55 -11.0 17.65 -11.7 15.2 Q-12.25 12.95 -14.4 10.25 -16.65 7.4 -16.35 11.85 -16.4 11.0 -14.6 16.3 -12.7 21.8 -12.4 25.9 -12.35 27.35 -13.25 29.95 L-13.45 30.5 -13.5 30.5 Q-16.85 30.85 -19.1 28.15 -20.65 26.3 -20.8 25.05 L-21.2 22.0 Q-21.7 19.65 -22.8 19.4 L-23.05 19.3 -25.75 19.35 -25.5 21.25 Q-26.35 20.95 -27.25 21.5 L-26.75 26.05 -26.8 26.65 Q-27.9 27.35 -29.75 27.55 L-34.35 27.85 Q-36.2 24.15 -37.15 24.2 L-38.15 24.5 -38.45 24.7 -38.6 25.25 -38.6 26.25 -38.3 26.9 -38.6 27.05 -38.8 27.65 -38.75 28.65 -36.4 35.35 Q-34.7 39.65 -34.15 41.9 -35.3 42.7 -37.1 42.9 L-37.55 42.95 Q-42.05 42.25 -44.85 39.25 L-45.55 38.4 -45.6 38.35 -47.4 35.2 Q-51.1 26.5 -53.75 18.4 L-59.95 -0.35 Q-63.4 -11.0 -63.35 -16.05 -63.25 -21.2 -61.55 -27.55 -59.95 -33.95 -56.95 -41.1 -54.1 -48.3 -51.25 -57.05" fill="#999999" fill-rule="evenodd" stroke="none"/>
    </g>
    <g id="sprite0" transform="matrix(1.0, 0.0, 0.0, 1.0, 44.85, 46.0)">
      <use height="91.8" transform="matrix(1.0, 0.0, 0.0, 1.0, -44.85, -46.0)" width="90.0" xlink:href="#shape1"/>
      <use height="0.0" transform="matrix(1.0, 0.0, 0.0, 1.0, 0.0, 0.0)" width="0.0" xlink:href="#sprite1"/>
    </g>
    <g id="shape1" transform="matrix(1.0, 0.0, 0.0, 1.0, 44.85, 46.0)">
      <path d="M14.55 -15.8 L6.15 -7.15 5.6 -7.55 5.05 -7.95 4.9 -8.05 3.7 -8.95 12.15 -17.75 14.55 -15.8" fill="#91360d" fill-rule="evenodd" stroke="none"/>
      <path d="M14.55 -15.8 L17.6 -13.3 8.95 -4.45 Q8.0 -5.75 6.3 -7.05 L6.15 -7.15 14.55 -15.8" fill="#5e2308" fill-rule="evenodd" stroke="none"/>
      <path d="M-41.75 44.25 L-42.3 43.9 -43.2 43.05 -43.7 42.3 -41.6 40.2 -34.0 32.45 -26.2 24.45 -18.2 16.3 -10.55 8.1 -3.0 0.0 4.75 -7.95 4.9 -8.05 5.05 -7.95 5.6 -7.55 6.15 -7.15 6.1 -7.15 -17.15 17.45 -41.75 44.25" fill="#be4610" fill-rule="evenodd" stroke="none"/>
      <path d="M6.15 -7.15 L6.3 -7.05 Q8.0 -5.75 8.95 -4.45 L-39.5 45.05 Q-40.8 44.75 -41.75 44.25 L-17.15 17.45 6.1 -7.15 6.15 -7.15" fill="#942d00" fill-rule="evenodd" stroke="none"/>
      <path d="M-43.7 42.3 L-44.1 40.7 3.7 -8.95 4.9 -8.05 4.75 -7.95 -3.0 0.0 -10.55 8.1 -18.2 16.3 -26.2 24.45 -34.0 32.45 -41.6 40.2 -43.7 42.3" fill="#db7343" fill-rule="evenodd" stroke="none"/>
      <path d="M8.95 -4.45 L17.6 -13.3 14.55 -15.8 12.15 -17.75 3.7 -8.95 -44.1 40.7 -43.7 42.3 -43.2 43.05 -42.3 43.9 -41.75 44.25 Q-40.8 44.75 -39.5 45.05 L8.95 -4.45 Z" fill="none" stroke="#000000" stroke-linecap="round" stroke-linejoin="round" stroke-opacity="0.6627451" stroke-width="1.5"/>
      <path d="M37.25 -39.45 L34.7 -27.5 43.15 -18.55 Q43.85 -17.8 44.05 -16.75 L44.15 -16.2 44.15 -16.15 43.95 -14.7 43.9 -14.55 Q43.5 -13.7 42.7 -13.1 41.9 -12.4 40.8 -12.35 L28.6 -11.05 22.75 -0.3 22.5 0.2 Q22.0 0.8 21.3 1.15 20.4 1.7 19.35 1.65 18.1 1.6 17.15 0.85 16.45 0.3 16.1 -0.55 L11.1 -11.75 -0.95 -14.0 Q-1.95 -14.2 -2.8 -14.95 -3.55 -15.65 -3.85 -16.7 -4.1 -17.65 -3.85 -18.7 L-2.75 -20.45 6.4 -28.6 4.8 -40.8 Q4.7 -41.85 5.1 -42.85 5.55 -43.8 6.45 -44.35 L7.0 -44.65 7.35 -44.8 7.45 -44.8 7.65 -44.9 8.2 -45.0 8.3 -44.95 8.35 -45.0 Q9.4 -45.05 10.35 -44.5 L20.95 -38.35 32.05 -43.6 34.05 -43.95 Q35.1 -43.8 35.95 -43.15 36.75 -42.5 37.15 -41.5 37.5 -40.5 37.25 -39.45" fill="url(#gradient0)" fill-rule="evenodd" stroke="none"/>
      <path d="M40.8 -12.35 Q41.9 -12.4 42.7 -13.1 43.5 -13.7 43.9 -14.55 L43.95 -14.7 44.15 -16.15 44.15 -16.2 44.05 -16.75 Q43.85 -17.8 43.15 -18.55 L34.7 -27.5 37.25 -39.45" fill="none" stroke="#ffcc00" stroke-linecap="round" stroke-linejoin="round" stroke-width="2.0"/>
      <path d="M37.25 -39.45 Q37.5 -40.5 37.15 -41.5 36.75 -42.5 35.95 -43.15 35.1 -43.8 34.05 -43.95 L32.05 -43.6 20.95 -38.35 10.35 -44.5 Q9.4 -45.05 8.35 -45.0 L8.3 -44.95 8.2 -45.0 7.65 -44.9 7.45 -44.8 7.35 -44.8 7.0 -44.65 6.45 -44.35 Q5.55 -43.8 5.1 -42.85 4.7 -41.85 4.8 -40.8 L6.4 -28.6 -2.75 -20.45 -3.85 -18.7 Q-4.1 -17.65 -3.85 -16.7 -3.55 -15.65 -2.8 -14.95 -1.95 -14.2 -0.95 -14.0 L11.1 -11.75 16.1 -0.55 Q16.45 0.3 17.15 0.85 18.1 1.6 19.35 1.65 20.4 1.7 21.3 1.15 22.0 0.8 22.5 0.2 L22.75 -0.3 28.6 -11.05 40.8 -12.35 Z" fill="none" stroke="#ff9900" stroke-linecap="round" stroke-linejoin="round" stroke-width="2.0"/>
    </g>
    <radialGradient cx="0" cy="0" gradientTransform="matrix(0.0419, 0.0, 0.0, 0.0419, 12.7, -12.8)" gradientUnits="userSpaceOnUse" id="gradient0" r="819.2" spreadMethod="pad">
      <stop offset="0.0" stop-color="#ffcc00"/>
      <stop offset="1.0" stop-color="#ffaa00"/>
    </radialGradient>
  </defs>
</svg>
