<?xml version="1.0" encoding="UTF-8" standalone="no"?>
<svg xmlns:xlink="http://www.w3.org/1999/xlink" height="531.5px" width="460.6px" xmlns="http://www.w3.org/2000/svg">
  <g transform="matrix(1.0, 0.0, 0.0, 1.0, 193.65, 334.05)">
    <use height="165.95" transform="matrix(1.0, 0.0, 0.0, 1.0, -140.05, -66.1)" width="275.05" xlink:href="#shape0"/>
  </g>
  <defs>
    <g id="shape0" transform="matrix(1.0, 0.0, 0.0, 1.0, 140.05, 66.1)">
      <path d="M38.25 -8.5 L38.75 -9.45 42.15 -14.75 Q43.6 -17.05 45.5 -19.25 46.5 -20.05 46.95 -20.8 L46.8 -20.8 47.35 -21.35 Q49.1 -23.35 51.45 -25.15 L52.55 -23.6 Q53.65 -21.9 53.65 -19.95 53.65 -18.9 53.3 -18.0 52.65 -16.55 50.95 -15.7 48.85 -14.7 45.9 -14.75 45.1 -11.35 44.55 -10.5 43.1 -8.4 39.45 -8.4 L38.25 -8.5 M132.25 27.95 L132.3 29.7 Q132.3 31.35 131.1 33.15 L130.45 33.9 Q128.8 35.95 127.5 35.85 L127.5 35.95 Q130.55 37.85 130.55 39.5 130.55 42.3 128.95 43.55 127.5 44.75 124.65 44.75 L119.15 44.0 Q115.35 43.2 114.35 42.6 L114.7 41.6 Q115.45 39.9 116.75 38.55 L117.25 38.05 119.35 35.85 Q120.85 34.6 122.3 34.6 123.35 34.6 125.05 35.4 L125.55 35.65 125.65 35.55 125.6 34.65 Q125.45 32.2 127.8 30.0 129.5 28.4 131.1 28.05 L132.25 27.95 M123.85 28.15 Q123.85 30.0 123.5 30.55 122.95 31.35 121.0 31.35 L118.55 31.0 Q116.75 30.6 116.75 30.05 116.75 29.5 118.05 28.5 119.65 27.3 121.35 27.3 L122.3 27.3 123.05 27.5 123.2 27.6 Q123.85 27.95 123.85 28.15 M53.15 36.75 L52.4 36.75 Q50.5 36.75 49.65 35.0 49.1 33.8 49.0 31.5 48.9 30.4 47.7 29.05 46.45 27.65 46.45 26.75 46.45 26.1 47.95 24.45 L49.1 23.3 Q49.8 22.85 50.4 22.6 L50.95 22.4 52.0 22.1 Q53.65 22.1 55.85 23.8 58.55 25.95 58.55 29.2 58.55 32.4 57.0 34.45 L55.9 35.65 Q54.2 35.95 53.15 36.75 M58.55 36.75 Q59.4 36.1 60.5 35.9 L61.5 35.8 62.0 35.85 62.9 36.35 Q63.95 37.25 63.95 38.05 63.95 39.7 63.25 40.45 62.45 41.15 60.7 41.15 L58.45 40.7 Q57.25 40.2 57.25 39.3 57.25 37.8 58.55 36.75" fill="#aba868" fill-rule="evenodd" stroke="none"/>
      <path d="M34.2 0.25 L34.65 -1.05 Q36.4 -5.2 38.25 -8.5 L39.45 -8.4 Q43.1 -8.4 44.55 -10.5 45.1 -11.35 45.9 -14.75 48.85 -14.7 50.95 -15.7 52.65 -16.55 53.3 -18.0 L53.95 -15.8 Q54.5 -14.85 55.65 -14.85 58.5 -14.85 61.15 -16.55 L65.55 -20.0 Q68.0 -22.3 69.6 -23.25 L69.7 -23.2 70.55 -22.9 Q74.6 -21.45 74.95 -21.45 77.0 -21.45 82.25 -24.8 87.55 -28.2 90.9 -28.2 91.75 -28.2 92.85 -27.25 94.1 -26.25 94.1 -25.4 94.1 -24.95 93.5 -23.75 L92.85 -22.3 Q92.85 -20.7 94.4 -19.35 L95.6 -18.4 96.6 -17.95 99.25 -16.5 101.45 -15.05 105.95 -9.65 Q108.1 -7.05 110.95 -6.5 110.25 -7.0 109.6 -8.7 L109.45 -9.3 Q108.8 -10.5 106.7 -11.9 L109.45 -11.9 Q115.15 -13.45 117.1 -17.0 118.05 -18.4 118.8 -18.9 120.1 -19.65 123.2 -19.65 L125.55 -19.3 Q126.65 -18.9 126.65 -18.15 L125.8 -16.6 Q124.9 -15.4 124.9 -14.85 124.9 -14.3 125.95 -13.3 L128.2 -11.25 129.6 -9.7 128.05 -8.95 Q129.85 -8.5 131.1 -7.05 L131.9 -5.95 Q133.2 -3.85 133.2 -1.1 133.2 -0.4 130.05 1.35 L129.35 1.7 130.45 2.05 Q132.45 4.85 132.45 7.1 132.45 9.15 131.35 11.3 L129.5 13.65 129.35 13.7 129.45 13.7 129.5 13.75 Q133.2 15.75 133.2 16.5 133.2 19.25 131.9 21.45 130.45 23.6 128.05 24.45 L131.5 26.1 131.5 26.15 131.1 28.05 Q129.5 28.4 127.8 30.0 125.45 32.2 125.6 34.65 L125.05 35.4 Q123.35 34.6 122.3 34.6 120.85 34.6 119.35 35.85 L117.25 38.05 117.1 37.8 Q115.15 34.35 109.45 32.85 L107.1 32.85 107.95 31.7 Q108.55 30.9 109.45 30.2 L109.6 29.65 Q110.25 27.8 110.95 27.4 108.1 27.95 105.95 30.6 L101.45 35.9 99.25 37.3 96.6 38.85 Q95.4 39.25 94.4 40.2 92.85 41.6 92.85 43.2 L93.5 44.65 Q94.1 45.85 94.1 46.35 94.1 47.1 92.85 48.2 91.75 49.15 90.9 49.15 87.55 49.15 82.25 45.75 77.0 42.4 74.95 42.4 L70.55 43.8 Q67.55 43.0 66.35 41.85 65.15 40.8 65.3 38.85 65.35 36.95 64.75 36.35 63.55 35.4 59.0 35.4 L55.9 35.65 57.0 34.45 Q58.55 32.4 58.55 29.2 58.55 25.95 55.85 23.8 53.65 22.1 52.0 22.1 L50.95 22.4 50.4 22.6 Q49.8 22.85 49.1 23.3 L47.95 24.45 Q46.45 26.1 46.45 26.75 46.45 27.65 47.7 29.05 48.9 30.4 49.0 31.5 49.1 33.8 49.65 35.0 50.5 36.75 52.4 36.75 L53.15 36.75 Q52.4 37.15 51.95 37.8 L50.6 39.45 Q49.8 40.2 48.35 40.2 L45.0 39.8 Q39.3 35.2 35.4 26.35 L35.35 26.1 Q37.4 25.05 38.25 23.8 39.2 22.4 39.2 19.7 39.2 17.35 37.9 14.95 36.65 12.55 36.65 9.15 36.65 8.2 37.05 6.65 L37.4 4.7 Q37.4 3.2 35.75 1.55 L34.2 0.25 M76.1 -18.4 Q73.0 -17.6 70.9 -15.8 64.05 -8.2 71.9 -0.85 L74.75 -0.15 75.55 0.05 Q84.6 1.85 89.9 -0.85 93.95 -10.5 89.65 -18.2 L79.5 -18.95 79.2 -18.95 76.1 -18.4 M65.35 -9.45 L65.35 -9.65 65.4 -13.2 Q65.05 -12.6 64.05 -8.95 63.1 -5.15 63.1 -4.1 63.1 -2.0 64.25 1.3 65.7 5.35 66.0 7.2 67.35 6.5 67.6 5.7 L67.75 3.3 Q67.75 -0.05 66.9 -1.65 66.3 -2.9 65.95 -4.65 L65.7 -5.7 65.35 -9.45 M123.85 28.15 Q123.85 27.95 123.2 27.6 L123.05 27.5 122.3 27.3 121.35 27.3 Q119.65 27.3 118.05 28.5 116.75 29.5 116.75 30.05 116.75 30.6 118.55 31.0 L121.0 31.35 Q122.95 31.35 123.5 30.55 123.85 30.0 123.85 28.15 M111.5 22.95 L111.5 24.5 Q113.75 22.55 115.75 17.65 117.75 12.6 117.75 8.9 117.75 6.1 115.75 2.0 114.3 -1.1 112.1 -4.2 L112.85 2.95 113.3 10.6 113.2 16.0 113.2 16.3 113.15 16.8 113.1 17.05 113.1 17.15 113.0 17.6 Q112.45 19.5 111.35 21.55 L111.5 22.95 M103.85 7.25 Q107.05 3.85 105.05 0.25 100.95 0.8 96.95 2.25 L88.35 4.7 Q86.45 6.8 91.15 8.05 95.8 9.3 103.85 7.25 M105.8 16.35 Q105.75 14.3 103.85 12.25 95.8 10.2 91.15 11.45 86.45 12.75 88.35 14.85 L96.95 17.3 Q100.95 18.7 105.05 19.2 105.8 17.8 105.8 16.35 M85.45 39.2 L89.65 38.6 Q93.95 30.9 89.9 21.15 84.95 18.7 76.8 20.1 L75.95 20.25 71.9 21.15 Q64.05 28.6 70.9 36.2 75.7 40.2 85.45 39.2 M63.1 24.5 Q63.1 25.6 64.05 29.35 65.05 33.0 65.4 33.55 L65.35 29.3 65.35 29.25 65.55 26.5 65.9 25.0 Q66.3 23.35 66.9 22.05 67.75 20.45 67.75 17.2 L67.6 14.8 Q67.35 13.9 66.0 13.3 65.7 15.0 64.25 19.1 63.1 22.45 63.1 24.5" fill="#f2f2e5" fill-rule="evenodd" stroke="none"/>
      <path d="M51.45 -25.15 L54.85 -27.3 Q59.4 -29.9 64.85 -29.9 L72.1 -28.75 77.3 -27.55 Q78.35 -27.55 80.4 -28.95 81.7 -29.8 84.75 -32.0 91.1 -36.35 95.15 -36.35 98.45 -36.35 100.9 -33.05 102.65 -30.6 103.6 -27.25 L105.05 -21.25 105.15 -20.9 105.35 -20.9 106.95 -20.9 108.15 -20.9 108.5 -20.95 109.85 -21.3 Q111.55 -21.75 112.1 -22.3 113.25 -23.5 113.55 -24.5 L113.75 -25.75 Q113.85 -26.65 114.15 -27.0 114.7 -27.65 119.15 -28.55 L124.65 -29.35 Q127.5 -29.35 128.95 -28.15 130.55 -26.85 130.55 -24.05 130.55 -22.45 127.5 -20.55 L127.5 -20.4 Q128.8 -20.55 130.45 -18.5 L131.1 -17.75 Q132.3 -15.9 132.3 -14.25 132.3 -11.45 131.55 -10.7 L129.6 -9.7 128.2 -11.25 125.95 -13.3 Q124.9 -14.3 124.9 -14.85 124.9 -15.4 125.8 -16.6 L126.65 -18.15 Q126.65 -18.9 125.55 -19.3 L123.2 -19.65 Q120.1 -19.65 118.8 -18.9 118.05 -18.4 117.1 -17.0 115.15 -13.45 109.45 -11.9 L106.7 -11.9 Q108.8 -10.5 109.45 -9.3 L109.6 -8.7 Q110.25 -7.0 110.95 -6.5 108.1 -7.05 105.95 -9.65 L101.45 -15.05 99.25 -16.5 96.6 -17.95 95.6 -18.4 94.4 -19.35 Q92.85 -20.7 92.85 -22.3 L93.5 -23.75 Q94.1 -24.95 94.1 -25.4 94.1 -26.25 92.85 -27.25 91.75 -28.2 90.9 -28.2 87.55 -28.2 82.25 -24.8 77.0 -21.45 74.95 -21.45 74.6 -21.45 70.55 -22.9 L69.7 -23.2 69.8 -23.35 69.6 -23.25 Q68.0 -22.3 65.55 -20.0 L61.15 -16.55 Q58.5 -14.85 55.65 -14.85 54.5 -14.85 53.95 -15.8 L53.3 -18.0 Q53.65 -18.9 53.65 -19.95 53.65 -21.9 52.55 -23.6 L51.45 -25.15 M130.45 2.05 L131.15 2.2 133.3 3.85 Q134.5 5.2 134.5 7.45 L134.5 7.75 133.9 9.6 132.85 11.7 Q132.1 12.8 131.15 13.2 L129.5 13.65 131.35 11.3 Q132.45 9.15 132.45 7.1 132.45 4.85 130.45 2.05 M131.55 26.15 Q132.05 26.65 132.25 27.95 L131.1 28.05 131.5 26.15 131.55 26.15 M114.35 42.6 L114.15 42.45 Q113.85 42.1 113.75 41.2 L113.55 39.9 Q113.25 38.9 112.1 37.7 111.55 37.15 109.85 36.7 L108.5 36.35 108.15 36.35 106.95 36.3 106.65 36.3 106.15 36.3 105.7 36.3 105.45 36.3 105.4 36.5 105.1 37.4 Q104.15 40.25 102.75 46.65 101.45 52.05 99.45 54.5 L98.8 55.3 Q96.25 57.85 92.0 57.85 90.4 57.85 87.5 55.3 L85.1 53.05 Q80.55 48.05 79.05 47.15 78.1 46.75 77.0 46.75 L70.85 48.65 Q65.05 50.6 61.7 50.6 56.35 50.6 50.05 47.1 44.0 43.75 41.4 39.7 L40.3 37.85 Q37.8 33.55 36.4 29.5 L35.4 26.35 Q39.3 35.2 45.0 39.8 L48.35 40.2 Q49.8 40.2 50.6 39.45 L51.95 37.8 Q52.4 37.15 53.15 36.75 54.2 35.95 55.9 35.65 L59.0 35.4 Q63.55 35.4 64.75 36.35 65.35 36.95 65.3 38.85 65.15 40.8 66.35 41.85 67.55 43.0 70.55 43.8 L74.95 42.4 Q77.0 42.4 82.25 45.75 87.55 49.15 90.9 49.15 91.75 49.15 92.85 48.2 94.1 47.1 94.1 46.35 94.1 45.85 93.5 44.65 L92.85 43.2 Q92.85 41.6 94.4 40.2 95.4 39.25 96.6 38.85 L99.25 37.3 101.45 35.9 105.95 30.6 Q108.1 27.95 110.95 27.4 110.25 27.8 109.6 29.65 L109.45 30.2 Q108.55 30.9 107.95 31.7 L107.1 32.85 109.45 32.85 Q115.15 34.35 117.1 37.8 L117.25 38.05 116.75 38.55 Q115.45 39.9 114.7 41.6 L114.35 42.6 M65.7 -5.7 L65.95 -4.65 Q66.3 -2.9 66.9 -1.65 67.75 -0.05 67.75 3.3 L67.6 5.7 Q67.35 6.5 66.0 7.2 65.7 5.35 64.25 1.3 63.1 -2.0 63.1 -4.1 63.1 -5.15 64.05 -8.95 65.05 -12.6 65.4 -13.2 L65.35 -9.65 65.35 -9.45 65.35 -8.9 Q65.3 -7.0 65.7 -5.7 M107.2 -15.65 L106.95 -16.1 Q105.95 -17.85 105.25 -20.4 L105.15 -20.9 105.25 -20.4 Q105.95 -17.85 106.95 -16.1 L107.2 -15.65 M125.05 35.4 L125.6 34.65 125.65 35.55 125.55 35.65 125.05 35.4 M113.0 17.6 L113.1 17.15 113.1 17.05 113.15 16.8 113.2 16.3 113.2 16.0 113.3 10.6 112.85 2.95 112.1 -4.2 Q114.3 -1.1 115.75 2.0 117.75 6.1 117.75 8.9 117.75 12.6 115.75 17.65 113.75 22.55 111.5 24.5 L111.5 22.95 111.5 22.55 Q112.05 21.7 112.5 19.55 L113.0 17.6 M107.1 32.85 Q106.15 34.3 105.45 36.3 106.15 34.3 107.1 32.85 M63.1 24.5 Q63.1 22.45 64.25 19.1 65.7 15.0 66.0 13.3 67.35 13.9 67.6 14.8 L67.75 17.2 Q67.75 20.45 66.9 22.05 66.3 23.35 65.9 25.0 L65.55 26.5 65.35 29.25 65.35 29.3 65.4 33.55 Q65.05 33.0 64.05 29.35 63.1 25.6 63.1 24.5 M58.55 36.75 Q57.25 37.8 57.25 39.3 57.25 40.2 58.45 40.7 L60.7 41.15 Q62.45 41.15 63.25 40.45 63.95 39.7 63.95 38.05 63.95 37.25 62.9 36.35 L62.0 35.85 61.5 35.8 60.5 35.9 Q59.4 36.1 58.55 36.75" fill="#d9d9c2" fill-rule="evenodd" stroke="none"/>
      <path d="M74.75 -0.15 L71.9 -0.85 Q64.05 -8.2 70.9 -15.8 73.0 -17.6 76.1 -18.4 L79.5 -18.95 Q85.15 -18.9 87.1 -17.05 89.05 -15.15 89.05 -9.7 89.05 -4.5 85.75 -2.25 82.65 -0.15 75.55 -0.15 L74.75 -0.15 M103.85 7.25 Q95.8 9.3 91.15 8.05 86.45 6.8 88.35 4.7 L96.95 2.25 Q100.95 0.8 105.05 0.25 107.05 3.85 103.85 7.25 M105.8 16.35 Q105.8 17.8 105.05 19.2 100.95 18.7 96.95 17.3 L88.35 14.85 Q86.45 12.75 91.15 11.45 95.8 10.2 103.85 12.25 105.75 14.3 105.8 16.35 M76.7 20.2 Q82.95 20.2 85.6 21.75 89.05 23.9 89.05 29.65 89.05 33.5 87.3 36.75 86.5 38.25 85.45 39.2 75.7 40.2 70.9 36.2 64.05 28.6 71.9 21.15 L75.95 20.25 76.7 20.2" fill="#000000" fill-rule="evenodd" stroke="none"/>
      <path d="M75.55 -0.15 Q82.65 -0.15 85.75 -2.25 89.05 -4.5 89.05 -9.7 89.05 -15.15 87.1 -17.05 85.15 -18.9 79.5 -18.95 L89.65 -18.2 Q93.95 -10.5 89.9 -0.85 84.6 1.85 75.55 0.05 L75.55 -0.15 M85.45 39.2 Q86.5 38.25 87.3 36.75 89.05 33.5 89.05 29.65 89.05 23.9 85.6 21.75 82.95 20.2 76.7 20.2 L76.8 20.1 Q84.95 18.7 89.9 21.15 93.95 30.9 89.65 38.6 L85.45 39.2" fill="#333333" fill-rule="evenodd" stroke="none"/>
      <path d="M35.35 26.1 L34.6 22.55 Q36.85 20.25 35.9 15.4 L33.8 11.0 34.15 8.95 Q34.25 5.5 33.1 3.55 L34.2 0.25 35.75 1.55 Q37.4 3.2 37.4 4.7 L37.05 6.65 Q36.65 8.2 36.65 9.15 36.65 12.55 37.9 14.95 39.2 17.35 39.2 19.7 39.2 22.4 38.25 23.8 37.4 25.05 35.35 26.1" fill="#abab98" fill-rule="evenodd" stroke="none"/>
      <path d="M13.3 5.8 L15.4 5.55 14.4 7.25 13.3 5.8" fill="#b3b38b" fill-rule="evenodd" stroke="none"/>
      <path d="M19.9 23.15 Q18.7 23.8 17.35 24.05 L14.95 21.15 14.8 21.0 15.65 19.65 Q18.6 21.25 20.15 23.0 L19.9 23.15" fill="#8a5521" fill-rule="evenodd" stroke="none"/>
      <path d="M34.2 0.25 L34.65 -1.05 Q36.4 -5.2 38.25 -8.5 L38.75 -9.45 42.15 -14.75 Q43.6 -17.05 45.5 -19.25 L46.8 -20.8 47.35 -21.35 Q49.1 -23.35 51.45 -25.15 L54.85 -27.3 Q59.4 -29.9 64.85 -29.9 L72.1 -28.75 77.3 -27.55 Q78.35 -27.55 80.4 -28.95 81.7 -29.8 84.75 -32.0 91.1 -36.35 95.15 -36.35 98.45 -36.35 100.9 -33.05 102.65 -30.6 103.6 -27.25 L105.05 -21.25 105.15 -20.9 105.35 -20.9 106.95 -20.9 108.15 -20.9 108.5 -20.95 109.85 -21.3 Q111.55 -21.75 112.1 -22.3 113.25 -23.5 113.55 -24.5 L113.75 -25.75 Q113.85 -26.65 114.15 -27.0 114.7 -27.65 119.15 -28.55 L124.65 -29.35 Q127.5 -29.35 128.95 -28.15 130.55 -26.85 130.55 -24.05 130.55 -22.45 127.5 -20.55 L127.5 -20.4 Q128.8 -20.55 130.45 -18.5 L131.1 -17.75 Q132.3 -15.9 132.3 -14.25 132.3 -11.45 131.55 -10.7 L129.6 -9.7 128.05 -8.95 Q129.85 -8.5 131.1 -7.05 L131.9 -5.95 Q133.2 -3.85 133.2 -1.1 133.2 -0.4 130.05 1.35 L129.35 1.7 130.45 2.05 131.15 2.2 133.3 3.85 Q134.5 5.2 134.5 7.45 L134.5 7.75 133.9 9.6 132.85 11.7 Q132.1 12.8 131.15 13.2 L129.5 13.65 129.35 13.7 129.45 13.7 129.5 13.75 Q133.2 15.75 133.2 16.5 133.2 19.25 131.9 21.45 130.45 23.6 128.05 24.45 L131.5 26.1 131.55 26.15 Q132.05 26.65 132.25 27.95 L132.3 29.7 Q132.3 31.35 131.1 33.15 L130.45 33.9 Q128.8 35.95 127.5 35.85 L127.5 35.95 Q130.55 37.85 130.55 39.5 130.55 42.3 128.95 43.55 127.5 44.75 124.65 44.75 L119.15 44.0 Q115.35 43.2 114.35 42.6 L114.15 42.45 Q113.85 42.1 113.75 41.2 L113.55 39.9 Q113.25 38.9 112.1 37.7 111.55 37.15 109.85 36.7 L108.5 36.35 108.15 36.35 106.95 36.3 106.65 36.3 106.15 36.3 105.75 36.35 105.4 36.5 105.1 37.4 Q104.15 40.25 102.75 46.65 101.45 52.05 99.45 54.5 L98.8 55.3 Q96.25 57.85 92.0 57.85 90.4 57.85 87.5 55.3 L85.1 53.05 Q80.55 48.05 79.05 47.15 78.1 46.75 77.0 46.75 L70.85 48.65 Q65.05 50.6 61.7 50.6 56.35 50.6 50.05 47.1 44.0 43.75 41.4 39.7 L40.3 37.85 Q37.8 33.55 36.4 29.5 L35.4 26.35 35.35 26.1 34.6 22.55 M33.1 3.55 L34.2 0.25 M76.1 -18.4 Q73.0 -17.6 70.9 -15.8 64.05 -8.2 71.9 -0.85 L74.75 -0.15 75.55 0.05 Q84.6 1.85 89.9 -0.85 93.95 -10.5 89.65 -18.2 L79.5 -18.95 76.1 -18.4 M105.15 -20.9 L105.25 -20.4 Q105.95 -17.85 106.95 -16.1 L107.2 -15.65 M103.85 7.25 Q95.8 9.3 91.15 8.05 86.45 6.8 88.35 4.7 L96.95 2.25 Q100.95 0.8 105.05 0.25 107.05 3.85 103.85 7.25 M105.8 16.35 Q105.75 14.3 103.85 12.25 95.8 10.2 91.15 11.45 86.45 12.75 88.35 14.85 L96.95 17.3 Q100.95 18.7 105.05 19.2 105.8 17.8 105.8 16.35 M85.45 39.2 L89.65 38.6 Q93.95 30.9 89.9 21.15 84.95 18.7 76.8 20.1 L75.95 20.25 71.9 21.15 Q64.05 28.6 70.9 36.2 75.7 40.2 85.45 39.2 M109.45 30.2 Q108.55 30.9 107.95 31.7 L107.1 32.85 Q106.15 34.3 105.45 36.3 L105.7 36.3 106.15 36.3 M105.4 36.5 L105.45 36.3 M20.95 23.5 L20.7 23.45 20.35 23.35 19.9 23.15 Q18.7 23.8 17.35 24.05 L14.95 21.15 14.8 21.0 M20.15 23.0 L19.9 23.15 M15.4 5.55 L13.3 5.8" fill="none" stroke="#000000" stroke-linecap="round" stroke-linejoin="round" stroke-opacity="0.6627451" stroke-width="1.0"/>
      <path d="M-123.8 3.15 Q-123.4 0.7 -122.8 -1.1 -121.25 -5.65 -122.4 -11.7 -123.6 -17.5 -122.1 -21.0 -120.75 -24.2 -118.55 -25.1 L-113.9 -25.35 -113.25 -21.65 Q-112.25 -18.65 -109.35 -17.2 -107.35 -16.2 -105.1 -13.15 L-102.55 -10.25 -103.25 -10.05 Q-106.95 -8.45 -109.75 -1.8 -112.6 4.95 -112.3 12.65 -112.0 19.5 -109.0 31.75 L-114.4 35.2 -107.6 36.55 Q-105.45 41.5 -100.05 45.35 -96.55 47.8 -95.25 50.05 -94.0 52.15 -94.6 54.45 L-94.95 55.6 Q-95.6 57.05 -98.75 58.35 L-100.6 59.15 -100.9 59.3 -102.25 59.3 Q-106.2 59.25 -108.1 58.5 -111.15 57.2 -112.5 54.65 -113.75 52.35 -114.6 46.95 L-116.4 39.95 Q-117.6 35.85 -117.95 32.85 -118.25 29.75 -119.4 26.7 -120.55 23.6 -121.9 15.25 L-123.75 3.35 -123.8 3.15 M-119.6 -6.85 L-119.95 -9.75 -119.6 -6.85 M-116.65 -6.0 L-117.2 -7.4 -118.15 -10.15 Q-118.5 -11.55 -118.65 -13.7 L-118.8 -16.3 -118.65 -13.7 Q-118.5 -11.55 -118.15 -10.15 L-117.2 -7.4 -116.65 -6.0" fill="#e3e3ba" fill-rule="evenodd" stroke="none"/>
      <path d="M-123.8 3.15 L-123.75 3.35 -121.9 15.25 Q-120.55 23.6 -119.4 26.7 -118.25 29.75 -117.95 32.85 -117.6 35.85 -116.4 39.95 L-114.6 46.95 Q-113.75 52.35 -112.5 54.65 -111.15 57.2 -108.1 58.5 -106.2 59.25 -102.25 59.3 L-100.9 59.3 -107.5 62.8 -109.45 63.1 -112.0 62.0 Q-117.85 58.55 -117.5 50.2 -118.2 42.95 -118.65 41.85 -123.9 28.15 -124.0 19.6 L-124.15 8.85 Q-124.15 5.65 -123.8 3.15 M-102.55 -10.25 L-105.1 -13.15 Q-107.35 -16.2 -109.35 -17.2 -112.25 -18.65 -113.25 -21.65 L-113.9 -25.35 -113.6 -25.3 Q-112.85 -23.55 -110.8 -22.65 L-109.6 -22.5 -107.8 -22.15 Q-106.75 -21.7 -105.0 -19.4 -104.05 -18.15 -102.55 -17.1 -101.5 -16.4 -100.15 -15.85 L-98.75 -15.4 Q-98.5 -14.1 -98.95 -13.0 -99.55 -11.55 -100.75 -10.95 -101.4 -10.65 -102.55 -10.25" fill="#c7c79b" fill-rule="evenodd" stroke="none"/>
      <path d="M-113.9 -25.35 L-118.55 -25.1 Q-120.75 -24.2 -122.1 -21.0 -123.6 -17.5 -122.4 -11.7 -121.25 -5.65 -122.8 -1.1 -123.4 0.7 -123.8 3.15 -124.15 5.65 -124.15 8.85 L-124.0 19.6 Q-123.9 28.15 -118.65 41.85 -118.2 42.95 -117.5 50.2 -117.85 58.55 -112.0 62.0 L-109.45 63.1 -107.5 62.8 -100.9 59.3 -100.6 59.15 -98.75 58.35 Q-95.6 57.05 -94.95 55.6 L-94.6 54.45 Q-94.0 52.15 -95.25 50.05 -96.55 47.8 -100.05 45.35 -105.45 41.5 -107.6 36.55 L-114.4 35.2 -109.0 31.75 Q-112.0 19.5 -112.3 12.65 -112.6 4.95 -109.75 -1.8 -106.95 -8.45 -103.25 -10.05 L-102.55 -10.25 Q-101.4 -10.65 -100.75 -10.95 -99.55 -11.55 -98.95 -13.0 -98.5 -14.1 -98.75 -15.4 M-113.9 -25.35 L-113.6 -25.3 M-118.8 -16.3 L-118.65 -13.7 Q-118.5 -11.55 -118.15 -10.15 L-117.2 -7.4 -116.65 -6.0 M-119.95 -9.75 L-119.6 -6.85" fill="none" stroke="#000000" stroke-linecap="round" stroke-linejoin="round" stroke-opacity="0.6627451" stroke-width="1.0"/>
      <path d="M-81.95 -54.8 L-81.6 -55.55 -81.95 -54.8 M-102.55 -17.1 Q-104.05 -18.15 -105.0 -19.4 -106.75 -21.7 -107.8 -22.15 L-109.6 -22.5 -110.8 -22.65 Q-112.85 -23.55 -113.6 -25.3 L-113.7 -25.8 -113.9 -27.05 Q-113.9 -28.75 -113.05 -30.85 -111.55 -34.35 -108.4 -35.6 L-105.05 -36.6 Q-103.4 -37.1 -102.55 -37.95 -101.2 -39.15 -97.5 -44.25 -94.0 -49.2 -91.25 -51.55 L-84.4 -56.15 Q-80.65 -58.6 -79.5 -60.6 L-77.5 -63.25 Q-76.15 -64.5 -74.45 -65.0 L-70.95 -65.55 -67.9 -65.4 -65.55 -63.75 -64.65 -62.9 -64.7 -62.8 -65.0 -62.15 -66.4 -61.25 Q-68.65 -59.85 -69.35 -58.2 -69.55 -57.65 -69.4 -55.9 -69.2 -54.25 -69.4 -53.75 L-70.55 -51.05 -71.05 -49.55 Q-71.55 -47.3 -70.5 -44.95 -69.5 -42.65 -67.7 -41.7 L-70.9 -41.95 Q-76.8 -43.05 -78.65 -41.65 L-80.55 -40.1 Q-87.6 -37.95 -89.15 -37.0 -91.8 -35.4 -94.15 -29.75 L-95.85 -25.05 -97.05 -22.3 -99.25 -18.9 Q-100.3 -17.35 -102.15 -17.15 L-102.55 -17.1 M-73.1 -50.3 L-70.55 -51.05 -73.1 -50.3 M-80.35 -52.3 Q-79.7 -57.05 -78.95 -58.15 -79.7 -57.05 -80.35 -52.3" fill="#ffffd1" fill-rule="evenodd" stroke="none"/>
      <path d="M-102.55 -17.1 L-102.15 -17.15 Q-100.3 -17.35 -99.25 -18.9 L-97.05 -22.3 -95.85 -25.05 -94.15 -29.75 Q-91.8 -35.4 -89.15 -37.0 -87.6 -37.95 -80.55 -40.1 L-86.35 -35.75 Q-91.35 -31.6 -92.4 -29.15 -93.15 -27.3 -92.85 -23.45 -92.65 -19.5 -93.25 -17.95 -94.1 -16.0 -95.8 -15.4 -97.05 -14.95 -98.75 -15.4 L-100.15 -15.85 Q-101.5 -16.4 -102.55 -17.1 M-67.7 -41.7 Q-69.5 -42.65 -70.5 -44.95 -71.55 -47.3 -71.05 -49.55 L-70.55 -51.05 -69.4 -53.75 Q-69.2 -54.25 -69.4 -55.9 -69.55 -57.65 -69.35 -58.2 -68.65 -59.85 -66.4 -61.25 L-65.0 -62.15 -64.7 -62.8 -62.55 -53.65 Q-62.25 -49.85 -63.7 -46.3 L-63.8 -46.0 Q-64.1 -44.5 -64.9 -43.4 -65.65 -42.05 -67.45 -41.75 L-67.7 -41.7 M-65.3 -53.7 L-65.65 -54.25 Q-66.95 -56.1 -67.95 -56.95 -66.95 -56.1 -65.65 -54.25 L-65.3 -53.7 -64.4 -52.35 -65.3 -53.7 -65.75 -51.85 -65.3 -53.7 M-70.55 -51.05 Q-68.25 -52.1 -68.0 -53.85 -68.25 -52.1 -70.55 -51.05" fill="#e3e3ae" fill-rule="evenodd" stroke="none"/>
      <path d="M-81.6 -55.55 L-81.95 -54.8 M-64.7 -62.8 L-64.65 -62.9 -65.55 -63.75 -67.9 -65.4 -70.95 -65.55 -74.45 -65.0 Q-76.15 -64.5 -77.5 -63.25 L-79.5 -60.6 Q-80.65 -58.6 -84.4 -56.15 L-91.25 -51.55 Q-94.0 -49.2 -97.5 -44.25 -101.2 -39.15 -102.55 -37.95 -103.4 -37.1 -105.05 -36.6 L-108.4 -35.6 Q-111.55 -34.35 -113.05 -30.85 -113.9 -28.75 -113.9 -27.05 L-113.7 -25.8 -113.6 -25.3 Q-112.85 -23.55 -110.8 -22.65 L-109.6 -22.5 -107.8 -22.15 Q-106.75 -21.7 -105.0 -19.4 -104.05 -18.15 -102.55 -17.1 -101.5 -16.4 -100.15 -15.85 L-98.75 -15.4 Q-97.05 -14.95 -95.8 -15.4 -94.1 -16.0 -93.25 -17.95 -92.65 -19.5 -92.85 -23.45 -93.15 -27.3 -92.4 -29.15 -91.35 -31.6 -86.35 -35.75 L-80.55 -40.1 -78.65 -41.65 Q-76.8 -43.05 -70.9 -41.95 L-67.7 -41.7 -67.45 -41.75 Q-65.65 -42.05 -64.9 -43.4 -64.1 -44.5 -63.8 -46.0 L-63.7 -46.3 Q-62.25 -49.85 -62.55 -53.65 L-64.7 -62.8 M-70.55 -51.05 L-73.1 -50.3 M-78.95 -58.15 Q-79.7 -57.05 -80.35 -52.3 M-68.0 -53.85 Q-68.25 -52.1 -70.55 -51.05 M-64.4 -52.35 L-65.3 -53.7 -65.75 -51.85 M-67.95 -56.95 Q-66.95 -56.1 -65.65 -54.25 L-65.3 -53.7" fill="none" stroke="#000000" stroke-linecap="round" stroke-linejoin="round" stroke-opacity="0.6627451" stroke-width="1.0"/>
      <path d="M-61.9 75.35 Q-63.6 76.45 -64.4 78.8 -65.2 81.3 -64.5 83.5 L-63.9 84.9 -66.5 84.4 -63.9 84.9 -62.5 87.5 Q-62.2 87.95 -62.25 89.6 -62.3 91.35 -62.05 91.9 -61.2 93.45 -58.8 94.65 L-57.35 95.4 -57.0 96.05 -56.95 96.1 -57.75 97.0 Q-59.0 98.45 -59.9 98.95 L-62.9 99.3 -66.45 99.15 Q-68.2 98.8 -69.6 97.7 L-71.85 95.2 Q-73.15 93.3 -77.2 91.25 -82.7 88.5 -84.4 87.25 -87.3 85.2 -91.3 80.6 -95.4 75.95 -96.9 74.8 -97.8 74.05 -99.5 73.7 L-102.95 73.0 Q-106.2 72.1 -108.0 68.7 -109.05 66.7 -109.15 65.05 L-109.1 63.75 -109.0 63.3 Q-108.5 61.45 -106.5 60.4 L-105.3 60.1 -103.6 59.55 Q-102.55 59.0 -101.0 56.6 -100.2 55.25 -98.8 54.1 L-98.35 54.1 Q-96.55 54.15 -95.35 55.55 L-92.8 58.7 -91.4 61.35 -89.25 65.9 Q-86.4 71.25 -83.65 72.6 -82.0 73.45 -74.85 74.95 L-72.75 76.25 Q-70.8 77.5 -65.05 75.9 -63.25 75.35 -61.9 75.35 M-74.8 89.7 L-74.4 90.4 -74.8 89.7 M-73.45 87.0 Q-72.4 91.75 -71.55 92.75 -72.4 91.75 -73.45 87.0" fill="#ffffd1" fill-rule="evenodd" stroke="none"/>
      <path d="M-63.9 84.9 L-64.5 83.5 Q-65.2 81.3 -64.4 78.8 -63.6 76.45 -61.9 75.35 L-61.65 75.4 Q-59.8 75.5 -58.95 76.7 -58.0 77.75 -57.6 79.25 L-57.5 79.55 Q-55.7 82.95 -55.65 86.7 L-57.0 96.05 -57.35 95.4 -58.8 94.65 Q-61.2 93.45 -62.05 91.9 -62.3 91.35 -62.25 89.6 -62.2 87.95 -62.5 87.5 L-63.9 84.9 Q-61.45 85.7 -61.05 87.4 -61.45 85.7 -63.9 84.9 M-98.8 54.1 L-96.6 52.6 -95.2 52.0 -92.25 51.8 Q-90.5 52.2 -89.5 54.1 -88.75 55.55 -88.6 59.45 -88.55 63.4 -87.6 65.15 -86.35 67.5 -80.95 71.15 L-74.85 74.95 Q-82.0 73.45 -83.65 72.6 -86.4 71.25 -89.25 65.9 L-91.4 61.35 -92.8 58.7 -95.35 55.55 Q-96.55 54.15 -98.35 54.1 L-98.8 54.1 M-59.05 85.25 L-58.35 87.0 -57.6 85.6 -58.35 87.0 -58.65 87.6 Q-59.8 89.6 -60.7 90.55 -59.8 89.6 -58.65 87.6 L-58.35 87.0 -59.05 85.25" fill="#e3e3ae" fill-rule="evenodd" stroke="none"/>
      <path d="M-63.9 84.9 Q-61.45 85.7 -61.05 87.4 M-74.85 74.95 L-72.75 76.25 Q-70.8 77.5 -65.05 75.9 -63.25 75.35 -61.9 75.35 L-61.65 75.4 Q-59.8 75.5 -58.95 76.7 -58.0 77.75 -57.6 79.25 L-57.5 79.55 Q-55.7 82.95 -55.65 86.7 L-57.0 96.05 -56.95 96.1 -57.75 97.0 Q-59.0 98.45 -59.9 98.95 L-62.9 99.3 -66.45 99.15 Q-68.2 98.8 -69.6 97.7 L-71.85 95.2 Q-73.15 93.3 -77.2 91.25 -82.7 88.5 -84.4 87.25 -87.3 85.2 -91.3 80.6 -95.4 75.95 -96.9 74.8 -97.8 74.05 -99.5 73.7 L-102.95 73.0 Q-106.2 72.1 -108.0 68.7 -109.05 66.7 -109.15 65.05 L-109.1 63.75 -109.0 63.3 Q-108.5 61.45 -106.5 60.4 L-105.3 60.1 -103.6 59.55 Q-102.55 59.0 -101.0 56.6 -100.2 55.25 -98.8 54.1 L-96.6 52.6 -95.2 52.0 -92.25 51.8 Q-90.5 52.2 -89.5 54.1 -88.75 55.55 -88.6 59.45 -88.55 63.4 -87.6 65.15 -86.35 67.5 -80.95 71.15 L-74.85 74.95 M-63.9 84.9 L-66.5 84.4 M-71.55 92.75 Q-72.4 91.75 -73.45 87.0 M-74.4 90.4 L-74.8 89.7 M-57.6 85.6 L-58.35 87.0 -58.65 87.6 Q-59.8 89.6 -60.7 90.55 M-58.35 87.0 L-59.05 85.25" fill="none" stroke="#000000" stroke-linecap="round" stroke-linejoin="round" stroke-opacity="0.6627451" stroke-width="1.0"/>
      <path d="M21.65 -0.15 Q25.35 -1.85 27.95 -2.0 L28.65 -1.6 Q32.0 0.2 32.0 2.9 32.0 3.8 30.95 5.2 29.9 6.55 29.9 8.35 L31.4 13.0 Q32.8 17.35 32.8 19.3 32.8 22.0 29.75 23.3 27.4 24.3 24.55 24.3 L23.8 24.3 23.55 24.2 24.05 23.75 Q25.0 22.75 25.0 22.1 25.0 21.55 23.3 17.55 21.6 13.6 21.6 13.25 L24.7 4.4 Q24.7 3.25 22.2 0.5 L21.65 -0.15 M7.75 21.7 L7.75 21.8 2.5 21.35 -8.5 20.9 Q-28.95 20.8 -50.8 21.55 L-93.15 22.25 -94.75 22.35 -117.55 23.7 -119.35 23.8 Q-122.15 24.7 -126.05 27.65 -131.05 31.45 -134.85 31.45 L-135.65 31.4 Q-139.15 30.85 -139.15 25.45 -139.15 22.55 -137.85 19.5 -136.65 16.5 -136.65 15.4 L-136.85 14.45 -138.1 12.05 Q-139.6 9.55 -139.55 7.45 L-139.55 7.25 Q-139.0 4.1 -136.75 2.45 L-135.65 1.9 Q-133.8 1.1 -131.8 1.9 -129.6 2.55 -127.4 3.9 L-125.05 5.1 -122.95 5.9 -121.2 6.45 -94.75 7.05 -93.15 7.05 -50.8 7.1 Q-29.3 7.1 -8.5 6.35 L2.5 5.25 7.85 4.55 6.95 5.9 Q8.65 10.4 10.45 14.2 L10.5 14.35 Q9.0 17.95 7.75 21.7 M-86.85 14.05 L-50.8 13.8 -27.25 13.35 -8.5 13.05 Q-0.45 12.85 2.9 13.0 L2.9 12.9 -8.5 12.0 -17.2 11.6 -46.2 10.7 -50.8 10.75 Q-68.4 10.9 -93.15 11.5 L-94.75 11.5 -94.75 11.6 -100.35 12.0 Q-116.95 13.35 -120.4 14.2 L-114.8 14.6 -109.1 14.75 -106.5 14.6 -100.8 14.35 -98.95 14.2 -94.75 14.1 -93.15 14.1 -86.85 14.05 M-123.9 24.1 L-122.1 24.0 -119.35 23.8 -122.1 24.0 -123.9 24.1 M-135.0 18.25 L-136.85 14.45 -135.0 18.25" fill="#e3e3ba" fill-rule="evenodd" stroke="none"/>
      <path d="M23.8 24.3 L24.55 24.3 Q27.4 24.3 29.75 23.3 32.8 22.0 32.8 19.3 32.8 17.35 31.4 13.0 L29.9 8.35 Q29.9 6.55 30.95 5.2 32.0 3.8 32.0 2.9 32.0 0.2 28.65 -1.6 L27.95 -2.0 Q31.6 -2.05 33.1 0.95 34.25 3.35 34.15 7.55 L33.8 10.05 35.9 15.5 Q36.85 21.45 34.6 24.3 L34.05 24.95 Q32.75 26.1 30.7 26.55 26.2 27.5 20.95 25.45 L20.9 25.3 Q21.75 24.95 22.9 24.55 L23.8 24.3 M32.3 6.2 L33.8 10.05 32.3 6.2 M-106.5 14.6 L-109.1 14.75 -114.8 14.6 -120.4 14.2 Q-116.95 13.35 -100.35 12.0 L-94.75 11.6 -94.75 11.5 -93.15 11.5 Q-68.4 10.9 -50.8 10.75 L-46.2 10.7 -17.2 11.6 -8.5 12.0 2.9 12.9 2.9 13.0 Q-0.45 12.85 -8.5 13.05 L-27.25 13.35 -50.8 13.8 -86.85 14.05 -91.2 13.95 -93.15 13.95 -93.9 13.95 -98.95 14.2 -100.8 14.2 -106.5 14.6" fill="#c7c79b" fill-rule="evenodd" stroke="none"/>
      <path d="M21.65 -0.15 L22.2 0.5 Q24.7 3.25 24.7 4.4 L21.6 13.25 Q21.6 13.6 23.3 17.55 25.0 21.55 25.0 22.1 25.0 22.75 24.05 23.75 L23.55 24.2 23.8 24.3 22.9 24.55 Q21.75 24.95 20.9 25.3 L20.55 24.5 21.2 23.85 22.55 22.05 18.95 13.95 Q21.05 8.9 22.3 4.1 20.9 2.05 19.0 1.2 20.35 0.45 21.65 -0.15" fill="#b3b38b" fill-rule="evenodd" stroke="none"/>
      <path d="M20.55 24.5 L20.15 24.85 Q18.6 22.7 15.65 20.75 L14.8 22.35 14.7 22.55 13.15 25.25 Q11.6 25.05 10.35 24.35 12.65 21.8 15.35 16.25 18.8 8.95 18.8 5.25 18.8 3.35 17.75 1.6 L17.0 0.6 Q18.05 0.75 19.0 1.2 20.9 2.05 22.3 4.1 21.05 8.9 18.95 13.95 L22.55 22.05 21.2 23.85 20.55 24.5 M9.6 2.95 Q10.7 2.1 12.15 1.85 L13.3 3.7 14.4 5.45 Q12.9 8.55 11.5 11.8 L11.3 11.6 11.8 8.9 Q11.8 7.3 10.45 4.55 L9.6 2.95 M15.65 20.75 L15.9 20.3 18.95 13.95 15.9 20.3 15.65 20.75" fill="#663300" fill-rule="evenodd" stroke="none"/>
      <path d="M20.15 24.85 L19.9 25.0 Q18.7 25.8 17.35 26.1 L14.95 22.55 14.8 22.35 15.65 20.75 Q18.6 22.7 20.15 24.85 M10.35 24.35 Q8.95 23.45 7.85 21.8 L7.75 21.7 Q9.0 17.95 10.5 14.35 L10.55 14.1 10.45 14.2 Q8.65 10.4 6.95 5.9 L7.85 4.55 Q8.65 3.55 9.6 2.95 L10.45 4.55 Q11.8 7.3 11.8 8.9 L11.3 11.6 11.1 12.8 11.5 11.8 Q12.9 8.55 14.4 5.45 L15.4 3.4 15.45 3.25 16.85 0.6 17.0 0.6 17.75 1.6 Q18.8 3.35 18.8 5.25 18.8 8.95 15.35 16.25 12.65 21.8 10.35 24.35" fill="#8a5521" fill-rule="evenodd" stroke="none"/>
      <path d="M27.95 -2.0 Q25.35 -1.85 21.65 -0.15 20.35 0.45 19.0 1.2 20.9 2.05 22.3 4.1 21.05 8.9 18.95 13.95 L22.55 22.05 21.2 23.85 20.55 24.5 20.15 24.85 19.9 25.0 Q18.7 25.8 17.35 26.1 L14.95 22.55 14.8 22.35 14.7 22.55 13.15 25.25 Q11.6 25.05 10.35 24.35 8.95 23.45 7.85 21.8 L7.75 21.7 Q9.0 17.95 10.5 14.35 L10.45 14.2 Q8.65 10.4 6.95 5.9 L7.85 4.55 Q8.65 3.55 9.6 2.95 10.7 2.1 12.15 1.85 L13.3 3.7 14.4 5.45 15.4 3.4 15.45 3.25 16.85 0.6 17.0 0.6 Q18.05 0.75 19.0 1.2 M27.95 -2.0 Q31.6 -2.05 33.1 0.95 34.25 3.35 34.15 7.55 L33.8 10.05 35.9 15.5 Q36.85 21.45 34.6 24.3 L34.05 24.95 Q32.75 26.1 30.7 26.55 26.2 27.5 20.95 25.45 M7.75 21.8 L2.5 21.35 -8.5 20.9 Q-28.95 20.8 -50.8 21.55 L-93.15 22.25 -94.75 22.35 -117.55 23.7 -119.35 23.8 Q-122.15 24.7 -126.05 27.65 -131.05 31.45 -134.85 31.45 L-135.65 31.4 Q-139.15 30.85 -139.15 25.45 -139.15 22.55 -137.85 19.5 -136.65 16.5 -136.65 15.4 L-136.85 14.45 -138.1 12.05 Q-139.6 9.55 -139.55 7.45 L-139.55 7.25 Q-139.0 4.1 -136.75 2.45 L-135.65 1.9 Q-133.8 1.1 -131.8 1.9 -129.6 2.55 -127.4 3.9 L-125.05 5.1 -122.95 5.9 -121.2 6.45 -94.75 7.05 -93.15 7.05 -50.8 7.1 Q-29.3 7.1 -8.5 6.35 L2.5 5.25 7.85 4.55 M33.8 10.05 L32.3 6.2 M11.1 12.8 L11.5 11.8 Q12.9 8.55 14.4 5.45 M10.55 14.1 L10.5 14.35 M18.95 13.95 L15.9 20.3 15.65 20.75 14.8 22.35 M-136.85 14.45 L-135.0 18.25 M-119.35 23.8 L-122.1 24.0 -123.9 24.1" fill="none" stroke="#000000" stroke-linecap="round" stroke-linejoin="round" stroke-opacity="0.6627451" stroke-width="1.0"/>
      <path d="M-118.4 6.1 L-117.05 3.3 -115.3 0.0 -115.1 0.0 -114.2 1.25 Q-112.8 3.45 -112.8 5.85 -112.8 10.55 -117.2 19.75 -120.6 26.75 -123.5 29.95 -125.25 28.85 -126.65 26.75 L-126.8 26.6 -123.35 17.35 -123.25 17.05 -123.4 17.15 -127.8 6.65 -126.65 5.0 Q-125.65 3.7 -124.45 2.95 L-123.4 5.0 Q-121.65 8.45 -121.65 10.45 -121.65 11.5 -122.3 13.9 L-122.6 15.35 -122.05 14.1 -118.4 6.1 M-111.15 30.6 L-111.45 30.8 Q-113.0 31.8 -114.7 32.2 L-117.7 27.75 -117.9 27.45 -116.8 25.4 Q-113.1 27.85 -111.15 30.6" fill="#8a5521" fill-rule="evenodd" stroke="none"/>
      <path d="M-124.45 2.95 Q-123.05 1.9 -121.2 1.55 L-119.8 3.85 -118.4 6.1 -122.05 14.1 -122.3 13.9 Q-121.65 11.5 -121.65 10.45 -121.65 8.45 -123.4 5.0 L-124.45 2.95 M-115.1 0.0 Q-113.8 0.15 -112.6 0.7 -110.15 1.85 -108.4 4.45 -110.0 10.45 -112.65 16.85 -110.3 21.85 -108.1 27.1 L-109.75 29.35 -110.65 30.2 -111.15 30.6 Q-113.1 27.85 -116.8 25.4 L-117.9 27.45 -118.0 27.75 -119.95 31.1 Q-121.9 30.9 -123.5 29.95 -120.6 26.75 -117.2 19.75 -112.8 10.55 -112.8 5.85 -112.8 3.45 -114.2 1.25 L-115.1 0.0 M-116.8 25.4 L-116.5 24.85 Q-114.35 20.8 -112.65 16.85 -114.35 20.8 -116.5 24.85 L-116.8 25.4" fill="#663300" fill-rule="evenodd" stroke="none"/>
      <path d="M-124.45 2.95 Q-123.05 1.9 -121.2 1.55 L-119.8 3.85 -118.4 6.1 -117.05 3.3 -115.3 0.0 -115.1 0.0 Q-113.8 0.15 -112.6 0.7 -110.15 1.85 -108.4 4.45 -110.0 10.45 -112.65 16.85 -110.3 21.85 -108.1 27.1 L-109.75 29.35 -110.65 30.2 -111.15 30.6 -111.45 30.8 Q-113.0 31.8 -114.7 32.2 L-117.7 27.75 -117.9 27.45 -118.0 27.75 -119.95 31.1 Q-121.9 30.9 -123.5 29.95 -125.25 28.85 -126.65 26.75 L-126.8 26.6 -123.35 17.35 -123.25 17.05 M-123.4 17.15 L-127.8 6.65 -126.65 5.0 Q-125.65 3.7 -124.45 2.95 M-122.05 14.1 L-118.4 6.1 M-112.65 16.85 Q-114.35 20.8 -116.5 24.85 L-116.8 25.4 -117.9 27.45 M-122.05 14.1 L-122.6 15.35" fill="none" stroke="#000000" stroke-linecap="round" stroke-linejoin="round" stroke-opacity="0.6627451" stroke-width="1.0"/>
      <path d="M-53.95 -57.95 L-53.95 -57.9 Q-53.95 -57.55 -55.45 -54.1 -60.6 -43.95 -62.7 -32.75 L-64.2 -24.55 -66.1 -12.15 Q-67.85 1.4 -65.8 14.75 -65.0 19.75 -63.45 24.35 -62.75 27.95 -60.15 29.2 L-57.8 29.75 -55.5 29.8 -54.4 29.8 Q-53.45 29.8 -53.0 29.45 -52.75 27.95 -51.95 27.95 -51.65 28.35 -51.55 29.25 L-51.55 29.3 -51.5 29.3 -51.2 30.45 -51.2 30.6 -50.95 31.1 -50.85 31.25 -50.2 32.05 -50.1 32.15 Q-49.45 32.65 -47.55 32.7 L-43.95 32.6 Q-39.65 32.6 -38.65 31.7 -38.45 31.5 -38.35 30.35 -38.55 28.75 -38.35 28.05 -38.05 26.95 -37.35 27.25 -36.7 27.55 -36.35 28.55 L-36.2 29.4 -36.15 29.4 -35.35 29.7 -29.7 29.45 -24.4 28.8 -24.05 28.65 -23.25 28.0 -22.45 26.85 Q-22.15 25.6 -21.95 22.7 L-24.0 22.4 -24.05 25.35 -24.05 25.65 -24.6 25.85 -25.15 25.15 -25.35 24.1 -25.3 22.2 -25.35 20.05 -25.3 18.45 -25.2 14.8 -24.55 10.7 Q-24.0 7.95 -23.2 6.15 L-22.7 5.15 Q-21.75 3.5 -20.7 3.8 L-20.6 4.25 -20.7 4.7 -20.35 4.65 -16.8 4.35 -14.05 4.05 -14.15 -0.2 Q-14.3 -2.5 -17.55 -2.9 L-20.15 -3.25 -20.1 -2.2 -20.1 -1.7 Q-20.05 -1.45 -20.7 -1.45 -21.25 -1.45 -21.6 -2.45 -22.1 -3.65 -22.3 -6.35 L-22.45 -11.25 Q-22.45 -16.35 -21.8 -19.8 -21.25 -22.8 -19.2 -29.05 -17.15 -35.4 -15.8 -37.95 L-12.95 -42.45 Q-12.05 -43.7 -10.55 -44.8 L-10.0 -45.15 Q-8.6 -46.1 -8.6 -44.65 -8.6 -45.15 -11.15 -41.7 L-13.1 -38.8 -10.05 -40.35 -6.85 -42.0 Q-4.7 -42.75 -4.7 -41.3 -4.7 -39.75 -14.45 -36.3 L-15.45 -33.9 -18.8 -23.15 Q-20.1 -18.3 -20.3 -12.4 L-20.2 -4.45 -17.6 -4.55 -14.55 -4.15 Q-14.0 -3.9 -13.2 -3.1 -12.4 -2.25 -12.2 -0.95 L-12.15 1.1 Q-12.15 4.15 -12.3 4.65 -12.75 6.05 -14.85 6.05 L-21.2 5.85 -21.65 6.75 -22.95 9.7 -23.5 12.15 -23.9 14.9 -24.0 20.15 -24.0 20.95 -22.45 20.8 Q-20.2 20.9 -20.35 23.05 L-20.2 26.95 Q-20.2 28.55 -21.3 29.65 -22.6 30.95 -25.25 31.45 L-28.7 31.7 -36.1 31.3 Q-36.15 32.05 -36.35 32.6 L-36.95 33.4 Q-37.5 33.9 -38.4 34.3 -40.4 35.05 -44.0 35.05 L-49.5 34.5 Q-51.4 33.95 -52.3 33.0 L-52.9 32.0 -54.25 32.1 -55.5 32.1 -57.9 32.25 Q-63.4 31.95 -65.6 26.2 L-66.2 24.35 Q-69.6 12.2 -69.3 -0.45 -69.05 -12.6 -66.9 -24.55 -65.05 -35.05 -61.55 -45.1 -59.95 -49.7 -57.95 -54.1 -55.55 -58.7 -54.8 -58.7 L-54.25 -58.45 -54.2 -58.4 -53.95 -57.95" fill="#000000" fill-rule="evenodd" stroke="none"/>
      <path d="M-60.15 29.2 Q-62.75 27.95 -63.45 24.35 -65.0 19.75 -65.8 14.75 -67.85 1.4 -66.1 -12.15 L-64.2 -24.55 -62.7 -32.75 Q-60.6 -43.95 -55.45 -54.1 -53.95 -57.55 -53.95 -57.9 L-53.95 -57.95 -53.3 -57.95 -53.55 -57.3 Q-58.1 -46.35 -60.0 -34.3 L-61.3 -25.5 Q-62.3 -18.8 -63.4 -7.25 -64.55 4.3 -63.25 13.35 -62.0 22.35 -61.2 25.35 L-60.15 29.2 M-10.0 -45.15 L-10.55 -44.8 Q-12.05 -43.7 -12.95 -42.45 L-15.8 -37.95 Q-17.15 -35.4 -19.2 -29.05 -21.25 -22.8 -21.8 -19.8 -22.45 -16.35 -22.45 -11.25 L-22.3 -6.35 Q-22.1 -3.65 -21.6 -2.45 L-22.2 -2.55 -23.45 -3.1 Q-23.65 -3.2 -23.85 -3.45 L-24.1 -5.9 -24.25 -11.15 Q-24.25 -16.65 -23.65 -20.35 -23.2 -23.6 -21.35 -30.3 -19.55 -37.15 -18.35 -39.9 -17.3 -42.4 -15.8 -44.75 L-13.7 -47.3 -13.6 -47.35 -10.0 -45.15 M-20.1 -2.2 L-20.15 -3.25 -17.55 -2.9 Q-14.3 -2.5 -14.15 -0.2 L-14.05 4.05 -16.8 4.35 -16.9 0.75 Q-17.0 -1.75 -19.9 -2.2 L-20.1 -2.2 M-22.7 5.15 L-23.2 6.15 Q-24.0 7.95 -24.55 10.7 L-25.2 14.8 -25.3 18.45 -25.35 20.05 -25.3 22.2 -25.35 24.1 -25.15 25.15 -25.5 25.05 -25.95 24.8 -26.35 24.35 -26.6 23.85 -26.8 22.7 -26.8 22.55 -26.8 20.8 -26.7 16.9 -26.1 12.45 Q-25.6 9.5 -24.9 7.55 -23.85 4.65 -22.7 5.05 L-22.7 5.15 M-24.05 25.35 L-24.0 22.4 -21.95 22.7 Q-22.15 25.6 -22.45 26.85 L-23.25 28.0 -24.05 28.65 -23.8 25.4 -24.05 25.35 M-50.1 32.15 L-50.2 32.05 -50.85 31.25 -50.45 31.05 Q-50.2 31.4 -50.1 32.15" fill="#bdbdbd" fill-rule="evenodd" stroke="none"/>
      <path d="M-60.15 29.2 L-61.2 25.35 Q-62.0 22.35 -63.25 13.35 -64.55 4.3 -63.4 -7.25 -62.3 -18.8 -61.3 -25.5 L-60.0 -34.3 Q-58.1 -46.35 -53.55 -57.3 L-53.3 -57.95 Q-31.7 -57.75 -13.6 -47.35 L-13.7 -47.3 -15.8 -44.75 Q-17.3 -42.4 -18.35 -39.9 -19.55 -37.15 -21.35 -30.3 -23.2 -23.6 -23.65 -20.35 -24.25 -16.65 -24.25 -11.15 L-24.1 -5.9 -23.85 -3.45 Q-23.65 -3.2 -23.45 -3.1 L-22.2 -2.55 -21.6 -2.45 Q-21.25 -1.45 -20.7 -1.45 -20.05 -1.45 -20.1 -1.7 L-20.1 -2.2 -19.9 -2.2 Q-17.0 -1.75 -16.9 0.75 L-16.8 4.35 -20.35 4.65 -20.7 4.7 -20.6 4.25 -20.7 3.8 Q-21.75 3.5 -22.7 5.15 L-22.7 5.05 Q-23.85 4.65 -24.9 7.55 -25.6 9.5 -26.1 12.45 L-26.7 16.9 -26.8 20.8 -26.8 22.55 -26.8 22.7 -26.6 23.85 -26.35 24.35 -25.95 24.8 -25.5 25.05 -25.15 25.15 -24.6 25.85 -24.05 25.65 -24.05 25.35 -23.8 25.4 -24.05 28.65 -24.4 28.8 -29.7 29.45 -35.35 29.7 -36.15 29.4 -36.2 29.4 -36.35 28.55 Q-36.7 27.55 -37.35 27.25 -38.05 26.95 -38.35 28.05 -38.55 28.75 -38.35 30.35 -38.45 31.5 -38.65 31.7 -39.65 32.6 -43.95 32.6 L-47.55 32.7 Q-49.45 32.65 -50.1 32.15 -50.2 31.4 -50.45 31.05 L-50.85 31.25 -50.95 31.1 -51.2 30.6 -51.2 30.45 -51.5 29.3 -51.55 29.3 -51.55 29.25 Q-51.65 28.35 -51.95 27.95 -52.75 27.95 -53.0 29.45 -53.45 29.8 -54.4 29.8 L-55.5 29.8 -57.8 29.75 -60.15 29.2" fill="#999999" fill-rule="evenodd" stroke="none"/>
    </g>
  </defs>
</svg>
