<?xml version="1.0" encoding="UTF-8" standalone="no"?>
<svg xmlns:xlink="http://www.w3.org/1999/xlink" height="531.5px" width="460.6px" xmlns="http://www.w3.org/2000/svg">
  <g transform="matrix(1.0, 0.0, 0.0, 1.0, 193.65, 334.05)">
    <use height="191.6" transform="matrix(1.0, 0.0, 0.0, 1.0, -73.5, -149.85)" width="199.3" xlink:href="#shape0"/>
    <use height="136.25" transform="matrix(1.1849, 1.2441, -1.2441, 1.1849, 23.1063, -239.5483)" width="154.25" xlink:href="#shape1"/>
    <use height="46.1" transform="matrix(1.0, 0.0, 0.0, 1.0, 86.9, -70.2)" width="38.9" xlink:href="#shape2"/>
  </g>
  <defs>
    <g id="shape0" transform="matrix(1.0, 0.0, 0.0, 1.0, 73.5, 149.85)">
      <path d="M17.7 -73.2 L21.15 -80.6 32.45 -103.9 Q36.1 -111.55 42.95 -127.3 49.3 -141.1 54.8 -149.85 L55.75 -149.45 Q56.05 -149.15 56.05 -148.15 56.05 -145.55 38.4 -109.9 L18.55 -70.6 18.1 -72.05 17.7 -73.2 M25.9 -22.6 L40.95 2.6 Q54.15 24.7 62.75 41.15 62.65 41.15 62.3 41.4 L61.6 41.75 38.05 2.9 Q29.35 -11.75 23.45 -23.45 24.65 -22.95 25.9 -22.6" fill="#33281e" fill-rule="evenodd" stroke="none"/>
      <path d="M18.55 -70.6 L18.6 -69.95 18.6 -69.65 18.65 -69.1 18.65 -69.0 21.4 -69.15 Q25.8 -68.9 28.3 -67.45 30.55 -66.15 30.4 -64.6 L30.45 -58.9 Q30.45 -57.1 29.75 -55.0 L28.8 -53.05 Q35.8 -51.15 37.75 -49.15 38.9 -47.95 38.9 -44.65 38.9 -42.2 38.15 -40.0 37.5 -38.15 36.45 -37.05 L35.95 -36.8 35.65 -36.65 34.5 -36.6 32.5 -36.5 31.95 -36.5 28.55 -36.7 Q26.4 -36.75 24.75 -37.9 L23.65 -38.55 19.95 -38.45 19.15 -38.25 19.25 -37.7 31.55 -35.5 32.15 -35.35 Q36.15 -34.2 36.15 -29.15 36.15 -26.75 35.75 -25.25 35.5 -23.7 34.1 -22.2 L32.3 -21.9 31.1 -21.85 Q28.45 -21.9 25.9 -22.6 24.65 -22.95 23.45 -23.45 L23.15 -23.55 23.0 -23.6 17.45 -25.0 16.55 -25.1 Q13.0 -25.05 10.35 -22.4 L1.75 -16.75 Q-11.95 -8.5 -28.35 -6.15 L-34.25 -5.85 -35.8 -5.85 Q-48.75 -5.85 -53.45 -9.15 L-54.0 -9.05 Q-59.45 -9.05 -65.4 -13.95 -69.85 -17.6 -70.6 -19.45 -73.15 -25.1 -73.4 -26.25 L-73.5 -31.45 Q-73.5 -40.95 -69.95 -48.85 -66.3 -57.05 -60.2 -60.45 L-59.85 -60.25 Q-59.7 -60.15 -59.7 -59.7 L-59.7 -59.55 -62.9 -56.2 Q-66.5 -51.65 -68.7 -45.55 -71.3 -38.15 -71.3 -31.3 -71.3 -20.1 -62.0 -14.9 -59.95 -13.75 -55.6 -12.15 L-55.55 -12.1 -55.8 -12.95 -55.85 -13.0 Q-57.25 -13.55 -58.8 -14.45 -62.6 -16.65 -62.6 -17.95 L-62.6 -18.05 Q-62.6 -22.6 -62.1 -24.25 L-61.25 -27.65 Q-60.5 -29.65 -59.45 -29.4 L-60.0 -27.8 -60.7 -25.05 -60.8 -22.9 -60.7 -20.85 -60.7 -20.7 Q-60.7 -17.6 -55.9 -15.75 -51.05 -13.95 -51.0 -12.95 L-51.2 -12.45 Q-51.4 -12.15 -52.0 -12.15 L-52.9 -12.2 Q-52.15 -11.65 -49.2 -10.15 -46.3 -8.65 -39.9 -8.45 -33.55 -8.25 -25.3 -8.85 -17.1 -9.45 -0.85 -17.55 L10.35 -24.95 Q12.4 -27.35 15.55 -27.25 L17.45 -27.2 20.25 -26.35 22.35 -25.55 23.15 -25.25 Q23.85 -25.0 24.6 -24.7 L25.1 -24.55 Q28.55 -23.5 32.1 -23.6 L33.2 -23.7 Q34.55 -24.9 34.55 -27.05 L34.65 -29.1 34.4 -31.7 Q33.8 -33.15 31.85 -33.7 L30.85 -33.9 Q28.05 -34.3 23.55 -35.45 20.45 -36.2 19.2 -36.7 L19.15 -36.75 18.5 -37.1 18.4 -37.15 Q18.0 -37.5 18.0 -38.2 L18.0 -38.25 17.65 -38.25 17.5 -38.4 Q18.1 -39.25 20.25 -40.05 L20.95 -40.35 21.75 -40.55 21.8 -40.55 23.0 -40.65 25.05 -39.45 Q26.65 -38.7 28.55 -38.45 L31.55 -38.3 32.65 -38.3 35.0 -38.8 Q35.75 -39.65 36.2 -41.25 36.7 -42.9 36.7 -44.6 36.7 -46.5 36.5 -46.9 35.9 -47.9 33.0 -49.4 L32.95 -49.45 27.6 -51.1 25.5 -51.9 22.4 -52.55 20.85 -52.4 15.0 -49.95 11.0 -48.35 Q10.6 -48.45 10.45 -48.65 11.0 -49.4 12.95 -50.45 L14.25 -51.25 14.25 -51.45 Q14.25 -53.1 14.6 -53.4 14.95 -53.8 17.6 -54.85 L17.2 -55.7 Q17.9 -55.8 18.4 -55.4 L19.1 -54.8 Q19.25 -54.65 19.9 -54.35 20.05 -54.25 20.25 -54.2 L20.85 -54.3 22.9 -54.5 26.3 -54.0 27.05 -53.75 27.8 -55.4 28.75 -58.0 28.8 -62.5 Q28.8 -65.1 28.1 -65.8 27.35 -66.55 25.95 -67.0 23.1 -68.0 17.4 -68.0 L17.15 -68.0 15.3 -67.85 12.55 -67.5 7.8 -66.75 7.25 -67.0 Q8.4 -67.85 9.9 -68.2 L15.75 -68.85 16.0 -68.9 17.2 -68.95 Q16.9 -69.25 16.75 -69.85 L16.6 -70.8 16.6 -71.25 Q16.35 -72.85 15.65 -73.15 L13.1 -73.3 12.8 -73.3 Q9.1 -73.2 3.35 -71.1 1.1 -70.25 -3.2 -68.3 -4.55 -67.65 -4.9 -66.6 L-5.05 -65.0 -5.15 -61.75 -5.1 -61.4 -5.05 -61.4 -5.05 -61.1 -5.05 -61.0 -1.7 -62.25 -2.65 -60.55 -3.0 -60.05 -4.65 -58.95 Q-8.45 -57.45 -13.3 -56.65 L-13.75 -56.6 -24.9 -56.0 -28.85 -56.2 -29.8 -56.2 -38.65 -55.8 Q-44.7 -55.15 -49.2 -52.55 -53.75 -50.0 -57.85 -48.05 -55.05 -52.4 -50.45 -54.85 L-46.55 -56.75 Q-44.05 -57.65 -42.4 -57.75 L-33.25 -58.35 -33.45 -59.45 -33.4 -59.7 -33.0 -60.15 -32.0 -58.6 -31.9 -58.4 -28.85 -58.6 Q-20.75 -58.2 -13.75 -58.85 L-13.3 -58.95 -11.45 -59.2 -8.35 -59.9 Q-6.85 -60.35 -6.65 -60.65 L-6.35 -60.95 -6.4 -61.25 -6.4 -61.3 -6.4 -61.5 -6.5 -62.0 -6.55 -63.1 -6.6 -66.55 Q-6.6 -68.4 -3.1 -70.3 0.15 -72.1 5.0 -73.3 L9.95 -74.65 11.3 -74.85 13.35 -75.05 13.65 -75.05 Q16.65 -75.1 17.45 -73.85 L17.6 -73.45 17.7 -73.2 18.1 -72.05 18.55 -70.6 M15.35 -51.85 L18.7 -53.55 18.1 -54.15 Q17.6 -53.7 16.2 -53.15 15.05 -52.6 15.2 -52.1 L15.35 -51.85" fill="#000000" fill-rule="evenodd" stroke="none"/>
      <path d="M-59.7 -59.7 L-58.1 -59.6 Q-59.85 -57.95 -61.35 -55.25 L-64.75 -48.2 Q-66.9 -44.0 -67.65 -39.75 -68.25 -36.45 -68.25 -30.95 -68.25 -26.75 -67.9 -25.8 L-64.5 -20.2 Q-63.85 -19.15 -62.6 -18.05 L-62.6 -17.95 Q-62.6 -16.65 -58.8 -14.45 -57.25 -13.55 -55.85 -13.0 L-55.8 -12.95 -55.55 -12.1 -55.6 -12.15 Q-59.95 -13.75 -62.0 -14.9 -71.3 -20.1 -71.3 -31.3 -71.3 -38.15 -68.7 -45.55 -66.5 -51.65 -62.9 -56.2 L-59.7 -59.55 -59.7 -59.7 M12.8 -73.3 L13.1 -73.3 15.65 -73.15 Q16.35 -72.85 16.6 -71.25 L16.6 -70.8 16.75 -69.85 Q16.9 -69.25 17.2 -68.95 L16.0 -68.9 15.85 -69.0 Q14.6 -69.8 13.85 -71.45 L12.8 -73.3 M25.95 -67.0 Q27.35 -66.55 28.1 -65.8 28.8 -65.1 28.8 -62.5 L28.75 -58.0 27.8 -55.4 27.05 -53.75 26.3 -54.0 26.65 -56.75 27.0 -60.45 Q27.0 -65.8 26.35 -66.65 L25.95 -67.0 M33.0 -49.4 Q35.9 -47.9 36.5 -46.9 36.7 -46.5 36.7 -44.6 36.7 -42.9 36.2 -41.25 35.75 -39.65 35.0 -38.8 L32.65 -38.3 33.0 -39.35 Q34.5 -43.45 34.5 -44.95 34.5 -48.0 33.0 -49.4 M31.85 -33.7 Q33.8 -33.15 34.4 -31.7 L34.65 -29.1 34.55 -27.05 Q34.55 -24.9 33.2 -23.7 L32.1 -23.6 32.2 -23.9 Q32.75 -25.4 32.75 -27.6 L32.15 -32.0 31.85 -33.7" fill="#bdbdbd" fill-rule="evenodd" stroke="none"/>
      <path d="M-58.1 -59.6 L-49.85 -59.75 -39.3 -60.15 -36.1 -60.1 -33.4 -59.7 -33.45 -59.45 -33.25 -58.35 -42.4 -57.75 Q-44.05 -57.65 -46.55 -56.75 L-50.45 -54.85 Q-55.05 -52.4 -57.85 -48.05 -53.75 -50.0 -49.2 -52.55 -44.7 -55.15 -38.65 -55.8 L-29.8 -56.2 -28.85 -56.2 -24.9 -56.0 -13.75 -56.6 -13.3 -56.65 Q-8.45 -57.45 -4.65 -58.95 L-3.0 -60.05 -2.65 -60.55 -1.7 -62.25 -5.05 -61.0 -5.05 -61.1 -5.05 -61.4 -5.1 -61.4 -5.15 -61.75 -5.05 -65.0 -4.9 -66.6 Q-4.55 -67.65 -3.2 -68.3 1.1 -70.25 3.35 -71.1 9.1 -73.2 12.8 -73.3 L13.85 -71.45 Q14.6 -69.8 15.85 -69.0 L16.0 -68.9 15.75 -68.85 9.9 -68.2 Q8.4 -67.85 7.25 -67.0 L7.8 -66.75 12.55 -67.5 15.3 -67.85 17.15 -68.0 17.4 -68.0 Q23.1 -68.0 25.95 -67.0 L26.35 -66.65 Q27.0 -65.8 27.0 -60.45 L26.65 -56.75 26.3 -54.0 22.9 -54.5 20.85 -54.3 20.25 -54.2 Q20.05 -54.25 19.9 -54.35 19.25 -54.65 19.1 -54.8 L18.4 -55.4 Q17.9 -55.8 17.2 -55.7 L17.6 -54.85 Q14.95 -53.8 14.6 -53.4 14.25 -53.1 14.25 -51.45 L14.25 -51.25 12.95 -50.45 Q11.0 -49.4 10.45 -48.65 10.6 -48.45 11.0 -48.35 L15.0 -49.95 20.85 -52.4 22.4 -52.55 25.5 -51.9 27.6 -51.1 32.95 -49.45 33.0 -49.4 Q34.5 -48.0 34.5 -44.95 34.5 -43.45 33.0 -39.35 L32.65 -38.3 31.55 -38.3 28.55 -38.45 Q26.65 -38.7 25.05 -39.45 L23.0 -40.65 21.8 -40.55 21.75 -40.55 20.95 -40.35 20.25 -40.05 Q18.1 -39.25 17.5 -38.4 L17.65 -38.25 18.0 -38.25 18.0 -38.2 Q18.0 -37.5 18.4 -37.15 L18.5 -37.1 19.15 -36.75 19.2 -36.7 Q20.45 -36.2 23.55 -35.45 28.05 -34.3 30.85 -33.9 L31.85 -33.7 32.15 -32.0 32.75 -27.6 Q32.75 -25.4 32.2 -23.9 L32.1 -23.6 Q28.55 -23.5 25.1 -24.55 L24.6 -24.7 Q23.85 -25.0 23.15 -25.25 L22.35 -25.55 20.25 -26.35 17.45 -27.2 15.55 -27.25 Q12.4 -27.35 10.35 -24.95 L-0.85 -17.55 Q-17.1 -9.45 -25.3 -8.85 -33.55 -8.25 -39.9 -8.45 -46.3 -8.65 -49.2 -10.15 -52.15 -11.65 -52.9 -12.2 L-52.0 -12.15 Q-51.4 -12.15 -51.2 -12.45 L-51.0 -12.95 Q-51.05 -13.95 -55.9 -15.75 -60.7 -17.6 -60.7 -20.7 L-60.7 -20.85 -60.8 -22.9 -60.7 -25.05 -60.0 -27.8 -59.45 -29.4 Q-60.5 -29.65 -61.25 -27.65 L-62.1 -24.25 Q-62.6 -22.6 -62.6 -18.05 -63.85 -19.15 -64.5 -20.2 L-67.9 -25.8 Q-68.25 -26.75 -68.25 -30.95 -68.25 -36.45 -67.65 -39.75 -66.9 -44.0 -64.75 -48.2 L-61.35 -55.25 Q-59.85 -57.95 -58.1 -59.6" fill="#999999" fill-rule="evenodd" stroke="none"/>
      <path d="M105.95 -74.8 L102.35 -75.2 97.75 -75.15 Q91.3 -75.4 89.85 -73.9 88.35 -72.4 88.25 -71.95 86.7 -69.0 86.0 -65.7 L85.3 -62.75 84.75 -60.95 84.5 -60.6 84.1 -61.6 83.0 -60.5 80.9 -58.5 Q78.85 -56.3 78.35 -54.6 77.6 -52.15 77.5 -50.55 L77.55 -47.0 Q77.55 -44.1 78.0 -41.65 78.35 -39.7 79.4 -35.85 L80.15 -33.1 Q80.8 -31.35 81.75 -30.3 83.1 -28.9 85.4 -27.7 88.55 -26.05 91.85 -26.0 L92.05 -26.0 96.25 -26.1 97.65 -26.25 99.55 -26.8 96.25 -28.45 93.55 -30.3 Q93.0 -30.95 93.0 -32.5 93.0 -34.5 93.85 -37.45 L94.65 -38.95 95.15 -39.65 94.55 -39.8 92.6 -38.65 Q89.9 -37.2 88.5 -37.2 87.8 -37.2 86.9 -37.65 87.2 -38.15 91.45 -39.7 L92.65 -40.45 Q91.2 -41.0 90.25 -41.65 88.55 -42.8 88.25 -44.4 88.1 -45.25 88.3 -46.45 88.2 -49.5 89.15 -51.85 90.45 -54.9 93.25 -54.5 L93.25 -55.2 93.35 -58.55 Q92.8 -58.75 92.15 -59.15 L90.25 -60.25 Q90.75 -61.4 93.2 -60.85 L93.55 -60.75 Q93.75 -62.5 94.15 -63.35 95.75 -66.7 100.7 -68.35 102.8 -69.05 105.5 -69.45 L109.45 -69.9 110.95 -70.05 110.9 -70.15 109.95 -72.2 Q108.75 -74.15 105.95 -74.8 M80.6 -60.4 Q82.9 -62.45 84.05 -62.65 L84.05 -62.75 Q84.65 -67.55 86.6 -72.05 L87.35 -73.75 88.25 -74.8 Q91.8 -77.3 96.25 -77.1 L97.75 -77.2 102.0 -77.2 103.75 -77.2 Q108.4 -77.15 111.05 -74.25 112.95 -72.2 113.0 -70.15 118.15 -70.3 119.9 -69.25 121.6 -68.2 122.15 -67.4 L122.75 -66.3 123.8 -63.6 Q124.65 -60.8 124.65 -58.65 L124.5 -57.2 124.55 -56.55 123.6 -53.95 123.5 -53.5 123.6 -53.45 Q123.65 -53.2 123.95 -53.1 L124.0 -53.1 Q125.15 -52.3 125.55 -50.0 125.9 -48.25 125.75 -46.35 125.75 -43.2 124.05 -41.4 123.05 -40.3 121.4 -39.55 L121.95 -38.7 122.25 -36.4 Q122.25 -28.4 119.05 -25.95 116.6 -24.1 109.25 -24.1 107.1 -24.1 102.55 -25.7 L102.15 -25.85 101.15 -25.95 101.0 -25.85 Q99.95 -24.3 91.9 -24.3 85.3 -24.3 80.45 -29.15 78.85 -30.75 77.8 -35.15 L76.35 -41.65 Q76.05 -43.35 76.05 -47.05 L76.05 -50.95 Q76.15 -52.55 76.9 -55.25 77.55 -57.7 80.6 -60.4 M120.5 -54.2 Q121.75 -54.9 122.4 -55.8 L123.15 -57.0 123.4 -58.35 123.3 -59.6 122.35 -63.75 121.85 -65.45 Q121.35 -66.85 119.3 -67.8 L118.4 -68.2 114.25 -68.85 105.65 -67.9 Q101.2 -66.75 99.3 -65.85 L98.95 -65.65 Q97.05 -64.7 96.4 -63.45 95.75 -62.25 95.45 -61.1 94.8 -58.0 95.4 -55.5 L95.6 -54.65 Q95.8 -53.85 96.45 -53.45 96.9 -53.1 98.3 -52.8 L99.05 -52.7 99.65 -52.6 99.8 -52.55 Q108.5 -51.9 115.5 -52.9 118.4 -53.25 119.8 -53.9 L120.5 -54.2 M120.5 -41.3 L122.5 -42.65 Q123.9 -44.0 123.9 -47.35 L123.6 -49.7 123.45 -50.9 123.4 -51.1 Q123.15 -52.2 122.15 -52.2 121.6 -52.2 121.15 -51.85 L121.1 -51.85 115.6 -51.0 110.65 -50.7 105.8 -50.7 101.7 -50.75 99.8 -50.85 95.5 -51.2 95.15 -51.3 Q95.05 -51.3 94.95 -51.4 L94.7 -51.45 Q94.2 -51.65 93.9 -52.05 L93.75 -52.35 93.05 -52.55 Q92.15 -52.7 91.15 -51.6 L90.3 -50.25 Q90.15 -49.7 90.15 -47.5 90.15 -45.55 90.4 -44.9 91.0 -43.35 93.2 -42.4 L93.95 -42.15 98.4 -41.2 107.5 -40.0 Q112.2 -39.6 115.1 -40.1 L119.55 -40.95 120.5 -41.3 M120.1 -37.35 L119.45 -38.2 Q118.9 -38.35 118.35 -38.6 L112.75 -38.15 99.35 -38.85 98.9 -38.95 97.05 -39.05 96.85 -38.95 96.65 -38.65 Q95.7 -37.4 95.65 -36.95 L95.25 -35.45 94.9 -33.8 95.1 -32.05 Q95.25 -31.4 95.6 -30.9 L96.25 -30.2 97.0 -29.75 Q98.25 -29.0 99.6 -28.35 103.65 -26.55 108.05 -26.35 L110.1 -26.35 112.0 -26.45 Q114.95 -26.45 116.85 -27.25 118.35 -27.95 119.1 -29.2 120.25 -31.05 120.25 -36.0 L120.1 -37.35" fill="#000000" fill-rule="evenodd" stroke="none"/>
      <path d="M109.45 -69.9 L105.5 -69.45 Q102.8 -69.05 100.7 -68.35 95.75 -66.7 94.15 -63.35 93.75 -62.5 93.55 -60.75 L93.2 -60.85 Q90.75 -61.4 90.25 -60.25 L92.15 -59.15 Q92.8 -58.75 93.35 -58.55 L93.25 -55.2 93.25 -54.5 Q90.45 -54.9 89.15 -51.85 88.2 -49.5 88.3 -46.45 88.1 -45.25 88.25 -44.4 88.55 -42.8 90.25 -41.65 91.2 -41.0 92.65 -40.45 L91.45 -39.7 Q87.2 -38.15 86.9 -37.65 87.8 -37.2 88.5 -37.2 89.9 -37.2 92.6 -38.65 L94.55 -39.8 95.15 -39.65 94.65 -38.95 93.85 -37.45 Q93.0 -34.5 93.0 -32.5 93.0 -30.95 93.55 -30.3 L96.25 -28.45 99.55 -26.8 97.65 -26.25 96.25 -26.1 92.05 -26.0 91.85 -26.0 Q88.55 -26.05 85.4 -27.7 83.1 -28.9 81.75 -30.3 80.8 -31.35 80.15 -33.1 L79.4 -35.85 Q78.35 -39.7 78.0 -41.65 77.55 -44.1 77.55 -47.0 L77.5 -50.55 Q77.6 -52.15 78.35 -54.6 78.85 -56.3 80.9 -58.5 L83.0 -60.5 84.1 -61.6 84.5 -60.6 84.75 -60.95 85.3 -62.75 86.0 -65.7 Q86.7 -69.0 88.25 -71.95 88.35 -72.4 89.85 -73.9 91.3 -75.4 97.75 -75.15 L102.35 -75.2 105.95 -74.8 Q107.2 -73.85 107.75 -72.2 108.3 -70.55 109.45 -69.9 M120.5 -54.2 L119.8 -53.9 Q118.4 -53.25 115.5 -52.9 108.5 -51.9 99.8 -52.55 L99.65 -52.6 99.05 -52.7 98.25 -55.25 98.2 -58.35 Q98.2 -63.0 99.3 -65.85 101.2 -66.75 105.65 -67.9 L114.25 -68.85 118.4 -68.2 Q119.4 -66.75 120.0 -64.15 120.8 -60.65 120.8 -55.95 L120.5 -54.2 M121.1 -51.85 Q121.6 -50.75 121.6 -49.35 121.6 -46.4 120.9 -43.25 L120.5 -41.3 119.55 -40.95 115.1 -40.1 Q112.2 -39.6 107.5 -40.0 L98.4 -41.2 93.95 -42.15 Q93.4 -43.4 93.4 -46.05 93.4 -49.95 94.1 -50.95 L94.7 -51.45 94.95 -51.4 Q95.05 -51.3 95.15 -51.3 L95.5 -51.2 99.8 -50.85 101.7 -50.75 105.8 -50.7 110.65 -50.7 115.6 -51.0 121.1 -51.85 M99.35 -38.85 L112.75 -38.15 118.35 -38.6 Q118.9 -38.35 119.45 -38.2 L120.1 -37.35 119.5 -35.75 Q118.5 -33.85 118.2 -32.75 117.65 -30.95 116.85 -27.25 114.95 -26.45 112.0 -26.45 L110.1 -26.35 108.05 -26.35 Q103.65 -26.55 99.6 -28.35 98.25 -29.0 97.0 -29.75 L97.0 -30.05 Q97.0 -31.5 98.3 -35.65 L99.35 -38.85" fill="#999999" fill-rule="evenodd" stroke="none"/>
      <path d="M109.45 -69.9 Q108.3 -70.55 107.75 -72.2 107.2 -73.85 105.95 -74.8 108.75 -74.15 109.95 -72.2 L110.9 -70.15 110.95 -70.05 109.45 -69.9 M118.4 -68.2 L119.3 -67.8 Q121.35 -66.85 121.85 -65.45 L122.35 -63.75 123.3 -59.6 123.4 -58.35 123.15 -57.0 122.4 -55.8 Q121.75 -54.9 120.5 -54.2 L120.8 -55.95 Q120.8 -60.65 120.0 -64.15 119.4 -66.75 118.4 -68.2 M99.05 -52.7 L98.3 -52.8 Q96.9 -53.1 96.45 -53.45 95.8 -53.85 95.6 -54.65 L95.4 -55.5 Q94.8 -58.0 95.45 -61.1 95.75 -62.25 96.4 -63.45 97.05 -64.7 98.95 -65.65 L99.3 -65.85 Q98.2 -63.0 98.2 -58.35 L98.25 -55.25 99.05 -52.7 M121.1 -51.85 L121.15 -51.85 Q121.6 -52.2 122.15 -52.2 123.15 -52.2 123.4 -51.1 L123.45 -50.9 123.6 -49.7 123.9 -47.35 Q123.9 -44.0 122.5 -42.65 L120.5 -41.3 120.9 -43.25 Q121.6 -46.4 121.6 -49.35 121.6 -50.75 121.1 -51.85 M93.95 -42.15 L93.2 -42.4 Q91.0 -43.35 90.4 -44.9 90.15 -45.55 90.15 -47.5 90.15 -49.7 90.3 -50.25 L91.15 -51.6 Q92.15 -52.7 93.05 -52.55 L93.75 -52.35 93.9 -52.05 Q94.2 -51.65 94.7 -51.45 L94.1 -50.95 Q93.4 -49.95 93.4 -46.05 93.4 -43.4 93.95 -42.15 M99.35 -38.85 L98.3 -35.65 Q97.0 -31.5 97.0 -30.05 L97.0 -29.75 96.25 -30.2 95.6 -30.9 Q95.25 -31.4 95.1 -32.05 L94.9 -33.8 95.25 -35.45 95.65 -36.95 Q95.7 -37.4 96.65 -38.65 L96.85 -38.95 97.05 -39.05 98.9 -38.95 99.35 -38.85 M116.85 -27.25 Q117.65 -30.95 118.2 -32.75 118.5 -33.85 119.5 -35.75 L120.1 -37.35 120.25 -36.0 Q120.25 -31.05 119.1 -29.2 118.35 -27.95 116.85 -27.25" fill="#bdbdbd" fill-rule="evenodd" stroke="none"/>
    </g>
    <g id="shape1" transform="matrix(1.0, 0.0, 0.0, 1.0, 103.1, 49.65)">
      <path d="M26.2 6.6 Q25.65 2.3 23.45 0.65 L22.35 3.1 22.2 0.85 Q22.2 0.05 21.6 -1.55 21.6 -2.6 20.3 -4.55 L24.75 -4.85 25.2 -5.2 Q27.55 -0.6 26.2 6.6 M-8.45 -24.85 L-6.2 -26.7 Q-8.25 -27.9 -11.8 -27.8 -4.8 -30.3 0.1 -28.75 L-0.15 -28.3 0.25 -23.15 0.15 -23.2 Q-3.35 -24.65 -4.85 -24.65 L-8.45 -24.85 M-30.6 -23.15 Q-28.7 -23.05 -27.25 -23.9 -25.25 -25.65 -24.25 -26.0 L-22.8 -25.75 -21.55 -25.3 -21.7 -24.55 -21.7 -24.45 Q-23.05 -25.05 -23.65 -24.15 L-22.55 -23.1 -27.15 -21.0 Q-28.6 -21.95 -30.3 -21.8 L-30.4 -22.45 -30.6 -23.15 M-33.5 -28.65 Q-33.15 -31.05 -31.35 -32.5 -28.8 -31.95 -28.35 -30.6 -29.35 -27.6 -32.65 -26.0 -33.7 -26.7 -33.5 -28.65 M-24.35 -32.9 L-25.8 -34.15 Q-26.45 -35.5 -25.2 -35.1 L-23.8 -33.55 -24.35 -32.9 M-26.55 -33.8 L-24.55 -31.65 -25.35 -30.8 -27.3 -32.55 Q-28.15 -34.35 -26.55 -33.8 M-27.05 -34.8 Q-28.95 -35.05 -29.55 -36.2 -29.9 -37.4 -29.1 -37.95 -27.3 -38.0 -26.7 -36.6 L-27.05 -34.8" fill="#000000" fill-rule="evenodd" stroke="none"/>
      <path d="M14.0 20.3 L13.55 20.35 13.45 20.35 14.0 20.3 M-45.85 -26.6 L-45.7 -26.8 -45.85 -26.45 -45.9 -26.4 -45.85 -26.45 -45.9 -26.45 -45.85 -26.55 -45.85 -26.6 M-45.9 -26.4 L-45.9 -26.45 -45.85 -26.45 -45.85 -26.55 -45.85 -26.45 -45.85 -26.55 -45.85 -26.45 -45.9 -26.4" fill="#333333" fill-rule="evenodd" stroke="none"/>
      <path d="M4.0 -36.55 L3.55 -37.55 2.9 -39.15 Q6.35 -40.7 9.45 -40.2 6.2 -39.05 4.0 -36.55 M9.75 -40.15 L10.05 -40.1 Q7.2 -37.2 5.3 -33.85 L4.75 -32.85 3.1 -32.9 Q4.8 -36.25 6.2 -37.1 7.1 -38.2 9.75 -40.15 M2.8 -22.5 L2.8 -22.1 2.8 -21.8 2.5 -21.9 2.65 -22.15 2.8 -22.5 M4.5 -19.4 L5.25 -18.55 -2.0 -10.35 -2.6 -10.45 -2.85 -11.55 Q-2.85 -12.65 1.05 -16.3 L4.5 -19.4 M6.6 -18.3 Q9.5 -17.55 10.8 -15.25 8.55 -10.95 5.25 -8.0 L3.65 -8.9 Q1.65 -10.1 1.65 -10.5 L1.6 -10.85 1.8 -11.9 Q1.8 -12.6 6.6 -18.3 M12.25 -14.25 Q14.45 -12.4 14.2 -10.2 12.1 -6.5 9.0 -2.9 L7.85 -4.5 Q7.15 -5.35 7.15 -5.65 L7.1 -5.9 8.95 -9.85 Q10.5 -12.55 12.25 -14.25 M15.05 -9.15 Q15.55 -8.2 15.45 -7.05 L14.9 -6.2 9.85 1.2 Q9.5 0.6 9.5 0.1 9.5 -0.5 10.55 -2.45 L12.1 -5.0 12.95 -6.0 14.0 -7.45 15.05 -9.15 M27.05 -9.3 Q31.45 -12.15 34.85 -16.55 L35.05 -16.0 35.1 -15.85 Q35.95 -13.2 35.3 -10.1 L35.1 -9.25 32.1 -9.05 31.4 -9.05 Q34.25 -11.9 35.0 -15.7 L33.65 -13.55 32.65 -11.9 Q32.0 -10.9 29.9 -8.95 L28.3 -7.75 Q27.5 -8.35 27.05 -9.3 M40.6 37.45 Q44.8 35.3 48.3 29.7 50.3 39.2 44.85 42.2 44.45 41.2 41.85 38.7 L40.6 37.45 M45.7 52.55 Q49.05 51.65 49.65 49.2 52.3 52.3 47.9 55.7 L47.85 55.6 Q46.3 54.25 45.7 52.55 M11.35 14.95 L11.3 14.8 11.0 14.35 Q10.55 13.35 9.45 12.9 9.3 12.7 9.0 12.65 L12.05 13.05 11.35 14.95 M-17.35 -10.8 Q-18.45 -12.25 -20.3 -12.75 L-18.45 -13.6 -17.35 -10.8 M-71.9 -45.75 Q-68.55 -50.1 -65.4 -47.45 -67.9 -46.9 -68.9 -43.6 -70.5 -44.1 -71.85 -45.8 L-71.9 -45.75 M-55.25 -45.6 Q-49.35 -50.25 -41.05 -48.85 -47.4 -45.35 -49.55 -40.0 L-49.6 -40.05 -53.2 -44.1 -54.4 -45.1 -55.25 -45.6 M35.05 -16.0 L35.0 -15.7 35.05 -16.0 M47.85 35.7 L47.7 35.0 Q47.0 35.2 47.0 35.55 47.0 36.55 44.75 40.15 44.75 40.5 44.85 40.5 47.85 38.75 47.85 35.7 M48.3 33.15 L48.2 32.85 47.9 32.75 47.55 32.85 47.45 33.15 47.55 33.4 47.85 33.6 48.3 33.45 48.3 33.15 M28.95 16.4 Q28.8 16.55 28.8 16.15 28.8 15.95 30.55 15.2 32.35 14.45 32.85 14.45 33.3 14.45 33.6 14.75 33.75 15.55 33.35 15.5 L32.75 15.3 29.25 16.5 28.95 16.4 M12.5 10.05 L13.1 10.1 13.2 10.5 13.2 10.7 12.65 10.8 11.55 11.85 Q11.25 11.85 11.25 11.55 L11.45 11.1 12.2 10.2 12.5 10.05 M15.0 14.9 Q15.0 15.45 13.7 17.0 L11.1 19.35 10.9 19.3 10.8 19.0 11.7 18.05 13.5 16.05 14.7 14.55 Q15.0 14.55 15.0 14.9 M47.9 53.85 Q47.9 54.25 48.0 54.0 L48.35 54.05 49.25 53.25 49.35 53.2 49.4 52.95 49.35 52.7 49.2 52.65 48.6 52.8 48.0 53.4 48.05 53.4 Q47.9 53.4 47.9 53.85 M-48.1 -47.6 L-48.35 -47.85 Q-49.05 -47.85 -50.95 -46.95 -52.95 -45.95 -52.95 -45.45 L-52.85 -45.15 -52.65 -45.05 -50.1 -46.1 Q-48.7 -46.65 -47.85 -47.25 L-48.1 -47.6 M-45.2 -47.75 Q-45.2 -48.1 -45.3 -48.0 L-45.9 -48.15 -46.2 -48.05 -46.2 -47.7 -46.2 -47.25 -45.3 -47.3 -45.2 -47.75 M-70.7 -46.4 L-70.8 -45.6 -70.7 -45.3 -70.55 -45.15 -69.35 -46.65 -69.5 -46.95 -69.75 -47.1 -70.7 -46.4 M-22.35 -16.05 Q-22.35 -15.5 -22.95 -14.15 -23.8 -12.3 -24.9 -11.85 L-25.2 -12.2 -25.2 -12.4 -25.1 -12.45 Q-23.55 -13.3 -23.2 -14.9 -23.0 -15.7 -23.15 -16.35 L-23.0 -16.7 -23.1 -16.7 -22.85 -16.8 -22.35 -16.55 -22.35 -16.05" fill="#4b4b4b" fill-rule="evenodd" stroke="none"/>
      <path d="M2.8 -22.55 L2.85 -22.5 2.8 -22.5 2.8 -22.55 M48.3 33.15 L48.3 33.45 47.85 33.6 47.55 33.4 47.45 33.15 47.55 32.85 47.9 32.75 48.2 32.85 48.3 33.15 M47.85 35.7 Q47.85 38.75 44.85 40.5 44.75 40.5 44.75 40.15 47.0 36.55 47.0 35.55 47.0 35.2 47.7 35.0 L47.85 35.7 M47.9 53.85 Q47.9 53.4 48.05 53.4 L48.0 53.4 48.6 52.8 49.2 52.65 49.35 52.7 49.4 52.95 49.35 53.2 49.25 53.25 48.35 54.05 48.0 54.0 Q47.9 54.25 47.9 53.85 M-45.2 -47.75 L-45.3 -47.3 -46.2 -47.25 -46.2 -47.7 -46.2 -48.05 -45.9 -48.15 -45.3 -48.0 Q-45.2 -48.1 -45.2 -47.75 M-48.1 -47.6 L-47.85 -47.25 Q-48.7 -46.65 -50.1 -46.1 L-52.65 -45.05 -52.85 -45.15 -52.95 -45.45 Q-52.95 -45.95 -50.95 -46.95 -49.05 -47.85 -48.35 -47.85 L-48.1 -47.6 M-70.7 -46.4 L-69.75 -47.1 -69.5 -46.95 -69.35 -46.65 -70.55 -45.15 -70.7 -45.3 -70.8 -45.6 -70.7 -46.4" fill="#8a8a8a" fill-rule="evenodd" stroke="none"/>
      <path d="M-0.2 -37.45 L0.7 -35.3 1.7 -33.15 1.6 -32.9 0.45 -29.95 0.1 -28.75 Q-4.8 -30.3 -11.8 -27.8 -9.05 -31.35 -5.65 -33.45 L-4.3 -34.25 -3.9 -34.6 -0.75 -33.8 -2.15 -35.25 -2.6 -35.7 -0.2 -37.45 M3.5 -29.45 L3.45 -29.35 Q3.0 -26.9 2.8 -22.55 L1.05 -24.5 1.05 -26.2 1.05 -26.35 1.05 -26.8 1.05 -26.85 1.15 -27.9 1.7 -29.75 3.5 -29.45 M18.25 -6.8 L19.0 -6.95 Q22.35 -7.55 24.75 -8.3 24.95 -7.4 25.55 -6.55 L25.3 -6.5 21.45 -5.95 Q20.1 -5.8 19.35 -5.95 18.4 -6.15 18.25 -6.8 M33.75 -5.7 L32.05 -2.65 30.0 -4.65 31.25 -1.2 30.8 -0.25 Q29.25 3.4 26.2 6.6 27.55 -0.6 25.2 -5.2 L26.35 -5.65 28.15 -6.6 30.1 -6.2 33.75 -5.7" fill="#383838" fill-rule="evenodd" stroke="none"/>
      <path d="M14.9 -6.2 L17.8 -6.7 17.9 -5.75 18.0 -5.15 18.9 -4.6 19.1 -4.45 20.3 -4.55 Q21.6 -2.6 21.6 -1.55 22.2 0.05 22.2 0.85 L22.35 3.1 21.05 5.95 Q20.0 8.25 27.3 13.45 L27.6 13.4 23.95 19.9 18.45 19.85 14.8 20.25 13.55 20.35 9.5 20.7 9.55 20.0 Q9.9 18.05 10.7 16.2 10.95 15.55 11.35 14.95 L12.05 13.05 9.0 12.65 9.4 12.05 11.45 7.8 11.55 7.5 11.5 7.65 Q11.75 6.35 11.6 5.0 11.45 3.9 10.6 2.4 L10.1 1.55 9.85 1.2 14.9 -6.2 M15.0 14.9 Q15.0 14.55 14.7 14.55 L13.5 16.05 11.7 18.05 10.8 19.0 10.9 19.3 11.1 19.35 13.7 17.0 Q15.0 15.45 15.0 14.9 M12.5 10.05 L12.2 10.2 11.45 11.1 11.25 11.55 Q11.25 11.85 11.55 11.85 L12.65 10.8 13.2 10.7 13.2 10.5 13.1 10.1 12.5 10.05 M14.0 20.3 L13.45 20.35 13.55 20.35 14.0 20.3" fill="url(#gradient0)" fill-rule="evenodd" stroke="none"/>
      <path d="M2.8 -21.8 L2.75 -20.4 2.7 -19.45 -5.25 -12.35 Q-5.85 -13.45 -8.55 -14.0 -11.3 -14.6 -14.0 -12.9 L-17.35 -10.8 -18.45 -13.6 -20.3 -12.75 Q-22.9 -10.9 -25.75 -10.3 L-26.4 -10.25 Q-25.65 -15.3 -27.05 -18.8 L-26.5 -19.15 -24.95 -20.55 -24.55 -20.75 -22.55 -21.8 -21.1 -21.45 Q-18.6 -23.5 -18.7 -24.5 L-17.95 -25.7 -16.85 -28.2 Q-13.9 -24.2 -11.8 -23.9 -9.7 -23.6 -8.8 -24.55 L-8.45 -24.85 -4.85 -24.65 Q-3.35 -24.65 0.15 -23.2 L0.25 -23.15 0.3 -22.6 1.45 -22.25 1.6 -22.2 2.5 -21.9 2.8 -21.8 M27.6 13.4 Q31.45 12.45 35.85 15.0 32.95 18.0 32.5 19.4 33.45 22.05 31.5 24.5 31.4 25.2 32.35 29.5 33.25 33.85 39.3 36.45 L39.35 36.45 40.35 37.2 40.6 37.45 41.85 38.7 Q44.45 41.2 44.85 42.2 45.2 43.05 44.9 43.65 L40.6 46.0 39.05 44.8 38.2 46.2 Q36.25 48.5 37.65 49.55 40.4 55.6 45.75 52.5 L45.7 52.55 Q46.3 54.25 47.85 55.6 L47.9 55.7 Q47.35 60.35 45.75 64.45 43.7 69.45 40.3 73.55 33.9 81.25 22.4 86.1 L22.0 85.75 Q26.45 83.0 30.1 79.75 36.95 73.95 41.25 67.1 L43.45 63.4 Q45.65 56.2 41.0 57.45 L28.45 61.45 22.5 61.2 Q20.55 60.65 19.55 59.2 L20.75 59.35 Q26.95 59.95 36.3 57.4 39.4 56.35 37.35 53.8 L34.1 49.0 29.95 49.35 28.35 49.35 Q22.55 53.8 18.25 52.5 19.45 49.8 21.2 46.65 L18.3 42.0 Q13.9 43.7 11.35 40.5 14.35 38.4 16.35 36.15 14.9 33.3 16.7 29.2 18.55 25.1 22.1 23.15 L25.55 21.4 24.55 19.9 23.95 19.9 27.6 13.4 M-39.4 -18.3 Q-41.3 -15.65 -45.85 -14.0 -50.55 -12.7 -52.7 -14.0 -55.05 -12.05 -57.15 -9.0 -60.3 -11.7 -58.65 -16.05 L-63.15 -19.0 Q-66.3 -17.25 -69.0 -16.05 -70.3 -20.35 -65.75 -26.0 L-65.75 -27.7 -65.35 -31.8 -70.1 -35.2 Q-72.6 -37.25 -73.75 -34.1 -76.4 -24.9 -75.95 -18.6 L-75.8 -17.4 Q-77.15 -18.45 -77.65 -20.45 -78.3 -22.75 -77.9 -26.35 L-73.75 -38.9 Q-72.45 -43.55 -79.65 -41.4 -92.75 -34.85 -102.3 -20.2 L-102.6 -20.55 Q-92.85 -43.35 -71.9 -45.75 L-71.85 -45.8 Q-70.5 -44.1 -68.9 -43.6 L-68.85 -43.6 Q-72.0 -38.25 -65.75 -35.45 -65.05 -34.75 -63.1 -34.7 L-59.6 -38.7 -61.15 -40.6 -58.05 -45.6 Q-57.0 -46.5 -55.25 -45.6 L-54.4 -45.1 -53.2 -44.1 -49.6 -40.05 -49.6 -40.0 -49.55 -40.0 -48.85 -38.95 -48.9 -37.4 Q-44.1 -32.8 -41.35 -34.85 -43.5 -32.6 -45.7 -26.8 L-45.85 -26.6 -48.85 -27.3 Q-51.6 -28.2 -53.65 -31.55 -54.45 -34.7 -56.95 -32.5 -55.85 -31.75 -55.9 -29.65 L-58.45 -29.65 Q-60.45 -26.75 -56.85 -24.35 -53.25 -21.95 -49.5 -22.75 -45.8 -23.65 -45.85 -24.75 L-45.6 -23.55 Q-44.4 -20.35 -41.4 -18.95 -40.5 -18.55 -39.4 -18.3 M28.95 16.4 L29.25 16.5 32.75 15.3 33.35 15.5 Q33.75 15.55 33.6 14.75 33.3 14.45 32.85 14.45 32.35 14.45 30.55 15.2 28.8 15.95 28.8 16.15 28.8 16.55 28.95 16.4 M17.75 39.3 Q17.9 40.9 18.3 42.0 17.9 40.9 17.75 39.3 M24.8 30.8 L23.25 31.95 Q22.7 31.95 22.75 34.85 22.75 37.75 25.95 41.4 29.1 45.0 33.75 43.5 35.9 42.9 32.4 41.4 L35.9 40.9 Q35.05 38.55 31.05 38.25 27.0 37.9 24.8 30.8 M-55.85 -15.35 Q-57.45 -15.5 -58.65 -16.05 -57.45 -15.5 -55.85 -15.35 M-22.35 -16.05 L-22.35 -16.55 -22.85 -16.8 -23.1 -16.7 -23.0 -16.7 -23.15 -16.35 Q-23.0 -15.7 -23.2 -14.9 -23.55 -13.3 -25.1 -12.45 L-25.2 -12.4 -25.2 -12.2 -24.9 -11.85 Q-23.8 -12.3 -22.95 -14.15 -22.35 -15.5 -22.35 -16.05" fill="url(#gradient1)" fill-rule="evenodd" stroke="none"/>
      <path d="M-18.4 -32.25 L-18.95 -34.5 Q-17.75 -34.4 -17.15 -33.4 L-18.4 -32.25 M-21.2 -27.9 L-20.85 -27.7 -19.65 -26.6 Q-19.65 -26.3 -20.0 -26.3 L-20.8 -26.7 -21.75 -27.15 -21.8 -27.15 -21.9 -27.45 Q-21.9 -28.15 -21.2 -27.9 M-41.3 -23.25 L-41.55 -23.55 Q-41.55 -25.3 -39.6 -26.45 -38.2 -27.3 -37.4 -27.3 L-36.1 -26.9 -35.1 -26.4 -35.15 -26.1 Q-35.25 -25.8 -35.55 -25.8 L-36.25 -26.1 -36.95 -26.4 Q-37.75 -26.4 -38.65 -25.45 L-41.0 -23.0 -41.3 -23.25 M-19.35 -31.5 L-19.05 -31.1 -19.1 -30.75 -19.1 -30.65 -19.45 -30.6 -20.4 -31.25 -20.3 -31.65 -19.8 -31.7 Q-19.55 -31.7 -19.35 -31.5 M-20.05 -30.0 L-19.6 -29.85 -19.4 -29.7 -18.95 -29.15 -19.4 -28.8 -20.05 -29.1 -20.55 -29.45 Q-20.55 -30.0 -20.05 -30.0 M-30.6 -39.1 L-30.2 -38.7 -30.7 -38.05 -31.5 -37.95 -31.65 -38.0 -31.8 -38.3 Q-31.8 -39.2 -31.0 -39.2 L-30.6 -39.1 M-31.25 -34.1 L-31.35 -33.75 -32.0 -33.8 -32.35 -32.95 Q-32.8 -32.15 -33.75 -32.15 L-33.8 -32.2 -33.9 -32.45 -33.2 -33.7 Q-32.5 -34.7 -31.95 -34.7 -31.25 -34.7 -31.25 -34.1 M-22.55 -23.1 L-23.65 -24.15 Q-23.05 -25.05 -21.7 -24.45 L-21.05 -24.15 Q-20.8 -23.25 -22.55 -23.1" fill="#727272" fill-rule="evenodd" stroke="none"/>
      <path d="M-65.75 -27.7 Q-75.2 -26.8 -75.95 -18.6 -76.4 -24.9 -73.75 -34.1 -72.6 -37.25 -70.1 -35.2 L-65.35 -31.8 -65.75 -27.7" fill="url(#gradient2)" fill-rule="evenodd" stroke="none"/>
      <path d="M20.75 59.35 Q28.9 58.8 29.95 49.35 L34.1 49.0 37.35 53.8 Q39.4 56.35 36.3 57.4 26.95 59.95 20.75 59.35" fill="url(#gradient3)" fill-rule="evenodd" stroke="none"/>
      <path d="M22.0 85.75 Q25.4 83.55 27.8 81.2 33.15 76.45 33.85 71.7 34.4 68.9 33.25 66.0 32.4 63.6 28.65 63.75 25.15 63.65 22.5 61.2 L28.45 61.45 41.0 57.45 Q45.65 56.2 43.45 63.4 L41.25 67.1 Q36.95 73.95 30.1 79.75 26.45 83.0 22.0 85.75" fill="url(#gradient4)" fill-rule="evenodd" stroke="none"/>
      <path d="M-77.65 -20.45 Q-80.15 -23.05 -80.15 -26.6 -79.95 -30.3 -82.4 -31.2 -92.05 -35.1 -102.3 -20.2 -92.75 -34.85 -79.65 -41.4 -72.45 -43.55 -73.75 -38.9 L-77.9 -26.35 Q-78.3 -22.75 -77.65 -20.45" fill="url(#gradient5)" fill-rule="evenodd" stroke="none"/>
      <path d="M-35.1 -19.9 L-36.1 -18.9 -39.4 -18.3 Q-40.5 -18.55 -41.4 -18.95 L-41.4 -19.2 -41.25 -20.75 -41.1 -21.6 -40.65 -22.5 Q-40.25 -23.1 -40.25 -23.45 -40.25 -24.45 -37.35 -25.25 L-36.0 -25.05 Q-35.1 -25.05 -33.0 -22.85 L-32.6 -22.4 -35.1 -19.9 M-35.7 -24.0 Q-39.3 -26.2 -40.0 -22.0 -39.3 -26.2 -35.7 -24.0" fill="url(#gradient6)" fill-rule="evenodd" stroke="none"/>
      <path d="M-18.4 -32.2 L-18.4 -32.25 -17.15 -33.4 Q-15.9 -32.25 -16.05 -30.8 L-16.85 -28.2 -17.95 -25.7 -18.7 -24.5 -19.35 -25.25 Q-19.0 -25.6 -19.0 -26.25 L-19.3 -27.8 Q-17.95 -28.15 -18.15 -29.7 L-18.1 -29.7 Q-17.15 -30.35 -17.05 -31.3 L-18.4 -32.2" fill="#4d4d4d" fill-rule="evenodd" stroke="none"/>
      <path d="M-27.05 -18.8 Q-28.4 -17.85 -28.95 -18.0 -31.8 -20.7 -35.1 -19.9 L-32.6 -22.4 -31.7 -23.3 -30.6 -23.15 -30.4 -22.45 -30.3 -21.8 Q-28.6 -21.95 -27.15 -21.0 L-22.55 -23.1 Q-20.8 -23.25 -21.05 -24.15 L-21.7 -24.45 -21.7 -24.55 -21.55 -25.3 -19.35 -25.25 -18.7 -24.5 Q-18.6 -23.5 -21.1 -21.45 L-22.55 -21.8 -24.55 -20.75 -24.95 -20.55 -26.5 -19.15 -27.05 -18.8 M-31.65 -21.4 L-30.3 -21.8 -31.65 -21.4" fill="url(#gradient7)" fill-rule="evenodd" stroke="none"/>
      <path d="M-41.35 -34.85 Q-38.35 -38.7 -34.1 -40.25 -29.3 -40.5 -25.75 -38.65 L-23.9 -37.7 Q-22.65 -36.9 -22.7 -34.95 L-18.4 -32.2 -17.05 -31.3 Q-17.15 -30.35 -18.1 -29.7 L-18.15 -29.7 -19.6 -29.85 -18.15 -29.7 Q-17.95 -28.15 -19.3 -27.8 L-19.0 -26.25 Q-19.0 -25.6 -19.35 -25.25 L-21.55 -25.3 -22.8 -25.75 -24.25 -26.0 Q-25.25 -25.65 -27.25 -23.9 -28.7 -23.05 -30.6 -23.15 L-31.7 -23.3 -32.6 -22.4 -33.0 -22.85 Q-35.1 -25.05 -36.0 -25.05 L-37.35 -25.25 Q-40.25 -24.45 -40.25 -23.45 -40.25 -23.1 -40.65 -22.5 L-41.1 -21.6 -41.25 -20.75 -41.4 -19.2 -41.4 -18.95 Q-44.4 -20.35 -45.6 -23.55 L-45.85 -24.75 -45.85 -26.45 -45.7 -26.8 Q-43.5 -32.6 -41.35 -34.85 M-21.2 -27.9 L-19.3 -27.8 -21.2 -27.9 Q-21.9 -28.15 -21.9 -27.45 L-21.8 -27.15 -21.75 -27.15 -20.8 -26.7 -20.0 -26.3 Q-19.65 -26.3 -19.65 -26.6 L-20.85 -27.7 -21.2 -27.9 M-41.3 -23.25 L-41.0 -23.0 -38.65 -25.45 Q-37.75 -26.4 -36.95 -26.4 L-36.25 -26.1 -35.55 -25.8 Q-35.25 -25.8 -35.15 -26.1 L-35.1 -26.4 -36.1 -26.9 -37.4 -27.3 Q-38.2 -27.3 -39.6 -26.45 -41.55 -25.3 -41.55 -23.55 L-41.3 -23.25 M-19.35 -31.5 Q-19.55 -31.7 -19.8 -31.7 L-20.3 -31.65 -20.4 -31.25 -19.45 -30.6 -19.1 -30.65 -19.1 -30.75 -19.05 -31.1 -19.35 -31.5 M-20.05 -30.0 Q-20.55 -30.0 -20.55 -29.45 L-20.05 -29.1 -19.4 -28.8 -18.95 -29.15 -19.4 -29.7 -19.6 -29.85 -20.05 -30.0 M-31.25 -34.1 Q-31.25 -34.7 -31.95 -34.7 -32.5 -34.7 -33.2 -33.7 L-33.9 -32.45 -33.8 -32.2 -33.75 -32.15 Q-32.8 -32.15 -32.35 -32.95 L-32.0 -33.8 -31.35 -33.75 -31.25 -34.1 M-30.6 -39.1 L-31.0 -39.2 Q-31.8 -39.2 -31.8 -38.3 L-31.65 -38.0 -31.5 -37.95 -30.7 -38.05 -30.2 -38.7 -30.6 -39.1 M-27.05 -34.8 L-26.7 -36.6 Q-27.3 -38.0 -29.1 -37.95 -29.9 -37.4 -29.55 -36.2 -28.95 -35.05 -27.05 -34.8 M-26.55 -33.8 Q-28.15 -34.35 -27.3 -32.55 L-25.35 -30.8 -24.55 -31.65 -26.55 -33.8 M-24.35 -32.9 L-23.8 -33.55 -25.2 -35.1 Q-26.45 -35.5 -25.8 -34.15 L-24.35 -32.9 M-33.5 -28.65 Q-33.7 -26.7 -32.65 -26.0 -29.35 -27.6 -28.35 -30.6 -28.8 -31.95 -31.35 -32.5 -33.15 -31.05 -33.5 -28.65" fill="url(#gradient8)" fill-rule="evenodd" stroke="none"/>
      <path d="M1.7 -33.15 Q2.65 -35.1 4.0 -36.55 6.2 -39.05 9.45 -40.2 L9.75 -40.15 Q7.1 -38.2 6.2 -37.1 4.8 -36.25 3.1 -32.9 L4.75 -32.85 3.7 -30.55 3.5 -29.45 1.7 -29.75 1.15 -27.9 1.05 -26.85 1.05 -26.8 1.05 -26.35 1.05 -26.2 1.05 -24.5 2.8 -22.55 2.8 -22.5 2.65 -22.15 2.5 -21.9 1.6 -22.2 1.45 -22.25 0.3 -22.6 0.25 -23.15 -0.15 -28.3 0.1 -28.75 0.45 -29.95 1.6 -32.9 1.7 -33.15 M17.8 -6.7 L18.25 -6.8 Q18.4 -6.15 19.35 -5.95 20.1 -5.8 21.45 -5.95 L25.3 -6.5 25.55 -6.55 Q24.95 -7.4 24.75 -8.3 L26.4 -8.9 27.05 -9.3 Q27.5 -8.35 28.3 -7.75 L29.9 -8.95 Q32.0 -10.9 32.65 -11.9 L33.65 -13.55 35.0 -15.7 Q34.25 -11.9 31.4 -9.05 L29.15 -7.2 28.7 -6.95 28.15 -6.6 26.35 -5.65 25.2 -5.2 24.75 -4.85 20.3 -4.55 19.1 -4.45 18.9 -4.6 18.0 -5.15 17.9 -5.75 17.8 -6.7 M32.05 -2.65 L31.4 -1.7 31.25 -1.2 30.0 -4.65 32.05 -2.65 M-3.9 -34.6 L-2.6 -35.7 -2.15 -35.25 -0.75 -33.8 -3.9 -34.6" fill="#626262" fill-rule="evenodd" stroke="none"/>
      <path d="M2.9 -39.15 L3.55 -37.55 4.0 -36.55 Q2.65 -35.1 1.7 -33.15 L0.7 -35.3 -0.2 -37.45 Q1.4 -38.5 2.9 -39.15 M35.1 -9.25 L33.75 -5.7 30.1 -6.2 28.15 -6.6 28.7 -6.95 29.15 -7.2 31.4 -9.05 32.1 -9.05 35.1 -9.25" fill="#838383" fill-rule="evenodd" stroke="none"/>
      <path d="M2.75 -19.5 L3.6 -20.35 4.5 -19.4 1.05 -16.3 Q-2.85 -12.65 -2.85 -11.55 L-2.6 -10.45 -6.0 -11.45 -5.25 -12.35 2.7 -19.45 2.75 -19.5 M5.25 -18.55 L6.6 -18.3 Q1.8 -12.6 1.8 -11.9 L1.6 -10.85 1.65 -10.5 Q1.65 -10.1 3.65 -8.9 L5.25 -8.0 Q8.55 -10.95 10.8 -15.25 L12.25 -14.25 Q10.5 -12.55 8.95 -9.85 L7.1 -5.9 7.15 -5.65 Q7.15 -5.35 7.85 -4.5 L9.0 -2.9 Q12.1 -6.5 14.2 -10.2 L15.05 -9.15 14.0 -7.45 12.95 -6.0 12.1 -5.0 10.55 -2.45 Q9.5 -0.5 9.5 0.1 9.5 0.6 9.85 1.2 L9.35 1.65 Q8.2 0.45 8.15 -1.95 5.9 -3.5 4.35 -7.25 0.35 -7.9 -2.0 -10.35 L5.25 -18.55 M8.15 -1.95 L9.0 -2.9 8.15 -1.95 M5.25 -8.0 L4.35 -7.25 5.25 -8.0" fill="#3c3c3c" fill-rule="evenodd" stroke="none"/>
      <path d="M2.9 -39.15 Q1.4 -38.5 -0.2 -37.45 L-2.6 -35.7 -3.9 -34.6 -4.3 -34.25 -5.65 -33.45 Q-9.05 -31.35 -11.8 -27.8 -4.8 -30.3 0.1 -28.75 L-0.15 -28.3 0.25 -23.15 0.3 -22.6 M1.7 -33.15 Q2.65 -35.1 4.0 -36.55 6.2 -39.05 9.45 -40.2 6.35 -40.7 2.9 -39.15 M9.45 -40.2 L9.75 -40.15 10.05 -40.1 Q7.2 -37.2 5.3 -33.85 L4.75 -32.85 3.7 -30.55 3.5 -29.45 3.45 -29.35 Q3.0 -26.9 2.8 -22.55 L2.8 -22.5 2.8 -22.1 2.8 -21.8 2.75 -20.4 2.7 -19.45 2.75 -19.5 3.6 -20.35 4.5 -19.4 5.25 -18.55 6.6 -18.3 Q9.5 -17.55 10.8 -15.25 L12.25 -14.25 Q14.45 -12.4 14.2 -10.2 L15.05 -9.15 Q15.55 -8.2 15.45 -7.05 L14.9 -6.2 17.8 -6.7 18.25 -6.8 19.0 -6.95 Q22.35 -7.55 24.75 -8.3 L26.4 -8.9 27.05 -9.3 Q31.45 -12.15 34.85 -16.55 L35.05 -16.0 35.1 -15.85 Q35.95 -13.2 35.3 -10.1 L35.1 -9.25 33.75 -5.7 32.05 -2.65 31.4 -1.7 31.25 -1.2 30.8 -0.25 Q29.25 3.4 26.2 6.6 25.65 2.3 23.45 0.65 L22.35 3.1 21.05 5.95 Q20.0 8.25 27.3 13.45 L27.6 13.4 Q31.45 12.45 35.85 15.0 32.95 18.0 32.5 19.4 33.45 22.05 31.5 24.5 31.4 25.2 32.35 29.5 33.25 33.85 39.3 36.45 L39.35 36.45 40.35 37.2 40.6 37.45 Q44.8 35.3 48.3 29.7 50.3 39.2 44.85 42.2 45.2 43.05 44.9 43.65 L40.6 46.0 39.05 44.8 38.2 46.2 Q36.25 48.5 37.65 49.55 40.4 55.6 45.75 52.5 L45.7 52.55 Q49.05 51.65 49.65 49.2 52.3 52.3 47.9 55.7 47.35 60.35 45.75 64.45 43.7 69.45 40.3 73.55 33.9 81.25 22.4 86.1 L22.0 85.75 Q25.4 83.55 27.8 81.2 33.15 76.45 33.85 71.7 34.4 68.9 33.25 66.0 32.4 63.6 28.65 63.75 25.15 63.65 22.5 61.2 20.55 60.65 19.55 59.2 L20.75 59.35 Q28.9 58.8 29.95 49.35 L28.35 49.35 Q22.55 53.8 18.25 52.5 19.45 49.8 21.2 46.65 L18.3 42.0 Q13.9 43.7 11.35 40.5 14.35 38.4 16.35 36.15 14.9 33.3 16.7 29.2 18.55 25.1 22.1 23.15 L25.55 21.4 24.55 19.9 23.95 19.9 18.45 19.85 14.8 20.25 13.55 20.35 9.5 20.7 9.55 20.0 Q9.9 18.05 10.7 16.2 10.95 15.55 11.35 14.95 L11.3 14.8 11.0 14.35 Q10.55 13.35 9.45 12.9 9.3 12.7 9.0 12.65 L9.4 12.05 11.45 7.8 11.35 7.9 11.5 7.65 Q11.75 6.35 11.6 5.0 11.45 3.9 10.6 2.4 M9.85 1.2 L9.35 1.65 Q8.2 0.45 8.15 -1.95 5.9 -3.5 4.35 -7.25 0.35 -7.9 -2.0 -10.35 L-2.6 -10.45 -6.0 -11.45 -5.25 -12.35 Q-5.85 -13.45 -8.55 -14.0 -11.3 -14.6 -14.0 -12.9 L-17.35 -10.8 Q-18.45 -12.25 -20.3 -12.75 -22.9 -10.9 -25.75 -10.3 L-26.4 -10.25 Q-25.65 -15.3 -27.05 -18.8 -28.4 -17.85 -28.95 -18.0 -31.8 -20.7 -35.1 -19.9 L-36.1 -18.9 -39.4 -18.3 Q-41.3 -15.65 -45.85 -14.0 -50.55 -12.7 -52.7 -14.0 -55.05 -12.05 -57.15 -9.0 -60.3 -11.7 -58.65 -16.05 L-63.15 -19.0 Q-66.3 -17.25 -69.0 -16.05 -70.3 -20.35 -65.75 -26.0 L-65.75 -27.7 Q-75.2 -26.8 -75.95 -18.6 L-75.8 -17.4 Q-77.15 -18.45 -77.65 -20.45 -80.15 -23.05 -80.15 -26.6 -79.95 -30.3 -82.4 -31.2 -92.05 -35.1 -102.3 -20.2 L-102.6 -20.55 Q-92.85 -43.35 -71.9 -45.75 -68.55 -50.1 -65.4 -47.45 -67.9 -46.9 -68.9 -43.6 L-68.85 -43.6 Q-72.0 -38.25 -65.75 -35.45 -65.05 -34.75 -63.1 -34.7 L-59.6 -38.7 -61.15 -40.6 -58.05 -45.6 Q-57.0 -46.5 -55.25 -45.6 -49.35 -50.25 -41.05 -48.85 -47.4 -45.35 -49.55 -40.0 L-48.85 -38.95 -48.9 -37.4 Q-44.1 -32.8 -41.35 -34.85 -38.35 -38.7 -34.1 -40.25 -29.3 -40.5 -25.75 -38.65 L-23.9 -37.7 Q-22.65 -36.9 -22.7 -34.95 L-18.4 -32.2 -18.4 -32.25 -18.95 -34.5 Q-17.75 -34.4 -17.15 -33.4 -15.9 -32.25 -16.05 -30.8 L-16.85 -28.2 Q-13.9 -24.2 -11.8 -23.9 -9.7 -23.6 -8.8 -24.55 L-8.45 -24.85 -6.2 -26.7 Q-8.25 -27.9 -11.8 -27.8 M0.1 -28.75 L0.45 -29.95 1.6 -32.9 1.7 -33.15 M2.75 -19.5 L2.7 -19.45 -5.25 -12.35 M5.25 -8.0 Q8.55 -10.95 10.8 -15.25 M9.0 -2.9 L8.15 -1.95 M9.0 -2.9 Q12.1 -6.5 14.2 -10.2 M4.35 -7.25 L5.25 -8.0 M18.9 -4.6 L19.1 -4.45 20.3 -4.55 24.75 -4.85 25.2 -5.2 26.35 -5.65 28.15 -6.6 28.7 -6.95 29.15 -7.2 31.4 -9.05 Q34.25 -11.9 35.0 -15.7 L35.05 -16.0 M44.85 42.2 Q44.45 41.2 41.85 38.7 L40.6 37.45 M11.5 7.65 L11.45 7.8 11.55 7.5 11.5 7.65 M9.0 12.65 L12.05 13.05 11.35 14.95 M14.0 20.3 L13.45 20.35 13.55 20.35 14.0 20.3 M18.3 42.0 Q17.9 40.9 17.75 39.3 M24.8 30.8 Q27.0 37.9 31.05 38.25 35.05 38.55 35.9 40.9 L32.4 41.4 Q35.9 42.9 33.75 43.5 29.1 45.0 25.95 41.4 22.75 37.75 22.75 34.85 22.7 31.95 23.25 31.95 L24.8 30.8 M20.75 59.35 Q26.95 59.95 36.3 57.4 39.4 56.35 37.35 53.8 L34.1 49.0 29.95 49.35 M22.0 85.75 Q26.45 83.0 30.1 79.75 36.95 73.95 41.25 67.1 L43.45 63.4 Q45.65 56.2 41.0 57.45 L28.45 61.45 22.5 61.2 M45.7 52.55 Q46.3 54.25 47.85 55.6 L47.9 55.7 M14.9 -6.2 L9.85 1.2 M25.2 -5.2 Q27.55 -0.6 26.2 6.6 M-49.6 -40.05 L-49.55 -40.0 -49.6 -40.0 -49.6 -40.05 -53.2 -44.1 -54.4 -45.1 -55.25 -45.6 M-45.85 -24.75 Q-45.8 -23.65 -49.5 -22.75 -53.25 -21.95 -56.85 -24.35 -60.45 -26.75 -58.45 -29.65 L-55.9 -29.65 Q-55.85 -31.75 -56.95 -32.5 -54.45 -34.7 -53.65 -31.55 -51.6 -28.2 -48.85 -27.3 L-45.85 -26.6 -45.7 -26.8 Q-43.5 -32.6 -41.35 -34.85 M-45.9 -26.45 L-45.9 -26.4 -45.85 -26.45 -45.9 -26.45 -45.85 -26.55 -45.85 -26.6 M-45.85 -26.55 L-45.85 -26.45 -45.7 -26.8 M-45.85 -26.45 L-45.85 -26.55 M-45.9 -26.4 L-45.85 -26.45 -45.85 -24.75 -45.6 -23.55 Q-44.4 -20.35 -41.4 -18.95 -40.5 -18.55 -39.4 -18.3 M-32.6 -22.4 L-31.7 -23.3 -30.6 -23.15 Q-28.7 -23.05 -27.25 -23.9 -25.25 -25.65 -24.25 -26.0 L-22.8 -25.75 -21.55 -25.3 -19.35 -25.25 Q-19.0 -25.6 -19.0 -26.25 L-19.3 -27.8 -21.2 -27.9 M-102.3 -20.2 Q-92.75 -34.85 -79.65 -41.4 -72.45 -43.55 -73.75 -38.9 L-77.9 -26.35 Q-78.3 -22.75 -77.65 -20.45 M-71.9 -45.75 L-71.85 -45.8 Q-70.5 -44.1 -68.9 -43.6 M-65.75 -27.7 L-65.35 -31.8 -70.1 -35.2 Q-72.6 -37.25 -73.75 -34.1 -76.4 -24.9 -75.95 -18.6 M-58.65 -16.05 Q-57.45 -15.5 -55.85 -15.35 M-18.15 -29.7 L-18.1 -29.7 Q-17.15 -30.35 -17.05 -31.3 L-18.4 -32.2 M-18.4 -32.25 L-17.15 -33.4 M-19.6 -29.85 L-18.15 -29.7 Q-17.95 -28.15 -19.3 -27.8 M-18.7 -24.5 L-17.95 -25.7 -16.85 -28.2 M-33.5 -28.65 Q-33.15 -31.05 -31.35 -32.5 -28.8 -31.95 -28.35 -30.6 -29.35 -27.6 -32.65 -26.0 -33.7 -26.7 -33.5 -28.65 M-24.35 -32.9 L-25.8 -34.15 Q-26.45 -35.5 -25.2 -35.1 L-23.8 -33.55 -24.35 -32.9 M-26.55 -33.8 L-24.55 -31.65 -25.35 -30.8 -27.3 -32.55 Q-28.15 -34.35 -26.55 -33.8 M-27.05 -34.8 Q-28.95 -35.05 -29.55 -36.2 -29.9 -37.4 -29.1 -37.95 -27.3 -38.0 -26.7 -36.6 L-27.05 -34.8 M-18.7 -24.5 Q-18.6 -23.5 -21.1 -21.45 L-22.55 -21.8 -24.55 -20.75 -24.95 -20.55 -26.5 -19.15 -27.05 -18.8 M-22.55 -23.1 L-23.65 -24.15 Q-23.05 -25.05 -21.7 -24.45 L-21.05 -24.15 Q-20.8 -23.25 -22.55 -23.1 L-27.15 -21.0 Q-28.6 -21.95 -30.3 -21.8 L-31.65 -21.4 M-35.1 -19.9 L-32.6 -22.4 M-20.3 -12.75 L-18.45 -13.6 -17.35 -10.8 M-40.0 -22.0 Q-39.3 -26.2 -35.7 -24.0 M-19.35 -25.25 L-18.7 -24.5 M-2.0 -10.35 L5.25 -18.55" fill="none" stroke="#000000" stroke-linecap="round" stroke-linejoin="round" stroke-opacity="0.5019608" stroke-width="1.0"/>
    </g>
    <radialGradient cx="0" cy="0" gradientTransform="matrix(0.0052, -0.0196, 0.023, 0.0061, 11.3, 14.8)" gradientUnits="userSpaceOnUse" id="gradient0" r="819.2" spreadMethod="pad">
      <stop offset="0.0196078431372549" stop-color="#464646"/>
      <stop offset="1.0" stop-color="#121212"/>
    </radialGradient>
    <radialGradient cx="0" cy="0" gradientTransform="matrix(0.0261, 0.0, 0.0, 0.0274, -16.7, -9.85)" gradientUnits="userSpaceOnUse" id="gradient1" r="819.2" spreadMethod="pad">
      <stop offset="0.0196078431372549" stop-color="#464646"/>
      <stop offset="1.0" stop-color="#171717"/>
    </radialGradient>
    <linearGradient gradientTransform="matrix(0.0065, 0.0, 0.0, 0.0106, -70.7, -27.3)" gradientUnits="userSpaceOnUse" id="gradient2" spreadMethod="pad" x1="-819.2" x2="819.2">
      <stop offset="0.00392156862745098" stop-color="#1e1e1e"/>
      <stop offset="0.9921568627450981" stop-color="#d0b2b2"/>
    </linearGradient>
    <linearGradient gradientTransform="matrix(-0.0032, -0.0055, 0.0055, -0.0032, 34.75, 55.6)" gradientUnits="userSpaceOnUse" id="gradient3" spreadMethod="pad" x1="-819.2" x2="819.2">
      <stop offset="0.00392156862745098" stop-color="#1e1e1e"/>
      <stop offset="0.9921568627450981" stop-color="#d0b2b2"/>
    </linearGradient>
    <linearGradient gradientTransform="matrix(-0.0052, -0.0052, 0.0123, -0.0122, 38.55, 65.7)" gradientUnits="userSpaceOnUse" id="gradient4" spreadMethod="pad" x1="-819.2" x2="819.2">
      <stop offset="0.00392156862745098" stop-color="#1e1e1e"/>
      <stop offset="0.9921568627450981" stop-color="#d0b2b2"/>
    </linearGradient>
    <linearGradient gradientTransform="matrix(0.0175, 0.0, 0.0, 0.0134, -87.95, -31.15)" gradientUnits="userSpaceOnUse" id="gradient5" spreadMethod="pad" x1="-819.2" x2="819.2">
      <stop offset="0.00392156862745098" stop-color="#1e1e1e"/>
      <stop offset="0.9921568627450981" stop-color="#d0b2b2"/>
    </linearGradient>
    <radialGradient cx="0" cy="0" gradientTransform="matrix(0.0, 0.0, 0.0, 0.0, 0.0, 0.0)" gradientUnits="userSpaceOnUse" id="gradient6" r="819.2" spreadMethod="pad">
      <stop offset="0.0196078431372549" stop-color="#2a2a2a"/>
      <stop offset="1.0" stop-color="#171717"/>
    </radialGradient>
    <radialGradient cx="0" cy="0" gradientTransform="matrix(0.0319, 0.0, 0.0, 0.0319, -37.15, -28.75)" gradientUnits="userSpaceOnUse" id="gradient7" r="819.2" spreadMethod="pad">
      <stop offset="0.0196078431372549" stop-color="#696969"/>
      <stop offset="1.0" stop-color="#333333"/>
    </radialGradient>
    <radialGradient cx="0" cy="0" gradientTransform="matrix(0.0145, 0.0209, -0.0266, 0.0184, -34.6, -31.6)" gradientUnits="userSpaceOnUse" id="gradient8" r="819.2" spreadMethod="pad">
      <stop offset="0.0196078431372549" stop-color="#5f5f5f"/>
      <stop offset="1.0" stop-color="#121212"/>
    </radialGradient>
    <g id="shape2" transform="matrix(1.0, 0.0, 0.0, 1.0, -86.9, 70.2)">
      <path d="M123.8 -63.6 Q124.65 -60.8 124.65 -58.65 L124.5 -57.2 124.55 -56.55 123.6 -53.95 123.5 -53.5 123.6 -53.45 Q123.65 -53.2 123.95 -53.1 L124.0 -53.1 Q125.15 -52.3 125.55 -50.0 125.9 -48.25 125.75 -46.35 125.75 -43.2 124.05 -41.4 123.05 -40.3 121.4 -39.55 L121.95 -38.7 122.25 -36.4 Q122.25 -28.4 119.05 -25.95 116.6 -24.1 109.25 -24.1 107.25 -24.1 103.1 -25.5 L101.8 -26.25 99.4 -26.9 99.35 -26.9 96.25 -28.45 93.55 -30.3 Q93.0 -30.95 93.0 -32.5 93.0 -34.5 93.85 -37.45 L94.65 -38.95 95.15 -39.65 94.55 -39.8 92.6 -38.65 Q89.9 -37.2 88.5 -37.2 87.8 -37.2 86.9 -37.65 87.2 -38.15 91.45 -39.7 L92.65 -40.45 Q91.2 -41.0 90.25 -41.65 88.55 -42.8 88.25 -44.4 88.1 -45.25 88.3 -46.45 88.2 -49.5 89.15 -51.85 90.45 -54.9 93.25 -54.5 L93.25 -55.2 93.35 -58.55 Q92.8 -58.75 92.15 -59.15 L90.25 -60.25 Q90.75 -61.4 93.2 -60.85 L93.55 -60.75 Q93.75 -62.5 94.15 -63.35 95.75 -66.7 100.7 -68.35 102.8 -69.05 105.5 -69.45 L109.45 -69.9 110.55 -70.0 110.85 -70.05 110.95 -70.05 113.15 -70.15 113.75 -70.15 Q118.25 -70.2 119.9 -69.25 121.6 -68.2 122.15 -67.4 L122.75 -66.3 123.8 -63.6 M120.5 -54.2 Q121.75 -54.9 122.4 -55.8 L123.15 -57.0 123.4 -58.35 123.3 -59.6 122.35 -63.75 121.85 -65.45 Q121.35 -66.85 119.3 -67.8 L118.4 -68.2 114.25 -68.85 105.65 -67.9 Q101.2 -66.75 99.3 -65.85 L98.95 -65.65 Q97.05 -64.7 96.4 -63.45 95.75 -62.25 95.45 -61.1 94.8 -58.0 95.4 -55.5 L95.6 -54.65 Q95.8 -53.85 96.45 -53.45 96.9 -53.1 98.3 -52.8 L99.05 -52.7 99.65 -52.6 99.8 -52.55 Q108.5 -51.9 115.5 -52.9 118.4 -53.25 119.8 -53.9 L120.5 -54.2 M120.5 -41.3 L122.5 -42.65 Q123.9 -44.0 123.9 -47.35 L123.6 -49.7 123.45 -50.9 123.4 -51.1 Q123.15 -52.2 122.15 -52.2 121.6 -52.2 121.15 -51.85 L121.1 -51.85 115.6 -51.0 110.65 -50.7 105.8 -50.7 101.7 -50.75 99.8 -50.85 95.5 -51.2 95.15 -51.3 Q95.05 -51.3 94.95 -51.4 L94.7 -51.45 Q94.2 -51.65 93.9 -52.05 L93.75 -52.35 93.05 -52.55 Q92.15 -52.7 91.15 -51.6 L90.3 -50.25 Q90.15 -49.7 90.15 -47.5 90.15 -45.55 90.4 -44.9 91.0 -43.35 93.2 -42.4 L93.95 -42.15 98.4 -41.2 107.5 -40.0 Q112.2 -39.6 115.1 -40.1 L119.55 -40.95 120.5 -41.3 M120.1 -37.35 L119.45 -38.2 Q118.9 -38.35 118.35 -38.6 L112.75 -38.15 99.35 -38.85 98.9 -38.95 97.05 -39.05 96.85 -38.95 96.65 -38.65 Q95.7 -37.4 95.65 -36.95 L95.25 -35.45 94.9 -33.8 95.1 -32.05 Q95.25 -31.4 95.6 -30.9 L96.25 -30.2 97.0 -29.75 Q98.25 -29.0 99.6 -28.35 103.65 -26.55 108.05 -26.35 L110.1 -26.35 112.0 -26.45 Q114.95 -26.45 116.85 -27.25 118.35 -27.95 119.1 -29.2 120.25 -31.05 120.25 -36.0 L120.1 -37.35" fill="#000000" fill-rule="evenodd" stroke="none"/>
      <path d="M118.4 -68.2 L119.3 -67.8 Q121.35 -66.85 121.85 -65.45 L122.35 -63.75 123.3 -59.6 123.4 -58.35 123.15 -57.0 122.4 -55.8 Q121.75 -54.9 120.5 -54.2 L120.8 -55.95 Q120.8 -60.65 120.0 -64.15 119.4 -66.75 118.4 -68.2 M99.05 -52.7 L98.3 -52.8 Q96.9 -53.1 96.45 -53.45 95.8 -53.85 95.6 -54.65 L95.4 -55.5 Q94.8 -58.0 95.45 -61.1 95.75 -62.25 96.4 -63.45 97.05 -64.7 98.95 -65.65 L99.3 -65.85 Q98.2 -63.0 98.2 -58.35 L98.25 -55.25 99.05 -52.7 M121.1 -51.85 L121.15 -51.85 Q121.6 -52.2 122.15 -52.2 123.15 -52.2 123.4 -51.1 L123.45 -50.9 123.6 -49.7 123.9 -47.35 Q123.9 -44.0 122.5 -42.65 L120.5 -41.3 120.9 -43.25 Q121.6 -46.4 121.6 -49.35 121.6 -50.75 121.1 -51.85 M93.95 -42.15 L93.2 -42.4 Q91.0 -43.35 90.4 -44.9 90.15 -45.55 90.15 -47.5 90.15 -49.7 90.3 -50.25 L91.15 -51.6 Q92.15 -52.7 93.05 -52.55 L93.75 -52.35 93.9 -52.05 Q94.2 -51.65 94.7 -51.45 L94.1 -50.95 Q93.4 -49.95 93.4 -46.05 93.4 -43.4 93.95 -42.15 M99.35 -38.85 L98.3 -35.65 Q97.0 -31.5 97.0 -30.05 L97.0 -29.75 96.25 -30.2 95.6 -30.9 Q95.25 -31.4 95.1 -32.05 L94.9 -33.8 95.25 -35.45 95.65 -36.95 Q95.7 -37.4 96.65 -38.65 L96.85 -38.95 97.05 -39.05 98.9 -38.95 99.35 -38.85 M116.85 -27.25 Q117.65 -30.95 118.2 -32.75 118.5 -33.85 119.5 -35.75 L120.1 -37.35 120.25 -36.0 Q120.25 -31.05 119.1 -29.2 118.35 -27.95 116.85 -27.25" fill="#bdbdbd" fill-rule="evenodd" stroke="none"/>
      <path d="M120.5 -54.2 L119.8 -53.9 Q118.4 -53.25 115.5 -52.9 108.5 -51.9 99.8 -52.55 L99.65 -52.6 99.05 -52.7 98.25 -55.25 98.2 -58.35 Q98.2 -63.0 99.3 -65.85 101.2 -66.75 105.65 -67.9 L114.25 -68.85 118.4 -68.2 Q119.4 -66.75 120.0 -64.15 120.8 -60.65 120.8 -55.95 L120.5 -54.2 M120.5 -41.3 L119.55 -40.95 115.1 -40.1 Q112.2 -39.6 107.5 -40.0 L98.4 -41.2 93.95 -42.15 Q93.4 -43.4 93.4 -46.05 93.4 -49.95 94.1 -50.95 L94.7 -51.45 94.95 -51.4 Q95.05 -51.3 95.15 -51.3 L95.5 -51.2 99.8 -50.85 101.7 -50.75 105.8 -50.7 110.65 -50.7 115.6 -51.0 121.1 -51.85 Q121.6 -50.75 121.6 -49.35 121.6 -46.4 120.9 -43.25 L120.5 -41.3 M99.35 -38.85 L112.75 -38.15 118.35 -38.6 Q118.9 -38.35 119.45 -38.2 L120.1 -37.35 119.5 -35.75 Q118.5 -33.85 118.2 -32.75 117.65 -30.95 116.85 -27.25 114.95 -26.45 112.0 -26.45 L110.1 -26.35 108.05 -26.35 Q103.65 -26.55 99.6 -28.35 98.25 -29.0 97.0 -29.75 L97.0 -30.05 Q97.0 -31.5 98.3 -35.65 L99.35 -38.85" fill="#999999" fill-rule="evenodd" stroke="none"/>
    </g>
  </defs>
</svg>
