<?xml version="1.0" encoding="UTF-8" standalone="no"?>
<svg xmlns:xlink="http://www.w3.org/1999/xlink" height="531.5px" width="460.6px" xmlns="http://www.w3.org/2000/svg">
  <g transform="matrix(1.0, 0.0, 0.0, 1.0, 193.65, 334.05)">
    <use height="107.05" transform="matrix(1.0, 0.0, 0.0, 1.0, -108.45, -64.4)" width="230.7" xlink:href="#shape0"/>
  </g>
  <defs>
    <g id="shape0" transform="matrix(1.0, 0.0, 0.0, 1.0, 108.45, 64.4)">
      <path d="M39.55 0.95 L39.85 -2.9 53.1 -3.3 Q54.1 2.25 54.15 7.75 48.3 2.25 39.55 0.95 48.3 2.25 54.15 7.75 54.2 12.05 53.7 16.3 47.85 18.75 40.45 16.7 39.0 9.45 39.55 0.95" fill="#70400f" fill-rule="evenodd" stroke="none"/>
      <path d="M54.15 7.75 Q54.1 2.25 53.1 -3.3 L39.85 -2.9 39.55 0.95 Q39.0 9.45 40.45 16.7 47.85 18.75 53.7 16.3 54.2 12.05 54.15 7.75" fill="none" stroke="#000000" stroke-linecap="round" stroke-linejoin="round" stroke-opacity="0.5019608" stroke-width="1.0"/>
      <path d="M39.55 0.95 Q48.3 2.25 54.15 7.75 Z" fill="none" stroke="#000000" stroke-linecap="round" stroke-linejoin="round" stroke-opacity="0.33333334" stroke-width="0.7000000000000001"/>
      <path d="M17.55 0.35 L18.25 2.0 Q18.85 3.75 18.9 6.65 19.0 9.3 18.35 12.2 L17.75 14.25 -40.75 17.05 Q-56.85 13.95 -67.2 23.25 -75.2 22.8 -80.2 24.4 L-86.3 14.45 -84.9 28.85 -86.8 31.2 -92.15 31.65 Q-98.25 25.05 -98.4 20.15 -98.5 15.65 -96.25 12.4 -93.95 9.1 -89.95 8.65 L-90.0 7.05 -90.35 5.7 -90.45 3.9 Q-90.6 -0.95 -88.9 -3.9 -87.75 -5.75 -84.6 -8.9 L-81.2 -8.9 Q-80.05 -3.4 -78.5 -0.95 -75.95 3.25 -70.75 3.1 L-61.5 2.2 -51.3 1.3 -35.8 0.5 -34.15 0.25 Q-9.65 0.9 17.55 0.35" fill="#ffe9bd" fill-rule="evenodd" stroke="none"/>
      <path d="M17.75 14.25 L18.35 12.2 Q19.0 9.3 18.9 6.65 18.85 3.75 18.25 2.0 L17.55 0.35 26.9 0.1 27.3 14.15 17.75 14.25 M-84.6 -8.9 Q-87.75 -5.75 -88.9 -3.9 -90.6 -0.95 -90.45 3.9 L-90.35 5.7 -90.0 7.05 -89.95 8.65 Q-93.95 9.1 -96.25 12.4 -98.5 15.65 -98.4 20.15 -98.25 25.05 -92.15 31.65 -103.4 32.25 -106.5 28.35 -108.8 18.7 -107.5 5.5 -104.9 -0.4 -97.45 -0.4 -97.4 -2.75 -95.1 -5.95 -90.55 -8.65 -84.6 -8.9" fill="#f2d69f" fill-rule="evenodd" stroke="none"/>
      <path d="M-34.15 0.25 L-35.8 0.5 -51.3 1.3 -61.5 2.2 -70.75 3.1 Q-75.95 3.25 -78.5 -0.95 -80.05 -3.4 -81.2 -8.9 L-81.15 -8.9 -74.65 -1.75 -34.15 0.25" fill="#fff5e0" fill-rule="evenodd" stroke="none"/>
      <path d="M-84.9 28.85 L-86.3 14.45 -80.2 24.4 -81.8 24.95 -84.9 28.85" fill="#dbbd87" fill-rule="evenodd" stroke="none"/>
      <path d="M17.75 14.25 L27.3 14.15 26.9 0.1 17.55 0.35 Q-9.65 0.9 -34.15 0.25 L-74.65 -1.75 -81.15 -8.9 -81.2 -8.9 -84.6 -8.9 Q-90.55 -8.65 -95.1 -5.95 -97.4 -2.75 -97.45 -0.4 -104.9 -0.4 -107.5 5.5 -108.8 18.7 -106.5 28.35 -103.4 32.25 -92.15 31.65 L-86.8 31.2 -84.9 28.85 -81.8 24.95 -80.2 24.4 Q-75.2 22.8 -67.2 23.25 -56.85 13.95 -40.75 17.05 L17.75 14.25 Z" fill="none" stroke="#000000" stroke-linecap="round" stroke-linejoin="round" stroke-opacity="0.5019608" stroke-width="1.0"/>
      <path d="M25.3 6.15 Q25.15 3.1 25.25 -0.1 27.0 -2.1 30.25 -1.85 L31.95 3.8 25.3 6.15 31.95 3.8 Q33.6 9.65 34.35 15.05 30.75 16.55 26.35 13.9 25.55 10.15 25.3 6.15" fill="#915314" fill-rule="evenodd" stroke="none"/>
      <path d="M31.95 3.8 L30.25 -1.85 Q27.0 -2.1 25.25 -0.1 25.15 3.1 25.3 6.15 25.55 10.15 26.35 13.9 30.75 16.55 34.35 15.05 33.6 9.65 31.95 3.8" fill="none" stroke="#000000" stroke-linecap="round" stroke-linejoin="round" stroke-opacity="0.5019608" stroke-width="1.0"/>
      <path d="M25.3 6.15 L31.95 3.8 Z" fill="none" stroke="#000000" stroke-linecap="round" stroke-linejoin="round" stroke-opacity="0.33333334" stroke-width="0.7000000000000001"/>
      <path d="M41.4 5.0 Q41.65 10.5 41.1 16.1 35.25 18.35 29.4 15.4 L28.9 10.7 Q28.7 4.7 30.2 -2.0 35.25 -4.45 40.55 -2.6 41.2 1.15 41.4 5.0 35.6 9.3 28.9 10.7 35.6 9.3 41.4 5.0" fill="#a86f36" fill-rule="evenodd" stroke="none"/>
      <path d="M41.4 5.0 Q41.65 10.5 41.1 16.1 35.25 18.35 29.4 15.4 L28.9 10.7 Q28.7 4.7 30.2 -2.0 35.25 -4.45 40.55 -2.6 41.2 1.15 41.4 5.0" fill="none" stroke="#000000" stroke-linecap="round" stroke-linejoin="round" stroke-opacity="0.5019608" stroke-width="1.0"/>
      <path d="M41.4 5.0 Q35.6 9.3 28.9 10.7" fill="none" stroke="#000000" stroke-linecap="round" stroke-linejoin="round" stroke-opacity="0.33333334" stroke-width="0.7000000000000001"/>
      <path d="M86.4 -29.25 Q94.0 -28.35 98.55 -25.25 104.45 -21.3 104.7 -14.1 L104.05 -4.75 Q103.4 3.6 103.55 7.85 103.7 12.5 107.45 21.05 111.2 29.55 111.3 32.75 111.4 35.65 108.9 37.2 107.15 38.35 102.5 39.4 L99.55 40.15 96.8 40.95 94.45 41.6 Q84.1 41.35 74.1 38.65 L63.9 39.25 62.45 39.45 60.4 39.8 58.75 40.35 55.15 40.45 Q50.7 40.6 42.25 37.85 32.75 34.8 32.65 31.75 32.6 30.05 34.6 27.4 L38.6 22.35 39.95 20.85 Q48.45 15.5 53.2 7.35 L53.15 7.3 53.4 6.85 53.5 5.9 Q53.3 -0.45 43.5 -9.2 38.65 -13.35 36.8 -15.05 33.75 -17.9 33.7 -19.1 33.65 -20.85 39.6 -24.4 42.0 -25.85 43.95 -26.6 51.25 -27.0 58.95 -23.65 63.0 -22.8 71.15 -26.3 L73.3 -27.1 78.35 -28.7 81.95 -29.55 83.8 -29.45 86.4 -29.25 89.7 -26.2 86.4 -29.25 M82.4 -26.75 L83.8 -29.45 82.4 -26.75 M96.5 32.7 L97.35 34.85 98.8 38.45 96.8 40.95 98.8 38.45 97.35 34.85 96.5 32.7 M82.35 -9.6 L80.15 -13.05 76.9 -8.05 80.15 -13.05 76.8 -18.35 77.55 -23.5 73.3 -27.1 77.55 -23.5 76.8 -18.35 80.15 -13.05 82.35 -9.6 M77.55 -23.5 L78.35 -28.7 77.55 -23.5 M69.05 -15.35 L68.7 -20.15 Q66.7 -18.9 65.55 -16.65 60.6 -7.1 59.5 3.7 59.0 6.9 59.2 10.25 59.7 19.7 65.05 27.55 67.45 31.05 70.85 33.0 73.25 34.3 75.75 33.45 72.35 26.9 70.45 19.95 67.75 10.9 67.4 1.35 67.1 -7.0 69.05 -15.35 M98.4 29.55 L97.35 34.85 98.4 29.55 M98.8 38.45 L99.55 40.15 98.8 38.45" fill="#ffe9bd" fill-rule="evenodd" stroke="none"/>
      <path d="M99.55 40.15 L102.5 39.4 Q107.15 38.35 108.9 37.2 111.4 35.65 111.3 32.75 111.2 29.55 107.45 21.05 103.7 12.5 103.55 7.85 103.4 3.6 104.05 -4.75 L104.7 -14.1 Q104.45 -21.3 98.55 -25.25 94.0 -28.35 86.4 -29.25 L85.3 -30.2 86.4 -29.25 83.8 -29.45 84.05 -30.05 85.3 -30.2 Q98.3 -32.4 110.55 -28.9 117.7 -23.25 119.3 -16.75 118.75 -5.8 113.95 6.3 121.25 20.1 121.75 30.6 117.1 39.05 109.5 40.8 L100.15 41.6 99.55 40.15 100.15 41.6 96.25 41.65 94.45 41.6 96.8 40.95 99.55 40.15 M81.95 -29.55 L84.05 -30.05 83.8 -29.45 81.95 -29.55 M96.25 41.65 L96.8 40.95 96.25 41.65" fill="#fff5e0" fill-rule="evenodd" stroke="none"/>
      <path d="M43.95 -26.6 Q42.0 -25.85 39.6 -24.4 33.65 -20.85 33.7 -19.1 33.75 -17.9 36.8 -15.05 38.65 -13.35 43.5 -9.2 53.3 -0.45 53.5 5.9 L53.4 6.85 53.15 7.3 Q46.05 -2.85 32.6 -10.3 22.6 -15.25 26.4 -19.8 34.85 -26.1 43.95 -26.6 M39.95 20.85 L38.6 22.35 34.6 27.4 Q32.6 30.05 32.65 31.75 32.75 34.8 42.25 37.85 50.7 40.6 55.15 40.45 L58.75 40.35 Q40.4 45.9 26.4 34.55 24.6 29.0 28.7 26.15 35.0 23.95 39.95 20.85 M69.05 -15.35 Q67.1 -7.0 67.4 1.35 67.75 10.9 70.45 19.95 72.35 26.9 75.75 33.45 73.25 34.3 70.85 33.0 67.45 31.05 65.05 27.55 59.7 19.7 59.2 10.25 59.0 6.9 59.5 3.7 60.6 -7.1 65.55 -16.65 66.7 -18.9 68.7 -20.15 L69.05 -15.35" fill="#f2d69f" fill-rule="evenodd" stroke="none"/>
      <path d="M100.15 41.6 L109.5 40.8 Q117.1 39.05 121.75 30.6 121.25 20.1 113.95 6.3 118.75 -5.8 119.3 -16.75 117.7 -23.25 110.55 -28.9 98.3 -32.4 85.3 -30.2 L84.05 -30.05 81.95 -29.55 78.35 -28.7 73.3 -27.1 71.15 -26.3 Q63.0 -22.8 58.95 -23.65 51.25 -27.0 43.95 -26.6 34.85 -26.1 26.4 -19.8 22.6 -15.25 32.6 -10.3 46.05 -2.85 53.15 7.3 L53.2 7.35 Q48.45 15.5 39.95 20.85 35.0 23.95 28.7 26.15 24.6 29.0 26.4 34.55 40.4 45.9 58.75 40.35 L60.4 39.8 62.45 39.45 63.9 39.25 74.1 38.65 Q84.1 41.35 94.45 41.6 L96.25 41.65 100.15 41.6" fill="none" stroke="#000000" stroke-linecap="round" stroke-linejoin="round" stroke-opacity="0.5019608" stroke-width="1.0"/>
      <path d="M99.55 40.15 L100.15 41.6 M85.3 -30.2 L86.4 -29.25 89.7 -26.2 M83.8 -29.45 L84.05 -30.05 M83.8 -29.45 L82.4 -26.75 M96.8 40.95 L98.8 38.45 97.35 34.85 96.5 32.7 M76.9 -8.05 L80.15 -13.05 76.8 -18.35 77.55 -23.5 73.3 -27.1 M78.35 -28.7 L77.55 -23.5 M80.15 -13.05 L82.35 -9.6 M97.35 34.85 L98.4 29.55 M96.8 40.95 L96.25 41.65 M99.55 40.15 L98.8 38.45" fill="none" stroke="#000000" stroke-linecap="round" stroke-linejoin="round" stroke-opacity="0.33333334" stroke-width="0.5"/>
      <path d="M113.95 6.3 Q112.7 11.8 113.85 18.05 M113.9 7.9 L115.5 15.7 M112.1 -1.1 Q110.55 7.4 111.85 19.45" fill="none" stroke="#000000" stroke-linecap="round" stroke-linejoin="round" stroke-opacity="0.4" stroke-width="1.0"/>
      <path d="M-20.65 -8.15 Q-21.15 -9.35 -21.35 -12.05 L-21.5 -16.95 Q-21.5 -22.05 -20.85 -25.5 -20.3 -28.5 -18.25 -34.75 -16.2 -41.1 -14.85 -43.65 L-12.0 -48.15 Q-11.1 -49.4 -9.6 -50.5 L-9.05 -50.85 Q-7.65 -51.8 -7.65 -50.35 -7.65 -50.85 -10.2 -47.4 L-12.15 -44.5 -9.1 -46.05 -5.9 -47.7 Q-3.75 -48.45 -3.75 -47.0 -3.75 -45.45 -13.5 -42.0 L-14.5 -39.6 -17.85 -28.85 Q-19.15 -24.0 -19.35 -18.1 L-19.25 -10.15 -16.65 -10.25 -13.6 -9.85 -12.25 -8.8 Q-11.45 -7.95 -11.25 -6.65 L-11.2 -4.6 Q-11.2 -1.55 -11.35 -1.05 -11.8 0.35 -13.9 0.35 L-20.25 0.15 -20.7 1.05 Q-21.85 3.3 -22.0 4.0 L-22.55 6.45 -22.95 9.2 -23.05 14.45 -23.05 15.25 -21.5 15.1 Q-19.25 15.2 -19.4 17.35 L-19.25 21.25 Q-19.25 22.85 -20.35 23.95 -21.65 25.25 -24.3 25.75 L-27.75 26.0 -35.15 25.6 Q-35.2 26.35 -35.4 26.9 L-36.0 27.7 Q-36.55 28.2 -37.45 28.6 -39.45 29.35 -43.05 29.35 L-48.55 28.8 Q-50.45 28.25 -51.35 27.3 L-51.95 26.3 -53.3 26.4 -54.55 26.4 -56.95 26.55 Q-62.45 26.25 -64.65 20.5 L-65.25 18.65 Q-68.65 6.5 -68.35 -6.15 -68.1 -18.3 -65.95 -30.25 -64.1 -40.75 -60.6 -50.8 -59.0 -55.4 -57.0 -59.8 -54.6 -64.4 -53.85 -64.4 L-53.3 -64.15 -53.25 -64.1 -53.0 -63.65 -53.0 -63.6 Q-53.0 -63.25 -54.5 -59.8 -59.65 -49.65 -61.75 -38.45 L-63.25 -30.25 -65.15 -17.85 Q-66.9 -4.3 -64.85 9.05 -64.05 14.05 -62.5 18.65 -61.8 22.25 -59.2 23.5 L-56.85 24.05 -54.55 24.1 -53.45 24.1 -52.05 23.75 Q-51.8 22.25 -51.0 22.25 -50.7 22.65 -50.6 23.55 L-50.6 23.6 -50.55 23.6 -50.25 24.75 -50.25 24.9 -50.0 25.4 -49.9 25.55 -49.25 26.35 -49.15 26.45 Q-48.5 26.95 -46.6 27.0 L-43.0 26.9 Q-38.7 26.9 -37.7 26.0 -37.5 25.8 -37.4 24.65 -37.6 23.05 -37.4 22.35 -37.1 21.25 -36.4 21.55 -35.75 21.85 -35.4 22.85 L-35.25 23.7 -35.2 23.7 -34.4 24.0 -28.75 23.75 -23.45 23.1 -23.1 22.95 -22.3 22.3 -21.5 21.15 Q-21.2 19.9 -21.0 17.0 L-23.05 16.7 -23.1 19.65 -23.1 19.95 -23.65 20.15 -24.2 19.45 -24.4 18.4 -24.35 16.5 -24.4 14.35 -24.35 12.75 -24.25 9.1 -23.6 5.0 Q-23.05 2.25 -22.25 0.45 L-21.75 -0.55 Q-20.8 -2.2 -19.75 -1.9 L-19.65 -1.45 -19.75 -1.0 -19.4 -1.05 -15.85 -1.35 -13.1 -1.65 -13.2 -5.9 Q-13.35 -8.2 -16.6 -8.6 L-19.2 -8.95 -19.15 -7.9 -19.15 -7.4 Q-19.1 -7.15 -19.75 -7.15 -20.3 -7.15 -20.65 -8.15" fill="#000000" fill-rule="evenodd" stroke="none"/>
      <path d="M-20.65 -8.15 L-21.25 -8.25 -22.5 -8.8 -22.9 -9.15 -23.15 -11.6 -23.3 -16.85 Q-23.3 -22.35 -22.7 -26.05 -22.25 -29.3 -20.4 -36.0 -18.6 -42.85 -17.4 -45.6 L-14.85 -50.45 -12.75 -53.0 -12.65 -53.05 -9.05 -50.85 -9.6 -50.5 Q-11.1 -49.4 -12.0 -48.15 L-14.85 -43.65 Q-16.2 -41.1 -18.25 -34.75 -20.3 -28.5 -20.85 -25.5 -21.5 -22.05 -21.5 -16.95 L-21.35 -12.05 Q-21.15 -9.35 -20.65 -8.15 M-52.35 -63.65 L-52.6 -63.0 Q-57.15 -52.05 -59.05 -40.0 L-60.35 -31.2 Q-61.35 -24.5 -62.45 -12.95 -63.6 -1.4 -62.3 7.65 -61.05 16.65 -60.25 19.65 L-59.2 23.5 Q-61.8 22.25 -62.5 18.65 -64.05 14.05 -64.85 9.05 -66.9 -4.3 -65.15 -17.85 L-63.25 -30.25 -61.75 -38.45 Q-59.65 -49.65 -54.5 -59.8 -53.0 -63.25 -53.0 -63.6 L-53.0 -63.65 -52.35 -63.65 M-49.9 25.55 L-49.5 25.35 Q-49.25 25.7 -49.15 26.45 L-49.25 26.35 -49.9 25.55 M-23.1 22.95 L-22.85 19.7 -23.1 19.65 -23.05 16.7 -21.0 17.0 Q-21.2 19.9 -21.5 21.15 L-22.3 22.3 -23.1 22.95 M-24.2 19.45 L-24.55 19.35 -25.0 19.1 -25.4 18.65 -25.65 18.15 -25.85 17.0 -25.85 16.85 -25.85 15.1 -25.75 11.2 -25.15 6.75 Q-24.65 3.8 -23.95 1.85 -22.9 -1.05 -21.75 -0.65 L-21.75 -0.55 -22.25 0.45 Q-23.05 2.25 -23.6 5.0 L-24.25 9.1 -24.35 12.75 -24.4 14.35 -24.35 16.5 -24.4 18.4 -24.2 19.45 M-15.85 -1.35 L-15.95 -4.95 Q-16.05 -7.45 -18.95 -7.9 L-19.15 -7.9 -19.2 -8.95 -16.6 -8.6 Q-13.35 -8.2 -13.2 -5.9 L-13.1 -1.65 -15.85 -1.35" fill="#bdbdbd" fill-rule="evenodd" stroke="none"/>
      <path d="M-12.65 -53.05 L-12.75 -53.0 -14.85 -50.45 -17.4 -45.6 Q-18.6 -42.85 -20.4 -36.0 -22.25 -29.3 -22.7 -26.05 -23.3 -22.35 -23.3 -16.85 L-23.15 -11.6 -22.9 -9.15 -22.5 -8.8 -21.25 -8.25 -20.65 -8.15 Q-20.3 -7.15 -19.75 -7.15 -19.1 -7.15 -19.15 -7.4 L-19.15 -7.9 -18.95 -7.9 Q-16.05 -7.45 -15.95 -4.95 L-15.85 -1.35 -19.4 -1.05 -19.75 -1.0 -19.65 -1.45 -19.75 -1.9 Q-20.8 -2.2 -21.75 -0.55 L-21.75 -0.65 Q-22.9 -1.05 -23.95 1.85 -24.65 3.8 -25.15 6.75 L-25.75 11.2 -25.85 15.1 -25.85 16.85 -25.85 17.0 -25.65 18.15 -25.4 18.65 -25.0 19.1 -24.55 19.35 -24.2 19.45 -23.65 20.15 -23.1 19.95 -23.1 19.65 -22.85 19.7 -23.1 22.95 -23.45 23.1 -28.75 23.75 -34.4 24.0 -35.2 23.7 -35.25 23.7 -35.4 22.85 Q-35.75 21.85 -36.4 21.55 -37.1 21.25 -37.4 22.35 -37.6 23.05 -37.4 24.65 -37.5 25.8 -37.7 26.0 -38.7 26.9 -43.0 26.9 L-46.6 27.0 Q-48.5 26.95 -49.15 26.45 -49.25 25.7 -49.5 25.35 L-49.9 25.55 -50.0 25.4 -50.25 24.9 -50.25 24.75 -50.55 23.6 -50.6 23.6 -50.6 23.55 Q-50.7 22.65 -51.0 22.25 -51.8 22.25 -52.05 23.75 L-53.45 24.1 -54.55 24.1 -56.85 24.05 -59.2 23.5 -60.25 19.65 Q-61.05 16.65 -62.3 7.65 -63.6 -1.4 -62.45 -12.95 -61.35 -24.5 -60.35 -31.2 L-59.05 -40.0 Q-57.15 -52.05 -52.6 -63.0 L-52.35 -63.65 Q-30.75 -63.45 -12.65 -53.05" fill="#999999" fill-rule="evenodd" stroke="none"/>
    </g>
  </defs>
</svg>
