<?xml version="1.0" encoding="UTF-8" standalone="no"?>
<svg xmlns:xlink="http://www.w3.org/1999/xlink" height="531.5px" width="460.6px" xmlns="http://www.w3.org/2000/svg">
  <g transform="matrix(1.0, 0.0, 0.0, 1.0, 193.65, 334.05)">
    <use height="147.1" transform="matrix(1.0, 0.0, 0.0, 1.0, -91.25, -67.25)" width="266.25" xlink:href="#shape0"/>
  </g>
  <defs>
    <g id="shape0" transform="matrix(1.0, 0.0, 0.0, 1.0, 91.25, 67.25)">
      <path d="M7.75 1.7 Q5.4 -3.0 8.3 -6.25 L9.65 -6.45 13.05 -6.6 Q16.55 -3.55 18.15 0.75 L18.8 2.9 18.15 0.75 Q16.55 -3.55 13.05 -6.6 19.45 -6.6 24.0 -3.25 L25.2 -1.75 Q28.5 2.75 25.65 7.9 23.4 5.65 20.95 4.1 L18.8 2.9 Q13.65 0.6 7.75 1.7 M6.6 19.95 L7.9 17.1 10.4 15.8 15.0 16.6 Q19.45 23.05 22.15 30.05 23.6 33.85 24.5 37.8 23.6 33.85 22.15 30.05 19.45 23.05 15.0 16.6 21.75 18.55 27.65 24.6 L29.0 26.05 Q28.9 31.55 26.3 35.45 L25.9 36.1 24.5 37.8 23.1 38.95 Q20.55 40.9 17.05 41.05 L14.3 40.85 13.25 40.9 Q10.2 40.6 8.05 39.3 4.85 37.45 3.95 33.8 L3.9 33.7 3.7 31.8 Q3.45 26.85 5.8 21.65 L6.6 19.95 M49.55 37.95 L50.2 35.95 50.5 34.65 54.45 35.85 52.95 34.0 51.75 32.45 53.2 26.5 Q62.4 30.85 71.45 34.25 85.6 39.45 99.55 42.2 L94.45 46.95 91.85 49.2 Q100.25 52.9 108.25 57.2 L105.1 67.0 97.4 66.25 104.2 69.5 102.7 74.25 Q72.3 68.7 44.25 54.85 44.9 53.4 45.15 52.0 53.35 54.2 61.25 56.9 L46.5 47.95 49.55 37.95 M93.35 -61.25 Q99.9 -64.4 106.8 -66.9 L108.5 -63.5 104.0 -60.3 103.9 -60.2 104.15 -60.3 109.55 -61.7 111.0 -59.3 113.25 -54.85 112.55 -54.25 108.25 -51.05 101.95 -46.65 107.8 -42.95 108.4 -42.6 108.7 -42.35 107.6 -41.95 104.15 -40.55 Q89.9 -34.3 75.95 -24.45 L74.7 -27.0 74.35 -27.95 74.05 -28.7 75.65 -31.6 72.85 -30.2 72.45 -31.2 69.05 -37.8 68.1 -39.6 68.85 -40.35 77.95 -48.3 Q72.4 -45.25 66.45 -42.55 L65.5 -44.55 Q78.75 -54.3 93.35 -61.25 M79.8 -47.5 L79.6 -47.65 79.5 -47.55 Q79.25 -47.55 79.35 -47.2 L79.85 -46.25 81.3 -44.0 81.6 -43.45 79.85 -42.3 79.3 -41.85 Q78.75 -41.6 78.75 -41.25 L78.9 -41.0 79.35 -40.95 80.0 -41.25 80.4 -41.7 81.95 -42.75 Q83.8 -40.4 83.7 -40.0 L84.75 -38.7 85.1 -38.4 85.6 -37.9 85.65 -38.0 85.35 -38.7 85.05 -39.4 83.7 -41.6 Q83.45 -42.65 82.8 -43.3 L85.8 -45.15 85.95 -45.25 86.0 -45.2 Q86.6 -44.0 87.1 -43.35 L87.95 -42.9 88.05 -43.5 86.85 -45.45 86.75 -45.6 88.35 -46.8 Q89.0 -47.1 88.7 -47.35 L88.05 -47.25 Q87.45 -47.15 86.95 -46.7 L86.5 -46.5 86.25 -46.25 86.05 -46.5 84.8 -48.55 Q86.1 -48.25 86.4 -48.55 87.25 -49.05 86.25 -49.25 L85.1 -49.35 84.0 -49.65 Q83.05 -50.2 82.75 -49.95 82.6 -49.9 82.75 -49.85 L82.8 -49.6 84.3 -48.8 84.35 -48.6 Q84.25 -48.3 85.25 -46.45 L85.5 -45.9 Q84.35 -45.35 83.0 -44.4 L82.3 -43.9 82.15 -44.2 81.0 -46.3 79.8 -47.5 M98.05 -50.15 L101.05 -51.55 101.4 -51.05 102.2 -49.8 102.45 -49.55 102.9 -48.6 96.7 -45.95 96.55 -45.9 95.5 -45.4 Q95.4 -46.7 94.0 -48.25 L94.0 -48.35 95.25 -48.8 98.05 -50.15 M96.05 -50.15 L95.1 -49.7 94.1 -49.25 93.65 -48.9 Q93.7 -49.1 93.4 -49.0 93.65 -49.1 93.4 -49.1 L93.3 -49.05 93.05 -48.9 Q92.9 -48.9 93.05 -48.6 L92.3 -47.9 Q92.5 -48.1 92.35 -47.8 L93.45 -48.1 93.45 -48.05 94.55 -46.45 95.0 -45.4 95.0 -45.25 93.85 -44.75 93.6 -44.65 Q93.35 -44.5 93.6 -44.25 L93.9 -44.15 94.75 -44.2 96.05 -44.9 98.45 -45.95 Q100.85 -47.25 102.1 -47.65 102.7 -48.1 103.05 -48.15 L103.45 -48.35 Q103.6 -48.95 103.15 -49.55 L103.05 -49.85 102.3 -51.45 102.05 -51.75 Q101.65 -52.7 101.0 -52.4 100.55 -52.3 100.1 -52.0 99.9 -52.15 96.05 -50.15 M98.85 -56.0 L97.65 -57.45 Q96.8 -58.35 96.3 -58.35 L96.35 -57.75 96.55 -57.4 97.75 -55.6 97.6 -55.5 96.85 -55.0 96.0 -54.75 96.05 -54.85 Q94.45 -57.2 94.2 -56.9 94.05 -56.85 94.2 -56.1 L95.3 -54.35 95.2 -54.4 95.0 -54.3 93.7 -54.15 92.1 -54.4 90.65 -54.3 Q90.65 -53.85 92.6 -53.45 L93.2 -53.35 92.3 -52.9 Q90.25 -52.05 89.65 -50.95 90.95 -51.15 92.75 -52.05 93.1 -52.15 93.25 -52.3 93.1 -51.65 93.3 -51.2 L93.65 -50.85 93.9 -50.8 93.95 -51.7 94.5 -52.9 Q95.1 -53.1 95.65 -53.6 L95.85 -53.5 Q97.05 -51.6 97.65 -51.75 L97.75 -51.85 97.55 -52.5 96.6 -53.95 97.25 -54.25 Q98.05 -54.65 98.35 -55.15 L99.05 -54.6 Q100.7 -53.3 101.35 -53.35 101.3 -53.95 98.85 -56.0 M83.8 48.3 L81.95 47.7 Q80.7 47.65 80.55 48.05 80.25 48.4 80.65 48.55 L80.9 48.65 82.65 49.1 82.65 49.2 82.25 50.55 Q82.0 51.65 81.15 53.0 L79.7 52.95 Q79.95 53.15 79.7 53.1 L80.8 53.9 Q80.7 54.25 80.95 54.2 L81.25 54.3 81.35 54.3 Q81.65 54.35 81.4 54.2 L81.6 54.05 82.3 54.35 83.6 54.7 85.05 55.1 90.6 56.6 91.95 56.8 Q92.75 56.95 93.15 55.8 93.95 54.35 94.05 52.75 94.5 51.8 94.15 51.1 L93.55 50.9 92.2 50.45 87.15 49.1 83.8 48.3 M84.9 49.45 L93.45 51.45 Q93.35 52.5 92.8 53.25 L91.85 55.75 87.7 54.65 83.65 53.6 82.05 53.15 Q83.35 50.9 83.3 49.1 L84.9 49.45 M81.65 57.05 Q81.55 57.7 81.75 58.5 L81.15 58.2 Q78.7 57.55 76.9 57.55 77.95 58.9 80.8 59.45 L82.05 59.85 Q81.9 60.15 81.35 60.05 78.9 61.1 79.0 61.7 L80.9 61.45 82.85 60.8 84.55 60.7 Q84.95 60.9 84.9 60.7 L85.0 60.7 83.95 63.2 Q83.95 64.2 84.2 64.3 84.6 64.5 86.1 61.2 L86.0 61.1 87.15 61.2 88.25 61.65 Q88.35 61.85 88.45 61.65 L87.3 64.2 87.1 64.85 87.25 65.6 Q87.9 65.45 88.75 64.1 L90.0 62.0 Q92.75 58.75 92.6 58.05 91.8 58.15 89.8 60.2 L89.15 61.0 Q88.7 60.5 87.5 60.05 L86.6 59.85 87.45 57.75 Q87.85 57.2 87.6 56.95 L87.4 56.75 Q86.7 56.8 85.5 59.45 L85.3 59.55 83.65 59.0 83.6 58.95 82.7 57.6 82.4 56.4 82.1 56.5 81.65 57.05 M67.8 42.95 L66.65 44.9 Q66.95 45.3 65.15 48.8 L62.95 47.75 62.3 47.25 61.4 47.05 Q60.85 46.9 60.8 47.2 60.9 47.45 60.65 47.55 60.8 48.05 61.55 48.15 L62.3 48.6 64.8 49.7 64.3 51.05 63.15 53.8 62.85 55.05 Q62.75 55.6 63.05 55.5 L63.25 55.6 Q63.5 55.65 63.35 55.45 L64.7 53.55 Q65.25 52.95 65.85 50.45 L65.95 50.2 66.15 50.3 70.45 52.05 70.3 52.65 Q69.3 55.4 69.55 55.75 L69.55 56.0 67.75 57.4 67.8 57.7 Q67.6 57.85 67.85 57.9 68.3 58.15 69.3 57.3 L70.75 56.45 72.15 56.15 Q73.45 55.65 72.2 55.25 71.75 54.95 70.1 55.6 L71.35 52.6 71.45 52.35 Q71.55 52.65 71.8 52.5 72.5 52.7 72.5 52.8 L74.05 53.15 74.85 53.1 Q75.2 52.8 74.3 52.5 L71.9 51.45 73.1 48.35 72.95 47.55 71.95 48.4 Q71.45 49.25 70.9 51.05 L67.55 49.65 66.4 49.25 Q67.1 48.25 67.2 46.85 L68.35 43.7 68.85 41.8 68.75 41.7 67.8 42.95" fill="#d6cfab" fill-rule="evenodd" stroke="none"/>
      <path d="M9.65 -6.45 L8.3 -6.25 Q5.4 -3.0 7.75 1.7 L5.0 2.4 Q3.3 6.55 3.65 9.75 3.95 14.25 7.9 17.1 L6.6 19.95 -2.55 21.85 -17.25 19.8 -21.0 17.2 Q-12.0 11.15 -2.0 8.1 L-4.0 6.4 Q-8.55 2.15 -11.45 -3.45 -4.0 -4.7 2.5 -3.35 3.5 -7.45 7.3 -11.65 8.75 -9.2 9.65 -6.45 M25.2 -1.75 Q29.1 -6.3 33.95 -10.05 L36.95 -9.85 Q41.7 -10.05 44.6 -12.85 34.1 3.45 34.5 11.3 34.65 14.3 35.95 15.9 36.75 17.05 39.1 18.35 44.6 21.55 46.8 26.95 48.95 32.15 52.95 34.0 L54.45 35.85 50.5 34.65 50.2 35.95 49.55 37.95 Q46.1 31.85 43.7 25.85 42.15 22.0 33.05 17.65 L30.0 16.2 Q29.5 14.5 28.25 12.25 L25.65 7.9 Q28.5 2.75 25.2 -1.75 M47.15 -16.65 Q48.05 -18.95 48.15 -21.8 L48.15 -21.9 Q50.1 -22.15 51.4 -22.7 L47.15 -16.65 M56.05 -28.8 Q55.85 -31.25 52.8 -36.8 L52.05 -37.85 55.15 -41.25 Q63.8 -50.4 74.5 -57.05 81.55 -62.25 91.35 -61.35 L93.35 -61.25 Q78.75 -54.3 65.5 -44.55 L66.45 -42.55 Q72.4 -45.25 77.95 -48.3 L68.85 -40.35 Q64.35 -38.35 61.8 -35.6 L56.05 -28.8 M104.0 -60.3 L104.15 -60.3 103.9 -60.2 104.0 -60.3 M111.0 -59.3 L124.85 -56.3 Q124.7 -55.05 124.8 -53.65 L125.0 -51.95 Q119.75 -54.65 113.45 -54.35 L113.1 -54.35 113.25 -54.85 111.0 -59.3 M133.3 -45.2 L137.55 -44.6 Q140.45 -44.75 142.95 -46.35 146.15 -42.85 149.05 -38.05 153.9 -35.55 158.6 -36.8 167.35 -38.45 170.35 -31.45 175.2 -10.15 174.55 12.3 173.7 16.2 169.55 19.0 167.95 20.15 167.6 23.05 L167.8 23.4 167.25 23.2 158.35 21.15 160.55 17.4 160.65 17.1 163.3 8.3 163.7 6.7 Q165.45 -0.35 165.3 -3.05 164.9 -10.75 157.6 -21.75 150.75 -31.9 145.3 -34.95 141.4 -37.15 137.35 -41.15 L133.3 -45.2 M128.5 45.25 L126.25 47.6 Q122.4 51.6 117.35 58.45 L110.15 67.95 113.4 59.65 Q115.15 54.65 115.05 52.8 115.0 51.7 107.7 50.0 L103.6 49.05 99.55 42.2 Q85.6 39.45 71.45 34.25 76.75 32.9 82.05 29.35 L87.5 25.75 Q90.3 24.1 92.4 24.0 94.25 23.9 97.55 27.4 L104.45 35.15 Q114.8 46.4 122.9 46.0 L128.5 45.25" fill="url(#gradient0)" fill-rule="evenodd" stroke="none"/>
      <path d="M79.8 -47.5 L81.0 -46.3 82.15 -44.2 82.3 -43.9 83.0 -44.4 Q84.35 -45.35 85.5 -45.9 L85.25 -46.45 Q84.25 -48.3 84.35 -48.6 L84.3 -48.8 82.8 -49.6 82.75 -49.85 Q82.6 -49.9 82.75 -49.95 83.05 -50.2 84.0 -49.65 L85.1 -49.35 86.25 -49.25 Q87.25 -49.05 86.4 -48.55 86.1 -48.25 84.8 -48.55 L86.05 -46.5 86.25 -46.25 86.5 -46.5 86.95 -46.7 Q87.45 -47.15 88.05 -47.25 L88.7 -47.35 Q89.0 -47.1 88.35 -46.8 L86.75 -45.6 86.85 -45.45 88.05 -43.5 87.95 -42.9 87.1 -43.35 Q86.6 -44.0 86.0 -45.2 L85.95 -45.25 85.8 -45.15 82.8 -43.3 Q83.45 -42.65 83.7 -41.6 L85.05 -39.4 85.35 -38.7 85.65 -38.0 85.6 -37.9 85.1 -38.4 84.75 -38.7 83.7 -40.0 Q83.8 -40.4 81.95 -42.75 L80.4 -41.7 80.0 -41.25 79.35 -40.95 78.9 -41.0 78.75 -41.25 Q78.75 -41.6 79.3 -41.85 L79.85 -42.3 81.6 -43.45 81.3 -44.0 79.85 -46.25 79.35 -47.2 Q79.25 -47.55 79.5 -47.55 L79.6 -47.65 79.8 -47.5 M98.85 -56.0 Q101.3 -53.95 101.35 -53.35 100.7 -53.3 99.05 -54.6 L98.35 -55.15 Q98.05 -54.65 97.25 -54.25 L96.6 -53.95 97.55 -52.5 97.75 -51.85 97.65 -51.75 Q97.05 -51.6 95.85 -53.5 L95.65 -53.6 Q95.1 -53.1 94.5 -52.9 L93.95 -51.7 93.9 -50.8 93.65 -50.85 93.3 -51.2 Q93.1 -51.65 93.25 -52.3 93.1 -52.15 92.75 -52.05 90.95 -51.15 89.65 -50.95 90.25 -52.05 92.3 -52.9 L93.2 -53.35 92.6 -53.45 Q90.65 -53.85 90.65 -54.3 L92.1 -54.4 93.7 -54.15 95.0 -54.3 95.2 -54.4 95.3 -54.35 94.2 -56.1 Q94.05 -56.85 94.2 -56.9 94.45 -57.2 96.05 -54.85 L96.0 -54.75 96.85 -55.0 97.6 -55.5 97.75 -55.6 96.55 -57.4 96.35 -57.75 96.3 -58.35 Q96.8 -58.35 97.65 -57.45 L98.85 -56.0 M96.05 -50.15 Q99.9 -52.15 100.1 -52.0 100.55 -52.3 101.0 -52.4 101.65 -52.7 102.05 -51.75 L102.3 -51.45 103.05 -49.85 103.15 -49.55 Q103.6 -48.95 103.45 -48.35 L103.05 -48.15 Q102.7 -48.1 102.1 -47.65 100.85 -47.25 98.45 -45.95 L96.05 -44.9 94.75 -44.2 93.9 -44.15 93.6 -44.25 Q93.35 -44.5 93.6 -44.65 L93.85 -44.75 95.0 -45.25 95.0 -45.4 94.55 -46.45 93.45 -48.05 93.45 -48.1 92.35 -47.8 Q92.5 -48.1 92.3 -47.9 L93.05 -48.6 Q92.9 -48.9 93.05 -48.9 L93.3 -49.05 93.4 -49.1 Q93.65 -49.1 93.4 -49.0 93.7 -49.1 93.65 -48.9 L94.1 -49.25 95.1 -49.7 96.05 -50.15 M98.05 -50.15 L95.25 -48.8 94.0 -48.35 94.0 -48.25 Q95.4 -46.7 95.5 -45.4 L96.55 -45.9 96.7 -45.95 102.9 -48.6 102.45 -49.55 102.2 -49.8 101.4 -51.05 101.05 -51.55 98.05 -50.15 M84.9 49.45 L83.3 49.1 Q83.35 50.9 82.05 53.15 L83.65 53.6 87.7 54.65 91.85 55.75 92.8 53.25 Q93.35 52.5 93.45 51.45 L84.9 49.45 M83.8 48.3 L87.15 49.1 92.2 50.45 93.55 50.9 94.15 51.1 Q94.5 51.8 94.05 52.75 93.95 54.35 93.15 55.8 92.75 56.95 91.95 56.8 L90.6 56.6 85.05 55.1 83.6 54.7 82.3 54.35 81.6 54.05 81.4 54.2 Q81.65 54.35 81.35 54.3 L81.25 54.3 80.95 54.2 Q80.7 54.25 80.8 53.9 L79.7 53.1 Q79.95 53.15 79.7 52.95 L81.15 53.0 Q82.0 51.65 82.25 50.55 L82.65 49.2 82.65 49.1 80.9 48.65 80.65 48.55 Q80.25 48.4 80.55 48.05 80.7 47.65 81.95 47.7 L83.8 48.3 M81.65 57.05 L82.1 56.5 82.4 56.4 82.7 57.6 83.6 58.95 83.65 59.0 85.3 59.55 85.5 59.45 Q86.7 56.8 87.4 56.75 L87.6 56.95 Q87.85 57.2 87.45 57.75 L86.6 59.85 87.5 60.05 Q88.7 60.5 89.15 61.0 L89.8 60.2 Q91.8 58.15 92.6 58.05 92.75 58.75 90.0 62.0 L88.75 64.1 Q87.9 65.45 87.25 65.6 L87.1 64.85 87.3 64.2 88.45 61.65 Q88.35 61.85 88.25 61.65 L87.15 61.2 86.0 61.1 86.1 61.2 Q84.6 64.5 84.2 64.3 83.95 64.2 83.95 63.2 L85.0 60.7 84.9 60.7 Q84.95 60.9 84.55 60.7 L82.85 60.8 80.9 61.45 79.0 61.7 Q78.9 61.1 81.35 60.05 81.9 60.15 82.05 59.85 L80.8 59.45 Q77.95 58.9 76.9 57.55 78.7 57.55 81.15 58.2 L81.75 58.5 Q81.55 57.7 81.65 57.05 M67.8 42.95 L68.75 41.7 68.85 41.8 68.35 43.7 67.2 46.85 Q67.1 48.25 66.4 49.25 L67.55 49.65 70.9 51.05 Q71.45 49.25 71.95 48.4 L72.95 47.55 73.1 48.35 71.9 51.45 74.3 52.5 Q75.2 52.8 74.85 53.1 L74.05 53.15 72.5 52.8 Q72.5 52.7 71.8 52.5 71.55 52.65 71.45 52.35 L71.35 52.6 70.1 55.6 Q71.75 54.95 72.2 55.25 73.45 55.65 72.15 56.15 L70.75 56.45 69.3 57.3 Q68.3 58.15 67.85 57.9 67.6 57.85 67.8 57.7 L67.75 57.4 69.55 56.0 69.55 55.75 Q69.3 55.4 70.3 52.65 L70.45 52.05 66.15 50.3 65.95 50.2 65.85 50.45 Q65.25 52.95 64.7 53.55 L63.35 55.45 Q63.5 55.65 63.25 55.6 L63.05 55.5 Q62.75 55.6 62.85 55.05 L63.15 53.8 64.3 51.05 64.8 49.7 62.3 48.6 61.55 48.15 Q60.8 48.05 60.65 47.55 60.9 47.45 60.8 47.2 60.85 46.9 61.4 47.05 L62.3 47.25 62.95 47.75 65.15 48.8 Q66.95 45.3 66.65 44.9 L67.8 42.95" fill="#3a3723" fill-rule="evenodd" stroke="none"/>
      <path d="M52.95 34.0 Q48.95 32.15 46.8 26.95 44.6 21.55 39.1 18.35 36.75 17.05 35.95 15.9 34.65 14.3 34.5 11.3 34.1 3.45 44.6 -12.85 L45.5 -13.8 Q46.5 -15.1 47.15 -16.65 L51.4 -22.7 Q55.1 -24.2 55.95 -27.95 L56.05 -28.8 61.8 -35.6 Q64.35 -38.35 68.85 -40.35 L68.1 -39.6 69.05 -37.8 Q66.75 -37.2 64.3 -34.3 62.2 -31.85 60.5 -28.65 59.75 -27.0 56.75 -23.7 L52.7 -19.4 Q46.45 -12.7 44.7 -9.0 L44.25 -7.95 Q46.85 -8.9 50.65 -12.0 L52.2 -13.35 48.45 -9.2 Q45.15 -5.5 43.05 -1.9 L43.1 2.75 Q43.25 5.65 44.4 8.9 49.8 8.65 59.7 0.6 63.25 -2.3 69.6 -8.25 L60.15 2.0 47.35 14.95 50.55 20.5 Q52.5 24.35 55.1 26.6 58.35 24.15 59.85 23.5 57.45 26.5 56.8 27.9 57.95 28.7 59.1 29.05 63.45 27.5 70.55 21.35 83.1 10.5 84.9 9.15 L84.9 9.4 74.8 19.75 65.3 29.4 70.05 28.1 Q76.1 24.2 83.7 17.85 106.15 -2.35 113.45 -7.6 L99.2 6.4 88.1 18.3 87.45 18.95 93.25 15.6 Q95.05 15.5 97.6 19.45 L102.5 27.05 133.95 0.15 134.4 -0.15 134.4 0.0 133.95 0.35 123.7 9.8 Q117.2 15.85 112.5 20.55 L107.5 24.2 102.9 27.65 103.05 27.95 Q105.55 31.45 108.25 33.95 112.15 32.75 117.1 28.65 L123.5 23.1 Q127.3 19.75 129.6 18.2 L119.85 27.45 Q112.85 34.2 112.95 36.15 112.95 36.9 113.25 37.6 117.8 40.05 122.75 39.8 L125.5 39.5 Q129.3 36.15 131.5 34.5 L135.45 31.25 135.9 30.9 135.45 31.4 Q132.0 35.55 127.95 39.25 131.9 38.55 135.3 37.3 L135.75 37.15 Q142.75 34.4 147.85 28.9 150.9 25.65 153.75 20.75 L154.9 18.75 153.85 19.75 152.55 21.0 150.25 23.3 141.85 30.8 141.75 30.8 Q144.6 27.4 148.8 22.85 L153.0 18.3 Q155.95 14.9 158.3 11.65 L160.95 4.95 160.55 0.45 159.75 0.2 Q158.0 0.3 145.35 11.8 153.15 4.25 155.8 0.7 158.55 -2.9 159.4 -6.55 L158.3 -11.0 155.9 -8.05 151.45 -3.05 144.45 3.45 153.3 -6.9 158.0 -12.1 157.6 -13.3 Q153.85 -23.95 146.65 -29.3 L145.35 -30.25 Q140.8 -28.9 133.5 -23.3 L132.8 -22.8 123.6 -14.95 132.75 -24.3 134.55 -26.1 141.45 -33.0 135.2 -37.0 Q133.95 -36.45 132.2 -35.3 L131.4 -34.6 126.3 -30.55 126.05 -30.5 130.2 -35.4 132.1 -37.6 132.85 -38.45 132.0 -38.95 128.4 -41.05 122.95 -44.55 120.15 -46.45 117.45 -48.05 Q114.35 -47.3 110.0 -43.95 L108.95 -43.05 109.3 -43.85 109.3 -43.9 109.35 -43.9 110.9 -45.15 115.15 -49.4 111.8 -50.9 113.1 -54.35 113.45 -54.35 Q119.75 -54.65 125.0 -51.95 126.05 -47.8 131.25 -45.85 L133.3 -45.2 137.35 -41.15 Q141.4 -37.15 145.3 -34.95 150.75 -31.9 157.6 -21.75 164.9 -10.75 165.3 -3.05 165.45 -0.35 163.7 6.7 L163.3 8.3 160.65 17.1 160.55 17.4 158.35 21.15 Q155.25 26.0 150.35 31.35 143.5 38.85 136.0 42.5 132.35 44.35 128.5 45.25 L122.9 46.0 Q114.8 46.4 104.45 35.15 L97.55 27.4 Q94.25 23.9 92.4 24.0 90.3 24.1 87.5 25.75 L82.05 29.35 Q76.75 32.9 71.45 34.25 62.4 30.85 53.2 26.5 L51.75 32.45 52.95 34.0 M74.35 -27.95 L74.7 -27.0 68.8 -20.3 68.55 -20.3 Q70.95 -23.8 74.35 -27.95 M104.15 -40.55 L107.6 -41.95 101.4 -35.9 100.7 -35.15 Q104.2 -39.45 104.15 -40.4 L104.15 -40.55 M75.15 -9.4 L75.45 -9.8 81.3 -19.05 Q84.15 -23.85 88.0 -28.15 L91.7 -31.9 Q90.5 -27.8 83.9 -19.4 L80.4 -15.15 75.15 -9.4 M57.55 -5.4 Q51.05 1.95 49.35 3.0 52.65 -2.4 58.55 -7.95 L64.4 -13.35 57.55 -5.4 M109.3 -43.85 L109.35 -43.9 109.3 -43.85 M111.2 -39.3 Q110.2 -37.7 103.65 -30.1 101.05 -27.05 99.3 -24.5 L94.0 -19.35 82.05 -8.1 81.8 -8.05 Q100.65 -28.8 110.95 -39.3 L111.2 -39.3 M105.5 -10.6 L101.25 -6.5 Q95.7 -1.35 89.0 4.45 L88.5 4.5 Q93.5 -0.55 105.25 -13.55 L118.3 -27.9 115.55 -23.95 112.45 -19.25 110.8 -16.55 105.5 -10.6 M133.3 -12.45 L140.9 -19.05 140.9 -18.85 Q138.95 -17.7 133.4 -11.1 L131.1 -8.25 Q126.35 -2.3 124.15 1.15 L124.0 1.0 Q123.4 0.1 122.15 0.15 120.25 0.25 117.15 1.85 L115.75 2.6 133.3 -12.45 M147.45 16.0 L144.45 19.0 138.75 24.6 135.25 27.6 Q133.15 29.35 130.8 30.5 L130.7 30.5 Q132.85 27.75 135.15 25.35 138.35 22.2 141.8 19.85 L147.45 16.0 M134.2 6.05 L135.6 5.15 Q136.55 4.45 137.8 3.7 L134.3 7.4 Q130.4 11.45 126.9 14.4 124.4 16.5 120.7 18.8 116.9 21.05 115.65 21.9 116.15 21.15 121.8 16.5 L129.5 9.85 134.2 6.05 M79.35 1.05 Q70.65 11.35 64.6 17.35 L75.05 4.05 Q85.05 -8.8 91.45 -13.95 86.55 -7.5 79.35 1.05" fill="#fffaea" fill-rule="evenodd" stroke="none"/>
      <path d="M74.35 -27.95 Q70.95 -23.8 68.55 -20.3 L68.8 -20.3 74.7 -27.0 75.95 -24.45 Q89.9 -34.3 104.15 -40.55 L104.15 -40.4 Q104.2 -39.45 100.7 -35.15 L101.4 -35.9 107.6 -41.95 108.7 -42.35 108.95 -43.05 110.0 -43.95 Q114.35 -47.3 117.45 -48.05 L120.15 -46.45 122.95 -44.55 128.4 -41.05 132.0 -38.95 132.85 -38.45 132.1 -37.6 130.2 -35.4 126.05 -30.5 126.3 -30.55 131.4 -34.6 132.2 -35.3 Q133.95 -36.45 135.2 -37.0 L141.45 -33.0 134.55 -26.1 132.75 -24.3 123.6 -14.95 132.8 -22.8 133.5 -23.3 Q140.8 -28.9 145.35 -30.25 L146.65 -29.3 Q153.85 -23.95 157.6 -13.3 L158.0 -12.1 153.3 -6.9 144.45 3.45 151.45 -3.05 155.9 -8.05 158.3 -11.0 159.4 -6.55 Q158.55 -2.9 155.8 0.7 153.15 4.25 145.35 11.8 158.0 0.3 159.75 0.2 L160.55 0.45 160.95 4.95 158.3 11.65 Q155.95 14.9 153.0 18.3 L148.8 22.85 Q144.6 27.4 141.75 30.8 L141.85 30.8 150.25 23.3 152.55 21.0 153.85 19.75 154.9 18.75 153.75 20.75 Q150.9 25.65 147.85 28.9 142.75 34.4 135.75 37.15 L135.3 37.3 Q131.9 38.55 127.95 39.25 132.0 35.55 135.45 31.4 L135.9 30.9 135.45 31.25 131.5 34.5 Q129.3 36.15 125.5 39.5 L122.75 39.8 Q117.8 40.05 113.25 37.6 112.95 36.9 112.95 36.15 112.85 34.2 119.85 27.45 L129.6 18.2 Q127.3 19.75 123.5 23.1 L117.1 28.65 Q112.15 32.75 108.25 33.95 105.55 31.45 103.05 27.95 L102.9 27.65 107.5 24.2 112.5 20.55 Q117.2 15.85 123.7 9.8 L133.95 0.35 134.4 0.0 134.4 -0.15 133.95 0.15 102.5 27.05 97.6 19.45 Q95.05 15.5 93.25 15.6 L87.45 18.95 88.1 18.3 99.2 6.4 113.45 -7.6 Q106.15 -2.35 83.7 17.85 76.1 24.2 70.05 28.1 L65.3 29.4 74.8 19.75 84.9 9.4 84.9 9.15 Q83.1 10.5 70.55 21.35 63.45 27.5 59.1 29.05 57.95 28.7 56.8 27.9 57.45 26.5 59.85 23.5 58.35 24.15 55.1 26.6 52.5 24.35 50.55 20.5 L47.35 14.95 60.15 2.0 69.6 -8.25 Q63.25 -2.3 59.7 0.6 49.8 8.65 44.4 8.9 43.25 5.65 43.1 2.75 L43.05 -1.9 Q45.15 -5.5 48.45 -9.2 L52.2 -13.35 50.65 -12.0 Q46.85 -8.9 44.25 -7.95 L44.7 -9.0 Q46.45 -12.7 52.7 -19.4 L56.75 -23.7 Q59.75 -27.0 60.5 -28.65 62.2 -31.85 64.3 -34.3 66.75 -37.2 69.05 -37.8 L72.45 -31.2 72.85 -30.2 75.65 -31.6 74.05 -28.7 74.35 -27.95 M144.45 3.45 L143.15 4.8 143.2 4.95 144.45 3.45 M75.15 -9.4 L80.4 -15.15 83.9 -19.4 Q90.5 -27.8 91.7 -31.9 L88.0 -28.15 Q84.15 -23.85 81.3 -19.05 L75.45 -9.8 75.15 -9.4 M57.55 -5.4 L64.4 -13.35 58.55 -7.95 Q52.65 -2.4 49.35 3.0 51.05 1.95 57.55 -5.4 M111.8 -50.9 L115.15 -49.4 110.9 -45.15 109.35 -43.9 111.8 -50.9 M110.8 -16.55 L112.45 -19.25 115.55 -23.95 118.3 -27.9 105.25 -13.55 Q93.5 -0.55 88.5 4.5 L89.0 4.45 Q95.7 -1.35 101.25 -6.5 L105.5 -10.6 Q108.45 -13.25 110.2 -15.6 L110.8 -16.55 M111.2 -39.3 L110.95 -39.3 Q100.65 -28.8 81.8 -8.05 L82.05 -8.1 94.0 -19.35 99.3 -24.5 Q101.05 -27.05 103.65 -30.1 110.2 -37.7 111.2 -39.3 M133.3 -12.45 L115.75 2.6 117.15 1.85 Q120.25 0.25 122.15 0.15 123.4 0.1 124.0 1.0 L124.15 1.15 Q126.35 -2.3 131.1 -8.25 L133.4 -11.1 Q138.95 -17.7 140.9 -18.85 L140.9 -19.05 133.3 -12.45 M147.45 16.0 L141.8 19.85 Q138.35 22.2 135.15 25.35 132.85 27.75 130.7 30.5 L130.8 30.5 Q133.15 29.35 135.25 27.6 L138.75 24.6 144.45 19.0 147.45 16.0 M134.2 6.05 L129.5 9.85 121.8 16.5 Q116.15 21.15 115.65 21.9 116.9 21.05 120.7 18.8 124.4 16.5 126.9 14.4 130.4 11.45 134.3 7.4 L137.8 3.7 Q136.55 4.45 135.6 5.15 L134.2 6.05 M79.35 1.05 Q86.55 -7.5 91.45 -13.95 85.05 -8.8 75.05 4.05 L64.6 17.35 Q70.65 11.35 79.35 1.05 M61.35 21.6 L61.45 21.2 61.35 21.4 61.35 21.6" fill="#cc3232" fill-rule="evenodd" stroke="none"/>
      <path d="M108.7 -42.35 L108.4 -42.6 107.8 -42.95 101.95 -46.65 108.25 -51.05 112.55 -54.25 113.25 -54.85 113.1 -54.35 111.8 -50.9 109.35 -43.9 109.3 -43.9 109.3 -43.85 108.95 -43.05 108.7 -42.35 M99.55 42.2 L103.6 49.05 108.25 57.2 Q100.25 52.9 91.85 49.2 L94.45 46.95 99.55 42.2" fill="#c9c096" fill-rule="evenodd" stroke="none"/>
      <path d="M167.8 23.4 Q169.9 27.75 170.4 34.9 167.15 47.9 159.9 57.75 L158.65 55.3 Q155.25 51.1 152.95 50.1 L148.35 49.75 Q144.5 49.9 139.1 53.25 133.05 57.05 132.05 62.45 L128.5 63.0 126.85 62.4 125.15 61.85 Q124.15 61.9 121.8 63.25 119.2 64.8 116.85 66.9 111.3 71.95 110.65 77.15 L105.05 77.75 Q107.2 71.3 109.7 68.45 L110.15 67.95 117.35 58.45 Q122.4 51.6 126.25 47.6 L128.5 45.25 Q132.35 44.35 136.0 42.5 143.5 38.85 150.35 31.35 155.25 26.0 158.35 21.15 L167.25 23.2 167.8 23.4" fill="#8e4d2c" fill-rule="evenodd" stroke="none"/>
      <path d="M-17.25 19.8 L-2.55 21.85 6.6 19.95 5.8 21.65 Q3.45 26.85 3.7 31.8 L3.9 33.7 -13.3 35.15 Q-10.6 29.1 -7.0 25.4 L-6.3 24.7 Q-12.2 22.8 -17.25 19.8 M30.0 16.2 L33.05 17.65 Q42.15 22.0 43.7 25.85 46.1 31.85 49.55 37.95 L46.5 47.95 61.25 56.9 Q53.35 54.2 45.15 52.0 44.9 53.4 44.25 54.85 72.3 68.7 102.7 74.25 L104.2 69.5 97.4 66.25 105.1 67.0 108.25 57.2 103.6 49.05 107.7 50.0 Q115.0 51.7 115.05 52.8 115.15 54.65 113.4 59.65 L110.15 67.95 109.7 68.45 Q107.2 71.3 105.05 77.75 L103.4 77.85 Q100.35 79.5 98.05 79.5 72.25 79.9 49.25 59.7 36.55 48.25 26.3 35.45 28.9 31.55 29.0 26.05 L27.65 24.6 Q29.85 23.45 30.5 19.85 30.75 18.4 30.0 16.2" fill="#8c602d" fill-rule="evenodd" stroke="none"/>
      <path d="M7.9 17.1 Q3.95 14.25 3.65 9.75 3.3 6.55 5.0 2.4 L7.75 1.7 Q13.65 0.6 18.8 2.9 L20.95 4.1 Q23.4 5.65 25.65 7.9 L28.25 12.25 Q29.5 14.5 30.0 16.2 30.75 18.4 30.5 19.85 29.85 23.45 27.65 24.6 21.75 18.55 15.0 16.6 L10.4 15.8 7.9 17.1 M28.25 12.25 Q15.65 8.0 3.65 9.75 15.65 8.0 28.25 12.25" fill="#e5dfc4" fill-rule="evenodd" stroke="none"/>
      <path d="M23.1 38.95 L23.8 41.85 Q27.5 44.25 29.35 48.7 25.75 49.5 23.15 47.9 23.6 50.75 21.8 53.35 19.1 51.45 18.7 48.15 17.2 50.9 13.35 52.3 13.25 48.85 15.05 46.55 L14.9 46.0 14.3 40.85 17.05 41.05 Q20.55 40.9 23.1 38.95 M13.25 40.9 L11.1 44.2 10.6 44.9 Q10.85 48.85 9.55 53.4 6.25 50.8 5.25 46.1 1.25 49.75 -3.8 49.85 -3.65 45.15 -0.3 41.4 -4.6 40.9 -7.4 37.75 -3.2 35.3 0.85 34.3 L3.95 33.8 Q4.85 37.45 8.05 39.3 10.2 40.6 13.25 40.9 M11.1 44.2 Q5.85 42.65 0.85 34.3 5.85 42.65 11.1 44.2 M14.9 46.0 Q20.6 45.3 23.8 41.85 20.6 45.3 14.9 46.0" fill="#bcb48e" fill-rule="evenodd" stroke="none"/>
      <path d="M-20.5 24.85 L-20.5 25.2 -20.5 27.55 Q-20.5 29.15 -21.6 30.25 -22.9 31.55 -25.55 32.05 L-29.0 32.3 -36.4 31.9 Q-36.45 32.65 -36.65 33.2 L-37.25 34.0 -38.7 34.9 Q-40.7 35.65 -44.3 35.65 L-49.8 35.1 Q-51.7 34.55 -52.6 33.6 L-53.2 32.6 -54.55 32.7 -55.8 32.7 -58.2 32.85 Q-63.05 32.6 -65.3 28.1 L-65.35 25.7 Q-65.0 24.5 -64.1 23.85 L-63.75 24.95 Q-63.05 28.55 -60.45 29.8 L-58.1 30.35 -55.8 30.4 -54.7 30.4 Q-53.75 30.4 -53.3 30.05 -53.05 28.55 -52.25 28.55 -51.95 28.95 -51.85 29.85 L-51.85 29.9 -51.8 29.9 -51.5 31.05 -51.5 31.2 -51.25 31.7 -51.15 31.85 -50.5 32.65 -50.4 32.75 Q-49.75 33.25 -47.85 33.3 L-44.25 33.2 Q-39.95 33.2 -38.95 32.3 -38.75 32.1 -38.65 30.95 -38.85 29.35 -38.65 28.65 -38.35 27.55 -37.65 27.85 -37.0 28.15 -36.65 29.15 L-36.5 30.0 -36.45 30.0 -35.65 30.3 -30.0 30.05 -24.7 29.4 -24.35 29.25 -23.55 28.6 -22.75 27.45 -22.45 25.55 -22.45 24.8 -20.5 24.85 M-68.9 -11.65 Q-68.3 -17.85 -67.2 -23.95 -65.35 -34.45 -61.85 -44.5 -60.25 -49.1 -58.25 -53.5 -55.85 -58.1 -55.1 -58.1 L-54.55 -57.85 -54.5 -57.8 -54.25 -57.35 -54.25 -57.3 Q-54.25 -56.95 -55.75 -53.5 -60.9 -43.35 -63.0 -32.15 L-64.5 -23.95 -66.4 -11.55 -66.6 -9.6 -68.9 -11.65 M-10.3 -44.55 Q-8.9 -45.5 -8.9 -44.05 -8.9 -44.55 -11.45 -41.1 L-13.4 -38.2 -10.35 -39.75 -7.15 -41.4 Q-5.0 -42.15 -5.0 -40.7 -5.0 -39.15 -14.75 -35.7 L-15.75 -33.3 -19.1 -22.55 Q-20.4 -17.7 -20.6 -11.8 L-20.5 -3.85 -17.9 -3.95 -14.85 -3.55 -13.5 -2.5 Q-12.7 -1.65 -12.5 -0.35 L-12.45 1.2 -12.45 4.3 Q-12.4 5.25 -12.5 5.95 L-12.6 6.95 -13.7 7.0 -13.7 6.75 -13.9 4.65 -14.1 3.05 -14.35 1.8 -14.45 0.4 Q-14.6 -1.9 -17.85 -2.3 L-20.45 -2.65 -20.4 -1.6 -20.4 -1.1 Q-20.35 -0.85 -21.0 -0.85 -21.55 -0.85 -21.9 -1.85 -22.4 -3.05 -22.6 -5.75 L-22.75 -10.65 Q-22.75 -15.75 -22.1 -19.2 -21.55 -22.2 -19.5 -28.45 -17.45 -34.8 -16.1 -37.35 L-13.25 -41.85 Q-12.35 -43.1 -10.85 -44.2 L-10.3 -44.55 M-23.0 5.75 Q-22.45 4.8 -21.85 4.5 L-21.8 4.5 Q-21.3 4.5 -21.1 4.8 L-21.1 4.9 -21.35 5.5 -21.65 6.4 -21.45 7.0 -21.25 7.25 -23.7 7.3 -23.5 6.75 -23.0 5.75 M-25.65 24.65 L-24.3 24.7 -24.35 25.95 -24.35 26.25 -24.9 26.45 -25.45 25.75 -25.65 24.7 -25.65 24.65" fill="#000000" fill-rule="evenodd" stroke="none"/>
      <path d="M-54.25 -57.35 L-53.6 -57.35 -53.85 -56.7 Q-58.4 -45.75 -60.3 -33.7 L-61.6 -24.9 Q-62.6 -18.2 -63.7 -6.65 L-63.95 -4.2 Q-64.55 -7.25 -66.6 -9.6 L-66.4 -11.55 -64.5 -23.95 -63.0 -32.15 Q-60.9 -43.35 -55.75 -53.5 -54.25 -56.95 -54.25 -57.3 L-54.25 -57.35 M-13.9 -46.75 L-10.3 -44.55 -10.85 -44.2 Q-12.35 -43.1 -13.25 -41.85 L-16.1 -37.35 Q-17.45 -34.8 -19.5 -28.45 -21.55 -22.2 -22.1 -19.2 -22.75 -15.75 -22.75 -10.65 L-22.6 -5.75 Q-22.4 -3.05 -21.9 -1.85 L-22.5 -1.95 -23.75 -2.5 -24.15 -2.85 -24.4 -5.3 -24.55 -10.55 Q-24.55 -16.05 -23.95 -19.75 -23.5 -23.0 -21.65 -29.7 -19.85 -36.55 -18.65 -39.3 -17.6 -41.8 -16.1 -44.15 L-14.0 -46.7 -13.9 -46.75 M-20.4 -1.6 L-20.45 -2.65 -17.85 -2.3 Q-14.6 -1.9 -14.45 0.4 L-14.35 1.8 -14.1 3.05 -13.9 4.65 -13.7 6.75 -13.7 7.0 -16.5 7.1 -16.6 7.1 -17.2 1.35 Q-17.3 -1.15 -20.2 -1.6 L-20.4 -1.6 M-24.85 7.35 Q-23.95 5.3 -23.0 5.65 L-23.0 5.75 -23.5 6.75 -23.7 7.3 -24.85 7.35 M-64.25 5.25 L-64.95 5.15 -64.25 2.85 -64.25 5.25 M-26.8 24.6 L-25.65 24.65 -25.65 24.7 -25.45 25.75 -25.8 25.65 -26.25 25.4 -26.65 24.95 -26.8 24.6 M-24.3 24.7 L-22.45 24.8 -22.45 25.55 -22.75 27.45 -23.55 28.6 -24.35 29.25 -24.1 26.0 -24.35 25.95 -24.3 24.7 M-50.4 32.75 L-50.5 32.65 -51.15 31.85 -50.75 31.65 Q-50.5 32.0 -50.4 32.75 M-60.45 29.8 Q-63.05 28.55 -63.75 24.95 L-64.1 23.85 Q-63.3 23.25 -62.1 23.2 L-61.5 25.95 -60.45 29.8" fill="#bdbdbd" fill-rule="evenodd" stroke="none"/>
      <path d="M-53.6 -57.35 Q-32.0 -57.15 -13.9 -46.75 L-14.0 -46.7 -16.1 -44.15 Q-17.6 -41.8 -18.65 -39.3 -19.85 -36.55 -21.65 -29.7 -23.5 -23.0 -23.95 -19.75 -24.55 -16.05 -24.55 -10.55 L-24.4 -5.3 -24.15 -2.85 -23.75 -2.5 -22.5 -1.95 -21.9 -1.85 Q-21.55 -0.85 -21.0 -0.85 -20.35 -0.85 -20.4 -1.1 L-20.4 -1.6 -20.2 -1.6 Q-17.3 -1.15 -17.2 1.35 L-16.6 7.1 -21.25 7.25 -21.45 7.0 -21.65 6.4 -21.35 5.5 -21.1 4.9 -21.1 4.8 Q-21.3 4.5 -21.8 4.5 L-21.85 4.5 Q-22.45 4.8 -23.0 5.75 L-23.0 5.65 Q-23.95 5.3 -24.85 7.35 -34.85 7.45 -45.0 6.85 L-64.25 5.25 -64.25 2.85 Q-63.3 -1.05 -63.95 -4.2 L-63.7 -6.65 Q-62.6 -18.2 -61.6 -24.9 L-60.3 -33.7 Q-58.4 -45.75 -53.85 -56.7 L-53.6 -57.35 M-25.45 25.75 L-24.9 26.45 -24.35 26.25 -24.35 25.95 -24.1 26.0 -24.35 29.25 -24.7 29.4 -30.0 30.05 -35.65 30.3 -36.45 30.0 -36.5 30.0 -36.65 29.15 Q-37.0 28.15 -37.65 27.85 -38.35 27.55 -38.65 28.65 -38.85 29.35 -38.65 30.95 -38.75 32.1 -38.95 32.3 -39.95 33.2 -44.25 33.2 L-47.85 33.3 Q-49.75 33.25 -50.4 32.75 -50.5 32.0 -50.75 31.65 L-51.15 31.85 -51.25 31.7 -51.5 31.2 -51.5 31.05 -51.8 29.9 -51.85 29.9 -51.85 29.85 Q-51.95 28.95 -52.25 28.55 -53.05 28.55 -53.3 30.05 -53.75 30.4 -54.7 30.4 L-55.8 30.4 -58.1 30.35 -60.45 29.8 -61.5 25.95 -62.1 23.2 -61.25 23.15 -26.8 24.6 -26.65 24.95 -26.25 25.4 -25.8 25.65 -25.45 25.75" fill="#999999" fill-rule="evenodd" stroke="none"/>
      <path d="M-18.35 24.95 L-20.5 24.85 -22.45 24.8 -24.3 24.7 -25.65 24.65 -26.8 24.6 -61.25 23.15 -62.1 23.2 Q-63.3 23.25 -64.1 23.85 -65.0 24.5 -65.35 25.7 L-65.3 28.1 Q-65.55 41.55 -74.6 40.7 -87.2 39.95 -88.35 28.0 -86.65 20.15 -81.7 18.55 -87.4 15.6 -90.1 8.0 -92.4 -1.6 -87.9 -6.75 -83.15 -11.75 -77.2 -13.0 -72.1 -13.3 -69.0 -11.75 L-68.9 -11.65 -66.6 -9.6 Q-64.55 -7.25 -63.95 -4.2 -63.3 -1.05 -64.25 2.85 L-64.95 5.15 -64.25 5.25 -45.0 6.85 Q-34.85 7.45 -24.85 7.35 L-23.7 7.3 -21.25 7.25 -16.6 7.1 -16.5 7.1 -29.95 16.25 -18.35 24.95 M-65.4 6.35 L-64.95 5.15 -65.4 6.35 M-52.85 11.5 Q-39.5 14.15 -37.1 14.0 L-32.45 13.2 -29.35 12.3 -32.45 13.2 -37.1 14.0 Q-39.5 14.15 -52.85 11.5 M-30.8 10.4 L-26.1 10.3 -30.8 10.4 M-71.9 17.8 L-70.45 19.1 -69.3 19.9 -70.45 19.1 -71.9 17.8 M-81.55 14.75 Q-80.35 16.65 -77.9 18.25 -75.2 19.95 -71.95 20.7 -75.2 19.95 -77.9 18.25 -80.35 16.65 -81.55 14.75 M-79.15 19.65 L-81.7 18.55 -79.15 19.65" fill="#f2f2f2" fill-rule="evenodd" stroke="none"/>
      <path d="M-4.0 6.4 L-2.0 8.1 Q-12.0 11.15 -21.0 17.2 L-17.25 19.8 Q-12.2 22.8 -6.3 24.7 L-7.0 25.4 -18.35 24.95 -29.95 16.25 -16.5 7.1 -13.7 7.0 -12.6 6.95 -4.0 6.4" fill="#c4b2a0" fill-rule="evenodd" stroke="none"/>
      <path d="M7.75 1.7 Q5.4 -3.0 8.3 -6.25 L9.65 -6.45 Q8.75 -9.2 7.3 -11.65 3.5 -7.45 2.5 -3.35 -4.0 -4.7 -11.45 -3.45 -8.55 2.15 -4.0 6.4 L-2.0 8.1 Q-12.0 11.15 -21.0 17.2 L-17.25 19.8 Q-12.2 22.8 -6.3 24.7 L-7.0 25.4 -18.35 24.95 -20.5 24.85 -22.45 24.8 -24.3 24.7 -25.65 24.65 -26.8 24.6 -61.25 23.15 -62.1 23.2 Q-63.3 23.25 -64.1 23.85 -65.0 24.5 -65.35 25.7 L-65.3 28.1 Q-65.55 41.55 -74.6 40.7 -87.2 39.95 -88.35 28.0 -86.65 20.15 -81.7 18.55 -87.4 15.6 -90.1 8.0 -92.4 -1.6 -87.9 -6.75 -83.15 -11.75 -77.2 -13.0 -72.1 -13.3 -69.0 -11.75 L-68.9 -11.65 -66.6 -9.6 Q-64.55 -7.25 -63.95 -4.2 -63.3 -1.05 -64.25 2.85 L-64.95 5.15 -65.4 6.35 M6.6 19.95 L7.9 17.1 Q3.95 14.25 3.65 9.75 3.3 6.55 5.0 2.4 L7.75 1.7 Q13.65 0.6 18.8 2.9 L20.95 4.1 Q23.4 5.65 25.65 7.9 L28.25 12.25 Q29.5 14.5 30.0 16.2 30.75 18.4 30.5 19.85 29.85 23.45 27.65 24.6 L29.0 26.05 Q28.9 31.55 26.3 35.45 L25.9 36.1 24.5 37.8 23.1 38.95 23.8 41.85 Q27.5 44.25 29.35 48.7 25.75 49.5 23.15 47.9 23.6 50.75 21.8 53.35 19.1 51.45 18.7 48.15 17.2 50.9 13.35 52.3 13.25 48.85 15.05 46.55 L14.9 46.0 14.3 40.85 13.25 40.9 11.1 44.2 10.6 44.9 Q10.85 48.85 9.55 53.4 6.25 50.8 5.25 46.1 1.25 49.75 -3.8 49.85 -3.65 45.15 -0.3 41.4 -4.6 40.9 -7.4 37.75 -3.2 35.3 0.85 34.3 L3.95 33.8 3.9 33.7 -13.3 35.15 Q-10.6 29.1 -7.0 25.4 M13.05 -6.6 L9.65 -6.45 M44.6 -12.85 Q41.7 -10.05 36.95 -9.85 L33.95 -10.05 Q29.1 -6.3 25.2 -1.75 28.5 2.75 25.65 7.9 M44.6 -12.85 L45.5 -13.8 Q46.5 -15.1 47.15 -16.65 48.05 -18.95 48.15 -21.8 L48.15 -21.9 Q50.1 -22.15 51.4 -22.7 55.1 -24.2 55.95 -27.95 L56.05 -28.8 Q55.85 -31.25 52.8 -36.8 L52.05 -37.85 55.15 -41.25 Q63.8 -50.4 74.5 -57.05 81.55 -62.25 91.35 -61.35 L93.35 -61.25 M104.0 -60.3 L104.15 -60.3 M111.0 -59.3 L124.85 -56.3 Q124.7 -55.05 124.8 -53.65 L125.0 -51.95 Q126.05 -47.8 131.25 -45.85 L133.3 -45.2 137.55 -44.6 Q140.45 -44.75 142.95 -46.35 146.15 -42.85 149.05 -38.05 153.9 -35.55 158.6 -36.8 167.35 -38.45 170.35 -31.45 175.2 -10.15 174.55 12.3 173.7 16.2 169.55 19.0 167.95 20.15 167.6 23.05 L167.8 23.4 Q169.9 27.75 170.4 34.9 167.15 47.9 159.9 57.75 L158.65 55.3 Q155.25 51.1 152.95 50.1 L148.35 49.75 Q144.5 49.9 139.1 53.25 133.05 57.05 132.05 62.45 L128.5 63.0 126.85 62.4 125.15 61.85 Q124.15 61.9 121.8 63.25 119.2 64.8 116.85 66.9 111.3 71.95 110.65 77.15 L105.05 77.75 103.4 77.85 Q100.35 79.5 98.05 79.5 72.25 79.9 49.25 59.7 36.55 48.25 26.3 35.45 M-12.6 6.95 L-4.0 6.4 M25.2 -1.75 L24.0 -3.25 Q19.45 -6.6 13.05 -6.6 M6.6 19.95 L5.8 21.65 Q3.45 26.85 3.7 31.8 L3.9 33.7 M15.0 16.6 L10.4 15.8 7.9 17.1 M14.3 40.85 L17.05 41.05 Q20.55 40.9 23.1 38.95 M3.95 33.8 Q4.85 37.45 8.05 39.3 10.2 40.6 13.25 40.9 M15.0 16.6 Q21.75 18.55 27.65 24.6 M-13.7 7.0 L-12.6 6.95 M-16.6 7.1 L-16.5 7.1 -13.7 7.0 M-21.25 7.25 L-16.6 7.1 M-23.7 7.3 L-24.85 7.35 Q-34.85 7.45 -45.0 6.85 L-64.25 5.25 -64.95 5.15 M-23.7 7.3 L-21.25 7.25 M-81.7 18.55 L-79.15 19.65" fill="none" stroke="#000000" stroke-linecap="round" stroke-linejoin="round" stroke-opacity="0.4" stroke-width="0.7000000000000001"/>
      <path d="M49.55 37.95 L50.2 35.95 50.5 34.65 54.45 35.85 52.95 34.0 51.75 32.45 53.2 26.5 Q62.4 30.85 71.45 34.25 85.6 39.45 99.55 42.2 L103.6 49.05 108.25 57.2 105.1 67.0 97.4 66.25 104.2 69.5 102.7 74.25 Q72.3 68.7 44.25 54.85 44.9 53.4 45.15 52.0 53.35 54.2 61.25 56.9 L46.5 47.95 49.55 37.95 M93.35 -61.25 Q99.9 -64.4 106.8 -66.9 L108.5 -63.5 104.0 -60.3 103.9 -60.2 104.15 -60.3 109.55 -61.7 111.0 -59.3 113.25 -54.85 113.1 -54.35 111.8 -50.9 109.35 -43.9 109.3 -43.85 108.95 -43.05 108.7 -42.35 108.4 -42.6 107.8 -42.95 101.95 -46.65 108.25 -51.05 112.55 -54.25 113.25 -54.85 M69.05 -37.8 L68.1 -39.6 68.85 -40.35 77.95 -48.3 Q72.4 -45.25 66.45 -42.55 L65.5 -44.55 Q78.75 -54.3 93.35 -61.25 M74.7 -27.0 L74.35 -27.95 74.05 -28.7 75.65 -31.6 72.85 -30.2 72.45 -31.2 69.05 -37.8 M74.7 -27.0 L75.95 -24.45 Q89.9 -34.3 104.15 -40.55 L107.6 -41.95 108.7 -42.35 M99.55 42.2 L94.45 46.95 91.85 49.2 Q100.25 52.9 108.25 57.2 M-29.35 12.3 L-32.45 13.2 -37.1 14.0 Q-39.5 14.15 -52.85 11.5 M-26.1 10.3 L-30.8 10.4 M-71.95 20.7 Q-75.2 19.95 -77.9 18.25 -80.35 16.65 -81.55 14.75 M-69.3 19.9 L-70.45 19.1 -71.9 17.8" fill="none" stroke="#000000" stroke-linecap="round" stroke-linejoin="round" stroke-opacity="0.14901961" stroke-width="0.7000000000000001"/>
      <path d="M18.8 2.9 L18.15 0.75 Q16.55 -3.55 13.05 -6.6 M0.85 34.3 Q5.85 42.65 11.1 44.2 M24.5 37.8 Q23.6 33.85 22.15 30.05 19.45 23.05 15.0 16.6 M23.8 41.85 Q20.6 45.3 14.9 46.0 M3.65 9.75 Q15.65 8.0 28.25 12.25" fill="none" stroke="#000000" stroke-linecap="round" stroke-linejoin="round" stroke-opacity="0.2" stroke-width="0.5"/>
      <path d="M156.65 24.0 Q159.65 23.85 157.45 17.7 155.25 11.6 152.35 11.75 151.7 11.8 151.2 12.2 150.55 12.7 150.6 13.55 150.65 14.35 151.3 14.9 L152.25 15.7 153.05 16.7 153.85 18.2 155.35 23.05 Q155.75 24.0 156.65 24.0 M145.3 -35.95 Q143.25 -35.85 143.3 -34.2 143.4 -32.75 144.5 -32.4 146.15 -31.9 146.45 -31.5 147.1 -30.9 147.8 -29.0 148.25 -27.8 149.15 -27.85 152.0 -27.95 150.15 -32.1 148.3 -36.1 145.3 -35.95 M76.95 17.95 Q78.9 17.85 78.8 16.05 78.7 14.25 76.9 14.35 76.05 14.35 75.55 14.85 75.05 15.35 75.1 16.2 75.15 17.3 76.05 17.75 L76.95 17.95 M65.4 20.0 L63.0 19.15 60.6 18.05 Q59.2 17.4 58.25 16.8 L56.15 14.35 Q54.85 12.7 53.85 12.75 53.3 12.8 52.8 13.1 52.2 13.6 52.2 14.5 52.3 15.65 53.9 17.45 55.3 19.1 56.4 19.8 57.9 20.8 60.35 21.85 63.35 23.0 64.35 23.6 65.75 24.55 66.55 26.45 67.1 27.9 68.3 27.85 69.75 27.75 69.9 26.2 70.05 24.4 67.65 21.75 66.75 20.55 65.4 20.0 M51.6 11.35 Q51.55 9.7 49.85 9.8 49.3 9.8 48.8 10.15 48.2 10.6 48.2 11.5 48.25 12.55 49.1 13.0 L49.95 13.15 Q51.7 13.05 51.6 11.35 M63.15 -14.4 Q62.55 -13.95 62.6 -13.15 62.65 -11.85 63.7 -11.25 64.35 -10.8 64.8 -10.85 66.75 -10.95 66.4 -12.9 66.1 -14.95 64.35 -14.9 63.65 -14.85 63.15 -14.4 M92.9 -49.0 Q92.55 -51.05 91.0 -50.95 90.3 -50.9 89.8 -50.45 89.3 -49.9 89.35 -48.95 89.4 -47.55 90.4 -47.05 L91.35 -46.9 Q93.25 -47.0 92.9 -49.0 M77.55 -45.25 Q76.85 -44.7 76.9 -43.7 76.95 -42.65 77.8 -42.2 L78.7 -42.0 Q80.45 -42.05 80.35 -43.85 80.25 -45.65 78.5 -45.6 L77.55 -45.25 M76.3 -44.4 Q77.45 -46.05 75.8 -46.65 L73.45 -46.95 70.7 -46.55 Q69.85 -46.3 67.8 -44.95 66.3 -44.0 64.75 -42.4 62.65 -40.15 62.7 -38.85 62.75 -37.85 63.6 -37.45 L64.45 -37.25 Q65.6 -37.3 66.35 -38.25 L68.3 -40.85 Q70.15 -42.65 72.25 -43.35 L74.45 -43.5 Q75.7 -43.5 76.3 -44.4" fill="#ffffed" fill-opacity="0.6313726" fill-rule="evenodd" stroke="none"/>
      <path d="M55.9 38.9 Q57.1 39.75 59.75 39.65 64.35 39.4 67.65 35.9 70.0 33.45 71.05 30.15 L71.9 27.75 Q71.65 24.8 67.8 20.75 63.9 16.5 60.7 15.85 58.1 15.35 54.4 11.3 51.15 7.75 46.55 8.0 41.95 8.2 39.05 11.5 36.05 14.9 36.3 20.0 36.6 25.8 39.3 28.25 41.5 30.3 47.95 31.85 52.45 32.95 54.3 36.75 55.15 38.35 55.9 38.9 M129.45 43.0 L130.45 43.4 Q131.2 43.85 131.2 44.25 L131.0 46.7 Q130.7 48.3 130.75 48.95 130.8 50.25 131.55 50.8 132.3 51.4 134.0 51.35 139.25 51.1 147.75 42.9 155.85 35.0 158.35 28.45 160.25 24.6 160.1 20.95 159.95 18.1 157.5 14.3 154.7 9.95 151.6 10.1 145.75 10.35 139.9 14.5 135.75 17.5 128.25 25.2 L117.25 36.35 Q109.35 44.9 109.45 47.4 109.5 48.45 110.65 49.1 111.75 49.7 113.2 49.65 116.25 49.5 122.75 46.3 L129.45 43.0 M156.65 24.0 Q155.75 24.0 155.35 23.05 L153.85 18.2 153.05 16.7 152.25 15.7 151.3 14.9 Q150.65 14.35 150.6 13.55 150.55 12.7 151.2 12.2 151.7 11.8 152.35 11.75 155.25 11.6 157.45 17.7 159.65 23.85 156.65 24.0 M160.05 -24.8 L158.05 -26.4 Q154.3 -28.4 153.6 -29.3 152.65 -30.45 150.75 -34.25 148.6 -37.45 145.45 -37.25 141.1 -37.05 138.2 -34.65 134.3 -31.35 134.6 -24.85 134.85 -19.7 137.5 -16.8 139.9 -14.2 143.05 -14.35 144.65 -14.45 147.75 -16.05 150.9 -17.65 151.15 -17.65 152.3 -17.7 153.45 -16.3 154.65 -14.9 155.2 -14.95 157.5 -15.05 159.35 -18.05 160.95 -20.7 160.9 -22.9 L160.9 -23.0 Q160.75 -24.0 160.05 -24.8 M145.3 -35.95 Q148.3 -36.1 150.15 -32.1 152.0 -27.95 149.15 -27.85 148.25 -27.8 147.8 -29.0 147.1 -30.9 146.45 -31.5 146.15 -31.9 144.5 -32.4 143.4 -32.75 143.3 -34.2 143.25 -35.85 145.3 -35.95 M78.7 13.9 Q77.55 13.25 75.9 13.35 L73.7 13.9 Q71.95 14.65 72.0 16.2 72.05 17.55 73.3 18.65 74.45 19.7 75.8 19.65 77.0 19.6 78.15 18.55 L78.35 18.3 78.9 17.8 Q79.6 16.85 79.9 15.65 79.85 14.55 78.7 13.9 M51.6 11.35 Q51.7 13.05 49.95 13.15 L49.1 13.0 Q48.25 12.55 48.2 11.5 48.2 10.6 48.8 10.15 49.3 9.8 49.85 9.8 51.55 9.7 51.6 11.35 M65.4 20.0 Q66.75 20.55 67.65 21.75 70.05 24.4 69.9 26.2 69.75 27.75 68.3 27.85 67.1 27.9 66.55 26.45 65.75 24.55 64.35 23.6 63.35 23.0 60.35 21.85 57.9 20.8 56.4 19.8 55.3 19.1 53.9 17.45 52.3 15.65 52.2 14.5 52.2 13.6 52.8 13.1 53.3 12.8 53.85 12.75 54.85 12.7 56.15 14.35 L58.25 16.8 Q59.2 17.4 60.6 18.05 L63.0 19.15 65.4 20.0 M76.95 17.95 L76.05 17.75 Q75.15 17.3 75.1 16.2 75.05 15.35 75.55 14.85 76.05 14.35 76.9 14.35 78.7 14.25 78.8 16.05 78.9 17.85 76.95 17.95 M67.25 -14.0 Q65.9 -16.2 64.35 -16.15 62.0 -16.0 60.55 -14.85 59.1 -13.5 59.2 -11.2 59.3 -9.35 60.45 -8.25 61.65 -7.25 63.55 -7.3 65.5 -7.4 66.75 -8.6 68.1 -9.85 68.1 -12.15 L67.25 -14.0 M70.6 -29.65 Q73.95 -32.0 74.55 -32.0 L76.7 -31.4 Q79.55 -31.55 81.3 -34.35 L81.9 -35.55 Q82.55 -36.8 82.7 -38.3 L82.75 -38.4 83.45 -41.45 Q83.25 -44.7 80.0 -46.95 76.95 -49.05 73.35 -48.9 69.65 -48.7 65.25 -44.2 60.3 -39.1 60.6 -33.2 60.75 -29.75 61.95 -28.45 63.1 -27.15 65.75 -27.25 67.35 -27.35 70.6 -29.65 M63.15 -14.4 Q63.65 -14.85 64.35 -14.9 66.1 -14.95 66.4 -12.9 66.75 -10.95 64.8 -10.85 64.35 -10.8 63.7 -11.25 62.65 -11.85 62.6 -13.15 62.55 -13.95 63.15 -14.4 M90.1 -43.35 Q91.15 -43.4 92.55 -44.4 L93.45 -45.25 94.0 -46.6 94.25 -47.15 94.4 -48.1 Q94.3 -49.7 93.15 -50.75 91.9 -51.8 89.85 -51.7 88.65 -51.65 87.5 -50.25 86.45 -48.9 86.55 -47.6 86.6 -46.2 87.55 -44.85 88.7 -43.3 90.1 -43.35 M76.3 -44.4 Q75.7 -43.5 74.45 -43.5 L72.25 -43.35 Q70.15 -42.65 68.3 -40.85 L66.35 -38.25 Q65.6 -37.3 64.45 -37.25 L63.6 -37.45 Q62.75 -37.85 62.7 -38.85 62.65 -40.15 64.75 -42.4 66.3 -44.0 67.8 -44.95 69.85 -46.3 70.7 -46.55 L73.45 -46.95 75.8 -46.65 Q77.45 -46.05 76.3 -44.4 M77.55 -45.25 L78.5 -45.6 Q80.25 -45.65 80.35 -43.85 80.45 -42.05 78.7 -42.0 L77.8 -42.2 Q76.95 -42.65 76.9 -43.7 76.85 -44.7 77.55 -45.25 M92.9 -49.0 Q93.25 -47.0 91.35 -46.9 L90.4 -47.05 Q89.4 -47.55 89.35 -48.95 89.3 -49.9 89.8 -50.45 90.3 -50.9 91.0 -50.95 92.55 -51.05 92.9 -49.0" fill="#cece7b" fill-opacity="0.4509804" fill-rule="evenodd" stroke="none"/>
      <path d="M-54.25 -57.35 L-53.6 -57.35 -53.85 -56.7 Q-58.4 -45.75 -60.3 -33.7 L-61.6 -24.9 Q-62.6 -18.2 -63.7 -6.65 -64.85 4.9 -63.55 13.95 L-62.25 22.35 -62.85 22.35 -64.5 22.5 Q-65.5 19.05 -66.1 15.35 -68.15 2.0 -66.4 -11.55 L-64.5 -23.95 -63.0 -32.15 Q-60.9 -43.35 -55.75 -53.5 -54.25 -56.95 -54.25 -57.3 L-54.25 -57.35 M-13.9 -46.75 L-10.3 -44.55 -10.85 -44.2 Q-12.35 -43.1 -13.25 -41.85 L-16.1 -37.35 Q-17.45 -34.8 -19.5 -28.45 -21.55 -22.2 -22.1 -19.2 -22.75 -15.75 -22.75 -10.65 L-22.6 -5.75 Q-22.4 -3.05 -21.9 -1.85 L-22.5 -1.95 -23.75 -2.5 -24.15 -2.85 -24.4 -5.3 -24.55 -10.55 Q-24.55 -16.05 -23.95 -19.75 -23.5 -23.0 -21.65 -29.7 -19.85 -36.55 -18.65 -39.3 -17.6 -41.8 -16.1 -44.15 L-14.0 -46.7 -13.9 -46.75 M-25.6 18.65 L-27.1 19.8 -27.0 17.5 -26.4 13.05 Q-25.9 10.1 -25.2 8.15 -24.15 5.25 -23.0 5.65 L-23.0 5.75 -23.5 6.75 Q-24.3 8.55 -24.85 11.3 L-25.5 15.4 -25.6 18.65 M-20.4 -1.6 L-20.45 -2.65 -17.85 -2.3 Q-14.6 -1.9 -14.45 0.4 L-14.35 1.8 -14.1 3.05 -13.95 4.2 -16.85 4.6 -17.2 1.35 Q-17.3 -1.15 -20.2 -1.6 L-20.4 -1.6" fill="#bdbdbd" fill-rule="evenodd" stroke="none"/>
      <path d="M-53.6 -57.35 Q-32.0 -57.15 -13.9 -46.75 L-14.0 -46.7 -16.1 -44.15 Q-17.6 -41.8 -18.65 -39.3 -19.85 -36.55 -21.65 -29.7 -23.5 -23.0 -23.95 -19.75 -24.55 -16.05 -24.55 -10.55 L-24.4 -5.3 -24.15 -2.85 -23.75 -2.5 -22.5 -1.95 -21.9 -1.85 Q-21.55 -0.85 -21.0 -0.85 -20.35 -0.85 -20.4 -1.1 L-20.4 -1.6 -20.2 -1.6 Q-17.3 -1.15 -17.2 1.35 L-16.85 4.6 -18.2 4.9 -21.6 6.0 -21.35 5.5 -21.1 4.9 -21.1 4.8 Q-21.3 4.5 -21.8 4.5 L-21.85 4.5 Q-22.45 4.8 -23.0 5.75 L-23.0 5.65 Q-24.15 5.25 -25.2 8.15 -25.9 10.1 -26.4 13.05 L-27.0 17.5 -27.1 19.8 -27.25 19.9 Q-30.35 21.95 -33.1 22.0 -46.25 22.4 -62.25 22.35 L-63.55 13.95 Q-64.85 4.9 -63.7 -6.65 -62.6 -18.2 -61.6 -24.9 L-60.3 -33.7 Q-58.4 -45.75 -53.85 -56.7 L-53.6 -57.35" fill="#999999" fill-rule="evenodd" stroke="none"/>
      <path d="M-64.5 22.5 L-67.05 22.95 Q-69.85 11.75 -69.6 0.15 -69.35 -12.0 -67.2 -23.95 -65.35 -34.45 -61.85 -44.5 -60.25 -49.1 -58.25 -53.5 -55.85 -58.1 -55.1 -58.1 L-54.55 -57.85 -54.5 -57.8 -54.25 -57.35 -54.25 -57.3 Q-54.25 -56.95 -55.75 -53.5 -60.9 -43.35 -63.0 -32.15 L-64.5 -23.95 -66.4 -11.55 Q-68.15 2.0 -66.1 15.35 -65.5 19.05 -64.5 22.5 M-10.3 -44.55 Q-8.9 -45.5 -8.9 -44.05 -8.9 -44.55 -11.45 -41.1 L-13.4 -38.2 -10.35 -39.75 -7.15 -41.4 Q-5.0 -42.15 -5.0 -40.7 -5.0 -39.15 -14.75 -35.7 L-15.75 -33.3 -19.1 -22.55 Q-20.4 -17.7 -20.6 -11.8 L-20.5 -3.85 -17.9 -3.95 -14.85 -3.55 -13.5 -2.5 Q-12.7 -1.65 -12.5 -0.35 L-12.45 1.2 -12.45 4.15 -12.35 4.4 -12.45 4.65 -12.45 4.7 -12.3 4.7 -12.35 5.3 -12.75 5.4 -13.55 5.5 -17.6 6.4 -21.5 7.25 -22.05 7.0 -22.15 6.95 Q-23.0 7.4 -23.0 7.9 L-22.65 8.8 -23.25 10.3 -23.8 12.75 -24.2 15.5 -24.25 16.6 -24.05 16.9 -24.0 18.05 -23.95 19.05 -24.25 20.25 -24.05 23.4 -25.15 23.4 -25.25 20.15 -25.15 18.3 -25.6 18.65 -25.5 15.4 -24.85 11.3 Q-24.3 8.55 -23.5 6.75 L-23.0 5.75 Q-22.45 4.8 -21.85 4.5 L-21.8 4.5 Q-21.3 4.5 -21.1 4.8 L-21.1 4.9 -21.35 5.5 -21.6 6.0 -18.2 4.9 -16.85 4.6 -13.95 4.2 -14.1 3.05 -14.35 1.8 -14.45 0.4 Q-14.6 -1.9 -17.85 -2.3 L-20.45 -2.65 -20.4 -1.6 -20.4 -1.1 Q-20.35 -0.85 -21.0 -0.85 -21.55 -0.85 -21.9 -1.85 -22.4 -3.05 -22.6 -5.75 L-22.75 -10.65 Q-22.75 -15.75 -22.1 -19.2 -21.55 -22.2 -19.5 -28.45 -17.45 -34.8 -16.1 -37.35 L-13.25 -41.85 Q-12.35 -43.1 -10.85 -44.2 L-10.3 -44.55" fill="#000000" fill-rule="evenodd" stroke="none"/>
      <path d="M-63.05 17.05 L-61.9 16.85 -53.3 16.65 -54.0 16.65 Q-46.35 16.4 -43.75 16.9 L-42.8 17.05 Q-39.9 15.0 -38.0 14.75 L-32.35 14.0 Q-28.85 14.0 -27.25 14.75 -25.75 15.45 -25.15 16.9 L-24.85 18.0 -25.2 18.95 -25.25 20.7 -25.05 23.15 -25.05 23.3 -25.15 23.3 Q-25.0 26.0 -24.55 27.9 -23.9 30.75 -23.9 32.85 -23.9 34.55 -27.1 37.6 -30.25 40.6 -33.2 40.95 L-33.65 41.1 Q-34.4 41.1 -34.9 39.85 L-35.4 38.45 -36.55 35.65 -38.4 31.3 Q-39.2 30.7 -39.15 32.85 L-37.95 35.95 -36.2 45.0 Q-36.2 45.75 -37.75 46.35 -40.4 47.4 -46.75 47.4 -48.85 47.4 -50.0 46.55 L-50.8 45.3 -50.95 45.35 -50.95 45.3 -51.35 44.0 -51.65 40.3 Q-51.9 37.8 -52.65 35.85 L-52.95 35.7 -53.4 35.7 Q-54.0 35.7 -53.85 35.85 -53.3 36.85 -53.0 38.65 L-53.25 39.35 -53.75 41.75 -54.6 44.2 -55.2 46.15 Q-58.3 46.1 -61.05 44.5 -63.1 41.9 -63.1 36.75 L-62.8 30.75 -62.5 24.9 -62.55 21.0 -63.05 17.05" fill="#999999" fill-rule="evenodd" stroke="none"/>
      <path d="M-61.05 44.5 Q-58.3 46.1 -55.2 46.15 L-54.6 44.2 -53.75 41.75 -53.25 39.35 -53.0 38.65 Q-53.3 36.85 -53.85 35.85 -54.0 35.7 -53.4 35.7 L-52.95 35.7 -52.65 35.85 Q-51.9 37.8 -51.65 40.3 L-51.35 44.0 -50.95 45.3 -50.95 45.35 -50.8 45.3 -50.0 46.55 Q-48.85 47.4 -46.75 47.4 -40.4 47.4 -37.75 46.35 -36.2 45.75 -36.2 45.0 L-37.95 35.95 -39.15 32.85 Q-39.2 30.7 -38.4 31.3 L-36.55 35.65 -35.4 38.45 -34.9 39.85 Q-34.4 41.1 -33.65 41.1 L-33.2 40.95 Q-30.25 40.6 -27.1 37.6 -23.9 34.55 -23.9 32.85 -23.9 30.75 -24.55 27.9 -25.0 26.0 -25.15 23.3 L-25.05 23.3 -25.05 23.15 -25.25 20.7 -25.2 18.95 -24.85 18.0 -24.5 17.7 -24.3 17.55 -24.2 18.15 -24.2 18.4 -24.25 19.2 -24.0 22.2 -23.9 22.7 -24.05 23.3 -24.05 23.35 -23.55 26.65 Q-22.9 31.1 -22.9 32.85 -22.9 35.2 -26.35 38.5 -30.1 42.1 -33.9 42.1 -35.2 42.1 -36.4 40.0 -35.3 44.25 -35.3 45.0 -35.25 46.5 -36.5 47.15 -38.9 48.5 -46.6 48.5 -49.7 48.5 -51.15 46.85 L-51.35 46.5 -52.1 45.4 -52.55 43.75 -52.6 42.85 -52.65 42.35 -52.8 42.85 -53.3 45.15 -53.55 45.45 -53.9 46.6 -54.7 47.3 Q-56.75 47.15 -59.55 46.05 L-60.35 45.7 -63.15 44.45 Q-66.6 42.45 -66.75 40.25 L-67.0 32.15 -66.75 23.5 -66.75 19.2 Q-66.65 17.35 -66.2 16.05 L-65.85 18.4 -65.85 18.5 -65.35 20.0 -65.6 23.4 Q-66.0 27.8 -66.0 32.05 L-66.25 35.65 Q-66.35 38.25 -65.75 40.0 L-64.7 41.9 -64.65 41.9 -64.3 42.35 Q-63.55 43.25 -62.3 43.7 L-62.25 43.7 -61.05 44.5" fill="#000000" fill-rule="evenodd" stroke="none"/>
      <path d="M-63.05 17.05 L-62.55 21.0 -62.5 24.9 -62.8 30.75 -63.1 36.75 Q-63.1 41.9 -61.05 44.5 L-62.25 43.7 -62.3 43.7 Q-63.55 43.25 -64.3 42.35 L-64.65 41.9 -64.7 41.9 -65.75 40.0 Q-66.35 38.25 -66.25 35.65 L-66.0 32.05 Q-66.0 27.8 -65.6 23.4 L-65.35 20.0 -65.85 18.5 -65.85 18.4 Q-64.8 17.45 -63.05 17.05" fill="#bdbdbd" fill-rule="evenodd" stroke="none"/>
    </g>
    <linearGradient gradientTransform="matrix(-0.011, 0.0509, 0.117, 0.0253, 86.05, 18.7)" gradientUnits="userSpaceOnUse" id="gradient0" spreadMethod="pad" x1="-819.2" x2="819.2">
      <stop offset="0.0" stop-color="#cc7751"/>
      <stop offset="1.0" stop-color="#b2552c"/>
    </linearGradient>
  </defs>
</svg>
