<?xml version="1.0" encoding="UTF-8" standalone="no"?>
<svg xmlns:xlink="http://www.w3.org/1999/xlink" height="531.5px" width="460.6px" xmlns="http://www.w3.org/2000/svg">
  <g transform="matrix(1.0, 0.0, 0.0, 1.0, 193.65, 334.05)">
    <use height="72.35" transform="matrix(1.0, 0.0, 0.0, 1.0, -55.5, -61.65)" width="121.75" xlink:href="#shape0"/>
    <use height="107.55" transform="matrix(1.2271, 0.0, 0.0, 1.2271, 31.027, -119.4073)" width="25.3" xlink:href="#shape1"/>
    <use height="194.5" transform="matrix(0.669, 0.0, 0.0, 0.669, 31.9663, -118.5079)" width="43.6" xlink:href="#sprite0"/>
    <use height="72.35" transform="matrix(1.0, 0.0, 0.0, 1.0, -55.5, -61.65)" width="121.75" xlink:href="#shape3"/>
  </g>
  <defs>
    <g id="shape0" transform="matrix(1.0, 0.0, 0.0, 1.0, 61.85, 63.9)">
      <path d="M-34.5 -61.7 Q-35.0 -62.85 -34.6 -63.85 L-34.2 -63.9 -31.85 -61.85 -31.5 -61.45 -26.55 -56.65 Q-18.15 -49.05 -11.3 -47.25 L-6.35 -46.15 -1.35 -45.4 Q6.8 -44.5 14.65 -45.85 L16.65 -50.65 17.45 -53.5 Q17.75 -54.45 19.05 -55.0 22.1 -56.45 26.65 -56.15 L33.95 -55.1 Q37.75 -54.5 40.35 -53.1 42.95 -51.7 43.15 -50.2 L43.65 -44.0 43.35 -42.6 42.45 -40.8 41.9 -39.75 50.9 -38.7 51.25 -38.65 52.65 -38.45 Q54.9 -38.0 56.45 -37.35 60.5 -34.25 59.8 -29.6 L58.75 -23.95 58.45 -22.95 57.95 -21.85 Q57.55 -21.25 56.7 -21.05 L56.4 -20.95 56.95 -19.4 Q57.3 -17.9 57.3 -16.05 57.3 -9.65 55.65 -8.4 54.55 -7.6 51.1 -7.65 L44.65 -7.95 51.1 -5.2 51.3 -5.2 55.0 -3.85 Q55.6 -3.15 55.55 -2.5 L55.2 -0.9 Q54.2 2.4 52.15 5.2 L51.25 6.55 Q50.1 9.1 46.55 8.2 45.0 7.8 42.25 6.4 L42.15 6.35 38.25 4.2 37.45 3.75 31.85 0.8 26.55 1.05 20.5 1.05 15.0 0.55 9.35 -0.1 5.35 -0.4 -12.35 -2.3 -15.95 -3.15 Q-28.6 -6.35 -36.35 -9.75 -47.1 -14.5 -52.85 -21.05 L-57.85 -25.95 -58.8 -26.85 Q-60.8 -29.15 -61.45 -30.7 -61.95 -31.65 -61.8 -32.3 L-61.6 -33.0 -61.5 -33.0 -61.0 -32.35 -58.2 -28.95 Q-50.35 -20.4 -39.3 -15.0 -25.9 -8.3 -16.05 -6.15 L-13.4 -5.55 -11.65 -5.1 Q-2.9 -3.15 6.0 -2.5 L9.95 -2.3 15.65 -2.0 26.55 -1.45 27.6 -1.55 27.95 -1.5 28.55 -1.6 Q33.2 -1.95 34.9 -0.85 L37.45 0.75 38.45 1.4 39.7 2.15 43.1 3.95 44.3 4.55 44.4 4.6 46.7 5.7 48.05 5.75 Q50.55 3.2 52.2 0.05 L52.95 -1.45 53.1 -2.1 53.05 -2.4 51.25 -3.25 49.1 -4.15 46.8 -5.15 Q43.5 -6.55 39.95 -8.7 L39.95 -10.2 Q46.15 -9.45 51.1 -9.95 L51.7 -9.95 Q54.55 -10.0 54.75 -10.45 55.55 -11.95 55.75 -14.05 55.9 -16.2 55.3 -17.95 L55.25 -18.3 54.85 -18.8 54.25 -19.6 52.9 -20.55 52.65 -20.55 48.95 -20.45 41.1 -20.2 Q39.7 -20.2 39.9 -21.3 39.9 -21.85 40.85 -22.05 L48.7 -22.7 53.65 -22.95 53.7 -22.95 54.75 -23.0 55.95 -23.2 Q56.55 -23.6 57.35 -28.3 58.15 -33.05 54.75 -35.15 L52.5 -35.65 52.1 -35.7 51.55 -35.8 47.2 -36.4 40.65 -36.85 34.35 -37.15 31.45 -37.5 31.3 -37.5 30.35 -37.65 Q27.65 -38.35 26.75 -39.95 L27.1 -39.95 30.9 -40.0 37.2 -40.2 Q38.65 -40.35 39.7 -41.35 40.45 -42.1 41.0 -43.25 L41.45 -44.65 41.4 -45.05 40.9 -49.3 Q40.6 -50.8 37.2 -51.9 33.75 -53.0 27.25 -53.35 20.75 -53.7 20.2 -52.45 L19.95 -52.1 19.8 -51.6 19.55 -50.3 18.7 -47.85 18.15 -45.4 Q17.6 -44.05 16.65 -43.5 L13.35 -42.1 10.6 -41.7 Q7.25 -41.35 3.95 -41.55 L3.15 -41.6 -1.1 -42.15 -6.35 -42.85 Q-11.1 -43.7 -13.5 -44.85 -17.4 -46.75 -22.0 -49.4 -26.6 -52.1 -28.3 -54.6 L-31.7 -57.9 -33.1 -59.65 -33.7 -60.3 -34.5 -61.7" fill="#000000" fill-rule="evenodd" stroke="none"/>
      <path d="M-34.5 -61.7 L-33.7 -60.3 -33.1 -59.65 -31.7 -57.9 -28.3 -54.6 Q-26.6 -52.1 -22.0 -49.4 -17.4 -46.75 -13.5 -44.85 -11.1 -43.7 -6.35 -42.85 L-1.1 -42.15 -6.35 -42.6 Q-13.55 -43.5 -16.5 -45.0 -20.15 -46.8 -24.4 -49.3 -28.7 -51.9 -30.3 -54.1 L-33.45 -57.2 -34.7 -58.85 -35.25 -59.55 -36.65 -60.9 -34.5 -61.7 M13.35 -42.1 L16.65 -43.5 Q17.6 -44.05 18.15 -45.4 L18.7 -47.85 19.55 -50.3 19.8 -51.6 19.95 -52.1 20.2 -52.45 Q20.75 -53.7 27.25 -53.35 33.75 -53.0 37.2 -51.9 40.6 -50.8 40.9 -49.3 L41.4 -45.05 41.45 -44.65 41.0 -43.25 Q40.45 -42.1 39.7 -41.35 39.5 -46.45 37.2 -48.35 34.95 -50.1 28.0 -50.1 24.5 -50.1 22.6 -48.7 21.9 -48.15 19.95 -45.6 17.75 -42.7 13.3 -41.65 L13.35 -42.1 M52.1 -35.7 L52.5 -35.65 54.75 -35.15 Q58.15 -33.05 57.35 -28.3 56.55 -23.6 55.95 -23.2 L54.75 -23.0 53.7 -22.95 53.7 -23.0 Q54.8 -24.1 54.8 -26.7 54.8 -30.7 53.75 -33.25 53.1 -34.85 52.1 -35.7 M52.65 -20.55 L52.9 -20.55 54.25 -19.6 54.85 -18.8 55.25 -18.3 55.3 -17.95 Q55.9 -16.2 55.75 -14.05 55.55 -11.95 54.75 -10.45 54.55 -10.0 51.7 -9.95 53.2 -12.1 53.2 -15.2 L52.9 -18.45 52.65 -20.55 M49.1 -4.15 L51.25 -3.25 53.05 -2.4 53.1 -2.1 52.95 -1.45 52.2 0.05 Q50.55 3.2 48.05 5.75 L46.7 5.7 44.4 4.6 46.1 2.95 Q49.4 -0.45 49.4 -2.8 L49.1 -4.15 M28.55 -1.6 L27.95 -1.5 27.6 -1.55 26.55 -1.45 15.65 -2.0 9.95 -2.3 6.0 -2.5 Q-2.9 -3.15 -11.65 -5.1 L-13.4 -5.55 -16.05 -6.15 Q-25.9 -8.3 -39.3 -15.0 -50.35 -20.4 -58.2 -28.95 L-61.0 -32.35 -60.9 -33.15 -60.9 -33.6 -58.15 -30.5 Q-50.9 -22.55 -40.65 -17.45 -28.25 -11.25 -19.15 -9.15 L-16.55 -8.55 -10.45 -7.0 Q-5.1 -5.65 0.4 -5.35 L28.55 -1.6" fill="#bdbdbd" fill-rule="evenodd" stroke="none"/>
      <path d="M-1.1 -42.15 L3.15 -41.6 3.95 -41.55 Q7.25 -41.35 10.6 -41.7 L13.35 -42.1 13.3 -41.65 Q17.75 -42.7 19.95 -45.6 21.9 -48.15 22.6 -48.7 24.5 -50.1 28.0 -50.1 34.95 -50.1 37.2 -48.35 39.5 -46.45 39.7 -41.35 38.65 -40.35 37.2 -40.2 L30.9 -40.0 27.1 -39.95 26.75 -39.95 Q27.65 -38.35 30.35 -37.65 L31.3 -37.5 31.45 -37.5 34.35 -37.15 40.65 -36.85 47.2 -36.4 51.55 -35.8 52.1 -35.7 Q53.1 -34.85 53.75 -33.25 54.8 -30.7 54.8 -26.7 54.8 -24.1 53.7 -23.0 L53.65 -22.95 48.7 -22.7 40.85 -22.05 Q39.9 -21.85 39.9 -21.3 39.7 -20.2 41.1 -20.2 L48.95 -20.45 52.65 -20.55 52.9 -18.45 53.2 -15.2 Q53.2 -12.1 51.7 -9.95 L51.1 -9.95 Q46.15 -9.45 39.95 -10.2 L39.95 -8.7 Q43.5 -6.55 46.8 -5.15 L49.1 -4.15 49.4 -2.8 Q49.4 -0.45 46.1 2.95 L44.4 4.6 44.3 4.55 43.1 3.95 39.7 2.15 38.45 1.4 37.45 0.75 34.9 -0.85 Q33.2 -1.95 28.55 -1.6 L0.4 -5.35 Q-5.1 -5.65 -10.45 -7.0 L-16.55 -8.55 -19.15 -9.15 Q-28.25 -11.25 -40.65 -17.45 -50.9 -22.55 -58.15 -30.5 L-60.9 -33.6 -60.6 -35.55 Q-59.45 -40.25 -56.3 -44.9 -53.35 -49.45 -49.5 -52.65 -45.95 -55.65 -41.95 -58.1 -39.05 -59.95 -36.65 -60.9 L-35.25 -59.55 -34.7 -58.85 -33.45 -57.2 -30.3 -54.1 Q-28.7 -51.9 -24.4 -49.3 -20.15 -46.8 -16.5 -45.0 -13.55 -43.5 -6.35 -42.6 L-1.1 -42.15" fill="#999999" fill-rule="evenodd" stroke="none"/>
    </g>
    <g id="shape1" transform="matrix(1.0, 0.0, 0.0, 1.0, 12.65, 53.75)">
      <path d="M1.45 -48.5 L1.5 -49.15 1.25 -51.3 0.6 -52.95 2.25 -52.4 2.8 -51.1 1.85 -49.05 2.8 -51.1 Q4.0 -48.05 4.7 -44.5 4.35 -43.3 3.3 -41.8 4.35 -43.3 4.7 -44.5 5.5 -40.95 5.75 -36.95 L5.6 -36.75 4.45 -35.4 5.6 -36.75 5.75 -36.95 5.85 -29.55 4.0 -27.4 5.85 -29.55 5.1 -21.55 4.95 -20.15 4.0 -19.25 3.8 -19.15 Q2.95 -18.65 2.05 -18.8 L2.0 -18.8 Q3.15 -21.55 4.0 -27.4 L3.0 -26.65 2.95 -26.7 Q4.2 -29.05 4.35 -31.25 L4.45 -35.4 3.65 -34.65 3.75 -34.9 4.0 -36.85 3.6 -39.6 3.3 -41.8 2.85 -41.25 2.95 -41.85 3.0 -42.6 3.0 -43.6 2.55 -46.3 1.85 -49.05 1.45 -48.5" fill="#e0a972" fill-rule="evenodd" stroke="none"/>
      <path d="M0.6 -52.95 L1.25 -51.3 1.5 -49.15 1.45 -48.5 1.85 -49.05 2.55 -46.3 3.0 -43.6 3.0 -42.6 2.95 -41.85 2.85 -41.25 2.7 -41.05 Q1.15 -39.1 0.55 -37.55 1.15 -39.1 2.7 -41.05 L2.85 -41.25 3.3 -41.8 3.6 -39.6 4.0 -36.85 3.75 -34.9 3.65 -34.65 4.45 -35.4 4.35 -31.25 Q4.2 -29.05 2.95 -26.7 L2.9 -26.6 0.45 -24.75 0.05 -24.35 0.45 -24.75 2.9 -26.6 3.0 -26.65 4.0 -27.4 Q3.15 -21.55 2.0 -18.8 0.0 -18.95 -0.5 -20.1 L-0.25 -21.9 0.05 -24.35 0.65 -31.75 0.55 -37.55 Q0.3 -41.8 -0.6 -45.1 -1.55 -48.45 -3.2 -50.75 -1.8 -53.3 0.6 -52.95 M1.45 -48.5 L1.15 -48.15 Q-0.15 -46.45 -0.6 -45.1 -0.15 -46.45 1.15 -48.15 L1.45 -48.5 M0.65 -31.75 Q1.25 -32.65 3.15 -34.2 L3.65 -34.65 3.15 -34.2 Q1.25 -32.65 0.65 -31.75" fill="#ffcc99" fill-rule="evenodd" stroke="none"/>
      <path d="M5.1 -21.55 L10.15 -20.6 Q11.7 -19.55 11.9 -17.5 11.15 -16.2 8.25 -15.8 11.15 -16.2 11.9 -17.5 L10.6 48.0 Q9.95 51.4 6.7 52.3 L-3.05 52.95 Q2.45 44.25 4.6 31.9 6.75 19.55 7.3 10.45 7.8 1.3 7.1 -5.2 6.35 -11.65 5.25 -15.6 L2.7 -15.65 1.3 -15.75 Q1.75 -15.95 2.2 -16.25 4.0 -17.4 4.0 -18.55 L3.8 -19.15 4.0 -19.25 4.95 -20.15 5.1 -21.55 M5.55 -15.6 L5.25 -15.6 5.55 -15.6" fill="#ad0000" fill-rule="evenodd" stroke="none"/>
      <path d="M3.8 -19.15 L4.0 -18.55 Q4.0 -17.4 2.2 -16.25 1.75 -15.95 1.3 -15.75 L2.7 -15.65 5.25 -15.6 Q6.35 -11.65 7.1 -5.2 7.8 1.3 7.3 10.45 6.75 19.55 4.6 31.9 2.45 44.25 -3.05 52.95 L-5.6 52.7 -9.05 52.15 -9.1 52.15 -9.35 52.05 -9.5 51.6 Q-9.1 17.6 -7.35 -16.75 -9.0 -18.95 -7.95 -20.4 L-6.85 -21.5 -6.8 -21.55 -6.85 -21.5 -6.85 -21.55 -6.8 -21.55 -6.75 -21.55 -6.7 -21.55 -5.9 -21.65 -5.65 -21.7 -5.6 -21.7 -0.25 -21.9 -0.5 -20.1 Q0.0 -18.95 2.0 -18.8 L2.05 -18.8 Q2.95 -18.65 3.8 -19.15 M-0.95 -15.95 L-0.8 -15.9 -0.8 -15.95 -0.95 -15.95 -2.95 -16.15 -5.5 -16.5 -2.95 -16.15 -0.95 -15.95 M1.3 -15.75 L-0.8 -15.9 1.3 -15.75" fill="#ff0000" fill-rule="evenodd" stroke="none"/>
      <path d="M-6.85 -21.5 L-7.95 -20.4 Q-9.0 -18.95 -7.35 -16.75 -9.1 17.6 -9.5 51.6 L-9.35 52.05 -9.85 51.8 -10.2 51.6 -10.35 51.5 Q-11.6 50.65 -11.9 49.4 L-9.8 -18.5 -9.1 -19.95 -9.0 -20.0 -7.35 -21.35 -7.2 -21.4 -6.85 -21.55 -6.85 -21.5 -7.2 -21.4 -6.85 -21.5" fill="#ff4040" fill-rule="evenodd" stroke="none"/>
      <path d="M1.45 -48.5 L1.85 -49.05 2.8 -51.1 2.25 -52.4 0.6 -52.95 Q-1.8 -53.3 -3.2 -50.75 -1.55 -48.45 -0.6 -45.1 -0.15 -46.45 1.15 -48.15 L1.45 -48.5 M0.55 -37.55 Q1.15 -39.1 2.7 -41.05 L2.85 -41.25 3.3 -41.8 Q4.35 -43.3 4.7 -44.5 4.0 -48.05 2.8 -51.1 M3.65 -34.65 L4.45 -35.4 5.6 -36.75 5.75 -36.95 Q5.5 -40.95 4.7 -44.5 M3.65 -34.65 L3.15 -34.2 Q1.25 -32.65 0.65 -31.75 L0.05 -24.35 0.45 -24.75 2.9 -26.6 3.0 -26.65 4.0 -27.4 5.85 -29.55 5.75 -36.95 M0.65 -31.75 L0.55 -37.55 Q0.3 -41.8 -0.6 -45.1 M11.9 -17.5 Q11.7 -19.55 10.15 -20.6 L5.1 -21.55 4.95 -20.15 4.0 -19.25 3.8 -19.15 Q2.95 -18.65 2.05 -18.8 L2.0 -18.8 Q0.0 -18.95 -0.5 -20.1 L-0.25 -21.9 -5.6 -21.7 M1.3 -15.75 L2.7 -15.65 5.25 -15.6 5.55 -15.6 M-5.65 -21.7 L-5.9 -21.65 -6.7 -21.55 -6.75 -21.55 M-6.8 -21.55 L-6.85 -21.5 -7.2 -21.4 -7.35 -21.35 -9.0 -20.0 -9.1 -19.95 -9.8 -18.5 -11.9 49.4 Q-11.6 50.65 -10.35 51.5 L-10.2 51.6 -9.85 51.8 -9.35 52.05 -9.1 52.15 -9.05 52.15 -5.6 52.7 -3.05 52.95 6.7 52.3 Q9.95 51.4 10.6 48.0 L11.9 -17.5 Q11.15 -16.2 8.25 -15.8 M5.1 -21.55 L5.85 -29.55 M-0.8 -15.9 L-0.95 -15.95 -2.95 -16.15 -5.5 -16.5 M-0.8 -15.9 L1.3 -15.75 M-0.25 -21.9 L0.05 -24.35" fill="none" stroke="#000000" stroke-linecap="round" stroke-linejoin="round" stroke-opacity="0.6627451" stroke-width="1.5"/>
    </g>
    <g id="sprite0" transform="matrix(1.0, 0.0, 0.0, 1.0, 21.8, 97.25)">
      <use height="194.5" transform="matrix(1.0, 0.0, 0.0, 1.0, -21.8, -97.25)" width="43.6" xlink:href="#shape2"/>
    </g>
    <g id="shape2" transform="matrix(1.0, 0.0, 0.0, 1.0, 21.8, 97.25)">
      <path d="M7.0 -35.15 L7.3 -35.4 9.05 -37.05 9.4 -39.55 18.6 -37.8 Q21.5 -35.95 21.8 -32.15 L19.4 88.0 Q18.25 94.2 12.3 95.9 4.15 97.7 -5.6 97.1 4.45 81.1 8.45 58.45 12.4 35.8 13.35 19.1 14.35 2.35 13.0 -9.55 11.65 -21.45 9.65 -28.65 L4.95 -28.75 2.35 -28.95 4.0 -29.85 Q7.35 -31.95 7.35 -34.05 7.35 -34.85 7.0 -35.15" fill="url(#gradient0)" fill-rule="evenodd" stroke="none"/>
      <path d="M1.1 -97.15 Q2.5 -96.95 4.15 -96.15 L5.1 -93.8 Q7.3 -88.15 8.65 -81.7 10.05 -75.15 10.55 -67.85 10.95 -61.4 10.7 -54.3 10.4 -47.25 9.4 -39.55 L9.05 -37.05 7.3 -35.4 7.0 -35.15 Q5.45 -34.25 3.75 -34.55 L3.7 -34.55 Q5.8 -39.55 7.35 -50.35 L5.55 -48.95 5.45 -49.0 Q7.75 -53.35 7.95 -57.35 L8.15 -64.95 6.7 -63.6 6.85 -64.1 Q7.35 -65.65 7.35 -67.65 L6.65 -72.7 Q6.2 -75.15 6.05 -76.75 L5.25 -75.7 5.45 -76.8 5.55 -78.15 5.55 -80.05 Q5.55 -81.7 4.65 -84.95 3.65 -88.6 3.4 -90.05 L2.7 -89.05 2.75 -90.25 Q2.75 -92.15 2.25 -94.15 1.8 -95.95 1.1 -97.15" fill="url(#gradient1)" fill-rule="evenodd" stroke="none"/>
      <path d="M1.1 -97.15 Q1.8 -95.95 2.25 -94.15 2.75 -92.15 2.75 -90.25 L2.7 -89.05 3.4 -90.05 Q3.65 -88.6 4.65 -84.95 5.55 -81.7 5.55 -80.05 L5.55 -78.15 5.45 -76.8 5.25 -75.7 6.05 -76.75 Q6.2 -75.15 6.65 -72.7 L7.35 -67.65 Q7.35 -65.65 6.85 -64.1 L6.7 -63.6 8.15 -64.95 7.95 -57.35 Q7.75 -53.35 5.45 -49.0 L5.35 -48.8 5.55 -48.95 7.35 -50.35 Q5.8 -39.55 3.7 -34.55 0.0 -34.85 -0.95 -36.95 L-0.45 -40.25 0.1 -44.7 Q0.95 -51.95 1.15 -58.3 1.35 -64.0 1.05 -68.95 0.55 -76.75 -1.1 -82.75 -2.85 -88.9 -5.85 -93.15 -3.3 -97.85 1.1 -97.15" fill="url(#gradient2)" fill-rule="evenodd" stroke="none"/>
      <path d="M-17.15 95.4 L-18.05 95.0 -18.75 94.6 -18.95 94.45 Q-21.3 92.9 -21.8 90.6 L-18.0 -34.0 Q-17.5 -35.5 -16.65 -36.65 L-16.55 -36.75 -13.45 -39.2 -12.55 -39.55 Q-13.2 -38.5 -14.6 -37.45 -16.55 -34.85 -13.5 -30.75 -16.7 32.2 -17.4 94.6 L-17.15 95.4" fill="url(#gradient3)" fill-rule="evenodd" stroke="none"/>
      <path d="M3.7 -34.55 L3.75 -34.55 Q5.45 -34.25 7.0 -35.15 7.35 -34.85 7.35 -34.05 7.35 -31.95 4.0 -29.85 L2.35 -28.95 4.95 -28.75 9.65 -28.65 Q11.65 -21.45 13.0 -9.55 14.35 2.35 13.35 19.1 12.4 35.8 8.45 58.45 4.45 81.1 -5.6 97.1 L-10.25 96.65 -16.6 95.65 -16.65 95.65 -17.15 95.4 -17.4 94.6 Q-16.7 32.2 -13.5 -30.75 -16.55 -34.85 -14.6 -37.45 -13.2 -38.5 -12.55 -39.55 L-12.45 -39.6 -12.4 -39.55 -12.25 -39.6 -10.8 -39.8 -10.35 -39.85 -10.25 -39.85 -0.45 -40.25 -0.95 -36.95 Q0.0 -34.85 3.7 -34.55 M-1.45 -29.25 L-1.45 -29.3 -1.7 -29.3 -1.45 -29.25" fill="url(#gradient4)" fill-rule="evenodd" stroke="none"/>
    </g>
    <linearGradient gradientTransform="matrix(0.0167, 0.0, 0.0, 0.0835, 8.1, 28.85)" gradientUnits="userSpaceOnUse" id="gradient0" spreadMethod="pad" x1="-819.2" x2="819.2">
      <stop offset="0.0" stop-color="#000000"/>
      <stop offset="1.0" stop-color="#ffffff"/>
    </linearGradient>
    <linearGradient gradientTransform="matrix(-0.0085, 2.0E-4, -0.0012, -0.0381, 9.65, -64.35)" gradientUnits="userSpaceOnUse" id="gradient1" spreadMethod="pad" x1="-819.2" x2="819.2">
      <stop offset="0.0" stop-color="#000000"/>
      <stop offset="1.0" stop-color="#ffffff"/>
    </linearGradient>
    <linearGradient gradientTransform="matrix(0.0085, -4.0E-4, 0.0018, 0.0382, 1.15, -65.9)" gradientUnits="userSpaceOnUse" id="gradient2" spreadMethod="pad" x1="-819.2" x2="819.2">
      <stop offset="0.0" stop-color="#000000"/>
      <stop offset="1.0" stop-color="#ffffff"/>
    </linearGradient>
    <linearGradient gradientTransform="matrix(0.0212, -0.0078, 0.0285, 0.0772, -17.2, 27.9)" gradientUnits="userSpaceOnUse" id="gradient3" spreadMethod="pad" x1="-819.2" x2="819.2">
      <stop offset="0.0" stop-color="#000000"/>
      <stop offset="1.0" stop-color="#ffffff"/>
    </linearGradient>
    <linearGradient gradientTransform="matrix(0.0071, -0.0625, 0.083, 0.0095, 22.25, 19.7)" gradientUnits="userSpaceOnUse" id="gradient4" spreadMethod="pad" x1="-819.2" x2="819.2">
      <stop offset="0.0" stop-color="#000000"/>
      <stop offset="1.0" stop-color="#ffffff"/>
    </linearGradient>
    <g id="shape3" transform="matrix(1.0, 0.0, 0.0, 1.0, 55.5, 61.65)">
      <path d="M32.35 -37.7 L31.35 -37.7 30.7 -37.7 30.6 -37.7 30.3 -37.7 Q31.35 -36.1 34.5 -35.4 L35.6 -35.25 35.8 -35.25 39.15 -34.9 46.5 -34.6 49.9 -34.5 53.55 -34.15 57.9 -33.55 58.45 -33.45 Q59.45 -32.6 60.1 -31.0 61.15 -28.45 61.15 -24.45 61.15 -21.85 60.05 -20.75 L60.0 -20.7 55.05 -20.45 47.2 -19.8 Q46.25 -19.6 46.25 -19.05 46.05 -17.95 47.45 -17.95 L55.3 -18.2 59.0 -18.3 59.25 -16.2 59.55 -12.95 Q59.55 -9.85 58.05 -7.7 L57.45 -7.7 Q52.5 -7.2 46.3 -7.95 L46.3 -6.45 Q49.85 -4.3 53.15 -2.9 L55.45 -1.9 55.75 -0.55 Q55.75 1.8 52.45 5.2 L50.75 6.85 50.65 6.8 Q50.1 6.6 49.45 6.2 L46.05 4.4 44.8 3.65 43.8 3.0 41.25 1.4 Q39.55 0.3 34.9 0.65 L6.75 -3.1 Q1.25 -3.4 -4.1 -4.75 L-10.2 -6.3 -12.8 -6.9 Q-21.9 -9.0 -34.3 -15.2 -44.55 -20.3 -51.8 -28.25 L-54.55 -31.35 -54.25 -33.3 Q-53.1 -38.0 -49.95 -42.65 -47.0 -47.2 -43.15 -50.4 -39.6 -53.4 -35.6 -55.85 -32.7 -57.7 -30.3 -58.65 L-28.9 -57.3 -28.35 -56.6 -27.1 -54.95 -23.95 -51.85 Q-22.35 -49.65 -18.05 -47.05 -13.8 -44.55 -10.15 -42.75 -7.2 -41.25 0.0 -40.35 L5.25 -39.9 9.5 -39.35 10.3 -39.3 Q13.6 -39.1 16.95 -39.45 L19.7 -39.85 19.65 -39.4 Q22.35 -40.05 24.25 -41.35 L24.7 -40.55 Q25.1 -39.8 27.85 -38.8 L30.2 -38.0 31.35 -37.75 32.35 -37.7 M33.35 -37.7 L33.1 -37.7 32.65 -37.7 33.35 -37.7" fill="#999999" fill-rule="evenodd" stroke="none"/>
      <path d="M32.35 -37.7 L32.65 -37.7 33.1 -37.7 33.35 -37.7 35.15 -37.75 37.3 -37.75 43.3 -37.45 48.1 -37.65 48.0 -37.5 49.9 -37.4 57.25 -36.45 57.6 -36.4 59.0 -36.2 62.8 -35.1 Q66.85 -32.0 66.15 -27.35 L65.1 -21.7 64.8 -20.7 64.3 -19.6 63.05 -18.8 62.75 -18.7 63.3 -17.15 Q63.65 -15.65 63.65 -13.8 63.65 -7.4 62.0 -6.15 60.9 -5.35 57.45 -5.4 L51.0 -5.7 57.45 -2.95 57.65 -2.95 61.35 -1.6 Q61.95 -0.9 61.9 -0.25 L61.55 1.35 Q60.55 4.65 58.5 7.45 L57.6 8.8 Q56.45 11.35 52.9 10.45 51.35 10.05 48.6 8.65 L48.5 8.6 44.6 6.45 43.8 6.0 38.2 3.05 32.9 3.3 26.85 3.3 21.35 2.8 15.7 2.15 11.7 1.85 -6.0 -0.05 -9.6 -0.9 Q-22.25 -4.1 -30.0 -7.5 -40.75 -12.25 -46.5 -18.8 L-51.5 -23.7 -52.45 -24.6 Q-54.45 -26.9 -55.1 -28.45 -55.6 -29.4 -55.45 -30.05 L-55.25 -30.75 -55.15 -30.75 -54.65 -30.1 -51.85 -26.7 Q-44.0 -18.15 -32.95 -12.75 -19.55 -6.05 -9.7 -3.9 L-7.05 -3.3 -5.3 -2.85 Q3.45 -0.9 12.35 -0.25 L16.3 -0.05 22.0 0.25 32.9 0.8 33.95 0.7 34.3 0.75 34.9 0.65 Q39.55 0.3 41.25 1.4 L43.8 3.0 44.8 3.65 46.05 4.4 49.45 6.2 Q50.1 6.6 50.65 6.8 L50.75 6.85 53.05 7.95 54.4 8.0 Q56.9 5.45 58.55 2.3 L59.3 0.8 59.45 0.15 59.4 -0.15 57.6 -1.0 55.45 -1.9 53.15 -2.9 Q49.85 -4.3 46.3 -6.45 L46.3 -7.95 Q52.5 -7.2 57.45 -7.7 L58.05 -7.7 Q60.9 -7.75 61.1 -8.2 61.9 -9.7 62.1 -11.8 62.25 -13.95 61.65 -15.7 L61.6 -16.05 61.2 -16.55 60.6 -17.35 59.25 -18.3 59.0 -18.3 55.3 -18.2 47.45 -17.95 Q46.05 -17.95 46.25 -19.05 46.25 -19.6 47.2 -19.8 L55.05 -20.45 60.0 -20.7 60.05 -20.7 61.1 -20.75 62.3 -20.95 Q62.9 -21.35 63.7 -26.05 64.5 -30.8 61.1 -32.9 L58.85 -33.4 58.45 -33.45 57.9 -33.55 53.55 -34.15 49.9 -34.5 46.5 -34.6 39.15 -34.9 35.8 -35.25 35.6 -35.25 34.5 -35.4 Q31.35 -36.1 30.3 -37.7 L30.6 -37.7 30.7 -37.7 31.35 -37.7 32.35 -37.7 M-28.15 -59.45 Q-28.65 -60.6 -28.25 -61.6 L-27.85 -61.65 -25.5 -59.6 -25.15 -59.2 -20.2 -54.4 Q-11.8 -46.8 -4.95 -45.0 L0.0 -43.9 5.0 -43.15 Q13.15 -42.25 21.0 -43.6 L21.2 -44.0 23.6 -42.8 23.85 -42.7 24.2 -42.55 23.9 -42.05 23.0 -41.25 19.7 -39.85 16.95 -39.45 Q13.6 -39.1 10.3 -39.3 L9.5 -39.35 5.25 -39.9 0.0 -40.6 Q-4.75 -41.45 -7.15 -42.6 L-15.65 -47.15 Q-20.25 -49.85 -21.95 -52.35 L-25.35 -55.65 -26.75 -57.4 -27.35 -58.05 -28.15 -59.45" fill="#000000" fill-rule="evenodd" stroke="none"/>
      <path d="M58.45 -33.45 L58.85 -33.4 61.1 -32.9 Q64.5 -30.8 63.7 -26.05 62.9 -21.35 62.3 -20.95 L61.1 -20.75 60.05 -20.7 60.05 -20.75 Q61.15 -21.85 61.15 -24.45 61.15 -28.45 60.1 -31.0 59.45 -32.6 58.45 -33.45 M59.0 -18.3 L59.25 -18.3 60.6 -17.35 61.2 -16.55 61.6 -16.05 61.65 -15.7 Q62.25 -13.95 62.1 -11.8 61.9 -9.7 61.1 -8.2 60.9 -7.75 58.05 -7.7 59.55 -9.85 59.55 -12.95 L59.25 -16.2 59.0 -18.3 M55.45 -1.9 L57.6 -1.0 59.4 -0.15 59.45 0.15 59.3 0.8 58.55 2.3 Q56.9 5.45 54.4 8.0 L53.05 7.95 50.75 6.85 52.45 5.2 Q55.75 1.8 55.75 -0.55 L55.45 -1.9 M34.9 0.65 L34.3 0.75 33.95 0.7 32.9 0.8 22.0 0.25 16.3 -0.05 12.35 -0.25 Q3.45 -0.9 -5.3 -2.85 L-7.05 -3.3 -9.7 -3.9 Q-19.55 -6.05 -32.95 -12.75 -44.0 -18.15 -51.85 -26.7 L-54.65 -30.1 -54.55 -30.9 -54.55 -31.35 -51.8 -28.25 Q-44.55 -20.3 -34.3 -15.2 -21.9 -9.0 -12.8 -6.9 L-10.2 -6.3 -4.1 -4.75 Q1.25 -3.4 6.75 -3.1 L34.9 0.65 M-28.15 -59.45 L-27.35 -58.05 -26.75 -57.4 -25.35 -55.65 -21.95 -52.35 Q-20.25 -49.85 -15.65 -47.15 L-7.15 -42.6 Q-4.75 -41.45 0.0 -40.6 L5.25 -39.9 0.0 -40.35 Q-7.2 -41.25 -10.15 -42.75 -13.8 -44.55 -18.05 -47.05 -22.35 -49.65 -23.95 -51.85 L-27.1 -54.95 -28.35 -56.6 -28.9 -57.3 -30.3 -58.65 -28.15 -59.45 M19.7 -39.85 L23.0 -41.25 23.9 -42.05 24.2 -42.55 25.2 -42.1 24.25 -41.35 Q22.35 -40.05 19.65 -39.4 L19.7 -39.85" fill="#bdbdbd" fill-rule="evenodd" stroke="none"/>
    </g>
  </defs>
</svg>
