<?xml version="1.0" encoding="UTF-8" standalone="no"?>
<svg xmlns:xlink="http://www.w3.org/1999/xlink" height="531.5px" width="460.6px" xmlns="http://www.w3.org/2000/svg">
  <g transform="matrix(1.0, 0.0, 0.0, 1.0, 193.65, 334.05)">
    <use height="130.6" transform="matrix(1.0, 0.0, 0.0, 1.0, -82.9, -57.95)" width="335.1" xlink:href="#shape0"/>
  </g>
  <defs>
    <g id="shape0" transform="matrix(1.0, 0.0, 0.0, 1.0, 82.9, 57.95)">
      <path d="M-19.7 37.45 Q-18.15 34.6 -15.7 32.25 -13.9 30.45 -11.8 29.2 -7.0 26.3 -1.05 26.4 6.55 26.5 12.1 31.45 L13.4 32.65 Q17.0 36.35 18.35 40.9 19.3 43.9 19.25 47.3 19.15 55.85 13.0 61.75 6.9 67.7 -1.65 67.6 -10.2 67.5 -16.1 61.35 -22.05 55.25 -21.95 46.7 -21.9 41.6 -19.7 37.45 M12.4 47.2 Q12.45 44.05 11.3 41.35 10.3 39.2 8.55 37.4 4.55 33.35 -1.15 33.25 -6.85 33.15 -10.95 37.1 L-12.75 39.25 Q-15.05 42.55 -15.1 46.8 L-15.1 47.95 Q-14.8 52.9 -11.25 56.6 -7.25 60.65 -1.55 60.75 4.15 60.85 8.25 56.9 11.15 54.0 12.0 50.4 L12.4 47.2" fill="url(#gradient0)" fill-rule="evenodd" stroke="none"/>
      <path d="M12.4 47.2 L12.0 50.4 Q11.15 54.0 8.25 56.9 4.15 60.85 -1.55 60.75 -7.25 60.65 -11.25 56.6 -14.8 52.9 -15.1 47.95 L-15.1 46.8 Q-15.05 42.55 -12.75 39.25 L-10.95 37.1 Q-6.85 33.15 -1.15 33.25 4.55 33.35 8.55 37.4 10.3 39.2 11.3 41.35 12.45 44.05 12.4 47.2" fill="url(#gradient1)" fill-rule="evenodd" stroke="none"/>
      <path d="M-19.7 37.45 L-19.75 35.05 Q-19.65 27.0 -13.85 21.35 -8.1 15.75 -0.1 15.85 8.0 15.95 13.65 21.75 19.2 27.5 19.1 35.55 19.05 38.35 18.35 40.9 17.0 36.35 13.4 32.65 L12.1 31.45 Q11.25 28.5 9.05 26.25 5.3 22.4 -0.15 22.3 -5.5 22.25 -9.35 26.0 -10.9 27.45 -11.8 29.2 -13.9 30.45 -15.7 32.25 -18.15 34.6 -19.7 37.45" fill="url(#gradient2)" fill-rule="evenodd" stroke="none"/>
      <path d="M-11.8 29.2 Q-10.9 27.45 -9.35 26.0 -5.5 22.25 -0.15 22.3 5.3 22.4 9.05 26.25 11.25 28.5 12.1 31.45 6.55 26.5 -1.05 26.4 -7.0 26.3 -11.8 29.2" fill="url(#gradient3)" fill-rule="evenodd" stroke="none"/>
      <path d="M18.35 40.9 Q19.05 38.35 19.1 35.55 19.2 27.5 13.65 21.75 8.0 15.95 -0.1 15.85 -8.1 15.75 -13.85 21.35 -19.65 27.0 -19.75 35.05 L-19.7 37.45 Q-18.15 34.6 -15.7 32.25 -13.9 30.45 -11.8 29.2 -10.9 27.45 -9.35 26.0 -5.5 22.25 -0.15 22.3 5.3 22.4 9.05 26.25 11.25 28.5 12.1 31.45 L13.4 32.65 Q17.0 36.35 18.35 40.9 19.3 43.9 19.25 47.3 19.15 55.85 13.0 61.75 6.9 67.7 -1.65 67.6 -10.2 67.5 -16.1 61.35 -22.05 55.25 -21.95 46.7 -21.9 41.6 -19.7 37.45 M12.4 47.2 L12.0 50.4 Q11.15 54.0 8.25 56.9 4.15 60.85 -1.55 60.75 -7.25 60.65 -11.25 56.6 -14.8 52.9 -15.1 47.95 L-15.1 46.8 Q-15.05 42.55 -12.75 39.25 L-10.95 37.1 Q-6.85 33.15 -1.15 33.25 4.55 33.35 8.55 37.4 10.3 39.2 11.3 41.35 12.45 44.05 12.4 47.2 M-11.8 29.2 Q-7.0 26.3 -1.05 26.4 6.55 26.5 12.1 31.45" fill="none" stroke="#000000" stroke-linecap="round" stroke-linejoin="round" stroke-opacity="0.5019608" stroke-width="1.0"/>
      <path d="M250.05 18.35 L248.7 18.35 233.65 17.8 234.65 14.9 235.65 12.45 250.95 13.45 Q252.5 16.3 250.9 18.35 L250.05 18.35 M227.75 12.0 Q225.65 15.05 225.05 17.5 L204.1 17.05 202.45 17.0 184.0 16.65 Q192.6 15.75 199.65 13.1 205.15 11.4 216.1 11.35 L227.75 12.0" fill="#a16229" fill-rule="evenodd" stroke="none"/>
      <path d="M248.7 18.35 L250.05 18.35 250.0 19.9 Q250.55 20.15 250.95 21.0 251.65 22.25 251.6 24.05 251.6 25.8 250.85 27.05 250.25 28.3 249.3 28.3 248.4 28.3 247.75 27.0 247.3 26.15 247.2 25.1 L247.15 24.0 Q247.2 22.2 247.85 20.95 L248.65 19.95 248.7 18.35 M248.8 21.85 Q248.4 22.75 248.4 24.05 248.4 25.3 248.7 26.2 249.05 27.15 249.55 27.15 250.0 27.15 250.3 26.2 250.7 25.3 250.7 24.05 L250.4 21.85 Q250.1 20.95 249.65 20.95 249.15 20.95 248.8 21.85" fill="url(#gradient4)" fill-rule="evenodd" stroke="none"/>
      <path d="M235.65 12.45 L234.65 14.9 233.65 17.8 225.05 17.5 Q225.65 15.05 227.75 12.0 L235.65 12.45 M142.55 16.35 L136.7 16.3 136.7 16.2 Q136.75 12.95 138.6 10.1 L140.3 8.0 145.3 8.2 Q142.55 11.6 142.55 16.35" fill="#7d4615" fill-rule="evenodd" stroke="none"/>
      <path d="M204.1 17.05 L204.05 19.55 Q204.75 19.9 205.3 21.0 206.15 22.6 206.15 24.85 206.1 27.15 205.2 28.75 204.35 30.35 203.2 30.3 202.0 30.3 201.25 28.7 L200.8 27.65 200.5 25.9 200.5 24.8 Q200.5 22.55 201.35 20.95 201.8 20.05 202.4 19.65 L202.45 17.0 204.1 17.05 M202.3 27.1 L200.8 27.65 202.3 27.1 202.5 27.6 Q202.9 28.75 203.55 28.75 204.1 28.8 204.5 27.65 205.0 26.5 205.05 24.85 205.05 23.2 204.55 22.05 204.2 20.9 203.65 20.85 203.0 20.85 202.55 22.0 202.1 23.15 202.1 24.8 202.05 26.1 202.3 27.1" fill="url(#gradient5)" fill-rule="evenodd" stroke="none"/>
      <path d="M216.1 11.35 Q205.15 11.4 199.65 13.1 192.6 15.75 184.0 16.65 L183.8 16.65 Q170.45 16.4 156.95 16.4 159.3 12.65 160.9 8.75 L216.1 11.35 M15.55 12.45 Q57.1 10.3 75.7 16.9 L52.6 17.4 50.95 17.45 15.35 18.55 15.55 12.45" fill="#9c5e21" fill-rule="evenodd" stroke="none"/>
      <path d="M145.3 8.2 L146.5 6.85 Q149.4 6.5 152.15 7.45 L152.3 7.3 149.75 12.15 146.2 18.8 Q143.95 18.0 142.55 16.55 L142.55 16.35 Q142.55 11.6 145.3 8.2" fill="#b89c7b" fill-rule="evenodd" stroke="none"/>
      <path d="M160.9 8.75 Q159.3 12.65 156.95 16.4 L156.55 17.0 153.25 16.7 152.75 16.35 Q150.55 14.9 149.75 12.15 L152.3 7.3 154.65 4.65 Q159.25 5.6 160.95 8.65 L160.9 8.75 M-13.75 21.55 L-17.35 21.7 -34.35 22.35 Q-32.05 16.1 -27.7 9.15 -26.75 10.1 -25.8 10.65 L-25.1 11.0 -20.55 13.0 -17.15 13.5 Q-15.2 13.35 -12.55 14.3 -13.4 18.05 -13.75 21.55 M-17.35 21.7 Q-22.4 16.6 -25.8 10.65 -22.4 16.6 -17.35 21.7" fill="#cfb092" fill-rule="evenodd" stroke="none"/>
      <path d="M147.5 26.7 L147.5 26.55 Q147.55 24.25 148.4 22.65 148.8 21.85 149.45 21.4 L149.5 19.55 150.0 19.55 151.15 19.25 151.1 21.3 Q151.8 21.65 152.35 22.75 153.25 24.35 153.2 26.65 153.15 28.9 152.25 30.55 151.45 32.1 150.3 32.1 149.1 32.1 148.3 30.45 L147.6 28.45 147.5 26.7 M149.2 28.0 L149.5 29.4 Q149.9 30.55 150.55 30.55 151.15 30.55 151.55 29.4 152.05 28.25 152.05 26.6 152.05 24.95 151.65 23.8 151.25 22.65 150.65 22.65 150.0 22.65 149.6 23.8 149.1 24.95 149.1 26.6 L149.2 28.0 147.6 28.45 149.2 28.0" fill="url(#gradient6)" fill-rule="evenodd" stroke="none"/>
      <path d="M149.75 12.15 Q150.55 14.9 152.75 16.35 L153.25 16.7 Q152.55 18.65 151.15 19.25 L150.0 19.55 149.5 19.55 146.2 18.8 149.75 12.15" fill="#c2aa8d" fill-rule="evenodd" stroke="none"/>
      <path d="M136.7 16.3 L104.95 16.5 103.25 16.5 75.7 16.9 Q57.1 10.3 15.55 12.45 L15.45 6.35 Q54.2 6.2 92.35 6.85 115.25 13.0 135.1 7.9 L140.3 8.0 138.6 10.1 Q136.75 12.95 136.7 16.2 L136.7 16.3" fill="url(#gradient7)" fill-rule="evenodd" stroke="none"/>
      <path d="M104.95 16.5 L104.9 20.05 Q105.6 20.35 106.1 21.45 106.95 23.05 106.9 25.3 106.9 27.6 106.0 29.2 105.2 30.8 104.05 30.75 102.95 30.75 102.15 29.4 L102.0 29.15 Q101.55 28.3 101.4 27.15 101.25 26.3 101.25 25.25 101.3 23.0 102.1 21.4 102.55 20.5 103.2 20.1 L103.25 16.5 104.95 16.5 M102.55 26.85 L101.4 27.15 102.55 26.85 M105.4 22.5 Q105.0 21.4 104.4 21.4 103.75 21.35 103.35 22.45 102.9 23.65 102.85 25.25 102.85 26.9 103.25 28.05 103.65 29.2 104.3 29.25 104.9 29.25 105.3 28.1 105.8 26.95 105.8 25.3 105.85 23.7 105.4 22.5" fill="url(#gradient8)" fill-rule="evenodd" stroke="none"/>
      <path d="M92.35 6.85 Q113.85 7.2 135.1 7.9 115.25 13.0 92.35 6.85" fill="#9c6421" fill-rule="evenodd" stroke="none"/>
      <path d="M49.25 28.95 Q48.95 27.85 49.0 26.55 L49.0 26.3 Q49.0 24.05 49.85 22.45 50.3 21.55 50.9 21.15 L50.95 17.45 52.6 17.4 52.55 21.05 Q53.25 21.4 53.8 22.5 54.65 24.1 54.65 26.35 54.6 28.65 53.7 30.25 52.85 31.85 51.7 31.8 50.5 31.8 49.75 30.2 L49.25 28.95 M50.6 26.3 L49.0 26.55 50.6 26.3 50.6 27.65 50.95 29.15 Q51.4 30.25 52.0 30.25 52.6 30.3 53.0 29.2 53.5 28.0 53.55 26.35 53.55 24.75 53.05 23.55 52.7 22.45 52.1 22.4 51.5 22.4 51.0 23.5 50.6 24.7 50.6 26.3" fill="url(#gradient9)" fill-rule="evenodd" stroke="none"/>
      <path d="M15.45 6.35 L15.55 12.45 15.35 18.55 15.05 22.4 11.35 23.25 7.8 23.1 4.95 22.3 4.8 20.8 Q4.35 13.75 5.05 4.7 L5.2 3.25 Q10.55 0.6 15.3 3.35 L15.45 6.35" fill="url(#gradient10)" fill-rule="evenodd" stroke="none"/>
      <path d="M4.8 20.8 L2.05 20.9 Q-1.15 13.4 -1.8 4.9 L5.05 4.7 Q4.35 13.75 4.8 20.8 M-25.35 5.55 L-9.8 5.15 Q-11.5 9.9 -12.55 14.3 -15.2 13.35 -17.15 13.5 L-20.55 13.0 -25.1 11.0 -25.8 10.65 Q-26.75 10.1 -27.7 9.15 L-27.15 8.25 -25.35 5.55 M-27.15 8.25 L-25.8 10.65 -27.15 8.25" fill="#b39274" fill-rule="evenodd" stroke="none"/>
      <path d="M7.8 23.1 L11.35 23.25 11.35 25.5 14.35 26.6 Q16.6 27.3 16.6 27.85 L15.3 29.25 Q14.75 29.8 13.4 29.8 12.7 29.8 11.55 28.85 10.4 27.9 9.95 27.9 9.4 27.9 7.8 29.25 6.15 30.65 5.4 30.65 4.8 30.65 4.35 30.3 3.9 29.95 3.9 29.25 3.9 28.2 5.4 27.4 L7.8 26.15 7.8 23.1" fill="#8f8f80" fill-rule="evenodd" stroke="none"/>
      <path d="M-1.2 21.05 L-13.75 21.55 Q-13.4 18.05 -12.55 14.3 -9.95 15.2 -6.75 17.05 -3.2 19.1 -1.2 21.05 M-38.4 22.5 L-52.45 23.05 -55.85 18.15 Q-52.9 11.45 -48.5 6.2 L-43.45 6.05 Q-42.7 14.8 -38.4 22.5" fill="#cfb892" fill-rule="evenodd" stroke="none"/>
      <path d="M2.05 20.9 L-1.2 21.05 Q-3.2 19.1 -6.75 17.05 -9.95 15.2 -12.55 14.3 -11.5 9.9 -9.8 5.15 L-1.8 4.9 Q-1.15 13.4 2.05 20.9 M-30.4 5.7 L-25.35 5.55 -27.15 8.25 -27.7 9.15 -29.55 6.9 -30.4 5.7" fill="#b59a6c" fill-rule="evenodd" stroke="none"/>
      <path d="M-34.35 22.35 L-38.4 22.5 Q-42.7 14.8 -43.45 6.05 L-30.4 5.7 -29.55 6.9 -27.7 9.15 Q-32.05 16.1 -34.35 22.35 M-52.45 23.05 L-66.1 23.55 Q-68.3 16.15 -66.4 6.7 L-61.4 6.6 -48.5 6.2 Q-52.9 11.45 -55.85 18.15 L-52.45 23.05 M-55.85 18.15 Q-59.25 12.75 -61.4 6.6 -59.25 12.75 -55.85 18.15" fill="#c2ac89" fill-rule="evenodd" stroke="none"/>
      <path d="M-66.1 23.55 L-73.9 23.85 Q-82.85 24.65 -82.35 16.0 -81.75 7.6 -75.65 7.0 L-66.4 6.7 Q-68.3 16.15 -66.1 23.55" fill="#4d361f" fill-rule="evenodd" stroke="none"/>
      <path d="M248.7 18.35 L250.05 18.35 250.9 18.35 Q252.5 16.3 250.95 13.45 L235.65 12.45 227.75 12.0 216.1 11.35 160.9 8.75 Q159.3 12.65 156.95 16.4 170.45 16.4 183.8 16.65 M233.65 17.8 L248.7 18.35 248.65 19.95 247.85 20.95 Q247.2 22.2 247.15 24.0 L247.2 25.1 Q247.3 26.15 247.75 27.0 248.4 28.3 249.3 28.3 250.25 28.3 250.85 27.05 251.6 25.8 251.6 24.05 251.65 22.25 250.95 21.0 250.55 20.15 250.0 19.9 L250.05 18.35 M248.8 21.85 Q249.15 20.95 249.65 20.95 250.1 20.95 250.4 21.85 L250.7 24.05 Q250.7 25.3 250.3 26.2 250.0 27.15 249.55 27.15 249.05 27.15 248.7 26.2 248.4 25.3 248.4 24.05 248.4 22.75 248.8 21.85 M225.05 17.5 L233.65 17.8 M200.8 27.65 L201.25 28.7 Q202.0 30.3 203.2 30.3 204.35 30.35 205.2 28.75 206.1 27.15 206.15 24.85 206.15 22.6 205.3 21.0 204.75 19.9 204.05 19.55 L204.1 17.05 202.45 17.0 202.4 19.65 Q201.8 20.05 201.35 20.95 200.5 22.55 200.5 24.8 L200.5 25.9 200.8 27.65 202.3 27.1 Q202.05 26.1 202.1 24.8 202.1 23.15 202.55 22.0 203.0 20.85 203.65 20.85 204.2 20.9 204.55 22.05 205.05 23.2 205.05 24.85 205.0 26.5 204.5 27.65 204.1 28.8 203.55 28.75 202.9 28.75 202.5 27.6 L202.3 27.1 M225.05 17.5 L204.1 17.05 M184.0 16.65 L202.45 17.0 M200.8 27.65 L198.1 28.55 Q185.8 43.8 247.2 25.1 M147.6 28.45 L145.0 29.3 Q129.65 46.5 198.1 28.55 L200.5 25.9 M152.3 7.3 L154.65 4.65 Q159.25 5.6 160.95 8.65 L160.9 8.75 M145.3 8.2 L146.5 6.85 Q149.4 6.5 152.15 7.45 L152.3 7.3 149.75 12.15 Q150.55 14.9 152.75 16.35 L153.25 16.7 156.55 17.0 156.95 16.4 M146.2 18.8 Q143.95 18.0 142.55 16.55 L142.55 16.35 136.7 16.3 104.95 16.5 104.9 20.05 Q105.6 20.35 106.1 21.45 106.95 23.05 106.9 25.3 106.9 27.6 106.0 29.2 105.2 30.8 104.05 30.75 102.95 30.75 102.15 29.4 85.1 47.0 145.0 29.3 L147.5 26.7 147.5 26.55 Q147.55 24.25 148.4 22.65 148.8 21.85 149.45 21.4 L149.5 19.55 146.2 18.8 149.75 12.15 M151.15 19.25 L151.1 21.3 Q151.8 21.65 152.35 22.75 153.25 24.35 153.2 26.65 153.15 28.9 152.25 30.55 151.45 32.1 150.3 32.1 149.1 32.1 148.3 30.45 L147.6 28.45 147.5 26.7 M149.2 28.0 L149.1 26.6 Q149.1 24.95 149.6 23.8 150.0 22.65 150.65 22.65 151.25 22.65 151.65 23.8 152.05 24.95 152.05 26.6 152.05 28.25 151.55 29.4 151.15 30.55 150.55 30.55 149.9 30.55 149.5 29.4 L149.2 28.0 147.6 28.45 M151.15 19.25 L150.0 19.55 149.5 19.55 M153.25 16.7 Q152.55 18.65 151.15 19.25 M142.55 16.35 Q142.55 11.6 145.3 8.2 L140.3 8.0 135.1 7.9 Q113.85 7.2 92.35 6.85 54.2 6.2 15.45 6.35 L15.55 12.45 15.35 18.55 50.95 17.45 52.6 17.4 75.7 16.9 103.25 16.5 103.2 20.1 Q102.55 20.5 102.1 21.4 101.3 23.0 101.25 25.25 101.25 26.3 101.4 27.15 L102.55 26.85 M104.95 16.5 L103.25 16.5 M105.4 22.5 Q105.85 23.7 105.8 25.3 105.8 26.95 105.3 28.1 104.9 29.25 104.3 29.25 103.65 29.2 103.25 28.05 102.85 26.9 102.85 25.25 102.9 23.65 103.35 22.45 103.75 21.35 104.4 21.4 105.0 21.4 105.4 22.5 M102.15 29.4 L102.0 29.15 Q101.55 28.3 101.4 27.15 31.75 46.05 49.25 28.95 48.95 27.85 49.0 26.55 L11.7 31.1 M52.6 17.4 L52.55 21.05 Q53.25 21.4 53.8 22.5 54.65 24.1 54.65 26.35 54.6 28.65 53.7 30.25 52.85 31.85 51.7 31.8 50.5 31.8 49.75 30.2 L49.25 28.95 M50.95 17.45 L50.9 21.15 Q50.3 21.55 49.85 22.45 49.0 24.05 49.0 26.3 L49.0 26.55 50.6 26.3 Q50.6 24.7 51.0 23.5 51.5 22.4 52.1 22.4 52.7 22.45 53.05 23.55 53.55 24.75 53.55 26.35 53.5 28.0 53.0 29.2 52.6 30.3 52.0 30.25 51.4 30.25 50.95 29.15 L50.6 27.65 50.6 26.3 M5.05 4.7 L5.2 3.25 Q10.55 0.6 15.3 3.35 L15.45 6.35 M4.8 20.8 L2.05 20.9 -1.2 21.05 -13.75 21.55 -17.35 21.7 -34.35 22.35 -38.4 22.5 -52.45 23.05 -66.1 23.55 -73.9 23.85 Q-82.85 24.65 -82.35 16.0 -81.75 7.6 -75.65 7.0 L-66.4 6.7 -61.4 6.6 -48.5 6.2 -43.45 6.05 -30.4 5.7 -25.35 5.55 -9.8 5.15 -1.8 4.9 5.05 4.7 Q4.35 13.75 4.8 20.8 L4.95 22.3 7.8 23.1 11.35 23.25 15.05 22.4 15.35 18.55 M11.35 23.25 L11.35 25.5 14.35 26.6 Q16.6 27.3 16.6 27.85 L15.3 29.25 Q14.75 29.8 13.4 29.8 12.7 29.8 11.55 28.85 10.4 27.9 9.95 27.9 9.4 27.9 7.8 29.25 6.15 30.65 5.4 30.65 4.8 30.65 4.35 30.3 3.9 29.95 3.9 29.25 3.9 28.2 5.4 27.4 L7.8 26.15 7.8 23.1 M-25.8 10.65 Q-22.4 16.6 -17.35 21.7 M-12.55 14.3 Q-13.4 18.05 -13.75 21.55 M-9.8 5.15 Q-11.5 9.9 -12.55 14.3 M-25.8 10.65 L-27.15 8.25 -27.7 9.15 Q-32.05 16.1 -34.35 22.35 M-25.35 5.55 L-27.15 8.25 M-48.5 6.2 Q-52.9 11.45 -55.85 18.15 L-52.45 23.05 M-66.4 6.7 Q-68.3 16.15 -66.1 23.55 M-61.4 6.6 Q-59.25 12.75 -55.85 18.15 M-43.45 6.05 Q-42.7 14.8 -38.4 22.5 M2.05 20.9 Q-1.15 13.4 -1.8 4.9" fill="none" stroke="#000000" stroke-linecap="round" stroke-linejoin="round" stroke-opacity="0.5019608" stroke-width="1.0"/>
      <path d="M184.0 16.65 Q192.6 15.75 199.65 13.1 205.15 11.4 216.1 11.35 M183.8 16.65 L184.0 16.65 M135.1 7.9 Q115.25 13.0 92.35 6.85 M15.55 12.45 Q57.1 10.3 75.7 16.9" fill="none" stroke="#000000" stroke-linecap="round" stroke-linejoin="round" stroke-opacity="0.2" stroke-width="1.0"/>
      <path d="M237.15 11.65 L239.05 9.45 Q242.85 10.25 244.2 12.7 L244.15 12.75 Q242.85 16.0 240.95 19.0 L240.6 19.45 237.9 19.25 237.5 18.95 Q235.75 17.75 235.1 15.55 L237.15 11.65" fill="#cfb092" fill-rule="evenodd" stroke="none"/>
      <path d="M232.2 20.9 Q230.4 20.3 229.2 19.1 L229.2 18.9 Q229.25 15.1 231.5 12.35 L232.45 11.2 Q234.85 10.95 237.05 11.75 L237.15 11.65 235.1 15.55 232.2 20.9" fill="#c2aa8d" fill-rule="evenodd" stroke="none"/>
      <path d="M237.9 19.25 Q237.4 20.85 236.25 21.3 L235.3 21.55 234.9 21.5 Q233.4 21.4 232.2 20.9 L235.1 15.55 Q235.75 17.75 237.5 18.95 L237.9 19.25" fill="#bd9d80" fill-rule="evenodd" stroke="none"/>
      <path d="M237.15 11.65 L239.05 9.45 Q242.85 10.25 244.2 12.7 L244.15 12.75 Q242.85 16.0 240.95 19.0 L240.6 19.45 237.9 19.25 Q237.4 20.85 236.25 21.3 L235.3 21.55 234.9 21.5 Q233.4 21.4 232.2 20.9 230.4 20.3 229.2 19.1 L229.2 18.9 Q229.25 15.1 231.5 12.35 L232.45 11.2 Q234.85 10.95 237.05 11.75 L237.15 11.65 235.1 15.55 Q235.75 17.75 237.5 18.95 L237.9 19.25 M235.1 15.55 L232.2 20.9" fill="none" stroke="#000000" stroke-linecap="round" stroke-linejoin="round" stroke-opacity="0.5019608" stroke-width="1.0"/>
      <path d="M25.75 8.0 L21.7 7.8 8.1 6.25 8.05 6.05 Q8.1 5.45 8.65 4.7 9.3 3.9 9.3 3.15 9.3 2.8 8.9 2.35 8.55 1.9 8.55 1.65 L10.15 -0.3 Q11.7 -2.55 11.75 -4.3 11.75 -6.55 9.5 -9.2 7.3 -11.85 7.3 -12.65 7.3 -13.95 8.1 -16.25 8.85 -18.6 8.85 -20.25 8.9 -21.9 7.0 -23.8 L6.95 -23.85 7.2 -25.9 7.9 -30.95 Q9.0 -33.95 11.8 -34.85 24.0 -36.25 35.95 -35.55 L36.05 -29.05 Q35.9 -19.95 33.05 -9.6 30.4 0.4 25.75 8.0 M18.9 -30.0 Q22.35 -29.6 24.1 -31.5 22.35 -29.6 18.9 -30.0 M11.2 -30.6 Q14.55 -30.5 16.8 -32.7 14.55 -30.5 11.2 -30.6 M11.55 -23.5 Q14.5 -25.1 15.35 -28.1 14.5 -25.1 11.55 -23.5 M16.9 0.25 Q16.25 -0.2 15.5 -0.25 14.8 -0.25 14.15 0.35 13.55 0.95 13.55 1.5 13.55 2.35 14.1 2.95 14.65 3.5 15.4 3.5 16.35 3.55 17.0 2.7 L17.2 2.3 17.25 2.2 17.55 1.0 16.9 0.25" fill="url(#gradient11)" fill-rule="evenodd" stroke="none"/>
      <path d="M0.0 4.8 L-10.55 4.05 -10.9 4.0 -11.1 4.0 -12.0 -0.25 -11.75 -0.5 Q-11.0 -1.65 -11.0 -2.15 -11.0 -2.7 -11.3 -3.3 L-11.6 -4.35 Q-11.6 -5.1 -9.9 -6.55 -8.1 -8.0 -8.1 -8.6 -8.1 -9.35 -8.95 -10.85 L-9.8 -13.05 Q-9.8 -13.8 -8.95 -14.0 L-6.85 -14.25 -4.15 -13.95 -2.35 -13.7 Q-1.05 -13.65 -1.0 -14.15 -1.0 -15.15 -1.75 -15.95 L-1.95 -16.1 4.55 -15.95 4.25 -13.6 3.1 -4.4 Q2.55 -0.05 0.15 4.6 L0.0 4.8" fill="url(#gradient12)" fill-rule="evenodd" stroke="none"/>
      <path d="M52.25 3.0 L55.7 6.55 52.25 3.0 M59.75 5.7 L58.45 10.0 Q48.4 12.2 38.45 9.75 L38.35 7.85 Q37.25 -12.85 39.25 -33.1 L39.45 -35.25 39.9 -39.05 Q51.8 -41.0 59.95 -38.8 L60.8 -34.95 Q65.35 -14.15 59.75 5.7 M55.45 2.3 L46.15 -12.1 55.45 2.3" fill="url(#gradient13)" fill-rule="evenodd" stroke="none"/>
      <path d="M65.4 1.45 Q65.7 1.85 66.2 1.85 68.45 1.9 71.65 -3.05 L74.1 -7.5 74.15 -7.65 74.5 -9.2 74.75 -11.6 Q74.8 -13.15 74.4 -14.4 73.9 -15.85 73.0 -15.85 71.95 -15.85 70.55 -12.65 L68.9 -8.0 Q68.6 -7.05 66.7 -3.6 65.15 -0.7 65.15 0.55 L65.4 1.45 M60.8 -34.95 Q66.75 -34.15 71.1 -29.0 76.1 -22.9 76.0 -14.45 75.9 -6.0 70.7 -0.1 66.05 5.25 59.75 5.7 65.35 -14.15 60.8 -34.95" fill="url(#gradient14)" fill-rule="evenodd" stroke="none"/>
      <path d="M65.4 1.45 L65.15 0.55 Q65.15 -0.7 66.7 -3.6 68.6 -7.05 68.9 -8.0 L70.55 -12.65 Q71.95 -15.85 73.0 -15.85 73.9 -15.85 74.4 -14.4 74.8 -13.15 74.75 -11.6 L74.5 -9.2 74.15 -7.65 74.1 -7.5 71.65 -3.05 Q68.45 1.9 66.2 1.85 65.7 1.85 65.4 1.45" fill="#ffffff" fill-rule="evenodd" stroke="none"/>
      <path d="M38.35 7.85 Q32.1 8.2 25.75 8.0 30.4 0.4 33.05 -9.6 35.9 -19.95 36.05 -29.05 L35.95 -35.55 39.45 -35.25 39.25 -33.1 Q37.25 -12.85 38.35 7.85" fill="url(#gradient15)" fill-rule="evenodd" stroke="none"/>
      <path d="M7.8 4.8 L0.0 4.8 0.15 4.6 Q2.55 -0.05 3.1 -4.4 L4.25 -13.6 4.55 -15.95 6.4 -15.8 Q6.1 -5.3 7.8 4.8" fill="url(#gradient16)" fill-rule="evenodd" stroke="none"/>
      <path d="M8.05 6.05 L7.8 4.8 Q6.1 -5.3 6.4 -15.8 6.5 -19.8 6.95 -23.85 L7.0 -23.8 Q8.9 -21.9 8.85 -20.25 8.85 -18.6 8.1 -16.25 7.3 -13.95 7.3 -12.65 7.3 -11.85 9.5 -9.2 11.75 -6.55 11.75 -4.3 11.7 -2.55 10.15 -0.3 L8.55 1.65 Q8.55 1.9 8.9 2.35 9.3 2.8 9.3 3.15 9.3 3.9 8.65 4.7 8.1 5.45 8.05 6.05 M-9.95 -15.6 L-1.95 -16.1 -1.75 -15.95 Q-1.0 -15.15 -1.0 -14.15 -1.05 -13.65 -2.35 -13.7 L-4.15 -13.95 -6.85 -14.25 -8.95 -14.0 Q-9.8 -13.8 -9.8 -13.05 L-8.95 -10.85 Q-8.1 -9.35 -8.1 -8.6 -8.1 -8.0 -9.9 -6.55 -11.6 -5.1 -11.6 -4.35 L-11.3 -3.3 Q-11.0 -2.7 -11.0 -2.15 -11.0 -1.65 -11.75 -0.5 L-12.0 -0.25 Q-13.05 -7.65 -10.85 -15.5 L-9.95 -15.6 M16.9 0.25 L17.55 1.0 17.25 2.2 17.2 2.3 17.0 2.7 Q16.35 3.55 15.4 3.5 14.65 3.5 14.1 2.95 13.55 2.35 13.55 1.5 13.55 0.95 14.15 0.35 14.8 -0.25 15.5 -0.25 16.25 -0.2 16.9 0.25" fill="#b36e00" fill-rule="evenodd" stroke="none"/>
      <path d="M-10.55 4.05 L-10.8 4.4 -11.05 4.7 Q-12.1 6.15 -13.55 6.9 -15.05 7.65 -16.75 7.5 -18.85 7.3 -20.35 6.25 -22.25 4.95 -22.2 2.8 -22.2 0.95 -20.7 -2.2 -19.2 -5.4 -19.15 -7.0 -19.15 -8.6 -20.05 -11.85 -20.95 -15.15 -20.95 -16.4 -20.9 -18.75 -19.85 -20.15 -18.55 -21.9 -16.05 -21.85 -14.0 -21.85 -11.85 -19.6 -9.85 -17.55 -9.85 -16.05 L-9.95 -15.6 -10.85 -15.5 Q-13.05 -7.65 -12.0 -0.25 L-11.1 4.0 -10.9 4.0 -10.55 4.05" fill="url(#gradient17)" fill-rule="evenodd" stroke="none"/>
      <path d="M60.8 -34.95 Q66.75 -34.15 71.1 -29.0 76.1 -22.9 76.0 -14.45 75.9 -6.0 70.7 -0.1 66.05 5.25 59.75 5.7 L58.45 10.0 Q48.4 12.2 38.45 9.75 L38.35 7.85 Q32.1 8.2 25.75 8.0 L21.7 7.8 8.1 6.25 8.05 6.05 7.8 4.8 0.0 4.8 -10.55 4.05 -10.8 4.4 -11.05 4.7 Q-12.1 6.15 -13.55 6.9 -15.05 7.65 -16.75 7.5 -18.85 7.3 -20.35 6.25 -22.25 4.95 -22.2 2.8 -22.2 0.95 -20.7 -2.2 -19.2 -5.4 -19.15 -7.0 -19.15 -8.6 -20.05 -11.85 -20.95 -15.15 -20.95 -16.4 -20.9 -18.75 -19.85 -20.15 -18.55 -21.9 -16.05 -21.85 -14.0 -21.85 -11.85 -19.6 -9.85 -17.55 -9.85 -16.05 L-9.95 -15.6 -1.95 -16.1 4.55 -15.95 6.4 -15.8 Q6.5 -19.8 6.95 -23.85 L7.2 -25.9 7.9 -30.95 Q9.0 -33.95 11.8 -34.85 24.0 -36.25 35.95 -35.55 L39.45 -35.25 39.9 -39.05 Q51.8 -41.0 59.95 -38.8 L60.8 -34.95 Q65.35 -14.15 59.75 5.7 M38.35 7.85 Q37.25 -12.85 39.25 -33.1 L39.45 -35.25 M-12.0 -0.25 Q-13.05 -7.65 -10.85 -15.5 L-9.95 -15.6 M-10.55 4.05 L-10.9 4.0 -11.1 4.0 -12.0 -0.25 M6.4 -15.8 Q6.1 -5.3 7.8 4.8" fill="none" stroke="#000000" stroke-linecap="round" stroke-linejoin="round" stroke-opacity="0.5019608" stroke-width="1.0"/>
      <path d="M55.7 6.55 L52.25 3.0 M24.1 -31.5 Q22.35 -29.6 18.9 -30.0 M15.35 -28.1 Q14.5 -25.1 11.55 -23.5 M16.8 -32.7 Q14.55 -30.5 11.2 -30.6 M46.15 -12.1 L55.45 2.3" fill="none" stroke="#000000" stroke-linecap="round" stroke-linejoin="round" stroke-opacity="0.2" stroke-width="1.0"/>
      <path d="M-10.5 50.5 L-10.5 50.9 Q-10.55 53.85 -10.1 55.0 L-9.7 55.8 -22.95 63.15 Q-26.25 62.5 -25.35 58.85 L-10.5 50.5" fill="#9a5a1f" fill-rule="evenodd" stroke="none"/>
      <path d="M-10.5 50.5 L-3.8 46.7 Q-0.4 47.7 -1.35 51.05 L-9.7 55.8 -10.1 55.0 Q-10.55 53.85 -10.5 50.9 L-10.5 50.5" fill="#82450e" fill-rule="evenodd" stroke="none"/>
      <path d="M-9.7 55.8 L-1.35 51.05 Q-0.4 47.7 -3.8 46.7 L-10.5 50.5 -25.35 58.85 Q-26.25 62.5 -22.95 63.15 L-9.7 55.8 Z" fill="none" stroke="#000000" stroke-linecap="round" stroke-linejoin="round" stroke-opacity="0.5019608" stroke-width="1.0"/>
      <path d="M0.85 49.2 Q-0.1 50.15 -1.5 50.1 -2.85 50.1 -3.8 49.15 -4.6 48.2 -4.7 47.05 L-4.7 46.75 Q-4.7 45.75 -4.2 44.95 L-3.7 44.5 Q-2.75 43.55 -1.4 43.55 0.0 43.6 0.95 44.55 1.35 44.95 1.55 45.5 L1.85 46.85 1.75 47.65 Q1.55 48.5 0.85 49.2" fill="#333333" fill-rule="evenodd" stroke="none"/>
      <path d="M0.85 49.2 Q-0.1 50.15 -1.5 50.1 -2.85 50.1 -3.8 49.15 -4.6 48.2 -4.7 47.05 L-4.7 46.75 Q-4.7 45.75 -4.2 44.95 L-3.7 44.5 Q-2.75 43.55 -1.4 43.55 0.0 43.6 0.95 44.55 1.35 44.95 1.55 45.5 L1.85 46.85 1.75 47.65 Q1.55 48.5 0.85 49.2 Z" fill="none" stroke="#000000" stroke-linecap="round" stroke-linejoin="round" stroke-opacity="0.5019608" stroke-width="1.0"/>
      <path d="M3.6 48.85 Q4.0 49.9 4.0 51.15 L3.9 52.45 Q3.5 53.85 2.4 55.0 0.75 56.6 -1.55 56.55 -3.8 56.5 -5.35 54.9 -6.8 53.5 -6.9 51.45 L-6.9 51.0 Q-6.9 49.3 -5.95 48.05 L-5.25 47.2 Q-3.65 45.6 -1.4 45.65 0.9 45.7 2.5 47.3 3.2 48.0 3.6 48.85 M0.0 54.0 L1.6 52.5 -2.65 48.1 -4.25 49.6 0.0 54.0" fill="#cccccc" fill-rule="evenodd" stroke="none"/>
      <path d="M0.0 54.0 L-4.25 49.6 -2.65 48.1 1.6 52.5 0.0 54.0" fill="#949494" fill-rule="evenodd" stroke="none"/>
      <path d="M3.6 48.85 Q4.0 49.9 4.0 51.15 L3.9 52.45 Q3.5 53.85 2.4 55.0 0.75 56.6 -1.55 56.55 -3.8 56.5 -5.35 54.9 -6.8 53.5 -6.9 51.45 L-6.9 51.0 Q-6.9 49.3 -5.95 48.05 L-5.25 47.2 Q-3.65 45.6 -1.4 45.65 0.9 45.7 2.5 47.3 3.2 48.0 3.6 48.85 M0.0 54.0 L-4.25 49.6 -2.65 48.1 1.6 52.5 0.0 54.0" fill="none" stroke="#000000" stroke-linecap="round" stroke-linejoin="round" stroke-opacity="0.5019608" stroke-width="1.0"/>
      <path d="M-30.4 71.55 Q-34.7 64.65 -34.45 55.4 -30.1 50.45 -23.35 52.55 -17.85 60.4 -19.2 68.7 -23.3 73.6 -30.4 71.55" fill="url(#gradient18)" fill-rule="evenodd" stroke="none"/>
      <path d="M-30.4 71.55 Q-34.7 64.65 -34.45 55.4 -30.1 50.45 -23.35 52.55 -17.85 60.4 -19.2 68.7 -23.3 73.6 -30.4 71.55 Z" fill="none" stroke="#000000" stroke-linecap="round" stroke-linejoin="round" stroke-opacity="0.5019608" stroke-width="1.0"/>
      <path d="M-57.5 -57.2 L-56.85 -57.2 -57.1 -56.55 Q-61.65 -45.6 -63.55 -33.55 L-64.85 -24.75 Q-65.85 -18.05 -66.95 -6.5 -68.1 5.05 -66.8 14.1 -65.55 23.1 -64.75 26.1 L-63.7 29.95 Q-66.3 28.7 -67.0 25.1 -68.55 20.5 -69.35 15.5 -71.4 2.15 -69.65 -11.4 L-67.75 -23.8 -66.25 -32.0 Q-64.15 -43.2 -59.0 -53.35 -57.5 -56.8 -57.5 -57.15 L-57.5 -57.2 M-17.15 -46.6 L-13.55 -44.4 -14.1 -44.05 Q-15.6 -42.95 -16.5 -41.7 L-19.35 -37.2 Q-20.7 -34.65 -22.75 -28.3 -24.8 -22.05 -25.35 -19.05 -26.0 -15.6 -26.0 -10.5 L-25.85 -5.6 Q-25.65 -2.9 -25.15 -1.7 L-25.75 -1.8 -27.0 -2.35 -27.4 -2.7 -27.65 -5.15 -27.8 -10.4 Q-27.8 -15.9 -27.2 -19.6 -26.75 -22.85 -24.9 -29.55 -23.1 -36.4 -21.9 -39.15 L-19.35 -44.0 -17.25 -46.55 -17.15 -46.6 M-23.65 -1.45 L-23.7 -2.5 -21.1 -2.15 Q-17.85 -1.75 -17.7 0.55 L-17.6 4.8 -20.35 5.1 -20.45 1.5 Q-20.55 -1.0 -23.45 -1.45 L-23.65 -1.45 M-26.25 5.9 L-26.75 6.9 Q-27.55 8.7 -28.1 11.45 L-28.75 15.55 -28.85 19.2 -28.9 20.8 -28.85 22.95 -28.9 24.85 -28.7 25.9 -29.05 25.8 -29.5 25.55 -29.9 25.1 -30.15 24.6 -30.35 23.45 -30.35 23.3 -30.35 21.55 -30.25 17.65 -29.65 13.2 Q-29.15 10.25 -28.45 8.3 -27.4 5.4 -26.25 5.8 L-26.25 5.9 M-27.6 26.1 L-27.55 23.15 -25.5 23.45 Q-25.7 26.35 -26.0 27.6 L-26.8 28.75 -27.6 29.4 -27.35 26.15 -27.6 26.1 M-53.65 32.9 L-53.75 32.8 -54.4 32.0 -54.0 31.8 Q-53.75 32.15 -53.65 32.9" fill="#bdbdbd" fill-rule="evenodd" stroke="none"/>
      <path d="M-56.85 -57.2 Q-35.25 -57.0 -17.15 -46.6 L-17.25 -46.55 -19.35 -44.0 -21.9 -39.15 Q-23.1 -36.4 -24.9 -29.55 -26.75 -22.85 -27.2 -19.6 -27.8 -15.9 -27.8 -10.4 L-27.65 -5.15 -27.4 -2.7 -27.0 -2.35 -25.75 -1.8 -25.15 -1.7 Q-24.8 -0.7 -24.25 -0.7 -23.6 -0.7 -23.65 -0.95 L-23.65 -1.45 -23.45 -1.45 Q-20.55 -1.0 -20.45 1.5 L-20.35 5.1 -23.9 5.4 -24.25 5.45 -24.15 5.0 -24.25 4.55 Q-25.3 4.25 -26.25 5.9 L-26.25 5.8 Q-27.4 5.4 -28.45 8.3 -29.15 10.25 -29.65 13.2 L-30.25 17.65 -30.35 21.55 -30.35 23.3 -30.35 23.45 -30.15 24.6 -29.9 25.1 -29.5 25.55 -29.05 25.8 -28.7 25.9 -28.15 26.6 -27.6 26.4 -27.6 26.1 -27.35 26.15 -27.6 29.4 -27.95 29.55 -33.25 30.2 -38.9 30.45 -39.7 30.15 -39.75 30.15 -39.9 29.3 Q-40.25 28.3 -40.9 28.0 -41.6 27.7 -41.9 28.8 -42.1 29.5 -41.9 31.1 -42.0 32.25 -42.2 32.45 -43.2 33.35 -47.5 33.35 L-51.1 33.45 Q-53.0 33.4 -53.65 32.9 -53.75 32.15 -54.0 31.8 L-54.4 32.0 -54.5 31.85 -54.75 31.35 -54.75 31.2 -55.05 30.05 -55.1 30.05 -55.1 30.0 Q-55.2 29.1 -55.5 28.7 -56.3 28.7 -56.55 30.2 -57.0 30.55 -57.95 30.55 L-59.05 30.55 -61.35 30.5 -63.7 29.95 -64.75 26.1 Q-65.55 23.1 -66.8 14.1 -68.1 5.05 -66.95 -6.5 -65.85 -18.05 -64.85 -24.75 L-63.55 -33.55 Q-61.65 -45.6 -57.1 -56.55 L-56.85 -57.2" fill="#999999" fill-rule="evenodd" stroke="none"/>
      <path d="M-13.55 -44.4 Q-12.15 -45.35 -12.15 -43.9 -12.15 -44.4 -14.7 -40.95 L-16.65 -38.05 -13.6 -39.6 -10.4 -41.25 Q-8.25 -42.0 -8.25 -40.55 -8.25 -39.0 -18.0 -35.55 L-19.0 -33.15 -22.35 -22.4 Q-23.65 -17.55 -23.85 -11.65 L-23.75 -3.7 -21.15 -3.8 -18.1 -3.4 -16.75 -2.35 Q-15.95 -1.5 -15.75 -0.2 L-15.7 1.85 Q-15.7 4.9 -15.85 5.4 -16.3 6.8 -18.4 6.8 L-24.75 6.6 -25.2 7.5 -26.5 10.45 -27.05 12.9 -27.45 15.65 -27.55 20.9 -27.55 21.7 -26.0 21.55 Q-23.75 21.65 -23.9 23.8 L-23.75 27.7 Q-23.75 29.3 -24.85 30.4 -26.15 31.7 -28.8 32.2 L-32.25 32.45 -39.65 32.05 Q-39.7 32.8 -39.9 33.35 L-40.5 34.15 Q-41.05 34.65 -41.95 35.05 -43.95 35.8 -47.55 35.8 L-53.05 35.25 Q-54.95 34.7 -55.85 33.75 L-56.45 32.75 -57.8 32.85 -59.05 32.85 -61.45 33.0 Q-66.95 32.7 -69.15 26.95 L-69.75 25.1 Q-73.15 12.95 -72.85 0.3 -72.6 -11.85 -70.45 -23.8 -68.6 -34.3 -65.1 -44.35 -63.5 -48.95 -61.5 -53.35 -59.1 -57.95 -58.35 -57.95 L-57.8 -57.7 -57.75 -57.65 -57.5 -57.2 -57.5 -57.15 Q-57.5 -56.8 -59.0 -53.35 -64.15 -43.2 -66.25 -32.0 L-67.75 -23.8 -69.65 -11.4 Q-71.4 2.15 -69.35 15.5 -68.55 20.5 -67.0 25.1 -66.3 28.7 -63.7 29.95 L-61.35 30.5 -59.05 30.55 -57.95 30.55 Q-57.0 30.55 -56.55 30.2 -56.3 28.7 -55.5 28.7 -55.2 29.1 -55.1 30.0 L-55.1 30.05 -55.05 30.05 -54.75 31.2 -54.75 31.35 -54.5 31.85 -54.4 32.0 -53.75 32.8 -53.65 32.9 Q-53.0 33.4 -51.1 33.45 L-47.5 33.35 Q-43.2 33.35 -42.2 32.45 -42.0 32.25 -41.9 31.1 -42.1 29.5 -41.9 28.8 -41.6 27.7 -40.9 28.0 -40.25 28.3 -39.9 29.3 L-39.75 30.15 -39.7 30.15 -38.9 30.45 -33.25 30.2 -27.95 29.55 -27.6 29.4 -26.8 28.75 -26.0 27.6 Q-25.7 26.35 -25.5 23.45 L-27.55 23.15 -27.6 26.1 -27.6 26.4 -28.15 26.6 -28.7 25.9 -28.9 24.85 -28.85 22.95 -28.9 20.8 -28.85 19.2 -28.75 15.55 -28.1 11.45 Q-27.55 8.7 -26.75 6.9 L-26.25 5.9 Q-25.3 4.25 -24.25 4.55 L-24.15 5.0 -24.25 5.45 -23.9 5.4 -20.35 5.1 -17.6 4.8 -17.7 0.55 Q-17.85 -1.75 -21.1 -2.15 L-23.7 -2.5 -23.65 -1.45 -23.65 -0.95 Q-23.6 -0.7 -24.25 -0.7 -24.8 -0.7 -25.15 -1.7 -25.65 -2.9 -25.85 -5.6 L-26.0 -10.5 Q-26.0 -15.6 -25.35 -19.05 -24.8 -22.05 -22.75 -28.3 -20.7 -34.65 -19.35 -37.2 L-16.5 -41.7 Q-15.6 -42.95 -14.1 -44.05 L-13.55 -44.4" fill="#000000" fill-rule="evenodd" stroke="none"/>
      <path d="M-13.5 7.25 L-13.15 7.2 -12.55 7.25 -12.4 7.2 -10.2 7.35 -9.55 7.8 -9.4 7.45 -9.25 7.2 -9.25 6.8 -9.15 6.05 -8.85 5.4 -8.65 5.15 -7.4 5.2 Q-6.9 7.25 -7.05 9.4 -7.1 11.6 -6.1 13.2 L-5.05 14.85 Q-3.7 16.55 -1.35 17.0 0.6 17.25 2.35 16.1 L3.9 14.85 Q5.5 13.55 6.45 11.7 7.4 10.0 7.5 8.1 L7.6 7.2 7.65 7.1 7.65 7.05 7.7 6.95 7.7 6.8 7.7 6.7 7.75 6.6 7.7 6.5 7.75 6.4 7.7 6.3 7.75 6.25 7.8 6.1 7.8 6.05 7.8 5.95 7.85 5.9 7.8 5.75 7.85 5.65 7.8 5.6 7.85 5.5 7.85 5.35 7.9 5.25 7.95 5.15 7.9 5.0 7.95 4.95 7.95 4.85 7.95 4.75 7.95 4.65 8.0 4.6 7.95 4.5 8.0 4.45 8.0 4.3 8.05 4.2 8.05 4.15 8.05 4.05 8.05 3.9 8.1 3.85 8.05 3.8 8.1 3.7 8.1 3.55 8.15 3.5 8.15 3.4 8.1 3.25 8.1 3.2 8.15 3.15 8.1 3.05 8.1 2.95 8.15 2.85 8.1 2.7 8.15 2.6 8.15 2.55 8.1 2.4 8.1 2.35 8.15 2.25 8.1 2.15 8.05 2.0 8.1 1.95 8.1 1.85 8.1 1.7 8.05 1.6 8.05 1.55 8.0 1.4 7.15 -1.6 Q6.45 -3.65 4.5 -5.95 L-0.5 -6.95 Q-3.1 -7.3 -8.05 -7.1 L-8.25 -7.0 -9.1 -6.9 -10.55 -6.45 -14.4 -4.85 Q-15.75 -0.7 -16.0 3.65 L-16.05 5.75 -16.05 6.1 -15.95 6.4 -15.8 6.65 -15.9 6.85 -16.0 7.1 -16.1 7.3 -16.05 7.5 -13.5 7.25 M7.3 -4.35 Q9.55 -1.35 9.65 2.2 9.75 4.35 9.2 6.4 L9.05 6.75 9.0 7.1 9.95 7.3 10.4 7.4 12.15 8.65 12.35 8.15 12.55 7.95 13.25 7.4 13.45 7.15 14.0 7.1 14.65 7.05 14.7 7.0 15.15 7.3 18.65 7.4 23.3 8.45 Q25.0 9.4 26.3 10.85 L27.0 11.65 Q29.6 19.6 26.3 27.45 25.1 30.3 23.5 32.8 19.65 39.8 9.9 36.65 L7.75 35.6 Q7.55 35.85 7.45 36.25 L6.7 38.5 Q6.1 39.3 4.55 39.85 L1.35 39.75 Q-3.25 38.8 -7.35 36.75 L-7.65 36.4 -8.05 36.35 Q-16.35 37.2 -20.45 30.55 L-20.4 30.5 -20.45 30.35 -20.45 30.25 -20.55 30.2 -20.55 30.05 -20.6 29.9 -20.65 29.8 -20.7 29.7 -20.75 29.55 -20.8 29.45 -20.8 29.35 -20.85 29.25 -20.9 29.1 -20.95 29.0 -20.95 28.85 -21.0 28.7 -21.1 28.65 -21.1 28.5 -21.2 28.35 -21.3 28.2 -21.35 28.15 -21.4 28.0 -21.35 27.85 -21.4 27.8 -21.4 27.7 -21.45 27.55 -21.45 27.45 -21.5 27.4 -21.55 27.25 -21.6 27.15 -21.6 27.0 -21.65 26.85 -21.65 26.8 -21.7 26.7 -21.7 26.55 -21.7 26.45 -21.75 26.4 -21.75 26.3 -21.8 26.15 -21.75 26.05 -21.75 25.95 -21.8 25.8 -21.85 25.75 -21.85 25.65 -21.9 25.5 -21.95 25.4 -21.95 25.3 -21.95 25.2 -21.9 25.05 -22.0 25.0 -22.0 24.85 -22.0 24.8 -21.9 24.1 Q-20.8 16.5 -18.15 9.2 L-17.65 8.2 -17.65 8.15 -17.6 7.9 -17.7 7.7 -17.8 7.45 -17.7 7.1 -17.8 6.75 -17.75 6.55 -17.85 6.4 -18.1 6.1 -18.4 5.0 -18.5 4.6 -18.35 0.55 -17.2 -3.3 -15.8 -6.45 -12.85 -7.55 -9.15 -8.45 -7.3 -8.65 -2.85 -8.2 1.65 -7.65 4.55 -7.2 7.3 -4.35 M24.2 10.8 L23.85 10.35 Q19.85 8.95 15.85 8.05 L15.65 8.25 14.5 8.55 14.1 8.75 13.55 9.3 13.25 9.5 12.8 10.45 11.3 15.7 Q9.25 23.05 8.3 30.6 L8.15 32.95 8.1 33.25 Q10.85 34.4 13.9 34.8 L15.85 35.15 17.8 34.8 Q18.05 34.65 18.25 34.65 20.0 34.0 21.3 32.65 L21.6 32.0 21.7 31.9 22.25 30.75 22.25 30.65 22.35 30.65 22.4 30.55 22.5 30.45 22.55 30.4 22.55 30.35 22.6 30.25 22.65 30.2 22.7 30.1 22.7 30.0 22.75 29.9 22.8 29.85 22.85 29.75 22.9 29.65 22.95 29.55 23.0 29.45 23.0 29.4 23.05 29.3 23.1 29.2 23.15 29.15 23.2 29.05 23.2 29.0 23.25 28.9 23.3 28.85 23.3 28.75 23.35 28.65 23.4 28.6 23.45 28.5 23.5 28.4 23.55 28.3 23.6 28.2 23.65 28.15 23.65 28.05 23.7 27.95 23.75 27.85 23.8 27.8 23.8 27.75 23.85 27.65 23.9 27.6 23.95 27.5 23.95 27.4 24.0 27.35 24.05 27.25 24.1 27.15 24.1 27.1 24.15 27.05 24.2 26.95 24.25 26.85 24.25 26.8 24.3 26.7 24.3 26.6 24.3 26.45 24.3 26.35 24.35 26.3 24.4 26.2 24.45 26.1 24.45 26.05 24.5 25.95 24.55 25.85 24.55 25.8 24.6 25.75 24.65 25.65 24.7 25.55 24.75 25.5 24.75 25.4 24.8 25.3 24.85 25.2 24.85 25.15 24.9 25.05 24.9 24.95 24.95 24.9 25.0 24.8 24.95 24.7 24.95 24.6 25.0 24.5 25.0 24.45 24.95 24.35 25.0 24.25 25.05 24.15 Q26.65 19.3 25.55 14.05 L25.1 11.95 24.2 10.8 M10.9 9.55 L10.8 9.55 9.6 9.15 8.65 8.9 8.4 9.5 8.1 10.15 Q8.2 10.9 7.9 11.6 L6.65 14.1 6.05 15.35 5.15 16.0 5.05 16.1 Q3.45 17.65 1.25 18.35 L0.15 18.6 -1.35 18.7 -1.8 18.75 -4.35 17.9 -4.4 18.5 -7.05 32.85 -6.25 34.65 -6.1 34.8 Q-2.15 37.1 2.3 37.75 L4.05 37.9 5.05 37.35 5.45 35.3 5.9 30.75 5.95 29.45 7.55 23.0 Q9.3 16.45 11.5 9.85 L11.6 9.65 10.9 9.55 M-17.95 30.45 Q-14.15 34.1 -8.5 34.9 L-8.8 34.3 -8.85 33.35 -8.35 30.5 Q-7.45 24.0 -6.0 17.75 L-5.95 17.6 -6.0 17.3 -5.9 17.05 -8.0 15.1 -8.25 14.55 -9.55 10.75 -9.75 10.05 -9.85 8.85 -14.0 8.55 -14.95 8.7 Q-15.85 8.9 -16.55 9.4 L-16.65 9.8 -16.65 9.9 -20.25 24.5 Q-20.2 26.1 -19.75 27.65 L-19.2 29.15 -19.15 29.2 -18.15 30.2 -17.95 30.45 M-7.8 36.2 L-7.75 36.2 -7.8 36.15 -7.8 36.2" fill="#000000" fill-rule="evenodd" stroke="none"/>
      <path d="M-8.25 -7.0 L-8.05 -7.1 Q-3.1 -7.3 -0.5 -6.95 L4.5 -5.95 Q6.45 -3.65 7.15 -1.6 L8.0 1.4 8.05 1.55 8.05 1.6 8.1 1.7 8.1 1.85 8.1 1.95 8.05 2.0 8.1 2.15 8.15 2.25 8.1 2.35 8.1 2.4 8.15 2.55 8.15 2.6 8.1 2.7 8.15 2.85 8.1 2.95 8.1 3.05 8.15 3.15 8.1 3.2 8.1 3.25 8.15 3.4 8.15 3.5 8.1 3.55 8.1 3.7 8.05 3.8 8.1 3.85 8.05 3.9 8.05 4.05 8.05 4.15 8.05 4.2 8.0 4.3 8.0 4.45 7.95 4.5 8.0 4.6 7.95 4.65 7.95 4.75 7.95 4.85 7.95 4.95 7.9 5.0 7.95 5.15 7.9 5.25 7.85 5.35 7.85 5.5 7.8 5.6 7.85 5.65 7.8 5.75 7.85 5.9 7.8 5.95 7.8 6.05 7.8 6.1 7.75 6.25 7.7 6.3 7.75 6.4 7.7 6.5 7.75 6.6 7.7 6.7 7.7 6.8 7.7 6.95 7.65 7.05 7.65 7.1 7.6 7.2 7.5 8.1 Q7.4 10.0 6.45 11.7 5.5 13.55 3.9 14.85 L2.35 16.1 Q0.6 17.25 -1.35 17.0 -3.7 16.55 -5.05 14.85 L-6.1 13.2 Q-7.1 11.6 -7.05 9.4 -6.9 7.25 -7.4 5.2 L-8.65 5.15 -8.85 5.4 -9.15 6.05 -9.25 6.8 -9.25 7.2 -9.4 7.45 -9.55 7.8 -10.2 7.35 -12.4 7.2 -12.55 7.25 -13.15 7.2 -13.5 7.25 -12.95 2.3 Q-12.35 -1.65 -11.3 -3.85 -10.3 -5.95 -8.25 -7.0 M17.8 34.8 L15.85 35.15 13.9 34.8 Q10.85 34.4 8.1 33.25 L8.15 32.95 8.3 30.6 Q9.25 23.05 11.3 15.7 L12.8 10.45 13.25 9.5 13.55 9.3 14.1 8.75 14.5 8.55 15.65 8.25 15.85 8.05 Q19.85 8.95 23.85 10.35 L24.2 10.8 Q26.3 14.1 23.85 20.0 L19.0 33.15 17.8 34.8 M10.9 9.55 L11.6 9.65 11.5 9.85 Q9.3 16.45 7.55 23.0 L5.95 29.45 5.9 30.75 5.45 35.3 5.05 37.35 4.05 37.9 2.3 37.75 Q-2.15 37.1 -6.1 34.8 L-6.25 34.65 -7.05 32.85 -4.4 18.5 -4.35 17.9 -1.8 18.75 -1.35 18.7 0.15 18.6 1.25 18.35 Q3.45 17.65 5.05 16.1 L5.15 16.0 6.05 15.35 6.65 14.1 7.9 11.6 Q8.2 10.9 8.1 10.15 L8.4 9.5 8.65 8.9 9.6 9.15 10.8 9.55 10.9 9.55 M-14.95 8.7 L-14.0 8.55 -9.85 8.85 -9.75 10.05 -9.55 10.75 -8.25 14.55 -8.0 15.1 -5.9 17.05 -6.0 17.3 -5.95 17.6 -6.0 17.75 Q-7.45 24.0 -8.35 30.5 L-8.85 33.35 -8.8 34.3 -8.5 34.9 Q-14.15 34.1 -17.95 30.45 -18.65 27.5 -17.95 23.0 L-16.45 15.25 -14.95 8.7" fill="#999999" fill-rule="evenodd" stroke="none"/>
      <path d="M-13.5 7.25 L-16.05 7.5 -16.1 7.3 -16.0 7.1 -15.9 6.85 -15.8 6.65 -15.95 6.4 -16.05 6.1 -16.05 5.75 -16.0 3.65 Q-15.75 -0.7 -14.4 -4.85 L-10.55 -6.45 -9.1 -6.9 -8.25 -7.0 Q-10.3 -5.95 -11.3 -3.85 -12.35 -1.65 -12.95 2.3 L-13.5 7.25 M17.8 34.8 L19.0 33.15 23.85 20.0 Q26.3 14.1 24.2 10.8 L25.1 11.95 25.55 14.05 Q26.65 19.3 25.05 24.15 L25.0 24.25 24.95 24.35 25.0 24.45 25.0 24.5 24.95 24.6 24.95 24.7 25.0 24.8 24.95 24.9 24.9 24.95 24.9 25.05 24.85 25.15 24.85 25.2 24.8 25.3 24.75 25.4 24.75 25.5 24.7 25.55 24.65 25.65 24.6 25.75 24.55 25.8 24.55 25.85 24.5 25.95 24.45 26.05 24.45 26.1 24.4 26.2 24.35 26.3 24.3 26.35 24.3 26.45 24.3 26.6 24.3 26.7 24.25 26.8 24.25 26.85 24.2 26.95 24.15 27.05 24.1 27.1 24.1 27.15 24.05 27.25 24.0 27.35 23.95 27.4 23.95 27.5 23.9 27.6 23.85 27.65 23.8 27.75 23.8 27.8 23.75 27.85 23.7 27.95 23.65 28.05 23.65 28.15 23.6 28.2 23.55 28.3 23.5 28.4 23.45 28.5 23.4 28.6 23.35 28.65 23.3 28.75 23.3 28.85 23.25 28.9 23.2 29.0 23.2 29.05 23.15 29.15 23.1 29.2 23.05 29.3 23.0 29.4 23.0 29.45 22.95 29.55 22.9 29.65 22.85 29.75 22.8 29.85 22.75 29.9 22.7 30.0 22.7 30.1 22.65 30.2 22.6 30.25 22.55 30.35 22.55 30.4 22.5 30.45 22.4 30.55 22.35 30.65 22.25 30.65 22.25 30.75 21.7 31.9 21.6 32.0 21.3 32.65 Q20.0 34.0 18.25 34.65 18.05 34.65 17.8 34.8 M-17.95 30.45 L-18.15 30.2 -19.15 29.2 -19.2 29.15 -19.75 27.65 Q-20.2 26.1 -20.25 24.5 L-16.65 9.9 -16.65 9.8 -16.55 9.4 Q-15.85 8.9 -14.95 8.7 L-16.45 15.25 -17.95 23.0 Q-18.65 27.5 -17.95 30.45" fill="#bdbdbd" fill-rule="evenodd" stroke="none"/>
    </g>
    <linearGradient gradientTransform="matrix(-0.0147, -0.0042, 0.0068, -0.0242, -5.3, 46.1)" gradientUnits="userSpaceOnUse" id="gradient0" spreadMethod="pad" x1="-819.2" x2="819.2">
      <stop offset="0.0" stop-color="#999999"/>
      <stop offset="0.9882352941176471" stop-color="#666666"/>
    </linearGradient>
    <linearGradient gradientTransform="matrix(0.0165, 0.0032, -0.0032, 0.0165, -1.35, 47.0)" gradientUnits="userSpaceOnUse" id="gradient1" spreadMethod="pad" x1="-819.2" x2="819.2">
      <stop offset="0.0" stop-color="#666666"/>
      <stop offset="0.9882352941176471" stop-color="#cccccc"/>
    </linearGradient>
    <linearGradient gradientTransform="matrix(-0.0146, -0.0041, 0.0064, -0.0228, 1.55, 28.8)" gradientUnits="userSpaceOnUse" id="gradient2" spreadMethod="pad" x1="-819.2" x2="819.2">
      <stop offset="0.0" stop-color="#999999"/>
      <stop offset="0.9882352941176471" stop-color="#666666"/>
    </linearGradient>
    <linearGradient gradientTransform="matrix(-0.0052, -0.0015, 0.004, -0.0141, 0.2, 26.75)" gradientUnits="userSpaceOnUse" id="gradient3" spreadMethod="pad" x1="-819.2" x2="819.2">
      <stop offset="0.0" stop-color="#d6cdbe"/>
      <stop offset="0.9882352941176471" stop-color="#c4b59c"/>
    </linearGradient>
    <linearGradient gradientTransform="matrix(-1.0E-4, 0.0061, -0.0027, 0.0, 249.35, 23.35)" gradientUnits="userSpaceOnUse" id="gradient4" spreadMethod="pad" x1="-819.2" x2="819.2">
      <stop offset="0.0" stop-color="#999999"/>
      <stop offset="0.9882352941176471" stop-color="#cccccc"/>
    </linearGradient>
    <linearGradient gradientTransform="matrix(-1.0E-4, 0.0081, -0.0035, 0.0, 203.3, 23.65)" gradientUnits="userSpaceOnUse" id="gradient5" spreadMethod="pad" x1="-819.2" x2="819.2">
      <stop offset="0.0" stop-color="#999999"/>
      <stop offset="0.9882352941176471" stop-color="#cccccc"/>
    </linearGradient>
    <linearGradient gradientTransform="matrix(-1.0E-4, 0.0078, -0.0035, 0.0, 150.35, 25.65)" gradientUnits="userSpaceOnUse" id="gradient6" spreadMethod="pad" x1="-819.2" x2="819.2">
      <stop offset="0.0" stop-color="#999999"/>
      <stop offset="0.9882352941176471" stop-color="#cccccc"/>
    </linearGradient>
    <linearGradient gradientTransform="matrix(-0.0731, -0.001, 0.0011, -0.0793, 29.9, 14.65)" gradientUnits="userSpaceOnUse" id="gradient7" spreadMethod="pad" x1="-819.2" x2="819.2">
      <stop offset="0.0" stop-color="#9c5e21"/>
      <stop offset="0.9882352941176471" stop-color="#8c3b16"/>
    </linearGradient>
    <linearGradient gradientTransform="matrix(-1.0E-4, 0.0087, -0.0035, 0.0, 104.15, 23.6)" gradientUnits="userSpaceOnUse" id="gradient8" spreadMethod="pad" x1="-819.2" x2="819.2">
      <stop offset="0.0" stop-color="#999999"/>
      <stop offset="0.9882352941176471" stop-color="#cccccc"/>
    </linearGradient>
    <linearGradient gradientTransform="matrix(-1.0E-4, 0.0088, -0.0035, 0.0, 51.8, 24.6)" gradientUnits="userSpaceOnUse" id="gradient9" spreadMethod="pad" x1="-819.2" x2="819.2">
      <stop offset="0.0" stop-color="#999999"/>
      <stop offset="0.9882352941176471" stop-color="#cccccc"/>
    </linearGradient>
    <linearGradient gradientTransform="matrix(0.0065, 0.0067, -0.0048, 0.0047, 11.3, 14.5)" gradientUnits="userSpaceOnUse" id="gradient10" spreadMethod="pad" x1="-819.2" x2="819.2">
      <stop offset="0.0" stop-color="#999999"/>
      <stop offset="0.9882352941176471" stop-color="#cccccc"/>
    </linearGradient>
    <linearGradient gradientTransform="matrix(-0.0061, 0.0216, -0.5622, -0.1588, 650.0, 163.6)" gradientUnits="userSpaceOnUse" id="gradient11" spreadMethod="pad" x1="-819.2" x2="819.2">
      <stop offset="0.0" stop-color="#ff9900"/>
      <stop offset="1.0" stop-color="#e36c00"/>
    </linearGradient>
    <linearGradient gradientTransform="matrix(0.0031, 0.0124, -0.012, 0.003, -1.85, -8.95)" gradientUnits="userSpaceOnUse" id="gradient12" spreadMethod="pad" x1="-819.2" x2="819.2">
      <stop offset="0.0" stop-color="#ff9900"/>
      <stop offset="1.0" stop-color="#e36c00"/>
    </linearGradient>
    <linearGradient gradientTransform="matrix(-0.0083, 0.0294, -0.0146, -0.0041, 49.8, -16.4)" gradientUnits="userSpaceOnUse" id="gradient13" spreadMethod="pad" x1="-819.2" x2="819.2">
      <stop offset="0.0" stop-color="#ffffff"/>
      <stop offset="0.17254901960784313" stop-color="#ffcc00"/>
      <stop offset="0.9882352941176471" stop-color="#ff9e00"/>
    </linearGradient>
    <radialGradient cx="0" cy="0" gradientTransform="matrix(-4.0E-4, 0.0271, -0.0271, -4.0E-4, 53.35, -14.65)" gradientUnits="userSpaceOnUse" id="gradient14" r="819.2" spreadMethod="pad">
      <stop offset="0.0" stop-color="#3366ff"/>
      <stop offset="1.0" stop-color="#33ffff"/>
    </radialGradient>
    <linearGradient gradientTransform="matrix(-2.0E-4, 0.0114, -0.008, -1.0E-4, 34.1, -7.45)" gradientUnits="userSpaceOnUse" id="gradient15" spreadMethod="pad" x1="-819.2" x2="819.2">
      <stop offset="0.0" stop-color="#d16300"/>
      <stop offset="1.0" stop-color="#b35100"/>
    </linearGradient>
    <linearGradient gradientTransform="matrix(-2.0E-4, 0.0127, -0.0048, -1.0E-4, 4.1, -5.55)" gradientUnits="userSpaceOnUse" id="gradient16" spreadMethod="pad" x1="-819.2" x2="819.2">
      <stop offset="0.0" stop-color="#d16300"/>
      <stop offset="1.0" stop-color="#b35100"/>
    </linearGradient>
    <linearGradient gradientTransform="matrix(-1.0E-4, 0.0086, -0.0074, -1.0E-4, -16.0, -7.15)" gradientUnits="userSpaceOnUse" id="gradient17" spreadMethod="pad" x1="-819.2" x2="819.2">
      <stop offset="0.0" stop-color="#664422"/>
      <stop offset="1.0" stop-color="#402a15"/>
    </linearGradient>
    <linearGradient gradientTransform="matrix(-0.0072, 0.0018, -0.0023, -0.0093, -26.25, 60.25)" gradientUnits="userSpaceOnUse" id="gradient18" spreadMethod="pad" x1="-819.2" x2="819.2">
      <stop offset="0.0" stop-color="#999999"/>
      <stop offset="0.9882352941176471" stop-color="#4a4a4a"/>
    </linearGradient>
  </defs>
</svg>
