<?xml version="1.0" encoding="UTF-8" standalone="no"?>
<svg xmlns:xlink="http://www.w3.org/1999/xlink" height="531.5px" width="460.6px" xmlns="http://www.w3.org/2000/svg">
  <g transform="matrix(1.0, 0.0, 0.0, 1.0, 193.65, 334.05)">
    <use height="46.9" transform="matrix(0.9119, 0.0, 0.0, 0.9126, -77.3194, -48.163)" width="63.55" xlink:href="#shape0"/>
    <use height="162.8" transform="matrix(0.912, 0.0, 0.0, 0.912, -128.5484, -125.2977)" width="255.05" xlink:href="#shape1"/>
    <use height="407.0" transform="matrix(0.3573, 0.0061, -0.0061, 0.3573, -126.6565, -125.9008)" width="645.9" xlink:href="#sprite0"/>
    <use height="46.35" transform="matrix(1.0, 0.0, 0.0, 1.0, -76.8, -38.05)" width="118.2" xlink:href="#shape3"/>
  </g>
  <defs>
    <g id="shape0" transform="matrix(1.0, 0.0, 0.0, 1.0, 78.65, 51.9)">
      <path d="M-15.3 -37.85 L-19.3 -38.45 -28.45 -38.05 -32.8 -37.7 -33.6 -37.75 -33.75 -38.2 -33.45 -38.4 -32.15 -38.9 Q-29.4 -39.75 -22.65 -40.1 L-22.05 -40.15 -19.0 -40.2 -19.05 -40.45 -19.05 -40.5 -20.6 -41.05 -24.0 -42.2 -29.25 -43.15 -33.9 -44.1 -33.95 -44.5 -33.05 -44.55 -30.45 -44.6 -30.55 -44.55 Q-27.75 -44.55 -22.75 -43.4 L-18.7 -42.15 -18.65 -42.4 -18.55 -43.45 -18.45 -48.05 -18.55 -48.65 -18.85 -50.2 -18.75 -50.45 -20.5 -50.45 -38.35 -50.6 -39.45 -50.65 -58.85 -50.9 -61.85 -51.05 -63.6 -51.2 -64.15 -51.0 -67.1 -46.55 Q-70.85 -40.5 -73.25 -34.7 -74.65 -31.25 -75.3 -26.3 L-75.65 -18.0 -75.0 -15.8 -74.35 -13.75 Q-74.4 -12.55 -75.2 -12.55 -75.7 -12.6 -76.15 -13.6 L-76.4 -12.95 -77.25 -9.0 -77.1 -8.65 -75.7 -7.65 -75.4 -7.4 -71.7 -5.0 -75.2 -5.55 -75.5 -5.6 -75.75 -5.8 -78.1 -7.3 -78.15 -7.35 Q-78.65 -7.85 -78.65 -8.95 -78.6 -10.55 -77.45 -13.75 L-76.85 -15.4 -77.3 -17.35 -77.25 -20.05 -76.6 -27.1 Q-76.15 -32.35 -73.95 -37.25 -71.7 -42.25 -69.6 -45.45 -67.6 -48.7 -65.8 -50.3 L-64.05 -51.85 -63.9 -51.7 -63.25 -51.8 -52.25 -51.8 -42.6 -51.65 -19.85 -51.2 -17.35 -51.1 -17.1 -50.9 -17.1 -50.6 -17.2 -50.55 -17.0 -50.1 -16.6 -47.0 -16.55 -44.05 Q-16.6 -42.0 -16.95 -40.85 L-17.3 -40.0 -15.1 -39.6 -15.3 -37.85" fill="#000000" fill-rule="evenodd" stroke="none"/>
      <path d="M-61.85 -51.05 L-58.85 -50.9 -39.45 -50.65 -38.35 -50.6 -20.5 -50.45 -18.75 -50.45 -18.85 -50.2 -18.55 -48.65 -18.45 -48.05 -18.55 -43.45 -18.65 -42.4 -18.7 -42.15 -22.75 -43.4 Q-27.75 -44.55 -30.55 -44.55 L-30.45 -44.6 -33.05 -44.55 -33.95 -44.5 -33.9 -44.1 -29.25 -43.15 -24.0 -42.2 -20.6 -41.05 -19.05 -40.5 -19.05 -40.45 -19.0 -40.2 -22.05 -40.15 -22.65 -40.1 Q-29.4 -39.75 -32.15 -38.9 L-33.45 -38.4 -33.75 -38.2 -33.6 -37.75 -32.8 -37.7 -28.45 -38.05 -19.3 -38.45 -15.3 -37.85 Q-15.7 -36.25 -16.6 -34.8 -18.45 -31.9 -21.45 -29.25 -24.2 -26.8 -27.4 -24.6 -30.4 -22.45 -33.55 -20.7 L-40.1 -17.0 -46.4 -13.5 Q-49.75 -11.5 -53.3 -9.9 -56.65 -8.3 -60.2 -7.0 -63.85 -5.8 -67.75 -5.25 L-67.85 -5.2 Q-70.45 -6.8 -72.95 -8.55 L-73.25 -8.75 Q-74.7 -9.6 -74.7 -10.05 L-74.15 -12.6 -73.8 -13.9 -73.6 -14.55 -73.55 -14.45 -73.4 -15.7 -73.2 -18.3 -73.15 -18.7 -73.15 -18.8 -72.8 -26.95 Q-72.1 -31.75 -70.8 -35.1 -68.5 -40.75 -64.85 -46.65 -62.65 -49.9 -62.0 -51.0 L-61.85 -51.05" fill="#999999" fill-rule="evenodd" stroke="none"/>
      <path d="M-71.7 -5.0 L-75.4 -7.4 -75.7 -7.65 -77.1 -8.65 -77.25 -9.0 -76.4 -12.95 -76.15 -13.6 Q-75.7 -12.6 -75.2 -12.55 -74.4 -12.55 -74.35 -13.75 L-75.0 -15.8 -75.65 -18.0 -75.3 -26.3 Q-74.65 -31.25 -73.25 -34.7 -70.85 -40.5 -67.1 -46.55 L-64.15 -51.0 -63.6 -51.2 -61.85 -51.05 -62.0 -51.0 Q-62.65 -49.9 -64.85 -46.65 -68.5 -40.75 -70.8 -35.1 -72.1 -31.75 -72.8 -26.95 L-73.15 -18.8 -73.15 -18.7 -73.2 -18.3 -73.4 -15.7 -73.55 -14.45 -73.6 -14.55 -73.8 -13.9 -74.15 -12.6 -74.7 -10.05 Q-74.7 -9.6 -73.25 -8.75 L-72.95 -8.55 Q-70.45 -6.8 -67.85 -5.2 L-71.7 -5.0" fill="#bdbdbd" fill-rule="evenodd" stroke="none"/>
    </g>
    <g id="shape1" transform="matrix(1.0, 0.0, 0.0, 1.0, 127.25, 81.25)">
      <path d="M45.5 -62.1 L41.65 -62.05 40.35 -62.1 Q39.4 -67.0 37.7 -69.05 35.3 -72.1 29.3 -72.35 L26.55 -72.8 -21.3 -73.55 -23.1 -73.55 -23.1 -73.7 -21.3 -73.95 -10.3 -75.15 6.95 -76.4 Q16.65 -77.05 26.35 -76.05 38.7 -74.65 41.7 -70.6 L46.05 -64.2 46.1 -63.4 46.05 -63.15 46.1 -62.1 45.5 -62.1 46.1 -62.1 46.05 -63.15 46.7 -63.1 Q52.1 -63.1 52.05 -57.65 L52.0 -57.15 52.0 -56.8 Q48.9 -55.95 45.3 -55.75 L45.6 -59.3 45.5 -62.1 M46.1 -62.1 L47.3 -62.1 48.85 -62.2 47.3 -62.1 46.1 -62.1 M126.3 -9.25 Q124.9 5.05 119.25 15.8 117.9 18.75 116.2 21.1 L112.6 21.5 99.95 21.7 83.65 21.75 77.0 21.65 67.65 21.45 67.8 22.8 Q67.75 23.95 67.1 24.85 66.35 25.65 65.3 25.6 65.45 28.95 67.45 32.1 67.85 33.25 67.65 34.0 65.55 33.8 63.8 32.6 58.3 28.95 62.35 26.1 62.55 25.95 62.85 25.75 64.35 23.9 64.65 21.5 L65.65 21.5 67.65 21.45 65.65 21.5 64.65 21.5 53.9 21.2 52.7 21.1 50.55 21.05 40.7 20.75 26.75 20.1 24.1 20.0 13.05 19.35 8.05 19.05 6.7 17.1 Q3.85 13.35 1.75 12.1 L-3.7 8.45 Q-5.95 6.85 -8.3 6.3 L-8.95 4.75 Q-12.85 -4.0 -12.75 -17.8 -12.65 -18.7 -12.7 -19.75 -8.2 -16.25 -2.95 -14.45 L2.15 -13.25 2.5 -13.15 3.75 -13.0 4.1 -9.05 Q4.25 -6.5 4.7 -3.85 29.8 7.15 52.45 8.4 L70.6 7.85 Q81.5 6.45 91.8 2.6 90.75 -2.25 90.25 -7.4 89.75 -12.9 89.8 -19.0 L90.15 -24.6 90.3 -24.9 90.7 -24.55 92.5 -22.95 Q93.9 -21.45 97.25 -19.1 L102.75 -15.15 Q104.1 -14.05 107.2 -12.95 L107.25 -12.0 Q107.45 -3.85 108.65 2.5 L108.95 4.3 Q110.0 9.0 111.4 11.2 L112.0 12.2 Q112.95 13.35 114.0 13.4 117.05 13.35 119.2 4.35 120.75 -1.55 121.35 -9.25 L121.4 -9.6 125.2 -9.3 126.3 -9.25 M47.6 57.8 L50.1 59.8 Q53.05 62.9 52.75 67.35 L52.7 70.8 Q52.45 75.25 49.1 78.1 46.05 80.9 42.0 80.5 L33.85 79.55 Q34.8 77.15 35.95 75.5 L37.35 72.95 Q38.35 71.1 38.4 65.05 L38.3 61.1 47.55 60.15 47.6 57.8 M-82.1 8.25 Q-85.4 7.6 -89.05 6.35 L-90.25 2.8 Q-99.2 13.3 -105.55 18.55 -114.95 26.05 -118.75 22.6 L-119.2 22.15 -121.6 14.2 Q-123.45 8.0 -124.6 1.7 -126.25 -8.1 -126.25 -18.2 L-126.1 -25.45 Q-121.45 -21.6 -116.35 -19.55 -114.5 -18.75 -111.65 -18.1 L-108.3 -17.25 -100.75 -16.45 -96.95 -16.75 -94.1 -17.55 -94.35 -20.65 -94.05 -24.2 -91.8 -25.7 Q-86.55 -29.0 -84.9 -28.95 -81.3 -28.95 -74.2 -24.8 L-70.9 -22.65 Q-71.65 -9.3 -67.7 3.75 L-63.15 3.9 Q-65.5 5.85 -69.8 6.95 -74.75 8.25 -81.8 8.15 L-82.1 8.25 M99.95 21.7 Q98.0 18.9 96.25 15.25 93.4 9.45 91.8 2.6 93.4 9.45 96.25 15.25 98.0 18.9 99.95 21.7 M65.3 25.6 L65.25 25.7 62.35 26.1 65.25 25.7 65.3 25.6 M13.05 19.35 L10.0 13.75 Q8.05 9.7 6.65 5.05 5.4 0.8 4.7 -3.85 5.4 0.8 6.65 5.05 8.05 9.7 10.0 13.75 L13.05 19.35 M-90.25 2.8 Q-93.5 -6.75 -94.1 -17.55 -93.5 -6.75 -90.25 2.8 M-26.5 -73.0 L-24.8 -73.2 Q-28.0 -72.4 -30.65 -69.8 -34.6 -65.95 -34.6 -60.55 L-34.7 -60.3 -34.9 -48.0 -34.35 -48.05 Q-29.2 -47.9 -29.0 -43.2 L-28.9 -42.65 -35.2 -42.1 -35.3 -42.0 -36.7 -47.0 -38.6 -47.0 -37.4 -49.15 -37.7 -50.3 Q-38.2 -52.4 -38.15 -56.8 -38.0 -63.8 -35.15 -67.65 -32.2 -71.75 -26.5 -73.0 M-34.85 -47.0 L-36.7 -47.0 -34.85 -47.0 -34.8 -47.05 -34.9 -47.35 -34.85 -47.0 M-34.9 -48.0 L-34.85 -47.65 -34.9 -47.35 -34.85 -47.65 -34.9 -48.0 M-32.4 -47.1 L-34.8 -47.05 -32.4 -47.1 M-67.25 5.4 L-67.45 4.55 -67.7 3.75 -67.45 4.55 -67.25 5.4 M-111.65 -18.1 Q-111.7 -8.4 -109.95 1.25 -108.95 7.3 -107.25 13.3 L-105.55 18.55 -107.25 13.3 Q-108.95 7.3 -109.95 1.25 -111.7 -8.4 -111.65 -18.1" fill="#e68e00" fill-rule="evenodd" stroke="none"/>
      <path d="M41.65 -62.05 L45.5 -62.1 45.6 -59.3 45.3 -55.75 Q42.9 -55.65 40.3 -55.7 L40.8 -58.35 40.95 -58.9 41.65 -62.05 M46.05 -64.2 L41.7 -70.6 Q38.7 -74.65 26.35 -76.05 16.65 -77.05 6.95 -76.4 L-10.3 -75.15 -21.3 -73.95 -23.1 -73.7 -26.55 -73.15 -26.5 -73.0 Q-32.2 -71.75 -35.15 -67.65 -38.0 -63.8 -38.15 -56.8 -38.2 -52.4 -37.7 -50.3 L-37.4 -49.15 -38.6 -47.0 -36.7 -47.0 -35.3 -42.0 -41.05 -42.05 -39.85 -44.5 -38.6 -47.0 -40.55 -47.05 -39.9 -55.7 Q-39.55 -60.65 -39.0 -63.4 -37.95 -69.2 -34.25 -73.05 L-34.1 -73.1 -33.05 -73.65 Q-30.65 -74.75 -30.25 -75.0 L-27.85 -75.95 Q-27.05 -76.4 -27.0 -77.55 L-26.95 -77.65 -5.35 -78.85 Q6.7 -79.55 21.05 -79.3 L21.0 -79.45 30.7 -79.25 Q37.1 -79.2 41.7 -74.45 45.85 -70.2 46.05 -64.2 M125.8 -34.0 Q126.95 -26.6 126.8 -18.15 L126.35 -9.8 126.3 -9.25 125.2 -9.3 121.4 -9.6 121.6 -16.9 Q121.9 -29.5 120.0 -38.5 118.05 -47.5 115.05 -47.45 113.95 -47.45 113.05 -46.4 L112.3 -45.55 Q110.95 -43.25 109.7 -38.6 L109.35 -36.75 Q107.45 -28.45 107.2 -17.15 L107.2 -12.95 Q104.1 -14.05 102.75 -15.15 L97.25 -19.1 Q93.9 -21.45 92.5 -22.95 L90.7 -24.55 90.3 -24.9 90.1 -25.0 90.15 -24.6 89.8 -19.0 Q89.75 -12.9 90.25 -7.4 90.75 -2.25 91.8 2.6 81.5 6.45 70.6 7.85 L52.45 8.4 Q29.8 7.15 4.7 -3.85 4.25 -6.5 4.1 -9.05 L3.75 -13.0 2.5 -13.15 2.15 -13.25 -2.95 -14.45 Q-8.2 -16.25 -12.7 -19.75 L-12.5 -21.7 Q-11.95 -33.05 -8.55 -40.8 L-5.1 -39.25 Q-2.15 -37.8 -0.6 -35.4 0.3 -33.85 2.2 -27.45 L3.7 -22.25 3.75 -23.7 3.7 -23.8 Q5.5 -32.95 9.45 -37.25 13.1 -41.25 20.05 -42.7 L36.15 -44.1 59.25 -45.85 68.8 -45.65 68.75 -44.75 Q68.25 -43.9 68.15 -42.95 L68.1 -41.25 Q68.1 -39.15 70.2 -37.85 70.95 -37.35 71.85 -37.05 L74.85 -36.55 Q80.4 -36.5 87.0 -39.9 L93.2 -43.9 93.25 -43.9 93.3 -43.9 93.8 -44.35 Q90.9 -35.6 90.1 -25.0 90.9 -35.6 93.8 -44.35 L94.05 -44.5 93.9 -44.6 95.85 -47.1 Q97.35 -49.15 98.9 -49.85 102.4 -51.6 105.65 -51.55 L110.75 -50.9 114.9 -50.3 Q117.2 -49.9 118.45 -49.1 120.0 -48.2 120.65 -46.2 124.15 -37.0 125.05 -28.5 125.6 -29.3 125.45 -31.1 125.45 -32.95 125.8 -34.0 M67.65 34.0 Q67.55 35.05 66.6 35.6 64.8 36.25 62.1 35.0 L61.15 33.3 59.05 29.3 Q58.15 27.25 57.95 26.05 L55.6 25.6 Q55.55 25.45 55.3 25.4 53.9 23.7 53.8 21.9 L53.9 21.2 64.65 21.5 Q64.35 23.9 62.85 25.75 62.55 25.95 62.35 26.1 L57.95 26.05 62.35 26.1 Q58.3 28.95 63.8 32.6 65.55 33.8 67.65 34.0 M33.85 79.55 L27.5 78.8 27.55 78.75 Q21.85 75.4 21.9 71.35 22.0 66.5 23.1 63.75 L23.5 62.9 Q24.25 61.55 25.25 60.65 L38.3 61.1 38.4 65.05 Q38.35 71.1 37.35 72.95 L35.95 75.5 Q34.8 77.15 33.85 79.55 M8.05 19.05 L6.5 18.85 Q-3.55 15.75 -8.3 6.3 -5.95 6.85 -3.7 8.45 L1.75 12.1 Q3.85 13.35 6.7 17.1 L8.05 19.05 M-126.1 -25.45 Q-125.75 -31.8 -124.8 -38.2 -124.15 -42.85 -123.1 -47.5 L-123.05 -47.55 -122.95 -48.0 -120.35 -54.35 Q-116.85 -62.3 -112.6 -62.05 -110.95 -62.1 -108.3 -59.5 L-105.7 -56.95 -105.8 -56.85 -107.15 -52.55 -106.35 -52.65 Q-102.7 -52.55 -96.0 -46.5 L-91.45 -42.15 -91.0 -41.45 -90.3 -41.35 -90.4 -41.05 Q-93.3 -32.45 -94.05 -24.2 -93.3 -32.45 -90.4 -41.05 L-90.3 -41.35 Q-84.4 -39.15 -80.0 -38.45 L-68.55 -37.65 Q-70.25 -30.95 -70.8 -24.3 L-70.9 -22.65 -74.2 -24.8 Q-81.3 -28.95 -84.9 -28.95 -86.55 -29.0 -91.8 -25.7 L-94.05 -24.2 -94.35 -20.65 -94.1 -17.55 -96.95 -16.75 -100.75 -16.45 -108.3 -17.25 -111.65 -18.1 Q-114.5 -18.75 -116.35 -19.55 -121.45 -21.6 -126.1 -25.45 M3.75 -13.0 Q3.55 -16.6 3.65 -20.4 L3.7 -22.25 3.65 -20.4 Q3.55 -16.6 3.75 -13.0 M-107.15 -52.55 Q-109.1 -45.1 -110.25 -37.35 -111.7 -27.75 -111.65 -18.1 -111.7 -27.75 -110.25 -37.35 -109.1 -45.1 -107.15 -52.55" fill="#ffcc00" fill-rule="evenodd" stroke="none"/>
      <path d="M29.3 -72.35 Q35.3 -72.1 37.7 -69.05 39.4 -67.0 40.35 -62.1 L41.65 -62.05 40.95 -58.9 40.8 -58.35 40.3 -55.7 Q42.9 -55.65 45.3 -55.75 48.9 -55.95 52.0 -56.8 L52.0 -57.15 69.15 -57.0 76.9 -56.85 91.75 -56.55 99.3 -56.3 Q117.05 -55.7 118.85 -53.85 L120.6 -51.9 Q122.0 -49.0 123.0 -45.9 124.9 -40.5 125.9 -34.05 L125.8 -34.0 Q125.45 -32.95 125.45 -31.1 125.6 -29.3 125.05 -28.5 124.15 -37.0 120.65 -46.2 120.0 -48.2 118.45 -49.1 117.2 -49.9 114.9 -50.3 L110.75 -50.9 105.65 -51.55 Q102.4 -51.6 98.9 -49.85 97.35 -49.15 95.85 -47.1 L93.9 -44.6 93.3 -43.9 93.25 -43.9 93.2 -43.9 87.0 -39.9 Q80.4 -36.5 74.85 -36.55 L71.85 -37.05 Q70.95 -37.35 70.2 -37.85 68.1 -39.15 68.1 -41.25 L68.15 -42.95 Q68.25 -43.9 68.75 -44.75 L68.8 -45.65 59.25 -45.85 36.15 -44.1 20.05 -42.7 Q13.1 -41.25 9.45 -37.25 5.5 -32.95 3.7 -23.8 L3.75 -23.7 3.7 -22.25 2.2 -27.45 Q0.3 -33.85 -0.6 -35.4 -2.15 -37.8 -5.1 -39.25 L-8.55 -40.8 -7.65 -42.75 -6.0 -45.7 Q-3.55 -48.25 0.4 -51.05 6.5 -55.2 9.55 -54.95 L11.2 -54.95 11.3 -54.3 11.2 -54.35 Q8.35 -48.85 6.6 -42.45 4.25 -34.05 3.7 -23.8 4.25 -34.05 6.6 -42.45 8.35 -48.85 11.2 -54.35 L11.3 -54.3 11.25 -51.45 11.3 -51.3 Q12.15 -54.05 15.85 -54.65 19.7 -55.7 22.25 -56.0 L29.0 -56.5 32.8 -56.6 32.85 -56.9 32.85 -57.95 Q32.9 -63.35 38.45 -63.25 37.9 -65.65 35.25 -68.65 32.8 -71.6 29.3 -72.35 M62.1 35.0 Q60.8 34.3 59.35 33.2 56.65 30.7 55.05 25.5 L54.95 25.45 Q53.85 25.4 53.1 24.6 52.3 23.6 52.4 22.4 52.4 21.65 52.7 21.1 L53.9 21.2 53.8 21.9 Q53.9 23.7 55.3 25.4 L55.35 25.55 55.6 25.6 57.95 26.05 Q58.15 27.25 59.05 29.3 L61.15 33.3 62.1 35.0 M27.5 78.8 L20.3 77.95 Q17.2 77.7 15.35 74.85 13.3 72.2 13.4 68.6 L13.55 65.8 Q13.75 62.2 16.0 59.7 17.8 57.6 20.25 57.2 L20.6 59.65 20.55 59.75 Q20.35 59.5 19.8 59.4 L19.5 59.45 19.65 59.65 Q17.5 59.25 16.75 62.0 16.15 64.05 16.0 68.15 16.0 68.8 16.45 69.7 L16.8 70.75 19.1 65.95 Q20.85 62.0 20.8 61.45 L20.9 60.05 20.8 59.75 22.55 60.2 25.25 60.65 Q24.25 61.55 23.5 62.9 L23.1 63.75 Q22.0 66.5 21.9 71.35 21.85 75.4 27.55 78.75 L27.5 78.8 M-63.15 3.9 L-63.7 6.8 Q-72.85 9.6 -81.85 8.25 L-81.8 8.15 Q-74.75 8.25 -69.8 6.95 -65.5 5.85 -63.15 3.9 M-123.0 -47.9 L-120.15 -58.35 -117.75 -65.3 -117.15 -65.85 Q-113.25 -69.35 -104.2 -61.35 -97.9 -55.75 -88.95 -44.6 L-88.05 -46.95 Q-74.95 -50.1 -62.7 -46.5 L-62.2 -43.6 -66.75 -43.75 -66.75 -44.1 -66.85 -43.8 -68.55 -37.65 -80.0 -38.45 Q-84.4 -39.15 -90.3 -41.35 L-91.0 -41.45 -91.45 -42.15 -96.0 -46.5 Q-102.7 -52.55 -106.35 -52.65 L-107.15 -52.55 -105.8 -56.85 -105.7 -56.95 -108.3 -59.5 Q-110.95 -62.1 -112.6 -62.05 -116.85 -62.3 -120.35 -54.35 L-122.95 -48.0 -123.0 -47.9 M-48.1 -43.4 Q-47.7 -48.15 -42.8 -48.2 L-42.55 -64.7 -42.55 -64.9 Q-42.4 -71.4 -37.7 -75.85 -33.1 -80.35 -26.6 -80.25 L21.0 -79.45 21.05 -79.3 Q6.7 -79.55 -5.35 -78.85 L-26.95 -77.65 Q-26.95 -78.6 -28.25 -79.0 L-28.7 -79.05 -30.85 -78.95 -31.0 -78.95 Q-32.8 -78.8 -35.3 -76.7 -37.85 -74.4 -37.65 -72.8 L-36.65 -72.65 -34.25 -73.05 Q-37.95 -69.2 -39.0 -63.4 -39.55 -60.65 -39.9 -55.7 L-40.55 -47.05 -38.6 -47.0 -39.85 -44.5 -41.05 -42.05 -48.2 -43.0 -48.1 -43.4 M36.9 -62.45 L38.65 -62.25 38.45 -63.25 38.65 -62.25 40.35 -62.1 38.65 -62.25 36.9 -62.45 M37.4 -59.3 L37.4 -61.15 35.5 -61.3 Q34.85 -61.3 34.35 -60.65 33.85 -60.05 33.85 -59.6 33.85 -58.8 34.2 -58.75 L35.0 -58.6 36.3 -58.7 37.4 -59.3 M32.8 -56.6 L32.9 -56.55 40.3 -55.7 32.9 -56.55 32.8 -56.6 M99.3 -56.3 L97.5 -52.85 94.55 -46.65 93.9 -44.6 94.55 -46.65 97.5 -52.85 99.3 -56.3 M55.05 25.5 L55.35 25.55 55.05 25.5 M-104.2 -61.35 L-105.7 -56.95 -104.2 -61.35 M-88.95 -44.6 L-90.3 -41.35 -88.95 -44.6 M-66.4 -45.15 L-66.75 -44.1 -66.4 -45.15 M-44.65 -47.3 L-42.8 -47.2 -40.55 -47.05 -42.8 -47.2 -44.65 -47.3 M-43.7 -44.85 Q-43.75 -45.3 -43.95 -45.55 L-46.25 -45.45 Q-46.6 -44.9 -46.6 -44.15 L-46.35 -43.4 -45.6 -43.4 Q-44.75 -43.35 -44.15 -43.9 -43.75 -44.4 -43.7 -44.85 M-42.8 -48.2 L-42.8 -47.2 -42.8 -48.2 M-72.6 -45.15 Q-73.15 -45.75 -74.6 -46.0 L-76.5 -46.3 -79.3 -45.85 Q-80.65 -45.45 -80.6 -44.4 -80.6 -43.65 -76.65 -42.15 -72.75 -40.65 -71.5 -40.65 -71.0 -40.6 -70.5 -41.05 -69.9 -41.4 -69.95 -42.2 -69.9 -43.25 -71.1 -44.4 L-72.0 -45.15 -72.4 -45.5 -72.6 -45.15" fill="#ffec30" fill-rule="evenodd" stroke="none"/>
      <path d="M-6.0 -45.7 Q-3.7 -49.05 -0.65 -51.55 L1.75 -53.55 Q4.55 -55.25 7.75 -56.45 L12.35 -56.5 32.85 -56.9 32.8 -56.6 29.0 -56.5 22.25 -56.0 Q19.7 -55.7 15.85 -54.65 12.15 -54.05 11.3 -51.3 L11.25 -51.45 11.3 -54.3 11.2 -54.95 9.55 -54.95 Q6.5 -55.2 0.4 -51.05 -3.55 -48.25 -6.0 -45.7 M12.35 -56.5 Q11.75 -55.5 11.3 -54.3 11.75 -55.5 12.35 -56.5 M37.4 -59.3 L36.3 -58.7 35.0 -58.6 34.2 -58.75 Q33.85 -58.8 33.85 -59.6 33.85 -60.05 34.35 -60.65 34.85 -61.3 35.5 -61.3 L37.4 -61.15 37.4 -59.3 M20.55 59.75 L20.9 60.05 20.8 61.45 Q20.85 62.0 19.1 65.95 L16.8 70.75 16.45 69.7 Q16.0 68.8 16.0 68.15 16.15 64.05 16.75 62.0 17.5 59.25 19.65 59.65 L19.8 59.6 19.8 59.4 Q20.35 59.5 20.55 59.75 M-34.25 -73.05 L-36.65 -72.65 -37.65 -72.8 Q-37.85 -74.4 -35.3 -76.7 -32.8 -78.8 -31.0 -78.95 L-30.85 -78.95 -28.65 -78.9 -28.7 -79.05 -28.25 -79.0 Q-26.95 -78.6 -26.95 -77.65 L-27.0 -77.55 Q-27.05 -76.4 -27.85 -75.95 L-30.25 -75.0 Q-30.65 -74.75 -33.05 -73.65 L-34.1 -73.1 -34.15 -73.25 Q-33.85 -73.2 -33.75 -73.5 L-33.65 -73.7 -34.15 -73.25 -34.25 -73.05 M-43.7 -44.85 Q-43.75 -44.4 -44.15 -43.9 -44.75 -43.35 -45.6 -43.4 L-46.35 -43.4 -46.6 -44.15 Q-46.6 -44.9 -46.25 -45.45 L-43.95 -45.55 Q-43.75 -45.3 -43.7 -44.85 M-72.0 -45.15 L-71.1 -44.4 Q-69.9 -43.25 -69.95 -42.2 -69.9 -41.4 -70.5 -41.05 -71.0 -40.6 -71.5 -40.65 -72.75 -40.65 -76.65 -42.15 -80.6 -43.65 -80.6 -44.4 -80.65 -45.45 -79.3 -45.85 L-76.5 -46.3 -74.6 -46.0 Q-73.15 -45.75 -72.6 -45.15 L-72.0 -45.15" fill="#ffffff" fill-rule="evenodd" stroke="none"/>
      <path d="M116.05 -10.6 L116.2 -17.05 Q116.55 -29.7 114.55 -38.55 113.55 -43.25 112.3 -45.55 L113.05 -46.4 Q113.95 -47.45 115.05 -47.45 118.05 -47.5 120.0 -38.5 121.9 -29.5 121.6 -16.9 L121.4 -9.6 120.55 -9.75 116.05 -10.6" fill="#24160c" fill-rule="evenodd" stroke="none"/>
      <path d="M112.3 -45.55 Q113.55 -43.25 114.55 -38.55 116.55 -29.7 116.2 -17.05 L116.05 -10.6 114.35 -11.0 114.1 -11.05 110.55 -11.95 110.45 -12.0 110.6 -17.1 Q110.8 -28.45 109.35 -36.75 L109.7 -38.6 Q110.95 -43.25 112.3 -45.55" fill="#1c1009" fill-rule="evenodd" stroke="none"/>
      <path d="M109.35 -36.75 Q110.8 -28.45 110.6 -17.1 L110.45 -12.0 107.2 -12.95 107.2 -17.15 Q107.45 -28.45 109.35 -36.75" fill="#1a1008" fill-rule="evenodd" stroke="none"/>
      <path d="M110.45 -12.0 L110.55 -11.95 114.1 -11.05 114.35 -11.0 116.05 -10.6 115.9 -9.75 Q115.35 -1.8 113.75 4.35 112.6 8.95 111.4 11.2 110.0 9.0 108.95 4.3 L108.65 2.5 Q109.9 -3.6 110.45 -11.15 L110.45 -12.0" fill="#140c06" fill-rule="evenodd" stroke="none"/>
      <path d="M110.45 -12.0 L110.45 -11.15 Q109.9 -3.6 108.65 2.5 107.45 -3.85 107.25 -12.0 L107.2 -12.95 110.45 -12.0" fill="#0f0904" fill-rule="evenodd" stroke="none"/>
      <path d="M116.05 -10.6 L120.55 -9.75 121.4 -9.6 121.35 -9.25 Q120.75 -1.55 119.2 4.35 117.05 13.35 114.0 13.4 112.95 13.35 112.0 12.2 L111.4 11.2 Q112.6 8.95 113.75 4.35 115.35 -1.8 115.9 -9.75 L116.05 -10.6" fill="#1a0f08" fill-rule="evenodd" stroke="none"/>
      <path d="M50.55 21.05 L49.7 28.0 Q42.85 28.0 36.25 26.35 L34.55 25.95 Q28.25 23.85 26.75 20.1 L40.7 20.75 50.55 21.05 M49.05 34.35 Q47.85 46.0 47.65 56.7 L47.6 57.8 47.55 60.15 38.3 61.1 38.3 60.9 37.15 60.55 Q37.3 59.75 38.55 58.2 L38.85 57.45 Q39.6 55.8 39.4 53.85 39.3 52.15 40.15 50.8 45.4 42.95 48.85 34.3 L49.05 34.35 M-8.95 4.75 L-18.7 4.6 -52.0 4.05 -63.15 3.9 -67.7 3.75 Q-71.65 -9.3 -70.9 -22.65 L-70.8 -24.3 -70.05 -23.85 Q-65.7 -21.2 -60.5 -20.15 L-55.6 -18.85 -50.5 -17.8 Q-45.3 -16.65 -40.75 -16.6 -31.4 -16.5 -22.15 -18.7 L-18.4 -19.7 -14.2 -21.1 -12.5 -21.7 -12.7 -19.75 Q-12.65 -18.7 -12.75 -17.8 -12.85 -4.0 -8.95 4.75 M47.65 56.7 L45.2 56.95 38.85 57.45 45.2 56.95 47.65 56.7 M-52.0 4.05 Q-55.6 -7.35 -55.6 -18.85 -55.6 -7.35 -52.0 4.05 M-18.7 4.6 Q-22.4 -6.9 -22.15 -18.7 -22.4 -6.9 -18.7 4.6" fill="#4d2b1a" fill-rule="evenodd" stroke="none"/>
      <path d="M49.7 28.0 L49.05 33.55 48.85 34.3 Q45.4 42.95 40.15 50.8 39.3 52.15 39.4 53.85 39.6 55.8 38.85 57.45 L38.55 58.2 Q37.3 59.75 37.15 60.55 L38.3 60.9 38.3 61.1 25.25 60.65 22.55 60.2 Q21.75 57.45 21.9 56.6 22.8 47.05 27.2 38.65 28.95 35.45 31.3 32.55 33.7 29.65 34.55 25.95 L36.25 26.35 Q42.85 28.0 49.7 28.0 M-62.2 -43.6 L-57.95 -43.65 Q-57.45 -41.25 -56.6 -39.6 -55.85 -38.3 -53.1 -36.9 L-51.55 -36.2 Q-47.1 -34.5 -42.75 -34.5 -38.1 -34.45 -32.05 -36.25 -25.7 -38.1 -19.05 -41.7 L-18.05 -42.35 Q-21.95 -30.25 -22.15 -18.7 -21.95 -30.25 -18.05 -42.35 L-16.8 -42.95 -7.65 -42.75 -8.55 -40.8 Q-11.95 -33.05 -12.5 -21.7 L-14.2 -21.1 -18.4 -19.7 -22.15 -18.7 Q-31.4 -16.5 -40.75 -16.6 -45.3 -16.65 -50.5 -17.8 L-55.6 -18.85 Q-55.45 -27.85 -53.1 -36.9 -55.45 -27.85 -55.6 -18.85 L-60.5 -20.15 Q-65.7 -21.2 -70.05 -23.85 L-70.8 -24.3 Q-70.25 -30.95 -68.55 -37.65 L-66.85 -43.8 -66.75 -43.75 -62.2 -43.6 M38.85 57.45 L23.45 56.85 21.9 56.6 23.45 56.85 38.85 57.45" fill="#644332" fill-rule="evenodd" stroke="none"/>
      <path d="M20.25 57.2 L20.2 56.25 Q19.45 47.0 24.25 33.55 L24.6 32.5 Q24.9 25.45 24.1 20.0 L26.75 20.1 Q28.25 23.85 34.55 25.95 33.7 29.65 31.3 32.55 28.95 35.45 27.2 38.65 22.8 47.05 21.9 56.6 21.75 57.45 22.55 60.2 L20.8 59.75 Q20.65 59.8 20.6 59.65 L20.25 57.2 M-57.95 -43.65 L-51.15 -43.55 -48.1 -43.4 -48.2 -43.0 -41.05 -42.05 -35.3 -42.0 -35.2 -42.1 -28.9 -42.65 -29.0 -43.2 -17.8 -42.95 -18.05 -42.35 -19.05 -41.7 Q-25.7 -38.1 -32.05 -36.25 -38.1 -34.45 -42.75 -34.5 -47.1 -34.5 -51.55 -36.2 L-53.1 -36.9 -51.15 -43.55 -53.1 -36.9 Q-55.85 -38.3 -56.6 -39.6 -57.45 -41.25 -57.95 -43.65 M20.2 56.25 L21.9 56.6 20.2 56.25" fill="#825e4c" fill-rule="evenodd" stroke="none"/>
      <path d="M41.65 -62.05 L45.5 -62.1 46.1 -62.1 46.05 -63.15 46.1 -63.4 46.05 -64.2 Q45.85 -70.2 41.7 -74.45 37.1 -79.2 30.7 -79.25 L21.0 -79.45 -26.6 -80.25 Q-33.1 -80.35 -37.7 -75.85 -42.4 -71.4 -42.55 -64.9 L-42.55 -64.7 -42.8 -48.2 Q-47.7 -48.15 -48.1 -43.4 L-51.15 -43.55 -53.1 -36.9 Q-55.45 -27.85 -55.6 -18.85 -55.6 -7.35 -52.0 4.05 L-63.15 3.9 -63.7 6.8 Q-72.85 9.6 -81.85 8.25 L-82.1 8.25 Q-85.4 7.6 -89.05 6.35 L-90.25 2.8 Q-99.2 13.3 -105.55 18.55 -114.95 26.05 -118.75 22.6 L-119.2 22.15 -121.6 14.2 Q-123.45 8.0 -124.6 1.7 -126.25 -8.1 -126.25 -18.2 L-126.1 -25.45 Q-125.75 -31.8 -124.8 -38.2 -124.15 -42.85 -123.1 -47.5 L-123.05 -47.55 -123.0 -47.9 -120.15 -58.35 -117.75 -65.3 -117.15 -65.85 Q-113.25 -69.35 -104.2 -61.35 -97.9 -55.75 -88.95 -44.6 L-88.05 -46.95 Q-74.95 -50.1 -62.7 -46.5 L-62.2 -43.6 -57.95 -43.65 -51.15 -43.55 M-23.1 -73.55 L-21.3 -73.55 26.55 -72.8 29.3 -72.35 Q32.8 -71.6 35.25 -68.65 37.9 -65.65 38.45 -63.25 L38.65 -62.25 40.35 -62.1 41.65 -62.05 M40.3 -55.7 Q42.9 -55.65 45.3 -55.75 48.9 -55.95 52.0 -56.8 L52.0 -57.15 69.15 -57.0 76.9 -56.85 91.75 -56.55 99.3 -56.3 Q117.05 -55.7 118.85 -53.85 L120.6 -51.9 Q122.0 -49.0 123.0 -45.9 124.9 -40.5 125.9 -34.05 M48.85 -62.2 L47.3 -62.1 46.1 -62.1 M46.05 -63.15 L46.7 -63.1 Q52.1 -63.1 52.05 -57.65 L52.0 -57.15 M125.8 -34.0 Q126.95 -26.6 126.8 -18.15 L126.35 -9.8 126.3 -9.25 Q124.9 5.05 119.25 15.8 117.9 18.75 116.2 21.1 L112.6 21.5 99.95 21.7 83.65 21.75 77.0 21.65 67.65 21.45 67.8 22.8 Q67.75 23.95 67.1 24.85 66.35 25.65 65.3 25.6 65.45 28.95 67.45 32.1 67.85 33.25 67.65 34.0 67.55 35.05 66.6 35.6 64.8 36.25 62.1 35.0 60.8 34.3 59.35 33.2 56.65 30.7 55.05 25.5 L54.95 25.45 Q53.85 25.4 53.1 24.6 52.3 23.6 52.4 22.4 52.4 21.65 52.7 21.1 L50.55 21.05 49.7 28.0 49.05 33.55 49.05 34.35 Q47.85 46.0 47.65 56.7 L47.6 57.8 50.1 59.8 Q53.05 62.9 52.75 67.35 L52.7 70.8 Q52.45 75.25 49.1 78.1 46.05 80.9 42.0 80.5 L33.85 79.55 27.5 78.8 20.3 77.95 Q17.2 77.7 15.35 74.85 13.3 72.2 13.4 68.6 L13.55 65.8 Q13.75 62.2 16.0 59.7 17.8 57.6 20.25 57.2 L20.2 56.25 Q19.45 47.0 24.25 33.55 L24.6 32.5 Q24.9 25.45 24.1 20.0 L13.05 19.35 8.05 19.05 6.5 18.85 Q-3.55 15.75 -8.3 6.3 L-8.95 4.75 -18.7 4.6 -52.0 4.05 M-6.0 -45.7 Q-3.7 -49.05 -0.65 -51.55 L1.75 -53.55 Q4.55 -55.25 7.75 -56.45 L12.35 -56.5 32.85 -56.9 32.85 -57.95 Q32.9 -63.35 38.45 -63.25 M-6.0 -45.7 L-7.65 -42.75 -8.55 -40.8 Q-11.95 -33.05 -12.5 -21.7 L-12.7 -19.75 Q-12.65 -18.7 -12.75 -17.8 -12.85 -4.0 -8.95 4.75 M3.7 -22.25 L3.75 -23.7 M3.7 -23.8 Q4.25 -34.05 6.6 -42.45 8.35 -48.85 11.2 -54.35 L11.3 -54.3 Q11.75 -55.5 12.35 -56.5 M32.8 -56.6 L32.85 -56.9 M38.65 -62.25 L36.9 -62.45 M40.3 -55.7 L32.9 -56.55 32.8 -56.6 M3.7 -22.25 L3.65 -20.4 Q3.55 -16.6 3.75 -13.0 L4.1 -9.05 Q4.25 -6.5 4.7 -3.85 5.4 0.8 6.65 5.05 8.05 9.7 10.0 13.75 L13.05 19.35 M91.8 2.6 Q90.75 -2.25 90.25 -7.4 89.75 -12.9 89.8 -19.0 L90.15 -24.6 90.1 -25.0 Q90.9 -35.6 93.8 -44.35 L93.9 -44.6 94.55 -46.65 97.5 -52.85 99.3 -56.3 M112.3 -45.55 Q113.55 -43.25 114.55 -38.55 116.55 -29.7 116.2 -17.05 L116.05 -10.6 115.9 -9.75 Q115.35 -1.8 113.75 4.35 112.6 8.95 111.4 11.2 L112.0 12.2 Q112.95 13.35 114.0 13.4 117.05 13.35 119.2 4.35 120.75 -1.55 121.35 -9.25 L121.4 -9.6 121.6 -16.9 Q121.9 -29.5 120.0 -38.5 118.05 -47.5 115.05 -47.45 113.95 -47.45 113.05 -46.4 L112.3 -45.55 Q110.95 -43.25 109.7 -38.6 L109.35 -36.75 Q110.8 -28.45 110.6 -17.1 L110.45 -12.0 110.45 -11.15 Q109.9 -3.6 108.65 2.5 L108.95 4.3 Q110.0 9.0 111.4 11.2 M107.2 -12.95 L107.2 -17.15 Q107.45 -28.45 109.35 -36.75 M108.65 2.5 Q107.45 -3.85 107.25 -12.0 L107.2 -12.95 M91.8 2.6 Q93.4 9.45 96.25 15.25 98.0 18.9 99.95 21.7 M67.65 21.45 L65.65 21.5 64.65 21.5 53.9 21.2 52.7 21.1 M62.35 26.1 L65.25 25.7 65.3 25.6 M55.6 25.6 L57.95 26.05 62.35 26.1 M26.75 20.1 L40.7 20.75 50.55 21.05 M55.35 25.55 L55.6 25.6 M55.35 25.55 L55.05 25.5 M26.75 20.1 L24.1 20.0 M21.9 56.6 L23.45 56.85 38.85 57.45 45.2 56.95 47.65 56.7 M20.8 59.75 Q20.65 59.8 20.6 59.65 L20.25 57.2 M20.8 59.75 L22.55 60.2 25.25 60.65 38.3 61.1 47.55 60.15 47.6 57.8 M21.9 56.6 L20.2 56.25 M-105.7 -56.95 L-104.2 -61.35 M-107.15 -52.55 L-105.8 -56.85 -105.7 -56.95 M-90.3 -41.35 L-88.95 -44.6 M-94.05 -24.2 Q-93.3 -32.45 -90.4 -41.05 L-90.3 -41.35 M-68.55 -37.65 L-66.85 -43.8 -66.75 -44.1 -66.4 -45.15 M-94.05 -24.2 L-94.35 -20.65 -94.1 -17.55 Q-93.5 -6.75 -90.25 2.8 M-111.65 -18.1 Q-111.7 -27.75 -110.25 -37.35 -109.1 -45.1 -107.15 -52.55 M-24.8 -73.2 L-23.1 -73.55 M-24.8 -73.2 Q-28.0 -72.4 -30.65 -69.8 -34.6 -65.95 -34.6 -60.55 L-34.7 -60.3 -34.9 -48.0 -34.35 -48.05 Q-29.2 -47.9 -29.0 -43.2 L-17.8 -42.95 -16.8 -42.95 -7.65 -42.75 M-38.6 -47.0 L-36.7 -47.0 -34.85 -47.0 -34.9 -47.35 -34.85 -47.65 -34.9 -48.0 M-40.55 -47.05 L-38.6 -47.0 M-41.05 -42.05 L-35.3 -42.0 -35.2 -42.1 -28.9 -42.65 -29.0 -43.2 M-40.55 -47.05 L-42.8 -47.2 -44.65 -47.3 M-42.8 -47.2 L-42.8 -48.2 M-41.05 -42.05 L-48.2 -43.0 -48.1 -43.4 M-18.05 -42.35 L-17.8 -42.95 M-22.15 -18.7 Q-21.95 -30.25 -18.05 -42.35 M-66.85 -43.8 L-66.75 -43.75 -62.2 -43.6 M-70.8 -24.3 L-70.9 -22.65 Q-71.65 -9.3 -67.7 3.75 L-63.15 3.9 M-68.55 -37.65 Q-70.25 -30.95 -70.8 -24.3 M-34.85 -47.0 L-34.8 -47.05 -32.4 -47.1 M-22.15 -18.7 Q-22.4 -6.9 -18.7 4.6 M-67.7 3.75 L-67.45 4.55 -67.25 5.4 M-105.55 18.55 L-107.25 13.3 Q-108.95 7.3 -109.95 1.25 -111.7 -8.4 -111.65 -18.1" fill="none" stroke="#000000" stroke-linecap="round" stroke-linejoin="round" stroke-opacity="0.65882355" stroke-width="2.0"/>
      <path d="M75.1 -49.2 Q75.1 -51.45 77.6 -53.05 80.1 -54.65 83.6 -54.65 87.1 -54.65 89.6 -53.05 92.1 -51.45 92.1 -49.2 92.1 -46.95 89.6 -45.35 87.1 -43.75 83.6 -43.75 80.1 -43.75 77.6 -45.35 75.1 -46.95 75.1 -49.2" fill="#ffffff" fill-rule="evenodd" stroke="none"/>
      <path d="M6.0 -50.75 Q6.15 -48.85 5.55 -46.45 4.9 -44.05 3.8 -42.55 2.65 -41.0 1.75 -41.25 0.8 -41.5 0.6 -43.4 0.4 -45.25 1.05 -47.65 1.65 -50.05 2.8 -51.6 3.9 -53.1 4.85 -52.85 5.75 -52.6 6.0 -50.75" fill="#ffffff" fill-rule="evenodd" stroke="none"/>
    </g>
    <g id="sprite0" transform="matrix(1.0, 0.0, 0.0, 1.0, 322.95, 203.5)">
      <use height="407.0" transform="matrix(1.0, 0.0, 0.0, 1.0, -322.95, -203.5)" width="645.9" xlink:href="#shape2"/>
    </g>
    <g id="shape2" transform="matrix(1.0, 0.0, 0.0, 1.0, 322.95, 203.5)">
      <path d="M95.45 -163.05 Q93.75 -169.3 86.95 -176.85 80.5 -184.05 71.4 -185.95 L64.4 -186.65 -57.7 -186.65 -57.8 -187.55 -57.85 -187.55 -62.2 -186.75 -62.15 -186.35 -66.4 -185.55 -70.75 -184.75 -70.45 -184.15 Q-76.35 -181.7 -81.25 -176.75 -91.0 -166.8 -91.0 -152.8 L-91.0 -152.35 -91.0 -120.9 -91.05 -120.95 -91.0 -119.85 -91.0 -118.3 -95.7 -118.1 -100.25 -118.05 -105.35 -118.1 -111.2 -118.4 -111.2 -120.9 -111.2 -163.0 -111.2 -163.5 Q-111.2 -180.05 -99.5 -191.8 -87.75 -203.5 -71.2 -203.5 L74.85 -203.5 Q91.4 -203.5 103.1 -191.8 114.05 -180.85 114.8 -165.7 L114.85 -163.5 114.85 -163.05 114.95 -160.3 113.7 -160.25 103.4 -160.1 100.4 -160.2 95.9 -160.45 95.45 -163.05 M-82.1 -200.05 L-82.15 -200.05 -82.65 -199.95 -82.15 -200.0 -82.1 -200.0 -82.1 -200.05" fill="url(#gradient0)" fill-rule="evenodd" stroke="none"/>
      <path d="M309.2 -29.05 Q308.05 -9.2 304.4 6.3 299.05 29.1 291.35 29.1 288.65 29.1 286.3 26.35 L284.45 23.8 Q281.05 18.1 278.25 6.3 L277.2 1.55 Q273.9 -14.6 273.1 -35.15 L273.05 -37.55 272.85 -48.5 Q272.85 -77.35 277.2 -98.5 L278.25 -103.35 Q281.05 -115.1 284.45 -120.8 L286.3 -123.35 Q288.65 -126.1 291.35 -126.1 299.05 -126.1 304.4 -103.35 309.75 -80.65 309.75 -48.5 309.75 -38.65 309.25 -29.7 L309.2 -29.05" fill="url(#gradient1)" fill-rule="evenodd" stroke="none"/>
      <path d="M-57.7 -186.65 L-57.8 -186.65 -62.15 -186.35 -62.2 -186.75 -57.85 -187.55 -57.8 -187.55 -57.7 -186.65" fill="url(#gradient2)" fill-rule="evenodd" stroke="none"/>
      <path d="M-66.4 -185.55 L-70.45 -184.15 -70.75 -184.75 -66.4 -185.55" fill="url(#gradient3)" fill-rule="evenodd" stroke="none"/>
      <path d="M161.55 63.8 L160.45 63.95 161.45 63.05 161.55 63.8" fill="url(#gradient4)" fill-rule="evenodd" stroke="none"/>
      <path d="M141.55 63.25 L141.4 62.75 142.3 62.95 141.55 63.25" fill="url(#gradient5)" fill-rule="evenodd" stroke="none"/>
      <path d="M52.4 151.0 L53.05 151.45 52.35 151.4 52.4 151.0" fill="url(#gradient6)" fill-rule="evenodd" stroke="none"/>
      <path d="M173.5 52.05 Q174.0 53.45 174.0 55.1 174.0 58.25 172.1 60.5 170.25 62.65 167.6 62.7 L167.5 62.7 161.55 63.8 161.45 63.05 160.45 63.95 Q154.7 64.55 148.9 64.0 L143.0 63.1 142.4 62.5 142.3 62.95 141.4 62.75 141.25 62.7 Q138.5 62.7 136.6 60.5 134.7 58.25 134.7 55.1 134.7 53.3 135.35 51.8 L138.45 51.85 165.85 52.05 168.4 52.05 173.5 52.05" fill="url(#gradient7)" fill-rule="evenodd" stroke="none"/>
      <path d="M81.35 -146.55 L81.35 -149.05 Q81.35 -163.05 95.35 -163.05 L95.45 -163.05 95.9 -160.45 100.4 -160.2 103.4 -160.1 113.7 -160.25 114.95 -160.3 114.85 -163.05 116.35 -163.05 116.5 -163.05 Q130.35 -163.0 130.35 -149.05 L130.35 -147.8 130.35 -146.8 Q122.5 -144.6 113.15 -143.95 107.05 -143.55 100.35 -143.75 L81.35 -145.55 81.35 -146.55 M-160.95 12.7 L-160.85 12.75 -162.2 20.35 Q-185.35 27.8 -208.45 24.6 L-208.45 24.5 -208.85 24.55 Q-217.8 23.25 -226.7 20.35 L-230.2 11.25 Q-238.75 -12.9 -240.9 -40.55 L-241.4 -48.45 -241.0 -57.45 Q-239.45 -78.55 -232.3 -100.4 L-232.05 -101.25 -229.0 -109.85 -226.7 -115.8 Q-193.5 -124.3 -162.2 -115.8 L-160.75 -108.65 -172.2 -108.65 -172.2 -109.5 -172.45 -108.65 Q-174.85 -100.8 -176.6 -93.05 -180.55 -75.8 -181.6 -58.8 L-181.8 -54.6 Q-183.15 -20.4 -172.55 12.7 L-160.95 12.7 M-187.2 -112.0 L-185.6 -112.0 -186.55 -112.75 -187.2 -112.0" fill="url(#gradient8)" fill-rule="evenodd" stroke="none"/>
      <path d="M123.9 145.6 Q127.4 147.4 130.45 150.55 138.05 158.35 137.7 169.65 L137.45 178.4 Q137.0 189.7 128.9 197.1 121.0 204.35 110.65 203.4 L73.8 199.95 73.6 199.85 73.6 199.95 55.25 198.2 Q47.45 197.45 42.3 190.45 37.2 183.6 37.5 174.5 L37.75 167.45 Q37.95 158.3 43.45 151.85 48.05 146.35 54.2 145.15 54.6 148.45 55.3 151.55 L55.2 151.65 55.7 152.4 55.85 151.7 60.3 152.65 67.25 153.8 Q82.45 155.8 100.55 154.45 111.65 153.65 123.85 151.55 L123.9 145.6 M53.05 151.45 L53.15 150.95 52.4 151.0 52.35 151.4 53.05 151.45" fill="url(#gradient9)" fill-rule="evenodd" stroke="none"/>
      <path d="M-91.0 -120.9 L-89.7 -120.9 Q-76.6 -120.9 -75.75 -108.65 L-75.7 -107.4 -91.45 -105.65 -91.7 -105.65 Q-99.35 -105.25 -106.75 -105.5 -115.85 -105.9 -124.7 -107.4 L-124.65 -108.65 Q-123.8 -120.65 -111.2 -120.9 L-111.2 -118.4 -105.35 -118.1 -100.25 -118.05 -95.7 -118.1 -91.0 -118.3 -90.9 -118.3 -90.9 -118.45 -91.0 -119.85 -91.0 -120.9" fill="url(#gradient10)" fill-rule="evenodd" stroke="none"/>
      <path d="M-230.2 11.25 Q-252.6 38.35 -268.65 51.9 L-272.9 38.65 Q-277.65 23.5 -280.6 8.05 -285.3 -16.4 -285.75 -41.1 -286.15 -65.85 -283.05 -90.4 -280.55 -110.2 -275.4 -129.45 L-272.25 -140.45 -272.25 -140.55 -268.6 -151.8 Q-252.15 -137.95 -229.0 -109.85 L-232.05 -101.25 -232.3 -100.4 Q-239.45 -78.55 -241.0 -57.45 L-241.4 -48.45 -240.9 -40.55 Q-238.75 -12.9 -230.2 11.25" fill="url(#gradient11)" fill-rule="evenodd" stroke="none"/>
      <path d="M-268.65 51.9 Q-292.05 71.7 -301.9 62.85 L-303.15 61.6 -309.65 41.65 Q-314.55 26.0 -317.65 9.95 -322.45 -15.25 -322.9 -40.8 -323.05 -49.95 -322.75 -59.1 -322.2 -75.45 -320.1 -91.7 -318.6 -103.8 -316.15 -115.6 L-315.75 -116.75 -315.9 -116.75 Q-313.05 -130.3 -309.0 -143.5 L-303.05 -161.5 -301.8 -162.75 Q-291.95 -171.55 -268.6 -151.8 L-272.25 -140.55 -272.3 -140.5 -272.25 -140.45 -275.4 -129.45 Q-280.55 -110.2 -283.05 -90.4 -286.15 -65.85 -285.75 -41.1 -285.3 -16.4 -280.6 8.05 -277.65 23.5 -272.9 38.65 L-268.65 51.9" fill="url(#gradient12)" fill-rule="evenodd" stroke="none"/>
      <path d="M-75.75 -108.65 L-47.35 -108.65 -47.9 -107.0 -44.85 -108.65 -21.3 -108.65 -23.6 -103.55 Q-31.9 -83.5 -33.0 -54.65 L-33.15 -49.6 -33.2 -44.5 Q-33.0 -9.55 -22.7 12.7 L-160.45 12.7 Q-160.7 12.5 -160.95 12.7 L-172.55 12.7 Q-183.15 -20.4 -181.8 -54.6 L-181.6 -58.8 Q-180.55 -75.8 -176.6 -93.05 -174.85 -100.8 -172.45 -108.65 L-172.2 -108.65 -160.75 -108.65 -124.65 -108.65 -124.7 -107.4 Q-115.85 -105.9 -106.75 -105.5 -99.35 -105.25 -91.7 -105.65 L-91.45 -105.6 -91.45 -105.65 -75.7 -107.4 -75.75 -108.65" fill="url(#gradient13)" fill-rule="evenodd" stroke="none"/>
      <path d="M-21.3 -108.65 Q-14.65 -122.35 -4.2 -131.45 -1.1 -134.15 2.35 -136.45 9.15 -141.05 17.3 -144.0 L29.2 -144.55 26.2 -138.95 Q19.25 -124.95 15.0 -108.65 9.35 -86.9 8.5 -61.05 L8.5 -60.5 8.4 -56.8 8.35 -52.05 Q8.35 -42.35 9.0 -33.2 L9.9 -23.3 Q10.65 -16.6 11.8 -10.15 13.9 1.8 17.35 12.7 21.0 24.4 26.2 34.85 30.1 42.7 34.35 48.85 L21.5 48.25 17.3 48.05 Q-8.2 40.4 -20.8 16.6 L-22.7 12.7 Q-33.0 -9.55 -33.2 -44.5 L-33.15 -49.6 -33.0 -54.65 Q-31.9 -83.5 -23.6 -103.55 L-21.3 -108.65" fill="url(#gradient14)" fill-rule="evenodd" stroke="none"/>
      <path d="M167.6 62.7 Q168.5 71.2 173.6 79.2 174.6 82.0 174.25 84.05 173.8 86.45 171.55 87.9 166.95 89.7 159.95 86.45 156.55 84.85 152.65 82.15 145.9 75.85 141.55 63.25 L142.3 62.95 143.0 63.1 148.9 64.0 Q154.7 64.55 160.45 63.95 L161.55 63.8 167.5 62.7 167.6 62.7" fill="url(#gradient15)" fill-rule="evenodd" stroke="none"/>
      <path d="M29.2 -144.55 L81.35 -146.55 81.35 -145.55 100.35 -143.75 Q107.05 -143.55 113.15 -143.95 122.5 -144.6 130.35 -146.8 L130.35 -147.8 Q183.65 -148.8 231.4 -148.05 L251.1 -147.85 Q248.6 -143.75 246.2 -138.95 242.4 -131.3 239.45 -123.0 L237.65 -117.7 235.95 -115.9 237.45 -117.1 Q230.35 -94.65 228.8 -67.6 L228.75 -66.6 Q228.35 -59.5 228.35 -52.05 228.35 -36.75 229.95 -22.8 231.5 -9.5 234.5 2.6 238.85 20.0 246.2 34.85 250.85 44.15 255.95 51.1 L214.4 51.85 173.5 52.05 168.4 52.05 165.85 52.05 138.45 51.85 135.35 51.8 130.0 51.7 Q99.8 51.25 69.1 50.2 L62.3 50.0 34.35 48.85 Q30.1 42.7 26.2 34.85 21.0 24.4 17.35 12.7 13.9 1.8 11.8 -10.15 10.65 -16.6 9.9 -23.3 L9.0 -33.2 Q8.35 -42.35 8.35 -52.05 L8.4 -56.8 8.5 -60.5 8.5 -61.05 Q9.35 -86.9 15.0 -108.65 19.25 -124.95 26.2 -138.95 L29.2 -144.55" fill="url(#gradient16)" fill-rule="evenodd" stroke="none"/>
      <path d="M130.0 51.7 L128.1 69.4 126.8 83.6 126.25 85.45 126.65 85.5 Q124.2 115.25 123.9 142.7 L123.9 145.6 123.85 151.55 Q111.65 153.65 100.55 154.45 82.45 155.8 67.25 153.8 L60.3 152.65 55.85 151.7 55.3 151.55 Q54.6 148.45 54.2 145.15 L53.95 142.75 Q51.75 118.3 64.3 82.05 64.75 63.95 62.3 50.0 L69.1 50.2 Q99.8 51.25 130.0 51.7" fill="url(#gradient17)" fill-rule="evenodd" stroke="none"/>
      <path d="M237.65 -117.7 L239.45 -123.0 Q242.4 -131.3 246.2 -138.95 248.6 -143.75 251.1 -147.85 296.15 -147.1 300.85 -142.5 L305.55 -137.6 Q309.1 -130.4 311.85 -122.6 316.9 -108.5 319.7 -92.45 L319.75 -92.1 Q322.95 -73.2 322.95 -51.65 322.95 -40.7 322.15 -30.4 L322.0 -29.0 Q318.85 7.55 305.1 35.25 301.35 42.7 297.35 48.7 L288.4 50.05 255.95 51.1 Q250.85 44.15 246.2 34.85 238.85 20.0 234.5 2.6 231.5 -9.5 229.95 -22.8 228.35 -36.75 228.35 -52.05 228.35 -59.5 228.75 -66.6 L229.25 -67.3 228.8 -67.6 Q230.35 -94.65 237.45 -117.1 L237.85 -117.45 237.65 -117.7 M309.25 -29.7 Q309.75 -38.65 309.75 -48.5 309.75 -80.65 304.4 -103.35 299.05 -126.1 291.35 -126.1 288.65 -126.1 286.3 -123.35 L284.45 -120.8 Q281.05 -115.1 278.25 -103.35 L277.2 -98.5 Q272.85 -77.35 272.85 -48.5 L273.05 -37.55 273.1 -35.15 Q273.9 -14.6 277.2 1.55 L278.25 6.3 Q281.05 18.1 284.45 23.8 L286.3 26.35 Q288.65 29.1 291.35 29.1 299.05 29.1 304.4 6.3 308.05 -9.2 309.2 -29.05 L309.3 -29.7 309.25 -29.7" fill="url(#gradient18)" fill-rule="evenodd" stroke="none"/>
    </g>
    <radialGradient cx="0" cy="0" gradientTransform="matrix(0.1475, 0.0, 0.0, 0.1475, 1.9, -160.75)" gradientUnits="userSpaceOnUse" id="gradient0" r="819.2" spreadMethod="pad">
      <stop offset="0.0" stop-color="#000000" stop-opacity="0.6117647"/>
      <stop offset="1.0" stop-color="#000000" stop-opacity="0.0"/>
    </radialGradient>
    <radialGradient cx="0" cy="0" gradientTransform="matrix(0.0961, 0.0, 0.0, 0.0961, 291.3, -48.5)" gradientUnits="userSpaceOnUse" id="gradient1" r="819.2" spreadMethod="pad">
      <stop offset="0.0" stop-color="#000000" stop-opacity="0.6117647"/>
      <stop offset="1.0" stop-color="#000000" stop-opacity="0.0"/>
    </radialGradient>
    <radialGradient cx="0" cy="0" gradientTransform="matrix(0.0028, 0.0, 0.0, 0.0028, -59.95, -186.95)" gradientUnits="userSpaceOnUse" id="gradient2" r="819.2" spreadMethod="pad">
      <stop offset="0.0" stop-color="#000000" stop-opacity="0.6117647"/>
      <stop offset="1.0" stop-color="#000000" stop-opacity="0.0"/>
    </radialGradient>
    <radialGradient cx="0" cy="0" gradientTransform="matrix(0.0029, 0.0, 0.0, 0.0029, -68.55, -184.85)" gradientUnits="userSpaceOnUse" id="gradient3" r="819.2" spreadMethod="pad">
      <stop offset="0.0" stop-color="#000000" stop-opacity="0.6117647"/>
      <stop offset="1.0" stop-color="#000000" stop-opacity="0.0"/>
    </radialGradient>
    <radialGradient cx="0" cy="0" gradientTransform="matrix(9.0E-4, 0.0, 0.0, 9.0E-4, 161.0, 63.5)" gradientUnits="userSpaceOnUse" id="gradient4" r="819.2" spreadMethod="pad">
      <stop offset="0.0" stop-color="#000000" stop-opacity="0.6117647"/>
      <stop offset="1.0" stop-color="#000000" stop-opacity="0.0"/>
    </radialGradient>
    <radialGradient cx="0" cy="0" gradientTransform="matrix(7.0E-4, 0.0, 0.0, 7.0E-4, 141.85, 63.0)" gradientUnits="userSpaceOnUse" id="gradient5" r="819.2" spreadMethod="pad">
      <stop offset="0.0" stop-color="#000000" stop-opacity="0.6117647"/>
      <stop offset="1.0" stop-color="#000000" stop-opacity="0.0"/>
    </radialGradient>
    <radialGradient cx="0" cy="0" gradientTransform="matrix(5.0E-4, 0.0, 0.0, 5.0E-4, 52.7, 151.25)" gradientUnits="userSpaceOnUse" id="gradient6" r="819.2" spreadMethod="pad">
      <stop offset="0.0" stop-color="#000000" stop-opacity="0.6117647"/>
      <stop offset="1.0" stop-color="#000000" stop-opacity="0.0"/>
    </radialGradient>
    <radialGradient cx="0" cy="0" gradientTransform="matrix(0.0251, 0.0, 0.0, 0.0251, 164.05, 59.05)" gradientUnits="userSpaceOnUse" id="gradient7" r="819.2" spreadMethod="pad">
      <stop offset="0.0" stop-color="#ffcc00"/>
      <stop offset="1.0" stop-color="#ffc900" stop-opacity="0.0"/>
    </radialGradient>
    <radialGradient cx="0" cy="0" gradientTransform="matrix(0.0946, 0.0, 0.0, 0.0946, -203.05, -27.0)" gradientUnits="userSpaceOnUse" id="gradient8" r="819.2" spreadMethod="pad">
      <stop offset="0.0" stop-color="#ffcc00"/>
      <stop offset="1.0" stop-color="#ffc900" stop-opacity="0.0"/>
    </radialGradient>
    <radialGradient cx="0" cy="0" gradientTransform="matrix(0.0658, 0.0, 0.0, 0.0658, 95.0, 178.05)" gradientUnits="userSpaceOnUse" id="gradient9" r="819.2" spreadMethod="pad">
      <stop offset="0.0" stop-color="#ffcc00"/>
      <stop offset="1.0" stop-color="#e3b602" stop-opacity="0.0"/>
    </radialGradient>
    <radialGradient cx="0" cy="0" gradientTransform="matrix(0.0221, 0.0, 0.0, 0.0221, -92.75, -110.55)" gradientUnits="userSpaceOnUse" id="gradient10" r="819.2" spreadMethod="pad">
      <stop offset="0.0" stop-color="#ffcc00"/>
      <stop offset="1.0" stop-color="#fdcf1c" stop-opacity="0.0"/>
    </radialGradient>
    <linearGradient gradientTransform="matrix(0.0, -0.0941, 0.1243, 0.0, -254.1, -38.0)" gradientUnits="userSpaceOnUse" id="gradient11" spreadMethod="pad" x1="-819.2" x2="819.2">
      <stop offset="0.0" stop-color="#000000" stop-opacity="0.0"/>
      <stop offset="0.3843137254901961" stop-color="#000000" stop-opacity="0.6117647"/>
      <stop offset="1.0" stop-color="#000000" stop-opacity="0.0"/>
    </linearGradient>
    <linearGradient gradientTransform="matrix(0.0, -0.1111, 0.141, 0.0, -286.8, -24.0)" gradientUnits="userSpaceOnUse" id="gradient12" spreadMethod="pad" x1="-819.2" x2="819.2">
      <stop offset="0.0" stop-color="#000000" stop-opacity="0.0"/>
      <stop offset="0.35294117647058826" stop-color="#000000" stop-opacity="0.6"/>
      <stop offset="1.0" stop-color="#000000" stop-opacity="0.0"/>
    </linearGradient>
    <linearGradient gradientTransform="matrix(0.0, -0.0549, 0.0741, 0.0, -94.0, -43.0)" gradientUnits="userSpaceOnUse" id="gradient13" spreadMethod="pad" x1="-819.2" x2="819.2">
      <stop offset="0.0" stop-color="#007ba1" stop-opacity="0.4"/>
      <stop offset="0.33725490196078434" stop-color="#614727" stop-opacity="0.6117647"/>
      <stop offset="1.0" stop-color="#f2e5b8" stop-opacity="0.7411765"/>
    </linearGradient>
    <linearGradient gradientTransform="matrix(0.0, -0.1103, 0.118, 0.0, 6.45, -58.05)" gradientUnits="userSpaceOnUse" id="gradient14" spreadMethod="pad" x1="-819.2" x2="819.2">
      <stop offset="0.0" stop-color="#000000" stop-opacity="0.0"/>
      <stop offset="0.22745098039215686" stop-color="#2a3019" stop-opacity="0.7019608"/>
      <stop offset="1.0" stop-color="#000000" stop-opacity="0.0"/>
    </linearGradient>
    <radialGradient cx="0" cy="0" gradientTransform="matrix(0.0331, 0.0, 0.0, 0.0331, 164.75, 74.6)" gradientUnits="userSpaceOnUse" id="gradient15" r="819.2" spreadMethod="pad">
      <stop offset="0.0" stop-color="#000000" stop-opacity="0.6117647"/>
      <stop offset="1.0" stop-color="#000000" stop-opacity="0.0"/>
    </radialGradient>
    <linearGradient gradientTransform="matrix(0.0, -0.0977, 0.1223, 0.0, 135.2, -39.05)" gradientUnits="userSpaceOnUse" id="gradient16" spreadMethod="pad" x1="-819.2" x2="819.2">
      <stop offset="0.0" stop-color="#000000" stop-opacity="0.0"/>
      <stop offset="0.16470588235294117" stop-color="#000000" stop-opacity="0.6117647"/>
      <stop offset="1.0" stop-color="#000000" stop-opacity="0.0"/>
    </linearGradient>
    <linearGradient gradientTransform="matrix(-0.0119, 0.045, -0.0618, -0.0164, 91.8, 102.2)" gradientUnits="userSpaceOnUse" id="gradient17" spreadMethod="pad" x1="-819.2" x2="819.2">
      <stop offset="0.0" stop-color="#1c140b" stop-opacity="0.56078434"/>
      <stop offset="0.25098039215686274" stop-color="#644a2a" stop-opacity="0.6117647"/>
      <stop offset="1.0" stop-color="#f2e5b8" stop-opacity="0.7411765"/>
    </linearGradient>
    <linearGradient gradientTransform="matrix(-2.0E-4, -0.0677, 0.1212, -3.0E-4, 283.95, -29.05)" gradientUnits="userSpaceOnUse" id="gradient18" spreadMethod="pad" x1="-819.2" x2="819.2">
      <stop offset="0.0" stop-color="#605d2b"/>
      <stop offset="0.23921568627450981" stop-color="#000000" stop-opacity="0.6117647"/>
      <stop offset="1.0" stop-color="#000000" stop-opacity="0.0"/>
    </linearGradient>
    <g id="shape3" transform="matrix(1.0, 0.0, 0.0, 1.0, 76.8, 38.05)">
      <path d="M36.8 -18.3 L36.15 -18.35 34.1 -18.25 33.25 -18.25 32.9 -18.3 32.75 -18.3 32.15 -18.5 32.1 -18.65 32.55 -18.8 33.2 -18.9 33.3 -18.9 33.35 -18.95 34.1 -19.1 34.8 -19.2 37.55 -19.7 38.05 -20.0 Q39.7 -20.95 40.05 -21.65 L40.2 -23.3 Q40.25 -24.6 39.75 -26.4 39.25 -28.55 38.4 -29.35 L36.05 -29.75 35.65 -29.7 31.1 -28.7 30.85 -28.65 26.45 -27.95 22.2 -27.7 15.2 -28.95 15.05 -29.0 10.3 -30.25 Q9.35 -30.35 9.25 -30.85 9.1 -31.55 9.1 -32.45 L9.1 -32.7 7.75 -32.9 5.6 -33.0 Q4.0 -33.1 2.75 -32.45 1.4 -31.8 0.8 -31.05 0.3 -30.5 0.25 -29.9 L0.25 -29.7 3.8 -28.55 4.85 -28.2 4.9 -28.1 4.0 -27.9 3.0 -27.8 Q-0.25 -27.85 -9.55 -31.8 -15.6 -34.4 -19.55 -35.3 L-23.15 -35.85 -31.5 -35.5 -35.5 -35.2 -36.2 -35.2 -36.35 -35.65 -36.1 -35.8 -34.9 -36.25 Q-32.4 -37.05 -26.25 -37.35 L-26.1 -37.35 -25.7 -37.4 -22.9 -37.45 -22.95 -37.7 -22.95 -37.75 -21.3 -37.85 -21.15 -37.85 -21.05 -38.05 -21.35 -37.25 -19.35 -36.9 -15.5 -35.85 Q-12.3 -34.8 -7.6 -32.6 -6.45 -31.95 -1.15 -30.15 L-0.65 -31.25 0.4 -32.5 1.1 -33.0 Q5.25 -34.6 8.75 -33.65 L9.9 -33.3 9.95 -33.2 9.85 -32.45 9.9 -31.75 9.95 -31.1 10.3 -31.05 15.15 -30.5 15.35 -30.4 Q18.95 -29.35 22.2 -29.1 L26.45 -29.3 26.7 -29.35 30.9 -30.05 31.1 -30.1 34.0 -30.85 38.45 -31.0 Q39.65 -30.4 40.55 -28.1 L41.1 -26.4 41.4 -24.75 41.3 -22.25 Q41.35 -21.35 39.95 -20.05 39.25 -19.5 38.2 -19.0 L38.35 -18.95 Q39.25 -18.65 40.0 -17.95 40.55 -17.35 40.7 -16.8 L41.15 -14.5 41.15 -12.4 Q41.1 -8.05 39.5 -6.65 38.15 -5.45 34.5 -5.5 L32.75 -5.6 32.75 -5.5 32.9 -5.5 33.4 -5.4 34.45 -5.15 Q36.95 -4.7 37.25 -3.85 L37.45 -0.55 37.25 2.0 37.05 3.6 Q36.2 5.95 34.4 7.1 31.45 8.4 28.0 8.3 22.75 8.05 17.45 8.1 L13.55 7.95 9.9 7.45 7.7 7.0 6.4 6.75 3.6 5.85 1.95 5.1 0.5 5.65 -2.2 6.1 -12.5 7.95 Q-21.85 8.7 -31.25 7.8 -41.6 7.35 -51.65 4.6 -57.7 2.95 -63.4 0.25 L-73.55 -5.55 -74.45 -5.9 -74.65 -6.1 -76.8 -7.45 -75.9 -8.7 Q-75.55 -8.3 -74.6 -7.75 L-74.35 -7.55 -70.95 -5.35 Q-66.55 -2.65 -62.0 -0.5 -56.8 2.0 -51.05 3.35 -41.25 5.7 -31.2 6.0 L-22.5 6.5 Q-12.15 6.75 -2.15 4.3 L1.6 3.55 2.2 3.75 Q2.95 3.85 5.0 4.8 L6.7 5.2 7.7 5.55 11.6 6.25 15.9 6.65 17.5 6.7 24.15 6.75 Q29.6 7.55 34.4 5.85 L35.15 5.0 35.9 3.55 36.1 2.75 36.5 -2.55 Q36.5 -3.55 36.15 -3.8 L34.8 -4.15 34.1 -4.3 32.2 -4.8 Q31.7 -4.95 31.5 -5.2 L31.55 -5.5 31.45 -5.7 31.5 -5.75 31.35 -5.8 31.25 -5.85 31.1 -5.9 Q30.8 -6.0 30.7 -6.15 L30.65 -6.25 33.8 -6.35 37.15 -6.75 Q38.9 -7.3 39.55 -8.75 40.05 -9.8 40.05 -12.4 40.1 -15.0 39.8 -16.15 39.3 -18.35 37.6 -18.35 L36.8 -18.3" fill="#000000" fill-rule="evenodd" stroke="none"/>
      <path d="M0.25 -29.9 Q0.3 -30.5 0.8 -31.05 1.4 -31.8 2.75 -32.45 4.0 -33.1 5.6 -33.0 L7.75 -32.9 9.1 -32.7 9.1 -32.45 Q9.1 -31.55 9.25 -30.85 9.35 -30.35 10.3 -30.25 L15.05 -29.0 15.2 -28.95 22.2 -27.7 26.45 -27.95 30.85 -28.65 31.1 -28.7 35.65 -29.7 36.05 -29.75 38.4 -29.35 Q39.25 -28.55 39.75 -26.4 40.25 -24.6 40.2 -23.3 L40.05 -21.65 Q39.7 -20.95 38.05 -20.0 L37.55 -19.7 34.8 -19.2 34.1 -19.1 33.35 -18.95 33.3 -18.9 33.2 -18.9 32.55 -18.8 32.1 -18.65 32.15 -18.5 32.75 -18.3 32.9 -18.3 33.25 -18.25 34.1 -18.25 36.15 -18.35 36.8 -18.3 37.35 -17.0 37.55 -13.35 Q37.45 -10.8 37.05 -9.75 36.4 -8.3 34.75 -7.85 L31.5 -7.45 29.65 -7.5 29.55 -7.3 30.4 -6.25 31.1 -5.9 31.25 -5.85 31.35 -5.8 31.45 -5.7 31.55 -5.5 31.5 -5.2 Q31.7 -4.95 32.2 -4.8 L34.1 -4.3 34.15 -3.75 33.8 1.45 33.5 2.25 32.8 3.65 32.1 4.45 Q27.45 6.1 22.25 5.35 L15.85 5.25 14.3 5.25 10.2 4.85 6.5 4.15 5.55 3.85 3.9 3.5 Q1.9 2.55 1.2 2.45 0.95 2.2 0.6 2.2 L-2.95 3.0 Q-12.55 5.35 -22.5 5.1 L-30.85 4.65 Q-40.45 4.3 -49.85 2.05 -55.3 0.7 -60.25 -1.65 L-67.45 -5.55 -72.1 -8.6 -72.4 -8.75 Q-73.7 -9.55 -73.7 -9.95 L-73.2 -12.3 Q-66.25 -19.05 -56.4 -25.2 L-46.75 -31.05 Q-42.55 -34.3 -37.95 -35.45 L-36.1 -35.8 -36.35 -35.65 -36.2 -35.2 -35.5 -35.2 -31.5 -35.5 -23.15 -35.85 -19.55 -35.3 Q-15.6 -34.4 -9.55 -31.8 -0.25 -27.85 3.0 -27.8 L4.0 -27.9 4.9 -28.1 4.85 -28.2 3.8 -28.55 3.95 -28.6 3.9 -28.7 0.25 -29.9 M-22.95 -37.75 L-22.95 -37.7 -22.9 -37.45 -25.7 -37.4 -26.1 -37.35 -22.95 -37.75" fill="#999999" fill-rule="evenodd" stroke="none"/>
      <path d="M36.8 -18.3 L37.6 -18.35 Q39.3 -18.35 39.8 -16.15 40.1 -15.0 40.05 -12.4 40.05 -9.8 39.55 -8.75 38.9 -7.3 37.15 -6.75 L33.8 -6.35 30.65 -6.25 30.7 -6.15 Q30.8 -6.0 31.1 -5.9 L30.4 -6.25 29.55 -7.3 29.65 -7.5 31.5 -7.45 34.75 -7.85 Q36.4 -8.3 37.05 -9.75 37.45 -10.8 37.55 -13.35 L37.35 -17.0 36.8 -18.3 M31.35 -5.8 L31.5 -5.75 31.45 -5.7 31.35 -5.8 M34.1 -4.3 L34.8 -4.15 36.15 -3.8 Q36.5 -3.55 36.5 -2.55 L36.1 2.75 35.9 3.55 35.15 5.0 34.4 5.85 Q29.6 7.55 24.15 6.75 L17.5 6.7 15.9 6.65 11.6 6.25 7.7 5.55 6.7 5.2 5.0 4.8 Q2.95 3.85 2.2 3.75 L1.6 3.55 -2.15 4.3 Q-12.15 6.75 -22.5 6.5 L-31.2 6.0 Q-41.25 5.7 -51.05 3.35 -56.8 2.0 -62.0 -0.5 -66.55 -2.65 -70.95 -5.35 L-74.35 -7.55 -74.6 -7.75 Q-75.55 -8.3 -75.9 -8.7 L-73.3 -12.25 -73.2 -12.3 -73.7 -9.95 Q-73.7 -9.55 -72.4 -8.75 L-72.1 -8.6 -67.45 -5.55 -60.25 -1.65 Q-55.3 0.7 -49.85 2.05 -40.45 4.3 -30.85 4.65 L-22.5 5.1 Q-12.55 5.35 -2.95 3.0 L0.6 2.2 Q0.95 2.2 1.2 2.45 1.9 2.55 3.9 3.5 L5.55 3.85 6.5 4.15 10.2 4.85 14.3 5.25 15.85 5.25 22.25 5.35 Q27.45 6.1 32.1 4.45 L32.8 3.65 33.5 2.25 33.8 1.45 34.15 -3.75 34.1 -4.3 M3.8 -28.55 L0.25 -29.7 0.25 -29.9 3.9 -28.7 3.95 -28.6 3.8 -28.55" fill="#bdbdbd" fill-rule="evenodd" stroke="none"/>
    </g>
  </defs>
</svg>
